                                                            >C7 >C7 >C7 >C7 >C7 >C7 >C7 >C7 >C7 >C7 >C7 >C7 >C7 >C7 >C7 >C7 >C7 >C7 >C7 >C7 >C7 >C7 >C7 >C7 >C7 >C7 >C7 >C7 >C7 > >B9 >B9 >B9 >B9 >B9 >B9 >B9 >B9 >B9 >B9 >B9 >B9 >B9 >B9 >B9 >B9 >B9 >B9 >B9 >B9 >B9 >B9 >B9 >B9 >B9 >B9 >B9 >B9 >B9  >C>: >C>: >C>: >C>: >C>: >C>: >C>: >C>: >C>: >C>: >C>: >C>: >C>: >C>: >C>: >C>: >C>: >C>: >C>: >C>: >C>: >C>: >C>: >C>: >C>: >C>: >C>: >C>: >C>: >C>: >C>: >C>: >C>: >C>: >C>: >C>: >C>: >C>: >C>: >C>: >C>: >C>: >C>: >C>: >C>: >C>: >C>: >C>: >C>: >C>: >C>: >C>: >C>: >C>: >C>: >C>: >C>: >C>: >C>:  C>7 C>7 C>7 C>7 C>7 C>7 C>7 C>7 C>7 C>7 C>7 C>7 C>7 C>7 C>7 C>7 C>7 C>7 C>7 C>7 C>7 C>7 C>7 C>7 C>7 C>7 C>7 C>7 C>7 >7 B>7 B>7 B>7 B>7 B>7 B>7 B>7 B>7 B>7 B>7 B>7 B>7 B>7 B>7 B>7 B>7 B>7 B>7 B>7 B>7 B>7 B>7 B>7 B>7 B>7 B>7 B>7 B>7 B>7  C:+ C:+ C:+ C:+ C:+ C:+ C:+ C:+ C:+ C:+ C:+ C:+ C:+ C:+ C:+ C:+ C:+ C:+ C:+ C:+ C:+ C:+ C:+ C:+ C:+ C:+ C:+ C:+ C:+ C:+ C:+ C:+ C:+ C:+ C:+ C:+ C:+ C:+ C:+ C:+ C:+ C:+ C:+ C:+ C:+ C:+ C:+ C:+ C:+ C:+ C:+ C:+ C:+ C:+ C:+ C:+ C:+ C:+ C:+  >F7 >F7 >F7 >F7 >F7 >F7 >F7 >F7 >F7 >F7 >F7 >F7 >F7 >F7 >F7 >F7 >F7 >F7 >F7 >F7 >F7 >F7 >F7 >F7 >F7 >F7 >F7 >F7 >F7  <H9 <H9 <H9 <H9 <H9 <H9 <H9 <H9 <H9 <H9 <H9 <H9 <H9 <H9 <H9 <H9 <H9 <H9 <H9 <H9 <H9 <H9 <H9 <H9 <H9 <H9 <H9 <H9 <H9  >JC: >JC: >JC: >JC: >JC: >JC: >JC: >JC: >JC: >JC: >JC: >JC: >JC: >JC: >JC: >JC: >JC: >JC: >JC: >JC: >JC: >JC: >JC: >JC: >JC: >JC: >JC: >JC: >JC: >JC: >JC: >JC: >JC: >JC: >JC: >JC: >JC: >JC: >JC: >JC: >JC: >JC: >JC: >JC: >JC: >JC: >JC: >JC: >JC: >JC: >JC: >JC: >JC: >JC: >JC: >JC: >JC: >JC: >JC:  :C7 :C7 :C7 :C7 :C7 :C7 :C7 :C7 :C7 :C7 :C7 :C7 :C7 :C7 :C7 :C7 :C7 :C7 :C7 :C7 :C7 :C7 :C7 :C7 :C7 :C7 :C7 :C7 :C7 C7 9C7 9C7 9C7 9C7 9C7 9C7 9C7 9C7 9C7 9C7 9C7 9C7 9C7 9C7 9C7 9C7 9C7 9C7 9C7 9C7 9C7 9C7 9C7 9C7 9C7 9C7 9C7 9C7 9C7  :>+ :>+ :>+ :>+ :>+ :>+ :>+ :>+ :>+ :>+ :>+ :>+ :>+ :>+ :>+ :>+ :>+ :>+ :>+ :>+ :>+ :>+ :>+ :>+ :>+ :>+ :>+ :>+ :>+ :>+ :>+ :>+ :>+ :>+ :>+ :>+ :>+ :>+ :>+ :>+ :>+ :>+ :>+ :>+ :>+ :>+ :>+ :>+ :>+ :>+ :>+ :>+ :>+ :>+ :>+ :>+ :>+ :>+ :>+  7F7 7F7 7F7 7F7 7F7 7F7 7F7 7F7 7F7 7F7 7F7 7F7 7F7 7F7 7F7 7F7 7F7 7F7 7F7 7F7 7F7 7F7 7F7 7F7 7F7 7F7 7F7 7F7 7F7  6H9 6H9 6H9 6H9 6H9 6H9 6H9 6H9 6H9 6H9 6H9 6H9 6H9 6H9 6H9 6H9 6H9 6H9 6H9 6H9 6H9 6H9 6H9 6H9 6H9 6H9 6H9 6H9 6H9  7JC: 7JC: 7JC: 7JC: 7JC: 7JC: 7JC: 7JC: 7JC: 7JC: 7JC: 7JC: 7JC: 7JC: 7JC: 7JC: 7JC: 7JC: 7JC: 7JC: 7JC: 7JC: 7JC: 7JC: 7JC: 7JC: 7JC: 7JC: 7JC: 7C 7HC9 7HC9 7HC9 7HC9 7HC9 7HC9 7HC9 7HC9 7HC9 7HC9 7HC9 7HC9 7HC9 7HC9 7HC9 7HC9 7HC9 7HC9 7HC9 7HC9 7HC9 7HC9 7HC9 7HC9 7HC9 7HC9 7HC9 7HC9 7HC9  :F>7 :F>7 :F>7 :F>7 :F>7 :F>7 :F>7 :F>7 :F>7 :F>7 :F>7 :F>7 :F>7 :F>7 :F>7 :F>7 :F>7 :F>7 :F>7 :F>7 :F>7 :F>7 :F>7 :F>7 :F>7 :F>7 :F>7 :F>7 :F>7 :> :H>9 :H>9 :H>9 :H>9 :H>9 :H>9 :H>9 :H>9 :H>9 :H>9 :H>9 :H>9 :H>9 :H>9 :H>9 :H>9 :H>9 :H>9 :H>9 :H>9 :H>9 :H>9 :H>9 :H>9 :H>9 :H>9 :H>9 :H>9 :H>9  >JC: >JC: >JC: >JC: >JC: >JC: >JC: >JC: >JC: >JC: >JC: >JC: >JC: >JC: >JC: >JC: >JC: >JC: >JC: >JC: >JC: >JC: >JC: >JC: >JC: >JC: >JC: >JC: >JC: >C >HC9 >HC9 >HC9 >HC9 >HC9 >HC9 >HC9 >HC9 >HC9 >HC9 >HC9 >HC9 >HC9 >HC9 >HC9 >HC9 >HC9 >HC9 >HC9 >HC9 >HC9 >HC9 >HC9 >HC9 >HC9 >HC9 >HC9 >HC9 >HC9  CF>: CF>: CF>: CF>: CF>: CF>: CF>: CF>: CF>: CF>: CF>: CF>: CF>: CF>: CF>: CF>: CF>: CF>: CF>: CF>: CF>: CF>: CF>: CF>: CF>: CF>: CF>: CF>: CF>: C> CH>7 CH>7 CH>7 CH>7 CH>7 CH>7 CH>7 CH>7 CH>7 CH>7 CH>7 CH>7 CH>7 CH>7 CH>7 CH>7 CH>7 CH>7 CH>7 CH>7 CH>7 CH>7 CH>7 CH>7 CH>7 CH>7 CH>7 CH>7 CH>7  EJB> EJB> EJB> EJB> EJB> EJB> EJB> EJB> EJB> EJB> EJB> EJB> EJB> EJB> EJB> EJB> EJB> EJB> EJB> EJB> EJB> EJB> EJB> EJB> EJB> EJB> EJB> EJB> EJB> JB> CJB> CJB> CJB> CJB> CJB> CJB> CJB> CJB> CJB> CJB> CJB> CJB> CJB> CJB> CJB> CJB> CJB> CJB> CJB> CJB> CJB> CJB> CJB> CJB> CJB> CJB> CJB> CJB> CJB>  BEB2 BEB2 BEB2 BEB2 BEB2 BEB2 BEB2 BEB2 BEB2 BEB2 BEB2 BEB2 BEB2 BEB2 BEB2 BEB2 BEB2 BEB2 BEB2 BEB2 BEB2 BEB2 BEB2 BEB2 BEB2 BEB2 BEB2 BEB2 BEB2 EB2 @EB2 @EB2 @EB2 @EB2 @EB2 @EB2 @EB2 @EB2 @EB2 @EB2 @EB2 @EB2 @EB2 @EB2 @EB2 @EB2 @EB2 @EB2 @EB2 @EB2 @EB2 @EB2 @EB2 @EB2 @EB2 @EB2 @EB2 @EB2 @EB2  >>96 >>96 >>96 >>96 >>96 >>96 >>96 >>96 >>96 >>96 >>96 >>96 >>96 >>96 >>96 >>96 >>96 >>96 >>96 >>96 >>96 >>96 >>96 >>96 >>96 >>96 >>96 >>96 >>96 >>96 >>96 >>96 >>96 >>96 >>96 >>96 >>96 >>96 >>96 >>96 >>96 >>96 >>96 >>96 >>96 >>96 >>96 >>96 >>96 >>96 >>96 >>96 >>96 >>96 >>96 >>96 >>96 >>96 >>96  E>92 E>92 E>92 E>92 E>92 E>92 E>92 E>92 E>92 E>92 E>92 E>92 E>92 E>92 E>92 E>92 E>92 E>92 E>92 E>92 E>92 E>92 E>92 E>92 E>92 E>92 E>92 E>92 E>92 E>92 E>92 E>92 E>92 E>92 E>92 E>92 E>92 E>92 E>92 E>92 E>92 E>92 E>92 E>92 E>92 E>92 E>92 E>92 E>92 E>92 E>92 E>92 E>92 E>92 E>92 E>92 E>92 E>92 E>92  FC>F+ FC>F+ FC>F+ FC>F+ FC>F+ FC>F+ FC>F+ FC>F+ FC>F+ FC>F+ FC>F+ FC>F+ FC>F+ FC>F+ FC>F+ FC>F+ FC>F+ FC>F+ FC>F+ FC>F+ FC>F+ FC>F+ FC>F+ FC>F+ FC>F+ FC>F+ FC>F+ FC>F+ FC>F+ C>F+ HC>F+ HC>F+ HC>F+ HC>F+ HC>F+ HC>F+ HC>F+ HC>F+ HC>F+ HC>F+ HC>F+ HC>F+ HC>F+ HC>F+ HC>F+ HC>F+ HC>F+ HC>F+ HC>F+ HC>F+ HC>F+ HC>F+ HC>F+ HC>F+ HC>F+ HC>F+ HC>F+ HC>F+ HC>F+ C>F FC>F. FC>F. FC>F. FC>F. FC>F. FC>F. FC>F. FC>F. FC>F. FC>F. FC>F. FC>F. FC>F. FC>F. FC>F. FC>F. FC>F. FC>F. FC>F. FC>F. FC>F. FC>F. FC>F. FC>F. FC>F. FC>F. FC>F. FC>F. FC>F. C>F. EC>F. EC>F. EC>F. EC>F. EC>F. EC>F. EC>F. EC>F. EC>F. EC>F. EC>F. EC>F. EC>F. EC>F. EC>F. EC>F. EC>F. EC>F. EC>F. EC>F. EC>F. EC>F. EC>F. EC>F. EC>F. EC>F. EC>F. EC>F. EC>F. C>F CC>F2 CC>F2 CC>F2 CC>F2 CC>F2 CC>F2 CC>F2 CC>F2 CC>F2 CC>F2 CC>F2 CC>F2 CC>F2 CC>F2 CC>F2 CC>F2 CC>F2 CC>F2 CC>F2 CC>F2 CC>F2 CC>F2 CC>F2 CC>F2 CC>F2 CC>F2 CC>F2 CC>F2 CC>F2 C>F2 AC>F2 AC>F2 AC>F2 AC>F2 AC>F2 AC>F2 AC>F2 AC>F2 AC>F2 AC>F2 AC>F2 AC>F2 AC>F2 AC>F2 AC>F2 AC>F2 AC>F2 AC>F2 AC>F2 AC>F2 AC>F2 AC>F2 AC>F2 AC>F2 AC>F2 AC>F2 AC>F2 AC>F2 AC>F2 C>F ?C>F7 ?C>F7 ?C>F7 ?C>F7 ?C>F7 ?C>F7 ?C>F7 ?C>F7 ?C>F7 ?C>F7 ?C>F7 ?C>F7 ?C>F7 ?C>F7 ?C>F7 ?C>F7 ?C>F7 ?C>F7 ?C>F7 ?C>F7 ?C>F7 ?C>F7 ?C>F7 ?C>F7 ?C>F7 ?C>F7 ?C>F7 ?C>F7 ?C>F7 C>F7 >C>F7 >C>F7 >C>F7 >C>F7 >C>F7 >C>F7 >C>F7 >C>F7 >C>F7 >C>F7 >C>F7 >C>F7 >C>F7 >C>F7 >C>F7 >C>F7 >C>F7 >C>F7 >C>F7 >C>F7 >C>F7 >C>F7 >C>F7 >C>F7 >C>F7 >C>F7 >C>F7 >C>F7 >C>F7 C>F <HF3 <HF3 <HF3 <HF3 <HF3 <HF3 <HF3 <HF3 <HF3 <HF3 <HF3 <HF3 <HF3 <HF3 <HF3 <HF3 <HF3 <HF3 <HF3 <HF3 <HF3 <HF3 <HF3 <HF3 <HF3 <HF3 <HF3 <HF3 <HF3 <HF <HF5 <HF5 <HF5 <HF5 <HF5 <HF5 <HF5 <HF5 <HF5 <HF5 <HF5 <HF5 <HF5 <HF5 <HF5 <HF5 <HF5 <HF5 <HF5 <HF5 <HF5 <HF5 <HF5 <HF5 <HF5 <HF5 <HF5 <HF5 <HF5 HF ?HF3 ?HF3 ?HF3 ?HF3 ?HF3 ?HF3 ?HF3 ?HF3 ?HF3 ?HF3 ?HF3 ?HF3 ?HF3 ?HF3 ?HF3 ?HF3 ?HF3 ?HF3 ?HF3 ?HF3 ?HF3 ?HF3 ?HF3 ?HF3 ?HF3 ?HF3 ?HF3 ?HF3 ?HF3 ?HF ?HF2 ?HF2 ?HF2 ?HF2 ?HF2 ?HF2 ?HF2 ?HF2 ?HF2 ?HF2 ?HF2 ?HF2 ?HF2 ?HF2 ?HF2 ?HF2 ?HF2 ?HF2 ?HF2 ?HF2 ?HF2 ?HF2 ?HF2 ?HF2 ?HF2 ?HF2 ?HF2 ?HF2 ?HF2 HF CHF0 CHF0 CHF0 CHF0 CHF0 CHF0 CHF0 CHF0 CHF0 CHF0 CHF0 CHF0 CHF0 CHF0 CHF0 CHF0 CHF0 CHF0 CHF0 CHF0 CHF0 CHF0 CHF0 CHF0 CHF0 CHF0 CHF0 CHF0 CHF0 CHF CHF. CHF. CHF. CHF. CHF. CHF. CHF. CHF. CHF. CHF. CHF. CHF. CHF. CHF. CHF. CHF. CHF. CHF. CHF. CHF. CHF. CHF. CHF. CHF. CHF. CHF. CHF. CHF. CHF. HF FCFC- FCFC- FCFC- FCFC- FCFC- FCFC- FCFC- FCFC- FCFC- FCFC- FCFC- FCFC- FCFC- FCFC- FCFC- FCFC- FCFC- FCFC- FCFC- FCFC- FCFC- FCFC- FCFC- FCFC- FCFC- FCFC- FCFC- FCFC- FCFC- FCFC FCFC+ FCFC+ FCFC+ FCFC+ FCFC+ FCFC+ FCFC+ FCFC+ FCFC+ FCFC+ FCFC+ FCFC+ FCFC+ FCFC+ FCFC+ FCFC+ FCFC+ FCFC+ FCFC+ FCFC+ FCFC+ FCFC+ FCFC+ FCFC+ FCFC+ FCFC+ FCFC+ FCFC+ FCFC+ CFC EA<E) EA<E) EA<E) EA<E) EA<E) EA<E) EA<E) EA<E) EA<E) EA<E) EA<E) EA<E) EA<E) EA<E) EA<E) EA<E) EA<E) EA<E) EA<E) EA<E) EA<E) EA<E) EA<E) EA<E) EA<E) EA<E) EA<E) EA<E) EA<E) A<E) FA<E) FA<E) FA<E) FA<E) FA<E) FA<E) FA<E) FA<E) FA<E) FA<E) FA<E) FA<E) FA<E) FA<E) FA<E) FA<E) FA<E) FA<E) FA<E) FA<E) FA<E) FA<E) FA<E) FA<E) FA<E) FA<E) FA<E) FA<E) FA<E) A<E EA<E- EA<E- EA<E- EA<E- EA<E- EA<E- EA<E- EA<E- EA<E- EA<E- EA<E- EA<E- EA<E- EA<E- EA<E- EA<E- EA<E- EA<E- EA<E- EA<E- EA<E- EA<E- EA<E- EA<E- EA<E- EA<E- EA<E- EA<E- EA<E- A<E- CA<E- CA<E- CA<E- CA<E- CA<E- CA<E- CA<E- CA<E- CA<E- CA<E- CA<E- CA<E- CA<E- CA<E- CA<E- CA<E- CA<E- CA<E- CA<E- CA<E- CA<E- CA<E- CA<E- CA<E- CA<E- CA<E- CA<E- CA<E- CA<E- A<E AA<E0 AA<E0 AA<E0 AA<E0 AA<E0 AA<E0 AA<E0 AA<E0 AA<E0 AA<E0 AA<E0 AA<E0 AA<E0 AA<E0 AA<E0 AA<E0 AA<E0 AA<E0 AA<E0 AA<E0 AA<E0 AA<E0 AA<E0 AA<E0 AA<E0 AA<E0 AA<E0 AA<E0 AA<E0 A<E0 ?A<E0 ?A<E0 ?A<E0 ?A<E0 ?A<E0 ?A<E0 ?A<E0 ?A<E0 ?A<E0 ?A<E0 ?A<E0 ?A<E0 ?A<E0 ?A<E0 ?A<E0 ?A<E0 ?A<E0 ?A<E0 ?A<E0 ?A<E0 ?A<E0 ?A<E0 ?A<E0 ?A<E0 ?A<E0 ?A<E0 ?A<E0 ?A<E0 ?A<E0 A<E >A<E5 >A<E5 >A<E5 >A<E5 >A<E5 >A<E5 >A<E5 >A<E5 >A<E5 >A<E5 >A<E5 >A<E5 >A<E5 >A<E5 >A<E5 >A<E5 >A<E5 >A<E5 >A<E5 >A<E5 >A<E5 >A<E5 >A<E5 >A<E5 >A<E5 >A<E5 >A<E5 >A<E5 >A<E5 A<E5 <A<E5 <A<E5 <A<E5 <A<E5 <A<E5 <A<E5 <A<E5 <A<E5 <A<E5 <A<E5 <A<E5 <A<E5 <A<E5 <A<E5 <A<E5 <A<E5 <A<E5 <A<E5 <A<E5 <A<E5 <A<E5 <A<E5 <A<E5 <A<E5 <A<E5 <A<E5 <A<E5 <A<E5 <A<E5 A<E :EAF2 :EAF2 :EAF2 :EAF2 :EAF2 :EAF2 :EAF2 :EAF2 :EAF2 :EAF2 :EAF2 :EAF2 :EAF2 :EAF2 :EAF2 :EAF2 :EAF2 :EAF2 :EAF2 :EAF2 :EAF2 :EAF2 :EAF2 :EAF2 :EAF2 :EAF2 :EAF2 :EAF2 :EAF2 :EAF :EAF3 :EAF3 :EAF3 :EAF3 :EAF3 :EAF3 :EAF3 :EAF3 :EAF3 :EAF3 :EAF3 :EAF3 :EAF3 :EAF3 :EAF3 :EAF3 :EAF3 :EAF3 :EAF3 :EAF3 :EAF3 :EAF3 :EAF3 :EAF3 :EAF3 :EAF3 :EAF3 :EAF3 :EAF3 EAF >EAF2 >EAF2 >EAF2 >EAF2 >EAF2 >EAF2 >EAF2 >EAF2 >EAF2 >EAF2 >EAF2 >EAF2 >EAF2 >EAF2 >EAF2 >EAF2 >EAF2 >EAF2 >EAF2 >EAF2 >EAF2 >EAF2 >EAF2 >EAF2 >EAF2 >EAF2 >EAF2 >EAF2 >EAF2 >EAF >EAF0 >EAF0 >EAF0 >EAF0 >EAF0 >EAF0 >EAF0 >EAF0 >EAF0 >EAF0 >EAF0 >EAF0 >EAF0 >EAF0 >EAF0 >EAF0 >EAF0 >EAF0 >EAF0 >EAF0 >EAF0 >EAF0 >EAF0 >EAF0 >EAF0 >EAF0 >EAF0 >EAF0 >EAF0 EAF AEAF. AEAF. AEAF. AEAF. AEAF. AEAF. AEAF. AEAF. AEAF. AEAF. AEAF. AEAF. AEAF. AEAF. AEAF. AEAF. AEAF. AEAF. AEAF. AEAF. AEAF. AEAF. AEAF. AEAF. AEAF. AEAF. AEAF. AEAF. AEAF. AEAF AEAF- AEAF- AEAF- AEAF- AEAF- AEAF- AEAF- AEAF- AEAF- AEAF- AEAF- AEAF- AEAF- AEAF- AEAF- AEAF- AEAF- AEAF- AEAF- AEAF- AEAF- AEAF- AEAF- AEAF- AEAF- AEAF- AEAF- AEAF- AEAF- EAF EEAF+ EEAF+ EEAF+ EEAF+ EEAF+ EEAF+ EEAF+ EEAF+ EEAF+ EEAF+ EEAF+ EEAF+ EEAF+ EEAF+ EEAF+ EEAF+ EEAF+ EEAF+ EEAF+ EEAF+ EEAF+ EEAF+ EEAF+ EEAF+ EEAF+ EEAF+ EEAF+ EEAF+ EEAF+ EEAF EEAF) EEAF) EEAF) EEAF) EEAF) EEAF) EEAF) EEAF) EEAF) EEAF) EEAF) EEAF) EEAF) EEAF) EEAF) EEAF) EEAF) EEAF) EEAF) EEAF) EEAF) EEAF) EEAF) EEAF) EEAF) EEAF) EEAF) EEAF) EEAF) EAF CC?:' CC?:' CC?:' CC?:' CC?:' CC?:' CC?:' CC?:' CC?:' CC?:' CC?:' CC?:' CC?:' CC?:' CC?:' CC?:' CC?:' CC?:' CC?:' CC?:' CC?:' CC?:' CC?:' CC?:' CC?:' CC?:' CC?:' CC?:' CC?:' C?:' EC?:' EC?:' EC?:' EC?:' EC?:' EC?:' EC?:' EC?:' EC?:' EC?:' EC?:' EC?:' EC?:' EC?:' EC?:' EC?:' EC?:' EC?:' EC?:' EC?:' EC?:' EC?:' EC?:' EC?:' EC?:' EC?:' EC?:' EC?:' EC?:' C?: CC?:+ CC?:+ CC?:+ CC?:+ CC?:+ CC?:+ CC?:+ CC?:+ CC?:+ CC?:+ CC?:+ CC?:+ CC?:+ CC?:+ CC?:+ CC?:+ CC?:+ CC?:+ CC?:+ CC?:+ CC?:+ CC?:+ CC?:+ CC?:+ CC?:+ CC?:+ CC?:+ CC?:+ CC?:+ C?:+ AC?:+ AC?:+ AC?:+ AC?:+ AC?:+ AC?:+ AC?:+ AC?:+ AC?:+ AC?:+ AC?:+ AC?:+ AC?:+ AC?:+ AC?:+ AC?:+ AC?:+ AC?:+ AC?:+ AC?:+ AC?:+ AC?:+ AC?:+ AC?:+ AC?:+ AC?:+ AC?:+ AC?:+ AC?:+ C?: ?C?:. ?C?:. ?C?:. ?C?:. ?C?:. ?C?:. ?C?:. ?C?:. ?C?:. ?C?:. ?C?:. ?C?:. ?C?:. ?C?:. ?C?:. ?C?:. ?C?:. ?C?:. ?C?:. ?C?:. ?C?:. ?C?:. ?C?:. ?C?:. ?C?:. ?C?:. ?C?:. ?C?:. ?C?:. C?:. >C?:. >C?:. >C?:. >C?:. >C?:. >C?:. >C?:. >C?:. >C?:. >C?:. >C?:. >C?:. >C?:. >C?:. >C?:. >C?:. >C?:. >C?:. >C?:. >C?:. >C?:. >C?:. >C?:. >C?:. >C?:. >C?:. >C?:. >C?:. >C?:. C?: <C?:3 <C?:3 <C?:3 <C?:3 <C?:3 <C?:3 <C?:3 <C?:3 <C?:3 <C?:3 <C?:3 <C?:3 <C?:3 <C?:3 <C?:3 <C?:3 <C?:3 <C?:3 <C?:3 <C?:3 <C?:3 <C?:3 <C?:3 <C?:3 <C?:3 <C?:3 <C?:3 <C?:3 <C?:3 C?:3 :C?:3 :C?:3 :C?:3 :C?:3 :C?:3 :C?:3 :C?:3 :C?:3 :C?:3 :C?:3 :C?:3 :C?:3 :C?:3 :C?:3 :C?:3 :C?:3 :C?:3 :C?:3 :C?:3 :C?:3 :C?:3 :C?:3 :C?:3 :C?:3 :C?:3 :C?:3 :C?:3 :C?:3 :C?:3 C?: 9CE?0 9CE?0 9CE?0 9CE?0 9CE?0 9CE?0 9CE?0 9CE?0 9CE?0 9CE?0 9CE?0 9CE?0 9CE?0 9CE?0 9CE?0 9CE?0 9CE?0 9CE?0 9CE?0 9CE?0 9CE?0 9CE?0 9CE?0 9CE?0 9CE?0 9CE?0 9CE?0 9CE?0 9CE?0 CE?0 :CE?0 :CE?0 :CE?0 :CE?0 :CE?0 :CE?0 :CE?0 :CE?0 :CE?0 :CE?0 :CE?0 :CE?0 :CE?0 :CE?0 :CE?0 :CE?0 :CE?0 :CE?0 :CE?0 :CE?0 :CE?0 :CE?0 :CE?0 :CE?0 :CE?0 :CE?0 :CE?0 :CE?0 :CE?0 CE? <CE?0 <CE?0 <CE?0 <CE?0 <CE?0 <CE?0 <CE?0 <CE?0 <CE?0 <CE?0 <CE?0 <CE?0 <CE?0 <CE?0 <CE?0 <CE?0 <CE?0 <CE?0 <CE?0 <CE?0 <CE?0 <CE?0 <CE?0 <CE?0 <CE?0 <CE?0 <CE?0 <CE?0 <CE?0 CE?0 >CE?0 >CE?0 >CE?0 >CE?0 >CE?0 >CE?0 >CE?0 >CE?0 >CE?0 >CE?0 >CE?0 >CE?0 >CE?0 >CE?0 >CE?0 >CE?0 >CE?0 >CE?0 >CE?0 >CE?0 >CE?0 >CE?0 >CE?0 >CE?0 >CE?0 >CE?0 >CE?0 >CE?0 >CE?0 CE? ?CE?0 ?CE?0 ?CE?0 ?CE?0 ?CE?0 ?CE?0 ?CE?0 ?CE?0 ?CE?0 ?CE?0 ?CE?0 ?CE?0 ?CE?0 ?CE?0 ?CE?0 ?CE?0 ?CE?0 ?CE?0 ?CE?0 ?CE?0 ?CE?0 ?CE?0 ?CE?0 ?CE?0 ?CE?0 ?CE?0 ?CE?0 ?CE?0 ?CE?0 CE?0 <CE?0 <CE?0 <CE?0 <CE?0 <CE?0 <CE?0 <CE?0 <CE?0 <CE?0 <CE?0 <CE?0 <CE?0 <CE?0 <CE?0 <CE?0 <CE?0 <CE?0 <CE?0 <CE?0 <CE?0 <CE?0 <CE?0 <CE?0 <CE?0 <CE?0 <CE?0 <CE?0 <CE?0 <CE?0 CE? 9CE?0 9CE?0 9CE?0 9CE?0 9CE?0 9CE?0 9CE?0 9CE?0 9CE?0 9CE?0 9CE?0 9CE?0 9CE?0 9CE?0 9CE?0 9CE?0 9CE?0 9CE?0 9CE?0 9CE?0 9CE?0 9CE?0 9CE?0 9CE?0 9CE?0 9CE?0 9CE?0 9CE?0 9CE?0 CE?0 <CE?0 <CE?0 <CE?0 <CE?0 <CE?0 <CE?0 <CE?0 <CE?0 <CE?0 <CE?0 <CE?0 <CE?0 <CE?0 <CE?0 <CE?0 <CE?0 <CE?0 <CE?0 <CE?0 <CE?0 <CE?0 <CE?0 <CE?0 <CE?0 <CE?0 <CE?0 <CE?0 <CE?0 <CE?0 CE? 6>B0 6>B0 6>B0 6>B0 6>B0 6>B0 6>B0 6>B0 6>B0 6>B0 6>B0 6>B0 6>B0 6>B0 6>B0 6>B0 6>B0 6>B0 6>B0 6>B0 6>B0 6>B0 6>B0 6>B0 6>B0 6>B0 6>B0 6>B0 6>B0 >B0 7>B0 7>B0 7>B0 7>B0 7>B0 7>B0 7>B0 7>B0 7>B0 7>B0 7>B0 7>B0 7>B0 7>B0 7>B0 7>B0 7>B0 7>B0 7>B0 7>B0 7>B0 7>B0 7>B0 7>B0 7>B0 7>B0 7>B0 7>B0 7>B0 >B 9>B0 9>B0 9>B0 9>B0 9>B0 9>B0 9>B0 9>B0 9>B0 9>B0 9>B0 9>B0 9>B0 9>B0 9>B0 9>B0 9>B0 9>B0 9>B0 9>B0 9>B0 9>B0 9>B0 9>B0 9>B0 9>B0 9>B0 9>B0 9>B0 >B0 :>B0 :>B0 :>B0 :>B0 :>B0 :>B0 :>B0 :>B0 :>B0 :>B0 :>B0 :>B0 :>B0 :>B0 :>B0 :>B0 :>B0 :>B0 :>B0 :>B0 :>B0 :>B0 :>B0 :>B0 :>B0 :>B0 :>B0 :>B0 :>B0 >B <>B0 <>B0 <>B0 <>B0 <>B0 <>B0 <>B0 <>B0 <>B0 <>B0 <>B0 <>B0 <>B0 <>B0 <>B0 <>B0 <>B0 <>B0 <>B0 <>B0 <>B0 <>B0 <>B0 <>B0 <>B0 <>B0 <>B0 <>B0 <>B0 >B0 9>B0 9>B0 9>B0 9>B0 9>B0 9>B0 9>B0 9>B0 9>B0 9>B0 9>B0 9>B0 9>B0 9>B0 9>B0 9>B0 9>B0 9>B0 9>B0 9>B0 9>B0 9>B0 9>B0 9>B0 9>B0 9>B0 9>B0 9>B0 9>B0 >B 6>B0 6>B0 6>B0 6>B0 6>B0 6>B0 6>B0 6>B0 6>B0 6>B0 6>B0 6>B0 6>B0 6>B0 6>B0 6>B0 6>B0 6>B0 6>B0 6>B0 6>B0 6>B0 6>B0 6>B0 6>B0 6>B0 6>B0 6>B0 6>B0 >B0 9>B0 9>B0 9>B0 9>B0 9>B0 9>B0 9>B0 9>B0 9>B0 9>B0 9>B0 9>B0 9>B0 9>B0 9>B0 9>B0 9>B0 9>B0 9>B0 9>B0 9>B0 9>B0 9>B0 9>B0 9>B0 9>B0 9>B0 9>B0 9>B0 >B 2><0 2><0 2><0 2><0 2><0 2><0 2><0 2><0 2><0 2><0 2><0 2><0 2><0 2><0 2><0 2><0 2><0 2><0 2><0 2><0 2><0 2><0 2><0 2><0 2><0 2><0 2><0 2><0 2><0 ><0 4><0 4><0 4><0 4><0 4><0 4><0 4><0 4><0 4><0 4><0 4><0 4><0 4><0 4><0 4><0 4><0 4><0 4><0 4><0 4><0 4><0 4><0 4><0 4><0 4><0 4><0 4><0 4><0 4><0 >< 6><0 6><0 6><0 6><0 6><0 6><0 6><0 6><0 6><0 6><0 6><0 6><0 6><0 6><0 6><0 6><0 6><0 6><0 6><0 6><0 6><0 6><0 6><0 6><0 6><0 6><0 6><0 6><0 6><0 ><0 7><0 7><0 7><0 7><0 7><0 7><0 7><0 7><0 7><0 7><0 7><0 7><0 7><0 7><0 7><0 7><0 7><0 7><0 7><0 7><0 7><0 7><0 7><0 7><0 7><0 7><0 7><0 7><0 7><0 >< 9B<0 9B<0 9B<0 9B<0 9B<0 9B<0 9B<0 9B<0 9B<0 9B<0 9B<0 9B<0 9B<0 9B<0 9B<0 9B<0 9B<0 9B<0 9B<0 9B<0 9B<0 9B<0 9B<0 9B<0 9B<0 9B<0 9B<0 9B<0 9B<0 B<0 :B<0 :B<0 :B<0 :B<0 :B<0 :B<0 :B<0 :B<0 :B<0 :B<0 :B<0 :B<0 :B<0 :B<0 :B<0 :B<0 :B<0 :B<0 :B<0 :B<0 :B<0 :B<0 :B<0 :B<0 :B<0 :B<0 :B<0 :B<0 :B<0 B< <B<0 <B<0 <B<0 <B<0 <B<0 <B<0 <B<0 <B<0 <B<0 <B<0 <B<0 <B<0 <B<0 <B<0 <B<0 <B<0 <B<0 <B<0 <B<0 <B<0 <B<0 <B<0 <B<0 <B<0 <B<0 <B<0 <B<0 <B<0 <B<0 B<0 9B<0 9B<0 9B<0 9B<0 9B<0 9B<0 9B<0 9B<0 9B<0 9B<0 9B<0 9B<0 9B<0 9B<0 9B<0 9B<0 9B<0 9B<0 9B<0 9B<0 9B<0 9B<0 9B<0 9B<0 9B<0 9B<0 9B<0 9B<0 9B<0 B< >C>:. >C>:. >C>:. >C>:. >C>:. >C>:. >C>:. >C>:. >C>:. >C>:. >C>:. >C>:. >C>:. >C>:. >C>:. >C>:. >C>:. >C>:. >C>:. >C>:. >C>:. >C>:. >C>:. >C>:. >C>:. >C>:. >C>:. >C>:. >C>:. C>:. 6C>:. 6C>:. 6C>:. 6C>:. 6C>:. 6C>:. 6C>:. 6C>:. 6C>:. 6C>:. 6C>:. 6C>:. 6C>:. 6C>:. 6C>:. 6C>:. 6C>:. 6C>:. 6C>:. 6C>:. 6C>:. 6C>:. 6C>:. 6C>:. 6C>:. 6C>:. 6C>:. 6C>:. 6C>:. C>: 7C>:2 7C>:2 7C>:2 7C>:2 7C>:2 7C>:2 7C>:2 7C>:2 7C>:2 7C>:2 7C>:2 7C>:2 7C>:2 7C>:2 7C>:2 7C>:2 7C>:2 7C>:2 7C>:2 7C>:2 7C>:2 7C>:2 7C>:2 7C>:2 7C>:2 7C>:2 7C>:2 7C>:2 7C>:2 7C>:2 7C>:2 7C>:2 7C>:2 7C>:2 7C>:2 7C>:2 7C>:2 7C>:2 7C>:2 7C>:2 7C>:2 7C>:2 7C>:2 7C>:2 7C>:2 7C>:2 7C>:2 7C>:2 7C>:2 7C>:2 7C>:2 7C>:2 7C>:2 7C>:2 7C>:2 7C>:2 7C>:2 7C>:2 7C>:2 7C>: 7C>:. 7C>:. 7C>:. 7C>:. 7C>:. 7C>:. 7C>:. 7C>:. 7C>:. 7C>:. 7C>:. 7C>:. 7C>:. 7C>:. 7C>:. 7C>:. 7C>:. 7C>:. 7C>:. 7C>:. 7C>:. 7C>:. 7C>:. 7C>:. 7C>:. 7C>:. 7C>:. 7C>:. 7C>:. C>:. >C>:. >C>:. >C>:. >C>:. >C>:. >C>:. >C>:. >C>:. >C>:. >C>:. >C>:. >C>:. >C>:. >C>:. >C>:. >C>:. >C>:. >C>:. >C>:. >C>:. >C>:. >C>:. >C>:. >C>:. >C>:. >C>:. >C>:. >C>:. >C>:. C>: :C>:+ :C>:+ :C>:+ :C>:+ :C>:+ :C>:+ :C>:+ :C>:+ :C>:+ :C>:+ :C>:+ :C>:+ :C>:+ :C>:+ :C>:+ :C>:+ :C>:+ :C>:+ :C>:+ :C>:+ :C>:+ :C>:+ :C>:+ :C>:+ :C>:+ :C>:+ :C>:+ :C>:+ :C>:+ C>:+ 7C>:+ 7C>:+ 7C>:+ 7C>:+ 7C>:+ 7C>:+ 7C>:+ 7C>:+ 7C>:+ 7C>:+ 7C>:+ 7C>:+ 7C>:+ 7C>:+ 7C>:+ 7C>:+ 7C>:+ 7C>:+ 7C>:+ 7C>:+ 7C>:+ 7C>:+ 7C>:+ 7C>:+ 7C>:+ 7C>:+ 7C>:+ 7C>:+ 7C>:+ C>: ?C?<0 ?C?<0 ?C?<0 ?C?<0 ?C?<0 ?C?<0 ?C?<0 ?C?<0 ?C?<0 ?C?<0 ?C?<0 ?C?<0 ?C?<0 ?C?<0 ?C?<0 ?C?<0 ?C?<0 ?C?<0 ?C?<0 ?C?<0 ?C?<0 ?C?<0 ?C?<0 ?C?<0 ?C?<0 ?C?<0 ?C?<0 ?C?<0 ?C?<0 C?<0 6C?<0 6C?<0 6C?<0 6C?<0 6C?<0 6C?<0 6C?<0 6C?<0 6C?<0 6C?<0 6C?<0 6C?<0 6C?<0 6C?<0 6C?<0 6C?<0 6C?<0 6C?<0 6C?<0 6C?<0 6C?<0 6C?<0 6C?<0 6C?<0 6C?<0 6C?<0 6C?<0 6C?<0 6C?<0 C?< 7C?<3 7C?<3 7C?<3 7C?<3 7C?<3 7C?<3 7C?<3 7C?<3 7C?<3 7C?<3 7C?<3 7C?<3 7C?<3 7C?<3 7C?<3 7C?<3 7C?<3 7C?<3 7C?<3 7C?<3 7C?<3 7C?<3 7C?<3 7C?<3 7C?<3 7C?<3 7C?<3 7C?<3 7C?<3 7C?<3 7C?<3 7C?<3 7C?<3 7C?<3 7C?<3 7C?<3 7C?<3 7C?<3 7C?<3 7C?<3 7C?<3 7C?<3 7C?<3 7C?<3 7C?<3 7C?<3 7C?<3 7C?<3 7C?<3 7C?<3 7C?<3 7C?<3 7C?<3 7C?<3 7C?<3 7C?<3 7C?<3 7C?<3 7C?<3 7C?< 7C?<0 7C?<0 7C?<0 7C?<0 7C?<0 7C?<0 7C?<0 7C?<0 7C?<0 7C?<0 7C?<0 7C?<0 7C?<0 7C?<0 7C?<0 7C?<0 7C?<0 7C?<0 7C?<0 7C?<0 7C?<0 7C?<0 7C?<0 7C?<0 7C?<0 7C?<0 7C?<0 7C?<0 7C?<0 C?<0 ?C?<0 ?C?<0 ?C?<0 ?C?<0 ?C?<0 ?C?<0 ?C?<0 ?C?<0 ?C?<0 ?C?<0 ?C?<0 ?C?<0 ?C?<0 ?C?<0 ?C?<0 ?C?<0 ?C?<0 ?C?<0 ?C?<0 ?C?<0 ?C?<0 ?C?<0 ?C?<0 ?C?<0 ?C?<0 ?C?<0 ?C?<0 ?C?<0 ?C?<0 C?< <C?<- <C?<- <C?<- <C?<- <C?<- <C?<- <C?<- <C?<- <C?<- <C?<- <C?<- <C?<- <C?<- <C?<- <C?<- <C?<- <C?<- <C?<- <C?<- <C?<- <C?<- <C?<- <C?<- <C?<- <C?<- <C?<- <C?<- <C?<- <C?<- C?<- 9C?<- 9C?<- 9C?<- 9C?<- 9C?<- 9C?<- 9C?<- 9C?<- 9C?<- 9C?<- 9C?<- 9C?<- 9C?<- 9C?<- 9C?<- 9C?<- 9C?<- 9C?<- 9C?<- 9C?<- 9C?<- 9C?<- 9C?<- 9C?<- 9C?<- 9C?<- 9C?<- 9C?<- 9C?<- C?< >FC. >FC. >FC. >FC. >FC. >FC. >FC. >FC. >FC. >FC. >FC. >FC. >FC. >FC. >FC. >FC. >FC. >FC. >FC. >FC. >FC. >FC. >FC. >FC. >FC. >FC. >FC. >FC. >FC. FC. 6FC. 6FC. 6FC. 6FC. 6FC. 6FC. 6FC. 6FC. 6FC. 6FC. 6FC. 6FC. 6FC. 6FC. 6FC. 6FC. 6FC. 6FC. 6FC. 6FC. 6FC. 6FC. 6FC. 6FC. 6FC. 6FC. 6FC. 6FC. 6FC. FC 7FC+ 7FC+ 7FC+ 7FC+ 7FC+ 7FC+ 7FC+ 7FC+ 7FC+ 7FC+ 7FC+ 7FC+ 7FC+ 7FC+ 7FC+ 7FC+ 7FC+ 7FC+ 7FC+ 7FC+ 7FC+ 7FC+ 7FC+ 7FC+ 7FC+ 7FC+ 7FC+ 7FC+ 7FC+ FC+ :FC+ :FC+ :FC+ :FC+ :FC+ :FC+ :FC+ :FC+ :FC+ :FC+ :FC+ :FC+ :FC+ :FC+ :FC+ :FC+ :FC+ :FC+ :FC+ :FC+ :FC+ :FC+ :FC+ :FC+ :FC+ :FC+ :FC+ :FC+ :FC+ FC ?CE0 ?CE0 ?CE0 ?CE0 ?CE0 ?CE0 ?CE0 ?CE0 ?CE0 ?CE0 ?CE0 ?CE0 ?CE0 ?CE0 ?CE0 ?CE0 ?CE0 ?CE0 ?CE0 ?CE0 ?CE0 ?CE0 ?CE0 ?CE0 ?CE0 ?CE0 ?CE0 ?CE0 ?CE0 CE0 6CE0 6CE0 6CE0 6CE0 6CE0 6CE0 6CE0 6CE0 6CE0 6CE0 6CE0 6CE0 6CE0 6CE0 6CE0 6CE0 6CE0 6CE0 6CE0 6CE0 6CE0 6CE0 6CE0 6CE0 6CE0 6CE0 6CE0 6CE0 6CE0 CE 7<E- 7<E- 7<E- 7<E- 7<E- 7<E- 7<E- 7<E- 7<E- 7<E- 7<E- 7<E- 7<E- 7<E- 7<E- 7<E- 7<E- 7<E- 7<E- 7<E- 7<E- 7<E- 7<E- 7<E- 7<E- 7<E- 7<E- 7<E- 7<E- <E- <<E- <<E- <<E- <<E- <<E- <<E- <<E- <<E- <<E- <<E- <<E- <<E- <<E- <<E- <<E- <<E- <<E- <<E- <<E- <<E- <<E- <<E- <<E- <<E- <<E- <<E- <<E- <<E- <<E- <E >C>. >C>. >C>. >C>. >C>. >C>. >C>. >C>. >C>. >C>. >C>. >C>. >C>. >C>. >C>. >C>. >C>. >C>. >C>. >C>. >C>. >C>. >C>. >C>. >C>. >C>. >C>. >C>. >C>. >C>. >C>. >C>. >C>. >C>. >C>. >C>. >C>. >C>. >C>. >C>. >C>. >C>. >C>. >C>. >C>. >C>. >C>. >C>. >C>. >C>. >C>. >C>. >C>. >C>. >C>. >C>. >C>. >C>. >C>. C> 7C>+ 7C>+ 7C>+ 7C>+ 7C>+ 7C>+ 7C>+ 7C>+ 7C>+ 7C>+ 7C>+ 7C>+ 7C>+ 7C>+ 7C>+ 7C>+ 7C>+ 7C>+ 7C>+ 7C>+ 7C>+ 7C>+ 7C>+ 7C>+ 7C>+ 7C>+ 7C>+ 7C>+ 7C>+ 7C>+ 7C>+ 7C>+ 7C>+ 7C>+ 7C>+ 7C>+ 7C>+ 7C>+ 7C>+ 7C>+ 7C>+ 7C>+ 7C>+ 7C>+ 7C>+ 7C>+ 7C>+ 7C>+ 7C>+ 7C>+ 7C>+ 7C>+ 7C>+ 7C>+ 7C>+ 7C>+ 7C>+ 7C>+ 7C>+ C> 2B>2 2B>2 2B>2 2B>2 2B>2 2B>2 2B>2 2B>2 2B>2 2B>2 2B>2 2B>2 2B>2 2B>2 2B>2 2B>2 2B>2 2B>2 2B>2 2B>2 2B>2 2B>2 2B>2 2B>2 2B>2 2B>2 2B>2 2B>2 2B>2 2B>2 2B>2 2B>2 2B>2 2B>2 2B>2 2B>2 2B>2 2B>2 2B>2 2B>2 2B>2 2B>2 2B>2 2B>2 2B>2 2B>2 2B>2 2B>2 2B>2 2B>2 2B>2 2B>2 2B>2 2B>2 2B>2 2B>2 2B>2 2B>2 2B>2 B> 6JB>& 6JB>& 6JB>& 6JB>& 6JB>& 6JB>& 6JB>& 6JB>& 6JB>& 6JB>& 6JB>& 6JB>& 6JB>& 6JB>& 6JB>& 6JB>& 6JB>& 6JB>& 6JB>& 6JB>& 6JB>& 6JB>& 6JB>& 6JB>& 6JB>& 6JB>& 6JB>& 6JB>& 6JB>& 6JB>& 6JB>& 6JB>& 6JB>& 6JB>& 6JB>& 6JB>& 6JB>& 6JB>& 6JB>& 6JB>& 6JB>& 6JB>& 6JB>& 6JB>& 6JB>& 6JB>& 6JB>& 6JB>& 6JB>& 6JB>& 6JB>& 6JB>& 6JB>& 6JB>& 6JB>& 6JB>& 6JB>& 6JB>& 6JB>& JB> 7J+ 7J+ 7J+ 7J+ 7J+ 7J+ 7J+ 7J+ 7J+ 7J+ 7J+ 7J+ 7J+ 7J+ 7J+ 7J+ 7J+ 7J+ 7J+ 7J+ 7K+ 7K+ 7K+ 7K+ 7K+ 7K+ 7K+ 7K+ 7K+ 7K+ 7K+ 7K+ 7K+ 7K+ 7K+ 7K+ 7K+ 7K+ 7K+ 7K+ 7J+ 7J+ 7J+ 7J+ 7J+ 7J+ 7J+ 7J+ 7J+ 7J+ 7J+ 7J+ 7J+ 7J+ 7J+ 7J+ 7J+ 7J+ 7J+ J 7K7 7K7 7K7 7K7 7K7 7K7 7K7 7K7 7K7 7K7 7K7 7K7 7K7 7K7 7K7 7J7 7J7 7J7 7J7 7J7 7J7 7J7 7J7 7J7 7J7 7J7 7J7 7J7 7J7 J 6K6 6K6 6K6 6K6 6K6 6K6 6K6 6K6 6K6 6K6 6K6 6K6 6K6 6K6 6K6 6J6 6J6 6J6 6J6 6J6 6J6 6J6 6J6 6J6 6J6 6J6 6J6 6J6 6J6 J 7K7 7K7 7K7 7K7 7K7 7K7 7K7 7K7 7K7 7K7 7K7 7K7 7K7 7K7 7K7 7J7 7J7 7J7 7J7 7J7 7J7 7J7 7J7 7J7 7J7 7J7 7J7 7J7 7J7 7J7 7K7 7K7 7K7 7K7 7K7 7K7 7K7 7K7 7K7 7K7 7K7 7K7 7K7 7K7 7K7 7J7 7J7 7J7 7J7 7J7 7J7 7J7 7J7 7J7 7J7 7J7 7J7 7J7 7J7 J 2K2 2K2 2K2 2K2 2K2 2K2 2K2 2K2 2K2 2K2 2K2 2K2 2K2 2K2 2K2 2J2 2J2 2J2 2J2 2J2 2J2 2J2 2J2 2J2 2J2 2J2 2J2 2J2 2J2 J 0K0 0K0 0K0 0K0 0K0 0K0 0K0 0K0 0K0 0K0 0K0 0K0 0K0 0K0 0K0 0J0 0J0 0J0 0J0 0J0 0J0 0J0 0J0 0J0 0J0 0J0 0J0 0J0 0J0 J 2K2 2K2 2K2 2K2 2K2 2K2 2K2 2K2 2K2 2K2 2K2 2K2 2K2 2K2 22 2J2 2J2 2J2 2J2 2J2 2J2 2J2 2J2 2J2 2J2 2J2 2J2 2J2 2J2 22 2K2 2K2 2K2 2K2 2K2 2K2 2K2 2K2 2K2 2K2 2K2 2K2 2K2 2K2 22 2J2 2J2 2J2 2J2 2J2 2J2 2J2 2J2 2J2 2J2 2J2 2J2 2J2 2J2  .K. .K. .K. .K. .K. .K. .K. .K. .K. .K. .K. .K. .K. .K. .. .J. .J. .J. .J. .J. .J. .J. .J. .J. .J. .J. .J. .J. .J.  -K- -K- -K- -K- -K- -K- -K- -K- -K- -K- -K- -K- -K- -K- -- -J- -J- -J- -J- -J- -J- -J- -J- -J- -J- -J- -J- -J- -J-  .K. .K. .K. .K. .K. .K. .K. .K. .K. .K. .K. .K. .K. .K. .. .J. .J. .J. .J. .J. .J. .J. .J. .J. .J. .J. .J. .J. .J. .. .K. .K. .K. .K. .K. .K. .K. .K. .K. .K. .K. .K. .K. .K. .. .J. .J. .J. .J. .J. .J. .J. .J. .J. .J. .J. .J. .J. .J.  +K+ +K+ +K+ +K+ +K+ +K+ +K+ +K+ +K+ +K+ +K+ +K+ +K+ +K+ ++ +J+ +J+ +J+ +J+ +J+ +J+ +J+ +J+ +J+ +J+ +J+ +J+ +J+ +J+  *K* *K* *K* *K* *K* *K* *K* *K* *K* *K* *K* *K* *K* *K* ** *J* *J* *J* *J* *J* *J* *J* *J* *J* *J* *J* *J* *J* *J*  +K+ +K+ +K+ +K+ +K+ +K+ +K+ +K+ +K+ +K+ +K+ +K+ +K+ +K+ ++ +J+ +J+ +J+ +J+ +J+ +J+ +J+ +J+ +J+ +J+ +J+ +J+ +J+ +J+ ++ +H+ +H+ +H+ +H+ +H+ +H+ +H+ +H+ +H+ +H+ +H+ +H+ +H+ +H+ +H+ +H+ +H+ +H+ +H+ +H+ +H+ +H+ +H+ +H+ +H+ +H+ +H+ +H+ +H+  .J. .J. .J. .J. .J. .J. .J. .J. .J. .J. .J. .J. .J. .J. .J. .J. .J. .J. .J. .J. .J. .J. .J. .J. .J. .J. .J. .J. .J. .. .E. .E. .E. .E. .E. .E. .E. .E. .E. .E. .E. .E. .E. .E. .E. .E. .E. .E. .E. .E. .E. .E. .E. .E. .E. .E. .E. .E. .E.  2F2 2F2 2F2 2F2 2F2 2F2 2F2 2F2 2F2 2F2 2F2 2F2 2F2 2F2 2F2 2F2 2F2 2F2 2F2 2F2 2F2 2F2 2F2 2F2 2F2 2F2 2F2 2F2 2F2 22 2E2 2E2 2E2 2E2 2E2 2E2 2E2 2E2 2E2 2E2 2E2 2E2 2E2 2E2 2E2 2E2 2E2 2E2 2E2 2E2 2E2 2E2 2E2 2E2 2E2 2E2 2E2 2E2 2E2  7F7 7F7 7F7 7F7 7F7 7F7 7F7 7F7 7F7 7F7 7F7 7F7 7F7 7F7 7F7 7F7 7F7 7F7 7F7 7F7 7F7 7F7 7F7 7F7 7F7 7F7 7F7 7F7 7F7 77 7O7 7O7 7O7 7O7 7O7 7O7 7O7 7O7 7O7 7O7 7O7 7O7 7O7 7O7 7O7 7O7 7O7 7O7 7O7 7O7 7O7 7O7 7O7 7O7 7O7 7O7 7O7 7O7 7O7  9N9 9N9 9N9 9N9 9N9 9N9 9N9 9N9 9N9 9N9 9N9 9N9 9N9 9N9 9N9 9N9 9N9 9N9 9N9 9N9 9N9 9N9 9N9 9N9 9N9 9N9 9N9 9N9 9N9  7O7 7O7 7O7 7O7 7O7 7O7 7O7 7O7 7O7 7O7 7O7 7O7 7O7 7O7 7O7 7O7 7O7 7O7 7O7 7O7 7O7 7O7 7O7 7O7 7O7 7O7 7O7 7O7 7O7  6O6 6O6 6O6 6O6 6O6 6O6 6O6 6O6 6O6 66 6Q6 6Q6 6Q6 6Q6 6Q6 6Q6 6Q6 6Q6 6Q6 66 6O6 6O6 6O6 6O6 6O6 6O6 6O6 6O6 6O6  4N4 4N4 4N4 4N4 4N4 4N4 4N4 4N4 4N4 4N4 4N4 4N4 4N4 4N4 44 4O4 4O4 4O4 4O4 4O4 4O4 4O4 4O4 4O4 4O4 4O4 4O4 4O4 4O4  2Q2 2Q2 2Q2 2Q2 2Q2 2Q2 2Q2 2Q2 2Q2 2Q2 2Q2 2Q2 2Q2 2Q2 2Q2 2Q2 2Q2 2Q2 2Q2 2Q2 2Q2 2Q2 2Q2 2Q2 2Q2 2Q2 2Q2 2Q2 2Q2 22 2O2 2O2 2O2 2O2 2O2 2O2 2O2 2O2 2O2 2O2 2O2 2O2 2O2 2O2 2O2 2O2 2O2 2O2 2O2 2O2 2O2 2O2 2O2 2O2 2O2 2O2 2O2 2O2 2O2  >N9 >N9 >N9 >N9 >N9 >N9 >N9 >N9 >N9 >N9 >N9 >N9 >N9 >N9 >N9 >N9 >N9 >N9 >N9 >N9 >N9 >N9 >N9 >N9 >N9 >N9 >N9 >N9 >N9 >9 >L9 >L9 >L9 >L9 >L9 >L9 >L9 >L9 >L9 >L9 >L9 >L9 >L9 >L9 >L9 >L9 >L9 >L9 >L9 >L9 >L9 >L9 >L9 >L9 >L9 >L9 >L9 >L9 >L9  >J: >J: >J: >J: >J: >J: >J: >J: >J: >J: >J: >J: >J: >J: >J: >J: >J: >J: >J: >J: >J: >J: >J: >J: >J: >J: >J: >J: >J: >J: >J: >J: >J: >J: >J: >J: >J: >J: >J: >J: >J: >J: >J: >J: >J: >J: >J: >J: >J: >J: >J: >J: >J: >J: >J: >J: >J: >J: >J: > >O7 >O7 >O7 >O7 >O7 >O7 >O7 >O7 >O7 >O7 >O7 >O7 >O7 >O7 >O7 >O7 >O7 >O7 >O7 >O7 >O7 >O7 >O7 >O7 >O7 >O7 >O7 >O7 >O7 >7 >N7 >N7 >N7 >N7 >N7 >N7 >N7 >N7 >N7 >N7 >N7 >N7 >N7 >N7 >N7 >N7 >N7 >N7 >N7 >N7 >N7 >N7 >N7 >N7 >N7 >N7 >N7 >N7 >N7 > >O+ >O+ >O+ >O+ >O+ >O+ >O+ >O+ >O+ >O+ >O+ >O+ >O+ >O+ >O+ >O+ >O+ >O+ >O+ >O+ >O+ >O+ >O+ >O+ >O+ >O+ >O+ >O+ >O+ >O+ >O+ >O+ >O+ >O+ >O+ >O+ >O+ >O+ >O+ >O+ >O+ >O+ >O+ >O+ >O+ >O+ >O+ >O+ >O+ >O+ >O+ >O+ >O+ >O+ >O+ >O+ >O+ >O+ >O+ > >J7 >J7 >J7 >J7 >J7 >J7 >J7 >J7 >J7 >J7 >J7 >J7 >J7 >J7 >J7 >J7 >J7 >J7 >J7 >J7 >J7 >J7 >J7 >J7 >J7 >J7 >J7 >J7 >J7 > >H9 >H9 >H9 >H9 >H9 >H9 >H9 >H9 >H9 >H9 >H9 >H9 >H9 >H9 >H9 >H9 >H9 >H9 >H9 >H9 >H9 >H9 >H9 >H9 >H9 >H9 >H9 >H9 >H9 > >J: >J: >J: >J: >J: >J: >J: >J: >J: >J: >J: >J: >J: >J: >J: >J: >J: >J: >J: >J: >J: >J: >J: >J: >J: >J: >J: >J: >J: >J: >J: >J: >J: >J: >J: >J: >J: >J: >J: >J: >J: >J: >J: >J: >J: >J: >J: >J: >J: >J: >J: >J: >J: >J: >J: >J: >J: >J: >J: > >F7 >F7 >F7 >F7 >F7 >F7 >F7 >F7 >F7 >F7 >F7 >F7 >F7 >F7 >F7 >F7 >F7 >F7 >F7 >F7 >F7 >F7 >F7 >F7 >F7 >F7 >F7 >F7 >F7 >7 >E7 >E7 >E7 >E7 >E7 >E7 >E7 >E7 >E7 >E7 >E7 >E7 >E7 >E7 >E7 >E7 >E7 >E7 >E7 >E7 >E7 >E7 >E7 >E7 >E7 >E7 >E7 >E7 >E7 > >F+ >F+ >F+ >F+ >F+ >F+ >F+ >F+ >F+ >F+ >F+ >F+ >F+ >F+ >F+ >F+ >F+ >F+ >F+ >F+ >F+ >F+ >F+ >F+ >F+ >F+ >F+ >F+ >F+ >F+ >F+ >F+ >F+ >F+ >F+ >F+ >F+ >F+ >F+ >F+ >F+ >F+ >F+ >F+ >F+ >F+ >F+ >F+ >F+ >F+ >F+ >F+ >F+ >F+ >F+ >F+ >F+ >F+ >F+ > >C- >C- >C- >C- >C- >C- >C- >C- >C- >C- >C- >C- >C- >C- >C- >C- >C- >C- >C- >C- >C- >C- >C- >C- >C- >C- >C- >C- >C- >- >B- >B- >B- >B- >B- >B- >B- >B- >B- >B- >B- >B- >B- >B- >B- >B- >B- >B- >B- >B- >B- >B- >B- >B- >B- >B- >B- >B- >B- > >C. >C. >C. >C. >C. >C. >C. >C. >C. >C. >C. >C. >C. >C. >C. >C. >C. >C. >C. >C. >C. >C. >C. >C. >C. >C. >C. >C. >C. >C. <C. <C. <C. <C. <C. <C. <C. <C. <C. <C. <C. <C. <C. <C. <C. <C. <C. <C. <C. <C. <C. <C. <C. <C. <C. <C. <C. <C. <C.  >F+ >F+ >F+ >F+ >F+ >F+ >F+ >F+ >F+ >F+ >F+ >F+ >F+ >F+ >F+ >F+ >F+ >F+ >F+ >F+ >F+ >F+ >F+ >F+ >F+ >F+ >F+ >F+ >F+ F+ 9F+ 9F+ 9F+ 9F+ 9F+ 9F+ 9F+ 9F+ 9F+ 9F+ 9F+ 9F+ 9F+ 9F+ 9F+ 9F+ 9F+ 9F+ 9F+ 9F+ 9F+ 9F+ 9F+ 9F+ 9F+ 9F+ 9F+ 9F+ 9F+  :J) :J) :J) :J) :J) :J) :J) :J) :J) :J) :J) :J) :J) :J) :J) :J) :J) :J) :J) :J) :J) :J) :J) :J) :J) :J) :J) :J) :J) J) 9J) 9J) 9J) 9J) 9J) 9J) 9J) 9J) 9J) 9J) 9J) 9J) 9J) 9J) 9J) 9J) 9J) 9J) 9J) 9J) 9J) 9J) 9J) 9J) 9J) 9J) 9J) 9J) 9J)  :O' :O' :O' :O' :O' :O' :O' :O' :O' :O' :O' :O' :O' :O' :O' :O' :O' :O' :O' :O' :O' :O' :O' :O' :O' :O' :O' :O' :O' O' CO' CO' CO' CO' CO' CO' CO' CO' CO' CO' CO' CO' CO' CO' CO' CO' CO' CO' CO' CO' CO' CO' CO' CO' CO' CO' CO' CO' CO'  BQ& BQ& BQ& BQ& BQ& BQ& BQ& BQ& BQ& BQ& BQ& BQ& BQ& BQ& BQ& BQ& BQ& BQ& BQ& BQ& BQ& BQ& BQ& BQ& BQ& BQ& BQ& BQ& BQ& & CO& CO& CO& CO& CO& CO& CO& CO& CO& CO& CO& CO& CO& CO& CO& CO& CO& CO& CO& CO& CO& CO& CO& CO& CO& CO& CO& CO& CO&  CN( CN( CN( CN( CN( CN( CN( CN( CN( N( EN( EN( EN( EN( EN( EN( EN( EN( EN( N( CN( CN( CN( CN( CN( CN( CN( CN( CN( ( BL( BL( BL( BL( BL( BL( BL( BL( BL( BL( BL( BL( BL( BL( L( CL( CL( CL( CL( CL( CL( CL( CL( CL( CL( CL( CL( CL( CL(  EJ* EJ* EJ* EJ* EJ* EJ* EJ* EJ* EJ* EJ* EJ* EJ* EJ* EJ* EJ* EJ* EJ* EJ* EJ* EJ* EJ* EJ* EJ* EJ* EJ* EJ* EJ* EJ* EJ* J* CJ* CJ* CJ* CJ* CJ* CJ* CJ* CJ* CJ* CJ* CJ* CJ* CJ* CJ* CJ* CJ* CJ* CJ* CJ* CJ* CJ* CJ* CJ* CJ* CJ* CJ* CJ* CJ* CJ*  BQ& BQ& BQ& BQ& BQ& BQ& BQ& BQ& BQ& BQ& BQ& BQ& BQ& BQ& BQ& BQ& BQ& BQ& BQ& BQ& BQ& BQ& BQ& BQ& BQ& BQ& BQ& BQ& BQ& Q& @Q& @Q& @Q& @Q& @Q& @Q& @Q& @Q& @Q& @Q& @Q& @Q& @Q& @Q& @Q& @Q& @Q& @Q& @Q& @Q& @Q& @Q& @Q& @Q& @Q& @Q& @Q& @Q& @Q&  >R+ >R+ >R+ >R+ >R+ >R+ >R+ >R+ >R+ >R+ >R+ >R+ >R+ >R+ >R+ >R+ >R+ >R+ >R+ >R+ >R+ >R+ >R+ >R+ >R+ >R+ >R+ >R+ >R+ >+ >T+ >T+ >T+ >T+ >T+ >T+ >T+ >T+ >T+ >T+ >T+ >T+ >T+ >T+ >T+ >T+ >T+ >T+ >T+ >T+ >T+ >T+ >T+ >T+ >T+ >T+ >T+ >T+ >T+  CR. CR. CR. CR. CR. CR. CR. CR. CR. CR. CR. CR. CR. CR. CR. CR. CR. CR. CR. CR. CR. CR. CR. CR. CR. CR. CR. CR. CR. . EQ. EQ. EQ. EQ. EQ. EQ. EQ. EQ. EQ. EQ. EQ. EQ. EQ. EQ. EQ. EQ. EQ. EQ. EQ. EQ. EQ. EQ. EQ. EQ. EQ. EQ. EQ. EQ. EQ.  FO2 FO2 FO2 FO2 FO2 FO2 FO2 FO2 FO2 FO2 FO2 FO2 FO2 FO2 FO2 FO2 FO2 FO2 FO2 FO2 FO2 FO2 FO2 FO2 FO2 FO2 FO2 FO2 FO2 F2 FM2 FM2 FM2 FM2 FM2 FM2 FM2 FM2 FM2 FM2 FM2 FM2 FM2 FM2 FM2 FM2 FM2 FM2 FM2 FM2 FM2 FM2 FM2 FM2 FM2 FM2 FM2 FM2 FM2 F FK7 FK7 FK7 FK7 FK7 FK7 FK7 FK7 FK7 FK7 FK7 FK7 FK7 FK7 FK7 FK7 FK7 FK7 FK7 FK7 FK7 FK7 FK7 FK7 FK7 FK7 FK7 FK7 FK7 F7 FJ7 FJ7 FJ7 FJ7 FJ7 FJ7 FJ7 FJ7 FJ7 FJ7 FJ7 FJ7 FJ7 FJ7 FJ7 FJ7 FJ7 FJ7 FJ7 FJ7 FJ7 FJ7 FJ7 FJ7 FJ7 FJ7 FJ7 FJ7 FJ7 F FH3 FH3 FH3 FH3 FH3 FH3 FH3 FH3 FH3 FH3 FH3 FH3 FH3 FH3 FH3 FH3 FH3 FH3 FH3 FH3 FH3 FH3 FH3 FH3 FH3 FH3 FH3 FH3 FH3 H EH5 EH5 EH5 EH5 EH5 EH5 EH5 EH5 EH5 EH5 EH5 EH5 EH5 EH5 EH5 EH5 EH5 EH5 EH5 EH5 EH5 EH5 EH5 EH5 EH5 EH5 EH5 EH5 EH5  CK3 CK3 CK3 CK3 CK3 CK3 CK3 CK3 CK3 CK3 CK3 CK3 CK3 CK3 CK3 CK3 CK3 CK3 CK3 CK3 CK3 CK3 CK3 CK3 CK3 CK3 CK3 CK3 CK3 K EK2 EK2 EK2 EK2 EK2 EK2 EK2 EK2 EK2 EK2 EK2 EK2 EK2 EK2 EK2 EK2 EK2 EK2 EK2 EK2 EK2 EK2 EK2 EK2 EK2 EK2 EK2 EK2 EK2  FO0 FO0 FO0 FO0 FO0 FO0 FO0 FO0 FO0 FO0 FO0 FO0 FO0 FO0 FO0 FO0 FO0 FO0 FO0 FO0 FO0 FO0 FO0 FO0 FO0 FO0 FO0 FO0 FO0 FO FO. FO. FO. FO. FO. FO. FO. FO. FO. FO. FO. FO. FO. FO. FO. FO. FO. FO. FO. FO. FO. FO. FO. FO. FO. FO. FO. FO. FO.  <R- <R- <R- <R- <R- <R- <R- <R- <R- <R- <R- <R- <R- <R- <R- <R- <R- <R- <R- <R- <R- <R- <R- <R- <R- <R- <R- <R- <R- <R <R+ <R+ <R+ <R+ <R+ <R+ <R+ <R+ <R+ <R+ <R+ <R+ <R+ <R+ <R+ <R+ <R+ <R+ <R+ <R+ <R+ <R+ <R+ <R+ <R+ <R+ <R+ <R+ <R+ < <Q) <Q) <Q) <Q) <Q) <Q) <Q) <Q) <Q) <Q) <Q) <Q) <Q) <Q) <Q) <Q) <Q) <Q) <Q) <Q) <Q) <Q) <Q) <Q) <Q) <Q) <Q) <Q) <Q) <) <R) <R) <R) <R) <R) <R) <R) <R) <R) <R) <R) <R) <R) <R) <R) <R) <R) <R) <R) <R) <R) <R) <R) <R) <R) <R) <R) <R) <R)  AQ- AQ- AQ- AQ- AQ- AQ- AQ- AQ- AQ- AQ- AQ- AQ- AQ- AQ- AQ- AQ- AQ- AQ- AQ- AQ- AQ- AQ- AQ- AQ- AQ- AQ- AQ- AQ- AQ- - CO- CO- CO- CO- CO- CO- CO- CO- CO- CO- CO- CO- CO- CO- CO- CO- CO- CO- CO- CO- CO- CO- CO- CO- CO- CO- CO- CO- CO-  EM0 EM0 EM0 EM0 EM0 EM0 EM0 EM0 EM0 EM0 EM0 EM0 EM0 EM0 EM0 EM0 EM0 EM0 EM0 EM0 EM0 EM0 EM0 EM0 EM0 EM0 EM0 EM0 EM0 E0 EK0 EK0 EK0 EK0 EK0 EK0 EK0 EK0 EK0 EK0 EK0 EK0 EK0 EK0 EK0 EK0 EK0 EK0 EK0 EK0 EK0 EK0 EK0 EK0 EK0 EK0 EK0 EK0 EK0 E EJ5 EJ5 EJ5 EJ5 EJ5 EJ5 EJ5 EJ5 EJ5 EJ5 EJ5 EJ5 EJ5 EJ5 EJ5 EJ5 EJ5 EJ5 EJ5 EJ5 EJ5 EJ5 EJ5 EJ5 EJ5 EJ5 EJ5 EJ5 EJ5 E5 EH5 EH5 EH5 EH5 EH5 EH5 EH5 EH5 EH5 EH5 EH5 EH5 EH5 EH5 EH5 EH5 EH5 EH5 EH5 EH5 EH5 EH5 EH5 EH5 EH5 EH5 EH5 EH5 EH5 E EF2 EF2 EF2 EF2 EF2 EF2 EF2 EF2 EF2 EF2 EF2 EF2 EF2 EF2 EF2 EF2 EF2 EF2 EF2 EF2 EF2 EF2 EF2 EF2 EF2 EF2 EF2 EF2 EF2 F CF3 CF3 CF3 CF3 CF3 CF3 CF3 CF3 CF3 CF3 CF3 CF3 CF3 CF3 CF3 CF3 CF3 CF3 CF3 CF3 CF3 CF3 CF3 CF3 CF3 CF3 CF3 CF3 CF3  AJ2 AJ2 AJ2 AJ2 AJ2 AJ2 AJ2 AJ2 AJ2 AJ2 AJ2 AJ2 AJ2 AJ2 AJ2 AJ2 AJ2 AJ2 AJ2 AJ2 AJ2 AJ2 AJ2 AJ2 AJ2 AJ2 AJ2 AJ2 AJ2 J CJ0 CJ0 CJ0 CJ0 CJ0 CJ0 CJ0 CJ0 CJ0 CJ0 CJ0 CJ0 CJ0 CJ0 CJ0 CJ0 CJ0 CJ0 CJ0 CJ0 CJ0 CJ0 CJ0 CJ0 CJ0 CJ0 CJ0 CJ0 CJ0  EM. EM. EM. EM. EM. EM. EM. EM. EM. EM. EM. EM. EM. EM. EM. EM. EM. EM. EM. EM. EM. EM. EM. EM. EM. EM. EM. EM. EM. EM EM- EM- EM- EM- EM- EM- EM- EM- EM- EM- EM- EM- EM- EM- EM- EM- EM- EM- EM- EM- EM- EM- EM- EM- EM- EM- EM- EM- EM-  :Q+ :Q+ :Q+ :Q+ :Q+ :Q+ :Q+ :Q+ :Q+ :Q+ :Q+ :Q+ :Q+ :Q+ :Q+ :Q+ :Q+ :Q+ :Q+ :Q+ :Q+ :Q+ :Q+ :Q+ :Q+ :Q+ :Q+ :Q+ :Q+ :Q :Q) :Q) :Q) :Q) :Q) :Q) :Q) :Q) :Q) :Q) :Q) :Q) :Q) :Q) :Q) :Q) :Q) :Q) :Q) :Q) :Q) :Q) :Q) :Q) :Q) :Q) :Q) :Q) :Q) : :O' :O' :O' :O' :O' :O' :O' :O' :O' :O' :O' :O' :O' :O' :O' :O' :O' :O' :O' :O' :O' :O' :O' :O' :O' :O' :O' :O' :O' :' :Q' :Q' :Q' :Q' :Q' :Q' :Q' :Q' :Q' :Q' :Q' :Q' :Q' :Q' :Q' :Q' :Q' :Q' :Q' :Q' :Q' :Q' :Q' :Q' :Q' :Q' :Q' :Q' :Q'  ?O+ ?O+ ?O+ ?O+ ?O+ ?O+ ?O+ ?O+ ?O+ ?O+ ?O+ ?O+ ?O+ ?O+ ?O+ ?O+ ?O+ ?O+ ?O+ ?O+ ?O+ ?O+ ?O+ ?O+ ?O+ ?O+ ?O+ ?O+ ?O+ + AM+ AM+ AM+ AM+ AM+ AM+ AM+ AM+ AM+ AM+ AM+ AM+ AM+ AM+ AM+ AM+ AM+ AM+ AM+ AM+ AM+ AM+ AM+ AM+ AM+ AM+ AM+ AM+ AM+  CK. CK. CK. CK. CK. CK. CK. CK. CK. CK. CK. CK. CK. CK. CK. CK. CK. CK. CK. CK. CK. CK. CK. CK. CK. CK. CK. CK. CK. C. CJ. CJ. CJ. CJ. CJ. CJ. CJ. CJ. CJ. CJ. CJ. CJ. CJ. CJ. CJ. CJ. CJ. CJ. CJ. CJ. CJ. CJ. CJ. CJ. CJ. CJ. CJ. CJ. CJ. C CH3 CH3 CH3 CH3 CH3 CH3 CH3 CH3 CH3 CH3 CH3 CH3 CH3 CH3 CH3 CH3 CH3 CH3 CH3 CH3 CH3 CH3 CH3 CH3 CH3 CH3 CH3 CH3 CH3 C3 CF3 CF3 CF3 CF3 CF3 CF3 CF3 CF3 CF3 CF3 CF3 CF3 CF3 CF3 CF3 CF3 CF3 CF3 CF3 CF3 CF3 CF3 CF3 CF3 CF3 CF3 CF3 CF3 CF3 C CE0 CE0 CE0 CE0 CE0 CE0 CE0 CE0 CE0 CE0 CE0 CE0 CE0 CE0 CE0 CE0 CE0 CE0 CE0 CE0 CE0 CE0 CE0 CE0 CE0 CE0 CE0 CE0 CE0 C0 CF0 CF0 CF0 CF0 CF0 CF0 CF0 CF0 CF0 CF0 CF0 CF0 CF0 CF0 CF0 CF0 CF0 CF0 CF0 CF0 CF0 CF0 CF0 CF0 CF0 CF0 CF0 CF0 CF0  EH0 EH0 EH0 EH0 EH0 EH0 EH0 EH0 EH0 EH0 EH0 EH0 EH0 EH0 EH0 EH0 EH0 EH0 EH0 EH0 EH0 EH0 EH0 EH0 EH0 EH0 EH0 EH0 EH0 0 FJ0 FJ0 FJ0 FJ0 FJ0 FJ0 FJ0 FJ0 FJ0 FJ0 FJ0 FJ0 FJ0 FJ0 FJ0 FJ0 FJ0 FJ0 FJ0 FJ0 FJ0 FJ0 FJ0 FJ0 FJ0 FJ0 FJ0 FJ0 FJ0  HK0 HK0 HK0 HK0 HK0 HK0 HK0 HK0 HK0 HK0 HK0 HK0 HK0 HK0 HK0 HK0 HK0 HK0 HK0 HK0 HK0 HK0 HK0 HK0 HK0 HK0 HK0 HK0 HK0 H0 HH0 HH0 HH0 HH0 HH0 HH0 HH0 HH0 HH0 HH0 HH0 HH0 HH0 HH0 HH0 HH0 HH0 HH0 HH0 HH0 HH0 HH0 HH0 HH0 HH0 HH0 HH0 HH0 HH0 H HE0 HE0 HE0 HE0 HE0 HE0 HE0 HE0 HE0 HE0 HE0 HE0 HE0 HE0 HE0 HE0 HE0 HE0 HE0 HE0 HE0 HE0 HE0 HE0 HE0 HE0 HE0 HE0 HE0 H0 HH0 HH0 HH0 HH0 HH0 HH0 HH0 HH0 HH0 HH0 HH0 HH0 HH0 HH0 HH0 HH0 HH0 HH0 HH0 HH0 HH0 HH0 HH0 HH0 HH0 HH0 HH0 HH0 HH0 H HB0 HB0 HB0 HB0 HB0 HB0 HB0 HB0 HB0 HB0 HB0 HB0 HB0 HB0 HB0 HB0 HB0 HB0 HB0 HB0 HB0 HB0 HB0 HB0 HB0 HB0 HB0 HB0 HB0 H0 HC0 HC0 HC0 HC0 HC0 HC0 HC0 HC0 HC0 HC0 HC0 HC0 HC0 HC0 HC0 HC0 HC0 HC0 HC0 HC0 HC0 HC0 HC0 HC0 HC0 HC0 HC0 HC0 HC0  BE0 BE0 BE0 BE0 BE0 BE0 BE0 BE0 BE0 BE0 BE0 BE0 BE0 BE0 BE0 BE0 BE0 BE0 BE0 BE0 BE0 BE0 BE0 BE0 BE0 BE0 BE0 BE0 BE0 0 CF0 CF0 CF0 CF0 CF0 CF0 CF0 CF0 CF0 CF0 CF0 CF0 CF0 CF0 CF0 CF0 CF0 CF0 CF0 CF0 CF0 CF0 CF0 CF0 CF0 CF0 CF0 CF0 CF0  EH0 EH0 EH0 EH0 EH0 EH0 EH0 EH0 EH0 EH0 EH0 EH0 EH0 EH0 EH0 EH0 EH0 EH0 EH0 EH0 EH0 EH0 EH0 EH0 EH0 EH0 EH0 EH0 EH0 E0 EE0 EE0 EE0 EE0 EE0 EE0 EE0 EE0 EE0 EE0 EE0 EE0 EE0 EE0 EE0 EE0 EE0 EE0 EE0 EE0 EE0 EE0 EE0 EE0 EE0 EE0 EE0 EE0 EE0 E EB0 EB0 EB0 EB0 EB0 EB0 EB0 EB0 EB0 EB0 EB0 EB0 EB0 EB0 EB0 EB0 EB0 EB0 EB0 EB0 EB0 EB0 EB0 EB0 EB0 EB0 EB0 EB0 EB0 E0 EE0 EE0 EE0 EE0 EE0 EE0 EE0 EE0 EE0 EE0 EE0 EE0 EE0 EE0 EE0 EE0 EE0 EE0 EE0 EE0 EE0 EE0 EE0 EE0 EE0 EE0 EE0 EE0 EE0 E E>0 E>0 E>0 E>0 E>0 E>0 E>0 E>0 E>0 E>0 E>0 E>0 E>0 E>0 E>0 E>0 E>0 E>0 E>0 E>0 E>0 E>0 E>0 E>0 E>0 E>0 E>0 E>0 E>0 E0 E@0 E@0 E@0 E@0 E@0 E@0 E@0 E@0 E@0 E@0 E@0 E@0 E@0 E@0 E@0 E@0 E@0 E@0 E@0 E@0 E@0 E@0 E@0 E@0 E@0 E@0 E@0 E@0 E@0  >B0 >B0 >B0 >B0 >B0 >B0 >B0 >B0 >B0 >B0 >B0 >B0 >B0 >B0 >B0 >B0 >B0 >B0 >B0 >B0 >B0 >B0 >B0 >B0 >B0 >B0 >B0 >B0 >B0 0 @C0 @C0 @C0 @C0 @C0 @C0 @C0 @C0 @C0 @C0 @C0 @C0 @C0 @C0 @C0 @C0 @C0 @C0 @C0 @C0 @C0 @C0 @C0 @C0 @C0 @C0 @C0 @C0 @C0  BE0 BE0 BE0 BE0 BE0 BE0 BE0 BE0 BE0 BE0 BE0 BE0 BE0 BE0 BE0 BE0 BE0 BE0 BE0 BE0 BE0 BE0 BE0 BE0 BE0 BE0 BE0 BE0 BE0 0 CF0 CF0 CF0 CF0 CF0 CF0 CF0 CF0 CF0 CF0 CF0 CF0 CF0 CF0 CF0 CF0 CF0 CF0 CF0 CF0 CF0 CF0 CF0 CF0 CF0 CF0 CF0 CF0 CF0  EH0 EH0 EH0 EH0 EH0 EH0 EH0 EH0 EH0 EH0 EH0 EH0 EH0 EH0 EH0 EH0 EH0 EH0 EH0 EH0 EH0 EH0 EH0 EH0 EH0 EH0 EH0 EH0 EH0 0 BE0 BE0 BE0 BE0 BE0 BE0 BE0 BE0 BE0 BE0 BE0 BE0 BE0 BE0 BE0 BE0 BE0 BE0 BE0 BE0 BE0 BE0 BE0 BE0 BE0 BE0 BE0 BE0 BE0  CJ. CJ. CJ. CJ. CJ. CJ. CJ. CJ. CJ. CJ. CJ. CJ. CJ. CJ. CJ. CJ. CJ. CJ. CJ. CJ. CJ. CJ. CJ. CJ. CJ. CJ. CJ. CJ. CJ. C. CB. CB. CB. CB. CB. CB. CB. CB. CB. CB. CB. CB. CB. CB. CB. CB. CB. CB. CB. CB. CB. CB. CB. CB. CB. CB. CB. CB. CB.  >C2 >C2 >C2 >C2 >C2 >C2 >C2 >C2 >C2 >C2 >C2 >C2 >C2 >C2 >C2 >C2 >C2 >C2 >C2 >C2 >C2 >C2 >C2 >C2 >C2 >C2 >C2 >C2 >C2 C2 6C2 6C2 6C2 6C2 6C2 6C2 6C2 6C2 6C2 6C2 6C2 6C2 6C2 6C2 6C2 6C2 6C2 6C2 6C2 6C2 6C2 6C2 6C2 6C2 6C2 6C2 6C2 6C2 6C2 C 7C. 7C. 7C. 7C. 7C. 7C. 7C. 7C. 7C. 7C. 7C. 7C. 7C. 7C. 7C. 7C. 7C. 7C. 7C. 7C. 7C. 7C. 7C. 7C. 7C. 7C. 7C. 7C. 7C. 7. 7J. 7J. 7J. 7J. 7J. 7J. 7J. 7J. 7J. 7J. 7J. 7J. 7J. 7J. 7J. 7J. 7J. 7J. 7J. 7J. 7J. 7J. 7J. 7J. 7J. 7J. 7J. 7J. 7J. 7 7F+ 7F+ 7F+ 7F+ 7F+ 7F+ 7F+ 7F+ 7F+ 7F+ 7F+ 7F+ 7F+ 7F+ 7F+ 7F+ 7F+ 7F+ 7F+ 7F+ 7F+ 7F+ 7F+ 7F+ 7F+ 7F+ 7F+ 7F+ 7F+ 7+ 7C+ 7C+ 7C+ 7C+ 7C+ 7C+ 7C+ 7C+ 7C+ 7C+ 7C+ 7C+ 7C+ 7C+ 7C+ 7C+ 7C+ 7C+ 7C+ 7C+ 7C+ 7C+ 7C+ 7C+ 7C+ 7C+ 7C+ 7C+ 7C+ 7 7K0 7K0 7K0 7K0 7K0 7K0 7K0 7K0 7K0 7K0 7K0 7K0 7K0 7K0 7K0 7K0 7K0 7K0 7K0 7K0 7K0 7K0 7K0 7K0 7K0 7K0 7K0 7K0 7K0 70 7B0 7B0 7B0 7B0 7B0 7B0 7B0 7B0 7B0 7B0 7B0 7B0 7B0 7B0 7B0 7B0 7B0 7B0 7B0 7B0 7B0 7B0 7B0 7B0 7B0 7B0 7B0 7B0 7B0  ?C3 ?C3 ?C3 ?C3 ?C3 ?C3 ?C3 ?C3 ?C3 ?C3 ?C3 ?C3 ?C3 ?C3 ?C3 ?C3 ?C3 ?C3 ?C3 ?C3 ?C3 ?C3 ?C3 ?C3 ?C3 ?C3 ?C3 ?C3 ?C3 C3 6C3 6C3 6C3 6C3 6C3 6C3 6C3 6C3 6C3 6C3 6C3 6C3 6C3 6C3 6C3 6C3 6C3 6C3 6C3 6C3 6C3 6C3 6C3 6C3 6C3 6C3 6C3 6C3 6C3 C 7C0 7C0 7C0 7C0 7C0 7C0 7C0 7C0 7C0 7C0 7C0 7C0 7C0 7C0 7C0 7C0 7C0 7C0 7C0 7C0 7C0 7C0 7C0 7C0 7C0 7C0 7C0 7C0 7C0 70 7K0 7K0 7K0 7K0 7K0 7K0 7K0 7K0 7K0 7K0 7K0 7K0 7K0 7K0 7K0 7K0 7K0 7K0 7K0 7K0 7K0 7K0 7K0 7K0 7K0 7K0 7K0 7K0 7K0 7 7H- 7H- 7H- 7H- 7H- 7H- 7H- 7H- 7H- 7H- 7H- 7H- 7H- 7H- 7H- 7H- 7H- 7H- 7H- 7H- 7H- 7H- 7H- 7H- 7H- 7H- 7H- 7H- 7H- 7- 7E- 7E- 7E- 7E- 7E- 7E- 7E- 7E- 7E- 7E- 7E- 7E- 7E- 7E- 7E- 7E- 7E- 7E- 7E- 7E- 7E- 7E- 7E- 7E- 7E- 7E- 7E- 7E- 7E- 7 7J. 7J. 7J. 7J. 7J. 7J. 7J. 7J. 7J. 7J. 7J. 7J. 7J. 7J. 7J. 7J. 7J. 7J. 7J. 7J. 7J. 7J. 7J. 7J. 7J. 7J. 7J. 7J. 7J. 7. 7B. 7B. 7B. 7B. 7B. 7B. 7B. 7B. 7B. 7B. 7B. 7B. 7B. 7B. 7B. 7B. 7B. 7B. 7B. 7B. 7B. 7B. 7B. 7B. 7B. 7B. 7B. 7B. 7B.  >C+ >C+ >C+ >C+ >C+ >C+ >C+ >C+ >C+ >C+ >C+ >C+ >C+ >C+ >C+ >C+ >C+ >C+ >C+ >C+ >C+ >C+ >C+ >C+ >C+ >C+ >C+ >C+ >C+ + 6F+ 6F+ 6F+ 6F+ 6F+ 6F+ 6F+ 6F+ 6F+ 6F+ 6F+ 6F+ 6F+ 6F+ 6F+ 6F+ 6F+ 6F+ 6F+ 6F+ 6F+ 6F+ 6F+ 6F+ 6F+ 6F+ 6F+ 6F+ 6F+  7K0 7K0 7K0 7K0 7K0 7K0 7K0 7K0 7K0 7K0 7K0 7K0 7K0 7K0 7K0 7K0 7K0 7K0 7K0 7K0 7K0 7K0 7K0 7K0 7K0 7K0 7K0 7K0 7K0 70 7B0 7B0 7B0 7B0 7B0 7B0 7B0 7B0 7B0 7B0 7B0 7B0 7B0 7B0 7B0 7B0 7B0 7B0 7B0 7B0 7B0 7B0 7B0 7B0 7B0 7B0 7B0 7B0 7B0 7 ?C- ?C- ?C- ?C- ?C- ?C- ?C- ?C- ?C- ?C- ?C- ?C- ?C- ?C- ?C- ?C- ?C- ?C- ?C- ?C- ?C- ?C- ?C- ?C- ?C- ?C- ?C- ?C- ?C- - 6H- 6H- 6H- 6H- 6H- 6H- 6H- 6H- 6H- 6H- 6H- 6H- 6H- 6H- 6H- 6H- 6H- 6H- 6H- 6H- 6H- 6H- 6H- 6H- 6H- 6H- 6H- 6H- 6H-  7J. 7J. 7J. 7J. 7J. 7J. 7J. 7J. 7J. 7J. 7J. 7J. 7J. 7J. 7J. 7J. 7J. 7J. 7J. 7J. 7J. 7J. 7J. 7J. 7J. 7J. 7J. 7J. 7J. 7J. 7J. 7J. 7J. 7J. 7J. 7J. 7J. 7J. 7J. 7J. 7J. 7J. 7J. 7J. 7J. 7J. 7J. 7J. 7J. 7J. 7J. 7J. 7J. 7J. 7J. 7J. 7J. 7J. 7J. 7 7C0 7C0 7C0 7C0 7C0 7C0 7C0 7C0 7C0 7C0 7C0 7C0 7C0 7C0 7C0 7C0 7C0 7C0 7C0 7C0 7C0 7C0 7C0 7C0 7C0 7C0 7C0 7C0 7C0 7C0 7C0 7C0 7C0 7C0 7C0 7C0 7C0 7C0 7C0 7C0 7C0 7C0 7C0 7C0 7C0 7C0 7C0 7C0 7C0 7C0 7C0 7C0 7C0 7C0 7C0 7C0 7C0 7C0 7C0  >2 >2 >2 >2 >2 >2 >2 >2 >2 >2 >2 >2 >2 >2 >2 >2 >2 >2 >2 >2 >2 >2 >2 >2 >2 >2 >2 >2 >2 >2 >2 >2 >2 >2 >2 >2 >2 >2 >2 >2 >2 >2 >2 >2 >2 >2 >2 >2 >2 >2 >2 >2 >2 >2 >2 >2 >2 >2 >2  EC& EC& EC& EC& EC& EC& EC& EC& EC& EC& EC& EC& EC& EC& E& EB& EB& EB& EB& EB& EB& EB& EB& EB& EB& EB& EB& EB& EB& E& E@& E@& E@& E@& E@& E@& E@& E@& E@& E@& E@& E@& E@& E@& E& EB& EB& EB& EB& EB& EB& EB& EB& EB& EB& EB& EB& EB& EB&  FC+ FC+ FC+ FC+ FC+ FC+ FC+ FC+ FC+ FC+ FC+ FC+ FC+ FC+ FC+ FC+ FC+ FC+ FC+ FC+ FC+ FC+ FC+ FC+ FC+ FC+ FC+ FC+ FC+ F+ FF+ FF+ FF+ FF+ FF+ FF+ FF+ FF+ FF+ FF+ FF+ FF+ FF+ FF+ FF+ FF+ FF+ FF+ FF+ FF+ FF+ FF+ FF+ FF+ FF+ FF+ FF+ FF+ FF+  CJ7 CJ7 CJ7 CJ7 CJ7 CJ7 CJ7 CJ7 CJ7 CJ7 CJ7 CJ7 CJ7 CJ7 CJ7 CJ7 CJ7 CJ7 CJ7 CJ7 CJ7 CJ7 CJ7 CJ7 CJ7 CJ7 CJ7 CJ7 CJ7 C CE6 CE6 CE6 CE6 CE6 CE6 CE6 CE6 CE6 CE6 CE6 CE6 CE6 CE6 CE6 CE6 CE6 CE6 CE6 CE6 CE6 CE6 CE6 CE6 CE6 CE6 CE6 CE6 CE6  @F7 @F7 @F7 @F7 @F7 @F7 @F7 @F7 @F7 @F7 @F7 @F7 @F7 @F7 @F7 @F7 @F7 @F7 @F7 @F7 @F7 @F7 @F7 @F7 @F7 @F7 @F7 @F7 @F7 @7 @L7 @L7 @L7 @L7 @L7 @L7 @L7 @L7 @L7 @L7 @L7 @L7 @L7 @L7 @L7 @L7 @L7 @L7 @L7 @L7 @L7 @L7 @L7 @L7 @L7 @L7 @L7 @L7 @L7  <O4 <O4 <O4 <O4 <O4 <O4 <O4 <O4 <O4 <O4 <O4 <O4 <O4 <O4 <O4 <O4 <O4 <O4 <O4 <O4 <O4 <O4 <O4 <O4 <O4 <O4 <O4 <O4 <O4 < <E2 <E2 <E2 <E2 <E2 <E2 <E2 <E2 <E2 <E2 <E2 <E2 <E2 <E2 <E2 <E2 <E2 <E2 <E2 <E2 <E2 <E2 <E2 <E2 <E2 <E2 <E2 <E2 <E2  7F4 7F4 7F4 7F4 7F4 7F4 7F4 7F4 7F4 7F4 7F4 7F4 7F4 7F4 7F4 7F4 7F4 7F4 7F4 7F4 7F4 7F4 7F4 7F4 7F4 7F4 7F4 7F4 7F4 74 7L4 7L4 7L4 7L4 7L4 7L4 7L4 7L4 7L4 7L4 7L4 7L4 7L4 7L4 7L4 7L4 7L4 7L4 7L4 7L4 7L4 7L4 7L4 7L4 7L4 7L4 7L4 7L4 7L4  4O0 4O0 4O0 4O0 4O0 4O0 4O0 4O0 4O0 4O0 4O0 4O0 4O0 4O0 4O0 4O0 4O0 4O0 4O0 4O0 4O0 4O0 4O0 4O0 4O0 4O0 4O0 4O0 4O0 4 4E. 4E. 4E. 4E. 4E. 4E. 4E. 4E. 4E. 4E. 4E. 4E. 4E. 4E. 4E. 4E. 4E. 4E. 4E. 4E. 4E. 4E. 4E. 4E. 4E. 4E. 4E. 4E. 4E.  0F0 0F0 0F0 0F0 0F0 0F0 0F0 0F0 0F0 0F0 0F0 0F0 0F0 0F0 0F0 0F0 0F0 0F0 0F0 0F0 0F0 0F0 0F0 0F0 0F0 0F0 0F0 0F0 0F0 00 0L0 0L0 0L0 0L0 0L0 0L0 0L0 0L0 0L0 0L0 0L0 0L0 0L0 0L0 0L0 0L0 0L0 0L0 0L0 0L0 0L0 0L0 0L0 0L0 0L0 0L0 0L0 0L0 0L0  FJ$ FJ$ FJ$ FJ$ FJ$ FJ$ FJ$ FJ$ FJ$ FJ$ FJ$ FJ$ FJ$ FJ$ FJ$ FJ$ FJ$ FJ$ FJ$ FJ$ FJ$ FJ$ FJ$ FJ$ FJ$ FJ$ FJ$ FJ$ FJ$ F$ FL$ FL$ FL$ FL$ FL$ FL$ FL$ FL$ FL$ FL$ FL$ FL$ FL$ FL$ FL$ FL$ FL$ FL$ FL$ FL$ FL$ FL$ FL$ FL$ FL$ FL$ FL$ FL$ FL$  EA) EA) EA) EA) EA) EA) EA) EA) EA) EA) EA) EA) EA) EA) EA) EA) EA) EA) EA) EA) EA) EA) EA) EA) EA) EA) EA) EA) EA) E) EE) EE) EE) EE) EE) EE) EE) EE) EE) EE) EE) EE) EE) EE) EE) EE) EE) EE) EE) EE) EE) EE) EE) EE) EE) EE) EE) EE) EE)  AH5 AH5 AH5 AH5 AH5 AH5 AH5 AH5 AH5 AH5 AH5 AH5 AH5 AH5 AH5 AH5 AH5 AH5 AH5 AH5 AH5 AH5 AH5 AH5 AH5 AH5 AH5 AH5 AH5 A AC4 AC4 AC4 AC4 AC4 AC4 AC4 AC4 AC4 AC4 AC4 AC4 AC4 AC4 AC4 AC4 AC4 AC4 AC4 AC4 AC4 AC4 AC4 AC4 AC4 AC4 AC4 AC4 AC4  >E5 >E5 >E5 >E5 >E5 >E5 >E5 >E5 >E5 >E5 >E5 >E5 >E5 >E5 >E5 >E5 >E5 >E5 >E5 >E5 >E5 >E5 >E5 >E5 >E5 >E5 >E5 >E5 >E5 >5 >J5 >J5 >J5 >J5 >J5 >J5 >J5 >J5 >J5 >J5 >J5 >J5 >J5 >J5 >J5 >J5 >J5 >J5 >J5 >J5 >J5 >J5 >J5 >J5 >J5 >J5 >J5 >J5 >J5  :M2 :M2 :M2 :M2 :M2 :M2 :M2 :M2 :M2 :M2 :M2 :M2 :M2 :M2 :M2 :M2 :M2 :M2 :M2 :M2 :M2 :M2 :M2 :M2 :M2 :M2 :M2 :M2 :M2 : :C1 :C1 :C1 :C1 :C1 :C1 :C1 :C1 :C1 :C1 :C1 :C1 :C1 :C1 :C1 :C1 :C1 :C1 :C1 :C1 :C1 :C1 :C1 :C1 :C1 :C1 :C1 :C1 :C1  5E2 5E2 5E2 5E2 5E2 5E2 5E2 5E2 5E2 5E2 5E2 5E2 5E2 5E2 5E2 5E2 5E2 5E2 5E2 5E2 5E2 5E2 5E2 5E2 5E2 5E2 5E2 5E2 5E2 52 5J2 5J2 5J2 5J2 5J2 5J2 5J2 5J2 5J2 5J2 5J2 5J2 5J2 5J2 5J2 5J2 5J2 5J2 5J2 5J2 5J2 5J2 5J2 5J2 5J2 5J2 5J2 5J2 5J2  2M. 2M. 2M. 2M. 2M. 2M. 2M. 2M. 2M. 2M. 2M. 2M. 2M. 2M. 2M. 2M. 2M. 2M. 2M. 2M. 2M. 2M. 2M. 2M. 2M. 2M. 2M. 2M. 2M. 2 2C- 2C- 2C- 2C- 2C- 2C- 2C- 2C- 2C- 2C- 2C- 2C- 2C- 2C- 2C- 2C- 2C- 2C- 2C- 2C- 2C- 2C- 2C- 2C- 2C- 2C- 2C- 2C- 2C-  .E. .E. .E. .E. .E. .E. .E. .E. .E. .E. .E. .E. .E. .E. .E. .E. .E. .E. .E. .E. .E. .E. .E. .E. .E. .E. .E. .E. .E. .. .J. .J. .J. .J. .J. .J. .J. .J. .J. .J. .J. .J. .J. .J. .J. .J. .J. .J. .J. .J. .J. .J. .J. .J. .J. .J. .J. .J. .J.  EI" EI" EI" EI" EI" EI" EI" EI" EI" EI" EI" EI" EI" EI" EI" EI" EI" EI" EI" EI" EI" EI" EI" EI" EI" EI" EI" EI" EI" E" EJ" EJ" EJ" EJ" EJ" EJ" EJ" EJ" EJ" EJ" EJ" EJ" EJ" EJ" EJ" EJ" EJ" EJ" EJ" EJ" EJ" EJ" EJ" EJ" EJ" EJ" EJ" EJ" EJ"  C@( C@( C@( C@( C@( C@( C@( C@( C@( C@( C@( C@( C@( C@( C@( C@( C@( C@( C@( C@( C@( C@( C@( C@( C@( C@( C@( C@( C@( C( CC( CC( CC( CC( CC( CC( CC( CC( CC( CC( CC( CC( CC( CC( CC( CC( CC( CC( CC( CC( CC( CC( CC( CC( CC( CC( CC( CC( CC(  @F4 @F4 @F4 @F4 @F4 @F4 @F4 @F4 @F4 @F4 @F4 @F4 @F4 @F4 @F4 @F4 @F4 @F4 @F4 @F4 @F4 @F4 @F4 @F4 @F4 @F4 @F4 @F4 @F4 @ @C2 @C2 @C2 @C2 @C2 @C2 @C2 @C2 @C2 @C2 @C2 @C2 @C2 @C2 @C2 @C2 @C2 @C2 @C2 @C2 @C2 @C2 @C2 @C2 @C2 @C2 @C2 @C2 @C2  =E4 =E4 =E4 =E4 =E4 =E4 =E4 =E4 =E4 =E4 =E4 =E4 =E4 =E4 =E4 =E4 =E4 =E4 =E4 =E4 =E4 =E4 =E4 =E4 =E4 =E4 =E4 =E4 =E4 =4 =I4 =I4 =I4 =I4 =I4 =I4 =I4 =I4 =I4 =I4 =I4 =I4 =I4 =I4 =I4 =I4 =I4 =I4 =I4 =I4 =I4 =I4 =I4 =I4 =I4 =I4 =I4 =I4 =I4  9L1 9L1 9L1 9L1 9L1 9L1 9L1 9L1 9L1 9L1 9L1 9L1 9L1 9L1 9L1 9L1 9L1 9L1 9L1 9L1 9L1 9L1 9L1 9L1 9L1 9L1 9L1 9L1 9L1 9 9A/ 9A/ 9A/ 9A/ 9A/ 9A/ 9A/ 9A/ 9A/ 9A/ 9A/ 9A/ 9A/ 9A/ 9A/ 9A/ 9A/ 9A/ 9A/ 9A/ 9A/ 9A/ 9A/ 9A/ 9A/ 9A/ 9A/ 9A/ 9A/  4C1 4C1 4C1 4C1 4C1 4C1 4C1 4C1 4C1 4C1 4C1 4C1 4C1 4C1 4C1 4C1 4C1 4C1 4C1 4C1 4C1 4C1 4C1 4C1 4C1 4C1 4C1 4C1 4C1 41 4I1 4I1 4I1 4I1 4I1 4I1 4I1 4I1 4I1 4I1 4I1 4I1 4I1 4I1 4I1 4I1 4I1 4I1 4I1 4I1 4I1 4I1 4I1 4I1 4I1 4I1 4I1 4I1 4I1  1L- 1L- 1L- 1L- 1L- 1L- 1L- 1L- 1L- 1L- 1L- 1L- 1L- 1L- 1L- 1L- 1L- 1L- 1L- 1L- 1L- 1L- 1L- 1L- 1L- 1L- 1L- 1L- 1L- 1 1A+ 1A+ 1A+ 1A+ 1A+ 1A+ 1A+ 1A+ 1A+ 1A+ 1A+ 1A+ 1A+ 1A+ 1A+ 1A+ 1A+ 1A+ 1A+ 1A+ 1A+ 1A+ 1A+ 1A+ 1A+ 1A+ 1A+ 1A+ 1A+  -C- -C- -C- -C- -C- -C- -C- -C- -C- -C- -C- -C- -C- -C- -C- -C- -C- -C- -C- -C- -C- -C- -C- -C- -C- -C- -C- -C- -C- -- -I- -I- -I- -I- -I- -I- -I- -I- -I- -I- -I- -I- -I- -I- -I- -I- -I- -I- -I- -I- -I- -I- -I- -I- -I- -I- -I- -I- -I-  CG! CG! CG! CG! CG! CG! CG! CG! CG! CG! CG! CG! CG! CG! CG! CG! CG! CG! CG! CG! CG! CG! CG! CG! CG! CG! CG! CG! CG! C! CI! CI! CI! CI! CI! CI! CI! CI! CI! CI! CI! CI! CI! CI! CI! CI! CI! CI! CI! CI! CI! CI! CI! CI! CI! CI! CI! CI! CI!  A>& A>& A>& A>& A>& A>& A>& A>& A>& A>& A>& A>& A>& A>& A>& A>& A>& A>& A>& A>& A>& A>& A>& A>& A>& A>& A>& A>& A>& >& =>& =>& =>& =>& =>& =>& =>& =>& =>& =>& =>& =>& =>& =>& =>& =>& =>& =>& =>& =>& =>& =>& =>& =>& =>& =>& =>& =>& =>&  >Q) >Q) >Q) >Q) >Q) >Q) >Q) >Q) >Q) >Q) >Q) >Q) >Q) >Q) >Q) >Q) >Q) >Q) >Q) >Q) >Q) >Q) >Q) >Q) >Q) >Q) >Q) >Q) >Q) > >I( >I( >I( >I( >I( >I( >I( >I( >I( >I( >I( >I( >I( >I( >I( >I( >I( >I( >I( >I( >I( >I( >I( >I( >I( >I( >I( >I( >I( > >J) >J) >J) >J) >J) >J) >J) >J) >J) >J) >J) >J) >J) >J) >J) >J) >J) >J) >J) >J) >J) >J) >J) >J) >J) >J) >J) >J) >J) J) EJ) EJ) EJ) EJ) EJ) EJ) EJ) EJ) EJ) EJ) EJ) EJ) EJ) EJ) EJ) EJ) EJ) EJ) EJ) EJ) EJ) EJ) EJ) EJ) EJ) EJ) EJ) EJ) EJ) J AJ& AJ& AJ& AJ& AJ& AJ& AJ& AJ& AJ& AJ& AJ& AJ& AJ& AJ& AJ& AJ& AJ& AJ& AJ& AJ& AJ& AJ& AJ& AJ& AJ& AJ& AJ& AJ& AJ& J& >J& >J& >J& >J& >J& >J& >J& >J& >J& >J& >J& >J& >J& >J& >J& >J& >J& >J& >J& >J& >J& >J& >J& >J& >J& >J& >J& >J& >J& J FJ+ FJ+ FJ+ FJ+ FJ+ FJ+ FJ+ FJ+ FJ+ FJ+ FJ+ FJ+ FJ+ FJ+ FJ+ FJ+ FJ+ FJ+ FJ+ FJ+ FJ+ FJ+ FJ+ FJ+ FJ+ FJ+ FJ+ FJ+ FJ+ J+ =J+ =J+ =J+ =J+ =J+ =J+ =J+ =J+ =J+ =J+ =J+ =J+ =J+ =J+ =J+ =J+ =J+ =J+ =J+ =J+ =J+ =J+ =J+ =J+ =J+ =J+ =J+ =J+ =J+  >RÀ >RÀ >RÀ >RÀ >RÀ >RÀ >RÀ >RÀ >RÀ >RÀ >RÀ >RÀ >RÀ >RÀ >RÀ >RÀ >RÀ >RÀ >RÀ >RÀ >RÀ >RÀ >RÀ >RÀ >RÀ >RÀ >RÀ >RÀ >RÀ >À >IÀ >IÀ >IÀ >IÀ >IÀ >IÀ >IÀ >IÀ >IÀ >IÀ >IÀ >IÀ >IÀ >IÀ >IÀ >IÀ >IÀ >IÀ >IÀ >IÀ >IÀ >IÀ >IÀ >IÀ >IÀ >IÀ >IÀ >IÀ >IÀ > >J+ >J+ >J+ >J+ >J+ >J+ >J+ >J+ >J+ >J+ >J+ >J+ >J+ >J+ >J+ >J+ >J+ >J+ >J+ >J+ >J+ >J+ >J+ >J+ >J+ >J+ >J+ >J+ >J+ J+ FJ+ FJ+ FJ+ FJ+ FJ+ FJ+ FJ+ FJ+ FJ+ FJ+ FJ+ FJ+ FJ+ FJ+ FJ+ FJ+ FJ+ FJ+ FJ+ FJ+ FJ+ FJ+ FJ+ FJ+ FJ+ FJ+ FJ+ FJ+ FJ+ J CJ( CJ( CJ( CJ( CJ( CJ( CJ( CJ( CJ( CJ( CJ( CJ( CJ( CJ( CJ( CJ( CJ( CJ( CJ( CJ( CJ( CJ( CJ( CJ( CJ( CJ( CJ( CJ( CJ( J( @J( @J( @J( @J( @J( @J( @J( @J( @J( @J( @J( @J( @J( @J( @J( @J( @J( @J( @J( @J( @J( @J( @J( @J( @J( @J( @J( @J( @J( J EJ) EJ) EJ) EJ) EJ) EJ) EJ) EJ) EJ) EJ) EJ) EJ) EJ) EJ) EJ) EJ) EJ) EJ) EJ) EJ) EJ) EJ) EJ) EJ) EJ) EJ) EJ) EJ) EJ) J) =J) =J) =J) =J) =J) =J) =J) =J) =J) =J) =J) =J) =J) =J) =J) =J) =J) =J) =J) =J) =J) =J) =J) =J) =J) =J) =J) =J) =J)  >Q& >Q& >Q& >Q& >Q& >Q& >Q& >Q& >Q& >Q& >Q& >Q& >Q& >Q& >Q& >Q& >Q& >Q& >Q& >Q& >Q& >Q& >Q& >Q& >Q& >Q& >Q& >Q& >Q& & AI& AI& AI& AI& AI& AI& AI& AI& AI& AI& AI& AI& AI& AI& AI& AI& AI& AI& AI& AI& AI& AI& AI& AI& AI& AI& AI& AI& AI&  FJ+ FJ+ FJ+ FJ+ FJ+ FJ+ FJ+ FJ+ FJ+ FJ+ FJ+ FJ+ FJ+ FJ+ FJ+ FJ+ FJ+ FJ+ FJ+ FJ+ FJ+ FJ+ FJ+ FJ+ FJ+ FJ+ FJ+ FJ+ FJ+ J+ =J+ =J+ =J+ =J+ =J+ =J+ =J+ =J+ =J+ =J+ =J+ =J+ =J+ =J+ =J+ =J+ =J+ =J+ =J+ =J+ =J+ =J+ =J+ =J+ =J+ =J+ =J+ =J+ =J+  >R( >R( >R( >R( >R( >R( >R( >R( >R( >R( >R( >R( >R( >R( >R( >R( >R( >R( >R( >R( >R( >R( >R( >R( >R( >R( >R( >R( >R( ( CI( CI( CI( CI( CI( CI( CI( CI( CI( CI( CI( CI( CI( CI( CI( CI( CI( CI( CI( CI( CI( CI( CI( CI( CI( CI( CI( CI( CI(  EJ) EJ) EJ) EJ) EJ) EJ) EJ) EJ) EJ) EJ) EJ) EJ) EJ) EJ) EJ) EJ) EJ) EJ) EJ) EJ) EJ) EJ) EJ) EJ) EJ) EJ) EJ) EJ) EJ) EJ) EJ) EJ) EJ) EJ) EJ) EJ) EJ) EJ) EJ) EJ) EJ) EJ) EJ) EJ) EJ) EJ) EJ) EJ) EJ) EJ) EJ) EJ) EJ) EJ) EJ) EJ) EJ) EJ) EJ) J >J. >J. >J. >J. >J. >J. >J. >J. >J. >J. >J. >J. >J. >J. >J. >J. >J. >J. >J. >J. >J. >J. >J. >J. >J. >J. >J. >J. >J. > >L+ >L+ >L+ >L+ >L+ >L+ >L+ >L+ >L+ >L+ >L+ >L+ >L+ >L+ >L+ >L+ >L+ >L+ >L+ >L+ >L+ >L+ >L+ >L+ >L+ >L+ >L+ >L+ >L+  9M- 9M- 9M- 9M- 9M- 9M- 9M- 9M- 9M- 9M- 9M- 9M- 9M- 9M- 9- 9L- 9L- 9L- 9L- 9L- 9L- 9L- 9L- 9L- 9L- 9L- 9L- 9L- 9L- 9 9M1 9M1 9M1 9M1 9M1 9M1 9M1 9M1 9M1 9M1 9M1 9M1 9M1 9M1 91 9L1 9L1 9L1 9L1 9L1 9L1 9L1 9L1 9L1 9L1 9L1 9L1 9L1 9L1  =M4 =M4 =M4 =M4 =M4 =M4 =M4 =M4 =M4 =M4 =M4 =M4 =M4 =M4 =4 =L4 =L4 =L4 =L4 =L4 =L4 =L4 =L4 =L4 =L4 =L4 =L4 =L4 =L4 = =J9 =J9 =J9 =J9 =J9 =J9 =J9 =J9 =J9 =J9 =J9 =J9 =J9 =J9 =J9 =J9 =J9 =J9 =J9 =J9 =J9 =J9 =J9 =J9 =J9 =J9 =J9 =J9 =J9  >J5 >J5 >J5 >J5 >J5 >J5 >J5 >J5 >J5 >J5 >J5 >J5 >J5 >J5 >J5 >J5 >J5 >J5 >J5 >J5 >J5 >J5 >J5 >J5 >J5 >J5 >J5 >J5 >J5 5 9I5 9I5 9I5 9I5 9I5 9I5 9I5 9I5 9I5 9I5 9I5 9I5 9I5 9I5 9I5 9I5 9I5 9I5 9I5 9I5 9I5 9I5 9I5 9I5 9I5 9I5 9I5 9I5 9I5  :J2 :J2 :J2 :J2 :J2 :J2 :J2 :J2 :J2 :J2 :J2 :J2 :J2 :J2 :J2 :J2 :J2 :J2 :J2 :J2 :J2 :J2 :J2 :J2 :J2 :J2 :J2 :J2 :J2 J 7J4 7J4 7J4 7J4 7J4 7J4 7J4 7J4 7J4 7J4 7J4 7J4 7J4 7J4 7J4 7J4 7J4 7J4 7J4 7J4 7J4 7J4 7J4 7J4 7J4 7J4 7J4 7J4 7J4 J 9J5 9J5 9J5 9J5 9J5 9J5 9J5 9J5 9J5 9J5 9J5 9J5 9J5 9J5 9J5 9J5 9J5 9J5 9J5 9J5 9J5 9J5 9J5 9J5 9J5 9J5 9J5 9J5 9J5 J5 >J5 >J5 >J5 >J5 >J5 >J5 >J5 >J5 >J5 >J5 >J5 >J5 >J5 >J5 >J5 >J5 >J5 >J5 >J5 >J5 >J5 >J5 >J5 >J5 >J5 >J5 >J5 >J5 >J5 J :J7 :J7 :J7 :J7 :J7 :J7 :J7 :J7 :J7 :J7 :J7 :J7 :J7 :J7 :J7 :J7 :J7 :J7 :J7 :J7 :J7 :J7 :J7 :J7 :J7 :J7 :J7 :J7 :J7 7 7I7 7I7 7I7 7I7 7I7 7I7 7I7 7I7 7I7 7I7 7I7 7I7 7I7 7I7 7I7 7I7 7I7 7I7 7I7 7I7 7I7 7I7 7I7 7I7 7I7 7I7 7I7 7I7 7I7  9J5 9J5 9J5 9J5 9J5 9J5 9J5 9J5 9J5 9J5 9J5 9J5 9J5 9J5 9J5 9J5 9J5 9J5 9J5 9J5 9J5 9J5 9J5 9J5 9J5 9J5 9J5 9J5 9J5 5 4I5 4I5 4I5 4I5 4I5 4I5 4I5 4I5 4I5 4I5 4I5 4I5 4I5 4I5 4I5 4I5 4I5 4I5 4I5 4I5 4I5 4I5 4I5 4I5 4I5 4I5 4I5 4I5 4I5  5I9 5I9 5I9 5I9 5I9 5I9 5I9 5I9 5I9 5I9 5I9 5I9 5I9 5I9 5I9 5I9 5I9 5I9 5I9 5I9 5I9 5I9 5I9 5I9 5I9 5I9 5I9 5I9 5I9  1J7 1J7 1J7 1J7 1J7 1J7 1J7 1J7 1J7 1J7 1J7 1J7 1J7 1J7 1J7 1J7 1J7 1J7 1J7 1J7 1J7 1J7 1J7 1J7 1J7 1J7 1J7 1J7 1J7 J 2J5 2J5 2J5 2J5 2J5 2J5 2J5 2J5 2J5 2J5 2J5 2J5 2J5 2J5 2J5 2J5 2J5 2J5 2J5 2J5 2J5 2J5 2J5 2J5 2J5 2J5 2J5 2J5 2J5 J5 9J5 9J5 9J5 9J5 9J5 9J5 9J5 9J5 9J5 9J5 9J5 9J5 9J5 9J5 9J5 9J5 9J5 9J5 9J5 9J5 9J5 9J5 9J5 9J5 9J5 9J5 9J5 9J5 9J5 J 5J2 5J2 5J2 5J2 5J2 5J2 5J2 5J2 5J2 5J2 5J2 5J2 5J2 5J2 5J2 5J2 5J2 5J2 5J2 5J2 5J2 5J2 5J2 5J2 5J2 5J2 5J2 5J2 5J2 J2 2J2 2J2 2J2 2J2 2J2 2J2 2J2 2J2 2J2 2J2 2J2 2J2 2J2 2J2 2J2 2J2 2J2 2J2 2J2 2J2 2J2 2J2 2J2 2J2 2J2 2J2 2J2 2J2 2J2 J :J7 :J7 :J7 :J7 :J7 :J7 :J7 :J7 :J7 :J7 :J7 :J7 :J7 :J7 :J7 :J7 :J7 :J7 :J7 :J7 :J7 :J7 :J7 :J7 :J7 :J7 :J7 :J7 :J7 7 9I7 9I7 9I7 9I7 9I7 9I7 9I7 9I7 9I7 9I7 9I7 9I7 9I7 9I7 9I7 9I7 9I7 9I7 9I7 9I7 9I7 9I7 9I7 9I7 9I7 9I7 9I7 9I7 9I7  7J4 7J4 7J4 7J4 7J4 7J4 7J4 7J4 7J4 7J4 7J4 7J4 7J4 7J4 7J4 7J4 7J4 7J4 7J4 7J4 7J4 7J4 7J4 7J4 7J4 7J4 7J4 7J4 7J4 4 5L4 5L4 5L4 5L4 5L4 5L4 5L4 5L4 5L4 5L4 5L4 5L4 5L4 5L4 5L4 5L4 5L4 5L4 5L4 5L4 5L4 5L4 5L4 5L4 5L4 5L4 5L4 5L4 5L4  4I9 4I9 4I9 4I9 4I9 4I9 4I9 4I9 4I9 4I9 4I9 4I9 4I9 4I9 4I9 4I9 4I9 4I9 4I9 4I9 4I9 4I9 4I9 4I9 4I9 4I9 4I9 4I9 4I9 49 4J9 4J9 4J9 4J9 4J9 4J9 4J9 4J9 4J9 4J9 4J9 4J9 4J9 4J9 49 4I9 4I9 4I9 4I9 4I9 4I9 4I9 4I9 4I9 4I9 4I9 4I9 4I9 4I9 4 4G- 4G- 4G- 4G- 4G- 4G- 4G- 4G- 4G- 4G- 4G- 4G- 4G- 4G- 4- 4I- 4I- 4I- 4I- 4I- 4I- 4I- 4I- 4I- 4I- 4I- 4I- 4I- 4I- - 2J- 2J- 2J- 2J- 2J- 2J- 2J- 2J- 2J- 2J- 2J- 2J- 2J- 2J- 2J- 2J- 2J- 2J- 2J- 2J- 2J- 2J- 2J- 2J- 2J- 2J- 2J- 2J- 2J-  2J& 2J& 2J& 2J& 2J& 2J& 2J& 2J& 2J& 2J& 2J& 2J& 2J& 2J& 2J& 2J& 2J& 2J& 2J& 2J& 2J& 2J& 2J& 2J& 2J& 2J& 2J& 2J& 2J& 2J& 2J& 2J& 2J& 2J& 2J& 2J& 2J& 2J& 2J& 2J& 2J& 2J& 2J& 2J& 2J& 2J& 2J& 2J& 2J& 2J& 2J& 2J& 2J& 2J& 2J& 2J& 2J& 2J& 2J& 2J 2J2 2J2 2J2 2J2 2J2 2J2 2J2 2J2 2J2 2J2 2J2 2J2 2J2 2J2 2J2 2J2 2J2 2J2 2J2 2J2 2J2 2J2 2J2 2J2 2J2 2J2 2J2 2J2 2J2 2J 2J3 2J3 2J3 2J3 2J3 2J3 2J3 2J3 2J3 2J3 2J3 2J3 2J3 2J3 2J3 2J3 2J3 2J3 2J3 2J3 2J3 2J3 2J3 2J3 2J3 2J3 2J3 2J3 2J3  2 2 2 2 2 2 2 2 2 2 2 2 2 2 2 2 2 2 2 2 2 2 2 2 2 2 2 2 2 2 2 2 2 2 2 2 2 2 2 2 2 2 2 2 2 2 2 2 2 2 2 2 2 2 2 2 2 2 2  >0 >0 >0 >0 >0 >0 >0 >0 >0 >0 >0 >0 >0 >0 >0 >0 >0 >0 >0 >0 >0 >0 >0 >0 >0 >0 >0 >0 >0 0 ?0 ?0 ?0 ?0 ?0 ?0 ?0 ?0 ?0 ?0 ?0 ?0 ?0 ?0 ?0 ?0 ?0 ?0 ?0 ?0 ?0 ?0 ?0 ?0 ?0 ?0 ?0 ?0 ?0  A. A. A. A. A. A. A. A. A. A. A. A. A. A. A. A. A. A. A. A. A. A. A. A. A. A. A. A. A. . 9. 9. 9. 9. 9. 9. 9. 9. 9. 9. 9. 9. 9. 9. 9. 9. 9. 9. 9. 9. 9. 9. 9. 9. 9. 9. 9. 9. 9.  :F2 :F2 :F2 :F2 :F2 :F2 :F2 :F2 :F2 :F2 :F2 :F2 :F2 :F2 :F2 :F2 :F2 :F2 :F2 :F2 :F2 :F2 :F2 :F2 :F2 :F2 :F2 :F2 :F2 : :E0 :E0 :E0 :E0 :E0 :E0 :E0 :E0 :E0 :E0 :E0 :E0 :E0 :E0 :E0 :E0 :E0 :E0 :E0 :E0 :E0 :E0 :E0 :E0 :E0 :E0 :E0 :E0 :E0 : :C2 :C2 :C2 :C2 :C2 :C2 :C2 :C2 :C2 :C2 :C2 :C2 :C2 :C2 :C2 :C2 :C2 :C2 :C2 :C2 :C2 :C2 :C2 :C2 :C2 :C2 :C2 :C2 :C2 C2 AC2 AC2 AC2 AC2 AC2 AC2 AC2 AC2 AC2 AC2 AC2 AC2 AC2 AC2 AC2 AC2 AC2 AC2 AC2 AC2 AC2 AC2 AC2 AC2 AC2 AC2 AC2 AC2 AC2  >>. >>. >>. >>. >>. >>. >>. >>. >>. >>. >>. >>. >>. >>. >>. >>. >>. >>. >>. >>. >>. >>. >>. >>. >>. >>. >>. >>. >>. >. :>. :>. :>. :>. :>. :>. :>. :>. :>. :>. :>. :>. :>. :>. :>. :>. :>. :>. :>. :>. :>. :>. :>. :>. :>. :>. :>. :>. :>.  C?3 C?3 C?3 C?3 C?3 C?3 C?3 C?3 C?3 C?3 C?3 C?3 C?3 C?3 C?3 C?3 C?3 C?3 C?3 C?3 C?3 C?3 C?3 C?3 C?3 C?3 C?3 C?3 C?3 ?3 9?3 9?3 9?3 9?3 9?3 9?3 9?3 9?3 9?3 9?3 9?3 9?3 9?3 9?3 9?3 9?3 9?3 9?3 9?3 9?3 9?3 9?3 9?3 9?3 9?3 9?3 9?3 9?3 9?3  :?7 :?7 :?7 :?7 :?7 :?7 :?7 :?7 :?7 :?7 :?7 :?7 :?7 :?7 :?7 :?7 :?7 :?7 :?7 :?7 :?7 :?7 :?7 :?7 :?7 :?7 :?7 :?7 :?7 : :>5 :>5 :>5 :>5 :>5 :>5 :>5 :>5 :>5 :>5 :>5 :>5 :>5 :>5 :>5 :>5 :>5 :>5 :>5 :>5 :>5 :>5 :>5 :>5 :>5 :>5 :>5 :>5 :>5 : :?3 :?3 :?3 :?3 :?3 :?3 :?3 :?3 :?3 :?3 :?3 :?3 :?3 :?3 :?3 :?3 :?3 :?3 :?3 :?3 :?3 :?3 :?3 :?3 :?3 :?3 :?3 :?3 :?3 ?3 C?3 C?3 C?3 C?3 C?3 C?3 C?3 C?3 C?3 C?3 C?3 C?3 C?3 C?3 C?3 C?3 C?3 C?3 C?3 C?3 C?3 C?3 C?3 C?3 C?3 C?3 C?3 C?3 C?3  ?F0 ?F0 ?F0 ?F0 ?F0 ?F0 ?F0 ?F0 ?F0 ?F0 ?F0 ?F0 ?F0 ?F0 ?F0 ?F0 ?F0 ?F0 ?F0 ?F0 ?F0 ?F0 ?F0 ?F0 ?F0 ?F0 ?F0 ?F0 ?F0 F0 <F0 <F0 <F0 <F0 <F0 <F0 <F0 <F0 <F0 <F0 <F0 <F0 <F0 <F0 <F0 <F0 <F0 <F0 <F0 <F0 <F0 <F0 <F0 <F0 <F0 <F0 <F0 <F0 <F0  AFA>2 AFA>2 AFA>2 AFA>2 AFA>2 AFA>2 AFA>2 AFA>2 AFA>2 AFA>2 AFA>2 AFA>2 AFA>2 AFA>2 AFA>2 AFA>2 AFA>2 AFA>2 AFA>2 AFA>2 AFA>2 AFA>2 AFA>2 AFA>2 AFA>2 AFA>2 AFA>2 AFA>2 AFA>2 FA>2 9FA>2 9FA>2 9FA>2 9FA>2 9FA>2 9FA>2 9FA>2 9FA>2 9FA>2 9FA>2 9FA>2 9FA>2 9FA>2 9FA>2 9FA>2 9FA>2 9FA>2 9FA>2 9FA>2 9FA>2 9FA>2 9FA>2 9FA>2 9FA>2 9FA>2 9FA>2 9FA>2 9FA>2 9FA>2 FA> :FA>. :FA>. :FA>. :FA>. :FA>. :FA>. :FA>. :FA>. :FA>. :FA>. :FA>. :FA>. :FA>. :FA>. :FA>. :FA>. :FA>. :FA>. :FA>. :FA>. :FA>. :FA>. :FA>. :FA>. :FA>. :FA>. :FA>. :FA>. :FA>. FA>. >FA>. >FA>. >FA>. >FA>. >FA>. >FA>. >FA>. >FA>. >FA>. >FA>. >FA>. >FA>. >FA>. >FA>. >FA>. >FA>. >FA>. >FA>. >FA>. >FA>. >FA>. >FA>. >FA>. >FA>. >FA>. >FA>. >FA>. >FA>. >FA>. FA> CHC?3 CHC?3 CHC?3 CHC?3 CHC?3 CHC?3 CHC?3 CHC?3 CHC?3 CHC?3 CHC?3 CHC?3 CHC?3 CHC?3 CHC?3 CHC?3 CHC?3 CHC?3 CHC?3 CHC?3 CHC?3 CHC?3 CHC?3 CHC?3 CHC?3 CHC?3 CHC?3 CHC?3 CHC?3 HC?3 9HC?3 9HC?3 9HC?3 9HC?3 9HC?3 9HC?3 9HC?3 9HC?3 9HC?3 9HC?3 9HC?3 9HC?3 9HC?3 9HC?3 9HC?3 9HC?3 9HC?3 9HC?3 9HC?3 9HC?3 9HC?3 9HC?3 9HC?3 9HC?3 9HC?3 9HC?3 9HC?3 9HC?3 9HC?3 HC? :HC?0 :HC?0 :HC?0 :HC?0 :HC?0 :HC?0 :HC?0 :HC?0 :HC?0 :HC?0 :HC?0 :HC?0 :HC?0 :HC?0 :HC?0 :HC?0 :HC?0 :HC?0 :HC?0 :HC?0 :HC?0 :HC?0 :HC?0 :HC?0 :HC?0 :HC?0 :HC?0 :HC?0 :HC?0 HC?0 CHC?0 CHC?0 CHC?0 CHC?0 CHC?0 CHC?0 CHC?0 CHC?0 CHC?0 CHC?0 CHC?0 CHC?0 CHC?0 CHC?0 CHC?0 CHC?0 CHC?0 CHC?0 CHC?0 CHC?0 CHC?0 CHC?0 CHC?0 CHC?0 CHC?0 CHC?0 CHC?0 CHC?0 CHC?0 HC? AJFA2 AJFA2 AJFA2 AJFA2 AJFA2 AJFA2 AJFA2 AJFA2 AJFA2 AJFA2 AJFA2 AJFA2 AJFA2 AJFA2 AJFA2 AJFA2 AJFA2 AJFA2 AJFA2 AJFA2 AJFA2 AJFA2 AJFA2 AJFA2 AJFA2 AJFA2 AJFA2 AJFA2 AJFA2 AJFA2 AJFA2 AJFA2 AJFA2 AJFA2 AJFA2 AJFA2 AJFA2 AJFA2 AJFA2 AJFA2 AJFA2 AJFA2 AJFA2 AJFA2 AJFA2 AJFA2 AJFA2 AJFA2 AJFA2 AJFA2 AJFA2 AJFA2 AJFA2 AJFA2 AJFA2 AJFA2 AJFA2 AJFA2 AJFA2 JFA ?JFA: ?JFA: ?JFA: ?JFA: ?JFA: ?JFA: ?JFA: ?JFA: ?JFA: ?JFA: ?JFA: ?JFA: ?JFA: ?JFA: ?JFA: ?JFA: ?JFA: ?JFA: ?JFA: ?JFA: ?JFA: ?JFA: ?JFA: ?JFA: ?JFA: ?JFA: ?JFA: ?JFA: ?JFA: JFA: >JFA: >JFA: >JFA: >JFA: >JFA: >JFA: >JFA: >JFA: >JFA: >JFA: >JFA: >JFA: >JFA: >JFA: >JFA: >JFA: >JFA: >JFA: >JFA: >JFA: >JFA: >JFA: >JFA: >JFA: >JFA: >JFA: >JFA: >JFA: >JFA: JFA <4 <4 <4 <4 <4 <4 <4 <4 <4 <4 <4 <4 <4 <4 <4 <4 <4 <4 <4 <4 <4 <4 <4 <4 <4 <4 <4 <4 <4 4 >4 >4 >4 >4 >4 >4 >4 >4 >4 >4 >4 >4 >4 >4 >4 >4 >4 >4 >4 >4 >4 >4 >4 >4 >4 >4 >4 >4 >4  <Q0 <Q0 <Q0 <Q0 <Q0 <Q0 <Q0 <Q0 <Q0 <Q0 <Q0 <Q0 <Q0 <Q0 <Q0 <Q0 <Q0 <Q0 <Q0 <Q0 <Q0 <Q0 <Q0 <Q0 <Q0 <Q0 <Q0 <Q0 <Q0 0 :R0 :R0 :R0 :R0 :R0 :R0 :R0 :R0 :R0 :R0 :R0 :R0 :R0 :R0 :R0 :R0 :R0 :R0 :R0 :R0 :R0 :R0 :R0 :R0 :R0 :R0 :R0 :R0 :R0  9T) 9T) 9T) 9T) 9T) 9T) 9T) 9T) 9T) 9T) 9T) 9T) 9T) 9T) 9T) 9T) 9T) 9T) 9T) 9T) 9T) 9T) 9T) 9T) 9T) 9T) 9T) 9T) 9T) 9) 9L) 9L) 9L) 9L) 9L) 9L) 9L) 9L) 9L) 9L) 9L) 9L) 9L) 9L) 9L) 9L) 9L) 9L) 9L) 9L) 9L) 9L) 9L) 9L) 9L) 9L) 9L) 9L) 9L)  <M- <M- <M- <M- <M- <M- <M- <M- <M- <M- <M- <M- <M- <M- <M- <M- <M- <M- <M- <M- <M- <M- <M- <M- <M- <M- <M- <M- <M- M 4M+ 4M+ 4M+ 4M+ 4M+ 4M+ 4M+ 4M+ 4M+ 4M+ 4M+ 4M+ 4M+ 4M+ 4M+ 4M+ 4M+ 4M+ 4M+ 4M+ 4M+ 4M+ 4M+ 4M+ 4M+ 4M+ 4M+ 4M+ 4M+ M 5M- 5M- 5M- 5M- 5M- 5M- 5M- 5M- 5M- 5M- 5M- 5M- 5M- 5M- 5M- 5M- 5M- 5M- 5M- 5M- 5M- 5M- 5M- 5M- 5M- 5M- 5M- 5M- 5M- 5- 5T- 5T- 5T- 5T- 5T- 5T- 5T- 5T- 5T- 5T- 5T- 5T- 5T- 5T- 5T- 5T- 5T- 5T- 5T- 5T- 5T- 5T- 5T- 5T- 5T- 5T- 5T- 5T- 5T- 5 5Q) 5Q) 5Q) 5Q) 5Q) 5Q) 5Q) 5Q) 5Q) 5Q) 5Q) 5Q) 5Q) 5Q) 5Q) 5Q) 5Q) 5Q) 5Q) 5Q) 5Q) 5Q) 5Q) 5Q) 5Q) 5Q) 5Q) 5Q) 5Q) 5) 5M) 5M) 5M) 5M) 5M) 5M) 5M) 5M) 5M) 5M) 5M) 5M) 5M) 5M) 5M) 5M) 5M) 5M) 5M) 5M) 5M) 5M) 5M) 5M) 5M) 5M) 5M) 5M) 5M) 5 5V. 5V. 5V. 5V. 5V. 5V. 5V. 5V. 5V. 5V. 5V. 5V. 5V. 5V. 5V. 5V. 5V. 5V. 5V. 5V. 5V. 5V. 5V. 5V. 5V. 5V. 5V. 5V. 5V. 5. 5L. 5L. 5L. 5L. 5L. 5L. 5L. 5L. 5L. 5L. 5L. 5L. 5L. 5L. 5L. 5L. 5L. 5L. 5L. 5L. 5L. 5L. 5L. 5L. 5L. 5L. 5L. 5L. 5L.  >M" >M" >M" >M" >M" >M" >M" >M" >M" >M" >M" >M" >M" >M" >M" >M" >M" >M" >M" >M" >M" >M" >M" >M" >M" >M" >M" >M" >M" M" 4M" 4M" 4M" 4M" 4M" 4M" 4M" 4M" 4M" 4M" 4M" 4M" 4M" 4M" 4M" 4M" 4M" 4M" 4M" 4M" 4M" 4M" 4M" 4M" 4M" 4M" 4M" 4M" 4M" M 5M. 5M. 5M. 5M. 5M. 5M. 5M. 5M. 5M. 5M. 5M. 5M. 5M. 5M. 5M. 5M. 5M. 5M. 5M. 5M. 5M. 5M. 5M. 5M. 5M. 5M. 5M. 5M. 5M. 5. 5V. 5V. 5V. 5V. 5V. 5V. 5V. 5V. 5V. 5V. 5V. 5V. 5V. 5V. 5V. 5V. 5V. 5V. 5V. 5V. 5V. 5V. 5V. 5V. 5V. 5V. 5V. 5V. 5V. 5 5R+ 5R+ 5R+ 5R+ 5R+ 5R+ 5R+ 5R+ 5R+ 5R+ 5R+ 5R+ 5R+ 5R+ 5R+ 5R+ 5R+ 5R+ 5R+ 5R+ 5R+ 5R+ 5R+ 5R+ 5R+ 5R+ 5R+ 5R+ 5R+ 5+ 5O+ 5O+ 5O+ 5O+ 5O+ 5O+ 5O+ 5O+ 5O+ 5O+ 5O+ 5O+ 5O+ 5O+ 5O+ 5O+ 5O+ 5O+ 5O+ 5O+ 5O+ 5O+ 5O+ 5O+ 5O+ 5O+ 5O+ 5O+ 5O+ 5 5T- 5T- 5T- 5T- 5T- 5T- 5T- 5T- 5T- 5T- 5T- 5T- 5T- 5T- 5T- 5T- 5T- 5T- 5T- 5T- 5T- 5T- 5T- 5T- 5T- 5T- 5T- 5T- 5T- 5- 5L- 5L- 5L- 5L- 5L- 5L- 5L- 5L- 5L- 5L- 5L- 5L- 5L- 5L- 5L- 5L- 5L- 5L- 5L- 5L- 5L- 5L- 5L- 5L- 5L- 5L- 5L- 5L- 5L-  <M) <M) <M) <M) <M) <M) <M) <M) <M) <M) <M) <M) <M) <M) <M) <M) <M) <M) <M) <M) <M) <M) <M) <M) <M) <M) <M) <M) <M) ) 4Q) 4Q) 4Q) 4Q) 4Q) 4Q) 4Q) 4Q) 4Q) 4Q) 4Q) 4Q) 4Q) 4Q) 4Q) 4Q) 4Q) 4Q) 4Q) 4Q) 4Q) 4Q) 4Q) 4Q) 4Q) 4Q) 4Q) 4Q) 4Q)  5V. 5V. 5V. 5V. 5V. 5V. 5V. 5V. 5V. 5V. 5V. 5V. 5V. 5V. 5V. 5V. 5V. 5V. 5V. 5V. 5V. 5V. 5V. 5V. 5V. 5V. 5V. 5V. 5V. 5. 5L. 5L. 5L. 5L. 5L. 5L. 5L. 5L. 5L. 5L. 5L. 5L. 5L. 5L. 5L. 5L. 5L. 5L. 5L. 5L. 5L. 5L. 5L. 5L. 5L. 5L. 5L. 5L. 5L.  >M+ >M+ >M+ >M+ >M+ >M+ >M+ >M+ >M+ >M+ >M+ >M+ >M+ >M+ >M+ >M+ >M+ >M+ >M+ >M+ >M+ >M+ >M+ >M+ >M+ >M+ >M+ >M+ >M+ + 4V+ 4V+ 4V+ 4V+ 4V+ 4V+ 4V+ 4V+ 4V+ 4V+ 4V+ 4V+ 4V+ 4V+ 4V+ 4V+ 4V+ 4V+ 4V+ 4V+ 4V+ 4V+ 4V+ 4V+ 4V+ 4V+ 4V+ 4V+ 4V+  5T- 5T- 5T- 5T- 5T- 5T- 5T- 5T- 5T- 5T- 5T- 5T- 5T- 5T- 5T- 5T- 5T- 5T- 5T- 5T- 5T- 5T- 5T- 5T- 5T- 5T- 5T- 5T- 5T- 5T- 5T- 5T- 5T- 5T- 5T- 5T- 5T- 5T- 5T- 5T- 5T- 5T- 5T- 5T- 5T- 5T- 5T- 5T- 5T- 5T- 5T- 5T- 5T- 5T- 5T- 5T- 5T- 5T- 5T-  AR. AR. AR. AR. AR. AR. AR. AR. AR. AR. AR. AR. AR. AR. AR. AR. AR. AR. AR. AR. AR. AR. AR. AR. AR. AR. AR. AR. AR. A. AQ. AQ. AQ. AQ. AQ. AQ. AQ. AQ. AQ. AQ. AQ. AQ. AQ. AQ. AQ. AQ. AQ. AQ. AQ. AQ. AQ. AQ. AQ. AQ. AQ. AQ. AQ. AQ. AQ. A AO0 AO0 AO0 AO0 AO0 AO0 AO0 AO0 AO0 AO0 AO0 AO0 AO0 AO0 AO0 AO0 AO0 AO0 AO0 AO0 AO0 AO0 AO0 AO0 AO0 AO0 AO0 AO0 AO0 A0 AQ0 AQ0 AQ0 AQ0 AQ0 AQ0 AQ0 AQ0 AQ0 AQ0 AQ0 AQ0 AQ0 AQ0 AQ0 AQ0 AQ0 AQ0 AQ0 AQ0 AQ0 AQ0 AQ0 AQ0 AQ0 AQ0 AQ0 AQ0 AQ0  @R$ @R$ @R$ @R$ @R$ @R$ @R$ @R$ @R$ @R$ @R$ @R$ @R$ @R$ @R$ @R$ @R$ @R$ @R$ @R$ @R$ @R$ @R$ @R$ @R$ @R$ @R$ @R$ @R$ @$ @O$ @O$ @O$ @O$ @O$ @O$ @O$ @O$ @O$ @O$ @O$ @O$ @O$ @O$ @O$ @O$ @O$ @O$ @O$ @O$ @O$ @O$ @O$ @O$ @O$ @O$ @O$ @O$ @O$  AQ) AQ) AQ) AQ) AQ) AQ) AQ) AQ) AQ) AQ) AQ) AQ) AQ) AQ) AQ) AQ) AQ) AQ) AQ) AQ) AQ) AQ) AQ) AQ) AQ) AQ) AQ) AQ) AQ) Q) AQ) AQ) AQ) AQ) AQ) AQ) AQ) AQ) AQ) AQ) AQ) AQ) AQ) AQ) Q) CQ) CQ) CQ) CQ) CQ) CQ) CQ) CQ) CQ) CQ) CQ) CQ) CQ) CQ) ) EH) EH) EH) EH) EH) EH) EH) EH) EH) EH) EH) EH) EH) EH) EH) EH) EH) EH) EH) EH) EH) EH) EH) EH) EH) EH) EH) EH) EH) H) AH) AH) AH) AH) AH) AH) AH) AH) AH) AH) AH) AH) AH) AH) H) CH) CH) CH) CH) CH) CH) CH) CH) CH) CH) CH) CH) CH) CH)  EM EM EM EM EM EM EM EM EM EM EM EM EM EM EM EM EM EM EM EM EM EM EM EM EM EM EM EM EM M AM AM AM AM AM AM AM AM AM AM AM AM AM AM AM AM AM AM AM AM AM AM AM AM AM AM AM AM AM  >Q5 >Q5 >Q5 >Q5 >Q5 >Q5 >Q5 >Q5 >Q5 >Q5 >Q5 >Q5 >Q5 >Q5 >Q5 >Q5 >Q5 >Q5 >Q5 >Q5 >Q5 >Q5 >Q5 >Q5 >Q5 >Q5 >Q5 >Q5 >Q5 Q5 AQ5 AQ5 AQ5 AQ5 AQ5 AQ5 AQ5 AQ5 AQ5 AQ5 AQ5 AQ5 AQ5 AQ5 AQ5 AQ5 AQ5 AQ5 AQ5 AQ5 AQ5 AQ5 AQ5 AQ5 AQ5 AQ5 AQ5 AQ5 AQ5 Q :Q2 :Q2 :Q2 :Q2 :Q2 :Q2 :Q2 :Q2 :Q2 :Q2 :Q2 :Q2 :Q2 :Q2 :Q2 :Q2 :Q2 :Q2 :Q2 :Q2 :Q2 :Q2 :Q2 :Q2 :Q2 :Q2 :Q2 :Q2 :Q2 2 @J2 @J2 @J2 @J2 @J2 @J2 @J2 @J2 @J2 @J2 @J2 @J2 @J2 @J2 J2 AJ2 AJ2 AJ2 AJ2 AJ2 AJ2 AJ2 AJ2 AJ2 AJ2 AJ2 AJ2 AJ2 AJ2  CI. CI. CI. CI. CI. CI. CI. CI. CI. CI. CI. CI. CI. CI. CI. CI. CI. CI. CI. CI. CI. CI. CI. CI. CI. CI. CI. CI. CI. . @J. @J. @J. @J. @J. @J. @J. @J. @J. @J. @J. @J. @J. @J. J. AJ. AJ. AJ. AJ. AJ. AJ. AJ. AJ. AJ. AJ. AJ. AJ. AJ. AJ.  CO CO CO CO CO CO CO CO CO CO CO CO CO CO CO CO CO CO CO CO CO CO CO CO CO CO CO CO CO O @O @O @O @O @O @O @O @O @O @O @O @O @O @O @O @O @O @O @O @O @O @O @O @O @O @O @O @O @O O =O4 =O4 =O4 =O4 =O4 =O4 =O4 =O4 =O4 =O4 =O4 =O4 =O4 =O4 =O4 =O4 =O4 =O4 =O4 =O4 =O4 =O4 =O4 =O4 =O4 =O4 =O4 =O4 =O4 O4 @O4 @O4 @O4 @O4 @O4 @O4 @O4 @O4 @O4 @O4 @O4 @O4 @O4 @O4 @O4 @O4 @O4 @O4 @O4 @O4 @O4 @O4 @O4 @O4 @O4 @O4 @O4 @O4 @O4 O 9O1 9O1 9O1 9O1 9O1 9O1 9O1 9O1 9O1 9O1 9O1 9O1 9O1 9O1 9O1 9O1 9O1 9O1 9O1 9O1 9O1 9O1 9O1 9O1 9O1 9O1 9O1 9O1 9O1 1 >I1 >I1 >I1 >I1 >I1 >I1 >I1 >I1 >I1 >I1 >I1 >I1 >I1 >I1 I1 @I1 @I1 @I1 @I1 @I1 @I1 @I1 @I1 @I1 @I1 @I1 @I1 @I1 @I1  AG- AG- AG- AG- AG- AG- AG- AG- AG- AG- AG- AG- AG- AG- AG- AG- AG- AG- AG- AG- AG- AG- AG- AG- AG- AG- AG- AG- AG- - >I- >I- >I- >I- >I- >I- >I- >I- >I- >I- >I- >I- >I- >I- I- @I- @I- @I- @I- @I- @I- @I- @I- @I- @I- @I- @I- @I- @I-  AM AM AM AM AM AM AM AM AM AM AM AM AM AM AM AM AM AM AM AM AM AM AM AM AM AM AM AM AM M >M >M >M >M >M >M >M >M >M >M >M >M >M >M >M >M >M >M >M >M >M >M >M >M >M >M >M >M >M M :M2 :M2 :M2 :M2 :M2 :M2 :M2 :M2 :M2 :M2 :M2 :M2 :M2 :M2 :M2 :M2 :M2 :M2 :M2 :M2 :M2 :M2 :M2 :M2 :M2 :M2 :M2 :M2 :M2 M2 >M2 >M2 >M2 >M2 >M2 >M2 >M2 >M2 >M2 >M2 >M2 >M2 >M2 >M2 >M2 >M2 >M2 >M2 >M2 >M2 >M2 >M2 >M2 >M2 >M2 >M2 >M2 >M2 >M2 M 7M. 7M. 7M. 7M. 7M. 7M. 7M. 7M. 7M. 7M. 7M. 7M. 7M. 7M. 7M. 7M. 7M. 7M. 7M. 7M. 7M. 7M. 7M. 7M. 7M. 7M. 7M. 7M. 7M. M. =M. =M. =M. =M. =M. =M. =M. =M. =M. =M. =M. =M. =M. =M. M. >M. >M. >M. >M. >M. >M. >M. >M. >M. >M. >M. >M. >M. >M.  @O+ @O+ @O+ @O+ @O+ @O+ @O+ @O+ @O+ @O+ @O+ @O+ @O+ @O+ @O+ @O+ @O+ @O+ @O+ @O+ @O+ @O+ @O+ @O+ @O+ @O+ @O+ @O+ @O+ + =M+ =M+ =M+ =M+ =M+ =M+ =M+ =M+ =M+ =M+ =M+ =M+ =M+ =M+ M+ >M+ >M+ >M+ >M+ >M+ >M+ >M+ >M+ >M+ >M+ >M+ >M+ >M+ >M+  @L% @L% @L% @L% @L% @L% @L% @L% @L% @L% @L% @L% @L% @L% @L% @L% @L% @L% @L% @L% @L% @L% @L% @L% @L% @L% @L% @L% @L% L% =L% =L% =L% =L% =L% =L% =L% =L% =L% =L% =L% =L% =L% =L% =L% =L% =L% =L% =L% =L% =L% =L% =L% =L% =L% =L% =L% =L% =L% L 9L- 9L- 9L- 9L- 9L- 9L- 9L- 9L- 9L- 9L- 9L- 9L- 9L- 9L- 9L- 9L- 9L- 9L- 9L- 9L- 9L- 9L- 9L- 9L- 9L- 9L- 9L- 9L- 9L- L- =L- =L- =L- =L- =L- =L- =L- =L- =L- =L- =L- =L- =L- =L- =L- =L- =L- =L- =L- =L- =L- =L- =L- =L- =L- =L- =L- =L- =L- L 5L2 5L2 5L2 5L2 5L2 5L2 5L2 5L2 5L2 5L2 5L2 5L2 5L2 5L2 5L2 5L2 5L2 5L2 5L2 5L2 5L2 5L2 5L2 5L2 5L2 5L2 5L2 5L2 5L2 52 5J2 5J2 5J2 5J2 5J2 5J2 5J2 5J2 5J2 5J2 5J2 5J2 5J2 5J2 52 5L2 5L2 5L2 5L2 5L2 5L2 5L2 5L2 5L2 5L2 5L2 5L2 5L2 5L2  9M& 9M& 9M& 9M& 9M& 9M& 9M& 9M& 9M& 9M& 9M& 9M& 9M& 9M& 9M& 9M& 9M& 9M& 9M& 9M& 9M& 9M& 9M& 9M& 9M& 9M& 9M& 9M& 9M& 9& 9J& 9J& 9J& 9J& 9J& 9J& 9J& 9J& 9J& 9J& 9J& 9J& 9J& 9J& 9& 9L& 9L& 9L& 9L& 9L& 9L& 9L& 9L& 9L& 9L& 9L& 9L& 9L& 9L&  >M >M >M >M >M >M >M >M >M >M >M >M >M >M >M >M >M >M >M >M >M >M >M >M >M >M >M >M >M > >J >J >J >J >J >J >J >J >J >J >J >J >J >J >J >J >J >J >J >J >J >J >J >J >J >J >J >J >J > >E2 >E2 >E2 >E2 >E2 >E2 >E2 >E2 >E2 >E2 >E2 >E2 >E2 >E2 >E2 >E2 >E2 >E2 >E2 >E2 >E2 >E2 >E2 >E2 >E2 >E2 >E2 >E2 >E2 >2 >J2 >J2 >J2 >J2 >J2 >J2 >J2 >J2 >J2 >J2 >J2 >J2 >J2 >J2 >J2 >J2 >J2 >J2 >J2 >J2 >J2 >J2 >J2 >J2 >J2 >J2 >J2 >J2 >J2 > >F7 >F7 >F7 >F7 >F7 >F7 >F7 >F7 >F7 >F7 >F7 >F7 >F7 >F7 >F7 >F7 >F7 >F7 >F7 >F7 >F7 >F7 >F7 >F7 >F7 >F7 >F7 >F7 >F7 7 @L7 @L7 @L7 @L7 @L7 @L7 @L7 @L7 @L7 @L7 @L7 @L7 @L7 @L7 7 >M7 >M7 >M7 >M7 >M7 >M7 >M7 >M7 >M7 >M7 >M7 >M7 >M7 >M7  =O: =O: =O: =O: =O: =O: =O: =O: =O: =O: =O: =O: =O: =O: =O: =O: =O: =O: =O: =O: =O: =O: =O: =O: =O: =O: =O: =O: =O: : >L: >L: >L: >L: >L: >L: >L: >L: >L: >L: >L: >L: >L: >L: >: >M: >M: >M: >M: >M: >M: >M: >M: >M: >M: >M: >M: >M: >M:  @O4 @O4 @O4 @O4 @O4 @O4 @O4 @O4 @O4 @O4 @O4 @O4 @O4 @O4 @O4 @O4 @O4 @O4 @O4 @O4 @O4 @O4 @O4 @O4 @O4 @O4 @O4 @O4 @O4 @4 @L4 @L4 @L4 @L4 @L4 @L4 @L4 @L4 @L4 @L4 @L4 @L4 @L4 @L4 @L4 @L4 @L4 @L4 @L4 @L4 @L4 @L4 @L4 @L4 @L4 @L4 @L4 @L4 @L4 @ @G7 @G7 @G7 @G7 @G7 @G7 @G7 @G7 @G7 @G7 @G7 @G7 @G7 @G7 @G7 @G7 @G7 @G7 @G7 @G7 @G7 @G7 @G7 @G7 @G7 @G7 @G7 @G7 @G7 @7 @J7 @J7 @J7 @J7 @J7 @J7 @J7 @J7 @J7 @J7 @J7 @J7 @J7 @J7 @J7 @J7 @J7 @J7 @J7 @J7 @J7 @J7 @J7 @J7 @J7 @J7 @J7 @J7 @J7 @ @I9 @I9 @I9 @I9 @I9 @I9 @I9 @I9 @I9 @I9 @I9 @I9 @I9 @I9 @I9 @I9 @I9 @I9 @I9 @I9 @I9 @I9 @I9 @I9 @I9 @I9 @I9 @I9 @I9 9 AM9 AM9 AM9 AM9 AM9 AM9 AM9 AM9 AM9 AM9 AM9 AM9 AM9 AM9 9 @O9 @O9 @O9 @O9 @O9 @O9 @O9 @O9 @O9 @O9 @O9 @O9 @O9 @O9  >Q= >Q= >Q= >Q= >Q= >Q= >Q= >Q= >Q= >Q= >Q= >Q= >Q= >Q= >Q= >Q= >Q= >Q= >Q= >Q= >Q= >Q= >Q= >Q= >Q= >Q= >Q= >Q= >Q= = @M= @M= @M= @M= @M= @M= @M= @M= @M= @M= @M= @M= @M= @M= @= @O= @O= @O= @O= @O= @O= @O= @O= @O= @O= @O= @O= @O= @O=  AQ5 AQ5 AQ5 AQ5 AQ5 AQ5 AQ5 AQ5 AQ5 AQ5 AQ5 AQ5 AQ5 AQ5 AQ5 AQ5 AQ5 AQ5 AQ5 AQ5 AQ5 AQ5 AQ5 AQ5 AQ5 AQ5 AQ5 AQ5 AQ5 A5 AM5 AM5 AM5 AM5 AM5 AM5 AM5 AM5 AM5 AM5 AM5 AM5 AM5 AM5 AM5 AM5 AM5 AM5 AM5 AM5 AM5 AM5 AM5 AM5 AM5 AM5 AM5 AM5 AM5 A AI9 AI9 AI9 AI9 AI9 AI9 AI9 AI9 AI9 AI9 AI9 AI9 AI9 AI9 AI9 AI9 AI9 AI9 AI9 AI9 AI9 AI9 AI9 AI9 AI9 AI9 AI9 AI9 AI9 A9 AL9 AL9 AL9 AL9 AL9 AL9 AL9 AL9 AL9 AL9 AL9 AL9 AL9 AL9 AL9 AL9 AL9 AL9 AL9 AL9 AL9 AL9 AL9 AL9 AL9 AL9 AL9 AL9 AL9 A AJ: AJ: AJ: AJ: AJ: AJ: AJ: AJ: AJ: AJ: AJ: AJ: AJ: AJ: AJ: AJ: AJ: AJ: AJ: AJ: AJ: AJ: AJ: AJ: AJ: AJ: AJ: AJ: AJ: : CO: CO: CO: CO: CO: CO: CO: CO: CO: CO: CO: CO: CO: CO: : AQ: AQ: AQ: AQ: AQ: AQ: AQ: AQ: AQ: AQ: AQ: AQ: AQ: AQ:  @R> @R> @R> @R> @R> @R> @R> @R> @R> @R> @R> @R> @R> @R> @R> @R> @R> @R> @R> @R> @R> @R> @R> @R> @R> @R> @R> @R> @R> > AO> AO> AO> AO> AO> AO> AO> AO> AO> AO> AO> AO> AO> AO> A> AQ> AQ> AQ> AQ> AQ> AQ> AQ> AQ> AQ> AQ> AQ> AQ> AQ> AQ>  CR7 CR7 CR7 CR7 CR7 CR7 CR7 CR7 CR7 CR7 CR7 CR7 CR7 CR7 CR7 CR7 CR7 CR7 CR7 CR7 CR7 CR7 CR7 CR7 CR7 CR7 CR7 CR7 CR7 C7 CO7 CO7 CO7 CO7 CO7 CO7 CO7 CO7 CO7 CO7 CO7 CO7 CO7 CO7 CO7 CO7 CO7 CO7 CO7 CO7 CO7 CO7 CO7 CO7 CO7 CO7 CO7 CO7 CO7 C CJ: CJ: CJ: CJ: CJ: CJ: CJ: CJ: CJ: CJ: CJ: CJ: CJ: CJ: CJ: CJ: CJ: CJ: CJ: CJ: CJ: CJ: CJ: CJ: CJ: CJ: CJ: CJ: CJ: C: CM: CM: CM: CM: CM: CM: CM: CM: CM: CM: CM: CM: CM: CM: CM: CM: CM: CM: CM: CM: CM: CM: CM: CM: CM: CM: CM: CM: CM: C CL1 CL1 CL1 CL1 CL1 CL1 CL1 CL1 CL1 CL1 CL1 CL1 CL1 CL1 CL1 CL1 CL1 CL1 CL1 CL1 CL1 CL1 CL1 CL1 CL1 CL1 CL1 CL1 CL1 1 @I1 @I1 @I1 @I1 @I1 @I1 @I1 @I1 @I1 @I1 @I1 @I1 @I1 @I1 1 AJ1 AJ1 AJ1 AJ1 AJ1 AJ1 AJ1 AJ1 AJ1 AJ1 AJ1 AJ1 AJ1 AJ1 1 CL1 CL1 CL1 CL1 CL1 CL1 CL1 CL1 CL1 CL1 CL1 CL1 CL1 CL1 CL1 CL1 CL1 CL1 CL1 CL1 CL1 CL1 CL1 CL1 CL1 CL1 CL1 CL1 CL1 1 @I1 @I1 @I1 @I1 @I1 @I1 @I1 @I1 @I1 @I1 @I1 @I1 @I1 @I1 1 AJ1 AJ1 AJ1 AJ1 AJ1 AJ1 AJ1 AJ1 AJ1 AJ1 AJ1 AJ1 AJ1 AJ1  CL CL CL CL CL CL CL CL CL CL CL CL CL CL CL CL CL CL CL CL CL CL CL CL CL CL CL CL CL  @I @I @I @I @I @I @I @I @I @I @I @I @I @I @I @I @I @I @I @I @I @I @I @I @I @I @I @I @I  EE7 EE7 EE7 EE7 EE7 EE7 EE7 EE7 EE7 EE7 EE7 EE7 EE7 EE7 EE7 EE7 EE7 EE7 EE7 EE7 EE7 EE7 EE7 EE7 EE7 EE7 EE7 EE7 EE7 E7 EI7 EI7 EI7 EI7 EI7 EI7 EI7 EI7 EI7 EI7 EI7 EI7 EI7 EI7 EI7 EI7 EI7 EI7 EI7 EI7 EI7 EI7 EI7 EI7 EI7 EI7 EI7 EI7 EI7 E EJ5 EJ5 EJ5 EJ5 EJ5 EJ5 EJ5 EJ5 EJ5 EJ5 EJ5 EJ5 EJ5 EJ5 EJ5 EJ5 EJ5 EJ5 EJ5 EJ5 EJ5 EJ5 EJ5 EJ5 EJ5 EJ5 EJ5 EJ5 EJ5 E EI4 EI4 EI4 EI4 EI4 EI4 EI4 EI4 EI4 EI4 EI4 EI4 EI4 EI4 EI4 EI4 EI4 EI4 EI4 EI4 EI4 EI4 EI4 EI4 EI4 EI4 EI4 EI4 EI4 E EJ5 EJ5 EJ5 EJ5 EJ5 EJ5 EJ5 EJ5 EJ5 EJ5 EJ5 EJ5 EJ5 EJ5 EJ5 EJ5 EJ5 EJ5 EJ5 EJ5 EJ5 EJ5 EJ5 EJ5 EJ5 EJ5 EJ5 EJ5 EJ5  FR7 FR7 FR7 FR7 FR7 FR7 FR7 FR7 FR7 FR7 FR7 FR7 FR7 FR7 FR7 FR7 FR7 FR7 FR7 FR7 FR7 FR7 FR7 FR7 FR7 FR7 FR7 FR7 FR7  AI9 AI9 AI9 AI9 AI9 AI9 AI9 AI9 AI9 AI9 AI9 AI9 AI9 AI9 AI9 @I9 @I9 @I9 @I9 @I9 @I9 @I9 @I9 @I9 @I9 @I9 @I9 @I9 @I9 @I9 AI9 AI9 AI9 AI9 AI9 AI9 AI9 AI9 AI9 AI9 AI9 AI9 AI9 AI9 AI9 @I9 @I9 @I9 @I9 @I9 @I9 @I9 @I9 @I9 @I9 @I9 @I9 @I9 @I9 @I AI- AI- AI- AI- AI- AI- AI- AI- AI- AI- AI- AI- AI- AI- AI- @I- @I- @I- @I- @I- @I- @I- @I- @I- @I- @I- @I- @I- @I- @- >J- >J- >J- >J- >J- >J- >J- >J- >J- >J- >J- >J- >J- >J- >J- >J- >J- >J- >J- >J- >J- >J- >J- >J- >J- >J- >J- >J- >J-  >J2 >J2 >J2 >J2 >J2 >J2 >J2 >J2 >J2 >J2 >J2 >J2 >J2 >J2 >J2 >J2 >J2 >J2 >J2 >J2 >J2 >J2 >J2 >J2 >J2 >J2 >J2 >J2 >J2 >J2 >J2 >J2 >J2 >J2 >J2 >J2 >J2 >J2 >J2 >J2 >J2 >J2 >J2 >J2 >J2 >J2 >J2 >J2 >J2 >J2 >J2 >J2 >J2 >J2 >J2 >J2 >J2 >J2 >J2  >J- >J- >J- >J- >J- >J- >J- >J- >J- >J- >J- >J- >J- >J- >J- >J- >J- >J- >J- >J- >J- >J- >J- >J- >J- >J- >J- >J- >J- - =I- =I- =I- =I- =I- =I- =I- =I- =I- =I- =I- =I- =I- =I- =I- =I- =I- =I- =I- =I- =I- =I- =I- =I- =I- =I- =I- =I- =I-  >J& >J& >J& >J& >J& >J& >J& >J& >J& >J& >J& >J& >J& >J& >J& >J& >J& >J& >J& >J& >J& >J& >J& >J& >J& >J& >J& >J& >J& >J& >J& >J& >J& >J& >J& >J& >J& >J& >J& >J& >J& >J& >J& >J& >J& >J& >J& >J& >J& >J& >J& >J& >J& >J& >J& >J& >J& >J& >J&  9E2 9E2 9E2 9E2 9E2 9E2 9E2 9E2 9E2 9E2 9E2 9E2 9E2 9E2 9E2 9E2 9E2 9E2 9E2 9E2 9E2 9E2 9E2 9E2 9E2 9E2 9E2 9E2 9E2  7C4 7C4 7C4 7C4 7C4 7C4 7C4 7C4 7C4 7C4 7C4 7C4 7C4 7C4 7C4 7C4 7C4 7C4 7C4 7C4 7C4 7C4 7C4 7C4 7C4 7C4 7C4 7C4 7C4  9E5 9E5 9E5 9E5 9E5 9E5 9E5 9E5 9E5 9E5 9E5 9E5 9E5 9E5 9E5 9E5 9E5 9E5 9E5 9E5 9E5 9E5 9E5 9E5 9E5 9E5 9E5 9E5 9E5 9E5 9E5 9E5 9E5 9E5 9E5 9E5 9E5 9E5 9E5 9E5 9E5 9E5 9E5 9E5 9E5 9E5 9E5 9E5 9E5 9E5 9E5 9E5 9E5 9E5 9E5 9E5 9E5 9E5 9E5  5A2 5A2 5A2 5A2 5A2 5A2 5A2 5A2 5A2 5A2 5A2 5A2 5A2 5A2 5A2 5A2 5A2 5A2 5A2 5A2 5A2 5A2 5A2 5A2 5A2 5A2 5A2 5A2 5A2 2 4@2 4@2 4@2 4@2 4@2 4@2 4@2 4@2 4@2 4@2 4@2 4@2 4@2 4@2 4@2 4@2 4@2 4@2 4@2 4@2 4@2 4@2 4@2 4@2 4@2 4@2 4@2 4@2 4@2  5A& 5A& 5A& 5A& 5A& 5A& 5A& 5A& 5A& 5A& 5A& 5A& 5A& 5A& 5A& 5A& 5A& 5A& 5A& 5A& 5A& 5A& 5A& 5A& 5A& 5A& 5A& 5A& 5A& 5A& 5A& 5A& 5A& 5A& 5A& 5A& 5A& 5A& 5A& 5A& 5A& 5A& 5A& 5A& 5A& 5A& 5A& 5A& 5A& 5A& 5A& 5A& 5A& 5A& 5A& 5A& 5A& 5A& 5A&  2>2 2>2 2>2 2>2 2>2 2>2 2>2 2>2 2>2 2>2 2>2 2>2 2>2 2>2 2>2 2>2 2>2 2>2 2>2 2>2 2>2 2>2 2>2 2>2 2>2 2>2 2>2 2>2 2>2  1=4 1=4 1=4 1=4 1=4 1=4 1=4 1=4 1=4 1=4 1=4 1=4 1=4 1=4 1=4 1=4 1=4 1=4 1=4 1=4 1=4 1=4 1=4 1=4 1=4 1=4 1=4 1=4 1=4  2>5 2>5 2>5 2>5 2>5 2>5 2>5 2>5 2>5 2>5 2>5 2>5 2>5 2>5 2>5 2>5 2>5 2>5 2>5 2>5 2>5 2>5 2>5 2>5 2>5 2>5 2>5 2>5 2>5 2> 2>7 2>7 2>7 2>7 2>7 2>7 2>7 2>7 2>7 2>7 2>7 2>7 2>7 2>7 2>7 2>7 2>7 2>7 2>7 2>7 2>7 2>7 2>7 2>7 2>7 2>7 2>7 2>7 2>7  5A9 5A9 5A9 5A9 5A9 5A9 5A9 5A9 5A9 5A9 5A9 5A9 5A9 5A9 5A9 5A9 5A9 5A9 5A9 5A9 5A9 5A9 5A9 5A9 5A9 5A9 5A9 5A9 5A9 5A 5A7 5A7 5A7 5A7 5A7 5A7 5A7 5A7 5A7 5A7 5A7 5A7 5A7 5A7 5A7 5A7 5A7 5A7 5A7 5A7 5A7 5A7 5A7 5A7 5A7 5A7 5A7 5A7 5A7  9E5 9E5 9E5 9E5 9E5 9E5 9E5 9E5 9E5 9E5 9E5 9E5 9E5 9E5 9E5 9E5 9E5 9E5 9E5 9E5 9E5 9E5 9E5 9E5 9E5 9E5 9E5 9E5 9E5 9E 9E4 9E4 9E4 9E4 9E4 9E4 9E4 9E4 9E4 9E4 9E4 9E4 9E4 9E4 9E4 9E4 9E4 9E4 9E4 9E4 9E4 9E4 9E4 9E4 9E4 9E4 9E4 9E4 9E4  >J5 >J5 >J5 >J5 >J5 >J5 >J5 >J5 >J5 >J5 >J5 >J5 >J5 >J5 >J5 >J5 >J5 >J5 >J5 >J5 >J5 >J5 >J5 >J5 >J5 >J5 >J5 >J5 >J5 >J >J2 >J2 >J2 >J2 >J2 >J2 >J2 >J2 >J2 >J2 >J2 >J2 >J2 >J2 >J2 >J2 >J2 >J2 >J2 >J2 >J2 >J2 >J2 >J2 >J2 >J2 >J2 >J2 >J2  @L1 @L1 @L1 @L1 @L1 @L1 @L1 @L1 @L1 @L1 @L1 @L1 @L1 @L1 @L1 @L1 @L1 @L1 @L1 @L1 @L1 @L1 @L1 @L1 @L1 @L1 @L1 @L1 @L1  >J2 >J2 >J2 >J2 >J2 >J2 >J2 >J2 >J2 >J2 >J2 >J2 >J2 >J2 >J2 >J2 >J2 >J2 >J2 >J2 >J2 >J2 >J2 >J2 >J2 >J2 >J2 >J2 >J2  =I4 =I4 =I4 =I4 =I4 =I4 =I4 =I4 =I4 =I4 =I4 =I4 =I4 =I4 =I4 =I4 =I4 =I4 =I4 =I4 =I4 =I4 =I4 =I4 =I4 =I4 =I4 =I4 =I4  ;G2 ;G2 ;G2 ;G2 ;G2 ;G2 ;G2 ;G2 ;G2 ;G2 ;G2 ;G2 ;G2 ;G2 ;G2 ;G2 ;G2 ;G2 ;G2 ;G2 ;G2 ;G2 ;G2 ;G2 ;G2 ;G2 ;G2 ;G2 ;G2  9E1 9E1 9E1 9E1 9E1 9E1 9E1 9E1 9E1 9E1 9E1 9E1 9E1 9E1 9E1 9E1 9E1 9E1 9E1 9E1 9E1 9E1 9E1 9E1 9E1 9E1 9E1 9E1 9E1 9E 9E/ 9E/ 9E/ 9E/ 9E/ 9E/ 9E/ 9E/ 9E/ 9E/ 9E/ 9E/ 9E/ 9E/ 9E/ 9E/ 9E/ 9E/ 9E/ 9E/ 9E/ 9E/ 9E/ 9E/ 9E/ 9E/ 9E/ 9E/ 9E/  ?Q- ?Q- ?Q- ?Q- ?Q- ?Q- ?Q- ?Q- ?Q- ?Q- ?Q- ?Q- ?Q- ?Q- ?Q- ?Q- ?Q- ?Q- ?Q- ?Q- ?Q- ?Q- ?Q- ?Q- ?Q- ?Q- ?Q- ?Q- ?Q- Q >Q+ >Q+ >Q+ >Q+ >Q+ >Q+ >Q+ >Q+ >Q+ >Q+ >Q+ >Q+ >Q+ >Q+ >Q+ >Q+ >Q+ >Q+ >Q+ >Q+ >Q+ >Q+ >Q+ >Q+ >Q+ >Q+ >Q+ >Q+ >Q+  ?Q* ?Q* ?Q* ?Q* ?Q* ?Q* ?Q* ?Q* ?Q* ?Q* ?Q* ?Q* ?Q* ?Q* ?Q* ?Q* ?Q* ?Q* ?Q* ?* ?R* ?R* ?R* ?R* ?R* ?R* ?R* ?R* ?R* ?R* ?R* ?R* ?R* ?R* ?R* ?R* ?R* ?R* ?R* ?* ?Q* ?Q* ?Q* ?Q* ?Q* ?Q* ?Q* ?Q* ?Q* ?Q* ?Q* ?Q* ?Q* ?Q* ?Q* ?Q* ?Q* ?Q* ?Q*  <R3 <R3 <R3 <R3 <R3 <R3 <R3 <R3 <R3 <R3 <R3 <R3 <R3 <R3 <3 <Q3 <Q3 <Q3 <Q3 <Q3 <Q3 <Q3 <Q3 <Q3 <Q3 <Q3 <Q3 <Q3 <Q3  :R2 :R2 :R2 :R2 :R2 :R2 :R2 :R2 :R2 :R2 :R2 :R2 :R2 :R2 :2 :Q2 :Q2 :Q2 :Q2 :Q2 :Q2 :Q2 :Q2 :Q2 :Q2 :Q2 :Q2 :Q2 :Q2  <R3 <R3 <R3 <R3 <R3 <R3 <R3 <R3 <R3 <R3 <R3 <R3 <R3 <R3 <3 <Q3 <Q3 <Q3 <Q3 <Q3 <Q3 <Q3 <Q3 <Q3 <Q3 <Q3 <Q3 <Q3 <Q3 < <R0 <R0 <R0 <R0 <R0 <R0 <R0 <R0 <R0 <R0 <R0 <R0 <R0 <R0 <0 <Q0 <Q0 <Q0 <Q0 <Q0 <Q0 <Q0 <Q0 <Q0 <Q0 <Q0 <Q0 <Q0 <Q0  9R6 9R6 9R6 9R6 9R6 9R6 9R6 9R6 9R6 9R6 9R6 9R6 9R6 9R6 96 9Q6 9Q6 9Q6 9Q6 9Q6 9Q6 9Q6 9Q6 9Q6 9Q6 9Q6 9Q6 9Q6 9Q6  7R4 7R4 7R4 7R4 7R4 7R4 7R4 7R4 7R4 7R4 7R4 7R4 7R4 7R4 74 7Q4 7Q4 7Q4 7Q4 7Q4 7Q4 7Q4 7Q4 7Q4 7Q4 7Q4 7Q4 7Q4 7Q4  9R6 9R6 9R6 9R6 9R6 9R6 9R6 9R6 9R6 9R6 9R6 9R6 9R6 9R6 96 9Q6 9Q6 9Q6 9Q6 9Q6 9Q6 9Q6 9Q6 9Q6 9Q6 9Q6 9Q6 9Q6 9Q6 9 9R2 9R2 9R2 9R2 9R2 9R2 9R2 9R2 9R2 9R2 9R2 9R2 9R2 9R2 92 9Q2 9Q2 9Q2 9Q2 9Q2 9Q2 9Q2 9Q2 9Q2 9Q2 9Q2 9Q2 9Q2 9Q2  6R9 6R9 6R9 6R9 6R9 6R9 6R9 6R9 6R9 6R9 6R9 6R9 6R9 6R9 69 6Q9 6Q9 6Q9 6Q9 6Q9 6Q9 6Q9 6Q9 6Q9 6Q9 6Q9 6Q9 6Q9 6Q9  4R7 4R7 4R7 4R7 4R7 4R7 4R7 4R7 4R7 4R7 4R7 4R7 4R7 4R7 47 4Q7 4Q7 4Q7 4Q7 4Q7 4Q7 4Q7 4Q7 4Q7 4Q7 4Q7 4Q7 4Q7 4Q7  6R9 6R9 6R9 6R9 6R9 6R9 6R9 6R9 6R9 6R9 6R9 6R9 6R9 6R9 69 6Q9 6Q9 6Q9 6Q9 6Q9 6Q9 6Q9 6Q9 6Q9 6Q9 6Q9 6Q9 6Q9 6Q9 6 6R6 6R6 6R6 6R6 6R6 6R6 6R6 6R6 6R6 6R6 6R6 6R6 6R6 6R6 66 6Q6 6Q6 6Q6 6Q6 6Q6 6Q6 6Q6 6Q6 6Q6 6Q6 6Q6 6Q6 6Q6 6Q6  2R9 2R9 2R9 2R9 2R9 2R9 2R9 2R9 2R9 2R9 2R9 2R9 2R9 2R9 29 2Q9 2Q9 2Q9 2Q9 2Q9 2Q9 2Q9 2Q9 2Q9 2Q9 2Q9 2Q9 2Q9 2Q9  0R< 0R< 0R< 0R< 0R< 0R< 0R< 0R< 0R< 0R< 0R< 0R< 0R< 0R< 0< 0Q< 0Q< 0Q< 0Q< 0Q< 0Q< 0Q< 0Q< 0Q< 0Q< 0Q< 0Q< 0Q< 0Q<  2R6 2R6 2R6 2R6 2R6 2R6 2R6 2R6 2R6 2R6 2R6 2R6 2R6 2R6 26 2Q6 2Q6 2Q6 2Q6 2Q6 2Q6 2Q6 2Q6 2Q6 2Q6 2Q6 2Q6 2Q6 2Q6 26 2O6 2O6 2O6 2O6 2O6 2O6 2O6 2O6 2O6 2O6 2O6 2O6 2O6 2O6 26 2Q6 2Q6 2Q6 2Q6 2Q6 2Q6 2Q6 2Q6 2Q6 2Q6 2Q6 2Q6 2Q6 2Q6  6J9 6J9 6J9 6J9 6J9 6J9 6J9 6J9 6J9 6J9 6J9 6J9 6J9 6J9 6J9 6J9 6J9 6J9 6J9 6J9 6J9 6J9 6J9 6J9 6J9 6J9 6J9 6J9 6J9 69 6L9 6L9 6L9 6L9 6L9 6L9 6L9 6L9 6L9 6L9 6L9 6L9 6L9 6L9 6L9 6L9 6L9 6L9 6L9 6L9 6L9 6L9 6L9 6L9 6L9 6L9 6L9 6L9 6L9  9N> 9N> 9N> 9N> 9N> 9N> 9N> 9N> 9N> 9N> 9N> 9N> 9N> 9N> 9N> 9N> 9N> 9N> 9N> 9N> 9N> 9N> 9N> 9N> 9N> 9N> 9N> 9N> 9N> 9> 9O> 9O> 9O> 9O> 9O> 9O> 9O> 9O> 9O> 9O> 9O> 9O> 9O> 9O> 9O> 9O> 9O> 9O> 9O> 9O> 9O> 9O> 9O> 9O> 9O> 9O> 9O> 9O> 9O>  >Q2 >Q2 >Q2 >Q2 >Q2 >Q2 >Q2 >Q2 >Q2 >Q2 >Q2 >Q2 >Q2 >Q2 >Q2 >Q2 >Q2 >Q2 >Q2 >Q2 >Q2 >Q2 >Q2 >Q2 >Q2 >Q2 >Q2 >Q2 >Q2 >2 >N2 >N2 >N2 >N2 >N2 >N2 >N2 >N2 >N2 >N2 >N2 >N2 >N2 >N2 >N2 >N2 >N2 >N2 >N2 >N2 >N2 >N2 >N2 >N2 >N2 >N2 >N2 >N2 >N2  >O+ >O+ >O+ >O+ >O+ >O+ >O+ >O+ >O+ >O+ >O+ >O+ >O+ >O+ >+ >Q+ >Q+ >Q+ >Q+ >Q+ >Q+ >Q+ >Q+ >Q+ >Q+ >Q+ >Q+ >Q+ >Q+ + <O+ <O+ <O+ <O+ <O+ <O+ <O+ <O+ <O+ <O+ <O+ <O+ <O+ <O+ <O+ <O+ <O+ <O+ <O+ <O+ <O+ <O+ <O+ <O+ <O+ <O+ <O+ <O+ <O+ O :O- :O- :O- :O- :O- :O- :O- :O- :O- :O- :O- :O- :O- :O- :O- :O- :O- :O- :O- :O- :O- :O- :O- :O- :O- :O- :O- :O- :O- O- <O- <O- <O- <O- <O- <O- <O- <O- <O- <O- <O- <O- <O- <O- <O- <O- <O- <O- <O- <O- <O- <O- <O- <O- <O- <O- <O- <O- <O-  7. 7. 7. 7. 7. 7. 7. 7. 7. 7. 7. 7. 7. 7. 7. 7. 7. 7. 7. 7. 7. 7. 7. 7. 7. 7. 7. 7. 7. 7. 7. 7. 7. 7. 7. 7. 7. 7. 7. 7. 7. 7. 7. 7. 7. 7. 7. 7. 7. 7. 7. 7. 7. 7. 7. 7. 7. 7. 7.  JP0 JP0 JP0 JP0 JP0 JP0 JP0 JP0 JP0 JP0 JP0 JP0 JP0 JP0 JP0 JP0 JP0 JP0 JP0 JP0 JP0 JP0 JP0 JP0 JP0 JP0 JP0 JP0 JP0 J0 JO0 JO0 JO0 JO0 JO0 JO0 JO0 JO0 JO0 JO0 JO0 JO0 JO0 JO0 JO0 JO0 JO0 JO0 JO0 JO0 JO0 JO0 JO0 JO0 JO0 JO0 JO0 JO0 JO0  JP/ JP/ JP/ JP/ JP/ JP/ JP/ JP/ JP/ JP/ JP/ JP/ JP/ JP/ JP/ JP/ JP/ JP/ JP/ JP/ JP/ JP/ JP/ JP/ JP/ JP/ JP/ JP/ JP/ JP/ JP/ JP/ JP/ JP/ JP/ JP/ JP/ JP/ JP/ JP/ JP/ JP/ JP/ JP/ JP/ JP/ JP/ JP/ JP/ JP/ JP/ JP/ JP/ JP/ JP/ JP/ JP/ JP/ JP/ J JM8 JM8 JM8 JM8 JM8 JM8 JM8 JM8 JM8 JM8 JM8 JM8 JM8 JM8 JM8 JM8 JM8 JM8 JM8 JM8 JM8 JM8 JM8 JM8 JM8 JM8 JM8 JM8 JM8 J JK7 JK7 JK7 JK7 JK7 JK7 JK7 JK7 JK7 JK7 JK7 JK7 JK7 JK7 JK7 JK7 JK7 JK7 JK7 JK7 JK7 JK7 JK7 JK7 JK7 JK7 JK7 JK7 JK7 J JM8 JM8 JM8 JM8 JM8 JM8 JM8 JM8 JM8 JM8 JM8 JM8 JM8 JM8 JM8 JM8 JM8 JM8 JM8 JM8 JM8 JM8 JM8 JM8 JM8 JM8 JM8 JM8 JM8 JM JM5 JM5 JM5 JM5 JM5 JM5 JM5 JM5 JM5 JM5 JM5 JM5 JM5 JM5 JM5 JM5 JM5 JM5 JM5 JM5 JM5 JM5 JM5 JM5 JM5 JM5 JM5 JM5 JM5 J JJ; JJ; JJ; JJ; JJ; JJ; JJ; JJ; JJ; JJ; JJ; JJ; JJ; JJ; JJ; JJ; JJ; JJ; JJ; JJ; JJ; JJ; JJ; JJ; JJ; JJ; JJ; JJ; JJ; J JH9 JH9 JH9 JH9 JH9 JH9 JH9 JH9 JH9 JH9 JH9 JH9 JH9 JH9 JH9 JH9 JH9 JH9 JH9 JH9 JH9 JH9 JH9 JH9 JH9 JH9 JH9 JH9 JH9 J JJ; JJ; JJ; JJ; JJ; JJ; JJ; JJ; JJ; JJ; JJ; JJ; JJ; JJ; JJ; JJ; JJ; JJ; JJ; JJ; JJ; JJ; JJ; JJ; JJ; JJ; JJ; JJ; JJ; JJ JJ7 JJ7 JJ7 JJ7 JJ7 JJ7 JJ7 JJ7 JJ7 JJ7 JJ7 JJ7 JJ7 JJ7 JJ7 JJ7 JJ7 JJ7 JJ7 JJ7 JJ7 JJ7 JJ7 JJ7 JJ7 JJ7 JJ7 JJ7 JJ7 J JG> JG> JG> JG> JG> JG> JG> JG> JG> JG> JG> JG> JG> JG> JG> JG> JG> JG> JG> JG> JG> JG> JG> JG> JG> JG> JG> JG> JG> J JE< JE< JE< JE< JE< JE< JE< JE< JE< JE< JE< JE< JE< JE< JE< JE< JE< JE< JE< JE< JE< JE< JE< JE< JE< JE< JE< JE< JE< J JG> JG> JG> JG> JG> JG> JG> JG> JG> JG> JG> JG> JG> JG> JG> JG> JG> JG> JG> JG> JG> JG> JG> JG> JG> JG> JG> JG> JG> JG JG; JG; JG; JG; JG; JG; JG; JG; JG; JG; JG; JG; JG; JG; JG; JG; JG; JG; JG; JG; JG; JG; JG; JG; JG; JG; JG; JG; JG; J JC> JC> JC> JC> JC> JC> JC> JC> JC> JC> JC> JC> JC> JC> JC> JC> JC> JC> JC> JC> JC> JC> JC> JC> JC> JC> JC> JC> JC> J JAA JAA JAA JAA JAA JAA JAA JAA JAA JAA JAA JAA JAA JAA JAA JAA JAA JAA JAA JAA JAA JAA JAA JAA JAA JAA JAA JAA JAA J JC; JC; JC; JC; JC; JC; JC; JC; JC; JC; JC; JC; JC; JC; JC; JC; JC; JC; JC; JC; JC; JC; JC; JC; JC; JC; JC; JC; JC; JC; JC; JC; JC; JC; JC; JC; JC; JC; JC; JC; JC; JC; JC; JC; JC; JC; JC; JC; JC; JC; JC; JC; JC; JC; JC; JC; JC; JC; JC; J CG> CG> CG> CG> CG> CG> CG> CG> CG> CG> CG> CG> CG> CG> CG> CG> CG> CG> CG> CG> CG> CG> CG> CG> CG> CG> CG> CG> CG> G> EG> EG> EG> EG> EG> EG> EG> EG> EG> EG> EG> EG> EG> EG> EG> EG> EG> EG> EG> EG> EG> EG> EG> EG> EG> EG> EG> EG> EG>  GJ; GJ; GJ; GJ; GJ; GJ; GJ; GJ; GJ; GJ; GJ; GJ; GJ; GJ; GJ; GJ; GJ; GJ; GJ; GJ; GJ; GJ; GJ; GJ; GJ; GJ; GJ; GJ; GJ; J; HJ; HJ; HJ; HJ; HJ; HJ; HJ; HJ; HJ; HJ; HJ; HJ; HJ; HJ; HJ; HJ; HJ; HJ; HJ; HJ; HJ; HJ; HJ; HJ; HJ; HJ; HJ; HJ; HJ;  JM7 JM7 JM7 JM7 JM7 JM7 JM7 JM7 JM7 JM7 JM7 JM7 JM7 JM7 JM7 JM7 JM7 JM7 JM7 JM7 JM7 JM7 JM7 JM7 JM7 JM7 JM7 JM7 JM7 M7 GM7 GM7 GM7 GM7 GM7 GM7 GM7 GM7 GM7 GM7 GM7 GM7 GM7 GM7 GM7 GM7 GM7 GM7 GM7 GM7 GM7 GM7 GM7 GM7 GM7 GM7 GM7 GM7 GM7  HM0 HM0 HM0 HM0 HM0 HM0 HM0 HM0 HM0 HM0 HM0 HM0 HM0 HM0 HM0 HM0 HM0 HM0 HM0 HM0 HM0 HM0 HM0 HM0 HM0 HM0 HM0 HM0 HM0 H0 HK0 HK0 HK0 HK0 HK0 HK0 HK0 HK0 HK0 HK0 HK0 HK0 HK0 HK0 HK0 HK0 HK0 HK0 HK0 HK0 HK0 HK0 HK0 HK0 HK0 HK0 HK0 HK0 HK0 H HJ2 HJ2 HJ2 HJ2 HJ2 HJ2 HJ2 HJ2 HJ2 HJ2 HJ2 HJ2 HJ2 HJ2 HJ2 HJ2 HJ2 HJ2 HJ2 HJ2 HJ2 HJ2 HJ2 HJ2 HJ2 HJ2 HJ2 HJ2 HJ2 H2 HK2 HK2 HK2 HK2 HK2 HK2 HK2 HK2 HK2 HK2 HK2 HK2 HK2 HK2 HK2 HK2 HK2 HK2 HK2 HK2 HK2 HK2 HK2 HK2 HK2 HK2 HK2 HK2 HK2  H3 H3 H3 H3 H3 H3 H3 H3 H3 H3 H3 H3 H3 H3 H3 H3 H3 H3 H3 H3 H3 H3 H3 H3 H3 H3 H3 H3 H3 H3 <H3 <H3 <H3 <H3 <H3 <H3 <H3 <H3 <H3 <H3 <H3 <H3 <H3 <H3 <H3 <H3 <H3 <H3 <H3 <H3 <H3 <H3 <H3 <H3 <H3 <H3 <H3 <H3 <H3 H ?H0 ?H0 ?H0 ?H0 ?H0 ?H0 ?H0 ?H0 ?H0 ?H0 ?H0 ?H0 ?H0 ?H0 ?H0 ?H0 ?H0 ?H0 ?H0 ?H0 ?H0 ?H0 ?H0 ?H0 ?H0 ?H0 ?H0 ?H0 ?H0 H0 CH0 CH0 CH0 CH0 CH0 CH0 CH0 CH0 CH0 CH0 CH0 CH0 CH0 CH0 CH0 CH0 CH0 CH0 CH0 CH0 CH0 CH0 CH0 CH0 CH0 CH0 CH0 CH0 CH0 H DH) DH) DH) DH) DH) DH) DH) DH) DH) DH) DH) DH) DH) DH) DH) DH) DH) DH) DH) DH) DH) DH) DH) DH) DH) DH) DH) DH) DH) H) FH) FH) FH) FH) FH) FH) FH) FH) FH) FH) FH) FH) FH) FH) FH) FH) FH) FH) FH) FH) FH) FH) FH) FH) FH) FH) FH) FH) FH)  DM, DM, DM, DM, DM, DM, DM, DM, DM, DM, DM, DM, DM, DM, DM, DM, DM, DM, DM, DM, DM, DM, DM, DM, DM, DM, DM, DM, DM, , CO, CO, CO, CO, CO, CO, CO, CO, CO, CO, CO, CO, CO, CO, CO, CO, CO, CO, CO, CO, CO, CO, CO, CO, CO, CO, CO, CO, CO,  AP0 AP0 AP0 AP0 AP0 AP0 AP0 AP0 AP0 AP0 AP0 AP0 AP0 AP0 AP0 AP0 AP0 AP0 AP0 AP0 AP0 AP0 AP0 AP0 AP0 AP0 AP0 AP0 AP0 P0 ?P0 ?P0 ?P0 ?P0 ?P0 ?P0 ?P0 ?P0 ?P0 ?P0 ?P0 ?P0 ?P0 ?P0 ?P0 ?P0 ?P0 ?P0 ?P0 ?P0 ?P0 ?P0 ?P0 ?P0 ?P0 ?P0 ?P0 ?P0 ?P0 P >P5 >P5 >P5 >P5 >P5 >P5 >P5 >P5 >P5 >P5 >P5 >P5 >P5 >P5 >P5 >P5 >P5 >P5 >P5 >P5 >P5 >P5 >P5 >P5 >P5 >P5 >P5 >P5 >P5 P5 <P5 <P5 <P5 <P5 <P5 <P5 <P5 <P5 <P5 <P5 <P5 <P5 <P5 <P5 <P5 <P5 <P5 <P5 <P5 <P5 <P5 <P5 <P5 <P5 <P5 <P5 <P5 <P5 <P5 P :P2 :P2 :P2 :P2 :P2 :P2 :P2 :P2 :P2 :P2 :P2 :P2 :P2 :P2 :P2 :P2 :P2 :P2 :P2 :P2 :P2 :P2 :P2 :P2 :P2 :P2 :P2 :P2 :P2 : :O3 :O3 :O3 :O3 :O3 :O3 :O3 :O3 :O3 :O3 :O3 :O3 :O3 :O3 :O3 :O3 :O3 :O3 :O3 :O3 :O3 :O3 :O3 :O3 :O3 :O3 :O3 :O3 :O3  >M2 >M2 >M2 >M2 >M2 >M2 >M2 >M2 >M2 >M2 >M2 >M2 >M2 >M2 >M2 >M2 >M2 >M2 >M2 >M2 >M2 >M2 >M2 >M2 >M2 >M2 >M2 >M2 >M2 > >O0 >O0 >O0 >O0 >O0 >O0 >O0 >O0 >O0 >O0 >O0 >O0 >O0 >O0 >O0 >O0 >O0 >O0 >O0 >O0 >O0 >O0 >O0 >O0 >O0 >O0 >O0 >O0 >O0  AP. AP. AP. AP. AP. AP. AP. AP. AP. AP. AP. AP. AP. AP. AP. AP. AP. AP. AP. AP. AP. AP. AP. AP. AP. AP. AP. AP. AP. AP AP, AP, AP, AP, AP, AP, AP, AP, AP, AP, AP, AP, AP, AP, AP, AP, AP, AP, AP, AP, AP, AP, AP, AP, AP, AP, AP, AP, AP,  DF+ DF+ DF+ DF+ DF+ DF+ DF+ DF+ DF+ DF+ DF+ DF+ DF+ DF+ DF+ DF+ DF+ DF+ DF+ DF+ DF+ DF+ DF+ DF+ DF+ DF+ DF+ DF+ DF+ DF DF) DF) DF) DF) DF) DF) DF) DF) DF) DF) DF) DF) DF) DF) DF) DF) DF) DF) DF) DF) DF) DF) DF) DF) DF) DF) DF) DF) DF) F CF' CF' CF' CF' CF' CF' CF' CF' CF' CF' CF' CF' CF' CF' CF' CF' CF' CF' CF' CF' CF' CF' CF' CF' CF' CF' CF' CF' CF' F' DF' DF' DF' DF' DF' DF' DF' DF' DF' DF' DF' DF' DF' DF' DF' DF' DF' DF' DF' DF' DF' DF' DF' DF' DF' DF' DF' DF' DF'  CK+ CK+ CK+ CK+ CK+ CK+ CK+ CK+ CK+ CK+ CK+ CK+ CK+ CK+ CK+ CK+ CK+ CK+ CK+ CK+ CK+ CK+ CK+ CK+ CK+ CK+ CK+ CK+ CK+ + AM+ AM+ AM+ AM+ AM+ AM+ AM+ AM+ AM+ AM+ AM+ AM+ AM+ AM+ AM+ AM+ AM+ AM+ AM+ AM+ AM+ AM+ AM+ AM+ AM+ AM+ AM+ AM+ AM+  ?O. ?O. ?O. ?O. ?O. ?O. ?O. ?O. ?O. ?O. ?O. ?O. ?O. ?O. ?O. ?O. ?O. ?O. ?O. ?O. ?O. ?O. ?O. ?O. ?O. ?O. ?O. ?O. ?O. O. >O. >O. >O. >O. >O. >O. >O. >O. >O. >O. >O. >O. >O. >O. >O. >O. >O. >O. >O. >O. >O. >O. >O. >O. >O. >O. >O. >O. >O. O <O3 <O3 <O3 <O3 <O3 <O3 <O3 <O3 <O3 <O3 <O3 <O3 <O3 <O3 <O3 <O3 <O3 <O3 <O3 <O3 <O3 <O3 <O3 <O3 <O3 <O3 <O3 <O3 <O3 O3 :O3 :O3 :O3 :O3 :O3 :O3 :O3 :O3 :O3 :O3 :O3 :O3 :O3 :O3 :O3 :O3 :O3 :O3 :O3 :O3 :O3 :O3 :O3 :O3 :O3 :O3 :O3 :O3 :O3 O 8O0 8O0 8O0 8O0 8O0 8O0 8O0 8O0 8O0 8O0 8O0 8O0 8O0 8O0 8O0 8O0 8O0 8O0 8O0 8O0 8O0 8O0 8O0 8O0 8O0 8O0 8O0 8O0 8O0 8 8M2 8M2 8M2 8M2 8M2 8M2 8M2 8M2 8M2 8M2 8M2 8M2 8M2 8M2 8M2 8M2 8M2 8M2 8M2 8M2 8M2 8M2 8M2 8M2 8M2 8M2 8M2 8M2 8M2  <K0 <K0 <K0 <K0 <K0 <K0 <K0 <K0 <K0 <K0 <K0 <K0 <K0 <K0 <K0 <K0 <K0 <K0 <K0 <K0 <K0 <K0 <K0 <K0 <K0 <K0 <K0 <K0 <K0 < <M. <M. <M. <M. <M. <M. <M. <M. <M. <M. <M. <M. <M. <M. <M. <M. <M. <M. <M. <M. <M. <M. <M. <M. <M. <M. <M. <M. <M.  ?O, ?O, ?O, ?O, ?O, ?O, ?O, ?O, ?O, ?O, ?O, ?O, ?O, ?O, ?O, ?O, ?O, ?O, ?O, ?O, ?O, ?O, ?O, ?O, ?O, ?O, ?O, ?O, ?O, ?O ?O+ ?O+ ?O+ ?O+ ?O+ ?O+ ?O+ ?O+ ?O+ ?O+ ?O+ ?O+ ?O+ ?O+ ?O+ ?O+ ?O+ ?O+ ?O+ ?O+ ?O+ ?O+ ?O+ ?O+ ?O+ ?O+ ?O+ ?O+ ?O+  CD) CD) CD) CD) CD) CD) CD) CD) CD) CD) CD) CD) CD) CD) CD) CD) CD) CD) CD) CD) CD) CD) CD) CD) CD) CD) CD) CD) CD) CD CD' CD' CD' CD' CD' CD' CD' CD' CD' CD' CD' CD' CD' CD' CD' CD' CD' CD' CD' CD' CD' CD' CD' CD' CD' CD' CD' CD' CD' D AD& AD& AD& AD& AD& AD& AD& AD& AD& AD& AD& AD& AD& AD& AD& AD& AD& AD& AD& AD& AD& AD& AD& AD& AD& AD& AD& AD& AD& D& CD& CD& CD& CD& CD& CD& CD& CD& CD& CD& CD& CD& CD& CD& CD& CD& CD& CD& CD& CD& CD& CD& CD& CD& CD& CD& CD& CD& CD&  AJ) AJ) AJ) AJ) AJ) AJ) AJ) AJ) AJ) AJ) AJ) AJ) AJ) AJ) AJ) AJ) AJ) AJ) AJ) AJ) AJ) AJ) AJ) AJ) AJ) AJ) AJ) AJ) AJ) ) ?K) ?K) ?K) ?K) ?K) ?K) ?K) ?K) ?K) ?K) ?K) ?K) ?K) ?K) ?K) ?K) ?K) ?K) ?K) ?K) ?K) ?K) ?K) ?K) ?K) ?K) ?K) ?K) ?K)  >M, >M, >M, >M, >M, >M, >M, >M, >M, >M, >M, >M, >M, >M, >M, >M, >M, >M, >M, >M, >M, >M, >M, >M, >M, >M, >M, >M, >M, M, <M, <M, <M, <M, <M, <M, <M, <M, <M, <M, <M, <M, <M, <M, <M, <M, <M, <M, <M, <M, <M, <M, <M, <M, <M, <M, <M, <M, <M, M ;M2 ;M2 ;M2 ;M2 ;M2 ;M2 ;M2 ;M2 ;M2 ;M2 ;M2 ;M2 ;M2 ;M2 ;M2 ;M2 ;M2 ;M2 ;M2 ;M2 ;M2 ;M2 ;M2 ;M2 ;M2 ;M2 ;M2 ;M2 ;M2 M2 9M2 9M2 9M2 9M2 9M2 9M2 9M2 9M2 9M2 9M2 9M2 9M2 9M2 9M2 9M2 9M2 9M2 9M2 9M2 9M2 9M2 9M2 9M2 9M2 9M2 9M2 9M2 9M2 9M2 M 7M/ 7M/ 7M/ 7M/ 7M/ 7M/ 7M/ 7M/ 7M/ 7M/ 7M/ 7M/ 7M/ 7M/ 7M/ 7M/ 7M/ 7M/ 7M/ 7M/ 7M/ 7M/ 7M/ 7M/ 7M/ 7M/ 7M/ 7M/ 7M/ 7 7K0 7K0 7K0 7K0 7K0 7K0 7K0 7K0 7K0 7K0 7K0 7K0 7K0 7K0 7K0 7K0 7K0 7K0 7K0 7K0 7K0 7K0 7K0 7K0 7K0 7K0 7K0 7K0 7K0  ;J/ ;J/ ;J/ ;J/ ;J/ ;J/ ;J/ ;J/ ;J/ ;J/ ;J/ ;J/ ;J/ ;J/ ;J/ ;J/ ;J/ ;J/ ;J/ ;J/ ;J/ ;J/ ;J/ ;J/ ;J/ ;J/ ;J/ ;J/ ;J/ ; ;K- ;K- ;K- ;K- ;K- ;K- ;K- ;K- ;K- ;K- ;K- ;K- ;K- ;K- ;K- ;K- ;K- ;K- ;K- ;K- ;K- ;K- ;K- ;K- ;K- ;K- ;K- ;K- ;K-  >M+ >M+ >M+ >M+ >M+ >M+ >M+ >M+ >M+ >M+ >M+ >M+ >M+ >M+ >M+ >M+ >M+ >M+ >M+ >M+ >M+ >M+ >M+ >M+ >M+ >M+ >M+ >M+ >M+ > >P) >P) >P) >P) >P) >P) >P) >P) >P) >P) >P) >P) >P) >P) >P) >P) >P) >P) >P) >P) >P) >P) >P) >P) >P) >P) >P) >P) >P)  CO' CO' CO' CO' CO' CO' CO' CO' CO' CO' CO' CO' CO' CO' CO' CO' CO' CO' CO' CO' CO' CO' CO' CO' CO' CO' CO' CO' CO' C CM& CM& CM& CM& CM& CM& CM& CM& CM& CM& CM& CM& CM& CM& CM& CM& CM& CM& CM& CM& CM& CM& CM& CM& CM& CM& CM& CM& CM&  CK$ CK$ CK$ CK$ CK$ CK$ CK$ CK$ CK$ CK$ CK$ CK$ CK$ CK$ CK$ CK$ CK$ CK$ CK$ CK$ CK$ CK$ CK$ CK$ CK$ CK$ CK$ CK$ CK$ C$ CJ$ CJ$ CJ$ CJ$ CJ$ CJ$ CJ$ CJ$ CJ$ CJ$ CJ$ CJ$ CJ$ CJ$ CJ$ CJ$ CJ$ CJ$ CJ$ CJ$ CJ$ CJ$ CJ$ CJ$ CJ$ CJ$ CJ$ CJ$ CJ$ C$ CH$ CH$ CH$ CH$ CH$ CH$ CH$ CH$ CH$ CH$ CH$ CH$ CH$ CH$ CH$ CH$ CH$ CH$ CH$ CH$ CH$ CH$ CH$ CH$ CH$ CH$ CH$ CH$ CH$ C$ CG$ CG$ CG$ CG$ CG$ CG$ CG$ CG$ CG$ CG$ CG$ CG$ CG$ CG$ CG$ CG$ CG$ CG$ CG$ CG$ CG$ CG$ CG$ CG$ CG$ CG$ CG$ CG$ CG$ C CH CH CH CH CH CH CH CH CH CH CH CH CH CH CH CH CH CH CH CH CH CH CH CH CH CH CH CH CH CH CH5 CH5 CH5 CH5 CH5 CH5 CH5 CH5 CH5 CH5 CH5 CH5 CH5 CH5 CH5 CH5 CH5 CH5 CH5 CH5 CH5 CH5 CH5 CH5 CH5 CH5 CH5 CH5 CH5 C CC3 CC3 CC3 CC3 CC3 CC3 CC3 CC3 CC3 CC3 CC3 CC3 CC3 CC3 CC3 CC3 CC3 CC3 CC3 CC3 CC3 CC3 CC3 CC3 CC3 CC3 CC3 CC3 CC3 C CA2 CA2 CA2 CA2 CA2 CA2 CA2 CA2 CA2 CA2 CA2 CA2 CA2 CA2 CA2 CA2 CA2 CA2 CA2 CA2 CA2 CA2 CA2 CA2 CA2 CA2 CA2 CA2 CA2 C CC3 CC3 CC3 CC3 CC3 CC3 CC3 CC3 CC3 CC3 CC3 CC3 CC3 CC3 CC3 CC3 CC3 CC3 CC3 CC3 CC3 CC3 CC3 CC3 CC3 CC3 CC3 CC3 CC3 CC CC2 CC2 CC2 CC2 CC2 CC2 CC2 CC2 CC2 CC2 CC2 CC2 CC2 CC2 CC2 CC2 CC2 CC2 CC2 CC2 CC2 CC2 CC2 CC2 CC2 CC2 CC2 CC2 CC2 C C?0 C?0 C?0 C?0 C?0 C?0 C?0 C?0 C?0 C?0 C?0 C?0 C?0 C?0 C?0 C?0 C?0 C?0 C?0 C?0 C?0 C?0 C?0 C?0 C?0 C?0 C?0 C?0 C?0 C C>/ C>/ C>/ C>/ C>/ C>/ C>/ C>/ C>/ C>/ C>/ C>/ C>/ C>/ C>/ C>/ C>/ C>/ C>/ C>/ C>/ C>/ C>/ C>/ C>/ C>/ C>/ C>/ C>/ C C?0 C?0 C?0 C?0 C?0 C?0 C?0 C?0 C?0 C?0 C?0 C?0 C?0 C?0 C?0 C?0 C?0 C?0 C?0 C?0 C?0 C?0 C?0 C?0 C?0 C?0 C?0 C?0 C?0 C? C?+ C?+ C?+ C?+ C?+ C?+ C?+ C?+ C?+ C?+ C?+ C?+ C?+ C?+ C?+ C?+ C?+ C?+ C?+ C?+ C?+ C?+ C?+ C?+ C?+ C?+ C?+ C?+ C?+ C C<3 C<3 C<3 C<3 C<3 C<3 C<3 C<3 C<3 C<3 C<3 C<3 C<3 C<3 C<3 C<3 C<3 C<3 C<3 C<3 C<3 C<3 C<3 C<3 C<3 C<3 C<3 C<3 C<3 C C;2 C;2 C;2 C;2 C;2 C;2 C;2 C;2 C;2 C;2 C;2 C;2 C;2 C;2 C;2 C;2 C;2 C;2 C;2 C;2 C;2 C;2 C;2 C;2 C;2 C;2 C;2 C;2 C;2 C C<3 C<3 C<3 C<3 C<3 C<3 C<3 C<3 C<3 C<3 C<3 C<3 C<3 C<3 C<3 C<3 C<3 C<3 C<3 C<3 C<3 C<3 C<3 C<3 C<3 C<3 C<3 C<3 C<3 C<3 A<3 A<3 A<3 A<3 A<3 A<3 A<3 A<3 A<3 A<3 A<3 A<3 A<3 A<3 A<3 A<3 A<3 A<3 A<3 A<3 A<3 A<3 A<3 A<3 A<3 A<3 A<3 A<3 A<3  C?0 C?0 C?0 C?0 C?0 C?0 C?0 C?0 C?0 C?0 C?0 C?0 C?0 C?0 C?0 C?0 C?0 C?0 C?0 C?0 C?0 C?0 C?0 C?0 C?0 C?0 C?0 C?0 C?0 ?0 >?0 >?0 >?0 >?0 >?0 >?0 >?0 >?0 >?0 >?0 >?0 >?0 >?0 >?0 >?0 >?0 >?0 >?0 >?0 >?0 >?0 >?0 >?0 >?0 >?0 >?0 >?0 >?0 >?0  ?C. ?C. ?C. ?C. ?C. ?C. ?C. ?C. ?C. ?C. ?C. ?C. ?C. ?C. ?C. ?C. ?C. ?C. ?C. ?C. ?C. ?C. ?C. ?C. ?C. ?C. ?C. ?C. ?C. C. >C. >C. >C. >C. >C. >C. >C. >C. >C. >C. >C. >C. >C. >C. >C. >C. >C. >C. >C. >C. >C. >C. >C. >C. >C. >C. >C. >C. >C.  ?H, ?H, ?H, ?H, ?H, ?H, ?H, ?H, ?H, ?H, ?H, ?H, ?H, ?H, ?H, ?H, ?H, ?H, ?H, ?H, ?H, ?H, ?H, ?H, ?H, ?H, ?H, ?H, ?H, H, <H, <H, <H, <H, <H, <H, <H, <H, <H, <H, <H, <H, <H, <H, <H, <H, <H, <H, <H, <H, <H, <H, <H, <H, <H, <H, <H, <H, <H,  ;J+ ;J+ ;J+ ;J+ ;J+ ;J+ ;J+ ;J+ ;J+ ;J+ ;J+ ;J+ ;J+ ;J+ ;J+ ;J+ ;J+ ;J+ ;J+ ;J+ ;J+ ;J+ ;J+ ;J+ ;J+ ;J+ ;J+ ;J+ ;J+ + <H+ <H+ <H+ <H+ <H+ <H+ <H+ <H+ <H+ <H+ <H+ <H+ <H+ <H+ <H+ <H+ <H+ <H+ <H+ <H+ <H+ <H+ <H+ <H+ <H+ <H+ <H+ <H+ <H+  <G- <G- <G- <G- <G- <G- <G- <G- <G- G- >G- >G- >G- >G- >G- >G- >G- >G- >G- G- <G- <G- <G- <G- <G- <G- <G- <G- <G- - ;E- ;E- ;E- ;E- ;E- ;E- ;E- ;E- ;E- ;E- ;E- ;E- ;E- ;E- E- <E- <E- <E- <E- <E- <E- <E- <E- <E- <E- <E- <E- <E- <E-  >C/ >C/ >C/ >C/ >C/ >C/ >C/ >C/ >C/ >C/ >C/ >C/ >C/ >C/ >C/ >C/ >C/ >C/ >C/ >C/ >C/ >C/ >C/ >C/ >C/ >C/ >C/ >C/ >C/ C/ <C/ <C/ <C/ <C/ <C/ <C/ <C/ <C/ <C/ <C/ <C/ <C/ <C/ <C/ <C/ <C/ <C/ <C/ <C/ <C/ <C/ <C/ <C/ <C/ <C/ <C/ <C/ <C/ <C/  ;O+ ;O+ ;O+ ;O+ ;O+ ;O+ ;O+ ;O+ ;O+ ;O+ ;O+ ;O+ ;O+ ;O+ ;O+ ;O+ ;O+ ;O+ ;O+ ;O+ ;O+ ;O+ ;O+ ;O+ ;O+ ;O+ ;O+ ;O+ ;O+ O+ 9O+ 9O+ 9O+ 9O+ 9O+ 9O+ 9O+ 9O+ 9O+ 9O+ 9O+ 9O+ 9O+ 9O+ 9O+ 9O+ 9O+ 9O+ 9O+ 9O+ 9O+ 9O+ 9O+ 9O+ 9O+ 9O+ 9O+ 9O+ 9O+  7O0 7O0 7O0 7O0 7O0 7O0 7O0 7O0 7O0 7O0 7O0 7O0 7O0 7O0 7O0 7O0 7O0 7O0 7O0 70 7Q0 7Q0 7Q0 7Q0 7Q0 7Q0 7Q0 7Q0 7Q0 7Q0 7Q0 7Q0 7Q0 7Q0 7Q0 7Q0 7Q0 7Q0 7Q0 70 7O0 7O0 7O0 7O0 7O0 7O0 7O0 7O0 7O0 7O0 7O0 7O0 7O0 7O0 7O0 7O0 7O0 7O0 7O0  <Q$ <Q$ <Q$ <Q$ <Q$ <Q$ <Q$ <Q$ <Q$ <Q$ <Q$ <Q$ <Q$ <Q$ <$ <O$ <O$ <O$ <O$ <O$ <O$ <O$ <O$ <O$ <O$ <O$ <O$ <O$ <O$ $ ;Q$ ;Q$ ;Q$ ;Q$ ;Q$ ;Q$ ;Q$ ;Q$ ;Q$ ;Q$ ;Q$ ;Q$ ;Q$ ;Q$ ;$ ;O$ ;O$ ;O$ ;O$ ;O$ ;O$ ;O$ ;O$ ;O$ ;O$ ;O$ ;O$ ;O$ ;O$  <Q <Q <Q <Q <Q <Q <Q <Q <Q <Q <Q <Q <Q <Q < <O <O <O <O <O <O <O <O <O <O <O <O <O <O < <Q/ <Q/ <Q/ <Q/ <Q/ <Q/ <Q/ <Q/ <Q/ <Q/ <Q/ <Q/ <Q/ <Q/ </ <O/ <O/ <O/ <O/ <O/ <O/ <O/ <O/ <O/ <O/ <O/ <O/ <O/ <O/  7Q0 7Q0 7Q0 7Q0 7Q0 7Q0 7Q0 7Q0 7Q0 7Q0 7Q0 7Q0 7Q0 7Q0 70 7O0 7O0 7O0 7O0 7O0 7O0 7O0 7O0 7O0 7O0 7O0 7O0 7O0 7O0  5Q2 5Q2 5Q2 5Q2 5Q2 5Q2 5Q2 5Q2 5Q2 5Q2 5Q2 5Q2 5Q2 5Q2 52 5O2 5O2 5O2 5O2 5O2 5O2 5O2 5O2 5O2 5O2 5O2 5O2 5O2 5O2  7Q3 7Q3 7Q3 7Q3 7Q3 7Q3 7Q3 7Q3 7Q3 7Q3 7Q3 7Q3 7Q3 7Q3 73 7O3 7O3 7O3 7O3 7O3 7O3 7O3 7O3 7O3 7O3 7O3 7O3 7O3 7O3 7 7Q0 7Q0 7Q0 7Q0 7Q0 7Q0 7Q0 7Q0 7Q0 7Q0 7Q0 7Q0 7Q0 7Q0 70 7O0 7O0 7O0 7O0 7O0 7O0 7O0 7O0 7O0 7O0 7O0 7O0 7O0 7O0  3Q3 3Q3 3Q3 3Q3 3Q3 3Q3 3Q3 3Q3 3Q3 3Q3 3Q3 3Q3 3Q3 3Q3 33 3O3 3O3 3O3 3O3 3O3 3O3 3O3 3O3 3O3 3O3 3O3 3O3 3O3 3O3  2Q7 2Q7 2Q7 2Q7 2Q7 2Q7 2Q7 2Q7 2Q7 2Q7 2Q7 2Q7 2Q7 2Q7 27 2O7 2O7 2O7 2O7 2O7 2O7 2O7 2O7 2O7 2O7 2O7 2O7 2O7 2O7  3Q< 3Q< 3Q< 3Q< 3Q< 3Q< 3Q< 3Q< 3Q< 3Q< 3Q< 3Q< 3Q< 3Q< 3< 3O< 3O< 3O< 3O< 3O< 3O< 3O< 3O< 3O< 3O< 3O< 3O< 3O< 3O< 3 3Q7 3Q7 3Q7 3Q7 3Q7 3Q7 3Q7 3Q7 3Q7 3Q7 3Q7 3Q7 3Q7 3Q7 37 3O7 3O7 3O7 3O7 3O7 3O7 3O7 3O7 3O7 3O7 3O7 3O7 3O7 3O7  0Q3 0Q3 0Q3 0Q3 0Q3 0Q3 0Q3 0Q3 0Q3 0Q3 0Q3 0Q3 0Q3 0Q3 03 0O3 0O3 0O3 0O3 0O3 0O3 0O3 0O3 0O3 0O3 0O3 0O3 0O3 0O3  /Q7 /Q7 /Q7 /Q7 /Q7 /Q7 /Q7 /Q7 /Q7 /Q7 /Q7 /Q7 /Q7 /Q7 /7 /O7 /O7 /O7 /O7 /O7 /O7 /O7 /O7 /O7 /O7 /O7 /O7 /O7 /O7  0Q0 0Q0 0Q0 0Q0 0Q0 0Q0 0Q0 0Q0 0Q0 0Q0 0Q0 0Q0 0Q0 0Q0 00 0O0 0O0 0O0 0O0 0O0 0O0 0O0 0O0 0O0 0O0 0O0 0O0 0O0 0O0 00 0M0 0M0 0M0 0M0 0M0 0M0 0M0 0M0 0M0 0M0 0M0 0M0 0M0 0M0 0M0 0M0 0M0 0M0 0M0 0M0 0M0 0M0 0M0 0M0 0M0 0M0 0M0 0M0 0M0  3O< 3O< 3O< 3O< 3O< 3O< 3O< 3O< 3O< 3O< 3O< 3O< 3O< 3O< 3O< 3O< 3O< 3O< 3O< 3O< 3O< 3O< 3O< 3O< 3O< 3O< 3O< 3O< 3O< 3< 3J< 3J< 3J< 3J< 3J< 3J< 3J< 3J< 3J< 3J< 3J< 3J< 3J< 3J< 3J< 3J< 3J< 3J< 3J< 3J< 3J< 3J< 3J< 3J< 3J< 3J< 3J< 3J< 3J<  7K: 7K: 7K: 7K: 7K: 7K: 7K: 7K: 7K: 7K: 7K: 7K: 7K: 7K: 7K: 7K: 7K: 7K: 7K: 7K: 7K: 7K: 7K: 7K: 7K: 7K: 7K: 7K: 7K: 7: 7J: 7J: 7J: 7J: 7J: 7J: 7J: 7J: 7J: 7J: 7J: 7J: 7J: 7J: 7J: 7J: 7J: 7J: 7J: 7J: 7J: 7J: 7J: 7J: 7J: 7J: 7J: 7J: 7J:  <K8 <K8 <K8 <K8 <K8 <K8 <K8 <K8 <K8 <K8 <K8 <K8 <K8 <K8 <K8 <K8 <K8 <K8 <K8 <K8 <K8 <K8 <K8 <K8 <K8 <K8 <K8 <K8 <K8 <8 <T8 <T8 <T8 <T8 <T8 <T8 <T8 <T8 <T8 <T8 <T8 <T8 <T8 <T8 <T8 <T8 <T8 <T8 <T8 <T8 <T8 <T8 <T8 <T8 <T8 <T8 <T8 <T8 <T8  >S7 >S7 >S7 >S7 >S7 >S7 >S7 >S7 >S7 >S7 >S7 >S7 >S7 >S7 >S7 >S7 >S7 >S7 >S7 >S7 >S7 >S7 >S7 >S7 >S7 >S7 >S7 >S7 >S7 7 <T7 <T7 <T7 <T7 <T7 <T7 <T7 <T7 <T7 <T7 <T7 <T7 <T7 <T7 <T7 <T7 <T7 <T7 <T7 <T7 <T7 <T7 <T7 <T7 <T7 <T7 <T7 <T7 <T7  ;T9 ;T9 ;T9 ;T9 ;T9 ;T9 ;T9 ;T9 ;T9 ;9 ;V9 ;V9 ;V9 ;V9 ;V9 ;V9 ;V9 ;V9 ;V9 ;9 ;T9 ;T9 ;T9 ;T9 ;T9 ;T9 ;T9 ;T9 ;T9 9 9S9 9S9 9S9 9S9 9S9 9S9 9S9 9S9 9S9 9S9 9S9 9S9 9S9 9S9 99 9T9 9T9 9T9 9T9 9T9 9T9 9T9 9T9 9T9 9T9 9T9 9T9 9T9 9T9  7V; 7V; 7V; 7V; 7V; 7V; 7V; 7V; 7V; 7V; 7V; 7V; 7V; 7V; 7V; 7V; 7V; 7V; 7V; 7V; 7V; 7V; 7V; 7V; 7V; 7V; 7V; 7V; 7V; ; >T; >T; >T; >T; >T; >T; >T; >T; >T; >T; >T; >T; >T; >T; >T; >T; >T; >T; >T; >T; >T; >T; >T; >T; >T; >T; >T; >T; >T;  ?S7 ?S7 ?S7 ?S7 ?S7 ?S7 ?S7 ?S7 ?S7 ?S7 ?S7 ?S7 ?S7 ?S7 ?S7 ?S7 ?S7 ?S7 ?S7 ?S7 ?S7 ?S7 ?S7 ?S7 ?S7 ?S7 ?S7 ?S7 ?S7 7 AQ7 AQ7 AQ7 AQ7 AQ7 AQ7 AQ7 AQ7 AQ7 AQ7 AQ7 AQ7 AQ7 AQ7 AQ7 AQ7 AQ7 AQ7 AQ7 AQ7 AQ7 AQ7 AQ7 AQ7 AQ7 AQ7 AQ7 AQ7 AQ7  CO3 CO3 CO3 CO3 CO3 CO3 CO3 CO3 CO3 CO3 CO3 CO3 CO3 CO3 CO3 CO3 CO3 CO3 CO3 CO3 CO3 CO3 CO3 CO3 CO3 CO3 CO3 CO3 CO3 C3 CK3 CK3 CK3 CK3 CK3 CK3 CK3 CK3 CK3 CK3 CK3 CK3 CK3 CK3 C3 CM3 CM3 CM3 CM3 CM3 CM3 CM3 CM3 CM3 CM3 CM3 CM3 CM3 CM3 C CO0 CO0 CO0 CO0 CO0 CO0 CO0 CO0 CO0 CO0 CO0 CO0 CO0 CO0 CO0 CO0 CO0 CO0 CO0 CO0 CO0 CO0 CO0 CO0 CO0 CO0 CO0 CO0 CO0 C0 CK0 CK0 CK0 CK0 CK0 CK0 CK0 CK0 CK0 CK0 CK0 CK0 CK0 CK0 C0 CM0 CM0 CM0 CM0 CM0 CM0 CM0 CM0 CM0 CM0 CM0 CM0 CM0 CM0 C CO CO CO CO CO CO CO CO CO CO CO CO CO CO CO CO CO CO CO CO CO CO CO CO CO CO CO CO CO C CK CK CK CK CK CK CK CK CK CK CK CK CK CK CK CK CK CK CK CK CK CK CK CK CK CK CK CK CK C CH3 CH3 CH3 CH3 CH3 CH3 CH3 CH3 CH3 CH3 CH3 CH3 CH3 CH3 CH3 CH3 CH3 CH3 CH3 CH3 CH3 CH3 CH3 CH3 CH3 CH3 CH3 CH3 CH3 C3 CK3 CK3 CK3 CK3 CK3 CK3 CK3 CK3 CK3 CK3 CK3 CK3 CK3 CK3 CK3 CK3 CK3 CK3 CK3 CK3 CK3 CK3 CK3 CK3 CK3 CK3 CK3 CK3 CK3  D0 D0 D0 D0 D0 D0 D0 D0 D0 D0 D0 D0 D0 D0 D0 D0 D0 D0 D0 D0 D0 D0 D0 D0 D0 D0 D0 D0 D0 0 <J0 <J0 <J0 <J0 <J0 <J0 <J0 <J0 <J0 <J0 <J0 <J0 <J0 <J0 <0 <K0 <K0 <K0 <K0 <K0 <K0 <K0 <K0 <K0 <K0 <K0 <K0 <K0 <K0  ;M, ;M, ;M, ;M, ;M, ;M, ;M, ;M, ;M, ;M, ;M, ;M, ;M, ;M, ;M, ;M, ;M, ;M, ;M, ;M, ;M, ;M, ;M, ;M, ;M, ;M, ;M, ;M, ;M, , <J, <J, <J, <J, <J, <J, <J, <J, <J, <J, <J, <J, <J, <J, <, <K, <K, <K, <K, <K, <K, <K, <K, <K, <K, <K, <K, <K, <K,  AM AM AM AM AM AM AM AM AM AM AM AM AM AM AM AM AM AM AM AM AM AM AM AM AM AM AM AM AM A AJ AJ AJ AJ AJ AJ AJ AJ AJ AJ AJ AJ AJ AJ AJ AJ AJ AJ AJ AJ AJ AJ AJ AJ AJ AJ AJ AJ AJ A AG2 AG2 AG2 AG2 AG2 AG2 AG2 AG2 AG2 AG2 AG2 AG2 AG2 AG2 AG2 AG2 AG2 AG2 AG2 AG2 AG2 AG2 AG2 AG2 AG2 AG2 AG2 AG2 AG2 A2 AJ2 AJ2 AJ2 AJ2 AJ2 AJ2 AJ2 AJ2 AJ2 AJ2 AJ2 AJ2 AJ2 AJ2 AJ2 AJ2 AJ2 AJ2 AJ2 AJ2 AJ2 AJ2 AJ2 AJ2 AJ2 AJ2 AJ2 AJ2 AJ2 A AC/ AC/ AC/ AC/ AC/ AC/ AC/ AC/ AC/ AC/ AC/ AC/ AC/ AC/ AC/ AC/ AC/ AC/ AC/ AC/ AC/ AC/ AC/ AC/ AC/ AC/ AC/ AC/ AC/ / ;H/ ;H/ ;H/ ;H/ ;H/ ;H/ ;H/ ;H/ ;H/ ;H/ ;H/ ;H/ ;H/ ;H/ ;/ ;J/ ;J/ ;J/ ;J/ ;J/ ;J/ ;J/ ;J/ ;J/ ;J/ ;J/ ;J/ ;J/ ;J/  9K+ 9K+ 9K+ 9K+ 9K+ 9K+ 9K+ 9K+ 9K+ 9K+ 9K+ 9K+ 9K+ 9K+ 9K+ 9K+ 9K+ 9K+ 9K+ 9K+ 9K+ 9K+ 9K+ 9K+ 9K+ 9K+ 9K+ 9K+ 9K+ + ;H+ ;H+ ;H+ ;H+ ;H+ ;H+ ;H+ ;H+ ;H+ ;H+ ;H+ ;H+ ;H+ ;H+ ;+ ;J+ ;J+ ;J+ ;J+ ;J+ ;J+ ;J+ ;J+ ;J+ ;J+ ;J+ ;J+ ;J+ ;J+  ?K ?K ?K ?K ?K ?K ?K ?K ?K ?K ?K ?K ?K ?K ?K ?K ?K ?K ?K ?K ?K ?K ?K ?K ?K ?K ?K ?K ?K ? ?H ?H ?H ?H ?H ?H ?H ?H ?H ?H ?H ?H ?H ?H ?H ?H ?H ?H ?H ?H ?H ?H ?H ?H ?H ?H ?H ?H ?H ? ?D0 ?D0 ?D0 ?D0 ?D0 ?D0 ?D0 ?D0 ?D0 ?D0 ?D0 ?D0 ?D0 ?D0 ?D0 ?D0 ?D0 ?D0 ?D0 ?D0 ?D0 ?D0 ?D0 ?D0 ?D0 ?D0 ?D0 ?D0 ?D0 ?0 ?H0 ?H0 ?H0 ?H0 ?H0 ?H0 ?H0 ?H0 ?H0 ?H0 ?H0 ?H0 ?H0 ?H0 ?H0 ?H0 ?H0 ?H0 ?H0 ?H0 ?H0 ?H0 ?H0 ?H0 ?H0 ?H0 ?H0 ?H0 ?H0 ? ?A, ?A, ?A, ?A, ?A, ?A, ?A, ?A, ?A, ?A, ?A, ?A, ?A, ?A, ?A, ?A, ?A, ?A, ?A, ?A, ?A, ?A, ?A, ?A, ?A, ?A, ?A, ?A, ?A, , 8G, 8G, 8G, 8G, 8G, 8G, 8G, 8G, 8G, 8G, 8G, 8G, 8G, 8G, 8, 8H, 8H, 8H, 8H, 8H, 8H, 8H, 8H, 8H, 8H, 8H, 8H, 8H, 8H,  7J) 7J) 7J) 7J) 7J) 7J) 7J) 7J) 7J) 7J) 7J) 7J) 7J) 7J) 7J) 7J) 7J) 7J) 7J) 7J) 7J) 7J) 7J) 7J) 7J) 7J) 7J) 7J) 7J) ) 5G) 5G) 5G) 5G) 5G) 5G) 5G) 5G) 5G) 5G) 5G) 5G) 5G) 5G) 5) 5H) 5H) 5H) 5H) 5H) 5H) 5H) 5H) 5H) 5H) 5H) 5H) 5H) 5H)  >J# >J# >J# >J# >J# >J# >J# >J# >J# >J# >J# >J# >J# >J# >J# >J# >J# >J# >J# >J# >J# >J# >J# >J# >J# >J# >J# >J# >J# ># >G# >G# >G# >G# >G# >G# >G# >G# >G# >G# >G# >G# >G# >G# >G# >G# >G# >G# >G# >G# >G# >G# >G# >G# >G# >G# >G# >G# >G# > >C/ >C/ >C/ >C/ >C/ >C/ >C/ >C/ >C/ >C/ >C/ >C/ >C/ >C/ >C/ >C/ >C/ >C/ >C/ >C/ >C/ >C/ >C/ >C/ >C/ >C/ >C/ >C/ >C/ >/ >A/ >A/ >A/ >A/ >A/ >A/ >A/ >A/ >A/ >A/ >A/ >A/ >A/ >A/ >A/ >A/ >A/ >A/ >A/ >A/ >A/ >A/ >A/ >A/ >A/ >A/ >A/ >A/ >A/ > >?0 >?0 >?0 >?0 >?0 >?0 >?0 >?0 >?0 >?0 >?0 >?0 >?0 >?0 >?0 >?0 >?0 >?0 >?0 >?0 >?0 >?0 >?0 >?0 >?0 >?0 >?0 >?0 >?0 ?0 <?0 <?0 <?0 <?0 <?0 <?0 <?0 <?0 <?0 <?0 <?0 <?0 <?0 <?0 ?0 >?0 >?0 >?0 >?0 >?0 >?0 >?0 >?0 >?0 >?0 >?0 >?0 >?0 >?0  ?C$ ?C$ ?C$ ?C$ ?C$ ?C$ ?C$ ?C$ ?C$ ?C$ ?C$ ?C$ ?C$ ?C$ ?C$ ?C$ ?C$ ?C$ ?C$ ?C$ ?C$ ?C$ ?C$ ?C$ ?C$ ?C$ ?C$ ?C$ ?C$ C$ <C$ <C$ <C$ <C$ <C$ <C$ <C$ <C$ <C$ <C$ <C$ <C$ <C$ <C$ C$ >C$ >C$ >C$ >C$ >C$ >C$ >C$ >C$ >C$ >C$ >C$ >C$ >C$ >C$  ?H ?H ?H ?H ?H ?H ?H ?H ?H ?H ?H ?H ?H ?H ?H ?H ?H ?H ?H ?H ?H ?H ?H ?H ?H ?H ?H ?H ?H H <H <H <H <H <H <H <H <H <H <H <H <H <H <H <H <H <H <H <H <H <H <H <H <H <H <H <H <H <H H 7H0 7H0 7H0 7H0 7H0 7H0 7H0 7H0 7H0 7H0 7H0 7H0 7H0 7H0 7H0 7H0 7H0 7H0 7H0 7H0 7H0 7H0 7H0 7H0 7H0 7H0 7H0 7H0 7H0 H0 :H0 :H0 :H0 :H0 :H0 :H0 :H0 :H0 :H0 :H0 :H0 :H0 :H0 :H0 :H0 :H0 :H0 :H0 :H0 :H0 :H0 :H0 :H0 :H0 :H0 :H0 :H0 :H0 :H0 H 8H5 8H5 8H5 8H5 8H5 8H5 8H5 8H5 8H5 8H5 8H5 8H5 8H5 8H5 8H5 8H5 8H5 8H5 8H5 8H5 8H5 8H5 8H5 8H5 8H5 8H5 8H5 8H5 8H5 5 >J5 >J5 >J5 >J5 >J5 >J5 >J5 >J5 >J5 >J5 >J5 >J5 >J5 >J5 5 ?H5 ?H5 ?H5 ?H5 ?H5 ?H5 ?H5 ?H5 ?H5 ?H5 ?H5 ?H5 ?H5 ?H5  AG8 AG8 AG8 AG8 AG8 AG8 AG8 AG8 AG8 AG8 AG8 AG8 AG8 AG8 AG8 AG8 AG8 AG8 AG8 AG8 AG8 AG8 AG8 AG8 AG8 AG8 AG8 AG8 AG8 8 >H8 >H8 >H8 >H8 >H8 >H8 >H8 >H8 >H8 >H8 >H8 >H8 >H8 >H8 H8 ?H8 ?H8 ?H8 ?H8 ?H8 ?H8 ?H8 ?H8 ?H8 ?H8 ?H8 ?H8 ?H8 ?H8  AH2 AH2 AH2 AH2 AH2 AH2 AH2 AH2 AH2 AH2 AH2 AH2 AH2 AH2 AH2 AH2 AH2 AH2 AH2 AH2 AH2 AH2 AH2 AH2 AH2 AH2 AH2 AH2 AH2 2 >J2 >J2 >J2 >J2 >J2 >J2 >J2 >J2 >J2 >J2 >J2 >J2 >J2 >J2 >J2 >J2 >J2 >J2 >J2 >J2 >J2 >J2 >J2 >J2 >J2 >J2 >J2 >J2 >J2 J 9J5 9J5 9J5 9J5 9J5 9J5 9J5 9J5 9J5 9J5 9J5 9J5 9J5 9J5 9J5 9J5 9J5 9J5 9J5 9J5 9J5 9J5 9J5 9J5 9J5 9J5 9J5 9J5 9J5 J5 <J5 <J5 <J5 <J5 <J5 <J5 <J5 <J5 <J5 <J5 <J5 <J5 <J5 <J5 <J5 <J5 <J5 <J5 <J5 <J5 <J5 <J5 <J5 <J5 <J5 <J5 <J5 <J5 <J5 J ;J7 ;J7 ;J7 ;J7 ;J7 ;J7 ;J7 ;J7 ;J7 ;J7 ;J7 ;J7 ;J7 ;J7 ;J7 ;J7 ;J7 ;J7 ;J7 ;J7 ;J7 ;J7 ;J7 ;J7 ;J7 ;J7 ;J7 ;J7 ;J7 7 ?K7 ?K7 ?K7 ?K7 ?K7 ?K7 ?K7 ?K7 ?K7 ?K7 ?K7 ?K7 ?K7 ?K7 7 AJ7 AJ7 AJ7 AJ7 AJ7 AJ7 AJ7 AJ7 AJ7 AJ7 AJ7 AJ7 AJ7 AJ7  CH; CH; CH; CH; CH; CH; CH; CH; CH; CH; CH; CH; CH; CH; CH; CH; CH; CH; CH; CH; CH; CH; CH; CH; CH; CH; CH; CH; CH; ; ?J; ?J; ?J; ?J; ?J; ?J; ?J; ?J; ?J; ?J; ?J; ?J; ?J; ?J; J; AJ; AJ; AJ; AJ; AJ; AJ; AJ; AJ; AJ; AJ; AJ; AJ; AJ; AJ;  CJ3 CJ3 CJ3 CJ3 CJ3 CJ3 CJ3 CJ3 CJ3 CJ3 CJ3 CJ3 CJ3 CJ3 CJ3 CJ3 CJ3 CJ3 CJ3 CJ3 CJ3 CJ3 CJ3 CJ3 CJ3 CJ3 CJ3 CJ3 CJ3 3 ?K3 ?K3 ?K3 ?K3 ?K3 ?K3 ?K3 ?K3 ?K3 ?K3 ?K3 ?K3 ?K3 ?K3 ?K3 ?K3 ?K3 ?K3 ?K3 ?K3 ?K3 ?K3 ?K3 ?K3 ?K3 ?K3 ?K3 ?K3 ?K3 K ;K7 ;K7 ;K7 ;K7 ;K7 ;K7 ;K7 ;K7 ;K7 ;K7 ;K7 ;K7 ;K7 ;K7 ;K7 ;K7 ;K7 ;K7 ;K7 ;K7 ;K7 ;K7 ;K7 ;K7 ;K7 ;K7 ;K7 ;K7 ;K7 K7 >K7 >K7 >K7 >K7 >K7 >K7 >K7 >K7 >K7 >K7 >K7 >K7 >K7 >K7 >K7 >K7 >K7 >K7 >K7 >K7 >K7 >K7 >K7 >K7 >K7 >K7 >K7 >K7 >K7 K <K8 <K8 <K8 <K8 <K8 <K8 <K8 <K8 <K8 <K8 <K8 <K8 <K8 <K8 <K8 <K8 <K8 <K8 <K8 <K8 <K8 <K8 <K8 <K8 <K8 <K8 <K8 <K8 <K8 8 AM8 AM8 AM8 AM8 AM8 AM8 AM8 AM8 AM8 AM8 AM8 AM8 AM8 AM8 8 CK8 CK8 CK8 CK8 CK8 CK8 CK8 CK8 CK8 CK8 CK8 CK8 CK8 CK8  DJ< DJ< DJ< DJ< DJ< DJ< DJ< DJ< DJ< DJ< DJ< DJ< DJ< DJ< DJ< DJ< DJ< DJ< DJ< DJ< DJ< DJ< DJ< DJ< DJ< DJ< DJ< DJ< DJ< < AK< AK< AK< AK< AK< AK< AK< AK< AK< AK< AK< AK< AK< AK< K< CK< CK< CK< CK< CK< CK< CK< CK< CK< CK< CK< CK< CK< CK<  DK5 DK5 DK5 DK5 DK5 DK5 DK5 DK5 DK5 DK5 DK5 DK5 DK5 DK5 DK5 DK5 DK5 DK5 DK5 DK5 DK5 DK5 DK5 DK5 DK5 DK5 DK5 DK5 DK5 5 AM5 AM5 AM5 AM5 AM5 AM5 AM5 AM5 AM5 AM5 AM5 AM5 AM5 AM5 AM5 AM5 AM5 AM5 AM5 AM5 AM5 AM5 AM5 AM5 AM5 AM5 AM5 AM5 AM5 M <M8 <M8 <M8 <M8 <M8 <M8 <M8 <M8 <M8 <M8 <M8 <M8 <M8 <M8 <M8 <M8 <M8 <M8 <M8 <M8 <M8 <M8 <M8 <M8 <M8 <M8 <M8 <M8 <M8 M8 ?M8 ?M8 ?M8 ?M8 ?M8 ?M8 ?M8 ?M8 ?M8 ?M8 ?M8 ?M8 ?M8 ?M8 ?M8 ?M8 ?M8 ?M8 ?M8 ?M8 ?M8 ?M8 ?M8 ?M8 ?M8 ?M8 ?M8 ?M8 ?M8 M >M/ >M/ >M/ >M/ >M/ >M/ >M/ >M/ >M/ >M/ >M/ >M/ >M/ >M/ >M/ >M/ >M/ >M/ >M/ >M/ >M/ >M/ >M/ >M/ >M/ >M/ >M/ >M/ >M/ / ;J/ ;J/ ;J/ ;J/ ;J/ ;J/ ;J/ ;J/ ;J/ ;J/ ;J/ ;J/ ;J/ ;J/ / <K/ <K/ <K/ <K/ <K/ <K/ <K/ <K/ <K/ <K/ <K/ <K/ <K/ <K/ / >M/ >M/ >M/ >M/ >M/ >M/ >M/ >M/ >M/ >M/ >M/ >M/ >M/ >M/ >M/ >M/ >M/ >M/ >M/ >M/ >M/ >M/ >M/ >M/ >M/ >M/ >M/ >M/ >M/ / ;J/ ;J/ ;J/ ;J/ ;J/ ;J/ ;J/ ;J/ ;J/ ;J/ ;J/ ;J/ ;J/ ;J/ / <K/ <K/ <K/ <K/ <K/ <K/ <K/ <K/ <K/ <K/ <K/ <K/ <K/ <K/  >M >M >M >M >M >M >M >M >M >M >M >M >M >M >M >M >M >M >M >M >M >M >M >M >M >M >M >M >M  ;J ;J ;J ;J ;J ;J ;J ;J ;J ;J ;J ;J ;J ;J ;J ;J ;J ;J ;J ;J ;J ;J ;J ;J ;J ;J ;J ;J ;J  7O5 7O5 7O5 7O5 7O5 7O5 7O5 7O5 7O5 7O5 7O5 7O5 7O5 7O5 7O5 7O5 7O5 7O5 7O5 7O5 7O5 7O5 7O5 7O5 7O5 7O5 7O5 7O5 7O5 O5 ;O5 ;O5 ;O5 ;O5 ;O5 ;O5 ;O5 ;O5 ;O5 ;O5 ;O5 ;O5 ;O5 ;O5 ;O5 ;O5 ;O5 ;O5 ;O5 ;O5 ;O5 ;O5 ;O5 ;O5 ;O5 ;O5 ;O5 ;O5 ;O5 O <O3 <O3 <O3 <O3 <O3 <O3 <O3 <O3 <O3 <O3 <O3 <O3 <O3 <O3 <O3 <O3 <O3 <O3 <O3 <O3 <O3 <O3 <O3 <O3 <O3 <O3 <O3 <O3 <O3 O ;O2 ;O2 ;O2 ;O2 ;O2 ;O2 ;O2 ;O2 ;O2 ;O2 ;O2 ;O2 ;O2 ;O2 ;O2 ;O2 ;O2 ;O2 ;O2 ;O2 ;O2 ;O2 ;O2 ;O2 ;O2 ;O2 ;O2 ;O2 ;O2 O <O3 <O3 <O3 <O3 <O3 <O3 <O3 <O3 <O3 <O3 <O3 <O3 <O3 <O3 <O3 <O3 <O3 <O3 <O3 <O3 <O3 <O3 <O3 <O3 <O3 <O3 <O3 <O3 <O3  DP5 DP5 DP5 DP5 DP5 DP5 DP5 DP5 DP5 DP5 DP5 DP5 DP5 DP5 DP5 DP5 DP5 DP5 DP5 DP5 DP5 DP5 DP5 DP5 DP5 DP5 DP5 DP5 DP5  ;J7 ;J7 ;J7 ;J7 ;J7 ;J7 ;J7 ;J7 ;J7 ;J7 ;J7 ;J7 ;J7 ;J7 ;7 ;H7 ;H7 ;H7 ;H7 ;H7 ;H7 ;H7 ;H7 ;H7 ;H7 ;H7 ;H7 ;H7 ;H7 ;7 ;J7 ;J7 ;J7 ;J7 ;J7 ;J7 ;J7 ;J7 ;J7 ;J7 ;J7 ;J7 ;J7 ;J7 ;J7 ;J7 ;J7 ;J7 ;J7 ;J7 ;J7 ;J7 ;J7 ;J7 ;J7 ;J7 ;J7 ;J7 ;J7 ;J ;J+ ;J+ ;J+ ;J+ ;J+ ;J+ ;J+ ;J+ ;J+ ;J+ ;J+ ;J+ ;J+ ;J+ ;J+ ;J+ ;J+ ;J+ ;J+ ;J+ ;J+ ;J+ ;J+ ;J+ ;J+ ;J+ ;J+ ;J+ ;J+ + <H+ <H+ <H+ <H+ <H+ <H+ <H+ <H+ <H+ <H+ <H+ <H+ <H+ <H+ <H+ <H+ <H+ <H+ <H+ <H+ <H+ <H+ <H+ <H+ <H+ <H+ <H+ <H+ <H+  <H0 <H0 <H0 <H0 <H0 <H0 <H0 <H0 <H0 <H0 <H0 <H0 <H0 <H0 <H0 <H0 <H0 <H0 <H0 <H0 <H0 <H0 <H0 <H0 <H0 <H0 <H0 <H0 <H0 <0 <K0 <K0 <K0 <K0 <K0 <K0 <K0 <K0 <K0 <K0 <K0 <K0 <K0 <K0 <K0 <K0 <K0 <K0 <K0 <K0 <K0 <K0 <K0 <K0 <K0 <K0 <K0 <K0 <K0 0 >O0 >O0 >O0 >O0 >O0 >O0 >O0 >O0 >O0 >O0 >O0 >O0 >O0 >O0 O0 ?O0 ?O0 ?O0 ?O0 ?O0 ?O0 ?O0 ?O0 ?O0 ?O0 ?O0 ?O0 ?O0 ?O0 0 AG0 AG0 AG0 AG0 AG0 AG0 AG0 AG0 AG0 AG0 AG0 AG0 AG0 AG0 AG0 AG0 AG0 AG0 AG0 AG0 AG0 AG0 AG0 AG0 AG0 AG0 AG0 AG0 AG0  ?H ?H ?H ?H ?H ?H ?H ?H ?H ?H ?H ?H ?H ?H ?H ?H ?H ?H ?H ?H ?H ?H ?H ?H ?H ?H ?H ?H ?H ? ?K ?K ?K ?K ?K ?K ?K ?K ?K ?K ?K ?K ?K ?K ?K ?K ?K ?K ?K ?K ?K ?K ?K ?K ?K ?K ?K ?K ?K  >O+ >O+ >O+ >O+ >O+ >O+ >O+ >O+ >O+ >O+ >O+ >O+ >O+ >O+ O+ ?O+ ?O+ ?O+ ?O+ ?O+ ?O+ ?O+ ?O+ ?O+ ?O+ ?O+ ?O+ ?O+ ?O+ + AG+ AG+ AG+ AG+ AG+ AG+ AG+ AG+ AG+ AG+ AG+ AG+ AG+ AG+ AG+ AG+ AG+ AG+ AG+ AG+ AG+ AG+ AG+ AG+ AG+ AG+ AG+ AG+ AG+  ?H0 ?H0 ?H0 ?H0 ?H0 ?H0 ?H0 ?H0 ?H0 ?H0 ?H0 ?H0 ?H0 ?H0 ?H0 ?H0 ?H0 ?H0 ?H0 ?H0 ?H0 ?H0 ?H0 ?H0 ?H0 ?H0 ?H0 ?H0 ?H0 ?0 ?K0 ?K0 ?K0 ?K0 ?K0 ?K0 ?K0 ?K0 ?K0 ?K0 ?K0 ?K0 ?K0 ?K0 ?K0 ?K0 ?K0 ?K0 ?K0 ?K0 ?K0 ?K0 ?K0 ?K0 ?K0 ?K0 ?K0 ?K0 ?K0  7O< 7O< 7O< 7O< 7O< 7O< 7O< 7O< 7O< 7O< 7O< 7O< 7O< 7O< 7O< 7O< 7O< 7O< 7O< 7O< 7O< 7O< 7O< 7O< 7O< 7O< 7O< 7O< 7O<  ?H: ?H: ?H: ?H: ?H: ?H: ?H: ?H: ?H: ?H: ?H: ?H: ?H: ?H: ?H: ?H: ?H: ?H: ?H: ?H: ?H: ?H: ?H: ?H: ?H: ?H: ?H: ?H: ?H:  8T8 8T8 8T8 8T8 8T8 8T8 8T8 8T8 8T8 8T8 8T8 8T8 8T8 8T8 8T8 8T8 8T8 8T8 8T8 8T8 8T8 8T8 8T8 8T8 8T8 8T8 8T8 8T8 8T8 T AT7 AT7 AT7 AT7 AT7 AT7 AT7 AT7 AT7 AT7 AT7 AT7 AT7 AT7 AT7 AT7 AT7 AT7 AT7 AT7 AT7 AT7 AT7 AT7 AT7 AT7 AT7 AT7 AT7 T :T5 :T5 :T5 :T5 :T5 :T5 :T5 :T5 :T5 :T5 :T5 :T5 :T5 :T5 :T5 :T5 :T5 :T5 :T5 :T5 :T5 :T5 :T5 :T5 :T5 :T5 :T5 :T5 :T5 T CT4 CT4 CT4 CT4 CT4 CT4 CT4 CT4 CT4 CT4 CT4 CT4 CT4 CT4 CT4 CT4 CT4 CT4 CT4 CT4 CT4 CT4 CT4 CT4 CT4 CT4 CT4 CT4 CT4 T DT5 DT5 DT5 DT5 DT5 DT5 DT5 DT5 DT5 DT5 DT5 DT5 DT5 DT5 DT5 DT5 DT5 DT5 DT5 DT5 DT5 DT5 DT5 DT5 DT5 DT5 DT5 DT5 DT5 D5 DR5 DR5 DR5 DR5 DR5 DR5 DR5 DR5 DR5 DR5 DR5 DR5 DR5 DR5 DR5 DR5 DR5 DR5 DR5 DR5 DR5 DR5 DR5 DR5 DR5 DR5 DR5 DR5 DR5 5 <P5 <P5 <P5 <P5 <P5 <P5 <P5 <P5 <P5 <P5 <P5 <P5 <P5 <P5 P5 >P5 >P5 >P5 >P5 >P5 >P5 >P5 >P5 >P5 >P5 >P5 >P5 >P5 >P5 5 ?O5 ?O5 ?O5 ?O5 ?O5 ?O5 ?O5 ?O5 ?O5 ?O5 ?O5 ?O5 ?O5 ?O5 ?O5 ?O5 ?O5 ?O5 ?O5 ?O5 ?O5 ?O5 ?O5 ?O5 ?O5 ?O5 ?O5 ?O5 ?O5  >M >M >M >M >M >M >M >M >M >M >M >M >M >M >M >M >M >M >M >M >M >M >M >M >M >M >M >M >M > >O >O >O >O >O >O >O >O >O >O >O >O >O >O >O >O >O >O >O >O >O >O >O >O >O >O >O >O >O  <P) <P) <P) <P) <P) <P) <P) <P) <P) <P) <P) <P) <P) <P) P) >P) >P) >P) >P) >P) >P) >P) >P) >P) >P) >P) >P) >P) >P) P) ?P) ?P) ?P) ?P) ?P) ?P) ?P) ?P) ?P) ?P) ?P) ?P) ?P) ?P) ?P) ?P) ?P) ?P) ?P) ?P) ?P) ?P) ?P) ?P) ?P) ?P) ?P) ?P) ?P) P >P. >P. >P. >P. >P. >P. >P. >P. >P. >P. >P. >P. >P. >P. >P. >P. >P. >P. >P. >P. >P. >P. >P. >P. >P. >P. >P. >P. >P. >. >J. >J. >J. >J. >J. >J. >J. >J. >J. >J. >J. >J. >J. >J. >J. >J. >J. >J. >J. >J. >J. >J. >J. >J. >J. >J. >J. >J. >J.  5M: 5M: 5M: 5M: 5M: 5M: 5M: 5M: 5M: 5M: 5M: 5M: 5M: 5M: 5M: 5M: 5M: 5M: 5M: 5M: 5M: 5M: 5M: 5M: 5M: 5M: 5M: 5M: 5M:  >F8 >F8 >F8 >F8 >F8 >F8 >F8 >F8 >F8 >F8 >F8 >F8 >F8 >F8 >F8 >F8 >F8 >F8 >F8 >F8 >F8 >F8 >F8 >F8 >F8 >F8 >F8 >F8 >F8  7R7 7R7 7R7 7R7 7R7 7R7 7R7 7R7 7R7 7R7 7R7 7R7 7R7 7R7 7R7 7R7 7R7 7R7 7R7 7R7 7R7 7R7 7R7 7R7 7R7 7R7 7R7 7R7 7R7 R ?R5 ?R5 ?R5 ?R5 ?R5 ?R5 ?R5 ?R5 ?R5 ?R5 ?R5 ?R5 ?R5 ?R5 ?R5 ?R5 ?R5 ?R5 ?R5 ?R5 ?R5 ?R5 ?R5 ?R5 ?R5 ?R5 ?R5 ?R5 ?R5 R 8R3 8R3 8R3 8R3 8R3 8R3 8R3 8R3 8R3 8R3 8R3 8R3 8R3 8R3 8R3 8R3 8R3 8R3 8R3 8R3 8R3 8R3 8R3 8R3 8R3 8R3 8R3 8R3 8R3 R AR2 AR2 AR2 AR2 AR2 AR2 AR2 AR2 AR2 AR2 AR2 AR2 AR2 AR2 AR2 AR2 AR2 AR2 AR2 AR2 AR2 AR2 AR2 AR2 AR2 AR2 AR2 AR2 AR2 R CR3 CR3 CR3 CR3 CR3 CR3 CR3 CR3 CR3 CR3 CR3 CR3 CR3 CR3 CR3 CR3 CR3 CR3 CR3 CR3 CR3 CR3 CR3 CR3 CR3 CR3 CR3 CR3 CR3 C3 CP3 CP3 CP3 CP3 CP3 CP3 CP3 CP3 CP3 CP3 CP3 CP3 CP3 CP3 CP3 CP3 CP3 CP3 CP3 CP3 CP3 CP3 CP3 CP3 CP3 CP3 CP3 CP3 CP3 3 :O3 :O3 :O3 :O3 :O3 :O3 :O3 :O3 :O3 :O3 :O3 :O3 :O3 :O3 O3 <O3 <O3 <O3 <O3 <O3 <O3 <O3 <O3 <O3 <O3 <O3 <O3 <O3 <O3 3 =M3 =M3 =M3 =M3 =M3 =M3 =M3 =M3 =M3 =M3 =M3 =M3 =M3 =M3 =M3 =M3 =M3 =M3 =M3 =M3 =M3 =M3 =M3 =M3 =M3 =M3 =M3 =M3 =M3  <K <K <K <K <K <K <K <K <K <K <K <K <K <K <K <K <K <K <K <K <K <K <K <K <K <K <K <K <K < <M <M <M <M <M <M <M <M <M <M <M <M <M <M <M <M <M <M <M <M <M <M <M <M <M <M <M <M <M  :O' :O' :O' :O' :O' :O' :O' :O' :O' :O' :O' :O' :O' :O' O' <O' <O' <O' <O' <O' <O' <O' <O' <O' <O' <O' <O' <O' <O' O' =O' =O' =O' =O' =O' =O' =O' =O' =O' =O' =O' =O' =O' =O' =O' =O' =O' =O' =O' =O' =O' =O' =O' =O' =O' =O' =O' =O' =O' O <O, <O, <O, <O, <O, <O, <O, <O, <O, <O, <O, <O, <O, <O, <O, <O, <O, <O, <O, <O, <O, <O, <O, <O, <O, <O, <O, <O, <O, <, <H, <H, <H, <H, <H, <H, <H, <H, <H, <H, <H, <H, <H, <H, <H, <H, <H, <H, <H, <H, <H, <H, <H, <H, <H, <H, <H, <H, <H,  <K8 <K8 <K8 <K8 <K8 <K8 <K8 <K8 <K8 <K8 <K8 <K8 <K8 <K8 <K8 <K8 <K8 <K8 <K8 <K8 <K8 <K8 <K8 <K8 <K8 <K8 <K8 <K8 <K8  DD7 DD7 DD7 DD7 DD7 DD7 DD7 DD7 DD7 DD7 DD7 DD7 DD7 DD7 DD7 DD7 DD7 DD7 DD7 DD7 DD7 DD7 DD7 DD7 DD7 DD7 DD7 DD7 DD7  >P5 >P5 >P5 >P5 >P5 >P5 >P5 >P5 >P5 >P5 >P5 >P5 >P5 >P5 >P5 >P5 >P5 >P5 >P5 >P5 >P5 >P5 >P5 >P5 >P5 >P5 >P5 >P5 >P5 5 DJ5 DJ5 DJ5 DJ5 DJ5 DJ5 DJ5 DJ5 DJ5 DJ5 DJ5 DJ5 DJ5 DJ5 DJ5 DJ5 DJ5 DJ5 DJ5 DJ5 DJ5 DJ5 DJ5 DJ5 DJ5 DJ5 DJ5 DJ5 DJ5  CK3 CK3 CK3 CK3 CK3 CK3 CK3 CK3 CK3 CK3 CK3 CK3 CK3 CK3 CK3 CK3 CK3 CK3 CK3 CK3 CK3 CK3 CK3 CK3 CK3 CK3 CK3 CK3 CK3 3 ?H3 ?H3 ?H3 ?H3 ?H3 ?H3 ?H3 ?H3 ?H3 ?H3 ?H3 ?H3 ?H3 ?H3 ?H3 ?H3 ?H3 ?H3 ?H3 ?H3 ?H3 ?H3 ?H3 ?H3 ?H3 ?H3 ?H3 ?H3 ?H3  AJ: AJ: AJ: AJ: AJ: AJ: AJ: AJ: AJ: AJ: AJ: AJ: AJ: AJ: AJ: AJ: AJ: AJ: AJ: AJ: AJ: AJ: AJ: AJ: AJ: AJ: AJ: AJ: AJ: : ?K: ?K: ?K: ?K: ?K: ?K: ?K: ?K: ?K: ?K: ?K: ?K: ?K: ?K: ?K: ?K: ?K: ?K: ?K: ?K: ?K: ?K: ?K: ?K: ?K: ?K: ?K: ?K: ?K:  >M8 >M8 >M8 >M8 >M8 >M8 >M8 >M8 >M8 >M8 >M8 >M8 >M8 >M8 >M8 >M8 >M8 >M8 >M8 >M8 >M8 >M8 >M8 >M8 >M8 >M8 >M8 >M8 >M8  ?O7 ?O7 ?O7 ?O7 ?O7 ?O7 ?O7 ?O7 ?O7 ?O7 ?O7 ?O7 ?O7 ?O7 ?O7 ?O7 ?O7 ?O7 ?O7 ?O7 ?O7 ?O7 ?O7 ?O7 ?O7 ?O7 ?O7 ?O7 ?O7  AP5 AP5 AP5 AP5 AP5 AP5 AP5 AP5 AP5 AP5 AP5 AP5 AP5 AP5 AP5 AP5 AP5 AP5 AP5 AP5 AP5 AP5 AP5 AP5 AP5 AP5 AP5 AP5 AP5 A5 AM5 AM5 AM5 AM5 AM5 AM5 AM5 AM5 AM5 AM5 AM5 AM5 AM5 AM5 AM5 AM5 AM5 AM5 AM5 AM5 AM5 AM5 AM5 AM5 AM5 AM5 AM5 AM5 AM5 A AJ7 AJ7 AJ7 AJ7 AJ7 AJ7 AJ7 AJ7 AJ7 AJ7 AJ7 AJ7 AJ7 AJ7 AJ7 AJ7 AJ7 AJ7 AJ7 AJ7 AJ7 AJ7 AJ7 AJ7 AJ7 AJ7 AJ7 AJ7 AJ7 A7 AM7 AM7 AM7 AM7 AM7 AM7 AM7 AM7 AM7 AM7 AM7 AM7 AM7 AM7 AM7 AM7 AM7 AM7 AM7 AM7 AM7 AM7 AM7 AM7 AM7 AM7 AM7 AM7 AM7 A AF8 AF8 AF8 AF8 AF8 AF8 AF8 AF8 AF8 AF8 AF8 AF8 AF8 AF8 AF8 AF8 AF8 AF8 AF8 AF8 AF8 AF8 AF8 AF8 AF8 AF8 AF8 AF8 AF8 8 ?H8 ?H8 ?H8 ?H8 ?H8 ?H8 ?H8 ?H8 ?H8 ?H8 ?H8 ?H8 ?H8 ?H8 ?H8 ?H8 ?H8 ?H8 ?H8 ?H8 ?H8 ?H8 ?H8 ?H8 ?H8 ?H8 ?H8 ?H8 ?H8  AJ8 AJ8 AJ8 AJ8 AJ8 AJ8 AJ8 AJ8 AJ8 AJ8 AJ8 AJ8 AJ8 AJ8 AJ8 AJ8 AJ8 AJ8 AJ8 AJ8 AJ8 AJ8 AJ8 AJ8 AJ8 AJ8 AJ8 AJ8 AJ8 8 CK8 CK8 CK8 CK8 CK8 CK8 CK8 CK8 CK8 CK8 CK8 CK8 CK8 CK8 CK8 CK8 CK8 CK8 CK8 CK8 CK8 CK8 CK8 CK8 CK8 CK8 CK8 CK8 CK8  DM8 DM8 DM8 DM8 DM8 DM8 DM8 DM8 DM8 DM8 DM8 DM8 DM8 DM8 DM8 DM8 DM8 DM8 DM8 DM8 DM8 DM8 DM8 DM8 DM8 DM8 DM8 DM8 DM8 8 FJ8 FJ8 FJ8 FJ8 FJ8 FJ8 FJ8 FJ8 FJ8 FJ8 FJ8 FJ8 FJ8 FJ8 FJ8 FJ8 FJ8 FJ8 FJ8 FJ8 FJ8 FJ8 FJ8 FJ8 FJ8 FJ8 FJ8 FJ8 FJ8  CF8 CF8 CF8 CF8 CF8 CF8 CF8 CF8 CF8 CF8 CF8 CF8 CF8 CF8 CF8 CF8 CF8 CF8 CF8 CF8 CF8 CF8 CF8 CF8 CF8 CF8 CF8 CF8 CF8 8 DJ8 DJ8 DJ8 DJ8 DJ8 DJ8 DJ8 DJ8 DJ8 DJ8 DJ8 DJ8 DJ8 DJ8 DJ8 DJ8 DJ8 DJ8 DJ8 DJ8 DJ8 DJ8 DJ8 DJ8 DJ8 DJ8 DJ8 DJ8 DJ8  FK7 FK7 FK7 FK7 FK7 FK7 FK7 FK7 FK7 FK7 FK7 FK7 FK7 FK7 FK7 FK7 FK7 FK7 FK7 FK7 FK7 FK7 FK7 FK7 FK7 FK7 FK7 FK7 FK7 K7 >K7 >K7 >K7 >K7 >K7 >K7 >K7 >K7 >K7 >K7 >K7 >K7 >K7 >K7 >K7 >K7 >K7 >K7 >K7 >K7 >K7 >K7 >K7 >K7 >K7 >K7 >K7 >K7 >K7  ?R7 ?R7 ?R7 ?R7 ?R7 ?R7 ?R7 ?R7 ?R7 ?R7 ?R7 ?R7 ?R7 ?R7 ?R7 ?R7 ?R7 ?R7 ?R7 ?R7 ?R7 ?R7 ?R7 ?R7 ?R7 ?R7 ?R7 ?R7 ?R7 ? ?J5 ?J5 ?J5 ?J5 ?J5 ?J5 ?J5 ?J5 ?J5 ?J5 ?J5 ?J5 ?J5 ?J5 ?J5 ?J5 ?J5 ?J5 ?J5 ?J5 ?J5 ?J5 ?J5 ?J5 ?J5 ?J5 ?J5 ?J5 ?J5 ? ?J7 ?J7 ?J7 ?J7 ?J7 ?J7 ?J7 ?J7 ?J7 ?J7 ?J7 ?J7 ?J7 ?J7 ?J7 ?J7 ?J7 ?J7 ?J7 ?J7 ?J7 ?J7 ?J7 ?J7 ?J7 ?J7 ?J7 ?J7 ?J7 7 FK7 FK7 FK7 FK7 FK7 FK7 FK7 FK7 FK7 FK7 FK7 FK7 FK7 FK7 FK7 FK7 FK7 FK7 FK7 FK7 FK7 FK7 FK7 FK7 FK7 FK7 FK7 FK7 FK7 K CK3 CK3 CK3 CK3 CK3 CK3 CK3 CK3 CK3 CK3 CK3 CK3 CK3 CK3 CK3 CK3 CK3 CK3 CK3 CK3 CK3 CK3 CK3 CK3 CK3 CK3 CK3 CK3 CK3 K3 ?K3 ?K3 ?K3 ?K3 ?K3 ?K3 ?K3 ?K3 ?K3 ?K3 ?K3 ?K3 ?K3 ?K3 ?K3 ?K3 ?K3 ?K3 ?K3 ?K3 ?K3 ?K3 ?K3 ?K3 ?K3 ?K3 ?K3 ?K3 ?K3 K HK8 HK8 HK8 HK8 HK8 HK8 HK8 HK8 HK8 HK8 HK8 HK8 HK8 HK8 HK8 HK8 HK8 HK8 HK8 HK8 HK8 HK8 HK8 HK8 HK8 HK8 HK8 HK8 HK8 HK8 >K8 >K8 >K8 >K8 >K8 >K8 >K8 >K8 >K8 >K8 >K8 >K8 >K8 >K8 >K8 >K8 >K8 >K8 >K8 >K8 >K8 >K8 >K8 >K8 >K8 >K8 >K8 >K8 >K8  ?T, ?T, ?T, ?T, ?T, ?T, ?T, ?T, ?T, ?T, ?T, ?T, ?T, ?T, ?T, ?T, ?T, ?T, ?T, ?T, ?T, ?T, ?T, ?T, ?T, ?T, ?T, ?T, ?T, ?, ?J, ?J, ?J, ?J, ?J, ?J, ?J, ?J, ?J, ?J, ?J, ?J, ?J, ?J, ?J, ?J, ?J, ?J, ?J, ?J, ?J, ?J, ?J, ?J, ?J, ?J, ?J, ?J, ?J, ? ?J8 ?J8 ?J8 ?J8 ?J8 ?J8 ?J8 ?J8 ?J8 ?J8 ?J8 ?J8 ?J8 ?J8 ?J8 ?J8 ?J8 ?J8 ?J8 ?J8 ?J8 ?J8 ?J8 ?J8 ?J8 ?J8 ?J8 ?J8 ?J8 8 HK8 HK8 HK8 HK8 HK8 HK8 HK8 HK8 HK8 HK8 HK8 HK8 HK8 HK8 HK8 HK8 HK8 HK8 HK8 HK8 HK8 HK8 HK8 HK8 HK8 HK8 HK8 HK8 HK8 K DK5 DK5 DK5 DK5 DK5 DK5 DK5 DK5 DK5 DK5 DK5 DK5 DK5 DK5 DK5 DK5 DK5 DK5 DK5 DK5 DK5 DK5 DK5 DK5 DK5 DK5 DK5 DK5 DK5 K5 AK5 AK5 AK5 AK5 AK5 AK5 AK5 AK5 AK5 AK5 AK5 AK5 AK5 AK5 AK5 AK5 AK5 AK5 AK5 AK5 AK5 AK5 AK5 AK5 AK5 AK5 AK5 AK5 AK5 K FK7 FK7 FK7 FK7 FK7 FK7 FK7 FK7 FK7 FK7 FK7 FK7 FK7 FK7 FK7 FK7 FK7 FK7 FK7 FK7 FK7 FK7 FK7 FK7 FK7 FK7 FK7 FK7 FK7 K7 >K7 >K7 >K7 >K7 >K7 >K7 >K7 >K7 >K7 >K7 >K7 >K7 >K7 >K7 >K7 >K7 >K7 >K7 >K7 >K7 >K7 >K7 >K7 >K7 >K7 >K7 >K7 >K7 >K7  ?R3 ?R3 ?R3 ?R3 ?R3 ?R3 ?R3 ?R3 ?R3 ?R3 ?R3 ?R3 ?R3 ?R3 ?R3 ?R3 ?R3 ?R3 ?R3 ?R3 ?R3 ?R3 ?R3 ?R3 ?R3 ?R3 ?R3 ?R3 ?R3 3 CJ3 CJ3 CJ3 CJ3 CJ3 CJ3 CJ3 CJ3 CJ3 CJ3 CJ3 CJ3 CJ3 CJ3 CJ3 CJ3 CJ3 CJ3 CJ3 CJ3 CJ3 CJ3 CJ3 CJ3 CJ3 CJ3 CJ3 CJ3 CJ3  HJ8 HJ8 HJ8 HJ8 HJ8 HJ8 HJ8 HJ8 HJ8 HJ8 HJ8 HJ8 HJ8 HJ8 HJ8 HJ8 HJ8 HJ8 HJ8 HJ8 HJ8 HJ8 HJ8 HJ8 HJ8 HJ8 HJ8 HJ8 HJ8 8 >K8 >K8 >K8 >K8 >K8 >K8 >K8 >K8 >K8 >K8 >K8 >K8 >K8 >K8 >K8 >K8 >K8 >K8 >K8 >K8 >K8 >K8 >K8 >K8 >K8 >K8 >K8 >K8 >K8  ?T5 ?T5 ?T5 ?T5 ?T5 ?T5 ?T5 ?T5 ?T5 ?T5 ?T5 ?T5 ?T5 ?T5 ?T5 ?T5 ?T5 ?T5 ?T5 ?T5 ?T5 ?T5 ?T5 ?T5 ?T5 ?T5 ?T5 ?T5 ?T5 5 HJ5 HJ5 HJ5 HJ5 HJ5 HJ5 HJ5 HJ5 HJ5 HJ5 HJ5 HJ5 HJ5 HJ5 HJ5 HJ5 HJ5 HJ5 HJ5 HJ5 HJ5 HJ5 HJ5 HJ5 HJ5 HJ5 HJ5 HJ5 HJ5  FK7 FK7 FK7 FK7 FK7 FK7 FK7 FK7 FK7 FK7 FK7 FK7 FK7 FK7 FK7 FK7 FK7 FK7 FK7 FK7 FK7 FK7 FK7 FK7 FK7 FK7 FK7 FK7 FK7 F7 FP7 FP7 FP7 FP7 FP7 FP7 FP7 FP7 FP7 FP7 FP7 FP7 FP7 FP7 FP7 FP7 FP7 FP7 FP7 FP7 FP7 FP7 FP7 FP7 FP7 FP7 FP7 FP7 FP7 F ?O8 ?O8 ?O8 ?O8 ?O8 ?O8 ?O8 ?O8 ?O8 ?O8 ?O8 ?O8 ?O8 ?O8 ?O8 ?O8 ?O8 ?O8 ?O8 ?O8 ?O8 ?O8 ?O8 ?O8 ?O8 ?O8 ?O8 ?O8 ?O8 ?8 ?M8 ?M8 ?M8 ?M8 ?M8 ?M8 ?M8 ?M8 ?M8 ?M8 ?M8 ?M8 ?M8 ?M8 ?M8 ?M8 ?M8 ?M8 ?M8 ?M8 ?M8 ?M8 ?M8 ?M8 ?M8 ?M8 ?M8 ?M8 ?M8 ? :M: :M: :M: :M: :M: :M: :M: :M: :M: :M: :M: :M: :M: :M: :M: :M: :M: :M: :M: :: :O: :O: :O: :O: :O: :O: :O: :O: :O: :O: :O: :O: :O: :O: :O: :O: :O: :O: :O: :: :M: :M: :M: :M: :M: :M: :M: :M: :M: :M: :M: :M: :M: :M: :M: :M: :M: :M: :M: : AO. AO. AO. AO. AO. AO. AO. AO. AO. AO. AO. AO. AO. AO. A. AM. AM. AM. AM. AM. AM. AM. AM. AM. AM. AM. AM. AM. AM. A. AK. AK. AK. AK. AK. AK. AK. AK. AK. AK. AK. AK. AK. AK. AK. AK. AK. AK. AK. AK. AK. AK. AK. AK. AK. AK. AK. AK. AK.  3K' 3K' 3K' 3K' 3K' 3K' 3K' 3K' 3K' 3K' 3K' 3K' 3K' 3K' 3K' 3K' 3K' 3K' 3K' 3K' 3K' 3K' 3K' 3K' 3K' 3K' 3K' 3K' 3K' K' 7K' 7K' 7K' 7K' 7K' 7K' 7K' 7K' 7K' 7K' 7K' 7K' 7K' 7K' 7K' 7K' 7K' 7K' 7K' 7K' 7K' 7K' 7K' 7K' 7K' 7K' 7K' 7K' 7K' ' :M' :M' :M' :M' :M' :M' :M' :M' :M' :M' :M' :M' :M' :M' :' :O' :O' :O' :O' :O' :O' :O' :O' :O' :O' :O' :O' :O' :O' ' 2P' 2P' 2P' 2P' 2P' 2P' 2P' 2P' 2P' 2P' 2P' 2P' 2P' 2P' 2P' 2P' 2P' 2P' 2P' 2P' 2P' 2P' 2P' 2P' 2P' 2P' 2P' 2P' 2P'  3O 3O 3O 3O 3O 3O 3O 3O 3O 3O 3O 3O 3O 3O 3O 3O 3O 3O 3O 3O 3O 3O 3O 3O 3O 3O 3O 3O 3O O 7O 7O 7O 7O 7O 7O 7O 7O 7O 7O 7O 7O 7O 7O 7O 7O 7O 7O 7O 7O 7O 7O 7O 7O 7O 7O 7O 7O 7O  :M" :M" :M" :M" :M" :M" :M" :M" :M" :M" :M" :M" :M" :M" :" :O" :O" :O" :O" :O" :O" :O" :O" :O" :O" :O" :O" :O" :O" " 2P" 2P" 2P" 2P" 2P" 2P" 2P" 2P" 2P" 2P" 2P" 2P" 2P" 2P" 2P" 2P" 2P" 2P" 2P" 2P" 2P" 2P" 2P" 2P" 2P" 2P" 2P" 2P" 2P"  3O' 3O' 3O' 3O' 3O' 3O' 3O' 3O' 3O' 3O' 3O' 3O' 3O' 3O' 3O' 3O' 3O' 3O' 3O' 3O' 3O' 3O' 3O' 3O' 3O' 3O' 3O' 3O' 3O' O' 7O' 7O' 7O' 7O' 7O' 7O' 7O' 7O' 7O' 7O' 7O' 7O' 7O' 7O' 7O' 7O' 7O' 7O' 7O' 7O' 7O' 7O' 7O' 7O' 7O' 7O' 7O' 7O' 7O'  :F3 :F3 :F3 :F3 :F3 :F3 :F3 :F3 :F3 :F3 :F3 :F3 :F3 :F3 :F3 :F3 :F3 :F3 :F3 :F3 :F3 :F3 :F3 :F3 :F3 :F3 :F3 :F3 :F3  3O1 3O1 3O1 3O1 3O1 3O1 3O1 3O1 3O1 3O1 3O1 3O1 3O1 3O1 3O1 3O1 3O1 3O1 3O1 3O1 3O1 3O1 3O1 3O1 3O1 3O1 3O1 3O1 3O1  ?H0 ?H0 ?H0 ?H0 ?H0 ?H0 ?H0 ?H0 ?H0 ?H0 ?H0 ?H0 ?H0 ?H0 ?H0 ?H0 ?H0 ?H0 ?H0 ?H0 ?H0 ?H0 ?H0 ?H0 ?H0 ?H0 ?H0 ?H0 ?H0 ? ?P. ?P. ?P. ?P. ?P. ?P. ?P. ?P. ?P. ?P. ?P. ?P. ?P. ?P. ?P. ?P. ?P. ?P. ?P. ?P. ?P. ?P. ?P. ?P. ?P. ?P. ?P. ?P. ?P. ? ?I, ?I, ?I, ?I, ?I, ?I, ?I, ?I, ?I, ?I, ?I, ?I, ?I, ?I, ?I, ?I, ?I, ?I, ?I, ?I, ?I, ?I, ?I, ?I, ?I, ?I, ?I, ?I, ?I, ? ?R+ ?R+ ?R+ ?R+ ?R+ ?R+ ?R+ ?R+ ?R+ ?R+ ?R+ ?R+ ?R+ ?R+ ?R+ ?R+ ?R+ ?R+ ?R+ ?R+ ?R+ ?R+ ?R+ ?R+ ?R+ ?R+ ?R+ ?R+ ?R+ ? ?R, ?R, ?R, ?R, ?R, ?R, ?R, ?R, ?R, ?R, ?R, ?R, ?R, ?R, ?R, ?R, ?R, ?R, ?R, ?R, ?R, ?R, ?R, ?R, ?R, ?R, ?R, ?R, ?R, , =T, =T, =T, =T, =T, =T, =T, =T, =T, =T, =T, =T, =T, =T, =T, =T, =T, =T, =T, =T, =T, =T, =T, =T, =T, =T, =T, =T, =T, , <K, <K, <K, <K, <K, <K, <K, <K, <K, <K, <K, <K, <K, <K, <, <M, <M, <M, <M, <M, <M, <M, <M, <M, <M, <M, <M, <M, <M, , :O, :O, :O, :O, :O, :O, :O, :O, :O, :O, :O, :O, :O, :O, :O, :O, :O, :O, :O, :O, :O, :O, :O, :O, :O, :O, :O, :O, :O,  <M <M <M <M <M <M <M <M <M <M <M <M <M <M <M <M <M <M <M <M <M <M <M <M <M <M <M <M <M M >M >M >M >M >M >M >M >M >M >M >M >M >M >M >M >M >M >M >M >M >M >M >M >M >M >M >M >M >M  ?K, ?K, ?K, ?K, ?K, ?K, ?K, ?K, ?K, ?K, ?K, ?K, ?K, ?K, ?, ?M, ?M, ?M, ?M, ?M, ?M, ?M, ?M, ?M, ?M, ?M, ?M, ?M, ?M, ?, ?O, ?O, ?O, ?O, ?O, ?O, ?O, ?O, ?O, ?O, ?O, ?O, ?O, ?O, ?O, ?O, ?O, ?O, ?O, ?O, ?O, ?O, ?O, ?O, ?O, ?O, ?O, ?O, ?O, ? ?M& ?M& ?M& ?M& ?M& ?M& ?M& ?M& ?M& ?M& ?M& ?M& ?M& ?M& ?M& ?M& ?M& ?M& ?M& ?M& ?M& ?M& ?M& ?M& ?M& ?M& ?M& ?M& ?M& M& 8M& 8M& 8M& 8M& 8M& 8M& 8M& 8M& 8M& 8M& 8M& 8M& 8M& 8M& 8M& 8M& 8M& 8M& 8M& 8M& 8M& 8M& 8M& 8M& 8M& 8M& 8M& 8M& 8M&  <D2 <D2 <D2 <D2 <D2 <D2 <D2 <D2 <D2 <D2 <D2 <D2 <D2 <D2 <D2 <D2 <D2 <D2 <D2 <D2 <D2 <D2 <D2 <D2 <D2 <D2 <D2 <D2 <D2  5M0 5M0 5M0 5M0 5M0 5M0 5M0 5M0 5M0 5M0 5M0 5M0 5M0 5M0 5M0 5M0 5M0 5M0 5M0 5M0 5M0 5M0 5M0 5M0 5M0 5M0 5M0 5M0 5M0  >F. >F. >F. >F. >F. >F. >F. >F. >F. >F. >F. >F. >F. >F. >F. >F. >F. >F. >F. >F. >F. >F. >F. >F. >F. >F. >F. >F. >F. > >O, >O, >O, >O, >O, >O, >O, >O, >O, >O, >O, >O, >O, >O, >O, >O, >O, >O, >O, >O, >O, >O, >O, >O, >O, >O, >O, >O, >O, > >H+ >H+ >H+ >H+ >H+ >H+ >H+ >H+ >H+ >H+ >H+ >H+ >H+ >H+ >H+ >H+ >H+ >H+ >H+ >H+ >H+ >H+ >H+ >H+ >H+ >H+ >H+ >H+ >H+ > >P) >P) >P) >P) >P) >P) >P) >P) >P) >P) >P) >P) >P) >P) >P) >P) >P) >P) >P) >P) >P) >P) >P) >P) >P) >P) >P) >P) >P) > >P+ >P+ >P+ >P+ >P+ >P+ >P+ >P+ >P+ >P+ >P+ >P+ >P+ >P+ >P+ >P+ >P+ >P+ >P+ >P+ >P+ >P+ >P+ >P+ >P+ >P+ >P+ >P+ >P+ + <R+ <R+ <R+ <R+ <R+ <R+ <R+ <R+ <R+ <R+ <R+ <R+ <R+ <R+ <R+ <R+ <R+ <R+ <R+ <R+ <R+ <R+ <R+ <R+ <R+ <R+ <R+ <R+ <R+ + :J+ :J+ :J+ :J+ :J+ :J+ :J+ :J+ :J+ :J+ :J+ :J+ :J+ :J+ :+ :K+ :K+ :K+ :K+ :K+ :K+ :K+ :K+ :K+ :K+ :K+ :K+ :K+ :K+ + 8M+ 8M+ 8M+ 8M+ 8M+ 8M+ 8M+ 8M+ 8M+ 8M+ 8M+ 8M+ 8M+ 8M+ 8M+ 8M+ 8M+ 8M+ 8M+ 8M+ 8M+ 8M+ 8M+ 8M+ 8M+ 8M+ 8M+ 8M+ 8M+  7K 7K 7K 7K 7K 7K 7K 7K 7K 7K 7K 7K 7K 7K 7K 7K 7K 7K 7K 7K 7K 7K 7K 7K 7K 7K 7K 7K 7K K 8K 8K 8K 8K 8K 8K 8K 8K 8K 8K 8K 8K 8K 8K 8K 8K 8K 8K 8K 8K 8K 8K 8K 8K 8K 8K 8K 8K 8K  :J+ :J+ :J+ :J+ :J+ :J+ :J+ :J+ :J+ :J+ :J+ :J+ :J+ :J+ :+ :K+ :K+ :K+ :K+ :K+ :K+ :K+ :K+ :K+ :K+ :K+ :K+ :K+ :K+ :+ :M+ :M+ :M+ :M+ :M+ :M+ :M+ :M+ :M+ :M+ :M+ :M+ :M+ :M+ :M+ :M+ :M+ :M+ :M+ :M+ :M+ :M+ :M+ :M+ :M+ :M+ :M+ :M+ :M+ : :K$ :K$ :K$ :K$ :K$ :K$ :K$ :K$ :K$ :K$ :K$ :K$ :K$ :K$ :K$ :K$ :K$ :K$ :K$ :K$ :K$ :K$ :K$ :K$ :K$ :K$ :K$ :K$ :K$ K$ 3K$ 3K$ 3K$ 3K$ 3K$ 3K$ 3K$ 3K$ 3K$ 3K$ 3K$ 3K$ 3K$ 3K$ 3K$ 3K$ 3K$ 3K$ 3K$ 3K$ 3K$ 3K$ 3K$ 3K$ 3K$ 3K$ 3K$ 3K$ 3K$  7C0 7C0 7C0 7C0 7C0 7C0 7C0 7C0 7C0 7C0 7C0 7C0 7C0 7C0 7C0 7C0 7C0 7C0 7C0 7C0 7C0 7C0 7C0 7C0 7C0 7C0 7C0 7C0 7C0  0K. 0K. 0K. 0K. 0K. 0K. 0K. 0K. 0K. 0K. 0K. 0K. 0K. 0K. 0K. 0K. 0K. 0K. 0K. 0K. 0K. 0K. 0K. 0K. 0K. 0K. 0K. 0K. 0K.  <D, <D, <D, <D, <D, <D, <D, <D, <D, <D, <D, <D, <D, <D, <D, <D, <D, <D, <D, <D, <D, <D, <D, <D, <D, <D, <D, <D, <D, < <M+ <M+ <M+ <M+ <M+ <M+ <M+ <M+ <M+ <M+ <M+ <M+ <M+ <M+ <M+ <M+ <M+ <M+ <M+ <M+ <M+ <M+ <M+ <M+ <M+ <M+ <M+ <M+ <M+ < <F) <F) <F) <F) <F) <F) <F) <F) <F) <F) <F) <F) <F) <F) <F) <F) <F) <F) <F) <F) <F) <F) <F) <F) <F) <F) <F) <F) <F) < <O' <O' <O' <O' <O' <O' <O' <O' <O' <O' <O' <O' <O' <O' <O' <O' <O' <O' <O' <O' <O' <O' <O' <O' <O' <O' <O' <O' <O' < <P) <P) <P) <P) <P) <P) <P) <P) <P) <P) <P) <P) <P) <P) <P) <P) <P) <P) <P) <P) <P) <P) <P) <P) <P) <P) <P) <P) <P) ) :O) :O) :O) :O) :O) :O) :O) :O) :O) :O) :O) :O) :O) :O) :O) :O) :O) :O) :O) :O) :O) :O) :O) :O) :O) :O) :O) :O) :O)  8M5 8M5 8M5 8M5 8M5 8M5 8M5 8M5 8M5 8M5 8M5 8M5 8M5 8M5 8M5 8M5 8M5 8M5 8M5 8M5 8M5 8M5 8M5 8M5 8M5 8M5 8M5 8M5 8M5  7O3 7O3 7O3 7O3 7O3 7O3 7O3 7O3 7O3 7O3 7O3 7O3 7O3 7O3 7O3 7O3 7O3 7O3 7O3 7O3 7O3 7O3 7O3 7O3 7O3 7O3 7O3 7O3 7O3  5P2 5P2 5P2 5P2 5P2 5P2 5P2 5P2 5P2 5P2 5P2 5P2 5P2 5P2 5P2 5P2 5P2 5P2 5P2 5P2 5P2 5P2 5P2 5P2 5P2 5P2 5P2 5P2 5P2 P2 3P2 3P2 3P2 3P2 3P2 3P2 3P2 3P2 3P2 3P2 3P2 3P2 3P2 3P2 3P2 3P2 3P2 3P2 3P2 3P2 3P2 3P2 3P2 3P2 3P2 3P2 3P2 3P2 3P2 P 2P5 2P5 2P5 2P5 2P5 2P5 2P5 2P5 2P5 2P5 2P5 2P5 2P5 2P5 2P5 2P5 2P5 2P5 2P5 2P5 2P5 2P5 2P5 2P5 2P5 2P5 2P5 2P5 2P5 P5 0P5 0P5 0P5 0P5 0P5 0P5 0P5 0P5 0P5 0P5 0P5 0P5 0P5 0P5 0P5 0P5 0P5 0P5 0P5 0P5 0P5 0P5 0P5 0P5 0P5 0P5 0P5 0P5 0P5 P 2P. 2P. 2P. 2P. 2P. 2P. 2P. 2P. 2P. 2P. 2P. 2P. 2P. 2P. 2P. 2P. 2P. 2P. 2P. 2P. 2P. 2P. 2P. 2P. 2P. 2P. 2P. 2P. 2P. . :O. :O. :O. :O. :O. :O. :O. :O. :O. :O. :O. :O. :O. :O. :O. :O. :O. :O. :O. :O. :O. :O. :O. :O. :O. :O. :O. :O. :O.  3M. 3M. 3M. 3M. 3M. 3M. 3M. 3M. 3M. 3M. 3M. 3M. 3M. 3M. 3M. 3M. 3M. 3M. 3M. 3M. 3M. 3M. 3M. 3M. 3M. 3M. 3M. 3M. 3M. . :O. :O. :O. :O. :O. :O. :O. :O. :O. :O. :O. :O. :O. :O. :O. :O. :O. :O. :O. :O. :O. :O. :O. :O. :O. :O. :O. :O. :O.  5P. 5P. 5P. 5P. 5P. 5P. 5P. 5P. 5P. 5P. 5P. 5P. 5P. 5P. 5P. 5P. 5P. 5P. 5P. 5P. 5P. 5P. 5P. 5P. 5P. 5P. 5P. 5P. 5P. . :O. :O. :O. :O. :O. :O. :O. :O. :O. :O. :O. :O. :O. :O. :O. :O. :O. :O. :O. :O. :O. :O. :O. :O. :O. :O. :O. :O. :O.  2P. 2P. 2P. 2P. 2P. 2P. 2P. 2P. 2P. 2P. 2P. 2P. 2P. 2P. 2P. 2P. 2P. 2P. 2P. 2P. 2P. 2P. 2P. 2P. 2P. 2P. 2P. 2P. 2P. . :M. :M. :M. :M. :M. :M. :M. :M. :M. :M. :M. :M. :M. :M. :M. :M. :M. :M. :M. :M. :M. :M. :M. :M. :M. :M. :M. :M. :M.  3O. 3O. 3O. 3O. 3O. 3O. 3O. 3O. 3O. 3O. 3O. 3O. 3O. 3O. 3O. 3O. 3O. 3O. 3O. 3O. 3O. 3O. 3O. 3O. 3O. 3O. 3O. 3O. 3O. . :M. :M. :M. :M. :M. :M. :M. :M. :M. :M. :M. :M. :M. :M. :M. :M. :M. :M. :M. :M. :M. :M. :M. :M. :M. :M. :M. :M. :M.  5K. 5K. 5K. 5K. 5K. 5K. 5K. 5K. 5K. 5K. 5K. 5K. 5K. 5K. 5K. 5K. 5K. 5K. 5K. 5K. 5K. 5K. 5K. 5K. 5K. 5K. 5K. 5K. 5K. . :J. :J. :J. :J. :J. :J. :J. :J. :J. :J. :J. :J. :J. :J. :J. :J. :J. :J. :J. :J. :J. :J. :J. :J. :J. :J. :J. :J. :J.  7K. 7K. 7K. 7K. 7K. 7K. 7K. 7K. 7K. 7K. 7K. 7K. 7K. 7K. 7K. 7K. 7K. 7K. 7K. 7K. 7K. 7K. 7K. 7K. 7K. 7K. 7K. 7K. 7K. . :O. :O. :O. :O. :O. :O. :O. :O. :O. :O. :O. :O. :O. :O. :O. :O. :O. :O. :O. :O. :O. :O. :O. :O. :O. :O. :O. :O. :O.  3R. 3R. 3R. 3R. 3R. 3R. 3R. 3R. 3R. 3R. 3R. 3R. 3R. 3R. 3R. 3R. 3R. 3R. 3R. 3R. 3R. 3R. 3R. 3R. 3R. 3R. 3R. 3R. 3R. . :K. :K. :K. :K. :K. :K. :K. :K. :K. :K. :K. :K. :K. :K. :K. :K. :K. :K. :K. :K. :K. :K. :K. :K. :K. :K. :K. :K. :K.  5J. 5J. 5J. 5J. 5J. 5J. 5J. 5J. 5J. 5J. 5J. 5J. 5J. 5J. 5J. 5J. 5J. 5J. 5J. 5J. 5J. 5J. 5J. 5J. 5J. 5J. 5J. 5J. 5J. . :H. :H. :H. :H. :H. :H. :H. :H. :H. :H. :H. :H. :H. :H. :H. :H. :H. :H. :H. :H. :H. :H. :H. :H. :H. :H. :H. :H. :H.  7F. 7F. 7F. 7F. 7F. 7F. 7F. 7F. 7F. 7F. 7F. 7F. 7F. 7F. 7F. 7F. 7F. 7F. 7F. 7F. 7F. 7F. 7F. 7F. 7F. 7F. 7F. 7F. 7F. . :H. :H. :H. :H. :H. :H. :H. :H. :H. :H. :H. :H. :H. :H. :H. :H. :H. :H. :H. :H. :H. :H. :H. :H. :H. :H. :H. :H. :H.  8J. 8J. 8J. 8J. 8J. 8J. 8J. 8J. 8J. 8J. 8J. 8J. 8J. 8J. 8J. 8J. 8J. 8J. 8J. 8J. 8J. 8J. 8J. 8J. 8J. 8J. 8J. 8J. 8J. . :K. :K. :K. :K. :K. :K. :K. :K. :K. :K. :K. :K. :K. :K. :K. :K. :K. :K. :K. :K. :K. :K. :K. :K. :K. :K. :K. :K. :K.  5M. 5M. 5M. 5M. 5M. 5M. 5M. 5M. 5M. 5M. 5M. 5M. 5M. 5M. 5M. 5M. 5M. 5M. 5M. 5M. 5M. 5M. 5M. 5M. 5M. 5M. 5M. 5M. 5M. . 8J. 8J. 8J. 8J. 8J. 8J. 8J. 8J. 8J. 8J. 8J. 8J. 8J. 8J. 8J. 8J. 8J. 8J. 8J. 8J. 8J. 8J. 8J. 8J. 8J. 8J. 8J. 8J. 8J.  7K' 7K' 7K' 7K' 7K' 7K' 7K' 7K' 7K' 7K' 7K' 7K' 7K' 7K' 7K' 7K' 7K' 7K' 7K' 7K' 7K' 7K' 7K' 7K' 7K' 7K' 7K' 7K' 7K' 7K' 7K' 7K' 7K' 7K' 7K' 7K' 7K' 7K' 7K' 7K' 7K' 7K' 7K' 7K' 7K' 7K' 7K' 7K' 7K' 7K' 7K' 7K' 7K' 7K' 7K' 7K' 7K' 7K' 7K'  FCF? FCF? FCF? FCF? FCF? FCF? FCF? FCF? FCF? FCF? FCF? FCF? FCF? FCF? FCF? FCF? FCF? FCF? FCF? FCF? FCF? FCF? FCF? FCF? FCF? FCF? FCF? FCF? FCF? FF FAF> FAF> FAF> FAF> FAF> FAF> FAF> FAF> FAF> FAF> FAF> FAF> FAF> FAF> FAF> FAF> FAF> FAF> FAF> FAF> FAF> FAF> FAF> FAF> FAF> FAF> FAF> FAF> FAF> F FFC? FFC? FFC? FFC? FFC? FFC? FFC? FFC? FFC? FFC? FFC? FFC? FFC? FFC? FFC? FFC? FFC? FFC? FFC? FFC? FFC? FFC? FFC? FFC? FFC? FFC? FFC? FFC? FFC? FFC? FFC? FFC? FFC? FFC? FFC? FFC? FFC? FFC? FFC? FFC? FFC? FFC? FFC? FFC? FFC? FFC? FFC? FFC? FFC? FFC? FFC? FFC? FFC? FFC? FFC? FFC? FFC? FFC? FFC? FC FC?: FC?: FC?: FC?: FC?: FC?: FC?: FC?: FC?: FC?: FC?: FC?: FC?: FC?: FC?: FC?: FC?: FC?: FC?: FC?: FC?: FC?: FC?: FC?: FC?: FC?: FC?: FC?: FC?: F? FA?8 FA?8 FA?8 FA?8 FA?8 FA?8 FA?8 FA?8 FA?8 FA?8 FA?8 FA?8 FA?8 FA?8 FA?8 FA?8 FA?8 FA?8 FA?8 FA?8 FA?8 FA?8 FA?8 FA?8 FA?8 FA?8 FA?8 FA?8 FA?8 F? FC?: FC?: FC?: FC?: FC?: FC?: FC?: FC?: FC?: FC?: FC?: FC?: FC?: FC?: FC?: FC?: FC?: FC?: FC?: FC?: FC?: FC?: FC?: FC?: FC?: FC?: FC?: FC?: FC?: FC?: FC?: FC?: FC?: FC?: FC?: FC?: FC?: FC?: FC?: FC?: FC?: FC?: FC?: FC?: FC?: FC?: FC?: FC?: FC?: FC?: FC?: FC?: FC?: FC?: FC?: FC?: FC?: FC?: FC?: F F?:7 F?:7 F?:7 F?:7 F?:7 F?:7 F?:7 F?:7 F?:7 F?:7 F?:7 F?:7 F?:7 F?:7 F?:7 F?:7 F?:7 F?:7 F?:7 F?:7 F?:7 F?:7 F?:7 F?:7 F?:7 F?:7 F?:7 F?:7 F?:7 F F>85 F>85 F>85 F>85 F>85 F>85 F>85 F>85 F>85 F>85 F>85 F>85 F>85 F>85 F>85 F>85 F>85 F>85 F>85 F>85 F>85 F>85 F>85 F>85 F>85 F>85 F>85 F>85 F>85 F F?:7 F?:7 F?:7 F?:7 F?:7 F?:7 F?:7 F?:7 F?:7 F?:7 F?:7 F?:7 F?:7 F?:7 F?:7 F?:7 F?:7 F?:7 F?:7 F?:7 F?:7 F?:7 F?:7 F?:7 F?:7 F?:7 F?:7 F?:7 F?:7 F?:7 F?:7 F?:7 F?:7 F?:7 F?:7 F?:7 F?:7 F?:7 F?:7 F?:7 F?:7 F?:7 F?:7 F?:7 F?:7 F?:7 F?:7 F?:7 F?:7 F?:7 F?:7 F?:7 F?:7 F?:7 F?:7 F?:7 F?:7 F?:7 F?:7 F FC:3 FC:3 FC:3 FC:3 FC:3 FC:3 FC:3 FC:3 FC:3 FC:3 FC:3 FC:3 FC:3 FC:3 FC:3 FC:3 FC:3 FC:3 FC:3 FC:3 FC:3 FC:3 FC:3 FC:3 FC:3 FC:3 FC:3 FC:3 FC:3 F: FA:2 FA:2 FA:2 FA:2 FA:2 FA:2 FA:2 FA:2 FA:2 FA:2 FA:2 FA:2 FA:2 FA:2 FA:2 FA:2 FA:2 FA:2 FA:2 FA:2 FA:2 FA:2 FA:2 FA:2 FA:2 FA:2 FA:2 FA:2 FA:2 F: FC:3 FC:3 FC:3 FC:3 FC:3 FC:3 FC:3 FC:3 FC:3 FC:3 FC:3 FC:3 FC:3 FC:3 FC:3 FC:3 FC:3 FC:3 FC:3 FC:3 FC:3 FC:3 FC:3 FC:3 FC:3 FC:3 FC:3 FC:3 FC:3 F:3 DF:3 DF:3 DF:3 DF:3 DF:3 DF:3 DF:3 DF:3 DF:3 DF:3 DF:3 DF:3 DF:3 DF:3 DF:3 DF:3 DF:3 DF:3 DF:3 DF:3 DF:3 DF:3 DF:3 DF:3 DF:3 DF:3 DF:3 DF:3 DF:3 : FK7 FK7 FK7 FK7 FK7 FK7 FK7 FK7 FK7 FK7 FK7 FK7 FK7 FK7 FK7 FK7 FK7 FK7 FK7 FK7 FK7 FK7 FK7 FK7 FK7 FK7 FK7 FK7 FK7 7 AJ7 AJ7 AJ7 AJ7 AJ7 AJ7 AJ7 AJ7 AJ7 AJ7 AJ7 AJ7 AJ7 AJ7 AJ7 AJ7 AJ7 AJ7 AJ7 AJ7 AJ7 AJ7 AJ7 AJ7 AJ7 AJ7 AJ7 AJ7 AJ7  CJ: CJ: CJ: CJ: CJ: CJ: CJ: CJ: CJ: CJ: CJ: CJ: CJ: CJ: CJ: CJ: CJ: CJ: CJ: CJ: CJ: CJ: CJ: CJ: CJ: CJ: CJ: CJ: CJ: : AK: AK: AK: AK: AK: AK: AK: AK: AK: AK: AK: AK: AK: AK: AK: AK: AK: AK: AK: AK: AK: AK: AK: AK: AK: AK: AK: AK: AK: K CK? CK? CK? CK? CK? CK? CK? CK? CK? CK? CK? CK? CK? CK? CK? CK? CK? CK? CK? CK? CK? CK? CK? CK? CK? CK? CK? CK? CK? ? ?O? ?O? ?O? ?O? ?O? ?O? ?O? ?O? ?O? ?O? ?O? ?O? ?O? ?O? ?O? ?O? ?O? ?O? ?O? ?O? ?O? ?O? ?O? ?O? ?O? ?O? ?O? ?O? ?O?  >M: >M: >M: >M: >M: >M: >M: >M: >M: >M: >M: >M: >M: >M: >M: >M: >M: >M: >M: >M: >M: >M: >M: >M: >M: >M: >M: >M: >M: : ?K: ?K: ?K: ?K: ?K: ?K: ?K: ?K: ?K: ?K: ?K: ?K: ?K: ?K: ?K: ?K: ?K: ?K: ?K: ?K: ?K: ?K: ?K: ?K: ?K: ?K: ?K: ?K: ?K:  ?J. ?J. ?J. ?J. ?J. ?J. ?J. ?J. ?J. J. AJ. AJ. AJ. AJ. AJ. AJ. AJ. AJ. AJ. J. ?J. ?J. ?J. ?J. ?J. ?J. ?J. ?J. ?J. . >H. >H. >H. >H. >H. >H. >H. >H. >H. >H. >H. >H. >H. >H. H. ?H. ?H. ?H. ?H. ?H. ?H. ?H. ?H. ?H. ?H. ?H. ?H. ?H. ?H. . AF. AF. AF. AF. AF. AF. AF. AF. AF. AF. AF. AF. AF. AF. AF. AF. AF. AF. AF. AF. AF. AF. AF. AF. AF. AF. AF. AF. AF. F. CF, CF, CF, CF, CF, CF, CF, CF, CF, CF, CF, CF, CF, CF, F, AF, AF, AF, AF, AF, AF, AF, AF, AF, AF, AF, AF, AF, AF,  @U+ @U+ @U+ @U+ @U+ @U+ @U+ @U+ @U+ @U+ @U+ @U+ @U+ @U+ @U+ @U+ @U+ @U+ @U+ @U+ @U+ @U+ @U+ @U+ @U+ @U+ @U+ @U+ @U+  AT) AT) AT) AT) AT) AT) AT) AT) AT) AT) AT) AT) AT) AT) AT) AT) AT) AT) AT) AT) AT) AT) AT) AT) AT) AT) AT) AT) AT)  CU( CU( CU( CU( CU( CU( CU( CU( CU( CU( CU( CU( CU( CU( CU( CU( CU( CU( CU( CU( CU( CU( CU( CU( CU( CU( CU( CU( CU( CU( CU( CU( CU( CU( CU( CU( CU( CU( CU( CU( CU( CU( CU( CU( CU( CU( CU( CU( CU( CU( CU( CU( CU( CU( CU( CU( CU( CU( CU( C CR1 CR1 CR1 CR1 CR1 CR1 CR1 CR1 CR1 CR1 CR1 CR1 CR1 CR1 CR1 CR1 CR1 CR1 CR1 CR1 CR1 CR1 CR1 CR1 CR1 CR1 CR1 CR1 CR1 C CP0 CP0 CP0 CP0 CP0 CP0 CP0 CP0 CP0 CP0 CP0 CP0 CP0 CP0 CP0 CP0 CP0 CP0 CP0 CP0 CP0 CP0 CP0 CP0 CP0 CP0 CP0 CP0 CP0 C CR1 CR1 CR1 CR1 CR1 CR1 CR1 CR1 CR1 CR1 CR1 CR1 CR1 CR1 CR1 CR1 CR1 CR1 CR1 CR1 CR1 CR1 CR1 CR1 CR1 CR1 CR1 CR1 CR1 CR CR. CR. CR. CR. CR. CR. CR. CR. CR. CR. CR. CR. CR. CR. CR. CR. CR. CR. CR. CR. CR. CR. CR. CR. CR. CR. CR. CR. CR. C CO4 CO4 CO4 CO4 CO4 CO4 CO4 CO4 CO4 CO4 CO4 CO4 CO4 CO4 CO4 CO4 CO4 CO4 CO4 CO4 CO4 CO4 CO4 CO4 CO4 CO4 CO4 CO4 CO4 C CM2 CM2 CM2 CM2 CM2 CM2 CM2 CM2 CM2 CM2 CM2 CM2 CM2 CM2 CM2 CM2 CM2 CM2 CM2 CM2 CM2 CM2 CM2 CM2 CM2 CM2 CM2 CM2 CM2 C CO4 CO4 CO4 CO4 CO4 CO4 CO4 CO4 CO4 CO4 CO4 CO4 CO4 CO4 CO4 CO4 CO4 CO4 CO4 CO4 CO4 CO4 CO4 CO4 CO4 CO4 CO4 CO4 CO4 CO CO0 CO0 CO0 CO0 CO0 CO0 CO0 CO0 CO0 CO0 CO0 CO0 CO0 CO0 CO0 CO0 CO0 CO0 CO0 CO0 CO0 CO0 CO0 CO0 CO0 CO0 CO0 CO0 CO0 C CL7 CL7 CL7 CL7 CL7 CL7 CL7 CL7 CL7 CL7 CL7 CL7 CL7 CL7 CL7 CL7 CL7 CL7 CL7 CL7 CL7 CL7 CL7 CL7 CL7 CL7 CL7 CL7 CL7 C CJ5 CJ5 CJ5 CJ5 CJ5 CJ5 CJ5 CJ5 CJ5 CJ5 CJ5 CJ5 CJ5 CJ5 CJ5 CJ5 CJ5 CJ5 CJ5 CJ5 CJ5 CJ5 CJ5 CJ5 CJ5 CJ5 CJ5 CJ5 CJ5 C CL7 CL7 CL7 CL7 CL7 CL7 CL7 CL7 CL7 CL7 CL7 CL7 CL7 CL7 CL7 CL7 CL7 CL7 CL7 CL7 CL7 CL7 CL7 CL7 CL7 CL7 CL7 CL7 CL7 CL CL4 CL4 CL4 CL4 CL4 CL4 CL4 CL4 CL4 CL4 CL4 CL4 CL4 CL4 CL4 CL4 CL4 CL4 CL4 CL4 CL4 CL4 CL4 CL4 CL4 CL4 CL4 CL4 CL4 C CH7 CH7 CH7 CH7 CH7 CH7 CH7 CH7 CH7 CH7 CH7 CH7 CH7 CH7 CH7 CH7 CH7 CH7 CH7 CH7 CH7 CH7 CH7 CH7 CH7 CH7 CH7 CH7 CH7 C CF: CF: CF: CF: CF: CF: CF: CF: CF: CF: CF: CF: CF: CF: CF: CF: CF: CF: CF: CF: CF: CF: CF: CF: CF: CF: CF: CF: CF: C CH4 CH4 CH4 CH4 CH4 CH4 CH4 CH4 CH4 CH4 CH4 CH4 CH4 CH4 CH4 CH4 CH4 CH4 CH4 CH4 CH4 CH4 CH4 CH4 CH4 CH4 CH4 CH4 CH4 CH4 CH4 CH4 CH4 CH4 CH4 CH4 CH4 CH4 CH4 CH4 CH4 CH4 CH4 CH4 CH4 CH4 CH4 CH4 CH4 CH4 CH4 CH4 CH4 CH4 CH4 CH4 CH4 CH4 CH4 C <L7 <L7 <L7 <L7 <L7 <L7 <L7 <L7 <L7 <L7 <L7 <L7 <L7 <L7 <L7 <L7 <L7 <L7 <L7 <L7 <L7 <L7 <L7 <L7 <L7 <L7 <L7 <L7 <L7 L7 >L7 >L7 >L7 >L7 >L7 >L7 >L7 >L7 >L7 >L7 >L7 >L7 >L7 >L7 >L7 >L7 >L7 >L7 >L7 >L7 >L7 >L7 >L7 >L7 >L7 >L7 >L7 >L7 >L7  @O< @O< @O< @O< @O< @O< @O< @O< @O< @O< @O< @O< @O< @O< @O< @O< @O< @O< @O< @O< @O< @O< @O< @O< @O< @O< @O< @O< @O< O< AO< AO< AO< AO< AO< AO< AO< AO< AO< AO< AO< AO< AO< AO< AO< AO< AO< AO< AO< AO< AO< AO< AO< AO< AO< AO< AO< AO< AO<  CR0 CR0 CR0 CR0 CR0 CR0 CR0 CR0 CR0 CR0 CR0 CR0 CR0 CR0 CR0 CR0 CR0 CR0 CR0 CR0 CR0 CR0 CR0 CR0 CR0 CR0 CR0 CR0 CR0 R0 AR0 AR0 AR0 AR0 AR0 AR0 AR0 AR0 AR0 AR0 AR0 AR0 AR0 AR0 AR0 AR0 AR0 AR0 AR0 AR0 AR0 AR0 AR0 AR0 AR0 AR0 AR0 AR0 AR0  AR5 AR5 AR5 AR5 AR5 AR5 AR5 AR5 AR5 AR5 AR5 AR5 AR5 AR5 AR5 AR5 AR5 AR5 AR5 AR5 AR5 AR5 AR5 AR5 AR5 AR5 AR5 AR5 AR5 5 CP5 CP5 CP5 CP5 CP5 CP5 CP5 CP5 CP5 CP5 CP5 CP5 CP5 CP5 CP5 CP5 CP5 CP5 CP5 CP5 CP5 CP5 CP5 CP5 CP5 CP5 CP5 CP5 CP5 C CO7 CO7 CO7 CO7 CO7 CO7 CO7 CO7 CO7 CO7 CO7 CO7 CO7 CO7 CO7 CO7 CO7 CO7 CO7 CO7 CO7 CO7 CO7 CO7 CO7 CO7 CO7 CO7 CO7 C7 CP7 CP7 CP7 CP7 CP7 CP7 CP7 CP7 CP7 CP7 CP7 CP7 CP7 CP7 CP7 CP7 CP7 CP7 CP7 CP7 CP7 CP7 CP7 CP7 CP7 CP7 CP7 CP7 CP7  M8 M8 M8 M8 M8 M8 M8 M8 M8 M8 M8 M8 M8 M8 M8 M8 M8 M8 M8 M8 M8 M8 M8 M8 M8 M8 M8 M8 M8 8 T8 T8 T8 T8 T8 T8 T8 T8 T8 T8 T8 T8 T8 T8 T8 T8 T8 T8 T8 T8 T8 T8 T8 T8 T8 T8 T8 T8 T8  DS5 DS5 DS5 DS5 DS5 DS5 DS5 DS5 DS5 DS5 DS5 DS5 DS5 DS5 DS5 DS5 DS5 DS5 DS5 DS5 DS5 DS5 DS5 DS5 DS5 DS5 DS5 DS5 DS5 5 CT5 CT5 CT5 CT5 CT5 CT5 CT5 CT5 CT5 CT5 CT5 CT5 CT5 CT5 CT5 CT5 CT5 CT5 CT5 CT5 CT5 CT5 CT5 CT5 CT5 CT5 CT5 CT5 CT5  DV/ DV/ DV/ DV/ DV/ DV/ DV/ DV/ DV/ DV/ DV/ DV/ DV/ DV/ DV/ DV/ DV/ DV/ DV/ DV/ DV/ DV/ DV/ DV/ DV/ DV/ DV/ DV/ DV/ DV/ DV/ DV/ DV/ DV/ DV/ DV/ DV/ DV/ DV/ DV/ DV/ DV/ DV/ DV/ DV/ DV/ DV/ DV/ DV/ DV/ DV/ DV/ DV/ DV/ DV/ DV/ DV/ DV/ DV/ V AV8 AV8 AV8 AV8 AV8 AV8 AV8 AV8 AV8 AV8 AV8 AV8 AV8 AV8 AV8 AV8 AV8 AV8 AV8 AV8 AV8 AV8 AV8 AV8 AV8 AV8 AV8 AV8 AV8 V ?V7 ?V7 ?V7 ?V7 ?V7 ?V7 ?V7 ?V7 ?V7 ?V7 ?V7 ?V7 ?V7 ?V7 ?V7 ?V7 ?V7 ?V7 ?V7 ?V7 ?V7 ?V7 ?V7 ?V7 ?V7 ?V7 ?V7 ?V7 ?V7 V AV8 AV8 AV8 AV8 AV8 AV8 AV8 AV8 AV8 AV8 AV8 AV8 AV8 AV8 AV8 AV8 AV8 AV8 AV8 AV8 AV8 AV8 AV8 AV8 AV8 AV8 AV8 AV8 AV8 AV AV5 AV5 AV5 AV5 AV5 AV5 AV5 AV5 AV5 AV5 AV5 AV5 AV5 AV5 AV5 AV5 AV5 AV5 AV5 AV5 AV5 AV5 AV5 AV5 AV5 AV5 AV5 AV5 AV5 V >V; >V; >V; >V; >V; >V; >V; >V; >V; >V; >V; >V; >V; >V; >V; >V; >V; >V; >V; >V; >V; >V; >V; >V; >V; >V; >V; >V; >V; V <V9 <V9 <V9 <V9 <V9 <V9 <V9 <V9 <V9 <V9 <V9 <V9 <V9 <V9 <V9 <V9 <V9 <V9 <V9 <V9 <V9 <V9 <V9 <V9 <V9 <V9 <V9 <V9 <V9 V >V; >V; >V; >V; >V; >V; >V; >V; >V; >V; >V; >V; >V; >V; >V; >V; >V; >V; >V; >V; >V; >V; >V; >V; >V; >V; >V; >V; >V; >V >V7 >V7 >V7 >V7 >V7 >V7 >V7 >V7 >V7 >V7 >V7 >V7 >V7 >V7 >V7 >V7 >V7 >V7 >V7 >V7 >V7 >V7 >V7 >V7 >V7 >V7 >V7 >V7 >V7 V ;V> ;V> ;V> ;V> ;V> ;V> ;V> ;V> ;V> ;V> ;V> ;V> ;V> ;V> ;V> ;V> ;V> ;V> ;V> ;V> ;V> ;V> ;V> ;V> ;V> ;V> ;V> ;V> ;V> V 9V< 9V< 9V< 9V< 9V< 9V< 9V< 9V< 9V< 9V< 9V< 9V< 9V< 9V< 9V< 9V< 9V< 9V< 9V< 9V< 9V< 9V< 9V< 9V< 9V< 9V< 9V< 9V< 9V< V ;V> ;V> ;V> ;V> ;V> ;V> ;V> ;V> ;V> ;V> ;V> ;V> ;V> ;V> ;V> ;V> ;V> ;V> ;V> ;V> ;V> ;V> ;V> ;V> ;V> ;V> ;V> ;V> ;V> ;V ;V; ;V; ;V; ;V; ;V; ;V; ;V; ;V; ;V; ;V; ;V; ;V; ;V; ;V; ;V; ;V; ;V; ;V; ;V; ;V; ;V; ;V; ;V; ;V; ;V; ;V; ;V; ;V; ;V; V 7V> 7V> 7V> 7V> 7V> 7V> 7V> 7V> 7V> 7V> 7V> 7V> 7V> 7V> 7V> 7V> 7V> 7V> 7V> 7V> 7V> 7V> 7V> 7V> 7V> 7V> 7V> 7V> 7V> V 6VA 6VA 6VA 6VA 6VA 6VA 6VA 6VA 6VA 6VA 6VA 6VA 6VA 6VA 6VA 6VA 6VA 6VA 6VA 6VA 6VA 6VA 6VA 6VA 6VA 6VA 6VA 6VA 6VA V 7V; 7V; 7V; 7V; 7V; 7V; 7V; 7V; 7V; 7V; 7V; 7V; 7V; 7V; 7V; 7V; 7V; 7V; 7V; 7V; 7V; 7V; 7V; 7V; 7V; 7V; 7V; 7V; 7V; 7V; 7V; 7V; 7V; 7V; 7V; 7V; 7V; 7V; 7V; 7V; 7V; 7V; 7V; 7V; 7V; 7V; 7V; 7V; 7V; 7V; 7V; 7V; 7V; 7V; 7V; 7V; 7V; 7V; 7V; V ;O> ;O> ;O> ;O> ;O> ;O> ;O> ;O> ;O> ;O> ;O> ;O> ;O> ;O> ;O> ;O> ;O> ;O> ;O> ;O> ;O> ;O> ;O> ;O> ;O> ;O> ;O> ;O> ;O> ;> ;Q> ;Q> ;Q> ;Q> ;Q> ;Q> ;Q> ;Q> ;Q> ;Q> ;Q> ;Q> ;Q> ;Q> ;Q> ;Q> ;Q> ;Q> ;Q> ;Q> ;Q> ;Q> ;Q> ;Q> ;Q> ;Q> ;Q> ;Q> ;Q>  >S7 >S7 >S7 >S7 >S7 >S7 >S7 >S7 >S7 >S7 >S7 >S7 >S7 >S7 >S7 >S7 >S7 >S7 >S7 >S7 >S7 >S7 >S7 >S7 >S7 >S7 >S7 >S7 >S7 >7 >T7 >T7 >T7 >T7 >T7 >T7 >T7 >T7 >T7 >T7 >T7 >T7 >T7 >T7 >T7 >T7 >T7 >T7 >T7 >T7 >T7 >T7 >T7 >T7 >T7 >T7 >T7 >T7 >T7  AV+ AV+ AV+ AV+ AV+ AV+ AV+ AV+ AV+ AV+ AV+ AV+ AV+ AV+ AV+ AV+ AV+ AV+ AV+ AV+ AV+ AV+ AV+ AV+ AV+ AV+ AV+ AV+ AV+ A+ AS+ AS+ AS+ AS+ AS+ AS+ AS+ AS+ AS+ AS+ AS+ AS+ AS+ AS+ AS+ AS+ AS+ AS+ AS+ AS+ AS+ AS+ AS+ AS+ AS+ AS+ AS+ AS+ AS+  AT0 AT0 AT0 AT0 AT0 AT0 AT0 AT0 AT0 AT0 AT0 AT0 AT0 AT0 AT0 AT0 AT0 AT0 AT0 AT0 AT0 AT0 AT0 AT0 AT0 AT0 AT0 AT0 AT0 T0 ?T0 ?T0 ?T0 ?T0 ?T0 ?T0 ?T0 ?T0 ?T0 ?T0 ?T0 ?T0 ?T0 ?T0 ?T0 ?T0 ?T0 ?T0 ?T0 ?T0 ?T0 ?T0 ?T0 ?T0 ?T0 ?T0 ?T0 ?T0 ?T0 T >T$ >T$ >T$ >T$ >T$ >T$ >T$ >T$ >T$ >T$ >T$ >T$ >T$ >T$ >T$ >T$ >T$ >T$ >T$ >T$ >T$ >T$ >T$ >T$ >T$ >T$ >T$ >T$ >T$ T$ ?T$ ?T$ ?T$ ?T$ ?T$ ?T$ ?T$ ?T$ ?T$ ?T$ ?T$ ?T$ ?T$ ?T$ ?T$ ?T$ ?T$ ?T$ ?T$ ?T$ ?T$ ?T$ ?T$ ?T$ ?T$ ?T$ ?T$ ?T$ ?T$  <' <' <' <' <' <' <' <' <' <' <' <' <' <' <' <' <' <' <' <' <' <' <' <' <' <' <' <' <' ' ?H' ?H' ?H' ?H' ?H' ?H' ?H' ?H' ?H' ?H' ?H' ?H' ?H' ?H' ?H' ?H' ?H' ?H' ?H' ?H' ?H' ?H' ?H' ?H' ?H' ?H' ?H' ?H' ?H'  >G+ >G+ >G+ >G+ >G+ >G+ >G+ >G+ >G+ >G+ >G+ >G+ >G+ >G+ >G+ >G+ >G+ >G+ >G+ >G+ >G+ >G+ >G+ >G+ >G+ >G+ >G+ >G+ >G+ + AJ+ AJ+ AJ+ AJ+ AJ+ AJ+ AJ+ AJ+ AJ+ AJ+ AJ+ AJ+ AJ+ AJ+ AJ+ AJ+ AJ+ AJ+ AJ+ AJ+ AJ+ AJ+ AJ+ AJ+ AJ+ AJ+ AJ+ AJ+ AJ+  ?H0 ?H0 ?H0 ?H0 ?H0 ?H0 ?H0 ?H0 ?H0 ?H0 ?H0 ?H0 ?H0 ?H0 ?H0 ?H0 ?H0 ?H0 ?H0 ?H0 ?H0 ?H0 ?H0 ?H0 ?H0 ?H0 ?H0 ?H0 ?H0 ?0 ?K0 ?K0 ?K0 ?K0 ?K0 ?K0 ?K0 ?K0 ?K0 ?K0 ?K0 ?K0 ?K0 ?K0 ?K0 ?K0 ?K0 ?K0 ?K0 ?K0 ?K0 ?K0 ?K0 ?K0 ?K0 ?K0 ?K0 ?K0 ?K0  HO< HO< HO< HO< HO< HO< HO< HO< HO< HO< HO< HO< HO< HO< HO< HO< HO< HO< HO< HO< HO< HO< HO< HO< HO< HO< HO< HO< HO< H HJ; HJ; HJ; HJ; HJ; HJ; HJ; HJ; HJ; HJ; HJ; HJ; HJ; HJ; HJ; HJ; HJ; HJ; HJ; HJ; HJ; HJ; HJ; HJ; HJ; HJ; HJ; HJ; HJ;  EK< EK< EK< EK< EK< EK< EK< EK< EK< EK< EK< EK< EK< EK< EK< EK< EK< EK< EK< EK< EK< EK< EK< EK< EK< EK< EK< EK< EK< E< EQ< EQ< EQ< EQ< EQ< EQ< EQ< EQ< EQ< EQ< EQ< EQ< EQ< EQ< EQ< EQ< EQ< EQ< EQ< EQ< EQ< EQ< EQ< EQ< EQ< EQ< EQ< EQ< EQ<  AT9 AT9 AT9 AT9 AT9 AT9 AT9 AT9 AT9 AT9 AT9 AT9 AT9 AT9 AT9 AT9 AT9 AT9 AT9 AT9 AT9 AT9 AT9 AT9 AT9 AT9 AT9 AT9 AT9 A AJ7 AJ7 AJ7 AJ7 AJ7 AJ7 AJ7 AJ7 AJ7 AJ7 AJ7 AJ7 AJ7 AJ7 AJ7 AJ7 AJ7 AJ7 AJ7 AJ7 AJ7 AJ7 AJ7 AJ7 AJ7 AJ7 AJ7 AJ7 AJ7  <K9 <K9 <K9 <K9 <K9 <K9 <K9 <K9 <K9 <K9 <K9 <K9 <K9 <K9 <K9 <K9 <K9 <K9 <K9 <K9 <K9 <K9 <K9 <K9 <K9 <K9 <K9 <K9 <K9 <9 <Q9 <Q9 <Q9 <Q9 <Q9 <Q9 <Q9 <Q9 <Q9 <Q9 <Q9 <Q9 <Q9 <Q9 <Q9 <Q9 <Q9 <Q9 <Q9 <Q9 <Q9 <Q9 <Q9 <Q9 <Q9 <Q9 <Q9 <Q9 <Q9  9T5 9T5 9T5 9T5 9T5 9T5 9T5 9T5 9T5 9T5 9T5 9T5 9T5 9T5 9T5 9T5 9T5 9T5 9T5 9T5 9T5 9T5 9T5 9T5 9T5 9T5 9T5 9T5 9T5 9 9J4 9J4 9J4 9J4 9J4 9J4 9J4 9J4 9J4 9J4 9J4 9J4 9J4 9J4 9J4 9J4 9J4 9J4 9J4 9J4 9J4 9J4 9J4 9J4 9J4 9J4 9J4 9J4 9J4  5K5 5K5 5K5 5K5 5K5 5K5 5K5 5K5 5K5 5K5 5K5 5K5 5K5 5K5 5K5 5K5 5K5 5K5 5K5 5K5 5K5 5K5 5K5 5K5 5K5 5K5 5K5 5K5 5K5 55 5Q5 5Q5 5Q5 5Q5 5Q5 5Q5 5Q5 5Q5 5Q5 5Q5 5Q5 5Q5 5Q5 5Q5 5Q5 5Q5 5Q5 5Q5 5Q5 5Q5 5Q5 5Q5 5Q5 5Q5 5Q5 5Q5 5Q5 5Q5 5Q5  ?O) ?O) ?O) ?O) ?O) ?O) ?O) ?O) ?O) ?O) ?O) ?O) ?O) ?O) ?O) ?O) ?O) ?O) ?O) ?O) ?O) ?O) ?O) ?O) ?O) ?O) ?O) ?O) ?O) ?) ?Q) ?Q) ?Q) ?Q) ?Q) ?Q) ?Q) ?Q) ?Q) ?Q) ?Q) ?Q) ?Q) ?Q) ?Q) ?Q) ?Q) ?Q) ?Q) ?Q) ?Q) ?Q) ?Q) ?Q) ?Q) ?Q) ?Q) ?Q) ?Q)  >F. >F. >F. >F. >F. >F. >F. >F. >F. >F. >F. >F. >F. >F. >F. >F. >F. >F. >F. >F. >F. >F. >F. >F. >F. >F. >F. >F. >F. >. >J. >J. >J. >J. >J. >J. >J. >J. >J. >J. >J. >J. >J. >J. >J. >J. >J. >J. >J. >J. >J. >J. >J. >J. >J. >J. >J. >J. >J.  FM: FM: FM: FM: FM: FM: FM: FM: FM: FM: FM: FM: FM: FM: FM: FM: FM: FM: FM: FM: FM: FM: FM: FM: FM: FM: FM: FM: FM: F FH9 FH9 FH9 FH9 FH9 FH9 FH9 FH9 FH9 FH9 FH9 FH9 FH9 FH9 FH9 FH9 FH9 FH9 FH9 FH9 FH9 FH9 FH9 FH9 FH9 FH9 FH9 FH9 FH9  CJ: CJ: CJ: CJ: CJ: CJ: CJ: CJ: CJ: CJ: CJ: CJ: CJ: CJ: CJ: CJ: CJ: CJ: CJ: CJ: CJ: CJ: CJ: CJ: CJ: CJ: CJ: CJ: CJ: C: CO: CO: CO: CO: CO: CO: CO: CO: CO: CO: CO: CO: CO: CO: CO: CO: CO: CO: CO: CO: CO: CO: CO: CO: CO: CO: CO: CO: CO:  ?R7 ?R7 ?R7 ?R7 ?R7 ?R7 ?R7 ?R7 ?R7 ?R7 ?R7 ?R7 ?R7 ?R7 ?R7 ?R7 ?R7 ?R7 ?R7 ?R7 ?R7 ?R7 ?R7 ?R7 ?R7 ?R7 ?R7 ?R7 ?R7 ? ?H6 ?H6 ?H6 ?H6 ?H6 ?H6 ?H6 ?H6 ?H6 ?H6 ?H6 ?H6 ?H6 ?H6 ?H6 ?H6 ?H6 ?H6 ?H6 ?H6 ?H6 ?H6 ?H6 ?H6 ?H6 ?H6 ?H6 ?H6 ?H6  :J7 :J7 :J7 :J7 :J7 :J7 :J7 :J7 :J7 :J7 :J7 :J7 :J7 :J7 :J7 :J7 :J7 :J7 :J7 :J7 :J7 :J7 :J7 :J7 :J7 :J7 :J7 :J7 :J7 :7 :O7 :O7 :O7 :O7 :O7 :O7 :O7 :O7 :O7 :O7 :O7 :O7 :O7 :O7 :O7 :O7 :O7 :O7 :O7 :O7 :O7 :O7 :O7 :O7 :O7 :O7 :O7 :O7 :O7  7R3 7R3 7R3 7R3 7R3 7R3 7R3 7R3 7R3 7R3 7R3 7R3 7R3 7R3 7R3 7R3 7R3 7R3 7R3 7R3 7R3 7R3 7R3 7R3 7R3 7R3 7R3 7R3 7R3 7 7H2 7H2 7H2 7H2 7H2 7H2 7H2 7H2 7H2 7H2 7H2 7H2 7H2 7H2 7H2 7H2 7H2 7H2 7H2 7H2 7H2 7H2 7H2 7H2 7H2 7H2 7H2 7H2 7H2  3J3 3J3 3J3 3J3 3J3 3J3 3J3 3J3 3J3 3J3 3J3 3J3 3J3 3J3 3J3 3J3 3J3 3J3 3J3 3J3 3J3 3J3 3J3 3J3 3J3 3J3 3J3 3J3 3J3 33 3O3 3O3 3O3 3O3 3O3 3O3 3O3 3O3 3O3 3O3 3O3 3O3 3O3 3O3 3O3 3O3 3O3 3O3 3O3 3O3 3O3 3O3 3O3 3O3 3O3 3O3 3O3 3O3 3O3  >N' >N' >N' >N' >N' >N' >N' >N' >N' >N' >N' >N' >N' >N' >N' >N' >N' >N' >N' >N' >N' >N' >N' >N' >N' >N' >N' >N' >N' >' >O' >O' >O' >O' >O' >O' >O' >O' >O' >O' >O' >O' >O' >O' >O' >O' >O' >O' >O' >O' >O' >O' >O' >O' >O' >O' >O' >O' >O'  <E- <E- <E- <E- <E- <E- <E- <E- <E- <E- <E- <E- <E- <E- <E- <E- <E- <E- <E- <E- <E- <E- <E- <E- <E- <E- <E- <E- <E- <- <H- <H- <H- <H- <H- <H- <H- <H- <H- <H- <H- <H- <H- <H- <H- <H- <H- <H- <H- <H- <H- <H- <H- <H- <H- <H- <H- <H- <H-  EK9 EK9 EK9 EK9 EK9 EK9 EK9 EK9 EK9 EK9 EK9 EK9 EK9 EK9 EK9 EK9 EK9 EK9 EK9 EK9 EK9 EK9 EK9 EK9 EK9 EK9 EK9 EK9 EK9 E EF7 EF7 EF7 EF7 EF7 EF7 EF7 EF7 EF7 EF7 EF7 EF7 EF7 EF7 EF7 EF7 EF7 EF7 EF7 EF7 EF7 EF7 EF7 EF7 EF7 EF7 EF7 EF7 EF7  BH9 BH9 BH9 BH9 BH9 BH9 BH9 BH9 BH9 BH9 BH9 BH9 BH9 BH9 BH9 BH9 BH9 BH9 BH9 BH9 BH9 BH9 BH9 BH9 BH9 BH9 BH9 BH9 BH9 B9 BN9 BN9 BN9 BN9 BN9 BN9 BN9 BN9 BN9 BN9 BN9 BN9 BN9 BN9 BN9 BN9 BN9 BN9 BN9 BN9 BN9 BN9 BN9 BN9 BN9 BN9 BN9 BN9 BN9  >Q6 >Q6 >Q6 >Q6 >Q6 >Q6 >Q6 >Q6 >Q6 >Q6 >Q6 >Q6 >Q6 >Q6 >Q6 >Q6 >Q6 >Q6 >Q6 >Q6 >Q6 >Q6 >Q6 >Q6 >Q6 >Q6 >Q6 >Q6 >Q6 > >F4 >F4 >F4 >F4 >F4 >F4 >F4 >F4 >F4 >F4 >F4 >F4 >F4 >F4 >F4 >F4 >F4 >F4 >F4 >F4 >F4 >F4 >F4 >F4 >F4 >F4 >F4 >F4 >F4  9H6 9H6 9H6 9H6 9H6 9H6 9H6 9H6 9H6 9H6 9H6 9H6 9H6 9H6 9H6 9H6 9H6 9H6 9H6 9H6 9H6 9H6 9H6 9H6 9H6 9H6 9H6 9H6 9H6 96 9N6 9N6 9N6 9N6 9N6 9N6 9N6 9N6 9N6 9N6 9N6 9N6 9N6 9N6 9N6 9N6 9N6 9N6 9N6 9N6 9N6 9N6 9N6 9N6 9N6 9N6 9N6 9N6 9N6  6Q2 6Q2 6Q2 6Q2 6Q2 6Q2 6Q2 6Q2 6Q2 6Q2 6Q2 6Q2 6Q2 6Q2 6Q2 6Q2 6Q2 6Q2 6Q2 6Q2 6Q2 6Q2 6Q2 6Q2 6Q2 6Q2 6Q2 6Q2 6Q2 6 6F0 6F0 6F0 6F0 6F0 6F0 6F0 6F0 6F0 6F0 6F0 6F0 6F0 6F0 6F0 6F0 6F0 6F0 6F0 6F0 6F0 6F0 6F0 6F0 6F0 6F0 6F0 6F0 6F0  2H2 2H2 2H2 2H2 2H2 2H2 2H2 2H2 2H2 2H2 2H2 2H2 2H2 2H2 2H2 2H2 2H2 2H2 2H2 2H2 2H2 2H2 2H2 2H2 2H2 2H2 2H2 2H2 2H2 22 2N2 2N2 2N2 2N2 2N2 2N2 2N2 2N2 2N2 2N2 2N2 2N2 2N2 2N2 2N2 2N2 2N2 2N2 2N2 2N2 2N2 2N2 2N2 2N2 2N2 2N2 2N2 2N2 2N2  >L& >L& >L& >L& >L& >L& >L& >L& >L& >L& >L& >L& >L& >L& >L& >L& >L& >L& >L& >L& >L& >L& >L& >L& >L& >L& >L& >L& >L& >& >N& >N& >N& >N& >N& >N& >N& >N& >N& >N& >N& >N& >N& >N& >N& >N& >N& >N& >N& >N& >N& >N& >N& >N& >N& >N& >N& >N& >N&  >C+ >C+ >C+ >C+ >C+ >C+ >C+ >C+ >C+ >C+ >C+ >C+ >C+ >C+ >C+ >C+ >C+ >C+ >C+ >C+ >C+ >C+ >C+ >C+ >C+ >C+ >C+ >C+ >C+ >+ >F+ >F+ >F+ >F+ >F+ >F+ >F+ >F+ >F+ >F+ >F+ >F+ >F+ >F+ >F+ >F+ >F+ >F+ >F+ >F+ >F+ >F+ >F+ >F+ >F+ >F+ >F+ >F+ >F+  CJ7 CJ7 CJ7 CJ7 CJ7 CJ7 CJ7 CJ7 CJ7 CJ7 CJ7 CJ7 CJ7 CJ7 CJ7 CJ7 CJ7 CJ7 CJ7 CJ7 CJ7 CJ7 CJ7 CJ7 CJ7 CJ7 CJ7 CJ7 CJ7  BN9 BN9 BN9 BN9 BN9 BN9 BN9 BN9 BN9 BN9 BN9 BN9 BN9 BN9 BN9 BN9 BN9 BN9 BN9 BN9 BN9 BN9 BN9 BN9 BN9 BN9 BN9 BN9 BN9  CO: CO: CO: CO: CO: CO: CO: CO: CO: CO: CO: CO: CO: CO: CO: CO: CO: CO: CO: CO: CO: CO: CO: CO: CO: CO: CO: CO: CO: CO CO< CO< CO< CO< CO< CO< CO< CO< CO< CO< CO< CO< CO< CO< CO< CO< CO< CO< CO< CO< CO< CO< CO< CO< CO< CO< CO< CO< CO<  >J: >J: >J: >J: >J: >J: >J: >J: >J: >J: >J: >J: >J: >J: >J: >J: >J: >J: >J: >J: >J: >J: >J: >J: >J: >J: >J: >J: >J:  <H9 <H9 <H9 <H9 <H9 <H9 <H9 <H9 <H9 <H9 <H9 <H9 <H9 <H9 <H9 <H9 <H9 <H9 <H9 <H9 <H9 <H9 <H9 <H9 <H9 <H9 <H9 <H9 <H9  >J: >J: >J: >J: >J: >J: >J: >J: >J: >J: >J: >J: >J: >J: >J: >J: >J: >J: >J: >J: >J: >J: >J: >J: >J: >J: >J: >J: >J: >J >J9 >J9 >J9 >J9 >J9 >J9 >J9 >J9 >J9 >J9 >J9 >J9 >J9 >J9 >J9 >J9 >J9 >J9 >J9 >J9 >J9 >J9 >J9 >J9 >J9 >J9 >J9 >J9 >J9  :F7 :F7 :F7 :F7 :F7 :F7 :F7 :F7 :F7 :F7 :F7 :F7 :F7 :F7 :F7 :F7 :F7 :F7 :F7 :F7 :F7 :F7 :F7 :F7 :F7 :F7 :F7 :F7 :F7  9E6 9E6 9E6 9E6 9E6 9E6 9E6 9E6 9E6 9E6 9E6 9E6 9E6 9E6 9E6 9E6 9E6 9E6 9E6 9E6 9E6 9E6 9E6 9E6 9E6 9E6 9E6 9E6 9E6  :F7 :F7 :F7 :F7 :F7 :F7 :F7 :F7 :F7 :F7 :F7 :F7 :F7 :F7 :F7 :F7 :F7 :F7 :F7 :F7 :F7 :F7 :F7 :F7 :F7 :F7 :F7 :F7 :F7 :F :F2 :F2 :F2 :F2 :F2 :F2 :F2 :F2 :F2 :F2 :F2 :F2 :F2 :F2 :F2 :F2 :F2 :F2 :F2 :F2 :F2 :F2 :F2 :F2 :F2 :F2 :F2 :F2 :F2  7C7 7C7 7C7 7C7 7C7 7C7 7C7 7C7 7C7 7C7 7C7 7C7 7C7 7C7 7C7 7C7 7C7 7C7 7C7 7C7 7C7 7C7 7C7 7C7 7C7 7C7 7C7 7C7 7C7  6B9 6B9 6B9 6B9 6B9 6B9 6B9 6B9 6B9 6B9 6B9 6B9 6B9 6B9 6B9 6B9 6B9 6B9 6B9 6B9 6B9 6B9 6B9 6B9 6B9 6B9 6B9 6B9 6B9  7C: 7C: 7C: 7C: 7C: 7C: 7C: 7C: 7C: 7C: 7C: 7C: 7C: 7C: 7C: 7C: 7C: 7C: 7C: 7C: 7C: 7C: 7C: 7C: 7C: 7C: 7C: 7C: 7C: 7C 7C9 7C9 7C9 7C9 7C9 7C9 7C9 7C9 7C9 7C9 7C9 7C9 7C9 7C9 7C9 7C9 7C9 7C9 7C9 7C9 7C9 7C9 7C9 7C9 7C9 7C9 7C9 7C9 C9  :F7 :F7 :F7 :F7 :F7 :F7 :F7 :F7 :F7 :F7 :F7 :F7 :F7 :F7 :F7 :F7 :F7 :F7 :F7 :F7 :F7 :F7 :F7 :F7 :F7 :F7 :F7 :F7 :F7 :F :F9 :F9 :F9 :F9 :F9 :F9 :F9 :F9 :F9 :F9 :F9 :F9 :F9 :F9 :F9 :F9 :F9 :F9 :F9 :F9 :F9 :F9 :F9 :F9 :F9 :F9 :F9 :F9 F9  >J: >J: >J: >J: >J: >J: >J: >J: >J: >J: >J: >J: >J: >J: >J: >J: >J: >J: >J: >J: >J: >J: >J: >J: >J: >J: >J: >J: >J: >J >J9 >J9 >J9 >J9 >J9 >J9 >J9 >J9 >J9 >J9 >J9 >J9 >J9 >J9 >J9 >J9 >J9 >J9 >J9 >J9 >J9 >J9 >J9 >J9 >J9 >J9 >J9 >J9 J9  CO: CO: CO: CO: CO: CO: CO: CO: CO: CO: CO: CO: CO: CO: CO: CO: CO: CO: CO: CO: CO: CO: CO: CO: CO: CO: CO: CO: CO: CO CO7 CO7 CO7 CO7 CO7 CO7 CO7 CO7 CO7 CO7 CO7 CO7 CO7 CO7 CO7 CO7 CO7 CO7 CO7 CO7 CO7 CO7 CO7 CO7 CO7 CO7 CO7 CO7 O7  EQ> EQ> EQ> EQ> EQ> EQ> EQ> EQ> EQ> EQ> EQ> EQ> EQ> EQ> EQ> EQ> EQ> EQ> EQ> EQ> EQ> EQ> EQ> EQ> EQ> EQ> EQ> EQ> EQ> > CO> CO> CO> CO> CO> CO> CO> CO> CO> CO> CO> CO> CO> CO> CO> CO> CO> CO> CO> CO> CO> CO> CO> CO> CO> CO> CO> CO> CO>  BN2 BN2 BN2 BN2 BN2 BN2 BN2 BN2 BN2 BN2 BN2 BN2 BN2 BN2 BN2 BN2 BN2 BN2 BN2 BN2 BN2 BN2 BN2 BN2 BN2 BN2 BN2 BN2 BN2  @L4 @L4 @L4 @L4 @L4 @L4 @L4 @L4 @L4 @L4 @L4 @L4 @L4 @L4 @L4 @L4 @L4 @L4 @L4 @L4 @L4 @L4 @L4 @L4 @L4 @L4 @L4 @L4 @L4  >J6 >J6 >J6 >J6 >J6 >J6 >J6 >J6 >J6 >J6 >J6 >J6 >J6 >J6 >J6 >J6 >J6 >J6 >J6 >J6 >J6 >J6 >J6 >J6 >J6 >J6 >J6 >J6 >J6 6 ?H6 ?H6 ?H6 ?H6 ?H6 ?H6 ?H6 ?H6 ?H6 ?H6 ?H6 ?H6 ?H6 ?H6 ?H6 ?H6 ?H6 ?H6 ?H6 ?H6 ?H6 ?H6 ?H6 ?H6 ?H6 ?H6 ?H6 ?H6 ?H6  >F2 >F2 >F2 >F2 >F2 >F2 >F2 >F2 >F2 >F2 >F2 >F2 >F2 >F2 >F2 >F2 >F2 >F2 >F2 >F2 >F2 >F2 >F2 >F2 >F2 >F2 >F2 >F2 >F2 2 <E2 <E2 <E2 <E2 <E2 <E2 <E2 <E2 <E2 <E2 <E2 <E2 <E2 <E2 <E2 <E2 <E2 <E2 <E2 <E2 <E2 <E2 <E2 <E2 <E2 <E2 <E2 <E2 <E2  :C7 :C7 :C7 :C7 :C7 :C7 :C7 :C7 :C7 :C7 :C7 :C7 :C7 :C7 :C7 :C7 :C7 :C7 :C7 :C7 :C7 :C7 :C7 :C7 :C7 :C7 :C7 :C7 :C7 7 F7 F7 F7 F7 F7 F7 F7 F7 F7 F7 F7 F7 F7 F7 F7 F7 F7 F7 F7 F7 F7 F7 F7 F7 F7 F7 F7 F7 F7  9J+ 9J+ 9J+ 9J+ 9J+ 9J+ 9J+ 9J+ 9J+ 9J+ 9J+ 9J+ 9J+ 9J+ J+ :J+ :J+ :J+ :J+ :J+ :J+ :J+ :J+ :J+ :J+ :J+ :J+ :J+ :J+ + <B+ <B+ <B+ <B+ <B+ <B+ <B+ <B+ <B+ <B+ <B+ <B+ <B+ <B+ <B+ <B+ <B+ <B+ <B+ <B+ <B+ <B+ <B+ <B+ <B+ <B+ <B+ <B+ <B+  :C :C :C :C :C :C :C :C :C :C :C :C :C :C :C :C :C :C :C :C :C :C :C :C :C :C :C :C :C : :F :F :F :F :F :F :F :F :F :F :F :F :F :F :F :F :F :F :F :F :F :F :F :F :F :F :F :F :F  9J& 9J& 9J& 9J& 9J& 9J& 9J& 9J& 9J& 9J& 9J& 9J& 9J& 9J& J& :J& :J& :J& :J& :J& :J& :J& :J& :J& :J& :J& :J& :J& :J& & <B& <B& <B& <B& <B& <B& <B& <B& <B& <B& <B& <B& <B& <B& <B& <B& <B& <B& <B& <B& <B& <B& <B& <B& <B& <B& <B& <B& <B&  :C+ :C+ :C+ :C+ :C+ :C+ :C+ :C+ :C+ :C+ :C+ :C+ :C+ :C+ :C+ :C+ :C+ :C+ :C+ :C+ :C+ :C+ :C+ :C+ :C+ :C+ :C+ :C+ :C+ :+ :F+ :F+ :F+ :F+ :F+ :F+ :F+ :F+ :F+ :F+ :F+ :F+ :F+ :F+ :F+ :F+ :F+ :F+ :F+ :F+ :F+ :F+ :F+ :F+ :F+ :F+ :F+ :F+ :F+  2J7 2J7 2J7 2J7 2J7 2J7 2J7 2J7 2J7 2J7 2J7 2J7 2J7 2J7 2J7 2J7 2J7 2J7 2J7 2J7 2J7 2J7 2J7 2J7 2J7 2J7 2J7 2J7 2J7  ;C5 ;C5 ;C5 ;C5 ;C5 ;C5 ;C5 ;C5 ;C5 ;C5 ;C5 ;C5 ;C5 ;C5 ;C5 ;C5 ;C5 ;C5 ;C5 ;C5 ;C5 ;C5 ;C5 ;C5 ;C5 ;C5 ;C5 ;C5 ;C5  3O3 3O3 3O3 3O3 3O3 3O3 3O3 3O3 3O3 3O3 3O3 3O3 3O3 3O3 3O3 3O3 3O3 3O3 3O3 3O3 3O3 3O3 3O3 3O3 3O3 3O3 3O3 3O3 3O3 O <O2 <O2 <O2 <O2 <O2 <O2 <O2 <O2 <O2 <O2 <O2 <O2 <O2 <O2 <O2 <O2 <O2 <O2 <O2 <O2 <O2 <O2 <O2 <O2 <O2 <O2 <O2 <O2 <O2 O 5O0 5O0 5O0 5O0 5O0 5O0 5O0 5O0 5O0 5O0 5O0 5O0 5O0 5O0 5O0 5O0 5O0 5O0 5O0 5O0 5O0 5O0 5O0 5O0 5O0 5O0 5O0 5O0 5O0 O >O/ >O/ >O/ >O/ >O/ >O/ >O/ >O/ >O/ >O/ >O/ >O/ >O/ >O/ >O/ >O/ >O/ >O/ >O/ >O/ >O/ >O/ >O/ >O/ >O/ >O/ >O/ >O/ >O/ O ?O0 ?O0 ?O0 ?O0 ?O0 ?O0 ?O0 ?O0 ?O0 ?O0 ?O0 ?O0 ?O0 ?O0 ?O0 ?O0 ?O0 ?O0 ?O0 ?O0 ?O0 ?O0 ?O0 ?O0 ?O0 ?O0 ?O0 ?O0 ?O0 ?0 ?M0 ?M0 ?M0 ?M0 ?M0 ?M0 ?M0 ?M0 ?M0 ?M0 ?M0 ?M0 ?M0 ?M0 ?M0 ?M0 ?M0 ?M0 ?M0 ?M0 ?M0 ?M0 ?M0 ?M0 ?M0 ?M0 ?M0 ?M0 ?M0 0 7K0 7K0 7K0 7K0 7K0 7K0 7K0 7K0 7K0 7K0 7K0 7K0 7K0 7K0 K0 9K0 9K0 9K0 9K0 9K0 9K0 9K0 9K0 9K0 9K0 9K0 9K0 9K0 9K0 0 :J0 :J0 :J0 :J0 :J0 :J0 :J0 :J0 :J0 :J0 :J0 :J0 :J0 :J0 :J0 :J0 :J0 :J0 :J0 :J0 :J0 :J0 :J0 :J0 :J0 :J0 :J0 :J0 :J0  9H 9H 9H 9H 9H 9H 9H 9H 9H 9H 9H 9H 9H 9H 9H 9H 9H 9H 9H 9H 9H 9H 9H 9H 9H 9H 9H 9H 9H 9 9J 9J 9J 9J 9J 9J 9J 9J 9J 9J 9J 9J 9J 9J 9J 9J 9J 9J 9J 9J 9J 9J 9J 9J 9J 9J 9J 9J 9J  7K$ 7K$ 7K$ 7K$ 7K$ 7K$ 7K$ 7K$ 7K$ 7K$ 7K$ 7K$ 7K$ 7K$ K$ 9K$ 9K$ 9K$ 9K$ 9K$ 9K$ 9K$ 9K$ 9K$ 9K$ 9K$ 9K$ 9K$ 9K$ K$ :K$ :K$ :K$ :K$ :K$ :K$ :K$ :K$ :K$ :K$ :K$ :K$ :K$ :K$ :K$ :K$ :K$ :K$ :K$ :K$ :K$ :K$ :K$ :K$ :K$ :K$ :K$ :K$ :K$ K 9K) 9K) 9K) 9K) 9K) 9K) 9K) 9K) 9K) 9K) 9K) 9K) 9K) 9K) 9K) 9K) 9K) 9K) 9K) 9K) 9K) 9K) 9K) 9K) 9K) 9K) 9K) 9K) 9K) 9) 9E) 9E) 9E) 9E) 9E) 9E) 9E) 9E) 9E) 9E) 9E) 9E) 9E) 9E) 9E) 9E) 9E) 9E) 9E) 9E) 9E) 9E) 9E) 9E) 9E) 9E) 9E) 9E) 9E)  0H5 0H5 0H5 0H5 0H5 0H5 0H5 0H5 0H5 0H5 0H5 0H5 0H5 0H5 0H5 0H5 0H5 0H5 0H5 0H5 0H5 0H5 0H5 0H5 0H5 0H5 0H5 0H5 0H5  9A3 9A3 9A3 9A3 9A3 9A3 9A3 9A3 9A3 9A3 9A3 9A3 9A3 9A3 9A3 9A3 9A3 9A3 9A3 9A3 9A3 9A3 9A3 9A3 9A3 9A3 9A3 9A3 9A3  2M2 2M2 2M2 2M2 2M2 2M2 2M2 2M2 2M2 2M2 2M2 2M2 2M2 2M2 2M2 2M2 2M2 2M2 2M2 2M2 2M2 2M2 2M2 2M2 2M2 2M2 2M2 2M2 2M2 M :M0 :M0 :M0 :M0 :M0 :M0 :M0 :M0 :M0 :M0 :M0 :M0 :M0 :M0 :M0 :M0 :M0 :M0 :M0 :M0 :M0 :M0 :M0 :M0 :M0 :M0 :M0 :M0 :M0 M 3M. 3M. 3M. 3M. 3M. 3M. 3M. 3M. 3M. 3M. 3M. 3M. 3M. 3M. 3M. 3M. 3M. 3M. 3M. 3M. 3M. 3M. 3M. 3M. 3M. 3M. 3M. 3M. 3M. M <M- <M- <M- <M- <M- <M- <M- <M- <M- <M- <M- <M- <M- <M- <M- <M- <M- <M- <M- <M- <M- <M- <M- <M- <M- <M- <M- <M- <M- M >M. >M. >M. >M. >M. >M. >M. >M. >M. >M. >M. >M. >M. >M. >M. >M. >M. >M. >M. >M. >M. >M. >M. >M. >M. >M. >M. >M. >M. . K. K. K. K. K. K. K. K. K. K. K. K. K. K. K. K. K. K. K. K. K. K. K. K. K. K. K. K. K. . 5J. 5J. 5J. 5J. 5J. 5J. 5J. 5J. 5J. 5J. 5J. 5J. 5J. 5J. J. 7J. 7J. 7J. 7J. 7J. 7J. 7J. 7J. 7J. 7J. 7J. 7J. 7J. 7J. . 8H. 8H. 8H. 8H. 8H. 8H. 8H. 8H. 8H. 8H. 8H. 8H. 8H. 8H. 8H. 8H. 8H. 8H. 8H. 8H. 8H. 8H. 8H. 8H. 8H. 8H. 8H. 8H. 8H.  7F 7F 7F 7F 7F 7F 7F 7F 7F 7F 7F 7F 7F 7F 7F 7F 7F 7F 7F 7F 7F 7F 7F 7F 7F 7F 7F 7F 7F 7 7H 7H 7H 7H 7H 7H 7H 7H 7H 7H 7H 7H 7H 7H 7H 7H 7H 7H 7H 7H 7H 7H 7H 7H 7H 7H 7H 7H 7H  5J. 5J. 5J. 5J. 5J. 5J. 5J. 5J. 5J. 5J. 5J. 5J. 5J. 5J. J. 7J. 7J. 7J. 7J. 7J. 7J. 7J. 7J. 7J. 7J. 7J. 7J. 7J. 7J. J. 8J. 8J. 8J. 8J. 8J. 8J. 8J. 8J. 8J. 8J. 8J. 8J. 8J. 8J. 8J. 8J. 8J. 8J. 8J. 8J. 8J. 8J. 8J. 8J. 8J. 8J. 8J. 8J. 8J. J 7J' 7J' 7J' 7J' 7J' 7J' 7J' 7J' 7J' 7J' 7J' 7J' 7J' 7J' 7J' 7J' 7J' 7J' 7J' 7J' 7J' 7J' 7J' 7J' 7J' 7J' 7J' 7J' 7J' 7' 7C' 7C' 7C' 7C' 7C' 7C' 7C' 7C' 7C' 7C' 7C' 7C' 7C' 7C' 7C' 7C' 7C' 7C' 7C' 7C' 7C' 7C' 7C' 7C' 7C' 7C' 7C' 7C' 7C'  7F3 7F3 7F3 7F3 7F3 7F3 7F3 7F3 7F3 7F3 7F3 7F3 7F3 7F3 7F3 7F3 7F3 7F3 7F3 7F3 7F3 7F3 7F3 7F3 7F3 7F3 7F3 7F3 7F3  ??2 ??2 ??2 ??2 ??2 ??2 ??2 ??2 ??2 ??2 ??2 ??2 ??2 ??2 ??2 ??2 ??2 ??2 ??2 ??2 ??2 ??2 ??2 ??2 ??2 ??2 ??2 ??2 ??2  9K0 9K0 9K0 9K0 9K0 9K0 9K0 9K0 9K0 9K0 9K0 9K0 9K0 9K0 9K0 9K0 9K0 9K0 9K0 9K0 9K0 9K0 9K0 9K0 9K0 9K0 9K0 9K0 9K0 0 ?E0 ?E0 ?E0 ?E0 ?E0 ?E0 ?E0 ?E0 ?E0 ?E0 ?E0 ?E0 ?E0 ?E0 ?E0 ?E0 ?E0 ?E0 ?E0 ?E0 ?E0 ?E0 ?E0 ?E0 ?E0 ?E0 ?E0 ?E0 ?E0  >F. >F. >F. >F. >F. >F. >F. >F. >F. >F. >F. >F. >F. >F. >F. >F. >F. >F. >F. >F. >F. >F. >F. >F. >F. >F. >F. >F. >F. . :C. :C. :C. :C. :C. :C. :C. :C. :C. :C. :C. :C. :C. :C. :C. :C. :C. :C. :C. :C. :C. :C. :C. :C. :C. :C. :C. :C. :C.  <K- <K- <K- <K- <K- <K- <K- <K- <K- <K- <K- <K- <K- <K- <K- <K- <K- <K- <K- <K- <K- <K- <K- <K- <K- <K- <K- <K- <K- - :J- :J- :J- :J- :J- :J- :J- :J- :J- :J- :J- :J- :J- :J- :J- :J- :J- :J- :J- :J- :J- :J- :J- :J- :J- :J- :J- :J- :J-  9H9 9H9 9H9 9H9 9H9 9H9 9H9 9H9 9H9 9H9 9H9 9H9 9H9 9H9 9H9 9H9 9H9 9H9 9H9 9H9 9H9 9H9 9H9 9H9 9H9 9H9 9H9 9H9 9H9  :F7 :F7 :F7 :F7 :F7 :F7 :F7 :F7 :F7 :F7 :F7 :F7 :F7 :F7 :F7 :F7 :F7 :F7 :F7 :F7 :F7 :F7 :F7 :F7 :F7 :F7 :F7 :F7 :F7  <E6 <E6 <E6 <E6 <E6 <E6 <E6 <E6 <E6 <E6 <E6 <E6 <E6 <E6 <E6 <E6 <E6 <E6 <E6 <E6 <E6 <E6 <E6 <E6 <E6 <E6 <E6 <E6 <E6 <6 <C6 <C6 <C6 <C6 <C6 <C6 <C6 <C6 <C6 <C6 <C6 <C6 <C6 <C6 <C6 <C6 <C6 <C6 <C6 <C6 <C6 <C6 <C6 <C6 <C6 <C6 <C6 <C6 <C6 < <B9 <B9 <B9 <B9 <B9 <B9 <B9 <B9 <B9 <B9 <B9 <B9 <B9 <B9 <B9 <B9 <B9 <B9 <B9 <B9 <B9 <B9 <B9 <B9 <B9 <B9 <B9 <B9 <B9 <9 <@9 <@9 <@9 <@9 <@9 <@9 <@9 <@9 <@9 <@9 <@9 <@9 <@9 <@9 <@9 <@9 <@9 <@9 <@9 <@9 <@9 <@9 <@9 <@9 <@9 <@9 <@9 <@9 <@9 < <B2 <B2 <B2 <B2 <B2 <B2 <B2 <B2 <B2 <B2 <B2 <B2 <B2 <B2 <B2 <B2 <B2 <B2 <B2 <B2 <B2 <B2 <B2 <B2 <B2 <B2 <B2 <B2 <B2 2 :J2 :J2 :J2 :J2 :J2 :J2 :J2 :J2 :J2 :J2 :J2 :J2 :J2 :J2 :J2 :J2 :J2 :J2 :J2 :J2 :J2 :J2 :J2 :J2 :J2 :J2 :J2 :J2 :J2  9C& 9C& 9C& 9C& 9C& 9C& 9C& 9C& 9C& 9C& 9C& 9C& 9C& 9C& 9C& 9C& 9C& 9C& 9C& 9C& 9C& 9C& 9C& 9C& 9C& 9C& 9C& 9C& 9C& & :J& :J& :J& :J& :J& :J& :J& :J& :J& :J& :J& :J& :J& :J& :J& :J& :J& :J& :J& :J& :J& :J& :J& :J& :J& :J& :J& :J& :J&  <E& <E& <E& <E& <E& <E& <E& <E& <E& <E& <E& <E& <E& <E& <E& <E& <E& <E& <E& <E& <E& <E& <E& <E& <E& <E& <E& <E& <E& & :J& :J& :J& :J& :J& :J& :J& :J& :J& :J& :J& :J& :J& :J& :J& :J& :J& :J& :J& :J& :J& :J& :J& :J& :J& :J& :J& :J& :J&  <B& <B& <B& <B& <B& <B& <B& <B& <B& <B& <B& <B& <B& <B& <B& <B& <B& <B& <B& <B& <B& <B& <B& <B& <B& <B& <B& <B& <B& & 9J& 9J& 9J& 9J& 9J& 9J& 9J& 9J& 9J& 9J& 9J& 9J& 9J& 9J& 9J& 9J& 9J& 9J& 9J& 9J& 9J& 9J& 9J& 9J& 9J& 9J& 9J& 9J& 9J&  :C2 :C2 :C2 :C2 :C2 :C2 :C2 :C2 :C2 :C2 :C2 :C2 :C2 :C2 :C2 :C2 :C2 :C2 :C2 :C2 :C2 :C2 :C2 :C2 :C2 :C2 :C2 :C2 :C2 2 9J2 9J2 9J2 9J2 9J2 9J2 9J2 9J2 9J2 9J2 9J2 9J2 9J2 9J2 9J2 9J2 9J2 9J2 9J2 9J2 9J2 9J2 9J2 9J2 9J2 9J2 9J2 9J2 9J2  7E& 7E& 7E& 7E& 7E& 7E& 7E& 7E& 7E& 7E& 7E& 7E& 7E& 7E& 7E& 7E& 7E& 7E& 7E& 7E& 7E& 7E& 7E& 7E& 7E& 7E& 7E& 7E& 7E& & 6J& 6J& 6J& 6J& 6J& 6J& 6J& 6J& 6J& 6J& 6J& 6J& 6J& 6J& 6J& 6J& 6J& 6J& 6J& 6J& 6J& 6J& 6J& 6J& 6J& 6J& 6J& 6J& 6J&  7F& 7F& 7F& 7F& 7F& 7F& 7F& 7F& 7F& 7F& 7F& 7F& 7F& 7F& 7F& 7F& 7F& 7F& 7F& 7F& 7F& 7F& 7F& 7F& 7F& 7F& 7F& 7F& 7F& & :J& :J& :J& :J& :J& :J& :J& :J& :J& :J& :J& :J& :J& :J& :J& :J& :J& :J& :J& :J& :J& :J& :J& :J& :J& :J& :J& :J& :J&  >C& >C& >C& >C& >C& >C& >C& >C& >C& >C& >C& >C& >C& >C& >C& >C& >C& >C& >C& >C& >C& >C& >C& >C& >C& >C& >C& >C& >C& & 7J& 7J& 7J& 7J& 7J& 7J& 7J& 7J& 7J& 7J& 7J& 7J& 7J& 7J& 7J& 7J& 7J& 7J& 7J& 7J& 7J& 7J& 7J& 7J& 7J& 7J& 7J& 7J& 7J&  6E2 6E2 6E2 6E2 6E2 6E2 6E2 6E2 6E2 6E2 6E2 6E2 6E2 6E2 6E2 6E2 6E2 6E2 6E2 6E2 6E2 6E2 6E2 6E2 6E2 6E2 6E2 6E2 6E2 2 4J2 4J2 4J2 4J2 4J2 4J2 4J2 4J2 4J2 4J2 4J2 4J2 4J2 4J2 4J2 4J2 4J2 4J2 4J2 4J2 4J2 4J2 4J2 4J2 4J2 4J2 4J2 4J2 4J2  2F& 2F& 2F& 2F& 2F& 2F& 2F& 2F& 2F& 2F& 2F& 2F& 2F& 2F& 2F& 2F& 2F& 2F& 2F& 2F& 2F& 2F& 2F& 2F& 2F& 2F& 2F& 2F& 2F& & 4J& 4J& 4J& 4J& 4J& 4J& 4J& 4J& 4J& 4J& 4J& 4J& 4J& 4J& 4J& 4J& 4J& 4J& 4J& 4J& 4J& 4J& 4J& 4J& 4J& 4J& 4J& 4J& 4J&  6H& 6H& 6H& 6H& 6H& 6H& 6H& 6H& 6H& 6H& 6H& 6H& 6H& 6H& 6H& 6H& 6H& 6H& 6H& 6H& 6H& 6H& 6H& 6H& 6H& 6H& 6H& 6H& 6H& & 7J& 7J& 7J& 7J& 7J& 7J& 7J& 7J& 7J& 7J& 7J& 7J& 7J& 7J& 7J& 7J& 7J& 7J& 7J& 7J& 7J& 7J& 7J& 7J& 7J& 7J& 7J& 7J& 7J&  9E& 9E& 9E& 9E& 9E& 9E& 9E& 9E& 9E& 9E& 9E& 9E& 9E& 9E& 9E& 9E& 9E& 9E& 9E& 9E& 9E& 9E& 9E& 9E& 9E& 9E& 9E& 9E& 9E& & 6J& 6J& 6J& 6J& 6J& 6J& 6J& 6J& 6J& 6J& 6J& 6J& 6J& 6J& 6J& 6J& 6J& 6J& 6J& 6J& 6J& 6J& 6J& 6J& 6J& 6J& 6J& 6J& 6J&  7F+ 7F+ 7F+ 7F+ 7F+ 7F+ 7F+ 7F+ 7F+ 7F+ 7F+ 7F+ 7F+ 7F+ 7F+ 7F+ 7F+ 7F+ 7F+ 7F+ 7F+ 7F+ 7F+ 7F+ 7F+ 7F+ 7F+ 7F+ 7F+ 7+ 7B+ 7B+ 7B+ 7B+ 7B+ 7B+ 7B+ 7B+ 7B+ 7B+ 7B+ 7B+ 7B+ 7B+ 7B+ 7B+ 7B+ 7B+ 7B+ 7B+ 7B+ 7B+ 7B+ 7B+ 7B+ 7B+ 7B+ 7B+ 7B+  >C7 >C7 >C7 >C7 >C7 >C7 >C7 >C7 >C7 >C7 >C7 >C7 >C7 >C7 >C7 >C7 >C7 >C7 >C7 >C7 >C7 >C7 >C7 >C7 >C7 >C7 >C7 >C7 >C7 C 6C9 6C9 6C9 6C9 6C9 6C9 6C9 6C9 6C9 6C9 6C9 6C9 6C9 6C9 6C9 6C9 6C9 6C9 6C9 6C9 6C9 6C9 6C9 6C9 6C9 6C9 6C9 6C9 6C9 C 7C: 7C: 7C: 7C: 7C: 7C: 7C: 7C: 7C: 7C: 7C: 7C: 7C: 7C: 7C: 7C: 7C: 7C: 7C: 7C: 7C: 7C: 7C: 7C: 7C: 7C: 7C: 7C: 7C: 7: 7J: 7J: 7J: 7J: 7J: 7J: 7J: 7J: 7J: 7J: 7J: 7J: 7J: 7J: 7J: 7J: 7J: 7J: 7J: 7J: 7J: 7J: 7J: 7J: 7J: 7J: 7J: 7J: 7J: 7 7F7 7F7 7F7 7F7 7F7 7F7 7F7 7F7 7F7 7F7 7F7 7F7 7F7 7F7 7F7 7F7 7F7 7F7 7F7 7F7 7F7 7F7 7F7 7F7 7F7 7F7 7F7 7F7 7F7 77 7C7 7C7 7C7 7C7 7C7 7C7 7C7 7C7 7C7 7C7 7C7 7C7 7C7 7C7 7C7 7C7 7C7 7C7 7C7 7C7 7C7 7C7 7C7 7C7 7C7 7C7 7C7 7C7 7C7 7 7K< 7K< 7K< 7K< 7K< 7K< 7K< 7K< 7K< 7K< 7K< 7K< 7K< 7K< 7K< 7K< 7K< 7K< 7K< 7K< 7K< 7K< 7K< 7K< 7K< 7K< 7K< 7K< 7K< 7< 7B< 7B< 7B< 7B< 7B< 7B< 7B< 7B< 7B< 7B< 7B< 7B< 7B< 7B< 7B< 7B< 7B< 7B< 7B< 7B< 7B< 7B< 7B< 7B< 7B< 7B< 7B< 7B< 7B<  ?C0 ?C0 ?C0 ?C0 ?C0 ?C0 ?C0 ?C0 ?C0 ?C0 ?C0 ?C0 ?C0 ?C0 ?C0 ?C0 ?C0 ?C0 ?C0 ?C0 ?C0 ?C0 ?C0 ?C0 ?C0 ?C0 ?C0 ?C0 ?C0 C 6C2 6C2 6C2 6C2 6C2 6C2 6C2 6C2 6C2 6C2 6C2 6C2 6C2 6C2 6C2 6C2 6C2 6C2 6C2 6C2 6C2 6C2 6C2 6C2 6C2 6C2 6C2 6C2 6C2 C 7C3 7C3 7C3 7C3 7C3 7C3 7C3 7C3 7C3 7C3 7C3 7C3 7C3 7C3 7C3 7C3 7C3 7C3 7C3 7C3 7C3 7C3 7C3 7C3 7C3 7C3 7C3 7C3 7C3 73 7K3 7K3 7K3 7K3 7K3 7K3 7K3 7K3 7K3 7K3 7K3 7K3 7K3 7K3 7K3 7K3 7K3 7K3 7K3 7K3 7K3 7K3 7K3 7K3 7K3 7K3 7K3 7K3 7K3 7 7H- 7H- 7H- 7H- 7H- 7H- 7H- 7H- 7H- 7H- 7H- 7H- 7H- 7H- 7H- 7H- 7H- 7H- 7H- 7H- 7H- 7H- 7H- 7H- 7H- 7H- 7H- 7H- 7H- 7- 7E- 7E- 7E- 7E- 7E- 7E- 7E- 7E- 7E- 7E- 7E- 7E- 7E- 7E- 7E- 7E- 7E- 7E- 7E- 7E- 7E- 7E- 7E- 7E- 7E- 7E- 7E- 7E- 7E- 7 7J. 7J. 7J. 7J. 7J. 7J. 7J. 7J. 7J. 7J. 7J. 7J. 7J. 7J. 7J. 7J. 7J. 7J. 7J. 7J. 7J. 7J. 7J. 7J. 7J. 7J. 7J. 7J. 7J. 7. 7B. 7B. 7B. 7B. 7B. 7B. 7B. 7B. 7B. 7B. 7B. 7B. 7B. 7B. 7B. 7B. 7B. 7B. 7B. 7B. 7B. 7B. 7B. 7B. 7B. 7B. 7B. 7B. 7B.  >C+ >C+ >C+ >C+ >C+ >C+ >C+ >C+ >C+ >C+ >C+ >C+ >C+ >C+ >C+ >C+ >C+ >C+ >C+ >C+ >C+ >C+ >C+ >C+ >C+ >C+ >C+ >C+ >C+ + 6F+ 6F+ 6F+ 6F+ 6F+ 6F+ 6F+ 6F+ 6F+ 6F+ 6F+ 6F+ 6F+ 6F+ 6F+ 6F+ 6F+ 6F+ 6F+ 6F+ 6F+ 6F+ 6F+ 6F+ 6F+ 6F+ 6F+ 6F+ 6F+  7K0 7K0 7K0 7K0 7K0 7K0 7K0 7K0 7K0 7K0 7K0 7K0 7K0 7K0 7K0 7K0 7K0 7K0 7K0 7K0 7K0 7K0 7K0 7K0 7K0 7K0 7K0 7K0 7K0 70 7B0 7B0 7B0 7B0 7B0 7B0 7B0 7B0 7B0 7B0 7B0 7B0 7B0 7B0 7B0 7B0 7B0 7B0 7B0 7B0 7B0 7B0 7B0 7B0 7B0 7B0 7B0 7B0 7B0  ?C- ?C- ?C- ?C- ?C- ?C- ?C- ?C- ?C- ?C- ?C- ?C- ?C- ?C- ?C- ?C- ?C- ?C- ?C- ?C- ?C- ?C- ?C- ?C- ?C- ?C- ?C- ?C- ?C- - 6H- 6H- 6H- 6H- 6H- 6H- 6H- 6H- 6H- 6H- 6H- 6H- 6H- 6H- 6H- 6H- 6H- 6H- 6H- 6H- 6H- 6H- 6H- 6H- 6H- 6H- 6H- 6H- 6H-  7J. 7J. 7J. 7J. 7J. 7J. 7J. 7J. 7J. 7J. 7J. 7J. 7J. 7J. 7J. 7J. 7J. 7J. 7J. 7J. 7J. 7J. 7J. 7J. 7J. 7J. 7J. 7J. 7J. 7J 7J- 7J- 7J- 7J- 7J- 7J- 7J- 7J- 7J- 7J- 7J- 7J- 7J- 7J- 7J- 7J- 7J- 7J- 7J- 7J- 7J- 7J- 7J- 7J- 7J- 7J- 7J- 7J- 7J- J CJ. CJ. CJ. CJ. CJ. CJ. CJ. CJ. CJ. CJ. CJ. CJ. CJ. CJ. CJ. CJ. CJ. CJ. CJ. CJ. CJ. CJ. CJ. CJ. CJ. CJ. CJ. CJ. CJ. C CK0 CK0 CK0 CK0 CK0 CK0 CK0 CK0 CK0 CK0 CK0 CK0 CK0 CK0 CK0 CK0 CK0 CK0 CK0 CK0 CK0 CK0 CK0 CK0 CK0 CK0 CK0 CK0 CK0 C CF2 CF2 CF2 CF2 CF2 CF2 CF2 CF2 CF2 CF2 CF2 CF2 CF2 CF2 C2 CE2 CE2 CE2 CE2 CE2 CE2 CE2 CE2 CE2 CE2 CE2 CE2 CE2 CE2 C CF0 CF0 CF0 CF0 CF0 CF0 CF0 CF0 CF0 CF0 CF0 CF0 CF0 CF0 C0 CE0 CE0 CE0 CE0 CE0 CE0 CE0 CE0 CE0 CE0 CE0 CE0 CE0 CE0  AF2 AF2 AF2 AF2 AF2 AF2 AF2 AF2 AF2 AF2 AF2 AF2 AF2 AF2 A2 AE2 AE2 AE2 AE2 AE2 AE2 AE2 AE2 AE2 AE2 AE2 AE2 AE2 AE2 A AC- AC- AC- AC- AC- AC- AC- AC- AC- AC- AC- AC- AC- AC- AC- AC- AC- AC- AC- AC- AC- AC- AC- AC- AC- AC- AC- AC- AC- A AC/ AC/ AC/ AC/ AC/ AC/ AC/ AC/ AC/ AC/ AC/ AC/ AC/ AC/ AC/ AC/ AC/ AC/ AC/ AC/ AC/ AC/ AC/ AC/ AC/ AC/ AC/ AC/ AC/ C/ >C/ >C/ >C/ >C/ >C/ >C/ >C/ >C/ >C/ >C/ >C/ >C/ >C/ >C/ C/ @C/ @C/ @C/ @C/ @C/ @C/ @C/ @C/ @C/ @C/ @C/ @C/ @C/ @C/ C AC2 AC2 AC2 AC2 AC2 AC2 AC2 AC2 AC2 AC2 AC2 AC2 AC2 AC2 AC2 AC2 AC2 AC2 AC2 AC2 AC2 AC2 AC2 AC2 AC2 AC2 AC2 AC2 AC2 C2 >C2 >C2 >C2 >C2 >C2 >C2 >C2 >C2 >C2 >C2 >C2 >C2 >C2 >C2 C2 @C2 @C2 @C2 @C2 @C2 @C2 @C2 @C2 @C2 @C2 @C2 @C2 @C2 @C2  A7 A7 A7 A7 A7 A7 A7 A7 A7 A7 A7 A7 A7 A7 A7 A7 A7 A7 A7 A7 A7 A7 A7 A7 A7 A7 A7 A7 A7 7 >7 >7 >7 >7 >7 >7 >7 >7 >7 >7 >7 >7 >7 >7 >7 >7 >7 >7 >7 >7 >7 >7 >7 >7 >7 >7 >7 >7 >7  7R+ 7R+ 7R+ 7R+ 7R+ 7R+ 7R+ 7R+ 7R+ 7R+ 7R+ 7R+ 7R+ 7R+ 7R+ 7R+ 7R+ 7R+ 7R+ 7R+ 7R+ 7R+ 7R+ 7R+ 7R+ 7R+ 7R+ 7R+ 7R+ R+ AR+ AR+ AR+ AR+ AR+ AR+ AR+ AR+ AR+ AR+ AR+ AR+ AR+ AR+ AR+ AR+ AR+ AR+ AR+ AR+ AR+ AR+ AR+ AR+ AR+ AR+ AR+ AR+ AR+ R ?R0 ?R0 ?R0 ?R0 ?R0 ?R0 ?R0 ?R0 ?R0 ?R0 ?R0 ?R0 ?R0 ?R0 ?R0 ?R0 ?R0 ?R0 ?R0 ?R0 ?R0 ?R0 ?R0 ?R0 ?R0 ?R0 ?R0 ?R0 ?R0 ?0 ?O0 ?O0 ?O0 ?O0 ?O0 ?O0 ?O0 ?O0 ?O0 ?O0 ?O0 ?O0 ?O0 ?O0 ?0 ?Q0 ?Q0 ?Q0 ?Q0 ?Q0 ?Q0 ?Q0 ?Q0 ?Q0 ?Q0 ?Q0 ?Q0 ?Q0 ?Q0 ? ?R7 ?R7 ?R7 ?R7 ?R7 ?R7 ?R7 ?R7 ?R7 ?R7 ?R7 ?R7 ?R7 ?R7 ?R7 ?R7 ?R7 ?R7 ?R7 ?R7 ?R7 ?R7 ?R7 ?R7 ?R7 ?R7 ?R7 ?R7 ?R7 ?7 ?O7 ?O7 ?O7 ?O7 ?O7 ?O7 ?O7 ?O7 ?O7 ?O7 ?O7 ?O7 ?O7 ?O7 ?7 ?Q7 ?Q7 ?Q7 ?Q7 ?Q7 ?Q7 ?Q7 ?Q7 ?Q7 ?Q7 ?Q7 ?Q7 ?Q7 ?Q7 ? R< R< R< R< R< R< R< R< R< R< R< R< R< R< R< R< R< R< R< R< R< R< R< R< R< R< R< R< R< < O< O< O< O< O< O< O< O< O< O< O< O< O< O< O< O< O< O< O< O< O< O< O< O< O< O< O< O< O<  ?H0 ?H0 ?H0 ?H0 ?H0 ?H0 ?H0 ?H0 ?H0 ?H0 ?H0 ?H0 ?H0 ?H0 ?H0 ?H0 ?H0 ?H0 ?H0 ?H0 ?H0 ?H0 ?H0 ?H0 ?H0 ?H0 ?H0 ?H0 ?H0 ?0 ?R0 ?R0 ?R0 ?R0 ?R0 ?R0 ?R0 ?R0 ?R0 ?R0 ?R0 ?R0 ?R0 ?R0 ?R0 ?R0 ?R0 ?R0 ?R0 ?R0 ?R0 ?R0 ?R0 ?R0 ?R0 ?R0 ?R0 ?R0 ?R0 ? ?R5 ?R5 ?R5 ?R5 ?R5 ?R5 ?R5 ?R5 ?R5 ?R5 ?R5 ?R5 ?R5 ?R5 ?R5 ?R5 ?R5 ?R5 ?R5 ?R5 ?R5 ?R5 ?R5 ?R5 ?R5 ?R5 ?R5 ?R5 ?R5 5 <Q5 <Q5 <Q5 <Q5 <Q5 <Q5 <Q5 <Q5 <Q5 <Q5 <Q5 <Q5 <Q5 <Q5 Q5 >Q5 >Q5 >Q5 >Q5 >Q5 >Q5 >Q5 >Q5 >Q5 >Q5 >Q5 >Q5 >Q5 >Q5 Q ?Q0 ?Q0 ?Q0 ?Q0 ?Q0 ?Q0 ?Q0 ?Q0 ?Q0 ?Q0 ?Q0 ?Q0 ?Q0 ?Q0 ?Q0 ?Q0 ?Q0 ?Q0 ?Q0 ?Q0 ?Q0 ?Q0 ?Q0 ?Q0 ?Q0 ?Q0 ?Q0 ?Q0 ?Q0 Q0 <Q0 <Q0 <Q0 <Q0 <Q0 <Q0 <Q0 <Q0 <Q0 <Q0 <Q0 <Q0 <Q0 <Q0 Q0 >Q0 >Q0 >Q0 >Q0 >Q0 >Q0 >Q0 >Q0 >Q0 >Q0 >Q0 >Q0 >Q0 >Q0  ?) ?) ?) ?) ?) ?) ?) ?) ?) ?) ?) ?) ?) ?) ?) ?) ?) ?) ?) ?) ?) ?) ?) ?) ?) ?) ?) ?) ?) ) <) <) <) <) <) <) <) <) <) <) <) <) <) <) <) <) <) <) <) <) <) <) <) <) <) <) <) <) <)  5P5 5P5 5P5 5P5 5P5 5P5 5P5 5P5 5P5 5P5 5P5 5P5 5P5 5P5 5P5 5P5 5P5 5P5 5P5 5P5 5P5 5P5 5P5 5P5 5P5 5P5 5P5 5P5 5P5 P5 ?P5 ?P5 ?P5 ?P5 ?P5 ?P5 ?P5 ?P5 ?P5 ?P5 ?P5 ?P5 ?P5 ?P5 ?P5 ?P5 ?P5 ?P5 ?P5 ?P5 ?P5 ?P5 ?P5 ?P5 ?P5 ?P5 ?P5 ?P5 ?P5 P >P. >P. >P. >P. >P. >P. >P. >P. >P. >P. >P. >P. >P. >P. >P. >P. >P. >P. >P. >P. >P. >P. >P. >P. >P. >P. >P. >P. >P. >. >M. >M. >M. >M. >M. >M. >M. >M. >M. >M. >M. >M. >M. >M. >. >O. >O. >O. >O. >O. >O. >O. >O. >O. >O. >O. >O. >O. >O.  5P0 5P0 5P0 5P0 5P0 5P0 5P0 5P0 5P0 5P0 5P0 5P0 5P0 5P0 5P0 5P0 5P0 5P0 5P0 5P0 5P0 5P0 5P0 5P0 5P0 5P0 5P0 5P0 5P0 50 5M0 5M0 5M0 5M0 5M0 5M0 5M0 5M0 5M0 5M0 5M0 5M0 5M0 5M0 50 5O0 5O0 5O0 5O0 5O0 5O0 5O0 5O0 5O0 5O0 5O0 5O0 5O0 5O0  :P2 :P2 :P2 :P2 :P2 :P2 :P2 :P2 :P2 :P2 :P2 :P2 :P2 :P2 :P2 :P2 :P2 :P2 :P2 :P2 :P2 :P2 :P2 :P2 :P2 :P2 :P2 :P2 :P2 :2 :M2 :M2 :M2 :M2 :M2 :M2 :M2 :M2 :M2 :M2 :M2 :M2 :M2 :M2 :M2 :M2 :M2 :M2 :M2 :M2 :M2 :M2 :M2 :M2 :M2 :M2 :M2 :M2 :M2 : :F. :F. :F. :F. :F. :F. :F. :F. :F. :F. :F. :F. :F. :F. :F. :F. :F. :F. :F. :F. :F. :F. :F. :F. :F. :F. :F. :F. :F. :. :P. :P. :P. :P. :P. :P. :P. :P. :P. :P. :P. :P. :P. :P. :P. :P. :P. :P. :P. :P. :P. :P. :P. :P. :P. :P. :P. :P. :P. : :O3 :O3 :O3 :O3 :O3 :O3 :O3 :O3 :O3 :O3 :O3 :O3 :O3 :O3 :O3 :O3 :O3 :O3 :O3 :O3 :O3 :O3 :O3 :O3 :O3 :O3 :O3 :O3 :O3 3 <H3 <H3 <H3 <H3 <H3 <H3 <H3 <H3 <H3 <H3 <H3 <H3 <H3 <H3 3 :J3 :J3 :J3 :J3 :J3 :J3 :J3 :J3 :J3 :J3 :J3 :J3 :J3 :J3  9K7 9K7 9K7 9K7 9K7 9K7 9K7 9K7 9K7 9K7 9K7 9K7 9K7 9K7 9K7 9K7 9K7 9K7 9K7 9K7 9K7 9K7 9K7 9K7 9K7 9K7 9K7 9K7 9K7 7 :H7 :H7 :H7 :H7 :H7 :H7 :H7 :H7 :H7 :H7 :H7 :H7 :H7 :H7 :7 :J7 :J7 :J7 :J7 :J7 :J7 :J7 :J7 :J7 :J7 :J7 :J7 :J7 :J7  <K0 <K0 <K0 <K0 <K0 <K0 <K0 <K0 <K0 <K0 <K0 <K0 <K0 <K0 <K0 <K0 <K0 <K0 <K0 <K0 <K0 <K0 <K0 <K0 <K0 <K0 <K0 <K0 <K0 <0 <H0 <H0 <H0 <H0 <H0 <H0 <H0 <H0 <H0 <H0 <H0 <H0 <H0 <H0 <H0 <H0 <H0 <H0 <H0 <H0 <H0 <H0 <H0 <H0 <H0 <H0 <H0 <H0 <H0 < <C3 <C3 <C3 <C3 <C3 <C3 <C3 <C3 <C3 <C3 <C3 <C3 <C3 <C3 <C3 <C3 <C3 <C3 <C3 <C3 <C3 <C3 <C3 <C3 <C3 <C3 <C3 <C3 <C3 <3 <F3 <F3 <F3 <F3 <F3 <F3 <F3 <F3 <F3 <F3 <F3 <F3 <F3 <F3 <F3 <F3 <F3 <F3 <F3 <F3 <F3 <F3 <F3 <F3 <F3 <F3 <F3 <F3 <F3 < <E5 <E5 <E5 <E5 <E5 <E5 <E5 <E5 <E5 <E5 <E5 <E5 <E5 <E5 <E5 <E5 <E5 <E5 <E5 <E5 <E5 <E5 <E5 <E5 <E5 <E5 <E5 <E5 <E5 5 >J5 >J5 >J5 >J5 >J5 >J5 >J5 >J5 >J5 >J5 >J5 >J5 >J5 >J5 5 <K5 <K5 <K5 <K5 <K5 <K5 <K5 <K5 <K5 <K5 <K5 <K5 <K5 <K5  :M9 :M9 :M9 :M9 :M9 :M9 :M9 :M9 :M9 :M9 :M9 :M9 :M9 :M9 :M9 :M9 :M9 :M9 :M9 :M9 :M9 :M9 :M9 :M9 :M9 :M9 :M9 :M9 :M9 9 <J9 <J9 <J9 <J9 <J9 <J9 <J9 <J9 <J9 <J9 <J9 <J9 <J9 <J9 <9 <K9 <K9 <K9 <K9 <K9 <K9 <K9 <K9 <K9 <K9 <K9 <K9 <K9 <K9  >M2 >M2 >M2 >M2 >M2 >M2 >M2 >M2 >M2 >M2 >M2 >M2 >M2 >M2 >M2 >M2 >M2 >M2 >M2 >M2 >M2 >M2 >M2 >M2 >M2 >M2 >M2 >M2 >M2 >2 >J2 >J2 >J2 >J2 >J2 >J2 >J2 >J2 >J2 >J2 >J2 >J2 >J2 >J2 >J2 >J2 >J2 >J2 >J2 >J2 >J2 >J2 >J2 >J2 >J2 >J2 >J2 >J2 >J2 > >E5 >E5 >E5 >E5 >E5 >E5 >E5 >E5 >E5 >E5 >E5 >E5 >E5 >E5 >E5 >E5 >E5 >E5 >E5 >E5 >E5 >E5 >E5 >E5 >E5 >E5 >E5 >E5 >E5 >5 >H5 >H5 >H5 >H5 >H5 >H5 >H5 >H5 >H5 >H5 >H5 >H5 >H5 >H5 >H5 >H5 >H5 >H5 >H5 >H5 >H5 >H5 >H5 >H5 >H5 >H5 >H5 >H5 >H5 > >F7 >F7 >F7 >F7 >F7 >F7 >F7 >F7 >F7 >F7 >F7 >F7 >F7 >F7 >F7 >F7 >F7 >F7 >F7 >F7 >F7 >F7 >F7 >F7 >F7 >F7 >F7 >F7 >F7 7 ?K7 ?K7 ?K7 ?K7 ?K7 ?K7 ?K7 ?K7 ?K7 ?K7 ?K7 ?K7 ?K7 ?K7 7 >M7 >M7 >M7 >M7 >M7 >M7 >M7 >M7 >M7 >M7 >M7 >M7 >M7 >M7  <O: <O: <O: <O: <O: <O: <O: <O: <O: <O: <O: <O: <O: <O: <O: <O: <O: <O: <O: <O: <O: <O: <O: <O: <O: <O: <O: <O: <O: : >K: >K: >K: >K: >K: >K: >K: >K: >K: >K: >K: >K: >K: >K: >: >M: >M: >M: >M: >M: >M: >M: >M: >M: >M: >M: >M: >M: >M:  ?O3 ?O3 ?O3 ?O3 ?O3 ?O3 ?O3 ?O3 ?O3 ?O3 ?O3 ?O3 ?O3 ?O3 ?O3 ?O3 ?O3 ?O3 ?O3 ?O3 ?O3 ?O3 ?O3 ?O3 ?O3 ?O3 ?O3 ?O3 ?O3 ?3 ?K3 ?K3 ?K3 ?K3 ?K3 ?K3 ?K3 ?K3 ?K3 ?K3 ?K3 ?K3 ?K3 ?K3 ?K3 ?K3 ?K3 ?K3 ?K3 ?K3 ?K3 ?K3 ?K3 ?K3 ?K3 ?K3 ?K3 ?K3 ?K3 ? ?F7 ?F7 ?F7 ?F7 ?F7 ?F7 ?F7 ?F7 ?F7 ?F7 ?F7 ?F7 ?F7 ?F7 ?F7 ?F7 ?F7 ?F7 ?F7 ?F7 ?F7 ?F7 ?F7 ?F7 ?F7 ?F7 ?F7 ?F7 ?F7 ?7 ?J7 ?J7 ?J7 ?J7 ?J7 ?J7 ?J7 ?J7 ?J7 ?J7 ?J7 ?J7 ?J7 ?J7 ?J7 ?J7 ?J7 ?J7 ?J7 ?J7 ?J7 ?J7 ?J7 ?J7 ?J7 ?J7 ?J7 ?J7 ?J7 ? ?H- ?H- ?H- ?H- ?H- ?H- ?H- ?H- ?H- ?H- ?H- ?H- ?H- ?H- ?H- ?H- ?H- ?H- ?H- ?H- ?H- ?H- ?H- ?H- ?H- ?H- ?H- ?H- ?H- - <E- <E- <E- <E- <E- <E- <E- <E- <E- <E- <E- <E- <E- <E- - >F- >F- >F- >F- >F- >F- >F- >F- >F- >F- >F- >F- >F- >F- - ?H- ?H- ?H- ?H- ?H- ?H- ?H- ?H- ?H- ?H- ?H- ?H- ?H- ?H- ?H- ?H- ?H- ?H- ?H- ?H- ?H- ?H- ?H- ?H- ?H- ?H- ?H- ?H- ?H- - <E- <E- <E- <E- <E- <E- <E- <E- <E- <E- <E- <E- <E- <E- - >F- >F- >F- >F- >F- >F- >F- >F- >F- >F- >F- >F- >F- >F-  ?H ?H ?H ?H ?H ?H ?H ?H ?H ?H ?H ?H ?H ?H ?H ?H ?H ?H ?H ?H ?H ?H ?H ?H ?H ?H ?H ?H ?H  <E <E <E <E <E <E <E <E <E <E <E <E <E <E <E <E <E <E <E <E <E <E <E <E <E <E <E <E <E  AA3 AA3 AA3 AA3 AA3 AA3 AA3 AA3 AA3 AA3 AA3 AA3 AA3 AA3 AA3 AA3 AA3 AA3 AA3 AA3 AA3 AA3 AA3 AA3 AA3 AA3 AA3 AA3 AA3 A3 AE3 AE3 AE3 AE3 AE3 AE3 AE3 AE3 AE3 AE3 AE3 AE3 AE3 AE3 AE3 AE3 AE3 AE3 AE3 AE3 AE3 AE3 AE3 AE3 AE3 AE3 AE3 AE3 AE3 A AF2 AF2 AF2 AF2 AF2 AF2 AF2 AF2 AF2 AF2 AF2 AF2 AF2 AF2 AF2 AF2 AF2 AF2 AF2 AF2 AF2 AF2 AF2 AF2 AF2 AF2 AF2 AF2 AF2 A AE0 AE0 AE0 AE0 AE0 AE0 AE0 AE0 AE0 AE0 AE0 AE0 AE0 AE0 AE0 AE0 AE0 AE0 AE0 AE0 AE0 AE0 AE0 AE0 AE0 AE0 AE0 AE0 AE0 A AF2 AF2 AF2 AF2 AF2 AF2 AF2 AF2 AF2 AF2 AF2 AF2 AF2 AF2 AF2 AF2 AF2 AF2 AF2 AF2 AF2 AF2 AF2 AF2 AF2 AF2 AF2 AF2 AF2  CO3 CO3 CO3 CO3 CO3 CO3 CO3 CO3 CO3 CO3 CO3 CO3 CO3 CO3 CO3 CO3 CO3 CO3 CO3 CO3 CO3 CO3 CO3 CO3 CO3 CO3 CO3 CO3 CO3  <E5 <E5 <E5 <E5 <E5 <E5 <E5 <E5 <E5 <E5 <E5 <E5 <E5 <E5 <E5 <E5 <E5 <E5 <E5 5 >F5 >F5 >F5 >F5 >F5 >F5 >F5 >F5 >F5 >F5 >F5 >F5 >F5 >F5 >F5 >F5 >F5 >F5 >F5 5 <E5 <E5 <E5 <E5 <E5 <E5 <E5 <E5 <E5 <E5 <E5 <E5 <E5 <E5 <E5 <E5 <E5 <E5 <E5  >F) >F) >F) >F) >F) >F) >F) >F) >F) >F) >F) >F) >F) >F) ) <E) <E) <E) <E) <E) <E) <E) <E) <E) <E) <E) <E) <E) <E) ) :F) :F) :F) :F) :F) :F) :F) :F) :F) :F) :F) :F) :F) :F) :F) :F) :F) :F) :F) :F) :F) :F) :F) :F) :F) :F) :F) :F) :F)  :F. :F. :F. :F. :F. :F. :F. :F. :F. :F. :F. :F. :F. :F. :F. :F. :F. :F. :F. :F. :F. :F. :F. :F. :F. :F. :F. :F. :F. . >O. >O. >O. >O. >O. >O. >O. >O. >O. >O. >O. >O. >O. >O. >. >Q. >Q. >Q. >Q. >Q. >Q. >Q. >Q. >Q. >Q. >Q. >Q. >Q. >Q. . >R. >R. >R. >R. >R. >R. >R. >R. >R. >R. >R. >R. >R. >R. >R. >R. >R. >R. >R. >R. >R. >R. >R. >R. >R. >R. >R. >R. >R. . CO. CO. CO. CO. CO. CO. CO. CO. CO. CO. CO. CO. CO. CO. C. CQ. CQ. CQ. CQ. CQ. CQ. CQ. CQ. CQ. CQ. CQ. CQ. CQ. CQ.  CR CR CR CR CR CR CR CR CR CR CR CR CR CR CR CR CR CR CR CR CR CR CR CR CR CR CR CR CR  FC FC FC FC FC FC FC FC FC FC FC FC FC FC F FE FE FE FE FE FE FE FE FE FE FE FE FE FE  FF+ FF+ FF+ FF+ FF+ FF+ FF+ FF+ FF+ FF+ FF+ FF+ FF+ FF+ FF+ FF+ FF+ FF+ FF+ FF+ FF+ FF+ FF+ FF+ FF+ FF+ FF+ FF+ FF+ + @C+ @C+ @C+ @C+ @C+ @C+ @C+ @C+ @C+ @C+ @C+ @C+ @C+ @C+ @+ @E+ @E+ @E+ @E+ @E+ @E+ @E+ @E+ @E+ @E+ @E+ @E+ @E+ @E+  @F0 @F0 @F0 @F0 @F0 @F0 @F0 @F0 @F0 @F0 @F0 @F0 @F0 @F0 @F0 @F0 @F0 @F0 @F0 @F0 @F0 @F0 @F0 @F0 @F0 @F0 @F0 @F0 @F0 F0 <F0 <F0 <F0 <F0 <F0 <F0 <F0 <F0 <F0 <F0 <F0 <F0 <F0 <F0 <F0 <F0 <F0 <F0 <F0 <F0 <F0 <F0 <F0 <F0 <F0 <F0 <F0 <F0 <F0 F A2 A2 A2 A2 A2 A2 A2 A2 A2 A2 A2 A2 A2 A2 A2 A2 A2 A2 A2 A2 A2 A2 A2 A2 A2 A2 A2 A2 A2 2 92 92 92 92 92 92 92 92 92 92 92 92 92 92 92 92 92 92 92 92 92 92 92 92 92 92 92 92 92  7. 7. 7. 7. 7. 7. 7. 7. 7. 7. 7. 7. 7. 7. 7. 7. 7. 7. 7. 7. 7. 7. 7. 7. 7. 7. 7. 7. 7. . A. A. A. A. A. A. A. A. A. A. A. A. A. A. A. A. A. A. A. A. A. A. A. A. A. A. A. A. A.  70 70 70 70 70 70 70 70 70 70 70 70 70 70 70 70 70 70 70 70 70 70 70 70 70 70 70 70 70 0 @0 @0 @0 @0 @0 @0 @0 @0 @0 @0 @0 @0 @0 @0 @0 @0 @0 @0 @0 @0 @0 @0 @0 @0 @0 @0 @0 @0 @0  A) A) A) A) A) A) A) A) A) A) A) A) A) A) A) A) A) A) A) A) A) A) A) A) A) A) A) A) A) ) AH) AH) AH) AH) AH) AH) AH) AH) AH) AH) AH) AH) AH) AH) H) CH) CH) CH) CH) CH) CH) CH) CH) CH) CH) CH) CH) CH) CH) ) DH) DH) DH) DH) DH) DH) DH) DH) DH) DH) DH) DH) DH) DH) DH) DH) DH) DH) DH) DH) DH) DH) DH) DH) DH) DH) DH) DH) DH) ) AM) AM) AM) AM) AM) AM) AM) AM) AM) AM) AM) AM) AM) AM) M) CM) CM) CM) CM) CM) CM) CM) CM) CM) CM) CM) CM) CM) CM)  DM DM DM DM DM DM DM DM DM DM DM DM DM DM DM DM DM DM DM DM DM DM DM DM DM DM DM DM DM  5P 5P 5P 5P 5P 5P 5P 5P 5P 5P 5P 5P 5P 5P P 7P 7P 7P 7P 7P 7P 7P 7P 7P 7P 7P 7P 7P 7P  8P) 8P) 8P) 8P) 8P) 8P) 8P) 8P) 8P) 8P) 8P) 8P) 8P) 8P) 8P) 8P) 8P) 8P) 8P) 8P) 8P) 8P) 8P) 8P) 8P) 8P) 8P) 8P) 8P) ) 5J) 5J) 5J) 5J) 5J) 5J) 5J) 5J) 5J) 5J) 5J) 5J) 5J) 5J) J) 7J) 7J) 7J) 7J) 7J) 7J) 7J) 7J) 7J) 7J) 7J) 7J) 7J) 7J)  8J. 8J. 8J. 8J. 8J. 8J. 8J. 8J. 8J. 8J. 8J. 8J. 8J. 8J. 8J. 8J. 8J. 8J. 8J. 8J. 8J. 8J. 8J. 8J. 8J. 8J. 8J. 8J. 8J. 8. 8F. 8F. 8F. 8F. 8F. 8F. 8F. 8F. 8F. 8F. 8F. 8F. 8F. 8F. 8F. 8F. 8F. 8F. 8F. 8F. 8F. 8F. 8F. 8F. 8F. 8F. 8F. 8F. 8F.  K0 K0 K0 K0 K0 K0 K0 K0 K0 K0 K0 K0 K0 K0 K0 K0 K0 K0 K0 K0 K0 K0 K0 K0 K0 K0 K0 K0 K0 0 C0 C0 C0 C0 C0 C0 C0 C0 C0 C0 C0 C0 C0 C0 C0 C0 C0 C0 C0 C0 C0 C0 C0 C0 C0 C0 C0 C0 C0  A, A, A, A, A, A, A, A, A, A, A, A, A, A, A, A, A, A, A, A, A, A, A, A, A, A, A, A, A, , K, K, K, K, K, K, K, K, K, K, K, K, K, K, K, K, K, K, K, K, K, K, K, K, K, K, K, K, K,  A. A. A. A. A. A. A. A. A. A. A. A. A. A. A. A. A. A. A. A. A. A. A. A. A. A. A. A. A. . J. J. J. J. J. J. J. J. J. J. J. J. J. J. J. J. J. J. J. J. J. J. J. J. J. J. J. J. J.  K' K' K' K' K' K' K' K' K' K' K' K' K' K' K' K' K' K' K' K' K' K' K' K' K' K' K' K' K' K' ?K' ?K' ?K' ?K' ?K' ?K' ?K' ?K' ?K' ?K' ?K' ?K' ?K' ?K' K' AK' AK' AK' AK' AK' AK' AK' AK' AK' AK' AK' AK' AK' AK' ' CF' CF' CF' CF' CF' CF' CF' CF' CF' CF' CF' CF' CF' CF' CF' CF' CF' CF' CF' CF' CF' CF' CF' CF' CF' CF' CF' CF' CF' F' ?F' ?F' ?F' ?F' ?F' ?F' ?F' ?F' ?F' ?F' ?F' ?F' ?F' ?F' F' AF' AF' AF' AF' AF' AF' AF' AF' AF' AF' AF' AF' AF' AF'  CK CK CK CK CK CK CK CK CK CK CK CK CK CK CK CK CK CK CK CK CK CK CK CK CK CK CK CK CK K ?K ?K ?K ?K ?K ?K ?K ?K ?K ?K ?K ?K ?K ?K ?K ?K ?K ?K ?K ?K ?K ?K ?K ?K ?K ?K ?K ?K ?K K <K3 <K3 <K3 <K3 <K3 <K3 <K3 <K3 <K3 <K3 <K3 <K3 <K3 <K3 <K3 <K3 <K3 <K3 <K3 <K3 <K3 <K3 <K3 <K3 <K3 <K3 <K3 <K3 <K3 K3 ?K3 ?K3 ?K3 ?K3 ?K3 ?K3 ?K3 ?K3 ?K3 ?K3 ?K3 ?K3 ?K3 ?K3 ?K3 ?K3 ?K3 ?K3 ?K3 ?K3 ?K3 ?K3 ?K3 ?K3 ?K3 ?K3 ?K3 ?K3 ?K3 K 8K5 8K5 8K5 8K5 8K5 8K5 8K5 8K5 8K5 8K5 8K5 8K5 8K5 8K5 8K5 8K5 8K5 8K5 8K5 8K5 8K5 8K5 8K5 8K5 8K5 8K5 8K5 8K5 8K5 5 >E5 >E5 >E5 >E5 >E5 >E5 >E5 >E5 >E5 >E5 >E5 >E5 >E5 >E5 E5 ?E5 ?E5 ?E5 ?E5 ?E5 ?E5 ?E5 ?E5 ?E5 ?E5 ?E5 ?E5 ?E5 ?E5  AG3 AG3 AG3 AG3 AG3 AG3 AG3 AG3 AG3 AG3 AG3 AG3 AG3 AG3 AG3 AG3 AG3 AG3 AG3 AG3 AG3 AG3 AG3 AG3 AG3 AG3 AG3 AG3 AG3 3 >H3 >H3 >H3 >H3 >H3 >H3 >H3 >H3 >H3 >H3 >H3 >H3 >H3 >H3 H3 ?H3 ?H3 ?H3 ?H3 ?H3 ?H3 ?H3 ?H3 ?H3 ?H3 ?H3 ?H3 ?H3 ?H3  AJ2 AJ2 AJ2 AJ2 AJ2 AJ2 AJ2 AJ2 AJ2 AJ2 AJ2 AJ2 AJ2 AJ2 AJ2 AJ2 AJ2 AJ2 AJ2 AJ2 AJ2 AJ2 AJ2 AJ2 AJ2 AJ2 AJ2 AJ2 AJ2 J2 >J2 >J2 >J2 >J2 >J2 >J2 >J2 >J2 >J2 >J2 >J2 >J2 >J2 >J2 >J2 >J2 >J2 >J2 >J2 >J2 >J2 >J2 >J2 >J2 >J2 >J2 >J2 >J2 >J2 J ;J5 ;J5 ;J5 ;J5 ;J5 ;J5 ;J5 ;J5 ;J5 ;J5 ;J5 ;J5 ;J5 ;J5 ;J5 ;J5 ;J5 ;J5 ;J5 ;J5 ;J5 ;J5 ;J5 ;J5 ;J5 ;J5 ;J5 ;J5 ;J5 J5 >J5 >J5 >J5 >J5 >J5 >J5 >J5 >J5 >J5 >J5 >J5 >J5 >J5 >J5 >J5 >J5 >J5 >J5 >J5 >J5 >J5 >J5 >J5 >J5 >J5 >J5 >J5 >J5 >J5 J 7J/ 7J/ 7J/ 7J/ 7J/ 7J/ 7J/ 7J/ 7J/ 7J/ 7J/ 7J/ 7J/ 7J/ 7J/ 7J/ 7J/ 7J/ 7J/ 7J/ 7J/ 7J/ 7J/ 7J/ 7J/ 7J/ 7J/ 7J/ 7J/ / <C/ <C/ <C/ <C/ <C/ <C/ <C/ <C/ <C/ <C/ <C/ <C/ <C/ <C/ C/ >C/ >C/ >C/ >C/ >C/ >C/ >C/ >C/ >C/ >C/ >C/ >C/ >C/ >C/  ?E+ ?E+ ?E+ ?E+ ?E+ ?E+ ?E+ ?E+ ?E+ ?E+ ?E+ ?E+ ?E+ ?E+ ?E+ ?E+ ?E+ ?E+ ?E+ ?E+ ?E+ ?E+ ?E+ ?E+ ?E+ ?E+ ?E+ ?E+ ?E+ + <G+ <G+ <G+ <G+ <G+ <G+ <G+ <G+ <G+ <G+ <G+ <G+ <G+ <G+ G+ >G+ >G+ >G+ >G+ >G+ >G+ >G+ >G+ >G+ >G+ >G+ >G+ >G+ >G+  ?H ?H ?H ?H ?H ?H ?H ?H ?H ?H ?H ?H ?H ?H ?H ?H ?H ?H ?H ?H ?H ?H ?H ?H ?H ?H ?H ?H ?H H <H <H <H <H <H <H <H <H <H <H <H <H <H <H <H <H <H <H <H <H <H <H <H <H <H <H <H <H <H H 8H0 8H0 8H0 8H0 8H0 8H0 8H0 8H0 8H0 8H0 8H0 8H0 8H0 8H0 8H0 8H0 8H0 8H0 8H0 8H0 8H0 8H0 8H0 8H0 8H0 8H0 8H0 8H0 8H0 H <H. <H. <H. <H. <H. <H. <H. <H. <H. <H. <H. <H. <H. <H. <H. <H. <H. <H. <H. <H. <H. <H. <H. <H. <H. <H. <H. <H. <H. H 5H, 5H, 5H, 5H, 5H, 5H, 5H, 5H, 5H, 5H, 5H, 5H, 5H, 5H, 5H, 5H, 5H, 5H, 5H, 5H, 5H, 5H, 5H, 5H, 5H, 5H, 5H, 5H, 5H,  ;M+ ;M+ ;M+ ;M+ ;M+ ;M+ ;M+ ;M+ ;M+ ;M+ ;M+ ;M+ ;M+ ;M+ M+ <M+ <M+ <M+ <M+ <M+ <M+ <M+ <M+ <M+ <M+ <M+ <M+ <M+ <M+  >O) >O) >O) >O) >O) >O) >O) >O) >O) >O) >O) >O) >O) >O) >O) >O) >O) >O) >O) >O) >O) >O) >O) >O) >O) >O) >O) >O) >O) ) ;P) ;P) ;P) ;P) ;P) ;P) ;P) ;P) ;P) ;P) ;P) ;P) ;P) ;P) P) <P) <P) <P) <P) <P) <P) <P) <P) <P) <P) <P) <P) <P) <P) ) >G) >G) >G) >G) >G) >G) >G) >G) >G) >G) >G) >G) >G) >G) >G) >G) >G) >G) >G) >G) >G) >G) >G) >G) >G) >G) >G) >G) >G) G ;G, ;G, ;G, ;G, ;G, ;G, ;G, ;G, ;G, ;G, ;G, ;G, ;G, ;G, ;G, ;G, ;G, ;G, ;G, ;G, ;G, ;G, ;G, ;G, ;G, ;G, ;G, ;G, ;G, G 7G+ 7G+ 7G+ 7G+ 7G+ 7G+ 7G+ 7G+ 7G+ 7G+ 7G+ 7G+ 7G+ 7G+ 7G+ 7G+ 7G+ 7G+ 7G+ 7G+ 7G+ 7G+ 7G+ 7G+ 7G+ 7G+ 7G+ 7G+ 7G+ G ;G) ;G) ;G) ;G) ;G) ;G) ;G) ;G) ;G) ;G) ;G) ;G) ;G) ;G) ;G) ;G) ;G) ;G) ;G) ;G) ;G) ;G) ;G) ;G) ;G) ;G) ;G) ;G) ;G)  <' <' <' <' <' <' <' <' <' <' <' <' <' <' <' <' <' <' <' <' <' <' <' <' <' <' <' <' <' <' <H' <H' <H' <H' <H' <H' <H' <H' <H' <H' <H' <H' <H' <H' <' <J' <J' <J' <J' <J' <J' <J' <J' <J' <J' <J' <J' <J' <J'  0K+ 0K+ 0K+ 0K+ 0K+ 0K+ 0K+ 0K+ 0K+ 0K+ 0K+ 0K+ 0K+ 0K+ 0K+ 0K+ 0K+ 0K+ 0K+ 0K+ 0K+ 0K+ 0K+ 0K+ 0K+ 0K+ 0K+ 0K+ 0K+ 0+ 0H+ 0H+ 0H+ 0H+ 0H+ 0H+ 0H+ 0H+ 0H+ 0H+ 0H+ 0H+ 0H+ 0H+ 0+ 0J+ 0J+ 0J+ 0J+ 0J+ 0J+ 0J+ 0J+ 0J+ 0J+ 0J+ 0J+ 0J+ 0J+  K$ K$ K$ K$ K$ K$ K$ K$ K$ K$ K$ K$ K$ K$ K$ K$ K$ K$ K$ K$ K$ K$ K$ K$ K$ K$ K$ K$ K$ $ H$ H$ H$ H$ H$ H$ H$ H$ H$ H$ H$ H$ H$ H$ H$ H$ H$ H$ H$ H$ H$ H$ H$ H$ H$ H$ H$ H$ H$  E0 E0 E0 E0 E0 E0 E0 E0 E0 E0 E0 E0 E0 E0 E0 E0 E0 E0 E0 E0 E0 E0 E0 E0 E0 E0 E0 E0 E0 0 H0 H0 H0 H0 H0 H0 H0 H0 H0 H0 H0 H0 H0 H0 H0 H0 H0 H0 H0 H0 H0 H0 H0 H0 H0 H0 H0 H0 H0 0 B0 B0 B0 B0 B0 B0 B0 B0 B0 B0 B0 B0 B0 B0 B0 B0 B0 B0 B0 B0 B0 B0 B0 B0 B0 B0 B0 B0 B0 B0 :B0 :B0 :B0 :B0 :B0 :B0 :B0 :B0 :B0 :B0 :B0 :B0 :B0 :B0 B0 <B0 <B0 <B0 <B0 <B0 <B0 <B0 <B0 <B0 <B0 <B0 <B0 <B0 <B0  >. >. >. >. >. >. >. >. >. >. >. >. >. >. >. >. >. >. >. >. >. >. >. >. >. >. >. >. >.  :- :- :- :- :- :- :- :- :- :- :- :- :- :- - <- <- <- <- <- <- <- <- <- <- <- <- <- <-  >. >. >. >. >. >. >. >. >. >. >. >. >. >. >. >. >. >. >. >. >. >. >. >. >. >. >. >. >. . :. :. :. :. :. :. :. :. :. :. :. :. :. :. :. :. :. :. :. :. :. :. :. :. :. :. :. :. :.  7: 7: 7: 7: 7: 7: 7: 7: 7: 7: 7: 7: 7: 7: 7: 7: 7: 7: 7: 7: 7: 7: 7: 7: 7: 7: 7: 7: 7: : :: :: :: :: :: :: :: :: :: :: :: :: :: :: :: :: :: :: :: :: :: :: :: :: :: :: :: :: :: : 4: 4: 4: 4: 4: 4: 4: 4: 4: 4: 4: 4: 4: 4: 4: 4: 4: 4: 4: 4: 4: 4: 4: 4: 4: 4: 4: 4: 4: 4: 4E: 4E: 4E: 4E: 4E: 4E: 4E: 4E: 4E: 4E: 4E: 4E: 4E: 4E: 4: 4F: 4F: 4F: 4F: 4F: 4F: 4F: 4F: 4F: 4F: 4F: 4F: 4F: 4F:  6H9 6H9 6H9 6H9 6H9 6H9 6H9 6H9 6H9 6H9 6H9 6H9 6H9 6H9 6H9 6H9 6H9 6H9 6H9 6H9 6H9 6H9 6H9 6H9 6H9 6H9 6H9 6H9 6H9  7E7 7E7 7E7 7E7 7E7 7E7 7E7 7E7 7E7 7E7 7E7 7E7 7E7 7E7 77 7F7 7F7 7F7 7F7 7F7 7F7 7F7 7F7 7F7 7F7 7F7 7F7 7F7 7F7  9H6 9H6 9H6 9H6 9H6 9H6 9H6 9H6 9H6 9H6 9H6 9H6 9H6 9H6 9H6 9H6 9H6 9H6 9H6 9H6 9H6 9H6 9H6 9H6 9H6 9H6 9H6 9H6 9H6 96 9E6 9E6 9E6 9E6 9E6 9E6 9E6 9E6 9E6 9E6 9E6 9E6 9E6 9E6 9E6 9E6 9E6 9E6 9E6 9E6 9E6 9E6 9E6 9E6 9E6 9E6 9E6 9E6 9E6 9 9B2 9B2 9B2 9B2 9B2 9B2 9B2 9B2 9B2 9B2 9B2 9B2 9B2 9B2 9B2 9B2 9B2 9B2 9B2 9B2 9B2 9B2 9B2 9B2 9B2 9B2 9B2 9B2 9B2 92 9E2 9E2 9E2 9E2 9E2 9E2 9E2 9E2 9E2 9E2 9E2 9E2 9E2 9E2 9E2 9E2 9E2 9E2 9E2 9E2 9E2 9E2 9E2 9E2 9E2 9E2 9E2 9E2 9E2 9 9F7 9F7 9F7 9F7 9F7 9F7 9F7 9F7 9F7 9F7 9F7 9F7 9F7 9F7 9F7 9F7 9F7 9F7 9F7 9F7 9F7 9F7 9F7 9F7 9F7 9F7 9F7 9F7 9F7 F7 7F7 7F7 7F7 7F7 7F7 7F7 7F7 7F7 7F7 7F7 7F7 7F7 7F7 7F7 F7 9F7 9F7 9F7 9F7 9F7 9F7 9F7 9F7 9F7 9F7 9F7 9F7 9F7 9F7  :J+ :J+ :J+ :J+ :J+ :J+ :J+ :J+ :J+ :J+ :J+ :J+ :J+ :J+ :J+ :J+ :J+ :J+ :J+ :J+ :J+ :J+ :J+ :J+ :J+ :J+ :J+ :J+ :J+ J+ 7J+ 7J+ 7J+ 7J+ 7J+ 7J+ 7J+ 7J+ 7J+ 7J+ 7J+ 7J+ 7J+ 7J+ J+ 9J+ 9J+ 9J+ 9J+ 9J+ 9J+ 9J+ 9J+ 9J+ 9J+ 9J+ 9J+ 9J+ 9J+  :O :O :O :O :O :O :O :O :O :O :O :O :O :O : :N :N :N :N :N :N :N :N :N :N :N :N :N :N  7O 7O 7O 7O 7O 7O 7O 7O 7O 7O 7O 7O 7O 7O 7O 7O 7O 7O 7O 7O 7O 7O 7O 7O 7O 7O 7O 7O 7O O 2O+ 2O+ 2O+ 2O+ 2O+ 2O+ 2O+ 2O+ 2O+ 2O+ 2O+ 2O+ 2O+ 2O+ 2O+ 2O+ 2O+ 2O+ 2O+ 2O+ 2O+ 2O+ 2O+ 2O+ 2O+ 2O+ 2O+ 2O+ 2O+ O+ 5O+ 5O+ 5O+ 5O+ 5O+ 5O+ 5O+ 5O+ 5O+ 5O+ 5O+ 5O+ 5O+ 5O+ 5O+ 5O+ 5O+ 5O+ 5O+ 5O+ 5O+ 5O+ 5O+ 5O+ 5O+ 5O+ 5O+ 5O+ 5O+ O 4O0 4O0 4O0 4O0 4O0 4O0 4O0 4O0 4O0 4O0 4O0 4O0 4O0 4O0 4O0 4O0 4O0 4O0 4O0 4O0 4O0 4O0 4O0 4O0 4O0 4O0 4O0 4O0 4O0 0 9Q0 9Q0 9Q0 9Q0 9Q0 9Q0 9Q0 9Q0 9Q0 9Q0 9Q0 9Q0 9Q0 9Q0 0 :O0 :O0 :O0 :O0 :O0 :O0 :O0 :O0 :O0 :O0 :O0 :O0 :O0 :O0  <N4 <N4 <N4 <N4 <N4 <N4 <N4 <N4 <N4 <N4 <N4 <N4 <N4 <N4 <N4 <N4 <N4 <N4 <N4 <N4 <N4 <N4 <N4 <N4 <N4 <N4 <N4 <N4 <N4 4 9O4 9O4 9O4 9O4 9O4 9O4 9O4 9O4 9O4 9O4 9O4 9O4 9O4 9O4 O4 :O4 :O4 :O4 :O4 :O4 :O4 :O4 :O4 :O4 :O4 :O4 :O4 :O4 :O4  <Q- <Q- <Q- <Q- <Q- <Q- <Q- <Q- <Q- <Q- <Q- <Q- <Q- <Q- <- <O- <O- <O- <O- <O- <O- <O- <O- <O- <O- <O- <O- <O- <O- - 9Q- 9Q- 9Q- 9Q- 9Q- 9Q- 9Q- 9Q- 9Q- 9Q- 9Q- 9Q- 9Q- 9Q- 9Q- 9Q- 9Q- 9Q- 9Q- 9Q- 9Q- 9Q- 9Q- 9Q- 9Q- 9Q- 9Q- 9Q- 9Q- Q 4Q0 4Q0 4Q0 4Q0 4Q0 4Q0 4Q0 4Q0 4Q0 4Q0 4Q0 4Q0 4Q0 4Q0 4Q0 4Q0 4Q0 4Q0 4Q0 4Q0 4Q0 4Q0 4Q0 4Q0 4Q0 4Q0 4Q0 4Q0 4Q0 Q0 7Q0 7Q0 7Q0 7Q0 7Q0 7Q0 7Q0 7Q0 7Q0 7Q0 7Q0 7Q0 7Q0 7Q0 7Q0 7Q0 7Q0 7Q0 7Q0 7Q0 7Q0 7Q0 7Q0 7Q0 7Q0 7Q0 7Q0 7Q0 7Q0 Q 6Q2 6Q2 6Q2 6Q2 6Q2 6Q2 6Q2 6Q2 6Q2 6Q2 6Q2 6Q2 6Q2 6Q2 6Q2 6Q2 6Q2 6Q2 6Q2 6Q2 6Q2 6Q2 6Q2 6Q2 6Q2 6Q2 6Q2 6Q2 6Q2 2 :R2 :R2 :R2 :R2 :R2 :R2 :R2 :R2 :R2 :R2 :R2 :R2 :R2 :R2 2 <Q2 <Q2 <Q2 <Q2 <Q2 <Q2 <Q2 <Q2 <Q2 <Q2 <Q2 <Q2 <Q2 <Q2  >O6 >O6 >O6 >O6 >O6 >O6 >O6 >O6 >O6 >O6 >O6 >O6 >O6 >O6 >O6 >O6 >O6 >O6 >O6 >O6 >O6 >O6 >O6 >O6 >O6 >O6 >O6 >O6 >O6 6 :Q6 :Q6 :Q6 :Q6 :Q6 :Q6 :Q6 :Q6 :Q6 :Q6 :Q6 :Q6 :Q6 :Q6 Q6 <Q6 <Q6 <Q6 <Q6 <Q6 <Q6 <Q6 <Q6 <Q6 <Q6 <Q6 <Q6 <Q6 <Q6  >R. >R. >R. >R. >R. >R. >R. >R. >R. >R. >R. >R. >R. >R. >. >Q. >Q. >Q. >Q. >Q. >Q. >Q. >Q. >Q. >Q. >Q. >Q. >Q. >Q. . :R. :R. :R. :R. :R. :R. :R. :R. :R. :R. :R. :R. :R. :R. :R. :R. :R. :R. :R. :R. :R. :R. :R. :R. :R. :R. :R. :R. :R. R 6R2 6R2 6R2 6R2 6R2 6R2 6R2 6R2 6R2 6R2 6R2 6R2 6R2 6R2 6R2 6R2 6R2 6R2 6R2 6R2 6R2 6R2 6R2 6R2 6R2 6R2 6R2 6R2 6R2 R2 9R2 9R2 9R2 9R2 9R2 9R2 9R2 9R2 9R2 9R2 9R2 9R2 9R2 9R2 9R2 9R2 9R2 9R2 9R2 9R2 9R2 9R2 9R2 9R2 9R2 9R2 9R2 9R2 9R2 R 7R3 7R3 7R3 7R3 7R3 7R3 7R3 7R3 7R3 7R3 7R3 7R3 7R3 7R3 7R3 7R3 7R3 7R3 7R3 7R3 7R3 7R3 7R3 7R3 7R3 7R3 7R3 7R3 7R3 3 <T3 <T3 <T3 <T3 <T3 <T3 <T3 <T3 <T3 <T3 <T3 <T3 <T3 <T3 3 >R3 >R3 >R3 >R3 >R3 >R3 >R3 >R3 >R3 >R3 >R3 >R3 >R3 >R3  ?Q7 ?Q7 ?Q7 ?Q7 ?Q7 ?Q7 ?Q7 ?Q7 ?Q7 ?Q7 ?Q7 ?Q7 ?Q7 ?Q7 ?Q7 ?Q7 ?Q7 ?Q7 ?Q7 ?Q7 ?Q7 ?Q7 ?Q7 ?Q7 ?Q7 ?Q7 ?Q7 ?Q7 ?Q7 7 <R7 <R7 <R7 <R7 <R7 <R7 <R7 <R7 <R7 <R7 <R7 <R7 <R7 <R7 R7 >R7 >R7 >R7 >R7 >R7 >R7 >R7 >R7 >R7 >R7 >R7 >R7 >R7 >R7  ?T0 ?T0 ?T0 ?T0 ?T0 ?T0 ?T0 ?T0 ?T0 ?T0 ?T0 ?T0 ?T0 ?T0 ?0 ?R0 ?R0 ?R0 ?R0 ?R0 ?R0 ?R0 ?R0 ?R0 ?R0 ?R0 ?R0 ?R0 ?R0 0 <T0 <T0 <T0 <T0 <T0 <T0 <T0 <T0 <T0 <T0 <T0 <T0 <T0 <T0 <T0 <T0 <T0 <T0 <T0 <T0 <T0 <T0 <T0 <T0 <T0 <T0 <T0 <T0 <T0 T 7T3 7T3 7T3 7T3 7T3 7T3 7T3 7T3 7T3 7T3 7T3 7T3 7T3 7T3 7T3 7T3 7T3 7T3 7T3 7T3 7T3 7T3 7T3 7T3 7T3 7T3 7T3 7T3 7T3 T3 :T3 :T3 :T3 :T3 :T3 :T3 :T3 :T3 :T3 :T3 :T3 :T3 :T3 :T3 :T3 :T3 :T3 :T3 :T3 :T3 :T3 :T3 :T3 :T3 :T3 :T3 :T3 :T3 :T3 T 9T* 9T* 9T* 9T* 9T* 9T* 9T* 9T* 9T* 9T* 9T* 9T* 9T* 9T* 9T* 9T* 9T* 9T* 9T* 9T* 9T* 9T* 9T* 9T* 9T* 9T* 9T* 9T* 9T* * 6Q* 6Q* 6Q* 6Q* 6Q* 6Q* 6Q* 6Q* 6Q* 6Q* 6Q* 6Q* 6Q* 6Q* * 7R* 7R* 7R* 7R* 7R* 7R* 7R* 7R* 7R* 7R* 7R* 7R* 7R* 7R* * 9T* 9T* 9T* 9T* 9T* 9T* 9T* 9T* 9T* 9T* 9T* 9T* 9T* 9T* 9T* 9T* 9T* 9T* 9T* 9T* 9T* 9T* 9T* 9T* 9T* 9T* 9T* 9T* 9T* * 6Q* 6Q* 6Q* 6Q* 6Q* 6Q* 6Q* 6Q* 6Q* 6Q* 6Q* 6Q* 6Q* 6Q* * 7R* 7R* 7R* 7R* 7R* 7R* 7R* 7R* 7R* 7R* 7R* 7R* 7R* 7R*  9T 9T 9T 9T 9T 9T 9T 9T 9T 9T 9T 9T 9T 9T 9T 9T 9T 9T 9T 9T 9T 9T 9T 9T 9T 9T 9T 9T 9T  6Q0 6Q0 6Q0 6Q0 6Q0 6Q0 6Q0 6Q0 6Q0 6Q0 6Q0 6Q0 6Q0 6Q0 6Q0 6Q0 6Q0 6Q0 6Q0 6Q0 6Q0 6Q0 6Q0 6Q0 6Q0 6Q0 6Q0 6Q0 6Q0  2V. 2V. 2V. 2V. 2V. 2V. 2V. 2V. 2V. 2V. 2V. 2V. 2V. 2V. 2V. 2V. 2V. 2V. 2V. 2V. 2V. 2V. 2V. 2V. 2V. 2V. 2V. 2V. 2V. V 6V- 6V- 6V- 6V- 6V- 6V- 6V- 6V- 6V- 6V- 6V- 6V- 6V- 6V- 6V- 6V- 6V- 6V- 6V- 6V- 6V- 6V- 6V- 6V- 6V- 6V- 6V- 6V- 6V- V 7V. 7V. 7V. 7V. 7V. 7V. 7V. 7V. 7V. 7V. 7V. 7V. 7V. 7V. 7V. 7V. 7V. 7V. 7V. 7V. 7V. 7V. 7V. 7V. 7V. 7V. 7V. 7V. 7V. . 6Q. 6Q. 6Q. 6Q. 6Q. 6Q. 6Q. 6Q. 6Q. 6Q. 6Q. 6Q. 6Q. 6Q. 6Q. 6Q. 6Q. 6Q. 6Q. 6Q. 6Q. 6Q. 6Q. 6Q. 6Q. 6Q. 6Q. 6Q. 6Q.  7R+ 7R+ 7R+ 7R+ 7R+ 7R+ 7R+ 7R+ 7R+ 7R+ 7R+ 7R+ 7R+ 7R+ 7R+ 7R+ 7R+ 7R+ 7R+ 7R+ 7R+ 7R+ 7R+ 7R+ 7R+ 7R+ 7R+ 7R+ 7R+ + ?O+ ?O+ ?O+ ?O+ ?O+ ?O+ ?O+ ?O+ ?O+ ?O+ ?O+ ?O+ ?O+ ?O+ ?O+ ?O+ ?O+ ?O+ ?O+ ?O+ ?O+ ?O+ ?O+ ?O+ ?O+ ?O+ ?O+ ?O+ ?O+  :N2 :N2 :N2 :N2 :N2 :N2 :N2 :N2 :N2 :N2 :N2 :N2 :N2 :N2 N2 9N2 9N2 9N2 9N2 9N2 9N2 9N2 9N2 9N2 9N2 9N2 9N2 9N2 9N2 N2 :N2 :N2 :N2 :N2 :N2 :N2 :N2 :N2 :N2 :N2 :N2 :N2 :N2 :N2 N2 9N2 9N2 9N2 9N2 9N2 9N2 9N2 9N2 9N2 9N2 9N2 9N2 9N2 9N2 N :N& :N& :N& :N& :N& :N& :N& :N& :N& :N& :N& :N& :N& :N& N& 9N& 9N& 9N& 9N& 9N& 9N& 9N& 9N& 9N& 9N& 9N& 9N& 9N& 9N& & 7O& 7O& 7O& 7O& 7O& 7O& 7O& 7O& 7O& 7O& 7O& 7O& 7O& 7O& 7O& 7O& 7O& 7O& 7O& 7O& 7O& 7O& 7O& 7O& 7O& 7O& 7O& 7O& 7O&  7O+ 7O+ 7O+ 7O+ 7O+ 7O+ 7O+ 7O+ 7O+ 7O+ 7O+ 7O+ 7O+ 7O+ 7O+ 7O+ 7O+ 7O+ 7O+ 7O+ 7O+ 7O+ 7O+ 7O+ 7O+ 7O+ 7O+ 7O+ 7O+ 7O+ 7O+ 7O+ 7O+ 7O+ 7O+ 7O+ 7O+ 7O+ 7O+ 7O+ 7O+ 7O+ 7O+ 7O+ 7O+ 7O+ 7O+ 7O+ 7O+ 7O+ 7O+ 7O+ 7O+ 7O+ 7O+ 7O+ 7O+ 7O+ 7O+  7OC 7OC 7OC 7OC 7OC 7OC 7OC 7OC 7OC 7OC 7OC 7OC 7OC 7OC 7OC 7OC 7OC 7OC 7OC 7OC 7OC 7OC 7OC 7OC 7OC 7OC 7OC 7OC 7OC  6NB 6NB 6NB 6NB 6NB 6NB 6NB 6NB 6NB 6NB 6NB 6NB 6NB 6NB 6NB 6NB 6NB 6NB 6NB 6NB 6NB 6NB 6NB 6NB 6NB 6NB 6NB 6NB 6NB  7OC 7OC 7OC 7OC 7OC 7OC 7OC 7OC 7OC 7OC 7OC 7OC 7OC 7OC 7OC 7OC 7OC 7OC 7OC 7OC 7OC 7OC 7OC 7OC 7OC 7OC 7OC 7OC 7OC 7OC 7OC 7OC 7OC 7OC 7OC 7OC 7OC 7OC 7OC 7OC 7OC 7OC 7OC 7OC 7OC 7OC 7OC 7OC 7OC 7OC 7OC 7OC 7OC 7OC 7OC 7OC 7OC 7OC 7OC  2J> 2J> 2J> 2J> 2J> 2J> 2J> 2J> 2J> 2J> 2J> 2J> 2J> 2J> 2J> 2J> 2J> 2J> 2J> 2J> 2J> 2J> 2J> 2J> 2J> 2J> 2J> 2J> 2J>  0H< 0H< 0H< 0H< 0H< 0H< 0H< 0H< 0H< 0H< 0H< 0H< 0H< 0H< 0H< 0H< 0H< 0H< 0H< 0H< 0H< 0H< 0H< 0H< 0H< 0H< 0H< 0H< 0H<  2J> 2J> 2J> 2J> 2J> 2J> 2J> 2J> 2J> 2J> 2J> 2J> 2J> 2J> 2J> 2J> 2J> 2J> 2J> 2J> 2J> 2J> 2J> 2J> 2J> 2J> 2J> 2J> 2J> 2J> 2J> 2J> 2J> 2J> 2J> 2J> 2J> 2J> 2J> 2J> 2J> 2J> 2J> 2J> 2J> 2J> 2J> 2J> 2J> 2J> 2J> 2J> 2J> 2J> 2J> 2J> 2J> 2J> 2J>  .F: .F: .F: .F: .F: .F: .F: .F: .F: .F: .F: .F: .F: .F: .F: .F: .F: .F: .F: .F: .F: .F: .F: .F: .F: .F: .F: .F: .F:  -E9 -E9 -E9 -E9 -E9 -E9 -E9 -E9 -E9 -E9 -E9 -E9 -E9 -E9 -E9 -E9 -E9 -E9 -E9 -E9 -E9 -E9 -E9 -E9 -E9 -E9 -E9 -E9 -E9  .F: .F: .F: .F: .F: .F: .F: .F: .F: .F: .F: .F: .F: .F: .F: .F: .F: .F: .F: .F: .F: .F: .F: .F: .F: .F: .F: .F: .F: .F: .F: .F: .F: .F: .F: .F: .F: .F: .F: .F: .F: .F: .F: .F: .F: .F: .F: .F: .F: .F: .F: .F: .F: .F: .F: .F: .F: .F: .F:  +C7 +C7 +C7 +C7 +C7 +C7 +C7 +C7 +C7 +C7 +C7 +C7 +C7 +C7 +C7 +C7 +C7 +C7 +C7 +C7 +C7 +C7 +C7 +C7 +C7 +C7 +C7 +C7 +C7  *B6 *B6 *B6 *B6 *B6 *B6 *B6 *B6 *B6 *B6 *B6 *B6 *B6 *B6 *B6 *B6 *B6 *B6 *B6 *B6 *B6 *B6 *B6 *B6 *B6 *B6 *B6 *B6 *B6  +C7 +C7 +C7 +C7 +C7 +C7 +C7 +C7 +C7 +C7 +C7 +C7 +C7 +C7 +C7 +C7 +C7 +C7 +C7 +C7 +C7 +C7 +C7 +C7 +C7 +C7 +C7 +C7 +C7 +C7 +C7 +C7 +C7 +C7 +C7 +C7 +C7 +C7 +C7 +C7 +C7 +C7 +C7 +C7 +C7 +C7 +C7 +C7 +C7 +C7 +C7 +C7 +C7 +C7 +C7 +C7 +C7 +C7 +C7  .F: .F: .F: .F: .F: .F: .F: .F: .F: .F: .F: .F: .F: .F: .F: .F: .F: .F: .F: .F: .F: .F: .F: .F: .F: .F: .F: .F: .F: .F: .F: .F: .F: .F: .F: .F: .F: .F: .F: .F: .F: .F: .F: .F: .F: .F: .F: .F: .F: .F: .F: .F: .F: .F: .F: .F: .F: .F: .F:  2J> 2J> 2J> 2J> 2J> 2J> 2J> 2J> 2J> 2J> 2J> 2J> 2J> 2J> 2J> 2J> 2J> 2J> 2J> 2J> 2J> 2J> 2J> 2J> 2J> 2J> 2J> 2J> 2J> 2J> 2J> 2J> 2J> 2J> 2J> 2J> 2J> 2J> 2J> 2J> 2J> 2J> 2J> 2J> 2J> 2J> 2J> 2J> 2J> 2J> 2J> 2J> 2J> 2J> 2J> 2J> 2J> 2J> 2J>  7OC 7OC 7OC 7OC 7OC 7OC 7OC 7OC 7OC 7OC 7OC 7OC 7OC 7OC 7OC 7OC 7OC 7OC 7OC 7OC 7OC 7OC 7OC 7OC 7OC 7OC 7OC 7OC 7OC 7OC 7OC 7OC 7OC 7OC 7OC 7OC 7OC 7OC 7OC 7OC 7OC 7OC 7OC 7OC 7OC 7OC 7OC 7OC 7OC 7OC 7OC 7OC 7OC 7OC 7OC 7OC 7OC 7OC 7OC  9QE 9QE 9QE 9QE 9QE 9QE 9QE 9QE 9QE 9QE 9QE 9QE 9QE 9QE 9QE 9QE 9QE 9QE 9QE 9QE 9QE 9QE 9QE 9QE 9QE 9QE 9QE 9QE 9QE  7OC 7OC 7OC 7OC 7OC 7OC 7OC 7OC 7OC 7OC 7OC 7OC 7OC 7OC 7OC 7OC 7OC 7OC 7OC 7OC 7OC 7OC 7OC 7OC 7OC 7OC 7OC 7OC 7OC  6NB 6NB 6NB 6NB 6NB 6NB 6NB 6NB 6NB 6NB 6NB 6NB 6NB 6NB 6NB 6NB 6NB 6NB 6NB 6NB 6NB 6NB 6NB 6NB 6NB 6NB 6NB 6NB 6NB  4L@ 4L@ 4L@ 4L@ 4L@ 4L@ 4L@ 4L@ 4L@ 4L@ 4L@ 4L@ 4L@ 4L@ 4L@ 4L@ 4L@ 4L@ 4L@ 4L@ 4L@ 4L@ 4L@ 4L@ 4L@ 4L@ 4L@ 4L@ 4L@  2J> 2J> 2J> 2J> 2J> 2J> 2J> 2J> 2J> 2J> 2J> 2J> 2J> 2J> 2J> 2J> 2J> 2J> 2J> 2J> 2J> 2J> 2J> 2J> 2J> 2J> 2J> 2J> 2J> J 3J< 3J< 3J< 3J< 3J< 3J< 3J< 3J< 3J< 3J< 3J< 3J< 3J< 3J< 3J< 3J< 3J< 3J< 3J< 3J< 3J< 3J< 3J< 3J< 3J< 3J< 3J< 3J< 3J< J 3J; 3J; 3J; 3J; 3J; 3J; 3J; 3J; 3J; J; 5J; 5J; 5J; 5J; 5J; 5J; 5J; 5J; 5J; J; 3J; 3J; 3J; 3J; 3J; 3J; 3J; 3J; 3J; J 2J9 2J9 2J9 2J9 2J9 2J9 2J9 2J9 2J9 2J9 2J9 2J9 2J9 2J9 J9 3J9 3J9 3J9 3J9 3J9 3J9 3J9 3J9 3J9 3J9 3J9 3J9 3J9 3J9 J 5J; 5J; 5J; 5J; 5J; 5J; 5J; 5J; 5J; 5J; 5J; 5J; 5J; 5J; 5J; 5J; 5J; 5J; 5J; 5J; 5J; 5J; 5J; 5J; 5J; 5J; 5J; 5J; 5J; 5J; 5J; 5J; 5J; 5J; 5J; 5J; 5J; 5J; 5J; 5J; 5J; 5J; 5J; 5J; 5J; 5J; 5J; 5J; 5J; 5J; 5J; 5J; 5J; 5J; 5J; 5J; 5J; 5J; 5J;  AD/ AD/ AD/ AD/ AD/ AD/ AD/ AD/ AD/ AD/ AD/ AD/ AD/ AD/ AD/ AD/ AD/ AD/ AD/ AD/ AD/ AD/ AD/ AD/ AD/ AD/ AD/ AD/ AD/ / ?C/ ?C/ ?C/ ?C/ ?C/ ?C/ ?C/ ?C/ ?C/ ?C/ ?C/ ?C/ ?C/ ?C/ ?C/ ?C/ ?C/ ?C/ ?C/ ?C/ ?C/ ?C/ ?C/ ?C/ ?C/ ?C/ ?C/ ?C/ ?C/  AD/ AD/ AD/ AD/ AD/ AD/ AD/ AD/ AD/ AD/ AD/ AD/ AD/ AD/ AD/ AD/ AD/ AD/ AD/ AD/ AD/ AD/ AD/ AD/ AD/ AD/ AD/ AD/ AD/ A/ AM/ AM/ AM/ AM/ AM/ AM/ AM/ AM/ AM/ AM/ AM/ AM/ AM/ AM/ AM/ AM/ AM/ AM/ AM/ AM/ AM/ AM/ AM/ AM/ AM/ AM/ AM/ AM/ AM/  >D/ >D/ >D/ >D/ >D/ >D/ >D/ >D/ >D/ >D/ >D/ >D/ >D/ >D/ >D/ >D/ >D/ >D/ >D/ >D/ >D/ >D/ >D/ >D/ >D/ >D/ >D/ >D/ >D/ / <M/ <M/ <M/ <M/ <M/ <M/ <M/ <M/ <M/ <M/ <M/ <M/ <M/ <M/ <M/ <M/ <M/ <M/ <M/ <M/ <M/ <M/ <M/ <M/ <M/ <M/ <M/ <M/ <M/  >D/ >D/ >D/ >D/ >D/ >D/ >D/ >D/ >D/ >D/ >D/ >D/ >D/ >D/ >D/ >D/ >D/ >D/ >D/ >D/ >D/ >D/ >D/ >D/ >D/ >D/ >D/ >D/ >D/ >/ >M/ >M/ >M/ >M/ >M/ >M/ >M/ >M/ >M/ >M/ >M/ >M/ >M/ >M/ >M/ >M/ >M/ >M/ >M/ >M/ >M/ >M/ >M/ >M/ >M/ >M/ >M/ >M/ >M/  ;C/ ;C/ ;C/ ;C/ ;C/ ;C/ ;C/ ;C/ ;C/ ;C/ ;C/ ;C/ ;C/ ;C/ ;C/ ;C/ ;C/ ;C/ ;C/ ;C/ ;C/ ;C/ ;C/ ;C/ ;C/ ;C/ ;C/ ;C/ ;C/ / 9A/ 9A/ 9A/ 9A/ 9A/ 9A/ 9A/ 9A/ 9A/ 9A/ 9A/ 9A/ 9A/ 9A/ 9A/ 9A/ 9A/ 9A/ 9A/ 9A/ 9A/ 9A/ 9A/ 9A/ 9A/ 9A/ 9A/ 9A/ 9A/  ;C/ ;C/ ;C/ ;C/ ;C/ ;C/ ;C/ ;C/ ;C/ ;C/ ;C/ ;C/ ;C/ ;C/ ;C/ ;C/ ;C/ ;C/ ;C/ ;C/ ;C/ ;C/ ;C/ ;C/ ;C/ ;C/ ;C/ ;C/ ;C/ ;/ ;M/ ;M/ ;M/ ;M/ ;M/ ;M/ ;M/ ;M/ ;M/ ;M/ ;M/ ;M/ ;M/ ;M/ ;M/ ;M/ ;M/ ;M/ ;M/ ;M/ ;M/ ;M/ ;M/ ;M/ ;M/ ;M/ ;M/ ;M/ ;M/  7G/ 7G/ 7G/ 7G/ 7G/ 7G/ 7G/ 7G/ 7G/ 7G/ 7G/ 7G/ 7G/ 7G/ 7G/ 7G/ 7G/ 7G/ 7G/ 7G/ 7G/ 7G/ 7G/ 7G/ 7G/ 7G/ 7G/ 7G/ 7G/ / 5M/ 5M/ 5M/ 5M/ 5M/ 5M/ 5M/ 5M/ 5M/ 5M/ 5M/ 5M/ 5M/ 5M/ 5M/ 5M/ 5M/ 5M/ 5M/ 5M/ 5M/ 5M/ 5M/ 5M/ 5M/ 5M/ 5M/ 5M/ 5M/  7J/ 7J/ 7J/ 7J/ 7J/ 7J/ 7J/ 7J/ 7J/ 7J/ 7J/ 7J/ 7J/ 7J/ 7J/ 7J/ 7J/ 7J/ 7J/ 7J/ 7J/ 7J/ 7J/ 7J/ 7J/ 7J/ 7J/ 7J/ 7J/ 7/ 7M/ 7M/ 7M/ 7M/ 7M/ 7M/ 7M/ 7M/ 7M/ 7M/ 7M/ 7M/ 7M/ 7M/ 7M/ 7M/ 7M/ 7M/ 7M/ 7M/ 7M/ 7M/ 7M/ 7M/ 7M/ 7M/ 7M/ 7M/ 7M/  ;C/ ;C/ ;C/ ;C/ ;C/ ;C/ ;C/ ;C/ ;C/ ;C/ ;C/ ;C/ ;C/ ;C/ ;C/ ;C/ ;C/ ;C/ ;C/ ;C/ ;C/ ;C/ ;C/ ;C/ ;C/ ;C/ ;C/ ;C/ ;C/ ;/ ;M/ ;M/ ;M/ ;M/ ;M/ ;M/ ;M/ ;M/ ;M/ ;M/ ;M/ ;M/ ;M/ ;M/ ;M/ ;M/ ;M/ ;M/ ;M/ ;M/ ;M/ ;M/ ;M/ ;M/ ;M/ ;M/ ;M/ ;M/ ;M/  >G/ >G/ >G/ >G/ >G/ >G/ >G/ >G/ >G/ >G/ >G/ >G/ >G/ >G/ >G/ >G/ >G/ >G/ >G/ >G/ >G/ >G/ >G/ >G/ >G/ >G/ >G/ >G/ >G/ >/ >M/ >M/ >M/ >M/ >M/ >M/ >M/ >M/ >M/ >M/ >M/ >M/ >M/ >M/ >M/ >M/ >M/ >M/ >M/ >M/ >M/ >M/ >M/ >M/ >M/ >M/ >M/ >M/ >M/  AJ/ AJ/ AJ/ AJ/ AJ/ AJ/ AJ/ AJ/ AJ/ AJ/ AJ/ AJ/ AJ/ AJ/ AJ/ AJ/ AJ/ AJ/ AJ/ AJ/ AJ/ AJ/ AJ/ AJ/ AJ/ AJ/ AJ/ AJ/ AJ/ A/ AM/ AM/ AM/ AM/ AM/ AM/ AM/ AM/ AM/ AM/ AM/ AM/ AM/ AM/ AM/ AM/ AM/ AM/ AM/ AM/ AM/ AM/ AM/ AM/ AM/ AM/ AM/ AM/ AM/  AC0 AC0 AC0 AC0 AC0 AC0 AC0 AC0 AC0 AC0 AC0 AC0 AC0 AC0 AC0 AC0 AC0 AC0 AC0 AC0 AC0 AC0 AC0 AC0 AC0 AC0 AC0 AC0 AC0 0 ?O0 ?O0 ?O0 ?O0 ?O0 ?O0 ?O0 ?O0 ?O0 ?O0 ?O0 ?O0 ?O0 ?O0 ?O0 ?O0 ?O0 ?O0 ?O0 ?O0 ?O0 ?O0 ?O0 ?O0 ?O0 ?O0 ?O0 ?O0 ?O0  >M0 >M0 >M0 >M0 >M0 >M0 >M0 >M0 >M0 >M0 >M0 >M0 >M0 >M0 >M0 >M0 >M0 >M0 >M0 >M0 >M0 >M0 >M0 >M0 >M0 >M0 >M0 >M0 >M0 0 ?O0 ?O0 ?O0 ?O0 ?O0 ?O0 ?O0 ?O0 ?O0 ?O0 ?O0 ?O0 ?O0 ?O0 ?O0 ?O0 ?O0 ?O0 ?O0 ?O0 ?O0 ?O0 ?O0 ?O0 ?O0 ?O0 ?O0 ?O0 ?O0  <K0 <K0 <K0 <K0 <K0 <K0 <K0 <K0 <K0 <K0 <K0 <K0 <K0 <K0 <K0 <K0 <K0 <K0 <K0 <K0 <K0 <K0 <K0 <K0 <K0 <K0 <K0 <K0 <K0 0 ?H0 ?H0 ?H0 ?H0 ?H0 ?H0 ?H0 ?H0 ?H0 ?H0 ?H0 ?H0 ?H0 ?H0 ?H0 ?H0 ?H0 ?H0 ?H0 ?H0 ?H0 ?H0 ?H0 ?H0 ?H0 ?H0 ?H0 ?H0 ?H0  >O< >O< >O< >O< >O< >O< >O< >O< >O< >O< >O< >O< >O< >O< >O< >O< >O< >O< >O< >O< >O< >O< >O< >O< >O< >O< >O< >O< >O< < AF< AF< AF< AF< AF< AF< AF< AF< AF< AF< AF< AF< AF< AF< AF< AF< AF< AF< AF< AF< AF< AF< AF< AF< AF< AF< AF< AF< AF<  @E= @E= @E= @E= @E= @E= @E= @E= @E= @E= @E= @E= @E= @E= @E= @E= @E= @E= @E= @E= @E= @E= @E= @E= @E= @E= @E= @E= @E= E= CE= CE= CE= CE= CE= CE= CE= CE= CE= CE= CE= CE= CE= CE= CE= CE= CE= CE= CE= CE= CE= CE= CE= CE= CE= CE= CE= CE= CE=  :O1 :O1 :O1 :O1 :O1 :O1 :O1 :O1 :O1 :O1 :O1 :O1 :O1 :O1 :O1 :O1 :O1 :O1 :O1 :O1 :O1 :O1 :O1 :O1 :O1 :O1 :O1 :O1 :O1 1 9M1 9M1 9M1 9M1 9M1 9M1 9M1 9M1 9M1 9M1 9M1 9M1 9M1 9M1 9M1 9M1 9M1 9M1 9M1 9M1 9M1 9M1 9M1 9M1 9M1 9M1 9M1 9M1 9M1  :O1 :O1 :O1 :O1 :O1 :O1 :O1 :O1 :O1 :O1 :O1 :O1 :O1 :O1 :O1 :O1 :O1 :O1 :O1 :O1 :O1 :O1 :O1 :O1 :O1 :O1 :O1 :O1 :O1 O1 CO1 CO1 CO1 CO1 CO1 CO1 CO1 CO1 CO1 CO1 CO1 CO1 CO1 CO1 CO1 CO1 CO1 CO1 CO1 CO1 CO1 CO1 CO1 CO1 CO1 CO1 CO1 CO1 CO1  :L1 :L1 :L1 :L1 :L1 :L1 :L1 :L1 :L1 :L1 :L1 :L1 :L1 :L1 :L1 :L1 :L1 :L1 :L1 :L1 :L1 :L1 :L1 :L1 :L1 :L1 :L1 :L1 :L1 1 CJ1 CJ1 CJ1 CJ1 CJ1 CJ1 CJ1 CJ1 CJ1 CJ1 CJ1 CJ1 CJ1 CJ1 CJ1 CJ1 CJ1 CJ1 CJ1 CJ1 CJ1 CJ1 CJ1 CJ1 CJ1 CJ1 CJ1 CJ1 CJ1  :L1 :L1 :L1 :L1 :L1 :L1 :L1 :L1 :L1 :L1 :L1 :L1 :L1 :L1 :L1 :L1 :L1 :L1 :L1 :L1 :L1 :L1 :L1 :L1 :L1 :L1 :L1 :L1 :L1 L1 CL1 CL1 CL1 CL1 CL1 CL1 CL1 CL1 CL1 CL1 CL1 CL1 CL1 CL1 CL1 CL1 CL1 CL1 CL1 CL1 CL1 CL1 CL1 CL1 CL1 CL1 CL1 CL1 CL1  :I1 :I1 :I1 :I1 :I1 :I1 :I1 :I1 :I1 :I1 :I1 :I1 :I1 :I1 :I1 :I1 :I1 :I1 :I1 :I1 :I1 :I1 :I1 :I1 :I1 :I1 :I1 :I1 :I1 1 9G1 9G1 9G1 9G1 9G1 9G1 9G1 9G1 9G1 9G1 9G1 9G1 9G1 9G1 9G1 9G1 9G1 9G1 9G1 9G1 9G1 9G1 9G1 9G1 9G1 9G1 9G1 9G1 9G1  :I1 :I1 :I1 :I1 :I1 :I1 :I1 :I1 :I1 :I1 :I1 :I1 :I1 :I1 :I1 :I1 :I1 :I1 :I1 :I1 :I1 :I1 :I1 :I1 :I1 :I1 :I1 :I1 :I1 I1 CI1 CI1 CI1 CI1 CI1 CI1 CI1 CI1 CI1 CI1 CI1 CI1 CI1 CI1 CI1 CI1 CI1 CI1 CI1 CI1 CI1 CI1 CI1 CI1 CI1 CI1 CI1 CI1 CI1  =E1 =E1 =E1 =E1 =E1 =E1 =E1 =E1 =E1 =E1 =E1 =E1 =E1 =E1 =E1 =E1 =E1 =E1 =E1 =E1 =E1 =E1 =E1 =E1 =E1 =E1 =E1 =E1 =E1 1 CC1 CC1 CC1 CC1 CC1 CC1 CC1 CC1 CC1 CC1 CC1 CC1 CC1 CC1 CC1 CC1 CC1 CC1 CC1 CC1 CC1 CC1 CC1 CC1 CC1 CC1 CC1 CC1 CC1  @E1 @E1 @E1 @E1 @E1 @E1 @E1 @E1 @E1 @E1 @E1 @E1 @E1 @E1 @E1 @E1 @E1 @E1 @E1 @E1 @E1 @E1 @E1 @E1 @E1 @E1 @E1 @E1 @E1 E1 CE1 CE1 CE1 CE1 CE1 CE1 CE1 CE1 CE1 CE1 CE1 CE1 CE1 CE1 CE1 CE1 CE1 CE1 CE1 CE1 CE1 CE1 CE1 CE1 CE1 CE1 CE1 CE1 CE1  9I1 9I1 9I1 9I1 9I1 9I1 9I1 9I1 9I1 9I1 9I1 9I1 9I1 9I1 9I1 9I1 9I1 9I1 9I1 9I1 9I1 9I1 9I1 9I1 9I1 9I1 9I1 9I1 9I1 I1 CI1 CI1 CI1 CI1 CI1 CI1 CI1 CI1 CI1 CI1 CI1 CI1 CI1 CI1 CI1 CI1 CI1 CI1 CI1 CI1 CI1 CI1 CI1 CI1 CI1 CI1 CI1 CI1 CI1  =L1 =L1 =L1 =L1 =L1 =L1 =L1 =L1 =L1 =L1 =L1 =L1 =L1 =L1 =L1 =L1 =L1 =L1 =L1 =L1 =L1 =L1 =L1 =L1 =L1 =L1 =L1 =L1 =L1 L1 CL1 CL1 CL1 CL1 CL1 CL1 CL1 CL1 CL1 CL1 CL1 CL1 CL1 CL1 CL1 CL1 CL1 CL1 CL1 CL1 CL1 CL1 CL1 CL1 CL1 CL1 CL1 CL1 CL1  @O1 @O1 @O1 @O1 @O1 @O1 @O1 @O1 @O1 @O1 @O1 @O1 @O1 @O1 @O1 @O1 @O1 @O1 @O1 @O1 @O1 @O1 @O1 @O1 @O1 @O1 @O1 @O1 @O1 O1 CO1 CO1 CO1 CO1 CO1 CO1 CO1 CO1 CO1 CO1 CO1 CO1 CO1 CO1 CO1 CO1 CO1 CO1 CO1 CO1 CO1 CO1 CO1 CO1 CO1 CO1 CO1 CO1 CO1  9O2 9O2 9O2 9O2 9O2 9O2 9O2 9O2 9O2 9O2 9O2 9O2 9O2 9O2 9O2 9O2 9O2 9O2 9O2 9O2 9O2 9O2 9O2 9O2 9O2 9O2 9O2 9O2 9O2 92 9N2 9N2 9N2 9N2 9N2 9N2 9N2 9N2 9N2 9N2 9N2 9N2 9N2 9N2 9N2 9N2 9N2 9N2 9N2 9N2 9N2 9N2 9N2 9N2 9N2 9N2 9N2 9N2 9N2 2 EL2 EL2 EL2 EL2 EL2 EL2 EL2 EL2 EL2 EL2 EL2 EL2 EL2 EL2 EL2 EL2 EL2 EL2 EL2 EL2 EL2 EL2 EL2 EL2 EL2 EL2 EL2 EL2 EL2 E EN> EN> EN> EN> EN> EN> EN> EN> EN> EN> EN> EN> EN> EN> EN> EN> EN> EN> EN> EN> EN> EN> EN> EN> EN> EN> EN> EN> EN> E EJ< EJ< EJ< EJ< EJ< EJ< EJ< EJ< EJ< EJ< EJ< EJ< EJ< EJ< EJ< EJ< EJ< EJ< EJ< EJ< EJ< EJ< EJ< EJ< EJ< EJ< EJ< EJ< EJ< J FJ: FJ: FJ: FJ: FJ: FJ: FJ: FJ: FJ: FJ: FJ: FJ: FJ: FJ: FJ: FJ: FJ: FJ: FJ: FJ: FJ: FJ: FJ: FJ: FJ: FJ: FJ: FJ: FJ:  HQ9 HQ9 HQ9 HQ9 HQ9 HQ9 HQ9 HQ9 HQ9 HQ9 HQ9 HQ9 HQ9 HQ9 HQ9 HQ9 HQ9 HQ9 HQ9 HQ9 HQ9 HQ9 HQ9 HQ9 HQ9 HQ9 HQ9 HQ9 HQ9 Q >Q7 >Q7 >Q7 >Q7 >Q7 >Q7 >Q7 >Q7 >Q7 >Q7 >Q7 >Q7 >Q7 >Q7 >Q7 >Q7 >Q7 >Q7 >Q7 >Q7 >Q7 >Q7 >Q7 >Q7 >Q7 >Q7 >Q7 >Q7 >Q7  ?Q6 ?Q6 ?Q6 ?Q6 ?Q6 ?Q6 ?Q6 ?Q6 ?Q6 ?Q6 ?Q6 ?Q6 ?Q6 ?Q6 ?Q6 ?Q6 ?Q6 ?Q6 ?Q6 ?Q6 ?Q6 ?Q6 ?Q6 ?Q6 ?Q6 ?Q6 ?Q6 ?Q6 ?Q6 ?Q6 ?Q6 ?Q6 ?Q6 ?Q6 ?Q6 ?Q6 ?Q6 ?Q6 ?Q6 ?Q6 ?Q6 ?Q6 ?Q6 ?Q6 ?Q6 ?Q6 ?Q6 ?Q6 ?Q6 ?Q6 ?Q6 ?Q6 ?Q6 ?Q6 ?Q6 ?Q6 ?Q6 ?Q6 ?Q6 Q <Q* <Q* <Q* <Q* <Q* <Q* <Q* <Q* <Q* <Q* <Q* <Q* <Q* <Q* <Q* <Q* <Q* <Q* <Q* <Q* <Q* <Q* <Q* <Q* <Q* <Q* <Q* <Q* <Q* Q :Q3 :Q3 :Q3 :Q3 :Q3 :Q3 :Q3 :Q3 :Q3 :Q3 :Q3 :Q3 :Q3 :Q3 :Q3 :Q3 :Q3 :Q3 :Q3 :Q3 :Q3 :Q3 :Q3 :Q3 :Q3 :Q3 :Q3 :Q3 :Q3 Q <Q* <Q* <Q* <Q* <Q* <Q* <Q* <Q* <Q* <Q* <Q* <Q* <Q* <Q* <Q* <Q* <Q* <Q* <Q* <Q* <Q* <Q* <Q* <Q* <Q* <Q* <Q* <Q* <Q* <Q <Q3 <Q3 <Q3 <Q3 <Q3 <Q3 <Q3 <Q3 <Q3 <Q3 <Q3 <Q3 <Q3 <Q3 <Q3 <Q3 <Q3 <Q3 <Q3 <Q3 <Q3 <Q3 <Q3 <Q3 <Q3 <Q3 <Q3 <Q3 <Q3 Q 9Q* 9Q* 9Q* 9Q* 9Q* 9Q* 9Q* 9Q* 9Q* 9Q* 9Q* 9Q* 9Q* 9Q* 9Q* 9Q* 9Q* 9Q* 9Q* 9Q* 9Q* 9Q* 9Q* 9Q* 9Q* 9Q* 9Q* 9Q* 9Q* Q 7Q3 7Q3 7Q3 7Q3 7Q3 7Q3 7Q3 7Q3 7Q3 7Q3 7Q3 7Q3 7Q3 7Q3 7Q3 7Q3 7Q3 7Q3 7Q3 7Q3 7Q3 7Q3 7Q3 7Q3 7Q3 7Q3 7Q3 7Q3 7Q3 Q 9Q* 9Q* 9Q* 9Q* 9Q* 9Q* 9Q* 9Q* 9Q* 9Q* 9Q* 9Q* 9Q* 9Q* 9Q* 9Q* 9Q* 9Q* 9Q* 9Q* 9Q* 9Q* 9Q* 9Q* 9Q* 9Q* 9Q* 9Q* 9Q* 9Q 9Q2 9Q2 9Q2 9Q2 9Q2 9Q2 9Q2 9Q2 9Q2 9Q2 9Q2 9Q2 9Q2 9Q2 9Q2 9Q2 9Q2 9Q2 9Q2 9Q2 9Q2 9Q2 9Q2 9Q2 9Q2 9Q2 9Q2 9Q2 9Q2 Q 6Q* 6Q* 6Q* 6Q* 6Q* 6Q* 6Q* 6Q* 6Q* 6Q* 6Q* 6Q* 6Q* 6Q* 6Q* 6Q* 6Q* 6Q* 6Q* 6Q* 6Q* 6Q* 6Q* 6Q* 6Q* 6Q* 6Q* 6Q* 6Q* Q 4Q2 4Q2 4Q2 4Q2 4Q2 4Q2 4Q2 4Q2 4Q2 4Q2 4Q2 4Q2 4Q2 4Q2 4Q2 4Q2 4Q2 4Q2 4Q2 4Q2 4Q2 4Q2 4Q2 4Q2 4Q2 4Q2 4Q2 4Q2 4Q2 Q 6Q* 6Q* 6Q* 6Q* 6Q* 6Q* 6Q* 6Q* 6Q* 6Q* 6Q* 6Q* 6Q* 6Q* 6Q* 6Q* 6Q* 6Q* 6Q* 6Q* 6Q* 6Q* 6Q* 6Q* 6Q* 6Q* 6Q* 6Q* 6Q* 6Q 6Q2 6Q2 6Q2 6Q2 6Q2 6Q2 6Q2 6Q2 6Q2 6Q2 6Q2 6Q2 6Q2 6Q2 6Q2 6Q2 6Q2 6Q2 6Q2 6Q2 6Q2 6Q2 6Q2 6Q2 6Q2 6Q2 6Q2 6Q2 6Q2 Q 2Q* 2Q* 2Q* 2Q* 2Q* 2Q* 2Q* 2Q* 2Q* 2Q* 2Q* 2Q* 2Q* 2Q* 2Q* 2Q* 2Q* 2Q* 2Q* 2Q* 2Q* 2Q* 2Q* 2Q* 2Q* 2Q* 2Q* 2Q* 2Q* Q 0Q2 0Q2 0Q2 0Q2 0Q2 0Q2 0Q2 0Q2 0Q2 0Q2 0Q2 0Q2 0Q2 0Q2 0Q2 0Q2 0Q2 0Q2 0Q2 0Q2 0Q2 0Q2 0Q2 0Q2 0Q2 0Q2 0Q2 0Q2 0Q2 Q 2Q* 2Q* 2Q* 2Q* 2Q* 2Q* 2Q* 2Q* 2Q* 2Q* 2Q* 2Q* 2Q* 2Q* 2Q* 2Q* 2Q* 2Q* 2Q* 2Q* 2Q* 2Q* 2Q* 2Q* 2Q* 2Q* 2Q* 2Q* 2Q* 2Q 2Q0 2Q0 2Q0 2Q0 2Q0 2Q0 2Q0 2Q0 2Q0 2Q0 2Q0 2Q0 2Q0 2Q0 2Q0 2Q0 2Q0 2Q0 2Q0 2Q0 2Q0 2Q0 2Q0 2Q0 2Q0 2Q0 2Q0 2Q0 2Q0 Q 6Q. 6Q. 6Q. 6Q. 6Q. 6Q. 6Q. 6Q. 6Q. 6Q. 6Q. 6Q. 6Q. 6Q. 6Q. 6Q. 6Q. 6Q. 6Q. 6Q. 6Q. 6Q. 6Q. 6Q. 6Q. 6Q. 6Q. 6Q. 6Q. 6Q 6Q- 6Q- 6Q- 6Q- 6Q- 6Q- 6Q- 6Q- 6Q- 6Q- 6Q- 6Q- 6Q- 6Q- 6Q- 6Q- 6Q- 6Q- 6Q- 6Q- 6Q- 6Q- 6Q- 6Q- 6Q- 6Q- 6Q- 6Q- 6Q- Q 9Q+ 9Q+ 9Q+ 9Q+ 9Q+ 9Q+ 9Q+ 9Q+ 9Q+ 9Q+ 9Q+ 9Q+ 9Q+ 9Q+ 9Q+ 9Q+ 9Q+ 9Q+ 9Q+ 9Q+ 9Q+ 9Q+ 9Q+ 9Q+ 9Q+ 9Q+ 9Q+ 9Q+ 9Q+ 9Q 9Q) 9Q) 9Q) 9Q) 9Q) 9Q) 9Q) 9Q) 9Q) 9Q) 9Q) 9Q) 9Q) 9Q) 9Q) 9Q) 9Q) 9Q) 9Q) 9Q) 9Q) 9Q) 9Q) 9Q) 9Q) 9Q) 9Q) 9Q) 9Q) Q <Q' <Q' <Q' <Q' <Q' <Q' <Q' <Q' <Q' <Q' <Q' <Q' <Q' <Q' <Q' <Q' <Q' <Q' <Q' <Q' <Q' <Q' <Q' <Q' <Q' <Q' <Q' <Q' <Q' <Q <Q& <Q& <Q& <Q& <Q& <Q& <Q& <Q& <Q& <Q& <Q& <Q& <Q& <Q& <Q& <Q& <Q& <Q& <Q& <Q& <Q& <Q& <Q& <Q& <Q& <Q& <Q& <Q& <Q&  <+ <+ <+ <+ <+ <+ <+ <+ <+ <+ <+ <+ <+ <+ <+ <+ <+ <+ <+ <+ <+ <+ <+ <+ <+ <+ <+ <+ <+ + :+ :+ :+ :+ :+ :+ :+ :+ :+ :+ :+ :+ :+ :+ :+ :+ :+ :+ :+ :+ :+ :+ :+ :+ :+ :+ :+ :+ :+  9J7 9J7 9J7 9J7 9J7 9J7 9J7 9J7 9J7 9J7 9J7 9J7 9J7 9J7 9J7 9J7 9J7 9J7 9J7 9J7 9J7 9J7 9J7 9J7 9J7 9J7 9J7 9J7 9J7 J7 :J7 :J7 :J7 :J7 :J7 :J7 :J7 :J7 :J7 :J7 :J7 :J7 :J7 :J7 :J7 :J7 :J7 :J7 :J7 :J7 :J7 :J7 :J7 :J7 :J7 :J7 :J7 :J7 :J7  7O. 7O. 7O. 7O. 7O. 7O. 7O. 7O. 7O. 7O. 7O. 7O. 7O. 7O. 7O. 7O. 7O. 7O. 7O. 7O. 7O. 7O. 7O. 7O. 7O. 7O. 7O. 7O. 7O. 7. 7R. 7R. 7R. 7R. 7R. 7R. 7R. 7R. 7R. 7R. 7R. 7R. 7R. 7R. 7R. 7R. 7R. 7R. 7R. 7R. 7R. 7R. 7R. 7R. 7R. 7R. 7R. 7R. 7R.  BQ2 BQ2 BQ2 BQ2 BQ2 BQ2 BQ2 BQ2 BQ2 BQ2 BQ2 BQ2 BQ2 BQ2 BQ2 BQ2 BQ2 BQ2 BQ2 BQ2 BQ2 BQ2 BQ2 BQ2 BQ2 BQ2 BQ2 BQ2 BQ2 B2 BT2 BT2 BT2 BT2 BT2 BT2 BT2 BT2 BT2 BT2 BT2 BT2 BT2 BT2 BT2 BT2 BT2 BT2 BT2 BT2 BT2 BT2 BT2 BT2 BT2 BT2 BT2 BT2 BT2  CR+ CR+ CR+ CR+ CR+ CR+ CR+ CR+ CR+ CR+ CR+ CR+ CR+ CR+ CR+ CR+ CR+ CR+ CR+ CR+ CR+ CR+ CR+ CR+ CR+ CR+ CR+ CR+ CR+ + >T+ >T+ >T+ >T+ >T+ >T+ >T+ >T+ >T+ >T+ >T+ >T+ >T+ >T+ >T+ >T+ >T+ >T+ >T+ >T+ >T+ >T+ >T+ >T+ >T+ >T+ >T+ >T+ >T+  CR. CR. CR. CR. CR. CR. CR. CR. CR. CR. CR. CR. CR. CR. CR. CR. CR. CR. CR. CR. CR. CR. CR. CR. CR. CR. CR. CR. CR. . EQ. EQ. EQ. EQ. EQ. EQ. EQ. EQ. EQ. EQ. EQ. EQ. EQ. EQ. EQ. EQ. EQ. EQ. EQ. EQ. EQ. EQ. EQ. EQ. EQ. EQ. EQ. EQ. EQ.  FO2 FO2 FO2 FO2 FO2 FO2 FO2 FO2 FO2 FO2 FO2 FO2 FO2 FO2 FO2 FO2 FO2 FO2 FO2 FO2 FO2 FO2 FO2 FO2 FO2 FO2 FO2 FO2 FO2 F2 FM2 FM2 FM2 FM2 FM2 FM2 FM2 FM2 FM2 FM2 FM2 FM2 FM2 FM2 FM2 FM2 FM2 FM2 FM2 FM2 FM2 FM2 FM2 FM2 FM2 FM2 FM2 FM2 FM2 F FK7 FK7 FK7 FK7 FK7 FK7 FK7 FK7 FK7 FK7 FK7 FK7 FK7 FK7 FK7 FK7 FK7 FK7 FK7 FK7 FK7 FK7 FK7 FK7 FK7 FK7 FK7 FK7 FK7 F7 FJ7 FJ7 FJ7 FJ7 FJ7 FJ7 FJ7 FJ7 FJ7 FJ7 FJ7 FJ7 FJ7 FJ7 FJ7 FJ7 FJ7 FJ7 FJ7 FJ7 FJ7 FJ7 FJ7 FJ7 FJ7 FJ7 FJ7 FJ7 FJ7 F FH3 FH3 FH3 FH3 FH3 FH3 FH3 FH3 FH3 FH3 FH3 FH3 FH3 FH3 FH3 FH3 FH3 FH3 FH3 FH3 FH3 FH3 FH3 FH3 FH3 FH3 FH3 FH3 FH3 H EH5 EH5 EH5 EH5 EH5 EH5 EH5 EH5 EH5 EH5 EH5 EH5 EH5 EH5 EH5 EH5 EH5 EH5 EH5 EH5 EH5 EH5 EH5 EH5 EH5 EH5 EH5 EH5 EH5  CK3 CK3 CK3 CK3 CK3 CK3 CK3 CK3 CK3 CK3 CK3 CK3 CK3 CK3 CK3 CK3 CK3 CK3 CK3 CK3 CK3 CK3 CK3 CK3 CK3 CK3 CK3 CK3 CK3 K EK2 EK2 EK2 EK2 EK2 EK2 EK2 EK2 EK2 EK2 EK2 EK2 EK2 EK2 EK2 EK2 EK2 EK2 EK2 EK2 EK2 EK2 EK2 EK2 EK2 EK2 EK2 EK2 EK2  FO0 FO0 FO0 FO0 FO0 FO0 FO0 FO0 FO0 FO0 FO0 FO0 FO0 FO0 FO0 FO0 FO0 FO0 FO0 FO0 FO0 FO0 FO0 FO0 FO0 FO0 FO0 FO0 FO0 FO FO. FO. FO. FO. FO. FO. FO. FO. FO. FO. FO. FO. FO. FO. FO. FO. FO. FO. FO. FO. FO. FO. FO. FO. FO. FO. FO. FO. FO.  <R- <R- <R- <R- <R- <R- <R- <R- <R- <R- <R- <R- <R- <R- <R- <R- <R- <R- <R- <R- <R- <R- <R- <R- <R- <R- <R- <R- <R- <R <R+ <R+ <R+ <R+ <R+ <R+ <R+ <R+ <R+ <R+ <R+ <R+ <R+ <R+ <R+ <R+ <R+ <R+ <R+ <R+ <R+ <R+ <R+ <R+ <R+ <R+ <R+ <R+ <R+ < <Q) <Q) <Q) <Q) <Q) <Q) <Q) <Q) <Q) <Q) <Q) <Q) <Q) <Q) <Q) <Q) <Q) <Q) <Q) <Q) <Q) <Q) <Q) <Q) <Q) <Q) <Q) <Q) <Q) <) <R) <R) <R) <R) <R) <R) <R) <R) <R) <R) <R) <R) <R) <R) <R) <R) <R) <R) <R) <R) <R) <R) <R) <R) <R) <R) <R) <R) <R)  AQ- AQ- AQ- AQ- AQ- AQ- AQ- AQ- AQ- AQ- AQ- AQ- AQ- AQ- AQ- AQ- AQ- AQ- AQ- AQ- AQ- AQ- AQ- AQ- AQ- AQ- AQ- AQ- AQ- - CO- CO- CO- CO- CO- CO- CO- CO- CO- CO- CO- CO- CO- CO- CO- CO- CO- CO- CO- CO- CO- CO- CO- CO- CO- CO- CO- CO- CO-  DM0 DM0 DM0 DM0 DM0 DM0 DM0 DM0 DM0 DM0 DM0 DM0 DM0 DM0 DM0 DM0 DM0 DM0 DM0 DM0 DM0 DM0 DM0 DM0 DM0 DM0 DM0 DM0 DM0 D0 DK0 DK0 DK0 DK0 DK0 DK0 DK0 DK0 DK0 DK0 DK0 DK0 DK0 DK0 DK0 DK0 DK0 DK0 DK0 DK0 DK0 DK0 DK0 DK0 DK0 DK0 DK0 DK0 DK0 D DJ5 DJ5 DJ5 DJ5 DJ5 DJ5 DJ5 DJ5 DJ5 DJ5 DJ5 DJ5 DJ5 DJ5 DJ5 DJ5 DJ5 DJ5 DJ5 DJ5 DJ5 DJ5 DJ5 DJ5 DJ5 DJ5 DJ5 DJ5 DJ5 D5 DH5 DH5 DH5 DH5 DH5 DH5 DH5 DH5 DH5 DH5 DH5 DH5 DH5 DH5 DH5 DH5 DH5 DH5 DH5 DH5 DH5 DH5 DH5 DH5 DH5 DH5 DH5 DH5 DH5 D DF2 DF2 DF2 DF2 DF2 DF2 DF2 DF2 DF2 DF2 DF2 DF2 DF2 DF2 DF2 DF2 DF2 DF2 DF2 DF2 DF2 DF2 DF2 DF2 DF2 DF2 DF2 DF2 DF2 F CF3 CF3 CF3 CF3 CF3 CF3 CF3 CF3 CF3 CF3 CF3 CF3 CF3 CF3 CF3 CF3 CF3 CF3 CF3 CF3 CF3 CF3 CF3 CF3 CF3 CF3 CF3 CF3 CF3  AJ2 AJ2 AJ2 AJ2 AJ2 AJ2 AJ2 AJ2 AJ2 AJ2 AJ2 AJ2 AJ2 AJ2 AJ2 AJ2 AJ2 AJ2 AJ2 AJ2 AJ2 AJ2 AJ2 AJ2 AJ2 AJ2 AJ2 AJ2 AJ2 J CJ0 CJ0 CJ0 CJ0 CJ0 CJ0 CJ0 CJ0 CJ0 CJ0 CJ0 CJ0 CJ0 CJ0 CJ0 CJ0 CJ0 CJ0 CJ0 CJ0 CJ0 CJ0 CJ0 CJ0 CJ0 CJ0 CJ0 CJ0 CJ0  DM. DM. DM. DM. DM. DM. DM. DM. DM. DM. DM. DM. DM. DM. DM. DM. DM. DM. DM. DM. DM. DM. DM. DM. DM. DM. DM. DM. DM. DM DM, DM, DM, DM, DM, DM, DM, DM, DM, DM, DM, DM, DM, DM, DM, DM, DM, DM, DM, DM, DM, DM, DM, DM, DM, DM, DM, DM, DM,  :P+ :P+ :P+ :P+ :P+ :P+ :P+ :P+ :P+ :P+ :P+ :P+ :P+ :P+ :P+ :P+ :P+ :P+ :P+ :P+ :P+ :P+ :P+ :P+ :P+ :P+ :P+ :P+ :P+ :P :P) :P) :P) :P) :P) :P) :P) :P) :P) :P) :P) :P) :P) :P) :P) :P) :P) :P) :P) :P) :P) :P) :P) :P) :P) :P) :P) :P) :P) : :O' :O' :O' :O' :O' :O' :O' :O' :O' :O' :O' :O' :O' :O' :O' :O' :O' :O' :O' :O' :O' :O' :O' :O' :O' :O' :O' :O' :O' :' :P' :P' :P' :P' :P' :P' :P' :P' :P' :P' :P' :P' :P' :P' :P' :P' :P' :P' :P' :P' :P' :P' :P' :P' :P' :P' :P' :P' :P'  ?O+ ?O+ ?O+ ?O+ ?O+ ?O+ ?O+ ?O+ ?O+ ?O+ ?O+ ?O+ ?O+ ?O+ ?O+ ?O+ ?O+ ?O+ ?O+ ?O+ ?O+ ?O+ ?O+ ?O+ ?O+ ?O+ ?O+ ?O+ ?O+ + AM+ AM+ AM+ AM+ AM+ AM+ AM+ AM+ AM+ AM+ AM+ AM+ AM+ AM+ AM+ AM+ AM+ AM+ AM+ AM+ AM+ AM+ AM+ AM+ AM+ AM+ AM+ AM+ AM+  CK. CK. CK. CK. CK. CK. CK. CK. CK. CK. CK. CK. CK. CK. CK. CK. CK. CK. CK. CK. CK. CK. CK. CK. CK. CK. CK. CK. CK. C. CJ. CJ. CJ. CJ. CJ. CJ. CJ. CJ. CJ. CJ. CJ. CJ. CJ. CJ. CJ. CJ. CJ. CJ. CJ. CJ. CJ. CJ. CJ. CJ. CJ. CJ. CJ. CJ. CJ. C CH3 CH3 CH3 CH3 CH3 CH3 CH3 CH3 CH3 CH3 CH3 CH3 CH3 CH3 CH3 CH3 CH3 CH3 CH3 CH3 CH3 CH3 CH3 CH3 CH3 CH3 CH3 CH3 CH3 C3 CF3 CF3 CF3 CF3 CF3 CF3 CF3 CF3 CF3 CF3 CF3 CF3 CF3 CF3 CF3 CF3 CF3 CF3 CF3 CF3 CF3 CF3 CF3 CF3 CF3 CF3 CF3 CF3 CF3 C CE0 CE0 CE0 CE0 CE0 CE0 CE0 CE0 CE0 CE0 CE0 CE0 CE0 CE0 CE0 CE0 CE0 CE0 CE0 CE0 CE0 CE0 CE0 CE0 CE0 CE0 CE0 CE0 CE0 C0 CF0 CF0 CF0 CF0 CF0 CF0 CF0 CF0 CF0 CF0 CF0 CF0 CF0 CF0 CF0 CF0 CF0 CF0 CF0 CF0 CF0 CF0 CF0 CF0 CF0 CF0 CF0 CF0 CF0  EH0 EH0 EH0 EH0 EH0 EH0 EH0 EH0 EH0 EH0 EH0 EH0 EH0 EH0 EH0 EH0 EH0 EH0 EH0 EH0 EH0 EH0 EH0 EH0 EH0 EH0 EH0 EH0 EH0 0 FJ0 FJ0 FJ0 FJ0 FJ0 FJ0 FJ0 FJ0 FJ0 FJ0 FJ0 FJ0 FJ0 FJ0 FJ0 FJ0 FJ0 FJ0 FJ0 FJ0 FJ0 FJ0 FJ0 FJ0 FJ0 FJ0 FJ0 FJ0 FJ0  HK0 HK0 HK0 HK0 HK0 HK0 HK0 HK0 HK0 HK0 HK0 HK0 HK0 HK0 HK0 HK0 HK0 HK0 HK0 HK0 HK0 HK0 HK0 HK0 HK0 HK0 HK0 HK0 HK0 H0 HH0 HH0 HH0 HH0 HH0 HH0 HH0 HH0 HH0 HH0 HH0 HH0 HH0 HH0 HH0 HH0 HH0 HH0 HH0 HH0 HH0 HH0 HH0 HH0 HH0 HH0 HH0 HH0 HH0 H HE0 HE0 HE0 HE0 HE0 HE0 HE0 HE0 HE0 HE0 HE0 HE0 HE0 HE0 HE0 HE0 HE0 HE0 HE0 HE0 HE0 HE0 HE0 HE0 HE0 HE0 HE0 HE0 HE0 H0 HH0 HH0 HH0 HH0 HH0 HH0 HH0 HH0 HH0 HH0 HH0 HH0 HH0 HH0 HH0 HH0 HH0 HH0 HH0 HH0 HH0 HH0 HH0 HH0 HH0 HH0 HH0 HH0 HH0 H HB0 HB0 HB0 HB0 HB0 HB0 HB0 HB0 HB0 HB0 HB0 HB0 HB0 HB0 HB0 HB0 HB0 HB0 HB0 HB0 HB0 HB0 HB0 HB0 HB0 HB0 HB0 HB0 HB0 H0 HC0 HC0 HC0 HC0 HC0 HC0 HC0 HC0 HC0 HC0 HC0 HC0 HC0 HC0 HC0 HC0 HC0 HC0 HC0 HC0 HC0 HC0 HC0 HC0 HC0 HC0 HC0 HC0 HC0  BE0 BE0 BE0 BE0 BE0 BE0 BE0 BE0 BE0 BE0 BE0 BE0 BE0 BE0 BE0 BE0 BE0 BE0 BE0 BE0 BE0 BE0 BE0 BE0 BE0 BE0 BE0 BE0 BE0 0 CF0 CF0 CF0 CF0 CF0 CF0 CF0 CF0 CF0 CF0 CF0 CF0 CF0 CF0 CF0 CF0 CF0 CF0 CF0 CF0 CF0 CF0 CF0 CF0 CF0 CF0 CF0 CF0 CF0  EH0 EH0 EH0 EH0 EH0 EH0 EH0 EH0 EH0 EH0 EH0 EH0 EH0 EH0 EH0 EH0 EH0 EH0 EH0 EH0 EH0 EH0 EH0 EH0 EH0 EH0 EH0 EH0 EH0 E0 EE0 EE0 EE0 EE0 EE0 EE0 EE0 EE0 EE0 EE0 EE0 EE0 EE0 EE0 EE0 EE0 EE0 EE0 EE0 EE0 EE0 EE0 EE0 EE0 EE0 EE0 EE0 EE0 EE0 E EB0 EB0 EB0 EB0 EB0 EB0 EB0 EB0 EB0 EB0 EB0 EB0 EB0 EB0 EB0 EB0 EB0 EB0 EB0 EB0 EB0 EB0 EB0 EB0 EB0 EB0 EB0 EB0 EB0 E0 EE0 EE0 EE0 EE0 EE0 EE0 EE0 EE0 EE0 EE0 EE0 EE0 EE0 EE0 EE0 EE0 EE0 EE0 EE0 EE0 EE0 EE0 EE0 EE0 EE0 EE0 EE0 EE0 EE0 E E>0 E>0 E>0 E>0 E>0 E>0 E>0 E>0 E>0 E>0 E>0 E>0 E>0 E>0 E>0 E>0 E>0 E>0 E>0 E>0 E>0 E>0 E>0 E>0 E>0 E>0 E>0 E>0 E>0 E0 E@0 E@0 E@0 E@0 E@0 E@0 E@0 E@0 E@0 E@0 E@0 E@0 E@0 E@0 E@0 E@0 E@0 E@0 E@0 E@0 E@0 E@0 E@0 E@0 E@0 E@0 E@0 E@0 E@0  >B0 >B0 >B0 >B0 >B0 >B0 >B0 >B0 >B0 >B0 >B0 >B0 >B0 >B0 >B0 >B0 >B0 >B0 >B0 >B0 >B0 >B0 >B0 >B0 >B0 >B0 >B0 >B0 >B0 0 @C0 @C0 @C0 @C0 @C0 @C0 @C0 @C0 @C0 @C0 @C0 @C0 @C0 @C0 @C0 @C0 @C0 @C0 @C0 @C0 @C0 @C0 @C0 @C0 @C0 @C0 @C0 @C0 @C0  BE0 BE0 BE0 BE0 BE0 BE0 BE0 BE0 BE0 BE0 BE0 BE0 BE0 BE0 BE0 BE0 BE0 BE0 BE0 BE0 BE0 BE0 BE0 BE0 BE0 BE0 BE0 BE0 BE0 0 CF0 CF0 CF0 CF0 CF0 CF0 CF0 CF0 CF0 CF0 CF0 CF0 CF0 CF0 CF0 CF0 CF0 CF0 CF0 CF0 CF0 CF0 CF0 CF0 CF0 CF0 CF0 CF0 CF0  EH0 EH0 EH0 EH0 EH0 EH0 EH0 EH0 EH0 EH0 EH0 EH0 EH0 EH0 EH0 EH0 EH0 EH0 EH0 EH0 EH0 EH0 EH0 EH0 EH0 EH0 EH0 EH0 EH0 0 BE0 BE0 BE0 BE0 BE0 BE0 BE0 BE0 BE0 BE0 BE0 BE0 BE0 BE0 BE0 BE0 BE0 BE0 BE0 BE0 BE0 BE0 BE0 BE0 BE0 BE0 BE0 BE0 BE0  CJ. CJ. CJ. CJ. CJ. CJ. CJ. CJ. CJ. CJ. CJ. CJ. CJ. CJ. CJ. CJ. CJ. CJ. CJ. CJ. CJ. CJ. CJ. CJ. CJ. CJ. CJ. CJ. CJ. C. CB. CB. CB. CB. CB. CB. CB. CB. CB. CB. CB. CB. CB. CB. CB. CB. CB. CB. CB. CB. CB. CB. CB. CB. CB. CB. CB. CB. CB.  >C. >C. >C. >C. >C. >C. >C. >C. >C. >C. >C. >C. >C. >C. >C. >C. >C. >C. >C. >C. >C. >C. >C. >C. >C. >C. >C. >C. >C. C 6C- 6C- 6C- 6C- 6C- 6C- 6C- 6C- 6C- 6C- 6C- 6C- 6C- 6C- 6C- 6C- 6C- 6C- 6C- 6C- 6C- 6C- 6C- 6C- 6C- 6C- 6C- 6C- 6C- C 7C. 7C. 7C. 7C. 7C. 7C. 7C. 7C. 7C. 7C. 7C. 7C. 7C. 7C. 7C. 7C. 7C. 7C. 7C. 7C. 7C. 7C. 7C. 7C. 7C. 7C. 7C. 7C. 7C. 7. 7J. 7J. 7J. 7J. 7J. 7J. 7J. 7J. 7J. 7J. 7J. 7J. 7J. 7J. 7J. 7J. 7J. 7J. 7J. 7J. 7J. 7J. 7J. 7J. 7J. 7J. 7J. 7J. 7J. 7 7F+ 7F+ 7F+ 7F+ 7F+ 7F+ 7F+ 7F+ 7F+ 7F+ 7F+ 7F+ 7F+ 7F+ 7F+ 7F+ 7F+ 7F+ 7F+ 7F+ 7F+ 7F+ 7F+ 7F+ 7F+ 7F+ 7F+ 7F+ 7F+ 7+ 7C+ 7C+ 7C+ 7C+ 7C+ 7C+ 7C+ 7C+ 7C+ 7C+ 7C+ 7C+ 7C+ 7C+ 7C+ 7C+ 7C+ 7C+ 7C+ 7C+ 7C+ 7C+ 7C+ 7C+ 7C+ 7C+ 7C+ 7C+ 7C+ 7 7K0 7K0 7K0 7K0 7K0 7K0 7K0 7K0 7K0 7K0 7K0 7K0 7K0 7K0 7K0 7K0 7K0 7K0 7K0 7K0 7K0 7K0 7K0 7K0 7K0 7K0 7K0 7K0 7K0 70 7B0 7B0 7B0 7B0 7B0 7B0 7B0 7B0 7B0 7B0 7B0 7B0 7B0 7B0 7B0 7B0 7B0 7B0 7B0 7B0 7B0 7B0 7B0 7B0 7B0 7B0 7B0 7B0 7B0  ?C$ ?C$ ?C$ ?C$ ?C$ ?C$ ?C$ ?C$ ?C$ ?C$ ?C$ ?C$ ?C$ ?C$ ?C$ ?C$ ?C$ ?C$ ?C$ ?C$ ?C$ ?C$ ?C$ ?C$ ?C$ ?C$ ?C$ ?C$ ?C$ C$ 6C$ 6C$ 6C$ 6C$ 6C$ 6C$ 6C$ 6C$ 6C$ 6C$ 6C$ 6C$ 6C$ 6C$ 6C$ 6C$ 6C$ 6C$ 6C$ 6C$ 6C$ 6C$ 6C$ 6C$ 6C$ 6C$ 6C$ 6C$ 6C$ C 7C0 7C0 7C0 7C0 7C0 7C0 7C0 7C0 7C0 7C0 7C0 7C0 7C0 7C0 7C0 7C0 7C0 7C0 7C0 7C0 7C0 7C0 7C0 7C0 7C0 7C0 7C0 7C0 7C0 70 7K0 7K0 7K0 7K0 7K0 7K0 7K0 7K0 7K0 7K0 7K0 7K0 7K0 7K0 7K0 7K0 7K0 7K0 7K0 7K0 7K0 7K0 7K0 7K0 7K0 7K0 7K0 7K0 7K0 7 7H- 7H- 7H- 7H- 7H- 7H- 7H- 7H- 7H- 7H- 7H- 7H- 7H- 7H- 7H- 7H- 7H- 7H- 7H- 7H- 7H- 7H- 7H- 7H- 7H- 7H- 7H- 7H- 7H- 7- 7E- 7E- 7E- 7E- 7E- 7E- 7E- 7E- 7E- 7E- 7E- 7E- 7E- 7E- 7E- 7E- 7E- 7E- 7E- 7E- 7E- 7E- 7E- 7E- 7E- 7E- 7E- 7E- 7E- 7 7J. 7J. 7J. 7J. 7J. 7J. 7J. 7J. 7J. 7J. 7J. 7J. 7J. 7J. 7J. 7J. 7J. 7J. 7J. 7J. 7J. 7J. 7J. 7J. 7J. 7J. 7J. 7J. 7J. 7. 7B. 7B. 7B. 7B. 7B. 7B. 7B. 7B. 7B. 7B. 7B. 7B. 7B. 7B. 7B. 7B. 7B. 7B. 7B. 7B. 7B. 7B. 7B. 7B. 7B. 7B. 7B. 7B. 7B.  >C+ >C+ >C+ >C+ >C+ >C+ >C+ >C+ >C+ >C+ >C+ >C+ >C+ >C+ >C+ >C+ >C+ >C+ >C+ >C+ >C+ >C+ >C+ >C+ >C+ >C+ >C+ >C+ >C+ + 6F+ 6F+ 6F+ 6F+ 6F+ 6F+ 6F+ 6F+ 6F+ 6F+ 6F+ 6F+ 6F+ 6F+ 6F+ 6F+ 6F+ 6F+ 6F+ 6F+ 6F+ 6F+ 6F+ 6F+ 6F+ 6F+ 6F+ 6F+ 6F+  7K0 7K0 7K0 7K0 7K0 7K0 7K0 7K0 7K0 7K0 7K0 7K0 7K0 7K0 7K0 7K0 7K0 7K0 7K0 7K0 7K0 7K0 7K0 7K0 7K0 7K0 7K0 7K0 7K0 70 7B0 7B0 7B0 7B0 7B0 7B0 7B0 7B0 7B0 7B0 7B0 7B0 7B0 7B0 7B0 7B0 7B0 7B0 7B0 7B0 7B0 7B0 7B0 7B0 7B0 7B0 7B0 7B0 7B0  ?C- ?C- ?C- ?C- ?C- ?C- ?C- ?C- ?C- ?C- ?C- ?C- ?C- ?C- ?C- ?C- ?C- ?C- ?C- ?C- ?C- ?C- ?C- ?C- ?C- ?C- ?C- ?C- ?C- - 6H- 6H- 6H- 6H- 6H- 6H- 6H- 6H- 6H- 6H- 6H- 6H- 6H- 6H- 6H- 6H- 6H- 6H- 6H- 6H- 6H- 6H- 6H- 6H- 6H- 6H- 6H- 6H- 6H-  7J. 7J. 7J. 7J. 7J. 7J. 7J. 7J. 7J. 7J. 7J. 7J. 7J. 7J. 7J. 7J. 7J. 7J. 7J. 7J. 7J. 7J. 7J. 7J. 7J. 7J. 7J. 7J. 7J. 7. 7N. 7N. 7N. 7N. 7N. 7N. 7N. 7N. 7N. 7N. 7N. 7N. 7N. 7N. 7N. 7N. 7N. 7N. 7N. 7N. 7N. 7N. 7N. 7N. 7N. 7N. 7N. 7N. 7N. 7 7O3 7O3 7O3 7O3 7O3 7O3 7O3 7O3 7O3 7O3 7O3 7O3 7O3 7O3 7O3 7O3 7O3 7O3 7O3 7O3 7O3 7O3 7O3 7O3 7O3 7O3 7O3 7O3 7O3  ?Q0 ?Q0 ?Q0 ?Q0 ?Q0 ?Q0 ?Q0 ?Q0 ?Q0 ?Q0 ?Q0 ?Q0 ?Q0 ?Q0 ?Q0 ?Q0 ?Q0 ?Q0 ?Q0 ?Q0 ?Q0 ?Q0 ?Q0 ?Q0 ?Q0 ?Q0 ?Q0 ?Q0 ?Q0  6Q2 6Q2 6Q2 6Q2 6Q2 6Q2 6Q2 6Q2 6Q2 6Q2 6Q2 6Q2 6Q2 6Q2 6Q2 6Q2 6Q2 6Q2 6Q2 6Q2 7Q2 7Q2 7Q2 7Q2 7Q2 7Q2 7Q2 7Q2 7Q2 7Q2 7Q2 7Q2 7Q2 7Q2 7Q2 7Q2 7Q2 7Q2 7Q2 7Q2 6Q2 6Q2 6Q2 6Q2 6Q2 6Q2 6Q2 6Q2 6Q2 6Q2 6Q2 6Q2 6Q2 6Q2 6Q2 6Q2 6Q2 6Q2 6Q2 6Q 7Q& 7Q& 7Q& 7Q& 7Q& 7Q& 7Q& 7Q& 7Q& 7Q& 7Q& 7Q& 7Q& 7Q& 7Q& 6Q& 6Q& 6Q& 6Q& 6Q& 6Q& 6Q& 6Q& 6Q& 6Q& 6Q& 6Q& 6Q& 6Q& 6& 7O& 7O& 7O& 7O& 7O& 7O& 7O& 7O& 7O& 7O& 7O& 7O& 7O& 7O& 7O& 7O& 7O& 7O& 7O& 7O& 7O& 7O& 7O& 7O& 7O& 7O& 7O& 7O& 7O&  7O' 7O' 7O' 7O' 7O' 7O' 7O' 7O' 7O' 7O' 7O' 7O' 7O' 7O' 7O' 7O' 7O' 7O' 7O' 7O' 7O' 7O' 7O' 7O' 7O' 7O' 7O' 7O' 7O' ' 2N' 2N' 2N' 2N' 2N' 2N' 2N' 2N' 2N' 2N' 2N' 2N' 2N' 2N' 2N' 2N' 2N' 2N' 2N' 2N' 2N' 2N' 2N' 2N' 2N' 2N' 2N' 2N' 2N'  3O0 3O0 3O0 3O0 3O0 3O0 3O0 3O0 3O0 3O0 3O0 3O0 3O0 3O0 3O0 3O0 3O0 3O0 3O0 3O0 3O0 3O0 3O0 3O0 3O0 3O0 3O0 3O0 3O0 O0 0O0 0O0 0O0 0O0 0O0 0O0 0O0 0O0 0O0 0O0 0O0 0O0 0O0 0O0 0O0 0O0 0O0 0O0 0O0 0O0 0O0 0O0 0O0 0O0 0O0 0O0 0O0 0O0 0O0 O 2O. 2O. 2O. 2O. 2O. 2O. 2O. 2O. 2O. 2O. 2O. 2O. 2O. 2O. 2O. 2O. 2O. 2O. 2O. 2O. 2O. 2O. 2O. 2O. 2O. 2O. 2O. 2O. 2O. O. 7O. 7O. 7O. 7O. 7O. 7O. 7O. 7O. 7O. 7O. 7O. 7O. 7O. 7O. 7O. 7O. 7O. 7O. 7O. 7O. 7O. 7O. 7O. 7O. 7O. 7O. 7O. 7O. 7O. O 3O- 3O- 3O- 3O- 3O- 3O- 3O- 3O- 3O- 3O- 3O- 3O- 3O- 3O- 3O- 3O- 3O- 3O- 3O- 3O- 3O- 3O- 3O- 3O- 3O- 3O- 3O- 3O- 3O- - 0N- 0N- 0N- 0N- 0N- 0N- 0N- 0N- 0N- 0N- 0N- 0N- 0N- 0N- 0N- 0N- 0N- 0N- 0N- 0N- 0N- 0N- 0N- 0N- 0N- 0N- 0N- 0N- 0N-  2O. 2O. 2O. 2O. 2O. 2O. 2O. 2O. 2O. 2O. 2O. 2O. 2O. 2O. 2O. 2O. 2O. 2O. 2O. 2O. 2O. 2O. 2O. 2O. 2O. 2O. 2O. 2O. 2O. . -N. -N. -N. -N. -N. -N. -N. -N. -N. -N. -N. -N. -N. -N. -N. -N. -N. -N. -N. -N. -N. -N. -N. -N. -N. -N. -N. -N. -N.  .N2 .N2 .N2 .N2 .N2 .N2 .N2 .N2 .N2 .N2 .N2 .N2 .N2 .N2 .N2 .N2 .N2 .N2 .N2 .N2 .N2 .N2 .N2 .N2 .N2 .N2 .N2 .N2 .N2 2 *O2 *O2 *O2 *O2 *O2 *O2 *O2 *O2 *O2 *O2 *O2 *O2 *O2 *O2 *O2 *O2 *O2 *O2 *O2 *O2 *O2 *O2 *O2 *O2 *O2 *O2 *O2 *O2 *O2 O +O. +O. +O. +O. +O. +O. +O. +O. +O. +O. +O. +O. +O. +O. +O. +O. +O. +O. +O. +O. +O. +O. +O. +O. +O. +O. +O. +O. +O. O. 2O. 2O. 2O. 2O. 2O. 2O. 2O. 2O. 2O. 2O. 2O. 2O. 2O. 2O. 2O. 2O. 2O. 2O. 2O. 2O. 2O. 2O. 2O. 2O. 2O. 2O. 2O. 2O. 2O. O .O+ .O+ .O+ .O+ .O+ .O+ .O+ .O+ .O+ .O+ .O+ .O+ .O+ .O+ .O+ .O+ .O+ .O+ .O+ .O+ .O+ .O+ .O+ .O+ .O+ .O+ .O+ .O+ .O+ O+ +O+ +O+ +O+ +O+ +O+ +O+ +O+ +O+ +O+ +O+ +O+ +O+ +O+ +O+ +O+ +O+ +O+ +O+ +O+ +O+ +O+ +O+ +O+ +O+ +O+ +O+ +O+ +O+ +O+ O 3O$ 3O$ 3O$ 3O$ 3O$ 3O$ 3O$ 3O$ 3O$ 3O$ 3O$ 3O$ 3O$ 3O$ 3O$ 3O$ 3O$ 3O$ 3O$ 3O$ 3O$ 3O$ 3O$ 3O$ 3O$ 3O$ 3O$ 3O$ 3O$ O$ 0K$ 0K$ 0K$ 0K$ 0K$ 0K$ 0K$ 0K$ 0K$ 0K$ 0K$ 0K$ 0K$ 0K$ 0K$ 0K$ 0K$ 0K$ 0K$ 0K$ 0K$ 0K$ 0K$ 0K$ 0K$ 0K$ 0K$ 0K$ 0K$  7J0 7J0 7J0 7J0 7J0 7J0 7J0 7J0 7J0 7J0 7J0 7J0 7J0 7J0 7J0 7J0 7J0 7J0 7J0 7J0 7J0 7J0 7J0 7J0 7J0 7J0 7J0 7J0 7J0 0 H0 H0 H0 H0 H0 H0 H0 H0 H0 H0 H0 H0 H0 H0 H0 H0 H0 H0 H0 H0 H0 H0 H0 H0 H0 H0 H0 H0 H0  &F2 &F2 &F2 &F2 &F2 &F2 &F2 &F2 &F2 &F2 &F2 &F2 &F2 &F2 &F2 &F2 &F2 &F2 &F2 &F2 &F2 &F2 &F2 &F2 &F2 &F2 &F2 &F2 &F2 &F2 &F2 &F2 &F2 &F2 &F2 &F2 &F2 &F2 &F2 &F2 &F2 &F2 &F2 &F2 &F2 &F2 &F2 &F2 &F2 &F2 &F2 &F2 &F2 &F2 &F2 &F2 &F2 &F2 &F2  6E& 6E& 6E& 6E& 6E& 6E& 6E& 6E& 6E& 6& 6F& 6F& 6F& 6F& F& 4F& 4F& 4F& 4F& 4& 4E& 4E& 4E& 4E& 4E& 4E& 4E& 4E& 4E& & 6C& 6C& 6C& 6C& 6C& 6C& 6C& 6C& 6C& 6C& 6C& 6C& 6C& 6C& 6C& 6C& 6C& 6C& 6C& 6C& 6C& 6C& 6C& 6C& 6C& 6C& 6C& 6C& 6C&  +27C>:+7 +27C>:+7 +27C>:+7 +27C>:+7 +27C>:+7 +27C>:+7 +27C>:+7 +27C>:+7 +27C>:+7 +27C>:+7 +27C>:+7 +27C>:+7 +27C>:+7 +27C>:+7 +27C>:+7 +27C>:+7 +27C>:+7 +27C>:+7 +27C>:+7 +27C>:+7 +27C>:+7 +27C>:+7 +27C>:+7 +27C>:+7 +27C>:+7 +27C>:+7 +27C>:+7 +27C>:+7 +27C>:+7 +27C>:+7 +27C>:+7 +27C>:+7 +27C>:+7 +27C>:+7 +27C>:+7 +27C>:+7 +27C>:+7 +27C>:+7 +27C>:+7 +27C>:+7 +27C>:+7 +27C>:+7 +27C>:+7 +27C>:+7 +27C>:+7 +27C>:+7 +27C>:+7 +27C>:+7 +27C>:+7 +27C>:+7 +27C>:+7 +27C>:+7 +27C>:+7 +27C>:+7 +27C>:+7 +27C>:+7 +27C>:+7 +27C>:+7 +27C>:+7 +27C>:+7 +27C>:+7 +27C>:+7 +27C>:+7 +27C>:+7 +27C>:+7 +27C>:+7 +27C>:+7 +27C>:+7 +27C>:+7 +27C>:+7 +27C>:+7 +27C>:+7 +27C>:+7 +27C>:+7 +27C>:+7 +27C>:+7 +27C>:+7 +27C>:+7 +27C>:+7 +27C>:+7 +27C>:+7 +27C>:+7 +27C>:+7 +27C>:+7 +27C>:+7 +27C>:+7 +27C>:+7 +27C>:+7 +27C>:+7 +27C>:+7 +27C>:+7 +27C>:+7 +27C>:+7 +27C>:+7 +27C>:+7 +27C>:+7 +27C>:+7 +27C>:+7 +27C>:+7 +27C>:+7 +27C>:+7 +27C>:+7 +27C>:+7 +27C>:+7 +27C>:+7 +27C>:+7 +27C>:+7 +27C>:+7 +27C>:+7 +27C>:+7 +27C>:+7 +27C>:+7 +27C>:+7 +27C>:+7 +27C>:+7 +27C>:+7 +27C>:+7 +27C>:+7 +27C>:+7 +27C>:+7 +27C>:+7 +27C>:+7 +27C>:+7 +27C>:+7 +27C>:+7 +27C>:+7 +27C>:+7 +27C>:+7 +27C>:+7 +27C>:+7 +27C>:+7 +27C>:+7 +27C>:+7 +27C>:+7 +27C>:+7 +27C>:+7 +27C>:+7 +27C>:+7 +27C>:+7 +27C>:+7 +27C>:+7 +27C>:+7 +27C>:+7 +27C>:+7 +27C>:+7 +27C>:+7 +27C>:+7 +27C>:+7 +27C>:+7 +27C>:+7 +27C>:+7 +27C>:+7 +27C>:+7 +27C>:+7 +27C>:+7 +27C>:+7 +27C>:+7 +27C>:+7 +27C>:+7 +27C>:+7 +27C>:+7 +27C>:+7 +27C>:+7 +27C>:+7 +27C>:+7 +27C>:+7 +27C>:+7 +27C>:+7 +27C>:+7 +27C>:+7 +27C>:+7 +27C>:+7 +27C>:+7 +27C>:+7 +27C>:+7 +27C>:+7 +27C>:+7 +27C>:+7 +27C>:+7                                                                                                                                                                                                                                                                                                                                                                                                                                                                                                                                                              A. A. A. A. A. A. A. A. A. A. A. A. A. A. A. A. A. A. A. A. A. A. A. A. A. A. A. A. A. A. A. A. A. A. A. A. A. A. A. A. A. A. A. A. A. A. A. A. A. A. A. A. A. A. A. A. A. A. A. A. A. A. A. A. A. A. A. A. A. A. A. A. A. A. A. A. A. A. A. A. A. A. A. A. A. A. A. A. A. A. A. A. A. A. A. A. A. A. A. A. A. A. A. A. A. A. A. A. A. A. A. A. A. A. A. A. A. A. A. A A0 A0 A0 A0 A0 A0 A0 A0 A0 A0 A0 A0 A0 A0 A0 A0 A0 A0 A0 A0 A0 A0 A0 A0 A0 A0 A0 A0 A0 A0 A0 A0 A0 A0 A0 A0 A0 A0 A0 A0 A0 A0 A0 A0 A0 A0 A0 A0 A0 A0 A0 A0 A0 A0 A0 A0 A0 A0 A0 A0 A0 A0 A0 A0 A0 A0 A0 A0 A0 A0 A0 A0 A0 A0 A0 A0 A0 A0 A0 A0 A0 A0 A0 A0 A0 A0 A0 A0 A0 A0 A0 A0 A0 A0 A0 A0 A0 A0 A0 A0 A0 A0 A0 A0 A0 A0 A0 A0 A0 A0 A0 A0 A0 A0 A0 A0 A0 A0 A0 A AF2 AF2 AF2 AF2 AF2 AF2 AF2 AF2 AF2 AF2 AF2 AF2 AF2 AF2 AF2 AF2 AF2 AF2 AF2 AF2 AF2 AF2 AF2 AF2 AF2 AF2 AF2 AF2 AF2 AF2 AF2 AF2 AF2 AF2 AF2 AF2 AF2 AF2 AF2 AF2 AF2 AF2 AF2 AF2 AF2 AF2 AF2 AF2 AF2 AF2 AF2 AF2 AF2 AF2 AF2 AF2 AF2 AF2 AF2 AF2 AF2 AF2 AF2 AF2 AF2 AF2 AF2 AF2 AF2 AF2 AF2 AF2 AF2 AF2 AF2 AF2 AF2 AF2 AF2 AF2 AF2 AF2 AF2 AF2 AF2 AF2 AF2 AF2 AF2 AF2 AF2 AF2 AF2 AF2 AF2 AF2 AF2 AF2 AF2 AF2 AF2 AF2 AF2 AF2 AF2 AF2 AF2 AF2 AF2 AF2 AF2 AF2 AF2 AF2 AF2 AF2 AF2 AF2 AF2 AF AF0 AF0 AF0 AF0 AF0 AF0 AF0 AF0 AF0 AF0 AF0 AF0 AF0 AF0 AF0 AF0 AF0 AF0 AF0 AF0 AF0 AF0 AF0 AF0 AF0 AF0 AF0 AF0 AF0 AF0 AF0 AF0 AF0 AF0 AF0 AF0 AF0 AF0 AF0 AF0 AF0 AF0 AF0 AF0 AF0 AF0 AF0 AF0 AF0 AF0 AF0 AF0 AF0 AF0 AF0 AF0 AF0 AF0 AF0 AF0 AF0 AF0 AF0 AF0 AF0 AF0 AF0 AF0 AF0 AF0 AF0 AF0 AF0 AF0 AF0 AF0 AF0 AF0 AF0 AF0 AF0 AF0 AF0 AF0 AF0 AF0 AF0 AF0 AF0 AF0 AF0 AF0 AF0 AF0 AF0 AF0 AF0 AF0 AF0 AF0 AF0 AF0 AF0 AF0 AF0 AF0 AF0 AF0 AF0 AF0 AF0 AF0 AF0 AF0 AF0 AF0 AF0 AF0 AF0 A AH. AH. AH. AH. AH. AH. AH. AH. AH. AH. AH. AH. AH. AH. AH. AF. AF. AF. AF. AF. AF. AF. AF. AF. AF. AF. AF. AF. AF. AF. AH. AH. AH. AH. AH. AH. AH. AH. AH. AH. AH. AH. AH. AH. AH. AH. AH. AH. AH. AH. AH. AH. AH. AH. AH. AH. AH. AH. AH. AH. AH. AH. AH. AH. AH. AH. AH. AH. AH. AH. AH. AH. AH. AH. AH. AH. AH. AH. AH. AH. AH. AH. AH. AH. AH. AH. AH. AH. AH. AH. AH. AH. AH. AH. AH. AH. AH. AH. AH. AH. AH. AH. AH. AH. AH. AH. AH. AH. AH. AH. AH. AH. AH. AH. AH. AH. AH. AH. AH. AH. AJ. AJ. AJ. AJ. AJ. AJ. AJ. AJ. AJ. AJ. AJ. AJ. AJ. AJ. AJ. AJ. AJ. AJ. AJ. AJ. AJ. AJ. AJ. AJ. AJ. AJ. AJ. AJ. AJ. AJ. AJ. AJ. AJ. AJ. AJ. AJ. AJ. AJ. AJ. AJ. AJ. AJ. AJ. AJ. AJ. AJ. AJ. AJ. AJ. AJ. AJ. AJ. AJ. AJ. AJ. AJ. AJ. AJ. AJ. AJ. AJ. AJ. AJ. AJ. AJ. AJ. AJ. AJ. AJ. AJ. AJ. AJ. AJ. AJ. AJ. AJ. AJ. AJ. AJ. AJ. AJ. AJ. AJ. AJ. AJ. AJ. AJ. AJ. AJ. AJ. AJ. AJ. AJ. AJ. AJ. AJ. AJ. AJ. AJ. AJ. AJ. AJ. AJ. AJ. AJ. AJ. AJ. AJ. AJ. AJ. AJ. AJ. AJ. AJ. AJ. AJ. AJ. AJ. AJ. A AF0 AF0 AF0 AF0 AF0 AF0 AF0 AF0 AF0 AF0 AF0 AF0 AF0 AF0 AF0 AF0 AF0 AF0 AF0 AF0 AF0 AF0 AF0 AF0 AF0 AF0 AF0 AF0 AF0 AF0 CF0 CF0 CF0 CF0 CF0 CF0 CF0 CF0 CF0 CF0 CF0 CF0 CF0 CF0 CF0 CF0 CF0 CF0 CF0 CF0 CF0 CF0 CF0 CF0 CF0 CF0 CF0 CF0 CF0 0 AE0 AE0 AE0 AE0 AE0 AE0 AE0 AE0 AE0 AE0 AE0 AE0 AE0 AE0 AE0 AE0 AE0 AE0 AE0 AE0 AE0 AE0 AE0 AE0 AE0 AE0 AE0 AE0 AE0 E0 ?E0 ?E0 ?E0 ?E0 ?E0 ?E0 ?E0 ?E0 ?E0 ?E0 ?E0 ?E0 ?E0 ?E0 ?E0 ?E0 ?E0 ?E0 ?E0 ?E0 ?E0 ?E0 ?E0 ?E0 ?E0 ?E0 ?E0 ?E0 ?E0 E0 AE0 AE0 AE0 AE0 AE0 AE0 AE0 AE0 AE0 AE0 AE0 AE0 AE0 AE0 AE0 AE0 AE0 AE0 AE0 AE0 AE0 AE0 AE0 AE0 AE0 AE0 AE0 AE0 AE0 AE0 AE0 AE0 AE0 AE0 AE0 AE0 AE0 AE0 AE0 AE0 AE0 AE0 AE0 AE0 AE0 AE0 AE0 AE0 AE0 AE0 AE0 AE0 AE0 AE0 AE0 AE0 AE0 AE0 AE0 AE0 AE0 AE0 AE0 AE0 AE0 AE0 AE0 AE0 AE0 AE0 AE0 AE0 AE0 AE0 AE0 AE0 AE0 AE0 AE0 AE0 AE0 AE0 AE0 AE0 AE0 AE0 AE0 AE0 AE0 E0 CE0 CE0 CE0 CE0 CE0 CE0 CE0 CE0 CE0 CE0 CE0 CE0 CE0 CE0 CE0 CE0 CE0 CE0 CE0 CE0 CE0 CE0 CE0 CE0 CE0 CE0 CE0 CE0 CE0  9K 9K 9K 9K 9K 9K 9K 9K 9K 9K 9K 9K 9K 9K 9K 9K 9K 9K 9K 9K 9K 9K 9K 9K 9K 9K 9K 9K 9K K 7K 7K 7K 7K 7K 7K 7K 7K 7K 7K 7K 7K 7K 7K 7K 7K 7K 7K 7K 7K 7K 7K 7K 7K 7K 7K 7K 7K 7K K 5K 5K 5K 5K 5K 5K 5K 5K 5K 5K 5K 5K 5K 5K 5K 5K 5K 5K 5K 5K 5K 5K 5K 5K 5K 5K 5K 5K 5K 5K 5K 5K 5K 5K 5K 5K 5K 5K 5K 5K 5K 5K 5K 5K 5K 5K 5K 5K 5K 5K 5K 5K 5K 5K 5K 5K 5K 5K 5K K <K <K <K <K <K <K <K <K <K <K <K <K <K <K <K <K <K <K <K <K <K <K <K <K <K <K <K <K <K K :K :K :K :K :K :K :K :K :K :K :K :K :K :K :K :K :K :K :K :K :K :K :K :K :K :K :K :K :K K 9K 9K 9K 9K 9K 9K 9K 9K 9K 9K 9K 9K 9K 9K 9K 9K 9K 9K 9K 9K 9K 9K 9K 9K 9K 9K 9K 9K 9K 9K 9K 9K 9K 9K 9K 9K 9K 9K 9K 9K 9K 9K 9K 9K 9K 9K 9K 9K 9K 9K 9K 9K 9K 9K 9K 9K 9K 9K 9K  ?J ?J ?J ?J ?J ?J ?J ?J ?J ?J ?J ?J ?J ?J ?J ?J ?J ?J ?J ?J ?J ?J ?J ?J ?J ?J ?J ?J ?J ?J ?J ?J ?J ?J ?J ?J ?J ?J ?J ?J ?J ?J ?J ?J ?J ?J ?J ?J ?J ?J ?J ?J ?J ?J ?J ?J ?J ?J ?J ? ?H ?H ?H ?H ?H ?H ?H ?H ?H ?H ?H ?H ?H ?H ?H ?H ?H ?H ?H ?H ?H ?H ?H ?H ?H ?H ?H ?H ?H ?H ?H ?H ?H ?H ?H ?H ?H ?H ?H ?H ?H ?H ?H ?H ?H ?H ?H ?H ?H ?H ?H ?H ?H ?H ?H ?H ?H ?H ?H ?H ?H ?H ?H ?H ?H ?H ?H ?H ?H ?H ?H ?H ?H ?H ?H ?H ?H ?H ?H ?H ?H ?H ?H ?H ?H ?H ?H ?H ?H ?H ?H ?H ?H ?H ?H ?H ?H ?H ?H ?H ?H ?H ?H ?H ?H ?H ?H ?H ?H ?H ?H ?H ?H ?H ?H ?H ?H ?H ?H ?H ?H ?H ?H ?H ?H ?H ?H ?H ?H ?H ?H ?H ?H ?H ?H ?H ?H ?H ?H ?H ?H ?H ?H ?H ?H ?H ?H ?H ?H ?H ?H ?H ?H ?H ?H ?H ?H ?H ?H ?H ?H ?H ?H ?H ?H ?H ?H ?H ?H ?H ?H ?H ?H ?H ?H ?H ?H ?H ?H ? ?F) ?F) ?F) ?F) ?F) ?F) ?F) ?F) ?F) ?F) ?F) ?F) ?F) ?F) ?F) ?F) ?F) ?F) ?F) ?F) ?F) ?F) ?F) ?F) ?F) ?F) ?F) ?F) ?F) ?F) ?F) ?F) ?F) ?F) ?F) ?F) ?F) ?F) ?F) ?F) ?F) ?F) ?F) ?F) ?F) ?F) ?F) ?F) ?F) ?F) ?F) ?F) ?F) ?F) ?F) ?F) ?F) ?F) ?F) ?) ?E) ?E) ?E) ?E) ?E) ?E) ?E) ?E) ?E) ?E) ?E) ?E) ?E) ?E) ?E) ?E) ?E) ?E) ?E) ?E) ?E) ?E) ?E) ?E) ?E) ?E) ?E) ?E) ?E) ?E) ?E) ?E) ?E) ?E) ?E) ?E) ?E) ?E) ?E) ?E) ?E) ?E) ?E) ?E) ?E) ?E) ?E) ?E) ?E) ?E) ?E) ?E) ?E) ?E) ?E) ?E) ?E) ?E) ?E) ? ?C+ ?C+ ?C+ ?C+ ?C+ ?C+ ?C+ ?C+ ?C+ ?C+ ?C+ ?C+ ?C+ ?C+ ?C+ ?C+ ?C+ ?C+ ?C+ ?C+ ?C+ ?C+ ?C+ ?C+ ?C+ ?C+ ?C+ ?C+ ?C+ ?C+ ?C+ ?C+ ?C+ ?C+ ?C+ ?C+ ?C+ ?C+ ?C+ ?C+ ?C+ ?C+ ?C+ ?C+ ?C+ ?C+ ?C+ ?C+ ?C+ ?C+ ?C+ ?C+ ?C+ ?C+ ?C+ ?C+ ?C+ ?C+ ?C+ ?+ ?A+ ?A+ ?A+ ?A+ ?A+ ?A+ ?A+ ?A+ ?A+ ?A+ ?A+ ?A+ ?A+ ?A+ ?A+ ?A+ ?A+ ?A+ ?A+ ?A+ ?A+ ?A+ ?A+ ?A+ ?A+ ?A+ ?A+ ?A+ ?A+ ?A+ ?A+ ?A+ ?A+ ?A+ ?A+ ?A+ ?A+ ?A+ ?A+ ?A+ ?A+ ?A+ ?A+ ?A+ ?A+ ?A+ ?A+ ?A+ ?A+ ?A+ ?A+ ?A+ ?A+ ?A+ ?A+ ?A+ ?A+ ?A+ ?A+ ? ?A- ?A- ?A- ?A- ?A- ?A- ?A- ?A- ?A- ?A- ?A- ?A- ?A- ?A- ?A- ?A- ?A- ?A- ?A- ?A- ?A- ?A- ?A- ?A- ?A- ?A- ?A- ?A- ?A- ?A- ?A- ?A- ?A- ?A- ?A- ?A- ?A- ?A- ?A- ?A- ?A- ?A- ?A- ?A- ?A- ?A- ?A- ?A- ?A- ?A- ?A- ?A- ?A- ?A- ?A- ?A- ?A- ?A- ?A- ?A- <A- <A- <A- <A- <A- <A- <A- <A- <A- <A- <A- <A- <A- <A- <A- <A- <A- <A- <A- <A- <A- <A- <A- <A- <A- <A- <A- <A- <A- <A- <A- <A- <A- <A- <A- <A- <A- <A- <A- <A- <A- <A- <A- <A- <A- <A- <A- <A- <A- <A- <A- <A- <A- <A- <A- <A- <A- <A- <A- A ?A+ ?A+ ?A+ ?A+ ?A+ ?A+ ?A+ ?A+ ?A+ ?A+ ?A+ ?A+ ?A+ ?A+ ?A+ ?A+ ?A+ ?A+ ?A+ ?A+ ?A+ ?A+ ?A+ ?A+ ?A+ ?A+ ?A+ ?A+ ?A+ ?A+ ?A+ ?A+ ?A+ ?A+ ?A+ ?A+ ?A+ ?A+ ?A+ ?A+ ?A+ ?A+ ?A+ ?A+ ?A+ ?A+ ?A+ ?A+ ?A+ ?A+ ?A+ ?A+ ?A+ ?A+ ?A+ ?A+ ?A+ ?A+ ?A+ A+ AA+ AA+ AA+ AA+ AA+ AA+ AA+ AA+ AA+ AA+ AA+ AA+ AA+ AA+ AA+ AA+ AA+ AA+ AA+ AA+ AA+ AA+ AA+ AA+ AA+ AA+ AA+ AA+ AA+ AA+ AA+ AA+ AA+ AA+ AA+ AA+ AA+ AA+ AA+ AA+ AA+ AA+ AA+ AA+ AA+ AA+ AA+ AA+ AA+ AA+ AA+ AA+ AA+ AA+ AA+ AA+ AA+ AA+ AA+  E?) E?) E?) E?) E?) E?) E?) E?) E?) E?) E?) E?) E?) E?) E?) EA) EA) EA) EA) EA) EA) EA) EA) EA) EA) EA) EA) EA) EA) EA) E?) E?) E?) E?) E?) E?) E?) E?) E?) E?) E?) E?) E?) E?) E?) E?) E?) E?) E?) E?) E?) E?) E?) E?) E?) E?) E?) E?) E?) ?) F>) F>) F>) F>) F>) F>) F>) F>) F>) F>) F>) F>) F>) F>) F>) F>) F>) F>) F>) F>) F>) F>) F>) F>) F>) F>) F>) F>) F>) F>) F>) F>) F>) F>) F>) F>) F>) F>) F>) F>) F>) F>) F>) F>) F>) F>) F>) F>) F>) F>) F>) F>) F>) F>) F>) F>) F>) F>) F>) ) H?) H?) H?) H?) H?) H?) H?) H?) H?) H?) H?) H?) H?) H?) H?) H?) H?) H?) H?) H?) H?) H?) H?) H?) H?) H?) H?) H?) H?) H?) H?) H?) H?) H?) H?) H?) H?) H?) H?) H?) H?) H?) H?) H?) H?) H?) H?) H?) H?) H?) H?) H?) H?) H?) H?) H?) H?) H?) H?) H?) H?) H?) H?) H?) H?) H?) H?) H?) H?) H?) H?) H?) H?) H?) H?) H?) H?) H?) H?) H?) H?) H?) H?) H?) H?) H?) H?) H?) H?) H?) H?) H?) H?) H?) H?) H?) H?) H?) H?) H?) H?) H?) H?) H?) H?) H?) H?) H?) H?) H?) H?) H?) H?) H?) H?) H?) H?) H?) H?) H H>. H>. H>. H>. H>. H>. H>. H>. H>. H>. H>. H>. H>. H>. H>. H>. H>. H>. H>. H>. H>. H>. H>. H>. H>. H>. H>. H>. H>. H>. H>. H>. H>. H>. H>. H>. H>. H>. H>. H>. H>. H>. H>. H>. H>. H>. H>. H>. H>. H>. H>. H>. H>. H>. H>. H>. H>. H>. H>. >. F>. F>. F>. F>. F>. F>. F>. F>. F>. F>. F>. F>. F>. F>. F>. F>. F>. F>. F>. F>. F>. F>. F>. F>. F>. F>. F>. F>. F>. >. E>. E>. E>. E>. E>. E>. E>. E>. E>. E>. E>. E>. E>. E>. E>. E>. E>. E>. E>. E>. E>. E>. E>. E>. E>. E>. E>. E>. E>. >. F>. F>. F>. F>. F>. F>. F>. F>. F>. F>. F>. F>. F>. F>. F>. F>. F>. F>. F>. F>. F>. F>. F>. F>. F>. F>. F>. F>. F>. >. E>. E>. E>. E>. E>. E>. E>. E>. E>. E>. E>. E>. E>. E>. E>. E>. E>. E>. E>. E>. E>. E>. E>. E>. E>. E>. E>. E>. E>. >. C>. C>. C>. C>. C>. C>. C>. C>. C>. C>. C>. C>. C>. C>. C>. C>. C>. C>. C>. C>. C>. C>. C>. C>. C>. C>. C>. C>. C>. C>. C>. C>. C>. C>. C>. C>. C>. C>. C>. C>. C>. C>. C>. C>. C>. C>. C>. C>. C>. C>. C>. C>. C>. C>. C>. C>. C>. C>. C>. > C> C> C> C> C> C> C> C> C> C> C> C> C> C> C> C> C> C> C> C> C> C> C> C> C> C> C> C> C> > A> A> A> A> A> A> A> A> A> A> A> A> A> A> A> A> A> A> A> A> A> A> A> A> A> A> A> A> A> A> A> A> A> A> A> A> A> A> A> A> A> A> A> A> A> A> A> A> A> A> A> A> A> A> A> A> A> A> A> A> A> A> A> A> A> A> A> A> A> A> A> A> A> A> A> A> A> A> A> A> A> A> A> A> A> A> A> A> A> A A< A< A< A< A< A< A< A< A< A< A< A< A< A< A< A< A< A< A< A< A< A< A< A< A< A< A< A< A< A< A< A< A< A< A< A< A< A< A< A< A< A< A< A< A< A< A< A< A< A< A< A< A< A< A< A< A< A< A< A< A< A< A< A< A< A< A< A< A< A< A< A< A< A< A< A< A< A< A< A< A< A< A< A< A< A< A< A< A< A< A< A< A< A< A< A< A< A< A< A< A< A< A< A< A< A< A< A< A< A< A< A< A< A< A< A< A< A< A< A A: A: A: A: A: A: A: A: A: A: A: A: A: A: A: A: A: A: A: A: A: A: A: A: A: A: A: A: A: : C: C: C: C: C: C: C: C: C: C: C: C: C: C: C: C: C: C: C: C: C: C: C: C: C: C: C: C: C: : E: E: E: E: E: E: E: E: E: E: E: E: E: E: E: E: E: E: E: E: E: E: E: E: E: E: E: E: E: : F: F: F: F: F: F: F: F: F: F: F: F: F: F: F: F: F: F: F: F: F: F: F: F: F: F: F: F: F: : H: H: H: H: H: H: H: H: H: H: H: H: H: H: H: H: H: H: H: H: H: H: H: H: H: H: H: H: H: : J: J: J: J: J: J: J: J: J: J: J: J: J: J: J: J: J: J: J: J: J: J: J: J: J: J: J: J: J: : E: E: E: E: E: E: E: E: E: E: E: E: E: E: E: E: E: E: E: E: E: E: E: E: E: E: E: E: E: E: E: E: E: E: E: E: E: E: E: E: E: E: E: E: E: E: E: E: E: E: E: E: E: E: E: E: E: E: E:  FJ. FJ. FJ. FJ. FJ. FJ. FJ. FJ. FJ. FJ. FJ. FJ. FJ. FJ. FJ. FJ. FJ. FJ. FJ. FJ. FJ. FJ. FJ. FJ. FJ. FJ. FJ. FJ. FJ. FJ. FJ. FJ. FJ. FJ. FJ. FJ. FJ. FJ. FJ. FJ. FJ. FJ. FJ. FJ. FJ. FJ. FJ. FJ. FJ. FJ. FJ. FJ. FJ. FJ. FJ. FJ. FJ. FJ. FJ. FJ. FJ. FJ. FJ. FJ. FJ. FJ. FJ. FJ. FJ. FJ. FJ. FJ. FJ. FJ. FJ. FJ. FJ. FJ. FJ. FJ. FJ. FJ. FJ. FJ. FJ. FJ. FJ. FJ. FJ. FJ. FJ. FJ. FJ. FJ. FJ. FJ. FJ. FJ. FJ. FJ. FJ. FJ. FJ. FJ. FJ. FJ. FJ. FJ. FJ. FJ. FJ. FJ. FJ. FJ. FJ. FJ. FJ. FJ. FJ. FJ FJ- FJ- FJ- FJ- FJ- FJ- FJ- FJ- FJ- FJ- FJ- FJ- FJ- FJ- FJ- FJ- FJ- FJ- FJ- FJ- FJ- FJ- FJ- FJ- FJ- FJ- FJ- FJ- FJ- FJ- FJ- FJ- FJ- FJ- FJ- FJ- FJ- FJ- FJ- FJ- FJ- FJ- FJ- FJ- FJ- FJ- FJ- FJ- FJ- FJ- FJ- FJ- FJ- FJ- FJ- FJ- FJ- FJ- FJ- FJ- FJ- FJ- FJ- FJ- FJ- FJ- FJ- FJ- FJ- FJ- FJ- FJ- FJ- FJ- FJ- FJ- FJ- FJ- FJ- FJ- FJ- FJ- FJ- FJ- FJ- FJ- FJ- FJ- FJ- FJ- FJ- FJ- FJ- FJ- FJ- FJ- FJ- FJ- FJ- FJ- FJ- FJ- FJ- FJ- FJ- FJ- FJ- FJ- FJ- FJ- FJ- FJ- FJ- FJ- FJ- FJ- FJ- FJ- FJ- F FH+ FH+ FH+ FH+ FH+ FH+ FH+ FH+ FH+ FH+ FH+ FH+ FH+ FH+ FH+ FH+ FH+ FH+ FH+ FH+ FH+ FH+ FH+ FH+ FH+ FH+ FH+ FH+ FH+ FH+ FH+ FH+ FH+ FH+ FH+ FH+ FH+ FH+ FH+ FH+ FH+ FH+ FH+ FH+ FH+ FH+ FH+ FH+ FH+ FH+ FH+ FH+ FH+ FH+ FH+ FH+ FH+ FH+ FH+ F+ FF+ FF+ FF+ FF+ FF+ FF+ FF+ FF+ FF+ FF+ FF+ FF+ FF+ FF+ FF+ FF+ FF+ FF+ FF+ FF+ FF+ FF+ FF+ FF+ FF+ FF+ FF+ FF+ FF+ FF+ FF+ FF+ FF+ FF+ FF+ FF+ FF+ FF+ FF+ FF+ FF+ FF+ FF+ FF+ FF+ FF+ FF+ FF+ FF+ FF+ FF+ FF+ FF+ FF+ FF+ FF+ FF+ FF+ FF+ FF FF- FF- FF- FF- FF- FF- FF- FF- FF- FF- FF- FF- FF- FF- FF- FF- FF- FF- FF- FF- FF- FF- FF- FF- FF- FF- FF- FF- FF- FF- FF- FF- FF- FF- FF- FF- FF- FF- FF- FF- FF- FF- FF- FF- FF- FF- FF- FF- FF- FF- FF- FF- FF- FF- FF- FF- FF- FF- FF- FF- FF- FF- FF- FF- FF- FF- FF- FF- FF- FF- FF- FF- FF- FF- FF- FF- FF- FF- FF- FF- FF- FF- FF- FF- FF- FF- FF- FF- FF- FF- FF- FF- FF- FF- FF- FF- FF- FF- FF- FF- FF- FF- FF- FF- FF- FF- FF- FF- FF- FF- FF- FF- FF- FF- FF- FF- FF- FF- FF- F FE. FE. FE. FE. FE. FE. FE. FE. FE. FE. FE. FE. FE. FE. FE. FE. FE. FE. FE. FE. FE. FE. FE. FE. FE. FE. FE. FE. FE. FE. FE. FE. FE. FE. FE. FE. FE. FE. FE. FE. FE. FE. FE. FE. FE. FE. FE. FE. FE. FE. FE. FE. FE. FE. FE. FE. FE. FE. FE. F. FC. FC. FC. FC. FC. FC. FC. FC. FC. FC. FC. FC. FC. FC. FC. FC. FC. FC. FC. FC. FC. FC. FC. FC. FC. FC. FC. FC. FC. FC. FC. FC. FC. FC. FC. FC. FC. FC. FC. FC. FC. FC. FC. FC. FC. FC. FC. FC. FC. FC. FC. FC. FC. FC. FC. FC. FC. FC. FC. FC. FC. FC. FC. FC. FC. FC. FC. FC. FC. FC. FC. FC. FC. FC. FC. FC. FC. FC. FC. FC. FC. FC. FC. FC. FC. FC. FC. FC. FC. FC. FC. FC. FC. FC. FC. FC. FC. FC. FC. FC. FC. FC. FC. FC. FC. FC. FC. FC. FC. FC. FC. FC. FC. FC. FC. FC. FC. FC. FC. FC. FC. FC. FC. FC. FC. FC. FC. FC. FC. FC. FC. FC. FC. FC. FC. FC. FC. FC. FC. FC. FC. FC. FC. FC. FC. FC. FC. FC. FC. FC. FC. FC. FC. FC. FC. FC. FC. FC. FC. FC. FC. FC. FC. FC. FC. FC. FC. FC. FC. FC. FC. FC. FC. FC. FC. FC. FC. FC. FC. F FA0 FA0 FA0 FA0 FA0 FA0 FA0 FA0 FA0 FA0 FA0 FA0 FA0 FA0 FA0 FA0 FA0 FA0 FA0 FA0 FA0 FA0 FA0 FA0 FA0 FA0 FA0 FA0 FA0 FA0 FA0 FA0 FA0 FA0 FA0 FA0 FA0 FA0 FA0 FA0 FA0 FA0 FA0 FA0 FA0 FA0 FA0 FA0 FA0 FA0 FA0 FA0 FA0 FA0 FA0 FA0 FA0 FA0 FA0 F0 C@0 C@0 C@0 C@0 C@0 C@0 C@0 C@0 C@0 C@0 C@0 C@0 C@0 C@0 C@0 C@0 C@0 C@0 C@0 C@0 C@0 C@0 C@0 C@0 C@0 C@0 C@0 C@0 C@0 C@0 C@0 C@0 C@0 C@0 C@0 C@0 C@0 C@0 C@0 C@0 C@0 C@0 C@0 C@0 C@0 C@0 C@0 C@0 C@0 C@0 C@0 C@0 C@0 C@0 C@0 C@0 C@0 C@0 C@0 0 @<0 @<0 @<0 @<0 @<0 @<0 @<0 @<0 @<0 @<0 @<0 @<0 @<0 @<0 @<0 @<0 @<0 @<0 @<0 @<0 @<0 @<0 @<0 @<0 @<0 @<0 @<0 @<0 @<0 @<0 @<0 @<0 @<0 @<0 @<0 @<0 @<0 @<0 @<0 @<0 @<0 @<0 @<0 @<0 @<0 @<0 @<0 @<0 @<0 @<0 @<0 @<0 @<0 @<0 @<0 @<0 @<0 @<0 @<0 <0 <<0 <<0 <<0 <<0 <<0 <<0 <<0 <<0 <<0 <<0 <<0 <<0 <<0 <<0 <<0 <<0 <<0 <<0 <<0 <<0 <<0 <<0 <<0 <<0 <<0 <<0 <<0 <<0 <<0 <<0 <<0 <<0 <<0 <<0 <<0 <<0 <<0 <<0 <<0 <<0 <<0 <<0 <<0 <<0 <<0 <<0 <<0 <<0 <<0 <<0 <<0 <<0 <<0 <<0 <<0 <<0 <<0 <<0 <<0  :C :C :C :C :C :C :C :C :C :C :C :C :C :C :C :C :C :C :C :C :C :C :C :C :C :C :C :C :C :C :C :C :C :C :C :C :C :C :C :C :C :C :C :C :C :C :C :C :C :C :C :C :C :C :C :C :C :C :C C 9C 9C 9C 9C 9C 9C 9C 9C 9C 9C 9C 9C 9C 9C 9C 9C 9C 9C 9C 9C 9C 9C 9C 9C 9C 9C 9C 9C 9C 9C 9C 9C 9C 9C 9C 9C 9C 9C 9C 9C 9C 9C 9C 9C 9C 9C 9C 9C 9C 9C 9C 9C 9C 9C 9C 9C 9C 9C 9C  :@ :@ :@ :@ :@ :@ :@ :@ :@ :@ :@ :@ :@ :@ :@ :@ :@ :@ :@ :@ :@ :@ :@ :@ :@ :@ :@ :@ :@ :@ :@ :@ :@ :@ :@ :@ :@ :@ :@ :@ :@ :@ :@ :@ :@ :@ :@ :@ :@ :@ :@ :@ :@ :@ :@ :@ :@ :@ :@ @ 7@ 7@ 7@ 7@ 7@ 7@ 7@ 7@ 7@ 7@ 7@ 7@ 7@ 7@ 7@ 7@ 7@ 7@ 7@ 7@ 7@ 7@ 7@ 7@ 7@ 7@ 7@ 7@ 7@ 7@ 7@ 7@ 7@ 7@ 7@ 7@ 7@ 7@ 7@ 7@ 7@ 7@ 7@ 7@ 7@ 7@ 7@ 7@ 7@ 7@ 7@ 7@ 7@ 7@ 7@ 7@ 7@ 7@ 7@  4F 4F 4F 4F 4F 4F 4F 4F 4F 4F 4F 4F 4F 4F 4F 4F 4F 4F 4F 4F 4F 4F 4F 4F 4F 4F 4F 4F 4F 4F 4F 4F 4F 4F 4F 4F 4F 4F 4F 4F 4F 4F 4F 4F 4F 4F 4F 4F 4F 4F 4F 4F 4F 4F 4F 4F 4F 4F 4F F 0F 0F 0F 0F 0F 0F 0F 0F 0F 0F 0F 0F 0F 0F 0F 0F 0F 0F 0F 0F 0F 0F 0F 0F 0F 0F 0F 0F 0F 0F 0F 0F 0F 0F 0F 0F 0F 0F 0F 0F 0F 0F 0F 0F 0F 0F 0F 0F 0F 0F 0F 0F 0F 0F 0F 0F 0F 0F 0F  4C 4C 4C 4C 4C 4C 4C 4C 4C 4C 4C 4C 4C 4C 4C 4C 4C 4C 4C 4C 4C 4C 4C 4C 4C 4C 4C 4C 4C 4C 4C 4C 4C 4C 4C 4C 4C 4C 4C 4C 4C 4C 4C 4C 4C 4C 4C 4C 4C 4C 4C 4C 4C 4C 4C 4C 4C 4C 4C C 7C 7C 7C 7C 7C 7C 7C 7C 7C 7C 7C 7C 7C 7C 7C 7C 7C 7C 7C 7C 7C 7C 7C 7C 7C 7C 7C 7C 7C 7C 7C 7C 7C 7C 7C 7C 7C 7C 7C 7C 7C 7C 7C 7C 7C 7C 7C 7C 7C 7C 7C 7C 7C 7C 7C 7C 7C 7C 7C  :L0 :L0 :L0 :L0 :L0 :L0 :L0 :L0 :L0 :L0 :L0 :L0 :L0 :L0 :L0 :L0 :L0 :L0 :L0 :L0 :L0 :L0 :L0 :L0 :L0 :L0 :L0 :L0 :L0 :L0 :L0 :L0 :L0 :L0 :L0 :L0 :L0 :L0 :L0 :L0 :L0 :L0 :L0 :L0 :L0 :L0 :L0 :L0 :L0 :L0 :L0 :L0 :L0 :L0 :L0 :L0 :L0 :L0 :L0 :0 :M0 :M0 :M0 :M0 :M0 :M0 :M0 :M0 :M0 :M0 :M0 :M0 :M0 :M0 :M0 :M0 :M0 :M0 :M0 :M0 :M0 :M0 :M0 :M0 :M0 :M0 :M0 :M0 :M0 :0 :O0 :O0 :O0 :O0 :O0 :O0 :O0 :O0 :O0 :O0 :O0 :O0 :O0 :O0 :O0 :O0 :O0 :O0 :O0 :O0 :O0 :O0 :O0 :O0 :O0 :O0 :O0 :O0 :O0 : :M2 :M2 :M2 :M2 :M2 :M2 :M2 :M2 :M2 :M2 :M2 :M2 :M2 :M2 :M2 :M2 :M2 :M2 :M2 :M2 :M2 :M2 :M2 :M2 :M2 :M2 :M2 :M2 :M2 :2 :L2 :L2 :L2 :L2 :L2 :L2 :L2 :L2 :L2 :L2 :L2 :L2 :L2 :L2 :L2 :L2 :L2 :L2 :L2 :L2 :L2 :L2 :L2 :L2 :L2 :L2 :L2 :L2 :L2 :L2 :L2 :L2 :L2 :L2 :L2 :L2 :L2 :L2 :L2 :L2 :L2 :L2 :L2 :L2 :L2 :L2 :L2 :L2 :L2 :L2 :L2 :L2 :L2 :L2 :L2 :L2 :L2 :L2 :L2 :2 :J2 :J2 :J2 :J2 :J2 :J2 :J2 :J2 :J2 :J2 :J2 :J2 :J2 :J2 :2 :H2 :H2 :H2 :H2 :H2 :H2 :H2 :H2 :H2 :H2 :H2 :H2 :H2 :H2  H4 H4 H4 H4 H4 H4 H4 H4 H4 H4 H4 H4 H4 H4 H4 H4 H4 H4 H4 H4 H4 H4 H4 H4 H4 H4 H4 H4 H4 H4 H4 H4 H4 H4 H4 H4 H4 H4 H4 H4 H4 H4 H4 H4 H4 H4 H4 H4 H4 H4 H4 H4 H4 H4 H4 H4 H4 H4 H4 H4 7H4 7H4 7H4 7H4 7H4 7H4 7H4 7H4 7H4 7H4 7H4 7H4 7H4 7H4 7H4 7H4 7H4 7H4 7H4 7H4 7H4 7H4 7H4 7H4 7H4 7H4 7H4 7H4 7H4 7H4 7H4 7H4 7H4 7H4 7H4 7H4 7H4 7H4 7H4 7H4 7H4 7H4 7H4 7H4 7H4 7H4 7H4 7H4 7H4 7H4 7H4 7H4 7H4 7H4 7H4 7H4 7H4 7H4 7H4 H :H2 :H2 :H2 :H2 :H2 :H2 :H2 :H2 :H2 :H2 :H2 :H2 :H2 :H2 :H2 :H2 :H2 :H2 :H2 :H2 :H2 :H2 :H2 :H2 :H2 :H2 :H2 :H2 :H2 :H2 :H2 :H2 :H2 :H2 :H2 :H2 :H2 :H2 :H2 :H2 :H2 :H2 :H2 :H2 :H2 :H2 :H2 :H2 :H2 :H2 :H2 :H2 :H2 :H2 :H2 :H2 :H2 :H2 :H2 H2 <H2 <H2 <H2 <H2 <H2 <H2 <H2 <H2 <H2 <H2 <H2 <H2 <H2 <H2 <H2 <H2 <H2 <H2 <H2 <H2 <H2 <H2 <H2 <H2 <H2 <H2 <H2 <H2 <H2 <H2 <H2 <H2 <H2 <H2 <H2 <H2 <H2 <H2 <H2 <H2 <H2 <H2 <H2 <H2 <H2 <H2 <H2 <H2 <H2 <H2 <H2 <H2 <H2 <H2 <H2 <H2 <H2 <H2 <H2  @F0 @F0 @F0 @F0 @F0 @F0 @F0 @F0 @F0 @F0 @F0 @F0 @F0 @F0 @0 @H0 @H0 @H0 @H0 @H0 @H0 @H0 @H0 @H0 @H0 @H0 @H0 @H0 @H0 @0 @F0 @F0 @F0 @F0 @F0 @F0 @F0 @F0 @F0 @F0 @F0 @F0 @F0 @F0 @F0 @F0 @F0 @F0 @F0 @F0 @F0 @F0 @F0 @F0 @F0 @F0 @F0 @F0 @F0 0 AE0 AE0 AE0 AE0 AE0 AE0 AE0 AE0 AE0 AE0 AE0 AE0 AE0 AE0 AE0 AE0 AE0 AE0 AE0 AE0 AE0 AE0 AE0 AE0 AE0 AE0 AE0 AE0 AE0 AE0 AE0 AE0 AE0 AE0 AE0 AE0 AE0 AE0 AE0 AE0 AE0 AE0 AE0 AE0 AE0 AE0 AE0 AE0 AE0 AE0 AE0 AE0 AE0 AE0 AE0 AE0 AE0 AE0 AE0 0 CF0 CF0 CF0 CF0 CF0 CF0 CF0 CF0 CF0 CF0 CF0 CF0 CF0 CF0 CF0 CF0 CF0 CF0 CF0 CF0 CF0 CF0 CF0 CF0 CF0 CF0 CF0 CF0 CF0 CF0 CF0 CF0 CF0 CF0 CF0 CF0 CF0 CF0 CF0 CF0 CF0 CF0 CF0 CF0 CF0 CF0 CF0 CF0 CF0 CF0 CF0 CF0 CF0 CF0 CF0 CF0 CF0 CF0 CF0 CF0 CF0 CF0 CF0 CF0 CF0 CF0 CF0 CF0 CF0 CF0 CF0 CF0 CF0 CF0 CF0 CF0 CF0 CF0 CF0 CF0 CF0 CF0 CF0 CF0 CF0 CF0 CF0 CF0 CF0 CF0 CF0 CF0 CF0 CF0 CF0 CF0 CF0 CF0 CF0 CF0 CF0 CF0 CF0 CF0 CF0 CF0 CF0 CF0 CF0 CF0 CF0 CF0 CF0 CF0 CF0 CF0 CF0 CF0 CF0 C CF5 CF5 CF5 CF5 CF5 CF5 CF5 CF5 CF5 CF5 CF5 CF5 CF5 CF5 CF5 CF5 CF5 CF5 CF5 CF5 CF5 CF5 CF5 CF5 CF5 CF5 CF5 CF5 CF5 CF5 CF5 CF5 CF5 CF5 CF5 CF5 CF5 CF5 CF5 CF5 CF5 CF5 CF5 CF5 CF5 CF5 CF5 CF5 CF5 CF5 CF5 CF5 CF5 CF5 CF5 CF5 CF5 CF5 CF5 5 AE5 AE5 AE5 AE5 AE5 AE5 AE5 AE5 AE5 AE5 AE5 AE5 AE5 AE5 AE5 AE5 AE5 AE5 AE5 AE5 AE5 AE5 AE5 AE5 AE5 AE5 AE5 AE5 AE5 E5 @E5 @E5 @E5 @E5 @E5 @E5 @E5 @E5 @E5 @E5 @E5 @E5 @E5 @E5 @E5 @E5 @E5 @E5 @E5 @E5 @E5 @E5 @E5 @E5 @E5 @E5 @E5 @E5 @E5 E5 AE5 AE5 AE5 AE5 AE5 AE5 AE5 AE5 AE5 AE5 AE5 AE5 AE5 AE5 AE5 AE5 AE5 AE5 AE5 AE5 AE5 AE5 AE5 AE5 AE5 AE5 AE5 AE5 AE5 E5 @E5 @E5 @E5 @E5 @E5 @E5 @E5 @E5 @E5 @E5 @E5 @E5 @E5 @E5 @E5 @E5 @E5 @E5 @E5 @E5 @E5 @E5 @E5 @E5 @E5 @E5 @E5 @E5 @E5 E5 >E5 >E5 >E5 >E5 >E5 >E5 >E5 >E5 >E5 >E5 >E5 >E5 >E5 >E5 >E5 >E5 >E5 >E5 >E5 >E5 >E5 >E5 >E5 >E5 >E5 >E5 >E5 >E5 >E5 >E5 >E5 >E5 >E5 >E5 >E5 >E5 >E5 >E5 >E5 >E5 >E5 >E5 >E5 >E5 >E5 >E5 >E5 >E5 >E5 >E5 >E5 >E5 >E5 >E5 >E5 >E5 >E5 >E5 >E5 E <E <E <E <E <E <E <E <E <E <E <E <E <E <E <E <E <E <E <E <E <E <E <E <E <E <E <E <E <E E AE AE AE AE AE AE AE AE AE AE AE AE AE AE AE AE AE AE AE AE AE AE AE AE AE AE AE AE AE E @E @E @E @E @E @E @E @E @E @E @E @E @E @E @E @E @E @E @E @E @E @E @E @E @E @E @E @E @E E >E >E >E >E >E >E >E >E >E >E >E >E >E >E >E >E >E >E >E >E >E >E >E >E >E >E >E >E >E E <F <F <F <F <F <F <F <F <F <F <F <F <F <F <F <F <F <F <F <F <F <F <F <F <F <F <F <F <F <F <F <F <F <F <F <F <F <F <F <F <F <F <F <F <F <F <F <F <F <F <F <F <F <F <F <F <F <F <F F :F :F :F :F :F :F :F :F :F :F :F :F :F :F :F :F :F :F :F :F :F :F :F :F :F :F :F :F :F :F :F :F :F :F :F :F :F :F :F :F :F :F :F :F :F :F :F :F :F :F :F :F :F :F :F :F :F :F :F  9F 9F 9F 9F 9F 9F 9F 9F 9F 9F 9F 9F 9F 9F 9F 9F 9F 9F 9F 9F 9F 9F 9F 9F 9F 9F 9F 9F 9F 9F 9F 9F 9F 9F 9F 9F 9F 9F 9F 9F 9F 9F 9F 9F 9F 9F 9F 9F 9F 9F 9F 9F 9F 9F 9F 9F 9F 9F 9F  5H 5H 5H 5H 5H 5H 5H 5H 5H 5H 5H 5H 5H 5H 5H 5H 5H 5H 5H 5H 5H 5H 5H 5H 5H 5H 5H 5H 5H 5H 5H 5H 5H 5H 5H 5H 5H 5H 5H 5H 5H 5H 5H 5H 5H 5H 5H 5H 5H 5H 5H 5H 5H 5H 5H 5H 5H 5H 5H H EH EH EH EH EH EH EH EH EH EH EH EH EH EH EH EH EH EH EH EH EH EH EH EH EH EH EH EH EH EH EH EH EH EH EH EH EH EH EH EH EH EH EH EH EH EH EH EH EH EH EH EH EH EH EH EH EH EH EH EH EH EH EH EH EH EH EH EH EH EH EH EH EH EH EH EH EH EH EH EH EH EH EH EH EH EH EH EH EH EH EH EH EH EH EH EH EH EH EH EH EH EH EH EH EH EH EH EH EH EH EH EH EH EH EH EH EH EH EH E E>. E>. E>. E>. E>. E>. E>. E>. E>. E>. E>. E>. E>. E>. E>. E>. E>. E>. E>. E>. E>. E>. E>. E>. E>. E>. E>. E>. E>. E>. E>. E>. E>. E>. E>. E>. E>. E>. E>. E>. E>. E>. E>. E>. E>. E>. E>. E>. E>. E>. E>. E>. E>. E>. E>. E>. E>. E>. E>. >. C>. C>. C>. C>. C>. C>. C>. C>. C>. C>. C>. C>. C>. C>. C>. C>. C>. C>. C>. C>. C>. C>. C>. C>. C>. C>. C>. C>. C>. >. A>. A>. A>. A>. A>. A>. A>. A>. A>. A>. A>. A>. A>. A>. A>. A>. A>. A>. A>. A>. A>. A>. A>. A>. A>. A>. A>. A>. A>. > C>- C>- C>- C>- C>- C>- C>- C>- C>- C>- C>- C>- C>- C>- C>- C>- C>- C>- C>- C>- C>- C>- C>- C>- C>- C>- C>- C>- C>- C>- C>- C>- C>- C>- C>- C>- C>- C>- C>- C>- C>- C>- C>- C>- C>- C>- C>- C>- C>- C>- C>- C>- C>- C>- C>- C>- C>- C>- C>- >- E>- E>- E>- E>- E>- E>- E>- E>- E>- E>- E>- E>- E>- E>- E>- E>- E>- E>- E>- E>- E>- E>- E>- E>- E>- E>- E>- E>- E>- E>- E>- E>- E>- E>- E>- E>- E>- E>- E>- E>- E>- E>- E>- E>- E>- E>- E>- E>- E>- E>- E>- E>- E>- E>- E>- E>- E>- E>- E>-  >C. >C. >C. >C. >C. >C. >C. >C. >C. >C. >C. >C. >C. >C. >C. >C. >C. >C. >C. >C. >C. >C. >C. >C. >C. >C. >C. >C. >C. >C. >C. >C. >C. >C. >C. >C. >C. >C. >C. >C. >C. >C. >C. >C. >C. >C. >C. >C. >C. >C. >C. >C. >C. >C. >C. >C. >C. >C. >C. >C. >C. >C. >C. >C. >C. >C. >C. >C. >C. >C. >C. >C. >C. >C. >C. >C. >C. >C. >C. >C. >C. >C. >C. >C. >C. >C. >C. >C. >C. >C. >C. >C. >C. >C. >C. >C. >C. >C. >C. >C. >C. >C. >C. >C. >C. >C. >C. >C. >C. >C. >C. >C. >C. >C. >C. >C. >C. >C. >C. > >F2 >F2 >F2 >F2 >F2 >F2 >F2 >F2 >F2 >F2 >F2 >F2 >F2 >F2 >F2 >F2 >F2 >F2 >F2 >F2 >F2 >F2 >F2 >F2 >F2 >F2 >F2 >F2 >F2 >F2 >F2 >F2 >F2 >F2 >F2 >F2 >F2 >F2 >F2 >F2 >F2 >F2 >F2 >F2 >F2 >F2 >F2 >F2 >F2 >F2 >F2 >F2 >F2 >F2 >F2 >F2 >F2 >F2 >F2 >2 >E2 >E2 >E2 >E2 >E2 >E2 >E2 >E2 >E2 >E2 >E2 >E2 >E2 >E2 >E2 >E2 >E2 >E2 >E2 >E2 >E2 >E2 >E2 >E2 >E2 >E2 >E2 >E2 >E2 >E2 >E2 >E2 >E2 >E2 >E2 >E2 >E2 >E2 >E2 >E2 >E2 >E2 >E2 >E2 >E2 >E2 >E2 >E2 >E2 >E2 >E2 >E2 >E2 >E2 >E2 >E2 >E2 >E2 >E2 > >F+ >F+ >F+ >F+ >F+ >F+ >F+ >F+ >F+ >F+ >F+ >F+ >F+ >F+ >F+ >F+ >F+ >F+ >F+ >F+ >F+ >F+ >F+ >F+ >F+ >F+ >F+ >F+ >F+ >F+ <F+ <F+ <F+ <F+ <F+ <F+ <F+ <F+ <F+ <F+ <F+ <F+ <F+ <F+ <F+ <F+ <F+ <F+ <F+ <F+ <F+ <F+ <F+ <F+ <F+ <F+ <F+ <F+ <F+ F+ :F+ :F+ :F+ :F+ :F+ :F+ :F+ :F+ :F+ :F+ :F+ :F+ :F+ :F+ :F+ :F+ :F+ :F+ :F+ :F+ :F+ :F+ :F+ :F+ :F+ :F+ :F+ :F+ :F+ F+ 9F+ 9F+ 9F+ 9F+ 9F+ 9F+ 9F+ 9F+ 9F+ 9F+ 9F+ 9F+ 9F+ 9F+ 9F+ 9F+ 9F+ 9F+ 9F+ 9F+ 9F+ 9F+ 9F+ 9F+ 9F+ 9F+ 9F+ 9F+ 9F+  :C7 :C7 :C7 :C7 :C7 :C7 :C7 :C7 :C7 :C7 :C7 :C7 :C7 :C7 :C7 :C7 :C7 :C7 :C7 :C7 :C7 :C7 :C7 :C7 :C7 :C7 :C7 :C7 :C7 :C7 :C7 :C7 :C7 :C7 :C7 :C7 :C7 :C7 :C7 :C7 :C7 :C7 :C7 :C7 :C7 :C7 :C7 :C7 :C7 :C7 :C7 :C7 :C7 :C7 :C7 :C7 :C7 :C7 :C7 :C7 :C7 :C7 :C7 :C7 :C7 :C7 :C7 :C7 :C7 :C7 :C7 :C7 :C7 :C7 :C7 :C7 :C7 :C7 :C7 :C7 :C7 :C7 :C7 :C7 :C7 :C7 :C7 :C7 :C7 :C7 :C7 :C7 :C7 :C7 :C7 :C7 :C7 :C7 :C7 :C7 :C7 :C7 :C7 :C7 :C7 :C7 :C7 :C7 :C7 :C7 :C7 :C7 :C7 :C7 :C7 :C7 :C7 :C7 :C7 : :A0 :A0 :A0 :A0 :A0 :A0 :A0 :A0 :A0 :A0 :A0 :A0 :A0 :A0 :A0 :A0 :A0 :A0 :A0 :A0 :A0 :A0 :A0 :A0 :A0 :A0 :A0 :A0 :A0 :0 :@0 :@0 :@0 :@0 :@0 :@0 :@0 :@0 :@0 :@0 :@0 :@0 :@0 :@0 :@0 :@0 :@0 :@0 :@0 :@0 :@0 :@0 :@0 :@0 :@0 :@0 :@0 :@0 :@0 @0 @@0 @@0 @@0 @@0 @@0 @@0 @@0 @@0 @@0 @@0 @@0 @@0 @@0 @@0 @@0 @@0 @@0 @@0 @@0 @@0 @@0 @@0 @@0 @@0 @@0 @@0 @@0 @@0 @@0 @0 A@0 A@0 A@0 A@0 A@0 A@0 A@0 A@0 A@0 A@0 A@0 A@0 A@0 A@0 A@0 A@0 A@0 A@0 A@0 A@0 A@0 A@0 A@0 A@0 A@0 A@0 A@0 A@0 A@0  C>4 C>4 C>4 C>4 C>4 C>4 C>4 C>4 C>4 C>4 C>4 C>4 C>4 C>4 C>4 C>4 C>4 C>4 C>4 C>4 C>4 C>4 C>4 C>4 C>4 C>4 C>4 C>4 C>4 C>4 C>4 C>4 C>4 C>4 C>4 C>4 C>4 C>4 C>4 C>4 C>4 C>4 C>4 C>4 C>4 C>4 C>4 C>4 C>4 C>4 C>4 C>4 C>4 C>4 C>4 C>4 C>4 C>4 C>4 C4 C<4 C<4 C<4 C<4 C<4 C<4 C<4 C<4 C<4 C<4 C<4 C<4 C<4 C<4 C<4 C<4 C<4 C<4 C<4 C<4 C<4 C<4 C<4 C<4 C<4 C<4 C<4 C<4 C<4 C<4 C<4 C<4 C<4 C<4 C<4 C<4 C<4 C<4 C<4 C<4 C<4 C<4 C<4 C<4 C<4 C<4 C<4 C<4 C<4 C<4 C<4 C<4 C<4 C<4 C<4 C<4 C<4 C<4 C<4 C CD5 CD5 CD5 CD5 CD5 CD5 CD5 CD5 CD5 CD5 CD5 CD5 CD5 CD5 CD5 CD5 CD5 CD5 CD5 CD5 CD5 CD5 CD5 CD5 CD5 CD5 CD5 CD5 CD5 CD5 CD5 CD5 CD5 CD5 CD5 CD5 CD5 CD5 CD5 CD5 CD5 CD5 CD5 CD5 CD5 CD5 CD5 CD5 CD5 CD5 CD5 CD5 CD5 CD5 CD5 CD5 CD5 CD5 CD5 D5 AD5 AD5 AD5 AD5 AD5 AD5 AD5 AD5 AD5 AD5 AD5 AD5 AD5 AD5 AD5 AD5 AD5 AD5 AD5 AD5 AD5 AD5 AD5 AD5 AD5 AD5 AD5 AD5 AD5 D5 @D5 @D5 @D5 @D5 @D5 @D5 @D5 @D5 @D5 @D5 @D5 @D5 @D5 @D5 @D5 @D5 @D5 @D5 @D5 @D5 @D5 @D5 @D5 @D5 @D5 @D5 @D5 @D5 @D5 D AD3 AD3 AD3 AD3 AD3 AD3 AD3 AD3 AD3 AD3 AD3 AD3 AD3 AD3 AD3 AD3 AD3 AD3 AD3 AD3 AD3 AD3 AD3 AD3 AD3 AD3 AD3 AD3 AD3 AD3 AD3 AD3 AD3 AD3 AD3 AD3 AD3 AD3 AD3 AD3 AD3 AD3 AD3 AD3 AD3 AD3 AD3 AD3 AD3 AD3 AD3 AD3 AD3 AD3 AD3 AD3 AD3 AD3 AD3 D3 DD3 DD3 DD3 DD3 DD3 DD3 DD3 DD3 DD3 DD3 DD3 DD3 DD3 DD3 DD3 DD3 DD3 DD3 DD3 DD3 DD3 DD3 DD3 DD3 DD3 DD3 DD3 DD3 DD3 DD3 DD3 DD3 DD3 DD3 DD3 DD3 DD3 DD3 DD3 DD3 DD3 DD3 DD3 DD3 DD3 DD3 DD3 DD3 DD3 DD3 DD3 DD3 DD3 DD3 DD3 DD3 DD3 DD3 DD3 D FD1 FD1 FD1 FD1 FD1 FD1 FD1 FD1 FD1 FD1 FD1 FD1 FD1 FD1 FD1 FD1 FD1 FD1 FD1 FD1 FD1 FD1 FD1 FD1 FD1 FD1 FD1 FD1 FD1 D1 CD1 CD1 CD1 CD1 CD1 CD1 CD1 CD1 CD1 CD1 CD1 CD1 CD1 CD1 CD1 CD1 CD1 CD1 CD1 CD1 CD1 CD1 CD1 CD1 CD1 CD1 CD1 CD1 CD1 D1 AD1 AD1 AD1 AD1 AD1 AD1 AD1 AD1 AD1 AD1 AD1 AD1 AD1 AD1 AD1 AD1 AD1 AD1 AD1 AD1 AD1 AD1 AD1 AD1 AD1 AD1 AD1 AD1 AD1 D1 @D1 @D1 @D1 @D1 @D1 @D1 @D1 @D1 @D1 @D1 @D1 @D1 @D1 @D1 @D1 @D1 @D1 @D1 @D1 @D1 @D1 @D1 @D1 @D1 @D1 @D1 @D1 @D1 @D1 D AD0 AD0 AD0 AD0 AD0 AD0 AD0 AD0 AD0 AD0 AD0 AD0 AD0 AD0 AD0 AD0 AD0 AD0 AD0 AD0 AD0 AD0 AD0 AD0 AD0 AD0 AD0 AD0 AD0 AD0 AD0 AD0 AD0 AD0 AD0 AD0 AD0 AD0 AD0 AD0 AD0 AD0 AD0 AD0 AD0 AD0 AD0 AD0 AD0 AD0 AD0 AD0 AD0 AD0 AD0 AD0 AD0 AD0 AD0 D0 ED0 ED0 ED0 ED0 ED0 ED0 ED0 ED0 ED0 ED0 ED0 ED0 ED0 ED0 ED0 ED0 ED0 ED0 ED0 ED0 ED0 ED0 ED0 ED0 ED0 ED0 ED0 ED0 ED0 ED0 ED0 ED0 ED0 ED0 ED0 ED0 ED0 ED0 ED0 ED0 ED0 ED0 ED0 ED0 ED0 ED0 ED0 ED0 ED0 ED0 ED0 ED0 ED0 ED0 ED0 ED0 ED0 ED0 ED0 D ID. ID. ID. ID. ID. ID. ID. ID. ID. ID. ID. ID. ID. ID. ID. ID. ID. ID. ID. ID. ID. ID. ID. ID. ID. ID. ID. ID. ID. ID. IC. IC. IC. IC. IC. IC. IC. IC. IC. IC. IC. IC. IC. IC. IC. IC. IC. IC. IC. IC. IC. IC. IC. IC. IC. IC. IC. IC. IC. I. IA. IA. IA. IA. IA. IA. IA. IA. IA. IA. IA. IA. IA. IA. IA. IA. IA. IA. IA. IA. IA. IA. IA. IA. IA. IA. IA. IA. IA. I. I@. I@. I@. I@. I@. I@. I@. I@. I@. I@. I@. I@. I@. I@. I@. I@. I@. I@. I@. I@. I@. I@. I@. I@. I@. I@. I@. I@. I@. I. IA. IA. IA. IA. IA. IA. IA. IA. IA. IA. IA. IA. IA. IA. IA. IA. IA. IA. IA. IA. IA. IA. IA. IA. IA. IA. IA. IA. IA. IA. IA. IA. IA. IA. IA. IA. IA. IA. IA. IA. IA. IA. IA. IA. IA. IA. IA. IA. IA. IA. IA. IA. IA. IA. IA. IA. IA. IA. IA. A. FA. FA. FA. FA. FA. FA. FA. FA. FA. FA. FA. FA. FA. FA. FA. FA. FA. FA. FA. FA. FA. FA. FA. FA. FA. FA. FA. FA. FA. F. FI. FI. FI. FI. FI. FI. FI. FI. FI. FI. FI. FI. FI. FI. F. FH. FH. FH. FH. FH. FH. FH. FH. FH. FH. FH. FH. FH. FH.  DA0 DA0 DA0 DA0 DA0 DA0 DA0 DA0 DA0 DA0 DA0 DA0 DA0 DA0 DA0 DA0 DA0 DA0 DA0 DA0 DA0 DA0 DA0 DA0 DA0 DA0 DA0 DA0 DA0 DA0 DA0 DA0 DA0 DA0 DA0 DA0 DA0 DA0 DA0 DA0 DA0 DA0 DA0 DA0 DA0 DA0 DA0 DA0 DA0 DA0 DA0 DA0 DA0 DA0 DA0 DA0 DA0 DA0 DA0 DA0 DA0 DA0 DA0 DA0 DA0 DA0 DA0 DA0 DA0 DA0 DA0 DA0 DA0 DA0 DA0 DA0 DA0 DA0 DA0 DA0 DA0 DA0 DA0 DA0 DA0 DA0 DA0 DA0 DA0 DA0 DA0 DA0 DA0 DA0 DA0 DA0 DA0 DA0 DA0 DA0 DA0 DA0 DA0 DA0 DA0 DA0 DA0 DA0 DA0 DA0 DA0 DA0 DA0 DA0 DA0 DA0 DA0 DA0 DA0 DA0 DA0 DA0 DA0 DA0 DA0 DA0 DA0 DA0 DA0 DA0 DA0 DA0 DA0 DA0 DA0 DA0 DA0 DA0 DA0 DA0 DA0 DA0 DA0 DA0 DA0 DA0 DA0 DA0 DA0 D0 D@0 D@0 D@0 D@0 D@0 D@0 D@0 D@0 D@0 D@0 D@0 D@0 D@0 D@0 D@0 D@0 D@0 D@0 D@0 D@0 D@0 D@0 D@0 D@0 D@0 D@0 D@0 D@0 D@0 D0 D>0 D>0 D>0 D>0 D>0 D>0 D>0 D>0 D>0 D>0 D>0 D>0 D>0 D>0 D>0 D>0 D>0 D>0 D>0 D>0 D>0 D>0 D>0 D>0 D>0 D>0 D>0 D>0 D>0 D0 D@0 D@0 D@0 D@0 D@0 D@0 D@0 D@0 D@0 D@0 D@0 D@0 D@0 D@0 D@0 D@0 D@0 D@0 D@0 D@0 D@0 D@0 D@0 D@0 D@0 D@0 D@0 D@0 D@0  CA$ CA$ CA$ CA$ CA$ CA$ CA$ CA$ CA$ CA$ CA$ CA$ CA$ CA$ CA$ DA$ DA$ DA$ DA$ DA$ D@$ D@$ D@$ D@$ D@$ D@$ D@$ D@$ D@$ D@$ C@$ C@$ C@$ C@$ C@$ C@$ C@$ C@$ C@$ C@$ CA$ CA$ CA$ CA$ CA$ CA$ CA$ CA$ CA$ CA$ CA$ CA$ CA$ CA$ CA$ CA$ CA$ CA$ CA$ CA$ A@$ A@$ A@$ A@$ A@$ A@$ A@$ A@$ A@$ A@$ A@$ A@$ A@$ A@$ A@$ AA$ AA$ AA$ AA$ AA$ AA$ AA$ AA$ AA$ AA$ AA$ AA$ AA$ AA$ AA$ A@$ A@$ A@$ A@$ A@$ A@$ A@$ A@$ A@$ A@$ A@$ A@$ A@$ A@$ A@$ AA$ AA$ AA$ AA$ AA$ AA$ AA$ AA$ AA$ AA$ AA$ AA$ AA$ AA$ A$ C@$ C@$ C@$ C@$ C@$ C@$ C@$ C@$ C@$ C$ CA$ CA$ CA$ CA$ CA$ CA$ CA$ CA$ CA$ C$ C@$ C@$ C@$ C@$ C@$ C@$ C@$ C@$ C@$ C$ CA$ CA$ CA$ CA$ CA$ CA$ CA$ CA@$ CA@$ C@$ C@$ C@$ C@$ C@$ C@$ C@$ C@$ C@$ C@$ C@$ C@$ C@$ C$ C$ C$ C$ C$ C$ C$ C$ CA$ CA$ CA$ CA$ CA$ CA$ CA$ CA$ CA$ CA$ CA$ CA$ CA$ CA$ CA$ CA$ CA$ CA$ CA$ CA$ CA$ CA$ CA$ CA$ CA$ CA$ CA$ CA$ CA$ CA$ CA$ CA$ CA$ CA$ CA$ CA$ CA$ CA$ CA$ CA$ CA$ CA$ CA$ CA$ CA$ CA$ CA$ CA$ CA$ CA$ CA$ CA$ CA$ CA$ CA$ CA$ CA$ CA$ CA$  AA) AA) AA) AA) AA) AA) AA) AA) AA) AA) AA) AA) AA) AA) AA) AA) AA) AA) AA) AA) AA) AA) AA) AA) AA) AA) AA) AA) AA) AA) AA) AA) AA) AA) AA) AA) AA) AA) AA) AA) AA) AA) AA) AA) AA) AA) AA) AA) AA) AA) AA) AA) AA) AA) AA) AA) AA) AA) AA) AA) AA) AA) AA) AA) AA) AA) AA) AA) AA) AA) AA) AA) AA) AA) AA) AA) AA) AA) AA) AA) AA) AA) AA) AA) AA) AA) AA) AA) AA) AA) AA) AA) AA) AA) AA) AA) AA) AA) AA) AA) AA) AA) AA) AA) AA) AA) AA) AA) AA) AA) AA) AA) AA) AA) AA) AA) AA) AA) AA) AA AA0 AA0 AA0 AA0 AA0 AA0 AA0 AA0 AA0 AA0 AA0 AA0 AA0 AA0 AA0 AA0 AA0 AA0 AA0 AA0 AA0 AA0 AA0 AA0 AA0 AA0 AA0 AA0 AA0 AA0 AA0 AA0 AA0 AA0 AA0 AA0 AA0 AA0 AA0 AA0 AA0 AA0 AA0 AA0 AA0 AA0 AA0 AA0 AA0 AA0 AA0 AA0 AA0 AA0 AA0 AA0 AA0 AA0 AA0 AA0 AA0 AA0 AA0 AA0 AA0 AA0 AA0 AA0 AA0 AA0 AA0 AA0 AA0 AA0 AA0 AA0 AA0 AA0 AA0 AA0 AA0 AA0 AA0 AA0 AA0 AA0 AA0 AA0 AA0 AA0 AA0 AA0 AA0 AA0 AA0 AA0 AA0 AA0 AA0 AA0 AA0 AA0 AA0 AA0 AA0 AA0 AA0 AA0 AA0 AA0 AA0 AA0 AA0 AA0 AA0 AA0 AA0 AA0 AA0 AA AA5 AA5 AA5 AA5 AA5 AA5 AA5 AA5 AA5 AA5 AA5 AA5 AA5 AA5 AA5 AA5 AA5 AA5 AA5 AA5 AA5 AA5 AA5 AA5 AA5 AA5 AA5 AA5 AA5 AA5 AA5 AA5 AA5 AA5 AA5 AA5 AA5 AA5 AA5 AA5 AA5 AA5 AA5 AA5 AA5 AA5 AA5 AA5 AA5 AA5 AA5 AA5 AA5 AA5 AA5 AA5 AA5 AA5 AA5 AA5 AA5 AA5 AA5 AA5 AA5 AA5 AA5 AA5 AA5 AA5 AA5 AA5 AA5 AA5 AA5 AA5 AA5 AA5 AA5 AA5 AA5 AA5 AA5 AA5 AA5 AA5 AA5 AA5 AA5 AA5 AA5 AA5 AA5 AA5 AA5 AA5 AA5 AA5 AA5 AA5 AA5 AA5 AA5 AA5 AA5 AA5 AA5 AA5 AA5 AA5 AA5 AA5 AA5 AA5 AA5 AA5 AA5 AA5 AA5 AA AA3 AA3 AA3 AA3 AA3 AA3 AA3 AA3 AA3 AA3 AA3 AA3 AA3 AA3 AA3 AA3 AA3 AA3 AA3 AA3 AA3 AA3 AA3 AA3 AA3 AA3 AA3 AA3 AA3 AA3 AA3 AA3 AA3 AA3 AA3 AA3 AA3 AA3 AA3 AA3 AA3 AA3 AA3 AA3 AA3 AA3 AA3 AA3 AA3 AA3 AA3 AA3 AA3 AA3 AA3 AA3 AA3 AA3 AA3 AA3 AA3 AA3 AA3 AA3 AA3 AA3 AA3 AA3 AA3 AA3 AA3 AA3 AA3 AA3 AA3 AA3 AA3 AA3 AA3 AA3 AA3 AA3 AA3 AA3 AA3 AA3 AA3 AA3 AA3 AA3 AA3 AA3 AA3 AA3 AA3 AA3 AA3 AA3 AA3 AA3 AA3 AA3 AA3 AA3 AA3 AA3 AA3 AA3 AA3 AA3 AA3 AA3 AA3 AA3 AA3 AA3 AA3 AA3 AA3 AA AA2 AA2 AA2 AA2 AA2 AA2 AA2 AA2 AA2 AA2 AA2 AA2 AA2 AA2 AA2 AA2 AA2 AA2 AA2 AA2 AA2 AA2 AA2 AA2 AA2 AA2 AA2 AA2 AA2 AA2 AA2 AA2 AA2 AA2 AA2 AA2 AA2 AA2 AA2 AA2 AA2 AA2 AA2 AA2 AA2 AA2 AA2 AA2 AA2 AA2 AA2 AA2 AA2 AA2 AA2 AA2 AA2 AA2 AA2 AA2 AA2 AA2 AA2 AA2 AA2 AA2 AA2 AA2 AA2 AA2 AA2 AA2 AA2 AA2 AA2 AA2 AA2 AA2 AA2 AA2 AA2 AA2 AA2 AA2 AA2 AA2 AA2 AA2 AA2 AA2 AA2 AA2 AA2 AA2 AA2 AA2 AA2 AA2 AA2 AA2 AA2 AA2 AA2 AA2 AA2 AA2 AA2 AA2 AA2 AA2 AA2 AA2 AA2 AA2 AA2 AA2 AA2 AA2 AA2 AA AA0 AA0 AA0 AA0 AA0 AA0 AA0 AA0 AA0 AA0 AA0 AA0 AA0 AA0 AA0 AA0 AA0 AA0 AA0 AA0 AA0 AA0 AA0 AA0 AA0 AA0 AA0 AA0 AA0 AA0 AA0 AA0 AA0 AA0 AA0 AA0 AA0 AA0 AA0 AA0 AA0 AA0 AA0 AA0 AA0 AA0 AA0 AA0 AA0 AA0 AA0 AA0 AA0 AA0 AA0 AA0 AA0 AA0 AA0 AA0 AA0 AA0 AA0 AA0 AA0 AA0 AA0 AA0 AA0 AA0 AA0 AA0 AA0 AA0 AA0 AA0 AA0 AA0 AA0 AA0 AA0 AA0 AA0 AA0 AA0 AA0 AA0 AA0 AA0 AA0 AA0 AA0 AA0 AA0 AA0 AA0 AA0 AA0 AA0 AA0 AA0 AA0 AA0 AA0 AA0 AA0 AA0 AA0 AA0 AA0 AA0 AA0 AA0 AA0 AA0 AA0 AA0 AA0 AA0  A. A. A. A. A. A. A. A. A. A. A. A. A. A. A. A. A. A. A. A. A. A. A. A. A. A. A. A. A. A. A. A. A. A. A. A. A. A. A. A. A. A. A. A. A. A. A. A. A. A. A. A. A. A. A. A. A. A. A. A. A. A. A. A. A. A. A. A. A. A. A. A. A. A. A. A. A. A. A. A. A. A. A. A. A. A. A. A. A. A. A. A. A. A. A. A. A. A. A. A. A. A. A. A. A. A. A. A. A. A. A. A. A. A. A. A. A. A. A. A A0 A0 A0 A0 A0 A0 A0 A0 A0 A0 A0 A0 A0 A0 A0 A0 A0 A0 A0 A0 A0 A0 A0 A0 A0 A0 A0 A0 A0 A0 A0 A0 A0 A0 A0 A0 A0 A0 A0 A0 A0 A0 A0 A0 A0 A0 A0 A0 A0 A0 A0 A0 A0 A0 A0 A0 A0 A0 A0 A0 A0 A0 A0 A0 A0 A0 A0 A0 A0 A0 A0 A0 A0 A0 A0 A0 A0 A0 A0 A0 A0 A0 A0 A0 A0 A0 A0 A0 A0 A0 A0 A0 A0 A0 A0 A0 A0 A0 A0 A0 A0 A0 A0 A0 A0 A0 A0 A0 A0 A0 A0 A0 A0 A0 A0 A0 A0 A0 A0 A AF2 AF2 AF2 AF2 AF2 AF2 AF2 AF2 AF2 AF2 AF2 AF2 AF2 AF2 AF2 AF2 AF2 AF2 AF2 AF2 AF2 AF2 AF2 AF2 AF2 AF2 AF2 AF2 AF2 AF2 AF2 AF2 AF2 AF2 AF2 AF2 AF2 AF2 AF2 AF2 AF2 AF2 AF2 AF2 AF2 AF2 AF2 AF2 AF2 AF2 AF2 AF2 AF2 AF2 AF2 AF2 AF2 AF2 AF2 AF2 AF2 AF2 AF2 AF2 AF2 AF2 AF2 AF2 AF2 AF2 AF2 AF2 AF2 AF2 AF2 AF2 AF2 AF2 AF2 AF2 AF2 AF2 AF2 AF2 AF2 AF2 AF2 AF2 AF2 AF2 AF2 AF2 AF2 AF2 AF2 AF2 AF2 AF2 AF2 AF2 AF2 AF2 AF2 AF2 AF2 AF2 AF2 AF2 AF2 AF2 AF2 AF2 AF2 AF2 AF2 AF2 AF2 AF2 AF2 AF AF0 AF0 AF0 AF0 AF0 AF0 AF0 AF0 AF0 AF0 AF0 AF0 AF0 AF0 AF0 AF0 AF0 AF0 AF0 AF0 AF0 AF0 AF0 AF0 AF0 AF0 AF0 AF0 AF0 AF0 AF0 AF0 AF0 AF0 AF0 AF0 AF0 AF0 AF0 AF0 AF0 AF0 AF0 AF0 AF0 AF0 AF0 AF0 AF0 AF0 AF0 AF0 AF0 AF0 AF0 AF0 AF0 AF0 AF0 AF0 AF0 AF0 AF0 AF0 AF0 AF0 AF0 AF0 AF0 AF0 AF0 AF0 AF0 AF0 AF0 AF0 AF0 AF0 AF0 AF0 AF0 AF0 AF0 AF0 AF0 AF0 AF0 AF0 AF0 AF0 AF0 AF0 AF0 AF0 AF0 AF0 AF0 AF0 AF0 AF0 AF0 AF0 AF0 AF0 AF0 AF0 AF0 AF0 AF0 AF0 AF0 AF0 AF0 AF0 AF0 AF0 AF0 AF0 AF0 A AH. AH. AH. AH. AH. AH. AH. AH. AH. AH. AH. AH. AH. AH. AH. AF. AF. AF. AF. AF. AF. AF. AF. AF. AF. AF. AF. AF. AF. AF. AH. AH. AH. AH. AH. AH. AH. AH. AH. AH. AH. AH. AH. AH. AH. AH. AH. AH. AH. AH. AH. AH. AH. AH. AH. AH. AH. AH. AH. AH. AH. AH. AH. AH. AH. AH. AH. AH. AH. AH. AH. AH. AH. AH. AH. AH. AH. AH. AH. AH. AH. AH. AH. AH. AH. AH. AH. AH. AH. AH. AH. AH. AH. AH. AH. AH. AH. AH. AH. AH. AH. AH. AH. AH. AH. AH. AH. AH. AH. AH. AH. AH. AH. AH. AH. AH. AH. AH. AH. AH. AJ. AJ. AJ. AJ. AJ. AJ. AJ. AJ. AJ. AJ. AJ. AJ. AJ. AJ. AJ. AJ. AJ. AJ. AJ. AJ. AJ. AJ. AJ. AJ. AJ. AJ. AJ. AJ. AJ. AJ. AJ. AJ. AJ. AJ. AJ. AJ. AJ. AJ. AJ. AJ. AJ. AJ. AJ. AJ. AJ. AJ. AJ. AJ. AJ. AJ. AJ. AJ. AJ. AJ. AJ. AJ. AJ. AJ. AJ. AJ. AJ. AJ. AJ. AJ. AJ. AJ. AJ. AJ. AJ. AJ. AJ. AJ. AJ. AJ. AJ. AJ. AJ. AJ. AJ. AJ. AJ. AJ. AJ. AJ. AJ. AJ. AJ. AJ. AJ. AJ. AJ. AJ. AJ. AJ. AJ. AJ. AJ. AJ. AJ. AJ. AJ. AJ. AJ. AJ. AJ. AJ. AJ. AJ. AJ. AJ. AJ. AJ. AJ. AJ. AJ. AJ. AJ. AJ. AJ. A AF0 AF0 AF0 AF0 AF0 AF0 AF0 AF0 AF0 AF0 AF0 AF0 AF0 AF0 AF0 AF0 AF0 AF0 AF0 AF0 AF0 AF0 AF0 AF0 AF0 AF0 AF0 AF0 AF0 AF0 CF0 CF0 CF0 CF0 CF0 CF0 CF0 CF0 CF0 CF0 CF0 CF0 CF0 CF0 CF0 CF0 CF0 CF0 CF0 CF0 CF0 CF0 CF0 CF0 CF0 CF0 CF0 CF0 CF0 0 AE0 AE0 AE0 AE0 AE0 AE0 AE0 AE0 AE0 AE0 AE0 AE0 AE0 AE0 AE0 AE0 AE0 AE0 AE0 AE0 AE0 AE0 AE0 AE0 AE0 AE0 AE0 AE0 AE0 E0 ?E0 ?E0 ?E0 ?E0 ?E0 ?E0 ?E0 ?E0 ?E0 ?E0 ?E0 ?E0 ?E0 ?E0 ?E0 ?E0 ?E0 ?E0 ?E0 ?E0 ?E0 ?E0 ?E0 ?E0 ?E0 ?E0 ?E0 ?E0 ?E0 E0 AE0 AE0 AE0 AE0 AE0 AE0 AE0 AE0 AE0 AE0 AE0 AE0 AE0 AE0 AE0 AE0 AE0 AE0 AE0 AE0 AE0 AE0 AE0 AE0 AE0 AE0 AE0 AE0 AE0 AE0 AE0 AE0 AE0 AE0 AE0 AE0 AE0 AE0 AE0 AE0 AE0 AE0 AE0 AE0 AE0 AE0 AE0 AE0 AE0 AE0 AE0 AE0 AE0 AE0 AE0 AE0 AE0 AE0 AE0 AE0 AE0 AE0 AE0 AE0 AE0 AE0 AE0 AE0 AE0 AE0 AE0 AE0 AE0 AE0 AE0 AE0 AE0 AE0 AE0 AE0 AE0 AE0 AE0 AE0 AE0 AE0 AE0 AE0 AE0 E0 CE0 CE0 CE0 CE0 CE0 CE0 CE0 CE0 CE0 CE0 CE0 CE0 CE0 CE0 CE0 CE0 CE0 CE0 CE0 CE0 CE0 CE0 CE0 CE0 CE0 CE0 CE0 CE0 CE0  9K 9K 9K 9K 9K 9K 9K 9K 9K 9K 9K 9K 9K 9K 9K 9K 9K 9K 9K 9K 9K 9K 9K 9K 9K 9K 9K 9K 9K K 7K 7K 7K 7K 7K 7K 7K 7K 7K 7K 7K 7K 7K 7K 7K 7K 7K 7K 7K 7K 7K 7K 7K 7K 7K 7K 7K 7K 7K K 5K 5K 5K 5K 5K 5K 5K 5K 5K 5K 5K 5K 5K 5K 5K 5K 5K 5K 5K 5K 5K 5K 5K 5K 5K 5K 5K 5K 5K 5K 5K 5K 5K 5K 5K 5K 5K 5K 5K 5K 5K 5K 5K 5K 5K 5K 5K 5K 5K 5K 5K 5K 5K 5K 5K 5K 5K 5K 5K K <K <K <K <K <K <K <K <K <K <K <K <K <K <K <K <K <K <K <K <K <K <K <K <K <K <K <K <K <K K :K :K :K :K :K :K :K :K :K :K :K :K :K :K :K :K :K :K :K :K :K :K :K :K :K :K :K :K :K K 9K 9K 9K 9K 9K 9K 9K 9K 9K 9K 9K 9K 9K 9K 9K 9K 9K 9K 9K 9K 9K 9K 9K 9K 9K 9K 9K 9K 9K 9K 9K 9K 9K 9K 9K 9K 9K 9K 9K 9K 9K 9K 9K 9K 9K 9K 9K 9K 9K 9K 9K 9K 9K 9K 9K 9K 9K 9K 9K  ?J ?J ?J ?J ?J ?J ?J ?J ?J ?J ?J ?J ?J ?J ?J ?J ?J ?J ?J ?J ?J ?J ?J ?J ?J ?J ?J ?J ?J ?J ?J ?J ?J ?J ?J ?J ?J ?J ?J ?J ?J ?J ?J ?J ?J ?J ?J ?J ?J ?J ?J ?J ?J ?J ?J ?J ?J ?J ?J ? ?H ?H ?H ?H ?H ?H ?H ?H ?H ?H ?H ?H ?H ?H ?H ?H ?H ?H ?H ?H ?H ?H ?H ?H ?H ?H ?H ?H ?H ?H ?H ?H ?H ?H ?H ?H ?H ?H ?H ?H ?H ?H ?H ?H ?H ?H ?H ?H ?H ?H ?H ?H ?H ?H ?H ?H ?H ?H ?H ?H ?H ?H ?H ?H ?H ?H ?H ?H ?H ?H ?H ?H ?H ?H ?H ?H ?H ?H ?H ?H ?H ?H ?H ?H ?H ?H ?H ?H ?H ?H ?H ?H ?H ?H ?H ?H ?H ?H ?H ?H ?H ?H ?H ?H ?H ?H ?H ?H ?H ?H ?H ?H ?H ?H ?H ?H ?H ?H ?H ?H ?H ?H ?H ?H ?H ?H ?H ?H ?H ?H ?H ?H ?H ?H ?H ?H ?H ?H ?H ?H ?H ?H ?H ?H ?H ?H ?H ?H ?H ?H ?H ?H ?H ?H ?H ?H ?H ?H ?H ?H ?H ?H ?H ?H ?H ?H ?H ?H ?H ?H ?H ?H ?H ?H ?H ?H ?H ?H ?H ? ?F) ?F) ?F) ?F) ?F) ?F) ?F) ?F) ?F) ?F) ?F) ?F) ?F) ?F) ?F) ?F) ?F) ?F) ?F) ?F) ?F) ?F) ?F) ?F) ?F) ?F) ?F) ?F) ?F) ?F) ?F) ?F) ?F) ?F) ?F) ?F) ?F) ?F) ?F) ?F) ?F) ?F) ?F) ?F) ?F) ?F) ?F) ?F) ?F) ?F) ?F) ?F) ?F) ?F) ?F) ?F) ?F) ?F) ?F) ?) ?E) ?E) ?E) ?E) ?E) ?E) ?E) ?E) ?E) ?E) ?E) ?E) ?E) ?E) ?E) ?E) ?E) ?E) ?E) ?E) ?E) ?E) ?E) ?E) ?E) ?E) ?E) ?E) ?E) ?E) ?E) ?E) ?E) ?E) ?E) ?E) ?E) ?E) ?E) ?E) ?E) ?E) ?E) ?E) ?E) ?E) ?E) ?E) ?E) ?E) ?E) ?E) ?E) ?E) ?E) ?E) ?E) ?E) ?E) ? ?C+ ?C+ ?C+ ?C+ ?C+ ?C+ ?C+ ?C+ ?C+ ?C+ ?C+ ?C+ ?C+ ?C+ ?C+ ?C+ ?C+ ?C+ ?C+ ?C+ ?C+ ?C+ ?C+ ?C+ ?C+ ?C+ ?C+ ?C+ ?C+ ?C+ ?C+ ?C+ ?C+ ?C+ ?C+ ?C+ ?C+ ?C+ ?C+ ?C+ ?C+ ?C+ ?C+ ?C+ ?C+ ?C+ ?C+ ?C+ ?C+ ?C+ ?C+ ?C+ ?C+ ?C+ ?C+ ?C+ ?C+ ?C+ ?C+ ?+ ?A+ ?A+ ?A+ ?A+ ?A+ ?A+ ?A+ ?A+ ?A+ ?A+ ?A+ ?A+ ?A+ ?A+ ?A+ ?A+ ?A+ ?A+ ?A+ ?A+ ?A+ ?A+ ?A+ ?A+ ?A+ ?A+ ?A+ ?A+ ?A+ ?A+ ?A+ ?A+ ?A+ ?A+ ?A+ ?A+ ?A+ ?A+ ?A+ ?A+ ?A+ ?A+ ?A+ ?A+ ?A+ ?A+ ?A+ ?A+ ?A+ ?A+ ?A+ ?A+ ?A+ ?A+ ?A+ ?A+ ?A+ ?A+ ?A+ ? ?A- ?A- ?A- ?A- ?A- ?A- ?A- ?A- ?A- ?A- ?A- ?A- ?A- ?A- ?A- ?A- ?A- ?A- ?A- ?A- ?A- ?A- ?A- ?A- ?A- ?A- ?A- ?A- ?A- ?A- ?A- ?A- ?A- ?A- ?A- ?A- ?A- ?A- ?A- ?A- ?A- ?A- ?A- ?A- ?A- ?A- ?A- ?A- ?A- ?A- ?A- ?A- ?A- ?A- ?A- ?A- ?A- ?A- ?A- ?A- <A- <A- <A- <A- <A- <A- <A- <A- <A- <A- <A- <A- <A- <A- <A- <A- <A- <A- <A- <A- <A- <A- <A- <A- <A- <A- <A- <A- <A- <A- <A- <A- <A- <A- <A- <A- <A- <A- <A- <A- <A- <A- <A- <A- <A- <A- <A- <A- <A- <A- <A- <A- <A- <A- <A- <A- <A- <A- <A- A ?A+ ?A+ ?A+ ?A+ ?A+ ?A+ ?A+ ?A+ ?A+ ?A+ ?A+ ?A+ ?A+ ?A+ ?A+ ?A+ ?A+ ?A+ ?A+ ?A+ ?A+ ?A+ ?A+ ?A+ ?A+ ?A+ ?A+ ?A+ ?A+ ?A+ ?A+ ?A+ ?A+ ?A+ ?A+ ?A+ ?A+ ?A+ ?A+ ?A+ ?A+ ?A+ ?A+ ?A+ ?A+ ?A+ ?A+ ?A+ ?A+ ?A+ ?A+ ?A+ ?A+ ?A+ ?A+ ?A+ ?A+ ?A+ ?A+ A+ AA+ AA+ AA+ AA+ AA+ AA+ AA+ AA+ AA+ AA+ AA+ AA+ AA+ AA+ AA+ AA+ AA+ AA+ AA+ AA+ AA+ AA+ AA+ AA+ AA+ AA+ AA+ AA+ AA+ AA+ AA+ AA+ AA+ AA+ AA+ AA+ AA+ AA+ AA+ AA+ AA+ AA+ AA+ AA+ AA+ AA+ AA+ AA+ AA+ AA+ AA+ AA+ AA+ AA+ AA+ AA+ AA+ AA+ AA+  E?) E?) E?) E?) E?) E?) E?) E?) E?) E?) E?) E?) E?) E?) E?) EA) EA) EA) EA) EA) EA) EA) EA) EA) EA) EA) EA) EA) EA) EA) E?) E?) E?) E?) E?) E?) E?) E?) E?) E?) E?) E?) E?) E?) E?) E?) E?) E?) E?) E?) E?) E?) E?) E?) E?) E?) E?) E?) E?) ?) F>) F>) F>) F>) F>) F>) F>) F>) F>) F>) F>) F>) F>) F>) F>) F>) F>) F>) F>) F>) F>) F>) F>) F>) F>) F>) F>) F>) F>) F>) F>) F>) F>) F>) F>) F>) F>) F>) F>) F>) F>) F>) F>) F>) F>) F>) F>) F>) F>) F>) F>) F>) F>) F>) F>) F>) F>) F>) F>) ) H?) H?) H?) H?) H?) H?) H?) H?) H?) H?) H?) H?) H?) H?) H?) H?) H?) H?) H?) H?) H?) H?) H?) H?) H?) H?) H?) H?) H?) H?) H?) H?) H?) H?) H?) H?) H?) H?) H?) H?) H?) H?) H?) H?) H?) H?) H?) H?) H?) H?) H?) H?) H?) H?) H?) H?) H?) H?) H?) H?) H?) H?) H?) H?) H?) H?) H?) H?) H?) H?) H?) H?) H?) H?) H?) H?) H?) H?) H?) H?) H?) H?) H?) H?) H?) H?) H?) H?) H?) H?) H?) H?) H?) H?) H?) H?) H?) H?) H?) H?) H?) H?) H?) H?) H?) H?) H?) H?) H?) H?) H?) H?) H?) H?) H?) H?) H?) H?) H?) H H>. H>. H>. H>. H>. H>. H>. H>. H>. H>. H>. H>. H>. H>. H>. H>. H>. H>. H>. H>. H>. H>. H>. H>. H>. H>. H>. H>. H>. H>. H>. H>. H>. H>. H>. H>. H>. H>. H>. H>. H>. H>. H>. H>. H>. H>. H>. H>. H>. H>. H>. H>. H>. H>. H>. H>. H>. H>. H>. >. F>. F>. F>. F>. F>. F>. F>. F>. F>. F>. F>. F>. F>. F>. F>. F>. F>. F>. F>. F>. F>. F>. F>. F>. F>. F>. F>. F>. F>. >. E>. E>. E>. E>. E>. E>. E>. E>. E>. E>. E>. E>. E>. E>. E>. E>. E>. E>. E>. E>. E>. E>. E>. E>. E>. E>. E>. E>. E>. >. F>. F>. F>. F>. F>. F>. F>. F>. F>. F>. F>. F>. F>. F>. F>. F>. F>. F>. F>. F>. F>. F>. F>. F>. F>. F>. F>. F>. F>. >. E>. E>. E>. E>. E>. E>. E>. E>. E>. E>. E>. E>. E>. E>. E>. E>. E>. E>. E>. E>. E>. E>. E>. E>. E>. E>. E>. E>. E>. >. C>. C>. C>. C>. C>. C>. C>. C>. C>. C>. C>. C>. C>. C>. C>. C>. C>. C>. C>. C>. C>. C>. C>. C>. C>. C>. C>. C>. C>. C>. C>. C>. C>. C>. C>. C>. C>. C>. C>. C>. C>. C>. C>. C>. C>. C>. C>. C>. C>. C>. C>. C>. C>. C>. C>. C>. C>. C>. C>. > C> C> C> C> C> C> C> C> C> C> C> C> C> C> C> C> C> C> C> C> C> C> C> C> C> C> C> C> C> > A> A> A> A> A> A> A> A> A> A> A> A> A> A> A> A> A> A> A> A> A> A> A> A> A> A> A> A> A> A> A> A> A> A> A> A> A> A> A> A> A> A> A> A> A> A> A> A> A> A> A> A> A> A> A> A> A> A> A> A> A> A> A> A> A> A> A> A> A> A> A> A> A> A> A> A> A> A> A> A> A> A> A> A> A> A> A> A> A> A A< A< A< A< A< A< A< A< A< A< A< A< A< A< A< A< A< A< A< A< A< A< A< A< A< A< A< A< A< A< A< A< A< A< A< A< A< A< A< A< A< A< A< A< A< A< A< A< A< A< A< A< A< A< A< A< A< A< A< A< A< A< A< A< A< A< A< A< A< A< A< A< A< A< A< A< A< A< A< A< A< A< A< A< A< A< A< A< A< A< A< A< A< A< A< A< A< A< A< A< A< A< A< A< A< A< A< A< A< A< A< A< A< A< A< A< A< A< A< A A: A: A: A: A: A: A: A: A: A: A: A: A: A: A: A: A: A: A: A: A: A: A: A: A: A: A: A: A: : C: C: C: C: C: C: C: C: C: C: C: C: C: C: C: C: C: C: C: C: C: C: C: C: C: C: C: C: C: : E: E: E: E: E: E: E: E: E: E: E: E: E: E: E: E: E: E: E: E: E: E: E: E: E: E: E: E: E: : F: F: F: F: F: F: F: F: F: F: F: F: F: F: F: F: F: F: F: F: F: F: F: F: F: F: F: F: F: : H: H: H: H: H: H: H: H: H: H: H: H: H: H: H: H: H: H: H: H: H: H: H: H: H: H: H: H: H: : J: J: J: J: J: J: J: J: J: J: J: J: J: J: J: J: J: J: J: J: J: J: J: J: J: J: J: J: J: : E: E: E: E: E: E: E: E: E: E: E: E: E: E: E: E: E: E: E: E: E: E: E: E: E: E: E: E: E: E: E: E: E: E: E: E: E: E: E: E: E: E: E: E: E: E: E: E: E: E: E: E: E: E: E: E: E: E: E:  FJ. FJ. FJ. FJ. FJ. FJ. FJ. FJ. FJ. FJ. FJ. FJ. FJ. FJ. FJ. FJ. FJ. FJ. FJ. FJ. FJ. FJ. FJ. FJ. FJ. FJ. FJ. FJ. FJ. FJ. FJ. FJ. FJ. FJ. FJ. FJ. FJ. FJ. FJ. FJ. FJ. FJ. FJ. FJ. FJ. FJ. FJ. FJ. FJ. FJ. FJ. FJ. FJ. FJ. FJ. FJ. FJ. FJ. FJ. FJ. FJ. FJ. FJ. FJ. FJ. FJ. FJ. FJ. FJ. FJ. FJ. FJ. FJ. FJ. FJ. FJ. FJ. FJ. FJ. FJ. FJ. FJ. FJ. FJ. FJ. FJ. FJ. FJ. FJ. FJ. FJ. FJ. FJ. FJ. FJ. FJ. FJ. FJ. FJ. FJ. FJ. FJ. FJ. FJ. FJ. FJ. FJ. FJ. FJ. FJ. FJ. FJ. FJ. FJ. FJ. FJ. FJ. FJ. FJ. FJ FJ- FJ- FJ- FJ- FJ- FJ- FJ- FJ- FJ- FJ- FJ- FJ- FJ- FJ- FJ- FJ- FJ- FJ- FJ- FJ- FJ- FJ- FJ- FJ- FJ- FJ- FJ- FJ- FJ- FJ- FJ- FJ- FJ- FJ- FJ- FJ- FJ- FJ- FJ- FJ- FJ- FJ- FJ- FJ- FJ- FJ- FJ- FJ- FJ- FJ- FJ- FJ- FJ- FJ- FJ- FJ- FJ- FJ- FJ- FJ- FJ- FJ- FJ- FJ- FJ- FJ- FJ- FJ- FJ- FJ- FJ- FJ- FJ- FJ- FJ- FJ- FJ- FJ- FJ- FJ- FJ- FJ- FJ- FJ- FJ- FJ- FJ- FJ- FJ- FJ- FJ- FJ- FJ- FJ- FJ- FJ- FJ- FJ- FJ- FJ- FJ- FJ- FJ- FJ- FJ- FJ- FJ- FJ- FJ- FJ- FJ- FJ- FJ- FJ- FJ- FJ- FJ- FJ- FJ- F FH+ FH+ FH+ FH+ FH+ FH+ FH+ FH+ FH+ FH+ FH+ FH+ FH+ FH+ FH+ FH+ FH+ FH+ FH+ FH+ FH+ FH+ FH+ FH+ FH+ FH+ FH+ FH+ FH+ FH+ FH+ FH+ FH+ FH+ FH+ FH+ FH+ FH+ FH+ FH+ FH+ FH+ FH+ FH+ FH+ FH+ FH+ FH+ FH+ FH+ FH+ FH+ FH+ FH+ FH+ FH+ FH+ FH+ FH+ F+ FF+ FF+ FF+ FF+ FF+ FF+ FF+ FF+ FF+ FF+ FF+ FF+ FF+ FF+ FF+ FF+ FF+ FF+ FF+ FF+ FF+ FF+ FF+ FF+ FF+ FF+ FF+ FF+ FF+ FF+ FF+ FF+ FF+ FF+ FF+ FF+ FF+ FF+ FF+ FF+ FF+ FF+ FF+ FF+ FF+ FF+ FF+ FF+ FF+ FF+ FF+ FF+ FF+ FF+ FF+ FF+ FF+ FF+ FF+ FF FF- FF- FF- FF- FF- FF- FF- FF- FF- FF- FF- FF- FF- FF- FF- FF- FF- FF- FF- FF- FF- FF- FF- FF- FF- FF- FF- FF- FF- FF- FF- FF- FF- FF- FF- FF- FF- FF- FF- FF- FF- FF- FF- FF- FF- FF- FF- FF- FF- FF- FF- FF- FF- FF- FF- FF- FF- FF- FF- FF- FF- FF- FF- FF- FF- FF- FF- FF- FF- FF- FF- FF- FF- FF- FF- FF- FF- FF- FF- FF- FF- FF- FF- FF- FF- FF- FF- FF- FF- FF- FF- FF- FF- FF- FF- FF- FF- FF- FF- FF- FF- FF- FF- FF- FF- FF- FF- FF- FF- FF- FF- FF- FF- FF- FF- FF- FF- FF- FF- F FE. FE. FE. FE. FE. FE. FE. FE. FE. FE. FE. FE. FE. FE. FE. FE. FE. FE. FE. FE. FE. FE. FE. FE. FE. FE. FE. FE. FE. FE. FE. FE. FE. FE. FE. FE. FE. FE. FE. FE. FE. FE. FE. FE. FE. FE. FE. FE. FE. FE. FE. FE. FE. FE. FE. FE. FE. FE. FE. F. FC. FC. FC. FC. FC. FC. FC. FC. FC. FC. FC. FC. FC. FC. FC. FC. FC. FC. FC. FC. FC. FC. FC. FC. FC. FC. FC. FC. FC. FC. FC. FC. FC. FC. FC. FC. FC. FC. FC. FC. FC. FC. FC. FC. FC. FC. FC. FC. FC. FC. FC. FC. FC. FC. FC. FC. FC. FC. FC. FC. FC. FC. FC. FC. FC. FC. FC. FC. FC. FC. FC. FC. FC. FC. FC. FC. FC. FC. FC. FC. FC. FC. FC. FC. FC. FC. FC. FC. FC. FC. FC. FC. FC. FC. FC. FC. FC. FC. FC. FC. FC. FC. FC. FC. FC. FC. FC. FC. FC. FC. FC. FC. FC. FC. FC. FC. FC. FC. FC. FC. FC. FC. FC. FC. FC. FC. FC. FC. FC. FC. FC. FC. FC. FC. FC. FC. FC. FC. FC. FC. FC. FC. FC. FC. FC. FC. FC. FC. FC. FC. FC. FC. FC. FC. FC. FC. FC. FC. FC. FC. FC. FC. FC. FC. FC. FC. FC. FC. FC. FC. FC. FC. FC. FC. FC. FC. FC. FC. FC. F FA0 FA0 FA0 FA0 FA0 FA0 FA0 FA0 FA0 FA0 FA0 FA0 FA0 FA0 FA0 FA0 FA0 FA0 FA0 FA0 FA0 FA0 FA0 FA0 FA0 FA0 FA0 FA0 FA0 FA0 FA0 FA0 FA0 FA0 FA0 FA0 FA0 FA0 FA0 FA0 FA0 FA0 FA0 FA0 FA0 FA0 FA0 FA0 FA0 FA0 FA0 FA0 FA0 FA0 FA0 FA0 FA0 FA0 FA0 F0 C@0 C@0 C@0 C@0 C@0 C@0 C@0 C@0 C@0 C@0 C@0 C@0 C@0 C@0 C@0 C@0 C@0 C@0 C@0 C@0 C@0 C@0 C@0 C@0 C@0 C@0 C@0 C@0 C@0 C@0 C@0 C@0 C@0 C@0 C@0 C@0 C@0 C@0 C@0 C@0 C@0 C@0 C@0 C@0 C@0 C@0 C@0 C@0 C@0 C@0 C@0 C@0 C@0 C@0 C@0 C@0 C@0 C@0 C@0 0 @<0 @<0 @<0 @<0 @<0 @<0 @<0 @<0 @<0 @<0 @<0 @<0 @<0 @<0 @<0 @<0 @<0 @<0 @<0 @<0 @<0 @<0 @<0 @<0 @<0 @<0 @<0 @<0 @<0 @<0 @<0 @<0 @<0 @<0 @<0 @<0 @<0 @<0 @<0 @<0 @<0 @<0 @<0 @<0 @<0 @<0 @<0 @<0 @<0 @<0 @<0 @<0 @<0 @<0 @<0 @<0 @<0 @<0 @<0 <0 <<0 <<0 <<0 <<0 <<0 <<0 <<0 <<0 <<0 <<0 <<0 <<0 <<0 <<0 <<0 <<0 <<0 <<0 <<0 <<0 <<0 <<0 <<0 <<0 <<0 <<0 <<0 <<0 <<0 <<0 <<0 <<0 <<0 <<0 <<0 <<0 <<0 <<0 <<0 <<0 <<0 <<0 <<0 <<0 <<0 <<0 <<0 <<0 <<0 <<0 <<0 <<0 <<0 <<0 <<0 <<0 <<0 <<0 <<0  :C :C :C :C :C :C :C :C :C :C :C :C :C :C :C :C :C :C :C :C :C :C :C :C :C :C :C :C :C :C :C :C :C :C :C :C :C :C :C :C :C :C :C :C :C :C :C :C :C :C :C :C :C :C :C :C :C :C :C C 9C 9C 9C 9C 9C 9C 9C 9C 9C 9C 9C 9C 9C 9C 9C 9C 9C 9C 9C 9C 9C 9C 9C 9C 9C 9C 9C 9C 9C 9C 9C 9C 9C 9C 9C 9C 9C 9C 9C 9C 9C 9C 9C 9C 9C 9C 9C 9C 9C 9C 9C 9C 9C 9C 9C 9C 9C 9C 9C  :@ :@ :@ :@ :@ :@ :@ :@ :@ :@ :@ :@ :@ :@ :@ :@ :@ :@ :@ :@ :@ :@ :@ :@ :@ :@ :@ :@ :@ :@ :@ :@ :@ :@ :@ :@ :@ :@ :@ :@ :@ :@ :@ :@ :@ :@ :@ :@ :@ :@ :@ :@ :@ :@ :@ :@ :@ :@ :@ @ 7@ 7@ 7@ 7@ 7@ 7@ 7@ 7@ 7@ 7@ 7@ 7@ 7@ 7@ 7@ 7@ 7@ 7@ 7@ 7@ 7@ 7@ 7@ 7@ 7@ 7@ 7@ 7@ 7@ 7@ 7@ 7@ 7@ 7@ 7@ 7@ 7@ 7@ 7@ 7@ 7@ 7@ 7@ 7@ 7@ 7@ 7@ 7@ 7@ 7@ 7@ 7@ 7@ 7@ 7@ 7@ 7@ 7@ 7@  4F 4F 4F 4F 4F 4F 4F 4F 4F 4F 4F 4F 4F 4F 4F 4F 4F 4F 4F 4F 4F 4F 4F 4F 4F 4F 4F 4F 4F 4F 4F 4F 4F 4F 4F 4F 4F 4F 4F 4F 4F 4F 4F 4F 4F 4F 4F 4F 4F 4F 4F 4F 4F 4F 4F 4F 4F 4F 4F F 0F 0F 0F 0F 0F 0F 0F 0F 0F 0F 0F 0F 0F 0F 0F 0F 0F 0F 0F 0F 0F 0F 0F 0F 0F 0F 0F 0F 0F 0F 0F 0F 0F 0F 0F 0F 0F 0F 0F 0F 0F 0F 0F 0F 0F 0F 0F 0F 0F 0F 0F 0F 0F 0F 0F 0F 0F 0F 0F  4C 4C 4C 4C 4C 4C 4C 4C 4C 4C 4C 4C 4C 4C 4C 4C 4C 4C 4C 4C 4C 4C 4C 4C 4C 4C 4C 4C 4C 4C 4C 4C 4C 4C 4C 4C 4C 4C 4C 4C 4C 4C 4C 4C 4C 4C 4C 4C 4C 4C 4C 4C 4C 4C 4C 4C 4C 4C 4C C 7C 7C 7C 7C 7C 7C 7C 7C 7C 7C 7C 7C 7C 7C 7C 7C 7C 7C 7C 7C 7C 7C 7C 7C 7C 7C 7C 7C 7C 7C 7C 7C 7C 7C 7C 7C 7C 7C 7C 7C 7C 7C 7C 7C 7C 7C 7C 7C 7C 7C 7C 7C 7C 7C 7C 7C 7C 7C 7C  :L0 :L0 :L0 :L0 :L0 :L0 :L0 :L0 :L0 :L0 :L0 :L0 :L0 :L0 :L0 :L0 :L0 :L0 :L0 :L0 :L0 :L0 :L0 :L0 :L0 :L0 :L0 :L0 :L0 :L0 :L0 :L0 :L0 :L0 :L0 :L0 :L0 :L0 :L0 :L0 :L0 :L0 :L0 :L0 :L0 :L0 :L0 :L0 :L0 :L0 :L0 :L0 :L0 :L0 :L0 :L0 :L0 :L0 :L0 :0 :M0 :M0 :M0 :M0 :M0 :M0 :M0 :M0 :M0 :M0 :M0 :M0 :M0 :M0 :M0 :M0 :M0 :M0 :M0 :M0 :M0 :M0 :M0 :M0 :M0 :M0 :M0 :M0 :M0 :0 :O0 :O0 :O0 :O0 :O0 :O0 :O0 :O0 :O0 :O0 :O0 :O0 :O0 :O0 :O0 :O0 :O0 :O0 :O0 :O0 :O0 :O0 :O0 :O0 :O0 :O0 :O0 :O0 :O0 : :M2 :M2 :M2 :M2 :M2 :M2 :M2 :M2 :M2 :M2 :M2 :M2 :M2 :M2 :M2 :M2 :M2 :M2 :M2 :M2 :M2 :M2 :M2 :M2 :M2 :M2 :M2 :M2 :M2 :2 :L2 :L2 :L2 :L2 :L2 :L2 :L2 :L2 :L2 :L2 :L2 :L2 :L2 :L2 :L2 :L2 :L2 :L2 :L2 :L2 :L2 :L2 :L2 :L2 :L2 :L2 :L2 :L2 :L2 :L2 :L2 :L2 :L2 :L2 :L2 :L2 :L2 :L2 :L2 :L2 :L2 :L2 :L2 :L2 :L2 :L2 :L2 :L2 :L2 :L2 :L2 :L2 :L2 :L2 :L2 :L2 :L2 :L2 :L2 :2 :J2 :J2 :J2 :J2 :J2 :J2 :J2 :J2 :J2 :J2 :J2 :J2 :J2 :J2 :2 :H2 :H2 :H2 :H2 :H2 :H2 :H2 :H2 :H2 :H2 :H2 :H2 :H2 :H2  H4 H4 H4 H4 H4 H4 H4 H4 H4 H4 H4 H4 H4 H4 H4 H4 H4 H4 H4 H4 H4 H4 H4 H4 H4 H4 H4 H4 H4 H4 H4 H4 H4 H4 H4 H4 H4 H4 H4 H4 H4 H4 H4 H4 H4 H4 H4 H4 H4 H4 H4 H4 H4 H4 H4 H4 H4 H4 H4 H4 7H4 7H4 7H4 7H4 7H4 7H4 7H4 7H4 7H4 7H4 7H4 7H4 7H4 7H4 7H4 7H4 7H4 7H4 7H4 7H4 7H4 7H4 7H4 7H4 7H4 7H4 7H4 7H4 7H4 7H4 7H4 7H4 7H4 7H4 7H4 7H4 7H4 7H4 7H4 7H4 7H4 7H4 7H4 7H4 7H4 7H4 7H4 7H4 7H4 7H4 7H4 7H4 7H4 7H4 7H4 7H4 7H4 7H4 7H4 H :H2 :H2 :H2 :H2 :H2 :H2 :H2 :H2 :H2 :H2 :H2 :H2 :H2 :H2 :H2 :H2 :H2 :H2 :H2 :H2 :H2 :H2 :H2 :H2 :H2 :H2 :H2 :H2 :H2 :H2 :H2 :H2 :H2 :H2 :H2 :H2 :H2 :H2 :H2 :H2 :H2 :H2 :H2 :H2 :H2 :H2 :H2 :H2 :H2 :H2 :H2 :H2 :H2 :H2 :H2 :H2 :H2 :H2 :H2 H2 <H2 <H2 <H2 <H2 <H2 <H2 <H2 <H2 <H2 <H2 <H2 <H2 <H2 <H2 <H2 <H2 <H2 <H2 <H2 <H2 <H2 <H2 <H2 <H2 <H2 <H2 <H2 <H2 <H2 <H2 <H2 <H2 <H2 <H2 <H2 <H2 <H2 <H2 <H2 <H2 <H2 <H2 <H2 <H2 <H2 <H2 <H2 <H2 <H2 <H2 <H2 <H2 <H2 <H2 <H2 <H2 <H2 <H2 <H2  @F0 @F0 @F0 @F0 @F0 @F0 @F0 @F0 @F0 @F0 @F0 @F0 @F0 @F0 @0 @H0 @H0 @H0 @H0 @H0 @H0 @H0 @H0 @H0 @H0 @H0 @H0 @H0 @H0 @0 @F0 @F0 @F0 @F0 @F0 @F0 @F0 @F0 @F0 @F0 @F0 @F0 @F0 @F0 @F0 @F0 @F0 @F0 @F0 @F0 @F0 @F0 @F0 @F0 @F0 @F0 @F0 @F0 @F0 0 AE0 AE0 AE0 AE0 AE0 AE0 AE0 AE0 AE0 AE0 AE0 AE0 AE0 AE0 AE0 AE0 AE0 AE0 AE0 AE0 AE0 AE0 AE0 AE0 AE0 AE0 AE0 AE0 AE0 AE0 AE0 AE0 AE0 AE0 AE0 AE0 AE0 AE0 AE0 AE0 AE0 AE0 AE0 AE0 AE0 AE0 AE0 AE0 AE0 AE0 AE0 AE0 AE0 AE0 AE0 AE0 AE0 AE0 AE0 0 CF0 CF0 CF0 CF0 CF0 CF0 CF0 CF0 CF0 CF0 CF0 CF0 CF0 CF0 CF0 CF0 CF0 CF0 CF0 CF0 CF0 CF0 CF0 CF0 CF0 CF0 CF0 CF0 CF0 CF0 CF0 CF0 CF0 CF0 CF0 CF0 CF0 CF0 CF0 CF0 CF0 CF0 CF0 CF0 CF0 CF0 CF0 CF0 CF0 CF0 CF0 CF0 CF0 CF0 CF0 CF0 CF0 CF0 CF0 CF0 CF0 CF0 CF0 CF0 CF0 CF0 CF0 CF0 CF0 CF0 CF0 CF0 CF0 CF0 CF0 CF0 CF0 CF0 CF0 CF0 CF0 CF0 CF0 CF0 CF0 CF0 CF0 CF0 CF0 CF0 CF0 CF0 CF0 CF0 CF0 CF0 CF0 CF0 CF0 CF0 CF0 CF0 CF0 CF0 CF0 CF0 CF0 CF0 CF0 CF0 CF0 CF0 CF0 CF0 CF0 CF0 CF0 CF0 CF0 C CF5 CF5 CF5 CF5 CF5 CF5 CF5 CF5 CF5 CF5 CF5 CF5 CF5 CF5 CF5 CF5 CF5 CF5 CF5 CF5 CF5 CF5 CF5 CF5 CF5 CF5 CF5 CF5 CF5 CF5 CF5 CF5 CF5 CF5 CF5 CF5 CF5 CF5 CF5 CF5 CF5 CF5 CF5 CF5 CF5 CF5 CF5 CF5 CF5 CF5 CF5 CF5 CF5 CF5 CF5 CF5 CF5 CF5 CF5 5 AE5 AE5 AE5 AE5 AE5 AE5 AE5 AE5 AE5 AE5 AE5 AE5 AE5 AE5 AE5 AE5 AE5 AE5 AE5 AE5 AE5 AE5 AE5 AE5 AE5 AE5 AE5 AE5 AE5 E5 @E5 @E5 @E5 @E5 @E5 @E5 @E5 @E5 @E5 @E5 @E5 @E5 @E5 @E5 @E5 @E5 @E5 @E5 @E5 @E5 @E5 @E5 @E5 @E5 @E5 @E5 @E5 @E5 @E5 E5 AE5 AE5 AE5 AE5 AE5 AE5 AE5 AE5 AE5 AE5 AE5 AE5 AE5 AE5 AE5 AE5 AE5 AE5 AE5 AE5 AE5 AE5 AE5 AE5 AE5 AE5 AE5 AE5 AE5 E5 @E5 @E5 @E5 @E5 @E5 @E5 @E5 @E5 @E5 @E5 @E5 @E5 @E5 @E5 @E5 @E5 @E5 @E5 @E5 @E5 @E5 @E5 @E5 @E5 @E5 @E5 @E5 @E5 @E5 E5 >E5 >E5 >E5 >E5 >E5 >E5 >E5 >E5 >E5 >E5 >E5 >E5 >E5 >E5 >E5 >E5 >E5 >E5 >E5 >E5 >E5 >E5 >E5 >E5 >E5 >E5 >E5 >E5 >E5 >E5 >E5 >E5 >E5 >E5 >E5 >E5 >E5 >E5 >E5 >E5 >E5 >E5 >E5 >E5 >E5 >E5 >E5 >E5 >E5 >E5 >E5 >E5 >E5 >E5 >E5 >E5 >E5 >E5 >E5 E <E <E <E <E <E <E <E <E <E <E <E <E <E <E <E <E <E <E <E <E <E <E <E <E <E <E <E <E <E E AE AE AE AE AE AE AE AE AE AE AE AE AE AE AE AE AE AE AE AE AE AE AE AE AE AE AE AE AE E @E @E @E @E @E @E @E @E @E @E @E @E @E @E @E @E @E @E @E @E @E @E @E @E @E @E @E @E @E E >E >E >E >E >E >E >E >E >E >E >E >E >E >E >E >E >E >E >E >E >E >E >E >E >E >E >E >E >E E <F <F <F <F <F <F <F <F <F <F <F <F <F <F <F <F <F <F <F <F <F <F <F <F <F <F <F <F <F <F <F <F <F <F <F <F <F <F <F <F <F <F <F <F <F <F <F <F <F <F <F <F <F <F <F <F <F <F <F F :F :F :F :F :F :F :F :F :F :F :F :F :F :F :F :F :F :F :F :F :F :F :F :F :F :F :F :F :F :F :F :F :F :F :F :F :F :F :F :F :F :F :F :F :F :F :F :F :F :F :F :F :F :F :F :F :F :F :F  9F 9F 9F 9F 9F 9F 9F 9F 9F 9F 9F 9F 9F 9F 9F 9F 9F 9F 9F 9F 9F 9F 9F 9F 9F 9F 9F 9F 9F 9F 9F 9F 9F 9F 9F 9F 9F 9F 9F 9F 9F 9F 9F 9F 9F 9F 9F 9F 9F 9F 9F 9F 9F 9F 9F 9F 9F 9F 9F  5H 5H 5H 5H 5H 5H 5H 5H 5H 5H 5H 5H 5H 5H 5H 5H 5H 5H 5H 5H 5H 5H 5H 5H 5H 5H 5H 5H 5H 5H 5H 5H 5H 5H 5H 5H 5H 5H 5H 5H 5H 5H 5H 5H 5H 5H 5H 5H 5H 5H 5H 5H 5H 5H 5H 5H 5H 5H 5H H EH EH EH EH EH EH EH EH EH EH EH EH EH EH EH EH EH EH EH EH EH EH EH EH EH EH EH EH EH EH EH EH EH EH EH EH EH EH EH EH EH EH EH EH EH EH EH EH EH EH EH EH EH EH EH EH EH EH EH EH EH EH EH EH EH EH EH EH EH EH EH EH EH EH EH EH EH EH EH EH EH EH EH EH EH EH EH EH EH EH EH EH EH EH EH EH EH EH EH EH EH EH EH EH EH EH EH EH EH EH EH EH EH EH EH EH EH EH EH E E>. E>. E>. E>. E>. E>. E>. E>. E>. E>. E>. E>. E>. E>. E>. E>. E>. E>. E>. E>. E>. E>. E>. E>. E>. E>. E>. E>. E>. E>. E>. E>. E>. E>. E>. E>. E>. E>. E>. E>. E>. E>. E>. E>. E>. E>. E>. E>. E>. E>. E>. E>. E>. E>. E>. E>. E>. E>. E>. >. C>. C>. C>. C>. C>. C>. C>. C>. C>. C>. C>. C>. C>. C>. C>. C>. C>. C>. C>. C>. C>. C>. C>. C>. C>. C>. C>. C>. C>. >. A>. A>. A>. A>. A>. A>. A>. A>. A>. A>. A>. A>. A>. A>. A>. A>. A>. A>. A>. A>. A>. A>. A>. A>. A>. A>. A>. A>. A>. > C>- C>- C>- C>- C>- C>- C>- C>- C>- C>- C>- C>- C>- C>- C>- C>- C>- C>- C>- C>- C>- C>- C>- C>- C>- C>- C>- C>- C>- C>- C>- C>- C>- C>- C>- C>- C>- C>- C>- C>- C>- C>- C>- C>- C>- C>- C>- C>- C>- C>- C>- C>- C>- C>- C>- C>- C>- C>- C>- >- E>- E>- E>- E>- E>- E>- E>- E>- E>- E>- E>- E>- E>- E>- E>- E>- E>- E>- E>- E>- E>- E>- E>- E>- E>- E>- E>- E>- E>- E>- E>- E>- E>- E>- E>- E>- E>- E>- E>- E>- E>- E>- E>- E>- E>- E>- E>- E>- E>- E>- E>- E>- E>- E>- E>- E>- E>- E>- E>-  >C. >C. >C. >C. >C. >C. >C. >C. >C. >C. >C. >C. >C. >C. >C. >C. >C. >C. >C. >C. >C. >C. >C. >C. >C. >C. >C. >C. >C. >C. >C. >C. >C. >C. >C. >C. >C. >C. >C. >C. >C. >C. >C. >C. >C. >C. >C. >C. >C. >C. >C. >C. >C. >C. >C. >C. >C. >C. >C. >C. >C. >C. >C. >C. >C. >C. >C. >C. >C. >C. >C. >C. >C. >C. >C. >C. >C. >C. >C. >C. >C. >C. >C. >C. >C. >C. >C. >C. >C. >C. >C. >C. >C. >C. >C. >C. >C. >C. >C. >C. >C. >C. >C. >C. >C. >C. >C. >C. >C. >C. >C. >C. >C. >C. >C. >C. >C. >C. >C. > >F2 >F2 >F2 >F2 >F2 >F2 >F2 >F2 >F2 >F2 >F2 >F2 >F2 >F2 >F2 >F2 >F2 >F2 >F2 >F2 >F2 >F2 >F2 >F2 >F2 >F2 >F2 >F2 >F2 >F2 >F2 >F2 >F2 >F2 >F2 >F2 >F2 >F2 >F2 >F2 >F2 >F2 >F2 >F2 >F2 >F2 >F2 >F2 >F2 >F2 >F2 >F2 >F2 >F2 >F2 >F2 >F2 >F2 >F2 >2 >E2 >E2 >E2 >E2 >E2 >E2 >E2 >E2 >E2 >E2 >E2 >E2 >E2 >E2 >E2 >E2 >E2 >E2 >E2 >E2 >E2 >E2 >E2 >E2 >E2 >E2 >E2 >E2 >E2 >E2 >E2 >E2 >E2 >E2 >E2 >E2 >E2 >E2 >E2 >E2 >E2 >E2 >E2 >E2 >E2 >E2 >E2 >E2 >E2 >E2 >E2 >E2 >E2 >E2 >E2 >E2 >E2 >E2 >E2 > >F+ >F+ >F+ >F+ >F+ >F+ >F+ >F+ >F+ >F+ >F+ >F+ >F+ >F+ >F+ >F+ >F+ >F+ >F+ >F+ >F+ >F+ >F+ >F+ >F+ >F+ >F+ >F+ >F+ >F+ <F+ <F+ <F+ <F+ <F+ <F+ <F+ <F+ <F+ <F+ <F+ <F+ <F+ <F+ <F+ <F+ <F+ <F+ <F+ <F+ <F+ <F+ <F+ <F+ <F+ <F+ <F+ <F+ <F+ F+ :F+ :F+ :F+ :F+ :F+ :F+ :F+ :F+ :F+ :F+ :F+ :F+ :F+ :F+ :F+ :F+ :F+ :F+ :F+ :F+ :F+ :F+ :F+ :F+ :F+ :F+ :F+ :F+ :F+ F+ 9F+ 9F+ 9F+ 9F+ 9F+ 9F+ 9F+ 9F+ 9F+ 9F+ 9F+ 9F+ 9F+ 9F+ 9F+ 9F+ 9F+ 9F+ 9F+ 9F+ 9F+ 9F+ 9F+ 9F+ 9F+ 9F+ 9F+ 9F+ 9F+  :C7 :C7 :C7 :C7 :C7 :C7 :C7 :C7 :C7 :C7 :C7 :C7 :C7 :C7 :C7 :C7 :C7 :C7 :C7 :C7 :C7 :C7 :C7 :C7 :C7 :C7 :C7 :C7 :C7 :C7 :C7 :C7 :C7 :C7 :C7 :C7 :C7 :C7 :C7 :C7 :C7 :C7 :C7 :C7 :C7 :C7 :C7 :C7 :C7 :C7 :C7 :C7 :C7 :C7 :C7 :C7 :C7 :C7 :C7 :C7 :C7 :C7 :C7 :C7 :C7 :C7 :C7 :C7 :C7 :C7 :C7 :C7 :C7 :C7 :C7 :C7 :C7 :C7 :C7 :C7 :C7 :C7 :C7 :C7 :C7 :C7 :C7 :C7 :C7 :C7 :C7 :C7 :C7 :C7 :C7 :C7 :C7 :C7 :C7 :C7 :C7 :C7 :C7 :C7 :C7 :C7 :C7 :C7 :C7 :C7 :C7 :C7 :C7 :C7 :C7 :C7 :C7 :C7 :C7 : :A0 :A0 :A0 :A0 :A0 :A0 :A0 :A0 :A0 :A0 :A0 :A0 :A0 :A0 :A0 :A0 :A0 :A0 :A0 :A0 :A0 :A0 :A0 :A0 :A0 :A0 :A0 :A0 :A0 :0 :@0 :@0 :@0 :@0 :@0 :@0 :@0 :@0 :@0 :@0 :@0 :@0 :@0 :@0 :@0 :@0 :@0 :@0 :@0 :@0 :@0 :@0 :@0 :@0 :@0 :@0 :@0 :@0 :@0 @0 @@0 @@0 @@0 @@0 @@0 @@0 @@0 @@0 @@0 @@0 @@0 @@0 @@0 @@0 @@0 @@0 @@0 @@0 @@0 @@0 @@0 @@0 @@0 @@0 @@0 @@0 @@0 @@0 @@0 @0 A@0 A@0 A@0 A@0 A@0 A@0 A@0 A@0 A@0 A@0 A@0 A@0 A@0 A@0 A@0 A@0 A@0 A@0 A@0 A@0 A@0 A@0 A@0 A@0 A@0 A@0 A@0 A@0 A@0  C>4 C>4 C>4 C>4 C>4 C>4 C>4 C>4 C>4 C>4 C>4 C>4 C>4 C>4 C>4 C>4 C>4 C>4 C>4 C>4 C>4 C>4 C>4 C>4 C>4 C>4 C>4 C>4 C>4 C>4 C>4 C>4 C>4 C>4 C>4 C>4 C>4 C>4 C>4 C>4 C>4 C>4 C>4 C>4 C>4 C>4 C>4 C>4 C>4 C>4 C>4 C>4 C>4 C>4 C>4 C>4 C>4 C>4 C>4 C4 C<4 C<4 C<4 C<4 C<4 C<4 C<4 C<4 C<4 C<4 C<4 C<4 C<4 C<4 C<4 C<4 C<4 C<4 C<4 C<4 C<4 C<4 C<4 C<4 C<4 C<4 C<4 C<4 C<4 C<4 C<4 C<4 C<4 C<4 C<4 C<4 C<4 C<4 C<4 C<4 C<4 C<4 C<4 C<4 C<4 C<4 C<4 C<4 C<4 C<4 C<4 C<4 C<4 C<4 C<4 C<4 C<4 C<4 C<4 C CD5 CD5 CD5 CD5 CD5 CD5 CD5 CD5 CD5 CD5 CD5 CD5 CD5 CD5 CD5 CD5 CD5 CD5 CD5 CD5 CD5 CD5 CD5 CD5 CD5 CD5 CD5 CD5 CD5 CD5 CD5 CD5 CD5 CD5 CD5 CD5 CD5 CD5 CD5 CD5 CD5 CD5 CD5 CD5 CD5 CD5 CD5 CD5 CD5 CD5 CD5 CD5 CD5 CD5 CD5 CD5 CD5 CD5 CD5 D5 AD5 AD5 AD5 AD5 AD5 AD5 AD5 AD5 AD5 AD5 AD5 AD5 AD5 AD5 AD5 AD5 AD5 AD5 AD5 AD5 AD5 AD5 AD5 AD5 AD5 AD5 AD5 AD5 AD5 D5 @D5 @D5 @D5 @D5 @D5 @D5 @D5 @D5 @D5 @D5 @D5 @D5 @D5 @D5 @D5 @D5 @D5 @D5 @D5 @D5 @D5 @D5 @D5 @D5 @D5 @D5 @D5 @D5 @D5 D AD3 AD3 AD3 AD3 AD3 AD3 AD3 AD3 AD3 AD3 AD3 AD3 AD3 AD3 AD3 AD3 AD3 AD3 AD3 AD3 AD3 AD3 AD3 AD3 AD3 AD3 AD3 AD3 AD3 AD3 AD3 AD3 AD3 AD3 AD3 AD3 AD3 AD3 AD3 AD3 AD3 AD3 AD3 AD3 AD3 AD3 AD3 AD3 AD3 AD3 AD3 AD3 AD3 AD3 AD3 AD3 AD3 AD3 AD3 D3 DD3 DD3 DD3 DD3 DD3 DD3 DD3 DD3 DD3 DD3 DD3 DD3 DD3 DD3 DD3 DD3 DD3 DD3 DD3 DD3 DD3 DD3 DD3 DD3 DD3 DD3 DD3 DD3 DD3 DD3 DD3 DD3 DD3 DD3 DD3 DD3 DD3 DD3 DD3 DD3 DD3 DD3 DD3 DD3 DD3 DD3 DD3 DD3 DD3 DD3 DD3 DD3 DD3 DD3 DD3 DD3 DD3 DD3 DD3 D FD1 FD1 FD1 FD1 FD1 FD1 FD1 FD1 FD1 FD1 FD1 FD1 FD1 FD1 FD1 FD1 FD1 FD1 FD1 FD1 FD1 FD1 FD1 FD1 FD1 FD1 FD1 FD1 FD1 D1 CD1 CD1 CD1 CD1 CD1 CD1 CD1 CD1 CD1 CD1 CD1 CD1 CD1 CD1 CD1 CD1 CD1 CD1 CD1 CD1 CD1 CD1 CD1 CD1 CD1 CD1 CD1 CD1 CD1 D1 AD1 AD1 AD1 AD1 AD1 AD1 AD1 AD1 AD1 AD1 AD1 AD1 AD1 AD1 AD1 AD1 AD1 AD1 AD1 AD1 AD1 AD1 AD1 AD1 AD1 AD1 AD1 AD1 AD1 D1 @D1 @D1 @D1 @D1 @D1 @D1 @D1 @D1 @D1 @D1 @D1 @D1 @D1 @D1 @D1 @D1 @D1 @D1 @D1 @D1 @D1 @D1 @D1 @D1 @D1 @D1 @D1 @D1 @D1 D AD0 AD0 AD0 AD0 AD0 AD0 AD0 AD0 AD0 AD0 AD0 AD0 AD0 AD0 AD0 AD0 AD0 AD0 AD0 AD0 AD0 AD0 AD0 AD0 AD0 AD0 AD0 AD0 AD0 AD0 AD0 AD0 AD0 AD0 AD0 AD0 AD0 AD0 AD0 AD0 AD0 AD0 AD0 AD0 AD0 AD0 AD0 AD0 AD0 AD0 AD0 AD0 AD0 AD0 AD0 AD0 AD0 AD0 AD0 D0 ED0 ED0 ED0 ED0 ED0 ED0 ED0 ED0 ED0 ED0 ED0 ED0 ED0 ED0 ED0 ED0 ED0 ED0 ED0 ED0 ED0 ED0 ED0 ED0 ED0 ED0 ED0 ED0 ED0 ED0 ED0 ED0 ED0 ED0 ED0 ED0 ED0 ED0 ED0 ED0 ED0 ED0 ED0 ED0 ED0 ED0 ED0 ED0 ED0 ED0 ED0 ED0 ED0 ED0 ED0 ED0 ED0 ED0 ED0 D ID. ID. ID. ID. ID. ID. ID. ID. ID. ID. ID. ID. ID. ID. ID. ID. ID. ID. ID. ID. ID. ID. ID. ID. ID. ID. ID. ID. ID. ID. IC. IC. IC. IC. IC. IC. IC. IC. IC. IC. IC. IC. IC. IC. IC. IC. IC. IC. IC. IC. IC. IC. IC. IC. IC. IC. IC. IC. IC. I. IA. IA. IA. IA. IA. IA. IA. IA. IA. IA. IA. IA. IA. IA. IA. IA. IA. IA. IA. IA. IA. IA. IA. IA. IA. IA. IA. IA. IA. I. I@. I@. I@. I@. I@. I@. I@. I@. I@. I@. I@. I@. I@. I@. I@. I@. I@. I@. I@. I@. I@. I@. I@. I@. I@. I@. I@. I@. I@. I. IA. IA. IA. IA. IA. IA. IA. IA. IA. IA. IA. IA. IA. IA. IA. IA. IA. IA. IA. IA. IA. IA. IA. IA. IA. IA. IA. IA. IA. IA. IA. IA. IA. IA. IA. IA. IA. IA. IA. IA. IA. IA. IA. IA. IA. IA. IA. IA. IA. IA. IA. IA. IA. IA. IA. IA. IA. IA. IA. A. FA. FA. FA. FA. FA. FA. FA. FA. FA. FA. FA. FA. FA. FA. FA. FA. FA. FA. FA. FA. FA. FA. FA. FA. FA. FA. FA. FA. FA. F. FI. FI. FI. FI. FI. FI. FI. FI. FI. FI. FI. FI. FI. FI. F. FH. FH. FH. FH. FH. FH. FH. FH. FH. FH. FH. FH. FH. FH.  DA0 DA0 DA0 DA0 DA0 DA0 DA0 DA0 DA0 DA0 DA0 DA0 DA0 DA0 DA0 DA0 DA0 DA0 DA0 DA0 DA0 DA0 DA0 DA0 DA0 DA0 DA0 DA0 DA0 DA0 DA0 DA0 DA0 DA0 DA0 DA0 DA0 DA0 DA0 DA0 DA0 DA0 DA0 DA0 DA0 DA0 DA0 DA0 DA0 DA0 DA0 DA0 DA0 DA0 DA0 DA0 DA0 DA0 DA0 DA0 DA0 DA0 DA0 DA0 DA0 DA0 DA0 DA0 DA0 DA0 DA0 DA0 DA0 DA0 DA0 DA0 DA0 DA0 DA0 DA0 DA0 DA0 DA0 DA0 DA0 DA0 DA0 DA0 DA0 DA0 DA0 DA0 DA0 DA0 DA0 DA0 DA0 DA0 DA0 DA0 DA0 DA0 DA0 DA0 DA0 DA0 DA0 DA0 DA0 DA0 DA0 DA0 DA0 DA0 DA0 DA0 DA0 DA0 DA0 DA0 DA0 DA0 DA0 DA0 DA0 DA0 DA0 DA0 DA0 DA0 DA0 DA0 DA0 DA0 DA0 DA0 DA0 DA0 DA0 DA0 DA0 DA0 DA0 DA0 DA0 DA0 DA0 DA0 DA0 D0 D@0 D@0 D@0 D@0 D@0 D@0 D@0 D@0 D@0 D@0 D@0 D@0 D@0 D@0 D@0 D@0 D@0 D@0 D@0 D@0 D@0 D@0 D@0 D@0 D@0 D@0 D@0 D@0 D@0 D0 D>0 D>0 D>0 D>0 D>0 D>0 D>0 D>0 D>0 D>0 D>0 D>0 D>0 D>0 D>0 D>0 D>0 D>0 D>0 D>0 D>0 D>0 D>0 D>0 D>0 D>0 D>0 D>0 D>0 D0 D@0 D@0 D@0 D@0 D@0 D@0 D@0 D@0 D@0 D@0 D@0 D@0 D@0 D@0 D@0 D@0 D@0 D@0 D@0 D@0 D@0 D@0 D@0 D@0 D@0 D@0 D@0 D@0 D@0  CA$ CA$ CA$ CA$ CA$ CA$ CA$ CA$ CA$ CA$ CA$ CA$ CA$ CA$ CA$ DA$ DA$ DA$ DA$ DA$ D@$ D@$ D@$ D@$ D@$ D@$ D@$ D@$ D@$ D@$ C@$ C@$ C@$ C@$ C@$ C@$ C@$ C@$ C@$ C@$ CA$ CA$ CA$ CA$ CA$ CA$ CA$ CA$ CA$ CA$ CA$ CA$ CA$ CA$ CA$ CA$ CA$ CA$ CA$ CA$ A@$ A@$ A@$ A@$ A@$ A@$ A@$ A@$ A@$ A@$ A@$ A@$ A@$ A@$ A@$ AA$ AA$ AA$ AA$ AA$ AA$ AA$ AA$ AA$ AA$ AA$ AA$ AA$ AA$ AA$ A@$ A@$ A@$ A@$ A@$ A@$ A@$ A@$ A@$ A@$ A@$ A@$ A@$ A@$ A@$ AA$ AA$ AA$ AA$ AA$ AA$ AA$ AA$ AA$ AA$ AA$ AA$ AA$ AA$ A$ C@$ C@$ C@$ C@$ C@$ C@$ C@$ C@$ C@$ C$ CA$ CA$ CA$ CA$ CA$ CA$ CA$ CA$ CA$ C$ C@$ C@$ C@$ C@$ C@$ C@$ C@$ C@$ C@$ C$ CA$ CA$ CA$ CA$ CA$ CA$ CA$ CA@$ CA@$ C@$ C@$ C@$ C@$ C@$ C@$ C@$ C@$ C@$ C@$ C@$ C@$ C@$ C$ C$ C$ C$ C$ C$ C$ C$ CA$ CA$ CA$ CA$ CA$ CA$ CA$ CA$ CA$ CA$ CA$ CA$ CA$ CA$ CA$ CA$ CA$ CA$ CA$ CA$ CA$ CA$ CA$ CA$ CA$ CA$ CA$ CA$ CA$ CA$ CA$ CA$ CA$ CA$ CA$ CA$ CA$ CA$ CA$ CA$ CA$ CA$ CA$ CA$ CA$ CA$ CA$ CA$ CA$ CA$ CA$ CA$ CA$ CA$ CA$ CA$ CA$ CA$ CA$  AA) AA) AA) AA) AA) AA) AA) AA) AA) AA) AA) AA) AA) AA) AA) AA) AA) AA) AA) AA) AA) AA) AA) AA) AA) AA) AA) AA) AA) AA) AA) AA) AA) AA) AA) AA) AA) AA) AA) AA) AA) AA) AA) AA) AA) AA) AA) AA) AA) AA) AA) AA) AA) AA) AA) AA) AA) AA) AA) AA) AA) AA) AA) AA) AA) AA) AA) AA) AA) AA) AA) AA) AA) AA) AA) AA) AA) AA) AA) AA) AA) AA) AA) AA) AA) AA) AA) AA) AA) AA) AA) AA) AA) AA) AA) AA) AA) AA) AA) AA) AA) AA) AA) AA) AA) AA) AA) AA) AA) AA) AA) AA) AA) AA) AA) AA) AA) AA) AA) AA) AA) AA) AA) AA) AA) AA) AA) AA) AA) AA) AA) AA) AA) AA) AA) AA) AA) AA) AA) AA) AA) AA) AA) AA) AA) AA) AA) AA) AA) AA) AA) AA) AA) AA) AA) AA) AA) AA) AA) AA) AA) AA) AA) AA) AA) AA) AA) AA) AA) AA) AA) AA) AA) AA) AA) AA) AA) AA) AA) AA) AA) AA) AA) AA) AA) AA) AA) AA) AA) AA) AA) AA) AA) AA) AA) AA) AA) AA) AA) AA) AA) AA) AA) AA) AA) AA) AA) AA) AA) AA) AA) AA) AA) AA) AA) AA) AA) AA) AA) AA) AA) AA) AA) AA) AA) AA) AA) AA) AA) AA) AA) AA) AA) AA) AA) AA) AA) AA) AA) AA) AA) AA) AA) AA) AA) AA) AA) AA) AA) AA) AA) AA) AA) AA) AA) AA) AA) AA) AA) AA) AA) AA) AA) AA) AA) AA) AA) AA) AA) AA) AA) AA) AA) AA) AA) AA) AA) AA) AA) AA) AA) AA) AA) AA) AA) AA) AA) AA) AA) AA) AA) AA) AA) AA) AA) AA) AA) AA) AA) AA) AA) AA) AA) AA) AA) AA) AA) AA) AA) AA) AA) AA) AA) AA) AA) AA) AA) AA) AA) AA) AA) AA) AA) AA) AA) AA) AA) AA) AA) AA) AA) AA) AA) AA) AA) AA) AA) AA) AA) AA) AA) AA) AA) AA) AA) AA) AA) AA) AA) AA) AA) AA) AA) AA) AA) AA) AA) AA) AA) AA) AA) AA) AA) AA) AA) AA) AA) AA) AA) AA) AA) AA) AA) AA) AA) AA) AA) AA) AA) AA) AA) AA) AA) AA) AA) AA) AA) AA) AA) AA) AA) AA) AA) AA) AA) AA) AA) AA) AA) AA) AA) AA) AA) AA) AA) AA) AA) AA) AA) AA) AA) AA) AA) AA) AA) AA) AA) AA) AA) AA) AA) AA) AA) AA) AA) AA) AA) AA) AA) AA) AA) AA) AA) AA) AA) AA) AA) AA) AA) AA) AA) AA) AA) AA) AA) AA) AA) AA) AA) AA) AA) AA) AA) AA) AA) AA) AA) AA) AA) AA) AA) AA) AA) AA) AA) AA) AA) AA) AA) AA) AA) AA) AA) AA) AA) AA) AA) AA) AA) AA) AA) AA) AA) AA) AA) AA) AA) AA) AA) AA) AA) AA) AA) AA) AA) AA) AA) AA) AA) AA) AA) AA) AA) AA) AA) AA) AA) AA) AA) AA) AA) AA) AA) AA) AA) AA) AA) AA) AA) AA) AA) AA) AA) AA) AA) AA) AA) AA) AA) AA) AA) AA) AA) AA) AA) AA) AA) AA) AA) AA) AA) AA) AA) AA) AA) AA) AA) AA) AA) AA) AA) AA) AA) AA) AA) AA) AA) AA) AA) AA) AA) AA) AA) AA) AA) AA) AA) AA) AA) AA) AA) AA) AA) AA) AA) AA) AA) AA) AA) AA) AA) AA) AA) AA) AA) AA) AA) AA) AA) AA) AA) AA) AA) AA) AA) AA) AA) AA) AA) AA) AA) AA) AA) AA) AA) AA) AA) AA) AA) AA) AA) AA) AA) AA) AA) AA) AA) AA) AA) AA) AA) AA) AA) AA) AA) AA) AA) AA) AA) AA) AA) AA) AA) AA) AA) AA) AA) AA) AA) AA) AA) AA) AA) AA) AA) AA) AA) AA) AA) AA) AA) AA) AA) AA) AA) AA) AA) AA) AA) AA) AA) AA) AA) AA) AA) AA) AA) AA) AA) AA) AA) AA) AA) AA) AA) AA) AA) AA) AA) AA) AA) AA) AA) AA) AA) AA) AA) AA) AA) AA) AA) AA) AA) AA) AA) AA) AA) AA) AA) AA) AA) AA) AA) AA) AA) AA) AA) AA) AA) AA) AA) AA) AA) AA) AA) AA) AA) AA) AA)  M5 M5 M5 M5 M5 M5 M5 M5 M5 M5 M5 M5 M5 M5 M5 K5 K5 K5 K5 K5 K5 K5 K5 K5 K5 K5 K5 K5 K5 K5 M5 M5 M5 M5 M5 M5 M5 M5 M5 M5 M5 M5 M5 M5 M5 M5 M5 M5 M5 M5 M5 M5 M5 M5 M5 M5 M5 M5 M5 M5 M5 M5 M5 M5 M5 M5 M5 M5 M5 M5 M5 M5 M5 M5 M5 M5 M5 M5 M5 M5 M5 M5 M5 M5 M5 M5 M5 M5 M5 M5 M5 M5 M5 M5 M5 M5 M5 M5 M5 M5 M5 M5 M5 M5 M5 M5 M5 M5 M5 M5 M5 M5 M5 M5 M5 M5 M5 M5 M5 M M7 M7 M7 M7 M7 M7 M7 M7 M7 M7 M7 M7 M7 M7 M7 M7 M7 M7 M7 M7 M7 M7 M7 M7 M7 M7 M7 M7 M7 M7 M7 M7 M7 M7 M7 M7 M7 M7 M7 M7 M7 M7 M7 M7 M7 M7 M7 M7 M7 M7 M7 M7 M7 M7 M7 M7 M7 M7 M7 M7 M7 M7 M7 M7 M7 M7 M7 M7 M7 M7 M7 M7 M7 M7 M7 M7 M7 M7 M7 M7 M7 M7 M7 M7 M7 M7 M7 M7 M7 M7 M7 M7 M7 M7 M7 M7 M7 M7 M7 M7 M7 M7 M7 M7 M7 M7 M7 M7 M7 M7 M7 M7 M7 M7 M7 M7 M7 M7 M7 M <M9 <M9 <M9 <M9 <M9 <M9 <M9 <M9 <M9 <M9 <M9 <M9 <M9 <M9 <M9 <M9 <M9 <M9 <M9 <M9 <M9 <M9 <M9 <M9 <M9 <M9 <M9 <M9 <M9 <M9 <M9 <M9 <M9 <M9 <M9 <M9 <M9 <M9 <M9 <M9 <M9 <M9 <M9 <M9 <M9 <M9 <M9 <M9 <M9 <M9 <M9 <M9 <M9 <M9 <M9 <M9 <M9 <M9 <M9 <M9 <M9 <M9 <M9 <M9 <M9 <M9 <M9 <M9 <M9 <M9 <M9 <M9 <M9 <M9 <M9 <M9 <M9 <M9 <M9 <M9 <M9 <M9 <M9 <M9 <M9 <M9 <M9 <M9 <M9 <M9 <M9 <M9 <M9 <M9 <M9 <M9 <M9 <M9 <M9 <M9 <M9 <M9 <M9 <M9 <M9 <M9 <M9 <M9 <M9 <M9 <M9 <M9 <M9 <M9 <M9 <M9 <M9 <M9 <M9 <M <M7 <M7 <M7 <M7 <M7 <M7 <M7 <M7 <M7 <M7 <M7 <M7 <M7 <M7 <M7 <M7 <M7 <M7 <M7 <M7 <M7 <M7 <M7 <M7 <M7 <M7 <M7 <M7 <M7 <M7 <M7 <M7 <M7 <M7 <M7 <M7 <M7 <M7 <M7 <M7 <M7 <M7 <M7 <M7 <M7 <M7 <M7 <M7 <M7 <M7 <M7 <M7 <M7 <M7 <M7 <M7 <M7 <M7 <M7 <M7 <M7 <M7 <M7 <M7 <M7 <M7 <M7 <M7 <M7 <M7 <M7 <M7 <M7 <M7 <M7 <M7 <M7 <M7 <M7 <M7 <M7 <M7 <M7 <M7 <M7 <M7 <M7 <M7 <M7 <M7 <M7 <M7 <M7 <M7 <M7 <M7 <M7 <M7 <M7 <M7 <M7 <M7 <M7 <M7 <M7 <M7 <M7 <M7 <M7 <M7 <M7 <M7 <M7 <M7 <M7 <M7 <M7 <M7 <M7 M >M5 >M5 >M5 >M5 >M5 >M5 >M5 >M5 >M5 >M5 >M5 >M5 >M5 >M5 >M5 >M5 >M5 >M5 >M5 >M5 >M5 >M5 >M5 >M5 >M5 >M5 >M5 >M5 >M5 >M5 >M5 >M5 >M5 >M5 >M5 >M5 >M5 >M5 >M5 >M5 >M5 >M5 >M5 >M5 >M5 >M5 >M5 >M5 >M5 >M5 >M5 >M5 >M5 >M5 >M5 >M5 >M5 >M5 >M5 >M5 >M5 >M5 >M5 >M5 >M5 >M5 >M5 >M5 >M5 >M5 >M5 >M5 >M5 >M5 >M5 >M5 >M5 >M5 >M5 >M5 >M5 >M5 >M5 >M5 >M5 >M5 >M5 >M5 >M5 >M5 >M5 >M5 >M5 >M5 >M5 >M5 >M5 >M5 >M5 >M5 >M5 >M5 >M5 >M5 >M5 >M5 >M5 >M5 >M5 >M5 >M5 >M5 >M5 >M5 >M5 >M5 >M5 >M5 >M5 M5 ?M5 ?M5 ?M5 ?M5 ?M5 ?M5 ?M5 ?M5 ?M5 ?M5 ?M5 ?M5 ?M5 ?M5 ?M5 ?M5 ?M5 ?M5 ?M5 ?M5 ?M5 ?M5 ?M5 ?M5 ?M5 ?M5 ?M5 ?M5 ?M5 ?M5 ?M5 ?M5 ?M5 ?M5 ?M5 ?M5 ?M5 ?M5 ?M5 ?M5 ?M5 ?M5 ?M5 ?M5 ?M5 ?M5 ?M5 ?M5 ?M5 ?M5 ?M5 ?M5 ?M5 ?M5 ?M5 ?M5 ?M5 ?M5 ?M5 ?M5 ?M5 ?M5 ?M5 ?M5 ?M5 ?M5 ?M5 ?M5 ?M5 ?M5 ?M5 ?M5 ?M5 ?M5 ?M5 ?M5 ?M5 ?M5 ?M5 ?M5 ?M5 ?M5 ?M5 ?M5 ?M5 ?M5 ?M5 ?M5 ?M5 ?M5 ?M5 ?M5 ?M5 ?M5 ?M5 ?M5 ?M5 ?M5 ?M5 ?M5 ?M5 ?M5 ?M5 ?M5 ?M5 ?M5 ?M5 ?M5 ?M5 ?M5 ?M5 ?M5 ?M5 ?M5 ?M5 ?M5 ?M5 ?M5 ?M5 M ;M> ;M> ;M> ;M> ;M> ;M> ;M> ;M> ;M> ;M> ;M> ;M> ;M> ;M> ;M> ;M> ;M> ;M> ;M> ;M> ;M> ;M> ;M> ;M> ;M> ;M> ;M> ;M> ;M> ;M> ;M> ;M> ;M> ;M> ;M> ;M> ;M> ;M> ;M> ;M> ;M> ;M> ;M> ;M> ;M> ;M> ;M> ;M> ;M> ;M> ;M> ;M> ;M> ;M> ;M> ;M> ;M> ;M> ;M> ;M> ;D> ;D> ;D> ;D> ;D> ;D> ;D> ;D> ;D> ;D> ;D> ;D> ;D> ;D> ;D> ;D> ;D> ;D> ;D> ;D> ;D> ;D> ;D> ;D> ;D> ;D> ;D> ;D> ;D> ;D> ;D> ;D> ;D> ;D> ;D> ;D> ;D> ;D> ;D> ;D> ;D> ;D> ;D> ;D> ;D> ;D> ;D> ;D> ;D> ;D> ;D> ;D> ;D> ;D> ;D> ;D> ;D> ;D> ;D> ;> ;C> ;C> ;C> ;C> ;C> ;C> ;C> ;C> ;C> ;C> ;C> ;C> ;C> ;C> ;C> ;C> ;C> ;C> ;C> ;C> ;C> ;C> ;C> ;C> ;C> ;C> ;C> ;C> ;C> ;C> ;C> ;C> ;C> ;C> ;C> ;C> ;C> ;C> ;C> ;C> ;C> ;C> ;C> ;C> ;C> ;C> ;C> ;C> ;C> ;C> ;C> ;C> ;C> ;C> ;C> ;C> ;C> ;C> ;C> ;> ;A> ;A> ;A> ;A> ;A> ;A> ;A> ;A> ;A> ;A> ;A> ;A> ;A> ;A> ;A> ;A> ;A> ;A> ;A> ;A> ;A> ;A> ;A> ;A> ;A> ;A> ;A> ;A> ;A> ;A> ;A> ;A> ;A> ;A> ;A> ;A> ;A> ;A> ;A> ;A> ;A> ;A> ;A> ;A> ;A> ;A> ;A> ;A> ;A> ;A> ;A> ;A> ;A> ;A> ;A> ;A> ;A> ;A> ;A>  AC AC AC AC AC AC AC AC AC AC AC AC AC AC AC AC AC AC AC AC AC AC AC AC AC AC AC AC AC AC AC AC AC AC AC AC AC AC AC AC AC AC AC AC AC AC AC AC AC AC AC AC AC AC AC AC AC AC AC A AG AG AG AG AG AG AG AG AG AG AG AG AG AG AG AG AG AG AG AG AG AG AG AG AG AG AG AG AG AG AG AG AG AG AG AG AG AG AG AG AG AG AG AG AG AG AG AG AG AG AG AG AG AG AG AG AG AG AG A AJ AJ AJ AJ AJ AJ AJ AJ AJ AJ AJ AJ AJ AJ AJ AJ AJ AJ AJ AJ AJ AJ AJ AJ AJ AJ AJ AJ AJ AJ AJ AJ AJ AJ AJ AJ AJ AJ AJ AJ AJ AJ AJ AJ AJ AJ AJ AJ AJ AJ AJ AJ AJ AJ AJ AJ AJ AJ AJ A AK AK AK AK AK AK AK AK AK AK AK AK AK AK AK AK AK AK AK AK AK AK AK AK AK AK AK AK AK AK AK AK AK AK AK AK AK AK AK AK AK AK AK AK AK AK AK AK AK AK AK AK AK AK AK AK AK AK AK A AM AM AM AM AM AM AM AM AM AM AM AM AM AM AM AM AM AM AM AM AM AM AM AM AM AM AM AM AM AM AM AM AM AM AM AM AM AM AM AM AM AM AM AM AM AM AM AM AM AM AM AM AM AM AM AM AM AM AM A AJ AJ AJ AJ AJ AJ AJ AJ AJ AJ AJ AJ AJ AJ AJ AJ AJ AJ AJ AJ AJ AJ AJ AJ AJ AJ AJ AJ AJ AJ AJ AJ AJ AJ AJ AJ AJ AJ AJ AJ AJ AJ AJ AJ AJ AJ AJ AJ AJ AJ AJ AJ AJ AJ AJ AJ AJ AJ AJ A AM AM AM AM AM AM AM AM AM AM AM AM AM AM AM AM AM AM AM AM AM AM AM AM AM AM AM AM AM AM AM AM AM AM AM AM AM AM AM AM AM AM AM AM AM AM AM AM AM AM AM AM AM AM AM AM AM AM AM A AO AO AO AO AO AO AO AO AO AO AO AO AO AO AO AO AO AO AO AO AO AO AO AO AO AO AO AO AO AO AO AO AO AO AO AO AO AO AO AO AO AO AO AO AO AO AO AO AO AO AO AO AO AO AO AO AO AO AO A AP2 AP2 AP2 AP2 AP2 AP2 AP2 AP2 AP2 AP2 AP2 AP2 AP2 AP2 AP2 AP2 AP2 AP2 AP2 AP2 AP2 AP2 AP2 AP2 AP2 AP2 AP2 AP2 AP2 AP2 AP2 AP2 AP2 AP2 AP2 AP2 AP2 AP2 AP2 AP2 AP2 AP2 AP2 AP2 AP2 AP2 AP2 AP2 AP2 AP2 AP2 AP2 AP2 AP2 AP2 AP2 AP2 AP2 AP2 A2 AM2 AM2 AM2 AM2 AM2 AM2 AM2 AM2 AM2 AM2 AM2 AM2 AM2 AM2 AM2 AM2 AM2 AM2 AM2 AM2 AM2 AM2 AM2 AM2 AM2 AM2 AM2 AM2 AM2 AM2 AM2 AM2 AM2 AM2 AM2 AM2 AM2 AM2 AM2 AM2 AM2 AM2 AM2 AM2 AM2 AM2 AM2 AM2 AM2 AM2 AM2 AM2 AM2 AM2 AM2 AM2 AM2 AM2 AM2 A 8S0 8S0 8S0 8S0 8S0 8S0 8S0 8S0 8S0 8S0 8S0 8S0 8S0 8S0 8S0 8S0 8S0 8S0 8S0 8S0 8S0 8S0 8S0 8S0 8S0 8S0 8S0 8S0 8S0 8S0 8S0 8S0 8S0 8S0 8S0 8S0 8S0 8S0 8S0 8S0 8S0 8S0 8S0 8S0 8S0 8S0 8S0 8S0 8S0 8S0 8S0 8S0 8S0 8S0 8S0 8S0 8S0 8S0 8S0 80 8T0 8T0 8T0 8T0 8T0 8T0 8T0 8T0 8T0 8T0 8T0 8T0 8T0 8T0 8T0 8T0 8T0 8T0 8T0 8T0 8T0 8T0 8T0 8T0 8T0 8T0 8T0 8T0 8T0 8T0 8T0 8T0 8T0 8T0 8T0 8T0 8T0 8T0 8T0 8T0 8T0 8T0 8T0 8T0 8T0 8T0 8T0 8T0 8T0 8T0 8T0 8T0 8T0 8T0 8T0 8T0 8T0 8T0 8T0  7V/ 7V/ 7V/ 7V/ 7V/ 7V/ 7V/ 7V/ 7V/ 7V/ 7V/ 7V/ 7V/ 7V/ 7V/ 7V/ 7V/ 7V/ 7V/ 7V/ 7V/ 7V/ 7V/ 7V/ 7V/ 7V/ 7V/ 7V/ 7V/ 7V/ 7V/ 7V/ 7V/ 7V/ 7V/ 7V/ 7V/ 7V/ 7V/ 7V/ 7V/ 7V/ 7V/ 7V/ 7V/ 7V/ 7V/ 7V/ 7V/ 7V/ 7V/ 7V/ 7V/ 7V/ 7V/ 7V/ 7V/ 7V/ 7V/ 7V/ 7V/ 7V/ 7V/ 7V/ 7V/ 7V/ 7V/ 7V/ 7V/ 7V/ 7V/ 7V/ 7V/ 7V/ 7V/ 7V/ 7V/ 7V/ 7V/ 7V/ 7V/ 7V/ 7V/ 7V/ 7V/ 7V/ 7V/ 7V/ 7V/ V/ 9V/ 9V/ 9V/ 9V/ 9V/ 9V/ 9V/ 9V/ 9V/ 9V/ 9V/ 9V/ 9V/ 9V/ 9V/ 9V/ 9V/ 9V/ 9V/ 9V/ 9V/ 9V/ 9V/ 9V/ 9V/ 9V/ 9V/ 9V/ 9V/ V ;V2 ;V2 ;V2 ;V2 ;V2 ;V2 ;V2 ;V2 ;V2 ;V2 ;V2 ;V2 ;V2 ;V2 ;V2 ;V2 ;V2 ;V2 ;V2 ;V2 ;V2 ;V2 ;V2 ;V2 ;V2 ;V2 ;V2 ;V2 ;V2 V2 <V2 <V2 <V2 <V2 <V2 <V2 <V2 <V2 <V2 <V2 <V2 <V2 <V2 <V2 <V2 <V2 <V2 <V2 <V2 <V2 <V2 <V2 <V2 <V2 <V2 <V2 <V2 <V2 <V2 V2 >V2 >V2 >V2 >V2 >V2 >V2 >V2 >V2 >V2 >V2 >V2 >V2 >V2 >V2 >V2 >V2 >V2 >V2 >V2 >V2 >V2 >V2 >V2 >V2 >V2 >V2 >V2 >V2 >V2 V2 ?V2 ?V2 ?V2 ?V2 ?V2 ?V2 ?V2 ?V2 ?V2 ?V2 ?V2 ?V2 ?V2 ?V2 ?V2 ?V2 ?V2 ?V2 ?V2 ?V2 ?V2 ?V2 ?V2 ?V2 ?V2 ?V2 ?V2 ?V2 ?V2 V AV+ AV+ AV+ AV+ AV+ AV+ AV+ AV+ AV+ AV+ AV+ AV+ AV+ AV+ AV+ AV+ AV+ AV+ AV+ AV+ AV+ AV+ AV+ AV+ AV+ AV+ AV+ AV+ AV+ V+ CV+ CV+ CV+ CV+ CV+ CV+ CV+ CV+ CV+ CV+ CV+ CV+ CV+ CV+ CV+ CV+ CV+ CV+ CV+ CV+ CV+ CV+ CV+ CV+ CV+ CV+ CV+ CV+ CV+ V+ DV+ DV+ DV+ DV+ DV+ DV+ DV+ DV+ DV+ DV+ DV+ DV+ DV+ DV+ DV+ DV+ DV+ DV+ DV+ DV+ DV+ DV+ DV+ DV+ DV+ DV+ DV+ DV+ DV+ DV+ DV+ DV+ DV+ DV+ DV+ DV+ DV+ DV+ DV+ DV+ DV+ DV+ DV+ DV+ DV+ DV+ DV+ DV+ DV+ DV+ DV+ DV+ DV+ DV+ DV+ DV+ DV+ DV+ DV+ DV DV/ DV/ DV/ DV/ DV/ DV/ DV/ DV/ DV/ DV/ DV/ DV/ DV/ DV/ DV/ DV/ DV/ DV/ DV/ DV/ DV/ DV/ DV/ DV/ DV/ DV/ DV/ DV/ DV/ DV/ DV/ DV/ DV/ DV/ DV/ DV/ DV/ DV/ DV/ DV/ DV/ DV/ DV/ DV/ DV/ DV/ DV/ DV/ DV/ DV/ DV/ DV/ DV/ DV/ DV/ DV/ DV/ DV/ DV/ V/ CV/ CV/ CV/ CV/ CV/ CV/ CV/ CV/ CV/ CV/ CV/ CV/ CV/ CV/ CV/ CV/ CV/ CV/ CV/ CV/ CV/ CV/ CV/ CV/ CV/ CV/ CV/ CV/ CV/ CV/ CV/ CV/ CV/ CV/ CV/ CV/ CV/ CV/ CV/ CV/ CV/ CV/ CV/ CV/ CV/ CV/ CV/ CV/ CV/ CV/ CV/ CV/ CV/ CV/ CV/ CV/ CV/ CV/ CV/ V AV0 AV0 AV0 AV0 AV0 AV0 AV0 AV0 AV0 AV0 AV0 AV0 AV0 AV0 AV0 AV0 AV0 AV0 AV0 AV0 AV0 AV0 AV0 AV0 AV0 AV0 AV0 AV0 AV0 V0 ?V0 ?V0 ?V0 ?V0 ?V0 ?V0 ?V0 ?V0 ?V0 ?V0 ?V0 ?V0 ?V0 ?V0 V0 AV0 AV0 AV0 AV0 AV0 AV0 AV0 AV0 AV0 AV0 AV0 AV0 AV0 AV0 V0 ?T0 ?T0 ?T0 ?T0 ?T0 ?T0 ?T0 ?T0 ?T0 ?T0 ?T0 ?T0 ?T0 ?T0 T0 AT0 AT0 AT0 AT0 AT0 AT0 AT0 AT0 AT0 AT0 AT0 AT0 AT0 AT0 T0 ?T0 ?T0 ?T0 ?T0 ?T0 ?T0 ?T0 ?T0 ?T0 T0 AT0 AT0 AT0 AT0 AT0 AT0 AT0 AT0 AT0 T0 ?T0 ?T0 ?T0 ?T0 ?T0 ?T0 ?T0 ?T0 ?T0 0 AS0 AS0 AS0 AS0 AS0 AS0 AS0 AS0 AS0 S0 ?S0 ?S0 ?S0 ?S0 ?S0 ?S0 ?S0 ?S0 ?S0 S0 AS0 AS0 AS0 AS0 AS0 AS0 AS0 AS0 AS0 S0 ?S0 ?S0 ?S0 ?S0 ?S0 ?S0 ?S0 ?S0 ?S0 S0 AS0 AS0 AS0 AS0 AS0 AS0 AS0 AS0 AS0 S0 ?S0 ?S0 ?S0 ?S0 ?S0 ?S0 ?S0 ?S0 ?S0 0 AV0 AV0 AV0 AV0 AV0 AV0 AV0 AV0 AV0 V0 ?V0 ?V0 ?V0 ?V0 ?V0 ?V0 ?V0 ?V0 ?V0 V0 AV0 AV0 AV0 AV0 AV0 AV0 AV0 AV0 AV0 V0 ?V0 ?V0 ?V0 ?V0 ?V0 ?V0 ?V0 ?V0 ?V0 V0 AV0 AV0 AV0 AV0 AV0 AV0 AV0 AV0 AV0 V0 ?V0 ?V0 ?V0 ?V0 ?V0 ?V0 ?V0 ?V0 ?V0  AT AT AT AT AT AT AT AT AT T ?T ?T ?T ?T ?T ?T ?T ?T ?T T AT AT AT AT AT AT AT AT AT T ?T ?T ?T ?T ?T ?T ?T ?T ?T T AT AT AT AT AT AT AT AT AT T ?T ?T ?T ?T ?T ?T ?T ?T ?T  AQ AQ AQ AQ AQ AQ AQ AQ AQ Q ?Q ?Q ?Q ?Q ?Q ?Q ?Q ?Q ?Q Q AQ AQ AQ AQ AQ AQ AQ AQ AQ Q ?Q ?Q ?Q ?Q ?Q ?Q ?Q ?Q ?Q Q AQ AQ AQ AQ AQ AQ AQ AQ AQ Q ?Q ?Q ?Q ?Q ?Q ?Q ?Q ?Q ?Q  >O >O >O >O >O >O >O >O >O >O >O >O >O >O >O >O >O >O >O >O >O >O >O >O >O >O >O >O >O >O >O >O >O >O >O >O >O >O >O >O >O >O >O >O >O >O >O >O >O >O >O >O >O >O >O >O >O >O >O > >M >M >M >M >M >M >M >M >M >M >M >M >M >M >M >M >M >M >M >M >M >M >M >M >M >M >M >M >M >M >M >M >M >M >M >M >M >M >M >M >M >M >M >M >M >M >M >M >M >M >M >M >M >M >M >M >M >M >M  <K <K <K <K <K <K <K <K <K <K <K <K <K <K <K <K <K <K <K <K <K <K <K <K <K <K <K <K <K <K <K <K <K <K <K <K <K <K <K <K <K <K <K <K <K <K <K <K <K <K <K <K <K <K <K <K <K <K <K < <J <J <J <J <J <J <J <J <J <J <J <J <J <J <J <J <J <J <J <J <J <J <J <J <J <J <J <J <J <J <J <J <J <J <J <J <J <J <J <J <J <J <J <J <J <J <J <J <J <J <J <J <J <J <J <J <J <J <J < <H <H <H <H <H <H <H <H <H <H <H <H <H <H <H <H <H <H <H <H <H <H <H <H <H <H <H <H <H <H <H <H <H <H <H <H <H <H <H <H <H <H <H <H <H <H <H <H <H <H <H <H <H <H <H <H <H <H <H < <F <F <F <F <F <F <F <F <F <F <F <F <F <F <F <F <F <F <F <F <F <F <F <F <F <F <F <F <F <F <F <F <F <F <F <F <F <F <F <F <F <F <F <F <F <F <F <F <F <F <F <F <F <F <F <F <F <F <F  E0 E0 E0 E0 E0 E0 E0 E0 E0 E0 E0 E0 E0 E0 E0 E0 E0 E0 E0 E0 E0 E0 E0 E0 E0 E0 E0 E0 E0 E0 E0 E0 E0 E0 E0 E0 E0 E0 E0 E0 E0 E0 E0 E0 E0 E0 E0 E0 E0 E0 E0 E0 E0 E0 E0 E0 E0 E0 E0 E0 E0 E0 E0 E0 E0 E0 E0 E0 E0 E0 E0 E0 E0 E0 E0 E0 E0 E0 E0 E0 E0 E0 E0 E0 E0 E0 E0 E0 E0 E0 E0 E0 E0 E0 E0 E0 E0 E0 E0 E0 E0 E0 E0 E0 E0 E0 E0 E0 E0 E0 E0 E0 E0 E0 E0 E0 E0 E0 E0  H2 H2 H2 H2 H2 H2 H2 H2 H2 H2 H2 H2 H2 H2 H2 H2 H2 H2 H2 H2 H2 H2 H2 H2 H2 H2 H2 H2 H2 H2 H2 H2 H2 H2 H2 H2 H2 H2 H2 H2 H2 H2 H2 H2 H2 H2 H2 H2 H2 H2 H2 H2 H2 H2 H2 H2 H2 H2 H2 2 F2 F2 F2 F2 F2 F2 F2 F2 F2 F2 F2 F2 F2 F2 F2 F2 F2 F2 F2 F2 F2 F2 F2 F2 F2 F2 F2 F2 F2 F2 F2 F2 F2 F2 F2 F2 F2 F2 F2 F2 F2 F2 F2 F2 F2 F2 F2 F2 F2 F2 F2 F2 F2 F2 F2 F2 F2 F2 F2  F3 F3 F3 F3 F3 F3 F3 F3 F3 F3 F3 F3 F3 F3 F3 F3 F3 F3 F3 F3 F3 F3 F3 F3 F3 F3 F3 F3 F3 3 H3 H3 H3 H3 H3 H3 H3 H3 H3 H3 H3 H3 H3 H3 H3 H3 H3 H3 H3 H3 H3 H3 H3 H3 H3 H3 H3 H3 H3 H3 H3 H3 H3 H3 H3 H3 H3 H3 H3 H3 H3 H3 H3 H3 H3 H3 H3 H3 H3 H3 H3 H3 H3 H3 H3 H3 H3 H3 H3 H3 H3 H3 H3 H3 H3 H3 H3 H3 H3 H3 H3 H3 H3 H3 H3 H3 H3 H3 H3 H3 H3 H3 H3 H3 H3 H3 H3 H3 H3 H H0 H0 H0 H0 H0 H0 H0 H0 H0 H0 H0 H0 H0 H0 H0 H0 H0 H0 H0 H0 H0 H0 H0 H0 H0 H0 H0 H0 H0 H0 H0 H0 H0 H0 H0 H0 H0 H0 H0 H0 H0 H0 H0 H0 H0 H0 H0 H0 H0 H0 H0 H0 H0 H0 H0 H0 H0 H0 H0 H0 H0 H0 H0 H0 H0 H0 H0 H0 H0 H0 H0 H0 H0 H0 H0 H0 H0 H0 H0 H0 H0 H0 H0 H0 H0 H0 H0 H0 H0 H0 H0 H0 H0 H0 H0 H0 H0 H0 H0 H0 H0 H0 H0 H0 H0 H0 H0 H0 H0 H0 H0 H0 H0 H0 H0 H0 H0 H0 H0 H H- H- H- H- H- H- H- H- H- H- H- H- H- H- H- H- H- H- H- H- H- H- H- H- H- H- H- H- H- - F- F- F- F- F- F- F- F- F- F- F- F- F- F- F- F- F- F- F- F- F- F- F- F- F- F- F- F- F- - E- E- E- E- E- E- E- E- E- E- E- E- E- E- E- E- E- E- E- E- E- E- E- E- E- E- E- E- E- - F- F- F- F- F- F- F- F- F- F- F- F- F- F- F- F- F- F- F- F- F- F- F- F- F- F- F- F- F-  H+ H+ H+ H+ H+ H+ H+ H+ H+ H+ H+ H+ H+ H+ H+ H+ H+ H+ H+ H+ H+ H+ H+ H+ H+ H+ H+ H+ H+ + J+ J+ J+ J+ J+ J+ J+ J+ J+ J+ J+ J+ J+ J+ J+ J+ J+ J+ J+ J+ J+ J+ J+ J+ J+ J+ J+ J+ J+ + L+ L+ L+ L+ L+ L+ L+ L+ L+ L+ L+ L+ L+ L+ L+ L+ L+ L+ L+ L+ L+ L+ L+ L+ L+ L+ L+ L+ L+ + N+ N+ N+ N+ N+ N+ N+ N+ N+ N+ N+ N+ N+ N+ N+ N+ N+ N+ N+ N+ N+ N+ N+ N+ N+ N+ N+ N+ N+  <O- <O- <O- <O- <O- <O- <O- <O- <O- <O- <O- <O- <O- <O- <O- <O- <O- <O- <O- <O- <O- <O- <O- <O- <O- <O- <O- <O- <O- <O- <O- <O- <O- <O- <O- <O- <O- <O- <O- <O- <O- <O- <O- <O- <O- <O- <O- <O- <O- <O- <O- <O- <O- <O- <O- <O- <O- <O- <O- <O- <O- <O- <O- <O- <O- <O- <O- <O- <O- <O- <O- <O- <O- <O- <O- <O- <O- <O- <O- <O- <O- <O- <O- <O- <O- <O- <O- <O- <O- <O- <O- <O- <O- <O- <O- <O- <O- <O- <O- <O- <O- <O- <O- <O- <O- <O- <O- <O- <O- <O- <O- <O- <O- <O- <O- <O- <O- <O- <O-  ?N. ?N. ?N. ?N. ?N. ?N. ?N. ?N. ?N. ?N. ?N. ?N. ?N. ?N. ?N. ?N. ?N. ?N. ?N. ?N. ?N. ?N. ?N. ?N. ?N. ?N. ?N. ?N. ?N. ?N. ?N. ?N. ?N. ?N. ?N. ?N. ?N. ?N. ?N. ?N. ?N. ?N. ?N. ?N. ?N. ?N. ?N. ?N. ?N. ?N. ?N. ?N. ?N. ?N. ?N. ?N. ?N. ?N. ?N. N. >N. >N. >N. >N. >N. >N. >N. >N. >N. >N. >N. >N. >N. >N. >N. >N. >N. >N. >N. >N. >N. >N. >N. >N. >N. >N. >N. >N. >N. >N. >N. >N. >N. >N. >N. >N. >N. >N. >N. >N. >N. >N. >N. >N. >N. >N. >N. >N. >N. >N. >N. >N. >N. >N. >N. >N. >N. >N. >N. N ?N0 ?N0 ?N0 ?N0 ?N0 ?N0 ?N0 ?N0 ?N0 ?N0 ?N0 ?N0 ?N0 ?N0 ?N0 ?N0 ?N0 ?N0 ?N0 ?N0 ?N0 ?N0 ?N0 ?N0 ?N0 ?N0 ?N0 ?N0 ?N0 ?N0 ?N0 ?N0 ?N0 ?N0 ?N0 ?N0 ?N0 ?N0 ?N0 ?N0 ?N0 ?N0 ?N0 ?N0 ?N0 ?N0 ?N0 ?N0 ?N0 ?N0 ?N0 ?N0 ?N0 ?N0 ?N0 ?N0 ?N0 ?N0 ?N0 ?N0 ?N0 ?N0 ?N0 ?N0 ?N0 ?N0 ?N0 ?N0 ?N0 ?N0 ?N0 ?N0 ?N0 ?N0 ?N0 ?N0 ?N0 ?N0 ?N0 ?N0 ?N0 ?N0 ?N0 ?N0 ?N0 ?N0 ?N0 ?N0 ?N0 ?N0 ?N0 ?N0 ?N0 ?N0 ?N0 ?N0 ?N0 ?N0 ?N0 ?N0 ?N0 ?N0 ?N0 ?N0 ?N0 ?N0 ?N0 ?N0 ?N0 ?N0 ?N0 ?N0 ?N0 ?N0 ?N0 ?N0 ?N0 ?N0 ?N0 ? ?Q- ?Q- ?Q- ?Q- ?Q- ?Q- ?Q- ?Q- ?Q- ?Q- ?Q- ?Q- ?Q- ?Q- ?Q- ?Q- ?Q- ?Q- ?Q- ?Q- ?Q- ?Q- ?Q- ?Q- ?Q- ?Q- ?Q- ?Q- ?Q- ?Q- ?Q- ?Q- ?Q- ?Q- ?Q- ?Q- ?Q- ?Q- ?Q- ?Q- ?Q- ?Q- ?Q- ?Q- ?Q- ?Q- ?Q- ?Q- ?Q- ?Q- ?Q- ?Q- ?Q- ?Q- ?Q- ?Q- ?Q- ?Q- ?Q- ?- ?O- ?O- ?O- ?O- ?O- ?O- ?O- ?O- ?O- ?O- ?O- ?O- ?O- ?O- ?O- ?O- ?O- ?O- ?O- ?O- ?O- ?O- ?O- ?O- ?O- ?O- ?O- ?O- ?O- ?O- ?O- ?O- ?O- ?O- ?O- ?O- ?O- ?O- ?O- ?O- ?O- ?O- ?O- ?O- ?O- ?O- ?O- ?O- ?O- ?O- ?O- ?O- ?O- ?O- ?O- ?O- ?O- ?O- ?O- ? ?O* ?O* ?O* ?O* ?O* ?O* ?O* ?O* ?O* ?O* ?O* ?O* ?O* ?O* ?O* ?O* ?O* ?O* ?O* ?O* ?O* ?O* ?O* ?O* ?O* ?O* ?O* ?O* ?O* ?O* >O* >O* >O* >O* >O* >O* >O* >O* >O* >O* >O* >O* >O* >O* >O* >O* >O* >O* >O* >O* >O* >O* >O* >O* >O* >O* >O* >O* >O* * <Q* <Q* <Q* <Q* <Q* <Q* <Q* <Q* <Q* <Q* <Q* <Q* <Q* <Q* <Q* <Q* <Q* <Q* <Q* <Q* <Q* <Q* <Q* <Q* <Q* <Q* <Q* <Q* <Q* Q* >Q* >Q* >Q* >Q* >Q* >Q* >Q* >Q* >Q* >Q* >Q* >Q* >Q* >Q* >Q* >Q* >Q* >Q* >Q* >Q* >Q* >Q* >Q* >Q* >Q* >Q* >Q* >Q* >Q* Q @Q& @Q& @Q& @Q& @Q& @Q& @Q& @Q& @Q& @Q& @Q& @Q& @Q& @Q& @Q& @Q& @Q& @Q& @Q& @Q& @Q& @Q& @Q& @Q& @Q& @Q& @Q& @Q& @Q& Q& BQ& BQ& BQ& BQ& BQ& BQ& BQ& BQ& BQ& BQ& BQ& BQ& BQ& BQ& BQ& BQ& BQ& BQ& BQ& BQ& BQ& BQ& BQ& BQ& BQ& BQ& BQ& BQ& BQ& Q& CQ& CQ& CQ& CQ& CQ& CQ& CQ& CQ& CQ& CQ& CQ& CQ& CQ& CQ& CQ& CQ& CQ& CQ& CQ& CQ& CQ& CQ& CQ& CQ& CQ& CQ& CQ& CQ& CQ& Q& EQ& EQ& EQ& EQ& EQ& EQ& EQ& EQ& EQ& EQ& EQ& EQ& EQ& EQ& EQ& EQ& EQ& EQ& EQ& EQ& EQ& EQ& EQ& EQ& EQ& EQ& EQ& EQ& EQ& Q FQ+ FQ+ FQ+ FQ+ FQ+ FQ+ FQ+ FQ+ FQ+ FQ+ FQ+ FQ+ FQ+ FQ+ FQ+ FQ+ FQ+ FQ+ FQ+ FQ+ FQ+ FQ+ FQ+ FQ+ FQ+ FQ+ FQ+ FQ+ FQ+ FQ+ FQ+ FQ+ FQ+ FQ+ FQ+ FQ+ FQ+ FQ+ FQ+ FQ+ FQ+ FQ+ FQ+ FQ+ FQ+ FQ+ FQ+ FQ+ FQ+ FQ+ FQ+ FQ+ FQ+ FQ+ FQ+ FQ+ FQ+ FQ+ FQ+ + HO+ HO+ HO+ HO+ HO+ HO+ HO+ HO+ HO+ HO+ HO+ HO+ HO+ HO+ HO+ HO+ HO+ HO+ HO+ HO+ HO+ HO+ HO+ HO+ HO+ HO+ HO+ HO+ HO+ O+ FO+ FO+ FO+ FO+ FO+ FO+ FO+ FO+ FO+ FO+ FO+ FO+ FO+ FO+ FO+ FO+ FO+ FO+ FO+ FO+ FO+ FO+ FO+ FO+ FO+ FO+ FO+ FO+ FO+  ET3 ET3 ET3 ET3 ET3 ET3 ET3 ET3 ET3 ET3 ET3 ET3 ET3 ET3 ET3 ET3 ET3 ET3 ET3 ET3 ET3 ET3 ET3 ET3 ET3 ET3 ET3 ET3 ET3 T3 FT3 FT3 FT3 FT3 FT3 FT3 FT3 FT3 FT3 FT3 FT3 FT3 FT3 FT3 FT3 FT3 FT3 FT3 FT3 FT3 FT3 FT3 FT3 FT3 FT3 FT3 FT3 FT3 FT3 T3 HT3 HT3 HT3 HT3 HT3 HT3 HT3 HT3 HT3 HT3 HT3 HT3 HT3 HT3 HT3 HT3 HT3 HT3 HT3 HT3 HT3 HT3 HT3 HT3 HT3 HT3 HT3 HT3 HT3 HT3 HT3 HT3 HT3 HT3 HT3 HT3 HT3 HT3 HT3 HT3 HT3 HT3 HT3 HT3 HT3 HT3 HT3 HT3 HT3 HT3 HT3 HT3 HT3 HT3 HT3 HT3 HT3 HT3 HT3  CR2 CR2 CR2 CR2 CR2 CR2 CR2 CR2 CR2 CR2 CR2 CR2 CR2 CR2 CR2 CR2 CR2 CR2 CR2 CR2 CR2 CR2 CR2 CR2 CR2 CR2 CR2 CR2 CR2 2 BQ2 BQ2 BQ2 BQ2 BQ2 BQ2 BQ2 BQ2 BQ2 BQ2 BQ2 BQ2 BQ2 BQ2 Q2 CR2 CR2 CR2 CR2 CR2 CR2 CR2 CR2 CR2 CR2 CR2 CR2 CR2 CR2 R2 BQ2 BQ2 BQ2 BQ2 BQ2 BQ2 BQ2 BQ2 BQ2 Q2 CQ2 CQ2 CQ2 CQ2 CQ2 CR2 CR2 CR2 CR2 R2 BR2 BR2 BR2 BR2 BR2 BR2 BR2 BR2 BR2 R2 CQ2 CQ2 CQ2 CQ2 CQ2 CQ2 CQ2 CQ2 CQ2 Q2 BQ2 BQ2 BQ2 BQ2 BQ2 BR2 BR2 BR2 BR2 R2 CR2 CR2 CR2 CR2 CR2 CR2 CR2 CR2 CR2 R BQ0 BQ0 BQ0 BQ0 BQ0 BQ0 BQ0 BQ0 BQ0 0 CR0 CR0 CR0 CR0 CR0 CR0 CR0 CR0 CR0 0 BQ0 BQ0 BQ0 BQ0 BQ0 BQ0 BQ0 BQ0 BQ0 0 CR0 CR0 CR0 CR0 CR0 CR0 CR0 CR0 CR0 0 BQ0 BQ0 BQ0 BQ0 BQ0 BQ0 BQ0 BQ0 BQ0 0 CR0 CR0 CR0 CR0 CR0 CR0 CR0 CR0 CR0 0 BQ0 BQ0 BQ0 BQ0 BQ0 BQ0 BQ0 BQ0 BQ0 0 CR0 CR0 CR0 CR0 CR0 CR0 CR0 CR0 CR0 0 BQ0 BQ0 BQ0 BQ0 BQ0 BQ0 BQ0 BQ0 BQ0 0 CR0 CR0 CR0 CR0 CR0 CR0 CR0 CR0 CR0 0 BQ0 BQ0 BQ0 BQ0 BQ0 BQ0 BQ0 BQ0 BQ0 0 CR0 CR0 CR0 CR0 CR0 CR0 CR0 CR0 CR0  BQ2 BQ2 BQ2 BQ2 BQ2 BQ2 BQ2 BQ2 BQ2 2 CR2 CR2 CR2 CR2 CR2 CR2 CR2 CR2 CR2 2 BQ2 BQ2 BQ2 BQ2 BQ2 BQ2 BQ2 BQ2 BQ2 2 CR2 CR2 CR2 CR2 CR2 CR2 CR2 CR2 CR2 2 BQ2 BQ2 BQ2 BQ2 BQ2 BQ2 BQ2 BQ2 BQ2 2 CR2 CR2 CR2 CR2 CR2 CR2 CR2 CR2 CR2 2 BQ2 BQ2 BQ2 BQ2 BQ2 BQ2 BQ2 BQ2 BQ2 2 CR2 CR2 CR2 CR2 CR2 CR2 CR2 CR2 CR2 2 BQ2 BQ2 BQ2 BQ2 BQ2 BQ2 BQ2 BQ2 BQ2 2 CR2 CR2 CR2 CR2 CR2 CR2 CR2 CR2 CR2 2 BQ2 BQ2 BQ2 BQ2 BQ2 BQ2 BQ2 BQ2 BQ2 2 CR2 CR2 CR2 CR2 CR2 CR2 CR2 CR2 CR2  CO& CO& CO& CO& CO& CO& CO& CO& CO& CO& CO& CO& CO& CO& CO& CO& CO& CO& CO& CO& CO& CO& CO& CO& CO& CO& CO& CO& CO& CO& CO& CO& CO& CO& CO& CO& CO& CO& CO& CO& CO& CO& CO& CO& CO& CO& CO& CO& CO& CO& CO& CO& CO& CO& CO& CO& CO& CO& CO& CO& CO& CO& CO& CO& CO& CO& CO& CO& CO& CO& CO& CO& CO& CO& CO& CO& CO& CO& CO& CO& CO& CO& CO& CO& CO& CO& CO& CO& CO& CO& CO& CO& CO& CO& CO& CO& CO& CO& CO& CO& CO& CO& CO& CO& CO& CO& CO& CO& CO& CO& CO& CO& CO& CO& CO& CO& CO& CO& CO& O CO+ CO+ CO+ CO+ CO+ CO+ CO+ CO+ CO+ CO+ CO+ CO+ CO+ CO+ CO+ CO+ CO+ CO+ CO+ CO+ CO+ CO+ CO+ CO+ CO+ CO+ CO+ CO+ CO+ CO+ CO+ CO+ CO+ CO+ CO+ CO+ CO+ CO+ CO+ CO+ CO+ CO+ CO+ CO+ CO+ CO+ CO+ CO+ CO+ CO+ CO+ CO+ CO+ CO+ CO+ CO+ CO+ CO+ CO+ CO+ CO+ CO+ CO+ CO+ CO+ CO+ CO+ CO+ CO+ CO+ CO+ CO+ CO+ CO+ CO+ CO+ CO+ CO+ CO+ CO+ CO+ CO+ CO+ CO+ CO+ CO+ CO+ CO+ CO+ CO+ CO+ CO+ CO+ CO+ CO+ CO+ CO+ CO+ CO+ CO+ CO+ CO+ CO+ CO+ CO+ CO+ CO+ CO+ CO+ CO+ CO+ CO+ CO+ CO+ CO+ CO+ CO+ CO+ CO+ CO CO2 CO2 CO2 CO2 CO2 CO2 CO2 CO2 CO2 CO2 CO2 CO2 CO2 CO2 CO2 CO2 CO2 CO2 CO2 CO2 CO2 CO2 CO2 CO2 CO2 CO2 CO2 CO2 CO2 CO2 CO2 CO2 CO2 CO2 CO2 CO2 CO2 CO2 CO2 CO2 CO2 CO2 CO2 CO2 CO2 CO2 CO2 CO2 CO2 CO2 CO2 CO2 CO2 CO2 CO2 CO2 CO2 CO2 CO2 CO2 CO2 CO2 CO2 CO2 CO2 CO2 CO2 CO2 CO2 CO2 CO2 CO2 CO2 CO2 CO2 CO2 CO2 CO2 CO2 CO2 CO2 CO2 CO2 CO2 CO2 CO2 CO2 CO2 CO2 CO2 CO2 CO2 CO2 CO2 CO2 CO2 CO2 CO2 CO2 CO2 CO2 CO2 CO2 CO2 CO2 CO2 CO2 CO2 CO2 CO2 CO2 CO2 CO2 CO2 CO2 CO2 CO2 CO2 CO2 CO CO7 CO7 CO7 CO7 CO7 CO7 CO7 CO7 CO7 CO7 CO7 CO7 CO7 CO7 CO7 CO7 CO7 CO7 CO7 CO7 CO7 CO7 CO7 CO7 CO7 CO7 CO7 CO7 CO7 CO7 CO7 CO7 CO7 CO7 CO7 CO7 CO7 CO7 CO7 CO7 CO7 CO7 CO7 CO7 CO7 CO7 CO7 CO7 CO7 CO7 CO7 CO7 CO7 CO7 CO7 CO7 CO7 CO7 CO7 CO7 CO7 CO7 CO7 CO7 CO7 CO7 CO7 CO7 CO7 CO7 CO7 CO7 CO7 CO7 CO7 CO7 CO7 CO7 CO7 CO7 CO7 CO7 CO7 CO7 CO7 CO7 CO7 CO7 CO7 CO7 CO7 CO7 CO7 CO7 CO7 CO7 CO7 CO7 CO7 CO7 CO7 CO7 CO7 CO7 CO7 CO7 CO7 CO7 CO7 CO7 CO7 CO7 CO7 CO7 CO7 CO7 CO7 CO7 CO7 CO CO9 CO9 CO9 CO9 CO9 CO9 CO9 CO9 CO9 CO9 CO9 CO9 CO9 CO9 CO9 CO9 CO9 CO9 CO9 CO9 CO9 CO9 CO9 CO9 CO9 CO9 CO9 CO9 CO9 CO9 CO9 CO9 CO9 CO9 CO9 CO9 CO9 CO9 CO9 CO9 CO9 CO9 CO9 CO9 CO9 CO9 CO9 CO9 CO9 CO9 CO9 CO9 CO9 CO9 CO9 CO9 CO9 CO9 CO9 CO9 CO9 CO9 CO9 CO9 CO9 CO9 CO9 CO9 CO9 CO9 CO9 CO9 CO9 CO9 CO9 CO9 CO9 CO9 CO9 CO9 CO9 CO9 CO9 CO9 CO9 CO9 CO9 CO9 CO9 CO9 CO9 CO9 CO9 CO9 CO9 CO9 CO9 CO9 CO9 CO9 CO9 CO9 CO9 CO9 CO9 CO9 CO9 CO9 CO9 CO9 CO9 CO9 CO9 CO9 CO9 CO9 CO9 CO9 CO9 CO CO9 CO9 CO9 CO9 CO9 CO9 CO9 CO9 CO9 CO9 CO9 CO9 CO9 CO9 CO9 CO9 CO9 CO9 CO9 CO9 CO9 CO9 CO9 CO9 CO9 CO9 CO9 CO9 CO9 CO9 CO9 CO9 CO9 CO9 CO9 CO9 CO9 CO9 CO9 CO9 CO9 CO9 CO9 CO9 CO9 CO9 CO9 CO9 CO9 CO9 CO9 CO9 CO9 CO9 CO9 CO9 CO9 CO9 CO9 CO CO: CO: CO: CO: CO: CO: CO: CO: CO: CO: CO: CO: CO: CO: CO CO9 CO9 CO9 CO9 CO9 CO9 CO9 CO9 CO9 CO9 CO9 CO9 CO9 CO9 CO CO7 CO7 CO7 CO7 CO7 CO7 CO7 CO7 CO7 CO7 CO7 CO7 CO7 CO7 CO CO9 CO9 CO9 CO9 CO9 CO9 CO9 CO9 CO9 CO9 CO9 CO9 CO9 CO9 CO CO: CO: CO: CO: CO: CO: CO: CO: CO: CO: CO: CO: CO: CO: CO: CO: CO: CO: CO: CO: CO: CO: CO: CO: CO: CO: CO: CO: CO: CO: CO: CO: CO: CO: CO: CO: CO: CO: CO: CO: CO: CO: CO: CO: CO: CO: CO: CO: CO: CO: CO: CO: CO: CO: CO: CO: CO: CO: CO: CO: CO: CO: CO: CO: CO: CO: CO: CO: CO: CO: CO: CO: CO: CO: CO: CO: CO: CO: CO: CO: CO: CO: CO: CO: CO: CO: CO: CO: CO: CO: CO: CO: CO: CO: CO: CO: CO: CO: CO: CO: CO: CO: CO: CO: CO: CO: CO: CO: CO: CO: CO: CO: CO: CO: CO: CO: CO: CO: CO: CO 4 4 4 4 4 4 4 4 4 4 4 4 4 4 4 4 4 4 4 4 4 4 4 4 4 4 4 4 4 4 4 4 4 4 4 4 4 4 4 4 4 4 4 4 4 4 4 4 4 4 4 4 4 4 4 4 4 4 4 4 4 4 4 4 4 4 4 4 4 4 4 4 4 4 4 4 4 4 4 4 4 4 4 4 4 4 4 4 4 4 4 4 4 4 4 4 4 4 4 4 4 4 4 4 4 4 4 4 4 4 4 4 4 4 4 4 4 4 4  2 2 2 2 2 2 2 2 2 2 2 2 2 2 2 2 2 2 2 2 2 2 2 2 2 2 2 2 2 2 2 2 2 2 2 2 2 2 2 2 2 2 2 2 2 2 2 2 2 2 2 2 2 2 2 2 2 2 2 2 2 2 2 2 2 2 2 2 2 2 2 2 2 2 2 2 2 2 2 2 2 2 2 2 2 2 2 2 2 2 2 2 2 2 2 2 2 2 2 2 2 2 2 2 2 2 2 2 2 2 2 2 2 2 2 2 2 2 2  C4 C4 C4 C4 C4 C4 C4 C4 C4 C4 C4 C4 C4 C4 C4 C4 C4 C4 C4 C4 C4 C4 C4 C4 C4 C4 C4 C4 C4 C4 C4 C4 C4 C4 C4 C4 C4 C4 C4 C4 C4 C4 C4 C4 C4 C4 C4 C4 C4 C4 C4 C4 C4 C4 C4 C4 C4 C4 C4 C4 C4 C4 C4 C4 C4 C4 C4 C4 C4 C4 C4 C4 C4 C4 C4 C4 C4 C4 C4 C4 C4 C4 C4 C4 C4 C4 C4 C4 C4 C4 C4 C4 C4 C4 C4 C4 C4 C4 C4 C4 C4 C4 C4 C4 C4 C4 C4 C4 C4 C4 C4 C4 C4 C4 C4 C4 C4 C4 C4  E5 E5 E5 E5 E5 E5 E5 E5 E5 E5 E5 E5 E5 E5 E5 E5 E5 E5 E5 E5 E5 E5 E5 E5 E5 E5 E5 E5 E5 E5 E5 E5 E5 E5 E5 E5 E5 E5 E5 E5 E5 E5 E5 E5 E5 E5 E5 E5 E5 E5 E5 E5 E5 E5 E5 E5 E5 E5 E5 E5 E5 E5 E5 E5 E5 E5 E5 E5 E5 E5 E5 E5 E5 E5 E5 E5 E5 E5 E5 E5 E5 E5 E5 E5 E5 E5 E5 E5 E5 E5 E5 E5 E5 E5 E5 E5 E5 E5 E5 E5 E5 E5 E5 E5 E5 E5 E5 E5 E5 E5 E5 E5 E5 E5 E5 E5 E5 E5 E5  E5 E5 E5 E5 E5 E5 E5 E5 E5 E5 E5 E5 E5 E5 E5 E5 E5 E5 E5 E5 E5 E5 E5 E5 E5 E5 E5 E5 E5 E5 E5 E5 E5 E5 E5 E5 E5 E5 E5 E5 E5 E5 E5 E5 E5 E5 E5 E5 E5 E5 E5 E5 E5 E5 E5 E5 E5 E5 E5 5 F F F F F7 F7 F7 F7 F7 F7 F7 F7 F7 F7 7 E7 E7 E7 E E5 E5 E5 E5 E5 E5 E5 E5 E5 E5 5 C5 C5 C5 C C4 C4 C4 C4 C4 C4 C4 C4 C4 C4 4 E4 E4 E4 E E5 E5 E5 E5 E5 E5 E5 E5 E5 E5 5 F5 F5 F5 F F7 F7 F7 F7 F7 F7 F7 F7 F7 F7 F7 F7 F7 F7 F7 F7 F7 F7 F7 F7 F7 F7 F7 F7 F7 F7 F7 F7 F7 F7 F7 F7 F7 F7 F7 F7 F7 F7 F7 F7 F7 F7 F7 F7 F7 F7 F7 F7 F7 F7 F7 F7 F7 F7 F7 F7 F7 F7 F7 F7 F7 F7 F7 F7 F7 F7 F7 F7 F7 F7 F7 F7 F7 F7 F7 F7 F7 F7 F7 F7 F7 F7 F7 F7 F7 F7 F7 F7 F7 F7 F7 F7 F7 F7 F7 F7 F7 F7 F7 F7 F7 F7 F7 F7 F7 F7 F7 F7 F7 F7 F7 F7 F7 F7 F7 7 A7 A7 A7 A A0 A0 A0 A0 A0 A0 A0 A0 A0 A0 A0 A0 A0 A0 A0 A0 A0 A0 A0 A0 A0 A0 A0 A0 A0 A0 A0 A0 A0 A0 A0 A0 A0 A0 A0 A0 A0 A0 A0 A0 A0 A0 A0 A0 A0 A0 A0 A0 A0 A0 A0 A0 A0 A0 A0 0 @0 @0 @0 @0 @0 @0 @0 @0 @0 @0 @0 @0 @0 @0 @0 @0 @0 @0 @0 @0 @0 @0 @0 @0 @0 @0 @0 @0 @0 @0 @0 @0 @0 @0 @0 @0 @0 @0 @0 @0 @0 @0 @0 @0 @0 @0 @0 @0 @0 @0 @0 @0 @0 @0 @0 @0 @0 @0 @0 @0 @0 @0 @0 @ @. @. @. @. @. @. @. @. @. @. @. @. @. @. @. @. @. @. @. @. @. @. @. @. @. @. @. @. @. @. @. @. @. @. @. @. @. @. @. @. @. @. @. @. @. @. @. @. @. @. @. @. @. @. @. @. @. @. @. @ @- @- @- @- @- @- @- @- @- @- @- @- @- @- @- @- @- @- @- @- @- @- @- @- @- @- @- @- @- @- @- @- @- @- @- @- @- @- @- @- @- @- @- @- @- @- @- @- @- @- @- @- @- @- @- @- @F- @F- @F- @F @F+ @F+ @F+ @F+ @F+ @F+ @F+ @F+ @F+ @F+ @F+ @F+ @F+ @F+ @F+ @F+ @F+ @F+ @F+ @F+ @F+ @F+ @F+ @F+ @F+ @F+ @F+ @F+ @F+ @F+ @F+ @F+ @F+ @F+ @F+ @F+ @F+ @F+ @F+ @F+ @F+ @F+ @F+ @F+ @F+ @F+ @F+ @F+ @F+ @F+ @F+ @F+ @F+ @F+ @F+ @F+ @F+ @F+ @F+ @F+ @F+ @F+ @F+ @F+ @F+ @F+ @F+ @F+ @F+ @F+ @F+ @F+ @F+ @F+ @F+ @F+ @F+ @F+ @F+ @F+ @F+ @F+ @F+ @F+ @F+ @F+ @F+ @F+ @F+ @F+ @F+ @F+ @F+ @F+ @F+ @F+ @F+ @F+ @F+ @F+ @F+ @F+ @F+ @F+ @F+ @F+ @F+ @F+ @F+ @F+ @F+ @F+ @F+ @F+ @F+ @+ @H+ @H+ @H+ @H @H @H @H @H @H @H @H @H @H @H @H @H @H @H @H @H @H @H @H @H @H @H @H @H @H @H @H @H @H @H @H @H @H @H @H @H @H @H @H @H @H @H @H @H @H @H @H @H @H @H @H @H @H @H @H @H @H @H @H @H @H @H @H @H @H @H @H @H @H @H @H @H @H @H @H @H @H @H @H @H @H @H @H @H @H @H @H @H @H @H @H @H @H @H @H @H @H @H @H @H @H @H @H @H @H @H @H @H @H @H @H @H @H @H @H @ @H-- @H-- @H-- @H- @H- @H- @H- @H- @H- @H- @H- @H- @H- @H- @H- @H- @H- @H- @H- @H- @H- @H- @H- @H- @H- @H- @H- @H- @H- @H- @H- @H- @H- @H- @H- @H- @H- @H- @H- @H- @H- @H- @H- @H- @H- @H- @H- @H- @H- @H- @H- @H- @H- @H- @H- @H- @H- @H- @H- @- @J @J @J @J @J. @J. @J. @J. @J. @J. @J. @J. @J. @J. @. @H. @H. @H. @H @H- @H- @H- @H- @H- @H- @H- @H- @H- @H- @- @F- @F- @F- @F @F+ @F+ @F+ @F+ @F+ @F+ @F+ @F+ @F+ @F+ @+ @H+ @H+ @H+ @H @H- @H- @H- @H- @H- @H- @H- @H- @H- @H- @- @J- @J- @J- @J @J. @J. @J. @J. @J. @J. @J. @J. @J. @J. @J. @J. @J. @J. @J. @J. @J. @J. @J. @J. @J. @J. @J. @J. @J. @J. @J. @J. @J. @J. @J. @J. @J. @J. @J. @J. @J. @J. @J. @J. @J. @J. @J. @J. @J. @J. @J. @J. @J. @J. @J. @J. @J. @J. @J. @J. @J. @J. @J. @J. @J. @J. @J. @J. @J. @J. @J. @J. @J. @J. @J. @J. @J. @J. @J. @J. @J. @J. @J. @J. @J. @J. @J. @J. @J. @J. @J. @J. @J. @J. @J. @J. @J. @J. @J. @J. @J. @J. @J. @J. @J. @J. @J. @J. @J. @J. @J. @J. @J. @J. @J. @J. @J. @J. @J. @. @C. @C. @C. @C @C$ @C$ @C$ @C$ @C$ @C$ @C$ @C$ @C$ @C$ @C$ @C$ @C$ @C$ @C$ @C$ @C$ @C$ @C$ @C$ @C$ @C$ @C$ @C$ @C$ @C$ @C$ @C$ @C$ @C$ @C$ @C$ @C$ @C$ @C$ @C$ @C$ @C$ @C$ @C$ @C$ @C$ @C$ @C$ @C$ @C$ @C$ @C$ @C$ @C$ @C$ @C$ @C$ @C$ @C$ C$ CC$ CC$ CC$ CC$ CC$ CC$ CC$ CC$ CC$ CC$ CC$ CC$ CC$ CC$ CC$ CC$ CC$ CC$ CC$ CC$ CC$ CC$ CC$ CC$ CC$ CC$ CC$ CC$ CC$ CC$ CC$ CC$ CC$ CC$ CC$ CC$ CC$ CC$ CC$ CC$ CC$ CC$ CC$ CC$ CC$ CC$ CC$ CC$ CC$ CC$ CC$ CC$ CC$ CC$ CC$ CC$ CC$ CC$ CC$ $ FO$" FO$" FO$" FO" FO" FO" FO" FO" FO" FO" FO" FO" FO" FO" FO" FO" FO" FO" FO" FO" FO" FO" FO" FO" FO" FO" FO" FO" FO" FO" FO" FO" FO" FO" FO" FO" FO" FO" FO" FO" FO" FO" FO" FO" FO" FO" FO" FO" FO" FO" FO" FO" FO" FO" FO" FO" FO" FO" FO" O" EO" EO" EO" EO" EO" EO" EO" EO" EO" EO" EO" EO" EO" EO" EO" EO" EO" EO" EO" EO" EO" EO" EO" EO" EO" EO" EO" EO" EO" EO" EO" EO" EO" EO" EO" EO" EO" EO" EO" EO" EO" EO" EO" EO" EO" EO" EO" EO" EO" EO" EO" EO" EO" EO" EO" EO" EO" EO" EO"  CM CM CM CM CM$ CM$ CM$ CM$ CM$ CM$ CM$ CM$ CM$ CM$ CM$ CM$ CM$ CM$ CM$ CM$ CM$ CM$ CM$ CM$ CM$ CM$ CM$ CM$ CM$ C$ CL$ CL$ CL$ CL$ CL$ CL$ CL$ CL$ CL$ CL$ CL$ CL$ CL$ CL$ CL$ CL$ CL$ CL$ CL$ C$ CM$ CM$ CM$ CM$ CM$ CM$ CM$ CM$ CM$ M$ AM$ AM$ AM$ AM$ AM$ AM$ AM$ AM$ AM$ A$ AL$ AL$ AL$ AL$ AL$ AL$ AL$ AL$ AL$ AL$ AL$ AL$ AL$ AL$ AL$ AL$ AL$ AL$ AL$ A$ AM$ AM$ AM$ AM$ AM$ AM$ AM$ AM$ AM$ AM$ AM$ AM$ AM$ AM$ A$ AL$ AL$ AL$ AL$ AL$ AL$ AL$ AL$ AL$ AL$ AL$ AL$ AL$ AL$ $ @M$ @M$ @M$ @M$ @M$ @M$ @M$ @M$ @M$ @M$ @M$ @M$ @M$ @M$ @$ @L$ @L$ @L$ @L$ @L$ @L$ @L$ @L$ @L$ @L$ @L$ @L$ @L$ @L$ @$ @M$ @M$ @M$ @M$ @M$ @M$ @M$ @M$ @M$ @$ @L$ @L$ @L$ @L$ @L$ @L$ @L$ @L$ @L$ @$ @M$ @M$ @M$ @M$ @M$ @M$ @M$ @M$ @M$ $ >L$ >L$ >L$ >L$ >L$ >L$ >L$ >L$ >L$ >$ >M$ >M$ >M$ >M$ >M$ >M$ >M$ >M$ >M$ >$ >L$ >L$ >L$ >L$ >L$ >L$ >L$ >L$ >L$ >$ >M$ >M$ >M$ >M$ >M$ >M$ >M$ >M$ >M$ >$ >L$ >L$ >L$ >L$ >L$ >L$ >L$ >L$ >L$ >$ >M$ >M$ >M$ >M$ >M$ >M$ >M$ >M$ >M$ $ <L$ <L$ <L$ <L <L0 <L0 <L0 <L0 <L0 <0 <M0 <M0 <M0 <M0 <M0 <M0 <M0 <M0 <M0 <0 <L0 <L0 <L0 <L0 <L0 <L0 <L0 <L0 <L0 <0 <M0 <M0 <M0 <M0 <M0 <M0 <M0 <M0 <M0 <0 <L0 <L0 <L0 <L0 <L0 <L0 <L0 <L0 <L0 <0 <M0 <M0 <M0 <M0 <M0 <M0 <M0 <M0 <M0 0 :L0 :L0 :L0 :L0 :L0 :L0 :L0 :L0 :L0 :0 :M0 :M0 :M0 :M0 :M0 :M0 :M0 :M0 :M0 :0 :L0 :L0 :L0 :L0 :L0 :L0 :L0 :L0 :L0 :0 :M0 :M0 :M0 :M0 :M0 :M0 :M0 :M0 :M0 :M0 :M0 :M0 :M0 :M0 :M0 :L0 :L0 :L0 :L0 :L0 :L0 :L0 :L0 :L0 :L0 :L0 :L0 :L0 :L0 L0 9M0 9M0 9M0 9M0 9M0 9M0 9M0 9M0 9M0 9M0 9M0 9M0 9M0 9M0 9M0 9M0 9M0 9M0 9M0 9M0 9M0 9M0 9M0 9M0 9M0 9M0 9M0 9M0 9M0 9M0 9M0 9M0 9M0 9M0 9M0 9M0 9M0 9M0 9M0 9M0 9M0 9M0 9M0 9M0 9M0 9M0 9M0 9M0 9M0 9M0 9M0 9M0 9M0 9M0 9M0 9M0 9M0 9M0 9M0 M0 :M0 :M0 :M0 :M0 :M0 :M0 :M0 :M0 :M0 :M0 :M0 :M0 :M0 :M0 :M0 :M0 :M0 :M0 :M0 :M0 :M0 :M0 :M0 :M0 :M0 :M0 :M0 :M0 :M0 :M0 :M0 :M0 :M0 :M0 :M0 :M0 :M0 :M0 :M0 :M0 :M0 :M0 :M0 :M0 :M0 :M0 :M0 :M0 :M0 :M0 :M0 :M0 :M0 :M0 :M0 :M0 :M0 :M0 :M0 0 :M0 :M0 :M0 :M :M) :M) :M) :M) :M) :M) :M) :M) :M) :M) :M) :M) :M) :M) :M) :M) :M) :M) :M) :M) :M) :M) :M) :M) :M) :M) :M) :M) :M) :M) :M) :M) :M) :M) :M) :M) :M) :M) :M) :M) :M) :M) :M) :M) :M) :M) :M) :M) :M) :M) :M) :M) :M) :M) :M) ) 9H) 9H) 9H) 9H) 9H) 9H) 9H) 9H) 9H) 9H) 9H) 9H) 9H) 9H) H) :H) :H) :H) :H) :H) :H) :H) :H) :H) :H) :H) :H) :H) :H) H) 9H) 9H) 9H) 9H) 9H) 9H) 9H) 9H) 9H) 9H) 9H) 9H) 9H) 9H) H) :H) :H) :H) :H) :H) :H) :H) :H) :H) :H) :H) :H) :H) :H) ) 9K) 9K) 9K) 9K 9K0 9K0 9K0 9K0 9K0 9K0 9K0 9K0 9K0 9K0 K0 :K0 :K0 :K0 :K0 :K0 :K0 :K0 :K0 :K0 K0 9K0 9K0 9K0 9K0 9K0 9K0 9K0 9K0 9K0 K0 :K0 :K0 :K0 :K0 :K0 :K0 :K0 :K0 :K0 K0 9K0 9K0 9K0 9K0 9K0 9K0 9K0 9K0 9K0 K0 :K0 :K0 :K0 :K0 :0 :J0 :J0 :J0 :J0 J0 9J0 9J0 9J0 9J0 9J0 9J0 9J0 9J0 9J0 J0 :J0 :J0 :J0 :J0 :J0 :J0 :J0 :J0 :J0 J0 9J0 9J0 9J0 9J0 9J0 9J0 9J0 9J0 9J0 J0 :J0 :J0 :J0 :J0 :J0 :J0 :J0 :J0 :J0 J0 9J0 9J0 9J0 9J0 9J0 9J0 9J0 9J0 9J0 J0 :J0 :J0 :J0 :J0 :0 :H0 :H0 :H0 :H H5 9H5 9H5 9H5 9H5 9H5 9H5 9H5 9H5 9H5 H5 :H5 :H5 :H5 :H5 :H5 :H5 :H5 :H5 :H5 H5 9H5 9H5 9H5 9H5 9H5 9H5 9H5 9H5 9H5 H5 :H5 :H5 :H5 :H5 :H5 :H5 :H5 :H5 :H5 H5 9H5 9H5 9H5 9H5 9H5 9H5 9H5 9H5 9H5 H5 :H5 :H5 :H5 :H5 :5 :F5 :F5 :F5 :F5 F5 9F5 9F5 9F5 9F5 9F5 9F5 9F5 9F5 9F5 F5 :F5 :F5 :F5 :F5 :F5 :F5 :F5 :F5 :F5 F5 9F5 9F5 9F5 9F5 9F5 9F5 9F5 9F5 9F5 F5 :F5 :F5 :F5 :F5 :F5 :F5 :F5 :F5 :F5 F5 9F5 9F5 9F5 9F5 9F5 9F5 9F5 9F5 9F5 F5 F5 F5 F5 F5 5 7E5 7E5 7E5 7E 7E3 7E3 7E3 7E3 7E3 7E3 7E3 7E3 7E3 7E3 7E3 7E3 7E3 7E3 7E3 7E3 7E3 7E3 7E3 7E3 7E3 7E3 7E3 7E3 7E3 7E3 7E3 7E3 7E3 7E3 7E3 7E3 7E3 7E3 7E3 7E3 7E3 7E3 7E3 7E3 7E3 7E3 7E3 7E3 7E3 7E3 7E3 7E3 7E3 7E3 7E3 7E3 7E3 7E3 7E3 73 7F3 7F3 7F3 7F3 7F3 7F3 7F3 7F3 7F3 7F3 7F3 7F3 7F3 7F3 7F3 7F3 7F3 7F3 7F3 7F3 7F3 7F3 7F3 7F3 7F3 7F3 7F3 7F3 7F3 7F3 7F3 7F3 7F3 7F3 7F3 7F3 7F3 7F3 7F3 7F3 7F3 7F3 7F3 7F3 7F3 7F3 7F3 7F3 7F3 7F3 7F3 7F3 7F3 7F3 7F3 7F3 7F3 7F3 7F3 73 5H3 5H3 5H3 5H 5H3 5H3 5H3 5H3 5H3 5H3 5H3 5H3 5H3 5H3 5H3 5H3 5H3 5H3 5H3 5H3 5H3 5H3 5H3 5H3 5H3 5H3 5H3 5H3 5H3 5H3 5H3 5H3 5H3 5H3 5H3 5H3 5H3 5H3 5H3 5H3 5H3 5H3 5H3 5H3 5H3 5H3 5H3 5H3 5H3 5H3 5H3 5H3 5H3 5H3 5H3 5H3 5H3 5H3 5H3 53 5E3 5E3 5E3 5E3 5E3 5E3 5E3 5E3 5E3 5E3 5E3 5E3 5E3 5E3 5E3 5E3 5E3 5E3 5E3 5E3 5E3 5E3 5E3 5E3 5E3 5E3 5E3 5E3 5E3 5E3 5E3 5E3 5E3 5E3 5E3 5E3 5E3 5E3 5E3 5E3 5E3 5E3 5E3 5E3 5E3 5E3 5E3 5E3 5E3 5E3 5E3 5E3 5E3 5E3 5E3 5E3 5E3 5E3 5E3 53 5C3 5C3 5C3 5C 5C2 5C2 5C2 5C2 5C2 5C2 5C2 5C2 5C2 5C2 5C2 5C2 5C2 5C2 5C2 5C2 5C2 5C2 5C2 5C2 5C2 5C2 5C2 5C2 5C2 5C2 5C2 5C2 5C2 5C2 5C2 5C2 5C2 5C2 5C2 5C2 5C2 5C2 5C2 5C2 5C2 5C2 5C2 5C2 5C2 5C2 5C2 5C2 5C2 5C2 5C2 5C2 5C2 5C2 5C2 52 5A2 5A2 5A2 5A2 5A2 5A2 5A2 5A2 5A2 5A2 5A2 5A2 5A2 5A2 5A2 5A2 5A2 5A2 5A2 5A2 5A2 5A2 5A2 5A2 5A2 5A2 5A2 5A2 5A2 5A2 5A2 5A2 5A2 5A2 5A2 5A2 5A2 5A2 5A2 5A2 5A2 5A2 5A2 5A2 5A2 5A2 5A2 5A2 5A2 5A2 5A2 5A2 5A2 5A2 5A2 5A2 5A2 5A2 5A2 52 F2 F2 F2 F F2 F2 F2 F2 F2 F2 F2 F2 F2 F2 F2 F2 F2 F2 F2 F2 F2 F2 F2 F2 F2 F2 F2 F2 F2 F2 F2 F2 F2 F2 F2 F2 F2 F2 F2 F2 F2 F2 F2 F2 F2 F2 F2 F2 F2 F2 F2 F2 F2 F2 F2 F2 F2 F2 F2 2 H2 H2 H2 H2 H2 H2 H2 H2 H2 H2 H2 H2 H2 H2 H2 H2 H2 H2 H2 H2 H2 H2 H2 H2 H2 H2 H2 H2 H2 H2 H2 H2 H2 H2 H2 H2 H2 H2 H2 H2 H2 H2 H2 H2 H2 H2 H2 H2 H2 H2 H2 H2 H2 H2 H2 H2 H2 H2 H2 2 F2 F2 F2 F F0 F0 F0 F0 F0 F0 F0 F0 F0 F0 F0 F0 F0 F0 F0 F0 F0 F0 F0 F0 F0 F0 F0 F0 F0 F0 F0 F0 F0 F0 F0 F0 F0 F0 F0 F0 F0 F0 F0 F0 F0 F0 F0 F0 F0 F0 F0 F0 F0 F0 F0 F0 F0 F0 F0 0 H0 H0 H0 H0 H0 H0 H0 H0 H0 H0 H0 H0 H0 H0 H0 H0 H0 H0 H0 H0 H0 H0 H0 H0 H0 H0 H0 H0 H0 H0 H0 H0 H0 H0 H0 H0 H0 H0 H0 H0 H0 H0 H0 H0 H0 H0 H0 H0 H0 H0 H0 H0 H0 H0 H0 H0 H0 H0 H0 0 AJ0 AJ0 AJ0 AJ AJ. AJ. AJ. AJ. AJ. AJ. AJ. AJ. AJ. AJ. A. AH. AH. AH. AH. AH. AH. AH. AH. AH. AH. AH. AH. AH. AH. A. AJ. AJ. AJ. AJ. AJ. AJ. AJ. AJ. AJ. A. AH. AH. AH. AH. AH. AH. AH. AH. AH. A. AJ. AJ. AJ. AJ. AJ. AJ. AJ. AJ. AJ. A. AH. AH. AH. AH. AH. AH. AH. AH. AH. A. AJ. AJ. AJ. AJ. AJ. AJ. AJ. AJ. AJ. A. AH. AH. AH. AH. AH. AH. AH. AH. AH. A. AJ. AJ. AJ. AJ. AJ. AJ. AJ. AJ. AJ. A. AH. AH. AH. AH. AH. AH. AH. AH. AH. A. AJ. AJ. AJ. AJ. AJ. AJ. AJ. AJ. AJ. A. AH. AH. AH. AH AH- AH- AH- AH- AH- A- AJ- AJ- AJ- AJ- AJ- AJ- AJ- AJ- AJ- A- AH- AH- AH- AH- AH- AH- AH- AH- AH- A- AJ- AJ- AJ- AJ- AJ- AJ- AJ- AJ- AJ- A- AH- AH- AH- AH- AH- AH- AH- AH- AH- A- AJ- AJ- AJ- AJ- AJ- AJ- AJ- AJ- AJ- A- AH- AH- AH- AH- AH- AH- AH- AH- AH- A- AJ- AJ- AJ- AJ- AJ- AJ- AJ- AJ- AJ- AJ- AJ- AJ- AJ- AJ- AJ- AJ- AJ- AJ- A- A- AF- AF- AF- AF- AF- AF- AF- AF- AF- AF- AF- AF- AF- AF- AF- AH- AH- AH- AH- AH- AH- AH- AH- AH- AH- AH- AH- AH- AH- AH- AJ- AJ- AJ- AJ AJ. AJ. AJ. AJ. AJ. AJ. AJ. AJ. AJ. AJ. AJ. AJ. AJ. AJ. AJ. AJ. AJ. AJ. AJ. AJ. AJ. AJ. AJ. AJ. AJ. AJ. AJ. AJ. AJ. AJ. AJ. AJ. AJ. AJ. AJ. AJ. AJ. AJ. AJ. AJ. AJ. AJ. AJ. AJ. AJ. AJ. AJ. AJ. AJ. AJ. AJ. AJ. AJ. AJ. AJ. AJ. AH. AH. AH. AH. AH. AH. AH. AH. AH. AH. AH. AH. AH. AH. AH. AH. AH. AH. AH. AH. AH. AH. AH. AH. AH. AH. AH. AH. AH. AH. AH. AH. AH. AH. AH. AH. AH. AH. AH. AH. AH. AH. AH. AH. AH. AH. AH. AH. AH. AH. AH. AH. AH. AH. AH. AH. AH. AH. AH. AH. AF. AF. AF. AF AF& AF& AF& AF& AF& AF& AF& AF& AF& AF& AF& AF& AF& AF& AF& AF& AF& AF& AF& AF& AF& AF& AF& AF& AF& AF& AF& AF& AF& AF& AF& AF& AF& AF& AF& AF& AF& AF& AF& AF& AF& AF& AF& AF& AF& AF& AF& AF& AF& AF& AF& AF& AF& AF& AF& AF& AH& AH& AH& AH& AH& AH& AH& AH& AH& AH& AH& AH& AH& AH& AH& AH& AH& AH& AH& AH& AH& AH& AH& AH& AH& AH& AH& AH& AH& AH& AJ& AJ& AJ& AJ& AJ& AJ& AJ& AJ& AJ& AJ& AJ& AJ& AJ& AJ& AJ& AJ& AJ& AJ& AJ& AJ& AJ& AJ& AJ& AJ& AJ& AJ& AJ& AJ& AJ& AJ& AC& AC& AC& AC AC' AC' AC' AC' AC' AC' AC' AC' AC' AC' AC' AC' AC' AC' AC' AC' AC' AC' AC' AC' AC' AC' AC' AC' AC' AC' AC' AC' AC' AC' AC' AC' AC' AC' AC' AC' AC' AC' AC' AC' AC' AC' AC' AC' AC' AC' AC' AC' AC' AC' AC' AC' AC' AC' AC' AC' DC' DC' DC' DC' DC' DC' DC' DC' DC' DC' DC' DC' DC' DC' DC' DC' DC' DC' DC' DC' DC' DC' DC' DC' DC' DC' DC' DC' DC' DC' DC' DC' DC' DC' DC' DC' DC' DC' DC' DC' DC' DC' DC' DC' DC' DC' DC' DC' DC' DC' DC' DC' DC' DC' DC' DC' DC' DC' DC' C' CC' CC' CC' CC' CC' CC' CC' CC' CC' CC' CC' CC' CC' CC' CC' CC' CC' CC' CC' CC' CC' CC' CC' CC' CC' CC' CC' CC' CC' CC' CC' CC' CC' CC' CC' CC' CC' CC' CC' CC' CC' CC' CC' CC' CC' CC' CC' CC' CC' CC' CC' CC' CC' CC' CC' CC' CC' CC' CC' C' AC' AC' AC' AC' AC' AC' AC' AC' AC' AC' AC' AC' AC' AC' AC' AC' AC' AC' AC' AC' AC' AC' AC' AC' AC' AC' AC' AC' AC' AC' AC' AC' AC' AC' AC' AC' AC' AC' AC' AC' AC' AC' AC' AC' AC' AC' AC' AC' AC' AC' AC' AC' AC' AC' AC' AC' AC' AC' AC' C' ?C' ?C' ?C' ?C ?C ?C ?C ?C ?C ?C ?C ?C ?C ?C ?C ?C ?C ?C ?C ?C ?C ?C ?C ?C ?C ?C ?C ?C ?C ?C ?C ?C ?C ?C ?C ?C ?C ?C ?C ?C ?C ?C ?C ?C ?C ?C ?C ?C ?C ?C ?C ?C ?C ?C ?C ?C ?C ?C ?C C >C >C >C >C >C >C >C >C >C >C >C >C >C >C >C >C >C >C >C >C >C >C >C >C >C >C >C >C >C >C >C >C >C >C >C >C >C >C >C >C >C >C >C >C >C >C >C >C >C >C >C >C >C >C >C >C >C >C >C C <C <C <C <C <C <C <C <C <C <C <C <C <C <C <C <C <C <C <C <C <C <C <C <C <C <C <C <C <C <C <C <C <C <C <C <C <C <C <C <C <C <C <C <C <C <C <C <C <C <C <C <C <C <C <C <C <C <C <C C ;C ;C ;C ;C ;C ;C ;C ;C ;C ;C ;C ;C ;C ;C ;C ;C ;C ;C ;C ;C ;C ;C ;C ;C ;C ;C ;C ;C ;C ;C ;C ;C ;C ;C ;C ;C ;C ;C ;C ;C ;C ;C ;C ;C ;C ;C ;C ;C ;C ;C ;C ;C ;C ;C ;C ;C ;C ;C ;C C 9C 9C 9C 9C 9C 9C 9C 9C 9C 9C 9C 9C 9C 9C 9C 9C 9C 9C 9C 9C 9C 9C 9C 9C 9C 9C 9C 9C 9C 9C 9C 9C 9C 9C 9C 9C 9C 9C 9C 9C 9C 9C 9C 9C 9C 9C 9C 9C 9C 9C 9C 9C 9C 9C 9C 9C 9C 9C 9C C 7C 7C 7C 7C 7C 7C 7C 7C 7C 7C 7C 7C 7C 7C 7C 7C 7C 7C 7C 7C 7C 7C 7C 7C 7C 7C 7C 7C 7C 7C 7C 7C 7C 7C 7C 7C 7C 7C 7C 7C 7C 7C 7C 7C 7C 7C 7C 7C 7C 7C 7C 7C 7C 7C 7C 7C 7C 7C 7C C 9C 9C 9C 9C 9C 9C 9C 9C 9C 9C 9C 9C 9C 9C 9C 9C 9C 9C 9C 9C 9C 9C 9C 9C 9C 9C 9C 9C 9C 9C 9C 9C 9C 9C 9C 9C 9C 9C 9C 9C 9C 9C 9C 9C 9C 9C 9C 9C 9C 9C 9C 9C 9C 9C 9C 9C 9C 9C 9C C ;C ;C ;C ;C ;C ;C ;C ;C ;C ;C ;C ;C ;C ;C ;C ;C ;C ;C ;C ;C ;C ;C ;C ;C ;C ;C ;C ;C ;C ;C ;C ;C ;C ;C ;C ;C ;C ;C ;C ;C ;C ;C ;C ;C ;C ;C ;C ;C ;C ;C ;C ;C ;C ;C ;C ;C ;C ;C ;C C <C <C <C <C <C3 <C3 <C3 <C3 <C3 <C3 <C3 <C3 <C3 <C3 <C3 <C3 <C3 <C3 <C3 <C3 <C3 <C3 <C3 <C3 <C3 <C3 <C3 <C3 <C3 <C3 <C3 <C3 <C3 <C3 <C3 <C3 <C3 <C3 <C3 <C3 <C3 <C3 <C3 <C3 <C3 <C3 <C3 <C3 <C3 <C3 <C3 <C3 <C3 <C3 <C3 <C3 <C3 <C3 <C3 C3 >C3 >C3 >C3 >C3 >C3 >C3 >C3 >C3 >C3 >C3 >C3 >C3 >C3 >C3 >C3 >C3 >C3 >C3 >C3 >C3 >C3 >C3 >C3 >C3 >C3 >C3 >C3 >C3 >C3 >C3 >C3 >C3 >C3 >C3 >C3 >C3 >C3 >C3 >C3 >C3 >C3 >C3 >C3 >C3 >C3 >C3 >C3 >C3 >C3 >C3 >C3 >C3 >C3 >C3 >C3 >C3 >C3 >C3 >C3 C3 <C3 <C3 <C3 <C <C2 <C2 <C2 <C2 <C2 <C2 <C2 <C2 <C2 <C2 <C2 <C2 <C2 <C2 <C2 <C2 <C2 <C2 <C2 <C2 <C2 <C2 <C2 <C2 <C2 <C2 <C2 <C2 <C2 <C2 <C2 <C2 <C2 <C2 <C2 <C2 <C2 <C2 <C2 <C2 <C2 <C2 <C2 <C2 <C2 <C2 <C2 <C2 <C2 <C2 <C2 <C2 <C2 <C2 <C2 C2 >C2 >C2 >C2 >C2 >C2 >C2 >C2 >C2 >C2 >C2 >C2 >C2 >C2 >C2 >C2 >C2 >C2 >C2 >C2 >C2 >C2 >C2 >C2 >C2 >C2 >C2 >C2 >C2 >C2 >C2 >C2 >C2 >C2 >C2 >C2 >C2 >C2 >C2 >C2 >C2 >C2 >C2 >C2 >C2 >C2 >C2 >C2 >C2 >C2 >C2 >C2 >C2 >C2 >C2 >C2 >C2 >C2 >C2 >C2 C2 ?C2 ?C2 ?C2 ?C ?C0 ?C0 ?C0 ?C0 ?C0 ?C0 ?C0 ?C0 ?C0 ?C0 C0 >C0 >C0 >C0 >C0 >C0 >C0 >C0 >C0 >C0 >C0 >C0 >C0 >C0 >C0 C0 ?C0 ?C0 ?C0 ?C0 ?C0 ?C0 ?C0 ?C0 ?C0 C0 >C0 >C0 >C0 >C0 >C0 >C0 >C0 >C0 >C0 C0 ?C0 ?C0 ?C0 ?C0 ?C0 ?C0 ?C0 ?C0 ?C0 C0 >A0 >A0 >A0 >A0 >A0 >A0 >A0 >A0 >A0 A0 ?A0 ?A0 ?A0 ?A0 ?A0 ?A0 ?A0 ?A0 ?A0 A0 >A0 >A0 >A0 >A0 >A0 >A0 >A0 >A0 >A0 A0 ?A0 ?A0 ?A0 ?A0 ?A0 ?A0 ?A0 ?A0 ?A0 A0 >A0 >A0 >A0 >A0 >A0 >A0 >A0 >A0 >A0 A0 ?A0 ?A0 ?A0 ?A0 ?A0 ?A0 ?A0 ?A0 ?A0 0 >?0 >?0 >?0 >? >?/ >?/ >?/ >?/ >?/ ?/ ??/ ??/ ??/ ??/ ??/ ??/ ??/ ??/ ??/ ?/ >?/ >?/ >?/ >?/ >?/ >?/ >?/ >?/ >?/ ?/ ??/ ??/ ??/ ??/ ??/ ??/ ??/ ??/ ??/ ?/ >?/ >?/ >?/ >?/ >?/ >?/ >?/ >?/ >?/ ?/ ??/ ??/ ??/ ??/ ??/ ??/ ??/ ??/ ??/ / <>/ <>/ <>/ <>/ <>/ <>/ <>/ <>/ <>/ <>/ <>/ <>/ <>/ <>/ <>/ <>/ <>/ <>/ <>/ <>/ <>/ <>/ <>/ <>/ <>/ <>/ <>/ <>/ <>/ >/ >>/ >>/ >>/ >>/ >>/ >>/ >>/ >>/ >>/ >>/ >>/ >>/ >>/ >>/ >>/ >>/ >>/ >>/ >>/ >>/ >>/ >>/ >>/ >>/ >>/ >>/ >>/ >>/ >>/ / ?</ ?</ ?</ ?< ?<0 ?<0 ?<0 ?<0 ?<0 ?<0 ?<0 ?<0 ?<0 ?<0 ?<0 ?<0 ?<0 ?<0 ?<0 ?<0 ?<0 ?<0 ?<0 ?<0 ?<0 ?<0 ?<0 ?<0 ?<0 ?<0 ?<0 ?<0 ?<0 ?<0 ?<0 ?<0 ?<0 ?<0 ?<0 ?<0 ?<0 ?<0 ?<0 ?<0 ?<0 ?<0 ?<0 ?<0 ?<0 ?<0 ?<0 ?<0 ?<0 ?<0 ?<0 ?<0 ?<0 ?<0 ?<0 0 >:0 >:0 >:0 >: >:2 >:2 >:2 >:2 >:2 >:2 >:2 >:2 >:2 >:2 >:2 >:2 >:2 >:2 >:2 >:2 >:2 >:2 >:2 >:2 >:2 >:2 >:2 >:2 >:2 >:2 >:2 >:2 >:2 >:2 >:2 >:2 >:2 >:2 >:2 >:2 >:2 >:2 >:2 >:2 >:2 >:2 >:2 >:2 >:2 >:2 >:2 >:2 >:2 >:2 >:2 >:2 >:2 >:2 >:2 2 <92 <92 <92 <9 <93 <93 <93 <93 <93 <93 <93 <93 <93 <93 <93 <93 <93 <93 <93 <93 <93 <93 <93 <93 <93 <93 <93 <93 <93 <93 <93 <93 <93 <93 <93 <93 <93 <93 <93 <93 <93 <93 <93 <93 <93 <93 <93 <93 <93 <93 <93 <93 <93 <93 <93 <93 <93 <93 <93 3 >73 >73 >73 >73 >73 >73 >73 >73 >73 >73 >73 >73 >73 >73 >73 >73 >73 >73 >73 >73 >73 >73 >73 >73 >73 >73 >73 >73 >73 73 ?73 ?73 ?73 ?73 ?73 ?73 ?73 ?73 ?73 ?73 ?73 ?73 ?73 ?73 ?73 ?73 ?73 ?73 ?73 ?73 ?73 ?73 ?73 ?73 ?73 ?73 ?73 ?73 ?73 3 953 953 953 953 953 953 953 953 953 953 953 953 953 953 953 953 953 953 953 953 953 953 953 953 953 953 953 953 953 953 953 953 953 953 953 953 953 953 953 953 953 953 953 953 953 953 953 953 953 953 953 953 953 953 953 953 953 953 953 93 9A3 9A3 9A3 9A3 9A3 9A3 9A3 9A3 9A3 9A3 9A3 9A3 9A3 9A3 9A3 9A3 9A3 9A3 9A3 9A3 9A3 9A3 9A3 9A3 9A3 9A3 9A3 9A3 9A3 9A3 9A3 9A3 9A3 9A3 9A3 9A3 9A3 9A3 9A3 9A3 9A3 9A3 9A3 9A3 9A3 9A3 9A3 9A3 9A3 9A3 9A3 9A3 9A3 9A3 9A3 9A3 9A3 9A3 9A3 3 7H3 7H3 7H3 7H 7H- 7H- 7H- 7H- 7H- 7H- 7H- 7H- 7H- 7H- 7H- 7H- 7H- 7H- 7H- 7H- 7H- 7H- 7H- 7H- 7H- 7H- 7H- 7H- 7H- 7H- 7H- 7H- 7H- 7H- 7H- 7H- 7H- 7H- 7H- 7H- 7H- 7H- 7H- 7H- 7H- 7H- 7H- 7H- 7H- 7H- 7H- 7H- 7H- 7H- 7H- 7H- 7H- 7H- 7H- - 5K- 5K- 5K- 5K- 5K- 5K- 5K- 5K- 5K- 5K- 5K- 5K- 5K- 5K- 5K- 5K- 5K- 5K- 5K- 5K- 5K- 5K- 5K- 5K- 5K- 5K- 5K- 5K- 5K- 5K- 5K- 5K- 5K- 5K- 5K- 5K- 5K- 5K- 5K- 5K- 5K- 5K- 5K- 5K- 5K- 5K- 5K- 5K- 5K- 5K- 5K- 5K- 5K- 5K- 5K- 5K- 5K- 5K- 5K- - 5I- 5I- 5I- 5I 5I. 5I. 5I. 5I. 5I. 5I. 5I. 5I. 5I. 5I. 5I. 5I. 5I. 5I. 5I. 5I. 5I. 5I. 5I. 5I. 5I. 5I. 5I. 5I. 5I. 5I. 5I. 5I. 5I. 5I. 5I. 5I. 5I. 5I. 5I. 5I. 5I. 5I. 5I. 5I. 5I. 5I. 5I. 5I. 5I. 5I. 5I. 5I. 5I. 5I. 5I. 5I. 5I. 5I. 5I. 5I. 5I. 5I. 5I. 5I. 5I. 5I. 5I. 5I. 5I. 5I. 5I. 5I. 5I. 5I. 5I. 5I. 5I. 5I. 5I. 5I. 5I. 5I. 5I. 5I. 5I. 5I. 5I. 5I. 5I. 5I. 5I. 5I. 5I. 5I. 5I. 5I. 5I. 5I. 5I. 5I. 5I. 5I. 5I. 5I. 5I. 5I. 5I. 5I. 5I. 5I. 5I. 5I. 5I. 5I. 5I. 5I. 5I. 5I. 5I. 5I. 5I. 5I. 5I. 5I 5I+ 5I+ 5I+ 5I+ 5I+ 5I+ 5I+ 5I+ 5I+ 5I+ 5I+ 5I+ 5I+ 5I+ 5I+ 5I+ 5I+ 5I+ 5I+ 5I+ 5I+ 5I+ 5I+ 5I+ 5I+ 5I+ 5I+ 5I+ 5I+ 5I+ 5I+ 5I+ 5I+ 5I+ 5I+ 5I+ 5I+ 5I+ 5I+ 5I+ 5I+ 5I+ 5I+ 5I+ 5I+ 5I+ 5I+ 5I+ 5I+ 5I+ 5I+ 5I+ 5I+ 5I+ 5I+ I+ 7I+ 7I+ 7I+ 7I+ 7I+ 7I+ 7I+ 7I+ 7I+ 7I+ 7I+ 7I+ 7I+ 7I+ 7I+ 7I+ 7I+ 7I+ 7I+ 7I+ 7I+ 7I+ 7I+ 7I+ 7I+ 7I+ 7I+ 7I+ 7I+ I+ 9I+ 9I+ 9I+ 9I+ 9I+ 9I+ 9I+ 9I+ 9I+ 9I+ 9I+ 9I+ 9I+ 9I+ 9I+ 9I+ 9I+ 9I+ 9I+ 9I+ 9I+ 9I+ 9I+ 9I+ 9I+ 9I+ 9I+ 9I+ 9I+ I+ :I+ :I+ :I+ :I :I, :I, :I, :I, :I, :I, :I, :I, :I, :I, :I, :I, :I, :I, :I, :I, :I, :I, :I, :I, :I, :I, :I, :I, :I, I, <I, <I, <I, <I, <I, <I, <I, <I, <I, <I, <I, <I, <I, <I, <I, <I, <I, <I, <I, <I, <I, <I, <I, <I, <I, <I, <I, <I, <I, I, :I, :I, :I, :I, :I, :I, :I, :I, :I, :I, :I, :I, :I, :I, :I, :I, :I, :I, :I, :I, :I, :I, :I, :I, :I, :I, :I, :I, :I, I, 9I, 9I, 9I, 9I, 9I, 9I, 9I, 9I, 9I, 9I, 9I, 9I, 9I, 9I, 9I, 9I, 9I, 9I, 9I, 9I, 9I, 9I, 9I, 9I, 9I, 9I, 9I, 9I, 9I, I, :I, :I, :I, :I :I( :I( :I( :I( :I( :I( :I( :I( :I( :I( :I( :I( :I( :I( :I( :I( :I( :I( :I( :I( :I( :I( :I( :I( :I( :I( :I( :I( :I( :I( :I( :I( :I( :I( :I( :I( :I( :I( :I( :I( :I( :I( :I( :I( :I( :I( :I( :I( :I( :I( :I( :I( :I( :I( :I( :I( :I( :I( :I( :I( :I( :I( :I( :I( :I( :I( :I( :I( :I( :I( :I( :I( :I( :I( :I( :I( :I( :I( :I( :I( :I( :I( :I( :I( :I( :I( :I( :I( :I( :I( :I( :I( :I( :I( :I( :I( :I( :I( :I( :I( :I( :I( :I( :I( :I( :I( :I( :I( :I( :I( :I( :I( :I( :I( :I( :( :( :( :( : :) :) :) :) :) :) :) :) :) :) :) :) :) :) :) :) :) :) :) :) :) :) :) :) :) :) :H) :H) :H) :H) :H) :H) :H) :H) :H) :H) :H) :H) :H) :H) :H) :H) :H) :H) :H) :H) :H) :H) :H) :H) :H) :H) :H) :H) :H) :) :F) :F) :F) :F) :F) :F) :F) :F) :F) :F) :F) :F) :F) :F) :F) :F) :F) :F) :F) :F) :F) :F) :F) :F) :F) :F) :F) :F) :F) :) :E) :E) :E) :E) :E) :E) :E) :E) :E) :E) :E) :E) :E) :E) :E) :E) :E) :E) :E) :E) :E) :E) :E) :E) :E) :E) :E) :E) :E) :) :F) :F) :F) :F) :F) :F) :F) :F) :F) :F) :F) :F) :F) :F) :F) :F) :F) :F) :F) :F) :F) :F) :F) :F) :F) :F) :F) :F) :F) :) :B) :B) :B) :B) :B) :B) :B) :B) :B) :B) :B) :B) :B) :B) :B) :B) :B) :B) :B) :B) :B) :B) :B) :B) :B) :B) :B) :B) :B) :) FA) FA) FA) FA) FA) FA) FA) FA) FA) FA) FA) FA) FA) FA) FA) FA) FA) FA) FA) FA) FA) FA) FA) FA) FA) FA) FA) FA) FA) F) F@) F@) F@) F@) F@) F@) F@) F@) F@) F@) F@) F@) F@) F@) F@) F@) F@) F@) F@) F@) F@) F@) F@) F@) F@) F@) F@) F@) F@) ) >A) >A) >A) >A >A5 >A5 >A5 >A5 >A5 >A5 >A5 >A5 >A5 >A5 >A5 >A5 >A5 >A5 >A5 >A5 >A5 >A5 >A5 >A5 >A5 >A5 >A5 >A5 >A5 >A5 >A5 >A5 >A5 >A5 >A5 >A5 >A5 >A5 >A5 >A5 >A5 >A5 >A5 >A5 A5 ?A5 ?A5 ?A5 ?A5 ?A5 ?A5 ?A5 ?A5 ?A5 ?A5 ?A5 ?A5 ?A5 ?A5 A5 >A5 >A5 >A5 >A5 >A5 >A5 >A5 >A5 >A5 >A5 >A5 >A5 >A5 >A5 >A5 >A5 >A5 >A5 >A5 >A5 >A5 >A5 >A5 >A5 >A5 >A5 >A5 >A5 >A5 A5 <A5 <A5 <A5 <A5 <A5 <A5 <A5 <A5 <A5 <A5 <A5 <A5 <A5 <A5 <A5 <A5 <A5 <A5 <A5 <A5 <A5 <A5 <A5 <A5 <A5 <A5 <A5 <A5 <A5 A5 :A5 :A5 :A5 :A5 :A5 :A5 :A5 :A5 :A5 :A5 :A5 :A5 :A5 :A5 :A5 :A5 :A5 :A5 :A5 :A5 :A5 :A5 :A5 :A5 :A5 :A5 :A5 :A5 :A5 A5 <A5 <A5 <A5 <A5 <A5 <A5 <A5 <A5 <A5 <A5 <A5 <A5 <A5 <A5 <A5 <A5 <A5 <A5 <A5 <A5 <A5 <A5 <A5 <A5 <A5 <A5 <A5 <A5 <A5 5 :C5 :C5 :C5 :C5 :C5 :C5 :C5 :C5 :C5 :C5 :C5 :C5 :C5 :C5 :C5 :C5 :C5 :C5 :C5 :C5 :C5 :C5 :C5 :C5 :C5 :C5 :C5 :C5 :C5 5 <E5 <E5 <E5 <E5 <E5 <E5 <E5 <E5 <E5 <E5 <E5 <E5 <E5 <E5 <E5 <E5 <E5 <E5 <E5 <E5 <E5 <E5 <E5 <E5 <E5 <E5 <E5 <E5 <E5 5 >F5 >F5 >F5 >F >F) >F) >F) >F) >F) F) <F) <F) <F) <F) <) <E) <E) <E) <E) E) >E) >E) >E) >E) >E) >E) >E) >E) >E) ) <F) <F) <F) <F) <F) <F) <F) <F) <F) F) >F) >F) >F) >F) >) >E) >E) >E) >E) E) <E) <E) <E) <E) <E) <E) <E) <E) <E) ) >F) >F) >F) >F) >F) >F) >F) >F) >F) ) <E) <E) <E) <E) <E) <E) <E) <E) <E) ) >F) >F) >F) >F) >F) >F) >F) >F) >F) ) <E) <E) <E) <E) <E) <E) <E) <E) <E) ) >F) >F) >F) >F) >F) >F) >F) >F) >F) ) <E) <E) <E) <E) <E) <E) <E) <E) <E) ) >F) >F) >F) >F) >F) >F) >F) >F) >F) ) <E) <E) <E) <E) <E) <E) <E) <E) <E) ) >F) >F) >F) >F) >F) >F) >F) >F) >F) ) <E) <E) <E) <E) <E) <E) <E) <E) <E) ) >F) >F) >F) >F) >F) >F) >F) >F) >F) ) <E) <E) <E) <E) <E) <E) <E) <E) <E) ) :F) :F) :F) :F) :F) :F) :F) :F) :F) :) :E) :E) :E) :E) :E) :E) :E) :E) :E) :) :F) :F) :F) :F) :F) :F) :F) :F) :F) ) <E) <E) <E) <E) <E) <E) <E) <E) <E) <) <C) <C) <C) <C) <C) <C) <C) <C) <C) <) <E) <E) <E) <E) <E) <E) <E) <E) <E) ) :F) :F) :F) :F :F. :F. :F. :F. :F. :F. :F. :F. :F. :F. :F. :F. :F. :F. :F. :F. :F. :F. :F. :F. :F. :F. :F. :F. :F. :F. :F. :F. :F. :F. :F. :F. :F. :F. :F. :F. :F. :F. :F. :F. :F. :F. :F. :F. :F. :F. :F. :F. :F. :F. :F. :F. :F. :F. :F. :F. :F. :F. :F. :F. :F. :F. :F. :F. :F. :F. :F. :F. :F. :F. :F. :F. :F. :F. :F. :F. :F. :F. :F. :F. :F. :F. :F. :F. :F. :F. :F. :F. :F. :F. :F. :F. :F. :F. :F. :F. :F. :F. :F. :F. :F. :F. :F. :F. :F. :F. :F. :F. :F. :F. :F. :F. :F. :F. :F. :F. :F. :F. :F. :F :F- :F- :F- :F- :F- :F- :F- :F- :F- :F- :F- :F- :F- :F- :F- :F- :F- :F- :F- :F- :F- :F- :F- :F- :F- :F- :F- :F- :F- :F- :F- :F- :F- :F- :F- :F- :F- :F- :F- :F- :F- :F- :F- :F- :F- :F- :F- :F- :F- :F- :F- :F- :F- :F- :F- :F- :F- :F- :F- :F- :F- :F- :F- :F- :F- :F- :F- :F- :F- :F- :F- :F- :F- :F- :F- :F- :F- :F- :F- :F- :F- :F- :F- :F- :F- :F- :F- :F- :F- :F- :F- :F- :F- :F- :F- :F- :F- :F- :F- :F- :F- :F- :F- :F- :F- :F- :F- :F- :F- :F- :F- :F- :F- :F- :F- :F- :F- :F- :F- :F :F. :F. :F. :F. :F. :F. :F. :F. :F. :F. :F. :F. :F. :F. :F. :F. :F. :F. :F. :F. :F. :F. :F. :F. :F. :F. :F. :F. :F. :F. :F. :F. :F. :F. :F. :F. :F. :F. :F. :F. :F. :F. :F. :F. :F. :F. :F. :F. :F. :F. :F. :F. :F. :F. :F. :F. :F. :F. :F. :F. :F. :F. :F. :F. :F. :F. :F. :F. :F. :F. :F. :F. :F. :F. :F. :F. :F. :F. :F. :F. :F. :F. :F. :F. :F. :F. :F. :F. :F. :F. :F. :F. :F. :F. :F. :F. :F. :F. :F. :F. :F. :F. :F. :F. :F. :F. :F. :F. :F. :F. :F. :F. :F. :F. :F. :F. :F. :F. :F. :F :F0 :F0 :F0 :F0 :F0 :F0 :F0 :F0 :F0 :F0 :F0 :F0 :F0 :F0 :F0 :F0 :F0 :F0 :F0 :F0 :F0 :F0 :F0 :F0 :F0 :F0 :F0 :F0 :F0 :F0 :F0 :F0 :F0 :F0 :F0 :F0 :F0 :F0 :F0 :F0 :F0 :F0 :F0 :F0 :F0 :F0 :F0 :F0 :F0 :F0 :F0 :F0 :F0 :F0 :F0 :F0 :F0 :F0 :F0 :F0 :F0 :F0 :F0 :F0 :F0 :F0 :F0 :F0 :F0 :F0 :F0 :F0 :F0 :F0 :F0 :F0 :F0 :F0 :F0 :F0 :F0 :F0 :F0 :F0 :F0 :F0 :F0 :F0 :F0 :F0 :F0 :F0 :F0 :F0 :F0 :F0 :F0 :F0 :F0 :F0 :F0 :F0 :F0 :F0 :F0 :F0 :F0 :F0 :F0 :F0 :F0 :F0 :F0 :F0 :F0 :0 :0 :0 :0 : :2 :2 :2 :2 :2 :2 :2 :2 :2 :2 :2 :2 :2 :2 :2 :2 :2 :2 :2 :2 :2 :2 :2 :2 :2 :2 :2 :2 :2 :2 :2 :2 :2 :2 :2 :2 :2 :2 :2 :2 :2 :2 :2 :2 :2 :2 :2 :2 :2 :2 :2 :2 :2 :2 :2 :2 :2 :2 :2 :2 :2 :2 :2 :2 :2 :2 :2 :2 :2 :2 :2 :2 :2 :2 :2 :2 :2 :2 :2 :2 :2 :2 :2 :2 :2 :2 :2 :2 :2 :2 :2 :2 :2 :2 :2 :2 :2 :2 :2 :2 :2 :2 :2 :2 :2 :2 :2 :2 :2 :2 :2 :2 :2 :2 :2 :2 :2 :2 :2 : :3 :3 :3 :3 :3 :3 :3 :3 :3 :3 :3 :3 :3 :3 :3 :3 :3 :3 :3 :3 :3 :3 :3 :3 :3 :3 :3 :3 :3 :3 :3 :3 :3 :3 :3 :3 :3 :3 :3 :3 :3 :3 :3 :3 :3 :3 :3 :3 :3 :3 :3 :3 :3 :3 :3 :3 :3 :3 :3 :3 :3 :3 :3 :3 :3 :3 :3 :3 :3 :3 :3 :3 :3 :3 :3 :3 :3 :3 :3 :3 :3 :3 :3 :3 :3 :3 :3 :3 :3 :3 :3 :3 :3 :3 :3 :3 :3 :3 :3 :3 :3 :3 :3 :3 :3 :3 :3 :3 :3 :3 :3 :3 :3 :3 :3 3 M35 M35 M35 M5 M5 M5 M5 M5 M5 M5 M5 M5 M5 M5 M5 K5 K5 K5 K5 K5 K5 K5 K5 K5 K5 K5 K5 K5 K5 K5 M5 M5 M5 M5 M5 M5 M5 M5 M5 M5 M5 M5 M5 M5 M5 M5 M5 M5 M5 M5 M5 M5 M5 M5 M5 M5 M5 M5 M5 M5 M5 M5 M5 M5 M5 M5 M5 M5 M5 M5 M5 M5 M5 M5 M5 M5 M5 M5 M5 M5 M5 M5 M5 M5 M5 M5 M5 M5 M5 M5 M5 M5 M5 M5 M5 M5 M5 M5 M5 M5 M5 M5 M5 M5 M5 M5 M5 M5 M5 M5 M5 M5 M5 M5 M5 M5 M5 M5 M5 M M7 M7 M7 M7 M7 M7 M7 M7 M7 M7 M7 M7 M7 M7 M7 M7 M7 M7 M7 M7 M7 M7 M7 M7 M7 M7 M7 M7 M7 M7 M7 M7 M7 M7 M7 M7 M7 M7 M7 M7 M7 M7 M7 M7 M7 M7 M7 M7 M7 M7 M7 M7 M7 M7 M7 M7 M7 M7 M7 M7 M7 M7 M7 M7 M7 M7 M7 M7 M7 M7 M7 M7 M7 M7 M7 M7 M7 M7 M7 M7 M7 M7 M7 M7 M7 M7 M7 M7 M7 M7 M7 M7 M7 M7 M7 M7 M7 M7 M7 M7 M7 M7 M7 M7 M7 M7 M7 M7 M7 M7 M7 M7 M7 M7 M7 M7 M7 M7 M7 M <M9 <M9 <M9 <M9 <M9 <M9 <M9 <M9 <M9 <M9 <M9 <M9 <M9 <M9 <M9 <M9 <M9 <M9 <M9 <M9 <M9 <M9 <M9 <M9 <M9 <M9 <M9 <M9 <M9 <M9 <M9 <M9 <M9 <M9 <M9 <M9 <M9 <M9 <M9 <M9 <M9 <M9 <M9 <M9 <M9 <M9 <M9 <M9 <M9 <M9 <M9 <M9 <M9 <M9 <M9 <M9 <M9 <M9 <M9 <M9 <M9 <M9 <M9 <M9 <M9 <M9 <M9 <M9 <M9 <M9 <M9 <M9 <M9 <M9 <M9 <M9 <M9 <M9 <M9 <M9 <M9 <M9 <M9 <M9 <M9 <M9 <M9 <M9 <M9 <M9 <M9 <M9 <M9 <M9 <M9 <M9 <M9 <M9 <M9 <M9 <M9 <M9 <M9 <M9 <M9 <M9 <M9 <M9 <M9 <M9 <M9 <M9 <M9 <M9 <M9 <M9 <M9 <M9 <M9 <M <M7 <M7 <M7 <M7 <M7 <M7 <M7 <M7 <M7 <M7 <M7 <M7 <M7 <M7 <M7 <M7 <M7 <M7 <M7 <M7 <M7 <M7 <M7 <M7 <M7 <M7 <M7 <M7 <M7 <M7 <M7 <M7 <M7 <M7 <M7 <M7 <M7 <M7 <M7 <M7 <M7 <M7 <M7 <M7 <M7 <M7 <M7 <M7 <M7 <M7 <M7 <M7 <M7 <M7 <M7 <M7 <M7 <M7 <M7 <M7 <M7 <M7 <M7 <M7 <M7 <M7 <M7 <M7 <M7 <M7 <M7 <M7 <M7 <M7 <M7 <M7 <M7 <M7 <M7 <M7 <M7 <M7 <M7 <M7 <M7 <M7 <M7 <M7 <M7 <M7 <M7 <M7 <M7 <M7 <M7 <M7 <M7 <M7 <M7 <M7 <M7 <M7 <M7 <M7 <M7 <M7 <M7 <M7 <M7 <M7 <M7 <M7 <M7 <M7 <M7 <M7 <M7 <M7 <M7 M >M5 >M5 >M5 >M5 >M5 >M5 >M5 >M5 >M5 >M5 >M5 >M5 >M5 >M5 >M5 >M5 >M5 >M5 >M5 >M5 >M5 >M5 >M5 >M5 >M5 >M5 >M5 >M5 >M5 >M5 >M5 >M5 >M5 >M5 >M5 >M5 >M5 >M5 >M5 >M5 >M5 >M5 >M5 >M5 >M5 >M5 >M5 >M5 >M5 >M5 >M5 >M5 >M5 >M5 >M5 >M5 >M5 >M5 >M5 >M5 >M5 >M5 >M5 >M5 >M5 >M5 >M5 >M5 >M5 >M5 >M5 >M5 >M5 >M5 >M5 >M5 >M5 >M5 >M5 >M5 >M5 >M5 >M5 >M5 >M5 >M5 >M5 >M5 >M5 >M5 >M5 >M5 >M5 >M5 >M5 >M5 >M5 >M5 >M5 >M5 >M5 >M5 >M5 >M5 >M5 >M5 >M5 >M5 >M5 >M5 >M5 >M5 >M5 >M5 >M5 >M5 >M5 >M5 >M5 M5 ?M5 ?M5 ?M5 ?M5 ?M5 ?M5 ?M5 ?M5 ?M5 ?M5 ?M5 ?M5 ?M5 ?M5 ?M5 ?M5 ?M5 ?M5 ?M5 ?M5 ?M5 ?M5 ?M5 ?M5 ?M5 ?M5 ?M5 ?M5 ?M5 ?M5 ?M5 ?M5 ?M5 ?M5 ?M5 ?M5 ?M5 ?M5 ?M5 ?M5 ?M5 ?M5 ?M5 ?M5 ?M5 ?M5 ?M5 ?M5 ?M5 ?M5 ?M5 ?M5 ?M5 ?M5 ?M5 ?M5 ?M5 ?M5 ?M5 ?M5 ?M5 ?M5 ?M5 ?M5 ?M5 ?M5 ?M5 ?M5 ?M5 ?M5 ?M5 ?M5 ?M5 ?M5 ?M5 ?M5 ?M5 ?M5 ?M5 ?M5 ?M5 ?M5 ?M5 ?M5 ?M5 ?M5 ?M5 ?M5 ?M5 ?M5 ?M5 ?M5 ?M5 ?M5 ?M5 ?M5 ?M5 ?M5 ?M5 ?M5 ?M5 ?M5 ?M5 ?M5 ?M5 ?M5 ?M5 ?M5 ?M5 ?M5 ?M5 ?M5 ?M5 ?M5 ?M5 ?M5 ?M5 ?M5 ?M5 M ;M> ;M> ;M> ;M> ;M> ;M> ;M> ;M> ;M> ;M> ;M> ;M> ;M> ;M> ;M> ;M> ;M> ;M> ;M> ;M> ;M> ;M> ;M> ;M> ;M> ;M> ;M> ;M> ;M> ;M> ;M> ;M> ;M> ;M> ;M> ;M> ;M> ;M> ;M> ;M> ;M> ;M> ;M> ;M> ;M> ;M> ;M> ;M> ;M> ;M> ;M> ;M> ;M> ;M> ;M> ;M> ;M> ;M> ;M> ;M> ;D> ;D> ;D> ;D> ;D> ;D> ;D> ;D> ;D> ;D> ;D> ;D> ;D> ;D> ;D> ;D> ;D> ;D> ;D> ;D> ;D> ;D> ;D> ;D> ;D> ;D> ;D> ;D> ;D> ;D> ;D> ;D> ;D> ;D> ;D> ;D> ;D> ;D> ;D> ;D> ;D> ;D> ;D> ;D> ;D> ;D> ;D> ;D> ;D> ;D> ;D> ;D> ;D> ;D> ;D> ;D> ;D> ;D> ;D> ;> ;C> ;C> ;C> ;C> ;C> ;C> ;C> ;C> ;C> ;C> ;C> ;C> ;C> ;C> ;C> ;C> ;C> ;C> ;C> ;C> ;C> ;C> ;C> ;C> ;C> ;C> ;C> ;C> ;C> ;C> ;C> ;C> ;C> ;C> ;C> ;C> ;C> ;C> ;C> ;C> ;C> ;C> ;C> ;C> ;C> ;C> ;C> ;C> ;C> ;C> ;C> ;C> ;C> ;C> ;C> ;C> ;C> ;C> ;C> ;> ;A> ;A> ;A> ;A> ;A> ;A> ;A> ;A> ;A> ;A> ;A> ;A> ;A> ;A> ;A> ;A> ;A> ;A> ;A> ;A> ;A> ;A> ;A> ;A> ;A> ;A> ;A> ;A> ;A> ;A> ;A> ;A> ;A> ;A> ;A> ;A> ;A> ;A> ;A> ;A> ;A> ;A> ;A> ;A> ;A> ;A> ;A> ;A> ;A> ;A> ;A> ;A> ;A> ;A> ;A> ;A> ;A> ;A> ;A>  AC AC AC AC AC AC AC AC AC AC AC AC AC AC AC AC AC AC AC AC AC AC AC AC AC AC AC AC AC AC AC AC AC AC AC AC AC AC AC AC AC AC AC AC AC AC AC AC AC AC AC AC AC AC AC AC AC AC AC A AG AG AG AG AG AG AG AG AG AG AG AG AG AG AG AG AG AG AG AG AG AG AG AG AG AG AG AG AG AG AG AG AG AG AG AG AG AG AG AG AG AG AG AG AG AG AG AG AG AG AG AG AG AG AG AG AG AG AG A AJ AJ AJ AJ AJ AJ AJ AJ AJ AJ AJ AJ AJ AJ AJ AJ AJ AJ AJ AJ AJ AJ AJ AJ AJ AJ AJ AJ AJ AJ AJ AJ AJ AJ AJ AJ AJ AJ AJ AJ AJ AJ AJ AJ AJ AJ AJ AJ AJ AJ AJ AJ AJ AJ AJ AJ AJ AJ AJ A AK AK AK AK AK AK AK AK AK AK AK AK AK AK AK AK AK AK AK AK AK AK AK AK AK AK AK AK AK AK AK AK AK AK AK AK AK AK AK AK AK AK AK AK AK AK AK AK AK AK AK AK AK AK AK AK AK AK AK A AM AM AM AM AM AM AM AM AM AM AM AM AM AM AM AM AM AM AM AM AM AM AM AM AM AM AM AM AM AM AM AM AM AM AM AM AM AM AM AM AM AM AM AM AM AM AM AM AM AM AM AM AM AM AM AM AM AM AM A AJ AJ AJ AJ AJ AJ AJ AJ AJ AJ AJ AJ AJ AJ AJ AJ AJ AJ AJ AJ AJ AJ AJ AJ AJ AJ AJ AJ AJ AJ AJ AJ AJ AJ AJ AJ AJ AJ AJ AJ AJ AJ AJ AJ AJ AJ AJ AJ AJ AJ AJ AJ AJ AJ AJ AJ AJ AJ AJ A AM AM AM AM AM AM AM AM AM AM AM AM AM AM AM AM AM AM AM AM AM AM AM AM AM AM AM AM AM AM AM AM AM AM AM AM AM AM AM AM AM AM AM AM AM AM AM AM AM AM AM AM AM AM AM AM AM AM AM A AO AO AO AO AO AO AO AO AO AO AO AO AO AO AO AO AO AO AO AO AO AO AO AO AO AO AO AO AO AO AO AO AO AO AO AO AO AO AO AO AO AO AO AO AO AO AO AO AO AO AO AO AO AO AO AO AO AO AO A AP2 AP2 AP2 AP2 AP2 AP2 AP2 AP2 AP2 AP2 AP2 AP2 AP2 AP2 AP2 AP2 AP2 AP2 AP2 AP2 AP2 AP2 AP2 AP2 AP2 AP2 AP2 AP2 AP2 AP2 AP2 AP2 AP2 AP2 AP2 AP2 AP2 AP2 AP2 AP2 AP2 AP2 AP2 AP2 AP2 AP2 AP2 AP2 AP2 AP2 AP2 AP2 AP2 AP2 AP2 AP2 AP2 AP2 AP2 A2 AM2 AM2 AM2 AM2 AM2 AM2 AM2 AM2 AM2 AM2 AM2 AM2 AM2 AM2 AM2 AM2 AM2 AM2 AM2 AM2 AM2 AM2 AM2 AM2 AM2 AM2 AM2 AM2 AM2 AM2 AM2 AM2 AM2 AM2 AM2 AM2 AM2 AM2 AM2 AM2 AM2 AM2 AM2 AM2 AM2 AM2 AM2 AM2 AM2 AM2 AM2 AM2 AM2 AM2 AM2 AM2 AM2 AM2 AM2 A 8S0 8S0 8S0 8S0 8S0 8S0 8S0 8S0 8S0 8S0 8S0 8S0 8S0 8S0 8S0 8S0 8S0 8S0 8S0 8S0 8S0 8S0 8S0 8S0 8S0 8S0 8S0 8S0 8S0 8S0 8S0 8S0 8S0 8S0 8S0 8S0 8S0 8S0 8S0 8S0 8S0 8S0 8S0 8S0 8S0 8S0 8S0 8S0 8S0 8S0 8S0 8S0 8S0 8S0 8S0 8S0 8S0 8S0 8S0 80 8T0 8T0 8T0 8T0 8T0 8T0 8T0 8T0 8T0 8T0 8T0 8T0 8T0 8T0 8T0 8T0 8T0 8T0 8T0 8T0 8T0 8T0 8T0 8T0 8T0 8T0 8T0 8T0 8T0 8T0 8T0 8T0 8T0 8T0 8T0 8T0 8T0 8T0 8T0 8T0 8T0 8T0 8T0 8T0 8T0 8T0 8T0 8T0 8T0 8T0 8T0 8T0 8T0 8T0 8T0 8T0 8T0 8T0 8T0  7V/ 7V/ 7V/ 7V/ 7V/ 7V/ 7V/ 7V/ 7V/ 7V/ 7V/ 7V/ 7V/ 7V/ 7V/ 7V/ 7V/ 7V/ 7V/ 7V/ 7V/ 7V/ 7V/ 7V/ 7V/ 7V/ 7V/ 7V/ 7V/ 7V/ 7V/ 7V/ 7V/ 7V/ 7V/ 7V/ 7V/ 7V/ 7V/ 7V/ 7V/ 7V/ 7V/ 7V/ 7V/ 7V/ 7V/ 7V/ 7V/ 7V/ 7V/ 7V/ 7V/ 7V/ 7V/ 7V/ 7V/ 7V/ 7V/ 7V/ 7V/ 7V/ 7V/ 7V/ 7V/ 7V/ 7V/ 7V/ 7V/ 7V/ 7V/ 7V/ 7V/ 7V/ 7V/ 7V/ 7V/ 7V/ 7V/ 7V/ 7V/ 7V/ 7V/ 7V/ 7V/ 7V/ 7V/ 7V/ 7V/ V/ 9V/ 9V/ 9V/ 9V/ 9V/ 9V/ 9V/ 9V/ 9V/ 9V/ 9V/ 9V/ 9V/ 9V/ 9V/ 9V/ 9V/ 9V/ 9V/ 9V/ 9V/ 9V/ 9V/ 9V/ 9V/ 9V/ 9V/ 9V/ 9V/ V ;V2 ;V2 ;V2 ;V2 ;V2 ;V2 ;V2 ;V2 ;V2 ;V2 ;V2 ;V2 ;V2 ;V2 ;V2 ;V2 ;V2 ;V2 ;V2 ;V2 ;V2 ;V2 ;V2 ;V2 ;V2 ;V2 ;V2 ;V2 ;V2 V2 <V2 <V2 <V2 <V2 <V2 <V2 <V2 <V2 <V2 <V2 <V2 <V2 <V2 <V2 <V2 <V2 <V2 <V2 <V2 <V2 <V2 <V2 <V2 <V2 <V2 <V2 <V2 <V2 <V2 V2 >V2 >V2 >V2 >V2 >V2 >V2 >V2 >V2 >V2 >V2 >V2 >V2 >V2 >V2 >V2 >V2 >V2 >V2 >V2 >V2 >V2 >V2 >V2 >V2 >V2 >V2 >V2 >V2 >V2 V2 ?V2 ?V2 ?V2 ?V2 ?V2 ?V2 ?V2 ?V2 ?V2 ?V2 ?V2 ?V2 ?V2 ?V2 ?V2 ?V2 ?V2 ?V2 ?V2 ?V2 ?V2 ?V2 ?V2 ?V2 ?V2 ?V2 ?V2 ?V2 ?V2 V AV+ AV+ AV+ AV+ AV+ AV+ AV+ AV+ AV+ AV+ AV+ AV+ AV+ AV+ AV+ AV+ AV+ AV+ AV+ AV+ AV+ AV+ AV+ AV+ AV+ AV+ AV+ AV+ AV+ V+ CV+ CV+ CV+ CV+ CV+ CV+ CV+ CV+ CV+ CV+ CV+ CV+ CV+ CV+ CV+ CV+ CV+ CV+ CV+ CV+ CV+ CV+ CV+ CV+ CV+ CV+ CV+ CV+ CV+ V+ DV+ DV+ DV+ DV+ DV+ DV+ DV+ DV+ DV+ DV+ DV+ DV+ DV+ DV+ DV+ DV+ DV+ DV+ DV+ DV+ DV+ DV+ DV+ DV+ DV+ DV+ DV+ DV+ DV+ DV+ DV+ DV+ DV+ DV+ DV+ DV+ DV+ DV+ DV+ DV+ DV+ DV+ DV+ DV+ DV+ DV+ DV+ DV+ DV+ DV+ DV+ DV+ DV+ DV+ DV+ DV+ DV+ DV+ DV+ DV DV/ DV/ DV/ DV/ DV/ DV/ DV/ DV/ DV/ DV/ DV/ DV/ DV/ DV/ DV/ DV/ DV/ DV/ DV/ DV/ DV/ DV/ DV/ DV/ DV/ DV/ DV/ DV/ DV/ DV/ DV/ DV/ DV/ DV/ DV/ DV/ DV/ DV/ DV/ DV/ DV/ DV/ DV/ DV/ DV/ DV/ DV/ DV/ DV/ DV/ DV/ DV/ DV/ DV/ DV/ DV/ DV/ DV/ DV/ V/ CV/ CV/ CV/ CV/ CV/ CV/ CV/ CV/ CV/ CV/ CV/ CV/ CV/ CV/ CV/ CV/ CV/ CV/ CV/ CV/ CV/ CV/ CV/ CV/ CV/ CV/ CV/ CV/ CV/ CV/ CV/ CV/ CV/ CV/ CV/ CV/ CV/ CV/ CV/ CV/ CV/ CV/ CV/ CV/ CV/ CV/ CV/ CV/ CV/ CV/ CV/ CV/ CV/ CV/ CV/ CV/ CV/ CV/ CV/ V AV0 AV0 AV0 AV0 AV0 AV0 AV0 AV0 AV0 AV0 AV0 AV0 AV0 AV0 AV0 AV0 AV0 AV0 AV0 AV0 AV0 AV0 AV0 AV0 AV0 AV0 AV0 AV0 AV0 V0 ?V0 ?V0 ?V0 ?V0 ?V0 ?V0 ?V0 ?V0 ?V0 ?V0 ?V0 ?V0 ?V0 ?V0 V0 AV0 AV0 AV0 AV0 AV0 AV0 AV0 AV0 AV0 AV0 AV0 AV0 AV0 AV0 V0 ?T0 ?T0 ?T0 ?T0 ?T0 ?T0 ?T0 ?T0 ?T0 ?T0 ?T0 ?T0 ?T0 ?T0 T0 AT0 AT0 AT0 AT0 AT0 AT0 AT0 AT0 AT0 AT0 AT0 AT0 AT0 AT0 T0 ?T0 ?T0 ?T0 ?T0 ?T0 ?T0 ?T0 ?T0 ?T0 T0 AT0 AT0 AT0 AT0 AT0 AT0 AT0 AT0 AT0 T0 ?T0 ?T0 ?T0 ?T0 ?T0 ?T0 ?T0 ?T0 ?T0 0 AS0 AS0 AS0 AS0 AS0 AS0 AS0 AS0 AS0 S0 ?S0 ?S0 ?S0 ?S0 ?S0 ?S0 ?S0 ?S0 ?S0 S0 AS0 AS0 AS0 AS0 AS0 AS0 AS0 AS0 AS0 S0 ?S0 ?S0 ?S0 ?S0 ?S0 ?S0 ?S0 ?S0 ?S0 S0 AS0 AS0 AS0 AS0 AS0 AS0 AS0 AS0 AS0 S0 ?S0 ?S0 ?S0 ?S0 ?S0 ?S0 ?S0 ?S0 ?S0 0 AV0 AV0 AV0 AV0 AV0 AV0 AV0 AV0 AV0 V0 ?V0 ?V0 ?V0 ?V0 ?V0 ?V0 ?V0 ?V0 ?V0 V0 AV0 AV0 AV0 AV0 AV0 AV0 AV0 AV0 AV0 V0 ?V0 ?V0 ?V0 ?V0 ?V0 ?V0 ?V0 ?V0 ?V0 V0 AV0 AV0 AV0 AV0 AV0 AV0 AV0 AV0 AV0 V0 ?V0 ?V0 ?V0 ?V0 ?V0 ?V0 ?V0 ?V0 ?V0  AT AT AT AT AT AT AT AT AT T ?T ?T ?T ?T ?T ?T ?T ?T ?T T AT AT AT AT AT AT AT AT AT T ?T ?T ?T ?T ?T ?T ?T ?T ?T T AT AT AT AT AT AT AT AT AT T ?T ?T ?T ?T ?T ?T ?T ?T ?T  AQ AQ AQ AQ AQ AQ AQ AQ AQ Q ?Q ?Q ?Q ?Q ?Q ?Q ?Q ?Q ?Q Q AQ AQ AQ AQ AQ AQ AQ AQ AQ Q ?Q ?Q ?Q ?Q ?Q ?Q ?Q ?Q ?Q Q AQ AQ AQ AQ AQ AQ AQ AQ AQ Q ?Q ?Q ?Q ?Q ?Q ?Q ?Q ?Q ?Q  >O >O >O >O >O >O >O >O >O >O >O >O >O >O >O >O >O >O >O >O >O >O >O >O >O >O >O >O >O >O >O >O >O >O >O >O >O >O >O >O >O >O >O >O >O >O >O >O >O >O >O >O >O >O >O >O >O >O >O > >M >M >M >M >M >M >M >M >M >M >M >M >M >M >M >M >M >M >M >M >M >M >M >M >M >M >M >M >M >M >M >M >M >M >M >M >M >M >M >M >M >M >M >M >M >M >M >M >M >M >M >M >M >M >M >M >M >M >M  <K <K <K <K <K <K <K <K <K <K <K <K <K <K <K <K <K <K <K <K <K <K <K <K <K <K <K <K <K <K <K <K <K <K <K <K <K <K <K <K <K <K <K <K <K <K <K <K <K <K <K <K <K <K <K <K <K <K <K < <J <J <J <J <J <J <J <J <J <J <J <J <J <J <J <J <J <J <J <J <J <J <J <J <J <J <J <J <J <J <J <J <J <J <J <J <J <J <J <J <J <J <J <J <J <J <J <J <J <J <J <J <J <J <J <J <J <J <J < <H <H <H <H <H <H <H <H <H <H <H <H <H <H <H <H <H <H <H <H <H <H <H <H <H <H <H <H <H <H <H <H <H <H <H <H <H <H <H <H <H <H <H <H <H <H <H <H <H <H <H <H <H <H <H <H <H <H <H < <F <F <F <F <F <F <F <F <F <F <F <F <F <F <F <F <F <F <F <F <F <F <F <F <F <F <F <F <F <F <F <F <F <F <F <F <F <F <F <F <F <F <F <F <F <F <F <F <F <F <F <F <F <F <F <F <F <F <F  E0 E0 E0 E0 E0 E0 E0 E0 E0 E0 E0 E0 E0 E0 E0 E0 E0 E0 E0 E0 E0 E0 E0 E0 E0 E0 E0 E0 E0 E0 E0 E0 E0 E0 E0 E0 E0 E0 E0 E0 E0 E0 E0 E0 E0 E0 E0 E0 E0 E0 E0 E0 E0 E0 E0 E0 E0 E0 E0 E0 E0 E0 E0 E0 E0 E0 E0 E0 E0 E0 E0 E0 E0 E0 E0 E0 E0 E0 E0 E0 E0 E0 E0 E0 E0 E0 E0 E0 E0 E0 E0 E0 E0 E0 E0 E0 E0 E0 E0 E0 E0 E0 E0 E0 E0 E0 E0 E0 E0 E0 E0 E0 E0 E0 E0 E0 E0 E0 E0  H2 H2 H2 H2 H2 H2 H2 H2 H2 H2 H2 H2 H2 H2 H2 H2 H2 H2 H2 H2 H2 H2 H2 H2 H2 H2 H2 H2 H2 H2 H2 H2 H2 H2 H2 H2 H2 H2 H2 H2 H2 H2 H2 H2 H2 H2 H2 H2 H2 H2 H2 H2 H2 H2 H2 H2 H2 H2 H2 2 F2 F2 F2 F2 F2 F2 F2 F2 F2 F2 F2 F2 F2 F2 F2 F2 F2 F2 F2 F2 F2 F2 F2 F2 F2 F2 F2 F2 F2 F2 F2 F2 F2 F2 F2 F2 F2 F2 F2 F2 F2 F2 F2 F2 F2 F2 F2 F2 F2 F2 F2 F2 F2 F2 F2 F2 F2 F2 F2  F3 F3 F3 F3 F3 F3 F3 F3 F3 F3 F3 F3 F3 F3 F3 F3 F3 F3 F3 F3 F3 F3 F3 F3 F3 F3 F3 F3 F3 3 H3 H3 H3 H3 H3 H3 H3 H3 H3 H3 H3 H3 H3 H3 H3 H3 H3 H3 H3 H3 H3 H3 H3 H3 H3 H3 H3 H3 H3 H3 H3 H3 H3 H3 H3 H3 H3 H3 H3 H3 H3 H3 H3 H3 H3 H3 H3 H3 H3 H3 H3 H3 H3 H3 H3 H3 H3 H3 H3 H3 H3 H3 H3 H3 H3 H3 H3 H3 H3 H3 H3 H3 H3 H3 H3 H3 H3 H3 H3 H3 H3 H3 H3 H3 H3 H3 H3 H3 H3 H H0 H0 H0 H0 H0 H0 H0 H0 H0 H0 H0 H0 H0 H0 H0 H0 H0 H0 H0 H0 H0 H0 H0 H0 H0 H0 H0 H0 H0 H0 H0 H0 H0 H0 H0 H0 H0 H0 H0 H0 H0 H0 H0 H0 H0 H0 H0 H0 H0 H0 H0 H0 H0 H0 H0 H0 H0 H0 H0 H0 H0 H0 H0 H0 H0 H0 H0 H0 H0 H0 H0 H0 H0 H0 H0 H0 H0 H0 H0 H0 H0 H0 H0 H0 H0 H0 H0 H0 H0 H0 H0 H0 H0 H0 H0 H0 H0 H0 H0 H0 H0 H0 H0 H0 H0 H0 H0 H0 H0 H0 H0 H0 H0 H0 H0 H0 H0 H0 H0 H H- H- H- H- H- H- H- H- H- H- H- H- H- H- H- H- H- H- H- H- H- H- H- H- H- H- H- H- H- - F- F- F- F- F- F- F- F- F- F- F- F- F- F- F- F- F- F- F- F- F- F- F- F- F- F- F- F- F- - E- E- E- E- E- E- E- E- E- E- E- E- E- E- E- E- E- E- E- E- E- E- E- E- E- E- E- E- E- - F- F- F- F- F- F- F- F- F- F- F- F- F- F- F- F- F- F- F- F- F- F- F- F- F- F- F- F- F-  H+ H+ H+ H+ H+ H+ H+ H+ H+ H+ H+ H+ H+ H+ H+ H+ H+ H+ H+ H+ H+ H+ H+ H+ H+ H+ H+ H+ H+ + J+ J+ J+ J+ J+ J+ J+ J+ J+ J+ J+ J+ J+ J+ J+ J+ J+ J+ J+ J+ J+ J+ J+ J+ J+ J+ J+ J+ J+ + L+ L+ L+ L+ L+ L+ L+ L+ L+ L+ L+ L+ L+ L+ L+ L+ L+ L+ L+ L+ L+ L+ L+ L+ L+ L+ L+ L+ L+ + N+ N+ N+ N+ N+ N+ N+ N+ N+ N+ N+ N+ N+ N+ N+ N+ N+ N+ N+ N+ N+ N+ N+ N+ N+ N+ N+ N+ N+  <O- <O- <O- <O- <O- <O- <O- <O- <O- <O- <O- <O- <O- <O- <O- <O- <O- <O- <O- <O- <O- <O- <O- <O- <O- <O- <O- <O- <O- <O- <O- <O- <O- <O- <O- <O- <O- <O- <O- <O- <O- <O- <O- <O- <O- <O- <O- <O- <O- <O- <O- <O- <O- <O- <O- <O- <O- <O- <O- <O- <O- <O- <O- <O- <O- <O- <O- <O- <O- <O- <O- <O- <O- <O- <O- <O- <O- <O- <O- <O- <O- <O- <O- <O- <O- <O- <O- <O- <O- <O- <O- <O- <O- <O- <O- <O- <O- <O- <O- <O- <O- <O- <O- <O- <O- <O- <O- <O- <O- <O- <O- <O- <O- <O- <O- <O- <O- <O- <O-  ?N. ?N. ?N. ?N. ?N. ?N. ?N. ?N. ?N. ?N. ?N. ?N. ?N. ?N. ?N. ?N. ?N. ?N. ?N. ?N. ?N. ?N. ?N. ?N. ?N. ?N. ?N. ?N. ?N. ?N. ?N. ?N. ?N. ?N. ?N. ?N. ?N. ?N. ?N. ?N. ?N. ?N. ?N. ?N. ?N. ?N. ?N. ?N. ?N. ?N. ?N. ?N. ?N. ?N. ?N. ?N. ?N. ?N. ?N. N. >N. >N. >N. >N. >N. >N. >N. >N. >N. >N. >N. >N. >N. >N. >N. >N. >N. >N. >N. >N. >N. >N. >N. >N. >N. >N. >N. >N. >N. >N. >N. >N. >N. >N. >N. >N. >N. >N. >N. >N. >N. >N. >N. >N. >N. >N. >N. >N. >N. >N. >N. >N. >N. >N. >N. >N. >N. >N. >N. N ?N0 ?N0 ?N0 ?N0 ?N0 ?N0 ?N0 ?N0 ?N0 ?N0 ?N0 ?N0 ?N0 ?N0 ?N0 ?N0 ?N0 ?N0 ?N0 ?N0 ?N0 ?N0 ?N0 ?N0 ?N0 ?N0 ?N0 ?N0 ?N0 ?N0 ?N0 ?N0 ?N0 ?N0 ?N0 ?N0 ?N0 ?N0 ?N0 ?N0 ?N0 ?N0 ?N0 ?N0 ?N0 ?N0 ?N0 ?N0 ?N0 ?N0 ?N0 ?N0 ?N0 ?N0 ?N0 ?N0 ?N0 ?N0 ?N0 ?N0 ?N0 ?N0 ?N0 ?N0 ?N0 ?N0 ?N0 ?N0 ?N0 ?N0 ?N0 ?N0 ?N0 ?N0 ?N0 ?N0 ?N0 ?N0 ?N0 ?N0 ?N0 ?N0 ?N0 ?N0 ?N0 ?N0 ?N0 ?N0 ?N0 ?N0 ?N0 ?N0 ?N0 ?N0 ?N0 ?N0 ?N0 ?N0 ?N0 ?N0 ?N0 ?N0 ?N0 ?N0 ?N0 ?N0 ?N0 ?N0 ?N0 ?N0 ?N0 ?N0 ?N0 ?N0 ?N0 ?N0 ?N0 ?N0 ?N0 ? ?Q- ?Q- ?Q- ?Q- ?Q- ?Q- ?Q- ?Q- ?Q- ?Q- ?Q- ?Q- ?Q- ?Q- ?Q- ?Q- ?Q- ?Q- ?Q- ?Q- ?Q- ?Q- ?Q- ?Q- ?Q- ?Q- ?Q- ?Q- ?Q- ?Q- ?Q- ?Q- ?Q- ?Q- ?Q- ?Q- ?Q- ?Q- ?Q- ?Q- ?Q- ?Q- ?Q- ?Q- ?Q- ?Q- ?Q- ?Q- ?Q- ?Q- ?Q- ?Q- ?Q- ?Q- ?Q- ?Q- ?Q- ?Q- ?Q- ?- ?O- ?O- ?O- ?O- ?O- ?O- ?O- ?O- ?O- ?O- ?O- ?O- ?O- ?O- ?O- ?O- ?O- ?O- ?O- ?O- ?O- ?O- ?O- ?O- ?O- ?O- ?O- ?O- ?O- ?O- ?O- ?O- ?O- ?O- ?O- ?O- ?O- ?O- ?O- ?O- ?O- ?O- ?O- ?O- ?O- ?O- ?O- ?O- ?O- ?O- ?O- ?O- ?O- ?O- ?O- ?O- ?O- ?O- ?O- ? ?O* ?O* ?O* ?O* ?O* ?O* ?O* ?O* ?O* ?O* ?O* ?O* ?O* ?O* ?O* ?O* ?O* ?O* ?O* ?O* ?O* ?O* ?O* ?O* ?O* ?O* ?O* ?O* ?O* ?O* >O* >O* >O* >O* >O* >O* >O* >O* >O* >O* >O* >O* >O* >O* >O* >O* >O* >O* >O* >O* >O* >O* >O* >O* >O* >O* >O* >O* >O* * <Q* <Q* <Q* <Q* <Q* <Q* <Q* <Q* <Q* <Q* <Q* <Q* <Q* <Q* <Q* <Q* <Q* <Q* <Q* <Q* <Q* <Q* <Q* <Q* <Q* <Q* <Q* <Q* <Q* Q* >Q* >Q* >Q* >Q* >Q* >Q* >Q* >Q* >Q* >Q* >Q* >Q* >Q* >Q* >Q* >Q* >Q* >Q* >Q* >Q* >Q* >Q* >Q* >Q* >Q* >Q* >Q* >Q* >Q* Q @Q& @Q& @Q& @Q& @Q& @Q& @Q& @Q& @Q& @Q& @Q& @Q& @Q& @Q& @Q& @Q& @Q& @Q& @Q& @Q& @Q& @Q& @Q& @Q& @Q& @Q& @Q& @Q& @Q& Q& BQ& BQ& BQ& BQ& BQ& BQ& BQ& BQ& BQ& BQ& BQ& BQ& BQ& BQ& BQ& BQ& BQ& BQ& BQ& BQ& BQ& BQ& BQ& BQ& BQ& BQ& BQ& BQ& BQ& Q& CQ& CQ& CQ& CQ& CQ& CQ& CQ& CQ& CQ& CQ& CQ& CQ& CQ& CQ& CQ& CQ& CQ& CQ& CQ& CQ& CQ& CQ& CQ& CQ& CQ& CQ& CQ& CQ& CQ& Q& EQ& EQ& EQ& EQ& EQ& EQ& EQ& EQ& EQ& EQ& EQ& EQ& EQ& EQ& EQ& EQ& EQ& EQ& EQ& EQ& EQ& EQ& EQ& EQ& EQ& EQ& EQ& EQ& EQ& Q FQ+ FQ+ FQ+ FQ+ FQ+ FQ+ FQ+ FQ+ FQ+ FQ+ FQ+ FQ+ FQ+ FQ+ FQ+ FQ+ FQ+ FQ+ FQ+ FQ+ FQ+ FQ+ FQ+ FQ+ FQ+ FQ+ FQ+ FQ+ FQ+ FQ+ FQ+ FQ+ FQ+ FQ+ FQ+ FQ+ FQ+ FQ+ FQ+ FQ+ FQ+ FQ+ FQ+ FQ+ FQ+ FQ+ FQ+ FQ+ FQ+ FQ+ FQ+ FQ+ FQ+ FQ+ FQ+ FQ+ FQ+ FQ+ FQ+ + HO+ HO+ HO+ HO+ HO+ HO+ HO+ HO+ HO+ HO+ HO+ HO+ HO+ HO+ HO+ HO+ HO+ HO+ HO+ HO+ HO+ HO+ HO+ HO+ HO+ HO+ HO+ HO+ HO+ O+ FO+ FO+ FO+ FO+ FO+ FO+ FO+ FO+ FO+ FO+ FO+ FO+ FO+ FO+ FO+ FO+ FO+ FO+ FO+ FO+ FO+ FO+ FO+ FO+ FO+ FO+ FO+ FO+ FO+  ET3 ET3 ET3 ET3 ET3 ET3 ET3 ET3 ET3 ET3 ET3 ET3 ET3 ET3 ET3 ET3 ET3 ET3 ET3 ET3 ET3 ET3 ET3 ET3 ET3 ET3 ET3 ET3 ET3 T3 FT3 FT3 FT3 FT3 FT3 FT3 FT3 FT3 FT3 FT3 FT3 FT3 FT3 FT3 FT3 FT3 FT3 FT3 FT3 FT3 FT3 FT3 FT3 FT3 FT3 FT3 FT3 FT3 FT3 T3 HT3 HT3 HT3 HT3 HT3 HT3 HT3 HT3 HT3 HT3 HT3 HT3 HT3 HT3 HT3 HT3 HT3 HT3 HT3 HT3 HT3 HT3 HT3 HT3 HT3 HT3 HT3 HT3 HT3 HT3 HT3 HT3 HT3 HT3 HT3 HT3 HT3 HT3 HT3 HT3 HT3 HT3 HT3 HT3 HT3 HT3 HT3 HT3 HT3 HT3 HT3 HT3 HT3 HT3 HT3 HT3 HT3 HT3 HT3  CR2 CR2 CR2 CR2 CR2 CR2 CR2 CR2 CR2 CR2 CR2 CR2 CR2 CR2 CR2 CR2 CR2 CR2 CR2 CR2 CR2 CR2 CR2 CR2 CR2 CR2 CR2 CR2 CR2 2 BQ2 BQ2 BQ2 BQ2 BQ2 BQ2 BQ2 BQ2 BQ2 BQ2 BQ2 BQ2 BQ2 BQ2 Q2 CR2 CR2 CR2 CR2 CR2 CR2 CR2 CR2 CR2 CR2 CR2 CR2 CR2 CR2 R2 BQ2 BQ2 BQ2 BQ2 BQ2 BQ2 BQ2 BQ2 BQ2 Q2 CQ2 CQ2 CQ2 CQ2 CQ2 CR2 CR2 CR2 CR2 R2 BR2 BR2 BR2 BR2 BR2 BR2 BR2 BR2 BR2 R2 CQ2 CQ2 CQ2 CQ2 CQ2 CQ2 CQ2 CQ2 CQ2 Q2 BQ2 BQ2 BQ2 BQ2 BQ2 BR2 BR2 BR2 BR2 R2 CR2 CR2 CR2 CR2 CR2 CR2 CR2 CR2 CR2 R BQ0 BQ0 BQ0 BQ0 BQ0 BQ0 BQ0 BQ0 BQ0 0 CR0 CR0 CR0 CR0 CR0 CR0 CR0 CR0 CR0 0 BQ0 BQ0 BQ0 BQ0 BQ0 BQ0 BQ0 BQ0 BQ0 0 CR0 CR0 CR0 CR0 CR0 CR0 CR0 CR0 CR0 0 BQ0 BQ0 BQ0 BQ0 BQ0 BQ0 BQ0 BQ0 BQ0 0 CR0 CR0 CR0 CR0 CR0 CR0 CR0 CR0 CR0 0 BQ0 BQ0 BQ0 BQ0 BQ0 BQ0 BQ0 BQ0 BQ0 0 CR0 CR0 CR0 CR0 CR0 CR0 CR0 CR0 CR0 0 BQ0 BQ0 BQ0 BQ0 BQ0 BQ0 BQ0 BQ0 BQ0 0 CR0 CR0 CR0 CR0 CR0 CR0 CR0 CR0 CR0 0 BQ0 BQ0 BQ0 BQ0 BQ0 BQ0 BQ0 BQ0 BQ0 0 CR0 CR0 CR0 CR0 CR0 CR0 CR0 CR0 CR0  BQ2 BQ2 BQ2 BQ2 BQ2 BQ2 BQ2 BQ2 BQ2 2 CR2 CR2 CR2 CR2 CR2 CR2 CR2 CR2 CR2 2 BQ2 BQ2 BQ2 BQ2 BQ2 BQ2 BQ2 BQ2 BQ2 2 CR2 CR2 CR2 CR2 CR2 CR2 CR2 CR2 CR2 2 BQ2 BQ2 BQ2 BQ2 BQ2 BQ2 BQ2 BQ2 BQ2 2 CR2 CR2 CR2 CR2 CR2 CR2 CR2 CR2 CR2 2 BQ2 BQ2 BQ2 BQ2 BQ2 BQ2 BQ2 BQ2 BQ2 2 CR2 CR2 CR2 CR2 CR2 CR2 CR2 CR2 CR2 2 BQ2 BQ2 BQ2 BQ2 BQ2 BQ2 BQ2 BQ2 BQ2 2 CR2 CR2 CR2 CR2 CR2 CR2 CR2 CR2 CR2 2 BQ2 BQ2 BQ2 BQ2 BQ2 BQ2 BQ2 BQ2 BQ2 2 CR2 CR2 CR2 CR2 CR2 CR2 CR2 CR2 CR2  CO& CO& CO& CO& CO& CO& CO& CO& CO& CO& CO& CO& CO& CO& CO& CO& CO& CO& CO& CO& CO& CO& CO& CO& CO& CO& CO& CO& CO& CO& CO& CO& CO& CO& CO& CO& CO& CO& CO& CO& CO& CO& CO& CO& CO& CO& CO& CO& CO& CO& CO& CO& CO& CO& CO& CO& CO& CO& CO& CO& CO& CO& CO& CO& CO& CO& CO& CO& CO& CO& CO& CO& CO& CO& CO& CO& CO& CO& CO& CO& CO& CO& CO& CO& CO& CO& CO& CO& CO& CO& CO& CO& CO& CO& CO& CO& CO& CO& CO& CO& CO& CO& CO& CO& CO& CO& CO& CO& CO& CO& CO& CO& CO& CO& CO& CO& CO& CO& CO& O CO+ CO+ CO+ CO+ CO+ CO+ CO+ CO+ CO+ CO+ CO+ CO+ CO+ CO+ CO+ CO+ CO+ CO+ CO+ CO+ CO+ CO+ CO+ CO+ CO+ CO+ CO+ CO+ CO+ CO+ CO+ CO+ CO+ CO+ CO+ CO+ CO+ CO+ CO+ CO+ CO+ CO+ CO+ CO+ CO+ CO+ CO+ CO+ CO+ CO+ CO+ CO+ CO+ CO+ CO+ CO+ CO+ CO+ CO+ CO+ CO+ CO+ CO+ CO+ CO+ CO+ CO+ CO+ CO+ CO+ CO+ CO+ CO+ CO+ CO+ CO+ CO+ CO+ CO+ CO+ CO+ CO+ CO+ CO+ CO+ CO+ CO+ CO+ CO+ CO+ CO+ CO+ CO+ CO+ CO+ CO+ CO+ CO+ CO+ CO+ CO+ CO+ CO+ CO+ CO+ CO+ CO+ CO+ CO+ CO+ CO+ CO+ CO+ CO+ CO+ CO+ CO+ CO+ CO+ CO CO2 CO2 CO2 CO2 CO2 CO2 CO2 CO2 CO2 CO2 CO2 CO2 CO2 CO2 CO2 CO2 CO2 CO2 CO2 CO2 CO2 CO2 CO2 CO2 CO2 CO2 CO2 CO2 CO2 CO2 CO2 CO2 CO2 CO2 CO2 CO2 CO2 CO2 CO2 CO2 CO2 CO2 CO2 CO2 CO2 CO2 CO2 CO2 CO2 CO2 CO2 CO2 CO2 CO2 CO2 CO2 CO2 CO2 CO2 CO2 CO2 CO2 CO2 CO2 CO2 CO2 CO2 CO2 CO2 CO2 CO2 CO2 CO2 CO2 CO2 CO2 CO2 CO2 CO2 CO2 CO2 CO2 CO2 CO2 CO2 CO2 CO2 CO2 CO2 CO2 CO2 CO2 CO2 CO2 CO2 CO2 CO2 CO2 CO2 CO2 CO2 CO2 CO2 CO2 CO2 CO2 CO2 CO2 CO2 CO2 CO2 CO2 CO2 CO2 CO2 CO2 CO2 CO2 CO2 CO CO7 CO7 CO7 CO7 CO7 CO7 CO7 CO7 CO7 CO7 CO7 CO7 CO7 CO7 CO7 CO7 CO7 CO7 CO7 CO7 CO7 CO7 CO7 CO7 CO7 CO7 CO7 CO7 CO7 CO7 CO7 CO7 CO7 CO7 CO7 CO7 CO7 CO7 CO7 CO7 CO7 CO7 CO7 CO7 CO7 CO7 CO7 CO7 CO7 CO7 CO7 CO7 CO7 CO7 CO7 CO7 CO7 CO7 CO7 CO7 CO7 CO7 CO7 CO7 CO7 CO7 CO7 CO7 CO7 CO7 CO7 CO7 CO7 CO7 CO7 CO7 CO7 CO7 CO7 CO7 CO7 CO7 CO7 CO7 CO7 CO7 CO7 CO7 CO7 CO7 CO7 CO7 CO7 CO7 CO7 CO7 CO7 CO7 CO7 CO7 CO7 CO7 CO7 CO7 CO7 CO7 CO7 CO7 CO7 CO7 CO7 CO7 CO7 CO7 CO7 CO7 CO7 CO7 CO7 CO CO9 CO9 CO9 CO9 CO9 CO9 CO9 CO9 CO9 CO9 CO9 CO9 CO9 CO9 CO9 CO9 CO9 CO9 CO9 CO9 CO9 CO9 CO9 CO9 CO9 CO9 CO9 CO9 CO9 CO9 CO9 CO9 CO9 CO9 CO9 CO9 CO9 CO9 CO9 CO9 CO9 CO9 CO9 CO9 CO9 CO9 CO9 CO9 CO9 CO9 CO9 CO9 CO9 CO9 CO9 CO9 CO9 CO9 CO9 CO9 CO9 CO9 CO9 CO9 CO9 CO9 CO9 CO9 CO9 CO9 CO9 CO9 CO9 CO9 CO9 CO9 CO9 CO9 CO9 CO9 CO9 CO9 CO9 CO9 CO9 CO9 CO9 CO9 CO9 CO9 CO9 CO9 CO9 CO9 CO9 CO9 CO9 CO9 CO9 CO9 CO9 CO9 CO9 CO9 CO9 CO9 CO9 CO9 CO9 CO9 CO9 CO9 CO9 CO9 CO9 CO9 CO9 CO9 CO9 CO CO9 CO9 CO9 CO9 CO9 CO9 CO9 CO9 CO9 CO9 CO9 CO9 CO9 CO9 CO9 CO9 CO9 CO9 CO9 CO9 CO9 CO9 CO9 CO9 CO9 CO9 CO9 CO9 CO9 CO9 CO9 CO9 CO9 CO9 CO9 CO9 CO9 CO9 CO9 CO9 CO9 CO9 CO9 CO9 CO9 CO9 CO9 CO9 CO9 CO9 CO9 CO9 CO9 CO9 CO9 CO9 CO9 CO9 CO9 CO CO: CO: CO: CO: CO: CO: CO: CO: CO: CO: CO: CO: CO: CO: CO CO9 CO9 CO9 CO9 CO9 CO9 CO9 CO9 CO9 CO9 CO9 CO9 CO9 CO9 CO CO7 CO7 CO7 CO7 CO7 CO7 CO7 CO7 CO7 CO7 CO7 CO7 CO7 CO7 CO CO9 CO9 CO9 CO9 CO9 CO9 CO9 CO9 CO9 CO9 CO9 CO9 CO9 CO9 CO CO: CO: CO: CO: CO: CO: CO: CO: CO: CO: CO: CO: CO: CO: CO: CO: CO: CO: CO: CO: CO: CO: CO: CO: CO: CO: CO: CO: CO: CO: CO: CO: CO: CO: CO: CO: CO: CO: CO: CO: CO: CO: CO: CO: CO: CO: CO: CO: CO: CO: CO: CO: CO: CO: CO: CO: CO: CO: CO: CO: CO: CO: CO: CO: CO: CO: CO: CO: CO: CO: CO: CO: CO: CO: CO: CO: CO: CO: CO: CO: CO: CO: CO: CO: CO: CO: CO: CO: CO: CO: CO: CO: CO: CO: CO: CO: CO: CO: CO: CO: CO: CO: CO: CO: CO: CO: CO: CO: CO: CO: CO: CO: CO: CO: CO: CO: CO: CO: CO: CO 4 4 4 4 4 4 4 4 4 4 4 4 4 4 4 4 4 4 4 4 4 4 4 4 4 4 4 4 4 4 4 4 4 4 4 4 4 4 4 4 4 4 4 4 4 4 4 4 4 4 4 4 4 4 4 4 4 4 4 4 4 4 4 4 4 4 4 4 4 4 4 4 4 4 4 4 4 4 4 4 4 4 4 4 4 4 4 4 4 4 4 4 4 4 4 4 4 4 4 4 4 4 4 4 4 4 4 4 4 4 4 4 4 4 4 4 4 4 4  2 2 2 2 2 2 2 2 2 2 2 2 2 2 2 2 2 2 2 2 2 2 2 2 2 2 2 2 2 2 2 2 2 2 2 2 2 2 2 2 2 2 2 2 2 2 2 2 2 2 2 2 2 2 2 2 2 2 2 2 2 2 2 2 2 2 2 2 2 2 2 2 2 2 2 2 2 2 2 2 2 2 2 2 2 2 2 2 2 2 2 2 2 2 2 2 2 2 2 2 2 2 2 2 2 2 2 2 2 2 2 2 2 2 2 2 2 2 2  C4 C4 C4 C4 C4 C4 C4 C4 C4 C4 C4 C4 C4 C4 C4 C4 C4 C4 C4 C4 C4 C4 C4 C4 C4 C4 C4 C4 C4 C4 C4 C4 C4 C4 C4 C4 C4 C4 C4 C4 C4 C4 C4 C4 C4 C4 C4 C4 C4 C4 C4 C4 C4 C4 C4 C4 C4 C4 C4 C4 C4 C4 C4 C4 C4 C4 C4 C4 C4 C4 C4 C4 C4 C4 C4 C4 C4 C4 C4 C4 C4 C4 C4 C4 C4 C4 C4 C4 C4 C4 C4 C4 C4 C4 C4 C4 C4 C4 C4 C4 C4 C4 C4 C4 C4 C4 C4 C4 C4 C4 C4 C4 C4 C4 C4 C4 C4 C4 C4  E5 E5 E5 E5 E5 E5 E5 E5 E5 E5 E5 E5 E5 E5 E5 E5 E5 E5 E5 E5 E5 E5 E5 E5 E5 E5 E5 E5 E5 E5 E5 E5 E5 E5 E5 E5 E5 E5 E5 E5 E5 E5 E5 E5 E5 E5 E5 E5 E5 E5 E5 E5 E5 E5 E5 E5 E5 E5 E5 E5 E5 E5 E5 E5 E5 E5 E5 E5 E5 E5 E5 E5 E5 E5 E5 E5 E5 E5 E5 E5 E5 E5 E5 E5 E5 E5 E5 E5 E5 E5 E5 E5 E5 E5 E5 E5 E5 E5 E5 E5 E5 E5 E5 E5 E5 E5 E5 E5 E5 E5 E5 E5 E5 E5 E5 E5 E5 E5 E5  E5 E5 E5 E5 E5 E5 E5 E5 E5 E5 E5 E5 E5 E5 E5 E5 E5 E5 E5 E5 E5 E5 E5 E5 E5 E5 E5 E5 E5 E5 E5 E5 E5 E5 E5 E5 E5 E5 E5 E5 E5 E5 E5 E5 E5 E5 E5 E5 E5 E5 E5 E5 E5 E5 E5 E5 E5 E5 E5 5 F F F F F7 F7 F7 F7 F7 F7 F7 F7 F7 F7 7 E7 E7 E7 E E5 E5 E5 E5 E5 E5 E5 E5 E5 E5 5 C5 C5 C5 C C4 C4 C4 C4 C4 C4 C4 C4 C4 C4 4 E4 E4 E4 E E5 E5 E5 E5 E5 E5 E5 E5 E5 E5 5 F5 F5 F5 F F7 F7 F7 F7 F7 F7 F7 F7 F7 F7 F7 F7 F7 F7 F7 F7 F7 F7 F7 F7 F7 F7 F7 F7 F7 F7 F7 F7 F7 F7 F7 F7 F7 F7 F7 F7 F7 F7 F7 F7 F7 F7 F7 F7 F7 F7 F7 F7 F7 F7 F7 F7 F7 F7 F7 F7 F7 F7 F7 F7 F7 F7 F7 F7 F7 F7 F7 F7 F7 F7 F7 F7 F7 F7 F7 F7 F7 F7 F7 F7 F7 F7 F7 F7 F7 F7 F7 F7 F7 F7 F7 F7 F7 F7 F7 F7 F7 F7 F7 F7 F7 F7 F7 F7 F7 F7 F7 F7 F7 F7 F7 F7 F7 F7 F7 7 A7 A7 A7 A A0 A0 A0 A0 A0 A0 A0 A0 A0 A0 A0 A0 A0 A0 A0 A0 A0 A0 A0 A0 A0 A0 A0 A0 A0 A0 A0 A0 A0 A0 A0 A0 A0 A0 A0 A0 A0 A0 A0 A0 A0 A0 A0 A0 A0 A0 A0 A0 A0 A0 A0 A0 A0 A0 A0 0 @0 @0 @0 @0 @0 @0 @0 @0 @0 @0 @0 @0 @0 @0 @0 @0 @0 @0 @0 @0 @0 @0 @0 @0 @0 @0 @0 @0 @0 @0 @0 @0 @0 @0 @0 @0 @0 @0 @0 @0 @0 @0 @0 @0 @0 @0 @0 @0 @0 @0 @0 @0 @0 @0 @0 @0 @0 @0 @0 @0 @0 @0 @0 @ @. @. @. @. @. @. @. @. @. @. @. @. @. @. @. @. @. @. @. @. @. @. @. @. @. @. @. @. @. @. @. @. @. @. @. @. @. @. @. @. @. @. @. @. @. @. @. @. @. @. @. @. @. @. @. @. @. @. @. @ @- @- @- @- @- @- @- @- @- @- @- @- @- @- @- @- @- @- @- @- @- @- @- @- @- @- @- @- @- @- @- @- @- @- @- @- @- @- @- @- @- @- @- @- @- @- @- @- @- @- @- @- @- @- @- @- @F- @F- @F- @F @F+ @F+ @F+ @F+ @F+ @F+ @F+ @F+ @F+ @F+ @F+ @F+ @F+ @F+ @F+ @F+ @F+ @F+ @F+ @F+ @F+ @F+ @F+ @F+ @F+ @F+ @F+ @F+ @F+ @F+ @F+ @F+ @F+ @F+ @F+ @F+ @F+ @F+ @F+ @F+ @F+ @F+ @F+ @F+ @F+ @F+ @F+ @F+ @F+ @F+ @F+ @F+ @F+ @F+ @F+ @F+ @F+ @F+ @F+ @F+ @F+ @F+ @F+ @F+ @F+ @F+ @F+ @F+ @F+ @F+ @F+ @F+ @F+ @F+ @F+ @F+ @F+ @F+ @F+ @F+ @F+ @F+ @F+ @F+ @F+ @F+ @F+ @F+ @F+ @F+ @F+ @F+ @F+ @F+ @F+ @F+ @F+ @F+ @F+ @F+ @F+ @F+ @F+ @F+ @F+ @F+ @F+ @F+ @F+ @F+ @F+ @F+ @F+ @F+ @F+ @+ @H+ @H+ @H+ @H @H @H @H @H @H @H @H @H @H @H @H @H @H @H @H @H @H @H @H @H @H @H @H @H @H @H @H @H @H @H @H @H @H @H @H @H @H @H @H @H @H @H @H @H @H @H @H @H @H @H @H @H @H @H @H @H @H @H @H @H @H @H @H @H @H @H @H @H @H @H @H @H @H @H @H @H @H @H @H @H @H @H @H @H @H @H @H @H @H @H @H @H @H @H @H @H @H @H @H @H @H @H @H @H @H @H @H @H @H @H @H @H @H @H @H @ @H-- @H-- @H-- @H- @H- @H- @H- @H- @H- @H- @H- @H- @H- @H- @H- @H- @H- @H- @H- @H- @H- @H- @H- @H- @H- @H- @H- @H- @H- @H- @H- @H- @H- @H- @H- @H- @H- @H- @H- @H- @H- @H- @H- @H- @H- @H- @H- @H- @H- @H- @H- @H- @H- @H- @H- @H- @H- @H- @H- @- @J @J @J @J @J. @J. @J. @J. @J. @J. @J. @J. @J. @J. @. @H. @H. @H. @H @H- @H- @H- @H- @H- @H- @H- @H- @H- @H- @- @F- @F- @F- @F @F+ @F+ @F+ @F+ @F+ @F+ @F+ @F+ @F+ @F+ @+ @H+ @H+ @H+ @H @H- @H- @H- @H- @H- @H- @H- @H- @H- @H- @- @J- @J- @J- @J @J. @J. @J. @J. @J. @J. @J. @J. @J. @J. @J. @J. @J. @J. @J. @J. @J. @J. @J. @J. @J. @J. @J. @J. @J. @J. @J. @J. @J. @J. @J. @J. @J. @J. @J. @J. @J. @J. @J. @J. @J. @J. @J. @J. @J. @J. @J. @J. @J. @J. @J. @J. @J. @J. @J. @J. @J. @J. @J. @J. @J. @J. @J. @J. @J. @J. @J. @J. @J. @J. @J. @J. @J. @J. @J. @J. @J. @J. @J. @J. @J. @J. @J. @J. @J. @J. @J. @J. @J. @J. @J. @J. @J. @J. @J. @J. @J. @J. @J. @J. @J. @J. @J. @J. @J. @J. @J. @J. @J. @J. @J. @J. @J. @J. @J. @. @C. @C. @C. @C @C$ @C$ @C$ @C$ @C$ @C$ @C$ @C$ @C$ @C$ @C$ @C$ @C$ @C$ @C$ @C$ @C$ @C$ @C$ @C$ @C$ @C$ @C$ @C$ @C$ @C$ @C$ @C$ @C$ @C$ @C$ @C$ @C$ @C$ @C$ @C$ @C$ @C$ @C$ @C$ @C$ @C$ @C$ @C$ @C$ @C$ @C$ @C$ @C$ @C$ @C$ @C$ @C$ @C$ @C$ C$ CC$ CC$ CC$ CC$ CC$ CC$ CC$ CC$ CC$ CC$ CC$ CC$ CC$ CC$ CC$ CC$ CC$ CC$ CC$ CC$ CC$ CC$ CC$ CC$ CC$ CC$ CC$ CC$ CC$ CC$ CC$ CC$ CC$ CC$ CC$ CC$ CC$ CC$ CC$ CC$ CC$ CC$ CC$ CC$ CC$ CC$ CC$ CC$ CC$ CC$ CC$ CC$ CC$ CC$ CC$ CC$ CC$ CC$ CC$ $ FO$" FO$" FO$" FO" FO" FO" FO" FO" FO" FO" FO" FO" FO" FO" FO" FO" FO" FO" FO" FO" FO" FO" FO" FO" FO" FO" FO" FO" FO" FO" FO" FO" FO" FO" FO" FO" FO" FO" FO" FO" FO" FO" FO" FO" FO" FO" FO" FO" FO" FO" FO" FO" FO" FO" FO" FO" FO" FO" FO" O" EO" EO" EO" EO" EO" EO" EO" EO" EO" EO" EO" EO" EO" EO" EO" EO" EO" EO" EO" EO" EO" EO" EO" EO" EO" EO" EO" EO" EO" EO" EO" EO" EO" EO" EO" EO" EO" EO" EO" EO" EO" EO" EO" EO" EO" EO" EO" EO" EO" EO" EO" EO" EO" EO" EO" EO" EO" EO" EO"  CM CM CM CM CM$ CM$ CM$ CM$ CM$ CM$ CM$ CM$ CM$ CM$ CM$ CM$ CM$ CM$ CM$ CM$ CM$ CM$ CM$ CM$ CM$ CM$ CM$ CM$ CM$ C$ CL$ CL$ CL$ CL$ CL$ CL$ CL$ CL$ CL$ CL$ CL$ CL$ CL$ CL$ CL$ CL$ CL$ CL$ CL$ C$ CM$ CM$ CM$ CM$ CM$ CM$ CM$ CM$ CM$ M$ AM$ AM$ AM$ AM$ AM$ AM$ AM$ AM$ AM$ A$ AL$ AL$ AL$ AL$ AL$ AL$ AL$ AL$ AL$ AL$ AL$ AL$ AL$ AL$ AL$ AL$ AL$ AL$ AL$ A$ AM$ AM$ AM$ AM$ AM$ AM$ AM$ AM$ AM$ AM$ AM$ AM$ AM$ AM$ A$ AL$ AL$ AL$ AL$ AL$ AL$ AL$ AL$ AL$ AL$ AL$ AL$ AL$ AL$ $ @M$ @M$ @M$ @M$ @M$ @M$ @M$ @M$ @M$ @M$ @M$ @M$ @M$ @M$ @$ @L$ @L$ @L$ @L$ @L$ @L$ @L$ @L$ @L$ @L$ @L$ @L$ @L$ @L$ @$ @M$ @M$ @M$ @M$ @M$ @M$ @M$ @M$ @M$ @$ @L$ @L$ @L$ @L$ @L$ @L$ @L$ @L$ @L$ @$ @M$ @M$ @M$ @M$ @M$ @M$ @M$ @M$ @M$ $ >L$ >L$ >L$ >L$ >L$ >L$ >L$ >L$ >L$ >$ >M$ >M$ >M$ >M$ >M$ >M$ >M$ >M$ >M$ >$ >L$ >L$ >L$ >L$ >L$ >L$ >L$ >L$ >L$ >$ >M$ >M$ >M$ >M$ >M$ >M$ >M$ >M$ >M$ >$ >L$ >L$ >L$ >L$ >L$ >L$ >L$ >L$ >L$ >$ >M$ >M$ >M$ >M$ >M$ >M$ >M$ >M$ >M$ $ <L$ <L$ <L$ <L <L0 <L0 <L0 <L0 <L0 <0 <M0 <M0 <M0 <M0 <M0 <M0 <M0 <M0 <M0 <0 <L0 <L0 <L0 <L0 <L0 <L0 <L0 <L0 <L0 <0 <M0 <M0 <M0 <M0 <M0 <M0 <M0 <M0 <M0 <0 <L0 <L0 <L0 <L0 <L0 <L0 <L0 <L0 <L0 <0 <M0 <M0 <M0 <M0 <M0 <M0 <M0 <M0 <M0 0 :L0 :L0 :L0 :L0 :L0 :L0 :L0 :L0 :L0 :0 :M0 :M0 :M0 :M0 :M0 :M0 :M0 :M0 :M0 :0 :L0 :L0 :L0 :L0 :L0 :L0 :L0 :L0 :L0 :0 :M0 :M0 :M0 :M0 :M0 :M0 :M0 :M0 :M0 :M0 :M0 :M0 :M0 :M0 :M0 :L0 :L0 :L0 :L0 :L0 :L0 :L0 :L0 :L0 :L0 :L0 :L0 :L0 :L0 L0 9M0 9M0 9M0 9M0 9M0 9M0 9M0 9M0 9M0 9M0 9M0 9M0 9M0 9M0 9M0 9M0 9M0 9M0 9M0 9M0 9M0 9M0 9M0 9M0 9M0 9M0 9M0 9M0 9M0 9M0 9M0 9M0 9M0 9M0 9M0 9M0 9M0 9M0 9M0 9M0 9M0 9M0 9M0 9M0 9M0 9M0 9M0 9M0 9M0 9M0 9M0 9M0 9M0 9M0 9M0 9M0 9M0 9M0 9M0 M0 :M0 :M0 :M0 :M0 :M0 :M0 :M0 :M0 :M0 :M0 :M0 :M0 :M0 :M0 :M0 :M0 :M0 :M0 :M0 :M0 :M0 :M0 :M0 :M0 :M0 :M0 :M0 :M0 :M0 :M0 :M0 :M0 :M0 :M0 :M0 :M0 :M0 :M0 :M0 :M0 :M0 :M0 :M0 :M0 :M0 :M0 :M0 :M0 :M0 :M0 :M0 :M0 :M0 :M0 :M0 :M0 :M0 :M0 :M0 0 :M0 :M0 :M0 :M :M) :M) :M) :M) :M) :M) :M) :M) :M) :M) :M) :M) :M) :M) :M) :M) :M) :M) :M) :M) :M) :M) :M) :M) :M) :M) :M) :M) :M) :M) :M) :M) :M) :M) :M) :M) :M) :M) :M) :M) :M) :M) :M) :M) :M) :M) :M) :M) :M) :M) :M) :M) :M) :M) :M) ) 9H) 9H) 9H) 9H) 9H) 9H) 9H) 9H) 9H) 9H) 9H) 9H) 9H) 9H) H) :H) :H) :H) :H) :H) :H) :H) :H) :H) :H) :H) :H) :H) :H) H) 9H) 9H) 9H) 9H) 9H) 9H) 9H) 9H) 9H) 9H) 9H) 9H) 9H) 9H) H) :H) :H) :H) :H) :H) :H) :H) :H) :H) :H) :H) :H) :H) :H) ) 9K) 9K) 9K) 9K 9K0 9K0 9K0 9K0 9K0 9K0 9K0 9K0 9K0 9K0 K0 :K0 :K0 :K0 :K0 :K0 :K0 :K0 :K0 :K0 K0 9K0 9K0 9K0 9K0 9K0 9K0 9K0 9K0 9K0 K0 :K0 :K0 :K0 :K0 :K0 :K0 :K0 :K0 :K0 K0 9K0 9K0 9K0 9K0 9K0 9K0 9K0 9K0 9K0 K0 :K0 :K0 :K0 :K0 :0 :J0 :J0 :J0 :J0 J0 9J0 9J0 9J0 9J0 9J0 9J0 9J0 9J0 9J0 J0 :J0 :J0 :J0 :J0 :J0 :J0 :J0 :J0 :J0 J0 9J0 9J0 9J0 9J0 9J0 9J0 9J0 9J0 9J0 J0 :J0 :J0 :J0 :J0 :J0 :J0 :J0 :J0 :J0 J0 9J0 9J0 9J0 9J0 9J0 9J0 9J0 9J0 9J0 J0 :J0 :J0 :J0 :J0 :0 :H0 :H0 :H0 :H H5 9H5 9H5 9H5 9H5 9H5 9H5 9H5 9H5 9H5 H5 :H5 :H5 :H5 :H5 :H5 :H5 :H5 :H5 :H5 H5 9H5 9H5 9H5 9H5 9H5 9H5 9H5 9H5 9H5 H5 :H5 :H5 :H5 :H5 :H5 :H5 :H5 :H5 :H5 H5 9H5 9H5 9H5 9H5 9H5 9H5 9H5 9H5 9H5 H5 :H5 :H5 :H5 :H5 :5 :F5 :F5 :F5 :F5 F5 9F5 9F5 9F5 9F5 9F5 9F5 9F5 9F5 9F5 F5 :F5 :F5 :F5 :F5 :F5 :F5 :F5 :F5 :F5 F5 9F5 9F5 9F5 9F5 9F5 9F5 9F5 9F5 9F5 F5 :F5 :F5 :F5 :F5 :F5 :F5 :F5 :F5 :F5 F5 9F5 9F5 9F5 9F5 9F5 9F5 9F5 9F5 9F5 F5 F5 F5 F5 F5 5 7E5 7E5 7E5 7E 7E3 7E3 7E3 7E3 7E3 7E3 7E3 7E3 7E3 7E3 7E3 7E3 7E3 7E3 7E3 7E3 7E3 7E3 7E3 7E3 7E3 7E3 7E3 7E3 7E3 7E3 7E3 7E3 7E3 7E3 7E3 7E3 7E3 7E3 7E3 7E3 7E3 7E3 7E3 7E3 7E3 7E3 7E3 7E3 7E3 7E3 7E3 7E3 7E3 7E3 7E3 7E3 7E3 7E3 7E3 73 7F3 7F3 7F3 7F3 7F3 7F3 7F3 7F3 7F3 7F3 7F3 7F3 7F3 7F3 7F3 7F3 7F3 7F3 7F3 7F3 7F3 7F3 7F3 7F3 7F3 7F3 7F3 7F3 7F3 7F3 7F3 7F3 7F3 7F3 7F3 7F3 7F3 7F3 7F3 7F3 7F3 7F3 7F3 7F3 7F3 7F3 7F3 7F3 7F3 7F3 7F3 7F3 7F3 7F3 7F3 7F3 7F3 7F3 7F3 73 5H3 5H3 5H3 5H 5H3 5H3 5H3 5H3 5H3 5H3 5H3 5H3 5H3 5H3 5H3 5H3 5H3 5H3 5H3 5H3 5H3 5H3 5H3 5H3 5H3 5H3 5H3 5H3 5H3 5H3 5H3 5H3 5H3 5H3 5H3 5H3 5H3 5H3 5H3 5H3 5H3 5H3 5H3 5H3 5H3 5H3 5H3 5H3 5H3 5H3 5H3 5H3 5H3 5H3 5H3 5H3 5H3 5H3 5H3 53 5E3 5E3 5E3 5E3 5E3 5E3 5E3 5E3 5E3 5E3 5E3 5E3 5E3 5E3 5E3 5E3 5E3 5E3 5E3 5E3 5E3 5E3 5E3 5E3 5E3 5E3 5E3 5E3 5E3 5E3 5E3 5E3 5E3 5E3 5E3 5E3 5E3 5E3 5E3 5E3 5E3 5E3 5E3 5E3 5E3 5E3 5E3 5E3 5E3 5E3 5E3 5E3 5E3 5E3 5E3 5E3 5E3 5E3 5E3 53 5C3 5C3 5C3 5C 5C2 5C2 5C2 5C2 5C2 5C2 5C2 5C2 5C2 5C2 5C2 5C2 5C2 5C2 5C2 5C2 5C2 5C2 5C2 5C2 5C2 5C2 5C2 5C2 5C2 5C2 5C2 5C2 5C2 5C2 5C2 5C2 5C2 5C2 5C2 5C2 5C2 5C2 5C2 5C2 5C2 5C2 5C2 5C2 5C2 5C2 5C2 5C2 5C2 5C2 5C2 5C2 5C2 5C2 5C2 52 5A2 5A2 5A2 5A2 5A2 5A2 5A2 5A2 5A2 5A2 5A2 5A2 5A2 5A2 5A2 5A2 5A2 5A2 5A2 5A2 5A2 5A2 5A2 5A2 5A2 5A2 5A2 5A2 5A2 5A2 5A2 5A2 5A2 5A2 5A2 5A2 5A2 5A2 5A2 5A2 5A2 5A2 5A2 5A2 5A2 5A2 5A2 5A2 5A2 5A2 5A2 5A2 5A2 5A2 5A2 5A2 5A2 5A2 5A2 52 F2 F2 F2 F F2 F2 F2 F2 F2 F2 F2 F2 F2 F2 F2 F2 F2 F2 F2 F2 F2 F2 F2 F2 F2 F2 F2 F2 F2 F2 F2 F2 F2 F2 F2 F2 F2 F2 F2 F2 F2 F2 F2 F2 F2 F2 F2 F2 F2 F2 F2 F2 F2 F2 F2 F2 F2 F2 F2 2 H2 H2 H2 H2 H2 H2 H2 H2 H2 H2 H2 H2 H2 H2 H2 H2 H2 H2 H2 H2 H2 H2 H2 H2 H2 H2 H2 H2 H2 H2 H2 H2 H2 H2 H2 H2 H2 H2 H2 H2 H2 H2 H2 H2 H2 H2 H2 H2 H2 H2 H2 H2 H2 H2 H2 H2 H2 H2 H2 2 F2 F2 F2 F F0 F0 F0 F0 F0 F0 F0 F0 F0 F0 F0 F0 F0 F0 F0 F0 F0 F0 F0 F0 F0 F0 F0 F0 F0 F0 F0 F0 F0 F0 F0 F0 F0 F0 F0 F0 F0 F0 F0 F0 F0 F0 F0 F0 F0 F0 F0 F0 F0 F0 F0 F0 F0 F0 F0 0 H0 H0 H0 H0 H0 H0 H0 H0 H0 H0 H0 H0 H0 H0 H0 H0 H0 H0 H0 H0 H0 H0 H0 H0 H0 H0 H0 H0 H0 H0 H0 H0 H0 H0 H0 H0 H0 H0 H0 H0 H0 H0 H0 H0 H0 H0 H0 H0 H0 H0 H0 H0 H0 H0 H0 H0 H0 H0 H0 0 AJ0 AJ0 AJ0 AJ AJ. AJ. AJ. AJ. AJ. AJ. AJ. AJ. AJ. AJ. A. AH. AH. AH. AH. AH. AH. AH. AH. AH. AH. AH. AH. AH. AH. A. AJ. AJ. AJ. AJ. AJ. AJ. AJ. AJ. AJ. A. AH. AH. AH. AH. AH. AH. AH. AH. AH. A. AJ. AJ. AJ. AJ. AJ. AJ. AJ. AJ. AJ. A. AH. AH. AH. AH. AH. AH. AH. AH. AH. A. AJ. AJ. AJ. AJ. AJ. AJ. AJ. AJ. AJ. A. AH. AH. AH. AH. AH. AH. AH. AH. AH. A. AJ. AJ. AJ. AJ. AJ. AJ. AJ. AJ. AJ. A. AH. AH. AH. AH. AH. AH. AH. AH. AH. A. AJ. AJ. AJ. AJ. AJ. AJ. AJ. AJ. AJ. A. AH. AH. AH. AH AH- AH- AH- AH- AH- A- AJ- AJ- AJ- AJ- AJ- AJ- AJ- AJ- AJ- A- AH- AH- AH- AH- AH- AH- AH- AH- AH- A- AJ- AJ- AJ- AJ- AJ- AJ- AJ- AJ- AJ- A- AH- AH- AH- AH- AH- AH- AH- AH- AH- A- AJ- AJ- AJ- AJ- AJ- AJ- AJ- AJ- AJ- A- AH- AH- AH- AH- AH- AH- AH- AH- AH- A- AJ- AJ- AJ- AJ- AJ- AJ- AJ- AJ- AJ- AJ- AJ- AJ- AJ- AJ- AJ- AJ- AJ- AJ- A- A- AF- AF- AF- AF- AF- AF- AF- AF- AF- AF- AF- AF- AF- AF- AF- AH- AH- AH- AH- AH- AH- AH- AH- AH- AH- AH- AH- AH- AH- AH- AJ- AJ- AJ- AJ AJ. AJ. AJ. AJ. AJ. AJ. AJ. AJ. AJ. AJ. AJ. AJ. AJ. AJ. AJ. AJ. AJ. AJ. AJ. AJ. AJ. AJ. AJ. AJ. AJ. AJ. AJ. AJ. AJ. AJ. AJ. AJ. AJ. AJ. AJ. AJ. AJ. AJ. AJ. AJ. AJ. AJ. AJ. AJ. AJ. AJ. AJ. AJ. AJ. AJ. AJ. AJ. AJ. AJ. AJ. AJ. AH. AH. AH. AH. AH. AH. AH. AH. AH. AH. AH. AH. AH. AH. AH. AH. AH. AH. AH. AH. AH. AH. AH. AH. AH. AH. AH. AH. AH. AH. AH. AH. AH. AH. AH. AH. AH. AH. AH. AH. AH. AH. AH. AH. AH. AH. AH. AH. AH. AH. AH. AH. AH. AH. AH. AH. AH. AH. AH. AH. AF. AF. AF. AF AF& AF& AF& AF& AF& AF& AF& AF& AF& AF& AF& AF& AF& AF& AF& AF& AF& AF& AF& AF& AF& AF& AF& AF& AF& AF& AF& AF& AF& AF& AF& AF& AF& AF& AF& AF& AF& AF& AF& AF& AF& AF& AF& AF& AF& AF& AF& AF& AF& AF& AF& AF& AF& AF& AF& AF& AH& AH& AH& AH& AH& AH& AH& AH& AH& AH& AH& AH& AH& AH& AH& AH& AH& AH& AH& AH& AH& AH& AH& AH& AH& AH& AH& AH& AH& AH& AJ& AJ& AJ& AJ& AJ& AJ& AJ& AJ& AJ& AJ& AJ& AJ& AJ& AJ& AJ& AJ& AJ& AJ& AJ& AJ& AJ& AJ& AJ& AJ& AJ& AJ& AJ& AJ& AJ& AJ& AC& AC& AC& AC AC' AC' AC' AC' AC' AC' AC' AC' AC' AC' AC' AC' AC' AC' AC' AC' AC' AC' AC' AC' AC' AC' AC' AC' AC' AC' AC' AC' AC' AC' AC' AC' AC' AC' AC' AC' AC' AC' AC' AC' AC' AC' AC' AC' AC' AC' AC' AC' AC' AC' AC' AC' AC' AC' AC' AC' DC' DC' DC' DC' DC' DC' DC' DC' DC' DC' DC' DC' DC' DC' DC' DC' DC' DC' DC' DC' DC' DC' DC' DC' DC' DC' DC' DC' DC' DC' DC' DC' DC' DC' DC' DC' DC' DC' DC' DC' DC' DC' DC' DC' DC' DC' DC' DC' DC' DC' DC' DC' DC' DC' DC' DC' DC' DC' DC' C' CC' CC' CC' CC' CC' CC' CC' CC' CC' CC' CC' CC' CC' CC' CC' CC' CC' CC' CC' CC' CC' CC' CC' CC' CC' CC' CC' CC' CC' CC' CC' CC' CC' CC' CC' CC' CC' CC' CC' CC' CC' CC' CC' CC' CC' CC' CC' CC' CC' CC' CC' CC' CC' CC' CC' CC' CC' CC' CC' C' AC' AC' AC' AC' AC' AC' AC' AC' AC' AC' AC' AC' AC' AC' AC' AC' AC' AC' AC' AC' AC' AC' AC' AC' AC' AC' AC' AC' AC' AC' AC' AC' AC' AC' AC' AC' AC' AC' AC' AC' AC' AC' AC' AC' AC' AC' AC' AC' AC' AC' AC' AC' AC' AC' AC' AC' AC' AC' AC' C' ?C' ?C' ?C' ?C ?C ?C ?C ?C ?C ?C ?C ?C ?C ?C ?C ?C ?C ?C ?C ?C ?C ?C ?C ?C ?C ?C ?C ?C ?C ?C ?C ?C ?C ?C ?C ?C ?C ?C ?C ?C ?C ?C ?C ?C ?C ?C ?C ?C ?C ?C ?C ?C ?C ?C ?C ?C ?C ?C ?C C >C >C >C >C >C >C >C >C >C >C >C >C >C >C >C >C >C >C >C >C >C >C >C >C >C >C >C >C >C >C >C >C >C >C >C >C >C >C >C >C >C >C >C >C >C >C >C >C >C >C >C >C >C >C >C >C >C >C >C C <C <C <C <C <C <C <C <C <C <C <C <C <C <C <C <C <C <C <C <C <C <C <C <C <C <C <C <C <C <C <C <C <C <C <C <C <C <C <C <C <C <C <C <C <C <C <C <C <C <C <C <C <C <C <C <C <C <C <C C ;C ;C ;C ;C ;C ;C ;C ;C ;C ;C ;C ;C ;C ;C ;C ;C ;C ;C ;C ;C ;C ;C ;C ;C ;C ;C ;C ;C ;C ;C ;C ;C ;C ;C ;C ;C ;C ;C ;C ;C ;C ;C ;C ;C ;C ;C ;C ;C ;C ;C ;C ;C ;C ;C ;C ;C ;C ;C ;C C 9C 9C 9C 9C 9C 9C 9C 9C 9C 9C 9C 9C 9C 9C 9C 9C 9C 9C 9C 9C 9C 9C 9C 9C 9C 9C 9C 9C 9C 9C 9C 9C 9C 9C 9C 9C 9C 9C 9C 9C 9C 9C 9C 9C 9C 9C 9C 9C 9C 9C 9C 9C 9C 9C 9C 9C 9C 9C 9C C 7C 7C 7C 7C 7C 7C 7C 7C 7C 7C 7C 7C 7C 7C 7C 7C 7C 7C 7C 7C 7C 7C 7C 7C 7C 7C 7C 7C 7C 7C 7C 7C 7C 7C 7C 7C 7C 7C 7C 7C 7C 7C 7C 7C 7C 7C 7C 7C 7C 7C 7C 7C 7C 7C 7C 7C 7C 7C 7C C 9C 9C 9C 9C 9C 9C 9C 9C 9C 9C 9C 9C 9C 9C 9C 9C 9C 9C 9C 9C 9C 9C 9C 9C 9C 9C 9C 9C 9C 9C 9C 9C 9C 9C 9C 9C 9C 9C 9C 9C 9C 9C 9C 9C 9C 9C 9C 9C 9C 9C 9C 9C 9C 9C 9C 9C 9C 9C 9C C ;C ;C ;C ;C ;C ;C ;C ;C ;C ;C ;C ;C ;C ;C ;C ;C ;C ;C ;C ;C ;C ;C ;C ;C ;C ;C ;C ;C ;C ;C ;C ;C ;C ;C ;C ;C ;C ;C ;C ;C ;C ;C ;C ;C ;C ;C ;C ;C ;C ;C ;C ;C ;C ;C ;C ;C ;C ;C ;C C <C <C <C <C <C3 <C3 <C3 <C3 <C3 <C3 <C3 <C3 <C3 <C3 <C3 <C3 <C3 <C3 <C3 <C3 <C3 <C3 <C3 <C3 <C3 <C3 <C3 <C3 <C3 <C3 <C3 <C3 <C3 <C3 <C3 <C3 <C3 <C3 <C3 <C3 <C3 <C3 <C3 <C3 <C3 <C3 <C3 <C3 <C3 <C3 <C3 <C3 <C3 <C3 <C3 <C3 <C3 <C3 <C3 C3 >C3 >C3 >C3 >C3 >C3 >C3 >C3 >C3 >C3 >C3 >C3 >C3 >C3 >C3 >C3 >C3 >C3 >C3 >C3 >C3 >C3 >C3 >C3 >C3 >C3 >C3 >C3 >C3 >C3 >C3 >C3 >C3 >C3 >C3 >C3 >C3 >C3 >C3 >C3 >C3 >C3 >C3 >C3 >C3 >C3 >C3 >C3 >C3 >C3 >C3 >C3 >C3 >C3 >C3 >C3 >C3 >C3 >C3 >C3 C3 <C3 <C3 <C3 <C <C2 <C2 <C2 <C2 <C2 <C2 <C2 <C2 <C2 <C2 <C2 <C2 <C2 <C2 <C2 <C2 <C2 <C2 <C2 <C2 <C2 <C2 <C2 <C2 <C2 <C2 <C2 <C2 <C2 <C2 <C2 <C2 <C2 <C2 <C2 <C2 <C2 <C2 <C2 <C2 <C2 <C2 <C2 <C2 <C2 <C2 <C2 <C2 <C2 <C2 <C2 <C2 <C2 <C2 <C2 C2 >C2 >C2 >C2 >C2 >C2 >C2 >C2 >C2 >C2 >C2 >C2 >C2 >C2 >C2 >C2 >C2 >C2 >C2 >C2 >C2 >C2 >C2 >C2 >C2 >C2 >C2 >C2 >C2 >C2 >C2 >C2 >C2 >C2 >C2 >C2 >C2 >C2 >C2 >C2 >C2 >C2 >C2 >C2 >C2 >C2 >C2 >C2 >C2 >C2 >C2 >C2 >C2 >C2 >C2 >C2 >C2 >C2 >C2 >C2 C2 ?C2 ?C2 ?C2 ?C ?C0 ?C0 ?C0 ?C0 ?C0 ?C0 ?C0 ?C0 ?C0 ?C0 C0 >C0 >C0 >C0 >C0 >C0 >C0 >C0 >C0 >C0 >C0 >C0 >C0 >C0 >C0 C0 ?C0 ?C0 ?C0 ?C0 ?C0 ?C0 ?C0 ?C0 ?C0 C0 >C0 >C0 >C0 >C0 >C0 >C0 >C0 >C0 >C0 C0 ?C0 ?C0 ?C0 ?C0 ?C0 ?C0 ?C0 ?C0 ?C0 C0 >A0 >A0 >A0 >A0 >A0 >A0 >A0 >A0 >A0 A0 ?A0 ?A0 ?A0 ?A0 ?A0 ?A0 ?A0 ?A0 ?A0 A0 >A0 >A0 >A0 >A0 >A0 >A0 >A0 >A0 >A0 A0 ?A0 ?A0 ?A0 ?A0 ?A0 ?A0 ?A0 ?A0 ?A0 A0 >A0 >A0 >A0 >A0 >A0 >A0 >A0 >A0 >A0 A0 ?A0 ?A0 ?A0 ?A0 ?A0 ?A0 ?A0 ?A0 ?A0 0 >?0 >?0 >?0 >? >?/ >?/ >?/ >?/ >?/ ?/ ??/ ??/ ??/ ??/ ??/ ??/ ??/ ??/ ??/ ?/ >?/ >?/ >?/ >?/ >?/ >?/ >?/ >?/ >?/ ?/ ??/ ??/ ??/ ??/ ??/ ??/ ??/ ??/ ??/ ?/ >?/ >?/ >?/ >?/ >?/ >?/ >?/ >?/ >?/ ?/ ??/ ??/ ??/ ??/ ??/ ??/ ??/ ??/ ??/ / <>/ <>/ <>/ <>/ <>/ <>/ <>/ <>/ <>/ <>/ <>/ <>/ <>/ <>/ <>/ <>/ <>/ <>/ <>/ <>/ <>/ <>/ <>/ <>/ <>/ <>/ <>/ <>/ <>/ >/ >>/ >>/ >>/ >>/ >>/ >>/ >>/ >>/ >>/ >>/ >>/ >>/ >>/ >>/ >>/ >>/ >>/ >>/ >>/ >>/ >>/ >>/ >>/ >>/ >>/ >>/ >>/ >>/ >>/ / ?</ ?</ ?</ ?< ?<0 ?<0 ?<0 ?<0 ?<0 ?<0 ?<0 ?<0 ?<0 ?<0 ?<0 ?<0 ?<0 ?<0 ?<0 ?<0 ?<0 ?<0 ?<0 ?<0 ?<0 ?<0 ?<0 ?<0 ?<0 ?<0 ?<0 ?<0 ?<0 ?<0 ?<0 ?<0 ?<0 ?<0 ?<0 ?<0 ?<0 ?<0 ?<0 ?<0 ?<0 ?<0 ?<0 ?<0 ?<0 ?<0 ?<0 ?<0 ?<0 ?<0 ?<0 ?<0 ?<0 ?<0 ?<0 0 >:0 >:0 >:0 >: >:2 >:2 >:2 >:2 >:2 >:2 >:2 >:2 >:2 >:2 >:2 >:2 >:2 >:2 >:2 >:2 >:2 >:2 >:2 >:2 >:2 >:2 >:2 >:2 >:2 >:2 >:2 >:2 >:2 >:2 >:2 >:2 >:2 >:2 >:2 >:2 >:2 >:2 >:2 >:2 >:2 >:2 >:2 >:2 >:2 >:2 >:2 >:2 >:2 >:2 >:2 >:2 >:2 >:2 >:2 2 <92 <92 <92 <9 <93 <93 <93 <93 <93 <93 <93 <93 <93 <93 <93 <93 <93 <93 <93 <93 <93 <93 <93 <93 <93 <93 <93 <93 <93 <93 <93 <93 <93 <93 <93 <93 <93 <93 <93 <93 <93 <93 <93 <93 <93 <93 <93 <93 <93 <93 <93 <93 <93 <93 <93 <93 <93 <93 <93 3 >73 >73 >73 >73 >73 >73 >73 >73 >73 >73 >73 >73 >73 >73 >73 >73 >73 >73 >73 >73 >73 >73 >73 >73 >73 >73 >73 >73 >73 73 ?73 ?73 ?73 ?73 ?73 ?73 ?73 ?73 ?73 ?73 ?73 ?73 ?73 ?73 ?73 ?73 ?73 ?73 ?73 ?73 ?73 ?73 ?73 ?73 ?73 ?73 ?73 ?73 ?73 3 953 953 953 953 953 953 953 953 953 953 953 953 953 953 953 953 953 953 953 953 953 953 953 953 953 953 953 953 953 953 953 953 953 953 953 953 953 953 953 953 953 953 953 953 953 953 953 953 953 953 953 953 953 953 953 953 953 953 953 93 9A3 9A3 9A3 9A3 9A3 9A3 9A3 9A3 9A3 9A3 9A3 9A3 9A3 9A3 9A3 9A3 9A3 9A3 9A3 9A3 9A3 9A3 9A3 9A3 9A3 9A3 9A3 9A3 9A3 9A3 9A3 9A3 9A3 9A3 9A3 9A3 9A3 9A3 9A3 9A3 9A3 9A3 9A3 9A3 9A3 9A3 9A3 9A3 9A3 9A3 9A3 9A3 9A3 9A3 9A3 9A3 9A3 9A3 9A3 3 7H3 7H3 7H3 7H 7H- 7H- 7H- 7H- 7H- 7H- 7H- 7H- 7H- 7H- 7H- 7H- 7H- 7H- 7H- 7H- 7H- 7H- 7H- 7H- 7H- 7H- 7H- 7H- 7H- 7H- 7H- 7H- 7H- 7H- 7H- 7H- 7H- 7H- 7H- 7H- 7H- 7H- 7H- 7H- 7H- 7H- 7H- 7H- 7H- 7H- 7H- 7H- 7H- 7H- 7H- 7H- 7H- 7H- 7H- - 5K- 5K- 5K- 5K- 5K- 5K- 5K- 5K- 5K- 5K- 5K- 5K- 5K- 5K- 5K- 5K- 5K- 5K- 5K- 5K- 5K- 5K- 5K- 5K- 5K- 5K- 5K- 5K- 5K- 5K- 5K- 5K- 5K- 5K- 5K- 5K- 5K- 5K- 5K- 5K- 5K- 5K- 5K- 5K- 5K- 5K- 5K- 5K- 5K- 5K- 5K- 5K- 5K- 5K- 5K- 5K- 5K- 5K- 5K- - 5I- 5I- 5I- 5I 5I. 5I. 5I. 5I. 5I. 5I. 5I. 5I. 5I. 5I. 5I. 5I. 5I. 5I. 5I. 5I. 5I. 5I. 5I. 5I. 5I. 5I. 5I. 5I. 5I. 5I. 5I. 5I. 5I. 5I. 5I. 5I. 5I. 5I. 5I. 5I. 5I. 5I. 5I. 5I. 5I. 5I. 5I. 5I. 5I. 5I. 5I. 5I. 5I. 5I. 5I. 5I. 5I. 5I. 5I. 5I. 5I. 5I. 5I. 5I. 5I. 5I. 5I. 5I. 5I. 5I. 5I. 5I. 5I. 5I. 5I. 5I. 5I. 5I. 5I. 5I. 5I. 5I. 5I. 5I. 5I. 5I. 5I. 5I. 5I. 5I. 5I. 5I. 5I. 5I. 5I. 5I. 5I. 5I. 5I. 5I. 5I. 5I. 5I. 5I. 5I. 5I. 5I. 5I. 5I. 5I. 5I. 5I. 5I. 5I. 5I. 5I. 5I. 5I. 5I. 5I. 5I. 5I. 5I. 5I 5I+ 5I+ 5I+ 5I+ 5I+ 5I+ 5I+ 5I+ 5I+ 5I+ 5I+ 5I+ 5I+ 5I+ 5I+ 5I+ 5I+ 5I+ 5I+ 5I+ 5I+ 5I+ 5I+ 5I+ 5I+ 5I+ 5I+ 5I+ 5I+ 5I+ 5I+ 5I+ 5I+ 5I+ 5I+ 5I+ 5I+ 5I+ 5I+ 5I+ 5I+ 5I+ 5I+ 5I+ 5I+ 5I+ 5I+ 5I+ 5I+ 5I+ 5I+ 5I+ 5I+ 5I+ 5I+ I+ 7I+ 7I+ 7I+ 7I+ 7I+ 7I+ 7I+ 7I+ 7I+ 7I+ 7I+ 7I+ 7I+ 7I+ 7I+ 7I+ 7I+ 7I+ 7I+ 7I+ 7I+ 7I+ 7I+ 7I+ 7I+ 7I+ 7I+ 7I+ 7I+ I+ 9I+ 9I+ 9I+ 9I+ 9I+ 9I+ 9I+ 9I+ 9I+ 9I+ 9I+ 9I+ 9I+ 9I+ 9I+ 9I+ 9I+ 9I+ 9I+ 9I+ 9I+ 9I+ 9I+ 9I+ 9I+ 9I+ 9I+ 9I+ 9I+ I+ :I+ :I+ :I+ :I :I, :I, :I, :I, :I, :I, :I, :I, :I, :I, :I, :I, :I, :I, :I, :I, :I, :I, :I, :I, :I, :I, :I, :I, :I, I, <I, <I, <I, <I, <I, <I, <I, <I, <I, <I, <I, <I, <I, <I, <I, <I, <I, <I, <I, <I, <I, <I, <I, <I, <I, <I, <I, <I, <I, I, :I, :I, :I, :I, :I, :I, :I, :I, :I, :I, :I, :I, :I, :I, :I, :I, :I, :I, :I, :I, :I, :I, :I, :I, :I, :I, :I, :I, :I, I, 9I, 9I, 9I, 9I, 9I, 9I, 9I, 9I, 9I, 9I, 9I, 9I, 9I, 9I, 9I, 9I, 9I, 9I, 9I, 9I, 9I, 9I, 9I, 9I, 9I, 9I, 9I, 9I, 9I, I, :I, :I, :I, :I :I( :I( :I( :I( :I( :I( :I( :I( :I( :I( :I( :I( :I( :I( :I( :I( :I( :I( :I( :I( :I( :I( :I( :I( :I( :I( :I( :I( :I( :I( :I( :I( :I( :I( :I( :I( :I( :I( :I( :I( :I( :I( :I( :I( :I( :I( :I( :I( :I( :I( :I( :I( :I( :I( :I( :I( :I( :I( :I( :I( :I( :I( :I( :I( :I( :I( :I( :I( :I( :I( :I( :I( :I( :I( :I( :I( :I( :I( :I( :I( :I( :I( :I( :I( :I( :I( :I( :I( :I( :I( :I( :I( :I( :I( :I( :I( :I( :I( :I( :I( :I( :I( :I( :I( :I( :I( :I( :I( :I( :I( :I( :I( :I( :I( :I( :( :( :( :( : :) :) :) :) :) :) :) :) :) :) :) :) :) :) :) :) :) :) :) :) :) :) :) :) :) :) :H) :H) :H) :H) :H) :H) :H) :H) :H) :H) :H) :H) :H) :H) :H) :H) :H) :H) :H) :H) :H) :H) :H) :H) :H) :H) :H) :H) :H) :) :F) :F) :F) :F) :F) :F) :F) :F) :F) :F) :F) :F) :F) :F) :F) :F) :F) :F) :F) :F) :F) :F) :F) :F) :F) :F) :F) :F) :F) :) :E) :E) :E) :E) :E) :E) :E) :E) :E) :E) :E) :E) :E) :E) :E) :E) :E) :E) :E) :E) :E) :E) :E) :E) :E) :E) :E) :E) :E) :) :F) :F) :F) :F) :F) :F) :F) :F) :F) :F) :F) :F) :F) :F) :F) :F) :F) :F) :F) :F) :F) :F) :F) :F) :F) :F) :F) :F) :F) :) :B) :B) :B) :B) :B) :B) :B) :B) :B) :B) :B) :B) :B) :B) :B) :B) :B) :B) :B) :B) :B) :B) :B) :B) :B) :B) :B) :B) :B) :) FA) FA) FA) FA) FA) FA) FA) FA) FA) FA) FA) FA) FA) FA) FA) FA) FA) FA) FA) FA) FA) FA) FA) FA) FA) FA) FA) FA) FA) F) F@) F@) F@) F@) F@) F@) F@) F@) F@) F@) F@) F@) F@) F@) F@) F@) F@) F@) F@) F@) F@) F@) F@) F@) F@) F@) F@) F@) F@) ) >A) >A) >A) >A >A5 >A5 >A5 >A5 >A5 >A5 >A5 >A5 >A5 >A5 >A5 >A5 >A5 >A5 >A5 >A5 >A5 >A5 >A5 >A5 >A5 >A5 >A5 >A5 >A5 >A5 >A5 >A5 >A5 >A5 >A5 >A5 >A5 >A5 >A5 >A5 >A5 >A5 >A5 >A5 A5 ?A5 ?A5 ?A5 ?A5 ?A5 ?A5 ?A5 ?A5 ?A5 ?A5 ?A5 ?A5 ?A5 ?A5 A5 >A5 >A5 >A5 >A5 >A5 >A5 >A5 >A5 >A5 >A5 >A5 >A5 >A5 >A5 >A5 >A5 >A5 >A5 >A5 >A5 >A5 >A5 >A5 >A5 >A5 >A5 >A5 >A5 >A5 A5 <A5 <A5 <A5 <A5 <A5 <A5 <A5 <A5 <A5 <A5 <A5 <A5 <A5 <A5 <A5 <A5 <A5 <A5 <A5 <A5 <A5 <A5 <A5 <A5 <A5 <A5 <A5 <A5 <A5 A5 :A5 :A5 :A5 :A5 :A5 :A5 :A5 :A5 :A5 :A5 :A5 :A5 :A5 :A5 :A5 :A5 :A5 :A5 :A5 :A5 :A5 :A5 :A5 :A5 :A5 :A5 :A5 :A5 :A5 A5 <A5 <A5 <A5 <A5 <A5 <A5 <A5 <A5 <A5 <A5 <A5 <A5 <A5 <A5 <A5 <A5 <A5 <A5 <A5 <A5 <A5 <A5 <A5 <A5 <A5 <A5 <A5 <A5 <A5 5 :C5 :C5 :C5 :C5 :C5 :C5 :C5 :C5 :C5 :C5 :C5 :C5 :C5 :C5 :C5 :C5 :C5 :C5 :C5 :C5 :C5 :C5 :C5 :C5 :C5 :C5 :C5 :C5 :C5 5 <E5 <E5 <E5 <E5 <E5 <E5 <E5 <E5 <E5 <E5 <E5 <E5 <E5 <E5 <E5 <E5 <E5 <E5 <E5 <E5 <E5 <E5 <E5 <E5 <E5 <E5 <E5 <E5 <E5 5 >F5 >F5 >F5 >F >F) >F) >F) >F) >F) F) <F) <F) <F) <F) <) <E) <E) <E) <E) E) >E) >E) >E) >E) >E) >E) >E) >E) >E) ) <F) <F) <F) <F) <F) <F) <F) <F) <F) F) >F) >F) >F) >F) >) >E) >E) >E) >E) E) <E) <E) <E) <E) <E) <E) <E) <E) <E) ) >F) >F) >F) >F) >F) >F) >F) >F) >F) ) <E) <E) <E) <E) <E) <E) <E) <E) <E) ) >F) >F) >F) >F) >F) >F) >F) >F) >F) ) <E) <E) <E) <E) <E) <E) <E) <E) <E) ) >F) >F) >F) >F) >F) >F) >F) >F) >F) ) <E) <E) <E) <E) <E) <E) <E) <E) <E) ) >F) >F) >F) >F) >F) >F) >F) >F) >F) ) <E) <E) <E) <E) <E) <E) <E) <E) <E) ) >F) >F) >F) >F) >F) >F) >F) >F) >F) ) <E) <E) <E) <E) <E) <E) <E) <E) <E) ) >F) >F) >F) >F) >F) >F) >F) >F) >F) ) <E) <E) <E) <E) <E) <E) <E) <E) <E) ) :F) :F) :F) :F) :F) :F) :F) :F) :F) :) :E) :E) :E) :E) :E) :E) :E) :E) :E) :) :F) :F) :F) :F) :F) :F) :F) :F) :F) ) <E) <E) <E) <E) <E) <E) <E) <E) <E) <) <C) <C) <C) <C) <C) <C) <C) <C) <C) <) <E) <E) <E) <E) <E) <E) <E) <E) <E) ) :F). :F). :F). :F. :F. :F. :F. :F. :F. :F. :F. :F. :F. :F. :F. :F. :F. :F. :F. :F. :F. :F. :F. :F. :F. :F. :F. :F. :F. :F. :F. :F. :F. :F. :F. :F. :F. :F. :F. :F. :F. :F. :F. :F. :F. :F. :F. :F. :F. :F. :F. :F. :F. :F. :F. :F. :F. :F. :F. :F. :F. :F. :F. :F. :F. :F. :F. :F. :F. :F. :F. :F. :F. :F. :F. :F. :F. :F. :F. :F. :F. :F. :F. :F. :F. :F. :F. :F. :F. :F. :F. :F. :F. :F. :F. :F. :F. :F. :F. :F. :F. :F. :F. :F. :F. :F. :F. :F. :F. :F. :F. :F. :F. :F. :F. :F. :F. :F. :F. :F. :F. :F. :F. :F. :F. :F. :F. :F. :F. :F. :F. :F. :F. :F. :F. :F. :F. :F. :F. :F. :F. :F. :F. :F. :F. :F. :F. :F. :F. :F. :F. :F. :F. :F. :F. :F. :F. :F. :F. :F. :F. :F. :F. :F. :F. :F. :F. :F. :F. :F. :F. :F. :F. :F. :F. :F. :F. :F. :F. :F. :F. :F. :F. :F. :F. :F. :F. :F. :F. :F. :F. :F. :F. :F. :F. :F. :F. :F. :F. :F. :F. :F. :F. :F. :F. :F. :F. :F. :F. :F. :F. :F. :F. :F. :F. :F. :F. :F. :F. :F. :F. :F. :F. :F. :F. :F. :F. :F. :F. :F. :F. :F. :F. :F. :F. :F. :F. :F. :F. :F. :F. :F. :F. :F. :F. :F. :F. :F. :F. :F. :F. :F. :F. :F. :F. :F. :F. :F. :F. :F. :F. :F. :F. :F. :F. :F. :F. :F. :F. :F. :F. :F. :F. :F. :F. :F. :F. :F. :F. :F. :F. :F. :F. :F. :F. :F. :F. :F. :F. :F. :F. :F. :F. :F. :F. :F. :F. :F. :F. :F. :F. :F. :F. :F. :F. :F. :F. :F. :F. :F. :F. :F. :F. :F. :F. :F. :F. :F. :F. :F. :F. :F. :F. :F. :F. :F. :F. :F. :F. :F. :F. :F. :F. :F. :F. :F. :F. :F. :F. :F. :F. :F. :F. :F. :F. :F. :F. :F. :F. :F. :F. :F. :F. :F. :F. :F. :F. :F. :F. :F. :F. :F. :F. :F. :F. :F. :F. :F. :F. :F. :F. :F. :F. :F. :F. :F. :F. :F. :F. :F. :F. :F. :F. :F. :F. :F. :F. :F. :F. :F. :F. :F. :F. :F. :F. :F. :F. :F. :F. :F. :F. :F. :F. :F. :F. :F. :F. :F. :F. :F. :F. :F. :F. :F. :F. :F. :F. :F. :F. :F. :F. :F. :F. :F. :F. :F. :F. :F. :F. :F. :F. :F. :F. :F. :F. :F. :F. :F. :F. :F. :F. :F. :F. :F. :F. :F. :F. :F. :F. :F. :F. :F. :F. :F. :F. :F. :F. :F. :F. :F. :F. :F. :F. :F. :F. :F. :F. :F. :F. :F. :F. :F. :F. :F. :F. :F. :F. :F. :F. :. :. :. :. :. :. :. :. :. :. :. :. :. :. :. :. :. :. :. :. :. :. :. :. :. :. :. :. :. :. :. :. :. :. :. :. :. :. :. :. :. :. :. :. :. :. :. :. :. :. :. :. :. :. :. :. :. :. :. :. :. :. :. :. :. :. :. :. :. :. :. :. :. :. :. :. :. :. :. :. :. :. :. :. :. :. :. :. :. :. :. :. :. :. :. :. :. :. :. :. :. :. :. :. :. :. :. :. :. :. :. :. :. :. :. :. :. :. :. :. :. :. :. :. :. :. :. :. :. :. :. :. :. :. :. :. :. :. :. :. :. :. :. :. :. :. :. :. :. :. :. :. :. :. :. :. :. :. :. :. :. :. :. :. :. :. :. :. :. :. :. :. :. :. :. :. :. :. :. :. :. :. :. :. :. :. :. :. :. :. :. :. :. :. :. :. :. :. :. :. :. :. :. :. :. :. :. :. :. :. :. :. :. :. :. :. :. :. :. :. :. :. :. :. :. :. :. :. :. :. :. :. :. :. :. :. :. :. :. :.                                                                                                                                                                                                                                                                                                                                                                          7 7 7 7 7 7 7 7 7 7 7 7 7 7 7 7 7 7 7 7 7 7 7 7 7 7 7 7 7 7 7 7 7 7 7 7 7 7 7 7 7 7 7 7 7 7 7 7 7 7 7 7 7 7 7 7 7 7 7 7 J7 J7 J7 J7 J7 J7 J7 J7 J7 J7 J7 J7 J7 J7 J7 J7 J7 J7 J7 J7 J7 J7 J7 J7 J7 J7 J7 J7 J7 J7 J7 J7 J7 J7 J7 J7 J7 J7 J7 J7 J7 J7 J7 J7 J7 J7 J7 J7 J7 J7 J7 J7 J7 J7 J7 J7 J7 J7 J7 J7 J J J J J J J J J J J J J J J J J J J J J J J J J J J J J J J J J J J J J J J J J J J J J J J J J J J J J J J J J J J J J5 J5 J5 J5 J5 J5 J5 J5 J5 J5 J5 J5 J5 J5 J5 J5 J5 J5 J5 J5 J5 J5 J5 J5 J5 J5 J5 J5 J5 J5 J5 J5 J5 J5 J5 J5 J5 J5 J5 J5 J5 J5 J5 J5 J5 J5 J5 J5 J5 J5 J5 J5 J5 J5 J5 J5 J5 J5 J5 J5 J5 J5 J5 J5 J5 J5 J5 J5 J5 J5 J5 J5 J5 J5 J5 J5 J5 J5 J5 J5 J5 J5 J5 J5 J5 J5 J5 J5 J5 J5 J5 J5 J5 J5 J5 J5 J5 J5 J5 J5 J5 J5 J5 J5 J5 J5 J5 J5 J5 J5 J5 J5 J5 J5 J5 J5 J5 J5 J5 J5 J J J J J J J J J J J J J J J J J J J J J J J J J J J J J J J J J J J J J J J J J J J J J J J J J J J J J J J J J J J J C3 C3 C3 C3 C3 C3 C3 C3 C3 C3 C3 C3 C3 C3 C3 C3 C3 C3 C3 C3 C3 C3 C3 C3 C3 C3 C3 C3 C3 C3 C3 C3 C3 C3 C3 C3 C3 C3 C3 C3 C3 C3 C3 C3 C3 C3 C3 C3 C3 C3 C3 C3 C3 C3 C3 C3 C3 C3 C3 C3 O3 O3 O3 O3 O3 O3 O3 O3 O3 O3 O3 O3 O3 O3 O3 O3 O3 O3 O3 O3 O3 O3 O3 O3 O3 O3 O3 O3 O3 O3 O3 O3 O3 O3 O3 O3 O3 O3 O3 O3 O3 O3 O3 O3 O3 O3 O3 O3 O3 O3 O3 O3 O3 O3 O3 O3 O3 O3 O3 O3 O O O O O O O O O O O O O O O O O O O O O O O O O O O O O O O O O O O O O O O O O O O O O O O O O O O O O O O O O O O O Q0 Q0 Q0 Q0 Q0 Q0 Q0 Q0 Q0 Q0 Q0 Q0 Q0 Q0 Q0 Q0 Q0 Q0 Q0 Q0 Q0 Q0 Q0 Q0 Q0 Q0 Q0 Q0 Q0 Q0 Q0 Q0 Q0 Q0 Q0 Q0 Q0 Q0 Q0 Q0 Q0 Q0 Q0 Q0 Q0 Q0 Q0 Q0 Q0 Q0 Q0 Q0 Q0 Q0 Q0 Q0 Q0 Q0 Q0 Q0 Q2 Q2 Q2 Q2 Q2 Q2 Q2 Q2 Q2 Q2 Q2 Q2 Q2 Q2 Q2 Q2 Q2 Q2 Q2 Q2 Q2 Q2 Q2 Q2 Q2 Q2 Q2 Q2 Q2 Q2 R2 R2 R2 R2 R2 R2 R2 R2 R2 R2 R2 R2 R2 R2 R2 R2 R2 R2 R2 R2 R2 R2 R2 R2 R2 R2 R2 R2 R2 R2 T& T& T& T& T& T& T& T& T& T& T& T& T& T& T& T& T& T& T& T& T& T& T& T& T& T& T& T& T& T& Q& Q& Q& Q& Q& Q& Q& Q& Q& Q& Q& Q& Q& Q& Q& Q& Q& Q& Q& Q& Q& Q& Q& Q& Q& Q& Q& Q& Q& Q& R+ R+ R+ R+ R+ R+ R+ R+ R+ R+ R+ R+ R+ R+ R+ R+ R+ R+ R+ R+ R+ R+ R+ R+ R+ R+ R+ R+ R+ R+ J+ J+ J+ J+ J+ J+ J+ J+ J+ J+ J+ J+ J+ J+ J+ J+ J+ J+ J+ J+ J+ J+ J+ J+ J+ J+ J+ J+ J+ J+ 7O+ 7O+ 7O+ 7O+ 7O+ 7O+ 7O+ 7O+ 7O+ 7O+ 7O+ 7O+ 7O+ 7O+ 7O+ 7O+ 7O+ 7O+ 7O+ 7O+ 7O+ 7O+ 7O+ 7O+ 7O+ 7O+ 7O+ 7O+ 7O+ 7O+ 7R+ 7R+ 7R+ 7R+ 7R+ 7R+ 7R+ 7R+ 7R+ 7R+ 7R+ 7R+ 7R+ 7R+ 7R+ 7R+ 7R+ 7R+ 7R+ 7R+ 7R+ 7R+ 7R+ 7R+ 7R+ 7R+ 7R+ 7R+ 7R+ 7R+ 7Q 7Q 7Q 7Q 7Q 7Q 7Q 7Q 7Q 7Q 7Q 7Q 7Q 7Q 7Q 7Q 7Q 7Q 7Q 7Q 7Q 7Q 7Q 7Q 7Q 7Q 7Q 7Q 7Q 7Q 7T 7T 7T 7T 7T 7T 7T 7T 7T 7T 7T 7T 7T 7T 7T 7T 7T 7T 7T 7T 7T 7T 7T 7T 7T 7T 7T 7T 7T 7T 7R 7R 7R 7R 7R 7R 7R 7R 7R 7R 7R 7R 7R 7R 7R 7R 7R 7R 7R 7R 7R 7R 7R 7R 7R 7R 7R 7R 7R 7R 7Q 7Q 7Q 7Q 7Q 7Q 7Q 7Q 7Q 7Q 7Q 7Q 7Q 7Q 7Q 7Q 7Q 7Q 7Q 7Q 7Q 7Q 7Q 7Q 7Q 7Q 7Q 7Q 7Q 7Q 7O 7O 7O 7O 7O 7O 7O 7O 7O 7O 7O 7O 7O 7O 7O 7O 7O 7O 7O 7O 7O 7O 7O 7O 7O 7O 7O 7O 7O 7O 7R 7R 7R 7R 7R 7R 7R 7R 7R 7R 7R 7R 7R 7R 7R 7R 7R 7R 7R 7R 7R 7R 7R 7R 7R 7R 7R 7R 7R 7R 7Q 7Q 7Q 7Q 7Q 7Q 7Q 7Q 7Q 7Q 7Q 7Q 7Q 7Q 7Q 7Q 7Q 7Q 7Q 7Q 7Q 7Q 7Q 7Q 7Q 7Q 7Q 7Q 7Q 7Q 7O 7O 7O 7O 7O 7O 7O 7O 7O 7O 7O 7O 7O 7O 7O 7O 7O 7O 7O 7O 7O 7O 7O 7O 7O 7O 7O 7O 7O 7O 2M 2M 2M 2M 2M 2M 2M 2M 2M 2M 2M 2M 2M 2M 2M 2M 2M 2M 2M 2M 2M 2M 2M 2M 2M 2M 2M 2M 2M 2M 2L 2L 2L 2L 2L 2L 2L 2L 2L 2L 2L 2L 2L 2L 2L 2L 2L 2L 2L 2L 2L 2L 2L 2L 2L 2L 2L 2L 2L 2L >M >M >M >M >M >M >M >M >M >M >M >M >M >M >M >M >M >M >M >M >M >M >M >M >M >M >M >M >M >M >J >J >J >J >J >J >J >J >J >J >J >J >J >J >J >J >J >J >J >J >J >J >J >J >J >J >J >J >J >J >V >V >V >V >V >V >V >V >V >V >V >V >V >V >V >V >V >V >V >V >V >V >V >V >V >V >V >V >V >V >V >V >V >V >V >V >V >V >V >V >V >V >V >V >V >V >V >V >V >V >V >V >V >V >V >V >V >V >V >V @V @V @V @V @V @V @V @V @V @V @V @V @V @V @V @V @V @V @V @V @V @V @V @V @V @V @V @V @V @V @V @V @V @V @V @V @V @V @V @V @V @V @V @V @V @V @V @V @V @V @V @V @V @V @V @V @V @V @V @V @U @U @U @U @U @U @U @U @U @U @U @U @U @U @U @V @V @V @V @V @V @V @V @V @V @V @V @V @V @V AU AU AU AU AU AU AU AU AU AU AU AU AU AU AU AV AV AV AV AV AV AV AV AV AV AV AV AV AV AV CU CU CU CU CU CU CU CU CU CU CU CU CU CU CU CV CV CV CV CV CV CV CV CV CV CV CV CV CV CV @U @U @U @U @U @U @U @U @U @U @U @U @U @U @U @S @S @S @S @S @S @S @S @S @S @S @S @S @S @S AV AV AV AV AV AV AV AV AV AV AV AV AV AV AV AV AV AV AV AV AT AT AT AT AT AT AT AT AT AT @T @T @T @T @T @T @T @T @T @T @R @R @R @R @R @R @R @R @R @R @R @R @R @R @R @R @R @R @R @R >T2 >T2 >T2 >T2 >T2 >T2 >T2 >T2 >T2 >T2 >T2 >T2 >T2 >T2 >T2 >T2 >T2 >T2 >T2 >T2 >R2 >R2 >R2 >R2 >R2 >R2 >R2 >R2 >R2 >R2 BR2 BR2 BR2 BR2 BR2 BR2 BR2 BR2 BR2 BR2 BQ2 BQ2 BQ2 BQ2 BQ2 BQ2 BQ2 BQ2 BQ2 BQ2 BQ2 BQ2 BQ2 BQ2 BQ2 BQ2 BQ2 BQ2 BQ2 BQ2 @R2 @R2 @R2 @R2 @R2 @R2 @R2 @R2 @R2 @R2 @R2 @R2 @R2 @R2 @R2 @R2 @R2 @R2 @R2 @R2 @Q2 @Q2 @Q2 @Q2 @Q2 @Q2 @Q2 @Q2 @Q2 @Q2 CQ2 CQ2 CQ2 CQ2 CQ2 CQ2 CQ2 CQ2 CQ2 CQ2 CO2 CO2 CO2 CO2 CO2 CO2 CO2 CO2 CO2 CO2 CO2 CO2 CO2 CO2 CO2 CO2 CO2 CO2 CO2 CO2 BT2 BT2 BT2 BT2 BT2 BT2 BT2 BT2 BT2 BT2 BT2 BT2 BT2 BT2 BT2 BT2 BT2 BT2 BT2 BT2 BR2 BR2 BR2 BR2 BR2 BR2 BR2 BR2 BR2 BR2 CR2 CR2 CR2 CR2 CR2 CR2 CR2 CR2 CR2 CR2 CQ2 CQ2 CQ2 CQ2 CQ2 EQ2 EQ2 EQ2 EQ2 EQ2 EQ2 EQ2 EQ2 EQ2 EQ2 EQ2 EQ2 EQ2 EQ2 EQ2 >R2 >R2 >R2 >R2 >R2 >R2 >R2 >R2 >R2 >R2 >R2 >R2 >R2 >R2 >R2 >R2 >R2 >R2 >R2 >R2 >Q2 >Q2 >Q2 >Q2 >Q2 >Q2 >Q2 >Q2 >Q2 >Q2 ?Q2 ?Q2 ?Q2 ?Q2 ?Q2 ?Q2 ?Q2 ?Q2 ?Q2 ?Q2 ?O2 ?O2 ?O2 ?O2 ?O2 ?O2 ?O2 ?O2 ?O2 ?O2 ?O2 ?O2 ?O2 ?O2 ?O2 ?O2 ?O2 ?O2 ?O2 ?O2 >Q2 >Q2 >Q2 >Q2 >Q2 >Q2 >Q2 >Q2 >Q2 >Q2 >Q2 >Q2 >Q2 >Q2 >Q2 >Q2 >Q2 >Q2 >Q2 >Q2 >O2 >O2 >O2 >O2 >O2 >O2 >O2 >O2 >O2 >O2 <O2 <O2 <O2 <O2 <O2 <O2 <O2 <O2 <O2 <O2 <N2 <N2 <N2 <N2 <N2 <N2 <N2 <N2 <N2 <N2 <N2 <N2 <N2 <N2 <N2 <N2 <N2 <N2 <N2 <N2 :O+ :O+ :O+ :O+ :O+ :O+ :O+ :O+ :O+ :O+ :O+ :O+ :O+ :O+ :O+ :O+ :O+ :O+ :O+ :O+ :O+ :O+ :O+ :O+ :O+ :O+ :O+ :O+ :O+ :O+ 9O+ 9O+ 9O+ 9O+ 9O+ 9O+ 9O+ 9O+ 9O+ 9O+ 9O+ 9O+ 9O+ 9O+ 9O+ 9O+ 9O+ 9O+ 9O+ 9O+ 9O+ 9O+ 9O+ 9O+ 9O+ 9O+ 9O+ 9O+ 9O+ 9O+ :O7 :O7 :O7 :O7 :O7 :O7 :O7 :O7 :O7 :O7 :O7 :O7 :O7 :O7 :O7 :O7 :O7 :O7 :O7 :O7 :O7 :O7 :O7 :O7 :O7 :O7 :O7 :O7 :O7 :O7 7M7 7M7 7M7 7M7 7M7 7M7 7M7 7M7 7M7 7M7 7M7 7M7 7M7 7M7 7M7 7M7 7M7 7M7 7M7 7M7 7M7 7M7 7M7 7M7 7M7 7M7 7M7 7M7 7M7 7M7 CK7 CK7 CK7 CK7 CK7 CK7 CK7 CK7 CK7 CK7 CK7 CK7 CK7 CK7 CK7 CK7 CK7 CK7 CK7 CK7 CK7 CK7 CK7 CK7 CK7 CK7 CK7 CK7 CK7 CK7 CJ7 CJ7 CJ7 CJ7 CJ7 CJ7 CJ7 CJ7 CJ7 CJ7 CJ7 CJ7 CJ7 CJ7 CJ7 CJ7 CJ7 CJ7 CJ7 CJ7 CJ7 CJ7 CJ7 CJ7 CJ7 CJ7 CJ7 CJ7 CJ7 CJ7 CH9 CH9 CH9 CH9 CH9 CH9 CH9 CH9 CH9 CH9 CH9 CH9 CH9 CH9 CH9 CH9 CH9 CH9 CH9 CH9 CH9 CH9 CH9 CH9 CH9 CH9 CH9 CH9 CH9 CH9 CF9 CF9 CF9 CF9 CF9 CF9 CF9 CF9 CF9 CF9 CF9 CF9 CF9 CF9 CF9 CF9 CF9 CF9 CF9 CF9 CF9 CF9 CF9 CF9 CF9 CF9 CF9 CF9 CF9 CF9 BH9 BH9 BH9 BH9 BH9 BH9 BH9 BH9 BH9 BH9 BH9 BH9 BH9 BH9 BH9 BH9 BH9 BH9 BH9 BH9 CH9 CH9 CH9 CH9 CH9 CH9 CH9 CH9 CH9 CH9 CJ: CJ: CJ: CJ: CJ: CJ: CJ: CJ: CJ: CJ: BJ: BJ: BJ: BJ: BJ: BJ: BJ: BJ: BJ: BJ: BJ: BJ: BJ: BJ: BJ: BJ: BJ: BJ: BJ: BJ: CK< CK< CK< CK< CK< CK< CK< CK< CK< CK< CK< CK< CK< CK< CK< BK< BK< BK< BK< BK< BK< BK< BK< BK< BK< BK< BK< BK< BK< BK< CH9 CH9 CH9 CH9 CH9 CH9 CH9 CH9 CH9 CH9 CH9 CH9 CH9 CH9 CH9 BH9 BH9 BH9 BH9 BH9 BH9 BH9 BH9 BH9 BH9 BH9 BH9 BH9 BH9 BH9 CJ: CJ: CJ: CJ: CJ: CJ: CJ: CJ: CJ: CJ: CJ: CJ: CJ: CJ: CJ: CJ: CJ: CJ: CJ: CJ: CJ: CJ: CJ: CJ: CJ: CJ: CJ: CJ: CJ: CJ: CJ9 CJ9 CJ9 CJ9 CJ9 CJ9 CJ9 CJ9 CJ9 CJ9 CJ9 CJ9 CJ9 CJ9 CJ9 CJ9 CJ9 CJ9 CJ9 CJ9 CJ9 CJ9 CJ9 CJ9 CJ9 CJ9 CJ9 CJ9 CJ9 CJ9 CV7 CV7 CV7 CV7 CV7 CV7 CV7 CV7 CV7 CV7 CV7 CV7 CV7 CV7 CV7 CV7 CV7 CV7 CV7 CV7 CV7 CV7 CV7 CV7 CV7 CV7 CV7 CV7 CV7 CV7 CV: CV: CV: CV: CV: CV: CV: CV: CV: CV: CV: CV: CV: CV: CV: CV: CV: CV: CV: CV: CV: CV: CV: CV: CV: CV: CV: CV: CV: CV: N9 N9 N9 N9 N9 N9 N9 N9 N9 N9 N9 N9 N9 N9 N9 N9 N9 N9 N9 N9 N9 N9 N9 N9 N9 N9 N9 N9 N9 N9 N< N< N< N< N< N< N< N< N< N< N< N< N< N< N< N< N< N< N< N< N< N< N< N< N< N< N< N< N< N< N: N: N: N: N: N: N: N: N: N: N: N: N: N: N: N: N: N: N: N: N: N: N: N: N: N: N: N: N: N: O9 O9 O9 O9 O9 O9 O9 O9 O9 O9 O9 O9 O9 O9 O9 O9 O9 O9 O9 O9 O9 O9 O9 O9 O9 O9 O9 O9 O9 O9 CO7 CO7 CO7 CO7 CO7 CO7 CO7 CO7 CO7 CO7 CO7 CO7 CO7 CO7 CO7 CO7 CO7 CO7 CO7 CO7 CO7 CO7 CO7 CO7 CO7 CO7 CO7 CO7 CO7 CO7 CO9 CO9 CO9 CO9 CO9 CO9 CO9 CO9 CO9 CO9 CO9 CO9 CO9 CO9 CO9 CO9 CO9 CO9 CO9 CO9 CO9 CO9 CO9 CO9 CO9 CO9 CO9 CO9 CO9 CO9 ;5 ;5 ;5 ;5 ;5 ;5 ;5 ;5 ;5 ;5 ;5 ;5 ;5 ;5 ;5 ;5 ;5 ;5 ;5 ;5 ;5 ;5 ;5 ;5 ;5 ;5 ;5 ;5 ;5 ;5 ;7 ;7 ;7 ;7 ;7 ;7 ;7 ;7 ;7 ;7 ;7 ;7 ;7 ;7 ;7 ;7 ;7 ;7 ;7 ;7 ;7 ;7 ;7 ;7 ;7 ;7 ;7 ;7 ;7 ;7 <4 <4 <4 <4 <4 <4 <4 <4 <4 <4 <4 <4 <4 <4 <4 <4 <4 <4 <4 <4 <4 <4 <4 <4 <4 <4 <4 <4 <4 < <7 <7 <7 <7 <7 <7 <7 <7 <7 <7 <7 <7 <7 <7 <7 <7 <7 <7 <7 <7 <7 <7 <7 <7 <7 <7 <7 <7 <7 < <T5 <T5 <T5 <T5 <T5 <T5 <T5 <T5 <T5 <T5 <T5 <T5 <T5 <T5 <T5 <T5 <T5 <T5 <T5 <T5 <T5 <T5 <T5 <T5 <T5 <T5 <T5 <T5 <T5 <T <T9 <T9 <T9 <T9 <T9 <T9 <T9 <T9 <T9 <T9 <T9 <T9 <T9 <T9 <T9 <T9 <T9 <T9 <T9 <T9 <T9 <T9 <T9 <T9 <T9 <T9 <T9 <T9 <T9  L7 L7 L7 L7 L7 L7 L7 L7 L7 L7 L7 L7 L7 L7 L7 L7 L7 L7 L7 L7 L7 L7 L7 L7 L7 L7 L7 L7 L7 L L: L: L: L: L: L: L: L: L: L: L: L: L: L: L: L: L: L: L: L: L: L: L: L: L: L: L: L: L:  L9 L9 L9 L9 L9 L9 L9 L9 L9 L9 L9 L9 L9 L9 L9 L9 L9 L9 L9 L9 L9 L9 L9 L9 L9 L9 L9 L9 L9  M7 M7 M7 M7 M7 M7 M7 M7 M7 M7 M7 M7 M7 M7 M7 M7 M7 M7 M7 M7 M7 M7 M7 M7 M7 M7 M7 M7 M7 M AM5 AM5 AM5 AM5 AM5 AM5 AM5 AM5 AM5 AM5 AM5 AM5 AM5 AM5 AM5 AM5 AM5 AM5 AM5 AM5 AM5 AM5 AM5 AM5 AM5 AM5 AM5 AM5 AM5 AM AM7 AM7 AM7 AM7 AM7 AM7 AM7 AM7 AM7 AM7 AM7 AM7 AM7 AM7 AM7 AM7 AM7 AM7 AM7 AM7 AM7 AM7 AM7 AM7 AM7 AM7 AM7 AM7 AM7  93 93 93 93 93 93 93 93 93 93 93 93 93 93 93 93 93 93 93 93 93 93 93 93 93 93 93 93 93 9 95 95 95 95 95 95 95 95 95 95 95 95 95 95 95 95 95 95 95 95 95 95 95 95 95 95 95 95 95  :2 :2 :2 :2 :2 :2 :2 :2 :2 :2 :2 :2 :2 :2 :2 :2 :2 :2 :2 :2 :2 :2 :2 :2 :2 :2 :2 :2 :2 : :5 :5 :5 :5 :5 :5 :5 :5 :5 :5 :5 :5 :5 :5 :5 :5 :5 :5 :5 :5 :5 :5 :5 :5 :5 :5 :5 :5 :5 : :R3 :R3 :R3 :R3 :R3 :R3 :R3 :R3 :R3 :R3 :R3 :R3 :R3 :R3 :R3 :R3 :R3 :R3 :R3 :R3 :R3 :R3 :R3 :R3 :R3 :R3 :R3 :R3 :R3 :R :R7 :R7 :R7 :R7 :R7 :R7 :R7 :R7 :R7 :R7 :R7 :R7 :R7 :R7 :R7 :R7 :R7 :R7 :R7 :R7 :R7 :R7 :R7 :R7 :R7 :R7 :R7 :R7 :R7  J5 J5 J5 J5 J5 J5 J5 J5 J5 J5 J5 J5 J5 J5 J5 J5 J5 J5 J5 J5 J5 J5 J5 J5 J5 J5 J5 J5 J5 J J8 J8 J8 J8 J8 J8 J8 J8 J8 J8 J8 J8 J8 J8 J8 J8 J8 J8 J8 J8 J8 J8 J8 J8 J8 J8 J8 J8 J8  K7 K7 K7 K7 K7 K7 K7 K7 K7 K7 K7 K7 K7 K7 K7 K7 K7 K7 K7 K7 K7 K7 K7 K7 K7 K7 K7 K7 K7 K K5 K5 K5 K5 K5 K5 K5 K5 K5 K5 K5 K5 K5 K5 K5 K5 K5 K5 K5 K5 K5 K5 K5 K5 K5 K5 K5 K5 K5  ?O3 ?O3 ?O3 ?O3 ?O3 ?O3 ?O3 ?O3 ?O3 ?O3 ?O3 ?O3 ?O3 ?O3 ?O3 ?O3 ?O3 ?O3 ?O3 ?O3 ?O3 ?O3 ?O3 ?O3 ?O3 ?O3 ?O3 ?O3 ?O3 ?O ?O5 ?O5 ?O5 ?O5 ?O5 ?O5 ?O5 ?O5 ?O5 ?O5 ?O5 ?O5 ?O5 ?O5 ?O5 ?O5 ?O5 ?O5 ?O5 ?O5 ?O5 ?O5 ?O5 ?O5 ?O5 ?O5 ?O5 ?O5 ?O5  7F2 7F2 7F2 7F2 7F2 7F2 7F2 7F2 7F2 7F2 7F2 7F2 7F2 7F2 7F2 7F2 7F2 7F2 7F2 7F2 7F2 7F2 7F2 7F2 7F2 7F2 7F2 7F2 7F2 7F 7F3 7F3 7F3 7F3 7F3 7F3 7F3 7F3 7F3 7F3 7F3 7F3 7F3 7F3 7F3 7F3 7F3 7F3 7F3 7F3 7F3 7F3 7F3 7F3 7F3 7F3 7F3 7F3 7F3  9K0 9K0 9K0 9K0 9K0 9K0 9K0 9K0 9K0 9K0 9K0 9K0 9K0 9K0 9K0 9K0 9K0 9K0 9K0 90 9M0 9M0 9M0 9M0 9M0 9M0 9M0 9M0 9M0 9M 9M5 9M5 9M5 9M5 9M5 9M5 9M5 9M5 9M5 95 9K5 9K5 9K5 9K5 9K5 9K5 9K5 9K5 9K5 9K5 9K5 9K5 9K5 9K5 9K5 9K5 9K5 9K5 9K5  <M3 <M3 <M3 <M3 <M3 <M3 <M3 <M3 <M3 <M3 <M3 <M3 <M3 <M3 <3 <K3 <K3 <K3 <K3 <K3 <K3 <K3 <K3 <K3 <K3 <K3 <K3 <K3 <K3 < <M2 <M2 <M2 <M2 <M2 <M2 <M2 <M2 <M2 <M2 <M2 <M2 <M2 <M2 <2 <K2 <K2 <K2 <K2 <K2 <K2 <K2 <K2 <K2 <K2 <K2 <K2 <K2 <K2  3M0 3M0 3M0 3M0 3M0 3M0 3M0 3M0 3M0 3M0 3M0 3M0 3M0 3M0 30 3K0 3K0 3K0 3K0 3K0 3K0 3K0 3K0 3K0 3K0 3K0 3K0 3K0 3K0 3 3M. 3M. 3M. 3M. 3M. 3M. 3M. 3M. 3M. 3M. 3M. 3M. 3M. 3M. 3. 3K. 3K. 3K. 3K. 3K. 3K. 3K. 3K. 3K. 3K. 3K. 3K. 3K. 3K.  5M- 5M- 5M- 5M- 5M- 5M- 5M- 5M- 5M- 5M- 5M- 5M- 5M- 5M- 5- 5K- 5K- 5K- 5K- 5K- 5K- 5K- 5K- 5K- 5K- 5K- 5K- 5K- 5K- 5 5M2 5M2 5M2 5M2 5M2 5M2 5M2 5M2 5M2 5M2 5M2 5M2 5M2 5M2 5M2 5M2 5M2 5M2 5M2 5M2 5M2 5M2 5M2 5M2 5M2 5M2 5M2 5M2 5M2 5 5K0 5K0 5K0 5K0 5K0 5K0 5K0 5K0 5K0 5K0 5K0 5K0 5K0 5K0 5K0 5K0 5K0 5K0 5K0 5K0 5K0 5K0 5K0 5K0 5K0 5K0 5K0 5K0 5K0 5 5J. 5J. 5J. 5J. 5J. 5J. 5J. 5J. 5J. 5J. 5J. 5J. 5J. 5J. 5J. 5J. 5J. 5J. 5J. 5J. 5J. 5J. 5J. 5J. 5J. 5J. 5J. 5J. 5J. 5 5H- 5H- 5H- 5H- 5H- 5H- 5H- 5H- 5H- 5H- 5H- 5H- 5H- 5H- 5H- 5H- 5H- 5H- 5H- 5H- 5H- 5H- 5H- 5H- 5H- 5H- 5H- 5H- 5H- 5 5F+ 5F+ 5F+ 5F+ 5F+ 5F+ 5F+ 5F+ 5F+ 5F+ 5F+ 5F+ 5F+ 5F+ 5F+ 5F+ 5F+ 5F+ 5F+ 5F+ 5F+ 5F+ 5F+ 5F+ 5F+ 5F+ 5F+ 5F+ 5F+ 5 5E) 5E) 5E) 5E) 5E) 5E) 5E) 5E) 5E) 5E) 5E) 5E) 5E) 5E) 5E) 5E) 5E) 5E) 5E) 5E) 5E) 5E) 5E) 5E) 5E) 5E) 5E) 5E) 5E) 5 5J. 5J. 5J. 5J. 5J. 5J. 5J. 5J. 5J. 5J. 5J. 5J. 5J. 5J. 5J. 5J. 5J. 5J. 5J. 5J. 5J. 5J. 5J. 5J. 5J. 5J. 5J. 5J. 5J.  5H- 5H- 5H- 5H- 5H- 5H- 5H- 5H- 5H- 5H- 5H- 5H- 5H- 5H- 5H- 5H- 5H- 5H- 5H- 5H- 5H- 5H- 5H- 5H- 5H- 5H- 5H- 5H- 5H- 5 5F+ 5F+ 5F+ 5F+ 5F+ 5F+ 5F+ 5F+ 5F+ 5F+ 5F+ 5F+ 5F+ 5F+ 5F+ 5F+ 5F+ 5F+ 5F+ 5F+ 5F+ 5F+ 5F+ 5F+ 5F+ 5F+ 5F+ 5F+ 5F+  5E) 5E) 5E) 5E) 5E) 5E) 5E) 5E) 5E) 5E) 5E) 5E) 5E) 5E) 5E) 5E) 5E) 5E) 5E) 5E) 5E) 5E) 5E) 5E) 5E) 5E) 5E) 5E) 5E) 5 5C' 5C' 5C' 5C' 5C' 5C' 5C' 5C' 5C' 5C' 5C' 5C' 5C' 5C' 5C' 5C' 5C' 5C' 5C' 5C' 5C' 5C' 5C' 5C' 5C' 5C' 5C' 5C' 5C'  5A& 5A& 5A& 5A& 5A& 5A& 5A& 5A& 5A& 5A& 5A& 5A& 5A& 5A& 5A& 5A& 5A& 5A& 5A& 5A& 5A& 5A& 5A& 5A& 5A& 5A& 5A& 5A& 5A& 5 5F+ 5F+ 5F+ 5F+ 5F+ 5F+ 5F+ 5F+ 5F+ 5F+ 5F+ 5F+ 5F+ 5F+ 5F+ 5F+ 5F+ 5F+ 5F+ 5F+ 5F+ 5F+ 5F+ 5F+ 5F+ 5F+ 5F+ 5F+ 5F+  5E) 5E) 5E) 5E) 5E) 5E) 5E) 5E) 5E) 5E) 5E) 5E) 5E) 5E) 5E) 5E) 5E) 5E) 5E) 5E) 5E) 5E) 5E) 5E) 5E) 5E) 5E) 5E) 5E) 5 5C' 5C' 5C' 5C' 5C' 5C' 5C' 5C' 5C' 5C' 5C' 5C' 5C' 5C' 5C' 5C' 5C' 5C' 5C' 5C' 5C' 5C' 5C' 5C' 5C' 5C' 5C' 5C' 5C'  5A& 5A& 5A& 5A& 5A& 5A& 5A& 5A& 5A& 5A& 5A& 5A& 5A& 5A& 5A& 5A& 5A& 5A& 5A& 5A& 5A& 5A& 5A& 5A& 5A& 5A& 5A& 5A& 5A& 5 5?$ 5?$ 5?$ 5?$ 5?$ 5?$ 5?$ 5?$ 5?$ 5?$ 5?$ 5?$ 5?$ 5?$ 5?$ 5?$ 5?$ 5?$ 5?$ 5?$ 5?$ 5?$ 5?$ 5?$ 5?$ 5?$ 5?$ 5?$ 5?$  .>" .>" .>" .>" .>" .>" .>" .>" .>" .>" .>" .>" .>" .>" .>" .>" .>" .>" .>" .>" .>" .>" .>" .>" .>" .>" .>" .>" .>" ." .<" .<" .<" .<" .<" .<" .<" .<" .<" .<" .<" .<" .<" .<" .<" .<" .<" .<" .<" .<" .<" .<" .<" .<" .<" .<" .<" .<" .<"  :>7 :>7 :>7 :>7 :>7 :>7 :>7 :>7 :>7 :>7 :>7 :>7 :>7 :>7 :>7 :>7 :>7 :>7 :>7 :>7 :>7 :>7 :>7 :>7 :>7 :>7 :>7 :>7 :>7 :7 ::7 ::7 ::7 ::7 ::7 ::7 ::7 ::7 ::7 ::7 ::7 ::7 ::7 ::7 ::7 ::7 ::7 ::7 ::7 ::7 ::7 ::7 ::7 ::7 ::7 ::7 ::7 ::7 ::7  :F2 :F2 :F2 :F2 :F2 :F2 :F2 :F2 :F2 :F2 :F2 :F2 :F2 :F2 :F2 :F2 :F2 :F2 :F2 :F2 :F2 :F2 :F2 :F2 :F2 :F2 :F2 :F2 :F2 :F2 :F2 :F2 :F2 :F2 :F2 :F2 :F2 :F2 :F2 :F2 :F2 :F2 :F2 :F2 :F2 :F2 :F2 :F2 :F2 :F2 :F2 :F2 :F2 :F2 :F2 :F2 :F2 :F2 :F2 F <F3 <F3 <F3 <F3 <F3 <F3 <F3 <F3 <F3 <F3 <F3 <F3 <F3 <F3 <F3 <F3 <F3 <F3 <F3 <F3 <F3 <F3 <F3 <F3 <F3 <F3 <F3 <F3 <F3 <F3 <F3 <F3 <F3 <F3 <F3 <F3 <F3 <F3 <F3 <F3 <F3 <F3 <F3 <F3 <F3 <F3 <F3 <F3 <F3 <F3 <F3 <F3 <F3 <F3 <F3 <F3 <F3 <F3 <F3  <E0 <E0 <E0 <E0 <E0 <E0 <E0 <E0 <E0 <E0 <E0 <E0 <E0 <E0 <E0 <E0 <E0 <E0 <E0 <0 <F0 <F0 <F0 <F0 <F0 <F0 <F0 <F0 <F0 F0 >F0 >F0 >F0 >F0 >F0 >F0 >F0 >F0 >F0 >0 >E0 >E0 >E0 >E0 >E0 >E0 >E0 >E0 >E0 >E0 >E0 >E0 >E0 >E0 >E0 >E0 >E0 >E0 >E0  ?F5 ?F5 ?F5 ?F5 ?F5 ?F5 ?F5 ?F5 ?F5 ?F5 ?F5 ?F5 ?F5 ?F5 ?5 ?E5 ?E5 ?E5 ?E5 ?E5 ?E5 ?E5 ?E5 ?E5 ?E5 ?E5 ?E5 ?E5 ?E5 5 <F5 <F5 <F5 <F5 <F5 <F5 <F5 <F5 <F5 <F5 <F5 <F5 <F5 <F5 <5 <E5 <E5 <E5 <E5 <E5 <E5 <E5 <E5 <E5 <E5 <E5 <E5 <E5 <E5  >F. >F. >F. >F. >F. >F. >F. >F. >F. >F. >F. >F. >F. >F. >F. >F. >F. >F. >F. >F. >F. >F. >F. >F. >F. >F. >F. >F. >F. F. <F. <F. <F. <F. <F. <F. <F. <F. <F. <F. <F. <F. <F. <F. <F. <F. <F. <F. <F. <F. <F. <F. <F. <F. <F. <F. <F. <F. <F.  :F2 :F2 :F2 :F2 :F2 :F2 :F2 :F2 :F2 :F2 :F2 :F2 :F2 :F2 :F2 :F2 :F2 :F2 :F2 :F2 :F2 :F2 :F2 :F2 :F2 :F2 :F2 :F2 :F2 F2 >F2 >F2 >F2 >F2 >F2 >F2 >F2 >F2 >F2 >F2 >F2 >F2 >F2 >F2 >F2 >F2 >F2 >F2 >F2 >F2 >F2 >F2 >F2 >F2 >F2 >F2 >F2 >F2 >F2  <F5 <F5 <F5 <F5 <F5 <F5 <F5 <F5 <F5 <F5 <F5 <F5 <F5 <F5 <F5 <F5 <F5 <F5 <F5 <F5 <F5 <F5 <F5 <F5 <F5 <F5 <F5 <F5 <F5 F5 ?F5 ?F5 ?F5 ?F5 ?F5 ?F5 ?F5 ?F5 ?F5 ?F5 ?F5 ?F5 ?F5 ?F5 ?F5 ?F5 ?F5 ?F5 ?F5 ?F5 ?F5 ?F5 ?F5 ?F5 ?F5 ?F5 ?F5 ?F5 ?F5  >F: >F: >F: >F: >F: >F: >F: >F: >F: >F: >F: >F: >F: >F: >F: >F: >F: >F: >F: >F: >F: >F: >F: >F: >F: >F: >F: >F: >F: F: <F: <F: <F: <F: <F: <F: <F: <F: <F: <F: <F: <F: <F: <F: <F: <F: <F: <F: <F: <F: <F: <F: <F: <F: <F: <F: <F: <F: <F:  :F9 :F9 :F9 :F9 :F9 :F9 :F9 :F9 :F9 :F9 :F9 :F9 :F9 :F9 :F9 :F9 :F9 :F9 :F9 :F9 :F9 :F9 :F9 :F9 :F9 :F9 :F9 :F9 :F9 F9 >F9 >F9 >F9 >F9 >F9 >F9 >F9 >F9 >F9 >F9 >F9 >F9 >F9 >F9 >F9 >F9 >F9 >F9 >F9 >F9 >F9 >F9 >F9 >F9 >F9 >F9 >F9 >F9 >F9  <F7 <F7 <F7 <F7 <F7 <F7 <F7 <F7 <F7 <F7 <F7 <F7 <F7 <F7 <F7 <F7 <F7 <F7 <F7 <F7 <F7 <F7 <F7 <F7 <F7 <F7 <F7 <F7 <F7 F7 :F7 :F7 :F7 :F7 :F7 :F7 :F7 :F7 :F7 :F7 :F7 :F7 :F7 :F7 :F7 :F7 :F7 :F7 :F7 :F7 :F7 :F7 :F7 :F7 :F7 :F7 :F7 :F7 :F7  9A> 9A> 9A> 9A> 9A> 9A> 9A> 9A> 9A> 9A> 9A> 9A> 9A> 9A> 9A> 9A> 9A> 9A> 9A> 9A> 9A> 9A> 9A> 9A> 9A> 9A> 9A> 9A> 9A> A> 7A> 7A> 7A> 7A> 7A> 7A> 7A> 7A> 7A> 7A> 7A> 7A> 7A> 7A> 7A> 7A> 7A> 7A> 7A> 7A> 7A> 7A> 7A> 7A> 7A> 7A> 7A> 7A> 7A> > 9M> 9M> 9M> 9M> 9M> 9M> 9M> 9M> 9M> 9M> 9M> 9M> 9M> 9M> 9M> 9M> 9M> 9M> 9M> 9M> 9M> 9M> 9M> 9M> 9M> 9M> 9M> 9M> 9M> M> 5M> 5M> 5M> 5M> 5M> 5M> 5M> 5M> 5M> 5M> 5M> 5M> 5M> 5M> 5M> 5M> 5M> 5M> 5M> 5M> 5M> 5M> 5M> 5M> 5M> 5M> 5M> 5M> 5M>  AM9 AM9 AM9 AM9 AM9 AM9 AM9 AM9 AM9 AM9 AM9 AM9 AM9 AM9 AM9 AM9 AM9 AM9 AM9 AM9 AM9 AM9 AM9 AM9 AM9 AM9 AM9 AM9 AM9 AM9 AM9 AM9 AM9 AM9 AM9 AM9 AM9 AM9 AM9 AM9 AM9 AM9 AM9 AM9 AM9 AM9 AM9 AM9 AM9 AM9 AM9 AM9 AM9 AM9 AM9 AM9 AM9 AM9 AM9 A AO: AO: AO: AO: AO: AO: AO: AO: AO: AO: AO: AO: AO: AO: AO: AO: AO: AO: AO: AO: AO: AO: AO: AO: AO: AO: AO: AO: AO: AO: AO: AO: AO: AO: AO: AO: AO: AO: AO: AO: AO: AO: AO: AO: AO: AO: AO: AO: AO: AO: AO: AO: AO: AO: AO: AO: AO: AO: AO:  @O7 @O7 @O7 @O7 @O7 @O7 @O7 @O7 @O7 @O7 @O7 @O7 @O7 @O7 @O7 @O7 @O7 @O7 @O7 @O7 @O7 @O7 @O7 @O7 @O7 @O7 @O7 @O7 @O7 @7 @Q7 @Q7 @Q7 @Q7 @Q7 @Q7 @Q7 @Q7 @Q7 @Q7 @Q7 @Q7 @Q7 @Q7 @Q7 @Q7 @Q7 @Q7 @Q7 @Q7 @Q7 @Q7 @Q7 @Q7 @Q7 @Q7 @Q7 @Q7 @Q7 @ @R< @R< @R< @R< @R< @R< @R< @R< @R< @R< @R< @R< @R< @R< @R< @R< @R< @R< @R< @R< @R< @R< @R< @R< @R< @R< @R< @R< @R< @< @O< @O< @O< @O< @O< @O< @O< @O< @O< @O< @O< @O< @O< @O< @O< @O< @O< @O< @O< @O< @O< @O< @O< @O< @O< @O< @O< @O< @O<  AQ5 AQ5 AQ5 AQ5 AQ5 AQ5 AQ5 AQ5 AQ5 AQ5 AQ5 AQ5 AQ5 AQ5 AQ5 AQ5 AQ5 AQ5 AQ5 Q5 ?Q5 ?Q5 ?Q5 ?Q5 ?Q5 ?Q5 ?Q5 ?Q5 ?Q5 ?5 ?O5 ?O5 ?O5 ?O5 ?O5 ?O5 ?O5 ?O5 ?O5 O5 >O5 >O5 >O5 >O5 >O5 >O5 >O5 >O5 >O5 >O5 >O5 >O5 >O5 >O5 >O5 >O5 >O5 >O5 >O5  ?M) ?M) ?M) ?M) ?M) ?M) ?M) ?M) ?M) ?M) ?M) ?M) ?M) ?M) ?M) ?M) ?M) ?M) ?M) M) >M) >M) >M) >M) >M) >M) >M) >M) >M) >) >Q) >Q) >Q) >Q) >Q) >Q) >Q) >Q) >Q) Q) <Q) <Q) <Q) <Q) <Q) <Q) <Q) <Q) <Q) <Q) <Q) <Q) <Q) <Q) <Q) <Q) <Q) <Q) <Q)  >O) >O) >O) >O) >O) >O) >O) >O) >O) >O) >O) >O) >O) >O) >O) >O) >O) >O) >O) O) <O) <O) <O) <O) <O) <O) <O) <O) <O) <) <R) <R) <R) <R) <R) <R) <R) <R) <R) R) :R) :R) :R) :R) :R) :R) :R) :R) :R) :R) :R) :R) :R) :R) :R) :R) :R) :R) :R)  ?Q) ?Q) ?Q) ?Q) ?Q) ?Q) ?Q) ?Q) ?Q) ?Q) ?Q) ?Q) ?Q) ?Q) ?Q) ?Q) ?Q) ?Q) ?Q) Q) >Q) >Q) >Q) >Q) >Q) >Q) >Q) >Q) >Q) >) >O) >O) >O) >O) >O) >O) >O) >O) >O) O) <O) <O) <O) <O) <O) <O) <O) <O) <O) <O) <O) <O) <O) <O) <O) <O) <O) <O) <O)  >M) >M) >M) >M) >M) >M) >M) >M) >M) >M) >M) >M) >M) >M) >M) >M) >M) >M) >M) M) <M) <M) <M) <M) <M) <M) <M) <M) <M) <) <O) <O) <O) <O) <O) <O) <O) <O) <O) O) :O) :O) :O) :O) :O) :O) :O) :O) :O) :O) :O) :O) :O) :O) :O) :O) :O) :O) :O)  <M) <M) <M) <M) <M) <M) <M) <M) <M) <M) <M) <M) <M) <M) <M) <M) <M) <M) <M) M) :M) :M) :M) :M) :M) :M) :M) :M) :M) :) :K) :K) :K) :K) :K) :K) :K) :K) :K) K) 9K) 9K) 9K) 9K) 9K) 9K) 9K) 9K) 9K) 9K) 9K) 9K) 9K) 9K) 9K) 9K) 9K) 9K) 9K)  :J" :J" :J" :J" :J" :J" :J" :J" :J" :J" :J" :J" :J" :J" :J" :J" :J" :J" :J" :J" :J" :J" :J" :J" :J" :J" :J" :J" :J" :" :H" :H" :H" :H" :H" :H" :H" :H" :H" :H" :H" :H" :H" :H" :H" :H" :H" :H" :H" :H" :H" :H" :H" :H" :H" :H" :H" :H" :H" : :J. :J. :J. :J. :J. :J. :J. :J. :J. :J. :J. :J. :J. :J. :J. :J. :J. :J. :J. :J. :J. :J. :J. :J. :J. :J. :J. :J. :J. . 9F. 9F. 9F. 9F. 9F. 9F. 9F. 9F. 9F. 9F. 9F. 9F. 9F. 9F. 9F. 9F. 9F. 9F. 9F. 9F. 9F. 9F. 9F. 9F. 9F. 9F. 9F. 9F. 9F.  7R. 7R. 7R. 7R. 7R. 7R. 7R. 7R. 7R. 7R. 7R. 7R. 7R. 7R. 7R. 7R. 7R. 7R. 7R. 7R. 7R. 7R. 7R. 7R. 7R. 7R. 7R. 7R. 7R. R. 5R. 5R. 5R. 5R. 5R. 5R. 5R. 5R. 5R. 5R. 5R. 5R. 5R. 5R. 5R. 5R. 5R. 5R. 5R. 5R. 5R. 5R. 5R. 5R. 5R. 5R. 5R. 5R. 5R. R 3R0 3R0 3R0 3R0 3R0 3R0 3R0 3R0 3R0 3R0 3R0 3R0 3R0 3R0 3R0 3R0 3R0 3R0 3R0 3R0 3R0 3R0 3R0 3R0 3R0 3R0 3R0 3R0 3R0 R0 2R0 2R0 2R0 2R0 2R0 2R0 2R0 2R0 2R0 2R0 2R0 2R0 2R0 2R0 2R0 2R0 2R0 2R0 2R0 2R0 2R0 2R0 2R0 2R0 2R0 2R0 2R0 2R0 2R0  3Q0 3Q0 3Q0 3Q0 3Q0 3Q0 3Q0 3Q0 3Q0 3Q0 3Q0 3Q0 3Q0 3Q0 3Q0 3Q0 3Q0 3Q0 3Q0 30 3R0 3R0 3R0 3R0 3R0 3R0 3R0 3R0 3R0 R 5R2 5R2 5R2 5R2 5R2 5R2 5R2 5R2 5R2 52 5Q2 5Q2 5Q2 5Q2 5Q2 5Q2 5Q2 5Q2 5Q2 5Q2 5Q2 5Q2 5Q2 5Q2 5Q2 5Q2 5Q2 5Q2 5Q2  7R3 7R3 7R3 7R3 7R3 7R3 7R3 7R3 7R3 7R3 7R3 7R3 7R3 7R3 73 7Q3 7Q3 7Q3 7Q3 7Q3 7Q3 7Q3 7Q3 7Q3 7Q3 7Q3 7Q3 7Q3 7Q3  3R0 3R0 3R0 3R0 3R0 3R0 3R0 3R0 3R0 3R0 3R0 3R0 3R0 3R0 30 3Q0 3Q0 3Q0 3Q0 3Q0 3Q0 3Q0 3Q0 3Q0 3Q0 3Q0 3Q0 3Q0 3Q0  5R2 5R2 5R2 5R2 5R2 5R2 5R2 5R2 5R2 5R2 5R2 5R2 5R2 5R2 5R2 5R2 5R2 5R2 5R2 52 5P2 5P2 5P2 5P2 5P2 5P2 5P2 5P2 5P2 5P 5P0 5P0 5P0 5P0 5P0 5P0 5P0 5P0 5P0 50 5O0 5O0 5O0 5O0 5O0 5O0 5O0 5O0 5O0 5O0 5O0 5O0 5O0 5O0 5O0 5O0 5O0 5O0 5O0  :P. :P. :P. :P. :P. :P. :P. :P. :P. :P. :P. :P. :P. :P. :P. :P. :P. :P. :P. :. :O. :O. :O. :O. :O. :O. :O. :O. :O. :O :O2 :O2 :O2 :O2 :O2 :O2 :O2 :O2 :O2 :2 :M2 :M2 :M2 :M2 :M2 :M2 :M2 :M2 :M2 :M2 :M2 :M2 :M2 :M2 :M2 :M2 :M2 :M2 :M2 : :O0 :O0 :O0 :O0 :O0 :O0 :O0 :O0 :O0 :O0 :O0 :O0 :O0 :O0 :O0 :O0 :O0 :O0 :O0 :0 :M0 :M0 :M0 :M0 :M0 :M0 :M0 :M0 :M0 :M :M3 :M3 :M3 :M3 :M3 :M3 :M3 :M3 :M3 :3 :K3 :K3 :K3 :K3 :K3 :K3 :K3 :K3 :K3 :K3 :K3 :K3 :K3 :K3 :K3 :K3 :K3 :K3 :K3  8M2 8M2 8M2 8M2 8M2 8M2 8M2 8M2 8M2 8M2 8M2 8M2 8M2 8M2 8M2 8M2 8M2 8M2 8M2 2 7K2 7K2 7K2 7K2 7K2 7K2 7K2 7K2 7K2 7K 7K5 7K5 7K5 7K5 7K5 7K5 7K5 7K5 7K5 5 5J5 5J5 5J5 5J5 5J5 5J5 5J5 5J5 5J5 5J5 5J5 5J5 5J5 5J5 5J5 5J5 5J5 5J5 5J5  7K3 7K3 7K3 7K3 7K3 7K3 7K3 7K3 7K3 7K3 7K3 7K3 7K3 7K3 7K3 7K3 7K3 7K3 7K3 3 5J3 5J3 5J3 5J3 5J3 5J3 5J3 5J3 5J3 5J 5J7 5J7 5J7 5J7 5J7 5J7 5J7 5J7 5J7 7 3H7 3H7 3H7 3H7 3H7 3H7 3H7 3H7 3H7 3H7 3H7 3H7 3H7 3H7 3H7 3H7 3H7 3H7 3H7  5J5 5J5 5J5 5J5 5J5 5J5 5J5 5J5 5J5 5J5 5J5 5J5 5J5 5J5 5J5 5J5 5J5 5J5 5J5 5 3H5 3H5 3H5 3H5 3H5 3H5 3H5 3H5 3H5 3H 3H9 3H9 3H9 3H9 3H9 3H9 3H9 3H9 3H9 9 2F9 2F9 2F9 2F9 2F9 2F9 2F9 2F9 2F9 2F9 2F9 2F9 2F9 2F9 2F9 2F9 2F9 2F9 2F9  3F- 3F- 3F- 3F- 3F- 3F- 3F- 3F- 3F- 3F- 3F- 3F- 3F- 3F- 3F- 3F- 3F- 3F- 3F- 3F- 3F- 3F- 3F- 3F- 3F- 3F- 3F- 3F- 3F- 3- 3H- 3H- 3H- 3H- 3H- 3H- 3H- 3H- 3H- 3H- 3H- 3H- 3H- 3H- 3- 3F- 3F- 3F- 3F- 3F- 3F- 3F- 3F- 3F- 3F- 3F- 3F- 3F- 3F- 3 3H) 3H) 3H) 3H) 3H) 3H) 3H) 3H) 3H) 3H) 3H) 3H) 3H) 3H) 3H) 3H) 3H) 3H) 3H) 3H) 3H) 3H) 3H) 3H) 3H) 3H) 3H) 3H) 3H) ) 5J) 5J) 5J) 5J) 5J) 5J) 5J) 5J) 5J) 5J) 5J) 5J) 5J) 5J) 5J) 5J) 5J) 5J) 5J) 5J) 5J) 5J) 5J) 5J) 5J) 5J) 5J) 5J) 5J)  2H. 2H. 2H. 2H. 2H. 2H. 2H. 2H. 2H. 2H. 2H. 2H. 2H. 2H. 2H. 2H. 2H. 2H. 2H. 2H. 2H. 2H. 2H. 2H. 2H. 2H. 2H. 2H. 2H. 2. 2F. 2F. 2F. 2F. 2F. 2F. 2F. 2F. 2F. 2F. 2F. 2F. 2F. 2F. 2F. 2F. 2F. 2F. 2F. 2F. 2F. 2F. 2F. 2F. 2F. 2F. 2F. 2F. 2F. 2F 2F3 2F3 2F3 2F3 2F3 2F3 2F3 2F3 2F3 2F3 2F3 2F3 2F3 2F3 2F3 2F3 2F3 2F3 2F3 2F3 2F3 2F3 2F3 2F3 2F3 2F3 2F3 2F3 2F3 23 3H3 3H3 3H3 3H3 3H3 3H3 3H3 3H3 3H3 3H3 3H3 3H3 3H3 3H3 3H3 3H3 3H3 3H3 3H3 3H3 3H3 3H3 3H3 3H3 3H3 3H3 3H3 3H3 3H3  0E5 0E5 0E5 0E5 0E5 0E5 0E5 0E5 0E5 0E5 0E5 0E5 0E5 0E5 0E5 0E5 0E5 0E5 0E5 0E5 0E5 0E5 0E5 0E5 0E5 0E5 0E5 0E5 0E5 0E5 0E5 0E5 0E5 0E5 0E5 0E5 0E5 0E5 0E5 0E5 0E5 0E5 0E5 0E5 0E5 0E5 0E5 0E5 0E5 0E5 0E5 0E5 0E5 0E5 0E5 0E5 0E5 0E5 0E5 0E 0E) 0E) 0E) 0E) 0E) 0E) 0E) 0E) 0E) 0E) 0E) 0E) 0E) 0E) 0E) 0E) 0E) 0E) 0E) 0E) 0E) 0E) 0E) 0E) 0E) 0E) 0E) 0E) 0E) 0) .F) .F) .F) .F) .F) .F) .F) .F) .F) .F) .F) .F) .F) .F) .F) .F) .F) .F) .F) .F) .F) .F) .F) .F) .F) .F) .F) .F) .F)  .F. .F. .F. .F. .F. .F. .F. .F. .F. .F. .F. .F. .F. .F. .F. .F. .F. .F. .F. .F. .F. .F. .F. .F. .F. .F. .F. .F. .F. .. .J. .J. .J. .J. .J. .J. .J. .J. .J. .J. .J. .J. .J. .J. .J. .J. .J. .J. .J. .J. .J. .J. .J. .J. .J. .J. .J. .J. .J. . .M. .M. .M. .M. .M. .M. .M. .M. .M. .M. .M. .M. .M. .M. .M. .M. .M. .M. .M. .M. .M. .M. .M. .M. .M. .M. .M. .M. .M. .. .J. .J. .J. .J. .J. .J. .J. .J. .J. .J. .J. .J. .J. .J. .J. .J. .J. .J. .J. .J. .J. .J. .J. .J. .J. .J. .J. .J. .J. . .F. .F. .F. .F. .F. .F. .F. .F. .F. .F. .F. .F. .F. .F. .F. .F. .F. .F. .F. .F. .F. .F. .F. .F. .F. .F. .F. .F. .F. .. .J. .J. .J. .J. .J. .J. .J. .J. .J. .J. .J. .J. .J. .J. .J. .J. .J. .J. .J. .J. .J. .J. .J. .J. .J. .J. .J. .J. .J.  F. F. F. F. F. F. F. F. F. F. F. F. F. F. F. F. F. F. F. F. F. F. F. F. F. F. F. F. F. . J. J. J. J. J. J. J. J. J. J. J. J. J. J. J. J. J. J. J. J. J. J. J. J. J. J. J. J. J.  :M. :M. :M. :M. :M. :M. :M. :M. :M. :M. :M. :M. :M. :M. :M. :M. :M. :M. :M. :M. :M. :M. :M. :M. :M. :M. :M. :M. :M. :. :J. :J. :J. :J. :J. :J. :J. :J. :J. :J. :J. :J. :J. :J. :J. :J. :J. :J. :J. :J. :J. :J. :J. :J. :J. :J. :J. :J. :J.  8F. 8F. 8F. 8F. 8F. 8F. 8F. 8F. 8F. 8F. 8F. 8F. 8F. 8F. 8F. 8F. 8F. 8F. 8F. 8F. 8F. 8F. 8F. 8F. 8F. 8F. 8F. 8F. 8F. 8. 8J. 8J. 8J. 8J. 8J. 8J. 8J. 8J. 8J. 8J. 8J. 8J. 8J. 8J. 8J. 8J. 8J. 8J. 8J. 8J. 8J. 8J. 8J. 8J. 8J. 8J. 8J. 8J. 8J.  7F. 7F. 7F. 7F. 7F. 7F. 7F. 7F. 7F. 7F. 7F. 7F. 7F. 7F. 7F. 7F. 7F. 7F. 7F. 7F. 7F. 7F. 7F. 7F. 7F. 7F. 7F. 7F. 7F. 7. 7K. 7K. 7K. 7K. 7K. 7K. 7K. 7K. 7K. 7K. 7K. 7K. 7K. 7K. 7K. 7K. 7K. 7K. 7K. 7K. 7K. 7K. 7K. 7K. 7K. 7K. 7K. 7K. 7K. 7 7O. 7O. 7O. 7O. 7O. 7O. 7O. 7O. 7O. 7O. 7O. 7O. 7O. 7O. 7O. 7O. 7O. 7O. 7O. 7O. 7O. 7O. 7O. 7O. 7O. 7O. 7O. 7O. 7O. 7. 7K. 7K. 7K. 7K. 7K. 7K. 7K. 7K. 7K. 7K. 7K. 7K. 7K. 7K. 7K. 7K. 7K. 7K. 7K. 7K. 7K. 7K. 7K. 7K. 7K. 7K. 7K. 7K. 7K. 7 7F. 7F. 7F. 7F. 7F. 7F. 7F. 7F. 7F. 7F. 7F. 7F. 7F. 7F. 7F. 7F. 7F. 7F. 7F. 7F. 7F. 7F. 7F. 7F. 7F. 7F. 7F. 7F. 7F. 7. 7K. 7K. 7K. 7K. 7K. 7K. 7K. 7K. 7K. 7K. 7K. 7K. 7K. 7K. 7K. 7K. 7K. 7K. 7K. 7K. 7K. 7K. 7K. 7K. 7K. 7K. 7K. 7K. 7K. 7 7F. 7F. 7F. 7F. 7F. 7F. 7F. 7F. 7F. 7F. 7F. 7F. 7F. 7F. 7F. 7F. 7F. 7F. 7F. 7F. 7F. 7F. 7F. 7F. 7F. 7F. 7F. 7F. 7F. 7. 7K. 7K. 7K. 7K. 7K. 7K. 7K. 7K. 7K. 7K. 7K. 7K. 7K. 7K. 7K. 7K. 7K. 7K. 7K. 7K. 7K. 7K. 7K. 7K. 7K. 7K. 7K. 7K. 7K. 7 :O. :O. :O. :O. :O. :O. :O. :O. :O. :O. :O. :O. :O. :O. :O. :O. :O. :O. :O. :O. :O. :O. :O. :O. :O. :O. :O. :O. :O. . 9K. 9K. 9K. 9K. 9K. 9K. 9K. 9K. 9K. 9K. 9K. 9K. 9K. 9K. 9K. 9K. 9K. 9K. 9K. 9K. 9K. 9K. 9K. 9K. 9K. 9K. 9K. 9K. 9K.  :F. :F. :F. :F. :F. :F. :F. :F. :F. :F. :F. :F. :F. :F. :F. :F. :F. :F. :F. :F. :F. :F. :F. :F. :F. :F. :F. :F. :F. . <K. <K. <K. <K. <K. <K. <K. <K. <K. <K. <K. <K. <K. <K. <K. <K. <K. <K. <K. <K. <K. <K. <K. <K. <K. <K. <K. <K. <K.  5F. 5F. 5F. 5F. 5F. 5F. 5F. 5F. 5F. 5F. 5F. 5F. 5F. 5F. 5F. 5F. 5F. 5F. 5F. 5F. 5F. 5F. 5F. 5F. 5F. 5F. 5F. 5F. 5F. 5. 5K. 5K. 5K. 5K. 5K. 5K. 5K. 5K. 5K. 5K. 5K. 5K. 5K. 5K. 5K. 5K. 5K. 5K. 5K. 5K. 5K. 5K. 5K. 5K. 5K. 5K. 5K. 5K. 5K. 5 5M. 5M. 5M. 5M. 5M. 5M. 5M. 5M. 5M. 5M. 5M. 5M. 5M. 5M. 5M. 5M. 5M. 5M. 5M. 5M. 5M. 5M. 5M. 5M. 5M. 5M. 5M. 5M. 5M. 5. 5K. 5K. 5K. 5K. 5K. 5K. 5K. 5K. 5K. 5K. 5K. 5K. 5K. 5K. 5K. 5K. 5K. 5K. 5K. 5K. 5K. 5K. 5K. 5K. 5K. 5K. 5K. 5K. 5K. 5 5F. 5F. 5F. 5F. 5F. 5F. 5F. 5F. 5F. 5F. 5F. 5F. 5F. 5F. 5F. 5F. 5F. 5F. 5F. 5F. 5F. 5F. 5F. 5F. 5F. 5F. 5F. 5F. 5F. 5. 5K. 5K. 5K. 5K. 5K. 5K. 5K. 5K. 5K. 5K. 5K. 5K. 5K. 5K. 5K. 5K. 5K. 5K. 5K. 5K. 5K. 5K. 5K. 5K. 5K. 5K. 5K. 5K. 5K. 5 5F. 5F. 5F. 5F. 5F. 5F. 5F. 5F. 5F. 5F. 5F. 5F. 5F. 5F. 5F. 5F. 5F. 5F. 5F. 5F. 5F. 5F. 5F. 5F. 5F. 5F. 5F. 5F. 5F. 5. 5J. 5J. 5J. 5J. 5J. 5J. 5J. 5J. 5J. 5J. 5J. 5J. 5J. 5J. 5J. 5J. 5J. 5J. 5J. 5J. 5J. 5J. 5J. 5J. 5J. 5J. 5J. 5J. 5J. 5 :M. :M. :M. :M. :M. :M. :M. :M. :M. :M. :M. :M. :M. :M. :M. :M. :M. :M. :M. :M. :M. :M. :M. :M. :M. :M. :M. :M. :M. :. :J. :J. :J. :J. :J. :J. :J. :J. :J. :J. :J. :J. :J. :J. :J. :J. :J. :J. :J. :J. :J. :J. :J. :J. :J. :J. :J. :J. :J.  9F. 9F. 9F. 9F. 9F. 9F. 9F. 9F. 9F. 9F. 9F. 9F. 9F. 9F. 9F. 9F. 9F. 9F. 9F. 9F. 9F. 9F. 9F. 9F. 9F. 9F. 9F. 9F. 9F. . 7J. 7J. 7J. 7J. 7J. 7J. 7J. 7J. 7J. 7J. 7J. 7J. 7J. 7J. 7J. 7J. 7J. 7J. 7J. 7J. 7J. 7J. 7J. 7J. 7J. 7J. 7J. 7J. 7J.  5C. 5C. 5C. 5C. 5C. 5C. 5C. 5C. 5C. 5C. 5C. 5C. 5C. 5C. 5C. 5C. 5C. 5C. 5C. 5C. 5C. 5C. 5C. 5C. 5C. 5C. 5C. 5C. 5C. . 3H. 3H. 3H. 3H. 3H. 3H. 3H. 3H. 3H. 3H. 3H. 3H. 3H. 3H. 3H. 5H. 5H. 5H. 5H. 5H. 5H. 5H. 5H. 5H. 5H. 5H. 5H. 5H. 5H. 5 3K. 3K. 3K. 3K. 3K. 3K. 3K. 3K. 3K. 3K. 3K. 3K. 3K. 3K. 3K. 5K. 5K. 5K. 5K. 5K. 5K. 5K. 5K. 5K. 5K. 5K. 5K. 5K. 5K. 5. 3H. 3H. 3H. 3H. 3H. 3H. 3H. 3H. 3H. 3H. 3H. 3H. 3H. 3H. 3H. 5H. 5H. 5H. 5H. 5H. 5H. 5H. 5H. 5H. 5H. 5H. 5H. 5H. 5H. 5 3C. 3C. 3C. 3C. 3C. 3C. 3C. 3C. 3C. 3C. 3C. 3C. 3C. 3C. 3C. 5C. 5C. 5C. 5C. 5C. 5C. 5C. 5C. 5C. 5C. 5C. 5C. 5C. 5C. 5. 3H. 3H. 3H. 3H. 3H. 3H. 3H. 3H. 3H. 3H. 3H. 3H. 3H. 3H. 3H. 5H. 5H. 5H. 5H. 5H. 5H. 5H. 5H. 5H. 5H. 5H. 5H. 5H. 5H. 5 3E. 3E. 3E. 3E. 3E. 3E. 3E. 3E. 3E. 3E. 3E. 3E. 3E. 3E. 3E. 5E. 5E. 5E. 5E. 5E. 5E. 5E. 5E. 5E. 5E. 5E. 5E. 5E. 5E. 5. 3H. 3H. 3H. 3H. 3H. 3H. 3H. 3H. 3H. 3H. 3H. 3H. 3H. 3H. 3H. 5H. 5H. 5H. 5H. 5H. 5H. 5H. 5H. 5H. 5H. 5H. 5H. 5H. 5H. 5 3M. 3M. 3M. 3M. 3M. 3M. 3M. 3M. 3M. 3M. 3M. 3M. 3M. 3M. 3M. 5M. 5M. 5M. 5M. 5M. 5M. 5M. 5M. 5M. 5M. 5M. 5M. 5M. 5M. 5. 3H. 3H. 3H. 3H. 3H. 3H. 3H. 3H. 3H. 3H. 3H. 3H. 3H. 3H. 3H. 5H. 5H. 5H. 5H. 5H. 5H. 5H. 5H. 5H. 5H. 5H. 5H. 5H. 5H. 5 3E. 3E. 3E. 3E. 3E. 3E. 3E. 3E. 3E. 3E. 3E. 3E. 3E. 3E. 3E. 3E. 3E. 3E. 3E. 3E. 3E. 3E. 3E. 3E. 3E. 3E. 3E. 3E. 3E. . 2H. 2H. 2H. 2H. 2H. 2H. 2H. 2H. 2H. 2H. 2H. 2H. 2H. 2H. 2H. 3H. 3H. 3H. 3H. 3H. 3H. 3H. 3H. 3H. 3H. 3H. 3H. 3H. 3H. 3 2F. 2F. 2F. 2F. 2F. 2F. 2F. 2F. 2F. 2F. 2F. 2F. 2F. 2F. 2F. 2F. 2F. 2F. 2F. 2F. 2F. 2F. 2F. 2F. 2F. 2F. 2F. 2F. 2F. 2. 2J. 2J. 2J. 2J. 2J. 2J. 2J. 2J. 2J. 2J. 2J. 2J. 2J. 2J. 2J. 2J. 2J. 2J. 2J. 2J. 2J. 2J. 2J. 2J. 2J. 2J. 2J. 2J. 2J.  >O. >O. >O. >O. >O. >O. >O. >O. >O. >O. >O. >O. >O. >O. >O. >O. >O. >O. >O. >O. >O. >O. >O. >O. >O. >O. >O. >O. >O. >. >Q. >Q. >Q. >Q. >Q. >Q. >Q. >Q. >Q. >Q. >Q. >Q. >Q. >Q. >Q. >Q. >Q. >Q. >Q. >Q. >Q. >Q. >Q. >Q. >Q. >Q. >Q. >Q. >Q.  :R+ :R+ :R+ :R+ :R+ :R+ :R+ :R+ :R+ :R+ :R+ :R+ :R+ :R+ :R+ :R+ :R+ :R+ :R+ :R+ :R+ :R+ :R+ :R+ :R+ :R+ :R+ :R+ :R+ :+ :O+ :O+ :O+ :O+ :O+ :O+ :O+ :O+ :O+ :O+ :O+ :O+ :O+ :O+ :O+ :O+ :O+ :O+ :O+ :O+ :O+ :O+ :O+ :O+ :O+ :O+ :O+ :O+ :O+  7L0 7L0 7L0 7L0 7L0 7L0 7L0 7L0 7L0 7L0 7L0 7L0 7L0 7L0 7L0 7L0 7L0 7L0 7L0 7L0 7L0 7L0 7L0 7L0 7L0 7L0 7L0 7L0 7L0 L0 5L0 5L0 5L0 5L0 5L0 5L0 5L0 5L0 5L0 5L0 5L0 5L0 5L0 5L0 5L0 5L0 5L0 5L0 5L0 5L0 5L0 5L0 5L0 5L0 5L0 5L0 5L0 5L0 5L0  7M. 7M. 7M. 7M. 7M. 7M. 7M. 7M. 7M. 7M. 7M. 7M. 7M. 7M. 7. 7L. 7L. 7L. 7L. 7L. 7L. 7L. 7L. 7L. 7L. 7L. 7L. 7L. 7L. . 9M. 9M. 9M. 9M. 9M. 9M. 9M. 9M. 9M. 9M. 9M. 9M. 9M. 9M. 9. 9L. 9L. 9L. 9L. 9L. 9L. 9L. 9L. 9L. 9L. 9L. 9L. 9L. 9L.  :M0 :M0 :M0 :M0 :M0 :M0 :M0 :M0 :M0 :M0 :M0 :M0 :M0 :M0 :0 :L0 :L0 :L0 :L0 :L0 :L0 :L0 :L0 :L0 :L0 :L0 :L0 :L0 :L0 0 7J0 7J0 7J0 7J0 7J0 7J0 7J0 7J0 7J0 7J0 7J0 7J0 7J0 7J0 70 7L0 7L0 7L0 7L0 7L0 7L0 7L0 7L0 7L0 7L0 7L0 7L0 7L0 7L0  9M) 9M) 9M) 9M) 9M) 9M) 9M) 9M) 9M) 9M) 9M) 9M) 9M) 9M) 9M) 9M) 9M) 9M) 9M) 9M) 9M) 9M) 9M) 9M) 9M) 9M) 9M) 9M) 9M) M) :M) :M) :M) :M) :M) :M) :M) :M) :M) :M) :M) :M) :M) :M) :M) :M) :M) :M) :M) :M) :M) :M) :M) :M) :M) :M) :M) :M) :M) M <M) <M) <M) <M) <M) <M) <M) <M) <M) <M) <M) <M) <M) <M) <M) <M) <M) <M) <M) <M) <M) <M) <M) <M) <M) <M) <M) <M) <M) M) 9M) 9M) 9M) 9M) 9M) 9M) 9M) 9M) 9M) 9M) 9M) 9M) 9M) 9M) 9M) 9M) 9M) 9M) 9M) 9M) 9M) 9M) 9M) 9M) 9M) 9M) 9M) 9M) 9M)  5) 5) 5) 5) 5) 5) 5) 5) 5) 5) 5) 5) 5) 5) 5) 5) 5) 5) 5) 5) 5) 5) 5) 5) 5) 5) 5) 5) 5) ) 9) 9) 9) 9) 9) 9) 9) 9) 9) 9) 9) 9) 9) 9) 9) 9) 9) 9) 9) 9) 9) 9) 9) 9) 9) 9) 9) 9) 9)  5) 5) 5) 5) 5) 5) 5) 5) 5) 5) 5) 5) 5) 5) 5) 5) 5) 5) 5) 5) 5) 5) 5) 5) 5) 5) 5) 5) 5) ) 9) 9) 9) 9) 9) 9) 9) 9) 9) 9) 9) 9) 9) 9) 9) 9) 9) 9) 9) 9) 9) 9) 9) 9) 9) 9) 9) 9) 9)  <M) <M) <M) <M) <M) <M) <M) <M) <M) <M) <M) <M) <M) <M) <M) <M) <M) <M) <M) <M) <M) <M) <M) <M) <M) <M) <M) <M) <M) M) 9M) 9M) 9M) 9M) 9M) 9M) 9M) 9M) 9M) 9M) 9M) 9M) 9M) 9M) 9M) 9M) 9M) 9M) 9M) 9M) 9M) 9M) 9M) 9M) 9M) 9M) 9M) 9M) 9M)  5K) 5K) 5K) 5K) 5K) 5K) 5K) 5K) 5K) 5K) 5K) 5K) 5K) 5K) 5K) 5K) 5K) 5K) 5K) 5K) 5K) 5K) 5K) 5K) 5K) 5K) 5K) 5K) 5K) K) 9K) 9K) 9K) 9K) 9K) 9K) 9K) 9K) 9K) 9K) 9K) 9K) 9K) 9K) 9K) 9K) 9K) 9K) 9K) 9K) 9K) 9K) 9K) 9K) 9K) 9K) 9K) 9K) 9K)  5K) 5K) 5K) 5K) 5K) 5K) 5K) 5K) 5K) 5K) 5K) 5K) 5K) 5K) 5K) 5K) 5K) 5K) 5K) 5K) 5K) 5K) 5K) 5K) 5K) 5K) 5K) 5K) 5K) K) :J) :J) :J) :J) :J) :J) :J) :J) :J) :J) :J) :J) :J) :J) :J) :J) :J) :J) :J) :J) :J) :J) :J) :J) :J) :J) :J) :J) :J) J >J) >J) >J) >J) >J) >J) >J) >J) >J) >J) >J) >J) >J) >J) >J) >J) >J) >J) >J) >J) >J) >J) >J) >J) >J) >J) >J) >J) >J) J) :J) :J) :J) :J) :J) :J) :J) :J) :J) :J) :J) :J) :J) :J) :J) :J) :J) :J) :J) :J) :J) :J) :J) :J) :J) :J) :J) :J) :J) J 5J) 5J) 5J) 5J) 5J) 5J) 5J) 5J) 5J) 5J) 5J) 5J) 5J) 5J) 5J) 5J) 5J) 5J) 5J) 5J) 5J) 5J) 5J) 5J) 5J) 5J) 5J) 5J) 5J) J) :J) :J) :J) :J) :J) :J) :J) :J) :J) :J) :J) :J) :J) :J) :J) :J) :J) :J) :J) :J) :J) :J) :J) :J) :J) :J) :J) :J) :J) J 5J) 5J) 5J) 5J) 5J) 5J) 5J) 5J) 5J) 5J) 5J) 5J) 5J) 5J) 5J) 5J) 5J) 5J) 5J) 5J) 5J) 5J) 5J) 5J) 5J) 5J) 5J) 5J) 5J) J) :J) :J) :J) :J) :J) :J) :J) :J) :J) :J) :J) :J) :J) :J) :J) :J) :J) :J) :J) :J) :J) :J) :J) :J) :J) :J) :J) :J) :J) J >M) >M) >M) >M) >M) >M) >M) >M) >M) >M) >M) >M) >M) >M) >M) >M) >M) >M) >M) >M) >M) >M) >M) >M) >M) >M) >M) >M) >M) ) :L) :L) :L) :L) :L) :L) :L) :L) :L) :L) :L) :L) :L) :L) :L) :L) :L) :L) :L) :L) :L) :L) :L) :L) :L) :L) :L) :L) :L)  5M) 5M) 5M) 5M) 5M) 5M) 5M) 5M) 5M) 5M) 5M) 5M) 5M) 5M) 5M) 5M) 5M) 5M) 5M) 5M) 5M) 5M) 5M) 5M) 5M) 5M) 5M) 5M) 5M) ) :O) :O) :O) :O) :O) :O) :O) :O) :O) :O) :O) :O) :O) :O) :O) :O) :O) :O) :O) :O) :O) :O) :O) :O) :O) :O) :O) :O) :O)  5H) 5H) 5H) 5H) 5H) 5H) 5H) 5H) 5H) 5H) 5H) 5H) 5H) 5H) 5H) 5H) 5H) 5H) 5H) 5H) 5H) 5H) 5H) 5H) 5H) 5H) 5H) 5H) 5H) H) :H) :H) :H) :H) :H) :H) :H) :H) :H) :H) :H) :H) :H) :H) :H) :H) :H) :H) :H) :H) :H) :H) :H) :H) :H) :H) :H) :H) :H) H <H) <H) <H) <H) <H) <H) <H) <H) <H) <H) <H) <H) <H) <H) <H) <H) <H) <H) <H) <H) <H) <H) <H) <H) <H) <H) <H) <H) <H) H) :H) :H) :H) :H) :H) :H) :H) :H) :H) :H) :H) :H) :H) :H) :H) :H) :H) :H) :H) :H) :H) :H) :H) :H) :H) :H) :H) :H) :H) H 5H) 5H) 5H) 5H) 5H) 5H) 5H) 5H) 5H) 5H) 5H) 5H) 5H) 5H) 5H) 5H) 5H) 5H) 5H) 5H) 5H) 5H) 5H) 5H) 5H) 5H) 5H) 5H) 5H) H) :H) :H) :H) :H) :H) :H) :H) :H) :H) :H) :H) :H) :H) :H) :H) :H) :H) :H) :H) :H) :H) :H) :H) :H) :H) :H) :H) :H) :H) H 5H) 5H) 5H) 5H) 5H) 5H) 5H) 5H) 5H) 5H) 5H) 5H) 5H) 5H) 5H) 5H) 5H) 5H) 5H) 5H) 5H) 5H) 5H) 5H) 5H) 5H) 5H) 5H) 5H) H) 9H) 9H) 9H) 9H) 9H) 9H) 9H) 9H) 9H) 9H) 9H) 9H) 9H) 9H) 9H) 9H) 9H) 9H) 9H) 9H) 9H) 9H) 9H) 9H) 9H) 9H) 9H) 9H) 9H)  <M) <M) <M) <M) <M) <M) <M) <M) <M) <M) <M) <M) <M) <M) <M) <M) <M) <M) <M) <M) <M) <M) <M) <M) <M) <M) <M) <M) <M) M) 9M) 9M) 9M) 9M) 9M) 9M) 9M) 9M) 9M) 9M) 9M) 9M) 9M) 9M) 9M) 9M) 9M) 9M) 9M) 9M) 9M) 9M) 9M) 9M) 9M) 9M) 9M) 9M) 9M)  5L) 5L) 5L) 5L) 5L) 5L) 5L) 5L) 5L) 5L) 5L) 5L) 5L) 5L) 5L) 5L) 5L) 5L) 5L) 5L) 5L) 5L) 5L) 5L) 5L) 5L) 5L) 5L) 5L) ) 9J) 9J) 9J) 9J) 9J) 9J) 9J) 9J) 9J) 9J) 9J) 9J) 9J) 9J) 9J) 9J) 9J) 9J) 9J) 9J) 9J) 9J) 9J) 9J) 9J) 9J) 9J) 9J) 9J)  2H) 2H) 2H) 2H) 2H) 2H) 2H) 2H) 2H) 2H) 2H) 2H) 2H) 2H) 2H) 2H) 2H) 2H) 2H) 2H) 2H) 2H) 2H) 2H) 2H) 2H) 2H) 2H) 2H) H) 7F) 7F) 7F) 7F) 7F) 7F) 7F) 7F) 7F) 7F) 7F) 7F) 7F) 7F) 7F) 7F) 7F) 7F) 7F) 7F) 7F) 7F) 7F) 7F) 7F) 7F) 7F) 7F) 7F) F :F) :F) :F) :F) :F) :F) :F) :F) :F) :F) :F) :F) :F) :F) :F) :F) :F) :F) :F) :F) :F) :F) :F) :F) :F) :F) :F) :F) :F) F) 7F) 7F) 7F) 7F) 7F) 7F) 7F) 7F) 7F) 7F) 7F) 7F) 7F) 7F) 7F) 7F) 7F) 7F) 7F) 7F) 7F) 7F) 7F) 7F) 7F) 7F) 7F) 7F) 7F) F 2F) 2F) 2F) 2F) 2F) 2F) 2F) 2F) 2F) 2F) 2F) 2F) 2F) 2F) 2F) 2F) 2F) 2F) 2F) 2F) 2F) 2F) 2F) 2F) 2F) 2F) 2F) 2F) 2F) F) 7F) 7F) 7F) 7F) 7F) 7F) 7F) 7F) 7F) 7F) 7F) 7F) 7F) 7F) 7F) 7F) 7F) 7F) 7F) 7F) 7F) 7F) 7F) 7F) 7F) 7F) 7F) 7F) 7F) F 4F) 4F) 4F) 4F) 4F) 4F) 4F) 4F) 4F) 4F) 4F) 4F) 4F) 4F) 4F) 4F) 4F) 4F) 4F) 4F) 4F) 4F) 4F) 4F) 4F) 4F) 4F) 4F) 4F) F) 7F) 7F) 7F) 7F) 7F) 7F) 7F) 7F) 7F) 7F) 7F) 7F) 7F) 7F) 7F) 7F) 7F) 7F) 7F) 7F) 7F) 7F) 7F) 7F) 7F) 7F) 7F) 7F) 7F) F :F) :F) :F) :F) :F) :F) :F) :F) :F) :F) :F) :F) :F) :F) :F) :F) :F) :F) :F) :F) :F) :F) :F) :F) :F) :F) :F) :F) :F) F) 7F) 7F) 7F) 7F) 7F) 7F) 7F) 7F) 7F) 7F) 7F) 7F) 7F) 7F) 7F) 7F) 7F) 7F) 7F) 7F) 7F) 7F) 7F) 7F) 7F) 7F) 7F) 7F) 7F) F 4E) 4E) 4E) 4E) 4E) 4E) 4E) 4E) 4E) 4E) 4E) 4E) 4E) 4E) 4E) 4E) 4E) 4E) 4E) 4E) 4E) 4E) 4E) 4E) 4E) 4E) 4E) 4E) 4E) E) 7F) 7F) 7F) 7F) 7F) 7F) 7F) 7F) 7F) 7F) 7F) 7F) 7F) 7F) 7F) 7F) 7F) 7F) 7F) 7F) 7F) 7F) 7F) 7F) 7F) 7F) 7F) 7F) 7F) F 5E) 5E) 5E) 5E) 5E) 5E) 5E) 5E) 5E) 5E) 5E) 5E) 5E) 5E) 5E) 5E) 5E) 5E) 5E) 5E) 5E) 5E) 5E) 5E) 5E) 5E) 5E) 5E) 5E) E) 9E) 9E) 9E) 9E) 9E) 9E) 9E) 9E) 9E) 9E) 9E) 9E) 9E) 9E) 9E) 9E) 9E) 9E) 9E) 9E) 9E) 9E) 9E) 9E) 9E) 9E) 9E) 9E) 9E)  >Q5 >Q5 >Q5 >Q5 >Q5 >Q5 >Q5 >Q5 >Q5 >Q5 >Q5 >Q5 >Q5 >Q5 >Q5 >Q5 >Q5 >Q5 >Q5 >Q5 >Q5 >Q5 >Q5 >Q5 >Q5 >Q5 >Q5 >Q5 >Q5 Q5 @Q5 @Q5 @Q5 @Q5 @Q5 @Q5 @Q5 @Q5 @Q5 @Q5 @Q5 @Q5 @Q5 @Q5 @Q5 @Q5 @Q5 @Q5 @Q5 @Q5 @Q5 @Q5 @Q5 @Q5 @Q5 @Q5 @Q5 @Q5 @Q5  AM2 AM2 AM2 AM2 AM2 AM2 AM2 AM2 AM2 AM2 AM2 AM2 AM2 AM2 AM2 AM2 AM2 AM2 AM2 AM2 AM2 AM2 AM2 AM2 AM2 AM2 AM2 AM2 AM2 M2 >M2 >M2 >M2 >M2 >M2 >M2 >M2 >M2 >M2 >M2 >M2 >M2 >M2 >M2 >M2 >M2 >M2 >M2 >M2 >M2 >M2 >M2 >M2 >M2 >M2 >M2 >M2 >M2 >M2  ;J7 ;J7 ;J7 ;J7 ;J7 ;J7 ;J7 ;J7 ;J7 ;J7 ;J7 ;J7 ;J7 ;J7 ;J7 ;J7 ;J7 ;J7 ;J7 ;J7 ;J7 ;J7 ;J7 ;J7 ;J7 ;J7 ;J7 ;J7 ;J7 ;7 ;H7 ;H7 ;H7 ;H7 ;H7 ;H7 ;H7 ;H7 ;H7 ;H7 ;H7 ;H7 ;H7 ;H7 ;H7 ;H7 ;H7 ;H7 ;H7 ;H7 ;H7 ;H7 ;H7 ;H7 ;H7 ;H7 ;H7 ;H7 ;H7  <J5 <J5 <J5 <J5 <J5 <J5 <J5 <J5 <J5 <J5 <J5 <J5 <J5 <J5 J5 ;J5 ;J5 ;J5 ;J5 ;J5 ;J5 ;J5 ;J5 ;J5 ;J5 ;J5 ;J5 ;J5 ;J5 5 <L5 <L5 <L5 <L5 <L5 <L5 <L5 <L5 <L5 <L5 <L5 <L5 <L5 <L5 L5 ;L5 ;L5 ;L5 ;L5 ;L5 ;L5 ;L5 ;L5 ;L5 ;L5 ;L5 ;L5 ;L5 ;L5  <M7 <M7 <M7 <M7 <M7 <M7 <M7 <M7 <M7 <M7 <M7 <M7 <M7 <M7 M7 ;M7 ;M7 ;M7 ;M7 ;M7 ;M7 ;M7 ;M7 ;M7 ;M7 ;M7 ;M7 ;M7 ;M7 7 9J7 9J7 9J7 9J7 9J7 9J7 9J7 9J7 9J7 9J7 9J7 9J7 9J7 9J7 J7 ;J7 ;J7 ;J7 ;J7 ;J7 ;J7 ;J7 ;J7 ;J7 ;J7 ;J7 ;J7 ;J7 ;J7  <L0 <L0 <L0 <L0 <L0 <L0 <L0 <L0 <L0 <L0 <L0 <L0 <L0 <L0 <L0 <L0 <L0 <L0 <L0 <L0 <L0 <L0 <L0 <L0 <L0 <L0 <L0 <L0 <L0 <0 <O0 <O0 <O0 <O0 <O0 <O0 <O0 <O0 <O0 <O0 <O0 <O0 <O0 <O0 <O0 <O0 <O0 <O0 <O0 <O0 <O0 <O0 <O0 <O0 <O0 <O0 <O0 <O0 <O0  ?Q0 ?Q0 ?Q0 ?Q0 ?Q0 ?Q0 ?Q0 ?Q0 ?Q0 ?Q0 ?Q0 ?Q0 ?Q0 ?Q0 ?Q0 ?Q0 ?Q0 ?Q0 ?Q0 ?Q0 ?Q0 ?Q0 ?Q0 ?Q0 ?Q0 ?Q0 ?Q0 ?Q0 ?Q0 ?0 ?R0 ?R0 ?R0 ?R0 ?R0 ?R0 ?R0 ?R0 ?R0 ?R0 ?R0 ?R0 ?R0 ?R0 ?R0 ?R0 ?R0 ?R0 ?R0 ?R0 ?R0 ?R0 ?R0 ?R0 ?R0 ?R0 ?R0 ?R0 ?R0  <T- <T- <T- <T- <T- <T- <T- <T- <T- <T- <T- <T- <T- <T- <T- <T- <T- <T- <T- <T- <T- <T- <T- <T- <T- <T- <T- <T- <T- <- <Q- <Q- <Q- <Q- <Q- <Q- <Q- <Q- <Q- <Q- <Q- <Q- <Q- <Q- <Q- <Q- <Q- <Q- <Q- <Q- <Q- <Q- <Q- <Q- <Q- <Q- <Q- <Q- <Q-  9N2 9N2 9N2 9N2 9N2 9N2 9N2 9N2 9N2 9N2 9N2 9N2 9N2 9N2 9N2 9N2 9N2 9N2 9N2 9N2 9N2 9N2 9N2 9N2 9N2 9N2 9N2 9N2 9N2 N2 7N2 7N2 7N2 7N2 7N2 7N2 7N2 7N2 7N2 7N2 7N2 7N2 7N2 7N2 7N2 7N2 7N2 7N2 7N2 7N2 7N2 7N2 7N2 7N2 7N2 7N2 7N2 7N2 7N2  9O0 9O0 9O0 9O0 9O0 9O0 9O0 9O0 9O0 9O0 9O0 9O0 9O0 9O0 90 9N0 9N0 9N0 9N0 9N0 9N0 9N0 9N0 9N0 9N0 9N0 9N0 9N0 9N0 0 :O0 :O0 :O0 :O0 :O0 :O0 :O0 :O0 :O0 :O0 :O0 :O0 :O0 :O0 :0 :N0 :N0 :N0 :N0 :N0 :N0 :N0 :N0 :N0 :N0 :N0 :N0 :N0 :N0  <O2 <O2 <O2 <O2 <O2 <O2 <O2 <O2 <O2 <O2 <O2 <O2 <O2 <O2 <2 <N2 <N2 <N2 <N2 <N2 <N2 <N2 <N2 <N2 <N2 <N2 <N2 <N2 <N2 2 9L2 9L2 9L2 9L2 9L2 9L2 9L2 9L2 9L2 9L2 9L2 9L2 9L2 9L2 92 9N2 9N2 9N2 9N2 9N2 9N2 9N2 9N2 9N2 9N2 9N2 9N2 9N2 9N2  :O+ :O+ :O+ :O+ :O+ :O+ :O+ :O+ :O+ :O+ :O+ :O+ :O+ :O+ :O+ :O+ :O+ :O+ :O+ :O+ :O+ :O+ :O+ :O+ :O+ :O+ :O+ :O+ :O+ O+ >O+ >O+ >O+ >O+ >O+ >O+ >O+ >O+ >O+ >O+ >O+ >O+ >O+ >O+ >O+ >O+ >O+ >O+ >O+ >O+ >O+ >O+ >O+ >O+ >O+ >O+ >O+ >O+ >O+  @R7 @R7 @R7 @R7 @R7 @R7 @R7 @R7 @R7 @R7 @R7 @R7 @R7 @R7 @R7 @R7 @R7 @R7 @R7 @R7 @R7 @R7 @R7 @R7 @R7 @R7 @R7 @R7 @R7 R7 AR7 AR7 AR7 AR7 AR7 AR7 AR7 AR7 AR7 AR7 AR7 AR7 AR7 AR7 AR7 AR7 AR7 AR7 AR7 AR7 AR7 AR7 AR7 AR7 AR7 AR7 AR7 AR7 AR7  CO4 CO4 CO4 CO4 CO4 CO4 CO4 CO4 CO4 CO4 CO4 CO4 CO4 CO4 CO4 CO4 CO4 CO4 CO4 CO4 CO4 CO4 CO4 CO4 CO4 CO4 CO4 CO4 CO4 O4 @O4 @O4 @O4 @O4 @O4 @O4 @O4 @O4 @O4 @O4 @O4 @O4 @O4 @O4 @O4 @O4 @O4 @O4 @O4 @O4 @O4 @O4 @O4 @O4 @O4 @O4 @O4 @O4 @O4  =L9 =L9 =L9 =L9 =L9 =L9 =L9 =L9 =L9 =L9 =L9 =L9 =L9 =L9 =L9 =L9 =L9 =L9 =L9 =L9 =L9 =L9 =L9 =L9 =L9 =L9 =L9 =L9 =L9 =9 =J9 =J9 =J9 =J9 =J9 =J9 =J9 =J9 =J9 =J9 =J9 =J9 =J9 =J9 =J9 =J9 =J9 =J9 =J9 =J9 =J9 =J9 =J9 =J9 =J9 =J9 =J9 =J9 =J9  >L7 >L7 >L7 >L7 >L7 >L7 >L7 >L7 >L7 >L7 >L7 >L7 >L7 >L7 L7 =L7 =L7 =L7 =L7 =L7 =L7 =L7 =L7 =L7 =L7 =L7 =L7 =L7 =L7 7 >M7 >M7 >M7 >M7 >M7 >M7 >M7 >M7 >M7 >M7 >M7 >M7 >M7 >M7 M7 =M7 =M7 =M7 =M7 =M7 =M7 =M7 =M7 =M7 =M7 =M7 =M7 =M7 =M7  >O9 >O9 >O9 >O9 >O9 >O9 >O9 >O9 >O9 >O9 >O9 >O9 >O9 >O9 O9 =O9 =O9 =O9 =O9 =O9 =O9 =O9 =O9 =O9 =O9 =O9 =O9 =O9 =O9 9 ;L9 ;L9 ;L9 ;L9 ;L9 ;L9 ;L9 ;L9 ;L9 ;L9 ;L9 ;L9 ;L9 ;L9 L9 =L9 =L9 =L9 =L9 =L9 =L9 =L9 =L9 =L9 =L9 =L9 =L9 =L9 =L9  >M2 >M2 >M2 >M2 >M2 >M2 >M2 >M2 >M2 >M2 >M2 >M2 >M2 >M2 >M2 >M2 >M2 >M2 >M2 >M2 >M2 >M2 >M2 >M2 >M2 >M2 >M2 >M2 >M2 >M >M1 >M1 >M1 >M1 >M1 >M1 >M1 >M1 >M1 >M1 >M1 >M1 >M1 >M1 >M1 >M1 >M1 >M1 >M1 >M1 >M1 >M1 >M1 >M1 >M1 >M1 >M1 >M1 >M1 > >Q2 >Q2 >Q2 >Q2 >Q2 >Q2 >Q2 >Q2 >Q2 >Q2 >Q2 >Q2 >Q2 >Q2 >Q2 >Q2 >Q2 >Q2 >Q2 >Q2 >Q2 >Q2 >Q2 >Q2 >Q2 >Q2 >Q2 >Q2 >Q2 >Q >Q4 >Q4 >Q4 >Q4 >Q4 >Q4 >Q4 >Q4 >Q4 >Q4 >Q4 >Q4 >Q4 >Q4 >Q4 >Q4 >Q4 >Q4 >Q4 >Q4 >Q4 >Q4 >Q4 >Q4 >Q4 >Q4 >Q4 >Q4 >Q4 Q <Q5 <Q5 <Q5 <Q5 <Q5 <Q5 <Q5 <Q5 <Q5 <Q5 <Q5 <Q5 <Q5 <Q5 <Q5 <Q5 <Q5 <Q5 <Q5 <Q5 <Q5 <Q5 <Q5 <Q5 <Q5 <Q5 <Q5 <Q5 <Q5 <Q <Q2 <Q2 <Q2 <Q2 <Q2 <Q2 <Q2 <Q2 <Q2 <Q2 <Q2 <Q2 <Q2 <Q2 <Q2 <Q2 <Q2 <Q2 <Q2 <Q2 <Q2 <Q2 <Q2 <Q2 <Q2 <Q2 <Q2 <Q2 <Q2 Q ;Q7 ;Q7 ;Q7 ;Q7 ;Q7 ;Q7 ;Q7 ;Q7 ;Q7 ;Q7 ;Q7 ;Q7 ;Q7 ;Q7 ;Q7 ;Q7 ;Q7 ;Q7 ;Q7 ;Q7 ;Q7 ;Q7 ;Q7 ;Q7 ;Q7 ;Q7 ;Q7 ;Q7 ;Q7 ;Q ;Q5 ;Q5 ;Q5 ;Q5 ;Q5 ;Q5 ;Q5 ;Q5 ;Q5 ;Q5 ;Q5 ;Q5 ;Q5 ;Q5 ;Q5 ;Q5 ;Q5 ;Q5 ;Q5 ;Q5 ;Q5 ;Q5 ;Q5 ;Q5 ;Q5 ;Q5 ;Q5 ;Q5 ;Q5  @O7 @O7 @O7 @O7 @O7 @O7 @O7 @O7 @O7 @O7 @O7 @O7 @O7 @O7 @O7 @O7 @O7 @O7 @O7 @O7 @O7 @O7 @O7 @O7 @O7 @O7 @O7 @O7 @O7 @O @O9 @O9 @O9 @O9 @O9 @O9 @O9 @O9 @O9 @O9 @O9 @O9 @O9 @O9 @O9 @O9 @O9 @O9 @O9 @O9 @O9 @O9 @O9 @O9 @O9 @O9 @O9 @O9 @O9 O >O: >O: >O: >O: >O: >O: >O: >O: >O: >O: >O: >O: >O: >O: >O: >O: >O: >O: >O: >O: >O: >O: >O: >O: >O: >O: >O: >O: >O: >O >O7 >O7 >O7 >O7 >O7 >O7 >O7 >O7 >O7 >O7 >O7 >O7 >O7 >O7 >O7 >O7 >O7 >O7 >O7 >O7 >O7 >O7 >O7 >O7 >O7 >O7 >O7 >O7 >O7  =9 =9 =9 =9 =9 =9 =9 =9 =9 =9 =9 =9 =9 =9 =9 =9 =9 =9 =9 =9 =9 =9 =9 =9 =9 =9 =9 =9 =9 =9 =M9 =M9 =M9 =M9 =M9 =M9 =M9 =M9 =M9 =M9 =M9 =M9 =M9 =M9 =M9 =M9 =M9 =M9 =M9 =M9 =M9 =M9 =M9 =M9 =M9 =M9 =M9 =M9 =M9 = =L- =L- =L- =L- =L- =L- =L- =L- =L- =L- =L- =L- =L- =L- =L- =L- =L- =L- =L- =L- =L- =L- =L- =L- =L- =L- =L- =L- =L- - @O- @O- @O- @O- @O- @O- @O- @O- @O- @O- @O- @O- @O- @O- @O- @O- @O- @O- @O- @O- @O- @O- @O- @O- @O- @O- @O- @O- @O-  >M- >M- >M- >M- >M- >M- >M- >M- >M- >M- >M- >M- >M- >M- >M- >M- >M- >M- >M- >M- >M- >M- >M- >M- >M- >M- >M- >M- >M- - AQ- AQ- AQ- AQ- AQ- AQ- AQ- AQ- AQ- AQ- AQ- AQ- AQ- AQ- AQ- AQ- AQ- AQ- AQ- AQ- AQ- AQ- AQ- AQ- AQ- AQ- AQ- AQ- AQ-  @O- @O- @O- @O- @O- @O- @O- @O- @O- @O- @O- @O- @O- @O- @O- @O- @O- @O- @O- @O- @O- @O- @O- @O- @O- @O- @O- @O- @O- - >M- >M- >M- >M- >M- >M- >M- >M- >M- >M- >M- >M- >M- >M- >M- >M- >M- >M- >M- >M- >M- >M- >M- >M- >M- >M- >M- >M- >M-  @O- @O- @O- @O- @O- @O- @O- @O- @O- @O- @O- @O- @O- @O- @O- @O- @O- @O- @O- @O- @O- @O- @O- @O- @O- @O- @O- @O- @O- @- @R- @R- @R- @R- @R- @R- @R- @R- @R- @R- @R- @R- @R- @R- @R- @R- @R- @R- @R- @R- @R- @R- @R- @R- @R- @R- @R- @R- @R- @ @Q- @Q- @Q- @Q- @Q- @Q- @Q- @Q- @Q- @Q- @Q- @Q- @Q- @Q- @Q- @Q- @Q- @Q- @Q- @Q- @Q- @Q- @Q- @Q- @Q- @Q- @Q- @Q- @Q- @- @O- @O- @O- @O- @O- @O- @O- @O- @O- @O- @O- @O- @O- @O- @O- @O- @O- @O- @O- @O- @O- @O- @O- @O- @O- @O- @O- @O- @O- @ @M& @M& @M& @M& @M& @M& @M& @M& @M& @M& @M& @M& @M& @M& @M& @M& @M& @M& @M& @M& @M& @M& @M& @M& @M& @M& @M& @M& @M& @& @L& @L& @L& @L& @L& @L& @L& @L& @L& @L& @L& @L& @L& @L& @L& @L& @L& @L& @L& @L& @L& @L& @L& @L& @L& @L& @L& @L& @L&  >M2 >M2 >M2 >M2 >M2 >M2 >M2 >M2 >M2 >M2 >M2 >M2 >M2 >M2 >M2 >M2 >M2 >M2 >M2 >M2 >M2 >M2 >M2 >M2 >M2 >M2 >M2 >M2 >M2 2 <Q2 <Q2 <Q2 <Q2 <Q2 <Q2 <Q2 <Q2 <Q2 <Q2 <Q2 <Q2 <Q2 <Q2 <Q2 <Q2 <Q2 <Q2 <Q2 <Q2 <Q2 <Q2 <Q2 <Q2 <Q2 <Q2 <Q2 <Q2 <Q2  :V2 :V2 :V2 :V2 :V2 :V2 :V2 :V2 :V2 :V2 :V2 :V2 :V2 :V2 :V2 :V2 :V2 :V2 :V2 :V2 :V2 :V2 :V2 :V2 :V2 :V2 :V2 :V2 :V2 V2 9V2 9V2 9V2 9V2 9V2 9V2 9V2 9V2 9V2 9V2 9V2 9V2 9V2 9V2 9V2 9V2 9V2 9V2 9V2 9V2 9V2 9V2 9V2 9V2 9V2 9V2 9V2 9V2 9V2 V 7V4 7V4 7V4 7V4 7V4 7V4 7V4 7V4 7V4 7V4 7V4 7V4 7V4 7V4 7V4 7V4 7V4 7V4 7V4 7V4 7V4 7V4 7V4 7V4 7V4 7V4 7V4 7V4 7V4 V 5V2 5V2 5V2 5V2 5V2 5V2 5V2 5V2 5V2 5V2 5V2 5V2 5V2 5V2 5V2 5V2 5V2 5V2 5V2 5V2 5V2 5V2 5V2 5V2 5V2 5V2 5V2 5V2 5V2  7U4 7U4 7U4 7U4 7U4 7U4 7U4 7U4 7U4 7U4 7U4 7U4 7U4 7U4 7U4 7U4 7U4 7U4 7U4 74 7V4 7V4 7V4 7V4 7V4 7V4 7V4 7V4 7V4 V 9V5 9V5 9V5 9V5 9V5 9V5 9V5 9V5 9V5 95 9U5 9U5 9U5 9U5 9U5 9U5 9U5 9U5 9U5 9U5 9U5 9U5 9U5 9U5 9U5 9U5 9U5 9U5 9U5  :V7 :V7 :V7 :V7 :V7 :V7 :V7 :V7 :V7 :V7 :V7 :V7 :V7 :V7 :7 :U7 :U7 :U7 :U7 :U7 :U7 :U7 :U7 :U7 :U7 :U7 :U7 :U7 :U7  7S4 7S4 7S4 7S4 7S4 7S4 7S4 7S4 7S4 7S4 7S4 7S4 7S4 7S4 74 7U4 7U4 7U4 7U4 7U4 7U4 7U4 7U4 7U4 7U4 7U4 7U4 7U4 7U4  9V5 9V5 9V5 9V5 9V5 9V5 9V5 9V5 9V5 9V5 9V5 9V5 9V5 9V5 9V5 9V5 9V5 9V5 9V5 9V5 9V5 9V5 9V5 9V5 9V5 9V5 9V5 9V5 9V5 9V 9V4 9V4 9V4 9V4 9V4 9V4 9V4 9V4 9V4 9V4 9V4 9V4 9V4 9V4 9V4 9V4 9V4 9V4 9V4 9V4 9V4 9V4 9V4 9V4 9V4 9V4 9V4 9V4 9V4 9 9Q2 9Q2 9Q2 9Q2 9Q2 9Q2 9Q2 9Q2 9Q2 9Q2 9Q2 9Q2 9Q2 9Q2 9Q2 9Q2 9Q2 9Q2 9Q2 9Q2 9Q2 9Q2 9Q2 9Q2 9Q2 9Q2 9Q2 9Q2 9Q2 9Q 9Q5 9Q5 9Q5 9Q5 9Q5 9Q5 9Q5 9Q5 9Q5 9Q5 9Q5 9Q5 9Q5 9Q5 9Q5 9Q5 9Q5 9Q5 9Q5 9Q5 9Q5 9Q5 9Q5 9Q5 9Q5 9Q5 9Q5 9Q5 9Q5  I4 I4 I4 I4 I4 I4 I4 I4 I4 I4 I4 I4 I4 I4 I4 I4 I4 I4 I4 I4 I4 I4 I4 I4 I4 I4 I4 I4 I4 I I7 I7 I7 I7 I7 I7 I7 I7 I7 I7 I7 I7 I7 I7 I7 I7 I7 I7 I7 I7 I7 I7 I7 I7 I7 I7 I7 I7 I7  I5 I5 I5 I5 I5 I5 I5 I5 I5 I5 I5 I5 I5 I5 I5 I5 I5 I5 I5 I5 I5 I5 I5 I5 I5 I5 I5 I5 I5  J4 J4 J4 J4 J4 J4 J4 J4 J4 J4 J4 J4 J4 J4 J4 J4 J4 J4 J4 J4 J4 J4 J4 J4 J4 J4 J4 J4 J4 J AJ2 AJ2 AJ2 AJ2 AJ2 AJ2 AJ2 AJ2 AJ2 AJ2 AJ2 AJ2 AJ2 AJ2 AJ2 AJ2 AJ2 AJ2 AJ2 AJ2 AJ2 AJ2 AJ2 AJ2 AJ2 AJ2 AJ2 AJ2 AJ2 AJ AJ4 AJ4 AJ4 AJ4 AJ4 AJ4 AJ4 AJ4 AJ4 AJ4 AJ4 AJ4 AJ4 AJ4 AJ4 AJ4 AJ4 AJ4 AJ4 AJ4 AJ4 AJ4 AJ4 AJ4 AJ4 AJ4 AJ4 AJ4 AJ4 J 9J5 9J5 9J5 9J5 9J5 9J5 9J5 9J5 9J5 9J5 9J5 9J5 9J5 9J5 9J5 9J5 9J5 9J5 9J5 9J5 9J5 9J5 9J5 9J5 9J5 9J5 9J5 9J5 9J5 9J 9J2 9J2 9J2 9J2 9J2 9J2 9J2 9J2 9J2 9J2 9J2 9J2 9J2 9J2 9J2 9J2 9J2 9J2 9J2 9J2 9J2 9J2 9J2 9J2 9J2 9J2 9J2 9J2 9J2 J :J7 :J7 :J7 :J7 :J7 :J7 :J7 :J7 :J7 :J7 :J7 :J7 :J7 :J7 :J7 :J7 :J7 :J7 :J7 :J7 :J7 :J7 :J7 :J7 :J7 :J7 :J7 :J7 :J7 :J :J6 :J6 :J6 :J6 :J6 :J6 :J6 :J6 :J6 :J6 :J6 :J6 :J6 :J6 :J6 :J6 :J6 :J6 :J6 :J6 :J6 :J6 :J6 :J6 :J6 :J6 :J6 :J6 :J6 :J :V7 :V7 :V7 :V7 :V7 :V7 :V7 :V7 :V7 :V7 :V7 :V7 :V7 :V7 :V7 :V7 :V7 :V7 :V7 :V7 :V7 :V7 :V7 :V7 :V7 :V7 :V7 :V7 :V7 :V :V: :V: :V: :V: :V: :V: :V: :V: :V: :V: :V: :V: :V: :V: :V: :V: :V: :V: :V: :V: :V: :V: :V: :V: :V: :V: :V: :V: :V: V N9 N9 N9 N9 N9 N9 N9 N9 N9 N9 N9 N9 N9 N9 N9 N9 N9 N9 N9 N9 N9 N9 N9 N9 N9 N9 N9 N9 N9 N N< N< N< N< N< N< N< N< N< N< N< N< N< N< N< N< N< N< N< N< N< N< N< N< N< N< N< N< N< N N: N: N: N: N: N: N: N: N: N: N: N: N: N: N: N: N: N: N: N: N: N: N: N: N: N: N: N: N:  O9 O9 O9 O9 O9 O9 O9 O9 O9 O9 O9 O9 O9 O9 O9 O9 O9 O9 O9 O9 O9 O9 O9 O9 O9 O9 O9 O9 O9 O FO7 FO7 FO7 FO7 FO7 FO7 FO7 FO7 FO7 FO7 FO7 FO7 FO7 FO7 FO7 FO7 FO7 FO7 FO7 FO7 FO7 FO7 FO7 FO7 FO7 FO7 FO7 FO7 FO7 FO FO9 FO9 FO9 FO9 FO9 FO9 FO9 FO9 FO9 FO9 FO9 FO9 FO9 FO9 FO9 FO9 FO9 FO9 FO9 FO9 FO9 FO9 FO9 FO9 FO9 FO9 FO9 FO9 FO9 O >O: >O: >O: >O: >O: >O: >O: >O: >O: >O: >O: >O: >O: >O: >O: >O: >O: >O: >O: >O: >O: >O: >O: >O: >O: >O: >O: >O: >O: >O >O7 >O7 >O7 >O7 >O7 >O7 >O7 >O7 >O7 >O7 >O7 >O7 >O7 >O7 >O7 >O7 >O7 >O7 >O7 >O7 >O7 >O7 >O7 >O7 >O7 >O7 >O7 >O7 >O7 O @O= @O= @O= @O= @O= @O= @O= @O= @O= @O= @O= @O= @O= @O= @O= @O= @O= @O= @O= @O= @O= @O= @O= @O= @O= @O= @O= @O= @O= @O= @R= @R= @R= @R= @R= @R= @R= @R= @R= @R= @R= @R= @R= @R= @R= @R= @R= @R= @R= @R= @R= @R= @R= @R= @R= @R= @R= @R= @R= @= @Q= @Q= @Q= @Q= @Q= @Q= @Q= @Q= @Q= @Q= @Q= @Q= @Q= @Q= @Q= @Q= @Q= @Q= @Q= @Q= @Q= @Q= @Q= @Q= @Q= @Q= @Q= @Q= @Q=  =O9 =O9 =O9 =O9 =O9 =O9 =O9 =O9 =O9 =O9 =O9 =O9 =O9 =O9 =O9 =O9 =O9 =O9 =O9 =O9 =O9 =O9 =O9 =O9 =O9 =O9 =O9 =O9 =O9  >M> >M> >M> >M> >M> >M> >M> >M> >M> >M> >M> >M> >M> >M> >> >O> >O> >O> >O> >O> >O> >O> >O> >O> >O> >O> >O> >O> >O> >> >Q> >Q> >Q> >Q> >Q> >Q> >Q> >Q> >Q> >Q> >Q> >Q> >Q> >Q> >> >R> >R> >R> >R> >R> >R> >R> >R> >R> >R> >R> >R> >R> >R> >> >Q> >Q> >Q> >Q> >Q> >Q> >Q> >Q> >Q> >Q> >Q> >Q> >Q> >Q> >Q> >Q> >Q> >Q> >Q> >Q> >Q> >Q> >Q> >Q> >Q> >Q> >Q> >Q> >Q>  @O7 @O7 @O7 @O7 @O7 @O7 @O7 @O7 @O7 @O7 @O7 @O7 @O7 @O7 @O7 @O7 @O7 @O7 @O7 @O7 @O7 @O7 @O7 @O7 @O7 @O7 @O7 @O7 @O7  =M9 =M9 =M9 =M9 =M9 =M9 =M9 =M9 =M9 =M9 =M9 =M9 =M9 =M9 =M9 =M9 =M9 =M9 =M9 =M9 =M9 =M9 =M9 =M9 =M9 =M9 =M9 =M9 =M9 =M9 =M9 =M9 =M9 =M9 =M9 =M9 =M9 =M9 =M9 =M9 =M9 =M9 =M9 =M9 =M9 =M9 =M9 =M9 =M9 =M9 =M9 =M9 =M9 =M9 =M9 =M9 =M9 =M9 =M9 = =L- =L- =L- =L- =L- =L- =L- =L- =L- =- =M- =M- =M- =M- =M- =M- =M- =M- =M- =- =L- =L- =L- =L- =L- =L- =L- =L- =L- - >J- >J- >J- >J- >J- >J- >J- >J- >J- >J- >J- >J- >J- >J- >J- >J- >J- >J- >J- >J- >J- >J- >J- >J- >J- >J- >J- >J- >J-  >J2 >J2 >J2 >J2 >J2 >J2 >J2 >J2 >J2 >J2 >J2 >J2 >J2 >J2 >J2 >J2 >J2 >J2 >J2 >J2 >J2 >J2 >J2 >J2 >J2 >J2 >J2 >J2 >J2 J2 @J2 @J2 @J2 @J2 @J2 @J2 @J2 @J2 @J2 @J2 @J2 @J2 @J2 @J2 @J2 @J2 @J2 @J2 @J2 @J2 @J2 @J2 @J2 @J2 @J2 @J2 @J2 @J2 @J2 J AJ9 AJ9 AJ9 AJ9 AJ9 AJ9 AJ9 AJ9 AJ9 AJ9 AJ9 AJ9 AJ9 AJ9 AJ9 AJ9 AJ9 AJ9 AJ9 AJ9 AJ9 AJ9 AJ9 AJ9 AJ9 AJ9 AJ9 AJ9 AJ9 J9 >J9 >J9 >J9 >J9 >J9 >J9 >J9 >J9 >J9 >J9 >J9 >J9 >J9 >J9 >J9 >J9 >J9 >J9 >J9 >J9 >J9 >J9 >J9 >J9 >J9 >J9 >J9 >J9 >J9  =5 =5 =5 =5 =5 =5 =5 =5 =5 =5 =5 =5 =5 =5 =5 =5 =5 =5 =5 =5 =5 =5 =5 =5 =5 =5 =5 =5 =5 5 >5 >5 >5 >5 >5 >5 >5 >5 >5 >5 >5 >5 >5 >5 >5 >5 >5 >5 >5 >5 >5 >5 >5 >5 >5 >5 >5 >5 >5  9M2 9M2 9M2 9M2 9M2 9M2 9M2 9M2 9M2 9M2 9M2 9M2 9M2 9M2 9M2 9M2 9M2 9M2 9M2 9M2 9M2 9M2 9M2 9M2 9M2 9M2 9M2 9M2 9M2 M2 >M2 >M2 >M2 >M2 >M2 >M2 >M2 >M2 >M2 >M2 >M2 >M2 >M2 >M2 >M2 >M2 >M2 >M2 >M2 >M2 >M2 >M2 >M2 >M2 >M2 >M2 >M2 >M2 >M2 M AM> AM> AM> AM> AM> AM> AM> AM> AM> AM> AM> AM> AM> AM> AM> AM> AM> AM> AM> AM> AM> AM> AM> AM> AM> AM> AM> AM> AM> M> >M> >M> >M> >M> >M> >M> >M> >M> >M> >M> >M> >M> >M> >M> >M> >M> >M> >M> >M> >M> >M> >M> >M> >M> >M> >M> >M> >M> >M> M <M2 <M2 <M2 <M2 <M2 <M2 <M2 <M2 <M2 <M2 <M2 <M2 <M2 <M2 <M2 <M2 <M2 <M2 <M2 <M2 <M2 <M2 <M2 <M2 <M2 <M2 <M2 <M2 <M2 M2 >M2 >M2 >M2 >M2 >M2 >M2 >M2 >M2 >M2 >M2 >M2 >M2 >M2 >M2 >M2 >M2 >M2 >M2 >M2 >M2 >M2 >M2 >M2 >M2 >M2 >M2 >M2 >M2 >M2 M ;M7 ;M7 ;M7 ;M7 ;M7 ;M7 ;M7 ;M7 ;M7 ;M7 ;M7 ;M7 ;M7 ;M7 ;M7 ;M7 ;M7 ;M7 ;M7 ;M7 ;M7 ;M7 ;M7 ;M7 ;M7 ;M7 ;M7 ;M7 ;M7 M7 >M7 >M7 >M7 >M7 >M7 >M7 >M7 >M7 >M7 >M7 >M7 >M7 >M7 >M7 >M7 >M7 >M7 >M7 >M7 >M7 >M7 >M7 >M7 >M7 >M7 >M7 >M7 >M7 >M7  AP2 AP2 AP2 AP2 AP2 AP2 AP2 AP2 AP2 AP2 AP2 AP2 AP2 AP2 AP2 AP2 AP2 AP2 AP2 AP2 AP2 AP2 AP2 AP2 AP2 AP2 AP2 AP2 AP2 P2 >P2 >P2 >P2 >P2 >P2 >P2 >P2 >P2 >P2 >P2 >P2 >P2 >P2 >P2 >P2 >P2 >P2 >P2 >P2 >P2 >P2 >P2 >P2 >P2 >P2 >P2 >P2 >P2 >P2  <O/ <O/ <O/ <O/ <O/ <O/ <O/ <O/ <O/ <O/ <O/ <O/ <O/ <O/ <O/ <O/ <O/ <O/ <O/ <O/ <O/ <O/ <O/ <O/ <O/ <O/ <O/ <O/ <O/ O/ >O/ >O/ >O/ >O/ >O/ >O/ >O/ >O/ >O/ >O/ >O/ >O/ >O/ >O/ >O/ >O/ >O/ >O/ >O/ >O/ >O/ >O/ >O/ >O/ >O/ >O/ >O/ >O/ >O/  ;M+ ;M+ ;M+ ;M+ ;M+ ;M+ ;M+ ;M+ ;M+ ;M+ ;M+ ;M+ ;M+ ;M+ ;M+ ;M+ ;M+ ;M+ ;M+ ;M+ ;M+ ;M+ ;M+ ;M+ ;M+ ;M+ ;M+ ;M+ ;M+ M+ >M+ >M+ >M+ >M+ >M+ >M+ >M+ >M+ >M+ >M+ >M+ >M+ >M+ >M+ >M+ >M+ >M+ >M+ >M+ >M+ >M+ >M+ >M+ >M+ >M+ >M+ >M+ >M+ >M+  AO7 AO7 AO7 AO7 AO7 AO7 AO7 AO7 AO7 AO7 AO7 AO7 AO7 AO7 AO7 AO7 AO7 AO7 AO7 AO7 AO7 AO7 AO7 AO7 AO7 AO7 AO7 AO7 AO7 7 >M7 >M7 >M7 >M7 >M7 >M7 >M7 >M7 >M7 >M7 >M7 >M7 >M7 >M7 >M7 >M7 >M7 >M7 >M7 >M7 >M7 >M7 >M7 >M7 >M7 >M7 >M7 >M7 >M7  <K+ <K+ <K+ <K+ <K+ <K+ <K+ <K+ <K+ <K+ <K+ <K+ <K+ <K+ <K+ <K+ <K+ <K+ <K+ <K+ <K+ <K+ <K+ <K+ <K+ <K+ <K+ <K+ <K+ + >J+ >J+ >J+ >J+ >J+ >J+ >J+ >J+ >J+ >J+ >J+ >J+ >J+ >J+ >J+ >J+ >J+ >J+ >J+ >J+ >J+ >J+ >J+ >J+ >J+ >J+ >J+ >J+ >J+  7K0 7K0 7K0 7K0 7K0 7K0 7K0 7K0 7K0 7K0 7K0 7K0 7K0 7K0 7K0 7K0 7K0 7K0 7K0 7K0 7K0 7K0 7K0 7K0 7K0 7K0 7K0 7K0 7K0 0 <J0 <J0 <J0 <J0 <J0 <J0 <J0 <J0 <J0 <J0 <J0 <J0 <J0 <J0 <J0 <J0 <J0 <J0 <J0 <J0 <J0 <J0 <J0 <J0 <J0 <J0 <J0 <J0 <J0  ?H7 ?H7 ?H7 ?H7 ?H7 ?H7 ?H7 ?H7 ?H7 ?H7 ?H7 ?H7 ?H7 ?H7 ?H7 ?H7 ?H7 ?H7 ?H7 ?H7 ?H7 ?H7 ?H7 ?H7 ?H7 ?H7 ?H7 ?H7 ?H7 7 <K7 <K7 <K7 <K7 <K7 <K7 <K7 <K7 <K7 <K7 <K7 <K7 <K7 <K7 <K7 <K7 <K7 <K7 <K7 <K7 <K7 <K7 <K7 <K7 <K7 <K7 <K7 <K7 <K7  ;J3 ;J3 ;J3 ;J3 ;J3 ;J3 ;J3 ;J3 ;J3 ;J3 ;J3 ;J3 ;J3 ;J3 ;J3 ;J3 ;J3 ;J3 ;J3 ;J3 ;J3 ;J3 ;J3 ;J3 ;J3 ;J3 ;J3 ;J3 ;J3 3 <M3 <M3 <M3 <M3 <M3 <M3 <M3 <M3 <M3 <M3 <M3 <M3 <M3 <M3 <M3 <M3 <M3 <M3 <M3 <M3 <M3 <M3 <M3 <M3 <M3 <M3 <M3 <M3 <M3  7K0 7K0 7K0 7K0 7K0 7K0 7K0 7K0 7K0 7K0 7K0 7K0 7K0 7K0 7K0 7K0 7K0 7K0 7K0 7K0 7K0 7K0 7K0 7K0 7K0 7K0 7K0 7K0 7K0 K0 <K0 <K0 <K0 <K0 <K0 <K0 <K0 <K0 <K0 <K0 <K0 <K0 <K0 <K0 <K0 <K0 <K0 <K0 <K0 <K0 <K0 <K0 <K0 <K0 <K0 <K0 <K0 <K0 <K0 K ?K< ?K< ?K< ?K< ?K< ?K< ?K< ?K< ?K< ?K< ?K< ?K< ?K< ?K< ?K< ?K< ?K< ?K< ?K< ?K< ?K< ?K< ?K< ?K< ?K< ?K< ?K< ?K< ?K< K< <K< <K< <K< <K< <K< <K< <K< <K< <K< <K< <K< <K< <K< <K< <K< <K< <K< <K< <K< <K< <K< <K< <K< <K< <K< <K< <K< <K< <K< K :K7 :K7 :K7 :K7 :K7 :K7 :K7 :K7 :K7 :K7 :K7 :K7 :K7 :K7 :K7 :K7 :K7 :K7 :K7 :K7 :K7 :K7 :K7 :K7 :K7 :K7 :K7 :K7 :K7 K7 <K7 <K7 <K7 <K7 <K7 <K7 <K7 <K7 <K7 <K7 <K7 <K7 <K7 <K7 <K7 <K7 <K7 <K7 <K7 <K7 <K7 <K7 <K7 <K7 <K7 <K7 <K7 <K7 <K7 K 9K5 9K5 9K5 9K5 9K5 9K5 9K5 9K5 9K5 9K5 9K5 9K5 9K5 9K5 9K5 9K5 9K5 9K5 9K5 9K5 9K5 9K5 9K5 9K5 9K5 9K5 9K5 9K5 9K5 K5 <K5 <K5 <K5 <K5 <K5 <K5 <K5 <K5 <K5 <K5 <K5 <K5 <K5 <K5 <K5 <K5 <K5 <K5 <K5 <K5 <K5 <K5 <K5 <K5 <K5 <K5 <K5 <K5 <K5  ?O0 ?O0 ?O0 ?O0 ?O0 ?O0 ?O0 ?O0 ?O0 ?O0 ?O0 ?O0 ?O0 ?O0 ?O0 ?O0 ?O0 ?O0 ?O0 ?O0 ?O0 ?O0 ?O0 ?O0 ?O0 ?O0 ?O0 ?O0 ?O0 O0 <O0 <O0 <O0 <O0 <O0 <O0 <O0 <O0 <O0 <O0 <O0 <O0 <O0 <O0 <O0 <O0 <O0 <O0 <O0 <O0 <O0 <O0 <O0 <O0 <O0 <O0 <O0 <O0 <O0  :M- :M- :M- :M- :M- :M- :M- :M- :M- :M- :M- :M- :M- :M- :M- :M- :M- :M- :M- :M- :M- :M- :M- :M- :M- :M- :M- :M- :M- M- <M- <M- <M- <M- <M- <M- <M- <M- <M- <M- <M- <M- <M- <M- <M- <M- <M- <M- <M- <M- <M- <M- <M- <M- <M- <M- <M- <M- <M-  9K) 9K) 9K) 9K) 9K) 9K) 9K) 9K) 9K) 9K) 9K) 9K) 9K) 9K) 9K) 9K) 9K) 9K) 9K) 9K) 9K) 9K) 9K) 9K) 9K) 9K) 9K) 9K) 9K) K) <K) <K) <K) <K) <K) <K) <K) <K) <K) <K) <K) <K) <K) <K) <K) <K) <K) <K) <K) <K) <K) <K) <K) <K) <K) <K) <K) <K) <K)  ?M5 ?M5 ?M5 ?M5 ?M5 ?M5 ?M5 ?M5 ?M5 ?M5 ?M5 ?M5 ?M5 ?M5 ?M5 ?M5 ?M5 ?M5 ?M5 ?M5 ?M5 ?M5 ?M5 ?M5 ?M5 ?M5 ?M5 ?M5 ?M5 5 <K5 <K5 <K5 <K5 <K5 <K5 <K5 <K5 <K5 <K5 <K5 <K5 <K5 <K5 <K5 <K5 <K5 <K5 <K5 <K5 <K5 <K5 <K5 <K5 <K5 <K5 <K5 <K5 <K5  :J) :J) :J) :J) :J) :J) :J) :J) :J) :J) :J) :J) :J) :J) :J) :J) :J) :J) :J) :J) :J) :J) :J) :J) :J) :J) :J) :J) :J) ) <H) <H) <H) <H) <H) <H) <H) <H) <H) <H) <H) <H) <H) <H) <H) <H) <H) <H) <H) <H) <H) <H) <H) <H) <H) <H) <H) <H) <H)  5J. 5J. 5J. 5J. 5J. 5J. 5J. 5J. 5J. 5J. 5J. 5J. 5J. 5J. 5J. 5J. 5J. 5J. 5J. 5J. 5J. 5J. 5J. 5J. 5J. 5J. 5J. 5J. 5J. . :H. :H. :H. :H. :H. :H. :H. :H. :H. :H. :H. :H. :H. :H. :H. :H. :H. :H. :H. :H. :H. :H. :H. :H. :H. :H. :H. :H. :H.  >F5 >F5 >F5 >F5 >F5 >F5 >F5 >F5 >F5 >F5 >F5 >F5 >F5 >F5 >F5 >F5 >F5 >F5 >F5 >F5 >F5 >F5 >F5 >F5 >F5 >F5 >F5 >F5 >F5 5 :J5 :J5 :J5 :J5 :J5 :J5 :J5 :J5 :J5 :J5 :J5 :J5 :J5 :J5 :J5 :J5 :J5 :J5 :J5 :J5 :J5 :J5 :J5 :J5 :J5 :J5 :J5 :J5 :J5  9H2 9H2 9H2 9H2 9H2 9H2 9H2 9H2 9H2 9H2 9H2 9H2 9H2 9H2 9H2 9H2 9H2 9H2 9H2 9H2 9H2 9H2 9H2 9H2 9H2 9H2 9H2 9H2 9H2 2 :K2 :K2 :K2 :K2 :K2 :K2 :K2 :K2 :K2 :K2 :K2 :K2 :K2 :K2 :K2 :K2 :K2 :K2 :K2 :K2 :K2 :K2 :K2 :K2 :K2 :K2 :K2 :K2 :K2  5J. 5J. 5J. 5J. 5J. 5J. 5J. 5J. 5J. 5J. 5J. 5J. 5J. 5J. 5J. 5J. 5J. 5J. 5J. 5J. 5J. 5J. 5J. 5J. 5J. 5J. 5J. 5J. 5J. J. :J. :J. :J. :J. :J. :J. :J. :J. :J. :J. :J. :J. :J. :J. :J. :J. :J. :J. :J. :J. :J. :J. :J. :J. :J. :J. :J. :J. :J. J >J: >J: >J: >J: >J: >J: >J: >J: >J: >J: >J: >J: >J: >J: >J: >J: >J: >J: >J: >J: >J: >J: >J: >J: >J: >J: >J: >J: >J: J: :J: :J: :J: :J: :J: :J: :J: :J: :J: :J: :J: :J: :J: :J: :J: :J: :J: :J: :J: :J: :J: :J: :J: :J: :J: :J: :J: :J: :J: J 9J. 9J. 9J. 9J. 9J. 9J. 9J. 9J. 9J. 9J. 9J. 9J. 9J. 9J. 9J. 9J. 9J. 9J. 9J. 9J. 9J. 9J. 9J. 9J. 9J. 9J. 9J. 9J. 9J. J. :J. :J. :J. :J. :J. :J. :J. :J. :J. :J. :J. :J. :J. :J. :J. :J. :J. :J. :J. :J. :J. :J. :J. :J. :J. :J. :J. :J. :J. J 7J4 7J4 7J4 7J4 7J4 7J4 7J4 7J4 7J4 7J4 7J4 7J4 7J4 7J4 7J4 7J4 7J4 7J4 7J4 7J4 7J4 7J4 7J4 7J4 7J4 7J4 7J4 7J4 7J4 J4 :H4 :H4 :H4 :H4 :H4 :H4 :H4 :H4 :H4 :H4 :H4 :H4 :H4 :H4 :H4 :H4 :H4 :H4 :H4 :H4 :H4 :H4 :H4 :H4 :H4 :H4 :H4 :H4 :H4  ?F4 ?F4 ?F4 ?F4 ?F4 ?F4 ?F4 ?F4 ?F4 ?F4 ?F4 ?F4 ?F4 ?F4 ?F4 ?F4 ?F4 ?F4 ?F4 ?F4 ?F4 ?F4 ?F4 ?F4 ?F4 ?F4 ?F4 ?F4 ?F4 4 :I4 :I4 :I4 :I4 :I4 :I4 :I4 :I4 :I4 :I4 :I4 :I4 :I4 :I4 :I4 :I4 :I4 :I4 :I4 :I4 :I4 :I4 :I4 :I4 :I4 :I4 :I4 :I4 :I4  9H4 9H4 9H4 9H4 9H4 9H4 9H4 9H4 9H4 9H4 9H4 9H4 9H4 9H4 9H4 9H4 9H4 9H4 9H4 9H4 9H4 9H4 9H4 9H4 9H4 9H4 9H4 9H4 9H4 4 :K4 :K4 :K4 :K4 :K4 :K4 :K4 :K4 :K4 :K4 :K4 :K4 :K4 :K4 :K4 :K4 :K4 :K4 :K4 :K4 :K4 :K4 :K4 :K4 :K4 :K4 :K4 :K4 :K4  7I4 7I4 7I4 7I4 7I4 7I4 7I4 7I4 7I4 7I4 7I4 7I4 7I4 7I4 7I4 7I4 7I4 7I4 7I4 7I4 7I4 7I4 7I4 7I4 7I4 7I4 7I4 7I4 7I4 I4 :I4 :I4 :I4 :I4 :I4 :I4 :I4 :I4 :I4 :I4 :I4 :I4 :I4 :I4 :I4 :I4 :I4 :I4 :I4 :I4 :I4 :I4 :I4 :I4 :I4 :I4 :I4 :I4 :I4 I ?I4 ?I4 ?I4 ?I4 ?I4 ?I4 ?I4 ?I4 ?I4 ?I4 ?I4 ?I4 ?I4 ?I4 ?I4 ?I4 ?I4 ?I4 ?I4 ?I4 ?I4 ?I4 ?I4 ?I4 ?I4 ?I4 ?I4 ?I4 ?I4 I4 :I4 :I4 :I4 :I4 :I4 :I4 :I4 :I4 :I4 :I4 :I4 :I4 :I4 :I4 :I4 :I4 :I4 :I4 :I4 :I4 :I4 :I4 :I4 :I4 :I4 :I4 :I4 :I4 :I4 I 9I4 9I4 9I4 9I4 9I4 9I4 9I4 9I4 9I4 9I4 9I4 9I4 9I4 9I4 9I4 9I4 9I4 9I4 9I4 9I4 9I4 9I4 9I4 9I4 9I4 9I4 9I4 9I4 9I4 I4 :I4 :I4 :I4 :I4 :I4 :I4 :I4 :I4 :I4 :I4 :I4 :I4 :I4 :I4 :I4 :I4 :I4 :I4 :I4 :I4 :I4 :I4 :I4 :I4 :I4 :I4 :I4 :I4 :I4 I 7I( 7I( 7I( 7I( 7I( 7I( 7I( 7I( 7I( 7I( 7I( 7I( 7I( 7I( 7I( 7I( 7I( 7I( 7I( 7I( 7I( 7I( 7I( 7I( 7I( 7I( 7I( 7I( 7I( I( :F( :F( :F( :F( :F( :F( :F( :F( :F( :F( :F( :F( :F( :F( :F( :F( :F( :F( :F( :F( :F( :F( :F( :F( :F( :F( :F( :F( :F(  <E( <E( <E( <E( <E( <E( <E( <E( <E( <E( <E( <E( <E( <E( <E( <E( <E( <E( <E( <E( <E( <E( <E( <E( <E( <E( <E( <E( <E( ( :F( :F( :F( :F( :F( :F( :F( :F( :F( :F( :F( :F( :F( :F( :F( :F( :F( :F( :F( :F( :F( :F( :F( :F( :F( :F( :F( :F( :F(  9I( 9I( 9I( 9I( 9I( 9I( 9I( 9I( 9I( 9I( 9I( 9I( 9I( 9I( 9I( 9I( 9I( 9I( 9I( 9I( 9I( 9I( 9I( 9I( 9I( 9I( 9I( 9I( 9I( ( :F( :F( :F( :F( :F( :F( :F( :F( :F( :F( :F( :F( :F( :F( :F( :F( :F( :F( :F( :F( :F( :F( :F( :F( :F( :F( :F( :F( :F(  7O( 7O( 7O( 7O( 7O( 7O( 7O( 7O( 7O( 7O( 7O( 7O( 7O( 7O( 7O( 7O( 7O( 7O( 7O( 7O( 7O( 7O( 7O( 7O( 7O( 7O( 7O( 7O( 7O( ( :F( :F( :F( :F( :F( :F( :F( :F( :F( :F( :F( :F( :F( :F( :F( :F( :F( :F( :F( :F( :F( :F( :F( :F( :F( :F( :F( :F( :F(  <E( <E( <E( <E( <E( <E( <E( <E( <E( <E( <E( <E( <E( <E( <E( <E( <E( <E( <E( <E( <E( <E( <E( <E( <E( <E( <E( <E( <E( ( :F( :F( :F( :F( :F( :F( :F( :F( :F( :F( :F( :F( :F( :F( :F( :F( :F( :F( :F( :F( :F( :F( :F( :F( :F( :F( :F( :F( :F(  9H( 9H( 9H( 9H( 9H( 9H( 9H( 9H( 9H( 9H( 9H( 9H( 9H( 9H( 9H( 9H( 9H( 9H( 9H( 9H( 9H( 9H( 9H( 9H( 9H( 9H( 9H( 9H( 9H( ( :F( :F( :F( :F( :F( :F( :F( :F( :F( :F( :F( :F( :F( :F( :F( :F( :F( :F( :F( :F( :F( :F( :F( :F( :F( :F( :F( :F( :F(  5E) 5E) 5E) 59E) 59E) 59E) 59<E) 59<E) 59<E) 59<E) 59<AE) 59<AE) 59<AE) 59<AE) 59<AE) 59<AE) 59<AE) 59<AE) 59<AE) 59<AE) 59<AE) 59<AE) 59<AE) 59<AE) 59<AE) 59<AE) 59<AE) 59<AE) 59<AE) 59<A) 59<AH) 59<AH) 59<AH) 59<AH) 59<AH) 59<AH) 59<AH) 59<AH) 59<AH) 59<AH) 59<AH) 59<AH) 59<AH) 59<AH) 59<AH) 59<AH) 59<AH) 59<AH) 59<AH) 59<AH) 59<AH) 59<AH) 59<AH) 59<AH) 59<AH) 59<AH) 59<AH) 59<AH) 59<AH) 59<A 59<AM- 59<AM- 59<AM- 59<AM- 59<AM- 59<AM- 59<AM- 59<AM- 59<AM- 59<AM- 59<AM- 59<AM- 59<AM- 59<AM- 59<AM- 59<AM- 59<AM- 59<AM- 59<AM- 59<AM- 59<AM- 59<AM- 59<AM- 59<AM- 59<AM- 59<AM- 59<AM- 59<AM- 59<AM- 59<A- 59<AH- 59<AH- 59<AH- 59<AH- 59<AH- 59<AH- 59<AH- 59<AH- 59<AH- 59<AH- 59<AH- 59<AH- 59<AH- 59<AH- 59<AH- 59<AH- 59<AH- 59<AH- 59<AH- 59<AH- 59<AH- 59<AH- 59<AH- 59<AH- 59<AH- 59<AH- 59<AH- 59<AH- 59<AH- 9<A 9<AM0 9<AM0 <AM0 <AM0 <AM0 AM0 AM0 AM0 AM0 M0 M0 M0 M0 M0 M0 M0 M0 M0 M0 M0 M0 M0 M0 M0 M0 M0 M0 M0 M0 0 Q0 Q0 Q0 Q0 Q0 Q0 Q0 Q0 Q0 Q0 Q0 Q0 Q0 Q0 Q0 Q0 Q0 Q0 Q0 Q0 Q0 Q0 Q0 Q0 Q0 Q0 Q0 Q0 Q0  <M5 <M5 <M5 <M5 <M5 <M5 <M5 <M5 <M5 <M5 <M5 <M5 <M5 <M5 <M5 <M5 <M5 <M5 <M5 <M5 <M5 <M5 <M5 <M5 <M5 <M5 <M5 <M5 <M5 <5 <Q5 <Q5 <Q5 <Q5 <Q5 <Q5 <Q5 <Q5 <Q5 <Q5 <Q5 <Q5 <Q5 <Q5 <Q5 <Q5 <Q5 <Q5 <Q5 <Q5 <Q5 <Q5 <Q5 <Q5 <Q5 <Q5 <Q5 <Q5 <Q5 < <T9 <T9 <T9 <T9 <T9 <T9 <T9 <T9 <T9 <T9 <T9 <T9 <T9 <T9 <T9 <T9 <T9 <T9 <T9 <T9 <T9 <T9 <T9 <T9 <T9 <T9 <T9 <T9 <T9 <9 <Q9 <Q9 <Q9 <Q9 <Q9 <Q9 <Q9 <Q9 <Q9 <Q9 <Q9 <Q9 <Q9 <Q9 <Q9 <Q9 <Q9 <Q9 <Q9 <Q9 <Q9 <Q9 <Q9 <Q9 <Q9 <Q9 <Q9 <Q9 <Q9 < <O< <O< <O< <O< <O< <O< <O< <O< <O< <O< <O< <O< <O< <O< <O< <O< <O< <O< <O< <O< <O< <O< <O< <O< <O< <O< <O< <O< <O< << <Q< <Q< <Q< <Q< <Q< <Q< <Q< <Q< <Q< <Q< <Q< <Q< <Q< <Q< <Q< <Q< <Q< <Q< <Q< <Q< <Q< <Q< <Q< <Q< <Q< <Q< <Q< <Q< <Q< < <N> <N> <N> <N> <N> <N> <N> <N> <N> <N> <N> <N> <N> <N> <N> <N> <N> <N> <N> <N> <N> <N> <N> <N> <N> <N> <N> <N> <N> <> <Q> <Q> <Q> <Q> <Q> <Q> <Q> <Q> <Q> <Q> <Q> <Q> <Q> <Q> <Q> <Q> <Q> <Q> <Q> <Q> <Q> <Q> <Q> <Q> <Q> <Q> <Q> <Q> <Q>  ?T9 ?T9 ?T9 ?T9 ?T9 ?T9 ?T9 ?T9 ?T9 ?T9 ?T9 ?T9 ?T9 ?T9 ?T9 ?T9 ?T9 ?T9 ?T9 ?T9 ?T9 ?T9 ?T9 ?T9 ?T9 ?T9 ?T9 ?T9 ?T9 ?9 ?Q9 ?Q9 ?Q9 ?Q9 ?Q9 ?Q9 ?Q9 ?Q9 ?Q9 ?Q9 ?Q9 ?Q9 ?Q9 ?Q9 ?Q9 ?Q9 ?Q9 ?Q9 ?Q9 ?Q9 ?Q9 ?Q9 ?Q9 ?Q9 ?Q9 ?Q9 ?Q9 ?Q9 ?Q9  >O6 >O6 >O6 >O6 >O6 >O6 >O6 >O6 >O6 >O6 >O6 >O6 >O6 >O6 >O6 >O6 >O6 >O6 >O6 >O6 >O6 >O6 >O6 >O6 >O6 >O6 >O6 >O6 >O6 >6 >Q6 >Q6 >Q6 >Q6 >Q6 >Q6 >Q6 >Q6 >Q6 >Q6 >Q6 >Q6 >Q6 >Q6 >Q6 >Q6 >Q6 >Q6 >Q6 >Q6 >Q6 >Q6 >Q6 >Q6 >Q6 >Q6 >Q6 >Q6 >Q6  <N2 <N2 <N2 <N2 <N2 <N2 <N2 <N2 <N2 <N2 <N2 <N2 <N2 <N2 <N2 <N2 <N2 <N2 <N2 <N2 <N2 <N2 <N2 <N2 <N2 <N2 <N2 <N2 <N2 <2 <Q2 <Q2 <Q2 <Q2 <Q2 <Q2 <Q2 <Q2 <Q2 <Q2 <Q2 <Q2 <Q2 <Q2 <Q2 <Q2 <Q2 <Q2 <Q2 <Q2 <Q2 <Q2 <Q2 <Q2 <Q2 <Q2 <Q2 <Q2 <Q2  >T> >T> >T> >T> >T> >T> >T> >T> >T> >T> >T> >T> >T> >T> >T> >T> >T> >T> >T> >T> >T> >T> >T> >T> >T> >T> >T> >T> >T> > <Q> <Q> <Q> <Q> <Q> <Q> <Q> <Q> <Q> <Q> <Q> <Q> <Q> <Q> <Q> <Q> <Q> <Q> <Q> <Q> <Q> <Q> <Q> <Q> <Q> <Q> <Q> <Q> <Q>  :O2 :O2 :O2 :O2 :O2 :O2 :O2 :O2 :O2 :O2 :O2 :O2 :O2 :O2 :O2 :O2 :O2 :O2 :O2 :O2 :O2 :O2 :O2 :O2 :O2 :O2 :O2 :O2 :O2 2 9Q2 9Q2 9Q2 9Q2 9Q2 9Q2 9Q2 9Q2 9Q2 9Q2 9Q2 9Q2 9Q2 9Q2 9Q2 9Q2 9Q2 9Q2 9Q2 9Q2 9Q2 9Q2 9Q2 9Q2 9Q2 9Q2 9Q2 9Q2 9Q2  :J7 :J7 :J7 :J7 :J7 :J7 :J7 :J7 :J7 :J7 :J7 :J7 :J7 :J7 :J7 :J7 :J7 :J7 :J7 :J7 :J7 :J7 :J7 :J7 :J7 :J7 :J7 :J7 :J7 7 9O7 9O7 9O7 9O7 9O7 9O7 9O7 9O7 9O7 9O7 9O7 9O7 9O7 9O7 9O7 9O7 9O7 9O7 9O7 9O7 9O7 9O7 9O7 9O7 9O7 9O7 9O7 9O7 9O7  7R2 7R2 7R2 7R2 7R2 7R2 7R2 7R2 7R2 7R2 7R2 7R2 7R2 7R2 7R2 7R2 7R2 7R2 7R2 7R2 7R2 7R2 7R2 7R2 7R2 7R2 7R2 7R2 7R2 2 :O2 :O2 :O2 :O2 :O2 :O2 :O2 :O2 :O2 :O2 :O2 :O2 :O2 :O2 :O2 :O2 :O2 :O2 :O2 :O2 :O2 :O2 :O2 :O2 :O2 :O2 :O2 :O2 :O2  9N. 9N. 9N. 9N. 9N. 9N. 9N. 9N. 9N. 9N. 9N. 9N. 9N. 9N. 9N. 9N. 9N. 9N. 9N. 9N. 9N. 9N. 9N. 9N. 9N. 9N. 9N. 9N. 9N. . <O. <O. <O. <O. <O. <O. <O. <O. <O. <O. <O. <O. <O. <O. <O. <O. <O. <O. <O. <O. <O. <O. <O. <O. <O. <O. <O. <O. <O.  :J+ :J+ :J+ :J+ :J+ :J+ :J+ :J+ :J+ :J+ :J+ :J+ :J+ :J+ :J+ :J+ :J+ :J+ :J+ :J+ :J+ :J+ :J+ :J+ :J+ :J+ :J+ :J+ :J+ :+ :O+ :O+ :O+ :O+ :O+ :O+ :O+ :O+ :O+ :O+ :O+ :O+ :O+ :O+ :O+ :O+ :O+ :O+ :O+ :O+ :O+ :O+ :O+ :O+ :O+ :O+ :O+ :O+ :O+ : :R7 :R7 :R7 :R7 :R7 :R7 :R7 :R7 :R7 :R7 :R7 :R7 :R7 :R7 :R7 :R7 :R7 :R7 :R7 :R7 :R7 :R7 :R7 :R7 :R7 :R7 :R7 :R7 :R7 :7 :O7 :O7 :O7 :O7 :O7 :O7 :O7 :O7 :O7 :O7 :O7 :O7 :O7 :O7 :O7 :O7 :O7 :O7 :O7 :O7 :O7 :O7 :O7 :O7 :O7 :O7 :O7 :O7 :O7 : :M+ :M+ :M+ :M+ :M+ :M+ :M+ :M+ :M+ :M+ :M+ :M+ :M+ :M+ :M+ :M+ :M+ :M+ :M+ :M+ :M+ :M+ :M+ :M+ :M+ :M+ :M+ :M+ :M+ :+ :O+ :O+ :O+ :O+ :O+ :O+ :O+ :O+ :O+ :O+ :O+ :O+ :O+ :O+ :O+ :O+ :O+ :O+ :O+ :O+ :O+ :O+ :O+ :O+ :O+ :O+ :O+ :O+ :O+ : :L0 :L0 :L0 :L0 :L0 :L0 :L0 :L0 :L0 :L0 :L0 :L0 :L0 :L0 :L0 :L0 :L0 :L0 :L0 :L0 :L0 :L0 :L0 :L0 :L0 :L0 :L0 :L0 :L0 :0 :O0 :O0 :O0 :O0 :O0 :O0 :O0 :O0 :O0 :O0 :O0 :O0 :O0 :O0 :O0 :O0 :O0 :O0 :O0 :O0 :O0 :O0 :O0 :O0 :O0 :O0 :O0 :O0 :O0  >R7 >R7 >R7 >R7 >R7 >R7 >R7 >R7 >R7 >R7 >R7 >R7 >R7 >R7 >R7 >R7 >R7 >R7 >R7 >R7 >R7 >R7 >R7 >R7 >R7 >R7 >R7 >R7 >R7 >7 >O7 >O7 >O7 >O7 >O7 >O7 >O7 >O7 >O7 >O7 >O7 >O7 >O7 >O7 >O7 >O7 >O7 >O7 >O7 >O7 >O7 >O7 >O7 >O7 >O7 >O7 >O7 >O7 >O7  <M4 <M4 <M4 <M4 <M4 <M4 <M4 <M4 <M4 <M4 <M4 <M4 <M4 <M4 <M4 <M4 <M4 <M4 <M4 <M4 <M4 <M4 <M4 <M4 <M4 <M4 <M4 <M4 <M4 <4 <O4 <O4 <O4 <O4 <O4 <O4 <O4 <O4 <O4 <O4 <O4 <O4 <O4 <O4 <O4 <O4 <O4 <O4 <O4 <O4 <O4 <O4 <O4 <O4 <O4 <O4 <O4 <O4 <O4  :L0 :L0 :L0 :L0 :L0 :L0 :L0 :L0 :L0 :L0 :L0 :L0 :L0 :L0 :L0 :L0 :L0 :L0 :L0 :L0 :L0 :L0 :L0 :L0 :L0 :L0 :L0 :L0 :L0 :0 :O0 :O0 :O0 :O0 :O0 :O0 :O0 :O0 :O0 :O0 :O0 :O0 :O0 :O0 :O0 :O0 :O0 :O0 :O0 :O0 :O0 :O0 :O0 :O0 :O0 :O0 :O0 :O0 :O0  <R< <R< <R< <R< <R< <R< <R< <R< <R< <R< <R< <R< <R< <R< <R< <R< <R< <R< <R< <R< <R< <R< <R< <R< <R< <R< <R< <R< <R< < :O< :O< :O< :O< :O< :O< :O< :O< :O< :O< :O< :O< :O< :O< :O< :O< :O< :O< :O< :O< :O< :O< :O< :O< :O< :O< :O< :O< :O<  9M0 9M0 9M0 9M0 9M0 9M0 9M0 9M0 9M0 9M0 9M0 9M0 9M0 9M0 9M0 9M0 9M0 9M0 9M0 9M0 9M0 9M0 9M0 9M0 9M0 9M0 9M0 9M0 9M0 0 7O0 7O0 7O0 7O0 7O0 7O0 7O0 7O0 7O0 7O0 7O0 7O0 7O0 7O0 7O0 7O0 7O0 7O0 7O0 7O0 7O0 7O0 7O0 7O0 7O0 7O0 7O0 7O0 7O0  9H5 9H5 9H5 9H5 9H5 9H5 9H5 9H5 9H5 9H5 9H5 9H5 9H5 9H5 9H5 9H5 9H5 9H5 9H5 9H5 9H5 9H5 9H5 9H5 9H5 9H5 9H5 9H5 9H5 5 7M5 7M5 7M5 7M5 7M5 7M5 7M5 7M5 7M5 7M5 7M5 7M5 7M5 7M5 7M5 7M5 7M5 7M5 7M5 7M5 7M5 7M5 7M5 7M5 7M5 7M5 7M5 7M5 7M5  5Q0 5Q0 5Q0 5Q0 5Q0 5Q0 5Q0 5Q0 5Q0 5Q0 5Q0 5Q0 5Q0 5Q0 5Q0 5Q0 5Q0 5Q0 5Q0 5Q0 5Q0 5Q0 5Q0 5Q0 5Q0 5Q0 5Q0 5Q0 5Q0 0 9M0 9M0 9M0 9M0 9M0 9M0 9M0 9M0 9M0 9M0 9M0 9M0 9M0 9M0 9M0 9M0 9M0 9M0 9M0 9M0 9M0 9M0 9M0 9M0 9M0 9M0 9M0 9M0 9M0  7L- 7L- 7L- 7L- 7L- 7L- 7L- 7L- 7L- 7L- 7L- 7L- 7L- 7L- 7L- 7L- 7L- 7L- 7L- 7L- 7L- 7L- 7L- 7L- 7L- 7L- 7L- 7L- 7L- - :M- :M- :M- :M- :M- :M- :M- :M- :M- :M- :M- :M- :M- :M- :M- :M- :M- :M- :M- :M- :M- :M- :M- :M- :M- :M- :M- :M- :M-  9H) 9H) 9H) 9H) 9H) 9H) 9H) 9H) 9H) 9H) 9H) 9H) 9H) 9H) 9H) 9H) 9H) 9H) 9H) 9H) 9H) 9H) 9H) 9H) 9H) 9H) 9H) 9H) 9H) 9) 9M) 9M) 9M) 9M) 9M) 9M) 9M) 9M) 9M) 9M) 9M) 9M) 9M) 9M) 9M) 9M) 9M) 9M) 9M) 9M) 9M) 9M) 9M) 9M) 9M) 9M) 9M) 9M) 9M) 9 9Q5 9Q5 9Q5 9Q5 9Q5 9Q5 9Q5 9Q5 9Q5 9Q5 9Q5 9Q5 9Q5 9Q5 9Q5 9Q5 9Q5 9Q5 9Q5 9Q5 9Q5 9Q5 9Q5 9Q5 9Q5 9Q5 9Q5 9Q5 9Q5 95 9M5 9M5 9M5 9M5 9M5 9M5 9M5 9M5 9M5 9M5 9M5 9M5 9M5 9M5 9M5 9M5 9M5 9M5 9M5 9M5 9M5 9M5 9M5 9M5 9M5 9M5 9M5 9M5 9M5 9 9L) 9L) 9L) 9L) 9L) 9L) 9L) 9L) 9L) 9L) 9L) 9L) 9L) 9L) 9L) 9L) 9L) 9L) 9L) 9L) 9L) 9L) 9L) 9L) 9L) 9L) 9L) 9L) 9L) 9) 9M) 9M) 9M) 9M) 9M) 9M) 9M) 9M) 9M) 9M) 9M) 9M) 9M) 9M) 9M) 9M) 9M) 9M) 9M) 9M) 9M) 9M) 9M) 9M) 9M) 9M) 9M) 9M) 9M)  J/ J/ J/ J/ J/ J/ J/ J/ J/ J/ J/ J/ J/ J/ J/ J/ J/ J/ J/ J/ J/ J/ J/ J/ J/ J/ J/ J/ J/ / 7M/ 7M/ 7M/ 7M/ 7M/ 7M/ 7M/ 7M/ 7M/ 7M/ 7M/ 7M/ 7M/ 7M/ 7M/ 7M/ 7M/ 7M/ 7M/ 7M/ 7M/ 7M/ 7M/ 7M/ 7M/ 7M/ 7M/ 7M/ 7M/  5P/ 5P/ 5P/ 5P/ 5P/ 5P/ 5P/ 5P/ 5P/ 5P/ 5P/ 5P/ 5P/ 5P/ 5P/ 5P/ 5P/ 5P/ 5P/ 5P/ 5P/ 5P/ 5P/ 5P/ 5P/ 5P/ 5P/ 5P/ 5P/ / 8M/ 8M/ 8M/ 8M/ 8M/ 8M/ 8M/ 8M/ 8M/ 8M/ 8M/ 8M/ 8M/ 8M/ 8M/ 8M/ 8M/ 8M/ 8M/ 8M/ 8M/ 8M/ 8M/ 8M/ 8M/ 8M/ 8M/ 8M/ 8M/  7L/ 7L/ 7L/ 7L/ 7L/ 7L/ 7L/ 7L/ 7L/ 7L/ 7L/ 7L/ 7L/ 7L/ 7L/ 7L/ 7L/ 7L/ 7L/ 7L/ 7L/ 7L/ 7L/ 7L/ 7L/ 7L/ 7L/ 7L/ 7L/ / :M/ :M/ :M/ :M/ :M/ :M/ :M/ :M/ :M/ :M/ :M/ :M/ :M/ :M/ :M/ :M/ :M/ :M/ :M/ :M/ :M/ :M/ :M/ :M/ :M/ :M/ :M/ :M/ :M/  8J/ 8J/ 8J/ 8J/ 8J/ 8J/ 8J/ 8J/ 8J/ 8J/ 8J/ 8J/ 8J/ 8J/ 8J/ 8J/ 8J/ 8J/ 8J/ 8J/ 8J/ 8J/ 8J/ 8J/ 8J/ 8J/ 8J/ 8J/ 8J/ 8/ 8M/ 8M/ 8M/ 8M/ 8M/ 8M/ 8M/ 8M/ 8M/ 8M/ 8M/ 8M/ 8M/ 8M/ 8M/ 8M/ 8M/ 8M/ 8M/ 8M/ 8M/ 8M/ 8M/ 8M/ 8M/ 8M/ 8M/ 8M/ 8M/ 8 8P/ 8P/ 8P/ 8P/ 8P/ 8P/ 8P/ 8P/ 8P/ 8P/ 8P/ 8P/ 8P/ 8P/ 8P/ 8P/ 8P/ 8P/ 8P/ 8P/ 8P/ 8P/ 8P/ 8P/ 8P/ 8P/ 8P/ 8P/ 8P/ 8/ 8M/ 8M/ 8M/ 8M/ 8M/ 8M/ 8M/ 8M/ 8M/ 8M/ 8M/ 8M/ 8M/ 8M/ 8M/ 8M/ 8M/ 8M/ 8M/ 8M/ 8M/ 8M/ 8M/ 8M/ 8M/ 8M/ 8M/ 8M/ 8M/ 8 8L/ 8L/ 8L/ 8L/ 8L/ 8L/ 8L/ 8L/ 8L/ 8L/ 8L/ 8L/ 8L/ 8L/ 8L/ 8L/ 8L/ 8L/ 8L/ 8L/ 8L/ 8L/ 8L/ 8L/ 8L/ 8L/ 8L/ 8L/ 8L/ 8/ 8M/ 8M/ 8M/ 8M/ 8M/ 8M/ 8M/ 8M/ 8M/ 8M/ 8M/ 8M/ 8M/ 8M/ 8M/ 8M/ 8M/ 8M/ 8M/ 8M/ 8M/ 8M/ 8M/ 8M/ 8M/ 8M/ 8M/ 8M/ 8M/  J# J# J# J# J# J# J# J# J# J# J# J# J# J# J# J# J# J# J# J# J# J# J# J# J# J# J# J# J# # 5M# 5M# 5M# 5M# 5M# 5M# 5M# 5M# 5M# 5M# 5M# 5M# 5M# 5M# 5M# 5M# 5M# 5M# 5M# 5M# 5M# 5M# 5M# 5M# 5M# 5M# 5M# 5M# 5M#  4O# 4O# 4O# 4O# 4O# 4O# 4O# 4O# 4O# 4O# 4O# 4O# 4O# 4O# 4O# 4O# 4O# 4O# 4O# 4O# 4O# 4O# 4O# 4O# 4O# 4O# 4O# 4O# 4O# # 5M# 5M# 5M# 5M# 5M# 5M# 5M# 5M# 5M# 5M# 5M# 5M# 5M# 5M# 5M# 5M# 5M# 5M# 5M# 5M# 5M# 5M# 5M# 5M# 5M# 5M# 5M# 5M# 5M#  8L# 8L# 8L# 8L# 8L# 8L# 8L# 8L# 8L# 8L# 8L# 8L# 8L# 8L# 8L# 8L# 8L# 8L# 8L# 8L# 8L# 8L# 8L# 8L# 8L# 8L# 8L# 8L# 8L# # 5M# 5M# 5M# 5M# 5M# 5M# 5M# 5M# 5M# 5M# 5M# 5M# 5M# 5M# 5M# 5M# 5M# 5M# 5M# 5M# 5M# 5M# 5M# 5M# 5M# 5M# 5M# 5M# 5M#  >J# >J# >J# >J# >J# >J# >J# >J# >J# >J# >J# >J# >J# >J# >J# >J# >J# >J# >J# >J# >J# >J# >J# >J# >J# >J# >J# >J# >J# # 5M# 5M# 5M# 5M# 5M# 5M# 5M# 5M# 5M# 5M# 5M# 5M# 5M# 5M# 5M# 5M# 5M# 5M# 5M# 5M# 5M# 5M# 5M# 5M# 5M# 5M# 5M# 5M# 5M#  4O# 4O# 4O# 4O# 4O# 4O# 4O# 4O# 4O# 4O# 4O# 4O# 4O# 4O# 4O# 4O# 4O# 4O# 4O# 4O# 4O# 4O# 4O# 4O# 4O# 4O# 4O# 4O# 4O# # 5M# 5M# 5M# 5M# 5M# 5M# 5M# 5M# 5M# 5M# 5M# 5M# 5M# 5M# 5M# 5M# 5M# 5M# 5M# 5M# 5M# 5M# 5M# 5M# 5M# 5M# 5M# 5M# 5M#  7L# 7L# 7L# 7L# 7L# 7L# 7L# 7L# 7L# 7L# 7L# 7L# 7L# 7L# 7L# 7L# 7L# 7L# 7L# 7L# 7L# 7L# 7L# 7L# 7L# 7L# 7L# 7L# 7L# # 5M# 5M# 5M# 5M# 5M# 5M# 5M# 5M# 5M# 5M# 5M# 5M# 5M# 5M# 5M# 5M# 5M# 5M# 5M# 5M# 5M# 5M# 5M# 5M# 5M# 5M# 5M# 5M# 5M#  4H$ 4H$ 4H$ 4H$ 4H$ 4H$ 4H$ 4H$ 4H$ 4H$ 4H$ 4H$ 4H$ 4H$ 4H$ 4H$ 4H$ 4H$ 4H$ 4H$ 4H$ 4H$ 4H$ 4H$ 4H$ 4H$ 4H$ 4H$ 4H$ H$ 0H$ 0H$ 0H$ 0H$ 0H$ 0H$ 0H$ 0H$ 0H$ 0H$ 0H$ 0H$ 0H$ 0H$ 0H$ 0H$ 0H$ 0H$ 0H$ 0H$ 0H$ 0H$ 0H$ 0H$ 0H$ 0H$ 0H$ 0H$ 0H$  5 5 5 5 5 5 5 5 5 5 5 5 5 5 5 5 5 5 5 5 5 5 5 5 5 5 5 5 5  9 9 9 9 9 9 9 9 9 9 9 9 9 9 9 9 9 9 9 9 9 9 9 9 9 9 9 9 9  7 7 7 7 7 7 7 7 7 7 7 7 7 7 7 7 7 7 7 7 7 7 7 7 7 7 7 7 7  : : : : : : : : : : : : : : : : : : : : : : : : : : : : :  9 9 9 9 9 9 9 9 9 9 9 9 9 9 9 9 9 9 9 9 9 9 9 9 9 9 9 9 9  7H 7H 7H 7H 7H 7H 7H 7H 7H 7H 7H 7H 7H 7H 7H 7H 7H 7H 7H 7H 7H 7H 7H 7H 7H 7H 7H 7H 7H  9M 9M 9M 9M 9M 9M 9M 9M 9M 9M 9M 9M 9M 9M 9M 9M 9M 9M 9M 9M 9M 9M 9M 9M 9M 9M 9M 9M 9M  <Q <Q <Q <Q <Q <Q <Q <Q <Q <Q <Q <Q <Q <Q <Q <Q <Q <Q <Q <Q <Q <Q <Q <Q <Q <Q <Q <Q <Q  :O :O :O :O :O :O :O :O :O :O :O :O :O :O :O :O :O :O :O :O :O :O :O :O :O :O :O :O :O  >R >R >R >R >R >R >R >R >R >R >R >R >R >R >R >R >R >R >R >R >R >R >R >R >R >R >R >R >R  <R <R <R <R <R <R <R <R <R <R <R <R <R <R <R <R <R <R <R < <Q <Q <Q <Q <Q <Q <Q <Q <Q <Q <Q$ <Q$ <Q$ <Q$ <Q$ <Q$ <Q$ <Q$ <Q$ <$ <O$ <O$ <O$ <O$ <O$ <O$ <O$ <O$ <O$ <O$ <O$ <O$ <O$ <O$ <O$ <O$ <O$ <O$ <O$ < <Q) <Q) <Q) <Q) <Q) <Q) <Q) <Q) <Q) <Q) <Q) <Q) <Q) <Q) <Q) <Q) <Q) <Q) <Q) <) <O) <O) <O) <O) <O) <O) <O) <O) <O) <O <O- <O- <O- <O- <O- <O- <O- <O- <O- <- <M- <M- <M- <M- <M- <M- <M- <M- <M- <M- <M- <M- <M- <M- <M- <M- <M- <M- <M- < <O+ <O+ <O+ <O+ <O+ <O+ <O+ <O+ <O+ <O+ <O+ <O+ <O+ <O+ <O+ <O+ <O+ <O+ <O+ <+ <M+ <M+ <M+ <M+ <M+ <M+ <M+ <M+ <M+ <M <M. <M. <M. <M. <M. <M. <M. <M. <M. <. <L. <L. <L. <L. <L. <L. <L. <L. <L. <L. <L. <L. <L. <L. <L. <L. <L. <L. <L. < <M- <M- <M- <M- <M- <M- <M- <M- <M- <M- <M- <M- <M- <M- <M- <M- <M- <M- <M- <M- <M- <M- <M- <M- <M- <M- <M- <M- <M- <M <M0 <M0 <M0 <M0 <M0 <M0 <M0 <M0 <M0 <M0 <M0 <M0 <M0 <M0 <M0 <M0 <M0 <M0 <M0 <M0 <M0 <M0 <M0 <M0 <M0 <M0 <M0 <M0 <M0 < <Q) <Q) <Q) <Q) <Q) <Q) <Q) <Q) <Q) <Q) <Q) <Q) <Q) <Q) <Q) <Q) <Q) <Q) <Q) <Q) <Q) <Q) <Q) <Q) <Q) <Q) <Q) <Q) <Q) <Q <Q+ <Q+ <Q+ <Q+ <Q+ <Q+ <Q+ <Q+ <Q+ <Q+ <Q+ <Q+ <Q+ <Q+ <Q+ <Q+ <Q+ <Q+ <Q+ <Q+ <Q+ <Q+ <Q+ <Q+ <Q+ <Q+ <Q+ <Q+ <Q+ < <H- <H- <H- <H- <H- <H- <H- <H- <H- <H- <H- <H- <H- <H- <H- <H- <H- <H- <H- <H- <H- <H- <H- <H- <H- <H- <H- <H- <H- <H <H) <H) <H) <H) <H) <H) <H) <H) <H) <H) <H) <H) <H) <H) <H) <H) <H) <H) <H) <H) <H) <H) <H) <H) <H) <H) <H) <H) <H) < <J. <J. <J. <J. <J. <J. <J. <J. <J. <J. <J. <J. <J. <J. <J. <J. <J. <J. <J. <J. <J. <J. <J. <J. <J. <J. <J. <J. <J. <J <J- <J- <J- <J- <J- <J- <J- <J- <J- <J- <J- <J- <J- <J- <J- <J- <J- <J- <J- <J- <J- <J- <J- <J- <J- <J- <J- <J- <J- <J AJ. AJ. AJ. AJ. AJ. AJ. AJ. AJ. AJ. AJ. AJ. AJ. AJ. AJ. AJ. AJ. AJ. AJ. AJ. AJ. AJ. AJ. AJ. AJ. AJ. AJ. AJ. AJ. AJ. AJ AJ2 AJ2 AJ2 AJ2 AJ2 AJ2 AJ2 AJ2 AJ2 AJ2 AJ2 AJ2 AJ2 AJ2 AJ2 AJ2 AJ2 AJ2 AJ2 AJ2 AJ2 AJ2 AJ2 AJ2 AJ2 AJ2 AJ2 AJ2 AJ2 J 9J0 9J0 9J0 9J0 9J0 9J0 9J0 9J0 9J0 9J0 9J0 9J0 9J0 9J0 9J0 9J0 9J0 9J0 9J0 9J0 9J0 9J0 9J0 9J0 9J0 9J0 9J0 9J0 9J0 9J 9J3 9J3 9J3 9J3 9J3 9J3 9J3 9J3 9J3 9J3 9J3 9J3 9J3 9J3 9J3 9J3 9J3 9J3 9J3 9J3 9J3 9J3 9J3 9J3 9J3 9J3 9J3 9J3 9J3 J :J2 :J2 :J2 :J2 :J2 :J2 :J2 :J2 :J2 :J2 :J2 :J2 :J2 :J2 :J2 :J2 :J2 :J2 :J2 :J2 :J2 :J2 :J2 :J2 :J2 :J2 :J2 :J2 :J2 :J :F5 :F5 :F5 :F5 :F5 :F5 :F5 :F5 :F5 :F5 :F5 :F5 :F5 :F5 :F5 :F5 :F5 :F5 :F5 :F5 :F5 :F5 :F5 :F5 :F5 :F5 :F5 :F5 :F5 : :J. :J. :J. :J. :J. :J. :J. :J. :J. :J. :J. :J. :J. :J. :J. :J. :J. :J. :J. :J. :J. :J. :J. :J. :J. :J. :J. :J. :J. : :M0 :M0 :M0 :M0 :M0 :M0 :M0 :M0 :M0 :M0 :M0 :M0 :M0 :M0 :M0 :M0 :M0 :M0 :M0 :M0 :M0 :M0 :M0 :M0 :M0 :M0 :M0 :M0 :M0 : :R2 :R2 :R2 :R2 :R2 :R2 :R2 :R2 :R2 :R2 :R2 :R2 :R2 :R2 :R2 :R2 :R2 :R2 :R2 :R2 :R2 :R2 :R2 :R2 :R2 :R2 :R2 :R2 :R2 : :M. :M. :M. :M. :M. :M. :M. :M. :M. :M. :M. :M. :M. :M. :M. :M. :M. :M. :M. :M. :M. :M. :M. :M. :M. :M. :M. :M. :M.  O4 O4 O4 O4 O4 O4 O4 O4 O4 O4 O4 O4 O4 O4 O4 O4 O4 O4 O4 O4 O4 O4 O4 O4 O4 O4 O4 O4 O4 O4 0O4 0O4 0O4 0O4 0O4 0O4 0O4 0O4 0O4 0O4 0O4 0O4 0O4 0O4 0O4 0O4 0O4 0O4 0O4 0O4 0O4 0O4 0O4 0O4 0O4 0O4 0O4 0O4 0O4 O4 4O4 4O4 4O4 4O4 4O4 4O4 4O4 4O4 4O4 4O4 4O4 4O4 4O4 4O4 4O4 4O4 4O4 4O4 4O4 4O4 4O4 4O4 4O4 4O4 4O4 4O4 4O4 4O4 4O4  7L0 7L0 7L0 7L0 7L0 7L0 7L0 7L0 7L0 7L0 7L0 7L0 7L0 7L0 7L0 7L0 7L0 7L0 7L0 7L0 7L0 7L0 7L0 7L0 7L0 7L0 7L0 7L0 7L0  :M5 :M5 :M5 :M5 :M5 :M5 :M5 :M5 :M5 :M5 :M5 :M5 :M5 :M5 :M5 :M5 :M5 :M5 :M5 :M5 :M5 :M5 :M5 :M5 :M5 :M5 :M5 :M5 :M5 M5 >M5 >M5 >M5 >M5 >M5 >M5 >M5 >M5 >M5 >M5 >M5 >M5 >M5 >M5 >M5 >M5 >M5 >M5 >M5 >M5 >M5 >M5 >M5 >M5 >M5 >M5 >M5 >M5 >M5 M5 <M5 <M5 <M5 <M5 <M5 <M5 <M5 <M5 <M5 <M5 <M5 <M5 <M5 <M5 <M5 <M5 <M5 <M5 <M5 <M5 <M5 <M5 <M5 <M5 <M5 <M5 <M5 <M5 <M5  :O. :O. :O. :O. :O. :O. :O. :O. :O. :O. :O. :O. :O. :O. :O. :O. :O. :O. :O. :O. :O. :O. :O. :O. :O. :O. :O. :O. :O.  9L0 9L0 9L0 9L0 9L0 9L0 9L0 9L0 9L0 9L0 9L0 9L0 9L0 9L0 9L0 9L0 9L0 9L0 9L0 9L0 9L0 9L0 9L0 9L0 9L0 9L0 9L0 9L0 9L0 9L0 9L0 9L0 9L0 9L0 9L0 9L0 9L0 9L0 9L0 9L0 9L0 9L0 9L0 9L0 9L0 9L0 9L0 9L0 9L0 9L0 9L0 9L0 9L0 9L0 9L0 9L0 9L0 9L0 9L0 L 7L$ 7L$ 7L$ 7L$ 7L$ 7L$ 7L$ 7L$ 7L$ 7L$ 7L$ 7L$ 7L$ 7L$ 7L$ 7L$ 7L$ 7L$ 7L$ 7L$ 7L$ 7L$ 7L$ 7L$ 7L$ 7L$ 7L$ 7L$ 7L$ $ 5M$ 5M$ 5M$ 5M$ 5M$ 5M$ 5M$ 5M$ 5M$ 5M$ 5M$ 5M$ 5M$ 5M$ 5M$ 5M$ 5M$ 5M$ 5M$ 5M$ 5M$ 5M$ 5M$ 5M$ 5M$ 5M$ 5M$ 5M$ 5M$  5M) 5M) 5M) 5M) 5M) 5M) 5M) 5M) 5M) 5M) 5M) 5M) 5M) 5M) 5M) 5M) 5M) 5M) 5M) 5M) 5M) 5M) 5M) 5M) 5M) 5M) 5M) 5M) 5M) M) >M) >M) >M) >M) >M) >M) >M) >M) >M) >M) >M) >M) >M) >M) >M) >M) >M) >M) >M) >M) >M) >M) >M) >M) >M) >M) >M) >M) >M)  <H- <H- <H- <H- <H- <H- <H- <H- <H- <H- <H- <H- <H- <H- <H- <H- <H- <H- <H- <H- <H- <H- <H- <H- <H- <H- <H- <H- <H- H- :H- :H- :H- :H- :H- :H- :H- :H- :H- :H- :H- :H- :H- :H- :H- :H- :H- :H- :H- :H- :H- :H- :H- :H- :H- :H- :H- :H- :H-  9H0 9H0 9H0 9H0 9H0 9H0 9H0 9H0 9H0 9H0 9H0 9H0 9H0 9H0 9H0 9H0 9H0 9H0 9H0 9H0 9H0 9H0 9H0 9H0 9H0 9H0 9H0 9H0 9H0 H0 7H0 7H0 7H0 7H0 7H0 7H0 7H0 7H0 7H0 7H0 7H0 7H0 7H0 7H0 7H0 7H0 7H0 7H0 7H0 7H0 7H0 7H0 7H0 7H0 7H0 7H0 7H0 7H0 7H0  5H5 5H5 5H5 5H5 5H5 5H5 5H5 5H5 5H5 5H5 5H5 5H5 5H5 5H5 5H5 5H5 5H5 5H5 5H5 5H5 5H5 5H5 5H5 5H5 5H5 5H5 5H5 5H5 5H5 H5 :H5 :H5 :H5 :H5 :H5 :H5 :H5 :H5 :H5 :H5 :H5 :H5 :H5 :H5 :H5 :H5 :H5 :H5 :H5 :H5 :H5 :H5 :H5 :H5 :H5 :H5 :H5 :H5 :H5 5 9H5 9H5 9H5 9H5 9H5 9H5 9H5 9H5 9H5 9H5 9H5 9H5 9H5 9H5 9H5 9H5 9H5 9H5 9H5 9H5 9H5 9H5 9H5 9H5 9H5 9H5 9H5 9H5 9H5 H5 7H5 7H5 7H5 7H5 7H5 7H5 7H5 7H5 7H5 7H5 7H5 7H5 7H5 7H5 7H5 7H5 7H5 7H5 7H5 7H5 7H5 7H5 7H5 7H5 7H5 7H5 7H5 7H5 7H5  5H 5H 5H 5H 5H 5H 5H 5H 5H 5H 5H 5H 5H 5H 5H 5H 5H 5H 5H 5H 5H 5H 5H 5H 5H 5H 5H 5H 5H H 3H 3H 3H 3H 3H 3H 3H 3H 3H 3H 3H 3H 3H 3H 3H 3H 3H 3H 3H 3H 3H 3H 3H 3H 3H 3H 3H 3H 3H  2A 2A 2A 2A 2A 2A 2A 2A 2A 2A 2A 2A 2A 2A 2A 2A 2A 2A 2A 2A 2A 2A 2A 2A 2A 2A 2A 2A 2A A 7A 7A 7A 7A 7A 7A 7A 7A 7A 7A 7A 7A 7A 7A 7A 7A 7A 7A 7A 7A 7A 7A 7A 7A 7A 7A 7A 7A 7A  5M 5M 5M 5M 5M 5M 5M 5M 5M 5M 5M 5M 5M 5M 5M 5M 5M 5M 5M 5M 5M 5M 5M 5M 5M 5M 5M 5M 5M M 3M 3M 3M 3M 3M 3M 3M 3M 3M 3M 3M 3M 3M 3M 3M 3M 3M 3M 3M 3M 3M 3M 3M 3M 3M 3M 3M 3M 3M  2M 2M 2M 2M 2M 2M 2M 2M 2M 2M 2M 2M 2M 2M 2M 2M 2M 2M 2M 2M 2M 2M 2M 2M 2M 2M 2M 2M 2M M 0M 0M 0M 0M 0M 0M 0M 0M 0M 0M 0M 0M 0M 0M 0M 0M 0M 0M 0M 0M 0M 0M 0M 0M 0M 0M 0M 0M 0M  /M2 /M2 /M2 /M2 /M2 /M2 /M2 /M2 /M2 /M2 /M2 /M2 /M2 /M2 /M2 /M2 /M2 /M2 /M2 /M2 /M2 /M2 /M2 /M2 /M2 /M2 /M2 /M2 /M2 /M2 /M2 /M2 /M2 /M2 /M2 /M2 /M2 /M2 /M2 /M2 /M2 /M2 /M2 /M2 /M2 /M2 /M2 /M2 /M2 /M2 /M2 /M2 /M2 /M2 /M2 /M2 /M2 /M2 /M2  +O/ +O/ +O/ +O/ +O/ +O/ +O/ +O/ +O/ +O/ +O/ +O/ +O/ +O/ +O/ +O/ +O/ +O/ +O/ +O/ +O/ +O/ +O/ +O/ +O/ +O/ +O/ +O/ +O/ +/ +M/ +M/ +M/ +M/ +M/ +M/ +M/ +M/ +M/ +M/ +M/ +M/ +M/ +M/ +M/ +M/ +M/ +M/ +M/ +M/ +M/ +M/ +M/ +M/ +M/ +M/ +M/ +M/ +M/  /K+ /K+ /K+ /K+ /K+ /K+ /K+ /K+ /K+ /K+ /K+ /K+ /K+ /K+ /K+ /K+ /K+ /K+ /K+ /K+ /K+ /K+ /K+ /K+ /K+ /K+ /K+ /K+ /K+ /+ /J+ /J+ /J+ /J+ /J+ /J+ /J+ /J+ /J+ /J+ /J+ /J+ /J+ /J+ /J+ /J+ /J+ /J+ /J+ /J+ /J+ /J+ /J+ /J+ /J+ /J+ /J+ /J+ /J+  0K$ 0K$ 0K$ 0K$ 0K$ 0K$ 0K$ 0K$ 0K$ 0K$ 0K$ 0K$ 0K$ 0K$ 0K$ 0K$ 0K$ 0K$ 0K$ 0K$ 0K$ 0K$ 0K$ 0K$ 0K$ 0K$ 0K$ 0K$ 0K$ 0$ 0O$ 0O$ 0O$ 0O$ 0O$ 0O$ 0O$ 0O$ 0O$ 0O$ 0O$ 0O$ 0O$ 0O$ 0O$ 0O$ 0O$ 0O$ 0O$ 0O$ 0O$ 0O$ 0O$ 0O$ 0O$ 0O$ 0O$ 0O$ 0O$  7T' 7T' 7T' 7T' 7T' 7T' 7T' 7T' 7T' 7T' 7T' 7T' 7T' 7T' 7T' 7T' 7T' 7T' 7T' 7T' 7T' 7T' 7T' 7T' 7T' 7T' 7T' 7T' 7T' 7' 7O' 7O' 7O' 7O' 7O' 7O' 7O' 7O' 7O' 7O' 7O' 7O' 7O' 7O' 7O' 7O' 7O' 7O' 7O' 7O' 7O' 7O' 7O' 7O' 7O' 7O' 7O' 7O' 7O'  7K+ 7K+ 7K+ 7K+ 7K+ 7K+ 7K+ 7K+ 7K+ 7K+ 7K+ 7K+ 7K+ 7K+ 7K+ 7K+ 7K+ 7K+ 7K+ 7K+ 7K+ 7K+ 7K+ 7K+ 7K+ 7K+ 7K+ 7K+ 7K+ 7+ 7O+ 7O+ 7O+ 7O+ 7O+ 7O+ 7O+ 7O+ 7O+ 7O+ 7O+ 7O+ 7O+ 7O+ 7O+ 7O+ 7O+ 7O+ 7O+ 7O+ 7O+ 7O+ 7O+ 7O+ 7O+ 7O+ 7O+ 7O+ 7O+  7H0 7H0 7H0 7H0 7H0 7H0 7H0 7H0 7H0 7H0 7H0 7H0 7H0 7H0 7H0 7H0 7H0 7H0 7H0 7H0 7H0 7H0 7H0 7H0 7H0 7H0 7H0 7H0 7H0 70 7K0 7K0 7K0 7K0 7K0 7K0 7K0 7K0 7K0 7K0 7K0 7K0 7K0 7K0 7K0 7K0 7K0 7K0 7K0 7K0 7K0 7K0 7K0 7K0 7K0 7K0 7K0 7K0 7K0 0 7O0 7O0 7O0 7O0 7O0 7O0 7O0 7O0 7O0 7O0 7O0 7O0 7O0 7O0 7O0 7O0 7O0 7O0 7O0 7O0 7O0 7O0 7O0 7O0 7O0 7O0 7O0 7O0 7O0 70 7K0 7K0 7K0 7K0 7K0 7K0 7K0 7K0 7K0 7K0 7K0 7K0 7K0 7K0 7K0 7K0 7K0 7K0 7K0 7K0 7K0 7K0 7K0 7K0 7K0 7K0 7K0 7K0 7K0  7H 7H 7H 7H 7H 7H 7H 7H 7H 7H 7H 7H 7H 7H 7H 7H 7H 7H 7H 7H 7H 7H 7H 7H 7H 7H 7H 7H 7H 7 7K 7K 7K 7K 7K 7K 7K 7K 7K 7K 7K 7K 7K 7K 7K 7K 7K 7K 7K 7K 7K 7K 7K 7K 7K 7K 7K 7K 7K  7E 7E 7E 7E 7E 7E 7E 7E 7E 7E 7E 7E 7E 7E 7E 7E 7E 7E 7E 7E 7E 7E 7E 7E 7E 7E 7E 7E 7E 7 7H 7H 7H 7H 7H 7H 7H 7H 7H 7H 7H 7H 7H 7H 7H 7H 7H 7H 7H 7H 7H 7H 7H 7H 7H 7H 7H 7H 7H  <K <K <K <K <K <K <K <K <K <K <K <K <K <K <K <K <K <K <K <K <K <K <K <K <K <K <K <K <K < <H <H <H <H <H <H <H <H <H <H <H <H <H <H <H <H <H <H <H <H <H <H <H <H <H <H <H <H <H  <E <E <E <E <E <E <E <E <E <E <E <E <E <E <E <E <E <E <E <E <E <E <E <E <E <E <E <E <E < <H <H <H <H <H <H <H <H <H <H <H <H <H <H <H <H <H <H <H <H <H <H <H <H <H <H <H <H <H  <B- <B- <B- <B- <B- <B- <B- <B- <B- <B- <B- <B- <B- <B- <B- <B- <B- <B- <B- <B- <B- <B- <B- <B- <B- <B- <B- <B- <B- <- <E- <E- <E- <E- <E- <E- <E- <E- <E- <E- <E- <E- <E- <E- <E- <E- <E- <E- <E- <E- <E- <E- <E- <E- <E- <E- <E- <E- <E-  >H* >H* >H* >H* >H* >H* >H* >H* >H* >H* >H* >H* >H* >H* >H* >H* >H* >H* >H* >H* >H* >H* >H* >H* >H* >H* >H* >H* >H* * <E* <E* <E* <E* <E* <E* <E* <E* <E* <E* <E* <E* <E* <E* <E* <E* <E* <E* <E* <E* <E* <E* <E* <E* <E* <E* <E* <E* <E*  :B& :B& :B& :B& :B& :B& :B& :B& :B& :B& :B& :B& :B& :B& :B& :B& :B& :B& :B& :B& :B& :B& :B& :B& :B& :B& :B& :B& :B& & 9E& 9E& 9E& 9E& 9E& 9E& 9E& 9E& 9E& 9E& 9E& 9E& 9E& 9E& 9E& 9E& 9E& 9E& 9E& 9E& 9E& 9E& 9E& 9E& 9E& 9E& 9E& 9E& 9E&  :>+ :>+ :>+ :>+ :>+ :>+ :>+ :>+ :>+ :>+ :>+ :>+ :>+ :>+ :>+ :>+ :>+ :>+ :>+ :>+ :>+ :>+ :>+ :>+ :>+ :>+ :>+ :>+ :>+ >+ >>+ >>+ >>+ >>+ >>+ >>+ >>+ >>+ >>+ >>+ >>+ >>+ >>+ >>+ >>+ >>+ >>+ >>+ >>+ >>+ >>+ >>+ >>+ >>+ >>+ >>+ >>+ >>+ >>+  CJ. CJ. CJ. CJ. CJ. CJ. CJ. CJ. CJ. CJ. CJ. CJ. CJ. CJ. CJ. CJ. CJ. CJ. CJ. CJ. CJ. CJ. CJ. CJ. CJ. CJ. CJ. CJ. CJ. J. >J. >J. >J. >J. >J. >J. >J. >J. >J. >J. >J. >J. >J. >J. >J. >J. >J. >J. >J. >J. >J. >J. >J. >J. >J. >J. >J. >J. >J.  :J2 :J2 :J2 :J2 :J2 :J2 :J2 :J2 :J2 :J2 :J2 :J2 :J2 :J2 :J2 :J2 :J2 :J2 :J2 :J2 :J2 :J2 :J2 :J2 :J2 :J2 :J2 :J2 :J2 J2 >J2 >J2 >J2 >J2 >J2 >J2 >J2 >J2 >J2 >J2 >J2 >J2 >J2 >J2 >J2 >J2 >J2 >J2 >J2 >J2 >J2 >J2 >J2 >J2 >J2 >J2 >J2 >J2 >J2  7J7 7J7 7J7 7J7 7J7 7J7 7J7 7J7 7J7 7J7 7J7 7J7 7J7 7J7 7J7 7J7 7J7 7J7 7J7 7J7 7J7 7J7 7J7 7J7 7J7 7J7 7J7 7J7 7J7 J7 :J7 :J7 :J7 :J7 :J7 :J7 :J7 :J7 :J7 :J7 :J7 :J7 :J7 :J7 :J7 :J7 :J7 :J7 :J7 :J7 :J7 :J7 :J7 :J7 :J7 :J7 :J7 :J7 :J7 7 >J7 >J7 >J7 >J7 >J7 >J7 >J7 >J7 >J7 >J7 >J7 >J7 >J7 >J7 >J7 >J7 >J7 >J7 >J7 >J7 >J7 >J7 >J7 >J7 >J7 >J7 >J7 >J7 >J7 J7 :J7 :J7 :J7 :J7 :J7 :J7 :J7 :J7 :J7 :J7 :J7 :J7 :J7 :J7 :J7 :J7 :J7 :J7 :J7 :J7 :J7 :J7 :J7 :J7 :J7 :J7 :J7 :J7 :J7  7J 7J 7J 7J 7J 7J 7J 7J 7J 7J 7J 7J 7J 7J 7J 7J 7J 7J 7J 7J 7J 7J 7J 7J 7J 7J 7J 7J 7J J :J :J :J :J :J :J :J :J :J :J :J :J :J :J :J :J :J :J :J :J :J :J :J :J :J :J :J :J :J  4C 4C 4C 4C 4C 4C 4C 4C 4C 4C 4C 4C 4C 4C 4C 4C 4C 4C 4C 4C 4C 4C 4C 4C 4C 4C 4C 4C 4C C 7C 7C 7C 7C 7C 7C 7C 7C 7C 7C 7C 7C 7C 7C 7C 7C 7C 7C 7C 7C 7C 7C 7C 7C 7C 7C 7C 7C 7C  :O :O :O :O :O :O :O :O :O :O :O :O :O :O :O :O :O :O :O :O :O :O :O :O :O :O :O :O :O O 7O 7O 7O 7O 7O 7O 7O 7O 7O 7O 7O 7O 7O 7O 7O 7O 7O 7O 7O 7O 7O 7O 7O 7O 7O 7O 7O 7O 7O  4O 4O 4O 4O 4O 4O 4O 4O 4O 4O 4O 4O 4O 4O 4O 4O 4O 4O 4O 4O 4O 4O 4O 4O 4O 4O 4O 4O 4O O 7O 7O 7O 7O 7O 7O 7O 7O 7O 7O 7O 7O 7O 7O 7O 7O 7O 7O 7O 7O 7O 7O 7O 7O 7O 7O 7O 7O 7O  1O4 1O4 1O4 1O4 1O4 1O4 1O4 1O4 1O4 1O4 1O4 1O4 1O4 1O4 1O4 1O4 1O4 1O4 1O4 1O4 1O4 1O4 1O4 1O4 1O4 1O4 1O4 1O4 1O4 O4 4O4 4O4 4O4 4O4 4O4 4O4 4O4 4O4 4O4 4O4 4O4 4O4 4O4 4O4 4O4 4O4 4O4 4O4 4O4 4O4 4O4 4O4 4O4 4O4 4O4 4O4 4O4 4O4 4O4  7Q1 7Q1 7Q1 7Q1 7Q1 7Q1 7Q1 7Q1 7Q1 7Q1 7Q1 7Q1 7Q1 7Q1 7Q1 7Q1 7Q1 7Q1 7Q1 7Q1 7Q1 7Q1 7Q1 7Q1 7Q1 7Q1 7Q1 7Q1 7Q1 1 4O1 4O1 4O1 4O1 4O1 4O1 4O1 4O1 4O1 4O1 4O1 4O1 4O1 4O1 4O1 4O1 4O1 4O1 4O1 4O1 4O1 4O1 4O1 4O1 4O1 4O1 4O1 4O1 4O1  1M- 1M- 1M- 1M- 1M- 1M- 1M- 1M- 1M- 1M- 1M- 1M- 1M- 1M- 1M- 1M- 1M- 1M- 1M- 1M- 1M- 1M- 1M- 1M- 1M- 1M- 1M- 1M- 1M- - 4L- 4L- 4L- 4L- 4L- 4L- 4L- 4L- 4L- 4L- 4L- 4L- 4L- 4L- 4L- 4L- 4L- 4L- 4L- 4L- 4L- 4L- 4L- 4L- 4L- 4L- 4L- 4L- 4L-  -M2 -M2 -M2 -M2 -M2 -M2 -M2 -M2 -M2 -M2 -M2 -M2 -M2 -M2 -M2 -M2 -M2 -M2 -M2 -M2 -M2 -M2 -M2 -M2 -M2 -M2 -M2 -M2 -M2 -M -M9 -M9 -M9 -M9 -M9 -M9 -M9 -M9 -M9 -M9 -M9 -M9 -M9 -M9 -M9 -M9 -M9 -M9 -M9 -M9 -M9 -M9 -M9 -M9 -M9 -M9 -M9 -M9 -M9 - -Q< -Q< -Q< -Q< -Q< -Q< -Q< -Q< -Q< -Q< -Q< -Q< -Q< -Q< -Q< -Q< -Q< -Q< -Q< -Q< -Q< -Q< -Q< -Q< -Q< -Q< -Q< -Q< -Q< -Q -QA -QA -QA -QA -QA -QA -QA -QA -QA -QA -QA -QA -QA -QA -QA -QA -QA -QA -QA -QA -QA -QA -QA -QA -QA -QA -QA -QA -QA  Q@ Q@ Q@ Q@ Q@ Q@ Q@ Q@ Q@ Q@ Q@ Q@ Q@ Q@ Q@ Q@ Q@ Q@ Q@ Q@ Q@ Q@ Q@ Q@ Q@ Q@ Q@ Q@ Q@ Q QC QC QC QC QC QC QC QC QC QC QC QC QC QC QC QC QC QC QC QC QC QC QC QC QC QC QC QC QC  QA QA QA QA QA QA QA QA QA QA QA QA QA QA QA QA QA QA QA QA QA QA QA QA QA QA QA QA QA Q Q@ Q@ Q@ Q@ Q@ Q@ Q@ Q@ Q@ Q@ Q@ Q@ Q@ Q@ Q@ Q@ Q@ Q@ Q@ Q@ Q@ Q@ Q@ Q@ Q@ Q@ Q@ Q@ Q@  AQ> AQ> AQ> AQ> AQ> AQ> AQ> AQ> AQ> AQ> AQ> AQ> AQ> AQ> AQ> AQ> AQ> AQ> AQ> AQ> AQ> AQ> AQ> AQ> AQ> AQ> AQ> AQ> AQ> AQ AQ@ AQ@ AQ@ AQ@ AQ@ AQ@ AQ@ AQ@ AQ@ AQ@ AQ@ AQ@ AQ@ AQ@ AQ@ AQ@ AQ@ AQ@ AQ@ AQ@ AQ@ AQ@ AQ@ AQ@ AQ@ AQ@ AQ@ AQ@ AQ@  AQ< AQ< AQ< AQ< AQ< AQ< AQ< AQ< AQ< AQ< AQ< AQ< AQ< AQ< AQ< AQ< AQ< AQ< AQ< AQ< AQ< AQ< AQ< AQ< AQ< AQ< AQ< AQ< AQ< AQ AQ> AQ> AQ> AQ> AQ> AQ> AQ> AQ> AQ> AQ> AQ> AQ> AQ> AQ> AQ> AQ> AQ> AQ> AQ> AQ> AQ> AQ> AQ> AQ> AQ> AQ> AQ> AQ> AQ>  AO; AO; AO; AO; AO; AO; AO; AO; AO; AO; AO; AO; AO; AO; AO; AO; AO; AO; AO; AO; AO; AO; AO; AO; AO; AO; AO; AO; AO; AO AO7 AO7 AO7 AO7 AO7 AO7 AO7 AO7 AO7 AO7 AO7 AO7 AO7 AO7 AO7 AO7 AO7 AO7 AO7 AO7 AO7 AO7 AO7 AO7 AO7 AO7 AO7 AO7 AO7  @O< @O< @O< @O< @O< @O< @O< @O< @O< @O< @O< @O< @O< @O< @O< @O< @O< @O< @O< @O< @O< @O< @O< @O< @O< @O< @O< @O< @O< @O @O@ @O@ @O@ @O@ @O@ @O@ @O@ @O@ @O@ @O@ @O@ @O@ @O@ @O@ @O@ @O@ @O@ @O@ @O@ @O@ @O@ @O@ @O@ @O@ @O@ @O@ @O@ @O@ @O@  @O> @O> @O> @O> @O> @O> @O> @O> @O> @O> @O> @O> @O> @O> @O> @O> @O> @O> @O> @O> @O> @O> @O> @O> @O> @O> @O> @O> @O> @O @OA @OA @OA @OA @OA @OA @OA @OA @OA @OA @OA @OA @OA @OA @OA @OA @OA @OA @OA @OA @OA @OA @OA @OA @OA @OA @OA @OA @OA  @O@ @O@ @O@ @O@ @O@ @O@ @O@ @O@ @O@ @O@ @O@ @O@ @O@ @O@ @O@ @O@ @O@ @O@ @O@ @O@ @O@ @O@ @O@ @O@ @O@ @O@ @O@ @O@ @O@ @O @O> @O> @O> @O> @O> @O> @O> @O> @O> @O> @O> @O> @O> @O> @O> @O> @O> @O> @O> @O> @O> @O> @O> @O> @O> @O> @O> @O> @O>  @O< @O< @O< @O< @O< @O< @O< @O< @O< @O< @O< @O< @O< @O< @O< @O< @O< @O< @O< @O< @O< @O< @O< @O< @O< @O< @O< @O< @O< @O @O> @O> @O> @O> @O> @O> @O> @O> @O> @O> @O> @O> @O> @O> @O> @O> @O> @O> @O> @O> @O> @O> @O> @O> @O> @O> @O> @O> @O>  @O: @O: @O: @O: @O: @O: @O: @O: @O: @O: @O: @O: @O: @O: @O: @O: @O: @O: @O: @O: @O: @O: @O: @O: @O: @O: @O: @O: @O: @O @O< @O< @O< @O< @O< @O< @O< @O< @O< @O< @O< @O< @O< @O< @O< @O< @O< @O< @O< @O< @O< @O< @O< @O< @O< @O< @O< @O< @O<  @M9 @M9 @M9 @M9 @M9 @M9 @M9 @M9 @M9 @M9 @M9 @M9 @M9 @M9 @M9 @M9 @M9 @M9 @M9 @M9 @M9 @M9 @M9 @M9 @M9 @M9 @M9 @M9 @M9 @M @M5 @M5 @M5 @M5 @M5 @M5 @M5 @M5 @M5 @M5 @M5 @M5 @M5 @M5 @M5 @M5 @M5 @M5 @M5 @M5 @M5 @M5 @M5 @M5 @M5 @M5 @M5 @M5 @M5  >M: >M: >M: >M: >M: >M: >M: >M: >M: >M: >M: >M: >M: >M: >M: >M: >M: >M: >M: >M: >M: >M: >M: >M: >M: >M: >M: >M: >M: >M >M> >M> >M> >M> >M> >M> >M> >M> >M> >M> >M> >M> >M> >M> >M> >M> >M> >M> >M> >M> >M> >M> >M> >M> >M> >M> >M> >M> >M>  >M< >M< >M< >M< >M< >M< >M< >M< >M< >M< >M< >M< >M< >M< >M< >M< >M< >M< >M< >M< >M< >M< >M< >M< >M< >M< >M< >M< >M< >M >M? >M? >M? >M? >M? >M? >M? >M? >M? >M? >M? >M? >M? >M? >M? >M? >M? >M? >M? >M? >M? >M? >M? >M? >M? >M? >M? >M? >M?  >M> >M> >M> >M> >M> >M> >M> >M> >M> >M> >M> >M> >M> >M> >M> >M> >M> >M> >M> >M> >M> >M> >M> >M> >M> >M> >M> >M> >M> >M >M< >M< >M< >M< >M< >M< >M< >M< >M< >M< >M< >M< >M< >M< >M< >M< >M< >M< >M< >M< >M< >M< >M< >M< >M< >M< >M< >M< >M<  >M: >M: >M: >M: >M: >M: >M: >M: >M: >M: >M: >M: >M: >M: >M: >M: >M: >M: >M: >M: >M: >M: >M: >M: >M: >M: >M: >M: >M: >M >M< >M< >M< >M< >M< >M< >M< >M< >M< >M< >M< >M< >M< >M< >M< >M< >M< >M< >M< >M< >M< >M< >M< >M< >M< >M< >M< >M< >M<  >M9 >M9 >M9 >M9 >M9 >M9 >M9 >M9 >M9 >M9 >M9 >M9 >M9 >M9 >M9 >M9 >M9 >M9 >M9 >M9 >M9 >M9 >M9 >M9 >M9 >M9 >M9 >M9 >M9 >M >M: >M: >M: >M: >M: >M: >M: >M: >M: >M: >M: >M: >M: >M: >M: >M: >M: >M: >M: >M: >M: >M: >M: >M: >M: >M: >M: >M: >M:  >L7 >L7 >L7 >L7 >L7 >L7 >L7 >L7 >L7 >L7 >L7 >L7 >L7 >L7 >L7 >L7 >L7 >L7 >L7 >L7 >L7 >L7 >L7 >L7 >L7 >L7 >L7 >L7 >L7  =M9 =M9 =M9 =M9 =M9 =M9 =M9 =M9 =M9 =M9 =M9 =M9 =M9 =M9 =M9 =M9 =M9 =M9 =M9 =M9 =M9 =M9 =M9 =M9 =M9 =M9 =M9 =M9 =M9 = =O: =O: =O: =O: =O: =O: =O: =O: =O: =O: =O: =O: =O: =O: =: =M: =M: =M: =M: =M: =M: =M: =M: =M: =M: =M: =M: =M: =M: = =O9 =O9 =O9 =O9 =O9 =O9 =O9 =O9 =O9 =O9 =O9 =O9 =O9 =O9 =9 =M9 =M9 =M9 =M9 =M9 =M9 =M9 =M9 =M9 =M9 =M9 =M9 =M9 =M9 = =O7 =O7 =O7 =O7 =O7 =O7 =O7 =O7 =O7 =O7 =O7 =O7 =O7 =O7 =7 =M7 =M7 =M7 =M7 =M7 =M7 =M7 =M7 =M7 =M7 =M7 =M7 =M7 =M7 = =L5 =L5 =L5 =L5 =L5 =L5 =L5 =L5 =L5 =L5 =L5 =L5 =L5 =L5 =5 =M5 =M5 =M5 =M5 =M5 =M5 =M5 =M5 =M5 =M5 =M5 =M5 =M5 =M5 = =O4 =O4 =O4 =O4 =O4 =O4 =O4 =O4 =O4 =O4 =O4 =O4 =O4 =O4 =O4 =O4 =O4 =O4 =O4 =O4 =O4 =O4 =O4 =O4 =O4 =O4 =O4 =O4 =O4 O >O5 >O5 >O5 >O5 >O5 >O5 >O5 >O5 >O5 >O5 >O5 >O5 >O5 >O5 >O5 >O5 >O5 >O5 >O5 >O5 >O5 >O5 >O5 >O5 >O5 >O5 >O5 >O5 >O5 O @O7 @O7 @O7 @O7 @O7 @O7 @O7 @O7 @O7 @O7 @O7 @O7 @O7 @O7 O7 >O7 >O7 >O7 >O7 >O7 >O7 >O7 >O7 >O7 >O7 >O7 >O7 >O7 >O7 O @O5 @O5 @O5 @O5 @O5 @O5 @O5 @O5 @O5 @O5 @O5 @O5 @O5 @O5 O5 >O5 >O5 >O5 >O5 >O5 >O5 >O5 >O5 >O5 >O5 >O5 >O5 >O5 >O5 O @O4 @O4 @O4 @O4 @O4 @O4 @O4 @O4 @O4 @O4 @O4 @O4 @O4 @O4 O4 >O4 >O4 >O4 >O4 >O4 >O4 >O4 >O4 >O4 >O4 >O4 >O4 >O4 >O4 O <O2 <O2 <O2 <O2 <O2 <O2 <O2 <O2 <O2 <O2 <O2 <O2 <O2 <O2 O2 >O2 >O2 >O2 >O2 >O2 >O2 >O2 >O2 >O2 >O2 >O2 >O2 >O2 >O2  @1 @1 @1 @1 @1 @1 @1 @1 @1 @1 @1 @1 @1 @1 @1 @1 @1 @1 @1 @1 @1 @1 @1 @1 @1 @1 @1 @1 @1 @1 @R1 @R1 @R1 @R1 @R1 @R1 @R1 @R1 @R1 @R1 @R1 @R1 @R1 @R1 @R1 @R1 @R1 @R1 @R1 @R1 @R1 @R1 @R1 @R1 @R1 @R1 @R1 @R1 @R1  9Q 9Q 9Q 9Q 9Q 9Q 9Q 9Q 9Q 9Q 9Q 9Q 9Q 9Q 9Q 9Q 9Q 9Q 9Q 9Q 9Q 9Q 9Q 9Q 9Q 9Q 9Q 9Q 9Q 9 9O1 9O1 9O1 9O1 9O1 9O1 9O1 9O1 9O1 9O1 9O1 9O1 9O1 9O1 9O1 9O1 9O1 9O1 9O1 9O1 9O1 9O1 9O1 9O1 9O1 9O1 9O1 9O1 9O1  >M2 >M2 >M2 >M2 >M2 >M2 >M2 >M2 >M2 >M2 >M2 >M2 >M2 >M2 >M2 >M2 >M2 >M2 >M2 >M2 >M2 >M2 >M2 >M2 >M2 >M2 >M2 >M2 >M2 > >O4 >O4 >O4 >O4 >O4 >O4 >O4 >O4 >O4 >O4 >O4 >O4 >O4 >O4 >O4 >O4 >O4 >O4 >O4 >O4 >O4 >O4 >O4 >O4 >O4 >O4 >O4 >O4 >O4 > >Q5 >Q5 >Q5 >Q5 >Q5 >Q5 >Q5 >Q5 >Q5 >Q5 >Q5 >Q5 >Q5 >Q5 >Q5 >Q5 >Q5 >Q5 >Q5 >Q5 >Q5 >Q5 >Q5 >Q5 >Q5 >Q5 >Q5 >Q5 >Q5 > >S4 >S4 >S4 >S4 >S4 >S4 >S4 >S4 >S4 >S4 >S4 >S4 >S4 >S4 >S4 >S4 >S4 >S4 >S4 >S4 >S4 >S4 >S4 >S4 >S4 >S4 >S4 >S4 >S4  7T5 7T5 7T5 7T5 7T5 7T5 7T5 7T5 7T5 7T5 7T5 7T5 7T5 7T5 75 7S5 7S5 7S5 7S5 7S5 7S5 7S5 7S5 7S5 7S5 7S5 7S5 7S5 7S5 7 7T9 7T9 7T9 7T9 7T9 7T9 7T9 7T9 7T9 7T9 7T9 7T9 7T9 7T9 79 7S9 7S9 7S9 7S9 7S9 7S9 7S9 7S9 7S9 7S9 7S9 7S9 7S9 7S9  AT7 AT7 AT7 AT7 AT7 AT7 AT7 AT7 AT7 AT7 AT7 AT7 AT7 AT7 A7 AS7 AS7 AS7 AS7 AS7 AS7 AS7 AS7 AS7 AS7 AS7 AS7 AS7 AS7 A AQ; AQ; AQ; AQ; AQ; AQ; AQ; AQ; AQ; AQ; AQ; AQ; AQ; AQ; A; AS; AS; AS; AS; AS; AS; AS; AS; AS; AS; AS; AS; AS; AS; A AT9 AT9 AT9 AT9 AT9 AT9 AT9 AT9 AT9 AT9 AT9 AT9 AT9 AT9 AT9 AT9 AT9 AT9 AT9 AT9 AT9 AT9 AT9 AT9 AT9 AT9 AT9 AT9 AT9 T AT7 AT7 AT7 AT7 AT7 AT7 AT7 AT7 AT7 AT7 AT7 AT7 AT7 AT7 AT7 AT7 AT7 AT7 AT7 AT7 AT7 AT7 AT7 AT7 AT7 AT7 AT7 AT7 AT7 T ?T9 ?T9 ?T9 ?T9 ?T9 ?T9 ?T9 ?T9 ?T9 ?T9 ?T9 ?T9 ?T9 ?T9 ?T9 ?T9 ?T9 ?T9 ?T9 ?T9 ?T9 ?T9 ?T9 ?T9 ?T9 ?T9 ?T9 ?T9 ?T9 T >T; >T; >T; >T; >T; >T; >T; >T; >T; >T; >T; >T; >T; >T; >T; >T; >T; >T; >T; >T; >T; >T; >T; >T; >T; >T; >T; >T; >T; T <T9 <T9 <T9 <T9 <T9 <T9 <T9 <T9 <T9 <T9 <T9 <T9 <T9 <T9 <T9 <T9 <T9 <T9 <T9 <T9 <T9 <T9 <T9 <T9 <T9 <T9 <T9 <T9 <T9 T >T; >T; >T; >T; >T; >T; >T; >T; >T; >T; >T; >T; >T; >T; >T; >T; >T; >T; >T; >T; >T; >T; >T; >T; >T; >T; >T; >T; >T; T @T< @T< @T< @T< @T< @T< @T< @T< @T< @T< @T< @T< @T< @T< @T< @T< @T< @T< @T< @T< @T< @T< @T< @T< @T< @T< @T< @T< @T< T BT; BT; BT; BT; BT; BT; BT; BT; BT; BT; BT; BT; BT; BT; BT; BT; BT; BT; BT; BT; BT; BT; BT; BT; BT; BT; BT; BT; BT; T CT< CT< CT< CT< CT< CT< CT< CT< CT< CT< CT< CT< CT< CT< T< BT< BT< BT< BT< BT< BT< BT< BT< BT< BT< BT< BT< BT< BT< T CT? CT? CT? CT? CT? CT? CT? CT? CT? CT? CT? CT? CT? CT? T? BT? BT? BT? BT? BT? BT? BT? BT? BT? BT? BT? BT? BT? BT? T CT> CT> CT> CT> CT> CT> CT> CT> CT> CT> CT> CT> CT> CT> T> BT> BT> BT> BT> BT> BT> BT> BT> BT> BT> BT> BT> BT> BT> T @T7 @T7 @T7 @T7 @T7 @T7 @T7 @T7 @T7 @T7 @T7 @T7 @T7 @T7 T7 BT7 BT7 BT7 BT7 BT7 BT7 BT7 BT7 BT7 BT7 BT7 BT7 BT7 BT7  C? C? C? C? C? C? C? C? C? C? C? C? C? C? C? C? C? C? C? C? C? C? C? C? C? C? C? C? C? C? CQ? CQ? CQ? CQ? CQ? CQ? CQ? CQ? CQ? CQ? CQ? CQ? CQ? CQ? CQ? CQ? CQ? CQ? CQ? CQ? CQ? CQ? CQ? CQ? CQ? CQ? CQ? CQ? CQ? C CR> CR> CR> CR> CR> CR> CR> CR> CR> CR> CR> CR> CR> CR> CR> CR> CR> CR> CR> CR> CR> CR> CR> CR> CR> CR> CR> CR> CR> C> CO> CO> CO> CO> CO> CO> CO> CO> CO> CO> CO> CO> CO> CO> CO> CO> CO> CO> CO> CO> CO> CO> CO> CO> CO> CO> CO> CO> CO> C CQ= CQ= CQ= CQ= CQ= CQ= CQ= CQ= CQ= CQ= CQ= CQ= CQ= CQ= CQ= CQ= CQ= CQ= CQ= CQ= CQ= CQ= CQ= CQ= CQ= CQ= CQ= CQ= CQ= CQ= @Q= @Q= @Q= @Q= @Q= @Q= @Q= @Q= @Q= @Q= @Q= @Q= @Q= @Q= @Q= @Q= @Q= @Q= @Q= @Q= @Q= @Q= @Q= @Q= @Q= @Q= @Q= @Q= @Q= Q AQ> AQ> AQ> AQ> AQ> AQ> AQ> AQ> AQ> AQ> AQ> AQ> AQ> AQ> AQ> AQ> AQ> AQ> AQ> AQ> AQ> AQ> AQ> AQ> AQ> AQ> AQ> AQ> AQ> Q> >Q> >Q> >Q> >Q> >Q> >Q> >Q> >Q> >Q> >Q> >Q> >Q> >Q> >Q> >Q> >Q> >Q> >Q> >Q> >Q> >Q> >Q> >Q> >Q> >Q> >Q> >Q> >Q> >Q>  ?< ?< ?< ?< ?< ?< ?< ?< ?< ?< ?< ?< ?< ?< ?< ?< ?< ?< ?< ?< ?< ?< ?< ?< ?< ?< ?< ?< ?< ? ?N9 ?N9 ?N9 ?N9 ?N9 ?N9 ?N9 ?N9 ?N9 ?N9 ?N9 ?N9 ?N9 ?N9 ?N9 ?N9 ?N9 ?N9 ?N9 ?N9 ?N9 ?N9 ?N9 ?N9 ?N9 ?N9 ?N9 ?N9 ?N9 ? ?O: ?O: ?O: ?O: ?O: ?O: ?O: ?O: ?O: ?O: ?O: ?O: ?O: ?O: ?O: ?O: ?O: ?O: ?O: ?O: ?O: ?O: ?O: ?O: ?O: ?O: ?O: ?O: ?O: O =O9 =O9 =O9 =O9 =O9 =O9 =O9 =O9 =O9 =O9 =O9 =O9 =O9 =O9 =O9 =O9 =O9 =O9 =O9 =O9 =O9 =O9 =O9 =O9 =O9 =O9 =O9 =O9 =O9 O >O: >O: >O: >O: >O: >O: >O: >O: >O: >O: >O: >O: >O: >O: >O: >O: >O: >O: >O: >O: >O: >O: >O: >O: >O: >O: >O: >O: >O: >: >L: >L: >L: >L: >L: >L: >L: >L: >L: >L: >L: >L: >L: >L: >L: >L: >L: >L: >L: >L: >L: >L: >L: >L: >L: >L: >L: >L: >L: > >M9 >M9 >M9 >M9 >M9 >M9 >M9 >M9 >M9 >M9 >M9 >M9 >M9 >M9 >M9 >M9 >M9 >M9 >M9 >M9 >M9 >M9 >M9 >M9 >M9 >M9 >M9 >M9 >M9 9 ;J9 ;J9 ;J9 ;J9 ;J9 ;J9 ;J9 ;J9 ;J9 ;J9 ;J9 ;J9 ;J9 ;J9 ;J9 ;J9 ;J9 ;J9 ;J9 ;J9 ;J9 ;J9 ;J9 ;J9 ;J9 ;J9 ;J9 ;J9 ;J9  =L7 =L7 =L7 =L7 =L7 =L7 =L7 =L7 =L7 =L7 =L7 =L7 =L7 =L7 =L7 =L7 =L7 =L7 =L7 =L7 =L7 =L7 =L7 =L7 =L7 =L7 =L7 =L7 =L7 7 @O7 @O7 @O7 @O7 @O7 @O7 @O7 @O7 @O7 @O7 @O7 @O7 @O7 @O7 @O7 @O7 @O7 @O7 @O7 @O7 @O7 @O7 @O7 @O7 @O7 @O7 @O7 @O7 @O7  >M6 >M6 >M6 >M6 >M6 >M6 >M6 >M6 >M6 >M6 >M6 >M6 >M6 >M6 >M6 >M6 >M6 >M6 >M6 >M6 >M6 >M6 >M6 >M6 >M6 >M6 >M6 >M6 >M6 6 AO6 AO6 AO6 AO6 AO6 AO6 AO6 AO6 AO6 AO6 AO6 AO6 AO6 AO6 AO6 AO6 AO6 AO6 AO6 AO6 AO6 AO6 AO6 AO6 AO6 AO6 AO6 AO6 AO6  =L9 =L9 =L9 =L9 =L9 =L9 =L9 =L9 =L9 =L9 =L9 =L9 =L9 =L9 =L9 =L9 =L9 =L9 =L9 =L9 =L9 =L9 =L9 =L9 =L9 =L9 =L9 =L9 =L9 =L9 =L9 =L9 =L9 =L9 =L9 =L9 =L9 =L9 =L9 =L9 =L9 =L9 =L9 =L9 =L9 =L9 =L9 =L9 =L9 =L9 =L9 =L9 =L9 =L9 =L9 =L9 =L9 =L9 =L9 =L =L- =L- =L- =L- =L- =L- =L- =L- =L- =L- =L- =L- =L- =L- =L- =L- =L- =L- =L- =L- =L- =L- =L- =L- =L- =L- =L- =L- =L- - >J- >J- >J- >J- >J- >J- >J- >J- >J- >J- >J- >J- >J- >J- >J- >J- >J- >J- >J- >J- >J- >J- >J- >J- >J- >J- >J- >J- >J-  >J2 >J2 >J2 >J2 >J2 >J2 >J2 >J2 >J2 >J2 >J2 >J2 >J2 >J2 >J2 >J2 >J2 >J2 >J2 >J2 >J2 >J2 >J2 >J2 >J2 >J2 >J2 >J2 >J2 >J >J4 >J4 >J4 >J4 >J4 >J4 >J4 >J4 >J4 >J4 >J4 >J4 >J4 >J4 >J4 >J4 >J4 >J4 >J4 >J4 >J4 >J4 >J4 >J4 >J4 >J4 >J4 >J4 >J4 > >Q5 >Q5 >Q5 >Q5 >Q5 >Q5 >Q5 >Q5 >Q5 >Q5 >Q5 >Q5 >Q5 >Q5 >Q5 >Q5 >Q5 >Q5 >Q5 >Q5 >Q5 >Q5 >Q5 >Q5 >Q5 >Q5 >Q5 >Q5 >Q5 >Q >Q7 >Q7 >Q7 >Q7 >Q7 >Q7 >Q7 >Q7 >Q7 >Q7 >Q7 >Q7 >Q7 >Q7 >Q7 >Q7 >Q7 >Q7 >Q7 >Q7 >Q7 >Q7 >Q7 >Q7 >Q7 >Q7 >Q7 >Q7 >Q7  O9 O9 O9 O9 O9 O9 O9 O9 O9 O9 O9 O9 O9 O9 O9 O9 O9 O9 O9 O9 O9 O9 O9 O9 O9 O9 O9 O9 O9 O O5 O5 O5 O5 O5 O5 O5 O5 O5 O5 O5 O5 O5 O5 O5 O5 O5 O5 O5 O5 O5 O5 O5 O5 O5 O5 O5 O5 O5  O2 O2 O2 O2 O2 O2 O2 O2 O2 O2 O2 O2 O2 O2 O2 O2 O2 O2 O2 O2 O2 O2 O2 O2 O2 O2 O2 O2 O2 O M5 M5 M5 M5 M5 M5 M5 M5 M5 M5 M5 M5 M5 M5 M5 M5 M5 M5 M5 M5 M5 M5 M5 M5 M5 M5 M5 M5 M5 M >M9 >M9 >M9 >M9 >M9 >M9 >M9 >M9 >M9 >M9 >M9 >M9 >M9 >M9 >M9 >M9 >M9 >M9 >M9 >M9 >M9 >M9 >M9 >M9 >M9 >M9 >M9 >M9 >M9 >M >M5 >M5 >M5 >M5 >M5 >M5 >M5 >M5 >M5 >M5 >M5 >M5 >M5 >M5 >M5 >M5 >M5 >M5 >M5 >M5 >M5 >M5 >M5 >M5 >M5 >M5 >M5 >M5 >M5 M <M2 <M2 <M2 <M2 <M2 <M2 <M2 <M2 <M2 <M2 <M2 <M2 <M2 <M2 <M2 <M2 <M2 <M2 <M2 <M2 <M2 <M2 <M2 <M2 <M2 <M2 <M2 <M2 <M2 <M <M5 <M5 <M5 <M5 <M5 <M5 <M5 <M5 <M5 <M5 <M5 <M5 <M5 <M5 <M5 <M5 <M5 <M5 <M5 <M5 <M5 <M5 <M5 <M5 <M5 <M5 <M5 <M5 <M5 M <M2 <M2 <M2 <M2 <M2 <M2 <M2 <M2 <M2 <M2 <M2 <M2 <M2 <M2 <M2 <M2 <M2 <M2 <M2 <M2 <M2 <M2 <M2 <M2 <M2 <M2 <M2 <M2 <M2 M :M7 :M7 :M7 :M7 :M7 :M7 :M7 :M7 :M7 :M7 :M7 :M7 :M7 :M7 :M7 :M7 :M7 :M7 :M7 :M7 :M7 :M7 :M7 :M7 :M7 :M7 :M7 :M7 :M7 :M :O: :O: :O: :O: :O: :O: :O: :O: :O: :O: :O: :O: :O: :O: :O: :O: :O: :O: :O: :O: :O: :O: :O: :O: :O: :O: :O: :O: :O: : :M7 :M7 :M7 :M7 :M7 :M7 :M7 :M7 :M7 :M7 :M7 :M7 :M7 :M7 :M7 :M7 :M7 :M7 :M7 :M7 :M7 :M7 :M7 :M7 :M7 :M7 :M7 :M7 :M7 : :L2 :L2 :L2 :L2 :L2 :L2 :L2 :L2 :L2 :L2 :L2 :L2 :L2 :L2 :L2 :L2 :L2 :L2 :L2 :L2 :L2 :L2 :L2 :L2 :L2 :L2 :L2 :L2 :L2 : :J7 :J7 :J7 :J7 :J7 :J7 :J7 :J7 :J7 :J7 :J7 :J7 :J7 :J7 :J7 :J7 :J7 :J7 :J7 :J7 :J7 :J7 :J7 :J7 :J7 :J7 :J7 :J7 :J7 : :L2 :L2 :L2 :L2 :L2 :L2 :L2 :L2 :L2 :L2 :L2 :L2 :L2 :L2 :L2 :L2 :L2 :L2 :L2 :L2 :L2 :L2 :L2 :L2 :L2 :L2 :L2 :L2 :L2 :L :L7 :L7 :L7 :L7 :L7 :L7 :L7 :L7 :L7 :L7 :L7 :L7 :L7 :L7 :L7 :L7 :L7 :L7 :L7 :L7 :L7 :L7 :L7 :L7 :L7 :L7 :L7 :L7 :L7 L >L: >L: >L: >L: >L: >L: >L: >L: >L: >L: >L: >L: >L: >L: >L: >L: >L: >L: >L: >L: >L: >L: >L: >L: >L: >L: >L: >L: >L: L =L7 =L7 =L7 =L7 =L7 =L7 =L7 =L7 =L7 =L7 =L7 =L7 =L7 =L7 =L7 =L7 =L7 =L7 =L7 =L7 =L7 =L7 =L7 =L7 =L7 =L7 =L7 =L7 =L7 L >L2 >L2 >L2 >L2 >L2 >L2 >L2 >L2 >L2 >L2 >L2 >L2 >L2 >L2 >L2 >L2 >L2 >L2 >L2 >L2 >L2 >L2 >L2 >L2 >L2 >L2 >L2 >L2 >L2 L @L7 @L7 @L7 @L7 @L7 @L7 @L7 @L7 @L7 @L7 @L7 @L7 @L7 @L7 @L7 @L7 @L7 @L7 @L7 @L7 @L7 @L7 @L7 @L7 @L7 @L7 @L7 @L7 @L7  92 92 92 92 92 92 92 92 92 92 92 92 92 92 92 92 92 92 92 92 92 92 92 92 92 92 92 92 92 9 9O7 9O7 9O7 9O7 9O7 9O7 9O7 9O7 9O7 9O7 9O7 9O7 9O7 9O7 9O7 9O7 9O7 9O7 9O7 9O7 9O7 9O7 9O7 9O7 9O7 9O7 9O7 9O7 9O7 9 9M9 9M9 9M9 9M9 9M9 9M9 9M9 9M9 9M9 9M9 9M9 9M9 9M9 9M9 9M9 9M9 9M9 9M9 9M9 9M9 9M9 9M9 9M9 9M9 9M9 9M9 9M9 9M9 9M9 9 9L7 9L7 9L7 9L7 9L7 9L7 9L7 9L7 9L7 9L7 9L7 9L7 9L7 9L7 9L7 9L7 9L7 9L7 9L7 9L7 9L7 9L7 9L7 9L7 9L7 9L7 9L7 9L7 9L7 9 9J2 9J2 9J2 9J2 9J2 9J2 9J2 9J2 9J2 9J2 9J2 9J2 9J2 9J2 9J2 9J2 9J2 9J2 9J2 9J2 9J2 9J2 9J2 9J2 9J2 9J2 9J2 9J2 9J2 9 9I7 9I7 9I7 9I7 9I7 9I7 9I7 9I7 9I7 9I7 9I7 9I7 9I7 9I7 9I7 9I7 9I7 9I7 9I7 9I7 9I7 9I7 9I7 9I7 9I7 9I7 9I7 9I7 9I7 9 9J2 9J2 9J2 9J2 9J2 9J2 9J2 9J2 9J2 9J2 9J2 9J2 9J2 9J2 9J2 9J2 9J2 9J2 9J2 9J2 9J2 9J2 9J2 9J2 9J2 9J2 9J2 9J2 9J2 9J 9J5 9J5 9J5 9J5 9J5 9J5 9J5 9J5 9J5 9J5 9J5 9J5 9J5 9J5 9J5 9J5 9J5 9J5 9J5 9J5 9J5 9J5 9J5 9J5 9J5 9J5 9J5 9J5 9J5 J >J9 >J9 >J9 >J9 >J9 >J9 >J9 >J9 >J9 >J9 >J9 >J9 >J9 >J9 >J9 >J9 >J9 >J9 >J9 >J9 >J9 >J9 >J9 >J9 >J9 >J9 >J9 >J9 >J9 > >L5 >L5 >L5 >L5 >L5 >L5 >L5 >L5 >L5 >L5 >L5 >L5 >L5 >L5 >5 >M5 >M5 >M5 >M5 >M5 >M5 >M5 >M5 >M5 >M5 >M5 >M5 >M5 >M5  <O2 <O2 <O2 <O2 <O2 <O2 <O2 <O2 <O2 <O2 <O2 <O2 <O2 <O2 <O2 <O2 <O2 <O2 <O2 <O2 <O2 <O2 <O2 <O2 <O2 <O2 <O2 <O2 <O2  :Q5 :Q5 :Q5 :Q5 :Q5 :Q5 :Q5 :Q5 :Q5 :Q5 :Q5 :Q5 :Q5 :Q5 :Q5 :Q5 :Q5 :Q5 :Q5 :Q5 :Q5 :Q5 :Q5 :Q5 :Q5 :Q5 :Q5 :Q5 :Q5  9R2 9R2 9R2 9R2 9R2 9R2 9R2 9R2 9R2 9R2 9R2 9R2 9R2 9R2 9R2 9R2 9R2 9R2 9R2 9R2 9R2 9R2 9R2 9R2 9R2 9R2 9R2 9R2 9R2 R 7R4 7R4 7R4 7R4 7R4 7R4 7R4 7R4 7R4 7R4 7R4 7R4 7R4 7R4 7R4 7R4 7R4 7R4 7R4 R4 9R4 9R4 9R4 9R4 9R4 9R4 9R4 9R4 9R4 9 9R7 9R7 9R7 9R7 9R7 9R7 9R7 9R7 9R7 R7 7R7 7R7 7R7 7R7 7R7 7R7 7R7 7R7 7R7 7R7 7R7 7R7 7R7 7R7 7R7 7R7 7R7 7R7 7R7 R 9R4 9R4 9R4 9R4 9R4 9R4 9R4 9R4 9R4 9R4 9R4 9R4 9R4 9R4 R4 7R4 7R4 7R4 7R4 7R4 7R4 7R4 7R4 7R4 7R4 7R4 7R4 7R4 7R4  9R2 9R2 9R2 9R2 9R2 9R2 9R2 9R2 9R2 9R2 9R2 9R2 9R2 9R2 R2 7R2 7R2 7R2 7R2 7R2 7R2 7R2 7R2 7R2 7R2 7R2 7R2 7R2 7R2 R 9R4 9R4 9R4 9R4 9R4 9R4 9R4 9R4 9R4 9R4 9R4 9R4 9R4 9R4 R4 7R4 7R4 7R4 7R4 7R4 7R4 7R4 7R4 7R4 7R4 7R4 7R4 7R4 7R4  9R1 9R1 9R1 9R1 9R1 9R1 9R1 9R1 9R1 9R1 9R1 9R1 9R1 9R1 R1 7R1 7R1 7R1 7R1 71 7T1 7T1 7T1 7T1 7T1 7T1 7T1 7T1 7T1 T 9T4 9T4 9T4 9T4 9T4 9T4 9T4 9T4 9T4 94 9R4 9R4 9R4 9R4 R4 7R4 7R4 7R4 7R4 7R4 7R4 7R4 7R4 7R4 7R4 7R4 7R4 7R4 7R4  9T9 9T9 9T9 9T9 9T9 9T9 9T9 9T9 9T9 9T9 9T9 9T9 9T9 9T9 9 7R9 7R9 7R9 7R9 7R9 7R9 7R9 7R9 7R9 7R9 7R9 7R9 7R9 7R9  9T4 9T4 9T4 9T4 9T4 9T4 9T4 9T4 9T4 9T4 9T4 9T4 9T4 9T4 4 7R4 7R4 7R4 7R4 7R4 7R4 7R4 7R4 7R4 7R4 7R4 7R4 7R4 7R4  9T1 9T1 9T1 9T1 9T1 9T1 9T1 9T1 9T1 9T1 9T1 9T1 9T1 9T1 1 7R1 7R1 7R1 7R1 7R1 7R1 7R1 7R1 7R1 7R1 7R1 7R1 7R1 7R1  6T4 6T4 6T4 6T4 6T4 6T4 6T4 6T4 6T4 6T4 6T4 6T4 6T4 6T4 4 7R4 7R4 7R4 7R4 7R4 7R4 7R4 7R4 7R4 7R4 7R4 7R4 7R4 7R4  6T0 6T0 6T0 6T0 6T0 6T0 6T0 6T0 6T0 6T0 6T0 6T0 6T0 6T0 60 6R0 6R0 6R0 6R0 6R0 6R0 6R0 6R0 6R0 6R0 6R0 6R0 6R0 6R0 60 6Q0 6Q0 6Q0 6Q0 6Q0 6Q0 6Q0 6Q0 6Q0 6Q0 6Q0 6Q0 6Q0 6Q0 6Q0 6Q0 6Q0 6Q0 6Q0 6Q0 6Q0 6Q0 6Q0 6Q0 6Q0 6Q0 6Q0 6Q0 6Q0  >R. >R. >R. >R. >R. >R. >R. >R. >R. >R. >R. >R. >R. >R. >R. >R. >R. >R. >R. >R. >R. >R. >R. >R. >R. >R. >R. >R. >R. >. >N. >N. >N. >N. >N. >N. >N. >N. >N. >N. >N. >N. >N. >N. >N. >N. >N. >N. >N. >N. >N. >N. >N. >N. >N. >N. >N. >N. >N.  7O3 7O3 7O3 7O3 7O3 7O3 7O3 7O3 7O3 7O3 7O3 7O3 7O3 7O3 7O3 7O3 7O3 7O3 7O3 7O3 7O3 7O3 7O3 7O3 7O3 7O3 7O3 7O3 7O3 7O3 7O3 7O3 7O3 7O3 7O3 7O3 7O3 7O3 7O3 7O3 7O3 7O3 7O3 7O3 7O3 7O3 7O3 7O3 7O3 7O3 7O3 7O3 7O3 7O3 7O3 7O3 7O3 7O3 7O3 O <O- <O- <O- <O- <O- <O- <O- <O- <O- <O- <O- <O- <O- <O- <O- <O- <O- <O- <O- <O- <O- <O- <O- <O- <O- <O- <O- <O- <O- - ?Q- ?Q- ?Q- ?Q- ?Q- ?Q- ?Q- ?Q- ?Q- ?Q- ?Q- ?Q- ?Q- ?Q- ?Q- ?Q- ?Q- ?Q- ?Q- ?Q- ?Q- ?Q- ?Q- ?Q- ?Q- ?Q- ?Q- ?Q- ?Q-  >N2 >N2 >N2 >N2 >N2 >N2 >N2 >N2 >N2 >N2 >N2 >N2 >N2 >N2 >N2 >N2 >N2 >N2 >N2 >N2 >N2 >N2 >N2 >N2 >N2 >N2 >N2 >N2 >N2 N2 <N2 <N2 <N2 <N2 <N2 <N2 <N2 <N2 <N2 <N2 <N2 <N2 <N2 <N2 <N2 <N2 <N2 <N2 <N2 <N2 <N2 <N2 <N2 <N2 <N2 <N2 <N2 <N2 <N2 N :N& :N& :N& :N& :N& :N& :N& :N& :N& :N& :N& :N& :N& :N& :N& :N& :N& :N& :N& :N& :N& :N& :N& :N& :N& :N& :N& :N& :N& & 9O& 9O& 9O& 9O& 9O& 9O& 9O& 9O& 9O& 9O& 9O& 9O& 9O& 9O& 9O& 9O& 9O& 9O& 9O& 9O& 9O& 9O& 9O& 9O& 9O& 9O& 9O& 9O& 9O&  :O+ :O+ :O+ :O+ :O+ :O+ :O+ :O+ :O+ :O+ :O+ :O+ :O+ :O+ :O+ :O+ :O+ :O+ :O+ :O+ :O+ :O+ :O+ :O+ :O+ :O+ :O+ :O+ :O+ :O :O- :O- :O- :O- :O- :O- :O- :O- :O- :O- :O- :O- :O- :O- :O- :O- :O- :O- :O- :O- :O- :O- :O- :O- :O- :O- :O- :O- :O- O >O. >O. >O. >O. >O. >O. >O. >O. >O. >O. >O. >O. >O. >O. >O. >O. >O. >O. >O. >O. >O. >O. >O. >O. >O. >O. >O. >O. >O. >O >O0 >O0 >O0 >O0 >O0 >O0 >O0 >O0 >O0 >O0 >O0 >O0 >O0 >O0 >O0 >O0 >O0 >O0 >O0 >O0 >O0 >O0 >O0 >O0 >O0 >O0 >O0 >O0 >O0  <2 <2 <2 <2 <2 <2 <2 <2 <2 <2 <2 <2 <2 <2 <2 <2 <2 <2 <2 <2 <2 <2 <2 <2 <2 <2 <2 <2 <2 < <. <. <. <. <. <. <. <. <. <. <. <. <. <. <. <. <. <. <. <. <. <. <. <. <. <. <. <. <.  <+ <+ <+ <+ <+ <+ <+ <+ <+ <+ <+ <+ <+ <+ <+ <+ <+ <+ <+ <+ <+ <+ <+ <+ <+ <+ <+ <+ <+  :. :. :. :. :. :. :. :. :. :. :. :. :. :. :. :. :. :. :. :. :. :. :. :. :. :. :. :. :. : :O2 :O2 :O2 :O2 :O2 :O2 :O2 :O2 :O2 :O2 :O2 :O2 :O2 :O2 :O2 :O2 :O2 :O2 :O2 :O2 :O2 :O2 :O2 :O2 :O2 :O2 :O2 :O2 :O2 :O :O. :O. :O. :O. :O. :O. :O. :O. :O. :O. :O. :O. :O. :O. :O. :O. :O. :O. :O. :O. :O. :O. :O. :O. :O. :O. :O. :O. :O. : :M+ :M+ :M+ :M+ :M+ :M+ :M+ :M+ :M+ :M+ :M+ :M+ :M+ :M+ :M+ :M+ :M+ :M+ :M+ :M+ :M+ :M+ :M+ :M+ :M+ :M+ :M+ :M+ :M+ :M :M. :M. :M. :M. :M. :M. :M. :M. :M. :M. :M. :M. :M. :M. :M. :M. :M. :M. :M. :M. :M. :M. :M. :M. :M. :M. :M. :M. :M. : :M+ :M+ :M+ :M+ :M+ :M+ :M+ :M+ :M+ :M+ :M+ :M+ :M+ :M+ :M+ :M+ :M+ :M+ :M+ :M+ :M+ :M+ :M+ :M+ :M+ :M+ :M+ :M+ :M+ : :K0 :K0 :K0 :K0 :K0 :K0 :K0 :K0 :K0 :K0 :K0 :K0 :K0 :K0 :K0 :K0 :K0 :K0 :K0 :K0 :K0 :K0 :K0 :K0 :K0 :K0 :K0 :K0 :K0 K <K3 <K3 <K3 <K3 <K3 <K3 <K3 <K3 <K3 <K3 <K3 <K3 <K3 <K3 <K3 <K3 <K3 <K3 <K3 <K3 <K3 <K3 <K3 <K3 <K3 <K3 <K3 <K3 <K3 K :K0 :K0 :K0 :K0 :K0 :K0 :K0 :K0 :K0 :K0 :K0 :K0 :K0 :K0 :K0 :K0 :K0 :K0 :K0 :K0 :K0 :K0 :K0 :K0 :K0 :K0 :K0 :K0 :K0 K 9K+ 9K+ 9K+ 9K+ 9K+ 9K+ 9K+ 9K+ 9K+ 9K+ 9K+ 9K+ 9K+ 9K+ 9K+ 9K+ 9K+ 9K+ 9K+ 9K+ 9K+ 9K+ 9K+ 9K+ 9K+ 9K+ 9K+ 9K+ 9K+ K 7K0 7K0 7K0 7K0 7K0 7K0 7K0 7K0 7K0 7K0 7K0 7K0 7K0 7K0 7K0 7K0 7K0 7K0 7K0 7K0 7K0 7K0 7K0 7K0 7K0 7K0 7K0 7K0 7K0 K 9K+ 9K+ 9K+ 9K+ 9K+ 9K+ 9K+ 9K+ 9K+ 9K+ 9K+ 9K+ 9K+ 9K+ 9K+ 9K+ 9K+ 9K+ 9K+ 9K+ 9K+ 9K+ 9K+ 9K+ 9K+ 9K+ 9K+ 9K+ 9K+ 9K 9K0 9K0 9K0 9K0 9K0 9K0 9K0 9K0 9K0 9K0 9K0 9K0 9K0 9K0 9K0 9K0 9K0 9K0 9K0 9K0 9K0 9K0 9K0 9K0 9K0 9K0 9K0 9K0 9K0 9 9O3 9O3 9O3 9O3 9O3 9O3 9O3 9O3 9O3 9O3 9O3 9O3 9O3 9O3 9O3 9O3 9O3 9O3 9O3 9O3 9O3 9O3 9O3 9O3 9O3 9O3 9O3 9O3 9O3 9 9N0 9N0 9N0 9N0 9N0 9N0 9N0 9N0 9N0 9N0 9N0 9N0 9N0 9N0 9N0 9N0 9N0 9N0 9N0 9N0 9N0 9N0 9N0 9N0 9N0 9N0 9N0 9N0 9N0 9 9O+ 9O+ 9O+ 9O+ 9O+ 9O+ 9O+ 9O+ 9O+ 9O+ 9O+ 9O+ 9O+ 9O+ 9O+ 9O+ 9O+ 9O+ 9O+ 9O+ 9O+ 9O+ 9O+ 9O+ 9O+ 9O+ 9O+ 9O+ 9O+ 9 9Q0 9Q0 9Q0 9Q0 9Q0 9Q0 9Q0 9Q0 9Q0 9Q0 9Q0 9Q0 9Q0 9Q0 9Q0 9Q0 9Q0 9Q0 9Q0 9Q0 9Q0 9Q0 9Q0 9Q0 9Q0 9Q0 9Q0 9Q0 9Q0  F+ F+ F+ F+ F+ F+ F+ F+ F+ F+ F+ F+ F+ F+ F+ F+ F+ F+ F+ F+ F+ F+ F+ F+ F+ F+ F+ F+ F+ F <F0 <F0 <F0 <F0 <F0 <F0 <F0 <F0 <F0 <F0 <F0 <F0 <F0 <F0 <F0 <F0 <F0 <F0 <F0 <F0 <F0 <F0 <F0 <F0 <F0 <F0 <F0 <F0 <F0 F :F2 :F2 :F2 :F2 :F2 :F2 :F2 :F2 :F2 :F2 :F2 :F2 :F2 :F2 :F2 :F2 :F2 :F2 :F2 :F2 :F2 :F2 :F2 :F2 :F2 :F2 :F2 :F2 :F2 F 9F0 9F0 9F0 9F0 9F0 9F0 9F0 9F0 9F0 9F0 9F0 9F0 9F0 9F0 9F0 9F0 9F0 9F0 9F0 9F0 9F0 9F0 9F0 9F0 9F0 9F0 9F0 9F0 9F0 F 7F+ 7F+ 7F+ 7F+ 7F+ 7F+ 7F+ 7F+ 7F+ 7F+ 7F+ 7F+ 7F+ 7F+ 7F+ 7F+ 7F+ 7F+ 7F+ 7F+ 7F+ 7F+ 7F+ 7F+ 7F+ 7F+ 7F+ 7F+ 7F+ F 6F0 6F0 6F0 6F0 6F0 6F0 6F0 6F0 6F0 6F0 6F0 6F0 6F0 6F0 6F0 6F0 6F0 6F0 6F0 6F0 6F0 6F0 6F0 6F0 6F0 6F0 6F0 6F0 6F0 F 7F+ 7F+ 7F+ 7F+ 7F+ 7F+ 7F+ 7F+ 7F+ 7F+ 7F+ 7F+ 7F+ 7F+ 7F+ 7F+ 7F+ 7F+ 7F+ 7F+ 7F+ 7F+ 7F+ 7F+ 7F+ 7F+ 7F+ 7F+ 7F+ 7F 7F. 7F. 7F. 7F. 7F. 7F. 7F. 7F. 7F. 7F. 7F. 7F. 7F. 7F. 7F. 7F. 7F. 7F. 7F. 7F. 7F. 7F. 7F. 7F. 7F. 7F. 7F. 7F. 7F. 7 7O2 7O2 7O2 7O2 7O2 7O2 7O2 7O2 7O2 7O2 7O2 7O2 7O2 7O2 7O2 7O2 7O2 7O2 7O2 7O2 7O2 7O2 7O2 7O2 7O2 7O2 7O2 7O2 7O2 O 9O. 9O. 9O. 9O. 9O. 9O. 9O. 9O. 9O. 9O. 9O. 9O. 9O. 9O. O. :O. :O. :O. :O. :O. :O. :O. :O. :O. :O. :O. :O. :O. :O.  <M+ <M+ <M+ <M+ <M+ <M+ <M+ <M+ <M+ <M+ <M+ <M+ <M+ <M+ <M+ <M+ <M+ <M+ <M+ <M+ <M+ <M+ <M+ <M+ <M+ <M+ <M+ <M+ <M+  >K. >K. >K. >K. >K. >K. >K. >K. >K. >K. >K. >K. >K. >K. >K. >K. >K. >K. >K. >K. >K. >K. >K. >K. >K. >K. >K. >K. >K.  ?J+ ?J+ ?J+ ?J+ ?J+ ?J+ ?J+ ?J+ ?J+ ?J+ ?J+ ?J+ ?J+ ?J+ ?J+ ?J+ ?J+ ?J+ ?J+ ?J+ ?J+ ?J+ ?J+ ?J+ ?J+ ?J+ ?J+ ?J+ ?J+ ? ?H- ?H- ?H- ?H- ?H- ?H- ?H- ?H- ?H- ?H- ?H- ?H- ?H- ?H- ?H- ?H- ?H- ?H- ?H- ?H- ?H- ?H- ?H- ?H- ?H- ?H- ?H- ?H- ?H- H ?H0 ?H0 ?H0 ?H0 ?H0 ?H0 ?H0 ?H0 ?H0 ?H0 ?H0 ?H0 ?H0 ?H0 ?H0 ?H0 ?H0 ?H0 ?H0 ?H0 ?H0 ?H0 ?H0 ?H0 ?H0 ?H0 ?H0 ?H0 ?H0 ?H ?H- ?H- ?H- ?H- ?H- ?H- ?H- ?H- ?H- ?H- ?H- ?H- ?H- ?H- ?H- ?H- ?H- ?H- ?H- ?H- ?H- ?H- ?H- ?H- ?H- ?H- ?H- ?H- ?H- H ?H+ ?H+ ?H+ ?H+ ?H+ ?H+ ?H+ ?H+ ?H+ ?H+ ?H+ ?H+ ?H+ ?H+ ?H+ ?H+ ?H+ ?H+ ?H+ ?H+ ?H+ ?H+ ?H+ ?H+ ?H+ ?H+ ?H+ ?H+ ?H+ ?H ?H- ?H- ?H- ?H- ?H- ?H- ?H- ?H- ?H- ?H- ?H- ?H- ?H- ?H- ?H- ?H- ?H- ?H- ?H- ?H- ?H- ?H- ?H- ?H- ?H- ?H- ?H- ?H- ?H- H ?H* ?H* ?H* ?H* ?H* ?H* ?H* ?H* ?H* ?H* ?H* ?H* ?H* ?H* ?H* ?H* ?H* ?H* ?H* ?H* ?H* ?H* ?H* ?H* ?H* ?H* ?H* ?H* ?H* H >H- >H- >H- >H- >H- >H- >H- >H- >H- >H- >H- >H- >H- >H- >H- >H- >H- >H- >H- >H- >H- >H- >H- >H- >H- >H- >H- >H- >H- >H >H2 >H2 >H2 >H2 >H2 >H2 >H2 >H2 >H2 >H2 >H2 >H2 >H2 >H2 >H2 >H2 >H2 >H2 >H2 >H2 >H2 >H2 >H2 >H2 >H2 >H2 >H2 >H2 >H2 >H >H- >H- >H- >H- >H- >H- >H- >H- >H- >H- >H- >H- >H- >H- >H- >H- >H- >H- >H- >H- >H- >H- >H- >H- >H- >H- >H- >H- >H- >H >G* >G* >G* >G* >G* >G* >G* >G* >G* >G* >G* >G* >G* >G* >G* >G* >G* >G* >G* >G* >G* >G* >G* >G* >G* >G* >G* >G* >G* > >H- >H- >H- >H- >H- >H- >H- >H- >H- >H- >H- >H- >H- >H- >H- >H- >H- >H- >H- >H- >H- >H- >H- >H- >H- >H- >H- >H- >H- > >G) >G) >G) >G) >G) >G) >G) >G) >G) >G) >G) >G) >G) >G) >G) >G) >G) >G) >G) >G) >G) >G) >G) >G) >G) >G) >G) >G) >G) G) <G) <G) <G) <G) <G) <G) <G) <G) <G) <G) <G) <G) <G) <G) <G) <G) <G) <G) <G) <G) <G) <G) <G) <G) <G) <G) <G) <G) <G  >O' >O' >O' >O' >O' >O' >O' >O' >O' >O' >O' >O' >O' >O' >O' >O' >O' >O' >O' >O' >O' >O' >O' >O' >O' >O' >O' >O' >O' O' ;O' ;O' ;O' ;O' ;O' ;O' ;O' ;O' ;O' ;O' ;O' ;O' ;O' ;O' ;O' ;O' ;O' ;O' ;O' ;O' ;O' ;O' ;O' ;O' ;O' ;O' ;O' ;O' ;O  <H, <H, <H, <H, <H, <H, <H, <H, <H, <H, <H, <H, <H, <H, <H, <H, <H, <H, <H, <H, <H, <H, <H, <H, <H, <H, <H, <H, <H, <H, <H, <H, <H, <H, <H, <H, <H, <H, <H, <H, <H, <H, <H, <H, <H, <H, <H, <H, <H, <H, <H, <H, <H, <H, <H, <H, <H, <H, <H < <M& <M& <M& <M& <M& <M& <M& <M& <M& <M& <M& <M& <M& <M& <M& <M& <M& <M& <M& <M& <M& <M& <M& <M& <M& <M& <M& <M& <M& & >P& >P& >P& >P& >P& >P& >P& >P& >P& >P& >P& >P& >P& >P& >P& >P& >P& >P& >P& >P& >P& >P& >P& >P& >P& >P& >P& >P& >P  ;O+ ;O+ ;O+ ;O+ ;O+ ;O+ ;O+ ;O+ ;O+ ;O+ ;O+ ;O+ ;O+ ;O+ ;O+ ;O+ ;O+ ;O+ ;O+ ;O+ ;O+ ;O+ ;O+ ;O+ ;O+ ;O+ ;O+ ;O+ ;O+ ;+ ;M+ ;M+ ;M+ ;M+ ;M+ ;M+ ;M+ ;M+ ;M+ ;M+ ;M+ ;M+ ;M+ ;M+ ;M+ ;M+ ;M+ ;M+ ;M+ ;M+ ;M+ ;M+ ;M+ ;M+ ;M+ ;M+ ;M+ ;M+ ;M ; ;KÀ ;KÀ ;KÀ ;KÀ ;KÀ ;KÀ ;KÀ ;KÀ ;KÀ ;KÀ ;KÀ ;KÀ ;KÀ ;KÀ ;KÀ ;KÀ ;KÀ ;KÀ ;KÀ ;KÀ ;KÀ ;KÀ ;KÀ ;KÀ ;KÀ ;KÀ ;KÀ ;KÀ ;KÀ À <JÀ <JÀ <JÀ <JÀ <JÀ <JÀ <JÀ <JÀ <JÀ <JÀ <JÀ <JÀ <JÀ <JÀ <JÀ <JÀ <JÀ <JÀ <JÀ <JÀ <JÀ <JÀ <JÀ <JÀ <JÀ <JÀ <JÀ <JÀ <J  <K$ <K$ <K$ <K$ <K$ <K$ <K$ <K$ <K$ <K$ <K$ <K$ <K$ <K$ <K$ <K$ <K$ <K$ <K$ <K$ <K$ <K$ <K$ <K$ <K$ <K$ <K$ <K$ <K$ <K <K+ <K+ <K+ <K+ <K+ <K+ <K+ <K+ <K+ <K+ <K+ <K+ <K+ <K+ <K+ <K+ <K+ <K+ <K+ <K+ <K+ <K+ <K+ <K+ <K+ <K+ <K+ <K+ <K+  7O0 7O0 7O0 7O0 7O0 7O0 7O0 7O0 7O0 7O0 7O0 7O0 7O0 7O0 7O0 7O0 7O0 7O0 7O0 7O0 7O0 7O0 7O0 7O0 7O0 7O0 7O0 7O0 7O0 7O 7O3 7O3 7O3 7O3 7O3 7O3 7O3 7O3 7O3 7O3 7O3 7O3 7O3 7O3 7O3 7O3 7O3 7O3 7O3 7O3 7O3 7O3 7O3 7O3 7O3 7O3 7O3 7O3 7O3  7H2 7H2 7H2 7H2 7H2 7H2 7H2 7H2 7H2 7H2 7H2 7H2 7H2 7H2 72 7G2 7G2 7G2 7G2 7G2 7G2 7G2 7G2 7G2 7G2 7G2 7G2 7G2 7G2 7 7E5 7E5 7E5 7E5 7E5 7E5 7E5 7E5 7E5 7E5 7E5 7E5 7E5 7E5 75 7G5 7G5 7G5 7G5 7G5 7G5 7G5 7G5 7G5 7G5 7G5 7G5 7G5 7G5  7H3 7H3 7H3 7H3 7H3 7H3 7H3 7H3 7H3 7H3 7H3 7H3 7H3 7H3 7H3 7H3 7H3 7H3 7H3 7H3 7H3 7H3 7H3 7H3 7H3 7H3 7H3 7H3 7H3 7H 7H7 7H7 7H7 7H7 7H7 7H7 7H7 7H7 7H7 7H7 7H7 7H7 7H7 7H7 7H7 7H7 7H7 7H7 7H7 7H7 7H7 7H7 7H7 7H7 7H7 7H7 7H7 7H7 7H7 H 7H5 7H5 7H5 7H5 7H5 7H5 7H5 7H5 7H5 7H5 7H5 7H5 7H5 7H5 7H5 7H5 7H5 7H5 7H5 7H5 7H5 7H5 7H5 7H5 7H5 7H5 7H5 7H5 7H5 7H 7H3 7H3 7H3 7H3 7H3 7H3 7H3 7H3 7H3 7H3 7H3 7H3 7H3 7H3 7H3 7H3 7H3 7H3 7H3 7H3 7H3 7H3 7H3 7H3 7H3 7H3 7H3 7H3 7H3  72 72 72 72 72 72 72 72 72 72 72 72 72 72 72 72 72 72 72 72 72 72 72 72 72 72 72 72 72 7 70 70 70 70 70 70 70 70 70 70 70 70 70 70 70 70 70 70 70 70 70 70 70 70 70 70 70 70 70  08 08 08 08 08 08 08 08 08 08 08 08 08 08 08 08 08 08 08 08 08 08 08 08 08 08 08 08 08 0 0: 0: 0: 0: 0: 0: 0: 0: 0: 0: 0: 0: 0: 0: 0: 0: 0: 0: 0: 0: 0: 0: 0: 0: 0: 0: 0: 0: 0:  <8 <8 <8 <8 <8 <8 <8 <8 <8 <8 <8 <8 <8 <8 <8 <8 <8 <8 <8 <8 <8 <8 <8 <8 <8 <8 <8 <8 <8 < <7 <7 <7 <7 <7 <7 <7 <7 <7 <7 <7 <7 <7 <7 <7 <7 <7 <7 <7 <7 <7 <7 <7 <7 <7 <7 <7 <7 <7  <5 <5 <5 <5 <5 <5 <5 <5 <5 <5 <5 <5 <5 <5 <5 <5 <5 <5 <5 <5 <5 <5 <5 <5 <5 <5 <5 <5 <5 < <3 <3 <3 <3 <3 <3 <3 <3 <3 <3 <3 <3 <3 <3 <3 <3 <3 <3 <3 <3 <3 <3 <3 <3 <3 <3 <3 <3 <3  >5 >5 >5 >5 >5 >5 >5 >5 >5 >5 >5 >5 >5 >5 >5 >5 >5 >5 >5 >5 >5 >5 >5 >5 >5 >5 >5 >5 >5 >5 >5 >5 >5 >5 >5 >5 >5 >5 >5 >5 >5 >5 >5 >5 >5 >5 >5 >5 >5 >5 >5 >5 >5 >5 >5 >5 >5 >5 >5  >2 >2 >2 >2 >2 >2 >2 >2 >2 >2 >2 >2 >2 >2 >2 >2 >2 >2 >2 >2 >2 >2 >2 >2 >2 >2 >2 >2 >2 2 ?2 ?2 ?2 ?2 ?2 ?2 ?2 ?2 ?2 ?2 ?2 ?2 ?2 ?2 ?2 ?2 ?2 ?2 ?2 ?2 ?2 ?2 ?2 ?2 ?2 ?2 ?2 ?2 ?2  A7 A7 A7 A7 A7 A7 A7 A7 A7 A7 A7 A7 A7 A7 A7 A7 A7 A7 A7 A7 A7 A7 A7 A7 A7 A7 A7 A7 A7 7 >7 >7 >7 >7 >7 >7 >7 >7 >7 >7 >7 >7 >7 >7 >7 >7 >7 >7 >7 >7 >7 >7 >7 >7 >7 >7 >7 >7 >7  ?0 ?0 ?0 ?0 ?0 ?0 ?0 ?0 ?0 ?0 ?0 ?0 ?0 ?0 ?0 ?0 ?0 ?0 ?0 ?0 ?0 ?0 ?0 ?0 ?0 ?0 ?0 ?0 ?0 0 70 70 70 70 70 70 70 70 70 70 70 70 70 70 70 70 70 70 70 70 70 70 70 70 70 70 70 70 70  <H3 <H3 <H3 <H3 <H3 <H3 <H3 <H3 <H3 <H3 <H3 <H3 <H3 <H3 <H3 <H3 <H3 <H3 <H3 <H3 <H3 <H3 <H3 <H3 <H3 <H3 <H3 <H3 <H3 H3 ?H3 ?H3 ?H3 ?H3 ?H3 ?H3 ?H3 ?H3 ?H3 ?H3 ?H3 ?H3 ?H3 ?H3 ?H3 ?H3 ?H3 ?H3 ?H3 ?H3 ?H3 ?H3 ?H3 ?H3 ?H3 ?H3 ?H3 ?H3 ?H3  >H7 >H7 >H7 >H7 >H7 >H7 >H7 >H7 >H7 >H7 >H7 >H7 >H7 >H7 >H7 >H7 >H7 >H7 >H7 >H7 >H7 >H7 >H7 >H7 >H7 >H7 >H7 >H7 >H7 H7 AH7 AH7 AH7 AH7 AH7 AH7 AH7 AH7 AH7 AH7 AH7 AH7 AH7 AH7 AH7 AH7 AH7 AH7 AH7 AH7 AH7 AH7 AH7 AH7 AH7 AH7 AH7 AH7 AH7  ?H< ?H< ?H< ?H< ?H< ?H< ?H< ?H< ?H< ?H< ?H< ?H< ?H< ?H< ?H< ?H< ?H< ?H< ?H< ?H< ?H< ?H< ?H< ?H< ?H< ?H< ?H< ?H< ?H< H< >H< >H< >H< >H< >H< >H< >H< >H< >H< >H< >H< >H< >H< >H< >H< >H< >H< >H< >H< >H< >H< >H< >H< >H< >H< >H< >H< >H< >H<  <H0 <H0 <H0 <H0 <H0 <H0 <H0 <H0 <H0 <H0 <H0 <H0 <H0 <H0 <H0 <H0 <H0 <H0 <H0 <H0 <H0 <H0 <H0 <H0 <H0 <H0 <H0 <H0 <H0 H0 ?H0 ?H0 ?H0 ?H0 ?H0 ?H0 ?H0 ?H0 ?H0 ?H0 ?H0 ?H0 ?H0 ?H0 ?H0 ?H0 ?H0 ?H0 ?H0 ?H0 ?H0 ?H0 ?H0 ?H0 ?H0 ?H0 ?H0 ?H0 ?H0  >H2 >H2 >H2 >H2 >H2 >H2 >H2 >H2 >H2 >H2 >H2 >H2 >H2 >H2 >H2 >H2 >H2 >H2 >H2 >H2 >H2 >H2 >H2 >H2 >H2 >H2 >H2 >H2 >H2 H2 <H2 <H2 <H2 <H2 <H2 <H2 <H2 <H2 <H2 <H2 <H2 <H2 <H2 <H2 <H2 <H2 <H2 <H2 <H2 <H2 <H2 <H2 <H2 <H2 <H2 <H2 <H2 <H2 <H2  :C3 :C3 :C3 :C3 :C3 :C3 :C3 :C3 :C3 :C3 :C3 :C3 :C3 :C3 :C3 :C3 :C3 :C3 :C3 :C3 :C3 :C3 :C3 :C3 :C3 :C3 :C3 :C3 :C3 C3 9C3 9C3 9C3 9C3 9C3 9C3 9C3 9C3 9C3 9C3 9C3 9C3 9C3 9C3 9C3 9C3 9C3 9C3 9C3 9C3 9C3 9C3 9C3 9C3 9C3 9C3 9C3 9C3 9C3  :O? :O? :O? :O? :O? :O? :O? :O? :O? :O? :O? :O? :O? :O? :O? :O? :O? :O? :O? :O? :O? :O? :O? :O? :O? :O? :O? :O? :O? O? 7O? 7O? 7O? 7O? 7O? 7O? 7O? 7O? 7O? 7O? 7O? 7O? 7O? 7O? 7O? 7O? 7O? 7O? 7O? 7O? 7O? 7O? 7O? 7O? 7O? 7O? 7O? 7O? 7O?  CO> CO> CO> CO> CO> CO> CO> CO> CO> CO> CO> CO> CO> CO> CO> CO> CO> CO> CO> CO> CO> CO> CO> CO> CO> CO> CO> CO> CO> CO> CO> CO> CO> CO> CO> CO> CO> CO> CO> CO> CO> CO> CO> CO> CO> CO> CO> CO> CO> CO> CO> CO> CO> CO> CO> CO> CO> CO> CO> C CQ< CQ< CQ< CQ< CQ< CQ< CQ< CQ< CQ< CQ< CQ< CQ< CQ< CQ< CQ< CQ< CQ< CQ< CQ< CQ< CQ< CQ< CQ< CQ< CQ< CQ< CQ< CQ< CQ< CQ< CQ< CQ< CQ< CQ< CQ< CQ< CQ< CQ< CQ< CQ< CQ< CQ< CQ< CQ< CQ< CQ< CQ< CQ< CQ< CQ< CQ< CQ< CQ< CQ< CQ< CQ< CQ< CQ< CQ<  BQ> BQ> BQ> BQ> BQ> BQ> BQ> BQ> BQ> BQ> BQ> BQ> BQ> BQ> BQ> BQ> BQ> BQ> BQ> BQ> BQ> BQ> BQ> BQ> BQ> BQ> BQ> BQ> BQ> B> BR> BR> BR> BR> BR> BR> BR> BR> BR> BR> BR> BR> BR> BR> BR> BR> BR> BR> BR> BR> BR> BR> BR> BR> BR> BR> BR> BR> BR> B BT2 BT2 BT2 BT2 BT2 BT2 BT2 BT2 BT2 BT2 BT2 BT2 BT2 BT2 BT2 BT2 BT2 BT2 BT2 BT2 BT2 BT2 BT2 BT2 BT2 BT2 BT2 BT2 BT2 B2 BQ2 BQ2 BQ2 BQ2 BQ2 BQ2 BQ2 BQ2 BQ2 BQ2 BQ2 BQ2 BQ2 BQ2 BQ2 BQ2 BQ2 BQ2 BQ2 BQ2 BQ2 BQ2 BQ2 BQ2 BQ2 BQ2 BQ2 BQ2 BQ2  CR7 CR7 CR7 CR7 CR7 CR7 CR7 CR7 CR7 CR7 CR7 CR7 CR7 CR7 CR7 CR7 CR7 CR7 CR7 R7 AR7 AR7 AR7 AR7 AR7 AR7 AR7 AR7 AR7 A7 AJ7 AJ7 AJ7 AJ7 AJ7 AJ7 AJ7 AJ7 AJ7 J7 ?J7 ?J7 ?J7 ?J7 ?J7 ?J7 ?J7 ?J7 ?J7 ?J7 ?J7 ?J7 ?J7 ?J7 ?J7 ?J7 ?J7 ?J7 ?J7  AO+ AO+ AO+ AO+ AO+ AO+ AO+ AO+ AO+ AO+ AO+ AO+ AO+ AO+ AO+ AO+ AO+ AO+ AO+ O+ ?O+ ?O+ ?O+ ?O+ ?O+ ?O+ ?O+ ?O+ ?O+ ?+ ?R+ ?R+ ?R+ ?R+ ?R+ ?R+ ?R+ ?R+ ?R+ R+ >R+ >R+ >R+ >R+ >R+ >R+ >R+ >R+ >R+ >R+ >R+ >R+ >R+ >R+ >R+ >R+ >R+ >R+ >R+  ?Q+ ?Q+ ?Q+ ?Q+ ?Q+ ?Q+ ?Q+ ?Q+ ?Q+ ?Q+ ?Q+ ?Q+ ?Q+ ?Q+ ?Q+ ?Q+ ?Q+ ?Q+ ?Q+ Q+ >Q+ >Q+ >Q+ >Q+ >Q+ >Q+ >Q+ >Q+ >Q+ >+ >T+ >T+ >T+ >T+ >T+ >T+ >T+ >T+ >T+ T+ <T+ <T+ <T+ <T+ <T+ <T+ <T+ <T+ <T+ <T+ <T+ <T+ <T+ <T+ <T+ <T+ <T+ <T+ <T+  >R+ >R+ >R+ >R+ >R+ >R+ >R+ >R+ >R+ >R+ >R+ >R+ >R+ >R+ >R+ >R+ >R+ >R+ >R+ + <Q+ <Q+ <Q+ <Q+ <Q+ <Q+ <Q+ <Q+ <Q+ <Q+ <Q+ <Q+ <Q+ <Q+ <Q+ <Q+ <Q+ <Q+ <Q+ + :O+ :O+ :O+ :O+ :O+ :O+ :O+ :O+ :O+ :O+ :O+ :O+ :O+ :O+ :O+ :O+ :O+ :O+ :O+  <Q+ <Q+ <Q+ <Q+ <Q+ <Q+ <Q+ <Q+ <Q+ <Q+ <Q+ <Q+ <Q+ <Q+ <Q+ <Q+ <Q+ <Q+ <Q+ + :O+ :O+ :O+ :O+ :O+ :O+ :O+ :O+ :O+ :O+ :O+ :O+ :O+ :O+ :O+ :O+ :O+ :O+ :O+ + 9N+ 9N+ 9N+ 9N+ 9N+ 9N+ 9N+ 9N+ 9N+ 9N+ 9N+ 9N+ 9N+ 9N+ 9N+ 9N+ 9N+ 9N+ 9N+  :O+ :O+ :O+ :O+ :O+ :O+ :O+ :O+ :O+ :O+ :O+ :O+ :O+ :O+ :O+ :O+ :O+ :O+ :O+ + 9N+ 9N+ 9N+ 9N+ 9N+ 9N+ 9N+ 9N+ 9N+ 9N+ 9N+ 9N+ 9N+ 9N+ 9N+ 9N+ 9N+ 9N+ 9N+ + 7L+ 7L+ 7L+ 7L+ 7L+ 7L+ 7L+ 7L+ 7L+ 7L+ 7L+ 7L+ 7L+ 7L+ 7L+ 7L+ 7L+ 7L+ 7L+  9N& 9N& 9N& 9N& 9N& 9N& 9N& 9N& 9N& 9N& 9N& 9N& 9N& 9N& 9N& 9N& 9N& 9N& 9N& 9N& 9N& 9N& 9N& 9N& 9N& 9N& 9N& 9N& 9N& 9& 9L& 9L& 9L& 9L& 9L& 9L& 9L& 9L& 9L& 9L& 9L& 9L& 9L& 9L& 9L& 9L& 9L& 9L& 9L& 9L& 9L& 9L& 9L& 9L& 9L& 9L& 9L& 9L& 9L&  >N2 >N2 >N2 >N2 >N2 >N2 >N2 >N2 >N2 >N2 >N2 >N2 >N2 >N2 >N2 >N2 >N2 >N2 >N2 >N2 >N2 >N2 >N2 >N2 >N2 >N2 >N2 >N2 >N2 2 <J2 <J2 <J2 <J2 <J2 <J2 <J2 <J2 <J2 <J2 <J2 <J2 <J2 <J2 <J2 <J2 <J2 <J2 <J2 <J2 <J2 <J2 <J2 <J2 <J2 <J2 <J2 <J2 <J2  :V2 :V2 :V2 :V2 :V2 :V2 :V2 :V2 :V2 :V2 :V2 :V2 :V2 :V2 :V2 :V2 :V2 :V2 :V2 :V2 :V2 :V2 :V2 :V2 :V2 :V2 :V2 :V2 :V2 V2 9V2 9V2 9V2 9V2 9V2 9V2 9V2 9V2 9V2 9V2 9V2 9V2 9V2 9V2 9V2 9V2 9V2 9V2 9V2 9V2 9V2 9V2 9V2 9V2 9V2 9V2 9V2 9V2 9V2 V 7V4 7V4 7V4 7V4 7V4 7V4 7V4 7V4 7V4 7V4 7V4 7V4 7V4 7V4 7V4 7V4 7V4 7V4 7V4 7V4 7V4 7V4 7V4 7V4 7V4 7V4 7V4 7V4 7V4 V4 6V4 6V4 6V4 6V4 6V4 6V4 6V4 6V4 6V4 6V4 6V4 6V4 6V4 6V4 6V4 6V4 6V4 6V4 6V4 6V4 6V4 6V4 6V4 6V4 6V4 6V4 6V4 6V4 6V4  7T4 7T4 7T4 7T4 7T4 7T4 7T4 7T4 7T4 7T4 7T4 7T4 7T4 7T4 7T4 7T4 7T4 7T4 7T4 7T4 7T4 7T4 7T4 7T4 7T4 7T4 7T4 7T4 7T4 T 9T6 9T6 9T6 9T6 9T6 9T6 9T6 9T6 9T6 9T6 9T6 9T6 9T6 9T6 9T6 9T6 9T6 9T6 9T6 9T6 9T6 9T6 9T6 9T6 9T6 9T6 9T6 9T6 9T6 T :T7 :T7 :T7 :T7 :T7 :T7 :T7 :T7 :T7 :T7 :T7 :T7 :T7 :T7 :T7 :T7 :T7 :T7 :T7 :T7 :T7 :T7 :T7 :T7 :T7 :T7 :T7 :T7 :T7 T 7T4 7T4 7T4 7T4 7T4 7T4 7T4 7T4 7T4 7T4 7T4 7T4 7T4 7T4 7T4 7T4 7T4 7T4 7T4 7T4 7T4 7T4 7T4 7T4 7T4 7T4 7T4 7T4 7T4  96 96 96 96 96 96 96 96 96 96 96 96 96 96 96 96 96 96 96 96 9R6 9R6 9R6 9R6 9R6 9R6 9R6 9R6 9R6 9R 9R2 9R2 9R2 9R2 9R2 9R2 9R2 9R2 9R2 92 9Q2 9Q2 9Q2 9Q2 9Q2 9Q2 9Q2 9Q2 9Q2 9Q2 9Q2 9Q2 9Q2 9Q2 9Q2 9Q2 9Q2 9Q2 9Q2 9 9R7 9R7 9R7 9R7 9R7 9R7 9R7 9R7 9R7 9R7 9R7 9R7 9R7 9R7 9R7 9R7 9R7 9R7 9R7 97 9Q7 9Q7 9Q7 9Q7 9Q7 9Q7 9Q7 9Q7 9Q7 9Q 9Q: 9Q: 9Q: 9Q: 9Q: 9Q: 9Q: 9Q: 9Q: 9: 9O: 9O: 9O: 9O: 9O: 9O: 9O: 9O: 9O: 9O: 9O: 9O: 9O: 9O: 9O: 9O: 9O: 9O: 9O:  Q9 Q9 Q9 Q9 Q9 Q9 Q9 Q9 Q9 Q9 Q9 Q9 Q9 Q9 Q9 Q9 Q9 Q9 Q9 9 O9 O9 O9 O9 O9 O9 O9 O9 O9 O O< O< O< O< O< O< O< O< O< < N< N< N< N< N< N< N< N< N< N< N< N< N< N< N< N< N< N< N<  O: O: O: O: O: O: O: O: O: O: O: O: O: O: O: O: O: O: O: O: O: O: O: O: O: O: O: O: O: O O9 O9 O9 O9 O9 O9 O9 O9 O9 O9 O9 O9 O9 O9 O9 O9 O9 O9 O9 O9 O9 O9 O9 O9 O9 O9 O9 O9 O9 O CO7 CO7 CO7 CO7 CO7 CO7 CO7 CO7 CO7 CO7 CO7 CO7 CO7 CO7 CO7 CO7 CO7 CO7 CO7 CO7 CO7 CO7 CO7 CO7 CO7 CO7 CO7 CO7 CO7 CO CO9 CO9 CO9 CO9 CO9 CO9 CO9 CO9 CO9 CO9 CO9 CO9 CO9 CO9 CO9 CO9 CO9 CO9 CO9 CO9 CO9 CO9 CO9 CO9 CO9 CO9 CO9 CO9 CO9 O ;O5 ;O5 ;O5 ;O5 ;O5 ;O5 ;O5 ;O5 ;O5 ;O5 ;O5 ;O5 ;O5 ;O5 ;O5 ;O5 ;O5 ;O5 ;O5 ;O5 ;O5 ;O5 ;O5 ;O5 ;O5 ;O5 ;O5 ;O5 ;O5 ;O ;O7 ;O7 ;O7 ;O7 ;O7 ;O7 ;O7 ;O7 ;O7 ;O7 ;O7 ;O7 ;O7 ;O7 ;O7 ;O7 ;O7 ;O7 ;O7 ;O7 ;O7 ;O7 ;O7 ;O7 ;O7 ;O7 ;O7 ;O7 ;O7 O <O4 <O4 <O4 <O4 <O4 <O4 <O4 <O4 <O4 <O4 <O4 <O4 <O4 <O4 <O4 <O4 <O4 <O4 <O4 <O4 <O4 <O4 <O4 <O4 <O4 <O4 <O4 <O4 <O4 <O <O7 <O7 <O7 <O7 <O7 <O7 <O7 <O7 <O7 <O7 <O7 <O7 <O7 <O7 <O7 <O7 <O7 <O7 <O7 <O7 <O7 <O7 <O7 <O7 <O7 <O7 <O7 <O7 <O7 < <P5 <P5 <P5 <P5 <P5 <P5 <P5 <P5 <P5 <P5 <P5 <P5 <P5 <P5 <5 <R5 <R5 <R5 <R5 <R5 <R5 <R5 <R5 <R5 <R5 <R5 <R5 <R5 <R5 < <T8 <T8 <T8 <T8 <T8 <T8 <T8 <T8 <T8 <T8 <T8 <T8 <T8 <T8 <T8 <T8 <T8 <T8 <T8 <T8 <T8 <T8 <T8 <T8 <T8 <T8 <T8 <T8 <T8 < <L7 <L7 <L7 <L7 <L7 <L7 <L7 <L7 <L7 <L7 <L7 <L7 <L7 <L7 <L7 <L7 <L7 <L7 <L7 <L7 <L7 <L7 <L7 <L7 <L7 <L7 <L7 <L7 <L7 <L <L: <L: <L: <L: <L: <L: <L: <L: <L: <L: <L: <L: <L: <L: <L: <L: <L: <L: <L: <L: <L: <L: <L: <L: <L: <L: <L: <L: <L: < <L8 <L8 <L8 <L8 <L8 <L8 <L8 <L8 <L8 <L8 <L8 <L8 <L8 <L8 <L8 <L8 <L8 <L8 <L8 <L8 <L8 <L8 <L8 <L8 <L8 <L8 <L8 <L8 <L8 < <M7 <M7 <M7 <M7 <M7 <M7 <M7 <M7 <M7 <M7 <M7 <M7 <M7 <M7 <M7 <M7 <M7 <M7 <M7 <M7 <M7 <M7 <M7 <M7 <M7 <M7 <M7 <M7 <M7 M >M5 >M5 >M5 >M5 >M5 >M5 >M5 >M5 >M5 >M5 >M5 >M5 >M5 >M5 M5 ?M5 ?M5 ?M5 ?M5 ?M5 ?M5 ?M5 ?M5 ?M5 ?M5 ?M5 ?M5 ?M5 ?M5 M AM7 AM7 AM7 AM7 AM7 AM7 AM7 AM7 AM7 AM7 AM7 AM7 AM7 AM7 AM7 AM7 AM7 AM7 AM7 AM7 AM7 AM7 AM7 AM7 AM7 AM7 AM7 AM7 AM7 M 9M3 9M3 9M3 9M3 9M3 9M3 9M3 9M3 9M3 9M3 9M3 9M3 9M3 9M3 9M3 9M3 9M3 9M3 9M3 9M3 9M3 9M3 9M3 9M3 9M3 9M3 9M3 9M3 9M3 9M 9M5 9M5 9M5 9M5 9M5 9M5 9M5 9M5 9M5 9M5 9M5 9M5 9M5 9M5 9M5 9M5 9M5 9M5 9M5 9M5 9M5 9M5 9M5 9M5 9M5 9M5 9M5 9M5 9M5 M :M2 :M2 :M2 :M2 :M2 :M2 :M2 :M2 :M2 :M2 :M2 :M2 :M2 :M2 :M2 :M2 :M2 :M2 :M2 :M2 :M2 :M2 :M2 :M2 :M2 :M2 :M2 :M2 :M2 :M :M5 :M5 :M5 :M5 :M5 :M5 :M5 :M5 :M5 :M5 :M5 :M5 :M5 :M5 :M5 :M5 :M5 :M5 :M5 :M5 :M5 :M5 :M5 :M5 :M5 :M5 :M5 :M5 :M5 : :O3 :O3 :O3 :O3 :O3 :O3 :O3 :O3 :O3 :O3 :O3 :O3 :O3 :O3 :3 :Q3 :Q3 :Q3 :Q3 :Q3 :Q3 :Q3 :Q3 :Q3 :Q3 :Q3 :Q3 :Q3 :Q3 : :R7 :R7 :R7 :R7 :R7 :R7 :R7 :R7 :R7 :R7 :R7 :R7 :R7 :R7 :R7 :R7 :R7 :R7 :R7 :R7 :R7 :R7 :R7 :R7 :R7 :R7 :R7 :R7 :R7 : :J5 :J5 :J5 :J5 :J5 :J5 :J5 :J5 :J5 :J5 :J5 :J5 :J5 :J5 :J5 :J5 :J5 :J5 :J5 :J5 :J5 :J5 :J5 :J5 :J5 :J5 :J5 :J5 :J5 :J :J8 :J8 :J8 :J8 :J8 :J8 :J8 :J8 :J8 :J8 :J8 :J8 :J8 :J8 :J8 :J8 :J8 :J8 :J8 :J8 :J8 :J8 :J8 :J8 :J8 :J8 :J8 :J8 :J8 : :J7 :J7 :J7 :J7 :J7 :J7 :J7 :J7 :J7 :J7 :J7 :J7 :J7 :J7 :J7 :J7 :J7 :J7 :J7 :J7 :J7 :J7 :J7 :J7 :J7 :J7 :J7 :J7 :J7 : :K8 :K8 :K8 :K8 :K8 :K8 :K8 :K8 :K8 :K8 :K8 :K8 :K8 :K8 :K8 :K8 :K8 :K8 :K8 :K8 :K8 :K8 :K8 :K8 :K8 :K8 :K8 :K8 :K8 K <K7 <K7 <K7 <K7 <K7 <K7 <K7 <K7 <K7 <K7 <K7 <K7 <K7 <K7 K7 >K7 >K7 >K7 >K7 >K7 >K7 >K7 >K7 >K7 >K7 >K7 >K7 >K7 >K7 K ?K5 ?K5 ?K5 ?K5 ?K5 ?K5 ?K5 ?K5 ?K5 ?K5 ?K5 ?K5 ?K5 ?K5 ?K5 ?K5 ?K5 ?K5 ?K5 ?K5 ?K5 ?K5 ?K5 ?K5 ?K5 ?K5 ?K5 ?K5 ?K5 K 7K3 7K3 7K3 7K3 7K3 7K3 7K3 7K3 7K3 7K3 7K3 7K3 7K3 7K3 7K3 7K3 7K3 7K3 7K3 7K3 7K3 7K3 7K3 7K3 7K3 7K3 7K3 7K3 7K3 7K 7K2 7K2 7K2 7K2 7K2 7K2 7K2 7K2 7K2 7K2 7K2 7K2 7K2 7K2 7K2 7K2 7K2 7K2 7K2 7K2 7K2 7K2 7K2 7K2 7K2 7K2 7K2 7K2 7K2 K 8K0 8K0 8K0 8K0 8K0 8K0 8K0 8K0 8K0 8K0 8K0 8K0 8K0 8K0 8K0 8K0 8K0 8K0 8K0 8K0 8K0 8K0 8K0 8K0 8K0 8K0 8K0 8K0 8K0 8 8J5 8J5 8J5 8J5 8J5 8J5 8J5 8J5 8J5 8J5 8J5 8J5 8J5 8J5 8J5 8J5 8J5 8J5 8J5 8J5 8J5 8J5 8J5 8J5 8J5 8J5 8J5 8J5 8J5 8 8H3 8H3 8H3 8H3 8H3 8H3 8H3 8H3 8H3 8H3 8H3 8H3 8H3 8H3 8H3 8H3 8H3 8H3 8H3 8H3 8H3 8H3 8H3 8H3 8H3 8H3 8H3 8H3 8H3 8 8F2 8F2 8F2 8F2 8F2 8F2 8F2 8F2 8F2 8F2 8F2 8F2 8F2 8F2 8F2 8F2 8F2 8F2 8F2 8F2 8F2 8F2 8F2 8F2 8F2 8F2 8F2 8F2 8F2 8 8D0 8D0 8D0 8D0 8D0 8D0 8D0 8D0 8D0 8D0 8D0 8D0 8D0 8D0 8D0 8D0 8D0 8D0 8D0 8D0 8D0 8D0 8D0 8D0 8D0 8D0 8D0 8D0 8D0 8 8C. 8C. 8C. 8C. 8C. 8C. 8C. 8C. 8C. 8C. 8C. 8C. 8C. 8C. 8C. 8C. 8C. 8C. 8C. 8C. 8C. 8C. 8C. 8C. 8C. 8C. 8C. 8C. 8C.  H, H, H, H, H, H, H, H, H, H, H, H, H, H, H, H, H, H, H, H, H, H, H, H, H, H, H, H, H, H, 7H, 7H, 7H, 7H, 7H, 7H, 7H, 7H, 7H, 7H, 7H, 7H, 7H, 7H, 7H, 7H, 7H, 7H, 7H, 7H, 7H, 7H, 7H, 7H, 7H, 7H, 7H, 7H, 7H, H 6H< 6H< 6H< 6H< 6H< 6H< 6H< 6H< 6H< 6H< 6H< 6H< 6H< 6H< 6H< 6H< 6H< 6H< 6H< 6H< 6H< 6H< 6H< 6H< 6H< 6H< 6H< 6H< 6H< H 7H: 7H: 7H: 7H: 7H: 7H: 7H: 7H: 7H: 7H: 7H: 7H: 7H: 7H: 7H: 7H: 7H: 7H: 7H: 7H: 7H: 7H: 7H: 7H: 7H: 7H: 7H: 7H: 7H: H 7H8 7H8 7H8 7H8 7H8 7H8 7H8 7H8 7H8 H8 9H8 9H8 9H8 9H8 9H8 9H8 9H8 9H8 9H8 H8 7H8 7H8 7H8 7H8 7H8 7H8 7H8 7H8 7H8 H 6H7 6H7 6H7 6H7 6H7 6H7 6H7 6H7 6H7 6H7 6H7 6H7 6H7 6H7 H7 7H7 7H7 7H7 7H7 7H7 7H7 7H7 7H7 7H7 7H7 7H7 7H7 7H7 7H7  96 96 96 96 96 96 96 96 96 96 96 96 96 96 96 96 96 96 96 96 96 96 96 96 96 96 96 96 96  7J: 7J: 7J: 7J: 7J: 7J: 7J: 7J: 7J: 7J: 7J: 7J: 7J: 7J: 7J: 7J: 7J: 7J: 7J: 7J: 7J: 7J: 7J: 7J: 7J: 7J: 7J: 7J: 7J:  9H9 9H9 9H9 9H9 9H9 9H9 9H9 9H9 9H9 9H9 9H9 9H9 9H9 9H9 9H9 9H9 9H9 9H9 9H9 9H9 9H9 9H9 9H9 9H9 9H9 9H9 9H9 9H9 9H9  :F7 :F7 :F7 :F7 :F7 :F7 :F7 :F7 :F7 :F7 :F7 :F7 :F7 :F7 :F7 :F7 :F7 :F7 :F7 :F7 :F7 :F7 :F7 :F7 :F7 :F7 :F7 :F7 :F7  :E6 :E6 :E6 :E6 :E6 :E6 :E6 :E6 :E6 E6 <E6 <E6 <E6 <E6 <E6 <E6 <E6 <E6 <E6 E6 :E6 :E6 :E6 :E6 :E6 :E6 :E6 :E6 :E6  9C4 9C4 9C4 9C4 9C4 9C4 9C4 9C4 9C4 9C4 9C4 9C4 9C4 9C4 C4 :C4 :C4 :C4 :C4 :C4 :C4 :C4 :C4 :C4 :C4 :C4 :C4 :C4 :C4  <B2 <B2 <B2 <B2 <B2 <B2 <B2 <B2 <B2 <B2 <B2 <B2 <B2 <B2 <B2 <B2 <B2 <B2 <B2 <B2 <B2 <B2 <B2 <B2 <B2 <B2 <B2 <B2 <B2  :F7 :F7 :F7 :F7 :F7 :F7 :F7 :F7 :F7 :F7 :F7 :F7 :F7 :F7 :F7 :F7 :F7 :F7 :F7 :F7 :F7 :F7 :F7 :F7 :F7 :F7 :F7 :F7 :F7  <E6 <E6 <E6 <E6 <E6 <E6 <E6 <E6 <E6 <E6 <E6 <E6 <E6 <E6 <E6 <E6 <E6 <E6 <E6 <E6 <E6 <E6 <E6 <E6 <E6 <E6 <E6 <E6 <E6  9C4 9C4 9C4 9C4 9C4 9C4 9C4 9C4 9C4 9C4 9C4 9C4 9C4 9C4 9C4 9C4 9C4 9C4 9C4 9C4 9C4 9C4 9C4 9C4 9C4 9C4 9C4 9C4 9C4  :B2 :B2 :B2 :B2 :B2 :B2 :B2 :B2 :B2 :B2 :B2 :B2 :B2 :B2 :B2 :B2 :B2 :B2 :B2 :B2 :B2 :B2 :B2 :B2 :B2 :B2 :B2 :B2 :B2  <@0 <@0 <@0 <@0 <@0 <@0 <@0 <@0 <@0 <@0 <@0 <@0 <@0 <@0 <@0 <@0 <@0 <@0 <@0 <@0 <@0 <@0 <@0 <@0 <@0 <@0 <@0 <@0 <@0  >>. >>. >>. >>. >>. >>. >>. >>. >>. >>. >>. >>. >>. >>. >>. >>. >>. >>. >>. >>. >>. >>. >>. >>. >>. >>. >>. >>. >>. >. >C. >C. >C. >C. >C. >C. >C. >C. >C. >C. >C. >C. >C. >C. >C. >C. >C. >C. >C. >C. >C. >C. >C. >C. >C. >C. >C. >C. >C.  <F. <F. <F. <F. <F. <F. <F. <F. <F. <F. <F. <F. <F. <F. <F. <F. <F. <F. <F. <F. <F. <F. <F. <F. <F. <F. <F. <F. <F. . :C. :C. :C. :C. :C. :C. :C. :C. :C. :C. :C. :C. :C. :C. :C. :C. :C. :C. :C. :C. :C. :C. :C. :C. :C. :C. :C. :C. :C.  9B. 9B. 9B. 9B. 9B. 9B. 9B. 9B. 9B. 9B. 9B. 9B. 9B. 9B. 9B. 9B. 9B. 9B. 9B. 9B. 9B. 9B. 9B. 9B. 9B. 9B. 9B. 9B. 9B. . 7C. 7C. 7C. 7C. 7C. 7C. 7C. 7C. 7C. 7C. 7C. 7C. 7C. 7C. 7C. 7C. 7C. 7C. 7C. 7C. 7C. 7C. 7C. 7C. 7C. 7C. 7C. 7C. 7C.  6?0 6?0 6?0 6?0 6?0 6?0 6?0 6?0 6?0 6?0 6?0 6?0 6?0 6?0 6?0 6?0 6?0 6?0 6?0 6?0 6?0 6?0 6?0 6?0 6?0 6?0 6?0 6?0 6?0 0 7C0 7C0 7C0 7C0 7C0 7C0 7C0 7C0 7C0 7C0 7C0 7C0 7C0 7C0 7C0 7C0 7C0 7C0 7C0 7C0 7C0 7C0 7C0 7C0 7C0 7C0 7C0 7C0 7C0  ?F0 ?F0 ?F0 ?F0 ?F0 ?F0 ?F0 ?F0 ?F0 ?F0 ?F0 ?F0 ?F0 ?F0 ?F0 ?F0 ?F0 ?F0 ?F0 ?F0 ?F0 ?F0 ?F0 ?F0 ?F0 ?F0 ?F0 ?F0 ?F0 ?0 ?C0 ?C0 ?C0 ?C0 ?C0 ?C0 ?C0 ?C0 ?C0 ?C0 ?C0 ?C0 ?C0 ?C0 ?C0 ?C0 ?C0 ?C0 ?C0 ?C0 ?C0 ?C0 ?C0 ?C0 ?C0 ?C0 ?C0 ?C0 ?C0 ? ?B0 ?B0 ?B0 ?B0 ?B0 ?B0 ?B0 ?B0 ?B0 ?B0 ?B0 ?B0 ?B0 ?B0 ?B0 ?B0 ?B0 ?B0 ?B0 ?B0 ?B0 ?B0 ?B0 ?B0 ?B0 ?B0 ?B0 ?B0 ?B0 ?0 ?C0 ?C0 ?C0 ?C0 ?C0 ?C0 ?C0 ?C0 ?C0 ?C0 ?C0 ?C0 ?C0 ?C0 ?C0 ?C0 ?C0 ?C0 ?C0 ?C0 ?C0 ?C0 ?C0 ?C0 ?C0 ?C0 ?C0 ?C0 ?C0 ? ?>2 ?>2 ?>2 ?>2 ?>2 ?>2 ?>2 ?>2 ?>2 ?>2 ?>2 ?>2 ?>2 ?>2 ?>2 ?>2 ?>2 ?>2 ?>2 ?>2 ?>2 ?>2 ?>2 ?>2 ?>2 ?>2 ?>2 ?>2 ?>2 ?2 ?C2 ?C2 ?C2 ?C2 ?C2 ?C2 ?C2 ?C2 ?C2 ?C2 ?C2 ?C2 ?C2 ?C2 ?C2 ?C2 ?C2 ?C2 ?C2 ?C2 ?C2 ?C2 ?C2 ?C2 ?C2 ?C2 ?C2 ?C2 ?C2  >F2 >F2 >F2 >F2 >F2 >F2 >F2 >F2 >F2 >F2 >F2 >F2 >F2 >F2 >F2 >F2 >F2 >F2 >F2 >F2 >F2 >F2 >F2 >F2 >F2 >F2 >F2 >F2 >F2 2 <C2 <C2 <C2 <C2 <C2 <C2 <C2 <C2 <C2 <C2 <C2 <C2 <C2 <C2 <C2 <C2 <C2 <C2 <C2 <C2 <C2 <C2 <C2 <C2 <C2 <C2 <C2 <C2 <C2  :B2 :B2 :B2 :B2 :B2 :B2 :B2 :B2 :B2 :B2 :B2 :B2 :B2 :B2 :B2 :B2 :B2 :B2 :B2 :B2 :B2 :B2 :B2 :B2 :B2 :B2 :B2 :B2 :B2 2 9C2 9C2 9C2 9C2 9C2 9C2 9C2 9C2 9C2 9C2 9C2 9C2 9C2 9C2 9C2 9C2 9C2 9C2 9C2 9C2 9C2 9C2 9C2 9C2 9C2 9C2 9C2 9C2 9C2  7<3 7<3 7<3 7<3 7<3 7<3 7<3 7<3 7<3 7<3 7<3 7<3 7<3 7<3 7<3 7<3 7<3 7<3 7<3 7<3 7<3 7<3 7<3 7<3 7<3 7<3 7<3 7<3 7<3 3 6C3 6C3 6C3 6C3 6C3 6C3 6C3 6C3 6C3 6C3 6C3 6C3 6C3 6C3 6C3 6C3 6C3 6C3 6C3 6C3 6C3 6C3 6C3 6C3 6C3 6C3 6C3 6C3 6C3  6F3 6F3 6F3 6F3 6F3 6F3 6F3 6F3 6F3 6F3 6F3 6F3 6F3 6F3 6F3 6F3 6F3 6F3 6F3 6F3 6F3 6F3 6F3 6F3 6F3 6F3 6F3 6F3 6F3 3 7C3 7C3 7C3 7C3 7C3 7C3 7C3 7C3 7C3 7C3 7C3 7C3 7C3 7C3 7C3 7C3 7C3 7C3 7C3 7C3 7C3 7C3 7C3 7C3 7C3 7C3 7C3 7C3 7C3 7 7B3 7B3 7B3 7B3 7B3 7B3 7B3 7B3 7B3 7B3 7B3 7B3 7B3 7B3 7B3 7B3 7B3 7B3 7B3 7B3 7B3 7B3 7B3 7B3 7B3 7B3 7B3 7B3 7B3 73 7C3 7C3 7C3 7C3 7C3 7C3 7C3 7C3 7C3 7C3 7C3 7C3 7C3 7C3 7C3 7C3 7C3 7C3 7C3 7C3 7C3 7C3 7C3 7C3 7C3 7C3 7C3 7C3 7C3 7 7>. 7>. 7>. 7>. 7>. 7>. 7>. 7>. 7>. 7>. 7>. 7>. 7>. 7>. 7>. 7>. 7>. 7>. 7>. 7>. 7>. 7>. 7>. 7>. 7>. 7>. 7>. 7>. 7>. . >C. >C. >C. >C. >C. >C. >C. >C. >C. >C. >C. >C. >C. >C. >C. >C. >C. >C. >C. >C. >C. >C. >C. >C. >C. >C. >C. >C. >C.  <F. <F. <F. <F. <F. <F. <F. <F. <F. <F. <F. <F. <F. <F. <F. <F. <F. <F. <F. <F. <F. <F. <F. <F. <F. <F. <F. <F. <F. . :C. :C. :C. :C. :C. :C. :C. :C. :C. :C. :C. :C. :C. :C. :C. :C. :C. :C. :C. :C. :C. :C. :C. :C. :C. :C. :C. :C. :C.  9B. 9B. 9B. 9B. 9B. 9B. 9B. 9B. 9B. 9B. 9B. 9B. 9B. 9B. 9B. 9B. 9B. 9B. 9B. 9B. 9B. 9B. 9B. 9B. 9B. 9B. 9B. 9B. 9B. . 7C. 7C. 7C. 7C. 7C. 7C. 7C. 7C. 7C. 7C. 7C. 7C. 7C. 7C. 7C. 7C. 7C. 7C. 7C. 7C. 7C. 7C. 7C. 7C. 7C. 7C. 7C. 7C. 7C.  ??0 ??0 ??0 ??0 ??0 ??0 ??0 ??0 ??0 ??0 ??0 ??0 ??0 ??0 ??0 ??0 ??0 ??0 ??0 ??0 ??0 ??0 ??0 ??0 ??0 ??0 ??0 ??0 ??0 0 >C0 >C0 >C0 >C0 >C0 >C0 >C0 >C0 >C0 >C0 >C0 >C0 >C0 >C0 >C0 >C0 >C0 >C0 >C0 >C0 >C0 >C0 >C0 >C0 >C0 >C0 >C0 >C0 >C0  <E0 <E0 <E0 <E0 <E0 <E0 <E0 <E0 <E0 <E0 <E0 <E0 <E0 <E0 <E0 <E0 <E0 <E0 <E0 <E0 <E0 <E0 <E0 <E0 <E0 <E0 <E0 <E0 <E0 0 :C0 :C0 :C0 :C0 :C0 :C0 :C0 :C0 :C0 :C0 :C0 :C0 :C0 :C0 :C0 :C0 :C0 :C0 :C0 :C0 :C0 :C0 :C0 :C0 :C0 :C0 :C0 :C0 :C0  9B0 9B0 9B0 9B0 9B0 9B0 9B0 9B0 9B0 9B0 9B0 9B0 9B0 9B0 9B0 9B0 9B0 9B0 9B0 9B0 9B0 9B0 9B0 9B0 9B0 9B0 9B0 9B0 9B0 0 7C0 7C0 7C0 7C0 7C0 7C0 7C0 7C0 7C0 7C0 7C0 7C0 7C0 7C0 7C0 7C0 7C0 7C0 7C0 7C0 7C0 7C0 7C0 7C0 7C0 7C0 7C0 7C0 7C0  :>2 :>2 :>2 :>2 :>2 :>2 :>2 :>2 :>2 :>2 :>2 :>2 :>2 :>2 :>2 :>2 :>2 :>2 :>2 :>2 :>2 :>2 :>2 :>2 :>2 :>2 :>2 :>2 :>2 :2 :C2 :C2 :C2 :C2 :C2 :C2 :C2 :C2 :C2 :C2 :C2 :C2 :C2 :C2 :C2 :C2 :C2 :C2 :C2 :C2 :C2 :C2 :C2 :C2 :C2 :C2 :C2 :C2 :C2  29<E2 29<E2 29<E2 29<E2 29<E2 29<E2 29<E2 29<E2 29<E2 29<E2 29<E2 29<E2 29<E2 29<E2 29<E2 29<E2 29<E2 29<E2 29<E2 29<E2 29<E2 29<E2 29<E2 29<E2 29<E2 29<E2 29<E2 29<E2 29<E2 29<2 29<C2 29<C2 29<C2 29<C2 29<C2 29<C2 29<C2 29<C2 29<C2 29<C2 29<C2 29<C2 29<C2 29<C2 29<C2 29<C2 29<C2 29<C2 29<C2 29<C2 29<C2 29<C2 29<C2 29<C2 29<C2 29<C2 29<C2 29<C2 29<C2  92>2 92>2 92>2 92>2 92>2 92>2 92>2 92>2 92>2 92>2 92>2 92>2 92>2 92>2 92>2 92>2 92>2 92>2 92>2 92>2 92>2 92>2 92>2 92>2 92>2 92>2 92>2 92>2 92>2 922 92B2 92B2 92B2 92B2 92B2 92B2 92B2 92B2 92B2 92B2 92B2 92B2 92B2 92B2 92B2 92B2 92B2 92B2 92B2 92B2 92B2 92B2 92B2 92B2 92B2 92B2 92B2 92B2 92B2  27C+ 27C+ 27C+ 27C+ 27C+ 27C+ 27C+ 27C+ 27C+ 27C+ 27C+ 27C+ 27C+ 27C+ 27C+ 27C+ 27C+ 27C+ 27C+ 27C+ 27C+ 27C+ 27C+ 27C+ 27C+ 27C+ 27C+ 27C+ 27C+ 27+ 27F+ 27F+ 27F+ 27F+ 27F+ 27F+ 27F+ 27F+ 27F+ 27F+ 27F+ 27F+ 27F+ 27F+ 27F+ 27F+ 27F+ 27F+ 27F+ 27F+ 27F+ 27F+ 27F+ 27F+ 27F+ 27F+ 27F+ 27F+ 27F+  2J7 2J7 2J7 2J7 2J7 2J7 2J7 2J7 2J7 2J7 2J7 2J7 2J7 2J7 2J7 2J7 2J7 2J7 2J7 2J7 2J7 2J7 2J7 2J7 2J7 2J7 2J7 2J7 2J7 27 2C7 2C7 2C7 2C7 2C7 2C7 2C7 2C7 2C7 2C7 2C7 2C7 2C7 2C7 2C7 2C7 2C7 2C7 2C7 2C7 2C7 2C7 2C7 2C7 2C7 2C7 2C7 2C7 2C7  2F6 2F6 2F6 2F6 2F6 2F6 2F6 2F6 2F6 2F6 2F6 2F6 2F6 2F6 2F6 2F6 2F6 2F6 2F6 2F6 2F6 2F6 2F6 2F6 2F6 2F6 2F6 2F6 2F6 26 2J6 2J6 2J6 2J6 2J6 2J6 2J6 2J6 2J6 2J6 2J6 2J6 2J6 2J6 2J6 2J6 2J6 2J6 2J6 2J6 2J6 2J6 2J6 2J6 2J6 2J6 2J6 2J6 2J6  2O7 2O7 2O7 2O7 2O7 2O7 2O7 2O7 2O7 2O7 2O7 2O7 2O7 2O7 2O7 2O7 2O7 2O7 2O7 2O7 2O7 2O7 2O7 2O7 2O7 2O7 2O7 2O7 2O7 27 2J7 2J7 2J7 2J7 2J7 2J7 2J7 2J7 2J7 2J7 2J7 2J7 2J7 2J7 2J7 2J7 2J7 2J7 2J7 2J7 2J7 2J7 2J7 2J7 2J7 2J7 2J7 2J7 2J7  7F? 7F? 7F? 7F? 7F? 7F? 7F? 7F? 7F? 7F? 7F? 7F? 7F? 7F? 7F? 7F? 7F? 7F? 7F? 7F? 7F? 7F? 7F? 7F? 7F? 7F? 7F? 7F? 7F? 7? 7C? 7C? 7C? 7C? 7C? 7C? 7C? 7C? 7C? 7C? 7C? 7C? 7C? 7C? 7C? 7C? 7C? 7C? 7C? 7C? 7C? 7C? 7C? 7C? 7C? 7C? 7C? 7C? 7C?  7O> 7O> 7O> 7O> 7O> 7O> 7O> 7O> 7O> 7O> 7O> 7O> 7O> 7O> 7O> 7O> 7O> 7O> 7O> 7O> 7O> 7O> 7O> 7O> 7O> 7O> 7O> 7O> 7O> 7O> 7O> 7O> 7O> 7O> 7O> 7O> 7O> 7O> 7O> 7O> 7O> 7O> 7O> 7O> 7O> 7O> 7O> 7O> 7O> 7O> 7O> 7O> 7O> 7O> 7O> 7O> 7O> 7O> 7O> O 9O< 9O< 9O< 9O< 9O< 9O< 9O< 9O< 9O< 9O< 9O< 9O< 9O< 9O< 9O< 9O< 9O< 9O< 9O< 9O< 9O< 9O< 9O< 9O< 9O< 9O< 9O< 9O< 9O< 9O< 9O< 9O< 9O< 9O< 9O< 9O< 9O< 9O< 9O< 9O< 9O< 9O< 9O< 9O< 9O< 9O< 9O< 9O< 9O< 9O< 9O< 9O< 9O< 9O< 9O< 9O< 9O< 9O< 9O<  9N9 9N9 9N9 9N9 9N9 9N9 9N9 9N9 9N9 9N9 9N9 9N9 9N9 9N9 9N9 9N9 9N9 9N9 9N9 99 9O9 9O9 9O9 9O9 9O9 9O9 9O9 9O9 9O9 O9 :O9 :O9 :O9 :O9 :O9 :O9 :O9 :O9 :O9 :9 :N9 :N9 :N9 :N9 :N9 :N9 :N9 :N9 :N9 :N9 :N9 :N9 :N9 :N9 :N9 :N9 :N9 :N9 :N9  <O> <O> <O> <O> <O> <O> <O> <O> <O> <O> <O> <O> <O> <O> <> <N> <N> <N> <N> <N> <N> <N> <N> <N> <N> <N> <N> <N> <N> > 9O> 9O> 9O> 9O> 9O> 9O> 9O> 9O> 9O> 9O> 9O> 9O> 9O> 9O> 9> 9N> 9N> 9N> 9N> 9N> 9N> 9N> 9N> 9N> 9N> 9N> 9N> 9N> 9N>  :O7 :O7 :O7 :O7 :O7 :O7 :O7 :O7 :O7 :O7 :O7 :O7 :O7 :O7 :O7 :O7 :O7 :O7 :O7 :O7 :O7 :O7 :O7 :O7 :O7 :O7 :O7 :O7 :O7 :O :O2 :O2 :O2 :O2 :O2 :O2 :O2 :O2 :O2 :O2 :O2 :O2 :O2 :O2 :O2 :O2 :O2 :O2 :O2 :O2 :O2 :O2 :O2 :O2 :O2 :O2 :O2 :O2 :O2 O >O7 >O7 >O7 >O7 >O7 >O7 >O7 >O7 >O7 >O7 >O7 >O7 >O7 >O7 >O7 >O7 >O7 >O7 >O7 >O7 >O7 >O7 >O7 >O7 >O7 >O7 >O7 >O7 >O7 >O >O: >O: >O: >O: >O: >O: >O: >O: >O: >O: >O: >O: >O: >O: >O: >O: >O: >O: >O: >O: >O: >O: >O: >O: >O: >O: >O: >O: >O:  >9 >9 >9 >9 >9 >9 >9 >9 >9 >9 >9 >9 >9 >9 >9 >9 >9 >9 >9 >9 >9 >9 >9 >9 >9 >9 >9 >9 >9 > >< >< >< >< >< >< >< >< >< >< >< >< >< >< >< >< >< >< >< >< >< >< >< >< >< >< >< >< ><  >: >: >: >: >: >: >: >: >: >: >: >: >: >: >: >: >: >: >: >: >: >: >: >: >: >: >: >: >: > >9 >9 >9 >9 >9 >9 >9 >9 >9 >9 >9 >9 >9 >9 >9 >9 >9 >9 >9 >9 >9 >9 >9 >9 >9 >9 >9 >9 >9  >R7 >R7 >R7 >R7 >R7 >R7 >R7 >R7 >R7 >R7 >R7 >R7 >R7 >R7 >R7 >R7 >R7 >R7 >R7 >R7 >R7 >R7 >R7 >R7 >R7 >R7 >R7 >R7 >R7 >R >R9 >R9 >R9 >R9 >R9 >R9 >R9 >R9 >R9 >R9 >R9 >R9 >R9 >R9 >R9 >R9 >R9 >R9 >R9 >R9 >R9 >R9 >R9 >R9 >R9 >R9 >R9 >R9 >R9  >R5 >R5 >R5 >R5 >R5 >R5 >R5 >R5 >R5 >R5 >R5 >R5 >R5 >R5 >R5 >R5 >R5 >R5 >R5 >R5 >R5 >R5 >R5 >R5 >R5 >R5 >R5 >R5 >R5 >R >R7 >R7 >R7 >R7 >R7 >R7 >R7 >R7 >R7 >R7 >R7 >R7 >R7 >R7 >R7 >R7 >R7 >R7 >R7 >R7 >R7 >R7 >R7 >R7 >R7 >R7 >R7 >R7 >R7  <R4 <R4 <R4 <R4 <R4 <R4 <R4 <R4 <R4 <R4 <R4 <R4 <R4 <R4 <R4 <R4 <R4 <R4 <R4 <R4 <R4 <R4 <R4 <R4 <R4 <R4 <R4 <R4 <R4 <R <R0 <R0 <R0 <R0 <R0 <R0 <R0 <R0 <R0 <R0 <R0 <R0 <R0 <R0 <R0 <R0 <R0 <R0 <R0 <R0 <R0 <R0 <R0 <R0 <R0 <R0 <R0 <R0 <R0  <Q5 <Q5 <Q5 <Q5 <Q5 <Q5 <Q5 <Q5 <Q5 <Q5 <Q5 <Q5 <Q5 <Q5 <Q5 <Q5 <Q5 <Q5 <Q5 <Q5 <Q5 <Q5 <Q5 <Q5 <Q5 <Q5 <Q5 <Q5 <Q5 <Q <Q9 <Q9 <Q9 <Q9 <Q9 <Q9 <Q9 <Q9 <Q9 <Q9 <Q9 <Q9 <Q9 <Q9 <Q9 <Q9 <Q9 <Q9 <Q9 <Q9 <Q9 <Q9 <Q9 <Q9 <Q9 <Q9 <Q9 <Q9 <Q9  <Q7 <Q7 <Q7 <Q7 <Q7 <Q7 <Q7 <Q7 <Q7 <Q7 <Q7 <Q7 <Q7 <Q7 <Q7 <Q7 <Q7 <Q7 <Q7 <Q7 <Q7 <Q7 <Q7 <Q7 <Q7 <Q7 <Q7 <Q7 <Q7 <Q <Q: <Q: <Q: <Q: <Q: <Q: <Q: <Q: <Q: <Q: <Q: <Q: <Q: <Q: <Q: <Q: <Q: <Q: <Q: <Q: <Q: <Q: <Q: <Q: <Q: <Q: <Q: <Q: <Q:  <Q9 <Q9 <Q9 <Q9 <Q9 <Q9 <Q9 <Q9 <Q9 <Q9 <Q9 <Q9 <Q9 <Q9 <Q9 <Q9 <Q9 <Q9 <Q9 <Q9 <Q9 <Q9 <Q9 <Q9 <Q9 <Q9 <Q9 <Q9 <Q9 <Q <Q7 <Q7 <Q7 <Q7 <Q7 <Q7 <Q7 <Q7 <Q7 <Q7 <Q7 <Q7 <Q7 <Q7 <Q7 <Q7 <Q7 <Q7 <Q7 <Q7 <Q7 <Q7 <Q7 <Q7 <Q7 <Q7 <Q7 <Q7 <Q7  <Q5 <Q5 <Q5 <Q5 <Q5 <Q5 <Q5 <Q5 <Q5 <Q5 <Q5 <Q5 <Q5 <Q5 <Q5 <Q5 <Q5 <Q5 <Q5 <Q5 <Q5 <Q5 <Q5 <Q5 <Q5 <Q5 <Q5 <Q5 <Q5 <Q <Q7 <Q7 <Q7 <Q7 <Q7 <Q7 <Q7 <Q7 <Q7 <Q7 <Q7 <Q7 <Q7 <Q7 <Q7 <Q7 <Q7 <Q7 <Q7 <Q7 <Q7 <Q7 <Q7 <Q7 <Q7 <Q7 <Q7 <Q7 <Q7  <Q3 <Q3 <Q3 <Q3 <Q3 <Q3 <Q3 <Q3 <Q3 <Q3 <Q3 <Q3 <Q3 <Q3 <Q3 <Q3 <Q3 <Q3 <Q3 <Q3 <Q3 <Q3 <Q3 <Q3 <Q3 <Q3 <Q3 <Q3 <Q3 <Q <Q5 <Q5 <Q5 <Q5 <Q5 <Q5 <Q5 <Q5 <Q5 <Q5 <Q5 <Q5 <Q5 <Q5 <Q5 <Q5 <Q5 <Q5 <Q5 <Q5 <Q5 <Q5 <Q5 <Q5 <Q5 <Q5 <Q5 <Q5 <Q5  :Q2 :Q2 :Q2 :Q2 :Q2 :Q2 :Q2 :Q2 :Q2 :Q2 :Q2 :Q2 :Q2 :Q2 :Q2 :Q2 :Q2 :Q2 :Q2 :Q2 :Q2 :Q2 :Q2 :Q2 :Q2 :Q2 :Q2 :Q2 :Q2 :Q :Q. :Q. :Q. :Q. :Q. :Q. :Q. :Q. :Q. :Q. :Q. :Q. :Q. :Q. :Q. :Q. :Q. :Q. :Q. :Q. :Q. :Q. :Q. :Q. :Q. :Q. :Q. :Q. :Q.  :O3 :O3 :O3 :O3 :O3 :O3 :O3 :O3 :O3 :O3 :O3 :O3 :O3 :O3 :O3 :O3 :O3 :O3 :O3 :O3 :O3 :O3 :O3 :O3 :O3 :O3 :O3 :O3 :O3 :O :O7 :O7 :O7 :O7 :O7 :O7 :O7 :O7 :O7 :O7 :O7 :O7 :O7 :O7 :O7 :O7 :O7 :O7 :O7 :O7 :O7 :O7 :O7 :O7 :O7 :O7 :O7 :O7 :O7  :O5 :O5 :O5 :O5 :O5 :O5 :O5 :O5 :O5 :O5 :O5 :O5 :O5 :O5 :O5 :O5 :O5 :O5 :O5 :O5 :O5 :O5 :O5 :O5 :O5 :O5 :O5 :O5 :O5 :O :O8 :O8 :O8 :O8 :O8 :O8 :O8 :O8 :O8 :O8 :O8 :O8 :O8 :O8 :O8 :O8 :O8 :O8 :O8 :O8 :O8 :O8 :O8 :O8 :O8 :O8 :O8 :O8 :O8  :O7 :O7 :O7 :O7 :O7 :O7 :O7 :O7 :O7 :O7 :O7 :O7 :O7 :O7 :O7 :O7 :O7 :O7 :O7 :O7 :O7 :O7 :O7 :O7 :O7 :O7 :O7 :O7 :O7 :O :O5 :O5 :O5 :O5 :O5 :O5 :O5 :O5 :O5 :O5 :O5 :O5 :O5 :O5 :O5 :O5 :O5 :O5 :O5 :O5 :O5 :O5 :O5 :O5 :O5 :O5 :O5 :O5 :O5  :O3 :O3 :O3 :O3 :O3 :O3 :O3 :O3 :O3 :O3 :O3 :O3 :O3 :O3 :O3 :O3 :O3 :O3 :O3 :O3 :O3 :O3 :O3 :O3 :O3 :O3 :O3 :O3 :O3 :O :O5 :O5 :O5 :O5 :O5 :O5 :O5 :O5 :O5 :O5 :O5 :O5 :O5 :O5 :O5 :O5 :O5 :O5 :O5 :O5 :O5 :O5 :O5 :O5 :O5 :O5 :O5 :O5 :O5  :O2 :O2 :O2 :O2 :O2 :O2 :O2 :O2 :O2 :O2 :O2 :O2 :O2 :O2 :O2 :O2 :O2 :O2 :O2 :O2 :O2 :O2 :O2 :O2 :O2 :O2 :O2 :O2 :O2 :O :O3 :O3 :O3 :O3 :O3 :O3 :O3 :O3 :O3 :O3 :O3 :O3 :O3 :O3 :O3 :O3 :O3 :O3 :O3 :O3 :O3 :O3 :O3 :O3 :O3 :O3 :O3 :O3 :O3  9O0 9O0 9O0 9O0 9O0 9O0 9O0 9O0 9O0 9O0 9O0 9O0 9O0 9O0 9O0 9O0 9O0 9O0 9O0 9O0 9O0 9O0 9O0 9O0 9O0 9O0 9O0 9O0 9O0  :N2 :N2 :N2 :N2 :N2 :N2 :N2 :N2 :N2 :N2 :N2 :N2 :N2 :N2 :N2 :N2 :N2 :N2 :N2 :N2 :N2 :N2 :N2 :N2 :N2 :N2 :N2 :N2 :N2 N <N3 <N3 <N3 <N3 <N3 <N3 <N3 <N3 <N3 <N3 <N3 <N3 <N3 <N3 N3 :N3 :N3 :N3 :N3 :N3 :N3 :N3 :N3 :N3 :N3 :N3 :N3 :N3 :N3 N <N2 <N2 <N2 <N2 <N2 <N2 <N2 <N2 <N2 <N2 <N2 <N2 <N2 <N2 N2 :N2 :N2 :N2 :N2 :N2 :N2 :N2 :N2 :N2 :N2 :N2 :N2 :N2 :N2 N <N0 <N0 <N0 <N0 <N0 <N0 <N0 <N0 <N0 <N0 <N0 <N0 <N0 <N0 N0 :N0 :N0 :N0 :N0 :N0 :N0 :N0 :N0 :N0 :N0 :N0 :N0 :N0 :N0 N 9N. 9N. 9N. 9N. 9N. 9N. 9N. 9N. 9N. 9N. 9N. 9N. 9N. 9N. N. :N. :N. :N. :N. :N. :N. :N. :N. :N. :N. :N. :N. :N. :N. N <N- <N- <N- <N- <N- <N- <N- <N- <N- <N- <N- <N- <N- <N- <N- <N- <N- <N- <N- <N- <N- <N- <N- <N- <N- <N- <N- <N- <N- < <O. <O. <O. <O. <O. <O. <O. <O. <O. <O. <O. <O. <O. <O. <O. <O. <O. <O. <O. <O. <O. <O. <O. <O. <O. <O. <O. <O. <O. < <Q0 <Q0 <Q0 <Q0 <Q0 <Q0 <Q0 <Q0 <Q0 <Q0 <Q0 <Q0 <Q0 <Q0 <0 <O0 <O0 <O0 <O0 <O0 <O0 <O0 <O0 <O0 <O0 <O0 <O0 <O0 <O0 < <Q. <Q. <Q. <Q. <Q. <Q. <Q. <Q. <Q. <Q. <Q. <Q. <Q. <Q. <. <O. <O. <O. <O. <O. <O. <O. <O. <O. <O. <O. <O. <O. <O. < <Q- <Q- <Q- <Q- <Q- <Q- <Q- <Q- <Q- <Q- <Q- <Q- <Q- <Q- <- <O- <O- <O- <O- <O- <O- <O- <O- <O- <O- <O- <O- <O- <O- < <N+ <N+ <N+ <N+ <N+ <N+ <N+ <N+ <N+ <N+ <N+ <N+ <N+ <N+ <+ <O+ <O+ <O+ <O+ <O+ <O+ <O+ <O+ <O+ <O+ <O+ <O+ <O+ <O+  Q* Q* Q* Q* Q* Q* Q* Q* Q* Q* Q* Q* Q* Q* Q* Q* Q* Q* Q* Q* Q* Q* Q* Q* Q* Q* Q* Q* Q* Q* ?Q* ?Q* ?Q* ?Q* ?Q* ?Q* ?Q* ?Q* ?Q* ?Q* ?Q* ?Q* ?Q* ?Q* ?Q* ?Q* ?Q* ?Q* ?Q* ?Q* ?Q* ?Q* ?Q* ?Q* ?Q* ?Q* ?Q* ?Q* ?Q*  >J >J >J >J >J >J >J >J >J >J >J >J >J >J >J >J >J >J >J >J >J >J >J >J >J >J >J >J >J J <J* <J* <J* <J* <J* <J* <J* <J* <J* <J* <J* <J* <J* <J* <J* <J* <J* <J* <J* <J* <J* <J* <J* <J* <J* <J* <J* <J* <J*  :O+ :O+ :O+ :O+ :O+ :O+ :O+ :O+ :O+ :O+ :O+ :O+ :O+ :O+ :O+ :O+ :O+ :O+ :O+ :O+ :O+ :O+ :O+ :O+ :O+ :O+ :O+ :O+ :O+ O <O- <O- <O- <O- <O- <O- <O- <O- <O- <O- <O- <O- <O- <O- <O- <O- <O- <O- <O- <O- <O- <O- <O- <O- <O- <O- <O- <O- <O- O >O. >O. >O. >O. >O. >O. >O. >O. >O. >O. >O. >O. >O. >O. >O. >O. >O. >O. >O. >O. >O. >O. >O. >O. >O. >O. >O. >O. >O. O @O- @O- @O- @O- @O- @O- @O- @O- @O- @O- @O- @O- @O- @O- @O- @O- @O- @O- @O- @O- @O- @O- @O- @O- @O- @O- @O- @O- @O-  AH. AH. AH. AH. AH. AH. AH. AH. AH. AH. AH. AH. AH. AH. H. @H. @H. @H. @H. @H. @H. @H. @H. @H. @H. @H. @H. @H. @H. H AH2 AH2 AH2 AH2 AH2 AH2 AH2 AH2 AH2 AH2 AH2 AH2 AH2 AH2 H2 @H2 @H2 @H2 @H2 @H2 @H2 @H2 @H2 @H2 @H2 @H2 @H2 @H2 @H2  AR0 AR0 AR0 AR0 AR0 AR0 AR0 AR0 AR0 AR0 AR0 AR0 AR0 AR0 R0 @R0 @R0 @R0 @R0 @R0 @R0 @R0 @R0 @R0 @R0 @R0 @R0 @R0 @R0 R >R4 >R4 >R4 >R4 >R4 >R4 >R4 >R4 >R4 >R4 >R4 >R4 >R4 >R4 R4 @R4 @R4 @R4 @R4 @R4 @R4 @R4 @R4 @R4 @R4 @R4 @R4 @R4 @R4 R AR2 AR2 AR2 AR2 AR2 AR2 AR2 AR2 AR2 AR2 AR2 AR2 AR2 AR2 AR2 AR2 AR2 AR2 AR2 AR2 AR2 AR2 AR2 AR2 AR2 AR2 AR2 AR2 AR2 A AR1 AR1 AR1 AR1 AR1 AR1 AR1 AR1 AR1 AR1 AR1 AR1 AR1 AR1 AR1 AR1 AR1 AR1 AR1 AR1 AR1 AR1 AR1 AR1 AR1 AR1 AR1 AR1 AR1 A AQ2 AQ2 AQ2 AQ2 AQ2 AQ2 AQ2 AQ2 AQ2 AQ2 AQ2 AQ2 AQ2 AQ2 AQ2 AQ2 AQ2 AQ2 AQ2 AQ2 AQ2 AQ2 AQ2 AQ2 AQ2 AQ2 AQ2 AQ2 AQ2 A AO4 AO4 AO4 AO4 AO4 AO4 AO4 AO4 AO4 AO4 AO4 AO4 AO4 AO4 AO4 AO4 AO4 AO4 AO4 AO4 AO4 AO4 AO4 AO4 AO4 AO4 AO4 AO4 AO4 A AM2 AM2 AM2 AM2 AM2 AM2 AM2 AM2 AM2 AM2 AM2 AM2 AM2 AM2 AM2 AM2 AM2 AM2 AM2 AM2 AM2 AM2 AM2 AM2 AM2 AM2 AM2 AM2 AM2 A AO4 AO4 AO4 AO4 AO4 AO4 AO4 AO4 AO4 AO4 AO4 AO4 AO4 AO4 AO4 AO4 AO4 AO4 AO4 AO4 AO4 AO4 AO4 AO4 AO4 AO4 AO4 AO4 AO4 A AQ5 AQ5 AQ5 AQ5 AQ5 AQ5 AQ5 AQ5 AQ5 AQ5 AQ5 AQ5 AQ5 AQ5 AQ5 AQ5 AQ5 AQ5 AQ5 AQ5 AQ5 AQ5 AQ5 AQ5 AQ5 AQ5 AQ5 AQ5 AQ5 A AS4 AS4 AS4 AS4 AS4 AS4 AS4 AS4 AS4 AS4 AS4 AS4 AS4 AS4 AS4 AS4 AS4 AS4 AS4 AS4 AS4 AS4 AS4 AS4 AS4 AS4 AS4 AS4 AS4 A AS5 AS5 AS5 AS5 AS5 AS5 AS5 AS5 AS5 AS5 AS5 AS5 AS5 AS5 AS5 AS5 AS5 AS5 AS5 A5 AT5 AT5 AT5 AT5 AT5 AT5 AT5 AT5 AT5 AT AT8 AT8 AT8 AT8 AT8 AT8 AT8 AT8 AT8 A8 AS8 AS8 AS8 AS8 AS8 AS8 AS8 AS8 AS8 AS8 AS8 AS8 AS8 AS8 AS8 AS8 AS8 AS8 AS8 A AT7 AT7 AT7 AT7 AT7 AT7 AT7 AT7 AT7 AT7 AT7 AT7 AT7 AT7 A7 AS7 AS7 AS7 AS7 AS7 AS7 AS7 AS7 AS7 AS7 AS7 AS7 AS7 AS7 A AQ0 AQ0 AQ0 AQ0 AQ0 AQ0 AQ0 AQ0 AQ0 AQ0 AQ0 AQ0 AQ0 AQ0 A0 AS0 AS0 AS0 AS0 AS0 AS0 AS0 AS0 AS0 AS0 AS0 AS0 AS0 AS0  T8 T8 T8 T8 T8 T8 T8 T8 T8 T8 T8 T8 T8 T8 T8 T8 T8 T8 T8 T8 T8 T8 T8 T8 T8 T8 T8 T8 T8 T8 >T8 >T8 >T8 >T8 >T8 >T8 >T8 >T8 >T8 >T8 >T8 >T8 >T8 >T8 >T8 >T8 >T8 >T8 >T8 >T8 >T8 >T8 >T8 >T8 >T8 >T8 >T8 >T8 >T8 T ?T7 ?T7 ?T7 ?T7 ?T7 ?T7 ?T7 ?T7 ?T7 ?T7 ?T7 ?T7 ?T7 ?T7 ?T7 ?T7 ?T7 ?T7 ?T7 ?T7 ?T7 ?T7 ?T7 ?T7 ?T7 ?T7 ?T7 ?T7 ?T7 T7 <T7 <T7 <T7 <T7 <T7 <T7 <T7 <T7 <T7 <T7 <T7 <T7 <T7 <T7 <T7 <T7 <T7 <T7 <T7 <T7 <T7 <T7 <T7 <T7 <T7 <T7 <T7 <T7 <T7  >6 >6 >6 >6 >6 >6 >6 >6 >6 >6 >6 >6 >6 >6 >6 >6 >6 >6 >6 >6 >6 >6 >6 >6 >6 >6 >6 >6 >6 >6 >Q6 >Q6 >Q6 >Q6 >Q6 >Q6 >Q6 >Q6 >Q6 >Q6 >Q6 >Q6 >Q6 >Q6 >Q6 >Q6 >Q6 >Q6 >Q6 >Q6 >Q6 >Q6 >Q6 >Q6 >Q6 >Q6 >Q6 >Q6 >Q6 > >R7 >R7 >R7 >R7 >R7 >R7 >R7 >R7 >R7 >R7 >R7 >R7 >R7 >R7 >R7 >R7 >R7 >R7 >R7 >R7 >R7 >R7 >R7 >R7 >R7 >R7 >R7 >R7 >R7 >7 >O7 >O7 >O7 >O7 >O7 >O7 >O7 >O7 >O7 >O7 >O7 >O7 >O7 >O7 >O7 >O7 >O7 >O7 >O7 >O7 >O7 >O7 >O7 >O7 >O7 >O7 >O7 >O7 >O7  P5 P5 P5 P5 P5 P5 P5 P5 P5 P5 P5 P5 P5 P5 P5 P5 P5 P5 P5 P5 P5 P5 P5 P5 P5 P5 P5 P5 P5 P ;P2 ;P2 ;P2 ;P2 ;P2 ;P2 ;P2 ;P2 ;P2 ;P2 ;P2 ;P2 ;P2 ;P2 ;P2 ;P2 ;P2 ;P2 ;P2 ;P2 ;P2 ;P2 ;P2 ;P2 ;P2 ;P2 ;P2 ;P2 ;P2 P <P3 <P3 <P3 <P3 <P3 <P3 <P3 <P3 <P3 <P3 <P3 <P3 <P3 <P3 <P3 <P3 <P3 <P3 <P3 <P3 <P3 <P3 <P3 <P3 <P3 <P3 <P3 <P3 <P3 < <N2 <N2 <N2 <N2 <N2 <N2 <N2 <N2 <N2 <N2 <N2 <N2 <N2 <N2 <N2 <N2 <N2 <N2 <N2 <N2 <N2 <N2 <N2 <N2 <N2 <N2 <N2 <N2 <N2 < <O3 <O3 <O3 <O3 <O3 <O3 <O3 <O3 <O3 <O3 <O3 <O3 <O3 <O3 <O3 <O3 <O3 <O3 <O3 <O3 <O3 <O3 <O3 <O3 <O3 <O3 <O3 <O3 <O3 O3 9O3 9O3 9O3 9O3 9O3 9O3 9O3 9O3 9O3 9O3 9O3 9O3 9O3 9O3 9O3 9O3 9O3 9O3 9O3 9O3 9O3 9O3 9O3 9O3 9O3 9O3 9O3 9O3 9O3 O :O2 :O2 :O2 :O2 :O2 :O2 :O2 :O2 :O2 :O2 :O2 :O2 :O2 :O2 :O2 :O2 :O2 :O2 :O2 :O2 :O2 :O2 :O2 :O2 :O2 :O2 :O2 :O2 :O2 O2 7O2 7O2 7O2 7O2 7O2 7O2 7O2 7O2 7O2 7O2 7O2 7O2 7O2 7O2 7O2 7O2 7O2 7O2 7O2 7O2 7O2 7O2 7O2 7O2 7O2 7O2 7O2 7O2 7O2  91 91 91 91 91 91 91 91 91 91 91 91 91 91 91 91 91 91 91 91 91 91 91 91 91 91 91 91 91 91 9L1 9L1 9L1 9L1 9L1 9L1 9L1 9L1 9L1 9L1 9L1 9L1 9L1 9L1 9L1 9L1 9L1 9L1 9L1 9L1 9L1 9L1 9L1 9L1 9L1 9L1 9L1 9L1 9L1 9 9M2 9M2 9M2 9M2 9M2 9M2 9M2 9M2 9M2 9M2 9M2 9M2 9M2 9M2 9M2 9M2 9M2 9M2 9M2 9M2 9M2 9M2 9M2 9M2 9M2 9M2 9M2 9M2 9M2 92 9J2 9J2 9J2 9J2 9J2 9J2 9J2 9J2 9J2 9J2 9J2 9J2 9J2 9J2 9J2 9J2 9J2 9J2 9J2 9J2 9J2 9J2 9J2 9J2 9J2 9J2 9J2 9J2 9J2  K0 K0 K0 K0 K0 K0 K0 K0 K0 K0 K0 K0 K0 K0 K0 K0 K0 K0 K0 K0 K0 K0 K0 K0 K0 K0 K0 K0 K0 K 6K- 6K- 6K- 6K- 6K- 6K- 6K- 6K- 6K- 6K- 6K- 6K- 6K- 6K- 6K- 6K- 6K- 6K- 6K- 6K- 6K- 6K- 6K- 6K- 6K- 6K- 6K- 6K- 6K- K 7K. 7K. 7K. 7K. 7K. 7K. 7K. 7K. 7K. 7K. 7K. 7K. 7K. 7K. 7K. 7K. 7K. 7K. 7K. 7K. 7K. 7K. 7K. 7K. 7K. 7K. 7K. 7K. 7K. 7 7I- 7I- 7I- 7I- 7I- 7I- 7I- 7I- 7I- 7I- 7I- 7I- 7I- 7I- 7I- 7I- 7I- 7I- 7I- 7I- 7I- 7I- 7I- 7I- 7I- 7I- 7I- 7I- 7I- 7 7J. 7J. 7J. 7J. 7J. 7J. 7J. 7J. 7J. 7J. 7J. 7J. 7J. 7J. 7J. 7J. 7J. 7J. 7J. 7J. 7J. 7J. 7J. 7J. 7J. 7J. 7J. 7J. 7J. J. 6J. 6J. 6J. 6J. 6J. 6J. 6J. 6J. 6J. 6J. 6J. 6J. 6J. 6J. 6J. 6J. 6J. 6J. 6J. 6J. 6J. 6J. 6J. 6J. 6J. 6J. 6J. 6J. 6J.  7H3 7H3 7H3 7H3 7H3 7H3 7H3 7H3 7H3 7H3 7H3 7H3 7H3 7H3 7H3 7H3 7H3 7H3 7H3 7H3 7H3 7H3 7H3 7H3 7H3 7H3 7H3 7H3 7H3 73 7F3 7F3 7F3 7F3 7F3 7F3 7F3 7F3 7F3 7F3 7F3 7F3 7F3 7F3 7F3 7F3 7F3 7F3 7F3 7F3 7F3 7F3 7F3 7F3 7F3 7F3 7F3 7F3 7F3  <E' <E' <E' <E' <E' <E' <E' <E' <E' <E' <E' <E' <E' <E' <E' <E' <E' <E' <E' <E' <E' <E' <E' <E' <E' <E' <E' <E' <E' <' <C' <C' <C' <C' <C' <C' <C' <C' <C' <C' <C' <C' <C' <C' <C' <C' <C' <C' <C' <C' <C' <C' <C' <C' <C' <C' <C' <C' <C' < <B& <B& <B& <B& <B& <B& <B& <B& <B& <B& <B& <B& <B& <B& <B& <B& <B& <B& <B& <B& <B& <B& <B& <B& <B& <B& <B& <B& <B& B& :B& :B& :B& :B& :B& :B& :B& :B& :B& :B& :B& :B& :B& :B& :B& :B& :B& :B& :B& :B& :B& :B& :B& :B& :B& :B& :B& :B& :B&  9J2 9J2 9J2 9J2 9J2 9J2 9J2 9J2 9J2 9J2 9J2 9J2 9J2 9J2 9J2 9J2 9J2 9J2 9J2 9J2 9J2 9J2 9J2 9J2 9J2 9J2 9J2 9J2 9J2 J2 7J2 7J2 7J2 7J2 7J2 7J2 7J2 7J2 7J2 7J2 7J2 7J2 7J2 7J2 7J2 7J2 7J2 7J2 7J2 7J2 7J2 7J2 7J2 7J2 7J2 7J2 7J2 7J2 7J2 J 6J0 6J0 6J0 6J0 6J0 6J0 6J0 6J0 6J0 6J0 6J0 6J0 6J0 6J0 6J0 6J0 6J0 6J0 6J0 6J0 6J0 6J0 6J0 6J0 6J0 6J0 6J0 6J0 6J0 J0 4J0 4J0 4J0 4J0 4J0 4J0 4J0 4J0 4J0 4J0 4J0 4J0 4J0 4J0 4J0 4J0 4J0 4J0 4J0 4J0 4J0 4J0 4J0 4J0 4J0 4J0 4J0 4J0 4J0 J 2J. 2J. 2J. 2J. 2J. 2J. 2J. 2J. 2J. 2J. 2J. 2J. 2J. 2J. 2J. 2J. 2J. 2J. 2J. 2J. 2J. 2J. 2J. 2J. 2J. 2J. 2J. 2J. 2J. J. 7J. 7J. 7J. 7J. 7J. 7J. 7J. 7J. 7J. 7J. 7J. 7J. 7J. 7J. 7J. 7J. 7J. 7J. 7J. 7J. 7J. 7J. 7J. 7J. 7J. 7J. 7J. 7J. 7J.  :H. :H. :H. :H. :H. :H. :H. :H. :H. :H. :H. :H. :H. :H. :H. :H. :H. :H. :H. :H. :H. :H. :H. :H. :H. :H. :H. :H. :H. . 7F. 7F. 7F. 7F. 7F. 7F. 7F. 7F. 7F. 7F. 7F. 7F. 7F. 7F. 7F. 7F. 7F. 7F. 7F. 7F. 7F. 7F. 7F. 7F. 7F. 7F. 7F. 7F. 7F.  6E. 6E. 6E. 6E. 6E. 6E. 6E. 6E. 6E. 6E. 6E. 6E. 6E. 6E. 6E. 6E. 6E. 6E. 6E. 6E. 6E. 6E. 6E. 6E. 6E. 6E. 6E. 6E. 6E. . 7C. 7C. 7C. 7C. 7C. 7C. 7C. 7C. 7C. 7C. 7C. 7C. 7C. 7C. 7C. 7C. 7C. 7C. 7C. 7C. 7C. 7C. 7C. 7C. 7C. 7C. 7C. 7C. 7C.  3B0 3B0 3B0 3B0 3B0 3B0 3B0 3B0 3B0 3B0 3B0 3B0 3B0 3B0 3B0 3B0 3B0 3B0 3B0 3B0 3B0 3B0 3B0 3B0 3B0 3B0 3B0 3B0 3B0 0 7C0 7C0 7C0 7C0 7C0 7C0 7C0 7C0 7C0 7C0 7C0 7C0 7C0 7C0 7C0 7C0 7C0 7C0 7C0 7C0 7C0 7C0 7C0 7C0 7C0 7C0 7C0 7C0 7C0  :K0 :K0 :K0 :K0 :K0 :K0 :K0 :K0 :K0 :K0 :K0 :K0 :K0 :K0 :K0 :K0 :K0 :K0 :K0 :K0 :K0 :K0 :K0 :K0 :K0 :K0 :K0 :K0 :K0 K0 7K0 7K0 7K0 7K0 7K0 7K0 7K0 7K0 7K0 7K0 7K0 7K0 7K0 7K0 7K0 7K0 7K0 7K0 7K0 7K0 7K0 7K0 7K0 7K0 7K0 7K0 7K0 7K0 7K0 K 6K0 6K0 6K0 6K0 6K0 6K0 6K0 6K0 6K0 6K0 6K0 6K0 6K0 6K0 6K0 6K0 6K0 6K0 6K0 6K0 6K0 6K0 6K0 6K0 6K0 6K0 6K0 6K0 6K0 K0 7K0 7K0 7K0 7K0 7K0 7K0 7K0 7K0 7K0 7K0 7K0 7K0 7K0 7K0 7K0 7K0 7K0 7K0 7K0 7K0 7K0 7K0 7K0 7K0 7K0 7K0 7K0 7K0 7K0 K 2K2 2K2 2K2 2K2 2K2 2K2 2K2 2K2 2K2 2K2 2K2 2K2 2K2 2K2 2K2 2K2 2K2 2K2 2K2 2K2 2K2 2K2 2K2 2K2 2K2 2K2 2K2 2K2 2K2 K2 7K2 7K2 7K2 7K2 7K2 7K2 7K2 7K2 7K2 7K2 7K2 7K2 7K2 7K2 7K2 7K2 7K2 7K2 7K2 7K2 7K2 7K2 7K2 7K2 7K2 7K2 7K2 7K2 7K2  :J2 :J2 :J2 :J2 :J2 :J2 :J2 :J2 :J2 :J2 :J2 :J2 :J2 :J2 :J2 :J2 :J2 :J2 :J2 :J2 :J2 :J2 :J2 :J2 :J2 :J2 :J2 :J2 :J2 2 7H2 7H2 7H2 7H2 7H2 7H2 7H2 7H2 7H2 7H2 7H2 7H2 7H2 7H2 7H2 7H2 7H2 7H2 7H2 7H2 7H2 7H2 7H2 7H2 7H2 7H2 7H2 7H2 7H2  6F2 6F2 6F2 6F2 6F2 6F2 6F2 6F2 6F2 6F2 6F2 6F2 6F2 6F2 6F2 6F2 6F2 6F2 6F2 6F2 6F2 6F2 6F2 6F2 6F2 6F2 6F2 6F2 6F2 2 7E2 7E2 7E2 7E2 7E2 7E2 7E2 7E2 7E2 7E2 7E2 7E2 7E2 7E2 7E2 7E2 7E2 7E2 7E2 7E2 7E2 7E2 7E2 7E2 7E2 7E2 7E2 7E2 7E2  0C3 0C3 0C3 0C3 0C3 0C3 0C3 0C3 0C3 0C3 0C3 0C3 0C3 0C3 0C3 0C3 0C3 0C3 0C3 0C3 0C3 0C3 0C3 0C3 0C3 0C3 0C3 0C3 0C3 3 7B3 7B3 7B3 7B3 7B3 7B3 7B3 7B3 7B3 7B3 7B3 7B3 7B3 7B3 7B3 7B3 7B3 7B3 7B3 7B3 7B3 7B3 7B3 7B3 7B3 7B3 7B3 7B3 7B3  :C3 :C3 :C3 :C3 :C3 :C3 :C3 :C3 :C3 :C3 :C3 :C3 :C3 :C3 :C3 :C3 :C3 :C3 :C3 :C3 :C3 :C3 :C3 :C3 :C3 :C3 :C3 :C3 :C3 C3 7C3 7C3 7C3 7C3 7C3 7C3 7C3 7C3 7C3 7C3 7C3 7C3 7C3 7C3 7C3 7C3 7C3 7C3 7C3 7C3 7C3 7C3 7C3 7C3 7C3 7C3 7C3 7C3 7C3 C 6C3 6C3 6C3 6C3 6C3 6C3 6C3 6C3 6C3 6C3 6C3 6C3 6C3 6C3 6C3 6C3 6C3 6C3 6C3 6C3 6C3 6C3 6C3 6C3 6C3 6C3 6C3 6C3 6C3 C3 7C3 7C3 7C3 7C3 7C3 7C3 7C3 7C3 7C3 7C3 7C3 7C3 7C3 7C3 7C3 7C3 7C3 7C3 7C3 7C3 7C3 7C3 7C3 7C3 7C3 7C3 7C3 7C3 7C3  2. 2. 2. 2. 2. 2. 2. 2. 2. 2. 2. 2. 2. 2. 2. 2. 2. 2. 2. 2. 2. 2. 2. 2. 2. 2. 2. 2. 2. . 7J. 7J. 7J. 7J. 7J. 7J. 7J. 7J. 7J. 7J. 7J. 7J. 7J. 7J. 7J. 7J. 7J. 7J. 7J. 7J. 7J. 7J. 7J. 7J. 7J. 7J. 7J. 7J. 7J.  :H. :H. :H. :H. :H. :H. :H. :H. :H. :H. :H. :H. :H. :H. :H. :H. :H. :H. :H. :H. :H. :H. :H. :H. :H. :H. :H. :H. :H. . 7F. 7F. 7F. 7F. 7F. 7F. 7F. 7F. 7F. 7F. 7F. 7F. 7F. 7F. 7F. 7F. 7F. 7F. 7F. 7F. 7F. 7F. 7F. 7F. 7F. 7F. 7F. 7F. 7F.  6E. 6E. 6E. 6E. 6E. 6E. 6E. 6E. 6E. 6E. 6E. 6E. 6E. 6E. 6E. 6E. 6E. 6E. 6E. 6E. 6E. 6E. 6E. 6E. 6E. 6E. 6E. 6E. 6E. . 7C. 7C. 7C. 7C. 7C. 7C. 7C. 7C. 7C. 7C. 7C. 7C. 7C. 7C. 7C. 7C. 7C. 7C. 7C. 7C. 7C. 7C. 7C. 7C. 7C. 7C. 7C. 7C. 7C.  3K0 3K0 3K0 3K0 3K0 3K0 3K0 3K0 3K0 3K0 3K0 3K0 3K0 3K0 3K0 3K0 3K0 3K0 3K0 3K0 3K0 3K0 3K0 3K0 3K0 3K0 3K0 3K0 3K0 0 7J0 7J0 7J0 7J0 7J0 7J0 7J0 7J0 7J0 7J0 7J0 7J0 7J0 7J0 7J0 7J0 7J0 7J0 7J0 7J0 7J0 7J0 7J0 7J0 7J0 7J0 7J0 7J0 7J0  9H0 9H0 9H0 9H0 9H0 9H0 9H0 9H0 9H0 9H0 9H0 9H0 9H0 9H0 9H0 9H0 9H0 9H0 9H0 9H0 9H0 9H0 9H0 9H0 9H0 9H0 9H0 9H0 9H0 0 7F0 7F0 7F0 7F0 7F0 7F0 7F0 7F0 7F0 7F0 7F0 7F0 7F0 7F0 7F0 7F0 7F0 7F0 7F0 7F0 7F0 7F0 7F0 7F0 7F0 7F0 7F0 7F0 7F0  6E0 6E0 6E0 6E0 6E0 6E0 6E0 6E0 6E0 6E0 6E0 6E0 6E0 6E0 6E0 6E0 6E0 6E0 6E0 6E0 6E0 6E0 6E0 6E0 6E0 6E0 6E0 6E0 6E0 0 7C0 7C0 7C0 7C0 7C0 7C0 7C0 7C0 7C0 7C0 7C0 7C0 7C0 7C0 7C0 7C0 7C0 7C0 7C0 7C0 7C0 7C0 7C0 7C0 7C0 7C0 7C0 7C0 7C0  2F2 2F2 2F2 2F2 2F2 2F2 2F2 2F2 2F2 2F2 2F2 2F2 2F2 2F2 2F2 2F2 2F2 2F2 2F2 2F2 2F2 2F2 2F2 2F2 2F2 2F2 2F2 2F2 2F2 F2 7F2 7F2 7F2 7F2 7F2 7F2 7F2 7F2 7F2 7F2 7F2 7F2 7F2 7F2 7F2 7F2 7F2 7F2 7F2 7F2 7F2 7F2 7F2 7F2 7F2 7F2 7F2 7F2 7F2  9H0 9H0 9H0 9H0 9H0 9H0 9H0 9H0 9H0 9H0 9H0 9H0 9H0 9H0 9H0 9H0 9H0 9H0 9H0 9H0 9H0 9H0 9H0 9H0 9H0 9H0 9H0 9H0 9H0 H0 7H0 7H0 7H0 7H0 7H0 7H0 7H0 7H0 7H0 7H0 7H0 7H0 7H0 7H0 7H0 7H0 7H0 7H0 7H0 7H0 7H0 7H0 7H0 7H0 7H0 7H0 7H0 7H0 7H0  6E2 6E2 6E2 6E2 6E2 6E2 6E2 6E2 6E2 6E2 6E2 6E2 6E2 6E2 62 6F2 6F2 6F2 6F2 6F2 6F2 6F2 6F2 6F2 6F2 6F2 6F2 6F2 6F2 2 7H2 7H2 7H2 7H2 7H2 7H2 7H2 7H2 7H2 7H2 7H2 7H2 7H2 7H2 72 7F2 7F2 7F2 7F2 7F2 7F2 7F2 7F2 7F2 7F2 7F2 7F2 7F2 7F2  7E' 7E' 7E' 7E' 7E' 7E' 7E' 7E' 7E' 7E' 7E' 7E' 7E' 7E' 7E' 7E' 7E' 7E' 7E' 7E' 7E' 7E' 7E' 7E' 7E' 7E' 7E' 7E' 7E' 7' 7O' 7O' 7O' 7O' 7O' 7O' 7O' 7O' 7O' 7O' 7O' 7O' 7O' 7O' 7O' 7O' 7O' 7O' 7O' 7O' 7O' 7O' 7O' 7O' 7O' 7O' 7O' 7O' 7O' 7' 7R' 7R' 7R' 7R' 7R' 7R' 7R' 7R' 7R' 7R' 7R' 7R' 7R' 7R' 7R' 7R' 7R' 7R' 7R' 7R' 7R' 7R' 7R' 7R' 7R' 7R' 7R' 7R' 7R' 7' 7O' 7O' 7O' 7O' 7O' 7O' 7O' 7O' 7O' 7O' 7O' 7O' 7O' 7O' 7O' 7O' 7O' 7O' 7O' 7O' 7O' 7O' 7O' 7O' 7O' 7O' 7O' 7O' 7O' 7 7N 7N 7N 7N 7N 7N 7N 7N 7N 7N 7N 7N 7N 7N 7N 7N 7N 7N 7N 7N 7N 7N 7N 7N 7N 7N 7N 7N 7N 7 7O 7O 7O 7O 7O 7O 7O 7O 7O 7O 7O 7O 7O 7O 7O 7O 7O 7O 7O 7O 7O 7O 7O 7O 7O 7O 7O 7O 7O  I( I( I( I( I( I( I( I( I( I( I( I( I( I( I( I( I( I( I( I( I( I( I( I( I( I( I( I( I( I( CI( CI( CI( CI( CI( CI( CI( CI( CI( CI( CI( CI( CI( CI( CI( CI( CI( CI( CI( CI( CI( CI( CI( CI( CI( CI( CI( CI( CI( I( FI( FI( FI( FI( FI( FI( FI( FI( FI( FI( FI( FI( FI( FI( FI( FI( FI( FI( FI( FI( FI( FI( FI( FI( FI( FI( FI( FI( FI( I( CI( CI( CI( CI( CI( CI( CI( CI( CI( CI( CI( CI( CI( CI( CI( CI( CI( CI( CI( CI( CI( CI( CI( CI( CI( CI( CI( CI( CI(  BH BH BH BH BH BH BH BH BH BH BH BH BH BH BH BH BH BH BH BH BH BH BH BH BH BH BH BH BH H CH CH CH CH CH CH CH CH CH CH CH CH CH CH CH CH CH CH CH CH CH CH CH CH CH CH CH CH CH H >H* >H* >H* >H* >H* >H* >H* >H* >H* >H* >H* >H* >H* >H* >H* >H* >H* >H* >H* >H* >H* >H* >H* >H* >H* >H* >H* >H* >H* >* >K* >K* >K* >K* >K* >K* >K* >K* >K* >K* >K* >K* >K* >K* >K* >K* >K* >K* >K* >K* >K* >K* >K* >K* >K* >K* >K* >K* >K* > >J6 >J6 >J6 >J6 >J6 >J6 >J6 >J6 >J6 >J6 >J6 >J6 >J6 >J6 >J6 >J6 >J6 >J6 >J6 >J6 >J6 >J6 >J6 >J6 >J6 >J6 >J6 >J6 >J6 6 ?H6 ?H6 ?H6 ?H6 ?H6 ?H6 ?H6 ?H6 ?H6 ?H6 ?H6 ?H6 ?H6 ?H6 ?H6 ?H6 ?H6 ?H6 ?H6 ?H6 ?H6 ?H6 ?H6 ?H6 ?H6 ?H6 ?H6 ?H6 ?H6  >F2 >F2 >F2 >F2 >F2 >F2 >F2 >F2 >F2 >F2 >F2 >F2 >F2 >F2 >F2 >F2 >F2 >F2 >F2 >F2 >F2 >F2 >F2 >F2 >F2 >F2 >F2 >F2 >F2 2 <E2 <E2 <E2 <E2 <E2 <E2 <E2 <E2 <E2 <E2 <E2 <E2 <E2 <E2 <E2 <E2 <E2 <E2 <E2 <E2 <E2 <E2 <E2 <E2 <E2 <E2 <E2 <E2 <E2  :C7 :C7 :C7 :C7 :C7 :C7 :C7 :C7 :C7 :C7 :C7 :C7 :C7 :C7 :C7 :C7 :C7 :C7 :C7 :C7 :C7 :C7 :C7 :C7 :C7 :C7 :C7 :C7 :C7 C7 9C7 9C7 9C7 9C7 9C7 9C7 9C7 9C7 9C7 9C7 9C7 9C7 9C7 9C7 9C7 9C7 9C7 9C7 9C7 9C7 9C7 9C7 9C7 9C7 9C7 9C7 9C7 9C7 9C7  <E0 <E0 <E0 <E0 <E0 <E0 <E0 <E0 <E0 <E0 <E0 <E0 <E0 <E0 <E0 <E0 <E0 <E0 <E0 <E0 <E0 <E0 <E0 <E0 <E0 <E0 <E0 <E0 <E0 E0 :E0 :E0 :E0 :E0 :E0 :E0 :E0 :E0 :E0 :E0 :E0 :E0 :E0 :E0 :E0 :E0 :E0 :E0 :E0 :E0 :E0 :E0 :E0 :E0 :E0 :E0 :E0 :E0 :E0  9C2 9C2 9C2 9C2 9C2 9C2 9C2 9C2 9C2 9C2 9C2 9C2 9C2 9C2 92 9B2 9B2 9B2 9B2 9B2 9B2 9B2 9B2 9B2 9B2 9B2 9B2 9B2 9B2 2 :@2 :@2 :@2 :@2 :@2 :@2 :@2 :@2 :@2 :@2 :@2 :@2 :@2 :@2 :2 :B2 :B2 :B2 :B2 :B2 :B2 :B2 :B2 :B2 :B2 :B2 :B2 :B2 :B2  7C+ 7C+ 7C+ 7C+ 7C+ 7C+ 7C+ 7C+ 7C+ 7C+ 7C+ 7C+ 7C+ 7C+ 7C+ 7C+ 7C+ 7C+ 7C+ 7C+ 7C+ 7C+ 7C+ 7C+ 7C+ 7C+ 7C+ 7C+ 7C+ C+ FC+ FC+ FC+ FC+ FC+ FC+ FC+ FC+ FC+ FC+ FC+ FC+ FC+ FC+ FC+ FC+ FC+ FC+ FC+ FC+ FC+ FC+ FC+ FC+ FC+ FC+ FC+ FC+ FC+ C JC. JC. JC. JC. JC. JC. JC. JC. JC. JC. JC. JC. JC. JC. JC. JC. JC. JC. JC. JC. JC. JC. JC. JC. JC. JC. JC. JC. JC. C. FC. FC. FC. FC. FC. FC. FC. FC. FC. FC. FC. FC. FC. FC. FC. FC. FC. FC. FC. FC. FC. FC. FC. FC. FC. FC. FC. FC. FC. C CC2 CC2 CC2 CC2 CC2 CC2 CC2 CC2 CC2 CC2 CC2 CC2 CC2 CC2 CC2 CC2 CC2 CC2 CC2 CC2 CC2 CC2 CC2 CC2 CC2 CC2 CC2 CC2 CC2 C2 FC2 FC2 FC2 FC2 FC2 FC2 FC2 FC2 FC2 FC2 FC2 FC2 FC2 FC2 FC2 FC2 FC2 FC2 FC2 FC2 FC2 FC2 FC2 FC2 FC2 FC2 FC2 FC2 FC2  >7 >7 >7 >7 >7 >7 >7 >7 >7 >7 >7 >7 >7 >7 >7 >7 >7 >7 >7 >7 >7 >7 >7 >7 >7 >7 >7 >7 >7 7 CF7 CF7 CF7 CF7 CF7 CF7 CF7 CF7 CF7 CF7 CF7 CF7 CF7 CF7 CF7 CF7 CF7 CF7 CF7 CF7 CF7 CF7 CF7 CF7 CF7 CF7 CF7 CF7 CF7  FJ2 FJ2 FJ2 FJ2 FJ2 FJ2 FJ2 FJ2 FJ2 FJ2 FJ2 FJ2 FJ2 FJ2 FJ2 FJ2 FJ2 FJ2 FJ2 FJ2 FJ2 FJ2 FJ2 FJ2 FJ2 FJ2 FJ2 FJ2 FJ2 2 CF2 CF2 CF2 CF2 CF2 CF2 CF2 CF2 CF2 CF2 CF2 CF2 CF2 CF2 CF2 CF2 CF2 CF2 CF2 CF2 CF2 CF2 CF2 CF2 CF2 CF2 CF2 CF2 CF2  >C. >C. >C. >C. >C. >C. >C. >C. >C. >C. >C. >C. >C. >C. >C. >C. >C. >C. >C. >C. >C. >C. >C. >C. >C. >C. >C. >C. >C. . CF. CF. CF. CF. CF. CF. CF. CF. CF. CF. CF. CF. CF. CF. CF. CF. CF. CF. CF. CF. CF. CF. CF. CF. CF. CF. CF. CF. CF.  :>+ :>+ :>+ :>+ :>+ :>+ :>+ :>+ :>+ :>+ :>+ :>+ :>+ :>+ :>+ :>+ :>+ :>+ :>+ :>+ :>+ :>+ :>+ :>+ :>+ :>+ :>+ :>+ :>+  >C. >C. >C. >C. >C. >C. >C. >C. >C. >C. >C. >C. >C. >C. >C. >C. >C. >C. >C. >C. >C. >C. >C. >C. >C. >C. >C. >C. >C.  CF2 CF2 CF2 CF2 CF2 CF2 CF2 CF2 CF2 CF2 CF2 CF2 CF2 CF2 CF2 CF2 CF2 CF2 CF2 CF2 CF2 CF2 CF2 CF2 CF2 CF2 CF2 CF2 CF2  >C. >C. >C. >C. >C. >C. >C. >C. >C. >C. >C. >C. >C. >C. >C. >C. >C. >C. >C. >C. >C. >C. >C. >C. >C. >C. >C. >C. >C.  :>+ :>+ :>+ :>+ :>+ :>+ :>+ :>+ :>+ :>+ :>+ :>+ :>+ :>+ :>+ :>+ :>+ :>+ :>+ :>+ :>+ :>+ :>+ :>+ :>+ :>+ :>+ :>+ :>+  >C. >C. >C. >C. >C. >C. >C. >C. >C. >C. >C. >C. >C. >C. >C. >C. >C. >C. >C. >C. >C. >C. >C. >C. >C. >C. >C. >C. >C.  7:& 7:& 7:& 7:& 7:& 7:& 7:& 7:& 7:& 7:& 7:& 7:& 7:& 7:& 7:& 7:& 7:& 7:& 7:& 7:& 7:& 7:& 7:& 7:& 7:& 7:& 7:& 7:& 7:&  :>+ :>+ :>+ :>+ :>+ :>+ :>+ :>+ :>+ :>+ :>+ :>+ :>+ :>+ :>+ :>+ :>+ :>+ :>+ :>+ :>+ :>+ :>+ :>+ :>+ :>+ :>+ :>+ :>+  2C. 2C. 2C. 2C. 2C. 2C. 2C. 2C. 2C. 2C. 2C. 2C. 2C. 2C. 2C. 2C. 2C. 2C. 2C. 2C. 2C. 2C. 2C. 2C. 2C. 2C. 2C. 2C. 2C.  7>+ 7>+ 7>+ 7>+ 7>+ 7>+ 7>+ 7>+ 7>+ 7>+ 7>+ 7>+ 7>+ 7>+ 7>+ 7>+ 7>+ 7>+ 7>+ 7>+ 7>+ 7>+ 7>+ 7>+ 7>+ 7>+ 7>+ 7>+ 7>+  .:& .:& .:& .:& .:& .:& .:& .:& .:& .:& .:& .:& .:& .:& .:& .:& .:& .:& .:& .:& .:& .:& .:& .:& .:& .:& .:& .:& .:&  2>" 2>" 2>" 2>" 2>" 2>" 2>" 2>" 2>" 2>" 2>" 2>" 2>" 2>" 2>" 2>" 2>" 2>" 2>" 2>" 2>" 2>" 2>" 2>" 2>" 2>" 2>" 2>" 2>"  +7À+ +7À+ +7À+ +7À+ +7À+ +7À+ +7À+ +7À+ +7À+ +7À+ +7À+ +7À+ +7À+ +7À+ +7À+ +7À+ +7À+ +7À+ +7À+ +7À+ +7À+ +7À+ +7À+ +7À+ +7À+ +7À+ +7À+ +7À+ +7À+ +7À+ +7À+ +7À+ +7À+ +7À+ +7À+ +7À+ +7À+ +7À+ +7À+ +7À+ +7À+ +7À+ +7À+ +7À+ +7À+ +7À+ +7À+ +7À+ +7À+ +7À+ +7À+ +7À+ +7À+ +7À+ +7À+ +7À+ +7À+ +7À+ +7À+ +7À+ +7À+ +7À+ +7À+ +7À+ +7À+ +7À+ +7À+ +7À+ +7À+ +7À+ +7À+ +7À+ +7À+ +7À+ +7À+ +7À+ +7À+ +7À+ +7À+ +7À+ +7À+ +7À+ +7À+ +7À+ +7À+ +7À+ +7À+ +7À+ +7À+ +7À+ +7À+ +7À+ +7À+ +7À+ +7À+ +7À+ +7À+ +7À+ +7À+ +7À+ +7À+ +7À+ +7À+ +7À+ +7À+ +7À+ +7À+ +7À+ +7À+ +7À+ +7À+ +7À+ +7À+ +7À+ +7À+ +7À+ +7À+ +7À+ +7À+ +7À+ +7À+ +7À+ +7À+ +7À+ +7À+ +7À+ +7À+ +7À+ +7À+ +7À+ +7À+ +7À+ +7À+ +7À+ +7À+ +7À+ +7À+ +7À+ +7À+ +7À+ +7À+ +7À+ +7À+ +7À+ +7À+ +7À+ +7À+ +7À+ +7À+ +7À+ +7À+ +7À+ +7À+ +7À+ +7À+ +7À+ +7À+ +7À+ +7À+ +7À+ +7À+ +7À+ +7À+ +7À+ +7À+ +7À+ +7À+ +7À+ +7À+ +7À+ +7À+ +7À+ +7À+ +7À+ +7À+ +7À+ +7À+ +7À+ +7À+ +À+  