      9 9 9 9 9 9 9 9 9 9 9 9 9 9 9 9 9 9 9 9 9 9 9 9 9 9 9 9 9 9 9 9 9 9 9 9 9 9 9 9 9 9 9 9 9 9 9 9 9 9 9 9 9 9 9 9 9 9 9 9 9 9 9 9 9 9 9 9 9 9 9 9 9 9 9 9 9 9 9 9 9 9 9 9 9 9 9 9 9 9 9 9 9 9 9 9 9 9 9 9 9 9 9 9 9 9 9 9 9 9 9 9 9 9 9 9 9 9 9 9 9 9 9 9 9 9 9 9 9 9 9 9 9 9 9 9 9 9 9 9 9 9 9 9 9 9 9 9 9 9 9 9 9 9 9 9 9 9 9 9 9 9 9 9 9 9 9 9 9 9 9 9 9 9 9 9 9 9 9 9 9 9 9 9 9 9 9 9 9 9 9 9 9 9 9 9 9 9 9 9 9 9 9 9 9 9 9 9 9 9 9 9 9 9 9 9 9 9 9 9 9 9 9 9 9              = = = = = = = = = = = = = = = = = =  ; ; ; ; ; ; ; ; ; ; ; ; ; ; ; ; ; ; ; ; ; ;= ;= ;= ;= ;= ;= = = = = = = = = = = = = = = = = = = = = = = = = = = = = = = = = = = = = = = = = = = = = = = = = = = = = = = = = = = = = = = = = = = = = = = = = = = = = = = = = = = = = = = = = = = = = = = = = = = = = = = = = = = = = = = = = = = = = = = = = = = = = = = = = = = = = = = = = = =        > > > > > > > > > > > > > > > > > > > > > > > > > > > > > > > > > > > > >                                              @ @ @ @ @ @ @ @ @ @ @ @ @ @ @ @ @ @ @ @ @ @ @ @ @ @ @ @ @ @ @ @ @ @ @ @ @ @ @ @ @ @ @> @> @> > > > > > > > > > > > > > > > > > > > > > > > > > >       @ @ @ @ @ @ @ @ @ @ @ @ @ >@ >@ >@ >@ >@ >@ >@ >@ >@ >@ >@ >@ >@ >@ >@ >@ >@ @ @ @ @ @ @ @ @ @ @ @ @ @> @> @> @> @> @> @> @> @> @> @> > > > > > > > > > > > > > >  = = = = = = = = = = = = = = = = = = = = = = = = = = = =    > > > > > > > > > > > > > > > > > > > > > > > > >    @ @ @ @ @ @ @ @ @ @ @ @ @ @ @ @ @ @ @ @ @ @ @ @ @ @ @ @ @ @ @ @ @ @ @ @ @ @ @ @ @ @ @ @ @ @ @ @ @ @ @ @ @ @ @ @ @ @ @ @ @ @ @ @ @ @ @ @ @ @ @ @ @ @ @ @ @ @ @ @ @ @ @ @ @ @ @ @ @ @ @ @ @ @ @ @ @ @ @ @ @ @ @ @ @ @ @ @ @ @ @ @ @ @ @ @ @ 4@ 4@ 4@ 4@ 4@ 4@ 4@ 4@ 4@ 4@ 4@ 4@ 4@ 4@ 4@ 4@ 4@ 4@ 4@ 4@ 4@ 4@ 4@ 4@ 4@ 4@ 4@ 4@ 4@ 4@ 4@ 4@ 4@ 4@ 4@ 4@ 4@ 4@ 4@ 4@ 4@ 4@ 4@ 4@ 4@ 4@ 4@ 4@ 4@ 4@ 4@ 4@ 4@ 4@ 4@ 4@ 4@ 4@ 4@ 4@ 4@ 4@ 4@ 4@ 4@ 4@ 4@ 4@ 4@ 4@ 4@ 4@ 4@ 4@ 4@ 4@ 4@ 4@ 4@ 4@ 4@ 4@ 4@ 4@ 4@ 4@ 4@ 4@ @ @ @ @ @ @ @ @ @ @ @ @ @ @ @ @ @ @ @ @ @ @ @ @ @ @ @ @ @ @6 @6 @6 @6 @6 @6 @6 @6 @6 @6 @6 @6 @6 @6 @6 @6 @6 @6 @6 @6 6 6 6 6 6 6 6 6 6 6 6 6 6 6 6 6 6 6 6 6 6 6 6 6 6 6 6 6 6 6 6 6 6 6 6 6 6 6 6 6 6 6 6 68 68 68 68 8 8 8 8 8 8 8 8 8 8 8 8 8 8 8 8 8 8 8 8 8 8 8 8 8 8 8 8 8 8 8 8 8 8 8 8 8 8 8 8 8 8 8 8 8 8 8 8 8 8 8 8 8    6 6 6 6 6 6 6 6 6 6 6 6 6 6 6 6 6 6 6 6 6 6 6 6 6 6 6 6 6 6 6 6 6 6 6 6 6 6 6 6 6 6 6 6 6 6 6 6 6 6 6 6 6 6 6 6 6 6 6 6 6 68 68 68 68 68 8 8 8 8 8 8 8 8 8 8 8 8 8 8 8 8 8 8 8 8 8 8 8 8 8 8 8 8 8 8 8 8 8 8 8 8 8 8 8 8 8 8 8 8 8 8 8 8 8        9 9 9 9 9 9@ 9@ 9@ 9@ 9@ 9@ 9@ 9@ 9@ 9@ 9@ 9@ 9@ 9@ 9@ 9@ 9@ 9@ 9@ 9@ 9@ 9@ 9@ 9@ 9@ 9@ 8@ 8@ 8@ 8@ 8@ 8@ 8@ 8@ 8@ 8@ 8@ 8@ 8@ 8@ 8@ 8@ 8@ 8@ 8@ 8@ 8@ 8@ @ @ @ 9@ 9@ 9@ 9@ 9@ 9@ 9@ 9@ 9@ 9@ 9@ 9@ 9@ 9@ 9@ 9@ 9@ 9@ 89@ 89@ 89@ 89@ 89@ 89@ 89@ 89@ 9@ 9@ 9@ 9@ 9@ 9@ 9@ 9@ 9@ 9@ 9@ 9@ 9@ 9@ 9@ 9@ 9@ 9@ 9@ 98@ 98@ 98@ 98@ 98@ 98@ 98@ 8@ 8@ 8@ 8@ 8@ 8@ 8@ 8@ 8@ 8@ 8@ 8@ 8@ 8@ 8@ 8@ 8@ 8@ 8@ 8@ 8@ 8@ 8@ 8@ 8@ 8@ 8@ 8@ 8@ 8@ 6@ 6@ 6@ 6@ 6@ 6@ 6@ 6@ 6@ 6@ 6@ 6@ 6@ 6@ 6@ 6@ 6@ 6@ 6@ 6@ 6@ 6@ 6@ 6@ 6@ 6@ 6@ 6@ 6@ 6@ 6@ 6@ 6@ 6@ 6@ 6@ 68@ 68@ 68@ 68@ 8@ 8@ 8@ 8@ 8@ 8@ 8@ 8@ 8@ 8@ 8@ 8@ 8@ 8@ 8@ 8@ 8@ 8@ 8@ 8@ 8@ 8@ 8@ 8@ 8@ 8@ @ @ @ @ @ @ @ @ @ @ @9 @9 @9 @9 @9 @9 @9 @9 @9 @9 @9 @9B @9B 9B 9B 9B 9B 9B 9B 9B 9B 9B 9B 9B 9B 9B 9B 9B 9B 9B 9B 9B 9B 9B 9B 9B 9B 9B 9B 9B 9B 9B 9B 9B 9B 9B 9B 9B 9B 9B 9B 9B 9B 9B 9B 9B 9B 9B 9B 9B 9B 9B 9B 9B 9B 9B 9B 9B 9B 9B 9B 9B 9B 9B 9B 9B 9B @9B @9B @9B @9B @9B @9B @9B @9B @9B @9B @9B @9B @9B @9B @9B @9B @9B @9B @9B @9B @9B @9B @9B @9B @9B @9B @9B @9B @9B @9B @9B @9B @9B @9B @9B @9B @9B @9B @9B @9B @9B @9B @9B @9B @9B @9B @9B @9B @9B @9B @9B @9B @9B @9B @9B @9B @9B @9B @9B @9B @>9B >9B >9B >9B >9B >9B >9B >9B >9B >9B >9B >9B >9B >9B >9B >9B >9B >9B >9B >9B >9B >9B >9B >9B >9B >9B >9B >9B >9B >9B >9B >9B >9B >9B >9B >9B >9B >9B >9B >9B >9B >9B >9B >9B >9B >9B >9B >9B >9B >9B >9B >9B >9B >9B >9B >9B >=9B >=9B =9B =9B =9B =9B =9B =9B =9B =9B =9B =9B =9B =9B =9B =9B =9B =9B =9B =9B =9B =9B =9B =9B =9B =9B =9B =9B =9B =9B =9B =9B =9B =9B =9B =9B =9B =9B =9B =9B =9B =9B =9B =9B =9B =9B =9B =9B =9B =9B =9B =9B =9B =9B =9B =9B =9B =9B =9B =9B =9B =9B =9B =9B =9B =9B =9B 9B 9B B> B> B> B> B> B> B> B> B> B> B> B> B> B> B> B> B> B> B> B> B> B> B> B> B> B> B> B> B> B> B> B> B> B> B> B> B> B> B> B> B> B> B> B> B> B> B> B> B> B> ;B> ;B> ;B> ;B> ;B> ;B> ;B> ;B> ;B> ;B> ;B> ;B> ;B> ;B> ;B> ;B> ;B> ;B> ;B> ;B> ;B> ;B> ;B> ;B> ;B> ;B> ;B> ;B> ;B> ;B> ;B> ;B> ;B> ;B> ;B> ;B> ;B> ;B> ;B> ;B> ;B> ;B> ;B> ;B> ;B> ;B> ;B> ;B> ;B> ;B> ;B> ;B> ;B> ;B> ;B> ;B> ;B> ;B> ;B> ;B> ;B> ;B> ;B> ;B> ;9B> ;9B> ;9B> ;9B> 9B> 9B> 9B> 9B> 9B> 9B> 9B> 9B> 9B> 9B> 9B> 9B> 9B> 9B> 9B> 9B> 9B> 9B> 9B> 9B> 9B> 9B> 9B> 9B> 9B> 9B> 9B> 9B> 9B> 9B> 9B> 9B> 9B> 9B> 9B> 9B> 9B> 9B> 9B> 9B> 9B> 9B> 9B> 9B> 9B> 9B> 9B> 9B> 9B> 9B> 9B> 9B> 9B> 9B> 9B> 97B> 7B> 7B> 7B> 7B> 7B> 7B> 7B> 7B> 7B> 7B> 7B> 7B> 7B> 7B> 7B> 7B> 7B> 7B> 7B> 7B> 7B> 7B> 7B> 7B> 7B> 7B> 7B> 7B> 7B> 7B> 7B> 7B> 7B> 7B> 7B> 7B> 7B> 7B> 7B> 7B> 7B> 7B> 7B> 7B> 7B> 7B> 7B> 7B> 7B> 7B> 7B> 7B> 7B> 7B> 7B> 7B> 7B> 7B> 7B> 7B> 6B> 6B> 6B> 6B> 6B> 6B> 6B> 6B> 6B> 6B> 6B> 6B> 6B> 6B> 6B> 6B> 6B> 6B> 6B> 6B> 6B> 6B> 6B> 6B> 6B> 6B> 6B> 6B> 6B> 6B> 6B> 6B> 6B> 6B> 6B> 6B> 6B> 6B> 6B> 6B> 6B> 6B> 6B> 6B> 6B> 6B> 6B> 6B> 6B> 6B> 6B> 6B> 6B> 6B> 6B> 6B> 6B> 6B> 6B> 6B> B> 4B> 4B> 4B> 4B> 4B> 4B> 4B> 4B> 4B> 4B> 4B> 4B> 4B> 4B> 4B> 4B> 4B> 4B> 4B> 4B> 4B> 4B> 4B> 4B> 4B> 4B> 4B> 4B> 4B> 4B> 4B> 4B> 4B> 4B> 4B> 4B> 4B> 4B> 4B> 4B> 4B> 4B> 4B> 4B> 4B> 4B> 4B> 4B> 4B> 4B> 4B> 4B> 4B> 4B> 4B> 4B> 4B> 4B> 4B> 4B> 4B6> 4B6> 4B6> 4B6> B6> B6> B6> B6> B6> B6> B6> B6> B6> B6> B6> B6> B6> B6> B6> B6> B6> B6> B6> B6> B6> B6> 6> 6> 6> 6> 6> 6> 6> 6> 6> 6> 6> 6> 6> 6> 6> 6> 6> 6> 6> 6> 6> 6> 6> 6> 6> 6> 6> 6> 6> 6> 6> 6> 6> 6> 6> > > > 2> 2> 2> 2> 2> 2> 2> 2> 2> 2> 2> 2> 2> 2> 2> 2> 2> 2> 2> 2> 2> 2> 2> 2> 2> 2> 2> 2> 2> 2> 2> 2> 2> 2> 2> 2> 2> 2> 2> 2> 2> 2> 2> 2> 2> 2> 2> 2> 2> 2> 2> 2> 2> > > > > >9 >9@ >9@ >9@ >9@ >9@ >9@ >9@ >9@ >9@ 9@ 9@ 9@ 9@ 9@ 9@ 9@ 9@ 9@ 9@ 9@ 9@ 9@ 9@ 9@ 9@ 9@ 9@ 9@ 9@ 9@ 9@ 9@ 9@ 9@ 9@ 9@ 9@ 9@ 9@ 9@ 9@ 9@ 9@ 9@ 9@ 9@ 9@ 9@ 9@ 9@ 9@ 9@ 9@ 9@ 9@ 9@ 9@ 9@ 9@ 9@ 9@ 9@ 9@ 9@ 9@ 9@ 9@ >9@ >9@ >9@ >9@ >9@ >9@ >9@ >9@ >9@ >9@ >9@ >9@ >9@ >9@ >9@ >9@ >9@ >9@ >9@ >9@ >9@ >9@ >9@ >9@ >9@ >9@ >9@ >9@ >9@ >9@ >9@ >9@ >9@ >9@ >9@ >9@ >9@ >9@ >9@ >9@ >9@ >9@ >9@ >9@ >9@ >9@ >9@ >9@ >9@ >9@ >9@ >9@ >=9@ >=9@ >=9@ >=9@ >=9@ >=9@ >=9@ =9@ =9@ =9@ =9@ =9@ =9@ =9@ =9@ =9@ =9@ =9@ =9@ =9@ =9@ =9@ =9@ =9@ =9@ =9@ =9@ =9@ =9@ =9@ =9@ =9@ =9@ =9@ =9@ =9@ =9@ =9@ =9@ =9@ =9@ =9@ =9@ =9@ =9@ =9@ =9@ =9@ =9@ =9@ =9@ =9@ =9@ =9@ =9@ 9@ 9@ 9@ 9@ 9;@ 9;@ 9;@ 9;@ 9;@ 9;@ 9;@ 9;@ 9;@ 9;@ 9;@ 9;@ 9;@ 9;@ 9;@ 9;@ 9;@ 9;@ 9;@ 9;@ 9;@ 9;@ 9;@ 9;@ 9;@ 9;@ 9;@ 9;@ 9;@ 9;@ 9;@ 9;@ 9;@ 9;@ 9;@ 9;@ 9;@ 9;@ 9;@ 9;@ 9;@ 9;@ 9;@ 9;@ 9;@ 9;@ 9;@ 9;@ 9;@ 9;@ 9;@ 9;@ 9;@ 9;@ 9;@ 9;@ 9;@ 9;@ 9;@ 9;@ @ @ @= @= @= @= @= @= @= @= @= @= @= @= @= @= @= @= @= @= @= @= @= @= @= @= @= @= @= @= @= @= @= @= @= @= @= @= @= @= @= @= @= @= @= @= @= @= @= @= @= @= @= @= @= 6@= 6@= 6@= 6@= 6@= 6@= 6@= 6@= 6@= 6@= 6@= 6@= 6@= 6@= 6@= 6@= 6@= 6@= 6@= 6@= 6@= 6@= 6@= 6@= 6@= 6@= 6@= 6@= 6@= 6@= 6@= 6@= 6@= 6@= 6@= 6@= 6@= 6@= 6@= 6@= 6@= 6@= 6@= 6@= 6@= 6@= 6@= 6@= 6@= 6@= 6@= 6@= 6@= 6@= 6@= 6@= 6@= 6@= 6@= 6@= 6@= 64@= 64@= 4@= 4@= 4@= 4@= 4@= 4@= 4@= 4@= 4@= 4@= 4@= 4@= 4@= 4@= 4@= 4@= 4@= 4@= 4@= 4@= 4@= 4@= 4@= 4@= 4@= 4@= 4@= 4@= 4@= 4@= 4@= 4@= 4@= 4@= 4@= 4@= 4@= 4@= 4@= 4@= 4@= 4@= 4@= 4@= 4@= 4@= 4@= 4@= 4@= 4@= 4@= 4@= 4@= 42@= 42@= 42@= 42@= 2@= 2@= 2@= 2@= 2@= 2@= 2@= 2@= 2@= 2@= 2@= 2@= 2@= 2@= 2@= 2@= 2@= 2@= 2@= 2@= 2@= 2@= 2@= 2@= 2@= 2@= 2@= 2@= 2@= 2@= 2@= 2@= 2@= 2@= 2@= 2@= 2@= 2@= 2@= 2@= 2@= 2@= 2@= 2@= 2@= 2@= 2@= 2@= 2@= 2@= 2@= 2@= 2@= 2@= 2@= 2@= 2@= 21@= 1@= 1@= 1@= 1@= 1@= 1@= 1@= 1@= 1@= 1@= 1@= 1@= 1@= 1@= 1@= 1@= 1@= 1@= 1@= 1@= 1@= 1@= 1@= 1@= 1@= 1@= 1@= 1@= 1@= 1@= 1@= 1@= 1@= 1@= 1@= 1@= 1@= 1@= 1@= 1@= 1@= 1@= 1@= 1@= 1@= 1@= 1@= 1@= 1@= 1@= 1@= 1@= 1@= 1@= @= @= @= /@= /@= /@= /@= /@= /@= /@= /@= /@= /@= /@= /@= /@= /@= /@= /@= /@= /@= /@= /@= /@= /@= /@= /@= /@= /@= /@= /@= /@= /@= /@= /@= /@= /@= /@= /@= /@= /@= /@= /@= /@= /@= /@= /@= /@= /@= /@= /@= /@= /@= /@= /@= /@= /@= /@= /@= /@= /@= /1@= /1@= /1@= /1@= /1@= 1@= 1@= 1@= 1@= 1@= 1@= 1@= 1@= 1@= 1@= 1@= 1@= 1@= 1@= 1@= 1@= 1@= 1@= 1@= 1@= 1@= 1@= 1@= 1@= 1@= 1@= 1@= 1@= 1@= 1@= 1@= 1@= 1@= 1@= 1@= 1@= 1@= 1@= 1@= 1@= 1@= 1@= 1@= 1@= 1@= 1@= 1@= 1@= 1@= 1@= @= @= @= @= @= @= -@= -@= -@= -@= -@= -@= -@= -@= -@= -@= -@= -@= -@= -@= -@= -@= -@= -@= -@= -@= -@= -@= -@= -@= -@= -@= -@= -@= -@= -@= -@= -@= -@= -@= -@= -@= -@= -@= -@= -@= -@= -@= -@= -@= -@= -@= -@= -@= -@= -@= -@= -@= @= @= @= @= = = = = = = = = = = = = = = = = =6> =6> =6> =6> 6> 6> 6> 6> 6> 6> 6> 6> 6> 6> 6> 6> 6> 6> 6> 6> 6> 6> 6> 6> 6> 6> 6> 6> 6> 6> 6> 6> 6> 6> 6> 6> 6> 6> 6> 6> 6> 6> 6> 6> 6> 6> 6> 6> 6> 6> 6> 6> 6> 6> 6> 6> 6> 6> =6> =6> =6> =6> =6> =6> =6> =6> =6> =6> =6> =6> =6> =6> =6> =6> =6> =6> =6> =6> =6> =6> =6> =6> =6> =6> =6> =6> =6> =6> =6> =6> =6> =6> =6> =6> =6> =6> =6> =6> =6> =6> =6> =6> =6> =6> =6> =6> =6> =6> =6> =6> =6> =6> =6> =6> =6> =6> =6> =;6> =;6> =;6> ;6> ;6> ;6> ;6> ;6> ;6> ;6> ;6> ;6> ;6> ;6> ;6> ;6> ;6> ;6> ;6> ;6> ;6> ;6> ;6> ;6> ;6> ;6> ;6> ;6> ;6> ;6> ;6> ;6> ;6> ;6> ;6> ;6> ;6> ;6> ;6> ;6> ;6> ;6> ;6> ;6> ;6> ;6> ;6> ;6> ;6> ;6> ;6> ;6> ;6> ;6> ;6> ;6> ;6> ;6> ;6> ;6> ;6> ;6> ;96> 96> 96> 96> 96> 96> 96> 96> 96> 96> 96> 96> 96> 96> 96> 96> 96> 96> 96> 96> 96> 96> 96> 96> 96> 96> 96> 96> 96> 96> 96> 96> 96> 96> 96> 96> 96> 96> 96> 96> 96> 96> 96> 96> 96> 96> 96> 96> 96> 96> 96> 96> 96> 96> 96> 6>; 6>; 6>; 6>; 6>; 6>; 6>; 6>; 6>; 6>; 6>; 6>; 6>; 6>; 6>; 6>; 6>; 6>; 6>; 6>; 6>; 6>; 6>; 6>; 6>; 6>; >; >; >; >; >; >; >; >; >; >; >; >; >; >; >; >; >; >; >; >; >; >; >; >; >; >; >; >; >; >; >; >; 9>; 9>; 9>; 9>; 9>; 9>; 9>; 9>; 9>; 9>; 9>; 9>; 9>; 9>; 9>; 9>; 9>; 9>; 9>; 9>; 9>; 9>; 9>; 9>; 9>; 9>; 9>; 9>; 9>; 9>; 9>; 9>; 9>; 9>; 9>; 9>; 9>; 9>; 9>; 9>; 9>; 9>; 9>; 9>; 9>; 9>; 9>; 9>; 9>; 9>; 9>; 9>; 9>; 9>; 9>; 9>; 9>; 9>; 9>; 9>; 98>; 98>; 98>; 98>; 8>; 8>; 8>; 8>; 8>; 8>; 8>; 8>; 8>; 8>; 8>; 8>; 8>; 8>; 8>; 8>; 8>; 8>; 8>; 8>; 8>; 8>; 8>; 8>; 8>; 8>; 8>; 8>; 8>; 8>; 8>; 8>; 8>; 8>; 8>; 8>; 8>; 8>; 8>; 8>; 8>; 8>; 8>; 8>; 8>; 8>; 8>; 8>; 8>; 8>; >; >; >; >; >; >; 6>; 6>; 6>; 6>; 6>; 6>; 6>; 6>; 6>; 6>; 6>; 6>; 6>; 6>; 6>; 6>; 6>; 6>; 6>; 6>; 6>; 6>; 6>; 6>; 6>; 6>; 6>; 6>; 6>; 6>; 6>; 6>; 6>; 6>; 6>; 6>; 6>; 6>; 6>; 6>; 6>; 6>; 6>; 6>; 6>; 6>; 6>; 6>; 6>; 6>; 6>; 6>; 6>; >; >; >; >8; >8; >8; >8; >8; >8; >8; >8; >8; >8; >8; >8; >8; >8; >8; >8; >8; >8; >8; >8; >8; >8; >8; >8; >8; >8; >8; >8; >8; >8; >8; >8; >8; >8; >8; >8; >8; >8; >8; >8; >8; >8; >8; >8; >8; >8; >8; >8; >8; >8; >8; >8; >8; >8; >8; >8; >8; >8; >8; >8; >8; >8; >8; >8; >8; >8; >8; >8; >8; >8; >8; >8; >B8; >B8; >B8; B8; B8; B8; B8; B8; B8; B8; B8; B8; B8; B8; B8; B8; B8; B8; B8; B8; B8; B8; B8; B8; B8; B8; B8; B8; B8; B8; B8; B8; B8; B8; B8; B8; B8; B8; B8; B8; B8; B8; B8; B8; B8; B8; B8; B8; B8; B8; B8; B8; B8; B8; B8; B8; B8; B8; B8; B@8; B@8; B@8; @8; @8; @8; @8; @8; @8; @8; @8; @8; @8; @8; @8; @8; @8; @8; @8; @8; @8; @8; @8; @8; @8; @8; @8; @8; @8; @8; @8; @8; @8; @8; @8; @8; @8; @8; @8; @8; @8; @8; @8; @8; @8; @8; @8; @8; @8; @8; @8; @8; @8; @8; @8; @>8; @>8; @>8; @>8; @>8; @>8; @>8; @>8; >8; >8; >8; >8; >8; >8; >8; >8; >8; >8; >8; >8; >8; >8; >8; >8; >8; >8; >8; >8; >8; >8; >8; >8; >8; >8; >8; >8; >8; 8; 8; 8; 8; 8; 8; 8; 8; 8; 8; 8; 8; 8; 8; 8; 8; 8; 8; 8; 8; 8; 8; 8; ;  9 9 9= 9= 9= 9= 9= 9= 9= 9= 9= 9= 9= 9= 9= 9= 9= 9= 9= 9= 9= 9= 9= 9= 9= 9= 9= 9= 9= 9= 9= 9= 9= 9= 9= 9= 9= 9= 9= 9= 9= 9= 9= 9= 9= 9= 9= 9= 9= 9= 9= 9= 9= 9= 9= 9= 9= 9;= 9;= 9;= 9;= 9;= 9;= 9;= 9;= ;= ;= ;= ;= ;= ;= ;= ;= ;= ;= ;= ;= ;= ;= ;= ;= ;= ;= ;= ;= ;= ;= ;= ;= ;= ;= ;= ;= ;= ;= ;= ;= ;= ;= ;= ;= ;= ;= ;= ;= ;= ;= ;= ;= ;= ;= ;= ;= ;= ;= = = = = = -= -= -= -= -= -= -= 9-= 9-= 9-= 9-= 9-= 9-= 9-= 9-= 9-= 9-= 9-= 9-= 9-= 9-= 9-= 9-= 9-= 9-= 9-= 9-= 9-= 9-= 9-= 9-= 9-= 9-= 9-= 9-= 9-= 9-= 9-= 9-= 9-= 9-= 9-= 9-= 9-= 9-= 9-= 9-= 9-= 9-= 9-= 9-= 9-= 9-8= 9-8= 9-8= -8= -8= 8= 8= 8= 8= 8= 8= 8= 8= 8= 8= 8= 8= 8= 8= 8= 8= 8= 8= 8= 8= 8= 8= 8= 8= 8= 8= 8= 8= 8= 8= 8= 8= 8= 8= 8= 8= 8= = = = = = = = = = = = = = = = = = =1 =1 =1 =1 =1 =1 =1 =1 =1 =1 =1 =1 =1 =1 =19 =19 =19 =19 =19 =19 =19 =19 =19 =19 =19 =19 =19 =19 =19 =19 =19 =19 =19 =19 =19 =19 =19 =19 =19 =19 =19 =19 =19 =19 =19 =19 =19 =19 =19 =19 =19 =19 =19 =19 =19 =19 =19 =19 =19 =19 =19 =19 =19 =19 =19 =19 =19 =19 =19 =19 =19 =19 =19 =@19 @19 @19 @19 @19 @19 @19 @19 @19 @19 @19 @19 @19 @19 @19 @19 @19 @19 @19 @19 @19 @19 @19 @19 @19 @19 @19 @19 @19 @19 @19 @19 @19 @19 @19 @19 @19 @19 @19 @19 @19 @19 @19 @19 @19 @19 @19 @19 @19 @19 @19 @19 @19 @19 @19 @19 @19 @19 @19 @19 @19 @19 @19 @19 @1>9 @1>9 @1>9 @1>9 @1>9 1>9 1>9 1>9 1>9 1>9 1>9 1>9 1>9 1>9 1>9 1>9 1>9 1>9 1>9 1>9 1>9 1>9 1>9 1>9 1>9 1>9 1>9 1>9 1>9 1>9 1>9 1>9 1>9 1>9 1>9 1>9 1>9 1>9 1>9 1>9 1>9 1>9 1>9 1>9 1>9 1>9 1>9 1>9 1>9 1>9 1>9 1>9 1>29 1>29 1>29 >29 >29 >29 >29 >2=9 >2=9 2=9 2=9 2=9 2=9 2=9 2=9 2=9 2=9 2=9 2=9 2=9 2=9 2=9 2=9 2=9 2=9 2=9 =9 =9 =9 =9 =9 =9 =9 =9 =9 =9 =9 =9 =9 =9 =9 =9 =9 =9 =9 =9 =9 =9 =9 =9 =9 =9 =9 =9 =9 =9 =9 =9 =9 =9 =9 =9 =9 =9 94 94 94; 94; 94; 94; 94; 4; 4; 4; 4; 4; 4; 4; 4; 4; 4; 4; 4; 4; 4; 4; 4; 4; 4; 4; 4; 4; 4; 4; 4; 4; ; 2; 2; 2; 2; 2; 2; 2; 2; 2; 2; 2; 2; 2; 2; 2; 2; 2; 2; 2; 2; 2; 2; 2; 2; 2; 2; 2; 2; ; 9; 49; 49; 49; 49; 49; 49; 49; 49; 49; 49; 49; 49; 49; 49; 49; 49; 49; 49; 49; 49; 49; 49; 429; 429; 29; 29; 29; 29; 29; 29; 29; 29; 29; 29; 9; 9; 49; 49; 49; 49; 49; 49; 49; 49; 49; 49; 49; 49; 49; 49; 49; 49; 492; 492; 492; 492; 492; 492; 492; 492; 92; 92; 92; 92; 2; 2; 28; 28; 28; 28; 28; 28; 28; 28; 28; 28; 28; 28; 28; 28; 28; 28; 28; 28; 28; 28; 281; 281; 81; 81; 81; 81; 81; 81; 81; 81; 81; 81; 81; 81; 81; 81; 81; 81; 81; 81; 81; 81; 81; 81; 81; 81; 81; 81; 81; 81; 81; 81; 81; 81; 1; 1; 1; 1; 16; 16; 16; 16; 16; 16; 16; 16; 16; 16; 16; 16; 16; 16; 126; 126; 126; 126; 126; 126; 26; 26; 26; 26; 26; 26; 26; 26; 26; 26; 26; 26; 26; 26; 26; 26; 26; 26; 26; 26; 26; 26; 26; 26; 26; 26; 26; 26; 26; 26; 26; 26;4 26;4 6;4 ;4 ;4 ;4 ;84 ;84 ;84 ;84 ;84 ;84 ;84 ;84 ;84 ;84 ;84 ;84 ;84 ;84 ;84 ;84 ;84 ;84 ;84 ;84 ;84 ;84 ;84 ;84 ;84 ;84 ;84 ;84 ;84 ;84 ;84 ;84 ;84 ;84 ;84 ;84 ;84 ;84 ;84 ;84 ;84 ;84 ;84 ;84 ;84 ;84 ;84 ;84 ;84 ;84 ;84 ;84 ;84 ;84 ;84 ;84 ;84 ;84 ;84 ;8@4 8@4 8@4 8@4 8@4 8@4 8@4 8@4 8@4 8@4 8@4 8@4 8@4 8@4 8@4 8@4 8@4 8@4 8@4 8@4 8@4 8@4 8@4 8@4 8@4 8@4 8@4 8@4 8@4 8@4 8@4 8@4 8@4 8@4 8@4 8@4 8@4 8@4 8@4 8@4 8@4 8@4 8@4 8@4 8@4 8@4 8@4 8@4 8@4 @4 @4 @4 @4 4 4 4 ?4 ?4 ?4 ?4 ?4 ?4 ?4 ?4 ?4 ?4 ?4 ?4 ?4 ?4 ?4 ?4 ?4 ?4 ?4 ?4 ?4 ?4 ?4 ?4 ?4 ?4 ?4 ?4 ?4 ?4 ?4 ?4 ?4 ?4 ?4 ?4 ?4 ?4 ?4 ?4 ?4 ?4 ?4 ?4 ?4 ?4 ?4 ?4 ?4 ?4 ?4 ?4 ?4 ?4 ?4 ?4 ?84 ?84 ?8@4 ?8@4 ?8@4 ?8@4 8@4 8@4 8@4 8@4 8@4 8@4 8@4 8@4 8@4 8@4 8@4 8@4 8@4 8@4 8@4 8@4 8@4 8@4 @4 @4 @4 @4 @4 @4 @4 @4 @4 @4 @4 @4 @4 @4 @4 @4 @4 @4 @4 @4 @4 @4 @4 @4 @4 @4 @4 @4 @4 @4 @4 @4 @4 @4 @4 @4 @4 @94 @94 @94 @94 @9B4 @9B4 9B4 9B4 9B4 9B4 9B4 9B4 9B4 9B4 9B4 9B4 9B4 9B4 9B4 9B4 9B4 9B4 9B4 9B4 9B4 9B4 9B4 9B4 9B4 9B4 9B4 9B4 9B4 9B4 9B4 9B4 9B4 9B4 9B4 9B4 9B4 9B4 9B4 9B4 9B4 9B4 9B4 9B4 9B4 9B4 9B4 9B4 9B4 9B4 9B4 9B;4 9B;4 B;4 B;4 B;4 B;4 B;4 B;4 B;4 B;4 B;D4 ;D4 ;D4 ;D4 ;D4 ;D4 ;D4 ;D4 ;D4 ;D4 ;D4 ;D4 ;D4 ;D4 ;D4 ;D4 ;D4 ;D4 ;D4 ;D4 ;D4 ;D4 ;D4 ;D4 ;D4 ;D4 ;D4 ;D4 ;D4 ;D4 ;D4 ;D4 ;D4 ;D4 ;D4 ;D4 ;D4 ;D4 ;D4 ;D4 ;D4 ;D4 ;D4 ;D4 ;D4 ;D4 ;D4 D4 D4 D4 D4 D4 D4 D4 D49 D49 D49 49 49 49B 49B 49B 49B 49B 49B 49B 49B 49B 49B 49B 49B 49B 49B 49B 49B 49B 49B 49B 49B 9B 9B 9B 9B 9B 9B 9B 9B 9B 9B 9B 9B 9B 9B 9B 9B 9B 9B 9B 9B 9B 9B 9B 9B 9B 9B 9B B B B; B; B; B; B; B; B;D B;D B;D B;D B;D B;D B;D B;D ;D ;D ;D ;D ;D ;D ;D ;D ;D ;D D D D D D D D D D D D D D D D D D D D D D D D D D D D D D D D D D D D D4 D4 D4 D4 DE4 DE4 DE4 DE4 DE4 DE4 DE4 E4 E4 E4 E4 E4 E4 E4 E4 E4 E4 E4 E4 E4 E4 E4 E4 E4 E4 E4 E4 E4 E4 E4 E4 E4 E4 E4 E4 ED4 ED4 ED4 ED4 D4 D4 D4 D4 D4 D4 D4 D4 D4 D4 D4 D4 D4 D4 D4 D4 D;4 D;4 D;4 D;4 D;4 D;4 D;4 D;4 D;4 ;4 ;4 ;4 ;4 ;4 ;4 ;E4 ;E4 ;E4 ;E4 ;E4 E4 E4 E4 E4 E4 E4 E4 E4 E4 E4 E4 E4 E4 E4 4 4 D4 D4 D4 D4 D4 D4 D4 D4 D4 D4 D4 D4 D4 D4 D4 D4 D4 D4 D4 D4 4 4 E4 E4 E4 E4 E4 E4 E4 E4 E4 E4@ E4@ E4@ E4@ E4@ 4@ D4@ D4@ D4@ D4@ D4@ D4@ D4@ D4@ D4@ D4@ D4@ D4@ D4@ DE4@ DE4@ DE4@ DE4@ DE4@ DE4@ DE4@ DE4@ DE4@ DE4@ DE4@ DE4@ E4@ E4@ E4@ E4@ E4@ E4@ E4@ EB4@ B4@ B4@ B4@ B4@ B4@ B4@ B4@ B4@ B4@ B4@ B4@ B4@ B4@ B4@ B4@ B4@ B4@ B4@ B4@ B4@ B4@ B4@ B4@ B4@ B4@ B4@ B4@ B4@ B4@ BD4@ D4@ D4@ D4@ D4@ D4@ D4@ D4@ D4@ D4@ D4@ D4@ D4@ D4@ D4@ D4@ D4@ D4@ D4@ D4@ D4@ D4@ D4@ D4@ D4@ D4@E D4@E D4@E D4@E D4@E 4@E 4@E 4@E 4@E 4@E 4@E 4@E 4@E 4@E 4@E 4@E 4@E 4@E 4@E 4@E 4@E 4@E 4@E 4@E 4@E 4@E6 4@E6 4@E6 4@E6 4@E6 4@E6 4@E6 4@E6 4@E6 4@E6 4@E6 @E6 @E6 @E6 @E6 @E6 E6 E6 E6 E6 E6 E6 E6 E6 E6 E6 E6 E6 E6 E6 E6 E6 E6 E6 E6 E6 E6 E6 E6 E6 E6 E6 E6 E6 E6 E6 E6 E6 E6 E6 E6 E6 E6 E6 E6 E6 E6 E6 E6 E6 E6 E6 E6 E6 E6 E6 @E6 @E6 @E6 @E6 @E6 @E6 @E6 @E6 @E6 @E6 @E6 @E6 @E6 @E6 @E6 @E6 @E6 @E6 @E6 @E6 @E6 @E6 @E6 @E6 @E6 @E6 @E6 @E6 @E6 @E6 @E6 @E6 @E6 @E6 @E6 @E6 @E6 @E6 @E6 @E6 @E6 @E6 @E6 @E6 @E6 @E6 @E6 @E6 @E6 @E6 @E6 @E6 @E6 @E6 @E6 @E6 @E6 @>E6 @>E6 >E6 >E6 >E6 >E6 >E6 >E6 >E6 >E6 >E6 >E6 >E6 >E6 >E6 >E6 >E6 >E6 >E6 >E6 >E6 >E6 >E6 >E6 >E6 >E6 >E6 >E6 >E6 >E6 >E6 >E6 >E6 >E6 >E6 >E6 >E6 >E6 >E6 >E6 >E6 >E6 >E6 >E6 >E6 >E6 >E6 >E6 >E6 >E6 >E6 >E6 >E6 >E6 >E6 >E6 >E6 >E6 >=E6 >=E6 =E6 =E6 =E6 =E6 =E6 =E6 =E6 =E6 =E6 =E6 =E6 =E6 =E6 =E6 =E6 =E6 =E6 =E6 =E6 =E6 =E6 =E6 =E6 =E6 =E6 =E6 =E6 =E6 =E6 =E6 =E6 =E6 =E6 =E6 =E6 =E6 =E6 =E6 =E6 =E6 =E6 =E6 =E6 =E6 =E6 =E6 =E6 =E6 =E6 =E6 =E6 =E6 =E6 =E6 =E6 =E6 =E6 E6 E6 E6 E6 E6 E6 E6 E6 E6 E6 E6 E6 E6 E6 E6 E6 E6 E6 E6 E6 E6 E6 E6 E6 E6 E6 E6 E6 E6 E6 E6 E6 E6 E6 E6 E6 E6 E6 E6 E6 E6 E6 E6 E6 E6 E6 E6 E6 E6 E6 E6 E6 E6 E6 E6 E6 E6 E6 E6 E6 E6 E6 E6 E6 E6 E6 E6 E6 E6 E6 E6 E6 E6 E6 E6 E6 E6 E6 E6 EG6 EG6 EG6 EG6 EG6 EG6 EG6 EG6 G6 G6 G6 G6 G6 G6 G6 G6 G6 G6 G6 G6 G6 G6 G6 G6 G6 G6 G6 G6 G6 G6 G6 G6 G6 G6 G6 G6 G6 G6 G6 G6 G6 G6 G6 G6 G6 G6 G6 G6 G6 G6 6 6 6 6 6 6 6 E6 E6 E6 E6 E6 E6 E6 E6 E6 E6 E6 E6 E6 E6 E6 E6 E6 E6 E6 E6 E6 E6 E6 E6 E6 E6 E6 E6 E6 E6 E6 E6 E6 E6 E6 E6 E6 6 6 6 6 6 6 6 6 6 6 6 6 6 6 6 6 6 6 6 6 6 6 6 6 C6 C6 C6 C6 C6 C6 C6 C6 C6 C6 C6 C6 C6 C6 C6 C6 C6 C6 C6 C6 C6 C6 C6 C6 C6 C6 C6 C6 C6 C6 C6 C6 C6 C6 C6 C6 C6 C6 C6 C6 C6 C6 C6 C6 C6 C6 C6 C6 C6 C6 C6 C6 C6 C6 6 6 6 6 6 6 B6 B6 B6 B6 B6 B6 B6 B6 B6 B6 B6 B6 B6 B6 B6 B6 B6 B6 B6 B6 B6 B6 B6 B6 B6 B6 B6 B6 B6 B6 B6 B6 B6 B6 B6 B6 B6 B6 B6 B6 B6 B6 B6 B6 B6 B6 B6 B6 B6 B6 B6 B6 B6 B6 B6 B6 B6 B6 @6 @6 @6 @6 @6 @6 @6 @6 @6 @6 @6 @6 @6 @6 @6 @6 @6 @6 @6 @6 @6 @6 @6 @6 @6 @6 @6 @6 @6 @6 @6 @6 @6 @6 @6 @6 @6 @6 @6 @6 @6 @6 @6 @6 @6 @6 @6 @6 @6 @6 @6 @6 @6 @6 @6 @6 @6 @6 @6 6 6 B6 B6 B6 B6 B6 B6 B6 B6 B6 B6 B6 B6 B6 B6 B6 B6 B6 B6 B6 B6 B6 B6 B6 B6 B6 B6 B6 B6 B6 B6 B6 B6 B6 B6 B6 B6 B6 B6 B6 B6 B6 B6 B6 B6 B6 B6 B6 B6 B6 B6 B6 B6 B6 B6 B6 B6 B6 6 6 >>6 >>6 >>6 >>6 >>6 >>6 >>6 >>6 >>6 >>6 >>6 >>6 >>6 >>6 >>6 >>6 >>6 >>6 >>6 >>6 >>6 >>6 >6 >6 >6 >6 >6 >6 >6 >6 >6 >6 >6 >6 >6 >6 >6 >6 >6 >6 >6 >6 >6 >6 >6 >6 >6 >6 >6 >6 >6 >6 >6 >6 >6 6 6 64 4 4 4 4 4 4 D4 D4 D4 D4 D4 D4 D4 D4 D4 D4 D4 D4 D4 D4 D4 D4 D4 D4 D4 D4 D4 D4 D4 D4 D4 D4 D4 D4 D4 D4 D4 D4 D4 D4 D4 D4 D4 D4 D4 D4 D4 D4 D4 D4 D4 D4 D4 D4 D4 D4 D4 D4 D4 D4 D4 D4 BD4 BD4 BD4 BD4 BD4 BD4 BD4 BD4 BD4 BD4 BD4 BD4 BD4 BD4 BD4 BD4 BD4 BD4 BD4 BD4 BD4 BD4 BD4 BD4 BD4 BD4 BD4 BD4 BD4 BD4 BD4 BD4 BD4 BD4 BD4 BD4 BD4 BD4 BD4 BD4 BD4 BD4 BD4 BD4 BD4 BD4 BD4 BD4 BD4 BD4 BD4 BD4 BD4 BD4 BD4 BD4 BD4 BD4 BD4 BD4 D4 D4 D4 @D4 @D4 @D4 @D4 @D4 @D4 @D4 @D4 @D4 @D4 @D4 @D4 @D4 @D4 @D4 @D4 @D4 @D4 @D4 @D4 @D4 @D4 @D4 @D4 @D4 @D4 @D4 @D4 @D4 @D4 @D4 @D4 @D4 @D4 @D4 @D4 @D4 @D4 @D4 @D4 @D4 @D4 @D4 @D4 @D4 @D4 @D4 @D4 @D4 @D4 @D4 @D4 @D4 @D4 @D4 @D4 @D4 @D4 @D4 @>D4 @>D4 @>D4 @>D4 >D4 >D4 >D4 >D4 >D4 >D4 >D4 >D4 >D4 >D4 >D4 >D4 >D4 >D4 >D4 >D4 >D4 >D4 >D4 >D4 >D4 >D4 >D4 >D4 >D4 >D4 >D4 >D4 >D4 >D4 >D4 >D4 >D4 >D4 >D4 >D4 >D4 >D4 >D4 >D4 >D4 >D4 >D4 >D4 >D4 >D4 >D4 >D4 >D4 >D4 >D4 >D4 >D4 >D4 >D4 >D4 >D=4 >D=4 >D=4 D=4 D=4 D=4 D=4 D=4 D=4 D=4 D=4 D=4 D=4 D=4 D=4 D=4 D=4 D=4 D=4 D=4 D=4 D=4 D=4 D=4 D=4 D=4 D=4 D=4 D=4 D=4 D=4 D=4 D=4 D=4 D=4 D=4 D=4 D=4 D=4 D=4 D=4 D=4 D=4 D=4 D=4 D=4 D=4 D=4 D=4 D=4 D=4 D=4 D=4 D=4 D=4 D=4 =4 =@4 =@;4 @;4 @;4 @;4 @;4 @;4 @;4 @;4 @;4 @;4 @;4 @;4 @;4 @;4 @;4 @;4 @;4 @;4 @;4 @;4 @;4 @;4 @;4 @;4 @;4 @;4 @;4 @;4 @;4 @;4 @;4 @;4 @;4 @;4 @;4 @;4 @;4 @;4 @;4 @;4 @;4 @;4 @;4 @;4 @;4 @;4 @;4 @;4 @;4 @;4 @;4 @;4 @;4 @;4 @;4 @;4 @;=4 @;=4 ;=4 ;=4 ;=4 ;=E4 =E4 =E4 =E4 =E4 =E4 =E4 =E4 =E4 =E4 =E4 =E4 =E4 =E4 =E4 =E4 =E4 =E4 =E4 =E4 =E4 =E4 =E4 =E4 =E4 =E4 =E4 =E4 =E4 =E4 =E4 =E4 =E4 =E4 =E4 =E4 =E4 =E4 =E4 =E4 =E4 =E4 =E4 =E4 =E4 =E4 =E4 =E4 =E4 =E4 =E4 =E4 =E4 =E4 =E4 =E4 =E4 =E4 =E4 E4 9E4 9E4 9E4 9E4 9E4 9E4 9E4 9E4 9E4 9E4 9E4 9E4 9E4 9E4 9E4 9E4 9E4 9E4 9E4 9E4 9E4 9E4 9E4 9E4 9E4 9E4 9E4 9E4 9E4 9E4 9E4 9E4 9E4 9E4 9E4 9E4 9E4 9E4 9E4 9E4 9E4 9E4 9E4 9E4 9E4 9E4 9E4 9E4 9E4 9E4 9E4 9E4 9E4 9E4 9E4 9E4 9E4 9E4 9E4 9E4 9E4 9E4 9E4 9E4 E4 E4 E;4 E;4 E;4 E;4 E;4 E;4 E;4 E;4 E;4 E;4 E;4 E;4 E;4 E;4 E;4 E;4 E;4 E;4 E;4 E;4 E;4 E;4 E;4 E;4 E;4 E;4 E;4 E;4 E;4 E;4 E;4 E;4 E;4 E;4 E;4 E;4 E;4 E;4 E;4 E;4 E;4 E;4 E;4 E;4 E;4 E;4 E;4 E;4 E;4 E;4 E;4 E;G4 E;G4 E;G4 E;G4 E;G4 E;G4 ;G4 ;G4 ;G4 ;G4 ;G4 ;G4 ;G4 ;G4 ;G4 ;G4 ;G4 ;G4 ;G4 ;G4 ;G4 ;G4 ;G4 ;G4 ;G4 ;G4 ;G4 ;G4 ;G4 ;G4 ;G4 ;G4 ;G4 ;G4 ;G4 ;G4 ;G4 ;G4 ;G4 ;G4 ;G4 ;G4 ;G4 ;G4 ;G4 ;G4 ;G4 ;G4 ;G4 ;G4 ;G4 ;G4 ;G4 ;G4 ;G4 ;G4 ;G4 ;G4 ;G4 ;G4 ;G4 ;GE4 ;GE4 E4> E4> E4> E4> E4> E4> E4> E4> E4> E4> E4> E4> E4> E4> E4> E4> E4> E4> E4> E4> E4> E4> E4> E4> E4> E4> E4> E4> E4> E4> E4> E4> E4> E4> E4> E4> E4> E4> E4> E4> E4> E4> E4> E4> E4> E4> E4> E4> E4> E4> E4> E4> E4> E4> E4> E4> ED4> ED4> D4> D4> D4> D4> D4> D4> D4> D4> D4> D4> D4> D4> D4> D4> D4> D4> D4> D4> D4> D4> D4> D4> D4> D4> D4> D4> D4> D4> D4> D4> D4> D4> D4> D4> D4> D4> D4> D4> D4> D4> D4> D4> D4> D4> D4> D4> D4> 4> 4> 4> 4> 4> 4> 4> 4> 4> 4>E9 4>E9 4>E9 >E9 >E9 E9 E9 E9 E9 E9 E9 E9 E9 E9 E9 E9 E9 E9 E9 E9 E9 E9 E9 E9 E9 E9 E9 E9 E9 E9 E9 E9 E9 E9 E9 E9 E9 E9 E9 E9 E9 E9 E9 E9 E9 E9 E9 E9 E9 E9 E9 E9 E9 E9 E9 E9 >E9 >E9 >E9 >E9 >E9 >E9 >E9 >E9 >E9 >E9 >E9 >E9 >E9 >E9 >E9 >E9 >E9 >E9 >E9 >E9 >E9 >E9 >E9 >E9 >E9 >E9 >E9 >E9 >E9 >E9 >E9 >E9 >E9 >E9 >E9 >E9 >E9 >E9 >E9 >E9 >E9 >E9 >E9 >E9 >E9 >E9 >E9 >E9 >E9 >E9 >E9 >E9 >E9 >E9 >E9 >E9 >E9 >E9 >E9 >E9 >E9 >=E9 >=E9 =E9 =E9 =E9 =E9 =E9 =E9 =E9 =E9 =E9 =E9 =E9 =E9 =E9 =E9 =E9 =E9 =E9 =E9 =E9 =E9 =E9 =E9 =E9 =E9 =E9 =E9 =E9 =E9 =E9 =E9 =E9 =E9 =E9 =E9 =E9 =E9 =E9 =E9 =E9 =E9 =E9 =E9 =E9 =E9 =E9 =E9 =E9 =E9 =E9 =E9 =E9 =E9 =E9 =E9 =E9 =E9 ;E9 ;E9 ;E9 ;E9 ;E9 ;E9 ;E9 ;E9 ;E9 ;E9 ;E9 ;E9 ;E9 ;E9 ;E9 ;E9 ;E9 ;E9 ;E9 ;E9 ;E9 ;E9 ;E9 ;E9 ;E9 ;E9 E9 E9 E9 E9 E9 E9 E9 E9 E9 E9 E9 E9 E9 E9 E9 E9 E9 E9 E9 E9 E9 E9 E9 E9 E9 E9 E9 E9 E9 E9 E9 E9 E9 E9 E9 E9 E=9 E=9 E=9 E=9 E=9 E=9 E=9 E=9 E=9 E=9 E=9 E=9 E=9 E=9 E=9 E=9 E=9 E=9 E=9 E=9 E=9 E=9 E=9 E=9 E=9 E=9 E=9 E=9 E=9 E=9 E=9 E=9 E=9 E=9 E=9 E=9 E=9 E=9 E=9 E=9 E=9 E=9 E=9 E=9 E=9 E=9 E=9 E=9 E=9 E=9 E=9 E=9 E=9 E=9 E=9 E=9 E=9 E=9 E=9 G=9 G=9 G=9 G=9 G=9 G=9 G=9 G=9 G=9 G=9 G=9 G=9 G=9 G=9 G=9 G=9 G=9 G=9 G=9 G=9 G=9 G=9 G=9 G=9 G=9 G=9 G=9 G=9 G=9 G=9 G=9 G=9 G=9 G=9 G=9 G=9 G=9 G=9 G=9 G=9 G=9 G=9 G=9 G=9 G=9 G=9 G=9 G=9 G=9 G=9 G=9 G=9 G=9 G=9 G=9 G=9 G=9 G=9 G=9 G=9 G=9 G=9 GE=9 GE=9 GE=9 GE=9 GE=9 GE=9 GE=9 GE=9 GE=9 E=9 E=9 E=9 E=9 E=9 E=9 E=9 E=9 E=9 E=9 E=9 E=9 E=9 E=9 E=9 E=9 E=9 E=9 E=9 E=9 E=9 E=9 E=9 E=9 E=9 E=9 E=9 E=9 E=9 E=9 E=9 E=9 E=9 E=9 E=9 E=9 E=9 E=9 E=9 E=9 E=9 E=9 E=9 E=9 E=9 E=9 E=9 E=9 E=9 C=9 C=9 C=9 C=9 C=9 C=9 C=9 C=9 C=9 C=9 C=9 C=9 C=9 C=9 C=9 C=9 C=9 C=9 C=9 C=9 C=9 C=9 C=9 C=9 C=9 C=9 C=9 C=9 C=9 C=9 C=9 C=9 C=9 C=9 C=9 C=9 C=9 C=9 C=9 C=9 C=9 C=9 C=9 C=9 C=9 C=9 C=9 C=9 =9 =9 =9 =9 =9 9 9 9 9 B9 B9 B9 B9 B9 BE9 BE9 BE9 BE9 BE9 BE9 BE9 BE9 BE9 BE9 BE9 BE9 BE9 BE9 BE9 BE9 BE9 BE9 BE9 BE9 BE9 BE9 BE9 BE9 BE9 BE9 BE9 BE9 BE9 BE9 BE9 BE9 BE9 BE9 BE9 BE9 BE9 BE9 BE9 BE9 BE9 BE9 BE9 BE9 BE9 BE9 BE9 BE9 BE9 BE9 BE9 BE9 BE9 BE9 BE9 BE9 E9 @E9 @E9 @E9 @E9 @E9 @E9 @E9 @E9 @E9 @E9 @E9 @E9 @E9 @E9 @E9 @E9 @E9 @E9 @E9 @E9 @E9 @E9 @E9 @E9 @E9 @E9 @E9 @E9 @E9 @E9 @E9 @E9 @E9 @E9 @E9 @E9 @E9 @E9 @E9 @E9 @E9 @E9 @E9 @E9 @E9 @E9 @E9 @E9 @E9 @E9 @E9 @E9 @E9 @E9 @E9 @E9 @E9 @BE9 BE9 BE9 BE9 BE9 BE9 BE9 BE9 BE9 BE9 BE9 BE9 BE9 BE9 BE9 BE9 BE9 BE9 BE9 BE9 BE9 BE9 BE9 BE9 BE9 BE9 BE9 BE9 BE9 BE9 BE9 BE9 BE9 BE9 BE9 BE9 BE9 BE9 BE9 BE9 BE9 BE9 BE9 BE9 BE9 BE9 BE9 BE9 BE9 BE9 BE9 BE9 BE9 BE9 BE9 BE9 E9 E9 E9 E9 >>E9 >>E9 >>E9 >>E9 >>E9 >>E9 >>E9 >>E9 >>E9 >>E9 >>E9 >>E9 >>E9 >>E9 >>E9 >>E9 >>E9 >>E9 >>E9 >>E9 >>E9 >>E9 >>E9 >>E9 >>E9 >>E9 >>E9 >>E9 >>E9 >>E9 >>E9 >>E9 >>E9 >>E9 >>E9 >>E9 >>E9 >>E9 >>E9 >>E9 >>E9 >>E9 >>E9 >>E9 >>E9 >>E9 >E9 >E9 >E9 >E9 E9 E9 E9 E9 E9 E9 E9 9 9 9 @@9 @@9 @@9I @@9I @@9I @@9I @@9I @@9I @@9I @@9I @@9I @@9I @@9I @@9I @@9I @@9I @@9I @@9I @@9I @@9I @@9I @@9I @@9I @@9I @@9I @@9I @@9I @@9I @@9I @@9I @@9I @@9I @@9I @@9I @@9I @@9I @@9I @@9I @@9I @@9I @@9I @@9I @@9I @@9I @@9I @9I 9I 9I 9I 9I 9I 9I 9I >9I >9I >9I >9I >9I >9I >9I >9I >9I >9I >9I >9I >9I >9I >9I >9I >9I >9I >9I >9I >9I >9I >9I >9I >9I >9I >9I >9I >9I >9I >9I >9I >9I >9I >9I >9I >9I >9I >9I >9I >9I >9I >9I >9I >9I >9I >9I >9I >9I >9I >9I >9I >9I >9I >9I >9I >9I >9I >9I >9I >9I >9=I 9=I 9=I 9=I 9=I 9=I 9=I 9=I 9=I 9=I 9=I 9=I 9=I 9=I 9=I 9=I 9=I 9=I 9=I 9=I 9=I 9=I 9=I 9=I 9=I 9=I 9=I 9=I 9=I 9=I 9=I 9=I 9=I 9=I 9=I 9=I 9=I 9=I 9=I 9=I 9=I 9=I 9=I 9=I 9=I 9=I 9=I 9=I 9=I 9=I 9=I 9=I 9=I 9=I 9=I 9=;I =;I ;I ;I ;I ;I ;I ;I ;I ;I ;I ;I ;I ;I ;I ;I ;I ;I ;I ;I ;I ;I ;I ;I ;I ;I ;I ;I ;I ;I ;I ;I ;I ;I ;I ;I ;I ;I ;I ;I ;I ;I ;I ;I ;I ;I ;I ;I ;I ;I ;I ;I ;I ;I ;I ;I ;I I 9I 9I 9I 9I 9I 9I 9I 9I 9I 9I 9I 9I 9I 9I 9I 9I 9I 9I 9I 9I 9I 9I 9I 9I 9I 9I 9I 9I 9I 9I 9I 9I 9I 9I 9I 9I 9I 9I 9I 9I 9I 9I 9I 9I 9I 9I 9I 9I 9I 9I 9I 9I 9I 9I 9I 9I 9I 9I 9I 9I 9I 9I 9;I 9;I 9;I 9;I 9;I 9;I 9;I 9;I 9;I 9;I 9;I 9;I 9;I 9;I 9;I 9;I 9;I 9;I 9;I 9;I 9;I 9;I 9;I 9;I 9;I 9;I 9;I 9;I 9;I 9;I 9;I 9;I 9;I 9;I 9;I 9;I 9;I 9;I 9;I 9;I ;I ;I ;I ;I ;I ;I ;I ;I ;I ;I ;I ;I ;I ;I ;I ;I ;I ;I ;I ;I ;I9 ;I9 ;I9 ;I9 I9 I9 I9 I9 I9 I9 I9@ I9@ I9@ I9@ I9@ I9@ I9@ I9@ I9@ I9@ I9@ I9@ I9@ I9@ I9@ I9@ I9@ I9@ I9@ I9@ I9@ I9@ I9@ I9@ I9@ I9@ I9@ I9@ I9@ I9@ I9@ I9@ I9@ I9@ I9@ I9@ I9@ I9@ I9@ I9@ I9@ I9@ I9@ I9@ 9@ 9@ 9@ 9@ 9@ 7@ 7@ 7@ 7@ 7@ 7@ 7@ 7@ 7@ 7@ 7@ 7@ 7@ 7@ 7@ 7@ 7@ 7I@ 7I@ 7I@ 7I@ 7I@ I@ I@ I@ I@ I@ I@ I@ I@ I@ I@ I@ I@ I@ I@ I@ I@ I@ I@ I@ I@ I@ I@ I@ I@ I@ IJ@ IJ@ IJ@ J@ J@ J@ J@ J@ J@ J@ J@ J@ J@ J@ J@6 J@6 J@6 J@6 J@6 J@6 J@6 J@6 J@6 J@6 J@6 J@6 J@6 J@6 J@6 J@6 @6 @L6 @L6 L6E L6E L6E L6E L6E L6E L6E L6E L6E L6E L6E L6E L6E L6E L6E L6E L6E L6E L6E L6E L6E L6E L6E L6E L6E L6E L6E L6E L6E L6E L6JE L6JE L6JE L6JE L6JE 6JE 6JE 6JE 6JE 6JE 6JE 6JE 6JE 6JE 6JE 6J4E J4E J4E J4E J4E J4E J4E J4E J4E J4E J4E J4E J4E J4E J4E 4E 4E 4E L4E L4E L4E L4E L4E L4E L4E L4E L4E L4E L4E L4E L4E L4E L4E L4E L4E L4E L4E L4E L4E LJ4E LJ4E LJ4E LJ4E LJ4E LJ4E LJ4E LJ4E LJ4E J4E J4E J4E J4E J4E 4E 4E 4E 4E 4E 4LE 4LE 4LE 4LE 4L6E 4L6E 4L6E L6E L6E L6E L6E L6E L6JE L6JE L6JE L6JE L6JE L6JE L6JE L6JE L6JE L6JE 6JE 6JE 6JE 6JE 6JE 6JE 6JE 6JE 6JE 6JE 6JE 6JE 6JE 6JE 6JE 6JE 6JE 6JE 6JE 6JE 6JE 6JE 6JE 6JE 6JE 6JE 6JE 6JE 6JE 6JE 6JE 6JE 6JE 6JE 6JE 6JE 6JE 6JE JE JE JE J2E J2E J2E JI2E I2E I2E I2E I2E I2E I2E I2E I2E I2E I2E I2E I2E I2E I2E I2E I2E I2E I2E I2E I2E I2E I2E I2E I2E I2E I2E I2E I2E I2E I2E I2E I2E I2E I2EJ 2EJ 2EJ 2EJ 2EJ 2EJ 2EJ 2EJ 2EJ EJ EJ EJ EJ EJ EJ EJ EJ EJ EJ EJ9 J9 J9 J9 J9 J9 J9 J9 J9 J9 J9 J9 9 9L 9L 9L 9L 9L 9L 9L 9L 9L 9L 9L 9L 9L 9L 9L 9L 9L 9L 9L 9L 9L 9L 9L 9L 9L 9L 9L 9L 9L 9L 9L 9L 9L 9L 9L 9L 9L 9L 9L 9L 9L 9L 9L 9L 9L 9L 9L 9L 9L 9L 9L 9L 9L 9L 9L 9L 9L 9L 9L 9L 9L 9L 9L J9L J9L J9L J9L J9L J9L J9L J9L J9L J9L J9L J9L J9L J9L J9L J9L J9L J9L J9L J9L J9L J9L J9L J9L J9L J9L J9L J9L J9L J9L J9L J9L J9L J9L J9L J9L J9L J9L J9L J9L J9L J9L J9L J9L J9L J9L J9L J9L J9L J9L J9L J9L 9L 9L 9L 9L 9L 9L 9L 9L 9L 9L I9L I9L I9L I9L I9L I9L I9L I9L I9L I9L I9L I9L I9L I9L I9L I9L I9L I9L I9L I9L I9L I9L I9L I9L I9L I9L I9L I9L I9L I9L I9L I9L I9L I9L I9L I9L I9L I9L I9L I9L I9L I9L I9L I9L I9L I9L I9L I9L I9L I9L 9L 9L 9L 9L 9L G9L G9L G9L G9L G9L G9L G9L G9L G9L G9L G9L G9L G9L G9L G9L G9L G9L G9L G9L G9L G9L G9L G9L G9L G9L G9L G9L G9L G9L G9L G9L G9L G9L G9L G9L G9L G9L G9L G9L G9L G9L G9L G9L G9L G9L G9L G9L G9L G9L G9L G9L G9L G9L G9L G9L G9L G9L G9L G9L G9L G9L G9L G9L G9L 9L 9L 9IL 9IL 9IL IL IL IL IL IL IL IL IL IL IL IL IL IL IL IL IL IL IL IL IL IL IL IL IL IL IL IL IL IL IL IL IL IL IL IL IL IL IL IL IL IL IL IL IL IL IL IL IL IL IL IL 6IL 6IL 6IL 6IL 6IL 6IL 6IL 6IL 6IL 6IL 6IL 6IL 6IL 6IL 6IL 6IL 6IL 6IL 6IL 6IL 6IL 6IL 6IL 6IL 6IL 6IL 6IL 6IL 6IL 6IL 6IL 6IL 6IL 6IL 6IL 6IL 6IL 6IL 6IL 6IL 6IL 6IL 6IL 6IL 6IL 6IL 6IL 6IL 6IL 6IL 6IL 6IL 6IL 6IL 6IL 6IL 6IL 6IL 6IL 6IL 6IL 6IL 6IL4 6IL4 6IL4 IL4 IL4D L4D L4D L4D L4D L4D L4D L4D L4D L4D L4D L4D L4D L4D L4D L4D L4D L4D L4D L4D L4D L4D L4D L4D L4D L4D L4D L4D L4D L4D L4D L4D L4D L4D L4D L4D L4D L4D L4D L4D L4D L4D L4D 4D 4D 4D 4D 4D 4D 4D 4D 4D 4D 4D 4D 4D 4D 4D 4D 42D 2D 2D 2D 2D 2D 2D 2D 2D 2D 2D 2D 2D 2D 2D 2D 2D 2D 2D 2D 2D 2D 2D 2D 2D 2D 2D 2D 2D 2D 2D 2D 2D 2D 2D 2D 2D 2D 2D 2D 2D 2D 2D 2D 2D 2D 2D 2D 2D 2D 2D 2D 2D 2D 2D D D D D D D D D1 D1 D1 D1L D1LE 1LE 1LE 1LE 1LE 1LE 1LE 1LE 1LE 1LE 1LE 1LE 1LE 1LE 1LE 1LE 1LE 1LE 1LE 1LE 1LE 1LE 1LE 1LE 1LE 1LE 1LE 1LE 1LE 1LE 1LE 1LE 1LE 1LE 1LE 1LE 1LE 1LE 1LE 1LE 1LE 1LE 1LE 1LE 1LE 1LE 1LE 1LE 1LE 1LE 1LE 1LE 1LE 1LE 1LE 1LE 1LE 1LE 1LE 1LE LE /LE /LE /LE /LE /LE /LE /LE /LE /LE /LE /LE /LE /LE /LE /LE /LE /LE /LE /LE /LE /LE /LE /LE /LE /LE /LE /LE /LE /LE /LE /LE /LE /LE /LE /LE /LE /LE /LE /LE /LE /LE /LE /LE /LE /LE /LE /LE /LE /LE /LE /LE /LE /LE /LE /LE /LE /LE /LE /LE /LE /1LE /1LE /1LE /1LE /1LE 1LE 1LE 1LE 1LE 1LE 1LE 1LE 1LE 1LE 1LE 1LE 1LE 1LE 1LE 1LE 1LE 1LE 1LE 1LE 1LE 1LE 1LE 1LE 1LE 1LE 1LE 1LE 1LE 1LE 1LE 1LE 1LE 1LE 1LE 1LE 1LE 1LE 1LE 1LE 1LE 1LE 1LE 1LE 1LE 1LE 1LE 1LE 1LE 1LE 1LE 1LE 1LE 1LE 1LE LE LE LE- LE- LE- LE- LE- LE- LE- LE- LE- LE- LE- LE- LE- LE- LE- LE- LE- LE- LE- LE- LE- LE- LE- LE- LE- LE- LE- LE- LE- LE- LE- LE- LE- LE- LE- LE- LE- LE- LE- LE- LE- LE- LE- LE- LE- E- E- E- E- E- E- E- E- E- E- E- E- - - - - -2 2 2 2N 2N 2N 2N 2N 2N 2N 2N 2N 2N 2N 2N 2N 2N 2N 2N 2N 2N 2N 2N 2N 2N 2N 2N 2N 2N 2N 2N 2N 2N 2N 2N 2N 2N 2N 2N 2N 2N 2N 2N 2N 2N 2N 2N 2N 2N 2N 2N 2N 2N 2N 2N 2N 2N 2N E2N E2N E2N E2N E2N E2N E2N E2N E2N E2N E2N E2N E2N E2N E2N E2N E2N E2N E2N E2N E2N E2N E2N E2N E2N E2N E2N E2N E2N E2N E2N E2N E2N E2N E2N E2N E2N E2N E2N E2N E2N E2N E2N E2N E2N E2N E2N E2N E2N E2N E2N E2N EG2N EG2N EG2N EG2N EG2N EG2N EG2N EG2N EG2N EG2N EG2N EG2N G2N G2N G2N G2N G2N G2N G2N G2N G2N G2N G2N G2N G2N G2N G2N G2N G2N G2N G2N G2N G2N G2N G2N G2N G2N G2N G2N G2N G2N G2N G2N G2N G2N G2N G2N G2N G2N G2N G2N G2N G2N G2N G2N G2N G2N G2N G2N GI2N I2N I2N I2N I2N I2N I2N I2N I2N I2N I2N I2N I2N I2N I2N I2N I2N I2N I2N I2N I2N I2N I2N I2N I2N I2N I2N I2N I2N I2N I2N I2N I2N I2N I2N I2N I2N I2N I2N I2N I2N I2N I2N I2N I2N I2N I2N I2N I2N I2N I2N I2N I2N I2N I2N I2N I2N I2N I2N I2N 2N 2N 2N 2N 2JN 2JN 2JN 2JN 2JN JN JN JN JN JN JN JN JN JN JN JN JN JN JN JN JN JN JN JN JN JN JN JN JN JN JN JN JN JN JN JN JN JN JN JN JN JN JN JN JN JN JN JN JN JN JN JN JN J/N J/N /N I/N I/N I/N I/N I/N I/N I/N I/N I/N I/N I/N I/N I/N I/N I/N I/N I/N I/N I/N I/N I/N I/N I/N I/N I/N I/N I/N I/N I/N I/N I/N I/N I/N I/N I/N I/N I/N I/N I/N I/N I/N I/N I/N I/N I/N I/N I/N I/N I/N I/N I/N I/N I/N I/N I/N /N /-N -N -N -N -N -NJ -NJ -NJ -NJ -NJ -NJ -NJ -NJ -NJ -NJ -NJ -NJ -NJ -NJ -NJ -NJ -NJ -NJ -NJ -NJ -NJ -NJ -NJ -NJ -NJ -NJ -NJ -NJ -NJ -NJ -NJ -NJ -NJ -NJ -NJ -NJ -NJ -NJ -NJ -NJ -NJ -NJ -NJ -NJ -NJ -NJ -NJ -NJ -NJ -NJ -NJ -NJ -NJ -NJ -NJ -NJ -NJ -NJ -NJ -NLJ -NL+J -NL+J NL+J NL+J NL+J NL+J NL+J NL+J NL+J NL+J NL+J NL+J L+J L+J L+J L+J L+J L+J L+J L+J L+J L+J L+J L+J L+J L+J L+J L+J +J +J +J +J +J +J +J +J +J +J +J +J +J +J +J +J +J +J +J +J +J +J +J +J +J +J +J +J +J +J +J J *J *NJ *NJ *NJ *NJ *NJ *NJ *NJ *NJ *NJ *NJ *NJ *NJ *NJ *NJ *NJ *NJ *NJ *NJ *NJ *NJ *NJ *NJ *NJ *NJ *NJ *NJ *NJ *NJ *NJ *NJ *NJ *NJ *NJ *NJ *NJ *NJ *NJ *NJ *NJ *NJ *NJ *NJ *NJ *NJ *NJ *NJ *NJ *NJ *NJ *NJ *NJ *NJ *NJ *NJ *NJ *NJ NJ NJ NJ NJ (NJ (NJ (NJ (NJ (NJ (NJ (NJ (NJ (NJ (NJ (NJ (NJ (NJ (NJ (NJ (NJ (NJ (NJ (NJ (NJ (NJ (NJ (NJ (NJ (NJ (NJ (NJ (NJ (NJ (NJ (NJ (NJ (NJ (NJ (NJ (NJ (NJ (NJ (NJ (NJ (NJ (NJ (NJ (NJ (NJ (NJ (NJ (NJ (NJ (NJ (NJ (NJ (NJ (NJ (NJ (NJ (NJ (NJ (NJ (NJ (NJ (NJ (*NJ (*NJ (*NJ (*NJ *NJ *NJ *NJ *NJ *NJ *NJ *NJ *NJ *NJ *NJ *NJ *NJ *NJ *NJ *NJ *NJ *NJ *NJ *NJ *NJ *NJ *NJ *NJ *NJ *NJ *NJ *NJ *NJ *NJ *NJ *NJ *NJ *NJ *NJ *NJ *NJ *NJ *NJ *NJ *NJ *NJ *NJ *NJ *NJ *NJ *NJ *NJ *NJ NJ NJ NJ NOJ NOJ O&J O&J O&J O&J O&J O&J O&J O&J O&J O&J O&J O&J O&J O&J O&J O&J O&J O&J O&J O&J O&J O&J O&J O&J O&J O&J O&J O&J O&J O&J O&J O&J O&J O&J O&J O&J O&J O&J O&J O&J O&J O&J O&J &J &J &J &J &J &J &J &J &J &J &J J J J J- J-L J-L J-L J-L J-L J-L J-L J-L J-L J-L J-L J-L J-L J-L -L -L -L -L -L -L -L -L -L -L -L -L -L -L -L -L -L -L -L -L -L -L -L -L -L -L -L -L -L -L -L -L -L -L -L -L -L -L -L -L -L J-L J-L J-L J-L J-L J-L J-L J-L J-L J-L J-L J-L J-L J-L J-L J-L J-L J-L J-L J-L J-L J-L J-L J-L J-L J-L J-L J-L J-L J-L J-L J-L J-L J-L J-L J-L J-L J-L J-L J-L J-L J-L J-L J-L J-L J-L J-L J-L J-L J-L J-L J-L J-L J-L J-L J-L J-L J-L J-L J-L J-L J-L -L I-L I-L I-L I-L I-L I-L I-L I-L I-L I-L I-L I-L I-L I-L I-L I-L I-L I-L I-L I-L I-L I-L I-L I-L I-L I-L I-L I-L I-L I-L I-L I-L I-L I-L I-L I-L I-L I-L I-L I-L I-L I-L I-L I-L I-L I-L I-L I-L I-L I-L I-L I-L I-L I-L I-L I-L IG-L IG-L IG-L IG-L IG-L G-L G-L G-L G-L G-L G-L G-L G-L G-L G-L G-L G-L G-L G-L G-L G-L G-L G-L G-L G-L G-L G-L G-L G-L G-L G-L -L -L -L -L -L -L -L -L -L -L -L -L -L -L -L -L -L -L -L -L -L -L -L -L -L -L -L -L -L -L -L -L -L -L -L -L -L -IL -IL -IL -IL -IL -IL IL IL IL IL IL IL IL IL IL IL IL IL IL IL IL IL IL IL IL IL IL IL IL IL IL IL IL IL IL IL IL IL IL IL IL IL IL IL IL IL IL IL IL IL IL IL IL IL IL ,IL ,IL ,IL ,IL ,IL ,IL ,IL ,IL ,IL ,IL ,IL ,IL ,IL ,IL ,IL ,IL ,IL ,IL ,IL ,IL ,IL ,IL ,IL ,IL ,IL ,IL ,IL ,IL ,IL ,IL ,IL ,IL ,IL ,IL ,IL ,IL ,IL ,IL ,IL ,IL ,IL ,IL ,IL ,IL ,IL ,IL ,IL ,IL ,IL ,IL ,IL ,IL ,IL ,IL ,IL ,IL ,IL ,IL ,IL IL IL IL IL- IL- IL- GL- GL- GL- GL- GL- GL- GL- GL- GL- GL- GL- GL- GL- GL- GL- GL- GL- GL- GL- GL- GL- GL- GL- GL- GL- GL- GL- GL- GL- GL- GL- GL- GL- GL- GL- GL- L- L- L- L- L- L- L- L- L- L- L- L- - - - - - -E -E -E -E/ -E/ E/ E/ E/ E/ E/ E/ E/ E/ E/ E/ E/ E/ E/ E/ E/ E/ E/ E/ / / / / / / / / / / / / / / / / / / / / / / / / / / / / / / / / / / / / / /1 /1 /1 /1 1 1 1 1D 1D 1D 1DL 1DL 1DL 1DL 1DL 1DL 1DL 1DL 1DL 1DL 1DL 1DL 1DL 1DL 1DL 1DL 1DL 1DL 1DL 1DL 1DL 1DL 1DL 1DL 1DL 1DL 1DL 1DL 1DL 1DL 1DL 1DL 1DL 1DL 1DL 1DL 1DL 1DL 1DL 1DL 1DL 1DL 1DL 1DL 1DL 1DL 1DL 1DL DL DL 2DL 2DL 2DL 2DL 2DL 2DL 2DL 2DL 2DL 2DL 2DL 2DL 2DL 2DL 2DL 2DL 2DL 2DL 2DL 2DL 2DL 2DL 2DL 2DL 2DL 2DL 2DL 2DL 2DL 2DL 2DL 2DL 2DL 2DL 2DL 2DL 2DL 2DL 2DL 2DL 2DL 2DL 2DL 2DL 2DL 2DL 2DL 2DL 2DL 2DL 2DL 2DL 2DL 2DL 2DL 2DL 2DL 21DL 21DL 21DL 1DL 1DL 1DL 1DL 1DL 1DL 1DL 1DL 1DL 1DL 1DL 1DL 1DL 1DL 1DL 1DL 1DL 1DL 1DL 1DL 1DL 1DL 1DL 1DL 1DL 1DL 1DL 1DL 1DL 1DL 1DL 1DL 1DL 1DL 1DL 1DL 1DL 1DL 1DL 1DL 1DL 1DL 1DL 1DL 1DL 1DL 1DL 1DL 1DL 1DL 1DL DL DL DL DL DL 4DL 4DL 4DL 4DL 4DL 4DL 4DL 4DL 4DL 4DL 4DL 4DL 4DL 4DL 4DL 4DL 4DL 4DL 4DL 4DL 4DL 4DL 4DL 4DL 4DL 4DL 4DL 4DL 4DL 4DL 4DL 4DL 4DL 4DL 4DL 4DL 4DL 4DL 4DL 4DL 4DL 4DL 4DL 4DL 4DL 4DL 4DL 4DL 4DL 4DL 4DL 4DL 4DL 4DL 4DL 4DL 4DL 4DL* 4DL* DL* DL* DL* DL* DL* DL* DL* DL* DL* DL* DL* DL* DL* DL* DL*E *E *E *E *E *E *E *E *E *E *E *E *E *E *E *E *E *E *E *E *E *E *E *E *E *E *E *E *E *E *E *E *E *E *E *E *E *E *E *E *E *E *E *E *E *E *E *E *E *E *E *E *E *E *E *E *E *E *E *E *E *E *E *E *E *E *E *E D*E D*E D*E D*E D*E D*E D*E D*E D*E D*E D*E D*E D*E D*E D*E D*E D*E D*E D*E D*E D*E D*E D*E D*E D*E D*E D*E D*E D*E D*E D*E D*E D*E D*E D*E D*E D*E D*E *E *E *E *E *E *E *E *E *E *E *E *E *E *E *E *E *E *E *E *E B*E B*E B*E B*E B*E B*E B*E B*E B*E B*E B*E B*E B*E B*E B*E B*E B*E B*E B*E B*E B*E B*E B*E B*E B*E B*E B*E B*E B*E B*E B*E B*E B*E B*E B*E B*E B*E B*E B*E B*E B*E B*E B*E B*E B*E B*E B*E B*E B*E B*E B*E B*E B*E B*E *E *E A*E A*E A*E A*E A*E A*E A*E A*E A*E A*E A*E A*E A*E A*E A*E A*E A*E A*E A*E A*E A*E A*E A*E A*E A*E A*E A*E A*E A*E A*E A*E A*E A*E A*E A*E A*E A*E A*E A*E A*E A*E A*E *E *E *E E E E E E E E E E E E E E E E E E BE BE BE BE BE BE BE BE BE BE BE BE BE BE BE BE BE BE BE BE BE BE BE BE BE BE BE BE BE BE BE BE BE BE BE BE E E E E E E E E E E E E E E E E E E =E =E =E =E =E =E =E =E =E =E =E =E =E =E =E =E =E =E =E =E =E =E =E =E =E =E =E =E =E =E =E =E =E =E =E =E =E =E =E =E =E =E =E =E =E =E =E =E =E =E =E =E =E =E =E =E =E =E =E E E> ;E> ;E> ;E> ;E> ;E> ;E> ;E> ;E> ;E> ;E> ;E> ;E> ;E> ;E> ;E> ;E> ;E> ;E> ;E> ;E> ;E> ;E> ;E> ;E> ;E> ;E> ;E> ;E> ;E> ;E> ;E> ;E> ;E> ;E> ;E> ;E> ;E> ;E> ;E> ;E> ;E> ;E> ;E> ;E> ;E> ;E> ;E> ;E> ;E> ;E> ;E> ;E> ;E> ;E> ;E> ;E> ;E> ;E> ;9E> ;9E> 9E> 9E> 9E> 9E> 9E> 9E> 9E> 9E> 9E> 9E> 9E> 9E> 9E> 9E> 9E> 9E> 9E> 9E> 9E> 9E> 9E> 9E> 9E> 9E> 9E> 9E> 9E> 9E> 9E> 9E> 9E> 9E> 9E> 9E> 9E> 9E> 9E> 9E> 9E> 9E> 9E> 9E> 9E> 9E> 9E> 9E> 9E> 9E> 9E> 9E> 9E> 9E> 9E> 9E> E> E>G 8>G 8>G 8>G 8>G 8>G 8>G 8>G 8>G 8>G 8>G 8>G 8>G 8>G 8>G 8>G 8>G 8>G 8>G 8>G 8>G 8>G 8>G 8>G 8>G 8>G 8>G 8>G 8>G 8>G 8>G 8>G 8>G 8>G 8>G 8>G 8>G 8>G 8>G 8>G 8>G 8>G 8>G 8>G 8>G 8>G 8>G 8>G 8>G 8>G 8>G 8>G 8>G 8>G 8>G 8>G 8>G 8>G 8>G 8>G 8>G 8>G 8>G 8>G >6G >6G >6G >6G >6G >6G >6G >6G >6G >6G >6G >6G >6G >6G >6G >6G >6G >6G >6G >6G 6G 6G 6G 6G 6G 6G 6G 6G 6G 6G 6G 6G 6G 6G 6G 6G 6G 6G 6G 6G 6G 6G 6G 6G 6G 6G 6G 6G 6G 6G 6G 6G 6G 6G@ 6G@ 6G@ 6G@ 6G@ 6G@ 6G@ 6G@ 6G@ 8G@ 8G@ 8G@ 8G@ 8G@ 8G@ 8G@ 8G@ 8G@ 8G@ 8G@ 8G@ 8G@ 8G@ 8G@ 8G@ 8G@ 8G@ 8G@ 8G@ 8G@ 8G@ 8G@ 8G@ 8G@ 8G@ 8G@ 8G@ 8G@ 8G@ 8G@ 8G@ 8G@ 8G@ 8G@ 8G@ 8G@ 8G@ 8G@ 8G@ 8G@ 8G@ 8G@ 8G@ 8G@ 8G@ 8G@ 8G@ 8G@ 8G@ G@ G@ 4G@ 4G@ 4G@ 4G@ 4G@ 4G@ 4G@ 4G@ 4G@ 4G@ 4G@ 4G@ 4G@ 4G@ 4G@ 4G@ 4G@ 4G@ 4G@ 4G@ 4G@ 4G@ 4G@ 4G@ 4G@ 4G@ 4G@ 4G@ 4G@ 4G@ G@ G@ G@ G@ G@ G@ G@ G@ G@ G@ G@ G@ G@ G@ G@ G@ G@ G@ G@ G@ G@ G@ G@ G@ G@ G@ G@ G@ G@ G@9 G@9 G@9 G@9 G@9 G@9 G@9I G@9I @9I @9I @9I @9I @9I @9I @9I @9I @9I @9I @9I @9I @9I @9I 9I 9I 9I 9I 9I 9I 9I 9I 9I 9I 9I 9I 9I 9I 9I 9I 9I 9I 9I 9I 9I 9I 9I 9I 9I 9I 9I 9I 9I 9I 9I 9I 9I 9I 9I 9I 9I 9I 9I 9I 9I 9I 9I 9I @9I @9I @9I @9I @9I @9I @9I @9I @9I @9I @9I @9I @9I @9I @9I @9I @9I @9I @9I @9I @9I @9I @9I @9I @9I @9I @9I @9I @9I @9I @9I @9I @9I @9I @9I @9I @9I @9I @9I @9I @9I @9I @9I @9I @9I @9I @9I @9I @9I @9I @9I @9I @9I @9I @9I @9I 9I 9I 9I B9I B9I B9I B9I B9I B9I B9I B9I B9I B9I B9I B9I B9I B9I B9I B9I B9I B9I B9I B9I B9I B9I B9I B9I B9I B9I B9I B9I B9I B9I B9I B9I B9I B9I B9I B9I B9I B9I B9I B9I B9I B9I B9I B9I B9I B9I B9I B9I B9I B9I B9I B9I 9I D9I D9I D9I D9I D9I D9I D9I D9I D9I D9I D9I D9I D9I D9I D9I D9I D9I D9I D9I D9I D9I D9I D9I D9I D9I D9I D9I D9I D9I D9I D9I D9I D9I D9I D9I D9I D9I D9I D9I D9I D9I D9I D9I D9I D9I D9I D9I D9I D9I D9I D9I D9I D9I 9I 9I 9I 9I 9I 9I 9I 9I 9I I I I I I EI EI EI EI EI EI EI EI EI EI EI EI EI EI EI EI EI EI EI EI EI EI EI EI EI EI EI EI EI EI EI EI EI EI EI EI EI EI EI EI EI EI EI EI EI EI EI EI E;I E;I E;I E;I E;I E;I E;I E;I E;I E;I E;I E;I E;I E;I E;I E;I E;I E;I E;I E;I E;I E;I E;I E;I E;I E;I E;I E;I E;I E;I E;I E;I E;I E;I E;I E;I E;I E;I E;I E;I E;I E;I E;I E;I E;I E;I E;I E;I E;I E;I E;I E;I E;I E;I E;I E;I E;I E;I E;I E;I E;I E;I E;9I ;9I ;9I ;9I 9I 9I@ 9I@ 9I@ 9I@ 9I@ 9I@ 9I@ 9I@ 9I@ 9I@ 9I@ 9I@ 9I@ 9I@ 9I@ 9I@ 9I@ 9I@ 9I@ 9I@ 9I@ 9I@ 9I@ 9I@ 9I@ 9I@ 9I@ 9I@ 9I@ 9I@ 9I@ 9I@ 9I@ 9I@ 9I@ 9I@ 9I@ 9I@ 9I@ 9I@ 9I@ 9I@ 9I@ 9I@ 9I@ 9I@ 9I@ 9I@ I@ I@ I@ 8I@ 8I@ 8I@ 8I@ 8I@ 8I@ 8I@ 8I@ 8I@ 8I@ 8I@ 8I@ 8I@ 8I@ 8I@ 8I@ 8I@ 8I@ 8I@ 8I@ 8I@ 8I@ 8I@ 8I@ 8I@ 8I@ 8I@ 8I@ 8I@ 8I@ 8I@ 8I@ 8I@ 8I@ 8I@ 8I@ 8I@ 8I@ 8I@ 8I@ 8I@ 8I@ 8I@ 8I@ 8I@ 8I@ 8I@ 8I@ 8I@ 8I@ 8I@ 8I@ 8I@ 8I@ I@ I@ I@ I@ I@6 I@6 I@6 I@6 @6 @6 @6 @6 @6 @6 6 6E 6E 6E 6E 6E 6EJ 6EJ 6EJ 6EJ 6EJ 6EJ 6EJ 6EJ 6EJ 6EJ 6EJ 6EJ 6EJ 6EJ 6EJ 6EJ 6EJ 6EJ 6EJ 6EJ 6EJ 6EJ 6EJ 6EJ 6EJ 6EJ 6EJ 6EJ 6EJ 6EJ 6EJ 6EJ 6EJ 6EJ 6EJ 6EJ 6EJ 6EJ 6EJ 6EJ 6EJ EJ EJ EJ EJ EJ E4J E4J 4J 4J 4J 4J 4J 4J 4J 4IJ 4IJ 4IJ 4IJ 4IJ 4IJ 4IJ 4IJ 4IJ 4IJ 4IJ 4IJ 4IJ 4IJ 4IJ 4IJ 4IJ 4IJ 4IJ 4IJ 4IJ 4IJ 4IJ 4IJ 4IJ 4IJ 4IJ 4IJ 4IJ 4IJ 4IJ 4IJ 4IJ 4IJ 4IJ 4IJ 4IJ 4IJ 4IJ 4IJ 4IJ 4IJ 4IJ 4IJ 4IJ 4IJ 4IJ IJ IJ IJ I6J I6J I6J I6J I6J 6J 6J 6J 6J 6GJ 6GJ 6GJ 6GJ 6GJ 6GJ 6GJ 6GJ 6GJ 6GJ 6GJ 6GJ 6GJ 6GJ 6GJ 6GJ 6GJ 6GJ 6GJ 6GJ 6GJ 6GJ 6GJ 6GJ 6GJ 6GJ 6GJ 6GJ 6GJ 6GJ 6GJ 6GJ 6GJ 6GJ 6GJ 6GJ 6GJ 6GJ 6GJ 6GJ 6GJ 6GJ 6GJ 6GJ 6GJ GJ GJ G2J G2J G2J G2J G2J 2J 2J E2J E2J E2J E2J E2J E2J E2J E2J E2J E2J E2J E2J E2J E2J E2J E2J E2J E2J E2J E2J E2J E2J E2J E2J E2J E2J E2J E2J 2J 2J 2J 2J 2J 2J 2J 2J 2J 2J 2J 2J 2J 2J 2J 2J 2J 2J 2J 2J 2J 2J 2J 2J 2J 2J 2J 2J4 J4 J4 J4 J4 J4 J4 J4 J4D J4D J4D J4D J4D J4D J4D J4D J4D 4D 4D 4D 4D 4D 4D 4D 4D 4D 4D 4D 4D 4D 4D 4D 4D 4D 4D 4D 4D 4D 4D 4D 4D 4D 4D 4D 4D 4D 4D 4D 4D 4D 4D 4D 4D 4D 4D 4D 4D 4D 4D 4D 4D D 6D 6D 6D 6D 6JD 6JD 6JD 6JD 6JD 6JD 6JD 6JD 6JD 6JD 6JD 6JD 6JD 6JD 6JD 6JD 6JD 6JD 6JD 6JD 6JD 6JD 6JD 6JD 6JD 6JD 6JD 6JD 6JD 6JD 6JD 6JD 6JD 6JD 6JD 6JD 6JD 6JD 6JD 6JD 6JD 6JD 6JD 6JD 6JD 6JD 6JD 6JD 6JD 6JD 6JD 6JD 6JD 6JD 6JD J4D J4D J4D J4D J4D J4D J4D J4D J4D J4ID 4ID 4ID 4ID 4ID 4ID 4ID 4ID 4ID 4ID 4ID 4ID 4ID 4ID 4ID 4ID 4ID 4ID 4ID 4ID 4ID 4ID 4ID 4ID 4ID 4ID 4ID 4ID 4ID 4ID 4ID 4ID 4ID 4ID 4ID 4ID 4ID 4ID 4ID 4ID 4ID 4ID 4ID 4ID 4ID 4ID 4ID 4ID ID ID ID I2D I2D I2D 2D 2D 2D 2D 2D 2GD 2GD 2GD 2GD 2GD 2GD 2GD 2GD 2GD 2GD 2GD 2GD 2GD 2GD 2GD 2GD 2GD 2GD 2GD 2GD GD GD GD GD GD GD GD GD GD GD GD GD GD GD GD GD GD GD GD GD GD GD GD GD GD GD GD GD GD GD GD GD D1 D1 D1 D1 D1 D1 D1L D1L D1L D1L D1L 1L 1L 1L 1L 1L 1L 1L 1L 1L 1L 1L 1L 1L 1L 1L 1L 1L 1L 1L 1L 1L 1L 1L 1L 1L 1L 1L 1L 1L 1L 1L 1L 1L 1L 1L 1L 1L 1L 1L 1L 1L 1L 1L 1L 1L 1L L L L /L /L /L /L /L /L /L /L /DL /DL /DL /DL /DL /DL /DL /DL /DL /DL /DL /DL /DL /DL /DL /DL /DL /DL /DL /DL /DL /DL /DL /DL /DL /DL /DL /DL /DL /DL /DL /DL /DL /DL /DL /DL /DL /DL /DL /DL /DL /DL /DL /DL /DL /DL /DL DL DL DL DL DL D1L D1L D1L D1L D1L 1L 1L 1L 1L 1LE 1LE 1LE 1LE 1LE 1LE 1LE 1LE 1LE 1LE 1LE 1LE 1LE 1LE 1LE 1LE 1LE 1LE 1LE 1LE 1LE 1LE 1LE 1LE 1LE 1LE 1LE 1LE 1LE 1LE 1LE 1LE 1LE 1LE 1LE 1LE 1LE 1LE 1LE 1LE 1LE 1LE 1LE LE LE LE LE LE LE LN-E LN-E LN-E LN-E LN-E LN-E N-E N-E N-E N-E N-E N-E N-E N-E N-E N-E N-E N-E N-E N-E N-E N-E N-E N-E N-E N-E N-E N-E N-E N-E N-E N-E -E -E -E -E -E -E -E -E -E -E -E -E -E -E -E -E -E -E -E -E -E -E -E -E E E 4E 4E 4E 4E 4E 4E 4LE 4LE 4LE 4LE 4LE 4LE 4LE 4LE 4LE 4LE 4LE 4LE 4LE 4LE 4LE 4LE 4LE 4LE 4LE 4LE 4LE 4LE 4LE 4LE 4LE 4LE 4LE 4LE 4LE 4LE 4LE 4LE 4LE 4LE 4LE 4LE 4LE 4LE 4LE 4LE 4LE 4LE 4LE 4LE 4LE 4LE 4LE 4LE 4LE 4LE 4LE 4LE 4LE 4LE LE LE E IE IE IE IE IE IE IE IE IE IE IE IE IE IE IE IE IE IE IE IE IE E E E E E E E E E E E E E E E E E E E E E E E E E E E E E E E E E( E( E( E( E( E( E( E( E( E(JD E(JD (JD (JD (JD (JD (JD (JD (JD (JD (JD (JD (JD (JD (JD (JD (JD (JD (JD (JD (JD (JD (JD (JD (JD (JD (JD (JD (JD (JD (JD (JD (JD (JD (JD (JD (JD (JD (JD (JD (JD (JD (JD (JD (JD (JD JD JD JD JD JD JD JD JD JD JD JD D D GD GD GD GD GD GD GD GD GD GD GD GD GD GD GD GD GD GD GD GD D D D D D D D D D D D D D D D D D D D D D D D D D D D D D D D D D      - - -E -E -E -E -E -E -E -E -E -E -E -E -E -E -E -E -E -E -E -E -E -E -E -E -E -E -E -E -E -E -E -E -E -E -E -E -E -E -E -E -E -E -E -E -E -E -E -E -E -E -E -E -E -E -E -E -E B-E B-E B-E B-E B-E B-E B-E B-E B-E B-E B-E B-E B-E B-E B-E B-E B-E B-E B-E B-E B-E B-E B-E B-E B-E B-E B-E B-E B-E B-E B-E B-E B-E B-E B-E B-E B-E B-E B-E B-E B-E B-E B-E B-E B-E B-E B-E B-E B-E B-E B-E B-E B-E B-E B-E B-E B-E B-E B-E B-E B-E -E @-E @-E @-E @-E @-E @-E @-E @-E @-E @-E @-E @-E @-E @-E @-E @-E @-E @-E @-E @-E @-E @-E @-E @-E @-E @-E @-E @-E @-E @-E @-E @-E @-E @-E @-E -E -E -E -E -E -E -E -E -E -E -E -E -E -E -E -E -E -E -E -E -E >-E >-E >-E >-E >-E >-E >-E >-E >-E >-E >-E >-E >-E >-E >-E >-E >-E >-E >-E >-E >-E >-E >-E >-E >-E >-E -E -E -E -E -E -E -E -E -E -E -E -E -E -E -E -E -E -E -E -E -E -E -E -E -E E E E E E E E E E E E E E =E =E =E =E =E =E =E =E =E =E =E =E =E =E =E =E =E =E =E =E =E =E =E =E =E =E =E =E =E =E =E =E =E =E =E =E =E =E =E =E =E =E =E =E =E =E =E =E =/E =/E =/E =/E =/E =/E =/E =/E =/E =/E =/E =/E =/E =/E =/E =/E =/E =/E =/E =/E =/E =/E =/E =/E =/E =/E =/E =/E =/E =/E =/E =/E =/E =/E =/E =/E =/E =/E =/E =/E =/E =/E =/E =/E =/E =/E =/E =/E =/E =/E =/E =/E =/E =/E =/E /E /E /E /E /E /E /E /-E /-E -E -E -E -E -E -E -E -E -E -E -E -E -E -@E -@E -@E -@E -@E -@E -@E -@E -@E -@E -@E -@E -@E -@E -@E -@E -@E -@E -@E -@E -@E -@E -@E -@E -@E -@E -@E -@E -@E -@E -@E -@E -@E -@E -@E -@E -@E -@E -@E -@E -@E -@+E -@+E -@+E -@+E -@+E -@+E @+E @+E @+E @+E @+E @+E @+E @+E @+E @+E @+E @+E @+E @+E @+E @+E @+E @+E +E +E +E +E +E +E E E E E E E E E E E E E E E E E E E E E E E E E E E E E E E E E E E E *E *E *E *E *E *E *E *E *E *E *E *9E *9E *9E *9E *9E *9E *9E *9E *9E *9E *9E *9E *9E *9E *9E *9E *9E *9E *9E *9E *9E *9E *9E *9E *9E *9E *9E *9E *9E *9E *9E *9E *9E *9E *9E *9E *9E *9E *9E *9E *9E *9E *9E *9E *9E *9E *9E *9E *9E *9E 9E 9E 9(E 9(E 9(E 9(E 9(E 9(E 9(E 9(E 9(E 9(E 9(E 9(E 9(E 9(E 9(E 9(E 9(E 9(E 9(E 9(E 9(E 9(E 9(E 9(E 9(E 9(E 9(E 9(E 9(E 9(E 9(E 9(E 9(E 9(E 9(E 9(E 9(E 9(E 9(E 9(E 9(E 9(E 9(E (E (E (E (E (E (E (E (E (E (E (E (E (E E E E E *E *E *E *E *E *E *E *E *E *E *E *E *E *E *E *BE *BE *BE *BE *B>E *B>E *B>E *B>E *B>E *B>E *B>E *B>E *B>E *B>E *B>E *B>E *B>E *B>E *B>E *B>E *B>E *B>E *B>E *B>E *B>E *B>E *B>E *B>E *B>E *B>E *B>E *B>E *B>E *B>E *B>E *B>E *B>E *B>E *B>E *B>E B>E B>E B>E &B>E &B>E &B>E &B>E &B>E &B>E &B>E &B>E &B>E &B>E &B>E &B>E &B>E &B>E &B>E &B>E &B>E &B>E &B>E &B>E &B>E &B>E &B>E &B>E &B>E &B>E &B>E &B>E &B>E &B>E B>E B>E B>E B>E B>E B>E B>E B>E B>E B>E B>E B>E B>E B>E B>E B>E B>E B>E B>E B>E B>E B>E B>E B>E B>E B>E B>E B>E B>E B>E B>E B>E B>E B>E B>E B>E B>E B>E B>E B>E B>E B>E B>E B>E B>E B>E B>E B>E B>-E B>-E B>-E B>-E B>-E B>-E B>-E B>-E B>-E B>-E B>-E B>-E B>-E B>-E B>-E >-E >-E >-E >-E >-E >-E >-E >-E >-E >-E >-E >-E >-E >-E >-E >-E >-E >-E >-E >-E >-E >-E >-E >-E >-E >-E >-E >-E >-E >-E >-E >-E >-E >-E >-E >-E >-E >-E >-E >-E >-E >-E >-E >-E >-E >-E >-E >-E >-E >-E >-E >-E B>-E B>-E B>-E B>-E B>-E B>-E B>-E B>-E B>-E B>-E B>-E B>-E B>-E B>-E B>-E B>-E B>-E B>-E B>-E B>-E B>-E B>-E B>-E B>-E B>-E B>-E B>-E B>-E B>-E B>-E B>-E B>-E B>-E B>-E B>-E B>-E B>-E B>-E B>-E B>-E B>-E B>-E B>-E B>-E B>-E B>-E B>-E B>-E B>-E B>-E B>-E B>-E B>-E B>-E B>-E >-E >-E >-E >@-E >@-E @-E @-E @-E @-E @-E @-E @-E @-E @-E @-E @-E @-E @-E @-E @-E @-E @-E @-E @-E @-E @-E @-E @-E @-E @-E @-E @-E @-E @-E @-E @-E @-E @-E @-E @-E @-E @-E @-E @-E @-E @-E @-E @-E @-E @-E @-E @-E @-E @-E @-E @-E @-E @-E @-E @-E >-E >-E >-E >-E >-E >-E >-E >-E >-E >-E >-E >-E >-E >-E >-E >-E >-E >-E >-E >-E >-E >-E >-E >-E >-E >-E >-E >-E >-E >-E >-E >-E >-E >-E >-E >-E >-E >-E >-E >-E >-E -E -E -E -E -E -E -E -E -E -E -E -E -E -E -E -E -E -E -E -E -E -E@ -E@ -E@ -E@ -E@ -E@ -E@ -E@ -E@ -E@ -E@ -E@ -E@ -E@ -E@ -E@ -E@ -E@ -E@ -E@ -E@ -E@ -E@ -E@ -E@ -E@ -E@ -E@ -E@ -E@ -E@ -E@ -E@ -E@ -E@ -E@ -E@ -E@ -E@ -E@ -E@ -E@ -E@ -E@ -E@ -E@ -E@ -E@ -E@ -E@ -E@ -E@ -E@ -E@ -E@ -E@ -E@ -E@ -E@ >-E@ >-E@ >-E@ >-E@ >-E@ >-E@ >-E@ >-E@ >-E@ >-E@ >-E@ >-E@ >-E@ >-E@ >-E@ >-E@ >-E@ >-E@ >-E@ >-E@ >-E@ >-E@ >-E@ >-E@ >-E@ >-E@ >-E@ >-E@ >-E@ >-E@ >-E@ >-E@ >-E@ >-E@ >-E@ >-E@ >-E@ >-E@ >-E@ >-E@ >-E@ >-E@ >-E@ >-E@ >-E@ >-E@ >-E@ >-E@ >-E@ >-E@ >-E@ >-E@ -E@ -E@ -E@ -E@ -E@ -E@ -E@ -E@ -=E@ -=E@ -=E@ -=E@ -=E@ -=E@ -=E@ -=E@ -=E@ -=E@ -=E@ -=E@ -=E@ -=E@ -=E@ -=E@ -=E@ -=E@ -=E@ -=E@ -=E@ -=E@ -=E@ -=E@ -=E@ -=E@ -=E@ -=E@ -=E@ -=E@ =E@ =E@ =E@ =E@ =E@ =E@ =E@ =E@ =E@ =E@ =E@ =E@ =E@ =E@ E@ E@ E@ E@ E@ E@ ;E@ ;E@ ;E@ ;E@ ;E@ ;E@ ;E@ ;E@ ;E@ ;E@ ;E@ ;E@ ;E@ ;E@ ;E@ ;E@ ;E@ ;E@ ;E@ ;E@ ;E@ ;E@ ;E@ ;E@ ;E@ ;E@ ;E@ ;E@ ;E@ ;E@ ;E@ ;E@ ;E@ ;E@ ;E@ ;E@ ;E@ ;E@ ;E@ ;E@ ;E@ ;E@ ;E@ ;E@ ;E@ ;E@ ;E@ ;E@ ;E@ ;E@ ;E@ ;E@ ;E@ ;E@ ;E@ ;E@ ;E@ ;E@ ;E@ ;E@ E@ E@ E@ E@ E@ E@ E@ E@ E@= E@= E@= E@= E@= E@= E@= E@= E@= E@= E@= E@= E@= E@= E@= E@= E@= E@= E@= E@= E@= E@= E@= E@= E@= E@= E@= E@= E@= E@= E@= E@= E@= E@= E@= E@= E@= E@= E@= E@= E@= E@= E@= E@= E@= E@= E@= E@= E@= E@= E@= E@= E@= E@= E@= E@= E@= ;E@= ;E@= ;E@= ;E@= ;E@= ;E@= ;E@= ;E@= ;E@= ;E@= ;E@= ;E@= ;E@= ;E@= ;E@= ;E@= ;E@= ;E@= ;E@= ;E@= ;E@= ;E@= ;E@= ;E@= ;E@= ;E@= ;E@= ;E@= ;E@= ;E@= ;E@= ;E@= ;E@= ;E@= ;E@= ;E@= ;E@= ;E@= ;E@= ;E@= ;E@= ;E@= ;E@= ;E@= ;E@= ;E@= ;E@= ;E@= ;E@= ;E@= ;E@= ;E@= ;E@= ;E@= ;E@= ;E@= ;E@= ;E@= E@= E@= E9@= E9@= E9@= E9@= E9@= E9@= E9@= E9@= E9@= E9@= E9@= E9@= E9@= E9@= E9@= E9@= E9@= E9@= E9@= E9@= E9@= E9@= E9@= E9@= E9@= E9@= E9@= E9@= E9@= E9@= E9@= E9@= E9@= E9@= E9@= E9@= E9@= E9@= E9@= E9@= E9@= E9@= E9@= E9@= E9@= 9@= 9@= 9@= 9@= 9@= @= @= = = = 8 8 8 8 8 8 8 8 8 8 8 8 8 8 8 8 8 8 8 8 8 8 8 8 8 8 8 8 8 8 8 8 8 8 8 8 8 8 8 8 8 8 8 8 8 8 8 8 8 8 8 8 8    9 9 9 9 9 9 9 9 9 9 9 9 9 9 9 9 9 9 9 9 9 9 9 9 9 9 9 9 9 9 9 9 9 9 9 9 9 9 9 9 9 9 9 9 9 9                              2 2 2 2 2 2 2 28 28 28 28 28 28 28 28 28 28 28 28 28 28 28 28 28 28 28 28 28 28 28 28 28 28 28 28 28 28 28 28 28 28 28 28 28 28 28 28 28 28 28 28 28 28 28 28 28 28 28 28 8 81 81 81 81 81 81 819 819 19 19 19 19 19 19 19 19 19 19 19 19 19 19 19 19 19 19 19 19 19 19 19 19 19 19 19 19 19 19 19 19 19 19 19 19 19 19 19 19 19 19 19 19 19 19 19 19 19 19 19 19 19/ 19/ 19/ 9/ 9/ 9/; 9/; 9/; /; /; /; /; /; /; /; /; /; /; /; /; /; /; /; /; /; /; /; /; /; /; /; /; /; /; /; /; /; /; /; /; /; /; /; ; ; ; ; ; ;   - - - - - - - - - - - - =- =- =- =- =- =- =- =- =- =- =- =- =- =- =- =- =- =- =- =- =- =- =- =- =- =- =- =- =- =- =- =- =- =- =- =- =- =- =- =- =- =- =- =- =- =- =- =- =- =- =- =- =- =- =- =- - >- >- >- >- >- >- >- >- >- >- >- >- >- >- >- >- >- >- >- >- >- >- >- >- >- >- >- >- >- >- >- >- >- >- >- >- >- >- >- >- >- >- >- >- >- >- >- >- >- >- >- >- - - - -= -= -= -= -= -= -= -= -= -= -= -= -= -= -= -= -= -= -= = = = = = = = = = = = = = = = = = = = = = = = = = = = = = = = = = = =  > > > > > > > > > > > > > > > > > > > > > > > > > > > > > > > > > > > > > > > > > > > > >              @ @ @ @ @ @ @ @ @ @ @ @ @ @ @ @ @ @ @ @ @ @ @ @ @ @ @ @ @ @ @ @ @ @ @> @> @> @> @> @> > > > > > > > > > > > > > > > > > > > > > > > > > > >  @ @ @ @ @ @ @ @ @ @ @ @ @ @ @ @ @ @ @ @ @ @> @> @> @> @> @> > > > > > > > > > > > > > >      @ @ @ @ @ @ @ @ @ @ @ @ @ @ @ @ @> @> @> @> @> @> @> @> @> @> @> @> @> @> @> @> @> @> @> @> @> @> @> @> @> @> @> @> @> @> @> @> @> @> @> @> @> @> > > > > > > >= >= >= = = = = = = = = = = = = = = = = = = = = = = = = = = = = => > > > > > > > > > > > > > > > > > > > > > > > > > > > > > > > > > > > > > > > > >      @ @ @ @ @ @ @ @ @ @ @ @ @ @ @ @ @ @ @ @ @ @ @ @ @ @ @ @ @ @ @ @ @ @ @ @ @ @ @ @ @ @ @ @ @ @ @ @ @ @ @ @ @ @ @ @ @ @ @ @ @ @ @ @ @ @ @ @ @ @ @ @ @ @ @ @ @ @ @ @ @ @ @ @ @ @ @ @ @ @ @ @ @ @ @ @ @ @ @ @ @ @ @ @ @ @ @ @ @ @ @ @ 4@ 4@ 4@ 4@ 4@ 4@ 4@ 4@ 4@ 4@ 4@ 4@ 4@ 4@ 4@ 4@ 4@ 4@ 4@ 4@ 4@ 4@ 4@ 4@ 4@ 4@ 4@ 4@ 4@ 4@ 4@ 4@ 4@ 4@ 4@ 4@ 4@ 4@ 4@ 4@ 4@ 4@ 4@ 4@ 4@ 4@ 4@ 4@ 4@ 4@ 4@ 4@ 4@ 4@ 4@ 4@ 4@ 4@ 4@ @ @ @ @ @ @ @ @ @ @ @ @ @ @ @ @ @ @ @ @ @ @ @ @ @ @ @ @ @ @ @ @ @ @ @ @ @ @ @ @ @ @ @ @ @ @ @ @ @            6 6 6 6 6 6 6 6 6 6 6 6 6 6 6 6 6 6 6 6 6 6 6 6 6 6 6 6 6 6 6 6 6 6 6 6 6 6 6 6 6 6 6 6 6 6 6 6 6 6 6 6 6 6 6 6 6 6 6 6 6 6 6 68 8 8 8 8 8 8 8 8 8 8 8 8 8 8 8 8 8 8 8 8 8 8 8 8 8 8 8 8 8 8 8 8 8 8 8 8 8 8 8 8 8 8 8 8 8 8 8 8 8 8 8 8  6 6 6 6 6 6 6 6 6 6 6 6 6 6 6 6 6 6 6 6 6 6 6 6 6 6 6 6 6 6 6 6 6 6 6 6 6 6 6 6 6 6 6 6 6 6 6 6 6 6 6 6 6 6 6 6 6 6 6 68 68 68 68 68 68 68 68 8 8 8 8 8 8 8 8 8 8 8 8 8 8 8 8 8 8 8 8 8 8 8 8 8 8 8 8 8 8 8 8 8 8 8 8 8 8 8 8          9@ 9@ 9@ 9@ 9@ 9@ 9@ 9@ 9@ 9@ 9@ 9@ 9@ 9@ 9@ 9@ 9@ 9@ 9@ 9@ 9@ 9@ 9@ 9@ 9@ 9@ 9@ 9@ 9@ 9@ 9@ 9@ 9@ 9@ 9@ 9@ 9@ 9@ 9@ 9@ 98@ 98@ 8@ 8@ 8@ 8@ 8@ 8@ 8@ 8@ 8@ 8@ 8@ 8@ 8@ 8@ 8@ 8@ 8@ 8@ 8@ 8@ 8@ 8@ 8@ 8@ 8@ 8@ @ @ @ @ 9@ 9@ 9@ 9@ 9@ 9@ 9@ 9@ 9@ 9@ 9@ 9@ 9@ 9@ 9@ 9@ 9@ 9@ 9@ 9@ 98@ 98@ 98@ 98@ 8@ 8@ 8@ 8@ 8@ 8@ 8@ 8@ 8@ @ @ 9@ 9@ 9@ 9@ 9@ 9@ 9@ 9@ 9@ 9@ 9@ 9@ 9@ 9@ 9@ 9@ 98@ 98@ 98@ 98@ 98@ 8@ 8@ 8@ 8@ 8@ 8@ 8@ 8@ 8@ 8@ 8@ 8@ 8@ 8@ 8@ 98@ 98@ 98@ 98@ 98@ 98@ 98@ 98@ 98@ 8@ 8@ 8@ 8@ 8@ 8@ 8@ 8@ 8@ 8@ 8@ 8@ 8@ 8@ 8@ 8@ 86@ 6@ 6@ 6@ 6@ 6@ 6@ 6@ 6@ 6@ 6@ 6@ 6@ 6@ 6@ 6@ 6@ 6@ 6@ 6@ 6@ 6@ 6@ 6@ 6@ 6@ 6@ 6@ 6@ 6@ 6@ 6@ 6@ 6@ 6@ 6@ 68@ 68@ 68@ 68@ 8@ 8@ 8@ 8@ 8@ 8@ 8@ 8@ 8@ 8@ 8@ 8@ 8@ 8@ 8@ 8@ 8@ 8@ 8@ 8@ 8@ 8@ 8@ 8@ 8@ @ @ @ @ @ @ @ @ @ @ @ @9 @9 @9 @9 @9 @9 @9 @9 @9B @9B @9B @9B @9B @9B @9B @9B @9B @9B @9B @9B @9B @9B @9B @9B @9B @9B @9B 9B 9B 9B 9B 9B 9B 9B 9B 9B 9B 9B 9B 9B 9B 9B 9B 9B 9B 9B 9B 9B 9B 9B 9B 9B 9B 9B 9B 9B 9B 9B 9B 9B 9B 9B 9B 9B 9B 9B 9B 9B 9B 9B 9B 9B 9B 9B 9B 9B 9B 9B 9B 9B 9B 9B 9B 9B 9B 9B 9B 9B 9B 9B 9B 9B 9B 9B 9B @9B @9B @9B @9B @9B @9B @9B @9B @9B @9B @9B @9B @9B @9B @9B @9B @9B @9B @9B @9B @9B @9B @9B @9B @9B @9B @9B @9B @9B @9B @9B @9B @9B @9B @9B @9B @9B @9B @9B @9B @9B @9B @9B @9B @9B @9B @9B @9B @9B @9B @9B @9B @9B @9B @9B @9B @9B @9B @9B 9B >9B >9B >9B >9B >9B >9B >9B >9B >9B >9B >9B >9B >9B >9B >9B >9B >9B >9B >9B >9B >9B >9B >9B >9B >9B >9B >9B >9B >9B >9B >9B >9B >9B >9B >9B >9B >9B >9B >9B >9B >9B >9B >9B >9B >9B >9B >9B >9B >9B >9B >9B >9B >9B >9B >9B >9B >9=B >9=B >9=B >9=B 9=B 9=B 9=B 9=B 9=B 9=B 9=B 9=B 9=B 9=B 9=B 9=B 9=B 9=B 9=B 9=B 9=B 9=B 9=B 9=B 9=B 9=B 9=B 9=B 9=B 9=B 9=B 9=B 9=B 9=B 9=B 9=B 9=B 9=B 9=B 9=B 9=B 9=B 9=B 9=B 9=B 9=B 9=B 9=B 9=B 9=B 9=B 9=B 9=B 9=B 9=B 9=B 9=B 9=B 9=B 9=B 9=B 9=B 9=B 9=B 9=B 9=B> B> B> B> B> B> B> B> B> B> B> B> B> B> B> B> B> B> B> B> B> B> B> B> B> B> B> B> B> B> B> B> B> B> B> B> B> B> B> B> B> B> B> B> B> B> B> B> B> B> B> B> B> B> B> B> B> ;B> ;B> ;B> ;B> ;B> ;B> ;B> ;B> ;B> ;B> ;B> ;B> ;B> ;B> ;B> ;B> ;B> ;B> ;B> ;B> ;B> ;B> ;B> ;B> ;B> ;B> ;B> ;B> ;B> ;B> ;B> ;B> ;B> ;B> ;B> ;B> ;B> ;B> ;B> ;B> ;B> ;B> ;B> ;B> ;B> ;B> ;B> ;B> ;B> ;B> ;B> ;B> ;B> ;B> ;B> ;B> ;B> ;B> ;B> ;B> ;B> ;B> ;B> ;9B> ;9B> 9B> 9B> 9B> 9B> 9B> 9B> 9B> 9B> 9B> 9B> 9B> 9B> 9B> 9B> 9B> 9B> 9B> 9B> 9B> 9B> 9B> 9B> 9B> 9B> 9B> 9B> 9B> 9B> 9B> 9B> 9B> 9B> 9B> 9B> 9B> 9B> 9B> 9B> 9B> 9B> 9B> 9B> 9B> 9B> 9B> 9B> 9B> 9B> 9B> 9B> 9B> 9B> 97B> 97B> 97B> 97B> 97B> 7B> 7B> 7B> 7B> 7B> 7B> 7B> 7B> 7B> 7B> 7B> 7B> 7B> 7B> 7B> 7B> 7B> 7B> 7B> 7B> 7B> 7B> 7B> 7B> 7B> 7B> 7B> 7B> 7B> 7B> 7B> 7B> 7B> 7B> 7B> 7B> 7B> 7B> 7B> 7B> 7B> 7B> 7B> 7B> 7B> 7B> 7B> 7B> 7B> 7B> 7B> 7B> 7B> 7B> 7B> 7B> 7B> 7B> 76B> 76B> 6B> 6B> 6B> 6B> 6B> 6B> 6B> 6B> 6B> 6B> 6B> 6B> 6B> 6B> 6B> 6B> 6B> 6B> 6B> 6B> 6B> 6B> 6B> 6B> 6B> 6B> 6B> 6B> 6B> 6B> 6B> 6B> 6B> 6B> 6B> 6B> 6B> 6B> 6B> 6B> 6B> 6B> 6B> 6B> 6B> 6B> 6B> 6B> 6B> 6B> 6B> 6B> 6B> 6B> 6B> 6B> 6B> 6B> 6B> 6B> 6B> 6B> 6B> 64B> 4B> 4B> 4B> 4B> 4B> 4B> 4B> 4B> 4B> 4B> 4B> 4B> 4B> 4B> 4B> 4B> 4B> 4B> 4B> 4B> 4B> 4B> 4B> 4B> 4B> 4B> 4B> 4B> 4B> 4B> 4B> 4B> 4B> 4B> 4B> 4B> 4B> 4B> 4B> 4B> 4B> 4B> 4B> 4B> 4B> 4B> 4B> 4B> 4B> 4B> 4B> 4B> 4B> 46B> 46B> 46B> 46B> 46B> 46B> 46B> 6B> 6B> 6B> 6B> 6B> 6B> 6B> 6B> 6B> 6B> 6B> 6B> 6B> 6B> 6B> 6B> 6B> 6B> 6B> 6B> 6B> 6B> 6B> 6B> 6B> 6B> 6B> 6B> 6B> 6B> 6B> 6B> 6B> 6B> 6B> 6B> 6B> 6B> 6B> 6B> 6B> 6B> 6B> 6B> 6B> 6B> 6B> 6B> 6B> 6B> 6B> 6B> 6B> 6B> B> B>2 B>2 B>2 B>2 B>2 B>2 B>2 B>2 B>2 B>2 B>2 B>2 B>2 B>2 B>2 B>2 B>2 B>2 B>2 B>2 B>2 B>2 B>2 B>2 >2 >2 >2 >2 >2 >2 >2 >2 >2 >2 >2 >2 >2 >2 >2 >2 >2 >2 >2 >2 >2 >2@ >2@ >2@ >2@ >2@ 2@ 2@ 2@ 2@ 2@ 2@ 2@ 2@ @ 9@ 9@ 9@ 9@ 9@ 9@ 9@ 9@ 9@ 9@ 9@ 9@ 9@ 9@ 9@ 9@ 9@ 9@ 9@ 9@ 9@ 9@ 9@ 9@ 9@ 9@ 9@ 9@ 9@ 9@ 9@ 9@ 9@ 9@ 9@ 9@ 9@ 9@ 9@ 9@ 9@ 9@ 9@ 9@ 9@ 9@ 9@ 9@ 9@ 9@ 9@ 9@ 9@ 9@ 9@ 9@ >9@ >9@ >9@ >9@ >9@ >9@ >9@ >9@ >9@ >9@ >9@ >9@ >9@ >9@ >9@ >9@ >9@ >9@ >9@ >9@ >9@ >9@ >9@ >9@ >9@ >9@ >9@ >9@ >9@ >9@ >9@ >9@ >9@ >9@ >9@ >9@ >9@ >9@ >9@ >9@ >9@ >9@ >9@ >9@ >9@ >9@ >9@ >9@ >=9@ >=9@ >=9@ >=9@ >=9@ >=9@ >=9@ >=9@ >=9@ >=9@ =9@ =9@ =9@ =9@ =9@ =9@ =9@ =9@ =9@ =9@ =9@ =9@ =9@ =9@ =9@ =9@ =9@ =9@ =9@ =9@ =9@ =9@ =9@ =9@ =9@ =9@ =9@ =9@ =9@ =9@ =9@ =9@ =9@ =9@ =9@ =9@ =9@ =9@ =9@ =9@ =9@ =9@ =9@ =9@ =9@ =9@ =9;@ 9;@ 9;@ 9;@ 9;@ 9;@ 9;@ 9;@ 9;@ 9;@ 9;@ 9;@ 9;@ 9;@ 9;@ 9;@ 9;@ 9;@ 9;@ 9;@ 9;@ 9;@ 9;@ 9;@ 9;@ 9;@ 9;@ 9;@ 9;@ 9;@ 9;@ 9;@ 9;@ 9;@ 9;@ 9;@ 9;@ 9;@ 9;@ 9;@ 9;@ 9;@ 9;@ 9;@ 9;@ 9;@ 9;@ 9;@ 9;@ 9;@ 9;@ 9;@ 9;@ 9;@ 9;@ ;@ ;@ ;@ ;@ ;@ ;@ @ @ @ @ @ @ @= @= @= @= @= @= @= @= @= @= @= @= @= @= @= @= @= @= @= @= @= @= @= @= @= @= @= @= @= @= @= @= @= @= @= @= @= @= @= @= @= @= @= @= @= @= @= @= 6@= 6@= 6@= 6@= 6@= 6@= 6@= 6@= 6@= 6@= 6@= 6@= 6@= 6@= 6@= 6@= 6@= 6@= 6@= 6@= 6@= 6@= 6@= 6@= 6@= 6@= 6@= 6@= 6@= 6@= 6@= 6@= 6@= 6@= 6@= 6@= 6@= 6@= 6@= 6@= 6@= 6@= 6@= 6@= 6@= 6@= 6@= 6@= 6@= 6@= 6@= 6@= 6@= 6@= 6@= 6@= 6@= 6@= 6@= 6@= 64@= 64@= 4@= 4@= 4@= 4@= 4@= 4@= 4@= 4@= 4@= 4@= 4@= 4@= 4@= 4@= 4@= 4@= 4@= 4@= 4@= 4@= 4@= 4@= 4@= 4@= 4@= 4@= 4@= 4@= 4@= 4@= 4@= 4@= 4@= 4@= 4@= 4@= 4@= 4@= 4@= 4@= 4@= 4@= 4@= 4@= 4@= 4@= 4@= 4@= 4@= 4@= 4@= 4@= 4@= 4@= 4@= 4@= 4@= 42@= 42@= 42@= 2@= 2@= 2@= 2@= 2@= 2@= 2@= 2@= 2@= 2@= 2@= 2@= 2@= 2@= 2@= 2@= 2@= 2@= 2@= 2@= 2@= 2@= 2@= 2@= 2@= 2@= 2@= 2@= 2@= 2@= 2@= 2@= @= @= @= @= @= @= @= @= @= @= @= @= @= @= @= @= @= @= @= @= @= @= @= 1@= 1@= 1@= 1@= 1@= 1@= 1@= 1@= 1@= 1@= 1@= 1@= 1@= 1@= 1@= 1@= 1@= 1@= 1@= 1@= 1@= 1@= 1@= 1@= 1@= 1@= 1@= 1@= 1@= 1@= 1@= 1@= 1@= 1@= 1@= 1@= 1@= 1@= 1@= 1@= 1@= 1@= 1@= 1@= 1@= 1@= 1@= 1@= 1@= 1@= 1@= 1@= 1@= 1@= 1@= 1@= @= /@= /@= /@= /@= /@= /@= /@= /@= /@= /@= /@= /@= /@= /@= /@= /@= /@= /@= /@= /@= /@= /@= /@= /@= /@= /@= /@= /@= /@= /@= /@= /@= /@= /@= /@= /@= /@= /@= /@= /@= /@= /@= /@= /@= /@= /@= /@= /@= /@= /@= /@= /@= /@= /@= /@= /@= /@= /1@= /1@= /1@= /1@= 1@= 1@= 1@= 1@= 1@= 1@= 1@= 1@= 1@= 1@= 1@= 1@= 1@= 1@= 1@= 1@= 1@= 1@= 1@= 1@= 1@= 1@= 1@= 1@= 1@= 1@= 1@= 1@= 1@= 1@= 1@= 1@= 1@= 1@= 1@= 1@= 1@= 1@= 1@= 1@= 1@= 1@= 1@= 1@= 1@= 1@= 1@= 1@= 1@= @= @= @= @= @= -@= -@= -@= -@= -@= -@= -@= -@= -@= -@= -@= -@= -@= -@= -@= -@= -@= -@= -@= -@= -@= -@= -@= -@= -@= -@= -@= -@= -@= -@= -@= -@= -@= -@= -@= -@= -@= -@= -@= -@= -@= -@= -@= -@= -@= -@= -@= -@= -@= -@= -@= -@= -@= -@= -@= -@= -@=6 -@=6 @=6 @=6 @=6 @=6 =6 =6 =6 =6 =6 =6 =6 =6> =6> =6> =6> 6> 6> 6> 6> 6> 6> 6> 6> 6> 6> 6> 6> 6> 6> 6> 6> 6> 6> 6> 6> 6> 6> 6> 6> 6> 6> 6> 6> 6> 6> 6> 6> 6> 6> 6> 6> 6> 6> 6> 6> 6> 6> 6> 6> 6> 6> 6> 6> 6> 6> 6> 6> 6> 6> 6> 6> 6> =6> =6> =6> =6> =6> =6> =6> =6> =6> =6> =6> =6> =6> =6> =6> =6> =6> =6> =6> =6> =6> =6> =6> =6> =6> =6> =6> =6> =6> =6> =6> =6> =6> =6> =6> =6> =6> =6> =6> =6> =6> =6> =6> =6> =6> =6> =6> =6> =6> =6> =6> =6> =6> =6> =6> =6> =6> =6> =6> =6> =6> =;6> =;6> =;6> =;6> ;6> ;6> ;6> ;6> ;6> ;6> ;6> ;6> ;6> ;6> ;6> ;6> ;6> ;6> ;6> ;6> ;6> ;6> ;6> ;6> ;6> ;6> ;6> ;6> ;6> ;6> ;6> ;6> ;6> ;6> ;6> ;6> ;6> ;6> ;6> ;6> ;6> ;6> ;6> ;6> ;6> ;6> ;6> ;6> ;6> ;6> ;6> ;6> ;6> ;6> ;6> ;6> ;6> ;6> ;96> ;96> ;96> ;96> ;96> 96> 96> 96> 96> 96> 96> 96> 96> 96> 96> 96> 96> 96> 96> 96> 96> 96> 96> 96> 96> 96> 96> 96> 96> 96> 96> 96> 96> 96> 96> 96> 96> 96> 96> 96> 96> 96> 96> 96> 96> 96> 96> 96> 96> 96> 96> 96> 96> 96> 96> 96> 96> 6> 6> 6> 6>; 6>; 6>; >; >; >; >; >; >; >; >; >; >; >; >; >; >; >; >; >; >; >; >; >; >; >; >; >; >; >; >; >; >; >; >; >; >; >; >; >; >; >; >; >; >; >; >; >; >; >; >; >; >; >; >; 9>; 9>; 9>; 9>; 9>; 9>; 9>; 9>; 9>; 9>; 9>; 9>; 9>; 9>; 9>; 9>; 9>; 9>; 9>; 9>; 9>; 9>; 9>; 9>; 9>; 9>; 9>; 9>; 9>; 9>; 9>; 9>; 9>; 9>; 9>; 9>; 9>; 9>; 9>; 9>; 9>; 9>; 9>; 9>; 9>; 9>; 9>; 9>; 9>; 9>; 9>; 9>; 9>; 9>; 9>; 9>; 9>; 9>; 9>; 9>; 9>; 9>; 9>; 98>; 98>; 8>; 8>; 8>; 8>; 8>; 8>; 8>; 8>; 8>; 8>; 8>; 8>; 8>; 8>; 8>; 8>; 8>; 8>; 8>; 8>; 8>; 8>; 8>; 8>; 8>; 8>; 8>; 8>; 8>; 8>; 8>; 8>; 8>; 8>; 8>; 8>; 8>; 8>; 8>; 8>; 8>; 8>; 8>; 8>; 8>; 8>; 8>; 8>; 8>; 8>; 8>; 8>; 8>; 8>; 8>; 8>; 8>; 86>; 86>; 6>; 6>; 6>; 6>; 6>; 6>; 6>; 6>; 6>; 6>; 6>; 6>; 6>; 6>; 6>; 6>; 6>; 6>; 6>; 6>; 6>; 6>; 6>; 6>; 6>; 6>; 6>; 6>; 6>; 6>; 6>; >; >; >; >; >; >; >; >; >; >; >; >; >; >; >; >; >; >; >; >; >; >; >; >8; >8; >8; >8; >8; >8; >8; >8; >8; >8; >8; >8; >8; >8; >8; >8; >8; >8; >8; >8; >8; >8; >8; >8; >8; >8; >8; >8; >8; >8; >8; >8; >8; >8; >8; >8; >8; >8; >8; >8; >8; >8; >8; >8; >8; >8; >8; >8; >8; >8; >8; >8; >8; >8; >8; >8; >8; >8; >8; >8; >8; >8; >8; >8; >8; >8; >8; >8; >8; >B8; B8; B8; B8; B8; B8; B8; B8; B8; B8; B8; B8; B8; B8; B8; B8; B8; B8; B8; B8; B8; B8; B8; B8; B8; B8; B8; B8; B8; B8; B8; B8; B8; B8; B8; B8; B8; B8; B8; B8; B8; B8; B8; B8; B8; B8; B8; B8; B8; B8; B8; B8; B8; B8; B8; B8; B8; B8@; B8@; B8@; 8@; 8@; 8@; 8@; 8@; 8@; 8@; 8@; 8@; 8@; 8@; 8@; 8@; 8@; 8@; 8@; 8@; 8@; 8@; 8@; 8@; 8@; 8@; 8@; 8@; 8@; 8@; 8@; 8@; 8@; 8@; 8@; 8@; 8@; @; @; @; @; @; @; @; @; @; @; @; @; @; @; @; @; @; @; @; @; @; @; @>; @>; @>; @>; @>; @>; @>; @>; @>; >; >; >; >; >; >; >; >; >; >; >; >; >; >; >; >; >; >; >; >; >; >; >; >; >; >; >; >; >; >; ; ; ; ; ; ; ; ; ; ; ;9 ;9 ;9 ;9 ;9 ;9 ;9 ;9 ;9 ;9 ;9 ;9 ;9 ;9 ;9 ;9 ;9 ;9= ;9= ;9= ;9= ;9= ;9= ;9= 9= 9= 9= 9= 9= 9= 9= 9= 9= 9= 9= 9= 9= 9= 9= 9= 9= 9= 9= 9= 9= 9= 9= 9= 9= 9= 9= 9= 9= 9= 9= 9= 9= 9= 9= 9= 9= 9= = = = = = = = = = = = = = = ;= ;= ;= ;= ;= ;= ;= ;= ;= ;= ;= ;= ;= ;= ;= ;= ;= ;= ;= ;= ;= ;= ;= ;= ;= ;= ;= ;= ;= ;= ;= ;= ;= ;= ;= ;= ;= ;= ;= ;= ;= ;= ;= ;= ;= ;= ;= ;= ;= ;= ;= ;= ;= ;= ;-= ;-= ;-= ;-= ;-= ;-= ;-= ;-= ;-= ;-= ;-9= -9= -9= -9= -9= -9= -9= -9= -9= -9= -9= -9= -9= -9= -9= -9= -9= -9= -9= -9= -9= -9= -9= -9= -9= -9= -9= -9= -9= -9= -9= -9= -9= -9= -9= -9= -9= -9= -9= -9= -9= -9= -9= -9= -9= -9= -9= -9= -9= -9= 9= 9= 9= 9= 9= 9= 9= 9= 9= 98= 98= 8= 8= 8= 8= 8= 8= 8= 8= 8= 8= 8= 8= 8= 8= 8= 8= = = = = = = = = = = = = = = = = = = = = = = = = = = = = = = = = = = =1 =1 =1 =1 =1 =1 =1 =1 =1 =1 =19 =19 =19 =19 =19 =19 =19 =19 =19 =19 =19 =19 =19 =19 =19 =19 =19 =19 =19 =19 =19 =19 =19 =19 =19 =19 =19 =19 =19 =19 =19 =19 =19 =19 =19 =19 =19 =19 =19 =19 =19 =19 =19 =19 =19 =19 =19 =19 =19 =19 =19 =19 =19 =19 =19 =19 =19 =@19 @19 @19 @19 @19 @19 @19 @19 @19 @19 @19 @19 @19 @19 @19 @19 @19 @19 @19 @19 @19 @19 @19 @19 @19 @19 @19 @19 @19 @19 @19 @19 @19 @19 @19 @19 @19 @19 @19 @19 @19 @19 @19 @19 @19 @19 @19 @19 @19 @19 @19 @19 @19 @19 @19 @19 @19 @19 1>9 1>9 1>9 1>9 1>9 1>9 1>9 1>9 1>9 1>9 1>9 1>9 1>9 1>9 1>9 1>9 1>9 1>9 1>9 1>9 1>9 1>9 1>9 1>9 1>9 1>9 1>9 1>9 1>9 1>9 1>9 1>9 1>9 1>9 1>9 1>9 1>9 1>9 1>9 1>9 1>9 1>9 1>9 1>9 1>9 1>9 1>9 1>9 1>9 1>9 1>9 1>9 1>9 1>9 1>9 1>9 1>9 1>29 >2=9 2=9 2=9 2=9 2=9 2=9 2=9 2=9 2=9 2=9 2=9 2=9 2=9 2=9 2=9 2=9 2=9 2=9 2=9 2=9 2=9 2=9 =9 =9 =9 =9 =9 =9 =9 =9 =9 =9 =9 =9 =9 =9 =9 =9 =9 =9 =9 =9 =9 =9 =9 =9 =9 =9 =9 =9 =9 =9 =9 =9 =9 =9 =9 9 9 9; 9; 9; 9; 9; 94; 94; 94; 94; 94; 4; 4; 4; 4; 4; 4; 4; 4; 4; 4; 4; 4; 4; 4; 4; 4; 4; 4; 4; 4; 4; 4; 4; 4; 4; 4; 4; 42; 2; 2; 2; 2; 2; 2; 2; 2; 2; 2; 2; 2; 2; 2; 2; 2; 2; 2; 2; 2; 2; 2; 2; 2; 2; 29; 9; 9; 9; 9; 49; 49; 49; 49; 49; 49; 49; 49; 49; 49; 49; 49; 49; 49; 49; 49; 49; 49; 49; 49; 429; 429; 429; 429; 429; 429; 29; 29; 29; 29; 29; 29; 29; 29; 29; 294; 94; 94; 94; 94; 94; 94; 94; 94; 94; 4; 4; 4; 4; 42; 42; 42; 42; 42; 42; 2; 2; 28; 28; 28; 28; 28; 28; 28; 28; 28; 28; 28; 28; 28; 28; 28; 28; 28; 28; 28; 28; 28; 28; 28; 28; 28; 28; 28; 28; 28; 28; 28; 28; 28; 28; 28; 28; 28; 28; 28; 28; 281; 281; 281; 281; 81; 81; 81; 81; 81; 81; 1; 1; 1; 61; 61; 61; 61; 61; 61; 61; 61; 61; 61; 61; 61; 61; 61; 61; 61; 61; 61; 61; 61; 61; 1; 1; 1; 12; 12; 12; 12; 12; 12; 12; 2; 2; 2; 2; 2; 2; 2; 2; 2; 2; 2; 2; 2; 2; 2; 2; 2; 2; 2; 2; 2; 2; 2; 2; ; ; ;4 ;4 ;4 ;4 ;4 ;4 ;4 ;4 ;4 ;4 ;4 ;4 ;4 ;4 ;4 ;4 ;4 ;4 ;4 ;4 ;4 ;4 ;4 ;4 ;4 ;4 ;4 ;4 ;4 ;4 ;4 ;4 ;4 ;4 ;4 ;4 ;4 ;4 ;4 ;4 ;4 ;4 ;4 ;4 ;4 ;4 ;4 ;4 ;4 ;4 ;4 ;4 ;4 ;4 ;4 ;4 ;4 ;4 ;4 ;4 ;4 ;4 ;4 ;4 ;4 ;4 ;@4 @4 @4 @4 @4 @4 @4 @4 @4 @4 @4 @4 @4 @4 @4 @4 @4 @4 @4 @4 @4 @4 @4 @4 @4 @4 @4 @4 @4 @4 @4 @4 @4 @4 @4 @4 @4 @4 @4 @4 @4 @4 @4 @4 @4 @4 @4 @4 @4 @4 @4 @4 @4 @4 @4 @4 4 4 4 4 ?4 ?4 ?4 ?4 ?4 ?4 ?4 ?4 ?4 ?4 ?4 ?4 ?4 ?4 ?4 ?4 ?4 ?4 ?4 ?4 ?4 ?4 ?4 ?4 ?4 ?4 ?4 ?4 ?4 ?4 ?4 ?4 ?4 ?4 ?4 ?4 ?4 ?4 ?4 ?4 ?4 ?4 ?4 ?4 ?4 ?4 ?4 ?4 ?4 ?884 ?884 ?884 ?884 ?884 ?884 ?884 ?884 ?884 ?88@4 ?88@4 ?88@4 ?88@4 ?88@4 ?88@4 ?88@4 ?88@4 ?88@4 ?88@4 88@4 88@4 88@4 88@4 88@4 88@4 8@4 @4 @4 @4 @4 @4 @4 @4 @4 @4 @4 @4 @4 @4 @4 @4 @4 @4 @4 @4 @4 @4 @4 @4 @4 @4 @4 @4 @4 @4 @4 @4 @4 @4 @4 @4 @4 @4 @4 @4 @94 @94 @94 @94 @94 @94 @94 @94 @94 @94 @94B 94B 94B 94B 94B 94B 94B 94B 94B 94B 94B 94B 94B 94B 94B 94B 94B 94B 94B 94B 94B 94B 94B 94B 94B 94B 94B 94B 94B 94B 94B 94B 94B 94B 94B 94B 94B 94B 94B 94B 94B 94B 94B 4B 4B; 4B; 4B; 4B; 4B; 4B; 4B; 4B; 4B; 4B; B; B; B; B; B; B; B; B; B;D B;D ;D ;D ;D ;D ;D ;D ;D ;D ;D ;D ;D ;D ;D ;D ;D ;D ;D ;D ;D ;D ;D ;D ;D ;D ;D ;D ;D ;D ;D ;D ;D ;D ;D ;D ;D ;D ;D ;D ;D ;D ;D ;D ;D ;D9 ;D9 D9 D9 D9 D9 D9 D9 D9 D9 D9 9 9 9B 9B 9B 9B 9B 9B 9B 9B 9B 9B 9B 9B 9B 9B 9B 9B 9B 9B 9B 9B 9B 9B 9B 9B 9B 9B 9B 9B 9B 9B 9B 9B 9B 9B 9B 9B 9B 9B 9B 9B 9B 9B 9B 9B B B B; B; B; B; B; B; B; B; B;D B;D B;D ;D ;D ;D ;D ;D ;D ;D ;D ;D ;D ;D D D D D D D D D D D D D D D D D D D D D D D D D D D D D D D D D D D D D D4 D4 D4 D4 D4 D4 D4 D4 D4 ED4 ED4 ED4 ED4 ED4 ED4 ED4 ED4 ED4 ED4 ED4 ED4 ED4 ED4 ED4 ED4 ED4 ED4 ED4 ED4 ED4 ED4 ED4 ED4 ED4 ED4 ED4 ED4 ED4 ED4 ED4 ED4 ED4 ED4 ED4 ED4 ED4 ED4 ED4 ED4 ED4 ED4 ED4 ED4 ED4 ED4 D;4 D;4 D;4 D;4 D;4 D;4 D;4 D;4 D;4 D;4 D;4 D;4 D;4 D;4 D;4 D;4 D;4 D;4 D;4 D;4 D;4 D;4 D;4 D;4 D;4 ;4 ;4 ;4 ;4 E4 E4 E4 E4 E4 E4 E4 E4 E4 E4 E4 E4 E4 E4 E4 E4 E4 E4 E4 E4 E4 E4 E4 4 4 4 D4 D4 D4 D4 D4 D4 D4 D4 D4 D4 D4 D4 D4@ D4@ D4@ D4@ D4@ D4@ D4@ D4@ D4@ 4@ 4@ E4@ E4@ E4@ E4@ E4@ E4@ E4@ E4@ E4@ E4@ E4@ E4@ E4@ E4@ E4@ E4@ E4@ ED4@ D4@ D4@ D4@ D4@ D4@ D4@ D4@ D4@ D4@ D4@ D4@ D4@ D4@ DE4@ DE4@ DE4@ DE4@ DE4@ E4@ E4@ E4@ E4@ E4@ E4@ E4@ E4@ E4@ E4@ E4@ 4@ 4@ 4@ 4@ D4@ D4@ D4@ D4@ D4@ D4@ D4@ DB4@ DB4@ DB4@ DB4@ DB4@ B4@ B4@ B4@ B4@ B4@ B4@ B4@ B4@ B4@ B4@ B4@ B4@ B4@ B4@ B4@ B4@ B4@ B4@ B4@D 4@D 4@D 4@D 4@D 4@D 4@D 4@D 4@D 4@D 4@D 4@D 4@D 4@D 4@D 4@D 4@D 4@D 4@D 4@D 4@D 4@D 4@D 4@D 4@D @D @D @D @D @D6 @D6 @D6 @D6 @D6 @D6 @D6 @D6 D6 D6 D6 D6 D6 DE6 E6 E6 E6 E6 E6 E6 E6 E6 E6 E6 E6 E6 E6 E6 E6 E6 E6 E6 E6 E6 E6 E6 E6 E6 E6 E6 E6 E6 E6 E6 E6 E6 E6 E6 E6 E6 E6 E6 E6 E6 E6 E6 E6 E6 E6 E6 E6 E6 E6 @E6 @E6 @E6 @E6 @E6 @E6 @E6 @E6 @E6 @E6 @E6 @E6 @E6 @E6 @E6 @E6 @E6 @E6 @E6 @E6 @E6 @E6 @E6 @E6 @E6 @E6 @E6 @E6 @E6 @E6 @E6 @E6 @E6 @E6 @E6 @E6 @E6 @E6 @E6 @E6 @E6 @E6 @E6 @E6 @E6 @E6 @E6 @E6 @E6 @E6 @E6 @E6 @E6 @E6 @E6 @E6 @E6 @E6 @E6 @E6 @E6 @E6 @E6 @>E6 @>E6 @>E6 @>E6 @>E6 >E6 >E6 >E6 >E6 >E6 >E6 >E6 >E6 >E6 >E6 >E6 >E6 >E6 >E6 >E6 >E6 >E6 >E6 >E6 >E6 >E6 >E6 >E6 >E6 >E6 >E6 >E6 >E6 >E6 >E6 >E6 >E6 >E6 >E6 >E6 >E6 >E6 >E6 >E6 >E6 >E6 >E6 >E6 >E6 >E6 >E6 >E6 >E6 >E6 >E6 >E6 >=E6 =E6 =E6 =E6 =E6 =E6 =E6 =E6 =E6 =E6 =E6 =E6 =E6 =E6 =E6 =E6 =E6 =E6 =E6 =E6 =E6 =E6 =E6 =E6 =E6 =E6 =E6 =E6 =E6 =E6 =E6 =E6 =E6 =E6 =E6 =E6 =E6 =E6 =E6 =E6 =E6 =E6 =E6 =E6 =E6 =E6 =E6 =E6 =E6 =E6 =E6 =E6 =E6 =E6 =E6 E6 E6 E6 E6 E6 E6 E6 E6 E6 E6 E6 E6 E6 E6 E6 E6 E6 E6 E6 E6 E6 E6 E6 E6 E6 E6 E6 E6 E6 E6 E6 E6 E6 E6 E6 E6 E6 E6 E6 E6 E6 E6 E6 E6 E6 E6 E6 E6 E6 E6 E6 E6 E6 E6 E6 E6 E6 E6 6 6 6 6 6 6 6 6 6 6 6 6 6 6 6 6 6 6 6 6 6 6 6 6 6 6 6 6 6 G6 G6 G6 G6 G6 G6 G6 G6 G6 G6 G6 G6 G6 G6 G6 G6 G6 G6 G6 G6 G6 G6 G6 G6 G6 G6 G6 G6 G6 G6 G6 G6 G6 G6 G6 G6 G6 G6 G6 G6 G6 G6 G6 G6 G6 G6 G6 G6 G6 G6 G6 G6 G6 6 6 6 E6 E6 E6 E6 E6 E6 E6 E6 E6 E6 E6 E6 E6 E6 E6 E6 E6 E6 E6 E6 E6 E6 E6 E6 E6 E6 E6 E6 E6 E6 E6 E6 E6 E6 E6 E6 E6 E6 E6 E6 E6 E6 E6 E6 E6 E6 E6 E6 E6 E6 E6 E6 E6 E6 E6 E6 E6 E6 E6 E6 E6 E6 EC6 EC6 EC6 EC6 EC6 EC6 EC6 EC6 C6 C6 C6 C6 C6 C6 C6 C6 C6 C6 C6 C6 C6 C6 C6 C6 C6 C6 C6 C6 C6 C6 C6 C6 C6 C6 C6 C6 C6 C6 C6 C6 C6 C6 C6 C6 C6 C6 C6 C6 C6 C6 C6 C6 C6 C6 C6 C6 6 6 B6 B6 B6 B6 B6 B6 B6 B6 B6 B6 B6 B6 B6 B6 B6 B6 B6 B6 B6 B6 B6 B6 B6 B6 B6 B6 B6 B6 B6 B6 B6 B6 B6 B6 B6 B6 B6 B6 B6 B6 B6 B6 B6 B6 B6 B6 B6 B6 B6 B6 B6 B6 B6 B6 B6 B6 @6 @6 @6 @6 @6 @6 @6 @6 @6 @6 @6 @6 @6 @6 @6 @6 @6 @6 @6 @6 @6 @6 @6 @6 @6 @6 @6 @6 @6 @6 @6 @6 @6 @6 @6 @6 @6 @6 @6 @6 @6 @6 @6 @6 @6 @6 @6 @6 @6 @6 @6 @6 @6 @6 @6 @6 @6 @6 @6 @6 6 6 B6 B6 B6 B6 B6 B6 B6 B6 B6 B6 B6 B6 B6 B6 B6 B6 B6 B6 B6 B6 B6 B6 B6 B6 B6 B6 B6 B6 B6 B6 B6 B6 B6 B6 B6 B6 B6 B6 B6 B6 B6 B6 B6 B6 B6 B6 B6 B6 B6 B6 B6 B6 B6 B6 B6 B6 B6 B6 B6 B6 B6 6 6 6>> 6>> 6>> 6>> 6>> 6>> 6>> 6>> 6>> 6>> 6>> 6>> 6>> 6>> 6>> 6>> 6>> 6>> 6>> 6>> 6>> 6>> 6>> 6>> 6>> 6>> 6>> 6>> 6>> 6>> 6>> 6>> >> >> >> >> >> >> >> >> >> >> >> >> >> >4 >4 >4 >4 >4 >4 >4 >4 >4 >4 >D4 >D4 >D4 >D4 >D4 >D4 >D4 >D4 >D4 >D4 D4 D4 D4 D4 D4 D4 D4 D4 D4 D4 D4 D4 D4 D4 D4 D4 D4 D4 D4 D4 D4 D4 D4 D4 D4 D4 D4 D4 D4 D4 D4 D4 D4 D4 D4 D4 D4 D4 D4 D4 D4 D4 D4 D4 D4 D4 D4 D4 D4 BD4 BD4 BD4 BD4 BD4 BD4 BD4 BD4 BD4 BD4 BD4 BD4 BD4 BD4 BD4 BD4 BD4 BD4 BD4 BD4 BD4 BD4 BD4 BD4 BD4 BD4 BD4 BD4 BD4 BD4 BD4 BD4 BD4 BD4 BD4 BD4 BD4 BD4 BD4 BD4 BD4 BD4 BD4 BD4 BD4 BD4 BD4 BD4 BD4 BD4 BD4 BD4 BD4 BD4 BD4 BD4 BD4 BD4 B@D4 B@D4 B@D4 B@D4 B@D4 B@D4 B@D4 B@D4 B@D4 B@D4 B@D4 B@D4 @D4 @D4 @D4 @D4 @D4 @D4 @D4 @D4 @D4 @D4 @D4 @D4 @D4 @D4 @D4 @D4 @D4 @D4 @D4 @D4 @D4 @D4 @D4 @D4 @D4 @D4 @D4 @D4 @D4 @D4 @D4 @D4 @D4 @D4 @D4 @D4 @D4 @D4 @D4 @D4 @D4 @D4 @D4 @D4 >D4 >D4 >D4 >D4 >D4 >D4 >D4 >D4 >D4 >D4 >D4 >D4 >D4 >D4 >D4 >D4 >D4 >D4 >D4 >D4 >D4 >D4 >D4 >D4 >D4 >D4 >D4 >D4 >D4 >D4 >D4 >D4 >D4 >D4 >D4 >D4 >D4 >D4 >D4 >D4 >D4 >D4 >D4 >D4 >D4 >D4 >D4 >D4 >D4 >D4 >D4 >D4 >D4 >D4 >D4 >D4 >=D4 >=D4 >=D4 >=D4 >=D4 >=D4 =D4 =D4 =D4 =D4 =D4 =D4 =D4 =D4 =D4 =D4 =D4 =D4 =D4 =D4 =D4 =D4 =D4 =D4 =D4 =D4 =D4 =D4 =D4 =D4 =D4 =D4 =D4 =D4 =D4 =D4 =D4 =D4 =D4 =D4 =D4 =D4 =D4 =D4 =D4 =D4 =D4 =D4 =D4 =D4 =D4 =D4 =D4 =D4 =D4 =D4 =D4 D;4 D;4 D;4 D;4 D;4 D;4 D;4 D;4 D;4 D;4 D;4 D;4 D;4 D;4 ;4 ;4 @;4 @;4 @;4 @;4 @;4 @;4 @;4 @;4 @;4 @;4 @;4 @;4 @;4 @;4 @;4 @;4 @;4 @;4 @;4 @;4 @;4 @;4 @;4 @;4 @;4 @;4 @;4 @;4 @;4 @;4 @;4 @;4 @;4 @;4 @;4 @;4 @;4 @;4 @;4 @;4 @;4 @;=4 @;=4 ;=4 ;=4 ;=4 =4 =4 =4 =4 =4 =4 =4 =4 =4 =4 =4 =4 =4 =4 =4 =4 =E4 =E4 =E4 =E4 =E4 =E4 =E4 =E4 =E4 =E4 =E4 =E4 =E4 =E4 =E4 =E4 =E4 =E4 =E4 =E4 =E4 =E4 =E4 =E4 =E4 =E4 =E4 =E4 =E4 =E4 =E4 =E4 =E4 =E4 =E4 =E4 =E4 =E4 =9E4 9E4 9E4 9E4 9E4 9E4 9E4 9E4 9E4 9E4 9E4 9E4 9E4 9E4 9E4 9E4 9E4 9E4 9E4 9E4 9E4 9E4 9E4 9E4 9E4 9E4 9E4 9E4 9E4 9E4 9E4 9E4 9E4 9E4 9E4 9E4 9E4 9E4 9E4 9E4 9E4 9E4 9E4 9E4 9E4 9E4 9E4 9E4 9E4 9E4 9E4 9E4 9E4 9E4 9E4 9E4 9E4 9E4 9E4 9E4 9E4 9E4 9E4 9E4 9E4 9E4 9E4 9E4 9E4 9E4 9E4 E4 E4 E4 E4 E;4 E;4 E;4 E;4 E;4 E;4 E;4 E;4 E;4 E;4 E;4 E;4 E;4 E;4 E;4 E;4 E;4 E;4 E;4 E;4 E;4 E;4 E;4 E;4 E;4 E;4 E;4 E;4 E;4 E;4 E;4 E;4 E;4 E;4 E;4 E;4 E;4 E;4 E;4 E;4 E;4 E;4 E;4 E;4 E;4 E;4 E;4 E;4 E;4 E;4 E;4 E;4 E;4 E;4 E;4 E;4 E;4 E;4 E;4 E;4 E;4 E;4 E;4 E;4 E;4 E;G4 E;G4 E;G4 E;G4 E;G4 ;G4 ;G4 ;G4 ;G4 ;G4 ;G4 ;G4 ;G4 ;G4 ;G4 ;G4 ;G4 ;G4 ;G4 ;G4 ;G4 ;G4 ;G4 ;G4 ;G4 ;G4 ;G4 ;G4 ;G4 ;G4 ;G4 ;G4 ;G4 ;G4 ;G4 ;G4 ;G4 ;G4 ;G4 ;G4 ;G4 ;G4 ;G4 ;G4 ;G4 ;G4 ;G4 ;G4 ;G4 ;G4 ;G4 ;G4 ;G4 ;G4 ;G4 ;G4 ;G4 ;G4 G4 G>4 G>4 G>4 GE>4 E>4 E>4 E>4 E>4 E>4 E>4 E>4 E>4 E>4 E>4 E>4 E>4 E>4 E>4 E>4 E>4 E>4 E>4 E>4 E>4 E>4 E>4 E>4 E>4 E>4 E>4 E>4 E>4 E>4 E>4 E>4 E>4 E>4 E>4 E>4 E>4 E>4 E>4 E>4 E>4 E>4 E>4 E>4 E>4 E>4 E>4 E>4 E>4 E>4 E>4 E>4 E>4 ED>4 ED>4 D>4 D>4 D>4 D>4 D>4 D>4 D>4 D>4 D>4 D>4 D>4 D>4 D>4 D>4 D>4 D>4 D>4 D>4 D>4 D>4 D>4 D>4 D>4 D>4 D>4 D>4 D>4 D>4 D>4 D>4 D>4 D>4 D>4 D>4 D>4 D>4 D>4 D>4 D>4 D>4 D>4 D>4 D>4 D>4 D>4 D>4 D>4 D>4 D>4 D>4 D>4 >4 >4 >49 >49 >49 >49 >49 >49 >49 >4E9 >4E9 >4E9 >4E9 4E9 E9 E9 E9 E9 E9 E9 E9 E9 E9 E9 E9 E9 E9 E9 E9 E9 E9 E9 E9 E9 E9 E9 E9 E9 E9 E9 E9 E9 E9 E9 E9 E9 E9 E9 E9 E9 E9 E9 E9 E9 E9 E9 E9 E9 E9 E9 E9 E9 E9 E9 E9 E9 >E9 >E9 >E9 >E9 >E9 >E9 >E9 >E9 >E9 >E9 >E9 >E9 >E9 >E9 >E9 >E9 >E9 >E9 >E9 >E9 >E9 >E9 >E9 >E9 >E9 >E9 >E9 >E9 >E9 >E9 >E9 >E9 >E9 >E9 >E9 >E9 >E9 >E9 >E9 >E9 >E9 >E9 >E9 >E9 >E9 >E9 >E9 >E9 >E9 >E9 >E9 >E9 >E9 >E9 >E9 >E9 >E9 >E9 >=E9 =E9 =E9 =E9 =E9 =E9 =E9 =E9 =E9 =E9 =E9 =E9 =E9 =E9 =E9 =E9 =E9 =E9 =E9 =E9 =E9 =E9 =E9 =E9 =E9 =E9 =E9 =E9 =E9 =E9 =E9 =E9 =E9 =E9 =E9 =E9 =E9 =E9 =E9 =E9 =E9 =E9 =E9 =E9 =E9 =E9 =E9 =E9 =E9 =E9 =E9 =E9 =E9 E9 E9 ;E9 ;E9 ;E9 ;E9 ;E9 ;E9 ;E9 ;E9 ;E9 ;E9 ;E9 ;E9 ;E9 ;E9 ;E9 ;E9 ;E9 ;E9 ;E9 ;E9 ;E9 ;E9 ;E9 ;E9 ;E9 ;E9 ;E9 ;E9 ;E9 ;E9 ;E9 ;E9 ;E9 ;E9 ;E9 ;E9 ;E9 ;E9 ;E9 ;E9 ;E9 ;E9 ;E9 ;E9 ;E9 ;E9 ;E9 ;E9 ;E9 ;E9 ;E9 ;E9 ;E9 ;E9 ;E9 ;E9 ;E9 ;E9 ;E9 ;E9 ;E9 E9 E=9 E=9 E=9 E=9 E=9 E=9 E=9 E=9 E=9 E=9 E=9 E=9 E=9 E=9 E=9 E=9 E=9 E=9 E=9 E=9 E=9 E=9 E=9 =9 =9 =9 =9 =9 =9 =9 =9 =9 =9 =9 =9 =9 =9 =9 =9 =9 =9 =9 =9 =9 =9 =9 =9 =9 =9 =9 =9 =9 =9 =9 =9 =9 =9 =9 =9 =9 =9 =9 =9 =9 =9 G=9 G=9 G=9 G=9 G=9 G=9 G=9 G=9 G=9 G=9 G=9 G=9 G=9 G=9 G=9 G=9 G=9 G=9 G=9 G=9 G=9 G=9 G=9 G=9 G=9 G=9 G=9 G=9 G=9 G=9 G=9 G=9 G=9 G=9 G=9 G=9 G=9 G=9 G=9 G=9 G=9 G=9 G=9 G=9 G=9 G=9 G=9 G=9 G=9 G=9 G=9 G=9 G=9 G=9 G=9 G=9 G=9 GE=9 GE=9 GE=9 GE=9 GE=9 GE=9 GE=9 E=9 E=9 E=9 E=9 E=9 E=9 E=9 E=9 E=9 E=9 E=9 E=9 E=9 E=9 E=9 E=9 E=9 E=9 E=9 E=9 E=9 E=9 E=9 E=9 E=9 E=9 E=9 E=9 E=9 E=9 E=9 E=9 E=9 E=9 E=9 E=9 E=9 E=9 E=9 E=9 E=9 E=9 E=9 E=9 E=9 E=9 E=9 E=9 E=9 E=9 EC=9 EC=9 EC=9 EC=9 EC=9 C=9 C=9 C=9 C=9 C=9 C=9 C=9 C=9 C=9 C=9 C=9 C=9 C=9 C=9 C=9 C=9 C=9 =9 =9 =9 =9 =9 =9 =9 =9 =9 =9 =9 =9 =9 =9 =9 =9 =9 =9 =9 =9 =9 =9 =9 =9 =9 =9 =9 =9 =9 =9 =9 9 9 9 9 9 9 9 B9 BE9 BE9 BE9 BE9 BE9 BE9 BE9 BE9 BE9 BE9 BE9 BE9 BE9 BE9 BE9 BE9 BE9 BE9 BE9 BE9 BE9 BE9 BE9 BE9 BE9 BE9 BE9 BE9 BE9 BE9 BE9 BE9 BE9 BE9 BE9 BE9 BE9 BE9 BE9 BE9 BE9 BE9 BE9 BE9 BE9 BE9 BE9 BE9 BE9 BE9 BE9 BE9 BE9 BE9 BE9 BE9 BE9 BE9 BE9 BE9 @E9 @E9 @E9 @E9 @E9 @E9 @E9 @E9 @E9 @E9 @E9 @E9 @E9 @E9 @E9 @E9 @E9 @E9 @E9 @E9 @E9 @E9 @E9 @E9 @E9 @E9 @E9 @E9 @E9 @E9 @E9 @E9 @E9 @E9 @E9 @E9 @E9 @E9 @E9 @E9 @E9 @E9 @E9 @E9 @E9 @E9 @E9 @E9 @E9 @E9 @E9 @E9 @E9 @E9 @E9 @E9 @E9 @E9 E9 E9 E9 BE9 BE9 BE9 BE9 BE9 BE9 BE9 BE9 BE9 BE9 BE9 BE9 BE9 BE9 BE9 BE9 BE9 BE9 BE9 BE9 BE9 BE9 BE9 BE9 BE9 BE9 BE9 BE9 BE9 BE9 BE9 BE9 BE9 BE9 BE9 BE9 BE9 BE9 BE9 BE9 BE9 BE9 BE9 BE9 BE9 BE9 BE9 BE9 BE9 E9 E9 E9 E>>9 E>>9 E>>9 E>>9 E>>9 E>>9 E>>9 E>>9 E>>9 E>>9 >>9 >>9 >>9 >>9 >>9 >>9 >>9 >>9 >9 >9 >9 >9 >9 >9 >9 >9 >9 >9 >9 >9 >9 >9 >9 >9 >9 >9 >9 >9 >9 >9 >9 >9 >9 >9 9 9 9 9 9 9 9 9 9 9 9 9 9 9 9 9 9 9 9 9 9 @9 @9I @9I @9I @9I @9I @9I @9I @9I @9I @9I @9I @9I @9I @9I @9I @9I @9I @9I @9I @9I @9I @9I @9I @9I @9I @9I @9I @9I @9I @9I @9I @9I @9I @9I @9I @9I @9I 9I 9I 9I 9I 9I 9I 9I 9I 9I 9I 9I 9I 9I 9I 9I 9I 9I 9I 9I 9I 9I >9I >9I >9I >9I >9I >9I >9I >9I >9I >9I >9I >9I >9I >9I >9I >9I >9I >9I >9I >9I >9I >9I >9I >9I >9I >9I >9I >9I >9I >9I >9I >9I >9I >9I >9I >9I >9I >9I >9I >9I >9I >9I >9I >9I >9I >9I >9I >9I >9I >9I >9I >9I >9I >9I >9I >9I >9I 9I 9I 9I 9I 9=I 9=I 9=I 9=I 9=I 9=I 9=I 9=I 9=I 9=I 9=I 9=I 9=I 9=I 9=I 9=I 9=I 9=I 9=I 9=I 9=I 9=I 9=I 9=I 9=I 9=I 9=I 9=I 9=I 9=I 9=I 9=I 9=I 9=I 9=I 9=I 9=I 9=I 9=I 9=I 9=I 9=I 9=I 9=I 9=I 9=I 9=I 9=I 9=I 9=I 9=I 9=I 9=I 9=I 9=I 9=I 9=;I 9=;I 9=;I =;I ;I ;I ;I ;I ;I ;I ;I ;I ;I ;I ;I ;I ;I ;I ;I ;I ;I ;I ;I ;I ;I ;I ;I ;I ;I ;I ;I ;I ;I ;I ;I ;I ;I ;I ;I ;I ;I ;I ;I ;I ;I ;I ;I ;I ;I ;I ;I ;I ;I ;I ;I ;I ;I ;I9 ;I9 I9 I9 I9 I9 I9 I9 I9 I9 I9 I9 I9 I9 I9 I9 I9 I9 I9 I9 I9 I9 I9 I9 I9 I9 I9 I9 I9 I9 I9 I9 I9 I9 I9 I9 I9 I9 I9 I9 I9 I9 I9 I9 I9 I9 I9 I9 I9 I9 I9 I9 I9 9 9 9 9 9 9 9 9 9 9; 9; 9; 9; 9; 9; 9; 9; 9; 9; 9; 9; 9; 9; 9; 9; 9; 9; 9; 9; 9; 9; 9; 9; 9; 9; 9; 9; 9; 9; 9; 9; 9; 9; 9; 9; 9; 9; 9; 9; 9; 9; 9; 9; 9; 9; 9; 9; 9; 9; 9; 9; ; ; ; ; ; ; ; ; ;@ ;@ @ 9@ 9@ 9@ 9@ 9@ 9@ 9@ 9@ 9@ 9@ 9@ 9@ 9@ 9@ 9@ 9@ 9@ 9@ 9@ 9@ 9@ 9@ 9@ 9@ 9@ 9@ 9@ 9@ 9@ 9@ 9@ 9@ 9@ 9@ 9@ 9@ 9@ 9@ 9@ 9@ 9@ 9@ 9@ 9@ 9@ 9@ 9@ 9@ 9@ 9@ 9@ 9@ 9@ 9@7 @7 @7 @7 @7 @7 @7 @7 @7 @7 @7 @7 @7 @7 @7 @7 I@7 I@7 I@7 I@7 I@7 I@7 I@7 I@7 I@7 I@7 I@7 I@7 I@7 I@7 I@7 I@7 I@7 I@7 I@7 I@7 I@7 I@7 I@7 I@7 I@7 I@7 I@7 I@7 I@7 I@7 I@7J I@7J I@7J I@7J I@7J @7J @7J @7J @7J @7J @7J @7J @7J @7J @7J @7J @7J @7J @7J @7J6 @7J6 J6 J6 J6 J6 J6 J6 J6 J6 J6 J6E J6E 6E L6E L6E L6E L6E L6E L6E L6E L6E L6E L6E L6E L6E L6E L6E L6E L6E L6E L6E L6E L6E L6E L6E L6E L6E L6E L6E L6E L6E L6E L6E L6E L6E L6E 6E 6E 6E 6JE 6JE 6JE 6JE 6JE 6JE 6JE 6JE 6J4E 6J4E J4E J4E J4E J4E J4E J4E J4E J4E J4E J4E J4E J4E J4E J4E J4E J4E J4E 4E 4E 4E L4E L4E L4E L4E L4E L4E L4E L4E L4E L4E L4E L4E L4E L4E L4E L4E L4E L4E L4E L4E L4E L4E L4E L4E L4E LJ4E LJ4E LJ4E LJ4E J4E J4E J4E J4E J4E J4E J4E J4E J46E J46E J46E J46E J46E 46E 46E L6E L6E L6E L6E L6E L6E L6E L6E L6E L6E L6E L6E L6E L6E LJ6E LJ6E LJ6E LJ6E LJ6E LJ6E LJ6E LJ6E LJ6E LJ6E LJ6E LJ6E J6E J6E J6E J6E J6E J6E J6E J6E J6E J6E J6E J6E J6E J6E J6E J6E J6E J6E J6E J6E 6E 6E 6E 6IE 6IE 6IE 6IE 6IE 6IE 6IE 6IE 6IE2 IE2 IE2 IE2 IE2 IE2 IE2 IE2 IE2 IE2 IE2 IE2 IE2 IE2 IE2 IE2 IE2 IE2 IE2 IE2 IE2 IE2 IE2 IE2 IE2 IE2 IE2 E2 E2 E2 E2 E2 E2 E2 E2J E2J E2J E2J E2J E2J E2J E2J 2J 2J 2J 2J 2J 2J 2J 2J 2J 2J 2J 2J 2J 2J 2J 2J9 2J9 2J9 J9 J9 J9 J9 J9 J9 J9 J9 J9 J9 J9 J9 J9 J9 J9 J9 9 9 9L 9L 9L 9L 9L 9L 9L 9L 9L 9L 9L 9L 9L 9L 9L 9L 9L 9L 9L 9L 9L 9L 9L 9L 9L 9L 9L 9L 9L 9L 9L 9L 9L 9L 9L 9L 9L 9L 9L 9L 9L 9L 9L 9L 9L 9L 9L 9L 9L 9L 9L 9L 9L 9L 9L 9L 9L 9L 9L 9L 9L J9L J9L J9L J9L J9L J9L J9L J9L J9L J9L J9L J9L J9L J9L J9L J9L J9L J9L J9L J9L J9L J9L J9L J9L J9L J9L J9L J9L J9L J9L J9L J9L J9L J9L J9L J9L J9L J9L J9L J9L J9L J9L J9L J9L J9L J9L J9L J9L J9L 9L 9L 9L 9L 9L 9L 9L 9L 9L 9L 9L I9L I9L I9L I9L I9L I9L I9L I9L I9L I9L I9L I9L I9L I9L I9L I9L I9L I9L I9L I9L I9L I9L I9L I9L I9L I9L I9L I9L I9L I9L I9L I9L I9L I9L I9L I9L I9L I9L I9L I9L I9L I9L I9L I9L I9L I9L I9L I9L I9L I9L I9L I9L 9L 9L 9L 9L G9L G9L G9L G9L G9L G9L G9L G9L G9L G9L G9L G9L G9L G9L G9L G9L G9L G9L G9L G9L G9L G9L G9L G9L G9L G9L G9L G9L G9L G9L G9L G9L G9L G9L G9L G9L G9L G9L G9L G9L G9L G9L G9L G9L G9L G9L G9L G9L G9L G9L G9L G9L G9L G9L G9L G9L G9L G9L G9L G9L G9L G9L 9L L L IL IL IL IL IL IL IL IL IL IL IL IL IL IL IL IL IL IL IL IL IL IL IL IL IL IL IL IL IL IL IL IL IL IL IL IL IL IL IL IL IL IL IL IL IL IL IL IL IL IL IL IL IL IL I6L I6L I6L I6L I6L I6L I6L I6L I6L I6L I6L I6L I6L I6L I6L I6L I6L I6L I6L I6L I6L I6L I6L I6L I6L I6L I6L I6L I6L I6L I6L I6L I6L I6L I6L I6L I6L I6L I6L I6L I6L I6L I6L I6L I6L I6L I6L I6L I6L I6L I6L I6L I6L I6L I6L I6L I6L I6L I6L I6L I6L I6L I6L I6L4 I6L4 L4 L4D L4D L4D L4D L4D L4D L4D L4D L4D L4D L4D L4D L4D L4D L4D L4D L4D L4D L4D L4D L4D L4D L4D L4D L4D L4D L4D L4D L4D L4D L4D L4D L4D L4D L4D L4D L4D L4D L4D L4D L4D L4D L4D L4D L4D L4D L4D L4D L4D L4D L4D L4D L4D L4D L4D L4D 4D 4D 4D 4D2 4D2 4D2 4D2 4D2 4D2 D2 D2 D2 D2 D2 D2 2 2 2 2 2 2 2 2 2 2 2 2 2 2 2 2 2 2 2 2 2 2 2 2 2 2 2 2 2 2 2 2 2 2 2 2 2 2 2 2 2 2 2 2   1 1 1 1 1 1 1 1 1L 1LE 1LE 1LE 1LE 1LE 1LE 1LE 1LE 1LE 1LE 1LE 1LE 1LE 1LE 1LE 1LE 1LE 1LE 1LE 1LE 1LE 1LE 1LE 1LE 1LE 1LE 1LE 1LE 1LE 1LE 1LE 1LE 1LE 1LE 1LE 1LE 1LE 1LE 1LE 1LE 1LE 1LE 1LE 1LE 1LE 1LE 1LE 1LE 1LE 1LE 1LE 1LE 1LE 1LE 1LE 1/LE /LE /LE /LE /LE /LE /LE /LE /LE /LE /LE /LE /LE /LE /LE /LE /LE /LE /LE /LE /LE /LE /LE /LE /LE /LE /LE /LE /LE /LE /LE /LE /LE /LE /LE /LE /LE /LE /LE /LE /LE /LE /LE /LE /LE /LE /LE /LE /LE /LE /LE /LE /LE /LE /LE /LE /LE /LE /LE /LE /LE /LE /LE /1LE /1LE /1LE /1LE /1LE /1LE /1LE 1LE 1LE 1LE 1LE 1LE 1LE 1LE 1LE 1LE 1LE 1LE 1LE 1LE 1LE 1LE 1LE 1LE 1LE 1LE 1LE 1LE 1LE 1LE 1LE 1LE 1LE 1LE 1LE 1LE 1LE 1LE 1LE 1LE 1LE 1LE 1LE 1LE 1LE 1LE 1LE 1LE 1LE 1LE 1LE 1LE 1LE 1LE 1LE 1LE 1LE 1LE 1LE 1LE LE LE LE LE- LE- LE- LE- LE- LE- LE- LE- LE- LE- LE- LE- LE- LE- LE- LE- LE- LE- LE- LE- LE- LE- LE- LE- LE- LE- LE- LE- LE- LE- LE- LE- LE- LE- LE- LE- LE- LE- LE- LE- LE- LE- LE- LE- LE- LE- LE- LE- LE- LE- LE- LE- LE- LE-N E-N E-N E-N E-N E-2N E-2N E-2N E-2N E-2N E-2N E-2N -2N -2N 2N 2N 2N 2N 2N 2N 2N 2N 2N 2N 2N 2N 2N 2N 2N 2N 2N 2N 2N 2N 2N 2N 2N 2N 2N 2N 2N 2N 2N 2N 2N 2N 2N 2N 2N 2N 2N 2N 2N 2N 2N 2N 2N 2N 2N 2N 2N 2N 2N 2N E2N E2N E2N E2N E2N E2N E2N E2N E2N E2N E2N E2N E2N E2N E2N E2N E2N E2N E2N E2N E2N E2N E2N E2N E2N E2N E2N E2N E2N E2N E2N E2N E2N E2N E2N E2N E2N E2N E2N E2N E2N E2N E2N E2N E2N E2N E2N E2N E2N E2N E2N E2N E2N E2N E2N E2N E2N 2N G2N G2N G2N G2N G2N G2N G2N G2N G2N G2N G2N G2N G2N G2N G2N G2N G2N G2N G2N G2N G2N G2N G2N G2N G2N G2N G2N G2N G2N G2N G2N G2N G2N G2N G2N G2N G2N G2N G2N G2N G2N G2N G2N G2N G2N G2N G2N G2N G2N G2N G2N G2N G2N G2N G2N G2N G2N G2N G2N G2N G2N I2N I2N I2N I2N I2N I2N I2N I2N I2N I2N I2N I2N I2N I2N I2N I2N I2N I2N I2N I2N I2N I2N I2N I2N I2N I2N I2N I2N I2N I2N I2N I2N I2N I2N I2N I2N I2N I2N I2N I2N I2N I2N I2N I2N 2N 2N 2N 2N 2N 2N 2N 2N 2N 2N 2N 2N 2N 2N 2N 2N 2JN 2JN 2JN 2JN 2JN 2JN 2JN 2JN 2JN 2JN 2JN 2JN 2JN 2JN 2JN 2JN 2JN 2JN 2JN 2JN 2JN 2JN 2JN 2JN 2JN JN JN JN JN JN JN JN JN JN JN JN JN JN JN JN JN JN JN N N N N N N N N N N N N N IN IN I/N I/N I/N I/N I/N I/N I/N I/N I/N I/N I/N I/N I/N I/N I/N I/N I/N I/N I/N I/N I/N I/N I/N I/N I/N I/N I/N I/N I/N /N /N /N /N /N /N /N /N /N /N /N /N /N /N /N /N /N /N /N /N /N /N /N /N /N /N /N /NJ NJ NJ N-J N-J N-J N-J N-J N-J N-J N-J N-J N-J N-J N-J N-J N-J N-J N-J N-J N-J N-J N-J N-J N-J N-J N-J N-J N-J N-J N-J N-J N-J N-J N-J N-J N-J N-J N-J N-J N-J N-J N-J N-J N-J N-J N-J N-J N-J N-J N-J N-J N-J -LJ -LJ -LJ -LJ -LJ -LJ -LJ -LJ -LJ -L+J -L+J L+J L+J L+J L+J L+J L+J L+J L+J L+J L+J L+J L+J L+J L+J L+J L+J L+J L+J L+J L+J L+J +J +J +J +J +J +J +J +J +J +J +J +J +J +J +J +J +J +J +J +J +J +J +J +J +J +J +J +J +J +*J +*J +*J *J *NJ *NJ *NJ *NJ *NJ *NJ *NJ *NJ *NJ *NJ *NJ *NJ *NJ *NJ *NJ *NJ *NJ *NJ *NJ *NJ *NJ *NJ *NJ *NJ *NJ *NJ *NJ *NJ *NJ *NJ *NJ *NJ *NJ *NJ *NJ *NJ *NJ *NJ *NJ *NJ *NJ *NJ *NJ *NJ *NJ *NJ *NJ *NJ *NJ NJ NJ NJ NJ (NJ (NJ (NJ (NJ (NJ (NJ (NJ (NJ (NJ (NJ (NJ (NJ (NJ (NJ (NJ (NJ (NJ (NJ (NJ (NJ (NJ (NJ (NJ (NJ (NJ (NJ (NJ (NJ (NJ (NJ (NJ (NJ (NJ (NJ (NJ (NJ (NJ (NJ (NJ (NJ (NJ (NJ (NJ (NJ (NJ (NJ (NJ (NJ (NJ (NJ (NJ (NJ (NJ (NJ (NJ (NJ (NJ (NJ (NJ (N*J (N*J (N*J (N*J (N*J (N*J N*J N*J N*J N*J N*J N*J N*J N*J N*J N*J N*J N*J N*J N*J N*J N*J N*J N*J N*J N*J N*J N*J N*J N*J N*J N*J N*J N*J N*J N*J N*J N*J N*J N*J N*J N*J N*J N*J N*J N*J N*J N*J N*J N*J N*J N*J N*J N*J N*J *J *OJ *OJ *OJ OJ OJ O&J O&J O&J O&J O&J O&J O&J O&J O&J O&J O&J O&J O&J O&J O&J O&J O&J O&J O&J O&J O&J &J &J &J &J &J &J &J &J &J &J &J &J &J &J &J &J &J &J &J &J J J J J J J J J J J J J J J J J- J- J- J- J-L J-L J-L J-L J-L J-L J-L J-L J-L -L -L -L -L -L -L -L -L -L -L -L -L -L -L -L -L -L -L -L -L -L -L -L -L -L -L -L -L -L -L -L -L -L -L -L -L -L -L -L -L -L -L -L -L -L -L -L -L -L -L -L -L J-L J-L J-L J-L J-L J-L J-L J-L J-L J-L J-L J-L J-L J-L J-L J-L J-L J-L J-L J-L J-L J-L J-L J-L J-L J-L J-L J-L J-L J-L J-L J-L J-L J-L J-L J-L J-L J-L J-L J-L J-L J-L J-L J-L J-L J-L J-L J-L J-L J-L J-L J-L J-L J-L J-L J-L -L -L I-L I-L I-L I-L I-L I-L I-L I-L I-L I-L I-L I-L I-L I-L I-L I-L I-L I-L I-L I-L I-L I-L I-L I-L I-L I-L I-L I-L I-L I-L I-L I-L I-L I-L I-L I-L I-L I-L I-L I-L I-L I-L I-L I-L I-L I-L I-L I-L I-L I-L I-L I-L I-L I-L I-L IG-L IG-L IG-L IG-L IG-L G-L G-L G-L G-L G-L G-L G-L G-L G-L G-L G-L G-L G-L G-L G-L G-L G-L G-L G-L G-L G-L G-L G-L G-L -L -L -L -L -L -L -L -L -L -L -L -L -L -L -L -L -L -L -L -L -L -L -L -L -L -L -L -L -L -L -IL -IL -IL -IL IL IL IL IL IL IL IL IL IL IL IL IL IL IL IL IL IL IL IL IL IL IL IL IL IL IL IL IL IL IL IL IL IL IL IL IL IL IL IL IL IL IL IL IL IL ,IL ,IL ,IL ,IL ,IL ,IL ,IL ,IL ,IL ,IL ,IL ,IL ,IL ,IL ,IL ,IL ,IL ,IL ,IL ,IL ,IL ,IL ,IL ,IL ,IL ,IL ,IL ,IL ,IL ,IL ,IL ,IL ,IL ,IL ,IL ,IL ,IL ,IL ,IL ,IL ,IL ,IL ,IL ,IL ,IL ,IL ,IL ,IL ,IL ,IL ,IL ,IL ,IL ,IL ,IL ,IL ,IL ,IL ,IL ,IL ,IL ,IL IL IL- IL- IL- IL- IL- IL- IL- IL- IL- IL- IL-G L-G L-G L-G L-G L-G L-G L-G L-G L-G L-G L-G L-G L-G L-G L-G L-G L-G L-G L-G L-G L-G L-G L-G L-G L-G -G -G -G -G -G -G -G -G -G -G -G -G -G -G -G -G -G -G -G -G -G -G -G/ -G/ -G/ -G/ -G/ -G/ -G/ -G/ GE/ GE/ GE/ GE/ GE/ GE/ GE/ GE/ E/ E/ E/ E/ E/ E/ E/ E/ E/ E/ E/ E/ E/ E/ E/ E/ E/ E/ E/ E/ E/ E/ E/ E/ E/ E/ E/ E/ E/ / / / / / / / / / / / / / / 1 1 1 1 1 1 1 1 1 1 1 1 1D 1LD 1LD 1LD 1LD 1LD 1LD 1LD 1LD 1LD 1LD 1LD 1LD 1LD 1LD 1LD 1LD 1LD 1LD 1LD 1LD 1LD 1LD 1LD 1LD 1LD 1LD 1LD 1LD 1LD 1LD 1LD 1LD 1LD 1LD 1LD 1LD 1LD 1LD 1LD 1LD 1LD 1LD 1LD 1LD 1LD LD 2LD 2LD 2LD 2LD 2LD 2LD 2LD 2LD 2LD 2LD 2LD 2LD 2LD 2LD 2LD 2LD 2LD 2LD 2LD 2LD 2LD 2LD 2LD 2LD 2LD 2LD 2LD 2LD 2LD 2LD 2LD 2LD 2LD 2LD 2LD 2LD 2LD 2LD 2LD 2LD 2LD 2LD 2LD 2LD 2LD 2LD 2LD 2LD 2LD 2LD 2LD 2LD 2LD 2LD 2LD 2LD 2LD 2LD 21LD 21LD 21LD 21LD 1LD 1LD 1LD 1LD 1LD 1LD 1LD 1LD 1LD 1LD 1LD 1LD 1LD 1LD 1LD 1LD 1LD 1LD 1LD 1LD 1LD 1LD 1LD 1LD 1LD 1LD 1LD 1LD 1LD 1LD 1LD 1LD 1LD 1LD 1LD 1LD 1LD 1LD 1LD 1LD 1LD 1LD 1LD 1LD 1LD 1LD 1LD 1LD 1LD 1LD LD LD LD LD LD 4LD 4LD 4LD 4LD 4LD 4LD 4LD 4LD 4LD 4LD 4LD 4LD 4LD 4LD 4LD 4LD 4LD 4LD 4LD 4LD 4LD 4LD 4LD 4LD 4LD 4LD 4LD 4LD 4LD 4LD 4LD 4LD 4LD 4LD 4LD 4LD 4LD 4LD 4LD 4LD 4LD 4LD 4LD 4LD 4LD 4LD 4LD 4LD 4LD 4LD 4LD 4LD 4LD LD LD LD LD LD LD LD LD LD LD LD LD LD LD LD LD LD LDE LDE LDE LDE LD*E LD*E LD*E LD*E LD*E LD*E LD*E LD*E LD*E LD*E LD*E LD*E D*E *E *E *E *E *E *E *E *E *E *E *E *E *E *E *E *E *E *E *E *E *E *E *E *E *E *E *E *E *E *E *E *E *E *E *E *E *E *E *E *E *E *E *E *E *E *E *E *E *E *E *E *E *E *E *E *E *E *E *E *E *E *E *E *E *E *E *E *E *E D*E D*E D*E D*E D*E D*E D*E D*E D*E D*E D*E D*E D*E D*E D*E D*E D*E D*E D*E D*E D*E D*E D*E D*E D*E D*E D*E D*E D*E D*E D*E D*E D*E D*E D*E D*E D*E D*E D*E D*E D*E D*E D*E D*E D*E D*E D*E D*E D*E D*E D*E D*E *E *E *E *E *E B*E B*E B*E B*E B*E B*E B*E B*E B*E B*E B*E B*E B*E B*E B*E B*E B*E B*E B*E B*E B*E B*E B*E B*E B*E B*E B*E B*E B*E B*E B*E B*E B*E B*E B*E B*E B*E B*E B*E B*E B*E B*E B*E B*E B*E B*E B*E B*E B*E B*E *E *E *E A*E A*E A*E A*E A*E A*E A*E A*E A*E A*E A*E A*E A*E A*E A*E A*E A*E A*E A*E A*E A*E A*E A*E A*E A*E A*E A*E A*E *E *E *E *E *E *E *E *E *E *E *E *E *E *E *E *E *E *E *E *E *E *E *E *E *E *E *E *E *E *E E E E BE BE BE BE BE BE BE BE BE BE BE BE BE BE BE BE BE BE BE BE BE BE BE BE BE BE BE BE BE BE BE BE BE BE BE BE BE BE BE BE BE BE BE BE BE BE BE BE BE B=E B=E B=E B=E B=E =E =E =E =E =E =E =E =E =E =E =E =E =E =E =E =E =E =E =E =E =E =E =E =E =E =E =E =E =E =E =E =E =E =E =E =E =E =E =E =E =E =E =E =E =E =E =E =E =E =E =E =E =E =E =E ;E ;E ;E ;E ;E ;E ;E ;E ;E ;E ;E ;E> ;E> ;E> ;E> ;E> ;E> ;E> ;E> ;E> ;E> ;E> ;E> ;E> ;E> ;E> ;E> ;E> ;E> ;E> ;E> ;E> ;E> ;E> ;E> ;E> ;E> ;E> ;E> ;E> ;E> ;E> ;E> ;E> ;E> ;E> ;E> ;E> ;E> ;E> ;E> ;E> ;E> ;E> ;E> ;E> ;E> ;E> ;E> ;9E> 9E> 9E> 9E> 9E> 9E> 9E> 9E> 9E> 9E> 9E> 9E> 9E> 9E> 9E> 9E> 9E> 9E> 9E> 9E> 9E> 9E> 9E> 9E> 9E> 9E> 9E> 9E> 9E> 9E> 9E> 9E> 9E> 9E> 9E> 9E> 9E> 9E> 9E> 9E> 9E> 9E> 9E> 9E> 9E> 9E> 9E> E> E> E> E> E> E> E> E> E> > > 8> 8> 8> 8> 8> 8> 8> 8> 8> 8> 8> 8> 8> 8> 8> 8> 8> 8> 8> 8>G 8>G 8>G 8>G 8>G 8>G 8>G 8>G 8>G 8>G 8>G 8>G 8>G 8>G 8>G 8>G 8>G 8>G 8>G 8>G 8>G 8>G 8>G 8>G 8>G 8>G 8>G 8>G 8>G 8>G 8>G 8>G 8>G 8>G 8>G 8>G 8>G 8>G 8>G 8>G 8>G 8>G 8>G 8>G 8>G >G >6G >6G >6G >6G >6G >6G >6G >6G >6G >6G >6G >6G >6G >6G >6G >6G >6G >6G >6G >6G >6G >6G >6G >6G >6G >6G 6G 6G 6G 6G 6G 6G 6G 6G 6G 6G 6G 6G 6G 6G 6G 6G 6G 6G 6G 6G 6G 6G 6G 6G 6G 6G 6G 6G 6G 6G 6G 6G 6G 6G 6G 68G 68G 68G 68G 8G 8G 8G 8G 8G@ 8G@ 8G@ 8G@ 8G@ 8G@ 8G@ 8G@ 8G@ 8G@ 8G@ 8G@ 8G@ 8G@ 8G@ 8G@ 8G@ 8G@ 8G@ 8G@ 8G@ 8G@ 8G@ 8G@ 8G@ 8G@ 8G@ 8G@ 8G@ 8G@ 8G@ 8G@ 8G@ 8G@ 8G@ 8G@ 8G@ 8G@ 8G@ 8G@ 8G@ 8G@ 8G@ 8G@ 8G@ 8G@ 8G@ 8G@ 8G@ 8G@ 8G@ G@ G@ G@ 4G@ 4G@ 4G@ 4G@ 4G@ 4G@ 4G@ 4G@ 4G@ 4G@ 4G@ 4G@ 4G@ 4G@ 4G@ 4G@ 4G@ 4G@ 4G@ 4G@ 4G@ 4G@ 4G@ 4G@ 4G@ 4G@ 4G@ 4G@ 4G@ 4G@ 4G@ 4G@ 4G@ 4G@ 4G@ 4G@ G@ G@ G@ G@ G@ G@ G@ G@ G@ G@ G@ G@ G@ G@ G@ G@ G@ G@ G@ G@ G@ G@ G@ G@ G@ G@9 G@9 G@9 G@9 G@9 G@9 G@9 G@9I G@9I G@9I @9I @9I @9I @9I @9I 9I 9I 9I 9I 9I 9I 9I 9I 9I 9I 9I 9I 9I 9I 9I 9I 9I 9I 9I 9I 9I 9I 9I 9I 9I 9I 9I 9I 9I 9I 9I 9I 9I 9I 9I 9I 9I 9I 9I 9I 9I 9I 9I 9I 9I 9I 9I 9I 9I 9I 9I 9I @9I @9I @9I @9I @9I @9I @9I @9I @9I @9I @9I @9I @9I @9I @9I @9I @9I @9I @9I @9I @9I @9I @9I @9I @9I @9I @9I @9I @9I @9I @9I @9I @9I @9I @9I @9I @9I @9I @9I @9I @9I @9I @9I @9I @9I @9I @9I @9I @9I @9I @9I @9I @9I @9I @9I 9I 9I 9I B9I B9I B9I B9I B9I B9I B9I B9I B9I B9I B9I B9I B9I B9I B9I B9I B9I B9I B9I B9I B9I B9I B9I B9I B9I B9I B9I B9I B9I B9I B9I B9I B9I B9I B9I B9I B9I B9I B9I B9I B9I B9I B9I B9I B9I B9I B9I B9I B9I B9I B9I B9I B9I 9I D9I D9I D9I D9I D9I D9I D9I D9I D9I D9I D9I D9I D9I D9I D9I D9I D9I D9I D9I D9I D9I D9I D9I D9I D9I D9I D9I D9I D9I D9I D9I D9I D9I D9I D9I D9I D9I D9I D9I D9I D9I D9I D9I D9I D9I D9I D9I D9I D9I D9I D9I D9I D9I D9I D9I D9I D9I D9I 9I 9I 9I 9I 9I 9I I I I EI EI EI EI EI EI EI EI EI EI EI EI EI EI EI EI EI EI EI EI EI EI EI EI EI EI EI EI EI EI EI EI EI EI EI EI EI EI EI EI EI EI EI EI EI EI EI EI EI EI EI EI EI EI EI EI EI EI EI EI ;EI ;EI ;EI ;EI ;EI ;EI ;EI ;EI ;EI ;EI ;EI ;EI ;EI ;EI ;EI ;EI ;EI ;EI ;EI ;EI ;EI ;EI ;EI ;EI ;EI ;EI ;EI ;EI ;EI ;EI ;EI ;EI ;EI ;EI ;EI ;EI ;EI ;EI ;EI ;EI ;EI ;EI ;EI ;EI ;EI ;EI ;EI ;EI ;EI ;EI ;EI ;EI ;EI ;EI ;EI ;EI@ ;EI@ ;E9I@ ;E9I@ ;E9I@ ;E9I@ E9I@ E9I@ 9I@ 9I@ 9I@ 9I@ 9I@ 9I@ 9I@ 9I@ 9I@ 9I@ 9I@ 9I@ 9I@ 9I@ 9I@ 9I@ 9I@ 9I@ 9I@ 9I@ 9I@ 9I@ 9I@ 9I@ 9I@ 9I@ 9I@ 9I@ 9I@ 9I@ 9I@ 9I@ 9I@ 9I@ 9I@ 9I@ 9I@ 9I@ 9I@ 9I@ 9I@ 9I@ 9I@ 9I@ 9I@ 9I@ 9I@ 9I@ 9I@ I@ 8I@ 8I@ 8I@ 8I@ 8I@ 8I@ 8I@ 8I@ 8I@ 8I@ 8I@ 8I@ 8I@ 8I@ 8I@ 8I@ 8I@ 8I@ 8I@ 8I@ 8I@ 8I@ 8I@ 8I@ 8I@ 8I@ 8I@ 8I@ 8I@ 8I@ 8I@ 8I@ 8I@ 8I@ 8I@ 8I@ 8I@ 8I@ 8I@ 8I@ 8I@ 8I@ 8I@ 8I@ 8I@ 8I@ 8I@ 8I@ 8I@ 8I@ 8I@ 8I@ 8I@ 8I@ I@ I@6 I@6 I@6 @6 @6 6EJ 6EJ 6EJ 6EJ 6EJ 6EJ 6EJ 6EJ 6EJ 6EJ 6EJ 6EJ 6EJ 6EJ 6EJ 6EJ 6EJ 6EJ 6EJ 6EJ 6EJ 6EJ 6EJ 6EJ 6EJ 6EJ 6EJ 6EJ 6EJ 6EJ 6EJ 6EJ 6EJ 6EJ 6EJ 6EJ 6EJ 6EJ 6EJ 6EJ 6EJ 6EJ 6EJ 6EJ 6EJ 6EJ 6EJ 6EJ 6EJ 6EJ 6EJ EJ EJ EJ EJ E4J E4J EI4J EI4J EI4J EI4J EI4J EI4J EI4J EI4J I4J I4J I4J I4J I4J I4J I4J I4J I4J I4J I4J I4J I4J I4J I4J I4J I4J I4J I4J I4J I4J I4J I4J I4J I4J I4J I4J I4J I4J I4J I4J I4J I4J I4J I4J I4J I4J I4J I4J I4J I4J I4J I4J I4J I4J I4J I4J I4J I4J 4J 4GJ GJ 6GJ 6GJ 6GJ 6GJ 6GJ 6GJ 6GJ 6GJ 6GJ 6GJ 6GJ 6GJ 6GJ 6GJ 6GJ 6GJ 6GJ 6GJ 6GJ 6GJ 6GJ 6GJ 6GJ 6GJ 6GJ 6GJ 6GJ 6GJ 6GJ 6GJ 6GJ 6GJ 6GJ 6GJ 6GJ 6GJ 6GJ 6GJ 6GJ 6GJ 6GJ 6GJ 6GJ 6GJ 6GJ 6GJ 6GJ 6GJ 6GJ 6GJ 6GJ 6GJ 6GJ 6GJ GJ GJ GE2J E2J E2J E2J E2J E2J E2J E2J E2J E2J E2J E2J E2J E2J E2J E2J E2J E2J E2J E2J E2J E2J E2J E2J E2J E2J E2J E2J E2J E2J E2J E2J E2J E2J E2J E2J E2J E2J E2J E2J E2J E2J E2J E2J E2J E2J E2J E2J E2J E2J 2J 2J 2J 2J 2J 2J 2J 2J J JD JD J4D J4D J4D J4D J4D J4D 4D 4D 4D 4D 4D 4D 4D 4D 4D 4D 4D 4D 4D 4D 4D 4D 4D 4D 4D 4D 4D 4D 4D 4D 4D D D D D D D D D D D D D D D D D D D D D D D D D D JD JD JD JD 6JD 6JD 6JD 6JD 6JD 6JD 6JD 6JD 6JD 6JD 6JD 6JD 6JD 6JD 6JD 6JD 6JD 6JD 6JD 6JD 6JD 6JD 6JD 6JD 6JD 6JD 6JD 6JD 6JD 6JD 6JD 6JD 6JD 6JD 6JD 6JD 6JD 6JD 6JD 6JD 6JD 6JD 6JD 6JD 6JD 6JD 6JD 6JD 6JD 6JD 6JD 6JD 6JD 6JD 6J4D 6J4D J4D J4D J4D J4D J4D JI4D JI4D JI4D JI4D JI4D JI4D I4D I4D I4D I4D I4D I4D I4D I4D I4D I4D I4D I4D I4D I4D I4D I4D I4D I4D I4D I4D I4D I4D I4D I4D I4D I4D I4D I4D I4D I4D I4D I4D I4D I4D I4D I4D I4D I4D I4D I4D I4D I4D I4D I4D I4D I4D I42D I42GD 42GD 2GD 2GD 2GD 2GD 2GD 2GD 2GD 2GD 2GD 2GD 2GD 2GD 2GD 2GD 2GD 2GD 2GD 2GD 2GD 2GD 2GD 2GD 2GD 2GD GD GD GD GD GD GD GD GD GD GD GD GD GD GD GD GD GD GD GD GD GD GD GD GD GD GD GD GD GD GD GD1 GD1 GD1 GD1 D1 D1 D1 D1 D1 D1 D1L D1L D1L D1L D1L D1L D1L D1L D1L D1L 1L 1L 1L 1L 1L 1L 1L 1L 1L 1L 1L 1L 1L 1L 1L 1L 1L 1L 1L 1L 1L 1L 1L 1L 1L 1L 1L 1L 1L 1L 1L 1L 1L 1L 1L 1L 1L 1L 1L 1L 1L 1L 1L L L L /L /L /L /L /L /L /L D/L D/L D/L D/L D/L D/L D/L D/L D/L D/L D/L D/L D/L D/L D/L D/L D/L D/L D/L D/L D/L D/L D/L D/L D/L D/L D/L D/L D/L D/L D/L D/L D/L D/L D/L D/L D/L D/L D/L D/L D/L D/L D/L D/L D/L D/L D/L D/L D/L D/L D/1L D/1L D/1L D/1L D/1L /1L 1L 1L 1L 1L 1LE 1LE 1LE 1LE 1LE 1LE 1LE 1LE 1LE 1LE 1LE 1LE 1LE 1LE 1LE 1LE 1LE 1LE 1LE 1LE 1LE 1LE 1LE 1LE 1LE 1LE 1LE 1LE 1LE 1LE 1LE 1LE 1LE 1LE 1LE 1LE 1LE 1LE 1LE 1LE 1LE LE LE LE L-E L-E L-E L-E L-E L-E LN-E LN-E LN-E LN-E LN-E LN-E LN-E N-E N-E N-E N-E N-E N-E N-E N-E N-E N-E N-E N-E N-E N-E N-E N-E N-E N-E N-E N-E N-E -E -E -E -E -E -E -E -E -E -E -E -E -E -E -E -E -E -E -E -E -E -E E E E E 4E 4E 4E 4E 4E 4E 4E 4E 4LE 4LE 4LE 4LE 4LE 4LE 4LE 4LE 4LE 4LE 4LE 4LE 4LE 4LE 4LE 4LE 4LE 4LE 4LE 4LE 4LE 4LE 4LE 4LE 4LE 4LE 4LE 4LE 4LE 4LE 4LE 4LE 4LE 4LE 4LE 4LE 4LE 4LE 4LE 4LE 4LE 4LE 4LE 4LE 4LE 4LE 4LE 4LE 4LE 4LE 4LE 4LE 4LE 4LE 4LE 4LE LE LE LE LE LIE LIE LIE LIE LIE LIE LIE IE IE IE IE IE IE IE IE IE IE IE IE IE IE IE IE IE IE IE IE IE IE IE IE IE IE IE IE IE IE IE IE IE IE IE IE IE IE IE IE IE IE IE IE IE IE IE( E( E( E( E( E(J E(J E(JD E(JD E(JD E(JD E(JD E(JD (JD (JD (JD (JD (JD (JD (JD (JD (JD (JD (JD (JD (JD (JD (JD (JD (JD (JD (JD (JD (JD (JD (JD (JD (JD (JD (JD (JD (JD (JD (JD (JD (JD (JD (JD (JD (JD (JD (JD (JD (JD (JD (JD (JD JD JD JD D D GD GD GD GD GD GD GD GD GD GD GD GD GD GD GD GD GD D D D D D D D D D D D D D D D D D D D D D D D D D D D D D D D D D D D D          - - -E -E -E -E -E -E -E -E -E -E -E -E -E -E -E -E -E -E -E -E -E -E -E -E -E -E -E -E -E -E -E -E -E -E -E -E -E -E -E -E -E -E -E -E -E -E -E -E -E -E -E -E -E -E -E -E -E -E -E -E -E -E -E -E B-E B-E B-E B-E B-E B-E B-E B-E B-E B-E B-E B-E B-E B-E B-E B-E B-E B-E B-E B-E B-E B-E B-E B-E B-E B-E B-E B-E B-E B-E B-E B-E B-E B-E B-E B-E B-E B-E B-E B-E B-E B-E B-E B-E B-E B-E B-E B-E B-E B-E B-E B-E B-E B-E B-E B-E B-E B-E B-E B-E B-E B-E B-E -E @-E @-E @-E @-E @-E @-E @-E @-E @-E @-E @-E @-E @-E @-E @-E @-E @-E @-E @-E @-E @-E @-E @-E @-E @-E @-E @-E @-E @-E @-E @-E @-E @-E @-E @-E @-E @-E @-E @-E @-E @-E @-E @-E @-E @-E @-E @-E @-E @-E @-E -E -E >-E >-E >-E >-E >-E >-E >-E >-E >-E >-E >-E >-E >-E >-E >-E >-E >-E >-E >-E >-E >-E >-E >-E >-E >-E >-E >-E >-E >-E -E -E -E -E -E -E -E -E -E -E -E -E -E -E -E -E -E -E -E -E -E -E -E -E -E -E -E -E -E -E -E -E -E -E -E -E -E -E -=E -=E -=E -=E -=E -=E =E =E =E =E =E =E =E =E =E =E =E =E =E =E =E =E =E =E =E =E =E =E =E =E =E =E =E =E =E =E =E =E =E =E =E =E =E =E =E =E =E =E =E =E =/E =/E =/E =/E =/E =/E =/E =/E =/E =/E =/E =/E =/E =/E =/E =/E =/E =/E =/E =/E =/E =/E =/E /E /E /E /E /E /E /E /E /E /E /E /E /E /E /E /E /E /E /E /E /E /E /E /E /E /E /E /E /E /E /E /E /E /E /E /E /E /E /E /E /-E -E -E -E -E -E -E -E -E -@E -@E -@E -@E -@E -@E -@E -@E -@E -@E -@E -@E -@E -@E -@E -@E -@E -@E -@E -@E -@E -@E -@E -@E -@E -@E -@E -@E -@E -@E -@E -@E -@E -@E -@E -@E -@E -@E -@E -@E -@E -@E -@E -@E -@E -@E -@E -@E -@E -@E -@E -+@E -+@E -+@E -+@E -+@E -+@E +@E +@E +@E +@E +@E +@E +@E +@E +@E +@E +@E +@E +@E +@E +@E +@E +@E +@E +@E +@E +@E +@E +@E +@E +@E @E @E @E @E @E @E @E @E @E @E @E @E @E @E @E @E @E @E @E @E @E @E @E @E @E @E @E @E @E @E @E @E @*E @*E @*E @*E @*E *E *E *E *E *E *9E *9E *9E *9E *9E *9E *9E *9E *9E *9E *9E *9E *9E *9E *9E *9E *9E *9E *9E *9E *9E *9E *9E *9E *9E *9E *9E *9E *9E *9E *9E *9E *9E *9E *9E *9E *9E *9E *9E *9E *9E *9E *9E *9E *9E *9E *9E *9E *9E *9E 9E 9E 9E (9E (9E (9E (9E (9E (9E (9E (9E (9E (9E (9E (9E (9E (9E (9E (9E (9E (9E (9E (9E (9E (9E (9E (9E (9E (9E (9E (9E (9E (9E (9E (9E (9E (9E (9E (9E (9E (9E (9E (9E (9E (9E (9E (9E (9E (9E (9E (9E (9E (9E (9E (9E (9E (9E (9E (9E (9*E (9*E (9*E (9*E (9*E (9*E 9*E 9*E 9*E *E *E *BE *BE *BE *B>E *B>E *B>E *B>E *B>E *B>E *B>E *B>E *B>E *B>E *B>E *B>E *B>E *B>E *B>E *B>E *B>E *B>E *B>E *B>E *B>E *B>E *B>E *B>E *B>E *B>E *B>E *B>E *B>E *B>E *B>E *B>E *B>E *B>E *B>E *B>E *B>E *B>E *B>E *B>E *B>E *B>E *B>E *B>E *B>E *B>E *B>E *B>E *B>E B>E B>E B>E &B>E &B>E &B>E &B>E &B>E &B>E &B>E &B>E &B>E &B>E &B>E &B>E &B>E &B>E &B>E &B>E &B>E &B>E &B>E &B>E &B>E &B>E &B>E &B>E &B>E &B>E &B>E &B>E &B>E &B>E &B>E &B>E &B>E &B>E &B>E &B>E &B>E &B>E &B>E &B>E &B>E &B>E &B>E &B>E B>E B>E B>E B>E B>E B>E B>E B>E B>E B>E B>E B>E B>E B>E B>E B>E B>-E B>-E B>-E B>-E B>-E B>-E B>-E B>-E >-E >-E >-E >-E >-E >-E >-E >-E >-E >-E >-E >-E >-E >-E >-E >-E >-E >-E >-E >-E >-E >-E >-E >-E >-E >-E >-E >-E >-E >-E >-E >-E >-E >-E >-E >-E >-E >-E >-E >-E >-E >-E >-E >-E >-E >-E >-E >-E >-E >-E >-E >-E >-E >-E >-E >-E >-E >-E >-E >-E >-E >B-E >B-E >B-E >B-E >B-E >B-E >B-E >B-E >B-E >B-E >B-E >B-E >B-E >B-E >B-E >B-E >B-E >B-E >B-E >B-E >B-E >B-E >B-E >B-E >B-E >B-E >B-E >B-E >B-E >B-E >B-E >B-E >B-E >B-E >B-E >B-E >B-E >B-E >B-E >B-E >B-E >B-E >B-E >B-E >B-E >B-E >B-E >B-E >B-E >B-E >B-E >B-E >B-E B-E B-E -E -E @-E @-E @-E @-E @-E @-E @-E @-E @-E @-E @-E @-E @-E @-E @-E @-E @-E @-E @-E @-E @-E @-E @-E @-E @-E @-E @-E @-E @-E @-E @-E @-E @-E @-E @-E @-E @-E @-E @-E @-E @-E @-E @-E @-E @-E @-E @-E @-E @-E @-E @-E @-E @-E @-E @-E @-E @-E @-E @-E @-E @-E >-E >-E >-E >-E >-E >-E >-E >-E >-E >-E >-E >-E >-E >-E >-E >-E >-E >-E >-E >-E >-E >-E >-E >-E >-E >-E >-E >-E >-E >-E >-E >-E >-E >-E >-E >-E >-E >-E -E -E -E -E -E -E -E -E -E -E -E -E -E -E -E -E -E -E -@E -@E -@E -@E -@E -@E -@E -@E -@E -@E -@E -@E -@E -@E -@E -@E -@E -@E -@E -@E -@E -@E -@E -@E -@E -@E -@E -@E -@E -@E -@E -@E -@E -@E -@E -@E -@E -@E -@E -@E -@E -@E -@E -@E -@E -@E -@E -@E -@E -@E -@E -@E -@E -@E -@E -@E -@E -@E -@E -@E >-@E >-@E >-@E >-@E >-@E >-@E >-@E >-@E >-@E >-@E >-@E >-@E >-@E >-@E >-@E >-@E >-@E >-@E >-@E >-@E >-@E >-@E >-@E >-@E >-@E >-@E >-@E >-@E >-@E >-@E >-@E >-@E >-@E >-@E >-@E >-@E >-@E >-@E >-@E >-@E >-@E >-@E >-@E >-@E >-@E >-@E >-@E >-@E >-@E -@E -@E -@E -@E -@E -@E -@E -@E -@E -@E -@E =-@E =-@E =-@E =-@E =-@E =-@E =-@E =-@E =-@E =-@E =-@E =-@E =-@E =-@E =-@E =-@E =-@E =-@E =-@E =-@E =-@E =-@E =-@E =-@E =-@E =-@E =-@E =-@E =-@E =-@E =-@E =-@E =-@E =-@E =-@E =-@E =-@E =-@E =-@E =-@E =-@E =-@E =-@E =-@E =-@E =-@E =-@E =-@E =-@E =-@E =-@E =-@E =-@E =-@E -@E -@E -@E -@;E -@;E -@;E -@;E -@;E -@;E -@;E -@;E -@;E -@;E -@;E -@;E -@;E -@;E @;E @;E @;E @;E @;E @;E @;E @;E @;E @;E @;E @;E @;E @;E @;E @;E @;E @;E @;E @;E @;E @;E @;E @;E @;E @;E @;E @;E @;E @;E @;E @;E @;E @;E @;E @;E @;E @;E @;E @;E @;E @;E @;E @;E @;E @;E @;E @;E @;E @;E @;E ;E ;E ;E= ;E= ;E= E= = = = = = = = = = = = = = = = = = = = = = = = = = = = = = = = = = = = = = = = = = = = = = = = = = ;= ;= ;= ;= ;= ;= ;= ;= ;= ;= ;= ;= ;= ;= ;= ;= ;= ;= ;= ;= ;= ;= ;= ;= ;= ;= ;= ;= ;= ;= ;= ;= ;= ;= ;= ;= ;= ;= ;= ;= ;= ;= ;= ;= ;= = = = = = = = = = = = = = = = 9= 9= 9= 9= 9= 9= 9= 9= 9= 9= 9= 9= 9= 9= 9= 9= 9= 9= 9= 9= 9= 9= 9= 9= 9= 9= 9= 9= 9= 9= 9= 9= 9= 9= 9= 9= 9= 9= 9= 9= 9= 9= 9= 9= 9= 9= = = = = = = = = = = = = = 8= 8= 8= 8= 8= 8= 8= 8= 8= 8= 8= 8= 8= 8= 8= 8= 8= 8= 8= 8= 8= 8= 8= 8= 8= 8= 8= 8= 8= 8= 8= 8= 8= 8= 8= 8= 8= 8= 8= 8= 8= 8= 8= 8= 8= 8= 8= 8= 8= 8= 8= 8= 8= 8= 8= 8= 8= = = = = = = = = = = =9 =9 9 9 9 9 9 9 9 9 9 9 9 9 9 9 9 9 9 9 9 9 9 9 9 9 9 9 9 9 9 9 9 9 9 9 9 9 9 9 9 9 9                             @ @ @ @ @ @ @ @ @ @ @ @ @ @ @ @ @ @ @ @ @ @ @ @ @ @ @ @ @ @ @ @ @ @ @ @ @ @ @ @ @ @ @ @ @ @ @ @ @ @ @ @ @ @- @-B @-B @-B -B -B -B -B -B -B -B -B -B -B -B -B -B -B -B -B -B -B -B -B -B -B -B -B -B -B -B -B -B -B -B -B -B -B -B -B -B -B -B -B -B -B -B -B -B -B -B -B -B -B -B -B -B -B -B -B -BD -BD -BD -BD BD BD BD D D D D D D D D D D D D D D D D D D D D D D D D D D D D D D D D D D D D D D D D D D D D D D D D D D D D D DE DE DE E E E E E E E E E E E E E E E E E E E E E E E E E E E E E E E E E E E E E E E E E E E E E E E E E E E E E E E E E ED ED D D D D D D D D D D D D D D D D D D D D D D D D D D D D D D D D D D D D D D D D D D D D D D D D D D D D D D D D D DE E E E E E E E E E E E E E E E E E E E E E E E E E E E E E E E E E E E E E E E E E E E E E E E E E E E E E E E E E E EG EG EG EG EG EG EG EG EG G G G G G G G G G G G G G G G G G G G G G G G G G G G G G G G G G G G G G G G G G G G          I I I I I I I I I I I I I I I I I I I I I I I I I I I I I I I I I I I I I I I I I I I I I I I I I I I I I I I I I I I I G G G G G G G G G G G G G G G G G G G G G G G G G G G G G G G G G G G G G G G G G G G G G G G G G G G G G G G G G G G GJ GJ GJ GJ GJ GJ GJ GJ J J J J J J J J J J J J J J J J J J J J J J J J J J J J J J J J J J J J J J J J J J J J J J J J JI JI JI JI JI JI JI JI JI JI I I I I I I I I I I I I I I                                          I I I I I I I I I I I I I I I I I I I I I I I I I I I I I I I I I I I I I I I I I I I I I I I I I I I I I I I I I I I I I I I I I I I 4I 4I 4I 4I 4I 4I 4I 4I 4I 4I 4I 4I 4I 4I 4I 4I 4I 4I 4I 4I 4I 4I 4I 4I 4I 4I 4I 4I 4I 4I 4I 4I 4I 4I 4I 4I 4I 4I 4I 4I 4I 4I 4I 4I 4I 4I 4I 4I 4I 4I 4I 4I 4I 4I 4I 4I 4I 4I 46I 46I 46I 46I 46I 46I 46I 46I 46I 46I 6I 6I 6I 6I 6I 6I 6I 6I 6I 6I 6I 6I 6I 6I 6I 6I 6I 6I 6I 6I 6I 6I 6I 6I 6I 6I 6I 6I 6I 6I 6I 6I 6I 6I 6I 6I 6I 6I 6I 6I 6I 6I 6I 6I 6I 6I 68I 68I 68I 68I 68I 8I 8I 8I 8I 8I 8I 8I 8I 8I 8I 8I 8I 8I 8I 8I 8I 8I 8I 8I 8I 8I 8I 8I 8I 8I 8I 8I 8I 8I 8I 8I 8I 8I 8I 8I 8I 8I 8I 8I 8I 8I 8I 8I 8I 8I 8I 8I 8I 8I 8I 8I 8I 8I 8I 8I9 8I9 8I9 8I9 8I9 I9 I9 I9 I9 I9 I9 I9 I9 I9 I9 I9 I9 I9 I9 I9 I9 I9 I9 I9 I9 I9 I9 I9 I9 I9 I9 I9 I9 I9 I9 I9 I9 I9 I9 I9 I9 I9 I9 I9 I9 I9 I9 I9 I9 I9 I9 I9 I9 I9 I9 I9 I9 I9 I9 =I9 =I9 =I9 =I9 =I9 =I9 =I9 =I9 =I9 =I9 =I9 =I9 =I9 =I9 =I9 =I9 =I9 =I9 =I9 =I9 =I9 =I9 =I9 =I9 =I9 =I9 =I9 =I9 =I9 =I9 =I9 =I9 =I9 =I9 =I9 =I9 =I9 =I9 =I9 =I9 =I9 =I9 =I9 =I9 =I9 =I9 =I9 =I9 =I9 =I9 =I9 =I9 =I9 =I9 =I9 =I9 =I9 =I9 =?I9 =?I9 =?I9 =?I9 =?I9 =?I9 =?I9 =?I9 =?I9 ?I9 ?I9 ?I9 ?I9 ?I9 ?I9 ?I9 ?I9 ?I9 ?I9 ?I9 ?I9 ?I9 ?I9 ?I9 ?I9 ?I9 ?I9 ?I9 ?I9 ?I9 ?I9 ?I9 ?I9 ?I9 ?I9 ?I9 ?I9 ?I9 ?I9 ?I9 ?I9 ?I9 ?I9 ?I9 ?I9 ?I9 ?I9 ?I9 ?I9 ?I9 ?I9 ?I9 ?I9 ?I9 I9 I9 I9 I@9 I@9 I@9 I@9 I@9 I@9 I@9 I@9 I@9 I@9 I@9 I@9 I@9 I@9 I@9 I@9 I@9 I@9 I@9 I@9 I@9 I@9 @9 @9 @9 @9 @9 @9 @9 @9 @9 @9 @9 @9 @9 @9 @9 @9 @9 @9 @9 @9 @9 @9 @9 @9 @9 @9 @9 @9 @9 @9 @9 @9 @9 @9 @9 9 9 9 9 B9 B9 B9 B9 BI9 BI9 BI9 BI9 BI9 BI9 BI9 BI9 BI9 BI9 BI9 BI9 BI9 BI9 BI9 BI9 BI9 BI9 BI9 BI9 BI9 BI9 BI9 BI9 BI9 BI9 BI9 BI9 BI9 BI9 BI9 BI9 BI9 BI9 BI9 BI9 BI9 BI9 BI9 BI9 BI9 BI9 BI9 BI9 BI9 BI9 BI9 BI9 BI9 BI9 BI9 BI9 BI9 BI9 BI9 BI9 BI9 BI9 BI9 BI9 I9 I9 DI9 DI9 DI9 DI9 DI9 DI9 DI9 DI9 DI9 DI9 DI9 DI9 DI9 DI9 DI9 DI9 DI9 DI9 DI9 DI9 DI9 DI9 DI9 DI9 DI9 DI9 DI9 DI9 DI9 DI9 DI9 DI9 DI9 DI9 DI9 DI9 DI9 DI9 DI9 DI9 DI9 DI9 DI9 DI9 DI9 DI9 DI9 DI9 DI9 DI9 DI9 DI9 DI9 DI9 DI9 DI9 DI9 I9 I9 BI9 BI9 BI9 BI9 BI9 BI9 BI9 BI9 BI9 BI9 BI9 BI9 BI9 BI9 BI9 BI9 BI9 BI9 BI9 BI9 BI9 BI9 BI9 BI9 BI9 BI9 BI9 BI9 BI9 BI9 BI9 BI9 BI9 BI9 BI9 BI9 BI9 BI9 BI9 BI9 BI9 BI9 BI9 BI9 BI9 BI9 BI9 BI9 BI9 I9 I9 I9 I9 I9 EI9 EI9 EI9 EI9 EI9 EI9 EI9 EI9 EI9 EI9 EI9 EI9 EI9 EI9 EI9 EI9 EI9 EI9 EI9 EI9 EI9 EI9 EI9 EI9 EI9 EI9 EI9 EI9 EI9 EI9 EI9 EI9 EI9 EI9 EI9 EI9 EI9 EI9 EI9 EI9 EI9 EI9 EI9 EI9 EI9 EI9 EI9 EI9 EI9 EI9 EI9 EI9 EI9 EI9 EI9 EI9 I9 I9 I9 I9 I9 I9 I9G I?9G I?9G I?9G I?9G ?9G ?9G ?9G ?9G ?9G ?9G ?9G ?9G ?9G ?9G ?9G ?9G ?9G ?9G ?9G ?9G ?9G ?9G ?9G ?9G ?9G ?9G ?9G ?9G ?9G ?9G ?9G ?9G ?9G ?9G ?9G ?9G ?9G ?9G ?9G ?9G ?9G ?9G ?9G ?9G ?9G ?9G ?9G ?9G ?9G ?9G ?9G ?9G ?9G ?9G ?9G ?9G ?9G ?9G ?9G ?9G ?9G 9G 9G ;9G ;9G ;9G ;9G ;9G ;9G ;9G ;9G ;9G ;9G ;9G ;9G ;9G ;9G ;9G ;9G ;9G ;9G ;9G ;9G ;9G ;9G ;9G ;9G ;9G ;9G ;9G ;9G ;9G ;9G ;9G ;9G ;9G ;9G ;9G ;9G ;9G ;9G ;9G ;9G ;9G ;9G ;9G ;9G ;9G ;9G ;9G ;9G ;9G ;9G ;9G ;9G ;9G ;9G ;9G ;9G ;=9G ;=9G ;=9G ;=9G ;=9G =9G =9G =9G =9G =9G =9G =9G =9G =9G =9G =9G =9G =9G =9G =9G =9G =9G =9G =9G =9G =9G =9G =9G =9G =9G =9G =9G =9G =9G =9G =9G =9G =9G =9G =9G =9G =9G =9G =9G =9G =9G =9G =9G =9G =9G =9G =9G =9G =9G =9?G =9?G =9?G =9?G =9?G 9?G 9?G 9?G 9?G 9?G 9?G 9?G 9?G 9?G 9?G 9?G 9?G 9?G 9?G 9?G 9?G 9?G 9?G 9?G 9?G 9?G 9?G 9?G 9?G 9?G 9?G 9?G 9?G 9?G 9?G 9?G 9?G 9?G 9?G 9?G ?G ?G ?G ?G ?G ?G ?G ?G ?G ?G ?G ?G ?G ?G ?G ?G ?G ?G G G G G G G@ G@ 8G@ 8G@ 8G@ 8G@ 8G@ 8G@ 8G@ 8G@ 8G@ 8G@ 8G@ 8G@ 8G@ 8G@ 8G@ 8G@ 8G@ 8G@ 8G@ 8G@ 8G@ 8G@ 8G@ 8G@ 8G@ 8G@ 8G@ 8G@ 8G@ 8G@ 8G@ 8G@ 8G@ 8G@ 8G@ 8G@ 8G@ 8G@ 8G@ 8G@ 8G@ 8G@ 8G@ 8G@ G@ G@ G@ G@ G@ G@ G@ G@ G@ G@ G@ ,G@ ,G@ ,G@ ,G@ ,G@ ,G@ ,G@ ,G@ ,G@ ,G@ ,G@ ,G@ ,G@ ,G@ ,G@ ,G@ ,G@ ,G@ ,G@ ,G@ ,G@ ,G@ ,G@ ,G@ ,G@ ,G@ ,G@ ,G@ ,G@ ,G@ ,G@ ,G@ ,G@ ,G@ ,G@ ,G@ ,G@ ,G@ ,G@ ,G@ ,G@ ,G@ ,G@ ,G@ ,G@ ,G@ ,G@ ,G@ ,G@ ,G@ ,G@ ,G@ ,G@ ,G@ ,G@ ,G@ ,G@ G@ G@ G@ -G@ -G@ -G@ -G@ -G@ -G@ -G@ -G@ -G@ -G@ -G@ -G@ -G@ -G@ -G@ -G@ -G@ -G@ -G@ -G@ -G@ -G@ -G@ -G@ -G@ -G@ -G@ -G@ -G@ -G@ -G@ -G@ -G@ -G@ -G@ -G@ -G@ -G@ -G@ -G@ -G@ -G@ -G@ -G@ -G@ -G@ -G@ -G@ -G@ -G@ -G@ -G@ -G@ -G@ -G@ -G@ -G@ -G@ G@ G/@ G/@ G/@ G/@ G/@ G/@ G/@ G/@ G/@ G/@ G/@ G/@ G/@ G/@ G/@ G/@ G/@ G/@ G/@ G/@ G/@ G/@ G/@ G/@ G/@ G/@ G/@ G/@ G/@ G/@ G/@ G/@ G/@ G/@ G/@ G/@ G/@ G/@ G/@ G/@ G/@ G/@ G/@ G/@ G/@ G/@ G/@ G/@ G/@ G/@ G/@ G/@ G/@ G/@ G/@ G/D@ /1D@ /1D@ 1D@ 1D@ 1D@ 1D@ 1D@ 1D@ 1D@ 1D@ 1D@ 1D@ 1D@ 1D@ 1D@ 1D@ 1D@ 1D@ 1D@ 1D@ 1D@ 1D@ 1D@ 1D@ 1D@ 1D@ 1D@ 1D@ 1D@ 1D@ 1D@ 1D@ 1D@ 1D@ 1D@ 1D@ 1D@ 1D@ 1D@ 1D@ 1D@ 1D@ 1D@ 1D@ 1D@ 1D@ 1D@ 1D@ 1D@ 1D@ 1D@ 1D@ 1D@ 1D@ 1D@ 1D@ 1D@ 1D@ 1D@ 1D@ 13D@ 13D@ 3D@ 3D@ 3D@ 3D@ 3D@ 3D@ 3D@ 3D@ 3D@ 3D@ 3D@ 3D@ 3D@ 3D@ 3D@ 3D@ 3D@ 3D@ 3D@ 3D@ 3D@ 3D@ 3D@ 3D@ 3D@ 3D@ 3D@ 3D@ 3D@ 3D@ 3D@ 3D@ 3D@ 3D@ 3D@ 3D@ 3D@ 3D@ 3D@ 3D@ 3D@ 3D@ 3D@ 3D@ 3D@ 3D@ 3D@ 3D@ 3D@ 3D@ 3D@ 3D@ 3D@ 3D@ 3D@ 3D@ 3D@ 31D@ 1D@ 1D@ 1D@ 1D@ 1D@ 1D@ 1D@ 1D@ 1D@ 1D@ 1D@ 1D@ 1D@ 1D@ 1D@ 1D@ 1D@ 1D@ 1D@ 1D@ 1D@ 1D@ 1D@ 1D@ 1D@ 1D@ 1D@ 1D@ 1D@ 1D@ 1D@ 1D@ 1D@ 1D@ 1D@ 1D@ 1D@ 1D@ 1D@ 1D@ 1D@ 1D@ 1D@ 1D@ 1D@ 1D@ 1D@ 1D@ 1D@ 1D@ D@ D@ D@ D@ D@ D@ 4D@ 4D@ 4D@ 4D@ 4D@ 4D@ 4D@ 4D@ 4D@ 4D@ 4D@ 4D@ 4D@ 4D@ 4D@ 4D@ 4D@ 4D@ 4D@ 4D@ 4D@ 4D@ 4D@ 4D@ 4D@ 4D@ 4D@ 4D@ 4D@ 4D@ 4D@ 4D@ D@ D@ D@ D@ D@ D@ D@ D@ D@ D@ D@ D@ D@ D@ D@ D@ D@ D@ D@ D@ D@ D@ D@ D@ D@ D@ D@ D@ D@ D@ D@ D@* D@* D@* D@* D@* D@* D@* D@* D@* D@* D@* D@* D@* D@* D@*E D@*E D@*E D@*E D@*E D@*E @*E @*E @*E @*E @*E @*E @*E @*E @*E @*E @*E @*E @*E @*E @*E *E *E *E *E *E *E *E *E *E *E *E *E *E *E *E *E *E *E *E *E *E *E *E *E *E *E *E *E *E *E *E *E *E *E *E *E *E *E *E *E *E *E *?E *?E *?E ?E ?E ?E ?E ?E ?E ?E ?E ?E ?E ?E ?E ?E ?E ?E ?E ?E ?E ?E ?E ?E ?E ?E ?E ?E ?E ?E ?E ?E ?E ?E ?E ?E ?E ?E ?E ?E ?E ?E ?E ?E ?E ?E ?E ?E ?E ?E ?E ?E ?E ?E ?E ?E ?E ?6E ?6E ?6E ?@6E @6E @6E @6E @6E @6E @6E @6E @6E @6E @6E @6E @6E @6E @6E @6E @6E @6E @6E @6E @6E @6E @6E @6E @6E @6E @6E @6E @6E @6E @6E @6E @6E @6E @6E @6E @6E @6E @6E @6E @6E @6E @6E @6E @6E @6E @6E @6E @6E @6E @6E @6E @6E @6E @6E @6E @6E @6E @6E @6E @6EB @6EB 6EB 6EB 6EB 6EB 6EB 6EB 6EB 6EB 6EB 6EB 6EB EB EB EB EB EB EB EB EB EB EB EB EB EB EB EB EB EB EB EB EB EB EB EB EB EB EB EB EB EB EB EB EB EB EB EB EB EB EB EB EB EB EB EB EB EB B8 B;8 B;8 ;8 ;8 ;8 ;8 ;8 ;8 ;8 ;8 ;8 ;8 ;8 ;8 ;8 ;8 ;8 ;8 ;8 ;8 ;8 ;8 ;8 ;8 ;8 ;8 ;8 ;8 ;8 ;8 ;8 ;8 ;8 ;8 ;8 ;8 ;8 ;8 ;8 ;8 ;8 ;8 ;8 ;8 ;8 ;8 ;8 ;8 ;8 ;8 ;8 ;8 ;8 ;8 ;8 ;8 ;8 ;8 ;8 ;8 ;8 ;E8 ;E8 ;E8 ;E8 ;E8 ;E8 ;E8 ;E8 ;E8 ;E8 ;E8 ;E8 ;E8 ;E8 ;E8 ;E8 ;E8 ;E8 ;E8 ;E8 ;E8 ;E8 ;E8 ;E8 ;E8 ;E8 ;E8 ;E8 ;E8 ;E8 ;E8 ;E8 ;E8 ;E8 ;E8 ;E8 ;E8 ;E8 ;E8 ;E8 ;E8 ;E8 ;E8 ;E8 ;E8 ;E8 ;E8 ;E8 ;E8 ;E8 ;E8 ;E8 E8 E8 E8 E8 E8 E8 8D@ 8D@ 8D@ 8D@ 8D@ 8D@ 8D@ 8D@ 8D@ 8D@ 8D@ 8D@ 8D@ 8D@ 8D@ 8D@ 8D@ 8D@ 8D@ 8D@ 8D@ 8D@ 8D@ 8D@ 8D@ 8D@ 8D@ 8D@ 8D@ 8D@ 8D@ 8D@ 8D@ 8D@ 8D@ 8D@ 8D@ 8D@ 8D@ 8D@ 8D@ 8D@ 8D@ 8D@ 8D@ 8D@ 8D@ 8D@ 8D@ 8D@ 8D@ 8D@ 8D@ D@ D@ D@ D@ DB9@ B9@ B9@ B9@ B9@ B9@ B9@ B9@ B9@ B9@ B9@ B9@ B9@ B9@ B9@ B9@ B9@ B9@ B9@ B9@ B9@ B9@ B9@ 9@ 9@ 9@ 9@ 9@ 9@ 9@ 9@ 9@ 9@ 9@ 9@ 9@ @ @ @ @ @ @ @ @ @ @ @ @ @ @ @ @ @ @ @ @ @ @ @ @ @ @ @ @ @ @; @; D@; D@; D@; D@; D@; D@; D@; D@; D@; D@; D@; D@; D@; D@; @B; B; B; B; B; B; B; B; B; B; B; B; B; B; B; BD; BD; BD; D; D; D; D; D; D; D; D; D; ; ; B; B; B; B; B; B; B; B; B;D B;D B;D B;D B;D@ B;D@ B;D@ B;D@ B;D@ B;D@ B;D@ B;D@ ;D@ ;D@ D@ D@ D@ D@ D@ D@B D@B D@B D@B D@B @B @B @B @B @B @B @B @B @B @B @B @B @B @B @B @B @B @B @B @B @B @B @B @B @B B B B B B B B B B B B B B B B B B B B B B/ B/? B/? B/? B/? B/? B/? B/? B/? B/? B/? B/? B/? B/? B/? B/? B/? B/? B/? B/? B/? B/? B/? B/? B/? B/? B/? B/? B/? B/? B/? B/? B/? B/? B/? B/? B/? B/? B/? B/? B/? B/? B/? B/? B/? B/? B/? B/? B/? B/? B/? B/? B/? B/? B/? B/? B@/? @/? @/? @/? @/? @/? @/? @/? @/? @/? @/? @/? @/? @/? @/? @/? @/? @/? @/? /? /? /? /? /? /? /? ? ? ? ? ? ? ? ? ? ? ? ? ? ? ? ? ? ? ? ? ? ? ? ? ? ? ? ? ? ? ? ? ? ? ? ? ? ?4 ?4 ?4 ?4 ?4 ?4 ?4@ ?4@ 4@ 4@ 4@ 4@ 4@ 4@ 4@ 4@ 4@ 4@ 4@ 4@ 4@ 4@ 4@ 4@ 4@ 4@ 4@ 4@ 4@ 4@ 4@ 4@ 4@ 4@ 4@ 4@ 4@ 4@ 4@ 4@ 4@ 4@ 4@ 4@ 4@ 4@ 4@ 4@ 4@ 4@ 4@ 4@ 4@ 4@ 4@ 4@ 4@ 4@ 4@ 4@ 4@ 4@ 4@ 4@ 4@ 4@ 4@ >4@ >4@ >4@ >4@ >4@ >4@ >4@ >4@ >4@ >4@ >4@ >4@ >4@ >4@ >4@ >4@ >4@ >4@ >4@ >4@ >4@ >4@ >4@ >4@ >4@ >4@ >4@ >4@ >4@ >4@ >4@ >4@ >4@ >4@ >4@ >4@ >4@ >4@ >4@ >4@ >4@ >4@ >4@ >4@ >4@ >4@ >4@ >4@ >4@ >4@ >4@ >4@ >4@ >4@ >4@ >4@ >4@ >4@ >4@ =4@ =4@ =4@ =4@ =4@ =4@ =4@ =4@ =4@ =4@ =4@ =4@ =4@ =4@ =4@ =4@ =4@ =4@ =4@ =4@ =4@ =4@ =4@ =4@ =4@ =4@ =4@ =4@ =4@ =4@ =4@ =4@ =4@ =4@ =4@ =4@ =4@ =4@ =4@ =4@ =4@ =4@ =4@ =4@ =4@ =4@ =4@ =4@ =4@ =4@ =4@ =4@ =4@ 4@ 4@ 4@ 4@ 4@ ;4@ ;4@ ;4@ ;4@ ;4@ ;4@ ;4@ ;4@ ;4@ ;4@ ;4@ ;4@ ;4@ ;4@ ;4@ ;4@ ;4@ ;4@ ;4@ ;4@ ;4@ ;4@ ;4@ ;4@ ;4@ ;4@ ;4@ ;4@ ;4@ ;4@ ;4@ ;4@ ;4@ ;4@ ;4@ ;4@ ;4@ ;4@ ;4@ ;4@ ;4@ ;4@ ;4@ ;4@ ;4@ ;4@ ;4@ ;4@ ;4@ ;4@ ;4@ ;4@ ;4@ ;4@ ;4@ ;4@ ;4@ ;4@ ;4@ ;4@ ;4@ ;4@ ;4@ ;4@ ;4@ ;4@ 4=@ 4=@ 4=@ 4=@ 4=@ 4=@ 4=@ 4=@ 4=@ 4=@ 4=@ 4=@ 4=@ 4=@ 4=@ 4=@ 4=@ 4=@ 4=@ 4=@ 4=@ 4=@ 4=@ 4=@ 4=@ 4=@ 4=@ 4=@ 4=@ 4=@ 4=@ 4=@ 4=@ 4=@ 4=@ 4=@ 4=@ 4=@ 4=@ 4=@ 4=@ 4=@ 4=@ 4=@ 4=@ 4=@ 4=@ 4=@ 4=@ 4=@ 4=@ 4=@ 49=@ 49=@ 49=@ 49=@ 49=@ 9=@ 9=@ 9=@ 9=@ 9=@ 9=@ 9=@ 9=@ 9=@ 9=@ 9=@ 9=@ 9=@ 9=@ 9=@ 9=@ 9=@ 9=@ 9=@ 9=@ 9=@ 9=@ 9=@ 9=@ 9=@ 9=@ 9=@ 9=@ 9=@ 9=@ 9=@ 9=@ 9=@ 9=@ 9=@ 9=@ 9=@ 9=@ 9=@ 9=@ 9=@ 9=@ 9=@ 9=@ 9=@ 9=@ 9=@ 9=@ 9=@ 9=@ 9=@ 9=@ 9=@ 9=@ 9=@ 9=@ 98=@ 98=@ 8=@ 8=@ 8=@ 8=@ 8=@ 8=@ 8=@ 8=@ 8;=@ 8;=@ 8;=@ 8;=@ 8;=@ 8;=@ 8;=@ 8;=@ 8;=@ 8;=@ 8;=@ 8;=@ 8;=@ 8;=@ 8;=@ 8;=@ 8;=@ 8;=@ 8;=@ 8;=@ 8;=@ 8;=@ 8;=@ 8;=@ 8;=@ 8;=@ 8;=@ 8;=@ 8;=@ 8;=@ 8;=@ 8;=@ 8;=@ 8;=@ 8;=@ 8;=@ 8;=@ 8;=@ 8;=@ 8;=@ 8;=@ 8;=@ 8;=@ 8;9=@ 8;96=@ 8;96=@ 8;96=@ 8;96=@ 8;96=@ 8;96=@ 8;96=@ 8;96=@ ;96=@ ;96=@ ;96=@ ;96=@ 96=@ 96=@ 96=@ 96=@ 96=@ 96=@ 96=@ 96=@ 96=@ 96=@ 96=@ 96=@ 96=@ 96=@ 96=@ 96=@ 96=@ 96=@ 96=@ 96=@ 96=@ 96=@ 96=@ 96=@ 6=@ 6=@ 6=@ 6=@ =@ =@ =@ =@ =@ =@ =@ =@ =@ =@ =@ =@ =@ =@ =@ =@ =@ =@L @L @L @4L @4L8 @4L8 4L8 4L8 4L8 4L8 4L8 4L8 4L8 4L8 4L8 4L8 4L8 4L8 4L8 4L8 4L8 4L8 4L8 4L8 4L8 4L8 4L8 4L8 4L8 4L8 4L8 4L8 4L8 4L8 4L8 4L8 4L8 4L8 4L8 4L8 4L8 4L8 4L8 4L8 4L8 4L8 4L8 4L8 4L8 4L8 4L8 4L8 4L8 4L8 4L8 4L8 4L8 4L8 4L8 4L8 42L8 42L8 42L8 42L8 42L8 42L8 2L8 2L8 2L8 2L8 2L8 2L8 2L8 2L8 2L8 2L8 2L8 2L8 2L8 2L8 2L8 2L8 2L8 2L8 2L8 2L8 2L8 2L8 2L8 2L8 2L8 2L8 2L8 2L8 2L8 2L8 2L8 2L8 2L8 2L8 2L8 2L8 2L8 2L8 2L8 2L8 2L8 2L8 2L8 2L8 2L8 2L8 2L8 2L8 2L8 2L8 24L8 4L8 4L8 4L8 4L8 4L8 4L8 4L8D 4L8D 4L8D 4L8D 4L8D 4L8D 4L8D 4L8D 4L8D 4L8D 4L8D 4L8D 4L8D 4L8D 4L8D 4L8D 4L8D 4L8D 4L8D 4L8D 4L8D 4L8D 4L8D 4L8D 4L8D 4L8D 4L8D 4L8D 4L8D 4L8D 4L8D 4L8D 4L8D 4L8D 4L8D 4L8D 4L8D 4L8D 4L8D 4L8D 4L8D 4L8D 4L8D 4L8D 4L8D 4L8D 4L8D 4L8D 4L8D 4L8D 4L18D 4L18D 4L18D L18D L18D L18D L18D L18D L18D L18D L18D L18D L18D L18D L18D L18D L18D L18D L18D L18D L18D 18D 18D 18D 18D 18D 18D 18D 18D 18D 18D 18D 18D 18D 18D 18D 18D 18D 18D 18D 18D 18D 18D 18D 18D 18D 18D 18D 18D 18D 18D 18D 18D 18D 18D 18D 18D 8D6 8D6 8D6 8D6 D6 D6 D6 D6 D6 D6 D6 D6 D6 D6L D6L D6L D6L D6L D6L D6L D6L D6L D6L D6L D6L D6L D6L D6L D6L D6L D6L D6L D6L D6L D6L D6L D6L D6L D6L D6L D6L D6L D6L D6L D6L D6L D6L D6L D6L D6L D6L D6L D6L D6L D6L D6L D6L D6L D6L D6L D6L D6L D6L D6L D6L D6L D6L D6L D6L D6L D6L 6L 6L J6L J6L J6L J6L J6L J6L J6L J6L J6L J6L J6L J6L J6L J6L J6L J6L J6L J6L J6L J6L J6L J6L J6L J6L J6L J6L J6L J6L J6L J6L J6L J6L J6L J6L J6L J6L J6L J6L J6L J6L J6L J6L J6L J6L J6L J6L J6L J6L J6L J6L J6L J6L J6L J6L J6L J6L J6L J6L J6L J6L J6L J6L JI6L I6L I6L I6L I6L I6L I6L I6L I6L I6L I6L I6L I6L I6L I6L I6L I6L I6L I6L I6L I6L I6L I6L I6L I6L I6L I6L I6L I6L I6L I6L I6L I6L I6L I6L I6L I6L I6L I6L I6L I6L I6L I6L I6L I6L I6L I6L I6L I6L I6L I6L I6L I6L I6L 6L G6L G6L G6L G6L G6L G6L G6L G6L G6L G6L G6L G6L G6L G6L G6L G6L G6L G6L G6L G6L G6L G6L G6L G6L G6L G6L G6L G6L G6L G6L 6L 6L 6L 6L 6L 6L 6L 6L 6L 6L 6L 6L 6L 6L 6L 6L 6L 6L 6L 6L 6L 6L 6L 6L 6L 6L 6L 6L 6L 6L 6L 6L 6L 6L 6L 6L 6L 6L 6L L LI LI LI LI LI LI LI LI LI LI LI LI LI LI LI LI LI LI LI LI LI LI LI LI LI LI LI LI LI LI LI LI LI LI LI LI LI LI LI LI LI LI LI LI LI LI LI LI LI LI LI LI =LI =LI =LI =LI =LI =LI =LI =LI =LI =LI =LI =LI =LI =LI =LI =LI =LI =LI =LI =LI =LI =LI =LI =LI =LI =LI =LI =LI =LI =LI =LI =LI =LI =LI =LI =LI =LI =LI =LI =LI =LI =LI =LI =LI =LI =LI =LI =LI =LI =LI =LI =LI =LI =LI =LI =LI =LI =LI =LI =LI =;LI ;LI ;LI ;LI ;LI ;LI ;LI ;LI ;LI ;LI ;LI ;LI ;LI ;LI ;LI ;LI ;LI ;LI ;LI ;LI ;LI ;LI ;LI ;LI ;LI ;LI ;LI ;LI ;LI ;LI ;LI ;LI ;LI ;LI ;LI ;LI ;LI ;LI ;LI ;LI ;LI ;LI ;LI ;LI ;LI ;LI ;LI ;LI ;LI ;LI ;LI ;LI ;LI ;LI ;LI ;LI ;LI ;LI ;9LI ;9LI ;9LI ;9LI ;9LI 9LI 9LI 9LI 9LI 9LI 9LI 9LI 9LI 9LI 9LI 9LI 9LI 9LI 9LI 9LI 9LI 9LI 9LI 9LI 9LI 9LI 9LI 9LI 9LI 9LI 9LI 9LI 9LI 9LI 9LI 9LI 9LI 9LI 9LI 9LI 9LI 9LI 9LI 9LI 9LI 9LI 9LI 9LI 9LI 9LI 9LI 9LI 9LI 9LI 9LI 9L8I 9L8I 9L8I 9L8I L8I L8I L8I L8I L8I L8I L8I 8I 8I 8IJ 8IJ 8IJ 8IJ 8IJ 8IJ 8IJ 8IJ 8IJ 8IJ 8IJ 8IJ 8IJ 8IJ 8IJ 8IJ 8IJ 8IJ 8IJ 8IJ 8IJ 8IJ 8IJ 8IJ 8IJ 8IJ 8IJ 8IJ 8IJ 8IJ 8IJ 8IJ 8IJ 8IJ 8IJ 8IJ 8IJ 8IJ 8IJ 8IJ 8IJ 8IJ 8IJ 8IJ 8IJ 8IJ 8IJ 8IJ 8IJ 8IJ 8IJ 8IJ 8IJ IJ 6IJ 6IJ 6IJ 6IJ 6IJ 6IJ 6IJ 6IJ 6IJ 6IJ 6IJ 6IJ 6IJ 6IJ 6IJ 6IJ 6IJ 6IJ 6IJ 6IJ 6IJ 6IJ 6IJ 6IJ 6IJ 6IJ 6IJ 6IJ 6IJ 6IJ 6IJ 6IJ 6IJ 6IJ 6IJ 6IJ 6IJ 6IJ 6IJ 6IJ 6IJ 6IJ 6IJ 6IJ 6IJ 6IJ 6IJ 6IJ 6IJ 6IJ 6IJ 6IJ 6IJ 6IJ 6IJ 6IJ 6IJ 6IJ 6IJ 6I8J 6I8J 6I8J 6I8J 6I8J 6I8J 6I8J I8J I8JG I8JG I8JG I8JG I8JG I8JG I8JG I8JG I8JG 8JG 8JG 8JG 8JG 8JG 8JG 8JG 8JG 8JG 8JG 8JG 8JG 8JG 8JG 8JG 8JG 8JG 8JG 8JG 8JG 8JG 8JG 8JG 8JG 8JG 8JG 8JG 8JG 8JG 8JG 8JG 8JG 8JG 8JG 8JG 8JG 8JG 8JG 8JG 8JG JG 4JG 4JG 4JG 4JG 4JG 4JG 4JG 4JG 4JG 4JG 4JG 4JG 4JG 4JG 4JG 4JG 4JG 4JG 4JG 4JG 4JG 4JG 4JG 4JG 4JG 4JG 4JG 4JG 4JG 4JG 4JG 4JG 4JG 4JG 4JG 4JG 4JG 4JG 4JG 4JG 4JG 4JG 4JG 4JG 4JG 4JG 4JG 4JG 4JG 4JG 4JG 4JG 4JG 4JG 4JG 4JG 4JG 4JG JG JG JG JG JG9 JG9 JG9 JG9 JG9 JG9 JG9 JG9 JG9 JG9 JG9 JG9 JG9 JG9 JG9 JG9 JG9 JGI9 JGI9 JGI9 JGI9 GI9 GI9 GI9 GI9 GI9 GI9 GI9 GI9 GI9 GI9 GI9 GI9 GI9 GI9 GI9 GI9 GI9 GI9 GI9 GI9 GI9 GI9 GI9 GI9 GI9 GI9 GI9 GI9 GI9 GI9 GI9 GI9 GI9 GI9 GI9 GI9 GI9 GI9 GI9 GI9 GI9 GI9 GI9 GI9 GI9 GI9 GI9 GI9 GI9 GI9 GI9 G@I9 G@I9 G@I9 G@I9 G@I9 G@I9 @I9 @I9 @I9 @I9 @I9 @I9 @I9 @I9 @I9 @I9 @I9 @I9 @I9 @I9 @I9 @I9 @I9 @I9 @I9 @I9 @I9 @I9 @I9 @I9 @I9 @I9 @I9 @I9 @I9 @I9 @I9 @I9 @I9 @I9 @I9 @I9 @I9 @I9 @I9 @I9 @I9 @I9 @I9 @I9 @I9 @I9 @I9 @I9 @I9 @I9 @I9 @I9 @I9 @I9 @I9 I9 BI9 BI9 BI9 BI9 BI9 BI9 BI9 BI9 BI9 BI9 BI9 BI9 BI9 BI9 BI9 BI9 BI9 BI9 BI9 BI9 BI9 BI9 BI9 BI9 BI9 BI9 BI9 BI9 BI9 BI9 BI9 BI9 BI9 BI9 BI9 BI9 BI9 BI9 BI9 BI9 BI9 BI9 BI9 BI9 BI9 BI9 BI9 BI9 BI9 BI9 BI9 BI9 BI9 BI9 BI9 BI9 BI9 BI9 BI9 BID9 BID9 BID9 BID9 BID9 BID9 ID9 ID9 ID9 ID9 ID9 ID9 ID9 ID9 ID9 ID9 ID9 ID9 ID9 ID9 ID9 ID9 ID9 ID9 ID9 ID9 ID9 ID9 ID9 ID9 ID9 ID9 ID9 ID9 ID9 ID9 ID9 ID9 ID9 ID9 ID9 ID9 ID9 ID9 ID9 ID9 ID9 ID9 ID9 ID9 ID9 ID9 ID9 ID9 D9 D9 D9 9 9E 9E 9E 9E 9E 9E 9E E E E E E E E E E E E E E E E E E E E E E E E E E E E E E E E E E E E E E E E E E E E E E E E E E IE IE IE I-E I-E I-E I-E I-E I-E I-E I-E I-E I-E I-E I-E I-E I-E I-E I-E I-E I-E I-E I-E I-E I-E I-E I-E I-E I-E I-E I-E I-E I-E I-E I-E I-E I-E I-E I-E I-E I-E I-E I-E I-E I-E I-E I-E I-E I-E I-E I-E I-E I-E I-E I-E I-E I-E I-E I-E -E -J/E -J/E -J/E -J/E -J/E -J/E -J/E -J/E -J/E -J/E -J/E J/E J/E J/E J/E J/E J/E J/E J/E J/E J/E J/E J/E J/E J/E J/E J/E J/E J/E J/E J/E J/E J/E J/E J/E J/E J/E J/E J/E J/E J/E J/E J/E J/E J/E J/E J/E J/E J/E J/E J/E J/E J/E J/E J/1E J/1E J/1E J/1E J/1LE /1LE /1LE 1LE 1LE 1LE 1LE 1LE 1LE 1LE 1LE 1LE 1LE 1LE 1LE 1LE 1LE 1LE 1LE 1LE 1LE 1LE 1LE 1LE 1LE 1LE 1LE 1LE 1LE 1LE 1LE 1LE 1LE 1LE 1LE 1LE 1LE 1LE 1LE 1LE 1LE 1LE 1LE 1LE LE LE LE LE LE E E E E E2 E2 E2 E2 E2 E2 E2 E2 E2 E2 E2 E2N E2N E2N E2N E2N E2N E2N E2N E2N E2N E2N E2N E2N E2N E2N E2N E2N E2N E2N E2N E2N E2N E2N E2N E2N E2N E2N E2N E2N E2N E2N E2N E2N E2N E2N E2N E2N E2N E2N E2N E2N E2N E2N E2N E2N 2N 2N 2N 2N 2N 24N 24N 24N 4N 4N 4N 4N 4N 4N 4N 4N 4N 4N 4N 4N 4N 4N 4N 4N 4N 4N 4N 4N 4N 4N 4N 4N 4N 4N 4N 4N 4N 4N 4N 4N 4N 4N 4N 4N 4N 4N 4N 4N 4N 4N 4N 4N 4N 4N 4N 4N 4N 4N 4N 4N 4N 4N 42N 42N 42N 42N 42N 2N 2N 2NJ 2NJ 2NJ 2NJ 2NJ 2NJ 2NJ 2NJ 2NJ 2NJ 2NJ 2NJ 2NJ 2NJ 2NJ 2NJ 2NJ 2NJ 2NJ 2NJ 2NJ 2NJ 2NJ 2NJ 2NJ 2NJ 2NJ 2NJ 2NJ 2NJ 2NJ 2NJ 2NJ 2NJ 2NJ 2NJ 2NJ 2NJ 2NJ 2NJ 2NJ 2NJ 2NJ 2NJ 2NJ 2NJ 2NJ 2NJ 2NJ 2NJ 26NJ 6NJ 6NJ 6NJ 6NJ 6NJ 6NJ 6NJ 6NJ 6NJ 6NJ 6NJ 6NJ 6NJ 6NJ 6NJ 6NJ 6NJ 6NJ 6NJ 6NJ 6NJ 6NJ 6NJ 6NJ 6NJ 6NJ 6NJ 6NJ 6NJ 6NJ 6NJ 6NJ 6NJ 6NJ NJ NJ NJ NJ NJ NJ NJ NJ NJ NJ NJ NJ NJ NJ NJ NJ NJ NJ NJ NJ NJ NJ NJ NJ NJ NJ NJ NJ NJ+ NJ+ J+ J+ J+L J+L J+L J+L J+L J+L J+L J+L J+L +L +L +L +L +L +L +L +L +L +L +L +L +L +L +L +L +L +L +L +L +L +L +L +L +L +L +L +L +L +L +L +L +L +L +L +L +L +L +L +L +L +L +L +L +L +L +L +L +L J+L J+L J+L J+L J+L J+L J+L J+L J+L J+L J+L J+L J+L J+L J+L J+L J+L J+L J+L J+L J+L J+L J+L J+L J+L J+L J+L J+L J+L J+L J+L J+L J+L J+L J+L J+L J+L J+L J+L J+L J+L J+L J+L J+L J+L J+L J+L J+L J+L J+L J+L J+L J+L J+L J+L J+L J+L J+L J+L J+L J+L J+L JI+L JI+L JI+L I+L I+L I+L I+L I+L I+L I+L I+L I+L I+L I+L I+L I+L I+L I+L I+L I+L I+L I+L I+L I+L I+L I+L I+L I+L I+L I+L I+L I+L I+L I+L I+L I+L I+L I+L I+L I+L I+L I+L I+L I+L I+L I+L I+L I+L I+L I+L I+L I+L I+L I+L I+L I+L I+L I+L I+L I+L I+LG +LG +LG +LG +LG +LG +LG +LG +LG +LG +LG +LG +LG +LG +LG +LG +LG +LG +LG +LG +LG +LG +LG +LG +LG +LG +LG +LG +LG +LG +LG +LG +LG +LG +LG +LG +LG +LG +LG +LG +LG +LG +LG +LG +LG +LG +LG +LG +LG +LG +LG +LG +LG +LG +LG +LG +LG +LG +LG +LGI LGI LGI GI GI GI I I I I I I I I I I I I I I I I I I I I I I I I I I I I I I I I I I I I I I I I I I I I I I I 2I 2I 2I 2I 2I 2I 2I 2OI 2OI 2OI 2OI 2OI 2OI 2OI 2OI 2OI 2OI 2OI 2OI 2OI 2OI 2OI 2OI 2OI 2OI 2OI 2OI 2OI 2OI 2OI 2OI 2OI 2OI 2OI 2OI 2OI 2OI 2OI 2OI 2OI 2OI 2OI 2OI 2OI 2OI 2OI 2OI 2OI 2OI 2OI 2OI 2OI 2OI 2OI 2OI 2OI 2OI 2OI 2OI 2OI 2OI 2OI 2OI 2OI 2O4I O4I ON4I ON4I ON4I ON4I ON4I ON4I N4I N4I N4I N4I N4I N4I N4I N4I N4I N4I N4I N4I N4I N4I N4I N4I N4I N4I N4I N4I N4I N4I N4I N4I N4I N4I N4I N4I N4I N4I N4I N4I N4I N4I N4I N4I N4I N4I N4I N4I N4I N4I N4I N4I N4I N4I 4I 4I 4I 46I 46I 4L6I 4L6I 4L6I 4L6I 4L6I 4L6I 4L6I L6I L6I L6I L6I L6I L6I L6I L6I L6I L6I L6I L6I L6I L6I L6I 6I 6I 6I 6I 6I 6I 6I 6I 6I 6I 6I 6I 6I 6I 6I 6I 6I 6I 6I 6I 6I 6I 6I 6I 6I 6I 6I 6I 6I 6I 6I 6I 6I 6I 6I 6I 67I 67I 67I 67I 67I 67I 7I 7IJ 7IJ 7IJ 7IJ 7IJ 7IJ 7IJ 7IJ 7IJ 7IJ 7IJ 7IJ 7IJ 7IJ 7IJ 7IJ 7IJ 7IJ 7IJ 7IJ 7IJ 7IJ 7IJ 7IJ 7IJ 7IJ 7IJ 7IJ 7IJ 7IJ 7IJ 7IJ 7IJ 7IJ 7IJ 7IJ 7IJ 7IJ 7IJ 7IJ 7IJ 7IJ 7IJ 7IJ 7IJ 7IJ 7IJ 7IJ 7IJ I9J I9J I9J I9J I9J I9J I9J I9J I9J I9J I9J I9J I9J I9J I9J I9J I9J I9J I9J I9J I9J I9J I9J I9J I9J I9J I9J I9J I9J I9J I9J I9J I9J I9J I9J I9J I9J I9J I9J I9J I9J I9J I9J I9J I9J I9J 9J 9J 9J 9J 9J 9J 9J 9J 9J 9J 97J 97J 97J 7J 7J 7J 7J 7J 7J 7J 7J 7J 7J 7J 7J 7J 7J 7J 7J 7J 7JG 7JG 7JG 7JG 7JG 7JG 7JG 7JG 7JG 7JG 7JG 7JG 7JG 7JG 7JG 7JG 7JG 7JG 7JG 7JG 7JG 7JG 7JG 7JG 7JG 7JG 7JG 7JG 7JG 7JG 7JG 7JG 7JG 7JG 7JG 7JG 7JG 7JG 7JG 7JG 7JG 7JG 7JG 7JG 7JG 7JG 7JG JG ;JG ;JG ;JG ;JG ;JG ;JG ;JG ;JG ;JG ;JG ;JG ;JG ;JG ;JG ;JG ;JG ;JG ;JG ;JG ;JG ;JG ;JG ;JG ;JG ;JG ;JG ;JG ;JG ;JG ;JG ;JG ;JG ;JG ;JG ;JG ;JG ;JG ;JG ;JG ;JG ;JG ;JG ;JG ;JG ;JG ;JG ;JG ;JG ;JG ;JG ;JG ;JG ;JG ;JG ;JG ;JG ;JG ;JG ;JG ;JG ;JG ;JG ;JG ;JG ;JG5 ;JG5 ;JG5 ;JG5 ;JG5 ;JG5 ;JG5I JG5I JG5I JG5I G5I G5I G5I G5I G5I G5I G5I G5I G5I G5I G5I G5I G5I G5I G5I G5I G5I G5I G5I G5I G5I G5I G5I G5I G5I G5I G5I G5I G5I G5I G5I G5I G5I G5I G5I G5I G5I G5I G5I G5I G5I G5I G5I G5I G5I G5I G5I G5I G5I G5I G5I G5I G5I G5I G5I G5I G5I G5I G5I G5EI G5EI G5EI G5EI G5EI EI EI EI EI EI EI EI EI EI EI EI EI EI EI EI EI EI EI EI EI EI EI EI EI EI EI EI EI EI EI EI EI EI EI EI EI EI EI EI EI EI EI EI EI EI EI EI EI EI EI EDI EDI DI DI DI DI D;I D;I D;I D;I D;I D;I D;I D;I D;I D;I D;I D;I D;I D;I D;I D;I D;I D;I D;I D;I D;I D;I D;I D;I D;I D;I D;I D;I D;I D;I D;I D;I D;I D;I D;I D;I D;I D;I D;I D;I D;I D;I D;I D;I D;I D;I D;I D;I D;I D;I DB;I DB;I B;I B;I B;I B;I B;I B;I B;I B;I B;I B;I B;I B;I B;I B;I B;I B;I B;I B;I B;I B;I B;I B;I B;I B;I B;I B;I B;I B;I B;I B;I B;I B;I B;I B;I B;I B;I B;I B;I B;I B;I B;I B;I B;I B;I B;I B;I B;I B;I B;I B;I B;I B;I B;I B;I B;I B;I B;I B;I B;I B;I B;I B;AI B;AI B;AI B;AI B;AI B;AI B;AI B;AI B;AI B;AI B;AI B;AI B;AI B;AI B;AI B;AI B;AI B;AI ;AI ;AI ;AI ;AI ;AI ;AI ;AI AI AI AI AI AI AI AI AI AI AI AI AI AI AI AI AI AI AI AI AI AI AI AI AI AI AI AI I I I I I I I I I I I >I >I >I >I >I >I >I >I >I >I >I >I >I >I >I >I >I >I >I >I >I >I >I >I >I >I >I >I >I >I >I >I >I >I >I >I >I >I >I >I >I >I >I >I >I >I >I >I >I >I >I >I >I >I >I >I >I >I >I >I >=I =I =I =I =I =I =I =I =I =I =I =I =I =I =I =I =I =I =I =I =I =I =I =I =I =I =I =I =I =I =I =I =I =I =I =I =I =I =I =I =I =I =I =I =I =I =I =I =I =I =I =I =I =I =I =I =I =I; I; I; I; I; I; I; I; I; I; I; I; I; I; I; I; I; I; I; I; I; I; ; ; ; ; ; ; ; ; ; ; ; ; ; ; ; ; ; ; ; ; ; ; ; ; ; ; ; ; ; ; ; ; ; ; N N N N N N N N N N N N 9N 9N 9N 9N 9N 9N 9N 9N 9N 9N 9N 9N 9N 9N 9N 9N 9N 9N 9N 9N 9N 9N 9N 9N 9N 9N 9N 9N 9N 9N 9N 9N 9N 9N 9N 9N 9N 9N 9N 9N 9N 9N 9N 9N 9N 9N 9N 9N 9N 9N 9N 9N 9N 98N 98N 8N 8N 8N 8N 8N 8N 8N 8N 8N 8N 8N 8N 8N 8N 8N 8N 8N 8N 8N 8N 8N 8N 8N 8N 8N 8N 8N 8N 8N 8N 8N 8N 8N 8N 8N 8N 8N 8N 8N 8N 8N 8N 8N 8N 8N 8N 8N 8N N N 9N 9N 9N 9N 9N 9N 9N 9N 9N 9N 9N 9N 9N 9N 9N 9N 9N 9N 9N 9N 9N 9N 9N 9N 9N 9N 9N 9N 9N 9N 9N 9N 9N 9N 9N 9N 9N 9N 9N 9N 9N 9N 9N 9N 9N 9N 9N 9N 9N 9N 9N 9N 9N 9N 9N 9N 9N 9N 9N 9N 9N 96N 96N 96N 6N 6N 6N 6N 6N 6N 6N 6N 6N 6N 6N 6N 6N 6N 6N 6N 6N 6N 6N 6N 6N 6N 6N 6N 6N 6N 6N 6N 6N 6N 6N 6N 6N 6N 6N 6N 6N 6N 6N 6N 6N 6N 6N 6N 6N 6N 6N 6N 6N 6N 6N 6N 6N 6N 6N 6N 6N 6N 6N8 6N8 N8 N8 N8 N8 N8 N8 N8L 8L 8L 8L 8L 8L 8L 8L 8L 8L 8L 8L 8L 8L 8L 8L 8L 8L 8L 8L 8L 8L 8L 8L 8L 8L 8L 8L 8L 8L 8L 8L 8L 8L 8L 8L 8L 8L 8L 8L 8L 8L 8L 8L 8L 8L 8L 8L 8L 8L 8L 8L 8L 8L 98L 98L 98L 98L 98L 98L 98L 98L 98L 98L 98L 98L 98L 98L 98L 98L 98L 98L 98L 98L 98L 98L 98L 98L 98L 98L 98L 98L 98L 98L 98L 98L 98L 98L 98L 98L 98L 98L 98L 98L 98L 98L 98L 98L 98L 98L 98L 98L 98L 98L 98L 98L 98L 8L ;8L ;8L ;8L ;8L ;8L ;8L ;8L ;8L ;8L ;8L ;8L ;8L ;8L ;8L ;8L ;8L ;8L ;8L ;8L ;8L ;8L ;8L ;8L ;8L ;8L ;8L ;8L ;8L ;8L ;8L ;8L ;8L ;8L ;8L ;8L ;8L ;8L ;8L ;8L ;8L ;8L ;8L ;8L ;8L ;8L ;8L ;8L ;8L ;8L ;8L ;8L ;8L ;8L ;8L ;8L ;8L 8L 8L 8L 8L =8L =8L =8L =8L =8L =8L =8L =8L =8L =8L =8L =8L =8L =8L =8L =8L =8L =8L =8L =8L =8L =8L =8L =8L =8L =8L =8L =8L =8L =8L =8L =8L =8L =8L =8L =8L =8L =8L =8L =8L =8L =8L =8L =8L =8L =8L =8L =8L =8L =8L =8L =8L =8L =8L =8L =8L =8L =8L 8L 8L 8L 8L 8L 8L 8L 8L 8L L L@ L@ L@ L@ L@ L@ L@ L@ L@ L@ L@ L@ L@ L@ L@ L@ L@ L@ L@ L@ L@ L@ L@ L@ L@ L@ L@ L@ L@ L@ L@ L@ L@ L@ L@ L@ L@ L@ L@ L@ L@ L@ L@ L@ L@ L@ L@ L@ L@ L@ L@ L@ L@ L@ L@ L@ L@ L@ L@ L@ L@ L@ L@ L@ L@ L@ L@ L4@ L4@ L4@ L4@ L4@ L4@ L4@ L4@ L4@ L4@ L4@ L4@ L4@ L4@ L4@ L4@ L4@ L4@ L4@ L4@ L4@ L4@ L4@ L4@ L4@ L4@ L4@ L4@ L4@ L4@ L4@ L4@ L4@ L4@ L4@ L4@ L4@ L4@ L4@ L4@ L4@ L4@ L4@ L4@ L4@ L4@ L4@ L4@ L4@ L4@ L4@ L4@ L4@ L4@ L4@ L4@ L4@ L4@ L4@ L4@ L4@ L46@ L46@ L46@ L46J@ 46J@ 46J@ 46J@ 46J@ 46J@ 6J@ 6J@ 6J@ 6J@ 6J@ 6J@ 6J@ 6J@ 6J@ 6J@ 6J@ 6J@ 6J@ 6J@ 6J@ 6J@ 6J@ 6J@ 6J@ 6J@ 6J@ 6J@ 6J@ 6J@ 6J@ 6J@ 6J@ 6J@ 6J@ 6J@ 6J@ 6J@ 6J@ 6J@ 6J@ 6J@ 6J@ 6J@ 6J@ 6J@ 6J@ 6J@ 6J@ 6J@ 6J@ 6J@ 6J@ 6J@ 68J@ 68J@ 68J@ 8J@ 8J@ 8J@ 8J@ 8J@ 8J@ 8J@ 8J@ 8J@ 8J@ 8J@ 8J@ 8J@ 8J@ 8J@ 8J@ 8J@ 8J@ 8J@ 8J@ 8J@ 8J@ 8J@ 8J@ 8J@ 8J@ 8J@ 8J@ 8J@ 8J@ 8J@ 8J@ 8J@ 8J@ 8J@ 8J@ 8J@ 8J@ 8J@ 8J@ 8J@ 8J@ 8J@ 8J@ 8J@ 8J@ 8J@ 8J@ 8J@ 8J@ 8J@ 8J@ 8J@ 8J@ 8J@ 8J@ J@ J@9 J@9I @9I @9I @9I @9I @9I @9I @9I @9I @9I @9I @9I @9I @9I @9I @9I @9I @9I @9I @9I @9I @9I @9I @9I @9I @9I @9I @9I @9I @9I 9I 9I 9I 9I 9I 9I 9I 9I 9I 9I 9I 9I 9I 9I 9I 9I 9I 9I 9I 9I 9I 9I 9I 9I 9I 9I 9I 9I 9I 9;I 9;I 9;I ;I ;I ;I ;I ;I ;I ;I ;I ;I ;I ;I ;I ;I ;I ;I ;I ;I ;I ;I ;I ;I ;I ;I ;I ;I ;I ;I ;I ;I ;I ;I ;I ;I ;I ;I ;I ;I ;I ;I ;I ;I ;I ;I ;I ;I ;I ;I ;I ;I ;I ;I ;I ;9I ;9I 9I 9I 9I 9I 9I 9I 9IE 9IE 9IE 9IE 9IE 9IE 9IE 9IE 9IE 9IE 9IE 9IE 9IE 9IE 9IE 9IE 9IE 9IE 9IE 9IE 9IE 9IE 9IE 9IE 9IE 9IE 9IE 9IE 9IE 9IE 9IE 9IE 9IE 9IE 9IE 9IE 9IE 9IE 9IE 9IE 9IE 9IE 9IE 9IE 9IE 9IE 9IE 9IE 9IE 9IE 9IE 9IE 9=IE =IE =IE =IE =IE =IE =IE =IE =IE =IE =IE =IE =IE =IE =IE =IE =IE =IE =IE =IE IE IE IE IE IE IE IE IE IE IE IE IE IE IE IE IE IE IE IE IE IE IE IE IE IE IE IE IE IE IE IE IE IE IE IE IE IE IE IE IE IE IE IE IE EG EG E3G E3G E3G E3G E3G E3G E3G E3G E3G 3G 3G 3G 3G 3G 3G 3G 3G 3G 3G 3G 3G 3G 3G 3G 3G 3G 3G 3G 3G 3G 3G 3G 3G 3G 3G 3G 3G 3G 3G 3G 3G 3G 3G 3G 3G 3G 3G 3G 3G 3G 3G 3G 3G 3G 3G 3G 3G G G G G G EG EG EG EG EG EG EG EG EG EG EG EG EG EG EG EG EG EG EG EG EG EG EG EG EG EG EG EG EG EG EG EG EG EG EG EG EG EG EG EG EG EG EG EG EG EG EG EG EG EG EG EG EG EG EG EDG EDG EDG EDG EDG DG DG /DG /DG /DG /DG /DG /DG /DG /DG /DG /DG /DG /DG /DG /DG /DG /DG /DG /DG /DG /DG /DG /DG /DG /DG /DG /DG /DG /DG /DG /DG /DG /DG /DG /DG /DG /DG /DG /DG /DG /DG /DG /DG /DG /DG /DG /DG /DG /DG /DG DG DG DG DG DG DBG BG BG BG BG BG BG BG BG BG BG BG BG BG BG BG BG BG BG BG BG BG BG BG BG BG BG BG BG BG BG BG BG BG BG BG BG BG BG BG BG BG BG BG BG BG BG BG BG BG BG BG BG BG BG BG BG BG BG BG BG B(G (G (G (G (G (DG (DG (DG (DG (DG (DG (DG (DG (DG (DG (DG (DG (DG (DG (DG (DG (DG (DG (DG (DG (DG (DG (DG (DG (DG (DG (DG (DG (DG (DG (DG (DG (DG (DG (DG (DG (DG (DG (DG (DG (DG (DG (DG (DG (DG DG DG DG DG DG DG DG DG DG G G G4 G4 G4 G4 G4 G4 G4 G4 G4 G4 G4 G4 G4 G4 G4 G4 4 4 4 4 4 4 4 4 4 4 4 4 4 4 4 4 4 4 4 4 4 4 4 4 4 4 4 4 4 4 4 4 4 4 4 4 4 4 4 4 4 4 4 4F 42IF 42IF 2IF 2IF 2IF 2IF 2IF 2IF 2IF 2IF 2IF 2IF 2IF 2IF 2IF 2IF 2IF 2IF 2IF 2IF 2IF 2IF 2IF 2IF 2IF 2IF 2IF 2IF 2IF 2IF 2IF 2IF 2IF 2IF 2IF 2IF 2IF 2IF 2IF 2IF 2IF 2IF 2IF 2IF 2IF 2IF 2IF 2IF 2IF 2IF 2IF 2IF 2IF 2IF 2I1F I1F I1F I1F 1F 1F 1F 1F 1F 1F 1F 1F 1F 1F 1F 1F 1F 1F 1F 1F 1F 1F 1F 1F 1F 1F 1F 1F 1F 1F 1F 1F 1F 1F 1F 1F 1F 1F 1F 1F 1F 1F 1F 1F 1F 1F 1F 1F 1F 1F 1F 1F 1F 1F 1F F F F F/ F/ F/ F/ F/ F/J F/J /J /JG /JG /JG /JG /JG /JG /JG /JG /JG /JG /JG /JG /JG /JG /JG /JG /JG /JG /JG /JG /JG /JG /JG /JG /JG /JG /JG /JG /JG /JG /JG /JG /JG /JG /JG /JG /JG /JG /JG /JG /JG /JG /JG /JG /JG /JG /JG /JG /JG /JG /JG /JG /JG /JG /JG -JG -JG -JG -JG -JG -JG -JG -JG -JG -JG -JG -JG -JG -JG -JG -JG -JG -JG -JG -JG -JG -JG -JG -JG -JG -JG -JG -JG -JG -JG -JG -JG -JG -JG -JG -JG -JG -JG -JG -JG -JG -JG -JG -JG -JG -JG -JG -JG -JG -JG -JG -JG -JG -JG -JG -JG -JG -JG -JG J/G J/G J/G J/G J/G J/G J/G J/G J/G J/G J/G J/G J/G J/G J/G J/G J/G J/G J/G J/G J/G J/G J/G J/G J/G J/G J/G J/G J/G J/G J/G J/G J/G J/G J/G J/G J/G J/G J/G J/G J/G J/G J/G J/G J/G J/G J/G J/LG /LG /LG /LG /LG /LG /LG /LG /LG LG L,G L,G L,G L,G L,G L,G L,G L,G L,G L,G L,G L,G L,G L,G L,G ,G ,G ,NG ,NG ,NG ,NG ,NG ,NG ,NG ,NG ,NG ,NG ,NG ,NG ,NG ,NG ,NG ,NG ,NG NG NG NG NG NG NG NG NG NG NG NG NG NG NG NG NG NG NG NG NG NG NG NG G GL GL GL G1L G1L G1L G1L G1L G1L G1L G1L G1L G1L 1L 1L 1L 1L 1L 1L 1L 1L 1L 1L 1L 1L 1L 1L 1L 1L 1L 1L 1L 1L 1L 1L 1L 1L 1L 1L 1L 1L 1L 1L 1L 1L 1L 1L 1L 1L 1L 1L 1L 1L 1L 1L 1L 1L 1L 1L 1L 1L I1L I1L I1L I1L I1L I1L I1L I1L I1L I1L I1L I1L I1L I1L I1L I1L I1L I1L I1L I1L I1L I1L I1L I1L I1L I1L I1L I1L I1L I1L I1L I1L I1L I1L I1L I1L I1L I1L I1L I1L I1L I1L I1L I1L I1L I1L I1L I1L I1L I1L I1L I1L I1L I1L I1L I1L I1L I1L I1L I1L I1L IG1L G1L G1L G1L G1L G1L G1L G1L G1L G1L G1L G1L G1L G1L G1L G1L G1L G1L G1L G1L G1L G1L G1L G1L G1L G1L G1L G1L G1L G1L G1L G1L G1L G1L G1L G1L G1L G1L G1L G1L G1L G1L G1L G1L G1L G1L G1L G1L G1L G1L G1L G1L G1L G1L G1L G1L GE1L GE1L GE1L GE1L GE1L GE1L GE1L GE1L E1L E1L E1L E1L E1L E1L E1L E1L E1L E1L E1L E1L E1L E1L E1L E1L E1L E1L E1L E1L E1L E1L E1L E1L E1L E1L E1L E1L E1L E1L E1L E1L E1L E1L E1L E1L E1L E1L E1L E1L E1L E1L E1L E1L E1L E1L E1L E1L E1L E1L E1L 1L 1L 1L 1DL 1DL 1DL DL DL DL DL DL DL DL DL DL DL DL DL DL DL DL DL DL DL DL DL DL DL DL DL DL DL DL DL DL DL DL DL DL DL DL DL DL DL DL DL DL DL DL DL DL DL DL DL DL DL DL DL D4L D4L D4L D4L D4L D4L D4L D4L D4L D4L D4L D4L D4L D4L D4L D4L D4L D4L D4L D4L D4L D4L D4L D4L D4L D4L D4L D4L D4L D4L D4L D4L D4L D4L D4L D4L D4L D4L D4L D4L D4L D4L D4L D4L D4L D4L D4L D4L D4L D4L D4L D4L D4L D4L D4L D4L D4L D4L D4L D4L D4L D4LG 4LG 4L6G 4L6JG 4L6JG 4L6JG 4L6JG L6JG L6JG 6JG 6JG 6JG 6JG 6JG 6JG 6JG 6JG 6JG 6JG 6JG 6JG 6JG 6JG 6JG 6JG 6JG 6JG 6JG 6JG 6JG 6JG 6JG 6JG 6JG 6JG 6JG 6JG 6JG 6JG 6JG 6JG 6JG 6JG 6JG 6JG 6JG 6JG 6JG 6JG 6JG 6JG 6JG 6JG 6JG 6JG 6JG 6JG 68JG 68JG 68JG 68JG 68JG 68JG 68JG 68JG 68JG 68JG 8JG 8JG 8JG 8JG 8JG 8JG 8JG 8JG 8JG 8JG 8JG JG JG JG JG JG JG JG JG JG JG JG JG JG JG JG JG JG JG JG JG JG JG JG JG JG JG JG JG JG JG JG JG JG JG JG JG JG JG JG JG G GI GI GI GI GI GI GI GI 9GI 9GI 9GI 9GI 9GI 9GI 9GI 9GI 9GI 9GI 9GI 9GI 9GI 9GI 9GI 9GI 9GI 9GI 9GI 9GI 9GI 9GI 9GI 9GI 9GI 9GI 9GI 9GI 9GI 9GI 9GI 9GI 9GI 9GI 9GI 9GI 9GI 9GI 9GI 9GI 9GI 9GI 9GI 9GI 9GI 9GI 9GI 9GI 9GI 9GI 9GI 9GI 9GI 9GI 9;GI ;GI ;GI ;GI ;GI ;GI ;GI ;GI ;GI ;GI ;GI ;GI ;GI ;GI ;GI ;GI ;GI ;GI ;GI ;GI ;GI ;GI ;GI ;GI ;GI ;GI ;GI ;GI ;GI ;GI ;GI ;GI ;GI ;GI ;GI ;GI ;GI ;GI ;GI ;GI ;GI ;GI ;GI ;GI ;GI ;GI ;GI ;GI ;GI ;GI ;GI ;GI ;GI ;GI ;G9I ;G9I ;G9I G9I G9I G9I G9I G9I G9I G9I@ G9I@ G9I@ G9I@ G9I@ G9I@ G9I@ 9I@ 9I@ 9I@ 9I@ 9I@ 9I@ 9I@ 9I@ 9I@ 9I@ 9I@ 9I@ 9I@ 9I@ 9I@ 9I@ 9I@ 9I@ 9I@ 9I@ 9I@ 9I@ 9I@ 9I@ 9I@ 9I@ 9I@ 9I@ 9I@ 9I@ 9I@ 9I@ 9I@ 9I@ 9I@ 9I@ 9I@ 9I@ 9I@ 9I@ 9I@ 9I@ 9I@ 9I@ 9I@ 9I@ 9I@ 9=I@ =I@ =I@ =I@ =I@ =I@ =I@ =I@ =I@ =I@ =I@ =I@ =I@ =I@ =I@ =I@ =I@ =I@ =I@ =I@ =I@ =I@ =I@ =I@ =I@ =I@ =I@ =I@ =I@ =I@ =I@ =I@ =I@ =I@ =I@ =I@ =I@ =I@ =I@ =I@ =I@ =I@ =I@ =I@ =I@ =I@ =I@ =I@ I@ I@ I@ I@ I@ I@ I@ I@ I@6 I@6 I@6 I@6 I@6 I@6 I@6 I@6 I@6 I@6 I@6 @6 @6J @6J @6JE @6JE 6JE 6JE 6JE 6JE 6JE 6JE 6JE 6JE 6JE 6JE 6JE 6JE 6JE 6JE 6JE 6JE 6JE 6JE 6JE 6JE 6JE 6JE 6JE 6JE 6JE 6JE 6JE 6JE 6JE 6JE 6JE 6JE 6JE 6JE 6JE 6JE 6JE 6JE 6JE 6JE 6JE 6JE 6JE 6JE 6JE 6JE J8E J8E J8E J8E J8E J8E J8E J8E J8E J8E J8E J8E 8E L8E L8E L8E L8E L8E L8E L8E L8E L8E L8E L8E L8E L8E L8E L8E L8E L8E L8E L8E L8E L8E L8E L8E L8E L8E L8E L8E LN8E N8E N8E N8E N8E N8E N8E N8E N8E N8E N8E N8E N8E N8E N8E N8E N8E N8LE N8LE N8LE N8LE 8LE 8LE 8LE LE L6E L6E L6E L6E L6E L6E L6E L6E L6E L6E L6E L6E L6E L6E L6E L6E L6E L6E L6E L6E LJ6E LJ6E LJ6E LJ6E LJ6E LJ6E J6E J6E J6E J6E J6E J6E J6E J6E J6E J6E J6E J6E J6E J6E J6E J6E J6E J6E J6E J6E J6E J6E J6E J6E J6E J6IE J6IE 6IE 6IE IE I9E I9E I9E I9E I9E I9E I9E I9E I9E I9E I9E I9E I9E I9E I9E I9E I9E I9E I9E I9E I9E I9E I9E I9E I9E I9E I9E I9E I9E I9E I9E I9E I9E I9E 9E 9E 9E 9E 9E 9E 9E 9E 9E 9E 9E 9E 9E 9E 9E 9E 9E 9E 9E 9E 9E 9E 9E 9E 9E E E E I2E I2E I2E I2E I2E I2E I2E I2E I2E I2E I2E I2E I2E I2E I2E I2E I2E I2E I2E I2E I2E I2E I2E 2E 2E 2E G2E G2E G2E G2E G2E G2E G2E G2E G2E G2E G2E G2E G2E G2E G2E G2E G2E G2E G2E G2E 2E 2IE 2IE 2IE 2IE 2IE 2IE 2IE 2IE 2IE 2IE 2IE 2I4E I4E I4E I4E I4E 4E 4E 4E G4E G4E G4E G4E G4E G4E G4E G4E G4E G4E G4E G4E G4E G4E GI4E GI4E I4E I4E I4E I4E I4E I4E I4E I4E I4E I4E 4E 4E 4E G4E G4E G4E G4E G4E G4E G4E G4E G4E G4E G4E G4E G4IE G4IE G4IE G4IE G4IE 4IE 4IE 4IE 4I2E 4I2E I2E I2E I2E I2E I2E 2E G2E G2E G2E G2E G2E G2E G2E G2E G2E G2E G2E GI2E I2E I2E I2E I2E I2E I2E I2E I2E I2E I2E I2E 2E 2E G2E G2E G2E G2E G2E G2E G2E G2E G2E G2E G2E G2E GI2E GI2E I2E I2E I2E I2E I2E I2E I2E I2E I2E 2E 2E 2E E6G E6G E6G E6G E6G E6G E6G E6G E6G E6G E6G E6G E6G E6G IE6G IE6G IE6G IE6G IE6G IE6G IE6G IE6G IE6G IE6G IE6G E6G E6G E6G E6G E6G E6G E6G E6G E6G E6G E6G E6G E6G E6G E6G E6G E6G E6G E6G E6G E6G E6G E6G E6G E6G E6G 6G 6G 6DG 6DG 6DG 6DG 6DG 6/DG /DG /DG /DG /DG /DG /DG /DG /DG /DG /DG /DG /DG /DG /DG /DG /DG /DG /DG /DG /DG /DG /DG /DG /DG /DG /DG /DG /DG /DG /DG /DG /DG /DG /DG /DG /DG /DG /DG /DG /DG /DG /DG /DG /DG /DG /DG /DG /DG /DG /DG /DG /DG /DG /DG /DG /DG /DG /4DG /4DG /4DG /4DG 4DG 4DG 4DG 4DG 4DG 4DG 4DG 4DG 4DG 4DG 4DG 4DG 4DG 4DG 4DG 4DG 4DG 4DG 4DG 4DG 4DG 4DG 4DG 4DG 4DG 4DG 4DG 4DG 4DG 4DG 4DG 4DG 4DG 4DG 4DG 4DG 4DG 4DG 4DG 4DG 4DG 4DG 4DG 4DG 4DG 4DG 4DG 4DG 4DG 4DG 4DG 4DG 4DG 4DG 4DG 4DG 42DG 42DG 2DG 2DG 2DG 2DG 2DG 2DG 2DG 2DG 2DG 2DG 2DG 2DG 2DG 2DG 2DG 2DG 2DG 2DG 2DG 2DG 2DG 2DG 2DG 2DG 2DG 2DG 2DG 2DG 2DG 2DG 2DG 2DG 2DG 2DG 2DG 2DG 2DG 2DG 2DG 2DG 2DG 2DG 2DG 2DG 2DG 2DG 2DG 2DG 2DG 2DG 2DG 2DG 2DG 2DG 2DG 2DG 2DG 2DG 2DG DG DG4 DG4 DG4 DG4 DG4 DG4 DG4 DG4 DG4 DG4 DG4 DG4 DG4 DG4 G4 G4 G4 G4 G4 G4 G4 G4 G4 G4 G4 G4 G4 G4 G4 G4 G4 G4 G4 G4 G4 G4 G4 4 4 4 4 4 4 4 4 4 4 4 4 4 4 4 4 4 4 4 4 4 4 41 1 1 1 1 1 1 1 1 1 1 1 1 1 1 1 1 1E 1E 1E 1E 1E 1E 1E 1E 1E 1E 1E 1E 1E 1E 1E 1E 1E 1E 1E 1E 1E 1E 1E 1E 1E 1E 1E 1E 1E 1E 1E 1E 1E 1E 1E 1E 1E 1E 1E 1E 1E 1E 1E 1E 1E 1E 1E 1E 1E 1E 1E 1E 41E 41E 41E 41E 41E 41E 41E 41E 41E 41E 41E 41E 41E 41E 41E 41E 41E 41E 41E 41E 41E 41E 41E 41E 41E 41E 41E 41E 41E 41E 41E 41E 41E 41E 41E 41E 41E 41E 41E 41E 41E 41E 41E 41E 41E 41E 41E 41E 41E 41E 41E 41E 41E 41E 41E 41E 41E 41E 41E 461E 461E 61E 61E 61E 61E 61E 61E 61E 61E 61E 61E 61E 61E 61E 61E 61E 61E 61E 61E 61E 61E 61E 61E 61E 61E 61E 61E 61E 61E 61E 61E 61E 61E 61E 61E 61E 61E 61E 61E 61E 61E 61E 61E 61E 61E 61E 61E 61E 61E 61E 61E 61E 61E 61E 61E 61E 61E 681E 81E 81E 81E 81E 81E 81E 81E 81E 81E 81E 81E 81E 81E 81E 81E 81E 81E 81E 81E 81E 81E 81E 81E 81E 81E 81E 81E 81E 81E 81E 81E 81E 81E 81E 81E 81E 81E 81E 81E 81E 81E 81E 81E 81E 81E 81E 81E 81E 81E 81E 81E 81E 81E 81E 81E 81E 81E 81E 81E 1E 1E 91E 91E 91E 91E 91E 91E 91E 91E 91E 91E 91E 91E 91E 91E 91E 91E 91E 91E 91E 91E 91E 91E 91E 91E 91E 91E 91E 91E 91E 91E 91E 91E 91E 91E 91E 91E 91E 91E 91E 91E 91E 91E 91E 91E 91E 91E 91E 91E 91E 91E 91E 91E 91E 91E 91E 91E 91E 91E 91E 91E 916E 916E 916E 16E 16E 16E 16E 16;E 16;E 16;E 16;E 6;E 6;E 6;E 6;E 6;E 6;E 6;E 6;E 6;E 6;E 6;E 6;E 6;E 6;E 6;E 6;E 6;E 6;E 6;E 6;E 6;E 6;E 6;E 6;E 6;E 6;E 6;E 6;E 6;E 6;E 6;E 6;E 6;E 6;E 6;E 6;E 6;E 6;E 6;E 6;E 6;E 6;E 6;E 6;E 6;E 6;E 6;E 6;4E ;4E ;4E ;4E ;4E ;4E ;4E ;4E ;4E ;4E ;4E 4E 4E 4=E 4=E 4=E 4=E 4=E 4=E 4=E 4=E 4=E 4=E 4=E 4=E 4=E 4=E 4=E 4=E 4=E 4=E 4=E 4=E 4=E 4=E 4=E 4=E 4=E 4=E 4=E 4=E 4=E 4=E 4=E 4=E 4=E 4=E 4=E 4=E 4=E 4=E 4=E 4=E 4=>E 4=>E 4=>E 4=>E 4=>E 4=>2E =>2E >2E >2E >2E >2E >2E >2E >2E >2E >2E >2E >2E >2E >2E >2E >2E >2E >2E >2E >2E >2E >2E >2E >2E >2E >2E >2E >2E >2E >2E >2E >2E >2E >2E >2E >2E >2E >2E >2E >2E >2E 2E 2E 2E 2E 2E 2E 2E 2E 2E 2E 2E 2E 2E 2E 1E 1E 1E 1E 1E 1E 1E 1E 1E 1E 1E@ 1E@ 1E@ 1E@ 1E@ 1E@ 1E@ 1E@ 1E@ 1E@ 1E@ 1E@ 1E@ 1E@ 1E@ 1E@ 1E@ 1E@ 1E@ 1E@ 1E@ 1E@ 1E@ 1E@ 1E@ 1E@ 1E@ 1E@ 1E@ 1E@ 1E@ 1E@ 1E@ 1E@ 1E@ 1E@ 1E@ 1E@ 1E@ 1E@ 1E@ 1E@ 1E@ 1E@ 1E@ 1E@ 1E@ 1E@ 1E@ 1E@ 1E@ 1E@ 1E@ 1/E@ /E@ /E@ /E@ /E@ /E@ /E@ /E@ /E@ /E@ /E@ /E@ /E@ /E@ /E@ /E@ /E@ /E@ /E@ /E@ /E@ /E@ /E@ /E@ /E@ /E@ /E@ /E@ /E@ /E@ /E@ /E@ /E@ /E@ /E@ /E@ /E@ /E@ /E@ /E@ /E@ /E@ /E@ /E@ /E@ /E@ /E@ /E@ /E@ /E@ /E@ /E@ /E@ /E@ /E@ /E@ /E@ /E@ /E@ /1E@ /1E@ /1E@ /1E@ /1E@ 1E@ 1E@ 1E@ 1E@ 1E@ 1E@ 1E@ 1E@ 1E@ 1E@ 1E@ 1E@ 1E@ 1E@ 1E@ 1E@ 1E@ 1E@ 1E@ 1E@ 1E@ 1E@ 1E@ 1E@ 1E@ 1E@ 1E@ 1E@ 1E@ 1E@ 1E@ 1E@ 1E@ 1E@ 1E@ 1E@ 1E@ 1E@ 1E@ 1E@ 1E@ 1E@ 1E@ 1E@ 1E@ 1E@ 1E@ 1E@ 1E@ 1E@ E@ E@ E-@ E-@ E-@ E-@ E-@ E-@ E-@ E-@ E-@ E-@ E-@ E-@ E-@ E-@ -@ -@ -@ -@ -@ -@ -@ -@ -@ -@ -@ -@ -@ -@ -@ -@ -@ -@ -@ -@ -@ -@ -@ -@ -@ -@ -@ -@ -@ -@ -@ -@ -@ -@ -@ -@ -@ -@ -@ -@ -@ -@ -@ -@ -@ -@6 -@6 -@6 -@6 @6 @6 @6 @6E @6E @6E @6E @6E @6E @6E @6E @6E @6E @6E @6E @6E @6E @6E @6E @6E @6E @6E @6E @6E @6E @6E @6E @6E @6E @6E @6E @6E @6E @6E @6E @6E @6E @6E @6E @6E @6E @6E @6E @6E @6E @6E @6E @6E @6E @6E @6E @6E @6E @6E @6E @6E @6E @6E @6E @6E @6E @6E @6E 6E 6E 6E 6E 96E 96E 96E 96E 96E 96E 96E 96E 96E 96E 96E 96E 96E 96E 96E 96E 96E 96E 96E 96E 96E 96E 96E 96E 96E 96E 96E 96E 96E 96E 96E 96E 96E 96E 96E 96E 96E 96E 96E 96E 96E 96E 96E 96E 96E 96E 96E 96E 96E 96E 96E 96E 96E 96E 96E 96E 96E 9;6E 9;6E 9;6E 9;6E ;6E ;6E ;6E ;6E ;6E ;6E ;6E ;6E ;6E ;6E ;6E ;6E ;6E ;6E ;6E ;6E ;6E ;6E ;6E ;6E ;6E ;6E ;6E ;6E ;6E ;6E ;6E ;6E ;6E ;6E ;6E ;6E ;6E ;6E ;6E ;6E ;6E ;6E ;6E ;6E ;6E ;6E ;6E ;6E ;6E ;6E ;6E ;6E ;6E ;6E ;6E ;6E ;6E ;6E ;6E ;6E ;6E ;6E ;=6E ;=6E ;=6E =6E =6E =6E =6E =6E =6E =6E =6E =6E =6E =6E =6E =6E =6E =6E =6E =6E =6E =6E =6E =6E =6E =6E =6E =6E =6E =6E =6E =6E =6E =6E =6E =6E =6E =6E =6E =6E =6E =6E =6E =6E =6E =6E =6E =6E =6E =6E =6E =6E =6E =6E =6E =6E 6E 6E 6E 6E 6>E 6>E 6>E 6>E 6>E 6>E 6>E 6>E 6>E >E >E >E >E >E >E >E >E >E >E >E >E >E >E >E >E >E >E >E >E >E >E >E >E >E >E >E >E >E >E >E >E >E >E >E >E >E >E >E >E >E >E >E >E >E >E >E >E >E >E >E >E >E >;@E >;@E ;@E ;@E ;@E ;@E ;@E ;@E ;@E ;@E ;@E ;@E ;@E ;@E ;@E ;@E ;@E ;@E ;@E ;@E ;@E ;@E ;@E ;@E ;@E ;@E ;@E ;@E ;@E ;@E ;@E ;@E ;@E ;@E ;@E ;@E ;@E ;@E ;@E ;@E ;@E ;@E ;@E ;@E ;@E ;@E ;@E ;@E ;@E ;@E ;@E ;@E ;@E ;@E ;@E ;@E ;@E ;@E ;@E ;@9E ;@9BE @9BE 9BE 9BE 9BE 9BE 9BE 9BE 9BE 9BE 9BE 9BE 9BE 9BE 9BE 9BE 9BE 9BE 9BE 9BE 9BE 9BE 9BE 9BE 9BE 9BE 9BE 9BE 9BE 9BE 9BE 9BE 9BE 9BE 9BE 9BE 9BE 9BE 9BE 9BE 9BE 9BE 9BE 9BE 9BE 9BE 9BE 9BE 9BE 9BE 9BE 9BE 9BE 9B7E 9B7E 9B7E B7E 7E 7E 7E =7E =7E =7E =7E =7E =7E =7E =7E =7E =7E =7E =7E =7E =7E =7E =7E =7E =7E =7E =7E =7E =7E =7E =7E =7E =7E 7E 7E 7E 7E 7E 7E 7E 7E 7E 7E 7E 7E 7E 7E 7E 7E 7E 7E 7E 7E 7E 7E 7E 7E 7E 7E 7E 7E 7E 76E 6E 6E 6E 6E 6E 6E 6E 6E 6E 6E 6E 6>E 6>E 6>E 6>E 6>E 6>E 6>E 6>E 6>E 6>E 6>E 6>E 6>E 6>E 6>E 6>E 6>E 6>E 6>E 6>E 6>E 6>E 6>E 6>E 6>E 6>E 6>E 6>E 6>E 6>E 6>E 6>E 6>E 6>E 6>E 6>E 6>E 6>E 6>E 6>E 6>E 6>E 6>E 6>E 6>E 6>E 6>E 6>E 6>E 6>E 6>E 6>E 6>E 64>E 64>E 4>E 4>E 4>E 4>E 4>E 4>E 4>E 4>E 4>E 4>E 4>E 4>E 4>E 4>E 4>E 4>E 4>E 4>E 4>E 4>E 4>E 4>E 4>E 4>E 4>E 4>E 4>E 4>E 4>E 4>E 4>E 4>E 4>E 4>E 4>E 4>E 4>E 4>E 4>E 4>E 4>E 4>E 4>E 4>E 4>E 4>E 4>E 4>E 4>E 4>E 4>E 4>E 4>E 4>E 4>E 4>E 46>E 46>E 46>E 46>E 46>E 6>E 6>E 6>E 6>E 6>E 6>E 6B>E 6B>E 6B>E 6B>E 6B>E 6B>E 6B>E 6B>E 6B>E 6B>E 6B>E 6B>E 6B>E 6B>E 6B>E 6B>E 6B>E 6B>E 6B>E 6B>E 6B>E 6B>E 6B>E 6B>E 6B>E 6B>E 6B>E 6B>E 6B>E 6B>E 6B>E 6B>E 6B>E 6B>E 6B>E 6B>E 6B>E 6B>E 6B>E 6B>E 6B>E 6B>E 6B>E 6B>E 6B>E 6B>E 6B>E 6B>E B2>E B2>E B2>E B2>E B2>E B2>E B2>E B2>E B2>E B2>E B2>E B2>E B2>E B2>E B2>E B2>E B2>E B2>E B2>E B2>E B2>E B2>E B2>E B2>E B2>E B2>E B2>E B2>E B2>E B2>E B2>E B2>E B2>E B2>E B2>E B2>E B2>E B2>E B2>E B2>E B2>E B2>E B2>E B2>E B2>E B2>E B2>E B2>E B2>E B2>E B2>E B2>E B2>E B2>E B2>E B2>E B2>E B2>E B2>E B2>E B2>E B2>E B2>E B2>E B2>E B2>E9 2>E9 >E9 >E9 >E9 >E9 >E9 >E9 >E9 >E9 >E9 >E9 >E9 >E9 >E9 >E9 >E9 >E9 >E9 >E9 >E9 >E9 >E9 >E9 >E9 >E9 >E9 >E9 E9 E9 E9 E9 E9 E9 E9 E9 E9 E9 E9 E9 E9 E9 E9 E9 E9 E9 E9 E9 E9 E9 E9 E9 E9 E9 E9 E9 E9 E9 E9 E9 E9 E9 E9 E9 E9 E9 E9 BE9 BE9 BE9 BE9 BE9 BE9 BE9 BE9 BE9 BE9 BE9 BE9 BE9 BE9 BE9 BE9 BE9 BE9 BE9 BE9 BE9 BE9 BE9 BE9 BE9 BE9 BE9 BE9 BE9 BE9 BE9 BE9 BE9 BE9 BE9 BE9 BE9 BE9 BE9 BE9 BE9 BE9 BE9 BE9 BE9 BE9 BE9 BE9 BE9 BE9 BE9 BE9 BE9 BE9 BE9 BE9 BE9 BE9 BE9 BE9 BE9 BE9 BE9 BE9 BE9 B@E9 @E9 @E9 @E9 @E9 @E9 @E9 @E9 @E9 @E9 @E9 @E9 @E9 @E9 @E9 @E9 @E9 @E9 @E9 @E9 @E9 @E9 @E9 @E9 @E9 @E9 @E9 @E9 @E9 @E9 @E9 @E9 @E9 @E9 @E9 @E9 @E9 @E9 @E9 @E9 @E9 @E9 @E9 @E9 @E9 @E9 @E9 @E9 @E9 @E9 @E9 @E9 @E9 @E9 @E9 @E9 @E9 @E9 @E9 @E9 @E9 @E9 @>E9 @>E9 @>E9 >E9 >E9 >E9 >E9 >E9 >E9 >E9 >E9 >E9 >E9 >E9 >E9 >E9 >E9 >E9 >E9 >E9 >E9 >E9 >E9 >E9 >E9 >E9 >E9 >E9 >E9 >E9 >E9 >E9 >E9 >E9 >E9 >E9 >E9 >E9 >E9 >E9 >E9 >E9 >E9 >E9 >E9 >E9 >E9 >E9 >E9 >E9 >E9 >E9 >E9 >E9 >E9 >E9 >E9 >E9 >E9 >E9 >E9 >E9 >E9 >E9 >E9 E9 E9 E9 E@9 E@9 E@9 E@9 E@9 E@9 E@9 E@9 E@9 E@9 E@9 E@9 E@9 E@9 E@9 E@9 E@9 E@9 E@9 E@9 E@9 E@9 E@9 E@9 E@9 E@9 E@9 E@9 E@9 E@9 E@9 E@9 E@9 E@9 E@9 E@9 E@9 E@9 E@9 E@9 E@9 E@9 E@9 E@9 E@9 E@9 E@9 E@9 E@9 E@9 E@9 E@9 E@9 E@9 E@9 E@9 E@9 E@9 E@9 E@9 >E@9 >E@9 >E@9 >E@9 >E@9 >E@9 >E@9 >E@9 >E@9 >E@9 >E@9 >E@9 >E@9 >E@9 >E@9 >E@9 >E@9 >E@9 >E@9 >E@9 >E@9 >E@9 >E@9 >E@9 >E@9 >E@9 >E@9 >E@9 >E@9 >E@9 >E@9 >E@9 >E@9 >E@9 >E@9 >E@9 >E@9 >E@9 >E@9 >E@9 >E@9 >E@9 >E@9 >E@9 >E@9 >E@9 >E@9 >E@9 >E@9 >E@9 >E@9 >E@9 >E@9 >E@9 >E@9 >E@9 >E@9 >E@9 >E@9 >=E@9 =E@9 =E@9 =E@9 =E@9 =E@9 =E@9 =E@9 =E@9 =E@9 =E@9 =E@9 =E@9 =E@9 =E@9 =E@9 =E@9 =E@9 =E@9 =E@9 =E@9 =E@9 =E@9 =E@9 =E@9 =E@9 =E@9 =E@9 =E@9 =E@9 =E@9 =E@9 =E@9 =E@9 =E@9 =E@9 =E@9 =E@9 =E@9 =E@9 =E@9 =E@9 =E@9 =E@9 =E@9 =E@9 =E@9 =E@9 =E@9 =E@9 =E@9 =E@9 =E@9 =E@9 =E@9 E@9 E@9 E@9 E@9 ;E@9 ;E@9 ;E@9 ;E@9 ;E@9 ;E@9 ;E@9 ;E@9 ;E@9 ;E@9 ;E@9 ;E@9 ;E@9 ;E@9 ;E@9 ;E@9 ;E@9 ;E@9 ;E@9 ;E@9 ;E@9 ;E@9 ;E@9 ;E@9 ;E@9 ;E@9 ;E@9 ;E@9 ;E@9 ;E@9 ;E@9 ;E@9 ;E@9 ;E@9 ;E@9 ;E@9 ;E@9 ;E@9 ;E@9 ;E@9 ;E@9 ;E@9 ;E@9 ;E@9 ;E@9 ;E@9 ;E@9 ;E@9 ;E@9 ;E@9 ;E@9 ;E@9 ;E@9 ;E@9 ;E@9 ;E@9 ;E@9 ;E@9 ;E@9 ;E@9 ;E@9 ;E@9 ;E@9 ;E@9 ;E@9 E=@9 E=@9 E=@9 E=@9 E=@9 E=@9 E=@9 E=@9 E=@9 E=@9 E=@9 E=@9 E=@9 E=@9 E=@9 E=@9 E=@9 E=@9 E=@9 E=@9 E=@9 E=@9 E=@9 E=@9 E=@9 E=@9 E=@9 E=@9 E=@9 E=@9 E=@9 E=@9 E=@9 E=@9 E=@9 =@9 =@9 =@9 =@9 =@9 =@9 =@9 =@9 =@9 =@9 =@9 =@9 =@9 =@9 =@9 =@9 =@9 =@9 =@9 =@9 =@9 =@9 =@9 =@9 =@L9 =@L9 =@L9 =@L9 =@L9 =@L9 =@L9 =@L9 =@L9 =@L9 =@L9 =@L9 =@L9 =@L9 =@L9 @L9 @L9 @L9 @L9 @L9 @L9 @L9 @L9 @L9 @L9 @L9 @L9 @L9 @L9 @L9 @L9 @L9 @L9 @L9 @L9 @L9 @L9 @L9 @L9 @L9 @L9 @L9 @L9 @L9 @L9 @L9 @L9 @L9 @L9 L9 L9 L9 L9 L9 L9 L9 L9 L9 L9D L9D L9D L9D L9D L9D 9D 9D 9D 9D 9D 9D 9D 9D 9D 9D 9D 9D 9D 9D 9D 9D 9D 9D 9D 9D 9D 9D 9D 9D 9D 9D 9D 9D 9D 9D 9D 9D 9D 9D 9D 9D 9D 9D 9D 9D 9D 9D D D D D D D D D DJ DJ DJ J J J J J J J J J J J J J J J J J J J J J J J J J J J J J J J J J                          9 9 9 9 9 9 9I 9I 9I 9I 9I 9I 9I 9I 9I 9I 9I 9I 9I 9I 9I 9I 9I 9I 9I 9I 9I 9I 9I 9I 9I 9I 9I 9I 9I 9I 9I 9I 9I 9I 9I 9I 9I 9I 9I 9I 9I 9I 9I 9I 9I 9I 9I 9I 9I 9I 9I 9I 9I 9I 9I 9I 9I D9I D9I D9I D9I D9I D9I D9I D9I D9I D9I D9I D9I D9I D9I D9I D9I D9I D9I D9I D9I D9I D9I D9I D9I D9I D9I D9I D9I D9I D9I D9I D9I D9I D9I D9I D9I D9I 9I 9I 9I 9I 9I 9I 9I 9I 9I 9I 9I 9I 9I 9I 9I 9I 9I 9I 9I 9I 9I 9I 9I 9I 9I 9I 9I 9I 9I 9EI 9EI 9EI 9EI 9EI 9EI 9EI 9EI 9EI 9EI 9EI 9EI 9EI 9EI 9EI 9EI 9EI 9EI 9EI 9EI 9EI 9EI 9EI 9EI 9EI 9EI 9EI 9EI 9EI 9EI 9EI 9EI 9EI 9EI 9EI 9EI 9EI 9EI 9EI 9EI 9EI 9EI 9EI 9EI 9EI 9EI 9EI 9EI 9EI 9EI 9EI 9EI 9EI 9EI 9EI 9EI 9EI 9EI 9EI @9EI @9EI @9EI @9EI @9EI @9EI @9EI @9EI @9EI @9EI @9EI @9EI @9EI @9EI @9EI @9EI @9EI @9EI @9EI @9EI @9EI @9EI @9EI @9EI @9EI @9EI @9EI @9EI @9EI @9EI @9EI @9EI @9EI @9EI @9EI @9EI @9EI @9EI @9EI @9EI @9EI @9EI @9EI @9EI @9EI @9EI @9EI @9EI 9EI 9EI 9EI 9EI 9EI 9EI 9EI 9EI 9EI 9EI 9E=I 9E=I E=I E=I E=I E=I E=I E=I E=I E=I E=I =I =I =I =I =I =I =I =I =I =I =I =I =I =I =I =I =I =I =I =I =I =I =I =I =I =I =I =I =I =I =I =I =I =I =I =I =I =I =I =I =I I I I 9I 9I 9I 9I 9I 9I 9I 9I 9I 9I 9I 9I 9I 9I 9I 9I 9I 9I 9I 9I 9I 9I 9I 9I 9I 9I 9I 9I 9I 9I 9I 9I 9I 9I 9I 9I 9I 9I 9I 9I 9I 9I 9I 9I 9I 9I 9I 9I 9I 9I 9I 9I 9I 9I 9I 9I 9I 9I 9I 9@I @I @I @I @I @I @I @I @I @I @I @I @I @I @I @I @I @I @I @I @I @I @I @I @I @I @I @I @I @I @I @I @I @I @I @I @I @I @I @I @I @I @I @I @I @I @I I I I I I I I I I I I 8I 8I 8I 8I 8I 8I 8I 8I 8I 8I 8I 8I 8I 8I 8I 8I 8I 8I 8I 8I 8I 8I 8I 8I 8I 8I 8I 8I 8I 8I 8I 8I 8I 8I 8I 8I 8I 8I 8I 8I 8I I I I I I I I I I I I I I I I I I I I I I9 I9 I9 I9 I9 I9 I9 I9 I9 I9 I9 I9 I9 I9 I9 I9 I9 I9 I9 I9 I9 I9 I9 I9 I9 I9 I9 I9 I9 I9 I9 I9 I9 I9 I9 I9 I9 I9 I9 I9 I9 I9 I9 I9 I9 I9 I9 I9 I9 I9 I9 I9 I9 I9 I9 I9 I9 I9 I9 4I9 4I9 4I9 4I9 4I9 4I9 4I9 4I9 4I9 4I9 4I9 4I9 4I9 4I9 4I9 4I9 4I9 4I9 4I9 4I9 4I9 4I9 4I9 4I9 4I9 4I9 4I9 4I9 4I9 4I9 4I9 4I9 4I9 4I9 4I9 4I9 4I9 4I9 4I9 4I9 4I9 4I9 4I9 4I9 4I9 4I9 4I9 4I9 4I9 4I9 4I9 4I9 4I9 4I9 4I9 4I9 4I9 4I9 4I9 4I19 4I19 4I19 4I19 4I19 4I19 4I19 4I19 I19 I19 I19 I19 I19 I19 I19 I19 I19 I19 I19 I19 I19 I19 I19 19 19 19 19 19 19 19 19 19 19 19 19 19 19 19 19 19 19 19 19 19 19 19 19 19 19 19 19 19 19 19 19 19 19 19 19 19 19 194 94 94 94 94 94 94 94 94 94 94 94 94 94 94 94 94 94 94 94 94 94 94 94 94 94 94 94 94 94 94 94 94 94 94 94 94 94 94 94 94 94 94 94 94 94 94 94 94 94 94 94 94 94 94= 94= 94= 4= = = = = = = = = = --= --= --= --= --= --= --= --= --= --= --= --= --= --= --= --= --= --= --= --= --= --= --= --= --= --= --= --= --= --= --= --= --= -= -= -= -= -= -= -= -= -= -= -= -= -= -= -= -= @-= @-= @-= @-= @-= @-= @-= @-= @-= @-= @-= @-= @-= @-= @-= @-= @-= @-= @-= @-= @-= @-= @-= @-= @-= @-= @-= @-= @-= @-= @-= @-= @-= @-= @-= @-= @-= @-= @-= @-= @-= @-= @-= @-= @-= @-= @-= @-= @-= @-= @-= @-= @-= @-= @-= @-= @-= @-= @-= @-= @-= @-= @E-= @E-= @E-= @E-= E-= E-= E-= E-= E-= E-= E-= E-= E-= E-= E-= E-= E-= E-= E-= E-= E-= E-= E-= E-= E-= E-= E-= E-= E-= E-= E-= E-= E-= E-= E-= E-= E-= E-= E-= E-= E-= E-= E-= E-= E-= E-= E-= E-= E-= E-= E-= E-= E-= E-= E-= E-= E-= E-= -= -D= -D= -D= -D= -D= -D= -D= -D= -D= -D= -D= -D= -D= -D= -D= -D= -D= -D= -D= -D= -D= -D= -D= -D= -D= -D= -D= D= D= D= D= D= D= D= D= D= D= D= D= D= D= D= D= D= D= D= D= D= D= D= D= D= = = = = = =E =E =E =E =E =E =E =E =E =E =E =E =E =E =E =E =E =E =E =E =E =E =E =E =E =E =E =E =E =E =E =E =E =E =E =E =E =E =E =E =E =E =E =E =E =E =E =E =E =E =E =E =E =E =E =E =E =E =E =E =E =E 6=E 6=E 6=E 6=E 6=E 6=E 6=E 6=E 6=E 6=E 6=E 6=E 6=E 6=E 6=E 6=E 6=E 6=E 6=E 6=E 6=E 6=E 6=E 6=E 6=E 6=E 6=E 6=E 6=E 6=E 6=E 6=E 6=E 6=E 6=E 6=E 6=E 6=E 6=E 6=E 6=E 6=E 6=E 6=E 6=E 6=E 6=E 6=E 6=E 6=E 6=E 6=E 6=E 6=E 6;=E 6;=E 6;=E 6;=E 6;=E 6;=E 6;=E 6;=E 6;=E ;=E ;=E ;=E ;=E ;=E ;=E ;=E ;=E ;=E ;=E ;=E ;=E ;=E ;=E ;=E ;=E ;=E ;=E ;=E ;=E ;=E ;=E ;=E ;=E ;=E ;=E ;=E ;=E ;=E ;=E ;=E ;=E ;=E ;=E ;=E ;=E ;=E ;=E ;=E ;=E ;=E ;=E ;=E ;=E ;=E =E =9E =9E =9E =9E =9E =9E =9E =9E =9E =9E =9E =9E =9E =9E =9E =9E =9E =9E =9E =9E =9E =9E =9E =9E =9E =9E =9E =9E =9E =9E =9E =9E =9E =9E =9E =9E =9E =9E =9E =9E =9E =9E =9E =9E =9E =9E =9E =9E =9E =9E =9E =9E =9E =9E =9E =9E =9E =9E =9E =9E 9E 9E; E; E; E; E; E; E; E; E; E; E; E; E; E; E; E; E; E;? E;? E;? E;? E;? E;? ;? ;? ;? ;? ;? ;? ;? ;? ;? ;? ;? ;? ;? ;? ;? ;? ;? ;? ? ? ? ? ? ? ? ? ? ? ? ? ? ? ? ? ? ? ? ? ? ? ? ? ? ? ? ? ? ? ? ? ? ? ? B? B? B? B? B? B? B? B? B? B? B? B? B? B? B? B? B? B? B? B? B? B? B? B? B? B? B? B? B? B? B? B? B? B? B? B? B? B? B? B? B? B? B? B? B? B? B? B? B? B? B? B? B?/ B?/ B?/ B?/ B?/ B?/ B?G/ B?G/ B?G/ ?G/ ?G/ ?G/ ?G/ ?G/ ?G/ ?G/ ?G/ ?G/ ?G/ ?G/ ?G/ ?G/ ?G/ ?G/ ?G/ ?G/ ?G/ ?G/ ?G/ ?G/ ?G/ ?G/ ?G/ ?G/ ?G/ ?G/ ?G/ ?G/ ?G/ ?G/ ?G/ ?G/ ?G/ ?G/ ?G/ ?G/ ?G/ ?G/ ?G/ ?G/ ?G/ ?G/ ?G/ ?G/ ?G/ ?G/ ?G/ ?G/ ?G/ ?G/ ?G/ ?G/E ?G/E ?G/E ?G/E ?G/E G/E /E /E /E /E /E /E /E E E E E E E E E E E E E E E E E E E E E E E E E E E E E E E E E E E E E E E E E E E E E D D4 D4 D4 D4@ D4@ D4@ D4@ D4@ D4@ D4@ D4@ D4@ D4@ D4@ D4@ D4@ D4@ D4@ D4@ D4@ D4@ D4@ D4@ D4@ D4@ D4@ D4@ D4@ D4@ D4@ 4@ 4@ 4@ 4@ 4@ 4@ 4@ 4@ 4@ 4@ 4@ 4@ 4@ 4@ 4@ 4@ 4@ 4@ 4@ 4@ 4@ 4@ 4@ 4@ 4@ 4@ 4@ 4@ 4@ 4@ 4@ 4@ 4@ 4G@ 4G@ 4G@ 4G@ 4G@ 4G@ 4G@ 4G@ 4G@ 4G@ 4G@ 4G@ 4G@ 4G@ 4G@ 4G@ 4G@ 4G@ 4G@ G@ G@ G@ G@ G@ G@ G@ G@ G@ G@ G@ G@ @ @ @ @ @ @ @ @ @ @ @ @ @ @ @ @ @ @ @ (@ (@ (@ (@ (@ (@ (@ (@ (@ (@ (@ (@ (L@ (L@ (L@ (L@ (L@ (L@ (L@ (L@ (L@ (L@ (L@ (L@ (L@ (L@ (L@ (L@ (L@ (L@ (L@ (L@ (L@ (L@ (L@ (L@ (L@ (L@ (L@ (L@ (L@ (L@ (L@ (L@ (L@ (L@ (L@ (L@ L@ L@ L@ L@ L@ L@ L@ L@ L@ L@ L@ L@ L@ L@ L@ L@ L@ L@ L@ L@ LK@ K@ K@ K@ K@ K@ K@ K@ K@ K@ K@ K@ K@ K@ K@ K@ K@ K@ K@ K@ K@ K@ K@ K@ K@ K@ K@ K@ K@ K@ K@ K@ K@ K@ K@ K@ K@ K@ K@ K@ K@ K@ K@ K@ K@ K@ K@ K@ K@ K@ K@ K@ K@ K@ K@ K@ K@ K@ K@ K@ K@ K@ K@L K@L K@L K@L K@L K@L @L @L @L @L @L @L @L @L @L @L @L @L @L @L @L @L @L @L @L @L @L @L @L @L @L @L @L @L @L @L @L @L @L @L @L @L @L @L @L @L @L @L @L @L @L @L @L @L @L 8@L 8@L 8@L 8@L 8@L 8@L 8@L 8@L 8@L 8@L 8@L 8@L 8@L 8@L 8@L 8@L 8@L 8@L 8@L 8@L 8@L 8@L 8@L 8@L 8@L 8@L 8@L 8@L 8@L 8@L 8@L 8@L 8@L 8@L 8@L 8@L 8@L 8@L 8@L 8@L 8@L 8@L 8@L 8@L 8@L 8@L 8@L 8@L 8@L 8@L 8@L 8@L 8@L 8@L 8@L 8@L 8@L 8@L @L =@L =@L =@L =@L =@L =@L =@L =@L =@L =@L =@L =@L =@L =@L =@L =@L =@L =@L =@L =@L =@L =@L =@L =@L =@L =@L =@L =@L =@L =@L =@L =@L =@L =@L =@L =@L =@L =@L =@L =@L =@L =@L =@L =@L =@L =@L =@L =@L =@L =@L =@L @L @L @L @L @L @L @L <@L <@L <@L <@L <@L <@L <@L <@L <@L <@L <@L <@L <@L <@L <@L <@L <@L @L @L @L @L @L @L @L @L @L @L @L @L L L L L L L L L L L L L L L L L L L L L L L L L L L L L L L L L L L L L L L= L@= L@= L@= L@= L@= L@= L@= L@= L@= L@= L@= L@= L@= L@= L@= L@= L@= L@= L@= L@= L@= L@= L@= L@= L@= L@= L@= L@= L@= @= @= @= @= @= @= @= @= @= @= @= @= @= @= @= @= @= @= @= @= @= @= @= @= @= @= @= @= @= @= @= @= @= @= @= @= @= @= @= I@= I@= I@= I@= I@= I@= I@= I@= I@= I@= I@= I@= I@= I@= I@= I@= I@= I@= I@= I@= I@= I@= I@= I@= I@= I@= I@= I@= I@= I@= I@= I@= I@= I@= I@= I@= I@= I@= I@= I@= I@= I@= I@= I@= I@= I@= I@= I@= I@= I@= I@= I@= I@= I@= I@= I@= I@= IQ@= IQ@= IQ@= IQ@= IQ@= Q@= Q@= Q@= Q@= Q@= Q@= Q@= Q@= Q@= Q@= Q@= Q@= Q@= Q@= Q@= Q@= Q@= Q@= Q@= Q@= Q@= Q@= Q@= Q@= Q@= Q@= Q@= Q@= Q@= Q@= Q@= Q@= Q@= Q@= Q@= Q@= Q@= Q@= Q@= Q@= Q@= Q@= Q@= Q@= Q@= Q@= Q@= Q@= Q@= QP@= QP@= QP@= QP@= P@= P@= P@= P@= P@= P@= P@= P@= P@= P@= P@= P@= P@= P@= P@= P@= P@= P@= P@= P@= P@= P@= P@= P@= P@= P@= P@= P@= P@= P@= P@= P@= P@= P@= P@= P@= P@= P@= P@= P@= P@= P@= P@= P@= P@= P@= @= @= @= @= @= @= @= @= @= @= @= @= @= @=QB @=QB @=QB @=QB @=QB @=QB =QB QB QB QB QB QB QB QB QB QB QB QB QB QB QB QB QB QB QB QB QB QB QB QB QB QB QB QB QB QB QB QB QB QB QB QB QB QB QB QB QB QB QB QB QB QB QB QB QB QB QB QB Q=B Q=B Q=B Q=B Q=B Q=B Q=B Q=B Q=B Q=B Q=B Q=B Q=B Q=B Q=B =B =B =B =B =B =B =B =B =B =B =B =B =B =B =B =B =B =B =B =B =B =B =B =B =B =B =B =B =B =B =B =B =B =B =B =B =B =B =B =B =B =B =B =<B <B <B <B <B <B <B <B <KB <KB <KB <KB <KB <KB <KB <KB <KB <KB <KB <KB <KB <KB <KB <KB <KB <KB <KB <KB <KB <KB <KB <KB <KB <KB <KB <KB <KB <KB <KB <KB <KB <KB <KB <KB <KB <KB <KB <KB <KB <KB <KB <KB <KB <KB <KB <KB <KB <KB <KB <KB <KB <KB <K:B K:B K:B K:B K:B K:B K:B K:B K:B K:B K:B K:B K:B K:B K:B K:B K:B K:B K:B K:B K:B K:B K:B K:B K:B K:B K:B K:B K:B K:B K:B K:B K:B K:B K:B K:B K:B K:B K:B K:B K:B K:B K:B K:B K:B K:B K:B K:B K:B K:B K:B K:B K:B K:B K:B K:B K:B K:B B B <B <B <B <B <B <B <B <B <B <B <B <B <B <B <B <B <B <B <B <B <B <B <B <B <B <B <B <B <B <B <B <B <B <B <B <B <B <B <B <B <B <B <B <B <B <B <B <B <B <B <B <B <B <B <B <B <B <B <B <B <B <B <B <B <B <B <B <B <B <B <B <B <B <B <B <B <B <B <B <B <B <B <B <B <B <B <B <B <B <B <B <B <B <B <B <B <B <B <B <B <B <B <B <B <B <B <B <B <B <B <B <B <B <B <B <B <B <B K<B K<B K<B K<B K<B K<B K<B K<B K<B K<B K<B K<B K<B K<B K<B K<B K<B K<B K<B K<B K<B K<B K<B K<B K<B K<B K<B K<B K<B K<B K<B K<B K<B K<B K<B K<B K<B K<B K<B K<B K<B K<B K<B <B <B <B <B <B <B <B <B <B <B <B <B <B <B <B <B I<B I<B I<B I<B I<B I<B I<B I<B I<B I<B I<B I<B I<B I<B I<B I<B <B <B <B <B <B <B <B <B <B <B <B <B <B <B <B <B <B <B <B <B <B <B <B <B <B <B <B <B <B <B <B <B <B <B <B <B <B <B <B <B <B <B <B <B <BK <BK <BK <BK <BK <BK <BK <BK <BK <BK <BK <BK <BK <BK <BK <BK <BK <BK <BK BK BK BK BK BK BK BK BK BK BK BK BK BK BK BK BK BK BK BK BK BK BK BK BK BK BK BK BK BK BK BK BK BK BK BK BK 8BK 8BK 8BK 8BK 8BK 8BK 8BK 8BK 8BK 8BK 8BK 8BK 8BK 8BK 8BK 8BK 8BK 8BK 8BK 8BK 8BK 8BK 8BK 8BK 8BK 8BK 8BK 8BK 8BK 8BK 8BK 8BK 8BK 8BK 8BK 8BK 8BK 8BK 8BK 8BK 8BK 8BK 8BK 8BK 8BK 8BK 8BK 8BK 8BK 8BK 8BK 8BK 8BK 8BK 8BK 8BK 8BK 8BK 8BK 8BK 8=BK =BK =BK =BK =BK =BK =BK =BK =BK =BK =BK =BK =BK =BK =BK =BK =BK =BK =BK =BK =BK =BK =BK =BK =BK =BK =BK =BK =BK =BK =BK =BK =BK =BK =BK =BK =BK =BK =BK =BK =BK =BK =BK =BK =BK =BK =BK =BK =BK =BK =BK =BK =BK =BK =B<K =B<K B<K B<K B<K B<K B<K B<K B<K B<K B<K B<K B<K B<K B<K B<K B<K B<K B<K B<K B<K B<K B<K B<K B<K B<K B<K B<K B<K B<K B<K B<K B<K B<K B<K B<K B<K B<K B<K B<K B<K B<K B<K B<K B<K B<K B<K B<K B<K B<K B<K B<K B<K B<K B<K B<K B<K B<K B<K B<K <K <K K K K= K=@ K=@ K=@ K=@ K=@ K=@ K=@ K=@ K=@ K=@ K=@ K=@ K=@ =@ =@ =@ =@ =@ =@ =@ =@ =@ =@ =@ =@ =@ =@ =@ =@ =@ =@ =@ =@ =@ =@ =@ =@ =@ =@ =@ =@ =@ =@ =@ =@ =@ =@ =@ =@ =@ =@ =@ =@ =@ =@ =@ =@ =@ =@ =@ =@ =@ =@ =@ =@ =@ =@ =@ =@ =@ =@ =@ D=@ D=@ D=@ D=@ D=@ D=@ D=@ D=@ D=@ D=@ D=@ D=@ D=@ D=@ D=@ D=@ D=@ D=@ D=@ D=@ D=@ D=@ D=@ D=@ D=@ D=@ D=@ D=@ D=@ D=@ D=@ D=@ D=@ D=@ D=@ D=@ D=@ D=@ D=@ D=@ D=@ D=@ D=@ D=@ D=@ D=@ D=@ D=@ D=@ D=@ D=@ D=@ D=@ D=@ D=@ D=@ D=@ D=@ DI=@ DI=@ DI=@ I=@ I=@ I=@ I=@ I=@ I=@ I=@ I=@ I=@ I=@ I=@ I=@ I=@ I=@ I=@ I=@ I=@ I=@ I=@ I=@ I=@ =@ =@ =@ =@ =@ =@ =@ =@ =@ =@ =@ =@ =@ =@ =@ =@ =@ =@ =@ =@ =@ =@ =@ =@ =@ =@ =@ =@ =@ =@ =@ =@ =@ H=@ H=@ H=@ H=@ H=@ H=@ H=@ H=@ H=@ H=@ H=@ H=@ H=@ H=@ H=@ H=@ H=@ H=@ H=@ H=@ =@ =@ =@ =@ =@ =@ =@ =@ =@ =@ =@ =@ =@ =@ =@ =@ =@ =@ =@ =@ =@ =@ =@ =@ =@ =@ =@ =@ =@ =@ =@ =@ =@ @ @ @ @ @ @ @ @ @ @ @I @I @I @I @I @I @I @I @I @I @I @I @I @I @I @I @I @I @I @I @I @I @I @I @I @I @I @I @I @I @I @I @I @I @I @I @I @I @I @I @I @I @I @I @I @I @I @I @I @I @I @I 4@I 4@I 4@I 4@I 4@I 4@I 4@I 4@I 4@I 4@I 4@I 4@I 4@I 4@I 4@I 4@I 4@I 4@I 4@I 4@I 4@I 4@I 4@I 4@I 4@I 4@I 4@I 4@I 4@I 4@I 4@I 4@I 4@I 4@I 4@I 4@I 4@I 4@I 4@I 4@I 4@I 4@I 4@I 4@I 4@I 4@I 4@I 4@I 4@I 4@I 4@I 4@I 4@I 4@I 4@I 4@I 4@I 4@I 4@I 4@I 4@I 49@I 49@I 49@I 49@I 9@I 9@I 9@I 9@I 9@I 9@I 9@I 9@I 9@I 9@I 9@I 9@I 9@I 9@I 9@I 9@I 9@I 9@I 9@I 9@I 9@I 9@I 9@I 9@I 9@I 9@I 9@I 9@I 9@I 9@I 9@I 9@I 9@I 9@I 9@I 9@I 9@I 9@I 9@I 9@I 9@I 9@I 9@I 9@I 9@I 9@I 9@I 9@I 9@I 9@8I 9@8I @8I @8I @8I @8I @8I 8I 8I 8I 8I 8I 8I 8I 8I 8I 8I 8I 8I 8I 8I 8I 8I 8I 8I 8I 8I 8I 8I 8I 8I 8I 8I 8I 8I 8I 8I 8I 8I 8I 8I 8I 8I 8I 8I 8I 8I 8I 8I 8I 8I 8I 8I 8I 8I 8I 8I 8I 8I 8I 8I 8I 8I I I I9 I9@ I9@ I9@ I9@ I9@ I9@ I9@ I9@ I9@ I9@ I9@ I9@ 9@ 9@ 9@ 9@ 9@ 9@ 9@ 9@ 9@ 9@ 9@ 9@ 9@ 9@ 9@ 9@ 9@ 9@ 9@ 9@ 9@ 9@ 9@ 9@ 9@ 9@ 9@ 9@ 9@ 9@ 9@ 9@ 9@ 9@ 9@ 9@ 9@ 9@ 9@ 9@ 9@ 9@ 9@ 9@ 9@ 9@ 9@ 9@ 9@ 9@ 9@ 9@ 9@ 9@ 9@ 9@ 9@ 9@ 9@ 9@ 9@ 9E@ 9E@ 9E@ 9E@ 9E@ 9E@ 9E@ 9E@ 9E@ 9E@ 9E@ 9E@ 9E@ 9E@ 9E@ 9E@ 9E@ 9E@ 9E@ 9E@ 9E@ 9E@ 9E@ 9E@ 9E@ 9E@ 9E@ 9E@ 9E@ 9E@ 9E@ 9E@ 9E@ 9E@ 9E@ 9E@ 9E@ 9E@ 9E@ 9E@ 9E@ 9E@ 9E@ 9E@ 9E@ 9E@ 9E@ 9E@ 9E@ 9E@ 9E@ 9E@ 9E@ 9E@8 9E@8 9E@8 9E@8 EI@8 EI@8 EI@8 EI@8 I@8 I@8 I@8 I@8 I@8 I@8 I@8 I@8 I@8 I@8 I@8 I@8 I@8 I@8 I@8 I@8 I@8 I@8 I@8 I@8 I@8 I@8 I@8 I@8 I@8 I@8 I@8 I@8 I@8 I@8 I@8 I@8 I@8 I@8 I@8 I@8 I@8 I@8 I@8 I@8 I@8 I@8 I@8 I@8 I@8 I@8 I@8 I@8 I@8 I@8 I@8 I@8 @8 @8 @8G 8G 8G 8G 8G 8G 8G 8G 8G 8G 8G 8G 8G 8G 8G 8G 8G 8G 8G 8G 8G 8G 8G 8G 8G 8G 8G 8G 8G 8G 8G 8G 8G 8G 8G 8G 8G 8G 8G 8G 8G 8G 8G 8G 8G 8G 8G 8G 8G 8G 8G 8G 8G 8G 8G 8G 8G9 8G9 8G9 8G69 8G69 G69 G69 G69 G69 G69 G69 G69 G69 GI69 I69 I69 I69 I69 I69 I69 I69 I69 I69 I69 I69 I69 I69 I69 I69 I69 I69 I69 I69 I69 I69 I69 I69 I69 I69 I69 I69 I69 I69 I69 I69 I69 I69 I69 I69 I69 I69 I69 I69 I69 I69 I69 I69 I69 I69 I69 I69 I69 I69 I69 I69 I69 I69 I69 I69 I69 I69 69 69 =69 =69 =69 =69 =69 =69 =69 =69 =69 =69 =69 =69 =69 =69 =69 =69 =69 =69 =69 =69 =69 =69 =69 =69 =69 =69 =69 =69 =69 =69 =69 =69 =69 =69 =69 =69 =69 =69 =69 =69 =69 =69 =69 69 69 9 9 9 9 49 49 49 49 49 49 49 49 49 B49 B49 B49 B49 B49 B49 B49 B49 B49 B49 B49 B49 B49 B49 B49 B49 B49 B49 B49 B49 B49 B49 B49 B49 B49 B49 B49 B49 B49 B49 B49 B49 B49 B49 B49 B49 B49 B49 B49 B49 B49 B49 B49 B49 B49 B49 B49 B49 B49 B49 B49 B49 B49 B49 49 49 49 49 4@9 4@9 4@9 4@9 4@9 4@9 4@9 4@9 4@9 4@9 4@9 4@9 4@9 4@9 4@9 4@9 4@9 4@9 4@9 4@9 4@9 4@9 4@9 4@9 4@9 4@9 4@9 4@9 4@9 4@9 4@9 4@9 4@9 4@9 4@9 4@9 4@9 4@9 4@9 4@9 4@9 4@9 4@9 4@9 4@9 4@9 4@9 4@9 4@9 4@9 4@9 4@29 4@29 4@29 4@29 4@29 @29 @29 @29 @29 @29 @B29 B29 B29 B29 B29 B29 B29 B29 B29 B29 B29 B29 B29 B29 B29 B29 B29 B29 B29 B29 B29 B29 B29 B29 B29 B29 B29 B29 B29 B29 B29 B29 B29 B29 B29 B29 B29 B29 B29 B29 B29 B29 B29 B29 B29 B29 B29 B29 B29 B29 B29 B29 B29 B29 B29 B29 B29 B29 B29 B29 29 29 29 >29 >29 >29 >29 >29 >29 >29 >29 >29 >29 >29 >29 >29 >29 >29 >29 >29 >29 >29 >29 >29 >29 >29 >29 >29 >29 >29 >29 >29 >29 >29 >29 >29 >29 >29 >29 29 29 29 29 29 29 291 291 291 291 91 91 91 91 91 91 91 91 91 91 91 91 D91 D91 D91 D91 D91 D91 D91 D91 D91 D91 D91 D91 D91 D91 D91 D91 D91 D91 D91 D91 D91 D91 D91 D91 D91 D91 D91 D91 D91 D91 D91 D91 D91 D91 D91 D91 D91 D91 D91 D91 D91 D91 D91 D91 D91 D91 D91 D91 D91 D91 D91 D91 D91 D91 D91 91 91 91B 91B 91B 91B 91B 91B 91B 91B 91B 91B 91B 91B 91B 91B 91B 91B 91B 91B 91B 91B 91B 91B 91B 91B 91B 91B 91B 91B 91B 91B 91B 91B 91B 91B 91B 91B 91B 91B 91B 91B 91B 91B 1B/ 1B/ B/ B/ B/ B/; B/; B/; B/; B/; B/; B/; B/; B/; /; /; /; D/; D/; D/; D/; D/; D/; D/; D/; D/; D/; D/; D/; D/; D/; D/; D/; D/; D/; D/; D/; D/; D/; D/; D/; D/; D/; D/; D/; D/; D/; D/; D/; D/; D/; D/; D/; D/; D/; D/; D/; D/; D/; D/; D/; D/; D/; D/; D/; D/; D/; D/; D/; D/; D/; D/; D/; D/; /; /; /; /; />; />; />; />; />; />; />; />; />; />; />; />; />; />; />; />; />; />; />; />; />; />; />; />; />; />; />; />; />; />; />; />; />; />; />; />; />; />; />; />; />; />; />; />; />; />; />; />; />; />;4 />;4 />;4 >;4 >;4 ;4 ;4 ;4 ;4 ;4 E;4 E;4 E;4 E;4 E;4 E;4 E;4 E;4 E;4 E;4 E;4 E;4 E;4 E;4 E;4 E;4 E;4 E;4 E;4 E;4 E;4 E;4 E;4 E;4 E;4 E;4 E;4 E;4 E;4 E;4 E;4 E;4 E;4 E;4 E;4 E;4 E;4 E;4 E;4 E;4 E;4 E;4 E;4 E;4 E;4 E;4 E;4 E;4 E;4 E;4 E;4 E;4 ED;4 ED;4 D;4 D;4 D;4 D;4 D;4 D;4 D;4 D;4 D;4 D;4 D;4 D;4 D;4 D;4 D;4 ;4 ;4 ;4 ;4 ;4 ;4 ;4 ;4 ;4 ;4 ;4 ;4 ;4 ;4 ;4 ;4 ;4 ;4 ;4 ;4 ;4 ;4 ;4 ;4 ;4 ;4 ;4 ;4 ;4 ;4 ;4 ;4 ;4 ;4 ;4 ;4 4 4 4 4 4 4 4 4 4- 4- 4- 4-E= 4-E= 4-E= 4-E= 4-E= 4-E= 4-E= 4-E= -E= -E= -E= -E= -E= -E= -E= -E= -E= -E= -E= -E= -E= -E= -E= -E= -E= -E= -E= -E= -E= -E= -E= -E= -E= -E= -E= -E= -E= -E= -E= -E= -E= -E= -E= -E= -E= -E= -E= -E= -E= -E= -E= -E= -E= -E= -E= -E= -E= -E= -E= -4E= -4E= -4E= 4E= 4E= 4E= 4E= 4E= 4E= 4E= 4E= 4E= 4E= 4E= 4E= 4E= 4E= 4E= 4E= 4E= 4E= 4E= 4E= 4E= 4E= 4E= 4E= 4E= 4E= 4E= 4E= 4E= 4E= 4E= 4E= 4E= 4E= 4E= 4E= 4E= 4E= 4E= 4E= 4E= 4E= 4E= 4E= 4E= 4E= 4E= 4E= 4E= 4E= 4E= 4E= 4E= 4E= 4E= 4E= 4E= 4E= 4E= EI9= EI9= I9= I9= I9= I9= I9= I9= I9= I9= I9= I9= I9= I9= I9= I9= I9= I9= I9= I9= I9= I9= I9= I9= I9= I9= I9= I9= I9= I9= I9= I9= I9= I9= I9= I9= I9= I9= I9= I9= I9= I9= I9= I9= I9= I9= I9= I9= I9= I9= 9= 9= 9= 9= 9= 9= 9= 9= 98= 98= 98G= 98G= 98G= 98G= 98G= 8G= 8G= 8G= 8G= 8G= 8G= 8G= 8G= 8G= 8G= 8G= 8G= 8G= 8G= 8G= 8G= 8G= 8G= 8G= 8G= 8G= 8G= 8G= 8G= 8G= 8G= 8G= 8G= 8G= 8G= 8G= 8G= 8G= 8G= 8G= 8G= 8G= 8G= 8G= 8G= 8G= 8G= 8G= 8G= 8G= 8G= 8G= 8G= 8G= 8G= 8G= 8G= 8G= G=9 G=9 G=9 G=9 G=9 G=9 G=9I G=9I G=9I =9I =9I =9I =9I =9I =9I =9I =9I =9I =9I =9I =9I =9I =9I =9I =9I =9I =9I =9I =9I =9I =9I =9I =9I =9I =9I =9I =9I =9I =9I =9I =9I =9I =9I =9I =9I =9I =9I =9I =9I =9I =9I =9I =9I =9I =9I =9I 9I 9I 9I 91I 91I 1I 1I 1I 1I 1I 1I 1I 1I 1I 1I 1I 1I 1I 1I 1I 1I 1I 1I 1I 1I 1I 1I 1I 1I 1I 1I 1I 1I 1I 1I 1I 1I 1I 1I 1I 1I 1I 1I 1I 1I 1I 1I 1I 1I 1I 1I 1I 1I 1I 1I 1I 1I 1I 1I 1I 1I 1I 1I 1I 16I 16I 6I 6I 6I >6I >6I >6I >6I >6I >6I >6I >6I >6I >6I >6I >6I >6I >6I >6I >6I >6I >6I >6I >6I >6I >6I >6I >6I >6I >6I >6I >6I >6I >6I >6I >6I >6I >6I >6I >6I >6I >6I >6I >6I >6I >6I >6I >6I >6I 6I 6I I I I 4I 4I 4I 4I 4I 4I 4I 4I 4I 4I ==4I ==4I ==4I ==4I ==4I ==4I ==4I ==4I ==4I ==4I ==4I ==4I ==4I ==4I ==4I ==4I ==4I ==4I ==4I ==4I ==4I ==4I ==4I =4I =4I =4I =4I =4I =4I =4I =4I =4I =4I =4I =4I =4I =4I =4I =4I =4I =4I =4I =4I =4I 4I 4I 4I 4I 4I 4I 4I 4I 4I 4I 4I6 I6 I6 I6 I6 I6 I6 I6>> I6>> I6>> 6>> 6>> 6>> 6>> 6>> 6>> 6>> 6>> 6>> 6>> 6>> 6>> 6>> 6>> 6>> 6>> 6>> 6>> 6>> 6>> 6>> 6>> 6>> 6>> 6>> 6>> 6>> 6>> 6>> 6>> 6>> 6>> 6>> 6>> 6>> 6>> 6>> 6>> 6>> 6>> 6>> 6>> 6>> 6>> 6>> 6>> 6>> 6>> 6>> 6>> 6>> 6>> 6>> 6>> 6>> 6>> 6>> 6>> 6>> 6>> 6>> 6B>> 6B>> 6B>> 6B>> 6B>> 6B>> 6B>> 6B>> 6B>> 6B>> 6B>> 6B>> 6B>> 6B>> 6B>> 6B>> 6B>> 6B>> 6B>> 6B>> 6B>> 6B>> 6B>> 6B>> 6B>> 6B>> 6B>> 6B>> 6B>> 6B>> 6B>> 6B>> 6B>> 6B>> 6B>> 6B>> 6B>> 6B>> 6B>> 6B>> 6B>> 6B>> 6B>> 6B>> 6B>> 6B>> 6B>> 6B>> 6B>> 6B>> 6B>> 6B>> B>> B8>> B8>> 8>> 8>> 8>> G8>> G8>> G8>> G8>> G8>> G8>> G8>> G8>> G8>> G8>> G8>> G8>> G8>> G8>> G8>> G8>> G8>> G8>> G8>> G8>> G8>> G8>> G8>> G8>> G8>> G8>> G8>> G8>> G8>> G8>> G8>> G8>> G8>> G8>> G8>> G8>> G8>> G8>> G8>> G8>> G8>> G8>> G8>> G8>> G8>> G8>> G8>> G8>> G8>> G8>> G8>> G8>> G8>> G8>> G8>> G8>> G8>> 8>E> 8>E> 8>E> 8>E> 8>E> 8>E> 8>E> 8>E> 8>E> 8>E> 8>E> 8>E> 8>E> 8>E> 8>E> 8>E> 8>E> 8>E> 8>E> 8>E> 8>E> 8>E> 8>E> 8>E> 8>E> 8>E> 8>E> 8>E> 8>E> 8>E> 8>E> 8>E> 8>E> 8>E> 8>E> 8>E> 8>E> 8>E> 8>E> 8>E> 8>E> 8>E> 8>E> 8>E> 8>E> 8>E> 8>E> 8>E> 8>E> 8>E> 8>E> 8>E> 8>E> 8>E> 8>E> 8>E> 8>E> 8>E> 8>E> 8>E> >E>G= >E>G= >G9= >G9= >G9= >G9= >G9= G9= G9= G9= G9= G9= G9= G9= G9= G9= G9= G9= G9= G9= G9= G9= G9= G9= G9= G9= G9= G9= G9= G9= G9= G9= G9= G9= G9= G9= G9= G9= G9= G9= G9= G9= G9= G9= G9= G9= G9= G9= G9= G9= G9= G9= G9= G9= G9= G9= G9= G9= 9= 9= 9= 9@= 9@= 9@= 9@= 9@= 9@= 9@= 9@= 9@= 9@= 9@= 9@= 9@= 9@= 9@= 9@= 9@= 9@= 9@= 9@= 9@= 9@= 9@= 9@= 9@= 9@= 9@= 9@= 9@= 9@= 9@= 9@= 9@= 9@= 9@= 9@= 9@= 9@= 9@= 9@= 9@= 9@= 9@= 9@= 9@= 9@= 9@= 9@= 9@= 9@= 9@= 9@= 9@= 9@= 9@= 9@= 9@= 9@= 9@6= @E6= @E6= @E6= E6= E6= E6= E6= E6= E6= E6= E6= E6= E6= E6= E6= E6= E6= E6= E6= E6= E6= E6= E6= E6= E6= E6= E6= E6= E6= E6= E6= E6= E6= E6= E6= E6= E6= E6= E6= E6= E6= E6= E6= E6= E6= E6= E6= E6= E6= E6= E6= E6= E6= E6= E6= ED6= ED6= ED6= D6= D6= D6= D6= D6= D6= D6= D6= D6= D6= D6= D6= D6= D6= D6= D6= D6= D6= D6= D6= D6= D6= D6= D6= D6= D6= D6= D6= D6= D6= D6= D6= D6= D6= D6= D6= D6= D6= D6= D6= D6= D6= D6= D6= D6= D6= D6= D6= D6= D6= D6= D6= D6= D6= D6= 6=E 6=E 6=E 6=E 6=E2 6=E2; =E2; =E2; E2; E2; E2; E2; E2; E2; E2; E2; E2; E2; E2; E2; E2; E2; E2; E2; E2; E2; E2; E2; E2; E2; E2; E2; E2; E2; E2; E2; E2; E2; E2; E2; E2; E2; E2; E2; E2; E2; E2; E2; E2; E2; E2; E2; E2; E2; E2; E2; E2; E2; E2; E2; E2; E2; E2; 2; 2; B2; B2; B2; B2; B2; B2; B2; B2; B2; B2; B2; B2; B2; B2; B2; B2; B2; B2; B2; B2; 2; 2; 2; 2; 2; 2; 2; 2; 2; 2; 2; 2; 2; 2; 2; 2; 2; 2; 2; 2; 2; 2; 2; 2; 2; 2; 2; 2; 2; 2/; 2/; 2/; 2/; /; /; /; /; J/; J/; J/; J/; J/; J/; J/; J/; J/; J/; J/; J/; J/; J/; J/; J/; J/; J/; J/; J/; J/; J/; J/; J/; J/; J/; J/; J/; J/; J/; J/; J/; J/; J/; J/; J/; J/; J/; J/; J/; J/; J/; J/; J/; J/; J/; J/; J/; J/; J/; J/; J/; J/; J/; J/; J/; J/; J/; J/I; J/I; J/I; /I; /I; /I; /I; /I; /I; /I; /I; /I; /I; /I; /I; /I; /I; /I; /I; /I; /I; /I; /I; /I; /I; /I; /I; /I; /I; /I; /I; /I; /I; /I; /I; /I; /I; /I; /I; /I; /I; /I; /I; /I; /I; /I; /I; /I; /I; /I; /I; /I; /I; /I; /I4; /I4; /I4; I4; I4; I4; I4; I4; 4; 4; 4; 4; 4; 4; J4; J4; J4; J4; J4; J4; J4; J4; J4; J4; J4; J4; J4; J4; J4; J4; J4; J4; J4; J4; J4; J4; J4; J4; J4; J4; J4; J4; J4; J4; J4; J4; J4; J4; J4; J4; J4; J4; J4; J4; J4; J4; J4; J4; J4; J4; J4; J4; J4; J4; J4; J4; J4; J4; J4; J4; J4; J4; J4; J4; 4; 4; G4; G4; G4; G4; G4; G4; G4; G4; G4; G4; G4; G4; G4; G4; G4; G4; G4; G4; G4; G4; G4; G4; G4; G4; G4; G4; G4; G4; G4; G4; G4; G4; G4; G4; G4; G4; G4; G4; G4; 4; 4; 4; 4; 4; 4; 4; 4; 4; 4; 4; 4; 4; 42; 42; 42; 42; 42; 42; 2; 2; Q2; Q2; Q2; Q2; Q2; Q2; Q2; Q2; Q2; Q2; Q2; Q2; Q2; Q2; Q2; Q2; Q2; Q2; Q2; Q2; Q2; Q2; Q2; Q2; Q2; Q2; Q2; Q2; Q2; Q2; Q2; Q2; Q2; Q2; Q2; Q2; Q2; Q2; Q2; Q2; Q2; Q2; Q2; Q2; Q2; Q2; Q2; Q2; Q2; Q2; Q2; Q2; Q2; Q2; 2; P2; P2; P2; P2; P2; P2; P2; P2; P2; P2; P2; P2; P2; P2; P2; P2; P2; P2; P2; P2; P2; P2; P2; P2; P2; P2; P2; P2; P2; P2; P2; P2; P2; P2; P2; P2; P2; P2; P2; P2; P2; P2; P2; P2; P2; P2; P2; P2; P2; P2; P2; P2; P2; 2; 2; 2; 2; 2; 2; 2; 2;Q9 2;1Q9 2;1Q9 2;1Q9 2;1Q9 2;1Q9 ;1Q9 ;1Q9 1Q9 1Q9 1Q9 1Q9 1Q9 1Q9 1Q9 1Q9 1Q9 1Q9 1Q9 1Q9 1Q9 1Q9 1Q9 1Q9 1Q9 1Q9 1Q9 1Q9 1Q9 1Q9 1Q9 1Q9 1Q9 1Q9 1Q9 1Q9 1Q9 1Q9 1Q9 1Q9 1Q9 1Q9 1Q9 1Q9 1Q9 1Q9 1Q9 1Q9 1Q9 1Q9 1Q9 1Q9 1Q9 1Q9 1Q9 1Q9 1Q9 1Q9 1Q9 1Q9 1Q9 1Q9 1Q9 1Q9 1-Q9 -Q9 -Q9 -Q9 -Q9 -Q9 -Q9 -Q9 -Q9 -Q9 -Q9 -Q9 -Q9 -Q9 -Q9 -Q9 -Q9 -Q9 -Q9 -Q9 -Q9 -Q9 -Q9 -Q9 -Q9 -Q9 -Q9 -Q9 -Q9 -Q9 -Q9 -Q9 -Q9 -Q9 -Q9 -Q9 -Q9 -Q9 -Q9 -Q9 -Q9 -Q9 -Q9 -Q9 -Q9 -Q9 -Q9 -Q9 -Q9 -Q9 -Q9 -Q9 -Q9 -Q9 -Q9 -Q9 -Q9 -Q9 -Q9 6Q9 6Q9 6Q9 6Q9 6Q9 6Q9 6Q9 6Q9 6Q9 6Q9 6Q9 6Q9 6Q9 6Q9 6Q9 6Q9 6Q9 6Q9 6Q9 6Q9 6Q9 6Q9 6Q9 6Q9 6Q9 6Q9 6Q9 6Q9 6Q9 6Q9 6Q9 6Q9 6Q9 6Q9 6Q9 6Q9 6Q9 6Q9 6Q9 6Q9 6Q9 6Q9 6Q9 6Q9 6Q9 6Q9 6Q9 6Q9 6Q9 6Q9 6Q9 6Q9 6Q9 6Q9 Q9 Q9 Q9 4Q9 4Q9 4Q9 4Q9 4Q9 4Q9 4Q9 4Q9 4Q9 4Q9 4Q9 4Q9 4Q9 4Q9 4Q9 4Q9 4Q9 4Q9 4Q9 4Q9 4Q9 4Q9 4Q9 4Q9 4Q9 4Q9 4Q9 4Q9 4Q9 4Q9 4Q9 4Q9 4Q9 4Q9 4Q9 4Q9 4Q9 4Q9 4Q9 4Q9 4Q9 4Q9 4Q9 4Q9 4Q9 4Q9 4Q9 4Q9 4Q9 4Q9 4Q9 4Q9 4Q9 4Q9 4Q9 4Q9 4Q9 4Q9 4Q9 Q9 Q96 Q96 Q96 Q96 Q96 Q96 Q96 Q96 Q96 Q96 Q96 Q96 96 96 96 96 96 96 96 96 96 96 96 96 96 96 96 96 96 96 96 96 96 96 96 96 96 96 96 96 96 96 96 96 96 96 96 96 96 96 96 96 96 96 96 96 96 96 96 96 96 96 96 96 96 96 96 96 96 96 96 E96 E96 E96 E96 E96 E96 E96 E96 E96 E96 E96 E96 E96 E96 E96 E96 E96 E96 E96 E96 E96 E96 E96 E96 E96 E96 E96 E96 E96 E96 E96 E96 E96 E96 E96 E96 E96 E96 E96 E96 E96 E96 E96 E96 E96 E96 E96 E96 E96 E96 E96 E96 E96 E96 E96 E96 E96 E96 E96 E96 E96 EJ96 EJ96 EJ96 EJ96 EJ96 EJ96 EJ96 J96 J96 J96 J96 J96 J96 J96 J96 J96 J96 J96 J96 J96 J96 J96 J96 J96 J96 J96 J96 J96 J96 J96 J96 J96 J96 J96 J96 J96 J96 J96 J96 J96 J96 J96 J96 J96 J96 J96 J96 J96 J96 J96 J96 J96 J96 J96 J96 J96 J96 J96 J96 J96 J96 J96 J96 J96 JI96 I96 I96 I96 I96 I96 I96 I96 I96 I96 I96 I96 I96 I96 I96 I96 I96 I96 I96 I96 I96 I96 I96 96 96 96 96 96 96 96 96 96 96 96 96 96 96 96 96 96 96 96 96 96 96 96 96 96 96 96 96 96 96 96 96 96 96 96 6 6 6 6 6 6 6 6 6 6J 6J 6J 6J 6J 6J 6J 6J 6J 6J 6J 6J 6J 6J 6J 6J 6J 6J 6J 6J 6J 6J 6J 6J 6J 6J 6J 6J 6J 6J 6J 6J 6J 6J 6J 6J 6J 6J 6J 6J 6J 6J 6J 6J 6J 6J 6J 62J 2J 2J 2J 2J 2J 2J 2J 2J 2J 2J 2J 2J 2J 2J 2J 2J 2J 2J 2J 2J 2J 2J 2J 2J 2J 2J 2J 2J 2J 2J 2J 2J 2J 2J 2J 2J 2J 2J 2J 2J 2J 2J 2J 2J 2J 2J 2J 2J 2J 2J 2J 2J 2J 2J 2J 2J 2J 2J 2J 2J 2J 9J 9J 9J 9J 9J 9J 9J 9J 9J 9J 9J 9J 9J 9J 9J 9J 9J 9J 9J 9J 9J 9J 9J 9J 9J 9J 9J 9J 9J 9J 9J 9J 9J 9J 9J 9J 9J 9J 9J 9J 9J 9J 9J 9J 9J 9J 9J 9J 9J 9J 9J 9J 9J 9J 9J 9J 9J 9J 9J 98J 98J 8J 8J 8J 8J 8J 8J 8J 8J 8J 8J 8J 8J 8J 8J 8J 8J 8J 8J 8J 8J 8J 8J 8J 8J 8J 8J 8J 8J 8J J J J J J J J J J J J J J J J J J J J J J J J J J J J J J J J J J9 J9 J9 J9 J9 J9 J9 J9 9 9 9 9 9 9 9 9 9 9 9 9 9 9 9 9 9 9 9 9 9 9 9 9 9 9 9 9 9 9 9 9             @ @ @ @ @ @ @ @ ;@ ;@ ;@ ;@ ;@ ;@ ;@ ;@ ;@ ;@ ;@ ;@ ;@ ;@ ;@ ;@ ;@ ;@ ;@ ;@ ;@ ;@ ;@ ;@ ;@ ;@ ;@ ;@ ;@ ;@ ;@ ;@ ;@ ;@ ;@ ;@ ;@ ;@ ;@ ;@ ;@ ;@ ;@ ;@ ;@ ;@ ;@ ;@ ;@ ;@ ;@ ;@ ;@9 ;@9 ;@9I ;@9I ;@9I @9I 9I 9I 9I 9I 9I 9I 9I 9I 9I 9I 9I 9I 9I 9I 9I 9I 9I 9I 9I 9I 9I 9I 9I 9I 9I 9I 9I 9I 9I 9I 9I 9I 9I 9I 9I 9I 9I 9I 9I 9I 9I 9I 9I 9I 9I 9I 9I 9I8 9I8 I8 I8 I8 I8 I8 I8 I8 I8 8 8G 8G 8G 8G 8G 8G 8G 8G 8G 8G 8G 8G 8G 8G 8G 8G 8G 8G 8G 8G 8G 8G 8G 8G 8G 8G 8G 8G 8G 8G 8G 8G 8G 8G 8G 8G 8G 8G 8G 8G 8G 8G 8G 8G 8G 8G 8G 8G 8G G G G6 G6 G6 G6 G6 G6 G6 G6 G6 G6I G6I G6I G6I 6I 6I 6I 6I 6I 6I 6I 6I 6I 6I 6I 6I 6I 6I 6I 6I 6I 6I 6I 6I 6I 6I 6I 6I 6I 6I 6I 6I 6I 6I 6I 6I 6I 6I 6I 6I 6I I I I I I I I I I9 I9 I9 I9 I9 I9 I9 I9 I9 I9 I9 I9 9 9 >9 >9 >9 >9 >9 >9 >9 >9 >9 >9 >9 >9 >9 >9 >9 >9 >9 >9 >9 >9 >9 >9 >9 >9 >9 >9 >9 >9 >9 >9 >9 >9 >9 >9 >9 >9 >9 >9 >9 >9 >9 >9 >9 9 9 9 9 9 98 98 98 98 8 8 8 8 8 8 8 8G 8G 8G 8G 8G 8G 8G 8G 8G 8G 8G 8G 8G 8G 8G 8G 8G 8G 8G 8G 8G 8G 8G 8G 8G 8G 8G 8G 8G 8G 8G 8G 8G 8G 8G 8G 8G 8G 8G 8G 8G 8G 8G 8G 8G 8G 8G 8G 8G6 8G6 8G6 8G6 8G6 8G6 8G6 G6 G6 G6E G6E G6E 6E 6E 6E 6E 6E 6E 6E 6E 6E 6E 6E 6E 6E 6E 6E 6E 6E 6E 6E 6E 6E 6E 6E 6E 6E 6E 6E 6E 6E 6E 6E 6E 6E 6E 6E 6E 6E 6E 6E 6E 6E 6E 6E 6E 6E 6E 6E 6E 6E 6E4 6E4 6E4 6E4 E4 E4 E4 E4 E4 E4 E4G E4G E4G E4G E4G E4G 4G 4G 4G 4G 4G 4G 4G 4G 4G 4G 4G 4G 4G 4G 4G 4G 4G 4G 4G 4G 4G 4G 4G G G G G G G G G G G G G G G G G G G G G G G8 G8 G8 G8 G8 G8 G8 G=8 =8 =8 =8 =8 =8 =8 =8 =8 =8 =8 =8 =8 =8 =8 =8 =8 =8 =8 =8 =8 =8 =8 =8 =8 =8 =8 =8 8 8 8 8 8 8 8 8 8 8 8 8 8 8 8 8 86 6 6 6 6 6 6 6 6 6 6 6 6 6 6 6 6E 6E 6E 6E 6E 6E 6E 6E 6E 6E 6E 6E 6E 6E 6E 6E 6E 6E 6E 6E 6E 6E 6E 6E 6E 6E 6E 6E 6E 6E 6E 6E 6E 6E 6E 6E 6E 6E E E E4 E4 E4 E4 E4 E4 E4 E4 E4 E4 E4 E4 E4 E4 E4 E4 4 4 4D 4D 4D 4D 4D 4D 4D 4D 4D 4D 4D 4D 4D 4D 4D 4D 4D 4D 4D 4D 4D 4D 4D 4D 4D 4D 4D 4D 4D 4D 4D 4D 4D 4D 4D 4D 4D 4D 4D 4D 4D 4D 4D 4D D D D3 D3 D3 D3 D3 D3 D3 D3 D3 3 3 E3 E3 E3 E3 E3 E3 E3 E3 E3 E3 E3 E3 E3 E3 E3 E3 E3 E3 E3 E3 E3 E3 E3 E3 E3 E3 E3 E3 E3 E3 E3 E3 E3 E3 E3 E3 E3 E3 E3 E3 E3 E3 E3 E3 E3 E3 E3 E3 E3 E3 E3 E3 E3 E3 E3 E3 E3 E3 E3 3 3; 3; 3; 3; 3; 3; 3; 3; 3; 3; 3; 3; 3; 3; 3; 3; ; ; ; ; ; ; ; ; ; ; ; ; ; ; ; ; ; ; ; ; ; ; ; ; ; ; ; ; ; ; ; ; ; ; ; ; ; ; ;/ ;/ / / / / / / D/ D/ D/ D/ D/ D/ D/ D/ D/ D/ D/ D/ D/ D/ D/ D/ D/ D/ D/ D/ D/ D/ D/ D/ D/ D/ D/ D/ D/ D/ D/ D/ D/ D/ D/ D/ D/ D/ D/ D/ D/ D/ D/ D/ D/ D/ D/ D/ D/ D/ D/ D/ D/ D/ D/ D/ D/ D/ D/ D/B /B /B /B /B /B /B /B B B B B B B B B B B B B B B B B B B B B B B B B B B B B B B B B B B B B B B B B B B B B B B B4 B4 B4 B4 B4 4 D4 D4 D4 D4 D4 D4 D4 D4 D4 D4 D4 D4 D4 D4 D4 D4 D4 D4 D4 D4 D4 D4 D4 D4 D4 D4 D4 D4 D4 D4 D4 D4 D4 D4 D4 4 4 4 4 4 4 4 4 4 4 4 4 4 4 4 4 4 4 4 4 4 4 4 4 4 4 4 4 @4 @4 @4 @4 @4 @4 @4 @4 @4 @4 @4 @4 @4 @4 @4 @4 @4 @4 @4 @4 @4 @4 @4 @4 @4 @4 @4 @4 @4 @4 @4 @4 @4 @4 @4 @4 @4 @4 @4 @4 @4 @4 @4 @4 @4 @4 @4 @4 @4 @4 @4 @4 @4 @4 @4 @4 @4 @4 @D4 @D4 @D4 @D4 @D4 @D4 D4 D4 D4 D4 D4 D4 D4 D4 D4 D4 D4 D4 D4 D4 D4 D4 D4 D4 D4 D4 D4 D4 D4 D4 D4 D4 4 4 4 4 4 4 4 4 4 4 4 4 4 4 4 4 4 4 4 4 4 4 4 4 4 4 G4 G4 G4 G4 G4 G4 G4 G4 G4 G4 G4 G4 G4 G4 G4 G4 G4 G4 G4 G4 G4 G4 G4 G4 G4 G4 G4 G4 G4 G4 G4 G4 G4 G4 G4 G4 G4 G4 G4 G4 G4 G4 G4 4 4 4 4 4 4 4 4 4 4 4 4 4 4 4 4 4    L L L L L L L L L L L L L L L L L L L L L L L L L L L L L L L L L L L L L L L L L L L L L L L L L L L L L8 L8 L8 L8 L8 L8 L8 8 8 8 8 8 8 8 8 8 8 8 8 8 8 8 8 8 8 8 8 8 8 8 8 8 8 8 8 8 8 8 8 8 8 8 8 8 8 8 8 8 8 8 8 8 8 8 8 8 8 8 8  = = = = = = = = = = = = =@ =@ =@ =@ =@ =@ =@ =@ =@ =@ =@ =@ =@ =@ =@ =@ =@ =@ =@ =@ =@ =@ =@ =@ =@ =@ =@ =@ =@ =@ =@ =@ =@ =@ =@ =@ =@ =@ =@ =@ =@ =@ =@ =@ =@ =@ @ @ @; @; @; @; @; @; @; @; @; @; @; @; @; @; @; @; @; @; @; @; @; @; @; @; ; ; ; ; ; ; ; ; ; ; ; ; ; ; ; ; ; ; ; ; ; ; ; ; ; ; ; ; ; ; ; ; ; ; ; ; ; = = = = = = = = = = = = = = = = = = = = =B =B =B =B =B =B =B =B =B =B =B =B =B =B =B =B =B =B =B =B =B =B =B =B =B =B =B =B =B =B =B =B =B =B B B B B B B B B B B2 B2 B2 B2 B2 B2 B2 B2 B2 2 2 2 2 2 2 E2 E2 E2 E2 E2 E2 E2 E2 E2 E2 E2 E2 E2 E2 E2 E2 E2 E2 E2 E2 E2 E2 E2 2 2 2 2 2 2 2 2 2 2 2 2 2 2 2 2 2 2 2 2 2 2 2 2; 2; 2; ; ; ; ; ; ; ; ; ; ; ; ;J ;J ;J ;J ;J ;J ;J ;J ;J ;J ;J ;J ;J ;J ;J ;J ;J ;J ;J ;J ;J ;J ;J ;J ;J ;J ;J ;J ;J ;J ;J ;J ;J ;J ;J ;J ;J ;J ;J ;J ;J ;J ;J ;J ;J ;J ;J ;J9 J9 J9 J9 J9 J9 J9 J9 J9 J9 J9 J9 J9 J9 J9 J9 J9 J9 J9 J9 J9 J9 J9 J9 J9 J9 9 9 9 9 9 9 9 9 9 9 9 9 9 9 9 9 9 9 9 9 9 9 9 9 9 9 9 9 9 9 9 9 9 ; ; ; ; ; ; ; ; ; ; ; ; ; ; ; ; ; ; ; ;@ ;@ ;@ ;@ ;@ ;@ ;@ ;@ ;@ ;@ ;@ ;@ ;@ ;@ ;@ ;@ ;@ ;@ ;@ ;@ ;@ ;@ ;@ ;@ ;@ ;@ ;@ ;@ ;@ ;@ ;@ ;@ ;@ ;@ ;@ ;@ ;@ ;@ ;@ ;@ ;@ ;@ ;@ ;@ ;@ ;@1 ;@1 @1 @1 @1 @1 @1 @1 @1 @1 @1 @1 @1 @D1 @D1 @D1 @D1 @D1 @D1 @D1 D1 D1 D1 D1 D1 D1 D1 D1 D1 D1 D1 D1 D1 D1 D1 D1 D1 1 1 1 1 1 1 1 1 1 1 1 1 1 1 1 1 1 1 1 1 1 1 1   9 9 9 9 9 9 9 9 9 9 9 9 9 9I 9I 9I 9I 9I 9I 9I 9I 9I 9I 9I 9I 9I 9I 9I 9I 9I 9I 9I 9I 9I 9I 9I 9I 9I 9I 9I 9I 9I 9I 9I 9I 9I 9I 9I 9I 9I 9I 9I 9I 9I 9I 9I 9I 9I 9I 9I 9I 9I 9I8 I8 I8 I8 I8 I8 I8 I8 I8 I8 I8 I8 I8 I8 I8 I8 I8 8 8 8 8 8 8 8 8 8 8 8 8 8 8 8 8 8 8 8 8 8 8 8 8 8 8 8 8 8 8 8 8 8 8 8 8 8 8 8 8 8 8 8 89 9 9 9 9 9 9 9 9> 9> 9> 9> 9> 9> 9> 9> 9> 9> 9> 9> 9> 9> 9> 9> 9> 9> 9> 9> 9> 9> 9> 9> 9> 9> 9> 9> 9> 9> 9> 9> 9> 9> 9> 9> 9> 9> 9> 9> 9> 9> 9> 9> 9> 9> 9> 9> 9> 9> 9> >/ >/ >/ >/ >/ >/ >/ >B/ >B/ >B/ >B/ >B/ >B/ >B/ >B/ >B/ B/ B/ B/ B/ B/ B/ B/ B/ B/ B/ B/ B/ B/ B/ B/ B/ / / / / / / / / / / / / / / / / / / / / / / / / /    8 8 8 8 8 8 8 8 8 8 8 8 8G 8G 8G 8G 8G 8G 8G 8G 8G 8G 8G 8G 8G 8G 8G 8G 8G 8G 8G 8G 8G 8G 8G 8G 8G 8G 8G 8G 8G 8G 8G 8G 8G 8G 8G 8G 8G 8G 8G 8G 8G 8G 8G 8G 8G 8G 8G 8G 8G 8G G6 6 6 6 6 6 6 6 6 6 6 6 6 6 6 6 6 6 6 6 6 6 6 6 6 6 6 6 6 6 6 6 6 6 6 6 6 6 6 6 6 6 6 6 6 6 6 6 6 6 6 6 6 6 6 6 6 6 68 8 8 8 8 8 8 8= 8= 8= 8= 8= 8= 8= 8= 8= 8= 8= 8= 8= 8= 8= 8= 8= 8= 8= 8= 8= 8= 8= 8= 8= 8= 8= 8= 8= 8= 8= 8= 8= 8= 8= 8= 8= 8= 8= 8= 8= 8= 8= 8= 8= 8= 8= 8= 8= 8=- 8=- 8=- =- =- =- =- =- =- =-@ =-@ =-@ =-@ =-@ =-@ =-@ -@ -@ -@ -@ -@ -@ -@ -@ -@ -@ -@ -@ -@ -@ -@ -@ -@ -@ -@ -@ -@ -@ -@ -@ -@ -@ -@ -@ -@ -@ -@ -@ -@ -@ -@ -@ -@ -@ -@ -@ -@ -@ -@ -@ -@6 @6 @6 @6 @6 @6 @6 @6E 6E 6E 6E 6E 6E 6E 6E 6E 6E 6E 6E 6E 6E 6E 6E 6E 6E 6E 6E 6E 6E 6E 6E 6E 6E 6E 6E 6E 6E 6E 6E 6E 6E 6E 6E 6E 6E 6E 6E 6E 6E 6E 6E 6E 6E 6E 6E 6E 6E 6E E E4 E4 4 4 =4 =4 =4 =4 =4 =4 =4 =4 =4 =4 =4 =4 =4 =4 =4 =4 =4 =4 =4 =4 =4 =4 =4 =4 =4 =4 =4 =4 =4 =4 4 4 4 4 4 4 4 4 4 4 4 4 4 4 4 4 4 4 4 4 4 4 4 4 4 46 6 6 6 6 6 6 6 6> 6> 6> 6> 6> 6> 6> 6> 6> 6> 6> 6> 6> 6> 6> 6> 6> 6> 6> 6> 6> 6> 6> 6> 6> 6> 6> 6> 6> 6> 6> 6> 6> 6> 6> 6> 6> 6> 6> 6> 6> 6> 6> 6> 6> 6> 6> 6> 6> 6> 6> 6> 6>, 6>, >, >, >,; >,; ,; ,; ,; ,; ,; ,; ,; ,; ,; ,; ,; ,; ,; ,; ,; ,; ,; ,; ,; ,; ,; ,; ,; ,; ,; ,; ,; ,; ,; ,; ,; ,; ,; ,; ,; ,; ,; ,; ,; ,; ,; ,; ,; ,; ,; ,; ,; ,; ,; ,;4 ,;4 ,;4 ,;4 ,;4 ,;4 ;4 ;4 ;4 4 4 4D 4D 4D 4D 4D 4D 4D 4D 4D 4D 4D 4D 4D 4D 4D 4D 4D 4D 4D 4D 4D 4D 4D 4D 4D 4D 4D 4D 4D 4D 4D 4D 4D 4D 4D 4D 4D 4D 4D 4D 4D 4D 4D 4D 4D 4D 4D 4D 4D 4D 4D 4D 4D2 D2 D2 D2 2 2 2 2; 2; 2; 2; 2; 2; 2; 2; 2; 2; 2; 2; 2; 2; 2; 2; 2; 2; 2; 2; 2; 2; 2; 2; 2; 2; 2; 2; 2; 2; 2; 2; 2; 2; 2; 2; 2; 2; 2; 2; 2; 2; 2; 2; 2; 2; 2; 2; 2;4 ;4 ;4 ;4 ;4 ;4 ;4 ;4 ;4 ;4 ;4 ;4 4 4= 4= 4= 4= 4= 4= 4= 4= 4= 4= 4= 4= 4= 4= 4= 4= 4= 4= 4= 4= 4= 4= 4= 4= 4= 4= 4= 4= 4= 4= 4= 4= 4= 4= 4= 4= 4= 4= 4= 4= 4= 4= 4= 4= 4= 4= 4= 4= 4= 4= 4=* 4=* 4=* 4=* 4=* =* =* =* =*9 =*9 =*9 *9 *9 *9 *9 *9 *9 *9 *9 *9 *9 *9 *9 *9 *9 *9 *9 *9 *9 *9 *9 *9 *9 *9 *9 *9 *9 *9 *9 *9 *9 *9 *9 *9 *9 *9 *9 *9 *9 *9 *9 *9 *9 *9 *9 *9 *9 *9 *9 *9 *92 *92 92 92 92 2 2 B2 B2 B2 B2 B2 B2 B2 B2 B2 B2 B2 B2 B2 B2 B2 B2 B2 B2 B2 B2 B2 B2 B2 B2 B2 B2 B2 B2 B2 B2 B2 B2 B2 B2 B2 B2 B2 B2 B2 B2 B2 B2 B2 B2 B2 B2 B2 B2 B2 B2 B2 B2 B2 B2 B21 21 21 1 19 19 19 19 19 19 19 19 19 19 19 19 19 19 19 19 19 19 19 19 19 19 19 19 19 19 19 19 19 19 19 19 19 19 19 19 19 19 19 19 19 19 19 19 19 19 19 19 19 19 19 92 92 92 92 92 92 2 2 2; 2; 2; 2; 2; 2; 2; 2; 2; 2; 2; 2; 2; 2; 2; 2; 2; 2; 2; 2; 2; 2; 2; 2; 2; 2; 2; 2; 2; 2; 2; 2; 2; 2; 2; 2; 2; 2; 2; 2; 2; 2; 2; 2; 2; 2; 2; 2; 2; 2; 2; 2; 2;( 2;( ;( ;( ;( ;( ;( ;( ;( ;( ;8( ;8( ;8( ;8( ;8( ;8( ;8( 8( 8( 8( 8( 8( 8( 8( 8( 8( 8( 8( 8( 8( 8( 8( 8( 8( 8( 8( 8( 8( 8( 8( 8( 8( 8( 8( 8( 8( 8( ( ( ( ( ( ( ( ( ( ( ( ( ( ( (1 (1 1 1 1 1 1 1 1@ 1@ 1@ 1@ 1@ 1@ 1@ 1@ 1@ 1@ 1@ 1@ 1@ 1@ 1@ 1@ 1@ 1@ 1@ 1@ 1@ 1@ 1@ 1@ 1@ 1@ 1@ 1@ 1@ 1@ 1@ 1@ 1@ 1@ 1@ 1@ 1@ 1@ 1@ 1@ 1@ 1@ 1@ 1@ 1@ 1@ 1@ 1@ 1@ 1@ 1@ 1@ 1@ @ @ /@ /@ /@ /@ /@ /@ /@ /@ /@ /@ /@ /@ /@ /@ /@ /@ /@ /@ /@ /@ /@ /@ /@ /@ /@ /@ /@ /@ /@ /@ /@ /@ /@ /@ /@ /@ /@ /@ /@ /@ /@ /@ /@ /@ /@ /@ /@ /@ /@ /@ /@ /@ /@ /@ /@ /@ /@1 @1 @1 @1 1 1 1 1 1 1 1 1 1 1 1 1 1 1 1 1 1 1 1 1 1 1 1 1 1 1 1 1 1 1 1 1 1 1 1 1 1 1 1 1 1 1 1 1 1 1 1 1 1 1 1 1 1 1 1 1- - - - -= -= -= -= -= -= -= -= -= -= -= -= -= -= -= -= -= -= -= -= -= -= -= -= -= -= -= -= -= -= -= -= -= -= -= -= -= -= -= -= -= -= -= -= -= -= -= -= -= -= -= = = = =2 =2 =2 =2 2 2 2 2B 2B 2B 2B 2B 2B 2B 2B 2B 2B 2B 2B 2B 2B 2B 2B 2B 2B 2B 2B 2B 2B 2B 2B 2B 2B 2B 2B 2B 2B 2B 2B 2B 2B 2B 2B 2B 2B 2B 2B 2B 2B 2B 2B 2B 2B 2B 2B 2B B B1 B1 B1 B1 B1 B1 1 1 1 1 1@ 1@ 1@ 1@ 1@ 1@ 1@ 1@ 1@ 1@ 1@ 1@ 1@ 1@ 1@ 1@ 1@ 1@ 1@ 1@ 1@ 1@ 1@ 1@ 1@ 1@ 1@ 1@ 1@ 1@ 1@ 1@ 1@ 1@ 1@ 1@ 1@ 1@ 1@ 1@ 1@ 1@ 1@ 1@ 1@ 1@ @ @ @ @2 @2 @2 @2 @2 @2 2 2B 2B 2B 2B 2B 2B 2B 2B 2B 2B 2B 2B 2B 2B 2B 2B 2B 2B 2B 2B 2B 2B 2B 2B 2B 2B 2B 2B 2B 2B 2B 2B 2B 2B 2B 2B 2B 2B 2B 2B 2B 2B 2B 2B 2B 2B 2B 2B 2B 2B 2B/ 2B/ 2B/ 2B/ 2B/ B/ B/ B/ B/ B/ B/ / / / /> /> /> /> /> /> /> /> /> /> /> /> /> /> /> /> /> /> /> /> /> /> /> /> /> /> /> /> /> /> /> /> /> /> /> /> /> /> /> /> /> /> /> />4 />4 />4 >4 >4 >4 >4 >4 >4 >4 >4 >4 >4 >4 >4; >4; >4; 4; 4; 4; 4; 4; 4; 4; 4; 4; 4; 4; 4; 4; 4; 4; 4; 4; 4; 4; 4; 4; 4; 4; 4; 4; 4; 4; 4; 4; 4; 4; 4; 4; 4; 4; 4; 4; 4; 4; 4; 4; 4; 4;/ 4;/ 4;/ 4;/ 4;/ ;/ ;/ / / / / / / / /D /D /D /D /D /D /D /D /D /D /D /D /D /D /D /D /D /D /D /D /D /D /D /D /D /D /D /D /D /D /D /D /D /D /D /D /D /D /D /D /D /D /D /D /D /D /D /D /D /D1 /D1 /D1 /D1 /D1 /D1 /D1 D1 D1 D1 D1 D1 D1 1E 1E 1E 1E 1E 1E 1E 1E 1E 1E 1E 1E 1E 1E 1E 1E 1E 1E 1E 1E 1E 1E 1E 1E 1E 1E 1E 1E 1E 1E 1E 1E 1E 1E 1E 1E 1E 1E 1E 1E 1E 1E 1E 1E 1E 1E 1E 1E 1E 1E E   - - - - - - - - - - @- @- @- @- @- @- @- @- @- @- @- @- @- @- @- @- @- @- @- @- @- @- @- @- @- @- @- @- @- @- @- @- @- @- @- @- @- @- @- @- @- @- @- @- @- @- @- @-1 @-1 @-1 @-1 -1 -1 1 1 1 1 1E 1E 1E 1E 1E 1E 1E 1E 1E 1E 1E 1E 1E 1E 1E 1E 1E 1E 1E 1E 1E 1E 1E 1E 1E 1E 1E 1E 1E 1E 1E 1E 1E 1E 1E 1E 1E 1E 1E 1E 1E 1E 1E 1E 1E 1E 1E 1E 1E E4 E4 E4 E4 E4 E4 E4 E4 E4 E4G E4G E4G E4G E4G E4G 4G 4G 4G 4G 4G 4G 4G 4G 4G 4G 4G 4G 4G 4G 4G 4G 4G 4G 4G 4G 4G 4G 4G 4G 4G 4G 4G 4G 4G 4G 4G 4G 4G 4G 4G 4G 4G 4G 4G 4G 4G 4G 4G 4G G G G9 G9 G9 G9 G9 G9 G9I 9I 9I 9I 9I 9I 9I 9I 9I 9I 9I 9I 9I 9I 9I 9I 9I 9I 9I 9I 9I 9I 9I 9I 9I 9I 9I 9I 9I 9I 9I 9I 9I 9I 9I 9I 9I 9I 9I 9I 9I 9I 9I 9I 9I 9I 9I 9I 9I 9I 9I 9I6 9I6 9I6 9I6 9I6 I6 6 6 6E 6E 6E 6E 6E 6E 6E 6E 6E 6E 6E 6E 6E 6E 6E 6E 6E 6E 6E 6E 6E 6E 6E 6E 6E 6E 6E 6E 6E 6E 6E 6E 6E 6E 6E 6E 6E 6E 6E 6E 6E 6E 6E 6E 6E 6E 6E 6E 6E 6E 6E E E E; E; E; E; E; E; E;J E;J ;J ;J ;J ;J ;J ;J ;J ;J ;J ;J ;J ;J ;J ;J ;J ;J ;J ;J ;J ;J ;J ;J ;J ;J ;J ;J ;J ;J ;J ;J ;J ;J ;J ;J ;J ;J ;J ;J ;J ;J ;J ;J ;J ;J ;J ;J ;J ;J ;J9 J9 J9 J9 J9 J9 J9 J9 J9 9I 9I 9I 9I 9I 9I 9I 9I 9I 9I 9I 9I 9I 9I 9I 9I 9I 9I 9I 9I 9I 9I 9I 9I 9I 9I 9I 9I 9I 9I 9I 9I 9I 9I 9I 9I 9I 9I 9I 9I 9I 9I 9I 9I 9I 9I 9I 9I 9I 9I 9I I I; I; I; I; I; I; I; I; I; I; ;J ;J ;J ;J ;J ;J ;J ;J ;J ;J ;J ;J ;J ;J ;J ;J ;J ;J ;J ;J ;J ;J ;J ;J ;J ;J ;J ;J ;J ;J ;J ;J ;J ;J ;J ;J ;J ;J ;J ;J ;J ;J ;J ;J ;J ;J ;J ;J8 ;J8 ;J8 ;J8 ;J8 ;J8 ;J8 J8 J8 J8 J8 J8 J8 J8 J8 8 8 8 8G 8G 8G 8G 8G 8G 8G 8G 8G 8G 8G 8G 8G 8G 8G 8G 8G 8G 8G 8G 8G 8G 8G 8G 8G 8G 8G 8G 8G 8G 8G 8G 8G 8G 8G 8G 8G 8G 8G 8G 8G 8G 8G 8G 8G 8G 8G 8G4 8G4 8G4 G4 G4 G4 G4 G4 G4 G4 G4 GL4 L4 L4 L4 L4 L4 L4 L4 L4 L4 L4 L4 L4 L4 L4 L4 L4 L4 L4 L4 L4 L4 L4 L4 L4 L4 L4 L4 L4 L4 L4 L4 L4 L4 L4 L4 L4 L4 L4 L4 L4 L4 L4 L4 L4 L4 L4 L4 L4 L4 L48 L48 L48 48 48 4G8 4G8 4G8 4G8 4G8 4G8 4G8 4G8 4G8 G8 G8 G8 G8 G8 G8 G8 G8 G8 G8 G8 G8 8 8 8 8 8 8 8 8 8 8 8 8 8 8 8 8 8 8 8 8 8 8 8 8 8 8 8 8 8 8 8 8 8 8 8  9 9 9 9 9 9 9 9 9I 9I 9I 9I 9I 9I 9I 9I 9I 9I 9I 9I 9I 9I 9I 9I 9I 9I 9I 9I 9I 9I 9I 9I 9I 9I 9I 9I 9I 9I 9I 9I 9I 9I 9I 9I 9I 9I 9I 9I 9I 9I 9I 9I 9I 9I 9I 9I 9I 9I 9I 9I 9I 9I 9I 9I 9I 9I 9I 9I 9I 9I 9I D9I D9I D9I D9I D9I D9I D9I D9I D9I D9I D9I D9I D9I D9I D9I D9I D9I D9I D9I D9I D9I D9I D9I D9I D9I D9I D9I D9I D9I D9I D9I D9I D9I D9I D9I D9I D9I D9I D9I D9I D9I D9I D9I D9I D9I D9I D9I D9I D9I D9I D9I D9I D9I D9I D9I D9I D9I D9I D9I 9I 9I 9I 9EI 9EI 9EI 9EI 9EI 9EI 9EI 9EI 9EI 9EI 9EI 9EI 9EI 9EI 9EI 9EI 9EI 9EI 9EI 9EI 9EI 9EI 9EI 9EI 9EI 9EI 9EI 9EI 9EI 9EI 9EI 9EI 9EI 9EI 9EI 9EI 9EI 9EI 9EI 9EI 9EI 9EI 9EI 9EI 9EI 9EI 9EI 9EI 9EI 9EI 9EI 9EI 9EI 9EI 9EI 9EI 9@EI 9@EI 9@EI 9@EI 9@EI 9@EI 9@EI 9@EI 9@EI 9@EI 9@EI 9@EI 9@EI 9@EI 9@EI 9@EI 9@EI 9@EI 9@EI 9@EI 9@EI 9@EI 9@EI 9@EI 9@EI 9@EI 9@EI 9@EI 9@EI 9@EI 9@EI 9@EI 9@EI 9@EI 9@EI 9@EI 9@EI 9@EI 9@EI 9@EI 9@EI 9@EI 9@EI 9@EI 9@EI 9@EI 9@EI 9@EI 9@EI 9@EI 9@EI @EI @EI @EI @EI @EI EI EI EI EI =EI =EI =EI =EI =EI =EI =EI =EI =EI =EI =EI =EI =EI =EI =EI =EI =EI =EI =EI =EI =EI =EI =EI =EI =EI =EI =EI =EI =EI =EI =EI =EI =EI =EI =EI =EI =EI =EI =EI =EI =EI =EI =EI =EI =EI =EI =EI =EI =EI =EI =EI =EI =EI =EI =EI =EI =EI =9EI =9EI =9EI =9EI =9EI =9EI 9EI 9EI 9EI 9EI 9EI 9EI 9EI 9EI 9EI 9EI 9EI 9EI 9EI 9EI 9EI 9EI 9EI 9EI 9EI 9EI 9EI 9EI 9EI 9EI 9EI 9EI 9EI 9EI 9EI 9EI 9EI 9EI 9EI 9EI 9EI 9EI 9EI 9EI 9EI 9EI 9EI 9EI 9EI 9EI 9EI 9EI 9EI 9EI 9EI 9EI EI EI EI EI EI EI EI EI EI EI @EI @EI @EI @EI @EI @EI @EI @EI @EI @EI @EI @EI @EI @EI @EI @EI @EI @EI @EI @EI @EI @EI @EI @EI @EI @EI @EI @EI @EI @EI @EI @EI @EI @EI @EI @EI @EI @EI @EI @EI @EI @EI @EI @EI @EI @EI @EI @EI @EI @EI @EI @EI @EI @EI @EI @8EI @8EI @8EI @8EI @8EI @8EI @8EI @8EI @8EI 8EI 8EI 8EI 8EI 8EI 8EI 8EI 8EI 8EI 8EI 8EI 8EI 8EI 8EI 8EI 8EI 8EI 8EI 8EI 8EI 8EI 8EI 8EI 8EI 8EI 8EI 8EI 8EI 8EI 8EI 8EI 8EI 8EI 8EI 8EI 8EI 8EI 8EI 8EI 8EI 8EI 8EI 8EI 8EI 8EI 8EI 8EI 8EI 8EI 8EI EI EI EI EI EI EI EI EI EI9 EI9 EI9 EI9 EI9 I9 I9 9 9 9 9 9 9 9 9 9 9 9 9 9 9 9 9 9 9 9 9 9 9 9 9 9 9 9 9 9 9 9 9 9 9 9 9 9 9 9 9 9 9 9 9 9 9 9 9 9 9 9 9 9 9 9 9 9 9 9 49 49 49 49 49 49 49 49 49 49 49 49 49 49 49 49 49 49 49 49 49 49 49 49 49 49 49 49 49 49 49 49 49 49 49 49 49 49 49 49 49 49 49 49 49 49 49 49 49 49 49 49 49 49 49 49 49 49 49 49 419 419 419 419 419 419 419 419 419 19 19 19 19 19 19 19 19 19 19 19 19 19 19 19 19 19 19 19 19 19 19 19 19 19 19 19 19 19 19 19 19 19 19 19 19 19 19 19 19 19 19 19 19 19 19 19 19 19 19 19 19 149 49 49 49 49 49 49 49 49 49 49 49 49 49 49 49 49 49 49 49 49 49 49 49 49 49 49 49 49 49 49 49 49 49 49 49 49 49 49 49 49 49 49 49 49 49 49 49 49 49 49 49 49 49 49 49 49 49 49 49 49 49= 49-= 49-= 49-= 49-= 49-= 9-= 9-= -= -= -= -= -= -= -= -= -= -= -= -= -= -= -= -= -= -= -= -= -= -= -= -= -= -= -= -= -= -= -= -= -= -= -= -= -= -= -= -= -= -= -= -= -= -= -= -= -= -= -= @-= @-= @-= @-= @-= @-= @-= @-= @-= @-= @-= @-= @-= @-= @-= @-= @-= @-= @-= @-= @-= @-= @-= @-= @-= @-= @-= @-= @-= @-= @-= @-= @-= @-= @-= @-= @-= @-= @-= @-= @-= @-= @-= @-= @-= @-= @-= @-= @-= @-= @-= @-= @-= @-= @-= @-= @-= @-= @-= @-= @-= @-= @E-= @E-= E-= E-= E-= E-= E-= E-= E-= E-= E-= E-= E-= E-= E-= E-= E-= E-= E-= E-= E-= E-= E-= E-= E-= E-= E-= E-= E-= E-= E-= E-= E-= E-= E-= E-= E-= E-= E-= E-= E-= E-= E-= E-= E-= E-= E-= E-= E-= E-= -= -= -= -= -= -D= -D= -D= -D= -D= -D= -D= -D= -D= -D= -D= -D= -D= -D= -D= -D= -D= -D= -D= -D= -D= -D= -D= -D= -D= -D= -D= -D= -D= -D= -D= -D= -D= -D= -D= -D= -D= -D= -D= -D= -D= D= D= D= D= D= = = = = = = = = = = = = = = = = = = =E =E =E =E =E =E =E =E =E =E =E =E =E =E =E =E =E =E =E =E =E =E =E =E =E =E =E =E =E =E =E =E =E =E =E =E =E =E =E =E =E =E =E =E =E =E =E =E =E =E =E =E =E 6=E 6=E 6=E 6=E 6=E 6=E 6=E 6=E 6=E 6=E 6=E 6=E 6=E 6=E 6=E 6=E 6=E 6=E 6=E 6=E 6=E 6=E 6=E 6=E 6=E 6=E 6=E 6=E 6=E 6=E 6=E 6=E 6=E 6=E 6=E 6=E 6=E 6=E 6=E 6=E 6=E 6=E 6=E 6=E 6=E 6=E 6=E 6=E 6=E 6=E 6=E 6=E 6=E 6=E 6=E 6=E 6=E 6=E 6=E =E =;E =;E =;E =;E =;E =;E =;E =;E =;E =;E =;E =;E =;E =;E =;E =;E =;E =;E =;E =;E =;E =;E =;E =;E =;E =;E =;E =;E =;E =;E =;E =;E =;E =;E =;E =;E =;E =;E =;E =;E =;E =;E =;E =;E =;E =;E ;E ;E ;E ;E ;E ;E ;E ;E ;E ;E 9E 9E 9E 9E 9E 9E 9E 9E 9E 9E 9E 9E 9E 9E 9E 9E 9E 9E 9E 9E 9E 9E 9E 9E 9E 9E 9E 9E 9E 9E 9E 9E 9E 9E 9E 9E 9E 9E 9E 9E 9E 9E 9E 9E 9E 9E 9E 9E 9E 9E 9E 9E 9E 9E 9E 9E 9E 9E 9E ;E ;E ;E ;E ;E ;E ;E? ;E? ;E? ;E? ;E? ;E? ;E? ;E? ;E? ;E? ;E? ;E? ;E? ;E? ;E? ;E? ;E? ;E? ;E? ;E? ;E? ;E? ;E? ;E? ;E? ;E? ;E? ;E? ;E? ;E? ;E? ;E? ;E? ;E? ;E? ;E? ;E? ;E? ;E? ;E? ;E? ;E? ;E? ;E? ;E? ;E? ;E? ;E? ;E? ;E? ;E? ;E? ;E? ;E? ;E? ;E? ;E? ;E? E? E? E? EB? EB? B? B? B? B? B? B? B? B? B? B? B? B? B? B? B? B? B? B? B? B? B? B? B? B? B? B? B? B? B? B? B? B? B? B? B? B? B? B? B? B? B? B? B? B? B? B? B? B? B? B? B? B?/ B?/ B?G/ ?G/ ?G/ ?G/ ?G/ ?G/ ?G/ ?G/ ?G/ ?G/ ?G/ ?G/ ?G/ ?G/ ?G/ ?G/ ?G/ ?G/ ?G/ ?G/ ?G/ ?G/ ?G/ ?G/ ?G/ ?G/ ?G/ ?G/ ?G/ ?G/ ?G/ ?G/ ?G/ ?G/ ?G/ ?G/ ?G/ ?G/ ?G/ ?G/ ?G/ ?G/ ?G/ ?G/ ?G/ ?G/ ?G/ ?G/ ?G/ ?G/ ?G/ ?G/ ?G/ ?G/ ?G/ ?G/ ?G/E ?G/E ?G/E ?G/E ?G/E ?G/E ?G/E ?G/E /E /E /E /E E E E E E E E E E E E E E E E E E E E E E E E E E E E E E E E E E E E E E E E E E E E E E E E E E4 E4 E4 E4 4 D4 D4 D4@ D4@ D4@ D4@ D4@ D4@ D4@ D4@ D4@ D4@ D4@ D4@ D4@ D4@ D4@ D4@ D4@ D4@ D4@ D4@ D4@ D4@ D4@ D4@ D4@ D4@ 4@ 4@ 4@ 4@ 4@ 4@ 4@ 4@ 4@ 4@ 4@ 4@ 4@ 4@ 4@ 4@ 4@ 4@ 4@ 4@ 4@ 4@ 4@ 4@ 4@ 4@ 4@ 4@ 4@ 4@ 4@ 4@ 4G@ 4G@ 4G@ 4G@ 4G@ 4G@ 4G@ 4G@ 4G@ 4G@ G@ G@ G@ G@ G@ G@ G@ G@ G@ G@ G@ G@ G@ G@ G@ G@ G@ G@ G@ G@ G@ G@ G@ G@ G@ G@ G@ G@ G@ G@ G@ G@ G@ G@ G@ G@ G@ G@ G@ G@ G(@ G(@ G(@ G(@ G(@ G(@ G(@ G(@ G(@ G(@ G(@ G(@ G(L@ G(L@ G(L@ G(L@ G(L@ (L@ (L@ (L@ (L@ (L@ (L@ (L@ (L@ (L@ (L@ (L@ (L@ (L@ (L@ (L@ (L@ (L@ (L@ (L@ (L@ (L@ (L@ (L@ (L@ (L@ (L@ (L@ (L@ (L@ (L@ (L@ (L@ (L@ (L@ (L@ (L@ (L@ (L@ (L@ (L@ (L@ (L@ (L@ (L@ (L@ (L@ (L@ (L@ (L@ (L@ (L@ LK@ K@ K@ K@ K@ K@ K@ K@ K@ K@ K@ K@ K@ K@ K@ K@ K@ K@ K@ K@ @ @ @ @ @ @ @ @ @ @ @ @ @ @ @ @ @ @ @ @ @ @ @ @ @ @ @ @ @ @ @ @ @ @ @ @ @ @ @ @ @ @ @ @ @ @ @L @L @L @L @L @L @L @L @L @L @L @L @L @L @L @L @L @L @L @L @L @L @L @L @L @L @L @L @L @L @L @L @L @L @L @L @L @L @L @L @L @L @L @L @L @L @L @L @L @L @L @L 8@L 8@L 8@L 8@L 8@L 8@L 8@L 8@L 8@L 8@L 8@L 8@L 8@L 8@L 8@L 8@L 8@L 8@L 8@L 8@L 8@L 8@L 8@L 8@L 8@L 8@L 8@L 8@L 8@L 8@L 8@L 8@L 8@L 8@L 8@L 8@L 8@L 8@L 8@L 8@L 8@L 8@L 8@L 8@L 8@L 8@L 8@L 8@L 8@L 8@L 8@L 8@L 8@L 8@L 8@L 8@L 8=@L =@L =@L =@L =@L =@L =@L =@L =@L =@L =@L =@L =@L =@L =@L =@L =@L =@L =@L =@L =@L =@L =@L =@L =@L =@L =@L =@L =@L =@L =@L =@L @L @L @L @L @L @L @L @L @L @L @L @L @L @L @L @L @L @L @L @L @L @L @L @L L <L <L <L <L <L <L <L <L <L <L <L <L <L <L <L <L <L <L <L L L L L L L L L L L L L L L L L L L L L L L L L L L L L L L L L L L L L L L L L L L L@ L@ L@ L@= L@= L@= L@= L@= L@= L@= L@= L@= L@= L@= L@= L@= L@= L@= L@= L@= L@= L@= L@= L@= L@= L@= L@= L@= L@= L@= L@= L@= L@= L@= L@= L@= L@= L@= L@= L@= L@= L@= L@= L@= L@= L@= L@= L@= L@= L@= @= @= @= @= @= @= @= @= @= @= @= @= @= @= @= @= @= @= @= @= @= @= @= @= @= @= @= I@= I@= I@= I@= I@= I@= I@= I@= I@= I@= I@= I@= I@= I@= I@= I@= I@= I@= I@= I@= I@= I@= I@= I@= I@= I@= I@= I@= I@= I@= I@= I@= I@= I@= I@= I@= I@= I@= I@= I@= I@= I@= I@= I@= I@= I@= I@= I@= I@= I@= I@= I@= I@= I@= I@= I@= I@Q= @Q= @Q= @Q= @Q= @Q= @Q= @Q= @Q= @Q= @Q= @Q= @Q= @Q= @Q= @Q= @Q= @Q= @Q= @Q= @Q= @Q= @Q= @Q= @Q= @Q= @Q= @Q= @Q= @Q= @Q= @Q= @Q= @Q= @Q= @Q= @Q= @Q= @Q= @Q= @Q= @Q= @Q= @Q= @Q= @Q= @Q= @Q= @Q= @Q= @Q= @Q= Q= Q= Q= Q= Q= Q= QP= QP= QP= P= P= P= P= P= P= P= P= P= P= P= P= P= P= P= P= P= P= P= P= P= P= P= P= P= P= P= P= P= P= P= P= P= P= P= P= P= P= P= P= P= P= P= P= P= P= P= P= P= P= P= P= P= P= P= P= P=Q =QB =QB QB QB QB QB QB QB QB QB QB QB QB QB QB QB QB QB QB QB QB QB QB QB QB QB QB QB QB QB QB QB QB QB QB QB QB QB QB QB QB QB QB QB QB QB QB QB QB QB QB QB QB QB QB QB QB QB Q=B Q=B Q=B Q=B Q=B Q=B Q=B Q=B Q=B Q=B Q=B Q=B Q=B Q=B Q=B Q=B Q=B =B =B =B =B =B =B =B =B =B =B =B =B =B =B =B =B =B =B =B =B =B =B =B =B =B =B =B =B =B =B =B =B =B =B =B =B =B =B =B =<B =<B =<B =<B =<KB =<KB =<KB <KB <KB <KB <KB <KB <KB <KB <KB <KB <KB <KB <KB <KB <KB <KB <KB <KB <KB <KB <KB <KB <KB <KB <KB <KB <KB <KB <KB <KB <KB <KB <KB <KB <KB <KB <KB <KB <KB <KB <KB <KB <KB <KB <KB <KB <KB <KB <KB <KB <KB <KB <KB <KB <KB <KB :KB :KB :KB :KB :KB :KB :KB :KB :KB :KB :KB :KB :KB :KB :KB :KB :KB :KB :KB :KB :KB :KB :KB :KB :KB :KB :KB :KB :KB :KB :KB :KB :KB :KB :KB :KB :KB :KB :KB :KB :KB :KB :KB :KB :KB :KB :KB :KB :KB :KB :KB :KB :KB :KB :KB :KB :KB KB KB K<B K<B K<B K<B K<B K<B K<B K<B K<B K<B K<B K<B K<B K<B K<B K<B K<B K<B K<B K<B K<B K<B K<B K<B K<B <B <B <B <B <B <B <B <B <B <B <B <B <B <B <B <B <B <B <B <B <B <B <B <B <B <B <B <B <B <B <B <B <B <B <B <B <B <B <B <B <B <B <B <B <B D<B D<B D<B D<B D<B D<B D<B D<B D<B D<B D<B D<B D<B D<B D<B D<B D<B D<B D<B D<B D<B D<B D<B D<B D<B D<B D<B D<B D<B D<B D<B D<B D<B D<B D<B D<B D<B D<B D<B D<B D<B D<B D<B D<B D<B D<B D<B D<B D<B D<B D<B D<B D<B D<B D<B D<B D<B D<B D<B D<B D<B K<B K<B K<B K<B K<B K<B K<B K<B K<B K<B K<B K<B K<B K<B K<B K<B K<B K<B K<B K<B K<B K<B K<B K<B K<B K<B K<B K<B K<B K<B <B <B <B <B <B <B <B <B <B <B <B <B <B <B <B <B <B <B <B <B <B <B <B <B <B <B I<B I<B I<B I<B I<B I<B I<B I<B I<B I<B I<B I<B I<B I<B I<B I<B I<B I<B I<B I<B <B <B <B <B <B <B <B <B <B <B <B <B <B <B <B <B <B <B <B <B <B <B <B <B <B <B <B <B <B <B <B <B <B <B <B <B <B <B <B <B <B <B <B <BK <BK <BK <BK <BK <BK <BK <BK <BK <BK <BK <BK <BK <BK <BK <BK <BK <BK <BK <BK <BK <BK <BK <BK <BK <BK <BK <BK <BK <BK <BK <BK <BK <BK <BK <BK <BK <BK <BK <BK <BK <BK <BK <BK <BK <BK <BK <8BK 8BK 8BK 8BK 8BK 8BK 8BK 8BK 8BK 8BK 8BK 8BK 8BK 8BK 8BK 8BK 8BK 8BK 8BK 8BK 8BK 8BK 8BK 8BK 8BK 8BK 8BK 8BK 8BK 8BK 8BK 8BK 8BK 8BK 8BK 8BK 8BK 8BK 8BK 8BK 8BK 8BK 8BK 8BK 8BK 8BK 8BK 8BK 8BK 8BK 8BK 8BK 8BK 8BK 8BK 8BK 8BK 8BK 8BK 8BK 8BK 8BK 8BK 8BK 8=BK =BK =BK =BK =BK =BK =BK =BK =BK =BK =BK =BK =BK =BK =BK =BK =BK =BK =BK =BK =BK =BK =BK =BK =BK =BK =BK =BK =BK =BK =BK =BK =BK =BK =BK =BK =BK =BK =BK =BK =BK =BK =BK =BK =BK =BK =BK =BK =BK =BK =BK =BK =BK =BK =BK BK B<K B<K B<K B<K B<K B<K B<K B<K B<K B<K B<K <K <K <K <K <K <K <K <K <K <K <K <K <K <K <K <K <K <K <K <K <K <K <K <K <K <K <K <K <K <K <K <K <K <K <K <K <K <K <K <K <K <K <K <K <K <K <K <K <K <K <K <K <K <K <K <K <K= K=@ K=@ K=@ K=@ K=@ K=@ K=@ K=@ K=@ K=@ K=@ K=@ =@ =@ =@ =@ =@ =@ =@ =@ =@ =@ =@ =@ =@ =@ =@ =@ =@ =@ =@ =@ =@ =@ =@ =@ =@ =@ =@ =@ =@ =@ =@ =@ =@ =@ =@ =@ =@ =@ =@ =@ =@ =@ =@ =@ =@ =@ =@ D=@ D=@ D=@ D=@ D=@ D=@ D=@ D=@ D=@ D=@ D=@ D=@ D=@ D=@ D=@ D=@ D=@ D=@ D=@ D=@ D=@ D=@ D=@ D=@ D=@ D=@ D=@ D=@ D=@ D=@ D=@ D=@ D=@ D=@ D=@ D=@ D=@ D=@ D=@ D=@ D=@ D=@ D=@ D=@ D=@ D=@ D=@ D=@ D=@ D=@ D=@ D=@ D=@ D=@ D=@ D=@ D=@ D=@ D=@ DI=@ DI=@ DI=@ DI=@ DI=@ DI=@ I=@ I=@ I=@ I=@ I=@ I=@ I=@ I=@ I=@ I=@ I=@ I=@ I=@ I=@ I=@ I=@ I=@ I=@ I=@ I=@ I=@ I=@ I=@ I=@ I=@ =@ =@ =@ =@ =@ =@ =@ =@ =@ =@ =@ =@ =@ =@ =@ =@ =@ =@ =@ =@ =@ =@ =@ =@ =@ =@ =@ H=@ H=@ H=@ H=@ H=@ H=@ H=@ H=@ H=@ H=@ H=@ H=@ H=@ H=@ H=@ H=@ H=@ H=@ H=@ H=@ H=@ H=@ H=@ H=@ =@ =@ =@ =@ =@ =@ =@ =@ =@ =@ =@ =@ =@ =@ =@ =@ =@ =@ =@ =@ =@ =@ =@ =@ =@ =@ =@ =@ =@ =@ =@ =@ =@ =@ =@ =@ =@I =@I =@I =@I =@I =@I =@I =@I =@I =@I =@I =@I =@I =@I =@I =@I =@I =@I =@I =@I =@I =@I @I @I @I @I @I @I @I @I @I @I @I @I @I @I @I @I @I @I @I @I @I @I @I @I @I @I @I @I @I @I @I @I @I @I @I @I 4@I 4@I 4@I 4@I 4@I 4@I 4@I 4@I 4@I 4@I 4@I 4@I 4@I 4@I 4@I 4@I 4@I 4@I 4@I 4@I 4@I 4@I 4@I 4@I 4@I 4@I 4@I 4@I 4@I 4@I 4@I 4@I 4@I 4@I 4@I 4@I 4@I 4@I 4@I 4@I 4@I 4@I 4@I 4@I 4@I 4@I 4@I 4@I 4@I 4@I 4@I 4@I 4@I 4@I 49@I 49@I 49@I 9@I 9@I 9@I 9@I 9@I 9@I 9@I 9@I 9@I 9@I 9@I 9@I 9@I 9@I 9@I 9@I 9@I 9@I 9@I 9@I 9@I 9@I 9@I 9@I 9@I 9@I 9@I 9@I 9@I 9@I 9@I 9@I 9@I 9@I 9@I 9@I 9@I 9@I 9@I 9@I 9@I 9@I 9@I 9@I 9@I 9@I 9@I 9@I 9@I 9@I 9@I @I @I @I @I @I @I @I @I @I @I @I @8I @8I @8I @8I @8I @8I @8I @8I @8I @8I @8I @8I @8I @8I 8I 8I 8I 8I 8I 8I 8I 8I 8I 8I 8I 8I 8I 8I 8I 8I 8I 8I 8I 8I 8I 8I 8I 8I 8I 8I 8I 8I 8I 8I 8I 8I 8I I I I I I I I I I I I I I9 I9 9@ 9@ 9@ 9@ 9@ 9@ 9@ 9@ 9@ 9@ 9@ 9@ 9@ 9@ 9@ 9@ 9@ 9@ 9@ 9@ 9@ 9@ 9@ 9@ 9@ 9@ 9@ 9@ 9@ 9@ 9@ 9@ 9@ 9@ 9@ 9@ 9@ 9@ 9@ 9@ 9@ 9@ 9@ 9@ 9@ 9@ 9@ 9@ 9@ 9@ 9@ 9@ 9@ 9@ 9@ 9@ 9@ 9@ 9@ 9@ 9@ 9@ 9@ 9@ 9@ E9@ E9@ E9@ E9@ E9@ E9@ E9@ E9@ E9@ E9@ E9@ E9@ E9@ E9@ E9@ E9@ E9@ E9@ E9@ E9@ E9@ E9@ E9@ E9@ E9@ E9@ E9@ E9@ E9@ E9@ E9@ E9@ E9@ E9@ E9@ E9@ E9@ E9@ E9@ E9@ E9@ E9@ E9@ E9@ E9@ E9@ E9@ E9@ E9@ E9@ E9@ E9@ E9@ E9@ E9@ E9@ E9@ E9@8 E9@8 E9@I8 E9@I8 E9@I8 E9@I8 E9@I8 9@I8 9@I8 @I8 @I8 @I8 @I8 @I8 @I8 @I8 @I8 @I8 @I8 @I8 @I8 @I8 @I8 @I8 @I8 @I8 @I8 @I8 @I8 @I8 @I8 @I8 @I8 @I8 @I8 @I8 @I8 @I8 @I8 @I8 @I8 I8 I8 I8 I8 I8 I8 I8 I8 I8 I8 I8 I8 I8 I8 I8 I8 I8 I8 I8 I8 I8 I8 I8 I8G I8G 8G 8G 8G 8G 8G 8G 8G 8G 8G 8G 8G 8G 8G 8G 8G 8G 8G 8G 8G 8G 8G 8G 8G 8G 8G 8G 8G 8G 8G 8G 8G 8G 8G 8G 8G 8G 8G 8G 8G 8G 8G 8G 8G 8G 8G 8G 8G 8G G G6 G69 G69 G69 G69 G69 G69 G69 G69 G69 G69 G69 G69 G69 G69 G69 G69 G69 G69 G69 G69 GI69 GI69 I69 I69 I69 I69 I69 I69 I69 I69 I69 I69 I69 I69 I69 I69 I69 I69 I69 I69 I69 I69 I69 I69 I69 I69 I69 I69 I69 I69 I69 I69 I69 I69 I69 I69 I69 I69 I69 I69 I69 I69 I69 I69 I69 I69 I69 I69 I69 I69 I69 I69 I69 I69 I69 I69 I69 I69 I69 69 =69 =69 =69 =69 =69 =69 =69 =69 =69 =69 =69 =69 =69 =69 =69 =69 =69 =69 =69 =69 =69 =69 =69 =69 =69 =69 =69 =69 =69 =69 =69 69 69 69 69 69 69 69 69 69 69 69 69 649 649 49 49 49 49 49 49 49 49 49 49 49 49 B49 B49 B49 B49 B49 B49 B49 B49 B49 B49 B49 B49 B49 B49 B49 B49 B49 B49 B49 B49 B49 B49 B49 B49 B49 B49 B49 B49 B49 B49 B49 B49 B49 B49 B49 B49 B49 B49 B49 B49 B49 B49 B49 B49 B49 B49 B49 B49 B49 B49 B49 B49 B49 B49 B49 B49 49 49 49 49 4@9 4@9 4@9 4@9 4@9 4@9 4@9 4@9 4@9 4@9 4@9 4@9 4@9 4@9 4@9 4@9 4@9 4@9 4@9 4@9 4@9 4@9 4@9 4@9 4@9 4@9 4@9 4@9 4@9 4@9 4@9 4@9 4@9 4@9 4@9 4@9 4@9 4@9 4@9 4@9 4@9 4@9 4@9 4@9 4@29 4@29 @29 @29 @29 @29 @29 @29 @29 @29 @29 @29 @29 @29 @29 @B29 @B29 @B29 @B29 @B29 @B29 @B29 @B29 @B29 @B29 @B29 @B29 @B29 @B29 B29 B29 B29 B29 B29 B29 B29 B29 B29 B29 B29 B29 B29 B29 B29 B29 B29 B29 B29 B29 B29 B29 B29 B29 B29 B29 B29 B29 B29 B29 B29 B29 B29 B29 B29 B29 B29 B29 B29 B29 B29 B29 B29 B29 B29 29 29 >29 >29 >29 >29 >29 >29 >29 >29 >29 >29 >29 >29 >29 >29 >29 >29 >29 >29 >29 >29 >29 >29 >29 >29 >29 >29 >29 >29 >29 >29 >29 >29 >29 >29 >29 29 29 29 29 29 29 29 29 29 29 29 291 291 291 91 91 91 91 91 91 91 91 9D1 9D1 9D1 9D1 9D1 9D1 9D1 9D1 9D1 9D1 9D1 9D1 9D1 9D1 9D1 9D1 9D1 9D1 9D1 9D1 9D1 9D1 9D1 9D1 9D1 9D1 9D1 9D1 9D1 9D1 9D1 9D1 9D1 9D1 9D1 9D1 9D1 9D1 9D1 9D1 9D1 9D1 9D1 9D1 9D1 9D1 9D1 9D1 9D1 9D1 9D1 D1 D1 D1 1 1 1 1 B1 B1 B1 B1 B1 B1 B1 B1 B1 B1 B1 B1 B1 B1 B1 B1 B1 B1 B1 B1 B1 B1 B1 B1 B1 B1 B1 B1 B1 B1 B1 B1 B1 B1 B1 B1 B1 B1 B1 B1 B1 B1 B1 B1 B1 B1 B1 B1; B1/; B1/; B1/; B1/; B1/; B1/; B1/; B1/; 1/; 1D/; 1D/; 1D/; 1D/; 1D/; 1D/; 1D/; 1D/; 1D/; D/; D/; D/; D/; D/; D/; D/; D/; D/; D/; D/; D/; D/; D/; D/; D/; D/; D/; D/; D/; D/; D/; D/; D/; D/; D/; D/; D/; D/; D/; D/; D/; D/; D/; D/; D/; D/; D/; D/; D/; D/; D/; D/; D/; D/; D/; D/; D/; /; /; /; >/; >/; >/; >/; >/; >/; >/; >/; >/; >/; >/; >/; >/; >/; >/; >/; >/; >/; >/; >/; >/; >/; >/; >/; >/; >/; >/; >/; >/; >/; >/; >/; >/; >/; >/; >/; >/; >/; >/; >/; >/; >/; >/; >/; >/; >/; /; /; /; /; /; /; /; /; /;4 /;4 /;4 /;4 /;4 /;E4 /;E4 /;E4 /;E4 ;E4 ;E4 ;E4 ;E4 ;E4 ;E4 ;E4 E4 E4 E4 E4 E4 E4 E4 E4 E4 E4 E4 E4 E4 E4 E4 E4 E4 E4 E4 E4 E4 E4 E4 E4 E4 E4 E4 E4 E4 E4 E4 E4 E4 E4 E4 E4 E4 E4 E4 E4 ED4 ED4 ED4 ED4 D4 D4 D4 D4 D4 D4 D4 D4 D4 D4 D4 D4 D4 D4 D4 4 4 4 4 4 4 4 4 4 4 4 4 4 4 4 4 4 4 4 4 4 4 4 4 4 4 4 4 4 4 4 4 4 4 4 4 4 4 4- 4- 4- 4- 49- 49- 49- 49-E= 49-E= 49-E= 49-E= 49-E= 9-E= 9-E= 9-E= 9-E= 9-E= 9-E= 9-E= 9-E= 9-E= 9-E= 9-E= 9-E= -E= -E= -E= -E= -E= -E= -E= -E= -E= -E= -E= -E= -E= -E= -E= -E= -E= -E= -E= -E= -E= -E= -E= -E= -E= -E= -E= -E= -E= -E= -E= -E= -E= -E= -E= -E= -E= -E= -E4= -E4= -E4= -E4= -E4= -E4= E4= E4= E4= E4= E4= E4= E4= E4= E4= E4= E4= E4= E4= E4= E4= E4= E4= E4= E4= E4= E4= E4= E4= E4= E4= E4= E4= E4= E4= E4= E4= E4= E4= E4= E4= E4= E4= E4= E4= E4= E4= E4= E4= E4= E4= E4= E4= E4= E4= E4= E4= E4= E4= E4I= E4I= 4I= 4I= 4I= I9= I9= I9= I9= I9= I9= I9= I9= I9= I9= I9= I9= I9= I9= I9= I9= I9= I9= I9= I9= I9= I9= I9= I9= I9= I9= I9= I9= I9= I9= I9= I9= I9= I9= I9= I9= I9= I9= I9= I9= I9= I9= I9= I9= I9= I9= I9= 9= 9= 9= 9= 9= 9= 9= 9= 98= 98= 8= G8= G8= G8= G8= G8= G8= G8= G8= G8= G8= G8= G8= G8= G8= G8= G8= G8= G8= G8= G8= G8= G8= G8= G8= G8= G8= G8= G8= G8= G8= G8= G8= G8= G8= G8= G8= G8= G8= G8= G8= G8= G8= G8= G8= G8= 8= 8= 8= 8= 8= 8= 8= 89= 9= 9= 9= 9= 9= 9= 9= 9=I 9=I 9=I 9=I 9=I 9=I 9=I 9=I 9=I 9=I 9=I 9=I 9=I 9=I 9=I 9=I 9=I 9=I 9=I 9=I 9=I 9=I 9=I 9=I 9=I 9=I 9=I 9=I 9=I 9=I 9=I 9=I 9=I 9=I 9=I 9=I 9=I 9=I 9=I 9=I 9=I 9=I 9=I 9=I 9=I 9=I 9=I 9=I 9=I 9=I 9=I 9=1I 9=1I 9=1I 9=1I 9=1I =1I =1I =1I =1I =1I =1I =1I =1I =1I =1I 1I 1I 1I 1I 1I 1I 1I 1I 1I 1I 1I 1I 1I 1I 1I 1I 1I 1I 1I 1I 1I 1I 1I 1I 1I 1I 1I 1I 1I 1I 1I 1I 1I 1I 1I 1I 1I 1I 1I 1I 1I 1I 1I 1I 1I 1I 16I 6I 6I 6I >6I >6I >6I >6I >6I >6I >6I >6I >6I >6I >6I >6I >6I >6I >6I >6I >6I >6I >6I >6I >6I >6I >6I >6I >6I >6I >6I >6I >6I >6I >6I >6I >6I >6I >6I >6I >6I 6I 6I 6I 6I 6I 6I 6I 6I 6I 6I I I 4I 4I 4I 4I 4I 4I 4I 4I 4I 4I 4I 4I 4I 4I 4I 4I ==4I ==4I ==4I ==4I ==4I ==4I ==4I ==4I ==4I ==4I ==4I ==4I ==4I ==4I ==4I ==4I =4I =4I =4I =4I =4I =4I =4I =4I =4I =4I =4I =4I 4I 4I 4I 4I 4I 4I 4I 4I 4I 4I 4I 4I 4I 4I 4I 4I 4I 4I 4I 4I 4I 4I6 I6 I6 I6 I6 I6 I6 I6 I6 I6 I6 I6 I6 I6>> I6>> I6>> I6>> I6>> I6>> I6>> I6>> I6>> I6>> I6>> I6>> I6>> I6>> I6>> I6>> I6>> I6>> I6>> I6>> I6>> I6>> I6>> I6>> I6>> I6>> I6>> I6>> I6>> I6>> I6>> I6>> I6>> I6>> I6>> I6>> I6>> I6>> I6>> I6>> I6>> I6>> I6>> I6>> I6>> I6>> I6>> I6>> I6>> I6>> I6>> I6>> I6>> I6>> I6>> I6>> 6>> 6>> 6>> 6>> 6>B> 6>B> 6>B> 6>B> 6>B> 6>B> 6>B> 6>B> 6>B> 6>B> 6>B> 6>B> 6>B> 6>B> 6>B> 6>B> 6>B> 6>B> 6>B> 6>B> 6>B> 6>B> 6>B> 6>B> 6>B> 6>B> 6>B> 6>B> 6>B> 6>B> 6>B> 6>B> 6>B> 6>B> 6>B> 6>B> 6>B> 6>B> 6>B> 6>B> 6>B> 6>B> 6>B> 6>B> 6>B> 6>B> 6>B> 6>B> 6>B> 6>B> B> B> B8> B8> 8> 8> G8> G8> G8> G8> G8> G8> G8> G8> G8> G8> G8> G8> G8> G8> G8> G8> G8> G8> G8> G8> G8> G8> G8> G8> G8> G8> G8> G8> G8> G8> G8> G8> G8> G8> G8> G8> G8> G8> G8> G8> G8> G8> G8> G8> G8> G8> G8> G8> G8> G8> G8> G8> G8> G8> G8> G8> G8> G8> G8> G8> G8>E G8>E G8>E 8>E 8>E 8>E 8>E 8>E 8>E 8>E 8>E 8>E 8>E 8>E 8>E 8>E 8>E 8>E 8>E 8>E 8>E 8>E 8>E 8>E 8>E 8>E 8>E 8>E 8>E 8>E 8>E 8>E 8>E 8>E 8>E 8>E 8>E 8>E 8>E 8>E 8>E 8>E 8>E 8>E 8>E 8>E 8>E 8>E 8>E 8>E >E >E >E >E= >E= >E9= >E9= >E9= E9= EG9= G9= G9= G9= G9= G9= G9= G9= G9= G9= G9= G9= G9= G9= G9= G9= G9= G9= G9= G9= G9= G9= G9= G9= G9= G9= G9= G9= G9= G9= G9= G9= G9= G9= G9= G9= G9= G9= G9= G9= G9= G9= G9= G9= G9= G9= G9= G9= G9= G9= G9= G9= G9= G9= G9= G9= G9= G9= G9= G9= G9= G9= G9= G9= G9= 9= 9= 9= 9@= 9@= 9@= 9@= 9@= 9@= 9@= 9@= 9@= 9@= 9@= 9@= 9@= 9@= 9@= @= @= @= @= @= @= @= @= @= @= @= @= @= @= @= @= @= @= @= @= @= @= @= @= @= @= @= @= @= @= @= @= @6= 6= 6= 6= 6= 6= 6= 6= 6= 6= 6= 6= 6= 6E= 6E= 6E= 6E= 6E= 6E= 6E= 6E= 6E= 6E= 6E= 6E= 6E= 6E= 6E= 6E= 6E= 6E= 6E= 6E= 6E= 6E= 6E= 6E= 6E= 6E= 6E= 6E= 6E= 6E= 6E= 6E= 6E= 6E= 6E= 6E= 6E= 6E= 6E= 6E= 6E= 6E= 6E= E= E= E= E= E= E= E= E= E= E= E=D E=D E=D E=D E=D E=D =D =D =D =D =D =D =D =D =D =D =D =D =D =D =D =D =D =D =D =D =D =D =D =D =D =D =D =D =D =D =D =D =D =D =D =D =D =D =D =D =D =D =D =D =D D D2 D2; D2; D2; D2; D2; 2; E2; E2; E2; E2; E2; E2; E2; E2; E2; E2; E2; E2; E2; E2; E2; E2; E2; E2; E2; E2; E2; E2; E2; E2; E2; E2; E2; E2; E2; E2; E2; E2; E2; E2; E2; E2; E2; E2; E2; E2; E2; E2; E2; E2; E2; E2; E2; E2; E2; E2; E2; E2; E2; E2; E2; E2; E2; E2; E2; E2; E2; E2; E2; E2; E2; E2; E2; E2; 2; 2; 2; B2; B2; B2; B2; B2; B2; B2; B2; B2; B2; B2; B2; B2; B2; B2; B2; B2; B2; B2; B2; B2; B2; B2; B2; B2; B2; 2; 2; 2; 2; 2; 2; 2; 2; 2; 2; 2; 2; ; ; ; /; /; /; /; /; /; /; /; /; /; /; /; /; /; /; /; /; /; /; J/; J/; J/; J/; J/; J/; J/; J/; J/; J/; J/; J/; J/; J/; J/; J/; J/; J/; J/; J/; J/; J/; J/; J/; J/; J/; J/; J/; J/; J/; J/; J/; J/; J/; J/; J/; J/; J/; J/; J/; J/; J/; J/; J/; J/; J/; J/; J/; J/; J/; J/; J/; J/; J/; J/; J/; J/; J/I; J/I; /I; /I; /I; /I; /I; /I; I; I; I; I; I; I; I; I; I; I; I; I; I; I; I; I; I; I; I; I; I; I; I; I; I; I; I; I; I; I; I; I; I; I; I; I; I; I; I; I; I; I; I; I; I; I; I; I4; I4; I4; 4; 4; 4; 4; 4; 4; 4; 4; J4; J4; J4; J4; J4; J4; J4; J4; J4; J4; J4; J4; J4; J4; J4; J4; J4; J4; J4; J4; J4; J4; J4; J4; J4; J4; J4; J4; J4; J4; J4; J4; J4; J4; J4; J4; J4; J4; J4; J4; J4; J4; J4; J4; J4; J4; J4; J4; J4; J4; J4; J4; J4; J4; J4; J4; J4; J4; 4; 4; 4G; 4G; 4G; 4G; 4G; 4G; 4G; 4G; 4G; 4G; 4G; 4G; 4G; 4G; 4G; 4G; 4G; 4G; 4G; 4G; 4G; 4G; 4G; 4G; 4G; G; G; G; G; G; G; G; G; G; G; G; G; G; G; G; G; G; G; G; G; G; G; ; ; ; ; ; ; ;2 ;2 ;2 ;2 ;2 ;2 ;2 ;2 ;2 Q;2 Q;2 Q;2 Q;2 Q;2 Q;2 Q;2 Q;2 Q;2 Q;2 Q;2 Q;2 Q;2 Q;2 Q;2 Q;2 Q;2 Q;2 Q;2 Q;2 Q;2 Q;2 Q;2 Q;2 Q;2 Q;2 Q;2 Q;2 Q;2 Q;2 Q;2 Q;2 Q;2 Q;2 Q;2 Q;2 Q;2 Q;2 Q;2 Q;2 Q;2 Q;2 Q;2 Q;2 Q;2 Q;2 Q;2 Q;2 Q;2 Q;2 Q;2 Q;2 Q;2 Q;2 Q;2 Q;2 Q;2 Q;2 ;2 ;2 ;P2 ;P2 ;P2 ;P2 ;P2 ;P2 ;P2 ;P2 ;P2 ;P2 P2 P2 P2 P2 P2 P2 P2 P2 P2 P2 P2 P2 P2 P2 P2 P2 P2 P2 P2 P2 P2 P2 P2 P2 P2 P2 P2 P2 P2 P2 P2 P2 P2 P2 P2 P2 P2 P2 P2 P2 P2 P2 2  1 19 19 19 19 1Q9 1Q9 1Q9 1Q9 1Q9 1Q9 1Q9 1Q9 1Q9 1Q9 1Q9 1Q9 1Q9 1Q9 1Q9 1Q9 1Q9 1Q9 1Q9 1Q9 1Q9 1Q9 1Q9 1Q9 1Q9 1Q9 1Q9 1Q9 1Q9 1Q9 1Q9 1Q9 1Q9 1Q9 1Q9 1Q9 1Q9 1Q9 1Q9 1Q9 1Q9 1Q9 1Q9 1Q9 1Q9 1Q9 1Q9 1Q9 1Q9 1Q9 1Q9 1Q9 1Q9 1Q9 1Q9 1Q9 1-Q9 1-Q9 1-Q9 1-Q9 1-Q9 -Q9 -Q9 -Q9 -Q9 -Q9 -Q9 -Q9 -Q9 -Q9 -Q9 -Q9 -Q9 -Q9 -Q9 -Q9 -Q9 -Q9 Q9 Q9 Q9 Q9 Q9 Q9 Q9 Q9 Q9 Q9 Q9 Q9 Q9 Q9 Q9 Q9 Q9 Q9 Q9 Q9 Q9 Q9 Q9 Q9 Q9 Q9 Q9 Q9 Q9 Q9 Q9 Q9 Q9 Q9 Q9 6Q9 6Q9 6Q9 6Q9 6Q9 6Q9 6Q9 6Q9 6Q9 6Q9 6Q9 6Q9 6Q9 6Q9 6Q9 6Q9 6Q9 6Q9 6Q9 6Q9 6Q9 6Q9 6Q9 6Q9 6Q9 6Q9 6Q9 6Q9 6Q9 6Q9 6Q9 6Q9 6Q9 6Q9 6Q9 6Q9 6Q9 6Q9 6Q9 6Q9 6Q9 6Q9 6Q9 6Q9 6Q9 6Q9 6Q9 6Q9 6Q9 6Q9 6Q9 6Q9 6Q9 6Q9 Q9 Q49 Q49 Q49 Q49 Q49 Q49 Q49 Q49 Q49 Q49 Q49 Q49 Q49 Q49 Q49 Q49 Q49 Q49 Q49 Q49 Q49 Q49 Q49 Q49 Q49 Q49 Q49 Q49 Q49 Q49 Q49 Q49 Q49 Q49 Q49 Q49 Q49 Q49 Q49 Q49 Q49 Q49 Q49 Q49 Q49 Q49 Q49 Q49 Q49 Q49 Q49 Q49 Q49 Q49 Q49 Q49 Q49 Q49 Q49 49 49 49 469 469 469 469 469 469 469 469 69 69 69 69 69 69 69 69 69 69 69 69 69 69 69 69 69 69 69 69 69 69 69 69 69 69 69 69 69 69 69 69 69 69 69 69 69 69 69 69 69 69 69 69 69 69 69 69 69 69 69 69 69 69 69 69 69 69 69 69 69 69 E69 E69 E69 E69 E69 E69 E69 E69 E69 E69 E69 E69 E69 E69 E69 E69 E69 E69 E69 E69 E69 E69 E69 E69 E69 E69 E69 E69 E69 E69 E69 E69 E69 E69 E69 E69 E69 E69 E69 E69 E69 E69 E69 E69 E69 E69 E69 E69 E69 E69 E69 E69 E69 E69 E69 E69 E69 E69 E69 E69 E69 EJ69 EJ69 EJ69 EJ69 EJ69 EJ69 EJ69 J69 J69 J69 J69 J69 J69 J69 J69 J69 J69 J69 J69 J69 J69 J69 J69 J69 J69 J69 J69 J69 J69 J69 J69 J69 J69 J69 J69 J69 69 69 69 69 69 69 69 69 69 69 69 69 69 69 69 69 69 69 69 69 I69 I69 I69 I69 I69 I69 I69 I69 I69 I69 I69 I69 I69 I69 I69 I69 I69 69 69 69 69 69 69 69 69 69 69 69 69 69 69 69 69 69 69 69 69 69 69 69 69 69 69 69 69 69 69 69 69 69 69 69 69 69 69 69 69 69 69 69 69 69 69 69J 69J 69J 69J 69J 69J 69J 69J 69J 69J 69J 69J 69J 69J 69J 9J 9J 9J J J J J J J J J J J J J J J J J J J J J J J J J J J J J J J J J J J J J J J 2J 2J 2J 2J 2J 2J 2J 2J 2J 2J 2J 2J 2J 2J 2J 2J 2J 2J 2J 2J 2J 2J 2J 2J 2J 2J 2J 2J 2J 2J 2J 2J 2J 2J 2J 2J 2J 2J 2J 2J 2J 2J 2J 2J 2J 2J 2J 2J 2J 2J 2J 2J 2J 2J 2J 2J 2J 2J 2J 2J 2J 29J 29J 9J 9J 9J 9J 9J 9J 9J 9J 9J 9J 9J 9J 9J 9J 9J 9J 9J 9J 9J 9J 9J 9J 9J 9J 9J 9J 9J 9J 9J 9J 9J 9J 9J 9J 9J 9J 9J 9J 9J 9J 9J 9J 9J 9J 9J 9J 9J 9J 9J 9J 9J 9J 9J 9J 9J 9J 98J 98J 98J 98J 98J 98J 98J 98J 8J 8J 8J 8J 8J 8J 8J 8J 8J 8J 8J 8J 8J 8J 8J 8J 8J 8J 8J 8J 8J 8J J J J J J J J J J J J J J J J J J J J J J J J J J J J J J J J9 J9 J9 J9 J9 J9 J9 J9 J9 J9 J9 J9 J9 J9 J9 J9 J9 J9 J9 J9 9 9 9 9 9 9 9 9 9 9 9 9 9 9 9 9 9 9                       ; ; ; ; ; ; ; ;@ ;@ ;@ ;@ ;@ ;@ ;@ ;@ ;@ ;@ ;@ ;@ ;@ ;@ ;@ ;@ ;@ ;@ ;@ ;@ ;@ ;@ ;@ ;@ ;@ ;@ ;@ ;@ ;@ ;@ ;@ ;@ ;@ ;@ ;@ ;@ ;@ ;@ ;@ ;@ ;@ ;@ ;@ ;@ ;@ ;@ ;@ ;@ ;@ ;@ ;@9 ;@9 ;@9 ;@9 ;@9 ;@9 @9 @9 @9 @9 @I9 @I9 @I9 @I9 @I9 @I9 I9 I9 I9 I9 I9 I9 I9 I9 I9 I9 I9 I9 I9 I9 I9 I9 I9 I9 I9 I9 I9 9 9 9 9 9 9 9 9 9 9 9 9 9 9 9 9 9 9 9 98 8 8 8 8 8 8 8 8 8 8 8 8 G8 G8 G8 G8 G8 G8 G8 G8 G8 G8 G8 G8 G8 G8 G8 G8 G8 G8 G8 G8 G8 G8 8 8 8 8 8 8 8 8 8 8 8 8 8 8 8 8 8 8 8 8 8 8 8 8 8 8 8 8 8 86 6 6 6 6 6 6 6 6 6I 6I 6I 6I 6I 6I 6I 6I 6I 6I 6I 6I 6I 6I 6I 6I 6I 6I 6I 6I 6I 6I 6I 6I 6I 6I 6I 6I 6I 6I 6I 6I 6I 6I 6I 6I 6I 6I 6I 6I 6I 6I 6I 6I I I I I I I9 I9 I9 I9 I9 I9 I9 I9 I9 I9 9 9 9 9 9 9> 9> 9> 9> 9> 9> 9> 9> 9> 9> 9> 9> 9> 9> 9> 9> 9> 9> 9> 9> 9> 9> 9> 9> 9> 9> 9> 9> 9> 9> 9> 9> 9> 9> 9> 9> 9> 9> 9> 9> 9> 9> 9> 9> 9> 9> 9> 9>8 9>8 9>8 9>8 9>8 9>8 >8 8 G8 G8 G8 G8 G8 G8 G8 G8 G8 G8 G8 G8 G8 G8 G8 G8 G8 G8 G8 G8 G8 G8 G8 G8 G8 8 8 8 8 8 8 8 8 8 8 8 8 8 8 8 8 8 8 8 8 8 8 8 86 86 86 86 86 86 6 6 6 6 E6 E6 E6 E6 E6 E6 E6 E6 E6 E6 E6 E6 E6 E6 E6 E6 E6 E6 E6 E6 E6 E6 E6 E6 E6 E6 6 6 6 6 6 6 6 6 6 6 6 6 6 6 6 6 6 6 6 6 6 6 6 64 4 4 4 4 4 4 4 4 4G 4G 4G 4G 4G 4G 4G 4G 4G 4G 4G 4G 4G 4G 4G 4G 4G 4G 4G 4G 4G 4G 4G 4G 4G 4G G G G G G G G G G G G G G G G G G G G G G G G G G8 G8 G8 G8 G8 G8 G8 G8 G8 G8 G8 8= 8= 8= 8= 8= 8= 8= 8= 8= 8= 8= 8= 8= 8= 8= 8= 8= 8= 8= 8= 8= 8= 8= 8= 8= 8= 8= 8= 8= 8= 8= 8= 8= 8= 8= 8= 8= 8= 8= 8= 8= 8= 8= =6 =6 =6 =6 =6 =6 =6 =6 =6 =6 =6 =6 =E6 =E6 =E6 =E6 =E6 =E6 =E6 E6 E6 E6 E6 E6 E6 E6 E6 E6 E6 E6 E6 E6 E6 E6 E6 E6 E6 E6 E6 E6 E6 E6 E6 E6 E6 6 6 6 6 6 6 6 6 6 6    4 4 4 4 4 4 4 4 4 4 4 4 4 D4 D4 D4 D4 D4 D4 D4 D4 D4 D4 D4 D4 D4 D4 D4 D4 D4 D4 D4 D4 D4 D4 D4 D4 4 4 4 4 4 4 4 4 4 4 4 4 4 4 4 4 4 4 4 4      3 3 3 3 3 3 3 3 3 3 3 E3 E3 E3 E3 E3 E3 E3 E3 E3 E3 E3 E3 E3 E3 E3 E3 E3 E3 E3 E3 E3 E3 E3 E3 E3 E3 E3 E3 E3 E3 E3 E3 E3 E3 E3 E3 E3 E3 E3 E3 E3 E3 E3 E3 E3 E3 E3 E3 E3 E3 E3 E3 E3 E3 E3 E3 E3 E3 E3 3 3 3; 3; 3; 3; ; ; ; ; ; ; ; ; ; ; ; ; ; ; ; ; ; ; ; ; ; ; ; ; ; ; ; ; ; ; ; ; ; ; ; ; ; ; ; ; ; ; ; ;     / / / / / / D/ D/ D/ D/ D/ D/ D/ D/ D/ D/ D/ D/ D/ D/ D/ D/ D/ D/ D/ D/ D/ D/ D/ D/ D/ D/ D/ D/ D/ D/ D/ D/ D/ D/ D/ D/ D/ D/ D/ D/ D/ D/ D/ D/ D/ D/ D/ D/ D/ D/ D/ D/ D/ D/ D/ D/ / / /B /B B B B B B B B B B B B B B B B B B B B B B B B B B B B B B B B B B B B B B B B B B B B B B B B B B B B B B B  4 4 4 4 4 4 D4 D4 D4 D4 D4 D4 D4 D4 D4 D4 D4 D4 D4 D4 D4 D4 D4 D4 D4 D4 D4 D4 D4 D4 D4 D4 D4 D4 D4 D4 D4 D4 D4 D4 D4 D4 D4 D4 D4 D4 D4 D4 D4 4 4 4 4 4 4 4 4 4 4 4 4 4 4 4 4 4 4 4 4 4 4 4 4 4 4 4 4 @4 @4 @4 @4 @4 @4 @4 @4 @4 @4 @4 @4 @4 @4 @4 @4 @4 @4 @4 @4 @4 @4 @4 @4 @4 @4 @4 @4 @4 @4 @4 @4 @4 @4 @4 @4 @4 @4 @4 @4 @4 @4 @4 @4 @4 @4 @4 @4 @4 @4 @4 @4 @4 @4 @4 4 4 4 D4 D4 D4 D4 D4 D4 D4 D4 D4 D4 D4 D4 D4 D4 D4 D4 D4 D4 D4 D4 D4 D4 D4 D4 D4 D4 4 4 4 4 4 4 4 4 4 4 4 4 4 4 4 4 4 4 4 4 4 4 4 4 4 4 4 4 4 G4 G4 G4 G4 G4 G4 G4 G4 G4 G4 G4 G4 G4 G4 G4 G4 G4 G4 G4 G4 G4 4 4 4 4 4 4 4 4 4 4 4 4 4 4 4 4 4 4 4 4 4 4 4 4 4 4 4 4 4 4 4 4 4 4 4 4 4 4L 4L 4L 4L 4L 4L 4L 4L 4L 4L 4L 4L 4L 4L 4L 4L 4L 4L 4L 4L 4L 4L 4L 4L 4L 4L 4L 4L 4L L L L L L L L L L L L L L L L L L L L L L L L L8 L8 L8 L8 L8 L8 L8 L8 L8 L8 L8 L8 L8 L8 L8 L8 L8 L8 L8 L8 L8 L8 L8 L8 L8 L8 L8 L8 L8 L8 L8 L8 L8 8 8 8 8 8 8 8 8 8 8 8 8 8 8 8 8 8 8 8 8 8 8 8 8 8     = = = = = = = =@ =@ =@ =@ =@ =@ =@ =@ =@ =@ =@ =@ =@ =@ =@ =@ =@ =@ =@ =@ =@ =@ =@ =@ =@ =@ =@ =@ =@ =@ =@ =@ =@ =@ =@ =@ =@ =@ =@ =@ =@ =@ =@ =@ =@ =@ =@ =@ =@ @ @ @; @; @; @; @; ; ; ; ; ; ; ; ; ; ; ; ; ; ; ; ; ; ; ; ; ; ; ; ; ; ; ; ; ; ; ; ; ; ; ; ; ; ; ; ; ; ; ; ; ; ; ; ; ; ; ; ; ; ; ; ; ;B B =B =B =B =B =B =B =B =B =B =B =B =B =B =B =B =B =B =B =B =B =B =B =B =B =B =B =B =B =B =B =B =B =B =B =B =B =B =B =B =B =B =B =B =B =B =B =B =B =B =B =B =B B B B 2 2 2 2 2 E2 E2 E2 E2 E2 E2 E2 E2 E2 E2 E2 E2 E2 E2 E2 E2 E2 E2 E2 E2 E2 E2 E2 2 2 2 2 2 2 2                            ; ; ; ; ; ; ; ;J ;J ;J ;J ;J ;J ;J ;J ;J ;J ;J ;J ;J ;J ;J ;J ;J ;J ;J ;J ;J ;J ;J ;J ;J ;J ;J ;J ;J ;J ;J ;J ;J ;J ;J ;J ;J ;J ;J ;J ;J ;J ;J ;J ;J ;J ;J ;J ;J ;J ;J ;J ;J ;J ;J9 ;J9 ;J9 9 9 9 9 9 9 9 9 9 9 9 9 9 9 9 9 9 9 9 9 9 9 9 9 9 9 9 9 9 9 9 9 9 9 9 9 9 9 9 9 9 9 9 9 9 9 9 9 9 9 9 9   ; ; ; ; ; ; ; ; ; ; ; ; ; ; ;@ ;@ ;@ ;@ ;@ ;@ ;@ ;@ ;@ ;@ ;@ ;@ ;@ ;@ ;@ ;@ ;@ ;@ ;@ ;@ ;@ ;@ ;@ ;@ ;@ ;@ ;@ ;@ ;@ ;@ ;@ ;@ @ @ @ @ @ @ @ @ @ @ @ @ @ @ @ @ @ @ @ @ @ @1 @1 @1 @1 @1 @1 @1 @1 @1 @D1 @D1 D1 D1 D1 D1 D1 D1 D1 D1 D1 D1 D1 D1 D1 D1 D1 D1 D1 D1 D1 1 1 1 1 1 1 1                        9 9 9 9 9 9 9 9 9 9 9 9 9 9 9I 9I 9I 9I 9I 9I 9I 9I 9I 9I 9I 9I 9I 9I 9I 9I 9I 9I 9I 9I 9I 9I 9I 9I 9I 9I 9I 9I 9I 9I 9I 9I 9I 9I 9I 9I 9I 9I 9I 9I 9I 9I 9I 9I 9I 9I 9I 9I 9I 9I 9I8 9I8 9I8 I8 I8 I8 I8 I8 I8 I8 I8 I8 I8 I8 I8 I8 I8 I8 I8 I8 I8 I8 I8 I8 I8 I8 I8 I8 I8 I8 I8 I8 8 8 8 8 8 8 8 8 8 8 8 8 8 8 8 8 8 8 8 8 8 8 8 8  9 9 9 9 9 9 9 9 9 9 9 9 9 9 9> 9> 9> 9> 9> 9> 9> 9> 9> 9> 9> 9> 9> 9> 9> 9> 9> 9> 9> 9> 9> 9> 9> 9> 9> 9> 9> 9> 9> 9> 9> 9> 9> 9> 9> 9> 9> 9> 9> 9> 9> 9> 9> > > > > > > >/ >/ >/ >/ >/ >/ >/ >B/ >B/ >B/ >B/ >B/ >B/ >B/ >B/ B/ B/ B/ B/ B/ B/ B/ B/ B/ B/ B/ B/ B/ B/ B/ B/ B/ B/ B/ / / / / /                      8 8 8 8 8 8 8 8 8 8 8 8 8G 8G 8G 8G 8G 8G 8G 8G 8G 8G 8G 8G 8G 8G 8G 8G 8G 8G 8G 8G 8G 8G 8G 8G 8G 8G 8G 8G 8G 8G 8G 8G 8G 8G 8G 8G 8G 8G 8G 8G 8G 8G 8G 8G 8G 8G 8G 8G 8G 8G G G G6 G6 G6 G6 G6 G6 G6 G6 G6 G6 G6 G6 G6 6 6 6 6 6 6 6 6 6 6 6 6 6 6 6 6 6 6 6 6 6 6 6 6 6 6 6 6 6 6 6 6 6 6 6 6 6 6 6 6 6 6 6 68 68 8 8 8 8 8 8 8 8 8 8 8 8 8 8 8 8= 8= 8= 8= 8= 8= 8= 8= 8= 8= 8= 8= 8= 8= 8= 8= 8= 8= 8= 8= 8= 8= 8= 8= 8= 8= 8= 8= 8= 8= 8= = = = = = = = = = = = = = =- =- =- =- =- =- =- =- =- =- =- =- =- =- =- =- =- =-@ =-@ =-@ =-@ =-@ =-@ =-@ -@ -@ -@ -@ -@ -@ -@ -@ -@ -@ -@ -@ -@ -@ -@ -@ -@ -@ -@ -@ -@ -@ -@ -@ -@ -@ -@ -@ -@ -@ -@ -@ -@ -@ -@ -@ -@ -@ @ @ @6 @6 @6 @6 @6 @6 @6 @6 @6 @6 @6E 6E 6E 6E 6E 6E 6E 6E 6E 6E 6E 6E 6E 6E 6E 6E 6E 6E 6E 6E 6E 6E 6E 6E 6E 6E 6E 6E 6E 6E 6E 6E 6E 6E 6E 6E 6E 6E 6E 6E 6E 6E 6E 6E 6E 6E 6E 6E E E E E4 4 4 4 4 4 4 =4 =4 =4 =4 =4 =4 =4 =4 =4 =4 =4 =4 =4 =4 =4 =4 =4 =4 =4 =4 =4 =4 =4 =4 =4 4 4 4 4 4 4 4 4 4 4 4 4 4 4 4 4 4 4 4 4 4 4 4 4 4 4 4   6 6 6 6 6 6 6 6 6 6> 6> 6> 6> 6> 6> 6> 6> 6> 6> 6> 6> 6> 6> 6> 6> 6> 6> 6> 6> 6> 6> 6> 6> 6> 6> 6> 6> 6> 6> 6> 6> 6> 6> 6> 6> 6> 6> 6> 6> 6> 6> 6> 6> 6> 6> 6> > > >, >, >, >, >, >, >, >, >, >, >,; >,; >,; ,; ,; ,; ,; ,; ,; ,; ,; ,; ,; ,; ,; ,; ,; ,; ,; ,; ,; ,; ,; ,; ,; ,; ,; ,; ,; ,; ,; ,; ,; ,; ,; ,; ,; ,; ,; ,; ,; ,; ,; ,; ,; ,; ,; ,;4 ,;4 ,;4 ,;4 ,;4 ,;4 ;4 ;4 ;4 ;4 4 4 4 4D 4D 4D 4D 4D 4D 4D 4D 4D 4D 4D 4D 4D 4D 4D 4D 4D 4D 4D 4D 4D 4D 4D 4D 4D 4D 4D 4D 4D 4D 4D 4D 4D 4D 4D 4D 4D 4D 4D 4D 4D 4D 4D 4D 4D 4D 4D2 4D2 4D2 4D2 4D2 D2 2 2 2 2 2 2 ;2 ;2 ;2 ;2 ;2 ;2 ;2 ;2 ;2 ;2 ;2 ;2 ;2 ;2 ;2 ;2 ;2 ;2 ;2 ;2 ;2 ;2 ;2 ;2 ;2 ;2 ;2 ;2 ;2 ;2 ;2 ;2 ;2 ;2 ;2 ;2 2 2 2 2 2 2   4 4 4 4 4 4 4 4 4 4 4 4 4 4 4 4 4= 4= 4= 4= 4= 4= 4= 4= 4= 4= 4= 4= 4= 4= 4= 4= 4= 4= 4= 4= 4= 4= 4= 4= 4= 4= 4= 4= 4= 4= 4= 4= 4= 4= 4= 4= 4= 4= 4= 4= 4= = = = = = = = = =* =* =* =* =* =* =* =* =* =* =* =*9 *9 *9 *9 *9 *9 *9 *9 *9 *9 *9 *9 *9 *9 *9 *9 *9 *9 *9 *9 *9 *9 *9 *9 *9 *9 *9 *9 *9 *9 *9 *9 *9 *9 *9 *9 *9 *9 *9 *9 *9 *9 *9 *9 *9 *92 *92 92 92 92 92 92 92 92 92 92 92 2B 2B 2B 2B 2B 2B 2B 2B 2B 2B 2B 2B 2B 2B 2B 2B 2B 2B 2B 2B 2B 2B 2B 2B 2B 2B 2B 2B 2B 2B 2B 2B 2B 2B 2B 2B 2B 2B 2B 2B 2B 2B 2B 2B 2B 2B 2B 2B1 2B1 B1 B1 B1 B1 B1 B1 B1 1 1 19 19 19 19 19 19 19 19 19 19 19 19 19 19 19 19 19 19 19 19 19 19 19 19 19 19 19 19 19 19 19 19 19 19 19 19 19 19 19 19 19 19 19 19 19 19 19 19 192 92 92 92 92 92 92 2 2 2 2; 2; 2; 2; 2; 2; 2; 2; 2; 2; 2; 2; 2; 2; 2; 2; 2; 2; 2; 2; 2; 2; 2; 2; 2; 2; 2; 2; 2; 2; 2; 2; 2; 2; 2; 2; 2; 2; 2; 2; 2; 2; 2; 2; 2; 2; ; ; ; ; ; ; ; ;( ;( ;( ;( ;( ;8( ;8( ;8( ;8( 8( 8( 8( 8( 8( 8( 8( 8( 8( 8( 8( 8( 8( 8( 8( 8( 8( 8( 8( 8( 8( 8( 8( 8( 8( 8( 8( 8( 8( ( ( ( ( ( ( ( ( ( ( ( ( ( ( ( ( ( (1 (1 (1 (1 1 1 1 1 1 1 1 1@ 1@ 1@ 1@ 1@ 1@ 1@ 1@ 1@ 1@ 1@ 1@ 1@ 1@ 1@ 1@ 1@ 1@ 1@ 1@ 1@ 1@ 1@ 1@ 1@ 1@ 1@ 1@ 1@ 1@ 1@ 1@ 1@ 1@ 1@ 1@ 1@ 1@ 1@ 1@ 1@ 1@ 1@ 1@ 1@ 1@ @ @ /@ /@ /@ /@ /@ /@ /@ /@ /@ /@ /@ /@ /@ /@ /@ /@ /@ /@ /@ /@ /@ /@ /@ /@ /@ /@ /@ /@ /@ /@ /@ /@ /@ /@ /@ /@ /@ /@ /@ /@ @ @ @ @ @ @ @ @ @ @ @ @ @ @ @ @1 @1 @1 @1 @1 @1 @1 @1 @1 @1 @1 1 1 1 1 1 1 1 1 1 1 1 1 1 1 1 1 1 1 1 1 1 1 1 1 1 1 1 1 1 1 1 1 1 1 1 1 1 1 1 1 1 1 1 1 1 1 1 1 1- 1- 1- 1- 1- - - - - - - - -= -= -= -= -= -= -= -= -= -= -= -= -= -= -= -= -= -= -= -= -= -= -= -= -= -= -= -= -= -= -= -= -= -= -= -= -= -= -= -= -= -= -= -= -= -= = = =2 =2 =2 =2 2 2 2 2 2 2 2 B2 B2 B2 B2 B2 B2 B2 B2 B2 B2 B2 B2 B2 B2 B2 B2 B2 B2 B2 B2 B2 B2 B2 B2 B2 B2 B2 B2 B2 B2 B2 B2 B2 2 2 2 2 2 2 2 2 2 2 2 2 2  1 1 1 1 1 1 1 1 1 1 1 1 1 1 1 1 @1 @1 @1 @1 @1 @1 @1 @1 @1 @1 @1 @1 @1 @1 @1 @1 @1 @1 @1 @1 @1 @1 @1 @1 @1 @1 @1 @1 @1 @1 @1 @1 1 1 1 1 1 1             2 2 2 2 2 2 2 2 2B 2B 2B 2B 2B 2B 2B 2B 2B 2B 2B 2B 2B 2B 2B 2B 2B 2B 2B 2B 2B 2B 2B 2B 2B 2B 2B 2B 2B 2B 2B 2B 2B 2B 2B 2B 2B 2B 2B 2B 2B 2B 2B 2B 2B 2B 2B 2B 2B 2B 2B 2B 2B 2B 2B/ 2B/ 2B/ 2B/ 2B/ B/ B/ B/ / /> /> /> /> /> /> /> /> /> /> /> /> /> /> /> /> /> /> /> /> /> /> /> /> /> /> /> /> /> /> /> /> /> /> /> /> /> /> /> /> /> /> /> /> /> /> /> /> /> /> /> > >4 >4 >4 >4; >4; 4; 4; 4; 4; 4; 4; 4; 4; 4; 4; 4; 4; 4; 4; 4; 4; 4; 4; 4; 4; 4; 4; 4; 4; 4; 4; 4; 4; 4; 4; 4; 4; 4; 4; 4; 4; 4; 4; 4; 4; 4; 4; 4; 4; 4; 4; 4; 4; 4;/ 4;/ 4;/ 4;/ 4;/ ;/ ;/ ;/ ;/ ;/ ;/D /D /D /D /D /D /D /D /D /D /D /D /D /D /D /D /D /D /D /D /D /D /D /D /D /D /D /D /D /D /D /D /D /D /D /D /D /D /D /D /D /D /D /D /D /D /D /D /D /D /D /D /D /D1 /D1 /D1 /D1 D1 D1 1 1E 1E 1E 1E 1E 1E 1E 1E 1E 1E 1E 1E 1E 1E 1E 1E 1E 1E 1E 1E 1E 1E 1E 1E 1E 1E 1E 1E 1E 1E 1E 1E E E                    - - - - - - - - - @- @- @- @- @- @- @- @- @- @- @- @- @- @- @- @- @- @- @- @- @- @- @- @- @- @- @- @- @- @- @- @- @- @- @- @- @- @- @- @- @- @- @- @- @- @- @- @- @- @- @- @-1 @-1 -1 -1 -1 -1 1 1 1 1E 1E 1E 1E 1E 1E 1E 1E 1E 1E 1E 1E 1E 1E 1E 1E 1E 1E 1E 1E 1E 1E 1E 1E 1E 1E 1E 1E 1E 1E 1E 1E 1E 1E 1E 1E 1E 1E 1E 1E 1E 1E 1E 1E 1E 1E 1E 1E 1E 1E 1E 1E 1E 1E 1E 1E4 E4 E4 E4 E4G E4G 4G 4G 4G 4G 4G 4G 4G 4G 4G 4G 4G 4G 4G 4G 4G 4G 4G 4G 4G 4G 4G 4G 4G 4G 4G 4G 4G 4G 4G 4G 4G 4G 4G 4G 4G 4G 4G 4G 4G 4G 4G9 4G9 4G9 G9 G9 G9 G9 G9 G9 G9 G9 G9 G9 9 9I 9I 9I 9I 9I 9I 9I 9I 9I 9I 9I 9I 9I 9I 9I 9I 9I 9I 9I 9I 9I 9I 9I 9I 9I 9I 9I 9I 9I 9I 9I 9I 9I 9I 9I 9I 9I 9I 9I 9I 9I 9I 9I 9I 9I 9I 9I 9I 9I6 9I6 9I6 9I6 9I6 9I6 9I6 9I6 I6 I6 I6 I6 IE6 E6 E6 E6 E6 E6 E6 E6 E6 E6 E6 E6 E6 E6 E6 E6 E6 E6 E6 E6 E6 E6 E6 E6 E6 E6 E6 E6 E6 E6 E6 E6 E6 E6 E6 E6 E6 E6 E6 E6 E6 E6 E6 E6 6 6 6 6     ; ; ; ; ; ; ; ; J; J; J; J; J; J; J; J; J; J; J; J; J; J; J; J; J; J; J; J; J; J; J; J; J; J; J; J; J; J; J; J; J; J; J; J; J; J; J; J; J; J; J; J; J; J; J; J; J; J; J; J;9 J;9 J;9 J;9 J;I9 ;I9 ;I9 ;I9 I9 I9 I9 I9 I9 I9 I9 I9 I9 I9 I9 I9 I9 I9 I9 I9 I9 I9 I9 9 9 9 9 9 9 9 9 9 9 9 9 9 9 9 9 9 9 9               ; ; ; ; ; ; ; ; ;J ;J ;J ;J ;J ;J ;J ;J ;J ;J ;J ;J ;J ;J ;J ;J ;J ;J ;J ;J ;J ;J ;J ;J ;J ;J ;J ;J ;J ;J ;J ;J ;J ;J ;J ;J ;J ;J ;J ;J ;J ;J ;J ;J ;J ;J ;J ;J ;J ;J ;J 8J 8J 8J 8J 8J 8J 8J 8J 8J 8J 8J 8J 8J 8J 8J 8J 8J 8J 8J 8J 8J 8J 8J 8J 8J 8J 8J 8J 8J 8J 8J 8J 8J 8J 8J 8J 8J 8J 8J 8J 8J 8J 8J 8J 8J 8J 8J 8J 8J 8J 8J 8J 8J 8J 8J 8J 8J 8J 8J 8J 84J 4J 4J 4J 4J 4J 4J 4J 4J 4J 4J 4J 4J 4J 4J 4J 4J 4J 4J 4J 4J 4J 4J 4J 4J 4J 4J 4J 4J 4J 4J 4J 4J 4J 4J 4J 4J 4J 4J 4J 4J 4J 4J 4J 4J 4J 4J 4J 4J 4J 4J 4J 4J 4J 4J 4J 4J 4J 48J 8J 8J 8J 8J 8J 8J 8J 8J 8J 8J 8J 8J 8J 8J 8J 8J 8J 8J 8J 8J 8J 8J 8J 8J 8J 8J 8J 8J 8J 8J 8J 8J 8J 8J 8J 8J 8J 8J 8J 8J 8J 8J 8J 8J 8J 8J 8J 8J 8J 8J 8J 8J 8J 8J 8J 8J 8J J J9 J9 J9 J9 J9 J9 J9 J9 J9 J9 J9 J9 J9 J9 J9 J9 J9 J9 J9 J9 J9 J9 J9 J9 J9 9 9 9 9 9 9 9 9 9 9 9 9 9 9 9 9 9 9 9 9 9 9 9 9 9 9 9 9 9 9 9 9 9 9 9 9 9 9 9 9 9 9 9 9 9 9 9 9 9 9 9 9 9 9 9 9 9 9 I9 I9 I9 I9 I9 I9 I9 I9 I9 I9 I9 I9 I9 I9 I9 I9 I9 I9 I9 I9 I9 I9 I9 I9 I9 I9 I9 I9 I9 I9 I9 I9 I9 I9 I9 I9 I9 I9 I9 I9 I9 I9 I9 I9 I9 I9 I9 I9 I9 I9 I9 I9 I9 I9 I9 I9 I9 I9 I9 9 9 9 N9 N9 N9 N9 N9 N9 N9 N9 N9 N9 N9 N9 N9 N9 N9 N9 N9 N9 N9 N9 N9 N9 N9 N9 N9 N9 N9 N9 N9 9 9 9 9 9 9 9 9 9 9 9 9 9 9 9 9 9 9 9 9 9 9 9 9 9 9 M9 M9 M9 M9 M9 M9 M9 M9 M9 M9 M9 M9 M9 M9 M9 M9 M9 M9 M9 M9 M9 M9 M9 M9 9 9 9 9 9 9 9 9 9 9 9 9 9 9 9 9 9 9 9 9 9 9 9 9 9 9 9 9 9 9 9 9 9 9 9 9 9 9 9N 9N 9N 9N 9N 9N 9N 9N 9N 9N N N N N N N N N N N N N N N N N N N N N N N N N N N N N N N N N N N N N N N N N N N N N N N N 6N 6N 6N 6N 6N 6N 6N 6N 6N 6N 6N 6N 6N 6N 6N 6N 6N 6N 6N 6N 6N 6N 6N 6N 6N 6N 6N 6N 6N 6N 6N 6N 6N 6N 6N 6N 6N 6N 6N 6N 6N 6N 6N 6N 6N 6N 6N 6N 6N 6N 6N 6N 6N 6N 6N 6N 6N 6N 6N 6=N 6=N 6=N =N =N =N =N =N =N =N =N =N =N =N =N =N =N =N =N =N =N =N =N =N =N =N =N =N =N =N =N =N =N =N =N =N =N =N =N =N =N =N =N =N =N =N =N =N =N =N N N N <N <N <N <N <N <N <N <N <N <N <N <N <N <N <N <N <N <N <N <N <N <N <N <N <N <N <N <N <N <N <N <N <N <N <N <N <N N N N N N N N N N N N N N N N N N N N N N N N N N N N N= N= N= N= N= = = = = = = = = = = = = = = = = = = = = = = = = = = = = = = = = = = = = = = = = = = = = = = = = = = = = = = = = = = D= D= D= D= D= D= D= D= D= D= D= D= D= D= D= D= D= D= D= D= D= D= D= D= D= D= D= D= D= D= D= D= D= D= D= D= D= D= D= D= D= D= D= D= D= D= D= D= D= D= D= D= D= D= D=; D=; D=; =; =; =; =N; =N; =N; =N; =N; =N; =N; =N; =N; =N; =N; =N; =N; =N; =N; =N; =N; =N; =N; =N; =N; =N; =N; =N; =N; =N; =N; =N; =N; N; N; ; ; ; ; ; ; ; ; ; ; ; ; ; ; ;             M M M M M M M M M M M M M M M M M M M M M M M M M M M M M M M M M M M                      = = 9= 9= 9= 9= 9= 9= N9= N9= N9= N9= N9= N9= N9= N9= N9= N9= N9= N9= N9= N9= N9= N9= N9= N9= N9= N9= N9= N9= N9= N9= N9= N9= N9= N9= N9= N9= N9= N9= N9= N9= N9= N9= N9= N9= N9= N9= N9= N9= N9= N9= N9= N9= N9= N9= N9= N9= N9= N9= N9= N9= N9= N9= N9= N9= I9= I9= I9= I9= I9= I9= I9= I9= I9= I9= I9= I9= I9= I9= I9= I9= I9= I9= I9= I9= I9= I9= I9= I9= I9= 9= 9= 9= 9= 9= 9= 9= 9= 9= 9= 9= 9= 9= 9= 9= 9= 9= 9= 9= 9= 9= 9= 9= 9= 9= 9= 9= = = 5= 5= 5= 5= 5= 5= Q5= Q5= Q5= Q5= Q5= Q5= Q5= Q5= Q5= Q5= Q5= Q5= Q5= Q5= Q5= Q5= Q5= Q5= Q5= Q5= Q5= Q5= Q5= Q5= Q5= Q5= Q5= Q5= Q5= Q5= Q5= Q5= Q5= Q5= Q5= Q5= Q5= Q5= Q5= Q5= Q5= Q5= Q5= Q5= Q5= Q5= Q5= Q5= 5= 5= 5= 5= 5P= 5P= 5P= 5P= 5P= P= P= P= P= P= P= P= P= P= P= P= P= P= P= P= P= P= P= P= P= P= P= P= P= P= P= = = = = = = = = = = = = = = = = = = = = = = = = = = = = = = = 6= 6= 6= 6= 6= 6= 6= 6Q= 6Q= 6Q= 6Q= 6Q= 6Q= 6Q= 6Q= 6Q= 6Q= 6Q= 6Q= 6Q= 6Q= 6Q= 6Q= 6Q= 6Q= 6Q= 6Q= 6Q= 6Q= 6Q= 6Q= 6Q= 6Q= 6Q= 6Q= 6Q= 6Q= 6Q= 6Q= 6Q= 6Q= 6Q= 6Q= 6Q= 6Q= 6Q= 6Q= 6Q= 6Q= 6Q= 6Q= 6Q= 6Q= 6Q= 6Q= 6Q= 6Q= Q= 1Q= 1Q= 1Q= 1Q= 1Q= 1Q= 1Q= 1Q= 1Q= 1Q= 1Q= 1Q= 1Q= 1Q= 1Q= 1Q= 1Q= 1Q= 1Q= 1Q= 1Q= 1Q= 1Q= 1Q= 1Q= Q= Q= Q= Q= Q= Q= Q= Q= Q= Q= Q= Q= Q= Q= Q= Q= Q= Q= Q= Q= Q= Q= Q= Q= Q= Q= Q= Q= Q= Q= Q= Q= Q= Q= Q= Q= Q= Q=9 Q=9 Q=9 Q=9 Q=9 Q=9 Q=9 Q=9 =9 =9 =9 =9M =9M =9M =9M =9M =9M =9M =9M =9M =9M =9M =9M =9M =9M =9M =9M =9M =9M =9M =9M =9M =9M =9M =9M =9M =9M =9M =9M =9M =9M =9M =9M =9M =9M =9M =9M =9M =9M =9M =9M 9M 9M 9M 9M 9M 9M 9M 9M 9M8 9M8 M8 M8 M8 M8 M8 M8 M8 M8 M8 M8 M8 M8 M8 M8 M8 M8 M8 M8 M8 M8 M8 M8 M8 M8 M8 M8 M8 M8 M8 M8 M8 M8 8 8 8 8 8 8 8 8 8 8 8 8 8 8 8 8 8 8 8 8 8 8 8       9 9= 9= 9= 9= 9= 9= 9= 9= 9= 9= N9= N9= N9= N9= N9= N9= N9= N9= N9= N9= N9= N9= N9= N9= N9= N9= N9= N9= N9= N9= N9= N9= N9= N9= N9= N9= N9= N9= N9= N9= N9= N9= N9= N9= N9= N9= N9= N9= N9= N9= N9= N9= N9= N9= N9= N9= N9= N9= N9= N9= N9= N9= N9= N9= N9= N9= N9= N9= N9= N9= N9= N9= N9= 9= 9= 9I= 9I= 9I= 9I= 9I= 9I= 9I= 9I= 9I= 9I= 9I= 9I= 9I= 9I= 9I= 9I= 9I= 9I= 9I= 9I= 9I= 9I= 9I= 9I= 9I= 9I= 9I= 9I= 9I= 9I= 9I= 9I= 9I= 9I= 9I= 9I= 9I= 9I= 9I= 9I= I= I= I= = =6 =6 =6 =6 =6 =6 =6 =6 =6 =6 =6 =6 =6 =6 =6N =6N =6N =6N =6N =6N =6N =6N =6N =6N =6N =6N =6N =6N =6N =6N =6N =6N =6N =6N =6N =6N =6N =6N =6N =6N =6N =6N =6N =6N =6N =6N =6N =6N =6N =6N 6N 6N N N N N N N N N N N N N N N N N N NP NP NP P P P P P P P P P P P P P P P P P P P P P P P P P P P P P P P P P P P P P P P P P P P P P P P P P P P P P3 3; 3; 3; 3; Q3; Q3; Q3; Q3; Q3; Q3; Q3; Q3; Q3; Q3; Q3; Q3; Q3; Q3; Q3; Q3; Q3; Q3; Q3; Q3; Q3; Q3; Q3; Q3; Q3; Q3; Q3; Q3; Q3; Q3; Q3; Q3; Q3; Q3; Q3; Q3; Q3; Q3; Q3; Q3; Q3; Q3; Q3; Q3; Q3; Q3; Q3; Q3; Q3; Q3; Q3; Q3; Q3; Q3; Q3; Q3; Q3; Q3; 3; 3G; 3G; 3G; 3G; 3G; 3G; 3G; 3G; 3G; 3G; 3G; 3G; 3G; 3G; 3G; 3G; 3G; 3G; 3G; 3G; 3G; 3G; 3G; 3G; 3G; 3G; 3G; 3G; 3G; 3G; 3G; 3G; 3G; 3G; 3G; 3G; 3G; 3G; 3G; 3G; 3G; 3G; 3G; 3G; 3G; 3G; 3G; 3G; 3G; 3G; 3G; G; G; G; G/; G/; G/; GP/; P/; P/; P/; P/; P/; P/; P/; P/; P/; P/; P/; P/; P/; P/; P/; P/; P/; P/; P/; P/; P/; P/; P/; P/; P/; P/; P/; P/; P/; P/; P/; P/; P/; P/; P/; P/; P/; P/; P/; P/; P/; P/; P/; P/; P/; P/; P/; P/; P/; P/; P/; P/; P/; P/; /; /N; /N; /N; /N; /N; /N; /N; /N; /N; /N; /N; /N; /N; /N; /N; /N; /N; /N; /N; /N; /N; /N; /N; /N; /N; /N; /N; /N; /N; /N; /N; /N; /N; /N; /N; /N; /N; N; N; N; N; N; N; N; N; N; N; N; N; N; N; N; N; N; N; N; N; N; N; N; N; ; 4; 4; 4P; 4P; 4P; 4P; 4P; 4P; 4P; 4P; 4P; 4P; 4P; 4P; 4P; 4P; 4P; 4P; 4P; 4P; 4P; 4P; 4P; 4P; 4P; 4P; 4P; 4P; 4P; 4P; 4P; 4P; 4P; 4P; 4P; 4P; 4P; 4P; 4P; 4P; 4P; 4P; 4P; 4P; 4P; 4P; 4P; 4P; 4P; 4P; 4P; 4P; 4P; 4P; 4P; 4P; 4P; 4P/; 4P/; 4P/; 4P/; 4P/; 4P/; P/; P/; P/; P/; P/; P/; P/; P/; P/; P/; /; /; /; ; ; ; ; ; ; ; ; ; ; ; ; ; ; ; ; ; ; ; ; ; ; ; ; ; ; ; ; ; ; ; ; ; ; ; ; ; ; ; ; ; ; ; ; ; 8; 8; 8; 8; 8; 8; 8; 8; 8; 8; 8K; 8K; 8K; 8K; 8K; 8K; 8K; 8K; 8K; 8K; 8K; 8K; 8K; 8K; 8K; 8K; 8K; 8K; 8K; 8K; 8K; 8K; 8K; 8K; 8K; 8K; 8K; 8K; 8K; 8K; 8K; 8K; 8K; 8K; 8K; 8K; 8K; 8K; 8K; 8K; 8K; 8K; 8K; 8K; 8K; 8K; 8K; K; K; K;6 K;6 K;6 K;6 K;6 K;6 K;6 K;6 K;6 K;6 K;6 K;6 K;6 K;6 ;6 ;6 ;6 ;6 ;6 ;6 ;6 ;6 ;6 ;6 ;6 6 6 6 6 6 6 6 6 6 6 6 6 6 6 6 6 6 6 6 6 6 6 6 6 6 6 6 6 6 6 6 6     8 8 8 8 8 8 8 8 8 8 8 8 L8 L8 L8 L8 L8 L8 L8 L8 L8 L8 L8 L8 L8 L8 L8 L8 L8 L8 L8 L8 L8 L8 L8 L8 L8 L8 L8 L8 L8 L8 L8 L8 L8 L8 L8 L8 L8 L8 L8 L8 L8 L8 L8 L8 L8 L8 L8 L8 L8 L8 L8 L8 L8 L8 L8 L8 L8 L8 L8 L8 G8 G8 G8 G8 G8 G8 G8 G8 G8 G8 G8 G8 G8 G8 G8 G8 G8 G8 G8 G8 G8 G8 G8 G8 G8 G8 G8 G8 G8 G8 G8 G8 G8 G8 G8 G8 G8 G8 G8 G8 G8 G8 G8 G8 G84 G84 G84 G84 G84 G84 G84 G84 G84 G84 G84 G84 84 84 84 84L 84L 84L 84L 84L 84L 84L 84L 84L 84L 84L 84L 84L 84L 84L 84L 84L 84L 84L 84L 84L 84L 84L 84L 84L 84L 84L 84L 84L 84L 84L 84L 84L 84L 84L 84L 84L 84L 84L 84L 84L 84L 84L 84L 84L 4L 4L 4L 4L L L L L L L L L L L L LJ LJ J J J J J J J J J J J J J J J J J J J J J J J J J J J J J J J J J J J J J J J J J J J J J J J J J J- J-9 J-9 J-9 J-9 J-9 J-9 J-9 J-9 JI-9 JI-9 JI-9 JI-9 JI-9 JI-9 JI-9 I-9 I-9 I-9 I-9 I-9 I-9 I-9 I-9 I-9 I-9 I-9 I-9 I-9 I-9 I-9 I-9 I-9 I-9 I-9 I-9 I-9 I-9 I-9 I-9 I-9 I-9 I-9 I-9 I-9 I-9 I-9 I-9 I-9 I-9 I-9 I-9 I-9 I-9 I-9 I-9 I-9 I-9 -9 -9 -9 -9 -9 -9 -9 -9 =-9 =-9 =-9 =-9 =-9 =-9 =-9 =-9 =-9 =-9 =-9 =-9 =-9 =-9 =-9 =-9 =-9 =-9 =-9 =-9 =-9 =-9 =-9 =-9 =-9 =-9 =-9 =-9 =-9 =-9 =-9 =-9 =-9 =-9 =-9 =-9 =-9 =-9 =-9 =-9 =-9 =-9 =-9 =-9 =-9 =-9 =-9 =-9 =-9 =-9 =-9 =-9 =-9 =-9 =-9 =-9 =-9 =-9 =-9 =-9 -9/ -9@/ -9@/ -9@/ -9@/ -9@/ -9@/ -9@/ -9@/ -9@/ -9@/ -9@/ -9@/ -9@/ -9@/ -9@/ -9@/ 9@/ 9@/ 9@/ 9@/ 9@/ 9@/ 9@/ 9@/ 9@/ 9@/ 9@/ 9@/ @/ @/ @/ @/ @/ @/ @/ @/ @/ @/ @/ @/ @/ @/ @/ @/ @/ @/ @/ @/ @/ @/ @/ @/ @/ @/ @/ @/ @/ ?/ ?/ ?/ ?/ ?/ ?/ ?/ ?/ ?/ ?/ ?/ ?/ ?/ ?/ ?/ ?/ ?/ ?/ ?/ ?/ ?/ ?/ ?/ ?/ ?/ ?/ ?/ ?/ ?/ ?/ ?/ ?/ ?/ ?/ ?/ ?/ ?/ ?/ ?/ ?/ ?/ ?/ ?/ ?/ ?/ ?/ ?/ ?/ ?/ ?/ ?/ ?/ ?/ ?/ ?/ ?/ ?/ / / /   @8 @8 @8 @18 @18 @18 @18 @18 @18 @18 @18 @18 @18 @18 @18 @18 @18 @18 @18 @18 @18 @18 @18 @18 @18 @18 @18 @18 @18 @18 @18 @18 @18 @18 @18 @18 @18 @18 @18 @18 @18 @18 @18 @18 @18 @18 18 18 18 18 18 18 18 18 18 1;8 1;8 1;8 ;8 ;8 ;8 ;,8 ;,8 ;,8 ;,8 ;,8 ;,8 ;,8 ;,8 ;,8 ;,8 ;,8 ;,8 ;,8 ;,8 ;,8 ;,8 ;,8 ;,8 ;,8 ,8 ,8 ,8 ,8 ,8 ,8 ,8 ,8 ,8 ,8 ,8 ,8 ,8 ,8 ,8 ,8 ,8 ,8 ,8 ,8 ,8 ,8 ,8 ,8 ,8 ,8 ,8 ,8 ,8 ,8 ,8 ,8 ,8 ,8 ,8 ,8 ,8 ,8 ,8 ,8 ,81@ ,81@ 81@ 81@ 81@ 81@ 81@ 81@ 81@ 81@ 81@ 81@ 81@ 81@ 81@ 81@ 81@ 81@ 81@ 81@ 81@ 81@ 81@ 81@ 81@ 81@ 81@ 81@ 81@ 81@ 81@ 81@ 81@ 81@ 81@ 81@ 81@ 81@ 81@ 81@ 81@ 81@ 81@ 81@ 81@ 81@ 81@ 81@ 81@ 81@ 81@ 81/@ 81/@ 81/@ 81/@ 81/@ 81/@ 81/@ 1/@ 1/@ /@ /@ /@ /@ /@ /@ /@ /@ /@ /@ /@ /@ /@ /@ /@ /@ /@ /@ /@ /@ /@ /@ /@ /@ /@ /@ /@ /@ /@ /@ /@ /@ /@ /@ @ @ @ @ @ @ @ @ @ @ @ @ @ @ @ @ @ @ @ @ @6 -@6 -@6 -@6 -@6 -@6 -@6 -@6 -@6 -@6 -@6 -@6 -@6 -@6 -@6 -@6 -@6 -@6 -@6 -@6 -@6 -@6 -@6 -@6 -@6 -@6 -@6 -@6 -@6 -@6 -@6 -@6 -@6 -@6 -@6 -@6 -@6 -@6 -@6 -@6 -@6 -@6 -@6 -@6 -@6 -@6 -@6 -@6 -@6 -@6 -@6 -@6 -@6 -@6 -@6 -@6 -@6 -@6 -@6 -@6 -@6 -@6 -@6 @*6 @*6 @*6 @*6 @*6 @*6 @*6 @*6 @*6 @*6 @*6 @*6 @*6 @*6 @*6 @*6 @*6 @*6 @*6 @*6 @*6 @*6 @*6 @*6 @*6 @*6 @*6 @*6 @*6 @*6 @*6 @*6 @*6 @*6 @*6 @*6 @*6 @*6 @*6 @*6 @*6 @*6 @*6 @*6 @*6 @*6 @*6 @*6 @*6 @*6 @*6 @*6 @*6 @*6 @*6 @*6 @*6 @*6 @*6 @*6/? 6/? 6/? 6/? 6/? 6/? 6/? 6/? 6/? 6/? 6/? 6/? 6/? 6/? 6/? 6/? 6/? 6/? 6/? 6/? 6/? 6/? 6/? 6/? 6/? 6/? 6/? 6/? 6/? 6/? 6/? 6/? 6/? 6/? 6/? 6/? 6/? 6/? 6/? 6/? 6/? 6/? 6/? 6/? 6/? 6/? 6/? 6/? 6/? 6/? 6/? 6/? 6/? 6/? 6/? 6/? 6/? 6/? 6/? 6/-? /-? /-? /-? /-? /-? /-? /-? /-? -? -? -? -? -? -? -? -? -? -? -? -? -? -? -? -? -? -? -? -? -? -? -? -? -? -? -? -? -? -? ? ? ? ? ? ? ? ? ? ? ? ? ? ? ? ? ? ? ? ? ? ?, ?,4 ?,4 ?,4 ?,4 ?,4 ?,4 ?,4 ?,4 ?,4 ?,4 ?,4 ?,4 ?,4 ?,4 ?,4 ,4 ,@4 ,@4 ,@4 ,@4 ,@4 ,@4 ,@4 ,@4 ,@4 ,@4 ,@4 ,@4 ,@4 ,@4 ,@4 ,@4 ,@4 ,@4 ,@4 ,@4 ,@4 ,@4 ,@4 ,@4 ,@4 ,@4 ,@4 ,@4 ,@4 ,@4 ,@4 ,@4 ,@4 ,@4 ,@4 ,@4 ,@4 ,@4 ,@4 ,@4 ,@4 ,@4 ,@4 ,(@4 ,(@4 (@4 (@4 (@4 (@4 (@4 (@4 (@4 (@4 (@4 (@4 (@4 (@4 (@4 (@4 (@4 (@4 (@4 (@4 (@4 (@4 (@4 (@4 (@4 (@4 (@4 @4 @4 @4 @4 @4 @4 @4 @4 @4 @4 @4 @4 @4 @4 @4 @4 @4 @4 @4 @4 @4 @4 @4 @4 @4 @4 @4 @4 @4 @4 @4 @4 @4 @4 @4 @4 @4 @4 1@4 1@4 1@4 1@4 1@4 1@4 1@4 1@4 1@4 1@4 1@4 1@4 1@4 1@4 1@4 1@4 1@4 1@4 1@4 1@4 1@4 1@4 1@4 1@4 1@4 1@4 1@4 1@4 1@4 1@4 1@4 1@4 1@4 1@4 1@4 1@4 1@4 1@4 1@4 1@4 1@4 1@4 1@4 1@4 1@4 1@4 1@4 1@4 1@4 1@4 1@4 1@4 @4 @4 @4 /@4 /@4 /@4 /@4 /@4 /@4 /@4 /@4 /@4 /@4 /@4 /@4 /@4 /@4 /@4 /@4 /@4 /@4 /@4 /@4 /@4 /@4 /@4 /@4 /@4 /@4 /@4 /@4 /@4 /@4 /@4 /@4 /@4 /@4 /@4 /@4 /@4 /@4 /@4 /@4 /@4 /@4 /@4 /@4 /@4 /@4 /@4 /@4 /@4 /@4 /@4 /@4 /@4 /@4 /@4 /@4 /@4 /@4 /@4 /@4 /@41 @41 @41 @41 @41 @41 @41 @41 @41 @41 @41 @41 @41 @41 @41 @41 @41 @41 @41 @41 @41 @41 @41 @41 @41 @41 @41 @41 @41 @41 @41 @41 @41 @41 @41 @41 @41 @41 @41 @41 @41 @41 @41 @41 @41 @41 @41 @41 @41 @41 @41 @41 @41 @41 @41 @41 @41 @41 41 41 41 41 41 41 41 =41 =41 =41 =41 =41 =41 =41 =41 =41 =41 =41 =41 =41 =41 =41 =41 =41 =41 =41 =41 =41 =41 =41 =41 =41 =41 =41 =41 =41 =41 =41 =41 =41 =41 =41 =41 =41 =41 =41 =41 =41 =41 =41 =41 =41 =41 =41 =41 =41 =41 =41 =41 =41 =41 =41 =41 =E41 =E41 =E41 =E41 E41 E41 E41 E41 E41 E41 E41 E41 E41 E41 E41 E41 E41 E41 E41 E41 E41 E41 E41 E41 E41 E41 E41 E41 E41 E41 E41 E41 E41 E41 E41 E41 E41 E41 E41 E41 E41 E41 E41 E41 E41 E41 E41 E41 E41 E41 E41 E41 E41 E41 E41 E41 E41 E41 E41 E4D1 E4D1 4D1 4D1 4D1 4D1 4D1 4D1 4D1 4D1 4D1 4D1 4D1 4D1 4D1 4D1 4D1 4D1 4D1 4D1 4D1 4D1 4D1 4D1 4D1 4D1 4D1 4D1 4D1 4D1 4D1 4D1 4D1 4D1 4D1 4D1 4D1 4D1 4D1 4D1 4D1 4D1 4D1 4D1 4D1 4D1 4D1 4D1 4D1 4D1 4D1 4D1 4D1 4D1 4D1 4D1 4D1 1 1 1 1 1 1 1 1E 1@E 1@E 1@E 1@E 1@E 1@E 1@E 1@E 1@E 1@E 1@E 1@E 1@E 1@E 1@E 1@E 1@E 1@E 1@E 1@E 1@E 1@E 1@E 1@E 1@E 1@E 1@E 1@E 1@E 1@E 1@E 1@E 1@E 1@E 1@E 1@E 1@E 1@E 1@E 1@E 1@E 1@E 1@E 1@E 1@E 1@E 1@E 1@E 1@E 1-@E 1-@E -@E -@E -@E -@E -@E -@E -@E -@E -@E -@E -@E -@E -@E -@E -@E -@E -@E -@E -@E -@E -@E -@E -@E -@E -@E -@E -@E -@E -@E -@E -@E -@E -@E -@E -@E -@E -@E -@E -@E -@E -@E -@E -@E -@E -@E -@E -@E -@E -@E -@E -@E -@E -@E -@E -@E -@E -@E -@E -@E -@E -@6E -@6E -@6E -@6E @6E @6E @6E @6E @6E @6E @6E @6E @6E @6E @6E @6E @6E @6E @6E @6E @6E @6E @6E @6E @6E @6E @6E @6E @6E @6E @6E @6E @6E 6E 6E 6E 6E 6E 6E 6E 6E 6E 6E 6E 6E 6E 6E 6E 6E 6E 6E 6E 6E 6E 6E 6E E E E 4E 4E 4E 4E 4E 4E 4E 4E 4E 4E 4E 4E 4E 4E 4E 4E 4E 4E 4E 4E 4E 4E 4E 4E 4E 4E 4E 4E 4E 4E 4E 4E 4E 4E 4E 4E 4E 4E 4E 4E 4E 4E 4E 4E 4E 4E 4E 4E 4E 4E 4E 4E 4E 4E 4E 4E 4E 4E E6 E6 E6 E6 E6 E6 E6 E6 E6 E6 E6 E6 E6@ E6@ E6@ E6@ E6@ E6@ E6@ E6@ E6@ E6@ E6@ E6@ E6@ E6@ E6@ E6@ E6@ E6@ E6@ E6@ E6@ E6@ E6@ E6@ E6@ E6@ E6@ E6@ E6@ E6@ E6@ E6@ E6@ E6@ E6@ E6@ E6@ E6@ E6@ E6@ E6@ E6@ E6@ E6@ E6@ E6@ E6@ E6@ E6@ E6@ E6@ E6@ E6@ E6@ E6@ E6@ E6@ E6@ E6@ 6@ B6@ B6@ B6@ B6@ B6@ B6@ B6@ B6@ B6@ B6@ B6@ B6@ B6@ B6@ B6@ B6@ B6@ B6@ B6@ B6@ B6@ B6@ B6@ B6@ B6@ B6@ B6@ B6@ B6@ B6@ B6@ B6@ B6@ B6@ B6@ B6@ B6@ B6@ B6@ B6@ B6@ B6@ B6@ B6@ B6@ B6@ B6@ B6@ B6@ B6@ B6@ B6@ B6@ B6@ B6@ B6@ 6@ I6@ I6@ I6@ I6@ I6@ I6@ I6@ I6@ I6@ I6@ I6@ I6@ I6@ I6@ I6@ I6@ I6@ I6@ I6@ I6@ I6@ I6@ I6@ I6@ I6@ I6@ I6@ I6@ I6@ I6@ I6@ I6@ I6@ I6@ I6@ I6@ I6@ I6@ I6@ I6@ I6@ I6@ I6@ I6@ I6@ I6@ I6@ I6@ I6@ I6@ I6@ 6@ 6@ 6@ 6@ 6@ 6@ G6@ G6@ G6@ G6@ G6@ G6@ G6@ G6@ G6@ G6@ G6@ G6@ G6@ G6@ G6@ G6@ G6@ G6@ G6@ G6@ G6@ G6@ G6@ G6@ G6@ G6@ G6@ G6@ G6@ G6@ G6@ G6@ G6@ G6@ G6@ G6@ G6@ G6@ G6@ G6@ G6@ G6@ G6@ G6@ G6@ G6@ G6@ 6@ 6@ @ @ @ @ @ @ @ @ @ @ @ @ @ @ @ @I @I @I @I @I @I @I @I @I @I @I @I @I @I @I @I @I @I @I @I @I @I @I @I @I @I @I @I @I @I @I @I @I @I @I @I @I @I @I @I @I @I @I @I @I @I @I @I /@I /@I /@I /@I /@I /@I /@I /@I /@I /@I /@I /@I /@I /@I /@I /@I /@I /@I /@I /@I /@I /@I /@I /@I /@I /@I /@I /@I /@I /@I /@I /@I /@I /@I /@I /@I /@I /@I /@I /@I /@I /@I /@I /@I /@I /@I /@I /@I /@I /@I /@I /@I /@I /@I /@I /@I /@I /@I /@I @I ;@I ;@I ;@I ;@I ;@I ;@I ;@I ;@I ;@I ;@I ;@I ;@I ;@I ;@I ;@I ;@I ;@I ;@I ;@I ;@I ;@I ;@I ;@I ;@I ;@I ;@I ;@I ;@I ;@I ;@I ;@I ;@I ;@I ;@I ;@I ;@I ;@I ;@I ;@I ;@I ;@I ;@I ;@I ;@I ;@I ;@I ;@I ;@I ;@I ;@I ;@I ;@I ;@I ;@I ;@I @I @9I @9I @9I @9I @9I @9I @9I @9I @9I @9I @9I @9I @9I @9I @9I @9I @9I @9I @9I @9I @9I @9I @9I @9I @9I @9I @9I @9I @9I @9I @9I @9I @9I @9I @9I @9I @9I @9I @9I @9I @9I @9I @9I @9I @9I @9I @9I @9I 9I 9I 9I 9I> 9I> 9I> 9I> 9I> 9I> 9I> 9I> 9I> 9I> 9I> 9I> 9I> I;> I;> I;> I;> I;> I;> I;> I;> I;> I;> I;> I;> I;> I;> I;> I;> I;> I;> I;> I;> I;> I;> I;> I;> I;> I;> I;> I;> I;> I;> I;> I;> I;> I;> I;> I;> I;> I;> I;> I;> I;> I;> I;> ;> ;> ;> ;> ;> ;> ;> B;> B;> B;> B;> B;> B;> B;> B;> B;> B;> B;> B;> B;> B;> B;> B;> B;> B;> B;> B;> B;> B;> B;> B;> B;> B;> B;> B;> B;> B;> B;> B;> B;> B;> B;> B;> B;> B;> B;> B;> B;> B;> B;> B;> B;> B;> B;> B;> B;> B;> B;> B;> B;> B;> B;> B;> B;> B;> ;> ;8> ;8> ;8>G 8>G 8>G 8>G 8>G 8>G 8>G 8>G 8>G 8>G 8>G 8>G 8>G 8>G 8>G 8>G 8>G 8>G 8>G 8>G 8>G 8>G 8>G 8>G 8>G 8>G 8>G 8>G 8>G 8>G 8>G 8>G 8>G 8>G 8>G 8>G 8>G 8>G 8>G 8>G 8>G 8>G 8>G 8>G 8>G 8>G 8>G 8>G 8>G >G >G >4G >4G >@4G >@4G >@4G >@4G >@4G >@4G >@4G >@4G >@4G >@4G @4G @4G @4G @4G @4G @4G @4G @4G @4G @4G @4G @4G @4G @4G @4G @4G @4G @4G 4G 4G 4G 4G 4G 4G 4G 4G 4G 4G 4G 4G 4G 4G 4G 4G 4G 4G 4G 4G 4G 4G 4G 4G 4G 4G 4G 4G 4G 4G 4G 4G 4G 4G G9 G9= G9= G9= G9= G9= G9= G9= G9= G9= G9= G9= G9= G9= G9= G9= G9= G9= G9= G9= G9= G9= G9= G9= G9= G9= G9= G9= G9= G9= G9= G9= G9= G9= G9= G9= G9= G9= G9= G9= G9= G9= G9= G9= G9= G9= G9= G9= G9= G9= G9= G9= G9= G9= G9= G9= G9= G9= G9= G9= G9= G9= G9= G9= G9= G9= 9= 9= 9@= 9@= 9@= 9@= 9@= 9@= 9@= 9@= 9@= 9@= 9@= 9@= 9@= 9@= 9@= 9@= 9@= 9@= 9@= 9@= 9@= 9@= 9@= 9@= 9@= 9@= 9@= 9@= 9@= 9@= 9@= 9@= 9@= 9@= 9@= 9@= 9@= 9@= 9@= 9@= 9@= 9@= 9@= 9@= 9@= 9@= 9@= 9@= 9@= 9@= 9@= 9@= 9@= 9@= 9@= 9@= 9@= 9@= 9@= 9@= 9@8= @8= @E8= @E8= @E8= @E8= E8= E8= E8= E8= E8= E8= E8= E8= E8= E8= E8= E8= E8= E8= E8= E8= E8= E8= E8= E8= E8= E8= E8= E8= E8= E8= E8= E8= E8= E8= E8= E8= E8= E8= E8= E8= E8= E8= E8= E8= E8= E8= E8= E8= E8= E8= E8= E8= E8= E8= E8= E8= E8= E8= E8= 8= 8= 8D= 8D= 8D= 8D= 8D= 8D= 8D= 8D= 8D= 8D= 8D= 8D= 8D= 8D= 8D= 8D= 8D= 8D= 8D= 8D= 8D= 8D= 8D= 8D= 8D= 8D= 8D= 8D= 8D= 8D= 8D= 8D= 8D= 8D= 8D= 8D= 8D= 8D= 8D= 8D= 8D= 8D= 8D= 8D= 8D= 8D= 8D= 8D= 8D= 8D= 8D= 8D= 8D= D= D= D= D=6 D=6 D=6 D=6 D=6 D=6E D=6E D=6E D=6E =6E =6E =6E 6E 6E 6E 6E 6E 6E 6E 6E 6E 6E 6E 6E 6E 6E 6E 6E 6E 6E 6E 6E 6E 6E 6E 6E 6E 6E 6E 6E 6E 6E 6E 6E 6E 6E 6E 6E 6E 6E 6E 6E 6E 6E 6E 6E 6E 6E 6E 6E 6E 6E 6E 6E 6E 6E 6E 6E 6E 6E 6=E 6=E 6=E 6=E 6=E 6=E 6=E 6=E 6=E 6=E 6=E 6=E 6=E 6=E 6=E 6=E 6=E 6=E 6=E 6=E 6=E 6=E 6=E 6=E 6=E 6=E 6=E 6=E 6=E 6=E 6=E 6=E 6=E 6=E 6=E 6=E 6=E 6=E 6=E 6=E 6=E 6=E 6=E 6=E 6=E 6=E 6=E 6=E 6=E 6=E 6=E 6=E 6=E 6=E 6=4E 6=4E 6=4E =4E =4E =4E =4E =B4E =B4E B4E B4E B4E B4E B4E B4E B4E B4E B4E B4E B4E B4E B4E B4E B4E B4E B4E B4E B4E B4E B4E B4E B4E B4E B4E B4E B4E B4E B4E B4E B4E B4E B4E B4E B4E B4E B4E B4E B4E B4E B4E B4E B4E B4E B4E B4E B4E B4E B4E B@4E B@4E B@4E B@4E B@4E B@4E B@4E B@4E @4E @4E @4E @4E @4E @4E @4E @4E @4E @4E @4E @4E @4E @4E @4E @4E @4E @4E @4E @4E @4E @4E @4E @4E @4E @4E @4E @4E @4E @4E @4E @4E @4E @4E @4E 4E 4E 4E 4E 4E 4E 4E 4E 4E 4E 4E 4E 4E 4E 4E 4E 4E 4E 4E 4E 4E 4E 4E 4E2 4E2 4E2 4E2 4E2 4E2B E2B E2B E2B 2B 2B 2B 2B 2B 2B 2B 2B 2B 2B 2B 2B 2B 2B 2B 2B 2B 2B 2B 2B 2B 2B 2B 2B 2B 2B 2B 2B 2B 2B 2B 2B 2B 2B 2B 2B 2B 2B 2B 2B 2B 2B 2B 2B 2B 2B 2B 2B 2B 2B 2B 26B 26B 26B 26B 26B 6B 6B 6B 6B 6B 6B 6B 6EB 6EB 6EB 6EB 6EB 6EB 6EB 6EB 6EB 6EB 6EB 6EB 6EB 6EB 6EB 6EB 6EB 6EB 6EB 6EB 6EB 6EB 6EB 6EB 6EB 6EB 6EB 6EB 6EB 6EB 6EB 6EB 6EB 6EB 6EB 6EB 6EB 6EB 6EB 6EB 6EB 6EB 6EB 6EB 6EB 6EB 6EB EB EB EB EB E;B E;B E;B E;B E;B E;B E;B E;B E;B EJ;B EJ;B EJ;B J;B J;B J;B J;B J;B J;B J;B J;B J;B J;B J;B J;B J;B J;B J;B J;B J;B J;B J;B J;B J;B J;B J;B J;B J;B J;B J;B J;B J;B J;B J;B J;B J;B J;B J;B J;B J;B J;B J;B J;B J;B J;B J;B J;B J;B J;B J;B J;B J;B9 J;B9 J;B9 J;B9 J;B9 J;B9I J;B9I ;B9I B9I B9I B9I B9I B9I B9I B9I B9I B9I 9I 9I 9I 9I 9I 9I 9I 9I 9I 9I 9I 9I 9I 9I 9I 9I 9I 9I 9I 9I 9I 9I 9I 9I 9I 9I 9I 9I 9I 9I 9I 9I 9I 9I 9I 9I 9I 9I 9I 9I 9I 9I 9I 9I 9I I I I8 I8J 8J 8J@ 8J@ 8J@ 8J@ 8J@ 8J@ 8J@ 8J@ 8J@ 8J@ 8J@ 8J@ 8J@ 8J@ 8J@ 8J@ 8J@ 8J@ 8J@ 8J@ 8J@ 8J@ 8J@ 8J@ 8J@ 8J@ 8J@ 8J@ 8J@ 8J@ 8J@ 8J@ 8J@ 8J@ 8J@ 8J@ 8J@ 8J@ 8J@ 8J@ 8J@ 8J@ 8J@ 8J@ 8J@ 8J@ 8J@ 8J@ 8J@ 8J@ 8J@ 8J@ 8J@ 8J@ 8J@ J@ J@ J;@ J;@ J;@ J;@ J;@ J;@ J;@ ;D@ ;D@ ;D@ ;D@ ;D@ ;D@ ;D@ ;D@ ;D@ ;D@ ;D@ ;D@ ;D@ ;D@ ;D@ ;D@ ;D@ ;D@ ;D@ ;D@ ;D@ ;D@ ;D@ ;D@ ;D@ ;D@ ;D@ ;D@ ;D@ ;D@ ;D@ ;D@ ;D@ ;D@ ;D@ ;D@ ;D@ ;D@ ;D@ ;D@ ;D@ ;D@ ;D@ ;D@ ;D@ ;D@ ;D@ ;D@ D@ D@ D@ D@ D@ D@ D:@ D:@ D:@ D:@ D:@ D:I@ D:I@ D:I@ :I@ :I@ :I@ :I@ :I@ :I@ :I@ :I@ :I@ :I@ :I@ :I@ :I@ :I@ :I@ :I@ :I@ :I@ :I@ :I@ :I@ :I@ :I@ :I@ :I@ :I@ :I@ :I@ :I@ :I@ :I@ :I@ :I@ :I@ :I@ :I@ :I@ :I@ :I@ :I@ :I@ :I@ :I@ :I@ :I@ :I@ :I@ :I@ :I@ :I@ I8@ I8@ I8@ I8@ I8@ I8@ 8@ 8G@ 8G@ 8G@ 8G@ 8G@ 8G@ 8G@ 8G@ 8G@ 8G@ 8G@ 8G@ 8G@ 8G@ 8G@ 8G@ 8G@ 8G@ 8G@ 8G@ 8G@ 8G@ 8G@ 8G@ 8G@ 8G@ 8G@ 8G@ 8G@ 8G@ 8G@ 8G@ 8G@ 8G@ 8G@ 8G@ 8G@ 8G@ 8G@ 8G@ 8G@ 8G@ 8G@ 8G@ 8G@ 8G@ 8G@ 8G@ 8G@ 8G@ 8G@ 8G@ 8G@ 8G@ G@ G@ G:@ G:@ G:@ G:@ G:@ G:@ :@ :@I :@I :@I :@I :@I :@I :@I :@I :@I :@I :@I :@I :@I :@I :@I :@I :@I :@I :@I :@I :@I :@I :@I :@I :@I :@I :@I :@I :@I :@I :@I :@I :@I :@I :@I :@I :@I :@I :@I :@I :@I :@I :@I :@I :@I :@I :@I :@I :@I :6@I 6@I 6@I 6@I 6@I 6@I 6@I 6@I 6@I 6@I 6@I 6@I 6@I 6@I 6@I 6@I 6@I 6@I 6@I 6@I 6@I 6@I 6@I 6@I 6@I 6@I 6@I 6@I 6@I 6@I 6@I 6@I 6@I 6@I 6@I 6@I 6@I 6@I 6@I 6@I 6@I 6@I 6@I 6@I 6@I 6@I 6@I 6@I 6@I 6@I 6@I @I @I @;I @;I @;I @;I @;I @;I ;I ;I ;I ;I ;I ;I ;I ;I ;>I ;>I ;>I ;>I ;>I ;>I ;>I ;>I ;>I ;>I ;>I ;>I ;>I ;>I ;>I ;>I ;>I ;>I ;>I ;>I ;>I ;>I ;>I ;>I ;>I ;>I ;>I ;>I ;>I ;>I ;>I ;>I ;>I ;>I ;>I ;>I ;>I ;>I ;>I ;>I ;>I ;>I ;>I ;>I ;>I ;>I ;>I >I >:I >:I >:I >:I >:I >:I >:I >:I >:I :I =:=I =:=I =:=I =:=I =:=I =:=I =:=I =:=I =:=I =:=I =:=I =:=I =:=I =:=I =:=I =:=I =:=I =:=I =:=I =:=I =:=I =:=I =:=I =:=I =:=I =:=I =:=I =:=I =:=I =:=I =:=I =:=I =:=I =:=I =:=I =:=I =:=I =:=I =:=I =:=I =:=I =:=I =:=I =:=I =:=I =:=I :=I :=I :=I =I =I; =I; =I; =I; =I; =I; =I; =I; I; I; I; I; I;> ;> ;> ;> ;> ;> ;> ;> ;> ;> ;> ;> ;> ;> ;> ;> ;> ;> ;> ;> ;> ;> ;> ;> ;> ;> ;> ;> ;> ;> ;> ;> ;> ;> ;> ;> ;> ;> ;> ;> ;> ;> ;> ;> ;> ;> ;> ;> ;> ;> ;> ;> 9> 9> 9> 9> 9> 9> 9> 9> 9> 9B> 9B> 9B> 9B> 9B> 9B> 9B> 9B> 9B> 9B> 9B> 9B> 9B> 9B> 9B> 9B> 9B> 9B> 9B> 9B> 9B> 9B> 9B> 9B> 9B> 9B> 9B> 9B> 9B> 9B> 9B> 9B> 9B> 9B> 9B> 9B> 9B> 9B> 9B> 9B> 9B> 9B> 9B> 9B> 9B> 9B> 9B> 9B> 9B> 9B> 9B> 9B8> 9B8> 9B8> 9B8> B8> B8> B8> B8> B8> B8> B8> B8> 8> 8G> 8G> 8G> 8G> 8G> 8G> 8G> 8G> 8G> 8G> 8G> 8G> 8G> 8G> 8G> 8G> 8G> 8G> 8G> 8G> 8G> 8G> 8G> 8G> 8G> 8G> 8G> 8G> 8G> 8G> 8G> 8G> 8G> 8G> 8G> 8G> 8G> 8G> 8G> 8G> 8G> 8G> 8G> 8G> 8G> 8G> 8G> 8G> 8G6> 8G6> 8G6> 8G6> G6> G6> G6> G6> G6> G6> G6E> G6E> G6E> 6E> 6E> 6E> 6E> 6E> 6E> 6E> 6E> 6E> 6E> 6E> 6E> 6E> 6E> 6E> 6E> 6E> 6E> 6E> 6E> 6E> 6E> 6E> 6E> 6E> 6E> 6E> 6E> 6E> 6E> 6E> 6E> 6E> 6E> 6E> 6E> 6E> 6E> 6E> 6E> 6E> 6E> 6E> 6E> 6E> 6E> 6E> E> E> E> E>5 E>5 >5 >5 >G5 >G5 >G5= >G5= >G5= >G5= >G5= >G5= >G5= G5= G5= G5= G5= G5= G5= G5= G5= G5= G5= G5= G5= G5= G5= G5= G5= G5= G5= G5= G5= G5= G5= G5= G5= G5= G5= G5= G5= G5= G5= G5= G5= G5= G5= G5= G5= G5= G5= G5= G5= G5= G5= G5= G5= G5= G5= G5= G5= G5= 51= 51= 51= 51A= 1A= 1A= 1A= 1A= 1A= 1A= 1A= 1A= 1A= 1A= 1A= 1A= 1A= 1A= 1A= 1A= 1A= 1A= 1A= 1A= 1A= 1A= 1A= 1A= 1A= 1A= 1A= 1A= 1A= 1A= 1A= 1A= 1A= 1A= 1A= 1A= 1A= 1A= 1A= 1A= 1A= 1A= 1A= 1A= 1A= 1A= 1A= 1A= 1A= 1A= 1A= 1A= 1A= 1A= 1A= 1A6= A6= A6= A6= 6= E6= E6= E6= E6= E6= E6= E6= E6= E6= E6= E6= E6= E6= E6= E6= E6= E6= E6= E6= E6= E6= E6= E6= E6= E6= E6= E6= E6= E6= E6= E6= E6= E6= E6= E6= E6= E6= E6= E6= E6= E6= E6= E6= E6= E6= E6= E6= E6= E6= E6= E6= E6= E6= E6= E6= E6= E6= 65= 65= 65= 5D= 5D= 5D= 5D= 5D= 5D= 5D= 5D= 5D= 5D= 5D= 5D= 5D= 5D= 5D= 5D= 5D= 5D= 5D= 5D= 5D= 5D= 5D= 5D= 5D= 5D= 5D= 5D= 5D= 5D= 5D= 5D= 5D= 5D= 5D= 5D= 5D= 5D= 5D= 5D= 5D= 5D= 5D= 5D= 5D= 5D= 5D= 5D= 5D= 5D= D=6 D=6 D=6 =6 =6 =6 =6 =6E =6E =6E =6E =6E =6E =6E =6E =6E =6E =6E =6E =6E 6E 6E 6E 6E 6E 6E 6E 6E 6E 6E 6E 6E 6E 6E 6E 6E 6E 6E 6E 6E 6E 6E 6E 6E 6E 6E 6E 6E 6E 6E 6E 6E 6E 6E 6E E E E E E E E E* E* E* E* E* E* E*9 E*9 E*9 E*9 E*9 E*9 E*9 *9 *9 *9 *9 *9 *9 *9 *9 *9 *9 *9 *9 *9 *9 *9 *9 *9 *9 *9 *9 *9 *9 *9 *9 *9 *9 *9 *9 *9 *9 *9 *9 *9 *9 *9 *9 *9 *9 *9 9 9 9 9 9 9 9 96 96 96 96 96 96> 96> 96> 96> 96> 96> 96> 6> 6> 6> 6> 6> 6> 6> 6> 6> 6> 6> 6> 6> 6> 6> 6> 6> 6> 6> 6> 6> 6> 6> 6> 6> 6> 6> 6> 6> 6> 6> 6> 6> 6> 6> 6> 6> 6> 6> 6> 6> 6> 6> > > > >4 >4 4 4 4 4 =4 =4 =4 =4 =4 =4 =4 =4 =4 =4 =4 =4 =4 =4 =4 =4 =4 =4 =4 =4 =4 =4 =4 =4 =4 =4 =4 =4 =4 =4 =4 =4 =4 =4 =4 =4 =4 =4 =4 =4 =4 =4 =4 =4 =4 =4 =4 =4 =4 =4 =4 =4 =42 =42 =42 42 2 2 2 2 2 2B 2B 2B 2B 2B 2B 2B 2B 2B 2B 2B 2B 2B 2B 2B 2B 2B 2B 2B 2B 2B 2B 2B 2B 2B 2B 2B 2B 2B 2B 2B 2B 2B 2B 2B 2B 2B 2B 2B 2B 2B 2B 2B6 B6 B6 B6 B6 B6 B6 B6 B6 B6 B6 6 6 6 6 6> 6> 6> 6> 6> 6> 6> 6> 6> 6> 6> 6> 6> 6> 6> 6> 6> 6> 6> 6> 6> 6> 6> 6> 6> 6> 6> 6> 6> 6> 6> 6> 6> 6> 6> 6> 6> 6> 6> 6> 6> 6> 6> 6> 6> 6> 6> 6> 6> 6> 6> 6> 6> > >; >; >; >; >; >; >; >; >; >; >; >; >; >; >;D >;D >;D ;D ;D ;D ;D ;D ;D ;D ;D ;D ;D ;D ;D ;D ;D ;D ;D ;D ;D ;D ;D ;D ;D ;D ;D ;D ;D ;D ;D ;D ;D ;D ;D ;D ;D ;D ;D ;D ;D ;D ;D ;D ;D ;D ;D D9 D9 D9 D9 D9 D9 D9 9 9 9 9E 9E 9E 9E 9E 9E 9E 9E 9E 9E 9E 9E 9E 9E 9E 9E 9E 9E 9E 9E 9E 9E 9E 9E 9E 9E 9E 9E 9E 9E 9E 9E 9E E E E G G G G G G G G G G G G G G G G G G G G G8 G8 G8 G8 G8 G8 G8 G8 G8 G8 G8 G8 G8 8 8@ 8@ 8@ 8@ 8@ 8@ 8@ 8@ 8@ 8@ 8@ 8@ 8@ 8@ 8@ 8@ 8@ 8@ 8@ 8@ 8@ 8@ 8@ 8@ 8@ 8@ 8@ 8@ 8@ 8@ 8@ 8@ 8@ 8@ 8@ 8@ 8@ 8@ 8@ 8@ 8@ 8@ 89@ 9@ 9@ 9@ 9@ 9@ 9@ 9@ 9@ 9@ 9@ 9@ 9@ 9@ 9@ 9G@ 9G@ 9G@ 9G@ 9G@ 9G@ 9G@ 9G@ 9G@ 9G@ 9G@ 9G@ 9G@ 9G@ 9G@ 9G@ 9G@ 9G@ 9G@ 9G@ 9G@ 9G@ 9G@ 9G@ 9G@ 9G@ 9G@ 9G@ 9G@ 9G@ 9G@ 9G@ 9G@ 9G@ 9G@ 9G@ 9G@ 9G@ 9G@ 9G@ 9G@ 9G@ 9G8@ 9G8@ 9G8@ 9G8@ 9G8@ G8@ G8@ G8@ G8@ G8@ G8@ G8@ G8@ G8@ G8L@ G8L@ G8L@ G8L@ G8L@ 8L@ 8L@ 8L@ 8L@ 8L@ 8L@ 8L@ 8L@ 8L@ 8L@ 8L@ 8L@ 8L@ 8L@ 8L@ 8L@ 8L@ 8L@ 8L@ 8L@ 8L@ 8L@ 8L@ 8L@ 8L@ 8L@ 8L@ 8L@ 8L@ 8L@ 8L@ 8L@ 8L@ 8L@ 8L@ L@ L@ L6@ L6@ L6@ L6@ L6@ L6@ L6@ L6@ L6@ L6@ L6@ L6@ L6@ L6@ L6@ L6N@ L6N@ L6N@ L6N@ L6N@ L6N@ L6N@ L6N@ 6N@ 6N@ 6N@ 6N@ 6N@ 6N@ 6N@ 6N@ 6N@ 6N@ 6N@ 6N@ 6N@ 6N@ 6N@ 6N@ 6N@ 6N@ 6N@ 6N@ 6N@ 6N@ 6N@ 6N@ 6N@ 6N@ 6N@ 6N@ 6N@ 6N@ 6N@ 6N@ 6N@ 6N@ N@ N@ N@ N@ N4@ N4@ N4@ N4@ N4@ N4@ N4@ N4@ N4@ N4@ N4@ N4@ N4@ N4@ NP4@ P4@ P4@ P4@ P4@ P4@ P4@ P4@ P4@ P4@ P4@ P4@ P4@ P4@ P4@ P4@ P4@ P4@ P4@ P4@ P4@ P4@ P4@ P4@ P4@ P4@ P4@ P4@ P4@ P4@ P4@ P4@ P4@ P4@ P4@ P4@ P4@ P4@ P4@ P4@ P4@ P4@ P4@ P4@ P4@ P4@ P4@ P4@ P4@ P4@ P4@ P4@ P4@ P4@ PL4@ L4@ L4@ L4@ L4@ L4@ L4@ L4@ L4@ L4@ L4@ L4@ L4@ L4@ L4@ L4@ L4@ L4@ L4@ L4@ L4@ L4@ L4@ L4@ L4@ L4@ L4@ L4@ L4@ L4@ L4@ L4@ L4@ L4@ L4@ L4@ L4@ L4@ L4@ L4@ L4@ L4@ L4@ L4@ L4@ L4@ L4@ L4@ L4@ L4@ L4@ L4@ L4@ L4@ L4@ L4@ L4@ L4@ 4@ 4@ 4@ 4@ 4@ 4@ 4@ 4@8 4@8 4@8 4@8 @8 @8 @8 @8 @8 @8 @8 @8 @8 @8 @8 @8 @8 @8 @8 @8 @8 @8S @8S @8S @8S @8S @8S @8S @8S @8S @8S @8S @8S @8S @8S @8S @8S @8S @8S @8S @8S @8S @8S @8S @8S @8S 8S 8S 8S 8S 8S 8S 8S 8S 8S 8S 8S 8S 8S 8S 8S 8S >8S >8S >8S >8S >8S >8S >8S >8S >8S >8S >8S >8S >8S >8S >8S >8S >8S >8S >8S >8S >8S >8S 8S 8S 8S 8S 8S 8S 8S 8S 8S 8S 8S 8S 8S 8S S S S S S S S S S S S S S S S S S S S S S S S S S S S S S S S S S= S= S9= S9= S9= S9= S9= S9= S9= S9= S9= S9= S9= S9= S9= S9= S9= S9= S9= S9= S9= S9= S9= S9= S9= S9= S9= S9= S9= S9= S9= S9= S9= S9= S9= S9= S9= S9= S9= S9= S9= S9= S9= S9= S9= S9= S9= S9= S9= S9= S9= S9= S9= S9= S9Q= S9Q= S9Q= S9Q= S9Q= S9Q= S9Q= 9Q= 9Q= 9Q= 9Q= 9Q= 9Q= 9Q= 9Q= 9Q= 9Q= 9Q= 9Q= 9Q= 9Q= 9Q= 9Q= 9Q= 9Q= 9Q= 9Q= 9Q= 9Q= 9Q= 9Q= 9Q= 9Q= 9Q= 9Q= 9Q= 9Q= 9Q= 9Q= 9Q= 9Q= 9Q= 9Q= 9Q= 9Q= 9Q= 9Q= 9Q= 9Q= 9Q= 9Q= 9Q= 9Q= 9Q= 9Q= 9Q= 9Q= 9Q= 9Q= Q= Q=3 Q=3 QP=3 QP=3 QP=3 QP=3 P=3 P=3 P=3 P=3 P=3 P=3 P=3 P=3 P=3 P=3 P=3 P=3 P=3 P=3 P=3 P=3 P=3 P=3 P=3 P=3 P=3 P=3 P=3 P=3 P=3 P=3 P=3 P=3 P=3 P=3 P=3 P=3 P=3 P=3 P=3 P=3 P=3 P=3 P=3 P=3 P=3 P=3 P=3 P=3 P=3 P=3 =3 =3 3 3    N N N N N N N N N N N N N N N N N N N N N N N N N N N N N N N N N N N N N N N N N N N N N N N N N N N N N N N N N N N N N NP NP4 NP4 NP4 NP4; P4; P4; P4; P4; P4; P4; P4; P4; P4; P4; P4; P4; P4; P4; P4; P4; P4; P4; P4; P4; P4; P4; P4; P4; P4; P4; P4; P4; P4; P4; P4; P4; P4; P4; P4; P4; P4; P4; P4; P4; P4; P4; P4; P4; P4; P4; P4; P4; P4; P4; P4; P4; P4; P4; P4; 4; 4; 4; 4; 4G; 4G; 4G; 4G; 4G; 4G; 4G; 4G; 4G; 4G; 4G; 4G; 4G; 4G; 4G; 4G; 4G; 4G; 4G; 4G; 4G; 4G; 4G; 4G; 4G; 4G; 4G; 4G; 4G; 4G; 4G; 4G; 4G; 4G; 4G; 4G; 4G; 4G; 4G; 4G; 4G; 4G; 4G; 4G; 4G; 4G; 4G; G; G; G; G; G6; G6; G6; G6; G6; G6; 6; 6; L6; L6; L6; L6; L6; L6; L6; L6; L6; L6; L6; L6; L6; L6; L6; L6; L6; L6; L6; L6; L6; L6; L6; L6; L6; L6; L6; L6; L6; L6; L6; L6; L6; L6; L6; L6; L6; L6; L6; L6; L6; L6; L6; L6; L6; L6; L6; L6; L6; L6; L6; L6; L6; L6; L6; 6; 6K; 6K; 6K; 6K; 6K; 6K; 6K; 6K; 6K; 6K; 6K; 6K; 6K; 6K; 6K; 6K; 6K; 6K; 6K; 6K; 6K; 6K; 6K; 6K; 6K; 6K; 6K; 6K; 6K; 6K; 6K; 6K; 6K; 6K; 6K; 6K; 6K; 6K; 6K; 6K; 6K; 6K; 6K; 6K; 6K; 6K; 6K; 6K; 6K; 6K; 6K; 6K; 6K; 6K; 6K; 6K8; K8; K8; K8; K8; KL8; L8; L8; L8; L8; L8; L8; L8; L8; L8; L8; L8; L8; L8; L8; L8; L8; L8; L8; L8; L8; L8; L8; L8; L8; L8; L8; L8; L8; L8; L8; L8; L8; L8; L8; L8; L8; L8; L8; L8; L8; L8; L8; L8; L8; L8; L8; L8; L8; L8; L8; 8; 8; 8; 8; 8; 8; 8; @8; @8; @8; @8; @8; @8; @8; @8; @8; @8; @8; @8; @8; @8; @8; @8; @8; @8; @8; @8; @8; @8; @8; @8; @8; @8; @8; @8; @8; @8; @8; @8; @8; @8; @8; @8; @8; @8; @8; @8; @8; @8; @8; @8; @8; @8; @8; @8; @8; @8; @8; 8; 8; 8; 8; ; G;4 G;4 G;4 G;4 G;4 G;4 G;4 G;4 G;4 G;4 G;4 G;4 G;4 G;4 G;4 G;4 G;4 G;4 G;4 G;4 G;4 G;4 G;4 G;4 G;4 G;4 G;4 G;4 G;4 G;4 G;4 G;4 G;4 G;4 G;4 G;4 G;4 G;4 G;4 G;4 G;4 G;4 G;4 G;4 G;4 G;4 G;4 G;4 G;4 G;4 G;4 G;4 G;4 G;4 G;=4 G;=F4 G;=F4 G;=F4 ;=F4 ;=F4 ;=F4 ;=F4 ;=F4 ;=F4 ;=F4 ;=F4 ;=F4 =F4 =F4 =F4 =F4 =F4 =F4 =F4 =F4 =F4 =F4 =F4 =F4 =F4 =F4 =F4 =F4 =F4 =F4 =F4 =F4 =F4 =F4 =F4 =F4 =F4 =F4 =F4 =F4 =F4 =F4 F4 F4 F4 F4 F4 F4 F4 F4 4 4 4 4 4 4 4 4G 4G 4G 4G 4>G 4>G 4>G 4>G 4>G >G >G >G >G >G >G >G >G >G >G >G >G >G >G >G >G >G >G >G >G >G >G >G >G >G >G >G >G >G >G >G >G >G >G >G >G >G >G >G >G >G >G >G >G >G >G >G >G >G >G >G >G >G >G >G >G >G >=G >;;=G ;;=G ;;=G ;;=G ;;=G ;;=G ;;=G ;;=G ;;=G ;;=G ;;=G ;;=G ;;=G ;;=G ;;=G ;;=G ;;=G ;;=G ;;=G ;;=G ;;=G ;;=G ;;=G ;;=G ;;=G ;;=G ;;=G ;;=G ;;=G ;;=G ;;=G ;;=G ;;=G ;;=G ;;=G ;;=G ;;=G ;;=G ;;=G ;=G ;=G ;=G ;=G ;=G ;=G ;=G ;=G ;=G ;=G ;=G ;=G ;=9G ;=9G ;=9G ;=9G ;=9G ;=9G =9G =9G =@9G =@9G =@9G =@9G @9G @9G @9G @9G @9G @9G @9G @9G @9G @9G @9G @9G @9G @9G @9G @9G @9G @9G @9G @9G @9G @9G @9G @9G @9G @9G @9G @9G @9G @9G @9G @9G @9G @9G @9G @9G @9G @9G @9G @9G @9G @9G @9G @9G @9G @9G @9G @9G @9G @9G @9G @9G @9G @9G 9G 9G 9G 9?G 9?G 9?G 9?G 9?G 9?G 9?G 9?G 9?G 9?G 9?G 9?G 9?G 9?G 9?G 9?G 9?G 9?G 9?G 9?G 9?G 9?G 9?G 9?G 9?G 9?G 9?G 9?G 9?G 9?G 9?G 9?G 9?G 9?G 9?G 9?G 9?G 9?G 9?G 9?G 9?G 9?G 9?G 9?G 9?G 9?G 9?G 9?G 9?G 9?G 9?G 9?G 9?G ?G G G G G G G G G G G@ G@ G@ G@ G@ 8G@ 8G@ 8G@ 8G@ 8G@ 8G@ 8G@ 8G@ 8G@ 8G@ 8G@ 8G@ 8G@ 8G@ 8G@ 8G@ 8G@ 8G@ 8G@ 8G@ 8G@ 8G@ 8G@ 8G@ 8G@ 8G@ 8G@ 8G@ 8G@ 8G@ 8G@ 8G@ G@ G@ G@ G@ G@ G@ G@ G@ G@ G@ G@ G@ G@ G@ G@ G@ G@ G@ G@ G@ G@ G@ G@ G@ G@ G@ (G@ (G@ (G@ (G@ (G@ (G@ (G@ (G@ (G@ (G@ (G@ (G@ (G@ (G@ (G@ (G@ (G@ (G@ (G@ (G@ (G@ (G@ (G@ (G@ (G@ (G@ G@ G@ G@ G@ G@ G@ G@ G@ G@ G@ G@ G@ G@ G@ G@ G@ G@ G@ G@ G@ G@ G@ G@ G@ G@ G@ G@ G@ G@ G@ G@ G@ G1@ G1@ G1@ 1@ E1@ E1@ E1@ E1@ E1@ E1@ E1@ E1@ E1@ E1@ E1@ E1@ E1@ E1@ E1@ E1@ E1@ E1@ E1@ E1@ E1@ E1@ E1@ E1@ E1@ E1@ E1@ E1@ E1@ E1@ E1@ E1@ E1@ E1@ E1@ E1@ E1@ E1@ E1@ E1@ E1@ E1@ E1@ E1@ E1@ E1@ E1@ E1@ E1@ E1@ E1@ E1@ 1@ 1@ 1D@ 1D@ 1D@ 1D/@ 1D/@ D/@ D/@ D/@ D/@ D/@ D/@ D/@ D/@ D/@ D/@ D/@ D/@ /@ /@ /@ /@ /@ /@ /@ /@ /@ /@ /@ /@ /@ /@ /@ /@ /@ /@ /@ /@ /@ /@ /@ /@ /@ /@ /@ /@ /@ /@ /@ /@ /@ /@ /@ /@ /@ /@ /@ /@ /@ /@ /@ /1@ 1@ 1L@ 1L@ 1L@ 1L@ 1L@ 1L@ 1L@ 1L@ 1L@ 1L@ 1L@ 1L@ 1L@ 1L@ 1L@ 1L@ 1L@ 1L@ 1L@ 1L@ 1L@ 1L@ 1L@ 1L@ 1L@ 1L@ 1L@ 1L@ 1L@ 1L@ 1L@ 1L@ 1L@ 1L@ 1L@ 1L@ 1L@ 1L@ 1L@ 1L@ 1L@ 1L@ 1L@ 1L@ 1L@ 1L@ 1L@ 1L@ 1L@ 1L@ 1L@ 1L@ 1L@ 1L@ L@ L-@ L-@ L-@ L-@ -@ -@ -@ -@ -@ -@ -@ -@ -@ -@ -@ -@ -@ -@ -@ -@ -@ -@ -@ -@ -@ -@ -@ -@ -@ -@ -@ -@ -@ -@ -@ -@ -@ -@ -@ -@ -@ -@ -@ -@ -@ -@ -@ -@ -@ -@ -@ -@ -@ -@ -@ -@ @ @ @4 @4 @4 @4 @4 @4 @4 @4 @4 @4 @4 @4 @D4 @D4 @D4 @D4 @D4 @D4 @D4 @D4 D4 D4 D4 D4 D4 D4 D4 D4 D4 D4 D4 D4 D4 D4 D4 D4 D4 D4 D4 D4 D4 D4 D4 D4 D4 D4 D4 D4 D4 D4 D4 D4 D4 D4 D4 D4 D4 D4 D4 D4 D4 D4 D4 D4 D4 D4 D4 >D4 >D4 >D4 >D4 >D4 >D4 >D4 >D4 >D4 >D4 >D4 >D4 >D4 >D4 >D4 >D4 >D4 >D4 >D4 >D4 >D4 >D4 >D4 >D4 >D4 >D4 >D4 >D4 >D4 >D4 >D4 >D4 >D4 >D4 >D4 >D4 >D4 >D4 >D4 >D4 >D4 >D4 >D4 >D4 >D4 >D4 >D4 >D4 >D4 >D4 >D4 >D4 >D4 D4 D4 D4 D4 D4 D4 D4 D4 4E 4E 4E 46E 46E 4=6E 4=6E 4=6E =6E =6E =6E =6E =6E =6E =6E =6E =6E =6E =6E =6E =6E =6E =6E =6E =6E =6E =6E =6E =6E =6E =6E =6E =6E =6E =6E =6E =6E =6E =6E =6E =6E =6E =6E =6E =6E =6E =6E =6E =6E =6E =6E =6E =6E =6E =6E =6E =6E =6E =6E =6E =6E =6E =6E =6E =69E =69E =69E =69E 69E 69E 69E 69E 69E 69E 69E 69E 69E 69E 69E 69E 69E 69E 69E 69E 69E 69E 69E 69E 69E 69E 69E 69E 69E 69E 69E 69E 69E 69E 69E 69E 69E 69E 69E 69E 69E 69E 69E 69E 69E 69E 69E 69E 69E 69E 69E 69E 69E 69E 9E 9E 94E 4E 4E >4E >4E >4E >4E >4E >4E >4E >4E >4E >4E >4E >4E >4E >4E >4E >4E >4E >4E >4E >4E >4E >4E >4E >4E >4E >4E >4E >4E >4E >4E >4E >4E >4E >4E >4E >4E >4E >4E >4E >4E >4E >4E >4E >4E >4E >4E >4E >4E >4E >4E >4E >4E >4E >4E 4E 4E 4E =4E =4E =4E =4E =4E =4E =4E =4E =4E =4E =4E =4E =4E =4E =4E =4E =4E =4E =4E =4E =4E =4E =4E =4E =4E =4E =4E =4E =4E =4E =4E =4E =4E =4E =4E =4E =4E =4E =4E =4E =4E =4E =4E =4E =4E =4E =4E =4E =4E =4E =4E =4E =4E =4E =4E =4E 4E 2E 2E @2E @2E @2E @2E @2E @2E @2E @2E @2E @2E @2E @2E @2E @2E @2E @2E @2E @2E @2E @2E @2E @2E @2E @2E @2E @2E @2E @2E @2E @2E @2E @2E @2E @2E @2E @2E @2E @2E @2E @2E @2E @2E @2E @2E @2E @2E @2E @2E @2E @2E @2E @2E @2E @2E @2E @2E @2E @2E @2E @2E @2E 2E 2>E 2>E 2>E 2>E 2>E 2>E 2>E 2>E 2>E 2>E 2>E 2>E 2>E 2>E 2>E 2>E 2>E 2>E 2>E 2>E 2>E 2>E 2>E 2>E 2>E 2>E 2>E 2>E 2>E 2>E 2>E 2>E 2>E 2>E 2>E 2>E 2>E 2>E 2>E 2>E 2>E 2>E 2>E 2>E 2>E 2>E 2>E 2>E 2>E 2>E 2>E 2>E 2>E 2>E 2>1E 2>B1E >B1E >B1E B1E B1E B1E B1E B1E B1E B1E B1E B1E B1E B1E B1E B1E B1E B1E B1E B1E B1E B1E B1E B1E B1E B1E B1E B1E B1E B1E B1E B1E B1E B1E B1E B1E B1E B1E B1E B1E B1E B1E B1E B1E B1E B1E B1E B1E B1E B1E B1E B1E B1E B1E B1E B1E B1E B1E 1E 1E 1@E 1@E 1@E 1@E 1@E 1@E 1@E 1@E 1@E 1@E 1@E 1@E 1@E 1@E 1@E 1@E 1@E 1@E 1@E 1@E 1@E 1@E 1@E 1@E 1@E 1@E 1@E 1@E 1@E 1@E 1@E 1@E 1@E 1@E 1@E 1@E 1@E 1@E 1@E 1@E 1@E 1@E 1@E 1@E 1@E 1@E 1@E 1@E 1@E 1@E 1@E @E @E @E @E @/E @/E @/E @/E @/E @/E @/E @/E @/E @/E /E />E />E />E />E />E />E />E />E />E />E />E />E />E />E />E />E />E />E />E />E />E />E />E />E />E />E />E />E />E />E />E />E />E />E />E />E />E />E />E />E />E />E />E />E />E />E />E />E />E />E />E />-E />-E />-E >-E >-E >-E >-E >-E >-E >-E >-E >-E >-E >-E >-E >-E >-E >-E >-E >-E >-E >-E >-E >-E >-E >-E >-E >-E >-E >-E >-E >-E >-E >-E >-E >-E >-E >-E >-E >-E -E -E -E -E -E -E -E -E -E -E -E -E -E -E -E -E -E -E -E -1E -1E -1E -1E 1=E 1=E 1=E 1=E 1=E 1=E 1=E 1=E 1=E 1=E 1=E 1=E 1=E 1=E 1=E 1=E 1=E 1=E 1=E 1=E 1=E 1=E 1=E 1=E 1=E 1=E 1=E 1=E 1=E 1=E 1=E 1=E 1=E 1=E 1=E 1=E 1=E 1=E 1=E 1=E 1=E 1=E 1=E 1=E 1=E 1=E 1=E 1=E 1=E 1=E 1=E =E =/E =/E =/E =/E =/E =/E =/E =/E =/E =/E =/E =/E =/E =/E =/E =/E =/E =/E =/E =/E =/E =/E =/E =/E /E /E /E /E /E /E /E /E /E /E /E /E /E /E /E /E /E /E /E /E /E /E /E /E /E /E /E /E /E /E /E /E /E /E /E /E E E 2E; 2E; 2E; 2E; 2E; 2E; 2E; 2E; 2E; 2E; 2E; 2E; 2E; 2E; 2E; 2E; 2E; 2E; 2E; 2E; 2E; 2E; 2E; 2E; 2E; 2E; 2E; 2E; 2E; 2E; 2E; 2E; 2E; 2E; 2E; 2E; 2E; 2E; 2E; 2E; 2E; 2E; 2E; 2E; 2E; 2E; 2E; 2E; 2E; 2E; 2E; 2E; 2E; 2E; 2E; 2E; 2E; 2E; 2E; 21E; 21E; 1E; 1E; 1E; 1E; 1E; 1E; 1E; 1E; 1E; 1E; 1E; 1E; 1E; 1E; 1E; 1E; 1E; 1E; 1E; 1E; 1E; 1E; 1E; 1E; 1E; 1E; 1E; 1E; 1E; 1E; 1E; 1E; 1E; 1E; 1E; 1E; 1E; 1E; 1E; 1E; 1E; 1E; 1E; 1E; 1E; 1E; 1E; 1E; 1E; 1E; 1E; 1E; E; E; E4; E4; E4; E4; E4; E4; E4D; E4D; 4D; 4D; 4D; 4D; 4D; 4D; 4D; 4D; 4D; 4D; 4D; 4D; 4D; 4D; 4D; 4D; 4D; 4D; 4D; 4D; 4D; 4D; 4D; 4D; 4D; 4D; 4D; 4D; 4D; 4D; 4D; 4D; 4D; 4D; 4D; 4D; 4D; 4D; 4D; 4D; 4D; 4D; 4D; 4D; 4D; D; D;2 D;2 D;2 D;2 D;2 D;2 D;2 D;2 D;2 D;2 D;2 D;2 D;2 D;2 D;2 D;2 D;2 D;2 D;2 D;2 D;2 D;2 D;2 D;2 D;2 D;2 D;2 D;2 D;2 D;2 D;2 D;2 D;2 D;2 D;2 D;2 D;2 D;2 D;2 D;2 D;2 D;2 D;2 D;2 D;2 D;2 D;2 D;2 D;2 D;2 D;2 D;2 D;2 D;2 D;2 D;2 D;2 D;2 D;2 D;2 ;2 ;2 2 2 29 219 219 219 219 219 219 219 1E9 1E9 1E9 1E9 1E9 1E9 1E9 1E9 1E9 1E9 1E9 1E9 1E9 1E9 1E9 1E9 1E9 1E9 1E9 1E9 1E9 1E9 1E9 1E9 1E9 1E9 1E9 1E9 1E9 1E9 1E9 1E9 1E9 1E9 1E9 1E9 1E9 1E9 1E9 1E9 1E9 1E9 1E9 1E9 1E9 1E9 1E9 1E9 1E9 1E9 1E9 1E9 1E9 1E9 1-E9 1-E9 1-E9 1-E9 1-E9 1-E9 -E9 -E9 -E9 -E9 -E9 -E9 -E9 -E9 -E9 -E9 -E9 -E9 -E9 -E9 E9 E9 E9 E9 E9 E9 E9 E9 E9 E9 E9 E9 E9 E9 E9 E9 E9 E9 E9 E9 E9 E9 E9 E9 E9 E9 E9 E9 E9 E9 E9 E9 E9 E9 E9 E9 E9 E9 E9 6E9 6E9 6E9 6E9 6E9 6E9 6E9 6E9 6E9 6E9 6E9 6E9 6E9 6E9 6E9 6E9 6E9 6E9 6E9 6E9 6E9 6E9 6E9 6E9 6E9 6E9 6E9 6E9 6E9 6E9 6E9 6E9 6E9 6E9 6E9 6E9 6E9 6E9 6E9 6E9 6E9 6E9 6E9 6E9 6E9 6E9 6E9 6E9 6E9 6E9 6E9 6E9 6E9 6E9 6E9 6E9 6E9 6E9 E9 4E9 4E9 4E9 4E9 4E9 4E9 4E9 4E9 4E9 4E9 4E9 4E9 4E9 4E9 4E9 4E9 4E9 4E9 4E9 4E9 4E9 4E9 4E9 4E9 4E9 4E9 4E9 4E9 4E9 4E9 4E9 4E9 4E9 4E9 4E9 4E9 4E9 4E9 4E9 4E9 4E9 4E9 4E9 4E9 4E9 4E9 4E9 4E9 4E9 4E9 4E9 4E9 4E9 4E9 4E9 4E9 4E9 4E96 4E96 4E96 4E96 4E96 E96 E96 E96 E96 E96 E96 E96 E96 E96 E96 E96 E96 E96 96 96 96 96 96 96 96 96 96 96 96 96 96 96 96 96 96 96 96 96 96 96 96 96 96 96 96 96 96 96 96 96 96 96 96 96 96 96 96 96 96 96 96 96 96 96 96 96 96 96 96 96 96 96 96 96 96 96 E96 E96 E96 E96 E96 E96 E96 E96 E96 E96 E96 E96 E96 E96 E96 E96 E96 E96 E96 E96 E96 E96 E96 E96 E96 E96 E96 E96 E96 E96 E96 E96 E96 E96 E96 E96 E96 E96 E96 E96 E96 E96 E96 E96 E96 E96 E96 E96 E96 E96 E96 E96 E96 E96 E96 E96 E96 E96 E96 EJ96 EJ96 EJ96 EJ96 EJ96 J96 J96 J96 J96 J96 J96 J96 J96 J96 J96 J96 J96 J96 J96 J96 J96 J96 J96 J96 J96 J96 J96 J96 J96 J96 J96 J96 J96 96 96 96 96 96 96 96 96 96 96 96 96 96 96 96 96 96 96 96 96 96 96 96 96 96 96 I96 I96 I96 I96 I96 I96 I96 I96 I96 I96 I96 I96 I96 I96 I96 I96 I96 I96 I96 I96 I96 I96 I96 I96 I96 I96 I96 I96 I96 I96 I96 I96 I96 I96 I96 I96 I96 I96 I96 I96 I96 I96 I96 I96 I96 I96 I96 96 96 96 96 96 96 96 96 96 96 96 96 96 96 96 96 96 96 96 96 96 96J 96J 96J 96J 96J 96J 96J 96J 96J 96J 96J 96J 96J 96J 96J 96J 96J 96J 96J 96J 96J 96J 96J 96J 96J 96J 96J 96J 96J 96J 96J 96J 96J 96J 96J 96J 96J 96J 96J 96J 96J 6J 6J 6J 6J 6J 6J 6J J J J 2J 2J 2J 2J 2J 2J 2J 2J 2J 2J 2J 2J 2J 2J 2J 2J 2J 2J 2J 2J 2J 2J 2J 2J 2J 2J 2J 2J 2J 2J 2J 2J 2J 2J 2J 2J 2J 2J 2J 2J 2J 2J 2J 2J 2J 2J 2J 2J 2J 2J 2J 2J 2J 2J 2J 2J 2J 2J 2J 2J 2J 29J 29J 9J 9J 9J 9J 9J 9J 9J 9J 9J 9J 9J 9J 9J 9J 9J 9J 9J 9J 9J 9J 9J 9J 9J 9J 9J 9J 9J 9J 9J 9J 9J 9J 9J 9J 9J 9J 9J 9J 9J 9J 9J 9J 9J 9J 9J 9J 9J 9J 9J 9J 9J 9J 9J 9J 9J 98J 98J 98J 8J 8J 8J 8J 8J 8J 8J 8J 8J 8J 8J 8J 8J 8J 8J 8J 8J 8J 8J 8J 8J 8J 8J 8J 8J 8J 8J 8J 8J 8J 8J 8J 8J 8J 8J 8J 8J 8J 8J 8J 8J 8J 8J 8J 8J 8J J J J J9 J9 J9 J9 J9 J9 J9 J9 J9 J9 J9 J9 J9 J9 J9 J9 J9 J9 J9 J9 J9 J9 J9 J9 J9 J9 J9 9 9 9 9 9 9 9 9 9 9 9 9 9 9 9 9 9 9 9 9 9 9 9 9 9 9 9 9 9 9 9 9 9 9 9 9 9 9 9 9 9 9 9 @9 @9 @9 @9 @9 @9 @I9 @I9 @I9 @I9 @I9 @I9 @I9 @I9 @I9 @I9 @I9 @I9 @I9 @I9 @I9 @I9 @I9 @I9 @I9 @I9 @I9 @I9 @I9 @I9 @I9 @I9 @I9 @I9 @I9 @I9 @I9 @I9 @I9 @I9 @I9 @I9 @I9 @I9 @I9 @I9 @I9 @I9 @I9 @I9 @I9 @I9 @I9 @I9 @I>9 @I>9 I>9 I>9 I>9 I>9 I>9 I>9 I>9 I>9 I>9 IN>9 IN>9 N>9 N>9 N>9 N>9 N>9 N>9 N>9 N>9 N>9 N>9 N>9 N>9 N>9 N>9 N>9 N>9 N>9 N>9 N>9 N>9 N>9 N>9 N>9 N>9 N>9 N>9 N>9 N>9 N>9 N>9 >9 >9 >9 >9 >9 >9 >9 >9 >9 >9 >9 >9 >9 >9 >9 >9 >9 >=9 >=9 =9 =9 =9 =9 =9 =9 =9 =9 L=9 L=9 L=9 L=9 L=9 L=9 L=9 L=9 L=9 L=9 L=9 L=9 L=9 L=9 L=9 L=9 L=9 L=9 L=9 L=9 L=9 L=9 L=9 L=9 L=9 L=9 L=9 L=9 L=9 L=9 L=9 L=9 L=9 L=9 L=9 L=9 L=9 L=9 L=9 L=9 =9 =9 =9 =>9 >9 >9 >9 >9 >9 >9 >9 >9 >9 >9 >9 >9 >9 >9 >9 >9 >N9 >N9 >N9 >N9 >N9 >N9 >N9 >N9 >N9 >N9 >N9 >N9 >N9 >N9 >N9 >N9 >N9 >N9 >N9 >N9 >N9 >N9 >N9 >N9 >N9 >N9 N9 N9 N9 N9 N9 N9 N9 N9 N9 N9 N9 N9 N9 N9 N9 N9 N9 N9 N9 N9 N9 N9 N9 N9 N9 N9 N9 N9 N9 ECN9 ECN9 ECN9 ECN9 ECN9 ECN9 ECN9 ECN9 ECN9 ECN9 ECN9 ECN9 ECN9 ECN9 ECN9 ECN9 ECN9 ECN9 ECN9 ECN9 ECN9 ECN9 ECN9 ECN9 ECN9 ECN9 ECN9 ECN9 ECN9 ECN9 ECN9 ECN9 ECN9 ECN9 ECN9 ECN9 ECN9 ECN9 ECN9 ECN9 ECN9 ECN9 ECN9 ECN9 ECN9 ECN9 ECN9 ECN9 ECN9 CN9 CN9 CN9 CN9 CN9 CN9 CN9 CN9 CN9 CN9 CN9 CBN9 CBN9 CBN9 CJBN9 CJBN9 CJBN9 JBN9 JBN9 JBN9 JBN9 JBN9 JBN9 JBN9 JBN9 JBN9 JBN9 JBN9 JBN9 JBN9 JBN9 JBN9 JBN9 JBN9 JBN9 JBN9 JBN9 JBN9 JBN9 JBN9 JBN9 JBN9 JBN9 JBN9 JBN9 JBN9 JBN9 JBN9 JBN9 JBN9 JBN9 JBN9 JBN9 JBN9 JBN9 JBN9 JBN9 JBN9 JBN9 JBN9 JBN9 JBN9 JBN9 JBN9 JBN9 JBN9 JBN9 B@N9 @N9 @N9 @N9 @N9 I@N9 I@N9 I@N9 I@N9 I@N9 I@N9 I@N9 I@N9 I@N9 I@N9 I@N9 I@N9 I@N9 I@N9 I@N9 I@N9 I@N9 I@N9 I@N9 I@N9 I@N9 I@N9 I@N9 I@N9 I@N9 I@N9 I@N9 I@N9 I@N9 I@N9 I@N9 I@N9 I@N9 I@N9 I@N9 I@N9 I@N9 I@N9 I@N9 @N9 @N9 @N9 @N9 @N9 @N9 @N9 @N9 @N9 @N9 @N9 @N9 @N9 @N9 @N9 @BN9 BN9 BN9 BN9 BN9 BN9 BN9 BJN9 BJN9 BJN9 BJN9 BJN9 BJN9 BJN9 BJN9 BJN9 BJN9 BJN9 BJN9 BJN9 BJN9 BJN9 BJN9 BJN9 BJN9 BJN9 BJN9 BJN9 BJN9 BJN9 BJN9 BJN9 BJN9 BJN9 BJN9 BJN9 BJN9 BJN9 BJN9 BJN9 BJN9 BJN9 BJN9 BJN9 BJN9 BJN9 BJN9 BJN9 BJN9 BJN9 BJN9 BJN9 BJN9 BJN9 BJN9 BJN9 BJN9 BJN9 B>JN9 >JN9 >JN9 >JN9 >JN9 >JN9 >JN9 >JN9 >JN9 >JN9 >JN9 >JN9 >JN9 >JN9 >JN9 >JN9 >JN9 >JN9 >JN9 >JN9 >JN9 >JN9 >JN9 >JN9 >JN9 >JN9 >JN9 >JN9 >JN9 >JN9 >JN9 >JN9 >JN9 >JN9 >JN9 >JN9 >JN9 >JN9 >JN9 >JN9 >JN9 >JN9 >JN9 >JN9 >JN9 JN9 JN9 JN9 JN9 JN9 JN9 JN9 JN9 JN9 JN9 JN9 JN9 JN9 JN9 JN9 JN9 JN9 JN9 JN9 JN9 JN9 JN9 EJN9 EJN9 EJN9 EJN9 EJN9 EJN9 EJN9 EJN9 EJN9 EJN9 EJN9 EJN9 EJN9 EJN9 EJN9 EJN9 EJN9 EJN9 EJN9 EJN9 EJN9 EJN9 EJN9 EJN9 EJN9 EJN9 EJN9 EJN9 EJN9 EJN9 EJN9 EJN9 EJN9 EJN9 EJN9 EJN9 EJN9 EJN9 EJN9 EJN9 EJN9 EJN9 EJN9 EJN9 EJN9 EJN9 EJN9 EJN9 EJN9 EJN9 EJN9 EJN9 EJN9 JN9 JN9 JN9 JN9 JN9 DJN9 DJN9 DJN9 DJN9 DJN9 DJN9 DJN9 DJN9 DJN9 DJN9 DJN9 DJN9 DJN9 DJN9 DJN9 DJN9 DJN9 DJN9 DJN9 DJN9 DJN9 DJN9 DJN9 DJN9 DJN9 DJN9 DJN9 DJN9 DJN9 DJN9 DJN9 DJN9 DJN9 DJN9 DJN9 DJN9 DJN9 DJN9 DJN9 DJN9 DJN9 DJN9 DJN9 DJN9 DJN9 DJN9 DJN9 JN9 JN9 JN9 JN9 JN9 JN9 JN9 JN9 JN9 JN9 JN9 JN9 JN9 JN9 JN9 JN9 JEN9 JEN9 JEN9 JEN9 JEN9 JEN9 JEN9 JEN9 JEN9 JEN9 JEN9 JEN9 JEN9 JEN9 JEN9 JEN9 JEN9 JEN9 JEN9 JEN9 JEN9 JEN9 JEN9 JEN9 JEN9 JEN9 JEN9 JEN9 JEN9 JEN9 JEN9 JEN9 JEN9 JEN9 JEN9 JEN9 JEN9 JEN9 JEN9 JEN9 JEN9 JEN9 JEN9 JEN9 EN9 EN9 EN9 EN9 EN9 EN9 EN9 EN9 EN9 EN9 EN9 EN9 EN9 EN9 EN9 EN9 EN9 ENI9 ENI9 ENI9 ENI9 ENI9 ENI9 NI9 NI9 NI9 NI9 NI9 NI9 NI9 NI9 NI9 NI9 NI9 NI9 NI9 NI9 NI9 NI9 NI9 NI9 NI9 NI9 NI9 NI9 NI9 NI9 NI9 NI9 NI9 NI9 NI9 NI9 NI9 NI9 NI9 NI9 NI9 NI9 NI9 NI9 NI9 NI9 NI9 NI9 NI9 NI9 NI9 NI9 NI9 NI9 NI9 NI9 NI9 NI9 NI9 I9 I9 I9 I9 I9 I9 IG9 IG9 IG9 IG9 IG9 IG9 IG9 G9 G9 G9 G9 G9 G9 G9 G9 G9 G9 G9 G9 G9 G9 G9 G9 G9 G9 G9 G9 G9 G9 G9 G9 G9 G9 G9 G9 G9 G9 G9 G9 G9 G9 G9 G9 G9 G9 G9 G9 G9 G9 G9 G9 G9 G9 G9 G9 G9 G9 GE9 E9 E9 E9 E9 E9 E9 E9 E9 E9 E9 E9 E9 E9 E9 E9 E9 E9 E9 E9 E9 E9 E9 E9 E9 E9 E9 E9 E9 E9 E9 E9 E9 E9 E9 E9 E9 E9 E9 E9 E9 E9 E9 E9 E9 E9 E9 E9 E9 E9 E9 E9 E9 E9 E9 E9 E9 9 9 9 D9 D9 D9 D9 D9 D9 D9 D9 D9 D9 D9 D9 D9 D9 D9 D9 D9 D9 D9 D9 D9 D9 D9 D9 D9 D9 D9 D9 D9 D9 D9 D9 D9 D9 D9 D9 D9 D9 D9 D9 D9 D9 D9 D9 D9 D9 D9 D9 D9 D9 D9 9 9 9 9 9 9 G9 G9 G9 G9 G9 G9 G9 G9 G9 G9 G9 G9 G9 G9 G9 G9 G9 G9 G9 G9 G9 G9 G9 G9 G9 G9 G9 G9 G9 G9 G9 G9 G9 G9 G9 G9 G9 G9 G9 G9 G9 G9 G9 G9 G9 G9 G9 G9 G9 G9 G9 G9 G9 G9 G9 G9 G9 GJ9 J9 J9 J9 J9 J9 J9 J9 J9 J9 J9 J9 J9 J9 J9 J9 J9 J9 J9 J9 J9 J9 J9 J9 J9 J9 J9 J9 J9 J9 J9 J9 J9 J9 J9 J9 J9 J9 J9 J9 J9 J9 J9 J9 J9 J9 J9 J9 J9 J9 J9 J9 J9 J9 J9 J9 9 9 N9 N9 N9 N9 N9 N9 N9 N9 N9 N9 N9 N9 N9 N9 N9 N9 N9 N9 N9 N9 N9 N9 N9 N9 N9 N9 N9 N9 N9 N9 N9 N9 N9 N9 N9 N9 N9 N9 N9 N9 N9 N9 N9 N9 N9 N9 N9 N9 N9 N9 N9 N9 N9 N9 N9 N9 N9 N9 9 9 9 9 L9 L9 L9 L9 L9 L9 L9 L9 L9 L9 L9 L9 L9 L9 L9 L9 L9 L9 L9 L9 L9 L9 L9 L9 L9 L9 L9 L9 L9 L9 L9 L9 L9 L9 L9 L9 L9 L9 L9 L9 L9 L9 L9 L9 L9 L9 L9 L9 L9 L9 L9 L9 L9 L9 L9 L9 L9 L9 9 J9 J9 J9 J9 J9 J9 J9 J9 J9 J9 J9 J9 J9 J9 J9 J9 J9 J9 J9 J9 J9 J9 J9 J9 J9 J9 J9 J9 J9 J9 J9 J9 J9 J9 J9 J9 J9 J9 J9 J9 J9 J9 J9 J9 J9 J9 J9 J9 J9 J9 J9 J9 J9 J9 J9 JS9 JS9 S9 S9 S9 S9 S9 S9 S9 S9 S9 S9 S9 S9 S9 S9 S9 S9 S9 S9 S9 S9 S9 S9 S9 S9 S9 S9 S9 S9 S9 S9 S9 S9 S9 S9 S9 S9 S9 S9 S9 S9 S9 S9 S9 S9 S9 S9 S9 S9 S9 S9 S9 S9 S9 S9 SP9 SP9 SP9 SP9 SP9 SP9 P9 P9 P9 P9 P9 P9 P9 P9 P9 P9 P9 P9 P9 P9 P9 P9 P9 P9 P9 P9 P9 P9 P9 P9 P9 P9 P9 P9 P9 P9 P9 9 9 9 9 9 9 9 9 9 9 9 9 9 9 9 9 9 9 9 9 9 9 9 9 9 9 9 9 9 9Q 9Q 9Q 9Q 9Q 9Q 9Q 9Q 9Q 9Q 9Q 9Q 9Q 9Q 9Q 9Q 9Q 9Q 9Q 9Q 9Q 9Q 9Q 9Q 9Q 9Q 9Q 9Q 9Q 9Q 9Q 9Q 9Q 9Q 9Q 9Q 9Q 9Q 9Q 9Q 9Q 9Q 9Q 9Q 9Q 9Q 9Q 9Q 9Q 9Q 9Q 9Q 9Q 9Q 9Q 9Q 9Q 9Q 9Q 9Q 9Q 9Q 9Q 9Q 9Q 9Q 9Q L9Q L9Q L9Q L9Q L9Q L9Q L9Q L9Q L9Q L9Q L9Q L9Q L9Q L9Q L9Q L9Q L9Q L9Q L9Q L9Q L9Q L9Q L9Q L9Q L9Q L9Q L9Q L9Q L9Q L9Q L9Q L9Q L9Q L9Q L9Q L9Q L9Q L9Q L9Q L9Q L9Q L9Q L9Q L9Q L9Q L9Q L9Q L9Q L9Q L9Q L9Q L9Q L9Q L9Q L9Q L9Q L9Q L9Q N9Q N9Q N9Q N9Q N9Q N9Q N9Q N9Q N9Q N9Q N9Q N9Q N9Q N9Q N9Q N9Q N9Q N9Q N9Q N9Q N9Q N9Q N9Q N9Q N9Q N9Q N9Q N9Q N9Q N9Q N9Q N9Q N9Q N9Q N9Q N9Q N9Q N9Q N9Q N9Q N9Q N9Q N9Q N9Q N9Q N9Q N9Q N9Q N9Q N9Q N9Q N9Q N9Q N9Q N9Q N9Q 9Q 9Q 9Q I9Q I9Q I9Q I9Q I9Q I9Q I9Q I9Q I9Q I9Q I9Q I9Q I9Q I9Q I9Q I9Q I9Q I9Q I9Q I9Q I9Q I9Q I9Q I9Q I9Q I9Q I9Q I9Q I9Q I9Q I9Q I9Q I9Q I9Q I9Q I9Q I9Q I9Q I9Q I9Q I9Q I9Q I9Q I9Q I9Q 9Q 9Q 9Q 9Q 9Q 9Q 9Q 9Q 9Q 9Q 9Q 9Q 9Q 9Q 9Q 9Q 9Q 9QJ 9QJ 9QJ 9QJ 9QJ 9QJ 9QJ 9QJ 9QJ 9QJ 9QJ 9QJ 9QJ 9QJ 9QJ 9QJ 9QJ 9QJ 9QJ 9QJ 9QJ 9QJ 9QJ 9QJ 9QJ 9QJ 9QJ 9QJ 9QJ 9QJ 9QJ 9QJ 9QJ 9QJ 9QJ 9QJ 9QJ 9QJ 9QJ 9QJ 9QJ 9QJ 9QJ 9QJ 9QJ 9QJ 9QJ 9QJ 9QJ 9QJ 9QJ 9QJ 9QJ 9QJ 9QJ 9QJ 9QJ 9QJ 9QJ 9QJ C9QJ C9QJ C9QJ C9QJ C9QJ C9QJ C9QJ C9QJ C9QJ C9QJ C9QJ C9QJ C9QJ C9QJ C9QJ C9QJ C9QJ C9QJ C9QJ C9QJ C9QJ C9QJ C9QJ C9QJ C9QJ C9QJ C9QJ C9QJ C9QJ C9QJ C9QJ C9QJ C9QJ C9QJ C9QJ C9QJ C9QJ C9QJ C9QJ C9QJ C9QJ C9QJ C9QJ C9QJ C9QJ C9QJ C9QJ C9QJ C9QJ C9QJ C9QJ C9QJ C9QJ C9QJ C9QJ C9QJ C9QJ C9QJ C9QJ C9QJ C9QJ 9QJ E9QJ E9QJ E9QJ E9QJ E9QJ E9QJ E9QJ E9QJ E9QJ E9QJ E9QJ E9QJ E9QJ E9QJ E9QJ E9QJ E9QJ E9QJ E9QJ E9QJ E9QJ E9QJ E9QJ E9QJ E9QJ E9QJ E9QJ E9QJ E9QJ E9QJ E9QJ E9QJ E9QJ E9QJ E9QJ E9QJ E9QJ E9QJ E9QJ E9QJ E9QJ E9QJ E9QJ E9QJ E9QJ E9QJ E9QJ E9QJ E9QJ E9QJ E@9QJ @9QJ @9QJ @9QJ @9QJ @9QJ @9QJ @9QJ @9QJ @9QJ @9QJ @9QJ @9QJ @9QJ @9QJ @9QJ @9QJ @9QJ @9QJ @9QJ @9QJ @9QJ @9QJ @9QJ @9QJ @9QJ @9QJ @9QJ @9QJ @9QJ @9QJ @9QJ @9QJ 9QJ 9QJ 9QJ 9QJ 9QJ 9QJ 9QJ 9QJ 9QJ 9QJ 9QJ 9QJ 9QJ 9QJ 9QJ 9QJ 9QJ 9QJ 9QJ 9QJ 9QJ 9QJ 9QJ 9QJ 9QJ 9QJ 9QJ 9QJ 9QJ 9QJ 9QJ 9QJ 9QJ 9QJ 9QBJ 9QBJ 9QBJ 9QBJ 9QBJ 9QBJ 9QBJ 9QBJ 9QBJ 9QBJ 9QBJ 9QBJ 9QBJ 9QBJ 9QBJ 9QBJ 9QBJ 9QBJ 9QBJ 9QBJ 9QBJ 9QBJ 9QBJ 9QBJ 9QBJ 9QBJ 9QBJ 9QBJ 9QBJ 9QBJ 9QBJ 9QBJ 9QBJ 9QBJ 9QBJ 9QBJ 9QBJ 9QBJ 9QBJ 9QBJ 9QBJ 9QBJ 9QBJ 9QBJ 9QBJ 9QBJ 9QBJ 9QBJ 9QBJ 9QBJ 9QBJ 9QBJ 9QBJ 9QBJ 9QBJ 9QBJ 9QBJ 9QBJ 9QBJ 9QBJ 9QBJ 9QBJ =9QBJ =9QBJ =9QBJ =9QBJ =9QBJ =9QBJ =9QBJ =9QBJ =9QBJ =9QBJ =9QBJ =9QBJ =9QBJ =9QBJ =9QBJ =9QBJ =9QBJ =9QBJ =9QBJ =9QBJ =9QBJ =9QBJ =9QBJ =9QBJ =9QBJ =9QBJ =9QBJ =9QBJ =9QBJ =9QBJ =9QBJ =9QBJ =9QBJ =9QBJ =9QBJ =9QBJ =9QBJ =9QBJ =9QBJ =9QBJ =9QBJ =9QBJ =9QBJ =9QBJ =9QBJ =9QBJ =9QBJ =9QBJ =9QBJ =9QBJ =9QBJ =9QBJ =9QBJ =9QBJ =9QBJ 9QBJ 9QBJ 9QBJ 9QBJ 9QBJ 9>QBJ 9>QBJ 9>QBJ 9>QBJ 9>QBJ 9>QBJ 9>QBJ 9>QBJ 9>QBJ 9>QBJ 9>QBJ 9>QBJ 9>QBJ 9>QBJ 9>QBJ 9>QBJ 9>QBJ 9>QBJ 9>QBJ 9>QBJ 9>QBJ 9>QBJ 9>QBJ 9>QBJ 9>QBJ 9>QBJ 9>QBJ 9>QBJ 9>QBJ 9>QBJ 9>QBJ 9>QBJ 9>QBJ 9>QBJ 9>QBJ 9>QBJ 9>QBJ 9>QBJ 9>QBJ 9>QBJ 9>QBJ 9>QBJ 9>QBJ 9>QBJ 9>QBJ 9>QBJ 9>QBJ 9>QBJ 9>QBJ 9>QBJ 9>QBJ 9>QBJ >QBJ >QBJ >QBJ >QBJ >QBJ >QBJ >QBJ >QBJ8 >QBJ8 >QBJ8 QBJ8 QBJ8 QBJ8 QBJ8 QBJ8 QBJ8 QBJ8 QBJ8 QBJ8 QBJ8 QBJ8 QBJ8 QBJ8 QBJ8 QBJ8 QBJ8 QBJ8 QBJ8 QBJ8 QBJ8 QBJ8 QBJ8 QBJ8 QBJ8 BJ8 BJ8 BJ8 BJ8 J8 J8 J8 J8 8 8 8 8 8 8 8 8 8 8 8 8 8                9 9 9 9 9 9 9 9 9 9 9 9 9 9 9 9 9 9 9 9 9 9 9 9 9 9 9 9 9 9 9 9 9 9 9 9 9 9 9 9 9 9 9 9 9 9 9 9 9 9 9 9 9 9 9 9 9 9 9 9 9 9 C9 C9 C9 C9 C9 C9 C9 C9 C9 C9 C9 C9 C9 C9 C9 C9 C9 C9 C9 C9 C9 C9 C9 C9 C9 C9 C9 C9 C9 C9 C9 C9 C9 C9 C9 C9 C9 C9 C9 C9 C9 C9 C9 C9 C9 C9 C9 C9 C9 C9 C9 C9 CE9 CE9 E9 E9 E9 E9 E9 E9 E9 E9 E9 E9 E9 E9 E9 E9 E9 E9 E9 E9 E9 E9 E9 E9 E9 E9 E9 E9 E9 E9 E9 E9 E9 E9 E9 E9 E9 E9 E9 E9 E9 E9 E9 E9 E9 E9 E9 E9 E9 E9 E9 E9 E9 E9 E9 E9 E9 E9 E9 9 9 9 @9 @9 @9 @9 @9 @9 @9 @9 @9 @9 @9 @9 @9 @9 @9 @9 @9 @9 @9 @9 @9 @9 @9 @9 @9 @9 @9 @9 @9 @9 @9 @9 @9 @9 @9 @9 @9 @9 @9 @9 @9 @9 @9 @9 @9 @9 @9 @9 @9 @9 @9 @9 @9 9 9 9B 9B 9B 9B 9B 9B 9B 9B 9B 9B 9B 9B 9B 9B 9B 9B 9B 9B 9B 9B 9B 9B 9B 9B 9B 9B 9B 9B 9B 9B 9B 9B 9B 9B 9B 9B 9B 9B 9B 9B 9B 9B 9B 9B 9B 9B 9B 9B 9B 9B 9B 9B 9B 9B 9B 9B 9B 9B 9B 9B 9B 9B =9B =9B =9B =9B =9B =9B =9B =9B =9B =9B =9B =9B =9B =9B =9B =9B =9B =9B =9B =9B =9B =9B =9B =9B =9B =9B =9B =9B =9B =9B =9B =9B =9B =9B =9B =9B =9B 9B 9B 9B 9B 9B 9B 9B 9B 9B 9B 9B 9B 9B 9B 9B 9B 9B 9B 9B 9B 9B> 9B> 9B> 9B> 9B> 9B> 9B> 9B> 9B> 9B> 9B> 9B> 9B> 9B> 9B> 9B> 9B> 9B> 9B> 9B> 9B> 9B> 9B> 9B> 9B> 9B> 9B> 9B> 9B> 9B> 9B> 9B> 9B> 9B> 9B> 9B> 9B> 9B> 9B> 9B> 9B> 9B> 9B> 9B> 9B> 9B> 9B> 9B> 9B> 9B> 9B> 9B> 9B> 9B> 9B> 9B> 9B> 98B> 98B> 98B> 8B> 8B> 8B> 8B> 8B> 8B> 8B> 8B> 8B> 8B> 8B> 8B> 8B> 8B> 8B> 8B> 8B> 8B> 8B> 8B> 8B> 8B> 8B> 8B> 8B> 8B> 8B> 8B> 8B> 8B> 8B> 8B> 8B> 8B> 8B> 8B> 8B> 8B> 8B> 8B> 8B> 8B> 8B> 8B> 8B> 8B> B> B> B> B> B> B> B> B> B> B> B> B> B> 9B> 9B> 9B> 9B> 9B> 9B> 9B> 9B> 9B> 9B> 9B> 9B> 9B> 9B> 9B> 9B> 9B> 9B> 9B> 9B> 9B> 9B> 9B> 9B> 9B> 9B> 9B> 9B> 9B> 9B> 9B> 9B> 9B> 9B> 9B> 9B> 9B> 9B> 9B> 9B> 9B> 9B> 9B> 9B> 9B> 9B> 9B> 9B> 9B> 9B> 9B> 9B> 9B> 9B> 9B> 9B> 9B> 9B> 9B> 9B> 9B> 9B> 49B> 49B> 49B> 49B> 49B> 49B> 49B> 49B> 49B> 49B> 49B> 49B> 49B> 49B> 49B> 49B> 49B> 49B> 49B> 49B> 49B> 49B> 49B> 49B> 49B> 49B> 49B> 49B> 49B> 49B> 49B> 49B> 49B> 49B> 49B> 49B> 49B> 49B> 49B> 49B> 49B> 49B> 49B> 49B> 49B> 49B> 49B> 49B> 49B> 49B> 49B> 49B> 49B> 49B> 49B> 49B> 49B> 49B> 49B> 49B> 49B> 4669B> 4669B> 4669B> 4669B> 4669B> 4669B> 669B> 669B> 669B> 669B> 669B> 669B> 669B> 669B> 669B> 669B> 669B> 669B> 669B> 669B> 669B> 669B> 69B> 69B> 69B> 69B> 69B> 69B> 69B> 69B> 69B> 69B> 69B> 69B> 69B> 69B> 69B> 69B> 69B> 69B> 69B> 69B> 69B> 69B> 69B> 69B> 69B> 69B> 69B> 69B> 69B> 69B> 69B> 69B> 69B> 69B> 69B> 69B> 69B> 6229B> 6229B> 6229B> 6229B> 6229B> 6229B> 6229B> 229B> 229B> 229B> 229B> 229B> 229B> 229B> 229B> 229B> 229B> 229B> 229B> 229B> 29B> 29B> 29B> 29B> 29B> 29B> 29B> 29B> 29B> 29B> 29B> 29B> 29B> 29B> 29B> 29B> 29B> 29B> 29B> 29B> 29B> 29B> 29B> 9B> 9B> 9B> 9B> 9B> 9B> 9B> 9B> 9B> 9B> 9B> 9B> 9B> 9B> 9B> 9B> 9B> 9B> 9B> 9B> 9B> 9B> 9B> 9B>- 9B>- 9B>- 9B>- 9B>- 9B>- 9B>- 9B>- 9B>- 9B>- 9B>- 9B>- 9B>- 9B>- 9B>- 9B>- 9B>- 9B>- 9B>- 9B>- 9B>- 9B>- 9B>- 9B>- 9B>- 9B>- 9B>- 9B>- 9B>- 9B>- 9B>- 9B>- 9B>- 9B>- 9B>- 9B>- 9B>- 9B>- 9B>- 9B>- 9B>- 9B>- 9B>- 9B>- 9B>- 9B>- 9B>- 9B>- 9B>- 9B>- 9B>- 9B>- 9B>- 9B>- 9B>- 9B>- 9B>- 9B>- 9B>- 9B>- 9B>- 9B>- 9B>- 9B>- 9B>2- 9B>2- 9B>2- 9B>2- 9B>2- 9B>2- 9B>2- 9B>2- 9B>2- 9B>2- 9B>2- 9B>2- 9B>2- 9B>2- 9B>2- 9B>2- 9B>2- 9B>2- 9B>2- 9B>2- 9B>2- 9B>2- 9B>2- 9B>2- 9B>2- 9B>2- 9B>2- 9B>2- 9B>2- 9B>2- 9B>2- 9B>2- 9B>2- 9B>2- 9B>2- 9B>2- 9B>2- 9B>2- 9B>2- 9B>2- 9B>2- 9B>2- 9B>2- 9B>2- B>2- B>2- B>2- B>2- B>2- B>2- B>2- B>2- B>2- B>2- B>2- B>2- B>2- B>2- >2- 2- 2- 62- 62- 62- 62- 62- 62- 62- 62- 62- 62- 62- 62- 62- 62- 62- 62- 62- 62- 62- 62- 62- 62- 62- 62- 62- 62- 62- 62- 62- 62- 62- 62- 62- 62- 62- 62- 62- 62- 62- 62- 62- 62- 62- 62- 62- 62- 62- 62- 62- 62- 62- 62- 62- 62- 62- 62- 62- 62- 62- 629- 629- 629- 629- 629- 629- 629- 629- 629- 629- 629- 629- 629- 629- 629- 629- 629- 629- 629- 629- 629- 629- 629- 629- 629- 629- 629- 629- 629- 629- 629- 629- 629- 629- 629- 629- 629- 629- 629- 629- 629- 629- 629- 629- 629- 629- 629- 629- 629- 629- 629- 629- 629- 629- 629- 629- 629- 629- 629- 629- ;629- ;629- ;629- ;629- ;629- ;629- ;629- ;629- ;629- ;629- ;629- ;629- ;629- ;629- ;629- ;629- ;629- ;629- ;629- ;629- ;629- ;629- ;629- ;629- ;629- ;629- ;629- ;629- ;629- ;629- ;629- ;629- ;629- ;629- ;629- ;629- ;629- ;629- ;629- ;629- ;629- ;629- ;629- ;629- ;629- ;629- ;629- ;629- ;629- ;629- ;629- ;629- ;629- ;629- ;629- ;629- ;629- ;629- ;629- ;629- ;629- ;629- ;629- >;629- >;629- >;629- >;629- >;629- >;629- >;629- >;629- >;629- >;629- >;629- >;629- >;629- >;629- >;629- >;629- >;629- >;629- >;629- >;629- >;629- >;629- >;629- >;629- >;629- >;629- >;629- >;629- >;629- >;629- >;629- >;629- >;629- >;629- >;629- >;629- >;629- >;629- >;629- >;629- >;629- >;629- >;629- >;629- >;629- >;629- >;629- >;629- >;629- >;629- >;629- >;629- >;629- >;629- >;629- >;629- >;629- >;@629- >;@629- ;@629- ;@629- ;@629- @629- @629- @629- @629- @629- @629- @629- @629- @629- @629- @629- @629- @629- @629- @629- @629- @629- @629- @629- @629- @629- @629- @629- @629- @629- @629- @629- @629- @629- @629- @629- @629- @629- @629- @629- @629- @629- @629- @629- @629- @629- @629- @629- @629- @629- @629- @629- @629- @629- @629- @629- 629- 629- D629- D629- D629- D629- D629- D629- D629- D629- D629- D629- D629- D629- D629- D629- D629- D629- D629- D629- D629- D629- D629- D629- D629- D629- D629- D629- D629- D629- D629- D629- D629- D629- D629- D629- D629- D629- D629- D629- D629- D629- 629- 629- 629- 629- 629- 629- 629- 629- 629- 629- 629- 629- 629- 629- 629- 629- 629- 629- 629- 629- 629- 629- 629- 629- 629-E@ 629-E=@ 629-E=@ 629-E=@ 629-E=@ 629-E=@ 629-E=@ 629-E=@ 629-E=@ 629-E=@ 29-E=@ 9-E=@ 9-E=@ 9-E=@ 9-E=@ 9-E=@ 9-E=@-!! 9-E=@-!! 9-E=@-!! 9-E=@-!! 9-E=@-!! 9-E=@-!! 9-E=@-!! 9-E=@-!! 9-E=@-!! 9-E=@-!! 9-E=@-!! 9-E=@-!! 9-E=@-!! 9-E=@-!! 9-E=@-!! 9-E=@-!! 9-E=@-!! 9-E=@-!! 9-E=@-!! 9-E=@-!! 9-E=@-!! 9-E=@-!! 9-E=@-!! 9-E=@-!! 9-E=@-!! 9-E=@-!! 9-E=@-!! 9-E=@-!! 9-E=@-!! 9-E=@-!! 9-E=@-!! 9-E=@-!! 9-E=@-!! 9-E=@-!! 9-E=@-!! 9-E=@-!! 9-E=@-!! 9-E=@-!! 9-E=@-!! 9-E=@-!! 9-E=@-!! 9-E=@-!! 9-E=@-!! 9-E=@-!! 9-E=@-!! 9-E=@-!! 9-E=@-!! 9-E=@-!! 9-E=@-!! 9-E=@-!! 9-E=@-!! 9-E=@-!! 9-E=@-!! 9-E=@-!! 9-E=@-!! 9-E=@-!! 9-E=@-!! 9-E=@-!! 9-E=@-!! 9-E=@-!! 9-E=@-!! 9-E=@-!! 9-E=@-!! 9-E=@-!! 9-E=@-!! 9-E=@-!! 9-E=@-!! 9-E=@-!! 9-E=@-!! 9-E=@-!! 9-E=@-!! 9-E=@-!! 9-E=@-!! 9-E=@-!! 9-E=@-!! 9-E=@-!! 9-E=@-!! 9-E=@-!! 9-E=@-!! 9-E=@-!! 9-E=@-!! 9-E=@-!! 9-E=@-!! 9-E=@-!! 9-E=@-!! 9-E=@-!! 9-E=@-!! 9-E=@-!! 9-E=@-!! 9-E=@-!! 9-E=@-!! 9-E=@-!! 9-E=@-!! 9-E=@-!! 9-E=@-!! 9-E=@-!! 9-E=@-!! 9-E=@-!! 9-E=@-!! 9-E=@-!! 9-E=@-!! 9-E=@-!! 9-E=@-!! 9-E=@-!! 9-E=@-!! 9-E=@-!! 9-E=@-!! 9-E=@-!! 9-E=@-!! 9-E=@-!! 9-E=@-!! 9-E=@-!! 9-E=@-!! 9-E=@-!! 9-E=@-!! 9-E=@-!! 9-E=@-!! 9-E=@-!! 9-E=@-!! 9-E=@-!! 9-E=@-!! 9-E=@-!! 9-E=@-!! 9-E=@-!! 9-E=@-!! 9-E=@-!! 9-E=@-!! 9-E=@-!! 9-E=@-!! 9-E=@-!! 9-E=@-!! 9-E=@-!! 9-E=@-!! 9-E=@-!! 9-E=@-!! 9-E=@-!! 9-E=@-!! 9-E=@-!! 9-E=@-!! 9-E=@-!! 9-E=@-!! 9-E=@-!! 9-E=@-!! 9-E=@-!! 9-E=@-!! 9-E=@-!! 9-E=@-!! 9-E=@-!! 9-E=@-!! 9-E=@-!! 9-E=@-!! 9-E=@-!! 9-E=@-!! 9-E=@-!! 9-E=@-!! 9-E=@-!! 9-E=@-!! 9-E=@-!! 9-E=@-!! 9-E=@-!! 9-E=@-!! 9-E=@-!! 9-E=@-!! 9-E=@-!! 9-E=@-!! 9-E=@-!! 9-E=@-!! 9-E=@-!! 9-E=@-!! 9-E=@-!! 9-E=@-!! 9-E=@-!! 9-E=@-!! 9-E=@-!! 9-E=@-!! 9-E=@-!! 9-E=@-!! 9-E=@-!! 9-E=@-!! -E=@-!! -E=@-!! -E=@-!! -E=@-!! E=@-!! E=@-!! E=@-!! E=@-!! E=@-!! E=@-!! E=@-!! E=@-!! E=@-!! E=@-!! E=@-!! E=@-!! E=@-!! E=@-!! E=@-!! E=@ E=@ E=@ E=@ E=@ E=@ E=@ E=@ E=@ @ @ @ @ @ @ @ @                      1%% 1%% 1%% 1%% 1%% 1%% 1%% 1%% 1%% 1%% 1%% 1%% 1%% 1%% 1%% 1%% 1%% 1%% 1%% 1%% 1%% 1%% 1%% 1%% 1%% 1%% 1%% 1%% 1%% 1%% 1%% 1%% 1%% 1%% 1%% 1%% 1%% 1%% 1%% 1%% 1%% 1%% 1%% 1%% 1%% 1%% 1%% 1%% 1%% 1%% 1%% 1%% 1%% 1%% 1%% 1%% 1%% 1%% 1%% 1%% 1%% 1%% 1%% 1%% 1%% 1%% 1%% 1%% 1%% 1%% 1%% 1%% 1%% 1%% 1%% 1%% 1%% 1%% 1%% 1%% 1%% 1%% 1%% 1%% 1%% 1%% 1%% 1%% 1%% 1%% 1%% 1%% 1%% 1%% 1%% 1%% 1%% 1%% 1%% 1%% =IU1%% =IU1%% =IU1%% =IU1%% =IU1%% =IU1%% =IU1%% =IU1%% =IU1%% =IU1%% =IU1%% =IU1%% =IU1%% =IU1%% =IU1%% =IU1%% =IU1%% =IU1%% =IU1%% =IU1%% =IU1%% =IU1%% =IU1%% =IU1%% =IU1%% =IU1%% =IU1%% =IU1%% =IU1%% =IU1%% =IU1%% =IU1%% =IU1%% =IU1%% =IU1%% =IU1%% =IU1%% =IU1%% =IU1%% =IU1%% =IU1%% =IU1%% =IU1%% =IU1%% =IU1%% =IU1%% 1%% 1%% 1%% 1%% 1%% 1%% 1%% 1%% 1%% 1%% 1%% 1%% 1%% 1%% 1%% 1%% 1%% 1%% 1%% 1%% 1%% 1%% 1%% 1%% 1%% 1%% 1%% 1%% 1%% 1%% 1%% 1%% 1%% 1%% 1%% 1%% 1%% 1%% 1%% 1%% 1%% 1%% 1%% 1%% 1%% 1%% 1%% 1%% 1%% 1%% 1%% 1%% 1%% 1%% 1%% 1%% 1%% 1%% 1%% 1%% 1%% 1%% 1%% 1%% 1%% 1%% 1%% 1%% 1%% 1%% 1%% 1%% 1%% 1%% >JV1%% >JV1%% >JV1%% >JV1%% >JV1%% >JV1%% >JV1%% >JV1%% >JV1%% >JV1%% >JV1%% >JV1%% >JV1%% >JV1%% >JV1%% >JV1%% >JV1%% >JV1%% >JV1%% >JV1%% >JV1%% >JV1%% >JV1%% >JV1%% >JV1%% >JV1%% >JV1%% >JV1%% >JV1%% >JV1%% >JV1%% >JV1%% >JV1%% >JV1%% >JV1%% >JV1%% >JV1%% >JV1%% >JV1%% >JV1%% >JV1%% >JV1%% >JV1%% >JV1%% >JV1%% >JV1%% >JV1%% >JV1%% 1%% 1%% 1%% 1%% 1%% 1%% 1%% 1%% 1%% 1%% 1%% 1%% 1%% 1%% 1%% 1%% 1%% 1%% 1%% 1%% 1%% 1%% 1%% 1%% 1%% 1%% 1%% 1%% 1%% 1%% 1%% 1%% 1%% 1%% 1%% 1%% 1%% 1%% 1%% 1%% 1%% 1%% 1%% 1%% 1%% 1%% 1%% 1%% 1%% 1%% 1%% 1%% 1%% 1%% 1%% 1%% 1%% 1%% 1%% 1%% 1%% 1%% 1%% 1%% 1%% 1%% 1%% 1%% @LX1%% @LX1%% @LX1%% @LX1%% @LX1%% @LX1%% @LX1%% @LX1%% @LX1%% @LX1%% @LX1%% @LX1%% @LX1%% @LX1%% @LX1%% @LX1%% @LX1%% @LX1%% @LX1%% @LX1%% @LX1%% @LX1%% @LX1%% @LX1%% @LX1%% @LX1%% @LX1%% @LX1%% @LX1%% @LX1%% @LX1%% @LX1%% @LX1%% @LX1%% @LX1%% @LX1%% @LX1%% @LX1%% @LX1%% @LX1%% @LX1%% @LX1%% @LX1%% @LX1%% @LX1%% @LX1%% @LX1%% @LX1%% @LX1%% @LX1%% @LX1%% @LX1%% @LX1%% @LX1%% @LX1%% @LX1%% @LX1%% @LX1%% @LX1%% @LX1%% @LX1%% @LX1%% @LX1%% @LX1%% @LX1%% @LX1%% @LX1%% @LX1%% @LX1%% @LX1%% @LX1%% @LX1%% @LX1%% @LX1%% @LX1%% @LX1%% @LX1%% @LX1%% @LX1%% @LX1%% @LX1%% @LX1%% @LX1%% @LX1%% @LX1%% @LX1%% @LX1%% @LX1%% @LX1%% @LX1%% @LX1%% @LX1%% @LX1%% @LX1%% @LX1%% @LX1%% @LX1%% @LX1%% @LX1%% @LX1%% @LX1%% @LX1%% @LX1%% @LX1%% @LX1%% @LX1%% @LX1%% @LX1%% @LX1%% @LX1%% @LX1%% @LX1%% @LX1%% @LX1%% @LX1%% @LX1%% @LX1%% @LX1%% @LX1%% @LX1%% @LX1%% @LX1%% @LX1%% @LX1%% @LX1%% @LX1%% @LX1%% @LX1%% @9LEXQ1%% @9LEXQ1%% @9LEXQ1%% @9LEXQ1%% @9LEXQ1%% @9LEXQ1%% @9LEXQ1%% @9LEXQ1%% @9LEXQ1%% @9LEXQ1%% 9EQ1%% 9EQ1%% 9EQ1%% 9EQ1%% 9EQ1%% 9EQ1%% 9EQ1%% 9EQ1%% 9EQ1%% 9EQ1%% 9EQ1%% 9EQ1%% 9EQ1%% 9EQ1%% 9EQ1%% 9EQ1%% 9EQ1%% 9EQ1%% 9EQ1%% 9EQ1%% 9EQ1%% 9EQ1%% 9EQ1%% 9EQ1%% 9EQ1%% 9EQ1%% 9EQ1%% 9EQ1%% 9EQ1%% 9EQ1%% 9EQ1%% 9EQ1%% 9EQ1%% 9EQ1%% 9EQ1%% 9EQ1%% 1%% 1%% 1%% 1%% 1%% 1%% 1%% 1%% 1%% 1%% 1%% 1%% 1%% 1%% 1%% 1%% 1%% 1%% 1%% 1%% 1%% 1%% 1%% 1%% 1%% 1%% 1%% 1%% 1%% 1%% 1%% 1%% 1%% 1%% 1%% 1%% 1%% 1%% 1%% 1%% 1%% 1%% 1%% 1%% 1%% 1%% 1%% 1%% 1%% 1%% 1%% 1%% 1%% 1%% 1%% 1%% 1%% 1%% 1%% 1%% 1%% 1%% 1%% 1%% 1%% 1%% 8DP1%% 8DP1%% 8DP1%% 8DP1%% 8DP1%% 8DP1%% 8DP1%% 8DP1%% 8DP1%% 8DP1%% 8DP1%% 8DP1%% 8DP1%% 8DP1%% 8DP1%% 8DP1%% 8DP1%% 8DP1%% 8DP1%% 8DP1%% 8DP1%% 8DP1%% 8DP1%% 8DP1%% 8DP1%% 8DP1%% 8DP1%% 8DP1%% 8DP1%% 8DP1%% 8DP1%% 8DP1%% 8DP 8DP 8DP 8DP 8DP 8DP 8DP 8DP                                                                      3'' 3'' 3'' 3'' 3'' 6BN3'' 6BN3'' 6BN3'' 6BN3'' 6BN3'' 6BN3'' 6BN3'' 6BN3'' 6BN3'' 6BN3'' 6BN3'' 6BN3'' 6BN3'' 6BN3'' 6BN3'' 6BN3'' 6BN3'' 6BN3'' 6BN3'' 6BN3'' 6BN3'' 6BN3'' 6BN3'' 6BN3'' 6BN3'' 6BN3'' 6BN3'' 6BN3'' 6BN3'' 6BN3'' 6BN3'' 6BN3'' 6BN3'' 6BN3'' 6BN3'' 6BN3'' 6BN3'' 6BN3'' 6BN3'' 6BN3'' 6BN3'' 6BN3'' 6BN3'' 6BN3'' 6BN3'' 6BN3'' 6BN3'' 6BN3'' 6BN3'' 6BN3'' 6BN3'' 6BN3'' 6BN3'' 6BN3'' 6BN3'' 6BN3'' 6BN3'' 6BN3'' 6BN3'' 6BN3'' 6BN3'' 6BN3'' 6BN3'' 6BN3'' 6BN3'' 6BN3'' 6BN3'' 6BN3'' 6BN3'' 6BN3'' 6BN3'' 6BN3'' 6BN3'' 6BN3'' 6BN3'' 6BN3'' 6BN3'' 6BN3'' 6BN3'' 6BN3'' 6BN3'' 6BN3'' 6BN3'' 6BN3'' 6BN3'' 6BN3'' 6BN3'' 6BN3'' 6BN3'' 6BN3'' 6BN3'' 6BN3'' 6BN3'' 6BN3'' 6BN3'' 6BN3'' 6BN3'' 6BN3'' 6BN3'' 6BN3'' 6BN3'' 6BN3'' 6BN3'' 6BN3'' 6BN3'' 6BN3'' 6BN3'' 6BN3'' 6BN3'' 6BN3'' 6BN3'' 6BN3'' 6BN3'' 6BN3'' 6BN3'' 6BN3'' 6BN3'' 6BN3'' 6BN3'' 6BN3'' 6BN3'' 68BDNP3'' 68BDNP3'' 8DP3'' 8DP3'' 8DP3'' 8DP3'' 8DP3'' 8DP3'' 8DP3'' 8DP3'' 8DP3'' 8DP3'' 8DP3'' 8DP3'' 8DP3'' 8DP3'' 8DP3'' 8DP3'' 8DP3'' 8DP3'' 8DP3'' 8DP3'' 8DP3'' 8DP3'' 8DP3'' 8DP3'' 8DP3'' 8DP3'' 8DP3'' 8DP3'' 8DP3'' 8DP3'' 8DP3'' 8DP3'' 8DP3'' 8DP3'' 8DP3'' 8DP3'' 8DP3'' 8DP3'' 8DP3'' 8DP3'' 8DP3'' 8DP3'' 8DP3'' 3'' 3'' 3'' 3'' 3'' 3'' 3'' 3'' 3'' 3'' 3'' 3'' 3'' 3'' 3'' 3'' 3'' 3'' 3'' 3'' 3'' 3'' 3'' 3'' 3'' 3'' 3'' 3'' 3'' 3'' 3'' 3'' 3'' 3'' 3'' 3'' 3'' 3'' 3'' 3'' 3'' 3'' 3'' 3'' 3'' 3'' 3'' 3'' 3'' 3'' 3'' 3'' 3'' 3'' 3'' 3'' 3'' 3'' 3'' 3'' 3'' 3'' 3'' 3'' 3'' 3'' 3'' 3'' 3'' 3'' 3'' 3'' 9EQ3'' 9EQ3'' 9EQ3'' 9EQ3'' 9EQ3'' 9EQ3'' 9EQ 9EQ 9EQ 9EQ 9EQ 9EQ 9EQ 9EQ 9EQ 9EQ 9EQ 9EQ 9EQ 9EQ 9EQ 9EQ 9EQ 9EQ 9EQ 9EQ 9EQ 9EQ 9EQ 9EQ 9EQ 9EQ 9EQ 9EQ 9EQ 9EQ 9EQ 9EQ 9EQ 9EQ 9EQ 9EQ 9EQ 9EQ 9EQ 9EQ 9EQ 9EQ 9EQ 9EQ 9EQ 9EQ 9EQ                                                                     4(( 4(( 4(( 4(( 4(( 4(( 4(( 4(( 4(( 4(( 4(( 4(( 4(( 4(( 4(( 8DP4(( 8DP4(( 8DP4(( 8DP4(( 8DP4(( 8DP4(( 8DP4(( 8DP4(( 8DP4(( 8DP4(( 8DP4(( 8DP4(( 8DP4(( 8DP4(( 8DP4(( 8DP4(( 8DP4(( 8DP4(( 8DP4(( 8DP4(( 8DP4(( 8DP4(( 8DP4(( 8DP4(( 8DP4(( 8DP4(( 8DP4(( 8DP4(( 8DP4(( 8DP4(( 8DP4(( 8DP4(( 8DP4(( 8DP4(( 8DP4(( 8DP4(( 8DP4(( 8DP4(( 8DP4(( 8DP4(( 8DP4(( 8DP4(( 8DP4(( 8DP4(( 8DP4(( 8DP4(( 8DP4(( 8DP4(( 8DP4(( 8DP4(( 8DP4(( 8DP4(( 8DP4(( 8DP4(( 8DP4(( 8DP4(( 8DP4(( 8DP4(( 8DP4(( 8DP4(( 8DP4(( 8DP4(( 8DP4(( 8DP4(( 8DP4(( 8DP4(( 8DP4(( 8DP4(( 8DP4(( 8DP4(( 8DP4(( 8DP4(( 8DP4(( 8DP4(( 8DP4(( 8DP4(( 8DP4(( 8DP4(( 8DP4(( 8DP4(( 8DP4(( 8DP4(( 8DP4(( 8DP4(( 8DP4(( 8DP4(( 8DP4(( 8DP4(( 8DP4(( 8DP4(( 8DP4(( 8DP4(( 8DP4(( 8DP4(( 8DP4(( 8DP4(( 8DP4(( 8DP4(( 8DP4(( 8DP4(( 8DP4(( 8DP4(( 8DP4(( 8DP4(( 8DP4(( 8DP4(( 8DP4(( 8DP4(( 8DP4(( 8DP4(( 8DP4(( 8DP4(( 8DP4(( 8DP4(( 8DP4(( 8DP4(( 8DP4(( 8DP4(( 8DP4(( 8DP4(( 8DP4(( 8DP4(( 8DP4(( 8DP4(( 8DP4(( 8DP4(( 8DP4(( 8DP4(( 8DP4(( ;GS4(( D;PG\S4(( D;PG\S4(( D;PG\S4(( D;PG\S4(( D;PG\S4(( D;PG\S4(( D;PG\S4(( D;PG\S4(( D;PG\S4(( D;PG\S4(( D;PG\S4(( D;PG\S4(( D;PG\S4(( D;PG\S4(( D;PG\S4(( D;PG\S4(( D;PG\S4(( D;PG\S4(( D;PG\S4(( D;PG\S4(( D;PG\S4(( D;PG\S4(( D;PG\S4(( D;PG\S4(( D;PG\S4(( D;PG\S4(( D;PG\S4(( D;PG\S4(( D;PG\S4(( D;PG\S4(( D;PG\S4(( D;PG\S4(( D;PG\S4(( D;PG\S4(( D;PG\S4(( D;PG\S4(( D;PG\S4(( D;PG\S4(( D;PG\S4(( D;PG\S4(( D;PG\S4(( D;PG\S4(( D;PG\S4(( D;PG\S4(( D;PG\S4(( D;PG\S4(( D;PG\S4(( D;PG\S4(( ;GS4(( 4(( 4(( 4(( 4(( 4(( 4(( 4(( 4(( 4(( 4(( 4(( 4(( 4(( 4(( 4(( 4(( 4(( 4(( 4(( 4(( 4(( 4(( 4(( 4(( 4(( 4(( 4(( 4(( 4(( 4(( 4(( 4(( 4(( 4(( 4(( 4(( 4(( 4(( 4(( 4(( 4(( 4(( 4(( 4(( 4(( 4(( 4(( 4(( 4(( 4(( 4(( 4(( 4(( 4(( 9EQ4(( 9EQ4(( E9QE]Q4(( E9QE]Q4(( E9QE]Q4(( E9QE]Q4(( E9QE]Q4(( E9QE]Q4(( E9QE]Q4(( E9QE]Q4(( E9QE]Q4(( E9QE]Q4(( E9QE]Q4(( E9QE]Q4(( E9QE]Q4(( E9QE]Q4(( E9QE]Q4(( E9QE]Q4(( E9QE]Q4(( E9QE]Q4(( E9QE]Q4(( E9QE]Q4(( E9QE]Q4(( E9QE]Q4(( E9QE]Q4(( E9QE]Q4(( E9QE]Q4(( E9QE]Q4(( E9QE]Q4(( E9QE]Q4(( E9QE]Q4(( E9QE]Q4(( E9QE]Q4(( E9QE]Q4(( E9QE]Q4(( E9QE]Q4(( E9QE]Q4(( E9QE]Q4(( E9QE]Q4(( E9QE]Q4(( E9QE]Q4(( E9QE]Q4(( E9QE]Q4(( E9QE]Q4(( 9EQ4(( 9EQ4(( 9EQ4(( 9EQ4(( 9EQ4(( 9EQ4(( 9EQ4(( 9EQ4(( 9EQ4(( 9EQ4(( 9EQ4(( 9EQ4(( 4(( 4(( 4(( 4(( 4(( 4(( 4(( 4(( 4(( 4(( 4(( 4(( 4(( 4(( 4(( 4(( 4(( 4(( 4(( 4(( 4(( 4(( 4(( 4(( 4(( 4(( 4(( 4(( 4(( 4(( 4(( 4(( 4(( 4(( 4(( 4(( 4(( 4(( 4(( 4(( 4(( 4(( 4(( 4(( 4(( 4(( 4(( 4(( 4(( 4(( 4(( 4(( 4(( 4(( 4(( 4(( GS_4(( GS_4(( GS_4(( GS_4(( GS_4(( GS_4(( GS_4(( GS_4(( GS_4(( GS_4(( GS_4(( GS_4(( G8SD_P4(( G8SD_P4(( G8SD_P4(( G8SD_P4(( G8SD_P4(( G8SD_P4(( G8SD_P4(( G8SD_P4(( G8SD_P4(( G8SD_P4(( G8SD_P4(( G8SD_P4(( G8SD_P4(( G8SD_P4(( G8SD_P4(( G8SD_P4(( G8SD_P4(( G8SD_P4(( G8SD_P4(( G8SD_P4(( G8SD_P4(( G8SD_P4(( G8SD_P4(( G8SD_P4(( G8SD_P4(( G8SD_P4(( G8SD_P4(( G8SD_P4(( G8SD_P4(( G8SD_P4(( G8SD_P4(( G8SD_P4(( G8SD_P4(( G8SD_P4(( G8SD_P4(( G8SD_P4(( G8SD_P4(( G8SD_P4(( G8SD_P4(( G8SD_P4(( G8SD_P4(( G8SD_P4(( G8SD_P4(( G8SD_P4(( G8SD_P4(( G8SD_P4(( G8SD_P4(( G8SD_P4(( G8SD_P4(( G8SD_P4(( G8SD_P4(( G8SD_P4(( G8SD_P4(( G8SD_P4(( G8SD_P4(( G8SD_P4(( G8SD_P4(( G8SD_P4(( G8SD_P4(( G8SD_P4(( G8SD_P4(( G8SD_P4(( G8SD_P4(( G8SD_P4(( G8SD_P4(( G8SD_P4(( G8SD_P4(( G8SD_P4(( G8SD_P4(( G8SD_P4(( G8SD_P4(( G8SD_P4(( G8SD_P4(( G8SD_P4(( G8SD_P4(( G8SD_P4(( G8SD_P4(( G8SD_P4(( G8SD_P4(( G8SD_P4(( G8SD_P4(( G8SD_P4(( G8SD_P4(( G8SD_P4(( G8SD_P4(( G8SD_P4(( G8SD_P4(( G8SD_P4(( G8SD_P4(( G8SD_P4(( G8SD_P4(( G8SD_P4(( G8SD_P4(( G8SD_P4(( G8SD_P4(( G8SD_P4(( G8SD_P4(( G8SD_P4(( G8SD_P4(( G8SD_P4(( G8SD_P4(( G8SD_P4(( G8SD_P4(( G8SD_P4(( G8SD_P4(( G8SD_P4(( G8SD_P4(( G89SDE_PQ4(( G89SDE_PQ4(( G89SDE_PQ4(( G89@SDEL_PQX4(( 89@DELPQX4(( 89@DELPQX4(( 89@DELPQX4(( 89@DELPQX4(( 89@DELPQX4(( 89@DELPQX4(( 89@DELPQX4(( 89@DELPQX4(( 89@DELPQX4(( 89@DELPQX4(( 9@ELQX4(( 9@ELQX4(( 9@ELQX4(( 9@ELQX4(( 9@ELQX4(( 9@ELQX4(( 9@ELQX4(( 9@ELQX4(( 9@ELQX4(( 9@ELQX4(( 9@ELQX4(( 9@ELQX4(( 9@ELQX4(( 9@ELQX4(( 9@ELQX4(( 9@ELQX4(( 9@ELQX4(( 9@ELQX4(( 9@ELQX4(( 9@ELQX4(( 9@ELQX4(( 9@ELQX4(( 9@ELQX4(( 9@ELQX4(( 9@ELQX4(( 9@ELQX 9@ELQX 9@ELQX @LX                                                                    ;GS ;GS ;GS ;GS >;JGVS >;JGVS >;JGVS >;JGVS >;JGVS >;JGVS >;JGVS >;JGVS >;JGVS >;JGVS >;JGVS >;JGVS >;JGVS >;JGVS >;JGVS >;JGVS >;JGVS >;JGVS >;JGVS >;JGVS >;JGVS >;JGVS >;JGVS >;JGVS >;JGVS >;JGVS >;JGVS >;JGVS >;JGVS >;JGVS >;JGVS >;JGVS >;JGVS >;JGVS >;JGVS >;JGVS >;JGVS >;JGVS >;JGVS >;JGVS >;JGVS >;JGVS >;JGVS >;JGVS >;JGVS >;JGVS >;JGVS >;JGVS >;JGVS >;JGVS >;JGVS >;JGVS ;GS ;GS ;GS ;GS ;GS ;GS ;GS ;GS ;GS ;GS ;GS ;GS ;GS ;GS ;GS ;GS ;GS ;GS ;GS ;GS ;GS ;GS ;GS ;GS                                     9EQ 9EQ 9EQ 9EQ 9EQ 9EQ 9EQ 9EQ4(( 9=EIQU4(( 9=EIQU4(( 9=EIQU4(( 9=EIQU4(( 9=EIQU4(( 9=EIQU4(( 9=EIQU4(( 9=EIQU4(( 9=EIQU4(( 9=EIQU4(( 9=EIQU4(( 9=EIQU4(( 9=EIQU4(( 9=EIQU4(( 9=EIQU4(( 9=EIQU4(( 9=EIQU4(( 9=EIQU4(( 9=EIQU4(( 9=EIQU4(( 9=EIQU4(( 9=EIQU4(( 9=EIQU4(( 9=EIQU4(( 9=EIQU4(( 9=EIQU4(( 9=EIQU4(( 9=EIQU4(( 9=EIQU4(( 9=EIQU4(( 9=EIQU4(( 9=EIQU4(( 9=EIQU4(( 9=EIQU4(( 9=EIQU4(( 9=EIQU4(( 9=EIQU4(( 9=EIQU4(( 9=EIQU4(( 9=EIQU4(( 9=EIQU4(( 9=EIQU4(( 9=EIQU4(( 9=EIQU4(( 9=EIQU4(( 9=EIQU4(( 9=EIQU4(( 9=EIQU4(( 9=EIQU4(( 9=EIQU4(( 9=EIQU4(( 9=EIQU4(( 9=EIQU4(( 9=EIQU4(( 9=EIQU4(( 9=EIQU4(( 9=EIQU4(( 9=EIQU4(( 9=EIQU4(( 9=EIQU4(( 9=EIQU4(( 9=EIQU4(( 9=EIQU4(( 9=EIQU4(( 9=EIQU4(( 9=EIQU4(( 9=EIQU4(( 9=EIQU4(( 9=EIQU4(( 9=EIQU4(( 9=EIQU4(( 9=EIQU4(( 9=EIQU4(( 9=EIQU4(( 9=EIQU4(( 9=EIQU4(( 9=EIQU4(( 9=EIQU4(( 9=EIQU4(( 9=EIQU4(( 9=EIQU4(( 9=EIQU4(( 9=EIQU4(( 9=EIQU4(( 9=EIQU4(( 9=EIQU4(( 9=EIQU4(( 9=EIQU4(( 9=EIQU4(( 9=EIQU4(( 9=EIQU4(( 9=EIQU4(( 9=EIQU4(( 9=EIQU4(( 9=EIQU4(( 9=EIQU4(( 9=EIQU4(( 9=EIQU4(( 9=EIQU4(( 9=EIQU4(( 9=EIQU4(( 9=EIQU4(( 9=EIQU4(( 9=EIQU4(( 9=EIQU4(( 9=EIQU4(( 9=EIQU4(( 9=EIQU4(( 9=EIQU4(( 9=EIQU4(( 9=EIQU4(( 9=EIQU4(( 9=EIQU4(( 9=EIQU4(( 9=;EIGQUS4(( 9=;EIGQUS4(( =;IGUS4(( =;IGUS4(( =;IGUS4(( =;IGUS4(( =;IGUS4(( =;IGUS4(( =;IGUS4(( =;IGUS4(( =;IGUS4(( =;IGUS4(( =;?IGKUSW4(( =;?IGKUSW4(( =;?IGKUSW4(( =;?IGKUSW4(( =;?IGKUSW4(( =;?IGKUSW4(( =;?IGKUSW4(( =;?IGKUSW4(( =;?IGKUSW4(( ;?GKSW4(( ;?GKSW4(( ;?GKSW4(( ;?GKSW4(( ;?GKSW4(( ;?GKSW4(( ;?GKSW4(( ;?GKSW4(( ;?GKSW4(( ;?GKSW4(( ;?GKSW4(( ;?GKSW4(( ;?GKSW4(( ;?GKSW4(( ;?GKSW4(( ;?GKSW4(( ;?GKSW4(( ;?GKSW4(( ;?GKSW4(( ;?GKSW4(( ;?GKSW4(( ;?GKSW4(( ;?GKSW4(( ;?GKSW4(( ;?GKSW4(( ;?GKSW4(( ;?GKSW4(( ;?GKSW4(( ;?GKSW4(( ;?GKSW4(( ;?GKSW4(( ;?GKSW4(( ;?GKSW4(( ;?GKSW4(( ;?GKSW4(( ;?GKSW4(( ;?GKSW4(( ;?GKSW4(( ;?GKSW4(( ;?GKSW4(( ;?GKSW4(( ;?GKSW4(( ;?GKSW4(( ;?GKSW4(( ;?GKSW4(( ;?GKSW4(( ;?GKSW4(( ;?GKSW4(( ;?GKSW4(( ?KW4(( ?KW4(( 4(( 4(( 4(( 4(( 4(( 4(( 4(( 4(( 4(( 4(( 4(( 4(( 4(( 4(( 4(( 4(( 4(( 4(( 4(( 4(( 4(( 4(( 4(( 4(( 4(( 4(( 4(( 4(( 4(( 4(( 4(( 4(( 4(( 4(( 4(( 4(( 4(( 4(( 4(( 4(( 4(( 4(( 4(( 4(( 4(( 4(( 8DP4(( 8DP4(( 8DP4(( 8DP4(( 8DP4(( 8DP4(( 8DP4(( 8DP4(( 8@DLPX4(( 8@DLPX4(( 8@DLPX4(( 8@DLPX4(( 8@DLPX4(( 8@DLPX4(( 8@DLPX4(( 8@DLPX4(( 8@DLPX4(( 8@DLPX4(( 8@DLPX4(( 8@DLPX4(( 8@DLPX4(( 8@DLPX4(( 8@DLPX4(( 8@DLPX4(( 8@DLPX4(( 8@DLPX4(( 8@DLPX4(( 8@DLPX4(( 8@DLPX4(( 8@DLPX4(( 8@DLPX4(( 8@DLPX4(( 8@DLPX4(( 8@DLPX4(( 8@DLPX4(( 8@DLPX4(( 8@DLPX4(( 8@DLPX4(( 8@DLPX4(( 8@DLPX4(( 8@DLPX4(( 8@DLPX4(( 8@DLPX4(( 8@DLPX4(( 8@DLPX4(( 8@DLPX4(( 8@DLPX4(( 8@DLPX4(( 8@DLPX4(( 8@DLPX4(( 8@DLPX4(( 8@DLPX4(( 8@DLPX4(( 8@DLPX4(( 8@DLPX4(( 8@DLPX4(( 8@DLPX4(( 8@DLPX4(( 8@DLPX4(( 8@DLPX4(( 8@DLPX4(( 8@DLPX4(( 8@DLPX4(( 8@DLPX4(( 8@DLPX4(( 8@DLPX4(( 8@DLPX4(( 8@DLPX4(( 8@DLPX4(( 8@DLPX4(( 8@DLPX4(( 8@DLPX4(( 8@DLPX4(( 8@DLPX4(( 8@DLPX4(( 8@DLPX4(( 8@DLPX4(( 8@DLPX4(( 8@DLPX 8@DLPX 8@DLPX 8@DLPX 8@DLPX 8@DLPX 8@DLPX @LX @LX @LX @LX @LX @LX @LX @LX @LX @LX @LX @LX                         6** 6** 6** 6** 9EQ6** ?9KEWQ6** ?9KEWQ6** ?9KEWQ6** ?9KEWQ6** ?9KEWQ6** ?9KEWQ6** ?9KEWQ6** ?9KEWQ6** ?9KEWQ6** ?9KEWQ6** ?9KEWQ6** ?9KEWQ6** ?9KEWQ6** ?9KEWQ6** ?9KEWQ6** ?9KEWQ6** ?9KEWQ6** ?9KEWQ6** ?9KEWQ6** ?9KEWQ6** ?9KEWQ6** ?9KEWQ6** ?9KEWQ6** ?9KEWQ6** ?9KEWQ6** ?9KEWQ6** ?9KEWQ6** ?9KEWQ6** ?9KEWQ6** ?9KEWQ6** ?9KEWQ6** ?9KEWQ6** ?9KEWQ6** ?9KEWQ6** ?9KEWQ6** ?9KEWQ6** ?9KEWQ6** ?9KEWQ6** ?9KEWQ6** ?9KEWQ6** ?9KEWQ6** ?9KEWQ6** ?9KEWQ6** ?9KEWQ6** ?9KEWQ6** ?9KEWQ6** ?9KEWQ6** ?9KEWQ6** ?9KEWQ6** ?9KEWQ6** ?9KEWQ6** ?9KEWQ6** ?9KEWQ6** ?9KEWQ6** ?9KEWQ6** ?9KEWQ6** ?9KEWQ6** ?9KEWQ6** ?9KEWQ6** ?9KEWQ6** ?9KEWQ6** ?9KEWQ6** ?9KEWQ6** ?9KEWQ6** ?9KEWQ6** ?9KEWQ6** ?9KEWQ6** ?9KEWQ6** ?9KEWQ6** ?9KEWQ6** ?9KEWQ6** ?9KEWQ6** ?9KEWQ6** ?9KEWQ6** ?9KEWQ6** ?9KEWQ6** ?9KEWQ6** ?9KEWQ6** ?9KEWQ6** ?9KEWQ6** ?9KEWQ6** ?9KEWQ6** ?9KEWQ6** ?9KEWQ6** ?9KEWQ6** ?9KEWQ6** ?9KEWQ6** ?9KEWQ6** ?9KEWQ6** ?9KEWQ6** ?9KEWQ6** ?9KEWQ6** ?9KEWQ6** ?9KEWQ6** ?9KEWQ6** ?9KEWQ6** ?9KEWQ6** ?9KEWQ6** ?9KEWQ6** ?9KEWQ6** ?9KEWQ6** ?9KEWQ6** ?9KEWQ6** ?9KEWQ6** ?9KEWQ6** ?9KEWQ6** ?9KEWQ6** ?9KEWQ6** ?9KEWQ6** ?9KEWQ6** ?9KEWQ6** ?9KEWQ6** ?9KEWQ6** ?9KEWQ6** ?9KEWQ6** ?9KEWQ6** ?9KEWQ6** ?9KEWQ6** ?9KEWQ6** ?B9KNEWZQ6** ?B9KNEWZQ6** B9NEZQ6** B9NEZQ6** B9NEZQ6** B9NEZQ6** B9NEZQ6** B9NEZQ6** B9NEZQ6** B9NEZQ6** B9NEZQ6** B9NEZQ6** B9NEZQ6** B9NEZQ6** B9NEZQ6** B9NEZQ6** B9NEZQ6** B9NEZQ6** BK9NWEZcQ6** BK9NWEZcQ6** BK9NWEZcQ6** BK9NWEZcQ6** BK9NWEZcQ6** BK9NWEZcQ6** BK9NWEZcQ6** BK9NWEZcQ6** BK9NWEZcQ6** BK9NWEZcQ6** BK9NWEZcQ6** BK9NWEZcQ6** BK9NWEZcQ6** BK9NWEZcQ6** BK9NWEZcQ6** BK9NWEZcQ6** BK9NWEZcQ6** BK9NWEZcQ6** BK9NWEZcQ6** BK9NWEZcQ6** BK9NWEZcQ6** BK9NWEZcQ6** BK9NWEZcQ6** BK9NWEZcQ6** BK9NWEZcQ6** BK9NWEZcQ6** BK9NWEZcQ6** BK9NWEZcQ6** BK9NWEZcQ6** BK9NWEZcQ6** BK9NWEZcQ6** BK9NWEZcQ6** BK9NWEZcQ6** BK9NWEZcQ6** BK9NWEZcQ6** BK9NWEZcQ6** BK9NWEZcQ6** BK9NWEZcQ6** BK9NWEZcQ6** BK9NWEZcQ6** BK9NWEZcQ6** BK9NWEZcQ6** BK9NWEZcQ6** BK9NWEZcQ6** BK9NWEZcQ6** BK9NWEZcQ6** K9WEcQ6** K9WEcQ6** K9WEcQ6** K9WEcQ6** K9WEcQ6** K9WEcQ6** K9WEcQ6** K9WEcQ6** K9WEcQ6** K9WEcQ6** K9WEcQ6** K9WEcQ6** K9WEcQ6** K9WEcQ6** K9WEcQ6** K9WEcQ6** K9WEcQ6** K9WEcQ6** K9WEcQ6** K9WEcQ6** K9WEcQ6** K9WEcQ6** K9WEcQ6** K9WEcQ6** K9WEcQ6** K9WEcQ6** K9WEcQ6** K9WEcQ6** K9WEcQ6** 9EQ6** 9EQ6** 9EQ6** 9EQ6** 9EQ6** 9EQ6** 9EQ6** 9EQ6** 9EQ6** 9EQ6** 9EQ6** 9EQ6** 9EQ6** 9EQ6** 9EQ6** 9EQ6** 9EQ6** 9EQ6** 9EQ6** 9EQ6** 9EQ6** 9EQ6** 9EQ6** 9EQ6** 9EQ6** 9EQ6** 9EQ6** 9EQ6** 9EQ6** 9EQ6** 9EQ6** @9LEXQ6** @9LEXQ6** @9LEXQ6** @L9LXEXdQ6** @L9LXEXdQ6** @L9LXEXdQ6** @L9LXEXdQ6** @L9LXEXdQ6** @L9LXEXdQ6** @L9LXEXdQ6** @L9LXEXdQ6** @L9LXEXdQ6** @L9LXEXdQ6** @L9LXEXdQ6** @L9LXEXdQ6** @L9LXEXdQ6** @L9LXEXdQ6** @L9LXEXdQ6** @L9LXEXdQ6** @L9LXEXdQ6** @L9LXEXdQ6** @L9LXEXdQ6** @L9LXEXdQ6** @L9LXEXdQ6** @L9LXEXdQ6** @L9LXEXdQ6** @L9LXEXdQ6** @L9LXEXdQ6** @L9LXEXdQ6** @L9LXEXdQ6** @L9LXEXdQ6** @L9LXEXdQ6** @L9LXEXdQ6** @L9LXEXdQ6** @L9LXEXdQ6** @L9LXEXdQ6** @L9LXEXdQ6** @L9LXEXdQ6** @L9LXEXdQ6** @L9LXEXdQ6** @L9LXEXdQ6** @L9LXEXdQ6** @L9LXEXdQ6** @L9LXEXdQ6** @L9LXEXdQ6** @L9LXEXdQ6** L9XEdQ6** L9XEdQ6** L9XEdQ6** 9EQ6** 9EQ6** 9EQ6** 9EQ6** 9EQ6** 9EQ6** 9EQ6** 9EQ6** 9EQ6** 9EQ6** 9EQ6** 9EQ6** 9EQ6** 9EQ6** 9EQ6** 9EQ6** 9EQ6** 9EQ6** 9EQ6** 9EQ6** 9EQ6** 9EQ6** 9EQ6** 9EQ6** 9EQ6** 9EQ6** 9EQ6** 9EQ6** 9EQ6** 9EQ6** 9EQ6** 9EQ6** 9EQ6** 9EQ6** 9EQ6** 9EQ6** 9EQ6** 9EQ6** 9EQ6** 9EQ6** 9EQ6** 9EQ6** 9EQ6** 9EQ6** 9EQ6** 9EQ6** 9EQ6** 9EQ6** 9EQ6** 9EQ6** 9EQ6** 9EQ6** 9EQ6** 9EQ6** 9EQ6** 9EQ6** 9EQ6** 9EQ6** 9EQ6** 9EQ6** 9EQ6** 9EQ6** 9EQ6** 9EQ6** 9EQ6** 9EQ6** 9EQ6** 9EQ6** 9EQ6** 9EQ6** 9EQ6** 9EQ6** 9EQ6** 9?EKQW6** 9?EKQW6** 9?EKQW6** 9?EKQW6** 9?EKQW6** 9?EKQW6** N9?ZEKfQW6** N9?ZEKfQW6** N9?ZEKfQW6** N9?ZEKfQW6** N9?ZEKfQW6** N9?ZEKfQW6** N9?ZEKfQW6** N9?ZEKfQW6** N9?ZEKfQW6** N9?ZEKfQW6** N9?ZEKfQW6** N9?ZEKfQW6** N9?ZEKfQW6** N9?ZEKfQW6** N9?ZEKfQW6** N9?ZEKfQW6** N9?ZEKfQW6** N9?ZEKfQW6** N9?ZEKfQW6** N9?ZEKfQW6** N9?ZEKfQW6** N9?ZEKfQW6** N9?ZEKfQW6** N9?ZEKfQW6** N9?ZEKfQW6** N9?ZEKfQW6** N9?ZEKfQW6** N9?ZEKfQW6** N9?ZEKfQW6** N9?ZEKfQW6** N9?ZEKfQW6** N9?ZEKfQW6** N9?ZEKfQW6** N9?ZEKfQW6** N9?ZEKfQW6** N9?ZEKfQW6** N9?ZEKfQW6** N9?ZEKfQW6** N9?ZEKfQW6** N9?ZEKfQW6** N9?ZEKfQW6** N9?ZEKfQW6** N9?ZEKfQW6** N9?ZEKfQW6** N9?ZEKfQW6** N9?ZEKfQW6** N9?ZEKfQW6** N9?ZEKfQW6** N9?ZEKfQW6** N9?ZEKfQW6** N9?ZEKfQW6** N9?ZEKfQW6** N9?ZEKfQW6** N9?ZEKfQW6** N9?ZEKfQW6** N9?ZEKfQW6** N9?ZEKfQW6** N9?ZEKfQW6** N9?ZEKfQW6** N9?ZEKfQW6** N9?ZEKfQW6** N9?ZEKfQW6** N9?ZEKfQW6** N9?ZEKfQW6** N9?ZEKfQW6** N9?ZEKfQW6** N9?ZEKfQW6** N9?ZEKfQW6** N9?ZEKfQW6** N9?ZEKfQW6** N9?ZEKfQW6** N9?ZEKfQW6** N9?ZEKfQW6** N9?ZEKfQW6** N9?ZEKfQW6** N9?ZEKfQW6** N9?ZEKfQW6** N9?ZEKfQW6** N9?ZEKfQW6** N9?ZEKfQW6** N9?ZEKfQW6** N9?ZEKfQW6** N9?ZEKfQW6** N9?ZEKfQW6** N9?ZEKfQW6** N9?ZEKfQW6** N9?ZEKfQW6** N9?ZEKfQW6** N9?ZEKfQW6** N9?ZEKfQW6** N9?ZEKfQW6** N9?ZEKfQW6** N9?ZEKfQW6** N9?ZEKfQW6** N9?ZEKfQW6** N9?ZEKfQW6** N9?ZEKfQW6** N9?ZEKfQW6** N9?ZEKfQW6** N9?ZEKfQW6** N9?ZEKfQW6** N9?ZEKfQW6** N9?ZEKfQW6** N9?ZEKfQW6** N9?ZEKfQW6** N9?ZEKfQW6** N9?ZEKfQW6** N9?ZEKfQW6** N9?ZEKfQW6** N9?ZEKfQW6** N9?ZEKfQW6** N9?ZEKfQW6** N9?ZEKfQW6** N9?ZEKfQW6** N9?ZEKfQW6** N9?EZEKQfQW]6** 9?EEKQQW]6** 9?E6EKQBQW]N6** 9?E6EKQBQW]N6** 9?E6EKQBQW]N6** 9?E6EKQBQW]N6** 9?E6EKQBQW]N6** 9?E6EKQBQW]N6** 9?E6EKQBQW]N6** 9?E6EKQBQW]N6** 9?E6EKQBQW]N6** ?E6KQBW]N6** ?E6KQBW]N6** ?E6KQBW]N6** ?E6KQBW]N6** ?E6KQBW]N6** ?E6KQBW]N6** ?E6KQBW]N6** ?E6KQBW]N6** ?E6KQBW]N6** ?E6KQBW]N6** ?E6KQBW]N6** ?E6KQBW]N6** ?E6KQBW]N6** ?E6KQBW]N6** ?E6KQBW]N6** ?E6KQBW]N6** ?E6KQBW]N6** ?E6KQBW]N6** ?E6KQBW]N6** ?E6KQBW]N6** ?E6KQBW]N6** ?E6KQBW]N6** ?E6KQBW]N6** ?E6KQBW]N6** ?E6KQBW]N6** ?E6KQBW]N6** ?E6KQBW]N6** ?E6KQBW]N6** ?E6KQBW]N6** ?E6KQBW]N6** ?E6KQBW]N6** ?E6KQBW]N6** ?E6KQBW]N6** ?E6KQBW]N6** ?E6KQBW]N6** ?E6KQBW]N6** ?E6KQBW]N6** ?E6KQBW]N6** ?E6KQBW]N6** ?E6KQBW]N6** ?E6KQBW]N6** ?E6KQBW]N6** ?E6KQBW]N6** ?E6KQBW]N6** E6QB]N6** E6QB]N6** E6QB]N6** E6QB]N6** E6QB]N6** E6QB]N6** E6QB]N6** E6QB]N6** E6QB]N6** E6QB]N6** E6QB]N6** E6QB]N6** E6QB]N6** E6QB]N6** E6QB]N6** E6QB]N6** E6QB]N6** E6QB]N6** E6QB]N6** 6BN6** 6BN6** 6BN6** 6BN6** 6BN6** 6BN6** 6BN6** 6BN6** 6BN6** 6BN6** 6BN6** 6BN6** 6BN6** 6BN6** 6BN6** 6BN6** 6BN6** 6BN6** 6BN6** 6BN6** 6BN6** 6BN6** 6BN6** 6BN6** 6BN6** 6BN6** 6BN6** 6BN6** 6BN6** 6BN6** 6BN6** 6BN6** 6BN6** 6BN6** 6BN6** 6BN6** 6BN6** 6BN6** 6BN6** 6BN6** 6DBPN\6** 6DBPN\6** 6DBPN\6** 6DBPN\6** 6DBPN\6** 6DBPN\6** 6DBPN\6** 6@DBLPNX\6** 6@DBLPNX\6** 6@D8BLPDNX\P6** @D8LPDX\P6** @D8LPDX\P6** @D8LPDX\P6** @D8LPDX\P6** @D8LPDX\P6** @D8LPDX\P6** @D8LPDX\P6** @D8LPDX\P6** @D8LPDX\P6** @D8LPDX\P6** @D8LPDX\P6** @D8LPDX\P6** @D8LPDX\P6** @D8LPDX\P6** @D8LPDX\P6** @D8LPDX\P6** @D8LPDX\P6** @D8LPDX\P6** @D8LPDX\P6** @D8LPDX\P6** @D8LPDX\P6** @D8LPDX\P6** @D8LPDX\P6** @D8LPDX\P6** @D8LPDX\P6** @D8LPDX\P6** @D8LPDX\P6** @D8LPDX\P6** @D8LPDX\P6** @D8LPDX\P6** @D8LPDX\P6** @D8LPDX\P6** D8PD\P6** D8PD\P6** 8DP6** 8DP6** 8DP6** 8DP6** 8DP6** 8DP6** 8DP6** 8DP6** 8DP6** 8DP6** 8DP6** 8DP6** 8DP6** 8DP6** 8DP6** 8DP6** 8DP6** 8DP6** 8DP6** 8DP6** 8DP6** 8DP6** 8DP6** 8DP6** 8DP6** 8DP6** 8DP6** 8DP6** 8DP6** 8DP6** 8DP6** 8DP6** 8DP6** 8DP6** 8DP6** 8DP6** 8DP6** 8DP6** 8DP6** 8DP6** 8DP6** 8DP6** 8DP6** 8DP6** 8DP6** 8DP6** 8DP6** 8DP6** 8DP6** 8DP6** 8DP6** 8DP6** 8DP6** 8DP6** 8DP6** 8DP6** 8DP6** 8DP6** 8DP6** 8DP6** 8DP6** 8DP6** 8DP6** 8DP6** 8DP6** 8DP6** 8DP6** 8DP6** 8DP6** 8DP6** 8BDNPZ6** 8BDNPZ6** 8BDNPZ6** 8BDNPZ6** BNZ6** BNZ6** BNZ6** 9BENQZ6** 9B@ENLQZX6** 9B@ENLQZX6** 9B@ENLQZX6** 9B@ENLQZX6** 9B@ENLQZX6** 9B@ENLQZX6** 9B@ENLQZX6** 9B@ENLQZX6** 9B@ENLQZX6** 9B@ENLQZX6** 9B@ENLQZX6** 9B@ENLQZX6** 9B@ENLQZX6** 9B@ENLQZX6** 9B@ENLQZX6** 9B@ENLQZX6** 9B@ENLQZX6** 9B@ENLQZX6** 9B@ENLQZX6** 9B@ENLQZX6** 9B@ENLQZX6** 9B@ENLQZX6** 9B@ENLQZX6** 9B@ENLQZX6** 9B@ENLQZX6** 9B@ENLQZX6** 9B@ENLQZX6** 9B@ENLQZX6** 9B@ENLQZX6** 9B@ENLQZX6** 9B@ENLQZX6** 9B@ENLQZX6** 9B@ENLQZX6** 9B@ENLQZX6** 9B@ENLQZX6** 9B@ENLQZX6** 9B@ENLQZX6** 9B@ENLQZX6** 9B@ENLQZX6** 9B@ENLQZX6** 9B@ENLQZX6** 9B@ENLQZX6** 9B@ENLQZX6** 9B@ENLQZX6** 9B@ENLQZX6** 9B@ENLQZX6** 9B@ENLQZX6** 9B@ENLQZX6** 9B@ENLQZX6** 9B@ENLQZX6** 9B@ENLQZX6** 9B@ENLQZX6** 9B@ENLQZX6** 9B@ENLQZX6** 9B@ENLQZX6** 9B@ENLQZX6** 9B@ENLQZX6** 9B@ENLQZX6** 9B@ENLQZX6** 9B@ENLQZX6** 9B@ENLQZX6** 9B@ENLQZX6** 9B@ENLQZX6** 9B@ENLQZX6** 9B@ENLQZX6** 9B@ENLQZX6** 9B@ENLQZX6** 9B@ENLQZX6** 9B@ENLQZX6** 9B@ENLQZX6** 9B@ENLQZX6** 9B@ENLQZX6** 9B@ENLQZX6** 9B@ENLQZX6** 9B@ENLQZX6** 9B@ENLQZX6** 9B@ENLQZX6** 9B@ENLQZX6** 9B@ENLQZX6** 9B@ENLQZX6** 9B@ENLQZX6** 9B@ENLQZX6** 9B@ENLQZX6** 9B@ENLQZX6** 9B@ENLQZX6** 9B@ENLQZX6** 9B@ENLQZX6** 9B@ENLQZX6** 9B@ENLQZX6** 9B@ENLQZX6** 9B@ENLQZX6** 9B@ENLQZX6** 9B@ENLQZX6** 9B@ENLQZX6** 9B@ENLQZX6** 9B@ENLQZX6** 9B@ENLQZX6** 9B@ENLQZX6** 9B@ENLQZX6** 9B@ENLQZX6** 9B@ENLQZX6** 9B@ENLQZX6** 9B@ENLQZX6** 9B@ENLQZX6** 9B@ENLQZX6** 9B@ENLQZX6** 9B@ENLQZX6** 9B@ENLQZX6** 9B@ENLQZX6** 9B@ENLQZX6** 9B@ENLQZX6** 9B@ENLQZX6** 9B@ENLQZX6** 9B@ENLQZX6** 9B@8ENLDQZXP6** 9B@8ENLDQZXP6** 9B@8ENLDQZXP6** 9B@8ENLDQZXP6** 9B@8ENLDQZXP6** 9B@8ENLDQZXP6** 9B@8ENLDQZXP6** 9B@D8ENLPDQZX\P6** 9B@D8ENLPDQZX\P6** B@D8NLPDZX\P6** B@D8NLPDZX\P6** B@D8NLPDZX\P6** B@D8NLPDZX\P6** B@D8NLPDZX\P6** B@D8NLPDZX\P6** B@D8NLPDZX\P6** B@D8NLPDZX\P6** B@D8NLPDZX\P6** @D8LPDX\P6** @D8LPDX\P6** @D8LPDX\P6** @D8LPDX\P6** @D8LPDX\P6** @D8LPDX\P6** @D8LPDX\P6** @D8LPDX\P6** @D8LPDX\P6** @D8LPDX\P6** @D8LPDX\P6** @D8LPDX\P6** @D8LPDX\P6** @D8LPDX\P6** @D8LPDX\P6** @D8LPDX\P6** D8PD\P6** D8PD\P6** D8PD\P6** D8PD\P6** D8PD\P6** D8PD\P6** D8PD\P6** D8PD\P6** D8PD\P6** D8PD\P6** D8PD\P6** D8PD\P6** D8PD\P6** D8PD\P6** D8PD\P6** D8PD\P6** D8PD\P6** D8PD\P6** D8PD\P6** D8PD\P6** D8PD\P6** D8PD\P6** 8DP6** 8DP6** 8DP6** 8DP6** 8DP6** 8DP6** 8DP6** 8DP6** 8DP6** 8DP6** 8DP6** 8DP6** 8DP6** 8DP6** 8DP6** 8DP6** 8DP6** 8DP6** 8DP6** 8DP6** 8DP6** 8DP6** 8DP6** 8DP6** 8DP6** 8DP6** 8DP6** 8DP6** 8DP6** 8DP6** 8DP6** 8DP6** 8DP6** 8DP6** 8DP6** 8DP6** 8DP6** 8DP6** 8DP6** 8DP6** 8DP6** 8DP6** 8DP6** 8DP6** 8DP6** 8DP6** 8DP6** 8DP6** 8DP6** 8DP6** 8DP6** 8DP6** 8DP6** 8DP6** 8DP6** 8DP6** 8DP6** 8DP6** 8DP6** 8DP6** 8?DKPW6** ?KW6** 6?BKNW6** 6?BKNW6** 6?BKNW6** 6?BKNW6** 6?BKNW6** 6?BKNW6** 6?BKNW6** 6?BKNW6** 6?BKNW6** 6?EBKQNW]6** 6?EBKQNW]6** 6?EBKQNW]6** 6?EBKQNW]6** 6?EBKQNW]6** 6?EBKQNW]6** 6?EBKQNW]6** 6?EBKQNW]6** 6?EBKQNW]6** 6?EBKQNW]6** 6?EBKQNW]6** 6?EBKQNW]6** 6?EBKQNW]6** 6?EBKQNW]6** 6?EBKQNW]6** 6?EBKQNW]6** 6?EBKQNW]6** 6?EBKQNW]6** 6?EBKQNW]6** 6?EBKQNW]6** 6?EBKQNW]6** 6?EBKQNW]6** 6?EBKQNW]6** 6?EBKQNW]6** 6?EBKQNW]6** 6?EBKQNW]6** 6?EBKQNW]6** 6?EBKQNW]6** 6?EBKQNW]6** 6?EBKQNW]6** 6?EBKQNW]6** 6?EBKQNW]6** 6?EBKQNW]6** 6?EBKQNW]6** 6?EBKQNW]6** 6?EBKQNW]6** 6?EBKQNW]6** 6?EBKQNW]6** 6?EBKQNW]6** 6?EBKQNW]6** 6?EBKQNW]6** 6?EBKQNW]6** 6?EBKQNW]6** 6?EBKQNW]6** 6?EBKQNW]6** 6?EBKQNW]6** ?EKQW]6** ?EKQW]6** EQ]6** EQ]6** EQ]6** EQ]6** EQ]6** EQ]6** EQ]6** EQ]6** EQ]6** EQ]6** EQ]6** EQ]6** EQ]6** EQ]6** EQ]6** EQ]6** EQ]6** EQ]6** EQ]6** EQ]6** EQ]6** EQ]6** EQ]6** EQ]6** EQ]6** EQ]6** EQ]6** EQ]6** EQ]6** EQ]6** EQ] EQ] EQ] EQ] EQ] EQ] EQ] EQ] EQ] EQ] EQ] EQ] EQ] EQ] EQ]                     ;GS ;GS ;GS ;GS ;GS4(( ;GS4(( ;GS4(( ;GS4(( ;GS4(( ;GS4(( ;GS4(( ;GS4(( ;GS4(( ;GS4(( ;GS4(( ;GS4(( ;GS4(( D;PG\S4(( D;PG\S4(( D;PG\S4(( D;PG\S4(( D;PG\S4(( D;PG\S4(( D;PG\S4(( D;PG\S4(( D;PG\S4(( D;PG\S4(( D;PG\S4(( D;PG\S4(( D;PG\S4(( D;PG\S4(( D;PG\S4(( D;PG\S4(( D;PG\S4(( D;PG\S4(( D;PG\S4(( D;PG\S4(( D;PG\S4(( D;PG\S4(( D;PG\S4(( D;PG\S4(( D;PG\S4(( D;PG\S4(( D;PG\S4(( D;PG\S4(( D;PG\S4(( D;PG\S4(( D;PG\S4(( D;PG\S4(( D;PG\S4(( D;PG\S4(( D;PG\S4(( D;PG\S4(( D;PG\S4(( D;PG\S4(( D;PG\S4(( D;PG\S4(( D;PG\S4(( D;PG\S4(( D;PG\S4(( D;PG\S4(( D;PG\S4(( D;PG\S4(( D;PG\S4(( D;PG\S4(( D;PG\S4(( D;PG\S4(( D;PG\S4(( D;PG\S4(( D;PG\S4(( D;PG\S4(( D;PG\S4(( D;PG\S4(( D;PG\S4(( D;PG\S4(( D;PG\S4(( D;PG\S4(( D;PG\S4(( D;PG\S4(( D;PG\S4(( D;PG\S4(( D;PG\S4(( D;PG\S4(( D;PG\S4(( D;PG\S4(( D;PG\S4(( D;PG\S4(( D;PG\S4(( D;PG\S4(( D;PG\S4(( D;PG\S4(( D;PG\S4(( D;PG\S4(( D;PG\S4(( D;PG\S4(( D;PG\S4(( D;PG\S4(( D;PG\S4(( D;PG\S4(( D;PG\S4(( D;PG\S4(( D;PG\S4(( D;PG\S4(( D;PG\S4(( D;PG\S4(( D;PG\S4(( D;PG\S4(( D;PG\S4(( D;PG\S4(( D;PG\S4(( D;PG\S4(( D;PG\S4(( D;PG\S4(( D;PG\S4(( D;PG\S4(( D;PG\S4(( D;PG\S4(( D;PG\S4(( D;PG\S4(( D;PG\S4(( D;PG\S4(( D;PG\S4(( D;PG\S4(( D@;PLG\XS4(( D@;PLG\XS4(( D@;PLG\XS4(( D@;PLG\XS4(( D@;PLG\XS4(( @;LGXS4(( @;LGXS4(( @;LGXS4(( @;LGXS4(( @;LGXS4(( @;LGXS4(( @;LGXS4(( @;LGXS4(( @;LGXS4(( @;LGXS4(( @;LGXS4(( @;LGXS4(( @;LGXS4(( @;LGXS4(( @P;L\GXhS4(( @P;L\GXhS4(( @P;L\GXhS4(( @P;L\GXhS4(( @P;L\GXhS4(( @P;L\GXhS4(( @P;L\GXhS4(( @P;L\GXhS4(( @P;L\GXhS4(( @P;L\GXhS4(( @P;L\GXhS4(( @P;L\GXhS4(( @P;L\GXhS4(( @P;L\GXhS4(( @P;L\GXhS4(( @P;L\GXhS4(( @P;L\GXhS4(( @P;L\GXhS4(( @P;L\GXhS4(( @P;L\GXhS4(( @P;L\GXhS4(( @P;L\GXhS4(( @P;L\GXhS4(( @P;L\GXhS4(( @P;L\GXhS4(( @P;L\GXhS4(( @P;L\GXhS4(( @P;L\GXhS4(( @P;L\GXhS4(( @P;L\GXhS4(( @P;L\GXhS4(( @P;L\GXhS4(( @P;L\GXhS4(( @P;L\GXhS4(( @P;L\GXhS4(( @P;L\GXhS4(( @P;L\GXhS4(( P;\GhS4(( P;\GhS4(( P;\GhS4(( P;\GhS4(( P;\GhS4(( P;\GhS4(( P;\GhS4(( P;\GhS4(( P;\GhS4(( P;\GhS4(( P;\GhS4(( P;\GhS4(( P;\GhS4(( P;\GhS4(( P;\GhS4(( P;\GhS4(( P;\GhS4(( P;\GhS4(( P;\GhS4(( P;\GhS4(( P;\GhS4(( P;\GhS4(( P;\GhS4(( P;\GhS4(( P;\GhS4(( P;\GhS4(( P;\GhS4(( P;\GhS4(( P;\GhS4(( P;\GhS4(( P;\GhS4(( P;\GhS4(( P;\GhS4(( P;\GhS4(( P;\GhS4(( P;\GhS4(( P;\GhS4(( P;\GhS4(( P;\GhS4(( P;\GhS4(( P;\GhS4(( P;\GhS4(( P;\GhS4(( P;\GhS4(( P;\GhS4(( P;\GhS4(( P;\GhS4(( P;\GhS4(( P;\GhS4(( P;\GhS4(( P;\GhS4(( P;\GhS4(( P;\GhS4(( P;\GhS4(( P;\GhS4(( P;\GhS4(( P;\GhS4(( P;\GhS4(( P;\GhS4(( P;\GhS4(( P;\GhS4(( P;\GhS4(( P;\GhS4(( P;\GhS4(( P;\GhS4(( PB;\NGhZS4(( PB;\NGhZS4(( PB;\NGhZS4(( PB;\NGhZS4(( PB;\NGhZS4(( PB;\NGhZS4(( PB;\NGhZS4(( PB;\NGhZS4(( PB;\NGhZS4(( PB;\NGhZS4(( PB;\NGhZS4(( PB;\NGhZS4(( PB;\NGhZS4(( PB;\NGhZS4(( PB;\NGhZS4(( PBQ;\N]GhZiS4(( PBQ;\N]GhZiS4(( PBQ;\N]GhZiS4(( PBQ;\N]GhZiS4(( PBQ;\N]GhZiS4(( PBQ;\N]GhZiS4(( BQ;N]GZiS4(( BQ;N]GZiS4(( BQ;N]GZiS4(( BQ;N]GZiS4(( BQ;N]GZiS4(( BQ;N]GZiS4(( BQ;N]GZiS4(( BQ;N]GZiS4(( BQ;N]GZiS4(( BQ;N]GZiS4(( BQ;N]GZiS4(( BQ;N]GZiS4(( BQ;N]GZiS4(( BQ;N]GZiS4(( BQ;N]GZiS4(( BQ;N]GZiS4(( BQ;N]GZiS4(( BQ;N]GZiS4(( BQ;N]GZiS4(( Q;]GiS4(( Q;]GiS4(( Q;]GiS4(( Q;]GiS4(( Q;]GiS4(( Q;]GiS4(( Q;]GiS4(( Q;]GiS4(( Q;]GiS4(( Q;]GiS4(( Q;]GiS4(( Q;]GiS4(( Q;]GiS4(( Q;]GiS4(( Q;]GiS4(( Q;]GiS4(( Q;]GiS4(( Q;]GiS4(( Q;]GiS4(( Q;]GiS4(( Q;]GiS4(( Q;]GiS4(( Q;]GiS4(( Q;]GiS4(( Q;]GiS4(( Q;]GiS4(( Q;]GiS4(( Q;]GiS4(( Q;]GiS4(( Q;]GiS4(( Q;]GiS4(( Q;]GiS4(( ;GS4(( ;GS4(( ;GS4(( ;GS4(( ;GS4(( ;GS4(( ;GS4(( ;GS4(( ;GS4(( ;GS4(( ;GS4(( ;GS4(( ;GS4(( ;GS4(( ;GS4(( ;GS4(( ;GS4(( ;GS4(( ;GS4(( ;GS4(( ;GS4(( ;GS4(( ;GS4(( ;GS4(( ;GS4(( ;GS4(( ;GS4(( ;GS4(( ;GS4(( ;GS4(( ;GS4(( ;GS4(( ;GS4(( ;GS4(( ;GS4(( ;GS4(( ;GS4(( ;GS4(( ;GS4(( ;GS4(( ;GS4(( ;GS4(( ;GS4(( ;GS4(( ;GS4(( ;GS4(( ;GS4(( ;GS4(( ;GS4(( ;GS4(( ;GS4(( ;GS4(( ;DGPS\4(( ;DGPS\4(( ;DGPS\4(( ;DGPS\4(( ;DGPS\4(( ;DGPS\4(( ;DGPS\4(( ;DGPS\4(( ;DGPS\4(( ;DGPS\4(( ;DGPS\4(( ;DGPS\4(( DP\4(( DP\4(( DP\4(( DP\4(( SD_Pk\4(( SD_Pk\4(( SD_Pk\4(( SD_Pk\4(( SD_Pk\4(( SD_Pk\4(( SD_Pk\4(( SD_Pk\4(( SD_Pk\4(( SD_Pk\4(( SD_Pk\4(( SD_Pk\4(( SD_Pk\4(( SD_Pk\4(( SD_Pk\4(( SD_Pk\4(( SD_Pk\4(( SD_Pk\4(( SD_Pk\4(( SD_Pk\4(( SD_Pk\4(( SD_Pk\4(( SD_Pk\4(( SD_Pk\4(( SD_Pk\4(( SD_Pk\4(( SD_Pk\4(( SD_Pk\4(( SD_Pk\4(( SD_Pk\4(( SD_Pk\4(( SD_Pk\4(( SD_Pk\4(( SD_Pk\4(( SD_Pk\4(( SD_Pk\4(( SD_Pk\4(( SD_Pk\4(( SD_Pk\4(( SD_Pk\4(( SD_Pk\4(( SD_Pk\4(( SD_Pk\4(( SD_Pk\4(( SD_Pk\4(( SD_Pk\4(( SD_Pk\4(( SD_Pk\4(( SD_Pk\4(( SD_Pk\4(( SD_Pk\4(( SD_Pk\4(( SD_Pk\4(( SD_Pk\4(( SD_Pk\4(( SD_Pk\4(( SD_Pk\4(( SD_Pk\4(( SD_Pk\4(( SD_Pk\4(( SD_Pk\4(( SD_Pk\4(( SD_Pk\4(( SD_Pk\4(( SD_Pk\4(( SD_Pk\4(( SD_Pk\4(( SD_Pk\4(( SD_Pk\4(( SD_Pk\4(( SD_Pk\4(( SD_Pk\4(( SD_Pk\4(( SD_Pk\4(( SD_Pk\4(( SD_Pk\4(( SD_Pk\4(( SD_Pk\4(( SD_Pk\4(( SD_Pk\4(( SD_Pk\4(( SD_Pk\4(( SD_Pk\4(( SD_Pk\4(( SD_Pk\4(( SD_Pk\4(( SD_Pk\4(( SD_Pk\4(( SD_Pk\4(( SD_Pk\4(( SD_Pk\4(( SD_Pk\4(( SD_Pk\4(( SD_Pk\4(( SD_Pk\4(( SD_Pk\4(( SD_Pk\4(( SD_Pk\4(( SD_Pk\4(( SD_Pk\4(( SD_Pk\4(( SD_Pk\4(( SD_Pk\4(( SD_Pk\4(( SD_Pk\4(( SD_Pk\4(( SD_Pk\4(( SD;_PGk\S4(( SD;_PGk\S4(( SD;_PGk\S4(( SD;_PGk\S4(( SD;_PGk\S4(( SD;_PGk\S4(( SD;_PGk\S4(( SD;_PGk\S4(( SD;_PGk\S4(( SD;_PGk\S4(( SDJ;_PVGk\bS4(( SDJ;_PVGk\bS4(( DJ;PVG\bS4(( DJ;PVG\bS4(( DJ;PVG\bS4(( DJ;PVG\bS4(( DJ;PVG\bS4(( DJ;PVG\bS4(( DJ;PVG\bS4(( DJ;PVG\bS4(( DJ;PVG\bS4(( DJ;PVG\bS4(( J;VGbS4(( J;VGbS4(( J;VGbS4(( J;VGbS4(( J;VGbS4(( J;VGbS4(( J;VGbS4(( J;VGbS4(( J;VGbS4(( J;VGbS4(( J;VGbS4(( J;VGbS4(( J;VGbS4(( J;VGbS4(( J;VGbS4(( J;VGbS4(( J;VGbS4(( J;VGbS4(( J;VGbS4(( J;VGbS4(( J;VGbS4(( J;VGbS4(( J;VGbS4(( J;VGbS4(( J;VGbS4(( J;VGbS4(( J;VGbS4(( J;VGbS4(( J;VGbS4(( J;VGbS4(( J;VGbS4(( J;VGbS4(( J;VGbS4(( J;VGbS4(( J;VGbS4(( J;VGbS4(( J;VGbS4(( J;VGbS4(( J;VGbS4(( J;VGbS4(( J;VGbS4(( J;VGbS4(( J;VGbS4(( J;VGbS4(( J;VGbS4(( J;VGbS4(( J;VGbS4(( J;VGbS4(( J;VGbS4(( J;VGbS4(( J;VGbS4(( J;VGbS4(( J;VGbS4(( J;VGbS4(( J;VGbS4(( J;VGbS4(( J;VGbS4(( J;VGbS4(( J;VGbS4(( J;VGbS4(( J;VGbS4(( J;VGbS4(( J;VGbS4(( J;VGbS4(( J;VGbS4(( J;VGbS4(( J;VGbS4(( ;GS4(( ;GS4(( ;GS4(( ;GS4(( ;GS4(( ;GS4(( ;GS4(( ;GS4(( ;GS4(( ;GS4(( ;GS4(( ;GS4(( ;GS4(( ;GS4(( ;GS4(( ;GS4(( ;GS4(( ;GS4(( ;GS4(( ;GS4(( ;GS4(( ;GS4(( ;GS4(( ;GS4(( ;GS4(( ;GS4(( ;GS4(( ;GS4(( ;GS4(( ;EGQS]4(( ;E=GQIS]U4(( E=QI]U4(( E=QI]U4(( E=QI]U4(( E=QI]U4(( E=QI]U4(( E=QI]U4(( E=QI]U4(( E=QI]U4(( EI=QUI]aU4(( EI=QUI]aU4(( EI=QUI]aU4(( EI=QUI]aU4(( EI=QUI]aU4(( EI=QUI]aU4(( EI=QUI]aU4(( EI=QUI]aU4(( EI=QUI]aU4(( EI=QUI]aU4(( EI=QUI]aU4(( EI=QUI]aU4(( EI=QUI]aU4(( EI=QUI]aU4(( EI=QUI]aU4(( EI=QUI]aU4(( EI=QUI]aU4(( EI=QUI]aU4(( EI=QUI]aU4(( EI=QUI]aU4(( EI=QUI]aU4(( EI=QUI]aU4(( EI=QUI]aU4(( EI=QUI]aU4(( EI=QUI]aU4(( EI=QUI]aU4(( EI=QUI]aU4(( EI=QUI]aU4(( EI=QUI]aU4(( EI=QUI]aU4(( EI=QUI]aU4(( EI=QUI]aU4(( EI=QUI]aU4(( EI=QUI]aU4(( EI=QUI]aU4(( I=UIaU4(( I=UIaU4(( I=UIaU4(( I=UIaU4(( I=UIaU4(( I=UIaU4(( =IU4(( =IU4(( =IU4(( =IU4(( =IU4(( =IU4(( =IU4(( =IU4(( =IU4(( =IU4(( =IU4(( =IU4(( =IU4(( =IU4(( =IU4(( =IU4(( =IU4(( =IU4(( =IU4(( =IU4(( =IU4(( =IU4(( =IU4(( =IU4(( 4(( 4(( 4(( 4(( 4(( 4((                                       4(( 4(( 4(( 4(( 4(( 4(( 4(( EQ]4(( EQ]4(( EQ]4(( GESQ_]4(( GESQ_]4(( >GEJSQV_]4(( >GEJSQV_]4(( >GEJSQV_]4(( >GEJSQV_]4(( >GEJSQV_]4(( >GEJSQV_]4(( >GEJSQV_]4(( >GEJSQV_]4(( >GEJSQV_]4(( >GEJSQV_]4(( >GEJSQV_]4(( >GEJSQV_]4(( >GEJSQV_]4(( >GEJSQV_]4(( >GEJSQV_]4(( >GEJSQV_]4(( >GEJSQV_]4(( >GEJSQV_]4(( >GEJSQV_]4(( >GEJSQV_]4(( >GEJSQV_]4(( >GEJSQV_]4(( >GEJSQV_]4(( >GEJSQV_]4(( >GEJSQV_]4(( >GEJSQV_]4(( >GEJSQV_]4(( >GEJSQV_]4(( >GEJSQV_]4(( >GEJSQV_]4(( >GEJSQV_]4(( >GEJSQV_]4(( >GEJSQV_]4(( >GEJSQV_]4(( >GEJSQV_]4(( >GEJSQV_]4(( >GEJSQV_]4(( >GEJSQV_]4(( >GEJSQV_]4(( >GEJSQV_]4(( >GEJSQV_]4(( >GEJSQV_]4(( >GEJSQV_]4(( >GEJSQV_]4(( >GEJSQV_]4(( >GEJSQV_]4(( >GEJSQV_]4(( >GEJSQV_]4(( >GEJSQV_]4(( >GEJSQV_]4(( >GEJSQV_]4(( >GEJSQV_]4(( >GEJSQV_]4(( >GEJSQV_]4(( >GEJSQV_]4(( >GEJSQV_]4(( >GEJSQV_]4(( >GEJSQV_]4(( >GEJSQV_]4(( >GEJSQV_]4(( >GEJSQV_]4(( >GEJSQV_]4(( >GEJSQV_]4(( >GEJSQV_]4(( >GEJSQV_]4(( >GEJSQV_]4(( >GEJSQV_]4(( >GEJSQV_]4(( >GEJSQV_]4(( >GEJSQV_]4(( >GEJSQV_]4(( >GEJSQV_]4(( >GEJSQV_]4(( >GEJSQV_]4(( >GEJSQV_]4(( >GEJSQV_]4(( >GEJSQV_]4(( >GEJSQV_]4(( >GEJSQV_]4(( >GEJSQV_]4(( >GEJSQV_]4(( >GEJSQV_]4(( >GEJSQV_]4(( >GEJSQV_]4(( >GEJSQV_]4(( >GEJSQV_]4(( >GEJSQV_]4(( >GEJSQV_]4(( >GEJSQV_]4(( >GEJSQV_]4(( >GEJSQV_]4(( >GEJSQV_]4(( >GEJSQV_]4(( >GEJSQV_]4(( >GEJSQV_]4(( >GEJSQV_]4(( >GEJSQV_]4(( >GEJSQV_]4(( >GEJSQV_]4(( >GEJSQV_]4(( >GEJSQV_]4(( >GEJSQV_]4(( >GEJSQV_]4(( >GEJSQV_]4(( >GEJSQV_]4(( >GEJSQV_]4(( >GEJSQV_]4(( >GEJSQV_]4(( >GEJSQV_]4(( >GEJSQV_]4(( >GEJSQV_]4(( >GEJSQV_]4(( >GEJSQV_]4(( >GEJSQV_]4(( >GE=JSQIV_]U4(( >GE=JSQIV_]U4(( >GE=JSQIV_]U4(( >GE=JSQIV_]U4(( >GE=JSQIV_]U4(( >GE=JSQIV_]U4(( >GE=JSQIV_]U4(( >GE=JSQIV_]U4(( >GE=JSQIV_]U4(( >GE=JSQIV_]U4(( >GE=JSQIV_]U4(( >GEI=JSQUIV_]aU4(( GEI=SQUI_]aU4(( GEI=SQUI_]aU4(( GEI=SQUI_]aU4(( EI=QUI]aU4(( EI=QUI]aU4(( EI=QUI]aU4(( EI=QUI]aU4(( EI=QUI]aU4(( EI=QUI]aU4(( EI=QUI]aU4(( EI=QUI]aU4(( EI=QUI]aU4(( EI=QUI]aU4(( EI=QUI]aU4(( EI=QUI]aU4(( EI=QUI]aU4(( EI=QUI]aU4(( EI=QUI]aU4(( EI=QUI]aU4(( EI=QUI]aU4(( EI=QUI]aU4(( EI=QUI]aU4(( EI=QUI]aU4(( EI=QUI]aU4(( EI=QUI]aU4(( EI=QUI]aU4(( EI=QUI]aU4(( EI=QUI]aU4(( EI=QUI]aU4(( EI=QUI]aU4(( EI=QUI]aU4(( EI=QUI]aU4(( EI=QUI]aU4(( EI=QUI]aU4(( I=UIaU4(( I=UIaU4(( I=UIaU4(( I=UIaU4(( I=UIaU4(( I=UIaU4(( I=UIaU4(( I=UIaU4(( I=UIaU4(( I=UIaU4(( I=UIaU4(( I=UIaU4(( I=UIaU4(( I=UIaU4(( I=UIaU4(( I=UIaU4(( I=UIaU4(( I=UIaU4(( I=UIaU4(( I=UIaU4(( I=UIaU4(( I=UIaU4(( I=UIaU4(( I=UIaU4(( I=UIaU4(( I=UIaU4(( I=UIaU4(( I=UIaU4(( I=UIaU4(( I=UIaU4(( I=UIaU4(( I=UIaU4(( I=UIaU4(( I=UIaU4(( I=UIaU4(( I=UIaU4(( I=UIaU4(( I=UIaU4(( I=UIaU4(( I=UIaU4(( I=UIaU4(( I=UIaU4(( I=UIaU4(( I=UIaU4(( I=UIaU4(( I=UIaU4(( I=UIaU4(( I=UIaU4(( I=UIaU4(( I=UIaU4(( I=UIaU4(( I=UIaU4(( I=UIaU4(( I=UIaU4(( =IU4(( =IU4(( =IU4(( =IU4(( =IU4(( =IU4(( =IU4(( =IU4(( =IU4(( =IU4(( =IU4(( =IU4(( =IU4(( =IU4(( =IU4(( =IU4(( =IU4(( =IU4(( =IU4(( =IU4(( =IU4(( =IU4(( =IU4(( =IU4(( =JIVUb4(( =JIVUb4(( =DJIPVU\b4(( =DJIPVU\b4(( =DJ;IPVGU\bS4(( DJ;PVG\bS4(( DJ;PVG\bS DJ;PVG\bS DJ;PVG\bS DJ;PVG\bS DJ;PVG\bS DJ;PVG\bS DJ;PVG\bS DJ;PVG\bS DJ;PVG\bS DJ;PVG\bS DJ;PVG\bS DJ;PVG\bS DJ;PVG\bS DJ;PVG\bS DJ;PVG\bS DJ;PVG\bS DJ;PVG\bS DJ;PVG\bS DJ;PVG\bS DJ;PVG\bS DJ;PVG\bS DJ;PVG\bS DJ;PVG\bS DJ;PVG\bS DJ;PVG\bS DJ;PVG\bS DJ;PVG\bS DJ;PVG\bS DJ;PVG\bS DJ;PVG\bS DJ;PVG\bS DJ;PVG\bS DJ;PVG\bS DJ;PVG\bS DJ;PVG\bS DJ;PVG\bS DJ;PVG\bS DJ;PVG\bS DJ;PVG\bS DJ;PVG\bS DJ;PVG\bS DJ;PVG\bS DJ;PVG\bS J;VGbS J;VGbS J;VGbS J;VGbS J;VGbS J;VGbS J;VGbS J;VGbS ;GS ;GS ;GS ;GS ;GS ;GS ;GS ;GS ;GS ;GS ;GS ;GS ;GS ;GS ;GS ;GS ;GS ;GS ;GS ;GS ;GS ;GS ;GS ;GS ;GS ;GS ;GS ;GS ;GS ;GS ;GS ;GS ;GS ;GS ;GS ;GS ;GS ;GS ;GS ;GS ;GS ;GS ;GS ;GS ;GS ;GS ;GS ;GS ;GS ;GS ;GS ;GS ;GS ;GS ;GS ;GS ;GS ;GS ;GS ;GS ;GS ;GS ;GS ;GS-!! ;GS-!! ;GS-!! ;GS-!! -!! -!! 9EQ-!! 9IEUQa-!! E9IQEU]Qa-!! E9IQEU]Qa-!! E9IQEU]Qa-!! E9IQEU]Qa-!! E9IQEU]Qa-!! E9IQEU]Qa-!! E9IQEU]Qa-!! E9IQEU]Qa-!! E9IQEU]Qa-!! E9IQEU]Qa-!! E9IQEU]Qa-!! E9IQEU]Qa-!! E9IQEU]Qa-!! E9IQEU]Qa-!! E9IQEU]Qa-!! E9IQEU]Qa-!! E9IQEU]Qa-!! E9IQEU]Qa-!! E9IQEU]Qa-!! E9IQEU]Qa-!! E9IQEU]Qa-!! E9IQEU]Qa-!! E9IQEU]Qa-!! E9IQEU]Qa-!! E9IQEU]Qa-!! E9IQEU]Qa-!! E9IQEU]Qa-!! E9IQEU]Qa-!! E9IQEU]Qa-!! E9IQEU]Qa-!! E9IQEU]Qa-!! E9IQEU]Qa-!! E9IQEU]Qa-!! E9IQEU]Qa-!! E9IQEU]Qa-!! E9IQEU]Qa-!! E9IQEU]Qa-!! E9IQEU]Qa-!! E9IQEU]Qa-!! E9IQEU]Qa-!! E9IQEU]Qa-!! E9IQEU]Qa-!! E9IQEU]Qa-!! E9IQEU]Qa-!! E9IQEU]Qa-!! E9IQEU]Qa-!! E9IQEU]Qa-!! E9IQEU]Qa-!! E9IQEU]Qa-!! E9IQEU]Qa-!! E9IQEU]Qa-!! E9IQEU]Qa-!! E9IQEU]Qa-!! E9IQEU]Qa-!! E9IQEU]Qa-!! E9IQEU]Qa-!! E9IQEU]Qa-!! E9IQEU]Qa-!! E9IQEU]Qa-!! E9IQEU]Qa-!! E9IQEU]Qa-!! E9IQEU]Qa-!! E9IQEU]Qa-!! E9IQEU]Qa-!! E9IQEU]Qa-!! E9IQEU]Qa-!! E9IQEU]Qa-!! E9IQEU]Qa-!! E9IQEU]Qa-!! E9IQEU]Qa-!! E9IQEU]Qa-!! E9IQEU]Qa-!! E9IQEU]Qa-!! E9IQEU]Qa-!! E9IQEU]Qa-!! E9IQEU]Qa-!! E9IQEU]Qa-!! E9IQEU]Qa-!! E9IQEU]Qa-!! E9IQEU]Qa-!! E9IQEU]Qa-!! E9IQEU]Qa-!! E9IQEU]Qa-!! E9IQEU]Qa-!! E9IQEU]Qa-!! E9IQEU]Qa-!! E9IQEU]Qa-!! E9IQEU]Qa-!! E9IQEU]Qa-!! E9IQEU]Qa-!! E9IQEU]Qa-!! 9IEUQa-!! 9IEUQa-!! 9IEUQa-!! 9IEUQa-!! 9IEUQa-!! IUa-!! IUa-!! IUa-!! IUa-!! IUa-!! IUa-!! IUa-!! IUa-!! IUa-!! IUa-!! IUa-!! IUa-!! IUa-!! IUa-!! IUa-!! IUa-!! IUa-!! IUa-!! IUa-!! IUa-!! IUa-!! IUa-!! IUa-!! IUa-!! IUa-!! IUa-!! IUa-!! -!! E=QI]U-!! E=QI]U-!! E=QI]U-!! E=QI]U-!! E=QI]U-!! E=QI]U-!! E=QI]U-!! E=QI]U-!! E=QI]U-!! E=QI]U-!! E=QI]U-!! E=QI]U-!! E=QI]U-!! E=QI]U-!! E=QI]U-!! E=QI]U-!! E=QI]U-!! E=QI]U-!! E=QI]U-!! E=QI]U-!! E=QI]U-!! E=QI]U-!! E=QI]U-!! E=QI]U-!! E=QI]U-!! E=QI]U-!! E=QI]U-!! E=QI]U-!! E=QI]U-!! E=QI]U-!! E=QI]U-!! E=QI]U-!! E=QI]U-!! E=QI]U-!! E=QI]U-!! E=QI]U-!! E=QI]U-!! E=QI]U-!! E=QI]U-!! E=QI]U-!! E=QI]U-!! E=QI]U-!! E=QI]U-!! E=QI]U-!! E=QI]U-!! E=QI]U-!! E=QI]U-!! E=QI]U-!! E=QI]U-!! E=QI]U-!! =IU-!! =IU-!! =IU-!! =IU-!! =IU-!! =IU-!! =IU-!! =IU-!! =IU-!! =IU-!! =IU-!! =IU-!! =IU-!! =IU-!! =IU-!! =IU-!! =IU-!! =IU-!! =IU-!! =IU-!! -!! -!! -!! -!! -!! -!! -!! -!! -!! -!! -!! -!! -!! -!! -!! -!! -!! -!! -!! -!! -!! -!! -!! -!! -!! -!! -!! -!! -!! -!! -!! -!! -!! -!! -!! -!! -!! -!! -!! -!! -!! -!! >JV-!! >JV-!! >JV-!! >JV-!! >JV-!! >JV-!! >JV-!! >JV-!! >JV-!! >JV-!! >JV-!! G>SJ_V-!! G>SJ_V-!! G>SJ_V-!! G>SJ_V-!! G>SJ_V-!! G>SJ_V-!! G>SJ_V-!! G>SJ_V-!! G>SJ_V-!! G>SJ_V-!! G>SJ_V-!! G>SJ_V-!! G>SJ_V-!! G>SJ_V-!! G>SJ_V-!! G>SJ_V-!! G>SJ_V-!! G>SJ_V-!! G>SJ_V-!! G>SJ_V-!! G>SJ_V-!! G>SJ_V-!! G>SJ_V-!! G>SJ_V-!! G>SJ_V-!! G>SJ_V-!! G>SJ_V-!! G>SJ_V-!! G>SJ_V-!! G>SJ_V-!! G>SJ_V-!! G>SJ_V-!! G>SJ_V-!! G>SJ_V-!! G>SJ_V-!! G>SJ_V-!! G>SJ_V-!! G>SJ_V-!! G>SJ_V-!! G>SJ_V-!! G>SJ_V-!! G>SJ_V-!! G>SJ_V-!! G>SJ_V-!! >JV-!! >JV-!! >JV-!! >JV-!! -!! -!! -!! -!! -!! -!! -!! -!! -!! -!! -!! -!! -!! -!! -!! -!! -!! -!! -!! -!! -!! -!! -!! -!! -!! -!! -!! -!! -!! -!! -!! -!! -!! -!! -!! -!! -!! -!! -!! -!! -!! -!! -!! -!! -!! -!! -!! -!! -!! -!! -!! -!! -!! -!! -!! -!! -!! -!! -!! -!! -!! -!! -!! -!! -!! -!! @LX-!! @LX-!! @LX-!! @LX-!! @LX-!! @LX-!! @LX-!! @LX-!! @LX-!! @LX-!! @LX-!! @LX-!! @LX-!! @LX-!! @LX-!! @LX-!! @LX-!! @LX-!! @ILUXa-!! @ILUXa-!! @ILUXa-!! @ILUXa-!! @ILUXa-!! @ILUXa-!! @ILUXa-!! @ILUXa-!! @ILUXa-!! @ILUXa-!! @ILUXa-!! @ILUXa-!! @ILUXa-!! @ILUXa-!! @ILUXa-!! @ILUXa-!! @ILUXa-!! @ILUXa-!! @ILUXa-!! @ILUXa-!! @ILUXa-!! @ILUXa-!! @ILUXa-!! @ILUXa-!! @ILUXa-!! @ILUXa-!! @ILUXa-!! @ILUXa-!! @ILUXa-!! @ILUXa-!! @ILUXa-!! @ILUXa-!! @ILUXa-!! @ILUXa-!! @ILUXa-!! @ILUXa-!! @ILUXa-!! @ILUXa-!! @ILUXa-!! @ILUXa-!! @ILUXa-!! @ILUXa-!! @ILUXa-!! @ILUXa-!! @ILUXa-!! @ILUXa-!! @ILUXa-!! @ILUXa-!! @ILUXa-!! @ILUXa-!! @ILUXa-!! @ILUXa-!! @ILUXa-!! @ILUXa-!! @ILUXa-!! @ILUXa-!! @ILUXa-!! @ILUXa-!! @ILUXa-!! @ILUXa-!! @ILUXa-!! @ILUXa-!! @ILUXa-!! @ILUXa-!! @ILUXa-!! @ILUXa-!! @ILUXa-!! @ILUXa-!! @ILUXa-!! @ILUXa-!! @ILUXa-!! @ILUXa-!! @ILUXa-!! @ILUXa-!! @ILUXa-!! @ILUXa-!! @ILUXa-!! @ILUXa-!! @ILUXa-!! @ILUXa-!! @ILUXa-!! @ILUXa-!! @ILUXa-!! @ILUXa-!! @ILUXa-!! @ILUXa-!! @ILUXa-!! @ILUXa-!! @ILUXa-!! @ILUXa-!! @ILUXa-!! @ILUXa-!! @ILUXa-!! @ILUXa-!! @ILUXa-!! @ILUXa-!! @ILUXa-!! @ILUXa-!! @ILUXa-!! @ILUXa-!! @ILUXa-!! @ILUXa-!! @ILUXa-!! @ILUXa-!! @ILUXa-!! @I9LUEXaQ-!! I9UEaQ-!! I9UEaQ-!! I9UEaQ-!! I9UEaQ-!! I9UEaQ-!! I9UEaQ-!! I9UEaQ-!! I9UEaQ-!! 9BENQZ-!! 9BENQZ-!! 9BENQZ-!! 9JBEVNQbZ-!! 9JBEVNQbZ-!! 9JBEVNQbZ-!! 9JBEVNQbZ-!! 9JBEVNQbZ-!! 9JBEVNQbZ-!! 9JBEVNQbZ-!! 9JBEVNQbZ-!! 9JBEVNQbZ-!! 9JBEVNQbZ-!! 9JBEVNQbZ-!! 9JBEVNQbZ-!! 9JBEVNQbZ-!! 9JBEVNQbZ-!! 9JBEVNQbZ-!! 9JBEVNQbZ-!! 9JBEVNQbZ-!! 9JBEVNQbZ-!! 9JBEVNQbZ-!! 9JBEVNQbZ-!! 9JBEVNQbZ-!! 9JBEVNQbZ-!! 9JBEVNQbZ-!! 9JBEVNQbZ-!! 9JBEVNQbZ-!! 9JBEVNQbZ-!! 9JBEVNQbZ-!! 9JBEVNQbZ-!! 9JBEVNQbZ-!! 9JBEVNQbZ-!! 9JBEVNQbZ-!! 9JBEVNQbZ-!! 9JBEVNQbZ-!! 9JBEVNQbZ-!! 9JBEVNQbZ-!! 9JBEVNQbZ-!! 9JBEVNQbZ-!! 9JBEVNQbZ-!! 9JBEVNQbZ-!! 9JBEVNQbZ-!! 9JBEVNQbZ-!! 9JBEVNQbZ-!! 9JBEVNQbZ-!! 9JBEVNQbZ-!! 9JBEVNQbZ-!! 9JBEVNQbZ-!! 9JBEVNQbZ-!! 9JBEVNQbZ-!! 9JBEVNQbZ-!! 9JBEVNQbZ-!! 9JBEVNQbZ-!! 9JBEVNQbZ-!! 9JBEVNQbZ-!! 9JBEVNQbZ-!! 9JBEVNQbZ-!! 9JBEVNQbZ-!! 9JBEVNQbZ-!! 9JBEVNQbZ-!! JBVNbZ-!! JBVNbZ-!! JBVNbZ-!! JBVNbZ-!! BNZ-!! BNZ-!! BNZ-!! BNZ-!! BNZ-!! BNZ-!! BNZ-!! BNZ-!! BNZ-!! BNZ-!! BNZ-!! BNZ-!! BNZ-!! BNZ-!! BNZ-!! BNZ-!! BNZ-!! BNZ-!! BNZ-!! BNZ-!! BNZ-!! BNZ-!! BNZ-!! BNZ-!! BNZ-!! BNZ-!! BNZ-!! BNZ-!! BNZ-!! BNZ-!! BNZ-!! BNZ-!! BNZ-!! BNZ-!! BNZ-!! BNZ-!! BNZ-!! BNZ-!! BNZ-!! BNZ-!! BNZ-!! BNZ-!! BNZ-!! BNZ-!! BNZ-!! BNZ-!! B8NDZP-!! B8NDZP-!! B8NDZP-!! B8NDZP-!! B8NDZP-!! B8NDZP-!! B8NDZP-!! B8NDZP-!! B8NDZP-!! B8NDZP-!! B8NDZP-!! B8NDZP-!! B8DNDPZP\-!! B8DNDPZP\-!! B8LDNDXPZPd\-!! B8LDNDXPZPd\-!! B8LDNDXPZPd\-!! B8LDNDXPZPd\-!! B8LDNDXPZPd\-!! B8LDNDXPZPd\-!! B8LDNDXPZPd\-!! B8LDNDXPZPd\-!! B8LDNDXPZPd\-!! 8LDDXPPd\-!! 8LDDXPPd\-!! 8LDDXPPd\-!! 8LDDXPPd\-!! 8LDDXPPd\-!! 8LDDXPPd\-!! 8LDDXPPd\-!! 8LDDXPPd\-!! 8LDDXPPd\-!! 8LDDXPPd\-!! 8LDDXPPd\-!! 8LDDXPPd\-!! 8LDDXPPd\-!! 8LDDXPPd\-!! 8LDDXPPd\-!! 8LDDXPPd\-!! 8LDDXPPd\-!! 8LDDXPPd\-!! 8LDDXPPd\-!! 8LDDXPPd\-!! 8LDDXPPd\-!! 8LDDXPPd\-!! 8LDDXPPd\-!! 8LDDXPPd\-!! 8LDDXPPd\-!! 8LDDXPPd\-!! 8LDDXPPd\-!! 8LDDXPPd\-!! 8LDDXPPd\-!! 8LDDXPPd\-!! 8LDDXPPd\-!! 8LDDXPPd\-!! 8LDDXPPd\-!! 8LDDXPPd\-!! 8LDDXPPd\-!! 8LDDXPPd\-!! 8LDDXPPd\-!! 8LDDXPPd\-!! 8LDDXPPd\-!! 8LDDXPPd\-!! 8LDDXPPd\-!! LDXPd\-!! LDXPd\-!! LDXPd\-!! LDXPd\-!! LDXPd\-!! DP\-!! DP\-!! DP\-!! DP\-!! DP\-!! DP\-!! DP\-!! DP\-!! DP\-!! DP\-!! DP\-!! DP\-!! DP\-!! DP\-!! DP\-!! DP\-!! DP\-!! DP\-!! DP\-!! DP\-!! DP\-!! DP\-!! DP\-!! DP\-!! DP\-!! DP\-!! DP\-!! DP\-!! DP\-!! DP\-!! DP\-!! DP\-!! DP\-!! DP\-!! DP\-!! DP\-!! DP\-!! DP\-!! DP\-!! DP\-!! DP\-!! DP\-!! DP\-!! DP\-!! DP\-!! DP\-!! DP\-!! DP\-!! DP\-!! DP\-!! DP\-!! DP\-!! DP\-!! DP\-!! DP\-!! DP\-/!#!# DP\-/!#!# DP\-/!#!# DP\-/!#!# DP\-/!#!# D6PB\N-/!#!# D6PB\N-/!#!# D6PB\N-/!#!# D6PB\N-/!#!# D6PB\N-/!#!# D6PB\N-/!#!# D6PB\N/## D6PB\N/## D6PB\N/## D6PB\N/## DE6PQB\]N/## E6QB]N/## E6JQBV]Nb/## E6JQBV]Nb/## E6JQBV]Nb/## E6JQBV]Nb/## E6JQBV]Nb/## E6JQBV]Nb/## E6JQBV]Nb/## E6JQBV]Nb/## E6JQBV]Nb/## E6JQBV]Nb/## E6JQBV]Nb/## E6JQBV]Nb/## E6JQBV]Nb/## E6JQBV]Nb/## E6JQBV]Nb/## E6JQBV]Nb/## E6JQBV]Nb/## E6JQBV]Nb/## E6JQBV]Nb/## E6JQBV]Nb/## E6JQBV]Nb/## E6JQBV]Nb/## E6JQBV]Nb/## E6JQBV]Nb/## E6JQBV]Nb/## E6JQBV]Nb/## E6JQBV]Nb/## E6JQBV]Nb/## E6JQBV]Nb/## E6JQBV]Nb/## E6JQBV]Nb/## E6JQBV]Nb/## E6JQBV]Nb/## E6JQBV]Nb/## E6JQBV]Nb/## E6JQBV]Nb/## E6JQBV]Nb/## E6JQBV]Nb/## E6JQBV]Nb/## E6JQBV]Nb/## E6JQBV]Nb/## E6JQBV]Nb/## E6JQBV]Nb/## E6JQBV]Nb/## E6JQBV]Nb/## E6JQBV]Nb/## E6JQBV]Nb/## E6JQBV]Nb/## E6JQBV]Nb/## E6JQBV]Nb/## E6JQBV]Nb/## E6JQBV]Nb/## E6JQBV]Nb/## E6JQBV]Nb/## E6JQBV]Nb/## E6JQBV]Nb/## E6JQBV]Nb/## E6JQBV]Nb/## E6JQBV]Nb/## E6JQBV]Nb/## E6JQBV]Nb/## E6JQBV]Nb/## E6JQBV]Nb/## E6JQBV]Nb/## E6JQBV]Nb/## E6JQBV]Nb/## E6JQBV]Nb/## E6JQBV]Nb/## E6JQBV]Nb/## E6JQBV]Nb/## E6JQBV]Nb/## E6JQBV]Nb/## E6JQBV]Nb/## E6JQBV]Nb/## E6JQBV]Nb/## E6JQBV]Nb/## E6JQBV]Nb/## E6JQBV]Nb/## E6JQBV]Nb/## E6JQBV]Nb/## E6JQBV]Nb/## E6JQBV]Nb/## E6JQBV]Nb/## E6JQBV]Nb/## E6JQBV]Nb/## E6JQBV]Nb/## E6JQBV]Nb/## E6JQBV]Nb/## E6JQBV]Nb/## E6JQBV]Nb/## E6JQBV]Nb/## E6JQBV]Nb/## E6JQBV]Nb/## E6JQBV]Nb/## E6JQBV]Nb/## E6JQBV]Nb/## E6JQBV]Nb/## E6JQBV]Nb/## E6JQBV]Nb/## E6JQBV]Nb/## E6JQBV]Nb/## E6JQBV]Nb/## E6JQBV]Nb/## E6JQBV]Nb/## E6JQBV]Nb/## E6JQBV]Nb/## E68JQBDV]NPb/## E68JQBDV]NPb/## E68JQBDV]NPb/## E68JQBDV]NPb/## E68JQBDV]NPb/## E68JQBDV]NPb/## E68JQBDV]NPb/## E6D8JQBPDV]N\Pb/## E6D8JQBPDV]N\Pb/## E6D8JQBPDV]N\Pb/## E6D8JQBPDV]N\Pb/## E6D8JQBPDV]N\Pb/## E6D8JQBPDV]N\Pb/## E6D8JQBPDV]N\Pb/## E6D8JQBPDV]N\Pb/## E6D8JQBPDV]N\Pb/## 6D8JBPDVN\Pb/## D8JPDV\Pb/## D8JPDV\Pb/## D8JPDV\Pb/## D8JPDV\Pb/## D8JPDV\Pb/## D8JPDV\Pb/## D8JPDV\Pb/## D8JPDV\Pb/## D8JPDV\Pb/## D8JPDV\Pb/## D8JPDV\Pb/## D8JPDV\Pb/## D8JPDV\Pb/## D8JPDV\Pb/## D8JPDV\Pb/## D8JPDV\Pb/## D8JPDV\Pb/## D8JPDV\Pb/## D8JPDV\Pb/## D8JPDV\Pb/## D8JPDV\Pb/## D8JPDV\Pb/## D8JPDV\Pb/## D8JPDV\Pb/## D8JPDV\Pb/## D8JPDV\Pb/## D8JPDV\Pb/## D8JPDV\Pb/## D8JPDV\Pb/## D8JPDV\Pb/## D8JPDV\Pb/## D8JPDV\Pb/## D8JPDV\Pb/## D8JPDV\Pb/## D8JPDV\Pb/## D8JPDV\Pb/## D8JPDV\Pb/## 8JDVPb/## 8JDVPb/## 8JDVPb/## 8JDVPb/## 8JDVPb/## JVb/## JVb/## JVb/## JVb/## JVb/## JVb/## JVb/## JVb/## JVb/## JVb/## JVb/## JVb/## JVb/## JVb/## JVb/## JVb/## JVb/## JVb/## JVb/## JVb/## JVb/## JVb/## JVb/## JVb/## JVb/## JVb/## JVb/## JVb/## JVb/## JVb/## JVb/## JVb/## JVb/## JVb/## JVb/## JVb/## JVb/## JVb/## JVb/## JVb/## JVb/## JVb/## JVb/## JVb/## JVb/## JVb/## JVb/## JVb/## JVb/## JVb/## JVb/## JVb/## JVb/## JVb/## JVb/## JVb/## JVb/## JVb/## JVb/## JVb/## JVb/## JVb/## JVb/## 9JEVQb/## 9JEVQb/## 9JEVQb/## 9JEVQb/## B9JNEVZQb/## B9JNEVZQb/## B9JNEVZQb/## B9JNEVZQb/## B9JNEVZQb/## B9JNEVZQb/## B9JNEVZQb/## B9JNEVZQb/## B9JNEVZQb/## B9JNEVZQb/## B9JNEVZQb/## B9JNEVZQb/## B9JNEVZQb/## B9JNEVZQb/## B9JNEVZQb/## B9JNEVZQb/## B9JNEVZQb/## B9JNEVZQb/## B9JNEVZQb/## B9JNEVZQb/## B9JNEVZQb/## B9JNEVZQb/## B9JNEVZQb/## B9JNEVZQb/## B9JNEVZQb/## B9JNEVZQb/## B9JNEVZQb/## B9JNEVZQb/## B9JNEVZQb/## B9JNEVZQb/## B9JNEVZQb/## B9JNEVZQb/## B9JNEVZQb/## B9JNEVZQb/## B9JNEVZQb/## B9JNEVZQb/## B9JNEVZQb/## B9JNEVZQb/## B9JNEVZQb/## B9JNEVZQb/## B9JNEVZQb/## B9JNEVZQb/## 9JEVQb/## 9JEVQb/## 9JEVQb/## 9JEVQb/## 9JEVQb/## 9JEVQb/## 9JEVQb/## 9JEVQb/## 9JEVQb/## 9JEVQb/## 9JEVQb/## 9JEVQb/## 9JEVQb/## 9JEVQb/## 9JEVQb/## 9JEVQb/## 9JEVQb/## 9JEVQb/## JVb/## JVb/## JVb/## JVb/## JVb/## JVb/## JVb/## JVb/## JVb/## JVb/## JVb/## JVb/## JVb/## JVb/## JVb/## JVb/## JVb/## JVb/## JVb/## JVb/## JVb/## JVb/## JVb/## JVb/## JVb/## JVb/## JVb/## JVb/## JVb/## JVb/## JVb/## JVb/## JVb/## JVb/## JVb/## JVb/## JVb/## JVb/## JVb/## JVb/## JVb/## JVb/## JVb/## JVb/## JVb/## JVb/## JVb/## JVb/## JVb/## JVb/## JVb/## JVb/## JVb/## JVb/## JVb/## JVb/## JVb/## JVb/## JVb/## JVb/## JVb/1#%#% JVb/1#%#% J8VDbP/1#%#% J@8@VLDLbXPX/1#%#% J@8@VLDLbXPX/1#%#% J@8@VLDLbXPX/1#%#% J@8@VLDLbXPX/1#%#% J@8@VLDLbXPX/1#%#% J@8@VLDLbXPX/1#%#% J@8@VLDLbXPX/1#%#% J@8@VLDLbXPX/1#%#% J@8@VLDLbXPX/1#%#% J@8@VLDLbXPX/1#%#% @8@LDLXPX/1#%#% @8@LDLXPX1%% @8@LDLXPX1%% @8@LDLXPX1%% @8@LDLXPX1%% @8@LDLXPX1%% @8@LDLXPX1%% @8@LDLXPX1%% @8@LDLXPX1%% @8@LDLXPX1%% @8@LDLXPX1%% @8@LDLXPX1%% @8@LDLXPX1%% @8@LDLXPX1%% @8@LDLXPX1%% @8@LDLXPX1%% @8@LDLXPX1%% @8@LDLXPX1%% @8@LDLXPX1%% @8@LDLXPX1%% @8@LDLXPX1%% @8@LDLXPX1%% @8@LDLXPX1%% @8@LDLXPX1%% @8@LDLXPX1%% @8@LDLXPX1%% @8@LDLXPX1%% @8@LDLXPX1%% @8@LDLXPX1%% @8@LDLXPX1%% @8@LDLXPX1%% @8@LDLXPX1%% @8@LDLXPX1%% @8@LDLXPX1%% @8@LDLXPX1%% @8@LDLXPX1%% @8@LDLXPX1%% @8@LDLXPX1%% @8@LDLXPX1%% @8@LDLXPX1%% @8@LDLXPX1%% @8@LDLXPX1%% @8@LDLXPX1%% @8@LDLXPX1%% @8@LDLXPX1%% @8@LDLXPX1%% @8@LDLXPX1%% @8@LDLXPX1%% @8@LDLXPX1%% @8@LDLXPX1%% @8@LDLXPX1%% @8@LDLXPX1%% @8@LDLXPX1%% @8@LDLXPX1%% @8@LDLXPX1%% @8@LDLXPX1%% @8@LDLXPX1%% @8@LDLXPX1%% @8@LDLXPX1%% @8@LDLXPX1%% @8@LDLXPX1%% @8@LDLXPX1%% @8@LDLXPX1%% @8@LDLXPX1%% @8@LDLXPX1%% @8@LDLXPX1%% @8@LDLXPX1%% @8@LDLXPX1%% @8@LDLXPX1%% @8@LDLXPX1%% @8@LDLXPX1%% @8@LDLXPX1%% @8@LDLXPX1%% @8@LDLXPX1%% @8@LDLXPX1%% @8@LDLXPX1%% @8@LDLXPX1%% @8@LDLXPX1%% @8@LDLXPX1%% @8@LDLXPX1%% @8@LDLXPX1%% @8@LDLXPX1%% @8@LDLXPX1%% @8@LDLXPX1%% @8@LDLXPX1%% @8@LDLXPX1%% @8@LDLXPX1%% @8@LDLXPX1%% @8@LDLXPX1%% @8@LDLXPX1%% @8@LDLXPX1%% @8@LDLXPX1%% @8@LDLXPX1%% @8@LDLXPX1%% @8@LDLXPX1%% @8@LDLXPX1%% @8@ILDLUXPXa1%% @8@ILDLUXPXa1%% 8@IDLUPXa1%% 8@IDLUPXa1%% 8@IDLUPXa1%% 8@IDLUPXa1%% 8@IDLUPXa1%% 8@IDLUPXa1%% 8@IDLUPXa1%% 8@IDLUPXa1%% 8@IDLUPXa1%% 8@I9DLUEPXaQ1%% 8@I9DLUEPXaQ1%% 8@I9DLUEPXaQ1%% 8@I9DLUEPXaQ1%% 8@I9DLUEPXaQ1%% @I9LUEXaQ1%% @I9LUEXaQ1%% @I9LUEXaQ1%% @I9LUEXaQ1%% @I9LUEXaQ1%% @I9LUEXaQ1%% @I9LUEXaQ1%% @I9LUEXaQ1%% @I9LUEXaQ1%% @I9LUEXaQ1%% @I9LUEXaQ1%% @I9LUEXaQ1%% @I9LUEXaQ1%% @I9LUEXaQ1%% @I9LUEXaQ1%% @I9LUEXaQ1%% @I9LUEXaQ1%% @I9LUEXaQ1%% @I9LUEXaQ1%% @I9LUEXaQ1%% @I9LUEXaQ1%% @I9LUEXaQ1%% I9UEaQ1%% I9UEaQ1%% I9UEaQ1%% I9UEaQ1%% I9UEaQ1%% I9UEaQ1%% I9UEaQ1%% I9UEaQ1%% I9UEaQ1%% I9UEaQ1%% I9UEaQ1%% I9UEaQ1%% I9UEaQ1%% I9UEaQ1%% I9UEaQ1%% I9UEaQ1%% I9UEaQ1%% I9UEaQ1%% I9UEaQ1%% I9UEaQ1%% I9UEaQ1%% I9UEaQ1%% I9UEaQ1%% I9UEaQ1%% 9EQ1%% 9EQ1%% 9EQ1%% 9EQ1%% 9EQ1%% 9EQ1%% 9EQ1%% 9EQ1%% 9EQ1%% 9EQ1%% 9EQ1%% 9EQ1%% 9EQ1%% 9EQ1%% 9EQ1%% 9EQ1%% 9EQ1%% 9EQ1%% 9EQ1%% 9EQ1%% 9EQ1%% 9EQ1%% 9EQ1%% 9EQ1%% 9EQ1%% 9EQ1%% 9EQ1%% 9EQ1%% 9EQ1%% 9EQ1%% 9EQ1%% 9EQ1%% 9EQ1%% 9EQ1%% 9EQ1%% 9EQ1%% 9EQ1%% 9EQ1%% 9EQ1%% 9EQ1%% 9EQ1%% 9EQ1%% 9EQ1%% 9EQ1%% 9EQ1%% 9EQ1%% 9EQ1%% 9EQ1%% 9EQ1%% 9EQ1%% 9EQ1%% 9EQ1%% 9EQ1%% 9EQ1%% 1%% >JV1%% >JV1%% >J;JVGVbS1%% >J;JVGVbS1%% >J;JVGVbS1%% >J;JVGVbS1%% >J;JVGVbS1%% >J;JVGVbS1%% >J;JVGVbS1%% >J;JVGVbS1%% >J;JVGVbS1%% >J;JVGVbS1%% >J;JVGVbS1%% >J;JVGVbS1%% >J;JVGVbS1%% >J;JVGVbS1%% >J;JVGVbS1%% >J;JVGVbS1%% >J;JVGVbS1%% >J;JVGVbS1%% >J;JVGVbS1%% >J;JVGVbS1%% >J;JVGVbS1%% >J;JVGVbS1%% >J;JVGVbS1%% >J;JVGVbS1%% >J;JVGVbS1%% >J;JVGVbS1%% >J;JVGVbS1%% >J;JVGVbS1%% >J;JVGVbS1%% >J;JVGVbS1%% >J;JVGVbS1%% >J;JVGVbS1%% >J;JVGVbS1%% >J;JVGVbS1%% >J;JVGVbS1%% >J;JVGVbS1%% >J;JVGVbS1%% >J;JVGVbS1%% >J;JVGVbS1%% >J;JVGVbS1%% >J;JVGVbS1%% >J;JVGVbS1%% >J;JVGVbS1%% >J;JVGVbS1%% >J;JVGVbS1%% >J;JVGVbS1%% >J;JVGVbS1%% J;VGbS1%% J;VGbS1%% ;GS1%% ;GS1%% ;GS1%% ;GS1%% ;GS1%% ;GS1%% ;GS1%% ;GS1%% ;GS1%% ;GS1%% ;GS1%% ;GS1%% ;GS1%% ;GS1%% ;GS1%% ;GS1%% ;GS1%% ;GS1%% ;GS1%% ;GS1%% ;GS1%% ;GS1%% ;GS1%% ;GS1%% ;GS1%% ;GS1%% ;GS1%% ;GS1%% ;GS1%% ;GS1%% ;GS1%% ;GS1%% ;GS1%% ;GS1%% ;GS1%% ;GS1%% ;GS1%% 1%% 1%% 1%% 1%% 1%% 1%% 1%% 1%% 1%% 1%% 1%% 1%% 1%% 1%% 1%% 1%% 1%% 1%% 1%% 1%% 1%% 1%% 1%% 1%% 1%% 1%% 1%% 1%% 1%% LXd1%% LXd1%% =LIXUd1%% =LIXUd1%% =LIXUd1%% =9LIEXUQd1%% =9LIEXUQd1%% =9LIEXUQd1%% =9LIEXUQd1%% =9LIEXUQd1%% =9LIEXUQd1%% =9LIEXUQd1%% =9LIEXUQd1%% =9LIEXUQd1%% =9LIEXUQd1%% =9LIEXUQd1%% =9LIEXUQd1%% =9LIEXUQd1%% =9LIEXUQd1%% =9LIEXUQd1%% =9LIEXUQd1%% =9LIEXUQd1%% =9LIEXUQd1%% =9LIEXUQd1%% =9LIEXUQd1%% =9LIEXUQd1%% =9LIEXUQd1%% =9LIEXUQd1%% =9LIEXUQd1%% =9LIEXUQd1%% =9LIEXUQd1%% =9LIEXUQd1%% =9LIEXUQd1%% =9LIEXUQd1%% =9LIEXUQd1%% =9LIEXUQd1%% =9LIEXUQd1%% =9LIEXUQd1%% =9LIEXUQd1%% =9LIEXUQd1%% =9LIEXUQd1%% =9LIEXUQd1%% =9LIEXUQd1%% =9LIEXUQd1%% =9LIEXUQd1%% =9LIEXUQd1%% =9LIEXUQd1%% =9LIEXUQd1%% =9LIEXUQd1%% =9LIEXUQd1%% =9LIEXUQd1%% =9LIEXUQd1%% =9LIEXUQd1%% =9LIEXUQd1%% =9LIEXUQd1%% =9LIEXUQd1%% =9LIEXUQd1%% =9LIEXUQd1%% =9LIEXUQd1%% =9LIEXUQd1%% =9LIEXUQd1%% =9LIEXUQd1%% =9LIEXUQd1%% =9LIEXUQd1%% =9LIEXUQd1%% =9LIEXUQd1%% =9LIEXUQd1%% =9LIEXUQd1%% =9LIEXUQd1%% =9LIEXUQd1%% =9LIEXUQd1%% =9LIEXUQd1%% =9LIEXUQd1%% =9LIEXUQd1%% =9LIEXUQd1%% =9LIEXUQd1%% =9LIEXUQd1%% =9LIEXUQd1%% =9LIEXUQd1%% =9LIEXUQd1%% =9LIEXUQd1%% =9LIEXUQd1%% =9LIEXUQd1%% =9LIEXUQd1%% =9LIEXUQd1%% =9LIEXUQd1%% =9LIEXUQd1%% =9LIEXUQd1%% =9LIEXUQd1%% =9LIEXUQd1%% =9LIEXUQd1%% =9LIEXUQd1%% =9LIEXUQd1%% =9LIEXUQd1%% =9LIEXUQd1%% =9LIEXUQd1%% =9LIEXUQd1%% =9LIEXUQd1%% =9LIEXUQd1%% LXd1%% LXd1%% LXd1%% LXd1%% LXd1%% LXd1%% LXd1%% LXd1%% LXd1%% LXd1%% LXd1%% LXd1%% LXd1%% L;XGdS1%% L>;XJGdVS1%% L>;XJGdVS1%% L>;XJGdVS1%% L>;XJGdVS1%% L>;XJGdVS1%% L>G;XJSGdV_S1%% L>G;XJSGdV_S1%% L>G;XJSGdV_S1%% >G;JSGV_S1%% >G;JSGV_S1%% >G;JSGV_S1%% >G;JSGV_S1%% >G;JSGV_S1%% >G;JSGV_S1%% >G;JSGV_S1%% >G;JSGV_S1%% >G;JSGV_S1%% >G;JSGV_S1%% >G;JSGV_S1%% >G;JSGV_S1%% >G;JSGV_S1%% >G;JSGV_S1%% >G;JSGV_S1%% >G;JSGV_S1%% >G;JSGV_S1%% >G;JSGV_S1%% >G;JSGV_S1%% >G;JSGV_S1%% >G;JSGV_S1%% >G;JSGV_S1%% >G;JSGV_S1%% >G;JSGV_S1%% >G;JSGV_S1%% >G;JSGV_S1%% >G;JSGV_S1%% >G;JSGV_S1%% >G;JSGV_S1%% >G;JSGV_S1%% >G;JSGV_S1%% >G;JSGV_S1%% >G;JSGV_S1%% >G;JSGV_S1%% >G;JSGV_S1%% >G;JSGV_S1%% >G;JSGV_S1%% >G;JSGV_S1%% >G;JSGV_S1%% >G;JSGV_S1%% >G;JSGV_S1%% >G;JSGV_S1%% >G;JSGV_S1%% >G;JSGV_S1%% >G;JSGV_S1%% >G;JSGV_S1%% >G;JSGV_S1%% >G;JSGV_S1%% >G;JSGV_S1%% >G;JSGV_S1%% >G;JSGV_S1%% >G;JSGV_S1%% >G;JSGV_S1%% >G;JSGV_S1%% G;SG_S1%% G;SG_S1%% G;SG_S1%% G;SG_S1%% G;SG_S1%% G;SG_S1%% G;SG_S1%% ;GS1%% 1%% 1%% 1%% 1%% 1%% 1%% 1%% 1%% 1%% 1%% 1%% 1%% 1%% 1%% 1%% 1%% 1%% 1%% 1%% 1%% 1%% 1%% 1%% 1%% 1%% 1%% 1%% 1%% 1%% 1%% 1%% 1%% 1%% 1%% 1%% 1%% 1%% 1%% 1%% 1%% 1%% 1%% 1%% 1%% 1%% 1%% 1%% =IU1%% =IU1%% =@ILUX1%% =E@IQLU]X1%% =E@IQLU]X1%% =E@IQLU]X1%% =E@IQLU]X1%% =E@IQLU]X1%% =E@IQLU]X1%% =E@IQLU]X1%% =E@IQLU]X1%% =E@IQLU]X1%% =E@IQLU]X1%% =E@IQLU]X1%% =E@IQLU]X1%% =E@IQLU]X1%% =E@IQLU]X1%% =E@IQLU]X1%% =E@IQLU]X1%% =E@IQLU]X1%% =E@IQLU]X1%% =E@IQLU]X1%% =E@IQLU]X1%% =E@IQLU]X1%% =E@IQLU]X1%% =E@IQLU]X1%% =E@IQLU]X1%% =E@IQLU]X1%% =E@IQLU]X1%% =E@IQLU]X1%% =E@IQLU]X1%% =E@IQLU]X1%% =E@IQLU]X1%% =E@IQLU]X1%% =E@IQLU]X1%% =E@IQLU]X1%% =E@IQLU]X1%% =E@IQLU]X1%% =E@IQLU]X1%% =E@IQLU]X1%% =E@IQLU]X1%% =E@IQLU]X1%% =E@IQLU]X1%% =E@IQLU]X1%% =E@IQLU]X1%% =E@IQLU]X1%% =E@IQLU]X1%% =E@IQLU]X1%% =E@IQLU]X1%% =E@IQLU]X1%% E@QL]X1%% E@QL]X1%% E@QL]X1%% E@QL]X1%% E@QL]X1%% E@QL]X1%% E@QL]X1%% E@QL]X1%% E@QL]X1%% E@QL]X1%% E@QL]X1%% E@QL]X1%% E@QL]X1%% E@QL]X1%% E@QL]X1%% E@QL]X1%% E@QL]X1%% E@QL]X1%% E@QL]X1%% E@QL]X1%% @LX1%% @LX1%% @LX1%% @LX1%% @LX1%% @LX1%% @LX1%% @LX1%% @LX1%% @LX1%% @LX1%% @LX1%% @LX1%% @LX1%% @LX1%% @LX1%% @LX1%% @LX1%% @LX1%% @LX1%% @LX1%% @LX1%% @LX1%% @LX1%% @LX1%% @LX1%% @LX1%% @LX1%% @LX1%% @LX1%% @LX1%% @LX1%% @LX1%% @LX1%% @LX1%% @LX1%% @LX1%% @LX1%% @LX1%% @LX1%% @LX1%% @LX1%% @LX1%% @LX @LX @LX @LX @LX @LX @LX ;@GLSX2&& ;@GLSX2&& ;@GLSX2&& ;@GLSX2&& ;@GLSX2&& ;@GLSX2&& ;D@GPLS\X2&& ;D@GPLS\X2&& ;D@GPLS\X2&& ;D@GPLS\X2&& ;D@GPLS\X2&& ;D@GPLS\X2&& ;D@GPLS\X2&& ;D@GPLS\X2&& ;D@GPLS\X2&& ;D@GPLS\X2&& ;D@GPLS\X2&& ;D@GPLS\X2&& ;D@GPLS\X2&& ;D@GPLS\X2&& ;D@GPLS\X2&& ;D@GPLS\X2&& ;D@GPLS\X2&& ;D@GPLS\X2&& ;D@GPLS\X2&& ;D@GPLS\X2&& ;D@GPLS\X2&& ;D@GPLS\X2&& ;D@GPLS\X2&& ;D@GPLS\X2&& ;D@GPLS\X2&& ;D@GPLS\X2&& ;D@GPLS\X2&& ;D@GPLS\X2&& ;D@GPLS\X2&& ;D@GPLS\X2&& ;D@GPLS\X2&& ;D@GPLS\X2&& ;D@GPLS\X2&& ;D@GPLS\X2&& ;D@GPLS\X2&& ;D@GPLS\X2&& ;D@GPLS\X2&& ;D@GPLS\X2&& ;D@GPLS\X2&& ;D@GPLS\X2&& ;D@GPLS\X2&& ;D@GPLS\X2&& ;D@GPLS\X2&& ;D@GPLS\X2&& ;D@GPLS\X2&& ;D@GPLS\X2&& ;D@GPLS\X2&& ;D@GPLS\X2&& ;D@GPLS\X2&& ;D@GPLS\X2&& ;D@GPLS\X2&& ;D@GPLS\X2&& ;D@GPLS\X2&& ;D@GPLS\X2&& ;D@GPLS\X2&& ;D@GPLS\X2&& ;D@GPLS\X2&& ;D@GPLS\X2&& ;D@GPLS\X2&& ;D@GPLS\X2&& ;D@GPLS\X2&& ;D@GPLS\X2&& ;D@GPLS\X2&& ;D@GPLS\X2&& ;D@GPLS\X2&& ;D@GPLS\X2&& ;D@GPLS\X2&& ;D@GPLS\X2&& ;D@GPLS\X2&& ;D@GPLS\X2&& ;D@GPLS\X2&& ;D@GPLS\X2&& ;D@GPLS\X2&& ;D@GPLS\X2&& ;D@GPLS\X2&& ;D@GPLS\X2&& ;D@GPLS\X2&& ;D@GPLS\X2&& ;D@GPLS\X2&& ;D@GPLS\X2&& ;D@GPLS\X2&& ;D@GPLS\X2&& ;D@GPLS\X2&& ;D@GPLS\X2&& ;D@GPLS\X2&& ;D@GPLS\X2&& ;D@GPLS\X2&& ;D@GPLS\X2&& ;D@GPLS\X2&& ;D@GPLS\X2&& ;D@GPLS\X2&& ;D@GPLS\X2&& ;D@GPLS\X2&& ;D@GPLS\X2&& ;D@GPLS\X2&& ;D@GPLS\X2&& ;D@GPLS\X2&& ;D@GPLS\X2&& ;D@GPLS\X2&& ;D@GPLS\X2&& ;D@GPLS\X2&& ;D@GPLS\X2&& ;D@GPLS\X2&& ;D@GPLS\X2&& ;D@GPLS\X2&& ;D@GPLS\X2&& ;D@GPLS\X2&& ;D@GPLS\X2&& ;D@GPLS\X2&& ;D@GPLS\X2&& ;D9@GPELS\QX2&& ;D9@GPELS\QX2&& ;D9@GPELS\QX2&& D9@PEL\QX2&& D9@PEL\QX2&& D9@PEL\QX2&& D9@PEL\QX2&& D9@PEL\QX2&& D9@PEL\QX2&& D9@PEL\QX2&& D9@PEL\QX2&& 9@ELQX2&& 9@ELQX2&& E9@QEL]QX2&& E9@QEL]QX2&& E9@QEL]QX2&& E9@QEL]QX2&& E9@QEL]QX2&& E9@QEL]QX2&& E9@QEL]QX2&& E9@QEL]QX2&& E9@QEL]QX2&& E9@QEL]QX2&& E9@QEL]QX2&& E9@QEL]QX2&& E9@QEL]QX2&& E9@QEL]QX2&& E9@QEL]QX2&& E9@QEL]QX2&& E9@QEL]QX2&& E9@QEL]QX2&& E9@QEL]QX2&& E9@QEL]QX2&& E9@QEL]QX2&& E9@QEL]QX2&& E9@QEL]QX2&& E9@QEL]QX2&& E9@QEL]QX2&& E9@QEL]QX2&& E9@QEL]QX2&& E9@QEL]QX2&& E9@QEL]QX2&& E9@QEL]QX2&& E9@QEL]QX2&& E9@QEL]QX2&& E9@QEL]QX2&& E9@QEL]QX2&& E9@QEL]QX2&& E9@QEL]QX2&& E9@QEL]QX2&& E9@QEL]QX2&& E9@QEL]QX2&& E9@QEL]QX2&& E9@QEL]QX2&& E9@QEL]QX2&& E9@QEL]QX2&& E9@QEL]QX2&& E9@QEL]QX2&& E9@QEL]QX2&& E9@QEL]QX2&& E9@QEL]QX2&& E9@QEL]QX2&& E9@QEL]QX2&& E9@QEL]QX2&& E9@QEL]QX2&& E9@QEL]QX2&& E9@QEL]QX2&& E9@QEL]QX2&& E9@QEL]QX2&& E9@QEL]QX2&& E9@QEL]QX2&& E9@QEL]QX2&& E9@QEL]QX2&& 9@ELQX2&& 9@ELQX2&& 9@ELQX2&& 9@ELQX2&& 9@ELQX2&& @LX2&& @LX2&& @LX2&& @LX2&& @LX2&& @LX2&& @LX2&& @LX2&& @LX2&& @LX2&& @LX2&& @LX2&& @LX2&& @LX2&& @LX2&& @LX2&& @LX2&& @LX2&& @LX2&& @LX2&& @LX2&& @LX2&& @LX2&& @LX2&& @LX2&& @LX2&& @LX2&& @LX2&& @LX2&& @LX2&& @LX2&& @LX2&& @LX2&& @LX2&& @LX2&& @LX2&& @LX2&& @LX2&& @LX2&& @LX2&& @LX2&& @LX2&& @LX2&& @LX2&& @LX2&& @LX2&& @LX2&& @LX2&& 8@DLPX2&& 8@DLPX2&& 8@DLPX2&& 8@DLPX2&& 8@DLPX2&& 8@DLPX2&& 8@DLPX2&& 8@DLPX2&& 8@DLPX2&& 8@DLPX2&& 8@DLPX2&& 8G@DSLP_X2&& 8G@DSLP_X2&& 8G@DSLP_X2&& 8G@DSLP_X2&& 8G@DSLP_X2&& 8G@DSLP_X2&& 8G@DSLP_X2&& 8G@DSLP_X2&& 8G@DSLP_X2&& 8G@DSLP_X2&& 8G@DSLP_X2&& 8G@DSLP_X2&& 8G@DSLP_X2&& 8G@DSLP_X2&& 8G@DSLP_X2&& 8G@DSLP_X2&& 8G@DSLP_X2&& 8G@DSLP_X2&& 8G@DSLP_X2&& 8G@DSLP_X2&& 8G@DSLP_X2&& 8G@DSLP_X2&& 8G@DSLP_X2&& 8G@DSLP_X2&& 8G@DSLP_X2&& 8G@DSLP_X2&& 8G@DSLP_X2&& 8G@DSLP_X2&& 8G@DSLP_X2&& 8G@DSLP_X2&& 8G@DSLP_X2&& 8G@DSLP_X2&& 8G@DSLP_X2&& 8G@DSLP_X2&& 8G@DSLP_X2&& 8G@DSLP_X2&& 8G@DSLP_X2&& 8G@DSLP_X2&& 8G@DSLP_X2&& 8G@DSLP_X2&& 8G@DSLP_X2&& G@SL_X2&& G@SL_X2&& G@SL_X2&& G@SL_X2&& G@SL_X2&& G@SL_X2&& G@SL_X2&& G@SL_X2&& G@SL_X2&& G@SL_X2&& G@SL_X2&& G@SL_X2&& G@SL_X2&& G@SL_X2&& G@SL_X2&& G@SL_X2&& G@SL_X2&& G@SL_X2&& @LX2&& @LX2&& @LX2&& @LX2&& @LX2&& @LX2&& @LX2&& @LX2&& @LX2&& @LX2&& @LX2&& @LX2&& @LX2&& @LX @LX @LX @LX @LX @LX @LX @LX @LX @LX @LX @LX @LX @LX @LX @LX @LX @LX @LX @LX @LX @LX @LX @LX @LX @LX @LX @LX @LX @LX @LX @LX @LX @9LEXQ @9LEXQ @9LEXQ @9LEXQ @9LEXQ @9LEXQ @9LEXQ @9LEXQ @9LEXQ @9LEXQ @9LEXQ @9LEXQ @9LEXQ @9LEXQ1%% @E9LQEX]Q1%% @E9LQEX]Q1%% @E9LQEX]Q1%% @E9LQEX]Q1%% @E9LQEX]Q1%% @E9LQEX]Q1%% @E9LQEX]Q1%% @E9LQEX]Q1%% @E9LQEX]Q1%% @E9LQEX]Q1%% @E9LQEX]Q1%% @E9LQEX]Q1%% @E9LQEX]Q1%% @E9LQEX]Q1%% @E9LQEX]Q1%% @E9LQEX]Q1%% @E9LQEX]Q1%% @E9LQEX]Q1%% @E9LQEX]Q1%% @E9LQEX]Q1%% @E9LQEX]Q1%% @E9LQEX]Q1%% @E9LQEX]Q1%% @E9LQEX]Q1%% @E9LQEX]Q1%% @E9LQEX]Q1%% @E9LQEX]Q1%% @E9LQEX]Q1%% @E9LQEX]Q1%% @E9LQEX]Q1%% @E9LQEX]Q1%% @E9LQEX]Q1%% @E9LQEX]Q1%% @E9LQEX]Q1%% @E9LQEX]Q1%% @E9LQEX]Q1%% @E9LQEX]Q1%% @E9LQEX]Q1%% @E9LQEX]Q1%% @E9LQEX]Q1%% @E9LQEX]Q1%% @E9LQEX]Q1%% @E9LQEX]Q1%% @E9LQEX]Q1%% @E9LQEX]Q1%% @E9LQEX]Q1%% @E9LQEX]Q1%% @E9LQEX]Q1%% @E9LQEX]Q1%% @E9LQEX]Q1%% @E9LQEX]Q1%% @E9LQEX]Q1%% @E9LQEX]Q1%% @E9LQEX]Q1%% @E9LQEX]Q1%% @E9LQEX]Q1%% @E9LQEX]Q1%% @E9LQEX]Q1%% @E9LQEX]Q1%% @E9LQEX]Q1%% @E9LQEX]Q1%% @E9LQEX]Q1%% @E9LQEX]Q1%% @E9LQEX]Q1%% @E9LQEX]Q1%% @E9LQEX]Q1%% @E9LQEX]Q1%% @E9LQEX]Q1%% @E9LQEX]Q1%% @E9LQEX]Q1%% @E9LQEX]Q1%% @E9LQEX]Q1%% @E9LQEX]Q1%% @E9LQEX]Q1%% @E9LQEX]Q1%% @E9LQEX]Q1%% @E9LQEX]Q1%% @E9LQEX]Q1%% @E9LQEX]Q1%% @E9LQEX]Q1%% @E9LQEX]Q1%% @E9LQEX]Q1%% @E9LQEX]Q1%% @E9LQEX]Q1%% @E9LQEX]Q1%% @E9LQEX]Q1%% @E9LQEX]Q1%% @E9LQEX]Q1%% @E9LQEX]Q1%% @E9LQEX]Q1%% @E9LQEX]Q1%% @E9LQEX]Q1%% @E9LQEX]Q1%% @E9LQEX]Q1%% @E9LQEX]Q1%% @E9LQEX]Q1%% @E9LQEX]Q1%% @E9LQEX]Q1%% @E9LQEX]Q1%% @E9LQEX]Q1%% @E9LQEX]Q1%% @E9LQEX]Q1%% @E9LQEX]Q1%% @E9LQEX]Q1%% @E9LQEX]Q1%% @E9LQEX]Q1%% @E9LQEX]Q1%% @E9LQEX]Q1%% @E9LQEX]Q1%% E9QE]Q1%% E9QE]Q1%% E9QE]Q1%% E9QE]Q1%% E9QE]Q1%% E9QE]Q1%% E9QE]Q1%% E9QE]Q1%% E9QE]Q1%% E9QE]Q1%% E9QE]Q1%% E>9QJE]VQ1%% E>9QJE]VQ1%% EG>9QSJE]_VQ1%% EG>9QSJE]_VQ1%% EG>9QSJE]_VQ1%% EG>9QSJE]_VQ1%% EG>9QSJE]_VQ1%% EG>9QSJE]_VQ1%% EG>9QSJE]_VQ1%% EG>9QSJE]_VQ1%% EG>9QSJE]_VQ1%% EG>9QSJE]_VQ1%% EG>9QSJE]_VQ1%% EG>9QSJE]_VQ1%% G>9SJE_VQ1%% G>9SJE_VQ1%% G>9SJE_VQ1%% G>9SJE_VQ1%% G>9SJE_VQ1%% G>9SJE_VQ1%% G>9SJE_VQ1%% G>9SJE_VQ1%% G>9SJE_VQ1%% G>9SJE_VQ1%% G>9SJE_VQ1%% G>9SJE_VQ1%% G>9SJE_VQ1%% G>9SJE_VQ1%% G>9SJE_VQ1%% G>9SJE_VQ1%% G>9SJE_VQ1%% G>9SJE_VQ1%% G>9SJE_VQ1%% G>9SJE_VQ1%% G>9SJE_VQ1%% G>9SJE_VQ1%% G>9SJE_VQ1%% G>9SJE_VQ1%% G>9SJE_VQ1%% G>9SJE_VQ1%% G>9SJE_VQ1%% G>9SJE_VQ1%% G>9SJE_VQ1%% G>9SJE_VQ1%% G>9SJE_VQ1%% G>9SJE_VQ1%% G>9SJE_VQ1%% G>9SJE_VQ1%% G>9SJE_VQ1%% G>9SJE_VQ1%% G>9SJE_VQ1%% G>9SJE_VQ1%% G>9SJE_VQ1%% G>9SJE_VQ1%% G>9SJE_VQ1%% G>9SJE_VQ1%% G>9SJE_VQ1%% G>9SJE_VQ1%% G>9SJE_VQ1%% G>9SJE_VQ1%% >9JEVQ1%% >9JEVQ1%% >9JEVQ1%% >9JEVQ1%% >9JEVQ1%% >9JEVQ1%% >9JEVQ1%% >9JEVQ1%% >9JEVQ1%% >9JEVQ1%% >9JEVQ1%% >9JEVQ1%% >9JEVQ1%% >9JEVQ1%% >9JEVQ1%% >9JEVQ1%% >9JEVQ1%% >9JEVQ1%% >9JEVQ1%% >9JEVQ1%% >9JEVQ1%% >9JEVQ1%% >9JEVQ1%% >9JEVQ1%% >9JEVQ1%% >9JEVQ1%% >9JEVQ1%% >9JEVQ1%% >9JEVQ1%% >9JEVQ1%% >9JEVQ1%% >9JEVQ1%% >9JEVQ1%% >9JEVQ1%% >9JEVQ1%% >9JEVQ1%% >9JEVQ1%% >9JEVQ1%% >9JEVQ1%% >9JEVQ1%% >9JEVQ1%% >9JEVQ1%% >9JEVQ1%% >9JEVQ1%% >9JEVQ1%% >9JEVQ1%% >9JEVQ1%% >9JEVQ1%% >9JEVQ1%% >9JEVQ1%% >9JEVQ1%% >9JEVQ1%% >9JEVQ1%% >9JEVQ1%% 9EQ1%% 9EQ1%% @9LEXQ1%% @9LEXQ1%% @9LEXQ1%% @9LEXQ1%% @9LEXQ1%% I@9ULEaXQ1%% I@9ULEaXQ1%% I@9ULEaXQ1%% I@9ULEaXQ1%% I@9ULEaXQ1%% I@9ULEaXQ1%% I@9ULEaXQ1%% I@9ULEaXQ1%% I@9ULEaXQ1%% I@9ULEaXQ1%% I@9ULEaXQ1%% I@9ULEaXQ1%% I@9ULEaXQ1%% I@9ULEaXQ1%% I@9ULEaXQ1%% I@9ULEaXQ1%% I@9ULEaXQ1%% I@9ULEaXQ1%% I@9ULEaXQ1%% I@9ULEaXQ1%% I@9ULEaXQ1%% I@9ULEaXQ1%% I@9ULEaXQ1%% I@9ULEaXQ1%% I@9ULEaXQ1%% I@9ULEaXQ1%% I@9ULEaXQ1%% I@9ULEaXQ1%% I@9ULEaXQ1%% I@9ULEaXQ1%% I@9ULEaXQ1%% I@9ULEaXQ1%% I@9ULEaXQ1%% I@9ULEaXQ1%% I@9ULEaXQ1%% I@9ULEaXQ1%% I@9ULEaXQ1%% I@9ULEaXQ1%% I@9ULEaXQ1%% I@9ULEaXQ1%% @9LEXQ1%% @9LEXQ1%% @9LEXQ1%% @9LEXQ1%% @9LEXQ1%% @9LEXQ1%% @9LEXQ1%% @9LEXQ1%% @9LEXQ1%% @9LEXQ1%% @9LEXQ1%% @9LEXQ1%% @9LEXQ1%% @9LEXQ1%% @9LEXQ1%% @9LEXQ1%% @9LEXQ1%% @9LEXQ1%% @9LEXQ1%% @9LEXQ1%% @9LEXQ1%% @9LEXQ1%% @9LEXQ1%% @9LEXQ1%% @9LEXQ1%% @9LEXQ1%% @9LEXQ1%% @9LEXQ1%% @9LEXQ1%% @9LEXQ1%% @9LEXQ1%% @9LEXQ1%% @9LEXQ1%% @9LEXQ1%% @9LEXQ1%% 9EQ1%% 9EQ1%% 9EQ1%% 9EQ1%% 9EQ1%% 9EQ1%% 9EQ1%% 9EQ1%% 9EQ1%% 9EQ1%% 9EQ1%% 9EQ1%% 9EQ1%% 9EQ 9EQ 9EQ 9EQ 9EQ 9EQ 9EQ 9EQ 9EQ 9EQ 9EQ 9EQ 9EQ/## 9EQ/## 9EQ/## 9EQ/## 9EQ/## 9EQ/## 9EQ/## 9EQ/## 9EQ/## 9EQ/## 9EQ/## 9EQ/## 9EQ/## 9EQ/## 9EQ/## B9NEZQ/## B9NEZQ/## B9NEZQ/## B9NEZQ/## B9NEZQ/## B9NEZQ/## B9JNEVZQb/## B9JNEVZQb/## B9JNEVZQb/## B9JNEVZQb/## B9JNEVZQb/## B9JNEVZQb/## B9JNEVZQb/## B9JNEVZQb/## B9JNEVZQb/## B9JNEVZQb/## B9JNEVZQb/## B9JNEVZQb/## B9JNEVZQb/## B9JNEVZQb/## B9JNEVZQb/## B9JNEVZQb/## B9JNEVZQb/## B9JNEVZQb/## B9JNEVZQb/## B9JNEVZQb/## B9JNEVZQb/## B9JNEVZQb/## B9JNEVZQb/## B9JNEVZQb/## B9JNEVZQb/## B9JNEVZQb/## B9JNEVZQb/## B9JNEVZQb/## B9JNEVZQb/## B9JNEVZQb/## B9JNEVZQb/## B9JNEVZQb/## B9JNEVZQb/## B9JNEVZQb/## B9JNEVZQb/## B9JNEVZQb/## B9JNEVZQb/## B9JNEVZQb/## B9JNEVZQb/## B9JNEVZQb/## B9JNEVZQb/## B9JNEVZQb/## B9JNEVZQb/## B9JNEVZQb/## B9JNEVZQb/## B9JNEVZQb/## B9JNEVZQb/## B9JNEVZQb/## B9JNEVZQb/## B9JNEVZQb/## B9JNEVZQb/## B9JNEVZQb/## B9JNEVZQb/## B9JNEVZQb/## B9JNEVZQb/## B9JNEVZQb/## B9JNEVZQb/## B9JNEVZQb/## B9JNEVZQb/## B9JNEVZQb/## B9JNEVZQb/## B9JNEVZQb/## B9JNEVZQb/## B9JNEVZQb/## B9JNEVZQb/## B9JNEVZQb/## B9JNEVZQb/## B9JNEVZQb/## B9JNEVZQb/## B9JNEVZQb/## B9JNEVZQb/## B9JNEVZQb/## B9JNEVZQb/## B9JNEVZQb/## B9JNEVZQb/## B9JNEVZQb/## B9JNEVZQb/## B9JNEVZQb/## B9JNEVZQb/## B9JNEVZQb/## B9JNEVZQb/## B9JNEVZQb/## B9JNEVZQb/## B9JNEVZQb/## B9JNEVZQb/## B9JNEVZQb/## B9JNEVZQb/## B9JNEVZQb/## B9JNEVZQb/## B9JNEVZQb/## B9JNEVZQb/## B9JNEVZQb/## B9JNEVZQb/## B9JNEVZQb/## 9JEVQb/## 9JEVQb/## 9JEVQb/## 9JEVQb/## 9JEVQb/## 9JEVQb/## 9JEVQb/## 9JEVQb/## 9JEVQb/## 9JEVQb/## 9JEVQb/## 9JEVQb/## 9JEVQb/## 9JEVQb/## 9JEVQb/## JVb/## JVb/## JVb/## J8VDbP/## J8VDbP/## J8;VDGbPS/## J8;VDGbPS/## J8;VDGbPS/## J8;VDGbPS/## J8;VDGbPS/## J8;VDGbPS/## JL8;VXDGbdPS/## JL8;VXDGbdPS/## JL8;VXDGbdPS/## JL8;VXDGbdPS/## JL8;VXDGbdPS/## JL8;VXDGbdPS/## JL8;VXDGbdPS/## JL8;VXDGbdPS/## JL8;VXDGbdPS/## JL8;VXDGbdPS/## L8;XDGdPS/## L8;XDGdPS/## L8;XDGdPS/## L8;XDGdPS/## L8;XDGdPS/## L8;XDGdPS/## L8;XDGdPS/## L8;XDGdPS/## L8;XDGdPS/## L8;XDGdPS/## L8;XDGdPS/## L8;XDGdPS/## L8;XDGdPS/## L8;XDGdPS/## L8;XDGdPS/## L8;XDGdPS/## L8;XDGdPS/## L8;XDGdPS/## L8;XDGdPS/## L8;XDGdPS/## L8;XDGdPS/## L8;XDGdPS/## L8;XDGdPS/## L8;XDGdPS/## L8;XDGdPS/## L8;XDGdPS/## L8;XDGdPS/## L8;XDGdPS/## L8;XDGdPS/## L8;XDGdPS/## L8;XDGdPS/## L8;XDGdPS/## L8;XDGdPS/## L8;XDGdPS/## L8;XDGdPS/## L8;XDGdPS/## L8;XDGdPS/## L8;XDGdPS/## L8;XDGdPS/## L8;XDGdPS/## L8;XDGdPS/## L8;XDGdPS/## 8;DGPS/## 8;DGPS/## 8;DGPS/## 8;DGPS/## 8;DGPS/## 8;DGPS/## 8;DGPS/## 8;DGPS/## 8;DGPS/## 8;DGPS/## 8;DGPS/## 8;DGPS/## 8;DGPS/## 8;DGPS/## 8;DGPS/## 8;DGPS/## 8;DGPS/## 8;DGPS/## 8;DGPS/## 8;DGPS/## /## /## /## /## /## /## /## /## /## /## /## /## /## /## /## /## /## /## /## /## /## /## /## /## /## /## /## /## /## /## /## /## /## /## /## /## /## 6BN/## 6BN/## 6BN/## 96EBQN/## 96EBQN/## 96EBQN/## 96EBQN/## 96EBQN/## 96EBQN/## N96ZEBfQN/## N96ZEBfQN/## N96ZEBfQN/## N96ZEBfQN/## N96ZEBfQN/## N96ZEBfQN/## N96ZEBfQN/## N96ZEBfQN/## N96ZEBfQN/## N96ZEBfQN/## N96ZEBfQN/## N96ZEBfQN/## N96ZEBfQN/## N96ZEBfQN/## N96ZEBfQN/## N96ZEBfQN/## N96ZEBfQN/## N96ZEBfQN/## N96ZEBfQN/## N96ZEBfQN/## N96ZEBfQN/## N96ZEBfQN/## N96ZEBfQN/## N96ZEBfQN/## N96ZEBfQN/## N96ZEBfQN/## N96ZEBfQN/## N96ZEBfQN/## N96ZEBfQN/## N96ZEBfQN/## N96ZEBfQN/## N96ZEBfQN/## N96ZEBfQN/## N96ZEBfQN/## N96ZEBfQN/## N96ZEBfQN/## N96ZEBfQN/## N96ZEBfQN/## N96ZEBfQN/## N96ZEBfQN/## N96ZEBfQN/## N96ZEBfQN/## N96ZEBfQN/## N96ZEBfQN/## N96ZEBfQN/## N96ZEBfQN/## N96ZEBfQN/## N96ZEBfQN/## N96ZEBfQN/## N96ZEBfQN/## N96ZEBfQN/## 96EBQN/## 96EBQN/## 96EBQN/## 96EBQN/## 96EBQN/## 96EBQN/## 96EBQN/## 96EBQN/## 96EBQN/## 96EBQN/## 96EBQN/## 96EBQN/## 96EBQN/## 96EBQN/## 96EBQN/## 6BN/## 6BN/## 6BN/## 6BN/## 6BN/## 6BN/## /## /## /## /## /## /## /## /## /## /## /## /## /## /## /## /## /## /## /## /## /## /## /## /## /## /## /## /## /## /## /## /## /## /## /## /## /## /## /## /## /## /## /## /## /## 8DP/## 8DP/## 8DP/## 8DP/## 8DP/## 8DP/## 8DP/## 8DP/## 8DP/## L8XDdP/## L8XDdP/## L8XDdP/## L8XDdP/## L8XDdP/## L8XDdP/## L8XDdP/## L8XDdP/## L8XDdP/## L8XDdP/## L8XDdP/## L8XDdP/## L8XDdP/## L8XDdP/## L8XDdP/## L8XDdP/## L8XDdP/## L8XDdP/## L8XDdP/## L8XDdP/## L8XDdP/## L8XDdP/## L8XDdP/## L8XDdP/## L8XDdP/## L8XDdP/## L8XDdP/## L8XDdP/## L8XDdP/## L8XDdP/## L8XDdP/## L8XDdP/## L8XDdP/## L8XDdP/## L8XDdP/## L8XDdP/## L8XDdP/## L8XDdP/## L8XDdP/## L8XDdP/## L8XDdP/## L8XDdP/## L8XDdP/## L8XDdP/## L8XDdP/## L8XDdP/## L8XDdP/## L8XDdP/## L8XDdP/## L8XDdP/## L8XDdP/## L8XDdP/## L8XDdP/## L8XDdP/## L8XDdP/## L8XDdP/## L8XDdP/## L8XDdP/## L8XDdP/## L8XDdP/## L8XDdP/## L8XDdP/## L8XDdP/## L8XDdP/## L8XDdP/## L8XDdP/## L8XDdP/## L8XDdP/## L8XDdP/## L8XDdP/## L8XDdP/## L8XDdP/## L8XDdP/## L8XDdP/## L8XDdP/## L8XDdP/## L8XDdP/## L8XDdP/## L8XDdP/## L8XDdP/## L8XDdP/## L8XDdP/## L8XDdP/## L8XDdP/## L8XDdP/## L8XDdP/## L8XDdP/## L8XDdP/## L8XDdP/## L8XDdP/## L8XDdP/## L8XDdP/## L8XDdP/## L8XDdP/## L8XDdP/## L8XDdP/## L8XDdP/## L8XDdP/## L8XDdP/## L8XDdP/## L8XDdP/## L8XDdP/## L8XDdP/## L8XDdP/## L8XDdP/## L8XDdP/## L8XDdP/## L8XDdP/## L8XDdP/## L8XDdP/## L8XDdP/## L8XDdP/## L8XDdP/## L8XDdP/## L8XDdP/## L8XDdP/## L8XDdP/## L98XEDdQP/## L98XEDdQP/## L98XEDdQP/## L98XEDdQP/## L98XEDdQP/## L98XEDdQP/## L98XEDdQP/## L9N8XEZDdQfP/## L9N8XEZDdQfP/## L9N8XEZDdQfP/## L9N8XEZDdQfP/## L9N8XEZDdQfP/## L9N8XEZDdQfP/## 9N8EZDQfP/## 9N8EZDQfP/## 9N8EZDQfP/## 9N8EZDQfP/## 9N8EZDQfP/## 9N8EZDQfP/## 9N8EZDQfP/## 9N8EZDQfP/## 9N8EZDQfP/## 9N8EZDQfP/## 9N8EZDQfP/## 9N8EZDQfP/## 9N8EZDQfP/## 9N8EZDQfP/## 9N8EZDQfP/## 9N8EZDQfP/## 9N8EZDQfP/## 9N8EZDQfP/## 9N8EZDQfP/## 9N8EZDQfP/## 9N8EZDQfP/## 9N8EZDQfP/## 9N8EZDQfP/## 9N8EZDQfP/## 9N8EZDQfP/## 9N8EZDQfP/## 9N8EZDQfP/## 9N8EZDQfP/## 9N8EZDQfP/## 9N8EZDQfP/## 9N8EZDQfP/## 9N8EZDQfP/## 9N8EZDQfP/## 9N8EZDQfP/## 9N8EZDQfP/## 9N8EZDQfP/## 9N8EZDQfP/## 9N8EZDQfP/## 8DP/## 8DP/## 8DP/## 8DP/## 8DP/## 8DP/## 8DP/## 8DP/## 8DP/## 8DP/## 8DP/## 8DP/## 8DP/## 8DP/## 8DP/## 8DP/## 8DP/## 8DP/## 8DP/## 8DP/## 8DP/## 8DP/## 8DP/## 8DP/## 8DP/## 8DP/## 8DP/## 8DP/## 8DP/## 8DP/## 8DP/## 8DP/## 8DP/## 8DP/## 8DP/## 8DP/## 8DP/## 8DP/## 8DP/## 8DP/## 8DP/## 8DP/## 8DP/## 8DP/## 8DP/## 8DP/## 8DP/## 8DP/## 8DP/## 8DP/## 8DP/## 8DP/## 8DP/## 8DP/## 8DP/## 8DP/## 8DP/## 8DP/## 8DP/## 8DP/## 8DP/## 8DP/## 8DP/## 8DP/## 8;DGPS/## 8;DGPS/## 8;DGPS/## 8;DGPS/## 8;DGPS/## 8;DGPS/## 8;DGPS/## 8;DGPS/## 8;DGPS/## 8;DGPS/## 8;DGPS/## 8;DGPS/## 8J;DVGPbS/## 8J;DVGPbS/## 8J;DVGPbS/## 8J;DVGPbS/## 8J;DVGPbS/## 8J;DVGPbS/## 8J;DVGPbS/## 8J;DVGPbS/## 8J;DVGPbS/## 8J;DVGPbS/## 8J;DVGPbS/## 8J;DVGPbS/## 8J;DVGPbS/## 8J;DVGPbS/## 8J;DVGPbS/## 8J;DVGPbS/## 8J;DVGPbS/## 8J;DVGPbS/## 8J;DVGPbS/## 8J;DVGPbS/## 8J;DVGPbS/## 8J;DVGPbS/## 8J;DVGPbS/## 8J;DVGPbS/## 8J;DVGPbS/## 8J;DVGPbS/## 8J;DVGPbS/## 8J;DVGPbS/## 8J;DVGPbS/## 8J;DVGPbS/## 8J;DVGPbS/## 8J;DVGPbS/## 8J;DVGPbS/## 8J;DVGPbS/## J;VGbS/## ;GS/## ;GS/## ;GS/## ;GS/## ;GS/## ;GS/## ;GS/## ;GS/## ;GS/## ;GS/## ;GS/## ;GS/## ;GS/## ;GS/## ;GS/## ;GS/## ;GS/## ;GS/## ;GS/## ;GS/## ;GS/## ;GS/## ;GS/## ;GS/## ;GS/## ;GS/## ;GS/## ;GS/## ;GS/## ;GS/## /## /## /## /## /## /## /## /## /## /## /## /## /## /## /## /## /## /## /## /## /## /## /## /## /## /## /## /## /## /## /## /## /## /## /## /## /## /## /## /## /## /## /## /## /## 4@L/## 4@L 4@L 4@L 4@L 4I@ULa 4I@ULa 4I@ULa-!! 4I@ULa-!! 4I@ULa-!! 4I@ULa-!! 4I@ULa-!! 4I@ULa-!! 4I@ULa-!! 4I@ULa-!! 4I@ULa-!! 4I@ULa-!! 4I@ULa-!! 4I@ULa-!! 4I@ULa-!! 4I@ULa-!! 4I@ULa-!! 4I@ULa-!! 4I@ULa-!! 4I@ULa-!! 4I@ULa-!! 4I@ULa-!! 4I@ULa-!! 4I@ULa-!! 4I@ULa-!! 4I@ULa-!! 4I@ULa-!! 4I@ULa-!! 4I@ULa-!! 4I@ULa-!! 4I@ULa-!! 4I@ULa-!! 4I@ULa-!! 4I@ULa-!! 4I@ULa-!! 4I@ULa-!! 4I@ULa-!! 4I@ULa-!! 4I@ULa-!! 4I@ULa-!! 4I@ULa-!! 4I@ULa-!! 4I@ULa-!! 4I@ULa-!! 4I@ULa-!! 4I@ULa-!! 4I@ULa-!! 4I@ULa-!! 4I@ULa-!! 4I@ULa-!! 4I@ULa-!! 4I@ULa-!! 4I@ULa-!! 4I@ULa-!! 4I@ULa-!! 4I@ULa-!! 4I@ULa-!! 4I@ULa-!! 4I@ULa-!! 4I@ULa-!! 4I@ULa-!! 4I@ULa-!! 4I@ULa-!! 4I@ULa-!! 4I@ULa-!! 4I@ULa-!! 4I@ULa-!! 4I@ULa-!! 4I@ULa-!! 4I@ULa-!! 4I@ULa-!! 4I@ULa-!! 4I@ULa-!! 4I@ULa-!! 4I@ULa-!! 4I@ULa-!! 4I@ULa-!! 4I@ULa-!! 4I@ULa-!! 4I@ULa-!! 4I@ULa-!! 4I@ULa-!! 4I@ULa-!! 4I@ULa-!! 4I@ULa-!! 4I@ULa-!! 4I@ULa-!! 4I@ULa-!! 4I@ULa-!! 4I@ULa-!! 4I@ULa-!! 4I@ULa-!! 4I@ULa-!! 4I@ULa-!! 4I@ULa-!! 4I@ULa-!! 4I@ULa-!! 4I@ULa-!! 4I@ULa-!! 4I@ULa-!! 4I@ULa-!! 4I@ULa-!! 4I@ULa-!! 4I@ULa-!! 4I@ULa-!! 4I@ULa-!! 4I@ULa-!! 4I@ULa-!! 4I@ULa-!! 4I@ULa-!! 4I@ULa-!! 4I@ULa-!! 4I@ULa-!! 4I@ULa-!! 4I@ULa-!! 4I@ULa-!! 4I@ULa-!! 4I@ULa-!! 4I@ULa-!! 4I@ULa-!! 94IE@UQLa-!! 94IE@UQLa-!! 94IE@UQLa-!! 94IE@UQLa-!! 94IE@UQLa-!! 94IE@UQLa-!! 94IE@UQLa-!! 94IE@UQLa-!! 94IE@UQLa-!! 94IE@UQLa-!! 94IE@UQLa-!! 94IE@UQLa-!! 94IE@UQLa-!! 94IE@UQLa-!! 94IE@UQLa-!! 94IE@UQLa-!! 94IE@UQLa-!! 94IE@UQLa-!! 94IE@UQLa-!! 94IE@UQLa-!! 94IE@UQLa-!! 94IE@UQLa-!! 94IE@UQLa-!! 94IE@UQLa-!! 94IE@UQLa-!! 94IE@UQLa-!! 94IE@UQLa-!! 94IE@UQLa-!! 94IE@UQLa-!! 94IE@UQLa-!! 94IE@UQLa-!! 94IE@UQLa-!! 94IE@UQLa-!! 94IE@UQLa-!! 94IE@UQLa-!! 94IE@UQLa-!! 94IE@UQLa-!! 94IE@UQLa-!! 94IE@UQLa-!! 94IE@UQLa-!! 94IE@UQLa-!! 94IE@UQLa-!! 94IE@UQLa-!! 94IE@UQLa-!! 94IE@UQLa-!! 94IE@UQLa-!! 94IE@UQLa-!! 94IE@UQLa-!! 94IE@UQLa-!! 94IE@UQLa-!! 94IE@UQLa-!! 94IE@UQLa-!! 94IE@UQLa-!! 94IE@UQLa-!! 94IE@UQLa-!! 94IE@UQLa-!! 94IE@UQLa-!! 94IE@UQLa-!! 94IE@UQLa-!! 94IE@UQLa-!! 94IE@UQLa-!! 94IE@UQLa-!! 94IE@UQLa-!! 94IE@UQLa-!! 94IE@UQLa-!! 94IE@UQLa-!! 94IE@UQLa-!! 94IE@UQLa-!! 94IE@UQLa-!! 94IE@UQLa-!! 94IE@UQLa-!! 94IE@UQLa-!! 94IE@UQLa-!! 94IE@UQLa-!! 94IE@UQLa-!! 94IE@UQLa-!! 94IE@UQLa-!! 94IE@UQLa-!! 94IE@UQLa-!! 94IE@UQLa-!! 94IE@UQLa-!! 94IE@UQLa-!! 94IE@UQLa-!! 94IE@UQLa-!! 94IE@UQLa-!! 94IE@UQLa-!! 94IE@UQLa-!! 94IE@UQLa-!! 94IE@UQLa-!! 94IE@UQLa-!! 94IE@UQLa-!! 94IE@UQLa-!! 94IE@UQLa-!! 94IE@UQLa-!! 94IE@UQLa-!! 94IE@UQLa-!! 94IE@UQLa-!! 94IE@UQLa-!! 94IE@UQLa-!! 94IE@UQLa-!! 94IE@UQLa-!! 94IE@UQLa-!! 94IE@UQLa-!! 94IE@UQLa-!! 4I@ULa-!! 4I7@UCLaO-!! 4I7@UCLaO-!! I7UCaO-!! I7UCaO-!! I7UCaO-!! I7UCaO-!! I7UCaO-!! I7UCaO-!! I7UCaO-!! I7UCaO-!! I7UCaO-!! I7UCaO-!! I7UCaO-!! I7UCaO-!! I7UCaO-!! I7UCaO-!! I7UCaO-!! I7UCaO-!! I7UCaO-!! I@7ULCaXO-!! I@7ULCaXO-!! I@7ULCaXO-!! I@7ULCaXO-!! I@7ULCaXO-!! I@7ULCaXO-!! I@7ULCaXO-!! I@7ULCaXO-!! @7LCXO-!! @7LCXO-!! @7LCXO-!! @7LCXO-!! @7LCXO-!! @7LCXO-!! @7LCXO-!! @7LCXO-!! @7LCXO-!! @7LCXO-!! @7LCXO-!! @7LCXO-!! @7LCXO-!! @7LCXO-!! @7LCXO-!! @7LCXO-!! @7LCXO-!! @7LCXO-!! @7LCXO-!! @7LCXO-!! @7LCXO-!! @7LCXO-!! @7LCXO-!! @7LCXO-!! @7LCXO-!! @7LCXO-!! @7LCXO-!! @7LCXO-!! @7LCXO-!! @7LCXO-!! @7LCXO-!! @7LCXO-!! @7LCXO-!! @7LCXO-!! @7LCXO-!! @7LCXO-!! @7LCXO-!! @7LCXO-!! @7LCXO-!! 7CO-!! 7CO-!! 7CO-!! 7CO-!! 7CO-!! 7CO-!! 7CO-!! 7CO-!! 7CO-!! 7CO-!! 7CO-!! 7CO-!! 7CO-!! 7CO-!! 7CO-!! 7CO-!! 7CO-!! 7CO-!! 7CO-!! 7CO-!! 7CO-!! 7CO-!! 7CO-!! 7CO-!! 7CO-!! 7CO-!! 7CO-!! 7CO-!! 7CO-!! 7CO-!! 7CO-!! 7CO-!! 7CO-!! 7CO-!! 7CO-!! 7CO-!! 7CO-!! 7CO-!! 7CO-!! 7CO-!! 7CO-!! 7CO-!! 7CO-!! 7CO-!! 7CO-!! 7CO-!! 7CO-!! 7CO-!! 7CO-!! 7CO-!! 7CO-!! 7CO-!! 7CO-!! 7CO-!! 7CO-!! -!! 6BN-!! 6BN-!! 6BN-!! 6BN-!! 6BN-!! 6BN-!! 6BN-!! 6BN-!! 6BN-!! 6BN-!! 6BN-!! 6BN-!! 6BN-!! 6BN-!! 6BN-!! 6BN-!! 6BN-!! 6BN-!! 6BN-!! 6BN-!! 6BN-!! 6BN-!! 6BN-!! 6BN-!! 6EBQN]-!! 6EBQN]-!! 6EBQN]-!! 6EBQN]-!! 6EBQN]-!! 6EBQN]-!! 6EBQN]-!! 6EBQN]-!! 6EBQN]-!! 6EBQN]-!! 6EBQN]-!! 6EBQN]-!! 6EBQN]-!! 6EBQN]-!! 6EBQN]-!! 6EBQN]-!! 6EBQN]-!! 6EBQN]-!! 6EBQN]-!! 6EBQN]-!! 6EBQN]-!! 6EBQN]-!! 6EBQN]-!! 6EBQN]-!! 6EBQN]-!! 6EBQN]-!! 6EBQN]-!! 6EBQN]-!! 6EBQN]-!! 6EBQN]-!! 6EBQN]-!! 6EBQN]-!! 6EBQN]-!! 6EBQN]-!! 6EBQN]-!! 6EBQN]-!! 6EBQN]-!! 6EBQN]-!! 6EBQN]-!! 6EBQN]-!! 6EBQN]-!! 6EBQN]-!! 6EBQN]-!! 6EBQN]-!! 6EBQN]-!! 6EBQN]-!! 6EBQN]-!! 6EBQN]-!! 6EBQN]-!! 6EBQN]-!! 6EBQN]-!! 6EBQN]-!! 6EBQN]-!! 6EBQN]-!! 6EBQN]-!! 6EBQN]-!! 6EBQN]-!! 6EBQN]-!! 6EBQN]-!! 6EBQN]-!! 6EBQN]-!! 6EBQN]-!! 6EBQN]-!! 6EBQN]-!! 6EBQN]-!! 6EBQN]-!! 6EBQN]-!! 6EBQN]-!! 6EBQN]-!! 6EBQN]-!! 6EBQN]-!! 6EBQN]-!! 6EBQN]-!! 6EBQN]-!! 6EBQN]-!! 6EBQN]-!! 6EBQN]-!! 6EBQN]-!! 6EBQN]-!! 6EBQN]-!! 6EBQN]-!! 6EBQN]-!! 6EBQN]-!! 6EBQN]-!! 6EBQN]-!! 6EBQN]-!! 6EBQN]-!! 6EBQN]-!! 6EBQN]-!! 6EBQN]-!! 6EBQN]-!! 6EBQN]-!! 6EBQN]-!! 6EBQN]-!! EQ]-!! EQ]-!! EQ]-!! ;EGQS]-!! ;EGQS]-!! ;EGQS]-!! ;EGQS]-!! ;EGQS]-!! ;EGQS]-!! ;EGQS]-!! ;EGQS]-!! ;EGQS]-!! ;EGQS]-!! ;EGQS]-!! ;EGQS]-!! ;EGQS]-!! ;EGQS]-!! ;EGQS]-!! ;EGQS]-!! ;EGQS]-!! ;EGQS]-!! J;EVGQbS]-!! J;EVGQbS]-!! J;EVGQbS]-!! J;EVGQbS]-!! J;EVGQbS]-!! J;EVGQbS]-!! J;EVGQbS]-!! J;EVGQbS]-!! J;EVGQbS]-!! J;EVGQbS]-!! J;EVGQbS]-!! J;EVGQbS]-!! J;EVGQbS]-!! J;EVGQbS]-!! J;EVGQbS]-!! J;EVGQbS]-!! J;EVGQbS]-!! J;EVGQbS]-!! J;EVGQbS]-!! J;EVGQbS]-!! J;EVGQbS]-!! J;EVGQbS]-!! J;EVGQbS]-!! J;EVGQbS]-!! J;EVGQbS]-!! J;EVGQbS]-!! J;EVGQbS]-!! J;EVGQbS]-!! J;EVGQbS]-!! J;EVGQbS]-!! J;EVGQbS]-!! J;EVGQbS]-!! J;EVGQbS]-!! J;EVGQbS]-!! J;EVGQbS]-!! J;EVGQbS]-!! J;EVGQbS]-!! J;EVGQbS]-!! J;EVGQbS]-!! J;EVGQbS]-!! J;EVGQbS]-!! J;EVGQbS]-!! J;EVGQbS]-!! J;EVGQbS]-!! J;EVGQbS]-!! J;EVGQbS]-!! J;EVGQbS]-!! J;EVGQbS]-!! J;EVGQbS]-!! J;EVGQbS]-!! J;EVGQbS]-!! J;EVGQbS]-!! J;EVGQbS]-!! J;EVGQbS]-!! J;EVGQbS]-!! J;EVGQbS]-!! J;EVGQbS]-!! J;EVGQbS]-!! J;EVGQbS]-!! J;EVGQbS]-!! J;EVGQbS]-!! J;EVGQbS]-!! J;EVGQbS]-!! J;EVGQbS]-!! J;EVGQbS]-!! J;EVGQbS]-!! J;EVGQbS]-!! J;EVGQbS]-!! J;EVGQbS]-!! J;EVGQbS]-!! J;EVGQbS]-!! J;EVGQbS]-!! J;EVGQbS]-!! J;EVGQbS]-!! J;EVGQbS]-!! J;EVGQbS]-!! J;EVGQbS]-!! J;EVGQbS]-!! J;EVGQbS]-!! J;EVGQbS]-!! ;EGQS]-!! ;EGQS]-!! ;EGQS]-!! ;EGQS]-!! ;EGQS]-!! ;EGQS]-!! ;EGQS]-!! ;EGQS]-!! ;EGQS]-!! EQ]-!! EQ]-!! EQ]-!! EQ]-!! EQ]-!! EQ]-!! EQ]-!! EQ]-!! EQ]-!! EQ]-!! EQ]-!! EQ]-!! EQ]-!! EQ]-!! EQ]-!! EQ]-!! EQ]-!! EQ]-!! EQ]-!! EQ]-!! E=QI]U-!! E=QI]U-!! E=QI]U-!! E=QI]U-!! E=QI]U-!! E=CQIO]U[-!! EL=CQXIO]dU[-!! EL=CQXIO]dU[-!! EL=CQXIO]dU[-!! EL=CQXIO]dU[-!! EL=CQXIO]dU[-!! EL=CQXIO]dU[-!! L=CXIOdU[-!! L=CXIOdU[-!! L=CXIOdU[-!! L=CXIOdU[-!! L=CXIOdU[-!! L=CXIOdU[-!! L=CXIOdU[-!! L=CXIOdU[-!! L=CXIOdU[-!! L=CXIOdU[-!! L=CXIOdU[-!! L=CXIOdU[-!! L=CXIOdU[-!! L=CXIOdU[-!! L=CXIOdU[-!! L=CXIOdU[-!! L=CXIOdU[-!! L=CXIOdU[-!! L=CXIOdU[-!! L=CXIOdU[-!! L=CXIOdU[-!! L=CXIOdU[-!! L=CXIOdU[-!! L=CXIOdU[-!! L=CXIOdU[-!! L=CXIOdU[-!! L=CXIOdU[-!! L=CXIOdU[-!! L=CXIOdU[-!! L=CXIOdU[-!! L=CXIOdU[-!! L=CXIOdU[-!! L=CXIOdU[-!! L=CXIOdU[-!! L=CXIOdU[-!! L=CXIOdU[-!! L=CXIOdU[-!! L=CXIOdU[-!! L=CXIOdU[-!! L=CXIOdU[-!! L=CXIOdU[-!! L=CXIOdU[-!! L=CXIOdU[-!! L=CXIOdU[-!! =CIOU[-!! CO[-!! CO[-!! CO[-!! CO[-!! CO[-!! CO[-!! CO[-!! CO[-!! CO[-!! CO[-!! CO[-!! CO[-!! CO[-!! CO[-!! CO[-!! CO[-!! CO[-!! CO[-!! CO[-!! CO[-!! CO[-!! CO[-!! CO[-!! CO[-!! CO[-!! CO[-!! CO[-!! CO[-!! CO[-!! CO[-!! CO[-!! CO[-!! CO[-!! CO[-!! CO[-!! CO[-!! CO[-!! CO[-!! CO[-!! CO[-!! CO[-!! CO[-!! CO[-!! CO[-!! CO[-!! CO[-!! CO[-!! CO[-!! CO[-!! CO[-!! CO[-!! CO[-!! CO[-!! CO[-!! CO[-!! CO[-!! CO[-!! CO[-!! CO[-!! CO[-!! CO[-!! CO[-!! CO[-!! CO[-!! CO[-!! CO[-!! CO[-!! CO[-!! CBNONZ[Zf-!! CB>NONJZ[ZVf-!! CB>NONJZ[ZVf-!! CB>NONJZ[ZVf-!! CB>NONJZ[ZVf-!! CB>NONJZ[ZVf-!! CB>NONJZ[ZVf-!! CB>NONJZ[ZVf-!! B>NNJZZVf-!! B>NNJZZVf-!! B>NNJZZVf-!! B>NNJZZVf-!! B>NNJZZVf-!! B>NNJZZVf-!! B>NNJZZVf-!! B>NNJZZVf-!! B>NNJZZVf-!! B>NNJZZVf-!! B>NNJZZVf-!! B>NNJZZVf-!! B>NNJZZVf-!! B>NNJZZVf-!! B>NNJZZVf-!! B>NNJZZVf-!! B>NNJZZVf-!! B>NNJZZVf-!! B>NNJZZVf-!! B>NNJZZVf-!! B>NNJZZVf-!! B>NNJZZVf-!! B>NNJZZVf-!! B>NNJZZVf-!! B>NNJZZVf-!! B>NNJZZVf-!! B>NNJZZVf-!! B>NNJZZVf-!! B>NNJZZVf-!! B>NNJZZVf-!! B>NNJZZVf-!! B>NNJZZVf-!! B>NNJZZVf-!! B>NNJZZVf-!! B>NNJZZVf-!! B>NNJZZVf-!! B>NNJZZVf-!! B>NNJZZVf-!! B>NNJZZVf-!! B>NNJZZVf-!! B>NNJZZVf-!! B>NNJZZVf-!! B>NNJZZVf-!! B>NNJZZVf-!! B>NNJZZVf-!! B>NNJZZVf-!! B>NNJZZVf-!! B>NNJZZVf-!! B>NNJZZVf-!! B>NNJZZVf-!! B>NNJZZVf-!! B>NNJZZVf-!! B>NNJZZVf-!! B>NNJZZVf-!! B>NNJZZVf-!! B>NNJZZVf-!! B>NNJZZVf-!! B>NNJZZVf-!! B>NNJZZVf-!! B>NNJZZVf-!! B>NNJZZVf-!! B>NNJZZVf-!! B>NNJZZVf-!! B>NNJZZVf-!! B>NNJZZVf-!! B>NNJZZVf-!! B>NNJZZVf-!! B>NNJZZVf-!! B>NNJZZVf-!! B>NNJZZVf-!! B>NNJZZVf-!! B>NNJZZVf-!! B>NNJZZVf-!! >NJZVf-!! >NJZVf-!! >NJZVf-!! >NJZVf-!! >NJZVf-!! >NJZVf-!! >NJZVf-!! >NJZVf-!! >NJZVf-!! >NJZVf-!! >NJZVf-!! >NJZVf-!! >NJZVf-!! >NJZVf-!! >NJZVf-!! >NJZVf-!! >NJZVf-!! >NJZVf-!! >NJZVf-!! >NJZVf-!! >NJZVf-!! >NJZVf-!! >NJZVf-!! >NJZVf-!! >NJZVf-!! >NJZVf-!! >NJZVf-!! >NJZVf-!! >NJZVf-!! NZf-!! NZf-!! NZf-!! -!! -!! -!! =QI]Ui-!! =QI]Ui-!! =QI]Ui-!! =@QIL]UXi-!! =@QIL]UXi-!! =@QIL]UXi-!! =@QIL]UXi-!! =@QIL]UXi-!! =@QIL]UXi-!! =@QIL]UXi-!! =@QIL]UXi-!! =@QIL]UXi-!! =@QIL]UXi-!! =@QIL]UXi-!! =@QIL]UXi-!! =@QIL]UXi-!! =@QIL]UXi-!! =@QIL]UXi-!! =@QIL]UXi-!! =@QIL]UXi-!! =@QIL]UXi-!! =@QIL]UXi-!! =@QIL]UXi-!! =@QIL]UXi-!! =@QIL]UXi-!! =@QIL]UXi-!! =@QIL]UXi-!! =@QIL]UXi-!! =@QIL]UXi-!! =@QIL]UXi-!! =@QIL]UXi-!! =@QIL]UXi-!! =@QIL]UXi-!! =@QIL]UXi-!! =@QIL]UXi-!! =@QIL]UXi-!! =@QIL]UXi-!! =@QIL]UXi-!! =@QIL]UXi-!! =@QIL]UXi-!! =@QIL]UXi-!! =@QIL]UXi-!! =@QIL]UXi-!! =@QIL]UXi-!! =@QIL]UXi-!! =@QIL]UXi-!! =@QIL]UXi-!! =@QIL]UXi-!! =@QIL]UXi-!! =@QIL]UXi-!! =@QIL]UXi-!! =@QIL]UXi-!! =@QIL]UXi-!! =@QIL]UXi-!! =@QIL]UXi-!! =@QIL]UXi-!! =@QIL]UXi-!! =@QIL]UXi-!! =@QIL]UXi-!! =@QIL]UXi-!! =@QIL]UXi-!! =@QIL]UXi-!! =@QIL]UXi-!! =@QIL]UXi-!! =@QIL]UXi-!! =@QIL]UXi-!! =@QIL]UXi-!! =@QIL]UXi-!! =@QIL]UXi-!! =@QIL]UXi-!! =@QIL]UXi-!! =@QIL]UXi-!! =@QIL]UXi-!! =@QIL]UXi-!! =@QIL]UXi-!! Q]i-!! Q]i-!! Q]i-!! Q]i-!! Q]i-!! Q]i-!! Q]i-!! Q]i-!! Q]i-!! Q]i-!! Q]i-!! Q]i-!! Q]i-!! Q]i-!! Q]i-!! Q]i-!! Q]i-!! Q]i-!! Q]i-!! Q]i-!! Q]i-!! Q]i-!! Q]i-!! Q]i-!! -!! -!! -!! -!! -!! -!! -!! >JV-!! >JV-!! >;JGVS-!! P>;\JGhVS-!! P>;\JGhVS-!! P>;\JGhVS-!! P>;\JGhVS-!! P>;\JGhVS-!! P>;\JGhVS-!! P>;\JGhVS-!! P>;\JGhVS-!! P>;\JGhVS-!! P>;\JGhVS-!! P>;\JGhVS-!! P>;\JGhVS-!! P>;\JGhVS-!! P>;\JGhVS-!! P>;\JGhVS-!! P>;\JGhVS-!! P>;\JGhVS-!! P>;\JGhVS-!! P>;\JGhVS-!! P>;\JGhVS-!! P>;\JGhVS-!! P>;\JGhVS-!! P>;\JGhVS-!! P>;\JGhVS-!! P>;\JGhVS-!! P>;\JGhVS-!! P>;\JGhVS-!! P>;\JGhVS-!! P>;\JGhVS-!! P>;\JGhVS-!! P>;\JGhVS-!! P>;\JGhVS-!! P>;\JGhVS-!! P>;\JGhVS-!! P>;\JGhVS-!! P>;\JGhVS-!! P>;\JGhVS-!! P>;\JGhVS-!! P>;\JGhVS-!! P>;\JGhVS-!! P>;\JGhVS-!! P>;\JGhVS-!! P>;\JGhVS-!! P>;\JGhVS-!! P>;\JGhVS-!! P>;\JGhVS-!! P>;\JGhVS-!! P>;\JGhVS-!! P>;\JGhVS-!! P>;\JGhVS-!! P>;\JGhVS-!! P>;\JGhVS-!! P>;\JGhVS-!! P>;\JGhVS-!! P>;\JGhVS-!! >;JGVS-!! >;JGVS-!! >;JGVS-!! >;JGVS-!! >;JGVS-!! >;JGVS-!! >;JGVS-!! >;JGVS-!! >;JGVS-!! ;GS-!! ;GS-!! -!! -!! -!! -!! -!! -!! -!! -!! -!! -!! -!! -!! -!! -!! -!! -!! -!! -!! -!! -!! -!! -!! -!! -!! -!! -!! -!! -!! -!! -!! -!! -!! -!! -!! -!! -!! -!! -!! -!! -!! -!! -!! -!! -!! -!! -!! -!! -!! Q]i-!! Q]i-!! Q]i-!! Q]i-!! Q]i-!! Q]i-!! Q]i-!! Q]i-!! Q]i-!! Q=]IiU-!! Q=@]ILiUX-!! Q=@]ILiUX-!! Q=@]ILiUX-!! Q=@]ILiUX-!! Q=@]ILiUX-!! Q=@]ILiUX-!! Q=@]ILiUX-!! Q=@]ILiUX-!! Q=@]ILiUX-!! Q=@]ILiUX-!! Q=@]ILiUX-!! Q=@]ILiUX-!! Q=@]ILiUX-!! Q=@]ILiUX-!! Q=@]ILiUX-!! Q=@]ILiUX-!! Q=@]ILiUX-!! Q=@]ILiUX-!! Q=@]ILiUX-!! Q=@]ILiUX-!! Q=@]ILiUX-!! Q=@]ILiUX-!! Q=@]ILiUX-!! Q=@]ILiUX-!! Q=@]ILiUX-!! Q=@]ILiUX-!! Q=@]ILiUX-!! Q=@]ILiUX-!! Q=@]ILiUX-!! Q=@]ILiUX-!! Q=@]ILiUX-!! Q=@]ILiUX-!! Q=@]ILiUX-!! Q=@]ILiUX-!! Q=@]ILiUX-!! Q=@]ILiUX-!! Q=@]ILiUX-!! Q=@]ILiUX-!! Q=@]ILiUX-!! Q=@]ILiUX-!! Q=@]ILiUX-!! Q=@]ILiUX-!! Q=@]ILiUX-!! Q=@]ILiUX-!! Q=@]ILiUX-!! Q=@]ILiUX-!! Q=@]ILiUX-!! Q=@]ILiUX-!! Q=@]ILiUX-!! Q=@]ILiUX-!! Q=@]ILiUX-!! Q=@]ILiUX-!! Q=@]ILiUX-!! Q=@]ILiUX-!! Q=@]ILiUX-!! Q=@]ILiUX-!! Q=@]ILiUX-!! Q=@]ILiUX-!! Q=@]ILiUX-!! Q=@]ILiUX-!! Q=@]ILiUX-!! Q=@]ILiUX-!! Q=@]ILiUX-!! Q=@]ILiUX-!! Q=@]ILiUX-!! Q=@]ILiUX-!! Q=@]ILiUX-!! Q=@]ILiUX-!! Q=@]ILiUX-!! Q=@]ILiUX-!! Q=@]ILiUX-!! Q=@]ILiUX-!! Q=@]ILiUX-!! Q=@]ILiUX-!! Q=@]ILiUX-!! Q=@]ILiUX-!! Q=@]ILiUX-!! Q=@]ILiUX-!! Q=@]ILiUX-!! Q=@]ILiUX-!! Q=@]ILiUX-!! Q=@]ILiUX-!! Q=@]ILiUX-!! Q=@]ILiUX-!! Q=@]ILiUX-!! Q=@]ILiUX-!! Q=@]ILiUX-!! Q=@]ILiUX-!! Q=@]ILiUX-!! Q=@]ILiUX-!! Q=@]ILiUX-!! Q=@]ILiUX-!! Q=@]ILiUX-!! Q=@]ILiUX-!! Q=@]ILiUX-!! Q=@]ILiUX-!! Q=@]ILiUX-!! Q=@]ILiUX-!! Q=@]ILiUX-!! Q=@]ILiUX-!! Q=@]ILiUX-!! Q=@]ILiUX-!! Q=@]ILiUX-!! Q=@]ILiUX-!! Q=@]ILiUX-!! Q=@]ILiUX-!! Q=@]ILiUX-!! Q=@]ILiUX-!! Q=@]ILiUX-!! Q=@]ILiUX-!! Q=@]ILiUX-!! Q=@]ILiUX-!! Q=@]ILiUX-!! Q=@]ILiUX-!! Q=@]ILiUX-!! Q=@]ILiUX-!! =@ILUX-!! L=@XILdUX-!! L=@XILdUX-!! L=@XILdUX-!! L=@XILdUX-!! L=@XILdUX-!! L=@XILdUX-!! L=@XILdUX-!! L=@XILdUX-!! L=@XILdUX-!! L=@XILdUX-!! L=@XILdUX-!! L=@XILdUX-!! L=@XILdUX-!! L=@XILdUX-!! L=@XILdUX-!! L=@XILdUX-!! L=@XILdUX-!! L=@XILdUX-!! L=@XILdUX-!! L=@XILdUX-!! L=@XILdUX-!! L=@XILdUX-!! L=@XILdUX-!! L=@XILdUX-!! L=@XILdUX-!! L=@XILdUX-!! L=@XILdUX-!! L=@XILdUX-!! L=@XILdUX-!! L=@XILdUX-!! L=@XILdUX-!! L=@XILdUX-!! L=@XILdUX-!! L=@XILdUX-!! L=@XILdUX-!! L=@XILdUX-!! L=@XILdUX-!! L=@XILdUX-!! L=@XILdUX-!! L=@XILdUX-!! =@ILUX-!! =@ILUX-!! =@ILUX-!! =@ILUX-!! =@ILUX-!! =@ILUX-!! =@ILUX-!! =@ILUX-!! =@ILUX-!! =@ILUX-!! =@ILUX-!! =@ILUX-!! =@ILUX-!! =@ILUX-!! =@ILUX-!! =@ILUX-!! =@ILUX-!! =@ILUX-!! =@ILUX-!! =@ILUX-!! =@ILUX-!! =@ILUX-!! =@ILUX-!! =@ILUX-!! =@ILUX-!! =@ILUX-!! =@ILUX-!! =@ILUX-!! =@ILUX-!! =@ILUX-!! =@ILUX-!! =@ILUX-!! =@ILUX-!! =@ILUX-!! =@ILUX-!! =@ILUX-!! =@ILUX-!! =@ILUX-!! =@ILUX-!! =@ILUX-!! =@ILUX-!! =@ILUX-!! =@ILUX-!! =@ILUX-!! =@ILUX-!! =@ILUX-!! =@ILUX-!! =@ILUX-!! =@ILUX-!! =@ILUX-!! =@ILUX-!! =@ILUX-!! =@ILUX-!! =@ILUX-!! =@ILUX-!! =@ILUX-!! =@ILUX-!! =@ILUX-!! =@ILUX-!! =@ILUX-!! =@ILUX-!! =@ILUX-!! =@ILUX-!! =@ILUX-!! =@ILUX-!! =@ILUX-!! =@ILUX-!! =@ILUX-!! =@ILUX-!! =@ILUX-!! =@ILUX-!! =@ILUX-!! =@ILUX-!! =@ILUX-!! I=@UILaUX-!! I=@UILaUX-!! I=@UILaUX-!! I=@UILaUX-!! I=@UILaUX-!! I=@UILaUX-!! I=@UILaUX-!! I=@UILaUX-!! I=@UILaUX-!! I=@UILaUX-!! I=@UILaUX-!! I=@UILaUX-!! I=@UILaUX-!! I=@UILaUX-!! I=@UILaUX-!! I=@UILaUX-!! I=@UILaUX-!! I=@UILaUX-!! I=@UILaUX-!! I=@UILaUX-!! I=@UILaUX-!! I=@UILaUX-!! I=@UILaUX-!! I=@UILaUX-!! I=@UILaUX-!! I=@UILaUX-!! I=@UILaUX-!! I=@UILaUX-!! I=@UILaUX-!! =@ILUX-!! =@ILUX-!! =@ILUX-!! =@ILUX-!! =@ILUX-!! =@ILUX-!! =@ILUX-!! =@ILUX-!! =@ILUX-!! =@ILUX-!! =@ILUX-!! =@ILUX-!! =@ILUX-!! =@ILUX-!! =@ILUX-!! =@ILUX-!! =@ILUX-!! =@ILUX-!! =@ILUX-!! =@ILUX-!! =@ILUX-!! =@ILUX-!! =@ILUX-!! =@ILUX-!! =@ILUX-!! =@ILUX-!! =@ILUX-!! =@ILUX-!! =@ILUX-!! =@ILUX-!! =@ILUX-!! =@ILUX-!! =@ILUX-!! =@ILUX-!! =@ILUX-!! =@ILUX-!! =@ILUX-!! =@ILUX-!! =@ILUX-!! =@ILUX-!! =@ILUX-!! =@ILUX-!! =@ILUX-!! =@ILUX-!! =@ILUX-!! =@ILUX-!! =@ILUX-!! =@ILUX-!! =@ILUX-!! =@ILUX-!! =@ILUX-!! =@ILUX-!! =@ILUX-!! =@ILUX-!! =@ILUX-!! =@ILUX-!! =@ILUX-!! =@ILUX-!! =@ILUX-!! =@ILUX-!! =@ILUX-!! =@ILUX-!! =@ILUX-!! =@ILUX-!! =@ILUX-!! =@ILUX-!! =@ILUX-!! =@ILUX-!! =@ILUX-!! =@ILUX-!! =@ILUX-!! =@ILUX-!! =@ILUX-!! =@ILUX-!! =@ILUX-!! =@ILUX-!! =@ILUX-!! =@ILUX-!! =@ILUX-!! =@ILUX-!! =@ILUX-!! =@ILUX-!! =@ILUX-!! =@ILUX-!! =@ILUX-!! =@EILQUX]-!! =@EILQUX]-!! =@EILQUX]-!! =@EILQUX]-!! =@EILQUX]-!! @ELQX]-!! @ELQX]-!! EQ]-!! EQ]-!! EQ]-!! EQ]-!! EQ]-!! EQ]-!! EQ]-!! EQ]-!! EQ]-!! EQ]-!! EQ]-!! EQ]-!! EQ]-!! EQ]-!! EQ]-!! EQ]-!! EQ]-!! EQ]-!! EQ]-!! EQ]-!! EQ]-!! EQ]-!! EQ]-!! EQ]-!! EQ]-!! EQ]-!! EQ]-!! EQ]-!! EQ]-!! EQ]-!! EQ]-!! EQ]-!! EQ]-!! EQ]-!! EQ]-!! EQ]-!! EQ]-!! EQ]-!! EQ]-!! EQ]-!! EQ]-!! EQ]-!! EQ]-!! EQ]-!! EQ]-!! EQ]-!! EQ]-!! EQ]-!! EQ]-!! EQ]-!! EQ]-!! EQ]-!! EQ]-!! EQ]-!! EQ]-!! EQ]-!! EQ]-!! EQ]-!! EQ]-!! EQ]-!! EQ]-!! EQ]-!! EQ]-!! EQ]-!! EQ]-!! EQ]-!! EQ]-!! EQ]-!! EQ]-!! EQ]-!! EQ]-!! EQ]-!! EQ]-!! EQ]-!! EQ]-!! EQ]-!! EQ]-!! EQ]-!! EQ]-!! EQ]-!! EQ]-!! EQ]-!! EQ]-!! EQ]-!! EQ]-!! EQ]-!! EQ]-!! EQ]-!! EQ]-!! EQ]-!! EQ]-!! EQ]-!! EQ]-!! EQ]-!! EQ]-!! EQ]-!! EQ]-!! EQ]-!! EQ]-!! EQ]-!! EQ]-!! EQ]-!! EQ]-!! EQ]-!! EQ]-!! EQ]-!! EQ]-!! EQ]-!! EQ]-!! EQ]-!! EQ]-!! EQ]-!! EQ]-!! EQ]-!! EQ]-!! EQ]-!! EQ]-!! EQ]-!! EQ]-!! EQ]-!! EQ]-!! EQ]-!! @ELQX]-!! @ELQX]-!! @ELQX]-!! @ELQX]-!! @ELQX]-!! @ELQX]-!! @ELQX]-!! @ELQX]-!! @ELQX]-!! @ELQX]-!! @ELQX]-!! @ELQX]-!! @ELQX]-!! @ELQX]-!! @ELQX]-!! @ELQX]-!! @ELQX]-!! @ELQX]-!! @ELQX]-!! @ELQX]-!! @ELQX]-!! @ELQX]-!! @ELQX]-!! @ELQX]-!! @ELQX]-!! @ELQX]-!! @ELQX]-!! @ELQX]-!! @ELQX]-!! @ELQX]-!! @ELQX]-!! @ELQX]-!! @ELQX]-!! @ELQX]-!! @ELQX]-!! @ELQX]-!! @ELQX]-!! @ELQX]-!! @ELQX]-!! @ELQX]-!! @ELQX]-!! @ELQX]-!! @ELQX]-!! @ELQX]-!! @ELQX]-!! @ELQX]-!! @ELQX]-!! @ELQX]-!! @ELQX]-!! @ELQX]-!! @ELQX]-!! @ELQX]-!! @ELQX]-!! @ELQX]-!! @ELQX]-!! @ELQX]-!! @ELQX] EQ] EQ] EQ] EQ] EQ] EQ] EQ] EQ] EQ] EQ] EQ] EQ] EQ] EQ] EQ] EQ] EQ] EQ] EQ] EQ] EQ] EQ] EQ] EQ] EQ] EQ] EQ] EQ] EQ] EQ] EQ] EQ] EQ] EQ] EQ] EQ] EQ] EQ] EQ] EQ] EQ] EQ] EQ] EQ] EQ] EQ] EQ] EQ] EQ] EQ] EQ] EQ] EQ] EQ] EQ] EQ] EQ] EQ] EQ] EQ] EQ] EQ] =EIQU] =EIQU] =EIQU] =EIQU] =EIQU] =EIQU] =EIQU] =EIQU] =EIQU] =EIQU] =EIQU] =EIQU] =EIQU] =EIQU] =EIQU] =EIQU] =EIQU] =EIQU] =EIQU] =EIQU] =EIQU] =EIQU] =EIQU] =EIQU] =EIQU] =EIQU] =EIQU] =EIQU] =EIQU] =EIQU] =EIQU] =EIQU] =EIQU] =EIQU] =EIQU] =EIQU] =EIQU] =EIQU] =EIQU] =EIQU] =EIQU] =EIQU] =EIQU] =EIQU] =EIQU] =EIQU] =EIQU] EQ] EQ] EQ] EQ] EQ] EQ] EQ] EQ] EQ] EQ] EQ] EQ] EQ] EQ] EQ] EQ] EQ] EQ] EQ] EQ] EQ] EQ] EQ] EQ] EQ] EQ] EQ] EQ] EQ] EQ] EQ] EQ]                                   -!! -!! -!! -!! -!! -!! -!! -!! -!! -!! -!! -!! -!! -!! -!! 9EQ-!! 9EQ-!! 9EQ-!! 9EQ-!! 9EQ-!! 9EQ-!! 9EQ-!! 9EQ-!! 9EQ-!! 9EQ-!! 9EQ-!! 9EQ-!! 9EQ-!! 9EQ-!! 9EQ-!! 9EQ-!! 9EQ-!! 9EQ-!! 9EQ-!! 9EQ-!! 9EQ-!! 9EQ-!! 9EQ-!! 9EQ-!! 9EQ-!! 9EQ-!! 9EQ-!! 9EQ-!! 9EQ-!! 9EQ-!! 9EQ-!! 9EQ-!! 9EQ-!! 9EQ-!! 9EQ-!! 9EQ-!! 9EQ-!! 9EQ-!! 9EQ-!! 9EQ-!! 9EQ-!! 9EQ-!! 9EQ-!! 9EQ-!! 9EQ-!! 9EQ-!! 9EQ-!! 9EQ-!! 9EQ-!! 9EQ-!! 9EQ-!! 9EQ-!! 9EQ-!! 9EQ-!! 9EQ-!! 9EQ-!! 9EQ-!! 9EQ-!! 9EQ-!! 9EQ-!! 9EQ-!! 9EQ-!! 9EQ-!! 9EQ-!! 9EQ-!! 9EQ-!! 9EQ-!! 9EQ-!! 9EQ-!! 9EQ-!! 9EQ-!! 9EQ-!! 9EQ-!! 9EQ-!! 9EQ-!! 9EQ-!! 9EQ-!! 9EQ-!! 9EQ-!! 9EQ-!! 9EQ-!! 9EQ-!! 9EQ-!! 9EQ-!! 9EQ-!! 9EQ-!! 9EQ-!! 9EQ-!! 9EQ-!! 9EQ-!! 9EQ-!! 9EQ-!! 9EQ-!! 9EQ-!! 9EQ-!! 9EQ-!! 9EQ-!! 9EQ-!! 9EQ-!! 9EQ-!! 9EQ-!! 9EQ-!! 9EQ-!! 9EQ-!! 9EQ-!! 9EQ-!! 9EQ-!! 9EQ-!! 9EQ-!! 9EQ-!! 9EQ-!! 9EQ-!! 9EQ-!! 9EQ-!! 9EQ-!! 9EQ-!! 9EQ-!! 9EQ-!! 9EQ-!! 9EQ-!! 9EQ-!! 9EQ-!! 9EQ-!! 9EQ-!! 9EQ-!! 9EQ-!! 9EQ-!! 9EQ-!! 9EQ-!! 9EQ-!! 9EQ-!! 9EQ-!! 9EQ-!! 9EQ-!! 9EQ-!! 9EQ-!! 9EQ-!! 9EQ-!! 9EQ-!! 9EQ-!! 9EQ-!! 9EQ-!! 9EQ-!! 9EQ-!! 9EQ-!! 9EQ-!! 9EQ-!! 9EQ-!! 9EQ-!! 9EQ-!! 9EQ-!! 9EQ-!! 9EQ-!! 9EQ-!! 9EQ-!! 9EQ-!! 9EQ-!! 9EQ-!! 9EQ-!! 9EQ-!! 9EQ-!! 9EQ-!! 9EQ-!! 9EQ-!! 9EQ-!! 9EQ-!! 9EQ-!! 9EQ-!! 9EQ-!! 9EQ-!! 9EQ-!! 9EQ-!! 9EQ-!! 9EQ-!! 9EQ-!! 9EQ-!! 9EQ-!! 9EQ-!! 9EQ-!! 9EQ-!! 9EQ-!! 9EQ-!! 9EQ-!! 9EQ-!! 9EQ-!! 9EQ-!! 9EQ-!! 9EQ-!! 9EQ-!! 9EQ-!! 9EQ-!! 9EQ-!! 9EQ-!! 9EQ-!! 9EQ-!! 9EQ-!! 9EQ-!! 9EQ-!! 9EQ-!! 9EQ-!! 9EQ-!! 9EQ-!! 9EQ-!! 9EQ-!! 9EQ-!! 9EQ-!! 9EQ-!! 9EQ-!! 9EQ-!! 9EQ-!! 9EQ-!! 9EQ-!! 9EQ-!! 9EQ-!! 9EQ-!! 9EQ-!! 9EQ-!! 9EQ-!! 9EQ-!! 9EQ-!! 9EQ-!! 9EQ-!! 9EQ-!! 9EQ-!! 9EQ-!! 9EQ-!! 9EQ-!! 9EQ-!! 9EQ-!! 9EQ-!! 9EQ-!! 9EQ-!! 9EQ-!! 9EQ-!! 9EQ-!! 9EQ-!! 9EQ-!! 9EQ-!! 9EQ-!! 9EQ-!! 9EQ-!! 9EQ-!! 9EQ-!! 9EQ-!! 9EQ-!! 9EQ-!! 9EQ-!! 9EQ-!! 9EQ-!! 9EQ-!! 9EQ-!! 9EQ-!! 9EQ-!! 9EQ-!! 9EQ-!! 9EQ-!! 9EQ-!! 9EQ-!! 9EQ-!! 9EQ-!! 9EQ-!! 9EQ-!! 9EQ-!! 9EQ-!! 9EQ-!! 9EQ-!! 9EQ-!! 9EQ-!! 9EQ-!! 9EQ-!! 9EQ-!! 9EQ-!! -!! -!! -!! -!! -!! -!! -!! -!! -!!                                                                                                                1%% 1%% 1%% 1%% 1%% 1%% 1%% 1%% 1%% 1%% 1%% 1%% 1%% 1%% 1%% 1%% 1%% 1%% 1%% 1%% 1%% 1%% 1%% 1%% 1%% 1%% 1%% 1%% 1%% 1%% 1%% 1%% 1%% 1%% 1%% 1%% 1%% 1%% 1%% 1%% 1%% 1%% 1%% 1%% 1%% 1%% 1%% 1%% 1%% 1%% 1%% 1%% 1%% 1%% 1%% 1%% 1%% 1%% 1%% 1%% 1%% 1%% 1%% 1%% 1%% 1%% 1%% 1%% 1%% 1%% 1%% 1%% 1%% 1%% 1%% 1%% 1%% 1%% 1%% 1%% 1%% 1%% 1%% 1%% 1%% 1%% 1%% 1%% IUa1%% IUa1%% IUa1%% IUa1%% IUa1%% IUa1%% IUa1%% IUa1%% IUa1%% IUa1%% IUa1%% IUa1%% IUa1%% IUa1%% IUa1%% IUa1%% IUa1%% IUa1%% IUa1%% IUa1%% IUa1%% IUa1%% IUa1%% IUa1%% IUa1%% IUa1%% IUa1%% IUa1%% IUa1%% IUa1%% IUa1%% IUa1%% IUa1%% IUa1%% IUa1%% IUa1%% IUa1%% IUa1%% IUa1%% IUa1%% IUa1%% IUa1%% IUa1%% IUa1%% IUa1%% IUa1%% IUa1%% IUa1%% IUa1%% IUa1%% IUa1%% IUa1%% IUa1%% IUa1%% IUa1%% IUa1%% IUa1%% IUa1%% IUa1%% IUa1%% IUa1%% IUa1%% IUa1%% IUa1%% IUa1%% IUa1%% IUa1%% IUa1%% IUa1%% IUa1%% IUa1%% IUa1%% IUa1%% IUa1%% IUa1%% IUa1%% IUa1%% IUa1%% IUa1%% IUa1%% IUa1%% IUa1%% IUa1%% IUa1%% IUa1%% IUa1%% IUa1%% IUa1%% IUa1%% IUa1%% IUa1%% IUa1%% IUa1%% IUa1%% IUa1%% IUa1%% IUa1%% IUa1%% 1%% 1%% 1%% 1%% 1%% 1%% 1%% 1%% 1%% 1%% 1%% 1%% 1%% 1%% 1%% 1%% 1%% 1%% 1%% 1%% JVb1%% JVb1%% JVb1%% JVb1%% JVb1%% JVb1%% JVb1%% JVb1%% JVb1%% JVb1%% JVb1%% JVb1%% JVb1%% JVb1%% JVb1%% JVb1%% JVb1%% JVb1%% JVb1%% JVb1%% JVb1%% JVb1%% JVb1%% JVb1%% JVb1%% JVb1%% JVb1%% JVb1%% JVb1%% JVb1%% JVb1%% JVb1%% JVb1%% JVb1%% JVb1%% JVb1%% JVb1%% JVb1%% JVb1%% JVb1%% JVb1%% JVb1%% JVb1%% JVb1%% JVb1%% JVb1%% JVb1%% JVb1%% 1%% 1%% 1%% 1%% 1%% 1%% 1%% 1%% 1%% 1%% 1%% 1%% 1%% 1%% 1%% 1%% 1%% 1%% 1%% 1%% 1%% 1%% 1%% 1%% 1%% 1%% 1%% 1%% 1%% 1%% 1%% 1%% 1%% 1%% 1%% 1%% 1%% 1%% 1%% 1%% 1%% 1%% 1%% 1%% 1%% 1%% 1%% 1%% 1%% 1%% 1%% 1%% 1%% 1%% 1%% 1%% 1%% 1%% 1%% 1%% 1%% 1%% 1%% 1%% 1%% 1%% 1%% 1%% 1%% 1%% 1%% LXd1%% LXd1%% LXd1%% LXd1%% LXd1%% LXd1%% LXd1%% LXd1%% LXd1%% LXd1%% LXd1%% LXd1%% LXd1%% LXd1%% LXd1%% LXd1%% LXd1%% LXd1%% LXd1%% LXd1%% LXd1%% LXd1%% LXd1%% LXd1%% LXd1%% LXd1%% LXd1%% LXd1%% LXd1%% LXd1%% LXd1%% LXd1%% LXd1%% LXd1%% LXd1%% LXd1%% LXd1%% LXd1%% LXd1%% LXd1%% LXd1%% LXd1%% LXd1%% LXd1%% LXd1%% LXd1%% LXd1%% LXd1%% LXd1%% LXd1%% LXd1%% LXd1%% LXd1%% LXd1%% LXd1%% LXd1%% LXd1%% LXd1%% LXd1%% LXd1%% LXd1%% LXd1%% LXd1%% LXd1%% LXd1%% LXd1%% LXd1%% LXd1%% LXd1%% LXd1%% LXd1%% LXd1%% LXd1%% LXd1%% LXd1%% LXd1%% LXd1%% LXd1%% LXd1%% LXd1%% LXd1%% LXd1%% LXd1%% LXd1%% LXd1%% LXd1%% LXd1%% LXd1%% LXd1%% LXd1%% LXd1%% LXd1%% LXd1%% LXd1%% LXd1%% LXd1%% LXd1%% LXd1%% LXd1%% LXd1%% LXd1%% LXd1%% LXd1%% LXd1%% LXd1%% LXd1%% LXd1%% LXd1%% LXd1%% LXd1%% LXd1%% LXd1%% LXd1%% 1%% 1%% 1%% 1%% EQ]1%% EQ]1%% EQ]1%% EQ]1%% EQ]1%% EQ]1%% EQ]1%% EQ]1%% EQ]1%% EQ]1%% EQ]1%% EQ]1%% EQ]1%% EQ]1%% EQ]1%% EQ]1%% EQ]1%% EQ]1%% EQ]1%% EQ]1%% EQ]1%% EQ]1%% EQ]1%% EQ]1%% EQ]1%% EQ]1%% EQ]1%% EQ]1%% EQ]1%% EQ]1%% EQ]1%% EQ]1%% EQ]1%% EQ]1%% EQ]1%% EQ]1%% EQ]1%% EQ]1%% EQ]1%% EQ]1%% EQ]1%% EQ]1%% EQ]1%% EQ]1%% EQ]1%% EQ]1%% EQ]1%% EQ]1%% EQ]1%% EQ]1%% EQ]1%% EQ]1%% EQ]1%% EQ]1%% EQ]1%% 1%% 1%% 1%% 1%% 1%% 1%% 1%% 1%% 1%% 1%% 1%% 1%% 1%% 1%% 1%% 1%% 1%% 1%% 1%% 1%% 1%% 1%% 1%% 1%% 1%% 1%% 1%% 1%% 1%% 1%% 1%% 1%% 1%% 1%% 1%% 1%% 1%% 1%% 1%% 1%% 1%% 1%% 1%% 1%% 1%% 1%% 1%% 1%% 1%% 1%% 1%% 1%% 1%% 1%% 1%% 1%% 1%% 1%% 1%% 1%% 1%% 1%% 1%% 1%% 1%% DP\1%% DP\1%% DP\1%% DP\1%% DP\1%% DP\1%% DP\1%% DP\1%% DP\1%% DP\1%% DP\1%% DP\1%% DP\1%% DP\1%% DP\1%% DP\1%% DP\1%% DP\1%% DP\1%% DP\1%% DP\1%% DP\1%% DP\1%% DP\1%% DP\1%% DP\1%% DP\1%% DP\1%% DP\1%% DP\1%% DP\1%% DP\1%% DP\1%% DP\1%% DP\1%% DP\1%% DP\1%% DP\1%% DP\1%% DP\1%% DP\1%% DP\1%% DP\1%% DP\1%% DP\1%% DP\1%% 1%% 1%% 1%% 1%% 1%% 1%% 1%% 1%% 1%% 1%% 1%% 1%% 1%% 1%% 1%% 1%% 1%% 1%% 1%% 1%% 1%% 1%% 1%% 1%% 1%% 1%% 1%% 1%% 1%% 1%% 1%% 1%% 1%% 1%% 1%% 1%% 1%% 1%% 1%% 1%% 1%% 1%% 1%% 1%% 1%% 1%% 1%% 1%% 1%% 1%% 1%% 1%% 1%% 1%%       3'' 3'' 3'' 3'' 3'' 3'' 3'' 3'' 3'' 3'' 3'' 3'' 3'' 3'' BNZ3'' BNZ3'' BNZ3'' BNZ3'' BNZ3'' BNZ3'' BNZ3'' BNZ3'' BNZ3'' BNZ3'' BNZ3'' BNZ3'' BNZ3'' BNZ3'' BNZ3'' BNZ3'' BNZ3'' BNZ3'' BNZ3'' BNZ3'' BNZ3'' BNZ3'' BNZ3'' BNZ3'' BNZ3'' BNZ3'' BNZ3'' BNZ3'' BNZ3'' BNZ3'' BNZ3'' BNZ3'' BNZ3'' BNZ3'' BNZ3'' BNZ3'' BNZ3'' BNZ3'' BNZ3'' BNZ3'' BNZ3'' BNZ3'' BNZ3'' BNZ3'' BNZ3'' BNZ3'' BNZ3'' BNZ3'' BNZ3'' BNZ3'' BNZ3'' BNZ3'' BNZ3'' BNZ3'' BNZ3'' BNZ3'' BNZ3'' BNZ3'' BNZ3'' BNZ3'' BNZ3'' BNZ3'' BNZ3'' BNZ3'' BNZ3'' BNZ3'' BNZ3'' BNZ3'' BNZ3'' BNZ3'' BNZ3'' BNZ3'' BNZ3'' BNZ3'' BNZ3'' BNZ3'' BNZ3'' BNZ3'' BNZ3'' BNZ3'' BNZ3'' BNZ3'' BNZ3'' BNZ3'' BNZ3'' BNZ3'' BNZ3'' BNZ3'' BNZ3'' BNZ3'' BNZ3'' BNZ3'' BNZ3'' BNZ3'' BNZ3'' BNZ3'' BNZ3'' BNZ3'' BNZ3'' BNZ3'' BNZ3'' BNZ3'' BNZ3'' BNZ3'' BNZ3'' BNZ3'' BNZ3'' BNZ3'' BNZ3'' BNZ3'' BNZ3'' BNZ3'' BNZ3'' BNZ3'' BNZ3'' BNZ3'' BNZ3'' BNZ3'' BDNPZ\3'' BDNPZ\3'' BDNPZ\3'' BDNPZ\3'' BDNPZ\3'' BDNPZ\3'' BDNPZ\3'' BDNPZ\3'' BDNPZ\3'' BDNPZ\3'' BDNPZ\3'' BDNPZ\3'' BDNPZ\3'' BDNPZ\3'' BDNPZ\3'' DP\3'' DP\3'' DP\3'' DP\3'' DP\3'' DP\3'' DP\3'' DP\3'' DP\3'' DP\3'' DP\3'' DP\3'' DP\3'' DP\3'' DP\3'' DP\3'' DP\3'' DP\3'' DP\3'' DP\3'' DP\3'' DP\3'' DP\3'' DP\3'' DP\3'' DP\3'' DP\3'' DP\3'' DP\3'' DP\3'' DP\3'' DP\3'' DP\3'' DP\3'' DP\3'' DP\3'' DP\3'' DP\3'' 3'' 3'' 3'' 3'' 3'' 3'' 3'' 3'' 3'' 3'' 3'' 3'' 3'' 3'' 3'' 3'' 3'' 3'' 3'' 3'' 3'' 3'' 3'' 3'' 3'' 3'' 3'' 3'' 3'' 3'' 3'' 3'' 3'' 3'' 3'' 3'' 3'' 3'' 3'' 3'' 3'' 3'' 3'' 3'' 3'' 3'' 3'' 3'' 3'' 3'' 3'' 3'' 3'' 3'' 3'' 3'' 3'' 3'' 3'' 3'' 3'' 3'' 3'' 3'' 3'' EQ]3'' EQ]3'' EQ]3'' EQ]3'' EQ]3'' EQ]3'' EQ]3'' EQ]3'' EQ]3'' EQ]3'' EQ]3'' EQ]3'' EQ]3'' EQ]3'' EQ]3'' EQ]3'' EQ]3'' EQ]3'' EQ]3'' EQ]3'' EQ]3'' EQ]3'' EQ]3'' EQ]3'' EQ]3'' EQ]3'' EQ]3'' EQ]3'' EQ]3'' EQ]3'' EQ]3'' EQ]3'' EQ]3'' EQ]3'' EQ]3'' EQ]3'' EQ]3'' EQ]3'' EQ]3'' EQ]3'' EQ]3'' EQ]3'' EQ]3'' EQ]3'' EQ]3'' EQ]3'' EQ]3'' EQ]3'' EQ]3'' EQ]3'' EQ]3'' EQ]3'' EQ]3'' EQ]3'' EQ]3'' EQ]3'' EQ]3'' EQ]3'' EQ]3'' EQ]3'' EQ]3'' EQ]3'' EQ]3'' 3'' 3'' 3'' 3'' 3'' 3'' 3'' 3'' 3'' 3'' 3'' 3'' 3'' 3'' 3'' 3'' 3'' 3'' 3'' 3'' 3'' 3'' 3'' 3''                                     4(( 4(( 4(( DP\4(( DP\4(( DP\4(( DP\4(( DP\4(( DP\4(( DP\4(( DP\4(( DP\4(( DP\4(( DP\4(( DP\4(( DP\4(( DP\4(( DP\4(( DP\4(( DP\4(( DP\4(( DP\4(( DP\4(( DP\4(( DP\4(( DP\4(( DP\4(( DP\4(( DP\4(( DP\4(( DP\4(( DP\4(( DP\4(( DP\4(( DP\4(( DP\4(( DP\4(( DP\4(( DP\4(( DP\4(( DP\4(( DP\4(( DP\4(( DP\4(( DP\4(( DP\4(( DP\4(( DP\4(( DP\4(( DP\4(( DP\4(( DP\4(( DP\4(( DP\4(( DP\4(( DP\4(( DP\4(( DP\4(( DP\4(( DP\4(( DP\4(( DP\4(( DP\4(( DP\4(( DP\4(( DP\4(( DP\4(( DP\4(( DP\4(( DP\4(( DP\4(( DP\4(( DP\4(( DP\4(( DP\4(( DP\4(( DP\4(( DP\4(( DP\4(( DP\4(( DP\4(( DP\4(( DP\4(( DP\4(( DP\4(( DP\4(( DP\4(( DP\4(( DP\4(( DP\4(( DP\4(( DP\4(( DP\4(( DP\4(( DP\4(( DP\4(( DP\4(( DP\4(( DP\4(( DP\4(( DP\4(( DP\4(( DP\4(( DP\4(( DP\4(( DP\4(( DP\4(( DP\4(( DP\4(( DP\4(( DP\4(( DP\4(( DP\4(( DP\4(( DP\4(( DP\4(( DP\4(( DP\4(( DP\4(( DP\4(( DP\4(( DP\4(( DP\4(( DP\4(( DP\4(( 4(( 4(( 4(( GS_4(( GS_4(( GS_4(( GPS\_h4(( GPS\_h4(( GPS\_h4(( GPS\_h4(( GPS\_h4(( GPS\_h4(( GPS\_h4(( GPS\_h4(( GPS\_h4(( GPS\_h4(( GPS\_h4(( GPS\_h4(( GPS\_h4(( GPS\_h4(( GPS\_h4(( GPS\_h4(( GPS\_h4(( GPS\_h4(( GPS\_h4(( GPS\_h4(( GPS\_h4(( GPS\_h4(( GPS\_h4(( GPS\_h4(( GPS\_h4(( GPS\_h4(( GPS\_h4(( GPS\_h4(( GPS\_h4(( GPS\_h4(( GPS\_h4(( GPS\_h4(( GPS\_h4(( GPS\_h4(( GPS\_h4(( GPS\_h4(( GPS\_h4(( GPS\_h4(( GPS\_h4(( GPS\_h4(( GPS\_h4(( GPS\_h4(( GPS\_h4(( GPS\_h4(( GPS\_h4(( GPS\_h4(( GPS\_h4(( GPS\_h4(( GPS\_h4(( GPS\_h4(( GPS\_h4(( GPS\_h4(( GPS\_h4(( GPS\_h4(( GPS\_h4(( GPS\_h4(( GPS\_h4(( GPS\_h4(( GPS\_h4(( GPS\_h4(( GPS\_h4(( GPS\_h4(( GPS\_h4(( GPS\_h4(( GPS\_h4(( GPS\_h4(( GPS\_h4(( GPS\_h4(( GPS\_h4(( GPS\_h4(( GPS\_h4(( GPS\_h4(( GPS\_h4(( GPS\_h4(( GPS\_h4(( GPS\_h4(( GPS\_h4(( GPS\_h4(( GPS\_h4(( GPS\_h4(( GPS\_h4(( GPS\_h4(( GPS\_h4(( GPS\_h4(( GPS\_h4(( GPS\_h4(( GPS\_h4(( GPS\_h4(( GPS\_h4(( GPS\_h4(( GPS\_h4(( GPS\_h4(( GPS\_h4(( GPS\_h4(( P\h4(( P\h4(( P\h4(( P\h4(( P\h4(( P\h4(( 4(( 4(( 4(( 4(( 4(( 4(( 4(( 4(( 4(( 4(( Q]i4(( Q]i4(( QE]Qi]4(( QE]Qi]4(( QE]Qi]4(( QE]Qi]4(( QE]Qi]4(( QE]Qi]4(( QE]Qi]4(( QE]Qi]4(( QE]Qi]4(( QE]Qi]4(( QE]Qi]4(( QE]Qi]4(( QE]Qi]4(( QE]Qi]4(( QE]Qi]4(( QE]Qi]4(( QE]Qi]4(( QE]Qi]4(( QE]Qi]4(( QE]Qi]4(( QE]Qi]4(( QE]Qi]4(( QE]Qi]4(( QE]Qi]4(( QE]Qi]4(( QE]Qi]4(( QE]Qi]4(( QE]Qi]4(( QE]Qi]4(( QE]Qi]4(( QE]Qi]4(( QE]Qi]4(( QE]Qi]4(( EQ]4(( EQ]4(( EQ]4(( EQ]4(( EQ]4(( EQ]4(( EQ]4(( EQ]4(( EQ]4(( EQ]4(( EQ]4(( EQ]4(( EQ]4(( EQ]4(( EQ]4(( EQ]4(( EQ]4(( EQ]4(( EQ]4(( EQ]4(( EQ]4(( EQ]4(( 4(( 4(( 4(( 4(( 4(( 4(( 4(( 4(( 4(( 4(( 4(( 4(( 4(( 4(( 4(( 4(( 4(( 4(( 4(( 4(( 4(( 4(( 4(( 4(( 4(( 4(( 4(( 4(( 4(( 4(( 4(( 4(( 4(( 4(( 4(( 4(( 4(( 4(( 4(( 4(( 4(( 4(( 4(( 4(( 4(( 4(( 4(( 4(( 4(( 4(( 4(( 4(( 4(( 4(( 4(( DP\4(( DP\4(( DP\4(( DP\4(( DSP_\k4(( DSP_\k4(( DSP_\k4(( DSP_\k4(( DSP_\k4(( DSP_\k4(( DSP_\k4(( DSP_\k4(( DSP_\k4(( DSP_\k4(( DSP_\k4(( DSP_\k4(( DSP_\k4(( DSP_\k4(( DSP_\k4(( DSP_\k4(( DSP_\k4(( DSP_\k4(( DSP_\k4(( DSP_\k4(( DSP_\k4(( DSP_\k4(( DSP_\k4(( DSP_\k4(( DSP_\k4(( DSP_\k4(( DSP_\k4(( DSP_\k4(( DSP_\k4(( DSP_\k4(( DSP_\k4(( DSP_\k4(( DSP_\k4(( DSP_\k4(( DSP_\k4(( DSP_\k4(( DSP_\k4(( DSP_\k4(( DSP_\k4(( DSP_\k4(( DSP_\k4(( DSP_\k4(( DSP_\k4(( DSP_\k4(( DSP_\k4(( DSP_\k4(( DSP_\k4(( DSP_\k4(( DSP_\k4(( DSP_\k4(( DSP_\k4(( DSP_\k4(( DSP_\k4(( DSP_\k4(( DSP_\k4(( DSP_\k4(( DSP_\k4(( DSP_\k4(( DSP_\k4(( DSP_\k4(( DSP_\k4(( DSP_\k4(( DSP_\k4(( DSP_\k4(( DSP_\k4(( DSP_\k4(( DSP_\k4(( DSP_\k4(( DSP_\k4(( DSP_\k4(( DSP_\k4(( DSP_\k4(( DSP_\k4(( DSP_\k4(( DSP_\k4(( DSP_\k4(( DSP_\k4(( DSP_\k4(( DSP_\k4(( DSP_\k4(( DSP_\k4(( DSP_\k4(( DSP_\k4(( DSP_\k4(( DSP_\k4(( DSP_\k4(( DSP_\k4(( DSP_\k4(( DSP_\k4(( DSP_\k4(( DSP_\k4(( DSP_\k4(( DSP_\k4(( DSP_\k4(( DSP_\k4(( DSP_\k4(( DSP_\k4(( DSP_\k4(( DSP_\k4(( DSP_\k4(( DSP_\k4(( DSP_\k4(( DSP_\k4(( DSP_\k4(( DSP_\k4(( DSP_\k4(( DSP_\k4(( DSP_\k4(( DSP_\k4(( DSP_\k4(( DSP_\k4(( DSP_\k4(( DSP_\k4(( DSEP_Q\k]4(( DSEP_Q\k]4(( DSEP_Q\k]4(( SE_Qk]4(( SE_Qk]4(( SE_Qk]4(( SE_Qk]4(( SE_Qk]4(( SE_Qk]4(( SE_Qk]4(( ELQX]d4(( ELQX]d4(( ELQX]d4(( ELQX]d4(( ELQX]d4(( ELQX]d4(( ELQX]d4(( ELQX]d4(( ELQX]d4(( ELQX]d4(( ELQX]d4(( ELQX]d4(( ELQX]d4(( ELQX]d4(( ELQX]d4(( ELQX]d4(( ELQX]d4(( ELQX]d4(( ELQX]d4(( ELQX]d4(( ELQX]d4(( ELQX]d4(( ELQX]d4(( ELQX]d4(( ELQX]d4(( ELQX]d4(( ELQX]d4(( ELQX]d4(( ELQX]d4(( ELQX]d4(( ELQX]d4(( ELQX]d4(( ELQX]d4(( ELQX]d4(( ELQX]d4(( ELQX]d4(( ELQX]d4(( ELQX]d4(( ELQX]d4(( ELQX]d4(( ELQX]d4(( ELQX]d4(( ELQX]d4(( ELQX]d4(( ELQX]d4(( ELQX]d4(( ELQX]d4(( ELQX]d4(( ELQX]d4(( ELQX]d4(( ELQX]d4(( ELQX]d4(( ELQX]d4(( ELQX]d4(( ELQX]d4(( ELQX]d4(( ELQX]d4(( ELQX]d4(( ELQX]d4(( ELQX]d4(( ELQX]d4(( ELQX]d4(( 4(( 4(( 4(( 4(( 4(( 4(( 4(( 4(( 4(( 4(( 4(( 4(( 4(( 4(( 4(( 4(( 4(( 4(( 4(( 4(( 4(( 4(( 4(( 4(( 4(( 4(( 4(( 4(( 4(( 4(( 4(( 4(( 4(( 4(( 4(( 4(( 4(( 4(( 4(( 4(( 4(( 4(( 4((  GS_ GS_ GS_ GS_ GS_ GS_ GS_ GS_ GS_ GS_ GS_ GS_ GJSV_b GJSV_b GJSV_b GJSV_b GJSV_b GJSV_b GJSV_b GJSV_b GJSV_b GJSV_b GJSV_b GJSV_b GJSV_b GJSV_b GJSV_b GJSV_b GJSV_b GJSV_b GJSV_b GJSV_b GJSV_b GJSV_b GJSV_b GJSV_b GJSV_b GJSV_b GJSV_b GJSV_b GJSV_b GJSV_b GJSV_b GJSV_b GJSV_b GJSV_b GJSV_b GJSV_b GJSV_b GJSV_b GJSV_b GJSV_b GJSV_b GJSV_b GJSV_b GJSV_b GJSV_b GJSV_b GJSV_b GJSV_b GJSV_b GJSV_b GJSV_b GJSV_b GJSV_b GJSV_b GJSV_b GJSV_b GJSV_b GJSV_b GJSV_b GJSV_b GJSV_b GJSV_b GJSV_b JVb JVb JVb JVb JVb JVb JVb JVb JVb JVb JVb JVb JVb JVb JVb JVb JVb JVb                              EQ] EQ]4(( EQ]4(( EQ]4(( EQ]4(( EQ]4(( EQ]4(( EQ]4(( EQ]4(( EQ]4(( EIQU]a4(( EIQU]a4(( EIQU]a4(( EIQU]a4(( EIQU]a4(( EIQU]a4(( EIQU]a4(( EIQU]a4(( EIQU]a4(( EIQU]a4(( EIQU]a4(( EIQU]a4(( EIQU]a4(( EIQU]a4(( EIQU]a4(( EIQU]a4(( EIQU]a4(( EIQU]a4(( EIQU]a4(( EIQU]a4(( EIQU]a4(( EIQU]a4(( EIQU]a4(( EIQU]a4(( EIQU]a4(( EIQU]a4(( EIQU]a4(( EIQU]a4(( EIQU]a4(( EIQU]a4(( EIQU]a4(( EIQU]a4(( EIQU]a4(( EIQU]a4(( EIQU]a4(( EIQU]a4(( EIQU]a4(( EIQU]a4(( EIQU]a4(( EIQU]a4(( EIQU]a4(( EIQU]a4(( EIQU]a4(( EIQU]a4(( EIQU]a4(( EIQU]a4(( EIQU]a4(( EIQU]a4(( EIQU]a4(( EIQU]a4(( EIQU]a4(( EIQU]a4(( EIQU]a4(( EIQU]a4(( EIQU]a4(( EIQU]a4(( EIQU]a4(( EIQU]a4(( EIQU]a4(( EIQU]a4(( EIQU]a4(( EIQU]a4(( EIQU]a4(( EIQU]a4(( EIQU]a4(( EIQU]a4(( EIQU]a4(( EIQU]a4(( EIQU]a4(( EIQU]a4(( EIQU]a4(( EIQU]a4(( EIQU]a4(( EIQU]a4(( EIQU]a4(( EIQU]a4(( EIQU]a4(( EIQU]a4(( EIQU]a4(( EIQU]a4(( EIQU]a4(( EIQU]a4(( EIQU]a4(( EIQU]a4(( EIQU]a4(( EIQU]a4(( EIQU]a4(( EIQU]a4(( EIQU]a4(( EIQU]a4(( EIQU]a4(( EIQU]a4(( EIQU]a4(( EIQU]a4(( EIQU]a4(( EIQU]a4(( EIQU]a4(( EIQU]a4(( EIQU]a4(( EIQU]a4(( EIQU]a4(( EIQU]a4(( EIQU]a4(( EIQU]a4(( EIQU]a4(( EIQU]a4(( EIQU]a4(( EIQU]a4(( EIQU]a4(( EIQU]a4(( EIQU]a4(( EIQU]a4(( EIQU]a4(( EIQU]a4(( EIQU]a4(( EIQU]a4(( EIQU]a4(( EIQU]a4(( EIGQUS]a_4(( EIGQUS]a_4(( EIGQUS]a_4(( EIGQUS]a_4(( EIGQUS]a_4(( EIGQUS]a_4(( EIGQUS]a_4(( IKGUWSac_4(( IKGUWSac_4(( IKGUWSac_4(( IKGUWSac_4(( IKGUWSac_4(( IKGUWSac_4(( IKGUWSac_4(( IKGUWSac_4(( IKGUWSac_4(( KGWSc_4(( KGWSc_4(( KGWSc_4(( KGWSc_4(( KGWSc_4(( KGWSc_4(( KGWSc_4(( KGWSc_4(( KGWSc_4(( KGWSc_4(( KGWSc_4(( KGWSc_4(( KGWSc_4(( KGWSc_4(( KGWSc_4(( KGWSc_4(( KGWSc_4(( KGWSc_4(( KGWSc_4(( KGWSc_4(( KGWSc_4(( KGWSc_4(( KGWSc_4(( KGWSc_4(( KGWSc_4(( KGWSc_4(( KGWSc_4(( KGWSc_4(( KGWSc_4(( KGWSc_4(( KGWSc_4(( KGWSc_4(( KGWSc_4(( KGWSc_4(( KGWSc_4(( KGWSc_4(( KGWSc_4(( KGWSc_4(( KGWSc_4(( KGWSc_4(( KGWSc_4(( KGWSc_4(( KGWSc_4(( KGWSc_4(( KGWSc_4(( KGWSc_4(( KGWSc_4(( KGWSc_4(( KGWSc_4(( KGWSc_4(( KGWSc_4(( KGWSc_4(( KGWSc_4(( KGWSc_4(( KGWSc_4(( KGWSc_4(( GS_4(( GS_4(( GS_4(( GS_4(( GS_4(( GS_4(( GS_4(( GS_4(( 4(( 4(( 4(( 4(( 4(( 4(( 4(( 4(( 4(( 4(( 4(( 4(( 4(( 4(( 4(( 4(( 4(( 4(( 4(( 4(( 4(( 4(( 4(( 4(( 4(( 4(( 4(( 4(( 4(( 4(( 4(( 4(( 4(( 4(( 4(( 4(( DP\4(( DP\4(( DP\4(( DP\4(( DP\4(( DP\4(( DP\4(( DP\4(( DP\4(( DP\4(( DP\4(( LDXPd\4(( LDXPd\ LDXPd\ LDXPd\ LDXPd\ LDXPd\ LDXPd\ LDXPd\ LDXPd\ LDXPd\ LDXPd\ LDXPd\ LDXPd\ LDXPd\ LDXPd\ LDXPd\ LDXPd\ LDXPd\ LDXPd\ LDXPd\ LDXPd\ LDXPd\ LDXPd\ LDXPd\ LDXPd\ LDXPd\ LDXPd\ LDXPd\ LDXPd\ LDXPd\ LDXPd\ LDXPd\ LDXPd\ LDXPd\ LDXPd\ LDXPd\ LDXPd\ LDXPd\ LDXPd\ LDXPd\ LDXPd\ LDXPd\ LDXPd\ LDXPd\ LDXPd\ LDXPd\ LDXPd\ LDXPd\ LDXPd\ LDXPd\ LDXPd\ LDXPd\ LDXPd\ LDXPd\ LDXPd\ LDXPd\ LDXPd\ LDXPd\ LDXPd\ LDXPd\ LDXPd\ LDXPd\ LDXPd\ DP\ DP\ DP\ DP\ DP\ DP\ DP\ DP\ DP\ DP\ DP\                              6** 6** 6** 6** 6** 6** 6** 6** 6** 6** 6** 6** 6** 6** 6** 6** 6** 6** KWc6** KEWQc]6** KEWQc]6** KEWQc]6** KEWQc]6** KEWQc]6** KEWQc]6** KEWQc]6** KEWQc]6** KEWQc]6** KEWQc]6** KEWQc]6** KEWQc]6** KEWQc]6** KEWQc]6** KEWQc]6** KEWQc]6** KEWQc]6** KEWQc]6** KEWQc]6** KEWQc]6** KEWQc]6** KEWQc]6** KEWQc]6** KEWQc]6** KEWQc]6** KEWQc]6** KEWQc]6** KEWQc]6** KEWQc]6** KEWQc]6** KEWQc]6** KEWQc]6** KEWQc]6** KEWQc]6** KEWQc]6** KEWQc]6** KEWQc]6** KEWQc]6** KEWQc]6** KEWQc]6** KEWQc]6** KEWQc]6** KEWQc]6** KEWQc]6** KEWQc]6** KEWQc]6** KEWQc]6** KEWQc]6** KEWQc]6** KEWQc]6** KEWQc]6** KEWQc]6** KEWQc]6** KEWQc]6** KEWQc]6** KEWQc]6** KEWQc]6** KEWQc]6** KEWQc]6** KEWQc]6** KEWQc]6** KEWQc]6** KEWQc]6** KEWQc]6** KEWQc]6** KEWQc]6** KEWQc]6** KEWQc]6** KEWQc]6** KEWQc]6** KEWQc]6** KEWQc]6** KEWQc]6** KEWQc]6** KEWQc]6** KEWQc]6** KEWQc]6** KEWQc]6** KEWQc]6** KEWQc]6** KEWQc]6** KEWQc]6** KEWQc]6** KEWQc]6** KEWQc]6** KEWQc]6** KEWQc]6** KEWQc]6** KEWQc]6** KEWQc]6** KEWQc]6** KEWQc]6** KEWQc]6** KEWQc]6** KEWQc]6** KEWQc]6** KEWQc]6** KEWQc]6** KEWQc]6** KEWQc]6** KEWQc]6** KEWQc]6** KEWQc]6** KEWQc]6** KEWQc]6** KEWQc]6** KEWQc]6** KEWQc]6** KEWQc]6** KEWQc]6** KEWQc]6** KEWQc]6** KEWQc]6** KEWQc]6** KEWQc]6** KEWQc]6** KEWQc]6** KEWQc]6** KEWQc]6** KEWQc]6** KEWQc]6** KEWQc]6** KEWQc]6** KEWQc]6** KNEWZQcf]6** KNEWZQcf]6** KNEWZQcf]6** KN?EWZKQcfW]6** KN?EWZKQcfW]6** N?EZKQfW]6** N?EZKQfW]6** N?EZKQfW]6** N?EZKQfW]6** N?EZKQfW]6** N?EZKQfW]6** N?EZKQfW]6** N?EZKQfW]6** N?EZKQfW]6** N?EZKQfW]6** N?EZKQfW]6** N?EZKQfW]6** N?EZKQfW]6** N?EZKQfW]6** N?EZKQfW]6** N?EZKQfW]6** N?EZKQfW]6** N?EZKQfW]6** N?EZKQfW]6** N?EZKQfW]6** N?EZKQfW]6** N?EZKQfW]6** N?EZKQfW]6** N?EZKQfW]6** N?EZKQfW]6** N?EZKQfW]6** N?EZKQfW]6** N?EZKQfW]6** N?EZKQfW]6** N?EZKQfW]6** N?EZKQfW]6** N?EZKQfW]6** N?EZKQfW]6** N?EZKQfW]6** N?EZKQfW]6** N?EZKQfW]6** N?EZKQfW]6** N?EZKQfW]6** N?EZKQfW]6** N?EZKQfW]6** N?EZKQfW]6** N?EZKQfW]6** N?EZKQfW]6** N?EZKQfW]6** N?EZKQfW]6** N?EZKQfW]6** N?EZKQfW]6** N?EZKQfW]6** N?EZKQfW]6** N?EZKQfW]6** N?EZKQfW]6** N?EZKQfW]6** N?EZKQfW]6** N?EZKQfW]6** ?EKQW]6** ?EKQW]6** ?EKQW]6** ?EKQW]6** EQ]6** EQ]6** EQ]6** EQ]6** EQ]6** EQ]6** EQ]6** EQ]6** EQ]6** EQ]6** EQ]6** EQ]6** EQ]6** EQ]6** EQ]6** EQ]6** EQ]6** EQ]6** EQ]6** EQ]6** EQ]6** EQ]6** EQ]6** EQ]6** EQ]6** EQ]6** EQ]6** EQ]6** EQ]6** EQ]6** EQ]6** EQ]6** EQ]6** EQ]6** EQ]6** EQ]6** EQ]6** EQ]6** EQ]6** EQ]6** EQ]6** EQ]6** EQ]6** EQ]6** EQ]6** EQ]6** EQ]6** @ELQX]6** @ELQX]6** @ELQX]6** L@EXLQdX]6** L@EXLQdX]6** L@EXLQdX]6** L@EXLQdX]6** L@EXLQdX]6** L@EXLQdX]6** L@EXLQdX]6** L@EXLQdX]6** L@EXLQdX]6** L@EXLQdX]6** L@EXLQdX]6** L@EXLQdX]6** L@EXLQdX]6** L@EXLQdX]6** L@EXLQdX]6** L@EXLQdX]6** L@EXLQdX]6** L@EXLQdX]6** L@EXLQdX]6** L@EXLQdX]6** L@EXLQdX]6** L@EXLQdX]6** L@EXLQdX]6** L@EXLQdX]6** L@EXLQdX]6** L@EXLQdX]6** L@EXLQdX]6** L@EXLQdX]6** L@EXLQdX]6** L@EXLQdX]6** L@EXLQdX]6** L@EXLQdX]6** L@EXLQdX]6** L@EXLQdX]6** L@EXLQdX]6** L@EXLQdX]6** @ELQX]6** @ELQX]6** @ELQX]6** @ELQX]6** @ELQX]6** @ELQX]6** @ELQX]6** @ELQX]6** @ELQX]6** @ELQX]6** @ELQX]6** @ELQX]6** @ELQX]6** @ELQX]6** @ELQX]6** @ELQX]6** @ELQX]6** @ELQX]6** @ELQX]6** EQ]6** EQ]6** EQ]6** EQ]6** EQ]6** EQ]6** EQ]6** EQ]6** EQ]6** EQ]6** EQ]6** EQ]6** EQ]6** EQ]6** EQ]6** EQ]6** EQ]6** EQ]6** EQ]6** EQ]6** EQ]6** EQ]6** EQ]6** EQ]6** EQ]6** EQ]6** EQ]6** EQ]6** EQ]6** EQ]6** EQ]6** EQ]6** EQ]6** EQ]6** EQ]6** EQ]6** EQ]6** EQ]6** EQ]6** EQ]6** EQ]6** EQ]6** EQ]6** EQ]6** EQ]6** EQ]6** EQ]6** EQ]6** EQ]6** EQ]6** EQ]6** EQ]6** EQ]6** EQ]6** EQ]6** EQ]6** EQ]6** EQ]6** EQ]6** BENQZ]6** BENQZ]6** BENQZ]6** BENQZ]6** BKENWQZc]6** BKENWQZc]6** BKENWQZc]6** BKENWQZc]6** BKENWQZc]6** BKENWQZc]6** BKENWQZc]6** BKENWQZc]6** BKENWQZc]6** BKENWQZc]6** BKENWQZc]6** BKENWQZc]6** BKENWQZc]6** BKENWQZc]6** BKENWQZc]6** BKENWQZc]6** BKENWQZc]6** BKENWQZc]6** BKENWQZc]6** BKENWQZc]6** BKENWQZc]6** BKENWQZc]6** BKENWQZc]6** BKENWQZc]6** BKENWQZc]6** BKENWQZc]6** BKENWQZc]6** BKENWQZc]6** BKENWQZc]6** BKENWQZc]6** BKENWQZc]6** BKENWQZc]6** BKENWQZc]6** BKENWQZc]6** BKENWQZc]6** BKENWQZc]6** BKENWQZc]6** BKENWQZc]6** BKENWQZc]6** BKENWQZc]6** BKENWQZc]6** BKENWQZc]6** BKENWQZc]6** BKENWQZc]6** BKENWQZc]6** BKENWQZc]6** BKENWQZc]6** BKENWQZc]6** BKENWQZc]6** BKENWQZc]6** BKENWQZc]6** BKENWQZc]6** BKENWQZc]6** BKENWQZc]6** BKENWQZc]6** BKENWQZc]6** BKENWQZc]6** BKENWQZc]6** BKENWQZc]6** BKENWQZc]6** BKENWQZc]6** BKENWQZc]6** BKENWQZc]6** BKENWQZc]6** BKENWQZc]6** BKENWQZc]6** BKENWQZc]6** BKENWQZc]6** BKENWQZc]6** BKENWQZc]6** BKENWQZc]6** BKENWQZc]6** BKENWQZc]6** BKENWQZc]6** BKENWQZc]6** BKENWQZc]6** BKENWQZc]6** BKENWQZc]6** BKENWQZc]6** BKENWQZc]6** BKENWQZc]6** BKENWQZc]6** BKENWQZc]6** BKENWQZc]6** BKENWQZc]6** BKENWQZc]6** BKENWQZc]6** BKENWQZc]6** BKENWQZc]6** BKENWQZc]6** BKENWQZc]6** BKENWQZc]6** BKENWQZc]6** BKENWQZc]6** BKENWQZc]6** BKENWQZc]6** BKENWQZc]6** BKENWQZc]6** BKENWQZc]6** KEWQc]6** KEWQc]6** KEWQc]6** KEWQc]6** KEWQc]6** KEWQc]6** KEWQc]6** KEWQc]6** KEWQc]6** KEWQc]6** KEWQc]6** KEWQc]6** KEWQc]6** KEWQc]6** KEWQc]6** KEWQc]6** KEWQc]6** KEWQc]6** KEWQc]6** KEWQc]6** KEWQc]6** KEWQc]6** KE9WQEc]Q6** KE9BWQENc]QZ6** KE9BWQENc]QZ6** KE9BWQENc]QZ6** KE9BWQENc]QZ6** KE9BWQENc]QZ6** KE9BWQENc]QZ6** KE9BWQENc]QZ6** KE9BWQENc]QZ6** KE9BWQENc]QZ6** KE9BWQENc]QZ6** KE9BWQENc]QZ6** KE9BWQENc]QZ6** KE9BWQENc]QZ6** KE9BWQENc]QZ6** KE9BWQENc]QZ6** KE9BWQENc]QZ6** KE9BWQENc]QZ6** KE9BWQENc]QZ6** E9BQEN]QZ6** E9BQEN]QZ6** E9BQEN]QZ6** E9BQEN]QZ6** E9BQEN]QZ6** E9BQEN]QZ6** E9BQEN]QZ6** E9BQEN]QZ6** E9BQEN]QZ6** 9BENQZ6** 9BENQZ6** 9BENQZ6** 9BENQZ6** 9BENQZ6** 9BENQZ6** 9BENQZ6** 9BENQZ6** 9BENQZ6** 9BENQZ6** 9BENQZ6** 9BENQZ6** 9BENQZ6** 9BENQZ6** 9BENQZ6** 9BENQZ6** 9BENQZ6** 9BENQZ6** 9BENQZ6** 9BENQZ6** 9BENQZ6** 9BENQZ6** 9BENQZ6** 9BENQZ6** 9BENQZ6** 9BENQZ6** 9BENQZ6** 9BENQZ6** BNZ6** BNZ6** BNZ6** BNZ6** BNZ6** BNZ6** BNZ6** BNZ6** BNZ6** BNZ6** BNZ6** BNZ6** BNZ6** BNZ6** BNZ6** BNZ6** BNZ6** BNZ6** BNZ6** BNZ6** BNZ6** BNZ6** BNZ6** BNZ6** BNZ6** BNZ6** BNZ6** BNZ6** BNZ6** BNZ6** BNZ6** BNZ6** BNZ6** BNZ6** BNZ6** BNZ6** BNZ6** BNZ6** BNZ6** BNZ6** BNZ6** BNZ6** BNZ6** BNZ6** BNZ6** BNZ6** BNZ6** BNZ6** BNZ6** BNZ6** BNZ6** BNZ6** BNZ6** BNZ6** BNZ6** BNZ6** BNZ6** BNZ6** BLNXZd6** LXd6** LDXPd\6** L8DXDPdP\6** L8DXDPdP\6** L8DXDPdP\6** L8DXDPdP\6** L8DXDPdP\6** L8DXDPdP\6** L8DXDPdP\6** L8DXDPdP\6** L8DXDPdP\6** L8DXDPdP\6** L8DXDPdP\6** L8DXDPdP\6** L8DXDPdP\6** L8DXDPdP\6** L8DXDPdP\6** L8DXDPdP\6** L8DXDPdP\6** L8DXDPdP\6** L8DXDPdP\6** L8DXDPdP\6** L8DXDPdP\6** L8DXDPdP\6** L8DXDPdP\6** L8DXDPdP\6** L8DXDPdP\6** L8DXDPdP\6** L8DXDPdP\6** L8DXDPdP\6** L8DXDPdP\6** L8DXDPdP\6** L8DXDPdP\6** L8DXDPdP\6** L8DXDPdP\6** L8DXDPdP\6** 8DDPP\6** 8DDPP\6** 8DDPP\6** 8DDPP\6** 8DDPP\6** 8DDPP\6** 8DDPP\6** 8DDPP\6** 8DDPP\6** 8DDPP\6** 8DDPP\6** 8DDPP\6** 8DDPP\6** 8DDPP\6** 8DDPP\6** 8DDPP\6** 8DDPP\6** 8DDPP\6** 8DDPP\6** 8DDPP\6** 8DDPP\6** 8DDPP\6** 8DDPP\6** 8DDPP\6** 8DDPP\6** DP\6** DP\6** DP\6** DP\6** DP\6** DP\6** DP\6** DP\6** DP\6** DP\6** DP\6** DP\6** DP\6** DP\6** DP\6** DP\6** DP\6** DP\6** DP\6** DP\6** DP\6** DP\6** DP\6** DP\6** DP\6** DP\6** DP\6** DP\6** DP\6** DP\6** DP\6** DP\6** DP\6** DP\6** DP\6** 6** 6** 6** 6** 6** 6** 6** 6** 6** 6** 6** 6** 6** 6** 6** 6** 6** 6** 6** 6** 6** 6** 6** 6** 6BN6** 6BN6** 6BN6** 6BN6** 6BN6** 6BN6** 6BN6** 6BN6** 6LBXNd6** 6ELBQXN]d6** 6ELBQXN]d6** 6ELBQXN]d6** 6ELBQXN]d6** 6ELBQXN]d6** 6ELBQXN]d6** 6ELBQXN]d6** 6ELBQXN]d6** 6ELBQXN]d6** 6ELBQXN]d6** 6ELBQXN]d6** 6ELBQXN]d6** 6ELBQXN]d6** 6ELBQXN]d6** 6ELBQXN]d6** 6ELBQXN]d6** 6ELBQXN]d6** 6ELBQXN]d6** 6ELBQXN]d6** 6ELBQXN]d6** 6ELBQXN]d6** 6ELBQXN]d6** 6ELBQXN]d6** 6ELBQXN]d6** 6ELBQXN]d6** 6ELBQXN]d6** 6ELBQXN]d6** 6ELBQXN]d6** 6ELBQXN]d6** 6ELBQXN]d6** 6ELBQXN]d6** 6ELBQXN]d6** 6ELBQXN]d6** 6ELBQXN]d6** 6ELBQXN]d6** 6ELBQXN]d6** 6ELBQXN]d6** 6ELBQXN]d6** 6ELBQXN]d6** 6ELBQXN]d6** 6ELBQXN]d6** 6ELBQXN]d6** 6ELBQXN]d6** 6ELBQXN]d6** 6ELBQXN]d6** 6ELBQXN]d6** 6ELBQXN]d6** 6ELBQXN]d6** 6ELBQXN]d6** 6ELBQXN]d6** 6ELBQXN]d6** 6ELBQXN]d6** 6ELBQXN]d6** 6ELBQXN]d6** 6ELBQXN]d6** 6ELBQXN]d6** 6ELBQXN]d6** 6ELBQXN]d6** 6ELBQXN]d6** 6ELBQXN]d6** 6ELBQXN]d6** 6ELBQXN]d6** 6ELBQXN]d6** 6ELBQXN]d6** 6ELBQXN]d6** 6ELBQXN]d6** 6ELBQXN]d6** 6ELBQXN]d6** 6ELBQXN]d6** 6ELBQXN]d6** 6ELBQXN]d6** 6ELBQXN]d6** 6ELBQXN]d6** 6ELBQXN]d6** 6ELBQXN]d6** 6ELBQXN]d6** 6ELBQXN]d6** 6ELBQXN]d6** 6ELBQXN]d6** 6ELBQXN]d6** 6ELBQXN]d6** 6ELBQXN]d6** 6ELBQXN]d6** 6ELBQXN]d6** 6ELBQXN]d6** 6ELBQXN]d6** 6ELBQXN]d6** 6ELBQXN]d6** 6ELBQXN]d6** 6ELBQXN]d6** 6ELBQXN]d6** 6ELBQXN]d6** 6ELBQXN]d6** 6ELBQXN]d6** 6ELBQXN]d6** 6ELBQXN]d6** 6ELBQXN]d6** 6ELBQXN]d6** 6ELBQXN]d6** 6ELBQXN]d6** 6ELBQXN]d6** 6ELBQXN]d6** 6ELBQXN]d6** 6ELBQXN]d6** 6ELBQXN]d6** 6ELBQXN]d6** 6ELBQXN]d6** 6ELBQXN]d6** 6ELBQXN]d6** 6ELBQXN]d6** 6EL8BQXDN]dP6** 6EL8BQXDN]dP6** 6EL8BQXDN]dP6** 6EL8BQXDN]dP6** 6EL8BQXDN]dP6** 6EL8BQXDN]dP6** 6EL8BQXDN]dP6** 6EL8DBQXDPN]dP\6** 6EL8DBQXDPN]dP\6** 6EL8DBQXDPN]dP\6** 6EL8DBQXDPN]dP\6** EL8DQXDP]dP\6** EL8DQXDP]dP\6** EL8DQXDP]dP\6** EL8DQXDP]dP\6** L8DXDPdP\6** L8DXDPdP\6** L8DXDPdP\6** L8DXDPdP\6** L8DXDPdP\6** L8DXDPdP\6** L8DXDPdP\6** L8DXDPdP\6** L8DXDPdP\6** L8DXDPdP\6** L8DXDPdP\6** L8DXDPdP\6** L8DXDPdP\6** L8DXDPdP\6** L8DXDPdP\6** L8DXDPdP\6** L8DXDPdP\6** L8DXDPdP\6** L8DXDPdP\6** L8DXDPdP\6** L8DXDPdP\6** L8DXDPdP\6** L8DXDPdP\6** L8DXDPdP\6** L8DXDPdP\6** L8DXDPdP\6** L8DXDPdP\6** L8DXDPdP\6** L8DXDPdP\6** L8DXDPdP\6** L8DXDPdP\6** L8DXDPdP\6** L8DXDPdP\6** L8DXDPdP\6** L8DXDPdP\6** L8DXDPdP\6** L8DXDPdP\6** L8DXDPdP\6** L8DXDPdP\6** 8DDPP\6** 8DDPP\6** 8DDPP\6** DP\6** DP\6** DP\6** DP\6** DP\6** DP\6** DP\6** DP\6** DP\6** DP\6** DP\6** DP\6** DP\6** DP\6** DP\6** DP\6** DP\6** DP\6** DP\6** DP\6** DP\6** DP\6** DP\6** DP\6** DP\6** DP\6** DP\6** DP\6** DP\6** DP\6** DP\6** DP\6** DP\6** DP\6** DP\6** DP\6** DP\6** DP\6** DP\6** DP\6** DP\6** DP\6** DP\6** DP\6** DP\6** DP\6** DP\6** DP\6** DP\6** DP\6** DP\6** DP\6** DP\6** DP\6** DP\6** DP\6** DP\6** DP\6** DP\6** DP\6** D9PE\Q6** D9PE\Q6** D9PE\Q6** D9PE\Q6** D9PE\Q6** D9PE\Q6** D9PE\Q6** D9PE\Q6** D9PE\Q6** D9KPEW\Qc6** 9KEWQc6** 9KEWQc6** B9KNEWZQc6** B9KNEWZQc6** B9KNEWZQc6** B9KNEWZQc6** B9KNEWZQc6** B9KNEWZQc6** B9KNEWZQc6** B9KNEWZQc6** B9KNEWZQc6** B9KNEWZQc6** B9KNEWZQc6** B9KNEWZQc6** B9KNEWZQc6** B9KNEWZQc6** B9KNEWZQc6** B9KNEWZQc6** B9KNEWZQc6** B9KNEWZQc6** B9KNEWZQc6** B9KNEWZQc6** B9KNEWZQc6** B9KNEWZQc6** B9KNEWZQc6** B9KNEWZQc6** B9KNEWZQc6** B9KNEWZQc6** B9KNEWZQc6** B9KNEWZQc6** B9KNEWZQc6** B9KNEWZQc6** B9KNEWZQc6** B9KNEWZQc6** B9KNEWZQc6** B9KNEWZQc6** B9KNEWZQc6** B9KNEWZQc6** B9KNEWZQc6** B9KNEWZQc6** B9KNEWZQc6** B9KNEWZQc6** B9KNEWZQc6** B9KNEWZQc6** 9KEWQc6** 9KEWQc6** 9KEWQc6** 9KEWQc6** 9KEWQc6** 9KEWQc6** 9KEWQc6** 9KEWQc6** 9KEWQc6** 9KEWQc6** 9KEWQc6** 9KEWQc6** 9KEWQc6** 9KEWQc6** 9KEWQc 9KEWQc 9KEWQc 9KEWQc 9KEWQc 9KEWQc 9KEWQc 9KEWQc KWc KWc KWc KWc KWc KWc KWc KWc KWc KWc KWc KWc KWc KWc KWc KWc KWc KWc KWc KWc KWc                              8DP 8DP4(( 8DP4(( 8DP4(( 8DP4(( 8DP4(( 8DP4(( 8DP4(( 8DP4(( 8DP4(( 8DP4(( 8GDSP_4(( 8GDSP_4(( 8GDSP_4(( 8GDSP_4(( 8GDSP_4(( 8GDSP_4(( 8GDSP_4(( 8GDSP_4(( 8GDSP_4(( 8GDSP_4(( 8GDSP_4(( 8GDSP_4(( 8GDSP_4(( 8GDSP_4(( 8GDSP_4(( 8GDSP_4(( 8GDSP_4(( 8GDSP_4(( 8GDSP_4(( 8GDSP_4(( 8GDSP_4(( 8GDSP_4(( 8GDSP_4(( 8GDSP_4(( 8GDSP_4(( 8GDSP_4(( 8GDSP_4(( 8GDSP_4(( 8GDSP_4(( 8GDSP_4(( 8GDSP_4(( 8GDSP_4(( 8GDSP_4(( 8GDSP_4(( 8GDSP_4(( 8GDSP_4(( 8GDSP_4(( GS_4(( GS_4(( GS_4(( GS_4(( GS_4(( GS_4(( GS_4(( GS_4(( GS_4(( GS_4(( GS_4(( GS_4(( GS_4(( GS_4(( GS_4(( GS_4(( GS_4(( GS_4(( GS_4(( GS_4(( GS_4(( GS_4(( GS_4(( GS_4(( GS_4(( GS_4(( GS_4(( GS_4(( GS_4(( GS_4(( GS_4(( GS_4(( GS_4(( GS_4(( GS_4(( GS_4(( GS_4(( GS_4(( GS_4(( GS_4(( GS_4(( GS_4(( GS_4(( GS_4(( GS_4(( GS_4(( GS_4(( GS_4(( GS_4(( GS_4(( GS_4(( GS_4(( GS_4(( GS_4(( GS_4(( GS_4(( GS_4(( GS_4(( GS_4(( GS_4(( GS_4(( GS_4(( GS_4(( GS_4(( GS_4(( GS_4(( GS_4(( GS_4(( GS_4(( GS_4(( GS_4(( GS_4(( GS_4(( GS_4(( GS_4(( GS_4(( GS_4(( GS_4(( GS_4(( GS_4(( GS_4(( GS_4(( GS_4(( LGXSd_4(( LGXSd_4(( DLGPXS\d_4(( DLGPXS\d_4(( DLGPXS\d_4(( DLGPXS\d_4(( DLGPXS\d_4(( DLGPXS\d_4(( DLGPXS\d_4(( DLGPXS\d_4(( DLGPXS\d_4(( DLGPXS\d_4(( DLGPXS\d_4(( DLGPXS\d_4(( DLGPXS\d_4(( DLGPXS\d_4(( DLGPXS\d_4(( DLGPXS\d_4(( DLGPXS\d_4(( DLGPXS\d_4(( DLGPXS\d_4(( DLGPXS\d_4(( DLGPXS\d_4(( DLGPXS\d_4(( DLGPXS\d_4(( DLGPXS\d_4(( DLGPXS\d_4(( DLGPXS\d_4(( DLGPXS\d_4(( DLGPXS\d_4(( DLGPXS\d_4(( DLGPXS\d_4(( DLGPXS\d_4(( DLGPXS\d_4(( DLGPXS\d_4(( DLGPXS\d_4(( DLGPXS\d_4(( DLGPXS\d_4(( DLGPXS\d_4(( DLGPXS\d_4(( DLGPXS\d_4(( DLGPXS\d_4(( DLGPXS\d_4(( DLGPXS\d_4(( DLGPXS\d_4(( DLGPXS\d_4(( DLGPXS\d_4(( DLGPXS\d_4(( DLGPXS\d_4(( DLGPXS\d_4(( DLGPXS\d_4(( LGXSd_4(( LGXSd_4(( LGXSd_4(( LGXSd_4(( LGXSd_4(( LGXSd_4(( LGXSd_4(( GS_4(( GS_4(( GS_4(( GS_4(( GS_4(( GS_4(( GS_4(( GS_4(( GS_4(( GS_4(( GS_4(( GS_4(( GS_4(( GS_4(( GS_4(( GS_4(( GS_4(( GS_4(( GS_4(( GS_4(( GS_4(( GS_4(( GS_4(( GS_4(( GS_4(( GS_4(( GS_4(( GS_4(( GS_4(( GS_4(( GS_4(( GS_4(( GS_4(( GS_4(( GS_4(( GS_4(( GS_4(( GS_4(( GS_4(( GS_4(( GS_4(( GS_4(( GS_4(( GS_4(( GS_4(( GS_4(( GS_4(( GS_4(( GS_4(( GS_4(( GS_4(( GS_4(( GS_4(( GS_4(( GESQ_]4(( GESQ_]4(( GESQ_]4(( GESQ_]4(( GESQ_]4(( GESQ_]4(( GESQ_]4(( GESQ_]4(( GNESZQ_f]4(( GNESZQ_f]4(( GNESZQ_f]4(( GNESZQ_f]4(( GNESZQ_f]4(( GNESZQ_f]4(( GNESZQ_f]4(( GNESZQ_f]4(( GNESZQ_f]4(( GNESZQ_f]4(( GNESZQ_f]4(( GNESZQ_f]4(( GNESZQ_f]4(( GNESZQ_f]4(( GNESZQ_f]4(( GNESZQ_f]4(( GNESZQ_f]4(( GNESZQ_f]4(( GNESZQ_f]4(( GNESZQ_f]4(( GNESZQ_f]4(( GNESZQ_f]4(( NEZQf]4(( NEZQf]4(( NEZQf]4(( NEZQf]4(( NEZQf]4(( NEZQf]4(( NEZQf]4(( NEZQf]4(( NEZQf]4(( NEZQf]4(( NEZQf]4(( NEZQf]4(( NEZQf]4(( NEZQf]4(( NEZQf]4(( NEZQf]4(( NEZQf]4(( EQ]4(( EQ]4(( EQ]4(( EQ]4(( EQ]4(( EQ]4(( EQ]4(( EQ]4(( EQ]4(( EQ]4(( EQ]4(( EQ]4(( EQ]4(( EQ]4(( EQ]4(( EQ]4(( EQ]4(( EQ]4(( 4(( 4(( 4(( 4(( 4(( 4(( 4(( 4(( 4(( 4(( 4(( 4(( 4(( 4(( 4(( 4(( 4(( 4(( 4(( 4(( 4(( 4(( 4(( 4(( 4(( 4(( 4(( 4(( 4(( 4(( 4(( 4(( 4(( 4(( 4(( 4(( 4(( 4(( 4(( 4(( 4(( 4(( 4(( 4(( 4(( 4(( 4(( 4(( 4(( 4(( 4(( 4(( 4(( 4(( 4(( 4(( 4(( GS_4(( GS_4(( GS_4(( GS_4(( GS_4(( GS_4(( GS_4(( GS_4(( GPS\_h4(( GPS\_h4(( GPS\_h4(( GPS\_h4(( GPS\_h4(( GPS\_h4(( GPS\_h4(( GPS\_h4(( GPS\_h4(( GPS\_h4(( GPS\_h4(( GPS\_h4(( GPS\_h4(( GPS\_h4(( GPS\_h4(( GPS\_h4(( GPS\_h4(( GPS\_h4(( GPS\_h4(( GPS\_h4(( GPS\_h4(( GPS\_h4(( GPS\_h4(( GPS\_h4(( GPS\_h4(( GPS\_h4(( GPS\_h4(( GPS\_h4(( GPS\_h4(( GPS\_h4(( GPS\_h4(( GPS\_h4(( GPS\_h4(( GPS\_h4(( GPS\_h4(( GPS\_h4(( GPS\_h4(( GPS\_h4(( GPS\_h4(( GPS\_h4(( GPS\_h4(( GPS\_h4(( GPS\_h4(( GPS\_h4(( GPS\_h4(( GPS\_h4(( GPS\_h4(( GPS\_h4(( GPS\_h4(( GPS\_h4(( GPS\_h4(( GPS\_h4(( GPS\_h4(( GPS\_h4(( GPS\_h4(( GPS\_h4(( GPS\_h4(( GPS\_h4(( GPS\_h4(( GPS\_h4(( GPS\_h4(( GPS\_h4(( GPS\_h4(( GPS\_h4(( GPS\_h4(( GPS\_h4(( GPS\_h4(( GPS\_h4(( GPS\_h4(( GPS\_h4(( GPS\_h4(( GPS\_h4(( GPS\_h4(( GPS\_h4(( GPS\_h4(( P\h4(( P\h4(( P\h4(( P\h4(( P\h4(( P\h4(( P\h4(( P\h4(( P\h4(( P\h4(( P\h4(( P\h4(( P\h4(( P\h4(( P\h4(( P\h4(( P\h4(( P\h4(( P\h4(( P\h4(( P\h4(( P\h4(( P\h4(( P\h4(( P\h4(( P\h4(( P\h4(( P\h4(( P\h4(( P\h4(( P\h4(( P\h4(( P>\JhV4(( P>\JhV4(( P>\JhV4(( P>\JhV4(( P>\JhV4(( P>\JhV4(( P>\JhV4(( P>\JhV4(( P>\JhV4(( P>\JhV4(( P>\JhV4(( P>\JhV4(( P>\JhV4(( P>\JhV4(( P>\JhV4(( P>\JhV4(( P>\JhV4(( P>\JhV4(( P>\JhV4(( P>\JhV4(( P>\JhV4(( P>G\JShV_4(( P>G\JShV_4(( P>G\JShV_4(( P>G\JShV_4(( P>G\JShV_4(( P>G\JShV_4(( P>G\JShV_4(( P>G\JShV_4(( P>G\JShV_4(( P>G\JShV_4(( P>G\JShV_4(( P>G\JShV_4(( P>G\JShV_4(( >GJSV_4(( >GJSV_4(( >GJSV_4(( >GJSV_4(( >GJSV_4(( >GJSV_4(( >GJSV_4(( >GJSV_4(( >GJSV_4(( >GJSV_4(( >GJSV_4(( >GJSV_4(( >GJSV_4(( >GJSV_4(( >GJSV_4(( >GJSV_4(( >GJSV_4(( >GJSV_4(( >GJSV_4(( >GJSV_4(( >GJSV_4(( >GJSV_4(( >GJSV_4(( >GJSV_4(( >GJSV_4(( >GJSV_4(( >GJSV_4(( >GJSV_4(( >GJSV_4(( GS_4(( GS_4(( GS_4(( GS_4(( GS_4(( GS_4(( GS_4(( GS_4(( GS_4(( GS_4(( GS_4(( GS_4(( GS_4(( GS_4(( GS_4(( GS_4(( GS_4(( GS_4(( GS_4(( GS_4(( GS_4(( GS_4(( GS_4(( GS_4(( GS_4(( GS_4(( GS_4(( GS_4(( GS_4(( GS_4(( GS_4(( GS_4(( GS_4(( GS_4(( GS_4(( GS_4(( GS_ GS_ GS_ GS_ GS_ GS_ GS_ GS_ GS_ GS_ GS_ GS_ GS_ GS_ GS_ GS_ GS_ GS_ GS_ GS_ GS_ GS_ GS_ GS_ G=SI_U G=SI_U G=SI_U G=SI_U G=SI_U G=SI_U G=SI_U G=SI_U G=SI_U G=SI_U G=SI_U G=SI_U G=SI_U GQ=S]I_iU GQ=S]I_iU GQ=S]I_iU GQ=S]I_iU GQ=IS]IU_iUa GQ=IS]IU_iUa GQ=IS]IU_iUa GQ=IS]IU_iUa GQ=IS]IU_iUa GQ=IS]IU_iUa Q=I]IUiUa Q=I]IUiUa Q=I]IUiUa Q=I]IUiUa Q=I]IUiUa Q=I]IUiUa Q=I]IUiUa Q=I]IUiUa Q=I]IUiUa Q=I]IUiUa Q=I]IUiUa Q=I]IUiUa Q=I]IUiUa Q=I]IUiUa Q=I]IUiUa Q=I]IUiUa Q=I]IUiUa Q=I]IUiUa Q=I]IUiUa Q=I]IUiUa Q=I]IUiUa Q=I]IUiUa Q=I]IUiUa Q=I]IUiUa Q=I]IUiUa Q=I]IUiUa =IIUUa =IIUUa =IIUUa =IIUUa =IIUUa =IIUUa =IIUUa =IIUUa =IIUUa =IIUUa =IIUUa =IIUUa IUa IUa IUa IUa IUa IUa IUa IUa IUa IUa IUa IUa IUa IUa IUa IUa IUa IUa IUa IUa IUa IUa IUa IUa IUa IUa IUa IUa IUa IUa IUa IUa IUa IUa IUa IUa IUa IUa IUa IUa IUa IUa IUa IUa IUa IUa IUa IUa IUa IUa IUa IUa IUa IUa IUa IUa IUa IUa IUa IUa IUa IUa IUa IUa IUa IUa IUa IUa IUa IUa I;UGaS I;UGaS I;UGaS I;UGaS I;UGaS I;UGaS I;UGaS4(( I;UGaS4(( I;UGaS4(( I;UGaS4(( I;UGaS4(( I;UGaS4(( I;QUG]aSi4(( I;QUG]aSi4(( J;QVG]bSi4(( J;QVG]bSi4(( J;QVG]bSi4(( J;QVG]bSi4(( J;QVG]bSi4(( J;QVG]bSi4(( J;QVG]bSi4(( J;QVG]bSi4(( J;QVG]bSi4(( J;QVG]bSi4(( J;QVG]bSi4(( J;QVG]bSi4(( J;QVG]bSi4(( J;QVG]bSi4(( J;QVG]bSi4(( J;QVG]bSi4(( J;QVG]bSi4(( J;QVG]bSi4(( J;QVG]bSi4(( J;QVG]bSi4(( J;QVG]bSi4(( J;QVG]bSi4(( J;QVG]bSi4(( J;QVG]bSi4(( J;QVG]bSi4(( J;QVG]bSi4(( J;QVG]bSi4(( J;QVG]bSi4(( J;QVG]bSi4(( J;QVG]bSi4(( J;QVG]bSi4(( J;QVG]bSi4(( J;QVG]bSi4(( J;QVG]bSi4(( J;QVG]bSi4(( J;QVG]bSi4(( J;QVG]bSi4(( J;QVG]bSi4(( J;QVG]bSi4(( J;QVG]bSi4(( J;QVG]bSi4(( J;QVG]bSi4(( J;QVG]bSi4(( J;QVG]bSi4(( J;QVG]bSi4(( J;QVG]bSi4(( J;QVG]bSi4(( J;QVG]bSi4(( J;QVG]bSi4(( J;QVG]bSi4(( J;QVG]bSi4(( J;QVG]bSi4(( J;QVG]bSi4(( J;QVG]bSi4(( J;QVG]bSi4(( J;QVG]bSi4(( J;QVG]bSi4(( J;QVG]bSi4(( J;QVG]bSi4(( J;QVG]bSi4(( J;QVG]bSi4(( J;QVG]bSi4(( J;QVG]bSi4(( J;QVG]bSi4(( J;QVG]bSi4(( J;QVG]bSi4(( J;QVG]bSi4(( J;QVG]bSi4(( J;QVG]bSi4(( J;QVG]bSi4(( J;QVG]bSi4(( J;QVG]bSi4(( J;QVG]bSi4(( J;QVG]bSi4(( J;QVG]bSi4(( J;QVG]bSi4(( J;QVG]bSi4(( J;QVG]bSi4(( J;QVG]bSi4(( J;QVG]bSi4(( J;QVG]bSi4(( J;QVG]bSi4(( J;QVG]bSi4(( J;QVG]bSi4(( J;QVG]bSi4(( J;QVG]bSi4(( J;QVG]bSi4(( J;QVG]bSi4(( J;QVG]bSi4(( J;QVG]bSi4(( J;QVG]bSi4(( J;QVG]bSi4(( J;QVG]bSi4(( J;QVG]bSi4(( J;QVG]bSi4(( J;QVG]bSi4(( J;QVG]bSi4(( J;QVG]bSi4(( J;QVG]bSi4(( J;QVG]bSi4(( J;QVG]bSi4(( J;QVG]bSi4(( J;QVG]bSi4(( J;QVG]bSi4(( J;QVG]bSi4(( J;QVG]bSi4(( J;QVG]bSi4(( J;QVG]bSi4(( J;QVG]bSi4(( J;QVG]bSi4(( J;Q=VG]IbSiU4(( J;Q=VG]IbSiU4(( J;Q=VG]IbSiU4(( J;Q=VG]IbSiU4(( J;Q=VG]IbSiU4(( J;Q=IVG]IUbSiUa4(( J;Q=IVG]IUbSiUa4(( J;Q=IVG]IUbSiUa4(( J;Q=IVG]IUbSiUa4(( J;Q=IVG]IUbSiUa4(( J;Q=IVG]IUbSiUa4(( J;Q=IVG]IUbSiUa4(( J;Q=IVG]IUbSiUa4(( J;Q=IVG]IUbSiUa4(( J;Q=IVG]IUbSiUa4(( J;Q=IVG]IUbSiUa4(( J;Q=IVG]IUbSiUa4(( ;Q=IG]IUSiUa4(( ;Q=IG]IUSiUa4(( ;Q=IG]IUSiUa4(( ;Q=IG]IUSiUa4(( Q=I]IUiUa4(( Q=I]IUiUa4(( Q=I]IUiUa4(( Q=I]IUiUa4(( Q=I]IUiUa4(( Q=I]IUiUa4(( Q=I]IUiUa4(( Q=I]IUiUa4(( Q=I]IUiUa4(( Q=I]IUiUa4(( Q=I]IUiUa4(( =IIUUa4(( =IIUUa4(( =IIUUa4(( =IIUUa4(( =IIUUa4(( =IIUUa4(( =IIUUa4(( =IIUUa4(( =IIUUa4(( =IIUUa4(( =IIUUa4(( =IIUUa4(( =IIUUa4(( =IIUUa4(( =IIUUa4(( =IIUUa4(( =IIUUa4(( =IIUUa4(( =IIUUa4(( =IIUUa4(( =IIUUa4(( IUa4(( IUa4(( IUa4(( IUa4(( IUa4(( IUa4(( IUa4(( IUa4(( IUa4(( IUa4(( IUa4(( IUa4(( IUa4(( IUa4(( IUa4(( IUa4(( IUa4(( IUa4(( IUa4(( IUa4(( IUa4(( IUa4(( IUa4(( IUa4(( IUa4(( IUa4(( IUa4(( IUa4(( IUa4(( IUa4(( IUa4(( IUa4(( IUa4(( IUa4(( IUa4(( IUa4(( IUa4(( IUa4(( IUa4(( IUa4(( IUa4(( IUa4(( IUa4(( IUa4(( IUa4(( IUa4(( IUa4(( IUa4(( IUa4(( IUa4(( IUa4(( IUa4(( IUa4(( IUa4(( IUa4(( IUa4(( IUa4(( IUa4(( IUa4(( IUa4(( IUa4(( IUa4(( IUa4(( I>UJaV4(( I>UJaV4(( I>UJaV4(( I>UJaV4(( I>UJaV4(( I>UJaV4(( I>UJaV4(( I>UJaV4(( I>UJaV4(( >JV4(( P>G\JShV_4(( P>G\JShV_4(( P>G\JShV_4(( P>G\JShV_4(( P>G\JShV_4(( P>G\JShV_4(( P>G\JShV_4(( P>G\JShV_4(( P>G\JShV_4(( P>G\JShV_4(( P>G\JShV_4(( P>G\JShV_4(( P>G\JShV_4(( P>G\JShV_4(( P>G\JShV_4(( P>G\JShV_4(( P>G\JShV_4(( P>G\JShV_4(( P>G\JShV_4(( P>G\JShV_4(( P>G\JShV_4(( P>G\JShV_4(( P>G\JShV_4(( P>G\JShV_4(( P>G\JShV_4(( P>G\JShV_4(( P>G\JShV_4(( P>G\JShV_4(( P>G\JShV_4(( P>G\JShV_4(( P>G\JShV_4(( P>G\JShV_4(( P>G\JShV_4(( P>G\JShV_4(( P>G\JShV_4(( P>G\JShV_4(( P>G\JShV_4(( P>G\JShV_4(( P>G\JShV_4(( P>G\JShV_4(( P>G\JShV_4(( P>G\JShV_4(( P>G\JShV_4(( P>G\JShV_4(( P>G\JShV_4(( P>G\JShV_4(( P>G\JShV_4(( P>G\JShV_4(( P>G\JShV_4(( P>G\JShV_ P>G\JShV_ >GJSV_ >GJSV_ >GJSV_ >GJSV_ >GJSV_ GS_ GS_ GS_ GS_ GS_ GS_ GS_ GS_ GS_ GS_ GS_ GS_ GS_ GS_ GS_ GS_ GS_ GS_ GS_ GS_ GS_ GS_ GS_ GS_ GS_ GS_ GS_ GS_ GS_ GS_ GS_ GS_ GS_ GS_ GS_ GS_ GS_ GS_ GS_ GS_ GS_ GS_ GS_ GS_ GS_ GS_ GS_ GS_ GS_ GS_ GS_ GS_ GS_ GS_ GS_ GS_ GS_ GS_ GS_ G=SI_U G=SI_U G=SI_U G=SI_U G=SI_U G=SI_U G=SI_U G=SI_U G=SI_U G=SI_U =IU =EIQU]-!! =EIQU]-!! Q=E]IQiU]-!! Q=E]IQiU]-!! Q=E]IQiU]-!! Q=E]IQiU]-!! Q=E]IQiU]-!! Q=E]IQiU]-!! Q=E]IQiU]-!! Q=E]IQiU]-!! Q=E]IQiU]-!! Q=E]IQiU]-!! Q=E]IQiU]-!! Q=E]IQiU]-!! Q=E]IQiU]-!! Q=E]IQiU]-!! Q=E]IQiU]-!! Q=E]IQiU]-!! Q=E]IQiU]-!! Q=E]IQiU]-!! Q=E]IQiU]-!! Q=E]IQiU]-!! Q=E]IQiU]-!! Q=E]IQiU]-!! Q=E]IQiU]-!! Q=E]IQiU]-!! Q=E]IQiU]-!! Q=E]IQiU]-!! Q=E]IQiU]-!! Q=E]IQiU]-!! Q=E]IQiU]-!! Q=E]IQiU]-!! Q=E]IQiU]-!! Q=E]IQiU]-!! Q=E]IQiU]-!! Q=E]IQiU]-!! Q=E]IQiU]-!! Q=E]IQiU]-!! Q=E]IQiU]-!! Q=E]IQiU]-!! Q=E]IQiU]-!! Q=E]IQiU]-!! Q=E]IQiU]-!! Q=E]IQiU]-!! Q=E]IQiU]-!! Q=E]IQiU]-!! Q=E]IQiU]-!! Q=E]IQiU]-!! Q=E]IQiU]-!! Q=E]IQiU]-!! Q=E]IQiU]-!! Q=E]IQiU]-!! Q=E]IQiU]-!! Q=E]IQiU]-!! Q=E]IQiU]-!! Q=E]IQiU]-!! Q=E]IQiU]-!! Q=E]IQiU]-!! Q=E]IQiU]-!! Q=E]IQiU]-!! Q=E]IQiU]-!! Q=E]IQiU]-!! Q=E]IQiU]-!! Q=E]IQiU]-!! Q=E]IQiU]-!! Q=E]IQiU]-!! Q=E]IQiU]-!! Q=E]IQiU]-!! Q=E]IQiU]-!! Q=E]IQiU]-!! Q=E]IQiU]-!! Q=E]IQiU]-!! Q=E]IQiU]-!! Q=E]IQiU]-!! Q=E]IQiU]-!! Q=E]IQiU]-!! Q=E]IQiU]-!! Q=E]IQiU]-!! Q=E]IQiU]-!! Q=E]IQiU]-!! =EIQU]-!! =EIQU]-!! =EIQU]-!! =EIQU]-!! EQ]-!! EQ]-!! EQ]-!! EQ]-!! EQ]-!! EQ]-!! EQ]-!! EQ]-!! EQ]-!! EQ]-!! EQ]-!! EQ]-!! EQ]-!! EQ]-!! EQ]-!! EQ]-!! EQ]-!! EQ]-!! EQ]-!! EQ]-!! EQ]-!! EQ]-!! EQ]-!! EQ]-!! EQ]-!! EQ]-!! EQ]-!! EQ]-!! EIQU]a-!! EIQU]a-!! IUa-!! IUa-!! 9IEUQa-!! 9IEUQa-!! 9IEUQa-!! 9IEUQa-!! 9IEUQa-!! 9IEUQa-!! 9IEUQa-!! 9IEUQa-!! 9IEUQa-!! 9IEUQa-!! 9IEUQa-!! 9IEUQa-!! 9IEUQa-!! 9IEUQa-!! 9IEUQa-!! 9IEUQa-!! 9IEUQa-!! 9IEUQa-!! 9IEUQa-!! 9IEUQa-!! 9IEUQa-!! 9IEUQa-!! 9IEUQa-!! 9IEUQa-!! 9IEUQa-!! 9IEUQa-!! 9IEUQa-!! 9IEUQa-!! 9IEUQa-!! 9IEUQa-!! 9IEUQa-!! 9IEUQa-!! 9IEUQa-!! 9IEUQa-!! 9IEUQa-!! 9IEUQa-!! 9IEUQa-!! 9IEUQa-!! 9IEUQa-!! 9IEUQa-!! 9IEUQa-!! 9IEUQa-!! 9IEUQa-!! 9IEUQa-!! 9IEUQa-!! 9IEUQa-!! 9IEUQa-!! 9IEUQa-!! 9IEUQa-!! 9IEUQa-!! 9IEUQa-!! 9IEUQa-!! 9IEUQa-!! 9IEUQa-!! 9IEUQa-!! 9IEUQa-!! 9IEUQa-!! 9IEUQa-!! 9IEUQa-!! 9IEUQa-!! 9IEUQa-!! 9IEUQa-!! IUa-!! IUa-!! IUa-!! IUa-!! IUa-!! IUa-!! IUa-!! IUa-!! IUa-!! -!! -!! -!! -!! -!! -!! -!! -!! -!! -!! -!! -!! -!! -!! -!! -!! -!! -!! -!! -!! -!! -!! -!! -!! -!! -!! -!! -!! -!! -!! -!! -!! -!! -!! -!! -!! -!! JVb-!! JVb-!! J;VGbS-!! J;VGbS-!! J;VGbS-!! J;VGbS-!! J;VGbS-!! J;VGbS-!! J;VGbS-!! J;VGbS-!! J;VGbS-!! J;VGbS-!! J;VGbS-!! J;VGbS-!! J;VGbS-!! J;VGbS-!! J;VGbS-!! J;VGbS-!! J;VGbS-!! J;VGbS-!! J;VGbS-!! J;VGbS-!! J;VGbS-!! J;VGbS-!! J;VGbS-!! J;VGbS-!! J;VGbS-!! J;VGbS-!! J;VGbS-!! J;VGbS-!! J;VGbS-!! J;VGbS-!! J;VGbS-!! J;VGbS-!! J;VGbS-!! J;VGbS-!! J;VGbS-!! J;VGbS-!! J;VGbS-!! J;VGbS-!! J;VGbS-!! J;VGbS-!! J;VGbS-!! J;VGbS-!! J;VGbS-!! J;VGbS-!! J;VGbS-!! J;VGbS-!! J;VGbS-!! J;VGbS-!! J;VGbS-!! J;VGbS-!! J;VGbS-!! J;VGbS-!! J;VGbS-!! J;VGbS-!! J;VGbS-!! J;VGbS-!! J;VGbS-!! J;VGbS-!! J;VGbS-!! J;VGbS-!! J;VGbS-!! J;VGbS-!! J;VGbS-!! J;VGbS-!! J;VGbS-!! J;VGbS-!! J;VGbS-!! J;VGbS-!! ;GS-!! ;GS-!! ;GS-!! ;GS-!! ;GS-!! ;GS-!! ;GS-!! -!! -!! -!! -!! -!! -!! -!! -!! -!! -!! -!! -!! -!! -!! -!! -!! -!! -!! -!! -!! -!! -!! -!! -!! -!! -!! -!! -!! -!! -!! -!! -!! -!! -!! -!! -!! -!! -!! -!! -!! -!! -!! -!! -!! =IU-!! =IU-!! L=XIdU-!! L=XIdU-!! L=XIdU-!! L=XIdU-!! L=XIdU-!! L=XIdU-!! L=XIdU-!! L=XIdU-!! L=XIdU-!! L=XIdU-!! L=XIdU-!! L=XIdU-!! L=XIdU-!! L=XIdU-!! L=XIdU-!! L=XIdU-!! L=XIdU-!! L=XIdU-!! L=XIdU-!! L=XIdU-!! L=XIdU-!! L=XIdU-!! L=XIdU-!! L=XIdU-!! L=XIdU-!! L=XIdU-!! L=XIdU-!! L=XIdU-!! L=XIdU-!! L=XIdU-!! L=XIdU-!! L=XIdU-!! L=XIdU-!! L=XIdU-!! L=XIdU-!! L=XIdU-!! L=XIdU-!! L=XIdU-!! L=XIdU-!! L=XIdU-!! L=XIdU-!! L=XIdU-!! L=XIdU-!! L=XIdU-!! L=XIdU-!! L=XIdU-!! L=XIdU-!! L=XIdU-!! L=XIdU-!! L=XIdU-!! L=XIdU-!! L=XIdU-!! L=XIdU-!! L=XIdU-!! L=XIdU-!! L=XIdU-!! L=XIdU-!! L=XIdU-!! L=XIdU-!! L=XIdU-!! L=XIdU-!! L=XIdU-!! L=XIdU-!! L=XIdU-!! L=XIdU-!! L=XIdU-!! L=XIdU-!! L=XIdU-!! L=XIdU-!! L=XIdU-!! L=XIdU-!! L=XIdU-!! L=XIdU-!! L=XIdU-!! L=XIdU-!! L=XIdU-!! L=XIdU-!! L=XIdU-!! L=XIdU-!! L=XIdU-!! L=XIdU-!! L=XIdU-!! L=XIdU-!! L=XIdU-!! L=XIdU-!! L=XIdU-!! L=XIdU-!! L=XIdU-!! L=XIdU-!! L=XIdU-!! L=XIdU-!! L=XIdU-!! L=XIdU-!! L=XIdU-!! L=XIdU-!! L=XIdU-!! L=XIdU-!! L=XIdU-!! L=XIdU-!! L=XIdU-!! L=XIdU-!! L=XIdU-!! L=XIdU-!! L=XIdU-!! L=XIdU-!! =IU-!! =IU-!! =IU-!! =IU-!! =IU-!! =IU-!! =IU-!! =IU-!! =IU-!! =IU-!! =EIQU]-!! =ENIQZU]f-!! =>ENIJQZUV]f-!! >ENJQZV]f-!! >ENJQZV]f-!! >ENJQZV]f-!! >ENJQZV]f-!! >ENJQZV]f-!! >ENJQZV]f-!! >ENJQZV]f-!! >ENJQZV]f-!! >ENJQZV]f-!! >ENJQZV]f-!! >ENJQZV]f-!! >ENJQZV]f-!! >ENJQZV]f-!! >ENJQZV]f-!! >ENJQZV]f-!! >ENJQZV]f-!! >ENJQZV]f-!! >ENJQZV]f-!! >ENJQZV]f-!! >ENJQZV]f-!! >ENJQZV]f-!! >ENJQZV]f-!! >ENJQZV]f-!! >ENJQZV]f-!! >ENJQZV]f-!! >ENJQZV]f-!! >ENJQZV]f-!! >ENJQZV]f-!! >ENJQZV]f-!! >ENJQZV]f-!! >ENJQZV]f-!! >ENJQZV]f-!! >ENJQZV]f-!! >ENJQZV]f-!! >ENJQZV]f-!! >ENJQZV]f-!! >ENJQZV]f-!! >ENJQZV]f-!! >ENJQZV]f-!! >ENJQZV]f-!! >ENJQZV]f-!! ENQZ]f-!! ENQZ]f-!! ENQZ]f-!! ENQZ]f-!! ENQZ]f-!! ENQZ]f-!! ENQZ]f-!! ENQZ]f-!! ENQZ]f-!! ENQZ]f-!! ENQZ]f-!! ENQZ]f-!! ENQZ]f-!! ENQZ]f-!! ENQZ]f-!! ENQZ]f-!! ENQZ]f-!! ENQZ]f-!! ENQZ]f-!! ENQZ]f-!! ENQZ]f-!! ENQZ]f-!! ENQZ]f-!! ENQZ]f-!! ENQZ]f-!! ENQZ]f-!! ENQZ]f-!! ENQZ]f-!! ENQZ]f-!! ENQZ]f-!! ENQZ]f-!! NZf-!! -!! -!! -!! -!! -!! -!! -!! -!! -!! -!! -!! -!! -!! -!! -!! -!! -!! -!! -!! -!! -!! -!! -!! -!! -!! -!! -!! -!! -!! -!! -!! -!! -!! -!! -!! -!! -!! -!! -!! P\h-!! P\h-!! P\h-!! P\h-!! P\h-!! PD\Ph\-!! PD\Ph\-!! PD@\PLh\X-!! PD@\PLh\X-!! PD@\PLh\X-!! PD@\PLh\X-!! PD@\PLh\X-!! PD@\PLh\X-!! PD@\PLh\X-!! PD@\PLh\X-!! PD@\PLh\X-!! PD@\PLh\X-!! PD@\PLh\X-!! PD@\PLh\X-!! PD@\PLh\X-!! PD@\PLh\X-!! PD@\PLh\X-!! PD@\PLh\X-!! PD@\PLh\X-!! PD@\PLh\X-!! PD@\PLh\X-!! PD@\PLh\X-!! PD@\PLh\X-!! PD@\PLh\X-!! PD@\PLh\X-!! PD@\PLh\X-!! PD@\PLh\X-!! PD@\PLh\X-!! PD@\PLh\X-!! PD@\PLh\X-!! PD@\PLh\X-!! PD@\PLh\X-!! PD@\PLh\X-!! PD@\PLh\X-!! PD@\PLh\X-!! PD@\PLh\X-!! PD@\PLh\X-!! PD@\PLh\X-!! PD@\PLh\X-!! PD@\PLh\X-!! PD@\PLh\X-!! PD@\PLh\X-!! PD@\PLh\X-!! PD@\PLh\X-!! PD@\PLh\X-!! D@PL\X-!! D@PL\X-!! D@PL\X-!! D@PL\X-!! D@PL\X-!! @LX-!! @LX-!! @LX-!! @LX-!! @LX-!! @LX-!! @LX-!! @LX-!! @LX-!! -!! -!! -!! -!! -!! -!! -!! -!! -!! -!! -!! -!! -!! -!! -!! -!! -!! -!! -!! -!! -!! -!! -!! -!! -!! -!!                         BNZ BNZ BNZ BQ>N]JZiV BQ>N]JZiV BQ>N]JZiV/## BQ>N]JZiV/## BQ>N]JZiV/## BQ>N]JZiV/## BQ>N]JZiV/## BQ>N]JZiV/## BQ>N]JZiV/## BQ>N]JZiV/## BQ>N]JZiV/## BQ>N]JZiV/## BQ>N]JZiV/## BQ>N]JZiV/## BQ>N]JZiV/## BQ>N]JZiV/## BQ>N]JZiV/## BQ>N]JZiV/## BQ>N]JZiV/## BQ>N]JZiV/## BQ>N]JZiV/## BQ>N]JZiV/## BQ>N]JZiV/## BQ>N]JZiV/## BQ>N]JZiV/## BQ>N]JZiV/## BQ>N]JZiV/## BQ>N]JZiV/## BQ>N]JZiV/## BQ>N]JZiV/## BQ>N]JZiV/## BQ>N]JZiV/## BQ>N]JZiV/## BQ>N]JZiV/## BQ>N]JZiV/## BQ>N]JZiV/## BQ>N]JZiV/## BQ>N]JZiV/## BQ>N]JZiV/## BQ>N]JZiV/## BQ>N]JZiV/## BQ>N]JZiV/## BQ>N]JZiV/## BQ>N]JZiV/## BQ>N]JZiV/## BQ>N]JZiV/## BQ>N]JZiV/## BQ>N]JZiV/## BQ>N]JZiV/## BQ>N]JZiV/## BQ>N]JZiV/## BQ>N]JZiV/## BQ>N]JZiV/## BQ>N]JZiV/## BQ>N]JZiV/## BQ>N]JZiV/## BQ>N]JZiV/## BQ>N]JZiV/## BQ>N]JZiV/## BQ>N]JZiV/## BQ>N]JZiV/## BQ>N]JZiV/## BQ>N]JZiV/## BQ>N]JZiV/## BQ>N]JZiV/## BQ>N]JZiV/## BQ>N]JZiV/## BQ>N]JZiV/## BQ>N]JZiV/## BQ>N]JZiV/## BQ>N]JZiV/## BQ>N]JZiV/## BQ>N]JZiV/## BQ>N]JZiV/## BQ>N]JZiV/## BQ>N]JZiV/## BQ>N]JZiV/## BQ>N]JZiV/## BQ>N]JZiV/## BQ>N]JZiV/## BQ>N]JZiV/## BQ>N]JZiV/## BQ>N]JZiV/## BQ>N]JZiV/## BQ>N]JZiV/## BQ>N]JZiV/## BQ>N]JZiV/## BQ>N]JZiV/## BQ>N]JZiV/## BQ>N]JZiV/## BQ>N]JZiV/## BQ>N]JZiV/## BQ>N]JZiV/## BQ>N]JZiV/## BQ>N]JZiV/## BQ>N]JZiV/## BQ>N]JZiV/## BQ>N]JZiV/## BQ>N]JZiV/## BQ>N]JZiV/## BQ>N]JZiV/## BQ>N]JZiV/## BQ>N]JZiV/## BQ>N]JZiV/## BQ>N]JZiV/## BQ>N]JZiV/## BQ>N]JZiV/## BQ>N]JZiV/## BQ>N]JZiV/## BQ>N]JZiV/## BQ>N]JZiV/## BQ>N]JZiV/## BQ>N]JZiV/## BQ>N]JZiV/## BQ>N]JZiV/## BQ>N]JZiV/## BQ>N]JZiV/## BQ>N]JZiV/## BQ>N]JZiV/## BQD>N]PJZi\V/## QD>]PJi\V/## QD>]PJi\V/## QD>]PJi\V/## QD>]PJi\V/## QPD>]\PJih\V/## QPD>]\PJih\V/## QPD>]\PJih\V/## QPD>]\PJih\V/## QPD>]\PJih\V/## QPD>]\PJih\V/## QPD>]\PJih\V/## PD>\PJh\V/## PD>\PJh\V/## PD>\PJh\V/## PD>\PJh\V/## PD>\PJh\V/## PD>\PJh\V/## PD>\PJh\V/## PD>\PJh\V/## PD>\PJh\V/## PD>\PJh\V/## PD>\PJh\V/## PD>\PJh\V/## PD>\PJh\V/## PD>\PJh\V/## PD>\PJh\V/## PD>\PJh\V/## PD>\PJh\V/## PD>\PJh\V/## PD>\PJh\V/## PD>\PJh\V/## PD>\PJh\V/## PD>\PJh\V/## PD>\PJh\V/## PD>\PJh\V/## PD>\PJh\V/## PD>\PJh\V/## PD>\PJh\V/## PD>\PJh\V/## PD>\PJh\V/## PD>\PJh\V/## PD>\PJh\V/## PD>\PJh\V/## PD>\PJh\V/## PD>\PJh\V/## PD>\PJh\V/## PD>\PJh\V/## PD>\PJh\V/## D>PJ\V/## D>PJ\V/## D>PJ\V/## D>PJ\V/## D>PJ\V/## D>PJ\V/## D>PJ\V/## D>PJ\V/## D>PJ\V/## D>PJ\V/## D>PJ\V/## D>PJ\V/## D>PJ\V/## D>PJ\V/## D>PJ\V/## D>PJ\V/## D>PJ\V/## D>PJ\V/## >JV/## >JV/## >JV/## >JV/## >JV/## >JV/## >JV/## >JV/## >JV/## >JV/## >JV/## >JV/## >JV/## >JV/## >JV/## >JV/## >JV/## >JV/## >JV/## >JV/## >JV/## >JV/## >JV/## >JV/## >JV/## >JV/## >JV/## >JV/## >JV/## >JV/## >JV/## >JV/## >JV/## >JV/## >JV/## >JV/## >JV/## >JV/## >JV/## >JV/## >JV/## >JV/## >JV/## >JV/## >JV/## >JV/## >JV/## >JV/## >JV/## >JV/## >JV/## E>QJ]V/## E>QJ]V/## E>QJ]V/## E>QJ]V/## E>QJ]V/## E>QJ]V/## NE>ZQJf]V/## NE>ZQJf]V/## NE>ZQJf]V/## NE>ZQJf]V/## NE>ZQJf]V/## NE>ZQJf]V/## NE>ZQJf]V/## NE>ZQJf]V/## NE>ZQJf]V/## NE>ZQJf]V/## NE>ZQJf]V/## NE>ZQJf]V/## NE>ZQJf]V/## NE>ZQJf]V/## NE>ZQJf]V/## NE>ZQJf]V/## NE>ZQJf]V/## NE>ZQJf]V/## NE>ZQJf]V/## NE>ZQJf]V/## NE>ZQJf]V/## NE>ZQJf]V/## NE>ZQJf]V/## NE>ZQJf]V/## NE>ZQJf]V/## NE>ZQJf]V/## NE>ZQJf]V/## NE>ZQJf]V/## NE>ZQJf]V/## NE>ZQJf]V/## NE>ZQJf]V/## NE>ZQJf]V/## NE>ZQJf]V/## NE>ZQJf]V/## NE>ZQJf]V/## E>QJ]V/## E>QJ]V/## E>QJ]V/## E>QJ]V/## E>QJ]V/## E>QJ]V/## E>QJ]V/## E>QJ]V/## E>QJ]V/## E>QJ]V/## E>QJ]V/## E>QJ]V/## E>QJ]V/## E>QJ]V/## E>QJ]V/## E>QJ]V/## E>QJ]V/## E>QJ]V/## E>QJ]V/## E>QJ]V/## E>QJ]V/## E>QJ]V/## E>QJ]V/## E>QJ]V/## E>QJ]V/## E>QJ]V/## E>QJ]V/## E>QJ]V/## E>QJ]V/## E>QJ]V/## E>QJ]V/## >JV/## >JV/## >JV/## >JV/## >JV/## >JV/## >JV/## >JV/## >JV/## >JV/## >JV/## >JV/## >JV/## >JV/## >JV/## >JV/## >JV/## >JV/## >JV/## >JV/## >JV/## >JV/## >JV/## >JV/## >JV/## >JV/## >JV/## >JV/## >JV/## >JV/## >JV/## >JV/## >JV/## >JV/## >JV/## >JV/## >JV/## >JV/## >JV/## >JV/## >JV/## >JV/## >JV/## D>PJ\V/## D>PJ\V/## D>PJ\V/## D>PJ\V/## D>PJ\V/## D>PJ\V/## D>PJ\V/## D>PJ\V/## D>PJ\V/## D>PJ\V/## D>LPJX\Vd/## D>LPJX\Vd/## D>LPJX\Vd D>LPJX\Vd1%% D>LPJX\Vd1%% D>LPJX\Vd1%% D>LPJX\Vd1%% D>LPJX\Vd1%% D>LPJX\Vd1%% D>LPJX\Vd1%% D>LPJX\Vd1%% D>LPJX\Vd1%% D>LPJX\Vd1%% D>LPJX\Vd1%% D>LPJX\Vd1%% D>LPJX\Vd1%% D>LPJX\Vd1%% D>LPJX\Vd1%% D>LPJX\Vd1%% D>LPJX\Vd1%% D>LPJX\Vd1%% D>LPJX\Vd1%% D>LPJX\Vd1%% D>LPJX\Vd1%% D>LPJX\Vd1%% D>LPJX\Vd1%% D>LPJX\Vd1%% D>LPJX\Vd1%% D>LPJX\Vd1%% D>LPJX\Vd1%% D>LPJX\Vd1%% D>LPJX\Vd1%% D>LPJX\Vd1%% D>LPJX\Vd1%% D>LPJX\Vd1%% D>LPJX\Vd1%% D>LPJX\Vd1%% D>LPJX\Vd1%% D>LPJX\Vd1%% D>LPJX\Vd1%% D>LPJX\Vd1%% D>LPJX\Vd1%% D>LPJX\Vd1%% >LJXVd1%% >LJXVd1%% >LJXVd1%% >LJXVd1%% >LJXVd1%% >LJXVd1%% >LJXVd1%% >LJXVd1%% >LJXVd1%% >LJXVd1%% >LJXVd1%% >LJXVd1%% >LJXVd1%% >LJXVd1%% >LJXVd1%% >LJXVd1%% >LJXVd1%% >LJXVd1%% >LJXVd1%% >LJXVd1%% >LJXVd1%% >LJXVd1%% >LJXVd1%% >LJXVd1%% >LJXVd1%% >LJXVd1%% >LJXVd1%% >LJXVd1%% >LJXVd1%% >LJXVd1%% >LJXVd1%% >LJXVd1%% >LJXVd1%% >LJXVd1%% >LJXVd1%% >LJXVd1%% >LJXVd1%% >LJXVd1%% >LJXVd1%% >LJXVd1%% >LJXVd1%% >LJXVd1%% >LJXVd1%% >LJXVd1%% >LJXVd1%% >LJXVd1%% >LJXVd1%% >LJXVd1%% >LJXVd1%% >LJXVd1%% >LJXVd1%% >LJXVd1%% >LJXVd1%% >LJXVd1%% >LJXVd1%% >LJXVd1%% >LJXVd1%% >LJXVd1%% >LJXVd1%% >LJXVd1%% >LJXVd1%% LXd1%% LXd1%% LXd1%% LXd1%% LXd1%% LXd1%% LXd1%% LXd1%% =LIXUd1%% =LIXUd1%% =LIXUd1%% =LIXUd1%% =LIXUd1%% =LIXUd1%% =LIXUd1%% =ELIQXU]d1%% =ELIQXU]d1%% =ELIQXU]d1%% =ELIQXU]d1%% =ELIQXU]d1%% =ELIQXU]d1%% =ELIQXU]d1%% =ELIQXU]d1%% =ELIQXU]d1%% =ELIQXU]d1%% =ELIQXU]d1%% =ELIQXU]d1%% =ELIQXU]d1%% =ELIQXU]d1%% =ELIQXU]d1%% =ELIQXU]d1%% =ELIQXU]d1%% =ELIQXU]d1%% =ELIQXU]d1%% =ELIQXU]d1%% =ELIQXU]d1%% =ELIQXU]d1%% =ELIQXU]d1%% =ELIQXU]d1%% =ELIQXU]d1%% =ELIQXU]d1%% =ELIQXU]d1%% =ELIQXU]d1%% =ELIQXU]d1%% =ELIQXU]d1%% =ELIQXU]d1%% =ELIQXU]d1%% =ELIQXU]d1%% =ELIQXU]d1%% =ELIQXU]d1%% =ELIQXU]d1%% =ELIQXU]d1%% =ELIQXU]d1%% =ELIQXU]d1%% =ELIQXU]d1%% =ELIQXU]d1%% =ELIQXU]d1%% =ELIQXU]d1%% =ELIQXU]d1%% =ELIQXU]d1%% =ELIQXU]d1%% =ELIQXU]d1%% =ELIQXU]d1%% =ELIQXU]d1%% =ELIQXU]d1%% =ELIQXU]d1%% =ELIQXU]d1%% =ELIQXU]d1%% =ELIQXU]d1%% =ELIQXU]d1%% =ELIQXU]d1%% =ELIQXU]d1%% =ELIQXU]d1%% =ELIQXU]d1%% =ELIQXU]d1%% =ELIQXU]d1%% =ELIQXU]d1%% =ELIQXU]d1%% =ELIQXU]d1%% =ELIQXU]d1%% =ELIQXU]d1%% =ELIQXU]d1%% =ELIQXU]d1%% =ELIQXU]d1%% =ELIQXU]d1%% =ELIQXU]d1%% =ELIQXU]d1%% =ELIQXU]d1%% =ELIQXU]d1%% =ELIQXU]d1%% =ELIQXU]d1%% =ELIQXU]d1%% =ELIQXU]d1%% =ELIQXU]d1%% =ELIQXU]d1%% =ELIQXU]d1%% =ELIQXU]d1%% =ELIQXU]d1%% =ELIQXU]d1%% =ELIQXU]d1%% =ELIQXU]d1%% =ELIQXU]d1%% =ELIQXU]d1%% =ELIQXU]d1%% =ELIQXU]d1%% =ELIQXU]d1%% =ELIQXU]d1%% =ELIQXU]d1%% =ELIQXU]d1%% =ELIQXU]d1%% =ELIQXU]d1%% =ELIQXU]d1%% =ELIQXU]d1%% =ELIQXU]d1%% =ELIQXU]d1%% =ELIQXU]d1%% =ELIQXU]d1%% =ELIQXU]d1%% =ELIQXU]d1%% =ELIQXU]d1%% =ELIQXU]d1%% ELQX]d1%% ELQX]d1%% ELQX]d1%% ELQX]d1%% ELQX]d1%% ELQX]d1%% ELQX]d1%% ELQX]d1%% EL>QXJ]dV1%% EL>QXJ]dV1%% EL>QXJ]dV1%% EL>QXJ]dV1%% L>XJdV1%% L>XJdV1%% L>XJdV1%% L>XJdV1%% L>XJdV1%% L>XJdV1%% L>XJdV1%% LJ>XVJdbV1%% LJ>XVJdbV1%% J>GVJSbV_1%% J>GVJSbV_1%% J>GVJSbV_1%% J>GVJSbV_1%% J>GVJSbV_1%% J>GVJSbV_1%% J>GVJSbV_1%% J>GVJSbV_1%% J>GVJSbV_1%% J>GVJSbV_1%% J>GVJSbV_1%% J>GVJSbV_1%% J>GVJSbV_1%% J>GVJSbV_1%% J>GVJSbV_1%% J>GVJSbV_1%% J>GVJSbV_1%% J>GVJSbV_1%% J>GVJSbV_1%% J>GVJSbV_1%% J>GVJSbV_1%% J>GVJSbV_1%% J>GVJSbV_1%% J>GVJSbV_1%% J>GVJSbV_1%% J>GVJSbV_1%% J>GVJSbV_1%% J>GVJSbV_1%% J>GVJSbV_1%% J>GVJSbV_1%% J>GVJSbV_1%% J>GVJSbV_1%% J>GVJSbV_1%% J>GVJSbV_1%% J>GVJSbV_1%% J>GVJSbV_1%% J>GVJSbV_1%% J>GVJSbV_1%% J>GVJSbV_1%% J>GVJSbV_1%% J>GVJSbV_1%% J>GVJSbV_1%% J>GVJSbV_1%% J>GVJSbV_1%% J>GVJSbV_1%% J>GVJSbV_1%% J>GVJSbV_1%% J>GVJSbV_1%% J>GVJSbV_1%% J>GVJSbV_1%% >GJSV_1%% >GJSV_1%% >GJSV_1%% >GJSV_1%% >GJSV_1%% >GJSV_1%% >GJSV_1%% >GJSV_1%% >GJSV_1%% >GJSV_1%% >GJSV_1%% >GJSV_1%% >GJSV_1%% >GJSV_1%% >GJSV_1%% >GJSV_1%% >GJSV_1%% >GJSV_1%% >GJSV_1%% >GJSV_1%% >GJSV_1%% >GJSV_1%% >GJSV_1%% >GJSV_1%% GS_1%% GS_1%% GS_1%% GS_1%% GS_1%% GS_1%% GS_1%% GS_1%% GS_1%% GS_1%% GS_1%% GS_1%% GS_1%% GS_1%% GS_1%% GS_1%% GS_1%% GS_1%% GS_1%% GS_1%% GS_1%% GS_1%% 1%% 1%% 1%% 1%% 1%% 1%% 1%% 1%% 1%% 1%% 1%% @LX1%% @LX1%% @LX1%% @LX1%% @LX1%% @LX1%% @LX1%% @LX1%% @ILUXa1%% @IELUQXa]1%% @IELUQXa]1%% @IELUQXa]1%% @IELUQXa]1%% @IELUQXa]1%% @IELUQXa]1%% @IELUQXa]1%% @IELUQXa]1%% @IELUQXa]1%% @IELUQXa]1%% @IELUQXa]1%% @IELUQXa]1%% @IELUQXa]1%% @IELUQXa]1%% @IELUQXa]1%% @IELUQXa]1%% @IELUQXa]1%% @IELUQXa]1%% @IELUQXa]1%% @IELUQXa]1%% @IELUQXa]1%% @IELUQXa]1%% @IELUQXa]1%% @IELUQXa]1%% @IELUQXa]1%% @IELUQXa]1%% @IELUQXa]1%% @IELUQXa]1%% @IELUQXa]1%% @IELUQXa]1%% @IELUQXa]1%% @IELUQXa]1%% @IELUQXa]1%% @IELUQXa]1%% @IELUQXa]1%% @IELUQXa]1%% @IELUQXa]1%% @IELUQXa]1%% @IELUQXa]1%% @IELUQXa]1%% @IELUQXa]1%% @IELUQXa]1%% @IELUQXa]1%% @IELUQXa]1%% @IELUQXa]1%% @IELUQXa]1%% @IELUQXa]1%% @IELUQXa]1%% @IELUQXa]1%% @IELUQXa]1%% @IELUQXa]1%% @IELUQXa]1%% @IELUQXa]1%% @IELUQXa]1%% @IELUQXa]1%% @IELUQXa]1%% @IELUQXa]1%% @IELUQXa]1%% @IELUQXa]1%% @IELUQXa]1%% @IELUQXa]1%% @IELUQXa]1%% @IELUQXa]1%% @IELUQXa]1%% @IELUQXa]1%% @IELUQXa]1%% @IELUQXa]1%% @IELUQXa]1%% @IELUQXa]1%% @IELUQXa]1%% @IELUQXa]1%% @IELUQXa]1%% @IELUQXa]1%% @IELUQXa]1%% @IELUQXa]1%% @IELUQXa]1%% @IELUQXa]1%% @IELUQXa]1%% @IELUQXa]1%% @IELUQXa]1%% @IELUQXa]1%% @IELUQXa]1%% @IELUQXa]1%% @IELUQXa]1%% @IELUQXa]1%% @IELUQXa]1%% @IELUQXa]1%% @IELUQXa]1%% @IELUQXa]1%% @IELUQXa]1%% @IELUQXa]1%% @IELUQXa]1%% @IELUQXa]1%% @IELUQXa]1%% @IELUQXa]1%% @IELUQXa]1%% @IELUQXa]1%% @IELUQXa]1%% @IELUQXa]1%% @IELUQXa]1%% @IELUQXa]1%% @IELUQXa]1%% @IELUQXa]1%% @IELUQXa]1%% IEUQa]1%% IEUQa]1%% IEUQa]1%% IE;UQGa]S1%% IE;UQGa]S1%% IE;UQGa]S1%% IE;UQGa]S1%% IE;UQGa]S1%% IE;UQGa]S1%% IE;UQGa]S1%% IE;UQGa]S1%% E;QG]S1%% E;QG]S1%% E;QG]S1%% EG;QSG]_S1%% EG;QSG]_S1%% EG;QSG]_S1%% EG;JQSGV]_Sb1%% G;JSGV_Sb1%% G;JSGV_Sb1%% G;JSGV_Sb1%% G;JSGV_Sb1%% G;JSGV_Sb1%% G;JSGV_Sb1%% G;JSGV_Sb1%% G;JSGV_Sb1%% G;JSGV_Sb1%% G;JSGV_Sb1%% G;JSGV_Sb1%% G;JSGV_Sb1%% G;JSGV_Sb1%% G;JSGV_Sb1%% G;JSGV_Sb1%% G;JSGV_Sb1%% G;JSGV_Sb1%% G;JSGV_Sb1%% G;JSGV_Sb1%% G;JSGV_Sb1%% G;JSGV_Sb1%% G;JSGV_Sb1%% G;JSGV_Sb1%% G;JSGV_Sb1%% G;JSGV_Sb1%% G;JSGV_Sb1%% G;JSGV_Sb1%% G;JSGV_Sb1%% G;JSGV_Sb1%% G;JSGV_Sb1%% G;JSGV_Sb1%% G;JSGV_Sb1%% G;JSGV_Sb1%% G;JSGV_Sb1%% G;JSGV_Sb1%% G;JSGV_Sb1%% G;JSGV_Sb1%% G;JSGV_Sb1%% G;JSGV_Sb1%% G;JSGV_Sb1%% G;JSGV_Sb1%% G;JSGV_Sb1%% G;JSGV_Sb1%% G;JSGV_Sb1%% G;JSGV_Sb1%% G;JSGV_Sb1%% G;JSGV_Sb1%% G;JSGV_Sb1%% G;JSGV_Sb1%% G;JSGV_Sb1%% G;JSGV_Sb1%% G;JSGV_Sb1%% G;JSGV_Sb1%% G;JSGV_Sb1%% G;JSGV_Sb1%% G;JSGV_Sb1%% G;JSGV_Sb1%% G;JSGV_Sb1%% G;JSGV_Sb1%% G;JSGV_Sb1%% ;JGVSb1%% JVb1%% JVb1%% 1%% 1%% 1%% 1%% 1%% 1%% 1%% 1%% 1%% 1%% 1%% 1%% 1%% 1%% 1%% 1%% 1%% 1%% 1%% 1%% 1%% 1%% 1%% 1%% 1%% 1%% 1%% 1%% 1%% 1%% 1%% 1%% 1%% 1%% 1%% 1%% 1%% 1%% 1%% 1%% 1%% 1%% 1%% 1%% 1%% 9EQ1%% 9EQ1%% 9EQ1%% 9EQ1%% 9EQ1%% 9EQ1%% 9EQ1%% 9EQ1%% 9EQ1%% 9EQ1%% 9EQ1%% 9EQ1%% I9UEaQ1%% I9UEaQ1%% I9LUEXaQd1%% I9LUEXaQd1%% I9LUEXaQd1%% I9LUEXaQd1%% I9LUEXaQd1%% I9LUEXaQd1%% I9LUEXaQd1%% I9LUEXaQd1%% I9LUEXaQd1%% I9LUEXaQd1%% I9LUEXaQd1%% I9LUEXaQd1%% I9LUEXaQd1%% I9LUEXaQd1%% I9LUEXaQd1%% I9LUEXaQd1%% I9LUEXaQd1%% I9LUEXaQd1%% I9LUEXaQd1%% I9LUEXaQd1%% I9LUEXaQd1%% I9LUEXaQd1%% I9LUEXaQd1%% I9LUEXaQd1%% I9LUEXaQd1%% I9LUEXaQd1%% I9LUEXaQd1%% I9LUEXaQd1%% I9LUEXaQd1%% I9LUEXaQd1%% I9LUEXaQd1%% I9LUEXaQd1%% I9LUEXaQd1%% I9LUEXaQd1%% I9LUEXaQd1%% I9LUEXaQd1%% I9LUEXaQd1%% I9LUEXaQd1%% I9LUEXaQd1%% I9LUEXaQd1%% I9LUEXaQd1%% I9LUEXaQd1%% I9LUEXaQd1%% I9LUEXaQd1%% I9LUEXaQd1%% I9LUEXaQd1%% I9LUEXaQd1%% I9LUEXaQd1%% I9LUEXaQd1%% I9LUEXaQd1%% I9LUEXaQd1%% 9LEXQd1%% 9LEXQd1%% 9LEXQd1%% 9LEXQd1%% 9LEXQd1%% 9LEXQd1%% 9LEXQd1%% LXd1%% LXd1%% LXd1%% LXd1%% LXd1%% LXd1%% LXd1%% LXd1%% LXd1%% LXd1%% LXd1%% LXd1%% LXd1%% LXd1%% LXd1%% LXd1%% LXd1%% LXd1%% LXd1%% LXd1%% LXd1%% LXd1%% LXd1%% LXd1%% LXd1%% LXd1%% LXd1%% LXd1%% LXd1%% LXd1%% LXd1%% LXd1%% LXd1%% LXd1%% LXd1%% LXd1%% LXd1%% LXd1%% LXd1%% LXd1%% LXd1%% LXd LXd LXd LXd LXd LXd LXd LXd LXd LXd LXd LXd2&& LXd2&& LXd2&& LXd2&& 8LDXPd2&& 8LDXPd2&& 8LDXPd2&& 8LDXPd2&& G8LSDX_Pd2&& G8LSDX_Pd2&& G8LSDX_Pd2&& G8LSDX_Pd2&& G8LSDX_Pd2&& G8LSDX_Pd2&& G8LSDX_Pd2&& G8LSDX_Pd2&& G8LSDX_Pd2&& G8LSDX_Pd2&& G8LSDX_Pd2&& G8LSDX_Pd2&& G8LSDX_Pd2&& G8LSDX_Pd2&& G8LSDX_Pd2&& G8LSDX_Pd2&& G8LSDX_Pd2&& G8LSDX_Pd2&& G8LSDX_Pd2&& G8LSDX_Pd2&& G8LSDX_Pd2&& G8LSDX_Pd2&& G8LSDX_Pd2&& G8LSDX_Pd2&& G8LSDX_Pd2&& G8LSDX_Pd2&& G8LSDX_Pd2&& G8LSDX_Pd2&& G8LSDX_Pd2&& G8LSDX_Pd2&& G8LSDX_Pd2&& G8LSDX_Pd2&& G8LSDX_Pd2&& G8LSDX_Pd2&& G8LSDX_Pd2&& G8LSDX_Pd2&& G8LSDX_Pd2&& G8LSDX_Pd2&& G8LSDX_Pd2&& G8LSDX_Pd2&& G8LSDX_Pd2&& G8LSDX_Pd2&& G8LSDX_Pd2&& G8LSDX_Pd2&& G8LSDX_Pd2&& G8LSDX_Pd2&& G8LSDX_Pd2&& G8LSDX_Pd2&& G8LSDX_Pd2&& G8LSDX_Pd2&& G8LSDX_Pd2&& G8LSDX_Pd2&& G8LSDX_Pd2&& G8LSDX_Pd2&& G8LSDX_Pd2&& G8LSDX_Pd2&& G8LSDX_Pd2&& G8LSDX_Pd2&& G8LSDX_Pd2&& G8LSDX_Pd2&& G8LSDX_Pd2&& G8LSDX_Pd2&& G8LSDX_Pd2&& G8LSDX_Pd2&& G8LSDX_Pd2&& G8LSDX_Pd2&& G8LSDX_Pd2&& G8LSDX_Pd2&& G8LSDX_Pd2&& G8LSDX_Pd2&& G8LSDX_Pd2&& G8LSDX_Pd2&& G8LSDX_Pd2&& G8LSDX_Pd2&& G8LSDX_Pd2&& G8LSDX_Pd2&& G8LSDX_Pd2&& G8LSDX_Pd2&& G8LSDX_Pd2&& G8LSDX_Pd2&& G8LSDX_Pd2&& G8LSDX_Pd2&& G8LSDX_Pd2&& G8LSDX_Pd2&& G8LSDX_Pd2&& G8LSDX_Pd2&& G8LSDX_Pd2&& G8LSDX_Pd2&& G8LSDX_Pd2&& G8LSDX_Pd2&& G8LSDX_Pd2&& G8LSDX_Pd2&& G8LSDX_Pd2&& G8LSDX_Pd2&& G8LSDX_Pd2&& G8LSDX_Pd2&& G8LSDX_Pd2&& G8LSDX_Pd2&& G8LSDX_Pd2&& G8LSDX_Pd2&& G8LSDX_Pd2&& G8LSDX_Pd2&& G8LSDX_Pd2&& G8LSDX_Pd2&& G8LSDX_Pd2&& G8LSDX_Pd2&& G8LSDX_Pd2&& G8LSDX_Pd2&& G8LSDX_Pd2&& G8LSDX_Pd2&& G8LSDX_Pd2&& G8LSDX_Pd2&& G8LSDX_Pd2&& G8LSDX_Pd2&& G8LSDX_Pd2&& G8LSDX_Pd2&& G8LSDX_Pd2&& G89LSDEX_PQd2&& G89LSDEX_PQd2&& G89LSDEX_PQd2&& G89LSDEX_PQd2&& G8E9LSDQEX_P]Qd2&& G8E9LSDQEX_P]Qd2&& G8E9LSDQEX_P]Qd2&& G8E9LSDQEX_P]Qd2&& G8E9LSDQEX_P]Qd2&& 8E9LDQEXP]Qd2&& 8E9LDQEXP]Qd2&& E9LQEX]Qd2&& E9LQEX]Qd2&& E9LQEX]Qd2&& E9LQEX]Qd2&& E9LQEX]Qd2&& E9LQEX]Qd2&& E9LQEX]Qd2&& E9LQEX]Qd2&& E9LQEX]Qd2&& E9LQEX]Qd2&& E9LQEX]Qd2&& E9LQEX]Qd2&& E9LQEX]Qd2&& E9LQEX]Qd2&& E9LQEX]Qd2&& E9LQEX]Qd2&& E9LQEX]Qd2&& E9LQEX]Qd2&& E9LQEX]Qd2&& E9LQEX]Qd2&& E9LQEX]Qd2&& E9LQEX]Qd2&& E9LQEX]Qd2&& E9LQEX]Qd2&& E9LQEX]Qd2&& E9LQEX]Qd2&& E9LQEX]Qd2&& E9LQEX]Qd2&& E9LQEX]Qd2&& E9LQEX]Qd2&& E9LQEX]Qd2&& E9LQEX]Qd2&& E9LQEX]Qd2&& E9LQEX]Qd2&& E9LQEX]Qd2&& E9LQEX]Qd2&& E9LQEX]Qd2&& E9LQEX]Qd2&& E9LQEX]Qd2&& E9LQEX]Qd2&& E9LQEX]Qd2&& E9LQEX]Qd2&& E9LQEX]Qd2&& E9LQEX]Qd2&& E9LQEX]Qd2&& E9LQEX]Qd2&& 9LEXQd2&& 9LEXQd2&& 9LEXQd2&& 9LEXQd2&& 9LEXQd2&& 9LEXQd2&& 9LEXQd2&& 9LEXQd2&& 9LEXQd2&& 9LEXQd2&& 9LEXQd2&& 9LEXQd2&& 9LEXQd2&& 9LEXQd2&& 9LEXQd2&& 9LEXQd2&& 9LEXQd2&& 9LEXQd2&& 9LEXQd2&& 9LEXQd2&& 9LEXQd2&& 9LEXQd2&& 9LEXQd2&& 9LEXQd2&& 9LEXQd2&& 9LEXQd2&& 9LEXQd2&& 9LEXQd2&& 9LEXQd2&& 9LEXQd2&& 9LEXQd2&& 9LEXQd2&& 9LEXQd2&& 9LEXQd2&& 9LEXQd2&& 9LEXQd2&& LXd2&& LXd2&& LXd2&& LXd2&& LXd2&& LXd2&& LXd2&& LXd2&& LXd2&& LXd2&& LXd2&& LXd2&& LXd2&& LXd2&& LXd2&& LXd2&& LXd2&& LXd2&& LXd2&& LXd2&& LXd2&& LXd2&& LXd2&& LXd2&& LXd2&& LXd2&& ;LGXSd2&& D;LPGX\Sd2&& D;LPGX\Sd2&& D;LPGX\Sd2&& D;LPGX\Sd2&& D;LPGX\Sd2&& D;LPGX\Sd2&& D;LPGX\Sd2&& D;LPGX\Sd2&& D;LPGX\Sd2&& D;LPGX\Sd2&& D;LPGX\Sd2&& D;LPGX\Sd2&& D;LPGX\Sd2&& D;LPGX\Sd2&& D;LPGX\Sd2&& D;LPGX\Sd2&& D;LPGX\Sd2&& D;LPGX\Sd2&& D;LPGX\Sd2&& D;LPGX\Sd2&& D;LPGX\Sd2&& D;LPGX\Sd2&& D;LPGX\Sd2&& D;LPGX\Sd2&& D;LPGX\Sd2&& D;LPGX\Sd2&& D;LPGX\Sd2&& D;LPGX\Sd2&& D;LPGX\Sd2&& D;LPGX\Sd2&& D;LPGX\Sd2&& D;LPGX\Sd2&& D;LPGX\Sd2&& D;LPGX\Sd2&& D;LPGX\Sd2&& D;LPGX\Sd2&& D;LPGX\Sd2&& D;LPGX\Sd2&& D;LPGX\Sd2&& ;LGXSd2&& ;LGXSd2&& ;LGXSd2&& ;LGXSd2&& ;LGXSd2&& ;LGXSd2&& ;LGXSd2&& ;LGXSd2&& ;LGXSd2&& ;LGXSd2&& ;LGXSd2&& ;LGXSd2&& ;LGXSd2&& ;LGXSd2&& ;LGXSd2&& ;LGXSd2&& ;LGXSd2&& ;LGXSd2&& ;LGXSd2&& ;LGXSd2&& ;LGXSd2&& ;LGXSd2&& ;LGXSd2&& ;LGXSd2&& ;LGXSd LXd LXd LXd LXd LXd LXd LXd LXd LXd LXd LXd LXd LXd LXd LXd LXd LXd LXd LXd LXd LXd LXd LXd LXd LXd LXd LXd LXd LXd LXd LXd LXd LXd LXd LXd LXd LXd LXd LXd LXd LXd LXd LXd LXd LXd LXd LXd LXd LXd LXd LXd LXd1%% LXd1%% LXd1%% L9XEdQ1%% L9XEdQ1%% L9XEdQ1%% L9XEdQ1%% L9EXEQdQ]1%% L9EXEQdQ]1%% L9EXEQdQ]1%% L9EXEQdQ]1%% L9EXEQdQ]1%% L9EXEQdQ]1%% L9EXEQdQ]1%% L9EXEQdQ]1%% L9EXEQdQ]1%% L9EXEQdQ]1%% L9EXEQdQ]1%% L9EXEQdQ]1%% L9EXEQdQ]1%% L9EXEQdQ]1%% L9EXEQdQ]1%% 9EEQQ]1%% 9EEQQ]1%% 9EEQQ]1%% 9EEQQ]1%% 9EEQQ]1%% 9EEQQ]1%% 9EEQQ]1%% 9EEQQ]1%% 9EEQQ]1%% 9EEQQ]1%% 9EEQQ]1%% 9EEQQ]1%% 9EEQQ]1%% 9EEQQ]1%% 9EEQQ]1%% 9EEQQ]1%% 9EEQQ]1%% 9EEQQ]1%% 9EEQQ]1%% 9EEQQ]1%% 9EEQQ]1%% 9EEQQ]1%% 9EEQQ]1%% 9EEQQ]1%% 9EEQQ]1%% 9EEQQ]1%% 9EEQQ]1%% 9EEQQ]1%% 9EEQQ]1%% 9EEQQ]1%% 9EEQQ]1%% 9EEQQ]1%% 9EEQQ]1%% 9EEQQ]1%% 9EEQQ]1%% 9EEQQ]1%% 9EEQQ]1%% 9EEQQ]1%% 9EEQQ]1%% 9EEQQ]1%% 9EEQQ]1%% 9EEQQ]1%% 9EEQQ]1%% 9EEQQ]1%% 9EEQQ]1%% 9EEQQ]1%% 9EEQQ]1%% 9EEQQ]1%% 9EEQQ]1%% 9EEQQ]1%% 9EEQQ]1%% 9EEQQ]1%% 9EEQQ]1%% 9EEQQ]1%% 9EEQQ]1%% 9EEQQ]1%% 9EEQQ]1%% 9EEQQ]1%% 9EEQQ]1%% 9EEQQ]1%% 9EEQQ]1%% 9EEQQ]1%% 9EEQQ]1%% 9EEQQ]1%% 9EEQQ]1%% 9EEQQ]1%% 9EEQQ]1%% 9EEQQ]1%% 9EEQQ]1%% 9EEQQ]1%% 9EEQQ]1%% 9EEQQ]1%% 9EEQQ]1%% 9EEQQ]1%% 9EEQQ]1%% 9EEQQ]1%% 9EEQQ]1%% 9EEQQ]1%% 9EEQQ]1%% 9EEQQ]1%% 9EEQQ]1%% 9EEQQ]1%% 9EEQQ]1%% 9EEQQ]1%% 9EEQQ]1%% 9EEQQ]1%% 9EEQQ]1%% 9EEQQ]1%% 9EEQQ]1%% 9EEQQ]1%% 9EEQQ]1%% 9EEQQ]1%% 9EEQQ]1%% 9EEQQ]1%% 9EEQQ]1%% 9EEQQ]1%% 9EEQQ]1%% 9EEQQ]1%% 9EEQQ]1%% 9EEQQ]1%% 9EEQQ]1%% 9EEQQ]1%% 9EEQQ]1%% 9;EEGQQS]1%% ;EGQS]1%% ;EGQS]1%% ;EGQS]1%% ;EGQS]1%% ;EGQS]1%% ;EGQS]1%% J;EVGQbS]1%% J;EVGQbS]1%% J;EVGQbS]1%% J;EVGQbS]1%% J;EVGQbS]1%% J;EVGQbS]1%% J;EVGQbS]1%% J;EVGQbS]1%% J;EVGQbS]1%% J;EVGQbS]1%% J;EVGQbS]1%% J;EVGQbS]1%% J;EVGQbS]1%% J;EVGQbS]1%% J;EVGQbS]1%% J;EVGQbS]1%% J;EVGQbS]1%% J;EVGQbS]1%% J;EVGQbS]1%% J;EVGQbS]1%% J;EVGQbS]1%% J;EVGQbS]1%% J;EVGQbS]1%% J;EVGQbS]1%% J;EVGQbS]1%% J;EVGQbS]1%% J;EVGQbS]1%% J;EVGQbS]1%% J;EVGQbS]1%% J;EVGQbS]1%% J;EVGQbS]1%% J;EVGQbS]1%% J;EVGQbS]1%% J;EVGQbS]1%% J;EVGQbS]1%% J;EVGQbS]1%% J;EVGQbS]1%% J;EVGQbS]1%% J;EVGQbS]1%% J;EVGQbS]1%% J;EVGQbS]1%% J;EVGQbS]1%% J;EVGQbS]1%% J;EVGQbS]1%% J;EVGQbS]1%% J;EVGQbS]1%% J;EVGQbS]1%% J;EVGQbS]1%% J;EVGQbS]1%% J;EVGQbS]1%% J;EVGQbS]1%% J;EVGQbS]1%% ;EGQS]1%% ;EGQS]1%% ;EGQS]1%% ;EGQS]1%% ;EGQS]1%% ;EGQS]1%% ;EGQS]1%% ;EGQS]1%% ;EGQS]1%% EQ]1%% EQ]1%% EQ]1%% EQ]1%% EQ]1%% EQ]1%% EQ]1%% EQ]1%% EQ]1%% EQ]1%% EQ]1%% EQ]1%% EQ]1%% EQ]1%% EQ]1%% EQ]1%% EQ]1%% EQ]1%% EQ]1%% EQ]1%% EQ]1%% EQ]1%% EQ]1%% EQ]1%% EQ]1%% EQ]1%% EQ]1%% EQ]1%% EQ]1%% EQ]1%% EQ]1%% EQ]1%% EQ]1%% EQ]1%% EQ]1%% EQ]1%% EQ]1%% EQ]1%% EQ]1%% EQ]1%% EQ]1%% EQ]1%% EQ]1%% EQ]1%% EQ]1%% EQ]1%% EQ]1%% EQ]1%% =EIQU]1%% =EIQU]1%% =EIQU]1%% =EIQU]1%% =EIQU]1%% =EIQU]1%% =EIQU]1%% =EIQU]1%% =LEIXQUd]1%% =LEIXQUd]1%% =LEIXQUd]1%% =LEIXQUd]1%% =LEIXQUd]1%% =LEIXQUd]1%% =LEIXQUd]1%% =LEIXQUd]1%% =LEIXQUd]1%% =LEIXQUd]1%% =LEIXQUd]1%% =LEIXQUd]1%% =LEIXQUd]1%% =LEIXQUd]1%% =LEIXQUd]1%% =LEIXQUd]1%% =LEIXQUd]1%% =LEIXQUd]1%% =LEIXQUd]1%% =LEIXQUd]1%% =LEIXQUd]1%% =LEIXQUd]1%% =LEIXQUd]1%% =LEIXQUd]1%% =LEIXQUd]1%% =LEIXQUd]1%% =LEIXQUd]1%% =LEIXQUd]1%% =LEIXQUd]1%% =LEIXQUd]1%% =LEIXQUd]1%% =LEIXQUd]1%% =LEIXQUd]1%% =LEIXQUd]1%% =LEIXQUd]1%% =LEIXQUd]1%% =LEIXQUd]1%% =LEIXQUd]1%% =LEIXQUd]1%% =LEIXQUd]1%% =LEIXQUd]1%% =LEIXQUd]1%% =LEIXQUd]1%% =LEIXQUd]1%% =LEIXQUd]1%% =LEIXQUd]1%% =LEIXQUd]1%% LEXQd]1%% LEXQd]1%% LEXQd]1%% LEXQd]1%% LEXQd]1%% LEXQd]1%% LEXQd]1%% LEXQd]1%% LEXQd]1%% LEXQd]1%% LEXQd]1%% LEXQd]1%% LEXQd]1%% LEXQd]1%% LEXQd]1%% LEXQd]1%% LEXQd]1%% LEXQd]1%% LEXQd]1%% LEXQd]1%% LEXQd]1%% LEXQd]1%% LEXQd]1%% LEXQd]1%% LEXQd]1%% LEXQd]1%% LEXQd]1%% LEXQd]1%% LEXQd]1%% LEXQd]1%% LEXQd]1%% LEXQd]1%% LEXQd] LEXQd] LEXQd] LEXQd] LEXQd] EQ] EQ] EQ] EQ] EQ] EQ] EQ] EQ] EQ] EQ] EQ] EQ] EQ] EQ] EQ] EQ] EQ] EQ] EQ] EQ] EQ] EQ] EQ] EQ] EQ] EQ]/## >EJQV]/## >EJQV]/## >EJQV]/## >EJQV]/## >EJQV]/## >EJQV]/## >EJQV]/## >EJQV]/## >EJQV]/## >EJQV]/## >EJQV]/## >EJQV]/## >EJQV]/## >NEJZQVf]/## >NEJZQVf]/## >NEJZQVf]/## >NEJZQVf]/## >NEJZQVf]/## >NEJZQVf]/## >NEJZQVf]/## >NEJZQVf]/## >NEJZQVf]/## >NEJZQVf]/## >NEJZQVf]/## >NEJZQVf]/## >NEJZQVf]/## >NEJZQVf]/## >NEJZQVf]/## >NEJZQVf]/## >NEJZQVf]/## >NEJZQVf]/## >NEJZQVf]/## >NEJZQVf]/## >NEJZQVf]/## >NEJZQVf]/## >NEJZQVf]/## >NEJZQVf]/## >NEJZQVf]/## >NEJZQVf]/## >NEJZQVf]/## >NEJZQVf]/## >NEJZQVf]/## >NEJZQVf]/## >NEJZQVf]/## >NEJZQVf]/## >NEJZQVf]/## >NEJZQVf]/## >NEJZQVf]/## >NEJZQVf]/## >NEJZQVf]/## >NEJZQVf]/## >NEJZQVf]/## >NEJZQVf]/## >NEJZQVf]/## >NEJZQVf]/## >NEJZQVf]/## >NEJZQVf]/## >NEJZQVf]/## >NEJZQVf]/## >NEJZQVf]/## >NEJZQVf]/## >NEJZQVf]/## >NEJZQVf]/## >NEJZQVf]/## >NEJZQVf]/## >NEJZQVf]/## >NEJZQVf]/## >NEJZQVf]/## >NEJZQVf]/## >NEJZQVf]/## >NEJZQVf]/## >NEJZQVf]/## >NEJZQVf]/## >NEJZQVf]/## >NEJZQVf]/## >NEJZQVf]/## >NEJZQVf]/## >NEJZQVf]/## >NEJZQVf]/## >NEJZQVf]/## >NEJZQVf]/## >NEJZQVf]/## >NEJZQVf]/## >NEJZQVf]/## >NEJZQVf]/## >NEJZQVf]/## >NEJZQVf]/## >NEJZQVf]/## >NEJZQVf]/## >NEJZQVf]/## >NEJZQVf]/## >NEJZQVf]/## >NEJZQVf]/## >NEJZQVf]/## >NEJZQVf]/## >NEJZQVf]/## >NEJZQVf]/## >NEJZQVf]/## >NEJZQVf]/## >NEJZQVf]/## >NEJZQVf]/## >NEJZQVf]/## >NEJZQVf]/## >NEJZQVf]/## >NEJZQVf]/## >NEJZQVf]/## >NEJZQVf]/## >NEJZQVf]/## >NEJZQVf]/## >NEJZQVf]/## >NEJZQVf]/## >NEJZQVf]/## >NEJZQVf]/## >NEJZQVf]/## >NEJZQVf]/## >NEJZQVf]/## >NEJZQVf]/## >NEJZQVf]/## >NEJZQVf]/## >NEJZQVf]/## >NE@JZQLVf]X/## >NE@JZQLVf]X/## >NE@JZQLVf]X/## >NE@JZQLVf]X/## >NE@JZQLVf]X/## NE@ZQLf]X/## NE@DZQLPf]X\/## NEG@DZQSLPf]_X\/## NEG@DZQSLPf]_X\/## EG@DQSLP]_X\/## G@DSLP_X\/## G@DSLP_X\/## G@DSLP_X\/## G@DSLP_X\/## G@DSLP_X\/## G@DSLP_X\/## G@DSLP_X\/## G@DSLP_X\/## G@DSLP_X\/## G@DSLP_X\/## G@DSLP_X\/## G@DSLP_X\/## G@DSLP_X\/## G@DSLP_X\/## G@DSLP_X\/## G@DSLP_X\/## G@DSLP_X\/## G@DSLP_X\/## G@DSLP_X\/## G@DSLP_X\/## G@DSLP_X\/## G@DSLP_X\/## G@DSLP_X\/## G@DSLP_X\/## G@DSLP_X\/## G@DSLP_X\/## G@DSLP_X\/## G@DSLP_X\/## G@DSLP_X\/## G@DSLP_X\/## G@DSLP_X\/## G@DSLP_X\/## G@DSLP_X\/## G@DSLP_X\/## G@DSLP_X\/## G@DSLP_X\/## G@DSLP_X\/## G@DSLP_X\/## G@DSLP_X\/## G@DSLP_X\/## G@DSLP_X\/## G@DSLP_X\/## G@DSLP_X\/## G@DSLP_X\/## G@DSLP_X\/## G@DSLP_X\/## G@DSLP_X\/## G@DSLP_X\/## G@DSLP_X\/## G@DSLP_X\/## G@DSLP_X\/## G@DSLP_X\/## G@DSLP_X\/## G@DSLP_X\/## G@DSLP_X\/## G@DSLP_X\/## G@DSLP_X\/## G@DSLP_X\/## G@DSLP_X\/## G@DSLP_X\/## @DLPX\/## @DLPX\/## @DLPX\/## @DLPX\/## @DLPX\/## @DLPX\/## @DLPX\/## @DLPX\/## @DLPX\/## @DLPX\/## @DLPX\/## @DLPX\/## @DLPX\/## @DLPX\/## @DLPX\/## @DLPX\/## @DLPX\/## @DLPX\/## DP\/## DP\/## DP\/## DP\/## DP\/## DP\/## DP\/## DP\/## DP\/## DP\/## DP\/## DP\/## DP\/## DP\/## DP\/## DP\/## DP\/## DP\/## DP\/## DP\/## DP\/## DP\/## DP\/## DP\/## DP\/## DP\/## DP\/## DP\/## DP\/## /## /## /## /## BBNNZZ/## BBENNQZZ]/## BBENNQZZ]/## BBENNQZZ]/## BBENNQZZ]/## BBENNQZZ]/## BBENNQZZ]/## BBENNQZZ]/## BBENNQZZ]/## BBENNQZZ]/## BBENNQZZ]/## BBENNQZZ]/## BBENNQZZ]/## BBENNQZZ]/## BBENNQZZ]/## BBENNQZZ]/## BBENNQZZ]/## BBENNQZZ]/## BBENNQZZ]/## BBENNQZZ]/## BBENNQZZ]/## BBENNQZZ]/## BBENNQZZ]/## BBENNQZZ]/## BBENNQZZ]/## BBENNQZZ]/## BBENNQZZ]/## BBENNQZZ]/## BBENNQZZ]/## BBENNQZZ]/## BBENNQZZ]/## BBENNQZZ]/## BBENNQZZ]/## BBENNQZZ]/## BBENNQZZ]/## BBENNQZZ]/## BBENNQZZ]/## BBENNQZZ]/## BBENNQZZ]/## BBENNQZZ]/## BBENNQZZ]/## BBENNQZZ]/## BBENNQZZ]/## BENQZ]/## BENQZ]/## BENQZ]/## BENQZ]/## BENQZ]/## BENQZ]/## BENQZ]/## BENQZ]/## BENQZ]/## BENQZ]/## BENQZ]/## BENQZ]/## BENQZ]/## BENQZ]/## BENQZ]/## BENQZ]/## BENQZ]/## BENQZ]/## BENQZ]/## BENQZ]/## BENQZ]/## BENQZ]/## BENQZ]/## BENQZ]/## BENQZ]/## EQ]/## EQ]/## EQ]/## EQ]/## EQ]/## EQ]/## EQ]/## EQ]/## EQ]/## EQ]/## EQ]/## EQ]/## EQ]/## EQ]/## EQ]/## EQ]/## EQ]/## EQ]/## EQ]/## EQ]/## EQ]/## EQ]/## EQ]/## EQ]/## EQ]/## EQ]/## EQ]/## EQ]/## EQ]/## EQ]/## EQ]/## EQ]/## EQ]/## EQ]/## EQ]/## EQ]/## EQ]/## EQ]/## EQ]/## EQ]/## EQ]/## EQ]/## EQ]/## EQ]/## EQ]/## EQ]/## EQ]/## EQ]/## EQ]/## E@QL]X/## E@QL]X/## ED@QPL]\X/## ED@QPL]\X/## ED@QPL]\X/## ED@QPL]\X/## ED@QPL]\X/## ED@QPL]\X/## D@PL\X/## D@PL\X/## D@PL\X/## D@PL\X/## D@PL\X/## D@PL\X/## D@PL\X/## D@PL\X/## D@PL\X/## D@PL\X/## D@PL\X/## D@PL\X/## D@PL\X/## D@PL\X/## D@PL\X/## D@PL\X/## D@PL\X/## D@PL\X/## D@PL\X/## D@PL\X/## D@PL\X/## D@PL\X/## D@PL\X/## D@PL\X/## D@PL\X/## D@PL\X/## D@PL\X/## D@PL\X/## D@PL\X/## D@PL\X/## D@PL\X/## D@PL\X/## D@PL\X/## D@PL\X/## D@PL\X/## D@PL\X/## D@PL\X/## D@PL\X/## D@PL\X/## D@PL\X/## D@PL\X/## D@PL\X/## D@PL\X/## D@PL\X/## D@PL\X/## D@PL\X/## D@PL\X/## D@PL\X/## D@PL\X/## D@PL\X/## D@PL\X/## D@PL\X/## D@PL\X/## D@PL\X/## D@PL\X/## D@PL\X/## D@PL\X/## D@PL\X/## D@PL\X/## D@PL\X/## D@PL\X/## D@PL\X/## D@PL\X/## D@PL\X/## D@PL\X/## D@PL\X/## D@PL\X/## D@PL\X/## D@PL\X/## D@PL\X/## D@PL\X/## D@PL\X/## D@PL\X/## D@PL\X/## D@PL\X/## D@PL\X/## D@PL\X/## D@PL\X/## D@PL\X/## D@PL\X/## D@PL\X/## D@PL\X/## D@PL\X/## D@PL\X/## D@PL\X/## D@PL\X/## D@PL\X/## D@PL\X/## D@PL\X/## D@PL\X/## D@PL\X/## D@PL\X/## D@PL\X/## D@PL\X/## D@PL\X/## D@PL\X/## D@PL\X/## D@PL\X/## D@PL\X/## D@PL\X/## D@PL\X/## D@PL\X/## D@PL\X/## D@PL\X/## D@PL\X/## D@PL\X/## D@PL\X/## D@PL\X/## D@PL\X/## D@PL\X/## D@PL\X/## @LX/## @LX/## @ELQX]/## @EBLQNX]Z/## @EBLQNX]Z/## EBQN]Z/## EBQN]Z/## EBQN]Z/## EBQN]Z/## EBQN]Z/## EBQN]Z/## EBQN]Z/## EBQN]Z/## EBQN]Z/## EBQN]Z/## EBQN]Z/## EBQN]Z/## EBQN]Z/## EBQN]Z/## EBQN]Z/## EBQN]Z/## EBQN]Z/## EBQN]Z/## EBQN]Z/## EBQN]Z/## EBQN]Z/## EBQN]Z/## EBQN]Z/## EBQN]Z/## EBQN]Z/## EBQN]Z/## EBQN]Z/## EBQN]Z/## EBQN]Z/## EBQN]Z/## EBQN]Z/## EBQN]Z/## EBQN]Z/## EBQN]Z/## EBQN]Z/## EBQN]Z/## EBQN]Z/## EBQN]Z/## EBQN]Z/## EBQN]Z/## EBQN]Z/## EBQN]Z/## EBQN]Z/## EBQN]Z/## EBQN]Z/## EBQN]Z/## BNZ/## BNZ/## BNZ/## BNZ/## BNZ/## BNZ/## BNZ/## BNZ/## BNZ/## BNZ/## BNZ/## BNZ/## BNZ/## BNZ/## BNZ/## BNZ/## BNZ/## BNZ/## BNZ/## BNZ/## BNZ/## BNZ/## BNZ/## BNZ/## BNZ/## BNZ/## BNZ/## BNZ/## BNZ/## BNZ/## BNZ/## BNZ/## BNZ/## BNZ/## BNZ/## BNZ/## BNZ/## BNZ/## BNZ/## BNZ/## BNZ/## BNZ/## BNZ/## BNZ/## BNZ/## BNZ/## BNZ/## BNZ/## BNZ/## BNZ/## BNZ/## BNZ/## BNZ/## BNZ/## BNZ/## BNZ/## /## /## /## /## /## /## /## /## /## /## /## GS_/## GS_/## GS_/## GS_/## GS_/## G>SJ_V/## G>SJ_V/## G>SJ_V/## G>SJ_V/## G>SJ_V/## G>SJ_V/## G>SJ_V/## G>SJ_V/## G>SJ_V/## G>SJ_V/## G>SJ_V/## G>SJ_V/## G>SJ_V/## G>SJ_V/## G>SJ_V/## G>SJ_V/## G>SJ_V/## G>SJ_V/## G>SJ_V/## G>SJ_V/## G>SJ_V/## G>SJ_V/## G>SJ_V/## G>SJ_V/## G>SJ_V/## G>SJ_V/## G>SJ_V/## G>SJ_V/## G>SJ_V/## G>SJ_V/## G>SJ_V/## G>SJ_V/## G>SJ_V/## G>SJ_V/## G>SJ_V/## G>SJ_V/## G>SJ_V/## G>SJ_V/## G>SJ_V/## G>SJ_V/## G>SJ_V/## G>SJ_V/## G>SJ_V/## G>SJ_V/## G>SJ_V/## G>SJ_V/## G>SJ_V/## G>SJ_V/## G>SJ_V/## G>SJ_V/## G>SJ_V/## G>SJ_V/## G>SJ_V/## G>SJ_V/## >JV/## >JV/## >JV/## >JV/## >JV/## >JV/## >JV/## >JV/## >JV/## >JV/## >JV/## >JV/## >JV/## >JV/## /## /## /## /## /## /## /## /## /## /## /## /## /## /## /## /## /## /## /## /## /## /## /## /## /## /## /## /## /## /## /## /##           @LX @LX-!! @LX-!! @LX-!! @LX-!! @LX-!! @LX-!! @LX-!! @LX-!! @LX-!! @LX-!! @LX-!! @LX-!! @LX-!! @LX-!! @LX-!! @LX-!! @LX-!! @LX-!! @LX-!! @LX-!! @LX-!! @LX-!! @LX-!! @LX-!! @LX-!! @LX-!! @LX-!! @LX-!! @LX-!! @LX-!! @LX-!! @LX-!! @LX-!! @LX-!! @LX-!! @LX-!! @LX-!! @LX-!! @LX-!! @LX-!! @LX-!! @LX-!! @LX-!! @LX-!! @LX-!! @LX-!! @LX-!! @LX-!! @LX-!! @LX-!! @LX-!! @LX-!! @LX-!! @LX-!! @LX-!! @LX-!! @LX-!! @LX-!! @LX-!! @LX-!! @LX-!! @LX-!! @LX-!! @LX-!! @LX-!! @LX-!! @LX-!! @LX-!! @LX-!! @LX-!! @LX-!! @LX-!! @LX-!! @LX-!! @LX-!! @LX-!! @LX-!! @LX-!! @LX-!! @LX-!! @LX-!! @LX-!! @LX-!! @LX-!! @LX-!! @LX-!! @LX-!! @LX-!! @LX-!! @LX-!! @LX-!! @LX-!! @LX-!! @LX-!! @LX-!! @LX-!! @LX-!! @LX-!! @LX-!! @LX-!! @LX-!! @LX-!! @LX-!! @LX-!! @LX-!! @LX-!! @LX-!! @LX-!! @LX-!! @LX-!! @LX-!! @LX-!! @LX-!! @LX-!! @LX-!! @LX-!! @LX-!! @LX-!! @LX-!! @LX-!! @LX-!! @LX-!! @LX-!! @LX-!! @LX-!! @LX-!! @LX-!! @LX-!! @LX-!! E@QL]X-!! E@QL]X-!! E@QL]X-!! E@QL]X-!! E@QL]X-!! E@QL]X-!! E@QL]X-!! E@QL]X-!! E@QL]X-!! E@QL]X-!! E@QL]X-!! E@QL]X-!! E@QL]X-!! E@QL]X-!! E@QL]X-!! E@QL]X-!! E@QL]X-!! E@QL]X-!! E@QL]X-!! E@QL]X-!! E@QL]X-!! E@QL]X-!! E@QL]X-!! E@QL]X-!! E@QL]X-!! E@QL]X-!! E@QL]X-!! E@QL]X-!! E@QL]X-!! E@QL]X-!! E@QL]X-!! E@QL]X-!! E@QL]X-!! E@QL]X-!! E@QL]X-!! E@QL]X-!! E@QL]X-!! E@QL]X-!! E@QL]X-!! E@QL]X-!! E@QL]X-!! E@QL]X-!! E@QL]X-!! E@QL]X-!! E@QL]X-!! E@QL]X-!! E@QL]X-!! E@QL]X-!! E@QL]X-!! E@QL]X-!! E@QL]X-!! E@QL]X-!! E@QL]X-!! E@QL]X-!! E@QL]X-!! E@QL]X-!! E@QL]X-!! E@QL]X-!! E@QL]X-!! E@QL]X-!! E@QL]X-!! E@QL]X-!! E@QL]X-!! E@QL]X-!! E@QL]X-!! E@QL]X-!! E@QL]X-!! E@QL]X-!! E@QL]X-!! E@QL]X-!! E@QL]X-!! E@QL]X-!! E@QL]X-!! E@QL]X-!! @LX-!! @LX-!! @LX-!! @LX-!! @LX-!! @LX-!! @LX-!! @LX-!! @LX-!! @LX-!! @LX-!! @LX-!! @LX-!! @LX-!! @LX-!! @LX-!! @LX-!! @LX-!! @LX-!! @LX-!! @LX-!! @LX-!! @LX-!! @LX-!! @LX-!! @LX-!! @LX-!! @LX-!! @LX-!! @LX-!! @LX-!! @LX-!! @LX-!! @LX-!! @LX-!! @LX-!! @LX-!! @LX-!! @LX-!! C@OL[X-!! C@OL[X-!! C@OL[X-!! C@OL[X-!! C@OL[X-!! C@OL[X-!! C@OL[X-!! C@OL[X-!! C@OL[X-!! C@OL[X-!! C@OL[X-!! C@OL[X-!! C@OL[X-!! C@OL[X-!! C@OL[X-!! C@OL[X-!! C@OL[X-!! C@OL[X-!! C@OL[X-!! C@OL[X-!! C@OL[X-!! C@OL[X-!! C@OL[X-!! C@OL[X-!! C@OL[X-!! C@OL[X-!! C@OL[X-!! C@OL[X-!! C@OL[X-!! C@OL[X-!! C@OL[X-!! C@OL[X-!! C@OL[X-!! C@OL[X-!! C@OL[X-!! C@OL[X-!! C@OL[X-!! C@OL[X-!! C@OL[X-!! C@OL[X-!! C@OL[X-!! C@OL[X-!! C@OL[X-!! C@OL[X-!! C@OL[X-!! C@OL[X-!! C@OL[X-!! C@OL[X-!! C@OL[X-!! C@OL[X-!! C@OL[X-!! C@OL[X-!! @LX-!! @LX-!! @LX-!! @LX-!! @LX-!! @LX-!! @LX-!! @LX-!! @LX-!! @LX-!! @LX-!! @LX-!! @LX-!! @LX-!! @LX-!! @LX-!! @LX-!! @LX-!! @LX-!! @LX-!! @LX-!! @LX-!! @LX-!! @LX-!! @LX-!! @LX-!! @LX-!! @LX-!! @LX-!! @LX-!! @LX-!! @LX-!! @LX-!! @LX-!! @LX-!! @LX-!! @LX-!! @LX-!! @LX-!! @LX-!! @LX-!! @LX-!! @LX-!! @LX-!! @LX-!! @LX-!! @LX-!! @LX-!! @LX-!! @LX-!! @LX-!! @LX-!! @LX-!! @LX-!! @LX-!! @LX-!! -!! -!! -!! -!! -!! -!! -!! -!! -!! BNZ-!! BNZ-!! BNZ-!! BNZ-!! BNZ-!! BNZ-!! BNZ-!! BNZ-!! BNZ-!! BNZ-!! BNZ-!! BNZ-!! BNZ-!! BNZ-!! BNZ-!! BNZ-!! BNZ-!! BNZ-!! BNZ-!! BNZ-!! BNZ-!! BNZ-!! BNZ-!! BNZ-!! BNZ-!! BNZ-!! BNZ-!! BNZ-!! BNZ-!! BNZ-!! BNZ-!! BNZ-!! BNZ-!! BNZ-!! BNZ-!! BNZ-!! BNZ-!! BNZ-!! BNZ-!! BNZ-!! BNZ-!! BNZ-!! BNZ-!! BNZ-!! BNZ-!! BNZ-!! BNZ-!! BNZ-!! BNZ-!! BNZ-!! BNZ-!! BNZ-!! BNZ-!! BNZ-!! BNZ-!! BNZ-!! BNZ-!! BNZ-!! BNZ-!! BNZ-!! BNZ-!! BNZ-!! BNZ-!! BNZ-!! BNZ-!! BNZ-!! BNZ-!! BNZ-!! BNZ-!! BNZ-!! BNZ-!! BNZ-!! BNZ-!! BNZ-!! BNZ-!! BNZ-!! BNZ-!! BNZ-!! BNZ-!! BNZ-!! BNZ-!! BNZ-!! BNZ-!! BNZ-!! BNZ-!! BNZ-!! BNZ-!! BNZ-!! BNZ-!! BNZ-!! BNZ-!! BNZ-!! BNZ-!! BNZ-!! BNZ-!! BNZ-!! BNZ-!! BNZ-!! BNZ-!! BNZ-!! BNZ-!! BNZ-!! BNZ-!! BNZ-!! BNZ-!! BNZ-!! BNZ-!! BNZ-!! BNZ-!! BNZ-!! BNZ-!! BNZ-!! BNZ-!! BNZ-!! BNZ-!! BNZ-!! BNZ-!! BNZ-!! BNZ-!! -!! -!! -!! -!! -!! -!! -!! -!! -!! -!! -!! -!! -!! GS_-!! GS_-!! GS_-!! GS_-!! GS_-!! GS_-!! GS_-!! GS_-!! GS_-!! GS_-!! GS_-!! QG]Si_-!! QG]Si_-!! QG]Si_-!! QG]Si_-!! QG]Si_-!! QG]Si_-!! QG]Si_-!! QG]Si_-!! QG]Si_-!! QG]Si_-!! QG]Si_-!! QG]Si_-!! QG]Si_-!! QG]Si_-!! QG]Si_-!! QG]Si_-!! QG]Si_-!! QG]Si_-!! QG]Si_-!! QG]Si_-!! QG]Si_-!! QG]Si_-!! QG]Si_-!! QG]Si_-!! QG]Si_-!! QG]Si_-!! QG]Si_-!! QG]Si_-!! QG]Si_-!! QG]Si_-!! QG]Si_-!! QG]Si_-!! QG]Si_-!! QG]Si_-!! QG]Si_-!! QG]Si_-!! QG]Si_-!! QG]Si_-!! QG]Si_-!! QG]Si_-!! QG]Si_-!! QG]Si_-!! QG]Si_-!! QG]Si_-!! QG]Si_-!! QG]Si_-!! QG]Si_-!! QG]Si_-!! GS_-!! GS_-!! GS_-!! GS_-!! GS_-!! GS_-!! GS_-!! GS_-!! GS_-!! GS_-!! GS_-!! GS_-!! GS_-!! GS_-!! GS_-!! GS_-!! GS_-!! GS_-!! GS_-!! GS_-!! GS_-!! GS_-!! GS_-!! GS_-!! -!! -!! -!! -!! -!! -!! -!! -!! -!! -!! -!! -!! -!! -!! -!! -!! -!! -!! -!! -!! -!! -!! -!! -!! -!! -!! -!! -!! IIUUaa-!! IIUUaa-!! IIUUaa-!! IIUUaa-!! IIUUaa-!! IIUUaa-!! IIUUaa-!! IIUUaa-!! IIUUaa-!! IIUUaa-!! IIUUaa-!! IIUUaa-!! IIUUaa-!! IIUUaa-!! IIUUaa-!! IIUUaa-!! IIUUaa-!! IIUUaa-!! IIUUaa-!! IOIU[Uaga-!! IOIU[Uaga-!! IOIU[Uaga-!! IOIU[Uaga-!! IOIU[Uaga-!! IOIU[Uaga-!! IOIU[Uaga-!! IOIU[Uaga-!! IOIU[Uaga-!! IOIU[Uaga-!! IOIU[Uaga-!! OI[Uga-!! OI[Uga-!! OI[Uga-!! OI[Uga-!! OI[Uga-!! OI[Uga-!! OI[Uga-!! OI[Uga-!! OI[Uga-!! OI[Uga-!! OI[Uga-!! OI[Uga-!! OI[Uga-!! OI[Uga-!! OI[Uga-!! OI[Uga-!! OI[Uga-!! OI[Uga-!! OI[Uga-!! OI[Uga-!! OI[Uga-!! OI[Uga-!! OI[Uga-!! OI[Uga-!! OI[Uga-!! OI[Uga-!! IUa-!! IUa-!! IUa-!! IUa-!! IUa-!! IUa-!! IUa-!! IUa-!! IUa-!! IUa-!! IUa-!! IUa-!! IUa-!! IUa-!! IUa-!! IUa-!! IUa-!! IUa-!! IUa-!! IUa-!! IUa-!! IUa-!! IUa-!! IUa-!! IUa-!! IUa-!! IUa-!! IUa-!! IUa-!! IUa-!! IUa-!! IUa-!! IUa-!! IUa-!! IUa-!! IUa-!! IUa-!! IUa-!! IUa-!! IUa-!! IUa-!! IUa-!! IUa-!! IUa-!! IUa-!! IUa-!! IUa-!! IUa-!! IUa-!! IUa-!! IUa-!! IUa-!! IUa-!! IUa-!! IUa-!! IUa-!! IUa-!! IUa-!! IUa-!! IUa-!! IUa-!! IUa-!! IUa-!! IUa-!! IUa-!! IUa-!! IUa-!! IUa-!! -!! -!! -!! -!! -!! -!! -!! -!! -!! -!! -!! -!! -!! -!! -!! -!! -!! NZf-!! NZf-!! JNVZbf-!! JNVZbf-!! JNVZbf-!! JNVZbf-!! JNVZbf-!! JNVZbf-!! JNVZbf-!! JNVZbf-!! JNVZbf-!! JNVZbf-!! JNVZbf-!! JNVZbf-!! JNVZbf-!! JNVZbf-!! JNVZbf-!! JNVZbf-!! JNVZbf-!! JNVZbf-!! JNVZbf-!! JNVZbf-!! JNVZbf-!! JNVZbf-!! JNVZbf-!! JNVZbf-!! JNVZbf-!! JNVZbf-!! JNVZbf-!! JNVZbf-!! JNVZbf-!! JNVZbf-!! JNVZbf-!! JNVZbf-!! JNVZbf-!! JNVZbf-!! JNVZbf-!! JNVZbf-!! JNVZbf-!! JNVZbf-!! JNVZbf-!! JNVZbf-!! JNVZbf-!! JNVZbf-!! JNVZbf-!! JNVZbf-!! JNVZbf-!! JNVZbf-!! JNVZbf-!! JNVZbf-!! JNVZbf-!! JNVZbf-!! JNVZbf-!! JNVZbf-!! JNVZbf-!! JNVZbf-!! JNVZbf-!! JNVZbf-!! JNVZbf-!! JNVZbf-!! JNVZbf-!! JNVZbf-!! JNVZbf-!! JNVZbf-!! JNVZbf-!! JNVZbf-!! JNVZbf-!! JNVZbf-!! JNVZbf-!! JNVZbf-!! JNVZbf-!! JNVZbf-!! JNVZbf-!! JNVZbf-!! JNVZbf-!! JNVZbf-!! JNVZbf-!! JNVZbf-!! JNVZbf-!! JNVZbf-!! JNVZbf-!! JNVZbf-!! JNVZbf-!! JNVZbf-!! JNVZbf-!! JNVZbf-!! JNVZbf-!! JNVZbf-!! JNVZbf-!! JNVZbf-!! JNVZbf-!! JNVZbf-!! JNVZbf-!! JNVZbf-!! JNVZbf-!! JNVZbf-!! JNVZbf-!! JNVZbf-!! JNVZbf-!! JNVZbf-!! JNVZbf-!! JNVZbf-!! JNVZbf-!! JNVZbf-!! JNVZbf-!! JNVZbf-!! JNVZbf-!! JNVZbf-!! JNVZbf-!! JNVZbf-!! JNVZbf-!! JNVZbf-!! JNVZbf-!! JNVZbf-!! JNVZbf-!! JNVZbf-!! JNLVZXbfd-!! JNLIVZXUbfda-!! JNLIVZXUbfda-!! NLIZXUfda-!! NLIZXUfda-!! NLIZXUfda-!! NLIZXUfda-!! NLIZXUfda-!! NLIZXUfda-!! NLIZXUfda-!! LIXUda-!! LIXUda-!! LIXUda-!! LIXUda-!! LIXUda-!! LIXUda-!! LIXUda-!! LIXUda-!! LIXUda-!! LIXUda-!! LIXUda-!! LIXUda-!! LIXUda-!! LIXUda-!! LIXUda-!! LIXUda-!! LIXUda-!! LIXUda-!! LIXUda-!! LIXUda-!! LIXUda-!! LIXUda-!! LIXUda-!! LIXUda-!! LIXUda-!! LIXUda-!! LIXUda-!! LIXUda-!! LIXUda-!! LIXUda-!! LIXUda-!! LIXUda-!! LIXUda-!! LIXUda-!! LIXUda-!! LIXUda-!! IUa-!! IUa-!! -!! -!! -!! -!! -!! -!! -!! -!! -!! -!! -!! -!! -!! -!! -!! -!! -!! -!! -!! -!! -!! -!! -!! -!! -!! -!! -!! -!! -!! -!! -!! -!! -!! -!! -!! -!! -!! -!! -!! -!! -!! -!! -!! -!! -!! -!! -!! -!! -!! -!! -!! -!! -!! -!! -!! -!! -!! -!! -!! -!! -!! -!! -!! JVb-!! JGVSb_-!! JGVSb_-!! JGVSb_-!! JGVSb_-!! JGVSb_-!! JGVSb_-!! JGVSb_-!! JGVSb_-!! JGVSb_-!! JGVSb_-!! JGVSb_-!! JGVSb_-!! JGVSb_-!! JGVSb_-!! JGVSb_-!! JGVSb_-!! JGVSb_-!! JGVSb_-!! JGVSb_-!! JGVSb_-!! JGVSb_-!! JGVSb_-!! JGVSb_-!! JGVSb_-!! JGVSb_-!! JGVSb_-!! JGVSb_-!! JGVSb_-!! JGVSb_-!! JGVSb_-!! JGVSb_-!! JGVSb_-!! JGVSb_-!! JGVSb_-!! JGVSb_-!! GS_-!! GS_-!! GS_-!! GS_-!! GS_-!! GS_-!! GS_-!! GS_-!! GS_-!! -!! -!! -!! -!! -!! -!! -!! -!! -!! -!! -!! -!! -!! -!! -!! -!! -!! -!! -!! -!! -!! -!! -!! -!! -!! -!! -!! -!! -!! -!! -!! -!! -!! -!! -!! -!! -!! -!! -!! -!! -!! -!! -!! -!! -!! -!! -!! -!! -!! -!! -!! -!! -!! -!! -!! -!! -!! -!! -!! -!! -!! -!! -!! -!! -!! -!! -!! -!! -!! -!! -!! -!! -!! -!! -!! -!! -!! -!! IEUQa]-!! IEUQa]-!! IEUQa]-!! IEUQa]-!! IEUQa]-!! IEUQa]-!! IEUQa]-!! IEUQa]-!! IEUQa]-!! IEUQa]-!! IEUQa]-!! IEUQa]-!! IEUQa]-!! IEUQa]-!! IEUQa]-!! IEUQa]-!! IEUQa]-!! IEUQa]-!! IEUQa]-!! IEUQa]-!! IEUQa]-!! IEUQa]-!! IEUQa]-!! IEUQa]-!! IEUQa]-!! IEUQa]-!! IEUQa]-!! IEUQa]-!! IEUQa]-!! IEUQa]-!! IEUQa]-!! IEUQa]-!! IEUQa]-!! IEUQa]-!! IEUQa]-!! IEUQa]-!! IEUQa]-!! IEUQa]-!! IEUQa]-!! IEUQa]-!! IEUQa]-!! IEUQa]-!! IEUQa]-!! IEUQa]-!! IEUQa]-!! IEUQa]-!! IEUQa]-!! IEUQa]-!! IEUQa]-!! IEUQa]-!! IEUQa]-!! IEUQa]-!! IEUQa]-!! IEUQa]-!! IEUQa]-!! IEUQa]-!! IEUQa]-!! IEUQa]-!! IEUQa]-!! IEUQa]-!! IEUQa]-!! IEUQa]-!! IEUQa]-!! IEUQa]-!! IEUQa]-!! IEUQa]-!! IEUQa]-!! IEUQa]-!! IEUQa]-!! IEUQa]-!! IEUQa]-!! IEUQa]-!! IEUQa]-!! IEUQa]-!! IEUQa]-!! IEUQa]-!! IEUQa]-!! IEUQa]-!! IEUQa]-!! IEUQa]-!! IEUQa]-!! IEUQa]-!! IEUQa]-!! IEUQa]-!! IEUQa]-!! IEUQa]-!! IEUQa]-!! IEUQa]-!! IEUQa]-!! IEUQa]-!! IEUQa]-!! IEUQa]-!! IEUQa]-!! IEUQa]-!! IEUQa]-!! IEUQa]-!! IEUQa]-!! IEUQa]-!! IEUQa]-!! IEUQa]-!! IEUQa]-!! IEUQa]-!! IEUQa]-!! IEUQa]-!! IEUQa]-!! IEUQa]-!! IEUQa]-!! IEUQa]-!! IEUQa]-!! IEUQa]-!! IEUQa]-!! IEUQa]-!! IEUQa]-!! IEUQa]-!! IEUQa]-!! IJ9EUVEQabQ]-!! J9EVEQbQ]-!! J9EVEQbQ]-!! J9EVEQbQ]-!! J9EVEQbQ]-!! J9EVEQbQ]-!! J9EVEQbQ]-!! J9EVEQbQ]-!! J9EVEQbQ]-!! J9EVEQbQ]-!! J9EVEQbQ]-!! J9EVEQbQ]-!! J9EVEQbQ]-!! J9EVEQbQ]-!! J9EVEQbQ]-!! J9EVEQbQ]-!! J9EVEQbQ]-!! J9EVEQbQ]-!! J9EVEQbQ]-!! J9EVEQbQ]-!! J9EVEQbQ]-!! J9EVEQbQ]-!! J9EVEQbQ]-!! J9EVEQbQ]-!! J9EVEQbQ]-!! J9EVEQbQ]-!! J9EVEQbQ]-!! J9EVEQbQ]-!! J9EVEQbQ]-!! J9EVEQbQ]-!! J9EVEQbQ]-!! J9EVEQbQ]-!! J9EVEQbQ]-!! J9EVEQbQ]-!! J9EVEQbQ]-!! J9EVEQbQ]-!! 9EEQQ]-!! 9EEQQ]-!! 9EEQQ]-!! 9EEQQ]-!! 9EEQQ]-!! 9EEQQ]-!! 9EEQQ]-!! 9EEQQ]-!! 9EEQQ]-!! 9EEQQ]-!! 9EEQQ]-!! 9EEQQ]-!! 9EEQQ]-!! 9EEQQ]-!! 9EEQQ]-!! 9EEQQ]-!! 9EEQQ]-!! 9EEQQ]-!! 9EEQQ]-!! 9EEQQ]-!! 9EEQQ]-!! 9EEQQ]-!! 9EEQQ]-!! 9EEQQ]-!! 9EEQQ]-!! 9EEQQ]-!! 9EEQQ]-!! 9EEQQ]-!! 9EEQQ]-!! 9EEQQ]-!! 9EEQQ]-!! 9EEQQ]-!! 9EEQQ]-!! 9EEQQ]-!! 9EEQQ]-!! 9EEQQ]-!! 9EEQQ]-!! 9EEQQ]-!! 9EEQQ]-!! 9EEQQ]-!! 9EEQQ]-!! 9EEQQ]-!! 9EEQQ]-!! 9EEQQ]-!! 9EEQQ]-!! 9EEQQ]-!! 9EEQQ]-!! 9EEQQ]-!! 9EEQQ]-!! 9EEQQ]-!! 9EEQQ]-!! 9EEQQ]-!! EQ]-!! EQ]-!! EQ]-!! EQ]-!! EQ]-!! EQ]-!! EQ]-!! EQ]-!! EQ]-!! EQ]-!! EQ]-!! EQ]-!! EQ]-!! EQ]-!! EQ]-!! EQ]-!! EQ]-!! EQ]-!! EQ]-!! EQ]-!! EQ]-!! 7ECQO]-!! 7ECQO]-!! 7ECQO]-!! 7ECQO]-!! 7ECQO]-!! 7ECQO]-!! 7ECQO]-!! 7ECQO]-!! 7ECQO]-!! 7ECQO]-!! 7ECQO]-!! 7LECXQOd]-!! 7LECXQOd]-!! 7LECXQOd]-!! 7LECXQOd]-!! 7LECXQOd]-!! 7LECXQOd]-!! 7LECXQOd]-!! 7LECXQOd]-!! 7LECXQOd]-!! 7LECXQOd]-!! 7LECXQOd]-!! 7LECXQOd]-!! 7LECXQOd]-!! 7LECXQOd]-!! 7LECXQOd]-!! 7LECXQOd]-!! 7LECXQOd]-!! 7LECXQOd]-!! 7LECXQOd]-!! 7LECXQOd]-!! 7LECXQOd]-!! 7LECXQOd]-!! 7LECXQOd]-!! 7LECXQOd]-!! 7LECXQOd]-!! 7LECXQOd]-!! 7LECXQOd]-!! 7LECXQOd]-!! 7LECXQOd]-!! 7LECXQOd]-!! 7LECXQOd]-!! 7LECXQOd]-!! 7LECXQOd]-!! 7LECXQOd]-!! 7LECXQOd]-!! 7LECXQOd]-!! 7LECXQOd]-!! 7LECXQOd]-!! 7LECXQOd]-!! 7LECXQOd]-!! 7LECXQOd]-!! 7LECXQOd]-!! 7LECXQOd]-!! 7LECXQOd]-!! 7LECXQOd]-!! 7LECXQOd]-!! 7LECXQOd]-!! 7LECXQOd]-!! 7LECXQOd]-!! 7LECXQOd]-!! 7LECXQOd]-!! 7LECXQOd]-!! 7LECXQOd]-!! 7LECXQOd]-!! 7LECXQOd]-!! 7LECXQOd]-!! 7LECXQOd]-!! 7LECXQOd]-!! 7LECXQOd]-!! 7LECXQOd]-!! 7LECXQOd]-!! 7LECXQOd]-!! 7LECXQOd]-!! 7LECXQOd]-!! 7LECXQOd]-!! 7LECXQOd]-!! 7LECXQOd]-!! 7LECXQOd]-!! 7LECXQOd]-!! 7LECXQOd]-!! 7LECXQOd]-!! 7LECXQOd]-!! 7LECXQOd]-!! 7LECXQOd]-!! 7LECXQOd]-!! 7LECXQOd]-!! 7LECXQOd]-!! 7LECXQOd]-!! 7LECXQOd]-!! 7LECXQOd]-!! 7LECXQOd]-!! 7LECXQOd]-!! 7LECXQOd]-!! 7LECXQOd]-!! 7LECXQOd]-!! 7LECXQOd]-!! 7LECXQOd]-!! 7LECXQOd]-!! 7LECXQOd]-!! 7LECXQOd]-!! 7LECXQOd]-!! 7LECXQOd]-!! 7LECXQOd]-!! 7LECXQOd]-!! 7LECXQOd]-!! 7LECXQOd]-!! 7LECXQOd]-!! 7LECXQOd]-!! 7LECXQOd]-!! 7LECXQOd]-!! 7LECXQOd]-!! LEXQd]-!! LEXQd]-!! LEXQd]-!! LEXQd]-!! LEXQd]-!! LEXQd]-!! L6EXBQdN]-!! L6EXBQdN]-!! L6EXBQdN]-!! L6EXBQdN]-!! L6EXBQdN]-!! L6EXBQdN]-!! L6EXBQdN]-!! L6EXBQdN]-!! L6EXBQdN]-!! L6EXBQdN]-!! L6EXBQdN]-!! L6EXBQdN]-!! L6EXBQdN]-!! L6EXBQdN]-!! L6EXBQdN]-!! L6EXBQdN]-!! L6EXBQdN]-!! L6EXBQdN]-!! L6EXBQdN]-!! L6EXBQdN]-!! L6EXBQdN]-!! L6EXBQdN]-!! L6EXBQdN]-!! L6EXBQdN]-!! L6EXBQdN]-!! L6EXBQdN]-!! L6EXBQdN]-!! L6EXBQdN]-!! L6EXBQdN]-!! L6EXBQdN]-!! L6EXBQdN]-!! L6EXBQdN]-!! L6EXBQdN]-!! L6EXBQdN]-!! L6EXBQdN]-!! L6EXBQdN]-!! L6EXBQdN]-!! L6EXBQdN]-!! L6EXBQdN]-!! L6EXBQdN]-!! L6EXBQdN]-!! L6EXBQdN]-!! L6EXBQdN]-!! L6EXBQdN]-!! L6EXBQdN]-!! L6EXBQdN]-!! L6EXBQdN]-!! L6EXBQdN]-!! L6EXBQdN]-!! L6EXBQdN]-!! L6EXBQdN]-!! L6EXBQdN]-!! L6EXBQdN]-!! L6EXBQdN]-!! L6EXBQdN]-!! L6EXBQdN]-!! L6EXBQdN]-!! L6EXBQdN]-!! L6EXBQdN]-!! L6EXBQdN]-!! L6EXBQdN]-!! L6EXBQdN]-!! L6EXBQdN]-!! L6EXBQdN]-!! L6EXBQdN]-!! L6EXBQdN]-!! L6EXBQdN]-!! L6EXBQdN]-!! L6EXBQdN]-!! L6EXBQdN]-!! L6EXBQdN]-!! L6EXBQdN]-!! L6EXBQdN]-!! L6EXBQdN]-!! L6EXBQdN]-!! L6EXBQdN]-!! L6EXBQdN]-!! L6EXBQdN]-!! L6EXBQdN]-!! L6EXBQdN]-!! L6EXBQdN]-!! 6EBQN]-!! 6EBQN]-!! 6EBQN]-!! 6EBQN]-!! 6EBQN]-!! 6EBQN]-!! 6EBQN]-!! 6EBQN]-!! 6EBQN]-!! 6EBQN]-!! 6EBQN]-!! 6EBQN]-!! EQ]-!! EQ]-!! EQ]-!! EQ]-!! EQ]-!! EQ]-!! EQ]-!! EQ]-!! EQ]-!! EQ]-!! EQ]-!! EQ]-!! EQ]-!! EQ]-!! EQ]-!! EQ]-!! EQ]-!! EQ]-!! EQ]-!! EQ]-!! EQ]-!! EQ]-!! EQ]-!! EQ]-!! EQ]-!! J;EVGQbS]-!! BJ;ENVGQZbS]-!! BJ;ENVGQZbS]-!! BJ;ENVGQZbS]-!! BJ;ENVGQZbS]-!! BJ;ENVGQZbS]-!! BJ;ENVGQZbS]-!! BJ;ENVGQZbS]-!! BJ;ENVGQZbS]-!! BJ;ENVGQZbS]-!! BJ;ENVGQZbS]-!! BJ;ENVGQZbS]-!! BJ;ENVGQZbS]-!! BJ;ENVGQZbS]-!! BJ;ENVGQZbS]-!! BJ;ENVGQZbS]-!! BJ;ENVGQZbS]-!! BJ;ENVGQZbS]-!! BJ;ENVGQZbS]-!! BJ;ENVGQZbS]-!! BJ;ENVGQZbS]-!! BJ;ENVGQZbS]-!! BJ;ENVGQZbS]-!! BJ;ENVGQZbS]-!! BJ;ENVGQZbS]-!! BJ;ENVGQZbS]-!! BJ;ENVGQZbS]-!! BJ;ENVGQZbS]-!! BJ;ENVGQZbS]-!! BJ;ENVGQZbS]-!! BJ;ENVGQZbS]-!! BJ;ENVGQZbS]-!! BJ;ENVGQZbS]-!! BJ;ENVGQZbS]-!! BJ;ENVGQZbS]-!! BJ;ENVGQZbS]-!! BJ;ENVGQZbS]-!! BJ;ENVGQZbS]-!! BJ;ENVGQZbS]-!! BJ;ENVGQZbS]-!! BJ;ENVGQZbS]-!! BJ;ENVGQZbS]-!! BJ;ENVGQZbS]-!! BJ;ENVGQZbS]-!! BJ;ENVGQZbS]-!! BJ;ENVGQZbS]-!! BJ;ENVGQZbS]-!! BJ;ENVGQZbS]-!! BJ;ENVGQZbS]-!! BJ;ENVGQZbS]-!! BJ;ENVGQZbS]-!! BJ;ENVGQZbS]-!! BJ;ENVGQZbS]-!! BJ;ENVGQZbS]-!! BJ;ENVGQZbS]-!! BJ;ENVGQZbS]-!! BJ;ENVGQZbS]-!! BJ;ENVGQZbS]-!! BJ;ENVGQZbS]-!! BJ;ENVGQZbS]-!! BJ;ENVGQZbS]-!! BJ;ENVGQZbS]-!! BJ;ENVGQZbS]-!! BJ;ENVGQZbS]-!! J;EVGQbS]-!! J;EVGQbS]-!! J;EVGQbS]-!! J;EVGQbS]-!! J;EVGQbS]-!! J;EVGQbS]-!! J;EVGQbS]-!! J;EVGQbS]-!! J;EVGQbS]-!! J;EVGQbS]-!! J;EVGQbS]-!! J;EVGQbS]-!! J;EVGQbS]-!! J;EVGQbS]-!! J;EVGQbS]-!! J;EVGQbS]-!! J;EVGQbS]-!! J;EVGQbS]-!! J;EVGQbS]-!! J;EVGQbS]-!! J;EVGQbS]-!! J;EVGQbS]-!! ;EGQS]-!! ;EGQS]-!! EQ]-!! EQ]-!! EQ]-!! EQ]-!! EQ]-!! EQ]-!! EQ]-!! EQ]-!! EQ]-!! EQ]-!! EQ]-!! EQ]-!! EQ]-!! EQ]-!! EQ]-!! EQ]-!! EQ]-!! EQ]-!! EQ]-!! EQ]-!! EQ]-!! EQ]-!! EQ]-!! EQ]-!! EQ]-!! EQ]-!! EQ]-!! EQ]-!! EQ]-!! EQ]-!! EQ]-!! EQ]-!! EQ]-!! EQ]-!! EQ]-!! EQ]-!! EQ]-!! EQ]-!! EQ]-!! EQ]-!! EQ]-!! =EIQU]-!! =EIQU]-!! =EIQU]-!! =@EILQUX]-!! =@EILQUX]-!! =@EILQUX]-!! =@EILQUX]-!! =@EILQUX]-!! =@EILQUX]-!! =@EILQUX]-!! =@EILQUX]-!! =@EILQUX]-!! =@EILQUX]-!! =@EILQUX]-!! =@EILQUX]-!! =@EILQUX]-!! =@EILQUX]-!! =@EILQUX]-!! =@EILQUX]-!! =@EILQUX]-!! L=@EXILQdUX]-!! L=@EXILQdUX]-!! L=@EXILQdUX]-!! L=@EXILQdUX]-!! L=@EXILQdUX]-!! L=@EXILQdUX]-!! L=@EXILQdUX]-!! L=@EXILQdUX]-!! L=@EXILQdUX]-!! L=@EXILQdUX]-!! L=@EXILQdUX]-!! L=@EXILQdUX]-!! L=@EXILQdUX]-!! L=@EXILQdUX]-!! L=@EXILQdUX]-!! L=@EXILQdUX]-!! L=@EXILQdUX]-!! L=@EXILQdUX]-!! L=@EXILQdUX]-!! L=@EXILQdUX]-!! L=@EXILQdUX]-!! L=@EXILQdUX]-!! L=@EXILQdUX]-!! L=@EXILQdUX]-!! L=@EXILQdUX]-!! L=@EXILQdUX]-!! L=@EXILQdUX]-!! L=@EXILQdUX]-!! L=@EXILQdUX]-!! L=@EXILQdUX]-!! L=@EXILQdUX]-!! L=@EXILQdUX]-!! L=@EXILQdUX]-!! L=@EXILQdUX]-!! L=@EXILQdUX]-!! L=@EXILQdUX]-!! L=@EXILQdUX]-!! L=@EXILQdUX]-!! L=@EXILQdUX]-!! L=@EXILQdUX]-!! =@EILQUX]-!! =@EILQUX]-!! =@EILQUX]-!! =@EILQUX]-!! =@EILQUX]-!! =@EILQUX]-!! =@EILQUX]-!! =@EILQUX]-!! =@EILQUX]-!! =@EILQUX]-!! =@EILQUX]-!! =@EILQUX]-!! =@EILQUX]-!! =@EILQUX]-!! =@EILQUX]-!! =@EILQUX]-!! =@EILQUX]-!! =@EILQUX]-!! =@EILQUX]-!! =@EILQUX]-!! =@EILQUX]-!! =@EILQUX]-!! =@EILQUX]-!! =@EILQUX]-!! =@EILQUX]-!! =@EILQUX]-!! =@EILQUX]-!! =@EILQUX]-!! =@EILQUX]-!! =@EILQUX]-!! =@EILQUX]-!! =@EILQUX]-!! =@EILQUX]-!! =@EILQUX]-!! =@EILQUX]-!! =@EILQUX]-!! =@EILQUX]-!! =@EILQUX]-!! =@EILQUX]-!! =@EILQUX]-!! =@EILQUX]-!! =@EILQUX]-!! =@EILQUX]-!! =@EILQUX]-!! =@EILQUX]-!! =@EILQUX]-!! =@EILQUX]-!! =@EILQUX]-!! =@EILQUX]-!! =@EILQUX]-!! =@EILQUX]-!! =@EILQUX]-!! =@EILQUX]-!! =@EILQUX]-!! =@EILQUX]-!! =@EILQUX]-!! =@EILQUX]-!! =@EILQUX]-!! =@EILQUX]-!! @ELQX]-!! @ELQX]-!! @ELQX]-!! @E>LQJX]V-!! @E>LQJX]V-!! E>QJ]V-!! E>QJ]V-!! E>QJ]V-!! E>QJ]V-!! E>QJ]V-!! E>QJ]V-!! E>QJ]V-!! E>QJ]V-!! E>QJ]V-!! E>QJ]V-!! E>QJ]V-!! E>QJ]V-!! E>QJ]V-!! E>QJ]V-!! E>QJ]V-!! E>QJ]V-!! EN>QZJ]fV-!! EN>QZJ]fV-!! EN>QZJ]fV-!! EN>QZJ]fV-!! EN>QZJ]fV-!! EN>QZJ]fV-!! EN>QZJ]fV-!! EN>QZJ]fV-!! EN>QZJ]fV-!! EN>QZJ]fV-!! EN>QZJ]fV-!! EN>QZJ]fV-!! EN>QZJ]fV-!! EN>QZJ]fV-!! EN>QZJ]fV-!! EN>QZJ]fV-!! EN>QZJ]fV-!! EN>QZJ]fV-!! EN>QZJ]fV-!! EN>QZJ]fV-!! EN>QZJ]fV-!! EN>QZJ]fV-!! EN>QZJ]fV-!! EN>QZJ]fV-!! EN>QZJ]fV-!! EN>QZJ]fV-!! EN>QZJ]fV-!! EN>QZJ]fV-!! EN>QZJ]fV-!! EN>QZJ]fV-!! EN>QZJ]fV-!! EN>QZJ]fV-!! EN>QZJ]fV-!! EN>QZJ]fV-!! EN>QZJ]fV-!! EN>QZJ]fV-!! EN>QZJ]fV-!! EN>QZJ]fV-!! EN>QZJ]fV-!! EN>QZJ]fV-!! EN>QZJ]fV-!! EN>QZJ]fV-!! EN>QZJ]fV-!! EN>QZJ]fV-!! EN>QZJ]fV-!! EN>QZJ]fV-!! EN>QZJ]fV-!! EN>QZJ]fV-!! EN>QZJ]fV-!! EN>QZJ]fV-!! EN>QZJ]fV-!! EN>QZJ]fV-!! EN>QZJ]fV-!! EN>QZJ]fV-!! EN>QZJ]fV-!! EN>QZJ]fV-!! EN>QZJ]fV-!! EN>QZJ]fV-!! EN>QZJ]fV-!! EN>QZJ]fV-!! EN>QZJ]fV-!! EN>QZJ]fV-!! EN>QZJ]fV-!! EN>QZJ]fV-!! EN>QZJ]fV-!! EN>QZJ]fV-!! EN>QZJ]fV-!! EN>QZJ]fV-!! EN>QZJ]fV-!! EN>QZJ]fV-!! EN>QZJ]fV-!! EN>QZJ]fV-!! EN>QZJ]fV-!! EN>QZJ]fV-!! EN>QZJ]fV-!! EN>QZJ]fV-!! EN>QZJ]fV-!! EN>QZJ]fV-!! EN>QZJ]fV-!! EN>QZJ]fV-!! EN>QZJ]fV-!! EN>QZJ]fV-!! EN>QZJ]fV-!! EN>QZJ]fV-!! EN>QZJ]fV-!! EN>QZJ]fV-!! EN>QZJ]fV-!! EN>QZJ]fV-!! EN>QZJ]fV-!! EN>QZJ]fV-!! EN>QZJ]fV-!! EN>QZJ]fV-!! EN>QZJ]fV-!! EN>QZJ]fV-!! EN>QZJ]fV-!! EN>QZJ]fV-!! EN>QZJ]fV-!! EN>QZJ]fV-!! EN>QZJ]fV-!! EN>QZJ]fV-!! E=N>QIZJ]UfV-!! E=N>QIZJ]UfV-!! E=N>QIZJ]UfV-!! E=N>QIZJ]UfV-!! E=N>QIZJ]UfV-!! E=N>QIZJ]UfV-!! E=N>QIZJ]UfV-!! E=N>QIZJ]UfV-!! E=N>QIZJ]UfV-!! E=N>QIZJ]UfV-!! E=N>QIZJ]UfV-!! E=N>QIZJ]UfV-!! E=N>QIZJ]UfV-!! E=N>QIZJ]UfV-!! E=N>QIZJ]UfV-!! E=N>QIZJ]UfV-!! E=N>QIZJ]UfV-!! E=N>QIZJ]UfV-!! E=N>QIZJ]UfV-!! E=N>QIZJ]UfV-!! E=N>QIZJ]UfV-!! E=N>QIZJ]UfV-!! E=N>QIZJ]UfV-!! E=N>QIZJ]UfV-!! E=N>QIZJ]UfV-!! E=N>QIZJ]UfV-!! E=N>QIZJ]UfV-!! E=N>QIZJ]UfV-!! E=N>QIZJ]UfV-!! E=N>QIZJ]UfV-!! E=N>QIZJ]UfV-!! E=N>QIZJ]UfV-!! E=N>QIZJ]UfV-!! E=N>QIZJ]UfV-!! E=N>QIZJ]UfV-!! E=N>QIZJ]UfV-!! E=N>QIZJ]UfV-!! E=N>QIZJ]UfV-!! E=N>QIZJ]UfV-!! E=N>QIZJ]UfV-!! E=N>QIZJ]UfV-!! E=N>QIZJ]UfV-!! E=N>QIZJ]UfV-!! E=N>QIZJ]UfV-!! E=N>QIZJ]UfV-!! E=N>QIZJ]UfV-!! E=N>QIZJ]UfV-!! E=N>QIZJ]UfV-!! E=N>QIZJ]UfV-!! E=N>QIZJ]UfV-!! E=N>QIZJ]UfV-!! E=N>QIZJ]UfV-!! E=N>QIZJ]UfV-!! E=N>QIZJ]UfV-!! =N>IZJUfV-!! =N>IZJUfV-!! =N>IZJUfV-!! =N>IZJUfV-!! =N>IZJUfV-!! =N>IZJUfV-!! =N>IZJUfV-!! =N>IZJUfV-!! =N>IZJUfV-!! =N>IZJUfV-!! =N>IZJUfV-!! =N>IZJUfV-!! =N>IZJUfV-!! =N>IZJUfV-!! N>ZJfV-!! N>ZJfV-!! N>ZJfV-!! N>ZJfV-!! N>ZJfV-!! N>ZJfV-!! N>ZJfV-!! N>ZJfV-!! N>ZJfV-!! N>ZJfV-!! N>ZJfV-!! N>ZJfV-!! N>ZJfV-!! N>ZJfV-!! N>ZJfV-!! N>ZJfV-!! N>ZJfV-!! N>ZJfV-!! N>ZJfV-!! N>ZJfV-!! N>ZJfV-!! N>ZJfV-!! N>ZJfV-!! N>ZJfV-!! N>ZJfV-!! N>ZJfV-!! N>ZJfV-!! N>ZJfV-!! N>ZJfV-!! N>ZJfV-!! >JV-!! >JV-!! >JV-!! >JV-!! >JV-!! >JV-!! >JV-!! >JV-!! >JV-!! >JV-!! >JV-!! >JV-!! >JV-!! >JV-!! >JV-!! >JV-!! >JV-!! >JV-!! >JV-!! >JV-!! >JV-!! >JV-!! >JV-!! >JV-!! >JV-!! ;>GJSV-!! ;>GJSV-!! ;>GJSV-!! ;>GJSV-!! ;>GJSV-!! ;>GJSV-!! ;>GJSV-!! ;>GJSV-!! ;>GJSV-!! ;>GJSV-!! ;>GJSV-!! ;>GJSV-!! ;>GJSV-!! ;>GJSV-!! P;>\GJhSV-!! PG;>\SGJh_SV-!! PG;>\SGJh_SV-!! PG;>\SGJh_SV-!! PG;>\SGJh_SV-!! PG;>\SGJh_SV-!! PG;>\SGJh_SV-!! PG;>\SGJh_SV-!! PG;>\SGJh_SV-!! PG;>\SGJh_SV-!! PG;>\SGJh_SV-!! PG;>\SGJh_SV-!! PG;>\SGJh_SV-!! PG;>\SGJh_SV-!! PG;>\SGJh_SV-!! PG;>\SGJh_SV-!! PG;>\SGJh_SV-!! PG;>\SGJh_SV-!! PG;>\SGJh_SV-!! PG;>\SGJh_SV-!! PG;>\SGJh_SV-!! PG;>\SGJh_SV-!! PG;>\SGJh_SV-!! PG;>\SGJh_SV-!! PG;>\SGJh_SV-!! PG;>\SGJh_SV-!! PG;>\SGJh_SV-!! PG;>\SGJh_SV-!! PG;>\SGJh_SV-!! PG;>\SGJh_SV-!! PG;>\SGJh_SV-!! PG;>\SGJh_SV-!! PG;>\SGJh_SV-!! PG;>\SGJh_SV-!! PG;>\SGJh_SV-!! PG;>\SGJh_SV-!! G;>SGJ_SV-!! G;>SGJ_SV-!! G;>SGJ_SV-!! G;>SGJ_SV-!! G;>SGJ_SV-!! G;>SGJ_SV-!! ;>GJSV-!! ;>GJSV-!! >JV-!! >JV-!! >JV-!! >JV-!! >JV-!! >JV-!! >JV-!! >JV-!! >JV-!! >JV-!! >JV-!! >JV-!! >JV-!! >JV-!! >JV-!! >JV-!! >JV-!! >JV-!! >JV-!! >JV-!! >JV-!! >JV-!! >JV-!! >JV-!! >JV-!! >JV-!! >JV-!! >JV-!! >JV-!! >JV-!! >JV-!! >JV-!! >JV-!! >JV-!! >JV-!! >JV-!! >JV-!! >JV-!! >JV-!! >JV-!! >JV-!! >JV-!! >JV-!! >JV-!! >JV-!! >JV-!! >JV-!! >JV-!! >JV-!! >JV-!! >JV-!! >JV-!! >JV-!! >JV-!! >JV-!! >JV-!! >JV-!! >JV-!! >JV-!! >JV-!! >JV-!! >JV-!! >JV-!! >JV-!! >JV-!! >JV-!! >JV-!! >JV-!! >JV-!! >JV-!! >JV-!! >JV-!! >JV-!! >JV-!! >JV-!! >JV-!! >@JLVX-!! >@JLVX-!! >@9JLEVXQ-!! >@9JLEVXQ-!! >@9JLEVXQ-!! >@9JLEVXQ-!! >@9JLEVXQ-!! >@9JLEVXQ-!! >@9JLEVXQ-!! >@9JLEVXQ-!! >@9JLEVXQ-!! @9ILEUXQa-!! @9QILE]UXQia-!! @9QILE]UXQia-!! @9QILE]UXQia-!! @9QILE]UXQia-!! @9QILE]UXQia-!! @9QILE]UXQia-!! @9QILE]UXQia-!! @9QILE]UXQia-!! @9QILE]UXQia-!! @9QILE]UXQia-!! @9QILE]UXQia-!! @9QILE]UXQia-!! @9QILE]UXQia-!! @9QILE]UXQia-!! @9QILE]UXQia-!! @9QILE]UXQia-!! @9QILE]UXQia-!! @9QILE]UXQia-!! @9QILE]UXQia-!! @9QILE]UXQia-!! @9QILE]UXQia-!! @9QILE]UXQia-!! @9QILE]UXQia-!! @9QILE]UXQia-!! @9QILE]UXQia-!! @9QILE]UXQia-!! @9QILE]UXQia-!! @9QILE]UXQia-!! @9QILE]UXQia-!! @9QILE]UXQia-!! @9QILE]UXQia-!! @9QILE]UXQia-!! @9QILE]UXQia-!! @9QILE]UXQia-!! @9QILE]UXQia-!! @9QILE]UXQia-!! @9QILE]UXQia-!! @9QILE]UXQia-!! @9QILE]UXQia-!! @9QILE]UXQia-!! @9QILE]UXQia-!! @9QILE]UXQia-!! @9QILE]UXQia-!! @9QILE]UXQia-!! @9QILE]UXQia-!! @9QILE]UXQia-!! @9QILE]UXQia-!! @9QILE]UXQia-!! @9QILE]UXQia-!! @9QILE]UXQia-!! @9QILE]UXQia-!! @9QILE]UXQia-!! @9QILE]UXQia-!! @9QILE]UXQia-!! @9QILE]UXQia-!! @9QILE]UXQia-!! @9QILE]UXQia-!! @9QILE]UXQia-!! @9QILE]UXQia-!! @9QILE]UXQia-!! @9QILE]UXQia-!! @9QILE]UXQia-!! @9QILE]UXQia-!! @9QILE]UXQia-!! @9QILE]UXQia-!! @9QILE]UXQia-!! @9QILE]UXQia-!! @9QILE]UXQia-!! @9QILE]UXQia-!! @9QILE]UXQia-!! @9QILE]UXQia-!! @9QILE]UXQia-!! @9QILE]UXQia-!! @9QILE]UXQia-!! @9QILE]UXQia-!! @9QILE]UXQia-!! @9QILE]UXQia-!! @9QILE]UXQia-!! @9QILE]UXQia-!! @9QILE]UXQia-!! @9QILE]UXQia-!! @9QILE]UXQia-!! @9QILE]UXQia-!! @9QILE]UXQia-!! @9QILE]UXQia-!! @9QILE]UXQia-!! @9QILE]UXQia-!! @9QILE]UXQia-!! @9QILE]UXQia-!! @9QILE]UXQia-!! @9QILE]UXQia-!! @9QILE]UXQia-!! @9QILE]UXQia-!! @9QILE]UXQia-!! @9QILE]UXQia-!! @9QILE]UXQia-!! @9QILE]UXQia-!! @9QILE]UXQia-!! @9QILE]UXQia-!! @9QILE]UXQia-!! @9QILE]UXQia-!! @9QILE]UXQia-!! @9QILE]UXQia-!! @9QILE]UXQia-!! @9QILE]UXQia-!! @9QILE]UXQia-!! @9QILE]UXQia-!! @9QILE]UXQia-!! @9QILE]UXQia-!! @9QILE]UXQia-!! @9QILE]UXQia-!! @9QILE]UXQia-!! @9QILE]UXQia-!! @9QILE]UXQia-!! @9QILE]UXQia-!! @9QILE]UXQia-!! @9QILE]UXQia-!! @9QILE]UXQia-!! @9QILE]UXQia-!! @9QILE]UXQia-!! @9QILE]UXQia-!! @9QILE]UXQia-!! @9QILE]UXQia-!! @9QILE]UXQia-!! @9QILE]UXQia-!! @9QILE]UXQia-!! @9QILE]UXQia-!! @9QILE]UXQia-!! @9QILE]UXQia-!! @9QILE]UXQia-!! @9QILE]UXQia-!! @9QILE]UXQia-!! @9QILE]UXQia-!! @9QILE]UXQia-!! @9QILE]UXQia-!! @9QILE]UXQia-!! @9QILE]UXQia-!! @9QILE]UXQia-!! @9QILE]UXQia-!! @9QILE]UXQia-!! @9QILE]UXQia-!! @9QILE]UXQia-!! @9QILE]UXQia-!! @9QILE]UXQia-!! @9QILE]UXQia-!! @9QILE]UXQia-!! @9QILE]UXQia-!! @9QILE]UXQia-!! @9QILE]UXQia-!! @9QILE]UXQia-!! @9QILE]UXQia-!! @9QILE]UXQia-!! @9QILE]UXQia-!! @9QILE]UXQia-!! @9QILE]UXQia-!! @9QILE]UXQia-!! @9QILE]UXQia-!! @9QILE]UXQia-!! @9QILE]UXQia-!! @9QILE]UXQia-!! @9QILE]UXQia-!! @9QILE]UXQia-!! @9QILE]UXQia-!! @9QILE]UXQia-!! @9QILE]UXQia-!! @9QILE]UXQia-!! @9QILE]UXQia-!! @9QILE]UXQia-!! @9QILE]UXQia-!! @9QILE]UXQia-!! @9QILE]UXQia-!! @9QILE]UXQia-!! @9QILE]UXQia-!! @9QILE]UXQia-!! @9QILE]UXQia-!! @9QILE]UXQia-!! @9QILE]UXQia-!! @9QILE]UXQia-!! @9QILE]UXQia-!! 9QIE]UQia-!! QI]Uia-!! QI]Uia-!! QI]Uia-!! QI]Uia-!! QI]Uia-!! QI]Uia-!! QI]Uia-!! QI]Uia-!! QI]Uia-!! QI]Uia-!! QI]Uia-!! QI]Uia-!! QI]Uia-!! QI]Uia-!! QI]Uia-!! QI]Uia-!! QI]Uia-!! QI]Uia-!! QI]Uia-!! QI]Uia-!! QI]Uia-!! QI]Uia-!! QI]Uia-!! QI]Uia-!! QI]Uia-!! QI]Uia-!! QI]Uia-!! QI]Uia-!! QI]Uia-!! QI]Uia-!! QI]Uia-!! QI]Uia-!! QI]Uia-!! QI]Uia-!! QI]Uia-!! QI]Uia-!! QI]Uia-!! QI]Uia-!! QI]Uia-!! QI]Uia-!! QI]Uia-!! QI]Uia-!! QI]Uia-!! QI]Uia-!! QI]Uia-!! QI]Uia-!! QI]Uia-!! QI]Uia-!! IUa-!! -!! -!! -!! -!! -!! -!! -!! -!! -!! -!! -!! -!! -!! -!! -!! -!! -!! -!! =IU-!! =IU-!! =IU-!! =IU-!! =IU-!! =IU-!! =IU-!! =IU-!! =IU-!! =IU-!! =IU-!! =IU-!! =IU-!! =IU-!! =IU-!! =IU-!! =IU-!! =IU-!! =IU-!! =IU-!! =IU-!! =IU-!! =IU-!! =IU-!! =IU-!! =IU-!! =IU-!! =IU-!! =IU-!! =IU-!! =IU-!! =IU-!! =IU-!! =IU-!! =IU-!! =IU-!! =IU-!! =IU-!! =IU-!! =IU-!! =IU-!! =IU-!! =IU-!! =IU-!! =IU-!! =IU-!! -!! -!! -!! -!! -!! -!! -!! -!! -!! -!! -!! -!! -!! -!! -!! -!! -!! -!! -!! -!! -!! -!! -!! -!! -!! -!! -!! -!! -!! -!! -!! -!! -!! -!! -!!                                       =IU =IU =IU =IU =IU =IU =IU =IU =IU =IU =IU =IU =IU =IU =IU =IU =IU =IU =IU =IU =IU =IU =IU =IU =IU =IU =IU =IU =IU =IU =IU =IU =IU =IU =IU =IU =IU =IU =IU =IU =IU =IU =IU =IU =IU =IU =IU =IU =IU =IU =IU =IU =IU =IU =IU =IU =IU =IU =IU =IU =IU =IU =IU =IU =IU =IU =IU =IU =IU =IU =IU =IU =IU =IU =IU =IU =IU =IU =IU =IU =IU =IU =IU =IU =IU =IU =IU =IU =IU =IU =IU =IU =IU =IU =IU =IU =IU =IU =IU =IU =IU =IU =IU =IU =IU =IU =IU =IU =IU =IU =IU =IU =IU =9IEUQ =9IEUQ =9IEUQ =9IEUQ =9IEUQ 9EQ 9EQ 9EQ 9EQ 9EQ 9EQ 9EQ 9EQ 9EQ 9EQ 9EQ 9EQ 9EQ 9EQ 9EQ 9EQ 9EQ 9EQ 9EQ 9EQ 9EQ 9EQ 9EQ 9EQ 9EQ 9EQ 9EQ 9EQ 9EQ 9EQ 9EQ 9EQ 9EQ                                                                            =IU =IU =IU =IU =IU =IU =IU =IU =IU =IU =IU =IU =IU =IU =IU =IU =IU =IU =IU =IU =IU =IU =IU =IU =IU =IU =IU =IU =IU =IU =IU =IU =IU =IU =IU =IU =IU =IU =IU =IU =IU                                                                                  =IU =IU =IU =IU =IU =IU =IU =IU =IU =IU =IU =IU =IU =IU =IU =IU =IU =IU =IU =IU =IU =IU =IU =IU =IU =IU =IU =IU =IU =IU =IU =IU =IU =IU =IU =IU =IU =IU =IU =IU =IU =IU =IU =IU =IU =IU =IU =IU =IU =IU =IU =IU =IU =IU =IU =IU =IU =IU =IU =IU =IU =IU =IU =IU =IU =IU =IU =IU =IU =IU =IU =IU =IU =IU =IU =IU =IU =IU =IU =IU =IU =IU =IU =IU =IU =IU =IU =IU =IU =IU =IU =IU =IU =IU =IU =IU =IU =IU =IU =IU =IU =IU =IU =IU =IU =IU =IU =IU =IU =IU =IU =IU =IU =IU =IU =IU =IU =IU =8IDUP =8IDUP =8IDUP =8IDUP =8IDUP =8IDUP =8IDUP =8IDUP =8IDUP =8IDUP =8IDUP =8IDUP =8IDUP 8DP 8DP 8DP 8DP 8DP 8DP 8DP 8DP 8DP 8DP 8DP 8DP 8DP 8DP 8DP 8DP 8DP 8DP 8DP 8DP 8DP 8DP 8DP 8DP 8DP 8DP                                                                               =IU =IU =IU =IU =IU =IU =IU =IU =IU =IU =IU =IU =IU =IU =IU =IU =IU =IU =IU =IU =IU =IU =IU =IU =IU =IU =IU =IU =IU =IU =IU =IU =IU =IU =IU =IU =IU =IU =IU =IU =IU                                                                                 9EQ 9EQ 9EQ 9EQ 9EQ 9EQ 9EQ 9EQ 9EQ 9EQ 9EQ 9EQ 9EQ 9EQ 9EQ 9EQ 9EQ 9EQ 9EQ 9EQ 9EQ 9EQ 9EQ 9EQ 9EQ 9EQ 9EQ 9EQ 9EQ 9EQ 9EQ 9EQ 9EQ 9EQ 9EQ 9EQ 9EQ 9EQ 9EQ 9EQ 9EQ 9EQ 9EQ 9EQ 9EQ 9EQ 9EQ 9EQ 9EQ 9EQ 9EQ 9EQ 9EQ 9EQ 9EQ 9EQ 9EQ 9EQ 9EQ 9EQ 9EQ 9EQ 9EQ 9EQ 9EQ 9EQ 9EQ 9EQ 9EQ 9EQ 9EQ 9EQ 9EQ 9EQ 9EQ 9EQ 9EQ 9EQ 9EQ 9EQ 9EQ 9EQ 9EQ 9EQ 9EQ 9EQ 9EQ 9EQ 9EQ 9EQ 9EQ 9EQ 9EQ 9EQ 9EQ 9EQ 9EQ 9EQ 9EQ 9EQ 9EQ 9EQ 9EQ 9EQ 9EQ 9EQ 9EQ 9EQ 9EQ 9EQ 9EQ 9EQ 9EQ 9EQ 9EQ 9EQ 9EQ 9EQ 9EQ 9EQ 96EBQN 96EBQN 96EBQN 96EBQN 96EBQN 96EBQN 96EBQN 96EBQN 96EBQN 6BN 6BN 6BN 6BN 6BN 6BN 6BN 6BN 6BN 6BN 6BN 6BN 6BN 6BN 6BN 6BN 6BN 6BN 6BN 6BN 6BN 6BN 6BN 6BN 6BN 6BN 6BN 6BN 6BN 6BN 6BN 6BN 6BN                                                                BNZ BNZ BNZ BNZ BNZ BNZ BNZ BNZ BNZ BNZ BNZ BNZ BNZ BNZ B:NFZR B:NFZR B:NFZR B:NFZR B:NFZR B:NFZR B:NFZR B:NFZR B:NFZR B:NFZR B:NFZR B:NFZR B:NFZR B:NFZR :FR :FR :FR :FR :FR :FR :FR :FR :FR :FR :FR :FR :FR :FR :FR :FR :FR :FR :FR :FR :FR :FR :FR :FR :FR :FR :FR                                                                       ;GS ;GS ;GS ;GS ;GS B;NGZS B;NGZS B;NGZS B;NGZS B;NGZS B;NGZS B;NGZS B;NGZS B;NGZS B;NGZS B;NGZS B;NGZS B;NGZS B;NGZS B;NGZS B;NGZS B;NGZS B;NGZS B;NGZS B;NGZS B;NGZS B;NGZS B;NGZS B;NGZS B;NGZS B;NGZS B;NGZS B;NGZS B;NGZS B;NGZS B;NGZS B;NGZS B;NGZS B;NGZS B;NGZS B;NGZS B;NGZS B;NGZS B;NGZS B;NGZS B;NGZS B;NGZS B;NGZS B;NGZS B;NGZS B;NGZS B;NGZS B;NGZS B;NGZS B;NGZS B;NGZS B;NGZS B;NGZS B;NGZS B;NGZS B;NGZS B;NGZS B;NGZS B;NGZS B;NGZS B;NGZS B;NGZS B;NGZS B;NGZS B;NGZS B;NGZS B;NGZS B;NGZS B;NGZS B;NGZS B;NGZS B;NGZS B;NGZS B;NGZS B;NGZS B;NGZS B;NGZS B;NGZS B;NGZS B;NGZS B;NGZS B;NGZS B;NGZS B;NGZS B;NGZS B;NGZS B;NGZS B;NGZS B;NGZS B;NGZS B;NGZS B;NGZS B;NGZS B;NGZS B;NGZS B;NGZS B;NGZS B;NGZS B;NGZS B;NGZS B;NGZS B;NGZS B;NGZS B;NGZS B;NGZS B;NGZS B;NGZS B;NGZS B;NGZS B;NGZS B;NGZS B;NGZS B;NGZS B;NGZS B;NGZS B;NGZS B;NGZS B;NGZS B;NGZS B;NGZS B;NGZS B?;NKGZWS B?;NKGZWS B?;NKGZWS B?;NKGZWS B?;NKGZWS ?;KGWS ?;KGWS ?;KGWS ?;KGWS ?;KGWS ?;KGWS ?;KGWS ?;KGWS ?;KGWS ?;KGWS ?;KGWS ?;KGWS ?;KGWS ?;KGWS ?;KGWS ?;KGWS ?;KGWS ?;KGWS ?;KGWS ?;KGWS ?;KGWS ?;KGWS ?;KGWS ?;KGWS ?;KGWS ?;KGWS ?;KGWS ?;KGWS ;GS ;GS ;GS ;GS ;GS ;GS ;GS ;GS ;GS ;GS ;GS ;GS ;GS ;GS ;GS ;GS ;GS ;GS ;GS ;GS ;GS ;GS ;GS ;GS ;GS ;GS ;GS ;GS ;GS ;GS ;GS ;GS ;GS ;GS ;GS ;GS ;GS ;GS ;GS                                               BNZ BNZ BNZ BNZ BNZ BNZ BNZ BNZ BNZ BNZ BNZ BNZ BNZ BNZ BNZ BNZ BNZ BNZ BNZ BNZ BNZ BNZ BNZ BNZ BNZ BNZ BNZ BNZ                                                                              :FR :FR :FR :FR :FR :FR :FR :FR :FR :FR :FR :FR :FR :FR :BFNRZ :BFNRZ :BFNRZ :BFNRZ :BFNRZ :BFNRZ :BFNRZ :BFNRZ :BFNRZ :BFNRZ :BFNRZ :BFNRZ :BFNRZ :BFNRZ :BFNRZ :BFNRZ :BFNRZ :BFNRZ :BFNRZ :BFNRZ :BFNRZ :BFNRZ :BFNRZ :BFNRZ :BFNRZ :BFNRZ :BFNRZ :BFNRZ :BFNRZ :BFNRZ :BFNRZ :BFNRZ :BFNRZ :BFNRZ :BFNRZ :BFNRZ :BFNRZ :BFNRZ :BFNRZ :BFNRZ :BFNRZ :BFNRZ :BFNRZ :BFNRZ :BFNRZ :BFNRZ :BFNRZ :BFNRZ :BFNRZ :BFNRZ :BFNRZ :BFNRZ :BFNRZ :BFNRZ :BFNRZ :BFNRZ :BFNRZ :BFNRZ :BFNRZ :BFNRZ :BFNRZ :BFNRZ :BFNRZ :BFNRZ :BFNRZ :BFNRZ :BFNRZ :BFNRZ :BFNRZ :BFNRZ :BFNRZ :BFNRZ :BFNRZ :BFNRZ :BFNRZ :BFNRZ :BFNRZ :BFNRZ :BFNRZ :BFNRZ :BFNRZ :BFNRZ :BFNRZ :BFNRZ :BFNRZ :BFNRZ :BFNRZ :BFNRZ :BFNRZ :BFNRZ :BFNRZ :BFNRZ :BFNRZ :BFNRZ :BFNRZ :BFNRZ :BFNRZ :BFNRZ :BFNRZ :BFNRZ :BFNRZ :BFNRZ :BFNRZ :BFNRZ :BFNRZ :BFNRZ :BFNRZ :BFNRZ :BFNRZ :BFNRZ :BFNRZ :BFNRZ :BFNRZ :BFNRZ :BFNRZ :BFNRZ :BFNRZ BNZ    =IU =IU =IU =IU =IU =IU =IU =IU =IU =IU =IU =IU =IU =IU =IU =IU =IU =IU =IU =IU =IU =IU =IU =IU =IU =IU =IU =IU                                                                                BNZ BNZ BNZ BNZ BNZ BNZ BNZ BNZ BNZ BNZ BNZ BNZ BNZ BNZ BNZ BNZ BNZ BNZ BNZ BNZ BNZ BNZ BNZ BNZ BNZ BNZ BNZ BNZ BNZ BNZ BNZ BNZ BNZ                                                                                                   ?KW ?KW ?KW ?KW ?KW ?KW ?KW ?KW ?KW ?KW ?KW ?KW ?KW ?KW ?KW ?KW ?KW ?KW ?KW ?KW ?KW ?KW ?KW ?KW ?KW ?KW ?KW ?KW ?KW ?KW ?KW ?KW ?KW ?KW ?KW ?KW ?KW ?KW ?KW ?KW ?KW ?KW ?KW ?KW ?KW ?KW ?KW ?KW ?KW ?KW ?KW ?KW ?KW ?KW ?KW ?KW ?KW ?KW ?KW ?KW ?KW ?KW ?KW ?KW ?KW ?KW ?KW ?KW ?KW ?KW ?KW ?KW ?KW ?KW ?KW ?KW ?KW ?KW ?KW ?KW ?KW ?KW ?KW ?KW ?KW ?KW                                    ;;GGSS ;;GGSS ;;GGSS ;;GGSS ;;GGSS ;;GGSS ;;GGSS ;;GGSS ;;GGSS ;;GGSS ;;GGSS ;;GGSS ;;GGSS ;;GGSS ;;GGSS ;;GGSS ;;GGSS ;;GGSS ;;GGSS ;;GGSS ;;GGSS ;;GGSS ;;GGSS ;;GGSS ;;GGSS ;;GGSS ;;GGSS ;;GGSS ;;GGSS ;;GGSS ;;GGSS ;;GGSS ;;GGSS ;;GGSS ;;GGSS ;;GGSS ;;GGSS ;;GGSS ;;GGSS ;;GGSS ;;GGSS ;;GGSS ;;GGSS ;;GGSS ;;GGSS ;;GGSS ;;GGSS ;;GGSS ;;GGSS ;;GGSS ;;GGSS ;GS ;GS ;GS ;GS ;GS ;GS ;GS ;GS ;GS ;GS ;GS ;GS ;GS ;GS ;GS                                             9EQ 9EQ 9EQ 9EQ 9EQ 9EQ 9EQ 9EQ 9EQ 9EQ G9SE_Q G9SE_Q ?G9KSEW_Q ?G9KSEW_Q ?G9KSEW_Q ?G9KSEW_Q ?G9KSEW_Q ?G9KSEW_Q ?G9KSEW_Q ?G9KSEW_Q ?G9KSEW_Q ?G9KSEW_Q ?G9KSEW_Q ?G9KSEW_Q ?G9KSEW_Q ?G9KSEW_Q ?G9KSEW_Q ?G9KSEW_Q ?G9KSEW_Q ?G9KSEW_Q ?G9KSEW_Q ?G9KSEW_Q ?G9KSEW_Q ?G9KSEW_Q ?G9KSEW_Q ?G9KSEW_Q ?G9KSEW_Q ?G9KSEW_Q ?G9KSEW_Q ?G9KSEW_Q ?G9KSEW_Q ?G9KSEW_Q ?G9KSEW_Q ?G9KSEW_Q ?G9KSEW_Q ?G9KSEW_Q ?G9KSEW_Q ?G9KSEW_Q G9SE_Q G9SE_Q G9SE_Q G9SE_Q 9EQ 9EQ 9EQ 9EQ 9EQ 9EQ 9EQ 9EQ 9EQ 9EQ 9EQ 9EQ 9EQ 9EQ 9EQ 9EQ 9EQ 9EQ 9EQ                                                       8DP 8DP 8DP 8DP 8DP 8DP 8DP 8DP 8DP 8DP 8DP 8DP 8DP 8DP 8DP 8DP 8DP 8DP 8DP 8DP G8SD_P G8@SDL_PX G8@SDL_PX G8@SDL_PX G8@SDL_PX G8@SDL_PX G8@SDL_PX G8@SDL_PX G8@SDL_PX G8@SDL_PX G8@SDL_PX G8@SDL_PX G8@SDL_PX G8@SDL_PX G8@SDL_PX G8@SDL_PX G8@SDL_PX G8@SDL_PX G8@SDL_PX G8@SDL_PX G8@SDL_PX G8@SDL_PX G8@SDL_PX G8@SDL_PX G8@SDL_PX G8@SDL_PX G8@SDL_PX G8@SDL_PX G8@SDL_PX G8@SDL_PX G8@SDL_PX G8@SDL_PX G8@SDL_PX G8@SDL_PX G8@SDL_PX G8@SDL_PX G8@SDL_PX G8@SDL_PX G8@SDL_PX G8@SDL_PX G8@SDL_PX G8@SDL_PX G8@SDL_PX G8@SDL_PX G8@SDL_PX G8@SDL_PX G8@SDL_PX G8@SDL_PX G8@SDL_PX G8@SDL_PX G8@SDL_PX G8@SDL_PX G8@SDL_PX G8@SDL_PX G8@SDL_PX G8@SDL_PX G8@SDL_PX G8@SDL_PX G8@SDL_PX G8@SDL_PX G8@SDL_PX G8@SDL_PX G8@SDL_PX G8@SDL_PX G8@SDL_PX G8@SDL_PX G8@SDL_PX G8@SDL_PX G8@SDL_PX G8@SDL_PX G8@SDL_PX G8@SDL_PX G8@SDL_PX G8@SDL_PX G8@SDL_PX G8@SDL_PX G8@SDL_PX G8@SDL_PX G8@SDL_PX G8@SDL_PX G8@SDL_PX G8@SDL_PX G8@SDL_PX G8@SDL_PX G8@SDL_PX G8@SDL_PX G8@SDL_PX G8@SDL_PX G8@SDL_PX G8@SDL_PX G8@SDL_PX G8@SDL_PX G8@SDL_PX G8@SDL_PX G8@SDL_PX G8@SDL_PX G8@SDL_PX G8@SDL_PX G8@SDL_PX G8@SDL_PX G8@SDL_PX G8@SDL_PX G8@SDL_PX G8@SDL_PX G8@SDL_PX G8@SDL_PX G8@SDL_PX G8@SDL_PX G8@SDL_PX G8@SDL_PX G8@SDL_PX G8@SDL_PX G8@SDL_PX G8@SDL_PX G8@SDL_PX G8@SDL_PX G8@SDL_PX G8@SDL_PX G8@SDL_PX G8@SDL_PX G8@SDL_PX G8@SDL_PX G8@SDL_PX G8@SDL_PX G8@SDL_PX GD8@SPDL_\PX D8@PDL\PX D8@PDL\PX D8@PDL\PX D8@PDL\PX D8@PDL\PX D8@PDL\PX D8@PDL\PX D8@PDL\PX D8@PDL\PX D8@PDL\PX D8@PDL\PX D8@PDL\PX D8@PDL\PX D8@PDL\PX D8@PDL\PX D8@PDL\PX D8@PDL\PX D8@PDL\PX D8@PDL\PX D8@PDL\PX D8@PDL\PX D8@PDL\PX D8@PDL\PX D8@PDL\PX D8@PDL\PX D8@PDL\PX D8@PDL\PX D8@PDL\PX D8@PDL\PX D8@PDL\PX D8@PDL\PX D8@PDL\PX D8@PDL\PX D8@PDL\PX 8@DLPX 8@DLPX 8@DLPX 8@DLPX 8@DLPX 8@DLPX 8@DLPX 8@DLPX 8@DLPX 8@DLPX 8@DLPX 8@DLPX 8@DLPX 8@DLPX 8@DLPX 8@DLPX 8@DLPX 8@DLPX 8@DLPX 8@DLPX 8@DLPX 8@DLPX 8@DLPX 8@DLPX 8@DLPX 8@DLPX 8@DLPX 8@DLPX 8@DLPX 8@DLPX 8@DLPX 8@DLPX 8@DLPX 8@DLPX 8@DLPX 8@DLPX 8@DLPX 8@DLPX 8@DLPX 8@DLPX 8@DLPX 8@DLPX 8@DLPX 8@DLPX 8@DLPX 8@DLPX 8@DLPX 8@DLPX 8@DLPX 8@DLPX 8@DLPX 8@DLPX 8@DLPX @LX @LX @LX @LX @LX @LX @LX @LX @LX @LX @LX @LX @LX @LX @LX @LX @LX @LX @LX @LX @LX @LX @LX @LX @LX @LX @LX @LX @LX @GLSX_ @GLSX_ @GLSX_ @GLSX_ @GLSX_ @GLSX_ @GLSX_ @GLSX_ @GLSX_ @GLSX_ @GLSX_ @GLSX_ @GLSX_ @GLSX_ @GLSX_ @GLSX_ @GLSX_ @GLSX_ @GLSX_ @GLSX_ GS_ GS_ GS_ GS_ GS_ GS_ GS_ GS_ GS_ GS_ GS_ GS_ GS_ GS_                                                                                ;GS ;GS ;GS ;GS ;GS ;GS ;GS ;GS ;GS ;GS ;GS ;GS ;?GKSW G;?SGK_SW G;?SGK_SW G;?SGK_SW G;?SGK_SW G;?SGK_SW G;?SGK_SW G;?SGK_SW G;?SGK_SW G;?SGK_SW G;?SGK_SW G;?SGK_SW G;?SGK_SW G;?SGK_SW G;?SGK_SW G;?SGK_SW G;?SGK_SW G;?SGK_SW G;?SGK_SW G;?SGK_SW G;?SGK_SW G;?SGK_SW G;?SGK_SW G;?SGK_SW G;?SGK_SW G;?SGK_SW G;?SGK_SW G;?SGK_SW G;?SGK_SW G;?SGK_SW G;?SGK_SW G;?SGK_SW G;?SGK_SW G;?SGK_SW G;?SGK_SW G;?SGK_SW G;?SGK_SW G;?SGK_SW G;?SGK_SW G;?SGK_SW G;?SGK_SW G;?SGK_SW G;?SGK_SW G;?SGK_SW G;?SGK_SW G;?SGK_SW G;?SGK_SW G;?SGK_SW G;?SGK_SW G;?SGK_SW G;?SGK_SW G;?SGK_SW G;?SGK_SW G;?SGK_SW G;?SGK_SW G;?SGK_SW G;?SGK_SW G;?SGK_SW G;?SGK_SW G;?SGK_SW G;?SGK_SW G;?SGK_SW G;?SGK_SW G;?SGK_SW G;?SGK_SW G;?SGK_SW G;?SGK_SW G;?SGK_SW G;?SGK_SW G;?SGK_SW G;?SGK_SW G;?SGK_SW G;?SGK_SW G;?SGK_SW G;?SGK_SW G;?SGK_SW G;?SGK_SW G;?SGK_SW G;?SGK_SW G;?SGK_SW G;?SGK_SW G;?SGK_SW G;?SGK_SW G;?SGK_SW G;?SGK_SW G;?SGK_SW G;?SGK_SW G;?SGK_SW G;?SGK_SW G;?SGK_SW G;?SGK_SW G;?SGK_SW G;?SGK_SW G;?SGK_SW G;?SGK_SW G;?SGK_SW G;?SGK_SW G;?SGK_SW G;?SGK_SW G;?SGK_SW G;?SGK_SW G;?SGK_SW G;?SGK_SW G;?SGK_SW G;?SGK_SW G;?SGK_SW G;?SGK_SW G;?SGK_SW G;?SGK_SW G;?SGK_SW G;?SGK_SW G;?SGK_SW G;?SGK_SW G;?SGK_SW G;?SGK_SW G;?SGK_SW G;?SGK_SW G;?SGK_SW G;?SGK_SW G;?SGK_SW G;?SGK_SW G;?SGK_SW G;?SGK_SW G;?SGK_SW GB;?SNGK_ZSW GB;?SNGK_ZSW GB;?SNGK_ZSW B;?NGKZSW B;?NGKZSW B;?NGKZSW B;?NGKZSW B;?NGKZSW B;?NGKZSW B;?NGKZSW B;?NGKZSW B;?NGKZSW B;?NGKZSW B;?NGKZSW B;?NGKZSW B;?NGKZSW B;?NGKZSW B;?NGKZSW B;?NGKZSW B;?NGKZSW B;?NGKZSW B;?NGKZSW B;?NGKZSW B;?NGKZSW B;?NGKZSW B;?NGKZSW B;?NGKZSW B;?NGKZSW B;?NGKZSW B;?NGKZSW B;?NGKZSW B;?NGKZSW B;?NGKZSW B;?NGKZSW B;?NGKZSW B;?NGKZSW B;?NGKZSW B;?NGKZSW ;?GKSW ;?GKSW ;?GKSW ;?GKSW ;?GKSW ;?GKSW ;?GKSW ;?GKSW ;?GKSW ;?GKSW ;?GKSW ;?GKSW ;?GKSW ;?GKSW ;?GKSW ;?GKSW ;?GKSW ;?GKSW ;?GKSW ;?GKSW ;?GKSW ;?GKSW ;?GKSW ;?GKSW ;?GKSW ;?GKSW ;?GKSW ;?GKSW ;?GKSW ;?GKSW ;?GKSW ;?GKSW ;?GKSW ;?GKSW ;?GKSW ;?GKSW ;?GKSW ;?GKSW ;?GKSW ;?GKSW ;?GKSW ;?GKSW ;?GKSW ;?GKSW ;?GKSW ;?GKSW ;?GKSW ;?GKSW ;?GKSW ;?GKSW ;?GKSW ;?GKSW ;?GKSW ;?GKSW ;?GKSW ;?GKSW ;?GKSW ;?GKSW ;?GKSW ;?GKSW ;?GKSW ;?GKSW ;?GKSW ;?GKSW ;?GKSW ?KW ?KW ?KW ?KW ?KW ?KW ?KW ?KW ?KW ?KW ?KW ?KW ?KW ?KW ?KW G?SK_W G?SK_W G?SK_W G?SK_W G?SK_W G?SK_W G?SK_W G?SK_W G?SK_W G?SK_W G?SK_W G?SK_W G?SK_W G?SK_W G?SK_W G?SK_W G?SK_W G?SK_W G?SK_W G?SK_W G?SK_W G?SK_W G?SK_W G?SK_W G?SK_W G?SK_W G?SK_W G?SK_W G?SK_W G?SK_W G?SK_W G?SK_W G?SK_W ?KW                                                                        4@L 4@L 4@L 4@L 4@L 4@L 4@L 4@L 4@L 4@L 4@L 4@L @4L@XL @4L@XL @4L@XL D@4PL@\XL D@4PL@\XL D@4PL@\XL D@4PL@\XL D@4PL@\XL D@4PL@\XL D@4PL@\XL D@4PL@\XL D@4PL@\XL D@4PL@\XL D@4PL@\XL D@4PL@\XL D@4PL@\XL D@4PL@\XL D@4PL@\XL D@4PL@\XL D@4PL@\XL D@4PL@\XL D@4PL@\XL D@4PL@\XL D@4PL@\XL D@4PL@\XL D@4PL@\XL D@4PL@\XL D@4PL@\XL D@4PL@\XL D@4PL@\XL D@4PL@\XL D@4PL@\XL D@4PL@\XL D@4PL@\XL D@4PL@\XL D@4PL@\XL D@4PL@\XL D@4PL@\XL D@4PL@\XL D@4PL@\XL D@4PL@\XL D@4PL@\XL D@4PL@\XL D@4PL@\XL D@4PL@\XL D@4PL@\XL D@4PL@\XL D@4PL@\XL D@4PL@\XL D@4PL@\XL D@4PL@\XL D@4PL@\XL D@4PL@\XL D@4PL@\XL D@4PL@\XL D@4PL@\XL D@4PL@\XL D@4PL@\XL D@4PL@\XL D@4PL@\XL D@4PL@\XL D@4PL@\XL D@4PL@\XL D@4PL@\XL D@4PL@\XL D@4PL@\XL D@4PL@\XL D@4PL@\XL D@4PL@\XL D@4PL@\XL D@4PL@\XL D@4PL@\XL D@4PL@\XL @4L@XL @4L@XL @4L@XL @4L@XL @4L@XL @4L@XL @4L@XL @4L@XL @4L@XL @4L@XL @4L@XL @4L@XL @4L@XL @4L@XL @4L@XL @4L@XL @4L@XL @4L@XL @4L@XL @4L@XL @4L@XL @4L@XL @4L@XL @4L@XL @4L@XL @4L@XL @4L@XL @4L@XL @4L@XL @4L@XL @4L@XL @4L@XL @4L@XL @4L@XL @4L@XL @4L@XL @4L@XL @4L@XL 4@L 4@L 4@L 4@L 4@L 4@L 4@L 4@L 4@L 4@L 4@@LLX 4@@LLX 4@@LLX 4@@LLX 4@@LLX 4@@LLX 4@@LLX 4@@LLX 4@@LLX 4@@LLX 4@@LLX 4@@LLX 4@@LLX 4@@LLX 4@@LLX 4@@LLX 4@@LLX 4@@LLX 4@@LLX 4@@LLX 4@@LLX 4@@LLX @LX @LX @LX @LX @LX @LX @LX @LX @LX @LX @LX @LX @LX @LX @LX @LX @LX @LX @LX                                                                     4@L 4@L 4@L 4@L 4@L 4D>@PJL\V 4D>@PJL\V 4D>@PJL\V 4D>@PJL\V 4D>@PJL\V 4D>@PJL\V 4D>@PJL\V 4D>@PJL\V 4D>@PJL\V 4D>@PJL\V 4D>@PJL\V 4D>@PJL\V 4D>@PJL\V 4D>@PJL\V 4D>@PJL\V 4D>@PJL\V 4D>@PJL\V 4D>@PJL\V 4D>@PJL\V 4D>@PJL\V 4D>@PJL\V 4D>@PJL\V 4D>@PJL\V 4D>@PJL\V 4D>@PJL\V 4D>@PJL\V 4D>@PJL\V 4D>@PJL\V 4D>@PJL\V 4D>@PJL\V 4D>@PJL\V 4D>@PJL\V 4D>@PJL\V 4D>@PJL\V 4D>@PJL\V 4D>@PJL\V D>PJ\V >JV >JV >JV >JV >JV                                                                                 4@L 4@L =E4IQ@U]L =E4IQ@U]L =E4IQ@U]L =E4IQ@U]L =E4IQ@U]L =E4IQ@U]L =E4IQ@U]L =E4IQ@U]L =E4IQ@U]L =E4IQ@U]L =E4IQ@U]L =E4IQ@U]L =E4IQ@U]L =E4IQ@U]L =E4IQ@U]L =E4IQ@U]L =E4IQ@U]L =E4IQ@U]L =E4IQ@U]L =E4IQ@U]L =E4IQ@U]L =E4IQ@U]L =E4IQ@U]L =E4IQ@U]L =E4IQ@U]L =E4IQ@U]L =E4IQ@U]L =E4IQ@U]L =E4IQ@U]L =E4IQ@U]L =E4IQ@U]L =E4IQ@U]L =E4IQ@U]L =E4IQ@U]L =E4IQ@U]L =E4IQ@U]L =E4IQ@U]L =E4IQ@U]L =E4IQ@U]L =E4IQ@U]L =E4IQ@U]L =E4IQ@U]L =E4IQ@U]L =E4IQ@U]L =E4IQ@U]L =E4IQ@U]L =E4IQ@U]L =E4IQ@U]L =E4IQ@U]L =E4IQ@U]L =E4IQ@U]L =E4IQ@U]L =E4IQ@U]L =E4IQ@U]L =E4IQ@U]L =E4IQ@U]L =E4IQ@U]L =E4IQ@U]L =E4IQ@U]L =E4IQ@U]L =E4IQ@U]L =E4IQ@U]L =E4IQ@U]L =E4IQ@U]L =E4IQ@U]L =E4IQ@U]L =E4IQ@U]L =E4IQ@U]L =E4IQ@U]L =E4IQ@U]L =E4IQ@U]L =E4IQ@U]L =E4IQ@U]L =E4IQ@U]L =E4IQ@U]L =E4IQ@U]L =E4IQ@U]L =E4IQ@U]L =E4IQ@U]L =E4IQ@U]L =E4IQ@U]L =E4IQ@U]L =E4IQ@U]L =E4IQ@U]L =E4IQ@U]L =E4IQ@U]L =E4IQ@U]L =E4IQ@U]L =E4IQ@U]L =E4IQ@U]L =E4IQ@U]L =E4IQ@U]L =E4IQ@U]L =E4IQ@U]L =E4IQ@U]L =E4IQ@U]L =E4IQ@U]L =E4IQ@U]L E4Q@]L 4@L 4@L 4@L 4@L 4@L 4@L 4@L 4@L 4@L 4@L 4@L 4@L 4@L 4@L 4@L 4@L 4@L 4@L 4@L 41@=LI 41@=LI 41@=LI 41@=LI 41@=LI 41@=LI 41@=LI 41@=LI 41@=LI 41@=LI 41@=LI 41@=LI 41@=LI 1=I 1=I 1=I 1=I 1=I 1=I 1=I 1=I 1=I 1=I 1=I 1=I 1=I 1=I 1=I 1=I 1=I 1=I 1=I 1=I 1=I 1=I                                                                               4@L 4@L 4@L 4@L 4@L 4@L 4@L 4@L 4@L 4@L 4@L 4@L 4@L 4@L 4@L 4@L 4@L 4@L 4@L 4@L 4@L 4@L 4@L 4@L 4@L 4@L 4@L 4@L 4@L 4@L 4@L 4@L 4@L 4@L 4@L 4@L 4@L 4@L                                                                               >JV >JV >DJPV\ >DJPV\ >DJPV\ >DJPV\ >DJPV\ >D4JP@V\L >D4JP@V\L >D4JP@V\L >D4JP@V\L >D4JP@V\L >D4JP@V\L >D4JP@V\L >D4JP@V\L >D4JP@V\L >D4JP@V\L >D4JP@V\L >D4JP@V\L >D4JP@V\L >D4JP@V\L >D4JP@V\L >D4JP@V\L >D4JP@V\L >D4JP@V\L >D4JP@V\L >D4JP@V\L >D4JP@V\L >D4JP@V\L >D4JP@V\L >D4JP@V\L >D4JP@V\L >D4JP@V\L >D4JP@V\L >D4JP@V\L >D4JP@V\L >D4JP@V\L >D4JP@V\L >D4JP@V\L >D4JP@V\L >D4JP@V\L >D4JP@V\L >D4JP@V\L >D4JP@V\L >D4JP@V\L >D4JP@V\L >D4JP@V\L >D4JP@V\L >D4JP@V\L >D4JP@V\L >D4JP@V\L >D4JP@V\L >D4JP@V\L >D4JP@V\L >D4JP@V\L >D4JP@V\L >D4JP@V\L >D4JP@V\L >D4JP@V\L >D4JP@V\L >D4JP@V\L >D4JP@V\L >D4JP@V\L >D4JP@V\L >D4JP@V\L >D4JP@V\L >D4JP@V\L >D4JP@V\L >D4JP@V\L >D4JP@V\L >D4JP@V\L >D4JP@V\L >D4JP@V\L >D4JP@V\L >D4JP@V\L >D4JP@V\L >D4JP@V\L >D4JP@V\L >D4JP@V\L >D4JP@V\L >D4JP@V\L >D4JP@V\L >D4JP@V\L >D4JP@V\L >D4JP@V\L >D4JP@V\L >D4JP@V\L >D4JP@V\L >D4JP@V\L >D4JP@V\L >D4JP@V\L >D4JP@V\L >D4JP@V\L >D4JP@V\L >D4JP@V\L >D4JP@V\L >D4JP@V\L >D4JP@V\L >D4JP@V\L >D4JP@V\L >D4JP@V\L >D4JP@V\L >D4JP@V\L >D4JP@V\L >D4JP@V\L >D4JP@V\L >D4JP@V\L >D4JP@V\L >D4JP@V\L >D4JP@V\L >D4JP@V\L D4P@\L D4P@\L 4@L 4@L 4@L 4@L 4@L 4@L 4@L 4@L 4@L 4/@;LG 4/@;LG 4/@;LG 4/@;LG 4/@;LG 4/@;LG 4/@;LG 4/@;LG 4/@;LG 4/@;LG 4/@;LG 4/@;LG /;G /;G /;G /;G /;G /;G /;G /;G /;G /;G /;G /;G /;G /;G /;G /;G /;G /;G /;G /;G /;G /;G /;G /;G /;G /;G /;G /;G /;G /;G /;G                                                                       4@L 4@L 4@L 4@L 4@L 4@L 4@L 4@L 4@L 4@L 4@L 4@L 4@L 4@L 4@L 4@L 4@L 4@L 4@L 4@L 4@L 4@L 4@L 4@L 4@L 4@L 4@L 4@L 4@L 4@L 4@L 4@L 4@L 4@L 4@L 4@L 4@L 4@L 4@L 4@L 4@L 4@L 4@L 4@L 4@L 4@L 4@L 4@L                                                                      @LX @ELQX] @ELQX] 1@E=LQIX] 1@E=LQIX] 1@E=LQIX] 1@E=LQIX] 1@E=LQIX] 1@E=LQIX] 1@E=LQIX] 1@E=LQIX] 1@E=LQIX] 1@E=LQIX] 1@E=LQIX] 1@E=LQIX] 1@E=LQIX] 1@E=LQIX] 1@E=LQIX] 1@E=LQIX] 1@E=LQIX] 1@E=LQIX] 1@E=LQIX] 1@E=LQIX] 1@E=LQIX] 1@E=LQIX] 1@E=LQIX] 1@E=LQIX] 1@E=LQIX] 1@E=LQIX] 1@E=LQIX] 1@E=LQIX] 1@E=LQIX] 1@E=LQIX] 1@E=LQIX] 1@E=LQIX] 1@E=LQIX] 1@E=LQIX] 1@E=LQIX] 1@E=LQIX] 1@E=LQIX] 1@E=LQIX] 1@E=LQIX] 1@E=LQIX] 1@E=LQIX] 1@E=LQIX] 1@E=LQIX] 1@E=LQIX] 1@E=LQIX] 1@E=LQIX] 1@E=LQIX] 1@E=LQIX] 1@E=LQIX] 1@E=LQIX] 1@E=LQIX] 1@E=LQIX] 1@E=LQIX] 1@E=LQIX] 1@E=LQIX] 1@E=LQIX] 1@E=LQIX] 1@E=LQIX] 1@E=LQIX] 1@E=LQIX] 1@E=LQIX] 1@E=LQIX] 1@E=LQIX] 1@E=LQIX] 1@E=LQIX] 1@E=LQIX] 1@E=LQIX] 1@E=LQIX] 1@E=LQIX] 1@E=LQIX] 1@E=LQIX] 1@E=LQIX] 1@E=LQIX] 1@E=LQIX] 1@E=LQIX] 1@E=LQIX] 1@E=LQIX] 1@E=LQIX] 1@E=LQIX] 1@E=LQIX] 1@E=LQIX] 1@E=LQIX] 1@E=LQIX] 1@E=LQIX] 1@E=LQIX] 1@E=LQIX] 1@E=LQIX] 1@E=LQIX] 1@E=LQIX] 1@E=LQIX] 1@E=LQIX] 1@E=LQIX] 1@E=LQIX] 1@E=LQIX] 1@E=LQIX] 1@E=LQIX] 1@E=LQIX] 1@E=LQIX] 1@E=LQIX] 1@E=LQIX] 1@E=LQIX] 1@E=LQIX] 1@E=LQIX] 1@E=LQIX] 1@E=LQIX] 1@E=LQIX] 1@E=LQIX] 1@E=LQIX] 1@E=LQIX] 1@E=LQIX] 1@E=LQIX] 1@E=LQIX] 1@E=LQIX] 1@E=LQIX] 1@E=LQIX] 1@E=LQIX] 1@E=LQIX] 1@E=LQIX] 1@E=LQIX] @E-LQ9X]E @E-LQ9X]E @E-LQ9X]E @E-LQ9X]E @E-LQ9X]E @E-LQ9X]E @E-LQ9X]E @E-LQ9X]E @E-LQ9X]E @E-LQ9X]E @E-LQ9X]E @E-LQ9X]E @E-LQ9X]E @E-LQ9X]E @E-LQ9X]E @E-LQ9X]E E-Q9]E E-Q9]E E-Q9]E E-Q9]E E-Q9]E -9E -9E -9E -9E -9E -9E -9E -9E -9E -9E -9E -9E -9E -9E -9E -9E -9E -9E -9E -9E -9E -9E -9E -9E                                                                    /8;DGP /8;DGP /8;DGP /8;DGP /8;DGP /8;DGP /8;DGP /8;DGP /8;DGP /8;DGP /8;DGP /8;DGP /8;DGP /8;DGP /8;DGP /8;DGP /8;DGP /8;DGP /8;DGP /L8;XDGdP /L8;XDGdP /L8;XDGdP /L8;XDGdP /L8;XDGdP /L8;XDGdP /L8;XDGdP /L8;XDGdP /L8;XDGdP /L8;XDGdP /L8;XDGdP /L8;XDGdP /L8;XDGdP /L8;XDGdP /L8;XDGdP /L8;XDGdP /L8;XDGdP /L8;XDGdP /L8;XDGdP /L8;XDGdP /L8;XDGdP /L8;XDGdP /L8;XDGdP /L8;XDGdP /L8;XDGdP /L8;XDGdP /L8;XDGdP /L8;XDGdP /L8;XDGdP /L8;XDGdP /L8;XDGdP 8DP                                                                                 1=I 19=EIQ 19=EIQ 19=EIQ 19=EIQ 19=EIQ 19=EIQ 19=EIQ 19=EIQ 19=EIQ 19=EIQ 19=EIQ 19=EIQ 19=EIQ 19=EIQ 1L9=XEIdQ 1L9=XEIdQ 1L9=XEIdQ 1L9=XEIdQ 1L9=XEIdQ 1L9=XEIdQ 1L9=XEIdQ 1L9=XEIdQ 1L9=XEIdQ 1L9=XEIdQ 1L9=XEIdQ 1L9=XEIdQ 1L9=XEIdQ 1L9=XEIdQ 1L9=XEIdQ 1L9=XEIdQ 1L9=XEIdQ 1L9=XEIdQ 1L9=XEIdQ 1L9=XEIdQ 1L9=XEIdQ 1L9=XEIdQ 1L9=XEIdQ 1L9=XEIdQ 1L9=XEIdQ 1L9=XEIdQ 1L9=XEIdQ 1L9=XEIdQ 1L9=XEIdQ 1L9=XEIdQ 1L9=XEIdQ 1L9=XEIdQ 1L9=XEIdQ 1L9=XEIdQ 1L9=XEIdQ 1L9=XEIdQ 1L9=XEIdQ 1L9=XEIdQ 1L9=XEIdQ 1L9=XEIdQ 1L9=XEIdQ 1L9=XEIdQ 1L9=XEIdQ 1L9=XEIdQ 1L9=XEIdQ 1L9=XEIdQ 1L9=XEIdQ 1L9=XEIdQ 1L9=XEIdQ 1L9=XEIdQ 1L9=XEIdQ 1L9=XEIdQ 1L9=XEIdQ 1L9=XEIdQ 1L9=XEIdQ 1L9=XEIdQ 1L9=XEIdQ 1L9=XEIdQ 1L9=XEIdQ 1L9=XEIdQ 1L9=XEIdQ 1L9=XEIdQ 1L9=XEIdQ 1L9=XEIdQ 1L9=XEIdQ 1L9=XEIdQ 1L9=XEIdQ 1L9=XEIdQ 1L9=XEIdQ 1L9=XEIdQ 1L9=XEIdQ 1L9=XEIdQ 1L9=XEIdQ 1L9=XEIdQ 1L9=XEIdQ 1L9=XEIdQ 1L9=XEIdQ 1L9=XEIdQ 1L9=XEIdQ 1L9=XEIdQ 1L9=XEIdQ 1L9=XEIdQ 1L9=XEIdQ 1L9=XEIdQ 1L9=XEIdQ 1L9=XEIdQ 1L9=XEIdQ 1L9=XEIdQ 1L9=XEIdQ 1L9=XEIdQ 1L9=XEIdQ 1L9=XEIdQ 1L9=XEIdQ 1L9=XEIdQ 1L9=XEIdQ 1L9=XEIdQ 1L9=XEIdQ 1L9=XEIdQ L9XEdQ L9XEdQ L9XEdQ L9XEdQ L9XEdQ L9XEdQ L49X@EdLQ L49X@EdLQ L49X@EdLQ L49X@EdLQ L49X@EdLQ L49X@EdLQ L49X@EdLQ L49X@EdLQ L49X@EdLQ L49X@EdLQ L49X@EdLQ L49X@EdLQ L49X@EdLQ L49X@EdLQ L49X@EdLQ L49X@EdLQ L49X@EdLQ LI49XU@EdaLQ LI49XU@EdaLQ LI49XU@EdaLQ LI49XU@EdaLQ LI49XU@EdaLQ LI49XU@EdaLQ LI49XU@EdaLQ LI49XU@EdaLQ LI49XU@EdaLQ LI49XU@EdaLQ LI49XU@EdaLQ I49U@EaLQ I49U@EaLQ I49U@EaLQ I49U@EaLQ I49U@EaLQ I49U@EaLQ I49U@EaLQ I49U@EaLQ I49U@EaLQ I49U@EaLQ I49U@EaLQ I49U@EaLQ I49U@EaLQ I49U@EaLQ I49U@EaLQ I49U@EaLQ I49U@EaLQ I49U@EaLQ I49U@EaLQ I49U@EaLQ I49U@EaLQ I49U@EaLQ I49U@EaLQ 49@ELQ 49@ELQ 49@ELQ 49@ELQ 49@ELQ 49@ELQ 49@ELQ 49@ELQ 49@ELQ 49@ELQ 49@ELQ 49@ELQ 49@ELQ 49@ELQ 49@ELQ 49@ELQ 49@ELQ 49@ELQ 49@ELQ 49@ELQ 49@ELQ 49@ELQ 49@ELQ 49@ELQ 49@ELQ 49@ELQ 49@ELQ 49@ELQ 49@ELQ 49@ELQ 49@ELQ 49@ELQ 49@ELQ 49@ELQ 49@ELQ 49@ELQ 49@ELQ 49@ELQ 49@ELQ 49@ELQ 49@ELQ 49@ELQ 49@ELQ 49@ELQ 49@ELQ 49@ELQ 49@ELQ 49@ELQ 49@ELQ 49@ELQ 49@ELQ 49@ELQ 49@ELQ 49@ELQ 49@ELQ 49@ELQ 49@ELQ 49@ELQ 49@ELQ 49@ELQ 49@ELQ 49@ELQ 49@ELQ 49@ELQ 49@ELQ 49@ELQ 49@ELQ 49@ELQ 49@ELQ 49@ELQ 49@ELQ 49@ELQ 49@ELQ 49@ELQ 49@ELQ 49@ELQ 49@ELQ 429@>ELJQ 429@>ELJQ 429@>ELJQ 429@>ELJQ 4L29@X>ELdJQ 4L29@X>ELdJQ L29X>EdJQ L29X>EdJQ L29X>EdJQ L29X>EdJQ L29X>EdJQ L29X>EdJQ L29X>EdJQ L29X>EdJQ L29X>EdJQ L29X>EdJQ L29X>EdJQ L29X>EdJQ L29X>EdJQ L29X>EdJQ L29X>EdJQ L29X>EdJQ L29X>EdJQ L29X>EdJQ L29X>EdJQ L29X>EdJQ L29X>EdJQ L29X>EdJQ L29X>EdJQ L29X>EdJQ L29X>EdJQ L29X>EdJQ L29X>EdJQ L29X>EdJQ L29X>EdJQ L29X>EdJQ 29>EJQ 29>EJQ 29>EJQ 29>EJQ 29>EJQ 29>EJQ 29>EJQ 29>EJQ 29>EJQ 29>EJQ 29>EJQ 29>EJQ 29>EJQ 29>EJQ 29>EJQ 29>EJQ 29>EJQ 29>EJQ 29>EJQ 29>EJQ 29>EJQ 29>EJQ 29>EJQ 29>EJQ 29>EJQ 29>EJQ 29>EJQ 29>EJQ 29>EJQ 29>EJQ 29>EJQ 29>EJQ 29>EJQ 29>EJQ 29>EJQ 29>EJQ 29>EJQ 29>EJQ 29>EJQ 29>EJQ 29>EJQ 29>EJQ 29>EJQ 29>EJQ 29>EJQ 29>EJQ 29>EJQ 29>EJQ 29>EJQ 9EQ 9EQ 9EQ 9EQ 9EQ 9EQ 9EQ 9EQ 9EQ 9EQ 9EQ 9EQ 9EQ 9EQ 9EQ 9EQ 9EQ 9EQ 9EQ 9EQ 9EQ 9EQ 9EQ 9EQ 9EQ 9EQ 9EQ 9EQ 9EQ 9EQ 9EQ 9EQ 9EQ 9EQ 94E@QL 94E@QL 94E@QL 94E@QL 94E@QL 94E@QL 94E@QL 94E@QL 94E@QL 94E@QL 94E@QL 94E@QL L94XE@dQL L94XE@dQL L94XE@dQL L94XE@dQL L94XE@dQL L94XE@dQL L94XE@dQL L94XE@dQL L94XE@dQL L94XE@dQL L94XE@dQL L94XE@dQL L94XE@dQL L94XE@dQL L94XE@dQL L94XE@dQL L94XE@dQL L94XE@dQL L94XE@dQL L94XE@dQL L94XE@dQL L94XE@dQL L94XE@dQL L94XE@dQL L94XE@dQL L94XE@dQL L94XE@dQL L94XE@dQL L94XE@dQL L94XE@dQL L94XE@dQL L94XE@dQL L94XE@dQL L94XE@dQL L94XE@dQL L94XE@dQL L94XE@dQL L94XE@dQL L94XE@dQL L94XE@dQL L94XE@dQL L94XE@dQL L94XE@dQL L94XE@dQL L94XE@dQL L94XE@dQL L94XE@dQL L94XE@dQL L94XE@dQL L94XE@dQL L94XE@dQL L94XE@dQL L94XE@dQL L94XE@dQL L94XE@dQL L94XE@dQL L94XE@dQL L94XE@dQL L94XE@dQL L94XE@dQL L94XE@dQL L94XE@dQL L94XE@dQL L94XE@dQL L94XE@dQL L94XE@dQL L94XE@dQL L94XE@dQL L94XE@dQL L94XE@dQL L94XE@dQL L94XE@dQL L94XE@dQL L94XE@dQL L94XE@dQL L94XE@dQL L94XE@dQL L94XE@dQL L94XE@dQL L94XE@dQL L94XE@dQL L94XE@dQL L94XE@dQL L94XE@dQL L94XE@dQL L94XE@dQL L94XE@dQL L94XE@dQL L94XE@dQL L94XE@dQL L94XE@dQL L94XE@dQL L94XE@dQL L94XE@dQL L94XE@dQL L94XE@dQL L94XE@dQL L94XE@dQL L94XE@dQL L94XE@dQL L94XE@dQL L94XE@dQL L94XE@dQL L94XE@dQL L94XE@dQL L94XE@dQL L94XE@dQL L94XE@dQL L94XE@dQL L94XE@dQL L94XE@dQL L94XE@dQL L94XE@dQL L94XE@dQL L94XE@dQL L94XE@dQL LG94XSE@d_QL LG94XSE@d_QL LG94XSE@d_QL LG94XSE@d_QL LG94XSE@d_QL LG94XSE@d_QL LG94XSE@d_QL LG94XSE@d_QL LG94XSE@d_QL LG94XSE@d_QL G94SE@_QL G94SE@_QL G94SE@_QL G94SE@_QL G94SE@_QL G94SE@_QL G94SE@_QL G94SE@_QL G94SE@_QL G94SE@_QL G94SE@_QL G94SE@_QL G94SE@_QL G94SE@_QL G94SE@_QL G94SE@_QL G94SE@_QL G94SE@_QL G94SE@_QL G94SE@_QL G94SE@_QL G94SE@_QL G94SE@_QL 94E@QL 94E@QL 94E@QL 94E@QL 94E@QL 94E@QL 94E@QL 94E@QL 94E@QL 94E@QL 94E@QL 94E@QL 94E@QL 94E@QL 94E@QL 94E@QL 94E@QL 94E@QL 94E@QL 94E@QL 94E@QL 94E@QL 94E@QL 94E@QL 94E@QL 94E@QL 94E@QL 94E@QL 94E@QL 94E@QL 94E@QL 94E@QL 94E@QL 94E@QL 94E@QL 94E@QL 94E@QL 94E@QL 94E@QL 94E@QL 94E@QL 94E@QL 94E@QL 94E@QL 94E@QL 94E@QL 94E@QL 94E@QL 94E@QL 94E@QL 94E@QL 94E@QL 94E@QL 94E@QL 94E@QL 94E@QL 94E@QL 94E@QL 94E@QL 94E@QL 94E@QL 94E@QL 4@L 4@L 4@L 4@L 4@L 4@L 4@L 4@L 4@L 4@L 4@L 4@L 4@L 4@L 4@L 4@L 48@DLP 48@DLP 48@DLP 48@DLP 48L@DXLPd 48L@DXLPd 48L@DXLPd 48L@DXLPd 48L@DXLPd 48L@DXLPd 48L@DXLPd 48L@DXLPd 48L@DXLPd 8LDXPd 8LDXPd 8LDXPd 8LDXPd 8LDXPd 8LDXPd 8LDXPd 8LDXPd 8LDXPd 8LDXPd 8LDXPd 8LDXPd 8LDXPd 8LDXPd 8LDXPd 8LDXPd 8LDXPd 8LDXPd 8LDXPd 8LDXPd 8LDXPd 8LDXPd 8LDXPd 8LDXPd LXd LXd LXd LXd LXd LXd LXd LXd LXd LXd                                                                                I9UEaQ I9UEaQ I9UEaQ I9UEaQ I9UEaQ I9UEaQ I9UEaQ I9UEaQ I9UEaQ I9UEaQ I9UEaQ I9UEaQ I9UEaQ I9UEaQ I9UEaQ I9UEaQ I9UEaQ I9UEaQ I9UEaQ I9UEaQ I9UEaQ I9UEaQ I9UEaQ I9UEaQ I9UEaQ I9UEaQ I9UEaQ I9UEaQ I9UEaQ I9UEaQ I9UEaQ I9UEaQ I9UEaQ I9UEaQ I9UEaQ I9UEaQ I9UEaQ I9UEaQ I9UEaQ I9UEaQ I9UEaQ I9UEaQ I9UEaQ I9UEaQ I9UEaQ I9UEaQ I9UEaQ I9UEaQ I9UEaQ I9UEaQ I9UEaQ I9UEaQ I9UEaQ I9UEaQ I9UEaQ I9UEaQ I9UEaQ I9UEaQ I9UEaQ I9UEaQ I9UEaQ I9UEaQ I9UEaQ I9UEaQ I9UEaQ I9UEaQ I9UEaQ I9UEaQ I9UEaQ I9UEaQ I9UEaQ I9UEaQ I9UEaQ I9UEaQ I9UEaQ I9UEaQ I9UEaQ I9UEaQ I9UEaQ I9UEaQ I9UEaQ I9UEaQ I9UEaQ I9UEaQ I9UEaQ I9UEaQ I9UEaQ I9UEaQ I9UEaQ I9UEaQ I9UEaQ I9UEaQ I9UEaQ I9UEaQ I9UEaQ I9UEaQ I9UEaQ I9UEaQ I9UEaQ I9UEaQ I9UEaQ I9UEaQ I9UEaQ I9UEaQ I9UEaQ I9UEaQ I9UEaQ I9UEaQ I9UEaQ I9UEaQ I9UEaQ I9UEaQ I9UEaQ I9UEaQ I9UEaQ I=9UIEaUQ I=9UIEaUQ I=9UIEaUQ I=9UIEaUQ I=9UIEaUQ I=9UIEaUQ I=9UIEaUQ I=9UIEaUQ IE=9UQIEa]UQ IE=9UQIEa]UQ IE=9UQIEa]UQ E=9QIE]UQ E=9QIE]UQ E=9QIE]UQ E=9QIE]UQ E=9QIE]UQ E=9QIE]UQ E=9QIE]UQ E=9QIE]UQ E=9QIE]UQ E=9QIE]UQ E=9QIE]UQ E=9QIE]UQ E=9QIE]UQ E=9QIE]UQ E=9QIE]UQ E=9QIE]UQ E=9QIE]UQ E=9QIE]UQ E=9QIE]UQ E=9QIE]UQ E=9QIE]UQ E=9QIE]UQ E=9QIE]UQ E=9QIE]UQ E=9QIE]UQ E=9QIE]UQ E=9QIE]UQ E=9QIE]UQ E=9QIE]UQ E=9QIE]UQ E=9QIE]UQ E=9QIE]UQ E=9QIE]UQ E=9QIE]UQ E=9QIE]UQ E=9QIE]UQ E=9QIE]UQ E=9QIE]UQ E=9QIE]UQ =9IEUQ =9IEUQ =9IEUQ =9IEUQ =9IEUQ =9IEUQ =9IEUQ =9IEUQ =9IEUQ =9IEUQ =9IEUQ =9IEUQ =9IEUQ =9IEUQ =9IEUQ =9IEUQ =9IEUQ =9IEUQ =9IEUQ =9IEUQ =9IEUQ =9IEUQ =9IEUQ =9IEUQ =9IEUQ =9IEUQ =9IEUQ =9IEUQ =9IEUQ =9IEUQ =9IEUQ =9IEUQ =9IEUQ =9IEUQ =9IEUQ =9IEUQ =9IEUQ =9IEUQ =9IEUQ =9IEUQ =9IEUQ =9IEUQ =9IEUQ =9IEUQ =9IEUQ =9IEUQ =9IEUQ =9IEUQ =9IEUQ =9IEUQ =9IEUQ =9IEUQ =9IEUQ =9IEUQ =9IEUQ =9IEUQ =9IEUQ =9IEUQ =9IEUQ =9IEUQ =9IEUQ =9IEUQ =9IEUQ =9IEUQ =9IEUQ =9IEUQ =9IEUQ =9IEUQ =9IEUQ =9IEUQ =9IEUQ =9IEUQ =9IEUQ =9IEUQ =9IEUQ =9IIEUUQa =9IIEUUQa =9IIEUUQa =9IIEUUQa =9I@IEULUQaX =9I@IEULUQaX =9I@IEULUQaX =9I@IEULUQaX =9I@IEULUQaX =9I@IEULUQaX =9I@IEULUQaX =9I@IEULUQaX =9I@IEULUQaX 9I@EULQaX 9I@EULQaX 9I@EULQaX 9I@EULQaX 9I@EULQaX 9I@EULQaX 9I@EULQaX 9I@EULQaX 9I@EULQaX 9I@EULQaX 9I@EULQaX 9I@EULQaX 9I@EULQaX 9I@EULQaX 9I@EULQaX I@ULaX I@ULaX I@ULaX I@ULaX I@ULaX @LX @LX @LX @LX @LX @LX @LX @LX @LX @LX @LX @LX @LX @LX @LX @LX @LX @LX @LX @LX @LX @LX @LX @LX @LX @LX @LX @LX @LX @LX @LX @LX @LX @LX @LX @LX @LX @LX @LX @LX @LX @LX @LX @LX @LX @LX @LX @LX @LX @LX @LX @LX @LX @LX @LX @LX @LX @LX @LX @LX @LX @LX @LX @LX @LX @LX @LX @LX @LX @LX @LX @LX @LX @LX @LX @LX @LX @LX @LX @9LEXQ @9LEXQ @9LEXQ @9LEXQ @9LEXQ @9LEXQ @9LEXQ @9LEXQ @9LEXQ @9LEXQ @9LEXQ @9LEXQ @9LEXQ @I9LUEXaQ @I9LUEXaQ @I9LUEXaQ @I9LUEXaQ @I9LUEXaQ @I9LUEXaQ @I9LUEXaQ @I9LUEXaQ @I9LUEXaQ @I9LUEXaQ @I9LUEXaQ @I9LUEXaQ @I9LUEXaQ @I9LUEXaQ @I9LUEXaQ @I9LUEXaQ @I9LUEXaQ @I9LUEXaQ @I9LUEXaQ @I9LUEXaQ @I9LUEXaQ @I9LUEXaQ @I9LUEXaQ @I9LUEXaQ @I9LUEXaQ @I9LUEXaQ @I9LUEXaQ @I9LUEXaQ @I9LUEXaQ @I9LUEXaQ @I9LUEXaQ @I9LUEXaQ @I9LUEXaQ @I9LUEXaQ @I9LUEXaQ @I9LUEXaQ @I9LUEXaQ @I9LUEXaQ @I9LUEXaQ @I9LUEXaQ @I9LUEXaQ @I9LUEXaQ @I9LUEXaQ @I9LUEXaQ @I9LUEXaQ @I9LUEXaQ @I9LUEXaQ @I9LUEXaQ @I9LUEXaQ @I9LUEXaQ @I9LUEXaQ @I9LUEXaQ @I9LUEXaQ @I9LUEXaQ @I9LUEXaQ @I9LUEXaQ @I9LUEXaQ @I9LUEXaQ @I9LUEXaQ @I9LUEXaQ @I9LUEXaQ @I9LUEXaQ @I9LUEXaQ @I9LUEXaQ @I9LUEXaQ @I9LUEXaQ @I9LUEXaQ @I9LUEXaQ @I9LUEXaQ @I9LUEXaQ @I9LUEXaQ @I9LUEXaQ @I9LUEXaQ @I9LUEXaQ @I9LUEXaQ @I9LUEXaQ @I9LUEXaQ @I9LUEXaQ @I9LUEXaQ @I9LUEXaQ @I9LUEXaQ @I9LUEXaQ I9UEaQ I9UEaQ I9UEaQ I9UEaQ I9UEaQ I9UEaQ I9UEaQ I9UEaQ I9UEaQ I9UEaQ I9UEaQ I9UEaQ I9UEaQ I9UEaQ I9UEaQ I9UEaQ I9UEaQ I9UEaQ I9UEaQ I9UEaQ I9UEaQ I9UEaQ I=9UIEaUQ I=9UIEaUQ I=9UIEaUQ I=9UIEaUQ I=9UIEaUQ I=9UIEaUQ I=9UIEaUQ I=9UIEaUQ I=9UIEaUQ I=9UIEaUQ I=9UIEaUQ I=9UIEaUQ IE=9UQIEa]UQ IE=9UQIEa]UQ IE=9UQIEa]UQ IE=9UQIEa]UQ IE=9UQIEa]UQ IE=9UQIEa]UQ E=9QIE]UQ E=9QIE]UQ E=9QIE]UQ E=9QIE]UQ E=9QIE]UQ E=9QIE]UQ E=9QIE]UQ E=9QIE]UQ E=9QIE]UQ E=9QIE]UQ E=9QIE]UQ E=9QIE]UQ E=9QIE]UQ E=9QIE]UQ E=9QIE]UQ E=9QIE]UQ E=9QIE]UQ E=9QIE]UQ E=9QIE]UQ E=9QIE]UQ E=9QIE]UQ E=9QIE]UQ E=9QIE]UQ E=9QIE]UQ E=9QIE]UQ E=9QIE]UQ E=9QIE]UQ E=9QIE]UQ E=9QIE]UQ E=9QIE]UQ E=9QIE]UQ E=9QIE]UQ =9IEUQ =9IEUQ =9IEUQ =9IEUQ =9IEUQ =9IEUQ 9EQ 9EQ 9EQ 9EQ 9EQ 9EQ 9EQ 9EQ 9EQ 9EQ 9EQ 9EQ 9EQ 9EQ 9EQ 9EQ 9EQ 9EQ 9EQ 9EQ 9EQ 9EQ 9EQ 9EQ 9EQ 9EQ 9EQ 9EQ 9EQ 9EQ 9EQ 9EQ 9EQ 9EQ 9EQ 9EQ 9EQ 9EQ 9EQ 9EQ 9EQ 9EQ 9EQ 9EQ 9EQ 9EQ 9EQ 9EQ 9EQ 9EQ 9EQ 9EQ 9EQ 9EQ 9EQ 9EQ 9EQ 9EQ 9EQ 9EQ 9EQ 9EQ 9EQ 9EQ 9BENQZ 9BENQZ 9BENQZ 9BENQZ 9BENQZ 9BENQZ 9BENQZ 9BENQZ 9BENQZ 9BENQZ 9BENQZ 9BENQZ I9BUENaQZ I9BUENaQZ I9BUENaQZ I9BUENaQZ I9BUENaQZ I9BUENaQZ I9BUENaQZ I9BUENaQZ I9BUENaQZ I9BUENaQZ I9BUENaQZ I9BUENaQZ I9BUENaQZ I9BUENaQZ I9BUENaQZ I9BUENaQZ I9BUENaQZ I9BUENaQZ I9BUENaQZ I9BUENaQZ I9BUENaQZ I9BUENaQZ I9BUENaQZ I9BUENaQZ I9BUENaQZ I9BUENaQZ I9BUENaQZ I9BUENaQZ I9BUENaQZ 9BENQZ 9BENQZ 9BENQZ 9BENQZ 9BENQZ 9BENQZ 9BENQZ 9BENQZ 9BENQZ 9BENQZ 9BENQZ 9BENQZ 9BENQZ 9BENQZ 9BENQZ 9BENQZ 9BENQZ 9BENQZ 9BENQZ 9BENQZ 9BENQZ 9BENQZ 9BENQZ 9BENQZ 9BENQZ 9BENQZ 9BENQZ 9BENQZ 9BENQZ 9BENQZ 9BENQZ 9BENQZ 9BENQZ 9BENQZ 9BENQZ 9BENQZ 9BENQZ 9BENQZ 9BENQZ 9BENQZ 9BENQZ 9BENQZ 9BENQZ 9BENQZ 9BENQZ 9BENQZ 9BENQZ 9BENQZ 9BENQZ 9BENQZ 9BENQZ 9BENQZ 9BENQZ 9BENQZ 9BENQZ 9BENQZ 9BENQZ 9BENQZ 9BENQZ 9BENQZ 9BENQZ 9BENQZ 9BENQZ 9BENQZ 9BENQZ 9BENQZ 9BENQZ 9BENQZ 9BENQZ 9BENQZ 9BENQZ 9BENQZ 9BENQZ 9BENQZ 9BENQZ1%% 9BENQZ1%% 9BENQZ1%% 9BENQZ1%% 9BENQZ1%% 98BEDNQPZ1%% 98BEDNQPZ1%% 8BDNPZ1%% 8BDNPZ1%% 8BDNPZ1%% 8BDNPZ1%% 8BDNPZ1%% 8BDNPZ1%% 8BDNPZ1%% 8BDNPZ1%% 8BDNPZ1%% 8BDNPZ1%% 8BDNPZ1%% 8BDNPZ1%% 8BDNPZ1%% 8BDNPZ1%% 8BDNPZ1%% 8BDNPZ1%% I8BUDNaPZ1%% I8BUDNaPZ1%% I8BUDNaPZ1%% I8BUDNaPZ1%% I8BUDNaPZ1%% I8BUDNaPZ1%% I8BUDNaPZ1%% I8BUDNaPZ1%% I8BUDNaPZ1%% I8BUDNaPZ1%% I8BUDNaPZ1%% I8BUDNaPZ1%% I8BUDNaPZ1%% I8BUDNaPZ1%% I8BUDNaPZ1%% I8BUDNaPZ1%% I8BUDNaPZ1%% I8BUDNaPZ1%% I8BUDNaPZ1%% I8BUDNaPZ1%% I8BUDNaPZ1%% I8BUDNaPZ1%% I8BUDNaPZ1%% I8BUDNaPZ1%% I8BUDNaPZ1%% I8BUDNaPZ1%% I8BUDNaPZ1%% I8BUDNaPZ1%% I8BUDNaPZ1%% I8BUDNaPZ1%% I8BUDNaPZ1%% I8BUDNaPZ1%% I8BUDNaPZ1%% I8BUDNaPZ1%% I8BUDNaPZ1%% I8BUDNaPZ1%% I8BUDNaPZ1%% I8BUDNaPZ1%% I8BUDNaPZ1%% I8BUDNaPZ1%% I8BUDNaPZ1%% I8BUDNaPZ1%% I8BUDNaPZ1%% I8BUDNaPZ1%% I8BUDNaPZ1%% I8BUDNaPZ1%% I8BUDNaPZ1%% I8BUDNaPZ1%% I8BUDNaPZ1%% I8BUDNaPZ1%% I8BUDNaPZ1%% I8BUDNaPZ1%% I8BUDNaPZ1%% I8BUDNaPZ1%% I8BUDNaPZ1%% I8BUDNaPZ1%% I8BUDNaPZ1%% I8BUDNaPZ1%% I8BUDNaPZ1%% I8BUDNaPZ1%% I8BUDNaPZ1%% I8BUDNaPZ1%% I8BUDNaPZ1%% I8BUDNaPZ1%% I8BUDNaPZ1%% I8BUDNaPZ1%% I8BUDNaPZ1%% I8BUDNaPZ1%% I8BUDNaPZ1%% I8BUDNaPZ1%% I8BUDNaPZ1%% I8BUDNaPZ1%% I8BUDNaPZ1%% I8BUDNaPZ1%% I8BUDNaPZ1%% I8BUDNaPZ1%% I8BUDNaPZ1%% I8BUDNaPZ1%% I8BUDNaPZ1%% I8BUDNaPZ1%% I8BUDNaPZ1%% I8BUDNaPZ1%% I8BUDNaPZ1%% I8BUDNaPZ1%% I8BUDNaPZ1%% I8BUDNaPZ1%% I8BUDNaPZ1%% I8BUDNaPZ1%% I8BUDNaPZ1%% I8BUDNaPZ1%% I8BUDNaPZ1%% I8BUDNaPZ1%% I8BUDNaPZ1%% I8BUDNaPZ1%% I8BUDNaPZ1%% I8BUDNaPZ1%% I8BUDNaPZ1%% I8BUDNaPZ1%% I8BUDNaPZ1%% I8BUDNaPZ1%% I8BUDNaPZ1%% I8B=UDNIaPZU1%% I8B=UDNIaPZU1%% I8B=UDNIaPZU1%% I8B=UDNIaPZU1%% I8B=UDNIaPZU1%% I8B=UDNIaPZU1%% I8B=UDNIaPZU1%% I8B=UDNIaPZU1%% I8B=UDNIaPZU1%% I8B=UDNIaPZU1%% I8DB=UDPNIaP\ZU1%% I8DB=UDPNIaP\ZU1%% I8DB=UDPNIaP\ZU1%% I8DB=UDPNIaP\ZU1%% I8DB=UDPNIaP\ZU1%% I8DB=UDPNIaP\ZU1%% I8DB=UDPNIaP\ZU1%% I8DB=UDPNIaP\ZU1%% I8DB=UDPNIaP\ZU1%% 8DB=DPNIP\ZU1%% 8DB=DPNIP\ZU1%% 8DB=DPNIP\ZU1%% 8DB=DPNIP\ZU1%% 8DB=DPNIP\ZU1%% 8DB=DPNIP\ZU1%% 8DB=DPNIP\ZU1%% 8DB=DPNIP\ZU1%% 8DB=DPNIP\ZU1%% 8DB=DPNIP\ZU1%% 8DB=DPNIP\ZU1%% 8DB=DPNIP\ZU1%% 8DB=DPNIP\ZU1%% 8DB=DPNIP\ZU1%% 8DB=DPNIP\ZU1%% 8DB=DPNIP\ZU1%% 8DB=DPNIP\ZU1%% 8DB=DPNIP\ZU1%% 8DB=DPNIP\ZU1%% 8DB=DPNIP\ZU1%% 8DB=DPNIP\ZU1%% 8DB=DPNIP\ZU1%% 8DB=DPNIP\ZU1%% DB=PNI\ZU1%% DB=PNI\ZU1%% DB=PNI\ZU1%% DB=PNI\ZU1%% DB=PNI\ZU1%% DB=PNI\ZU1%% DB=PNI\ZU1%% DB=PNI\ZU1%% DB=PNI\ZU1%% DB=PNI\ZU1%% DB=PNI\ZU1%% B=NIZU1%% B=NIZU1%% B=NIZU1%% B=NIZU1%% B=NIZU1%% B=NIZU1%% B=NIZU1%% B=NIZU1%% B=NIZU1%% B=NIZU1%% B=NIZU1%% B=NIZU1%% =IU1%% =IU1%% =IU1%% =IU1%% =IU1%% =IU1%% =IU1%% =IU1%% =IU1%% =IU1%% =IU1%% =IU1%% =IU1%% =IU1%% =IU1%% =IU1%% =IU1%% =IU1%% =IU1%% =IU1%% =IU1%% =IU1%% =IU1%% =IU1%% =IU1%% =IU1%% =IU1%% =IU1%% =IU1%% =IU1%% =IU1%% =IU1%% =IU1%% =IU1%% =IU1%% =IU1%% =IU1%% =IU1%% =IU1%% =IU1%% =IU1%% =IU1%% =IU1%% =IU1%% =IU1%% =IU1%% =IU1%% =IU1%% =IU1%% =IU1%% =IU1%% =IU1%% =IU1%% =IU1%% =IU1%% =AIMUY1%% =AIMUY1%% =AIMUY1%% =AIMUY1%% =AIMUY1%% =AIMUY1%% =AIMUY1%% =AIMUY1%% =AIMUY =AIMUY =AIMUY I=AUIMaUY I=AUIMaUY I=AUIMaUY I=AUIMaUY I=AUIMaUY I=AUIMaUY I=AUIMaUY I=AUIMaUY I=AUIMaUY I=AUIMaUY I=AUIMaUY I=AUIMaUY I=AUIMaUY I=AUIMaUY I=AUIMaUY I=AUIMaUY I=AUIMaUY I=AUIMaUY I=AUIMaUY I=AUIMaUY I=AUIMaUY I=AUIMaUY I=AUIMaUY I=AUIMaUY I=AUIMaUY I=AUIMaUY I=AUIMaUY I=AUIMaUY I=AUIMaUY I=AUIMaUY I=AUIMaUY I=AUIMaUY I=AUIMaUY I=AUIMaUY I=AUIMaUY I=AUIMaUY I=AUIMaUY I=AUIMaUY I=AUIMaUY I=AUIMaUY I=AUIMaUY I=AUIMaUY =AIMUY =AIMUY =AIMUY =AIMUY AMY AMY AMY AMY AMY AMY AMY AMY AMY AMY AMY AMY AMY AMY AMY AMY AMY                                                  6BN 6BN 6BN 6BN 6BN 6BN 6BN E6QB]N1%% E6QB]N1%% E6QB]N1%% E6QB]N1%% E6QB]N1%% E6QB]N1%% E6QB]N1%% E6QB]N1%% E6QB]N1%% E6QB]N1%% E6QB]N1%% E6QB]N1%% E6QB]N1%% E6QB]N1%% E6QB]N1%% E6QB]N1%% E6QB]N1%% E6QB]N1%% E6QB]N1%% E6QB]N1%% E6QB]N1%% E6QB]N1%% E6QB]N1%% E6QB]N1%% E6QB]N1%% E6QB]N1%% E6QB]N1%% E6QB]N1%% E6QB]N1%% E6QB]N1%% E6QB]N1%% E6QB]N1%% E6QB]N1%% E6QB]N1%% E6QB]N1%% E6QB]N1%% E6QB]N1%% E6QB]N1%% E6QB]N1%% E6QB]N1%% E6QB]N1%% E6QB]N1%% E6QB]N1%% E6QB]N1%% E6QB]N1%% E6QB]N1%% E6QB]N1%% E6QB]N1%% E6QB]N1%% E6QB]N1%% E6QB]N1%% E6QB]N1%% E6QB]N1%% E6QB]N1%% E6QB]N1%% E6QB]N1%% E6QB]N1%% E6QB]N1%% E6QB]N1%% E6QB]N1%% E6QB]N1%% E6QB]N1%% E6QB]N1%% E6QB]N1%% E6QB]N1%% E6QB]N1%% E6QB]N1%% E6QB]N1%% E6QB]N1%% E6QB]N1%% E6QB]N1%% E6QB]N1%% E6QB]N1%% E6QB]N1%% E6QB]N1%% E6QB]N1%% E6QB]N1%% E6QB]N1%% E6QB]N1%% E6QB]N1%% E6QB]N1%% E6QB]N1%% E6QB]N1%% E6QB]N1%% E6QB]N1%% E6QB]N1%% E6QB]N1%% E6QB]N1%% E6QB]N1%% E6QB]N1%% E6QB]N1%% E6QB]N1%% E6QB]N1%% E6QB]N1%% E6QB]N1%% E6QB]N1%% E6QB]N1%% E6QB]N1%% E6QB]N1%% E6QB]N1%% E6QB]N1%% E6QB]N1%% E6QB]N1%% E6QB]N1%% E6QB]N1%% E6QB]N1%% E6QB]N1%% E6QB]N1%% E6QB]N1%% E6QB]N1%% E=6QIB]UN1%% E=6QIB]UN1%% E=6QIB]UN1%% E=6QIB]UN1%% E=6QIB]UN1%% E=6QIB]UN1%% E=B6QINB]UZN1%% E=B6QINB]UZN1%% E=B6QINB]UZN1%% E=B6QINB]UZN1%% E=B6QINB]UZN1%% E=B6QINB]UZN1%% E=B6QINB]UZN1%% =B6INBUZN1%% =B6INBUZN1%% =B6INBUZN1%% =B6INBUZN1%% =B6INBUZN1%% =B6INBUZN1%% =B6INBUZN1%% =B6INBUZN1%% =B6INBUZN1%% =B6INBUZN1%% =B6INBUZN1%% =B6INBUZN1%% =B6INBUZN1%% =B6INBUZN1%% =B6INBUZN1%% =B6INBUZN1%% =B6INBUZN1%% =B6INBUZN1%% =B6INBUZN1%% =B6INBUZN1%% =B6INBUZN1%% =B6INBUZN1%% =B6INBUZN1%% =B6INBUZN1%% =B6INBUZN1%% =B6INBUZN1%% =B6INBUZN1%% =B6INBUZN1%% =B6INBUZN1%% =B6INBUZN1%% =B6INBUZN1%% =B6INBUZN1%% =B6INBUZN1%% =B6INBUZN1%% =B6INBUZN1%% B6NBZN1%% B6NBZN1%% B6NBZN1%% B6NBZN1%% 6BN1%% 6BN1%% 6BN1%% 6BN1%% 6BN1%% 6BN1%% 6BN1%% 6BN1%% 6BN1%% 6BN1%% 6BN1%% 6BN1%% 6BN1%% 6BN1%% 6BN1%% 6BN1%% 6BN1%% 6BN1%% 6BN1%% 6BN1%% 6BN1%% 6BN1%% 6BN1%% 6BN1%% 6BN1%% 6BN1%% 6BN1%% 6BN1%% 6BN1%% 6BN1%% 6BN1%% 6BN1%% 6BN1%% 6BN1%% 6BN1%% 6BN1%% 6BN1%% 6BN1%% 6BN1%% 6BN1%% 6BN1%% 6BN1%% 6BN1%% 6BN1%% 6BN1%% 6BN1%% 6BN1%% 6BN1%% 6BN1%% 6BN1%% 6BN1%% 6BN1%% 6BN1%% 6BN1%% 6BN1%% 6BN1%% 6BN1%% 6BN1%% 6BN1%% 6BN1%% 6BN1%% 6BN1%% 6BN1%% 6BN1%% 6BN1%% E6QB]N1%% E6QB]N1%% E6QB]N1%% E6BQBN]NZ1%% E6BQBN]NZ1%% E6BQBN]NZ1%% E6BQBN]NZ1%% E6BQBN]NZ1%% E6BQBN]NZ1%% E6BQBN]NZ1%% E6BQBN]NZ1%% E6BQBN]NZ1%% E6BQBN]NZ1%% E6BQBN]NZ1%% E6BQBN]NZ1%% E6BQBN]NZ1%% E6BQBN]NZ1%% E6BQBN]NZ1%% E6BQBN]NZ1%% E6BQBN]NZ1%% E6BQBN]NZ1%% E6BQBN]NZ1%% E6BQBN]NZ1%% E6BQBN]NZ1%% E6BQBN]NZ1%% E6BQBN]NZ1%% E6BQBN]NZ1%% E6BQBN]NZ1%% E6BQBN]NZ1%% E6BQBN]NZ1%% E6BQBN]NZ1%% E6BQBN]NZ1%% E6BQBN]NZ1%% E6BQBN]NZ1%% E6BQBN]NZ1%% E6BQBN]NZ1%% E6BQBN]NZ1%% E6BQBN]NZ1%% E6BQBN]NZ1%% E6BQBN]NZ1%% 6BBNNZ1%% 6BBNNZ1%% 6BBNNZ1%% 6BBNNZ1%% 6BBNNZ1%% 6BBNNZ1%% 6BBNNZ1%% 6BBNNZ1%% 6BBNNZ1%% 6BBNNZ1%% 6BBNNZ1%% 6BBNNZ1%% 6BBNNZ1%% 6BBNNZ1%% 6BBNNZ1%% 6BBNNZ1%% 6BBNNZ1%% 6BBNNZ1%% 6BBNNZ1%% 6BBNNZ1%% 6BBNNZ1%% 6BBNNZ1%% 6BBNNZ1%% 6BBNNZ1%% 6BBNNZ1%% 6BBNNZ1%% 6BBNNZ1%% 6BBNNZ1%% 6BBNNZ1%% 6BBNNZ1%% 6BBNNZ1%% 6BBNNZ1%% 6BBNNZ1%% 6BBNNZ1%% 6BBNNZ1%% 6BBNNZ1%% 6BBNNZ1%% 6BBNNZ1%% 6BBNNZ1%% 6BBNNZ1%% 6BBNNZ1%% 6BBNNZ1%% 6BBNNZ1%% 6BBNNZ1%% 6BBNNZ1%% 6BBNNZ1%% 6BBNNZ1%% 6BBNNZ1%% 6BBNNZ1%% 6BBNNZ1%% 6BBNNZ1%% 6BBNNZ1%% 6BBNNZ1%% BNZ1%% BNZ1%% BNZ1%% BNZ1%% BNZ1%% BNZ1%% 1%% 1%% 1%% 1%% 1%% 1%% 1%% 1%% 1%% 1%% 1%% 1%% 1%% 1%% 1%% 1%% 1%% 9EQ1%% 9EQ1%% 9EQ1%% 9EQ1%% 9EQ1%% 9EQ1%% I9UEaQ1%% I9UEaQ1%% I9UEaQ1%% I9UEaQ1%% I9UEaQ1%% I9UEaQ1%% I9UEaQ1%% I9UEaQ1%% I9UEaQ1%% I9UEaQ1%% I9UEaQ1%% I9UEaQ1%% I9UEaQ1%% I9UEaQ1%% I9UEaQ1%% I9UEaQ1%% I9UEaQ1%% I9UEaQ1%% I9UEaQ1%% I9UEaQ1%% I9UEaQ1%% I9UEaQ1%% I9UEaQ1%% I9UEaQ1%% I9UEaQ1%% I9UEaQ1%% I9UEaQ1%% I9UEaQ1%% I9UEaQ1%% I9UEaQ1%% I9UEaQ1%% I9UEaQ1%% I9UEaQ1%% I9UEaQ1%% I9UEaQ1%% I9UEaQ1%% I9UEaQ1%% I9UEaQ1%% I9UEaQ1%% I9UEaQ1%% I9UEaQ1%% I9UEaQ1%% I9UEaQ1%% I9UEaQ1%% I9UEaQ1%% I9UEaQ1%% I9UEaQ1%% I9UEaQ1%% I9UEaQ1%% I9UEaQ1%% I9UEaQ1%% I9UEaQ1%% I9UEaQ1%% I9UEaQ1%% I9UEaQ1%% I9UEaQ1%% I9UEaQ1%% I9UEaQ1%% I9UEaQ1%% I9UEaQ1%% I9UEaQ1%% I9UEaQ1%% I9UEaQ1%% I9UEaQ1%% I9UEaQ1%% I9UEaQ1%% I9UEaQ1%% I9UEaQ1%% I9UEaQ1%% I9UEaQ1%% I9UEaQ1%% I9UEaQ1%% I9UEaQ1%% I9UEaQ1%% I9UEaQ1%% I9UEaQ1%% I9UEaQ1%% I9UEaQ1%% I9UEaQ1%% I9UEaQ1%% I9UEaQ1%% I9UEaQ1%% I9UEaQ1%% I9UEaQ1%% I9UEaQ1%% I9UEaQ1%% I9UEaQ1%% I9UEaQ1%% I9UEaQ1%% I9UEaQ1%% I9UEaQ1%% I9UEaQ1%% I9UEaQ1%% I9UEaQ1%% I9UEaQ1%% I9UEaQ1%% I9UEaQ1%% I9UEaQ1%% I9UEaQ1%% I9UEaQ1%% I9UEaQ1%% I9UEaQ1%% I9UEaQ1%% I9UEaQ1%% I9UEaQ1%% I9UEaQ1%% I9UEaQ1%% I9UEaQ1%% I9UEaQ1%% I9UEaQ1%% I=9UIEaUQ1%% I=9UIEaUQ1%% I=9UIEaUQ1%% I=9UIEaUQ1%% I=9UIEaUQ1%% I=9UIEaUQ1%% I=9UIEaUQ1%% I=9UIEaUQ1%% I=E9UIQEaU]Q1%% =E9IQEU]Q1%% =E9IQEU]Q1%% =E9IQEU]Q1%% =E9IQEU]Q1%% =E9IQEU]Q1%% =E9IQEU]Q1%% =E9IQEU]Q1%% =E9IQEU]Q1%% =E9IQEU]Q1%% =E9IQEU]Q1%% =E9IQEU]Q1%% =E9IQEU]Q1%% =E9IQEU]Q1%% =E9IQEU]Q1%% =E9IQEU]Q1%% =E9IQEU]Q1%% =E9IQEU]Q1%% =E9IQEU]Q1%% =E9IQEU]Q1%% =E9IQEU]Q1%% =E9IQEU]Q1%% =E9IQEU]Q1%% =E9IQEU]Q1%% =E9IQEU]Q1%% =E9IQEU]Q1%% =E9IQEU]Q1%% =E9IQEU]Q1%% =E9IQEU]Q1%% =E9IQEU]Q1%% =E9IQEU]Q1%% =E9IQEU]Q1%% =E9IQEU]Q1%% =E9IQEU]Q1%% =E9IQEU]Q1%% =E9IQEU]Q1%% E9QE]Q1%% E9QE]Q1%% 9EQ1%% 9EQ1%% 9EQ1%% 9EQ1%% 9EQ1%% 9EQ1%% 9EQ1%% 9EQ1%% 9EQ1%% 9EQ1%% 9EQ1%% 9EQ1%% 9EQ1%% 9EQ1%% 9EQ1%% 9EQ1%% 9EQ1%% 9EQ1%% 9EQ1%% 9EQ1%% 9EQ1%% 9EQ1%% 9EQ1%% 9EQ1%% 9EQ1%% 9EQ1%% 9EQ1%% 9EQ1%% 9EQ1%% 9EQ1%% 9EQ1%% 9EQ1%% 9EQ1%% 9EQ1%% 9EQ1%% 9EQ1%% 9EQ1%% 9EQ1%% 9EQ1%% 9EQ1%% 9EQ1%% 9EQ1%% 9EQ1%% 9EQ1%% 9EQ1%% 9EQ1%% 9EQ1%% 9EQ1%% 9EQ1%% 9EQ1%% 9EQ1%% 9EQ1%% 9EQ1%% 9EQ1%% 9EQ1%% 9EQ1%% 9EQ1%% 9EQ1%% 9EQ1%% 9EQ1%% 9EQ1%% 9EQ1%% 9EQ1%% 9EQ1%% 9EQ1%% 9EQ1%% 9EQ1%% 9EQ1%% 9EQ1%% 9EQ1%% 9EQ1%% 9EQ1%% 9EQ1%% 9EQ1%% B9NEZQ1%% B9NEZQ1%% B9NEZQ1%% B9NEZQ1%% B9NEZQ1%% B9NEZQ1%% B9NEZQ1%% B9NEZQ1%% B9NEZQ1%% B9NEZQ1%% IB9UNEaZQ1%% IB9UNEaZQ IB9UNEaZQ IB9UNEaZQ IB9UNEaZQ IB9UNEaZQ IB9UNEaZQ IB9UNEaZQ IB9UNEaZQ IB9UNEaZQ IB9UNEaZQ IB9UNEaZQ IB9UNEaZQ IB9UNEaZQ IB9UNEaZQ IB9UNEaZQ IB9UNEaZQ IB9UNEaZQ IB9UNEaZQ IB9UNEaZQ IB9UNEaZQ IB9UNEaZQ IB9UNEaZQ IB9UNEaZQ IB9UNEaZQ IB9UNEaZQ IB9UNEaZQ IB9UNEaZQ IB9UNEaZQ IB9UNEaZQ IB9UNEaZQ IB9UNEaZQ IB9UNEaZQ IB9UNEaZQ IB9UNEaZQ IB9UNEaZQ IB9UNEaZQ IB9UNEaZQ IB9UNEaZQ IB9UNEaZQ IB9UNEaZQ IB9UNEaZQ IB9UNEaZQ IB9UNEaZQ IB9UNEaZQ IB9UNEaZQ B9NEZQ B9NEZQ B9NEZQ B9NEZQ B9NEZQ B9NEZQ B9NEZQ B9NEZQ B9NEZQ B9NEZQ B9NEZQ B9NEZQ B9NEZQ B9NEZQ B9NEZQ B9NEZQ B9NEZQ B9NEZQ B9NEZQ B9NEZQ B9NEZQ B9NEZQ B9NEZQ B9NEZQ B9NEZQ B9NEZQ B9NEZQ B9NEZQ B9NEZQ B9NEZQ B9NEZQ B9NEZQ B9NEZQ B9NEZQ B9NEZQ B9NEZQ B9NEZQ B9NEZQ B9NEZQ B9NEZQ B9NEZQ B9NEZQ B9NEZQ B9NEZQ B9NEZQ B9NEZQ B9NEZQ B9NEZQ B9NEZQ B9NEZQ B9NEZQ B9NEZQ B9NEZQ B9NEZQ B9NEZQ B9NEZQ B9NEZQ B9NEZQ B9NEZQ B9NEZQ B9NEZQ B9NEZQ B9NEZQ B9NEZQ B9NEZQ B9:NEFZQR B9:NEFZQR B9:NEFZQR B9:NEFZQR B9:NEFZQR 9:EFQR 9:EFQR 9:EFQR1%% 9:EFQR1%% :FR1%% :FR1%% :FR1%% :FR1%% :FR1%% :FR1%% :FR1%% :FR1%% :FR1%% :FR1%% :FR1%% :FR1%% :FR1%% :FR1%% L:XFdR1%% L:XFdR1%% L:XFdR1%% L:XFdR1%% L:XFdR1%% L:XFdR1%% L:XFdR1%% L:XFdR1%% L:XFdR1%% L:XFdR1%% L:XFdR1%% L:XFdR1%% L:XFdR1%% L:XFdR1%% L:XFdR1%% L:XFdR1%% L:XFdR1%% L:XFdR1%% L:XFdR1%% L:XFdR1%% L:XFdR1%% L:XFdR1%% L:XFdR1%% L:XFdR1%% L:XFdR1%% L:XFdR1%% L:XFdR1%% L:XFdR1%% L:XFdR1%% L:XFdR1%% L:XFdR1%% L:XFdR1%% L:XFdR1%% L:XFdR1%% L:XFdR1%% L:XFdR1%% L:XFdR1%% L:XFdR1%% L:XFdR1%% L:XFdR1%% L:XFdR1%% L:XFdR1%% L:XFdR1%% L:XFdR1%% L:XFdR1%% L:XFdR1%% L:XFdR1%% L:XFdR1%% L:XFdR1%% L:XFdR1%% L:XFdR1%% L:XFdR1%% L:XFdR1%% L:XFdR1%% L:XFdR1%% L:XFdR1%% L:XFdR1%% L:XFdR1%% L:XFdR1%% L:XFdR1%% L:XFdR1%% L:XFdR1%% L:XFdR1%% L:XFdR1%% L:XFdR1%% L:XFdR1%% L:XFdR1%% L:XFdR1%% L:XFdR1%% L:XFdR1%% L:XFdR1%% L:XFdR1%% L:XFdR1%% L:XFdR1%% L:XFdR1%% L:XFdR1%% L:XFdR1%% L:XFdR1%% L:XFdR1%% L:XFdR1%% L:XFdR1%% L:XFdR1%% L:XFdR1%% L:XFdR1%% L:XFdR1%% L:XFdR1%% L:XFdR1%% L:XFdR1%% L:XFdR1%% L:XFdR1%% L:XFdR1%% L:XFdR1%% L:XFdR1%% L:XFdR1%% L:XFdR1%% L:XFdR1%% L:XFdR1%% L:XFdR1%% L:XFdR1%% L:XFdR1%% L:XFdR1%% L:XFdR1%% L:XFdR1%% L:XFdR1%% L:XFdR1%% L:XFdR1%% L:XFdR1%% L:XFdR1%% L:XFdR1%% L:XFdR1%% L=:XIFdUR1%% L=:XIFdUR1%% L=:XIFdUR1%% L=:XIFdUR1%% L=:XIFdUR1%% L=:XIFdUR1%% LI=:XUIFdaUR1%% LI=:XUIFdaUR1%% LI=:XUIFdaUR1%% LI=:XUIFdaUR1%% LI=:XUIFdaUR1%% LI=:XUIFdaUR1%% LI=:XUIFdaUR1%% I=:UIFaUR1%% I=:UIFaUR1%% I=:UIFaUR1%% I=:UIFaUR1%% I=:UIFaUR1%% I=:UIFaUR1%% I=:UIFaUR1%% I=:UIFaUR1%% I=:UIFaUR1%% I=:UIFaUR1%% I=:UIFaUR1%% I=:UIFaUR1%% I=:UIFaUR1%% I=:UIFaUR1%% I=:UIFaUR1%% I=:UIFaUR1%% I=:UIFaUR1%% I=:UIFaUR1%% I=:UIFaUR1%% I=:UIFaUR1%% I=:UIFaUR1%% I=:UIFaUR1%% I=:UIFaUR1%% I=:UIFaUR1%% I=:UIFaUR1%% =:IFUR1%% =:IFUR1%% =:IFUR1%% =:IFUR1%% =:IFUR1%% =:IFUR1%% =:IFUR1%% =:IFUR1%% =:IFUR1%% =:IFUR1%% =:IFUR1%% =:IFUR1%% =:IFUR1%% =:IFUR1%% =:IFUR1%% =:IFUR1%% =:IFUR1%% =:IFUR1%% =:IFUR1%% =:IFUR1%% =:IFUR1%% =:IFUR1%% =:IFUR1%% =:IFUR1%% =:IFUR1%% =:IFUR1%% =:IFUR1%% =:IFUR1%% =:IFUR1%% =:IFUR1%% =:IFUR1%% =:IFUR1%% =:IFUR1%% =:IFUR1%% =:IFUR1%% =:IFUR1%% =:IFUR1%% =:IFUR1%% =:IFUR1%% =:IFUR1%% =:IFUR1%% =:IFUR1%% =:IFUR1%% =:IFUR1%% =:IFUR1%% =:IFUR1%% =:IFUR1%% =:IFUR1%% =:IFUR1%% =:IFUR1%% =:IFUR1%% =:IFUR1%% :FR1%% :FR1%% :FR1%% :FR1%% :FR1%% :FR1%% :FR1%% :FR1%% :FR1%% :FR1%% :FR1%% :FR1%% :FR1%% :FR1%% :FR1%% :FR1%% :FR1%% :FR1%% :FR1%% :FR1%% :FR1%% :FR1%% B:NFZR1%% B:NFZR1%% B:NFZR1%% B:NFZR1%% B:NFZR1%% B:NFZR1%% B:NFZR1%% B:NFZR1%% B:NFZR1%% B:NFZR1%% B:NFZR1%% B:NFZR1%% B:NFZR1%% B:NFZR1%% B:NFZR1%% B:NFZR1%% B:NFZR1%% B:NFZR1%% B:NFZR1%% B:LNFXZRd1%% B:LNFXZRd1%% B:LNFXZRd1%% B:LNFXZRd1%% B:LNFXZRd1%% B:LNFXZRd1%% B:LNFXZRd1%% B:LNFXZRd1%% B:LNFXZRd1%% B:LNFXZRd1%% B:LNFXZRd1%% B:LNFXZRd1%% B:LNFXZRd1%% B:LNFXZRd1%% B:LNFXZRd1%% B:LNFXZRd1%% B:LNFXZRd1%% B:LNFXZRd1%% B:LNFXZRd1%% B:LNFXZRd B:LNFXZRd B:LNFXZRd B:LNFXZRd B:LNFXZRd B:LNFXZRd B:LNFXZRd B:LNFXZRd B:LNFXZRd B:LNFXZRd B:LNFXZRd B:LNFXZRd B:LNFXZRd B:LNFXZRd B:LNFXZRd B:LNFXZRd B:LNFXZRd B:LNFXZRd B:LNFXZRd B:LNFXZRd B:LNFXZRd B:LNFXZRd B:LNFXZRd B:LNFXZRd B:LNFXZRd B:LNFXZRd :LFXRd :LFXRd :LFXRd                                                               ;GS ;GS/## ;GS/## ;GS/## ;GS/## ;GS/## ;GS/## ;GS/## ;GS/## ;GS/## K;WGcS/## K;WGcS/## K;WGcS/## K;WGcS/## K;WGcS/## K;WGcS/## K;WGcS/## K;WGcS/## K;WGcS/## K;WGcS/## K;WGcS/## K;WGcS/## K;WGcS/## K;WGcS/## K;WGcS/## K;WGcS/## K;WGcS/## K;WGcS/## K;WGcS/## K;WGcS/## K;WGcS/## K;WGcS/## K;WGcS/## K;WGcS/## K;WGcS/## K;WGcS/## K;WGcS/## K;WGcS/## K;WGcS/## K;WGcS/## K;WGcS/## K;WGcS/## K;WGcS/## K;WGcS/## K;WGcS/## K;WGcS/## K;WGcS/## K;WGcS/## K;WGcS/## K;WGcS/## K;WGcS/## K;WGcS/## K;WGcS/## K;WGcS/## K;WGcS/## K;WGcS/## K;WGcS/## K;WGcS/## K;WGcS/## K;WGcS/## K;WGcS/## K;WGcS/## K;WGcS/## K;WGcS/## K;WGcS/## K;WGcS/## K;WGcS/## K;WGcS/## K;WGcS/## K;WGcS/## K;WGcS/## K;WGcS/## K;WGcS/## K;WGcS/## K;WGcS/## K;WGcS/## K;WGcS/## K;WGcS/## K;WGcS/## K;WGcS/## K;WGcS/## K;WGcS/## K;WGcS/## K;WGcS/## K;WGcS/## K;WGcS/## K;WGcS/## K;WGcS/## K;WGcS/## K;WGcS/## K;WGcS/## K;WGcS/## K;WGcS/## K;WGcS/## K;WGcS/## K;WGcS/## K;WGcS/## K;WGcS/## K;WGcS/## K;WGcS/## K;WGcS/## K;WGcS/## K;WGcS/## K;WGcS/## K;WGcS/## K;WGcS/## K;WGcS/## K;WGcS/## K;WGcS/## K;WGcS/## K;WGcS/## K;WGcS/## K;WGcS/## K;WGcS/## K;WGcS/## K;WGcS/## K;WGcS/## K;WGcS/## K;WGcS/## K;WGcS/## K;WGcS/## K;WGcS/## K;WGcS/## K;WGcS/## K;WGcS/## K;WGcS/## K;WGcS/## K;WGcS/## K;WGcS/## K;WGcS/## K;WGcS/## K;WGcS/## KG;WSGc_S/## G;SG_S/## G;SG_S/## G?;SKG_WS/## G?;SKG_WS/## G?;SKG_WS/## G?;SKG_WS/## G?;SKG_WS/## G?;SKG_WS/## G?;SKG_WS/## G?;SKG_WS/## G?;SKG_WS/## G?;SKG_WS/## G?;SKG_WS/## G?;SKG_WS/## G?;SKG_WS/## G?;SKG_WS/## G?;SKG_WS/## G?;SKG_WS/## G?;SKG_WS/## G?;SKG_WS/## G?;SKG_WS/## G?;SKG_WS/## G?;SKG_WS/## G?;SKG_WS/## G?;SKG_WS/## G?;SKG_WS/## G?;SKG_WS/## G?;SKG_WS/## G?;SKG_WS/## G?;SKG_WS/## G?;SKG_WS/## G?;SKG_WS/## G?;SKG_WS/## G?;SKG_WS/## G?;SKG_WS/## G?;SKG_WS/## G?;SKG_WS/## G?;SKG_WS/## G?;SKG_WS/## G?;SKG_WS/## G?;SKG_WS/## G?;SKG_WS/## G?;SKG_WS/## G?;SKG_WS/## G?;SKG_WS/## G?;SKG_WS/## G?;SKG_WS/## G?;SKG_WS/## G?;SKG_WS/## G?;SKG_WS/## G?;SKG_WS/## G?;SKG_WS/## G?;SKG_WS/## G?;SKG_WS/## G?;SKG_WS/## ?;KGWS/## ?;KGWS/## ?;KGWS/## ?;KGWS/## ?;KGWS/## ?;KGWS/## ;GS/## ;GS/## ;GS/## ;GS/## ;GS/## ;GS/## ;GS/## ;GS/## ;GS/## ;GS/## ;GS/## ;GS/## ;GS/## ;GS/## ;GS/## ;GS/## ;GS/## ;GS/## ;GS/## ;GS/## ;GS/## ;GS/## ;GS/## ;GS/## ;GS/## ;GS/## ;GS/## ;GS/## ;GS/## ;GS/## ;GS/## ;GS/## ;GS/## ;GS/## ;GS/## ;GS/## ;GS/## ;GS/## ;GS/## ;GS/## ;GS/## ;GS/## ;GS/## ;GS/## ;GS/## B;NGZS/## B;NGZS/## B;NGZS/## B;NGZS/## B;NGZS/## B;NGZS/## B;NGZS/## B;NGZS/## B;NGZS/## B;NGZS/## BK;NWGZcS/## BK;NWGZcS/## BK;NWGZcS/## BK;NWGZcS/## BK;NWGZcS/## BK;NWGZcS/## BK;NWGZcS/## BK;NWGZcS/## BK;NWGZcS/## BK;NWGZcS/## BK;NWGZcS/## BK;NWGZcS/## BK;NWGZcS/## BK;NWGZcS/## BK;NWGZcS/## BK;NWGZcS/## BK;NWGZcS/## BK;NWGZcS/## BK;NWGZcS/## BK;NWGZcS/## BK;NWGZcS/## BK;NWGZcS/## BK;NWGZcS/## BK;NWGZcS/## BK;NWGZcS/## BK;NWGZcS/## K;WGcS/## K;WGcS/## K;WGcS/## K;WGcS/## K;WGcS/## K;WGcS/## K;WGcS/## K;WGcS/## K;WGcS/## K;WGcS/## K;WGcS/## K;WGcS/## K;WGcS/## K;WGcS/## K;WGcS/## K;WGcS/## K;WGcS/## K;WGcS/## K;WGcS/## K;WGcS/## K;WGcS/## K;WGcS/## K;WGcS/## ;GS/## ;GS/## ;GS/## ;GS/## ;GS/## ;GS/## ;GS/## ;GS/## ;GS/## ;GS/## ;GS/## ;GS/## ;GS/## ;GS/## ;GS/## ;GS/## ;GS/## ;GS/## ;GS/## ;GS/## ;GS/## ;GS/## ;GS/## ;GS/## ;GS/## ;GS/## ;GS/## ;GS/## ;GS/## ;GS/## ;GS/## ;GS/## ;GS/## ;GS/## ;GS/## ;GS/## ;GS/## ;GS/## ;GS/## ;GS/## ;GS/## ;GS/## ;GS/## ;GS/## ;GS/## ;GS/## ;GS/## ;GS/## ;GS/## ;GS/## ;GS/## ;GS/## ;GS/## ;GS/## ;GS/## ;GS/## ;GS/## ;GS/## ;GS/## ;GS/## ;GS/## ;GS/## ;GS/## ;GS/## ;GS/## ;GS/## ;GS/## ;GS/## ;GS/## ;GS/## ;GS/## ?;KGWS/## ?;KGWS/## ?;KGWS/## ?N;KZGWfS/## ?N;KZGWfS/## ?N;KZGWfS/## ?N;KZGWfS/## ?N;KZGWfS/## ?N;KZGWfS/## ?N;KZGWfS/## ?N;KZGWfS/## ?N;KZGWfS/## ?N;KZGWfS/## ?N;KZGWfS/## ?N;KZGWfS/## ?N;KZGWfS/## ?N;KZGWfS/## ?N;KZGWfS/## ?N;KZGWfS/## ?N;KZGWfS/## ?N;KZGWfS/## ?N;KZGWfS/## ?N;KZGWfS/## ?N;KZGWfS/## ?N;KZGWfS/## ?N;KZGWfS/## ?N;KZGWfS/## ?N;KZGWfS/## ?N;KZGWfS/## ?N;KZGWfS/## ?N;KZGWfS/## ?N;KZGWfS/## ?N;KZGWfS/## ?N;KZGWfS/## ?N;KZGWfS/## ?N;KZGWfS/## ?N;KZGWfS/## ?N;KZGWfS/## ?N;KZGWfS/## ?N;KZGWfS/## ?N;KZGWfS/## ?N;KZGWfS/## ?N;KZGWfS/## ?N;KZGWfS/## ?N;KZGWfS/## ?N;KZGWfS/## ?N;KZGWfS/## ?N;KZGWfS/## ?N;KZGWfS/## ?N;KZGWfS/## ?N;KZGWfS/## ?N;KZGWfS/## ?N;KZGWfS/## ?N;KZGWfS/## ?N;KZGWfS/## ?N;KZGWfS/## ?N;KZGWfS/## ?N;KZGWfS/## ?N;KZGWfS/## ?N;KZGWfS/## ?N;KZGWfS/## ?N;KZGWfS/## ?N;KZGWfS/## ?N;KZGWfS/## ?N;KZGWfS/## ?N;KZGWfS/## ?N;KZGWfS/## ?N;KZGWfS/## ?N;KZGWfS/## ?N;KZGWfS/## ?N;KZGWfS/## ?N;KZGWfS/## ?N;KZGWfS/## ?N;KZGWfS/## ?N;KZGWfS/## ?N;KZGWfS/## ?N;KZGWfS/## ?N;KZGWfS/## ?N;KZGWfS/## ?N;KZGWfS/## ?N;KZGWfS/## ?N;KZGWfS/## ?N;KZGWfS/## ?N;KZGWfS/## ?N;KZGWfS/## ?N;KZGWfS/## ?N;KZGWfS/## ?N;KZGWfS/## ?N;KZGWfS/## ?N;KZGWfS/## ?N;KZGWfS/## ?N;KZGWfS/## ?N;KZGWfS/## ?N;KZGWfS/## ?N;KZGWfS/## ?N;KZGWfS/## ?N;KZGWfS/## ?N;KZGWfS/## ?N;KZGWfS/## ?N;KZGWfS/## ?N;KZGWfS/## ?N;KZGWfS/## ?N;KZGWfS/## ?N;KZGWfS/## ?N;KZGWfS/## ?N;KZGWfS/## ?N;KZGWfS/## ?N;KZGWfS/## ?N;KZGWfS/## ?N;KZGWfS/## ?N;KZGWfS/## ?N;KZGWfS/## ?N;KZGWfS/## ?N;KZGWfS/## ?N;KZGWfS/## ?N;KZGWfS/## ?N;KZGWfS/## ?NB;KZNGWfZS/## ?NB;KZNGWfZS/## ?NB;KZNGWfZS/## ?NKB;KZWNGWfcZS/## ?NKB;KZWNGWfcZS/## ?NKB;KZWNGWfcZS/## ?NKB;KZWNGWfcZS/## KB;WNGcZS/## KB;WNGcZS/## KB;WNGcZS/## KB;WNGcZS/## KB;WNGcZS/## KB;WNGcZS/## KB;WNGcZS/## KB;WNGcZS/## KB;WNGcZS/## KB;WNGcZS/## KB;WNGcZS/## KB;WNGcZS/## KB;WNGcZS/## KB;WNGcZS/## KB;WNGcZS/## KB;WNGcZS/## KB;WNGcZS/## KB;WNGcZS/## KB;WNGcZS/## KB;WNGcZS/## KB;WNGcZS/## KB;WNGcZS/## KB;WNGcZS/## KB;WNGcZS/## KB;WNGcZS/## KB;WNGcZS/## KB;WNGcZS/## KB;WNGcZS/## KB;WNGcZS/## KB;WNGcZS/## KB;WNGcZS/## KB;WNGcZS/## KB;WNGcZS/## KB;WNGcZS/## KB;WNGcZS/## KB;WNGcZS/## KB;WNGcZS/## KB;WNGcZS/## B;NGZS/## B;NGZS/## B;NGZS/## B;NGZS/## B;NGZS/## B;NGZS/## ;GS/## ;GS/## ;GS/## ;GS/## ;GS/## ;GS/## ;GS/## ;GS/## ;GS/## ;GS/## ;GS/## ;GS/## ;GS/## ;GS/## ;GS/## ;GS/## ;GS/## ;GS/## ;GS/## ;GS/## ;GS/## ;GS/## ;GS/## ;GS/## ;GS/## ;GS/## ;GS/## ;GS/## ;GS/## ;GS/## ;GS/## ;GS/## ;GS/## ;GS/## ;GS/## ;GS/## ;GS/## ;GS/## ;GS/## ;GS/## ;GS/## ;GS/## ;GS/## ;GS/## ;GS/## ;GS/## ;GS/## ;GS/## ;GS/## ;GS/## ;GS/## ;GS/## ;GS/## ;GS ;GS ;GS ;GS ;GS ;GS ;GS ;GS ;GS ;GS ;GS E;QG]S E;QG]S E;QG]S E;QG]S E;QG]S E;QG]S E;QG]S E;QG]S E;QG]S EN;QZG]fS EN;QZG]fS EN;QZG]fS EN;QZG]fS EN;QZG]fS EN;QZG]fS EN;QZG]fS EN;QZG]fS EN;QZG]fS EN;QZG]fS EN;QZG]fS EN;QZG]fS EN;QZG]fS EN;QZG]fS EN;QZG]fS EN;QZG]fS EN;QZG]fS EN;QZG]fS EN;QZG]fS EN;QZG]fS EN;QZG]fS EN;QZG]fS EN;QZG]fS EN;QZG]fS EN;QZG]fS EN;QZG]fS EN;QZG]fS EN;QZG]fS EN;QZG]fS EN;QZG]fS EN;QZG]fS EN;QZG]fS EN;QZG]fS EN;QZG]fS EN;QZG]fS EN;QZG]fS EN;QZG]fS N;ZGfS N;ZGfS ;GS ;GS ;GS ;GS ;GS ;GS ;GS ;GS ;GS ;GS ;GS ;GS ;GS ;GS                                                  , , , , , , , , , , , @LX, @LX, @LX, @LX, @LX, @LX, @LX, @LX, @LX, @LX, @LX, @LX, @LX, @LX, @LX, @LX, @LX, @SL_Xk, @SL_Xk, @SL_Xk, @SL_Xk, @SL_Xk, @SL_Xk, @SL_Xk, @SL_Xk, @SL_Xk, @SL_Xk, @SL_Xk, @SL_Xk, @SL_Xk, @SL_Xk, @SL_Xk, @SL_Xk, @SL_Xk, @SL_Xk, @SL_Xk, @SL_Xk, @SL_Xk, @SL_Xk, @SL_Xk, @SL_Xk, @SL_Xk, @SL_Xk, @SL_Xk, @SL_Xk, @SL_Xk, @SL_Xk, @SL_Xk, @SL_Xk, @SL_Xk, @SL_Xk, @SL_Xk, @SL_Xk, @SL_Xk, @SL_Xk, @SL_Xk, @SL_Xk, @SL_Xk, @SL_Xk, @SL_Xk, @SL_Xk, @SL_Xk, @SL_Xk, @SL_Xk, @SL_Xk, @SL_Xk, @SL_Xk, @SL_Xk, @SL_Xk, @SL_Xk, @SL_Xk, @SL_Xk, @SL_Xk, @SL_Xk, @SL_Xk, @SL_Xk, @SL_Xk, @SL_Xk, @SL_Xk, @SL_Xk, @SL_Xk, @SL_Xk, @SL_Xk, @SL_Xk, @SL_Xk, @SL_Xk, @SL_Xk, @SL_Xk, @SL_Xk, @SL_Xk, @SL_Xk, @SL_Xk, @SL_Xk, @SL_Xk, @SL_Xk, @SL_Xk, @SL_Xk, @SL_Xk, @SL_Xk, @SL_Xk, @SL_Xk, @SL_Xk, @SL_Xk, @SL_Xk, @SL_Xk, @SL_Xk, @SL_Xk, @SL_Xk, @SL_Xk, @SL_Xk, @SL_Xk, @SL_Xk, @SL_Xk, @SL_Xk, @SL_Xk, @SL_Xk, @SL_Xk, @SL_Xk, @SL_Xk, @SL_Xk, @SL_Xk, @SL_Xk, @SL_Xk, @SL_Xk, @SL_Xk, @SL_Xk, SD_Pk\, SD_Pk\, SD_Pk\, DP\, DP\, GDSP_\, GDSP_\, GDSP_\, GDSP_\, GDSP_\, GDSP_\, GDSP_\, GDSP_\, GDSP_\, GDSP_\, GDSP_\, GDSP_\, GDSP_\, GDSP_\, GDSP_\, GDSP_\, GDSP_\, GDSP_\, GDSP_\, GDSP_\, GDSP_\, GDSP_\, GDSP_\, GDSP_\, GDSP_\, GDSP_\, GDSP_\, GDSP_\, GDSP_\, GDSP_\, GDSP_\, GDSP_\, GDSP_\, GDSP_\, GDSP_\, GDSP_\, GDSP_\, GDSP_\, GDSP_\, GDSP_\, GDSP_\, GDSP_\, GDSP_\, GDSP_\, GDSP_\, GDSP_\, GDSP_\, GDSP_\, GDSP_\, GDSP_\, GDSP_\, GDSP_\, GDSP_\, GDSP_\, GDSP_\, GDSP_\, DP\, DP\, DP\, DP\, DP\, DP\, DP\, DP\, DP\, DP\, DP\, DP\, DP\, DP\, DP\, DP\, DP\, , , , , , , , , , , , , , , , , , , , , , , , , , , , , , , , , , , , , , , , , , , , , @LX, @LX, @LX, @GLSX_, J@GVLSbX_, J@GVLSbX_, J@GVLSbX_, J@GVLSbX_, J@GVLSbX_, J@GVLSbX_, J@GVLSbX_, J@GVLSbX_, J@GVLSbX_, J@GVLSbX_ J@GVLSbX_ J@GVLSbX_ J@GVLSbX_ J@GVLSbX_ J@GVLSbX_ J@GVLSbX_ J@GVLSbX_ J@GVLSbX_ J@GVLSbX_ J@GVLSbX_ J@GVLSbX_ J@GVLSbX_ J@GVLSbX_ J@GVLSbX_ J@GVLSbX_ J@GVLSbX_ J@GVLSbX_ J@GVLSbX_ J@GVLSbX_ J@GVLSbX_ J@GVLSbX_ J@GVLSbX_ J@GVLSbX_ J@GVLSbX_ @GLSX_ GS_ GS_ GS_ GS_                                                                          -!! -!! -!! -!! -!! -!! -!! -!! -!! @LX-!! I@ULaX-!! IE@UQLa]X-!! IE@UQLa]X-!! IE@UQLa]X-!! IE@UQLa]X-!! IE@UQLa]X-!! IE@UQLa]X-!! IE@UQLa]X-!! IE@UQLa]X-!! IE@UQLa]X-!! IE@UQLa]X-!! IE@UQLa]X-!! IE@UQLa]X-!! IE@UQLa]X-!! IE@UQLa]X-!! IE@UQLa]X-!! IE@UQLa]X-!! IE@UQLa]X-!! IE@UQLa]X-!! IE@UQLa]X-!! IE@UQLa]X-!! IE@UQLa]X-!! IE@UQLa]X-!! IE@UQLa]X-!! IE@UQLa]X-!! IE@UQLa]X-!! IE@UQLa]X-!! IE@UQLa]X-!! IE@UQLa]X-!! IE@UQLa]X-!! IE@UQLa]X-!! IE@UQLa]X-!! IE@UQLa]X-!! IE@UQLa]X-!! IE@UQLa]X-!! IE@UQLa]X-!! IE@UQLa]X-!! IE@UQLa]X-!! IE@UQLa]X-!! IE@UQLa]X-!! IE@UQLa]X-!! IE@UQLa]X-!! IE@UQLa]X-!! IE@UQLa]X-!! IE@UQLa]X-!! IE@UQLa]X-!! IE@UQLa]X-!! IE@UQLa]X-!! IE@UQLa]X-!! IE@UQLa]X-!! IE@UQLa]X-!! IE@UQLa]X-!! IE@UQLa]X-!! IE@UQLa]X-!! IE@UQLa]X-!! IE@UQLa]X-!! IE@UQLa]X-!! IE@UQLa]X-!! IE@UQLa]X-!! IE@UQLa]X-!! IE@UQLa]X-!! IE@UQLa]X-!! IE@UQLa]X-!! IE@UQLa]X-!! IE@UQLa]X-!! IE@UQLa]X-!! IE@UQLa]X-!! IE@UQLa]X-!! IE@UQLa]X-!! IE@UQLa]X-!! IE@UQLa]X-!! IE@UQLa]X-!! IE@UQLa]X-!! IE@UQLa]X-!! IE@UQLa]X-!! IE@UQLa]X-!! IE@UQLa]X-!! IE@UQLa]X-!! IE@UQLa]X-!! IE@UQLa]X-!! IE@UQLa]X-!! IE@UQLa]X-!! IE@UQLa]X-!! IE@UQLa]X-!! IE@UQLa]X-!! E@QL]X-!! E@QL]X-!! E@QL]X-!! E@QL]X-!! E@QL]X-!! @LX-!! @LX-!! @LX-!! @LX-!! @LX-!! @LX-!! @LX-!! @LX-!! @LX-!! @LX-!! @LX-!! @LX-!! @LX-!! @LX-!! @LX-!! @LX-!! @LX-!! @LX-!! @LX-!! @LX-!! @LX-!! @LX-!! @LX-!! @LX-!! @=LIXU-!! @=LIXU-!! @=LIXU-!! @=LIXU-!! @=LIXU-!! @=LIXU-!! @=LIXU-!! @=LIXU-!! @=LLIXXUd-!! @=LLIXXUd-!! @=LLIXXUd-!! @=LLIXXUd-!! @=LLIXXUd-!! =LIXUd-!! =LIXUd-!! =LIXUd-!! =LIXUd-!! =LIXUd-!! =LIXUd-!! =LIXUd-!! =LIXUd-!! =LIXUd-!! =LIXUd-!! =LIXUd-!! =LIXUd-!! =LIXUd-!! =LIXUd-!! =LIXUd-!! =LIXUd-!! =LIXUd-!! =LIXUd-!! =LIXUd-!! =LIXUd-!! =LIXUd-!! =LIXUd-!! =LIXUd-!! =LIXUd-!! LXd-!! LXd-!! LXd-!! LXd-!! LXd-!! LXd-!! LXd-!! LXd-!! LXd-!! LXd-!! LXd-!! LXd-!! LXd-!! LXd-!! LXd-!! LXd-!! LXd-!! LXd-!! LXd-!! LXd-!! LXd-!! LXd-!! LXd-!! LXd-!! LXd-!! LXd-!! LXd-!! LXd-!! LXd-!! LXd-!! LXd-!! LXd-!! LXd-!! LXd-!! LXd-!! LXd-!! LXd-!! -!! -!! -!! -!! -!! -!! -!! -!! -!! -!! -!! -!! -!! -!! -!! -!! -!! -!! -!! -!! -!! -!! -!! -!! -!! -!! -!! -!! -!! -!! -!! -!! -!! -!! -!! -!! -!! -!! -!! -!! -!! -!! -!! -!! -!! -!! EQ]-!! EQ]-!! @ELQX]-!! @ELQX]-!! @ELQX]-!! @ELQX]-!! @ELQX]-!! @ELQX]-!! @ELQX]-!! @ELQX]-!! @ELQX]-!! @ELQX]-!! @ELQX]-!! @ELQX]-!! @ELQX]-!! @ELQX]-!! @ELQX]-!! @ELQX]-!! @ELQX]-!! @ELQX]-!! @ELQX]-!! @ELQX]-!! @ELQX]-!! @ELQX]-!! @ELQX]-!! @ELQX]-!! @ELQX]-!! @ELQX]-!! @ELQX]-!! @ELQX]-!! @ELQX]-!! @ELQX]-!! @ELQX]-!! @ELQX]-!! @ELQX]-!! @ELQX]-!! @ELQX]-!! @ELQX]-!! @ELQX]-!! @ELQX]-!! @ELQX]-!! @ELQX]-!! EQ]-!! EQ]-!! EQ]-!! EQ]-!! EQ]-!! EQ]-!! -!! -!! -!! -!! -!! -!! -!! -!! -!! -!! -!! -!! -!! -!! -!! -!! -!! -!! -!! -!! -!! -!! -!! -!! -!! -!! -!! -!! -!! -!! -!! -!! -!! -!! -!! -!! -!! -!! -!! -!! -!! -!! -!! -!! -!! -!! -!! -!! -!! -!! -!! -!! -!! -!! -!! -!! -!! -!! -!! -!! -!! -!! -!! -!! -!! -!! -!! -!! @LX-!! @LX-!! @LX-!! @LX-!! @LX-!! @LX-!! @LX-!! G@SL_X-!! G@SL_X-,!! G@SL_X-,!! G@SL_X-,!! G@SL_X-,!! G@SL_X-,!! G@SL_X-,!! G@SL_X-,!! G@SL_X-,!! G@SL_X-,!! G@SL_X-,!! G@SL_X-,!! G@SL_X-,!! G@SL_X, G@SL_X, G@SL_X, G@SL_X, G@SL_X, G@SL_X, G@SL_X, G@SL_X, G@SL_X, G@SL_X, G@SL_X, G@SL_X, G@SL_X, G@SL_X, G@SL_X, G@SL_X, G@SL_X, G@SL_X, G@SL_X, G@SL_X, G@SL_X, G@SL_X, G@SL_X, G@SL_X, G@SL_X, G@SL_X, G@SL_X, G@SL_X, G@SL_X, G@SL_X, G@SL_X, G@SL_X, G@SL_X, G@SL_X, G@SL_X, G@SL_X, G@SL_X, G@SL_X, G@SL_X, G@SL_X, G@SL_X, G@SL_X, G@SL_X, G@SL_X, G@SL_X, G@SL_X, G@SL_X, G@SL_X, G@SL_X, G@SL_X, G@SL_X, G@SL_X, G@SL_X, G@SL_X, G@SL_X, G@SL_X, G@SL_X, G@SL_X, G@SL_X, G@SL_X, G@SL_X, G@SL_X, G@SL_X, G@SL_X, G@SL_X, G@SL_X, G@SL_X, G@SL_X, G@SL_X, G@SL_X, G@SL_X, G@SL_X, G@SL_X, G@SL_X, G@SL_X, G@SL_X, G@SL_X, G@SL_X, G@SL_X, G@SL_X, G@SL_X, G@SL_X, G@SL_X, G@SL_X, G@SL_X, G@SL_X, G@SL_X, G@SL_X, G@SL_X, G@SL_X, G@SL_X, G@SL_X, G@SL_X, G@SL_X, G@SL_X, G@SL_X, G@SL_X, G@SL_X, G@;SLG_XS, G@;SLG_XS, G@;SLG_XS, G@;SLG_XS, G@L;SLXG_XdS, G@L;SLXG_XdS, G@L;SLXG_XdS, G@L;SLXG_XdS, @L;LXGXdS, @L;LXGXdS, @L;LXGXdS, @L;LXGXdS, @L;LXGXdS, @L;LXGXdS, @L;LXGXdS, L;XGdS, L;XGdS, L;XGdS, L;XGdS, L;XGdS, L;XGdS, L;XGdS, L;XGdS, L;XGdS, L;XGdS, L;XGdS, L;XGdS, L;XGdS, L;XGdS, L;XGdS, L;XGdS, L;XGdS, L;XGdS, L;XGdS, L;XGdS, L;XGdS, L;XGdS, L;XGdS, L;XGdS, L;XGdS, L;XGdS, L;XGdS, L;XGdS, L;XGdS, L;XGdS, L;XGdS, L;XGdS, L;XGdS, L;XGdS, L;XGdS, L;XGdS, ;GS, ;GS, ;GS, ;GS, , , , , , , , , , , , , , , , , , , , , , , , , , , , , , , , , , , , , , , , , , , , , , , , , , , , , , , , , , , , , , , , @LX, @LX, @LX, @LX, @LX, D@PL\X, D@PL\X, D@PL\X, D@PL\X, D@PL\X, D@PL\X, D@PL\X, D@PL\X, D@PL\X, D@PL\X, D@PL\X, D@PL\X, D@PL\X, D@PL\X, D@PL\X, D@PL\X, D@PL\X, D@PL\X, D@PL\X, D@PL\X, D@PL\X, D@PL\X, D@PL\X, D@PL\X, D@PL\X, D@PL\X, D@PL\X, D@PL\X, D@PL\X, D@PL\X, D@PL\X, D@PL\X, D@PL\X, D@PL\X, @LX, @LX, @LX, @LX, @LX, @LX, @LX, @LX, , , , , , , , , , , , , , , , , , , , , , , , , , , , , , , , , , , , , , , , , , , , , , , , , , , , , , , , , , , , , , , , , , , , , @LX, @LX, @LX, @LX, @LX, @LX, @LX,* @LX,* @LX,* @LX,* @LX,* @LX,* @ELQX],* @ELQX],* @ELQX],* @ELQX],* @ELQX],* @ELQX],* @ELQX],* @ELQX]* @ELQX]* @ELQX]* @ELQX]* @ELQX]* @ELQX]* @ELQX]* @ELQX]* @ELQX]* @ELQX]* @ELQX]* @ELQX]* @ELQX]* @ELQX]* @ELQX]* @ELQX]* @ELQX]* @ELQX]* @ELQX]* @ELQX]* @ELQX]* @ELQX]* @ELQX]* @ELQX]* @ELQX]* @ELQX]* @ELQX]* @ELQX]* @ELQX]* @ELQX]* @ELQX]* @ELQX]* @ELQX]* @ELQX]* @ELQX]* @ELQX]* @ELQX]* @ELQX]* @ELQX]* @ELQX]* @ELQX]* @ELQX]* @ELQX]* @ELQX]* @ELQX]* @ELQX]* @ELQX]* @ELQX]* @ELQX]* @ELQX]* @ELQX]* @ELQX]* @ELQX]* @ELQX]* @ELQX]* @ELQX]* @ELQX]* @ELQX]* @ELQX]* @ELQX]* @ELQX]* @ELQX]* @ELQX]* @ELQX]* @ELQX]* @ELQX]* @ELQX]* @ELQX]* @ELQX]* @ELQX]* @ELQX]* @ELQX]* @ELQX]* @ELQX]* @ELQX]* @ELQX]* @ELQX]* @ELQX]* @ELQX]* @ELQX]* @ELQX]* @ELQX]* @ELQX]* @ELQX]* @ELQX]* @ELQX]* @ELQX]* @ELQX]* @ELQX]* @ELQX]* @ELQX]* @ELQX]* @ELQX]* @ELQX]* @ELQX]* @ELQX]* @ELQX]* @ELQX]* @ELQX]* @ELQX]* @ELQX]* @E9LQEX]Q* @E9LQEX]Q* @E9LQEX]Q* @E9LQEX]Q* @E9LQEX]Q* @E9LQEX]Q* @E9LQEX]Q* @E9LQEX]Q* @E9LQEX]Q* @E9LQEX]Q* @E9LQEX]Q* E9QE]Q* E9QE]Q* E9QE]Q* E9QE]Q* E9KQEW]Qc* E9KQEW]Qc* E9KQEW]Qc* E9KQEW]Qc* E9KQEW]Qc* E9KQEW]Qc* E9KQEW]Qc* E9KQEW]Qc* E9KQEW]Qc* 9KEWQc* 9KEWQc* 9KEWQc* 9KEWQc* 9KEWQc* 9KEWQc* 9KEWQc* 9KEWQc* 9KEWQc* 9KEWQc* 9KEWQc* 9KEWQc* 9KEWQc* 9KEWQc* 9KEWQc* 9KEWQc* 9KEWQc* 9KEWQc* 9KEWQc* 9KEWQc* 9KEWQc* 9KEWQc* 9KEWQc* 9KEWQc* 9KEWQc* 9KEWQc* 9KEWQc* 9KEWQc* 9KEWQc* 9KEWQc* 9KEWQc* KWc* KWc* KWc* KWc* KWc* KWc* KWc* KWc* KWc* KWc* KWc* KWc* KWc* KWc* * * * * * * * * * * * * * * * * * * * * * * * * * * * * * * * * * * * * * * * * * * * * * * * * * * * * * * * * * ?KW* ?KW* ?BKNWZ* ?BKNWZ* ?BKNWZ* ?BKNWZ* ?BKNWZ* ?BKNWZ* ?BKNWZ* ?BKNWZ* ?BKNWZ* ?BKNWZ* ?BKNWZ* ?BKNWZ* ?BKNWZ* ?BKNWZ* ?BKNWZ* ?BKNWZ* ?BKNWZ* ?BKNWZ* ?BKNWZ* ?BKNWZ* ?BKNWZ* ?BKNWZ* ?BKNWZ* ?BKNWZ* ?BKNWZ* ?BKNWZ* ?BKNWZ* ?BKNWZ* ?BKNWZ* ?BKNWZ* ?BKNWZ* ?BKNWZ* ?BKNWZ* ?BKNWZ* ?BKNWZ* ?BKNWZ* ?BKNWZ* ?BKNWZ* ?BKNWZ* ?BKNWZ* ?BKNWZ* ?BKNWZ* ?BKNWZ* ?BKNWZ* BNZ* BNZ* BNZ* BNZ* * * * * * * * * * * * * * * * * * * * * * * * * * * * * * * * * * * * * * * * * * * * * * * * * * * * * * * * * * * * * * *        ( ( ( ( @LX( @DLPX\( @DLPX\( @DLPX\( @DLPX\( @DLPX\( @DLPX\( @DLPX\( @DLPX\( @DLPX\( @DLPX\( @DLPX\( @DLPX\( @DLPX\( @DLPX\( @DLPX\( @DLPX\( @DLPX\( @DLPX\( @DLPX\( @DLPX\( @DLPX\( @DLPX\( @DLPX\( @DLPX\( @DLPX\( @DLPX\( @DLPX\( @DLPX\( @DLPX\( @DLPX\( @DLPX\( @DLPX\( @DLPX\( @DLPX\( @DLPX\( @DLPX\( @DLPX\( @DLPX\( @DLPX\( @DLPX\( @DLPX\( @DLPX\( @DLPX\( @DLPX\( @DLPX\( @DLPX\( @DLPX\( @DLPX\( @DLPX\( @DLPX\( @DLPX\( @DLPX\( @DLPX\( @DLPX\( @DLPX\( @DLPX\( @DLPX\( @DLPX\( @DLPX\( @DLPX\( @DLPX\( @DLPX\( @DLPX\( @DLPX\( @DLPX\( @DLPX\( @DLPX\( @DLPX\( @DLPX\( @DLPX\( @DLPX\( @DLPX\( @DLPX\( @DLPX\( @DLPX\( @DLPX\( @DLPX\( @DLPX\( @DLPX\( @DLPX\( @DLPX\( @DLPX\( @DLPX\( @DLPX\( @DLPX\( @DLPX\( @DLPX\( @DLPX\( @DLPX\( @DLPX\( @DLPX\( @DLPX\( @DLPX\( @DLPX\( @DLPX\( @DLPX\( @DLPX\( @DLPX\( @DLPX\( DP\( DP\( DP\( DP\( DP\( DP\( DP\( DP\( DP\( DP\( DP\( DP\( DP\( DP\( DP\( DP\( D;PG\S( D;PG\S( D;PG\S( ;GS( ;GS( ;GS( ;GS( ;GS( ;GS( ;GS( ;GS( ;GS( ;GS( ;GS( ;GS( ;GS( ;GS( ;GS( ;GS( ;GS( ;GS( ;GS( ;GS( ;GS( ;GS( ;GS( ;GS( ;GS( ;GS( ;GS( ;GS( ;GS( ;GS( ;GS( ;GS( ;GS( ;GS( ;GS( ;GS( ;GS( ;GS( ;GS( ;GS( ;GS( ;GS( ;GS( ;GS( ;GS( ;GS( ;GS( ;GS( ( ( ( ( ( ( ( ( ( ( ( ( ( ( ( ( ( ( ( ( ( ( ( ( ( ( ( ( ( ( ( ( ( ( ( ( ( ( ( ( ( ( ( ( ( ( ( ( ( ( ( ( ( ( ( ( ( ?KW( ?9KEWQ( ?9KEWQ( ?9KEWQ( ?9KEWQ( ?9KEWQ( ?9KEWQ( ?9KEWQ( ?9KEWQ( ?9KEWQ( ?9KEWQ( ?9KEWQ( ?9KEWQ( ?S9K_EWkQ( ?S9K_EWkQ( ?S9K_EWkQ( ?S9K_EWkQ( ?S9K_EWkQ( ?S9K_EWkQ( ?S9K_EWkQ( ?S9K_EWkQ( ?S9K_EWkQ( ?S9K_EWkQ( ?S9K_EWkQ( ?S9K_EWkQ( ?S9K_EWkQ( ?S9K_EWkQ( ?S9K_EWkQ( ?S9K_EWkQ( ?S9K_EWkQ( ?S9K_EWkQ( ?S9K_EWkQ( ?S9K_EWkQ( ?S9K_EWkQ( ?S9K_EWkQ( ?S9K_EWkQ( ?S9K_EWkQ( ?S9K_EWkQ( ?S9K_EWkQ( ?S9K_EWkQ( ?S9K_EWkQ( ?S9K_EWkQ( S9_EkQ( S9_EkQ( S9_EkQ( 9EQ( 9EQ( ( ( ( ( ( ( ( ( ( ( ( ( ( ( ( ( ( ( ( ( ( ( ( ( ( ( ( ( ( ( ( ( ( ( ( ( ( ( ( ( ( ( ( ( ( ( ( ( ( ( ( ( ( ( ( ( ( ( ( ( ( ( ( ( ( ( ( ( ( ( ( ( ( ( ( ( ( ( ( ( ( @LX( @8LDXP( @8;LDGXPS( @8;LDGXPS( @8;LDGXPS( @8;LDGXPS( @8;LDGXPS( @8;LDGXPS( @8;LDGXPS( @8;LDGXPS( @8;LDGXPS( @8;LDGXPS( @8;LDGXPS( @8;SLDG_XPSk( @8;SLDG_XPSk( @8;SLDG_XPSk( @8;SLDG_XPSk( @8;SLDG_XPSk( @8;SLDG_XPSk( @8;SLDG_XPSk( @8;SLDG_XPSk( @8;SLDG_XPSk( @8;SLDG_XPSk( @8;SLDG_XPSk( @8;SLDG_XPSk( @8;SLDG_XPSk( @8;SLDG_XPSk( @8;SLDG_XPSk( @8;SLDG_XPSk( @8;SLDG_XPSk( @8;SLDG_XPSk( @8;SLDG_XPSk( @8;SLDG_XPSk( @8;SLDG_XPSk( @8;SLDG_XPSk( @8;SLDG_XPSk( @8;SLDG_XPSk( @8;SLDG_XPSk( @8;SLDG_XPSk( @8;SLDG_XPSk( @8;SLDG_XPSk( @8;SLDG_XPSk( @8;SLDG_XPSk( @8;SLDG_XPSk( @8;SLDG_XPSk( @8;SLDG_XPSk( @8;SLDG_XPSk( @8;SLDG_XPSk( @8;SLDG_XPSk( @8;SLDG_XPSk( @8;SLDG_XPSk( @8;SLDG_XPSk( @8;SLDG_XPSk( @8;SLDG_XPSk( @8;SLDG_XPSk( @8;SLDG_XPSk( @8;SLDG_XPSk( @8;SLDG_XPSk( @8;SLDG_XPSk( @8;SLDG_XPSk( @8;SLDG_XPSk( @8;SLDG_XPSk( @8;SLDG_XPSk( @8;SLDG_XPSk( @8;SLDG_XPSk( @8;SLDG_XPSk( @8;SLDG_XPSk( @8;SLDG_XPSk( @8;SLDG_XPSk( @8;SLDG_XPSk( @8;SLDG_XPSk( @8;SLDG_XPSk( @8;SLDG_XPSk( @8;SLDG_XPSk( @8;SLDG_XPSk( @8;SLDG_XPSk( @8;SLDG_XPSk( @8;SLDG_XPSk( @8;SLDG_XPSk( @8;SLDG_XPSk( @8;SLDG_XPSk( @8;SLDG_XPSk( @8;SLDG_XPSk( @8;SLDG_XPSk( @8;SLDG_XPSk( @8;SLDG_XPSk( @8;SLDG_XPSk( @8;SLDG_XPSk( @8;SLDG_XPSk( @8;SLDG_XPSk( @8;SLDG_XPSk( @8;SLDG_XPSk( @8;SLDG_XPSk( @8;SLDG_XPSk( @8;SLDG_XPSk( @8;SLDG_XPSk( @8;SLDG_XPSk( @8;SLDG_XPSk( @8;SLDG_XPSk( @8;SLDG_XPSk( @8;SLDG_XPSk( @8;SLDG_XPSk( @8;SLDG_XPSk( @8;SLDG_XPSk( @8;SLDG_XPSk( @8;SLDG_XPSk( @8;SLDG_XPSk( @8;SLDG_XPSk( @8;SLDG_XPSk( @8;SLDG_XPSk( @8;SLDG_XPSk( @8;SLDG_XPSk( @8;SLDG_XPSk( @8;SLDG_XPSk( @8;SLDG_XPSk( @8;SLDG_XPSk( @8;SLDG_XPSk( @8;SLDG_XPSk( @8;SLDG_XPSk( @8;SLDG_XPSk( @8;SLDG_XPSk( @8;SLDG_XPSk( @8;SLDG_XPSk( @8;SLDG_XPSk( @8;SLDG_XPSk( @8;SLDG_XPSk( @8;SLDG_XPSk( @8;SLDG_XPSk( @8;SLDG_XPSk( @8;SLDG_XPSk( @8;SPLDG_\XPSkh( @8;SPLDG_\XPSkh( @8;SPLDG_\XPSkh( @8;SPLDG_\XPSkh( @8;SPLDG_\XPSkh( @8;SPLDG_\XPSkh( @8;SPLDG_\XPSkh( @8;SPLDG_\XPSkh( @8;SPLDG_\XPSkh( 8;SPDG_\PSkh( 8;SPDG_\PSkh( 8;SPDG_\PSkh( SP_\kh( P\h( P\h( P\h( P\h( P\h( P\h( P\h( P\h( P\h( P\h( P\h( P\h( P\h( P\h( P\h( P\h( P\h( P\h( P\h( P\h( P\h( ( ( ( ( ( ( ( ( ( ( ( ( ( ( ( ( ( ( ( ( ( ( ( ( ( ( ( ( ( ( ( ( ( ( ( ( ( ( ( ( ( ( ( ( ( ( ( ( ( ( ( ( ( ( ( ( ( ( ( ( ( ( ( ( ( ( ( ( ( ( ( ( ( ( ( ( ( ( ( ( ( S_k( S_k( S_k( S_k( S_k( S_k( S_k( S_k( S_k( S_k( S_k( S_k( S_k( S_k( S_k( S_k( S_k( S_k( S_k( S_k( S_k( S_k( S_k( S_k( S_k( S_k( S_k( S_k( S_k( S_k( S_k( S_k( S_k( S_k( S_k( S_k( S_k( S_k( S_k( ( ( ( ( ( ( ( ( ( ( ( ( ( ( ( ( ( ( ( ( ( ( ( ( ( ( ( ( ( ( ( ( ( ( ( ( ( ( ( ( ( ( ( ( ( ( ( ( ( ( ( ( ( ( ( ( ( ( ( ( ( ( ( ( ( ( ( ( ( ( ( ( ( ( ( ( ( ?KW( ?KW( ?6KBWN( ?69KBEWNQ( ?69KBEWNQ( ?69KBEWNQ( ?69KBEWNQ( ?69KBEWNQ( ?69SKBE_WNQk( ?69SKBE_WNQk( ?69SKBE_WNQk( ?69SKBE_WNQk( ?69SKBE_WNQk( ?69SKBE_WNQk( ?69SKBE_WNQk( ?69SKBE_WNQk( ?69SKBE_WNQk( ?69SKBE_WNQk( ?69SKBE_WNQk( ?69SKBE_WNQk( ?69SKBE_WNQk( ?69SKBE_WNQk( ?69SKBE_WNQk( ?69SKBE_WNQk( ?69SKBE_WNQk( ?69SKBE_WNQk( ?69SKBE_WNQk( ?69SKBE_WNQk( ?69SKBE_WNQk( ?69SKBE_WNQk( ?69SKBE_WNQk( ?69SKBE_WNQk( ?69SKBE_WNQk( ?69SKBE_WNQk( ?69SKBE_WNQk( ?69SKBE_WNQk( ?69SKBE_WNQk( ?69SKBE_WNQk( ?69SKBE_WNQk( ?69SKBE_WNQk( ?69SKBE_WNQk( ?69SKBE_WNQk( ?69SKBE_WNQk( ?69SKBE_WNQk( ?69SKBE_WNQk( ?69SKBE_WNQk( ?69SKBE_WNQk( ?69SKBE_WNQk( ?69SKBE_WNQk( ?69SKBE_WNQk( ?69SKBE_WNQk( ?69SKBE_WNQk( ?69SKBE_WNQk( ?69SKBE_WNQk( ?69SKBE_WNQk( ?69SKBE_WNQk( ?69SKBE_WNQk( ?69SKBE_WNQk( ?69SKBE_WNQk( ?69SKBE_WNQk( ?69SKBE_WNQk( ?69SKBE_WNQk( ?69SKBE_WNQk( ?69SKBE_WNQk( ?69SKBE_WNQk( ?69SKBE_WNQk( ?69SKBE_WNQk( ?69SKBE_WNQk( ?69SKBE_WNQk( ?69SKBE_WNQk( ?69SKBE_WNQk( ?69SKBE_WNQk( ?69SKBE_WNQk( ?69SKBE_WNQk( ?69SKBE_WNQk( ?69SKBE_WNQk( ?69SKBE_WNQk( ?69SKBE_WNQk( ?69SKBE_WNQk( ?69SKBE_WNQk( ?69SKBE_WNQk( ?69SKBE_WNQk( ?69SKBE_WNQk( ?69SKBE_WNQk( ?69SKBE_WNQk( ?69SKBE_WNQk( ?69SKBE_WNQk( ?69SKBE_WNQk( ?69SKBE_WNQk( ?69SKBE_WNQk( ?69SKBE_WNQk( ?69SKBE_WNQk( ?69SKBE_WNQk( ?69SKBE_WNQk( ?69SKBE_WNQk( ?69SKBE_WNQk( ?69SKBE_WNQk( ?69SKBE_WNQk( ?69SKBE_WNQk( ?69SKBE_WNQk( ?69SKBE_WNQk( ?69SKBE_WNQk( ?69SKBE_WNQk( ?69SKBE_WNQk( ?69SKBE_WNQk( ?69SKBE_WNQk( ?69SKBE_WNQk( ?69SKBE_WNQk( ?69SKBE_WNQk( ?69SKBE_WNQk( ?69SKBE_WNQk( ?69SKBE_WNQk( ?69SKBE_WNQk( ?69SKBE_WNQk( ?69SKBE_WNQk( ?69SKBE_WNQk( ?69SKBE_WNQk( ?69SKBE_WNQk( ?69SKBE_WNQk( ?69SKBE_WNQk( ?69SKBE_WNQk( ?69SKBE_WNQk( ?69SKBE_WNQk( ?69SKBE_WNQk( ?69SKBE_WNQk( ?69SKBE_WNQk( ?69SKBE_WNQk( ?69SKBE_WNQk( ?69SKBE_WNQk( ?69SNKBE_ZWNQkf( ?69SNKBE_ZWNQkf( 69SNBE_ZNQkf( 69SNBE_ZNQkf( 69SNBE_ZNQkf( 69SNBE_ZNQkf( 69SNBE_ZNQkf( 9SNE_ZQkf( 9SNE_ZQkf( SN_Zkf( SN_Zkf( NZf( NZf( NZf( NZf( NZf( NZf( NZf( NZf( NZf( NZf( NZf( NZf( NZf( NZf( NZf( NZf( NZf( NZf( NZf( NZf( NZf( NZf( NZf( NZf( NZf( ( ( ( ( ( ( ( ( ( ( ( ( ( ( ( ( ( ( ( ( ( ( ( ( ( ( ( ( ( ( ( ( ( ( ( ( ( ( ( ( ( ( ( ( ( ( ( ( ( ( ( ( ( ( ( ( ( ( ( ( ( ( ( ( ( ( ( ( ( ( ( ( ( ( ( ( ( S_k( S_k( S_k( S_k( S_k( S_k( S_k( S_k( S_k( S_k( S_k( S_k( S_k( S_k( S_k( S_k( S_k( S_k( S_k( S_k( S_k( S_k( S_k( S_k( S_k( S_k( S_k( S_k( S_k( S_k( S_k( S_k( S_k( S_k( S_k( S_k( S_k( S_k( S_k( S_k( S_k( S_k( S_k( S_k( S_k( S_k( S_k( S_k( ( ( ( ( ( ( ( ( ( ( ( ( ( ( ( ( ( ( ( ( ( ( ( ( ( ( ( ( ( ( ( ( ( ( ( ( ( ( ( ( ( ( ( ( ( ( ( ( ( ( ( ( ( ( ( ( ( ( ( ( ( ( ( ( @LX( ;@GLSX( ;4@G@LSLX( ;4@G@LSLX( ;4@G@LSLX( ;4@G@LSLX( P;4@\G@LhSLX( P;4@\G@LhSLX( P;4@\G@LhSLX( P;4@\G@LhSLX( P;4@\G@LhSLX( P;4@\G@LhSLX( P;4@\G@LhSLX( P;4@\G@LhSLX( P;4@\G@LhSLX( P;4@\G@LhSLX( P;4@\G@LhSLX( P;4@\G@LhSLX( P;4@\G@LhSLX( P;4@\G@LhSLX( P;4@\G@LhSLX( P;4@\G@LhSLX( P;4@\G@LhSLX( P;4@\G@LhSLX( P;4@\G@LhSLX( P;4@\G@LhSLX( P;4@\G@LhSLX( P;4@\G@LhSLX( P;4@\G@LhSLX( P;4@\G@LhSLX( P;4@\G@LhSLX( P;4@\G@LhSLX( P;4@\G@LhSLX( P;4@\G@LhSLX( P;4@\G@LhSLX( P;4@\G@LhSLX( P;4@\G@LhSLX( P;4@\G@LhSLX( P;4@\G@LhSLX( P;4@\G@LhSLX( P;4@\G@LhSLX( P;4@\G@LhSLX( P;4@\G@LhSLX( P;4@\G@LhSLX( P;4@\G@LhSLX( P;4@\G@LhSLX( P;4@\G@LhSLX( P;4@\G@LhSLX( P;4@\G@LhSLX( P;4@\G@LhSLX( P;4@\G@LhSLX( P;4@\G@LhSLX( P;4@\G@LhSLX( P;4@\G@LhSLX( P;4@\G@LhSLX( P;4@\G@LhSLX( P;4@\G@LhSLX( P;4@\G@LhSLX( P;4@\G@LhSLX( P;4@\G@LhSLX( P;4@\G@LhSLX( P;4@\G@LhSLX( P;4@\G@LhSLX( P;4@\G@LhSLX( P;4@\G@LhSLX( P;4@\G@LhSLX( P;4@\G@LhSLX( P;4@\G@LhSLX( P;4@\G@LhSLX( P;4@\G@LhSLX( P;4@\G@LhSLX( P;4@\G@LhSLX( P;4@\G@LhSLX( P;4@\G@LhSLX( P;4@\G@LhSLX( P;4@\G@LhSLX( P;4@\G@LhSLX( P;4@\G@LhSLX( P;4@\G@LhSLX( P;4@\G@LhSLX( P;4@\G@LhSLX( P;4@\G@LhSLX( P;4@\G@LhSLX( P;4@\G@LhSLX( P;4@\G@LhSLX( P;4@\G@LhSLX( P;4@\G@LhSLX( P;4@\G@LhSLX( P;4@\G@LhSLX( P;4@\G@LhSLX( P;4@\G@LhSLX( P;4@\G@LhSLX( P;4@\G@LhSLX( P;4@\G@LhSLX( P;4@\G@LhSLX( P;4@\G@LhSLX( P;4@\G@LhSLX( P;4@\G@LhSLX( P;4@\G@LhSLX( P;4@\G@LhSLX( P;4@\G@LhSLX( P;4@\G@LhSLX( P;4@\G@LhSLX( P;4@\G@LhSLX( P;4@\G@LhSLX( P;4@\G@LhSLX( P;4@\G@LhSLX( P;4@\G@LhSLX( P;4@\G@LhSLX( P;4@\G@LhSLX( P;4@\G@LhSLX( P;4@\G@LhSLX( P;4@\G@LhSLX( P;4@\G@LhSLX( P;4@\G@LhSLX( P;4@\G@LhSLX( P;4@\G@LhSLX( P;4@\G@LhSLX( P;4@\G@LhSLX( P;4@\G@LhSLX( P;4@\G@LhSLX( P;4@\G@LhSLX( P;L4@\GX@LhSdLX( ;L4@GX@LSdLX( ;L4@GX@LSdLX( ;L4@GX@LSdLX( ;=L4@GIX@LSUdLX( ;=L4@GIX@LSUdLX( ;=L4@GIX@LSUdLX( ;=L4@GIX@LSUdLX( ;=L4@GIX@LSUdLX( ;=L4@GIX@LSUdLX( =L4@IX@LUdLX( =L4@IX@LUdLX( =L4@IX@LUdLX( =L4@IX@LUdLX( =L4@IX@LUdLX( =L4@IX@LUdLX( =L4@IX@LUdLX( =L4@IX@LUdLX( =L4@IX@LUdLX( =L4@IX@LUdLX( =L4@IX@LUdLX( =L4@IX@LUdLX( =L4@IX@LUdLX( =L4@IX@LUdLX( =L4@IX@LUdLX( =L4@IX@LUdLX( =L4@IX@LUdLX( =L4@IX@LUdLX( =L4@IX@LUdLX( =L4@IX@LUdLX( =L4@IX@LUdLX( =L4@IX@LUdLX( =L4@IX@LUdLX( =L4@IX@LUdLX( =L4@IX@LUdLX( =L4@IX@LUdLX( =L4@IX@LUdLX( =L4@IX@LUdLX( =L4@IX@LUdLX( L4@X@LdLX( L4@X@LdLX( L4@X@LdLX( L4@X@LdLX( L4@X@LdLX( L4@X@LdLX( 4@@LLX( 4@@LLX( 4@@LLX( 4@@LLX( 4@@LLX( 4@@LLX( 4@@LLX( 4@@LLX( 4@@LLX( 4@@LLX( 4@@LLX( 4@@LLX( 4@@LLX( 4@@LLX( 4@@LLX( 4@@LLX( 4@@LLX( 4@@LLX( 4@@LLX( 4@@LLX( 4@@LLX( 4@@LLX( 4@@LLX( 4@@LLX( 4@@LLX( 4@@LLX( 4@@LLX( 4@@LLX( 4@@LLX( 4@@LLX( 4@@LLX( 4@@LLX( 4@@LLX( 4@@LLX( 4@@LLX( 4@@LLX( 4@@LLX( 4@@LLX( 4@@LLX( 4@@LLX( 4@@LLX( 4@@LLX( 4@@LLX( 4@@LLX( 4@@LLX( 4@@LLX( 4@@LLX( 4@@LLX( 4@@LLX( 4@@LLX( 4@@LLX( 4@@LLX( 4@@LLX( 4@@LLX( 4@@LLX( 4@@LLX( 4@@LLX( 4@@LLX( 4@@LLX( 4@@LLX( 4@@LLX( 4@@LLX( 4@@LLX( 4@@LLX( 4@@LLX( 4@@LLX( 4@@LLX( 4@@LLX( 4@@LLX( >4@J@LVLX( >4@J@LVLX( >4@J@LVLX( >4@J@LVLX( >P4@J\@LVhLX( >P4@J\@LVhLX( >PL4@J\X@LVhdLX( >PL4@J\X@LVhdLX( >PL4@J\X@LVhdLX( >PL4@J\X@LVhdLX( >PL4@J\X@LVhdLX( >PL4@J\X@LVhdLX( >PL4@J\X@LVhdLX( >PL4@J\X@LVhdLX( >PL4@J\X@LVhdLX( >PL4@J\X@LVhdLX( >PL4@J\X@LVhdLX( >PL4@J\X@LVhdLX( >PL4@J\X@LVhdLX( >PL4@J\X@LVhdLX( >PL4@J\X@LVhdLX( >PL4@J\X@LVhdLX( >PL4@J\X@LVhdLX( >PL4@J\X@LVhdLX( >PL4@J\X@LVhdLX( >PL4@J\X@LVhdLX( >PL4@J\X@LVhdLX( >PL4@J\X@LVhdLX( >PL4@J\X@LVhdLX( >PL4@J\X@LVhdLX( >PL4@J\X@LVhdLX( >PL4@J\X@LVhdLX( >PL4@J\X@LVhdLX( >PL4@J\X@LVhdLX( >PL4@J\X@LVhdLX( >PL4@J\X@LVhdLX( >PL4@J\X@LVhdLX( >PL4@J\X@LVhdLX( >PL4@J\X@LVhdLX( >PL4@J\X@LVhdLX( L4@X@LdLX( L4@X@LdLX( L4@X@LdLX( L4@X@LdLX( L4@X@LdLX( L4@X@LdLX( L4@X@LdLX( 4@@LLX( 4@@LLX( 4@@LLX( 4@@LLX( 4@@LLX( 4@@LLX( 4@@LLX( 4@@LLX( 4@@LLX( 4@@LLX( 4@@LLX( 4@@LLX( 4@@LLX( 4@@LLX( 4@@LLX( 4@@LLX( 4@@LLX( 4@@LLX( 4@@LLX( 4@@LLX( 4@@LLX( 4@@LLX( 4@@LLX( 4@@LLX( 4@@LLX( 4@@LLX( 4@@LLX( 4@@LLX( 4@@LLX( 4@@LLX( 4@@LLX( 4@@LLX( 4@@LLX( 4@@LLX( 4@@LLX( 4@@LLX( 4@@LLX( 4@@LLX( 4@@LLX( 4@@LLX( 4@@LLX( 4@@LLX( 4@@LLX( 4@@LLX( 4@@LLX( 4@@LLX( 4@@LLX( 4@@LLX( 4@@LLX( 4@@LLX( 4@@LLX( 4@@LLX( 4@@LLX( 4@@LLX( 4@@LLX( 4@@LLX( 4@@LLX( 4@@LLX( 4@@LLX( 4@@LLX( 4@@LLX( 4@@LLX( 4@@LLX( 4@@LLX( 4@@LLX( 4@@LLX( 4@@LLX( 4@@LLX( 4@@LLX( 4@@LLX( 4=@@ILLUX( 4=@@ILLUX( =@ILUX( =@ILUX( =@ILUX( =@ILUX( =@ILUX( =@ILUX( =@ILUX( =@ILUX( =@ILUX( =@ILUX( =@ILUX( =@ILUX( =@ILUX( =@ILUX( =@ILUX( =@ILUX( =@QIL]UXi( =@LQILX]UXdi( =@LQILX]UXdi( =@LQILX]UXdi( =@LQILX]UXdi( =@LQILX]UXdi( =@LQILX]UXdi( =@LQILX]UXdi( =@LQILX]UXdi( =@LQILX]UXdi( =@LQILX]UXdi( =@LQILX]UXdi( =@LQILX]UXdi( =@LQILX]UXdi( =@LQILX]UXdi( =@LQILX]UXdi( =@LQILX]UXdi( =@LQILX]UXdi( =@LQILX]UXdi( =@LQILX]UXdi( =@LQILX]UXdi( =@LQILX]UXdi( =@LQILX]UXdi( =@LQILX]UXdi( =@LQILX]UXdi( =@LQILX]UXdi( =@LQILX]UXdi( =@LQILX]UXdi( =@LQILX]UXdi( =@LQILX]UXdi( =@LQILX]UXdi( =@LQILX]UXdi( =@LQILX]UXdi( =@LQILX]UXdi( =@LQILX]UXdi( =@LQILX]UXdi( =@LQILX]UXdi( =@LQILX]UXdi( =@LQILX]UXdi( =@LQILX]UXdi( =@LQILX]UXdi( =@LQILX]UXdi( =@LQILX]UXdi( =@LQILX]UXdi( =@LQILX]UXdi( =@LQILX]UXdi( =@LQILX]UXdi( =@LQILX]UXdi( =@LQILX]UXdi( =@LQILX]UXdi( =@LQILX]UXdi( =@LQILX]UXdi( =@LQILX]UXdi( =@LQILX]UXdi( =@LQILX]UXdi( =@LQILX]UXdi( =@LQILX]UXdi( =@LQILX]UXdi( =@LQILX]UXdi( =@LQILX]UXdi( =@LQILX]UXdi( =@LQILX]UXdi( =@LQILX]UXdi( =@LQILX]UXdi( =@LQILX]UXdi( =@LQILX]UXdi( =@LQILX]UXdi( =@LQILX]UXdi( =@LQILX]UXdi( =@LQILX]UXdi( =@LQILX]UXdi( =@LQILX]UXdi( =@LQILX]UXdi( =@LQILX]UXdi( =@LQILX]UXdi( =@LQILX]UXdi( =@LQILX]UXdi( =@LQILX]UXdi( =@LQILX]UXdi( =@LQILX]UXdi( =@LQILX]UXdi( =@LQILX]UXdi( =@LQILX]UXdi( =@LQILX]UXdi( =@LQILX]UXdi( =@LQILX]UXdi( =@LQILX]UXdi( =@LQILX]UXdi( =@LQILX]UXdi( =@LQILX]UXdi( =@LQILX]UXdi( =@LQILX]UXdi( =@LQILX]UXdi( =@LQILX]UXdi( =@LQILX]UXdi( =@LQILX]UXdi( =@LQILX]UXdi( =@LQILX]UXdi( =@LQILX]UXdi( @LQLX]Xdi( @LQLX]Xdi( @LQLX]Xdi( @LQLX]Xdi( @L9QLXE]XdQi( @L9QLXE]XdQi( @L9QLXE]XdQi( @L9QLXE]XdQi( @L9QLXE]XdQi( L9QXE]dQi( L9QXE]dQi( L9QXE]dQi( L9QXE]dQi( L9QXE]dQi( L9QXE]dQi( L9QXE]dQi( L9QXE]dQi( L9QXE]dQi( L9QXE]dQi( L9QXE]dQi( L9QXE]dQi( L9QXE]dQi( L9QXE]dQi( L9QXE]dQi( L9QXE]dQi( LI9QXUE]daQi( LI9QXUE]daQi( LI9QXUE]daQi( LI9QXUE]daQi( LI9QXUE]daQi( LI9QXUE]daQi( I9QUE]aQi( I9QUE]aQi( I9QUE]aQi( I9QUE]aQi( I9QUE]aQi( I9QUE]aQi( I9QUE]aQi( I9QUE]aQi( I9QUE]aQi( I9QUE]aQi( I9QUE]aQi( I9QUE]aQi( I9QUE]aQi( I9QUE]aQi( I9QUE]aQi( I9QUE]aQi( I9QUE]aQi( I9QUE]aQi( I9QUE]aQi( I9QUE]aQi( I9QUE]aQi( I9QUE]aQi( I9QUE]aQi( I9QUE]aQi( I9QUE]aQi( I9QUE]aQi( 9QE]Qi( 9QE]Qi( 9QE]Qi( 9QE]Qi( 9QE]Qi( 9QE]Qi( 9QE]Qi( 9QE]Qi( 9QE]Qi( 9QE]Qi( 9QE]Qi( 9QE]Qi( 9QE]Qi( 9QE]Qi( 9QE]Qi( 9QE]Qi( 9QE]Qi( 9QE]Qi( 9QE]Qi( 9QE]Qi( 9QE]Qi( 9QE]Qi( 9QE]Qi( 9QE]Qi( 9QE]Qi( 9QE]Qi( 9QE]Qi( 9QE]Qi( 9QE]Qi( 9QE]Qi( 9QE]Qi( 9QE]Qi( 9QE]Qi( 9QE]Qi( 9QE]Qi( 9QE]Qi( 9QE]Qi( 9QE]Qi( 9QE]Qi( 9QE]Qi( 9QE]Qi( 9QE]Qi( 9QE]Qi( 9QE]Qi( 9QE]Qi( 9QE]Qi( 9QE]Qi( 9QE]Qi( 9QE]Qi( 9QE]Qi( 9QE]Qi( 9QE]Qi( 9QE]Qi( 9QE]Qi( 9QE]Qi( 9QE]Qi( 9QE]Qi( 9QE]Qi( 9QE]Qi( 9QE]Qi( 9QE]Qi( 9QE]Qi( Q]i( Q]i( Q]i( Q]i( Q]i( Q]i( Q]i( Q]i( Q=]IiU( Q=]IiU( Q=]IiU( Q=]IiU( Q=]IiU( Q=]IiU( Q=]IiU( Q=]IiU( Q=]IiU( Q=]IiU( Q=]IiU( QL=]XIidU( QL=]XIidU( QL=]XIidU( QL=]XIidU( QL=]XIidU( L=XIdU( L=XIdU( L=XIdU( L=XIdU( L=XIdU( L=XIdU( L=XIdU( L=XIdU( L=XIdU( L=XIdU( L=XIdU( L=XIdU( L=XIdU( L=XIdU( L=XIdU( L=XIdU( L=XIdU( L=XIdU( L=XIdU( L=XIdU( =IU( =IU( =IU( =IU( =IU( =IU( =IU( =IU( =IU( =IU( =IU( =IU( =IU( =IU( =IU( =IU( =IU( =IU( =IU( =IU( =IU( =IU( =IU( =IU( =IU( =IU( =IU( =IU( =IU( =IU( =IU( =IU( =IU( =IU( =IU( =IU( =IU( =IU( =IU( =IU( =IU( =IU( =IU( =IU( =IU( =IU( =IU( =IU( =IU( =IU( =IU( =IU( ( ( ( ( ( ( ( ( ( ( ( ( ( ( ( ( ( ( ( ( ( ( ( ( ( ( ( ( ( ( ( ( ( ( ( ( ( ( ( ( ( @LXLdX( @LXLdX( @LPXL\dXh( @LPXL\dXh( @LPXL\dXh( @LPXL\dXh( @LPXL\dXh( @LPXL\dXh( @LPXL\dXh( @LPXL\dXh( @LPXL\dXh( @LPXL\dXh( @LPXL\dXh( @LPXL\dXh( @LPXL\dXh( @LPXL\dXh( @LPXL\dXh( @LPXL\dXh( @LPXL\dXh( @LPXL\dXh( @LPXL\dXh( @LPXL\dXh( @LPXL\dXh( @LPXL\dXh( @LPXL\dXh( @LPXL\dXh( @LPXL\dXh( @LPXL\dXh( @LPXL\dXh( @LPXL\dXh( @LPXL\dXh( @LPXL\dXh( @LPXL\dXh( @LPXL\dXh( @LPXL\dXh( @LPXL\dXh( @LPXL\dXh( @LPXL\dXh( @LPXL\dXh( @LPXL\dXh( @LPXL\dXh( @LPXL\dXh( @LPXL\dXh( @LPXL\dXh( @LPXL\dXh( @LPXL\dXh( @LPXL\dXh( @LPXL\dXh( @LPXL\dXh( @LPXL\dXh( @LPXL\dXh( @LPXL\dXh( @LPXL\dXh( @LPXL\dXh( @LPXL\dXh( @LPXL\dXh( @LPXL\dXh( @LPXL\dXh( @LPXL\dXh( @LPXL\dXh( @LPXL\dXh( @LPXL\dXh( @LPXL\dXh( @LPXL\dXh( @LPXL\dXh( @LPXL\dXh( @LPXL\dXh( @LPXL\dXh( @LPXL\dXh( @LPXL\dXh( @LPXL\dXh( @LPXL\dXh( @LPXL\dXh( @LPXL\dXh( @LPXL\dXh( @LPXL\dXh( @LPXL\dXh( @LPXL\dXh( @LPXL\dXh( @LPXL\dXh( @LPXL\dXh( @LPXL\dXh( @LPXL\dXh( @LPXL\dXh( @LPXL\dXh( @LPXL\dXh( @LPXL\dXh( @LPXL\dXh( @LPXL\dXh( @LPXL\dXh( @LPXL\dXh( @LPXL\dXh( @LPXL\dXh( @LPXL\dXh( @LPXL\dXh( @LPXL\dXh( @LPXL\dXh( @LPXL\dXh( @LPXL\dXh( @LPXL\dXh( @LPXL\dXh( @LPXL\dXh( @LPXL\dXh( @LPXL\dXh( @LPXL\dXh( @LPXL\dXh( @LPXL\dXh( @LPXL\dXh( @LPXL\dXh( @LPXL\dXh( @LPXL\dXh( @LPXL\dXh( @LPXL\dXh( @LPXL\dXh( @LPXL\dXh( @LPXL\dXh( @LPXL\dXh( @LPXL\dXh( @L>PXLJ\dXVh( @L>PXLJ\dXVh( @L>PXLJ\dXVh( @LG>PXLSJ\dX_Vh( @LG>PXLSJ\dX_Vh( @LG>PXLSJ\dX_Vh( @LG>PXLSJ\dX_Vh( @LG>PXLSJ\dX_Vh( @LG>PXLSJ\dX_Vh( @LG>PXLSJ\dX_Vh( @LG>PXLSJ\dX_Vh( @LG>PXLSJ\dX_Vh( G>PSJ\_Vh( G>PSJ\_Vh( G>PSJ\_Vh( G>PSJ\_Vh( G>PSJ\_Vh( G>PSJ\_Vh( G>PSJ\_Vh( G>PSJ\_Vh( G>PSJ\_Vh( G>PSJ\_Vh( G>PSJ\_Vh( G>PSJ\_Vh( G>PSJ\_Vh( G>PSJ\_Vh( G>PSJ\_Vh( G>PSJ\_Vh( G>PSJ\_Vh( G>PSJ\_Vh( G>PSJ\_Vh( G>PSJ\_Vh( G>PSJ\_Vh( G>PSJ\_Vh( >PJ\Vh( >PJ\Vh( >PJ\Vh( >PJ\Vh( >PJ\Vh( >PJ\Vh( >PJ\Vh( >PJ\Vh( >PJ\Vh( >PJ\Vh( >PJ\Vh( >PJ\Vh( >PJ\Vh( P\h( P\h( P\h( P\h( P\h( P\h( P\h( P\h( P\h( P\h( P\h( P\h( P\h( P\h( P\h( P\h( P\h( P\h( P\h( P\h( P\h( P\h( P\h( P\h( P\h( P\h( P\h( P\h( P\h( P\h( P\h( P\h( P\h( P\h( P\h( P\h( P\h( P\h( P\h( P\h( P\h( P\h( P\h( P\h( P\h( P\h( P\h( P\h( P\h( P\h( P\h( P\h( P\h( P\h( P\h( P\h( P\h( P\h( P\h( P\h( P\h( P\h( P\h( P\h( P\h( P\h( PL\Xhd( PL\Xhd( PL\Xhd( PL\Xhd( PL\Xhd( PL@\XLhdX( PL@\XLhdX( PL@\XLhdX( PL@\XLhdX( PL@\XLhdX( PL@\XLhdX( PL@\XLhdX( PL@\XLhdX( PL@\XLhdX( PL@\XLhdX( PL@\XLhdX( PL@\XLhdX( PL@\XLhdX( PL@\XLhdX( PL@\XLhdX( PL@\XLhdX( PL@\XLhdX( PL@\XLhdX( PL@\XLhdX( PL@\XLhdX( PL@\XLhdX( PL@\XLhdX( PL@\XLhdX( PL@\XLhdX( PL@\XLhdX( L@XLdX( L@XLdX( L@XLdX( @LX( @LX( @LX( @LX( @LX( @LX( @LX( @LX( @LX( @LX( @LX( @LX( @LX( @LX( @LX( @LX( @LX( @LX( @LX( @LX( @LX( @LX( @LX( @LX( @LX( @LX( @LX( @LX( @LX( @LX( ( ( ( ( ( ( ( ( ( ( ( ( ( ( ( ( ( ( ( ( ( ( ( ( ( ( ( ( ( ( ( ( ( ( ( ( ( ( ( ( ( ( ( ( ( ( ( ( ( ( ( ( (       Q]i Q]i QI9]UEiaQ QI9]UEiaQ QI9]UEiaQ QI9]UEiaQ QI9]UEiaQ QI9]UEiaQ QI9]UEiaQ QI9]UEiaQ QI9]UEiaQ QI9]UEiaQ QI9]UEiaQ QI9]UEiaQ QI9]UEiaQ QI9]UEiaQ QI9]UEiaQ QI9]UEiaQ QI9]UEiaQ QI9]UEiaQ QI9]UEiaQ QI9]UEiaQ QI9]UEiaQ QI9]UEiaQ QI9]UEiaQ QI9]UEiaQ QI9]UEiaQ QI9]UEiaQ QI9]UEiaQ QI9]UEiaQ QI9]UEiaQ QI9]UEiaQ QI9]UEiaQ QI9]UEiaQ QI9]UEiaQ QI9]UEiaQ QI9]UEiaQ QI9]UEiaQ QI9]UEiaQ QI9]UEiaQ QI9]UEiaQ QI9]UEiaQ QI9]UEiaQ QI9]UEiaQ QI9]UEiaQ QI9]UEiaQ QI9]UEiaQ QI9]UEiaQ QI9]UEiaQ QI9]UEiaQ QI9]UEiaQ QI9]UEiaQ QI9]UEiaQ QI9]UEiaQ QI9]UEiaQ QI9]UEiaQ QI9]UEiaQ QI9]UEiaQ QI9]UEiaQ QI9]UEiaQ QI9]UEiaQ QI9]UEiaQ QI9]UEiaQ QI9]UEiaQ QI9]UEiaQ QI9]UEiaQ QI9]UEiaQ QI9]UEiaQ QI9]UEiaQ QI9]UEiaQ QI9]UEiaQ QI9]UEiaQ QI9]UEiaQ QI9]UEiaQ QI9]UEiaQ QI9]UEiaQ QI9]UEiaQ QI9]UEiaQ QI9]UEiaQ QI9]UEiaQ QI9]UEiaQ QI9]UEiaQ QI9]UEiaQ QI9]UEiaQ QI9]UEiaQ QI9]UEiaQ QI9]UEiaQ QI9]UEiaQ QI9]UEiaQ QI9]UEiaQ QI9]UEiaQ QI9]UEiaQ QI9]UEiaQ QI9]UEiaQ QI9]UEiaQ QI9]UEiaQ QI9]UEiaQ QI9]UEiaQ QI9]UEiaQ QI9]UEiaQ QI9]UEiaQ QI9]UEiaQ QI9]UEiaQ QI9]UEiaQ QI9]UEiaQ QI9]UEiaQ QI9]UEiaQ QI9]UEiaQ QI9]UEiaQ QI9]UEiaQ QI9]UEiaQ QI9]UEiaQ QI9]UEiaQ I9UEaQ I9UEaQ I9UEaQ I9UEaQ I9UEaQ I9UEaQ I9UEaQ I9UEaQ I9UEaQ I9EUEQaQ] I9EUEQaQ] I9EUEQaQ] I9EUEQaQ] I9EUEQaQ] I9EUEQaQ] I9EUEQaQ] I9EUEQaQ] I9EUEQaQ] 9EEQQ] 9EEQQ] 9EEQQ] 9EEQQ] 9EEQQ] 9EEQQ] 9EEQQ] 9EEQQ] 9EEQQ] 9EEQQ] 9EEQQ] 9EEQQ] EQ] EQ] EQ] EQ] EQ] EQ] EQ] EQ] EQ] EQ] EQ] EQ] EQ] EQ] EQ] EQ] EQ] EQ] EQ] EQ] EQ] EQ] EQ] EQ] EQ] EQ] EQ] EQ] EQ] EQ] EQ] EQ] EQ] EQ] EQ] EQ] EQ] EQ] EQ] EQ] EQ] EQ] EQ] EQ] EQ] EQ] EQ] EQ] EQ] EQ]                                         4@L 4@L 4@L 4@L 4@L 4@L 4@L 4@L 4@L 4@L 4D@PL\ 4D@PL\ 4D@PL\ 4GD@SPL_\ 4GD@SPL_\ 4GD@SPL_\ 4GD@SPL_\ 4GD@SPL_\ 4GD@SPL_\ 4GD@SPL_\ 4GD@SPL_\ 4GD@SPL_\ 4GD@SPL_\ 4GD@SPL_\ 4GD@SPL_\ 4GD@SPL_\ 4GD@SPL_\ 4GD@SPL_\ 4GD@SPL_\ 4GD@SPL_\ 4GD@SPL_\ 4GD@SPL_\ 4GD@SPL_\ 4GD@SPL_\ 4GD@SPL_\ 4GD@SPL_\ 4GD@SPL_\ 4GD@SPL_\ 4GD@SPL_\ 4GD@SPL_\ 4GD@SPL_\ GDSP_\ GDSP_\ GDSP_\ GDSP_\ GDSP_\ GDSP_\ GDSP_\ GDSP_\ GDSP_\ GDSP_\ GDSP_\ GDSP_\ GDSP_\ GDSP_\ GDSP_\ GDSP_\ GDSP_\ GDSP_\ GDSP_\ GDSP_\ DP\ DP\                                                                    4@L 4@L 4E@QL] I4EU@QaL] I4EU@QaL] I4EU@QaL] I4EU@QaL] I4EU@QaL] I4EU@QaL] I4EU@QaL] I4EU@QaL] I4EU@QaL] I4EU@QaL] I4EU@QaL] I4EU@QaL] I4EU@QaL] I4EU@QaL] I4EU@QaL] I4EU@QaL] I4EU@QaL] I4EU@QaL] I4EU@QaL] I4EU@QaL] I4EU@QaL] I4EU@QaL] I4EU@QaL] I4EU@QaL] I4EU@QaL] I4EU@QaL] I4EU@QaL] I4EU@QaL] I4EU@QaL] I4EU@QaL] I4EU@QaL] I4EU@QaL] I4EU@QaL] I4EU@QaL] I4EU@QaL] I4EU@QaL] I4EU@QaL] I4EU@QaL] I4EU@QaL] I4EU@QaL] I4EU@QaL] I4EU@QaL] I4EU@QaL] I4EU@QaL] I4EU@QaL] I4EU@QaL] I4EU@QaL] I4EU@QaL] I4EU@QaL] I4EU@QaL] I4EU@QaL] I4EU@QaL] I4EU@QaL] I4EU@QaL] I4EU@QaL] I4EU@QaL] I4EU@QaL] I4EU@QaL] I4EU@QaL] I4EU@QaL] I4EU@QaL] I4EU@QaL] I4EU@QaL] 4E@QL] 4E@QL] 4E@QL] 4E@QL] 4E@QL] 4E@QL] 4E@QL] 4E@QL] 4E@QL] 4E@QL] 4E@QL] 4E@QL] 4E@QL] 4E@QL] 4E@QL] 4E@QL] 4E@QL] 4E@QL] 4E@QL] 4E@QL] 4E@QL] 4E@QL] 4E@QL] 4E@QL] 4E@QL] 4E@QL] 4E@QL] 4E@QL] 4E@QL] 4E@QL] 4E@QL] 4E@QL] 4E@QL] 4E@QL] 4E@QL] 4E@QL] 4E@QL] 4E@QL] 4E@QL] 4E@QL] 4E@QL] 4E@QL] 4E@QL] 4E@QL] 4E@QL] 4E@QL] 4E@QL] 4E@QL] 4E@QL] 4E@QL] 4E@QL] 4E@QL] 4E@QL] 41E@=QLI] 41E@=QLI] 41E@=QLI] 41E@=QLI] 41E@=QLI] 41E@=QLI] 41E@=QLI] 41E@=QLI] 41E@=QLI] 41LE@=XQLId] 41LE@=XQLId] 41LE@=XQLId] 41LE@=XQLId] 41LE@=XQLId] 41LE@=XQLId] 41LE@=XQLId] 41LE@=XQLId] 1LE=XQId] 1LE=XQId] 1LE=XQId] 1LE=XQId] 1LE=XQId] 1LE=XQId] 1LE=XQId] 1LE=XQId] 1LE=XQId] 1LE=XQId] 1LE=XQId] 1LE=XQId] 1LE=XQId] 1LE=XQId] 1LE=XQId] 1LE=XQId] 1LE=XQId] 1LE=XQId] 1LE=XQId] 1LE=XQId] 1LE=XQId] 1LE=XQId] LEXQd] LEXQd] LEXQd] LEXQd] LEXQd] LEXQd] LEXQd] LEXQd] LEXQd] LEXQd] LEXQd] LEXQd] LEXQd] LEXQd] LEXQd] LEXQd] LEXQd] LEXQd] LEXQd] LEXQd] LEXQd] LEXQd] LEXQd] EQ] EQ] EQ] EQ]                                                      4@L 4@L 4@L 4@L 4@L 4E@QL] 4IE@UQLa] 4IE@UQLa] 4IE@UQLa] 4IE@UQLa] 4IE@UQLa] 4IE@UQLa] 4IE@UQLa] 4IE@UQLa] 4IE@UQLa] 4IE@UQLa] 4IE@UQLa] 4IE@UQLa] 4IE@UQLa] 4IE@UQLa] 4IE@UQLa] 4IE@UQLa] 4IE@UQLa] 4IE@UQLa] 4IE@UQLa] 4IE@UQLa] 4IE@UQLa] 4IE@UQLa] 4IE@UQLa] 4IE@UQLa] 4IE@UQLa] 4IE@UQLa] 4IE@UQLa] 4IE@UQLa] 4IE@UQLa] 4IE@UQLa] 4IE@UQLa] 4IE@UQLa] 4IE@UQLa] 4IE@UQLa] 4IE@UQLa] 4IE@UQLa] 4IE@UQLa] IEUQa] IEUQa] IEUQa] IEUQa] IEUQa] IEUQa] IEUQa] IEUQa] IEUQa] IEUQa] EQ] EQ] EQ] EQ] EQ] EQ] EQ] EQ] EQ] EQ] EQ] EQ] EQ] EQ] EQ] EQ] EQ] EQ]                                                 4(( 4(( 4(( DP\4(( GDSP_\4(( GDSP_\4(( GDSP_\4(( G4DS@P_L\4(( G4DS@P_L\4(( G4DS@P_L\4(( G4DS@P_L\4(( G4DS@P_L\4(( G4DS@P_L\4(( G4DS@P_L\4(( G4DS@P_L\4(( G4DS@P_L\4(( G4DS@P_L\4(( G4DS@P_L\4(( G4DS@P_L\4(( G4DS@P_L\4(( G4DS@P_L\4(( G4DS@P_L\4(( G4DS@P_L\4(( G4DS@P_L\4(( G4DS@P_L\4(( G4DS@P_L\4(( G4DS@P_L\4(( G4DS@P_L\4(( G4DS@P_L\4(( G4DS@P_L\4(( G4DS@P_L\4(( G4DS@P_L\4(( G4DS@P_L\4(( G4DS@P_L\4(( G4DS@P_L\4(( G4DS@P_L\4(( G4DS@P_L\4(( G4DS@P_L\4(( G4DS@P_L\4(( G4DS@P_L\4(( G4DS@P_L\4(( G4DS@P_L\4(( G4DS@P_L\4(( G4DS@P_L\4(( G4DS@P_L\4(( G4DS@P_L\4(( G4DS@P_L\4(( G4DS@P_L\4(( G4DS@P_L\4(( G4DS@P_L\4(( G4DS@P_L\4(( G4DS@P_L\4(( G4DS@P_L\4(( G4DS@P_L\4(( G4DS@P_L\4(( G4DS@P_L\4(( G4DS@P_L\4(( G4DS@P_L\4(( G4DS@P_L\4(( G4DS@P_L\4(( G4DS@P_L\4(( G4DS@P_L\4(( G4DS@P_L\4(( G4DS@P_L\4(( G4DS@P_L\4(( G4DS@P_L\4(( G4DS@P_L\4(( G4DS@P_L\4(( G4DS@P_L\4(( G4DS@P_L\4(( G4DS@P_L\4(( G4DS@P_L\4(( G4DS@P_L\4(( G4DS@P_L\4(( 4D@PL\4(( 4D@PL\4(( 4D@PL\4(( 4D@PL\4(( 4D@PL\4(( 4D@PL\4(( 4D@PL\4(( 4D@PL\4(( 4D@PL\4(( 4D@PL\4(( 4D@PL\4(( 4D@PL\4(( 4D@PL\4(( 4D@PL\4(( 4D@PL\4(( 4D@PL\4(( 4D@PL\4(( 4D@PL\4(( 4D@PL\4(( 4D@PL\4(( 4D@PL\4(( 4D@PL\4(( 4D@PL\4(( 4D@PL\4(( 4D@PL\4(( 4D@PL\4(( 4D@PL\4(( 4D@PL\4(( 4D@PL\4(( 4D@PL\4(( 4D@PL\4(( 4D@PL\4(( 4D@PL\4(( 4D@PL\4(( 4D@PL\4(( 4D@PL\4(( 4D@PL\4(( 4D@PL\4(( 4D@PL\4(( 4D@PL\4(( 4D@PL\4(( 4D@PL\4(( 4D@PL\4(( 4D@PL\4(( 4D@PL\4(( 4D@PL\4(( 4D@PL\4(( 4D/J@P;VL\Gb4(( 4D/J@P;VL\Gb4(( 4D/J@P;VL\Gb4(( 4D/J@P;VL\Gb4(( 4D/J@P;VL\Gb4(( 4D/J@P;VL\Gb4(( 4D/J@P;VL\Gb4(( 4D/J@P;VL\Gb4(( 4D/J@P;VL\Gb4(( 4D/J@P;VL\Gb4(( 4D/J@P;VL\Gb4(( 4D/J@P;VL\Gb4(( 4D/J@P;VL\Gb4(( D/JP;V\Gb4(( D/JP;V\Gb4(( D/JP;V\Gb4(( D/JP;V\Gb4(( D/JP;V\Gb4(( D/JP;V\Gb4(( D/JP;V\Gb4(( D/JP;V\Gb4(( D/JP;V\Gb4(( /J;VGb4(( /J;VGb4(( /J;VGb4(( /J;VGb4(( /J;VGb4(( /J;VGb4(( /J;VGb4(( /J;VGb4(( /J;VGb4(( /J;VGb4(( /J;VGb4(( /J;VGb4(( /J;VGb4(( /J;VGb4(( /J;VGb4(( /J;VGb4(( /J;VGb4(( /J;VGb4(( /J;VGb4(( /J;VGb4(( /J;VGb4(( /J;VGb4(( /J;VGb4(( /J;VGb4(( /J;VGb4(( JVb4(( JVb4(( JVb4(( JVb4(( JVb4(( JVb4(( 4(( 4(( 4(( 4(( 4(( 4(( 4(( 4(( 4(( 4(( 4(( 4(( 4(( 4(( 4(( 4(( 4(( 4(( 4(( 4(( 4(( 4(( 4(( 4(( 4(( 4(( 4(( 4(( 4(( 4(( 4(( 4(( 4(( 4(( 4(( 4(( 4(( 4(( 4(( 4(( 4(( 4(( 4(( 4(( 4(( 4(( 4(( 4(( 4((             DP\ DGPS\_ DG4PS@\_L DG4PS@\_L DG4PS@\_L DG4PS@\_L DG4PS@\_L DG4PS@\_L DG4PS@\_L DG4PS@\_L DG4PS@\_L DG4PS@\_L DG4PS@\_L DG4PS@\_L DG4PS@\_L DG4PS@\_L DG4PS@\_L DG4PS@\_L DG4PS@\_L DG4PS@\_L DG4PS@\_L DG4PS@\_L DG4PS@\_L DG4PS@\_L DG4PS@\_L DG4PS@\_L DG4PS@\_L DG4PS@\_L DG4PS@\_L DG4PS@\_L DG4PS@\_L DG4PS@\_L DG4PS@\_L DG4PS@\_L DG4PS@\_L DG4PS@\_L DG4PS@\_L DG4PS@\_L G4S@_L 4@L 4@L 4@L 4@L 4@L 4@L 4@L 4@L 4@L 4@L 4@L                                                                        1=I 1E=QI] 1E=QI] 1IE=UQIa] 1IE=UQIa] 1IE=UQIa] 1IE=UQIa] 1IE=UQIa] 1IE=UQIa] 1IE=UQIa] 1IE=UQIa] 1IE=UQIa] 1IE=UQIa] 1IE=UQIa] 1IE=UQIa]4(( 1IE=UQIa]4(( 1IE=UQIa]4(( 1IE=UQIa]4(( 1IE=UQIa]4(( 1IE=UQIa]4(( 1IE=UQIa]4(( 1IE=UQIa]4(( 1IE=UQIa]4(( 1IE=UQIa]4(( 1IE=UQIa]4(( 1IE=UQIa]4(( 1IE=UQIa]4(( 1IE=UQIa]4(( 1IE=UQIa]4(( 1IE=UQIa]4(( 1IE=UQIa]4(( 1IE=UQIa]4(( 1IE=UQIa]4(( 1IE=UQIa]4(( 1IE=UQIa]4(( 1IE=UQIa]4(( 1IE=UQIa]4(( 1IE=UQIa]4(( 1IE=UQIa]4(( 1IE=UQIa]4(( 1IE=UQIa]4(( 1IE=UQIa]4(( 1IE=UQIa]4(( 1IE=UQIa]4(( 1IE=UQIa]4(( 1IE=UQIa]4(( 1IE=UQIa]4(( 1IE=UQIa]4(( 1IE=UQIa]4(( 1IE=UQIa]4(( 1IE=UQIa]4(( 1IE=UQIa]4(( 1IE=UQIa]4(( 1IE=UQIa]4(( 1IE=UQIa]4(( 1IE=UQIa]4(( 1IE=UQIa]4(( 1IE=UQIa]4(( 1IE=UQIa]4(( 1IE=UQIa]4(( 1IE=UQIa]4(( 1IE=UQIa]4(( 1IE=UQIa]4(( 1IE=UQIa]4(( 1IE=UQIa]4(( 1IE=UQIa]4(( 1IE=UQIa]4(( 1IE=UQIa]4(( 1IE=UQIa]4(( 1IE=UQIa]4(( 1IE=UQIa]4(( 1IE=UQIa]4(( 1IE=UQIa]4(( 1IE=UQIa]4(( 1IE=UQIa]4(( 1IE=UQIa]4(( 1IE=UQIa]4(( 1IE=UQIa]4(( 1IE=UQIa]4(( 1IE=UQIa]4(( 1IE=UQIa]4(( 1IE=UQIa]4(( 1IE=UQIa]4(( 1IE=UQIa]4(( 1IE=UQIa]4(( 1IE=UQIa]4(( 1IE=UQIa]4(( 1IE=UQIa]4(( 1IE=UQIa]4(( 1IE=UQIa]4(( 1IE=UQIa]4(( 1IE=UQIa]4(( 1IE=UQIa]4(( 1IE=UQIa]4(( 1IE=UQIa]4(( 1IE=UQIa]4(( 1IE=UQIa]4(( 1IE=UQIa]4(( 1IE=UQIa]4(( 1IE=UQIa]4(( 1IE=UQIa]4(( 1IE=UQIa]4(( 1IE=UQIa]4(( 1IE=UQIa]4(( 1IE=UQIa]4(( 1IE=UQIa]4(( 1IE=UQIa]4(( 1IE=UQIa]4(( 1IE=UQIa]4(( 1IE=UQIa]4(( 1IE=UQIa]4(( 1IE=UQIa]4(( 1IE=UQIa]4(( 1IE=UQIa]4(( 1IE=UQIa]4(( 1IE=UQIa]4(( 1IE=UQIa]4(( 1IE=UQIa]4(( 1IE=UQIa]4(( 1IE=UQIa]4(( 1IE=UQIa]4(( 1IE=UQIa]4(( 1IE=UQIa]4(( 1IE-=UQ9Ia]E4(( IE-UQ9a]E4(( IE-UQ9a]E4(( IE-UQ9a]E4(( IE-UQ9a]E4(( IE-UQ9a]E4(( IE-UQ9a]E4(( IE-UQ9a]E4(( ILE-UXQ9ad]E4(( ILE-UXQ9ad]E4(( ILE-UXQ9ad]E4(( ILE-UXQ9ad]E4(( ILE-UXQ9ad]E4(( ILE-UXQ9ad]E4(( LE-XQ9d]E4(( LE-XQ9d]E4(( LE-XQ9d]E4(( LE-XQ9d]E4(( LE-XQ9d]E4(( LE-XQ9d]E4(( LE-XQ9d]E4(( LE-XQ9d]E4(( LE-XQ9d]E4(( LE-XQ9d]E4(( LE-XQ9d]E4(( LE-XQ9d]E4(( LE-XQ9d]E4(( LE-XQ9d]E4(( LE-XQ9d]E4(( LE-XQ9d]E4(( LE-XQ9d]E4(( LE-XQ9d]E4(( LE-XQ9d]E4(( LE-XQ9d]E4(( LE-XQ9d]E4(( E-Q9]E4(( E-Q9]E4(( E-Q9]E4(( E-Q9]E4(( E-Q9]E4(( E-Q9]E4(( E-Q9]E4(( -9E4(( -9E4(( -9E4(( -9E4(( -9E4(( -9E4(( -9E4(( -9E4(( -9E4(( -9E4(( -9E4(( -9E4(( -9E4(( -9E4(( -9E4(( -9E4(( -9E4(( 4(( 4(( 4(( 4(( 4(( 4(( 4(( 4(( 4(( 4(( 4(( 4(( 4(( 4(( 4(( 4(( 4(( 4(( 4(( 4(( 4(( 4(( 4(( 4(( 4(( 4(( 4(( 4(( 4(( 4(( 4(( 4(( 4(( 4(( 4(( 4(( 4(( 4(( 4(( 4(( 4(( 4(( 4(( 4(( 4(( 4(( 4(( 4(( 4(( 4(( 4(( 4(( 4(( 4(( 4(( /;G4(( /;G4(( /;G4(( /;G4(( /;G4(( /;G4(( /;G4(( /;G4(( /;G4(( /;G4(( /;G4(( /;G4(( /;G4(( /;G4(( /;G4(( /;G4(( /;G4(( /@;LGX4(( D/@P;L\GX4(( D/@P;L\GX4(( D/@P;L\GX4(( D/@P;L\GX4(( D/@P;L\GX4(( D/@P;L\GX4(( D/@P;L\GX4(( D/@P;L\GX4(( D/@P;L\GX4(( D/@P;L\GX4(( D/@P;L\GX4(( D/@P;L\GX4(( D/@P;L\GX4(( D/@P;L\GX4(( D/@P;L\GX4(( D/@P;L\GX4(( D/@P;L\GX4(( D/@P;L\GX4(( D/@P;L\GX4(( D/@P;L\GX4(( D/@P;L\GX4(( D/@P;L\GX4(( D/@P;L\GX4(( D/@P;L\GX4(( D/@P;L\GX4(( D/@P;L\GX4(( D/@P;L\GX4(( D/@P;L\GX4(( D/@P;L\GX4(( D/@P;L\GX4(( D/@P;L\GX4(( D/@P;L\GX4(( D/@P;L\GX4(( D/@P;L\GX4(( D/@P;L\GX4(( D/@P;L\GX4(( D/@P;L\GX4(( D/@P;L\GX4(( D/@P;L\GX4(( D/@P;L\GX4(( /@;LGX4(( @LX4(( @LX4(( @LX4(( @LX4(( 4(( 4(( 4(( 4(( 4(( 4(( 4(( 4(( 4(( 4(( 4(( 4(( 4(( 4(( 4(( 4(( 4(( 4(( 4(( 4(( 4(( 4(( 4(( 4(( 4(( 4(( 4(( 4(( 4(( 4(( 4(( 4(( 4(( 4(( 4(( 4(( 4(( 4(( 4(( 4(( 4(( 4(( 4(( 4(( 4(( 4(( 4(( 4(( 4(( 4(( 4(( 4(( 4(( 4(( 4(( 4(( 4(( 4(( 4(( 1=I4(( 1=I4(( 1=I4(( 1=I4(( 1=I4(( 1=I4(( 1=I4(( 1=I4(( 1=I4(( 1=I4(( 1=I4(( 1=I4(( 1=I4(( 1=I4(( 1=I4(( 1=I4(( 1=I4(( 1=I4(( 1=I4(( 1=I4(( 1=I4(( 1=I4(( 1=I4(( 1=I4(( 1=I4(( 1=I4(( 1=I4(( 1=I4(( 1=I4(( 1=I4(( 1=I4(( 1=I4(( 1E=QI]4(( @1EL=QXI]4(( @1EL=QXI]4(( @1EL=QXI]4(( @1EL=QXI]4(( @1EL=QXI]4(( @1EL=QXI]4(( @1EL=QXI]4(( @1EL=QXI]4(( @1EL=QXI]4(( @1EL=QXI]4(( @1EL=QXI]4(( @1EL=QXI]4(( @1EL=QXI]4(( @1EL=QXI]4(( @1EL=QXI]4(( @1EL=QXI]4(( @1EL=QXI]4(( @1EL=QXI]4(( @1EL=QXI]4(( @1EL=QXI]4(( @1EL=QXI]4(( @1EL=QXI]4(( @1EL=QXI]4(( @1EL=QXI]4(( @1EL=QXI]4(( @1EL=QXI]4(( @1EL=QXI]4(( @1EL=QXI]4(( @1EL=QXI]4(( @1EL=QXI]4(( @1EL=QXI]4(( @1EL=QXI]4(( @1EL=QXI]4(( @1EL=QXI]4(( @1EL=QXI]4(( @1EL=QXI]4(( @1EL=QXI]4(( @1EL=QXI]4(( @1EL=QXI]4(( @1EL=QXI]4(( @1EL=QXI]4(( @1EL=QXI]4(( @1EL=QXI]4(( @1EL=QXI]4(( @1EL=QXI]4(( @1EL=QXI]4(( @1EL=QXI]4(( @1EL=QXI]4(( @1EL=QXI]4(( @1EL=QXI]4(( @1EL=QXI]4(( @1EL=QXI]4(( @1EL=QXI]4(( @1EL=QXI]4(( @1EL=QXI]4(( @1EL=QXI]4(( @1EL=QXI]4(( @1EL=QXI]4(( @1EL=QXI]4(( @1EL=QXI]4(( @1EL=QXI]4(( @1EL=QXI]4(( @1EL=QXI]4(( @1EL=QXI]4(( @1EL=QXI]4(( 1E=QI]4(( 1E=QI]4(( 1E=QI]4(( 1E=QI]4(( 1E=QI]4(( 1E=QI]4(( 1E=QI]4(( 1E=QI]4(( 1E=QI]4(( 1E=QI]4(( 1E=QI]4(( 1E=QI]4(( 1E=QI]4(( 1E=QI]4(( 1E=QI]4(( 1E=QI]4(( 1E=QI]4(( 1E=QI]4(( 1E=QI]4(( 1E=QI]4(( 1E=QI]4(( 1E=QI]4(( 1E=QI]4(( 1E=QI]4(( 1E=QI]4(( 1E=QI]4(( 1E=QI]4(( 1E=QI]4(( 1E=QI]4(( 1E=QI]4(( 1E=QI]4(( 1E=QI]4(( 1E=QI]4(( 1E=QI]4(( 1E=QI]4(( 1E=QI]4(( 1E=QI]4(( 1E=QI]4(( 1E=QI]4(( 1E=QI]4(( 14E=@QIL]4(( 14E=@QIL]4(( 14E=@QIL]4(( 14E=@QIL]4(( 14E=@QIL]4(( 14E=@QIL]4(( 14E=@QIL]4(( 14E=@QIL]4(( 1=4E=I@QIUL]4(( =4EI@QUL]4(( =4EI@QUL]4(( =4EI@QUL]4(( =4EI@QUL]4(( =4EI@QUL]4(( =4EI@QUL]4(( =4EI@QUL]4(( =4EI@QUL]4(( =4EI@QUL]4(( =4EI@QUL]4(( =4EI@QUL]4(( =4EI@QUL]4(( =4EI@QUL]4(( =4EI@QUL]4(( =4EI@QUL]4(( =4EI@QUL]4(( =4EI@QUL]4(( =4EI@QUL]4(( =4EI@QUL]4(( =4EI@QUL]4(( =4EI@QUL]4(( =4EI@QUL]4(( =4EI@QUL]4(( =4EI@QUL]4(( =4EI@QUL]4(( =4EI@QUL]4(( =4EI@QUL]4(( =4EI@QUL]4(( =4EI@QUL]4(( 4E@QL]4(( 4E@QL]4(( 4E@QL]4(( 4E@QL]4(( 4E@QL]4(( 4E@QL]4(( 4E@QL]4(( 4E@QL]4(( 4E@QL]4(( 4E@QL]4(( 4E@QL]4(( 4E@QL]4(( 4E@QL]4(( 4E@QL]4(( 4E@QL]4(( EQ]4(( EQ]4(( EQ]4(( EQ]4(( EQ]4(( EQ]4(( EQ]4(( EQ]4(( EQ]4(( EQ]4(( EQ]4(( EQ]4(( EQ]4(( EQ]4(( EQ]4(( EQ]4(( EQ]4(( EQ]4(( EQ]4(( EQ]4(( EQ]4(( EQ]4(( EQ]4(( EQ]4(( EQ]4(( EQ]4(( EQ]4(( EQ]4(( EQ]4(( EQ]4(( EQ]4(( EQ]4(( EQ]4(( EQ]4(( EQ]4(( EQ]4(( EQ]4(( EQ]4(( EQ]4(( EQ]4(( EQ]4(( EQ]4(( EQ]4(( EQ]4(( EQ]4(( EQ]4(( EQ]4(( EQ]4(( EQ]4(( EQ]4(( EQ]4(( EQ]4(( EQ]4(( EQ]4(( EQ]4(( EQ]4(( EQ]4(( EQ]4(( EQ]4(( EQ]4(( EQ]4(( EQ]4(( EQ]4(( EQ]4(( E9QE]Q4(( E9QE]Q4(( E9QE]Q4(( E9QE]Q4(( E9QE]Q4(( E9QE]Q4(( E@9QLE]XQ4(( E@9QLE]XQ4(( E@9QLE]XQ4(( E@9QLE]XQ4(( E@9QLE]XQ4(( E@9QLE]XQ4(( E@9QLE]XQ4(( E@9QLE]XQ4(( E@9QLE]XQ4(( E@9QLE]XQ4(( E@9QLE]XQ4(( E@9QLE]XQ4(( E@9QLE]XQ4(( E@9QLE]XQ4(( E@9QLE]XQ4(( E@9QLE]XQ4(( E@9QLE]XQ4(( E@9QLE]XQ4(( E@9QLE]XQ4(( E@9QLE]XQ4(( @9LEXQ4(( @9LEXQ4(( @9LEXQ4(( @9LEXQ4(( @9LEXQ4(( @9LEXQ4(( @9LEXQ4(( @9LEXQ4(( 9EQ4(( 9EQ4(( 9EQ4(( 9EQ4(( 9EQ4(( 9EQ4(( 9EQ4(( 9EQ4(( 9EQ4(( 9EQ4(( 9EQ4(( 9EQ4(( 9EQ4(( 9EQ4(( 9EQ4(( 9EQ4(( 9EQ4(( 9EQ4(( 9EQ4(( 9EQ4(( 9EQ4(( 4(( 4(( 4(( 4(( 4(( 4(( 4(( 4(( 4(( 4(( 4(( 4(( 4(( 4(( 4(( 4(( 4(( 4(( 4(( 4(( 4(( 4(( 4(( 4(( 4(( 4(( 4(( 4(( 4(( 4(( 4(( 4(( 4(( 4(( 4(( 4(( 4(( 4(( 4(( 4(( 4(( 4(( 4(( 4(( 4(( 4(( 4(( 4(( 4(( 4(( 4(( 4(( 4(( 4(( 4(( 4(( 4(( 4((      2&& 2&& 2&& 4@L2&& 4@L2&& 4@L2&& 4@L2&& 4@L2&& 4@L2&& 4@L2&& 4@L2&& 4@L2&& 4@L2&& 4@L2&& 4@L2&& 4@L2&& 4@L2&& 4@L2&& 4@L2&& 4@L2&& @4DL@PXL\2&& @4DL@PXL\2&& @4DL@PXL\2&& @4DL@PXL\2&& @4DL@PXL\2&& @4DL@PXL\2&& @4DL@PXL\2&& @4DL@PXL\2&& @4DL@PXL\2&& @4DL@PXL\2&& @4DL@PXL\2&& @4DL@PXL\2&& @4DL@PXL\2&& @4DL@PXL\2&& @4DL@PXL\2&& @4DL@PXL\2&& @4DL@PXL\2&& @4DL@PXL\2&& @4DL@PXL\2&& @4DL@PXL\2&& @4DL@PXL\2&& @4DL@PXL\2&& @4DL@PXL\2&& @4DL@PXL\2&& @4DL@PXL\2&& @4DL@PXL\2&& @4DL@PXL\2&& @4DL@PXL\2&& @4DL@PXL\2&& @4DL@PXL\2&& @4DL@PXL\2&& @4DL@PXL\2&& @4DL@PXL\2&& @4DL@PXL\2&& @4DL@PXL\2&& @4DL@PXL\2&& @4DL@PXL\2&& @4DL@PXL\2&& @4DL@PXL\2&& @4DL@PXL\2&& @4DL@PXL\2&& @4DL@PXL\2&& @4DL@PXL\2&& @4DL@PXL\2&& @4DL@PXL\2&& @4DL@PXL\2&& @4DL@PXL\2&& @4DL@PXL\2&& @4DL@PXL\2&& @4DL@PXL\2&& @4DL@PXL\2&& @4DL@PXL\2&& @4DL@PXL\2&& @4DL@PXL\2&& @4DL@PXL\2&& @4DL@PXL\2&& @4DL@PXL\2&& @4DL@PXL\2&& @4DL@PXL\2&& @4DL@PXL\2&& @4DL@PXL\2&& @4DL@PXL\2&& @4DL@PXL\2&& @4DL@PXL\2&& @4DL@PXL\2&& @4DL@PXL\2&& @4DL@PXL\2&& @4DL@PXL\2&& 4D@PL\2&& 4D@PL\2&& 4D@PL\2&& 4D@PL\2&& 4D@PL\2&& 4D@PL\2&& 4D@PL\2&& 4D@PL\2&& 4D@PL\2&& 4D@PL\2&& 4D@PL\2&& 4D@PL\2&& 4D@PL\2&& 4D@PL\2&& 4D@PL\2&& 4D@PL\2&& 4D@PL\2&& 4D@PL\2&& 4D@PL\2&& 4D@PL\2&& 4D@PL\2&& 4D@PL\2&& 4D@PL\2&& 4D@PL\2&& 4D@PL\2&& 4D@PL\2&& 4D@PL\2&& 4D@PL\2&& 4D@PL\2&& 4D@PL\2&& 4D@PL\2&& 4D@PL\2&& 4D@PL\2&& 4D@PL\2&& 4D@PL\2&& 4D@PL\2&& 4D@PL\2&& 4D@PL\2&& 4D@PL\2&& 4D@PL\2&& 4D@PL\2&& 4D@PL\2&& 4D@PL\2&& 4D@PL\2&& 48D@DPLP\2&& 48D@DPLP\2&& 48D@DPLP\2&& 48D@DPLP\2&& 48D@DPLP\2&& 48D@DPLP\2&& 48D@DPLP\2&& 48D@DPLP\2&& 4;8D@GDPLSP\2&& 4;8D@GDPLSP\2&& ;8DGDPSP\2&& ;8DGDPSP\2&& ;8DGDPSP\2&& ;8DGDPSP\2&& ;8DGDPSP\2&& ;8DGDPSP\2&& ;8DGDPSP\2&& ;8DGDPSP\2&& ;8DGDPSP\2&& ;8DGDPSP\2&& ;8DGDPSP\2&& ;8DGDPSP\2&& ;8DGDPSP\2&& ;8DGDPSP\2&& ;8DGDPSP\2&& ;8DGDPSP\2&& ;8DGDPSP\2&& ;8DGDPSP\2&& ;8DGDPSP\2&& ;8DGDPSP\2&& 8DDPP\2&& 8DDPP\2&& 8DDPP\2&& 8DDPP\2&& 8DDPP\2&& 8DDPP\2&& 8DDPP\2&& 8DDPP\2&& 8DDPP\2&& 8DDPP\2&& 8DDPP\2&& 8DDPP\2&& 8DDPP\2&& 8DDPP\2&& 8DDPP\2&& 8DDPP\2&& 8DDPP\2&& 8DDPP\2&& 8DDPP\2&& 8DDPP\2&& 8DDPP\2&& 8DDPP\2&& 8DDPP\2&& 8DDPP\2&& 8DDPP\2&& 8DDPP\2&& 8DDPP\2&& 8DDPP\2&& 8DDPP\2&& DP\2&& DP\2&& DP\2&& DP\2&& DP\2&& DP\2&& DP\2&& DP\2&& DP\2&& DP\2&& DP\2&& DP\2&& DP\2&& DP\2&& DP\2&& DP\2&& DP\2&& DP\2&& DP\2&& DP\2&& DP\2&& DP\2&& DP\2&& DP\2&& DP\2&& DP\2&& DP\2&& DP\2&& DP\2&& DP\2&& DP\2&& DP\2&& DP\2&& DP\2&& DP\2&& DP\2&& DP\2&& DP\2&& DP\2&& DP\2&& DP\2&& DP\2&& DP\2&& DP\2&& DP\2&& DP\2&& DP\2&& DP\2&& DP\2&& DP\2&& DP\2&& DP\2&& DP\2&& DP\2&& DP\2&& DP\2&& DP\2&& DP\2&& DP\2&& DP\2&& DP\2&& @DLPX\2&& @DLPX\2&& @D;LPGX\S2&& @D;LPGX\S2&& @D;LPGX\S2&& @D;LPGX\S2&& @D;LPGX\S2&& @D;LPGX\S2&& @D;LPGX\S2&& @D;LPGX\S2&& @D;LPGX\S2&& @D;LPGX\S2&& @D;LPGX\S2&& @D;LPGX\S2&& @D;LPGX\S2&& @D;LPGX\S2&& @D;LPGX\S2&& @D;LPGX\S2&& @D;LPGX\S2&& @D;LPGX\S2&& @D;LPGX\S2&& @D;LPGX\S2&& @D;LPGX\S2&& @D;LPGX\S2&& @D;LPGX\S2&& @D;LPGX\S2&& @D;LPGX\S2&& @D;LPGX\S2&& @D;LPGX\S2&& D;PG\S2&& D;PG\S2&& D;PG\S2&& D;PG\S2&& D;PG\S2&& ;GS2&& ;GS2&& ;GS2&& ;GS2&& ;GS2&& ;GS2&& ;GS2&& ;GS2&& ;GS2&& ;GS2&& ;GS2&& ;GS2&& ;GS2&& ;GS2&& ;GS2&& ;GS2&& ;GS2&& ;GS2&& 2&& 2&& 2&& 2&& 2&& 2&& 2&& 2&& 2&& 2&& 2&& 2&& 2&& 2&& 2&& 2&& 2&& 2&& 2&& 2&& 2&& 2&& 2&& 2&& 2&& 2&& 2&& 2&& 2&& 2&& 2&& 2&& 2&& 2&& 2&& 2&& 2&& 2&& 2&& 2&& 2&& 2&& 2&& 2&& 2&& 2&& 2&& 2&& 2&& 2&& 2&& 2&& 2&& 2&& 2&& 2&& 2&& 2&& 2&& 2&& 2&& 2&& 2&& 2&& 2&& 2&& 2&& 2&& 2&& 2&& 2&& 2&& 2&&   1%% 1%% 1%% 99EEQQ1%% 99EEQQ1%% 99EEQQ1%% 9@9ELEQXQ1%% 9E@9EQLEQ]XQ1%% 9E@9EQLEQ]XQ1%% 9E@9EQLEQ]XQ1%% 9E@9EQLEQ]XQ1%% 9E@9EQLEQ]XQ1%% 9E@9EQLEQ]XQ1%% 9E@9EQLEQ]XQ1%% 9E@9EQLEQ]XQ1%% 9E@9EQLEQ]XQ1%% 9E@9EQLEQ]XQ1%% 9E@9EQLEQ]XQ1%% 9E@9EQLEQ]XQ1%% 9E@9EQLEQ]XQ1%% 9E@9EQLEQ]XQ1%% 9E@9EQLEQ]XQ1%% 9E@9EQLEQ]XQ1%% 9E@9EQLEQ]XQ1%% 9E@9EQLEQ]XQ1%% 9E@9EQLEQ]XQ1%% 9E@9EQLEQ]XQ1%% 9E@9EQLEQ]XQ1%% 9E@9EQLEQ]XQ1%% 9E@9EQLEQ]XQ1%% 9E@9EQLEQ]XQ1%% 9E@9EQLEQ]XQ1%% 9E@9EQLEQ]XQ1%% 9E@9EQLEQ]XQ1%% 9E@9EQLEQ]XQ1%% 9E@9EQLEQ]XQ1%% 9E@9EQLEQ]XQ1%% 9E@9EQLEQ]XQ1%% 9E@9EQLEQ]XQ1%% 9E@9EQLEQ]XQ1%% 9E@9EQLEQ]XQ1%% 9E@9EQLEQ]XQ1%% 9E@9EQLEQ]XQ1%% 9E@9EQLEQ]XQ1%% 9E@9EQLEQ]XQ1%% 9E@9EQLEQ]XQ1%% 9E@9EQLEQ]XQ1%% 9E@9EQLEQ]XQ1%% 9E@9EQLEQ]XQ1%% 9E@9EQLEQ]XQ1%% 9E@9EQLEQ]XQ1%% 9E@9EQLEQ]XQ1%% 9E@9EQLEQ]XQ1%% 9E@9EQLEQ]XQ1%% 9E@9EQLEQ]XQ1%% 9E@9EQLEQ]XQ1%% 9E@9EQLEQ]XQ1%% 9E@9EQLEQ]XQ1%% 9E@9EQLEQ]XQ1%% 9E@9EQLEQ]XQ1%% 9E@9EQLEQ]XQ1%% 9E@9EQLEQ]XQ1%% 9E@9EQLEQ]XQ1%% 9E@9EQLEQ]XQ1%% 9E@9EQLEQ]XQ1%% 9E@9EQLEQ]XQ1%% 9E@9EQLEQ]XQ1%% 9E@9EQLEQ]XQ1%% 9E@9EQLEQ]XQ1%% 9E@9EQLEQ]XQ1%% 9E@9EQLEQ]XQ1%% 9E@9EQLEQ]XQ1%% 9E@9EQLEQ]XQ1%% 9E@9EQLEQ]XQ1%% 9E@9EQLEQ]XQ1%% 9E@9EQLEQ]XQ1%% 9E@9EQLEQ]XQ1%% 9E@9EQLEQ]XQ1%% 9E@9EQLEQ]XQ1%% 9E@9EQLEQ]XQ1%% 9E@9EQLEQ]XQ1%% 9E@9EQLEQ]XQ1%% 9E@9EQLEQ]XQ1%% 9E@9EQLEQ]XQ1%% 9E@9EQLEQ]XQ1%% 9E@9EQLEQ]XQ1%% 9E@9EQLEQ]XQ1%% 9E@9EQLEQ]XQ1%% 9E@9EQLEQ]XQ1%% 9E@9EQLEQ]XQ1%% 9E@9EQLEQ]XQ1%% 9E@9EQLEQ]XQ1%% 9E@9EQLEQ]XQ1%% 9E@9EQLEQ]XQ1%% 9E@9EQLEQ]XQ1%% 9E@9EQLEQ]XQ1%% 9E@9EQLEQ]XQ1%% 9E@9EQLEQ]XQ1%% 9E@9EQLEQ]XQ1%% 9E@9EQLEQ]XQ1%% 9E@9EQLEQ]XQ1%% 9E@9EQLEQ]XQ1%% 9E@9EQLEQ]XQ1%% 9E@9EQLEQ]XQ1%% 9E@9EQLEQ]XQ1%% 9E@9EQLEQ]XQ1%% 9E@9EQLEQ]XQ1%% 9E@9EQLEQ]XQ1%% 9E@9EQLEQ]XQ1%% 9E@9EQLEQ]XQ1%% 9E@9EQLEQ]XQ1%% 9E@9EQLEQ]XQ1%% 9E@9EQLEQ]XQ1%% 9E@9EQLEQ]XQ1%% 9E@9EQLEQ]XQ1%% 9E@9EQLEQ]XQ1%% 9E@9EQLEQ]XQ1%% 9E@9EQLEQ]XQ1%% 9E@9EQLEQ]XQ1%% 9E@9EQLEQ]XQ1%% 9E@9EQLEQ]XQ1%% 9E@9EQLEQ]XQ1%% 9E@9EQLEQ]XQ1%% 9E@9EQLEQ]XQ1%% 9E@9EQLEQ]XQ1%% 9E@9EQLEQ]XQ1%% 9E@9EQLEQ]XQ1%% 9E@9EQLEQ]XQ1%% 9E@9EQLEQ]XQ1%% 9E@9EQLEQ]XQ1%% 9E@9EQLEQ]XQ1%% 9E@9EQLEQ]XQ1%% @9LEXQ1%% @9LEXQ1%% @9LEXQ1%% @9LEXQ1%% 9EQ1%% 9EQ1%% 9EQ1%% 9EQ1%% 9EQ1%% 9EQ1%% 9EQ1%% I9UEaQ1%% I=9UIEaUQ1%% I=9UIEaUQ1%% I=9UIEaUQ1%% I=9UIEaUQ1%% I=9UIEaUQ1%% I=9UIEaUQ1%% I=9UIEaUQ1%% I=9UIEaUQ1%% I=9UIEaUQ1%% I=9UIEaUQ1%% I=9UIEaUQ1%% I=9UIEaUQ1%% I=9UIEaUQ1%% I=9UIEaUQ1%% I=9UIEaUQ1%% I=9UIEaUQ1%% I=9UIEaUQ1%% I=9UIEaUQ1%% I=9UIEaUQ1%% I=9UIEaUQ1%% I=9UIEaUQ1%% I=9UIEaUQ1%% I=9UIEaUQ1%% I=9UIEaUQ1%% I=9UIEaUQ1%% I=9UIEaUQ1%% I=9UIEaUQ1%% I=9UIEaUQ1%% I=9UIEaUQ1%% I=9UIEaUQ1%% I=9UIEaUQ1%% I=9UIEaUQ1%% I=9UIEaUQ1%% I=9UIEaUQ1%% I=9UIEaUQ1%% I=9UIEaUQ1%% I=9UIEaUQ1%% I=9UIEaUQ1%% I=9UIEaUQ1%% I=9UIEaUQ1%% I=9UIEaUQ1%% I=9UIEaUQ1%% I=9UIEaUQ1%% I=9UIEaUQ1%% I=9UIEaUQ1%% I=9UIEaUQ1%% I=9UIEaUQ1%% I=9UIEaUQ1%% I=9UIEaUQ1%% I=9UIEaUQ1%% I=9UIEaUQ1%% I=9UIEaUQ1%% I=9UIEaUQ1%% I=9UIEaUQ1%% I=9UIEaUQ1%% I=9UIEaUQ1%% I=9UIEaUQ1%% I=9UIEaUQ1%% I=9UIEaUQ1%% I=9UIEaUQ1%% I=9UIEaUQ1%% I=9UIEaUQ1%% I=9UIEaUQ1%% I=9UIEaUQ1%% I=9UIEaUQ1%% I=9UIEaUQ1%% I=9UIEaUQ1%% I=9UIEaUQ1%% I=9UIEaUQ1%% I=9UIEaUQ1%% I=9UIEaUQ1%% I=9UIEaUQ1%% I=9UIEaUQ1%% I=9UIEaUQ1%% I=9UIEaUQ1%% I=9UIEaUQ1%% I=9UIEaUQ1%% I=9UIEaUQ1%% I=9UIEaUQ1%% I=9UIEaUQ1%% I=9UIEaUQ1%% I=9UIEaUQ1%% I=9UIEaUQ1%% I=9UIEaUQ1%% I=9UIEaUQ1%% I=9UIEaUQ1%% I=9UIEaUQ1%% I=9UIEaUQ1%% I=9UIEaUQ1%% I=9UIEaUQ1%% I=9UIEaUQ1%% I=9UIEaUQ1%% I=9UIEaUQ1%% I=9UIEaUQ1%% I=9UIEaUQ1%% I=9UIEaUQ1%% I=9UIEaUQ1%% I=9UIEaUQ1%% I=9UIEaUQ1%% I=9UIEaUQ1%% I=9UIEaUQ1%% I=9UIEaUQ1%% I=9UIEaUQ1%% I=9UIEaUQ1%% I=9UIEaUQ1%% I=9UIEaUQ1%% I=9UIEaUQ1%% I=9UIEaUQ1%% I=9UIEaUQ1%% I=9UIEaUQ1%% I=9UIEaUQ1%% I=9UIEaUQ1%% I=9UIEaUQ1%% I=9UIEaUQ1%% I=9UIEaUQ1%% I=9UIEaUQ1%% I=9UIEaUQ1%% I=9UIEaUQ1%% I=9UIEaUQ1%% I=9UIEaUQ1%% I=9UIEaUQ1%% I=9UIEaUQ1%% =9IEUQ1%% =9IEUQ1%% =9IEUQ1%% =9IEUQ1%% =9IEUQ1%% =?9IKEUWQ1%% =?9IKEUWQ1%% =?H9IKTEUW`Q1%% =?H9IKTEUW`Q1%% ?H9KTEW`Q1%% ?H9KTEW`Q1%% ?H9KTEW`Q1%% ?H9KTEW`Q1%% ?H9KTEW`Q1%% ?H9KTEW`Q1%% ?H9KTEW`Q1%% ?H9KTEW`Q1%% ?H9KTEW`Q1%% ?H9KTEW`Q1%% ?H9KTEW`Q1%% ?H9KTEW`Q1%% ?H9KTEW`Q1%% ?H9KTEW`Q1%% ?H9KTEW`Q1%% ?H9KTEW`Q1%% ?H9KTEW`Q1%% ?H9KTEW`Q1%% ?H9KTEW`Q1%% ?H9KTEW`Q1%% ?H9KTEW`Q1%% ?H9KTEW`Q1%% ?H9KTEW`Q1%% ?H9KTEW`Q1%% ?H9KTEW`Q1%% ?H9KTEW`Q1%% ?H9KTEW`Q1%% ?H9KTEW`Q1%% ?H9KTEW`Q1%% ?H9KTEW`Q1%% ?H9KTEW`Q1%% ?H9KTEW`Q1%% ?H9KTEW`Q1%% ?H9KTEW`Q1%% ?H9KTEW`Q1%% ?H9KTEW`Q1%% ?H9KTEW`Q1%% ?H9KTEW`Q1%% ?H9KTEW`Q1%% ?H9KTEW`Q1%% ?H9KTEW`Q1%% ?H9KTEW`Q1%% ?H9KTEW`Q1%% ?H9KTEW`Q1%% ?H9KTEW`Q1%% ?H9KTEW`Q1%% ?H9KTEW`Q1%% ?H9KTEW`Q1%% ?H9KTEW`Q1%% ?H9KTEW`Q1%% ?H9KTEW`Q1%% ?H9KTEW`Q1%% ?H9KTEW`Q1%% ?H9KTEW`Q1%% ?H9KTEW`Q1%% ?H9KTEW`Q1%% ?H9KTEW`Q1%% ?H9KTEW`Q1%% ?H9KTEW`Q1%% ?H9KTEW`Q1%% ?H9KTEW`Q1%% ?H9KTEW`Q1%% ?H9KTEW`Q1%% ?H9KTEW`Q1%% ?H9KTEW`Q1%% ?H9KTEW`Q1%% ?H9KTEW`Q1%% ?H9KTEW`Q1%% ?H9KTEW`Q1%% ?H9KTEW`Q1%% ?H9KTEW`Q1%% ?H9KTEW`Q1%% ?H9KTEW`Q1%% ?H9KTEW`Q1%% ?H9KTEW`Q1%% ?H9KTEW`Q1%% ?H9KTEW`Q1%% ?H9KTEW`Q1%% ?H9KTEW`Q1%% ?H9KTEW`Q1%% ?H9KTEW`Q1%% ?H9KTEW`Q1%% ?H9KTEW`Q1%% ?H9KTEW`Q1%% ?H9KTEW`Q1%% ?H9KTEW`Q1%% ?H9KTEW`Q1%% ?H9KTEW`Q1%% ?H9KTEW`Q1%% ?H9KTEW`Q1%% ?H9KTEW`Q1%% ?H9KTEW`Q1%% ?H9KTEW`Q1%% ?H9KTEW`Q1%% ?H9KTEW`Q1%% ?H9KTEW`Q1%% ?H9KTEW`Q1%% ?H9KTEW`Q1%% ?H9KTEW`Q1%% H9TE`Q1%% H9TE`Q1%% H9TE`Q1%% H9ATEM`QY1%% H9AGTEMS`QY_1%% H9AGTEMS`QY_1%% 9AGEMSQY_1%% 9AGEMSQY_1%% 9AGEMSQY_1%% 9AGEMSQY_1%% 9AGEMSQY_1%% 9AGEMSQY_1%% 9AGEMSQY_1%% 9AGEMSQY_1%% 9AGEMSQY_1%% 9AGEMSQY_1%% 9AGEMSQY_1%% 9A8GEMDSQYP_1%% 9A8GEMDSQYP_1%% 9A8GEMDSQYP_1%% 9A8GEMDSQYP_1%% 9A8GEMDSQYP_1%% 9A8GEMDSQYP_1%% 9A8GEMDSQYP_1%% 9A8GEMDSQYP_1%% 9A8GEMDSQYP_1%% 9A8GEMDSQYP_1%% 9A8GEMDSQYP_1%% 9A8GEMDSQYP_1%% A8GMDSYP_1%% A8GMDSYP_1%% A8GMDSYP_1%% A8GMDSYP_1%% A8GMDSYP_1%% A8GMDSYP_1%% A8GMDSYP_1%% A8GMDSYP_1%% A8GMDSYP_1%% A8GMDSYP_1%% A8GMDSYP_1%% A8GMDSYP_1%% A8GMDSYP_1%% A8GMDSYP_1%% A8GMDSYP_1%% A8GMDSYP_1%% A8GMDSYP_1%% A8GMDSYP_1%% A8GMDSYP_1%% A8GMDSYP_1%% A8GMDSYP_1%% A8GMDSYP_1%% A8GMDSYP_1%% A8GMDSYP_1%% A8GMDSYP_1%% A8GMDSYP_1%% A8GMDSYP_1%% A8GMDSYP_1%% A8GMDSYP_1%% A8GMDSYP_1%% A8GMDSYP_1%% A8GMDSYP_ A8GMDSYP_ A8GMDSYP_ A8GMDSYP_ A8GMDSYP_ A8GMDSYP_ A8GMDSYP_ A8GMDSYP_ A8GMDSYP_ A8GMDSYP_ A8GMDSYP_ A8GMDSYP_ A8GMDSYP_ A8GMDSYP_ A8GMDSYP_ A8GMDSYP_ A8GMDSYP_ A8GMDSYP_ A8GMDSYP_ A8GMDSYP_ A8GMDSYP_ A8GMDSYP_ A8GMDSYP_ A8GMDSYP_ A8GMDSYP_ A8GMDSYP_ A8GMDSYP_ A8GMDSYP_ A8GMDSYP_ A8GMDSYP_ A8GMDSYP_ A8GMDSYP_ A8GMDSYP_ A8GMDSYP_ A8GMDSYP_ A8GMDSYP_ A8GMDSYP_ A8GMDSYP_ A8GMDSYP_ A8GMDSYP_ A8GMDSYP_ A8GMDSYP_ A8GMDSYP_ A8GMDSYP_ A8GMDSYP_ A8GMDSYP_ A8GMDSYP_ A8GMDSYP_ A8GMDSYP_ A8GMDSYP_ A8GMDSYP_ A8GMDSYP_ A8GMDSYP_ A8GMDSYP_ A8GMDSYP_ A8GMDSYP_ A8GMDSYP_ A8GMDSYP_ A8GMDSYP_ A8GMDSYP_ A8GFMDSRYP_^ A8GFBMDSRNYP_^Z 8GFBDSRNP_^Z 8GF6BDSRBNP_^NZ GF6BSRBN_^NZ GF6BSRBN_^NZ F6BRBN^NZ F6BRBN^NZ F6BRBN^NZ F6BRBN^NZ F6BRBN^NZ F6BRBN^NZ F6BRBN^NZ F6BRBN^NZ F6BRBN^NZ F6BRBN^NZ F6BRBN^NZ F6BRBN^NZ6** F6BRBN^NZ6** F6BRBN^NZ6** F6BRBN^NZ6** F6BRBN^NZ6** F6BRBN^NZ6** F6BRBN^NZ6** F6BRBN^NZ6** F6BRBN^NZ6** F6BRBN^NZ6** F6BRBN^NZ6** F6BRBN^NZ6** F6BRBN^NZ6** F6BRBN^NZ6** F6BRBN^NZ6** F6BRBN^NZ6** F6BRBN^NZ6** F6BRBN^NZ6** F6BRBN^NZ6** F6BRBN^NZ6** F6BRBN^NZ6** F6BRBN^NZ6** F6BRBN^NZ6** F6BRBN^NZ6** F6BRBN^NZ6** F6BRBN^NZ6** F6BRBN^NZ6** F6BRBN^NZ6** F6BRBN^NZ6** F6BRBN^NZ6** F6BRBN^NZ6** F6BRBN^NZ6** F6BRBN^NZ6** F6BRBN^NZ6** F6BRBN^NZ6** F6BRBN^NZ6** F6BRBN^NZ6** F6BRBN^NZ6** F6BRBN^NZ6** F6BRBN^NZ6** F6BRBN^NZ6** F6BRBN^NZ6** F6BRBN^NZ6** F6BRBN^NZ6** F6BRBN^NZ6** F6BRBN^NZ6** F6BRBN^NZ6** F6BRBN^NZ6** F6BRBN^NZ6** F6BRBN^NZ6** F6BRBN^NZ6** F6BRBN^NZ6** F6BRBN^NZ6** F6BRBN^NZ6** F6BRBN^NZ6** F6BRBN^NZ6** F6BRBN^NZ6** F6BRBN^NZ6** F6BRBN^NZ6** F6BRBN^NZ6** F6BRBN^NZ6** F6BRBN^NZ6** F6BRBN^NZ6** F6BRBN^NZ6** F6BRBN^NZ6** 6BBNNZ6** 6BBNNZ6** 6BBNNZ6** 6BBNNZ6** 6BBNNZ6** 6BBNNZ6** 6BBNNZ6** 6BBNNZ6** 6BBNNZ6** 6BBNNZ6** 6BBNNZ6** 6BBNNZ6** 6BBNNZ6** 6BBNNZ6** 6BBNNZ6** 6BBNNZ6** 6BBNNZ6** 6BBNNZ6** 6BBNNZ6** 6BBNNZ6** 6BBNNZ6** 6BBNNZ6** 6BBNNZ6** 6BBNNZ6** 6BBNNZ6** 6BBNNZ6** BNZ6** B>NJZV6** B>NJZV6** B>NJZV6** BN>NZJZfV6** BN>NZJZfV6** BN>NZJZfV6** BN>NZJZfV6** BN>NZJZfV6** BEN>NQZJZ]fV6** EN>QZJ]fV6** EN>QZJ]fV6** EN>QZJ]fV6** EN>QZJ]fV6** EN>QZJ]fV6** EN>QZJ]fV6** EN>QZJ]fV6** EN>QZJ]fV6** EN>QZJ]fV6** EN>QZJ]fV6** EN>QZJ]fV6** EN>QZJ]fV6** EN>QZJ]fV6** EN>QZJ]fV6** EN>QZJ]fV6** EN>QZJ]fV6** EN>QZJ]fV6** EN>QZJ]fV6** EN>QZJ]fV6** EN>QZJ]fV6** EN>QZJ]fV6** EN>QZJ]fV6** EN>QZJ]fV6** EN>QZJ]fV6** EN>QZJ]fV6** EN>QZJ]fV6** EN>QZJ]fV6** EN>QZJ]fV6** EN>QZJ]fV6** EN>QZJ]fV6** EN>QZJ]fV6** EN>QZJ]fV6** EN>QZJ]fV6** EN>QZJ]fV6** EN>QZJ]fV6** EN>QZJ]fV6** EN>QZJ]fV6** EN>QZJ]fV6** EN>QZJ]fV6** EN>QZJ]fV6** EN>QZJ]fV6** EN>QZJ]fV6** EN>QZJ]fV6** EN>QZJ]fV6** EN>QZJ]fV6** EN>QZJ]fV6** EN>QZJ]fV6** EN>QZJ]fV6** EN>QZJ]fV6** EN>QZJ]fV6** EN>QZJ]fV6** EN>QZJ]fV6** EN>QZJ]fV6** EN>QZJ]fV6** EN>QZJ]fV6** EN>QZJ]fV6** EN>QZJ]fV6** EN>QZJ]fV6** EN>QZJ]fV6** EN>QZJ]fV6** EN>QZJ]fV6** EN>QZJ]fV6** EN>QZJ]fV6** EN>QZJ]fV6** EN>QZJ]fV6** EN>QZJ]fV6** EN>QZJ]fV6** EN>QZJ]fV6** EN>QZJ]fV6** EN>QZJ]fV6** EN>QZJ]fV6** EN>QZJ]fV6** EN>QZJ]fV6** EN>QZJ]fV6** EN>QZJ]fV6** EN>QZJ]fV6** EN>QZJ]fV6** EN>QZJ]fV6** EN>QZJ]fV6** EN>QZJ]fV6** EN>QZJ]fV6** EN>QZJ]fV6** EN>QZJ]fV6** EN>QZJ]fV6** EN>QZJ]fV6** EN>QZJ]fV6** EN>QZJ]fV6** EN>QZJ]fV6** EN>QZJ]fV6** EN>QZJ]fV6** EN>QZJ]fV6** EN>QZJ]fV6** N>ZJfV6** N>ZJfV6** N>ZJfV6** N>ZJfV6** N>ZJfV6** N>ZJfV6** N>ZJfV6** N>ZJfV6** N>ZJfV6** N>ZJfV N>ZJfV N>ZJfV N>ZJfV N>ZJfV N>ZJfV N>ZJfV5)) N>ZJfV5)) N>ZJfV5)) N>ZJfV5)) N>ZJfV5)) NP>Z\JfhV5)) NP>Z\JfhV5)) NP>Z\JfhV5)) NP>Z\JfhV5)) P>\JhV5)) P>\JhV5)) P>\JhV5)) DP>P\J\hV5)) DP>P\J\hV5)) DP>P\J\hV5)) DP>P\J\hV5)) DP>P\J\hV5)) DP>P\J\hV5)) DP>P\J\hV5)) DP>P\J\hV5)) DP>P\J\hV5)) DP>P\J\hV5)) DP>P\J\hV5)) DP>P\J\hV5)) DP>P\J\hV5)) DP>P\J\hV5)) DP>P\J\hV5)) DP>P\J\hV5)) DP>P\J\hV5)) DP>P\J\hV5)) DP>P\J\hV5)) DP>P\J\hV5)) DP>P\J\hV5)) DP>P\J\hV5)) DP>P\J\hV5)) DP>P\J\hV5)) DP>P\J\hV5)) DP>P\J\hV5)) DP>P\J\hV5)) DP>P\J\hV5)) DP>P\J\hV5)) DP>P\J\hV5)) DP>P\J\hV5)) DP>P\J\hV5)) DP>P\J\hV5)) DP>P\J\hV5)) DP>P\J\hV5)) DP>P\J\hV5)) DP>P\J\hV5)) DP>P\J\hV5)) DP>P\J\hV5)) DP>P\J\hV5)) DP>P\J\hV5)) DP>P\J\hV5)) DP>P\J\hV5)) DP>P\J\hV5)) DP>P\J\hV5)) DP>P\J\hV5)) DP>P\J\hV5)) DP>P\J\hV5)) DP>P\J\hV5)) DP>P\J\hV5)) DP>P\J\hV5)) DP>P\J\hV5)) DP>P\J\hV5)) DP>P\J\hV5)) DP>P\J\hV5)) DP>P\J\hV5)) DP>P\J\hV5)) DP>P\J\hV5)) DP>P\J\hV5)) DP>P\J\hV5)) DP>P\J\hV5)) DP>P\J\hV5)) DP>P\J\hV5)) DP>P\J\hV5)) DP>P\J\hV5)) DP>P\J\hV5)) DP>P\J\hV5)) DP>P\J\hV5)) DP>P\J\hV5)) DP>P\J\hV5)) DP>P\J\hV5)) DP>P\J\hV5)) DP>P\J\hV5)) DP>P\J\hV5)) DP>P\J\hV5)) DP>P\J\hV5)) DP>P\J\hV5)) DP>P\J\hV5)) DP>P\J\hV5)) DP>P\J\hV5)) DP>P\J\hV5)) DP>P\J\hV5)) DP>P\J\hV5)) DP>P\J\hV5)) DP>P\J\hV5)) DP>P\J\hV5)) DP>P\J\hV5)) DP>P\J\hV5)) DP>P\J\hV5)) DP>P\J\hV5)) DP>P\J\hV5)) DP>P\J\hV5)) DP>P\J\hV5)) DP>P\J\hV5)) DP>P\J\hV5)) P>\JhV5)) P>\JhV5)) P>\JhV5)) P>\JhV5)) P>\JhV5)) P>C=\JOIhV[U5)) P>C=\JOIhV[U5)) P>C=\JOIhV[U5)) P>C=\JOIhV[U5)) P>C=R\JOI^hV[Uj54)()( >C=RJOI^V[Uj4(( C=ROI^[Uj4(( C=ROI^[Uj4(( C=ROI^[Uj4(( C=ROI^[Uj4(( C=ROI^[Uj4(( C=ROI^[Uj4(( C=ROI^[Uj4(( C=ROI^[Uj4(( C=ROI^[Uj4(( C=ROI^[Uj4(( C=ROI^[Uj4(( C=ROI^[Uj4(( C=ROI^[Uj4(( C=ROI^[Uj4(( C=ROI^[Uj4(( C=ROI^[Uj4(( C=ROI^[Uj4(( C=ROI^[Uj4(( C=ROI^[Uj4(( C=ROI^[Uj4(( C=ROI^[Uj4(( C=ROI^[Uj4(( C=ROI^[Uj4(( C=ROI^[Uj4(( C=ROI^[Uj4(( C=ROI^[Uj4(( C=ROI^[Uj4(( C=ROI^[Uj4(( C=ROI^[Uj4(( C=ROI^[Uj4(( C=ROI^[Uj4(( C=ROI^[Uj4(( C=ROI^[Uj4(( C=ROI^[Uj4(( C=ROI^[Uj4(( C=ROI^[Uj4(( C=ROI^[Uj4(( C=ROI^[Uj4(( C=ROI^[Uj4(( C=ROI^[Uj4(( C=ROI^[Uj4(( C=ROI^[Uj4(( C=ROI^[Uj4(( C=ROI^[Uj4(( C=ROI^[Uj4(( C=ROI^[Uj4(( C=ROI^[Uj4(( C=ROI^[Uj4(( C=ROI^[Uj4(( C=ROI^[Uj4(( C=ROI^[Uj4(( C=ROI^[Uj4(( C=ROI^[Uj4(( C=ROI^[Uj4(( C=ROI^[Uj4(( C=ROI^[Uj4(( C=ROI^[Uj4(( C=ROI^[Uj4(( C=ROI^[Uj4(( C=ROI^[Uj4(( C=ROI^[Uj4(( C=ROI^[Uj4(( C=ROI^[Uj4(( C=ROI^[Uj4(( C=ROI^[Uj4(( C=ROI^[Uj4(( C=ROI^[Uj4(( C=ROI^[Uj4(( C=ROI^[Uj4(( C=ROI^[Uj4(( C=ROI^[Uj4(( C=ROI^[Uj4(( C=ROI^[Uj4(( C=ROI^[Uj4(( C=ROI^[Uj4(( C=ROI^[Uj4(( C=ROI^[Uj4(( C=ROI^[Uj4(( C=ROI^[Uj4(( C=ROI^[Uj4(( C=ROI^[Uj4(( C=ROI^[Uj4(( C=ROI^[Uj4(( C=ROI^[Uj4(( C=ROI^[Uj4(( C=ROI^[Uj4(( C=ROI^[Uj4(( C=ROI^[Uj4(( C=ROI^[Uj4(( C=ROI^[Uj4(( C=ROI^[Uj4(( C=ROI^[Uj4(( C=ROI^[Uj4(( C=ROI^[Uj4(( C=ROI^[Uj4(( C=ROI^[Uj4(( =RI^Uj4(( =RI^Uj4(( =RI^Uj4(( =RI^Uj4(( =RI^Uj4(( =RBI^NUjZ4(( =RBI^NUjZ4(( =R?BI^KNUjWZ4(( =R?BI^KNUjWZ4(( ?BKNWZ43('(' ?BKNWZ43('(' ?BKNWZ43('(' ?BKNWZ43('(' ?BKNWZ3'' ?BKNWZ3'' ?BKNWZ3'' ?BKNWZ3'' ?BSKN_WZk3'' ?BSKN_WZk3'' ?BSKN_WZk3'' ?BSKN_WZk3'' ?BSKN_WZk3'' ?BSKN_WZk3'' ?BSKN_WZk3'' ?BSKN_WZk3'' ?BSKN_WZk3'' ?BSKN_WZk3'' ?BSKN_WZk3'' ?BSKN_WZk3'' ?BSKN_WZk3'' ?BSKN_WZk3'' ?BSKN_WZk3'' ?BSKN_WZk3'' ?BSKN_WZk3'' ?BSKN_WZk3'' ?BSKN_WZk3'' ?BSKN_WZk3'' ?BSKN_WZk3'' ?BSKN_WZk3'' ?BSKN_WZk3'' ?BSKN_WZk3'' ?BSKN_WZk3'' ?BSKN_WZk3'' ?BSKN_WZk3'' ?BSKN_WZk3'' ?BSKN_WZk3'' ?BSKN_WZk3'' ?BSKN_WZk3'' ?BSKN_WZk3'' ?BSKN_WZk3'' ?BSKN_WZk3'' ?BSKN_WZk3'' ?BSKN_WZk3'' ?BSKN_WZk3'' ?BSKN_WZk3'' ?BSKN_WZk3'' ?BSKN_WZk3'' ?BSKN_WZk3'' ?BSKN_WZk3'' ?BSKN_WZk3'' BSN_Zk3'' BSN_Zk3'' BASNM_ZYk3'' BASNM_ZYk3'' BDASNPM_Z\Yk3'' BDASNPM_Z\Yk3'' DASPM_\Yk3'' DASPM_\Yk3'' DASPM_\Yk3'' DASPM_\Yk3'' DASPM_\Yk3'' DASPM_\Yk3'' DASPM_\Yk3'' DASPM_\Yk3'' DASPM_\Yk3'' DASPM_\Yk3'' DASPM_\Yk3'' DASPM_\Yk3'' DASPM_\Yk3'' DASPM_\Yk3'' DASPM_\Yk3'' DASPM_\Yk3'' DASPM_\Yk3'' DASPM_\Yk3'' DASPM_\Yk3'' DASPM_\Yk3'' DASPM_\Yk3'' DASPM_\Yk3'' DASPM_\Yk3'' DASPM_\Yk3'' DASPM_\Yk3'' DASPM_\Yk3'' DASPM_\Yk3'' DASPM_\Yk3'' DASPM_\Yk3'' DASPM_\Yk3'' DASPM_\Yk3'' DASPM_\Yk3'' DASPM_\Yk3'' DASPM_\Yk3'' DASPM_\Yk3'' DASPM_\Yk3'' DASPM_\Yk3'' DASPM_\Yk3'' DASPM_\Yk3'' DASPM_\Yk3'' DASPM_\Yk3'' DASPM_\Yk3'' DASPM_\Yk3'' DASPM_\Yk3'' DASPM_\Yk3'' DASPM_\Yk3'' DASPM_\Yk3'' DASPM_\Yk3'' DASPM_\Yk3'' ASM_Yk3'' S_k3'' S_k3'' S_k3'' S_k3'' S_k1%% S_k1%% S_k1%% S_k1%% S_k1%% S_k1%% SB_NkZ1%% SB_NkZ1%% SEB_QNk]Z1%% SEB_QNk]Z1%% SEB_QNk]Z1%% SEB_QNk]Z1%% SEB_QNk]Z1%% SEB_QNk]Z1%% SEB_QNk]Z1%% SEB_QNk]Z1%% SQEB_]QNki]Z1%% SQEB_]QNki]Z1%% SQEB_]QNki]Z1%% SQEB_]QNki]Z1%% SQEB_]QNki]Z1%% SQEB_]QNki]Z1%% SQEB_]QNki]Z1%% SQEB_]QNki]Z1%% SQEB_]QNki]Z1%% SQEB_]QNki]Z1%% QEB]QNi]Z1%% QEB]QNi]Z1%% QEB]QNi]Z1%% QEB]QNi]Z1%% QEB]QNi]Z1%% QEB]QNi]Z1%% QEB]QNi]Z1%% QEB]QNi]Z1%% QEB]QNi]Z1%% QEB]QNi]Z1%% QEB]QNi]Z1%% QEB]QNi]Z1%% QEB]QNi]Z1%% QEB]QNi]Z1%% QEB]QNi]Z1%% QEB]QNi]Z1%% QEB]QNi]Z1%% QEB]QNi]Z1%% QEB]QNi]Z1%% QEB]QNi]Z1%% QEB]QNi]Z1%% QEB]QNi]Z1%% QEB]QNi]Z1%% QEB]QNi]Z1%% QEB]QNi]Z1%% QEB]QNi]Z1%% QEB]QNi]Z1%% QEB]QNi]Z1%% QEB]QNi]Z1%% QEB]QNi]Z1%% QEB]QNi]Z1%% QEB]QNi]Z1%% QEB]QNi]Z1%% QEB]QNi]Z1%% QEB]QNi]Z1%% QEB]QNi]Z1%% QEB]QNi]Z1%% QEB]QNi]Z1%% QEB]QNi]Z1%% QEB]QNi]Z1%% QEB]QNi]Z1%% QEB]QNi]Z1%% QEB]QNi]Z1%% QEB]QNi]Z1%% QEB]QNi]Z1%% QEB]QNi]Z1%% QEB]QNi]Z1%% QEB]QNi]Z1%% QEB]QNi]Z1%% QEB]QNi]Z1%% QEB]QNi]Z1%% QEB]QNi]Z1%% QEB]QNi]Z1%% QEB]QNi]Z1%% QEB]QNi]Z1%% QEB]QNi]Z1%% QEB]QNi]Z1%% QEB]QNi]Z1%% QEB]QNi]Z1%% QEB]QNi]Z1%% QEB]QNi]Z1%% QEB]QNi]Z1%% QEB]QNi]Z1%% QEB]QNi]Z1%% QEB]QNi]Z1%% QEB]QNi]Z1%% QEB]QNi]Z1%% QEB]QNi]Z1%% QEB]QNi]Z1%% QEB]QNi]Z1%% QEB]QNi]Z1%% QEB]QNi]Z1%% QEB]QNi]Z1%% QEB]QNi]Z1%% QEB]QNi]Z1%% QEB]QNi]Z1%% QEB]QNi]Z1%% QEB]QNi]Z1%% QEB]QNi]Z1%% QEB]QNi]Z1%% QEB]QNi]Z1%% QEB]QNi]Z1%% QEB]QNi]Z1%% QEB]QNi]Z QEB]QNi]Z QEB]QNi]Z QEB]QNi]Z QEB]QNi]Z2&& QEB]QNi]Z2&& QEB]QNi]Z2&& QEB]QNi]Z2&& QEB]QNi]Z2&& QEB]QNi]Z2&& QEB]QNi]Z2&& QEB]QNi]Z2&& QEB]QNi]Z2&& QEB]QNi]Z2&& QEB]QNi]Z2&& QEB]QNi]Z2&& QEBO]QN[i]Zg2&& QEBO]QN[i]Zg2&& QEBGO]QNS[i]Z_g2&& EBGOQNS[]Z_g2&& EBGOQNS[]Z_g2&& EBGOQNS[]Z_g2&& EBGOQNS[]Z_g2&& EBGOQNS[]Z_g2&& EBGOQNS[]Z_g2&& BGONS[Z_g2&& BGONS[Z_g2&& BGONS[Z_g2&& BGONS[Z_g2&& BGONS[Z_g2&& BGONS[Z_g2&& BGONS[Z_g2&& BGONS[Z_g2&& BGONS[Z_g2&& BGONS[Z_g2&& BGONS[Z_g2&& BGONS[Z_g2&& BGONS[Z_g2&& BGONS[Z_g2&& BGONS[Z_g2&& BGONS[Z_g2&& BGONS[Z_g2&& BGONS[Z_g2&& BGONS[Z_g2&& BGONS[Z_g2&& BGONS[Z_g2&& BGONS[Z_g2&& BGONS[Z_g2&& BGONS[Z_g2&& BGONS[Z_g2&& BGONS[Z_g2&& BGONS[Z_g2&& BGONS[Z_g2&& BGONS[Z_g2&& BGONS[Z_g2&& BGONS[Z_g2&& BGONS[Z_g2&& BGONS[Z_g2&& BGONS[Z_g2&& BGONS[Z_g2&& BGONS[Z_g2&& BGONS[Z_g2&& BGONS[Z_g2&& BGONS[Z_g2&& BGONS[Z_g2&& BGONS[Z_g2&& BGONS[Z_g2&& BGONS[Z_g2&& BGONS[Z_g2&& BGONS[Z_g2&& BGONS[Z_g2&& GOS[_g2&& GOS[_g2&& GOS[_g2&& GOS[_g2&& GOS[_g2&& GOS[_g2&& GOS[_g2&& GOS[_g2&& GOS[_g2&& GOS[_g2&& GOS[_g2&& GOS[_g2&& GOS[_g2&& GOS[_g2&& GOS[_g2&& GOS[_g2&& GOS[_g2&& GOS[_g2&& GOS[_g2&& GOS[_g2&& GOS[_g2&& GOS[_g2&& GOS[_g2&& GOS[_g2&& GOS[_g2&& GOS[_g2&& GOS[_g2&& GOS[_g2&& GOS[_g2&& GOS[_g2&& GOS[_g2&& GOS[_g2&& GOS[_g2&& GOS[_g2&& GOS[_g2&& GOS[_g2&& GOS[_g2&& GOS[_g2&& GOS[_g2&& GOS[_g2&& GOS[_g2&& GOS[_g2&& GOS[_g2&& GOS[_g2&& GOS[_g2&& GOS[_g2&& GOS[_g2&& GOS[_g2&& GOS[_g2&& GOS[_g2&& GOS[_g2&& GOS[_g2&& GOS[_g2&& GOS[_g2&& GOS[_g2&& O[g2&& O[g2&& O[g2&& O[g2&& O[g2&& O[g2&& O[g2&& O[g2&& O[g2&& OE[Qg]2&& OEH[QTg]`2&& OENH[QZTg]f`2&& ENHQZT]f`2&& ENHQZT]f`2&& ENHQZT]f`2&& ENHQZT]f`2&& ENHQZT]f`2&& ENHQZT]f`2&& ENHQZT]f`2&& ENHQZT]f`2&& ENHQZT]f`2&& ENHQZT]f`2&& ENHQZT]f`2&& ENHQZT]f`2&& ENHQZT]f`2&& ENHQZT]f`2&& ENHQZT]f`2&& ENHQZT]f`2&& ENHQZT]f`2&& ENHQZT]f`2&& ENHQZT]f`2&& ENHQZT]f`2&& ENHQZT]f`2&& ENHQZT]f`2&& ENHQZT]f`2&& ENHQZT]f`2&& ENHQZT]f`2&& ENHQZT]f`2&& ENHQZT]f`2&& ENHQZT]f`2&& ENHQZT]f`2&& ENHQZT]f`2&& ENHQZT]f`2&& ENHQZT]f`2&& ENHQZT]f`2&& ENHQZT]f`2&& ENHQZT]f`2&& ENHQZT]f`2&& ENHQZT]f`2&& ENHQZT]f`2&& ENHQZT]f`2&& ENHQZT]f`2&& ENHQZT]f`2&& ENHQZT]f`2&& ENHQZT]f`2&& ENHQZT]f`2&& ENHQZT]f`2&& ENHQZT]f`2&& ENHQZT]f`2&& ENHQZT]f`2&& ENHQZT]f`2&& ENHQZT]f`2&& ENHQZT]f`2&& ENHQZT]f`2&& ENHQZT]f`2&& ENHQZT]f`2&& EDNHQPZT]\f`2&& EDNHQPZT]\f`2&& DNHPZT\f`2&& DNHPZT\f`2&& DNHPZT\f`2&& DNHPZT\f`2&& DNHPZT\f`2&& DNHPZT\f`2&& DNHPZT\f`2&& DNHPZT\f`2&& DNHPZT\f`2&& DNHPZT\f`2&& DNHPZT\f`2&& DNHPZT\f`2&& DNHPZT\f`2&& DNHPZT\f`2&& DNHPZT\f`2&& DNHPZT\f`2&& DNHPZT\f`2&& DNHPZT\f`2&& DNHPZT\f`2&& DNHPZT\f`2&& DNHPZT\f`2&& DNHPZT\f`2&& DNHPZT\f`2&& DNHPZT\f`2&& DNHPZT\f`2&& DNHPZT\f`2&& DNHPZT\f`2&& DNHPZT\f`2&& DNHPZT\f`2&& DNHPZT\f`2&& DNHPZT\f`2&& DNHPZT\f`2&& DNHPZT\f`2&& DNHPZT\f`2&& DNHPZT\f`2&& DNHPZT\f`2&& DNHPZT\f`2&& DNHPZT\f`2&& DNHPZT\f`2&& DNHPZT\f`2&& DNHPZT\f`2&& DNHPZT\f`2&& DNHPZT\f`2&& DNHPZT\f`2&& DNHPZT\f`2&& DNHPZT\f`2&& DNHPZT\f`2&& DNHPZT\f`2&& DNHPZT\f`2&& NHZTf`2&& NHZTf`2&& NHZTf`2&& NHZTf`2&& NHZTf`2&& HT`2&& IUa2&& IUa21&%&% MIYUea21&%&% MIYUea21&%&% MIYUea21&%&% MIYUea21&%&% MIYUea21&%&% MIYUea21&%&% MIYUea21&%&% MIYUea1%% MIEYUQea]1%% MIEYUQea]1%% MIEYUQea]1%% MIEYUQea]1%% MIEYUQea]1%% MIEYUQea]1%% MIEYUQea]1%% MIEYUQea]1%% MIEYUQea]1%% MIEYUQea]1%% MIEYUQea]1%% MIEYUQea]1%% MIEYUQea]1%% MIEYUQea]1%% MIEYUQea]1%% MIEYUQea]1%% MIEYUQea]1%% MIEYUQea]1%% MIEYUQea]1%% MIEYUQea]1%% MIEYUQea]1%% MIEYUQea]1%% MIEYUQea]1%% MIEYUQea]1%% MIEYUQea]1%% MIEYUQea]1%% MIEYUQea]1%% MIEYUQea]1%% MIEYUQea]1%% MIEYUQea]1%% MIEYUQea]1%% MIEYUQea]1%% MIEYUQea]1%% MIEYUQea]1%% MIEYUQea]1%% MIEYUQea]1%% MIEYUQea]1%% MIEYUQea]1%% MIEYUQea]1%% MIEYUQea]1%% MIEYUQea]1%% MIEYUQea]1%% MIEYUQea]1%% MIEYUQea]1%% MIEYUQea]1%% MIEYUQea]1%% MIEYUQea]1%% MIEYUQea]1%% MIEYUQea]1%% MIEYUQea]1%% MIEYUQea]1%% MIEYUQea]1%% MIEYUQea]1%% MIEYUQea]1%% MIEYUQea]1%% MIEYUQea]1%% MIEYUQea]1%% MIEYUQea]1%% MIEYUQea]1%% MIEYUQea]1%% MIEYUQea]1%% MIEYUQea]1%% MIEYUQea]1%% MIEYUQea]1%% MIEYUQea]1%% MIEYUQea]1%% MIEYUQea]1%% MIEYUQea]1%% MIEYUQea]1%% MIEYUQea]1%% MIEYUQea]1%% MIEYUQea]1%% MIEYUQea]1%% MIEYUQea]1%% MIEYUQea]1%% MIEYUQea]1%% MIEYUQea]1%% MIEYUQea]1%% MIEYUQea]1%% MIEYUQea]1%% MIEYUQea]1%% MIEYUQea]1%% MIEYUQea]1%% MIEYUQea]1%% MIEYUQea]1%% MIEYUQea]1%% MIEYUQea]1%% MIEYUQea]1%% MIEYUQea]1%% MIEYUQea]1%% MIEYUQea]1%% MIEYUQea]1%% MIEYUQea]1%% MIEYUQea]1%% MIEYUQea]1%% MIEYUQea]1%% MIEYUQea]1%% MIEYUQea]1%% MIEYUQea]1%% MIEYUQea]1%% MIEYUQea]1%% MIEYUQea]1%% MIEYUQea]1%% MIEYUQea]1%% MIEYUQea]1%% MIEYUQea]1%% MIEYUQea]1%% MIEYUQea]1%% MIEYUQea]1%% MIEYUQea]1%% MIEYUQea]1%% MI=EYUIQeaU]1%% MI=EYUIQeaU]1%% MI=EYUIQeaU]1%% MI=ENYUIQZeaU]f1%% MI=ENYUIQZeaU]f1%% I=ENUIQZaU]f1%% I=ENUIQZaU]f1%% I=ENUIQZaU]f1%% I=ENUIQZaU]f1%% I=ENUIQZaU]f1%% I=ENUIQZaU]f1%% I=ENUIQZaU]f1%% I=ENUIQZaU]f1%% I=ENUIQZaU]f1%% I=ENUIQZaU]f1%% I=ENUIQZaU]f1%% I=ENUIQZaU]f1%% I=ENUIQZaU]f1%% I=ENUIQZaU]f1%% I=ENUIQZaU]f1%% I=ENUIQZaU]f1%% I=ENUIQZaU]f1%% I=ENUIQZaU]f1%% I=ENUIQZaU]f1%% I=ENUIQZaU]f1%% I=ENUIQZaU]f1%% I=ENUIQZaU]f1%% I=ENUIQZaU]f1%% I=ENUIQZaU]f1%% I=ENUIQZaU]f1%% I=ENUIQZaU]f1%% I=ENUIQZaU]f1%% I=ENUIQZaU]f1%% I=ENUIQZaU]f1%% I=ENUIQZaU]f1%% I=ENUIQZaU]f1%% I=ENUIQZaU]f1%% I=ENUIQZaU]f1%% I=ENUIQZaU]f1%% I=ENUIQZaU]f1%% I=ENUIQZaU]f1%% I=ENUIQZaU]f1%% I=ENUIQZaU]f1%% I=ENUIQZaU]f1%% I=ENUIQZaU]f1%% I=ENUIQZaU]f1%% I=ENUIQZaU]f1%% I=ENUIQZaU]f1%% I=ENUIQZaU]f1%% I=ENUIQZaU]f1%% I=ENUIQZaU]f1%% I=ENUIQZaU]f1%% I=ENUIQZaU]f1%% I=ENUIQZaU]f1%% I=ENUIQZaU]f1%% I=ENUIQZaU]f1%% I=ENUIQZaU]f1%% I=ENUIQZaU]f1%% I=ENUIQZaU]f1%% I=ENUIQZaU]f1%% I=ENUIQZaU]f1%% I=ENUIQZaU]f1%% I=ENUIQZaU]f1%% I=ENUIQZaU]f1%% I=ENUIQZaU]f1%% I=ENUIQZaU]f1%% I=ENUIQZaU]f1%% I=ENUIQZaU]f1%% I=ENUIQZaU]f1%% I=ENUIQZaU]f1%% I=ENUIQZaU]f1%% I=ENUIQZaU]f1%% I=ENUIQZaU]f1%% I=ENUIQZaU]f1%% I=ENUIQZaU]f1%% I=ENUIQZaU]f1%% I=ENUIQZaU]f1%% I=ENUIQZaU]f1%% I=ENUIQZaU]f1%% I=ENUIQZaU]f1%% I=ENUIQZaU]f1%% I=ENUIQZaU]f1%% I=ENUIQZaU]f1%% I=ENUIQZaU]f1%% I=ENUIQZaU]f1%% I=ENUIQZaU]f1%% I=ENUIQZaU]f1%% I=ENUIQZaU]f1%% I=ENUIQZaU]f1%% I=ENUIQZaU]f1%% I=ENUIQZaU]f1%% I=ENUIQZaU]f1%% I=ENUIQZaU]f1%% I=ENUIQZaU]f1%% I=ENUIQZaU]f1%% I=ENUIQZaU]f1%% I=ENUIQZaU]f1%% I=ENUIQZaU]f1%% I=ENUIQZaU]f1%% I=ENUIQZaU]f1%% I=ENUIQZaU]f1%% I=ENUIQZaU]f1%% I=ENUIQZaU]f1%% I=ENUIQZaU]f1%% I=ENUIQZaU]f1%% I=ENUIQZaU]f1%% I=ENUIQZaU]f1%% I=ENUIQZaU]f1%% I=ENUIQZaU]f1%% I=ENUIQZaU]f1%% I=ENUIQZaU]f1%% I=ENUIQZaU]f1%% I=ENUIQZaU]f1%% I=ENUIQZaU]f1%% I=ENUIQZaU]f1%% I=ENUIQZaU]f1%% I=ENUIQZaU]f1%% I=ENUIQZaU]f1%% I=ENUIQZaU]f1%% I=ENDUIQZPaU]f\1%% I=EK<NDUIQWHZPaU]cTf\1%% EK<NDQWHZP]cTf\1%% EK<NDQWHZP]cTf\1%% EK<NDQWHZP]cTf\1%% EK<NDQWHZP]cTf\1%% EK<NDQWHZP]cTf\1%% EK<NDQWHZP]cTf\1%% K<NDWHZPcTf\1%% K<NDWHZPcTf\1%% K<NDWHZPcTf\1%% K<NDWHZPcTf\1%% K<NDWHZPcTf\1%% K<NDWHZPcTf\1%% K<NDWHZPcTf\1%% K<NDWHZPcTf\1%% K<NDWHZPcTf\1%% K<NDWHZPcTf\1%% K<NDWHZPcTf\1%% K<NDWHZPcTf\1%% K<NDWHZPcTf\1%% K<NDWHZPcTf\1%% K<NDWHZPcTf\1%% K<NDWHZPcTf\1%% K<NDWHZPcTf\1%% K<NDWHZPcTf\1%% K<NDWHZPcTf\1%% K<NDWHZPcTf\1%% K<NDWHZPcTf\1%% K<NDWHZPcTf\1%% K<NDWHZPcTf\1%% K<NDWHZPcTf\1%% K<NDWHZPcTf\1%% K<NDWHZPcTf\1%% K<NDWHZPcTf\1%% K<NDWHZPcTf\1%% K<NDWHZPcTf\1%% K<NDWHZPcTf\1%% K<NDWHZPcTf\1%% K<NDWHZPcTf\1%% K<NDWHZPcTf\1%% K<NDWHZPcTf\1%% K<NDWHZPcTf\1%% K<NDWHZPcTf\1%% K<NDWHZPcTf\1%% K<NDWHZPcTf\1%% K<NDWHZPcTf\1%% K<NDWHZPcTf\1%% K<NDWHZPcTf\1%% K<NDWHZPcTf\1%% K<NDWHZPcTf\1%% K<NDWHZPcTf\1%% K<NDWHZPcTf\1%% K<NDWHZPcTf\1%% K<NDWHZPcTf\1%% K<NDWHZPcTf\1%% K<NDWHZPcTf\1%% K<NDWHZPcTf\1%% K<NDWHZPcTf\1%% K<NDWHZPcTf\1%% K<NDWHZPcTf\1%% K<NDWHZPcTf\1%% K<NDWHZPcTf\1%% K<NDWHZPcTf\1%% K<NDWHZPcTf\1%% K<NDWHZPcTf\1%% K<NDWHZPcTf\1%% K<NDWHZPcTf\1%% K<NDWHZPcTf\1%% K<NDWHZPcTf\1%% K<NDWHZPcTf\1%% K<NDWHZPcTf\1%% K<NDWHZPcTf\1%% K<NDWHZPcTf\1%% K<NDWHZPcTf\1%% K<NDWHZPcTf\1%% K<NDWHZPcTf\1%% K<NDWHZPcTf\1%% K<NDWHZPcTf\1%% K<NDWHZPcTf\1%% K<NDWHZPcTf\1%% K<NDWHZPcTf\1%% K<NDWHZPcTf\1%% K<NDWHZPcTf\1%% K<NDWHZPcTf\1%% K<NDWHZPcTf\1%% K<NDWHZPcTf\1%% K<NDWHZPcTf\1%% K<NDWHZPcTf\1%% K<NDWHZPcTf\1%% K<NDWHZPcTf\1%% K<NDWHZPcTf\1%% K<NDWHZPcTf\1%% K<NDWHZPcTf\1%% K<NDWHZPcTf\1%% K<NDWHZPcTf\1%% K<NDWHZPcTf\1%% K<NDWHZPcTf\1%% K<NDWHZPcTf\1%% K<NDWHZPcTf\1%% K<NDWHZPcTf\1%% K<NDWHZPcTf\1%% K<NDWHZPcTf\1%% K<NDWHZPcTf\1%% K<NDWHZPcTf\1%% K<NDWHZPcTf\1%% K<NDWHZPcTf\1%% K<NDWHZPcTf\1%% K<NDWHZPcTf\1%% K<NDWHZPcTf\1%% K<NDWHZPcTf\1%% K<NDWHZPcTf\1%% K<NDWHZPcTf\1%% K<NDWHZPcTf\1%% <NDHZPTf\1%% <NDHZPTf\1%% <NDHZPTf\1%% <NDHZPTf\1%% <NDHZPTf\1%% <N;DHZGPTfS\1%% <N;DHZGPTfS\1%% N;DZGPfS\1%% N;DZGPfS\1%% N;DZGPfS\1%% N;DIZGPUfS\a1%% ;DILGPUXS\ad1%% ;DILGPUXS\ad1%% ;DILGPUXS\ad1%% ;DILGPUXS\ad1%% ;DILGPUXS\ad1%% ;DILGPUXS\ad1%% ;DILGPUXS\ad1%% ;DILGPUXS\ad1%% ;DILGPUXS\ad1%% ;DILGPUXS\ad1%% ;DILGPUXS\ad1%% ;DILGPUXS\ad1%% ;DILGPUXS\ad1%% ;DILGPUXS\ad1%% ;DILGPUXS\ad1%% ;DILGPUXS\ad1%% ;DILGPUXS\ad1%% ;DILGPUXS\ad1%% ;DILGPUXS\ad1%% ;DILGPUXS\ad1%% ;DILGPUXS\ad1%% ;DILGPUXS\ad1%% ;DILGPUXS\ad1%% ;DILGPUXS\ad1%% ;DILGPUXS\ad1%% ;DILGPUXS\ad1%% ;DILGPUXS\ad1%% ;DILGPUXS\ad1%% ;DILGPUXS\ad1%% ;DILGPUXS\ad1%% ;DILGPUXS\ad1%% ;DILGPUXS\ad1%% ;DILGPUXS\ad1%% ;DILGPUXS\ad1%% ;DILGPUXS\ad1%% ;DILGPUXS\ad1%% ;DILGPUXS\ad1%% ;DILGPUXS\ad1%% ;DILGPUXS\ad1%% ;DILGPUXS\ad1%% ;DILGPUXS\ad1%% ;DILGPUXS\ad1%% ;DILGPUXS\ad1%% ;DILGPUXS\ad1%% ;DILGPUXS\ad1%% ;DILGPUXS\ad1%% ;DILGPUXS\ad1%% ;DILGPUXS\ad1%% ;DILGPUXS\ad1%% ;DILGPUXS\ad1%% ;DILGPUXS\ad1%% ;DILGPUXS\ad1%% ;DILGPUXS\ad1%% ;DILGPUXS\ad1%% ;DILGPUXS\ad1%% ;DILGPUXS\ad1%% ;DILGPUXS\ad1%% ;DILGPUXS\ad1%% ;DILGPUXS\ad1%% ;DILGPUXS\ad1%% ;DILGPUXS\ad1%% ;DILGPUXS\ad1%% ;DILGPUXS\ad1%% ;DILGPUXS\ad1%% ;DILGPUXS\ad1%% ;DILGPUXS\ad1%% ;DILGPUXS\ad1%% ;DILGPUXS\ad1%% ;DILGPUXS\ad1%% ;DILGPUXS\ad1%% ;DILGPUXS\ad1%% ;DILGPUXS\ad1%% ;DILGPUXS\ad1%% ;DILGPUXS\ad1%% ;DILGPUXS\ad1%% ;DILGPUXS\ad1%% ;DILGPUXS\ad1%% ;DILGPUXS\ad1%% ;DILGPUXS\ad1%% ;DILGPUXS\ad1%% ;DILGPUXS\ad1%% ;DILGPUXS\ad1%% ;DILGPUXS\ad1%% ;DILGPUXS\ad1%% ;DILGPUXS\ad1%% ;DILGPUXS\ad1%% ;DILGPUXS\ad1%% ;DILGPUXS\ad1%% ;DILGPUXS\ad1%% ;DILGPUXS\ad1%% ;DILGPUXS\ad1%% ;DILGPUXS\ad1%% ;DILGPUXS\ad1%% ;DILGPUXS\ad1%% ;DILGPUXS\ad1%% ;DILGPUXS\ad1%% ;DILGPUXS\ad1%% ;DILGPUXS\ad1%% ;DILGPUXS\ad1%% ;DILGPUXS\ad1%% ;DILGPUXS\ad1%% ;DILGPUXS\ad1%% ;DILGPUXS\ad1%% ;DILGPUXS\ad1%% ;DILGPUXS\ad1%% ;DILGPUXS\ad1%% ;DILGPUXS\ad1%% ;DILGPUXS\ad1%% ;DILGPUXS\ad1%% ;DILGPUXS\ad1%% ;DILGPUXS\ad1%% ;DILGPUXS\ad1%% ;DILGPUXS\ad1%% ;DILGPUXS\ad1%% ;DILGPUXS\ad1%% ;DILGPUXS\ad1%% ;DILGPUXS\ad1%% ;DILGPUXS\ad1%% ;DI:LGPUFXS\aRd1%% ;DI:LGPUFXS\aRd1%% ;DI:LGPUFXS\aRd1%% ;DI:LBGPUFXNS\aRdZ1%% DI:LBPUFXN\aRdZ1%% DI:LBPUFXN\aRdZ1%% DI:LBPUFXN\aRdZ1%% I:LBUFXNaRdZ1%% I:LBUFXNaRdZ1%% I:LBUFXNaRdZ1%% I:LBUFXNaRdZ1%% I:LBUFXNaRdZ1%% I:LBUFXNaRdZ1%% I:LBUFXNaRdZ1%% I:LBUFXNaRdZ1%% I:LBUFXNaRdZ1%% I:LBUFXNaRdZ1%% I:LBUFXNaRdZ1%% I:LBUFXNaRdZ1%% I:LBUFXNaRdZ1%% I:LBUFXNaRdZ1%% I:LBUFXNaRdZ1%% I:LBUFXNaRdZ1%% I:LBUFXNaRdZ1%% I:LBUFXNaRdZ1%% I:LBUFXNaRdZ1%% I:LBUFXNaRdZ1%% I:LBUFXNaRdZ1%% I:LBUFXNaRdZ1%% I:LBUFXNaRdZ1%% I:LBUFXNaRdZ1%% I:LBUFXNaRdZ1%% I:LBUFXNaRdZ1%% I:LBUFXNaRdZ1%% I:LBUFXNaRdZ1%% I:LBUFXNaRdZ1%% I:LBUFXNaRdZ1%% I:LBUFXNaRdZ1%% I:LBUFXNaRdZ1%% I:LBUFXNaRdZ1%% I:LBUFXNaRdZ1%% I:LBUFXNaRdZ1%% I:LBUFXNaRdZ1%% I:LBUFXNaRdZ1%% I:LBUFXNaRdZ1%% I:LBUFXNaRdZ1%% I:LBUFXNaRdZ1%% I:LBUFXNaRdZ1%% I:LBUFXNaRdZ1%% I:LBUFXNaRdZ1%% I:LBUFXNaRdZ1%% I:LBUFXNaRdZ1%% I:LBUFXNaRdZ1%% I:LBUFXNaRdZ1%% I:LBUFXNaRdZ1%% I:LBUFXNaRdZ1%% I:LBUFXNaRdZ1%% I:LBUFXNaRdZ1%% I:LBUFXNaRdZ1%% I:LBUFXNaRdZ1%% I:LBUFXNaRdZ1%% I:LBUFXNaRdZ1%% I:LBUFXNaRdZ1%% I:LBUFXNaRdZ1%% I:LBUFXNaRdZ1%% I:LBUFXNaRdZ1%% I:LBUFXNaRdZ1%% I:LBUFXNaRdZ1%% I:LBUFXNaRdZ1%% I:LBUFXNaRdZ1%% I:LBUFXNaRdZ1%% I:LBUFXNaRdZ1%% I:LBUFXNaRdZ1%% I:LBUFXNaRdZ1%% I:LBUFXNaRdZ1%% I:LBUFXNaRdZ1%% I:LBUFXNaRdZ1%% I:LBUFXNaRdZ1%% I:LBUFXNaRdZ1%% I:LBUFXNaRdZ1%% I:LBUFXNaRdZ1%% I:LBUFXNaRdZ1%% I:LBUFXNaRdZ1%% I:LBUFXNaRdZ1%% I:LBUFXNaRdZ1%% I:LBUFXNaRdZ1%% I:LBUFXNaRdZ1%% I:LBUFXNaRdZ1%% I:LBUFXNaRdZ1%% I:LBUFXNaRdZ1%% I:LBUFXNaRdZ1%% I:LBUFXNaRdZ1%% I:LBUFXNaRdZ1%% I:LBUFXNaRdZ1%% I:LBUFXNaRdZ1%% I:LBUFXNaRdZ1%% I:LBUFXNaRdZ1%% I:LBUFXNaRdZ1%% I:LBUFXNaRdZ1%% I:LBUFXNaRdZ1%% I:LBUFXNaRdZ1%% I:LBUFXNaRdZ1%% I:LBUFXNaRdZ1%% I:LBUFXNaRdZ1%% I:LBUFXNaRdZ1%% I:LBUFXNaRdZ1%% I:LBUFXNaRdZ1%% I:LBUFXNaRdZ1%% I:LBUFXNaRdZ1%% I:LBUFXNaRdZ1%% I:LBUFXNaRdZ1%% I:LBUFXNaRdZ1%% I:LBUFXNaRdZ1%% I:LBUFXNaRdZ1%% I:LBUFXNaRdZ1%% I:LBUFXNaRdZ1%% I:LBUFXNaRdZ1%% I:LBUFXNaRdZ1%% I:LBUFXNaRdZ1%% :LBFXNRdZ1%% :LBGFXNSRdZ_1%% LBGXNSdZ_1%% LB9GXNESdZQ_1%% LB9GXNESdZQ_1%% LB9GJXNESVdZQ_b1%% LB9GJXNESVdZQ_b1%% LB9GJXNESVdZQ_b1%% LB9GJXNESVdZQ_b1%% LB9GJXNESVdZQ_b1%% LB9GJXNESVdZQ_b1%% B9GJNESVZQ_b1%% B9GJNESVZQ_b1%% B9GJNESVZQ_b1%% B9GJNESVZQ_b1%% B9GJNESVZQ_b1%% B9GJNESVZQ_b1%% B9GJNESVZQ_b1%% B9GJNESVZQ_b1%% B9GJNESVZQ_b1%% B9GJNESVZQ_b1%% B9GJNESVZQ_b1%% B9GJNESVZQ_b1%% B9GJNESVZQ_b1%% B9GJNESVZQ_b1%% B9GJNESVZQ_b1%% B9GJNESVZQ_b1%% B9GJNESVZQ_b1%% B9GJNESVZQ_b1%% B9GJNESVZQ_b1%% B9GJNESVZQ_b1%% B9GJNESVZQ_b1%% B9GJNESVZQ_b1%% B9GJNESVZQ_b1%% B9GJNESVZQ_b1%% B9GJNESVZQ_b1%% B9GJNESVZQ_b1%% B9GJNESVZQ_b1%% B9GJNESVZQ_b1%% B9GJNESVZQ_b1%% B9GJNESVZQ_b1%% B9GJNESVZQ_b1%% B9GJNESVZQ_b1%% B9GJNESVZQ_b1%% B9GJNESVZQ_b1%% B9GJNESVZQ_b1%% B9GJNESVZQ_b1%% B9GJNESVZQ_b1%% B9GJNESVZQ_b1%% B9GJNESVZQ_b1%% B9GJNESVZQ_b1%% B9GJNESVZQ_b1%% B9GJNESVZQ_b1%% B9GJNESVZQ_b1%% B9GJNESVZQ_b1%% B9GJNESVZQ_b1%% B9GJNESVZQ_b1%% B9GJNESVZQ_b1%% B9GJNESVZQ_b1%% B9GJNESVZQ_b1%% B9GJNESVZQ_b1%% B9GJNESVZQ_b1%% B9GJNESVZQ_b1%% B9GJNESVZQ_b1%% B9GJNESVZQ_b1%% B9GJNESVZQ_b1%% B9GJNESVZQ_b1%% B9GJNESVZQ_b1%% B9GJNESVZQ_b1%% B9GJNESVZQ_b1%% B9GJNESVZQ_b1%% B9GJNESVZQ_b1%% B9GJNESVZQ_b1%% B9GJNESVZQ_b1%% B9GJNESVZQ_b1%% B9GJNESVZQ_b1%% B9GJNESVZQ_b1%% B9GJNESVZQ_b1%% B9GJNESVZQ_b1%% B9GJNESVZQ_b1%% B9GJNESVZQ_b1%% B9GJNESVZQ_b1%% B9GJNESVZQ_b1%% B9GJNESVZQ_b1%% B9GJNESVZQ_b1%% B9GJNESVZQ_b1%% B9GJNESVZQ_b1%% B9GJNESVZQ_b1%% B9GJNESVZQ_b1%% B9GJNESVZQ_b1%% B9GJNESVZQ_b1%% B9GJNESVZQ_b1%% B9GJNESVZQ_b1%% B9GJNESVZQ_b1%% B9GJNESVZQ_b1%% B9GJNESVZQ_b1%% B9GJNESVZQ_b1%% B9GJNESVZQ_b1%% B9GJNESVZQ_b1%% B9GJNESVZQ_b1%% B9GJNESVZQ_b1%% B9GJNESVZQ_b1%% B9GJNESVZQ_b1%% B9GJNESVZQ_b1%% B9GJNESVZQ_b1%% B9GJNESVZQ_b1%% B9GJNESVZQ_b1%% B9GJNESVZQ_b1%% B9GJNESVZQ_b1%% B9GJNESVZQ_b1%% B9GJNESVZQ_b1%% B9GJNESVZQ_b1%% B9GJNESVZQ_b1%% B9GJNESVZQ_b1%% B9GJNESVZQ_b1%% B9GJNESVZQ_b1%% B9GJNESVZQ_b1%% B9GJNESVZQ_b1%% B9GJNESVZQ_b1%% B9GJNESVZQ_b1%% B9GJNESVZQ_b1%% B9GJNESVZQ_b1%% B9GJNESVZQ_b1%% B9GJNESVZQ_b1%% 98GJEDSVQP_b1%% 98GJEDSVQP_b1%% 98AGJEDMSVQPY_b1%% 8AGJDMSVPY_b1%% 8AGJDMSVPY_b1%% 8AGJDMSVPY_b1%% 8AGJDMSVPY_b1%% 8AGJDMSVPY_b1%% 8AGJDMSVPY_b1%% 8AGJDMSVPY_b1%% 8AGJDMSVPY_b1%% 8AGJDMSVPY_b1%% 8AGJDMSVPY_b1%% 8AGJDMSVPY_b1%% 8AGJDMSVPY_b1%% 8AGJDMSVPY_b1%% 8AGJDMSVPY_b1%% 8AGJDMSVPY_b1%% 8AGJDMSVPY_b1%% 8AGJDMSVPY_b1%% 8AGJDMSVPY_b1%% 8AGJDMSVPY_b1%% 8AGJDMSVPY_b1%% 8AGJDMSVPY_b1%% 8AGJDMSVPY_b1%% 8AGJDMSVPY_b1%% 8AGJDMSVPY_b1%% 8AGJDMSVPY_b1%% 8AGJDMSVPY_b1%% 8AGJDMSVPY_b1%% 8AGJDMSVPY_b1%% 8AGJDMSVPY_b1%% 8AGJDMSVPY_b1%% 8AGJDMSVPY_b1%% 8AGJDMSVPY_b1%% 8AGJDMSVPY_b1%% 8AGJDMSVPY_b1%% 8AGJDMSVPY_b1%% 8AGJDMSVPY_b1%% 8AGJDMSVPY_b1%% 8AGJDMSVPY_b1%% 8AGJDMSVPY_b1%% 8AGJDMSVPY_b1%% 8AGJDMSVPY_b1%% 8AGJDMSVPY_b1%% 8AGJDMSVPY_b1%% 8AGJDMSVPY_b1%% 8AGJDMSVPY_b1%% 8AGJDMSVPY_b1%% 8AGJDMSVPY_b1%% 8AGJDMSVPY_b1%% 8AGJDMSVPY_b1%% 8AGJDMSVPY_b1%% 8AGJDMSVPY_b1%% 8AGJDMSVPY_b1%% 8AGJDMSVPY_b1%% 8AGJDMSVPY_b1%% 8AGJDMSVPY_b1%% 8AGJDMSVPY_b1%% 8AGJDMSVPY_b1%% 8AGJDMSVPY_b1%% 8AGJDMSVPY_b1%% 8AGJDMSVPY_b1%% 8AGJDMSVPY_b1%% 8AGJDMSVPY_b1%% 8AGJDMSVPY_b1%% 8AGJDMSVPY_b1%% 8AGJDMSVPY_b1%% 8AGJDMSVPY_b1%% 8AGJDMSVPY_b1%% 8AGJDMSVPY_b1%% 8AGJDMSVPY_b1%% 8AGJDMSVPY_b1%% 8AGJDMSVPY_b1%% 8AGJDMSVPY_b1%% 8AGJDMSVPY_b1%% 8AGJDMSVPY_b1%% 8AGJDMSVPY_b1%% 8AGJDMSVPY_b1%% 8AGJDMSVPY_b1%% 8AGJDMSVPY_b1%% 8AGJDMSVPY_b1%% 8AGJDMSVPY_b1%% 8AGJDMSVPY_b1%% 8AGJDMSVPY_b1%% 8AGJDMSVPY_b1%% 8AGJDMSVPY_b1%% 8AGJDMSVPY_b1%% 8AGJDMSVPY_b1%% 8AGJDMSVPY_b1%% 8AGJDMSVPY_b1%% 8AGJDMSVPY_b1%% 8AGJDMSVPY_b1%% 8AGJDMSVPY_b1%% 8AGJDMSVPY_b1%% 8AGJDMSVPY_b1%% 8AGJDMSVPY_b1%% 8AGJDMSVPY_b1%% 8AGJDMSVPY_b1%% 8AGJDMSVPY_b1%% 8AGJDMSVPY_b1%% 8AGJDMSVPY_b1%% 8AGJDMSVPY_b1%% 8AGJDMSVPY_b1%% 8AGJDMSVPY_b1%% 8AGJDMSVPY_b1%% 8AGJDMSVPY_b1%% AGJMSVY_b1%% AGJMSVY_b1%% AGJMSVY_b1%% AGJMSVY_b1%% AGJMSVY_b1%% AGJMSVY_b1%% AGJMSVY_b1%% AGJMSVY_b1%% AGJMSVY_b1%% AGJMSVY_b1%% AGJMSVY_b1%% AGJ9MSVEY_bQ1%% AGJ9MSVEY_bQ1%% AGJB9MSVNEY_bZQ1%% GJB9SVNE_bZQ1%% GJB9SVNE_bZQ1%% GJEIB9SVQUNE_b]aZQ1%% GJEIB9SVQUNE_b]aZQ1%% GJEIB9SVQUNE_b]aZQ1%% GJEIB9SVQUNE_b]aZQ1%% GJEIB9SVQUNE_b]aZQ1%% JEIB9VQUNEb]aZQ1%% JEIB9VQUNEb]aZQ1%% JEIB9VQUNEb]aZQ1%% EIB9QUNE]aZQ1%% EIB9QUNE]aZQ1%% EIB9QUNE]aZQ1%% EIB9QUNE]aZQ1%% EIB9QUNE]aZQ1%% EIB9QUNE]aZQ1%% EIB9QUNE]aZQ1%% EIB9QUNE]aZQ1%% EIB9QUNE]aZQ1%% EIB9QUNE]aZQ1%% EIB9QUNE]aZQ1%% EIB9QUNE]aZQ1%% EIB9QUNE]aZQ1%% EIB9QUNE]aZQ1%% EIB9QUNE]aZQ1%% EIB9QUNE]aZQ1%% EIB9QUNE]aZQ1%% EIB9QUNE]aZQ1%% EIB9QUNE]aZQ1%% EIB9QUNE]aZQ1%% EIB9QUNE]aZQ1%% EIB9QUNE]aZQ1%% EIB9QUNE]aZQ1%% EIB9QUNE]aZQ1%% EIB9QUNE]aZQ1%% EIB9QUNE]aZQ1%% EIB9QUNE]aZQ1%% EIB9QUNE]aZQ1%% EIB9QUNE]aZQ1%% EIB9QUNE]aZQ1%% EIB9QUNE]aZQ1%% EIB9QUNE]aZQ1%% EIB9QUNE]aZQ1%% EIB9QUNE]aZQ1%% EIB9QUNE]aZQ1%% EIB9QUNE]aZQ1%% EIB9QUNE]aZQ1%% EIB9QUNE]aZQ1%% EIB9QUNE]aZQ1%% EIB9QUNE]aZQ1%% EIB9QUNE]aZQ1%% EIB9QUNE]aZQ1%% EIB9QUNE]aZQ1%% EIB9QUNE]aZQ1%% EIB9QUNE]aZQ1%% EIB9QUNE]aZQ1%% EIB9QUNE]aZQ1%% EIB9QUNE]aZQ1%% EIB9QUNE]aZQ1%% EIB9QUNE]aZQ1%% EIB9QUNE]aZQ1%% EIB9QUNE]aZQ1%% EIB9QUNE]aZQ1%% EIB9QUNE]aZQ1%% EIB9QUNE]aZQ1%% EIB9QUNE]aZQ1%% EIB9QUNE]aZQ1%% EIB9QUNE]aZQ1%% EIB9QUNE]aZQ1%% EIB9QUNE]aZQ1%% EIB9QUNE]aZQ1%% EIB9QUNE]aZQ1%% EIB9QUNE]aZQ1%% EIB9QUNE]aZQ1%% EIB9QUNE]aZQ1%% EIB9QUNE]aZQ1%% EIB9QUNE]aZQ1%% EIB9QUNE]aZQ1%% EIB9QUNE]aZQ1%% EIB9QUNE]aZQ1%% EIB9QUNE]aZQ1%% EIB9QUNE]aZQ1%% EIB9QUNE]aZQ1%% EIB9QUNE]aZQ1%% EIB9QUNE]aZQ1%% EIB9QUNE]aZQ1%% IB9UNEaZQ1%% IB9UNEaZQ1%% IB9UNEaZQ1%% IB9UNEaZQ1%% IB9UNEaZQ1%% IB9UNEaZQ1%% IB9UNEaZQ1%% IB9UNEaZQ1%% IB9UNEaZQ1%% IB9UNEaZQ1%% IB9UNEaZQ1%% IB9UNEaZQ1%% IB9UNEaZQ1%% B9NEZQ1%% B9NEZQ1%% B9NEZQ1%% B9NEZQ1%% B9NEZQ1%% B9NEZQ1%% B9NEZQ1%% B9NEZQ1%% B9NEZQ1%% B9NEZQ1%% B9NEZQ1%% B9NEZQ1%% B9NEZQ1%% B9NEZQ1%% B9NEZQ1%% B9NEZQ1%% B9NEZQ1%% B9NEZQ1%% B9NEZQ1%% B9NEZQ1%% B9NEZQ1%% B9NEZQ1%% B9NEZQ1%% B9NEZQ1%% B9NEZQ1%% 9EQ1%% 9EQ1%% 9EQ1%% H9TE`Q1%% ?HB9KTNEW`ZQ1%% ?HB9KTNEW`ZQ1%% ?HB9KTNEW`ZQ1%% ?HB9KTNEW`ZQ1%% ?HB9KTNEW`ZQ1%% ?HB9KTNEW`ZQ1%% ?HB9KTNEW`ZQ1%% ?HB9KTNEW`ZQ1%% ?HB9KTNEW`ZQ1%% ?HB9KTNEW`ZQ1%% ?HB9KTNEW`ZQ1%% ?HB9KTNEW`ZQ1%% ?HB9KTNEW`ZQ1%% ?HB9KTNEW`ZQ1%% ?HB9KTNEW`ZQ1%% ?HB9KTNEW`ZQ1%% ?HB9KTNEW`ZQ1%% ?HB9KTNEW`ZQ1%% ?HB9KTNEW`ZQ1%% ?HB9KTNEW`ZQ1%% ?HB9KTNEW`ZQ1%% ?HB9KTNEW`ZQ1%% ?HB9KTNEW`ZQ1%% ?HB9KTNEW`ZQ1%% ?HB9KTNEW`ZQ1%% ?HB9KTNEW`ZQ1%% ?HB9KTNEW`ZQ1%% ?HB9KTNEW`ZQ1%% ?HB9KTNEW`ZQ1%% ?HB9KTNEW`ZQ1%% ?HB9KTNEW`ZQ1%% ?HB9KTNEW`ZQ1%% ?HB9KTNEW`ZQ1%% ?HB9KTNEW`ZQ1%% ?HB9KTNEW`ZQ1%% ?HB9KTNEW`ZQ1%% ?HB9KTNEW`ZQ1%% ?HB9KTNEW`ZQ1%% ?HB9KTNEW`ZQ1%% ?HB9KTNEW`ZQ1%% ?HB9KTNEW`ZQ1%% ?HB9KTNEW`ZQ1%% ?HB9KTNEW`ZQ1%% ?HB9KTNEW`ZQ1%% ?HB9KTNEW`ZQ1%% ?HB9KTNEW`ZQ1%% ?HB9KTNEW`ZQ1%% ?HB9KTNEW`ZQ1%% ?HB9KTNEW`ZQ1%% ?HB9KTNEW`ZQ1%% ?HB9KTNEW`ZQ1%% ?HB9KTNEW`ZQ1%% ?HB9KTNEW`ZQ1%% ?HB9KTNEW`ZQ1%% ?HB9KTNEW`ZQ1%% ?HB9KTNEW`ZQ1%% ?HB9KTNEW`ZQ1%% ?HB9KTNEW`ZQ1%% ?HB9KTNEW`ZQ1%% ?HB9KTNEW`ZQ1%% ?HB9KTNEW`ZQ1%% ?HB9KTNEW`ZQ1%% ?HB9KTNEW`ZQ1%% ?HB9KTNEW`ZQ1%% ?HB9KTNEW`ZQ1%% ?HB9KTNEW`ZQ1%% ?HB9KTNEW`ZQ1%% ?HB9KTNEW`ZQ1%% ?HB9KTNEW`ZQ1%% ?HB9KTNEW`ZQ1%% ?HB9KTNEW`ZQ1%% ?HB9KTNEW`ZQ1%% ?HB9KTNEW`ZQ1%% ?HB9KTNEW`ZQ1%% ?HB9KTNEW`ZQ1%% ?HB9KTNEW`ZQ1%% ?HB9KTNEW`ZQ1%% ?HB9KTNEW`ZQ1%% ?HB9KTNEW`ZQ1%% ?HB9KTNEW`ZQ1%% ?HB9KTNEW`ZQ1%% ?HB9KTNEW`ZQ1%% ?HB9KTNEW`ZQ1%% HB9TNE`ZQ1%% HB9TNE`ZQ1%% HB9TNE`ZQ1%% HB9TNE`ZQ1%% HB9TNE`ZQ1%% HB9TNE`ZQ1%% HB9TNE`ZQ1%% HB9TNE`ZQ1%% HB9TNE`ZQ1%% HB9TNE`ZQ1%% HB9TNE`ZQ1%% HB9TNE`ZQ1%% B9NEZQ1%% B9NEZQ1%% B9NEZQ1%% B9NEZQ1%% B9NEZQ1%% B9NEZQ1%% B9NEZQ1%% B9NEZQ1%% B9NEZQ1%% B9NEZQ1%% 9EQ1%% 9EQ1%% 9EQ1%% 9EQ1%% 9EQ1%% 9DEPQ\1%% 9DEPQ\1%% 9DEPQ\1%% 9DGEPSQ\_1%% 9DGEPSQ\_1%% 9DG8EPSDQ\_P1%% 9DG@8EPSLDQ\_XP1%% 9DG@8EPSLDQ\_XP1%% 9DG@8EPSLDQ\_XP1%% 9DG@8EPSLDQ\_XP1%% 9DG@8EPSLDQ\_XP1%% 9DG@8EPSLDQ\_XP1%% DG@8PSLD\_XP1%% DG@8PSLD\_XP1%% DG@8PSLD\_XP1%% DG@8PSLD\_XP1%% DG@8PSLD\_XP1%% DG@8PSLD\_XP1%% DG@8PSLD\_XP1%% DG@8PSLD\_XP1%% DG@8PSLD\_XP1%% DG@8PSLD\_XP1%% DG@8PSLD\_XP1%% DG@8PSLD\_XP1%% DG@8PSLD\_XP1%% DG@8PSLD\_XP1%% DG@8PSLD\_XP1%% DG@8PSLD\_XP1%% DG@8PSLD\_XP1%% DG@8PSLD\_XP1%% DG@8PSLD\_XP1%% DG@8PSLD\_XP1%% DG@8PSLD\_XP1%% DG@8PSLD\_XP1%% DG@8PSLD\_XP1%% DG@8PSLD\_XP1%% DG@8PSLD\_XP1%% DG@8PSLD\_XP1%% DG@8PSLD\_XP1%% DG@8PSLD\_XP1%% DG@8PSLD\_XP1%% DG@8PSLD\_XP1%% DG@8PSLD\_XP1%% DG@8PSLD\_XP1%% DG@8PSLD\_XP1%% DG@8PSLD\_XP1%% DG@8PSLD\_XP1%% DG@8PSLD\_XP1%% DG@8PSLD\_XP1%% DG@8PSLD\_XP1%% DG@8PSLD\_XP1%% DG@8PSLD\_XP1%% DG@8PSLD\_XP1%% DG@8PSLD\_XP1%% DG@8PSLD\_XP1%% DG@8PSLD\_XP1%% DG@8PSLD\_XP1%% DG@8PSLD\_XP1%% DG@8PSLD\_XP1%% DG@8PSLD\_XP1%% DG@8PSLD\_XP1%% DG@8PSLD\_XP1%% DG@8PSLD\_XP1%% DG@8PSLD\_XP1%% DG@8PSLD\_XP1%% DG@8PSLD\_XP1%% DG@8PSLD\_XP1%% DG@8PSLD\_XP1%% DG@8PSLD\_XP1%% DG@8PSLD\_XP1%% DG@8PSLD\_XP1%% DG@8PSLD\_XP1%% DG@8PSLD\_XP1%% DG@8PSLD\_XP1%% DG@8PSLD\_XP1%% DG@8PSLD\_XP1%% DG@8PSLD\_XP1%% DG@8PSLD\_XP1%% DG@8PSLD\_XP1%% DG@8PSLD\_XP1%% DG@8PSLD\_XP1%% DG@8PSLD\_XP1%% DG@8PSLD\_XP1%% DG@8PSLD\_XP1%% DG@8PSLD\_XP1%% DG@8PSLD\_XP1%% G@8SLD_XP1%% G@8SLD_XP1%% G@8SLD_XP1%% G@8SLD_XP1%% G@8SLD_XP1%% G@8SLD_XP1%% @8LDXP1%% @8LDXP1%% @8LDXP1%% @8LDXP1%% @8LDXP1%% @8LDXP1%% @8LDXP1%% @8LDXP1%% @8LDXP1%% @8LDXP1%% @8LDXP1%% @8LDXP1%% @8LDXP1%% @8LDXP1%% @8LDXP1%% @8LDXP1%% @8LDXP1%% @8LDXP1%% @8LDXP1%% @8LDXP1%% @8LDXP1%% @8LDXP1%% @8LDXP1%% @8LDXP1%% @8LDXP1%% @8LDXP1%% @8=6LDIBXPUN1%% 8=FB6DIRNBPU^ZN1%% =FB6IRNBU^ZN1%% =FB6IRNBU^ZN1%% =FB6IRNBU^ZN1%% =FB6IRNBU^ZN1%% =FB6IRNBU^ZN1%% =FB6IRNBU^ZN1%% =FB6IRNBU^ZN1%% =FB6IRNBU^ZN1%% =FB6IRNBU^ZN1%% =FB6IRNBU^ZN1%% =FB6IRNBU^ZN1%% =FB6IRNBU^ZN1%% =FB6IRNBU^ZN1%% =FB6IRNBU^ZN1%% =FB6IRNBU^ZN1%% =FB6IRNBU^ZN1%% =FB6IRNBU^ZN1%% =FB6IRNBU^ZN1%% =FB6IRNBU^ZN1%% =FB6IRNBU^ZN1%% =FB6IRNBU^ZN1%% =FB6IRNBU^ZN1%% =FB6IRNBU^ZN1%% =FB6IRNBU^ZN1%% =FB6IRNBU^ZN1%% =FB6IRNBU^ZN1%% =FB6IRNBU^ZN1%% =FB6IRNBU^ZN1%% =FB6IRNBU^ZN1%% =FB6IRNBU^ZN1%% =FB6IRNBU^ZN1%% =FB6IRNBU^ZN1%% =FB6IRNBU^ZN1%% =FB6IRNBU^ZN1%% =FB6IRNBU^ZN1%% =FB6IRNBU^ZN1%% =FB6IRNBU^ZN1%% =FB6IRNBU^ZN1%% =FB6IRNBU^ZN1%% =FB6IRNBU^ZN1%% =FB6IRNBU^ZN1%% =FB6IRNBU^ZN1%% =FB6IRNBU^ZN1%% =FB6IRNBU^ZN1%% =FB6IRNBU^ZN1%% =FB6IRNBU^ZN1%% =FB6IRNBU^ZN1%% =FB6IRNBU^ZN1%% =FB6IRNBU^ZN1%% =FB6IRNBU^ZN1%% =FB6IRNBU^ZN1%% =FB6IRNBU^ZN1%% =FB6IRNBU^ZN1%% =FB6IRNBU^ZN1%% =FB6IRNBU^ZN1%% =FB6IRNBU^ZN1%% =FB6IRNBU^ZN1%% =FB6IRNBU^ZN1%% =FB6IRNBU^ZN1%% =FB6IRNBU^ZN1%% =FB6IRNBU^ZN1%% =FB6IRNBU^ZN1%% =FB6IRNBU^ZN1%% =FB6IRNBU^ZN1%% =FB6IRNBU^ZN1%% =FB6IRNBU^ZN1%% =FB6IRNBU^ZN1%% =FB6IRNBU^ZN1%% =FB6IRNBU^ZN1%% =FB6IRNBU^ZN1%% =FB6IRNBU^ZN1%% =FB6IRNBU^ZN1%% =FB6IRNBU^ZN1%% =FB6IRNBU^ZN1%% =FB6IRNBU^ZN1%% =FB6IRNBU^ZN1%% =FB6IRNBU^ZN1%% =FB6IRNBU^ZN1%% =FB6IRNBU^ZN1%% =FB6IRNBU^ZN1%% =FB6IRNBU^ZN1%% =FB6IRNBU^ZN1%% =FB6IRNBU^ZN1%% =FB6IRNBU^ZN1%% =FB6IRNBU^ZN1%% =FB6IRNBU^ZN1%% =FB6IRNBU^ZN1%% =FB6IRNBU^ZN1%% =FB6IRNBU^ZN1%% =FB6IRNBU^ZN1%% =FB6IRNBU^ZN1%% =FB6IRNBU^ZN1%% =FB6IRNBU^ZN1%% =FB6IRNBU^ZN1%% =FB6IRNBU^ZN1%% =FB6IRNBU^ZN1%% =FB6IRNBU^ZN1%% =FB6IRNBU^ZN1%% =FB6IRNBU^ZN1%% =FB6IRNBU^ZN1%% =FB6IRNBU^ZN1%% =FB6IRNBU^ZN1%% =FB6IRNBU^ZN1%% =FB6IRNBU^ZN1%% FB6RNB^ZN1%% FB6RNB^ZN1%% FB6RNB^ZN1%% FB6RNB^ZN1%% FB6RNB^ZN1%% FB6RNB^ZN1%% FB6RNB^ZN1%% FB6RNB^ZN1%% FB6RNB^ZN1%% FB6RNB^ZN1%% FB6RNB^ZN1%% FB6RNB^ZN1%% FB6RNB^ZN1%% B6NBZN1%% B6NBZN1%% B6NBZN1%% ?6EKBQWN]1%% ?6<EKBHQWNT]1%% ?6<EKBHQWNT]1%% ?6<EKBHQWNT]1%% ?6<EKBHQWNT]1%% ?6<EKBHQWNT]1%% ?6<EKBHQWNT]1%% ?6<EKBHQWNT]1%% ?6<EKBHQWNT]1%% ?6<EKBHQWNT]1%% ?6<EKBHQWNT]1%% ?6<EKBHQWNT]1%% ?6<EKBHQWNT]1%% ?6<EKBHQWNT]1%% ?6<EKBHQWNT]1%% ?6<EKBHQWNT]1%% ?6<EKBHQWNT]1%% ?6<EKBHQWNT]1%% ?6<EKBHQWNT]1%% ?6<EKBHQWNT]1%% ?6<EKBHQWNT]1%% ?6<EKBHQWNT]1%% ?6<EKBHQWNT]1%% ?6<EKBHQWNT]1%% ?6<EKBHQWNT]1%% ?6<EKBHQWNT]1%% ?6<EKBHQWNT]1%% ?6<EKBHQWNT]1%% ?6<EKBHQWNT]1%% ?6<EKBHQWNT]1%% ?6<EKBHQWNT]1%% ?6<EKBHQWNT]1%% ?6<EKBHQWNT]1%% ?6<EKBHQWNT]1%% ?6<EKBHQWNT]1%% ?6<EKBHQWNT]1%% ?6<EKBHQWNT]1%% ?6<EKBHQWNT]1%% ?6<EKBHQWNT]1%% ?6<EKBHQWNT]1%% ?6<EKBHQWNT]1%% ?6<EKBHQWNT]1%% ?6<EKBHQWNT]1%% ?6<EKBHQWNT]1%% ?6<EKBHQWNT]1%% ?6<EKBHQWNT]1%% ?6<EKBHQWNT]1%% ?6<EKBHQWNT]1%% ?6<EKBHQWNT]1%% ?6<EKBHQWNT]1%% ?6<EKBHQWNT]1%% ?6<EKBHQWNT]1%% ?6<EKBHQWNT]1%% ?6<EKBHQWNT]1%% ?6<EKBHQWNT]1%% ?6<EKBHQWNT]1%% ?6<EKBHQWNT]1%% ?6<EKBHQWNT]1%% ?6<EKBHQWNT]1%% ?6<EKBHQWNT]1%% ?6<EKBHQWNT]1%% ?6<EKBHQWNT]1%% ?6<EKBHQWNT]1%% ?6<EKBHQWNT]1%% ?6<EKBHQWNT]1%% ?6<EKBHQWNT]1%% ?6<EKBHQWNT]1%% ?6<EKBHQWNT]1%% ?6<EKBHQWNT]1%% ?6<EKBHQWNT]1%% ?6<EKBHQWNT]1%% ?6<EKBHQWNT]1%% ?6<EKBHQWNT]1%% ?6<EKBHQWNT]1%% ?6<EKBHQWNT]1%% ?6<EKBHQWNT]1%% ?6<EKBHQWNT]1%% ?6<EKBHQWNT]1%% ?6<EKBHQWNT]1%% ?6<EKBHQWNT]1%% ?6<EKBHQWNT]1%% ?6<EKBHQWNT]1%% ?6<EKBHQWNT]1%% ?6<EKBHQWNT]1%% ?6<EKBHQWNT]1%% ?6<EKBHQWNT]1%% ?6<EKBHQWNT]1%% ?6<EKBHQWNT]1%% ?6<EKBHQWNT]1%% ?6<EKBHQWNT]1%% ?6<EKBHQWNT]1%% ?6<EKBHQWNT]1%% ?6<EKBHQWNT]1%% ?6<EKBHQWNT]1%% ?6<EKBHQWNT]1%% ?6<EKBHQWNT]1%% ?6<EKBHQWNT]1%% ?6<EKBHQWNT]1%% ?6<EKBHQWNT]1%% ?6<EKBHQWNT]1%% ?6<EKBHQWNT]1%% ?6<EKBHQWNT]1%% ?6<EKBHQWNT]1%% ?6<EKBHQWNT]1%% ?6<EKBHQWNT]1%% ?6<EKBHQWNT]1%% ?6<EKBHQWNT]1%% ?6<EKBHQWNT]1%% ?6<EKBHQWNT]1%% ?6<EKBHQWNT]1%% ?6<EKBHQWNT]1%% ?6<EKBHQWNT]1%% ?6<EKBHQWNT]1%% ?6<EKBHQWNT]1%% ?6<EKBHQWNT]1%% ?6<EKBHQWNT]1%% ?6<EKBHQWNT]1%% ?6<EKBHQWNT]1%% ?6<EKBHQWNT]1%% ?6<EKBHQWNT]1%% ?6<EKBHQWNT]1%% ?6<EKBHQWNT]1%% ?6<E=KBHQIWNT]U1%% 6<E=8BHQIDNT]UP1%% 6<E=8BHQIDNT]UP1%% 6<E=8BHQIDNT]UP1%% 6<E=8ABHQIDMNT]UPY1%% 6<E=8DABHQIDPMNT]UP\Y1%% 6<E=8DABHQIDPMNT]UP\Y1%% 6<E=8DABHQIDPMNT]UP\Y1%% E=8DAQIDPM]UP\Y1%% E=8DAQIDPM]UP\Y1%% E=8DAQIDPM]UP\Y1%% E=8DAQIDPM]UP\Y1%% E=8DAQIDPM]UP\Y1%% E=8DAQIDPM]UP\Y1%% =8DAIDPMUP\Y1%% =8DAIDPMUP\Y1%% =8DAIDPMUP\Y1%% =8DAIDPMUP\Y1%% =8DAIDPMUP\Y1%% =8DAIDPMUP\Y1%% =8DAIDPMUP\Y1%% =8DAIDPMUP\Y1%% =8DAIDPMUP\Y1%% =8DAIDPMUP\Y1%% =8DAIDPMUP\Y1%% =8DAIDPMUP\Y1%% =8DAIDPMUP\Y1%% =8DAIDPMUP\Y1%% =8DAIDPMUP\Y1%% =8DAIDPMUP\Y1%% =8DAIDPMUP\Y1%% =8DAIDPMUP\Y1%% =8DAIDPMUP\Y1%% =8DAIDPMUP\Y1%% =8DAIDPMUP\Y1%% =8DAIDPMUP\Y1%% =8DAIDPMUP\Y1%% =8DAIDPMUP\Y1%% =8DAIDPMUP\Y1%% =8DAIDPMUP\Y1%% =8DAIDPMUP\Y1%% =8DAIDPMUP\Y1%% =8DAIDPMUP\Y1%% =8DAIDPMUP\Y1%% =8DAIDPMUP\Y1%% =8DAIDPMUP\Y1%% =8DAIDPMUP\Y1%% =8DAIDPMUP\Y1%% =8DAIDPMUP\Y1%% =8DAIDPMUP\Y1%% =8DAIDPMUP\Y1%% =8DAIDPMUP\Y1%% =8DAIDPMUP\Y1%% =8DAIDPMUP\Y1%% =8DAIDPMUP\Y1%% =8DAIDPMUP\Y1%% =8DAIDPMUP\Y1%% =8DAIDPMUP\Y1%% =8DAIDPMUP\Y1%% =8DAIDPMUP\Y1%% =8DAIDPMUP\Y1%% =8DAIDPMUP\Y1%% =8DAIDPMUP\Y1%% =8DAIDPMUP\Y1%% =8DAIDPMUP\Y1%% =8DAIDPMUP\Y1%% =8DAIDPMUP\Y1%% =8DAIDPMUP\Y1%% =8DAIDPMUP\Y1%% =8DAIDPMUP\Y1%% =8DAIDPMUP\Y1%% =8DAIDPMUP\Y1%% =8DAIDPMUP\Y1%% =8DAIDPMUP\Y1%% =8DAIDPMUP\Y1%% =8DAIDPMUP\Y1%% =8DAIDPMUP\Y1%% =8DAIDPMUP\Y1%% =8DAIDPMUP\Y1%% =8DAIDPMUP\Y1%% =8DAIDPMUP\Y1%% =8DAIDPMUP\Y1%% =8DAIDPMUP\Y1%% =8DAIDPMUP\Y1%% =8DAIDPMUP\Y1%% =8DAIDPMUP\Y1%% =8DAIDPMUP\Y1%% =8DAIDPMUP\Y1%% =8DAIDPMUP\Y1%% =8DAIDPMUP\Y1%% =8DAIDPMUP\Y1%% =8DAIDPMUP\Y1%% =8DAIDPMUP\Y1%% =8DAIDPMUP\Y1%% =8DAIDPMUP\Y1%% =8DAIDPMUP\Y1%% =8DAIDPMUP\Y1%% =8DAIDPMUP\Y1%% =8DAIDPMUP\Y1%% =8DAIDPMUP\Y1%% =8DAIDPMUP\Y1%% =8DAIDPMUP\Y1%% =8DAIDPMUP\Y1%% =8DAIDPMUP\Y1%% =8DAIDPMUP\Y1%% =8DAIDPMUP\Y1%% =8DAIDPMUP\Y1%% =8DAIDPMUP\Y1%% =8DAIDPMUP\Y1%% =8DAIDPMUP\Y1%% =8DAIDPMUP\Y1%% =8DAIDPMUP\Y1%% =8DAIDPMUP\Y1%% =8DAIDPMUP\Y1%% =8DAIDPMUP\Y1%% =8DAIDPMUP\Y1%% =8DAIDPMUP\Y1%% =8DAIDPMUP\Y1%% =8DAIDPMUP\Y1%% =8DAIDPMUP\Y1%% =8DAIDPMUP\Y1%% =8DAIDPMUP\Y1%% =8DAIDPMUP\Y1%% =8DAIDPMUP\Y1%% =8DAIDPMUP\Y1%% =8DAIDPMUP\Y1%% =8DAIDPMUP\Y1%% =8DAIDPMUP\Y1%% =8DAIDPMUP\Y1%% =8DAIDPMUP\Y1%% =8DAIDPMUP\Y1%% =8DAIDPMUP\Y1%% =8DAIDPMUP\Y1%% =8DAIDPMUP\Y1%% =8DAIDPMUP\Y1%% =8DAIDPMUP\Y1%% =8DAIDPMUP\Y1%% =8DAIDPMUP\Y1%% =8DAIDPMUP\Y1%% =8DAIDPMUP\Y1%% =8DAIDPMUP\Y1%% =8DAIDPMUP\Y1%% =8DAIDPMUP\Y1%% =8DAIDPMUP\Y1%% =8DAIDPMUP\Y1%% =8DAIDPMUP\Y1%% =8DAIDPMUP\Y1%% =8DAIDPMUP\Y1%% =8DAIDPMUP\Y1%% =8DAIDPMUP\Y1%% =8DAIDPMUP\Y1%% =8DAIDPMUP\Y1%% =8DAIDPMUP\Y1%% =8DAIDPMUP\Y1%% =8DAIDPMUP\Y1%% =8DAIDPMUP\Y1%% =8DAIDPMUP\Y1%% =8DAIDPMUP\Y1%% =8DAIDPMUP\Y1%% =8DAIDPMUP\Y1%% =8DAIDPMUP\Y1%% =8DAIDPMUP\Y1%% =8DAIDPMUP\Y1%% =8DAIDPMUP\Y1%% =8DAIDPMUP\Y1%% =8DAIDPMUP\Y1%% =8DAIDPMUP\Y1%% =8DAIDPMUP\Y1%% =8DAIDPMUP\Y1%% =8DAIDPMUP\Y1%% =8DAIDPMUP\Y1%% =8DAIDPMUP\Y1%% =8DAIDPMUP\Y1%% =8DAIDPMUP\Y1%% =8DAIDPMUP\Y1%% =8DAIDPMUP\Y1%% =8DAIDPMUP\Y1%% =8DAIDPMUP\Y1%% =8DAIDPMUP\Y1%% =8DAIDPMUP\Y1%% =8DAIDPMUP\Y1%% =8DAIDPMUP\Y1%% =8DAIDPMUP\Y1%% =8DAIDPMUP\Y1%% =8DAIDPMUP\Y1%% =8DAIDPMUP\Y1%% =8DAIDPMUP\Y1%% =8DAIDPMUP\Y1%% =8DAIDPMUP\Y1%% =8DAIDPMUP\Y1%% =8DAIDPMUP\Y1%% =8DAIDPMUP\Y1%% =8DAIDPMUP\Y1%% =8DAIDPMUP\Y1%% =8DAIDPMUP\Y1%% =8DAIDPMUP\Y1%% =8DAIDPMUP\Y1%% =8DAIDPMUP\Y1%% =8DAIDPMUP\Y1%% =8DAIDPMUP\Y1%% =8DAIDPMUP\Y1%% =8DAIDPMUP\Y1%% =8DAIDPMUP\Y1%% =8DAIDPMUP\Y1%% =8DAIDPMUP\Y1%% =8DAIDPMUP\Y1%% =8DAIDPMUP\Y1%% =8DAIDPMUP\Y1%% =8DAIDPMUP\Y1%% =8DAIDPMUP\Y1%% =8DAIDPMUP\Y1%% =8DAIDPMUP\Y1%% =8DAIDPMUP\Y1%% =8DAIDPMUP\Y1%% =8DAIDPMUP\Y1%% =8DAIDPMUP\Y1%% =8DAIDPMUP\Y1%% =8DAIDPMUP\Y1%% =8DAIDPMUP\Y1%% =8DAIDPMUP\Y1%% =8DAIDPMUP\Y1%% =8DAIDPMUP\Y1%% =8DAIDPMUP\Y1%% =8DAIDPMUP\Y1%% =8DAIDPMUP\Y1%% =8DAIDPMUP\Y1%% =8DAIDPMUP\Y1%% =8DAIDPMUP\Y1%% =8DAIDPMUP\Y1%% =8DAIDPMUP\Y1%% =8DAIDPMUP\Y1%% =8DAIDPMUP\Y1%% =8DAIDPMUP\Y1%% =8DAIDPMUP\Y1%% =8DAIDPMUP\Y1%% =8DAIDPMUP\Y1%% =8DAIDPMUP\Y1%% =8DAIDPMUP\Y1%% =8DAIDPMUP\Y1%% =8DAIDPMUP\Y1%% =8DAIDPMUP\Y1%% =8DAIDPMUP\Y1%% =8DAIDPMUP\Y1%% =8DAIDPMUP\Y1%% =8DAIDPMUP\Y1%% =8DAIDPMUP\Y1%% =8DAIDPMUP\Y1%% =8DAIDPMUP\Y1%% =8DAIDPMUP\Y1%% =8DAIDPMUP\Y1%% =8DAIDPMUP\Y1%% =8DAIDPMUP\Y1%% =8DAIDPMUP\Y1%% =8DAIDPMUP\Y1%% =8DAIDPMUP\Y1%% =8DAIDPMUP\Y1%% =8DAIDPMUP\Y1%% =8DAIDPMUP\Y1%% =8DAIDPMUP\Y1%% =8DAIDPMUP\Y1%% =8DAIDPMUP\Y1%% =8DAIDPMUP\Y1%% =8DAIDPMUP\Y1%% =8DAIDPMUP\Y1%% =8DAIDPMUP\Y1%% =8DAIDPMUP\Y1%% =8DAIDPMUP\Y1%% =8DAIDPMUP\Y1%% =8DAIDPMUP\Y1%% =8DAIDPMUP\Y1%% =8DAIDPMUP\Y1%% =8DAIDPMUP\Y1%% =8DAIDPMUP\Y1%% =8DAIDPMUP\Y1%% =8DAIDPMUP\Y1%% =8DAIDPMUP\Y1%% =8DAIDPMUP\Y1%% =8DAIDPMUP\Y1%% =8DAIDPMUP\Y1%% =8DAIDPMUP\Y1%% =8DAIDPMUP\Y1%% =8DAIDPMUP\Y1%% =8DAIDPMUP\Y1%% =8DAIDPMUP\Y1%% =8DAIDPMUP\Y1%% =8DAIDPMUP\Y1%% =8DAIDPMUP\Y1%% =8DAIDPMUP\Y1%% =8DAIDPMUP\Y1%% =8DAIDPMUP\Y1%% =8DAIDPMUP\Y1%% =8DAIDPMUP\Y1%% =8DAIDPMUP\Y1%% =8DAIDPMUP\Y1%% =8DAIDPMUP\Y1%% =8DAIDPMUP\Y1%% =8DAIDPMUP\Y1%% =8DAIDPMUP\Y1%% =8DAIDPMUP\Y1%% =8DAIDPMUP\Y1%% =8DAIDPMUP\Y1%% =8DAIDPMUP\Y1%% =8DAIDPMUP\Y1%% =8DAIDPMUP\Y1%% =8DAIDPMUP\Y1%% =8DAIDPMUP\Y1%% =8DAIDPMUP\Y1%% =8DAIDPMUP\Y1%% =8DAIDPMUP\Y1%% =8DAIDPMUP\Y1%% =8DAIDPMUP\Y1%% =8DAIDPMUP\Y1%% =8DAIDPMUP\Y1%% =8DAIDPMUP\Y1%% =8DAIDPMUP\Y1%% =8DAIDPMUP\Y1%% =8DAIDPMUP\Y1%% =8DAIDPMUP\Y1%% =8DAIDPMUP\Y1%% =8DAIDPMUP\Y1%% =8DAIDPMUP\Y1%% =8DAIDPMUP\Y1%% =8DAIDPMUP\Y1%% =8DAIDPMUP\Y1%% =8DAIDPMUP\Y1%% =8DAIDPMUP\Y1%% =8DAIDPMUP\Y1%% =8DAIDPMUP\Y1%% =8DAIDPMUP\Y1%% =8DAIDPMUP\Y1%% =8DAIDPMUP\Y1%% =8DAIDPMUP\Y1%% =8DAIDPMUP\Y1%% =8DAIDPMUP\Y1%% =8DAIDPMUP\Y1%% =8DAIDPMUP\Y1%% =8DAIDPMUP\Y1%% =8DAIDPMUP\Y1%% =8DAIDPMUP\Y1%% =8DAIDPMUP\Y1%% =8DAIDPMUP\Y1%% =8DAIDPMUP\Y1%% =8DAIDPMUP\Y1%% =8DAIDPMUP\Y1%% =8DAIDPMUP\Y1%% =8DAIDPMUP\Y1%% =8DAIDPMUP\Y1%% =8DAIDPMUP\Y1%% =8DAIDPMUP\Y1%% =8DAIDPMUP\Y1%% =8DAIDPMUP\Y1%% =8DAIDPMUP\Y1%% =8DAIDPMUP\Y1%% =8DAIDPMUP\Y1%% =8DAIDPMUP\Y1%% =8DAIDPMUP\Y1%% =8DAIDPMUP\Y1%% =8DAIDPMUP\Y1%% =8DAIDPMUP\Y1%% =8DAIDPMUP\Y1%% =8DAIDPMUP\Y1%% =8DAIDPMUP\Y1%% =8DAIDPMUP\Y1%% =8DAIDPMUP\Y1%% =8DAIDPMUP\Y1%% =8DAIDPMUP\Y1%% =8DAIDPMUP\Y1%% =8DAIDPMUP\Y1%% =8DAIDPMUP\Y1%% =8DAIDPMUP\Y1%% =8DAIDPMUP\Y1%% =8DAIDPMUP\Y1%% =8DAIDPMUP\Y1%% =8DAIDPMUP\Y1%% =8DAIDPMUP\Y1%% =8DAIDPMUP\Y1%% =8DAIDPMUP\Y1%% =8DAIDPMUP\Y1%% =8DAIDPMUP\Y1%% =8DAIDPMUP\Y1%% =8DAIDPMUP\Y1%% =8DAIDPMUP\Y1%% =8DAIDPMUP\Y1%% =8DAIDPMUP\Y1%% =8DAIDPMUP\Y1%% =8DAIDPMUP\Y1%% =8DAIDPMUP\Y1%% =8DAIDPMUP\Y1%% =8DAIDPMUP\Y1%% =8DAIDPMUP\Y1%% =8DAIDPMUP\Y1%% =8DAIDPMUP\Y1%% =8DAIDPMUP\Y1%% =8DAIDPMUP\Y1%% =8DAIDPMUP\Y1%% =8DAIDPMUP\Y1%% =8DAIDPMUP\Y1%% =8DAIDPMUP\Y1%% =8DAIDPMUP\Y1%% =8DAIDPMUP\Y1%% =8DAIDPMUP\Y1%% =8DAIDPMUP\Y1%% =8DAIDPMUP\Y1%% =8DAIDPMUP\Y1%% =8DAIDPMUP\Y1%% =8DAIDPMUP\Y1%% =8DAIDPMUP\Y1%% =8DAIDPMUP\Y1%% =8DAIDPMUP\Y1%% =8DAIDPMUP\Y1%% =8DAIDPMUP\Y1%% =8DAIDPMUP\Y1%% =8DAIDPMUP\Y1%% =8DAIDPMUP\Y1%% =8DAIDPMUP\Y1%% =8DAIDPMUP\Y1%% =8DAIDPMUP\Y1%% =8DAIDPMUP\Y1%% =8DAIDPMUP\Y1%% =8DAIDPMUP\Y1%% =8DAIDPMUP\Y1%% =8DAIDPMUP\Y1%% =8DAIDPMUP\Y1%% =8DAIDPMUP\Y1%% =8DAIDPMUP\Y1%% =8DAIDPMUP\Y1%% =8DAIDPMUP\Y1%% =8DAIDPMUP\Y =8DAIDPMUP\Y =8DAIDPMUP\Y =8DAIDPMUP\Y =8DAIDPMUP\Y =8DAIDPMUP\Y =8DAIDPMUP\Y =8DAIDPMUP\Y =8DAIDPMUP\Y =8DAIDPMUP\Y =8DAIDPMUP\Y =8DAIDPMUP\Y =8DAIDPMUP\Y =8DAIDPMUP\Y =8DAIDPMUP\Y =8DAIDPMUP\Y =8DAIDPMUP\Y =8DAIDPMUP\Y =8DAIDPMUP\Y =8DAIDPMUP\Y =8DAIDPMUP\Y =8DAIDPMUP\Y =8DAIDPMUP\Y =8DAIDPMUP\Y =8DAIDPMUP\Y =8DAIDPMUP\Y =8DAIDPMUP\Y =8DAIDPMUP\Y =8DAIDPMUP\Y =8DAIDPMUP\Y =8DAIDPMUP\Y =8DAIDPMUP\Y =8DAIDPMUP\Y =8DAIDPMUP\Y =8DAIDPMUP\Y =8DAIDPMUP\Y =8DAIDPMUP\Y =8DAIDPMUP\Y =8DAIDPMUP\Y =8DAIDPMUP\Y =8DAIDPMUP\Y =8DAIDPMUP\Y =8DAIDPMUP\Y =8DAIDPMUP\Y =8DAIDPMUP\Y =8DAIDPMUP\Y =8DAIDPMUP\Y 8DADPMP\Y 8DADPMP\Y 8DADPMP\Y 8DADPMP\Y DAPM\Y DAPM\Y DAPM\Y DAPM\Y AMY AMY                            6**6 6**6 6**6 6**6 6**6 6**6 6**6 6**6 6**6 6**6 6**6 6**6 6**6 6**6 6**6 6**6 6**6 6**6 6**6 6**6 6**6 6**6 6**6 6**6 6**6 6**6 6**6 6**6 6**6 6**6 6**6 6**6 6**6 6**6 6**6 6**6 6**6 6**6 6**6 6**6 6**6 6**6 6**6 6**6 6**6 6**6 6**6 6**6 6**6 6**6 6**6 6**6 6**6 6**6 6**6 6**6 6**6 6**6 6**6 6**6 6**6 6**6 6**6 6**6 6**6 6**6 6**6 6**6 6**6 6**6 6**6 6**6 6**6 6**6 6**6 6**6 6**6 6**6 6**6 6**6 6**6 6**6 6**6 6**6 6**6 6**6 6**6 6**6 6**6 6**6 6**6 6**6 6**6 6**6 6**6 6**6 6**6 6**6 6**6 6**6 6**6 6**6 6**6 6**6 6**6 6**6 6**6 6**6 6**6 6**6 6**6 6**6 6**6 6**6 6**6 6**6 6**6 6**6 6**6 6**6 6**6 6**6 6**6 6**6 6**6                                                                                                        4((4 4((4 4((4 4((4 4((4 4((4 4((4 4((4 4((4 4((4 4((4 4((4 4((4 4((4 4((4 4((4 4((4 4((4 4((4 4((4 4((4 4((4 4((4 4((4 4((4 4((4 4((4 4((4 4((4 4((4 4((4 4((4 4((4 4((4 4((4 4((4 4((4 4((4 4((4 4((4 4((4 @LX4((@4 @LX4((@4 @LX4((@4 @LX4((@4 @LX4((@4 @LX4((@4 @LX4((@4 @LX4((@4 @LX4((@4 @LX4((@4 @LX4((@4 @LX4((@4 @LX4((@4 @LX4((@4 @LX4((@4 @LX4((@4 @LX4((@4 @LX4((@4 @LX4((@4 @LX4((@4 @LX4((@4 @LX4((@4 @LX4((@4 @LX4((@4 @LX4((@4 @LX4((@4 @LX4((@4 @LX4((@4 @LX4((@4 @LX4((@4 @LX4((@4 @LX4((@4 @LX4((@4 @LX4((@4 @LX4((@4 @LX4((@4 @LX4((@4 @LX4((@4 @LX4((@4 @LX4((@4 @LX4((@4 @LX4((@4 @LX4((@4 @LX4((@4 @LX4((@4 @LX4((@4 @LX4((@4 @LX4((@4 @LX4((@4 @LX4((@4 @LX4((@4 @LX4((@4 @BLNXZ4((@B4 @BLNXZ4((@B4 @BLNXZ4((@B4 @BLNXZ4((@B4 BNZ4((B4 BNZ4((B4 BNZ4((B4 BNZ4((B4 BNZ4((B4 BNZ4((B4 BNZ4((B4 BNZ4((B4 BNZ4((B4 BNZ4((B4 BNZ4((B4 BNZ4((B4 BNZ4((B4 BNZ4((B4 BNZ4((B4 BNZ4((B4 BNZ4((B4 BNZ4((B4 BNZ4((B4 BNZ4((B4 BNZ4((B4 BNZ4((B4 BNZ4((B4 BNZ4((B4 BNZ4((B4 BNZ4((B4 BNZ4((B4 BNZ4((B4 BNZ4((B4 BNZ4((B4 BNZ4((B4 BNZ4((B4 BNZ4((B4 BNZ4((B4 BNZ4((B4 BNZ4((B4 BNZ4((B4 BNZ4((B4 BNZ4((B4 BNZ4((B4 BNZ4((B4 BNZ4((B4 BNZ4((B4 BNZ4((B4 BNZ4((B4 BNZ4((B4 BNZ4((B4 BDNPZ\4((BD4 BDNPZ\4((BD4 BDNPZ\4((BD4 BDNPZ\4((BD4 BDNPZ\4((BD4 DP\4((D4 DP\4((D4 DP\4((D4 DP\4((D4 DP\4((D4 DP\4((D4 DP\4((D4 DP\4((D4 DP\4((D4 DP\4((D4 DP\4((D4 DP\4((D4 DP\4((D4 DP\4((D4 DP\4((D4 DP\4((D4 DP\4((D4 DP\4((D4 DP\4((D4 DP\4((D4 DP\4((D4 DP\4((D4 DP\4((D4 DP\4((D4 DP\4((D4 DP\4((D4 DP\4((D4 DP\4((D4 DP\4((D4 DP\4((D4 DP\4((D4 DP\4((D4 DP\4((D4 DP\4((D4 DP\4((D4 DP\4((D4 DP\4((D4 DP\4((D4 DP\4((D4 DP\4((D4 DP\4((D4 DP\4((D4 DP\4((D4 DP\4((D4 DP\4((D4 DP\4((D4 DP\4((D4 DP\4((D4 DP\4((D4 DP\4((D4 DP\4((D4 4((4 4((4 4((4 EQ]4((E4 EQ]4((E4 EQ]4((E4 EQ]4((E4 EQ]4((E4 EQ]4((E4 EQ]4((E4 EQ]4((E4 EQ]4((E4 EQ]4((E4 EQ]4((E4 EQ]4((E4 EQ]4((E4 EQ]4((E4 EQ]4((E4 EQ]4((E4 EQ]4((E4 EQ]4((E4 EQ]4((E4 EQ]4((E4 EQ]4((E4 EQ]4((E4 EQ]4((E4 EQ]4((E4 EQ]4((E4 EQ]4((E4 EQ]4((E4 EQ]4((E4 EQ]4((E4 EQ]4((E4 EQ]4((E4 EQ]4((E4 EQ]4((E4 EQ]4((E4 EQ]4((E4 EQ]4((E4 EQ]4((E4 EQ]4((E4 EQ]4((E4 EQ]4((E4 EQ]4((E4 EQ]4((E4 EQ]4((E4 EQ]4((E4 EQ]4((E4 EQ]4((E4 EQ]4((E4 EQ]4((E4 EQ]4((E4 EQ]4((E4 EQ]4((E4 EQ]4((E4 EGQS]_4((EG4 EGQS]_4((EG4 EGQS]_4((EG4 EGQS]_4((EG4 EGQS]_4((EG4 EGQS]_4((EG4 GS_4((G4 GS_4((G4 GS_4((G4 GS_4((G4 GS_4((G4 GS_4((G4 GS_4((G4 GS_4((G4 GS_4((G4 GS_4((G4 GS_4((G4 GS_4((G4 GS_4((G4 GS_4((G4 GS_4((G4 GS_4((G4 GS_4((G4 GS_4((G4 GS_4((G4 GS_4((G4 GS_4((G4 GS_4((G4 GS_4((G4 GS_4((G4 GS_4((G4 GS_4((G4 GS_4((G4 GS_4((G4 GS_4((G4 GS_4((G4 GS_4((G4 GS_4((G4 GS_4((G4 GS_4((G4 GS_4((G4 GS_4((G4 GS_4((G4 GS_4((G4 GS_4((G4 GS_4((G4 GS_4((G4 GS_4((G4 GS_4((G4 GS_4((G4 GS_4((G4 GS_4((G4 GS_4((G4 GS_4((G4 GS_4((G4 GS_4((G4 GS_4((G4 GS_42(&(&G42 GISU_a42(&(&G4I2 GISU_a42(&(&G4I2 GISU_a42(&(&G4I2 GISU_a42(&(&G4I2 GISU_a42(&(&G4I2 GISU_a42(&(&G4I2 GISU_a42(&(&G4I2 GISU_a42(&(&G4I2 GISU_a42(&(&G4I2 IUa42(&(&4I2 IUa42(&(&4I2 IUa42(&(&4I2 IUa2&&I2 IUa2&&I2 IUa2&&I2 IUa2&&I2 IUa2&&I2 IUa2&&I2 IUa2&&I2 IUa2&&I2 IUa2&&I2 IUa2&&I2 IUa2&&I2 IUa2&&I2 IUa2&&I2 IUa2&&I2 IUa2&&I2 IUa2&&I2 IUa2&&I2 IUa2&&I2 IUa2&&I2 IUa2&&I2 IUa2&&I2 IUa2&&I2 IUa2&&I2 IUa2&&I2 IUa2&&I2 IUa2&&I2 IUa2&&I2 IUa2&&I2 IUa2&&I2 IUa2&&I2 IUa2&&I2 IUa2&&I2 IUa2&&I2 IUa2&&I2 IUa2&&I2 IUa2&&I2 IUa2&&I2 IUa2&&I2 IUa2&&I2 IUa2&&I2 IUa2&&I2 IUa2&&I2 IUa2&&I2 IUa2&&I2 IUa2&&I2 JVb2&&2J JVb2&&2J JVb2&&2J JVb2&&2J JVb2&&2J JVb2&&2J JVb2&&2J JVb2&&2J JVb2&&2J JVb2&&2J JVb2&&2J JVb2&&2J JVb2&&2J JVb2&&2J JVb2&&2J JVb2&&2J JVb2&&2J JVb2&&2J JVb2&&2J JVb2&&2J JVb2&&2J JVb2&&2J JVb2&&2J JVb2&&2J JVb2&&2J JVb2&&2J JVb2&&2J JVb2&&2J JVb2&&2J JVb2&&2J JVb2&&2J JVb2&&2J JVb2&&2J JVb2&&2J JVb2&&2J JVb2&&2J JVb2&&2J JVb2&&2J JVb2&&2J JVb2&&2J JVb2&&2J JVb2&&2J JVb2&&2J JVb2&&2J JVb2&&2J JVb2&&2J JVb2&&2J JVb2&&2J JVb2&&2J JVb2&&2J JVb21&%&%2J1 JVb21&%&%2J1 JVb21&%&%2J1 JVb21&%&%2J1 JVb1%%J1 JVb1%%J1 JVb1%%J1 JVb1%%J1 JVb1%%J1 JLVXbd1%%JL1 JLVXbd1%%JL1 JLVXbd1%%JL1 JLVXbd1%%JL1 JLVXbd1%%JL1 JLVXbd1%%JL1 JLVXbd1%%JL1 JLVXbd1%%JL1 JLVXbd1%%JL1 LXd1%%L1 LXd1%%L1 LXd1%%L1 LXd1%%L1 LXd1%%L1 LXd1%%L1 LXd1%%L1 LXd1%%L1 LXd1%%L1 LXd1%%L1 LXd1%%L1 LXd1%%L1 LXd1%%L1 LXd1%%L1 LXd1%%L1 LXd1%%L1 LXd1%%L1 LXd1%%L1 LXd1%%L1 LXd1%%L1 LXd1%%L1 LXd1%%L1 LXd1%%L1 LXd1%%L1 LXd1%%L1 LXd1%%L1 LXd1%%L1 LXd1%%L1 LXd1%%L1 LXd1%%L1 LXd1%%L1 LXd1%%L1 LXd1%%L1 LXd1%%L1 LXd1%%L1 LXd1%%L1 LXd1%%L1 LXd1%%L1 LXd1%%L1 LXd1%%L1 LXd1%%L1 LXd1%%L1 LXd1%%L1 LXd1%%L1 LXd1%%L1 LXd1%%L1 LXd1%%L1 LXd1%%L1 LXd1%%L1 LXd1%%L1 LIXUda1%%LI1 LIXUda1%%LI1 LIXUda1%%LI1 LIXUda1%%LI1 LIXUda1%%LI1 LIXUda1%%LI1 IUa1%%I1 IUa1%%I1 IUa1%%I1 IUa1%%I1 IUa1%%I1 IUa1%%I1 IUa1%%I1 IUa1%%I1 IUa1%%I1 IUa1%%I1 IUa1%%I1 IUa1%%I1 IUa1%%I1 IUa1%%I1 IUa1%%I1 IUa1%%I1 IUa1%%I1 IUa1%%I1 IUa1%%I1 IUa1%%I1 IUa1%%I1 IUa1%%I1 IUa1%%I1 IUa1%%I1 IUa1%%I1 IUa1%%I1 IUa1%%I1 IUa1%%I1 IUa1%%I1 IUa1%%I1 IUa1%%I1 IUa1%%I1 IUa1%%I1 IUa1%%I1 IUa1%%I1 IUa1%%I1 IUa1%%I1 IUa1%%I1 IUa1%%I1 IUa1%%I1 IUa1%%I1 IUa1%%I1 IUa1%%I1 IUa1%%I1 IUa1%%I1 IUa1%%I1 IUa1%%I1 IUa1%%I1 IUa1%%I1 IUa1%%I1 IUa1%%I1 IUa1%%I1 IUa1%%I1 IUa1%%I1 1%%1 GS_1%%G1 GS_1%%G1 GS_1%%G1 GS_1%%G1 GS_1%%G1 GS_1%%G1 GS_1%%G1 GS_1%%G1 GS_1%%G1 GS_1%%G1 GS_1%%G1 GS_1%%G1 GS_1%%G1 GS_1%%G1 GS_1%%G1 GS_1%%G1 GS_1%%G1 GS_1%%G1 GS_1%%G1 GS_1%%G1 GS_1%%G1 GS_1%%G1 GS_1%%G1 GS_1%%G1 GS_1%%G1 GS_1%%G1 GS_1%%G1 GS_1%%G1 GS_1%%G1 GS_1%%G1 GS_1%%G1 GS_1%%G1 GS_1%%G1 GS_1%%G1 GS_1%%G1 GS_1%%G1 GS_1%%G1 GS_1%%G1 GS_1%%G1 GS_1%%G1 GS_1%%G1 GS_1%%G1 GS_1%%G1 GS_1%%G1 GS_1%%G1 GS_1%%G1 GS_1%%G1 GS_1%%G1 GS_1%%G1 GS_1%%G1 GS_1%%G1 GS_1%%G1 GS_1%%G1 GS_1%%G1 GS_1%%G1 GS_1%%G1 GS_1%%G1 GS_1%%G1 GS_1%%G1 GS_1%%G1 GS_1%%G1 GESQ_]1%%G1E GESQ_]1%%G1E GESQ_]1%%G1E GESQ_]1%%G1E EQ]1%%1E EQ]1%%1E EQ]1%%1E EQ]E EQ]E EQ]E EQ]E EQ]E EQ]E EQ]E EQ]E EQ]E EQ]E EQ]E EQ]E EQ]E EQ]E EQ]E EQ]E EQ]E EQ]E EQ]E EQ]E EQ]E EQ]E EQ]E EQ]E EQ]E EQ]E EQ]E EQ]E EQ]E EQ]E EQ]E EQ]E EQ]E EQ]E EQ]E EQ]E EQ]E EQ]E EQ]E EQ]E EQ]E EQ]E EQ]E EQ]E EQ]E EQ]E EQ]E EQ]E EQ]/##E/ EQ]/##E/ EQ]/##E/ EQ]/##E/ EQ]/##E/ /##/ /##/ /##/ /##/ /##/ /##/ /##/ /##/ JVb/##J/ JVb/##J/ JVb/##J/ JVb/##J/ JVb/##J/ JVb/##J/ JVb/##J/ JVb/##J/ JVb/##J/ JVb/##J/ JVb/##J/ JVb/##J/ JVb/##J/ JVb/##J/ JVb/##J/ JVb/##J/ JVb/##J/ JVb/##J/ JVb/##J/ JVb/##J/ JVb/##J/ JVb/##J/ JVb/##J/ JVb/##J/ JVb/##J/ JVb/##J/ JVb/##J/ JVb/##J/ JVb/##J/ JVb/##J/ JVb/##J/ JVb/##J/ JVb/##J/ JVb/##J/ JVb/##J/ JVb/##J/ JVb/##J/ JVb/##J/ JVb/##J/ JVb/##J/ JVb/##J/ JVb/##J/ JVb/##J/ JVb/##J/ JVb/##J/ JVb/##J/ JVb/##J/ JVb/##J/ JVb/##J/ JVb/##J/ JVb/##J/ JVb/##J/ JVb/##J/ JVb/##J/ JVb/##J/ JVb/##J/ JVb/##J/ JVb/##J/ JVb/##J/ JVb/##J/ JVb/##J/ JVb/##J/ JVb/##J/ JVb/##J/ GJSV_b/##GJ/ GJSV_b/##GJ/ GJSV_b/##GJ/ GJSV_b/##GJ/ GJSV_b/##GJ/ GJSV_b/##GJ/ GJSV_b/##GJ/ GJSV_b/##GJ/ GJSV_b/##GJ/ GJSV_b/##GJ/ GJSV_b/##GJ/ GJSV_b/##GJ/ GJSV_b/##GJ/ GJSV_b/##GJ/ GJSV_b/##GJ/ GJSV_b/##GJ/ GJSV_b/##GJ/ GJSV_b/##GJ/ GJSV_b/##GJ/ GJSV_b/##GJ/ GJSV_b/##GJ/ GJSV_b/##GJ/ GJSV_b/##GJ/ GJSV_b/##GJ/ GJSV_b/##GJ/ GJSV_b/##GJ/ GJSV_b/##GJ/ GJSV_b/##GJ/ GJSV_b/##GJ/ GJSV_b/##GJ/ GJSV_b/##GJ/ GJSV_b/##GJ/ GJSV_b/##GJ/ GJSV_b/##GJ/ GJSV_b/##GJ/ GJSV_b/##GJ/ GJSV_b/##GJ/ GJSV_b/##GJ/ GJSV_b/##GJ/ GJSV_b/##GJ/ GJSV_b/##GJ/ GJSV_b/##GJ/ GJSV_b/##GJ/ GJSV_b/##GJ/ GJSV_b/##GJ/ GJSV_b/##GJ/ GJSV_b/##GJ/ GJSV_b/##GJ/ GJSV_b/##GJ/ GJSV_b/##GJ/ GJSV_b/##GJ/ GJSV_b/##GJ/ GJSV_b/##GJ/ GJSV_b/##GJ/ GJSV_b/##GJ/ GJSV_b/##GJ/ GJSV_b/##GJ/ GEJSQV_]b/##GEJ/ GEJSQV_]b/##GEJ/ GEJSQV_]b/##GEJ/ GEJSQV_]b/##GEJ/ GEJSQV_]b/##GEJ/ GEJSQV_]b/##GEJ/ EJQV]b/##EJ/ EJQV]b/##EJ/ EJQV]b/##EJ/ EJQV]b/##EJ/ EJQV]b/##EJ/ EJQV]b/##EJ/ EJQV]b/##EJ/ EJQV]b/##EJ/ EJQV]b/##EJ/ EJQV]b/##EJ/ EJQV]b/##EJ/ EJQV]b/##EJ/ EJQV]b/##EJ/ EJQV]b/##EJ/ EJQV]b/##EJ/ EJQV]b/##EJ/ EJQV]b/##EJ/ EJQV]b/##EJ/ EJQV]b/##EJ/ EJQV]b/##EJ/ EJQV]b/##EJ/ EJQV]b/##EJ/ EJQV]b/##EJ/ EJQV]b/##EJ/ EJQV]b/##EJ/ EJQV]b/##EJ/ EJQV]b/##EJ/ EJQV]b/##EJ/ EJQV]b/##EJ/ EJQV]b/##EJ/ EJQV]b/##EJ/ EJQV]b/##EJ/ EJQV]b/##EJ/ EJQV]b/##EJ/ EJQV]b/##EJ/ EJQV]b/##EJ/ EJQV]b/##EJ/ EJQV]b/##EJ/ EJQV]b/##EJ/ EJQV]b/##EJ/ EJQV]b/##EJ/ EJQV]b/##EJ/ EJQV]b/##EJ/ EJQV]b/##EJ/ EJQV]b/##EJ/ EJQV]b/##EJ/ EJQV]b/##EJ/ EDJQPV]\b/##EDJ/ EDJQPV]\b/##EDJ/ EDJQPV]\b/##EDJ/ EDJQPV]\b/##EDJ/ EDJQPV]\b/##EDJ/ EDJQPV]\b/##EDJ/ DJPV\b/##DJ/ DJPV\b/##DJ/ DJPV\b/##DJ/ DJPV\b/##DJ/ DJPV\b/##DJ/ DJPV\b/##DJ/ DJPV\b/##DJ/ DJPV\b/##DJ/ DJPV\b/##DJ/ DJPV\b/##DJ/ DJPV\b/##DJ/ DJPV\b/##DJ/ DJPV\b/##DJ/ DJPV\b/##DJ/ DJPV\b/##DJ/ DJPV\b/##DJ/ DJPV\b/##DJ/ DJPV\b/##DJ/ DJPV\b/##DJ/ DJPV\b/##DJ/ DJPV\b/##DJ/ DJPV\b/##DJ/ DJPV\b/##DJ/ DJPV\b/##DJ/ DJPV\b/##DJ/ DJPV\b/##DJ/ DJPV\b/##DJ/ DJPV\b/##DJ/ DJPV\b/##DJ/ DJPV\b/##DJ/ DJPV\b/##DJ/ DJPV\b/##DJ/ DJPV\b/##DJ/ DJPV\b/##DJ/ DJPV\b/##DJ/ DJPV\b/##DJ/ DJPV\b/##DJ/ DJPV\b/##DJ/ DJPV\b/##DJ/ DJPV\b/##DJ/ DJPV\b/##DJ/ DJPV\b/##DJ/ DJPV\b/##DJ/ DJPV\b/##DJ/ DJPV\b/##DJ/ DJPV\b/##DJ/ DJPV\b/##DJ/ DJPV\b/##DJ/ DJPV\b/##DJ/ DJPV\b/##DJ/ DJPV\b/##DJ/ DJPV\b/##DJ/ DJPV\b/##DJ/ DJPV\b/##DJ/ DJBPVN\bZ/##DJB/ DJBPVN\bZ/##DJB/ DJBPVN\bZ/##DJB/ JBVNbZ/##JB/ JBVNbZ/##JB/ JBVNbZ/##JB/ JBVNbZ/##JB/ JBVNbZ/##JB/ JBVNbZ/##JB/ JBVNbZ/##JB/ JBVNbZ/##JB/ JBVNbZ/##JB/ JBVNbZ/##JB/ JBVNbZ/##JB/ JBVNbZ/##JB/ JBVNbZ/##JB/ JBVNbZ/##JB/ JBVNbZ/##JB/ JBVNbZ/##JB/ JBVNbZ/##JB/ JBVNbZ/##JB/ JBVNbZ/##JB/ JBVNbZ/##JB/ JBVNbZ/##JB/ JBVNbZ/##JB/ JBVNbZ/##JB/ JBVNbZ/##JB/ JBVNbZ/##JB/ JBVNbZ/##JB/ JBVNbZ/##JB/ JBVNbZ/##JB/ JBVNbZ/##JB/ JBVNbZ/##JB/ JBVNbZ/##JB/ JBVNbZ/##JB/ JBVNbZ/##JB/ JBVNbZ/##JB/ JBVNbZ/##JB/ JBVNbZ/##JB/ JBVNbZ/##JB/ JBVNbZ/##JB/ JBVNbZ/##JB/ JBVNbZ/##JB/ JBVNbZ/##JB/ JBVNbZ/##JB/ JBVNbZ/##JB/ JBVNbZ/##JB/ BNZ/##B/ BNZ/##B/ BNZ/##B/ BNZ/##B/ BNZ/##B/ BNZ/##B/ BNZ/##B/ BNZ/##B/ BNZ/##B/ BNZ/##B/ BNZ/##B/ BNZ/##B/ BNZ/##B/ BNZ/##B/ BNZ/##B/ /##/ @ILUXa/##@I/ @ILUXa/##@I/ @ILUXa/##@I/ @ILUXa/##@I/ @ILUXa/##@I/ @ILUXa/##@I/ @ILUXa/##@I/ @ILUXa/##@I/ @ILUXa/##@I/ @ILUXa/##@I/ @ILUXa/##@I/ @ILUXa/##@I/ @ILUXa/##@I/ @ILUXa/##@I/ @ILUXa/##@I/ @ILUXa/##@I/ @ILUXa/##@I/ @ILUXa/##@I/ @ILUXa/##@I/ @ILUXa/##@I/ @ILUXa/##@I/ @ILUXa/##@I/ @ILUXa/##@I/ @ILUXa/##@I/ @ILUXa/##@I/ @ILUXa/##@I/ @ILUXa/##@I/ @ILUXa/##@I/ @ILUXa/##@I/ @ILUXa/##@I/ @ILUXa/##@I/ @ILUXa/##@I/ @ILUXa/##@I/ @ILUXa/##@I/ @ILUXa/##@I/ @ILUXa/##@I/ @ILUXa/##@I/ @ILUXa/##@I/ @ILUXa/##@I/ @ILUXa/##@I/ @ILUXa/##@I/ @ILUXa/##@I/ @ILUXa/##@I/ @ILUXa/##@I/ @ILUXa/##@I/ @ILUXa/##@I/ @ILUXa/##@I/ @ILUXa/##@I/ @ILUXa/##@I/ @ILUXa/##@I/ @ILUXa/##@I/ @ILUXa/##@I/ @ILUXa/##@I/ @ILUXa/##@I/ @ILUXa/##@I/ @ILUXa/##@I/ @ILUXa/##@I/ @ILUXa/##@I/ IUa/##I/ >JV/##/> >JV/##/> J>VJbV/1#%#%/J>1 J>VJbV/1#%#%/J>1 J>VJbV/1#%#%/J>1 J>VJbV1%%J>1 J>VJbV1%%J>1 J>VJbV1%%J>1 J>VJbV1%%J>1 J>VJbV1%%J>1 J>VJbV1%%J>1 J>VJbV1%%J>1 J>VJbV1%%J>1 J>VJbV1%%J>1 J>VJbV1%%J>1 J>VJbV1%%J>1 J>VJbV1%%J>1 J>VJbV1%%J>1 J>VJbV1%%J>1 J>VJbV1%%J>1 J>VJbV1%%J>1 J>VJbV1%%J>1 J>VJbV1%%J>1 J>VJbV1%%J>1 J>VJbV1%%J>1 J>VJbV1%%J>1 J>VJbV1%%J>1 J>VJbV1%%J>1 J>VJbV1%%J>1 J>VJbV1%%J>1 J>VJbV1%%J>1 J>VJbV1%%J>1 J>VJbV1%%J>1 J>VJbV1%%J>1 J>VJbV1%%J>1 J>VJbV1%%J>1 J>VJbV1%%J>1 J>VJbV1%%J>1 J>VJbV1%%J>1 J>VJbV1%%J>1 J>VJbV1%%J>1 J>VJbV1%%J>1 J>VJbV1%%J>1 J>VJbV1%%J>1 J>VJbV1%%J>1 J>VJbV1%%J>1 J>VJbV1%%J>1 J>VJbV1%%J>1 J>VJbV1%%J>1 J>VJbV1%%J>1 J>VJbV1%%J>1 J>VJbV1%%J>1 J>VJbV1%%J>1 J>VJbV1%%J>1 J>VJbV1%%J>1 J>VJbV1%%J>1 J>VJbV1%%J>1 J>VJbV1%%J>1 J>VJbV1%%J>1 J>VJbV1%%J>1 J>VJbV1%%J>1 J>VJbV1%%J>1 J>VJbV1%%J>1 J>VJbV1%%J>1 >JV1%%>1 >JV1%%>1 >JV1%%>1 >JV1%%>1 >JV1%%>1 >JV1%%>1 >JV1%%>1 >JV1%%>1 >JV1%%>1 >JV1%%>1 >JV1%%>1 >JV1%%>1 >JV1%%>1 >JV1%%>1 >JV1%%>1 >JV1%%>1 >=JIVU1%%>=1 =LIXUd1%%=1L =LIXUd1%%=1L =LIXUd1%%=1L =LIXUd1%%=1L =LIXUd1%%=1L =LIXUd1%%=1L =LIXUd1%%=1L =LIXUd1%%=1L =LIXUd1%%=1L =LIXUd1%%=1L =LIXUd1%%=1L =LIXUd1%%=1L =LIXUd1%%=1L =LIXUd1%%=1L =LIXUd1%%=1L =LIXUd1%%=1L =LIXUd1%%=1L =LIXUd1%%=1L =LIXUd1%%=1L =LIXUd1%%=1L =LIXUd1%%=1L =LIXUd1%%=1L =LIXUd1%%=1L =LIXUd1%%=1L =LIXUd1%%=1L =LIXUd1%%=1L =LIXUd1%%=1L =LIXUd1%%=1L =LIXUd1%%=1L =LIXUd1%%=1L =LIXUd1%%=1L =LIXUd1%%=1L =LIXUd1%%=1L =LIXUd1%%=1L =LIXUd1%%=1L =LIXUd1%%=1L =LIXUd1%%=1L =LIXUd1%%=1L =LIXUd1%%=1L =LIXUd1%%=1L =LIXUd1%%=1L =LIXUd1%%=1L =LIXUd1%%=1L =LIXUd1%%=1L =LIXUd1%%=1L =LIXUd1%%=1L =LIXUd1%%=1L =LIXUd1%%=1L =LIXUd1%%=1L =LIXUd1%%=1L =LIXUd1%%=1L =LIXUd1%%=1L =LIXUd1%%=1L =LIXUd1%%=1L LXd1%%1L LXd1%%1L LXdL L;XGdS2&&L;2 L;NXGZdSf2&&L;N2 L;NXGZdSf2&&L;N2 L;NXGZdSf2&&L;N2 L;NXGZdSf2&&L;N2 L;NXGZdSf2&&L;N2 L;NXGZdSf2&&L;N2 L;NXGZdSf2&&L;N2 L;NXGZdSf2&&L;N2 L;NXGZdSf2&&L;N2 L;NXGZdSf2&&L;N2 L;NXGZdSf2&&L;N2 ;NGZSf2&&;N2 ;NGZSf2&&;N2 ;NGZSf2&&;N2 ;NGZSf2&&;N2 ;NGZSf2&&;N2 ;NGZSf2&&;N2 ;NGZSf2&&;N2 ;NGZSf2&&;N2 ;NGZSf2&&;N2 ;NGZSf2&&;N2 ;NGZSf2&&;N2 ;NGZSf2&&;N2 ;NGZSf2&&;N2 ;NGZSf2&&;N2 ;NGZSf2&&;N2 ;NGZSf2&&;N2 ;NGZSf2&&;N2 ;NGZSf2&&;N2 ;NGZSf2&&;N2 ;NGZSf2&&;N2 ;NGZSf2&&;N2 ;NGZSf2&&;N2 ;NGZSf2&&;N2 ;NGZSf2&&;N2 ;NGZSf2&&;N2 ;NGZSf2&&;N2 ;NGZSf2&&;N2 ;NGZSf2&&;N2 ;NGZSf2&&;N2 ;NGZSf2&&;N2 ;NGZSf2&&;N2 ;NGZSf2&&;N2 ;NGZSf2&&;N2 ;NGZSf2&&;N2 ;NGZSf2&&;N2 ;NGZSf2&&;N2 ;NGZSf2&&;N2 ;NGZSf2&&;N2 ;NGZSf2&&;N2 ;NGZSf2&&;N2 ;NGZSf2&&;N2 ;NGZSf2&&;N2 ;NGZSf2&&;N2 NZf2&&N2 NZf2&&N2 NZf2&&N2 NZf2&&N2 NZf2&&N2 NZf2&&N2 NZf2&&N2 NBZNfZ2&&NB2 BNZ2&&B2 BNZ2&&B2 BNZ2&&B2 BNZ2&&B2 BNZ2&&B2 BNZ2&&B2 BJNVZb2&&BJ2 BJNVZb2&&BJ2 BJNVZb2&&BJ2 BJNVZb2&&BJ2 BJNVZb2&&BJ2 BJNVZb2&&BJ2 BJNVZb2&&BJ2 BJNVZb2&&BJ2 BJNVZb2&&BJ2 BJNVZb2&&BJ2 BJNVZb2&&BJ2 BJNVZb2&&BJ2 BJNVZb2&&BJ2 BJNVZb2&&BJ2 BJNVZb2&&BJ2 BJNVZb2&&BJ2 BJNVZb2&&BJ2 BJNVZb2&&BJ2 BJNVZb2&&BJ2 BJNVZb2&&BJ2 BJNVZb2&&BJ2 BJNVZb2&&BJ2 BJNVZb2&&BJ2 BJNVZb2&&BJ2 BJNVZb2&&BJ2 BJNVZb2&&BJ2 BJNVZb2&&BJ2 BJNVZb2&&BJ2 BJNVZb2&&BJ2 BJNVZb2&&BJ2 BJNVZb2&&BJ2 BJNVZb2&&BJ2 BJNVZb2&&BJ2 BJNVZb2&&BJ2 BJNVZb2&&BJ2 BJNVZb2&&BJ2 BJNVZb2&&BJ2 BJNVZb2&&BJ2 BJNVZb2&&BJ2 BJNVZb2&&BJ2 BJNVZb2&&BJ2 BJNVZb2&&BJ2 BJNVZb2&&BJ2 BJNVZb2&&BJ2 BJNVZb2&&BJ2 BJNVZb2&&BJ2 BJNVZb2&&BJ2 BJNVZb2&&BJ2 BJNVZb2&&BJ2 BJNVZb2&&BJ2 BJNVZb2&&BJ2 BJNVZb2&&BJ2 BJNVZb2&&BJ2 BJNVZb2&&BJ2 BJNVZb2&&BJ2 BJNVZb2&&BJ2 BJDNVPZb\2&&BJD2 BJDNVPZb\2&&BJD2 BJDNVPZb\2&&BJD2 JDVPb\2&&JD2 JDVPb\2&&JD2 JDVPb\2&&JD2 JDVPb\2&&JD2 DP\2&&D2 DLPX\d2&&DL2 DLPX\d2&&DL2 DLPX\d2&&DL2 DLPX\d2&&DL2 DLPX\d2&&DL2 DLPX\d2&&DL2 DLPX\d2&&DL2 DLPX\d2&&DL2 DLPX\d2&&DL2 DLPX\d2&&DL2 DLPX\d2&&DL2 DLPX\d2&&DL2 DLPX\d2&&DL2 DLPX\d2&&DL2 DLPX\d2&&DL2 DLPX\d2&&DL2 DLPX\d2&&DL2 DLPX\d2&&DL2 DLPX\d2&&DL2 DLPX\d2&&DL2 DLPX\d2&&DL2 DLPX\d2&&DL2 DLPX\d2&&DL2 DLPX\d2&&DL2 DLPX\d2&&DL2 DLPX\d2&&DL2 DLPX\d2&&DL2 DLPX\d2&&DL2 DLPX\d2&&DL2 DLPX\d2&&DL2 DLPX\d2&&DL2 DLPX\d2&&DL2 DLPX\d2&&DL2 DLPX\d2&&DL2 DLPX\d2&&DL2 DLPX\d2&&DL2 DLPX\d2&&DL2 DLPX\d2&&DL2 DLPX\d2&&DL2 DLPX\d2&&DL2 DLPX\d2&&DL2 DLPX\d2&&DL2 DLPX\d2&&DL2 DLPX\d2&&DL2 DLPX\d2&&DL2 DLPX\d2&&DL2 DLPX\d2&&DL2 DLPX\d2&&DL2 DLPX\d2&&DL2 DLPX\d2&&DL2 DLPX\d2&&DL2 DLNPXZ\df2&&DL2N LNXZdf2&&L2N NZf2&&2N NZf2&&2N NEEZQQf]]2&&2NEE NEEZQQf]]2&&2NEE NEEZQQf]]2&&2NEE NEEZQQf]]2&&2NEE NEEZQQf]]2&&2NEE NEEZQQf]]2&&2NEE NEEZQQf]]2&&2NEE NEEZQQf]]2&&2NEE NEEZQQf]]2&&2NEE NEEZQQf]]2&&2NEE NEEZQQf]]2&&2NEE NEEZQQf]]2&&2NEE NEEZQQf]]2&&2NEE NEEZQQf]]2&&2NEE NEEZQQf]]2&&2NEE NEEZQQf]]2&&2NEE NEEZQQf]]2&&2NEE NEEZQQf]]2&&2NEE NEEZQQf]]2&&2NEE NEEZQQf]]2&&2NEE NEEZQQf]]2&&2NEE NEEZQQf]]2&&2NEE NEEZQQf]]2&&2NEE NEEZQQf]]2&&2NEE NEEZQQf]]2&&2NEE NEEZQQf]]2&&2NEE NEEZQQf]]2&&2NEE NEEZQQf]]NEE NEEZQQf]]NEE NEEZQQf]]NEE NEEZQQf]]NEE EEQQ]]EE EEQQ]]EE EEQQ]]EE EEQQ]]EE EEQQ]]EE EEQQ]]EE EEQQ]]EE EEQQ]]EE EEQQ]]EE EEQQ]]EE EEQQ]]EE EEQQ]]EE EQ]E EQ]E EQ]E EQ]E EQ]E EQ]E EQ]E EQ]E EQ]E         4(( 4(( 4(( DP\4((D GDSP_\4((GD GDSP_\4((GD GDSP_\4((GD GDSP_\4((GD GDSP_\4((GD GDSP_\4((GD GDSP_\4((GD GDSP_\4((GD GDSP_\4((GD GDSP_\4((GD GDSP_\4((GD GDSP_\4((GD GDSP_\4((GD GDSP_\4((GD GDSP_\4((GD GDSP_\4((GD GDSP_\4((GD GDSP_\4((GD GDSP_\4((GD GDSP_\4((GD GDSP_\4((GD GDSP_\4((GD GDSP_\4((GD GDSP_\4((GD GDSP_\4((GD GDSP_\4((GD GDSP_\4((GD GDSP_\4((GD GDSP_\4((GD GDSP_\4((GD GDSP_\4((GD GDSP_\4((GD GDSP_\4((GD GDSP_\4((GD GDSP_\4((GD GDSP_\4((GD GDSP_\4((GD GDSP_\4((GD GDSP_\4((GD GDSP_\4((GD GDSP_\4((GD GDSP_\4((GD GDSP_\4((GD GDSP_\4((GD GDSP_\4((GD GDSP_\4((GD GDSP_\4((GD GDSP_\4((GD GDSP_\4((GD GDSP_\4((GD GDSP_\4((GD GDSP_\4((GD GDSP_\4((GD GDSP_\4((GD GDSP_\4((GD GDSP_\4((GD GDSP_\4((GD GDSP_\4((GD GDSP_\4((GD GD4SP@_\L4((GD44 GD4SP@_\L4((GD44 GD4SP@_\L4((GD44 GD4SP@_\L4((GD44 GD4SP@_\L4((GD44 GD4SP@_\L4((GD44 GD4SP@_\L4((GD44 GD4SP@_\L4((GD44 GD4SP@_\L4((GD44 GD4SP@_\L4((GD44 GD4SP@_\L4((GD44 GD4SP@_\L4((GD44 GD4SP@_\L4((GD44 GD4SP@_\L4((GD44 GD4SP@_\L4((GD44 GD4SP@_\L4((GD44 GD4SP@_\L4((GD44 GD4SP@_\L4((GD44 GD4SP@_\L4((GD44 GD4SP@_\L4((GD44 GD4SP@_\L4((GD44 GD4SP@_\L4((GD44 GD4SP@_\L4((GD44 GD4SP@_\L4((GD44 GD4SP@_\L4((GD44 GD4SP@_\L4((GD44 GD4SP@_\L4((GD44 GD4SP@_\L4((GD44 GD4SP@_\L4((GD44 GD4SP@_\L4((GD44 GD4SP@_\L4((GD44 GD4SP@_\L4((GD44 GD4SP@_\L4((GD44 GD4SP@_\L4((GD44 GD4SP@_\L4((GD44 GD4SP@_\L4((GD44 GD4SP@_\L4((GD44 GD4SP@_\L4((GD44 GD4SP@_\L4((GD44 GD4SP@_\L4((GD44 GD4SP@_\L4((GD44 GD4SP@_\L4((GD44 GD4SP@_\L4((GD44 GD4SP@_\L4((GD44 GD4SP@_\L4((GD44 GD4SP@_\L4((GD44 GD4SP@_\L4((GD44 GD4SP@_\L4((GD44 GD4SP@_\L4((GD44 GD4SP@_\L4((GD44 GD4SP@_\L4((GD44 GD4SP@_\L4((GD44 GD4SP@_\L4((GD44 GD4SP@_\L4((GD44 GD4SP@_\L4((GD44 GD4SP@_\L4((GD44 GD46SP@B_\LN4((GD464 GD46SP@B_\LN4((GD464 GD46SP@B_\LN4((GD464 GD46SP@B_\LN4((GD464 D46P@B\LN4((D464 D46P@B\LN4((D464 D4E6P@QB\L]N4((D4E64 D4E6P@QB\L]N4((D4E64 4E6@QBL]N4((4E64 4E6@QBL]N4((4E64 4E6@QBL]N4((4E64 4E6@QBL]N4((4E64 E6QB]N4((E64 E6QB]N4((E64 E6QB]N4((E64 E6QB]N4((E64 E6QB]N4((E64 E6QB]N4((E64 E6QB]N4((E64 E6QB]N4((E64 E6QB]N4((E64 E6QB]N4((E64 E6QB]N4((E64 E6QB]N4((E64 E6QB]N4((E64 E6QB]N4((E64 E6QB]N4((E64 E6QB]N4((E64 E6QB]N4((E64 E6QB]N4((E64 E6QB]N4((E64 E6QB]N4((E64 E6QB]N4((E64 E6QB]N4((E64 E6QB]N4((E64 E6QB]N4((E64 E6QB]N4((E64 E6QB]N4((E64 E6QB]N4((E64 E6QB]N4((E64 E6QB]N4((E64 E6QB]N4((E64 E6QB]N4((E64 E6QB]N4((E64 E6QB]N4((E64 E6QB]N4((E64 E6QB]N4((E64 E6QB]N4((E64 E6QB]N4((E64 E6QB]N4((E64 E6QB]N4((E64 E6QB]N4((E64 E6QB]N4((E64 E6QB]N4((E64 E6QB]N4((E64 E6QB]N4((E64 E6QB]N4((E64 E68QBD]NP4((E684 E68QBD]NP4((E684 E68QBD]NP4((E684 E68QBD]NP4((E684 E68QBD]NP4((E684 68BDNP4((684 8GDSP_4((8G4 8GDSP_4((8G4 8GDSP_4((8G4 8GDSP_4((8G4 8GDSP_4((8G4 8GDSP_4((8G4 8GDSP_4((8G4 8GDSP_4((8G4 8GDSP_4((8G4 8GDSP_4((8G4 8GDSP_4((8G4 8GDSP_4((8G4 8GDSP_4((8G4 8GDSP_4((8G4 8GDSP_4((8G4 8GDSP_4((8G4 8GDSP_4((8G4 8GDSP_4((8G4 8GDSP_4((8G4 8GDSP_4((8G4 8GDSP_4((8G4 8GDSP_4((8G4 8GDSP_4((8G4 8GDSP_4((8G4 8GDSP_4((8G4 8GDSP_4((8G4 8GDSP_4((8G4 8GDSP_4((8G4 8GDSP_4((8G4 8GDSP_4((8G4 8GDSP_4((8G4 8GDSP_4((8G4 8GDSP_4((8G4 8GDSP_4((8G4 8GDSP_4((8G4 8GDSP_4((8G4 8GDSP_4((8G4 8GDSP_4((8G4 8GDSP_4((8G4 8GDSP_4((8G4 8GDSP_4((8G4 8GDSP_4((8G4 8GDSP_4((8G4 8GDSP_4((8G4 8GDSP_4((8G4 8GDSP_4((8G4 8GDSP_4((8G4 8GDSP_4((8G4 8GDSP_4((8G4 8GDSP_4((8G4 8GDSP_4((8G4 GS_4((G4 GS_4((G4 G9SE_Q4((G94 G9SE_Q4((G94 G9SE_Q4((G94 G9SE_Q4((G94 G9SE_Q4((G94 G9SE_Q4((G94 G9SE_Q4((G94 G9SE_Q4((G94 G9SE_Q4((G94 G9ESEQ_Q]4((G94E 9IEEUQQa]4((9I4E 9IEEUQQa]4((9I4E 9IEEUQQa]4((9I4E 9IEEUQQa]4((9I4E 9IEEUQQa]4((9I4E 9IEEUQQa]4((9I4E 9IEEUQQa]4((9I4E 9IEEUQQa]4((9I4E 9IEEUQQa]4((9I4E 9IEEUQQa]4((9I4E 9IEEUQQa]4((9I4E 9IEEUQQa]4((9I4E 9IEEUQQa]4((9I4E 9IEEUQQa]4((9I4E 9IEEUQQa]4((9I4E 9IEEUQQa]4((9I4E 9IEEUQQa]4((9I4E 9IEEUQQa]4((9I4E 9IEEUQQa]4((9I4E 9IEEUQQa]4((9I4E 9IEEUQQa]4((9I4E 9IEEUQQa]4((9I4E 9IEEUQQa]4((9I4E 9IEEUQQa]4((9I4E 9IEEUQQa]4((9I4E 9IEEUQQa]4((9I4E 9IEEUQQa]4((9I4E 9IEEUQQa]4((9I4E 9IEEUQQa]4((9I4E 9IEEUQQa]4((9I4E 9IEEUQQa]4((9I4E 9IEEUQQa]4((9I4E 9IEEUQQa]4((9I4E 9IEEUQQa]4((9I4E 9IEEUQQa]4((9I4E 9IEEUQQa]4((9I4E 9IEEUQQa]4((9I4E 9IEEUQQa]4((9I4E 9IEEUQQa]4((9I4E 9IEEUQQa]4((9I4E 9IEEUQQa]4((9I4E 9IEEUQQa]4((9I4E 9IEEUQQa]4((9I4E 9IEEUQQa]4((9I4E 9IEEUQQa]4((9I4E 9IEEUQQa]4((9I4E 9IEEUQQa]4((9I4E 9IEEUQQa]4((9I4E 9IEEUQQa]4((9I4E 9IEEUQQa]4((9I4E 9IEEUQQa]4((9I4E 9IEEUQQa]4((9I4E 9IEEUQQa]4((9I4E 9IEEUQQa]4((9I4E 9I;EEUGQQaS]4((9I4;E I;EUGQaS]4((I4;E I;EUGQaS]4((I4;E I;EUGQaS]4((I4;E I;EUGQaS]4((I4;E I;EUGQaS]4((I4;E I;EUGQaS]4((I4;E I;EUGQaS]4((I4;E I;EUGQaS]4((I4;E I;EUGQaS]4((I4;E I;EUGQaS]4((I4;E I;EUGQaS]4((I4;E ;EGQS]4((4;E ;JEGVQSb]4((4;JE ;JEGVQSb]4((4;JE ;JEGVQSb]4((4;JE ;JEGVQSb]4((4;JE ;JEGVQSb]4((4;JE ;JEGVQSb]4((4;JE ;JEGVQSb]4((4;JE ;JEGVQSb]4((4;JE ;JEGVQSb]4((4;JE ;JEGVQSb]4((4;JE ;JEGVQSb]4((4;JE ;JEGVQSb]4((4;JE ;JEGVQSb]4((4;JE ;JEGVQSb]4((4;JE ;JEGVQSb]4((4;JE ;JEGVQSb]4((4;JE ;JEGVQSb]4((4;JE ;JEGVQSb]4((4;JE ;JEGVQSb]4((4;JE ;JEGVQSb]4((4;JE ;JEGVQSb]4((4;JE ;JEGVQSb]4((4;JE ;JEGVQSb]4((4;JE ;JEGVQSb]4((4;JE ;JEGVQSb]4((4;JE ;JEGVQSb]4((4;JE ;JEGVQSb]4((4;JE ;JEGVQSb]4((4;JE ;JEGVQSb]4((4;JE ;JEGVQSb]4((4;JE ;JEGVQSb]4((4;JE ;JEGVQSb]4((4;JE ;JEGVQSb]4((4;JE ;JEGVQSb]4((4;JE ;JEGVQSb]4((4;JE ;JEGVQSb]4((4;JE ;JEGVQSb]4((4;JE ;JEGVQSb]4((4;JE ;JEGVQSb]4((4;JE ;JEGVQSb]4((4;JE ;JEGVQSb]4((4;JE ;JEGVQSb]4((4;JE ;JEGVQSb]42(&(&4;JE2 ;JEGVQSb]42(&(&4;JE2 ;JEGVQSb]42(&(&4;JE2 ;J=EGVIQSbU]42(&(&4;J=E2 ;J=EGVIQSbU]2&&;J=E2 ;J=EGVIQSbU]2&&;J=E2 ;J=EGVIQSbU]2&&;J=E2 ;J=EGVIQSbU]2&&;J=E2 ;J=EGVIQSbU]2&&;J=E2 ;J=EGVIQSbU]2&&;J=E2 ;J=EGVIQSbU]2&&;J=E2 J=EVIQbU]2&&J=E2 J=EVIQbU]2&&J=E2 J=EVIQbU]2&&J=E2 J=EVIQbU]2&&J=E2 J=EVIQbU]2&&J=E2 J=EVIQbU]2&&J=E2 J=EVIQbU]2&&J=E2 J=ELVIQXbU]d2&&J=E2L =ELIQXU]d2&&=E2L =ELIQXU]d2&&=E2L =ELIQXU]d2&&=E2L =ELIQXU]d2&&=E2L =ELIQXU]d2&&=E2L =ELIQXU]d2&&=E2L =ELIQXU]d2&&=E2L =ELIQXU]d2&&=E2L =ELIQXU]d2&&=E2L =ELIQXU]d2&&=E2L =ELIQXU]d2&&=E2L =ELIQXU]d2&&=E2L =ELIQXU]d2&&=E2L =ELIQXU]d2&&=E2L =ELIQXU]d2&&=E2L =ELIQXU]d2&&=E2L =ELIQXU]d2&&=E2L =ELIQXU]d2&&=E2L =ELIQXU]d2&&=E2L =ELIQXU]d2&&=E2L =ELIQXU]d2&&=E2L =ELIQXU]d2&&=E2L =ELIQXU]d2&&=E2L =ELIQXU]d2&&=E2L =ELIQXU]d2&&=E2L =ELIQXU]d2&&=E2L =ELIQXU]d2&&=E2L =ELIQXU]d2&&=E2L =ELIQXU]d2&&=E2L =ELIQXU]d2&&=E2L =ELIQXU]d2&&=E2L =ELIQXU]d2&&=E2L =ELIQXU]d2&&=E2L =ELIQXU]d2&&=E2L =ELIQXU]d2&&=E2L =ELIQXU]d2&&=E2L =ELIQXU]d2&&=E2L =ELIQXU]d2&&=E2L =ELIQXU]d2&&=E2L =ELIQXU]d2&&=E2L =ELIQXU]d2&&=E2L =ELIQXU]d2&&=E2L =ELIQXU]d2&&=E2L =ELIQXU]d2&&=E2L =ELIQXU]d2&&=E2L =ELIQXU]d2&&=E2L =ELIQXU]d2&&=E2L E>LQJX]Vd2&&E>2L E>LQJX]Vd2&&E>2L E>LQJX]Vd2&&E>2L E>LQJX]Vd2&&E>2L E>LQJX]Vd2&&E>2L E>LQJX]Vd2&&E>2L E>LQJX]Vd2&&E>2L E>DLQJPX]V\d2&&E>2DL E>DLQJPX]V\d2&&E>2DL E>DLQJPX]V\d2&&E>2DL E>DLQJPX]V\d2&&E>2DL E>DLQJPX]V\d2&&E>2DL E>DLQJPX]V\d2&&E>2DL >DLJPXV\d2&&>2DL >DLJPXV\d2&&>2DL >DLJPXV\d2&&>2DL >DLJPXV\d2&&>2DL >DLJPXV\d2&&>2DL >DLJPXV\d2&&>2DL >DLJPXV\d2&&>2DL >DLJPXV\d2&&>2DL >DLJPXV\d2&&>2DL >DLJPXV\d2&&>2DL >DLJPXV\d2&&>2DL >DLJPXV\d2&&>2DL >DLJPXV\d2&&>2DL >DLJPXV\d2&&>2DL >DLJPXV\d2&&>2DL >DLJPXV\d2&&>2DL >DLJPXV\d2&&>2DL >DLJPXV\d2&&>2DL >DLJPXV\d2&&>2DL >DLJPXV\d2&&>2DL >DLJPXV\d2&&>2DL >DLJPXV\d2&&>2DL >DLJPXV\d2&&>2DL >DLJPXV\d2&&>2DL >DLJPXV\d2&&>2DL >DLJPXV\d2&&>2DL >DLJPXV\d2&&>2DL >DLJPXV\d2&&>2DL >DLJPXV\d2&&>2DL >DLJPXV\d2&&>2DL >DLJPXV\d2&&>2DL >DLJPXV\d2&&>2DL >DLJPXV\d2&&>2DL >DLJPXV\d2&&>2DL >DLJPXV\d2&&>2DL >DLJPXV\d2&&>2DL >DLJPXV\d2&&>2DL >DLJPXV\d2&&>2DL >DLJPXV\d2&&>2DL >DLJPXV\d2&&>2DL >DLJPXV\d2&&>2DL >DLJPXV\d2&&>2DL >DLJPXV\d2&&>2DL >DLJPXV\d2&&>2DL >DLJPXV\d2&&>2DL >DLJPXV\d2&&>2DL >DLJPXV\d2&&>2DL >DLJPXV\d2&&>2DL >DLJPXV\d21&%&%>2DL1 >DLJPXV\d21&%&%>2DL1 >DL@JPXLV\dX21&%&%>2DL@1 >DL@JPXLV\dX21&%&%>2DL@1 >DL@JPXLV\dX21&%&%>2DL@1 >DL@JPXLV\dX21&%&%>2DL@1 >DL@JPXLV\dX21&%&%>2DL@1 >DL@JPXLV\dX21&%&%>2DL@1 DL@PXL\dX21&%&%2DL@1 DL@PXL\dX21&%&%2DL@1 DL@PXL\dX21&%&%2DL@1 DL@PXL\dX1%%DL@1 DL@EPXLQ\dX]1%%DL@1E DL@EPXLQ\dX]1%%DL@1E L@EXLQdX]1%%L@1E L@EXLQdX]1%%L@1E L@EXLQdX]1%%L@1E L@EXLQdX]1%%L@1E L@EXLQdX]1%%L@1E L@EXLQdX]1%%L@1E L@EXLQdX]1%%L@1E L@EXLQdX]1%%L@1E L@EXLQdX]1%%L@1E L@EXLQdX]1%%L@1E L@EXLQdX]1%%L@1E L@EXLQdX]1%%L@1E L@EXLQdX]1%%L@1E L@EXLQdX]1%%L@1E L@EXLQdX]1%%L@1E L@EXLQdX]1%%L@1E L@EXLQdX]1%%L@1E L@EXLQdX]1%%L@1E L@EXLQdX]1%%L@1E L@EXLQdX]1%%L@1E L@EXLQdX]1%%L@1E L@EXLQdX]1%%L@1E L@EXLQdX]1%%L@1E L@EXLQdX]1%%L@1E L@EXLQdX]1%%L@1E L@EXLQdX]1%%L@1E L@EXLQdX]1%%L@1E L@EXLQdX]1%%L@1E L@EXLQdX]1%%L@1E L@EXLQdX]1%%L@1E L@EXLQdX]1%%L@1E L@EXLQdX]1%%L@1E L@EXLQdX]1%%L@1E L@EXLQdX]1%%L@1E L@EXLQdX]1%%L@1E L@EXLQdX]1%%L@1E L@EXLQdX]1%%L@1E L@EXLQdX]1%%L@1E L@EXLQdX]1%%L@1E L@EXLQdX]1%%L@1E L@EXLQdX]1%%L@1E L@EXLQdX]1%%L@1E L@EXLQdX]1%%L@1E L@EXLQdX]1%%L@1E @ELQX]1%%@1E @ELQX]1%%@1E @=ELIQXU]1%%@=1E @=ELIQXU]1%%@=1E @=ELIQXU]1%%@=1E @=ELIQXU]1%%@=1E @=ELIQXU]1%%@=1E @=ELIQXU]1%%@=1E @=ELIQXU]1%%@=1E @=ELIQXU]1%%@=1E =EIQU]1%%=1E =EIQU]1%%=1E =EIQU]1%%=1E =EIQU]1%%=1E =EIQU]1%%=1E =EIQU]1%%=1E =EIQU]1%%=1E =EIQU]1%%=1E =EIQU]1%%=1E =EIQU]1%%=1E =EIQU]1%%=1E =EIQU]1%%=1E =EIQU]1%%=1E =EIQU]1%%=1E =EIQU]1%%=1E =EIQU]1%%=1E =EIQU]1%%=1E =EIQU]1%%=1E =EIQU]1%%=1E =EIQU]1%%=1E =EIQU]1%%=1E =EIQU]1%%=1E =EIQU]1%%=1E =EIQU]1%%=1E =EIQU]1%%=1E =EIQU]1%%=1E =EIQU]1%%=1E =EIQU]1%%=1E =EIQU]1%%=1E =EIQU]1%%=1E =EIQU]1%%=1E =EIQU]1%%=1E =EIQU]1%%=1E =EIQU]1%%=1E =EIQU]1%%=1E =EIQU]1%%=1E =EIQU]1%%=1E =EIQU]1%%=1E =EIQU]1%%=1E =EIQU]1%%=1E =EIQU]1%%=1E =EIQU]1%%=1E =EIQU]1%%=1E =EIQU]1%%=1E =EIQU]1%%=1E =EIQU]1%%=1E =EIQU]1%%=1E =EIQU]1%%=1E =EIQU]1%%=1E =EIQU]1%%=1E =EIQU]1%%=1E =EIQU]1%%=1E =EIQU]1%%=1E =LEIXQUd]1%%=1LE =LEIXQUd]1%%=1LE =;LEIGXQUSd]1%%=;1LE =;LEIGXQUSd]1%%=;1LE =;LEIGXQUSd]1%%=;1LE =;LEIGXQUSd]1%%=;1LE ;LEGXQSd]1%%;1LE ;LEGXQSd]1%%;1LE ;LEGXQSd]1%%;1LE ;LEGXQSd]1%%;1LE ;LEGXQSd]1%%;1LE ;LEGXQSd]1%%;1LE ;LEGXQSd]1%%;1LE ;LEGXQSd]1%%;1LE ;LEGXQSd]1%%;1LE ;LEGXQSd]1%%;1LE ;LEGXQSd]1%%;1LE ;LEGXQSd]1%%;1LE ;LEGXQSd]1%%;1LE ;LEGXQSd]1%%;1LE ;LEGXQSd]1%%;1LE ;LEGXQSd]1%%;1LE ;LEGXQSd]1%%;1LE ;LEGXQSd]1%%;1LE ;LEGXQSd]1%%;1LE ;LEGXQSd]1%%;1LE ;LEGXQSd]1%%;1LE ;LEGXQSd]1%%;1LE ;LEGXQSd]1%%;1LE ;LEGXQSd]1%%;1LE ;LEGXQSd]1%%;1LE ;LEGXQSd]1%%;1LE ;LEGXQSd]1%%;1LE ;LEGXQSd]1%%;1LE ;LEGXQSd]1%%;1LE ;LEGXQSd]1%%;1LE ;LEGXQSd]1%%;1LE ;LEGXQSd]1%%;1LE ;LEGXQSd]1%%;1LE ;LEGXQSd]1%%;1LE ;LEGXQSd]1%%;1LE ;LEGXQSd]1%%;1LE ;LEGXQSd]1%%;1LE ;LEGXQSd]1%%;1LE ;LEGXQSd]1%%;1LE ;LEGXQSd]1%%;1LE ;LEGXQSd]1%%;1LE ;LEGXQSd]1%%;1LE ;LEGXQSd]1%%;1LE ;LEGXQSd]1%%;1LE ;LEGXQSd]1%%;1LE ;LEGXQSd]1%%;1LE ;LEGXQSd]1%%;1LE ;LEGXQSd]1%%;1LE ;LEGXQSd]1%%;1LE ;LEGXQSd]1%%;1LE ;LEGXQSd]1%%;1LE ;9LEGEXQSQd]1%%;19LE ;9LEGEXQSQd]1%%;19LE ;9LEGEXQSQd]1%%;19LE ;9LEGEXQSQd]1%%;19LE ;9LEGEXQSQd]1%%;19LE ;9LEGEXQSQd]1%%;19LE 9LEEXQQd]1%%19LE 9LEEXQQd]1%%19LE 9LEEXQQd]1%%19LE 9LEEXQQd]1%%19LE 9LEEXQQd]1%%19LE 9LEEXQQd]1%%19LE 9LEEXQQd]9LE 9LEEXQQd]9LE 9LEEXQQd]9LE 9LEEXQQd]9LE 9LEEXQQd]9LE 9LEEXQQd]9LE 9LEEXQQd]9LE 9LEEXQQd]9LE 9LEEXQQd]9LE 9LEEXQQd]9LE 9LEEXQQd]9LE 9LEEXQQd]9LE 9LEEXQQd]9LE 9LEEXQQd]9LE 9LEEXQQd]9LE 9LEEXQQd]9LE 9LEEXQQd]9LE 9LEEXQQd]9LE 9LEEXQQd]9LE 9LEEXQQd]9LE 9LEEXQQd]9LE 9LEEXQQd]9LE 9LEEXQQd]9LE 9LEEXQQd]9LE 9LEEXQQd]9LE 9LEEXQQd]9LE 9LEEXQQd]9LE 9LEEXQQd]9LE 9LEEXQQd]9LE 9LEEXQQd]9LE 9LEEXQQd]9LE 9LEEXQQd]9LE 9LEEXQQd]9LE 9LEEXQQd]9LE 9LEEXQQd]9LE 9LEEXQQd]9LE 9LEEXQQd]9LE 9LEEXQQd]9LE 9LEEXQQd]9LE 9LEEXQQd]9LE LEXQd]LE LEXQd]LE LEXQd]LE LEXQd]LE LEXQd]LE LEXQd]LE LEXQd]LE LBEXNQdZ]LBE LBEXNQdZ]LBE LBEXNQdZ]2&&LB2E LBEXNQdZ]2&&LB2E LBEXNQdZ]2&&LB2E LBEXNQdZ]2&&LB2E LBEXNQdZ]2&&LB2E LBEXNQdZ]2&&LB2E BENQZ]2&&B2E BENQZ]2&&B2E BENQZ]2&&B2E BENQZ]2&&B2E BENQZ]2&&B2E BENQZ]2&&B2E BENQZ]2&&B2E BENQZ]2&&B2E BENQZ]2&&B2E BENQZ]2&&B2E BENQZ]2&&B2E BENQZ]2&&B2E BENQZ]2&&B2E BENQZ]2&&B2E BENQZ]2&&B2E BENQZ]2&&B2E BENQZ]2&&B2E BENQZ]2&&B2E BENQZ]2&&B2E BENQZ]2&&B2E BENQZ]2&&B2E BENQZ]2&&B2E BENQZ]2&&B2E BENQZ]2&&B2E BENQZ]2&&B2E BENQZ]2&&B2E BENQZ]2&&B2E BENQZ]2&&B2E BENQZ]2&&B2E BENQZ]2&&B2E BENQZ]2&&B2E BENQZ]2&&B2E BENQZ]2&&B2E BENQZ]2&&B2E BENQZ]2&&B2E BENQZ]2&&B2E BENQZ]2&&B2E BENQZ]2&&B2E BENQZ]2&&B2E BENQZ]2&&B2E BENQZ]2&&B2E BENQZ]2&&B2E BENQZ]2&&B2E BENQZ]2&&B2E BENQZ]2&&B2E BENQZ]2&&B2E BENQZ]2&&B2E BENQZ]2&&B2E BENQZ]2&&B2E BENQZ]2&&B2E BENQZ]2&&B2E BENQZ]2&&B2E BENQZ]2&&B2E BENQZ]2&&B2E BENQZ]2&&B2E BENQZ]2&&B2E BCENOQZ[]2&&BC2E CEOQ[]2&&C2E CEOQ[]2&&C2E CEOQ[]2&&C2E CLEOXQ[d]2&&CL2E CLEOXQ[d]2&&CL2E CLEOXQ[d]2&&CL2E CLEOXQ[d]2&&CL2E CLEOXQ[d]2&&CL2E CLEOXQ[d]2&&CL2E CLEOXQ[d]2&&CL2E CLEOXQ[d]2&&CL2E CLEOXQ[d]2&&CL2E CLEOXQ[d]2&&CL2E CLEOXQ[d]2&&CL2E CLEOXQ[d]2&&CL2E CLEOXQ[d]2&&CL2E CLEOXQ[d]2&&CL2E CLEOXQ[d]2&&CL2E CLEOXQ[d]2&&CL2E CLEOXQ[d]2&&CL2E CLEOXQ[d]2&&CL2E CLEOXQ[d]2&&CL2E CLEOXQ[d]2&&CL2E CLEOXQ[d]2&&CL2E CLEOXQ[d]2&&CL2E CLEOXQ[d]2&&CL2E CLEOXQ[d]2&&CL2E CLEOXQ[d]2&&CL2E CLEOXQ[d]2&&CL2E CLEOXQ[d]2&&CL2E CLEOXQ[d]2&&CL2E CLEOXQ[d]2&&CL2E CLEOXQ[d]2&&CL2E CLEOXQ[d]2&&CL2E CLEOXQ[d]2&&CL2E CLEOXQ[d]2&&CL2E CLEOXQ[d]2&&CL2E CLEOXQ[d]2&&CL2E CLEOXQ[d]2&&CL2E CLEOXQ[d]2&&CL2E CLEOXQ[d]2&&CL2E CLEOXQ[d]2&&CL2E CLEOXQ[d]2&&CL2E CLEOXQ[d]2&&CL2E CLEOXQ[d]2&&CL2E CLEOXQ[d]2&&CL2E CLEOXQ[d]2&&CL2E CLEOXQ[d]2&&CL2E CLEOXQ[d]2&&CL2E CLEOXQ[d]2&&CL2E CLEOXQ[d]2&&CL2E CLEOXQ[d]2&&CL2E CLEOXQ[d]2&&CL2E CLEOXQ[d]2&&CL2E CLBEOXNQ[dZ]2&&CLB2E CLBEOXNQ[dZ]2&&CLB2E CLBEOXNQ[dZ]2&&CLB2E CLBEOXNQ[dZ]2&&CLB2E CLBEOXNQ[dZ]2&&CLB2E LBEXNQdZ]2&&LB2E LBJEXNVQdZb]2&&LBJ2E LBJEXNVQdZb]2&&LBJ2E LBJEXNVQdZb]2&&LBJ2E LBJEXNVQdZb]2&&LBJ2E BJENVQZb]2&&BJ2E BJENVQZb]2&&BJ2E BJENVQZb]2&&BJ2E BJENVQZb]2&&BJ2E BJENVQZb]2&&BJ2E BJENVQZb]2&&BJ2E BJENVQZb]2&&BJ2E BJENVQZb]2&&BJ2E BJENVQZb]2&&BJ2E BJENVQZb]2&&BJ2E BJENVQZb]2&&BJ2E BJENVQZb]2&&BJ2E BJENVQZb]2&&BJ2E BJENVQZb]2&&BJ2E BJENVQZb]2&&BJ2E BJENVQZb]2&&BJ2E BJENVQZb]2&&BJ2E BJENVQZb]2&&BJ2E BJENVQZb]2&&BJ2E BJENVQZb]2&&BJ2E BJENVQZb]2&&BJ2E BJENVQZb]2&&BJ2E BJENVQZb]2&&BJ2E BJENVQZb]2&&BJ2E BJENVQZb]2&&BJ2E BJENVQZb]2&&BJ2E BJENVQZb]2&&BJ2E BJENVQZb]2&&BJ2E BJENVQZb]2&&BJ2E BJENVQZb]2&&BJ2E BJENVQZb]2&&BJ2E BJENVQZb]2&&BJ2E BJENVQZb]2&&BJ2E BJENVQZb]2&&BJ2E BJENVQZb]2&&BJ2E BJENVQZb]2&&BJ2E BJENVQZb]2&&BJ2E BJENVQZb]2&&BJ2E BJENVQZb]2&&BJ2E BJENVQZb]2&&BJ2E BJENVQZb]2&&BJ2E BJENVQZb]2&&BJ2E BJENVQZb]2&&BJ2E BJENVQZb]2&&BJ2E BJ@ENVLQZbX]2&&BJ2@E BJ@ENVLQZbX]2&&BJ2@E J@EVLQbX]2&&J2@E J@EVLQbX]2&&J2@E J@EVLQbX]2&&J2@E J@EVLQbX]2&&J2@E J@EVLQbX]2&&J2@E J@EVLQbX]2&&J2@E J@EVLQbX]2&&J2@E J@IEVLUQbXa]2&&J2@IE J@IEVLUQbXa]2&&J2@IE J@IEVLUQbXa]2&&J2@IE J@IEVLUQbXa]2&&J2@IE @IELUQXa]2&&2@IE @IELUQXa]2&&2@IE @IELUQXa]2&&2@IE @IELUQXa]2&&2@IE @IELUQXa]2&&2@IE @IELUQXa]2&&2@IE @IELUQXa]2&&2@IE @IELUQXa]2&&2@IE @IELUQXa]2&&2@IE @IELUQXa]2&&2@IE @IELUQXa]2&&2@IE @IELUQXa]2&&2@IE @IELUQXa]2&&2@IE @IELUQXa]2&&2@IE @IELUQXa]2&&2@IE @IELUQXa]2&&2@IE @IELUQXa]2&&2@IE @IELUQXa]2&&2@IE @IELUQXa]2&&2@IE @IELUQXa]2&&2@IE @IELUQXa]2&&2@IE @IELUQXa]2&&2@IE @IELUQXa]2&&2@IE @IELUQXa]2&&2@IE @IELUQXa]2&&2@IE @IELUQXa]2&&2@IE @IELUQXa]2&&2@IE @IELUQXa]2&&2@IE @IELUQXa]2&&2@IE @IELUQXa]2&&2@IE @IELUQXa]2&&2@IE @IELUQXa]2&&2@IE @IELUQXa]2&&2@IE @IELUQXa]2&&2@IE @IELUQXa]2&&2@IE @IELUQXa]2&&2@IE @IELUQXa]2&&2@IE @IELUQXa]2&&2@IE @IELUQXa]@IE @IELUQXa]@IE @IELUQXa]@IE @IELUQXa]@IE @IELUQXa]@IE IEUQa]IE IEUQa]IE IEUQa]IE IE>UQJa]VIE> IE>UQJa]VIE> IE>UQJa]V/##IE>/ IE>UQJa]V/##IE>/ IE>UQJa]V/##IE>/ IE>UQJa]V/##IE>/ IE>UQJa]V/##IE>/ IE>UQJa]V/##IE>/ E>QJ]V/##E>/ E>QJ]V/##E>/ E>QJ]V/##E>/ E>QJ]V/##E>/ E>QJ]V/##E>/ E>JQJV]Vb/##E>/J E>JQJV]Vb/##E>/J E>JQJV]Vb/##E>/J E>JQJV]Vb/##E>/J E>JQJV]Vb/##E>/J >JJVVb/##>/J >JJVVb/##>/J >JJVVb/##>/J >JJVVb/##>/J >JJVVb/##>/J >JJVVb/##>/J >JJVVb/##>/J >JJVVb/##>/J >JJVVb/##>/J >JJVVb/##>/J >JJVVb/##>/J >JJVVb/##>/J >JJVVb/##>/J >JJVVb/##>/J >JJVVb/##>/J >JJVVb/##>/J >JJVVb/##>/J >JJVVb/##>/J >JJVVb/##>/J >JJVVb/##>/J >JJVVb/##>/J >JJVVb/##>/J >JJVVb/##>/J >JJVVb/##>/J >JJVVb/##>/J >JJVVb/##>/J >JJVVb/##>/J >JJVVb/##>/J >JJVVb/##>/J >JJVVb/##>/J >JJVVb/##>/J >JJVVb/##>/J >JJVVb/##>/J >JJVVb/##>/J >JJVVb/##>/J >JJVVb/##>/J >JJVVb/##>/J >JJVVb/##>/J >JJVVb/##>/J >JJVVb/##>/J >JJVVb/##>/J >JJVVb/##>/J >JJVVb/##>/J >JJVVb/##>/J >JJVVb/##>/J >JJVVb/##>/J >=JJIVVUb/##>=/J >=JJIVVUb/##>=/J =JIVUb/##=/J =JIVUb/##=/J =JIVUb/##=/J =JIVUb/##=/J =EJIQVU]b/##=E/J =EJIQVU]b/##=E/J =EJIQVU]b/##=E/J =EJIQVU]b/##=E/J =EJIQVU]b/##=E/J =EJIQVU]b/##=E/J =EJIQVU]b/##=E/J =EJIQVU]b/##=E/J =EJIQVU]b/##=E/J =EJIQVU]b/##=E/J =EJIQVU]b/##=E/J =EJIQVU]b/##=E/J =EJIQVU]b/##=E/J =EJIQVU]b/##=E/J =EJIQVU]b/##=E/J =EJIQVU]b/##=E/J =EJIQVU]b/##=E/J =EJIQVU]b/##=E/J =EJIQVU]b/##=E/J =EJIQVU]b/##=E/J =EJIQVU]b/##=E/J =EJIQVU]b/##=E/J =EJIQVU]b/##=E/J =EJIQVU]b/##=E/J =EJIQVU]b/##=E/J =EJIQVU]b/##=E/J =EJIQVU]b/##=E/J =EJIQVU]b/##=E/J =EJIQVU]b/##=E/J =EJIQVU]b/##=E/J =EJIQVU]b/##=E/J =EJIQVU]b/##=E/J =EJIQVU]b/##=E/J =EJIQVU]b/##=E/J =EJIQVU]b/##=E/J =EJIQVU]b/##=E/J =EJIQVU]b/##=E/J =EJIQVU]b/##=E/J =EJIQVU]b/##=E/J =EJIQVU]b/##=E/J =EJIQVU]b/##=E/J =EJIQVU]b/##=E/J =EJIQVU]b/##=E/J =EJIQVU]b/##=E/J =EJIQVU]b/##=E/J =EJIQVU]b/##=E/J =EJIQVU]b/##=E/J =EJIQVU]b/##=E/J =EJIQVU]b/##=E/J =EJIQVU]b/##=E/J =E;JIQGVU]Sb/##=E;/J E;JQGV]Sb/##E;/J E;JQGV]Sb/##E;/J E;JQGV]Sb/##E;/J E;JQGV]Sb/##E;/J E;JQGV]Sb/##E;/J E;JQGV]Sb/##E;/J E;JQGV]Sb/##E;/J ED;JQPGV]\Sb/##ED;/J ED;JQPGV]\Sb/##ED;/J ED;JQPGV]\Sb/##ED;/J ED;JQPGV]\Sb/##ED;/J ED;JQPGV]\Sb/##ED;/J ED;JQPGV]\Sb/##ED;/J ED;JQPGV]\Sb/##ED;/J ED;JQPGV]\Sb/##ED;/J ED;JQPGV]\Sb/##ED;/J D;JPGV\Sb/##D;/J D;JPGV\Sb/##D;/J D;JPGV\Sb/##D;/J D;JPGV\Sb/##D;/J D;JPGV\Sb/##D;/J D;JPGV\Sb/##D;/J D;JPGV\Sb/##D;/J D;JPGV\Sb/##D;/J D;JPGV\Sb/##D;/J D;JPGV\Sb/##D;/J D;JPGV\Sb/##D;/J D;JPGV\Sb/##D;/J D;JPGV\Sb/##D;/J D;JPGV\Sb/##D;/J D;JPGV\Sb/##D;/J D;JPGV\Sb/##D;/J D;JPGV\Sb/##D;/J D;JPGV\Sb/##D;/J D;JPGV\Sb/##D;/J D;JPGV\Sb/##D;/J D;JPGV\Sb/##D;/J D;JPGV\Sb/##D;/J D;JPGV\Sb/##D;/J D;JPGV\Sb/##D;/J D;JPGV\Sb/##D;/J D;JPGV\Sb/##D;/J D;JPGV\Sb/##D;/J D;JPGV\Sb/##D;/J D;JPGV\Sb/##D;/J D;JPGV\Sb/##D;/J D;JPGV\Sb/##D;/J D;JPGV\Sb/##D;/J D;JPGV\Sb/##D;/J D;JPGV\Sb/##D;/J D;JPGV\Sb/##D;/J D;JPGV\Sb/##D;/J D;JPGV\Sb/##D;/J D;JPGV\Sb/##D;/J D;JPGV\Sb/##D;/J D;JPGV\Sb/##D;/J D;JPGV\Sb/##D;/J D;JPGV\Sb/##D;/J D;JPGV\Sb/##D;/J D;JPGV\Sb/##D;/J D;JPGV\Sb/##D;/J ;9JGEVSQb/##;9/J ;9JGEVSQb/##;9/J ;9JGEVSQb/##;9/J ;9EJGEQVSQ]b/##;9E/J ;9EJGEQVSQ]b/##;9E/J 9EJEQVQ]b/##9E/J 9EJEQVQ]b/##9E/J 9EJEQVQ]b/##9E/J 9EJEQVQ]b/##9E/J 9EJEQVQ]b/##9E/J 9EJEQVQ]b/##9E/J 9EJEQVQ]b/##9E/J 9EJEQVQ]b/##9E/J 9EJEQVQ]b/##9E/J 9EJEQVQ]b/##9E/J 9EJEQVQ]b/##9E/J 9EJEQVQ]b/##9E/J 9EJEQVQ]b/##9E/J 9EJEQVQ]b/##9E/J 9EJEQVQ]b/##9E/J 9EJEQVQ]b/##9E/J 9EJEQVQ]b/##9E/J 9EJEQVQ]b/##9E/J 9EJEQVQ]b/##9E/J 9EJEQVQ]b/##9E/J 9EJEQVQ]b/##9E/J 9EJEQVQ]b/##9E/J 9EJEQVQ]b/##9E/J 9EJEQVQ]b/##9E/J 9EJEQVQ]b/##9E/J 9EJEQVQ]b/##9E/J 9EJEQVQ]b/##9E/J 9EJEQVQ]b/##9E/J 9EJEQVQ]b/##9E/J 9EJEQVQ]b/##9E/J 9EJEQVQ]b/##9E/J 9EJEQVQ]b/##9E/J 9EJEQVQ]b/##9E/J 9EJEQVQ]b/##9E/J 9EJEQVQ]b/##9E/J 9EJEQVQ]b/##9E/J 9EJEQVQ]b/##9E/J 9EJEQVQ]b/##9E/J 9EJEQVQ]b/##9E/J 9EJEQVQ]b/##9E/J 9EJEQVQ]b/##9E/J 9EJEQVQ]b/##9E/J 9EJEQVQ]b/##9E/J 9EJEQVQ]b/##9E/J 9EJEQVQ]b/##9E/J 9EJEQVQ]b/##9E/J 9EJEQVQ]b/##9E/J 9EJEQVQ]b/##9E/J 9EJEQVQ]b/##9E/J 9EJEQVQ]b/##9E/J 9EJEQVQ]b/##9E/J 9EJEQVQ]b/##9E/J EJQV]b/##E/J E8GJQDSV]P_b/##E8G/J 8GJDSVP_b/##8G/J 8GJDSVP_b/##8G/J 8GJDSVP_b/##8G/J 8GJDSVP_b/##8G/J 8GJDSVP_b/##8G/J 8GJDSVP_b/##8G/J 8GJDSVP_b/##8G/J 8GJDSVP_b/##8G/J 8GJDSVP_b/##8G/J 8GJDSVP_b/##8G/J 8GJDSVP_b/##8G/J 8GJDSVP_b/##8G/J 8GJDSVP_b/##8G/J 8GJDSVP_b/##8G/J 8GJDSVP_b/##8G/J 8GJDSVP_b/##8G/J 8GJDSVP_b/##8G/J 8GJDSVP_b/##8G/J 8GJDSVP_b/##8G/J 8GJDSVP_b/##8G/J 8GJDSVP_b/##8G/J 8GJDSVP_b/##8G/J 8GJDSVP_b/##8G/J 8GJDSVP_b/##8G/J 8GJDSVP_b/##8G/J 8GJDSVP_b/##8G/J 8GJDSVP_b/##8G/J 8GJDSVP_b/##8G/J 8GJDSVP_b/##8G/J 8GJDSVP_b/##8G/J 8GJDSVP_b/##8G/J 8GJDSVP_b/##8G/J 8GJDSVP_b/##8G/J 8GJDSVP_b/##8G/J 8GJDSVP_b/##8G/J 8GJDSVP_b/##8G/J 8GJDSVP_b/##8G/J 8GJDSVP_b/##8G/J 8GJDSVP_b/##8G/J 8GJDSVP_b/##8G/J 8GJDSVP_b/##8G/J 8GJDSVP_b/##8G/J 8GJDSVP_b/##8G/J 8GJDSVP_b/##8G/J 8GJDSVP_b/##8G/J 8GJDSVP_b/##8G/J 8GJDSVP_b/##8G/J 8GJDSVP_b/##8G/J 8GJDSVP_b/##8G/J 8GJDSVP_b/##8G/J 8GJDSVP_b/##8G/J 8GJDSVP_b/##8G/J 8GJDSVP_b/##8G/J GJSV_b/##G/J GJSV_b/##G/J GJSV_b/##G/J G;JSGV_Sb/##G;/J G;JSGV_Sb/##G;/J G;JSGV_Sb/##G;/J G;JSGV_Sb/##G;/J G;JSGV_Sb/##G;/J G;DJSGPV_S\b/##G;D/J G;DJSGPV_S\b/##G;D/J G;DJSGPV_S\b/##G;D/J G;DJSGPV_S\b/##G;D/J ;DJGPVS\b/##;D/J ;DJGPVS\b/##;D/J ;DJGPVS\b/##;D/J ;DJGPVS\b/##;D/J ;DJGPVS\b/##;D/J ;DJGPVS\b/##;D/J ;DJGPVS\b/##;D/J ;DJGPVS\b/##;D/J ;DJGPVS\b/##;D/J ;DJGPVS\b/##;D/J ;DJGPVS\b/##;D/J ;DJGPVS\b/##;D/J ;DJGPVS\b/##;D/J ;DJGPVS\b/##;D/J ;DJGPVS\b/##;D/J ;DJGPVS\b/##;D/J ;DJGPVS\b/##;D/J ;DJGPVS\b/##;D/J ;DJGPVS\b/##;D/J ;DJGPVS\b/##;D/J ;DJGPVS\b/##;D/J ;DJGPVS\b/##;D/J ;DJGPVS\b/##;D/J ;DJGPVS\b/##;D/J ;DJGPVS\b/##;D/J ;DJGPVS\b/##;D/J ;DJGPVS\b/##;D/J ;DJGPVS\b/##;D/J ;DJGPVS\b/##;D/J ;DJGPVS\b/##;D/J ;DJGPVS\b/##;D/J ;DJGPVS\b/##;D/J ;DJGPVS\b/##;D/J ;DJGPVS\b/##;D/J ;DJGPVS\b/##;D/J ;DJGPVS\b/##;D/J ;DJGPVS\b/##;D/J ;DJGPVS\b/##;D/J ;DJGPVS\b/##;D/J ;DJGPVS\b/##;D/J ;DJGPVS\b/##;D/J ;DJGPVS\b/##;D/J ;DJGPVS\b/##;D/J ;DJGPVS\b/##;D/J ;DJGPVS\b/##;D/J ;DJGPVS\b/##;D/J ;DJGPVS\b/##;D/J ;DJGPVS\b/##;D/J ;D9JGPEVS\Qb/##;D9/J ;D9JGPEVS\Qb/##;D9/J ;D9JGPEVS\Qb/##;D9/J ;D9JGPEVS\Qb/##;D9/J ;D9JGPEVS\Qb/##;D9/J D9JPEV\Qb/##D9/J D9JPEV\Qb/##D9/J D9EJPEQV\Q]b/##D9E/J D9EJPEQV\Q]b/##D9E/J 9EJEQVQ]b/##9E/J 9EJEQVQ]b/##9E/J 9EJEQVQ]b/##9E/J 9EJEQVQ]b/##9E/J 9EJEQVQ]b/##9E/J 9EJEQVQ]b/##9E/J 9EJEQVQ]b/##9E/J 9EJEQVQ]b/##9E/J 9EJEQVQ]b/##9E/J 9EJEQVQ]b/##9E/J 9EJEQVQ]b/##9E/J 9EJEQVQ]b/##9E/J 9EJEQVQ]b/##9E/J 9EJEQVQ]b/##9E/J 9EJEQVQ]b/##9E/J 9EJEQVQ]b/##9E/J 9EJEQVQ]b/##9E/J 9EJEQVQ]b/##9E/J 9EJEQVQ]b/##9E/J 9EJEQVQ]b/##9E/J 9EJEQVQ]b/##9E/J 9EJEQVQ]b/##9E/J 9EJEQVQ]b/##9E/J 9EJEQVQ]b/##9E/J 9EJEQVQ]b/##9E/J 9EJEQVQ]b/##9E/J 9EJEQVQ]b/##9E/J 9EJEQVQ]b/##9E/J 9EJEQVQ]b/##9E/J 9EJEQVQ]b/##9E/J 9EJEQVQ]b/##9E/J 9EJEQVQ]b/##9E/J 9EJEQVQ]b/##9E/J 9EJEQVQ]b/##9E/J 9EJEQVQ]b/##9E/J 9EJEQVQ]b/##9E/J 9EJEQVQ]b/##9E/J 9EJEQVQ]b/##9E/J 9EJEQVQ]b/##9E/J 9EJEQVQ]b/##9E/J 9EJEQVQ]b/##9E/J 9EJEQVQ]b/##9E/J 9EJEQVQ]b/##9E/J 9EJEQVQ]b/##9E/J 9EJEQVQ]b/##9E/J 9EJEQVQ]b/##9E/J 9EJEQVQ]b/##9E/J 9EJEQVQ]b/##9E/J 9EJEQVQ]b/##9E/J EJQV]b/##E/J E8JQDV]Pb/##E/8J G8JSDV_Pb/##/G8J G8JSDV_Pb/##/G8J G8JSDV_Pb/##/G8J G8JSDV_Pb/##/G8J G8JSDV_Pb/##/G8J G8JSDV_Pb/##/G8J G8JSDV_Pb/##/G8J G8JSDV_Pb/##/G8J G8JSDV_Pb/##/G8J G8JSDV_Pb/##/G8J G8JSDV_Pb/##/G8J G8JSDV_Pb/##/G8J G8JSDV_Pb/##/G8J G8JSDV_Pb/##/G8J G8JSDV_Pb/##/G8J G8JSDV_Pb/##/G8J G8JSDV_PbG8J G8JSDV_PbG8J G8JSDV_PbG8J G8JSDV_PbG8J 8JDVPb8J 8JDVPb8J 8JDVPb8J 8JDVPb8J 8JDVPb8J 8JDVPb8J 8JDVPb8J 8JDVPb8J 8JDVPb8J 8JDVPb8J 8JDVPb8J 8JDVPb8J 8JDVPb8J 8JDVPb8J 8JDVPb8J 8JDVPb8J 8JDVPb8J 8JDVPb8J 8JDVPb8J 8JDVPb8J 8JDVPb8J 8JDVPb8J 8JDVPb8J 8JDVPb8J 8JDVPb8J 8JDVPb8J 8JDVPb8J 8JDVPb8J 8JDVPb8J 8JDVPb8J 8JDVPb8J JVbJ JVbJ JVbJ JVbJ J9VEbQJ9 J9VEbQ-!!J9 J9VEbQ-!!J9 J9VEbQ-!!J9 J9VEbQ-!!J9 J9VEbQ-!!J9 J9VEbQ-!!J9 J9VEbQ-!!J9 J9VEbQ-!!J9 J9VEbQ-!!J9 J9VEbQ-!!J9 J9IVEUbQa-!!J9I J9IVEUbQa-!!J9I J9I@VEULbQaX-!!J9I@ J9I@VEULbQaX-!!J9I@ 9I@EULQaX-!!9I@ 9I@EULQaX-!!9I@ 9I@EULQaX-!!9I@ 9I@EULQaX-!!9I@ 9I@EULQaX-!!9I@ 9I@EULQaX-!!9I@ 9I@EULQaX-!!9I@ 9I@EULQaX-!!9I@ 9I@EULQaX-!!9I@ 9I@EULQaX-!!9I@ 9I@EULQaX-!!9I@ 9I@EULQaX-!!9I@ 9I@EULQaX-!!9I@ 9I@EULQaX-!!9I@ I@ULaX-!!I@ I@ULaX-!!I@ I@ULaX-!!I@ I@ULaX-!!I@ I@ULaX-!!I@ I@ULaX-!!I@ I@ULaX-!!I@ I@ULaX-!!I@ I@ULaX-!!I@ I@ULaX-!!I@ I@ULaX-!!I@ I@ULaX-!!I@ I@ULaX-!!I@ I@ULaX-!!I@ I@ULaX-!!I@ I@ULaX-!!I@ I@ULaX-!!I@ I@ULaX-!!I@ I@ULaX-!!I@ I@ULaX-!!I@ I@ULaX-!!I@ I@ULaX-!!I@ I@ULaX-!!I@ I@ULaX-!!I@ I@ULaX-!!I@ I@ULaX-!!I@ I@ULaX-!!I@ I@ULaX-!!I@ I@ULaX-!!I@ I@ULaX-!!I@ I@ULaX-!!I@ I@ULaX-!!I@ -I@9ULEaX-!!-I@ -I@9ULEaX-!!-I@ -I@9ULEaX-!!-I@ -I@9ULEaX-!!-I@ -I@9ULEaX-!!-I@ -I@9ULEaX-!!-I@ -I@9ULEaX-!!-I@ -I@9ULEaX-!!-I@ -I@9ULEaX-!!-I@ -I@9ULEaX-!!-I@ -I@9ULEaX-!!-I@ -I@9ULEaX-!!-I@ -I@9ULEaX-!!-I@ -I@9ULEaX-!!-I@ -I@9ULEaX-!!-I@ -I@9ULEaX-!!-I@ -I@9ULEaX-!!-I@ -I@9ULEaX-!!-I@ -I@9ULEaX-!!-I@ -I@9ULEaX-!!-I@ -I@9ULEaX-!!-I@ -I@9ULEaX-!!-I@ -I@9ULEaX-!!-I@ -I@9ULEaX-!!-I@ -I@9ULEaX-!!-I@ -I@9ULEaX-!!-I@ -I@9ULEaX-!!-I@ -I@9ULEaX-!!-I@ -I@9ULEaX-!!-I@ -I@9ULEaX-!!-I@ -I@9ULEaX-!!-I@ -I@9ULEaX-!!-I@ -I@9ULEaX-!!-I@ -I@9ULEaX-!!-I@ -I@9ULEaX-!!-I@ -I@9ULEaX-!!-I@ -I@9ULEaX-!!-I@ -I@9ULEaX-!!-I@ -I@9ULEaX-!!-I@ -I@9ULEaX-!!-I@ -I@9ULEaX-!!-I@ -I@9ULEaX-!!-I@ -I@9ULEaX-!!-I@ -I@9ULEaX-!!-I@ -I@9ULEaX-!!-I@ -I@9ULEaX-!!-I@ -I@9ULEaX-!!-I@ -I@9ULEaX-!!-I@ -I@9ULEaX-!!-I@ -I@9ULEaX-!!-I@ -I@9ULEaX-!!-I@ -I@9ULEaX-!!-I@ -I@9ULEaX-!!-I@ -/I@9;ULEGaX-!!-/I@ -/I@9;ULEGaX-!!-/I@ -/I@9;ULEGaX-!!-/I@ -/I@9;ULEGaX-!!-/I@ -/I@9;ULEGaX-!!-/I@ -/I@9;ULEGaX-!!-/I@ -/I@9;ULEGaX-!!-/I@ -/I@9;ULEGaX-!!-/I@ -/I@9;ULEGaX-!!-/I@ -/I@9;ULEGaX-!!-/I@ -/I@9;ULEGaX-!!-/I@ -/I@9;ULEGaX-!!-/I@ -/I@9;ULEGaX-!!-/I@ /I@;ULGaX-!!/I@ /I@;ULGaX-!!/I@ /I@;ULGaX-!!/I@ /I@;ULGaX-!!/I@ /I@;ULGaX-!!/I@ /I@;ULGaX-!!/I@ /I@;ULGaX-!!/I@ /I@;ULGaX-!!/I@ /I@;ULGaX-!!/I@ /I@;ULGaX-!!/I@ /I@;ULGaX-!!/I@ /I@;ULGaX-!!/I@ /I@;ULGaX-!!/I@ /I@;ULGaX-!!/I@ /I@;ULGaX-!!/I@ /I@;ULGaX-!!/I@ /I@;ULGaX-!!/I@ /I@;ULGaX-!!/I@ /I@;ULGaX-!!/I@ /I@;ULGaX-!!/I@ /I@;ULGaX-!!/I@ /I@;ULGaX-!!/I@ /I@;ULGaX-!!/I@ /I@;ULGaX-!!/I@ /I@;ULGaX-!!/I@ /I@;ULGaX-!!/I@ /I@;ULGaX-!!/I@ /I@;ULGaX-!!/I@ /I@;ULGaX-!!/I@ /I@;ULGaX-!!/I@ /I@;ULGaX-!!/I@ /I@;ULGaX-!!/I@ /I@;ULGaX-!!/I@ /I@;ULGaX-!!/I@ /I@;ULGaX-!!/I@ /I@;ULGaX-!!/I@ /I@;ULGaX-!!/I@ /I@;ULGaX-!!/I@ /I@;ULGaX-!!/I@ /I@;ULGaX-!!/I@ /I@;ULGaX-!!/I@ /I@;ULGaX-!!/I@ /I@;ULGaX-!!/I@ /I@;ULGaX-!!/I@ /I@;ULGaX-!!/I@ /1I@;=ULGIaX-!!/1I@ /1I@;=ULGIaX-!!/1I@ 1I@=ULIaX-!!1I@ 1I@=ULIaX-!!1I@ 1I@=ULIaX-!!1I@ 1I@=ULIaX-!!1I@ 1I@=ULIaX-!!1I@ 1I@=ULIaX-!!1I@ 1I@=ULIaX-!!1I@ 1I@=ULIaX-!!1I@ 1I@=ULIaX-!!1I@ 1I@=ULIaX-!!1I@ 1I@=ULIaX-!!1I@ 1I@=ULIaX-!!1I@ 1I@=ULIaX-!!1I@ 1I@=ULIaX-!!1I@ 1I@=ULIaX-!!1I@ 1I@=ULIaX-!!1I@ 1I@=ULIaX-!!1I@ 1I@=ULIaX-!!1I@ 1I@=ULIaX-!!1I@ 1I@=ULIaX-!!1I@ 1I@=ULIaX-!!1I@ 1I@=ULIaX-!!1I@ 1I@=ULIaX-!!1I@ 1I@=ULIaX-!!1I@ 1I@=ULIaX-!!1I@ 1I@=ULIaX-!!1I@ 1I@=ULIaX-!!1I@ 1I@=ULIaX-!!1I@ 1I@=ULIaX-!!1I@ 1I@=ULIaX-!!1I@ 1I@=ULIaX-!!1I@ 1I@=ULIaX-!!1I@ 1I@=ULIaX-!!1I@ 1I@=ULIaX-!!1I@ 1I@=ULIaX-!!1I@ 1I@=ULIaX-!!1I@ 1I@=ULIaX-!!1I@ 1I@=ULIaX-!!1I@ 1I@=ULIaX-!!1I@ 1I@=ULIaX-!!1I@ 1I@=ULIaX-!!1I@ 1I@=ULIaX-!!1I@ 1I@=ULIaX-!!1I@ 1I@=ULIaX-!!1I@ 1I@=ULIaX-!!1I@ 1I@=ULIaX-!!1I@ 1I@=ULIaX-!!1I@ 1I@=ULIaX-!!1I@ 1I@=ULIaX-!!1I@ 1I@=ULIaX-!!1I@ 1I@=ULIaX-!!1I@ 1I@=ULIaX-!!1I@ 1I@=ULIaX-!!1I@ 1I@=ULIaX-!!1I@ 1I@=ULIaX-!!1I@ 1I@=ULIaX-!!1I@ 1I@=ULIaX-!!1I@ I@ULaX-!!I@ I@ULaX-!!I@ I@2UL>aXJ-!!I@2 I@2UL>aXJ-!!I@2 I@2UL>aXJ-!!I@2 I@2UL>aXJ-!!I@2 I@2UL>aXJ-!!I@2 I@2UL>aXJ-!!I@2 I@2UL>aXJ-!!I@2 I@2UL>aXJ-!!I@2 I@2UL>aXJ-!!I@2 I@2UL>aXJ-!!I@2 I@2UL>aXJ-!!I@2 I@2UL>aXJ-!!I@2 I@2UL>aXJ-!!I@2 I@2UL>aXJ-!!I@2 I@2UL>aXJ-!!I@2 2>J-!!2 2>J-!!2 2>J-!!2 2>J-!!2 2>J-!!2 2>J-!!2 2>J-!!2 2>J-!!2 2>J-!!2 2>J-!!2 2>J-!!2 2>J-!!2 2>J-!!2 2>J-!!2 2>J-!!2 2>J-!!2 2>J-!!2 2>J-!!2 2>J-!!2 2>J-!!2 2>J-!!2 2>J-!!2 2>J-!!2 2>J-!!2 2>J-!!2 2>J-!!2 2>J-!!2 2>J-!!2 2>J-!!2 2>J-!!2 2>J-!!2 2>J-!!2 2>J-!!2 2>J-!!2 2>J-!!2 2>J-!!2 2>J-!!2 2>J-!!2 2>J-!!2 2>J-!!2 2>J-!!2 2>J-!!2 2>J-!!2 2>J-!!2 2>J-!!2 2>J-!!2 2>J-!!2 2>J-!!2 2>J-!!2 2>J-!!2 2>J-!!2 2>J-!!2 2>J-!!2 24>@JL-!!24 24>@JL-!!24 4@L-!!4 4@L-!!4 4@L-!!4 4@L-!!4 4@L-!!4 4@L-!!4 4@L-!!4 4@L-!!4 4@L-!!4 4@L-!!4 4@L-!!4 4@L-!!4 4@L-!!4 4@L-!!4 4@L-!!4 4@L-!!4 4@L-!!4 4@L-!!4 4@L-!!4 4@L-!!4 4@L-!!4 4@L-!!4 4@L-!!4 4@L-!!4 4@L-!!4 4@L-!!4 4@L-!!4 4@L-!!4 4@L-!!4 4@L-!!4 4@L-!!4 4@L-!!4 4@L-!!4 4@L-!!4 4@L-!!4 4@L-!!4 4@L-!!4 4@L-!!4 4@L-!!4 4@L-!!4 4@L-!!4 4@L-!!4 4@L-!!4 4@L-!!4 4@L-!!4 4@L-!!4 4@L-!!4 4@L-!!4 4@L-!!4 4@L-!!4 4@L-!!4 4@L-!!4 4@L-!!4 4@L-!!4 4@L-!!4 46@BLN-!!46 46@BLN-!!46 46@BLN-!!46 46@BLN-!!46 46@BLN-!!46 46@BLN-!!46 46@BLN-!!46 46@BLN-!!46 6BN-!!6 6BN-!!6 6BN-!!6 6BN-!!6 6BN-!!6 6BN-!!6 6BN-!!6 6BN-!!6 6BN-!!6 6BN-!!6 6BN-!!6 6BN-!!6 6BN-!!6 6BN-!!6 6BN-!!6 6BN-!!6 6BN-!!6 6BN-!!6 6BN-!!6 6BN-!!6 6BN-!!6 6BN-!!6 6BN-!!6 6BN-!!6 6BN-!!6 6BN-!!6 6BN-!!6 6BN-!!6 6BN-!!6 6BN-!!6 6BN-!!6 6BN-!!6 6BN-!!6 6BN-!!6 6BN-!!6 6BN-!!6 6BN-!!6 6BN-!!6 6BN-!!6 6BN-!!6 6BN-!!6 6BN-!!6 6BN-!!6 6BN-!!6 6BN-!!6 6BN-!!6 6BN-!!6 6BN-!!6 6BN-!!6 6BN-!!6 -!! -!! 7CO-!!7 7CO-!!7 7CO-!!7 7CO-!!7 7CO-!!7 7CO-!!7 7CO-!!7 7CO-!!7 7CO-!!7 7CO-!!7 7CO-!!7 7CO-!!7 7CO-!!7 7CO-!!7 7CO-!!7 7CO-!!7 7CO-!!7 7CO-!!7 7CO-!!7 7CO-!!7 7CO-!!7 7CO-!!7 7CO-!!7 7CO-!!7 7CO-!!7 7CO-!!7 7CO-!!7 7CO-!!7 7CO-!!7 7CO-!!7 7CO-!!7 7CO-!!7 7CO-!!7 7CO-!!7 7CO-!!7 7CO-!!7 7CO-!!7 7CO-!!7 7CO-!!7 7CO-!!7 7CO-!!7 7CO-!!7 7CO-!!7 7CO-!!7 7CO-!!7 7CO-!!7 7CO-!!7 7CO-!!7 7CO-!!7 7CO-!!7 7CO-!!7 7CO-!!7 7CO-!!7 7CO-!!7 7CO-!!7 7CO-!!7 7CO-!!7 7CO-!!7 7CO-!!7 7CO-!!7 7CO-!!7 7CO-!!7 7CO-!!7 7CO-!!7 7CO-!!7 7CO-!!7 79CEOQ-!!79 79CEOQ-!!79 9EQ-!!9 9EQ-!!9 9EQ-!!9 9EQ-!!9 9EQ-!!9 9EQ-!!9 9EQ-!!9 9EQ-!!9 9EQ-!!9 9EQ-!!9 9EQ-!!9 9EQ-!!9 9EQ-!!9 9EQ-!!9 9EQ-!!9 9EQ-!!9 9EQ-!!9 9EQ-!!9 9EQ-!!9 9EQ-!!9 9EQ-!!9 9EQ-!!9 9EQ-!!9 9EQ-!!9 9EQ-!!9 9EQ-!!9 9EQ-!!9 9EQ-!!9 9EQ-!!9 9EQ-!!9 9EQ-!!9 9EQ-!!9 9EQ-!!9 9EQ-!!9 9EQ-!!9 9EQ-!!9 9EQ-!!9 9EQ-!!9 9EQ-!!9 9EQ-!!9 9EQ-!!9 9EQ-!!9 9EQ-!!9 9EQ-!!9 9EQ-!!9 9EQ-!!9 9EQ-!!9 9EQ-!!9 9EQ-!!9 9EQ-!!9 9EQ-!!9 9EQ-!!9 9EQ-!!9 9EQ-!!9 9EQ-!!9 9EQ-!!9 9EQ-!!9 9EQ-!!9 9EQ-!!9 9EQ-!!9 9EQ-!!9 9EQ-!!9 97ECQO-!!97 97ECQO-!!97 97ECQO-!!97 97ECQO-!!97 97ECQO-!!97 97ECQO-!!97 97ECQO-!!97 7CO-!!7 7CO-!!7 7CO-!!7 7CO-!!7 7CO-!!7 7CO-!!7 7CO-!!7 7CO-!!7 7CO-!!7 7CO-!!7 7CO-!!7 7CO-!!7 7CO-!!7 7CO-!!7 7CO-!!7 7CO-!!7 7CO-!!7 7CO-!!7 7CO-!!7 7CO-!!7 7CO-!!7 7CO-!!7 7CO-!!7 7CO-!!7 7CO-!!7 7CO-!!7 7CO-!!7 7CO-!!7 7CO-!!7 7CO-!!7 7CO-!!7 7CO-!!7 7CO-!!7 7CO-!!7 7CO-!!7 7CO-!!7 7CO-!!7 7CO-!!7 7CO-!!7 7CO-!!7 7CO-!!7 7CO-!!7 7CO-!!7 7CO-!!7 7CO-!!7 7CO-!!7 7CO-!!7 7CO-!!7 7CO-!!7 7CO-!!7 76CBON-!!76 76CBON-!!76 76CBON-!!76 76CBON-!!76 6BN-!!6 6BN-!!6 6BN-!!6 6BN-!!6 6BN-!!6 6BN-!!6 6BN-!!6 6BN-!!6 6BN-!!6 6BN-!!6 6BN-!!6 6BN-!!6 6BN-!!6 6BN-!!6 6BN-!!6 6BN-!!6 6BN-!!6 6BN-!!6 6BN-!!6 6BN-!!6 6BN-!!6 6BN-!!6 6BN-!!6 6BN-!!6 6BN-!!6 6BN-!!6 6BN-!!6 6BN-!!6 6BN-!!6 6BN-!!6 6BN-!!6 6BN-!!6 6BN-!!6 6BN-!!6 6BN-!!6 6BN-!!6 6BN-!!6 6BN-!!6 6BN-!!6 6BN-!!6 6BN-!!6 6BN-!!6 6BN-!!6 6BN-!!6 6BN-!!6 6BN-!!6 6BN-!!6 6BN-!!6 6BN-!!6 6BN-!!6 6BN-!!6 6BN-!!6 6BN-!!6 6BN-!!6 -!! -!! 4@L-!!4 4@L-!!4 4@L-!!4 4@L-!!4 4@L-!!4 4@L-!!4 4@L-!!4 4@L-!!4 4@L-!!4 4@L-!!4 4@L-!!4 4@L-!!4 4@L-!!4 4@L-!!4 4@L-!!4 4@L-!!4 4@L-!!4 4@L-!!4 4@L-!!4 4@L-!!4 4@L-!!4 4@L-!!4 4@L-!!4 4@L-!!4 4@L-!!4 4@L-!!4 4@L-!!4 4@L-!!4 4@L-!!4 4@L-!!4 4@L-!!4 4@L-!!4 4@L-!!4 4@L-!!4 4@L-!!4 4@L-!!4 4@L-!!4 4@L-!!4 4@L-!!4 4@L-!!4 4@L-!!4 4@L-!!4 4@L-!!4 4@L-!!4 4@L-!!4 4@L-!!4 4@L-!!4 4@L-!!4 4@L-!!4 4@L-!!4 4@L-!!4 4@L-!!4 4@L-!!4 4@L-!!4 4@L-!!4 4@L-!!4 4@L-!!4 4@L-!!4 4@L-!!4 4@L-!!4 4@L-!!4 4@L-!!4 4@L-!!4 4@L-!!4 4@L-!!4 4@L-!!4 4@L-!!4 4@L-!!4 46@BLN-!!46 46@BLN-!!46 46@BLN-!!46 46@BLN-!!46 46@BLN-!!46 46@BLN-!!46 46@BLN-!!46 46@BLN-!!46 46@BLN-!!46 46@BLN-!!46 6BN-!!6 6BN-!!6 6BN-!!6 6BN-!!6 6BN-!!6 6BN-!!6 6BN-!!6 6BN-!!6 6BN-!!6 6BN-!!6 6BN-!!6 6BN-!!6 6BN-!!6 6BN-!!6 6BN-!!6 6BN-!!6 6BN-!!6 6BN-!!6 6BN-!!6 6BN-!!6 6BN-!!6 6BN-!!6 6BN-!!6 6BN-!!6 6BN-!!6 6BN-!!6 6BN-!!6 6BN-!!6 6BN-!!6 6BN-!!6 6BN-!!6 6BN-!!6 6BN-!!6 6BN-!!6 6BN-!!6 6BN-!!6 6BN-!!6 6BN-!!6 6BN-!!6 6BN-!!6 6BN-!!6 6BN-!!6 6BN-!!6 6BN-!!6 6BN-!!6 6BN-!!6 6BN-!!6 6BN-!!6 6BN-!!6 6BN-!!6 6BN-!!6 6BN-!!6 6BN-!!6 6BN-!!6 6BN-!!6 6BN-!!6 6BN-!!6 6BN-!!6 6BN-!!6 6BN-!!6 6BN-!!6 J6VBbN-!!J6 J6VBbN-!!J6 J6VBbN-!!J6 J6VBbN-!!J6 J6VBbN-!!J6 J6VBbN-!!J6 J6VBbN-!!J6 J6VBbN-!!J6 J6VBbN-!!J6 J6VBbN-!!J6 J6VBbN-!!J6 J6VBbN-!!J6 J6VBbN-!!J6 J6VBbN-!!J6 J6VBbN-!!J6 J6VBbN-!!J6 J6VBbN-!!J6 J6VBbN-!!J6 J6VBbN-!!J6 J6VBbN-!!J6 J6VBbN-!!J6 J6VBbN-!!J6 J6VBbN-!!J6 J6VBbN-!!J6 J6VBbN-!!J6 J6VBbN-!!J6 J6VBbN-!!J6 J6VBbN-!!J6 J6VBbN-!!J6 J6VBbN-!!J6 J6VBbN-!!J6 J6VBbN-!!J6 J6VBbN-!!J6 J6VBbN-!!J6 J6VBbN-!!J6 J6VBbN-!!J6 J6VBbN-!!J6 J6VBbN-!!J6 J6VBbN-!!J6 J6VBbN-!!J6 J6VBbN-!!J6 J6VBbN-!!J6 J6VBbN-!!J6 J6VBbN-!!J6 J6VBbN-!!J6 J6VBbN-!!J6 J6VBbN-!!J6 J6VBbN-!!J6 J6VBbN-!!J6 J6VBbN-!!J6 J6VBbN-!!J6 J6VBbN-!!J6 J6VBbN-!!J6 J6VBbN-!!J6 J6VBbN-!!J6 J6VBbN-!!J6 J6VBbN-!!J6 J6VBbN-!!J6 JI6VUBbaN-!!JI6 JI6VUBbaN-!!JI6 JI6VUBbaN-!!JI6 JI6VUBbaN-!!JI6 JI6VUBbaN-!!JI6 I6UBaN-!!I6 I6UBaN-!!I6 I6UBaN-!!I6 I6UBaN-!!I6 I6UBaN-!!I6 I6UBaN-!!I6 I6UBaN-!!I6 I6UBaN-!!I6 I6UBaN-!!I6 I6UBaN-!!I6 I6UBaN-!!I6 I6UBaN-!!I6 I6UBaN-!!I6 I6UBaN-!!I6 I6UBaN-!!I6 I6UBaN-!!I6 I6UBaN-!!I6 I6UBaN-!!I6 I6UBaN-!!I6 I6UBaN-!!I6 I6UBaN-!!I6 I6UBaN-!!I6 I6UBaN-!!I6 I6UBaN-!!I6 I6UBaN-!!I6 I6UBaN-!!I6 I6UBaN-!!I6 I6UBaN-!!I6 I6UBaN-!!I6 I6UBaN-!!I6 I6UBaN-!!I6 I6UBaN-!!I6 I6UBaN-!!I6 I6UBaN-!!I6 I6UBaN-!!I6 I6UBaN-!!I6 I6UBaN-!!I6 I6UBaN-!!I6 I6UBaN-!!I6 I6UBaN-!!I6 I6UBaN-!!I6 I6UBaN-!!I6 I6UBaN-!!I6 I6UBaN-!!I6 I6UBaN-!!I6 I6UBaN-!!I6 I6UBaN-!!I6 I6UBaN-!!I6 I6UBaN-!!I6 I6UBaN-!!I6 I6UBaN-!!I6 I6UBaN-!!I6 I6UBaN-!!I6 I6UBaN-!!I6 I6UBaN-!!I6 I6UBaN-!!I6 IG6USBa_N-!!IG6 G6SB_N-!!G6 G6SB_N-!!G6 G6SB_N-!!G6 G6SB_N-!!G6 G6SB_N-!!G6 G6SB_N-!!G6 G6SB_N-!!G6 G6SB_N-!!G6 G6SB_N-!!G6 G6SB_N-!!G6 G6SB_N-!!G6 G6SB_N-!!G6 G6SB_N-!!G6 G6SB_N-!!G6 G6SB_N-!!G6 G6SB_N-!!G6 G6SB_N-!!G6 G6SB_N-!!G6 G6SB_N-!!G6 G6SB_N-!!G6 G6SB_N-!!G6 G6SB_N-!!G6 G6SB_N-!!G6 G6SB_N-!!G6 G6SB_N-!!G6 G6SB_N-!!G6 G6SB_N-!!G6 G6SB_N-!!G6 G6SB_N-!!G6 G6SB_N-!!G6 G6SB_N-!!G6 G6SB_N-!!G6 G6SB_N-!!G6 G6SB_N-!!G6 G6SB_N-!!G6 G6SB_N-!!G6 G6SB_N-!!G6 G6SB_N-!!G6 G6SB_N-!!G6 G6SB_N-!!G6 G6SB_N-!!G6 G6SB_N-!!G6 G6SB_N-!!G6 G6SB_N-!!G6 G6SB_N-!!G6 G6SB_N-!!G6 G6SB_N-!!G6 G6SB_N-!!G6 G6SB_N-!!G6 G6SB_N-!!G6 G6SB_N-!!G6 G6SB_N-!!G6 G6SB_N-!!G6 G6SB_N-!!G6 G6SB_N-!!G6 G6SB_N-!!G6 G6SB_N-!!G6 G6ESBQ_N]-!!G6E 6EBQN]-!!6E 6EBQN]-!!6E 6EBQN]-!!6E 6EBQN]-!!6E 6EBQN]-!!6E 6EBQN]-!!6E 6EBQN]-!!6E 6EBQN]-!!6E EQ]-!!E EQ]-!!E EQ]-!!E EQ]-!!E EQ]-!!E EQ]-!!E EQ]-!!E EQ]-!!E EQ]-!!E EQ]-!!E EQ]-!!E EQ]-!!E EQ]-!!E EQ]-!!E EQ]-!!E EQ]-!!E EQ]-!!E EQ]-!!E EQ]-!!E EQ]-!!E EQ]-!!E EQ]-!!E EQ]-!!E EQ]-!!E EQ]-!!E EQ]-!!E EQ]-!!E EQ]-!!E EQ]-!!E EQ]-!!E EQ]-!!E EQ]-!!E EQ]-!!E EQ]-!!E EQ]-!!E EQ]-!!E EQ]-!!E EQ]-!!E EQ]-!!E EQ]-!!E EQ]-!!E EQ]-!!E EQ]-!!E EQ]-!!E EQ]-!!E EQ]-!!E EQ]-!!E EQ]-!!E EQ]-!!E EQ]-!!E E4Q@]L-!!E4 E4Q@]L-!!E4 EC4QO@][L-!!EC4 C4O@[L-!!C4 C4O@[L-!!C4 C4O@[L-!!C4 C4O@[L-!!C4 C4O@[L-!!C4 C4O@[L-!!C4 C4O@[L-!!C4 C4O@[L-!!C4 C4O@[L-!!C4 C4O@[L-!!C4 C4O@[L-!!C4 C4O@[L-!!C4 C4O@[L-!!C4 C4O@[L-!!C4 C4O@[L-!!C4 C4O@[L-!!C4 C4O@[L-!!C4 C4O@[L-!!C4 C4O@[L-!!C4 C4O@[L-!!C4 C4O@[L-!!C4 C4O@[L-!!C4 C4O@[L-!!C4 C4O@[L-!!C4 C4O@[L-!!C4 C4O@[L-!!C4 C4O@[L-!!C4 C4O@[L-!!C4 C4O@[L-!!C4 C4O@[L-!!C4 C4O@[L-!!C4 C4O@[L-!!C4 C4O@[L-!!C4 C4O@[L-!!C4 C4O@[L-!!C4 C4O@[L-!!C4 C4O@[L-!!C4 C4O@[L-!!C4 C4O@[L-!!C4 C4O@[L-!!C4 C4O@[L-!!C4 C4O@[L-!!C4 C4O@[L-!!C4 C4O@[L-!!C4 C4O@[L-!!C4 C4O@[L-!!C4 C4O@[L-!!C4 C4O@[L-!!C4 C4O@[L-!!C4 C4O@[L-!!C4 C4O@[L-!!C4 C4O@[L-!!C4 C4O@[L-!!C4 C4O@[L-!!C4 C4O@[L-!!C4 C4BO@N[LZ-!!C4B C4BO@N[LZ-!!C4B C4BO@N[LZ-!!C4B 4B@NLZ-!!4B 4B2@N>LZJ-!!4B2 4B2@N>LZJ-!!4B2 4B2@N>LZJ-!!4B2 4B2@N>LZJ-!!4B2 4B2@N>LZJ-!!4B2 4B2@N>LZJ-!!4B2 4B2@N>LZJ-!!4B2 4B2@N>LZJ-!!4B2 B2N>ZJ-!!B2 B2N>ZJ-!!B2 B2N>ZJ-!!B2 B2N>ZJ-!!B2 B2N>ZJ-!!B2 B2N>ZJ-!!B2 B2N>ZJ-!!B2 B2N>ZJ-!!B2 B2N>ZJ-!!B2 B2N>ZJ-!!B2 B2N>ZJ-!!B2 B2N>ZJ-!!B2 B2N>ZJ-!!B2 B2N>ZJ-!!B2 B2N>ZJ-!!B2 B2N>ZJ-!!B2 B2N>ZJ-!!B2 B2N>ZJ-!!B2 B2N>ZJ-!!B2 B2N>ZJ-!!B2 B2N>ZJ-!!B2 B2N>ZJ-!!B2 B2N>ZJ-!!B2 B2N>ZJ-!!B2 B2N>ZJ-!!B2 B2N>ZJ-!!B2 B2N>ZJ-!!B2 B2N>ZJ-!!B2 B2N>ZJ-!!B2 B2N>ZJ-!!B2 B2N>ZJ-!!B2 B2N>ZJ-!!B2 B2N>ZJ-!!B2 B2N>ZJ-!!B2 B2N>ZJ-!!B2 B2N>ZJ-!!B2 B2N>ZJ-!!B2 B2N>ZJ-!!B2 B2N>ZJ-!!B2 B2N>ZJ-!!B2 B2N>ZJ-!!B2 B2N>ZJ-!!B2 B2N>ZJ-!!B2 B2N>ZJ-!!B2 B2N>ZJ-!!B2 B24N>@ZJL-!!B24 B24@N>@LZJLX-!!B24@ 24@>@LJLX-!!24@ 24@>@LJLX-!!24@ 24@>@LJLX-!!24@ 24@>@LJLX-!!24@ 24@>@LJLX-!!24@ 24@>@LJLX-!!24@ 24@>@LJLX-!!24@ 24@>@LJLX-!!24@ 24@>@LJLX-!!24@ 4@@LLX-!!4@ 4@@LLX-!!4@ 4@@LLX-!!4@ 4@@LLX-!!4@ 4@@LLX-!!4@ 4@@LLX-!!4@ 4@@LLX-!!4@ 4@@LLX-!!4@ 4@@LLX-!!4@ 4@@LLX-!!4@ 4@@LLX-!!4@ 4@@LLX-!!4@ 4@@LLX-!!4@ 4@@LLX-!!4@ 4@@LLX-!!4@ 4@@LLX-!!4@ 4@@LLX-!!4@ 4@@LLX-!!4@ 4@@LLX-!!4@ 4@@LLX-!!4@ 4@@LLX-!!4@ 4@@LLX-!!4@ 4@@LLX-!!4@ 4@@LLX-!!4@ 4@@LLX-!!4@ 4@@LLX-!!4@ 4@@LLX-!!4@ 4@@LLX-!!4@ 4@@LLX-!!4@ 4@@LLX-!!4@ 4@@LLX-!!4@ 4@@LLX-!!4@ 4@@LLX-!!4@ 4@@LLX-!!4@ 4@@LLX-!!4@ 4@@LLX-!!4@ 4@@LLX-!!4@ 4@@LLX-!!4@ 4@@LLX-!!4@ 4@@LLX-!!4@ 4@@LLX-!!4@ 4@@LLX-!!4@ 4@@LLX-!!4@ 4@@LLX-!!4@ 4@6@LBLXN-!!4@6 4@6@LBLXN-!!4@6 4@6@LBLXN-!!4@6 4@6@LBLXN-!!4@6 4@6@LBLXN-!!4@6 4@6@LBLXN-!!4@6 4@6>@LBJLXNV-!!4@6> 4@6>@LBJLXNV-!!4@6> 4@6>@LBJLXNV-!!4@6> 4@6>@LBJLXNV-!!4@6> @6>LBJXNV-!!@6> 6>BJNV-!!6> 6>BJNV-!!6> 6>BJNV-!!6> 6>BJNV-!!6> 6>BJNV-!!6> 6>BJNV-!!6> 6>BJNV-!!6> 6>BJNV-!!6> 6>BJNV-!!6> 6>BJNV-!!6> 6>BJNV-!!6> 6>BJNV-!!6> 6>BJNV-!!6> 6>BJNV-!!6> 6>BJNV-!!6> 6>BJNV-!!6> 6>BJNV-!!6> 6>BJNV-!!6> 6>BJNV-!!6> 6>BJNV-!!6> 6>BJNV-!!6> 6>BJNV-!!6> 6>BJNV-!!6> 6>BJNV-!!6> 6>BJNV-!!6> 6>BJNV-!!6> 6>BJNV-!!6> 6>BJNV-!!6> 6>BJNV-!!6> 6>BJNV-!!6> 6>BJNV-!!6> 6>BJNV-!!6> 6>BJNV-!!6> 6>BJNV-!!6> 6>BJNV-!!6> 6>BJNV-!!6> 6>BJNV-!!6> 6>BJNV-!!6> 6>BJNV-!!6> 6>BJNV-!!6> 6>BJNV-!!6> 6>BJNV-!!6> 6>BJNV-!!6> 6>BJNV-!!6> 6>BJNV-!!6> 6>BJNV-!!6> 6>BJNV-!!6> 6>BJNV-!!6> 6>BJNV-!!6> >9JEVQ-!!>9 >9JEVQ-!!>9 >9JEVQ-!!>9 >9JEVQ-!!>9 >9JEVQ-!!>9 >9JEVQ-!!>9 >9JEVQ-!!>9 >9JEVQ-!!>9 >9JEVQ-!!>9 >9JEVQ-!!>9 >9JEVQ-!!>9 >9BJENVQZ-!!>9B >9BJENVQZ-!!>9B >9BJENVQZ-!!>9B >9BJENVQZ-!!>9B >9BJENVQZ-!!>9B >9BJENVQZ-!!>9B >9BJENVQZ-!!>9B >9BJENVQZ-!!>9B >9BJENVQZ-!!>9B 9BENQZ-!!9B 9BENQZ-!!9B 9BENQZ-!!9B 9BENQZ-!!9B 9BENQZ-!!9B 9BENQZ-!!9B 9BENQZ-!!9B 9BENQZ-!!9B 9BENQZ-!!9B 9BENQZ-!!9B 9BENQZ-!!9B 9BENQZ-!!9B 9BENQZ-!!9B 9BENQZ-!!9B 9BENQZ-!!9B 9BENQZ-!!9B 9BENQZ-!!9B 9BENQZ-!!9B 9BENQZ-!!9B 9BENQZ-!!9B 9BENQZ-!!9B 9BENQZ-!!9B 9BENQZ-!!9B 9BENQZ-!!9B 9BENQZ-!!9B 9BENQZ-!!9B 9BENQZ-!!9B 9BENQZ-!!9B 9BENQZ-!!9B 9BENQZ-!!9B 9BENQZ-!!9B 9BENQZ-!!9B 9BENQZ-!!9B 9BENQZ-!!9B 9BENQZ-!!9B 9BENQZ-!!9B 9BENQZ-!!9B 9BENQZ-!!9B 9BENQZ-!!9B 9BENQZ-!!9B 9B7ENCQZO-!!9B7 9B7ENCQZO-!!9B7 9B7ENCQZO-!!9B7 9B7ENCQZO-!!9B7 B7NCZO-!!B7 B7NCZO-!!B7 B7NCZO-!!B7 7CO-!!7 7CO-!!7 7CO-!!7 7CO-!!7 7@CLOX-!!7@ 7@CLOX-!!7@ 7@CLOX-!!7@ 7@CLOX-!!7@ 7@CLOX-!!7@ 7@CLOX-!!7@ 7@CLOX-!!7@ 7@CLOX-!!7@ 7@CLOX-!!7@ 7@CLOX-!!7@ 7@CLOX-!!7@ 7@CLOX-!!7@ 7@CLOX-!!7@ 7@CLOX-!!7@ 7@CLOX-!!7@ 7@CLOX-!!7@ 7@CLOX-!!7@ 7@CLOX-!!7@ 7@CLOX-!!7@ 7@CLOX-!!7@ 7@CLOX-!!7@ 7@CLOX-!!7@ 7@CLOX-!!7@ 7@CLOX-!!7@ 7@CLOX-!!7@ 7@CLOX-!!7@ 7@CLOX-!!7@ 7@CLOX-!!7@ 7@CLOX-!!7@ 7@CLOX-!!7@ 7@CLOX-!!7@ 7@CLOX-!!7@ 7@CLOX-!!7@ 7@CLOX-!!7@ 7@CLOX-!!7@ 7@CLOX-!!7@ 7@CLOX-!!7@ 7@CLOX-!!7@ 7@CLOX-!!7@ 7@CLOX-!!7@ 7@CLOX-!!7@ 7@CLOX-!!7@ 7@CLOX-!!7@ 7@CLOX-!!7@ 7@CLOX-!!7@ 7@CLOX-!!7@ 7@CLOX-!!7@ 7@CLOX-!!7@ 7@CLOX-!!7@ 7@CLOX-!!7@ 7@CLOX-!!7@ 7@6CLBOXN-!!7@6 @6LBXN-!!@6 @6LBXN-!!@6 @6LBXN-!!@6 @6LBXN-!!@6 @6LBXN-!!@6 @6LBXN-!!@6 @6>LBJXNV-!!@6> 6>BJNV-!!6> 6>BJNV-!!6> 6>BJNV-!!6> 6>BJNV-!!6> 6>BJNV-!!6> 6>BJNV-!!6> 6>BJNV-!!6> 6>BJNV-!!6> 6>BJNV-!!6> 6>BJNV-!!6> 6>BJNV-!!6> 6>BJNV-!!6> 6>BJNV-!!6> 6>BJNV-!!6> 6>BJNV-!!6> 6>BJNV-!!6> 6>BJNV-!!6> 6>BJNV-!!6> 6>BJNV-!!6> 6>BJNV-!!6> 6>BJNV-!!6> 6>BJNV-!!6> 6>BJNV-!!6> 6>BJNV-!!6> 6>BJNV-!!6> 6>BJNV-!!6> 6>BJNV-!!6> 6>BJNV-!!6> 6>BJNV-!!6> 6>BJNV-!!6> 6>BJNV-!!6> 6>BJNV-!!6> 6>BJNV-!!6> 6>BJNV-!!6> 6>BJNV-!!6> 6>BJNV-!!6> 6>BJNV-!!6> 6>BJNV-!!6> 6>BJNV-!!6> 6>BJNV-!!6> 6>BJNV-!!6> 6>BJNV-!!6> 6>BJNV-!!6> 6>BJNV-!!6> 6>BJNV-!!6> 6>BJNV-!!6> 6>BJNV-!!6> 6>BJNV-!!6> 6>BJNV-!!6> >JV-!!> >JV-!!> >JV-!!> >JV-!!> -!! 4@L-!!4 4@L-!!4 4=@ILU-!!4= 4=@ILU-!!4= 4=@ILU-!!4= 4=@ILU-!!4= 4=@ILU-!!4= 4=@ILU-!!4= 4=@ILU-!!4= 4=@ILU-!!4= 4=@ILU-!!4= 4=@ILU-!!4= 4=@ILU-!!4= 4=@ILU-!!4= 4=@ILU-!!4= 4=@ILU-!!4= 4=@ILU-!!4= 4=@ILU-!!4= 4=@ILU-!!4= 4=@ILU-!!4= 4=@ILU-!!4= 4=@ILU-!!4= 4=@ILU-!!4= 4=@ILU-!!4= 4=@ILU-!!4= 4=@ILU-!!4= 4=@ILU-!!4= 4=@ILU-!!4= 4=@ILU-!!4= 4=@ILU-!!4= 4=@ILU-!!4= 4=@ILU-!!4= 4=@ILU-!!4= 4=@ILU-!!4= 4=@ILU-!!4= 4=@ILU-!!4= 4=@ILU-!!4= 4=@ILU-!!4= 4=@ILU-!!4= 4=@ILU-!!4= 4=@ILU-!!4= 4=@ILU-!!4= 4=@ILU-!!4= 4=@ILU-!!4= 4=@ILU-!!4= 4=@ILU-!!4= 4=@ILU-!!4= 4=@ILU-!!4= 4=@ILU-!!4= 4=@ILU-!!4= 4=@ILU-!!4= 4=@ILU-!!4= 4=@ILU-!!4= 4=@ILU-!!4= 4=@ILU-!!4= 4=@ILU-!!4= 4=@ILU-!!4= 4=@ILU-!!4= 4=@ILU-!!4= 4=@ILU-!!4= 4=@ILU-!!4= 4=@ILU-!!4= 4=@ILU-!!4= 4=@ILU-!!4= 4=@ILU-!!4= 4=@ILU-!!4= 4=@ILU-!!4= E4=Q@I]LU-!!E4= E4=Q@I]LU-!!E4= E4=Q@I]LU-!!E4= E4=Q@I]LU-!!E4= E4=Q@I]LU-!!E4= E4=Q@I]LU-!!E4= E4=Q@I]LU-!!E4= E4=Q@I]LU-!!E4= E4=Q@I]LU-!!E4= E4=Q@I]LU-!!E4= E4=Q@I]LU-!!E4= E4=Q@I]LU-!!E4= E4=Q@I]LU-!!E4= E4=Q@I]LU-!!E4= E4=Q@I]LU-!!E4= E4=Q@I]LU-!!E4= E4=Q@I]LU-!!E4= E4=Q@I]LU-!!E4= E4=Q@I]LU-!!E4= E4=Q@I]LU-!!E4= E4=Q@I]LU-!!E4= E4=Q@I]LU-!!E4= E4=Q@I]LU-!!E4= E4=Q@I]LU-!!E4= E4=Q@I]LU-!!E4= E4=Q@I]LU-!!E4= E4=Q@I]LU-!!E4= E4=Q@I]LU-!!E4= E4=Q@I]LU-!!E4= E4=Q@I]LU-!!E4= E4=Q@I]LU-!!E4= E4=Q@I]LU-!!E4= E4=Q@I]LU-!!E4= E4=Q@I]LU-!!E4= E4=Q@I]LU-!!E4= E4=Q@I]LU-!!E4= E4=Q@I]LU-!!E4= E4=Q@I]LU-!!E4= E4=Q@I]LU-!!E4= E4=Q@I]LU-!!E4= E4=Q@I]LU-!!E4= E4=Q@I]LU-!!E4= E4=Q@I]LU-!!E4= E4=Q@I]LU-!!E4= E4=Q@I]LU-!!E4= E4=Q@I]LU-!!E4= E4=Q@I]LU-!!E4= E4=Q@I]LU-!!E4= E4=Q@I]LU-!!E4= E4=Q@I]LU-!!E4= E4=Q@I]LU-!!E4= E4=Q@I]LU-!!E4= E4=Q@I]LU-!!E4= E4=Q@I]LU-!!E4= E4=Q@I]LU-!!E4= E4=Q@I]LU-!!E4= E4=Q@I]LU-!!E4= E4=Q@I]LU-!!E4= EG4=QS@I]_LU-!!EG4= EG4=QS@I]_LU-!!EG4= EG4=QS@I]_LU-!!EG4= EG4=QS@I]_LU-!!EG4= EG4=QS@I]_LU-!!EG4= EG4=QS@I]_LU-!!EG4= G4=S@I_LU-!!G4= G4=S@I_LU-!!G4= G4=S@I_LU-!!G4= G4=S@I_LU-!!G4= G4=S@I_LU-!!G4= G4=S@I_LU-!!G4= G4=S@I_LU-!!G4= G4=S@I_LU-!!G4= G4=S@I_LU-!!G4= G4=S@I_LU-!!G4= G4=S@I_LU-!!G4= G4=S@I_LU-!!G4= G4=S@I_LU-!!G4= G4=S@I_LU-!!G4= G4=S@I_LU-!!G4= G4=S@I_LU-!!G4= G4=S@I_LU-!!G4= G4=S@I_LU-!!G4= G4=S@I_LU-!!G4= G4=S@I_LU-!!G4= G4=S@I_LU-!!G4= G4=S@I_LU-!!G4= G4=S@I_LU-!!G4= G4=S@I_LU-!!G4= G4=S@I_LU-!!G4= G4=S@I_LU-!!G4= G4=S@I_LU-!!G4= G4=S@I_LU-!!G4= G4=S@I_LU-!!G4= G4=S@I_LU-!!G4= G4=S@I_LU-!!G4= G4=S@I_LU-!!G4= G4=S@I_LU-!!G4= G4=S@I_LU-!!G4= G4=S@I_LU-!!G4= G4=S@I_LU-!!G4= G4=S@I_LU-!!G4= G4=S@I_LU-!!G4= G4=S@I_LU-!!G4= G4=S@I_LU-!!G4= G4=S@I_LU-!!G4= G4=S@I_LU-!!G4= G4=S@I_LU-!!G4= G4=S@I_LU-!!G4= G4=S@I_LU-!!G4= G4=S@I_LU-!!G4= G4=S@I_LU-!!G4= G4=S@I_LU-!!G4= G4=S@I_LU-!!G4= G4=IS@IU_LUa-!!G4=I G4=IS@IU_LUa-!!G4=I G4=IS@IU_LUa-!!G4=I 4=I@IULUa-!!4=I 4=I@IULUa-!!4=I 4=I@IULUa-!!4=I 4=I@IULUa-!!4=I 4=I@IULUa-!!4=I 4=I@IULUa-!!4=I 4=I@IULUa-!!4=I 4=I@IULUa-!!4=I 4=I@IULUa-!!4=I 4=I@IULUa-!!4=I 4=I@IULUa-!!4=I 4=I@IULUa-!!4=I 4=I@IULUa-!!4=I 4=I@IULUa-!!4=I 4=I@IULUa-!!4=I 4=I@IULUa-!!4=I 4=I@IULUa-!!4=I 4=I@IULUa-!!4=I 4=I@IULUa-!!4=I 4=I@IULUa-!!4=I 4=I@IULUa-!!4=I 4=I@IULUa-!!4=I 4=I@IULUa-!!4=I 4=I@IULUa-!!4=I 4=I@IULUa-!!4=I 4=I@IULUa-!!4=I =IIUUa-!!=I =IIUUa-!!=I =IIUUa-!!=I =IIUUa-!!=I IUa-!!I IUa-!!I IUa-!!I IUa-!!I IUa-!!I IUa-!!I IUa-!!I IUa-!!I IUa-!!I IUa-!!I IUa-!!I IUa-!!I IUa-!!I IUa-!!I IUa-!!I IUa-!!I IUa-!!I IUa-!!I IUa-!!I IUa-!!I IUa-!!I IUa-!!I IUa-!!I IUa-!!I -!! -!! -!! JVb-!!J JVb-!!J JVb-!!J JVb-!!J JVb-!!J JVb-!!J JVb-!!J JVb-!!J JVb-!!J JVb-!!J JVb-!!J JVb-!!J JVb-!!J JVb-!!J JVb-!!J JVb-!!J JVb-!!J JVb-!!J JVb-!!J JVb-!!J JVb-!!J JVb-!!J JVb-!!J JVb-!!J JVb-!!J JVb-!!J JVb-!!J JVb-!!J JVb-!!J JVb-!!J JVb-!!J JVb-!!J JVb-!!J JVb-!!J JVb-!!J JVb-!!J JVb-!!J JVb-!!J JVb-!!J JVb-!!J JVb-!!J JVb-!!J JVb-!!J JVb-!!J JVb-!!J JVb-!!J JVb-!!J JVb-!!J JVb-!!J JVb-!!J JVb-!!J JVb-!!J JVb-!!J JVb-!!J JVb-!!J JGLVSXb_d-!!JLG JGLVSXb_d-!!JLG JGLVSXb_d-!!JLG JGLVSXb_d-!!JLG GLSX_d-!!LG GLSX_d-!!LG GLSX_d-!!LG GLSX_d-!!LG GLSX_d-!!LG GLSX_d-!!LG GLSX_d-!!LG GLSX_d-!!LG GLSX_d-!!LG GLSX_d-!!LG GLSX_d-!!LG GLSX_d-!!LG GLSX_d-!!LG GLSX_d-!!LG GLSX_d-!!LG GLSX_d-!!LG GLSX_d-!!LG GLSX_d-!!LG GLSX_d-!!LG GLSX_d-!!LG GLSX_d-!!LG GLSX_d-!!LG GLSX_d-!!LG GLSX_d-!!LG GLSX_d-!!LG GLSX_d-!!LG GLSX_d-!!LG GLSX_d-!!LG GLSX_d-!!LG GLSX_d-!!LG GLSX_d-!!LG GLSX_d-!!LG GLSX_d-!!LG GLSX_d-!!LG GLSX_d-!!LG GLSX_d-!!LG GLSX_d-!!LG GLSX_d-!!LG GLSX_d-!!LG GLSX_d-!!LG GLSX_d-!!LG GLSX_d-!!LG GLSX_d-!!LG GLSX_d-!!LG GLSX_d-!!LG GLSX_d-!!LG GLSX_d-!!LG GLSX_d-!!LG GLSX_d-!!LG GLSX_d-!!LG GLSX_d-!!LG GLSX_d-!!LG GLSX_d-!!LG GLNSXZ_df-!!LGN GLNSXZ_df-!!LGN GLNESXZQ_df]-!!LGNE GLNESXZQ_df]-!!LGNE GLNESXZQ_df]-!!LGNE GLNESXZQ_df]-!!LGNE GLNESXZQ_df]-!!LGNE GLNESXZQ_df]-!!LGNE NEZQf]-!!NE NEZQf]-!!NE NEZQf]-!!NE NEZQf]-!!NE NEZQf]-!!NE NEZQf]-!!NE NEZQf]-!!NE NEZQf]-!!NE NEZQf]-!!NE NEZQf]-!!NE NEZQf]-!!NE NEZQf]-!!NE NEZQf]-!!NE NEZQf]-!!NE NEZQf]-!!NE NEZQf]-!!NE NEZQf]-!!NE NEZQf]-!!NE NEZQf]-!!NE NEZQf]-!!NE NEZQf]-!!NE NEZQf]-!!NE NEZQf]-!!NE NEZQf]-!!NE NEZQf]-!!NE NEZQf]-!!NE NEZQf]-!!NE NEZQf]-!!NE NEZQf]-!!NE NEZQf]-!!NE NEZQf]-!!NE NEZQf]-!!NE NEZQf]-!!NE NEZQf]-!!NE NEZQf]-!!NE NEZQf]-!!NE NEZQf]-!!NE NEZQf]-!!NE NEZQf]-!!NE NEZQf]-!!NE NEZQf]-!!NE NEZQf]-!!NE NEZQf]-!!NE NEZQf]-!!NE NEZQf]-!!NE NEZQf]-!!NE NECZQOf][-!!NEC NECZQOf][-!!NEC NECZQOf][-!!NEC NECOZQO[f][g-!!NECO ECOQO[][g-!!ECO ECOQO[][g-!!ECO COO[[g-!!CO COO[[g-!!CO COO[[g-!!CO COO[[g-!!CO COO[[g-!!CO COO[[g-!!CO COO[[g-!!CO COO[[g-!!CO COO[[g-!!CO COO[[g-!!CO COO[[g-!!CO COO[[g-!!CO COO[[g-!!CO COO[[g-!!CO COO[[g-!!CO COO[[g-!!CO COO[[g-!!CO COO[[g-!!CO COO[[g-!!CO COO[[g-!!CO COO[[g-!!CO COO[[g-!!CO COO[[g-!!CO COO[[g-!!CO COO[[g-!!CO COO[[g-!!CO COO[[g-!!CO COO[[g-!!CO COO[[g-!!CO COO[[g-!!CO COO[[g-!!CO COO[[g-!!CO COO[[g-!!CO COO[[g-!!CO COO[[g-!!CO COO[[g-!!CO COO[[g-!!CO COO[[g-!!CO COO[[g-!!CO COO[[g-!!CO COO[[g-!!CO COO[[g-!!CO COO[[g-!!CO COO[[g-!!CO COO[[g-!!CO COO[[g-!!CO COO[[g-!!CO COO[[g-!!CO O[g-!!O OB[NgZ-!!OB OB[NgZ-!!OB OB[NgZ-!!OB OB[NgZ-!!OB OB[NgZ-!!OB OB[NgZ-!!OB OB[NgZ-!!OB OB[NgZ-!!OB OB[NgZ-!!OB OBQ[N]gZi-!!OBQ OBQ[N]gZi-!!OBQ OBQ[N]gZi-!!OBQ OBQ[N]gZi-!!OBQ BQN]Zi-!!BQ BQN]Zi-!!BQ BQN]Zi-!!BQ BQN]Zi-!!BQ BQN]Zi-!!BQ BQN]Zi-!!BQ BQN]Zi-!!BQ BQN]Zi-!!BQ BQN]Zi-!!BQ BQN]Zi-!!BQ BQN]Zi-!!BQ BQN]Zi-!!BQ BQN]Zi-!!BQ BQN]Zi-!!BQ BQN]Zi-!!BQ BQN]Zi-!!BQ BQN]Zi-!!BQ BQN]Zi-!!BQ BQN]Zi-!!BQ BQN]Zi-!!BQ BQN]Zi-!!BQ BQN]Zi-!!BQ BQN]Zi-!!BQ BQN]Zi-!!BQ BQN]Zi-!!BQ BQN]Zi-!!BQ BQN]Zi-!!BQ BQN]Zi-!!BQ BQN]Zi-!!BQ BQN]Zi-!!BQ BQN]Zi-!!BQ BQN]Zi-!!BQ BQN]Zi-!!BQ BQN]Zi-!!BQ BQN]Zi-!!BQ BQN]Zi-!!BQ BQN]Zi-!!BQ BQN]Zi-!!BQ BQN]Zi-!!BQ BQN]Zi-!!BQ BQN]Zi-!!BQ BQN]Zi-!!BQ BQN]Zi-!!BQ BQN]Zi-!!BQ BQN]Zi-!!BQ BQEN]QZi]-!!BQE QE]Qi]-!!QE QE]Qi]-!!QE QE]Qi]-!!QE QE]Qi]-!!QE QE]Qi]-!!QE QE]Qi]-!!QE QE]Qi]-!!QE QE]Qi]-!!QE QE]Qi]-!!QE QEO]Q[i]g-!!QEO QEO]Q[i]g-!!QEO QEO]Q[i]g-!!QEO QEO]Q[i]g-!!QEO QEO]Q[i]g-!!QEO QEO]Q[i]g-!!QEO QEO]Q[i]g-!!QEO EOQ[]g-!!EO EOQ[]g-!!EO EOQ[]g-!!EO EOQ[]g-!!EO EOQ[]g-!!EO EOQ[]g-!!EO EOQ[]g-!!EO EOQ[]g-!!EO EOQ[]g-!!EO EOQ[]g-!!EO EOQ[]g-!!EO EOQ[]g-!!EO EOQ[]g-!!EO EOQ[]g-!!EO EOQ[]g-!!EO EOQ[]g-!!EO EOQ[]g-!!EO EOQ[]g-!!EO EOQ[]g-!!EO EOQ[]g-!!EO EOQ[]g-!!EO EOQ[]g-!!EO EOQ[]g-!!EO EOQ[]g-!!EO EOQ[]g-!!EO EOQ[]g-!!EO EOQ[]g-!!EO EOQ[]g-!!EO EOQ[]g-!!EO EOQ[]g-!!EO EOQ[]g-!!EO EOQ[]g-!!EO EOQ[]g-!!EO EOQ[]g-!!EO EOQ[]g-!!EO EOQ[]g-!!EO EOQ[]g-!!EO EOQ[]g-!!EO EOQ[]g-!!EO EOQ[]g-!!EO EOQ[]g-!!EO EOQ[]g-!!EO EOQ[]g-!!EO EOQ[]g-!!EO EOQ[]g-!!EO O[g-!!O OG[Sg_-!!OG OG[Sg_-!!OG OGN[SZg_f-!!OGN OGN[SZg_f-!!OGN OGN[SZg_f-!!OGN OGN[SZg_f-!!OGN OGN[SZg_f-!!OGN OGN[SZg_f-!!OGN OGN[SZg_f-!!OGN OGN[SZg_f-!!OGN OGN[SZg_f-!!OGN GNSZ_f-!!GN GNSZ_f-!!GN GNSZ_f-!!GN GNSZ_f-!!GN GNSZ_f-!!GN GNSZ_f-!!GN GNSZ_f-!!GN GNSZ_f-!!GN GNSZ_f-!!GN GNSZ_f-!!GN GNSZ_f-!!GN GNSZ_f-!!GN GNSZ_f-!!GN GNSZ_f-!!GN GNSZ_f-!!GN GNSZ_f-!!GN GNSZ_f-!!GN GNSZ_f-!!GN GNSZ_f-!!GN GNSZ_f-!!GN GNSZ_f-!!GN GNSZ_f-!!GN GNSZ_f-!!GN GNSZ_f-!!GN NZf-!!N NZf-!!N NZf-!!N NZf-!!N NZf-!!N -!! -!! -!! -!! -!! -!! -!! -!! -!! -!! -!! -!! -!! -!! -!! -!! -!! -!! -!! -!! -!! IUa-!!I IUa-!!I IUa-!!I LIXUda-!!LI LIXUda-!!LI LIXUda-!!LI LIXUda-!!LI LIXUda-!!LI LIXUda-!!LI LIXUda-!!LI LIXUda-!!LI LIXUda-!!LI LIXUda-!!LI LIXUda-!!LI LIXUda-!!LI LIXUda-!!LI LIXUda-!!LI LIXUda-!!LI LIXUda-!!LI LIXUda-!!LI LIXUda-!!LI LIXUda-!!LI LIXUda-!!LI LIXUda-!!LI LIXUda-!!LI LIXUda-!!LI LIXUda-!!LI LIXUda-!!LI LIXUda-!!LI LIXUda-!!LI LIXUda-!!LI LIXUda-!!LI LIXUda-!!LI LIXUda-!!LI LIXUda-!!LI LIXUda-!!LI LIXUda-!!LI LIXUda-!!LI LIXUda-!!LI LIXUda-!!LI LIXUda-!!LI LIXUda-!!LI LIXUda-!!LI LIXUda-!!LI LIXUda-!!LI LIXUda-!!LI LIXUda-!!LI LIXUda-!!LI LIXUda-!!LI LIXUda-!!LI LIXUda-!!LI LIXUda-!!LI LIXUda-!!LI LIXUda-!!LI LIXUda-!!LI LIXUda-!!LI LIXUda-!!LI LIXUda-!!LI LIXUda-!!LI IUa-!!I IUa-!!I IUa-!!I IUa-!!I IUa-!!I IUa-!!I -!! -!! NZf-!!N NZf-!!N JNVZbf-!!JN JNVZbf-!!JN JNVZbf-!!JN JNVZbf-!!JN JNVZbf-!!JN JNVZbf-!!JN JNVZbf-!!JN JNVZbf-!!JN JNVZbf-!!JN JNVZbf-!!JN JNVZbf-!!JN JNVZbf-!!JN JNVZbf-!!JN JNVZbf-!!JN JNVZbf-!!JN JNVZbf-!!JN JNVZbf-!!JN JNVZbf-!!JN JNVZbf-!!JN JNVZbf-!!JN JNVZbf-!!JN JNVZbf-!!JN JNVZbf-!!JN JNVZbf-!!JN JNVZbf-!!JN JNVZbf-!!JN JNVZbf-!!JN JNVZbf-!!JN JNVZbf-!!JN JNVZbf-!!JN JNVZbf-!!JN JNVZbf-!!JN JNVZbf-!!JN JNVZbf-!!JN JNVZbf-!!JN JNVZbf-!!JN JNVZbf-!!JN JNVZbf-!!JN JNVZbf-!!JN JNVZbf-!!JN JNVZbf-!!JN JNVZbf-!!JN JNVZbf-!!JN JNVZbf-!!JN JNVZbf-!!JN JNVZbf-!!JN JNVZbf-!!JN JNVZbf-!!JN JNVZbf-!!JN JNVZbf-!!JN JNVZbf-!!JN JNVZbf-!!JN JNVZbf-!!JN >JNJVZVbf-!!>JN >JNJVZVbf-!!>JN >JNJVZVbf-!!>JN >JNJVZVbf-!!>JN >JNJVZVbf-!!>JN >JNJVZVbf-!!>JN >JNJVZVbf-!!>JN >JNJVZVbf-!!>JN >JNJVZVbf-!!>JN >JNJVZVbf-!!>JN >JNJVZVbf-!!>JN >JNJVZVbf-!!>JN >JNJVZVbf-!!>JN >JNJVZVbf-!!>JN >JNJVZVbf-!!>JN >JNJVZVbf-!!>JN >JNJVZVbf-!!>JN >JNJVZVbf-!!>JN >JNJVZVbf-!!>JN >JNJVZVbf-!!>JN >JNJVZVbf-!!>JN >JNJVZVbf-!!>JN >JNJVZVbf-!!>JN >JNJVZVbf-!!>JN >JNJVZVbf-!!>JN >JNJVZVbf-!!>JN >JNJVZVbf-!!>JN >JNJVZVbf-!!>JN >JNJVZVbf-!!>JN >JNJVZVbf-!!>JN >JNJVZVbf-!!>JN >JNJVZVbf-!!>JN >JNJVZVbf-!!>JN >JNJVZVbf-!!>JN >JNJVZVbf-!!>JN >JNJVZVbf-!!>JN >JNJVZVbf-!!>JN >JNJVZVbf-!!>JN >JNJVZVbf-!!>JN >JNJVZVbf-!!>JN >JNJVZVbf-!!>JN >JNJVZVbf-!!>JN >JNJVZVbf-!!>JN >JNJVZVbf-!!>JN >JNJVZVbf-!!>JN >JNJVZVbf-!!>JN >JNJVZVbf-!!>JN >JNJVZVbf-!!>JN >JNJVZVbf-!!>JN >JNJVZVbf-!!>JN >JNJVZVbf-!!>JN >JNJVZVbf-!!>JN >JNJVZVbf-!!>JN >JNJVZVbf-!!>JN >JNJVZVbf-!!>JN >JNJVZVbf-!!>JN >JNJVZVbf-!!>JN >JNJVZVbf-!!>JN >JNJVZVbf-!!>JN >JNJVZVbf-!!>JN >=JNJIVZVUbf-!!>=JN >=JNJIVZVUbf-!!>=JN =JNIVZUbf-!!=JN =JNIVZUbf-!!=JN =JNIVZUbf-!!=JN =JNIVZUbf-!!=JN =JNIVZUbf-!!=JN =JNIVZUbf-!!=JN =JNIVZUbf-!!=JN =JNIVZUbf-!!=JN =JNIVZUbf-!!=JN =JNIVZUbf-!!=JN =JNIVZUbf-!!=JN =JNIVZUbf-!!=JN =JNIVZUbf-!!=JN =JNIVZUbf-!!=JN =JNIVZUbf-!!=JN =JNIVZUbf-!!=JN =JNIVZUbf-!!=JN =JNIVZUbf-!!=JN =JNIVZUbf-!!=JN =JNIVZUbf-!!=JN =JNIVZUbf-!!=JN =JNIVZUbf-!!=JN =JNIVZUbf-!!=JN =JNIVZUbf-!!=JN =JNIVZUbf-!!=JN =JNIVZUbf-!!=JN =JNIVZUbf-!!=JN =JNIVZUbf-!!=JN =JNIVZUbf-!!=JN =JNIVZUbf-!!=JN =JNIVZUbf-!!=JN =JNIVZUbf-!!=JN =JNIVZUbf-!!=JN =JNIVZUbf-!!=JN =JNIVZUbf-!!=JN =JNIVZUbf-!!=JN =JNIVZUbf-!!=JN =JNIVZUbf-!!=JN =JNIVZUbf-!!=JN =JNIVZUbf-!!=JN =JNIVZUbf-!!=JN =JNIVZUbf-!!=JN =JNIVZUbf-!!=JN =JNIVZUbf-!!=JN =JNIVZUbf-!!=JN =JNIVZUbf-!!=JN =JNIVZUbf-!!=JN =JNIVZUbf-!!=JN =JNIVZUbf-!!=JN =JNIVZUbf-!!=JN =JNIVZUbf-!!=JN =JNIVZUbf-!!=JN =JNIVZUbf-!!=JN =JNIVZUbf-!!=JN ;JNGVZSbf-!!;JN ;JNGVZSbf-!!;JN ;JNGVZSbf-!!;JN ;JNGVZSbf-!!;JN ;JNGVZSbf-!!;JN ;JNGVZSbf-!!;JN ;JNGVZSbf-!!;JN ;JNGVZSbf-!!;JN ;JNGVZSbf-!!;JN ;JNGVZSbf-!!;JN ;JNGVZSbf-!!;JN ;JNGVZSbf-!!;JN ;JNGVZSbf-!!;JN ;JNGVZSbf-!!;JN ;JNGVZSbf-!!;JN ;JNGVZSbf-!!;JN ;JNGVZSbf-!!;JN ;JNGVZSbf-!!;JN ;JNGVZSbf-!!;JN ;JNGVZSbf-!!;JN ;JNGVZSbf-!!;JN ;JNGVZSbf-!!;JN ;JNGVZSbf-!!;JN ;JNGVZSbf-!!;JN ;JNGVZSbf-!!;JN ;JNGVZSbf-!!;JN ;JNGVZSbf-!!;JN ;JNGVZSbf-!!;JN ;JNGVZSbf-!!;JN ;JNGVZSbf-!!;JN ;JNGVZSbf-!!;JN ;JNGVZSbf-!!;JN ;JNGVZSbf-!!;JN ;JNGVZSbf-!!;JN ;JNGVZSbf-!!;JN ;JNGVZSbf-!!;JN ;JNGVZSbf-!!;JN ;JNGVZSbf-!!;JN ;JNGVZSbf-!!;JN ;JNGVZSbf-!!;JN ;JNGVZSbf-!!;JN ;JNGVZSbf-!!;JN ;JNGVZSbf-!!;JN ;JNGVZSbf-!!;JN ;JNGVZSbf-!!;JN ;JNGVZSbf-!!;JN ;JNGVZSbf-!!;JN ;JNGVZSbf-!!;JN ;JNGVZSbf-!!;JN ;JNGVZSbf-!!;JN ;JNGVZSbf-!!;JN ;JNGVZSbf-!!;JN ;JNGVZSbf-!!;JN ;JNGVZSbf-!!;JN ;JNGVZSbf-!!;JN ;JNGVZSbf-!!;JN ;JNGVZSbf-!!;JN ;JNGVZSbf-!!;JN ;JNGVZSbf-!!;JN ;JN9GVZESbfQ-!!;JN9 JN9VZEbfQ-!!JN9 JN9VZEbfQ-!!JN9 JN9VZEbfQ-!!JN9 JN9VZEbfQ-!!JN9 JN9VZEbfQ-!!JN9 JN9VZEbfQ-!!JN9 JN9VZEbfQ-!!JN9 JN9VZEbfQ-!!JN9 JN9VZEbfQ-!!JN9 JN9VZEbfQ-!!JN9 JN9VZEbfQ-!!JN9 JN9VZEbfQ-!!JN9 JN9VZEbfQ-!!JN9 JN9VZEbfQ-!!JN9 JN9VZEbfQ-!!JN9 JN9VZEbfQ-!!JN9 JN9VZEbfQ-!!JN9 JN9VZEbfQ-!!JN9 JN9VZEbfQ-!!JN9 JN9VZEbfQ-!!JN9 JN9VZEbfQ-!!JN9 JN9VZEbfQ-!!JN9 JN9VZEbfQ-!!JN9 JN9VZEbfQ-!!JN9 N9ZEfQ-!!N9 N9ZEfQ-!!N9 N9ZEfQ-!!N9 9EQ-!!9 9EQ-!!9 9EQ-!!9 9EQ-!!9 9EQ-!!9 9EQ-!!9 9EQ-!!9 9EQ-!!9 9EQ-!!9 9EQ-!!9 9EQ-!!9 9EQ-!!9 9EQ-!!9 9EQ-!!9 9EQ-!!9 9EQ-!!9 9EQ-!!9 9EQ-!!9 9EQ-!!9 9EQ-!!9 9EQ-!!9 9EQ-!!9 9EQ-!!9 9EQ-!!9 9EQ-!!9 9EQ-!!9 9EQ-!!9 9EQ-!!9 9EQ-!!9 9EQ-!!9 9EQ-!!9 9EQ-!!9 9EQ-!!9 9EQ-!!9 9EQ-!!9 9EQ-!!9 9EQ-!!9 9EQ-!!9 9EQ-!!9 97LECXQOd-!!97L 97LECXQOd-!!97L 97LECXQOd-!!97L 97LECXQOd-!!97L 97LECXQOd-!!97L 97LECXQOd-!!97L 97LECXQOd-!!97L 97LECXQOd-!!97L 97LECXQOd-!!97L 97LECXQOd-!!97L 97LECXQOd-!!97L 97LECXQOd-!!97L 97LECXQOd-!!97L 97LECXQOd-!!97L 97LECXQOd-!!97L 97LECXQOd-!!97L 97LECXQOd-!!97L 97LECXQOd-!!97L 97LECXQOd-!!97L 97LECXQOd-!!97L 97LECXQOd-!!97L 97LECXQOd-!!97L 7LCXOd-!!7L 7LCXOd-!!7L 7LCXOd-!!7L 7LCXOd-!!7L 7LCXOd-!!7L 7LCXOd-!!7L 7LCXOd-!!7L 7LCXOd-!!7L 7LCXOd-!!7L 7LCXOd-!!7L 7LCXOd-!!7L 7LCXOd-!!7L 7LCXOd-!!7L 7LCXOd-!!7L 7LCXOd-!!7L 7LCXOd-!!7L 7LCXOd-!!7L 7LCXOd-!!7L 7LCXOd-!!7L 7LCXOd-!!7L 7LCXOd-!!7L 7LCXOd-!!7L 7LCXOd-!!7L 7LCXOd-!!7L 7LCXOd-!!7L 7LCXOd-!!7L 7LCXOd-!!7L 7LCXOd-!!7L 7LCXOd-!!7L 7LCXOd-!!7L 7LCXOd-!!7L LXd-!!L LXd-!!L LXd-!!L LXd-!!L LXd-!!L LXd-!!L LXd-!!L LXd-!!L LXd-!!L 6BN-!!6 6BN-!!6 6BN-!!6 6BN-!!6 6BN-!!6 6BN-!!6 6BN-!!6 6BN-!!6 6BN-!!6 6BN-!!6 6BN-!!6 6BN-!!6 6JBVNb-!!6J 6JBVNb-!!6J 6JBVNb-!!6J 6JBVNb-!!6J 6JBVNb-!!6J 6JBVNb-!!6J 6JBVNb-!!6J 6JBVNb-!!6J 6JBVNb-!!6J 6JBVNb-!!6J 6JBVNb-!!6J 6JBVNb-!!6J 6JBVNb-!!6J 6JBVNb-!!6J 6JBVNb-!!6J 6JBVNb-!!6J 6JBVNb-!!6J 6JBVNb-!!6J 6JBVNb-!!6J 6JBVNb-!!6J 6JBVNb-!!6J 6JBVNb-!!6J 6JBVNb-!!6J 6JBVNb-!!6J 6JBVNb-!!6J 6JBVNb-!!6J 6JBVNb-!!6J 6JBVNb-!!6J 6JBVNb-!!6J 6JBVNb-!!6J 6JBVNb-!!6J 6JBVNb-!!6J 6JBVNb-!!6J 6JBVNb-!!6J 6JBVNb-!!6J 6JBVNb-!!6J 6JBVNb-!!6J 6JBVNb-!!6J 6JBVNb-!!6J 6JBVNb-!!6J 6JBVNb-!!6J 6JBVNb-!!6J 6JBVNb-!!6J 6JBVNb-!!6J 6JBVNb-!!6J JVb-!!J JVb-!!J JVb-!!J J4V@bL-!!J4 J4V@bL-!!J4 J4V@bL-!!J4 J4V@bL-!!J4 J4V@bL-!!J4 J4V@bL-!!J4 J4V@bL-!!J4 J4V@bL-!!J4 J4V@bL-!!J4 J4V@bL-!!J4 J4LV@XbLd-!!J4L J4LV@XbLd-!!J4L J4LV@XbLd-!!J4L J4LV@XbLd-!!J4L J4LV@XbLd-!!J4L J4LV@XbLd-!!J4L J4LV@XbLd-!!J4L J4LV@XbLd-!!J4L J4LV@XbLd-!!J4L J4LV@XbLd-!!J4L J4LV@XbLd-!!J4L 4L@XLd-!!4L 4L@XLd-!!4L 4L@XLd-!!4L 4L@XLd-!!4L 4L@XLd-!!4L 4L@XLd-!!4L 4L@XLd-!!4L 4L@XLd-!!4L 4L@XLd-!!4L 4L@XLd-!!4L 4L@XLd-!!4L 4L@XLd-!!4L 4L@XLd-!!4L 4L@XLd-!!4L 4L@XLd-!!4L 4L@XLd-!!4L 4L@XLd-!!4L 4L@XLd-!!4L 4L@XLd-!!4L 4L@XLd-!!4L 4L@XLd-!!4L 4L@XLd-!!4L 4L@XLd-!!4L 4L@XLd-!!4L 4L@XLd-!!4L 4L@XLd-!!4L 4L@XLd-!!4L 4L@XLd-!!4L 4L@XLd-!!4L 4L@XLd-!!4L 4L@XLd-!!4L 4L@XLd-!!4L 4L@XLd-!!4L 4L@XLd-!!4L 4L@XLd-!!4L 4L@XLd-!!4L 4L@XLd-!!4L 4L@XLd-!!4L 4L@XLd-!!4L 4L@XLd-!!4L 4L@XLd-!!4L 4L@XLd-!!4L 4L2@X>LdJ-!!4L2 4L2@X>LdJ-!!4L2 4L2@X>LdJ-!!4L2 4L2@X>LdJ-!!4L2 4LN2@XZ>LdfJ-!!4LN2 4LN2@XZ>LdfJ-!!4LN2 LN2XZ>dfJ-!!LN2 LN2XZ>dfJ-!!LN2 LN2XZ>dfJ-!!LN2 LN2XZ>dfJ-!!LN2 LN2XZ>dfJ-!!LN2 LN2XZ>dfJ-!!LN2 LN2XZ>dfJ-!!LN2 LN2XZ>dfJ-!!LN2 LN2XZ>dfJ-!!LN2 LN2XZ>dfJ-!!LN2 LN2XZ>dfJ-!!LN2 LN2XZ>dfJ-!!LN2 N2Z>fJ-!!N2 N2Z>fJ-!!N2 N2Z>fJ-!!N2 N2Z>fJ-!!N2 N2Z>fJ-!!N2 N2Z>fJ-!!N2 N2Z>fJ-!!N2 N2Z>fJ-!!N2 N2Z>fJ-!!N2 N2Z>fJ-!!N2 N2Z>fJ-!!N2 N2Z>fJ-!!N2 N2Z>fJ-!!N2 N2Z>fJ-!!N2 N2Z>fJ-!!N2 N2Z>fJ-!!N2 N2Z>fJ-!!N2 N2Z>fJ-!!N2 N2Z>fJ-!!N2 N2Z>fJ-!!N2 N2Z>fJ-!!N2 N2Z>fJ-!!N2 N2Z>fJ-!!N2 N2Z>fJ-!!N2 N2Z>fJ-!!N2 N2Z>fJ-!!N2 N2Z>fJ-!!N2 N2Z>fJ-!!N2 N2Z>fJ-!!N2 N2Z>fJ-!!N2 2>J-!!2 2>J-!!2 2>J-!!2 2>J-!!2 2>J-!!2 2>J-!!2 2>J-!!2 2>J-!!2 2>J-!!2 2>J-!!2 2>J-!!2 26>BJN-!!26 26>BJN-!!26 26>BJN-!!26 26>BJN-!!26 6BN-!!6 6BN-!!6 6BN-!!6 6BN-!!6 6BN-!!6 6BN-!!6 6BN-!!6 6BN-!!6 6BN-!!6 6BN-!!6 6BN-!!6 6QB]Ni-!!6Q 6QB]Ni-!!6Q 6QB]Ni-!!6Q 6QB]Ni-!!6Q 6QB]Ni-!!6Q 6QB]Ni-!!6Q 6QB]Ni-!!6Q 6QB]Ni-!!6Q 6QB]Ni-!!6Q 6QB]Ni-!!6Q 6QB]Ni-!!6Q 6QB]Ni-!!6Q 6QB]Ni-!!6Q 6QB]Ni-!!6Q 6QB]Ni-!!6Q 6QB]Ni-!!6Q 6QB]Ni-!!6Q 6QB]Ni-!!6Q 6QB]Ni-!!6Q 6QB]Ni-!!6Q 6QB]Ni-!!6Q 6QB]Ni-!!6Q 6QB]Ni-!!6Q 6QB]Ni-!!6Q 6QB]Ni-!!6Q 6QB]Ni-!!6Q 6QB]Ni-!!6Q 6QB]Ni-!!6Q 6QB]Ni-!!6Q 6QB]Ni-!!6Q 6QB]Ni-!!6Q 6QB]Ni-!!6Q 6QB]Ni-!!6Q 6QB]Ni-!!6Q 6QB]Ni-!!6Q 6QB]Ni-!!6Q 6QB]Ni-!!6Q 6QB]Ni-!!6Q 6QB]Ni-!!6Q 6QB]Ni-!!6Q 6Q4B]@NiL-!!6Q4 6Q4B]@NiL-!!6Q4 Q4]@iL-!!Q4 Q4]@iL-!!Q4 Q4]@iL-!!Q4 Q4]@iL-!!Q4 Q4]@iL-!!Q4 Q4]@iL-!!Q4 Q4]@iL-!!Q4 Q4]@iL-!!Q4 Q4]@iL-!!Q4 Q4]@iL-!!Q4 Q4]@iL-!!Q4 Q4]@iL-!!Q4 Q4]@iL-!!Q4 Q4O]@[iLg-!!Q4O Q4O]@[iLg-!!Q4O Q4O]@[iLg-!!Q4O Q4O]@[iLg-!!Q4O Q4O]@[iLg-!!Q4O 4O@[Lg-!!4O 4O@[Lg-!!4O 4O@[Lg-!!4O 4O@[Lg-!!4O 4O@[Lg-!!4O 4O@[Lg-!!4O 4O@[Lg-!!4O 4O@[Lg-!!4O 4O@[Lg-!!4O 4O@[Lg-!!4O 4O@[Lg-!!4O 4O@[Lg-!!4O 4O@[Lg-!!4O 4O@[Lg-!!4O 4O@[Lg-!!4O 4O@[Lg-!!4O 4O@[Lg-!!4O 4O@[Lg-!!4O 4O@[Lg-!!4O 4O@[Lg-!!4O 4O@[Lg-!!4O 4O@[Lg-!!4O 4O@[Lg-!!4O 4O@[Lg-!!4O 4O@[Lg-!!4O 4O@[Lg-!!4O 4O@[Lg-!!4O 4O@[Lg-!!4O 4O@[Lg-!!4O 4O@[Lg-!!4O 4O@[Lg-!!4O 4O@[Lg-!!4O 4O@[Lg-!!4O 4O@[Lg-!!4O 4O@[Lg-!!4O 4O@[Lg-!!4O 4O@[Lg-!!4O 4O@[Lg-!!4O 4O@[Lg-!!4O 4O@[Lg-!!4O 4O@[Lg-!!4O 4O2@[>LgJ-!!4O2 O2[>gJ-!!O2 O2[>gJ-!!O2 O2[>gJ-!!O2 O2[>gJ-!!O2 O2[>gJ-!!O2 O2[>gJ-!!O2 O2[>gJ-!!O2 O2[>gJ-!!O2 O2[>gJ-!!O2 O2[>gJ-!!O2 O2N[>ZgJf-!!O2N 2N>ZJf-!!2N 2N>ZJf-!!2N 2N>ZJf-!!2N 2N>ZJf-!!2N 2N>ZJf-!!2N 2N>ZJf-!!2N 2N>ZJf-!!2N 2N>ZJf-!!2N 2N>ZJf-!!2N 2N>ZJf-!!2N 2N>ZJf-!!2N 2N>ZJf-!!2N 2N>ZJf-!!2N 2N>ZJf-!!2N 2N>ZJf-!!2N 2N>ZJf-!!2N 2N>ZJf-!!2N 2N>ZJf-!!2N 2N>ZJf-!!2N 2N>ZJf-!!2N 2N>ZJf-!!2N 2N>ZJf-!!2N 2N>ZJf-!!2N 2N>ZJf-!!2N 2N>ZJf-!!2N 2N>ZJf-!!2N 2N>ZJf-!!2N 2N>ZJf-!!2N 2N>ZJf-!!2N 2N>ZJf-!!2N 2N>ZJf-!!2N 2N>ZJf-!!2N 2N>ZJf-!!2N 2N>ZJf-!!2N 2N>ZJf-!!2N 2N>ZJf-!!2N 2N>ZJf-!!2N 2N>ZJf-!!2N 2N>ZJf-!!2N 2N>ZJf-!!2N 2N>ZJf-!!2N 2N>ZJf-!!2N 2N>ZJf-!!2N 2N>ZJf-!!2N 2N>ZJf-!!2N 2N>ZJf-!!2N 2N>ZJf-!!2N 2N>ZJf-!!2N 2N>ZJf-!!2N 2N>ZJf-!!2N 2N>ZJf-!!2N 2N>ZJf-!!2N NZf-!!N N1Z=fI-!!N1 N1Z=fI-!!N1 N1Z=fI-!!N1 N1Z=fI-!!N1 N1Z=fI-!!N1 N1Z=fI-!!N1 N1Z=fI-!!N1 N1Z=fI-!!N1 1=I-!!1 1L=XId-!!1L 1L=XId-!!1L 1L=XId-!!1L 1L=XId-!!1L 1L=XId-!!1L 1L=XId-!!1L 1L=XId-!!1L 1L=XId-!!1L 1L=XId-!!1L 1L=XId-!!1L 1L=XId-!!1L 1L=XId-!!1L 1L=XId-!!1L 1L=XId-!!1L 1L=XId-!!1L 1L=XId-!!1L 1L=XId-!!1L 1L=XId-!!1L 1L=XId-!!1L 1L=XId-!!1L 1L=XId-!!1L 1L=XId-!!1L 1L=XId-!!1L 1L=XId-!!1L 1L=XId-!!1L 1L=XId-!!1L 1L=XId-!!1L 1L=XId-!!1L 1L=XId-!!1L 1L=XId-!!1L 1L=XId-!!1L 1L=XId-!!1L 1L=XId-!!1L 1L=XId-!!1L 1L=XId-!!1L 1L=XId-!!1L 1L=XId-!!1L 1L=XId-!!1L 1L=XId-!!1L 1L=XId-!!1L 1L=XId-!!1L 1L=XId-!!1L 1L=XId-!!1L 1L=XId-!!1L 1L=XId-!!1L 1L=XId-!!1L 1L=XId-!!1L 1L=XId-!!1L 1L=XId-!!1L 1L=XId-!!1L 1L=XId-!!1L 1L=XId-!!1L 1L=XId-!!1L 1L=XId-!!1L 1L=XId-!!1L 1L=XId-!!1L 1L=XId-!!1L 1L=XId-!!1L 1L=XId-!!1L LXd-!!L LXd-!!L LQX]di-!!LQ LQX]di-!!LQ LQX]di-!!LQ Q]i-!!Q Q]i-!!Q Q]i-!!Q Q]i-!!Q Q]i-!!Q Q]i-!!Q Q]i-!!Q Q]i-!!Q Q]i-!!Q Q]i-!!Q Q]i-!!Q Q]i-!!Q Q]i-!!Q Q]i-!!Q Q]i-!!Q Q]i-!!Q Q]i-!!Q Q]i-!!Q Q]i-!!Q Q]i-!!Q Q]i-!!Q Q]i-!!Q Q]i-!!Q Q]i-!!Q Q]i-!!Q Q]i-!!Q Q]i-!!Q Q]i-!!Q Q]i-!!Q Q]i-!!Q Q]i-!!Q Q]i-!!Q Q]i-!!Q Q]i-!!Q Q]i-!!Q Q]i-!!Q Q]i-!!Q Q]i-!!Q Q]i-!!Q Q]i-!!Q Q]i-!!Q Q]i-!!Q Q]i-!!Q Q]i-!!Q Q]i-!!Q Q]i-!!Q Q]i-!!Q Q]i-!!Q Q]i-!!Q Q]i-!!Q Q]i-!!Q Q]i-!!Q Q]i-!!Q Q]i-!!Q Q-]9iE-!!Q-- Q-]9iE-!!Q-- QP-]\9ihE-!!QP-- QP-]\9ihE-!!QP-- QP-]\9ihE-!!QP-- QP-]\9ihE-!!QP-- P-\9hE-!!P-- P-\9hE-!!P-- P-\9hE-!!P-- P-\9hE-!!P-- P-\9hE-!!P-- P-\9hE-!!P-- P-\9hE-!!P-- P-\9hE-!!P-- P-\9hE-!!P-- P-\9hE-!!P-- P-\9hE-!!P-- P-\9hE-!!P-- P-\9hE-!!P-- P-\9hE-!!P-- P-\9hE-!!P-- P-\9hE-!!P-- P-\9hE-!!P-- P-\9hE-!!P-- P-\9hE-!!P-- P-\9hE-!!P-- P-\9hE-!!P-- P-\9hE-!!P-- P-\9hE-!!P-- P-\9hE-!!P-- P-\9hE-!!P-- P-\9hE-!!P-- P-\9hE-!!P-- P-\9hE-!!P-- P-\9hE-!!P-- P-\9hE-!!P-- P-\9hE-!!P-- P-\9hE-!!P-- P-\9hE-!!P-- P-\9hE-!!P-- P-\9hE-!!P-- P-\9hE-!!P-- P-\9hE-!!P-- P-\9hE-!!P-- P-\9hE-!!P-- P-\9hE-!!P-- P-\9hE-!!P-- P-\9hE-!!P-- P-\9hE-!!P-- P-\9hE-!!P-- P-\9hE-!!P-- P-\9hE-!!P-- P-\9hE-!!P-- P-\9hE-!!P-- P-\9hE-!!P-- P-\9hE-!!P-- P-\9hE-!!P-- P-\9hE-!!P-- P-\9hE-!!P-- P-\9hE-!!P-- P-\9hE-!!P-- P-\9hE-!!P-- P-\9hE-!!P-- P-N\9ZhEf-!!P-N- P-N\9ZhEf-!!P-N- -N9ZEf-!!-N- -N9ZEf-!!-N- -N9ZEf-!!-N- -N9ZEf-!!-N- -N9ZEf-!!-N- -N9ZEf-!!-N- -N9ZEf-!!-N- -N9ZEf-!!-N- -N9ZEf-!!-N- -N9ZEf-!!-N- -N9ZEf-!!-N- -N9ZEf-!!-N- -N9ZEf-!!-N- -N9ZEf-!!-N- -N9ZEf-!!-N- -N9ZEf-!!-N- -N9ZEf-!!-N- -N9ZEf-!!-N- -N9ZEf-!!-N- -N9ZEf-!!-N- -N9ZEf-!!-N- -N9ZEf-!!-N- -N9ZEf-!!-N- -N9ZEf-!!-N- -N9ZEf-!!-N- -N9ZEf-!!-N- -N9ZEf-!!-N- -N9ZEf-!!-N- -N9ZEf-!!-N- -N9ZEf-!!-N- -N9ZEf-!!-N- -N9ZEf-!!-N- -N9ZEf-!!-N- -N9ZEf-!!-N- -N9ZEf-!!-N- -N9ZEf-!!-N- -N9ZEf-!!-N- -N9ZEf-!!-N- -N9ZEf-!!-N- -N9ZEf-!!-N- -N9ZEf-!!-N- -N9ZEf-!!-N- NZf-!!N- NZf-!!N- NZf-!!N- NZf-!!N- NZf-!!N- NZf-!!N- NZf-!!N- NZf-!!N- NZf-!!N- NZf-!!N- NZf-!!N- NZf-!!N- NZf-!!N- NLZXfd-!!NL- LXd-!!L- LXd-!!L- LXd-!!L- LXd-!!L- LXd-!!L- LXd-!!L- LXd-!!L- LXd-!!L- LXd-!!L- LXd-!!L- LXd-!!L- LXd-!!L- LXd-!!L- LXd-!!L- LXd-!!L- LXd-!!L- LXd-!!L- LXd-!!L- LXd-!!L- LXd-!!L- LXd-!!L- LXd-!!L- LXd-!!L- LXd-!!L- LXd-!!L- LXd-!!L- LXd-!!L- LXd-!!L- LXd-!!L- LXd-!!L- LXd-!!L- LXd-!!L- LXd-!!L- LXd-!!L- LXd-!!L- LXd-!!L- LXd-!!L- LXd-!!L- LXd-!!L- LXd-!!L- LXd-!!L- LXd-!!L- LXd-!!L- LXd-!!L- LXd-!!L- LXd-!!L- LXd-!!L- LXd-!!L- LXd-!!L- LXd-!!L- LXd-!!L- LXd-!!L- LXd-!!L- LXd-!!L- LXd-!!L- LXd-!!L- LXd-!!L- LXd-!!L- LXd-!!L- LXd-!!L- LXd-!!L- LJXVdb-!!LJ- JVb-!!J- JVb-!!J- JVb-!!J- JVb-!!J- JVb-!!J- JVb-!!J- JVb-!!J- JVb-!!J- JVb-!!J- JVb-!!J- JVb-!!J- JVb-!!J- JVb-!!J- JVb-!!J- JVb-!!J- JVb-!!J- JVb-!!J- JVb-!!J- JVb-!!J- JVb-!!J- JVb-!!J- JVb-!!J- JVb-!!J- JVb-!!J- JVb-!!J- JVb-!!J- JVb-!!J- JVb-!!J- JVb-!!J- JVb-!!J- JVb-!!J- JVb-!!J- JVb-!!J- JVb-!!J- JVb-!!J- JVb-!!J- JVb-!!J- JVb-!!J- JVb-!!J- JVb-!!J- JVb-!!J- JVb-!!J- JVb-!!J- JVb-!!J- JVb-!!J- JVb-!!J- JVb-!!J- JVb-!!J- JVb-!!J- JVb-!!J- JVb-!!J- JVb-!!J- JVb-!!J- JVb-!!J- JVb-!!J- JVb-!!J- JIVUba-!!JI- JIVUba-!!JI- JIVUba-!!JI- JIVUba-!!JI- JIVUba-!!JI- IUa-!!I- IUa-!!I- IUa-!!I- IUa-!!I- IUa-!!I- IUa-!!I- IUa-!!I- IUa-!!I- IUa-!!I- IUa-!!I- IUa-!!I- IUa-!!I- IUa-!!I- IUa-!!I- IUa-!!I- IUa-!!I- IUa-!!I- IUa-!!I- IUa-!!I- IUa-!!I- IUa-!!I- IUa-!!I- IUa-!!I- IUa-!!I- IUa-!!I- IUa-!!I- IUa-!!I- IUa-!!I- IUa-!!I- IUa-!!I- IUa-!!I- IUa-!!I- IUa-!!I- IUa-!!I- IUa-!!I- IUa-!!I- IUa-!!I- IUa-!!I- IUa-!!I- IUa-!!I- IUa-!!I- IUa-!!I- IUa-!!I- IUa-!!I- IUa-!!I- IUa-!!I- IUa-!!I- IUa-!!I- IUa-!!I- IUa-!!I- IUa-!!I- IUa-!!I- IUa-!!I- IGUSa_-!!IG- GS_-!!G- GS_-!!G- GS_-!!G- GS_-!!G- GS_-!!G- GS_-!!G- GS_-!!G- GS_-!!G- GS_-!!G- GS_-!!G- GS_-!!G- GS_-!!G- GS_-!!G- GS_-!!G- GS_-!!G- GS_-!!G- GS_-!!G- GS_-!!G- GS_-!!G- GS_-!!G- GS_-!!G- GS_-!!G- GS_-!!G- GS_-!!G- GS_-!!G- GS_-!!G- GS_-!!G- GS_-!!G- GS_-!!G- GS_-!!G- GS_-!!G- GS_-!!G- GS_-!!G- GS_-!!G- GS_-!!G- GS_-!!G- GS_-!!G- GS_-!!G- GS_-!!G- GS_-!!G- GS_-!!G- GS_-!!G- GS_-!!G- GS_-!!G- GS_-!!G- GS_-!!G- GS_-!!G- GS_-!!G- GS_-!!G- GS_-!!G- GS_-!!G- GS_-!!G- GS_-!!G- GS_-!!G- GS_-!!G- GS_-!!G- GS_-!!G- GS_-!!G- GS_-!!G- GESQ_]-!!GE- GESQ_]-!!GE- GESQ_]-!!GE- GESQ_]-!!GE- GESQ_]-!!GE- GESQ_]-!!GE- EQ]-!!E- EQ]-!!E- EQ]-!!E- EQ]-!!E- EQ]-!!E- EQ]-!!E- EQ]-!!E- EQ]-!!E- EQ]-!!E- EQ]-!!E- EQ]-!!E- EQ]-!!E- EQ]-!!E- EQ]-!!E- EQ]-!!E- EQ]-!!E- EQ]-!!E- EQ]-!!E- EQ]-!!E- EQ]-!!E- EQ]-!!E- EQ]-!!E- EQ]-!!E- EQ]-!!E- EQ]-!!E- EQ]-!!E- EQ]-!!E- EQ]-!!E- EQ]-!!E- EQ]-!!E- EQ]-!!E- EQ]-!!E- EQ]-!!E- EQ]-!!E- EQ]-!!E- EQ]-!!E- EQ]-!!E- EQ]-!!E- EQ]-!!E- EQ]-!!E- EQ]-!!E- EQ]-!!E- EQ]-!!E- EQ]-!!E- EQ]-!!E- EQ]-!!E- EQ]-!!E- EQ]-!!E- EQ]-!!E- -!!- -!!- -!!- -!!- -!!- -!!- -!!- -!!- -!!- -!!- -!!- -!!- -!!- -!!- IUa-!!I- IUa-!!I- IUa-!!I- IUa-!!I- IUa-!!I- IUa-!!I- IUa-!!I- IUa-!!I- IUa-!!I- IUa-!!I- IUa-!!I- IUa-!!I- IUa-!!I- IUa-!!I- IUa-!!I- IUa-!!I- IUa-!!I- IUa-!!I- IUa-!!I- IUa-!!I- IUa-!!I- IUa-!!I- IUa-!!I- IUa-!!I- IUa-!!I- IUa-!!I- IUa-!!I- IUa-!!I- IUa-!!I- IUa-!!I- IUa-!!I- IUa-!!I- IUa-!!I- IUa-!!I- IUa-!!I- IUa-!!I- IUa-!!I- IUa-!!I- IUa-!!I- IUa-!!I- IUa-!!I- IUa-!!I- IUa-!!I- IUa-!!I- IUa-!!I- IUa-!!I- IUa-!!I- IUa-!!I- IUa-!!I- IUa-!!I- IUa-!!I- IUa-!!I- IUa-!!I- IUa-!!I- IUa-!!I- IUa-!!I- IUa-!!I- IUa-!!I- IUa-!!I- IUa-!!I- IGUSa_-!!IG- GS_-!!G- GS_-!!G- GS_-!!G- GS_-!!G- GS_-!!G- GS_-!!G- GS_-!!G- GS_-!!G- GS_-!!G- GS_-!!G- GS_-!!G- GS_-!!G- GS_-!!G- GS_-!!G- GS_-!!G- GS_-!!G- GS_-!!G- GS_-!!G- GS_-!!G- GS_-!!G- GS_-!!G- GS_-!!G- GS_-!!G- GS_-!!G- GS_-!!G- GS_-!!G- GS_-!!G- GS_-!!G- GS_-!!G- GS_-!!G- GS_-!!G- GS_-!!G- GS_-!!G- GS_-!!G- GS_-!!G- GS_-!!G- GS_-!!G- GS_-!!G- GS_-!!G- GS_-!!G- GS_-!!G- GS_-!!G- GS_-!!G- GS_-!!G- GS_-!!G- GS_-!!G- GS_-!!G- GS_-!!G- GS_-!!G- GS_-!!G- GS_-!!G- GS_-!!G- GS_-!!G- GS_-!!G- GS_-!!G- GS_-!!G- GS_-!!G- GESQ_]-!!GE- EQ]-!!E- EQ]-!!E- EQ]-!!E- EQ]-!!E- EQ]-!!E- EQ]-!!E- EQ]-!!E- EQ]-!!E- EQ]-!!E- EQ]-!!E- EQ]-!!E- EQ]-!!E- EQ]-!!E- EQ]-!!E- EQ]-!!E- EQ]-!!E- EQ]-!!E- EQ]-!!E- EQ]-!!E- EQ]-!!E- EQ]-!!E- EQ]-!!E- EQ]-!!E- EQ]-!!E- EQ]-!!E- EQ]-!!E- EQ]-!!E- EQ]-!!E- EQ]-!!E- EQ]-!!E- EQ]-!!E- EQ]-!!E- EQ]-!!E- EQ]-!!E- EQ]-!!E- EQ]-!!E- EQ]-!!E- EQ]-!!E- EQ]-!!E- EQ]-!!E- EQ]-!!E- EQ]-!!E- EQ]-!!E- EQ]-!!E- EQ]-!!E- EQ]-!!E- EQ]-!!E- EQ]-!!E- EQ]-!!E- EQ]-!!E- EQ]-!!E- EQ]-!!E- EQ]-!!E- EQ]-!!E- EQ]-!!E- EQ]-!!E- EQ]-!!E- -!!- -!!- -!!- -!!- -!!- JVb-!!J- JVb-!!J- JVb-!!J- JVb-!!J- JVb-!!J- JVb-!!J- JVb-!!J- JVb-!!J- JVb-!!J- JVb-!!J- JVb-!!J- JVb-!!J- JVb-!!J- JVb-!!J- JVb-!!J- JVb-!!J- JVb-!!J- JVb-!!J- JVb-!!J- JVb-!!J- JVb-!!J- JVb-!!J- JVb-!!J- JVb-!!J- JVb-!!J- JVb-!!J- JVb-!!J- JVb-!!J- JVb-!!J- JVb-!!J- JVb-!!J- JVb-!!J- JVb-!!J- JVb-!!J- JVb-!!J- JVb-!!J- JVb-!!J- JVb-!!J- JVb-!!J- JVb-!!J- JVb-!!J- JVb-!!J- JVb-!!J- JVb-!!J- JVb-!!J- JVb-!!J- JVb-!!J- JVb-!!J- JVb-!!J- JVb-!!J- JVb-!!J- JVb-!!J- JVb-!!J- JVb-!!J- JVb-!!J- JVb-!!J- ;JGVSb-!!;J- ;JGVSb-!!;J- ;JGVSb-!!;J- ;JGVSb-!!;J- ;JGVSb-!!;J- ;JGVSb-!!;J- ;JGVSb-!!;J- ;JGVSb-!!;J- ;JGVSb-!!;J- ;JGVSb-!!;J- ;JGVSb-!!;J- ;JGVSb-!!;J- ;JGVSb-!!;J- ;JGVSb-!!;J- ;JGVSb-!!;J- ;JGVSb-!!;J- ;JGVSb-!!;J- ;JGVSb-!!;J- ;JGVSb-!!;J- ;JGVSb-!!;J- ;JGVSb-!!;J- ;JGVSb-!!;J- ;JGVSb-!!;J- ;JGVSb-!!;J- ;JGVSb-!!;J- ;JGVSb-!!;J- ;JGVSb-!!;J- ;JGVSb-!!;J- ;JGVSb-!!;J- ;JGVSb-!!;J- ;JGVSb-!!;J- ;JGVSb-!!;J- ;JGVSb-!!;J- ;JGVSb-!!;J- ;JGVSb-!!;J- ;JGVSb-!!;J- ;JGVSb-!!;J- ;JGVSb-!!;J- ;JGVSb-!!;J- ;JGVSb-!!;J- ;JGVSb-!!;J- ;JGVSb-!!;J- ;JGVSb-!!;J- ;JGVSb-!!;J- ;JGVSb-!!;J- ;JGVSb-!!;J- ;JGVSb-!!;J- ;JGVSb-!!;J- ;JGVSb-!!;J- ;JGVSb-!!;J- ;JGVSb-!!;J- ;JGVSb-!!;J- ;JGVSb-!!;J- ;JGVSb-!!;J- ;JGVSb-!!;J- ;JGVSb-!!;J- ;JGVSb-!!;J- ;JGVSb-!!;J- ;JGVSb-!!;J- ;JGVSb-!!;J- ;=JGIVSUb-!!;=J- ;=JGIVSUb-!!;=J- ;=JGIVSUb-!!;=J- ;=JGIVSUb-!!;=J- ;=JGIVSUb-!!;=J- ;=JGIVSUb-!!;=J- ;=JGIVSUb-!!;=J- ;=JGIVSUb-!!;=J- =JIVUb-!!=J- =JIVUb-!!=J- =JIVUb-!!=J- =JIVUb-!!=J- =JIVUb-!!=J- =JIVUb-!!=J- =JIVUb-!!=J- =JIVUb-!!=J- =JIVUb-!!=J- =JIVUb-!!=J- =JIVUb-!!=J- =JIVUb-!!=J- =JIVUb-!!=J- =JIVUb-!!=J- =JIVUb-!!=J- =JIVUb-!!=J- =JIVUb-!!=J- =JIVUb-!!=J- =JIVUb-!!=J- =JIVUb-!!=J- =JIVUb-!!=J- =JIVUb-!!=J- =JIVUb-!!=J- =JIVUb-!!=J- =JIVUb-!!=J- =JIVUb-!!=J- =JIVUb-!!=J- =JIVUb-!!=J- =JIVUb-!!=J- =JIVUb-!!=J- =JIVUb-!!=J- =JIVUb-!!=J- =JIVUb-!!=J- =JIVUb-!!=J- =JIVUb-!!=J- =JIVUb-!!=J- =JIVUb-!!=J- =JIVUb-!!=J- =JIVUb-!!=J- =JIVUb-!!=J- =JIVUb-!!=J- =JIVUb-!!=J- =JIVUb-!!=J- =JIVUb-!!=J- =JIVUb-!!=J- =JIVUb-!!=J- =JIVUb-!!=J- =JIVUb-!!=J- =JIVUb-!!=J- =JIVUb-!!=J- =JIVUb-!!=J- =>JIJVUVb-!!=>J- =>JIJVUVb-!!=>J- >JJVVb-!!>J- >JJVVb-!!>J- >JJVVb-!!>J- >JJVVb-!!>J- >JJVVb-!!>J- >JJVVb-!!>J- >JJVVb-!!>J- >JJVVb-!!>J- >JJVVb-!!>J- >JJVVb-!!>J- >JJVVb-!!>J- >JJVVb-!!>J- >JJVVb-!!>J- >JJVVb-!!>J- >JJVVb-!!>J- >JJVVb-!!>J- >JJVVb-!!>J- >JJVVb-!!>J- >JJVVb-!!>J- >JJVVb-!!>J- >JJVVb-!!>J- >JJVVb-!!>J- >JJVVb-!!>J- >JJVVb-!!>J- >JJVVb-!!>J- >JJVVb-!!>J- >JJVVb-!!>J- >JJVVb-!!>J- >JJVVb-!!>J- >JJVVb-!!>J- >JJVVb-!!>J- >JJVVb-!!>J- >JJVVb-!!>J- >JJVVb-!!>J- >JJVVb-!!>J- >JJVVb-!!>J- >JJVVb-!!>J- >JJVVb-!!>J- >JJVVb-!!>J- >JJVVb-!!>J- >JJVVb-!!>J- >JJVVb-!!>J- >JJVVb-!!>J- >JJVVb-!!>J- >JJVVb-!!>J- >JJVVb-!!>J- >JJVVb-!!>J- >JJVVb-!!>J- >JJVVb-!!>J- >JJVVb-!!>J- >JJVVb-!!>J- >JJVVb-!!>J- >JJVVb-!!>J- >JJVVb-!!>J- >JJVVb-!!>J- >JJVVb-!!>J- >JJVVb-!!>J- >JJVVb-!!>J- >JJVVb-!!>J- >JJVVb-!!>J- >@JJLVVXb-!!>@J- @JLVXb-!!@J- @JLVXb-!!@J- @JLVXb-!!@J- @JLVXb-!!@J- @JLVXb-!!@J- @JLVXb-!!@J- @JLVXb-!!@J- @JLVXb-!!@J- @JLVXb-!!@J- @JLVXb-!!@J- @JLVXb-!!@J- @JLVXb-!!@J- @JLVXb-!!@J- @JLVXb-!!@J- @JLVXb-!!@J- @JLVXb-!!@J- @JLVXb-!!@J- @JLVXb-!!@J- @JLVXb-!!@J- @JLVXb-!!@J- @JLVXb-!!@J- @JLVXb-!!@J- @JLVXb-!!@J- @JLVXb-!!@J- @JLVXb-!!@J- @JLVXb-!!@J- @JLVXb-!!@J- @JLVXb-!!@J- @JLVXb-!!@J- @JLVXb-!!@J- @JLVXb-!!@J- @JLVXb-!!@J- @JLVXb-!!@J- @JLVXb-!!@J- @JLVXb-!!@J- @JLVXb-!!@J- @JLVXb-!!@J- @JLVXb-!!@J- @JLVXb-!!@J- @JLVXb-!!@J- @JLVXb-!!@J- @JLVXb-!!@J- @JLVXb-!!@J- @JLVXb-!!@J- @JLVXb-!!@J- @JLVXb-!!@J- @JLVXb-!!@J- @JLVXb-!!@J- @JLVXb-!!@J- @JLVXb-!!@J- @JLVXb-!!@J- @JLVXb-!!@J- @JLVXb-!!@J- @JLVXb-!!@J- @JLVXb-!!@J- @JLVXb-!!@J- @JLVXb-!!@J- @JLVXb-!!@J- @JLVXb-!!@J- @JLVXb-!!@J- @JLVXb-!!@J- @JLVXb-!!@J- @BJLNVXZb-!!@BJ- @BJLNVXZb-!!@BJ- @BJLNVXZb-!!@BJ- @BJLNVXZb-!!@BJ- @BJLNVXZb-!!@BJ- @BJLNVXZb-!!@BJ- @BJLNVXZb-!!@BJ- @BJLNVXZb-!!@BJ- BJNVZb-!!BJ- BJNVZb-!!BJ- BJNVZb-!!BJ- BJNVZb-!!BJ- BJNVZb-!!BJ- BJNVZb-!!BJ- BJNVZb-!!BJ- BJNVZb-!!BJ- BJNVZb-!!BJ- BJNVZb-!!BJ- BJNVZb-!!BJ- BJNVZb-!!BJ- BJNVZb-!!BJ- BJNVZb-!!BJ- BJNVZb-!!BJ- BJNVZb-!!BJ- BJNVZb-!!BJ- BJNVZb-!!BJ- BJNVZb-!!BJ- BJNVZb-!!BJ- BJNVZb-!!BJ- BJNVZb-!!BJ- BJNVZb-!!BJ- BJNVZb-!!BJ- BJNVZb-!!BJ- BJNVZb-!!BJ- BJNVZb-!!BJ- BJNVZb-!!BJ- BJNVZb-!!BJ- BJNVZb-!!BJ- BJNVZb-!!BJ- BJNVZb-!!BJ- BJNVZb-!!BJ- BJNVZb-!!BJ- BJNVZb-!!BJ- BJNVZb-!!BJ- BJNVZb-!!BJ- BJNVZb-!!BJ- BJNVZb-!!BJ- BJNVZb-!!BJ- BJNVZb-!!BJ- BJNVZb-!!BJ- BJNVZb-!!BJ- BJNVZb-!!BJ- BJNVZb-!!BJ- BJNVZb-!!BJ- BJNVZb-!!BJ- BJNVZb-!!BJ- BJNVZb-!!BJ- BJNVZb-!!BJ- BJNVZb-!!BJ- BJNVZb-!!BJ- BJNVZb-!!BJ- BDJNPVZ\b-!!BDJ- BDJNPVZ\b-!!BDJ- BDJNPVZ\b-!!BDJ- BDJNPVZ\b-!!BDJ- DJPV\b-!!DJ- DJPV\b-!!DJ- DJPV\b-!!DJ- DJPV\b-!!DJ- DJPV\b-!!DJ- DJPV\b-!!DJ- DJPV\b-!!DJ- DJPV\b-!!DJ- DJPV\b-!!DJ- DJPV\b-!!DJ- DJPV\b-!!DJ- DJPV\b-!!DJ- DJPV\b-!!DJ- DJPV\b-!!DJ- DJPV\b-!!DJ- DJPV\b-!!DJ- DJPV\b-!!DJ- DJPV\b-!!DJ- DJPV\b-!!DJ- DJPV\b-!!DJ- DJPV\b-!!DJ- DJPV\b-!!DJ- DJPV\b-!!DJ- DJPV\b-!!DJ- DJPV\b-!!DJ- DJPV\b-!!DJ- DJPV\b-!!DJ- DJPV\b-!!DJ- DJPV\b-!!DJ- DJPV\b-!!DJ- DJPV\b-!!DJ- DJPV\b-!!DJ- DJPV\b-!!DJ- DJPV\b-!!DJ- DJPV\b-!!DJ- DJPV\b-!!DJ- DJPV\b-!!DJ- DJPV\b-!!DJ- DJPV\b-!!DJ- DJPV\b-!!DJ- DJPV\b-!!DJ- DJPV\b-!!DJ- DJPV\b-!!DJ- DJPV\b-!!DJ- DJPV\b-!!DJ- DJPV\b-!!DJ- DJPV\b-!!DJ- DJPV\b-!!DJ- DJPV\b-!!DJ- DJPV\b-!!DJ- DJPV\b-!!DJ- DJPV\b-!!DJ- JVb-!!J- JVb-!!J- EJQV]b-!!EJ- EJQV]b-!!EJ- EJQV]b-!!EJ- EJQV]b-!!EJ- EJQV]b-!!EJ- EJQV]b-!!EJ- EJQV]b-!!EJ- EJQV]b-!!EJ- EJQV]b-!!EJ- EJQV]b-!!EJ- EJQV]b-!!EJ- EJQV]b-!!EJ- EJQV]b-!!EJ- EJQV]b-!!EJ- EJQV]b-!!EJ- EJQV]b-!!EJ- EJQV]b-!!EJ- EJQV]b-!!EJ- EJQV]b-!!EJ- EJQV]b-!!EJ- EJQV]b-!!EJ- EJQV]b-!!EJ- EJQV]b-!!EJ- EJQV]b-!!EJ- EJQV]b-!!EJ- EJQV]b-!!EJ- EJQV]b-!!EJ- EJQV]b-!!EJ- EJQV]b-!!EJ- EJQV]b-!!EJ- EJQV]b-!!EJ- EJQV]b-!!EJ- EJQV]b-!!EJ- EJQV]b-!!EJ- EJQV]b-!!EJ- EJQV]b-!!EJ- JVb-!!J- JVb-!!J- JVb-!!J- JVb-!!J- JVb-!!J- JVb-!!J- JVb-!!J- JVb-!!J- JVb-!!J- JVb-!!J- JVb-!!J- JVb-!!J- JVb-!!J- JVb-!!J- JVb-!!J- JVb-!!J- JVb-!!J- JVb-!!J- JVb-!!J- JVb-!!J- JVb-!!J- JVb-!!J- JVb-!!J- JVb-!!J- DJPV\b-!!DJ- DJPV\b-!!DJ- DJPV\b-!!DJ- DJPV\b-!!DJ- DJPV\b-!!DJ- DJPV\b-!!DJ- DJPV\b-!!DJ- DJPV\b-!!DJ- DJPV\b-!!DJ- DJPV\b-!!DJ- DJPV\b-!!DJ- DJPV\b-!!DJ- DJPV\b-!!DJ- DJPV\b-!!DJ- DJPV\b-!!DJ- DJPV\b-!!DJ- DJPV\b-!!DJ- DJPV\b-!!DJ- DJPV\b-!!DJ- DJPV\b-!!DJ- DJPV\b-!!DJ- DJPV\b-!!DJ- DJPV\b-!!DJ- DJPV\b-!!DJ- DJPV\b-!!DJ- DJPV\b-!!DJ- DJPV\b-!!DJ- DJPV\b-!!DJ- DJPV\b-!!DJ- DJPV\b-!!DJ- DJPV\b-!!DJ- DJPV\b-!!DJ- DJPV\b-!!DJ- DJPV\b-!!DJ- DJPV\b-!!DJ- DJPV\b-!!DJ- DJPV\b-!!DJ- DJPV\b-!!DJ- DJPV\b-!!DJ- DJPV\b-!!DJ- DJPV\b-!!DJ- DJPV\b-!!DJ- DJPV\b-!!DJ- DJPV\b-!!DJ- DJPV\b-!!DJ- DJPV\b-!!DJ- DJPV\b-!!DJ- DJPV\b-!!DJ- DJPV\b-!!DJ- DJPV\b-!!DJ- DJPV\b-!!DJ- DJPV\b-!!DJ- DJPV\b-!!DJ- DJPV\b-!!DJ- DJPV\b-!!DJ- DJPV\b-!!DJ- DJPV\b-!!DJ- DJPV\b-!!DJ- DJPV\b-!!DJ- DJPV\b-!!DJ- DJPV\b-!!DJ- JVb-!!J- JVb-!!J- JVb-!!J- JVb-!!J- JVb-!!J- GJSV_b-!!GJ- GJSV_b-!!GJ- GJSV_b-!!GJ- GJSV_b-!!GJ- GJSV_b-!!GJ- GJSV_b-!!GJ- GJSV_b-!!GJ- GJSV_b-!!GJ- GJSV_b-!!GJ- GJSV_b-!!GJ- GJSV_b-!!GJ- GJSV_b-!!GJ- GJSV_b-!!GJ- GJSV_b-!!GJ- GJSV_b-!!GJ- GJSV_b-!!GJ- GJSV_b-!!GJ- GJSV_b-!!GJ- GJSV_b-!!GJ- GJSV_b-!!GJ- GJSV_b-!!GJ- GJSV_b-!!GJ- GJSV_b-!!GJ- GJSV_b-!!GJ- GJSV_b-!!GJ- GJSV_b-!!GJ- GJSV_b-!!GJ- GJSV_b-!!GJ- GJSV_b-!!GJ- GJSV_b-!!GJ- GJSV_b-!!GJ- GJSV_b-!!GJ- GJSV_b-!!GJ- GJSV_b-!!GJ- GJSV_b-!!GJ- GJSV_b-!!GJ- GJSV_b-!!GJ- GJSV_b-!!GJ- GJSV_b-!!GJ- GJSV_b-!!GJ- GJSV_b-!!GJ- GJSV_b-!!GJ- GJSV_b-!!GJ- GJSV_b-!!GJ- GJSV_b-!!GJ- GJSV_b-!!GJ- GJSV_b-!!GJ- GJSV_b-!!GJ- GJSV_b-!!GJ- GJSV_b-!!GJ- GJSV_b-!!GJ- GJSV_b-!!GJ- GJSV_b-!!GJ- GEJSQV_]b-!!GEJ- EJQV]b-!!EJ- EJQV]b-!!EJ- EJQV]b-!!EJ- EJQV]b-!!EJ- EJQV]b-!!EJ- EJQV]b-!!EJ- EJQV]b-!!EJ- EJQV]b-!!EJ- EJQV]b-!!EJ- EJQV]b-!!EJ- EJQV]b-!!EJ- EJQV]b-!!EJ- EJQV]b-!!EJ- EJQV]b-!!EJ- EJQV]b-!!EJ- EJQV]b-!!EJ- EJQV]b-!!EJ- EJQV]b-!!EJ- EJQV]b-!!EJ- EJQV]b-!!EJ- EJQV]b-!!EJ- EJQV]b-!!EJ- EJQV]b-!!EJ- EJQV]b-!!EJ- EJQV]b-!!EJ- EJQV]b-!!EJ- EJQV]b-!!EJ- EJQV]b-!!EJ- EJQV]b-!!EJ- EJQV]b-!!EJ- EJQV]b-!!EJ- EJQV]b-!!EJ- EJQV]b-!!EJ- EJQV]b-!!EJ- EJQV]b-!!EJ- EJQV]b-!!EJ- EJQV]b-!!EJ- EJQV]b-!!EJ- EJQV]b-!!EJ- EJQV]b-!!EJ- EJQV]b-!!EJ- EJQV]b-!!EJ- EJQV]b-!!EJ- EJQV]b-!!EJ- EJQV]b-!!EJ- EJQV]b-!!EJ- EJQV]b-!!EJ- EJQV]b-!!EJ- EJQV]b-!!EJ- EJQV]b-!!EJ- EJQV]b-!!EJ- EJQV]b-!!EJ- EJQV]b-!!EJ- EJQV]b-!!EJ- EJQV]b-!!EJ- EJQV]b-!!EJ- EJQV]b-!!EJ- DJPV\b-!!DJ- DJPV\b-!!DJ- DJPV\b-!!DJ- DJPV\b-!!DJ- DJPV\b-!!DJ- DJPV\b-!!DJ- DJPV\b-!!DJ- DJPV\b-!!DJ- DJPV\b-!!DJ- DJPV\b-!!DJ- DJPV\b-!!DJ- DJPV\b-!!DJ- DJPV\b-!!DJ- DJPV\b-!!DJ- DJPV\b-!!DJ- DJPV\b-!!DJ- DJPV\b-!!DJ- DJPV\b-!!DJ- DJPV\b-!!DJ- DJPV\b-!!DJ- DJPV\b-!!DJ- DJPV\b-!!DJ- DJPV\b-!!DJ- DJPV\b-!!DJ- DJPV\b-!!DJ- DJPV\b-!!DJ- DJPV\b-!!DJ- DJPV\b-!!DJ- DJPV\b-!!DJ- DJPV\b-!!DJ- DJPV\b-!!DJ- DJPV\b-!!DJ- DJPV\b-!!DJ- DJPV\b-!!DJ- DJPV\b-!!DJ- DJPV\b-!!DJ- DJPV\b-!!DJ- DJPV\b-!!DJ- DJPV\b-!!DJ- DJPV\b-!!DJ- DJPV\b-!!DJ- DJPV\b-!!DJ- DJPV\b-!!DJ- DJPV\b-!!DJ- DJPV\b-!!DJ- DJPV\b-!!DJ- DJPV\b-!!DJ- DJPV\b-!!DJ- DJPV\b-!!DJ- DJPV\b-!!DJ- DJPV\b-!!DJ- DJPV\b-!!DJ- DJPV\b-!!DJ- DJPV\b-!!DJ- DJPV\b-!!DJ- DJPV\b-!!DJ- DJPV\b-!!DJ- DJPV\b-!!DJ- DJPV\b-!!DJ- DJPV\b-!!DJ- DJPV\b-!!DJ- DJPV\b-!!DJ- DJPV\b-!!DJ- JVb-!!J- JVb-!!J- EJQV]b-!!EJ- EJQV]b-!!EJ- EJQV]b-!!EJ- EJQV]b-!!EJ- EJQV]b-!!EJ- EJQV]b-!!EJ- EJQV]b-!!EJ- EJQV]b-!!EJ- EJQV]b-!!EJ- EJQV]b-!!EJ- EJQV]b-!!EJ- EJQV]b-!!EJ- EJQV]b-!!EJ- EJQV]b-!!EJ- EJQV]b-!!EJ- EJQV]b-!!EJ- EJQV]b-!!EJ- EJQV]b-!!EJ- EJQV]b-!!EJ- EJQV]b-!!EJ- EJQV]b-!!EJ- EJQV]b-!!EJ- EJQV]b-!!EJ- EJQV]b-!!EJ- EJQV]b-!!EJ- EJQV]b-!!EJ- EJQV]b-!!EJ- EJQV]b-!!EJ- EJQV]b-!!EJ- EJQV]b-!!EJ- EJQV]b-!!EJ- EJQV]b-!!EJ- EJQV]b-!!EJ- EJQV]b-!!EJ- EJQV]b-!!EJ- EJQV]b-!!EJ- EJQV]b-!!EJ- EJQV]b-!!EJ- EJQV]b-!!EJ- EJQV]b-!!EJ- EJQV]b-!!EJ- EJQV]b-!!EJ- EJQV]b-!!EJ- EJQV]b-!!EJ- EJQV]b-!!EJ- EJQV]b-!!EJ- EJQV]b-!!EJ- EJQV]b-!!EJ- EJQV]b-!!EJ- EJQV]b-!!EJ- EJQV]b-!!EJ- EJQV]b-!!EJ- EJQV]b-!!EJ- EJQV]b-!!EJ- EJQV]b-!!EJ- EJQV]b-!!EJ- EJQV]b-!!EJ- EJQV]b-!!EJ- EJQV]b-!!EJ- EJQV]b-!!EJ- EJQV]b-!!EJ- CEJOQV[]b-!!CEJ- CEJOQV[]b-!!CEJ- CEJOQV[]b-!!CEJ- CEJOQV[]b-!!CEJ- CEJOQV[]b-!!CEJ- CEJOQV[]b-!!CEJ- CEJOQV[]b-!!CEJ- CEJOQV[]b-!!CEJ- CEJOQV[]b-!!CEJ- CEJOQV[]b-!!CEJ- CEJOQV[]b-!!CEJ- CEJOQV[]b-!!CEJ- CEJOQV[]b-!!CEJ- CEJOQV[]b-!!CEJ- CEJOQV[]b-!!CEJ- CEJOQV[]b-!!CEJ- CEJOQV[]b-!!CEJ- CEJOQV[]b-!!CEJ- CEJOQV[]b-!!CEJ- CEJOQV[]b-!!CEJ- CEJOQV[]b-!!CEJ- CEJOQV[]b-!!CEJ- CEJOQV[]b-!!CEJ- CEJOQV[]b-!!CEJ- CEJOQV[]b-!!CEJ- CEJOQV[]b-!!CEJ- CEJOQV[]b-!!CEJ- CEJOQV[]b-!!CEJ- CEJOQV[]b-!!CEJ- CEJOQV[]b-!!CEJ- CEJOQV[]b-!!CEJ- CEJOQV[]b-!!CEJ- CEJOQV[]b-!!CEJ- CEJOQV[]b-!!CEJ- CEJOQV[]b-!!CEJ- CEJOQV[]b-!!CEJ- CEJOQV[]b-!!CEJ- CEJOQV[]b-!!CEJ- CEJOQV[]b-!!CEJ- CEJOQV[]b-!!CEJ- CEJOQV[]b-!!CEJ- CEJOQV[]b-!!CEJ- CEJOQV[]b-!!CEJ- CEJOQV[]b-!!CEJ- CEJOQV[]b-!!CEJ- CEJOQV[]b-!!CEJ- CEJOQV[]b-!!CEJ- CEJOQV[]b-!!CEJ- CEJOQV[]b-!!CEJ- CEJOQV[]b-!!CEJ- CEJOQV[]b-!!CEJ- CEJOQV[]b-!!CEJ- CEJOQV[]b-!!CEJ- CEJOQV[]b-!!CEJ- CEJOQV[]b-!!CEJ- CEJOQV[]b-!!CEJ- CEJOQV[]b-!!CEJ- CEJOQV[]b-!!CEJ- CEJOQV[]b-!!CEJ- CBEJONQV[Z]b-!!CBEJ- CBEJONQV[Z]b-!!CBEJ- BEJNQVZ]b-!!BEJ- BEJNQVZ]b-!!BEJ- BEJNQVZ]b-!!BEJ- BEJNQVZ]b-!!BEJ- BEJNQVZ]b-!!BEJ- BEJNQVZ]b-!!BEJ- BEJNQVZ]b-!!BEJ- BEJNQVZ]b-!!BEJ- BEJNQVZ]b-!!BEJ- BEJNQVZ]b-!!BEJ- BEJNQVZ]b-!!BEJ- BEJNQVZ]b-!!BEJ- BEJNQVZ]b-!!BEJ- BEJNQVZ]b-!!BEJ- BEJNQVZ]b-!!BEJ- BEJNQVZ]b-!!BEJ- BEJNQVZ]b-!!BEJ- BEJNQVZ]b-!!BEJ- BEJNQVZ]b-!!BEJ- BEJNQVZ]b-!!BEJ- BEJNQVZ]b-!!BEJ- BEJNQVZ]b-!!BEJ- BEJNQVZ]b-!!BEJ- BEJNQVZ]b-!!BEJ- BEJNQVZ]b-!!BEJ- BEJNQVZ]b-!!BEJ- BEJNQVZ]b-!!BEJ- BEJNQVZ]b-!!BEJ- BEJNQVZ]b-!!BEJ- BEJNQVZ]b-!!BEJ- BEJNQVZ]b-!!BEJ- BEJNQVZ]b-!!BEJ- BEJNQVZ]b-!!BEJ- BEJNQVZ]b-!!BEJ- BEJNQVZ]b-!!BEJ- BEJNQVZ]b-!!BEJ- BEJNQVZ]b-!!BEJ- BEJNQVZ]b-!!BEJ- BEJNQVZ]b-!!BEJ- BEJNQVZ]b-!!BEJ- BEJNQVZ]b-!!BEJ- BEJNQVZ]b-!!BEJ- BEJNQVZ]b-!!BEJ- BEJNQVZ]b-!!BEJ- BEJNQVZ]b-!!BEJ- BEJNQVZ]b-!!BEJ- BEJNQVZ]b-!!BEJ- BEJNQVZ]b-!!BEJ- BEJNQVZ]b-!!BEJ- BEJNQVZ]b-!!BEJ- BEJNQVZ]b-!!BEJ- BEJNQVZ]b-!!BEJ- BEJNQVZ]b-!!BEJ- B@EJNLQVZX]b-!!B@EJ- B@EJNLQVZX]b-!!B@EJ- B@EJNLQVZX]b-!!B@EJ- @EJLQVX]b-!!@EJ- @EJLQVX]b-!!@EJ- @EJLQVX]b-!!@EJ- @EJLQVX]b-!!@EJ- @EJLQVX]b-!!@EJ- @EJLQVX]b-!!@EJ- @EJLQVX]b-!!@EJ- @EJLQVX]b-!!@EJ- @EJLQVX]b-!!@EJ- @EJLQVX]b-!!@EJ- @EJLQVX]b-!!@EJ- @EJLQVX]b-!!@EJ- @EJLQVX]b-!!@EJ- @EJLQVX]b-!!@EJ- @EJLQVX]b-!!@EJ- @EJLQVX]b-!!@EJ- @EJLQVX]b-!!@EJ- @EJLQVX]b-!!@EJ- @EJLQVX]b-!!@EJ- @EJLQVX]b-!!@EJ- @EJLQVX]b-!!@EJ- @EJLQVX]b-!!@EJ- @EJLQVX]b-!!@EJ- @EJLQVX]b-!!@EJ- @EJLQVX]b-!!@EJ- @EJLQVX]b-!!@EJ- @EJLQVX]b-!!@EJ- @EJLQVX]b-!!@EJ- @EJLQVX]b-!!@EJ- @EJLQVX]b-!!@EJ- @EJLQVX]b-!!@EJ- @EJLQVX]b-!!@EJ- @EJLQVX]b-!!@EJ- @EJLQVX]b-!!@EJ- @EJLQVX]b-!!@EJ- @EJLQVX]b-!!@EJ- @EJLQVX]b-!!@EJ- @EJLQVX]b-!!@EJ- @EJLQVX]b-!!@EJ- @EJLQVX]b-!!@EJ- @EJLQVX]b-!!@EJ- @EJLQVX]b-!!@EJ- @EJLQVX]b-!!@EJ- @EJLQVX]b-!!@EJ- @EJLQVX]b-!!@EJ- @EJLQVX]b-!!@EJ- @EJLQVX]b-!!@EJ- @EJLQVX]b-!!@EJ- @BEJLNQVXZ]b-!!@BEJ- @BEJLNQVXZ]b-!!@BEJ- @BEJLNQVXZ]b-!!@BEJ- @BEJLNQVXZ]b-!!@BEJ- @BEJLNQVXZ]b-!!@BEJ- BEJNQVZ]b-!!BEJ- BEJNQVZ]b-!!BEJ- BEJNQVZ]b-!!BEJ- BEJNQVZ]b-!!BEJ- >BEJJNQVVZ]b-!!>BEJ- >BEJJNQVVZ]b-!!>BEJ- >BEJJNQVVZ]b-!!>BEJ- >BEJJNQVVZ]b-!!>BEJ- >BEJJNQVVZ]b-!!>BEJ- >BEJJNQVVZ]b-!!>BEJ- >BEJJNQVVZ]b-!!>BEJ- >BEJJNQVVZ]b-!!>BEJ- >BEJJNQVVZ]b-!!>BEJ- >BEJJNQVVZ]b-!!>BEJ- >BEJJNQVVZ]b-!!>BEJ- >BEJJNQVVZ]b-!!>BEJ- >BEJJNQVVZ]b-!!>BEJ- >BEJJNQVVZ]b-!!>BEJ- >BEJJNQVVZ]b-!!>BEJ- >BEJJNQVVZ]b-!!>BEJ- >BEJJNQVVZ]b-!!>BEJ- >BEJJNQVVZ]b-!!>BEJ- >BEJJNQVVZ]b-!!>BEJ- >BEJJNQVVZ]b-!!>BEJ- >BEJJNQVVZ]b-!!>BEJ- >BEJJNQVVZ]b-!!>BEJ- >BEJJNQVVZ]b-!!>BEJ- >BEJJNQVVZ]b-!!>BEJ- >BEJJNQVVZ]b-!!>BEJ- >BEJJNQVVZ]b-!!>BEJ- >BEJJNQVVZ]b-!!>BEJ- >BEJJNQVVZ]b-!!>BEJ- >BEJJNQVVZ]b-!!>BEJ- >BEJJNQVVZ]b-!!>BEJ- >BEJJNQVVZ]b-!!>BEJ- >BEJJNQVVZ]b-!!>BEJ- >BEJJNQVVZ]b-!!>BEJ- >BEJJNQVVZ]b-!!>BEJ- >BEJJNQVVZ]b-!!>BEJ- >BEJJNQVVZ]b-!!>BEJ- >BEJJNQVVZ]b-!!>BEJ- >BEJJNQVVZ]b-!!>BEJ- >BEJJNQVVZ]b-!!>BEJ- >BEJJNQVVZ]b-!!>BEJ- >BEJJNQVVZ]b-!!>BEJ- >BEJJNQVVZ]b-!!>BEJ- >BEJJNQVVZ]b-!!>BEJ- >BEJJNQVVZ]b-!!>BEJ- >BEJJNQVVZ]b-!!>BEJ- >BEJJNQVVZ]b-!!>BEJ- >BEJJNQVVZ]b-!!>BEJ- >BEJJNQVVZ]b-!!>BEJ- >BEJJNQVVZ]b-!!>BEJ- >BEJJNQVVZ]b-!!>BEJ- >BEJJNQVVZ]b-!!>BEJ- >BEJJNQVVZ]b-!!>BEJ- >BEJJNQVVZ]b-!!>BEJ- >=BEJJINQVVUZ]b-!!>=BEJ- >=BEJJINQVVUZ]b-!!>=BEJ- >=BEJJINQVVUZ]b-!!>=BEJ- >=BEJJINQVVUZ]b-!!>=BEJ- =BEJINQVUZ]b-!!=BEJ- =BEJINQVUZ]b-!!=BEJ- =BEJINQVUZ]b-!!=BEJ- =BEJINQVUZ]b-!!=BEJ- =BEJINQVUZ]b-!!=BEJ- =BEJINQVUZ]b-!!=BEJ- =BEJINQVUZ]b-!!=BEJ- =BEJINQVUZ]b-!!=BEJ- =BEJINQVUZ]b-!!=BEJ- =BEJINQVUZ]b-!!=BEJ- =BEJINQVUZ]b-!!=BEJ- =BEJINQVUZ]b-!!=BEJ- =BEJINQVUZ]b-!!=BEJ- =BEJINQVUZ]b-!!=BEJ- =BEJINQVUZ]b-!!=BEJ- =BEJINQVUZ]b-!!=BEJ- =BEJINQVUZ]b-!!=BEJ- =BEJINQVUZ]b-!!=BEJ- =BEJINQVUZ]b-!!=BEJ- =BEJINQVUZ]b-!!=BEJ- =BEJINQVUZ]b-!!=BEJ- =BEJINQVUZ]b-!!=BEJ- =BEJINQVUZ]b-!!=BEJ- =BEJINQVUZ]b-!!=BEJ- =BEJINQVUZ]b-!!=BEJ- =BEJINQVUZ]b-!!=BEJ- =BEJINQVUZ]b-!!=BEJ- =BEJINQVUZ]b-!!=BEJ- =BEJINQVUZ]b-!!=BEJ- =BEJINQVUZ]b-!!=BEJ- =BEJINQVUZ]b-!!=BEJ- =BEJINQVUZ]b-!!=BEJ- =BEJINQVUZ]b-!!=BEJ- =BEJINQVUZ]b-!!=BEJ- =BEJINQVUZ]b-!!=BEJ- =BEJINQVUZ]b-!!=BEJ- =BEJINQVUZ]b-!!=BEJ- =BEJINQVUZ]b-!!=BEJ- =BEJINQVUZ]b-!!=BEJ- =BEJINQVUZ]b-!!=BEJ- =BEJINQVUZ]b-!!=BEJ- =BEJINQVUZ]b-!!=BEJ- =BEJINQVUZ]b-!!=BEJ- =BEJINQVUZ]b-!!=BEJ- =BEJINQVUZ]b-!!=BEJ- =BEJINQVUZ]b-!!=BEJ- =BEJINQVUZ]b-!!=BEJ- =BEJINQVUZ]b-!!=BEJ- =BEJINQVUZ]b-!!=BEJ- =BEJINQVUZ]b-!!=BEJ- =BEJINQVUZ]b-!!=BEJ- =BEJINQVUZ]b-!!=BEJ- =BEJINQVUZ]b-!!=BEJ- =BEJINQVUZ]b-!!=BEJ- BEJNQVZ]b-!!BEJ- ;BEJGNQVSZ]b-!!;BEJ- ;BEJGNQVSZ]b-!!;BEJ- ;BEJGNQVSZ]b-!!;BEJ- ;BEJGNQVSZ]b-!!;BEJ- ;BEJGNQVSZ]b-!!;BEJ- ;BEJGNQVSZ]b-!!;BEJ- ;BEJGNQVSZ]b-!!;BEJ- ;BEJGNQVSZ]b-!!;BEJ- ;BEJGNQVSZ]b-!!;BEJ- ;BEJGNQVSZ]b-!!;BEJ- ;BEJGNQVSZ]b-!!;BEJ- ;BEJGNQVSZ]b-!!;BEJ- ;BEJGNQVSZ]b-!!;BEJ- ;BEJGNQVSZ]b-!!;BEJ- ;BEJGNQVSZ]b-!!;BEJ- ;BEJGNQVSZ]b-!!;BEJ- ;BEJGNQVSZ]b-!!;BEJ- ;BEJGNQVSZ]b-!!;BEJ- ;BEJGNQVSZ]b-!!;BEJ- ;BEJGNQVSZ]b-!!;BEJ- ;BEJGNQVSZ]b-!!;BEJ- ;BEJGNQVSZ]b-!!;BEJ- ;BEJGNQVSZ]b-!!;BEJ- ;BEJGNQVSZ]b-!!;BEJ- ;BEJGNQVSZ]b-!!;BEJ- ;BEJGNQVSZ]b-!!;BEJ- ;BEJGNQVSZ]b-!!;BEJ- ;BEJGNQVSZ]b-!!;BEJ- ;BEJGNQVSZ]b-!!;BEJ- ;BEJGNQVSZ]b-!!;BEJ- ;BEJGNQVSZ]b-!!;BEJ- ;BEJGNQVSZ]b-!!;BEJ- ;BEJGNQVSZ]b-!!;BEJ- ;BEJGNQVSZ]b-!!;BEJ- ;BEJGNQVSZ]b-!!;BEJ- ;BEJGNQVSZ]b-!!;BEJ- ;BEJGNQVSZ]b-!!;BEJ- ;BEJGNQVSZ]b-!!;BEJ- ;BEJGNQVSZ]b-!!;BEJ- ;BEJGNQVSZ]b-!!;BEJ- ;BEJGNQVSZ]b-!!;BEJ- ;BEJGNQVSZ]b-!!;BEJ- ;BEJGNQVSZ]b-!!;BEJ- ;BEJGNQVSZ]b-!!;BEJ- ;BEJGNQVSZ]b-!!;BEJ- ;BEJGNQVSZ]b-!!;BEJ- ;BEJGNQVSZ]b-!!;BEJ- ;BEJGNQVSZ]b-!!;BEJ- ;BEJGNQVSZ]b-!!;BEJ- ;BEJGNQVSZ]b-!!;BEJ- ;BEJGNQVSZ]b-!!;BEJ- ;BEJGNQVSZ]b-!!;BEJ- ;BEJGNQVSZ]b-!!;BEJ- ;BEJGNQVSZ]b-!!;BEJ- ;BE9JGNQEVSZ]Qb-!!;BE9J- ;BE9JGNQEVSZ]Qb-!!;BE9J- ;BE9JGNQEVSZ]Qb-!!;BE9J- ;BE9JGNQEVSZ]Qb-!!;BE9J- BE9JNQEVZ]Qb-!!BE9J- BE9JNQEVZ]Qb-!!BE9J- BE9JNQEVZ]Qb-!!BE9J- BE9JNQEVZ]Qb-!!BE9J- BE9JNQEVZ]Qb-!!BE9J- BE9JNQEVZ]Qb-!!BE9J- BE9JNQEVZ]Qb-!!BE9J- BE9JNQEVZ]Qb-!!BE9J- BE9JNQEVZ]Qb-!!BE9J- BE9JNQEVZ]Qb-!!BE9J- BE9JNQEVZ]Qb-!!BE9J- BE9JNQEVZ]Qb-!!BE9J- BE9JNQEVZ]Qb-!!BE9J- BE9JNQEVZ]Qb-!!BE9J- BE9JNQEVZ]Qb-!!BE9J- BE9JNQEVZ]Qb-!!BE9J- BE9JNQEVZ]Qb-!!BE9J- BE9JNQEVZ]Qb-!!BE9J- BE9JNQEVZ]Qb-!!BE9J- BE9JNQEVZ]Qb-!!BE9J- BE9JNQEVZ]Qb-!!BE9J- BE9JNQEVZ]Qb-!!BE9J- BE9JNQEVZ]Qb-!!BE9J- BE9JNQEVZ]Qb-!!BE9J- E9JQEV]Qb-!!E9J- E9JQEV]Qb-!!E9J- E9JQEV]Qb-!!E9J- E9JQEV]Qb-!!E9J- E9JQEV]Qb-!!E9J- E9JQEV]Qb-!!E9J- E9JQEV]Qb-!!E9J- E9JQEV]Qb-!!E9J- E9JQEV]Qb-!!E9J- E9JQEV]Qb-!!E9J- E9JQEV]Qb-!!E9J- E9JQEV]Qb-!!E9J- 9JEVQb-!!9J- 9JEVQb-!!9J- 9JEVQb-!!9J- 9JEVQb-!!9J- 9JEVQb-!!9J- 9JEVQb-!!9J- 9JEVQb-!!9J- 9JEVQb-!!9J- 9JEVQb-!!9J- 9JEVQb-!!9J- 9JEVQb-!!9J- 9JEVQb-!!9J- 9JEVQb-!!9J- 9JEVQb-!!9J- 9JEVQb-!!9J- 9JEVQb-!!9J- 9JEVQb-!!9J- JVb-!!J- 8JDVPb-!!8J- 8JDVPb-!!8J- 8JDVPb-!!8J- 8JDVPb-!!8J- 8JDVPb-!!8J- 8JDVPb-!!8J- 8JDVPb-!!8J- 8JDVPb-!!8J- 8GJDSVP_b-!!8GJ- 8GJDSVP_b-!!8GJ- 8@GJDLSVPX_b-!!8@GJ- 8@GJDLSVPX_b-!!8@GJ- 8@GJDLSVPX_b-!!8@GJ- 8@GJDLSVPX_b-!!8@GJ- 8@GJDLSVPX_b-!!8@GJ- 8@GJDLSVPX_b-!!8@GJ- 8@GJDLSVPX_b-!!8@GJ- 8@GJDLSVPX_b-!!8@GJ- 8@GJDLSVPX_b-!!8@GJ- 8@GJDLSVPX_b-!!8@GJ- 8@GJDLSVPX_b-!!8@GJ- 8@GJDLSVPX_b-!!8@GJ- 8@GJDLSVPX_b-!!8@GJ- 8@GJDLSVPX_b-!!8@GJ- 8@GJDLSVPX_b-!!8@GJ- 8@GJDLSVPX_b-!!8@GJ- 8@GJDLSVPX_b-!!8@GJ- 8@GJDLSVPX_b-!!8@GJ- 8@GJDLSVPX_b-!!8@GJ- 8@GJDLSVPX_b-!!8@GJ- 8@GJDLSVPX_b-!!8@GJ- 8@GJDLSVPX_b-!!8@GJ- 8@GJDLSVPX_b-!!8@GJ- 8@GJDLSVPX_b-!!8@GJ- 8@GJDLSVPX_b-!!8@GJ- 8@GJDLSVPX_b-!!8@GJ- 8@GJDLSVPX_b-!!8@GJ- 8@GJDLSVPX_b-!!8@GJ- 8@GJDLSVPX_b-!!8@GJ- 8@GJDLSVPX_b-!!8@GJ- 8@GJDLSVPX_b-!!8@GJ- 8@GJDLSVPX_b-!!8@GJ- 8@GJDLSVPX_b-!!8@GJ- 8@GJDLSVPX_b-!!8@GJ- 8@GJDLSVPX_b-!!8@GJ- 8@GJDLSVPX_b-!!8@GJ- 8@GJDLSVPX_b-!!8@GJ- 8@GJDLSVPX_b-!!8@GJ- 8@GJDLSVPX_b-!!8@GJ- 8@GJDLSVPX_b-!!8@GJ- 8@GJDLSVPX_b-!!8@GJ- 8@GJDLSVPX_b-!!8@GJ- 8@GJDLSVPX_b-!!8@GJ- 8@GJDLSVPX_b-!!8@GJ- 8@GJDLSVPX_b-!!8@GJ- 8@GJDLSVPX_b-!!8@GJ- 8@GJDLSVPX_b-!!8@GJ- 8@GJDLSVPX_b-!!8@GJ- 8@GJDLSVPX_b-!!8@GJ- 8@GJDLSVPX_b-!!8@GJ- 8@GJDLSVPX_b-!!8@GJ- @GJLSVX_b-!!@GJ- @GJLSVX_b-!!@GJ- @GJLSVX_b-!!@GJ- @GJLSVX_b-!!@GJ- ;@GJGLSVSX_b-!!;@GJ- ;@GJGLSVSX_b-!!;@GJ- ;@GJGLSVSX_b-!!;@GJ- ;@GJGLSVSX_b-!!;@GJ- ;@GJGLSVSX_b-!!;@GJ- ;@GJGLSVSX_b-!!;@GJ- ;@GJGLSVSX_b-!!;@GJ- ;@GJGLSVSX_b-!!;@GJ- ;@GJGLSVSX_b-!!;@GJ- ;@GJGLSVSX_b-!!;@GJ- ;@GJGLSVSX_b-!!;@GJ- ;@GJGLSVSX_b-!!;@GJ- ;@GJGLSVSX_b-!!;@GJ- ;@GJGLSVSX_b-!!;@GJ- ;@GJGLSVSX_b-!!;@GJ- ;@GJGLSVSX_b-!!;@GJ- ;@GJGLSVSX_b-!!;@GJ- ;@GJGLSVSX_b-!!;@GJ- ;@GJGLSVSX_b-!!;@GJ- ;@GJGLSVSX_b-!!;@GJ- ;@GJGLSVSX_b-!!;@GJ- ;@GJGLSVSX_b-!!;@GJ- ;@GJGLSVSX_b-!!;@GJ- ;@GJGLSVSX_b-!!;@GJ- ;@GJGLSVSX_b-!!;@GJ- ;@GJGLSVSX_b-!!;@GJ- ;@GJGLSVSX_b-!!;@GJ- ;@GJGLSVSX_b-!!;@GJ- ;@GJGLSVSX_b-!!;@GJ- ;@GJGLSVSX_b-!!;@GJ- ;@GJGLSVSX_b-!!;@GJ- ;@GJGLSVSX_b-!!;@GJ- ;@GJGLSVSX_b-!!;@GJ- ;@GJGLSVSX_b-!!;@GJ- ;@GJGLSVSX_b-!!;@GJ- ;@GJGLSVSX_b-!!;@GJ- ;@GJGLSVSX_b-!!;@GJ- ;@GJGLSVSX_b-!!;@GJ- ;@GJGLSVSX_b-!!;@GJ- ;@GJGLSVSX_b-!!;@GJ- ;@GJGLSVSX_b-!!;@GJ- ;@GJGLSVSX_b-!!;@GJ- ;@GJGLSVSX_b-!!;@GJ- ;@GJGLSVSX_b-!!;@GJ- ;@GJGLSVSX_b-!!;@GJ- ;@GJGLSVSX_b-!!;@GJ- ;@GJGLSVSX_b-!!;@GJ- ;@GJGLSVSX_b-!!;@GJ- ;@GJGLSVSX_b-!!;@GJ- ;@GJGLSVSX_b-!!;@GJ- ;@GJGLSVSX_b-!!;@GJ- ;@GJGLSVSX_b-!!;@GJ- ;@GJGLSVSX_b-!!;@GJ- ;@GJGLSVSX_b-!!;@GJ- ;@GJGLSVSX_b-!!;@GJ- ;@GJGLSVSX_b-!!;@GJ- ;@GJGLSVSX_b-!!;@GJ- ;9@GJGELSVSQX_b-!!;9@GJ- 9@GJELSVQX_b-!!9@GJ- 9@GJELSVQX_b-!!9@GJ- 9@GJELSVQX_b-!!9@GJ- 9@GJELSVQX_b-!!9@GJ- 9@GJELSVQX_b-!!9@GJ- 9@GJELSVQX_b-!!9@GJ- 9@GJELSVQX_b-!!9@GJ- 9@GJELSVQX_b-!!9@GJ- 9@GJELSVQX_b-!!9@GJ- 9@GJELSVQX_b-!!9@GJ- 9@GJELSVQX_b-!!9@GJ- 9@GJELSVQX_b-!!9@GJ- 9@GJELSVQX_b-!!9@GJ- 9@GJELSVQX_b-!!9@GJ- 9@GJELSVQX_b-!!9@GJ- 9@GJELSVQX_b-!!9@GJ- 9@GJELSVQX_b-!!9@GJ- 9@GJELSVQX_b-!!9@GJ- 9@GJELSVQX_b-!!9@GJ- 9@GJELSVQX_b-!!9@GJ- 9@GJELSVQX_b-!!9@GJ- 9@GJELSVQX_b-!!9@GJ- 9@GJELSVQX_b-!!9@GJ- 9@GJELSVQX_b-!!9@GJ- 9@GJELSVQX_b-!!9@GJ- 9@GJELSVQX_b-!!9@GJ- 9@GJELSVQX_b-!!9@GJ- 9@GJELSVQX_b-!!9@GJ- 9@GJELSVQX_b-!!9@GJ- 9@GJELSVQX_b-!!9@GJ- 9@GJELSVQX_b-!!9@GJ- 9@GJELSVQX_b-!!9@GJ- 9@GJELSVQX_b-!!9@GJ- 9@GJELSVQX_b-!!9@GJ- 9@GJELSVQX_b-!!9@GJ- 9@GJELSVQX_b-!!9@GJ- 9@GJELSVQX_b-!!9@GJ- 9@GJELSVQX_b-!!9@GJ- 9@GJELSVQX_b-!!9@GJ- 9@GJELSVQX_b-!!9@GJ- 9@GJELSVQX_b-!!9@GJ- 9@GJELSVQX_b-!!9@GJ- 9@GJELSVQX_b-!!9@GJ- 9@GJELSVQX_b-!!9@GJ- 9@GJELSVQX_b-!!9@GJ- 9@GJELSVQX_b-!!9@GJ- 9@GJELSVQX_b-!!9@GJ- 9@8GJELDSVQXP_b-!!9@8GJ- @8GJLDSVXP_b-!!@8GJ- 8GJDSVP_b-!!8GJ- 8GJDSVP_b-!!8GJ- 8GJDSVP_b-!!8GJ- 8GJDSVP_b-!!8GJ- 8GJDSVP_b-!!8GJ- 8GJDSVP_b-!!8GJ- 8GJDSVP_b-!!8GJ- 8GJDSVP_b-!!8GJ- 8GJDSVP_b-!!8GJ- 8GJDSVP_b-!!8GJ- 8GJDSVP_b-!!8GJ- 8GJDSVP_b-!!8GJ- 8GJDSVP_b-!!8GJ- 8GJDSVP_b-!!8GJ- 8GJDSVP_b-!!8GJ- 8GJDSVP_b-!!8GJ- 8GJDSVP_b-!!8GJ- 8GJDSVP_b-!!8GJ- 8GJDSVP_b-!!8GJ- 8GJDSVP_b-!!8GJ- 8GJDSVP_b-!!8GJ- 8GJDSVP_b-!!8GJ- 8GJDSVP_b-!!8GJ- 8GJDSVP_b-!!8GJ- 8GJDSVP_b-!!8GJ- 8GJDSVP_b-!!8GJ- 8GJDSVP_b-!!8GJ- 8GJDSVP_b-!!8GJ- 8GJDSVP_b-!!8GJ- 8GJDSVP_b-!!8GJ- 8GJDSVP_b-!!8GJ- 8GJDSVP_b-!!8GJ- 8GJDSVP_b-!!8GJ- 8GJDSVP_b-!!8GJ- 8GJDSVP_b-!!8GJ- 8GJDSVP_b-!!8GJ- 8GJDSVP_b-!!8GJ- 8GJDSVP_b-!!8GJ- 8GJDSVP_b-!!8GJ- 8GJDSVP_b-!!8GJ- 8GJDSVP_b-!!8GJ- 8GJDSVP_b-!!8GJ- 8GJDSVP_b-!!8GJ- 8GJDSVP_b-!!8GJ- 8GJDSVP_b-!!8GJ- 8GJDSVP_b-!!8GJ- 8GJDSVP_b-!!8GJ- 8GJDSVP_b-!!8GJ- 8GJDSVP_b-!!8GJ- 8GJDSVP_b-!!8GJ- 8GJDSVP_b-!!8GJ- 8GJDSVP_b-!!8GJ- 8GJDSVP_b-!!8GJ- 8GJDSVP_b-!!8GJ- 8GJDSVP_b-!!8GJ- 8GJDSVP_b-!!8GJ- GJSV_b-!!GJ- GJSV_b-!!GJ- GJSV_b-!!GJ- GJSV_b-!!GJ- GJSV_b-!!GJ- GJSV_b-!!GJ- GJSV_b-!!GJ- GJSV_b-!!GJ- GJSV_b-!!GJ- GJSV_b-!!GJ- GJSV_b-!!GJ- GJSV_b-!!GJ- GJSV_b-!!GJ- GJSV_b-!!GJ- GJSV_b-!!GJ- GJSV_b-!!GJ- GJSV_b-!!GJ- GJSV_b-!!GJ- GJSV_b-!!GJ- GJSV_b-!!GJ- GJSV_b-!!GJ- GJB9SVNE_bZQ-!!GJB-9 GJB9SVNE_bZQ-!!GJB-9 GJB9SVNE_bZQ-!!GJB-9 GJB9SVNE_bZQ-!!GJB-9 GJB9SVNE_bZQ-!!GJB-9 GJB9SVNE_bZQ-!!GJB-9 GJB9SVNE_bZQ-!!GJB-9 GJB9SVNE_bZQ-!!GJB-9 JB9VNEbZQ-!!JB-9 JB9VNEbZQ-!!JB-9 JBE9VNQEbZ]Q-!!JBE-9 JBE9VNQEbZ]Q-!!JBE-9 JBE9VNQEbZ]Q-!!JBE-9 JBE9VNQEbZ]Q-!!JBE-9 JBE9VNQEbZ]Q-!!JBE-9 JBE9VNQEbZ]Q-!!JBE-9 JBE9VNQEbZ]Q-!!JBE-9 JBE9VNQEbZ]Q-!!JBE-9 JBE9VNQEbZ]Q-!!JBE-9 JBE9VNQEbZ]Q-!!JBE-9 JBE9VNQEbZ]Q-!!JBE-9 JBE9VNQEbZ]Q-!!JBE-9 JBE9VNQEbZ]Q-!!JBE-9 JBE9VNQEbZ]Q-!!JBE-9 JBE9VNQEbZ]Q-!!JBE-9 JBE9VNQEbZ]Q-!!JBE-9 JBE9VNQEbZ]Q-!!JBE-9 JBE9VNQEbZ]Q-!!JBE-9 JBE9VNQEbZ]Q-!!JBE-9 JBE9VNQEbZ]Q-!!JBE-9 JBE9VNQEbZ]Q-!!JBE-9 JBE9VNQEbZ]Q-!!JBE-9 JBE9VNQEbZ]Q-!!JBE-9 JBE9VNQEbZ]Q-!!JBE-9 JBE9VNQEbZ]Q-!!JBE-9 JBE9VNQEbZ]Q-!!JBE-9 JBE9VNQEbZ]Q-!!JBE-9 JBE9VNQEbZ]Q-!!JBE-9 JBE9VNQEbZ]Q-!!JBE-9 JBE9VNQEbZ]Q-!!JBE-9 JBE9VNQEbZ]Q-!!JBE-9 JBE9VNQEbZ]Q-!!JBE-9 JBE9VNQEbZ]Q-!!JBE-9 JBE9VNQEbZ]Q-!!JBE-9 JBE9VNQEbZ]Q-!!JBE-9 JBE9VNQEbZ]Q-!!JBE-9 JBE9VNQEbZ]Q-!!JBE-9 JBE9VNQEbZ]Q-!!JBE-9 JBE9VNQEbZ]Q-!!JBE-9 JBE9VNQEbZ]Q-!!JBE-9 JBE9VNQEbZ]Q-!!JBE-9 JBE9VNQEbZ]Q-!!JBE-9 JBE9VNQEbZ]Q-!!JBE-9 JBE9VNQEbZ]Q-!!JBE-9 JBE9VNQEbZ]Q-!!JBE-9 JBE9VNQEbZ]Q-!!JBE-9 JBE9VNQEbZ]Q-!!JBE-9 JBE9VNQEbZ]Q-!!JBE-9 JBE9VNQEbZ]Q-!!JBE-9 JBE9VNQEbZ]Q-!!JBE-9 JBE9VNQEbZ]Q-!!JBE-9 JBE9VNQEbZ]Q-!!JBE-9 JBE9VNQEbZ]Q-!!JBE-9 JBE9VNQEbZ]Q-!!JBE-9 JBE9VNQEbZ]Q-!!JBE-9 JBE9VNQEbZ]Q-!!JBE-9 JBE9VNQEbZ]Q-!!JBE-9 JBE9VNQEbZ]Q-!!JBE-9 JBE9VNQEbZ]Q-!!JBE-9 JBE9VNQEbZ]Q-!!JBE-9 JBE9VNQEbZ]Q-!!JBE-9 JBE9VNQEbZ]Q-!!JBE-9 BE9NQEZ]Q-!!BE-9 GBE9SNQE_Z]Q-!!GBE-9 GBE9SNQE_Z]Q-!!GBE-9 GBE9SNQE_Z]Q-!!GBE-9 GBE9SNQE_Z]Q-!!GBE-9 GBE9SNQE_Z]Q-!!GBE-9 GBE9SNQE_Z]Q-!!GBE-9 GBE9SNQE_Z]Q-!!GBE-9 GBE9SNQE_Z]Q-!!GBE-9 GBE9SNQE_Z]Q-!!GBE-9 GBE9SNQE_Z]Q-!!GBE-9 GBE9SNQE_Z]Q-!!GBE-9 GBE9SNQE_Z]Q-!!GBE-9 GBE9SNQE_Z]Q-!!GBE-9 GBE9SNQE_Z]Q-!!GBE-9 GBE9SNQE_Z]Q-!!GBE-9 GBE9SNQE_Z]Q-!!GBE-9 GBE9SNQE_Z]Q-!!GBE-9 GBE9SNQE_Z]Q-!!GBE-9 GBE9SNQE_Z]Q-!!GBE-9 GBE9SNQE_Z]Q-!!GBE-9 GBE9SNQE_Z]Q-!!GBE-9 GBE9SNQE_Z]Q-!!GBE-9 GBE9SNQE_Z]Q-!!GBE-9 GBE9SNQE_Z]Q-!!GBE-9 GBE9SNQE_Z]Q-!!GBE-9 GBE9SNQE_Z]Q-!!GBE-9 GBE9SNQE_Z]Q-!!GBE-9 GBE9SNQE_Z]Q-!!GBE-9 GBE9SNQE_Z]Q-!!GBE-9 GBE9SNQE_Z]Q-!!GBE-9 GBE9SNQE_Z]Q-!!GBE-9 GBE9SNQE_Z]Q-!!GBE-9 GBE9SNQE_Z]Q-!!GBE-9 GBE9SNQE_Z]Q-!!GBE-9 GBE9SNQE_Z]Q-!!GBE-9 GBE9SNQE_Z]Q-!!GBE-9 GBE9SNQE_Z]Q-!!GBE-9 GBE9SNQE_Z]Q-!!GBE-9 GBE9SNQE_Z]Q-!!GBE-9 GBE9SNQE_Z]Q-!!GBE-9 GBE9SNQE_Z]Q-!!GBE-9 GBE9SNQE_Z]Q-!!GBE-9 GBE9SNQE_Z]Q-!!GBE-9 GBE9SNQE_Z]Q-!!GBE-9 GBE9SNQE_Z]Q-!!GBE-9 GBE9SNQE_Z]Q-!!GBE-9 GBE9SNQE_Z]Q-!!GBE-9 GBE9SNQE_Z]Q-!!GBE-9 GBE9SNQE_Z]Q-!!GBE-9 GBE9SNQE_Z]Q-!!GBE-9 GBE9SNQE_Z]Q-!!GBE-9 GBE9SNQE_Z]Q-!!GBE-9 GBE9SNQE_Z]Q-!!GBE-9 GBE9SNQE_Z]Q-!!GBE-9 GBE9SNQE_Z]Q-!!GBE-9 GBE9SNQE_Z]Q-!!GBE-9 GBE9SNQE_Z]Q-!!GBE-9 GBE9SNQE_Z]Q-!!GBE-9 GBE9SNQE_Z]Q-!!GBE-9 GBE9SNQE_Z]Q-!!GBE-9 GIBE9SUNQE_aZ]Q-!!GIBE-9 GIBE9SUNQE_aZ]Q-!!GIBE-9 GIBE9SUNQE_aZ]Q-!!GIBE-9 GIBE9SUNQE_aZ]Q-!!GIBE-9 GIBE9SUNQE_aZ]Q-!!GIBE-9 GIBE9SUNQE_aZ]Q-!!GIBE-9 GIBE9SUNQE_aZ]Q-!!GIBE-9 IBE9UNQEaZ]Q-!!IBE-9 IBE9UNQEaZ]Q-!!IBE-9 IBE9UNQEaZ]Q-!!IBE-9 IBE9UNQEaZ]Q-!!IBE-9 IBE9UNQEaZ]Q-!!IBE-9 IBE9UNQEaZ]Q-!!IBE-9 IBE9UNQEaZ]Q-!!IBE-9 IBE9UNQEaZ]Q-!!IBE-9 IBE9UNQEaZ]Q-!!IBE-9 IBE9UNQEaZ]Q-!!IBE-9 IBE9UNQEaZ]Q-!!IBE-9 IBE9UNQEaZ]Q-!!IBE-9 IBE9UNQEaZ]Q-!!IBE-9 IBE9UNQEaZ]Q-!!IBE-9 IBE9UNQEaZ]Q-!!IBE-9 IBE9UNQEaZ]Q-!!IBE-9 IBE9UNQEaZ]Q-!!IBE-9 IBE9UNQEaZ]Q-!!IBE-9 IBE9UNQEaZ]Q-!!IBE-9 IBE9UNQEaZ]Q-!!IBE-9 IBE9UNQEaZ]Q-!!IBE-9 IBE9UNQEaZ]Q-!!IBE-9 IBE9UNQEaZ]Q-!!IBE-9 IBE9UNQEaZ]Q-!!IBE-9 IBE9UNQEaZ]Q-!!IBE-9 IBE9UNQEaZ]Q-!!IBE-9 IBE9UNQEaZ]Q-!!IBE-9 IBE9UNQEaZ]Q-!!IBE-9 IBE9UNQEaZ]Q-!!IBE-9 IBE9UNQEaZ]Q-!!IBE-9 IBE9UNQEaZ]Q-!!IBE-9 IBE9UNQEaZ]Q-!!IBE-9 IBE9UNQEaZ]Q-!!IBE-9 IBE9UNQEaZ]Q-!!IBE-9 IBE9UNQEaZ]Q-!!IBE-9 IBE9UNQEaZ]Q-!!IBE-9 IBE9UNQEaZ]Q-!!IBE-9 IBE9UNQEaZ]Q-!!IBE-9 IBE9UNQEaZ]Q-!!IBE-9 IBE9UNQEaZ]Q-!!IBE-9 IBE9UNQEaZ]Q-!!IBE-9 IBE9UNQEaZ]Q-!!IBE-9 IBE9UNQEaZ]Q-!!IBE-9 IBE9UNQEaZ]Q-!!IBE-9 IBE9UNQEaZ]Q-!!IBE-9 IBE9UNQEaZ]Q-!!IBE-9 BE9NQEZ]Q-!!BE-9 BE9NQEZ]Q-!!BE-9 BE9NQEZ]Q-!!BE-9 BE9NQEZ]Q-!!BE-9 BE9NQEZ]Q-!!BE-9 BJE9NVQEZb]Q-!!BJE-9 BJE9NVQEZb]Q-!!BJE-9 BJE9NVQEZb]Q-!!BJE-9 JE9VQEb]Q-!!JE-9 JE9VQEb]Q-!!JE-9 JE9VQEb]Q-!!JE-9 JE9VQEb]Q-!!JE-9 JE9VQEb]Q-!!JE-9 JE9VQEb]Q-!!JE-9 JE9VQEb]Q-!!JE-9 JE9VQEb]Q-!!JE-9 JE9VQEb]Q-!!JE-9 JE9VQEb]Q-!!JE-9 JE9VQEb]Q-!!JE-9 JE9VQEb]Q-!!JE-9 JE9VQEb]Q-!!JE-9 JE9VQEb]Q-!!JE-9 JE9VQEb]Q-!!JE-9 JE9VQEb]Q-!!JE-9 JE9VQEb]Q-!!JE-9 JE9VQEb]Q-!!JE-9 JE9VQEb]Q-!!JE-9 JE9VQEb]Q-!!JE-9 JE9VQEb]Q-!!JE-9 JE9VQEb]Q-!!JE-9 JE9VQEb]Q-!!JE-9 JE9VQEb]Q-!!JE-9 JE9VQEb]Q-!!JE-9 JE9VQEb]Q-!!JE-9 JE9VQEb]Q-!!JE-9 JE9VQEb]Q-!!JE-9 JE9VQEb]Q-!!JE-9 JE9VQEb]Q-!!JE-9 JE9VQEb]Q-!!JE-9 JE9VQEb]Q-!!JE-9 JE9VQEb]Q-!!JE-9 JE9VQEb]Q-!!JE-9 JE9VQEb]Q-!!JE-9 JE9VQEb]Q-!!JE-9 JE9VQEb]Q-!!JE-9 JE9VQEb]Q-!!JE-9 JE9VQEb]Q-!!JE-9 JE9VQEb]Q-!!JE-9 JE9VQEb]Q-!!JE-9 JE9VQEb]Q-!!JE-9 JE9VQEb]Q-!!JE-9 JE9VQEb]Q-!!JE-9 JE9VQEb]Q-!!JE-9 JE9VQEb]Q-!!JE-9 JE9VQEb]Q-!!JE-9 JE9VQEb]Q-!!JE-9 JE9VQEb]Q-!!JE-9 JE9VQEb]Q-!!JE-9 JE9VQEb]Q-!!JE-9 JE9VQEb]Q-!!JE-9 JE9VQEb]Q-!!JE-9 E9QE]Q-!!E-9 E9QE]Q-!!E-9 E9QE]Q-!!E-9 E9QE]Q-!!E-9 9EQ-!!-9 >9JEVQ-!!>-9 >9JEVQ-!!>-9 >9JEVQ-!!>-9 >9JEVQ-!!>-9 D>9PJE\VQ-!!D>-9 D>9PJE\VQ-!!D>-9 D>9PJE\VQ-!!D>-9 D>9PJE\VQ-!!D>-9 D>9PJE\VQ-!!D>-9 D>9PJE\VQ-!!D>-9 D>9PJE\VQ-!!D>-9 D>9PJE\VQ-!!D>-9 D>9PJE\VQ-!!D>-9 D>9PJE\VQ-!!D>-9 D>9PJE\VQ-!!D>-9 D>9PJE\VQ-!!D>-9 D>9PJE\VQ-!!D>-9 D>9PJE\VQ-!!D>-9 D>9PJE\VQ-!!D>-9 D>9PJE\VQ-!!D>-9 D>9PJE\VQ-!!D>-9 D>9PJE\VQ-!!D>-9 D>9PJE\VQ-!!D>-9 D>9PJE\VQ-!!D>-9 D>9PJE\VQ-!!D>-9 D>9PJE\VQ-!!D>-9 D>9PJE\VQ-!!D>-9 D>9PJE\VQ-!!D>-9 D>9PJE\VQ-!!D>-9 D>9PJE\VQ-!!D>-9 D>9PJE\VQ-!!D>-9 D>9PJE\VQ-!!D>-9 D>9PJE\VQ-!!D>-9 D>9PJE\VQ-!!D>-9 D>9PJE\VQ-!!D>-9 D>9PJE\VQ-!!D>-9 D>9PJE\VQ-!!D>-9 D>9PJE\VQ-!!D>-9 D>9PJE\VQ-!!D>-9 D>9PJE\VQ-!!D>-9 D>9PJE\VQ-!!D>-9 D>9PJE\VQ-!!D>-9 D>9PJE\VQ-!!D>-9 D>9PJE\VQ-!!D>-9 D>9PJE\VQ-!!D>-9 D>9PJE\VQ-!!D>-9 D>9PJE\VQ-!!D>-9 D>9PJE\VQ-!!D>-9 D>9PJE\VQ-!!D>-9 D>9PJE\VQ-!!D>-9 D>9PJE\VQ-!!D>-9 D>9PJE\VQ-!!D>-9 D>9PJE\VQ-!!D>-9 D>9PJE\VQ-!!D>-9 D>9PJE\VQ-!!D>-9 D>9PJE\VQ-!!D>-9 D>9PJE\VQ-!!D>-9 D>9PJE\VQ-!!D>-9 D>9PJE\VQ-!!D>-9 D>9PJE\VQ-!!D>-9 D>9PJE\VQ-!!D>-9 D>9PJE\VQ-!!D>-9 D>9PJE\VQ-!!D>-9 D>9PJE\VQ-!!D>-9 D>9PJE\VQ-!!D>-9 D>9PJE\VQ-!!D>-9 D>9PJE\VQ-!!D>-9 D>9PJE\VQ-!!D>-9 D>9PJE\VQ-!!D>-9 D>9PJE\VQ-!!D>-9 D>9PJE\VQ-!!D>-9 ED>9QPJE]\VQ-!!ED>-9 ED>9QPJE]\VQ-!!ED>-9 ED>9QPJE]\VQ-!!ED>-9 ED>9QPJE]\VQ-!!ED>-9 ED>9QPJE]\VQ-!!ED>-9 ED>9QPJE]\VQ-!!ED>-9 ED>9QPJE]\VQ-!!ED>-9 ED>9QPJE]\VQ-!!ED>-9 ED>9QPJE]\VQ-!!ED>-9 ED>9QPJE]\VQ-!!ED>-9 ED>9QPJE]\VQ-!!ED>-9 ED>9QPJE]\VQ-!!ED>-9 ED>9QPJE]\VQ-!!ED>-9 ED>9QPJE]\VQ-!!ED>-9 ED>9QPJE]\VQ-!!ED>-9 ED>9QPJE]\VQ-!!ED>-9 ED>9QPJE]\VQ-!!ED>-9 ED>9QPJE]\VQ-!!ED>-9 ED>9QPJE]\VQ-!!ED>-9 ED>9QPJE]\VQ-!!ED>-9 ED>9QPJE]\VQ-!!ED>-9 ED>9QPJE]\VQ-!!ED>-9 ED>9QPJE]\VQ-!!ED>-9 ED>9QPJE]\VQ-!!ED>-9 ED>9QPJE]\VQ-!!ED>-9 ED>9QPJE]\VQ-!!ED>-9 ED>9QPJE]\VQ-!!ED>-9 ED>9QPJE]\VQ-!!ED>-9 ED>9QPJE]\VQ-!!ED>-9 ED>9QPJE]\VQ-!!ED>-9 ED>9QPJE]\VQ-!!ED>-9 ED>9QPJE]\VQ-!!ED>-9 ED>9QPJE]\VQ-!!ED>-9 ED>9QPJE]\VQ-!!ED>-9 ED>9QPJE]\VQ-!!ED>-9 ED>9QPJE]\VQ-!!ED>-9 ED>9QPJE]\VQ-!!ED>-9 ED>9QPJE]\VQ-!!ED>-9 ED>9QPJE]\VQ-!!ED>-9 ED>9QPJE]\VQ-!!ED>-9 ED>9QPJE]\VQ-!!ED>-9 ED>9QPJE]\VQ-!!ED>-9 ED>9QPJE]\VQ-!!ED>-9 ED>9QPJE]\VQ-!!ED>-9 ED>9QPJE]\VQ-!!ED>-9 ED>9QPJE]\VQ-!!ED>-9 ED>9QPJE]\VQ-!!ED>-9 ED>9QPJE]\VQ-!!ED>-9 ED>9QPJE]\VQ-!!ED>-9 ED>9QPJE]\VQ-!!ED>-9 ED>9QPJE]\VQ-!!ED>-9 ED>9QPJE]\VQ-!!ED>-9 ED>9QPJE]\VQ-!!ED>-9 ED>9QPJE]\VQ-!!ED>-9 ED>9QPJE]\VQ-!!ED>-9 ED>9QPJE]\VQ-!!ED>-9 ED>9QPJE]\VQ-!!ED>-9 ED>9QPJE]\VQ-!!ED>-9 ED>9QPJE]\VQ-!!ED>-9 ED>9QPJE]\VQ-!!ED>-9 ED>9QPJE]\VQ-!!ED>-9 EDG>9QPSJE]\_VQ-!!EDG>-9 EDG>9QPSJE]\_VQ-!!EDG>-9 EDG>9QPSJE]\_VQ-!!EDG>-9 EDG>9QPSJE]\_VQ-!!EDG>-9 EDG>9QPSJE]\_VQ-!!EDG>-9 EDG>9QPSJE]\_VQ-!!EDG>-9 EDG>9QPSJE]\_VQ-!!EDG>-9 EDG>9QPSJE]\_VQ-!!EDG>-9 EDG>9QPSJE]\_VQ-!!EDG>-9 DG>9PSJE\_VQ-!!DG>-9 DG>9PSJE\_VQ-!!DG>-9 DG>9PSJE\_VQ-!!DG>-9 DG>9PSJE\_VQ-!!DG>-9 DG>9PSJE\_VQ-!!DG>-9 DG>9PSJE\_VQ-!!DG>-9 DG>9PSJE\_VQ-!!DG>-9 DG>9PSJE\_VQ-!!DG>-9 DG>9PSJE\_VQ-!!DG>-9 DG>9PSJE\_VQ-!!DG>-9 DG>9PSJE\_VQ-!!DG>-9 DG>9PSJE\_VQ-!!DG>-9 DG>9PSJE\_VQ-!!DG>-9 DG>9PSJE\_VQ-!!DG>-9 DG>9PSJE\_VQ-!!DG>-9 DG>9PSJE\_VQ-!!DG>-9 DG>9PSJE\_VQ-!!DG>-9 DG>9PSJE\_VQ-!!DG>-9 DG>9PSJE\_VQ-!!DG>-9 DG>9PSJE\_VQ-!!DG>-9 DG>9PSJE\_VQ-!!DG>-9 DG>9PSJE\_VQ-!!DG>-9 DG>9PSJE\_VQ-!!DG>-9 DG>9PSJE\_VQ-!!DG>-9 DG>9PSJE\_VQ-!!DG>-9 DG>9PSJE\_VQ-!!DG>-9 DG>9PSJE\_VQ-!!DG>-9 DG>9PSJE\_VQ-!!DG>-9 DG>9PSJE\_VQ-!!DG>-9 DG>9PSJE\_VQ-!!DG>-9 DG>9PSJE\_VQ-!!DG>-9 DG>9PSJE\_VQ-!!DG>-9 DG>9PSJE\_VQ-!!DG>-9 DG>9PSJE\_VQ-!!DG>-9 DG>9PSJE\_VQ-!!DG>-9 DG>9PSJE\_VQ-!!DG>-9 DG>9PSJE\_VQ-!!DG>-9 DG>9PSJE\_VQ-!!DG>-9 DG>9PSJE\_VQ-!!DG>-9 DG>9PSJE\_VQ-!!DG>-9 DG>9PSJE\_VQ-!!DG>-9 DG>9PSJE\_VQ-!!DG>-9 DG>9PSJE\_VQ-!!DG>-9 DG>9PSJE\_VQ-!!DG>-9 DG>9PSJE\_VQ-!!DG>-9 DG>9PSJE\_VQ-!!DG>-9 DG>9PSJE\_VQ-!!DG>-9 DGI>9PSUJE\_aVQ-!!DGI>-9 DGI>9PSUJE\_aVQ-!!DGI>-9 DGI>9PSUJE\_aVQ-!!DGI>-9 DGI>9PSUJE\_aVQ-!!DGI>-9 DGI>9PSUJE\_aVQ-!!DGI>-9 DGI>9PSUJE\_aVQ-!!DGI>-9 DGI>9PSUJE\_aVQ-!!DGI>-9 DGI>9PSUJE\_aVQ-!!DGI>-9 DGI>9PSUJE\_aVQ-!!DGI>-9 DGI>9PSUJE\_aVQ-!!DGI>-9 GI>9SUJE_aVQ-!!GI>-9 GI>9SUJE_aVQ-!!GI>-9 I>9UJEaVQ-!!I>-9 I>9UJEaVQ-!!I>-9 I>9UJEaVQ-!!I>-9 I>9UJEaVQ-!!I>-9 I>9UJEaVQ-!!I>-9 I>9UJEaVQ-!!I>-9 I>9UJEaVQ-!!I>-9 I>9UJEaVQ-!!I>-9 I>9UJEaVQ-!!I>-9 I>9UJEaVQ-!!I>-9 I>9UJEaVQ-!!I>-9 I>9UJEaVQ-!!I>-9 I>9UJEaVQ-!!I>-9 I>9UJEaVQ-!!I>-9 I>9UJEaVQ-!!I>-9 I>9UJEaVQ-!!I>-9 I>9UJEaVQ-!!I>-9 I>9UJEaVQ-!!I>-9 I>9UJEaVQ-!!I>-9 I>9UJEaVQ-!!I>-9 I>9UJEaVQ-!!I>-9 I>9UJEaVQ-!!I>-9 I>9UJEaVQ-!!I>-9 I>9UJEaVQ-!!I>-9 I>9UJEaVQ-!!I>-9 I>9UJEaVQ-!!I>-9 I>9UJEaVQ-!!I>-9 I>9UJEaVQ-!!I>-9 I>9UJEaVQ-!!I>-9 I>9UJEaVQ-!!I>-9 I>9UJEaVQ-!!I>-9 I>9UJEaVQ-!!I>-9 I>9UJEaVQ-!!I>-9 I>9UJEaVQ-!!I>-9 I>9UJEaVQ-!!I>-9 I>9UJEaVQ-!!I>-9 I>9UJEaVQ-!!I>-9 I>9UJEaVQ-!!I>-9 I>9UJEaVQ-!!I>-9 I>9UJEaVQ-!!I>-9 I>9UJEaVQ-!!I>-9 I>9UJEaVQ-!!I>-9 I>9UJEaVQ-!!I>-9 I>9UJEaVQ-!!I>-9 I>9UJEaVQ-!!I>-9 I>9UJEaVQ-!!I>-9 I>9UJEaVQ-!!I>-9 I>9UJEaVQ-!!I>-9 I>9UJEaVQ-!!I>-9 I>9UJEaVQ-!!I>-9 I>9UJEaVQ-!!I>-9 >9JEVQ-!!>-9 >9JEVQ-!!>-9 J>9VJEbVQ-!!J>-9 J>G9VJSEbV_Q-!!J>G-9 J>G9VJSEbV_Q-!!J>G-9 J>G9VJSEbV_Q-!!J>G-9 J>G9VJSEbV_Q-!!J>G-9 J>G9VJSEbV_Q-!!J>G-9 J>G9VJSEbV_Q-!!J>G-9 J>G9VJSEbV_Q-!!J>G-9 J>G9VJSEbV_Q-!!J>G-9 J>G9VJSEbV_Q-!!J>G-9 J>G9VJSEbV_Q-!!J>G-9 J>G9VJSEbV_Q-!!J>G-9 J>G9VJSEbV_Q-!!J>G-9 J>G9VJSEbV_Q-!!J>G-9 J>G9VJSEbV_Q-!!J>G-9 J>G9VJSEbV_Q-!!J>G-9 J>G9VJSEbV_Q-!!J>G-9 J>G9VJSEbV_Q-!!J>G-9 J>G9VJSEbV_Q-!!J>G-9 J>G9VJSEbV_Q-!!J>G-9 J>G9VJSEbV_Q-!!J>G-9 J>G9VJSEbV_Q-!!J>G-9 J>G9VJSEbV_Q-!!J>G-9 J>G9VJSEbV_Q-!!J>G-9 J>G9VJSEbV_Q-!!J>G-9 J>G9VJSEbV_Q-!!J>G-9 J>G9VJSEbV_Q-!!J>G-9 J>G9VJSEbV_Q-!!J>G-9 J>G9VJSEbV_Q-!!J>G-9 J>G9VJSEbV_Q-!!J>G-9 J>G9VJSEbV_Q-!!J>G-9 J>G9VJSEbV_Q-!!J>G-9 J>G9VJSEbV_Q-!!J>G-9 J>G9VJSEbV_Q-!!J>G-9 J>G9VJSEbV_Q-!!J>G-9 J>G9VJSEbV_Q-!!J>G-9 J>G9VJSEbV_Q-!!J>G-9 J>G9VJSEbV_Q-!!J>G-9 J>G9VJSEbV_Q-!!J>G-9 J>G9VJSEbV_Q-!!J>G-9 J>G9VJSEbV_Q-!!J>G-9 J>G9VJSEbV_Q-!!J>G-9 J>G9VJSEbV_Q-!!J>G-9 J>G9VJSEbV_Q-!!J>G-9 J>G9VJSEbV_Q-!!J>G-9 J>G9VJSEbV_Q-!!J>G-9 J>G9VJSEbV_Q-!!J>G-9 J>G9VJSEbV_Q-!!J>G-9 J>G9VJSEbV_Q-!!J>G-9 J>G9VJSEbV_Q-!!J>G-9 J>G9VJSEbV_Q-!!J>G-9 J>G9VJSEbV_Q-!!J>G-9 J>G9VJSEbV_Q-!!J>G-9 J>G9VJSEbV_Q-!!J>G-9 J>G9VJSEbV_Q-!!J>G-9 J>G9VJSEbV_Q-!!J>G-9 J>G9VJSEbV_Q-!!J>G-9 J>G9VJSEbV_Q-!!J>G-9 J>G9VJSEbV_Q-!!J>G-9 J>G9VJSEbV_Q-!!J>G-9 JL>G9VXJSEbdV_Q-!!JL>G-9 JL>G9VXJSEbdV_Q-!!JL>G-9 JL>G9VXJSEbdV_Q-!!JL>G-9 JL>G9VXJSEbdV_Q-!!JL>G-9 JL>G9VXJSEbdV_Q-!!JL>G-9 JL>G9VXJSEbdV_Q-!!JL>G-9 JL>G9VXJSEbdV_Q-!!JL>G-9 JL>G9VXJSEbdV_Q-!!JL>G-9 JL>G9VXJSEbdV_Q-!!JL>G-9 JL>G9VXJSEbdV_Q-!!JL>G-9 JL>G9VXJSEbdV_Q-!!JL>G-9 JL>G9VXJSEbdV_Q-!!JL>G-9 JL>G9VXJSEbdV_Q-!!JL>G-9 JL>G9VXJSEbdV_Q-!!JL>G-9 JL>G9VXJSEbdV_Q-!!JL>G-9 JL>G9VXJSEbdV_Q-!!JL>G-9 JL>G9VXJSEbdV_Q-!!JL>G-9 L>G9XJSEdV_Q-!!L>G-9 L>G9XJSEdV_Q-!!L>G-9 L>G9XJSEdV_Q-!!L>G-9 L>G9XJSEdV_Q-!!L>G-9 L>G9XJSEdV_Q-!!L>G-9 L>G9XJSEdV_Q-!!L>G-9 L>G9XJSEdV_Q-!!L>G-9 L>G9XJSEdV_Q-!!L>G-9 L>G9XJSEdV_Q-!!L>G-9 L>G9XJSEdV_Q-!!L>G-9 L>G9XJSEdV_Q-!!L>G-9 L>G9XJSEdV_Q-!!L>G-9 L>G9XJSEdV_Q-!!L>G-9 L>G9XJSEdV_Q-!!L>G-9 L>G9XJSEdV_Q-!!L>G-9 L>G9XJSEdV_Q-!!L>G-9 L>G9XJSEdV_Q-!!L>G-9 L>G9XJSEdV_Q-!!L>G-9 L>G9XJSEdV_Q-!!L>G-9 L>G9XJSEdV_Q-!!L>G-9 L>G9XJSEdV_Q-!!L>G-9 L>G9XJSEdV_Q-!!L>G-9 L>G9XJSEdV_Q-!!L>G-9 L>G9XJSEdV_Q-!!L>G-9 L>G9XJSEdV_Q-!!L>G-9 L>G9XJSEdV_Q-!!L>G-9 L>G9XJSEdV_Q-!!L>G-9 L>G9XJSEdV_Q-!!L>G-9 L>G9XJSEdV_Q-!!L>G-9 L>G9XJSEdV_Q-!!L>G-9 L>G9XJSEdV_Q-!!L>G-9 L>G9XJSEdV_Q-!!L>G-9 L>G9XJSEdV_Q-!!L>G-9 L>G9XJSEdV_Q-!!L>G-9 L>G9XJSEdV_Q-!!L>G-9 L>G9XJSEdV_Q-!!L>G-9 L>G9XJSEdV_Q-!!L>G-9 L>G9XJSEdV_Q-!!L>G-9 L>G9XJSEdV_Q-!!L>G-9 L>G9XJSEdV_Q-!!L>G-9 L>G9XJSEdV_Q-!!L>G-9 L>G9XJSEdV_Q-!!L>G-9 L>G9XJSEdV_Q-!!L>G-9 L>G9XJSEdV_Q-!!L>G-9 L>G9XJSEdV_Q-!!L>G-9 L>G9XJSEdV_Q-!!L>G-9 LN>G9XZJSEdfV_Q-!!LN>G-9 N>G9ZJSEfV_Q-!!N>G-9 N>G9ZJSEfV_Q-!!N>G-9 N>G9ZJSEfV_Q-!!N>G-9 N>G9ZJSEfV_Q-!!N>G-9 N>G9ZJSEfV_Q-!!N>G-9 N>G9ZJSEfV_Q-!!N>G-9 N>G9ZJSEfV_Q-!!N>G-9 N>G9ZJSEfV_Q-!!N>G-9 N>G9ZJSEfV_Q-!!N>G-9 N>G9ZJSEfV_Q-!!N>G-9 N>G9ZJSEfV_Q-!!N>G-9 N>G9ZJSEfV_Q-!!N>G-9 N>G9ZJSEfV_Q-!!N>G-9 N>G9ZJSEfV_Q-!!N>G-9 N>G9ZJSEfV_Q-!!N>G-9 N>G9ZJSEfV_Q-!!N>G-9 N>G9ZJSEfV_Q-!!N>G-9 N>G9ZJSEfV_Q-!!N>G-9 N>G9ZJSEfV_Q-!!N>G-9 N>G9ZJSEfV_Q-!!N>G-9 N>G9ZJSEfV_Q-!!N>G-9 N>G9ZJSEfV_Q-!!N>G-9 N>G9ZJSEfV_Q-!!N>G-9 N>G9ZJSEfV_Q-!!N>G-9 N>G9ZJSEfV_Q-!!N>G-9 N>G9ZJSEfV_Q-!!N>G-9 N>G9ZJSEfV_Q-!!N>G-9 N>G9ZJSEfV_Q-!!N>G-9 N>G9ZJSEfV_Q-!!N>G-9 N>G9ZJSEfV_Q-!!N>G-9 N>G9ZJSEfV_Q-!!N>G-9 N>G9ZJSEfV_Q-!!N>G-9 N>G9ZJSEfV_Q-!!N>G-9 N>G9ZJSEfV_Q-!!N>G-9 N>G9ZJSEfV_Q-!!N>G-9 N>G9ZJSEfV_Q-!!N>G-9 N>G9ZJSEfV_Q-!!N>G-9 N>G9ZJSEfV_Q-!!N>G-9 N>G9ZJSEfV_Q-!!N>G-9 N>G9ZJSEfV_Q-!!N>G-9 N>G9ZJSEfV_Q-!!N>G-9 N>G9ZJSEfV_Q-!!N>G-9 N>G9ZJSEfV_Q-!!N>G-9 N>G9ZJSEfV_Q-!!N>G-9 N>G9ZJSEfV_Q-!!N>G-9 N>G9ZJSEfV_Q-!!N>G-9 N>G9ZJSEfV_Q-!!N>G-9 N>G9ZJSEfV_Q-!!N>G-9 N>G9ZJSEfV_Q-!!N>G-9 N>G9ZJSEfV_Q-!!N>G-9 N>G9ZJSEfV_Q-!!N>G-9 N>G9ZJSEfV_Q-!!N>G-9 N>G9ZJSEfV_Q-!!N>G-9 N>G9ZJSEfV_Q-!!N>G-9 N>G9ZJSEfV_Q-!!N>G-9 N>G9ZJSEfV_Q-!!N>G-9 N>G9ZJSEfV_Q-!!N>G-9 N>G9ZJSEfV_Q-!!N>G-9 N>G9ZJSEfV_Q-!!N>G-9 N>G9ZJSEfV_Q-!!N>G-9 N>G9ZJSEfV_Q-!!N>G-9 N>G9ZJSEfV_Q-!!N>G-9 N>G9ZJSEfV_Q-!!N>G-9 >G9JSEV_Q-!!>G-9 >GP9JS\EV_hQ-!!>GP-9 >GP9JS\EV_hQ-!!>GP-9 >GP9JS\EV_hQ-!!>GP-9 >GP9JS\EV_hQ-!!>GP-9 >GP9JS\EV_hQ-!!>GP-9 >GP9JS\EV_hQ-!!>GP-9 >GP9JS\EV_hQ-!!>GP-9 >GP9JS\EV_hQ-!!>GP-9 >GP9JS\EV_hQ-!!>GP-9 >GP9JS\EV_hQ-!!>GP-9 >GP9JS\EV_hQ-!!>GP-9 >GP9JS\EV_hQ-!!>GP-9 >GP9JS\EV_hQ-!!>GP-9 >GP9JS\EV_hQ-!!>GP-9 >GP9JS\EV_hQ-!!>GP-9 >GP9JS\EV_hQ-!!>GP-9 >GP9JS\EV_hQ-!!>GP-9 >GP9JS\EV_hQ-!!>GP-9 >GP9JS\EV_hQ-!!>GP-9 >GP9JS\EV_hQ-!!>GP-9 >GP9JS\EV_hQ-!!>GP-9 >GP9JS\EV_hQ-!!>GP-9 >GP9JS\EV_hQ-!!>GP-9 >GP9JS\EV_hQ-!!>GP-9 >GP9JS\EV_hQ-!!>GP-9 >GP9JS\EV_hQ-!!>GP-9 >GP9JS\EV_hQ-!!>GP-9 >GP9JS\EV_hQ-!!>GP-9 >GP9JS\EV_hQ-!!>GP-9 >GP9JS\EV_hQ-!!>GP-9 >GP9JS\EV_hQ-!!>GP-9 >GP9JS\EV_hQ-!!>GP-9 >GP9JS\EV_hQ-!!>GP-9 >GP9JS\EV_hQ-!!>GP-9 >GP9JS\EV_hQ-!!>GP-9 >GP9JS\EV_hQ-!!>GP-9 >GP9JS\EV_hQ-!!>GP-9 >GP9JS\EV_hQ-!!>GP-9 >GP9JS\EV_hQ-!!>GP-9 >GP9JS\EV_hQ-!!>GP-9 >GP9JS\EV_hQ-!!>GP-9 >GP9JS\EV_hQ-!!>GP-9 >GP9JS\EV_hQ-!!>GP-9 >GP9JS\EV_hQ-!!>GP-9 >GP9JS\EV_hQ-!!>GP-9 >GP9JS\EV_hQ-!!>GP-9 >GP9JS\EV_hQ-!!>GP-9 >GP9JS\EV_hQ-!!>GP-9 >GP9JS\EV_hQ-!!>GP-9 >GP9JS\EV_hQ-!!>GP-9 >GP9JS\EV_hQ-!!>GP-9 >GP9JS\EV_hQ-!!>GP-9 >GP9JS\EV_hQ-!!>GP-9 >GP9JS\EV_hQ-!!>GP-9 >GP9JS\EV_hQ-!!>GP-9 >GP9JS\EV_hQ-!!>GP-9 >GP9JS\EV_hQ-!!>GP-9 >GP9JS\EV_hQ-!!>GP-9 9EQ-!!-9 9EQ-!!-9 9EQ-!!-9 9EQ-!!-9 9EQ-!!-9 9EQ-!!-9 9EQ-!!-9 9EQ-!!-9 9EQ-!!-9 9EQ-!!-9 9EQ-!!-9 9EQ-!!-9 9EQ-!!-9 9EQ-!!-9 9EQ-!!-9 9EQ-!!-9 9EQ-!!-9 9EQ-!!-9 9EQ-!!-9 9EQ-!!-9 9EQ-!!-9 9EQ-!!-9 9EQ-!!-9 9EQ-!!-9 9EQ-!!-9 9EQ-!!-9 9EQ-!!-9 9EQ-!!-9 9EQ-!!-9 9QI@E]ULQiaX-!!-9QI@ 9QI@E]ULQiaX-!!-9QI@ 9QI@E]ULQiaX-!!-9QI@ 9QI@E]ULQiaX-!!-9QI@ 9QI@E]ULQiaX-!!-9QI@ 9QI@E]ULQiaX-!!-9QI@ 9QI@E]ULQiaX-!!-9QI@ 9QI@E]ULQiaX-!!-9QI@ 9QI@E]ULQiaX-!!-9QI@ 9QI@E]ULQiaX-!!-9QI@ 9QI@E]ULQiaX-!!-9QI@ 9QI@E]ULQiaX-!!-9QI@ 9QI@E]ULQiaX-!!-9QI@ 9QI@E]ULQiaX-!!-9QI@ 9QI@E]ULQiaX-!!-9QI@ 9QI@E]ULQiaX-!!-9QI@ 9QI@E]ULQiaX-!!-9QI@ 9QI@E]ULQiaX-!!-9QI@ 9QI@E]ULQiaX-!!-9QI@ 9QI@E]ULQiaX-!!-9QI@ 9QI@E]ULQiaX-!!-9QI@ 9QI@E]ULQiaX-!!-9QI@ 9QI@E]ULQiaX-!!-9QI@ 9QI@E]ULQiaX-!!-9QI@ 9QI@E]ULQiaX-!!-9QI@ 9QI@E]ULQiaX-!!-9QI@ 9QI@E]ULQiaX-!!-9QI@ 9QI@E]ULQiaX-!!-9QI@ 9QI@E]ULQiaX-!!-9QI@ 9QI@E]ULQiaX-!!-9QI@ 9QI@E]ULQiaX-!!-9QI@ 9QI@E]ULQiaX-!!-9QI@ 9QI@E]ULQiaX-!!-9QI@ 9QI@E]ULQiaX-!!-9QI@ 9QI@E]ULQiaX-!!-9QI@ 9QI@E]ULQiaX-!!-9QI@ 9QI@E]ULQiaX-!!-9QI@ 9QI@E]ULQiaX-!!-9QI@ 9QI@E]ULQiaX-!!-9QI@ 9QI@E]ULQiaX-!!-9QI@ 9QI@E]ULQiaX-!!-9QI@ 9QI@E]ULQiaX-!!-9QI@ 9QI@E]ULQiaX-!!-9QI@ 9QI@E]ULQiaX-!!-9QI@ 9QI@E]ULQiaX-!!-9QI@ 9QI@E]ULQiaX-!!-9QI@ 9QI@E]ULQiaX-!!-9QI@ 9QI@E]ULQiaX-!!-9QI@ 9QI@E]ULQiaX-!!-9QI@ 9QI@E]ULQiaX-!!-9QI@ 9QI@E]ULQiaX-!!-9QI@ 9QI@E]ULQiaX-!!-9QI@ 9QI@E]ULQiaX-!!-9QI@ 9QI@E]ULQiaX-!!-9QI@ 9QI@E]ULQiaX-!!-9QI@ 9QI@E]ULQiaX-!!-9QI@ 9QI@E]ULQiaX-!!-9QI@ 9QI@E]ULQiaX-!!-9QI@ 9QI@E]ULQiaX-!!-9QI@ 9QI@E]ULQiaX-!!-9QI@ 9QI@E]ULQiaX-!!-9QI@ 9QI@E]ULQiaX-!!-9QI@ 9QI@E]ULQiaX-!!-9QI@ 9QI@E]ULQiaX-!!-9QI@ 9QI@E]ULQiaX-!!-9QI@ 9QI@E]ULQiaX-!!-9QI@ 9QI@E]ULQiaX-!!-9QI@ 9QI@E]ULQiaX-!!-9QI@ 9QI@E]ULQiaX-!!-9QI@ 9QI@E]ULQiaX-!!-9QI@ 9QI@E]ULQiaX-!!-9QI@ 9QI@E]ULQiaX-!!-9QI@ 9QI@E]ULQiaX-!!-9QI@ 9QI@E]ULQiaX-!!-9QI@ 9QI@E]ULQiaX-!!-9QI@ 9QI@E]ULQiaX-!!-9QI@ 9QI@E]ULQiaX-!!-9QI@ 9QI@E]ULQiaX-!!-9QI@ 9QI@E]ULQiaX-!!-9QI@ 9QI@E]ULQiaX-!!-9QI@ 9QI@E]ULQiaX-!!-9QI@ 9QI@E]ULQiaX-!!-9QI@ 9QI@E]ULQiaX-!!-9QI@ 9QI@E]ULQiaX-!!-9QI@ 9QI@E]ULQiaX-!!-9QI@ 9QI@E]ULQiaX-!!-9QI@ 9QI@E]ULQiaX-!!-9QI@ 9QI@E]ULQiaX-!!-9QI@ 9QI@E]ULQiaX-!!-9QI@ 9QI@E]ULQiaX-!!-9QI@ 9QI@E]ULQiaX-!!-9QI@ 9QI@E]ULQiaX-!!-9QI@ 9QI@E]ULQiaX-!!-9QI@ 9QI@E]ULQiaX-!!-9QI@ 9QI@E]ULQiaX-!!-9QI@ 9QI@E]ULQiaX-!!-9QI@ 9QI@E]ULQiaX-!!-9QI@ 9QI@E]ULQiaX-!!-9QI@ 9QI@E]ULQiaX-!!-9QI@ 9QI@E]ULQiaX-!!-9QI@ 9QI@E]ULQiaX-!!-9QI@ 9QI@E]ULQiaX-!!-9QI@ 9QI@E]ULQiaX-!!-9QI@ 9QI@E]ULQiaX-!!-9QI@ 9QI@E]ULQiaX-!!-9QI@ 9QI@E]ULQiaX-!!-9QI@ 9QI@E]ULQiaX-!!-9QI@ 9QI@E]ULQiaX-!!-9QI@ 9QI@E]ULQiaX-!!-9QI@ 9QI@E]ULQiaX-!!-9QI@ 9QI@E]ULQiaX-!!-9QI@ 9QI@E]ULQiaX-!!-9QI@ 9QI@E]ULQiaX-!!-9QI@ 9QI@E]ULQiaX-!!-9QI@ 9QI@E]ULQiaX-!!-9QI@ 9QI@E]ULQiaX-!!-9QI@ 9QI@E]ULQiaX-!!-9QI@ 9QI@E]ULQiaX-!!-9QI@ 9QI@E]ULQiaX-!!-9QI@ 9QI@E]ULQiaX-!!-9QI@ 9QI@E]ULQiaX-!!-9QI@ 9QI@E]ULQiaX-!!-9QI@ 9QI@E]ULQiaX-!!-9QI@ 9QI@E]ULQiaX-!!-9QI@ 9QI@E]ULQiaX-!!-9QI@ 9QI@E]ULQiaX-!!-9QI@ 9QI@E]ULQiaX-!!-9QI@ 9QI@E]ULQiaX-!!-9QI@ 9QI@E]ULQiaX-!!-9QI@ 9QI@E]ULQiaX-!!-9QI@ 9QI@E]ULQiaX-!!-9QI@ 9QI@E]ULQiaX-!!-9QI@ 9QI@E]ULQiaX-!!-9QI@ 9QI@E]ULQiaX-!!-9QI@ 9QI@E]ULQiaX-!!-9QI@ 9QI@E]ULQiaX-!!-9QI@ 9QI@E]ULQiaX-!!-9QI@ 9QI@E]ULQiaX-!!-9QI@ 9QI@E]ULQiaX-!!-9QI@ 9QI@E]ULQiaX-!!-9QI@ 9QI@E]ULQiaX-!!-9QI@ 9QI@E]ULQiaX-!!-9QI@ 9QI@E]ULQiaX-!!-9QI@ 9QI@E]ULQiaX-!!-9QI@ 9QI@E]ULQiaX-!!-9QI@ 9QI@E]ULQiaX-!!-9QI@ 9QI@E]ULQiaX-!!-9QI@ 9QI@E]ULQiaX-!!-9QI@ 9QI@E]ULQiaX-!!-9QI@ 9QI@E]ULQiaX-!!-9QI@ 9QI@E]ULQiaX-!!-9QI@ 9QI@E]ULQiaX-!!-9QI@ 9QI@E]ULQiaX-!!-9QI@ 9QI@E]ULQiaX-!!-9QI@ 9QI@E]ULQiaX-!!-9QI@ 9QI@E]ULQiaX-!!-9QI@ 9QI@E]ULQiaX-!!-9QI@ 9QI@E]ULQiaX-!!-9QI@ 9QI@E]ULQiaX-!!-9QI@ 9QI@E]ULQiaX-!!-9QI@ 9QI@E]ULQiaX-!!-9QI@ 9QI@E]ULQiaX-!!-9QI@ 9QI@E]ULQiaX-!!-9QI@ 9QI@E]ULQiaX-!!-9QI@ 9QI@E]ULQiaX-!!-9QI@ 9QI@E]ULQiaX-!!-9QI@ 9QI@E]ULQiaX-!!-9QI@ 9QI@E]ULQiaX-!!-9QI@ 9QI@E]ULQiaX-!!-9QI@ 9QI@E]ULQiaX-!!-9QI@ 9QI@E]ULQiaX-!!-9QI@ 9QI@E]ULQiaX-!!-9QI@ 9QI@E]ULQiaX-!!-9QI@ 9QI@E]ULQiaX-!!-9QI@ 9QI@E]ULQiaX-!!-9QI@ 9QI@E]ULQiaX-!!-9QI@ 9QI@E]ULQiaX-!!-9QI@ 9QI@E]ULQiaX-!!-9QI@ 9QI@E]ULQiaX-!!-9QI@ 9QI@E]ULQiaX-!!-9QI@ 9QI@E]ULQiaX-!!-9QI@ 9QI@E]ULQiaX-!!-9QI@ 9QI@E]ULQiaX-!!-9QI@ 9QI@E]ULQiaX-!!-9QI@ 9QI@E]ULQiaX-!!-9QI@ 9QI@E]ULQiaX-!!-9QI@ 9QI@E]ULQiaX-!!-9QI@ 9QI@E]ULQiaX-!!-9QI@ 9QI@E]ULQiaX-!!-9QI@ 9QI@E]ULQiaX-!!-9QI@ 9QI@E]ULQiaX-!!-9QI@ 9QI@E]ULQiaX-!!-9QI@ 9QI@E]ULQiaX-!!-9QI@ 9QI@E]ULQiaX-!!-9QI@ 9QI@E]ULQiaX-!!-9QI@ 9QI@E]ULQiaX-!!-9QI@ 9QI@E]ULQiaX-!!-9QI@ 9QI@E]ULQiaX-!!-9QI@ 9QI@E]ULQiaX-!!-9QI@ 9QI@E]ULQiaX-!!-9QI@ 9QI@E]ULQiaX-!!-9QI@ 9QI@E]ULQiaX-!!-9QI@ 9QI@E]ULQiaX-!!-9QI@ 9QI@E]ULQiaX-!!-9QI@ 9QI@E]ULQiaX-!!-9QI@ 9QI@E]ULQiaX-!!-9QI@ 9QI@E]ULQiaX-!!-9QI@ 9QI@E]ULQiaX-!!-9QI@ 9QI@E]ULQiaX-!!-9QI@ 9QI@E]ULQiaX-!!-9QI@ 9QI@E]ULQiaX-!!-9QI@ 9QI@E]ULQiaX-!!-9QI@ 9QI@E]ULQiaX-!!-9QI@ 9QI@E]ULQiaX-!!-9QI@ 9QI@E]ULQiaX-!!-9QI@ 9QI@E]ULQiaX-!!-9QI@ 9QI@E]ULQiaX-!!-9QI@ 9QI@E]ULQiaX-!!-9QI@ 9QI@E]ULQiaX-!!-9QI@ 9QI@E]ULQiaX-!!-9QI@ 9QI@E]ULQiaX-!!-9QI@ 9QI@E]ULQiaX-!!-9QI@ 9QI@E]ULQiaX-!!-9QI@ 9QI@E]ULQiaX-!!-9QI@ 9QI@E]ULQiaX-!!-9QI@ 9QI@E]ULQiaX-!!-9QI@ 9QI@E]ULQiaX-!!-9QI@ 9QI@E]ULQiaX-!!-9QI@ 9QI@E]ULQiaX-!!-9QI@ 9QI@E]ULQiaX-!!-9QI@ 9QI@E]ULQiaX-!!-9QI@ 9QI@E]ULQiaX-!!-9QI@ 9QI@E]ULQiaX-!!-9QI@ 9QI@E]ULQiaX-!!-9QI@ 9QI@E]ULQiaX-!!-9QI@ 9QI@E]ULQiaX-!!-9QI@ 9QI@E]ULQiaX-!!-9QI@ 9QI@E]ULQiaX-!!-9QI@ 9QI@E]ULQiaX-!!-9QI@ 9QI@E]ULQiaX-!!-9QI@ 9QI@E]ULQiaX-!!-9QI@ 9QI@E]ULQiaX-!!-9QI@ 9QI@E]ULQiaX-!!-9QI@ 9QI@E]ULQiaX-!!-9QI@ 9QI@E]ULQiaX-!!-9QI@ 9QI@E]ULQiaX-!!-9QI@ 9QI@E]ULQiaX-!!-9QI@ 9QI@E]ULQiaX-!!-9QI@ 9QI@E]ULQiaX-!!-9QI@ 9QI@E]ULQiaX-!!-9QI@ 9QI@E]ULQiaX-!!-9QI@ 9QI@E]ULQiaX-!!-9QI@ 9QI@E]ULQiaX-!!-9QI@ 9QI@E]ULQiaX-!!-9QI@ 9QI@E]ULQiaX-!!-9QI@ 9QI@E]ULQiaX-!!-9QI@ 9QI@E]ULQiaX-!!-9QI@ 9QI@E]ULQiaX-!!-9QI@ 9QI@E]ULQiaX-!!-9QI@ 9QI@E]ULQiaX-!!-9QI@ 9QI@E]ULQiaX-!!-9QI@ 9QI@E]ULQiaX-!!-9QI@ 9QI@E]ULQiaX-!!-9QI@ 9QI@E]ULQiaX-!!-9QI@ 9QI@E]ULQiaX-!!-9QI@ 9QI@E]ULQiaX-!!-9QI@ 9QI@E]ULQiaX-!!-9QI@ 9QI@E]ULQiaX-!!-9QI@ 9QI@E]ULQiaX-!!-9QI@ 9QI@E]ULQiaX-!!-9QI@ 9QI@E]ULQiaX-!!-9QI@ 9QI@E]ULQiaX-!!-9QI@ 9QI@E]ULQiaX-!!-9QI@ 9QI@E]ULQiaX-!!-9QI@ 9QI@E]ULQiaX-!!-9QI@ 9QI@E]ULQiaX-!!-9QI@ 9QI@E]ULQiaX-!!-9QI@ 9QI@E]ULQiaX-!!-9QI@ 9QI@E]ULQiaX-!!-9QI@ 9QI@E]ULQiaX-!!-9QI@ 9QI@E]ULQiaX-!!-9QI@ 9QI@E]ULQiaX-!!-9QI@ 9QI@E]ULQiaX-!!-9QI@ 9QI@E]ULQiaX-!!-9QI@ 9QI@E]ULQiaX-!!-9QI@ 9QI@E]ULQiaX-!!-9QI@ 9QI@E]ULQiaX-!!-9QI@ 9QI@E]ULQiaX-!!-9QI@ 9QI@E]ULQiaX-!!-9QI@ 9QI@E]ULQiaX-!!-9QI@ 9QI@E]ULQiaX-!!-9QI@ 9QI@E]ULQiaX-!!-9QI@ 9QI@E]ULQiaX-!!-9QI@ 9QI@E]ULQiaX-!!-9QI@ 9QI@E]ULQiaX-!!-9QI@ 9QI@E]ULQiaX-!!-9QI@ 9QI@E]ULQiaX-!!-9QI@ 9QI@E]ULQiaX-!!-9QI@ 9QI@E]ULQiaX-!!-9QI@ 9QI@E]ULQiaX-!!-9QI@ 9QI@E]ULQiaX-!!-9QI@ 9QI@E]ULQiaX-!!-9QI@ 9QI@E]ULQiaX-!!-9QI@ 9QI@E]ULQiaX-!!-9QI@ 9QI@E]ULQiaX-!!-9QI@ 9QI@E]ULQiaX-!!-9QI@ 9QI@E]ULQiaX-!!-9QI@ 9QI@E]ULQiaX-!!-9QI@ 9QI@E]ULQiaX-!!-9QI@ 9QI@E]ULQiaX-!!-9QI@ 9QI@E]ULQiaX-!!-9QI@ 9QI@E]ULQiaX-!!-9QI@ 9QI@E]ULQiaX-!!-9QI@ 9QI@E]ULQiaX-!!-9QI@ 9QI@E]ULQiaX-!!-9QI@ 9QI@E]ULQiaX-!!-9QI@ 9QI@E]ULQiaX-!!-9QI@ 9QI@E]ULQiaX-!!-9QI@ 9QI@E]ULQiaX-!!-9QI@ 9QI@E]ULQiaX-!!-9QI@ 9QI@E]ULQiaX-!!-9QI@ 9QI@E]ULQiaX-!!-9QI@ 9QI@E]ULQiaX-!!-9QI@ 9QI@E]ULQiaX-!!-9QI@ 9QI@E]ULQiaX-!!-9QI@ 9QI@E]ULQiaX-!!-9QI@ 9QI@E]ULQiaX-!!-9QI@ 9QI@E]ULQiaX-!!-9QI@ 9QI@E]ULQiaX-!!-9QI@ 9QI@E]ULQiaX-!!-9QI@ 9QI@E]ULQiaX-!!-9QI@ 9QI@E]ULQiaX-!!-9QI@ 9QI@E]ULQiaX-!!-9QI@ 9QI@E]ULQiaX-!!-9QI@ 9QI@E]ULQiaX-!!-9QI@ 9QI@E]ULQiaX-!!-9QI@ 9QI@E]ULQiaX-!!-9QI@ 9QI@E]ULQiaX-!!-9QI@ 9QI@E]ULQiaX-!!-9QI@ 9QI@E]ULQiaX-!!-9QI@ 9QI@E]ULQiaX-!!-9QI@ 9QI@E]ULQiaX-!!-9QI@ 9QI@E]ULQiaX-!!-9QI@ 9QI@E]ULQiaX-!!-9QI@ 9QI@E]ULQiaX-!!-9QI@ 9QI@E]ULQiaX-!!-9QI@ 9QI@E]ULQiaX-!!-9QI@ 9QI@E]ULQiaX-!!-9QI@ 9QI@E]ULQiaX-!!-9QI@ 9QI@E]ULQiaX-!!-9QI@ 9QI@E]ULQiaX-!!-9QI@ 9QI@E]ULQiaX-!!-9QI@ 9QI@E]ULQiaX-!!-9QI@ 9QI@E]ULQiaX-!!-9QI@ 9QI@E]ULQiaX-!!-9QI@ 9QI@E]ULQiaX-!!-9QI@ 9QI@E]ULQiaX-!!-9QI@ 9QI@E]ULQiaX-!!-9QI@ 9QI@E]ULQiaX-!!-9QI@ 9QI@E]ULQiaX-!!-9QI@ 9QI@E]ULQiaX-!!-9QI@ 9QI@E]ULQiaX-!!-9QI@ 9QI@E]ULQiaX-!!-9QI@ 9QI@E]ULQiaX-!!-9QI@ 9QI@E]ULQiaX-!!-9QI@ 9QI@E]ULQiaX-!!-9QI@ 9QI@E]ULQiaX-!!-9QI@ 9QI@E]ULQiaX-!!-9QI@ 9QI@E]ULQiaX-!!-9QI@ 9QI@E]ULQiaX-!!-9QI@ 9QI@E]ULQiaX-!!-9QI@ 9QI@E]ULQiaX-!!-9QI@ 9QI@E]ULQiaX-!!-9QI@ 9QI@E]ULQiaX-!!-9QI@ 9QI@E]ULQiaX-!!-9QI@ 9QI@E]ULQiaX-!!-9QI@ 9QI@E]ULQiaX-!!-9QI@ 9QI@E]ULQiaX-!!-9QI@ 9QI@E]ULQiaX-!!-9QI@ 9QI@E]ULQiaX-!!-9QI@ 9QI@E]ULQiaX-!!-9QI@ 9QI@E]ULQiaX-!!-9QI@ 9QI@E]ULQiaX-!!-9QI@ 9QI@E]ULQiaX-!!-9QI@ 9QI@E]ULQiaX-!!-9QI@ 9QI@E]ULQiaX-!!-9QI@ 9QI@E]ULQiaX-!!-9QI@ 9QI@E]ULQiaX-!!-9QI@ 9QI@E]ULQiaX-!!-9QI@ 9QI@E]ULQiaX-!!-9QI@ 9QI@E]ULQiaX-!!-9QI@ 9QI@E]ULQiaX-!!-9QI@ 9QI@E]ULQiaX-!!-9QI@ 9QI@E]ULQiaX-!!-9QI@ 9QI@E]ULQiaX-!!-9QI@ 9QI@E]ULQiaX-!!-9QI@ 9QI@E]ULQiaX-!!-9QI@ 9QI@E]ULQiaX-!!-9QI@ 9QI@E]ULQiaX-!!-9QI@ 9QI@E]ULQiaX-!!-9QI@ 9QI@E]ULQiaX-!!-9QI@ 9QI@E]ULQiaX-!!-9QI@ 9QI@E]ULQiaX-!!-9QI@ 9QI@E]ULQiaX-!!-9QI@ 9QI@E]ULQiaX-!!-9QI@ 9QI@E]ULQiaX-!!-9QI@ 9QI@E]ULQiaX-!!-9QI@ 9QI@E]ULQiaX-!!-9QI@ 9QI@E]ULQiaX-!!-9QI@ 9QI@E]ULQiaX-!!-9QI@ 9QI@E]ULQiaX-!!-9QI@ 9QI@E]ULQiaX-!!-9QI@ 9QI@E]ULQiaX-!!-9QI@ 9QI@E]ULQiaX-!!-9QI@ 9QI@E]ULQiaX-!!-9QI@ 9QI@E]ULQiaX-!!-9QI@ 9QI@E]ULQiaX-!!-9QI@ 9QI@E]ULQiaX-!!-9QI@ 9QI@E]ULQiaX-!!-9QI@ 9QI@E]ULQiaX-!!-9QI@ 9QI@E]ULQiaX-!!-9QI@ 9QI@E]ULQiaX-!!-9QI@ 9QI@E]ULQiaX-!!-9QI@ 9QI@E]ULQiaX-!!-9QI@ 9QI@E]ULQiaX-!!-9QI@ 9QI@E]ULQiaX-!!-9QI@ 9QI@E]ULQiaX-!!-9QI@ 9QI@E]ULQiaX-!!-9QI@ 9QI@E]ULQiaX-!!-9QI@ 9QI@E]ULQiaX-!!-9QI@ 9QI@E]ULQiaX-!!-9QI@ 9QI@E]ULQiaX-!!-9QI@ 9QI@E]ULQiaX-!!-9QI@ 9QI@E]ULQiaX-!!-9QI@ 9QI@E]ULQiaX-!!-9QI@ 9QI@E]ULQiaX-!!-9QI@ 9QI@E]ULQiaX-!!-9QI@ 9QI@E]ULQiaX-!!-9QI@ 9QI@E]ULQiaX-!!-9QI@ 9QI@E]ULQiaX-!!-9QI@ 9QI@E]ULQiaX-!!-9QI@ 9QI@E]ULQiaX-!!-9QI@ 9QI@E]ULQiaX-!!-9QI@ 9QI@E]ULQiaX-!!-9QI@ 9QI@E]ULQiaX-!!-9QI@ 9QI@E]ULQiaX-!!-9QI@ 9QI@E]ULQiaX-!!-9QI@ 9QI@E]ULQiaX-!!-9QI@ 9QI@E]ULQiaX-!!-9QI@ 9QI@E]ULQiaX-!!-9QI@ 9QI@E]ULQiaX-!!-9QI@ 9QI@E]ULQiaX-!!-9QI@ 9QI@E]ULQiaX-!!-9QI@ 9QI@E]ULQiaX-!!-9QI@ 9QI@E]ULQiaX-!!-9QI@ 9QI@E]ULQiaX-!!-9QI@ 9QI@E]ULQiaX-!!-9QI@ 9QI@E]ULQiaX-!!-9QI@ 9QI@E]ULQiaX-!!-9QI@ 9QI@E]ULQiaX-!!-9QI@ 9QI@E]ULQiaX-!!-9QI@ 9QI@E]ULQiaX-!!-9QI@ 9QI@E]ULQiaX-!!-9QI@ 9QI@E]ULQiaX-!!-9QI@ 9QI@E]ULQiaX-!!-9QI@ 9QI@E]ULQiaX-!!-9QI@ 9QI@E]ULQiaX-!!-9QI@ 9QI@E]ULQiaX-!!-9QI@ 9QI@E]ULQiaX-!!-9QI@ 9QI@E]ULQiaX-!!-9QI@ 9QI@E]ULQiaX-!!-9QI@ 9QI@E]ULQiaX-!!-9QI@ 9QI@E]ULQiaX-!!-9QI@ 9QI@E]ULQiaX-!!-9QI@ 9QI@E]ULQiaX-!!-9QI@ 9QI@E]ULQiaX-!!-9QI@ 9QI@E]ULQiaX-!!-9QI@ 9QI@E]ULQiaX-!!-9QI@ 9QI@E]ULQiaX-!!-9QI@ 9QI@E]ULQiaX-!!-9QI@ 9QI@E]ULQiaX-!!-9QI@ 9QI@E]ULQiaX-!!-9QI@ 9QI@E]ULQiaX-!!-9QI@ 9QI@E]ULQiaX-!!-9QI@ 9QI@E]ULQiaX-!!-9QI@ 9QI@E]ULQiaX-!!-9QI@ 9QI@E]ULQiaX-!!-9QI@ 9QI@E]ULQiaX-!!-9QI@ 9QI@E]ULQiaX-!!-9QI@ 9QI@E]ULQiaX-!!-9QI@ 9QI@E]ULQiaX-!!-9QI@ 9QI@E]ULQiaX-!!-9QI@ 9QI@E]ULQiaX-!!-9QI@ 9QI@E]ULQiaX-!!-9QI@ 9QI@E]ULQiaX-!!-9QI@ 9QI@E]ULQiaX-!!-9QI@ 9QI@E]ULQiaX-!!-9QI@ 9QI@E]ULQiaX-!!-9QI@ 9QI@E]ULQiaX-!!-9QI@ 9QI@E]ULQiaX-!!-9QI@ 9QI@E]ULQiaX-!!-9QI@ 9QI@E]ULQiaX-!!-9QI@ 9QI@E]ULQiaX-!!-9QI@ 9QI@E]ULQiaX-!!-9QI@ 9QI@E]ULQiaX-!!-9QI@ 9QI@E]ULQiaX-!!-9QI@ 9QI@E]ULQiaX-!!-9QI@ 9QI@E]ULQiaX-!!-9QI@ 9QI@E]ULQiaX-!!-9QI@ 9QI@E]ULQiaX-!!-9QI@ 9QI@E]ULQiaX-!!-9QI@ 9QI@E]ULQiaX-!!-9QI@ 9QI@E]ULQiaX-!!-9QI@ 9QI@E]ULQiaX-!!-9QI@ 9QI@E]ULQiaX-!!-9QI@ 9QI@E]ULQiaX-!!-9QI@ 9QI@E]ULQiaX-!!-9QI@ 9QI@E]ULQiaX-!!-9QI@ 9QI@E]ULQiaX-!!-9QI@ 9QI@E]ULQiaX-!!-9QI@ 9QI@E]ULQiaX-!!-9QI@ 9QI@E]ULQiaX-!!-9QI@ 9QI@E]ULQiaX-!!-9QI@ 9QI@E]ULQiaX-!!-9QI@ 9QI@E]ULQiaX-!!-9QI@ 9QI@E]ULQiaX-!!-9QI@ 9QI@E]ULQiaX-!!-9QI@ 9QI@E]ULQiaX-!!-9QI@ 9QI@E]ULQiaX-!!-9QI@ 9QI@E]ULQiaX-!!-9QI@ 9QI@E]ULQiaX-!!-9QI@ 9QI@E]ULQiaX-!!-9QI@ 9QI@E]ULQiaX-!!-9QI@ 9QI@E]ULQiaX-!!-9QI@ 9QI@E]ULQiaX-!!-9QI@ 9QI@E]ULQiaX-!!-9QI@ 9QI@E]ULQiaX-!!-9QI@ 9QI@E]ULQiaX-!!-9QI@ 9QI@E]ULQiaX-!!-9QI@ 9QI@E]ULQiaX-!!-9QI@ 9QI@E]ULQiaX-!!-9QI@ 9QI@E]ULQiaX-!!-9QI@ 9QI@E]ULQiaX-!!-9QI@ 9QI@E]ULQiaX-!!-9QI@ 9QI@E]ULQiaX-!!-9QI@ 9QI@E]ULQiaX-!!-9QI@ 9QI@E]ULQiaX-!!-9QI@ 9QI@E]ULQiaX-!!-9QI@ 9QI@E]ULQiaX-!!-9QI@ 9QI@E]ULQiaX-!!-9QI@ 9QI@E]ULQiaX-!!-9QI@ 9QI@E]ULQiaX-!!-9QI@ 9QI@E]ULQiaX-!!-9QI@ 9QI@E]ULQiaX-!!-9QI@ 9QI@E]ULQiaX-!!-9QI@ 9QI@E]ULQiaX-!!-9QI@ 9QI@E]ULQiaX-!!-9QI@ 9QI@E]ULQiaX-!!-9QI@ 9QI@E]ULQiaX-!!-9QI@ 9QI@E]ULQiaX-!!-9QI@ 9QI@E]ULQiaX-!!-9QI@ 9QI@E]ULQiaX-!!-9QI@ 9QI@E]ULQiaX-!!-9QI@ 9QI@E]ULQiaX-!!-9QI@ 9QI@E]ULQiaX-!!-9QI@ 9QI@E]ULQiaX-!!-9QI@ 9QI@E]ULQiaX-!!-9QI@ 9QI@E]ULQiaX-!!-9QI@ 9QI@E]ULQiaX-!!-9QI@ 9QI@E]ULQiaX-!!-9QI@ 9QI@E]ULQiaX-!!-9QI@ 9QI@E]ULQiaX-!!-9QI@ 9QI@E]ULQiaX-!!-9QI@ 9QI@E]ULQiaX-!!-9QI@ 9QI@E]ULQiaX-!!-9QI@ 9QI@E]ULQiaX-!!-9QI@ 9QI@E]ULQiaX-!!-9QI@ 9QI@E]ULQiaX-!!-9QI@ 9QI@E]ULQiaX-!!-9QI@ 9QI@E]ULQiaX-!!-9QI@ 9QI@E]ULQiaX-!!-9QI@ 9QI@E]ULQiaX-!!-9QI@ 9QI@E]ULQiaX-!!-9QI@ 9QI@E]ULQiaX-!!-9QI@ 9QI@E]ULQiaX-!!-9QI@ 9QI@E]ULQiaX-!!-9QI@ 9QI@E]ULQiaX-!!-9QI@ 9QI@E]ULQiaX-!!-9QI@ 9QI@E]ULQiaX-!!-9QI@ 9QI@E]ULQiaX-!!-9QI@ 9QI@E]ULQiaX-!!-9QI@ 9QI@E]ULQiaX-!!-9QI@ 9QI@E]ULQiaX-!!-9QI@ 9QI@E]ULQiaX-!!-9QI@ 9QI@E]ULQiaX-!!-9QI@ 9QI@E]ULQiaX-!!-9QI@ 9QI@E]ULQiaX-!!-9QI@ 9QI@E]ULQiaX-!!-9QI@ 9QI@E]ULQiaX-!!-9QI@ 9QI@E]ULQiaX-!!-9QI@ 9QI@E]ULQiaX-!!-9QI@ 9QI@E]ULQiaX-!!-9QI@ 9QI@E]ULQiaX-!!-9QI@ 9QI@E]ULQiaX-!!-9QI@ 9QI@E]ULQiaX-!!-9QI@ 9QI@E]ULQiaX-!!-9QI@ 9QI@E]ULQiaX-!!-9QI@ 9QI@E]ULQiaX-!!-9QI@ 9QI@E]ULQiaX-!!-9QI@ 9QI@E]ULQiaX-!!-9QI@ 9QI@E]ULQiaX-!!-9QI@ 9QI@E]ULQiaX-!!-9QI@ 9QI@E]ULQiaX-!!-9QI@ 9QI@E]ULQiaX-!!-9QI@ 9QI@E]ULQiaX-!!-9QI@ 9QI@E]ULQiaX-!!-9QI@ 9QI@E]ULQiaX-!!-9QI@ 9QI@E]ULQiaX-!!-9QI@ 9QI@E]ULQiaX-!!-9QI@ 9QI@E]ULQiaX-!!-9QI@ 9QI@E]ULQiaX-!!-9QI@ 9QI@E]ULQiaX-!!-9QI@ 9QI@E]ULQiaX-!!-9QI@ 9QI@E]ULQiaX-!!-9QI@ 9QI@E]ULQiaX-!!-9QI@ 9QI@E]ULQiaX-!!-9QI@ 9QI@E]ULQiaX-!!-9QI@ 9QI@E]ULQiaX-!!-9QI@ 9QI@E]ULQiaX-!!-9QI@ 9QI@E]ULQiaX-!!-9QI@ 9QI@E]ULQiaX-!!-9QI@ 9QI@E]ULQiaX-!!-9QI@ 9QI@E]ULQiaX-!!-9QI@ 9QI@E]ULQiaX-!!-9QI@ 9QI@E]ULQiaX-!!-9QI@ 9QI@E]ULQiaX-!!-9QI@ 9QI@E]ULQiaX-!!-9QI@ 9QI@E]ULQiaX-!!-9QI@ 9QI@E]ULQiaX-!!-9QI@ 9QI@E]ULQiaX-!!-9QI@ 9QI@E]ULQiaX-!!-9QI@ 9QI@E]ULQiaX-!!-9QI@ 9QI@E]ULQiaX-!!-9QI@ 9QI@E]ULQiaX-!!-9QI@ 9QI@E]ULQiaX-!!-9QI@ 9QI@E]ULQiaX-!!-9QI@ 9QI@E]ULQiaX-!!-9QI@ 9QI@E]ULQiaX-!!-9QI@ 9QI@E]ULQiaX-!!-9QI@ 9QI@E]ULQiaX-!!-9QI@ 9QI@E]ULQiaX-!!-9QI@ 9QI@E]ULQiaX-!!-9QI@ 9QI@E]ULQiaX-!!-9QI@ 9QI@E]ULQiaX-!!-9QI@ 9QI@E]ULQiaX-!!-9QI@ 9QI@E]ULQiaX-!!-9QI@ 9QI@E]ULQiaX-!!-9QI@ 9QI@E]ULQiaX-!!-9QI@ 9QI@E]ULQiaX-!!-9QI@ 9QI@E]ULQiaX-!!-9QI@ 9QI@E]ULQiaX-!!-9QI@ 9QI@E]ULQiaX-!!-9QI@ 9QI@E]ULQiaX-!!-9QI@ 9QI@E]ULQiaX-!!-9QI@ 9QI@E]ULQiaX-!!-9QI@ 9QI@E]ULQiaX-!!-9QI@ 9QI@E]ULQiaX-!!-9QI@ 9QI@E]ULQiaX-!!-9QI@ 9QI@E]ULQiaX-!!-9QI@ 9QI@E]ULQiaX-!!-9QI@ 9QI@E]ULQiaX-!!-9QI@ 9QI@E]ULQiaX-!!-9QI@ 9QI@E]ULQiaX-!!-9QI@ 9QI@E]ULQiaX-!!-9QI@ 9QI@E]ULQiaX-!!-9QI@ 9QI@E]ULQiaX-!!-9QI@ 9QI@E]ULQiaX-!!-9QI@ 9QI@E]ULQiaX-!!-9QI@ 9QI@E]ULQiaX-!!-9QI@ 9QI@E]ULQiaX-!!-9QI@ 9QI@E]ULQiaX-!!-9QI@ 9QI@E]ULQiaX-!!-9QI@ 9QI@E]ULQiaX-!!-9QI@ 9QI@E]ULQiaX-!!-9QI@ 9QI@E]ULQiaX-!!-9QI@ 9QI@E]ULQiaX-!!-9QI@ 9QI@E]ULQiaX-!!-9QI@ 9QI@E]ULQiaX-!!-9QI@ 9QI@E]ULQiaX-!!-9QI@ 9QI@E]ULQiaX-!!-9QI@ 9QI@E]ULQiaX-!!-9QI@ 9QI@E]ULQiaX9QI@ 9QI@E]ULQiaX9QI@ 9QI@E]ULQiaX9QI@ 9QI@E]ULQiaX9QI@ 9QI@E]ULQiaX9QI@ 9QI@E]ULQiaX9QI@ 9QI@E]ULQiaX9QI@ 9QI@E]ULQiaX9QI@ 9QI@E]ULQiaX9QI@ QI@]ULiaXQI@ QI@]ULiaXQI@ QI@]ULiaXQI@ QI@]ULiaXQI@ QI@]ULiaXQI@ QI@]ULiaXQI@ QI@]ULiaXQI@ QI@]ULiaXQI@ QI@]ULiaXQI@ I@ULaXI@ @LX@  