                                                                                                C C C C C C C C C C C C C C C C C C C C C C C C C C C C C C C C C C C C C C C C C C C C C C C C C C C C C C C C C C C C C C C C C C C C C C C C C C C C C C C C C C C C C C C C C C C C C C C C C C C C C C C C C C C C C C C C C C C C C C C C C C C C C C C C C C C C C C C C C C C C C C C C C C C C C C C C C C C      G G G G G G G G G G G G G G G G G G G G G G G G G G G G G G G G G G G G G G G G G G G G G G G G G G G G G G G G G G G G G G G G G G G G G G G G G G G G G G G G G G G G G G G G G G G G G G G G G G G G G G G G G G G G G G G G G G G G G G G G G G G G G G G G G G G G G G G G G G G G G G G G G G G G G G G G G G G      J J J J J J J J J J J J J J J J J J J J J J J J J J J J J J J J J J J J J J J J J J J J J J J J J J J J J J J J J J J J J J J J J J J J J J J J J J J J J J J J J J J J J J J J J J J J J J J J J J J J J J J J J J J J J J J J J J J J J J J J J J J J J J J J J J J J J J J J J J J J J J J J J J J J J J J J J J J      G G G G G G G G G G G G G G G G G G G G G G G G G G G G G G G G G G G G G G G G G G G G G G G G G G G G G G G G G G G G G G G G G G G G G G G G G G G G G G G G G G G G G G G G G G G G G G G G G G G G G G G G G G G G G G G G G G G G G G G G G G G G G G G G G G G G G G G G G G G G G G G G G G G G G G G G G G G      C C C C C C C C C C C C C C C C C C C C C C C C C C C C C C C C C C C C C C C C C C C C C C C C C C C C C C C C C C C C C C C C C C C C C C C C C C C C C C C C C C C C C C C C C C C C C C C C C C C C C C C C C C C C C C C C C C C C C C C C C C C C C C C C C C C C C C C C C C C C C C C C C C C C C C C C C C C      J J J J J J J J J J J J J J J J J J J J J J J J J J J J J J J J J J J J J J J J J J J J J J J J J J J J J J J J J J J J J J J J J J J J J J J J J J J J J J J J J J J J J J J J J J J J J J J J J J J J J J J J J J J J J J J J J J J J J J J J J J J J J J J J J J J J J J J J J J J J J J J J J J J J J J J J J J J      G G G G G G G G G G G G G G G G G G G G G G G G G G G G G G G G G G G G G G G G G G G G G G G G G G G G G G G G G G G G G G G G G G G G G G G G G G G G G G G G G G G G G G G G G G G G G G G G G G G G G G G G G G G G G G G G G G G G G G G G G G G G G G G G G G G G G G G G G G G G G G G G G                C C C C C C C C C C C C C C C C C C C C C C C C C C C C C C C C C C C C C C C C C C C C C C C C C C C C C C C C C C C C C C C C C C C C C C C C C C C C C C C C C C C C C C C C C C C C C C C C C C C C C C C C C C C C C C C C C C C C C C C C C C C C C C C C C C C C C C C C C C C C C C C C C                O O O O O O O O O O O O O O O O O O O O O O O O O O O O O O O O O O O O O O O O O O O O O O O O O O O O O O O O O O O O O O O O O O O O O O O O O O O O O O O O O O O O O O O O O O O O O O O O O O O O O O O O O O O O O O O O O O O O O O O O O O O O O O O O O O O O O O O O O O O O O O O O O                O2 O2 O2 O2 O2 O2 O2 O2 O2 O2 O2 O2 O2 O2 O2 O2 O2 O2 O2 O2 O2 O2 O2 O2 O2 O2 O2 O2 O2 O2 O2 O2 O2 O2 O2 O2 O2 O2 O2 O2 O2 O2 O2 O2 O2 O2 O2 O2 O2 O2 O2 O2 O2 O2 O2 ON2 ON2 ON2 ON2 ON2 ON2 ON2 ON2 ON2 ON2 ON2 ON2 ON2 ON2 ON2 ON2 ON2 ON2 ON2 ON2 N2 N2 N2 N2 N2 N2 N2 N2 N2 N2 N2 N2 N2 N2 N2 N2 N2 N2 N2 N2 N2 N2 N2 N2 N2 N2 N2 N2 N2 N2 N2 N2 N2 N2 N2 N2O N2O N2O N2O N2O N2O N2O N2O N2O N2O N2O N2O N2O N2O N2O N2O N2O N2O N2O N2O 2O 2O 2O 2O 2O 2O 2O 2O 2O 2O 2O 2O 2O 2O 2O 2O 2O 2O 2O 2O 2O 2O 2O 2O 2O 2O 2O 2O O O ON6 ON6 ON6 ON6 ON6 ON6 ON6 ON6 ON6 ON6 ON6 ON6 ON6 ON6 ON6 ON6 ON6 ON6 ON6 ON6 ON6 ON6 ON6 ON6 ON6 N6 N6 N6 N6 N6 N6 N6 N6 N6 N6 N6 N6 N6 N6 N6 N6 N6 N6 N6 N6 N6 N6 N6 N6 N6 N6 N6 N6 N6 N6 N6 N6 N6 N6 N6 N6 N6 N6 N6 N6 N6 N6 N6 N6 N6 N6 N6 N6 N6 N6 N6 N6 N6 N6 N6 N6 N6 N6 N6 N6 N6 N6 N6 N6 N6 N6 N6 N6 N6 N6 N6 N6 N6 N6 N6 N6 N6 N6 N6 N6 N6 N6 N6 N6 N6 N6 N6 N6 N6 N6 N6 N6 N6 N6 N6 N6 N6 N6 N6 N6 N6 N6 N6 N6 N6 N6 N6 N6 N6 N6 N6 N6 N6 N6 N6 N6 N6 N6 N6 N6 N6 N6 N6 N6 N6 N6 N6 N6 N6 N6 6 6   J9 J9 J9 J9 J9 J9 J9 J9 J9 J9 J9 J9 J9 J9 J9 J9 J9 J9 J9 J9 J9 J9 J9 J9 J9 J9 J9 J9 J9 J9 J9 J9 J9 J9 J9 J9 J9 J9 J9 J9 J9 J9 J9 J9 J9 J9 J9 J9 J9 J9 J9 J9 J9 J9 J9 J9 J9 J9 J9 J9 J9 J9 J9 J9 J9 J9 J9 J9 J9 J9 J9 J9 J9 J9 J9 J9 J9 J9 J9 J9 J9 J9 J9 J9 J9 J9 J9 J9 J9 J9 J9 J9 J9 J9 J9 J9 J9 J9 J9 J9 J9 J9 J9 J9 J9 J9 J9 J9 J9 J9 J9 J9 J9 J9 J9 J9 J9 J9 J9 J9 J9 J9 J9 J9 J9 J9 J9 J9 J9 J9 J9 J9 J9 J9 J9 J9 J9 J9 J9 J9 J9 J9 J9 J9 J9 J9 J9 J9 J9 J9 J9 J9 J9 J9 J9 9 9   Q6 Q6 Q6 Q6 Q6 Q6 Q6 Q6 Q6 Q6 Q6 Q6 Q6 Q6 Q6 Q6 Q6 Q6 Q6 Q6 Q6 Q6 Q6 Q6 Q6 Q6 Q6 Q6 Q6 Q6 Q6 Q6 Q6 Q6 Q6 Q6 Q6 Q6 Q6 Q6 Q6 Q6 Q6 Q6 Q6 Q6 Q6 Q6 Q6 Q6 Q6 Q6 Q6 Q6 Q6 Q6 Q6 Q6 Q6 Q6 Q6 Q6 Q6 Q6 Q6 Q6 Q6 Q6 Q6 Q6 Q6 Q6 Q6 Q6 Q6 Q6 Q6 Q6 Q6 Q6 Q6 Q6 Q6 Q6 Q6 Q6 Q6 Q6 Q6 Q6 Q6 Q6 Q6 Q6 Q6 Q6 Q6 Q6 Q6 Q6 Q6 Q6 Q6 Q6 Q6 Q6 Q6 Q6 Q6 Q6 Q6 Q6 Q6 Q6 Q6 Q6 Q6 Q6 Q6 Q6 Q6 Q6 Q6 Q6 Q6 Q6 Q6 Q6 Q6 Q6 Q6 Q6 Q6 Q6 Q6 Q6 Q6 Q6 Q6 Q6 Q6 Q6 Q6 Q6 Q6 Q6 Q6 Q6 Q6 Q6 Q6 Q6 Q6 Q6 Q6 6 6   N2 N2 N2 N2 N2 N2 N2 N2 N2 N2 N2 N2 N2 N2 N2 N2 N2 N2 N2 N2 N2 N2 N2 N2 N2 N2 N2 N2 N2 N2 N2 N2 N2 N2 N2 N2 N2 N2 N2 N2 N2 N2 N2 N2 N2 N2 N2 N2 N2 N2 N2 N2 N2 N2 N2 N2 N2 N2 N2 N2 N2 N2 N2 N2 N2 N2 N2 N2 N2 N2 N2 N2 N2 N2 N2 N2 N2 N2 N2 N2 N2 N2 N2 N2 N2 N2 N2 N2 N2 N2 N2 N2 N2 N2 N2 N2 N2 N2 N2 N2 N2 N2 N2 N2 N2 N2 N2 N2 N2 N2 N2 N2 N2 N2 N2 N2 N2 N2 N2 N2 N2 N2 N2 N2 N2 N2 N2 N2 N2 N2 N2 N2 N2 N2 N2 N2 N2 N2 N2 N2 N2 N2 N2 N2 N2 N2 N2 N2 N2 N2 N2 N2 N2 N2 N2 2 2   J9 J9 J9 J9 J9 J9 J9 J9 J9 J9 J9 J9 J9 J9 J9 J9 J9 J9 J9 J9 J9 J9 J9 J9 J9 J9 J9 J9 J9 J9 J9 J9 J9 J9 J9 J9 J9 J9 J9 J9 J9 J9 J9 J9 J9 J9 J9 J9 J9 J9 J9 J9 J9 J9 J9 J9 J9 J9 J9 J9 J9 J9 J9 J9 J9 J9 J9 J9 J9 J9 J9 J9 J9 J9 J9 J9 J9 J9 J9 J9 J9 J9 J9 J9 J9 J9 J9 J9 J9 J9 J9 J9 J9 J9 J9 J9 J9 J9 J9 J9 J9 J9 J9 J9 J9 J9 J9 J9 J9 J9 J9 J9 J9 J9 J9 J9 J9 J9 J9 J9 J9 J9 J9 J9 J9 J9 J9 J9 J9 J9 J9 J9 J9 J9 J9 J9 J9 J9 J9 J9 J9 J9 J9 J9 J9 J9 J9 J9 J9 J9 J9 J9 J9 J9 J9 9 9   Q6 Q6 Q6 Q6 Q6 Q6 Q6 Q6 Q6 Q6 Q6 Q6 Q6 Q6 Q6 Q6 Q6 Q6 Q6 Q6 Q6 Q6 Q6 Q6 Q6 Q6 Q6 Q6 Q6 Q6 Q6 Q6 Q6 Q6 Q6 Q6 Q6 Q6 Q6 Q6 Q6 Q6 Q6 Q6 Q6 Q6 Q6 Q6 Q6 Q6 Q6 Q6 Q6 Q6 Q6 Q6 Q6 Q6 Q6 Q6 Q6 Q6 Q6 Q6 Q6 Q6 Q6 Q6 Q6 Q6 Q6 Q6 Q6 Q6 Q6 Q6 Q6 Q6 Q6 Q6 Q6 Q6 Q6 Q6 Q6 Q6 Q6 Q6 Q6 Q6 Q6 Q6 Q6 Q6 Q6 Q6 Q6 Q6 Q6 Q6 Q6 Q6 Q6 Q6 Q6 Q6 Q6 Q6 Q6 Q6 Q6 Q6 Q6 Q6 Q6 Q6 Q6 Q6 Q6 Q6 Q6 Q6 Q6 Q6 Q6 Q6 Q6 Q6 Q6 Q6 Q6 Q6 Q6 Q6 Q6 Q6 Q6 Q6 Q6 Q6 Q6 Q6 Q6 Q6 Q6 6 6 6 6 6 6 6 6 6 6 6 6   N2 N2 N2 N2 N2 N2 N2 N2 N2 N2 N2 N2 N2 N2 N2 N2 N2 N2 N2 N2 N2 N2 N2 N2 N2 N2 N2 N2 N2 N2 N2 N2 N2 N2 N2 N2 N2 N2 N2 N2 N2 N2 N2 N2 N2 N2 N2 N2 N2 N2 N2 N2 N2 N2 N2 N2 N2 N2 N2 N2 N2 N2 N2 N2 N2 N2 N2 N2 N2 N2 N2 N2 N2 N2 N2 N2 N2 N2 N2 N2 N2 N2 N2 N2 N2 N2 N2 N2 N2 N2 N2 N2 N2 N2 N2 N2 N2 N2 N2 N2 N2 N2 N2 N2 N2 N2 N2 N2 N2 N2 N2 N2 N2 N2 N2 N2 N2 N2 N2 N2 N2 N2 N2 N2 N2 N2 N2 N2 N2 N2 N2 N2 N2 N2 N2 N2 N2 N2 N2 N2 N2 N2 N2 N2 N2 2 2 2 2 2 2 2 2 2 2 2 2   J< J< J< J< J< J< J< J< J< J< J< J< J< J< J< J< J< J< J< J< J< J< J< J< J< J< J< J< J< J< J< J< J< J< J< J< J< J< J< J< J< J< J< J< J< J< J< J< J< J< J< J< J< J< J< J< J< J< J< J< J< J< J< J< J< J< J< J< J< J< J< J< J< J< J< J< J< J< J< J< J< J< J< J< J< J< J< J< J< J< J< J< J< J< J< J< J< J< J< J< J< J< J< J< J< J< J< J< J< J< J< J< J< J< J< J< J< J< J< J< J< J< J< J< J< J< J< J< J< J< J< J< J< J< J< J< J< J< J< J< J< J< J< J< J< < < < < < < < < < < < <   <O <O <O <O <O <O <O <O <O <O <O <O <O <O <O <O <O <O <O <O <O <O <O <O <O <O <O <O <O <O <O <O <O <O <O <O <O <O <O <O <O <O <O <O <O <O <O <O <O <O <O <O <O <O <O <O <O <O <O <O <O <O <O <O <O <O <O <O <O <O <O <O <O <O <O <O <O <O ;O ;O ;O ;O ;O ;O ;O ;O ;O ;O ;O ;O ;O ;O ;O ;O ;O ;O ;O ;O ;O ;O ;O ;O ;O ;O ;O ;O ;O ;O ;O ;O ;O ;O ;O ;O ;O ;O ;O ;O ;O ;O ;O ;O ;O ;O ;O ;O ;O ;O ;O ;O ;O ;O ;O ;O ;O ;O ;O ;O ;O ;O ;O ;O ;O ;O ;O ;O ;O ;O ;O ;O ;O ;O ;O ;O ;O ;O < < < < < <J <J <J <J <J <J <J <J <J <J <J <J <J <J <J <J <J <J <J <J <J <J <J <J <J <J <J <J <J <J <J <J <J <J <J <J <J <J <J <J <J <J <J <J <J <J <J <J <J <J <J <J <J <J <J <J <J <J <J <J <J <J <J <J <J <J <J <J <J <J <J <J ;J ;J ;J ;J ;J ;J ;J ;J ;J ;J ;J ;J ;J ;J ;J ;J ;J ;J ;J ;J ;J ;J ;J ;J ;J ;J ;J ;J ;J ;J ;J ;J ;J ;J ;J ;J ;J ;J ;J ;J ;J ;J ;J ;J ;J ;J ;J ;J ;J ;J ;J ;J ;J ;J ;J ;J ;J ;J ;J ;J ;J ;J ;J ;J ;J ;J ;J ;J ;J ;J ;J ;J ;J ;J ;J ;J ;J ;J J J J J J      G7 G7 G7 G7 G7 G7 G7 G7 G7 G7 G7 G7 G7 G7 G7 G7 G7 G7 G7 G7 G7 G7 G7 G7 G7 G7 G7 G7 G7 G7 G7 G7 G7 G7 G7 G7 G7 G7 G7 G7 G7 G7 G7 G7 G7 G7 G7 G7 G7 G7 G7 G7 G7 G7 G7 G7 G7 G7 G7 G7 G7 G7 G7 G7 G7 G7 G7 G7 G7 G7 G7 G7 G7 G7 G7 G7 G7 G7 G7 G7 G7 G7 G7 G7 G7 G7 G7 G7 G7 G7 G7 G7 G7 G7 G7 G7 G7 G7 G7 G7 G7 G7 G7 G7 G7 G7 G7 G7 G7 G7 G7 G7 G7 G7 G7 G7 G7 G7 G7 G7 G7 G7 G7 G7 G7 G7 G7 G7 G7 G7 G7 G7 G7 G7 G7 G7 G7 G7 G7 G7 G7 G7 G7 G7 G7 G7 G7 G7 G7 G7 G7 G7 G7 G7 G7 7 7   M> M> M> M> M> M> M> M> M> M> M> M> M> M> M> M> M> M> M> M> M> M> M> M> M> M> M> M> M> M> M> M> M> M> M> M> M> M> M> M> M> M> M> M> M> M> M> M> M> M> M> M> M> M> M> M> M> M> M> M> M> M> M> M> M> M> M> M> M> M> M> M> M> M> M> M> M> M> M> M> M> M> M> M> M> M> M> M> M> M> M> M> M> M> M> M> M> M> M> M> M> M> M> M> M> M> M> M> M> M> M> M> M> M> M> M> M> M> M> M> M> M> M> M> M> M> M> M> M> M> M> M> M> M> M> M> M> M> M> M> M> M> M> M> M> M> M> M> M> M> M> M> M> M> M> > >   J; J; J; J; J; J; J; J; J; J; J; J; J; J; J; J; J; J; J; J; J; J; J; J; J; J; J; J; J; J; J; J; J; J; J; J; J; J; J; J; J; J; J; J; J; J; J; J; J; J; J; J; J; J; J; J; J; J; J; J; J; J; J; J; J; J; J; J; J; J; J; J; J; J; J; J; J; J; J; J; J; J; J; J; J; J; J; J; J; J; J; J; J; J; J; J; J; J; J; J; J; J; J; J; J; J; J; J; J; J; J; J; J; J; J; J; J; J; J; J; J; J; J; J; J; J; J; J; J; J; J; J; J; J; J; J; J; J; J; J; J; J; J; J; J; J; J; J; J; J; J; J; J; J; J; ; ;   G7 G7 G7 G7 G7 G7 G7 G7 G7 G7 G7 G7 G7 G7 G7 G7 G7 G7 G7 G7 G7 G7 G7 G7 G7 G7 G7 G7 G7 G7 G7 G7 G7 G7 G7 G7 G7 G7 G7 G7 G7 G7 G7 G7 G7 G7 G7 G7 G7 G7 G7 G7 G7 G7 G7 G7 G7 G7 G7 G7 G7 G7 G7 G7 G7 G7 G7 G7 G7 G7 G7 G7 G7 G7 G7 G7 G7 G7 G7 G7 G7 G7 G7 G7 G7 G7 G7 G7 G7 G7 G7 G7 G7 G7 G7 G7 G7 G7 G7 G7 G7 G7 G7 G7 G7 G7 G7 G7 G7 G7 G7 G7 G7 G7 G7 G7 G7 G7 G7 G7 G7 G7 G7 G7 G7 G7 G7 G7 G7 G7 G7 G7 G7 G7 G7 G7 G7 G7 G7 G7 G7 G7 G7 G7 G7 G7 G7 G7 G7 G7 G7 G7 G7 G7 G7 7 7   M> M> M> M> M> M> M> M> M> M> M> M> M> M> M> M> M> M> M> M> M> M> M> M> M> M> M> M> M> M> M> M> M> M> M> M> M> M> M> M> M> M> M> M> M> M> M> M> M> M> M> M> M> M> M> M> M> M> M> M> M> M> M> M> M> M> M> M> M> M> M> M> M> M> M> M> M> M> M> M> M> M> M> M> M> M> M> M> M> M> M> M> M> M> M> M> M> M> M> M> M> M> M> M> M> M> M> M> M> M> M> M> M> M> M> M> M> M> M> M> M> M> M> M> M> M> M> M> M> M> M> M> M> M> M> M> M> M> M> M> M> M> M> M> M> > > > > > > > > > > > >   J; J; J; J; J; J; J; J; J; J; J; J; J; J; J; J; J; J; J; J; J; J; J; J; J; J; J; J; J; J; J; J; J; J; J; J; J; J; J; J; J; J; J; J; J; J; J; J; J; J; J; J; J; J; J; J; J; J; J; J; J; J; J; J; J; J; J; J; J; J; J; J; J; J; J; J; J; J; J; J; J; J; J; J; J; J; J; J; J; J; J; J; J; J; J; J; J; J; J; J; J; J; J; J; J; J; J; J; J; J; J; J; J; J; J; J; J; J; J; J; J; J; J; J; J; J; J; J; J; J; J; J; J; J; J; J; J; J; J; J; J; J; J; J; J; ; ; ; ; ; ; ; ; ; ; ; ;   G7 G7 G7 G7 G7 G7 G7 G7 G7 G7 G7 G7 G7 G7 G7 G7 G7 G7 G7 G7 G7 G7 G7 G7 G7 G7 G7 G7 G7 G7 G7 G7 G7 G7 G7 G7 G7 G7 G7 G7 G7 G7 G7 G7 G7 G7 G7 G7 G7 G7 G7 G7 G7 G7 G7 G7 G7 G7 G7 G7 G7 G7 G7 G7 G7 G7 G7 G7 G7 G7 G7 G7 G7 G7 G7 G7 G7 G7 G7 G7 G7 G7 G7 G7 G7 G7 G7 G7 G7 G7 G7 G7 G7 G7 G7 G7 G7 G7 G7 G7 G7 G7 G7 G7 G7 G7 G7 G7 G7 G7 G7 G7 G7 G7 G7 G7 G7 G7 G7 G7 G7 G7 G7 G7 G7 G7 G7 G7 G7 G7 G7 G7 G7 G7 G7 G7 G7 G7 G7 G7 G7 G7 G7 G7 G7 7 7 7 7 7 7 7 7 7 7 7 7   L< L< L< L< L< L< L< L< L< L< L< L< L< L< L< L< L< L< L< L< L< L< L< L< L< L< L< L< L< L< L< L< L< L< L< L< L< L< L< L< L< L< L< L< L< L< L< L< L< L< L< L< L< L< L< L< L< L< L< L< L< L< L< L< L< L< L< L< L< L< L< L< L< L< L< L< L< L< L< L< L< L< L< L< L< L< L< L< L< L< L< L< L< L< L< L< L< L< L< L< L< L< L< L< L< L< L< L< L< L< L< L< L< L< L< L< L< L< L< L< L< L< L< L< L< L< L< L< L< L< L< L< L< L< L< L< L< L< L< L< L< L< L< L< L< L< L< L< L< L< L< L< L< L< L< < <   H@ H@ H@ H@ H@ H@ H@ H@ H@ H@ H@ H@ H@ H@ H@ H@ H@ H@ H@ H@ H@ H@ H@ H@ H@ H@ H@ H@ H@ H@ H@ H@ H@ H@ H@ H@ H@ H@ H@ H@ H@ H@ H@ H@ H@ H@ H@ H@ H@ H@ H@ H@ H@ H@ H@ H@ H@ H@ H@ H@ H@ H@ H@ H@ H@ H@ H@ H@ H@ H@ H@ H@ H@ H@ H@ H@ H@ H@ H@ H@ H@ H@ H@ H@ H@ H@ H@ H@ H@ H@ H@ H@ H@ H@ H@ H@ H@ H@ H@ H@ H@ H@ H@ H@ H@ H@ H@ H@ H@ H@ H@ H@ H@ H@ H@ H@ H@ H@ H@ H@ H@ H@ H@ H@ H@ H@ H@ H@ H@ H@ H@ H@ H@ H@ H@ H@ H@ H@ H@ H@ H@ H@ H@ H@ H@ H@ H@ H@ H@ H@ H@ H@ H@ H@ H@ @ @   E< E< E< E< E< E< E< E< E< E< E< E< E< E< E< E< E< E< E< E< E< E< E< E< E< E< E< E< E< E< E< E< E< E< E< E< E< E< E< E< E< E< E< E< E< E< E< E< E< E< E< E< E< E< E< E< E< E< E< E< E< E< E< E< E< E< E< E< E< E< E< E< E< E< E< E< E< E< E< E< E< E< E< E< E< E< E< E< E< E< E< E< E< E< E< E< E< E< E< E< E< E< E< E< E< E< E< E< E< E< E< E< E< E< E< E< E< E< E< E< E< E< E< E< E< E< E< E< E< E< E< E< E< E< E< E< E< E< E< E< E< E< E< E< E< E< E< E< E< E< E< E< E< E< E< < <   B9 B9 B9 B9 B9 B9 B9 B9 B9 B9 B9 B9 B9 B9 B9 B9 B9 B9 B9 B9 B9 B9 B9 B9 B9 B9 B9 B9 B9 B9 B9 B9 B9 B9 B9 B9 B9 B9 B9 B9 B9 B9 B9 B9 B9 B9 B9 B9 B9 B9 B9 B9 B9 B9 B9 B9 B9 B9 B9 B9 B9 B9 B9 B9 B9 B9 B9 B9 B9 B9 B9 B9 B9 B9 B9 B9 B9 B9 B9 B9 B9 B9 B9 B9 B9 B9 B9 B9 B9 B9 B9 B9 B9 B9 B9 B9 B9 B9 B9 B9 B9 B9 B9 B9 B9 B9 B9 B9 B9 B9 B9 B9 B9 B9 B9 B9 B9 B9 B9 B9 B9 B9 B9 B9 B9 B9 B9 B9 B9 B9 B9 B9 B9 B9 B9 B9 B9 B9 B9 B9 B9 B9 B9 B9 B9 B9 B9 B9 B9 B9 B9 B9 B9 B9 B9 9 9   E< E< E< E< E< E< E< E< E< E< E< E< E< E< E< E< E< E< E< E< E< E< E< E< E< E< E< E< E< E< E< E< E< E< E< E< E< E< E< E< E< E< E< E< E< E< E< E< E< E< E< E< E< E< E< E< E< E< E< E< E< E< E< E< E< E< E< E< E< E< E< E< E< E< E< E< E< E< E< E< E< E< E< E< E< E< E< E< E< E< E< E< E< E< E< E< E< E< E< E< E< E< E< E< E< E< E< E< E< E< E< E< E< E< E< E< E< E< E< E< E< E< E< E< E< E< E< E< E< E< E< E< E< E< E< E< E< E< E< E< E< E< E< E< E< E< E< E< E< E< E< E< E< E< E< < <   H9 H9 H9 H9 H9 H9 H9 H9 H9 H9 H9 H9 H9 H9 H9 H9 H9 H9 H9 H9 H9 H9 H9 H9 H9 H9 H9 H9 H9 H9 H9 H9 H9 H9 H9 H9 H9 H9 H9 H9 H9 H9 H9 H9 H9 H9 H9 H9 H9 H9 H9 H9 H9 H9 H9 H9 H9 H9 H9 H9 H9 H9 H9 H9 H9 H9 H9 H9 H9 H9 H9 H9 H9 H9 H9 H9 H9 H9 H9 H9 H9 H9 H9 H9 H9 H9 H9 H9 H9 H9 H9 H9 H9 H9 H9 H9 H9 H9 H9 H9 H9 H9 H9 H9 H9 H9 H9 H9 H9 H9 H9 H9 H9 H9 H9 H9 H9 H9 H9 H9 H9 H9 H9 H9 H9 H9 H9 H9 H9 H9 H9 H9 H9 H9 H9 H9 H9 H9 H9 H9 H9 H9 H9 H9 H9 H9 H9 H9 H9 H9 H9 H9 H9 H9 H9 9 9   L6 L6 L6 L6 L6 L6 L6 L6 L6 L6 L6 L6 L6 L6 L6 L6 L6 L6 L6 L6 L6 L6 L6 L6 L6 L6 L6 L6 L6 L6 L6 L6 L6 L6 L6 L6 L6 L6 L6 L6 L6 L6 L6 L6 L6 L6 L6 L6 L6 L6 L6 L6 L6 L6 L6 L6 L6 L6 L6 L6 L6 L6 L6 L6 L6 L6 L6 L6 L6 L6 L6 L6 L6 L6 L6 L6 L6 L6 L6 L6 L6 L6 L6 L6 L6 L6 L6 L6 L6 L6 L6 L6 L6 L6 L6 L6 L6 L6 L6 L6 L6 L6 L6 L6 L6 L6 L6 L6 L6 L6 L6 L6 L6 L6 L6 L6 L6 L6 L6 L6 L6 L6 L6 L6 L6 L6 L6 L6 L6 L6 L6 L6 L6 L6 L6 L6 L6 L6 L6 L6 L6 L6 L6 L6 L6 6 6 6 6 6 6 6 6 6 6 6 6   J7 J7 J7 J7 J7 J7 J7 J7 J7 J7 J7 J7 J7 J7 J7 J7 J7 J7 J7 J7 J7 J7 J7 J7 J7 J7 J7 J7 J7 J7 J7 J7 J7 J7 J7 J7 J7 J7 J7 J7 J7 J7 J7 J7 J7 J7 J7 J7 J7 J7 J7 J7 J7 J7 J7 J7 J7 J7 J7 J7 J7 J7 J7 J7 J7 J7 J7 J7 J7 J7 J7 J7 J7 J7 J7 J7 J7 J7 J7 J7 J7 J7 J7 J7 J7 J7 J7 J7 J7 J7 J7 J7 J7 J7 J7 J7 J7 J7 J7 J7 J7 J7 J7 J7 J7 J7 J7 J7 J7 J7 J7 J7 J7 J7 J7 J7 J7 J7 J7 J7 J7 J7 J7 J7 J7 J7 J7 J7 J7 J7 J7 J7 J7 J7 J7 J7 J7 J7 J7 J7 J7 J7 J7 J7 J7 7 7 7 7 7 7 7 7 7 7 7 7   H9 H9 H9 H9 H9 H9 H9 H9 H9 H9 H9 H9 H9 H9 H9 H9 H9 H9 H9 H9 H9 H9 H9 H9 H9 H9 H9 H9 H9 H9 H9 H9 H9 H9 H9 H9 H9 H9 H9 H9 H9 H9 H9 H9 H9 H9 H9 H9 H9 H9 H9 H9 H9 H9 H9 H9 H9 H9 H9 H9 H9 H9 H9 H9 H9 H9 H9 H9 H9 H9 H9 H9 H9 H9 H9 H9 H9 H9 H9 H9 H9 H9 H9 H9 H9 H9 H9 H9 H9 H9 H9 H9 H9 H9 H9 H9 H9 H9 H9 H9 H9 H9 H9 H9 H9 H9 H9 H9 H9 H9 H9 H9 H9 H9 H9 H9 H9 H9 H9 H9 H9 H9 H9 H9 H9 H9 H9 H9 H9 H9 H9 H9 H9 H9 H9 H9 H9 H9 H9 H9 H9 H9 H9 H9 H9 9 9 9 9 9 9 9 9 9 9 9 9   J; J; J; J; J; J; J; J; J; J; J; J; J; J; J; J; J; J; J; J; J; J; J; J; J; J; J; J; J; J; J; J; J; J; J; J; J; J; J; J; J; J; J; J; J; J; J; J; J; J; J; J; J; J; J; J; J; J; J; J; J; J; J; J; J; J; J; J; J; J; J; J; J; J; J; J; J; J; J; J; J; J; J; J; J; J; J; J; J; J; J; J; J; J; J; J; J; J; J; J; J; J; J; J; J; J; J; J; J; J; J; J; J; J; J; J; J; J; J; J; J; J; J; J; J; J; J; J; J; J; J; J; J; J; J; J; J; J; J; J; J; J; J; J; J; J; J; J; J; J; J; J; J; J; J; ; ;   G> G> G> G> G> G> G> G> G> G> G> G> G> G> G> G> G> G> G> G> G> G> G> G> G> G> G> G> G> G> G> G> G> G> G> G> G> G> G> G> G> G> G> G> G> G> G> G> G> G> G> G> G> G> G> G> G> G> G> G> G> G> G> G> G> G> G> G> G> G> G> G> G> G> G> G> G> G> G> G> G> G> G> G> G> G> G> G> G> G> G> G> G> G> G> G> G> G> G> G> G> G> G> G> G> G> G> G> G> G> G> G> G> G> G> G> G> G> G> G> G> G> G> G> G> G> G> G> G> G> G> G> G> G> G> G> G> G> G> G> G> G> G> G> G> G> G> G> G> G> G> G> G> G> G> > >   C; C; C; C; C; C; C; C; C; C; C; C; C; C; C; C; C; C; C; C; C; C; C; C; C; C; C; C; C; C; C; C; C; C; C; C; C; C; C; C; C; C; C; C; C; C; C; C; C; C; C; C; C; C; C; C; C; C; C; C; C; C; C; C; C; C; C; C; C; C; C; C; C; C; C; C; C; C; C; C; C; C; C; C; C; C; C; C; C; C; C; C; C; C; C; C; C; C; C; C; C; C; C; C; C; C; C; C; C; C; C; C; C; C; C; C; C; C; C; C; C; C; C; C; C; C; C; C; C; C; C; C; C; C; C; C; C; C; C; C; C; C; C; C; C; C; C; C; C; C; C; C; C; C; C; ; ;   @7 @7 @7 @7 @7 @7 @7 @7 @7 @7 @7 @7 @7 @7 @7 @7 @7 @7 @7 @7 @7 @7 @7 @7 @7 @7 @7 @7 @7 @7 @7 @7 @7 @7 @7 @7 @7 @7 @7 @7 @7 @7 @7 @7 @7 @7 @7 @7 @7 @7 @7 @7 @7 @7 @7 @7 @7 @7 @7 @7 @7 @7 @7 @7 @7 @7 @7 @7 @7 @7 @7 @7 @7 @7 @7 @7 @7 @7 @7 @7 @7 @7 @7 @7 @7 @7 @7 @7 @7 @7 @7 @7 @7 @7 @7 @7 @7 @7 @7 @7 @7 @7 @7 @7 @7 @7 @7 @7 @7 @7 @7 @7 @7 @7 @7 @7 @7 @7 @7 @7 @7 @7 @7 @7 @7 @7 @7 @7 @7 @7 @7 @7 @7 @7 @7 @7 @7 @7 @7 @7 @7 @7 @7 @7 @7 @7 @7 @7 @7 @7 @7 @7 @7 @7 @7 7 7   C; C; C; C; C; C; C; C; C; C; C; C; C; C; C; C; C; C; C; C; C; C; C; C; C; C; C; C; C; C; C; C; C; C; C; C; C; C; C; C; C; C; C; C; C; C; C; C; C; C; C; C; C; C; C; C; C; C; C; C; C; C; C; C; C; C; C; C; C; C; C; C; C; C; C; C; C; C; C; C; C; C; C; C; C; C; C; C; C; C; C; C; C; C; C; C; C; C; C; C; C; C; C; C; C; C; C; C; C; C; C; C; C; C; C; C; C; C; C; C; C; C; C; C; C; C; C; C; C; C; C; C; C; C; C; C; C; C; C; C; C; C; C; C; C; C; C; C; C; C; C; C; C; C; C; ; ;   G7 G7 G7 G7 G7 G7 G7 G7 G7 G7 G7 G7 G7 G7 G7 G7 G7 G7 G7 G7 G7 G7 G7 G7 G7 G7 G7 G7 G7 G7 G7 G7 G7 G7 G7 G7 G7 G7 G7 G7 G7 G7 G7 G7 G7 G7 G7 G7 G7 G7 G7 G7 G7 G7 G7 G7 G7 G7 G7 G7 G7 G7 G7 G7 G7 G7 G7 G7 G7 G7 G7 G7 G7 G7 G7 G7 G7 G7 G7 G7 G7 G7 G7 G7 G7 G7 G7 G7 G7 G7 G7 G7 G7 G7 G7 G7 G7 G7 G7 G7 G7 G7 G7 G7 G7 G7 G7 G7 G7 G7 G7 G7 G7 G7 G7 G7 G7 G7 G7 G7 G7 G7 G7 G7 G7 G7 G7 G7 G7 G7 G7 G7 G7 G7 G7 G7 G7 G7 G7 G7 G7 G7 G7 G7 G7 G7 G7 G7 G7 G7 G7 G7 G7 G7 G7 7 7   J4 J4 J4 J4 J4 J4 J4 J4 J4 J4 J4 J4 J4 J4 J4 J4 J4 J4 J4 J4 J4 J4 J4 J4 J4 J4 J4 J4 J4 J4 J4 J4 J4 J4 J4 J4 J4 J4 J4 J4 J4 J4 J4 J4 J4 J4 J4 J4 J4 J4 J4 J4 J4 J4 J4 J4 J4 J4 J4 J4 J4 J4 J4 J4 J4 J4 J4 J4 J4 J4 J4 J4 J4 J4 J4 J4 J4 J4 J4 J4 J4 J4 J4 J4 J4 J4 J4 J4 J4 J4 J4 J4 J4 J4 J4 J4 J4 J4 J4 J4 J4 J4 J4 J4 J4 J4 J4 J4 J4 J4 J4 J4 J4 J4 J4 J4 J4 J4 J4 J4 J4 J4 J4 J4 J4 J4 J4 J4 J4 J4 J4 J4 J4 J4 J4 J4 J4 J4 J4 J4 J4 J4 J4 J4 J4 4 4 4 4 4 4 4 4 4 4 4 4   H6 H6 H6 H6 H6 H6 H6 H6 H6 H6 H6 H6 H6 H6 H6 H6 H6 H6 H6 H6 H6 H6 H6 H6 H6 H6 H6 H6 H6 H6 H6 H6 H6 H6 H6 H6 H6 H6 H6 H6 H6 H6 H6 H6 H6 H6 H6 H6 H6 H6 H6 H6 H6 H6 H6 H6 H6 H6 H6 H6 H6 H6 H6 H6 H6 H6 H6 H6 H6 H6 H6 H6 H6 H6 H6 H6 H6 H6 H6 H6 H6 H6 H6 H6 H6 H6 H6 H6 H6 H6 H6 H6 H6 H6 H6 H6 H6 H6 H6 H6 H6 H6 H6 H6 H6 H6 H6 H6 H6 H6 H6 H6 H6 H6 H6 H6 H6 H6 H6 H6 H6 H6 H6 H6 H6 H6 H6 H6 H6 H6 H6 H6 H6 H6 H6 H6 H6 H6 H6 H6 H6 H6 H6 H6 H6 6 6 6 6 6 6 6 6 6 6 6 6   G7 G7 G7 G7 G7 G7 G7 G7 G7 G7 G7 G7 G7 G7 G7 G7 G7 G7 G7 G7 G7 G7 G7 G7 G7 G7 G7 G7 G7 G7 G7 G7 G7 G7 G7 G7 G7 G7 G7 G7 G7 G7 G7 G7 G7 G7 G7 G7 G7 G7 G7 G7 G7 G7 G7 G7 G7 G7 G7 G7 G7 G7 G7 G7 G7 G7 G7 G7 G7 G7 G7 G7 G7 G7 G7 G7 G7 G7 G7 G7 G7 G7 G7 G7 G7 G7 G7 G7 G7 G7 G7 G7 G7 G7 G7 G7 G7 G7 G7 G7 G7 G7 G7 G7 G7 G7 G7 G7 G7 G7 G7 G7 G7 G7 G7 G7 G7 G7 G7 G7 G7 G7 G7 G7 G7 G7 G7 G7 G7 G7 G7 G7 G7 G7 G7 G7 G7 G7 G7 G7 G7 G7 G7 G7 G7 7 7 7 7 7 7 7 7 7 7 7 7   H9 H9 H9 H9 H9 H9 H9 H9 H9 H9 H9 H9 H9 H9 H9 H9 H9 H9 H9 H9 H9 H9 H9 H9 H9 H9 H9 H9 H9 H9 H9 H9 H9 H9 H9 H9 H9 H9 H9 H9 H9 H9 H9 H9 H9 H9 H9 H9 H9 H9 H9 H9 H9 H9 H9 H9 H9 H9 H9 H9 H9 H9 H9 H9 H9 H9 H9 H9 H9 H9 H9 H9 H9 H9 H9 H9 H9 H9 H9 H9 H9 H9 H9 H9 H9 H9 H9 H9 H9 H9 H9 H9 H9 H9 H9 H9 H9 H9 H9 H9 H9 H9 H9 H9 H9 H9 H9 H9 H9 H9 H9 H9 H9 H9 H9 H9 H9 H9 H9 H9 H9 H9 H9 H9 H9 H9 H9 H9 H9 H9 H9 H9 H9 H9 H9 H9 H9 H9 H9 H9 H9 H9 H9 H9 H9 H9 H9 H9 H9 H9 H9 H9 H9 H9 H9 9 9   E< E< E< E< E< E< E< E< E< E< E< E< E< E< E< E< E< E< E< E< E< E< E< E< E< E< E< E< E< E< E< E< E< E< E< E< E< E< E< E< E< E< E< E< E< E< E< E< E< E< E< E< E< E< E< E< E< E< E< E< E< E< E< E< E< E< E< E< E< E< E< E< E< E< E< E< E< E< E< E< E< E< E< E< E< E< E< E< E< E< E< E< E< E< E< E< E< E< E< E< E< E< E< E< E< E< E< E< E< E< E< E< E< E< E< E< E< E< E< E< E< E< E< E< E< E< E< E< E< E< E< E< E< E< E< E< E< E< E< E< E< E< E< E< E< E< E< E< E< E< E< E< E< E< E< < <   B9 B9 B9 B9 B9 B9 B9 B9 B9 B9 B9 B9 B9 B9 B9 B9 B9 B9 B9 B9 B9 B9 B9 B9 B9 B9 B9 B9 B9 B9 B9 B9 B9 B9 B9 B9 B9 B9 B9 B9 B9 B9 B9 B9 B9 B9 B9 B9 B9 B9 B9 B9 B9 B9 B9 B9 B9 B9 B9 B9 B9 B9 B9 B9 B9 B9 B9 B9 B9 B9 B9 B9 B9 B9 B9 B9 B9 B9 B9 B9 B9 B9 B9 B9 B9 B9 B9 B9 B9 B9 B9 B9 B9 B9 B9 B9 B9 B9 B9 B9 B9 B9 B9 B9 B9 B9 B9 B9 B9 B9 B9 B9 B9 B9 B9 B9 B9 B9 B9 B9 B9 B9 B9 B9 B9 B9 B9 B9 B9 B9 B9 B9 B9 B9 B9 B9 B9 B9 B9 B9 B9 B9 B9 B9 B9 B9 B9 B9 B9 B9 B9 B9 B9 B9 B9 9 9   >6 >6 >6 >6 >6 >6 >6 >6 >6 >6 >6 >6 >6 >6 >6 >6 >6 >6 >6 >6 >6 >6 >6 >6 >6 >6 >6 >6 >6 >6 >6 >6 >6 >6 >6 >6 >6 >6 >6 >6 >6 >6 >6 >6 >6 >6 >6 >6 >6 >6 >6 >6 >6 >6 >6 >6 >6 >6 >6 >6 >6 >6 >6 >6 >6 >6 >6 >6 >6 >6 >6 >6 >6 >6 >6 >6 >6 >6 >6 >6 >6 >6 >6 >6 >6 >6 >6 >6 >6 >6 >6 >6 >6 >6 >6 >6 >6 >6 >6 >6 >6 >6 >6 >6 >6 >6 >6 >6 >6 >6 >6 >6 >6 >6 >6 >6 >6 >6 >6 >6 >6 >6 >6 >6 >6 >6 >6 >6 >6 >6 >6 >6 >6 >6 >6 >6 >6 >6 >6 >6 >6 >6 >6 >6 >6 >6 >6 >6 >6 >6 >6 >6 >6 >6 >6 6 6   B9 B9 B9 B9 B9 B9 B9 B9 B9 B9 B9 B9 B9 B9 B9 B9 B9 B9 B9 B9 B9 B9 B9 B9 B9 B9 B9 B9 B9 B9 B9 B9 B9 B9 B9 B9 B9 B9 B9 B9 B9 B9 B9 B9 B9 B9 B9 B9 B9 B9 B9 B9 B9 B9 B9 B9 B9 B9 B9 B9 B9 B9 B9 B9 B9 B9 B9 B9 B9 B9 B9 B9 B9 B9 B9 B9 B9 B9 B9 B9 B9 B9 B9 B9 B9 B9 B9 B9 B9 B9 B9 B9 B9 B9 B9 B9 B9 B9 B9 B9 B9 B9 B9 B9 B9 B9 B9 B9 B9 B9 B9 B9 B9 B9 B9 B9 B9 B9 B9 B9 B9 B9 B9 B9 B9 B9 B9 B9 B9 B9 B9 B9 B9 B9 B9 B9 B9 B9 B9 B9 B9 B9 B9 B9 B9 B9 B9 B9 B9 B9 B9 B9 B9 B9 B9 9 9   E6 E6 E6 E6 E6 E6 E6 E6 E6 E6 E6 E6 E6 E6 E6 E6 E6 E6 E6 E6 E6 E6 E6 E6 E6 E6 E6 E6 E6 E6 E6 E6 E6 E6 E6 E6 E6 E6 E6 E6 E6 E6 E6 E6 E6 E6 E6 E6 E6 E6 E6 E6 E6 E6 E6 E6 E6 E6 E6 E6 E6 E6 E6 E6 E6 E6 E6 E6 E6 E6 E6 E6 E6 E6 E6 E6 E6 E6 E6 E6 E6 E6 E6 E6 E6 E6 E6 E6 E6 E6 E6 E6 E6 E6 E6 E6 E6 E6 E6 E6 E6 E6 E6 E6 E6 E6 E6 E6 E6 E6 E6 E6 E6 E6 E6 E6 E6 E6 E6 E6 E6 E6 E6 E6 E6 E6 E6 E6 E6 E6 E6 E6 E6 E6 E6 E6 E6 E6 E6 E6 E6 E6 E6 E6 E6 E6 E6 E6 E6 E6 E6 E6 E6 E6 E6 6 6   H2 H2 H2 H2 H2 H2 H2 H2 H2 H2 H2 H2 H2 H2 H2 H2 H2 H2 H2 H2 H2 H2 H2 H2 H2 H2 H2 H2 H2 H2 H2 H2 H2 H2 H2 H2 H2 H2 H2 H2 H2 H2 H2 H2 H2 H2 H2 H2 H2 H2 H2 H2 H2 H2 H2 H2 H2 H2 H2 H2 H2 H2 H2 H2 H2 H2 H2 H2 H2 H2 H2 H2 H2 H2 H2 H2 H2 H2 H2 H2 H2 H2 H2 H2 H2 H2 H2 H2 H2 H2 H2 H2 H2 H2 H2 H2 H2 H2 H2 H2 H2 H2 H2 H2 H2 H2 H2 H2 H2 H2 H2 H2 H2 H2 H2 H2 H2 H2 H2 H2 H2 H2 H2 H2 H2 H2 H2 H2 H2 H2 H2 H2 H2 H2 H2 H2 H2 H2 H2 H2 H2 H2 H2 H2 H2 2 2 2 2 2 2 2 2 2 2 2 2   G4 G4 G4 G4 G4 G4 G4 G4 G4 G4 G4 G4 G4 G4 G4 G4 G4 G4 G4 G4 G4 G4 G4 G4 G4 G4 G4 G4 G4 G4 G4 G4 G4 G4 G4 G4 G4 G4 G4 G4 G4 G4 G4 G4 G4 G4 G4 G4 G4 G4 G4 G4 G4 G4 G4 G4 G4 G4 G4 G4 G4 G4 G4 G4 G4 G4 G4 G4 G4 G4 G4 G4 G4 G4 G4 G4 G4 G4 G4 G4 G4 G4 G4 G4 G4 G4 G4 G4 G4 G4 G4 G4 G4 G4 G4 G4 G4 G4 G4 G4 G4 G4 G4 G4 G4 G4 G4 G4 G4 G4 G4 G4 G4 G4 G4 G4 G4 G4 G4 G4 G4 G4 G4 G4 G4 G4 G4 G4 G4 G4 G4 G4 G4 G4 G4 G4 G4 G4 G4 G4 G4 G4 G4 G4 G4 4 4 4 4 4 4 4 4 4 4 4 4   E6 E6 E6 E6 E6 E6 E6 E6 E6 E6 E6 E6 E6 E6 E6 E6 E6 E6 E6 E6 E6 E6 E6 E6 E6 E6 E6 E6 E6 E6 E6 E6 E6 E6 E6 E6 E6 E6 E6 E6 E6 E6 E6 E6 E6 E6 E6 E6 E6 E6 E6 E6 E6 E6 E6 E6 E6 E6 E6 E6 E6 E6 E6 E6 E6 E6 E6 E6 E6 E6 E6 E6 E6 E6 E6 E6 E6 E6 E6 E6 E6 E6 E6 E6 E6 E6 E6 E6 E6 E6 E6 E6 E6 E6 E6 E6 E6 E6 E6 E6 E6 E6 E6 E6 E6 E6 E6 E6 E6 E6 E6 E6 E6 E6 E6 E6 E6 E6 E6 E6 E6 E6 E6 E6 E6 E6 E6 E6 E6 E6 E6 E6 E6 E6 E6 E6 E6 E6 E6 E6 E6 E6 E6 E6 E6 6 6 6 6 6 6 6 6 6 6 6 6   7G 7G 7G 7G 7G 7G 7G 7G 7G 7G 7G 7G 7G 7G 7G 7G 7G 7G 7G 7G 7G 7G 7G 7G 7G 7G 7G 7G 7G 7G 7G 7G 7G 7G 7G 7G 7G 7G 7G 7G 7G 7G 7G 7G 7G 7G 7G 7G 7G 7G 7G 7G 7G 7G 7G 7G 7G 7G 7G 7G 7G 7G 7G 7G 7G 7G 7G 7G 7G 7G 7G 7G 7G 7G 7G 7G 7G 7G G G G6 G6 G6 G6 G6 G6 G6 G6 G6 G6 G6 G6 G6 G6 G6 G6 G6 G6 G6 G6 G6 G6 G6 G6 G6 G6 G6 G6 G6 G6 G6 G6 G6 G6 G6 G6 G6 G6 G6 G6 G6 G6 G6 G6 G6 G6 G6 G6 G6 G6 G6 G6 G6 G6 G6 G6 G6 G6 G6 G6 G6 G6 G6 G6 G6 G6 G6 G6 G6 G6 G6 G6 G6 G6 G6 6 6   I7 I7 I7 I7 I7 I7 I7 I7 I7 I7 I7 I7 I7 I7 I7 I7 I7 I7 I7 I7 I7 I7 I7 I7 I7 I7 I7 I7 I7 I7 I7 I7 I7 I7 I7 I7 I7 I7 I7 I7 I7 I7 I7 I7 I7 I7 I7 I7 I7 I7 I7 I7 I7 I7 I7 I7 I7 I7 I7 I7 I7 I7 I7 I7 I7 I7 I7 I7 I7 I7 I7 I7 I7 I7 I7 I7 I7 I7 I7 I7 I7 I7 I7 I7 I7 I7 I7 I7 I7 I7 I7 I7 I7 I7 I7 I7 I7 I7 I7 I7 I7 I7 I7 I7 I7 I7 I7 I7 I7 I7 I7 I7 I7 I7 I7 I7 I7 I7 I7 I7 I7 I7 I7 I7 I7 I7 I7 I7 I7 I7 I7 I7 I7 I7 I7 I7 I7 I7 I7 I7 I7 I7 I7 I7 I7 I7 I7 I7 I7 I7 I7 I7 I7 I7 I7 7 7 7 7 7 J7 J7 J7 J7 J7 J7 J7 J7 J7 J7 J7 J7 J7 J7 J7 J7 J7 J7 J7 J7 J7 J7 J7 J7 J7 J7 J7 J7 J7 J7 J7 J7 J7 J7 J7 J7 J7 J7 J7 J7 J7 J7 J7 J7 J7 J7 J7 J7 J7 J7 J7 J7 J7 J7 J7 J7 J7 J7 J7 J7 J7 J7 J7 J7 J7 J7 J7 J7 J7 J7 J7 J7 J7 J7 J7 J7 J7 J7 J7 J7 J7 J7 J7 J7 J7 J7 J7 J7 J7 J7 J7 J7 J7 J7 J7 J7 J7 J7 J7 J7 J7 J7 J7 J7 J7 J7 J7 J7 J7 J7 J7 J7 J7 J7 J7 J7 J7 J7 J7 J7 J7 J7 J7 J7 J7 J7 J7 J7 J7 J7 J7 J7 J7 J7 J7 J7 J7 J7 J7 J7 J7 J7 J7 J7 J7 J7 J7 J7 J7 J7 J7 J7 J7 J7 J7 7 7 7 7 7 7L 7L 7L 7L 7L 7L 7L 7L 7L 7L 7L 7L 7L 7L 7L 7L 7L 7L 7L 7L 7L 7L 7L 7L 7L 7L 7L 7L 7L 7L 7L 7L 7L 7L 7L 7L 7L 7L 7L 7L 7L 7L 7L 7L 7L 7L 7L 7L 7L 7L 7L 7L 7L 7L 7L 7L 7L 7L 7L 7L 7L 7L 7L 7L 7L 7L 7L 7L 7L 7L 7L 7L 7L 7L 7L 7L 7L 7L 7L 7L 7L 7L 7L 7L 7L 7L 7L 7L 7L 7L 7L 7L 7L 7L 7L 7L 7L 7L 7L 7L 7L 7L 7L 7L 7L 7L 7L 7L 7L 7L 7L 7L 7L 7L 7L 7L 7L 7L 7L 7L 7L 7L 7L 7L 7L 7L 7L 7L 7L 7L 7L 7L 7L 7L 7L 7L 7L 7L 7L 7L 7L 7L L L L L L L L L L L L L      G6 G6 G6 G6 G6 G6 G6 G6 G6 G6 G6 G6 G6 G6 G6 G6 G6 G6 G6 G6 G6 G6 G6 G6 G6 G6 G6 G6 G6 G6 G6 G6 G6 G6 G6 G6 G6 G6 G6 G6 G6 G6 G6 G6 G6 G6 G6 G6 G6 G6 G6 G6 G6 G6 G6 G6 G6 G6 G6 G6 G6 G6 G6 G6 G6 G6 G6 G6 G6 G6 G6 G6 G6 G6 G6 G6 G6 G6 G6 G6 G6 G6 G6 G6 G6 G6 G6 G6 G6 G6 G6 G6 G6 G6 G6 G6 G6 G6 G6 G6 G6 G6 G6 G6 G6 G6 G6 G6 G6 G6 G6 G6 G6 G6 G6 G6 G6 G6 G6 G6 G6 G6 G6 G6 G6 G6 G6 G6 G6 G6 G6 G6 G6 G6 G6 G6 G6 G6 G6 G6 G6 G6 G6 G6 G6 G6 G6 G6 G6 G6 G6 G6 G6 G6 G6 6 6   O4 O4 O4 O4 O4 O4 O4 O4 O4 O4 O4 O4 O4 O4 O4 O4 O4 O4 O4 O4 O4 O4 O4 O4 O4 O4 O4 O4 O4 O4 O4 O4 O4 O4 O4 O4 O4 O4 O4 O4 O4 O4 O4 O4 O4 O4 O4 O4 O4 O4 O4 O4 O4 O4 O4 O4 O4 O4 O4 O4 O4 O4 O4 O4 O4 O4 O4 O4 O4 O4 O4 O4 O4 O4 O4 O4 O4 O4 O4 O4 O4 O4 O4 O4 O4 O4 O4 O4 O4 O4 O4 O4 O4 O4 O4 O4 O4 O4 O4 O4 O4 O4 O4 O4 O4 O4 O4 O4 O4 O4 O4 O4 O4 O4 O4 O4 O4 O4 O4 O4 O4 O4 O4 O4 O4 O4 O4 O4 O4 O4 O4 O4 O4 O4 O4 O4 O4 O4 O4 O4 O4 O4 O4 O4 O4 O4 O4 O4 O4 O4 O4 O4 O4 O4 O4 4 4   L2 L2 L2 L2 L2 L2 L2 L2 L2 L2 L2 L2 L2 L2 L2 L2 L2 L2 L2 L2 L2 L2 L2 L2 L2 L2 L2 L2 L2 L2 L2 L2 L2 L2 L2 L2 L2 L2 L2 L2 L2 L2 L2 L2 L2 L2 L2 L2 L2 L2 L2 L2 L2 L2 L2 L2 L2 L2 L2 L2 L2 L2 L2 L2 L2 L2 L2 L2 L2 L2 L2 L2 L2 L2 L2 L2 L2 L2 L2 L2 L2 L2 L2 L2 L2 L2 L2 L2 L2 L2 L2 L2 L2 L2 L2 L2 L2 L2 L2 L2 L2 L2 L2 L2 L2 L2 L2 L2 L2 L2 L2 L2 L2 L2 L2 L2 L2 L2 L2 L2 L2 L2 L2 L2 L2 L2 L2 L2 L2 L2 L2 L2 L2 L2 L2 L2 L2 L2 L2 L2 L2 L2 L2 L2 L2 2 2 2 2 2 2 2 2 2 2 2 2   G4 G4 G4 G4 G4 G4 G4 G4 G4 G4 G4 G4 G4 G4 G4 G4 G4 G4 G4 G4 G4 G4 G4 G4 G4 G4 G4 G4 G4 G4 G4 G4 G4 G4 G4 G4 G4 G4 G4 G4 G4 G4 G4 G4 G4 G4 G4 G4 G4 G4 G4 G4 G4 G4 G4 G4 G4 G4 G4 G4 G4 G4 G4 G4 G4 G4 G4 G4 G4 G4 G4 G4 G4 G4 G4 G4 G4 G4 G4 G4 G4 G4 G4 G4 G4 G4 G4 G4 G4 G4 G4 G4 G4 G4 G4 G4 G4 G4 G4 G4 G4 G4 G4 G4 G4 G4 G4 G4 G4 G4 G4 G4 G4 G4 G4 G4 G4 G4 G4 G4 G4 G4 G4 G4 G4 G4 G4 G4 G4 G4 G4 G4 G4 G4 G4 G4 G4 G4 G4 G4 G4 G4 G4 G4 G4 4 4 4 4 4 4 4 4 4 4 4 4   O1 O1 O1 O1 O1 O1 O1 O1 O1 O1 O1 O1 O1 O1 O1 O1 O1 O1 O1 O1 O1 O1 O1 O1 O1 O1 O1 O1 O1 O1 O1 O1 O1 O1 O1 O1 O1 O1 O1 O1 O1 O1 O1 O1 O1 O1 O1 O1 O1 O1 O1 O1 O1 O1 O1 O1 O1 O1 O1 O1 O1 O1 O1 O1 O1 O1 O1 O1 O1 O1 O1 O1 O1 O1 O1 O1 O1 O1 O1 O1 O1 O1 O1 O1 O1 O1 O1 O1 O1 O1 O1 O1 O1 O1 O1 O1 O1 O1 O1 O1 O1 O1 O1 O1 O1 O1 O1 O1 O1 O1 O1 O1 O1 O1 O1 O1 O1 O1 O1 O1 O1 O1 O1 O1 O1 O1 O1 O1 O1 O1 O1 O1 O1 O1 O1 O1 O1 O1 O1 O1 O1 O1 O1 O1 O1 1 1 1 1 1 1 1 1 1 1 1 1   6E 6E 6E 6E 6E 6E 6E 6E 6E 6E 6E 6E 6E 6E 6E 6E 6E 6E 6E 6E 6E 6E 6E 6E 6E 6E 6E 6E 6E 6E 6E 6E 6E 6E 6E 6E 6E 6E 6E 6E 6E 6E 6E 6E 6E 6E 6E 6E 6E 6E 6E 6E 6E 6E 6E 6E 6E 6E 6E 6E 6E 6E 6E 6E 6E 6E 6E 6E 6E 6E 6E 6E 6E 6E 6E 6E 6E 6E E E E4 E4 E4 E4 E4 E4 E4 E4 E4 E4 E4 E4 E4 E4 E4 E4 E4 E4 E4 E4 E4 E4 E4 E4 E4 E4 E4 E4 E4 E4 E4 E4 E4 E4 E4 E4 E4 E4 E4 E4 E4 E4 E4 E4 E4 E4 E4 E4 E4 E4 E4 E4 E4 E4 E4 E4 E4 E4 E4 E4 E4 E4 E4 E4 E4 E4 E4 E4 E4 E4 E4 E4 E4 E4 E4 4 4   G6 G6 G6 G6 G6 G6 G6 G6 G6 G6 G6 G6 G6 G6 G6 G6 G6 G6 G6 G6 G6 G6 G6 G6 G6 G6 G6 G6 G6 G6 G6 G6 G6 G6 G6 G6 G6 G6 G6 G6 G6 G6 G6 G6 G6 G6 G6 G6 G6 G6 G6 G6 G6 G6 G6 G6 G6 G6 G6 G6 G6 G6 G6 G6 G6 G6 G6 G6 G6 G6 G6 G6 G6 G6 G6 G6 G6 G6 G6 G6 G6 G6 G6 G6 G6 G6 G6 G6 G6 G6 G6 G6 G6 G6 G6 G6 G6 G6 G6 G6 G6 G6 G6 G6 G6 G6 G6 G6 G6 G6 G6 G6 G6 G6 G6 G6 G6 G6 G6 G6 G6 G6 G6 G6 G6 G6 G6 G6 G6 G6 G6 G6 G6 G6 G6 G6 G6 G6 G6 G6 G6 G6 G6 G6 G6 G6 G6 G6 G6 G6 G6 G6 G6 G6 G6 6 6 6 6 6 I6 I6 I6 I6 I6 I6 I6 I6 I6 I6 I6 I6 I6 I6 I6 I6 I6 I6 I6 I6 I6 I6 I6 I6 I6 I6 I6 I6 I6 I6 I6 I6 I6 I6 I6 I6 I6 I6 I6 I6 I6 I6 I6 I6 I6 I6 I6 I6 I6 I6 I6 I6 I6 I6 I6 I6 I6 I6 I6 I6 I6 I6 I6 I6 I6 I6 I6 I6 I6 I6 I6 I6 I6 I6 I6 I6 I6 I6 I6 I6 I6 I6 I6 I6 I6 I6 I6 I6 I6 I6 I6 I6 I6 I6 I6 I6 I6 I6 I6 I6 I6 I6 I6 I6 I6 I6 I6 I6 I6 I6 I6 I6 I6 I6 I6 I6 I6 I6 I6 I6 I6 I6 I6 I6 I6 I6 I6 I6 I6 I6 I6 I6 I6 I6 I6 I6 I6 I6 I6 I6 I6 I6 I6 I6 I6 I6 I6 I6 I6 I6 I6 I6 I6 I6 I6 6 6 6 6 6 6J 6J 6J 6J 6J 6J 6J 6J 6J 6J 6J 6J 6J 6J 6J 6J 6J 6J 6J 6J 6J 6J 6J 6J 6J 6J 6J 6J 6J 6J 6J 6J 6J 6J 6J 6J 6J 6J 6J 6J 6J 6J 6J 6J 6J 6J 6J 6J 6J 6J 6J 6J 6J 6J 6J 6J 6J 6J 6J 6J 6J 6J 6J 6J 6J 6J 6J 6J 6J 6J 6J 6J 6J 6J 6J 6J 6J 6J 6J 6J 6J 6J 6J 6J 6J 6J 6J 6J 6J 6J 6J 6J 6J 6J 6J 6J 6J 6J 6J 6J 6J 6J 6J 6J 6J 6J 6J 6J 6J 6J 6J 6J 6J 6J 6J 6J 6J 6J 6J 6J 6J 6J 6J 6J 6J 6J 6J 6J 6J 6J J J J J J J J J J J J J J J J J J J J J J J J J J      E4 E4 E4 E4 E4 E4 E4 E4 E4 E4 E4 E4 E4 E4 E4 E4 E4 E4 E4 E4 E4 E4 E4 E4 E4 E4 E4 E4 E4 E4 E4 E4 E4 E4 E4 E4 E4 E4 E4 E4 E4 E4 E4 E4 E4 E4 E4 E4 E4 E4 E4 E4 E4 E4 E4 E4 E4 E4 E4 E4 E4 E4 E4 E4 E4 E4 E4 E4 E4 E4 E4 E4 E4 E4 E4 E4 E4 E4 E4 E4 E4 E4 E4 E4 E4 E4 E4 E4 E4 E4 E4 E4 E4 E4 E4 E4 E4 E4 E4 E4 E4 E4 E4 E4 E4 E4 E4 E4 E4 E4 E4 E4 E4 E4 E4 E4 E4 E4 E4 E4 E4 E4 E4 E4 E4 E4 E4 E4 E4 E4 E4 E4 E4 E4 E4 E4 E4 E4 E4 E4 E4 E4 E4 E4 E4 E4 E4 E4 E4 E4 E4 E4 E4 E4 E4 4 4   N2 N2 N2 N2 N2 N2 N2 N2 N2 N2 N2 N2 N2 N2 N2 N2 N2 N2 N2 N2 N2 N2 N2 N2 N2 N2 N2 N2 N2 N2 N2 N2 N2 N2 N2 N2 N2 N2 N2 N2 N2 N2 N2 N2 N2 N2 N2 N2 N2 N2 N2 N2 N2 N2 N2 N2 N2 N2 N2 N2 N2 N2 N2 N2 N2 N2 N2 N2 N2 N2 N2 N2 N2 N2 N2 N2 N2 N2 N2 N2 N2 N2 N2 N2 N2 N2 N2 N2 N2 N2 N2 N2 N2 N2 N2 N2 N2 N2 N2 N2 N2 N2 N2 N2 N2 N2 N2 N2 N2 N2 N2 N2 N2 N2 N2 N2 N2 N2 N2 N2 N2 N2 N2 N2 N2 N2 N2 N2 N2 N2 N2 N2 N2 N2 N2 N2 N2 N2 N2 N2 N2 N2 N2 N2 N2 N2 N2 N2 N2 N2 N2 N2 N2 N2 N2 2 2   J1 J1 J1 J1 J1 J1 J1 J1 J1 J1 J1 J1 J1 J1 J1 J1 J1 J1 J1 J1 J1 J1 J1 J1 J1 J1 J1 J1 J1 J1 J1 J1 J1 J1 J1 J1 J1 J1 J1 J1 J1 J1 J1 J1 J1 J1 J1 J1 J1 J1 J1 J1 J1 J1 J1 J1 J1 J1 J1 J1 J1 J1 J1 J1 J1 J1 J1 J1 J1 J1 J1 J1 J1 J1 J1 J1 J1 J1 J1 J1 J1 J1 J1 J1 J1 J1 J1 J1 J1 J1 J1 J1 J1 J1 J1 J1 J1 J1 J1 J1 J1 J1 J1 J1 J1 J1 J1 J1 J1 J1 J1 J1 J1 J1 J1 J1 J1 J1 J1 J1 J1 J1 J1 J1 J1 J1 J1 J1 J1 J1 J1 J1 J1 J1 J1 J1 J1 J1 J1 J1 J1 J1 J1 J1 J1 1 1 1 1 1 1 1 1 1 1 1 1   E2 E2 E2 E2 E2 E2 E2 E2 E2 E2 E2 E2 E2 E2 E2 E2 E2 E2 E2 E2 E2 E2 E2 E2 E2 E2 E2 E2 E2 E2 E2 E2 E2 E2 E2 E2 E2 E2 E2 E2 E2 E2 E2 E2 E2 E2 E2 E2 E2 E2 E2 E2 E2 E2 E2 E2 E2 E2 E2 E2 E2 E2 E2 E2 E2 E2 E2 E2 E2 E2 E2 E2 E2 E2 E2 E2 E2 E2 E2 E2 E2 E2 E2 E2 E2 E2 E2 E2 E2 E2 E2 E2 E2 E2 E2 E2 E2 E2 E2 E2 E2 E2 E2 E2 E2 E2 E2 E2 E2 E2 E2 E2 E2 E2 E2 E2 E2 E2 E2 E2 E2 E2 E2 E2 E2 E2 E2 E2 E2 E2 E2 E2 E2 E2 E2 E2 E2 E2 E2 E2 E2 E2 E2 E2 E2 2 2 2 2 2 2 2 2 2 2 2 2   N/ N/ N/ N/ N/ N/ N/ N/ N/ N/ N/ N/ N/ N/ N/ N/ N/ N/ N/ N/ N/ N/ N/ N/ N/ N/ N/ N/ N/ N/ N/ N/ N/ N/ N/ N/ N/ N/ N/ N/ N/ N/ N/ N/ N/ N/ N/ N/ N/ N/ N/ N/ N/ N/ N/ N/ N/ N/ N/ N/ N/ N/ N/ N/ N/ N/ N/ N/ N/ N/ N/ N/ N/ N/ N/ N/ N/ N/ N/ N/ N/ N/ N/ N/ N/ N/ N/ N/ N/ N/ N/ N/ N/ N/ N/ N/ N/ N/ N/ N/ N/ N/ N/ N/ N/ N/ N/ N/ N/ N/ N/ N/ N/ N/ N/ N/ N/ N/ N/ N/ N/ N/ N/ N/ N/ N/ N/ N/ N/ N/ N/ N/ N/ N/ N/ N/ N/ N/ N/ N/ N/ N/ N/ N/ N/ / / / / / / / / / / / /   C4 C4 C4 C4 C4 C4 C4 C4 C4 C4 C4 C4 C4 C4 C4 C4 C4 C4 C4 C4 C4 C4 C4 C4 C4 C4 C4 C4 C4 C4 C4 C4 C4 C4 C4 C4 C4 C4 C4 C4 C4 C4 C4 C4 C4 C4 C4 C4 C4 C4 C4 C4 C4 C4 C4 C4 C4 C4 C4 C4 C4 C4 C4 C4 C4 C4 C4 C4 C4 C4 C4 C4 C4 C4 C4 4 4 4 4 4 B4 B4 B4 B4 B4 B4 B4 B4 B4 B4 B4 B4 B4 B4 B4 B4 B4 B4 B4 B4 B4 B4 B4 B4 B4 B4 B4 B4 B4 B4 B4 B4 B4 B4 B4 B4 B4 B4 B4 B4 B4 B4 B4 B4 B4 B4 B4 B4 B4 B4 B4 B4 B4 B4 B4 B4 B4 B4 B4 B4 B4 B4 B4 B4 B4 B4 B4 B4 B4 B4 B4 B4 B4 B4 B4 4 4   6C 6C 6C 6C 6C 6C 6C 6C 6C 6C 6C 6C 6C 6C 6C 6C 6C 6C 6C 6C 6C 6C 6C 6C 6C 6C 6C 6C 6C 6C 6C 6C 6C 6C 6C 6C 6C 6C 6C 6C 6C 6C 6C 6C 6C 6C 6C 6C 6C 6C 6C 6C 6C 6C 6C 6C 6C 6C 6C 6C 6C 6C 6C 6C 6C 6C 6C 6C 6C 6C 6C 6C 6C 6C 6C 6C 6C 6C 6C 6C 6C 6C 6C 6C 6C 6C 6C 6C 6C 6C 6C 6C 6C 6C 6C 6C 6C 6C 6C 6C 6C 6C 6C 6C 6C 6C 6C 6C 6C 6C 6C 6C 6C 6C 6C 6C 6C 6C 6C 6C 6C 6C 6C 6C 6C 6C 6C 6C 6C 6C 6C 6C 6C 6C 6C 6C 6C 6C 6C 6C 6C 6C 6C 6C 6C 6C 6C 6C 6C 6C 6C 6C 6C 6C 6C 6C 6C 6C C C 7C 7C 7C 7C 7C 7C 7C 7C 7C 7C 7C 7C 7C 7C 7C 7C 7C 7C 7C 7C 7C 7C 7C 7C 7C 7C 7C 7C 7C 7C 7C 7C 7C 7C 7C 7C 7C 7C 7C 7C 7C 7C 7C 7C 7C 7C 7C 7C 7C 7C 7C 7C 7C 7C 7C 7C 7C 7C 7C 7C 7C 7C 7C 7C 7C 7C 7C 7C 7C 7C 7C 7C 7C 7C 7C 7C 7C 7C 7C 7C 7C 7C 7C 7C 7C 7C 7C 7C 7C 7C 7C 7C 7C 7C 7C 7C 7C 7C 7C 7C 7C 7C 7C 7C 7C 7C 7C 7C 7C 7C 7C 7C 7C 7C 7C 7C 7C 7C 7C 7C 7C 7C 7C 7C 7C 7C 7C 7C 7C 7C 7C 7C 7C 7C 7C 7C 7C 7C 7C 7C 7C 7C 7C 7C 7C 7C 7C 7C 7C 7C 7C 7C 7C 7C 7C 7C 7C 7C C C C9 C9 C9 C9 C9 C9 C9 C9 C9 C9 C9 C9 C9 C9 C9 C9 C9 C9 C9 C9 C9 C9 C9 C9 C9 C9 C9 C9 C9 C9 C9 C9 C9 C9 C9 C9 C9 C9 C9 C9 C9 C9 C9 C9 C9 C9 C9 C9 C9 C9 C9 C9 C9 C9 C9 C9 C9 C9 C9 C9 C9 C9 C9 C9 C9 C9 C9 C9 C9 C9 C9 C9 C9 C9 C9 C9 C9 C9 C9 C9 C9 C9 C9 C9 C9 C9 C9 C9 C9 C9 C9 C9 C9 C9 C9 C9 C9 C9 C9 C9 C9 C9 C9 C9 C9 C9 C9 C9 C9 C9 C9 C9 C9 C9 C9 C9 C9 C9 C9 C9 C9 C9 C9 C9 C9 C9 C9 C9 C9 C9 C9 C9 C9 C9 C9 C9 C9 C9 C9 C9 C9 C9 C9 C9 C9 C9 C9 C9 C9 C9 C9 C9 C9 C9 C9 9 9   E4 E4 E4 E4 E4 E4 E4 E4 E4 E4 E4 E4 E4 E4 E4 E4 E4 E4 E4 E4 E4 E4 E4 E4 E4 E4 E4 E4 E4 E4 E4 E4 E4 E4 E4 E4 E4 E4 E4 E4 E4 E4 E4 E4 E4 E4 E4 E4 E4 E4 E4 E4 E4 E4 E4 E4 E4 E4 E4 E4 E4 E4 E4 E4 E4 E4 E4 E4 E4 E4 E4 E4 E4 E4 E4 E4 E4 E4 E4 E4 E4 E4 E4 E4 E4 E4 E4 E4 E4 E4 E4 E4 E4 E4 E4 E4 E4 E4 E4 E4 E4 E4 E4 E4 E4 E4 E4 E4 E4 E4 E4 E4 E4 E4 E4 E4 E4 E4 E4 E4 E4 E4 E4 E4 E4 E4 E4 E4 E4 E4 E4 E4 E4 E4 E4 E4 E4 E4 E4 E4 E4 E4 E4 E4 E4 E4 E4 E4 E4 E4 E4 E4 E4 E4 E4 4 4   C= C= C= C= C= C= C= C= C= C= C= C= C= C= C= C= C= C= C= C= C= C= C= C= C= C= C= C= C= C= C= C= C= C= C= C= C= C= C= C= C= C= C= C= C= C= C= C= C= C= C= C= C= C= C= C= C= C= C= C= C= C= C= C= C= C= C= C= C= C= C= C= C= C= C= C= C= C= C= C= C= C= C= C= C= C= C= C= C= C= C= C= C= C= C= C= C= C= C= C= C= C= C= C= C= C= C= C= C= C= C= C= C= C= C= C= C= C= C= C= C= C= C= C= C= C= C= C= C= C= C= C= C= C= C= C= C= C= C= C= C= C= C= C= C= C= C= C= C= C= C= C= C= C= C= = =   B9 B9 B9 B9 B9 B9 B9 B9 B9 B9 B9 B9 B9 B9 B9 B9 B9 B9 B9 B9 B9 B9 B9 B9 B9 B9 B9 B9 B9 B9 B9 B9 B9 B9 B9 B9 B9 B9 B9 B9 B9 B9 B9 B9 B9 B9 B9 B9 B9 B9 B9 B9 B9 B9 B9 B9 B9 B9 B9 B9 B9 B9 B9 B9 B9 B9 B9 B9 B9 B9 B9 B9 B9 B9 B9 B9 B9 B9 B9 B9 B9 B9 B9 B9 B9 B9 B9 B9 B9 B9 B9 B9 B9 B9 B9 B9 B9 B9 B9 B9 B9 B9 B9 B9 B9 B9 B9 B9 B9 B9 B9 B9 B9 B9 B9 B9 B9 B9 B9 B9 B9 B9 B9 B9 B9 B9 B9 B9 B9 B9 B9 B9 B9 B9 B9 B9 B9 B9 B9 B9 B9 B9 B9 B9 B9 9 9 9 9 9 9 9 9 9 9 9 9   C4 C4 C4 C4 C4 C4 C4 C4 C4 C4 C4 C4 C4 C4 C4 C4 C4 C4 C4 C4 C4 C4 C4 C4 C4 C4 C4 C4 C4 C4 C4 C4 C4 C4 C4 C4 C4 C4 C4 C4 C4 C4 C4 C4 C4 C4 C4 C4 C4 C4 C4 C4 C4 C4 C4 C4 C4 C4 C4 C4 C4 C4 C4 C4 C4 C4 C4 C4 C4 C4 C4 C4 C4 C4 C4 C4 C4 C4 C4 C4 C4 C4 C4 C4 C4 C4 C4 C4 C4 C4 C4 C4 C4 C4 C4 C4 C4 C4 C4 C4 C4 C4 C4 C4 C4 C4 C4 C4 C4 C4 C4 C4 C4 C4 C4 C4 C4 C4 C4 C4 C4 C4 C4 C4 C4 C4 C4 C4 C4 C4 C4 C4 C4 C4 C4 C4 C4 C4 C4 C4 C4 C4 C4 C4 C4 4 4 4 4 4 4 4 4 4 4 4 4   @= @= @= @= @= @= @= @= @= @= @= @= @= @= @= @= @= @= @= @= @= @= @= @= @= @= @= @= @= @= @= @= @= @= @= @= @= @= @= @= @= @= @= @= @= @= @= @= @= @= @= @= @= @= @= @= @= @= @= @= @= @= @= @= @= @= @= @= @= @= @= @= @= @= @= @= @= @= @= @= @= @= @= @= @= @= @= @= @= @= @= @= @= @= @= @= @= @= @= @= @= @= @= @= @= @= @= @= @= @= @= @= @= @= @= @= @= @= @= @= @= @= @= @= @= @= @= @= @= @= @= @= @= @= @= @= @= @= @= @= @= @= @= @= @= = = = = = = = = = = = =   >B >B >B >B >B >B >B >B >B >B >B >B >B >B >B >B >B >B >B >B >B >B >B >B >B >B >B >B >B >B >B >B >B >B >B >B >B >B >B >B >B >B >B >B >B >B >B >B >B >B >B >B >B >B >B >B >B >B >B >B >B >B >B >B >B >B >B >B >B >B >B >B >B >B >B >B >B >B B B B= B= B= B= B= B= B= B= B= B= B= B= B= B= B= B= B= B= B= B= B= B= B= B= B= B= B= B= B= B= B= B= B= B= B= B= B= B= B= B= B= B= B= B= B= B= B= B= B= B= B= B= B= B= B= B= B= B= B= B= B= B= B= B= B= B= B= B= B= B= B= B= B= B= B= = =   C> C> C> C> C> C> C> C> C> C> C> C> C> C> C> C> C> C> C> C> C> C> C> C> C> C> C> C> C> C> C> C> C> C> C> C> C> C> C> C> C> C> C> C> C> C> C> C> C> C> C> C> C> C> C> C> C> C> C> C> C> C> C> C> C> C> C> C> C> C> C> C> C> C> C> C> C> C> C> C> C> C> C> C> C> C> C> C> C> C> C> C> C> C> C> C> C> C> C> C> C> C> C> C> C> C> C> C> C> C> C> C> C> C> C> C> C> C> C> C> C> C> C> C> C> C> C> C> C> C> C> C> C> C> C> C> C> C> C> C> C> C> C> C> C> C> C> C> C> C> C> C> C> C> C> > > > > > B> B> B> B> B> B> B> B> B> B> B> B> B> B> B> B> B> B> B> B> B> B> B> B> B> B> B> B> B> B> B> B> B> B> B> B> B> B> B> B> B> B> B> B> B> B> B> B> B> B> B> B> B> B> B> B> B> B> B> B> B> B> B> B> B> B> B> B> B> B> B> B> B> B> B> B> B> B> B> B> B> B> B> B> B> B> B> B> B> B> B> B> B> B> B> B> B> B> B> B> B> B> B> B> B> B> B> B> B> B> B> B> B> B> B> B> B> B> B> B> B> B> B> B> B> B> B> B> B> B> B> B> B> B> B> B> B> B> B> B> B> B> B> B> B> B> B> B> B> B> B> B> B> B> B> > > > > > >@ >@ >@ >@ >@ >@ >@ >@ >@ >@ >@ >@ >@ >@ >@ >@ >@ >@ >@ >@ >@ >@ >@ >@ >@ >@ >@ >@ >@ >@ >@ >@ >@ >@ >@ >@ >@ >@ >@ >@ >@ >@ >@ >@ >@ >@ >@ >@ >@ >@ >@ >@ >@ >@ >@ >@ >@ >@ >@ >@ >@ >@ >@ >@ >@ >@ >@ >@ >@ >@ >@ >@ >@ >@ >@ >@ >@ >@ >@ >@ >@ >@ >@ >@ >@ >@ >@ >@ >@ >@ >@ >@ >@ >@ >@ >@ >@ >@ >@ >@ >@ >@ >@ >@ >@ >@ >@ >@ >@ >@ >@ >@ >@ >@ >@ >@ >@ >@ >@ >@ >@ >@ >@ >@ >@ >@ >@ >@ >@ >@ @ @ @ @ @ @ @ @ @ @ @ @ @ @ @ @ @ @ @ @ @ @ @ @ @      B2 B2 B2 B2 B2 B2 B2 B2 B2 B2 B2 B2 B2 B2 B2 B2 B2 B2 B2 B2 B2 B2 B2 B2 B2 B2 B2 B2 B2 B2 B2 B2 B2 B2 B2 B2 B2 B2 B2 B2 B2 B2 B2 B2 B2 B2 B2 B2 B2 B2 B2 B2 B2 B2 B2 B2 B2 B2 B2 B2 B2 B2 B2 B2 B2 B2 B2 B2 B2 B2 B2 B2 B2 B2 B2 B2 B2 B2 B2 B2 B2 B2 B2 B2 B2 B2 B2 B2 B2 B2 B2 B2 B2 B2 B2 B2 B2 B2 B2 B2 B2 B2 B2 B2 B2 B2 B2 B2 B2 B2 B2 B2 B2 B2 B2 B2 B2 B2 B2 B2 B2 B2 B2 B2 B2 B2 B2 B2 B2 B2 B2 B2 B2 B2 B2 B2 B2 B2 B2 B2 B2 B2 B2 B2 B2 B2 B2 B2 B2 B2 B2 B2 B2 B2 B2 2 2   >4 >4 >4 >4 >4 >4 >4 >4 >4 >4 >4 >4 >4 >4 >4 >4 >4 >4 >4 >4 >4 >4 >4 >4 >4 >4 >4 >4 >4 >4 >4 >4 >4 >4 >4 >4 >4 >4 >4 >4 >4 >4 >4 >4 >4 >4 >4 >4 >4 >4 >4 >4 >4 >4 >4 >4 >4 >4 >4 >4 >4 >4 >4 >4 >4 >4 >4 >4 >4 >4 >4 >4 >4 >4 >4 >4 >4 >4 >4 >4 >4 >4 >4 >4 >4 >4 >4 >4 >4 >4 >4 >4 >4 >4 >4 >4 >4 >4 >4 >4 >4 >4 >4 >4 >4 >4 >4 >4 >4 >4 >4 >4 >4 >4 >4 >4 >4 >4 >4 >4 >4 >4 >4 >4 >4 >4 >4 >4 >4 >4 >4 >4 >4 >4 >4 >4 >4 >4 >4 >4 >4 >4 >4 >4 >4 >4 >4 >4 >4 >4 >4 >4 >4 >4 >4 4 4   E6 E6 E6 E6 E6 E6 E6 E6 E6 E6 E6 E6 E6 E6 E6 E6 E6 E6 E6 E6 E6 E6 E6 E6 E6 E6 E6 E6 E6 E6 E6 E6 E6 E6 E6 E6 E6 E6 E6 E6 E6 E6 E6 E6 E6 E6 E6 E6 E6 E6 E6 E6 E6 E6 E6 E6 E6 E6 E6 E6 E6 E6 E6 E6 E6 E6 E6 E6 E6 E6 E6 E6 E6 E6 E6 E6 E6 E6 E6 E6 E6 E6 E6 E6 E6 E6 E6 E6 E6 E6 E6 E6 E6 E6 E6 E6 E6 E6 E6 E6 E6 E6 E6 E6 E6 E6 E6 E6 E6 E6 E6 E6 E6 E6 E6 E6 E6 E6 E6 E6 E6 E6 E6 E6 E6 E6 E6 E6 E6 E6 E6 E6 E6 E6 E6 E6 E6 E6 E6 E6 E6 E6 E6 E6 E6 6 6 6 6 6 6 6 6 6 6 6 6   G4 G4 G4 G4 G4 G4 G4 G4 G4 G4 G4 G4 G4 G4 G4 G4 G4 G4 G4 G4 G4 G4 G4 G4 G4 G4 G4 G4 G4 G4 G4 G4 G4 G4 G4 G4 G4 G4 G4 G4 G4 G4 G4 G4 G4 G4 G4 G4 G4 G4 G4 G4 G4 G4 G4 G4 G4 G4 G4 G4 G4 G4 G4 G4 G4 G4 G4 G4 G4 G4 G4 G4 G4 G4 G4 G4 G4 G4 G4 G4 G4 G4 G4 G4 G4 G4 G4 G4 G4 G4 G4 G4 G4 G4 G4 G4 G4 G4 G4 G4 G4 G4 G4 G4 G4 G4 G4 G4 G4 G4 G4 G4 G4 G4 G4 G4 G4 G4 G4 G4 G4 G4 G4 G4 G4 G4 G4 G4 G4 G4 G4 G4 G4 G4 G4 G4 G4 G4 G4 G4 G4 G4 G4 G4 G4 4 4 4 4 4 4 4 4 4 4 4 4   H2 H2 H2 H2 H2 H2 H2 H2 H2 H2 H2 H2 H2 H2 H2 H2 H2 H2 H2 H2 H2 H2 H2 H2 H2 H2 H2 H2 H2 H2 H2 H2 H2 H2 H2 H2 H2 H2 H2 H2 H2 H2 H2 H2 H2 H2 H2 H2 H2 H2 H2 H2 H2 H2 H2 H2 H2 H2 H2 H2 H2 H2 H2 H2 H2 H2 H2 H2 H2 H2 H2 H2 H2 H2 H2 H2 H2 H2 H2 H2 H2 H2 H2 H2 H2 H2 H2 H2 H2 H2 H2 H2 H2 H2 H2 H2 H2 H2 H2 H2 H2 H2 H2 H2 H2 H2 H2 H2 H2 H2 H2 H2 H2 H2 H2 H2 H2 H2 H2 H2 H2 H2 H2 H2 H2 H2 H2 H2 H2 H2 H2 H2 H2 H2 H2 H2 H2 H2 H2 H2 H2 H2 H2 H2 H2 2 2 2 2 2 2 2 2 2 2 2 2   7G 7G 7G 7G 7G 7G 7G 7G 7G 7G 7G 7G 7G 7G 7G 7G 7G 7G 7G 7G 7G 7G 7G 7G 7G 7G 7G 7G 7G 7G 7G 7G 7G 7G 7G 7G 7G 7G 7G 7G 7G 7G 7G 7G 7G 7G 7G 7G 7G 7G 7G 7G 7G 7G 7G 7G 7G 7G 7G 7G 7G 7G 7G 7G 7G 7G 7G 7G 7G 7G 7G 7G 7G 7G 7G 7G 7G 7G G G G6 G6 G6 G6 G6 G6 G6 G6 G6 G6 G6 G6 G6 G6 G6 G6 G6 G6 G6 G6 G6 G6 G6 G6 G6 G6 G6 G6 G6 G6 G6 G6 G6 G6 G6 G6 G6 G6 G6 G6 G6 G6 G6 G6 G6 G6 G6 G6 G6 G6 G6 G6 G6 G6 G6 G6 G6 G6 G6 G6 G6 G6 G6 G6 G6 G6 G6 G6 G6 G6 G6 G6 G6 G6 G6 6 6   H7 H7 H7 H7 H7 H7 H7 H7 H7 H7 H7 H7 H7 H7 H7 H7 H7 H7 H7 H7 H7 H7 H7 H7 H7 H7 H7 H7 H7 H7 H7 H7 H7 H7 H7 H7 H7 H7 H7 H7 H7 H7 H7 H7 H7 H7 H7 H7 H7 H7 H7 H7 H7 H7 H7 H7 H7 H7 H7 H7 H7 H7 H7 H7 H7 H7 H7 H7 H7 H7 H7 H7 H7 H7 H7 H7 H7 H7 H7 H7 H7 H7 H7 H7 H7 H7 H7 H7 H7 H7 H7 H7 H7 H7 H7 H7 H7 H7 H7 H7 H7 H7 H7 H7 H7 H7 H7 H7 H7 H7 H7 H7 H7 H7 H7 H7 H7 H7 H7 H7 H7 H7 H7 H7 H7 H7 H7 H7 H7 H7 H7 H7 H7 H7 H7 H7 H7 H7 H7 H7 H7 H7 H7 H7 H7 H7 H7 H7 H7 H7 H7 H7 H7 H7 H7 7 7 7 7 7 G7 G7 G7 G7 G7 G7 G7 G7 G7 G7 G7 G7 G7 G7 G7 G7 G7 G7 G7 G7 G7 G7 G7 G7 G7 G7 G7 G7 G7 G7 G7 G7 G7 G7 G7 G7 G7 G7 G7 G7 G7 G7 G7 G7 G7 G7 G7 G7 G7 G7 G7 G7 G7 G7 G7 G7 G7 G7 G7 G7 G7 G7 G7 G7 G7 G7 G7 G7 G7 G7 G7 G7 G7 G7 G7 G7 G7 G7 G7 G7 G7 G7 G7 G7 G7 G7 G7 G7 G7 G7 G7 G7 G7 G7 G7 G7 G7 G7 G7 G7 G7 G7 G7 G7 G7 G7 G7 G7 G7 G7 G7 G7 G7 G7 G7 G7 G7 G7 G7 G7 G7 G7 G7 G7 G7 G7 G7 G7 G7 G7 G7 G7 G7 G7 G7 G7 G7 G7 G7 G7 G7 G7 G7 G7 G7 G7 G7 G7 G7 G7 G7 G7 G7 G7 G7 7 7 7 7 7 7E 7E 7E 7E 7E 7E 7E 7E 7E 7E 7E 7E 7E 7E 7E 7E 7E 7E 7E 7E 7E 7E 7E 7E 7E 7E 7E 7E 7E 7E 7E 7E 7E 7E 7E 7E 7E 7E 7E 7E 7E 7E 7E 7E 7E 7E 7E 7E 7E 7E 7E 7E 7E 7E 7E 7E 7E 7E 7E 7E 7E 7E 7E 7E 7E 7E 7E 7E 7E 7E 7E 7E 7E 7E 7E 7E 7E 7E 7E 7E 7E 7E 7E 7E 7E 7E 7E 7E 7E 7E 7E 7E 7E 7E 7E 7E 7E 7E 7E 7E 7E 7E 7E 7E 7E 7E 7E 7E 7E 7E 7E 7E 7E 7E 7E 7E 7E 7E 7E 7E 7E 7E 7E 7E 7E 7E 7E 7E 7E 7E E E E E E E E E E E E E E E E E E E E E E E E E E      G4 G4 G4 G4 G4 G4 G4 G4 G4 G4 G4 G4 G4 G4 G4 G4 G4 G4 G4 G4 G4 G4 G4 G4 G4 G4 G4 G4 G4 G4 G4 G4 G4 G4 G4 G4 G4 G4 G4 G4 G4 G4 G4 G4 G4 G4 G4 G4 G4 G4 G4 G4 G4 G4 G4 G4 G4 G4 G4 G4 G4 G4 G4 G4 G4 G4 G4 G4 G4 G4 G4 G4 G4 G4 G4 G4 G4 G4 G4 G4 G4 G4 G4 G4 G4 G4 G4 G4 G4 G4 G4 G4 G4 G4 G4 G4 G4 G4 G4 G4 G4 G4 G4 G4 G4 G4 G4 G4 G4 G4 G4 G4 G4 G4 G4 G4 G4 G4 G4 G4 G4 G4 G4 G4 G4 G4 G4 G4 G4 G4 G4 G4 G4 G4 G4 G4 G4 G4 G4 G4 G4 G4 G4 G4 G4 G4 G4 G4 G4 G4 G4 G4 G4 G4 G4 4 4   C6 C6 C6 C6 C6 C6 C6 C6 C6 C6 C6 C6 C6 C6 C6 C6 C6 C6 C6 C6 C6 C6 C6 C6 C6 C6 C6 C6 C6 C6 C6 C6 C6 C6 C6 C6 C6 C6 C6 C6 C6 C6 C6 C6 C6 C6 C6 C6 C6 C6 C6 C6 C6 C6 C6 C6 C6 C6 C6 C6 C6 C6 C6 C6 C6 C6 C6 C6 C6 C6 C6 C6 C6 C6 C6 C6 C6 C6 C6 C6 C6 C6 C6 C6 C6 C6 C6 C6 C6 C6 C6 C6 C6 C6 C6 C6 C6 C6 C6 C6 C6 C6 C6 C6 C6 C6 C6 C6 C6 C6 C6 C6 C6 C6 C6 C6 C6 C6 C6 C6 C6 C6 C6 C6 C6 C6 C6 C6 C6 C6 C6 C6 C6 C6 C6 C6 C6 C6 C6 C6 C6 C6 C6 C6 C6 C6 C6 C6 C6 C6 C6 C6 C6 C6 C6 6 6   L7 L7 L7 L7 L7 L7 L7 L7 L7 L7 L7 L7 L7 L7 L7 L7 L7 L7 L7 L7 L7 L7 L7 L7 L7 L7 L7 L7 L7 L7 L7 L7 L7 L7 L7 L7 L7 L7 L7 L7 L7 L7 L7 L7 L7 L7 L7 L7 L7 L7 L7 L7 L7 L7 L7 L7 L7 L7 L7 L7 L7 L7 L7 L7 L7 L7 L7 L7 L7 L7 L7 L7 L7 L7 L7 L7 L7 L7 L7 L7 L7 L7 L7 L7 L7 L7 L7 L7 L7 L7 L7 L7 L7 L7 L7 L7 L7 L7 L7 L7 L7 L7 L7 L7 L7 L7 L7 L7 L7 L7 L7 L7 L7 L7 L7 L7 L7 L7 L7 L7 L7 L7 L7 L7 L7 L7 L7 L7 L7 L7 L7 L7 L7 L7 L7 L7 L7 L7 L7 L7 L7 L7 L7 L7 L7 7 7 7 7 7 7 7 7 7 7 7 7   N6 N6 N6 N6 N6 N6 N6 N6 N6 N6 N6 N6 N6 N6 N6 N6 N6 N6 N6 N6 N6 N6 N6 N6 N6 N6 N6 N6 N6 N6 N6 N6 N6 N6 N6 N6 N6 N6 N6 N6 N6 N6 N6 N6 N6 N6 N6 N6 N6 N6 N6 N6 N6 N6 N6 N6 N6 N6 N6 N6 N6 N6 N6 N6 N6 N6 N6 N6 N6 N6 N6 N6 N6 N6 N6 N6 N6 N6 N6 N6 N6 N6 N6 N6 N6 N6 N6 N6 N6 N6 N6 N6 N6 N6 N6 N6 N6 N6 N6 N6 N6 N6 N6 N6 N6 N6 N6 N6 N6 N6 N6 N6 N6 N6 N6 N6 N6 N6 N6 N6 N6 N6 N6 N6 N6 N6 N6 N6 N6 N6 N6 N6 N6 N6 N6 N6 N6 N6 N6 N6 N6 N6 N6 N6 N6 6 6 6 6 6 6 6 6 6 6 6 6   O4 O4 O4 O4 O4 O4 O4 O4 O4 O4 O4 O4 O4 O4 O4 O4 O4 O4 O4 O4 O4 O4 O4 O4 O4 O4 O4 O4 O4 O4 O4 O4 O4 O4 O4 O4 O4 O4 O4 O4 O4 O4 O4 O4 O4 O4 O4 O4 O4 O4 O4 O4 O4 O4 O4 O4 O4 O4 O4 O4 O4 O4 O4 O4 O4 O4 O4 O4 O4 O4 O4 O4 O4 O4 O4 O4 O4 O4 O4 O4 O4 O4 O4 O4 O4 O4 O4 O4 O4 O4 O4 O4 O4 O4 O4 O4 O4 O4 O4 O4 O4 O4 O4 O4 O4 O4 O4 O4 O4 O4 O4 O4 O4 O4 O4 O4 O4 O4 O4 O4 O4 O4 O4 O4 O4 O4 O4 O4 O4 O4 O4 O4 O4 O4 O4 O4 O4 O4 O4 O4 O4 O4 O4 O4 O4 4 4 4 4 4 4 4 4 4 4 4 4   9I 9I 9I 9I 9I 9I 9I 9I 9I 9I 9I 9I 9I 9I 9I 9I 9I 9I 9I 9I 9I 9I 9I 9I 9I 9I 9I 9I 9I 9I 9I 9I 9I 9I 9I 9I 9I 9I 9I 9I 9I 9I 9I 9I 9I 9I 9I 9I 9I 9I 9I 9I 9I 9I 9I 9I 9I 9I 9I 9I 9I 9I 9I 9I 9I 9I 9I 9I 9I 9I 9I 9I 9I 9I 9I 9I 9I 9I I I I7 I7 I7 I7 I7 I7 I7 I7 I7 I7 I7 I7 I7 I7 I7 I7 I7 I7 I7 I7 I7 I7 I7 I7 I7 I7 I7 I7 I7 I7 I7 I7 I7 I7 I7 I7 I7 I7 I7 I7 I7 I7 I7 I7 I7 I7 I7 I7 I7 I7 I7 I7 I7 I7 I7 I7 I7 I7 I7 I7 I7 I7 I7 I7 I7 I7 I7 I7 I7 I7 I7 I7 I7 I7 I7 7 7   J9 J9 J9 J9 J9 J9 J9 J9 J9 J9 J9 J9 J9 J9 J9 J9 J9 J9 J9 J9 J9 J9 J9 J9 J9 J9 J9 J9 J9 J9 J9 J9 J9 J9 J9 J9 J9 J9 J9 J9 J9 J9 J9 J9 J9 J9 J9 J9 J9 J9 J9 J9 J9 J9 J9 J9 J9 J9 J9 J9 J9 J9 J9 J9 J9 J9 J9 J9 J9 J9 J9 J9 J9 J9 J9 J9 J9 J9 J9 J9 J9 J9 J9 J9 J9 J9 J9 J9 J9 J9 J9 J9 J9 J9 J9 J9 J9 J9 J9 J9 J9 J9 J9 J9 J9 J9 J9 J9 J9 J9 J9 J9 J9 J9 J9 J9 J9 J9 J9 J9 J9 J9 J9 J9 J9 J9 J9 J9 J9 J9 J9 J9 J9 J9 J9 J9 J9 J9 J9 J9 J9 J9 J9 J9 J9 J9 J9 J9 J9 J9 J9 J9 J9 J9 J9 9 9 9 9 9 I9 I9 I9 I9 I9 I9 I9 I9 I9 I9 I9 I9 I9 I9 I9 I9 I9 I9 I9 I9 I9 I9 I9 I9 I9 I9 I9 I9 I9 I9 I9 I9 I9 I9 I9 I9 I9 I9 I9 I9 I9 I9 I9 I9 I9 I9 I9 I9 I9 I9 I9 I9 I9 I9 I9 I9 I9 I9 I9 I9 I9 I9 I9 I9 I9 I9 I9 I9 I9 I9 I9 I9 I9 I9 I9 I9 I9 I9 I9 I9 I9 I9 I9 I9 I9 I9 I9 I9 I9 I9 I9 I9 I9 I9 I9 I9 I9 I9 I9 I9 I9 I9 I9 I9 I9 I9 I9 I9 I9 I9 I9 I9 I9 I9 I9 I9 I9 I9 I9 I9 I9 I9 I9 I9 I9 I9 I9 I9 I9 I9 I9 I9 I9 I9 I9 I9 I9 I9 I9 I9 I9 I9 I9 I9 I9 I9 I9 I9 I9 I9 I9 I9 I9 I9 I9 9 9 9 9 9 9G 9G 9G 9G 9G 9G 9G 9G 9G 9G 9G 9G 9G 9G 9G 9G 9G 9G 9G 9G 9G 9G 9G 9G 9G 9G 9G 9G 9G 9G 9G 9G 9G 9G 9G 9G 9G 9G 9G 9G 9G 9G 9G 9G 9G 9G 9G 9G 9G 9G 9G 9G 9G 9G 9G 9G 9G 9G 9G 9G 9G 9G 9G 9G 9G 9G 9G 9G 9G 9G 9G 9G 9G 9G 9G 9G 9G 9G 9G 9G 9G 9G 9G 9G 9G 9G 9G 9G 9G 9G 9G 9G 9G 9G 9G 9G 9G 9G 9G 9G 9G 9G 9G 9G 9G 9G 9G 9G 9G 9G 9G 9G 9G 9G 9G 9G 9G 9G 9G 9G 9G 9G 9G 9G 9G 9G 9G 9G 9G 9G G G G G G G G G G G G G G G G G G G G G G G G G G      I7 I7 I7 I7 I7 I7 I7 I7 I7 I7 I7 I7 I7 I7 I7 I7 I7 I7 I7 I7 I7 I7 I7 I7 I7 I7 I7 I7 I7 I7 I7 I7 I7 I7 I7 I7 I7 I7 I7 I7 I7 I7 I7 I7 I7 I7 I7 I7 I7 I7 I7 I7 I7 I7 I7 I7 I7 I7 I7 I7 I7 I7 I7 I7 I7 I7 I7 I7 I7 I7 I7 I7 I7 I7 I7 I7 I7 I7 I7 I7 I7 I7 I7 I7 I7 I7 I7 I7 I7 I7 I7 I7 I7 I7 I7 I7 I7 I7 I7 I7 I7 I7 I7 I7 I7 I7 I7 I7 I7 I7 I7 I7 I7 I7 I7 I7 I7 I7 I7 I7 I7 I7 I7 I7 I7 I7 I7 I7 I7 I7 I7 I7 I7 I7 I7 I7 I7 I7 I7 I7 I7 I7 I7 I7 I7 I7 I7 I7 I7 I7 I7 I7 I7 I7 I7 7 7   E6 E6 E6 E6 E6 E6 E6 E6 E6 E6 E6 E6 E6 E6 E6 E6 E6 E6 E6 E6 E6 E6 E6 E6 E6 E6 E6 E6 E6 E6 E6 E6 E6 E6 E6 E6 E6 E6 E6 E6 E6 E6 E6 E6 E6 E6 E6 E6 E6 E6 E6 E6 E6 E6 E6 E6 E6 E6 E6 E6 E6 E6 E6 E6 E6 E6 E6 E6 E6 E6 E6 E6 E6 E6 E6 E6 E6 E6 E6 E6 E6 E6 E6 E6 E6 E6 E6 E6 E6 E6 E6 E6 E6 E6 E6 E6 E6 E6 E6 E6 E6 E6 E6 E6 E6 E6 E6 E6 E6 E6 E6 E6 E6 E6 E6 E6 E6 E6 E6 E6 E6 E6 E6 E6 E6 E6 E6 E6 E6 E6 E6 E6 E6 E6 E6 E6 E6 E6 E6 E6 E6 E6 E6 E6 E6 E6 E6 E6 E6 E6 E6 E6 E6 E6 E6 6 6   O4 O4 O4 O4 O4 O4 O4 O4 O4 O4 O4 O4 O4 O4 O4 O4 O4 O4 O4 O4 O4 O4 O4 O4 O4 O4 O4 O4 O4 O4 O4 O4 O4 O4 O4 O4 O4 O4 O4 O4 O4 O4 O4 O4 O4 O4 O4 O4 O4 O4 O4 O4 O4 O4 O4 O4 O4 O4 O4 O4 O4 O4 O4 O4 O4 O4 O4 O4 O4 O4 O4 O4 O4 O4 O4 O4 O4 O4 O4 O4 O4 O4 O4 O4 O4 O4 O4 O4 O4 O4 O4 O4 O4 O4 O4 O4 O4 O4 O4 O4 O4 O4 O4 O4 O4 O4 O4 O4 O4 O4 O4 O4 O4 O4 O4 O4 O4 O4 O4 O4 O4 O4 O4 O4 O4 O4 O4 O4 O4 O4 O4 O4 O4 O4 O4 O4 O4 O4 O4 O4 O4 O4 O4 O4 O4 4 4 4 4 4 4 4 4 4 4 4 4   Q2 Q2 Q2 Q2 Q2 Q2 Q2 Q2 Q2 Q2 Q2 Q2 Q2 Q2 Q2 Q2 Q2 Q2 Q2 Q2 Q2 Q2 Q2 Q2 Q2 Q2 Q2 Q2 Q2 Q2 Q2 Q2 Q2 Q2 Q2 Q2 Q2 Q2 Q2 Q2 Q2 Q2 Q2 Q2 Q2 Q2 Q2 Q2 Q2 Q2 Q2 Q2 Q2 Q2 Q2 Q2 Q2 Q2 Q2 Q2 Q2 Q2 Q2 Q2 Q2 Q2 Q2 Q2 Q2 Q2 Q2 Q2 Q2 Q2 Q2 Q2 Q2 Q2 Q2 Q2 Q2 Q2 Q2 Q2 Q2 Q2 Q2 Q2 Q2 Q2 Q2 Q2 Q2 Q2 Q2 Q2 Q2 Q2 Q2 Q2 Q2 Q2 Q2 Q2 Q2 Q2 Q2 Q2 Q2 Q2 Q2 Q2 Q2 Q2 Q2 Q2 Q2 Q2 Q2 Q2 Q2 Q2 Q2 Q2 Q2 Q2 Q2 Q2 Q2 Q2 Q2 Q2 Q2 Q2 Q2 Q2 Q2 Q2 Q2 Q2 Q2 Q2 Q2 Q2 Q2 2 2 2 2 2 2 2 2 2 2 2 2   S1 S1 S1 S1 S1 S1 S1 S1 S1 S1 S1 S1 S1 S1 S1 S1 S1 S1 S1 S1 S1 S1 S1 S1 S1 S1 S1 S1 S1 S1 S1 S1 S1 S1 S1 S1 S1 S1 S1 S1 S1 S1 S1 S1 S1 S1 S1 S1 S1 S1 S1 S1 S1 S1 S1 S1 S1 S1 S1 S1 S1 S1 S1 S1 S1 S1 S1 S1 S1 S1 S1 S1 S1 S1 S1 S1 S1 S1 S1 S1 S1 S1 S1 S1 S1 S1 S1 S1 S1 S1 S1 S1 S1 S1 S1 S1 S1 S1 S1 S1 S1 S1 S1 S1 S1 S1 S1 S1 S1 S1 S1 S1 S1 S1 S1 S1 S1 S1 S1 S1 S1 S1 S1 S1 S1 S1 S1 S1 S1 S1 S1 S1 S1 S1 S1 S1 S1 S1 S1 S1 S1 S1 S1 S1 S1 1 1 1 1 1 1 1 1 1 1 1 1   Q2 Q2 Q2 Q2 Q2 Q2 Q2 Q2 Q2 Q2 Q2 Q2 Q2 Q2 Q2 Q2 Q2 Q2 Q2 Q2 Q2 Q2 Q2 Q2 Q2 Q2 Q2 Q2 Q2 Q2 Q2 Q2 Q2 Q2 Q2 Q2 Q2 Q2 Q2 Q2 Q2 Q2 Q2 Q2 Q2 Q2 Q2 Q2 Q2 Q2 Q2 Q2 Q2 Q2 Q2 Q2 Q2 Q2 Q2 Q2 Q2 Q2 Q2 Q2 Q2 Q2 Q2 Q2 Q2 Q2 Q2 Q2 Q2 Q2 Q2 Q2 Q2 Q2 Q2 Q2 Q2 Q2 Q2 Q2 Q2 Q2 Q2 Q2 Q2 Q2 Q2 Q2 Q2 Q2 Q2 Q2 Q2 Q2 Q2 Q2 Q2 Q2 Q2 Q2 Q2 Q2 Q2 Q2 Q2 Q2 Q2 Q2 Q2 Q2 Q2 Q2 Q2 Q2 Q2 Q2 Q2 Q2 Q2 Q2 Q2 Q2 Q2 Q2 Q2 Q2 Q2 Q2 Q2 Q2 Q2 Q2 Q2 Q2 Q2 Q2 Q2 Q2 Q2 Q2 Q2 Q2 Q2 Q2 Q2 Q2 Q2 Q2 Q2 Q2 Q2 2 2   O4 O4 O4 O4 O4 O4 O4 O4 O4 O4 O4 O4 O4 O4 O4 O4 O4 O4 O4 O4 O4 O4 O4 O4 O4 O4 O4 O4 O4 O4 O4 O4 O4 O4 O4 O4 O4 O4 O4 O4 O4 O4 O4 O4 O4 O4 O4 O4 O4 O4 O4 O4 O4 O4 O4 O4 O4 O4 O4 O4 O4 O4 O4 O4 O4 O4 O4 O4 O4 O4 O4 O4 O4 O4 O4 O4 O4 O4 O4 O4 O4 O4 O4 O4 O4 O4 O4 O4 O4 O4 O4 O4 O4 O4 O4 O4 O4 O4 O4 O4 O4 O4 O4 O4 O4 O4 O4 O4 O4 O4 O4 O4 O4 O4 O4 O4 O4 O4 O4 O4 O4 O4 O4 O4 O4 O4 O4 O4 O4 O4 O4 O4 O4 O4 O4 O4 O4 O4 O4 O4 O4 O4 O4 O4 O4 O4 O4 O4 O4 O4 O4 O4 O4 O4 O4 4 4   N6 N6 N6 N6 N6 N6 N6 N6 N6 N6 N6 N6 N6 N6 N6 N6 N6 N6 N6 N6 N6 N6 N6 N6 N6 N6 N6 N6 N6 N6 N6 N6 N6 N6 N6 N6 N6 N6 N6 N6 N6 N6 N6 N6 N6 N6 N6 N6 N6 N6 N6 N6 N6 N6 N6 N6 N6 N6 N6 N6 N6 N6 N6 N6 N6 N6 N6 N6 N6 N6 N6 N6 N6 N6 N6 N6 N6 N6 N6 N6 N6 N6 N6 N6 N6 N6 N6 N6 N6 N6 N6 N6 N6 N6 N6 N6 N6 N6 N6 N6 N6 N6 N6 N6 N6 N6 N6 N6 N6 N6 N6 N6 N6 N6 N6 N6 N6 N6 N6 N6 N6 N6 N6 N6 N6 N6 N6 N6 N6 N6 N6 N6 N6 N6 N6 N6 N6 N6 N6 N6 N6 N6 N6 N6 N6 N6 N6 N6 N6 N6 N6 N6 N6 N6 N6 6 6   L7 L7 L7 L7 L7 L7 L7 L7 L7 L7 L7 L7 L7 L7 L7 L7 L7 L7 L7 L7 L7 L7 L7 L7 L7 L7 L7 L7 L7 L7 L7 L7 L7 L7 L7 L7 L7 L7 L7 L7 L7 L7 L7 L7 L7 L7 L7 L7 L7 L7 L7 L7 L7 L7 L7 L7 L7 L7 L7 L7 L7 L7 L7 L7 L7 L7 L7 L7 L7 L7 L7 L7 L7 L7 L7 L7 L7 L7 L7 L7 L7 L7 L7 L7 L7 L7 L7 L7 L7 L7 L7 L7 L7 L7 L7 L7 L7 L7 L7 L7 L7 L7 L7 L7 L7 L7 L7 L7 L7 L7 L7 L7 L7 L7 L7 L7 L7 L7 L7 L7 L7 L7 L7 L7 L7 L7 L7 L7 L7 L7 L7 L7 L7 L7 L7 L7 L7 L7 L7 L7 L7 L7 L7 L7 L7 L7 L7 L7 L7 L7 L7 L7 L7 L7 L7 7 7   N9 N9 N9 N9 N9 N9 N9 N9 N9 N9 N9 N9 N9 N9 N9 N9 N9 N9 N9 N9 N9 N9 N9 N9 N9 N9 N9 N9 N9 N9 N9 N9 N9 N9 N9 N9 N9 N9 N9 N9 N9 N9 N9 N9 N9 N9 N9 N9 N9 N9 N9 N9 N9 N9 N9 N9 N9 N9 N9 N9 N9 N9 N9 N9 N9 N9 N9 N9 N9 N9 N9 N9 N9 N9 N9 N9 N9 N9 N9 N9 N9 N9 N9 N9 N9 N9 N9 N9 N9 N9 N9 N9 N9 N9 N9 N9 N9 N9 N9 N9 N9 N9 N9 N9 N9 N9 N9 N9 N9 N9 N9 N9 N9 N9 N9 N9 N9 N9 N9 N9 N9 N9 N9 N9 N9 N9 N9 N9 N9 N9 N9 N9 N9 N9 N9 N9 N9 N9 N9 N9 N9 N9 N9 N9 N9 N9 N9 N9 N9 N9 N9 N9 N9 N9 N9 9 9   J; J; J; J; J; J; J; J; J; J; J; J; J; J; J; J; J; J; J; J; J; J; J; J; J; J; J; J; J; J; J; J; J; J; J; J; J; J; J; J; J; J; J; J; J; J; J; J; J; J; J; J; J; J; J; J; J; J; J; J; J; J; J; J; J; J; J; J; J; J; J; J; J; J; J; J; J; J; J; J; J; J; J; J; J; J; J; J; J; J; J; J; J; J; J; J; J; J; J; J; J; J; J; J; J; J; J; J; J; J; J; J; J; J; J; J; J; J; J; J; J; J; J; J; J; J; J; J; J; J; J; J; J; J; J; J; J; J; J; J; J; J; J; J; J; J; J; J; J; J; J; J; J; J; J; ; ;   9E 9E 9E 9E 9E 9E 9E 9E 9E 9E 9E 9E 9E 9E 9E 9E 9E 9E 9E 9E 9E 9E 9E 9E 9E 9E 9E 9E 9E 9E 9E 9E 9E 9E 9E 9E 9E 9E 9E 9E 9E 9E 9E 9E 9E 9E 9E 9E 9E 9E 9E 9E 9E 9E 9E 9E 9E 9E 9E 9E 9E 9E 9E 9E 9E 9E 9E 9E 9E 9E 9E 9E 9E 9E 9E 9E 9E 9E E E E7 E7 E7 E7 E7 E7 E7 E7 E7 E7 E7 E7 E7 E7 E7 E7 E7 E7 E7 E7 E7 E7 E7 E7 E7 E7 E7 E7 E7 E7 E7 E7 E7 E7 E7 E7 E7 E7 E7 E7 E7 E7 E7 E7 E7 E7 E7 E7 E7 E7 E7 E7 E7 E7 E7 E7 E7 E7 E7 E7 E7 E7 E7 E7 E7 7 7 7 7 7 7 7 7 7 7 7 7   J9 J9 J9 J9 J9 J9 J9 J9 J9 J9 J9 J9 J9 J9 J9 J9 J9 J9 J9 J9 J9 J9 J9 J9 J9 J9 J9 J9 J9 J9 J9 J9 J9 J9 J9 J9 J9 J9 J9 J9 J9 J9 J9 J9 J9 J9 J9 J9 J9 J9 J9 J9 J9 J9 J9 J9 J9 J9 J9 J9 J9 J9 J9 J9 J9 J9 J9 J9 J9 J9 J9 J9 J9 J9 J9 J9 J9 J9 J9 J9 J9 J9 J9 J9 J9 J9 J9 J9 J9 J9 J9 J9 J9 J9 J9 J9 J9 J9 J9 J9 J9 J9 J9 J9 J9 J9 J9 J9 J9 J9 J9 J9 J9 J9 J9 J9 J9 J9 J9 J9 J9 J9 J9 J9 J9 J9 J9 J9 J9 J9 J9 J9 J9 J9 J9 J9 J9 J9 J9 J9 J9 J9 J9 J9 J9 9 9 9 9 9 9 9 9 9 9 9 9   I- I- I- I- I- I- I- I- I- I- I- I- I- I- I- I- I- I- I- I- I- I- I- I- I- I- I- I- I- I- I- I- I- I- I- I- I- I- I- I- I- I- I- I- I- I- I- I- I- I- I- I- I- I- I- I- I- I- I- I- I- I- I- I- I- I- I- I- I- I- I- I- I- I- I- I- I- I- I- I- I- I- I- I- I- I- I- I- I- I- I- I- I- I- I- I- I- I- I- I- I- I- I- I- I- I- I- I- I- I- I- I- I- I- I- I- I- I- I- I- I- I- I- I- I- I- I- I- I- I- I- I- I- I- I- I- I- I- I- I- I- I- I- I- I- - - - - - - - - - - - -   J2 J2 J2 J2 J2 J2 J2 J2 J2 J2 J2 J2 J2 J2 J2 J2 J2 J2 J2 J2 J2 J2 J2 J2 J2 J2 J2 J2 J2 J2 J2 J2 J2 J2 J2 J2 J2 J2 J2 J2 J2 J2 J2 J2 J2 J2 J2 J2 J2 J2 J2 J2 J2 J2 J2 J2 J2 J2 J2 J2 J2 J2 J2 J2 J2 J2 J2 J2 J2 J2 J2 J2 J2 J2 J2 2 2 2 2 2 I2 I2 I2 I2 I2 I2 I2 I2 I2 I2 I2 I2 I2 I2 I2 I2 I2 I2 I2 I2 I2 I2 I2 I2 I2 I2 I2 I2 I2 I2 I2 I2 I2 I2 I2 I2 I2 I2 I2 I2 I2 I2 I2 I2 I2 I2 I2 I2 I2 I2 I2 I2 I2 I2 I2 I2 I2 I2 I2 I2 I2 I2 I2 I2 I2 I2 I2 I2 I2 I2 I2 I2 I2 I2 I2 2 2   6J 6J 6J 6J 6J 6J 6J 6J 6J 6J 6J 6J 6J 6J 6J 6J 6J 6J 6J 6J 6J 6J 6J 6J 6J 6J 6J 6J 6J 6J 6J 6J 6J 6J 6J 6J 6J 6J 6J 6J 6J 6J 6J 6J 6J 6J 6J 6J 6J 6J 6J 6J 6J 6J 6J 6J 6J 6J 6J 6J 6J 6J 6J 6J 6J 6J 6J 6J 6J 6J 6J 6J 6J 6J 6J 6J 6J 6J 6J 6J 6J 6J 6J 6J 6J 6J 6J 6J 6J 6J 6J 6J 6J 6J 6J 6J 6J 6J 6J 6J 6J 6J 6J 6J 6J 6J 6J 6J 6J 6J 6J 6J 6J 6J 6J 6J 6J 6J 6J 6J 6J 6J 6J 6J 6J 6J 6J 6J 6J 6J 6J 6J 6J 6J 6J 6J 6J 6J 6J 6J 6J 6J 6J 6J 6J 6J 6J 6J 6J 6J 6J 6J 6J 6J 6J 6J 6J 6J J J 9J 9J 9J 9J 9J 9J 9J 9J 9J 9J 9J 9J 9J 9J 9J 9J 9J 9J 9J 9J 9J 9J 9J 9J 9J 9J 9J 9J 9J 9J 9J 9J 9J 9J 9J 9J 9J 9J 9J 9J 9J 9J 9J 9J 9J 9J 9J 9J 9J 9J 9J 9J 9J 9J 9J 9J 9J 9J 9J 9J 9J 9J 9J 9J 9J 9J 9J 9J 9J 9J 9J 9J 9J 9J 9J 9J 9J 9J 9J 9J 9J 9J 9J 9J 9J 9J 9J 9J 9J 9J 9J 9J 9J 9J 9J 9J 9J 9J 9J 9J 9J 9J 9J 9J 9J 9J 9J 9J 9J 9J 9J 9J 9J 9J 9J 9J 9J 9J 9J 9J 9J 9J 9J 9J 9J 9J 9J 9J 9J 9J 9J 9J 9J 9J 9J 9J 9J 9J 9J 9J 9J 9J 9J 9J 9J 9J 9J 9J 9J 9J 9J 9J 9J 9J 9J 9J 9J 9J J J 6J 6J 6J 6J 6J 6J 6J 6J 6J 6J 6J 6J 6J 6J 6J 6J 6J 6J 6J 6J 6J 6J 6J 6J 6J 6J 6J 6J 6J 6J 6J 6J 6J 6J 6J 6J 6J 6J 6J 6J 6J 6J 6J 6J 6J 6J 6J 6J 6J 6J 6J 6J 6J 6J 6J 6J 6J 6J 6J 6J 6J 6J 6J 6J 6J 6J 6J 6J 6J 6J 6J 6J 6J 6J 6J 6J 6J 6J 6J 6J 6J 6J 6J 6J 6J 6J 6J 6J 6J 6J 6J 6J 6J 6J 6J 6J 6J 6J 6J 6J 6J 6J 6J 6J 6J 6J 6J 6J 6J 6J 6J 6J 6J 6J 6J 6J 6J 6J 6J 6J 6J 6J 6J 6J 6J 6J 6J 6J 6J 6J 6J 6J 6J 6J 6J 6J 6J 6J 6J 6J 6J 6J 6J 6J 6J 6J 6J 6J 6J 6J 6J 6J 6J 6J 6J 6J 6J 6J J J 2J 2J 2J 2J 2J 2J 2J 2J 2J 2J 2J 2J 2J 2J 2J 2J 2J 2J 2J 2J 2J 2J 2J 2J 2J 2J 2J 2J 2J 2J 2J 2J 2J 2J 2J 2J 2J 2J 2J 2J 2J 2J 2J 2J 2J 2J 2J 2J 2J 2J 2J 2J 2J 2J 2J 2J 2J 2J 2J 2J 2J 2J 2J 2J 2J 2J 2J 2J 2J 2J 2J 2J 2J 2J 2J 2J 2J 2J 2J 2J 2J 2J 2J 2J 2J 2J 2J 2J 2J 2J 2J 2J 2J 2J 2J 2J 2J 2J 2J 2J 2J 2J 2J 2J 2J 2J 2J 2J 2J 2J 2J 2J 2J 2J 2J 2J 2J 2J 2J 2J 2J 2J 2J 2J 2J 2J 2J 2J 2J 2J 2J 2J 2J 2J 2J 2J 2J 2J 2J 2J 2J 2J 2J 2J 2J 2J 2J 2J 2J 2J 2J 2J 2J 2J 2J 2J 2J 2J J J J9 J9 J9 J9 J9 J9 J9 J9 J9 J9 J9 J9 J9 J9 J9 J9 J9 J9 J9 J9 J9 J9 J9 J9 J9 J9 J9 J9 J9 J9 J9 J9 J9 J9 J9 J9 J9 J9 J9 J9 J9 J9 J9 J9 J9 J9 J9 J9 J9 J9 J9 J9 J9 J9 J9 J9 J9 J9 J9 J9 9 9 9 9 9 9 9 9 9 9 9 9 9 9 9 9 9 9 9 9 9 9 9 9 9 9 9 9 9 9 9 9 9 9 9 9 9 9 9 9 9 9 9 9 9 9 9 9 9 9 9 9 9 9 9 9 9 9 9 9 9 9 9 9 9 9 9 9 9 9 9 9 9 9 9 9 9 9 9 9 9 9 9 9 9 9 9 9 9 9 9 9 9 9 9 9 9 9   6 6 6 6 6 6 6 6 6 6 6 6 6 6 6 6 6 6 6 6 6 6 6 6 6 6 6 6 6 6 6 6 6 6 6 6 6 6 6 6 6 6 6 6 6 6 6 6 6 6 6 6 6 6 6 6 6 6 6 6 6 6 6 6 6 6 6 6 6 6 6 6 6 6 6 6 6 6 6 6 6 6 6 6 6 6 6 6 6 6 6 6 6 6 6 6 6 6 6 6 6 6 6 6 6 6 6 6 6 6 6 6 6 6 6 6 6 6 6 6 6 6 6 6 6 6 6 6 6 6 6 6 6 6 6 6 6 6 6 6 6 6 6 6 6 6 6 6 6 6 6 6 6 6 6 6 6 6   2 2 2 2 2 2 2 2 2 2 2 2 2 2 2 2 2 2 2 2 2 2 2 2 2 2 2 2 2 2 2 2 2 2 2 2 2 2 2 2 2 2 2 2 2 2 2 2 2 2 2 2 2 2 2 2 2 2 2 2 2 2 2 2 2 2 2 2 2 2 2 2 2 2 2 2 2 2 2 2 2 2 2 2 2 2 2 2 2 2 2 2 2 2 2 2 2 2 2 2 2 2 2 2 2 2 2 2 2 2 2 2 2 2 2 2 2 2 2 2 2 2 2 2 2 2 2 2 2 2 2 2 2 2 2 2 2 2 2 2 2 2 2 2 2 2 2 2 2 2 2 2 2 2 2 2 2 2   > > > > > > > > > > > > > > > > > > > > > > > > > > > > > > > > > > > > > > > > > > > > > > > > > > > > > > > > > > > > > > > > > > > > > > > > > > > > > > > > > > > > > > > > > > > > > > > > > > > > > > > > > > > > > > > > > > > > > > > > > > > > > > > > > > > > > > > > > > > > > > > > > > > > > > > > > > > > > >   >E >E >E >E >E >E >E >E >E >E >E >E >E >E >E >E >E >E >E >E >E >E >E >E >E >E >E >E >E >E >E >E >E >E >E >E >E >E >E >E >E >E >E >E >E >E >E >E >E >E >E >E >E >E >E >E >E >E >E >E >E >E >E >E >E >E >E >E >E >E >=E >=E >=E >=E >=E >=E >=E >=E =E =E =E =E =E =E =E =E =E =E =E =E =E =E =E =E =E =E =E =E =E =E =E =E =E =E =E =E =E =E =E =E =E =E =E =E =E =E =E =E =E =E =E =E =E =E =E =E =E =E =E =E =E =E =E =E =E =E =E =E =E =E =E> =E> =E> =E> =E> =E> =E> =E> E> E> E> E> E> E> E> E> > > > > > >I >I >I >I >I >I >I >I >I >I >I >I >I >I >I >I >I >I >I >I >I >I >I >I >I >I >I >I >I >I >I >I >I >I >I >I >I >I >I >I >I >I >I >I >I >I >I >I >I >I >I= >I= >I= >I= >I= >I= >I= >I= I= I= I= I= I= I= I= I= I= I= I= I= I= I= I= I= I= I= I= I= I= I= I= I= I= I= I= I= I= I= I= I= I= I= I= I= I= I= I= I= I= I= I= I= I= I= I= I= I= I= I= I= I= I= I= I= I= I= I= I= I= I= I= I= I= I= I= I= I= I= I= I= I= I= I= I= I= I= I= I= I= I= I= I= I= I= I= I= I= I= I= I= I= I= I= I= I= I= = = = = = =L =L =L =L =L =L =L =L =L =L =L =L =L =L =L =L =L =L =L =L =L =L =L =L =L =L =L =L =L =L =L =L =L =L =L =L =L =L =L =L =L =L =L =L =L =L =L =L =L =L =L =L =L =L =L =L =L =L =L =L =L =L =L =L =L =L =L =L =L =L =L =L =L =L =L =L =L =L =L =L =L =L =L =L =L =L =L =L =L =L =L =L =L =L =L =L =L =L =L =L =L =L =L =L =L =L =L =L =L =L =L =L =L =L =L =L =L =L =L =L =L =L =L =L =L L L L L L L L L L L L L L L L L L L L L L L L L L L L L L L      I9 I9 I9 I9 I9 I9 I9 I9 I9 I9 I9 I9 I9 I9 I9 I9 I9 I9 I9 I9 I9 I9 I9 I9 I9 I9 I9 I9 I9 I9 I9 I9 I9 I9 I9 I9 I9 I9 I9 I9 I9 I9 I9 I9 I9 I9 I9 I9 I9 I9 I9 I9 I9 I9 I9 I9 I9 I9 I9 I9 I9 I9 I9 I9 I9 I9 I9 I9 I9 I9 I9 I9 I9 I9 I9 I9 I9 I9 I9 I9 I9 I9 I9 I9 I9 I9 I9 I9 I9 I9 I9 I9 I9 I9 I9 I9 I9 I9 I9 I9 I9 I9 I9 I9 I9 I9 I9 I9 I9 I9 I9 I9 I9 I9 I9 I9 I9 I9 I9 I9 I9 I9 I9 I9 I9 I9 I9 I9 I9 I9 I9 I9 I9 I9 I9 I9 I9 I9 I9 I9 I9 I9 I9 I9 I9 I9 I9 I9 I9 I9 I9 I9 I9 I9 I9 9 9 9 9 9 E9 E9 E9 E9 E9 E9 E9 E9 E9 E9 E9 E9 E9 E9 E9 E9 E9 E9 E9 E9 E9 E9 E9 E9 E9 E9 E9 E9 E9 E9 E9 E9 E9 E9 E9 E9 E9 E9 E9 E9 E9 E9 E9 E9 E9 E9 E9 E9 E9 E9 E9 E9 E9 E9 E9 E9 E9 E9 E9 E9 E9 E9 E9 E9 E9 E9 E9 E9 E9 E9 E9 E9 E9 E9 E9 E9 E9 E9 E9 E9 E9 E9 E9 E9 E9 E9 E9 E9 E9 E9 E9 E9 E9 E9 E9 E9 E9 E9 E9 E9 E9 E9 E9 E9 E9 E9 E9 E9 E9 E9 E9 E9 E9 E9 E9 E9 E9 E9 E9 E9 E9 E9 E9 E9 E9 E9 E9 E9 E9 E9 E9 E9 E9 E9 E9 E9 E9 E9 E9 E9 E9 E9 E9 E9 E9 E9 E9 E9 E9 E9 E9 E9 E9 E9 E9 9 9 9 9 9 L9 L9 L9 L9 L9 L9 L9 L9 L9 L9 L9 L9 L9 L9 L9 L9 L9 L9 L9 L9 L9 L9 L9 L9 L9 L9 L9 L9 L9 L9 L9 L9 L9 L9 L9 L9 L9 L9 L9 L9 L9 L9 L9 L9 L9 L9 L9 L9 L9 L9 L9 L9 L9 L9 L9 L9 L9 L9 L9 L9 L9 L9 L9 L9 L9 L9 L9 L9 L9 L9 L9 L9 L9 L9 L9 L9 L9 L9 L9 L9 L9 L9 L9 L9 L9 L9 L9 L9 L9 L9 L9 L9 L9 L9 L9 L9 L9 L9 L9 L9 L9 L9 L9 L9 L9 L9 L9 L9 L9 L9 L9 L9 L9 L9 L9 L9 L9 L9 L9 L9 L9 L9 L9 L9 L9 L9 L9 L9 L9 L9 L9 L9 L9 L9 L9 L9 L9 L9 L9 L9 L9 L9 L9 L9 L9 L9 L9 L9 L9 L9 L9 L9 L9 L9 L9      I I I I I I I I I I I I I I I I I I I I I I I I I I I I I I I I I I I I I I I I I I I I I I I I I I I I I I I I I I I I I I I I I I I I I I I I I I I I I I I I I I I I I I I I I I I I I I I I I I I I I I I I I I I I I I I I I I I I I I I I I I I I I I I I I I I I I I I I I I I I I I I I I                E E E E E E E E E E E E E E E E E E E E E E E E E E E E E E E E E E E E E E E E E E E E E E E E E E E E E E E E E E E E E E E E E E E E E E E E E E E E E E E E E E E E E E E E E E E E E E E E E E E E E E E E E E E E E E E E E E E E E E E E E E E E E E E E E E E E E E E E E E E E E E E E E                O O O O O O O O O O O O O O O O O O O O O O O O O O O O O O O O O O O O O O O O O O O O O O O O O O O O O O O O O O O O O O O O O O O O O O O O O O O O O O O O O O O O O O O O O O O O O O O O O O O O O O O O O O O O O O O O O O O O O O O O O O O O O O O O O O O O O O O O O O O O O O O O O                O2 O2 O2 O2 O2 O2 O2 O2 O2 O2 O2 O2 O2 O2 O2 O2 O2 O2 O2 O2 O2 O2 O2 O2 O2 O2 O2 O2 O2 O2 O2 O2 O2 O2 O2 O2 O2 O2 O2 O2 O2 O2 O2 O2 O2 O2 O2 O2 O2 O2 O2 O2 O2 O2 O2 ON2 ON2 ON2 ON2 ON2 ON2 ON2 ON2 ON2 ON2 ON2 ON2 ON2 ON2 ON2 ON2 ON2 ON2 ON2 ON2 N2 N2 N2 N2 N2 N2 N2 N2 N2 N2 N2 N2 N2 N2 N2 N2 N2 N2 N2 N2 N2 N2 N2 N2 N2 N2 N2 N2 N2 N2 N2 N2 N2 N2 N2 N2O N2O N2O N2O N2O N2O N2O N2O N2O N2O N2O N2O N2O N2O N2O N2O N2O N2O N2O N2O 2O 2O 2O 2O 2O 2O 2O 2O 2O 2O 2O 2O 2O 2O 2O 2O 2O 2O 2O 2O 2O 2O 2O 2O 2O 2O 2O 2O O O O6N O6N O6N O6N O6N O6N O6N O6N O6N O6N O6N O6N O6N O6N O6N O6N O6N O6N O6N O6N O6N O6N O6N O6N O6N 6N 6N 6N 6N 6N 6N 6N 6N 6N 6N 6N 6N 6N 6N 6N 6N 6N 6N 6N 6N 6N 6N 6N 6N 6N 6N 6N 6N 6N 6N 6N 6N 6N 6N 6N 6N 6N 6N 6N 6N 6N 6N 6N 6N 6N 6N 6N 6N 6N 6N 6N 6N 6N 6N 6N 6N 6N 6N 6N 6N 6N 6N 6N 6N 6N 6N 6N 6N 6N 6N 6N 6N 6N 6N 6N 6N 6N 6N 6N 6N 6N 6N 6N 6N 6N 6N 6N 6N 6N 6N 6N 6N 6N 6N 6N 6N 6N 6N 6N 6N 6N 6N 6N 6N 6N 6N 6N 6N 6N 6N 6N 6N 6N 6N 6N 6N 6N 6N 6N 6N 6N 6N 6N 6N 6N 6N 6N 6N 6N 6N 6N 6N N N N9 N9 N9 N9 N9 N9 N9 N9 N9 N9 N9 N9 N9 N9 N9 N9 N9 N9 N9 N9 N9 N9 N9 N9 N9 N9 N9 N9 N9 N9 N9 N9 N9 N9 N9 N9 N9 N9 N9 N9 N9 N9 N9 N9 N9 N9 N9 N9 N9 N9 N9 N9 N9 N9 N9 N9 N9 N9 N9 N9 N9 N9 N9 N9 N9 N9 N9 N9 N9 N9 N9 N9 N9 N9 N9 N9 N9 N9 N9 N9 N9 N9 N9 N9 N9 N9 N9 N9 N9 N9 N9 N9 N9 N9 N9 N9 N9 N9 N9 N9 N9 N9 N9 N9 N9 N9 N9 N9 N9 N9 N9 N9 N9 N9 N9 N9 N9 N9 N9 N9 N9 N9 N9 N9 N9 N9 N9 N9 N9 N9 N9 N9 N9 N9 N9 N9 N9 N9 9 9 9 9 9 9 9 9 9 9 9 9 9 9 9 9 9 9 9 9   6J 6J 6J 6J 6J 6J 6J 6J 6J 6J 6J 6J 6J 6J 6J 6J 6J 6J 6J 6J 6J 6J 6J 6J 6J 6J 6J 6J 6J 6J 6J 6J 6J 6J 6J 6J 6J 6J 6J 6J 6J 6J 6J 6J 6J 6J 6J 6J 6J 6J 6J 6J 6J 6J 6J 6J 6J 6J 6J 6J 6J 6J 6J 6J 6J 6J 6J 6J 6J 6J 6J 6J 6J 6J 6J 6J 6J 6J 6J 6J 6J 6J 6J 6J 6J 6J 6J 6J 6J 6J 6J 6J 6J 6J 6J 6J 6J 6J 6J 6J 6J 6J 6J 6J 6J 6J 6J 6J 6J 6J 6J 6J 6J 6J 6J 6J 6J 6J 6J 6J 6J 6J 6J 6J 6J 6J 6J 6J 6J 6J 6J 6J 6J 6J 6J 6J 6J 6J 6J 6J 6J 6J 6J 6J 6J 6J 6J 6J 6J 6J 6J 6J 6J 6J 6J 6J 6J 6J J J 2J 2J 2J 2J 2J 2J 2J 2J 2J 2J 2J 2J 2J 2J 2J 2J 2J 2J 2J 2J 2J 2J 2J 2J 2J 2J 2J 2J 2J 2J 2J 2J 2J 2J 2J 2J 2J 2J 2J 2J 2J 2J 2J 2J 2J 2J 2J 2J 2J 2J 2J 2J 2J 2J 2J 2J 2J 2J 2J 2J 2J 2J 2J 2J 2J 2J 2J 2J 2J 2J 2J 2J 2J 2J 2J 2J 2J 2J 2J 2J 2J 2J 2J 2J 2J 2J 2J 2J 2J 2J 2J 2J 2J 2J 2J 2J 2J 2J 2J 2J 2J 2J 2J 2J 2J 2J 2J 2J 2J 2J 2J 2J 2J 2J 2J 2J 2J 2J 2J 2J 2J 2J 2J 2J 2J 2J 2J 2J 2J 2J 2J 2J 2J 2J 2J 2J 2J 2J 2J 2J 2J 2J 2J 2J 2J 2J 2J 2J 2J 2J 2J 2J 2J 2J 2J 2J 2J 2J J J J9 J9 J9 J9 J9 J9 J9 J9 J9 J9 J9 J9 J9 J9 J9 J9 J9 J9 J9 J9 J9 J9 J9 J9 J9 J9 J9 J9 J9 J9 J9 J9 J9 J9 J9 J9 J9 J9 J9 J9 J9 J9 J9 J9 J9 J9 J9 J9 J9 J9 J9 J9 J9 J9 J9 J9 J9 J9 J9 J9 J9 J9 J9 J9 J9 J9 J9 J9 J9 J9 J9 J9 J9 J9 J9 J9 J9 J9 J9 J9 J9 J9 J9 J9 J9 J9 J9 J9 J9 J9 J9 J9 J9 J9 J9 J9 J9 J9 J9 J9 J9 J9 J9 J9 J9 J9 J9 J9 J9 J9 J9 J9 J9 J9 J9 J9 J9 J9 J9 J9 J9 J9 J9 J9 J9 J9 J9 J9 J9 J9 J9 J9 J9 J9 J9 J9 J9 J9 J9 J9 J9 J9 J9 J9 J9 J9 J9 J9 J9 J9 J9 J9 J9 J9 J9 9 9   6 6 6 6 6 6 6 6 6 6 6 6 6 6 6 6 6 6 6 6 6 6 6 6 6 6 6 6 6 6 6 6 6 6 6 6 6 6 6 6 6 6 6 6 6 6 6 6 6 6 6 6 6 6 6 6 6 6 6 6 6 6 6 6 6 6 6 6 6 6 6 6 6 6 6 6 6 6 6 6 6 6 6 6 6 6 6 6 6 6 6 6 6 6 6 6 6 6 6 6 6 6 6 6 6 6 6 6 6 6 6 6 6 6 6 6 6 6 6 6 6 6 6 6 6 6 6 6 6 6 6 6 6 6 6 6 6 6 6 6 6 6 6 6 6 6 6 6 6 6 6 6 6 6 6 6 6 6   2 2 2 2 2 2 2 2 2 2 2 2 2 2 2 2 2 2 2 2 2 2 2 2 2 2 2 2 2 2 2 2 2 2 2 2 2 2 2 2 2 2 2 2 2 2 2 2 2 2 2 2 2 2 2 2 2 2 2 2 2 2 2 2 2 2 2 2 2 2 2 2 2 2 2 2 2 2 2 2 2 2 2 2 2 2 2 2 2 2 2 2 2 2 2 2 2 2 2 2 2 2 2 2 2 2 2 2 2 2 2 2 2 2 2 2 2 2 2 2 2 2 2 2 2 2 2 2 2 2 2 2 2 2 2 2 2 2 2 2 2 2 2 2 2 2 2 2 2 2 2 2 2 2 2 2 2 2   < < < < < < < < < < < < < < < < < < < < < < < < < < < < < < < < < < < < < < < < < < < < < < < < < < < < < < < < < < < < < < < < < < < < < < < < < < < < < < < < < < < < < < < < < < < < < < < < < < < < < < < < < < < < < < < < < < < < < < < < < < < < < < < < < < < < < < < < < < < < < < < < < < < < < < < < < < < < < <   <C <C <C <C <C <C <C <C <C <C <C <C <C <C <C <C <C <C <C <C <C <C <C <C <C <C <C <C <C <C <C <C <C <C <C <C <C <C <C <C <C <C <C <C <C <C <C <C <C <C <C <C <C <C <C <C <C <C <C <C <C <C <C <C <C <C <C <C <C <C <C <C <C <C <C <C <C <C C C C; C; C; C; C; C; C; C; C; C; C; C; C; C; C; C; C; C; C; C; C; C; C; C; C; C; C; C; C; C; C; C; C; C; C; C; C; C; C; C; C; C; C; C; C; C; C; C; C; C; C; C; C; C; C; C; C; C; C; C; C; C; C; C; C; C; C; C; C; C; C; C; C; C; C; ; ;   <G <G <G <G <G <G <G <G <G <G <G <G <G <G <G <G <G <G <G <G <G <G <G <G <G <G <G <G <G <G <G <G <G <G <G <G <G <G <G <G <G <G <G <G <G <G <G <G <G <G <G <G <G <G <G <G <G <G <G <G <G <G <G <G <G <G <G <G <G <G <G <G <G <G <G <G <G <G G G G; G; G; G; G; G; G; G; G; G; G; G; G; G; G; G; G; G; G; G; G; G; G; G; G; G; G; G; G; G; G; G; G; G; G; G; G; G; G; G; G; G; G; G; G; G; G; G; G; G; G; G; G; G; G; G; G; G; G; G; G; G; G; G; G; G; G; G; G; G; G; G; G; G; G; ; ; ; ; ; ;J ;J ;J ;J ;J ;J ;J ;J ;J ;J ;J ;J ;J ;J ;J ;J ;J ;J ;J ;J ;J ;J ;J ;J ;J ;J ;J ;J ;J ;J ;J ;J ;J ;J ;J ;J ;J ;J ;J ;J ;J ;J ;J ;J ;J ;J ;J ;J ;J ;J ;J ;J ;J ;J ;J ;J ;J ;J ;J ;J ;J ;J ;J ;J ;J ;J ;J ;J ;J ;J ;J ;J ;J ;J ;J ;J ;J ;J ;J ;J ;J ;J ;J ;J ;J ;J ;J ;J ;J ;J ;J ;J ;J ;J ;J ;J ;J ;J ;J ;J ;J ;J ;J ;J ;J ;J ;J ;J ;J ;J ;J ;J ;J ;J ;J ;J ;J ;J ;J ;J ;J ;J ;J ;J ;J ;J ;J ;J ;J ;J ;J ;J ;J ;J ;J ;J ;J ;J J J J J J J J J J J J J J J J J J J      G7 G7 G7 G7 G7 G7 G7 G7 G7 G7 G7 G7 G7 G7 G7 G7 G7 G7 G7 G7 G7 G7 G7 G7 G7 G7 G7 G7 G7 G7 G7 G7 G7 G7 G7 G7 G7 G7 G7 G7 G7 G7 G7 G7 G7 G7 G7 G7 G7 G7 G7 G7 G7 G7 G7 G7 G7 G7 G7 G7 G7 G7 G7 G7 G7 G7 G7 G7 G7 G7 G7 G7 G7 G7 G7 G7 G7 G7 G7 G7 G7 G7 G7 G7 G7 G7 G7 G7 G7 G7 G7 G7 G7 G7 G7 G7 G7 G7 G7 G7 G7 G7 G7 G7 G7 G7 G7 G7 G7 G7 G7 G7 G7 G7 G7 G7 G7 G7 G7 G7 G7 G7 G7 G7 G7 G7 G7 G7 G7 G7 G7 G7 G7 G7 G7 G7 G7 G7 G7 G7 G7 G7 G7 G7 G7 G7 G7 G7 G7 G7 G7 G7 G7 G7 G7 7 7 7 7 7 C7 C7 C7 C7 C7 C7 C7 C7 C7 C7 C7 C7 C7 C7 C7 C7 C7 C7 C7 C7 C7 C7 C7 C7 C7 C7 C7 C7 C7 C7 C7 C7 C7 C7 C7 C7 C7 C7 C7 C7 C7 C7 C7 C7 C7 C7 C7 C7 C7 C7 C7 C7 C7 C7 C7 C7 C7 C7 C7 C7 C7 C7 C7 C7 C7 C7 C7 C7 C7 C7 C7 C7 C7 C7 C7 C7 C7 C7 C7 C7 C7 C7 C7 C7 C7 C7 C7 C7 C7 C7 C7 C7 C7 C7 C7 C7 C7 C7 C7 C7 C7 C7 C7 C7 C7 C7 C7 C7 C7 C7 C7 C7 C7 C7 C7 C7 C7 C7 C7 C7 C7 C7 C7 C7 C7 C7 C7 C7 C7 C7 C7 C7 C7 C7 C7 C7 C7 C7 C7 C7 C7 C7 C7 C7 C7 C7 C7 C7 C7 C7 C7 C7 C7 C7 C7 7 7 7 7 7 J7 J7 J7 J7 J7 J7 J7 J7 J7 J7 J7 J7 J7 J7 J7 J7 J7 J7 J7 J7 J7 J7 J7 J7 J7 J7 J7 J7 J7 J7 J7 J7 J7 J7 J7 J7 J7 J7 J7 J7 J7 J7 J7 J7 J7 J7 J7 J7 J7 J7 J7 J7 J7 J7 J7 J7 J7 J7 J7 J7 J7 J7 J7 J7 J7 J7 J7 J7 J7 J7 J7 J7 J7 J7 J7 J7 J7 J7 J7 J7 J7 J7 J7 J7 J7 J7 J7 J7 J7 J7 J7 J7 J7 J7 J7 J7 J7 J7 J7 J7 J7 J7 J7 J7 J7 J7 J7 J7 J7 J7 J7 J7 J7 J7 J7 J7 J7 J7 J7 J7 J7 J7 J7 J7 J7 J7 J7 J7 J7 J7 J7 J7 J7 J7 J7 J7 J7 J7 J7 J7 J7 J7 J7 J7 J7 J7 J7 J7 J7 J7 J7 J7 J7 J7 J7      G G G G G G G G G G G G G G G G G G G G G G G G G G G G G G G G G G G G G G G G G G G G G G G G G G G G G G G G G G G G G G G G G G G G G G G G G G G G G G G G G G G G G G G G G G G G G G G G G G G G G G G G G G G G G G G G G G G G G G G G G G G G G G G G G G G G G G G G G G G G G G G G G                C C C C C C C C C C C C C C C C C C C C C C C C C C C C C C C C C C C C C C C C C C C C C C C C C C C C C C C C C C C C C C C C C C C C C C C C C C C C C C C C C C C C C C C C C C C C C C C C C C C C C C C C C C C C C C C C C C C C C C C C C C C C C C C C C C C C C C C C C C C C C C C C C                M M M M M M M M M M M M M M M M M M M M M M M M M M M M M M M M M M M M M M M M M M M M M M M M M M M M M M M M M M M M M M M M M M M M M M M M M M M M M M M M M M M M M M M M M M M M M M M M M M M M M M M M M M M M M M M M M M M M M M M M M M M M M M M M M M M M M M M M M M M M M M M M M                L0 L0 L0 L0 L0 L0 L0 L0 L0 L0 L0 L0 L0 L0 L0 L0 L0 L0 L0 L0 L0 L0 L0 L0 L0 L0 L0 L0 L0 L0 L0 L0 L0 L0 L0 L0 L0 L0 L0 L0 L0 L0 L0 L0 L0 L0 L0 L0 L0 L0 L0 L0 L0 L0 L0 L0 L0 L0 L0 L0 L0 L0 L0 L0 L0 L0 L0 L0 L0 L0 L0 L0 L0 L0 L0 L0 L0 L0 L0 L0 L0 L0 L0 L0 L0 L0 L0 L0 L0 L0 L0 L0 L0 L0 L0 L0 L0 L0 L0 L0 L0 L0 L0 L0 L0 L0 L0 L0 L0 L0 L0 L0 L0 L0 L0 L0 L0 L0 L0 L0 L0 L0 L0 L0 L0 L0 L0 L0 L0 L0 L0 L0 L0 L0 L0 L0 L0 L0 L0 L0 L0 L0 L0 L0 L0 L0 L0 L0 L0 L0 L0 L0 L0 L0 L0 0 0 0 0 0 H0 H0 H0 H0 H0 H0 H0 H0 H0 H0 H0 H0 H0 H0 H0 H0 H0 H0 H0 H0 H0 H0 H0 H0 H0 H0 H0 H0 H0 H0 H0 H0 H0 H0 H0 H0 H0 H0 H0 H0 H0 H0 H0 H0 H0 H0 H0 H0 H0 H0 H0 H0 H0 H0 H0 H0 H0 H0 H0 H0 H0 H0 H0 H0 H0 H0 H0 H0 H0 H0 H0 H0 H0 H0 H0 H0 H0 H0 H0 H0 H0 H0 H0 H0 H0 H0 H0 H0 H0 H0 H0 H0 H0 H0 H0 H0 H0 H0 H0 H0 H0 H0 H0 H0 H0 H0 H0 H0 H0 H0 H0 H0 H0 H0 H0 H0 H0 H0 H0 H0 H0 H0 H0 H0 H0 H0 H0 H0 H0 H0 H0 H0 H0 H0 H0 H0 H0 H0 H0 H0 H0 H0 H0 H0 H0 H0 H0 H0 H0 H0 H0 H0 H0 H0 H0 0 0 0 0 0 E0 E0 E0 E0 E0 E0 E0 E0 E0 E0 E0 E0 E0 E0 E0 E0 E0 E0 E0 E0 E0 E0 E0 E0 E0 E0 E0 E0 E0 E0 E0 E0 E0 E0 E0 E0 E0 E0 E0 E0 E0 E0 E0 E0 E0 E0 E0 E0 E0 E0 E0 E0 E0 E0 E0 E0 E0 E0 E0 E0 E0 E0 E0 E0 E0 E0 E0 E0 E0 E0 E0 E0 E0 E0 E0 E0 E0 E0 E0 E0 E0 E0 E0 E0 E0 E0 E0 E0 E0 E0 E0 E0 E0 E0 E0 E0 E0 E0 E0 E0 E0 E0 E0 E0 E0 E0 E0 E0 E0 E0 E0 E0 E0 E0 E0 E0 E0 E0 E0 E0 E0 E0 E0 E0 E0 E0 E0 E0 E0 E0 E0 E0 E0 E0 E0 E0 E0 E0 E0 E0 E0 E0 E0 E0 E0 E0 E0 E0 E0 E0 E0 E0 E0 E0 E0 0 0 0 0 0 Q0 Q0 Q0 Q0 Q0 Q0 Q0 Q0 Q0 Q0 Q0 Q0 Q0 Q0 Q0 Q0 Q0 Q0 Q0 Q0 Q0 Q0 Q0 Q0 Q0 Q0 Q0 Q0 Q0 Q0 Q0 Q0 Q0 Q0 Q0 Q0 Q0 Q0 Q0 Q0 Q0 Q0 Q0 Q0 Q0 Q0 Q0 Q0 Q0 Q0 Q0 Q0 Q0 Q0 Q0 Q0 Q0 Q0 Q0 Q0 Q0 Q0 Q0 Q0 Q0 Q0 Q0 Q0 Q0 Q0 Q0 Q0 Q0 Q0 Q0 Q0 Q0 Q0 Q0 Q0 Q0 Q0 Q0 Q0 Q0 Q0 Q0 Q0 Q0 Q0 Q0 Q0 Q0 Q0 Q0 Q0 Q0 Q0 Q0 Q0 Q0 Q0 Q0 Q0 Q0 Q0 Q0 Q0 Q0 Q0 Q0 Q0 Q0 Q0 Q0 Q0 Q0 Q0 Q0 Q0 Q0 Q0 Q0 Q0 Q0 Q0 Q0 Q0 Q0 Q0 Q0 Q0 Q0 Q0 Q0 Q0 Q0 Q0 Q0 Q0 Q0 Q0 Q0 Q0 Q0 Q0 Q0 Q0 Q0 Q0 Q0 Q0 Q0 Q0 Q0 0 0   L2 L2 L2 L2 L2 L2 L2 L2 L2 L2 L2 L2 L2 L2 L2 L2 L2 L2 L2 L2 L2 L2 L2 L2 L2 L2 L2 L2 L2 L2 L2 L2 L2 L2 L2 L2 L2 L2 L2 L2 L2 L2 L2 L2 L2 L2 L2 L2 L2 L2 L2 L2 L2 L2 L2 L2 L2 L2 L2 L2 L2 L2 L2 L2 L2 L2 L2 L2 L2 L2 L2 L2 L2 L2 L2 L2 L2 L2 L2 L2 L2 L2 L2 L2 L2 L2 L2 L2 L2 L2 L2 L2 L2 L2 L2 L2 L2 L2 L2 L2 L2 L2 L2 L2 L2 L2 L2 L2 L2 L2 L2 L2 L2 L2 L2 L2 L2 L2 L2 L2 L2 L2 L2 L2 L2 L2 L2 L2 L2 L2 L2 L2 L2 L2 L2 L2 L2 L2 L2 L2 L2 L2 L2 L2 L2 L2 L2 L2 L2 L2 L2 L2 L2 L2 L2 2 2   H4 H4 H4 H4 H4 H4 H4 H4 H4 H4 H4 H4 H4 H4 H4 H4 H4 H4 H4 H4 H4 H4 H4 H4 H4 H4 H4 H4 H4 H4 H4 H4 H4 H4 H4 H4 H4 H4 H4 H4 H4 H4 H4 H4 H4 H4 H4 H4 H4 H4 H4 H4 H4 H4 H4 H4 H4 H4 H4 H4 H4 H4 H4 H4 H4 H4 H4 H4 H4 H4 H4 H4 H4 H4 H4 H4 H4 H4 H4 H4 H4 H4 H4 H4 H4 H4 H4 H4 H4 H4 H4 H4 H4 H4 H4 H4 H4 H4 H4 H4 H4 H4 H4 H4 H4 H4 H4 H4 H4 H4 H4 H4 H4 H4 H4 H4 H4 H4 H4 H4 H4 H4 H4 H4 H4 H4 H4 H4 H4 H4 H4 H4 H4 H4 H4 H4 H4 H4 H4 H4 H4 H4 H4 H4 H4 H4 H4 H4 H4 H4 H4 H4 H4 H4 H4 4 4   E* E* E* E* E* E* E* E* E* E* E* E* E* E* E* E* E* E* E* E* E* E* E* E* E* E* E* E* E* E* E* E* E* E* E* E* E* E* E* E* E* E* E* E* E* E* E* E* E* E* E* E* E* E* E* E* E* E* E* E* E* E* E* E* E* E* E* E* E* E* E* E* E* E* E* E* E* E* E* E* E* E* E* E* E* E* E* E* E* E* E* E* E* E* E* E* E* E* E* E* E* E* E* E* E* E* E* E* E* E* E* E* E* E* E* E* E* E* E* E* E* E* E* E* E* E* E* E* E* E* E* E* E* E* E* E* E* E* E* E* E* E* E* E* E* * * * * * * * * * * * *   G+ G+ G+ G+ G+ G+ G+ G+ G+ G+ G+ G+ G+ G+ G+ G+ G+ G+ G+ G+ G+ G+ G+ G+ G+ G+ G+ G+ G+ G+ G+ G+ G+ G+ G+ G+ G+ G+ G+ G+ G+ G+ G+ G+ G+ G+ G+ G+ G+ G+ G+ G+ G+ G+ G+ G+ G+ G+ G+ G+ G+ G+ G+ G+ G+ G+ G+ G+ G+ G+ G+ G+ G+ G+ G+ G+ G+ G+ G+ G+ G+ G+ G+ G+ G+ G+ G+ G+ G+ G+ G+ G+ G+ G+ G+ G+ G+ G+ G+ G+ G+ G+ G+ G+ G+ G+ G+ G+ G+ G+ G+ G+ G+ G+ G+ G+ G+ G+ G+ G+ G+ G+ G+ G+ G+ G+ G+ G+ G+ G+ G+ G+ G+ G+ G+ G+ G+ G+ G+ G+ G+ G+ G+ G+ G+ + + + + + + + + + + + +   H- H- H- H- H- H- H- H- H- H- H- H- H- H- H- H- H- H- H- H- H- H- H- H- H- H- H- H- H- H- H- H- H- H- H- H- H- H- H- H- H- H- H- H- H- H- H- H- H- H- H- H- H- H- H- H- H- H- H- H- H- H- H- H- H- H- H- H- H- H- H- H- H- H- H- H- H- H- H- H- H- H- H- H- H- H- H- H- H- H- H- H- H- H- H- H- H- H- H- H- H- H- H- H- H- H- H- H- H- H- H- H- H- H- H- H- H- H- H- H- H- H- H- H- H- H- H- H- H- H- H- H- H- H- H- H- H- H- H- H- H- H- H- H- H- - - - - - - - - - - - -   /J /J /J /J /J /J /J /J /J /J /J /J /J /J /J /J /J /J /J /J /J /J /J /J /J /J /J /J /J /J /J /J /J /J /J /J /J /J /J /J /J /J /J /J /J /J /J /J /J /J /J /J /J /J /J /J /J /J /J /J /J /J /J /J /J /J /J /J /J /J /J /J /J /J /J /J /J /J J J J- J- J- J- J- J- J- J- J- J- J- J- J- J- J- J- J- J- J- J- J- J- J- J- J- J- J- J- J- J- J- J- J- J- J- J- J- J- J- J- J- J- J- J- J- J- J- J- J- J- J- J- J- J- J- J- J- J- J- J- J- J- J- J- J- J- J- J- J- J- J- J- J- J- J- - -   G/ G/ G/ G/ G/ G/ G/ G/ G/ G/ G/ G/ G/ G/ G/ G/ G/ G/ G/ G/ G/ G/ G/ G/ G/ G/ G/ G/ G/ G/ G/ G/ G/ G/ G/ G/ G/ G/ G/ G/ G/ G/ G/ G/ G/ G/ G/ G/ G/ G/ G/ G/ G/ G/ G/ G/ G/ G/ G/ G/ G/ G/ G/ G/ G/ G/ G/ G/ G/ G/ G/ G/ G/ G/ G/ G/ G/ G/ G/ G/ G/ G/ G/ G/ G/ G/ G/ G/ G/ G/ G/ G/ G/ G/ G/ G/ G/ G/ G/ G/ G/ G/ G/ G/ G/ G/ G/ G/ G/ G/ G/ G/ G/ G/ G/ G/ G/ G/ G/ G/ G/ G/ G/ G/ G/ G/ G/ G/ G/ G/ G/ G/ G/ G/ G/ G/ G/ G/ G/ G/ G/ G/ G/ G/ G/ G/ G/ G/ G/ G/ G/ G/ G/ G/ G/ / / / / / C/ C/ C/ C/ C/ C/ C/ C/ C/ C/ C/ C/ C/ C/ C/ C/ C/ C/ C/ C/ C/ C/ C/ C/ C/ C/ C/ C/ C/ C/ C/ C/ C/ C/ C/ C/ C/ C/ C/ C/ C/ C/ C/ C/ C/ C/ C/ C/ C/ C/ C/ C/ C/ C/ C/ C/ C/ C/ C/ C/ C/ C/ C/ C/ C/ C/ C/ C/ C/ C/ C/ C/ C/ C/ C/ C/ C/ C/ C/ C/ C/ C/ C/ C/ C/ C/ C/ C/ C/ C/ C/ C/ C/ C/ C/ C/ C/ C/ C/ C/ C/ C/ C/ C/ C/ C/ C/ C/ C/ C/ C/ C/ C/ C/ C/ C/ C/ C/ C/ C/ C/ C/ C/ C/ C/ C/ C/ C/ C/ C/ C/ C/ C/ C/ C/ C/ C/ C/ C/ C/ C/ C/ C/ C/ C/ C/ C/ C/ C/ C/ C/ C/ C/ C/ C/ / / / / / O/ O/ O/ O/ O/ O/ O/ O/ O/ O/ O/ O/ O/ O/ O/ O/ O/ O/ O/ O/ O/ O/ O/ O/ O/ O/ O/ O/ O/ O/ O/ O/ O/ O/ O/ O/ O/ O/ O/ O/ O/ O/ O/ O/ O/ O/ O/ O/ O/ O/ O/ O/ O/ O/ O/ O/ O/ O/ O/ O/ O/ O/ O/ O/ O/ O/ O/ O/ O/ O/ O/ O/ O/ O/ O/ O/ O/ O/ O/ O/ O/ O/ O/ O/ O/ O/ O/ O/ O/ O/ O/ O/ O/ O/ O/ O/ O/ O/ O/ O/ O/ O/ O/ O/ O/ O/ O/ O/ O/ O/ O/ O/ O/ O/ O/ O/ O/ O/ O/ O/ O/ O/ O/ O/ O/ O/ O/ O/ O/ O/ O/ O/ O/ O/ O/ O/ O/ O/ O/ O/ O/ O/ O/ O/ O/ O/ O/ O/ O/ O/ O/ O/ O/ O/ O/ / /   J0 J0 J0 J0 J0 J0 J0 J0 J0 J0 J0 J0 J0 J0 J0 J0 J0 J0 J0 J0 J0 J0 J0 J0 J0 J0 J0 J0 J0 J0 J0 J0 J0 J0 J0 J0 J0 J0 J0 J0 J0 J0 J0 J0 J0 J0 J0 J0 J0 J0 J0 J0 J0 J0 J0 J0 J0 J0 J0 J0 J0 J0 J0 J0 J0 J0 J0 J0 J0 J0 J0 J0 J0 J0 J0 J0 J0 J0 J0 J0 J0 J0 J0 J0 J0 J0 J0 J0 J0 J0 J0 J0 J0 J0 J0 J0 J0 J0 J0 J0 J0 J0 J0 J0 J0 J0 J0 J0 J0 J0 J0 J0 J0 J0 J0 J0 J0 J0 J0 J0 J0 J0 J0 J0 J0 J0 J0 J0 J0 J0 J0 J0 J0 J0 J0 J0 J0 J0 J0 J0 J0 J0 J0 J0 J0 J0 J0 J0 J0 J0 J0 J0 J0 J0 J0 0 0   G2 G2 G2 G2 G2 G2 G2 G2 G2 G2 G2 G2 G2 G2 G2 G2 G2 G2 G2 G2 G2 G2 G2 G2 G2 G2 G2 G2 G2 G2 G2 G2 G2 G2 G2 G2 G2 G2 G2 G2 G2 G2 G2 G2 G2 G2 G2 G2 G2 G2 G2 G2 G2 G2 G2 G2 G2 G2 G2 G2 G2 G2 G2 G2 G2 G2 G2 G2 G2 G2 G2 G2 G2 G2 G2 G2 G2 G2 G2 G2 G2 G2 G2 G2 G2 G2 G2 G2 G2 G2 G2 G2 G2 G2 G2 G2 G2 G2 G2 G2 G2 G2 G2 G2 G2 G2 G2 G2 G2 G2 G2 G2 G2 G2 G2 G2 G2 G2 G2 G2 G2 G2 G2 G2 G2 G2 G2 G2 G2 G2 G2 G2 G2 G2 G2 G2 G2 G2 G2 G2 G2 G2 G2 G2 G2 G2 G2 G2 G2 G2 G2 G2 G2 G2 G2 2 2   C( C( C( C( C( C( C( C( C( C( C( C( C( C( C( C( C( C( C( C( C( C( C( C( C( C( C( C( C( C( C( C( C( C( C( C( C( C( C( C( C( C( C( C( C( C( C( C( C( C( C( C( C( C( C( C( C( C( C( C( C( C( C( C( C( C( C( C( C( C( C( C( C( C( C( C( C( C( C( C( C( C( C( C( C( C( C( C( C( C( C( C( C( C( C( C( C( C( C( C( C( C( C( C( C( C( C( C( C( C( C( C( C( C( C( C( C( C( C( C( C( C( C( C( C( C( C( C( C( C( C( C( C( C( C( C( C( C( C( C( C( C( C( C( C( ( ( ( ( ( ( ( ( ( ( ( (   E* E* E* E* E* E* E* E* E* E* E* E* E* E* E* E* E* E* E* E* E* E* E* E* E* E* E* E* E* E* E* E* E* E* E* E* E* E* E* E* E* E* E* E* E* E* E* E* E* E* E* E* E* E* E* E* E* E* E* E* E* E* E* E* E* E* E* E* E* E* E* E* E* E* E* E* E* E* E* E* E* E* E* E* E* E* E* E* E* E* E* E* E* E* E* E* E* E* E* E* E* E* E* E* E* E* E* E* E* E* E* E* E* E* E* E* E* E* E* E* E* E* E* E* E* E* E* E* E* E* E* E* E* E* E* E* E* E* E* E* E* E* E* E* E* * * * * * * * * * * * *   G+ G+ G+ G+ G+ G+ G+ G+ G+ G+ G+ G+ G+ G+ G+ G+ G+ G+ G+ G+ G+ G+ G+ G+ G+ G+ G+ G+ G+ G+ G+ G+ G+ G+ G+ G+ G+ G+ G+ G+ G+ G+ G+ G+ G+ G+ G+ G+ G+ G+ G+ G+ G+ G+ G+ G+ G+ G+ G+ G+ G+ G+ G+ G+ G+ G+ G+ G+ G+ G+ G+ G+ G+ G+ G+ G+ G+ G+ G+ G+ G+ G+ G+ G+ G+ G+ G+ G+ G+ G+ G+ G+ G+ G+ G+ G+ G+ G+ G+ G+ G+ G+ G+ G+ G+ G+ G+ G+ G+ G+ G+ G+ G+ G+ G+ G+ G+ G+ G+ G+ G+ G+ G+ G+ G+ G+ G+ G+ G+ G+ G+ G+ G+ G+ G+ G+ G+ G+ G+ G+ G+ G+ G+ G+ G+ + + + + + + + + + + + +   J- J- J- J- J- J- J- J- J- J- J- J- J- J- J- J- J- J- J- J- J- J- J- J- J- J- J- J- J- J- J- J- J- J- J- J- J- J- J- J- J- J- J- J- J- J- J- J- J- J- J- J- J- J- J- J- J- J- J- J- J- J- J- J- J- J- J- J- J- J- JH- JH- JH- JH- JH- H- H- H- H- H- H- H- H- H- H- H- H- H- H- H- H- H- H- H- H- H- H- H- H- H- H- H- H- H- H- H- H- H- H- H- H- H- H- H- H- H- H- H- H- H- H- H- H- H- H- H- H- H- H- H- H- H- H- H- H- H- H- H- H- H- H- H- H- H-J H-J -J -J -J -J -J -J -J -J -J -J -J -J J J J0 J0 J0 J0 J0 J0 J0 J0 J0 J0 J0 J0 J0 J0 J0 J0 J0 J0 J0 J0 J0 J0 J0 J0 J0 J0 J0 J0 J0 J0 J0 J0 J0 J0 J0 J0 J0 J0 J0 J0 J0 J0 J0 J0 J0 J0 J0 J0 J0 J0 J0 J0 JH0 JH0 JH0 JH0 JH0 H0 H0 H0 H0 H0 H0 H0 H0 H0 H0 H0 H0 H0 H0 H0 H0 H0 H0 H0 H0 H0 H0 H0 H0 H0 H0 H0 H0 H0 H0 H0 H0 H0 H0 H0 H0 H0 H0 H0 H0 H0 H0 H0 H0 H0 H0 H0 H0 H0 H0 H0 H0 H0 H0 H0 H0 H0 H0 H0 H0 H0 H0 H0 H0 H0 H0 H0 H0 H0J H0J 0J 0J 0J 0J 0J 0J 0J 0J 0J 0J 0J 0J 0J 0J 0J 0J 0J 0J 0J 0J 0J 0J 0J 0J 0J 0J 0J 0J 0J 0J J J J4 J4 J4 J4 J4 J4 J4 J4 J4 J4 J4 J4 J4 J4 J4 J4 J4 J4 J4 J4 J4 J4 J4 J4 J4 J4 J4 J4 J4 J4 J4 J4 J4 J4 J4 JH4 JH4 JH4 JH4 JH4 H4 H4 H4 H4 H4 H4 H4 H4 H4 H4 H4 H4 H4 H4 H4 H4 H4 H4 H4 H4 H4 H4 H4 H4 H4 H4 H4 H4 H4 H4 H4 H4 H4 H4 H4 H4 H4 H4 H4 H4 H4 H4 H4 H4 H4 H4 H4 H4 H4 H4 H4 H4 H4 H4 H4 H4 H4 H4 H4 H4 H4 H4 H4 H4 H4 H4 H4 H4 H4J H4J 4J 4J 4J 4J 4J 4J 4J 4J 4J 4J 4J 4J 4J 4J 4J 4J 4J 4J 4J 4J 4J 4J 4J 4J 4J 4J 4J 4J 4J 4J 4J 4J 4J 4J 4J 4J 4J 4J 4J 4J 4J 4J 4J 4J 4J 4J 4J 4J J J J9 J9 J9 J9 J9 J9 J9 J9 J9 J9 J9 J9 J9 J9 J9 J9 J9 J9 J9 J9 JH9 JH9 H9 H9 H9 H9 H9 H9 H9 H9 H9 H9 H9 H9 H9 H9 H9 H9 H9 H9 H9 H9 H9 H9 H9 H9 H9 H9 H9 H9 H9 H9 H9 H9 H9 H9 H9 H9 H9 H9 H9 H9 H9 H9 H9 H9 H9 H9 H9 H9 H9 H9 H9 H9 H9 H9 H9 H9 H9 H9 H9 H9 H9 H9 H9 H9 H9 H9 H9 H9 H9J H9J H9J H9J H9J 9J 9J 9J 9J 9J 9J 9J 9J 9J 9J 9J 9J 9J 9J 9J 9J 9J 9J 9J 9J 9J 9J 9J 9J 9J 9J 9J 9J 9J 9J 9J 9J 9J 9J 9J 9J 9J 9J 9J 9J 9J 9J 9J 9J 9J 9J 9J 9J 9J 9J 9J 9J 9J 9J 9J 9J 9J 9J 9J 9J 9J 9J J J J4 J4 JH4 JH4 H4 H4 H4 H4 H4 H4 H4 H4 H4 H4 H4 H4 H4 H4 H4 H4 H4 H4 H4 H4 H4 H4 H4 H4 H4 H4 H4 H4 H4 H4 H4 H4 H4 H4 H4 H4 H4 H4 H4 H4 H4 H4 H4 H4 H4 H4 H4 H4 H4 H4 H4 H4 H4 H4 H4 H4 H4 H4 H4 H4 H4 H4 H4 H4 H4 H4 H4 H4 HJ4 HJ4 HJ4 HJ4 HJ4 J4 J4 J4 J4 J4 J4 J4 J4 J4 J4 J4 J4 J4 J4 J4 J4 J4 J4 J4 J4 J4 J4 J4 J4 J4 J4 J4 J4 J4 J4 J4 J4 J4 J4 J4 J4 J4 J4 J4 J4 J4 J4 J4 J4 J4 J4 J4 J4 J4 J4 J4 J4 J4 J4 J4 J4 J4 J4 J4 J4 J4 J4 J4 J4 J4 J4 J4 J4 J4H J4H 4H 4H 4H 4H 4H 4H 4H 4H 4H 4H H H H0 H0 H0 H0 H0 H0 H0 H0 H0 H0 H0 H0 H0 H0 H0 H0 H0 H0 H0 H0 H0 H0 H0 H0 H0 H0 H0 H0 H0 H0 H0 H0 H0 H0 H0 H0 H0 H0 H0 H0 H0 H0 H0 H0 H0 H0 H0 H0 H0 H0 H0 H0 H0 H0 H0 HJ0 HJ0 HJ0 HJ0 HJ0 J0 J0 J0 J0 J0 J0 J0 J0 J0 J0 J0 J0 J0 J0 J0 J0 J0 J0 J0 J0 J0 J0 J0 J0 J0 J0 J0 J0 J0 J0 J0 J0 J0 J0 J0 J0 J0 J0 J0 J0 J0 J0 J0 J0 J0 J0 J0 J0 J0 J0 J0 J0 J0 J0 J0 J0 J0 J0 J0 J0 J0 J0 J0 J0 J0 J0 J0 J0 J0H J0H 0H 0H 0H 0H 0H 0H 0H 0H 0H 0H 0H 0H 0H 0H 0H 0H 0H 0H 0H 0H 0H 0H 0H 0H 0H 0H 0H 0H H H H- H- H- H- H- H- H- H- H- H- H- H- H- H- H- H- H- H- H- H- H- H- H- H- H- H- H- H- H- H- H- H- H- H- H- H- H- H- H- H- HJ- HJ- J- J- J- J- J- J- J- J- J- J- J- J- J- J- J- J- J- J- J- J- J- J- J- J- J- J- J- J- J- J- J- J- J- J- J- J- J- J- J- J- J- J- J- J- J- J- J- J- J- J- J- J- J- J- J- J- J- J- J- J- J- J- J- J- J- J- J- J- J-H J-H J-H J-H J-H -H -H -H -H -H -H -H -H -H -H -H -H -H -H -H -H -H -H -H -H -H -H -H -H -H -H -H -H -H -H -H -H -H -H -H -H -H -H -H -H -H -H H H H/ H/ H/ H/ H/ H/ H/ H/ H/ H/ H/ H/ H/ H/ H/ H/ H/ H/ H/ H/ H/ H/ HJ/ HJ/ J/ J/ J/ J/ J/ J/ J/ J/ J/ J/ J/ J/ J/ J/ J/ J/ J/ J/ J/ J/ J/ J/ J/ J/ J/ J/ J/ J/ J/ J/ J/ J/ J/ J/ J/ J/ J/ J/ J/ J/ J/ J/ J/ J/ J/ J/ J/ J/ J/ J/ J/ J/ J/ J/ J/ J/ J/ J/ J/ J/ J/ J/ J/ J/ J/ J/ J/ J/ J/H J/H J/H J/H J/H /H /H /H /H /H /H /H /H /H /H /H /H /H /H /H /H /H /H /H /H /H /H /H /H /H /H /H /H /H /H /H /H /H /H /H /H /H /H /H /H /H /H /H /H /H /H /H /H /H /H /H /H /H /H /H /H /H /H /H /H H H H0 H0 H0 H0 H0 HJ0 HJ0 J0 J0 J0 J0 J0 J0 J0 J0 J0 J0 J0 J0 J0 J0 J0 J0 J0 J0 J0 J0 J0 J0 J0 J0 J0 J0 J0 J0 J0 J0 J0 J0 J0 J0 J0 J0 J0 J0 J0 J0 J0 J0 J0 J0 J0 J0 J0 J0 J0 J0 J0 J0 J0 J0 J0 J0 J0 J0 J0 J0 J0 J0 J0 J0 J0 J0 J0 J0 JH0 JH0 JH0 JH0 JH0 H0 H0 H0 H0 H0 H0 H0 H0 H0 H0 H0 H0 H0 H0 H0 H0 H0 H0 H0 H0 H0 H0 H0 H0 H0 H0 H0 H0 H0 H0 H0 H0 H0 H0 H0 H0 H0 H0 H0 H0 H0 H0 H0 H0 H0 H0 H0 H0 H0 H0 H0 H0 H0 H0 H0 H0 H0 H0 H0 H0 H0 H0 H0 H0 H0 H0 H0 H0 H0J H0J 0J 0J 0J 0J 0J 0J 0J 0J J J J2 J2 J2 J2 J2 J2 J2 J2 J2 J2 J2 J2 J2 J2 J2 J2 J2 J2 J2 J2 J2 J2 J2 J2 J2 J2 J2 J2 J2 J2 J2 J2 J2 J2 J2 J2 J2 J2 J2 J2 J2 J2 J2 J2 J2 J2 J2 J2 J2 J2 J2 J2 J2 J2 J2 J2 J2 J2 J2 J2 JH2 JH2 H2 H2 H2 H2 H2 H2 H2 H2 H2 H2 H2 H2 H2 H2 H2 H2 H2 H2 H2 H2 H2 H2 H2 H2 H2 H2 H2 H2 H2 H2 H2 H2 H2 H2 H2 H2 H2 H2 H2 H2 H2 H2 H2 H2 H2 H2 H2 H2 H2 H2 H2 H2 H2 H2 H2 H2 H2 H2 H2 H2 H2 H2 H2 H2 H2 H2 H2 H2 H2J H2J H2J H2J H2J 2J 2J 2J 2J 2J 2J 2J 2J 2J 2J 2J 2J 2J 2J 2J 2J 2J 2J 2J 2J 2J 2J J J J6 J6 J6 J6 J6 J6 J6 J6 J6 J6 J6 J6 J6 J6 J6 J6 J6 J6 J6 J6 J6 J6 J6 J6 J6 J6 J6 J6 J6 J6 J6 J6 J6 J6 J6 J6 J6 J6 J6 J6 J6 J6 JH6 JH6 H6 H6 H6 H6 H6 H6 H6 H6 H6 H6 H6 H6 H6 H6 H6 H6 H6 H6 H6 H6 H6 H6 H6 H6 H6 H6 H6 H6 H6 H6 H6 H6 H6 H6 H6 H6 H6 H6 H6 H6 H6 H6 H6 H6 H6 H6 H6 H6 H6 H6 H6 H6 H6 H6 H6 H6 H6 H6 H6 H6 H6 H6 H6 H6 H6 H6 H6 H6 H6J H6J H6J H6J H6J 6J 6J 6J 6J 6J 6J 6J 6J 6J 6J 6J 6J 6J 6J 6J 6J 6J 6J 6J 6J 6J 6J 6J 6J 6J 6J 6J 6J 6J 6J 6J 6J 6J 6J 6J 6J 6J 6J 6J 6J J J J9 J9 J9 J9 J9 J9 J9 J9 J9 J9 J9 J9 J9 J9 J9 J9 J9 J9 J9 J9 J9 J9 J9 J9 J9 JH9 JH9 H9 H9 H9 H9 H9 H9 H9 H9 H9 H9 H9 H9 H9 H9 H9 H9 H9 H9 H9 H9 H9 H9 H9 H9 H9 H9 H9 H9 H9 H9 H9 H9 H9 H9 H9 H9 H9 H9 H9 H9 H9 H9 H9 H9 H9 H9 H9 H9 H9 H9 H9 H9 H9 H9 H9 H9 H9 H9 H9 H9 H9 H9 H9 H9 H9 H9 H9 H9 H9J H9J H9J H9J H9J 9J 9J 9J 9J 9J 9J 9J 9J 9J 9J 9J 9J 9J 9J 9J 9J 9J 9J 9J 9J 9J 9J 9J 9J 9J 9J 9J 9J 9J 9J 9J 9J 9J 9J 9J 9J 9J 9J 9J 9J 9J 9J 9J 9J 9J 9J 9J 9J 9J 9J 9J 9J 9J 9J 9J 9J 9J 9J J J J> J> J> J> J> J> J> J> JH> JH> H> H> H> H> H> H> H> H> H> H> H> H> H> H> H> H> H> H> H> H> H> H> H> H> H> H> H> H> H> H> H> H> H> H> H> H> H> H> H> H> H> H> H> H> H> H> H> H> H> H> H> H> H> H> H> H> H> H> H> H> H> H> H> H> H> H> H> H> H> H> HJ> HJ> J> J> J> J> J> J> J> J> J> J> J> J> J> J> J> J> J> J> J> J> J> J> J> J> J> J> J> J> J> J> J> J> J> J> J> J> J> J> J> J> J> J> J> J> J> J> J> J> J> J> J> J> J> J> J> J> J> J> J> J> J> J> J> J> J> J> J> J> J>H J>H J>H J>H J>H >H >H H H H9 H9 H9 H9 H9 H9 H9 H9 H9 H9 H9 H9 H9 H9 H9 H9 H9 H9 H9 H9 H9 H9 H9 H9 H9 H9 H9 H9 H9 H9 H9 H9 H9 H9 H9 H9 H9 H9 H9 H9 H9 H9 H9 H9 H9 H9 H9 H9 H9 H9 H9 H9 H9 H9 H9 H9 H9 H9 H9 H9 H9 H9 HJ9 HJ9 J9 J9 J9 J9 J9 J9 J9 J9 J9 J9 J9 J9 J9 J9 J9 J9 J9 J9 J9 J9 J9 J9 J9 J9 J9 J9 J9 J9 J9 J9 J9 J9 J9 J9 J9 J9 J9 J9 J9 J9 J9 J9 J9 J9 J9 J9 J9 J9 J9 J9 J9 J9 J9 J9 J9 J9 J9 J9 J9 J9 J9 J9 J9 J9 J9 J9 J9 J9 J9H J9H J9H J9H J9H 9H 9H 9H 9H 9H 9H 9H 9H 9H 9H 9H 9H 9H 9H 9H 9H 9H 9H 9H 9H H H H6 H6 H6 H6 H6 H6 H6 H6 H6 H6 H6 H6 H6 H6 H6 H6 H6 H6 H6 H6 H6 H6 H6 H6 H6 H6 H6 H6 H6 H6 H6 H6 H6 H6 H6 H6 H6 H6 H6 H6 H6 H6 H6 H6 H6 HJ6 HJ6 J6 J6 J6 J6 J6 J6 J6 J6 J6 J6 J6 J6 J6 J6 J6 J6 J6 J6 J6 J6 J6 J6 J6 J6 J6 J6 J6 J6 J6 J6 J6 J6 J6 J6 J6 J6 J6 J6 J6 J6 J6 J6 J6 J6 J6 J6 J6 J6 J6 J6 J6 J6 J6 J6 J6 J6 J6 J6 J6 J6 J6 J6 J6 J6 J6 J6 J6 J6 J6H J6H J6H J6H J6H 6H 6H 6H 6H 6H 6H 6H 6H 6H 6H 6H 6H 6H 6H 6H 6H 6H 6H 6H 6H 6H 6H 6H 6H 6H 6H 6H 6H 6H 6H 6H 6H 6H 6H 6H 6H 6H 6H H H H2 H2 H2 H2 H2 H2 H2 H2 H2 H2 H2 H2 H2 H2 H2 H2 H2 H2 H2 H2 H2 H2 H2 H2 H2 H2 H2 H2 HJ2 HJ2 J2 J2 J2 J2 J2 J2 J2 J2 J2 J2 J2 J2 J2 J2 J2 J2 J2 J2 J2 J2 J2 J2 J2 J2 J2 J2 J2 J2 J2 J2 J2 J2 J2 J2 J2 J2 J2 J2 J2 J2 J2 J2 J2 J2 J2 J2 J2 J2 J2 J2 J2 J2 J2 J2 J2 J2 J2 J2 J2 J2 J2 J2 J2 J2 J2 J2 J2 J2 J2 J2 J2H J2H 2H 2H 2H 2H 2H 2H 2H 2H 2H 2H 2H 2H 2H 2H 2H 2H 2H 2H 2H 2H 2H 2H 2H 2H 2H 2H 2H 2H 2H 2H 2H 2H 2H 2H 2H 2H 2H 2H 2H 2H 2H 2H 2H 2H 2H 2H 2H 2H 2H 2H 2H 2H 2H 2H 2H H H H4 H4 H4 H4 H4 H4 H4 H4 H4 H4 H4 H4 HJ4 HJ4 J4 J4 J4 J4 J4 J4 J4 J4 J4 J4 J4 J4 J4 J4 J4 J4 J4 J4 J4 J4 J4 J4 J4 J4 J4 J4 J4 J4 J4 J4 J4 J4 J4 J4 J4 J4 J4 J4 J4 J4 J4 J4 J4 J4 J4 J4 J4 J4 J4 J4 J4 J4 J4 J4 J4 J4 J4 J4 J4 J4 J4 J4 J4 J4 J4 J4 J4 J4 JH4 JH4 JH4 JH4 JH4 H4 H4 H4 H4 H4 H4 H4 H4 H4 H4 H4 H4 H4 H4 H4 H4 H4 H4 H4 H4 H4 H4 H4 H4 H4 H4 H4 H4 H4 H4 H4 H4 H4 H4 H4 H4 H4 H4 H4 H4 H4 H4 H4 H4 H4 H4 H4 H4 H4 H4 H4 H4 H4 H4 H4 H4 H4 H4 H4 H4 H4 H4 H4 H4 H4 H4 H4 H4 H4J H4J J J J6 J6 J6 J6 J6 J6 J6 J6 J6 J6 J6 J6 J6 J6 J6 J6 J6 J6 J6 J6 J6 J6 J6 J6 J6 J6 J6 J6 J6 J6 J6 J6 J6 J6 J6 J6 J6 J6 J6 J6 J6 J6 J6 J6 J6 J6 J6 J6 J6 J6 J6 J6 J6 J6 J6 J6 J6 J6 J6 J6 J6 J6 J6 J6 J6 J6 J6 J6 J6 J6 6 6 6 6 H6 H6 H6 H6 H6 H6 H6 H6 H6 H6 H6 H6 H6 H6 H6 H6 H6 H6 H6 H6 H6 H6 H6 H6 H6 H6 H6 H6 H6 H6 H6 H6 H6 H6 H6 H6 H6 H6 H6 H6 H6 H6 H6 H6 H6 H6 H6 H6 H6 H6 H6 H6 H6 H6 H6 H6 H6 H6 H6 H6 H6 H6 H6 H6 H6 H6 H6 H6 H6 H6 H6 H6 H6 H6 H6 H6 H6 H6 H6 H6 H6 H6G 6G G G G7 G7 G7 G7 G7 G7 G7 G7 G7 G7 G7 G7 G7 G7 G7 G7 G7 G7 G7 G7 G7 G7 G7 G7 G7 G7 G7 G7 G7 G7 G7 G7 G7 G7 G7 G7 G7 G7 G7 G7 G7 G7 G7 G7 G7 G7 G7 G7 G7 G7 G7 G7 G7 G7 G7 G7 G7 G7 G7 G7 G7 G7 G7 G7 G7 G7 G7 G7 G7 G7 7 7 H7 H7 H7 H7 H7 H7 H7 H7 H7 H7 H7 H7 H7 H7 H7 H7 H7 H7 H7 H7 H7 H7 H7 H7 H7 H7 H7 H7 H7 H7 H7 H7 H7 H7 H7 H7 H7 H7 H7 H7 H7 H7 H7 H7 H7 H7 H7 H7 H7 H7 H7 H7 H7 H7 H7 H7 H7 H7 H7 H7 H7 H7 H7 H7 H7 H7 H7 H7 H7 H7 H7G H7G H7G H7G H7G 7G 7G 7G 7G 7G 7G 7G 7G 7G 7G G G G; G; G; G; G; G; G; G; G; G; G; G; G; G; G; G; G; G; G; G; G; G; G; G; G; G; G; G; G; G; G; G; G; G; G; G; G; G; G; G; G; G; G; G; G; G; G; G; G; G; G; G; G; G; G; GH; GH; H; H; H; H; H; H; H; H; H; H; H; H; H; H; H; H; H; H; H; H; H; H; H; H; H; H; H; H; H; H; H; H; H; H; H; H; H; H; H; H; H; H; H; H; H; H; H; H; H; H; H; H; H; H; H; H; H; H; H; H; H; H; H; H; H; H; H; H; H;G H;G H;G H;G H;G ;G ;G ;G ;G ;G ;G ;G ;G ;G ;G ;G ;G ;G ;G ;G ;G ;G ;G ;G ;G ;G ;G ;G ;G ;G ;G ;G ;G G G G> G> G> G> G> G> G> G> G> G> G> G> G> G> G> G> G> G> G> G> G> G> G> G> G> G> G> G> G> G> G> G> G> G> G> G> G> G> GH> GH> H> H> H> H> H> H> H> H> H> H> H> H> H> H> H> H> H> H> H> H> H> H> H> H> H> H> H> H> H> H> H> H> H> H> H> H> H> H> H> H> H> H> H> H> H> H> H> H> H> H> H> H> H> H> H> H> H> H> H> H> H> H> H> H> H> H> H> H> H> H> H>G H>G >G >G >G >G >G >G >G >G >G >G >G >G >G >G >G >G >G >G >G >G >G >G >G >G >G >G >G >G >G >G >G >G >G >G >G >G >G >G >G >G >G >G >G >G >G G G GC GC GC GC GC GC GC GC GC GC GC GC GC GC GC GC GC GC GC GC GHC GHC GHC GHC GHC HC HC HC HC HC HC HC HC HC HC HC HC HC HC HC HC HC HC HC HC HC HC HC HC HC HC HC HC HC HC HC HC HC HC HC HC HC HC HC HC HC HC HC HC HC HC HC HC HC HC HC HC HC HC HC HC HC HC HC HC HC HC HC HC HC HC HC HC HCG HCG CG CG CG CG CG CG CG CG CG CG CG CG CG CG CG CG CG CG CG CG CG CG CG CG CG CG CG CG CG CG CG CG CG CG CG CG CG CG CG CG CG CG CG CG CG CG CG CG CG CG CG CG CG CG CG CG CG CG CG CG CG CG G G G> G> GH> GH> GH> GH> GH> H> H> H> H> H> H> H> H> H> H> H> H> H> H> H> H> H> H> H> H> H> H> H> H> H> H> H> H> H> H> H> H> H> H> H> H> H> H> H> H> H> H> H> H> H> H> H> H> H> H> H> H> H> H> H> H> H> H> H> H> H> H> H> H> H> H> H> H> HG> HG> G> G> G> G> G> G> G> G> G> G> G> G> G> G> G> G> G> G> G> G> G> G> G> G> G> G> G> G> G> G> G> G> G> G> G> G> G> G> G> G> G> G> G> G> G> G> G> G> G> G> G> G> G> G> G> G> G> G> G> G> G> G> G> G> G> G> G> G> G>H G>H G>H G>H G>H >H >H >H >H >H >H >H >H H H H; H; H; H; H; H; H; H; H; H; H; H; H; H; H; H; H; H; H; H; H; H; H; H; H; H; H; H; H; H; H; H; H; H; H; H; H; H; H; H; H; H; H; H; H; H; H; H; H; H; H; H; H; H; H; H; H; H; HG; HG; G; G; G; G; G; G; G; G; G; G; G; G; G; G; G; G; G; G; G; G; G; G; G; G; G; G; G; G; G; G; G; G; G; G; G; G; G; G; G; G; G; G; G; G; G; G; G; G; G; G; G; G; G; G; G; G; G; G; G; G; G; G; G; G; G; G; G; G; G; G; G;H G;H ;H ;H ;H ;H ;H ;H ;H ;H ;H ;H ;H ;H ;H ;H ;H ;H ;H ;H ;H ;H ;H ;H ;H ;H ;H H H H7 H7 H7 H7 H7 H7 H7 H7 H7 H7 H7 H7 H7 H7 H7 H7 H7 H7 H7 H7 H7 H7 H7 H7 H7 H7 H7 H7 H7 H7 H7 H7 H7 H7 H7 H7 H7 H7 H7 H7 HG7 HG7 HG7 HG7 HG7 G7 G7 G7 G7 G7 G7 G7 G7 G7 G7 G7 G7 G7 G7 G7 G7 G7 G7 G7 G7 G7 G7 G7 G7 G7 G7 G7 G7 G7 G7 G7 G7 G7 G7 G7 G7 G7 G7 G7 G7 G7 G7 G7 G7 G7 G7 G7 G7 G7 G7 G7 G7 G7 G7 G7 G7 G7 G7 G7 G7 G7 G7 G7 G7 G7 G7 G7 G7 G7H G7H 7H 7H 7H 7H 7H 7H 7H 7H 7H 7H 7H 7H 7H 7H 7H 7H 7H 7H 7H 7H 7H 7H 7H 7H 7H 7H 7H 7H 7H 7H 7H 7H 7H 7H 7H 7H 7H 7H 7H 7H 7H 7H H H H9 H9 H9 H9 H9 H9 H9 H9 H9 H9 H9 H9 H9 H9 H9 H9 H9 H9 H9 H9 H9 H9 HG9 HG9 HG9 HG9 HG9 G9 G9 G9 G9 G9 G9 G9 G9 G9 G9 G9 G9 G9 G9 G9 G9 G9 G9 G9 G9 G9 G9 G9 G9 G9 G9 G9 G9 G9 G9 G9 G9 G9 G9 G9 G9 G9 G9 G9 G9 G9 G9 G9 G9 G9 G9 G9 G9 G9 G9 G9 G9 G9 G9 G9 G9 G9 G9 G9 G9 G9 G9 G9 G9 G9 G9 G9 G9 G9H G9H 9H 9H 9H 9H 9H 9H 9H 9H 9H 9H 9H 9H 9H 9H 9H 9H 9H 9H 9H 9H 9H 9H 9H 9H 9H 9H 9H 9H 9H 9H 9H 9H 9H 9H 9H 9H 9H 9H 9H 9H 9H 9H 9H 9H 9H 9H 9H 9H 9H 9H 9H 9H 9H 9H 9H 9H 9H 9H 9H 9H H H H; H; H; H; H; HG; HG; HG; HG; HG; G; G; G; G; G; G; G; G; G; G; G; G; G; G; G; G; G; G; G; G; G; G; G; G; G; G; G; G; G; G; G; G; G; G; G; G; G; G; G; G; G; G; G; G; G; G; G; G; G; G; G; G; G; G; G; G; G; G; G; G; G; G; G; G; G; G; G; G; GH; GH; H; H; H; H; H; H; H; H; H; H; H; H; H; H; H; H; H; H; H; H; H; H; H; H; H; H; H; H; H; H; H; H; H; H; H; H; H; H; H; H; H; H; H; H; H; H; H; H; H; H; H; H; H; H; H; H; H; H; H; H; H; H; H; H; H; H; H; H; H; H; H;G H;G ;G ;G ;G ;G ;G G G G4 G4 G4 G4 G4 G4 G4 G4 G4 G4 G4 G4 G4 G4 G4 G4 G4 G4 G4 G4 G4 G4 G4 G4 G4 G4 G4 G4 G4 G4 G4 G4 G4 G4 G4 G4 G4 G4 G4 G4 G4 G4 G4 G4 G4 G4 G4 G4 G4 G4 G4 G4 G4 G4 G4 G4 G4 G4 G4 G4 GH4 GH4 GH4 GH4 GH4 H4 H4 H4 H4 H4 H4 H4 H4 H4 H4 H4 H4 H4 H4 H4 H4 H4 H4 H4 H4 H4 H4 H4 H4 H4 H4 H4 H4 H4 H4 H4 H4 H4 H4 H4 H4 H4 H4 H4 H4 H4 H4 H4 H4 H4 H4 H4 H4 H4 H4 H4 H4 H4 H4 H4 H4 H4 H4 H4 H4 H4 H4 H4 H4 H4 H4 H4 H4 H4G H4G 4G 4G 4G 4G 4G 4G 4G 4G 4G 4G 4G 4G 4G 4G 4G 4G 4G 4G 4G 4G 4G 4G G G G7 G7 G7 G7 G7 G7 G7 G7 G7 G7 G7 G7 G7 G7 G7 G7 G7 G7 G7 G7 G7 G7 G7 G7 G7 G7 G7 G7 G7 G7 G7 G7 G7 G7 G7 G7 G7 G7 G7 G7 G7 G7 GH7 GH7 GH7 GH7 GH7 H7 H7 H7 H7 H7 H7 H7 H7 H7 H7 H7 H7 H7 H7 H7 H7 H7 H7 H7 H7 H7 H7 H7 H7 H7 H7 H7 H7 H7 H7 H7 H7 H7 H7 H7 H7 H7 H7 H7 H7 H7 H7 H7 H7 H7 H7 H7 H7 H7 H7 H7 H7 H7 H7 H7 H7 H7 H7 H7 H7 H7 H7 H7 H7 H7 H7 H7 H7 H7G H7G 7G 7G 7G 7G 7G 7G 7G 7G 7G 7G 7G 7G 7G 7G 7G 7G 7G 7G 7G 7G 7G 7G 7G 7G 7G 7G 7G 7G 7G 7G 7G 7G 7G 7G 7G 7G 7G 7G 7G 7G G G G; G; G; G; G; G; G; G; G; G; G; G; G; G; G; G; G; G; G; G; G; G; G; G; G; GH; GH; GH; GH; GH; H; H; H; H; H; H; H; H; H; H; H; H; H; H; H; H; H; H; H; H; H; H; H; H; H; H; H; H; H; H; H; H; H; H; H; H; H; H; H; H; H; H; H; H; H; H; H; H; H; H; H; H; H; H; H; H; H; H; H; H; H; H; H; H; H; H; H; H; H;G H;G ;G ;G ;G ;G ;G ;G ;G ;G ;G ;G ;G ;G ;G ;G ;G ;G ;G ;G ;G ;G ;G ;G ;G ;G ;G ;G ;G ;G ;G ;G ;G ;G ;G ;G ;G ;G ;G ;G ;G ;G ;G ;G ;G ;G ;G ;G ;G ;G ;G ;G ;G ;G ;G ;G ;G ;G ;G ;G G G G@ G@ G@ G@ G@ G@ G@ G@ G@ G@ GH@ GH@ H@ H@ H@ H@ H@ H@ H@ H@ H@ H@ H@ H@ H@ H@ H@ H@ H@ H@ H@ H@ H@ H@ H@ H@ H@ H@ H@ H@ H@ H@ H@ H@ H@ H@ H@ H@ H@ H@ H@ H@ H@ H@ H@ H@ H@ H@ H@ H@ H@ H@ H@ H@ H@ H@ H@ H@ H@ H@ H@ H@ H@ H@ H@ H@ H@ H@ H@ H@ HG@ HG@ HG@ HG@ HG@ G@ G@ G@ G@ G@ G@ G@ G@ G@ G@ G@ G@ G@ G@ G@ G@ G@ G@ G@ G@ G@ G@ G@ G@ G@ G@ G@ G@ G@ G@ G@ G@ G@ G@ G@ G@ G@ G@ G@ G@ G@ G@ G@ G@ G@ G@ G@ G@ G@ G@ G@ G@ G@ G@ G@ G@ G@ G@ G@ G@ G@ G@ G@ G@ G@ G@ G@ G@ G@H G@H @H @H H H H; H; H; H; H; H; H; H; H; H; H; H; H; H; H; H; H; H; H; H; H; H; H; H; H; H; H; H; H; H; H; H; H; H; H; H; H; H; H; H; H; H; H; H; H; H; H; H; H; H; H; H; H; H; H; H; H; H; H; H; H; H; HG; HG; HG; HG; HG; G; G; G; G; G; G; G; G; G; G; G; G; G; G; G; G; G; G; G; G; G; G; G; G; G; G; G; G; G; G; G; G; G; G; G; G; G; G; G; G; G; G; G; G; G; G; G; G; G; G; G; G; G; G; G; G; G; G; G; G; G; G; G; G; G; G; G; G; G;H G;H ;H ;H ;H ;H ;H ;H ;H ;H ;H ;H ;H ;H ;H ;H ;H ;H ;H ;H ;H ;H H H H7 H7 H7 H7 H7 H7 H7 H7 H7 H7 H7 H7 H7 H7 H7 H7 H7 H7 H7 H7 H7 H7 H7 H7 H7 H7 H7 H7 H7 H7 H7 H7 H7 H7 H7 H7 H7 H7 H7 H7 H7 H7 H7 H7 H7 HG7 HG7 HG7 HG7 HG7 G7 G7 G7 G7 G7 G7 G7 G7 G7 G7 G7 G7 G7 G7 G7 G7 G7 G7 G7 G7 G7 G7 G7 G7 G7 G7 G7 G7 G7 G7 G7 G7 G7 G7 G7 G7 G7 G7 G7 G7 G7 G7 G7 G7 G7 G7 G7 G7 G7 G7 G7 G7 G7 G7 G7 G7 G7 G7 G7 G7 G7 G7 G7 G7 G7 G7 G7 G7 G7H G7H 7H 7H 7H 7H 7H 7H 7H 7H 7H 7H 7H 7H 7H 7H 7H 7H 7H 7H 7H 7H 7H 7H 7H 7H 7H 7H 7H 7H 7H 7H 7H 7H 7H 7H 7H 7H 7H 7H H H H4 H4 H4 H4 H4 H4 H4 H4 H4 H4 H4 H4 H4 H4 H4 H4 H4 H4 H4 H4 H4 H4 H4 H4 H4 H4 H4 H4 H4 H4 HG4 HG4 G4 G4 G4 G4 G4 G4 G4 G4 G4 G4 G4 G4 G4 G4 G4 G4 G4 G4 G4 G4 G4 G4 G4 G4 G4 G4 G4 G4 G4 G4 G4 G4 G4 G4 G4 G4 G4 G4 G4 G4 G4 G4 G4 G4 G4 G4 G4 G4 G4 G4 G4 G4 G4 G4 G4 G4 G4 G4 G4 G4 G4 G4 G4 G4 G4 G4 G4 G4 G4 G4 G4H G4H 4H 4H 4H 4H 4H 4H 4H 4H 4H 4H 4H 4H 4H 4H 4H 4H 4H 4H 4H 4H 4H 4H 4H 4H 4H 4H 4H 4H 4H 4H 4H 4H 4H 4H 4H 4H 4H 4H 4H 4H 4H 4H 4H 4H 4H 4H 4H 4H 4H 4H 4H 4H H H H6 H6 H6 H6 H6 H6 H6 H6 H6 H6 H6 H6 H6G H6G H6G H6G H6G 6G 6G 6G 6G 6G 6G 6G 6G 6G 6G 6G 6G 6G 6G 6G 6G 6G 6G 6G 6G 6G 6G 6G 6G 6G 6G 6G 6G 6G 6G 6G 6G 6G 6G 6G 6G 6G 6G 6G 6G 6G 6G 6G 6G 6G 6G 6G 6G 6G 6G 6G 6G 6G 6G 6G 6G 6G 6G 6G 6G 6G 6G 6G 6G 6G 6G 6G 6G 6G 6G 6G 6G 6G 6G 6G 6G 6G 6G 6G 6G 6G 6G 6G 6G 6G 6G 6G 6G 6G 6G 6G 6G 6G 6G 6G 6G 6G 6G 6G 6G 6G 6G 6G 6G 6G 6G 6G 6G 6G 6G 6G 6G 6G 6G 6G 6G 6G 6G 6G 6G 6G 6G 6G 6G 6G 6G 6G 6G 6G 6G 6G 6G 6G 6G 6G 6G 6G 6G 6G 6G G G G7 G7 G7 G7 G7 G7 G7 G7 G7 G7 G7 G7 G7 G7 G7 G7 G7 G7 G7 G7 G7 G7 G7 G7 G7 G7 G7 G7 G7 G7 G7 G7 G7 G7 G7 G7 G7 G7 G7 G7 G7 G7 G7 G7 G7 G7 G7 G7 G7 G7 G7 G7 G7 G7 G7 G7 G7 G7 G7 G7 G7 G7 G7 G7 G7 G7 G7 G7 G7 G7 G7 G7 G7 G7 G7 G7 G7 G7 G7 G7 G7 G7 G7 G7 G7 G7 G7 G7 G7 G7 G7 G7 G7 G7 G7 G7 G7 G7 G7 G7 G7 G7 G7 G7 G7 G7 G7 G7 G7 G7 G7 G7 G7 G7 G7 G7 G7 G7 G7 G7 G7 G7 G7 G7 G7 G7 G7 G7 G7 G7 G7 G7 G7 G7 G7 G7 G7 G7 G7 G7 G7 G7 G7 G7 G7 G7 G7 G7 G7 G7 G7 G7 7 7 7 7 7   2 2 2 2 2 2 2 2 2 2 2 2 2 2 2 2 2 2 2 2 2 2 2 2 2 2 2 2 2 2 2 2 2 2 2 2 2 2 2 2 2 2 2 2 2 2 2 2 2 2 2 2 2 2 2 2 2 2 2 2 2 2 2 2 2 2 2 2 2 2 2 2 2 2 2 2 2 2   0 0 0 0 0 0 0 0 0 0 0 0 0 0 0 0 0 0 0 0 0 0 0 0 0 0 0 0 0 0 0 0 0 0 0 0 0 0 0 0 0 0 0 0 0 0 0 0 0 0 0 0 0 0 0 0 0 0 0 0 0 0 0 0 0 0 0 0 0 0 0 0 0 0 0 0 0 0   2L 2L 2L 2L 2L 2L 2L 2L 2L 2L 2L 2L 2L 2L 2L 2L 2L 2L 2L 2L 2L 2L 2L 2L 2L 2L 2L 2L 2L 2L 2L 2L 2L 2L 2L 2L 2L 2L 2L 2L 2L 2L 2L 2L 2L 2L 2L 2L 2L 2L 2L 2L 2L 2L 2L 2L 2L 2L 2L 2L 2L 2L 2L 2L 2L 2L 2L 2L 2L 2L 2L 2L 2L 2L 2L 2L 2L 2L L L L0 L0 L0 L0 L0 L0 L0 L0 L0 L0 L0 L0 L0 L0 L0 L0 L0 L0 L0 L0 L0 L0 L0 L0 L0 L0 L0 L0 L0 L0 L0 L0 L0 L0 L0 L0 L0 L0 L0 L0 L0 L0 L0 L0 L0 L0 L0 L0 L0 L0 L0 L0 L0 L0 L0 L0 L0 L0 L0 L0 L0 L0 L0 L0 L0 L0 L0 L0 L0 L0 L0 L0 L0 L0 L0 0 0   2J 2J 2J 2J 2J 2J 2J 2J 2J 2J 2J 2J 2J 2J 2J 2J 2J 2J 2J 2J 2J 2J 2J 2J 2J 2J 2J 2J 2J 2J 2J 2J 2J 2J 2J 2J 2J 2J 2J 2J 2J 2J 2J 2J 2J 2J 2J 2J 2J 2J 2J 2J 2J 2J 2J 2J 2J 2J 2J 2J 2J 2J 2J 2J 2J 2J 2J 2J 2J 2J 2J 2J 2J 2J 2J 2J 2J 2J J J J0 J0 J0 J0 J0 J0 J0 J0 J0 J0 J0 J0 J0 J0 J0 J0 J0 J0 J0 J0 J0 J0 J0 J0 J0 J0 J0 J0 J0 J0 J0 J0 J0 J0 J0 J0 J0 J0 J0 J0 J0 J0 J0 J0 J0 J0 J0 J0 J0 J0 J0 J0 J0 J0 J0 J0 J0 J0 J0 J0 J0 J0 J0 J0 J0 J0 J0 J0 J0 J0 J0 J0 J0 J0 J0 0 0   2H 2H 2H 2H 2H 2H 2H 2H 2H 2H 2H 2H 2H 2H 2H 2H 2H 2H 2H 2H 2H 2H 2H 2H 2H 2H 2H 2H 2H 2H 2H 2H 2H 2H 2H 2H 2H 2H 2H 2H 2H 2H 2H 2H 2H 2H 2H 2H 2H 2H 2H 2H 2H 2H 2H 2H 2H 2H 2H 2H 2H 2H 2H 2H 2H 2H 2H 2H 2H 2H 2H 2H 2H 2H 2H 2H 2H 2H H H H0 H0 H0 H0 H0 H0 H0 H0 H0 H0 H0 H0 H0 H0 H0 H0 H0 H0 H0 H0 H0 H0 H0 H0 H0 H0 H0 H0 H0 H0 H0 H0 H0 H0 H0 H0 H0 H0 H0 H0 H0 H0 H0 H0 H0 H0 H0 H0 H0 H0 H0 H0 H0 H0 H0 H0 H0 H0 H0 H0 H0 H0 H0 H0 H0 H0 H0 H0 H0 H0 H0 H0 H0 H0 H0 0 0   2J 2J 2J 2J 2J 2J 2J 2J 2J 2J 2J 2J 2J 2J 2J 2J 2J 2J 2J 2J 2J 2J 2J 2J 2J 2J 2J 2J 2J 2J 2J 2J 2J 2J 2J 2J 2J 2J 2J 2J 2J 2J 2J 2J 2J 2J 2J 2J 2J 2J 2J 2J 2J 2J 2J 2J 2J 2J 2J 2J 2J 2J 2J 2J 2J 2J 2J 2J 2J 2J 2J 2J 2J 2J 2J 2J 2J 2J J J J0 J0 J0 J0 J0 J0 J0 J0 J0 J0 J0 J0 J0 J0 J0 J0 J0 J0 J0 J0 J0 J0 J0 J0 J0 J0 J0 J0 J0 J0 J0 J0 J0 J0 J0 J0 J0 J0 J0 J0 J0 J0 J0 J0 J0 J0 J0 J0 J0 J0 J0 J0 J0 J0 J0 J0 J0 J0 J0 J0 J0 J0 J0 J0 J0 J0 J0 J0 J0 J0 J0 J0 J0 J0 J0 0 0   2G 2G 2G 2G 2G 2G 2G 2G 2G 2G 2G 2G 2G 2G 2G 2G 2G 2G 2G 2G 2G 2G 2G 2G 2G 2G 2G 2G 2G 2G 2G 2G 2G 2G 2G 2G 2G 2G 2G 2G 2G 2G 2G 2G 2G 2G 2G 2G 2G 2G 2G 2G 2G 2G 2G 2G 2G 2G 2G 2G 2G 2G 2G 2G 2G 2G 2G 2G 2G 2G 2G 2G 2G 2G 2G 2G 2G 2G G G G0 G0 G0 G0 G0 G0 G0 G0 G0 G0 G0 G0 G0 G0 G0 G0 G0 G0 G0 G0 G0 G0 G0 G0 G0 G0 G0 G0 G0 G0 G0 G0 G0 G0 G0 G0 G0 G0 G0 G0 G0 G0 G0 G0 G0 G0 G0 G0 G0 G0 G0 G0 G0 G0 G0 G0 G0 G0 G0 G0 G0 G0 G0 G0 G0 G0 G0 G0 G0 G0 G0 G0 G0 G0 G0 0 0   2E 2E 2E 2E 2E 2E 2E 2E 2E 2E 2E 2E 2E 2E 2E 2E 2E 2E 2E 2E 2E 2E 2E 2E 2E 2E 2E 2E 2E 2E 2E 2E 2E 2E 2E 2E 2E 2E 2E 2E 2E 2E 2E 2E 2E 2E 2E 2E 2E 2E 2E 2E 2E 2E 2E 2E 2E 2E 2E 2E 2E 2E 2E 2E 2E 2E 2E 2E 2E 2E 2E 2E 2E 2E 2E 2E 2E 2E E E E0 E0 E0 E0 E0 E0 E0 E0 E0 E0 E0 E0 E0 E0 E0 E0 E0 E0 E0 E0 E0 E0 E0 E0 E0 E0 E0 E0 E0 E0 E0 E0 E0 E0 E0 E0 E0 E0 E0 E0 E0 E0 E0 E0 E0 E0 E0 E0 E0 E0 E0 E0 E0 E0 E0 E0 E0 E0 E0 E0 E0 E0 E0 E0 E0 0 0 0 0 0 0 0 0 0 0 0 0   2G 2G 2G 2G 2G 2G 2G 2G 2G 2G 2G 2G 2G 2G 2G 2G 2G 2G 2G 2G 2G 2G 2G 2G 2G 2G 2G 2G 2G 2G 2G 2G 2G 2G 2G 2G 2G 2G 2G 2G 2G 2G 2G 2G 2G 2G 2G 2G 2G 2G 2G 2G 2G 2G 2G 2G 2G 2G 2G 2G 2G 2G 2G 2G 2G 2G 2G 2G 2G 2G 2G 2G 2G 2G 2G 2G 2G 2G G G G0 G0 G0 G0 G0 G0 G0 G0 G0 G0 G0 G0 G0 G0 G0 G0 G0 G0 G0 G0 G0 G0 G0 G0 G0 G0 G0 G0 G0 G0 G0 G0 G0 G0 G0 G0 G0 G0 G0 G0 G0 G0 G0 G0 G0 G0 G0 G0 G0 G0 G0 G0 G0 G0 G0 G0 G0 G0 G0 G0 G0 G0 G0 G0 G0 0 0 0 0 0 0 0 0 0 0 0 0   2C 2C 2C 2C 2C 2C 2C 2C 2C 2C 2C 2C 2C 2C 2C 2C 2C 2C 2C 2C 2C 2C 2C 2C 2C 2C 2C 2C 2C 2C 2C 2C 2C 2C 2C 2C 2C 2C 2C 2C 2C 2C 2C 2C 2C 2C 2C 2C 2C 2C 2C 2C 2C 2C 2C 2C 2C 2C 2C 2C 2C 2C 2C 2C 2C 2C 2C 2C 2C 2C 2C 2C 2C 2C 2C 2C 2C 2C C C C0 C0 C0 C0 C0 C0 C0 C0 C0 C0 C0 C0 C0 C0 C0 C0 C0 C0 C0 C0 C0 C0 C0 C0 C0 C0 C0 C0 C0 C0 C0 C0 C0 C0 C0 C0 C0 C0 C0 C0 C0 C0 C0 C0 C0 C0 C0 C0 C0 C0 C0 C0 C0 C0 C0 C0 C0 C0 C0 C0 C0 C0 C0 C0 C0 0 0 0 0 0 0 0 0 0 0 0 0   2E 2E 2E 2E 2E 2E 2E 2E 2E 2E 2E 2E 2E 2E 2E 2E 2E 2E 2E 2E 2E 2E 2E 2E 2E 2E 2E 2E 2E 2E 2E 2E 2E 2E 2E 2E 2E 2E 2E 2E 2E 2E 2E 2E 2E 2E 2E 2E 2E 2E 2E 2E 2E 2E 2E 2E 2E 2E 2E 2E 2E 2E 2E 2E 2E 2E 2E 2E 2E 2E 2E 2E 2E 2E 2E 2E 2E 2E E E E0 E0 E0 E0 E0 E0 E0 E0 E0 E0 E0 E0 E0 E0 E0 E0 E0 E0 E0 E0 E0 E0 E0 E0 E0 E0 E0 E0 E0 E0 E0 E0 E0 E0 E0 E0 E0 E0 E0 E0 E0 E0 E0 E0 E0 E0 E0 E0 E0 E0 E0 E0 E0 E0 E0 E0 E0 E0 E0 E0 E0 E0 E0 E0 E0 E0 E0 E0 E0 E0 E0 E0 E0 E0 E0 0 0   2H 2H 2H 2H 2H 2H 2H 2H 2H 2H 2H 2H 2H 2H 2H 2H 2H 2H 2H 2H 2H 2H 2H 2H 2H 2H 2H 2H 2H 2H 2H 2H 2H 2H 2H 2H 2H 2H 2H 2H 2H 2H 2H 2H 2H 2H 2H 2H 2H 2H 2H 2H 2H 2H 2H 2H 2H 2H 2H 2H 2H 2H 2H 2H 2H 2H 2H 2H 2H 2H 2H 2H 2H 2H 2H 2H 2H 2H H H H0 H0 H0 H0 H0 H0 H0 H0 H0 H0 H0 H0 H0 H0 H0 H0 H0 H0 H0 H0 H0 H0 H0 H0 H0 H0 H0 H0 H0 H0 H0 H0 H0 H0 H0 H0 H0 H0 H0 H0 H0 H0 H0 H0 H0 H0 H0 H0 H0 H0 H0 H0 H0 H0 H0 H0 H0 H0 H0 H0 H0 H0 H0 H0 H0 H0 H0 H0 H0 H0 H0 H0 H0 H0 H0 0 0   2G 2G 2G 2G 2G 2G 2G 2G 2G 2G 2G 2G 2G 2G 2G 2G 2G 2G 2G 2G 2G 2G 2G 2G 2G 2G 2G 2G 2G 2G 2G 2G 2G 2G 2G 2G 2G 2G 2G 2G 2G 2G 2G 2G 2G 2G 2G 2G 2G 2G 2G 2G 2G 2G 2G 2G 2G 2G 2G 2G 2G 2G 2G 2G 2G 2G 2G 2G 2G 2G 2G 2G 2G 2G 2G 2G 2G 2G G G G0 G0 G0 G0 G0 G0 G0 G0 G0 G0 G0 G0 G0 G0 G0 G0 G0 G0 G0 G0 G0 G0 G0 G0 G0 G0 G0 G0 G0 G0 G0 G0 G0 G0 G0 G0 G0 G0 G0 G0 G0 G0 G0 G0 G0 G0 G0 G0 G0 G0 G0 G0 G0 G0 G0 G0 G0 G0 G0 G0 G0 G0 G0 G0 G0 G0 G0 G0 G0 G0 G0 G0 G0 G0 G0 0 0   2E 2E 2E 2E 2E 2E 2E 2E 2E 2E 2E 2E 2E 2E 2E 2E 2E 2E 2E 2E 2E 2E 2E 2E 2E 2E 2E 2E 2E 2E 2E 2E 2E 2E 2E 2E 2E 2E 2E 2E 2E 2E 2E 2E 2E 2E 2E 2E 2E 2E 2E 2E 2E 2E 2E 2E 2E 2E 2E 2E 2E 2E 2E 2E 2E 2E 2E 2E 2E 2E 2E 2E 2E 2E 2E 2E 2E 2E E E E0 E0 E0 E0 E0 E0 E0 E0 E0 E0 E0 E0 E0 E0 E0 E0 E0 E0 E0 E0 E0 E0 E0 E0 E0 E0 E0 E0 E0 E0 E0 E0 E0 E0 E0 E0 E0 E0 E0 E0 E0 E0 E0 E0 E0 E0 E0 E0 E0 E0 E0 E0 E0 E0 E0 E0 E0 E0 E0 E0 E0 E0 E0 E0 E0 E0 E0 E0 E0 E0 E0 E0 E0 E0 E0 0 0   2G 2G 2G 2G 2G 2G 2G 2G 2G 2G 2G 2G 2G 2G 2G 2G 2G 2G 2G 2G 2G 2G 2G 2G 2G 2G 2G 2G 2G 2G 2G 2G 2G 2G 2G 2G 2G 2G 2G 2G 2G 2G 2G 2G 2G 2G 2G 2G 2G 2G 2G 2G 2G 2G 2G 2G 2G 2G 2G 2G 2G 2G 2G 2G 2G 2G 2G 2G 2G 2G 2G 2G 2G 2G 2G 2G 2G 2G G G G0 G0 G0 G0 G0 G0 G0 G0 G0 G0 G0 G0 G0 G0 G0 G0 G0 G0 G0 G0 G0 G0 G0 G0 G0 G0 G0 G0 G0 G0 G0 G0 G0 G0 G0 G0 G0 G0 G0 G0 G0 G0 G0 G0 G0 G0 G0 G0 G0 G0 G0 G0 G0 G0 G0 G0 G0 G0 G0 G0 G0 G0 G0 G0 G0 G0 G0 G0 G0 G0 G0 G0 G0 G0 G0 0 0   2C 2C 2C 2C 2C 2C 2C 2C 2C 2C 2C 2C 2C 2C 2C 2C 2C 2C 2C 2C 2C 2C 2C 2C 2C 2C 2C 2C 2C 2C 2C 2C 2C 2C 2C 2C 2C 2C 2C 2C 2C 2C 2C 2C 2C 2C 2C 2C 2C 2C 2C 2C 2C 2C 2C 2C 2C 2C 2C 2C 2C 2C 2C 2C 2C 2C 2C 2C 2C 2C 2C 2C 2C 2C 2C 2C 2C 2C C C C0 C0 C0 C0 C0 C0 C0 C0 C0 C0 C0 C0 C0 C0 C0 C0 C0 C0 C0 C0 C0 C0 C0 C0 C0 C0 C0 C0 C0 C0 C0 C0 C0 C0 C0 C0 C0 C0 C0 C0 C0 C0 C0 C0 C0 C0 C0 C0 C0 C0 C0 C0 C0 C0 C0 C0 C0 C0 C0 C0 C0 C0 C0 C0 C0 C0 C0 C0 C0 C0 C0 C0 C0 C0 C0 0 0   2B 2B 2B 2B 2B 2B 2B 2B 2B 2B 2B 2B 2B 2B 2B 2B 2B 2B 2B 2B 2B 2B 2B 2B 2B 2B 2B 2B 2B 2B 2B 2B 2B 2B 2B 2B 2B 2B 2B 2B 2B 2B 2B 2B 2B 2B 2B 2B 2B 2B 2B 2B 2B 2B 2B 2B 2B 2B 2B 2B 2B 2B 2B 2B 2B 2B 2B 2B 2B 2B 2B 2B 2B 2B 2B 2B 2B 2B B B B0 B0 B0 B0 B0 B0 B0 B0 B0 B0 B0 B0 B0 B0 B0 B0 B0 B0 B0 B0 B0 B0 B0 B0 B0 B0 B0 B0 B0 B0 B0 B0 B0 B0 B0 B0 B0 B0 B0 B0 B0 B0 B0 B0 B0 B0 B0 B0 B0 B0 B0 B0 B0 B0 B0 B0 B0 B0 B0 B0 B0 B0 B0 B0 B0 0 0 0 0 0 0 0 0 0 0 0 0   2C 2C 2C 2C 2C 2C 2C 2C 2C 2C 2C 2C 2C 2C 2C 2C 2C 2C 2C 2C 2C 2C 2C 2C 2C 2C 2C 2C 2C 2C 2C 2C 2C 2C 2C 2C 2C 2C 2C 2C 2C 2C 2C 2C 2C 2C 2C 2C 2C 2C 2C 2C 2C 2C 2C 2C 2C 2C 2C 2C 2C 2C 2C 2C 2C 2C 2C 2C 2C 2C 2C 2C 2C 2C 2C 2C 2C 2C C C C0 C0 C0 C0 C0 C0 C0 C0 C0 C0 C0 C0 C0 C0 C0 C0 C0 C0 C0 C0 C0 C0 C0 C0 C0 C0 C0 C0 C0 C0 C0 C0 C0 C0 C0 C0 C0 C0 C0 C0 C0 C0 C0 C0 C0 C0 C0 C0 C0 C0 C0 C0 C0 C0 C0 C0 C0 C0 C0 C0 C0 C0 C0 C0 C0 0 0 0 0 0 0 0 0 0 0 0 0   2@ 2@ 2@ 2@ 2@ 2@ 2@ 2@ 2@ 2@ 2@ 2@ 2@ 2@ 2@ 2@ 2@ 2@ 2@ 2@ 2@ 2@ 2@ 2@ 2@ 2@ 2@ 2@ 2@ 2@ 2@ 2@ 2@ 2@ 2@ 2@ 2@ 2@ 2@ 2@ 2@ 2@ 2@ 2@ 2@ 2@ 2@ 2@ 2@ 2@ 2@ 2@ 2@ 2@ 2@ 2@ 2@ 2@ 2@ 2@ 2@ 2@ 2@ 2@ 2@ 2@ 2@ 2@ 2@ 2@ 2@ 2@ 2@ 2@ 2@ 2@ 2@ 2@ @ @ @0 @0 @0 @0 @0 @0 @0 @0 @0 @0 @0 @0 @0 @0 @0 @0 @0 @0 @0 @0 @0 @0 @0 @0 @0 @0 @0 @0 @0 @0 @0 @0 @0 @0 @0 @0 @0 @0 @0 @0 @0 @0 @0 @0 @0 @0 @0 @0 @0 @0 @0 @0 @0 @0 @0 @0 @0 @0 @0 @0 @0 @0 @0 @0 @0 0 0 0 0 0 0 0 0 0 0 0 0 0 0 0 B0 B0 B0 B0 B0 B0 B0 B0 B0 B0 B0 B0 B0 B0 B0 B0 B0 B0 B0 B0 B0 B0 B0 B0 B0 B0 B0 B0 B0 B0 B0 B0 B0 B0 B0 B0 B0 B0 B0 B0 B0 B0 B0 B0 B0 B0 B0 B0 B0 B0 B0 B0 B0 B0 B0 B0 B0 B0 B0 B0 B0 B0 B0 B0 B0 B0 B0 B0 B0 B0 B@0 B@0 B@0 B@0 B@0 @0 @0 @0 @0 @0 @0 @0 @0 @0 @0 @0 @0 @0 @0 @0 @0 @0 @0 @0 @0 @0 @0 @0 @0 @0 @0 @0 @0 @0 @0 @0 @0 @0 @0 @0 @0 @0 @0 @0 @0 @0 @0 @0 @0 @0 @0 @0 @0 @0 @0 @0 @0 @0 @0 @0 @0 @0 @0 @0 @0 @0 @0 @0 @0 @0 @0B @0B @0B @0B @0B 0B 0B 0B 0B 0B 0B 0B 0B 0B 0B 0B 0B B B B2 B2 B2 B2 B2 B2 B2 B2 B2 B2 B2 B2 B2 B2 B2 B2 B2 B2 B2 B2 B2 B2 B2 B2 B2 B2 B2 B2 B2 B2 B2 B2 B2 B2 B2 B2 B2 B2 B2 B2 B2 B2 B2 B2 B2 B2 B2 B2 B2 B2 B2 B2 B2 B2 B2 B2 B2 B2 B2 B2 B2 B2 B2 B2 B2 B2 B2 B2 B2 B2 B2 B2 B2 B2 B2 B2 B2 B2 B2 B2 B2 B2 B2 B2 B2 B2 B2 B2 B2 B2 B2 B2 B2 B2 B2 B2 B2 B2 B2 B2 B2 B2 B2 B2 B2 B2 B2 B2 B2 B2 B2 B2 B2 B2 B2 B2 B2 B2 B2 B2 B2 B2 B2 B2 B2 B2 B2 B2 B2 B2 B2 B2 B2 B2 B2 2 2 2 2 2 2 2 2 2 2 2 2 2 2 2 2 2 2 2 2 2 2   >6 >6 >6 >6 >6 >6 >6 >6 >6 >6 >6 >6 >6 >6 >6 >6 >6 >6 >6 >6 >6 >6 >6 >6 >6 >6 >6 >6 >6 >6 >6 >6 >6 >6 >6 >6 >6 >6 >6 >6 >6 >6 >6 >6 >6 >6 >6 >6 >6 >6 >6 >6 >6 >6 >6 >6 >6 >6 >6 >6 >6 >6 >6 >6 >6 >6 >6 >6 >6 >6 >6 >6 >6 >6 >6 >6 >6 >6 >6 >6 >6 >6 >6 >6 >6 >6 >6 >6 >6 >6 >6 >6 >6 >6 >6 >6 >6 >6 >6 >6 >6 >6 >6 >6 >6 >6 >6 >6 >6 >6 >6 >6 >6 >6 >6 >6 >6 >6 >6 >6 >6 >6 >6 >6 >6 >6 >6 >6 >6 >6 >6 >6 >6 >6 >6 >6 >6 >6 >6 >6 >6 >6 >6 >6 >6 >6 >6 >6 >6 >6 >6 >6 >6 >6 >6 6 6   E9 E9 E9 E9 E9 E9 E9 E9 E9 E9 E9 E9 E9 E9 E9 E9 E9 E9 E9 E9 E9 E9 E9 E9 E9 E9 E9 E9 E9 E9 E9 E9 E9 E9 E9 E9 E9 E9 E9 E9 E9 E9 E9 E9 E9 E9 E9 E9 E9 E9 E9 E9 E9 E9 E9 E9 E9 E9 E9 E9 E9 E9 E9 E9 E9 E9 E9 E9 E9 E9 EC9 EC9 EC9 EC9 EC9 C9 C9 C9 C9 C9 C9 C9 C9 C9 C9 C9 C9 C9 C9 C9 C9 C9 C9 C9 C9 C9 C9 C9 C9 C9 C9 C9 C9 C9 C9 C9 C9 C9 C9 C9 C9 C9 C9 C9 C9 C9 C9 C9 C9 C9 C9 C9 C9 C9 C9 C9 C9 C9 C9 C9 C9 C9 C9 C9 C9 C9 C9 C9 C9 C9 C9E C9E C9E C9E C9E 9E 9E 9E 9E 9E 9E 9E 9E 9E 9E 9E 9E E E E6 E6 E6 E6 E6 E6 E6 E6 E6 E6 E6 E6 E6 E6 E6 E6 E6 E6 E6 E6 E6 E6 E6 E6 E6 E6 E6 E6 E6 E6 E6 E6 E6 E6 E6 E6 E6 E6 E6 E6 E6 E6 E6 E6 E6 E6 E6 E6 E6 E6 E6 E6 E6 E6 E6 E6 E6 E6 E6 E6 E6 E6 E6 E6 E6 E6 E6 E6 E6 E6 E6 E6 E6 E6 E6 E6 E6 E6 E6 E6 E6 E6 E6 E6 E6 E6 E6 E6 E6 E6 E6 E6 E6 E6 E6 E6 E6 E6 E6 E6 E6 E6 E6 E6 E6 E6 E6 E6 E6 E6 E6 E6 E6 E6 E6 E6 E6 E6 E6 E6 E6 E6 E6 E6 E6 E6 E6 E6 E6 E6 E6 E6 E6 E6 E6 6 6 6 6 6 6 6 6 6 6 6 6 6 6 6 6 6 6 6 6 6 6   B2 B2 B2 B2 B2 B2 B2 B2 B2 B2 B2 B2 B2 B2 B2 B2 B2 B2 B2 B2 B2 B2 B2 B2 B2 B2 B2 B2 B2 B2 B2 B2 B2 B2 B2 B2 B2 B2 B2 B2 B2 B2 B2 B2 B2 B2 B2 B2 B2 B2 B2 B2 B2 B2 B2 B2 B2 B2 B2 B2 B2 B2 B2 B2 B2 B2 B2 B2 B2 B2 B2 B2 B2 B2 B2 B2 B2 B2 B2 B2 B2 B2 B2 B2 B2 B2 B2 B2 B2 B2 B2 B2 B2 B2 B2 B2 B2 B2 B2 B2 B2 B2 B2 B2 B2 B2 B2 B2 B2 B2 B2 B2 B2 B2 B2 B2 B2 B2 B2 B2 B2 B2 B2 B2 B2 B2 B2 B2 B2 B2 B2 B2 B2 B2 B2 B2 B2 B2 B2 B2 B2 B2 B2 B2 B2 B2 B2 B2 B2 B2 B2 B2 B2 B2 B2 2 2   J0 J0 J0 J0 J0 J0 J0 J0 J0 J0 J0 J0 J0 J0 J0 J0 J0 J0 J0 J0 J0 J0 J0 J0 J0 J0 J0 J0 J0 J0 J0 J0 J0 J0 J0 J0 J0 J0 J0 J0 J0 J0 J0 J0 J0 J0 J0 J0 J0 J0 J0 J0 J0 J0 J0 J0 J0 J0 J0 J0 J0 J0 J0 J0 J0 J0 J0 J0 J0 J0 J0 J0 J0 J0 J0 0 0 0 0 0 H0 H0 H0 H0 H0 H0 H0 H0 H0 H0 H0 H0 H0 H0 H0 H0 H0 H0 H0 H0 H0 H0 H0 H0 H0 H0 H0 H0 H0 H0 H0 H0 H0 H0 H0 H0 H0 H0 H0 H0 H0 H0 H0 H0 H0 H0 H0 H0 H0 H0 H0 H0 H0 H0 H0 H0 H0 H0 H0 H0 H0 H0 H0 H0 H0 H0 H0 H0 H0 H0 H0 H0 H0 H0 H0 0 0   J/ J/ J/ J/ J/ J/ J/ J/ J/ J/ J/ J/ J/ J/ J/ J/ J/ J/ J/ J/ J/ J/ J/ J/ J/ J/ J/ J/ J/ J/ J/ J/ J/ J/ J/ J/ J/ J/ J/ J/ J/ J/ J/ J/ J/ J/ J/ J/ J/ J/ J/ J/ J/ J/ J/ J/ J/ J/ J/ J/ J/ J/ J/ J/ J/ J/ J/ J/ J/ J/ J/ J/ J/ J/ J/ J/ J/ J/ J/ J/ J/ J/ J/ J/ J/ J/ J/ J/ J/ J/ J/ J/ J/ J/ J/ J/ J/ J/ J/ J/ J/ J/ J/ J/ J/ J/ J/ J/ J/ J/ J/ J/ J/ J/ J/ J/ J/ J/ J/ J/ J/ J/ J/ J/ J/ J/ J/ J/ J/ J/ J/ J/ J/ J/ J/ J/ J/ J/ J/ J/ J/ J/ J/ J/ J/ / / / / / / / / / / / /   B- B- B- B- B- B- B- B- B- B- B- B- B- B- B- B- B- B- B- B- B- B- B- B- B- B- B- B- B- B- B- B- B- B- B- B- B- B- B- B- B- B- B- B- B- B- B- B- B- B- B- B- B- B- B- B- B- B- B- B- B- B- B- B- B- B- B- B- B- B- B- B- B- B- B- B- B- B- B- B- B- B- B- B- B- B- B- B- B- B- B- B- B- B- B- B- B- B- B- B- B- B- B- B- B- B- B- B- B- B- B- B- B- B- B- B- B- B- B- B- B- B- B- B- B- B- B- B- B- B- B- B- B- B- B- B- B- B- B- B- B- B- B- B- B- - - - - - - - - - - - -   C/ C/ C/ C/ C/ C/ C/ C/ C/ C/ C/ C/ C/ C/ C/ C/ C/ C/ C/ C/ C/ C/ C/ C/ C/ C/ C/ C/ C/ C/ C/ C/ C/ C/ C/ C/ C/ C/ C/ C/ C/ C/ C/ C/ C/ C/ C/ C/ C/ C/ C/ C/ C/ C/ C/ C/ C/ C/ C/ C/ C/ C/ C/ C/ C/ C/ C/ C/ C/ C/ C/ C/ C/ C/ C/ C/ C/ C/ C/ C/ C/ C/ C/ C/ C/ C/ C/ C/ C/ C/ C/ C/ C/ C/ C/ C/ C/ C/ C/ C/ C/ C/ C/ C/ C/ C/ C/ C/ C/ C/ C/ C/ C/ C/ C/ C/ C/ C/ C/ C/ C/ C/ C/ C/ C/ C/ C/ C/ C/ C/ C/ C/ C/ C/ C/ C/ C/ C/ C/ C/ C/ C/ C/ C/ C/ C/ C/ C/ C/ C/ C/ C/ C/ C/ C/ / /   G+ G+ G+ G+ G+ G+ G+ G+ G+ G+ G+ G+ G+ G+ G+ G+ G+ G+ G+ G+ G+ G+ G+ G+ G+ G+ G+ G+ G+ G+ G+ G+ G+ G+ G+ G+ G+ G+ G+ G+ G+ G+ G+ G+ G+ G+ G+ G+ G+ G+ G+ G+ G+ G+ G+ G+ G+ G+ G+ G+ G+ G+ G+ G+ G+ G+ G+ G+ G+ G+ G+ G+ G+ G+ G+ G+ G+ G+ G+ G+ G+ G+ G+ G+ G+ G+ G+ G+ G+ G+ G+ G+ G+ G+ G+ G+ G+ G+ G+ G+ G+ G+ G+ G+ G+ G+ G+ G+ G+ G+ G+ G+ G+ G+ G+ G+ G+ G+ G+ G+ G+ G+ G+ G+ G+ G+ G+ G+ G+ G+ G+ G+ G+ G+ G+ G+ G+ G+ G+ G+ G+ G+ G+ G+ G+ G+ G+ G+ G+ G+ G+ G+ G+ G+ G+ + +   J/ J/ J/ J/ J/ J/ J/ J/ J/ J/ J/ J/ J/ J/ J/ J/ J/ J/ J/ J/ J/ J/ J/ J/ J/ J/ J/ J/ J/ J/ J/ J/ J/ J/ J/ J/ J/ J/ J/ J/ J/ J/ J/ J/ J/ J/ J/ J/ J/ J/ J/ J/ J/ J/ J/ J/ J/ J/ J/ J/ J/ J/ J/ J/ J/ J/ J/ J/ J/ J/ J/ J/ J/ J/ J/ J/ J/ J/ J/ J/ J/ J/ J/ J/ J/ J/ J/ J/ J/ J/ J/ J/ J/ J/ J/ J/ J/ J/ J/ J/ J/ J/ J/ J/ J/ J/ J/ J/ J/ J/ J/ J/ J/ J/ J/ J/ J/ J/ J/ J/ J/ J/ J/ J/ J/ J/ J/ J/ J/ J/ J/ J/ J/ J/ J/ J/ J/ J/ J/ J/ J/ J/ J/ J/ J/ J/ J/ J/ J/ J/ J/ J/ J/ J/ J/ / /   G2 G2 G2 G2 G2 G2 G2 G2 G2 G2 G2 G2 G2 G2 G2 G2 G2 G2 G2 G2 G2 G2 G2 G2 G2 G2 G2 G2 G2 G2 G2 G2 G2 G2 G2 G2 G2 G2 G2 G2 G2 G2 G2 G2 G2 G2 G2 G2 G2 G2 G2 G2 G2 G2 G2 G2 G2 G2 G2 G2 G2 G2 G2 G2 G2 G2 G2 G2 G2 G2 G2 G2 G2 G2 G2 G2 G2 G2 G2 G2 G2 G2 G2 G2 G2 G2 G2 G2 G2 G2 G2 G2 G2 G2 G2 G2 G2 G2 G2 G2 G2 G2 G2 G2 G2 G2 G2 G2 G2 G2 G2 G2 G2 G2 G2 G2 G2 G2 G2 G2 G2 G2 G2 G2 G2 G2 G2 G2 G2 G2 G2 G2 G2 G2 G2 G2 G2 G2 G2 G2 G2 G2 G2 G2 G2 G2 G2 G2 G2 G2 G2 G2 G2 G2 G2 2 2   C/ C/ C/ C/ C/ C/ C/ C/ C/ C/ C/ C/ C/ C/ C/ C/ C/ C/ C/ C/ C/ C/ C/ C/ C/ C/ C/ C/ C/ C/ C/ C/ C/ C/ C/ C/ C/ C/ C/ C/ C/ C/ C/ C/ C/ C/ C/ C/ C/ C/ C/ C/ C/ C/ C/ C/ C/ C/ C/ C/ C/ C/ C/ C/ C/ C/ C/ C/ C/ C/ C/ C/ C/ C/ C/ C/ C/ C/ C/ C/ C/ C/ C/ C/ C/ C/ C/ C/ C/ C/ C/ C/ C/ C/ C/ C/ C/ C/ C/ C/ C/ C/ C/ C/ C/ C/ C/ C/ C/ C/ C/ C/ C/ C/ C/ C/ C/ C/ C/ C/ C/ C/ C/ C/ C/ C/ C/ C/ C/ C/ C/ C/ C/ C/ C/ C/ C/ C/ C/ C/ C/ C/ C/ C/ C/ C/ C/ C/ C/ C/ C/ C/ C/ C/ C/ / /   J+ J+ J+ J+ J+ J+ J+ J+ J+ J+ J+ J+ J+ J+ J+ J+ J+ J+ J+ J+ J+ J+ J+ J+ J+ J+ J+ J+ J+ J+ J+ J+ J+ J+ J+ J+ J+ J+ J+ J+ J+ J+ J+ J+ J+ J+ J+ J+ J+ J+ J+ J+ J+ J+ J+ J+ J+ J+ J+ J+ J+ J+ J+ J+ J+ J+ J+ J+ J+ J+ J+ J+ J+ J+ J+ J+ J+ J+ J+ J+ J+ J+ J+ J+ J+ J+ J+ J+ J+ J+ J+ J+ J+ J+ J+ J+ J+ J+ J+ J+ J+ J+ J+ J+ J+ J+ J+ J+ J+ J+ J+ J+ J+ J+ J+ J+ J+ J+ J+ J+ J+ J+ J+ J+ J+ J+ J+ J+ J+ J+ J+ J+ J+ J+ J+ J+ J+ J+ J+ J+ J+ J+ J+ J+ J+ J+ J+ J+ J+ J+ J+ J+ J+ J+ J+ + +   G2 G2 G2 G2 G2 G2 G2 G2 G2 G2 G2 G2 G2 G2 G2 G2 G2 G2 G2 G2 G2 G2 G2 G2 G2 G2 G2 G2 G2 G2 G2 G2 G2 G2 G2 G2 G2 G2 G2 G2 G2 G2 G2 G2 G2 G2 G2 G2 G2 G2 G2 G2 G2 G2 G2 G2 G2 G2 G2 G2 G2 G2 G2 G2 G2 G2 G2 G2 G2 G2 G2 G2 G2 G2 G2 G2 G2 G2 G2 G2 G2 G2 G2 G2 G2 G2 G2 G2 G2 G2 G2 G2 G2 G2 G2 G2 G2 G2 G2 G2 G2 G2 G2 G2 G2 G2 G2 G2 G2 G2 G2 G2 G2 G2 G2 G2 G2 G2 G2 G2 G2 G2 G2 G2 G2 G2 G2 G2 G2 G2 G2 G2 G2 G2 G2 G2 G2 G2 G2 G2 G2 G2 G2 G2 G2 2 2 2 2 2 2 2 2 2 2 2 2   C/ C/ C/ C/ C/ C/ C/ C/ C/ C/ C/ C/ C/ C/ C/ C/ C/ C/ C/ C/ C/ C/ C/ C/ C/ C/ C/ C/ C/ C/ C/ C/ C/ C/ C/ C/ C/ C/ C/ C/ C/ C/ C/ C/ C/ C/ C/ C/ C/ C/ C/ C/ C/ C/ C/ C/ C/ C/ C/ C/ C/ C/ C/ C/ C/ C/ C/ C/ C/ C/ C/ C/ C/ C/ C/ C/ C/ C/ C/ C/ C/ C/ C/ C/ C/ C/ C/ C/ C/ C/ C/ C/ C/ C/ C/ C/ C/ C/ C/ C/ C/ C/ C/ C/ C/ C/ C/ C/ C/ C/ C/ C/ C/ C/ C/ C/ C/ C/ C/ C/ C/ C/ C/ C/ C/ C/ C/ C/ C/ C/ C/ C/ C/ C/ C/ C/ C/ C/ C/ C/ C/ C/ C/ C/ C/ / / / / / / / / / / / /   O+ O+ O+ O+ O+ O+ O+ O+ O+ O+ O+ O+ O+ O+ O+ O+ O+ O+ O+ O+ O+ O+ O+ O+ O+ O+ O+ O+ O+ O+ O+ O+ O+ O+ O+ O+ O+ O+ O+ O+ O+ O+ O+ O+ O+ O+ O+ O+ O+ O+ O+ O+ O+ O+ O+ O+ O+ O+ O+ O+ O+ O+ O+ O+ O+ O+ O+ O+ O+ O+ O+ O+ O+ O+ O+ O+ O+ O+ O+ O+ O+ O+ O+ O+ O+ O+ O+ O+ O+ O+ O+ O+ O+ O+ O+ O+ O+ O+ O+ O+ O+ O+ O+ O+ O+ O+ O+ O+ O+ O+ O+ O+ O+ O+ O+ O+ O+ O+ O+ O+ O+ O+ O+ O+ O+ O+ O+ O+ O+ O+ O+ O+ O+ O+ O+ O+ O+ O+ O+ O+ O+ O+ O+ O+ O+ + + + + + + + + + + + +   J* J* J* J* J* J* J* J* J* J* J* J* J* J* J* J* J* J* J* J* J* J* J* J* J* J* J* J* J* J* J* J* J* J* J* J* J* J* J* J* J* J* J* J* J* J* J* J* J* J* J* J* J* J* J* J* J* J* J* J* J* J* J* J* J* J* J* J* J* J* J* J* J* J* J* J* J* J* J* J* J* J* J* J* J* J* J* J* J* J* J* J* J* J* J* J* J* J* J* J* J* J* J* J* J* J* J* J* J* J* J* J* J* J* J* J* J* J* J* J* J* J* J* J* J* J* J* J* J* J* J* J* J* J* J* J* J* J* J* J* J* J* J* J* J* J* J* J* J* J* J* J* J* J* J* * *   N& N& N& N& N& N& N& N& N& N& N& N& N& N& N& N& N& N& N& N& N& N& N& N& N& N& N& N& N& N& N& N& N& N& N& N& N& N& N& N& N& N& N& N& N& N& N& N& N& N& N& N& N& N& N& N& N& N& N& N& N& N& N& N& N& N& N& N& N& N& N& N& N& N& N& N& N& N& N& N& N& N& N& N& N& N& N& N& N& N& N& N& N& N& N& N& N& N& N& N& N& N& N& N& N& N& N& N& N& N& N& N& N& N& N& N& N& N& N& N& N& N& N& N& N& N& N& N& N& N& N& N& N& N& N& N& N& N& N& N& N& N& N& N& N& N& N& N& N& N& N& N& N& N& N& & &   Q* Q* Q* Q* Q* Q* Q* Q* Q* Q* Q* Q* Q* Q* Q* Q* Q* Q* Q* Q* Q* Q* Q* Q* Q* Q* Q* Q* Q* Q* Q* Q* Q* Q* Q* Q* Q* Q* Q* Q* Q* Q* Q* Q* Q* Q* Q* Q* Q* Q* Q* Q* Q* Q* Q* Q* Q* Q* Q* Q* Q* Q* Q* Q* Q* Q* Q* Q* Q* Q* Q* Q* Q* Q* Q* Q* Q* Q* Q* Q* Q* Q* Q* Q* Q* Q* Q* Q* Q* Q* Q* Q* Q* Q* Q* Q* Q* Q* Q* Q* Q* Q* Q* Q* Q* Q* Q* Q* Q* Q* Q* Q* Q* Q* Q* Q* Q* Q* Q* Q* Q* Q* Q* Q* Q* Q* Q* Q* Q* Q* Q* Q* Q* Q* Q* Q* Q* Q* Q* Q* Q* Q* Q* Q* Q* Q* Q* Q* Q* Q* Q* Q* Q* Q* Q* * *   N- N- N- N- N- N- N- N- N- N- N- N- N- N- N- N- N- N- N- N- N- N- N- N- N- N- N- N- N- N- N- N- N- N- N- N- N- N- N- N- N- N- N- N- N- N- N- N- N- N- N- N- N- N- N- N- N- N- N- N- N- N- N- N- N- N- N- N- N- N- N- N- N- N- N- N- N- N- N- N- N- N- N- N- N- N- N- N- N- N- N- N- N- N- N- N- N- N- N- N- N- N- N- N- N- N- N- N- N- N- N- N- N- N- N- N- N- N- N- N- N- N- N- N- N- N- N- N- N- N- N- N- N- N- N- N- N- N- N- N- N- N- N- N- N- N- N- N- N- N- N- N- N- N- N- - -   J* J* J* J* J* J* J* J* J* J* J* J* J* J* J* J* J* J* J* J* J* J* J* J* J* J* J* J* J* J* J* J* J* J* J* J* J* J* J* J* J* J* J* J* J* J* J* J* J* J* J* J* J* J* J* J* J* J* J* J* J* J* J* J* J* J* J* J* J* J* J* J* J* J* J* J* J* J* J* J* J* J* J* J* J* J* J* J* J* J* J* J* J* J* J* J* J* J* J* J* J* J* J* J* J* J* J* J* J* J* J* J* J* J* J* J* J* J* J* J* J* J* J* J* J* J* J* J* J* J* J* J* J* J* J* J* J* J* J* J* J* J* J* J* J* J* J* J* J* J* J* J* J* J* J* * *   Q& Q& Q& Q& Q& Q& Q& Q& Q& Q& Q& Q& Q& Q& Q& Q& Q& Q& Q& Q& Q& Q& Q& Q& Q& Q& Q& Q& Q& Q& Q& Q& Q& Q& Q& Q& Q& Q& Q& Q& Q& Q& Q& Q& Q& Q& Q& Q& Q& Q& Q& Q& Q& Q& Q& Q& Q& Q& Q& Q& Q& Q& Q& Q& Q& Q& Q& Q& Q& Q& Q& Q& Q& Q& Q& Q& Q& Q& Q& Q& Q& Q& Q& Q& Q& Q& Q& Q& Q& Q& Q& Q& Q& Q& Q& Q& Q& Q& Q& Q& Q& Q& Q& Q& Q& Q& Q& Q& Q& Q& Q& Q& Q& Q& Q& Q& Q& Q& Q& Q& Q& Q& Q& Q& Q& Q& Q& Q& Q& Q& Q& Q& Q& Q& Q& Q& Q& Q& Q& Q& Q& Q& Q& Q& Q& Q& Q& Q& Q& Q& Q& Q& Q& Q& Q& & &   N- N- N- N- N- N- N- N- N- N- N- N- N- N- N- N- N- N- N- N- N- N- N- N- N- N- N- N- N- N- N- N- N- N- N- N- N- N- N- N- N- N- N- N- N- N- N- N- N- N- N- N- N- N- N- N- N- N- N- N- N- N- N- N- N- N- N- N- N- N- N- N- N- N- N- N- N- N- N- N- N- N- N- N- N- N- N- N- N- N- N- N- N- N- N- N- N- N- N- N- N- N- N- N- N- N- N- N- N- N- N- N- N- N- N- N- N- N- N- N- N- N- N- N- N- N- N- N- N- N- N- N- N- N- N- N- N- N- N- N- N- N- N- N- N- - - - - - - - - - - - -   J* J* J* J* J* J* J* J* J* J* J* J* J* J* J* J* J* J* J* J* J* J* J* J* J* J* J* J* J* J* J* J* J* J* J* J* J* J* J* J* J* J* J* J* J* J* J* J* J* J* J* J* J* J* J* J* J* J* J* J* J* J* J* J* J* J* J* J* J* J* J* J* J* J* J* J* J* J* J* J* J* J* J* J* J* J* J* J* J* J* J* J* J* J* J* J* J* J* J* J* J* J* J* J* J* J* J* J* J* J* J* J* J* J* J* J* J* J* J* J* J* J* J* J* J* J* J* J* J* J* J* J* J* J* J* J* J* J* J* J* J* J* J* J* J* * * * * * * * * * * * *   T& T& T& T& T& T& T& T& T& T& T& T& T& T& T& T& T& T& T& T& T& T& T& T& T& T& T& T& T& T& T& T& T& T& T& T& T& T& T& T& T& T& T& T& T& T& T& T& T& T& T& T& T& T& T& T& T& T& T& T& T& T& T& T& T& T& T& T& T& T& T& T& T& T& T& T& T& T& T& T& T& T& T& T& T& T& T& T& T& T& T& T& T& T& T& T& T& T& T& T& T& T& T& T& T& T& T& T& T& T& T& T& T& T& T& T& T& T& T& T& T& T& T& T& T& T& T& T& T& T& T& T& T& T& T& T& T& T& T& T& T& T& T& T& T& & & & & & & & & & & & &   S+ S+ S+ S+ S+ S+ S+ S+ S+ S+ S+ S+ S+ S+ S+ S+ S+ S+ S+ S+ S+ S+ S+ S+ S+ S+ S+ S+ S+ S+ S+ S+ S+ S+ S+ S+ S+ S+ S+ S+ S+ S+ S+ S+ S+ S+ S+ S+ S+ S+ S+ S+ S+ S+ S+ S+ S+ S+ S+ S+ S+ S+ S+ S+ S+ S+ S+ S+ S+ S+ S+ S+ S+ S+ S+ S+ S+ S+ S+ S+ S+ S+ S+ S+ S+ S+ S+ S+ S+ S+ S+ S+ S+ S+ S+ S+ S+ S+ S+ S+ S+ S+ S+ S+ S+ S+ S+ S+ S+ S+ S+ S+ S+ S+ S+ S+ S+ S+ S+ S+ S+ S+ S+ S+ S+ S+ S+ S+ S+ S+ S+ S+ S+ S+ S+ S+ S+ S+ S+ S+ S+ S+ S+ S+ S+ S+ S+ S+ S+ S+ S+ S+ S+ S+ S+ + +   Q- Q- Q- Q- Q- Q- Q- Q- Q- Q- Q- Q- Q- Q- Q- Q- Q- Q- Q- Q- Q- Q- Q- Q- Q- Q- Q- Q- Q- Q- Q- Q- Q- Q- Q- Q- Q- Q- Q- Q- Q- Q- Q- Q- Q- Q- Q- Q- Q- Q- Q- Q- Q- Q- Q- Q- Q- Q- Q- Q- Q- Q- Q- Q- Q- Q- Q- Q- Q- Q- Q- Q- Q- Q- Q- Q- Q- Q- Q- Q- Q- Q- Q- Q- Q- Q- Q- Q- Q- Q- Q- Q- Q- Q- Q- Q- Q- Q- Q- Q- Q- Q- Q- Q- Q- Q- Q- Q- Q- Q- Q- Q- Q- Q- Q- Q- Q- Q- Q- Q- Q- Q- Q- Q- Q- Q- Q- Q- Q- Q- Q- Q- Q- Q- Q- Q- Q- Q- Q- Q- Q- Q- Q- Q- Q- Q- Q- Q- Q- Q- Q- Q- Q- Q- Q- - -   O/ O/ O/ O/ O/ O/ O/ O/ O/ O/ O/ O/ O/ O/ O/ O/ O/ O/ O/ O/ O/ O/ O/ O/ O/ O/ O/ O/ O/ O/ O/ O/ O/ O/ O/ O/ O/ O/ O/ O/ O/ O/ O/ O/ O/ O/ O/ O/ O/ O/ O/ O/ O/ O/ O/ O/ O/ O/ O/ O/ O/ O/ O/ O/ O/ O/ O/ O/ O/ O/ O/ O/ O/ O/ O/ O/ O/ O/ O/ O/ O/ O/ O/ O/ O/ O/ O/ O/ O/ O/ O/ O/ O/ O/ O/ O/ O/ O/ O/ O/ O/ O/ O/ O/ O/ O/ O/ O/ O/ O/ O/ O/ O/ O/ O/ O/ O/ O/ O/ O/ O/ O/ O/ O/ O/ O/ O/ O/ O/ O/ O/ O/ O/ O/ O/ O/ O/ O/ O/ O/ O/ O/ O/ O/ O/ O/ O/ O/ O/ O/ O/ O/ O/ O/ O/ / /   N- N- N- N- N- N- N- N- N- N- N- N- N- N- N- N- N- N- N- N- N- N- N- N- N- N- N- N- N- N- N- N- N- N- N- N- N- N- N- N- N- N- N- N- N- N- N- N- N- N- N- N- N- N- N- N- N- N- N- N- N- N- N- N- N- N- N- N- N- N- N- N- N- N- N- N- N- N- N- N- N- N- N- N- N- N- N- N- N- N- N- N- N- N- N- N- N- N- N- N- N- N- N- N- N- N- N- N- N- N- N- N- N- N- N- N- N- N- N- N- N- N- N- N- N- N- N- N- N- N- N- N- N- N- N- N- N- N- N- N- N- N- N- N- N- N- N- N- N- N- N- N- N- N- N- - -   O/ O/ O/ O/ O/ O/ O/ O/ O/ O/ O/ O/ O/ O/ O/ O/ O/ O/ O/ O/ O/ O/ O/ O/ O/ O/ O/ O/ O/ O/ O/ O/ O/ O/ O/ O/ O/ O/ O/ O/ O/ O/ O/ O/ O/ O/ O/ O/ O/ O/ O/ O/ O/ O/ O/ O/ O/ O/ O/ O/ O/ O/ O/ O/ O/ O/ O/ O/ O/ O/ O/ O/ O/ O/ O/ O/ O/ O/ O/ O/ O/ O/ O/ O/ O/ O/ O/ O/ O/ O/ O/ O/ O/ O/ O/ O/ O/ O/ O/ O/ O/ O/ O/ O/ O/ O/ O/ O/ O/ O/ O/ O/ O/ O/ O/ O/ O/ O/ O/ O/ O/ O/ O/ O/ O/ O/ O/ O/ O/ O/ O/ O/ O/ O/ O/ O/ O/ O/ O/ O/ O/ O/ O/ O/ O/ O/ O/ O/ O/ O/ O/ O/ O/ O/ O/ / /   Q0 Q0 Q0 Q0 Q0 Q0 Q0 Q0 Q0 Q0 Q0 Q0 Q0 Q0 Q0 Q0 Q0 Q0 Q0 Q0 Q0 Q0 Q0 Q0 Q0 Q0 Q0 Q0 Q0 Q0 Q0 Q0 Q0 Q0 Q0 Q0 Q0 Q0 Q0 Q0 Q0 Q0 Q0 Q0 Q0 Q0 Q0 Q0 Q0 Q0 Q0 Q0 Q0 Q0 Q0 Q0 Q0 Q0 Q0 Q0 Q0 Q0 Q0 Q0 Q0 Q0 Q0 Q0 Q0 Q0 Q0 Q0 Q0 Q0 Q0 Q0 Q0 Q0 Q0 Q0 Q0 Q0 Q0 Q0 Q0 Q0 Q0 Q0 Q0 Q0 Q0 Q0 Q0 Q0 Q0 Q0 Q0 Q0 Q0 Q0 Q0 Q0 Q0 Q0 Q0 Q0 Q0 Q0 Q0 Q0 Q0 Q0 Q0 Q0 Q0 Q0 Q0 Q0 Q0 Q0 Q0 Q0 Q0 Q0 Q0 Q0 Q0 Q0 Q0 Q0 Q0 Q0 Q0 Q0 Q0 Q0 Q0 Q0 Q0 Q0 Q0 Q0 Q0 Q0 Q0 Q0 Q0 Q0 Q0 Q0 Q0 Q0 Q0 Q0 Q0 0 0   J/ J/ J/ J/ J/ J/ J/ J/ J/ J/ J/ J/ J/ J/ J/ J/ J/ J/ J/ J/ J/ J/ J/ J/ J/ J/ J/ J/ J/ J/ J/ J/ J/ J/ J/ J/ J/ J/ J/ J/ J/ J/ J/ J/ J/ J/ J/ J/ J/ J/ J/ J/ J/ J/ J/ J/ J/ J/ J/ J/ J/ J/ J/ J/ J/ J/ J/ J/ J/ J/ J/ J/ J/ J/ J/ J/ J/ J/ J/ J/ J/ J/ J/ J/ J/ J/ J/ J/ J/ J/ J/ J/ J/ J/ J/ J/ J/ J/ J/ J/ J/ J/ J/ J/ J/ J/ J/ J/ J/ J/ J/ J/ J/ J/ J/ J/ J/ J/ J/ J/ J/ J/ J/ J/ J/ J/ J/ J/ J/ J/ J/ J/ J/ J/ J/ J/ J/ J/ J/ J/ J/ J/ J/ J/ J/ / / / / / / / / / / / /   O0 O0 O0 O0 O0 O0 O0 O0 O0 O0 O0 O0 O0 O0 O0 O0 O0 O0 O0 O0 O0 O0 O0 O0 O0 O0 O0 O0 O0 O0 O0 O0 O0 O0 O0 O0 O0 O0 O0 O0 O0 O0 O0 O0 O0 O0 O0 O0 O0 O0 O0 O0 O0 O0 O0 O0 O0 O0 O0 O0 O0 O0 O0 O0 O0 O0 O0 O0 O0 O0 O0 O0 O0 O0 O0 O0 O0 O0 O0 O0 O0 O0 O0 O0 O0 O0 O0 O0 O0 O0 O0 O0 O0 O0 O0 O0 O0 O0 O0 O0 O0 O0 O0 O0 O0 O0 O0 O0 O0 O0 O0 O0 O0 O0 O0 O0 O0 O0 O0 O0 O0 O0 O0 O0 O0 O0 O0 O0 O0 O0 O0 O0 O0 O0 O0 O0 O0 O0 O0 O0 O0 O0 O0 O0 O0 0 0 0 0 0 0 0 0 0 0 0 0   N2 N2 N2 N2 N2 N2 N2 N2 N2 N2 N2 N2 N2 N2 N2 N2 N2 N2 N2 N2 N2 N2 N2 N2 N2 N2 N2 N2 N2 N2 N2 N2 N2 N2 N2 N2 N2 N2 N2 N2 N2 N2 N2 N2 N2 N2 N2 N2 N2 N2 N2 N2 N2 N2 N2 N2 N2 N2 N2 N2 N2 N2 N2 N2 N2 N2 N2 N2 N2 N2 N2 N2 N2 N2 N2 N2 N2 N2 N2 N2 N2 N2 N2 N2 N2 N2 N2 N2 N2 N2 N2 N2 N2 N2 N2 N2 N2 N2 N2 N2 N2 N2 N2 N2 N2 N2 N2 N2 N2 N2 N2 N2 N2 N2 N2 N2 N2 N2 N2 N2 N2 N2 N2 N2 N2 N2 N2 N2 N2 N2 N2 N2 N2 N2 N2 N2 N2 N2 N2 N2 N2 N2 N2 N2 N2 2 2 2 2 2 2 2 2 2 2 2 2   (O (O (O (O (O (O (O (O (O (O (O (O (O (O (O (O (O (O (O (O (O (O (O (O (O (O (O (O (O (O (O (O (O (O (O (O (O (O (O (O (O (O (O (O (O (O (O (O (O (O (O (O (O (O (O (O (O (O (O (O (O (O (O (O (O (O (O (O (O (O (O (O (O (O (O (O (O (O (O O O O O& O& O& O& O& O& O& O& O& O& O& O& O& O& O& O& O& O& O& O& O& O& O& O& O& O& O& O& O& O& O& O& O& O& O& O& O& O& O& O& O& O& O& O& O& O& O& O& O& O& O& O& O& O& O& O& O& O& O& O& O& O& O& O& O& O& O& O& O& O& O& O& O& O& O& O& O& & & &    N( N( N( N( N( N( N( N( N( N( N( N( N( N( N( N( N( N( N( N( N( N( N( N( N( N( N( N( N( N( N( N( N( N( N( N( N( N( N( N( N( N( N( N( N( N( N( N( N( N( N( N( N( N( N( N( N( N( N( N( N( N( N( N( N( N( N( N( N( N( N( N( N( N( N( N( N( N( N( N( N( N( N( N( N( N( N( N( N( N( N( N( N( N( N( N( N( N( N( N( N( N( N( N( N( N( N( N( N( N( N( N( N( N( N( N( N( N( N( N( N( N( N( N( N( N( N( N( N( N( N( N( N( N( N( N( N( N( N( N( N( N( N( N( N( N( N( N( N( N( N( N( N( N( N( N( N( N( ( ( ( ( ( L( L( L( L( L( L( L( L( L( L( L( L( L( L( L( L( L( L( L( L( L( L( L( L( L( L( L( L( L( L( L( L( L( L( L( L( L( L( L( L( L( L( L( L( L( L( L( L( L( L( L( L( L( L( L( L( L( L( L( L( L( L( L( L( L( L( L( L( L( L( L( L( L( L( L( L( L( L( L( L( L( L( L( L( L( L( L( L( L( L( L( L( L( L( L( L( L( L( L( L( L( L( L( L( L( L( L( L( L( L( L( L( L( L( L( L( L( L( L( L( L( L( L( L( L( L( L( L( L( L( L( L( L( L( L( L( L( L( L( L( L( L( L( L( L( L( L( L( L( L( L( L( L( L( L( L( L( L( ( ( ( ( ( (J (J (J (J (J (J (J (J (J (J (J (J (J (J (J (J (J (J (J (J (J (J (J (J (J (J (J (J (J (J (J (J (J (J (J (J (J (J (J (J (J (J (J (J (J (J (J (J (J (J (J (J (J (J (J (J (J (J (J (J (J (J (J (J (J (J (J (J (J (J (J (J (J (J (J (J (J (J (J (J (J (J (J (J (J (J (J (J (J (J (J (J (J (J (J (J (J (J (J (J (J (J (J (J (J (J (J (J (J (J (J (J (J (J (J (J (J (J (J (J (J (J (J (J (J (J (J (J (J (J (J (J (J J J J J J J J J J J J J J J J J J J J J J J J J J J      H H H H H H H H H H H H H H H H H H H H H H H H H H H H H H H H H H H H H H H H H H H H H H H H H H H H H H H H H H H H H H H H H H H H H H H H H H H H H H H H H H H H H H H H H H H H H H H H H H H H H H H H H H H H H H H H H H H H H H H H H H H H H H H H H H H H H H H H H H H H H H H H H H H H H H H H H H H H H H      G4 G4 G4 G4 G4 G4 G4 G4 G4 G4 G4 G4 G4 G4 G4 G4 G4 G4 G4 G4 G4 G4 G4 G4 G4 G4 G4 G4 G4 G4 G4 G4 G4 G4 G4 G4 G4 G4 G4 G4 G4 G4 G4 G4 G4 G4 G4 G4 G4 G4 G4 G4 G4 G4 G4 G4 G4 G4 G4 G4 G4 G4 G4 G4 G4 G4 G4 G4 G4 G4 G4 G4 G4 G4 G4 G4 G4 G4 G4 G4 G4 G4 G4 G4 G4 G4 G4 G4 G4 G4 G4 G4 G4 G4 G4 G4 G4 G4 G4 G4 G4 G4 G4 G4 G4 G4 G4 G4 G4 G4 G4 G4 G4 G4 G4 G4 G4 G4 G4 G4 G4 G4 G4 G4 G4 G4 G4 G4 G4 G4 G4 G4 G4 G4 G4 G4 G4 G4 G4 G4 G4 G4 G4 G4 G4 G4 G4 G4 G4 G4 G4 G4 G4 G4 G4 G4 G4 G4 4 4 4    E6 E6 E6 E6 E6 E6 E6 E6 E6 E6 E6 E6 E6 E6 E6 E6 E6 E6 E6 E6 E6 E6 E6 E6 E6 E6 E6 E6 E6 E6 E6 E6 E6 E6 E6 E6 E6 E6 E6 E6 E6 E6 E6 E6 E6 E6 E6 E6 E6 E6 E6 E6 E6 E6 E6 E6 E6 E6 E6 E6 E6 E6 E6 E6 E6 E6 E6 E6 E6 E6 E6 E6 E6 E6 E6 E6 E6 E6 E6 E6 E6 E6 E6 E6 E6 E6 E6 E6 E6 E6 E6 E6 E6 E6 E6 E6 E6 E6 E6 E6 E6 E6 E6 E6 E6 E6 E6 E6 E6 E6 E6 E6 E6 E6 E6 E6 E6 E6 E6 E6 E6 E6 E6 E6 E6 E6 E6 E6 E6 E6 E6 E6 E6 E6 E6 E6 E6 E6 E6 E6 E6 E6 E6 E6 E6 E6 E6 E6 6 6 6 6 6 6 6 6 6 6 6 6 6    G4 G4 G4 G4 G4 G4 G4 G4 G4 G4 G4 G4 G4 G4 G4 G4 G4 G4 G4 G4 G4 G4 G4 G4 G4 G4 G4 G4 G4 G4 G4 G4 G4 G4 G4 G4 G4 G4 G4 G4 G4 G4 G4 G4 G4 G4 G4 G4 G4 G4 G4 G4 G4 G4 G4 G4 G4 G4 G4 G4 G4 G4 G4 G4 G4 G4 G4 G4 G4 G4 G4 G4 G4 G4 G4 G4 G4 G4 G4 G4 G4 G4 G4 G4 G4 G4 G4 G4 G4 G4 G4 G4 G4 G4 G4 G4 G4 G4 G4 G4 G4 G4 G4 G4 G4 G4 G4 G4 G4 G4 G4 G4 G4 G4 G4 G4 G4 G4 G4 G4 G4 G4 G4 G4 G4 G4 G4 G4 G4 G4 G4 G4 G4 G4 G4 G4 G4 G4 G4 G4 G4 G4 G4 G4 G4 G4 G4 G4 4 4 4 4 4 4 4 4 4 4 4 4 4    H2 H2 H2 H2 H2 H2 H2 H2 H2 H2 H2 H2 H2 H2 H2 H2 H2 H2 H2 H2 H2 H2 H2 H2 H2 H2 H2 H2 H2 H2 H2 H2 H2 H2 H2 H2 H2 H2 H2 H2 H2 H2 H2 H2 H2 H2 H2 H2 H2 H2 H2 H2 H2 H2 H2 H2 H2 H2 H2 H2 H2 H2 H2 H2 H2 H2 H2 H2 H2 H2 H2 H2 H2 H2 H2 H2 H2 H2 H2 H2 H2 H2 H2 H2 H2 H2 H2 H2 H2 H2 H2 H2 H2 H2 H2 H2 H2 H2 H2 H2 H2 H2 H2 H2 H2 H2 H2 H2 H2 H2 H2 H2 H2 H2 H2 H2 H2 H2 H2 H2 H2 H2 H2 H2 H2 H2 H2 H2 H2 H2 H2 H2 H2 H2 H2 H2 H2 H2 H2 H2 H2 H2 H2 H2 H2 H2 H2 H2 2 2 2 2 2 2 2 2 2 2 2 2 2    7G 7G 7G 7G 7G 7G 7G 7G 7G 7G 7G 7G 7G 7G 7G 7G 7G 7G 7G 7G 7G 7G 7G 7G 7G 7G 7G 7G 7G 7G 7G 7G 7G 7G 7G 7G 7G 7G 7G 7G 7G 7G 7G 7G 7G 7G 7G 7G 7G 7G 7G 7G 7G 7G 7G 7G 7G 7G 7G 7G 7G 7G 7G 7G 7G 7G 7G 7G 7G 7G 7G 7G 7G 7G 7G 7G 7G 7G 7G 7G 7G 7G 7G G G G G6 G6 G6 G6 G6 G6 G6 G6 G6 G6 G6 G6 G6 G6 G6 G6 G6 G6 G6 G6 G6 G6 G6 G6 G6 G6 G6 G6 G6 G6 G6 G6 G6 G6 G6 G6 G6 G6 G6 G6 G6 G6 G6 G6 G6 G6 G6 G6 G6 G6 G6 G6 G6 G6 G6 G6 G6 G6 G6 G6 G6 G6 G6 G6 G6 G6 G6 G6 G6 G6 G6 G6 G6 G6 G6 G6 G6 G6 G6 G6 6 6 6    7E 7E 7E 7E 7E 7E 7E 7E 7E 7E 7E 7E 7E 7E 7E 7E 7E 7E 7E 7E 7E 7E 7E 7E 7E 7E 7E 7E 7E 7E 7E 7E 7E 7E 7E 7E 7E 7E 7E 7E 7E 7E 7E 7E 7E 7E 7E 7E 7E 7E 7E 7E 7E 7E 7E 7E 7E 7E 7E 7E 7E 7E 7E 7E 7E 7E 7E 7E 7E 7E 7E 7E 7E 7E 7E 7E 7E 7E 7E 7E 7E 7E 7E 7E 7E 7E 7E 7E 7E 7E 7E 7E 7E 7E 7E 7E 7E 7E 7E 7E 7E 7E 7E 7E 7E 7E 7E 7E 7E 7E 7E 7E 7E 7E 7E 7E 7E 7E 7E 7E 7E 7E 7E 7E 7E 7E 7E 7E 7E 7E 7E 7E 7E 7E 7E 7E 7E 7E 7E 7E 7E 7E 7E 7E 7E 7E 7E 7E 7E 7E 7E 7E E E E E E E E E E E E E E      C/ C/ C/ C/ C/ C/ C/ C/ C/ C/ C/ C/ C/ C/ C/ C/ C/ C/ C/ C/ C/ C/ C/ C/ C/ C/ C/ C/ C/ C/ C/ C/ C/ C/ C/ C/ C/ C/ C/ C/ C/ C/ C/ C/ C/ C/ C/ C/ C/ C/ C/ C/ C/ C/ C/ C/ C/ C/ C/ C/ C/ C/ C/ C/ C/ C/ C/ C/ C/ C/ C/ C/ C/ C/ C/ C/ C/ C/ C/ C/ C/ C/ C/ C/ C/ C/ C/ C/ C/ C/ C/ C/ C/ C/ C/ C/ C/ C/ C/ C/ C/ C/ C/ C/ C/ C/ C/ C/ C/ C/ C/ C/ C/ C/ C/ C/ C/ C/ C/ C/ C/ C/ C/ C/ C/ C/ C/ C/ C/ C/ C/ C/ C/ C/ C/ C/ C/ C/ C/ C/ C/ C/ C/ C/ C/ C/ C/ C/ C/ C/ C/ C/ C/ C/ C/ C/ C/ C/ C/ C/ C/ C/ C/ C/ C/ / / /    B4 B4 B4 B4 B4 B4 B4 B4 B4 B4 B4 B4 B4 B4 B4 B4 B4 B4 B4 B4 B4 B4 B4 B4 B4 B4 B4 B4 B4 B4 B4 B4 B4 B4 B4 B4 B4 B4 B4 B4 B4 B4 B4 B4 B4 B4 B4 B4 B4 B4 B4 B4 B4 B4 B4 B4 B4 B4 B4 B4 B4 B4 B4 B4 B4 B4 B4 B4 B4 B4 B4 B4 B4 B4 B4 B4 B4 B4 B4 B4 B4 B4 B4 B4 B4 B4 B4 B4 B4 B4 B4 B4 B4 B4 B4 B4 B4 B4 B4 B4 B4 B4 B4 B4 B4 B4 B4 B4 B4 B4 B4 B4 B4 B4 B4 B4 B4 B4 B4 B4 B4 B4 B4 B4 B4 B4 B4 B4 B4 B4 B4 B4 B4 B4 B4 B4 B4 B4 B4 B4 B4 B4 B4 B4 B4 B4 B4 B4 B4 B4 B4 B4 B4 B4 B4 B4 B4 B4 B4 B4 B4 B4 B4 B4 B4 B4 B4 B4 B4 4 4 4    C2 C2 C2 C2 C2 C2 C2 C2 C2 C2 C2 C2 C2 C2 C2 C2 C2 C2 C2 C2 C2 C2 C2 C2 C2 C2 C2 C2 C2 C2 C2 C2 C2 C2 C2 C2 C2 C2 C2 C2 C2 C2 C2 C2 C2 C2 C2 C2 C2 C2 C2 C2 C2 C2 C2 C2 C2 C2 C2 C2 C2 C2 C2 C2 C2 C2 C2 C2 C2 C2 C2 C2 C2 C2 C2 C2 C2 C2 C2 C2 C2 C2 C2 C2 C2 C2 C2 C2 C2 C2 C2 C2 C2 C2 C2 C2 C2 C2 C2 C2 C2 C2 C2 C2 C2 C2 C2 C2 C2 C2 C2 C2 C2 C2 C2 C2 C2 C2 C2 C2 C2 C2 C2 C2 C2 C2 C2 C2 C2 C2 C2 C2 C2 C2 C2 C2 C2 C2 C2 C2 C2 C2 C2 C2 C2 C2 C2 C2 C2 C2 C2 C2 C2 C2 C2 C2 C2 C2 C2 C2 C2 C2 C2 C2 C2 C2 C2 C2 C2 2 2 2    E0 E0 E0 E0 E0 E0 E0 E0 E0 E0 E0 E0 E0 E0 E0 E0 E0 E0 E0 E0 E0 E0 E0 E0 E0 E0 E0 E0 E0 E0 E0 E0 E0 E0 E0 E0 E0 E0 E0 E0 E0 E0 E0 E0 E0 E0 E0 E0 E0 E0 E0 E0 E0 E0 E0 E0 E0 E0 E0 E0 E0 E0 E0 E0 E0 E0 E0 E0 E0 E0 E0 E0 E0 E0 E0 E0 E0 E0 E0 E0 E0 E0 E0 E0 E0 E0 E0 E0 E0 E0 E0 E0 E0 E0 E0 E0 E0 E0 E0 E0 E0 E0 E0 E0 E0 E0 E0 E0 E0 E0 E0 E0 E0 E0 E0 E0 E0 E0 E0 E0 E0 E0 E0 E0 E0 E0 E0 E0 E0 E0 E0 E0 E0 E0 E0 E0 E0 E0 E0 E0 E0 E0 E0 E0 E0 E0 E0 E0 E0 E0 E0 E0 E0 E0 E0 E0 E0 E0 E0 E0 E0 E0 E0 E0 E0 E0 E0 E0 E0 0 0 0    2> 2> 2> 2> 2> 2> 2> 2> 2> 2> 2> 2> 2> 2> 2> 2> 2> 2> 2> 2> 2> 2> 2> 2> 2> 2> 2> 2> 2> 2> 2> 2> 2> 2> 2> 2> 2> 2> 2> 2> 2> 2> 2> 2> 2> 2> 2> 2> 2> 2> 2> 2> 2> 2> 2> 2> 2> 2> 2> 2> 2> 2> 2> 2> 2> 2> 2> 2> 2> 2> 2> 2> 2> 2> 2> 2> 2> 2> 2> 2> 2> 2> 2> 2> 2> 2> 2> > > > >0 >0 >0 >0 >0 >0 >0 >0 >0 >0 >0 >0 >0 >0 >0 >0 >0 >0 >0 >0 >0 >0 >0 >0 >0 >0 >0 >0 >0 >0 >0 >0 >0 >0 >0 >0 >0 >0 >0 >0 >0 >0 >0 >0 >0 >0 >0 >0 >0 >0 >0 >0 >0 >0 >0 >0 >0 >0 >0 >0 >0 >0 >0 >0 >0 >0 >0 >0 >0 >0 >0 >0 >0 0 0 0 0 0 0 0 0 0 0 0 0 0 0    C2 C2 C2 C2 C2 C2 C2 C2 C2 C2 C2 C2 C2 C2 C2 C2 C2 C2 C2 C2 C2 C2 C2 C2 C2 C2 C2 C2 C2 C2 C2 C2 C2 C2 C2 C2 C2 C2 C2 C2 C2 C2 C2 C2 C2 C2 C2 C2 C2 C2 C2 C2 C2 C2 C2 C2 C2 C2 C2 C2 C2 C2 C2 C2 C2 C2 C2 C2 C2 C2 C2 C2 C2 C2 C2 C2 C2 C2 C2 C2 C2 C2 C2 C2 C2 C2 C2 C2 C2 C2 C2 C2 C2 C2 C2 C2 C2 C2 C2 C2 C2 C2 C2 C2 C2 C2 C2 C2 C2 C2 C2 C2 C2 C2 C2 C2 C2 C2 C2 C2 C2 C2 C2 C2 C2 C2 C2 C2 C2 C2 C2 C2 C2 C2 C2 C2 C2 C2 C2 C2 C2 C2 C2 C2 C2 C2 C2 C2 C2 C2 C2 C2 C2 C2 C2 C2 C2 C2 C2 C2 C2 C2 2 2 2 2 2 2 2 2 2 2 2 2 2 2 2 2 2 B&2 B&2 B&2 B&2 B&2 B&2 B&2 B&2 B&2 B&2 B&2 B&2 B&2 B&2 B&2 B&2 B&2 B&2 B&2 B&2 B&2 B&2 B&2 B&2 B&2 B&2 B&2 B&2 B&2 B&2 B&2 B&2 B&2 B&2 B&2 B&2 B&2 B&2 B&2 B&2 B&2 B&2 B&2 B&2 B&2 B&2 B&2 B&2 B&2 B&2 B&2 B&2 B&2 B&2 B&2 B&2 B&2 B&2 B&2 B&2 B&2 B&2 B&2 B&2 B&2 B&2 B&2 B&2 B&2 B&2 B&2 B&2 B&2 B&2 B&2 B&2 B&2 B&2 B&2 B&2 B&2 B&2 B&2 B&2 B&2 B&2 B&2 B&2 B&2 B&2 B&2 B&2 B&2 B&2 B&2 B&2 B&2 B&2 B&2 B&2 B&2 B&2 B&2 B&2 B&2 B&2 B&2 B&2 B&2 B&2 B&2 B&2 B&2 B&2 B&2 B&2 B&2 B&2 B&2 B&2 B&2 B&2 B&2 B&2 B&2 B&2 B&2 B&2 B&2 B&2 B&2 B&2 B&2 B&2 B&2 B&2 B&2 B&2 B&2 B&2 B&2 B&2 B&2 B&2 B&2 B&2 B&2 B&2 B&2 B&2 B&2 B&2 B&2 B&2 B&2 B&2 B&2 B&2 B&2 B&2 B&2 B&2 &2 &2 &2 &2 &2 &2 &2 &2 &2 &2 &2 &2 &2 &2 2 2 2 +C +C +C +C +C +C +C +C +C +C +C +C +C +C +C +C +C +C +C +C +C +C +C +C +C +C +C +C +C +C +C +C +C +C +C +C +C +C +C +C +C +C +C +C +C +C +C +C +C +C +C +C +C +C +C +C +C +C +C +C +C +C +C +C +C +C +C +C +C +C +C +C +C +C +C +C +C +C +C +C +C +C +C +C +C +C +C +C +C +C +C +C +C +C +C +C +C +C +C +C +C +C +C +C +C +C +C +C +C +C +C +C +C +C +C +C +C +C +C +C +C +C +C +C +C +C +C +C +C +C +C +C +C +C +C +C +C +C +C +C +C +C +C +C +C +C +C +C +C +C +C +C +C +C +C +C +C +C +C +C +C +C +C +C +C +C +C +C +C +C +C +C +C +C +C +C +C +C +C +C +C +C +C +C +C +C +C +C +C +C +C +C +C +C +C +C +C +C +C +C +C +C >+C >+C >+C >+C >+C >+C >+C >+C >+C >+C >+C >+C >+C >+C >+C >+C >+C >+C >+C >+C >+C >+C >+C >+C >+C >+C >+C >+C >+C >+C >+C >+C >+C >+C >+C >+C >+C >+C >+C >+C >+C >+C >+C >+C >+C >+C >+C >+C >+C >+C >+C >+C >+C >+C >+C >+C >+C >+C >+C >+C >+C >+C >+C >+C >+C >+C >+C >+C >+C >+C >+C >+C >+C >+C >+C >+C >+C >+C >+C >+C >+C >+C >+C >+C >+C >+C >+C >+C >+C >+C >+C >+C >+C >+C >+C >+C >+C >+C >+C >+C >+C >+C >+C >+C >+C >+C >+C >+C >+C >+C >+C >+C >+C >+C >+C >+C >+C >+C >+C >+C >+C >+C >+C >+C >+C >+C >+C >+C >+C >+C >+C >+C >+C >+C >+C >+C >+C >+C >+C >+C >+C >+C >+C >+C >+C >+C >+C >+C >+C >+C >+C >+C >+C >+C >+C >+C >+C >+C >+C >+C >+C >+C >+C >+C >+C >+C >+C >+C >+C >+C >+C >+C >+C >+C >+C >+C >+C >+C >+C >+C >+C >+C >+C >+C >+C >+C >+C >+C >+C >+C >+C >+C >+C >+C >+C >+C +C +C +C +C +C +C ;+C ;+C ;+C ;+C ;+C ;+C ;+C ;+C ;+C ;+C ;+C ;+C ;+C ;+C ;+C ;+C ;+C ;+C ;+C ;+C ;+C ;+C ;+C ;+C ;+C ;+C ;+C ;+C ;+C ;+C ;+C ;+C ;+C ;+C ;+C ;+C ;+C ;+C ;+C ;+C ;+C ;+C ;+C ;+C ;+C ;+C ;+C ;+C ;+C ;+C ;+C ;+C ;+C ;+C ;+C ;+C ;+C ;+C ;+C ;+C ;+C ;+C ;+C ;+C ;+C ;+C ;+C ;+C ;+C ;+C ;+C ;+C ;+C ;+C ;+C ;+C ;+C ;+C ;+C ;+C ;+C ;+C ;+C ;+C ;+C ;+C ;+C ;+C ;+C ;+C ;+C ;+C ;+C ;+C ;+C ;+C ;+C ;+C ;+C ;+C ;+C ;+C ;+C ;+C ;+C ;+C ;+C ;+C ;+C ;+C ;+C ;+C ;+C ;+C ;+C ;+C ;+C ;+C ;+C ;+C ;+C ;+C ;+C ;+C ;+C ;+C ;+C ;+C ;+C ;+C ;+C ;+C ;+C ;+C ;+C ;+C ;+C ;+C ;+C ;+C ;+C ;+C ;+C ;+C ;+C ;+C ;+C ;+C ;+C ;+C ;+C ;+C ;+C ;+C ;+C ;+C ;+C ;+C ;+C ;+C ;+C ;+C ;+C ;+C ;+C ;+C ;+C ;+C ;+C ;+C ;+C ;+C ;+C ;+C ;+C ;+C ;+C ;+C ;+C ;+C ;+C ;+C ;+C ;+C ;+C ;+C ;+C ;+C ;+C ;+C ;+C ;+C ;+C ;+C ;+C ;+C +C +C +C +C +C +C +7C +7C +7C +7C +7C +7C +7C +7C +7C +7C +7C +7C +7C +7C +7C +7C +7C +7C +7C +7C +7C +7C +7C +7C +7C +7C +7C +7C +7C +7C +7C +7C +7C +7C +7C +7C +7C +7C +7C +7C +7C +7C +7C +7C +7C +7C +7C +7C +7C +7C +7C +7C +7C +7C +7C +7C +7C +7C +7C +7C +7C +7C +7C +7C +7C +7C +7C +7C +7C +7C +7C +7C +7C +7C +7C +7C +7C +7C +7C +7C +7C +7C +7C +7C +7C +7C +7C +7C +7C +7C +7C +7C +7C +7C +7C +7C +7C +7C +7C +7C +7C +7C +7C +7C +7C +7C +7C +7C +7C +7C +7C +7C +7C +7C +7C +7C +7C +7C +7C +7C +7C +7C +7C +7C +7C +7C +7C +7C +7C +7C +7C +7C +7C +7C +7C +7C +7C +7C +7C +7C +7C +7C +7C +7C +7C +7C +7C +7C +7C +7C +7C +7C +7C +7C +7C +7C +7C +7C +7C +7C +7C +7C +7C +7C +7C +7C +7C +7C +7C +7C +7C +7C +7C +7C +7C +7C +7C +7C +7C +7C +7C +7C +7C +7C +7C +7C +7C +7C +7C +7C +7C +7C +7C +7C +7C +7C +7C +7C +7C +7C +7C +7C +7C +7C +7C +7C +7C +7C +7C +7C +7C +7C +7C +7C +7C +7C +7C +7C +7C +7C +7C +7C 7C 7C 7C 7C /7C /7C /7C /7C /7C /7C /7C /7C /7C /7C /7C /7C /7C /7C /7C /7C /7C /7C /7C /7C /7C /7C /7C /7C /7C /7C /7C /7C /7C /7C /7C /7C /7C /7C /7C /7C /7C /7C /7C /7C /7C /7C /7C /7C /7C /7C /7C /7C /7C /7C /7C /7C /7C /7C /7C /7C /7C /7C /7C /7C /7C /7C /7C /7C /7C /7C /7C /7C /7C /7C /7C /7C /7C /7C /7C /7C /7C /7C /7C /7C /7C /7C /7C /7C /7C /7C /7C /7C /7C /7C /7C /7C /7C /7C /7C /7C /7C /7C /7C /7C /7C /7C /7C /7C /7C /7C /7C /7C /7C /7C /7C /7C /7C /7C /7C /7C /7C /7C /7C /7C /7C /7C /7C /7C /7C /7C /7C /7C /7C /7C /7C /7C /7C /7C /7C /7C /7C /7C /7C /7C /7C /7C /7C /7C /7C /7C /7C /7C /7C /7C /7C /7C /7C /7C /7C /7C /7C /7C /7C /7C /7C /7C /7C /7C /7C /7C /7C /7C /7C /7C /7C /7C /7C /7C /7C /7C /7C /7C /7C /7C /7C /7C /7C /7C /7C /7C /7C /7C /7C /7C /7C /7C /7C /7C /7C /7C /7C /7C /7C /7C /7C /7C /7C /7C /7C /7C /7C /7C /7C /7C /7C /7C /7C /7C /7C /7C /7C /7C /7C /7C /7C /7C 7C 7C 7C 7C 72C 72C 72C 72C 72C 72C 72C 72C 72C 72C 72C 72C 72C 72C 72C 72C 72C 72C 72C 72C 72C 72C 72C 72C 72C 72C 72C 72C 72C 72C 72C 72C 72C 72C 72C 72C 72C 72C 72C 72C 72C 72C 72C 72C 72C 72C 72C 72C 72C 72C 72C 72C 72C 72C 72C 72C 72C 72C 72C 72C 72C 72C 72C 72C 72C 72C 72C 72C 72C 72C 72C 72C 72C 72C 72C 72C 72C 72C 72C 72C 72C 72C 72C 72C 72C 72C 72C 72C 72C 72C 72C 72C 72C 72C 72C 72C 72C 72C 72C 72C 72C 72C 72C 72C 72C 72C 72C 72C 72C 72C 72C 72C 72C 72C 72C 72C 72C 72C 72C 72C 72C 72C 72C 72C 72C 72C 72C 72C 72C 72C 72C 72C 72C 72C 72C 72C 72C 72C 72C 72C 72C 72C 72C 72C 72C 72C 72C 72C 72C 72C 72C 72C 72C 72C 72C 72C 72C 72C 72C 72C 72C 72C 72C 72C 72C 72C 72C 72C 72C 72C 72C 72C 72C 72C 72C 72C 72C 72C 72C 72C 72C 72C 72C 72C 72C 72C 72C 72C 72C 72C 72C 72C 72C 72C 72C 72C 72C 72C 72C 72C 72C 72C 72C 72C 72C 72C 72C 72C 72C 72C 72C 72C 72C 72C 72C 72C 72C 72C 72C 2C 2C 2C 2C C C C C C C C C C C C C C C C C C C C C C C C C C C C C C C C C C C C C C C C C7 C7 C7 C7 C7 C7 C7 C7 C7 C7 C7 C7 C7 C7 C7 C7 C7 C7 C7 C7 C7 C7 C7 C7 C7 C7 C7 C7 C7 C7 C7 C7 C7 C7 C7 C7 C7 C7 C7 C7 C7 C7 C7 C7 C7 C7 C7 C7 C7 C7 C7 C7 C7 C7 C7 C7 C7 C7 C7 C7 C7 C7 C7 C7 C7 C7 C7 C7 C7 C7 C7 C7 C7 C7 C7 C7 C7 C7 C7 C7 C7 C7 C7 C7 C7 C7 C7 C7 C7 C7 C7 C7 C7 C7 C7 C7 C7 C7 C7 C7 C7 C7 C7 C7 C7 C7 C7 C7 C7 C7 C7 C7 C7 C7 C7 C7 C7 C7 C7 C7 C7 C7 C7 C7 C7 C7 C7 C7 C7 C7 C7 C7 C7 C7 C7 C7 C7 C7 C7 C7 C7 C7 C7 C7 C7 C7 C7 C7 C7 C7 C7 C7 C7 C7 C7 C7 C7 C7 C7 C7 C7 C7 C7 C7 C7 C7 C7 C7 C7 C7 C7 C7 C7 C7 C7 C7 C7 C7 C7 C7 C7 C7 C7 C7 C7 C7 C7 C7 C7 C7 C7 C7 C7 C7 C7 C7 C7 C7 C7 C7 C7 C7 C7 C7 C7 C7 C7 C7 C7 C7 C7 C7 C7 C7 C7 C7 C7 C7 C7 C7 C7 C7 C7 C7 C7 C7 C7 C7 C7 C7 C7 C7 C7 C7 C7 C7 C7 C7 C7 C7 C7 C7 C7 C7 C7 C7 C7 C7 C7 C7 C7 C7 C7 C7 C7 C7 C7 C7 C7 C7 C7 C7 C7 C7 C7 C7 C7 C7 C7 C7 C7 C7 C7 C7 C7 C7 C7 C7 C7 C7 C7 C7 C7 C7 C7 C7 C7 C7 C7 C7 C7 C7 C7 C7 C7 C7 C7 C7 C7 C7 C7 C7 C7 C7 C7 C7 C7 C7 C7 C7 C7 C7 C7 C7 C7 C7 C7 C7 C7 C7 C7 C7 C7 C7 C7 C7 C7 C7 C7 C7 C7 C7 C7 C7 C7 C7 C7 C7 C7 C7 C7 C7 C7 C7 C7 C7 C7 C7 C7 C7 C7 C7 C7 C7 C7 C7 C7 C7 C7 C7 C7 C7 C7 C7 C7 C7 C7 C7 C7 C7 C7 C7 C7 C7 C7 C7 C7 C7 C7 C7 C7 C7 C7 C7 C7 C7 C7 C7 C7 C7 C7 C7 C7 C7 C7 C7 C7 C7 C7 C7 C7 C7 C7 C7 C7 C7 C7 C7 C7 C7 C7 C7 C7 C7 C7 C7 C7 C7 C7 C7 C7 C7 C7 C7 C7 C7 C7 C7 C7 C7 C7 C7 C7 C7 C7 C7 C7 C7 C7 C7 C7 C7 C7 C7 C7 C7 C7 C7 C7 C7 C7 C7 C7 C7 C7 C7 C7 C7 C7 C7 C7 C7 C7 C7 C7 C7 C7 C7 C7 C7 C7 C7 C7 C7 C7 C7 C7 C7 C7 C7 C7 C7 C7 C7 C7 C7 C7 C7 C7 C7 C7 C7 C7 C7 C7 C7 C7 C7 C7 C7 C7 C7 C7 C7 C7 C7 C7 C7 C7 C7 C7 C7 C7 C7 C7 C7 C7 C7 C7 C7 C7 C7 C7 C7 C7 C7 C7 C7 C7 C7 C7 C7 C7 C7 C7 C7 C7 C7 C7 C7 C7 C7 C7 C7 C7 C7 C7 C7 C7 C7 C7 C7 C7 C7 C7 C7 C7 C7 C7 C7 C7 C7 C7 C7 C7 C7 C7 C7 C7 C7 C7 C7 C7 C7 C7 C7 C7 C7 C7 C7 C7 C7 C7 C7 C7 C7 C7 C7 C7 C7 C7 C7 C7 C7 C7 C7 C7 C7 C7 C7 C7 C7 C7 C7 C7 C7 C7 C7 C7 C7 C7 C7 C7 C7 C7 C7 C7 C7 C7 C7 C7 C7 C7 C7 C7 C7 C7 C7 C7 C7 C7 C7 C7 C7 C7 C7 C7 C7 C7 C7 C7 C7 C7 C7 C7 C7 C7 C7 C7 C7 C7 C7 C7 C7 C7 C7 C7 C7 C7 C7 C7 C7 C7 C7 C7 C7 C7 C7 C7 C7 C7 C7 C7 C7 C7 C7 C7 C7 C7 C7 C7 C7 C7 C7 C7 C7 C7 C7 C7 C7 C7 C7 C7 C7 C7 C7 C7 C7 C7 C7 C7 C7 C7 C7 C7 C7 C7 C7 C7 C7 C7 C7 C7 C7 C7 C7 C7 C7 C7 C7 C7 C7 C7 C7 C7 C7 C7 C7 C7 C7 C7 C7 C7 C7 C7 C7 C7 C7 C7 C7 C7 C7 C7 C7 C7 C7 C7 C7 C7 C7 C7 C7 C7 C7 C7 C7 C7 C7 C7 C7 C7 C7 C7 C7 C7 C7 C7 C7 C7 C7 C7 C7 C7 C7 C7 C7 C7 C7 C7 C7 C7 C7 C7 C7 C7 C7 C7 C7 C7 C7 C7 C7 C7 C7 C7 C7 C7 C7 C7 C7 C7 C7 C7 C7 C7 C7 C7 C7 C7 C7 C7 C7 C7 C7 C7 C7 C7 C7 C7 C7 C7 C7 C7 C7 C7 C7 C7 C7 C7 C7 C7 C7 C7 C7 C7 C7 C7 C7 C7 C7 C7 C7 C7 C7 C7 C7 C7 C7 C7 C7 C7 C7 C7 C7 C7 C7 C7 C7 C7 C7 C7 C7 C7 C7 C7 C7 C7 C7 C7 C7 C7 C7 C7 C7 C7 C7 C7 C7 C7 C7 C7 C7 C7 C7 C7 C7 C7 C7 C7 C7 C7 C7 C7 C7 C7 C7 C7 C7 C7 C7 C7 C7 C7 C7 C7 C7 C7 C7 C7 C7 C7 C7 C7 C7 C7 C7 C7 C7 C7 C7 C7 C7 C7 C7 C7 C7 C7 C7 C7 C7 C7 C7 C7 C7 C7 C7 C7 C7 C7 C7 C7 C7 C7 C7 C7 C7 C7 C7 C7 C7 C7 C7 C7 C7 C7 C7 C7 C7 C7 C7 C7 C7 C7 C7 C7 C7 C7 C7 C7 C7 C7 C7 C7 C7 C7 C7 C7 C7 C7 C7 C7 C7 C7 C7 C7 C7 C7 C7 C7 C7 C7 C7 C7 C7 C7 C7 C7 C7 C7 C7 C7 C7 C7 C7 C7 C7 C7 C7 C7 C7 C7 C7 C7 C7 C7 C7 C7 C7 C7 C7 C7 C7 C7 C7 C7 C7 C7 C7 C7 C7 C7 C7 C7 C7 C7 C7 C7 C7 C7 C7 C7 C7 C7 C7 C7 C7 C7 C7 C7 C7 C7 C7 C7 C7 C7 C7 C7 C7 C7 C7 C7 C7 C7 C7 C7 C7 C7 C7 C7 C7 C7 C7 C7 C7 C7 C7 C7 C7 C7 C7 C7 C7 C7 C7 C7 C7 C7 C7 C7 C7 C7 C7 C7 C7 C7 C7 C7 C7 C7 C7 C7 C7 C7 C7 C7 C7 C7 C7 C7 C7 C7 C7 C7 C7 C7 C7 C7 C7 C7 C7 C7 C7 C7 C7 C7 C7 C7 C7 C7 C7 C7 C7 C7 C7 C7 C7 C7 C7 C7 C7 C7 C7 C7 C7 C7 C7 C7 C7 C7 C7 C7 C7 C7 C7 C7 C7 C7 C7 C7 C7 C7 C7 C7 C7 C7 C7 C7 C7 C7 C7 C7 C7 C7 C7 C7 C7 C7 C7 C7 C7 C7 C7 C7 C7 C7 C7 C7 C7 C7 C7 C7 C7 C7 C7 C7 C7 C7 C7 C7 C7 C7 C7 C7 C7 C7 C7 C7 C7 C7 C7 C7 C7 C7 C7 C7 C7 C7 C7 C7 C7 C7 C7 C7 C7 C7 C7 C7 C7 C7 C7 C7 C7 C7 C7 C7 C7 C7 C7 C7 C7 C7 C7 C7 C7 C7 C7 C7 C7 C7 C7 C7 C7 C7 C7 C7 C7 C7 C7 C7 C7 C7 C7 C7 C7 C7 C7 C7 C7 C7 C7 C7 C7 C7 C7 C7 C7 C7 C7 C7 C7 C7 C7 C7 C7 C7 C7 C7 C7 C7 C7 C7 C7 C7 C7 C7 C7 C7 C7 C7 C7 C7 C7 C7 C7 C7 C7 C7 C7 C7 C7 C7 C7 C7 C7 C7 C7 7 7 7 7 7 7 7 7 7 7 7 7 7 7 7 7 7 7 7 7 7 7 7 7 7  