                                                                                                                        J J J J J J J J J J J J J J J J J J J J J J J J J J J J J J J J J J J J J J J J J J J J J J J J J J J J J J J J J J J J J J J J J J J J J J J J J J J J J J J J J J J J J J J J J J J J J J J J                         J J J J J J J J J J J J J J J J J J J J J J J J J J J J J J J J J J J J J J J J J J J J J J J J J J J J J J J J J J J J J J J J J J J J J J J J J J J J J J J J J J J J J J J J J J J J J J J J                         F F F F F F F F F F F F F F F F F F F F F F F F F F F F F F F F F F F F F F F F F F F F F F F F F F F F F F F F F F F F F F F F F F F F F F F F F F F F F F F F F F F F F F F F F F F F F F F F                         FC FC FC FC FC FC FC FC FC FC FC FC FC FC FC FC FC FC FC FC FC FC FC FC FC FC FC FC FC FC FC FC FC FC FC FC FC FC FC FC FC FC FC FC FC FC FC FC FC FC FC FC FC FC FC FC FC FC FC FC FC FC FC FC FC FC FC FC FC FC FC FC FC FC FC FC FC FC FC FC FC FC FC FC FC FC FC FC FC FC FC FC FC FC FC FC                         CF CF CF CF CF CF CF CF CF CF CF CF CF CF CF CF CF CF CF CF CF CF CF CF CF CF CF CF CF CF CF CF CF CF CF CF CF CF CF CF CF CF CF CF CF CF CF CF CF CF CF CF CF CF CF CF CF CF CF CF CF CF CF CF CF CF CF CF CF CF CF CF CF CF CF CF CF CF CF CF CF CF CF CF CF CF CF CF CF CF CF CF CF CF CF CF                         EB EB EB EB EB EB EB EB EB EB EB EB EB EB EB EB EB EB EB EB EB EB EB EB EB EB EB EB EB EB EB EB EB EB EB EB EB EB EB EB EB EB EB EB EB EB EB EB B B B B B B B B B B B B BC BC BC BC BC BC BC BC BC BC BC BC BC BC BC BC BC BC BC BC BC BC BC BC BC BC BC BC BC BC BC BC BC BC BC BC C C C C C C C C C C C C             EB> EB> EB> EB> EB> EB> EB> EB> EB> EB> EB> EB> EB> EB> EB> EB> EB> EB> EB> EB> EB> EB> EB> EB> EB> EB> EB> EB> EB> EB> EB> EB> EB> EB> EB> EB> EB> EB> EB> EB> EB> EB> EB> EB> EB> EB> EB> EB> B> B> B> B> B> B> B> B> B> B> B> B> BF> BF> BF> BF> BF> BF> BF> BF> BF> BF> BF> BF> BF> BF> BF> BF> BF> BF> BF> BF> BF> BF> BF> BF> BF> BF> BF> BF> BF> BF> BF> BF> BF> BF> BF> BF> F F F F F F F F F F F F             EB> EB> EB> EB> EB> EB> EB> EB> EB> EB> EB> EB> EB> EB> EB> EB> EB> EB> EB> EB> EB> EB> EB> EB> EB> EB> EB> EB> EB> EB> EB> EB> EB> EB> EB> EB> EB> EB> EB> EB> EB> EB> EB> EB> EB> EB> EB> EB> B> B> B> B> B> B> B> B> B> B> B> B> BF> BF> BF> BF> BF> BF> BF> BF> BF> BF> BF> BF> BF> BF> BF> BF> BF> BF> BF> BF> BF> BF> BF> BF> BF> BF> BF> BF> BF> BF> BF> BF> BF> BF> BF> BF> F F F F F F F F F F F F             C:> C:> C:> C:> C:> C:> C:> C:> C:> C:> C:> C:> C:> C:> C:> C:> C:> C:> C:> C:> C:> C:> C:> C:> C:> C:> C:> C:> C:> C:> C:> C:> C:> C:> C:> C:> C:> C:> C:> C:> C:> C:> C:> C:> C:> C:> C:> C:> :> :> :> :> :> :> :> :> :> :> :> :> B:> B:> B:> B:> B:> B:> B:> B:> B:> B:> B:> B:> B:> B:> B:> B:> B:> B:> B:> B:> B:> B:> B:> B:> B:> B:> B:> B:> B:> B:> B:> B:> B:> B:> B:> B:> B B B B B B B B B B B B             C:7> C:7> C:7> C:7> C:7> C:7> C:7> C:7> C:7> C:7> C:7> C:7> C:7> C:7> C:7> C:7> C:7> C:7> C:7> C:7> C:7> C:7> C:7> C:7> C:7> C:7> C:7> C:7> C:7> C:7> C:7> C:7> C:7> C:7> C:7> C:7> C:7> C:7> C:7> C:7> C:7> C:7> C:7> C:7> C:7> C:7> C:7> C:7> :7> :7> :7> :7> :7> :7> :7> :7> :7> :7> :7> :7> E:7> E:7> E:7> E:7> E:7> E:7> E:7> E:7> E:7> E:7> E:7> E:7> E:7> E:7> E:7> E:7> E:7> E:7> E:7> E:7> E:7> E:7> E:7> E:7> E:7> E:7> E:7> E:7> E:7> E:7> E:7> E:7> E:7> E:7> E:7> E:7> E E E E E E E E E E E E             F7>: F7>: F7>: F7>: F7>: F7>: F7>: F7>: F7>: F7>: F7>: F7>: F7>: F7>: F7>: F7>: F7>: F7>: F7>: F7>: F7>: F7>: F7>: F7>: F7>: F7>: F7>: F7>: F7>: F7>: F7>: F7>: F7>: F7>: F7>: F7>: F7>: F7>: F7>: F7>: F7>: F7>: F7>: F7>: F7>: F7>: F7>: F7>: 7>: 7>: 7>: 7>: 7>: 7>: 7>: 7>: 7>: 7>: 7>: 7>: H7>: H7>: H7>: H7>: H7>: H7>: H7>: H7>: H7>: H7>: H7>: H7>: H7>: H7>: H7>: H7>: H7>: H7>: H7>: H7>: H7>: H7>: H7>: H7>: H7>: H7>: H7>: H7>: H7>: H7>: H7>: H7>: H7>: H7>: H7>: H7>: H H H H H H H H H H H H             J96> J96> J96> J96> J96> J96> J96> J96> J96> J96> J96> J96> J96> J96> J96> J96> J96> J96> J96> J96> J96> J96> J96> J96> J96> J96> J96> J96> J96> J96> J96> J96> J96> J96> J96> J96> J96> J96> J96> J96> J96> J96> J96> J96> J96> J96> J96> J96> 96> 96> 96> 96> 96> 96> 96> 96> 96> 96> 96> 96> H96> H96> H96> H96> H96> H96> H96> H96> H96> H96> H96> H96> H96> H96> H96> H96> H96> H96> H96> H96> H96> H96> H96> H96> H96> H96> H96> H96> H96> H96> H96> H96> H96> H96> H96> H96> H H H H H H H H H H H H             J629 J629 J629 J629 J629 J629 J629 J629 J629 J629 J629 J629 J629 J629 J629 J629 J629 J629 J629 J629 J629 J629 J629 J629 J629 J629 J629 J629 J629 J629 J629 J629 J629 J629 J629 J629 J629 J629 J629 J629 J629 J629 J629 J629 J629 J629 J629 J629 629 629 629 629 629 629 629 629 629 629 629 629 L629 L629 L629 L629 L629 L629 L629 L629 L629 L629 L629 L629 L629 L629 L629 L629 L629 L629 L629 L629 L629 L629 L629 L629 L629 L629 L629 L629 L629 L629 L629 L629 L629 L629 L629 L629 L L L L L L L L L L L L             N296 N296 N296 N296 N296 N296 N296 N296 N296 N296 N296 N296 N296 N296 N296 N296 N296 N296 N296 N296 N296 N296 N296 N296 N296 N296 N296 N296 N296 N296 N296 N296 N296 N296 N296 N296 N296 N296 N296 N296 N296 N296 N296 N296 N296 N296 N296 N296 296 296 296 296 296 296 296 296 296 296 296 296 J296 J296 J296 J296 J296 J296 J296 J296 J296 J296 J296 J296 J296 J296 J296 J296 J296 J296 J296 J296 J296 J296 J296 J296 J296 J296 J296 J296 J296 J296 J296 J296 J296 J296 J296 J296 J J J J J J J J J J J J             O2.7 O2.7 O2.7 O2.7 O2.7 O2.7 O2.7 O2.7 O2.7 O2.7 O2.7 O2.7 O2.7 O2.7 O2.7 O2.7 O2.7 O2.7 O2.7 O2.7 O2.7 O2.7 O2.7 O2.7 O2.7 O2.7 O2.7 O2.7 O2.7 O2.7 O2.7 O2.7 O2.7 O2.7 O2.7 O2.7 O2.7 O2.7 O2.7 O2.7 O2.7 O2.7 O2.7 O2.7 O2.7 O2.7 O2.7 O2.7 2.7 2.7 2.7 2.7 2.7 2.7 2.7 2.7 2.7 2.7 2.7 2.7 N2.7 N2.7 N2.7 N2.7 N2.7 N2.7 N2.7 N2.7 N2.7 N2.7 N2.7 N2.7 N2.7 N2.7 N2.7 N2.7 N2.7 N2.7 N2.7 N2.7 N2.7 N2.7 N2.7 N2.7 N2.7 N2.7 N2.7 N2.7 N2.7 N2.7 N2.7 N2.7 N2.7 N2.7 N2.7 N2.7 N N N N N N N N N N N N             O+.2 O+.2 O+.2 O+.2 O+.2 O+.2 O+.2 O+.2 O+.2 O+.2 O+.2 O+.2 O+.2 O+.2 O+.2 O+.2 O+.2 O+.2 O+.2 O+.2 O+.2 O+.2 O+.2 O+.2 O+.2 O+.2 O+.2 O+.2 O+.2 O+.2 O+.2 O+.2 O+.2 O+.2 O+.2 O+.2 O+.2 O+.2 O+.2 O+.2 O+.2 O+.2 O+.2 O+.2 O+.2 O+.2 O+.2 O+.2 +.2 +.2 +.2 +.2 +.2 +.2 +.2 +.2 +.2 +.2 +.2 +.2 Q+.2 Q+.2 Q+.2 Q+.2 Q+.2 Q+.2 Q+.2 Q+.2 Q+.2 Q+.2 Q+.2 Q+.2 Q+.2 Q+.2 Q+.2 Q+.2 Q+.2 Q+.2 Q+.2 Q+.2 Q+.2 Q+.2 Q+.2 Q+.2 Q+.2 Q+.2 Q+.2 Q+.2 Q+.2 Q+.2 Q+.2 Q+.2 Q+.2 Q+.2 Q+.2 Q+.2 Q Q Q Q Q Q Q Q Q Q Q Q             R.2+ R.2+ R.2+ R.2+ R.2+ R.2+ R.2+ R.2+ R.2+ R.2+ R.2+ R.2+ R.2+ R.2+ R.2+ R.2+ R.2+ R.2+ R.2+ R.2+ R.2+ R.2+ R.2+ R.2+ R.2+ R.2+ R.2+ R.2+ R.2+ R.2+ R.2+ R.2+ R.2+ R.2+ R.2+ R.2+ R.2+ R.2+ R.2+ R.2+ R.2+ R.2+ R.2+ R.2+ R.2+ R.2+ R.2+ R.2+ .2+ .2+ .2+ .2+ .2+ .2+ .2+ .2+ .2+ .2+ .2+ .2+ O.2+ O.2+ O.2+ O.2+ O.2+ O.2+ O.2+ O.2+ O.2+ O.2+ O.2+ O.2+ O.2+ O.2+ O.2+ O.2+ O.2+ O.2+ O.2+ O.2+ O.2+ O.2+ O.2+ O.2+ O.2+ O.2+ O.2+ O.2+ O.2+ O.2+ O.2+ O.2+ O.2+ O.2+ O.2+ O.2+ O O O O O O O O O O O O             Q2-*& Q2-*& Q2-*& Q2-*& Q2-*& Q2-*& Q2-*& Q2-*& Q2-*& Q2-*& Q2-*& Q2-*& Q2-*& Q2-*& Q2-*& Q2-*& Q2-*& Q2-*& Q2-*& Q2-*& Q2-*& Q2-*& Q2-*& Q2-*& Q2-*& Q2-*& Q2-*& Q2-*& Q2-*& Q2-*& Q2-*& Q2-*& Q2-*& Q2-*& Q2-*& Q2-*& Q2-*& Q2-*& Q2-*& Q2-*& Q2-*& Q2-*& Q2-*& Q2-*& Q2-*& Q2-*& Q2-*& Q2-*& 2-*& 2-*& 2-*& 2-*& 2-*& 2-*& 2-*& 2-*& 2-*& 2-*& 2-*& 2-*& O2-*& O2-*& O2-*& O2-*& O2-*& O2-*& O2-*& O2-*& O2-*& O2-*& O2-*& O2-*& O2-*& O2-*& O2-*& O2-*& O2-*& O2-*& O2-*& O2-*& O2-*& O2-*& O2-*& O2-*& O2-*& O2-*& O2-*& O2-*& O2-*& O2-*& O2-*& O2-*& O2-*& O2-*& O2-*& O2-*& O2-*& O2-*& O2-*& O2-*& O2-*& O2-*& O2-*& O2-*& O2-*& O2-*& O2-*& O2-*& 2-*& 2-*& 2-*& 2-*& 2-*& 2-*& 2-*& 2-*& 2-*& 2-*& 2-*& 2-*& N2-*& N2-*& N2-*& N2-*& N2-*& N2-*& N2-*& N2-*& N2-*& N2-*& N2-*& N2-*& N2-*& N2-*& N2-*& N2-*& N2-*& N2-*& N2-*& N2-*& N2-*& N2-*& N2-*& N2-*& N2-*& N2-*& N2-*& N2-*& N2-*& N2-*& N2-*& N2-*& N2-*& N2-*& N2-*& N2-*& N2-*& N2-*& N2-*& N2-*& N2-*& N2-*& N2-*& N2-*& N2-*& N2-*& N2-*& N2-*& 2-*& 2-*& 2-*& 2-*& 2-*& 2-*& 2-*& 2-*& 2-*& 2-*& 2-*& 2-*& L2-*& L2-*& L2-*& L2-*& L2-*& L2-*& L2-*& L2-*& L2-*& L2-*& L2-*& L2-*& L L L L L L L L L L L L L L L L L L L L L L L L L L L L L L L L L L L L             J J J J J J J J J J J J J J J J J J J J J J J J J J J J J J J J J J J J J J J J J J J J J J J J             H H H H H H H H H H H H H H H H H H H H H H H H H H H H H H H H H H H H H H H H H H H H H H H H             F F F F F F F F F F F F F F F F F F F F F F F F F F F F F F F F F F F F F F F F F F F F F F F F F F F F F F F F F F F F FE FE FE FE FE FE FE FE FE FE FE FE FE FE FE FE FE FE FE FE FE FE FE FE FE FE FE FE FE FE E E E E E E E E E E E E E E E E E E             FJOC FJOC FJOC FJOC FJOC FJOC FJOC FJOC FJOC FJOC FJOC FJOC FJOC FJOC FJOC FJOC FJOC FJOC FJOC FJOC FJOC FJOC FJOC FJOC FJOC FJOC FJOC FJOC FJOC FJOC FJOC FJOC FJOC FJOC FJOC FJOC FJOC FJOC FJOC FJOC FJOC FJOC FJOC FJOC FJOC FJOC FJOC FJOC FJO FJO FJO FJO FJO FJO FJO FJO FJO FJO FJO FJO FJOA FJOA FJOA FJOA FJOA FJOA FJOA FJOA FJOA FJOA FJOA FJOA FJOA FJOA FJOA FJOA FJOA FJOA FJOA FJOA FJOA FJOA FJOA FJOA FJOA FJOA FJOA FJOA FJOA FJOA FJOA FJOA FJOA FJOA FJOA FJOA OA OA OA OA OA OA OA OA OA OA OA OA O O O O O        FJO? FJO? FJO? FJO? FJO? FJO? FJO? FJO? FJO? FJO? FJO? FJO? FJO? FJO? FJO? FJO? FJO? FJO? FJO? FJO? FJO? FJO? FJO? FJO? FJO? FJO? FJO? FJO? FJO? FJO? FJO? FJO? FJO? FJO? FJO? FJO? FJO? FJO? FJO? FJO? FJO? FJO? FJO? FJO? FJO? FJO? FJO? FJO? FJO FJO FJO FJO FJO FJO FJO FJO FJO FJO FJO FJO FJO> FJO> FJO> FJO> FJO> FJO> FJO> FJO> FJO> FJO> FJO> FJO> FJO> FJO> FJO> FJO> FJO> FJO> FJO> FJO> FJO> FJO> FJO> FJO> FJO> FJO> FJO> FJO> FJO> FJO> FJO> FJO> FJO> FJO> FJO> FJO> O> O> O> O> O> O> O> O> O> O> O> O> O O O O O        KF< KF< KF< KF< KF< KF< KF< KF< KF< KF< KF< KF< KF< KF< KF< KF< KF< KF< KF< KF< KF< KF< KF< KF< KF< KF< KF< KF< KF< KF< KF< KF< KF< KF< KF< KF< KF< KF< KF< KF< KF< KF< KF< KF< KF< KF< KF< KF< F F F F F F F F F F F F FM> FM> FM> FM> FM> FM> FM> FM> FM> FM> FM> FM> FM> FM> FM> FM> FM> FM> FM> FM> FM> FM> FM> FM> FM> FM> FM> FM> FM> FM> FM> FM> FM> FM> FM> FM> M> M> M> M> M> M> M> M> M> M> M> M>             K< K< K< K< K< K< K< K< K< K< K< K< K< K< K< K< K< K< K< K< K< K< K< K< K< K< K< K< K< K< K< K< K< K< K< K< K< K< K< K< K< K< K< K< K< K< K< K<             J: J: J: J: J: J: J: J: J: J: J: J: J: J: J: J: J: J: J: J: J: J: J: J: J: J: J: J: J: J: J: J: J: J: J: J: J: J: J: J: J: J: J: J: J: J: J: J:             H9 H9 H9 H9 H9 H9 H9 H9 H9 H9 H9 H9 H9 H9 H9 H9 H9 H9 H9 H9 H9 H9 H9 H9 H9 H9 H9 H9 H9 H9 H9 H9 H9 H9 H9 H9 H9 H9 H9 H9 H9 H9 H9 H9 H9 H9 H9 H9             F7 F7 F7 F7 F7 F7 F7 F7 F7 F7 F7 F7 F7 F7 F7 F7 F7 F7 F7 F7 F7 F7 F7 F7 F7 F7 F7 F7 F7 F7 F7 F7 F7 F7 F7 F7 F7 F7 F7 F7 F7 F7 F7 F7 F7 F7 F7 F7             E5 E5 E5 E5 E5 E5 E5 E5 E5 E5 E5 E5 E5 E5 E5 E5 E5 E5 E5 E5 E5 E5 E5 E5 E5 E5 E5 E5 E5 E5 E5 E5 E5 E5 E5 E5 E5 E5 E5 E5 E5 E5 E5 E5 E5 E E E E E E E E E E E E E E E EC EC EC EC EC EC EC EC EC EC EC EC EC EC EC EC EC EC EC EC EC EC EC EC EC EC EC EC EC EC EC EC EC EC EC EC C C C C C C C C C C C C             HEMA HEMA HEMA HEMA HEMA HEMA HEMA HEMA HEMA HEMA HEMA HEMA HEMA HEMA HEMA HEMA HEMA HEMA HEMA HEMA HEMA HEMA HEMA HEMA HEMA HEMA HEMA HEMA HEMA HEMA HEMA HEMA HEMA HEMA HEMA HEMA HEMA HEMA HEMA HEMA HEMA HEMA HEMA HEMA HEMA HEMA HEMA HEMA HEM HEM HEM HEM HEM HEM HEM HEM HEM HEM HEM HEM HEM? HEM? HEM? HEM? HEM? HEM? HEM? HEM? HEM? HEM? HEM? HEM? HEM? HEM? HEM? HEM? HEM? HEM? HEM? HEM? HEM? HEM? HEM? HEM? HEM? HEM? HEM? HEM? HEM? HEM? HEM? HEM? HEM? HEM? HEM? HEM? ? ? ? ? ? ? ? ? ? ? ? ?             HME> HME> HME> HME> HME> HME> HME> HME> HME> HME> HME> HME> HME> HME> HME> HME> HME> HME> HME> HME> HME> HME> HME> HME> HME> HME> HME> HME> HME> HME> HME> HME> HME> HME> HME> HME> HME> HME> HME> HME> HME> HME> HME> HME> HME> HME> HME> HME> HME HME HME HME HME HME HME HME HME HME HME HME HME< HME< HME< HME< HME< HME< HME< HME< HME< HME< HME< HME< HME< HME< HME< HME< HME< HME< HME< HME< HME< HME< HME< HME< HME< HME< HME< HME< HME< HME< HME< HME< HME< HME< HME< HME< < < < < < < < < < < < <             JE: JE: JE: JE: JE: JE: JE: JE: JE: JE: JE: JE: JE: JE: JE: JE: JE: JE: JE: JE: JE: JE: JE: JE: JE: JE: JE: JE: JE: JE: JE: JE: JE: JE: JE: JE: JE: JE: JE: JE: JE: JE: JE: JE: JE: JE: JE: JE: E E E E E E E E E E E E EK< EK< EK< EK< EK< EK< EK< EK< EK< EK< EK< EK< EK< EK< EK< EK< EK< EK< EK< EK< EK< EK< EK< EK< EK< EK< EK< EK< EK< EK< EK< EK< EK< EK< EK< EK< K< K< K< K< K< K< K< K< K< K< K< K<             J: J: J: J: J: J: J: J: J: J: J: J: J: J: J: J: J: J: J: J: J: J: J: J: J: J: J: J: J: J: J: J: J: J: J: J: J: J: J: J: J: J: J: J: J: J: J: J:             H9 H9 H9 H9 H9 H9 H9 H9 H9 H9 H9 H9 H9 H9 H9 H9 H9 H9 H9 H9 H9 H9 H9 H9 H9 H9 H9 H9 H9 H9 H9 H9 H9 H9 H9 H9 H9 H9 H9 H9 H9 H9 H9 H9 H9 H9 H9 H9             F7 F7 F7 F7 F7 F7 F7 F7 F7 F7 F7 F7 F7 F7 F7 F7 F7 F7 F7 F7 F7 F7 F7 F7 F7 F7 F7 F7 F7 F7 F7 F7 F7 F7 F7 F7 F7 F7 F7 F7 F7 F7 F7 F7 F7 F7 F7 F7             E5 E5 E5 E5 E5 E5 E5 E5 E5 E5 E5 E5 E5 E5 E5 E5 E5 E5 E5 E5 E5 E5 E5 E5 E5 E5 E5 E5 E5 E5 E5 E5 E5 E5 E5 E5 E5 E5 E5 E5 E5 E5 E5 E5 E5 E5 E5 E5             C3 C3 C3 C3 C3 C3 C3 C3 C3 C3 C3 C3 C3 C3 C3 C3 C3 C3 C3 C3 C3 C3 C3 C3 C3 C3 C3 C3 C3 C3 C3 C3 C3 C3 C3 C3 C3 C3 C3 C3 C3 C3 C3 C3 C3 C C C C C C C C C C C C C C C CA CA CA CA CA CA CA CA CA CA CA CA CA CA CA CA CA CA CA CA CA CA CA CA CA CA CA CA CA CA A A A A A A A A A A A A A A A A A A             CFK? CFK? CFK? CFK? CFK? CFK? CFK? CFK? CFK? CFK? CFK? CFK? CFK? CFK? CFK? CFK? CFK? CFK? CFK? CFK? CFK? CFK? CFK? CFK? CFK? CFK? CFK? CFK? CFK? CFK? CFK? CFK? CFK? CFK? CFK? CFK? CFK? CFK? CFK? CFK? CFK? CFK? CFK? CFK? CFK? CFK? CFK? CFK? CFK CFK CFK CFK CFK CFK CFK CFK CFK CFK CFK CFK CFK> CFK> CFK> CFK> CFK> CFK> CFK> CFK> CFK> CFK> CFK> CFK> CFK> CFK> CFK> CFK> CFK> CFK> CFK> CFK> CFK> CFK> CFK> CFK> CFK> CFK> CFK> CFK> CFK> CFK> CFK> CFK> CFK> CFK> CFK> CFK> > > > > > > > > > > > >             FKC< FKC< FKC< FKC< FKC< FKC< FKC< FKC< FKC< FKC< FKC< FKC< FKC< FKC< FKC< FKC< FKC< FKC< FKC< FKC< FKC< FKC< FKC< FKC< FKC< FKC< FKC< FKC< FKC< FKC< FKC< FKC< FKC< FKC< FKC< FKC< FKC< FKC< FKC< FKC< FKC< FKC< FKC< FKC< FKC< FKC< FKC< FKC< FKC FKC FKC FKC FKC FKC FKC FKC FKC FKC FKC FKC FKC: FKC: FKC: FKC: FKC: FKC: FKC: FKC: FKC: FKC: FKC: FKC: FKC: FKC: FKC: FKC: FKC: FKC: FKC: FKC: FKC: FKC: FKC: FKC: FKC: FKC: FKC: FKC: FKC: FKC: FKC: FKC: FKC: FKC: FKC: FKC: : : : : : : : : : : : :             HC9 HC9 HC9 HC9 HC9 HC9 HC9 HC9 HC9 HC9 HC9 HC9 HC9 HC9 HC9 HC9 HC9 HC9 HC9 HC9 HC9 HC9 HC9 HC9 HC9 HC9 HC9 HC9 HC9 HC9 HC9 HC9 HC9 HC9 HC9 HC9 HC9 HC9 HC9 HC9 HC9 HC9 HC9 HC9 HC9 HC9 HC9 HC9 C C C C C C C C C C C C CJ: CJ: CJ: CJ: CJ: CJ: CJ: CJ: CJ: CJ: CJ: CJ: CJ: CJ: CJ: CJ: CJ: CJ: CJ: CJ: CJ: CJ: CJ: CJ: CJ: CJ: CJ: CJ: CJ: CJ: CJ: CJ: CJ: CJ: CJ: CJ: J: J: J: J: J: J: J: J: J: J: J: J:             H9 H9 H9 H9 H9 H9 H9 H9 H9 H9 H9 H9 H9 H9 H9 H9 H9 H9 H9 H9 H9 H9 H9 H9 H9 H9 H9 H9 H9 H9 H9 H9 H9 H9 H9 H9 H9 H9 H9 H9 H9 H9 H9 H9 H9 H9 H9 H9             F7 F7 F7 F7 F7 F7 F7 F7 F7 F7 F7 F7 F7 F7 F7 F7 F7 F7 F7 F7 F7 F7 F7 F7 F7 F7 F7 F7 F7 F7 F7 F7 F7 F7 F7 F7 F7 F7 F7 F7 F7 F7 F7 F7 F7 F7 F7 F7             E6 E6 E6 E6 E6 E6 E6 E6 E6 E6 E6 E6 E6 E6 E6 E6 E6 E6 E6 E6 E6 E6 E6 E6 E6 E6 E6 E6 E6 E6 E6 E6 E6 E6 E6 E6 E6 E6 E6 E6 E6 E6 E6 E6 E6 E6 E6 E6             C4 C4 C4 C4 C4 C4 C4 C4 C4 C4 C4 C4 C4 C4 C4 C4 C4 C4 C4 C4 C4 C4 C4 C4 C4 C4 C4 C4 C4 C4 C4 C4 C4 C4 C4 C4 C4 C4 C4 C4 C4 C4 C4 C4 C4 C4 C4 C4             B2 B2 B2 B2 B2 B2 B2 B2 B2 B2 B2 B2 B2 B2 B2 B2 B2 B2 B2 B2 B2 B2 B2 B2 B2 B2 B2 B2 B2 B2 B2 B2 B2 B2 B2 B2 B2 B2 B2 B2 B2 B2 B2 B2 B2 B2 B2 B2 B B B B B B B B B B B B B3 B3 B3 B3 B3 B3 B3 B3 B3 B3 B3 B3 B3 B3 B3 B3 B3 B3 B3 B3 B3 B3 B3 B3 B3 B3 B3 B3 B3 B3 3 3 3 3 3 3 3 3 3 3 3 3 3 3 3 3 3 3             JEB2 JEB2 JEB2 JEB2 JEB2 JEB2 JEB2 JEB2 JEB2 JEB2 JEB2 JEB2 JEB2 JEB2 JEB2 JEB2 JEB2 JEB2 JEB2 JEB2 JEB2 JEB2 JEB2 JEB2 JEB2 JEB2 JEB2 JEB2 JEB2 JEB2 JEB2 JEB2 JEB2 JEB2 JEB2 JEB2 JEB2 JEB2 JEB2 JEB2 JEB2 JEB2 JEB2 JEB2 JEB2 JEB2 JEB2 JEB2 JEB JEB JEB JEB JEB JEB JEB JEB JEB JEB JEB JEB JEB0 JEB0 JEB0 JEB0 JEB0 JEB0 JEB0 JEB0 JEB0 JEB0 JEB0 JEB0 JEB0 JEB0 JEB0 JEB0 JEB0 JEB0 JEB0 JEB0 JEB0 JEB0 JEB0 JEB0 JEB0 JEB0 JEB0 JEB0 JEB0 JEB0 JEB0 JEB0 JEB0 JEB0 JEB0 JEB0 0 0 0 0 0 0 0 0 0 0 0 0             EJB. EJB. EJB. EJB. EJB. EJB. EJB. EJB. EJB. EJB. EJB. EJB. EJB. EJB. EJB. EJB. EJB. EJB. EJB. EJB. EJB. EJB. EJB. EJB. EJB. EJB. EJB. EJB. EJB. EJB. EJB. EJB. EJB. EJB. EJB. EJB. EJB. EJB. EJB. EJB. EJB. EJB. EJB. EJB. EJB. EJB. EJB. EJB. EJB EJB EJB EJB EJB EJB EJB EJB EJB EJB EJB EJB EJB- EJB- EJB- EJB- EJB- EJB- EJB- EJB- EJB- EJB- EJB- EJB- EJB- EJB- EJB- EJB- EJB- EJB- EJB- EJB- EJB- EJB- EJB- EJB- EJB- EJB- EJB- EJB- EJB- EJB- EJB- EJB- EJB- EJB- EJB- EJB- - - - - - - - - - - - -             C>F+ C>F+ C>F+ C>F+ C>F+ C>F+ C>F+ C>F+ C>F+ C>F+ C>F+ C>F+ C>F+ C>F+ C>F+ C>F+ C>F+ C>F+ C>F+ C>F+ C>F+ C>F+ C>F+ C>F+ C>F+ C>F+ C>F+ C>F+ C>F+ C>F+ C>F+ C>F+ C>F+ C>F+ C>F+ C>F+ C>F+ C>F+ C>F+ C>F+ C>F+ C>F+ C>F+ C>F+ C>F+ C>F+ C>F+ C>F+ C>F C>F C>F C>F C>F C>F C>F C>F C>F C>F C>F C>F C>F- C>F- C>F- C>F- C>F- C>F- C>F- C>F- C>F- C>F- C>F- C>F- C>F- C>F- C>F- C>F- C>F- C>F- C>F- C>F- C>F- C>F- C>F- C>F- C>F- C>F- C>F- C>F- C>F- C>F- C>F- C>F- C>F- C>F- C>F- C>F- - - - - - - - - - - - -             CF+ CF+ CF+ CF+ CF+ CF+ CF+ CF+ CF+ CF+ CF+ CF+ CF+ CF+ CF+ CF+ CF+ CF+ CF+ CF+ CF+ CF+ CF+ CF+ CF+ CF+ CF+ CF+ CF+ CF+ CF+ CF+ CF+ CF+ CF+ CF+ CF+ CF+ CF+ CF+ CF+ CF+ CF+ CF+ CF+ CF+ CF+ CF+ CF CF CF CF CF CF CF CF CF CF CF CF CF) CF) CF) CF) CF) CF) CF) CF) CF) CF) CF) CF) CF) CF) CF) CF) CF) CF) CF) CF) CF) CF) CF) CF) CF) CF) CF) CF) CF) CF) CF) CF) CF) CF) CF) CF) ) ) ) ) ) ) ) ) ) ) ) )             FC' FC' FC' FC' FC' FC' FC' FC' FC' FC' FC' FC' FC' FC' FC' FC' FC' FC' FC' FC' FC' FC' FC' FC' FC' FC' FC' FC' FC' FC' FC' FC' FC' FC' FC' FC' FC' FC' FC' FC' FC' FC' FC' FC' FC' FC' FC' FC' FC FC FC FC FC FC FC FC FC FC FC FC FC& FC& FC& FC& FC& FC& FC& FC& FC& FC& FC& FC& FC& FC& FC& FC& FC& FC& FC& FC& FC& FC& FC& FC& FC& FC& FC& FC& FC& FC& FC& FC& FC& FC& FC& FC& & & & & & & & & & & & &             ?F$ ?F$ ?F$ ?F$ ?F$ ?F$ ?F$ ?F$ ?F$ ?F$ ?F$ ?F$ ?F$ ?F$ ?F$ ?F$ ?F$ ?F$ ?F$ ?F$ ?F$ ?F$ ?F$ ?F$ ?F$ ?F$ ?F$ ?F$ ?F$ ?F$ ?F$ ?F$ ?F$ ?F$ ?F$ ?F$ ?F$ ?F$ ?F$ ?F$ ?F$ ?F$ ?F$ ?F$ ?F$ ?F$ ?F$ ?F$ F$ F$ F$ F$ F$ F$ F$ F$ F$ F$ F$ F$ >F$ >F$ >F$ >F$ >F$ >F$ >F$ >F$ >F$ >F$ >F$ >F$ >F$ >F$ >F$ >F$ >F$ >F$ >F$ >F$ >F$ >F$ >F$ >F$ >F$ >F$ >F$ >F$ >F$ >F$ >F$ >F$ >F$ >F$ >F$ >F$ >F >F >F >F >F >F >F >F >F >F >F >F F F F F F F F F F F F F ?F0 ?F0 ?F0 ?F0 ?F0 ?F0 ?F0 ?F0 ?F0 ?F0 ?F0 ?F0 ?F0 ?F0 ?F0 ?F0 ?F0 ?F0 ?F0 ?F0 ?F0 ?F0 ?F0 ?F0 ?F0 ?F0 ?F0 ?F0 ?F0 ?F0 ?F0 ?F0 ?F0 ?F0 ?F0 ?F0 ?F0 ?F0 ?F0 ?F0 ?F0 ?F0 ?F0 ?F0 ?F0 ?F0 ?F0 ?F0 F0 F0 F0 F0 F0 F0 F0 F0 F0 F0 F0 F0 AF0 AF0 AF0 AF0 AF0 AF0 AF0 AF0 AF0 AF0 AF0 AF0 AF0 AF0 AF0 AF0 AF0 AF0 AF0 AF0 AF0 AF0 AF0 AF0 AF0 AF0 AF0 AF0 AF0 AF0 AF AF AF AF AF AF AF AF AF AF AF AF AF AF AF AF AF AF F F F F F F F F F F F F CF0 CF0 CF0 CF0 CF0 CF0 CF0 CF0 CF0 CF0 CF0 CF0 CF0 CF0 CF0 CF0 CF0 CF0 CF0 CF0 CF0 CF0 CF0 CF0 CF0 CF0 CF0 CF0 CF0 CF0 CF0 CF0 CF0 CF0 CF0 CF0 CF0 CF0 CF0 CF0 CF0 CF0 CF0 CF0 CF0 CF0 CF0 CF0 0 0 0 0 0 0 0 0 0 0 0 0 ?0 ?0 ?0 ?0 ?0 ?0 ?0 ?0 ?0 ?0 ?0 ?0 ?0 ?0 ?0 ?0 ?0 ?0 ?0 ?0 ?0 ?0 ?0 ?0 ?0 ?0 ?0 ?0 ?0 ?0 ? ? ? ? ? ? ? ? ? ? ? ? ? ? ? ? ? ?             <E) <E) <E) <E) <E) <E) <E) <E) <E) <E) <E) <E) <E) <E) <E) <E) <E) <E) <E) <E) <E) <E) <E) <E) <E) <E) <E) <E) <E) <E) <E) <E) <E) <E) <E) <E) <E) <E) <E) <E) <E) <E) <E) <E) <E) <E) <E) <E) E) E) E) E) E) E) E) E) E) E) E) E) CE) CE) CE) CE) CE) CE) CE) CE) CE) CE) CE) CE) CE) CE) CE) CE) CE) CE) CE) CE) CE) CE) CE) CE) CE) CE) CE) CE) CE) CE) CE) CE) CE) CE) CE) CE) CE CE CE CE CE CE CE CE CE CE CE CE E E E E E E E E E E E E AE5 AE5 AE5 AE5 AE5 AE5 AE5 AE5 AE5 AE5 AE5 AE5 AE5 AE5 AE5 AE5 AE5 AE5 AE5 AE5 AE5 AE5 AE5 AE5 AE5 AE5 AE5 AE5 AE5 AE5 AE5 AE5 AE5 AE5 AE5 AE5 AE5 AE5 AE5 AE5 AE5 AE5 AE5 AE5 AE5 AE5 AE5 AE5 E5 E5 E5 E5 E5 E5 E5 E5 E5 E5 E5 E5 ?E5 ?E5 ?E5 ?E5 ?E5 ?E5 ?E5 ?E5 ?E5 ?E5 ?E5 ?E5 ?E5 ?E5 ?E5 ?E5 ?E5 ?E5 ?E5 ?E5 ?E5 ?E5 ?E5 ?E5 ?E5 ?E5 ?E5 ?E5 ?E5 ?E5 ?E ?E ?E ?E ?E ?E ?E ?E ?E ?E ?E ?E ?E ?E ?E ?E ?E ?E E E E E E E E E E E E E >E5 >E5 >E5 >E5 >E5 >E5 >E5 >E5 >E5 >E5 >E5 >E5 >E5 >E5 >E5 >E5 >E5 >E5 >E5 >E5 >E5 >E5 >E5 >E5 >E5 >E5 >E5 >E5 >E5 >E5 >E5 >E5 >E5 >E5 >E5 >E5 >E5 >E5 >E5 >E5 >E5 >E5 >E5 >E5 >E5 >E5 >E5 >E5 E5 E5 E5 E5 E5 E5 E5 E5 E5 E5 E5 E5 <E5 <E5 <E5 <E5 <E5 <E5 <E5 <E5 <E5 <E5 <E5 <E5 <E5 <E5 <E5 <E5 <E5 <E5 <E5 <E5 <E5 <E5 <E5 <E5 <E5 <E5 <E5 <E5 <E5 <E5 <E <E <E <E <E <E <E <E <E <E <E <E <E <E <E <E <E <E E E E E E E E E E E E E >E: >E: >E: >E: >E: >E: >E: >E: >E: >E: >E: >E: >E: >E: >E: >E: >E: >E: >E: >E: >E: >E: >E: >E: >E: >E: >E: >E: >E: >E: >E: >E: >E: >E: >E: >E: >E: >E: >E: >E: >E: >E: >E: >E: >E: >E: >E: >E: E: E: E: E: E: E: E: E: E: E: E: E: <E: <E: <E: <E: <E: <E: <E: <E: <E: <E: <E: <E: <E: <E: <E: <E: <E: <E: <E: <E: <E: <E: <E: <E: <E: <E: <E: <E: <E: <E: <E: <E: <E: <E: <E: <E: <E <E <E <E <E <E <E <E <E <E <E <E E E E E E E E E E E E E >E. >E. >E. >E. >E. >E. >E. >E. >E. >E. >E. >E. >E. >E. >E. >E. >E. >E. >E. >E. >E. >E. >E. >E. >E. >E. >E. >E. >E. >E. >E. >E. >E. >E. >E. >E. >E. >E. >E. >E. >E. >E. >E. >E. >E. >E. >E. >E. E. E. E. E. E. E. E. E. E. E. E. E. ?E. ?E. ?E. ?E. ?E. ?E. ?E. ?E. ?E. ?E. ?E. ?E. ?E. ?E. ?E. ?E. ?E. ?E. ?E. ?E. ?E. ?E. ?E. ?E. ?E. ?E. ?E. ?E. ?E. ?E. ?E ?E ?E ?E ?E ?E ?E ?E ?E ?E ?E ?E ?E ?E ?E ?E ?E ?E E E E E E E E E E E E E AE. AE. AE. AE. AE. AE. AE. AE. AE. AE. AE. AE. AE. AE. AE. AE. AE. AE. AE. AE. AE. AE. AE. AE. AE. AE. AE. AE. AE. AE. AE. AE. AE. AE. AE. AE. AE. AE. AE. AE. AE. AE. AE. AE. AE. AE. AE. AE. . . . . . . . . . . . . >. >. >. >. >. >. >. >. >. >. >. >. >. >. >. >. >. >. >. >. >. >. >. >. >. >. >. >. >. >. > > > > > > > > > > > > > > > > > >             :C' :C' :C' :C' :C' :C' :C' :C' :C' :C' :C' :C' :C' :C' :C' :C' :C' :C' :C' :C' :C' :C' :C' :C' :C' :C' :C' :C' :C' :C' :C' :C' :C' :C' :C' :C' :C' :C' :C' :C' :C' :C' :C' :C' :C' :C' :C' :C' C' C' C' C' C' C' C' C' C' C' C' C' AC' AC' AC' AC' AC' AC' AC' AC' AC' AC' AC' AC' AC' AC' AC' AC' AC' AC' AC' AC' AC' AC' AC' AC' AC' AC' AC' AC' AC' AC' AC' AC' AC' AC' AC' AC' AC AC AC AC AC AC AC AC AC AC AC AC C C C C C C C C C C C C ?C3 ?C3 ?C3 ?C3 ?C3 ?C3 ?C3 ?C3 ?C3 ?C3 ?C3 ?C3 ?C3 ?C3 ?C3 ?C3 ?C3 ?C3 ?C3 ?C3 ?C3 ?C3 ?C3 ?C3 ?C3 ?C3 ?C3 ?C3 ?C3 ?C3 ?C3 ?C3 ?C3 ?C3 ?C3 ?C3 ?C3 ?C3 ?C3 ?C3 ?C3 ?C3 ?C3 ?C3 ?C3 ?C3 ?C3 ?C3 C3 C3 C3 C3 C3 C3 C3 C3 C3 C3 C3 C3 >C3 >C3 >C3 >C3 >C3 >C3 >C3 >C3 >C3 >C3 >C3 >C3 >C3 >C3 >C3 >C3 >C3 >C3 >C3 >C3 >C3 >C3 >C3 >C3 >C3 >C3 >C3 >C3 >C3 >C3 >C >C >C >C >C >C >C >C >C >C >C >C >C >C >C >C >C >C C C C C C C C C C C C C <C3 <C3 <C3 <C3 <C3 <C3 <C3 <C3 <C3 <C3 <C3 <C3 <C3 <C3 <C3 <C3 <C3 <C3 <C3 <C3 <C3 <C3 <C3 <C3 <C3 <C3 <C3 <C3 <C3 <C3 <C3 <C3 <C3 <C3 <C3 <C3 <C3 <C3 <C3 <C3 <C3 <C3 <C3 <C3 <C3 <C3 <C3 <C3 C3 C3 C3 C3 C3 C3 C3 C3 C3 C3 C3 C3 :C3 :C3 :C3 :C3 :C3 :C3 :C3 :C3 :C3 :C3 :C3 :C3 :C3 :C3 :C3 :C3 :C3 :C3 :C3 :C3 :C3 :C3 :C3 :C3 :C3 :C3 :C3 :C3 :C3 :C3 :C :C :C :C :C :C :C :C :C :C :C :C :C :C :C :C :C :C C C C C C C C C C C C C <C9 <C9 <C9 <C9 <C9 <C9 <C9 <C9 <C9 <C9 <C9 <C9 <C9 <C9 <C9 <C9 <C9 <C9 <C9 <C9 <C9 <C9 <C9 <C9 <C9 <C9 <C9 <C9 <C9 <C9 <C9 <C9 <C9 <C9 <C9 <C9 <C9 <C9 <C9 <C9 <C9 <C9 <C9 <C9 <C9 <C9 <C9 <C9 C9 C9 C9 C9 C9 C9 C9 C9 C9 C9 C9 C9 :C9 :C9 :C9 :C9 :C9 :C9 :C9 :C9 :C9 :C9 :C9 :C9 :C9 :C9 :C9 :C9 :C9 :C9 :C9 :C9 :C9 :C9 :C9 :C9 :C9 :C9 :C9 :C9 :C9 :C9 :C9 :C9 :C9 :C9 :C9 :C9 :C :C :C :C :C :C :C :C :C :C :C :C C C C C C C C C C C C C <C- <C- <C- <C- <C- <C- <C- <C- <C- <C- <C- <C- <C- <C- <C- <C- <C- <C- <C- <C- <C- <C- <C- <C- <C- <C- <C- <C- <C- <C- <C- <C- <C- <C- <C- <C- <C- <C- <C- <C- <C- <C- <C- <C- <C- <C- <C- <C- C- C- C- C- C- C- C- C- C- C- C- C- >C- >C- >C- >C- >C- >C- >C- >C- >C- >C- >C- >C- >C- >C- >C- >C- >C- >C- >C- >C- >C- >C- >C- >C- >C- >C- >C- >C- >C- >C- >C >C >C >C >C >C >C >C >C >C >C >C >C >C >C >C >C >C C C C C C C C C C C C C ?C- ?C- ?C- ?C- ?C- ?C- ?C- ?C- ?C- ?C- ?C- ?C- ?C- ?C- ?C- ?C- ?C- ?C- ?C- ?C- ?C- ?C- ?C- ?C- ?C- ?C- ?C- ?C- ?C- ?C- ?C- ?C- ?C- ?C- ?C- ?C- ?C- ?C- ?C- ?C- ?C- ?C- ?C- ?C- ?C- ?C- ?C- ?C- - - - - - - - - - - - - <- <- <- <- <- <- <- <- <- <- <- <- <- <- <- <- <- <- <- <- <- <- <- <- <- <- <- <- <- <- < < < < < < < < < < < < < < < < < <             9B& 9B& 9B& 9B& 9B& 9B& 9B& 9B& 9B& 9B& 9B& 9B& 9B& 9B& 9B& 9B& 9B& 9B& 9B& 9B& 9B& 9B& 9B& 9B& 9B& 9B& 9B& 9B& 9B& 9B& 9B& 9B& 9B& 9B& 9B& 9B& 9B& 9B& 9B& 9B& 9B& 9B& 9B& 9B& 9B& 9B& 9B& 9B& B& B& B& B& B& B& B& B& B& B& B& B& ?B& ?B& ?B& ?B& ?B& ?B& ?B& ?B& ?B& ?B& ?B& ?B& ?B& ?B& ?B& ?B& ?B& ?B& ?B& ?B& ?B& ?B& ?B& ?B& ?B& ?B& ?B& ?B& ?B& ?B& ?B ?B ?B ?B ?B ?B ?B ?B ?B ?B ?B ?B ?B ?B ?B ?B ?B ?B B B B B B B B B B B B B >B >B >B >B >B >B >B >B >B >B >B >B >B >B >B >B >B >B >B >B >B >B >B >B >B >B >B >B >B >B >B >B >B >B >B >B >B >B >B >B >B >B >B >B >B >B >B >B B B B B B B B B B B B B <B <B <B <B <B <B <B <B <B <B <B <B <B <B <B <B <B <B <B <B <B <B <B <B <B <B <B <B <B <B <B <B <B <B <B <B <B <B <B <B <B <B <B <B <B <B <B <B B B B B B B B B B B B B :B :B :B :B :B :B :B :B :B :B :B :B :B :B :B :B :B :B :B :B :B :B :B :B :B :B :B :B :B :B :B :B :B :B :B :B :B :B :B :B :B :B :B :B :B :B :B :B             9 9 9 9 9 9 9 9 9 9 9 9 9 9 9 9 9 9 9 9 9 9 9 9 9 9 9 9 9 9 9 9 9 9 9 9 9 9 9 9 9 9 9 9 9 9 9 9             C: C: C: C: C: C: C: C: C: C: C: C: C: C: C: C: C: C: C: C: C: C: C: C: : : : : : : B: B: B: B: B: B: B: B: B: B: B: B: B: B: B: B: B: B: B B B B B B       C> C> C> C> C> C> C> C> C> C> C> C> C> C> C> C> C> C> C> C> C> C> C> C> C> C> C> C> C> C> C> C> C> C> C> C> C> C> C> C> C> C> C> C> C> C> C> C> C C C C C C C C C C C C C< C< C< C< C< C< C< C< C< C< C< C< C< C< C< C< C< C< C< C< C< C< C< C< C< C< C< C< C< C< C< C< C< C< C< C< C< C< C< C< C< C< C< C< C< C< C< C< C C C C C C C C C C C C C: C: C: C: C: C: C: C: C: C: C: C: C: C: C: C: C: C: C: C: C: C: C: C: C: C: C: C: C: C: C: C: C: C: C: C: C: C: C: C: C: C: C: C: C: C: C: C: C C C C C C C C C C C C C9 C9 C9 C9 C9 C9 C9 C9 C9 C9 C9 C9 C9 C9 C9 C9 C9 C9 C9 C9 C9 C9 C9 C9 C9 C9 C9 C9 C9 C9 C9 C9 C9 C9 C9 C9 C9 C9 C9 C9 C9 C9 C9 C9 C9 C9 C9 C9 C C C C C C C C C C C C C7 C7 C7 C7 C7 C7 C7 C7 C7 C7 C7 C7 7 7 7 7 7 7 7 7 7 7 7 7 7 7 7 7 7 7 7 7 7 7 7 7 7 7 7 7 7 7 7 7 7 7 7 7             E6 E6 E6 E6 E6 E6 E6 E6 E6 E6 E6 E6 E6 E6 E6 E6 E6 E6 E6 E6 E6 E6 E6 E6 E6 E6 E6 E6 E6 E6 E6 E6 E6 E6 E6 E6 E6 E6 E6 E6 E6 E6 E6 E6 E6 E6 E6 E6 E E E E E E E E E E E E E7 E7 E7 E7 E7 E7 E7 E7 E7 E7 E7 E7 E7 E7 E7 E7 E7 E7 E7 E7 E7 E7 E7 E7 E7 E7 E7 E7 E7 E7 7 7 7 7 7 7 7 7 7 7 7 7 7 7 7 7 7 7             JEB6 JEB6 JEB6 JEB6 JEB6 JEB6 JEB6 JEB6 JEB6 JEB6 JEB6 JEB6 JEB6 JEB6 JEB6 JEB6 JEB6 JEB6 JEB6 JEB6 JEB6 JEB6 JEB6 JEB6 JEB6 JEB6 JEB6 JEB6 JEB6 JEB6 JEB6 JEB6 JEB6 JEB6 JEB6 JEB6 JEB6 JEB6 JEB6 JEB6 JEB6 JEB6 JEB6 JEB6 JEB6 JEB6 JEB6 JEB6 JEB JEB JEB JEB JEB JEB JEB JEB JEB JEB JEB JEB JEB4 JEB4 JEB4 JEB4 JEB4 JEB4 JEB4 JEB4 JEB4 JEB4 JEB4 JEB4 JEB4 JEB4 JEB4 JEB4 JEB4 JEB4 JEB4 JEB4 JEB4 JEB4 JEB4 JEB4 JEB4 JEB4 JEB4 JEB4 JEB4 JEB4 EB4 EB4 EB4 EB4 EB4 EB4 4 4 4 4 4 4 4 4 4 4 4 4             JBE2 JBE2 JBE2 JBE2 JBE2 JBE2 JBE2 JBE2 JBE2 JBE2 JBE2 JBE2 JBE2 JBE2 JBE2 JBE2 JBE2 JBE2 JBE2 JBE2 JBE2 JBE2 JBE2 JBE2 JBE2 JBE2 JBE2 JBE2 JBE2 JBE2 JBE2 JBE2 JBE2 JBE2 JBE2 JBE2 JBE2 JBE2 JBE2 JBE2 JBE2 JBE2 JBE2 JBE2 JBE2 JBE2 JBE2 JBE2 JBE JBE JBE JBE JBE JBE JBE JBE JBE JBE JBE JBE JBE0 JBE0 JBE0 JBE0 JBE0 JBE0 JBE0 JBE0 JBE0 JBE0 JBE0 JBE0 JBE0 JBE0 JBE0 JBE0 JBE0 JBE0 JBE0 JBE0 JBE0 JBE0 JBE0 JBE0 JBE0 JBE0 JBE0 JBE0 JBE0 JBE0 BE0 BE0 BE0 BE0 BE0 BE0 0 0 0 0 0 0 0 0 0 0 0 0             MCJG/ MCJG/ MCJG/ MCJG/ MCJG/ MCJG/ MCJG/ MCJG/ MCJG/ MCJG/ MCJG/ MCJG/ MCJG/ MCJG/ MCJG/ MCJG/ MCJG/ MCJG/ MCJG/ MCJG/ MCJG/ MCJG/ MCJG/ MCJG/ MCJG/ MCJG/ MCJG/ MCJG/ MCJG/ MCJG/ MCJG/ MCJG/ MCJG/ MCJG/ MCJG/ MCJG/ MCJG/ MCJG/ MCJG/ MCJG/ MCJG/ MCJG/ MCJG/ MCJG/ MCJG/ MCJG/ MCJG/ MCJG/ MCJG MCJG MCJG MCJG MCJG MCJG MCJG MCJG MCJG MCJG MCJG MCJG MCJG- MCJG- MCJG- MCJG- MCJG- MCJG- MCJG- MCJG- MCJG- MCJG- MCJG- MCJG- MCJG- MCJG- MCJG- MCJG- MCJG- MCJG- MCJG- MCJG- MCJG- MCJG- MCJG- MCJG- MCJG- MCJG- MCJG- MCJG- MCJG- MCJG- CJG- CJG- CJG- CJG- CJG- CJG- - - - - - - - - - - - -             MJCG+ MJCG+ MJCG+ MJCG+ MJCG+ MJCG+ MJCG+ MJCG+ MJCG+ MJCG+ MJCG+ MJCG+ MJCG+ MJCG+ MJCG+ MJCG+ MJCG+ MJCG+ MJCG+ MJCG+ MJCG+ MJCG+ MJCG+ MJCG+ MJCG+ MJCG+ MJCG+ MJCG+ MJCG+ MJCG+ MJCG+ MJCG+ MJCG+ MJCG+ MJCG+ MJCG+ MJCG+ MJCG+ MJCG+ MJCG+ MJCG+ MJCG+ MJCG+ MJCG+ MJCG+ MJCG+ MJCG+ MJCG+ MJCG MJCG MJCG MJCG MJCG MJCG MJCG MJCG MJCG MJCG MJCG MJCG MJCG) MJCG) MJCG) MJCG) MJCG) MJCG) MJCG) MJCG) MJCG) MJCG) MJCG) MJCG) MJCG) MJCG) MJCG) MJCG) MJCG) MJCG) MJCG) MJCG) MJCG) MJCG) MJCG) MJCG) MJCG) MJCG) MJCG) MJCG) MJCG) MJCG) JCG) JCG) JCG) JCG) JCG) JCG) ) ) ) ) ) ) ) ) ) ) ) )             MJCG( MJCG( MJCG( MJCG( MJCG( MJCG( MJCG( MJCG( MJCG( MJCG( MJCG( MJCG( MJCG( MJCG( MJCG( MJCG( MJCG( MJCG( MJCG( MJCG( MJCG( MJCG( MJCG( MJCG( MJCG( MJCG( MJCG( MJCG( MJCG( MJCG( MJCG( MJCG( MJCG( MJCG( MJCG( MJCG( MJCG( MJCG( MJCG( MJCG( MJCG( MJCG( MJCG( MJCG( MJCG( MJCG( MJCG( MJCG( MJCG MJCG MJCG MJCG MJCG MJCG MJCG MJCG MJCG MJCG MJCG MJCG MJCG& MJCG& MJCG& MJCG& MJCG& MJCG& MJCG& MJCG& MJCG& MJCG& MJCG& MJCG& MJCG& MJCG& MJCG& MJCG& MJCG& MJCG& MJCG& MJCG& MJCG& MJCG& MJCG& MJCG& MJCG& MJCG& MJCG& MJCG& MJCG& MJCG& JCG& JCG& JCG& JCG& JCG& JCG& & & & & & & & & & & & &             JGCM$ JGCM$ JGCM$ JGCM$ JGCM$ JGCM$ JGCM$ JGCM$ JGCM$ JGCM$ JGCM$ JGCM$ JGCM$ JGCM$ JGCM$ JGCM$ JGCM$ JGCM$ JGCM$ JGCM$ JGCM$ JGCM$ JGCM$ JGCM$ JGCM$ JGCM$ JGCM$ JGCM$ JGCM$ JGCM$ JGCM$ JGCM$ JGCM$ JGCM$ JGCM$ JGCM$ JGCM$ JGCM$ JGCM$ JGCM$ JGCM$ JGCM$ JGCM$ JGCM$ JGCM$ JGCM$ JGCM$ JGCM$ JGCM$ JGCM$ JGCM$ JGCM$ JGCM$ JGCM$ JGCM$ JGCM$ JGCM$ JGCM$ JGCM$ JGCM$ JGCM$ JGCM$ JGCM$ JGCM$ JGCM$ JGCM$ JGCM$ JGCM$ JGCM$ JGCM$ JGCM$ JGCM$ JGCM$ JGCM$ JGCM$ JGCM$ JGCM$ JGCM$ JGCM$ JGCM$ JGCM$ JGCM$ JGCM$ JGCM$ JGCM$ JGCM$ JGCM$ JGCM$ JGCM$ JGCM$ JGCM$ JGCM$ JGCM$ JGCM$ JGCM$ JGCM$                         LHC7 LHC7 LHC7 LHC7 LHC7 LHC7 LHC7 LHC7 LHC7 LHC7 LHC7 LHC7 LHC7 LHC7 LHC7 LHC7 LHC7 LHC7 LHC7 LHC7 LHC7 LHC7 LHC7 LHC7 LHC7 LHC7 LHC7 LHC7 LHC7 LHC7 LHC7 LHC7 LHC7 LHC7 LHC7 LHC7 LHC7 LHC7 LHC7 LHC7 LHC7 LHC7 LHC7 LHC7 LHC7 LHC7 LHC7 LHC7 LHC LHC LHC LHC LHC LHC LHC LHC LHC LHC LHC LHC LHC5 LHC5 LHC5 LHC5 LHC5 LHC5 LHC5 LHC5 LHC5 LHC5 LHC5 LHC5 LHC5 LHC5 LHC5 LHC5 LHC5 LHC5 LHC5 LHC5 LHC5 LHC5 LHC5 LHC5 LHC5 LHC5 LHC5 LHC5 LHC5 LHC5 HC5 HC5 HC5 HC5 HC5 HC5 5 5 5 5 5 5 5 5 5 5 5 5             LCH4 LCH4 LCH4 LCH4 LCH4 LCH4 LCH4 LCH4 LCH4 LCH4 LCH4 LCH4 LCH4 LCH4 LCH4 LCH4 LCH4 LCH4 LCH4 LCH4 LCH4 LCH4 LCH4 LCH4 LCH4 LCH4 LCH4 LCH4 LCH4 LCH4 LCH4 LCH4 LCH4 LCH4 LCH4 LCH4 LCH4 LCH4 LCH4 LCH4 LCH4 LCH4 LCH4 LCH4 LCH4 LCH4 LCH4 LCH4 LCH LCH LCH LCH LCH LCH LCH LCH LCH LCH LCH LCH LCH2 LCH2 LCH2 LCH2 LCH2 LCH2 LCH2 LCH2 LCH2 LCH2 LCH2 LCH2 LCH2 LCH2 LCH2 LCH2 LCH2 LCH2 LCH2 LCH2 LCH2 LCH2 LCH2 LCH2 LCH2 LCH2 LCH2 LCH2 LCH2 LCH2 CH2 CH2 CH2 CH2 CH2 CH2 2 2 2 2 2 2 2 2 2 2 2 2             OILE1 OILE1 OILE1 OILE1 OILE1 OILE1 OILE1 OILE1 OILE1 OILE1 OILE1 OILE1 OILE1 OILE1 OILE1 OILE1 OILE1 OILE1 OILE1 OILE1 OILE1 OILE1 OILE1 OILE1 OILE1 OILE1 OILE1 OILE1 OILE1 OILE1 OILE1 OILE1 OILE1 OILE1 OILE1 OILE1 OILE1 OILE1 OILE1 OILE1 OILE1 OILE1 OILE1 OILE1 OILE1 OILE1 OILE1 OILE1 OILE OILE OILE OILE OILE OILE OILE OILE OILE OILE OILE OILE OILE/ OILE/ OILE/ OILE/ OILE/ OILE/ OILE/ OILE/ OILE/ OILE/ OILE/ OILE/ OILE/ OILE/ OILE/ OILE/ OILE/ OILE/ OILE/ OILE/ OILE/ OILE/ OILE/ OILE/ OILE/ OILE/ OILE/ OILE/ OILE/ OILE/ ILE/ ILE/ ILE/ ILE/ ILE/ ILE/ / / / / / / / / / / / /             OLIE- OLIE- OLIE- OLIE- OLIE- OLIE- OLIE- OLIE- OLIE- OLIE- OLIE- OLIE- OLIE- OLIE- OLIE- OLIE- OLIE- OLIE- OLIE- OLIE- OLIE- OLIE- OLIE- OLIE- OLIE- OLIE- OLIE- OLIE- OLIE- OLIE- OLIE- OLIE- OLIE- OLIE- OLIE- OLIE- OLIE- OLIE- OLIE- OLIE- OLIE- OLIE- OLIE- OLIE- OLIE- OLIE- OLIE- OLIE- OLIE OLIE OLIE OLIE OLIE OLIE OLIE OLIE OLIE OLIE OLIE OLIE OLIE+ OLIE+ OLIE+ OLIE+ OLIE+ OLIE+ OLIE+ OLIE+ OLIE+ OLIE+ OLIE+ OLIE+ OLIE+ OLIE+ OLIE+ OLIE+ OLIE+ OLIE+ OLIE+ OLIE+ OLIE+ OLIE+ OLIE+ OLIE+ OLIE+ OLIE+ OLIE+ OLIE+ OLIE+ OLIE+ LIE+ LIE+ LIE+ LIE+ LIE+ LIE+ + + + + + + + + + + + +             OIEL* OIEL* OIEL* OIEL* OIEL* OIEL* OIEL* OIEL* OIEL* OIEL* OIEL* OIEL* OIEL* OIEL* OIEL* OIEL* OIEL* OIEL* OIEL* OIEL* OIEL* OIEL* OIEL* OIEL* OIEL* OIEL* OIEL* OIEL* OIEL* OIEL* OIEL* OIEL* OIEL* OIEL* OIEL* OIEL* OIEL* OIEL* OIEL* OIEL* OIEL* OIEL* OIEL* OIEL* OIEL* OIEL* OIEL* OIEL* OIEL OIEL OIEL OIEL OIEL OIEL OIEL OIEL OIEL OIEL OIEL OIEL OIEL( OIEL( OIEL( OIEL( OIEL( OIEL( OIEL( OIEL( OIEL( OIEL( OIEL( OIEL( OIEL( OIEL( OIEL( OIEL( OIEL( OIEL( OIEL( OIEL( OIEL( OIEL( OIEL( OIEL( OIEL( OIEL( OIEL( OIEL( OIEL( OIEL( IEL( IEL( IEL( IEL( IEL( IEL( ( ( ( ( ( ( ( ( ( ( ( (             ILEO& ILEO& ILEO& ILEO& ILEO& ILEO& ILEO& ILEO& ILEO& ILEO& ILEO& ILEO& ILEO& ILEO& ILEO& ILEO& ILEO& ILEO& ILEO& ILEO& ILEO& ILEO& ILEO& ILEO& ILEO& ILEO& ILEO& ILEO& ILEO& ILEO& ILEO& ILEO& ILEO& ILEO& ILEO& ILEO& ILEO& ILEO& ILEO& ILEO& ILEO& ILEO& ILEO& ILEO& ILEO& ILEO& ILEO& ILEO& ILEO& ILEO& ILEO& ILEO& ILEO& ILEO& ILEO& ILEO& ILEO& ILEO& ILEO& ILEO& ILEO& ILEO& ILEO& ILEO& ILEO& ILEO& ILEO& ILEO& ILEO& ILEO& ILEO& ILEO& ILEO& ILEO& ILEO& ILEO& ILEO& ILEO& ILEO& ILEO& ILEO& ILEO& ILEO& ILEO& ILEO& ILEO& ILEO& ILEO& ILEO& ILEO& ILEO& ILEO& ILEO& ILEO& ILEO& ILEO& & & & & & & & & & & & & & & & & &        NEJ< NEJ< NEJ< NEJ< NEJ< NEJ< NEJ< NEJ< NEJ< NEJ< NEJ< NEJ< NEJ< NEJ< NEJ< NEJ< NEJ< NEJ< NEJ< NEJ< NEJ< NEJ< NEJ< NEJ< NEJ< NEJ< NEJ< NEJ< NEJ< NEJ< NEJ< NEJ< NEJ< NEJ< NEJ< NEJ< NEJ< NEJ< NEJ< NEJ< NEJ< NEJ< NEJ< NEJ< NEJ< NEJ< NEJ< NEJ< NEJ NEJ NEJ NEJ NEJ NEJ NEJ NEJ NEJ NEJ NEJ NEJ NEJ: NEJ: NEJ: NEJ: NEJ: NEJ: NEJ: NEJ: NEJ: NEJ: NEJ: NEJ: NEJ: NEJ: NEJ: NEJ: NEJ: NEJ: NEJ: NEJ: NEJ: NEJ: NEJ: NEJ: NEJ: NEJ: NEJ: NEJ: NEJ: NEJ: EJ: EJ: EJ: EJ: EJ: EJ: : : : : : : : : : : : :             NEJ9 NEJ9 NEJ9 NEJ9 NEJ9 NEJ9 NEJ9 NEJ9 NEJ9 NEJ9 NEJ9 NEJ9 NEJ9 NEJ9 NEJ9 NEJ9 NEJ9 NEJ9 NEJ9 NEJ9 NEJ9 NEJ9 NEJ9 NEJ9 NEJ9 NEJ9 NEJ9 NEJ9 NEJ9 NEJ9 NEJ9 NEJ9 NEJ9 NEJ9 NEJ9 NEJ9 NEJ9 NEJ9 NEJ9 NEJ9 NEJ9 NEJ9 NEJ9 NEJ9 NEJ9 NEJ9 NEJ9 NEJ9 NEJ NEJ NEJ NEJ NEJ NEJ NEJ NEJ NEJ NEJ NEJ NEJ NEJ7 NEJ7 NEJ7 NEJ7 NEJ7 NEJ7 NEJ7 NEJ7 NEJ7 NEJ7 NEJ7 NEJ7 NEJ7 NEJ7 NEJ7 NEJ7 NEJ7 NEJ7 NEJ7 NEJ7 NEJ7 NEJ7 NEJ7 NEJ7 NEJ7 NEJ7 NEJ7 NEJ7 NEJ7 NEJ7 EJ7 EJ7 EJ7 EJ7 EJ7 EJ7 7 7 7 7 7 7 7 7 7 7 7 7             QHJ6 QHJ6 QHJ6 QHJ6 QHJ6 QHJ6 QHJ6 QHJ6 QHJ6 QHJ6 QHJ6 QHJ6 QHJ6 QHJ6 QHJ6 QHJ6 QHJ6 QHJ6 QHJ6 QHJ6 QHJ6 QHJ6 QHJ6 QHJ6 QHJ6 QHJ6 QHJ6 QHJ6 QHJ6 QHJ6 QHJ6 QHJ6 QHJ6 QHJ6 QHJ6 QHJ6 QHJ6 QHJ6 QHJ6 QHJ6 QHJ6 QHJ6 QHJ6 QHJ6 QHJ6 QHJ6 QHJ6 QHJ6 QHJ QHJ QHJ QHJ QHJ QHJ QHJ QHJ QHJ QHJ QHJ QHJ QHJ4 QHJ4 QHJ4 QHJ4 QHJ4 QHJ4 QHJ4 QHJ4 QHJ4 QHJ4 QHJ4 QHJ4 QHJ4 QHJ4 QHJ4 QHJ4 QHJ4 QHJ4 QHJ4 QHJ4 QHJ4 QHJ4 QHJ4 QHJ4 QHJ4 QHJ4 QHJ4 QHJ4 QHJ4 QHJ4 HJ4 HJ4 HJ4 HJ4 HJ4 HJ4 4 4 4 4 4 4 4 4 4 4 4 4             QHJ2 QHJ2 QHJ2 QHJ2 QHJ2 QHJ2 QHJ2 QHJ2 QHJ2 QHJ2 QHJ2 QHJ2 QHJ2 QHJ2 QHJ2 QHJ2 QHJ2 QHJ2 QHJ2 QHJ2 QHJ2 QHJ2 QHJ2 QHJ2 QHJ2 QHJ2 QHJ2 QHJ2 QHJ2 QHJ2 QHJ2 QHJ2 QHJ2 QHJ2 QHJ2 QHJ2 QHJ2 QHJ2 QHJ2 QHJ2 QHJ2 QHJ2 QHJ2 QHJ2 QHJ2 QHJ2 QHJ2 QHJ2 QHJ QHJ QHJ QHJ QHJ QHJ QHJ QHJ QHJ QHJ QHJ QHJ QHJ0 QHJ0 QHJ0 QHJ0 QHJ0 QHJ0 QHJ0 QHJ0 QHJ0 QHJ0 QHJ0 QHJ0 QHJ0 QHJ0 QHJ0 QHJ0 QHJ0 QHJ0 QHJ0 QHJ0 QHJ0 QHJ0 QHJ0 QHJ0 QHJ0 QHJ0 QHJ0 QHJ0 QHJ0 QHJ0 HJ0 HJ0 HJ0 HJ0 HJ0 HJ0 0 0 0 0 0 0 0 0 0 0 0 0             QJH. QJH. QJH. QJH. QJH. QJH. QJH. QJH. QJH. QJH. QJH. QJH. QJH. QJH. QJH. QJH. QJH. QJH. QJH. QJH. QJH. QJH. QJH. QJH. QJH. QJH. QJH. QJH. QJH. QJH. QJH. QJH. QJH. QJH. QJH. QJH. QJH. QJH. QJH. QJH. QJH. QJH. QJH. QJH. QJH. QJH. QJH. QJH. QJH QJH QJH QJH QJH QJH QJH QJH QJH QJH QJH QJH QJH- QJH- QJH- QJH- QJH- QJH- QJH- QJH- QJH- QJH- QJH- QJH- QJH- QJH- QJH- QJH- QJH- QJH- QJH- QJH- QJH- QJH- QJH- QJH- QJH- QJH- QJH- QJH- QJH- QJH- JH- JH- JH- JH- JH- JH- - - - - - - - - - - - -             HQJ+ HQJ+ HQJ+ HQJ+ HQJ+ HQJ+ HQJ+ HQJ+ HQJ+ HQJ+ HQJ+ HQJ+ HQJ+ HQJ+ HQJ+ HQJ+ HQJ+ HQJ+ HQJ+ HQJ+ HQJ+ HQJ+ HQJ+ HQJ+ HQJ+ HQJ+ HQJ+ HQJ+ HQJ+ HQJ+ HQJ+ HQJ+ HQJ+ HQJ+ HQJ+ HQJ+ HQJ+ HQJ+ HQJ+ HQJ+ HQJ+ HQJ+ HQJ+ HQJ+ HQJ+ HQJ+ HQJ+ HQJ+ HQJ HQJ HQJ HQJ HQJ HQJ HQJ HQJ HQJ HQJ HQJ HQJ HQJ* HQJ* HQJ* HQJ* HQJ* HQJ* HQJ* HQJ* HQJ* HQJ* HQJ* HQJ* HQJ* HQJ* HQJ* HQJ* HQJ* HQJ* HQJ* HQJ* HQJ* HQJ* HQJ* HQJ* HQJ* HQJ* HQJ* HQJ* HQJ* HQJ* HQJ* HQJ* HQJ* HQJ* HQJ* HQJ* J* J* J* J* J* J* J* J* J* J* J* J* J J J J J J J J J J J J JOF+ JOF+ JOF+ JOF+ JOF+ JOF+ JOF+ JOF+ JOF+ JOF+ JOF+ JOF+ JOF+ JOF+ JOF+ JOF+ JOF+ JOF+ JOF+ JOF+ JOF+ JOF+ JOF+ JOF+ JOF+ JOF+ JOF+ JOF+ JOF+ JOF+ JOF+ JOF+ JOF+ JOF+ JOF+ JOF+ JOF+ JOF+ JOF+ JOF+ JOF+ JOF+ JOF+ JOF+ JOF+ JOF+ JOF+ JOF+ JOF JOF JOF JOF JOF JOF JOF JOF JOF JOF JOF JOF JOF- JOF- JOF- JOF- JOF- JOF- JOF- JOF- JOF- JOF- JOF- JOF- OF- OF- OF- OF- OF- OF- OF- OF- OF- OF- OF- OF- OF- OF- OF- OF- OF- OF- F- F- F- F- F- F- - - - - - - - - - - - -             MJC. MJC. MJC. MJC. MJC. MJC. MJC. MJC. MJC. MJC. MJC. MJC. MJC. MJC. MJC. MJC. MJC. MJC. MJC. MJC. MJC. MJC. MJC. MJC. MJC. MJC. MJC. MJC. MJC. MJC. MJC. MJC. MJC. MJC. MJC. MJC. MJC. MJC. MJC. MJC. MJC. MJC. MJC. MJC. MJC. MJC. MJC. MJC. MJC MJC MJC MJC MJC MJC MJC MJC MJC MJC MJC MJC MJC+ MJC+ MJC+ MJC+ MJC+ MJC+ MJC+ MJC+ MJC+ MJC+ MJC+ MJC+ MJC+ MJC+ MJC+ MJC+ MJC+ MJC+ MJC+ MJC+ MJC+ MJC+ MJC+ MJC+ MJC+ MJC+ MJC+ MJC+ MJC+ MJC+ JC+ JC+ JC+ JC+ JC+ JC+ + + + + + + + + + + + +             KHC0 KHC0 KHC0 KHC0 KHC0 KHC0 KHC0 KHC0 KHC0 KHC0 KHC0 KHC0 KHC0 KHC0 KHC0 KHC0 KHC0 KHC0 KHC0 KHC0 KHC0 KHC0 KHC0 KHC0 KHC0 KHC0 KHC0 KHC0 KHC0 KHC0 KHC0 KHC0 KHC0 KHC0 KHC0 KHC0 KHC0 KHC0 KHC0 KHC0 KHC0 KHC0 KHC0 KHC0 KHC0 KHC0 KHC0 KHC0 KHC KHC KHC KHC KHC KHC KHC KHC KHC KHC KHC KHC KHC. KHC. KHC. KHC. KHC. KHC. KHC. KHC. KHC. KHC. KHC. KHC. KHC. KHC. KHC. KHC. KHC. KHC. KHC. KHC. KHC. KHC. KHC. KHC. KHC. KHC. KHC. KHC. KHC. KHC. KHC. KHC. KHC. KHC. KHC. KHC. C. C. C. C. C. C. C. C. C. C. C. C. C C C C C C C C C C C C JFC0 JFC0 JFC0 JFC0 JFC0 JFC0 JFC0 JFC0 JFC0 JFC0 JFC0 JFC0 JFC0 JFC0 JFC0 JFC0 JFC0 JFC0 JFC0 JFC0 JFC0 JFC0 JFC0 JFC0 JFC0 JFC0 JFC0 JFC0 JFC0 JFC0 JFC0 JFC0 JFC0 JFC0 JFC0 JFC0 JFC0 JFC0 JFC0 JFC0 JFC0 JFC0 JFC0 JFC0 JFC0 JFC0 JFC0 JFC0 JFC JFC JFC JFC JFC JFC JFC JFC JFC JFC JFC JFC JFC2 JFC2 JFC2 JFC2 JFC2 JFC2 JFC2 JFC2 JFC2 JFC2 JFC2 JFC2 JFC2 JFC2 JFC2 JFC2 JFC2 JFC2 JFC2 JFC2 JFC2 JFC2 JFC2 JFC2 JFC2 JFC2 JFC2 JFC2 JFC2 JFC2 JFC2 JFC2 JFC2 JFC2 JFC2 JFC2 C2 C2 C2 C2 C2 C2 C2 C2 C2 C2 C2 C2 C C C C C C C C C C C C CEH3 CEH3 CEH3 CEH3 CEH3 CEH3 CEH3 CEH3 CEH3 CEH3 CEH3 CEH3 CEH3 CEH3 CEH3 CEH3 CEH3 CEH3 CEH3 CEH3 CEH3 CEH3 CEH3 CEH3 CEH3 CEH3 CEH3 CEH3 CEH3 CEH3 CEH3 CEH3 CEH3 CEH3 CEH3 CEH3 CEH3 CEH3 CEH3 CEH3 CEH3 CEH3 CEH3 CEH3 CEH3 CEH3 CEH3 CEH3 EH EH EH EH EH EH EH EH EH EH EH EH EH0 EH0 EH0 EH0 EH0 EH0 EH0 EH0 EH0 EH0 EH0 EH0 EH0 EH0 EH0 EH0 EH0 EH0 EH0 EH0 EH0 EH0 EH0 EH0 EH0 EH0 EH0 EH0 EH0 EH0 EH0 EH0 EH0 EH0 EH0 EH0 0 0 0 0 0 0 0 0 0 0 0 0             HBE2 HBE2 HBE2 HBE2 HBE2 HBE2 HBE2 HBE2 HBE2 HBE2 HBE2 HBE2 HBE2 HBE2 HBE2 HBE2 HBE2 HBE2 HBE2 HBE2 HBE2 HBE2 HBE2 HBE2 HBE2 HBE2 HBE2 HBE2 HBE2 HBE2 HBE2 HBE2 HBE2 HBE2 HBE2 HBE2 HBE2 HBE2 HBE2 HBE2 HBE2 HBE2 HBE2 HBE2 HBE2 HBE2 HBE2 HBE2 HBE HBE HBE HBE HBE HBE HBE HBE HBE HBE HBE HBE HBE4 HBE4 HBE4 HBE4 HBE4 HBE4 HBE4 HBE4 HBE4 HBE4 HBE4 HBE4 HBE4 HBE4 HBE4 HBE4 HBE4 HBE4 HBE4 HBE4 HBE4 HBE4 HBE4 HBE4 HBE4 HBE4 HBE4 HBE4 HBE4 HBE4 HBE4 HBE4 HBE4 HBE4 HBE4 HBE4 HBE4 HBE4 HBE4 HBE4 HBE4 HBE4 HBE4 HBE4 HBE4 HBE4 HBE4 HBE4 HBE HBE HBE HBE HBE HBE HBE HBE HBE HBE HBE HBE HBE6 HBE6 HBE6 HBE6 HBE6 HBE6 HBE6 HBE6 HBE6 HBE6 HBE6 HBE6 HBE6 HBE6 HBE6 HBE6 HBE6 HBE6 HBE6 HBE6 HBE6 HBE6 HBE6 HBE6 BE6 BE6 BE6 BE6 BE6 BE6 BE6 BE6 BE6 BE6 BE6 BE6 BE6 BE6 BE6 BE6 BE6 BE6 BE6 BE6 BE6 BE6 BE6 BE6 BE BE BE BE BE BE BE BE BE BE BE BE BEJ2 BEJ2 BEJ2 BEJ2 BEJ2 BEJ2 BEJ2 BEJ2 BEJ2 BEJ2 BEJ2 BEJ2 J2 J2 J2 J2 J2 J2 J2 J2 J2 J2 J2 J2 J2 J2 J2 J2 J2 J2 J2 J2 J2 J2 J2 J2 J2 J2 J2 J2 J2 J2 J2 J2 J2 J2 J2 J2             >FC7 >FC7 >FC7 >FC7 >FC7 >FC7 >FC7 >FC7 >FC7 >FC7 >FC7 >FC7 >FC7 >FC7 >FC7 >FC7 >FC7 >FC7 >FC7 >FC7 >FC7 >FC7 >FC7 >FC7 >FC7 >FC7 >FC7 >FC7 >FC7 >FC7 >FC7 >FC7 >FC7 >FC7 >FC7 >FC7 >FC7 >FC7 >FC7 >FC7 >FC7 >FC7 >FC7 >FC7 >FC7 >FC7 >FC7 >FC7 >FC7 >FC7 >FC7 >FC7 >FC7 >FC7 >FC7 >FC7 >FC7 >FC7 >FC7 >FC7 >FC7 >FC7 >FC7 >FC7 >FC7 >FC7 >FC7 >FC7 >FC7 >FC7 >FC7 >FC7 >FC7 >FC7 >FC7 >FC7 >FC7 >FC7 >FC7 >FC7 >FC7 >FC7 >FC7 >FC7 >FC7 >FC7 >FC7 >FC7 >FC7 >FC7 >FC7 >FC7 >FC7 >FC7 >FC7 >FC7 FC FC FC FC FC FC FC FC FC FC FC FC FC FC FC FC FC FC FC FC FC FC FC FC F?C0 F?C0 F?C0 F?C0 F?C0 F?C0 F?C0 F?C0 F?C0 F?C0 F?C0 F?C0 F?C0 F?C0 F?C0 F?C0 F?C0 F?C0 F?C0 F?C0 F?C0 F?C0 F?C0 F?C0 F?C0 F?C0 F?C0 F?C0 F?C0 F?C0 F?C0 F?C0 F?C0 F?C0 F?C0 F?C0 F?C0 F?C0 F?C0 F?C0 F?C0 F?C0 F?C0 F?C0 F?C0 F?C0 F?C0 F?C0 ?C0 ?C0 ?C0 ?C0 ?C0 ?C0 ?C0 ?C0 ?C0 ?C0 ?C0 ?C0 ?CE0 ?CE0 ?CE0 ?CE0 ?CE0 ?CE0 ?CE0 ?CE0 ?CE0 ?CE0 ?CE0 ?CE0 ?CE0 ?CE0 ?CE0 ?CE0 ?CE0 ?CE0 ?CE0 ?CE0 ?CE0 ?CE0 ?CE0 ?CE0 ?CE0 ?CE0 ?CE0 ?CE0 ?CE0 ?CE0 ?CE0 ?CE0 ?CE0 ?CE0 ?CE0 ?CE0 E E E E E E E E E E E E             FB2 FB2 FB2 FB2 FB2 FB2 FB2 FB2 FB2 FB2 FB2 FB2 FB2 FB2 FB2 FB2 FB2 FB2 FB2 FB2 FB2 FB2 FB2 FB2 B2 B2 B2 B2 B2 B2 EB2 EB2 EB2 EB2 EB2 EB2 EB2 EB2 EB2 EB2 EB2 EB2 EB2 EB2 EB2 EB2 EB2 EB2 EB2 EB2 EB2 EB2 EB2 EB2 B2 B2 B2 B2 B2 B2 FB2 FB2 FB2 FB2 FB2 FB2 FB2 FB2 FB2 FB2 FB2 FB2 FB2 FB2 FB2 FB2 FB2 FB2 FB2 FB2 FB2 FB2 FB2 FB2 B2 B2 B2 B2 B2 B2 EB2 EB2 EB2 EB2 EB2 EB2 EB EB EB EB EB EB EB EB EB EB EB EB EB EB EB EB EB EB EB EB EB EB EB EB EB& EB& EB& EB& EB& EB& EB& EB& EB& EB& EB& EB& EB& EB& EB& EB& EB& EB& EB& EB& EB& EB& EB& EB& EB& EB& EB& EB& EB& EB& EB& EB& EB& EB& EB& EB& EB& EB& EB& EB& EB& EB& EB& EB& EB& EB& EB& EB& EB& EB& EB& EB& EB& EB& EB& EB& EB& B& B& B& BC& BC& BC& BC& BC& BC& BC& BC& BC& BC& BC& BC& C& C& C& C& C& C& C& C& C& C& C& C& C& C& C& C& C& C& C& C& C& C& C& C& C C C C C C C C C C C C             CC+ CC+ CC+ CC+ CC+ CC+ CC+ CC+ CC+ CC+ CC+ CC+ CC+ CC+ CC+ CC+ CC+ CC+ CC+ CC+ CC+ CC+ CC+ CC+ CC+ CC+ CC+ CC+ CC+ CC+ CC+ CC+ CC+ CC+ CC+ CC+ CC+ CC+ CC+ CC+ CC+ CC+ CC+ CC+ CC+ CC+ CC+ CC+ C+ C+ C+ C+ C+ C+ C+ C+ C+ C+ C+ C+ CE+ CE+ CE+ CE+ CE+ CE+ CE+ CE+ CE+ CE+ CE+ CE+ CE+ CE+ CE+ CE+ CE+ CE+ CE+ CE+ CE+ CE+ CE+ CE+ CE+ CE+ CE+ CE+ CE+ CE+ CE+ CE+ CE+ CE+ CE+ CE+ E+ E+ E+ E+ E+ E+ E+ E+ E+ E+ E+ E+ + + + + + + + + + + + + F+ F+ F+ F+ F+ F+ F+ F+ F+ F+ F+ F+ F+ F+ F+ F+ F+ F+ F+ F+ F+ F+ F+ F+ F+ F+ F+ F+ F+ F+ F+ F+ F+ F+ F+ F+ F+ F+ F+ F+ F+ F+ F+ F+ F+ F+ F+ F+ + + + + + + + + + + + + C+ C+ C+ C+ C+ C+ C+ C+ C+ C+ C+ C+ C C C C C C C C C C C C C C C C C C C C C C C C C C C C C C C C C C C C             B B B B B B B B B B B B B B B B B B B B B B B B B B B B B B B B B B B B B B B B B B B B B B B B             C C C C C C C C C C C C C C C C C C C C C C C C C C C C C C C C C C C C C C C C C C C C C C C C             > > > > > > > > > > > > > > > > > > > > > > > > > > > > > > > > > > > > > > > > > > > > > > > >             C C C C C C C C C C C C C C C C C C C C C C C C C C C C C C C C C C C C C C C C C C C C C C C C             F F F F F F F F F F F F F F F F F F F F F F F F F F F F F F F F F F F F F F F F F F F F F F F F             C C C C C C C C C C C C C C C C C C C C C C C C C C C C C C C C C C C C C C C C C C C C C C C C             I I I I I I I I I I I I I I I I I I I I I I I I I I I I I I I I I I I I I I I I I I I I I I I I             C C C C C C C C C C C C C C C C C C C C C C C C C C C C C C C C C C C C C C C C C C C C C C C C             J J J J J J J J J J J J J J J J J J J J J J J J J J J J J J J J J J J J J J J J J J J J J J J J J J J J J J J J J J J J J> J> J> J> J> J> J> J> J> J> J> J> J> J> J> J> J> J> J> J> J> J> J> J> J J J J J J @ @ @ @ @ @ @ @ @ @ @ @ @ @ @ @ @ @ @ @ @ @ @ @       QA QA QA QA QA QA QA QA QA QA QA QA QA QA QA QA QA QA QA QA QA QA QA QA QA QA QA QA QA QA QA QA QA QA QA QA QA QA QA QA QA QA QA QA QA QA QA QA Q Q Q Q Q Q Q Q Q Q Q Q Q> Q> Q> Q> Q> Q> Q> Q> Q> Q> Q> Q> Q> Q> Q> Q> Q> Q> Q> Q> Q> Q> Q> Q> Q> Q> Q> Q> Q> Q> Q> Q> Q> Q> Q> Q> > > > > > > > > > > > >             Q= Q= Q= Q= Q= Q= Q= Q= Q= Q= Q= Q= Q= Q= Q= Q= Q= Q= Q= Q= Q= Q= Q= Q= Q= Q= Q= Q= Q= Q= Q= Q= Q= Q= Q= Q= Q= Q= Q= Q= Q= Q= Q= Q= Q= Q= Q= Q= Q Q Q Q Q Q Q Q Q Q Q Q Q> Q> Q> Q> Q> Q> Q> Q> Q> Q> Q> Q> Q> Q> Q> Q> Q> Q> Q> Q> Q> Q> Q> Q> Q> Q> Q> Q> Q> Q> Q> Q> Q> Q> Q> Q> > > > > > > > > > > > >             M9 M9 M9 M9 M9 M9 M9 M9 M9 M9 M9 M9 M9 M9 M9 M9 M9 M9 M9 M9 M9 M9 M9 M9 M9 M9 M9 M9 M9 M9 M9 M9 M9 M9 M9 M9 M9 M9 M9 M9 M9 M9 M9 M9 M9 M9 M9 M9 M M M M M M M M M M M M M> M> M> M> M> M> M> M> M> M> M> M> M> M> M> M> M> M> M> M> M> M> M> M> M> M> M> M> M> M> M> M> M> M> M> M> > > > > > > > > > > > >             JA JA JA JA JA JA JA JA JA JA JA JA JA JA JA JA JA JA JA JA JA JA JA JA JA JA JA JA JA JA JA JA JA JA JA JA JA JA JA JA JA JA JA JA JA JA JA JA J J J J J J J J J J J J J> J> J> J> J> J> J> J> J> J> J> J> J> J> J> J> J> J> J> J> J> J> J> J> J> J> J> J> J> J> J> J> J> J> J> J> > > > > > > > > > > > >             JD JD JD JD JD JD JD JD JD JD JD JD JD JD JD JD JD JD JD JD JD JD JD JD JD JD JD JD JD JD JD JD JD JD JD JD JD JD JD JD JD JD JD JD JD JD JD JD J J J J J J J J J J J J J> J> J> J> J> J> J> J> J> J> J> J> J> J> J> J> J> J> J> J> J> J> J> J> J> J> J> J> J> J> J> J> J> J> J> J> > > > > > > > > > > > >             JE JE JE JE JE JE JE JE JE JE JE JE JE JE JE JE JE JE JE JE JE JE JE JE JE JE JE JE JE JE JE JE JE JE JE JE JE JE JE JE JE JE JE JE JE JE JE JE E E E E E E E E E E E E GE GE GE GE GE GE GE GE GE GE GE GE GE GE GE GE GE GE GE GE GE GE GE GE GE GE GE GE GE GE G G G G G G G G G G G G G G G G G G             HE HE HE HE HE HE HE HE HE HE HE HE HE HE HE HE HE HE HE HE HE HE HE HE HE HE HE HE HE HE HE HE HE HE HE HE HE HE HE HE HE HE HE HE HE HE HE HE E E E E E E E E E E E E LE LE LE LE LE LE LE LE LE LE LE LE LE LE LE LE LE LE LE LE LE LE LE LE LE LE LE LE LE LE L L L L L L L L L L L L L L L L L L             ME ME ME ME ME ME ME ME ME ME ME ME ME ME ME ME ME ME ME ME ME ME ME ME ME ME ME ME ME ME ME ME ME ME ME ME ME ME ME ME ME ME ME ME ME ME ME ME E E E E E E E E E E E E HE HE HE HE HE HE HE HE HE HE HE HE HE HE HE HE HE HE HE HE HE HE HE HE HE HE HE HE HE HE H H H H H H H H H H H H H H H H H H             FE FE FE FE FE FE FE FE FE FE FE FE FE FE FE FE FE FE FE FE FE FE FE FE FE FE FE FE FE FE FE FE FE FE FE FE FE FE FE FE FE FE FE FE FE FE FE FE E E E E E E E E E E E E HE HE HE HE HE HE HE HE HE HE HE HE HE HE HE HE HE HE HE HE HE HE HE HE HE HE HE HE HE HE HE HE HE HE HE HE H H H H H H H H H H H H             JC JC JC JC JC JC JC JC JC JC JC JC JC JC JC JC JC JC JC JC JC JC JC JC JC JC JC JC JC JC JC JC JC JC JC JC JC JC JC JC JC JC JC JC JC JC JC JC C C C C C C C C C C C C FC FC FC FC FC FC FC FC FC FC FC FC FC FC FC FC FC FC FC FC FC FC FC FC FC FC FC FC FC FC F F F F F F F F F F F F F F F F F F             KC KC KC KC KC KC KC KC KC KC KC KC KC KC KC KC KC KC KC KC KC KC KC KC KC KC KC KC KC KC KC KC KC KC KC KC KC KC KC KC KC KC KC KC KC KC KC KC C C C C C C C C C C C C FC FC FC FC FC FC FC FC FC FC FC FC FC FC FC FC FC FC FC FC FC FC FC FC FC FC FC FC FC FC F F F F F F F F F F F F F F F F F F             EC EC EC EC EC EC EC EC EC EC EC EC EC EC EC EC EC EC EC EC EC EC EC EC EC EC EC EC EC EC EC EC EC EC EC EC EC EC EC EC EC EC EC EC EC EC EC EC C C C C C C C C C C C C HC HC HC HC HC HC HC HC HC HC HC HC HC HC HC HC HC HC HC HC HC HC HC HC HC HC HC HC HC HC HC HC HC HC HC HC H H H H H H H H H H H H             JA JA JA JA JA JA JA JA JA JA JA JA JA JA JA JA JA JA JA JA JA JA JA JA JA JA JA JA JA JA JA JA JA JA JA JA JA JA JA JA JA JA JA JA JA JA JA JA A A A A A A A A A A A A KA KA KA KA KA KA KA KA KA KA KA KA KA KA KA KA KA KA KA KA KA KA KA KA KA KA KA KA KA KA K K K K K K K K K K K K K K K K K K             MA MA MA MA MA MA MA MA MA MA MA MA MA MA MA MA MA MA MA MA MA MA MA MA MA MA MA MA MA MA MA MA MA MA MA MA MA MA MA MA MA MA MA MA MA MA MA MA A A A A A A A A A A A A JA JA JA JA JA JA JA JA JA JA JA JA JA JA JA JA JA JA JA JA JA JA JA JA JA JA JA JA JA JA J J J J J J J J J J J J J J J J J J             G G G G G G G G G G G G G G G G G G G G G G G G G G G G G G G G G G G G G G G G G G G G G G G G G G G G G G G G G G G G GA GA GA GA GA GA GA GA GA GA GA GA GA GA GA GA GA GA GA GA GA GA GA GA GA GA GA GA GA GA GA GA GA GA GA GA A A A A A A A A A A A A             H? H? H? H? H? H? H? H? H? H? H? H? H? H? H? H? H? H? H? H? H? H? H? H? H? H? H? H? H? H? H? H? H? H? H? H? H? H? H? H? H? H? H? H? H? H? H? H? H H H H H H H H H H H H H> H> H> H> H> H> H> H> H> H> H> H> H> H> H> H> H> H> H> H> H> H> H> H> H> H> H> H> H> H> > > > > > > > > > > > > > > > > > >             H< H< H< H< H< H< H< H< H< H< H< H< H< H< H< H< H< H< H< H< H< H< H< H< H< H< H< H< H< H< H< H< H< H< H< H< H< H< H< H< H< H< H< H< H< H< H< H< H H H H H H H H H H H H H? H? H? H? H? H? H? H? H? H? H? H? H? H? H? H? H? H? H? H? H? H? H? H? H? H? H? H? H? H? ? ? ? ? ? ? ? ? ? ? ? ? ? ? ? ? ? ?             H6 H6 H6 H6 H6 H6 H6 H6 H6 H6 H6 H6 H6 H6 H6 H6 H6 H6 H6 H6 H6 H6 H6 H6 H6 H6 H6 H6 H6 H6 H6 H6 H6 H6 H6 H6 H6 H6 H6 H6 H6 H6 H6 H6 H6 H6 H6 H6 6 6 6 6 6 6 6 6 6 6 6 6 J6 J6 J6 J6 J6 J6 J6 J6 J6 J6 J6 J6 J6 J6 J6 J6 J6 J6 J6 J6 J6 J6 J6 J6 J6 J6 J6 J6 J6 J6 J6 J6 J6 J6 J6 J6 J J J J J J J J J J J J             K< K< K< K< K< K< K< K< K< K< K< K< K< K< K< K< K< K< K< K< K< K< K< K< K< K< K< K< K< K< K< K< K< K< K< K< K< K< K< K< K< K< K< K< K< K< K< K< < < < < < < < < < < < < H< H< H< H< H< H< H< H< H< H< H< H< H< H< H< H< H< H< H< H< H< H< H< H< H< H< H< H< H< H< H< H< H< H< H< H< H H H H H H H H H H H H             N? N? N? N? N? N? N? N? N? N? N? N? N? N? N? N? N? N? N? N? N? N? N? N? N? N? N? N? N? N? N? N? N? N? N? N? N? N? N? N? N? N? N? N? N? N? N? N? ? ? ? ? ? ? ? ? ? ? ? ? H? H? H? H? H? H? H? H? H? H? H? H? H? H? H? H? H? H? H? H? H? H? H? H? H? H? H? H? H? H? H? H? H? H? H? H? H H H H H H H H H H H H             Q6 Q6 Q6 Q6 Q6 Q6 Q6 Q6 Q6 Q6 Q6 Q6 Q6 Q6 Q6 Q6 Q6 Q6 Q6 Q6 Q6 Q6 Q6 Q6 Q6 Q6 Q6 Q6 Q6 Q6 Q6 Q6 Q6 Q6 Q6 Q6 Q6 Q6 Q6 Q6 Q6 Q6 Q6 Q6 Q6 Q6 Q6 Q6 6 6 6 6 6 6 6 6 6 6 6 6 K6 K6 K6 K6 K6 K6 K6 K6 K6 K6 K6 K6 K6 K6 K6 K6 K6 K6 K6 K6 K6 K6 K6 K6 K6 K6 K6 K6 K6 K6 K6 K6 K6 K6 K6 K6 K K K K K K K K K K K K             J9 J9 J9 J9 J9 J9 J9 J9 J9 J9 J9 J9 J9 J9 J9 J9 J9 J9 J9 J9 J9 J9 J9 J9 J9 J9 J9 J9 J9 J9 J9 J9 J9 J9 J9 J9 J9 J9 J9 J9 J9 J9 J9 J9 J9 J9 J9 J9 9 9 9 9 9 9 9 9 9 9 9 9 H9 H9 H9 H9 H9 H9 H9 H9 H9 H9 H9 H9 H9 H9 H9 H9 H9 H9 H9 H9 H9 H9 H9 H9 H9 H9 H9 H9 H9 H9 H9 H9 H9 H9 H9 H9 H H H H H H H H H H H H             F> F> F> F> F> F> F> F> F> F> F> F> F> F> F> F> F> F> F> F> F> F> F> F> F> F> F> F> F> F> F> F> F> F> F> F> F> F> F> F> F> F> F> F> F> F> F> F> > > > > > > > > > > > > E> E> E> E> E> E> E> E> E> E> E> E> E> E> E> E> E> E> E> E> E> E> E> E> E> E> E> E> E> E> E> E> E> E> E> E> E E E E E E E E E E E E             CF CF CF CF CF CF CF CF CF CF CF CF CF CF CF CF CF CF CF CF CF CF CF CF CF CF CF CF CF CF CF CF CF CF CF CF CF CF CF CF CF CF CF CF CF CF CF CF CF CF CF CF CF CF CF CF CF CF CF CF CF7 CF7 CF7 CF7 CF7 CF7 CF7 CF7 CF7 CF7 CF7 CF7 CF7 CF7 CF7 CF7 CF7 CF7 CF7 CF7 CF7 CF7 CF7 CF7 CF CF CF CF CF CF CF9 CF9 CF9 CF9 CF9 CF9 9 9 9 9 9 9 9 9 9 9 9 9 9 9 9 9 9 9       JC: JC: JC: JC: JC: JC: JC: JC: JC: JC: JC: JC: JC: JC: JC: JC: JC: JC: JC: JC: JC: JC: JC: JC: JC: JC: JC: JC: JC: JC: JC: JC: JC: JC: JC: JC: JC: JC: JC: JC: JC: JC: JC: JC: JC: JC: JC: JC: JC JC JC JC JC JC JC JC JC JC JC JC JC7 JC7 JC7 JC7 JC7 JC7 JC7 JC7 JC7 JC7 JC7 JC7 JC7 JC7 JC7 JC7 JC7 JC7 JC7 JC7 JC7 JC7 JC7 JC7 JC7 JC7 JC7 JC7 JC7 JC7 JC7 JC7 JC7 JC7 JC7 JC7 7 7 7 7 7 7 7 7 7 7 7 7             JE6 JE6 JE6 JE6 JE6 JE6 JE6 JE6 JE6 JE6 JE6 JE6 JE6 JE6 JE6 JE6 JE6 JE6 JE6 JE6 JE6 JE6 JE6 JE6 JE6 JE6 JE6 JE6 JE6 JE6 JE6 JE6 JE6 JE6 JE6 JE6 JE6 JE6 JE6 JE6 JE6 JE6 JE6 JE6 JE6 JE6 JE6 JE6 JE JE JE JE JE JE JE JE JE JE JE JE JE7 JE7 JE7 JE7 JE7 JE7 JE7 JE7 JE7 JE7 JE7 JE7 JE7 JE7 JE7 JE7 JE7 JE7 JE7 JE7 JE7 JE7 JE7 JE7 JE7 JE7 JE7 JE7 JE7 JE7 JE7 JE7 JE7 JE7 JE7 JE7 7 7 7 7 7 7 7 7 7 7 7 7             EF2 EF2 EF2 EF2 EF2 EF2 EF2 EF2 EF2 EF2 EF2 EF2 EF2 EF2 EF2 EF2 EF2 EF2 EF2 EF2 EF2 EF2 EF2 EF2 EF2 EF2 EF2 EF2 EF2 EF2 EF2 EF2 EF2 EF2 EF2 EF2 EF2 EF2 EF2 EF2 EF2 EF2 EF2 EF2 EF2 EF2 EF2 EF2 EF EF EF EF EF EF EF EF EF EF EF EF EF7 EF7 EF7 EF7 EF7 EF7 EF7 EF7 EF7 EF7 EF7 EF7 EF7 EF7 EF7 EF7 EF7 EF7 EF7 EF7 EF7 EF7 EF7 EF7 EF7 EF7 EF7 EF7 EF7 EF7 EF7 EF7 EF7 EF7 EF7 EF7 7 7 7 7 7 7 7 7 7 7 7 7             CF: CF: CF: CF: CF: CF: CF: CF: CF: CF: CF: CF: CF: CF: CF: CF: CF: CF: CF: CF: CF: CF: CF: CF: CF: CF: CF: CF: CF: CF: CF: CF: CF: CF: CF: CF: CF: CF: CF: CF: CF: CF: CF: CF: CF: CF: CF: CF: CF CF CF CF CF CF CF CF CF CF CF CF CF7 CF7 CF7 CF7 CF7 CF7 CF7 CF7 CF7 CF7 CF7 CF7 CF7 CF7 CF7 CF7 CF7 CF7 CF7 CF7 CF7 CF7 CF7 CF7 CF7 CF7 CF7 CF7 CF7 CF7 CF7 CF7 CF7 CF7 CF7 CF7 7 7 7 7 7 7 7 7 7 7 7 7             CF= CF= CF= CF= CF= CF= CF= CF= CF= CF= CF= CF= CF= CF= CF= CF= CF= CF= CF= CF= CF= CF= CF= CF= CF= CF= CF= CF= CF= CF= CF= CF= CF= CF= CF= CF= CF= CF= CF= CF= CF= CF= CF= CF= CF= CF= CF= CF= CF CF CF CF CF CF CF CF CF CF CF CF CF7 CF7 CF7 CF7 CF7 CF7 CF7 CF7 CF7 CF7 CF7 CF7 CF7 CF7 CF7 CF7 CF7 CF7 CF7 CF7 CF7 CF7 CF7 CF7 CF7 CF7 CF7 CF7 CF7 CF7 CF7 CF7 CF7 CF7 CF7 CF7 7 7 7 7 7 7 7 7 7 7 7 7             EC> EC> EC> EC> EC> EC> EC> EC> EC> EC> EC> EC> EC> EC> EC> EC> EC> EC> EC> EC> EC> EC> EC> EC> EC> EC> EC> EC> EC> EC> EC> EC> EC> EC> EC> EC> EC> EC> EC> EC> EC> EC> EC> EC> EC> EC> EC> EC> C> C> C> C> C> C> C> C> C> C> C> C> CQ> CQ> CQ> CQ> CQ> CQ> CQ> CQ> CQ> CQ> CQ> CQ> CQ> CQ> CQ> CQ> CQ> CQ> CQ> CQ> CQ> CQ> CQ> CQ> CQ> CQ> CQ> CQ> CQ> CQ> CQ> CQ> CQ> CQ> CQ> CQ> Q> Q> Q> Q> Q> Q> Q> Q> Q> Q> Q> Q> > > > > > > > > > > > > JA> JA> JA> JA> JA> JA> JA> JA> JA> JA> JA> JA> JA> JA> JA> JA> JA> JA> JA> JA> JA> JA> JA> JA> JA> JA> JA> JA> JA> JA> JA> JA> JA> JA> JA> JA> JA> JA> JA> JA> JA> JA> JA> JA> JA> JA> JA> JA> A> A> A> A> A> A> A> A> A> A> A> A> AQ> AQ> AQ> AQ> AQ> AQ> AQ> AQ> AQ> AQ> AQ> AQ> AQ AQ AQ AQ AQ AQ AQ AQ AQ AQ AQ AQ AQ AQ AQ AQ AQ AQ AQ AQ AQ AQ AQ AQ Q Q Q Q Q Q Q Q Q Q Q Q             I@ I@ I@ I@ I@ I@ I@ I@ I@ I@ I@ I@ I@ I@ I@ I@ I@ I@ I@ I@ I@ I@ I@ I@ I@ I@ I@ I@ I@ I@ I@ I@ I@ I@ I@ I@ I@ I@ I@ I@ I@ I@ I@ I@ I@ I@ I@ I@ @ @ @ @ @ @ @ @ @ @ @ @ @O @O @O @O @O @O @O @O @O @O @O @O @O @O @O @O @O @O @O @O @O @O @O @O @O @O @O @O @O @O @O @O @O @O @O @O O O O O O O O O O O O O             M>2 M>2 M>2 M>2 M>2 M>2 M>2 M>2 M>2 M>2 M>2 M>2 M>2 M>2 M>2 M>2 M>2 M>2 M>2 M>2 M>2 M>2 M>2 M>2 M>2 M>2 M>2 M>2 M>2 M>2 M>2 M>2 M>2 M>2 M>2 M>2 M>2 M>2 M>2 M>2 M>2 M>2 M>2 M>2 M>2 M>2 M>2 M>2 >2 >2 >2 >2 >2 >2 >2 >2 >2 >2 >2 >2 >Q2 >Q2 >Q2 >Q2 >Q2 >Q2 >Q2 >Q2 >Q2 >Q2 >Q2 >Q2 >Q2 >Q2 >Q2 >Q2 >Q2 >Q2 >Q2 >Q2 >Q2 >Q2 >Q2 >Q2 >Q2 >Q2 >Q2 >Q2 >Q2 >Q2 >Q2 >Q2 >Q2 >Q2 >Q2 >Q2 Q2 Q2 Q2 Q2 Q2 Q2 Q2 Q2 Q2 Q2 Q2 Q2 2 2 2 2 2 2 2 2 2 2 2 2 JA2 JA2 JA2 JA2 JA2 JA2 JA2 JA2 JA2 JA2 JA2 JA2 JA2 JA2 JA2 JA2 JA2 JA2 JA2 JA2 JA2 JA2 JA2 JA2 JA2 JA2 JA2 JA2 JA2 JA2 JA2 JA2 JA2 JA2 JA2 JA2 JA2 JA2 JA2 JA2 JA2 JA2 JA2 JA2 JA2 JA2 JA2 JA2 A2 A2 A2 A2 A2 A2 A2 A2 A2 A2 A2 A2 AQ2 AQ2 AQ2 AQ2 AQ2 AQ2 AQ2 AQ2 AQ2 AQ2 AQ2 AQ2 AQ AQ AQ AQ AQ AQ AQ AQ AQ AQ AQ AQ AQ AQ AQ AQ AQ AQ AQ AQ AQ AQ AQ AQ Q Q Q Q Q Q Q Q Q Q Q Q             I@ I@ I@ I@ I@ I@ I@ I@ I@ I@ I@ I@ I@ I@ I@ I@ I@ I@ I@ I@ I@ I@ I@ I@ I@ I@ I@ I@ I@ I@ I@ I@ I@ I@ I@ I@ I@ I@ I@ I@ I@ I@ I@ I@ I@ I@ I@ I@ @ @ @ @ @ @ @ @ @ @ @ @ @O @O @O @O @O @O @O @O @O @O @O @O @O @O @O @O @O @O @O @O @O @O @O @O @O @O @O @O @O @O @O @O @O @O @O @O O O O O O O O O O O O O             M> M> M> M> M> M> M> M> M> M> M> M> M> M> M> M> M> M> M> M> M> M> M> M> M> M> M> M> M> M> M> M> M> M> M> M> M> M> M> M> M> M> M> M> M> M> M> M> > > > > > > > > > > > > J> J> J> J> J> J> J> J> J> J> J> J> J> J> J> J> J> J> J> J> J> J> J> J> J> J> J> J> J> J> J> J> J> J> J> J> J> J> J> J> J> J> J> J> J> J> J> J> > > > > > > > > > > > > G>7 G>7 G>7 G>7 G>7 G>7 G>7 G>7 G>7 G>7 G>7 G>7 G>7 G>7 G>7 G>7 G>7 G>7 G>7 G>7 G>7 G>7 G>7 G>7 G>7 G>7 G>7 G>7 G>7 G>7 G>7 G>7 G>7 G>7 G>7 G>7 G>7 G>7 G>7 G>7 G>7 G>7 G>7 G>7 G>7 G>7 G>7 G>7 >7 >7 >7 >7 >7 >7 >7 >7 >7 >7 >7 >7 M>7 M>7 M>7 M>7 M>7 M>7 M>7 M>7 M>7 M>7 M>7 M>7 M>7 M>7 M>7 M>7 M>7 M>7 M>7 M>7 M>7 M>7 M>7 M>7 M>7 M>7 M>7 M>7 M>7 M>7 M>7 M>7 M>7 M>7 M>7 M>7 M> M> M> M> M> M> M> M> M> M> M> M> > > > > > > > > > > > > E>9 E>9 E>9 E>9 E>9 E>9 E>9 E>9 E>9 E>9 E>9 E>9 E>9 E>9 E>9 E>9 E>9 E>9 E>9 E>9 E>9 E>9 E>9 E>9 E>9 E>9 E>9 E>9 E>9 E>9 E>9 E>9 E>9 E>9 E>9 E>9 E>9 E>9 E>9 E>9 E>9 E>9 E>9 E>9 E>9 E>9 E>9 E>9 >9 >9 >9 >9 >9 >9 >9 >9 >9 >9 >9 >9 M>9 M>9 M>9 M>9 M>9 M>9 M>9 M>9 M>9 M>9 M>9 M>9 M>9 M>9 M>9 M>9 M>9 M>9 M>9 M>9 M>9 M>9 M>9 M>9 M>9 M>9 M>9 M>9 M>9 M>9 M>9 M>9 M>9 M>9 M>9 M>9 M> M> M> M> M> M> M> M> M> M> M> M> > > > > > > > > > > > > C>; C>; C>; C>; C>; C>; C>; C>; C>; C>; C>; C>; C>; C>; C>; C>; C>; C>; C>; C>; C>; C>; C>; C>; C>; C>; C>; C>; C>; C>; C>; C>; C>; C>; C>; C>; C>; C>; C>; C>; C>; C>; C>; C>; C>; C>; C>; C>; >; >; >; >; >; >; >; >; >; >; >; >; M>; M>; M>; M>; M>; M>; M>; M>; M>; M>; M>; M>; M>; M>; M>; M>; M>; M>; M>; M>; M>; M>; M>; M>; M>; M>; M>; M>; M>; M>; M>; M>; M>; M>; M>; M>; M> M> M> M> M> M> M> M> M> M> M> M> > > > > > > > > > > > > E>9 E>9 E>9 E>9 E>9 E>9 E>9 E>9 E>9 E>9 E>9 E>9 E>9 E>9 E>9 E>9 E>9 E>9 E>9 E>9 E>9 E>9 E>9 E>9 E>9 E>9 E>9 E>9 E>9 E>9 E>9 E>9 E>9 E>9 E>9 E>9 E>9 E>9 E>9 E>9 E>9 E>9 E>9 E>9 E>9 E>9 E>9 E>9 >9 >9 >9 >9 >9 >9 >9 >9 >9 >9 >9 >9 M>9 M>9 M>9 M>9 M>9 M>9 M>9 M>9 M>9 M>9 M>9 M>9 M>9 M>9 M>9 M>9 M>9 M>9 M>9 M>9 M>9 M>9 M>9 M>9 M>9 M>9 M>9 M>9 M>9 M>9 M>9 M>9 M>9 M>9 M>9 M>9 M> M> M> M> M> M> M> M> M> M> M> M> > > > > > > > > > > > > G>7 G>7 G>7 G>7 G>7 G>7 G>7 G>7 G>7 G>7 G>7 G>7 G>7 G>7 G>7 G>7 G>7 G>7 G>7 G>7 G>7 G>7 G>7 G>7 G>7 G>7 G>7 G>7 G>7 G>7 G>7 G>7 G>7 G>7 G>7 G>7 G>7 G>7 G>7 G>7 G>7 G>7 G>7 G>7 G>7 G>7 G>7 G>7 7 7 7 7 7 7 7 7 7 7 7 7 M7 M7 M7 M7 M7 M7 M7 M7 M7 M7 M7 M7 M7 M7 M7 M7 M7 M7 M7 M7 M7 M7 M7 M7 M7 M7 M7 M7 M7 M7 M7 M7 M7 M7 M7 M7 M M M M M M M M M M M M             K< K< K< K< K< K< K< K< K< K< K< K< K< K< K< K< K< K< K< K< K< K< K< K< K< K< K< K< K< K< K< K< K< K< K< K< K< K< K< K< K< K< K< K< K< K< K< K< < < < < < < < < < < < < O< O< O< O< O< O< O< O< O< O< O< O< O< O< O< O< O< O< O< O< O< O< O< O< O< O< O< O< O< O< O< O< O< O< O< O< O< O< O< O< O< O< O< O< O< O< O< O< < < < < < < < < < < < < H?< H?< H?< H?< H?< H?< H?< H?< H?< H?< H?< H?< H?< H?< H?< H?< H?< H?< H?< H?< H?< H?< H?< H?< H?< H?< H?< H?< H?< H?< H?< H?< H?< H?< H?< H?< H?< H?< H?< H?< H?< H?< H?< H?< H?< H?< H?< H?< ?< ?< ?< ?< ?< ?< ?< ?< ?< ?< ?< ?< ?O< ?O< ?O< ?O< ?O< ?O< ?O< ?O< ?O< ?O< ?O< ?O< ?O ?O ?O ?O ?O ?O ?O ?O ?O ?O ?O ?O ?O ?O ?O ?O ?O ?O ?O ?O ?O ?O ?O ?O O O O O O O O O O O O O             G> G> G> G> G> G> G> G> G> G> G> G> G> G> G> G> G> G> G> G> G> G> G> G> G> G> G> G> G> G> G> G> G> G> G> G> G> G> G> G> G> G> G> G> G> G> G> G> > > > > > > > > > > > > >M >M >M >M >M >M >M >M >M >M >M >M >M >M >M >M >M >M >M >M >M >M >M >M >M >M >M >M >M >M >M >M >M >M >M >M M M M M M M M M M M M M             K<0 K<0 K<0 K<0 K<0 K<0 K<0 K<0 K<0 K<0 K<0 K<0 K<0 K<0 K<0 K<0 K<0 K<0 K<0 K<0 K<0 K<0 K<0 K<0 K<0 K<0 K<0 K<0 K<0 K<0 K<0 K<0 K<0 K<0 K<0 K<0 K<0 K<0 K<0 K<0 K<0 K<0 K<0 K<0 K<0 K<0 K<0 K<0 <0 <0 <0 <0 <0 <0 <0 <0 <0 <0 <0 <0 <O0 <O0 <O0 <O0 <O0 <O0 <O0 <O0 <O0 <O0 <O0 <O0 <O0 <O0 <O0 <O0 <O0 <O0 <O0 <O0 <O0 <O0 <O0 <O0 <O0 <O0 <O0 <O0 <O0 <O0 <O0 <O0 <O0 <O0 <O0 <O0 O0 O0 O0 O0 O0 O0 O0 O0 O0 O0 O0 O0 0 0 0 0 0 0 0 0 0 0 0 0 H?0 H?0 H?0 H?0 H?0 H?0 H?0 H?0 H?0 H?0 H?0 H?0 H?0 H?0 H?0 H?0 H?0 H?0 H?0 H?0 H?0 H?0 H?0 H?0 H?0 H?0 H?0 H?0 H?0 H?0 H?0 H?0 H?0 H?0 H?0 H?0 H?0 H?0 H?0 H?0 H?0 H?0 H?0 H?0 H?0 H?0 H?0 H?0 ?0 ?0 ?0 ?0 ?0 ?0 ?0 ?0 ?0 ?0 ?0 ?0 ?O0 ?O0 ?O0 ?O0 ?O0 ?O0 ?O0 ?O0 ?O0 ?O0 ?O0 ?O0 ?O ?O ?O ?O ?O ?O ?O ?O ?O ?O ?O ?O ?O ?O ?O ?O ?O ?O ?O ?O ?O ?O ?O ?O O O O O O O O O O O O O             G> G> G> G> G> G> G> G> G> G> G> G> G> G> G> G> G> G> G> G> G> G> G> G> G> G> G> G> G> G> G> G> G> G> G> G> G> G> G> G> G> G> G> G> G> G> G> G> > > > > > > > > > > > > >M >M >M >M >M >M >M >M >M >M >M >M >M >M >M >M >M >M >M >M >M >M >M >M >M >M >M >M >M >M >M >M >M >M >M >M M M M M M M M M M M M M             K< K< K< K< K< K< K< K< K< K< K< K< K< K< K< K< K< K< K< K< K< K< K< K< K< K< K< K< K< K< K< K< K< K< K< K< K< K< K< K< K< K< K< K< K< K< K< K< < < < < < < < < < < < < H< H< H< H< H< H< H< H< H< H< H< H< H< H< H< H< H< H< H< H< H< H< H< H< H< H< H< H< H< H< H< H< H< H< H< H< H< H< H< H< H< H< H< H< H< H< H< H< < < < < < < < < < < < < E5< E5< E5< E5< E5< E5< E5< E5< E5< E5< E5< E5< E5< E5< E5< E5< E5< E5< E5< E5< E5< E5< E5< E5< E5< E5< E5< E5< E5< E5< E5< E5< E5< E5< E5< E5< E5< E5< E5< E5< E5< E5< E5< E5< E5< E5< E5< E5< 5< 5< 5< 5< 5< 5< 5< 5< 5< 5< 5< 5< K5< K5< K5< K5< K5< K5< K5< K5< K5< K5< K5< K5< K5< K5< K5< K5< K5< K5< K5< K5< K5< K5< K5< K5< K5< K5< K5< K5< K5< K5< K5< K5< K5< K5< K5< K5< K< K< K< K< K< K< K< K< K< K< K< K< < < < < < < < < < < < < C7< C7< C7< C7< C7< C7< C7< C7< C7< C7< C7< C7< C7< C7< C7< C7< C7< C7< C7< C7< C7< C7< C7< C7< C7< C7< C7< C7< C7< C7< C7< C7< C7< C7< C7< C7< C7< C7< C7< C7< C7< C7< C7< C7< C7< C7< C7< C7< 7< 7< 7< 7< 7< 7< 7< 7< 7< 7< 7< 7< K7< K7< K7< K7< K7< K7< K7< K7< K7< K7< K7< K7< K7< K7< K7< K7< K7< K7< K7< K7< K7< K7< K7< K7< K7< K7< K7< K7< K7< K7< K7< K7< K7< K7< K7< K7< K< K< K< K< K< K< K< K< K< K< K< K< < < < < < < < < < < < < A9< A9< A9< A9< A9< A9< A9< A9< A9< A9< A9< A9< A9< A9< A9< A9< A9< A9< A9< A9< A9< A9< A9< A9< A9< A9< A9< A9< A9< A9< A9< A9< A9< A9< A9< A9< A9< A9< A9< A9< A9< A9< A9< A9< A9< A9< A9< A9< 9< 9< 9< 9< 9< 9< 9< 9< 9< 9< 9< 9< K9< K9< K9< K9< K9< K9< K9< K9< K9< K9< K9< K9< K9< K9< K9< K9< K9< K9< K9< K9< K9< K9< K9< K9< K9< K9< K9< K9< K9< K9< K9< K9< K9< K9< K9< K9< K< K< K< K< K< K< K< K< K< K< K< K< < < < < < < < < < < < < C7< C7< C7< C7< C7< C7< C7< C7< C7< C7< C7< C7< C7< C7< C7< C7< C7< C7< C7< C7< C7< C7< C7< C7< C7< C7< C7< C7< C7< C7< C7< C7< C7< C7< C7< C7< C7< C7< C7< C7< C7< C7< C7< C7< C7< C7< C7< C7< 7< 7< 7< 7< 7< 7< 7< 7< 7< 7< 7< 7< K7< K7< K7< K7< K7< K7< K7< K7< K7< K7< K7< K7< K7< K7< K7< K7< K7< K7< K7< K7< K7< K7< K7< K7< K7< K7< K7< K7< K7< K7< K7< K7< K7< K7< K7< K7< K< K< K< K< K< K< K< K< K< K< K< K< < < < < < < < < < < < < E<5 E<5 E<5 E<5 E<5 E<5 E<5 E<5 E<5 E<5 E<5 E<5 E<5 E<5 E<5 E<5 E<5 E<5 E<5 E<5 E<5 E<5 E<5 E<5 E<5 E<5 E<5 E<5 E<5 E<5 E<5 E<5 E<5 E<5 E<5 E<5 E<5 E<5 E<5 E<5 E<5 E<5 E<5 E<5 E<5 E<5 E<5 E<5 5 5 5 5 5 5 5 5 5 5 5 5 K5 K5 K5 K5 K5 K5 K5 K5 K5 K5 K5 K5 K5 K5 K5 K5 K5 K5 K5 K5 K5 K5 K5 K5 K5 K5 K5 K5 K5 K5 K5 K5 K5 K5 K5 K5 K K K K K K K K K K K K             J:: J:: J:: J:: J:: J:: J:: J:: J:: J:: J:: J:: J:: J:: J:: J:: J:: J:: J:: J:: J:: J:: J:: J:: J:: J:: J:: J:: J:: J:: J:: J:: J:: J:: J:: J:: J:: J:: J:: J:: J:: J:: J:: J:: J:: J:: J:: J:: J: J: J: J: J: J: J: J: J: J: J: J: J:< J:< J:< J:< J:< J:< J:< J:< J:< J:< J:< J:< J:< J:< J:< J:< J:< J:< J:< J:< J:< J:< J:< J:< J:< J:< J:< J:< J:< J:< J:< J:< J:< J:< J:< J:< < < < < < < < < < < < <             M> M> M> M> M> M> M> M> M> M> M> M> M> M> M> M> M> M> M> M> M> M> M> M> M> M> M> M> M> M> M> M> M> M> M> M> M> M> M> M> M> M> M> M> M> M> M> M> M M M M M M M M M M M M M: M: M: M: M: M: M: M: M: M: M: M: M: M: M: M: M: M: M: M: M: M: M: M: M: M: M: M: M: M: M: M: M: M: M: M: : : : : : : : : : : : :             M9 M9 M9 M9 M9 M9 M9 M9 M9 M9 M9 M9 M9 M9 M9 M9 M9 M9 M9 M9 M9 M9 M9 M9 M9 M9 M9 M9 M9 M9 M9 M9 M9 M9 M9 M9 M9 M9 M9 M9 M9 M9 M9 M9 M9 M9 M9 M9 M M M M M M M M M M M M M: M: M: M: M: M: M: M: M: M: M: M: M: M: M: M: M: M: M: M: M: M: M: M: M: M: M: M: M: M: M: M: M: M: M: M: : : : : : : : : : : : :             J5 J5 J5 J5 J5 J5 J5 J5 J5 J5 J5 J5 J5 J5 J5 J5 J5 J5 J5 J5 J5 J5 J5 J5 J5 J5 J5 J5 J5 J5 J5 J5 J5 J5 J5 J5 J5 J5 J5 J5 J5 J5 J5 J5 J5 J5 J5 J5 J J J J J J J J J J J J J: J: J: J: J: J: J: J: J: J: J: J: J: J: J: J: J: J: J: J: J: J: J: J: J: J: J: J: J: J: J: J: J: J: J: J: : : : : : : : : : : : :             FJ> FJ> FJ> FJ> FJ> FJ> FJ> FJ> FJ> FJ> FJ> FJ> FJ> FJ> FJ> FJ> FJ> FJ> FJ> FJ> FJ> FJ> FJ> FJ> FJ> FJ> FJ> FJ> FJ> FJ> FJ> FJ> FJ> FJ> FJ> FJ> FJ> FJ> FJ> FJ> FJ> FJ> FJ> FJ> FJ> FJ> FJ> FJ> FJ FJ FJ FJ FJ FJ FJ FJ FJ FJ FJ FJ FJ: FJ: FJ: FJ: FJ: FJ: FJ: FJ: FJ: FJ: FJ: FJ: FJ: FJ: FJ: FJ: FJ: FJ: FJ: FJ: FJ: FJ: FJ: FJ: FJ: FJ: FJ: FJ: FJ: FJ: FJ: FJ: FJ: FJ: FJ: FJ: : : : : : : : : : : : :             FJ@ FJ@ FJ@ FJ@ FJ@ FJ@ FJ@ FJ@ FJ@ FJ@ FJ@ FJ@ FJ@ FJ@ FJ@ FJ@ FJ@ FJ@ FJ@ FJ@ FJ@ FJ@ FJ@ FJ@ FJ@ FJ@ FJ@ FJ@ FJ@ FJ@ FJ@ FJ@ FJ@ FJ@ FJ@ FJ@ FJ@ FJ@ FJ@ FJ@ FJ@ FJ@ FJ@ FJ@ FJ@ FJ@ FJ@ FJ@ FJ FJ FJ FJ FJ FJ FJ FJ FJ FJ FJ FJ FJ: FJ: FJ: FJ: FJ: FJ: FJ: FJ: FJ: FJ: FJ: FJ: FJ: FJ: FJ: FJ: FJ: FJ: FJ: FJ: FJ: FJ: FJ: FJ: FJ: FJ: FJ: FJ: FJ: FJ: FJ: FJ: FJ: FJ: FJ: FJ: : : : : : : : : : : : :             HFA HFA HFA HFA HFA HFA HFA HFA HFA HFA HFA HFA HFA HFA HFA HFA HFA HFA HFA HFA HFA HFA HFA HFA HFA HFA HFA HFA HFA HFA HFA HFA HFA HFA HFA HFA HFA HFA HFA HFA HFA HFA HFA HFA HFA HFA HFA HFA FA FA FA FA FA FA FA FA FA FA FA FA FTA FTA FTA FTA FTA FTA FTA FTA FTA FTA FTA FTA FTA FTA FTA FTA FTA FTA FTA FTA FTA FTA FTA FTA FTA FTA FTA FTA FTA FTA FTA FTA FTA FTA FTA FTA TA TA TA TA TA TA TA TA TA TA TA TA A A A A A A A A A A A A MEA MEA MEA MEA MEA MEA MEA MEA MEA MEA MEA MEA MEA MEA MEA MEA MEA MEA MEA MEA MEA MEA MEA MEA MEA MEA MEA MEA MEA MEA MEA MEA MEA MEA MEA MEA MEA MEA MEA MEA MEA MEA MEA MEA MEA MEA MEA MEA EA EA EA EA EA EA EA EA EA EA EA EA ETA ETA ETA ETA ETA ETA ETA ETA ETA ETA ETA ETA ET ET ET ET ET ET ET ET ET ET ET ET ET ET ET ET ET ET ET ET ET ET ET ET T T T T T T T T T T T T             LC LC LC LC LC LC LC LC LC LC LC LC LC LC LC LC LC LC LC LC LC LC LC LC LC LC LC LC LC LC LC LC LC LC LC LC LC LC LC LC LC LC LC LC LC LC LC LC C C C C C C C C C C C C CR CR CR CR CR CR CR CR CR CR CR CR CR CR CR CR CR CR CR CR CR CR CR CR CR CR CR CR CR CR CR CR CR CR CR CR R R R R R R R R R R R R             QA5 QA5 QA5 QA5 QA5 QA5 QA5 QA5 QA5 QA5 QA5 QA5 QA5 QA5 QA5 QA5 QA5 QA5 QA5 QA5 QA5 QA5 QA5 QA5 QA5 QA5 QA5 QA5 QA5 QA5 QA5 QA5 QA5 QA5 QA5 QA5 QA5 QA5 QA5 QA5 QA5 QA5 QA5 QA5 QA5 QA5 QA5 QA5 A5 A5 A5 A5 A5 A5 A5 A5 A5 A5 A5 A5 AT5 AT5 AT5 AT5 AT5 AT5 AT5 AT5 AT5 AT5 AT5 AT5 AT5 AT5 AT5 AT5 AT5 AT5 AT5 AT5 AT5 AT5 AT5 AT5 AT5 AT5 AT5 AT5 AT5 AT5 AT5 AT5 AT5 AT5 AT5 AT5 T5 T5 T5 T5 T5 T5 T5 T5 T5 T5 T5 T5 5 5 5 5 5 5 5 5 5 5 5 5 ME5 ME5 ME5 ME5 ME5 ME5 ME5 ME5 ME5 ME5 ME5 ME5 ME5 ME5 ME5 ME5 ME5 ME5 ME5 ME5 ME5 ME5 ME5 ME5 ME5 ME5 ME5 ME5 ME5 ME5 ME5 ME5 ME5 ME5 ME5 ME5 ME5 ME5 ME5 ME5 ME5 ME5 ME5 ME5 ME5 ME5 ME5 ME5 E5 E5 E5 E5 E5 E5 E5 E5 E5 E5 E5 E5 ET5 ET5 ET5 ET5 ET5 ET5 ET5 ET5 ET5 ET5 ET5 ET5 ET ET ET ET ET ET ET ET ET ET ET ET ET ET ET ET ET ET ET ET ET ET ET ET T T T T T T T T T T T T             LC LC LC LC LC LC LC LC LC LC LC LC LC LC LC LC LC LC LC LC LC LC LC LC LC LC LC LC LC LC LC LC LC LC LC LC LC LC LC LC LC LC LC LC LC LC LC LC C C C C C C C C C C C C CR CR CR CR CR CR CR CR CR CR CR CR CR CR CR CR CR CR CR CR CR CR CR CR CR CR CR CR CR CR CR CR CR CR CR CR R R R R R R R R R R R R             QA QA QA QA QA QA QA QA QA QA QA QA QA QA QA QA QA QA QA QA QA QA QA QA QA QA QA QA QA QA QA QA QA QA QA QA QA QA QA QA QA QA QA QA QA QA QA QA A A A A A A A A A A A A MA MA MA MA MA MA MA MA MA MA MA MA MA MA MA MA MA MA MA MA MA MA MA MA MA MA MA MA MA MA MA MA MA MA MA MA MA MA MA MA MA MA MA MA MA MA MA MA A A A A A A A A A A A A JA: JA: JA: JA: JA: JA: JA: JA: JA: JA: JA: JA: JA: JA: JA: JA: JA: JA: JA: JA: JA: JA: JA: JA: JA: JA: JA: JA: JA: JA: JA: JA: JA: JA: JA: JA: JA: JA: JA: JA: JA: JA: JA: JA: JA: JA: JA: JA: A: A: A: A: A: A: A: A: A: A: A: A: PA: PA: PA: PA: PA: PA: PA: PA: PA: PA: PA: PA: PA: PA: PA: PA: PA: PA: PA: PA: PA: PA: PA: PA: PA: PA: PA: PA: PA: PA: PA: PA: PA: PA: PA: PA: PA PA PA PA PA PA PA PA PA PA PA PA A A A A A A A A A A A A HA< HA< HA< HA< HA< HA< HA< HA< HA< HA< HA< HA< HA< HA< HA< HA< HA< HA< HA< HA< HA< HA< HA< HA< HA< HA< HA< HA< HA< HA< HA< HA< HA< HA< HA< HA< HA< HA< HA< HA< HA< HA< HA< HA< HA< HA< HA< HA< A< A< A< A< A< A< A< A< A< A< A< A< PA< PA< PA< PA< PA< PA< PA< PA< PA< PA< PA< PA< PA< PA< PA< PA< PA< PA< PA< PA< PA< PA< PA< PA< PA< PA< PA< PA< PA< PA< PA< PA< PA< PA< PA< PA< PA PA PA PA PA PA PA PA PA PA PA PA A A A A A A A A A A A A FA> FA> FA> FA> FA> FA> FA> FA> FA> FA> FA> FA> FA> FA> FA> FA> FA> FA> FA> FA> FA> FA> FA> FA> FA> FA> FA> FA> FA> FA> FA> FA> FA> FA> FA> FA> FA> FA> FA> FA> FA> FA> FA> FA> FA> FA> FA> FA> A> A> A> A> A> A> A> A> A> A> A> A> PA> PA> PA> PA> PA> PA> PA> PA> PA> PA> PA> PA> PA> PA> PA> PA> PA> PA> PA> PA> PA> PA> PA> PA> PA> PA> PA> PA> PA> PA> PA> PA> PA> PA> PA> PA> PA PA PA PA PA PA PA PA PA PA PA PA A A A A A A A A A A A A HA< HA< HA< HA< HA< HA< HA< HA< HA< HA< HA< HA< HA< HA< HA< HA< HA< HA< HA< HA< HA< HA< HA< HA< HA< HA< HA< HA< HA< HA< HA< HA< HA< HA< HA< HA< HA< HA< HA< HA< HA< HA< HA< HA< HA< HA< HA< HA< A< A< A< A< A< A< A< A< A< A< A< A< AP< AP< AP< AP< AP< AP< AP< AP< AP< AP< AP< AP< P< P< P< P< P< P< P< P< P< P< P< P< P< P< P< P< P< P< P< P< P< P< P< P< P P P P P P P P P P P P             J: J: J: J: J: J: J: J: J: J: J: J: J: J: J: J: J: J: J: J: J: J: J: J: J: J: J: J: J: J: J: J: J: J: J: J: J: J: J: J: J: J: J: J: J: J: J: J: : : : : : : : : : : : : P: P: P: P: P: P: P: P: P: P: P: P: P: P: P: P: P: P: P: P: P: P: P: P: P: P: P: P: P: P: P: P: P: P: P: P: P P P P P P P P P P P P             O? O? O? O? O? O? O? O? O? O? O? O? O? O? O? O? O? O? O? O? O? O? O? O? O? O? O? O? O? O? O? O? O? O? O? O? O? O? O? O? O? O? O? O? O? O? O? O? ? ? ? ? ? ? ? ? ? ? ? ? R? R? R? R? R? R? R? R? R? R? R? R? R? R? R? R? R? R? R? R? R? R? R? R? R? R? R? R? R? R? R? R? R? R? R? R? R? R? R? R? R? R? R? R? R? R? R? R? ? ? ? ? ? ? ? ? ? ? ? ? KC? KC? KC? KC? KC? KC? KC? KC? KC? KC? KC? KC? KC? KC? KC? KC? KC? KC? KC? KC? KC? KC? KC? KC? KC? KC? KC? KC? KC? KC? KC? KC? KC? KC? KC? KC? KC? KC? KC? KC? KC? KC? KC? KC? KC? KC? KC? KC? C? C? C? C? C? C? C? C? C? C? C? C? CR? CR? CR? CR? CR? CR? CR? CR? CR? CR? CR? CR? CR CR CR CR CR CR CR CR CR CR CR CR CR CR CR CR CR CR CR CR CR CR CR CR R R R R R R R R R R R R             JA JA JA JA JA JA JA JA JA JA JA JA JA JA JA JA JA JA JA JA JA JA JA JA JA JA JA JA JA JA JA JA JA JA JA JA JA JA JA JA JA JA JA JA JA JA JA JA A A A A A A A A A A A A AP AP AP AP AP AP AP AP AP AP AP AP AP AP AP AP AP AP AP AP AP AP AP AP AP AP AP AP AP AP AP AP AP AP AP AP P P P P P P P P P P P P             O?3 O?3 O?3 O?3 O?3 O?3 O?3 O?3 O?3 O?3 O?3 O?3 O?3 O?3 O?3 O?3 O?3 O?3 O?3 O?3 O?3 O?3 O?3 O?3 O?3 O?3 O?3 O?3 O?3 O?3 O?3 O?3 O?3 O?3 O?3 O?3 O?3 O?3 O?3 O?3 O?3 O?3 O?3 O?3 O?3 O?3 O?3 O?3 ?3 ?3 ?3 ?3 ?3 ?3 ?3 ?3 ?3 ?3 ?3 ?3 ?R3 ?R3 ?R3 ?R3 ?R3 ?R3 ?R3 ?R3 ?R3 ?R3 ?R3 ?R3 ?R3 ?R3 ?R3 ?R3 ?R3 ?R3 ?R3 ?R3 ?R3 ?R3 ?R3 ?R3 ?R3 ?R3 ?R3 ?R3 ?R3 ?R3 ?R3 ?R3 ?R3 ?R3 ?R3 ?R3 R3 R3 R3 R3 R3 R3 R3 R3 R3 R3 R3 R3 3 3 3 3 3 3 3 3 3 3 3 3 KC3 KC3 KC3 KC3 KC3 KC3 KC3 KC3 KC3 KC3 KC3 KC3 KC3 KC3 KC3 KC3 KC3 KC3 KC3 KC3 KC3 KC3 KC3 KC3 KC3 KC3 KC3 KC3 KC3 KC3 KC3 KC3 KC3 KC3 KC3 KC3 KC3 KC3 KC3 KC3 KC3 KC3 KC3 KC3 KC3 KC3 KC3 KC3 C3 C3 C3 C3 C3 C3 C3 C3 C3 C3 C3 C3 CR3 CR3 CR3 CR3 CR3 CR3 CR3 CR3 CR3 CR3 CR3 CR3 CR CR CR CR CR CR CR CR CR CR CR CR CR CR CR CR CR CR CR CR CR CR CR CR R R R R R R R R R R R R             JA JA JA JA JA JA JA JA JA JA JA JA JA JA JA JA JA JA JA JA JA JA JA JA JA JA JA JA JA JA JA JA JA JA JA JA JA JA JA JA JA JA JA JA JA JA JA JA A A A A A A A A A A A A AP AP AP AP AP AP AP AP AP AP AP AP AP AP AP AP AP AP AP AP AP AP AP AP AP AP AP AP AP AP AP AP AP AP AP AP P P P P P P P P P P P P             O? O? O? O? O? O? O? O? O? O? O? O? O? O? O? O? O? O? O? O? O? O? O? O? O? O? O? O? O? O? O? O? O? O? O? O? O? O? O? O? O? O? O? O? O? O? O? O? ? ? ? ? ? ? ? ? ? ? ? ? K? K? K? K? K? K? K? K? K? K? K? K? K? K? K? K? K? K? K? K? K? K? K? K? K? K? K? K? K? K? K? K? K? K? K? K? K? K? K? K? K? K? K? K? K? K? K? K? ? ? ? ? ? ? ? ? ? ? ? ? H?9 H?9 H?9 H?9 H?9 H?9 H?9 H?9 H?9 H?9 H?9 H?9 H?9 H?9 H?9 H?9 H?9 H?9 H?9 H?9 H?9 H?9 H?9 H?9 H?9 H?9 H?9 H?9 H?9 H?9 H?9 H?9 H?9 H?9 H?9 H?9 H?9 H?9 H?9 H?9 H?9 H?9 H?9 H?9 H?9 H?9 H?9 H?9 ?9 ?9 ?9 ?9 ?9 ?9 ?9 ?9 ?9 ?9 ?9 ?9 O?9 O?9 O?9 O?9 O?9 O?9 O?9 O?9 O?9 O?9 O?9 O?9 O?9 O?9 O?9 O?9 O?9 O?9 O?9 O?9 O?9 O?9 O?9 O?9 O?9 O?9 O?9 O?9 O?9 O?9 O?9 O?9 O?9 O?9 O?9 O?9 O? O? O? O? O? O? O? O? O? O? O? O? ? ? ? ? ? ? ? ? ? ? ? ? F?: F?: F?: F?: F?: F?: F?: F?: F?: F?: F?: F?: F?: F?: F?: F?: F?: F?: F?: F?: F?: F?: F?: F?: F?: F?: F?: F?: F?: F?: F?: F?: F?: F?: F?: F?: F?: F?: F?: F?: F?: F?: F?: F?: F?: F?: F?: F?: ?: ?: ?: ?: ?: ?: ?: ?: ?: ?: ?: ?: O?: O?: O?: O?: O?: O?: O?: O?: O?: O?: O?: O?: O?: O?: O?: O?: O?: O?: O?: O?: O?: O?: O?: O?: O?: O?: O?: O?: O?: O?: O?: O?: O?: O?: O?: O?: O? O? O? O? O? O? O? O? O? O? O? O? ? ? ? ? ? ? ? ? ? ? ? ? E?< E?< E?< E?< E?< E?< E?< E?< E?< E?< E?< E?< E?< E?< E?< E?< E?< E?< E?< E?< E?< E?< E?< E?< E?< E?< E?< E?< E?< E?< E?< E?< E?< E?< E?< E?< E?< E?< E?< E?< E?< E?< E?< E?< E?< E?< E?< E?< ?< ?< ?< ?< ?< ?< ?< ?< ?< ?< ?< ?< O?< O?< O?< O?< O?< O?< O?< O?< O?< O?< O?< O?< O?< O?< O?< O?< O?< O?< O?< O?< O?< O?< O?< O?< O?< O?< O?< O?< O?< O?< O?< O?< O?< O?< O?< O?< O? O? O? O? O? O? O? O? O? O? O? O? ? ? ? ? ? ? ? ? ? ? ? ? F?: F?: F?: F?: F?: F?: F?: F?: F?: F?: F?: F?: F?: F?: F?: F?: F?: F?: F?: F?: F?: F?: F?: F?: F?: F?: F?: F?: F?: F?: F?: F?: F?: F?: F?: F?: F?: F?: F?: F?: F?: F?: F?: F?: F?: F?: F?: F?: ?: ?: ?: ?: ?: ?: ?: ?: ?: ?: ?: ?: O?: O?: O?: O?: O?: O?: O?: O?: O?: O?: O?: O?: O?: O?: O?: O?: O?: O?: O?: O?: O?: O?: O?: O?: O?: O?: O?: O?: O?: O?: O?: O?: O?: O?: O?: O?: O? O? O? O? O? O? O? O? O? O? O? O? ? ? ? ? ? ? ? ? ? ? ? ? H?9 H?9 H?9 H?9 H?9 H?9 H?9 H?9 H?9 H?9 H?9 H?9 H?9 H?9 H?9 H?9 H?9 H?9 H?9 H?9 H?9 H?9 H?9 H?9 H?9 H?9 H?9 H?9 H?9 H?9 H?9 H?9 H?9 H?9 H?9 H?9 H?9 H?9 H?9 H?9 H?9 H?9 H?9 H?9 H?9 H?9 H?9 H?9 9 9 9 9 9 9 9 9 9 9 9 9 O9 O9 O9 O9 O9 O9 O9 O9 O9 O9 O9 O9 O9 O9 O9 O9 O9 O9 O9 O9 O9 O9 O9 O9 O9 O9 O9 O9 O9 O9 O9 O9 O9 O9 O9 O9 O O O O O O O O O O O O             N> N> N> N> N> N> N> N> N> N> N> N> N> N> N> N> N> N> N> N> N> N> N> N> N> N> N> N> N> N> N> N> N> N> N> N> N> N> N> N> N> N> N> N> N> N> N> N> N N N N N N N N N N N N N< N< N< N< N< N< N< N< N< N< N< N< N< N< N< N< N< N< N< N< N< N< N< N< N< N< N< N< N< N< N< N< N< N< N< N< < < < < < < < < < < < <             JO: JO: JO: JO: JO: JO: JO: JO: JO: JO: JO: JO: JO: JO: JO: JO: JO: JO: JO: JO: JO: JO: JO: JO: JO: JO: JO: JO: JO: JO: JO: JO: JO: JO: JO: JO: JO: JO: JO: JO: JO: JO: JO: JO: JO: JO: JO: JO: JO JO JO JO JO JO JO JO JO JO JO JO JO< JO< JO< JO< JO< JO< JO< JO< JO< JO< JO< JO< JO< JO< JO< JO< JO< JO< JO< JO< JO< JO< JO< JO< JO< JO< JO< JO< JO< JO< JO< JO< JO< JO< JO< JO< < < < < < < < < < < < <             HM9 HM9 HM9 HM9 HM9 HM9 HM9 HM9 HM9 HM9 HM9 HM9 HM9 HM9 HM9 HM9 HM9 HM9 HM9 HM9 HM9 HM9 HM9 HM9 HM9 HM9 HM9 HM9 HM9 HM9 HM9 HM9 HM9 HM9 HM9 HM9 HM9 HM9 HM9 HM9 HM9 HM9 HM9 HM9 HM9 HM9 HM9 HM9 HM HM HM HM HM HM HM HM HM HM HM HM HM: HM: HM: HM: HM: HM: HM: HM: HM: HM: HM: HM: HM: HM: HM: HM: HM: HM: HM: HM: HM: HM: HM: HM: HM: HM: HM: HM: HM: HM: HM: HM: HM: HM: HM: HM: : : : : : : : : : : : :             FK7 FK7 FK7 FK7 FK7 FK7 FK7 FK7 FK7 FK7 FK7 FK7 FK7 FK7 FK7 FK7 FK7 FK7 FK7 FK7 FK7 FK7 FK7 FK7 FK7 FK7 FK7 FK7 FK7 FK7 FK7 FK7 FK7 FK7 FK7 FK7 FK7 FK7 FK7 FK7 FK7 FK7 FK7 FK7 FK7 FK7 FK7 FK7 FK FK FK FK FK FK FK FK FK FK FK FK FK: FK: FK: FK: FK: FK: FK: FK: FK: FK: FK: FK: FK: FK: FK: FK: FK: FK: FK: FK: FK: FK: FK: FK: FK: FK: FK: FK: FK: FK: FK: FK: FK: FK: FK: FK: : : : : : : : : : : : :             EJ5 EJ5 EJ5 EJ5 EJ5 EJ5 EJ5 EJ5 EJ5 EJ5 EJ5 EJ5 EJ5 EJ5 EJ5 EJ5 EJ5 EJ5 EJ5 EJ5 EJ5 EJ5 EJ5 EJ5 EJ5 EJ5 EJ5 EJ5 EJ5 EJ5 EJ5 EJ5 EJ5 EJ5 EJ5 EJ5 EJ5 EJ5 EJ5 EJ5 EJ5 EJ5 EJ5 EJ5 EJ5 EJ5 EJ5 EJ5 EJ EJ EJ EJ EJ EJ EJ EJ EJ EJ EJ EJ EJ: EJ: EJ: EJ: EJ: EJ: EJ: EJ: EJ: EJ: EJ: EJ: EJ: EJ: EJ: EJ: EJ: EJ: EJ: EJ: EJ: EJ: EJ: EJ: EJ: EJ: EJ: EJ: EJ: EJ: EJ: EJ: EJ: EJ: EJ: EJ: : : : : : : : : : : : :             CH3 CH3 CH3 CH3 CH3 CH3 CH3 CH3 CH3 CH3 CH3 CH3 CH3 CH3 CH3 CH3 CH3 CH3 CH3 CH3 CH3 CH3 CH3 CH3 CH3 CH3 CH3 CH3 CH3 CH3 CH3 CH3 CH3 CH3 CH3 CH3 CH3 CH3 CH3 CH3 CH3 CH3 CH3 CH3 CH3 CH3 CH3 CH3 CH CH CH CH CH CH CH CH CH CH CH CH CH: CH: CH: CH: CH: CH: CH: CH: CH: CH: CH: CH: CH: CH: CH: CH: CH: CH: CH: CH: CH: CH: CH: CH: CH: CH: CH: CH: CH: CH: CH: CH: CH: CH: CH: CH: : : : : : : : : : : : :             MFA2 MFA2 MFA2 MFA2 MFA2 MFA2 MFA2 MFA2 MFA2 MFA2 MFA2 MFA2 MFA2 MFA2 MFA2 MFA2 MFA2 MFA2 MFA2 MFA2 MFA2 MFA2 MFA2 MFA2 MFA2 MFA2 MFA2 MFA2 MFA2 MFA2 MFA2 MFA2 MFA2 MFA2 MFA2 MFA2 MFA2 MFA2 MFA2 MFA2 MFA2 MFA2 MFA2 MFA2 MFA2 MFA2 MFA2 MFA2 MFA MFA MFA MFA MFA MFA MFA MFA MFA MFA MFA MFA MFA: MFA: MFA: MFA: MFA: MFA: MFA: MFA: MFA: MFA: MFA: MFA: MFA: MFA: MFA: MFA: MFA: MFA: MFA: MFA: MFA: MFA: MFA: MFA: MFA: MFA: MFA: MFA: MFA: MFA: MFA: MFA: MFA: MFA: MFA: MFA: A: A: A: A: A: A: A: A: A: A: A: A: A A A A A A A A A A A A AKE0 AKE0 AKE0 AKE0 AKE0 AKE0 AKE0 AKE0 AKE0 AKE0 AKE0 AKE0 AKE0 AKE0 AKE0 AKE0 AKE0 AKE0 AKE0 AKE0 AKE0 AKE0 AKE0 AKE0 AKE0 AKE0 AKE0 AKE0 AKE0 AKE0 AKE0 AKE0 AKE0 AKE0 AKE0 AKE0 AKE0 AKE0 AKE0 AKE0 AKE0 AKE0 AKE0 AKE0 AKE0 AKE0 AKE0 AKE0 AKE AKE AKE AKE AKE AKE AKE AKE AKE AKE AKE AKE AKE: AKE: AKE: AKE: AKE: AKE: AKE: AKE: AKE: AKE: AKE: AKE: KE: KE: KE: KE: KE: KE: KE: KE: KE: KE: KE: KE: KE: KE: KE: KE: KE: KE: KE: KE: KE: KE: KE: KE: : : : : : : : : : : : :             AJF. AJF. AJF. AJF. AJF. AJF. AJF. AJF. AJF. AJF. AJF. AJF. AJF. AJF. AJF. AJF. AJF. AJF. AJF. AJF. AJF. AJF. AJF. AJF. AJF. AJF. AJF. AJF. AJF. AJF. AJF. AJF. AJF. AJF. AJF. AJF. AJF. AJF. AJF. AJF. AJF. AJF. AJF. AJF. AJF. AJF. AJF. AJF. AJF AJF AJF AJF AJF AJF AJF AJF AJF AJF AJF AJF AJF: AJF: AJF: AJF: AJF: AJF: AJF: AJF: AJF: AJF: AJF: AJF: AJF: AJF: AJF: AJF: AJF: AJF: AJF: AJF: AJF: AJF: AJF: AJF: AJF: AJF: AJF: AJF: AJF: AJF: AJF: AJF: AJF: AJF: AJF: AJF: JF: JF: JF: JF: JF: JF: JF: JF: JF: JF: JF: JF: JF JF JF JF JF JF JF JF JF JF JF JF JFC3 JFC3 JFC3 JFC3 JFC3 JFC3 JFC3 JFC3 JFC3 JFC3 JFC3 JFC3 JFC3 JFC3 JFC3 JFC3 JFC3 JFC3 JFC3 JFC3 JFC3 JFC3 JFC3 JFC3 JFC3 JFC3 JFC3 JFC3 JFC3 JFC3 JFC3 JFC3 JFC3 JFC3 JFC3 JFC3 JFC3 JFC3 JFC3 JFC3 JFC3 JFC3 JFC3 JFC3 JFC3 JFC3 JFC3 JFC3 C3 C3 C3 C3 C3 C3 C3 C3 C3 C3 C3 C3 CO3 CO3 CO3 CO3 CO3 CO3 CO3 CO3 CO3 CO3 CO3 CO3 CO3 CO3 CO3 CO3 CO3 CO3 CO3 CO3 CO3 CO3 CO3 CO3 CO3 CO3 CO3 CO3 CO3 CO3 CO3 CO3 CO3 CO3 CO3 CO3 O O O O O O O O O O O O             JE5 JE5 JE5 JE5 JE5 JE5 JE5 JE5 JE5 JE5 JE5 JE5 JE5 JE5 JE5 JE5 JE5 JE5 JE5 JE5 JE5 JE5 JE5 JE5 E5 E5 E5 E5 E5 E5 HE5 HE5 HE5 HE5 HE5 HE5 HE5 HE5 HE5 HE5 HE5 HE5 HE5 HE5 HE5 HE5 HE5 HE5 HE5 HE5 HE5 HE5 HE5 HE5 E5 E5 E5 E5 E5 E5 JE5 JE5 JE5 JE5 JE5 JE5 JE5 JE5 JE5 JE5 JE5 JE5 JE5 JE5 JE5 JE5 JE5 JE5 JE5 JE5 JE5 JE5 JE5 JE5 E5 E5 E5 E5 E5 E5 HE5 HE5 HE5 HE5 HE5 HE5 HE HE HE HE HE HE HE HE HE HE HE HE HE HE HE HE HE HE HE HE HE HE HE HE HE) HE) HE) HE) HE) HE) HE) HE) HE) HE) HE) HE) HE) HE) HE) HE) HE) HE) HE) HE) HE) HE) HE) HE) HE) HE) HE) HE) HE) HE) HE) HE) HE) HE) HE) HE) HE) HE) HE) HE) HE) HE) HE) HE) HE) HE) HE) HE) HE) HE) HE) HE) HE) HE) HE) HE) HE) E) E) E) EF) EF) EF) EF) EF) EF) EF) EF) EF) EF) EF) EF) F) F) F) F) F) F) F) F) F) F) F) F) F) F) F) F) F) F) F) F) F) F) F) F) F F F F F F F F F F F F             FF. FF. FF. FF. FF. FF. FF. FF. FF. FF. FF. FF. FF. FF. FF. FF. FF. FF. FF. FF. FF. FF. FF. FF. FF. FF. FF. FF. FF. FF. FF. FF. FF. FF. FF. FF. FF. FF. FF. FF. FF. FF. FF. FF. FF. FF. FF. FF. FF. FF. FF. FF. FF. FF. FF. FF. FF. FF. FF. FF. FF. FF. FF. FF. FF. FF. FF. FF. FF. FF. FF. FF. FF. FF. FF. FF. FF. FF. FF. FF. FF. FF. FF. FF. FF. FF. FF. FF. FF. FF. FF. FF. FF. FF. FF. FF. . . . . . . . . . . . . . . . . . . . . . . . . M. M. M. M. M. M. M. M. M. M. M. M. M. M. M. M. M. M. M. M. M. M. M. M. M. M. M. M. M. M. M. M. M. M. M. M. M. M. M. M. M. M. M. M. M. M. M. M. M. M. M. M. M. M. M. M. M. M. M. M. M. M. M. M. M. M. M. M. M. M. M. M. M M M M M M M M M M M M M M M M M M M M M M M M                         M M M M M M M M M M M M M M M M M M M M M M M M M M M M M M M M M M M M M M M M M M M M M M M M M M M M M M M M M M M M M M M M M M M M M M M M M M M M M M M M M M M M M M M M M M M M M M M M                         J J J J J J J J J J J J J J J J J J J J J J J J J J J J J J J J J J J J J J J J J J J J J J J J J J J J J J J J J J J J J J J J J J J J J J J J J J J J J J J J J J J J J J J J J J J J J J J J                         JF JF JF JF JF JF JF JF JF JF JF JF JF JF JF JF JF JF JF JF JF JF JF JF JF JF JF JF JF JF JF JF JF JF JF JF JF JF JF JF JF JF JF JF JF JF JF JF JF JF JF JF JF JF JF JF JF JF JF JF JF JF JF JF JF JF JF JF JF JF JF JF JF JF JF JF JF JF JF JF JF JF JF JF JF JF JF JF JF JF JF JF JF JF JF JF                         JF JF JF JF JF JF JF JF JF JF JF JF JF JF JF JF JF JF JF JF JF JF JF JF JF JF JF JF JF JF JF JF JF JF JF JF JF JF JF JF JF JF JF JF JF JF JF JF JF JF JF JF JF JF JF JF JF JF JF JF JF JF JF JF JF JF JF JF JF JF JF JF JF JF JF JF JF JF JF JF JF JF JF JF JF JF JF JF JF JF JF JF JF JF JF JF                         HE HE HE HE HE HE HE HE HE HE HE HE HE HE HE HE HE HE HE HE HE HE HE HE HE HE HE HE HE HE HE HE HE HE HE HE HE HE HE HE HE HE HE HE HE HE HE HE E E E E E E E E E E E E EF EF EF EF EF EF EF EF EF EF EF EF EF EF EF EF EF EF EF EF EF EF EF EF EF EF EF EF EF EF EF EF EF EF EF EF F F F F F F F F F F F F             HEA HEA HEA HEA HEA HEA HEA HEA HEA HEA HEA HEA HEA HEA HEA HEA HEA HEA HEA HEA HEA HEA HEA HEA HEA HEA HEA HEA HEA HEA HEA HEA HEA HEA HEA HEA HEA HEA HEA HEA HEA HEA HEA HEA HEA HEA HEA HEA EA EA EA EA EA EA EA EA EA EA EA EA EJA EJA EJA EJA EJA EJA EJA EJA EJA EJA EJA EJA EJA EJA EJA EJA EJA EJA EJA EJA EJA EJA EJA EJA EJA EJA EJA EJA EJA EJA EJA EJA EJA EJA EJA EJA J J J J J J J J J J J J             HEA HEA HEA HEA HEA HEA HEA HEA HEA HEA HEA HEA HEA HEA HEA HEA HEA HEA HEA HEA HEA HEA HEA HEA HEA HEA HEA HEA HEA HEA HEA HEA HEA HEA HEA HEA HEA HEA HEA HEA HEA HEA HEA HEA HEA HEA HEA HEA EA EA EA EA EA EA EA EA EA EA EA EA EJA EJA EJA EJA EJA EJA EJA EJA EJA EJA EJA EJA EJA EJA EJA EJA EJA EJA EJA EJA EJA EJA EJA EJA EJA EJA EJA EJA EJA EJA EJA EJA EJA EJA EJA EJA JA JA JA JA JA JA JA JA JA JA JA JA A A A A A A A A A A A A FA> FA> FA> FA> FA> FA> FA> FA> FA> FA> FA> FA> FA> FA> FA> FA> FA> FA> FA> FA> FA> FA> FA> FA> FA> FA> FA> FA> FA> FA> FA> FA> FA> FA> FA> FA> FA> FA> FA> FA> FA> FA> FA> FA> FA> FA> FA> FA> A> A> A> A> A> A> A> A> A> A> A> A> EA> EA> EA> EA> EA> EA> EA> EA> EA> EA> EA> EA> EA> EA> EA> EA> EA> EA> EA> EA> EA> EA> EA> EA> EA> EA> EA> EA> EA> EA> EA> EA> EA> EA> EA> EA> E E E E E E E E E E E E             F:>A F:>A F:>A F:>A F:>A F:>A F:>A F:>A F:>A F:>A F:>A F:>A F:>A F:>A F:>A F:>A F:>A F:>A F:>A F:>A F:>A F:>A F:>A F:>A F:>A F:>A F:>A F:>A F:>A F:>A F:>A F:>A F:>A F:>A F:>A F:>A F:>A F:>A F:>A F:>A F:>A F:>A F:>A F:>A F:>A F:>A F:>A F:>A :>A :>A :>A :>A :>A :>A :>A :>A :>A :>A :>A :>A H:>A H:>A H:>A H:>A H:>A H:>A H:>A H:>A H:>A H:>A H:>A H:>A H:>A H:>A H:>A H:>A H:>A H:>A H:>A H:>A H:>A H:>A H:>A H:>A H:>A H:>A H:>A H:>A H:>A H:>A H:>A H:>A H:>A H:>A H:>A H:>A H H H H H H H H H H H H             JA:> JA:> JA:> JA:> JA:> JA:> JA:> JA:> JA:> JA:> JA:> JA:> JA:> JA:> JA:> JA:> JA:> JA:> JA:> JA:> JA:> JA:> JA:> JA:> JA:> JA:> JA:> JA:> JA:> JA:> JA:> JA:> JA:> JA:> JA:> JA:> JA:> JA:> JA:> JA:> JA:> JA:> JA:> JA:> JA:> JA:> JA:> JA:> A:> A:> A:> A:> A:> A:> A:> A:> A:> A:> A:> A:> KA:> KA:> KA:> KA:> KA:> KA:> KA:> KA:> KA:> KA:> KA:> KA:> KA:> KA:> KA:> KA:> KA:> KA:> KA:> KA:> KA:> KA:> KA:> KA:> KA:> KA:> KA:> KA:> KA:> KA:> KA:> KA:> KA:> KA:> KA:> KA:> K K K K K K K K K K K K             M9A< M9A< M9A< M9A< M9A< M9A< M9A< M9A< M9A< M9A< M9A< M9A< M9A< M9A< M9A< M9A< M9A< M9A< M9A< M9A< M9A< M9A< M9A< M9A< M9A< M9A< M9A< M9A< M9A< M9A< M9A< M9A< M9A< M9A< M9A< M9A< M9A< M9A< M9A< M9A< M9A< M9A< M9A< M9A< M9A< M9A< M9A< M9A< 9A< 9A< 9A< 9A< 9A< 9A< 9A< 9A< 9A< 9A< 9A< 9A< L9A< L9A< L9A< L9A< L9A< L9A< L9A< L9A< L9A< L9A< L9A< L9A< L9A< L9A< L9A< L9A< L9A< L9A< L9A< L9A< L9A< L9A< L9A< L9A< L9A< L9A< L9A< L9A< L9A< L9A< L9A< L9A< L9A< L9A< L9A< L9A< L L L L L L L L L L L L             M5<9 M5<9 M5<9 M5<9 M5<9 M5<9 M5<9 M5<9 M5<9 M5<9 M5<9 M5<9 M5<9 M5<9 M5<9 M5<9 M5<9 M5<9 M5<9 M5<9 M5<9 M5<9 M5<9 M5<9 M5<9 M5<9 M5<9 M5<9 M5<9 M5<9 M5<9 M5<9 M5<9 M5<9 M5<9 M5<9 M5<9 M5<9 M5<9 M5<9 M5<9 M5<9 M5<9 M5<9 M5<9 M5<9 M5<9 M5<9 5<9 5<9 5<9 5<9 5<9 5<9 5<9 5<9 5<9 5<9 5<9 5<9 O5<9 O5<9 O5<9 O5<9 O5<9 O5<9 O5<9 O5<9 O5<9 O5<9 O5<9 O5<9 O5<9 O5<9 O5<9 O5<9 O5<9 O5<9 O5<9 O5<9 O5<9 O5<9 O5<9 O5<9 O5<9 O5<9 O5<9 O5<9 O5<9 O5<9 O5<9 O5<9 O5<9 O5<9 O5<9 O5<9 O O O O O O O O O O O O             Q95< Q95< Q95< Q95< Q95< Q95< Q95< Q95< Q95< Q95< Q95< Q95< Q95< Q95< Q95< Q95< Q95< Q95< Q95< Q95< Q95< Q95< Q95< Q95< Q95< Q95< Q95< Q95< Q95< Q95< Q95< Q95< Q95< Q95< Q95< Q95< Q95< Q95< Q95< Q95< Q95< Q95< Q95< Q95< Q95< Q95< Q95< Q95< 95< 95< 95< 95< 95< 95< 95< 95< 95< 95< 95< 95< M95< M95< M95< M95< M95< M95< M95< M95< M95< M95< M95< M95< M95< M95< M95< M95< M95< M95< M95< M95< M95< M95< M95< M95< M95< M95< M95< M95< M95< M95< M95< M95< M95< M95< M95< M95< M M M M M M M M M M M M             R2:5 R2:5 R2:5 R2:5 R2:5 R2:5 R2:5 R2:5 R2:5 R2:5 R2:5 R2:5 R2:5 R2:5 R2:5 R2:5 R2:5 R2:5 R2:5 R2:5 R2:5 R2:5 R2:5 R2:5 R2:5 R2:5 R2:5 R2:5 R2:5 R2:5 R2:5 R2:5 R2:5 R2:5 R2:5 R2:5 R2:5 R2:5 R2:5 R2:5 R2:5 R2:5 R2:5 R2:5 R2:5 R2:5 R2:5 R2:5 2:5 2:5 2:5 2:5 2:5 2:5 2:5 2:5 2:5 2:5 2:5 2:5 Q2:5 Q2:5 Q2:5 Q2:5 Q2:5 Q2:5 Q2:5 Q2:5 Q2:5 Q2:5 Q2:5 Q2:5 Q2:5 Q2:5 Q2:5 Q2:5 Q2:5 Q2:5 Q2:5 Q2:5 Q2:5 Q2:5 Q2:5 Q2:5 Q2:5 Q2:5 Q2:5 Q2:5 Q2:5 Q2:5 Q2:5 Q2:5 Q2:5 Q2:5 Q2:5 Q2:5 Q Q Q Q Q Q Q Q Q Q Q Q             R.52 R.52 R.52 R.52 R.52 R.52 R.52 R.52 R.52 R.52 R.52 R.52 R.52 R.52 R.52 R.52 R.52 R.52 R.52 R.52 R.52 R.52 R.52 R.52 R.52 R.52 R.52 R.52 R.52 R.52 R.52 R.52 R.52 R.52 R.52 R.52 R.52 R.52 R.52 R.52 R.52 R.52 R.52 R.52 R.52 R.52 R.52 R.52 .52 .52 .52 .52 .52 .52 .52 .52 .52 .52 .52 .52 T.52 T.52 T.52 T.52 T.52 T.52 T.52 T.52 T.52 T.52 T.52 T.52 T.52 T.52 T.52 T.52 T.52 T.52 T.52 T.52 T.52 T.52 T.52 T.52 T.52 T.52 T.52 T.52 T.52 T.52 T.52 T.52 T.52 T.52 T.52 T.52 T T T T T T T T T T T T             Q5.2 Q5.2 Q5.2 Q5.2 Q5.2 Q5.2 Q5.2 Q5.2 Q5.2 Q5.2 Q5.2 Q5.2 Q5.2 Q5.2 Q5.2 Q5.2 Q5.2 Q5.2 Q5.2 Q5.2 Q5.2 Q5.2 Q5.2 Q5.2 Q5.2 Q5.2 Q5.2 Q5.2 Q5.2 Q5.2 Q5.2 Q5.2 Q5.2 Q5.2 Q5.2 Q5.2 Q5.2 Q5.2 Q5.2 Q5.2 Q5.2 Q5.2 Q5.2 Q5.2 Q5.2 Q5.2 Q5.2 Q5.2 5.2 5.2 5.2 5.2 5.2 5.2 5.2 5.2 5.2 5.2 5.2 5.2 R5.2 R5.2 R5.2 R5.2 R5.2 R5.2 R5.2 R5.2 R5.2 R5.2 R5.2 R5.2 R5.2 R5.2 R5.2 R5.2 R5.2 R5.2 R5.2 R5.2 R5.2 R5.2 R5.2 R5.2 R5.2 R5.2 R5.2 R5.2 R5.2 R5.2 R5.2 R5.2 R5.2 R5.2 R5.2 R5.2 R R R R R R R R R R R R             T)50- T)50- T)50- T)50- T)50- T)50- T)50- T)50- T)50- T)50- T)50- T)50- T)50- T)50- T)50- T)50- T)50- T)50- T)50- T)50- T)50- T)50- T)50- T)50- T)50- T)50- T)50- T)50- T)50- T)50- T)50- T)50- T)50- T)50- T)50- T)50- T)50- T)50- T)50- T)50- T)50- T)50- T)50- T)50- T)50- T)50- T)50- T)50- )50- )50- )50- )50- )50- )50- )50- )50- )50- )50- )50- )50- R)50- R)50- R)50- R)50- R)50- R)50- R)50- R)50- R)50- R)50- R)50- R)50- R)50- R)50- R)50- R)50- R)50- R)50- R)50- R)50- R)50- R)50- R)50- R)50- R)50- R)50- R)50- R)50- R)50- R)50- R)50- R)50- R)50- R)50- R)50- R)50- R)50- R)50- R)50- R)50- R)50- R)50- R)50- R)50- R)50- R)50- R)50- R)50- )50- )50- )50- )50- )50- )50- )50- )50- )50- )50- )50- )50- Q)50- Q)50- Q)50- Q)50- Q)50- Q)50- Q)50- Q)50- Q)50- Q)50- Q)50- Q)50- Q)50- Q)50- Q)50- Q)50- Q)50- Q)50- Q)50- Q)50- Q)50- Q)50- Q)50- Q)50- Q)50- Q)50- Q)50- Q)50- Q)50- Q)50- Q)50- Q)50- Q)50- Q)50- Q)50- Q)50- Q)50- Q)50- Q)50- Q)50- Q)50- Q)50- Q)50- Q)50- Q)50- Q)50- Q)50- Q)50- )50- )50- )50- )50- )50- )50- )50- )50- )50- )50- )50- )50- O)50- O)50- O)50- O)50- O)50- O)50- O)50- O)50- O)50- O)50- O)50- O)50- O O O O O O O O O O O O O O O O O O O O O O O O O O O O O O O O O O O O             M M M M M M M M M M M M M M M M M M M M M M M M M M M M M M M M M M M M M M M M M M M M M M M M             K K K K K K K K K K K K K K K K K K K K K K K K K K K K K K K K K K K K K K K K K K K K K K K K             J J J J J J J J J J J J J J J J J J J J J J J J J J J J J J J J J J J J J J J J J J J J J J J J J J J J J J J J J J J J JH JH JH JH JH JH JH JH JH JH JH JH JH JH JH JH JH JH JH JH JH JH JH JH JH JH JH JH JH JH H H H H H H H H H H H H H H H H H H             RMJF RMJF RMJF RMJF RMJF RMJF RMJF RMJF RMJF RMJF RMJF RMJF RMJF RMJF RMJF RMJF RMJF RMJF RMJF RMJF RMJF RMJF RMJF RMJF RMJF RMJF RMJF RMJF RMJF RMJF RMJF RMJF RMJF RMJF RMJF RMJF RMJF RMJF RMJF RMJF RMJF RMJF RMJF RMJF RMJF RMJF RMJF RMJF RMJ RMJ RMJ RMJ RMJ RMJ RMJ RMJ RMJ RMJ RMJ RMJ RMJE RMJE RMJE RMJE RMJE RMJE RMJE RMJE RMJE RMJE RMJE RMJE RMJE RMJE RMJE RMJE RMJE RMJE RMJE RMJE RMJE RMJE RMJE RMJE RMJE RMJE RMJE RMJE RMJE RMJE RMJE RMJE RMJE RMJE RMJE RMJE E E E E E E E E E E E E             JRMC JRMC JRMC JRMC JRMC JRMC JRMC JRMC JRMC JRMC JRMC JRMC JRMC JRMC JRMC JRMC JRMC JRMC JRMC JRMC JRMC JRMC JRMC JRMC JRMC JRMC JRMC JRMC JRMC JRMC JRMC JRMC JRMC JRMC JRMC JRMC JRMC JRMC JRMC JRMC JRMC JRMC JRMC JRMC JRMC JRMC JRMC JRMC JRM JRM JRM JRM JRM JRM JRM JRM JRM JRM JRM JRM JRMA JRMA JRMA JRMA JRMA JRMA JRMA JRMA JRMA JRMA JRMA JRMA JRMA JRMA JRMA JRMA JRMA JRMA JRMA JRMA JRMA JRMA JRMA JRMA JRMA JRMA JRMA JRMA JRMA JRMA JRMA JRMA JRMA JRMA JRMA JRMA A A A A A A A A A A A A             OJ? OJ? OJ? OJ? OJ? OJ? OJ? OJ? OJ? OJ? OJ? OJ? OJ? OJ? OJ? OJ? OJ? OJ? OJ? OJ? OJ? OJ? OJ? OJ? OJ? OJ? OJ? OJ? OJ? OJ? OJ? OJ? OJ? OJ? OJ? OJ? OJ? OJ? OJ? OJ? OJ? OJ? OJ? OJ? OJ? OJ? OJ? OJ? J J J J J J J J J J J J JQA JQA JQA JQA JQA JQA JQA JQA JQA JQA JQA JQA JQA JQA JQA JQA JQA JQA JQA JQA JQA JQA JQA JQA JQA JQA JQA JQA JQA JQA JQA JQA JQA JQA JQA JQA QA QA QA QA QA QA QA QA QA QA QA QA             O? O? O? O? O? O? O? O? O? O? O? O? O? O? O? O? O? O? O? O? O? O? O? O? O? O? O? O? O? O? O? O? O? O? O? O? O? O? O? O? O? O? O? O? O? O? O? O?             M> M> M> M> M> M> M> M> M> M> M> M> M> M> M> M> M> M> M> M> M> M> M> M> M> M> M> M> M> M> M> M> M> M> M> M> M> M> M> M> M> M> M> M> M> M> M> M>             K< K< K< K< K< K< K< K< K< K< K< K< K< K< K< K< K< K< K< K< K< K< K< K< K< K< K< K< K< K< K< K< K< K< K< K< K< K< K< K< K< K< K< K< K< K< K< K<             J: J: J: J: J: J: J: J: J: J: J: J: J: J: J: J: J: J: J: J: J: J: J: J: J: J: J: J: J: J: J: J: J: J: J: J: J: J: J: J: J: J: J: J: J: J: J: J:             H9 H9 H9 H9 H9 H9 H9 H9 H9 H9 H9 H9 H9 H9 H9 H9 H9 H9 H9 H9 H9 H9 H9 H9 H9 H9 H9 H9 H9 H9 H9 H9 H9 H9 H9 H9 H9 H9 H9 H9 H9 H9 H9 H9 H9 H9 H9 H9 H H H H H H H H H H H H HF HF HF HF HF HF HF HF HF HF HF HF HF HF HF HF HF HF HF HF HF HF HF HF HF HF HF HF HF HF HF HF HF HF HF HF F F F F F F F F F F F F             QHKE QHKE QHKE QHKE QHKE QHKE QHKE QHKE QHKE QHKE QHKE QHKE QHKE QHKE QHKE QHKE QHKE QHKE QHKE QHKE QHKE QHKE QHKE QHKE QHKE QHKE QHKE QHKE QHKE QHKE QHKE QHKE QHKE QHKE QHKE QHKE QHKE QHKE QHKE QHKE QHKE QHKE QHKE QHKE QHKE QHKE QHKE QHKE QHK QHK QHK QHK QHK QHK QHK QHK QHK QHK QHK QHK QHKC QHKC QHKC QHKC QHKC QHKC QHKC QHKC QHKC QHKC QHKC QHKC QHKC QHKC QHKC QHKC QHKC QHKC QHKC QHKC QHKC QHKC QHKC QHKC QHKC QHKC QHKC QHKC QHKC QHKC QHKC QHKC QHKC QHKC QHKC QHKC C C C C C C C C C C C C             KQHA KQHA KQHA KQHA KQHA KQHA KQHA KQHA KQHA KQHA KQHA KQHA KQHA KQHA KQHA KQHA KQHA KQHA KQHA KQHA KQHA KQHA KQHA KQHA KQHA KQHA KQHA KQHA KQHA KQHA KQHA KQHA KQHA KQHA KQHA KQHA KQHA KQHA KQHA KQHA KQHA KQHA KQHA KQHA KQHA KQHA KQHA KQHA KQH KQH KQH KQH KQH KQH KQH KQH KQH KQH KQH KQH KQH? KQH? KQH? KQH? KQH? KQH? KQH? KQH? KQH? KQH? KQH? KQH? KQH? KQH? KQH? KQH? KQH? KQH? KQH? KQH? KQH? KQH? KQH? KQH? KQH? KQH? KQH? KQH? KQH? KQH? KQH? KQH? KQH? KQH? KQH? KQH? ? ? ? ? ? ? ? ? ? ? ? ?             MH> MH> MH> MH> MH> MH> MH> MH> MH> MH> MH> MH> MH> MH> MH> MH> MH> MH> MH> MH> MH> MH> MH> MH> MH> MH> MH> MH> MH> MH> MH> MH> MH> MH> MH> MH> MH> MH> MH> MH> MH> MH> MH> MH> MH> MH> MH> MH> H H H H H H H H H H H H HO? HO? HO? HO? HO? HO? HO? HO? HO? HO? HO? HO? HO? HO? HO? HO? HO? HO? HO? HO? HO? HO? HO? HO? HO? HO? HO? HO? HO? HO? HO? HO? HO? HO? HO? HO? O? O? O? O? O? O? O? O? O? O? O? O?             M> M> M> M> M> M> M> M> M> M> M> M> M> M> M> M> M> M> M> M> M> M> M> M> M> M> M> M> M> M> M> M> M> M> M> M> M> M> M> M> M> M> M> M> M> M> M> M>             K< K< K< K< K< K< K< K< K< K< K< K< K< K< K< K< K< K< K< K< K< K< K< K< K< K< K< K< K< K< K< K< K< K< K< K< K< K< K< K< K< K< K< K< K< K< K< K<             J: J: J: J: J: J: J: J: J: J: J: J: J: J: J: J: J: J: J: J: J: J: J: J: J: J: J: J: J: J: J: J: J: J: J: J: J: J: J: J: J: J: J: J: J: J: J: J:             H9 H9 H9 H9 H9 H9 H9 H9 H9 H9 H9 H9 H9 H9 H9 H9 H9 H9 H9 H9 H9 H9 H9 H9 H9 H9 H9 H9 H9 H9 H9 H9 H9 H9 H9 H9 H9 H9 H9 H9 H9 H9 H9 H9 H9 H9 H9 H9             F7 F7 F7 F7 F7 F7 F7 F7 F7 F7 F7 F7 F7 F7 F7 F7 F7 F7 F7 F7 F7 F7 F7 F7 F7 F7 F7 F7 F7 F7 F7 F7 F7 F7 F7 F7 F7 F7 F7 F7 F7 F7 F7 F7 F7 F7 F7 F7 F F F F F F F F F F F F FE FE FE FE FE FE FE FE FE FE FE FE FE FE FE FE FE FE FE FE FE FE FE FE FE FE FE FE FE FE E E E E E E E E E E E E E E E E E E             FJOC FJOC FJOC FJOC FJOC FJOC FJOC FJOC FJOC FJOC FJOC FJOC FJOC FJOC FJOC FJOC FJOC FJOC FJOC FJOC FJOC FJOC FJOC FJOC FJOC FJOC FJOC FJOC FJOC FJOC FJOC FJOC FJOC FJOC FJOC FJOC FJOC FJOC FJOC FJOC FJOC FJOC FJOC FJOC FJOC FJOC FJOC FJOC FJO FJO FJO FJO FJO FJO FJO FJO FJO FJO FJO FJO FJOA FJOA FJOA FJOA FJOA FJOA FJOA FJOA FJOA FJOA FJOA FJOA FJOA FJOA FJOA FJOA FJOA FJOA FJOA FJOA FJOA FJOA FJOA FJOA FJOA FJOA FJOA FJOA FJOA FJOA FJOA FJOA FJOA FJOA FJOA FJOA A A A A A A A A A A A A             OFJ? OFJ? OFJ? OFJ? OFJ? OFJ? OFJ? OFJ? OFJ? OFJ? OFJ? OFJ? OFJ? OFJ? OFJ? OFJ? OFJ? OFJ? OFJ? OFJ? OFJ? OFJ? OFJ? OFJ? OFJ? OFJ? OFJ? OFJ? OFJ? OFJ? OFJ? OFJ? OFJ? OFJ? OFJ? OFJ? OFJ? OFJ? OFJ? OFJ? OFJ? OFJ? OFJ? OFJ? OFJ? OFJ? OFJ? OFJ? OFJ OFJ OFJ OFJ OFJ OFJ OFJ OFJ OFJ OFJ OFJ OFJ OFJ> OFJ> OFJ> OFJ> OFJ> OFJ> OFJ> OFJ> OFJ> OFJ> OFJ> OFJ> OFJ> OFJ> OFJ> OFJ> OFJ> OFJ> OFJ> OFJ> OFJ> OFJ> OFJ> OFJ> OFJ> OFJ> OFJ> OFJ> OFJ> OFJ> OFJ> OFJ> OFJ> OFJ> OFJ> OFJ> > > > > > > > > > > > >             KF< KF< KF< KF< KF< KF< KF< KF< KF< KF< KF< KF< KF< KF< KF< KF< KF< KF< KF< KF< KF< KF< KF< KF< KF< KF< KF< KF< KF< KF< KF< KF< KF< KF< KF< KF< KF< KF< KF< KF< KF< KF< KF< KF< KF< KF< KF< KF< F F F F F F F F F F F F FM> FM> FM> FM> FM> FM> FM> FM> FM> FM> FM> FM> FM> FM> FM> FM> FM> FM> FM> FM> FM> FM> FM> FM> FM> FM> FM> FM> FM> FM> FM> FM> FM> FM> FM> FM> M> M> M> M> M> M> M> M> M> M> M> M>             K< K< K< K< K< K< K< K< K< K< K< K< K< K< K< K< K< K< K< K< K< K< K< K< K< K< K< K< K< K< K< K< K< K< K< K< K< K< K< K< K< K< K< K< K< K< K< K<             J: J: J: J: J: J: J: J: J: J: J: J: J: J: J: J: J: J: J: J: J: J: J: J: J: J: J: J: J: J: J: J: J: J: J: J: J: J: J: J: J: J: J: J: J: J: J: J:             H9 H9 H9 H9 H9 H9 H9 H9 H9 H9 H9 H9 H9 H9 H9 H9 H9 H9 H9 H9 H9 H9 H9 H9 H9 H9 H9 H9 H9 H9 H9 H9 H9 H9 H9 H9 H9 H9 H9 H9 H9 H9 H9 H9 H9 H9 H9 H9             F7 F7 F7 F7 F7 F7 F7 F7 F7 F7 F7 F7 F7 F7 F7 F7 F7 F7 F7 F7 F7 F7 F7 F7 F7 F7 F7 F7 F7 F7 F7 F7 F7 F7 F7 F7 F7 F7 F7 F7 F7 F7 F7 F7 F7 F7 F7 F7             E5 E5 E5 E5 E5 E5 E5 E5 E5 E5 E5 E5 E5 E5 E5 E5 E5 E5 E5 E5 E5 E5 E5 E5 E5 E5 E5 E5 E5 E5 E5 E5 E5 E5 E5 E5 E5 E5 E5 E5 E5 E5 E5 E5 E5 E5 E5 E5 E E E E E E E E E E E E E7 E7 E7 E7 E7 E7 E7 E7 E7 E7 E7 E7 E7 E7 E7 E7 E7 E7 E7 E7 E7 E7 E7 E7 E7 E7 E7 E7 E7 E7 7 7 7 7 7 7 7 7 7 7 7 7 7 7 7 7 7 7             MEH5 MEH5 MEH5 MEH5 MEH5 MEH5 MEH5 MEH5 MEH5 MEH5 MEH5 MEH5 MEH5 MEH5 MEH5 MEH5 MEH5 MEH5 MEH5 MEH5 MEH5 MEH5 MEH5 MEH5 MEH5 MEH5 MEH5 MEH5 MEH5 MEH5 MEH5 MEH5 MEH5 MEH5 MEH5 MEH5 MEH5 MEH5 MEH5 MEH5 MEH5 MEH5 MEH5 MEH5 MEH5 MEH5 MEH5 MEH5 MEH MEH MEH MEH MEH MEH MEH MEH MEH MEH MEH MEH MEH3 MEH3 MEH3 MEH3 MEH3 MEH3 MEH3 MEH3 MEH3 MEH3 MEH3 MEH3 MEH3 MEH3 MEH3 MEH3 MEH3 MEH3 MEH3 MEH3 MEH3 MEH3 MEH3 MEH3 MEH3 MEH3 MEH3 MEH3 MEH3 MEH3 MEH3 MEH3 MEH3 MEH3 MEH3 MEH3 3 3 3 3 3 3 3 3 3 3 3 3             EMH2 EMH2 EMH2 EMH2 EMH2 EMH2 EMH2 EMH2 EMH2 EMH2 EMH2 EMH2 EMH2 EMH2 EMH2 EMH2 EMH2 EMH2 EMH2 EMH2 EMH2 EMH2 EMH2 EMH2 EMH2 EMH2 EMH2 EMH2 EMH2 EMH2 EMH2 EMH2 EMH2 EMH2 EMH2 EMH2 EMH2 EMH2 EMH2 EMH2 EMH2 EMH2 EMH2 EMH2 EMH2 EMH2 EMH2 EMH2 EMH EMH EMH EMH EMH EMH EMH EMH EMH EMH EMH EMH EMH0 EMH0 EMH0 EMH0 EMH0 EMH0 EMH0 EMH0 EMH0 EMH0 EMH0 EMH0 EMH0 EMH0 EMH0 EMH0 EMH0 EMH0 EMH0 EMH0 EMH0 EMH0 EMH0 EMH0 EMH0 EMH0 EMH0 EMH0 EMH0 EMH0 EMH0 EMH0 EMH0 EMH0 EMH0 EMH0 0 0 0 0 0 0 0 0 0 0 0 0             FJA. FJA. FJA. FJA. FJA. FJA. FJA. FJA. FJA. FJA. FJA. FJA. FJA. FJA. FJA. FJA. FJA. FJA. FJA. FJA. FJA. FJA. FJA. FJA. FJA. FJA. FJA. FJA. FJA. FJA. FJA. FJA. FJA. FJA. FJA. FJA. FJA. FJA. FJA. FJA. FJA. FJA. FJA. FJA. FJA. FJA. FJA. FJA. FJA FJA FJA FJA FJA FJA FJA FJA FJA FJA FJA FJA FJA0 FJA0 FJA0 FJA0 FJA0 FJA0 FJA0 FJA0 FJA0 FJA0 FJA0 FJA0 FJA0 FJA0 FJA0 FJA0 FJA0 FJA0 FJA0 FJA0 FJA0 FJA0 FJA0 FJA0 FJA0 FJA0 FJA0 FJA0 FJA0 FJA0 FJA0 FJA0 FJA0 FJA0 FJA0 FJA0 0 0 0 0 0 0 0 0 0 0 0 0             JF. JF. JF. JF. JF. JF. JF. JF. JF. JF. JF. JF. JF. JF. JF. JF. JF. JF. JF. JF. JF. JF. JF. JF. JF. JF. JF. JF. JF. JF. JF. JF. JF. JF. JF. JF. JF. JF. JF. JF. JF. JF. JF. JF. JF. JF. JF. JF. JF JF JF JF JF JF JF JF JF JF JF JF JF- JF- JF- JF- JF- JF- JF- JF- JF- JF- JF- JF- JF- JF- JF- JF- JF- JF- JF- JF- JF- JF- JF- JF- JF- JF- JF- JF- JF- JF- F- F- F- F- F- F- - - - - - - - - - - - -             JF+ JF+ JF+ JF+ JF+ JF+ JF+ JF+ JF+ JF+ JF+ JF+ JF+ JF+ JF+ JF+ JF+ JF+ JF+ JF+ JF+ JF+ JF+ JF+ JF+ JF+ JF+ JF+ JF+ JF+ JF+ JF+ JF+ JF+ JF+ JF+ JF+ JF+ JF+ JF+ JF+ JF+ JF+ JF+ JF+ JF+ JF+ JF+ JF JF JF JF JF JF JF JF JF JF JF JF JF) JF) JF) JF) JF) JF) JF) JF) JF) JF) JF) JF) JF) JF) JF) JF) JF) JF) JF) JF) JF) JF) JF) JF) JF) JF) JF) JF) JF) JF) F) F) F) F) F) F) ) ) ) ) ) ) ) ) ) ) ) )             CJ' CJ' CJ' CJ' CJ' CJ' CJ' CJ' CJ' CJ' CJ' CJ' CJ' CJ' CJ' CJ' CJ' CJ' CJ' CJ' CJ' CJ' CJ' CJ' CJ' CJ' CJ' CJ' CJ' CJ' CJ' CJ' CJ' CJ' CJ' CJ' CJ' CJ' CJ' CJ' CJ' CJ' CJ' CJ' CJ' CJ' CJ' CJ' J' J' J' J' J' J' J' J' J' J' J' J' AJ' AJ' AJ' AJ' AJ' AJ' AJ' AJ' AJ' AJ' AJ' AJ' AJ' AJ' AJ' AJ' AJ' AJ' AJ' AJ' AJ' AJ' AJ' AJ' AJ' AJ' AJ' AJ' AJ' AJ' AJ' AJ' AJ' AJ' AJ' AJ' AJ AJ AJ AJ AJ AJ AJ AJ AJ AJ AJ AJ J J J J J J J J J J J J CJ3 CJ3 CJ3 CJ3 CJ3 CJ3 CJ3 CJ3 CJ3 CJ3 CJ3 CJ3 CJ3 CJ3 CJ3 CJ3 CJ3 CJ3 CJ3 CJ3 CJ3 CJ3 CJ3 CJ3 CJ3 CJ3 CJ3 CJ3 CJ3 CJ3 CJ3 CJ3 CJ3 CJ3 CJ3 CJ3 CJ3 CJ3 CJ3 CJ3 CJ3 CJ3 CJ3 CJ3 CJ3 CJ3 CJ3 CJ3 J3 J3 J3 J3 J3 J3 J3 J3 J3 J3 J3 J3 EJ3 EJ3 EJ3 EJ3 EJ3 EJ3 EJ3 EJ3 EJ3 EJ3 EJ3 EJ3 EJ3 EJ3 EJ3 EJ3 EJ3 EJ3 EJ3 EJ3 EJ3 EJ3 EJ3 EJ3 EJ3 EJ3 EJ3 EJ3 EJ3 EJ3 EJ EJ EJ EJ EJ EJ EJ EJ EJ EJ EJ EJ EJ EJ EJ EJ EJ EJ J J J J J J J J J J J J FJ3 FJ3 FJ3 FJ3 FJ3 FJ3 FJ3 FJ3 FJ3 FJ3 FJ3 FJ3 FJ3 FJ3 FJ3 FJ3 FJ3 FJ3 FJ3 FJ3 FJ3 FJ3 FJ3 FJ3 FJ3 FJ3 FJ3 FJ3 FJ3 FJ3 FJ3 FJ3 FJ3 FJ3 FJ3 FJ3 FJ3 FJ3 FJ3 FJ3 FJ3 FJ3 FJ3 FJ3 FJ3 FJ3 FJ3 FJ3 3 3 3 3 3 3 3 3 3 3 3 3 C3 C3 C3 C3 C3 C3 C3 C3 C3 C3 C3 C3 C3 C3 C3 C3 C3 C3 C3 C3 C3 C3 C3 C3 C3 C3 C3 C3 C3 C3 C C C C C C C C C C C C C C C C C C             ?H9 ?H9 ?H9 ?H9 ?H9 ?H9 ?H9 ?H9 ?H9 ?H9 ?H9 ?H9 ?H9 ?H9 ?H9 ?H9 ?H9 ?H9 ?H9 ?H9 ?H9 ?H9 ?H9 ?H9 ?H9 ?H9 ?H9 ?H9 ?H9 ?H9 ?H9 ?H9 ?H9 ?H9 ?H9 ?H9 ?H9 ?H9 ?H9 ?H9 ?H9 ?H9 ?H9 ?H9 ?H9 ?H9 ?H9 ?H9 H9 H9 H9 H9 H9 H9 H9 H9 H9 H9 H9 H9 FH9 FH9 FH9 FH9 FH9 FH9 FH9 FH9 FH9 FH9 FH9 FH9 FH9 FH9 FH9 FH9 FH9 FH9 FH9 FH9 FH9 FH9 FH9 FH9 FH9 FH9 FH9 FH9 FH9 FH9 FH9 FH9 FH9 FH9 FH9 FH9 FH FH FH FH FH FH FH FH FH FH FH FH H H H H H H H H H H H H EH- EH- EH- EH- EH- EH- EH- EH- EH- EH- EH- EH- EH- EH- EH- EH- EH- EH- EH- EH- EH- EH- EH- EH- EH- EH- EH- EH- EH- EH- EH- EH- EH- EH- EH- EH- EH- EH- EH- EH- EH- EH- EH- EH- EH- EH- EH- EH- H- H- H- H- H- H- H- H- H- H- H- H- CH- CH- CH- CH- CH- CH- CH- CH- CH- CH- CH- CH- CH- CH- CH- CH- CH- CH- CH- CH- CH- CH- CH- CH- CH- CH- CH- CH- CH- CH- CH CH CH CH CH CH CH CH CH CH CH CH CH CH CH CH CH CH H H H H H H H H H H H H AH- AH- AH- AH- AH- AH- AH- AH- AH- AH- AH- AH- AH- AH- AH- AH- AH- AH- AH- AH- AH- AH- AH- AH- AH- AH- AH- AH- AH- AH- AH- AH- AH- AH- AH- AH- AH- AH- AH- AH- AH- AH- AH- AH- AH- AH- AH- AH- H- H- H- H- H- H- H- H- H- H- H- H- ?H- ?H- ?H- ?H- ?H- ?H- ?H- ?H- ?H- ?H- ?H- ?H- ?H- ?H- ?H- ?H- ?H- ?H- ?H- ?H- ?H- ?H- ?H- ?H- ?H- ?H- ?H- ?H- ?H- ?H- ?H ?H ?H ?H ?H ?H ?H ?H ?H ?H ?H ?H ?H ?H ?H ?H ?H ?H H H H H H H H H H H H H AH& AH& AH& AH& AH& AH& AH& AH& AH& AH& AH& AH& AH& AH& AH& AH& AH& AH& AH& AH& AH& AH& AH& AH& AH& AH& AH& AH& AH& AH& AH& AH& AH& AH& AH& AH& AH& AH& AH& AH& AH& AH& AH& AH& AH& AH& AH& AH& H& H& H& H& H& H& H& H& H& H& H& H& ?H& ?H& ?H& ?H& ?H& ?H& ?H& ?H& ?H& ?H& ?H& ?H& ?H& ?H& ?H& ?H& ?H& ?H& ?H& ?H& ?H& ?H& ?H& ?H& ?H& ?H& ?H& ?H& ?H& ?H& ?H& ?H& ?H& ?H& ?H& ?H& ?H ?H ?H ?H ?H ?H ?H ?H ?H ?H ?H ?H H H H H H H H H H H H H AH2 AH2 AH2 AH2 AH2 AH2 AH2 AH2 AH2 AH2 AH2 AH2 AH2 AH2 AH2 AH2 AH2 AH2 AH2 AH2 AH2 AH2 AH2 AH2 AH2 AH2 AH2 AH2 AH2 AH2 AH2 AH2 AH2 AH2 AH2 AH2 AH2 AH2 AH2 AH2 AH2 AH2 AH2 AH2 AH2 AH2 AH2 AH2 H2 H2 H2 H2 H2 H2 H2 H2 H2 H2 H2 H2 CH2 CH2 CH2 CH2 CH2 CH2 CH2 CH2 CH2 CH2 CH2 CH2 CH2 CH2 CH2 CH2 CH2 CH2 CH2 CH2 CH2 CH2 CH2 CH2 CH2 CH2 CH2 CH2 CH2 CH2 CH CH CH CH CH CH CH CH CH CH CH CH CH CH CH CH CH CH H H H H H H H H H H H H EH2 EH2 EH2 EH2 EH2 EH2 EH2 EH2 EH2 EH2 EH2 EH2 EH2 EH2 EH2 EH2 EH2 EH2 EH2 EH2 EH2 EH2 EH2 EH2 EH2 EH2 EH2 EH2 EH2 EH2 EH2 EH2 EH2 EH2 EH2 EH2 EH2 EH2 EH2 EH2 EH2 EH2 EH2 EH2 EH2 EH2 EH2 EH2 2 2 2 2 2 2 2 2 2 2 2 2 A2 A2 A2 A2 A2 A2 A2 A2 A2 A2 A2 A2 A2 A2 A2 A2 A2 A2 A2 A2 A2 A2 A2 A2 A2 A2 A2 A2 A2 A2 A A A A A A A A A A A A A A A A A A             >F7 >F7 >F7 >F7 >F7 >F7 >F7 >F7 >F7 >F7 >F7 >F7 >F7 >F7 >F7 >F7 >F7 >F7 >F7 >F7 >F7 >F7 >F7 >F7 >F7 >F7 >F7 >F7 >F7 >F7 >F7 >F7 >F7 >F7 >F7 >F7 >F7 >F7 >F7 >F7 >F7 >F7 >F7 >F7 >F7 >F7 >F7 >F7 F7 F7 F7 F7 F7 F7 F7 F7 F7 F7 F7 F7 EF7 EF7 EF7 EF7 EF7 EF7 EF7 EF7 EF7 EF7 EF7 EF7 EF7 EF7 EF7 EF7 EF7 EF7 EF7 EF7 EF7 EF7 EF7 EF7 EF7 EF7 EF7 EF7 EF7 EF7 EF7 EF7 EF7 EF7 EF7 EF7 EF EF EF EF EF EF EF EF EF EF EF EF F F F F F F F F F F F F CF+ CF+ CF+ CF+ CF+ CF+ CF+ CF+ CF+ CF+ CF+ CF+ CF+ CF+ CF+ CF+ CF+ CF+ CF+ CF+ CF+ CF+ CF+ CF+ CF+ CF+ CF+ CF+ CF+ CF+ CF+ CF+ CF+ CF+ CF+ CF+ CF+ CF+ CF+ CF+ CF+ CF+ CF+ CF+ CF+ CF+ CF+ CF+ F+ F+ F+ F+ F+ F+ F+ F+ F+ F+ F+ F+ AF+ AF+ AF+ AF+ AF+ AF+ AF+ AF+ AF+ AF+ AF+ AF+ AF+ AF+ AF+ AF+ AF+ AF+ AF+ AF+ AF+ AF+ AF+ AF+ AF+ AF+ AF+ AF+ AF+ AF+ AF AF AF AF AF AF AF AF AF AF AF AF AF AF AF AF AF AF F F F F F F F F F F F F ?F+ ?F+ ?F+ ?F+ ?F+ ?F+ ?F+ ?F+ ?F+ ?F+ ?F+ ?F+ ?F+ ?F+ ?F+ ?F+ ?F+ ?F+ ?F+ ?F+ ?F+ ?F+ ?F+ ?F+ ?F+ ?F+ ?F+ ?F+ ?F+ ?F+ ?F+ ?F+ ?F+ ?F+ ?F+ ?F+ ?F+ ?F+ ?F+ ?F+ ?F+ ?F+ ?F+ ?F+ ?F+ ?F+ ?F+ ?F+ F+ F+ F+ F+ F+ F+ F+ F+ F+ F+ F+ F+ >F+ >F+ >F+ >F+ >F+ >F+ >F+ >F+ >F+ >F+ >F+ >F+ >F+ >F+ >F+ >F+ >F+ >F+ >F+ >F+ >F+ >F+ >F+ >F+ >F+ >F+ >F+ >F+ >F+ >F+ >F >F >F >F >F >F >F >F >F >F >F >F >F >F >F >F >F >F F F F F F F F F F F F F ?F$ ?F$ ?F$ ?F$ ?F$ ?F$ ?F$ ?F$ ?F$ ?F$ ?F$ ?F$ ?F$ ?F$ ?F$ ?F$ ?F$ ?F$ ?F$ ?F$ ?F$ ?F$ ?F$ ?F$ ?F$ ?F$ ?F$ ?F$ ?F$ ?F$ ?F$ ?F$ ?F$ ?F$ ?F$ ?F$ ?F$ ?F$ ?F$ ?F$ ?F$ ?F$ ?F$ ?F$ ?F$ ?F$ ?F$ ?F$ F$ F$ F$ F$ F$ F$ F$ F$ F$ F$ F$ F$ >F$ >F$ >F$ >F$ >F$ >F$ >F$ >F$ >F$ >F$ >F$ >F$ >F$ >F$ >F$ >F$ >F$ >F$ >F$ >F$ >F$ >F$ >F$ >F$ >F$ >F$ >F$ >F$ >F$ >F$ >F$ >F$ >F$ >F$ >F$ >F$ >F >F >F >F >F >F >F >F >F >F >F >F F F F F F F F F F F F F ?F0 ?F0 ?F0 ?F0 ?F0 ?F0 ?F0 ?F0 ?F0 ?F0 ?F0 ?F0 ?F0 ?F0 ?F0 ?F0 ?F0 ?F0 ?F0 ?F0 ?F0 ?F0 ?F0 ?F0 ?F0 ?F0 ?F0 ?F0 ?F0 ?F0 ?F0 ?F0 ?F0 ?F0 ?F0 ?F0 ?F0 ?F0 ?F0 ?F0 ?F0 ?F0 ?F0 ?F0 ?F0 ?F0 ?F0 ?F0 F0 F0 F0 F0 F0 F0 F0 F0 F0 F0 F0 F0 AF0 AF0 AF0 AF0 AF0 AF0 AF0 AF0 AF0 AF0 AF0 AF0 AF0 AF0 AF0 AF0 AF0 AF0 AF0 AF0 AF0 AF0 AF0 AF0 AF0 AF0 AF0 AF0 AF0 AF0 AF AF AF AF AF AF AF AF AF AF AF AF AF AF AF AF AF AF F F F F F F F F F F F F CF0 CF0 CF0 CF0 CF0 CF0 CF0 CF0 CF0 CF0 CF0 CF0 CF0 CF0 CF0 CF0 CF0 CF0 CF0 CF0 CF0 CF0 CF0 CF0 CF0 CF0 CF0 CF0 CF0 CF0 CF0 CF0 CF0 CF0 CF0 CF0 CF0 CF0 CF0 CF0 CF0 CF0 CF0 CF0 CF0 CF0 CF0 CF0 0 0 0 0 0 0 0 0 0 0 0 0 ?0 ?0 ?0 ?0 ?0 ?0 ?0 ?0 ?0 ?0 ?0 ?0 ?0 ?0 ?0 ?0 ?0 ?0 ?0 ?0 ?0 ?0 ?0 ?0 ?0 ?0 ?0 ?0 ?0 ?0 ? ? ? ? ? ? ? ? ? ? ? ? ? ? ? ? ? ?             <E5 <E5 <E5 <E5 <E5 <E5 <E5 <E5 <E5 <E5 <E5 <E5 <E5 <E5 <E5 <E5 <E5 <E5 <E5 <E5 <E5 <E5 <E5 <E5 <E5 <E5 <E5 <E5 <E5 <E5 <E5 <E5 <E5 <E5 <E5 <E5 <E5 <E5 <E5 <E5 <E5 <E5 <E5 <E5 <E5 <E5 <E5 <E5 E5 E5 E5 E5 E5 E5 E5 E5 E5 E5 E5 E5 CE5 CE5 CE5 CE5 CE5 CE5 CE5 CE5 CE5 CE5 CE5 CE5 CE5 CE5 CE5 CE5 CE5 CE5 CE5 CE5 CE5 CE5 CE5 CE5 CE5 CE5 CE5 CE5 CE5 CE5 CE5 CE5 CE5 CE5 CE5 CE5 CE5 CE5 CE5 CE5 CE5 CE5 CE5 CE5 CE5 CE5 CE5 CE5 E5 E5 E5 E5 E5 E5 E5 E5 E5 E5 E5 E5 AE5 AE5 AE5 AE5 AE5 AE5 AE5 AE5 AE5 AE5 AE5 AE5 AE5 AE5 AE5 AE5 AE5 AE5 AE5 AE5 AE5 AE5 AE5 AE5 AE5 AE5 AE5 AE5 AE5 AE5 AE5 AE5 AE5 AE5 AE5 AE5 AE5 AE5 AE5 AE5 AE5 AE5 AE5 AE5 AE5 AE5 AE5 AE5 E5 E5 E5 E5 E5 E5 E5 E5 E5 E5 E5 E5 ?E5 ?E5 ?E5 ?E5 ?E5 ?E5 ?E5 ?E5 ?E5 ?E5 ?E5 ?E5 ?E ?E ?E ?E ?E ?E ?E ?E ?E ?E ?E ?E ?E ?E ?E ?E ?E ?E ?E ?E ?E ?E ?E ?E ?E ?E ?E ?E ?E ?E ?E ?E ?E ?E ?E ?E E E E E E E E E E E E E >E >E >E >E >E >E >E >E >E >E >E >E >E >E >E >E >E >E >E >E >E >E >E >E >E >E >E >E >E >E >E >E >E >E >E >E >E >E >E >E >E >E >E >E >E >E >E >E             < < < < < < < < < < < < < < < < < < < < < < < < < < < < < < < < < < < < < < < < < < < < < < < <             F> F> F> F> F> F> F> F> F> F> F> F> F> F> F> F> F> F> F> F> F> F> F> F> > > > > > > >E >E >E >E >E >E >E >E >E >E >E >E >E >E >E >E >E >E E E E E E E       AF AF AF AF AF AF AF AF AF AF AF AF AF AF AF AF AF AF AF AF AF AF AF AF AF AF AF AF AF AF AF AF AF AF AF AF AF AF AF AF AF AF AF AF AF AF AF AF F F F F F F F F F F F F ?F ?F ?F ?F ?F ?F ?F ?F ?F ?F ?F ?F ?F ?F ?F ?F ?F ?F ?F ?F ?F ?F ?F ?F ?F ?F ?F ?F ?F ?F ?F ?F ?F ?F ?F ?F ?F ?F ?F ?F ?F ?F ?F ?F ?F ?F ?F ?F F F F F F F F F F F F F >F >F >F >F >F >F >F >F >F >F >F >F >F >F >F >F >F >F >F >F >F >F >F >F >F >F >F >F >F >F >F >F >F >F >F >F >F >F >F >F >F >F >F >F >F >F >F >F F F F F F F F F F F F F <F <F <F <F <F <F <F <F <F <F <F <F <F <F <F <F <F <F <F <F <F <F <F <F <F <F <F <F <F <F <F <F <F <F <F <F <F <F <F <F <F <F <F <F <F <F <F <F F F F F F F F F F F F F F: F: F: F: F: F: F: F: F: F: F: F: : : : : : : : : : : : : : : : : : : : : : : : : : : : : : : : : : : : :             H9 H9 H9 H9 H9 H9 H9 H9 H9 H9 H9 H9 H9 H9 H9 H9 H9 H9 H9 H9 H9 H9 H9 H9 H9 H9 H9 H9 H9 H9 H9 H9 H9 H9 H9 H9 H9 H9 H9 H9 H9 H9 H9 H9 H9 H9 H9 H9 H H H H H H H H H H H H H: H: H: H: H: H: H: H: H: H: H: H: H: H: H: H: H: H: H: H: H: H: H: H: H: H: H: H: H: H: H: H: H: H: H: H: : : : : : : : : : : : :             HEA9 HEA9 HEA9 HEA9 HEA9 HEA9 HEA9 HEA9 HEA9 HEA9 HEA9 HEA9 HEA9 HEA9 HEA9 HEA9 HEA9 HEA9 HEA9 HEA9 HEA9 HEA9 HEA9 HEA9 HEA9 HEA9 HEA9 HEA9 HEA9 HEA9 HEA9 HEA9 HEA9 HEA9 HEA9 HEA9 HEA9 HEA9 HEA9 HEA9 HEA9 HEA9 HEA9 HEA9 HEA9 HEA9 HEA9 HEA9 HEA HEA HEA HEA HEA HEA HEA HEA HEA HEA HEA HEA HEA7 HEA7 HEA7 HEA7 HEA7 HEA7 HEA7 HEA7 HEA7 HEA7 HEA7 HEA7 HEA7 HEA7 HEA7 HEA7 HEA7 HEA7 HEA7 HEA7 HEA7 HEA7 HEA7 HEA7 HEA7 HEA7 HEA7 HEA7 HEA7 HEA7 EA7 EA7 EA7 EA7 EA7 EA7 7 7 7 7 7 7 7 7 7 7 7 7             HAE5 HAE5 HAE5 HAE5 HAE5 HAE5 HAE5 HAE5 HAE5 HAE5 HAE5 HAE5 HAE5 HAE5 HAE5 HAE5 HAE5 HAE5 HAE5 HAE5 HAE5 HAE5 HAE5 HAE5 HAE5 HAE5 HAE5 HAE5 HAE5 HAE5 HAE5 HAE5 HAE5 HAE5 HAE5 HAE5 HAE5 HAE5 HAE5 HAE5 HAE5 HAE5 HAE5 HAE5 HAE5 HAE5 HAE5 HAE5 HAE HAE HAE HAE HAE HAE HAE HAE HAE HAE HAE HAE HAE3 HAE3 HAE3 HAE3 HAE3 HAE3 HAE3 HAE3 HAE3 HAE3 HAE3 HAE3 HAE3 HAE3 HAE3 HAE3 HAE3 HAE3 HAE3 HAE3 HAE3 HAE3 HAE3 HAE3 HAE3 HAE3 HAE3 HAE3 HAE3 HAE3 AE3 AE3 AE3 AE3 AE3 AE3 3 3 3 3 3 3 3 3 3 3 3 3             MD2 MD2 MD2 MD2 MD2 MD2 MD2 MD2 MD2 MD2 MD2 MD2 MD2 MD2 MD2 MD2 MD2 MD2 MD2 MD2 MD2 MD2 MD2 MD2 MD2 MD2 MD2 MD2 MD2 MD2 MD2 MD2 MD2 MD2 MD2 MD2 MD2 MD2 MD2 MD2 MD2 MD2 MD2 MD2 MD2 MD2 MD2 MD2 MD MD MD MD MD MD MD MD MD MD MD MD MD0 MD0 MD0 MD0 MD0 MD0 MD0 MD0 MD0 MD0 MD0 MD0 MD0 MD0 MD0 MD0 MD0 MD0 MD0 MD0 MD0 MD0 MD0 MD0 MD0 MD0 MD0 MD0 MD0 MD0 D0 D0 D0 D0 D0 D0 0 0 0 0 0 0 0 0 0 0 0 0             MD. MD. MD. MD. MD. MD. MD. MD. MD. MD. MD. MD. MD. MD. MD. MD. MD. MD. MD. MD. MD. MD. MD. MD. MD. MD. MD. MD. MD. MD. MD. MD. MD. MD. MD. MD. MD. MD. MD. MD. MD. MD. MD. MD. MD. MD. MD. MD. MD MD MD MD MD MD MD MD MD MD MD MD MD, MD, MD, MD, MD, MD, MD, MD, MD, MD, MD, MD, MD, MD, MD, MD, MD, MD, MD, MD, MD, MD, MD, MD, MD, MD, MD, MD, MD, MD, D, D, D, D, D, D, , , , , , , , , , , , ,             MD+ MD+ MD+ MD+ MD+ MD+ MD+ MD+ MD+ MD+ MD+ MD+ MD+ MD+ MD+ MD+ MD+ MD+ MD+ MD+ MD+ MD+ MD+ MD+ MD+ MD+ MD+ MD+ MD+ MD+ MD+ MD+ MD+ MD+ MD+ MD+ MD+ MD+ MD+ MD+ MD+ MD+ MD+ MD+ MD+ MD+ MD+ MD+ MD MD MD MD MD MD MD MD MD MD MD MD MD) MD) MD) MD) MD) MD) MD) MD) MD) MD) MD) MD) MD) MD) MD) MD) MD) MD) MD) MD) MD) MD) MD) MD) MD) MD) MD) MD) MD) MD) D) D) D) D) D) D) ) ) ) ) ) ) ) ) ) ) ) )             MD' MD' MD' MD' MD' MD' MD' MD' MD' MD' MD' MD' MD' MD' MD' MD' MD' MD' MD' MD' MD' MD' MD' MD' MD' MD' MD' MD' MD' MD' MD' MD' MD' MD' MD' MD' MD' MD' MD' MD' MD' MD' MD' MD' MD' MD' MD' MD' MD' MD' MD' MD' MD' MD' MD' MD' MD' MD' MD' MD' MD' MD' MD' MD' MD' MD' MD' MD' MD' MD' MD' MD' MD' MD' MD' MD' MD' MD' MD' MD' MD' MD' MD' MD' MD' MD' MD' MD' MD' MD' MD' MD' MD' MD' MD' MD'                         KFC: KFC: KFC: KFC: KFC: KFC: KFC: KFC: KFC: KFC: KFC: KFC: KFC: KFC: KFC: KFC: KFC: KFC: KFC: KFC: KFC: KFC: KFC: KFC: KFC: KFC: KFC: KFC: KFC: KFC: KFC: KFC: KFC: KFC: KFC: KFC: KFC: KFC: KFC: KFC: KFC: KFC: KFC: KFC: KFC: KFC: KFC: KFC: KFC KFC KFC KFC KFC KFC KFC KFC KFC KFC KFC KFC KFC8 KFC8 KFC8 KFC8 KFC8 KFC8 KFC8 KFC8 KFC8 KFC8 KFC8 KFC8 KFC8 KFC8 KFC8 KFC8 KFC8 KFC8 KFC8 KFC8 KFC8 KFC8 KFC8 KFC8 KFC8 KFC8 KFC8 KFC8 KFC8 KFC8 FC8 FC8 FC8 FC8 FC8 FC8 8 8 8 8 8 8 8 8 8 8 8 8             FKFC7 FKFC7 FKFC7 FKFC7 FKFC7 FKFC7 FKFC7 FKFC7 FKFC7 FKFC7 FKFC7 FKFC7 FKFC7 FKFC7 FKFC7 FKFC7 FKFC7 FKFC7 FKFC7 FKFC7 FKFC7 FKFC7 FKFC7 FKFC7 FKFC7 FKFC7 FKFC7 FKFC7 FKFC7 FKFC7 FKFC7 FKFC7 FKFC7 FKFC7 FKFC7 FKFC7 FKFC7 FKFC7 FKFC7 FKFC7 FKFC7 FKFC7 FKFC7 FKFC7 FKFC7 FKFC7 FKFC7 FKFC7 KFC KFC KFC KFC KFC KFC KFC KFC KFC KFC KFC KFC KFC5 KFC5 KFC5 KFC5 KFC5 KFC5 KFC5 KFC5 KFC5 KFC5 KFC5 KFC5 KFC5 KFC5 KFC5 KFC5 KFC5 KFC5 KFC5 KFC5 KFC5 KFC5 KFC5 KFC5 KFC5 KFC5 KFC5 KFC5 KFC5 KFC5 FC5 FC5 FC5 FC5 FC5 FC5 5 5 5 5 5 5 5 5 5 5 5 5             OFH4 OFH4 OFH4 OFH4 OFH4 OFH4 OFH4 OFH4 OFH4 OFH4 OFH4 OFH4 OFH4 OFH4 OFH4 OFH4 OFH4 OFH4 OFH4 OFH4 OFH4 OFH4 OFH4 OFH4 OFH4 OFH4 OFH4 OFH4 OFH4 OFH4 OFH4 OFH4 OFH4 OFH4 OFH4 OFH4 OFH4 OFH4 OFH4 OFH4 OFH4 OFH4 OFH4 OFH4 OFH4 OFH4 OFH4 OFH4 OFH OFH OFH OFH OFH OFH OFH OFH OFH OFH OFH OFH OFH2 OFH2 OFH2 OFH2 OFH2 OFH2 OFH2 OFH2 OFH2 OFH2 OFH2 OFH2 OFH2 OFH2 OFH2 OFH2 OFH2 OFH2 OFH2 OFH2 OFH2 OFH2 OFH2 OFH2 OFH2 OFH2 OFH2 OFH2 OFH2 OFH2 FH2 FH2 FH2 FH2 FH2 FH2 H2 H2 H2 H2 H2 H2 H2 H2 H2 H2 H2 H2 H H H H H H H H H H H H OFH0 OFH0 OFH0 OFH0 OFH0 OFH0 OFH0 OFH0 OFH0 OFH0 OFH0 OFH0 OFH0 OFH0 OFH0 OFH0 OFH0 OFH0 OFH0 OFH0 OFH0 OFH0 OFH0 OFH0 OFH0 OFH0 OFH0 OFH0 OFH0 OFH0 OFH0 OFH0 OFH0 OFH0 OFH0 OFH0 OFH0 OFH0 OFH0 OFH0 OFH0 OFH0 OFH0 OFH0 OFH0 OFH0 OFH0 OFH0 OFH OFH OFH OFH OFH OFH OFH OFH OFH OFH OFH OFH OFH. OFH. OFH. OFH. OFH. OFH. OFH. OFH. OFH. OFH. OFH. OFH. OFH. OFH. OFH. OFH. OFH. OFH. OFH. OFH. OFH. OFH. OFH. OFH. OFH. OFH. OFH. OFH. OFH. OFH. FH. FH. FH. FH. FH. FH. H. H. H. H. H. H. H. H. H. H. H. H. H H H H H H H H H H H H OFH- OFH- OFH- OFH- OFH- OFH- OFH- OFH- OFH- OFH- OFH- OFH- OFH- OFH- OFH- OFH- OFH- OFH- OFH- OFH- OFH- OFH- OFH- OFH- OFH- OFH- OFH- OFH- OFH- OFH- OFH- OFH- OFH- OFH- OFH- OFH- OFH- OFH- OFH- OFH- OFH- OFH- OFH- OFH- OFH- OFH- OFH- OFH- OFH OFH OFH OFH OFH OFH OFH OFH OFH OFH OFH OFH OFH+ OFH+ OFH+ OFH+ OFH+ OFH+ OFH+ OFH+ OFH+ OFH+ OFH+ OFH+ OFH+ OFH+ OFH+ OFH+ OFH+ OFH+ OFH+ OFH+ OFH+ OFH+ OFH+ OFH+ OFH+ OFH+ OFH+ OFH+ OFH+ OFH+ FH+ FH+ FH+ FH+ FH+ FH+ H+ H+ H+ H+ H+ H+ H+ H+ H+ H+ H+ H+ H H H H H H H H H H H H HOF) HOF) HOF) HOF) HOF) HOF) HOF) HOF) HOF) HOF) HOF) HOF) HOF) HOF) HOF) HOF) HOF) HOF) HOF) HOF) HOF) HOF) HOF) HOF) HOF) HOF) HOF) HOF) HOF) HOF) HOF) HOF) HOF) HOF) HOF) HOF) HOF) HOF) HOF) HOF) HOF) HOF) HOF) HOF) HOF) HOF) HOF) HOF) HOF) HOF) HOF) HOF) HOF) HOF) HOF) HOF) HOF) HOF) HOF) HOF) HOF) HOF) HOF) HOF) HOF) HOF) HOF) HOF) HOF) HOF) HOF) HOF) HOF) HOF) HOF) HOF) HOF) HOF) HOF) HOF) HOF) HOF) HOF) HOF) HOF) HOF) HOF) HOF) HOF) HOF) HOF) HOF) HOF) HOF) HOF) HOF)                         MEH? MEH? MEH? MEH? MEH? MEH? MEH? MEH? MEH? MEH? MEH? MEH? MEH? MEH? MEH? MEH? MEH? MEH? MEH? MEH? MEH? MEH? MEH? MEH? MEH? MEH? MEH? MEH? MEH? MEH? MEH? MEH? MEH? MEH? MEH? MEH? MEH? MEH? MEH? MEH? MEH? MEH? MEH? MEH? MEH? MEH? MEH? MEH? MEH MEH MEH MEH MEH MEH MEH MEH MEH MEH MEH MEH MEH> MEH> MEH> MEH> MEH> MEH> MEH> MEH> MEH> MEH> MEH> MEH> MEH> MEH> MEH> MEH> MEH> MEH> MEH> MEH> MEH> MEH> MEH> MEH> MEH> MEH> MEH> MEH> MEH> MEH> EH> EH> EH> EH> EH> EH> > > > > > > > > > > > >             MHE< MHE< MHE< MHE< MHE< MHE< MHE< MHE< MHE< MHE< MHE< MHE< MHE< MHE< MHE< MHE< MHE< MHE< MHE< MHE< MHE< MHE< MHE< MHE< MHE< MHE< MHE< MHE< MHE< MHE< MHE< MHE< MHE< MHE< MHE< MHE< MHE< MHE< MHE< MHE< MHE< MHE< MHE< MHE< MHE< MHE< MHE< MHE< MHE MHE MHE MHE MHE MHE MHE MHE MHE MHE MHE MHE MHE: MHE: MHE: MHE: MHE: MHE: MHE: MHE: MHE: MHE: MHE: MHE: MHE: MHE: MHE: MHE: MHE: MHE: MHE: MHE: MHE: MHE: MHE: MHE: MHE: MHE: MHE: MHE: MHE: MHE: HE: HE: HE: HE: HE: HE: : : : : : : : : : : : :             HKM9 HKM9 HKM9 HKM9 HKM9 HKM9 HKM9 HKM9 HKM9 HKM9 HKM9 HKM9 HKM9 HKM9 HKM9 HKM9 HKM9 HKM9 HKM9 HKM9 HKM9 HKM9 HKM9 HKM9 HKM9 HKM9 HKM9 HKM9 HKM9 HKM9 HKM9 HKM9 HKM9 HKM9 HKM9 HKM9 HKM9 HKM9 HKM9 HKM9 HKM9 HKM9 HKM9 HKM9 HKM9 HKM9 HKM9 HKM9 HKM HKM HKM HKM HKM HKM HKM HKM HKM HKM HKM HKM HKM7 HKM7 HKM7 HKM7 HKM7 HKM7 HKM7 HKM7 HKM7 HKM7 HKM7 HKM7 HKM7 HKM7 HKM7 HKM7 HKM7 HKM7 HKM7 HKM7 HKM7 HKM7 HKM7 HKM7 HKM7 HKM7 HKM7 HKM7 HKM7 HKM7 HKM7 HKM7 HKM7 HKM7 HKM7 HKM7 M7 M7 M7 M7 M7 M7 M7 M7 M7 M7 M7 M7 M M M M M M M M M M M M HKM5 HKM5 HKM5 HKM5 HKM5 HKM5 HKM5 HKM5 HKM5 HKM5 HKM5 HKM5 HKM5 HKM5 HKM5 HKM5 HKM5 HKM5 HKM5 HKM5 HKM5 HKM5 HKM5 HKM5 HKM5 HKM5 HKM5 HKM5 HKM5 HKM5 HKM5 HKM5 HKM5 HKM5 HKM5 HKM5 HKM5 HKM5 HKM5 HKM5 HKM5 HKM5 HKM5 HKM5 HKM5 HKM5 HKM5 HKM5 HKM HKM HKM HKM HKM HKM HKM HKM HKM HKM HKM HKM HKM3 HKM3 HKM3 HKM3 HKM3 HKM3 HKM3 HKM3 HKM3 HKM3 HKM3 HKM3 HKM3 HKM3 HKM3 HKM3 HKM3 HKM3 HKM3 HKM3 HKM3 HKM3 HKM3 HKM3 HKM3 HKM3 HKM3 HKM3 HKM3 HKM3 HKM3 HKM3 HKM3 HKM3 HKM3 HKM3 M3 M3 M3 M3 M3 M3 M3 M3 M3 M3 M3 M3 M M M M M M M M M M M M KHM2 KHM2 KHM2 KHM2 KHM2 KHM2 KHM2 KHM2 KHM2 KHM2 KHM2 KHM2 KHM2 KHM2 KHM2 KHM2 KHM2 KHM2 KHM2 KHM2 KHM2 KHM2 KHM2 KHM2 KHM2 KHM2 KHM2 KHM2 KHM2 KHM2 KHM2 KHM2 KHM2 KHM2 KHM2 KHM2 KHM2 KHM2 KHM2 KHM2 KHM2 KHM2 KHM2 KHM2 KHM2 KHM2 KHM2 KHM2 KHM KHM KHM KHM KHM KHM KHM KHM KHM KHM KHM KHM KHM0 KHM0 KHM0 KHM0 KHM0 KHM0 KHM0 KHM0 KHM0 KHM0 KHM0 KHM0 KHM0 KHM0 KHM0 KHM0 KHM0 KHM0 KHM0 KHM0 KHM0 KHM0 KHM0 KHM0 KHM0 KHM0 KHM0 KHM0 KHM0 KHM0 KHM0 KHM0 KHM0 KHM0 KHM0 KHM0 M0 M0 M0 M0 M0 M0 M0 M0 M0 M0 M0 M0 M M M M M M M M M M M M HKM. HKM. HKM. HKM. HKM. HKM. HKM. HKM. HKM. HKM. HKM. HKM. HKM. HKM. HKM. HKM. HKM. HKM. HKM. HKM. HKM. HKM. HKM. HKM. HKM. HKM. HKM. HKM. HKM. HKM. HKM. HKM. HKM. HKM. HKM. HKM. HKM. HKM. HKM. HKM. HKM. HKM. HKM. HKM. HKM. HKM. HKM. HKM. HKM HKM HKM HKM HKM HKM HKM HKM HKM HKM HKM HKM HKM- HKM- HKM- HKM- HKM- HKM- HKM- HKM- HKM- HKM- HKM- HKM- HKM- HKM- HKM- HKM- HKM- HKM- HKM- HKM- HKM- HKM- HKM- HKM- HKM- HKM- HKM- HKM- HKM- HKM- HKM- HKM- HKM- HKM- HKM- HKM- M- M- M- M- M- M- M- M- M- M- M- M- M M M M M M M M M M M M MFJ. MFJ. MFJ. MFJ. MFJ. MFJ. MFJ. MFJ. MFJ. MFJ. MFJ. MFJ. MFJ. MFJ. MFJ. MFJ. MFJ. MFJ. MFJ. MFJ. MFJ. MFJ. MFJ. MFJ. MFJ. MFJ. MFJ. MFJ. MFJ. MFJ. MFJ. MFJ. MFJ. MFJ. MFJ. MFJ. MFJ. MFJ. MFJ. MFJ. MFJ. MFJ. MFJ. MFJ. MFJ. MFJ. MFJ. MFJ. MFJ MFJ MFJ MFJ MFJ MFJ MFJ MFJ MFJ MFJ MFJ MFJ MFJ0 MFJ0 MFJ0 MFJ0 MFJ0 MFJ0 MFJ0 MFJ0 MFJ0 MFJ0 MFJ0 MFJ0 FJ0 FJ0 FJ0 FJ0 FJ0 FJ0 FJ0 FJ0 FJ0 FJ0 FJ0 FJ0 FJ0 FJ0 FJ0 FJ0 FJ0 FJ0 FJ0 FJ0 FJ0 FJ0 FJ0 FJ0 0 0 0 0 0 0 0 0 0 0 0 0             FD2 FD2 FD2 FD2 FD2 FD2 FD2 FD2 FD2 FD2 FD2 FD2 FD2 FD2 FD2 FD2 FD2 FD2 FD2 FD2 FD2 FD2 FD2 FD2 FD2 FD2 FD2 FD2 FD2 FD2 FD2 FD2 FD2 FD2 FD2 FD2 FD2 FD2 FD2 FD2 FD2 FD2 FD2 FD2 FD2 FD2 FD2 FD2 FD FD FD FD FD FD FD FD FD FD FD FD FD. FD. FD. FD. FD. FD. FD. FD. FD. FD. FD. FD. FD. FD. FD. FD. FD. FD. FD. FD. FD. FD. FD. FD. FD. FD. FD. FD. FD. FD. FD. FD. FD. FD. FD. FD. . . . . . . . . . . . .             CKF3 CKF3 CKF3 CKF3 CKF3 CKF3 CKF3 CKF3 CKF3 CKF3 CKF3 CKF3 CKF3 CKF3 CKF3 CKF3 CKF3 CKF3 CKF3 CKF3 CKF3 CKF3 CKF3 CKF3 CKF3 CKF3 CKF3 CKF3 CKF3 CKF3 CKF3 CKF3 CKF3 CKF3 CKF3 CKF3 CKF3 CKF3 CKF3 CKF3 CKF3 CKF3 CKF3 CKF3 CKF3 CKF3 CKF3 CKF3 CKF CKF CKF CKF CKF CKF CKF CKF CKF CKF CKF CKF CKF2 CKF2 CKF2 CKF2 CKF2 CKF2 CKF2 CKF2 CKF2 CKF2 CKF2 CKF2 CKF2 CKF2 CKF2 CKF2 CKF2 CKF2 CKF2 CKF2 CKF2 CKF2 CKF2 CKF2 CKF2 CKF2 CKF2 CKF2 CKF2 CKF2 CKF2 CKF2 CKF2 CKF2 CKF2 CKF2 F2 F2 F2 F2 F2 F2 F2 F2 F2 F2 F2 F2 F F F F F F F F F F F F AJF3 AJF3 AJF3 AJF3 AJF3 AJF3 AJF3 AJF3 AJF3 AJF3 AJF3 AJF3 AJF3 AJF3 AJF3 AJF3 AJF3 AJF3 AJF3 AJF3 AJF3 AJF3 AJF3 AJF3 AJF3 AJF3 AJF3 AJF3 AJF3 AJF3 AJF3 AJF3 AJF3 AJF3 AJF3 AJF3 AJF3 AJF3 AJF3 AJF3 AJF3 AJF3 AJF3 AJF3 AJF3 AJF3 AJF3 AJF3 AJF AJF AJF AJF AJF AJF AJF AJF AJF AJF AJF AJF AJF5 AJF5 AJF5 AJF5 AJF5 AJF5 AJF5 AJF5 AJF5 AJF5 AJF5 AJF5 AJF5 AJF5 AJF5 AJF5 AJF5 AJF5 AJF5 AJF5 AJF5 AJF5 AJF5 AJF5 AJF5 AJF5 AJF5 AJF5 AJF5 AJF5 AJF5 AJF5 AJF5 AJF5 AJF5 AJF5 F5 F5 F5 F5 F5 F5 F5 F5 F5 F5 F5 F5 F F F F F F F F F F F F FH?7 FH?7 FH?7 FH?7 FH?7 FH?7 FH?7 FH?7 FH?7 FH?7 FH?7 FH?7 FH?7 FH?7 FH?7 FH?7 FH?7 FH?7 FH?7 FH?7 FH?7 FH?7 FH?7 FH?7 FH?7 FH?7 FH?7 FH?7 FH?7 FH?7 FH?7 FH?7 FH?7 FH?7 FH?7 FH?7 FH?7 FH?7 FH?7 FH?7 FH?7 FH?7 FH?7 FH?7 FH?7 FH?7 FH?7 FH?7 H? H? H? H? H? H? H? H? H? H? H? H? H?3 H?3 H?3 H?3 H?3 H?3 H?3 H?3 H?3 H?3 H?3 H?3 H?3 H?3 H?3 H?3 H?3 H?3 H?3 H?3 H?3 H?3 H?3 H?3 H?3 H?3 H?3 H?3 H?3 H?3 H?3 H?3 H?3 H?3 H?3 H?3 3 3 3 3 3 3 3 3 3 3 3 3             ?HE5 ?HE5 ?HE5 ?HE5 ?HE5 ?HE5 ?HE5 ?HE5 ?HE5 ?HE5 ?HE5 ?HE5 ?HE5 ?HE5 ?HE5 ?HE5 ?HE5 ?HE5 ?HE5 ?HE5 ?HE5 ?HE5 ?HE5 ?HE5 ?HE5 ?HE5 ?HE5 ?HE5 ?HE5 ?HE5 ?HE5 ?HE5 ?HE5 ?HE5 ?HE5 ?HE5 ?HE5 ?HE5 ?HE5 ?HE5 ?HE5 ?HE5 ?HE5 ?HE5 ?HE5 ?HE5 ?HE5 ?HE5 ?HE ?HE ?HE ?HE ?HE ?HE ?HE ?HE ?HE ?HE ?HE ?HE ?HE7 ?HE7 ?HE7 ?HE7 ?HE7 ?HE7 ?HE7 ?HE7 ?HE7 ?HE7 ?HE7 ?HE7 ?HE7 ?HE7 ?HE7 ?HE7 ?HE7 ?HE7 ?HE7 ?HE7 ?HE7 ?HE7 ?HE7 ?HE7 ?HE7 ?HE7 ?HE7 ?HE7 ?HE7 ?HE7 ?HE7 ?HE7 ?HE7 ?HE7 ?HE7 ?HE7 HE7 HE7 HE7 HE7 HE7 HE7 HE7 HE7 HE7 HE7 HE7 HE7 HE HE HE HE HE HE HE HE HE HE HE HE HE9 HE9 HE9 HE9 HE9 HE9 HE9 HE9 HE9 HE9 HE9 HE9 HE9 HE9 HE9 HE9 HE9 HE9 HE9 HE9 HE9 HE9 HE9 HE9 E9 E9 E9 E9 E9 E9 E9 E9 E9 E9 E9 E9 E9 E9 E9 E9 E9 E9 E9 E9 E9 E9 E9 E9 E E E E E E E E E E E E EAJ5 EAJ5 EAJ5 EAJ5 EAJ5 EAJ5 EAJ5 EAJ5 EAJ5 EAJ5 EAJ5 EAJ5 AJ5 AJ5 AJ5 AJ5 AJ5 AJ5 AJ5 AJ5 AJ5 AJ5 AJ5 AJ5 AJ5 AJ5 AJ5 AJ5 AJ5 AJ5 AJ5 AJ5 AJ5 AJ5 AJ5 AJ5 AJ5 AJ5 AJ5 AJ5 AJ5 AJ5 AJ5 AJ5 AJ5 AJ5 AJ5 AJ5             F>A: F>A: F>A: F>A: F>A: F>A: F>A: F>A: F>A: F>A: F>A: F>A: F>A: F>A: F>A: F>A: F>A: F>A: F>A: F>A: F>A: F>A: F>A: F>A: F>A: F>A: F>A: F>A: F>A: F>A: F>A: F>A: F>A: F>A: F>A: F>A: F>A: F>A: F>A: F>A: F>A: F>A: F>A: F>A: F>A: F>A: F>A: F>A: F>A: F>A: F>A: F>A: F>A: F>A: F>A: F>A: F>A: F>A: F>A: F>A: F>A: F>A: F>A: F>A: F>A: F>A: F>A: F>A: F>A: F>A: F>A: F>A: F>A: F>A: F>A: F>A: F>A: F>A: F>A: F>A: F>A: F>A: F>A: F>A: F>A: F>A: F>A: F>A: F>A: F>A: F>A: F>A: F>A: F>A: F>A: F>A:                         F>C3 F>C3 F>C3 F>C3 F>C3 F>C3 F>C3 F>C3 F>C3 F>C3 F>C3 F>C3 F>C3 F>C3 F>C3 F>C3 F>C3 F>C3 F>C3 F>C3 F>C3 F>C3 F>C3 F>C3 F>C3 F>C3 F>C3 F>C3 F>C3 F>C3 F>C3 F>C3 F>C3 F>C3 F>C3 F>C3 F>C3 F>C3 F>C3 F>C3 F>C3 F>C3 F>C3 F>C3 F>C3 F>C3 F>C3 F>C3 C3 C3 C3 C3 C3 C3 C3 C3 C3 C3 C3 C3 CH?3 CH?3 CH?3 CH?3 CH?3 CH?3 CH?3 CH?3 CH?3 CH?3 CH?3 CH?3 CH?3 CH?3 CH?3 CH?3 CH?3 CH?3 CH?3 CH?3 CH?3 CH?3 CH?3 CH?3 CH?3 CH?3 CH?3 CH?3 CH?3 CH?3 CH?3 CH?3 CH?3 CH?3 CH?3 CH?3 H? H? H? H? H? H? H? H? H? H? H? H?             E<A5 E<A5 E<A5 E<A5 E<A5 E<A5 E<A5 E<A5 E<A5 E<A5 E<A5 E<A5 E<A5 E<A5 E<A5 E<A5 E<A5 E<A5 E<A5 E<A5 E<A5 E<A5 E<A5 E<A5 <A5 <A5 <A5 <A5 <A5 <A5 F<A5 F<A5 F<A5 F<A5 F<A5 F<A5 F<A5 F<A5 F<A5 F<A5 F<A5 F<A5 F<A5 F<A5 F<A5 F<A5 F<A5 F<A5 F<A5 F<A5 F<A5 F<A5 F<A5 F<A5 <A5 <A5 <A5 <A5 <A5 <A5 E<A5 E<A5 E<A5 E<A5 E<A5 E<A5 E<A5 E<A5 E<A5 E<A5 E<A5 E<A5 E<A5 E<A5 E<A5 E<A5 E<A5 E<A5 E<A5 E<A5 E<A5 E<A5 E<A5 E<A5 E<A5 E<A5 E<A5 E<A5 E<A5 E<A5 E<A5 E<A5 E<A5 E<A5 E<A5 E<A5 E<A E<A E<A E<A E<A E<A E<A E<A E<A E<A E<A E<A E<A E<A E<A E<A E<A E<A E<A E<A E<A E<A E<A E<A E<A) E<A) E<A) E<A) E<A) E<A) E<A) E<A) E<A) E<A) E<A) E<A) E<A) E<A) E<A) E<A) E<A) E<A) E<A) E<A) E<A) E<A) E<A) E<A) E<A) E<A) E<A) E<A) E<A) E<A) E<A) E<A) E<A) E<A) E<A) E<A) <A) <A) <A) <A) <A) <A) <A) <A) <A) <A) <A) <A) <A) <A) <A) <A) <A) <A) <A) <A) <A) <A) <A) <A) <AF) <AF) <AF) <AF) <AF) <AF) <AF) <AF) <AF) <AF) <AF) <AF) F) F) F) F) F) F) F) F) F) F) F) F) F) F) F) F) F) F) F) F) F) F) F) F) F F F F F F F F F F F F             F>A. F>A. F>A. F>A. F>A. F>A. F>A. F>A. F>A. F>A. F>A. F>A. F>A. F>A. F>A. F>A. F>A. F>A. F>A. F>A. F>A. F>A. F>A. F>A. F>A. F>A. F>A. F>A. F>A. F>A. F>A. F>A. F>A. F>A. F>A. F>A. F>A. F>A. F>A. F>A. F>A. F>A. F>A. F>A. F>A. F>A. F>A. F>A. >A. >A. >A. >A. >A. >A. >A. >A. >A. >A. >A. >A. >AH. >AH. >AH. >AH. >AH. >AH. >AH. >AH. >AH. >AH. >AH. >AH. >AH. >AH. >AH. >AH. >AH. >AH. >AH. >AH. >AH. >AH. >AH. >AH. >AH. >AH. >AH. >AH. >AH. >AH. AH. AH. AH. AH. AH. AH. H H H H H H H H H H H H             JA JA JA JA JA JA JA JA JA JA JA JA JA JA JA JA JA JA JA JA JA JA JA JA JA JA JA JA JA JA JA JA JA JA JA JA JA JA JA JA JA JA JA JA JA JA JA JA A A A A A A A A A A A A AF AF AF AF AF AF AF AF AF AF AF AF AF AF AF AF AF AF AF AF AF AF AF AF AF AF AF AF AF AF AF AF AF AF AF AF F F F F F F F F F F F F             EA EA EA EA EA EA EA EA EA EA EA EA EA EA EA EA EA EA EA EA EA EA EA EA EA EA EA EA EA EA EA EA EA EA EA EA EA EA EA EA EA EA EA EA EA EA EA EA A A A A A A A A A A A A AF AF AF AF AF AF AF AF AF AF AF AF AF AF AF AF AF AF AF AF AF AF AF AF AF AF AF AF AF AF AF AF AF AF AF AF F F F F F F F F F F F F             A> A> A> A> A> A> A> A> A> A> A> A> A> A> A> A> A> A> A> A> A> A> A> A> A> A> A> A> A> A> A> A> A> A> A> A> A> A> A> A> A> A> A> A> A> A> A> A> > > > > > > > > > > > > F> F> F> F> F> F> F> F> F> F> F> F> F> F> F> F> F> F> F> F> F> F> F> F> F> F> F> F> F> F> F> F> F> F> F> F> F F F F F F F F F F F F             J: J: J: J: J: J: J: J: J: J: J: J: J: J: J: J: J: J: J: J: J: J: J: J: J: J: J: J: J: J: J: J: J: J: J: J: J: J: J: J: J: J: J: J: J: J: J: J: : : : : : : : : : : : : F: F: F: F: F: F: F: F: F: F: F: F: F: F: F: F: F: F: F: F: F: F: F: F: F: F: F: F: F: F: F F F F F F F F F F F F F F F F F F             L: L: L: L: L: L: L: L: L: L: L: L: L: L: L: L: L: L: L: L: L: L: L: L: L: L: L: L: L: L: L: L: L: L: L: L: L: L: L: L: L: L: L: L: L: L: L: L: : : : : : : : : : : : : F: F: F: F: F: F: F: F: F: F: F: F: F: F: F: F: F: F: F: F: F: F: F: F: F: F: F: F: F: F: F F F F F F F F F F F F F F F F F F             M9 M9 M9 M9 M9 M9 M9 M9 M9 M9 M9 M9 M9 M9 M9 M9 M9 M9 M9 M9 M9 M9 M9 M9 M9 M9 M9 M9 M9 M9 M9 M9 M9 M9 M9 M9 M9 M9 M9 M9 M9 M9 M9 M9 M9 M9 M9 M9 M M M M M M M M M M M M M7 M7 M7 M7 M7 M7 M7 M7 M7 M7 M7 M7 M7 M7 M7 M7 M7 M7 M7 M7 M7 M7 M7 M7 M7 M7 M7 M7 M7 M7 7 7 7 7 7 7 7 7 7 7 7 7 7 7 7 7 7 7             T9 T9 T9 T9 T9 T9 T9 T9 T9 T9 T9 T9 T9 T9 T9 T9 T9 T9 T9 T9 T9 T9 T9 T9 T9 T9 T9 T9 T9 T9 T9 T9 T9 T9 T9 T9 T9 T9 T9 T9 T9 T9 T9 T9 T9 T9 T9 T9 T T T T T T T T T T T T T5 T5 T5 T5 T5 T5 T5 T5 T5 T5 T5 T5 T5 T5 T5 T5 T5 T5 T5 T5 T5 T5 T5 T5 T5 T5 T5 T5 T5 T5 5 5 5 5 5 5 5 5 5 5 5 5 5 5 5 5 5 5             T4 T4 T4 T4 T4 T4 T4 T4 T4 T4 T4 T4 T4 T4 T4 T4 T4 T4 T4 T4 T4 T4 T4 T4 T4 T4 T4 T4 T4 T4 T4 T4 T4 T4 T4 T4 T4 T4 T4 T4 T4 T4 T4 T4 T4 T4 T4 T4 T T T T T T T T T T T T T5 T5 T5 T5 T5 T5 T5 T5 T5 T5 T5 T5 T5 T5 T5 T5 T5 T5 T5 T5 T5 T5 T5 T5 T5 T5 T5 T5 T5 T5 5 5 5 5 5 5 5 5 5 5 5 5 5 5 5 5 5 5             Q0 Q0 Q0 Q0 Q0 Q0 Q0 Q0 Q0 Q0 Q0 Q0 Q0 Q0 Q0 Q0 Q0 Q0 Q0 Q0 Q0 Q0 Q0 Q0 Q0 Q0 Q0 Q0 Q0 Q0 Q0 Q0 Q0 Q0 Q0 Q0 Q0 Q0 Q0 Q0 Q0 Q0 Q0 Q0 Q0 Q0 Q0 Q0 Q Q Q Q Q Q Q Q Q Q Q Q Q5 Q5 Q5 Q5 Q5 Q5 Q5 Q5 Q5 Q5 Q5 Q5 Q5 Q5 Q5 Q5 Q5 Q5 Q5 Q5 Q5 Q5 Q5 Q5 Q5 Q5 Q5 Q5 Q5 Q5 Q5 Q5 Q5 Q5 Q5 Q5 5 5 5 5 5 5 5 5 5 5 5 5             M9 M9 M9 M9 M9 M9 M9 M9 M9 M9 M9 M9 M9 M9 M9 M9 M9 M9 M9 M9 M9 M9 M9 M9 M9 M9 M9 M9 M9 M9 M9 M9 M9 M9 M9 M9 M9 M9 M9 M9 M9 M9 M9 M9 M9 M9 M9 M9 M M M M M M M M M M M M M5 M5 M5 M5 M5 M5 M5 M5 M5 M5 M5 M5 M5 M5 M5 M5 M5 M5 M5 M5 M5 M5 M5 M5 M5 M5 M5 M5 M5 M5 5 5 5 5 5 5 5 5 5 5 5 5 5 5 5 5 5 5             M; M; M; M; M; M; M; M; M; M; M; M; M; M; M; M; M; M; M; M; M; M; M; M; M; M; M; M; M; M; M; M; M; M; M; M; M; M; M; M; M; M; M; M; M; M; M; M; M M M M M M M M M M M M M5 M5 M5 M5 M5 M5 M5 M5 M5 M5 M5 M5 M5 M5 M5 M5 M5 M5 M5 M5 M5 M5 M5 M5 M5 M5 M5 M5 M5 M5 5 5 5 5 5 5 5 5 5 5 5 5 5 5 5 5 5 5             K< K< K< K< K< K< K< K< K< K< K< K< K< K< K< K< K< K< K< K< K< K< K< K< K< K< K< K< K< K< K< K< K< K< K< K< K< K< K< K< K< K< K< K< K< K< K< K< < < < < < < < < < < < < J< J< J< J< J< J< J< J< J< J< J< J< J< J< J< J< J< J< J< J< J< J< J< J< J< J< J< J< J< J< J J J J J J J J J J J J J J J J J J             K7 K7 K7 K7 K7 K7 K7 K7 K7 K7 K7 K7 K7 K7 K7 K7 K7 K7 K7 K7 K7 K7 K7 K7 K7 K7 K7 K7 K7 K7 K7 K7 K7 K7 K7 K7 K7 K7 K7 K7 K7 K7 K7 K7 K7 K7 K7 K7 7 7 7 7 7 7 7 7 7 7 7 7 H7 H7 H7 H7 H7 H7 H7 H7 H7 H7 H7 H7 H7 H7 H7 H7 H7 H7 H7 H7 H7 H7 H7 H7 H7 H7 H7 H7 H7 H7 H H H H H H H H H H H H H H H H H H             G7 G7 G7 G7 G7 G7 G7 G7 G7 G7 G7 G7 G7 G7 G7 G7 G7 G7 G7 G7 G7 G7 G7 G7 G7 G7 G7 G7 G7 G7 G7 G7 G7 G7 G7 G7 G7 G7 G7 G7 G7 G7 G7 G7 G7 G7 G7 G7 7 7 7 7 7 7 7 7 7 7 7 7 H7 H7 H7 H7 H7 H7 H7 H7 H7 H7 H7 H7 H7 H7 H7 H7 H7 H7 H7 H7 H7 H7 H7 H7 H7 H7 H7 H7 H7 H7 H H H H H H H H H H H H H H H H H H             C3 C3 C3 C3 C3 C3 C3 C3 C3 C3 C3 C3 C3 C3 C3 C3 C3 C3 C3 C3 C3 C3 C3 C3 C3 C3 C3 C3 C3 C3 C3 C3 C3 C3 C3 C3 C3 C3 C3 C3 C3 C3 C3 C3 C3 C3 C3 C3 3 3 3 3 3 3 3 3 3 3 3 3 H3 H3 H3 H3 H3 H3 H3 H3 H3 H3 H3 H3 H3 H3 H3 H3 H3 H3 H3 H3 H3 H3 H3 H3 H3 H3 H3 H3 H3 H3 H3 H3 H3 H3 H3 H3 H H H H H H H H H H H H             K0 K0 K0 K0 K0 K0 K0 K0 K0 K0 K0 K0 K0 K0 K0 K0 K0 K0 K0 K0 K0 K0 K0 K0 K0 K0 K0 K0 K0 K0 K0 K0 K0 K0 K0 K0 K0 K0 K0 K0 K0 K0 K0 K0 K0 K0 K0 K0 0 0 0 0 0 0 0 0 0 0 0 0 H0 H0 H0 H0 H0 H0 H0 H0 H0 H0 H0 H0 H0 H0 H0 H0 H0 H0 H0 H0 H0 H0 H0 H0 H0 H0 H0 H0 H0 H0 H H H H H H H H H H H H H H H H H H             N0 N0 N0 N0 N0 N0 N0 N0 N0 N0 N0 N0 N0 N0 N0 N0 N0 N0 N0 N0 N0 N0 N0 N0 N0 N0 N0 N0 N0 N0 N0 N0 N0 N0 N0 N0 N0 N0 N0 N0 N0 N0 N0 N0 N0 N0 N0 N0 0 0 0 0 0 0 0 0 0 0 0 0 H0 H0 H0 H0 H0 H0 H0 H0 H0 H0 H0 H0 H0 H0 H0 H0 H0 H0 H0 H0 H0 H0 H0 H0 H0 H0 H0 H0 H0 H0 H H H H H H H H H H H H H H H H H H             O. O. O. O. O. O. O. O. O. O. O. O. O. O. O. O. O. O. O. O. O. O. O. O. O. O. O. O. O. O. O. O. O. O. O. O. O. O. O. O. O. O. O. O. O. O. O. O. O O O O O O O O O O O O O- O- O- O- O- O- O- O- O- O- O- O- O- O- O- O- O- O- O- O- O- O- O- O- O- O- O- O- O- O- O- O- O- O- O- O- - - - - - - - - - - - -             J. J. J. J. J. J. J. J. J. J. J. J. J. J. J. J. J. J. J. J. J. J. J. J. J. J. J. J. J. J. J. J. J. J. J. J. J. J. J. J. J. J. J. J. J. J. J. J. J J J J J J J J J J J J J+ J+ J+ J+ J+ J+ J+ J+ J+ J+ J+ J+ J+ J+ J+ J+ J+ J+ J+ J+ J+ J+ J+ J+ J+ J+ J+ J+ J+ J+ + + + + + + + + + + + + + + + + + +             J* J* J* J* J* J* J* J* J* J* J* J* J* J* J* J* J* J* J* J* J* J* J* J* J* J* J* J* J* J* J* J* J* J* J* J* J* J* J* J* J* J* J* J* J* J* J* J* J J J J J J J J J J J J J+ J+ J+ J+ J+ J+ J+ J+ J+ J+ J+ J+ J+ J+ J+ J+ J+ J+ J+ J+ J+ J+ J+ J+ J+ J+ J+ J+ J+ J+ + + + + + + + + + + + + + + + + + +             F& F& F& F& F& F& F& F& F& F& F& F& F& F& F& F& F& F& F& F& F& F& F& F& F& F& F& F& F& F& F& F& F& F& F& F& F& F& F& F& F& F& F& F& F& F& F& F& F F F F F F F F F F F F F+ F+ F+ F+ F+ F+ F+ F+ F+ F+ F+ F+ F+ F+ F+ F+ F+ F+ F+ F+ F+ F+ F+ F+ F+ F+ F+ F+ F+ F+ F+ F+ F+ F+ F+ F+ + + + + + + + + + + + +             C. C. C. C. C. C. C. C. C. C. C. C. C. C. C. C. C. C. C. C. C. C. C. C. C. C. C. C. C. C. C. C. C. C. C. C. C. C. C. C. C. C. C. C. C. C. C. C. C C C C C C C C C C C C C+ C+ C+ C+ C+ C+ C+ C+ C+ C+ C+ C+ C+ C+ C+ C+ C+ C+ C+ C+ C+ C+ C+ C+ C+ C+ C+ C+ C+ C+ + + + + + + + + + + + + + + + + + +             C1 C1 C1 C1 C1 C1 C1 C1 C1 C1 C1 C1 C1 C1 C1 C1 C1 C1 C1 C1 C1 C1 C1 C1 C1 C1 C1 C1 C1 C1 C1 C1 C1 C1 C1 C1 C1 C1 C1 C1 C1 C1 C1 C1 C1 C1 C1 C1 C C C C C C C C C C C C C+ C+ C+ C+ C+ C+ C+ C+ C+ C+ C+ C+ C+ C+ C+ C+ C+ C+ C+ C+ C+ C+ C+ C+ C+ C+ C+ C+ C+ C+ + + + + + + + + + + + + + + + + + +             A2 A2 A2 A2 A2 A2 A2 A2 A2 A2 A2 A2 A2 A2 A2 A2 A2 A2 A2 A2 A2 A2 A2 A2 A2 A2 A2 A2 A2 A2 A2 A2 A2 A2 A2 A2 A2 A2 A2 A2 A2 A2 A2 A2 A2 A2 A2 A2 A A A A A A A A A A A A A4 A4 A4 A4 A4 A4 A4 A4 A4 A4 A4 A4 A4 A4 A4 A4 A4 A4 A4 A4 A4 A4 A4 A4 A4 A4 A4 A4 A4 A4 4 4 4 4 4 4 4 4 4 4 4 4 4 4 4 4 4 4             Q5 Q5 Q5 Q5 Q5 Q5 Q5 Q5 Q5 Q5 Q5 Q5 Q5 Q5 Q5 Q5 Q5 Q5 Q5 Q5 Q5 Q5 Q5 Q5 Q5 Q5 Q5 Q5 Q5 Q5 Q5 Q5 Q5 Q5 Q5 Q5 Q5 Q5 Q5 Q5 Q5 Q5 Q5 Q5 Q5 Q5 Q5 Q5 Q Q Q Q Q Q Q Q Q Q Q Q Q2 Q2 Q2 Q2 Q2 Q2 Q2 Q2 Q2 Q2 Q2 Q2 Q2 Q2 Q2 Q2 Q2 Q2 Q2 Q2 Q2 Q2 Q2 Q2 Q2 Q2 Q2 Q2 Q2 Q2 2 2 2 2 2 2 2 2 2 2 2 2 2 2 2 2 2 2             Q1 Q1 Q1 Q1 Q1 Q1 Q1 Q1 Q1 Q1 Q1 Q1 Q1 Q1 Q1 Q1 Q1 Q1 Q1 Q1 Q1 Q1 Q1 Q1 Q1 Q1 Q1 Q1 Q1 Q1 Q1 Q1 Q1 Q1 Q1 Q1 Q1 Q1 Q1 Q1 Q1 Q1 Q1 Q1 Q1 Q1 Q1 Q1 Q Q Q Q Q Q Q Q Q Q Q Q Q2 Q2 Q2 Q2 Q2 Q2 Q2 Q2 Q2 Q2 Q2 Q2 Q2 Q2 Q2 Q2 Q2 Q2 Q2 Q2 Q2 Q2 Q2 Q2 Q2 Q2 Q2 Q2 Q2 Q2 2 2 2 2 2 2 2 2 2 2 2 2 2 2 2 2 2 2             M- M- M- M- M- M- M- M- M- M- M- M- M- M- M- M- M- M- M- M- M- M- M- M- M- M- M- M- M- M- M- M- M- M- M- M- M- M- M- M- M- M- M- M- M- M- M- M- M M M M M M M M M M M M M2 M2 M2 M2 M2 M2 M2 M2 M2 M2 M2 M2 M2 M2 M2 M2 M2 M2 M2 M2 M2 M2 M2 M2 M2 M2 M2 M2 M2 M2 M2 M2 M2 M2 M2 M2 2 2 2 2 2 2 2 2 2 2 2 2             J5 J5 J5 J5 J5 J5 J5 J5 J5 J5 J5 J5 J5 J5 J5 J5 J5 J5 J5 J5 J5 J5 J5 J5 J5 J5 J5 J5 J5 J5 J5 J5 J5 J5 J5 J5 J5 J5 J5 J5 J5 J5 J5 J5 J5 J5 J5 J5 J J J J J J J J J J J J J2 J2 J2 J2 J2 J2 J2 J2 J2 J2 J2 J2 J2 J2 J2 J2 J2 J2 J2 J2 J2 J2 J2 J2 J2 J2 J2 J2 J2 J2 2 2 2 2 2 2 2 2 2 2 2 2 2 2 2 2 2 2             J8 J8 J8 J8 J8 J8 J8 J8 J8 J8 J8 J8 J8 J8 J8 J8 J8 J8 J8 J8 J8 J8 J8 J8 J8 J8 J8 J8 J8 J8 J8 J8 J8 J8 J8 J8 J8 J8 J8 J8 J8 J8 J8 J8 J8 J8 J8 J8 J J J J J J J J J J J J J2 J2 J2 J2 J2 J2 J2 J2 J2 J2 J2 J2 J2 J2 J2 J2 J2 J2 J2 J2 J2 J2 J2 J2 J2 J2 J2 J2 J2 J2 2 2 2 2 2 2 2 2 2 2 2 2 2 2 2 2 2 2             I9 I9 I9 I9 I9 I9 I9 I9 I9 I9 I9 I9 I9 I9 I9 I9 I9 I9 I9 I9 I9 I9 I9 I9 I9 I9 I9 I9 I9 I9 I9 I9 I9 I9 I9 I9 I9 I9 I9 I9 I9 I9 I9 I9 I9 I9 I9 I9 9 9 9 9 9 9 9 9 9 9 9 9 9G 9G 9G 9G 9G 9G 9G 9G 9G 9G 9G 9G 9G 9G 9G 9G 9G 9G 9G 9G 9G 9G 9G 9G 9G 9G 9G 9G 9G 9G 9G 9G 9G 9G 9G 9G G G G G G G G G G G G G             IE IE IE IE IE IE IE IE IE IE IE IE IE IE IE IE IE IE IE IE IE IE IE IE IE IE IE IE IE IE IE IE IE IE IE IE IE IE IE IE IE IE IE IE IE IE IE IE E E E E E E E E E E E E EJ EJ EJ EJ EJ EJ EJ EJ EJ EJ EJ EJ EJ EJ EJ EJ EJ EJ EJ EJ EJ EJ EJ EJ EJ EJ EJ EJ EJ EJ EJ EJ EJ EJ EJ EJ J J J J J J J J J J J J             GE GE GE GE GE GE GE GE GE GE GE GE GE GE GE GE GE GE GE GE GE GE GE GE GE GE GE GE GE GE GE GE GE GE GE GE GE GE GE GE GE GE GE GE GE GE GE GE E E E E E E E E E E E E EI EI EI EI EI EI EI EI EI EI EI EI EI EI EI EI EI EI EI EI EI EI EI EI EI EI EI EI EI EI EI EI EI EI EI EI I I I I I I I I I I I I             JA JA JA JA JA JA JA JA JA JA JA JA JA JA JA JA JA JA JA JA JA JA JA JA JA JA JA JA JA JA JA JA JA JA JA JA JA JA JA JA JA JA JA JA JA JA JA JA A A A A A A A A A A A A AI AI AI AI AI AI AI AI AI AI AI AI AI AI AI AI AI AI AI AI AI AI AI AI AI AI AI AI AI AI AI AI AI AI AI AI I I I I I I I I I I I I             JA> JA> JA> JA> JA> JA> JA> JA> JA> JA> JA> JA> JA> JA> JA> JA> JA> JA> JA> JA> JA> JA> JA> JA> JA> JA> JA> JA> JA> JA> JA> JA> JA> JA> JA> JA> JA> JA> JA> JA> JA> JA> JA> JA> JA> JA> JA> JA> A> A> A> A> A> A> A> A> A> A> A> A> AL> AL> AL> AL> AL> AL> AL> AL> AL> AL> AL> AL> AL> AL> AL> AL> AL> AL> AL> AL> AL> AL> AL> AL> AL> AL> AL> AL> AL> AL> AL> AL> AL> AL> AL> AL> L L L L L L L L L L L L             IA> IA> IA> IA> IA> IA> IA> IA> IA> IA> IA> IA> IA> IA> IA> IA> IA> IA> IA> IA> IA> IA> IA> IA> IA> IA> IA> IA> IA> IA> IA> IA> IA> IA> IA> IA> IA> IA> IA> IA> IA> IA> IA> IA> IA> IA> IA> IA> A> A> A> A> A> A> A> A> A> A> A> A> AJ> AJ> AJ> AJ> AJ> AJ> AJ> AJ> AJ> AJ> AJ> AJ> AJ> AJ> AJ> AJ> AJ> AJ> AJ> AJ> AJ> AJ> AJ> AJ> AJ> AJ> AJ> AJ> AJ> AJ> AJ> AJ> AJ> AJ> AJ> AJ> J J J J J J J J J J J J             @L= @L= @L= @L= @L= @L= @L= @L= @L= @L= @L= @L= @L= @L= @L= @L= @L= @L= @L= @L= @L= @L= @L= @L= @L= @L= @L= @L= @L= @L= @L= @L= @L= @L= @L= @L= @L= @L= @L= @L= @L= @L= @L= @L= @L= @L= @L= @L= @L @L @L @L @L @L @L @L @L @L @L @L @L; @L; @L; @L; @L; @L; @L; @L; @L; @L; @L; @L; @L; @L; @L; @L; @L; @L; @L; @L; @L; @L; @L; @L; @L; @L; @L; @L; @L; @L; @L; @L; @L; @L; @L; @L; ; ; ; ; ; ; ; ; ; ; ; ;             E=9 E=9 E=9 E=9 E=9 E=9 E=9 E=9 E=9 E=9 E=9 E=9 E=9 E=9 E=9 E=9 E=9 E=9 E=9 E=9 E=9 E=9 E=9 E=9 E=9 E=9 E=9 E=9 E=9 E=9 E=9 E=9 E=9 E=9 E=9 E=9 E=9 E=9 E=9 E=9 E=9 E=9 E=9 E=9 E=9 E=9 E=9 E=9 E9 E9 E9 E9 E9 E9 E9 E9 E9 E9 E9 E9 E9> E9> E9> E9> E9> E9> E9> E9> E9> E9> E9> E9> E9> E9> E9> E9> E9> E9> E9> E9> E9> E9> E9> E9> E9> E9> E9> E9> E9> E9> E9> E9> E9> E9> E9> E9> > > > > > > > > > > > >             ;9 ;9 ;9 ;9 ;9 ;9 ;9 ;9 ;9 ;9 ;9 ;9 ;9 ;9 ;9 ;9 ;9 ;9 ;9 ;9 ;9 ;9 ;9 ;9 ;9 ;9 ;9 ;9 ;9 ;9 ;9 ;9 ;9 ;9 ;9 ;9 ;9 ;9 ;9 ;9 ;9 ;9 ;9 ;9 ;9 ;9 ;9 ;9 9 9 9 9 9 9 9 9 9 9 9 9 9= 9= 9= 9= 9= 9= 9= 9= 9= 9= 9= 9= 9= 9= 9= 9= 9= 9= 9= 9= 9= 9= 9= 9= 9= 9= 9= 9= 9= 9= 9= 9= 9= 9= 9= 9= = = = = = = = = = = = =             >59 >59 >59 >59 >59 >59 >59 >59 >59 >59 >59 >59 >59 >59 >59 >59 >59 >59 >59 >59 >59 >59 >59 >59 >59 >59 >59 >59 >59 >59 >59 >59 >59 >59 >59 >59 >59 >59 >59 >59 >59 >59 >59 >59 >59 >59 >59 >59 59 59 59 59 59 59 59 59 59 59 59 59 =59 =59 =59 =59 =59 =59 =59 =59 =59 =59 =59 =59 =59 =59 =59 =59 =59 =59 =59 =59 =59 =59 =59 =59 =59 =59 =59 =59 =59 =59 =59 =59 =59 =59 =59 =59 = = = = = = = = = = = =             >259 >259 >259 >259 >259 >259 >259 >259 >259 >259 >259 >259 >259 >259 >259 >259 >259 >259 >259 >259 >259 >259 >259 >259 >259 >259 >259 >259 >259 >259 >259 >259 >259 >259 >259 >259 >259 >259 >259 >259 >259 >259 >259 >259 >259 >259 >259 >259 259 259 259 259 259 259 259 259 259 259 259 259 @259 @259 @259 @259 @259 @259 @259 @259 @259 @259 @259 @259 @259 @259 @259 @259 @259 @259 @259 @259 @259 @259 @259 @259 @259 @259 @259 @259 @259 @259 @259 @259 @259 @259 @259 @259 @ @ @ @ @ @ @ @ @ @ @ @             A925 A925 A925 A925 A925 A925 A925 A925 A925 A925 A925 A925 A925 A925 A925 A925 A925 A925 A925 A925 A925 A925 A925 A925 A925 A925 A925 A925 A925 A925 A925 A925 A925 A925 A925 A925 A925 A925 A925 A925 A925 A925 A925 A925 A925 A925 A925 A925 925 925 925 925 925 925 925 925 925 925 925 925 C925 C925 C925 C925 C925 C925 C925 C925 C925 C925 C925 C925 C925 C925 C925 C925 C925 C925 C925 C925 C925 C925 C925 C925 C925 C925 C925 C925 C925 C925 C925 C925 C925 C925 C925 C925 C C C C C C C C C C C C             E194 E194 E194 E194 E194 E194 E194 E194 E194 E194 E194 E194 E194 E194 E194 E194 E194 E194 E194 E194 E194 E194 E194 E194 E194 E194 E194 E194 E194 E194 E194 E194 E194 E194 E194 E194 E194 E194 E194 E194 E194 E194 E194 E194 E194 E194 E194 E194 194 194 194 194 194 194 194 194 194 194 194 194 C194 C194 C194 C194 C194 C194 C194 C194 C194 C194 C194 C194 C194 C194 C194 C194 C194 C194 C194 C194 C194 C194 C194 C194 C194 C194 C194 C194 C194 C194 C194 C194 C194 C194 C194 C194 C C C C C C C C C C C C             E-41 E-41 E-41 E-41 E-41 E-41 E-41 E-41 E-41 E-41 E-41 E-41 E-41 E-41 E-41 E-41 E-41 E-41 E-41 E-41 E-41 E-41 E-41 E-41 E-41 E-41 E-41 E-41 E-41 E-41 E-41 E-41 E-41 E-41 E-41 E-41 E-41 E-41 E-41 E-41 E-41 E-41 E-41 E-41 E-41 E-41 E-41 E-41 -41 -41 -41 -41 -41 -41 -41 -41 -41 -41 -41 -41 G-41 G-41 G-41 G-41 G-41 G-41 G-41 G-41 G-41 G-41 G-41 G-41 G-41 G-41 G-41 G-41 G-41 G-41 G-41 G-41 G-41 G-41 G-41 G-41 G-41 G-41 G-41 G-41 G-41 G-41 G-41 G-41 G-41 G-41 G-41 G-41 G G G G G G G G G G G G             I4-1 I4-1 I4-1 I4-1 I4-1 I4-1 I4-1 I4-1 I4-1 I4-1 I4-1 I4-1 I4-1 I4-1 I4-1 I4-1 I4-1 I4-1 I4-1 I4-1 I4-1 I4-1 I4-1 I4-1 I4-1 I4-1 I4-1 I4-1 I4-1 I4-1 I4-1 I4-1 I4-1 I4-1 I4-1 I4-1 I4-1 I4-1 I4-1 I4-1 I4-1 I4-1 I4-1 I4-1 I4-1 I4-1 I4-1 I4-1 4-1 4-1 4-1 4-1 4-1 4-1 4-1 4-1 4-1 4-1 4-1 4-1 E4-1 E4-1 E4-1 E4-1 E4-1 E4-1 E4-1 E4-1 E4-1 E4-1 E4-1 E4-1 E4-1 E4-1 E4-1 E4-1 E4-1 E4-1 E4-1 E4-1 E4-1 E4-1 E4-1 E4-1 E4-1 E4-1 E4-1 E4-1 E4-1 E4-1 E4-1 E4-1 E4-1 E4-1 E4-1 E4-1 E E E E E E E E E E E E             J)-2 J)-2 J)-2 J)-2 J)-2 J)-2 J)-2 J)-2 J)-2 J)-2 J)-2 J)-2 J)-2 J)-2 J)-2 J)-2 J)-2 J)-2 J)-2 J)-2 J)-2 J)-2 J)-2 J)-2 J)-2 J)-2 J)-2 J)-2 J)-2 J)-2 J)-2 J)-2 J)-2 J)-2 J)-2 J)-2 J)-2 J)-2 J)-2 J)-2 J)-2 J)-2 J)-2 J)-2 J)-2 J)-2 J)-2 J)-2 )-2 )-2 )-2 )-2 )-2 )-2 )-2 )-2 )-2 )-2 )-2 )-2 I)-2 I)-2 I)-2 I)-2 I)-2 I)-2 I)-2 I)-2 I)-2 I)-2 I)-2 I)-2 I)-2 I)-2 I)-2 I)-2 I)-2 I)-2 I)-2 I)-2 I)-2 I)-2 I)-2 I)-2 I)-2 I)-2 I)-2 I)-2 I)-2 I)-2 I)-2 I)-2 I)-2 I)-2 I)-2 I)-2 I I I I I I I I I I I I             J&-) J&-) J&-) J&-) J&-) J&-) J&-) J&-) J&-) J&-) J&-) J&-) J&-) J&-) J&-) J&-) J&-) J&-) J&-) J&-) J&-) J&-) J&-) J&-) J&-) J&-) J&-) J&-) J&-) J&-) J&-) J&-) J&-) J&-) J&-) J&-) J&-) J&-) J&-) J&-) J&-) J&-) J&-) J&-) J&-) J&-) J&-) J&-) &-) &-) &-) &-) &-) &-) &-) &-) &-) &-) &-) &-) L&-) L&-) L&-) L&-) L&-) L&-) L&-) L&-) L&-) L&-) L&-) L&-) L&-) L&-) L&-) L&-) L&-) L&-) L&-) L&-) L&-) L&-) L&-) L&-) L&-) L&-) L&-) L&-) L&-) L&-) L&-) L&-) L&-) L&-) L&-) L&-) L L L L L L L L L L L L             M-&) M-&) M-&) M-&) M-&) M-&) M-&) M-&) M-&) M-&) M-&) M-&) M-&) M-&) M-&) M-&) M-&) M-&) M-&) M-&) M-&) M-&) M-&) M-&) M-&) M-&) M-&) M-&) M-&) M-&) M-&) M-&) M-&) M-&) M-&) M-&) M-&) M-&) M-&) M-&) M-&) M-&) M-&) M-&) M-&) M-&) M-&) M-&) -&) -&) -&) -&) -&) -&) -&) -&) -&) -&) -&) -&) O-&) O-&) O-&) O-&) O-&) O-&) O-&) O-&) O-&) O-&) O-&) O-&) O-&) O-&) O-&) O-&) O-&) O-&) O-&) O-&) O-&) O-&) O-&) O-&) O-&) O-&) O-&) O-&) O-&) O-&) O-&) O-&) O-&) O-&) O-&) O-&) O O O O O O O O O O O O             Q%!(- Q%!(- Q%!(- Q%!(- Q%!(- Q%!(- Q%!(- Q%!(- Q%!(- Q%!(- Q%!(- Q%!(- Q%!(- Q%!(- Q%!(- Q%!(- Q%!(- Q%!(- Q%!(- Q%!(- Q%!(- Q%!(- Q%!(- Q%!(- Q%!(- Q%!(- Q%!(- Q%!(- Q%!(- Q%!(- Q%!(- Q%!(- Q%!(- Q%!(- Q%!(- Q%!(- Q%!(- Q%!(- Q%!(- Q%!(- Q%!(- Q%!(- Q%!(- Q%!(- Q%!(- Q%!(- Q%!(- Q%!(- %!(- %!(- %!(- %!(- %!(- %!(- %!(- %!(- %!(- %!(- %!(- %!(- R%!(- R%!(- R%!(- R%!(- R%!(- R%!(- R%!(- R%!(- R%!(- R%!(- R%!(- R%!(- R%!(- R%!(- R%!(- R%!(- R%!(- R%!(- R%!(- R%!(- R%!(- R%!(- R%!(- R%!(- R%!(- R%!(- R%!(- R%!(- R%!(- R%!(- R%!(- R%!(- R%!(- R%!(- R%!(- R%!(- R R R R R R R R R R R R             QE QE QE QE QE QE QE QE QE QE QE QE QE QE QE QE QE QE QE QE QE QE QE QE QE QE QE QE QE QE QE QE QE QE QE QE QE QE QE QE QE QE QE QE QE QE QE QE E E E E E E E E E E E E EO EO EO EO EO EO EO EO EO EO EO EO EO EO EO EO EO EO EO EO EO EO EO EO EO EO EO EO EO EO EO EO EO EO EO EO O O O O O O O O O O O O             ME ME ME ME ME ME ME ME ME ME ME ME ME ME ME ME ME ME ME ME ME ME ME ME ME ME ME ME ME ME ME ME ME ME ME ME ME ME ME ME ME ME ME ME ME ME ME ME E E E E E E E E E E E E EL EL EL EL EL EL EL EL EL EL EL EL EL EL EL EL EL EL EL EL EL EL EL EL EL EL EL EL EL EL EL EL EL EL EL EL L L L L L L L L L L L L             JM JM JM JM JM JM JM JM JM JM JM JM JM JM JM JM JM JM JM JM JM JM JM JM JM JM JM JM JM JM JM JM JM JM JM JM JM JM JM JM JM JM JM JM JM JM JM JM M M M M M M M M M M M M ML ML ML ML ML ML ML ML ML ML ML ML ML ML ML ML ML ML ML ML ML ML ML ML ML ML ML ML ML ML ML ML ML ML ML ML L L L L L L L L L L L L             JQM JQM JQM JQM JQM JQM JQM JQM JQM JQM JQM JQM JQM JQM JQM JQM JQM JQM JQM JQM JQM JQM JQM JQM JQM JQM JQM JQM JQM JQM JQM JQM JQM JQM JQM JQM JQM JQM JQM JQM JQM JQM JQM JQM JQM JQM JQM JQM QM QM QM QM QM QM QM QM QM QM QM QM QMH QMH QMH QMH QMH QMH QMH QMH QMH QMH QMH QMH QMH QMH QMH QMH QMH QMH QMH QMH QMH QMH QMH QMH QMH QMH QMH QMH QMH QMH QMH QMH QMH QMH QMH QMH H H H H H H H H H H H H             FMQ FMQ FMQ FMQ FMQ FMQ FMQ FMQ FMQ FMQ FMQ FMQ FMQ FMQ FMQ FMQ FMQ FMQ FMQ FMQ FMQ FMQ FMQ FMQ FMQ FMQ FMQ FMQ FMQ FMQ FMQ FMQ FMQ FMQ FMQ FMQ FMQ FMQ FMQ FMQ FMQ FMQ FMQ FMQ FMQ FMQ FMQ FMQ MQ MQ MQ MQ MQ MQ MQ MQ MQ MQ MQ MQ MQE MQE MQE MQE MQE MQE MQE MQE MQE MQE MQE MQE MQE MQE MQE MQE MQE MQE MQE MQE MQE MQE MQE MQE MQE MQE MQE MQE MQE MQE MQE MQE MQE MQE MQE MQE E E E E E E E E E E E E             CRM CRM CRM CRM CRM CRM CRM CRM CRM CRM CRM CRM CRM CRM CRM CRM CRM CRM CRM CRM CRM CRM CRM CRM CRM CRM CRM CRM CRM CRM CRM CRM CRM CRM CRM CRM CRM CRM CRM CRM CRM CRM CRM CRM CRM CRM CRM CRM M M M M M M M M M M M M MET MET MET MET MET MET MET MET MET MET MET MET MET MET MET MET MET MET MET MET MET MET MET MET MET MET MET MET MET MET MET MET MET MET MET MET ET ET ET ET ET ET ET ET ET ET ET ET             CR CR CR CR CR CR CR CR CR CR CR CR CR CR CR CR CR CR CR CR CR CR CR CR CR CR CR CR CR CR CR CR CR CR CR CR CR CR CR CR CR CR CR CR CR CR CR CR             QA QA QA QA QA QA QA QA QA QA QA QA QA QA QA QA QA QA QA QA QA QA QA QA QA QA QA QA QA QA QA QA QA QA QA QA QA QA QA QA QA QA QA QA QA QA QA QA             @O @O @O @O @O @O @O @O @O @O @O @O @O @O @O @O @O @O @O @O @O @O @O @O @O @O @O @O @O @O @O @O @O @O @O @O @O @O @O @O @O @O @O @O @O @O @O @O             >M >M >M >M >M >M >M >M >M >M >M >M >M >M >M >M >M >M >M >M >M >M >M >M >M >M >M >M >M >M >M >M >M >M >M >M >M >M >M >M >M >M >M >M >M >M >M >M             L< L< L< L< L< L< L< L< L< L< L< L< L< L< L< L< L< L< L< L< L< L< L< L< L< L< L< L< L< L< L< L< L< L< L< L< L< L< L< L< L< L< L< L< L< L< L< L< L L L L L L L L L L L L L> L> L> L> L> L> L> L> L> L> L> L> L> L> L> L> L> L> L> L> L> L> L> L> L> L> L> L> L> L> > > > > > > > > > > > > > > > > > >             OL< OL< OL< OL< OL< OL< OL< OL< OL< OL< OL< OL< OL< OL< OL< OL< OL< OL< OL< OL< OL< OL< OL< OL< OL< OL< OL< OL< OL< OL< OL< OL< OL< OL< OL< OL< OL< OL< OL< OL< OL< OL< OL< OL< OL< OL< OL< OL< OL OL OL OL OL OL OL OL OL OL OL OL OL: OL: OL: OL: OL: OL: OL: OL: OL: OL: OL: OL: OL: OL: OL: OL: OL: OL: OL: OL: OL: OL: OL: OL: OL: OL: OL: OL: OL: OL: OL: OL: OL: OL: OL: OL: : : : : : : : : : : : :             LO9 LO9 LO9 LO9 LO9 LO9 LO9 LO9 LO9 LO9 LO9 LO9 LO9 LO9 LO9 LO9 LO9 LO9 LO9 LO9 LO9 LO9 LO9 LO9 LO9 LO9 LO9 LO9 LO9 LO9 LO9 LO9 LO9 LO9 LO9 LO9 LO9 LO9 LO9 LO9 LO9 LO9 LO9 LO9 LO9 LO9 LO9 LO9 LO LO LO LO LO LO LO LO LO LO LO LO LO7 LO7 LO7 LO7 LO7 LO7 LO7 LO7 LO7 LO7 LO7 LO7 LO7 LO7 LO7 LO7 LO7 LO7 LO7 LO7 LO7 LO7 LO7 LO7 LO7 LO7 LO7 LO7 LO7 LO7 LO7 LO7 LO7 LO7 LO7 LO7 7 7 7 7 7 7 7 7 7 7 7 7             QL5 QL5 QL5 QL5 QL5 QL5 QL5 QL5 QL5 QL5 QL5 QL5 QL5 QL5 QL5 QL5 QL5 QL5 QL5 QL5 QL5 QL5 QL5 QL5 QL5 QL5 QL5 QL5 QL5 QL5 QL5 QL5 QL5 QL5 QL5 QL5 QL5 QL5 QL5 QL5 QL5 QL5 QL5 QL5 QL5 QL5 QL5 QL5 L L L L L L L L L L L L LR7 LR7 LR7 LR7 LR7 LR7 LR7 LR7 LR7 LR7 LR7 LR7 LR7 LR7 LR7 LR7 LR7 LR7 LR7 LR7 LR7 LR7 LR7 LR7 LR7 LR7 LR7 LR7 LR7 LR7 LR7 LR7 LR7 LR7 LR7 LR7 R7 R7 R7 R7 R7 R7 R7 R7 R7 R7 R7 R7             Q5 Q5 Q5 Q5 Q5 Q5 Q5 Q5 Q5 Q5 Q5 Q5 Q5 Q5 Q5 Q5 Q5 Q5 Q5 Q5 Q5 Q5 Q5 Q5 Q5 Q5 Q5 Q5 Q5 Q5 Q5 Q5 Q5 Q5 Q5 Q5 Q5 Q5 Q5 Q5 Q5 Q5 Q5 Q5 Q5 Q5 Q5 Q5             O4 O4 O4 O4 O4 O4 O4 O4 O4 O4 O4 O4 O4 O4 O4 O4 O4 O4 O4 O4 O4 O4 O4 O4 O4 O4 O4 O4 O4 O4 O4 O4 O4 O4 O4 O4 O4 O4 O4 O4 O4 O4 O4 O4 O4 O4 O4 O4             M2 M2 M2 M2 M2 M2 M2 M2 M2 M2 M2 M2 M2 M2 M2 M2 M2 M2 M2 M2 M2 M2 M2 M2 M2 M2 M2 M2 M2 M2 M2 M2 M2 M2 M2 M2 M2 M2 M2 M2 M2 M2 M2 M2 M2 M2 M2 M2             L0 L0 L0 L0 L0 L0 L0 L0 L0 L0 L0 L0 L0 L0 L0 L0 L0 L0 L0 L0 L0 L0 L0 L0 L0 L0 L0 L0 L0 L0 L0 L0 L0 L0 L0 L0 L0 L0 L0 L0 L0 L0 L0 L0 L0 L0 L0 L0             J. J. J. J. J. J. J. J. J. J. J. J. J. J. J. J. J. J. J. J. J. J. J. J. J. J. J. J. J. J. J. J. J. J. J. J. J. J. J. J. J. J. J. J. J. J. J. J.             H0 H0 H0 H0 H0 H0 H0 H0 H0 H0 H0 H0 H0 H0 H0 H0 H0 H0 H0 H0 H0 H0 H0 H0 H0 H0 H0 H0 H0 H0 H0 H0 H0 H0 H0 H0 H0 H0 H0 H0 H0 H0 H0 H0 H0 H0 H0 H0             J. J. J. J. J. J. J. J. J. J. J. J. J. J. J. J. J. J. J. J. J. J. J. J. J. J. J. J. J. J. J. J. J. J. J. J. J. J. J. J. J. J. J. J. J. J. J. J.             L- L- L- L- L- L- L- L- L- L- L- L- L- L- L- L- L- L- L- L- L- L- L- L- L- L- L- L- L- L- L- L- L- L- L- L- L- L- L- L- L- L- L- L- L- L- L- L-             M+ M+ M+ M+ M+ M+ M+ M+ M+ M+ M+ M+ M+ M+ M+ M+ M+ M+ M+ M+ M+ M+ M+ M+ M+ M+ M+ M+ M+ M+ M+ M+ M+ M+ M+ M+ M+ M+ M+ M+ M+ M+ M+ M+ M+ M+ M+ M+             J) J) J) J) J) J) J) J) J) J) J) J) J) J) J) J) J) J) J) J) J) J) J) J) J) J) J) J) J) J) J) J) J) J) J) J) J) J) J) J) J) J) J) J) J) J) J) J)             O( O( O( O( O( O( O( O( O( O( O( O( O( O( O( O( O( O( O( O( O( O( O( O( O( O( O( O( O( O( O( O( O( O( O( O( O( O( O( O( O( O( O( O( O( O( O( O( O O O O O O O O O O O O O& O& O& O& O& O& O& O& O& O& O& O& O& O& O& O& O& O& O& O& O& O& O& O& O& O& O& O& O& O& & & & & & & & & & & & & & & & & & &             OFJ( OFJ( OFJ( OFJ( OFJ( OFJ( OFJ( OFJ( OFJ( OFJ( OFJ( OFJ( OFJ( OFJ( OFJ( OFJ( OFJ( OFJ( OFJ( OFJ( OFJ( OFJ( OFJ( OFJ( OFJ( OFJ( OFJ( OFJ( OFJ( OFJ( OFJ( OFJ( OFJ( OFJ( OFJ( OFJ( OFJ( OFJ( OFJ( OFJ( OFJ( OFJ( OFJ( OFJ( OFJ( OFJ( OFJ( OFJ( OFJ OFJ OFJ OFJ OFJ OFJ OFJ OFJ OFJ OFJ OFJ OFJ OFJ) OFJ) OFJ) OFJ) OFJ) OFJ) OFJ) OFJ) OFJ) OFJ) OFJ) OFJ) OFJ) OFJ) OFJ) OFJ) OFJ) OFJ) OFJ) OFJ) OFJ) OFJ) OFJ) OFJ) OFJ) OFJ) OFJ) OFJ) OFJ) OFJ) FJ) FJ) FJ) FJ) FJ) FJ) ) ) ) ) ) ) ) ) ) ) ) )             OFJ+ OFJ+ OFJ+ OFJ+ OFJ+ OFJ+ OFJ+ OFJ+ OFJ+ OFJ+ OFJ+ OFJ+ OFJ+ OFJ+ OFJ+ OFJ+ OFJ+ OFJ+ OFJ+ OFJ+ OFJ+ OFJ+ OFJ+ OFJ+ OFJ+ OFJ+ OFJ+ OFJ+ OFJ+ OFJ+ OFJ+ OFJ+ OFJ+ OFJ+ OFJ+ OFJ+ OFJ+ OFJ+ OFJ+ OFJ+ OFJ+ OFJ+ OFJ+ OFJ+ OFJ+ OFJ+ OFJ+ OFJ+ OFJ OFJ OFJ OFJ OFJ OFJ OFJ OFJ OFJ OFJ OFJ OFJ OFJ( OFJ( OFJ( OFJ( OFJ( OFJ( OFJ( OFJ( OFJ( OFJ( OFJ( OFJ( OFJ( OFJ( OFJ( OFJ( OFJ( OFJ( OFJ( OFJ( OFJ( OFJ( OFJ( OFJ( OFJ( OFJ( OFJ( OFJ( OFJ( OFJ( FJ( FJ( FJ( FJ( FJ( FJ( ( ( ( ( ( ( ( ( ( ( ( (             IF- IF- IF- IF- IF- IF- IF- IF- IF- IF- IF- IF- IF- IF- IF- IF- IF- IF- IF- IF- IF- IF- IF- IF- IF- IF- IF- IF- IF- IF- IF- IF- IF- IF- IF- IF- IF- IF- IF- IF- IF- IF- IF- IF- IF- IF- IF- IF- IF IF IF IF IF IF IF IF IF IF IF IF IF+ IF+ IF+ IF+ IF+ IF+ IF+ IF+ IF+ IF+ IF+ IF+ IF+ IF+ IF+ IF+ IF+ IF+ IF+ IF+ IF+ IF+ IF+ IF+ IF+ IF+ IF+ IF+ IF+ IF+ IF+ IF+ IF+ IF+ IF+ IF+ + + + + + + + + + + + +             LEI- LEI- LEI- LEI- LEI- LEI- LEI- LEI- LEI- LEI- LEI- LEI- LEI- LEI- LEI- LEI- LEI- LEI- LEI- LEI- LEI- LEI- LEI- LEI- LEI- LEI- LEI- LEI- LEI- LEI- LEI- LEI- LEI- LEI- LEI- LEI- LEI- LEI- LEI- LEI- LEI- LEI- LEI- LEI- LEI- LEI- LEI- LEI- LEI LEI LEI LEI LEI LEI LEI LEI LEI LEI LEI LEI LEI/ LEI/ LEI/ LEI/ LEI/ LEI/ LEI/ LEI/ LEI/ LEI/ LEI/ LEI/ LEI/ LEI/ LEI/ LEI/ LEI/ LEI/ LEI/ LEI/ LEI/ LEI/ LEI/ LEI/ LEI/ LEI/ LEI/ LEI/ LEI/ LEI/ EI/ EI/ EI/ EI/ EI/ EI/ / / / / / / / / / / / /             LEI1 LEI1 LEI1 LEI1 LEI1 LEI1 LEI1 LEI1 LEI1 LEI1 LEI1 LEI1 LEI1 LEI1 LEI1 LEI1 LEI1 LEI1 LEI1 LEI1 LEI1 LEI1 LEI1 LEI1 LEI1 LEI1 LEI1 LEI1 LEI1 LEI1 LEI1 LEI1 LEI1 LEI1 LEI1 LEI1 LEI1 LEI1 LEI1 LEI1 LEI1 LEI1 LEI1 LEI1 LEI1 LEI1 LEI1 LEI1 LEI LEI LEI LEI LEI LEI LEI LEI LEI LEI LEI LEI LEI- LEI- LEI- LEI- LEI- LEI- LEI- LEI- LEI- LEI- LEI- LEI- LEI- LEI- LEI- LEI- LEI- LEI- LEI- LEI- LEI- LEI- LEI- LEI- LEI- LEI- LEI- LEI- LEI- LEI- EI- EI- EI- EI- EI- EI- - - - - - - - - - - - -             C@: C@: C@: C@: C@: C@: C@: C@: C@: C@: C@: C@: C@: C@: C@: C@: C@: C@: C@: C@: C@: C@: C@: C@: C@: C@: C@: C@: C@: C@: C@: C@: C@: C@: C@: C@: C@: C@: C@: C@: C@: C@: C@: C@: C@: C@: C@: C@: C@: C@: C@: C@: C@: C@: C@: C@: C@: C@: C@: C@: C@: C@: C@: C@: C@: C@: C@: C@: C@: C@: C@: C@: C@: C@: C@: C@: C@: C@: C@: C@: C@: C@: C@: C@: C@: C@: C@: C@: C@: C@: C@: C@: C@: C@: C@: C@: C@ C@ C@ C@ C@ C@ C@ C@ C@ C@ C@ C@ C@ C@ C@ C@ C@ C@ C@ C@ C@ C@ C@ C@ C@1 C@1 C@1 C@1 C@1 C@1 C@1 C@1 C@1 C@1 C@1 C@1 C@1 C@1 C@1 C@1 C@1 C@1 C@1 C@1 C@1 C@1 C@1 C@1 @1 @1 @1 @1 @1 @1 @1 @1 @1 @1 @1 @1 @1 @1 @1 @1 @1 @1 @1 @1 @1 @1 @1 @1 @1 @1 @1 @1 @1 @1 @1 @1 @1 @1 @1 @1 @E1 @E1 @E1 @E1 @E1 @E1 @E1 @E1 @E1 @E1 @E1 @E1 E1 E1 E1 E1 E1 E1 E1 E1 E1 E1 E1 E1 E1 E1 E1 E1 E1 E1 E1 E1 E1 E1 E1 E1 E E E E E E E E E E E E             A>2 A>2 A>2 A>2 A>2 A>2 A>2 A>2 A>2 A>2 A>2 A>2 A>2 A>2 A>2 A>2 A>2 A>2 A>2 A>2 A>2 A>2 A>2 A>2 A>2 A>2 A>2 A>2 A>2 A>2 A>2 A>2 A>2 A>2 A>2 A>2 A>2 A>2 A>2 A>2 A>2 A>2 A>2 A>2 A>2 A>2 A>2 A>2 A>2 A>2 A>2 A>2 A>2 A>2 A>2 A>2 A>2 A>2 A>2 A>2 A>2 A>2 A>2 A>2 A>2 A>2 A>2 A>2 A>2 A>2 A>2 A>2 A>2 A>2 A>2 A>2 A>2 A>2 A>2 A>2 A>2 A>2 A>2 A>2 A>2 A>2 A>2 A>2 A>2 A>2 A>2 A>2 A>2 A>2 A>2 A>2 A> A> A> A> A> A> A> A> A> A> A> A> A> A> A> A> A> A> A> A> A> A> A> A> A>7 A>7 A>7 A>7 A>7 A>7 A>7 A>7 A>7 A>7 A>7 A>7 A>7 A>7 A>7 A>7 A>7 A>7 A>7 A>7 A>7 A>7 A>7 A>7 A>7 A>7 A>7 A>7 A>7 A>7 A>7 A>7 A>7 A>7 A>7 A>7 A>7 A>7 A>7 A>7 A>7 A>7 A>7 A>7 A>7 A>7 A>7 A>7 >7 >7 >7 >7 >7 >7 >7 >7 >7 >7 >7 >7 >@7 >@7 >@7 >@7 >@7 >@7 >@7 >@7 >@7 >@7 >@7 >@7 >@7 >@7 >@7 >@7 >@7 >@7 >@7 >@7 >@7 >@7 >@7 >@7 >@7 >@7 >@7 >@7 >@7 >@7 >@7 >@7 >@7 >@7 >@7 >@7 @ @ @ @ @ @ @ @ @ @ @ @             A=9 A=9 A=9 A=9 A=9 A=9 A=9 A=9 A=9 A=9 A=9 A=9 A=9 A=9 A=9 A=9 A=9 A=9 A=9 A=9 A=9 A=9 A=9 A=9 =9 =9 =9 =9 =9 =9 @=9 @=9 @=9 @=9 @=9 @=9 @=9 @=9 @=9 @=9 @=9 @=9 @=9 @=9 @=9 @=9 @=9 @=9 @=9 @=9 @=9 @=9 @=9 @=9 =9 =9 =9 =9 =9 =9 A=9 A=9 A=9 A=9 A=9 A=9 A=9 A=9 A=9 A=9 A=9 A=9 A=9 A=9 A=9 A=9 A=9 A=9 A=9 A=9 A=9 A=9 A=9 A=9 =9 =9 =9 =9 =9 =9 @=9 @=9 @=9 @=9 @=9 @=9 @= @= @= @= @= @= @= @= @= @= @= @= @= @= @= @= @= @= @= @= @= @= @= @= @=- @=- @=- @=- @=- @=- @=- @=- @=- @=- @=- @=- @=- @=- @=- @=- @=- @=- @=- @=- @=- @=- @=- @=- @=- @=- @=- @=- @=- @=- @=- @=- @=- @=- @=- @=- @=- @=- @=- @=- @=- @=- @=- @=- @=- @=- @=- @=- @=- @=- @=- @=- @=- @=- @=- @=- @=- =- =- =- =>- =>- =>- =>- =>- =>- =>- =>- =>- =>- =>- =>- >- >- >- >- >- >- >- >- >- >- >- >- >- >- >- >- >- >- >- >- >- >- >- >- > > > > > > > > > > > >             >>& >>& >>& >>& >>& >>& >>& >>& >>& >>& >>& >>& >>& >>& >>& >>& >>& >>& >>& >>& >>& >>& >>& >>& >>& >>& >>& >>& >>& >>& >>& >>& >>& >>& >>& >>& >>& >>& >>& >>& >>& >>& >>& >>& >>& >>& >>& >>& >& >& >& >& >& >& >& >& >& >& >& >& >@& >@& >@& >@& >@& >@& >@& >@& >@& >@& >@& >@& >@& >@& >@& >@& >@& >@& >@& >@& >@& >@& >@& >@& >@& >@& >@& >@& >@& >@& >@& >@& >@& >@& >@& >@& @& @& @& @& @& @& @& @& @& @& @& @& & & & & & & & & & & & & A& A& A& A& A& A& A& A& A& A& A& A& A& A& A& A& A& A& A& A& A& A& A& A& A& A& A& A& A& A& A& A& A& A& A& A& A& A& A& A& A& A& A& A& A& A& A& A& & & & & & & & & & & & & >& >& >& >& >& >& >& >& >& >& >& >& > > > > > > > > > > > > > > > > > > > > > > > > > > > > > > > > > > > >             = = = = = = = = = = = = = = = = = = = = = = = = = = = = = = = = = = = = = = = = = = = = = = = =             > > > > > > > > > > > > > > > > > > > > > > > > > > > > > > > > > > > > > > > > > > > > > > > >             9 9 9 9 9 9 9 9 9 9 9 9 9 9 9 9 9 9 9 9 9 9 9 9 9 9 9 9 9 9 9 9 9 9 9 9 9 9 9 9 9 9 9 9 9 9 9 9             > > > > > > > > > > > > > > > > > > > > > > > > > > > > > > > > > > > > > > > > > > > > > > > >             A A A A A A A A A A A A A A A A A A A A A A A A A A A A A A A A A A A A A A A A A A A A A A A A             > > > > > > > > > > > > > > > > > > > > > > > > > > > > > > > > > > > > > > > > > > > > > > > >             D D D D D D D D D D D D D D D D D D D D D D D D D D D D D D D D D D D D D D D D D D D D D D D D             > > > > > > > > > > > > > > > > > > > > > > > > > > > > > > > > > > > > > > > > > > > > > > > >             E E E E E E E E E E E E E E E E E E E E E E E E E E E E E E E E E E E E E E E E E E E E E E E E E E E E E E E E E E E E E9 E9 E9 E9 E9 E9 E9 E9 E9 E9 E9 E9 E9 E9 E9 E9 E9 E9 E9 E9 E9 E9 E9 E9 E E E E E E ; ; ; ; ; ; ; ; ; ; ; ; ; ; ; ; ; ; ; ; ; ; ; ;       L< L< L< L< L< L< L< L< L< L< L< L< L< L< L< L< L< L< L< L< L< L< L< L< L< L< L< L< L< L< L< L< L< L< L< L< L< L< L< L< L< L< L< L< L< L< L< L< L L L L L L L L L L L L L9 L9 L9 L9 L9 L9 L9 L9 L9 L9 L9 L9 L9 L9 L9 L9 L9 L9 L9 L9 L9 L9 L9 L9 L9 L9 L9 L9 L9 L9 9 9 9 9 9 9 9 9 9 9 9 9 9 9 9 9 9 9             L8 L8 L8 L8 L8 L8 L8 L8 L8 L8 L8 L8 L8 L8 L8 L8 L8 L8 L8 L8 L8 L8 L8 L8 L8 L8 L8 L8 L8 L8 L8 L8 L8 L8 L8 L8 L8 L8 L8 L8 L8 L8 L8 L8 L8 L8 L8 L8 L L L L L L L L L L L L L9 L9 L9 L9 L9 L9 L9 L9 L9 L9 L9 L9 L9 L9 L9 L9 L9 L9 L9 L9 L9 L9 L9 L9 L9 L9 L9 L9 L9 L9 9 9 9 9 9 9 9 9 9 9 9 9 9 9 9 9 9 9             H4 H4 H4 H4 H4 H4 H4 H4 H4 H4 H4 H4 H4 H4 H4 H4 H4 H4 H4 H4 H4 H4 H4 H4 H4 H4 H4 H4 H4 H4 H4 H4 H4 H4 H4 H4 H4 H4 H4 H4 H4 H4 H4 H4 H4 H4 H4 H4 H H H H H H H H H H H H H9 H9 H9 H9 H9 H9 H9 H9 H9 H9 H9 H9 H9 H9 H9 H9 H9 H9 H9 H9 H9 H9 H9 H9 H9 H9 H9 H9 H9 H9 9 9 9 9 9 9 9 9 9 9 9 9 9 9 9 9 9 9             E< E< E< E< E< E< E< E< E< E< E< E< E< E< E< E< E< E< E< E< E< E< E< E< E< E< E< E< E< E< E< E< E< E< E< E< E< E< E< E< E< E< E< E< E< E< E< E< E E E E E E E E E E E E E9 E9 E9 E9 E9 E9 E9 E9 E9 E9 E9 E9 E9 E9 E9 E9 E9 E9 E9 E9 E9 E9 E9 E9 E9 E9 E9 E9 E9 E9 9 9 9 9 9 9 9 9 9 9 9 9 9 9 9 9 9 9             E= E= E= E= E= E= E= E= E= E= E= E= E= E= E= E= E= E= E= E= E= E= E= E= E= E= E= E= E= E= E= E= E= E= E= E= E= E= E= E= E= E= E= E= E= E= E= E= E E E E E E E E E E E E E9 E9 E9 E9 E9 E9 E9 E9 E9 E9 E9 E9 E9 E9 E9 E9 E9 E9 E9 E9 E9 E9 E9 E9 E9 E9 E9 E9 E9 E9 9 9 9 9 9 9 9 9 9 9 9 9 9 9 9 9 9 9             E@ E@ E@ E@ E@ E@ E@ E@ E@ E@ E@ E@ E@ E@ E@ E@ E@ E@ E@ E@ E@ E@ E@ E@ E@ E@ E@ E@ E@ E@ E@ E@ E@ E@ E@ E@ E@ E@ E@ E@ E@ E@ E@ E@ E@ E@ E@ E@ @ @ @ @ @ @ @ @ @ @ @ @ B@ B@ B@ B@ B@ B@ B@ B@ B@ B@ B@ B@ B@ B@ B@ B@ B@ B@ B@ B@ B@ B@ B@ B@ B@ B@ B@ B@ B@ B@ B B B B B B B B B B B B B B B B B B             C@ C@ C@ C@ C@ C@ C@ C@ C@ C@ C@ C@ C@ C@ C@ C@ C@ C@ C@ C@ C@ C@ C@ C@ C@ C@ C@ C@ C@ C@ C@ C@ C@ C@ C@ C@ C@ C@ C@ C@ C@ C@ C@ C@ C@ C@ C@ C@ @ @ @ @ @ @ @ @ @ @ @ @ G@ G@ G@ G@ G@ G@ G@ G@ G@ G@ G@ G@ G@ G@ G@ G@ G@ G@ G@ G@ G@ G@ G@ G@ G@ G@ G@ G@ G@ G@ G G G G G G G G G G G G G G G G G G             H@ H@ H@ H@ H@ H@ H@ H@ H@ H@ H@ H@ H@ H@ H@ H@ H@ H@ H@ H@ H@ H@ H@ H@ H@ H@ H@ H@ H@ H@ H@ H@ H@ H@ H@ H@ H@ H@ H@ H@ H@ H@ H@ H@ H@ H@ H@ H@ @ @ @ @ @ @ @ @ @ @ @ @ C@ C@ C@ C@ C@ C@ C@ C@ C@ C@ C@ C@ C@ C@ C@ C@ C@ C@ C@ C@ C@ C@ C@ C@ C@ C@ C@ C@ C@ C@ C C C C C C C C C C C C C C C C C C             A@ A@ A@ A@ A@ A@ A@ A@ A@ A@ A@ A@ A@ A@ A@ A@ A@ A@ A@ A@ A@ A@ A@ A@ A@ A@ A@ A@ A@ A@ A@ A@ A@ A@ A@ A@ A@ A@ A@ A@ A@ A@ A@ A@ A@ A@ A@ A@ @ @ @ @ @ @ @ @ @ @ @ @ C@ C@ C@ C@ C@ C@ C@ C@ C@ C@ C@ C@ C@ C@ C@ C@ C@ C@ C@ C@ C@ C@ C@ C@ C@ C@ C@ C@ C@ C@ C@ C@ C@ C@ C@ C@ C C C C C C C C C C C C             E> E> E> E> E> E> E> E> E> E> E> E> E> E> E> E> E> E> E> E> E> E> E> E> E> E> E> E> E> E> E> E> E> E> E> E> E> E> E> E> E> E> E> E> E> E> E> E> > > > > > > > > > > > > A> A> A> A> A> A> A> A> A> A> A> A> A> A> A> A> A> A> A> A> A> A> A> A> A> A> A> A> A> A> A A A A A A A A A A A A A A A A A A             F> F> F> F> F> F> F> F> F> F> F> F> F> F> F> F> F> F> F> F> F> F> F> F> F> F> F> F> F> F> F> F> F> F> F> F> F> F> F> F> F> F> F> F> F> F> F> F> > > > > > > > > > > > > A> A> A> A> A> A> A> A> A> A> A> A> A> A> A> A> A> A> A> A> A> A> A> A> A> A> A> A> A> A> A A A A A A A A A A A A A A A A A A             @> @> @> @> @> @> @> @> @> @> @> @> @> @> @> @> @> @> @> @> @> @> @> @> @> @> @> @> @> @> @> @> @> @> @> @> @> @> @> @> @> @> @> @> @> @> @> @> > > > > > > > > > > > > C> C> C> C> C> C> C> C> C> C> C> C> C> C> C> C> C> C> C> C> C> C> C> C> C> C> C> C> C> C> C> C> C> C> C> C> C C C C C C C C C C C C             E< E< E< E< E< E< E< E< E< E< E< E< E< E< E< E< E< E< E< E< E< E< E< E< E< E< E< E< E< E< E< E< E< E< E< E< E< E< E< E< E< E< E< E< E< E< E< E< < < < < < < < < < < < < F< F< F< F< F< F< F< F< F< F< F< F< F< F< F< F< F< F< F< F< F< F< F< F< F< F< F< F< F< F< F F F F F F F F F F F F F F F F F F             H< H< H< H< H< H< H< H< H< H< H< H< H< H< H< H< H< H< H< H< H< H< H< H< H< H< H< H< H< H< H< H< H< H< H< H< H< H< H< H< H< H< H< H< H< H< H< H< < < < < < < < < < < < < E< E< E< E< E< E< E< E< E< E< E< E< E< E< E< E< E< E< E< E< E< E< E< E< E< E< E< E< E< E< E E E E E E E E E E E E E E E E E E             B B B B B B B B B B B B B B B B B B B B B B B B B B B B B B B B B B B B B B B B B B B B B B B B B B B B B B B B B B B B B< B< B< B< B< B< B< B< B< B< B< B< B< B< B< B< B< B< B< B< B< B< B< B< B< B< B< B< B< B< B< B< B< B< B< B< < < < < < < < < < < < <             C: C: C: C: C: C: C: C: C: C: C: C: C: C: C: C: C: C: C: C: C: C: C: C: C: C: C: C: C: C: C: C: C: C: C: C: C: C: C: C: C: C: C: C: C: C: C: C: C C C C C C C C C C C C C9 C9 C9 C9 C9 C9 C9 C9 C9 C9 C9 C9 C9 C9 C9 C9 C9 C9 C9 C9 C9 C9 C9 C9 C9 C9 C9 C9 C9 C9 9 9 9 9 9 9 9 9 9 9 9 9 9 9 9 9 9 9             C7 C7 C7 C7 C7 C7 C7 C7 C7 C7 C7 C7 C7 C7 C7 C7 C7 C7 C7 C7 C7 C7 C7 C7 C7 C7 C7 C7 C7 C7 C7 C7 C7 C7 C7 C7 C7 C7 C7 C7 C7 C7 C7 C7 C7 C7 C7 C7 C C C C C C C C C C C C C: C: C: C: C: C: C: C: C: C: C: C: C: C: C: C: C: C: C: C: C: C: C: C: C: C: C: C: C: C: : : : : : : : : : : : : : : : : : :             C1 C1 C1 C1 C1 C1 C1 C1 C1 C1 C1 C1 C1 C1 C1 C1 C1 C1 C1 C1 C1 C1 C1 C1 C1 C1 C1 C1 C1 C1 C1 C1 C1 C1 C1 C1 C1 C1 C1 C1 C1 C1 C1 C1 C1 C1 C1 C1 1 1 1 1 1 1 1 1 1 1 1 1 E1 E1 E1 E1 E1 E1 E1 E1 E1 E1 E1 E1 E1 E1 E1 E1 E1 E1 E1 E1 E1 E1 E1 E1 E1 E1 E1 E1 E1 E1 E1 E1 E1 E1 E1 E1 E E E E E E E E E E E E             F7 F7 F7 F7 F7 F7 F7 F7 F7 F7 F7 F7 F7 F7 F7 F7 F7 F7 F7 F7 F7 F7 F7 F7 F7 F7 F7 F7 F7 F7 F7 F7 F7 F7 F7 F7 F7 F7 F7 F7 F7 F7 F7 F7 F7 F7 F7 F7 7 7 7 7 7 7 7 7 7 7 7 7 C7 C7 C7 C7 C7 C7 C7 C7 C7 C7 C7 C7 C7 C7 C7 C7 C7 C7 C7 C7 C7 C7 C7 C7 C7 C7 C7 C7 C7 C7 C7 C7 C7 C7 C7 C7 C C C C C C C C C C C C             I: I: I: I: I: I: I: I: I: I: I: I: I: I: I: I: I: I: I: I: I: I: I: I: I: I: I: I: I: I: I: I: I: I: I: I: I: I: I: I: I: I: I: I: I: I: I: I: : : : : : : : : : : : : C: C: C: C: C: C: C: C: C: C: C: C: C: C: C: C: C: C: C: C: C: C: C: C: C: C: C: C: C: C: C: C: C: C: C: C: C C C C C C C C C C C C             L1 L1 L1 L1 L1 L1 L1 L1 L1 L1 L1 L1 L1 L1 L1 L1 L1 L1 L1 L1 L1 L1 L1 L1 L1 L1 L1 L1 L1 L1 L1 L1 L1 L1 L1 L1 L1 L1 L1 L1 L1 L1 L1 L1 L1 L1 L1 L1 1 1 1 1 1 1 1 1 1 1 1 1 F1 F1 F1 F1 F1 F1 F1 F1 F1 F1 F1 F1 F1 F1 F1 F1 F1 F1 F1 F1 F1 F1 F1 F1 F1 F1 F1 F1 F1 F1 F1 F1 F1 F1 F1 F1 F F F F F F F F F F F F             E4 E4 E4 E4 E4 E4 E4 E4 E4 E4 E4 E4 E4 E4 E4 E4 E4 E4 E4 E4 E4 E4 E4 E4 E4 E4 E4 E4 E4 E4 E4 E4 E4 E4 E4 E4 E4 E4 E4 E4 E4 E4 E4 E4 E4 E4 E4 E4 4 4 4 4 4 4 4 4 4 4 4 4 C4 C4 C4 C4 C4 C4 C4 C4 C4 C4 C4 C4 C4 C4 C4 C4 C4 C4 C4 C4 C4 C4 C4 C4 C4 C4 C4 C4 C4 C4 C4 C4 C4 C4 C4 C4 C C C C C C C C C C C C             A9 A9 A9 A9 A9 A9 A9 A9 A9 A9 A9 A9 A9 A9 A9 A9 A9 A9 A9 A9 A9 A9 A9 A9 A9 A9 A9 A9 A9 A9 A9 A9 A9 A9 A9 A9 A9 A9 A9 A9 A9 A9 A9 A9 A9 A9 A9 A9 9 9 9 9 9 9 9 9 9 9 9 9 @9 @9 @9 @9 @9 @9 @9 @9 @9 @9 @9 @9 @9 @9 @9 @9 @9 @9 @9 @9 @9 @9 @9 @9 @9 @9 @9 @9 @9 @9 @9 @9 @9 @9 @9 @9 @ @ @ @ @ @ @ @ @ @ @ @             A2 A2 A2 A2 A2 A2 A2 A2 A2 A2 A2 A2 A2 A2 A2 A2 A2 A2 A2 A2 A2 A2 A2 A2 A2 A2 A2 A2 A2 A2 A2 A2 A2 A2 A2 A2 A2 A2 A2 A2 A2 A2 A2 A2 A2 A2 A2 A2 2 2 2 2 2 2 2 2 2 2 2 2 C2 C2 C2 C2 C2 C2 C2 C2 C2 C2 C2 C2 C2 C2 C2 C2 C2 C2 C2 C2 C2 C2 C2 C2 C2 C2 C2 C2 C2 C2 C2 C2 C2 C2 C2 C2 C C C C C C C C C C C C             D5 D5 D5 D5 D5 D5 D5 D5 D5 D5 D5 D5 D5 D5 D5 D5 D5 D5 D5 D5 D5 D5 D5 D5 D5 D5 D5 D5 D5 D5 D5 D5 D5 D5 D5 D5 D5 D5 D5 D5 D5 D5 D5 D5 D5 D5 D5 D5 5 5 5 5 5 5 5 5 5 5 5 5 A5 A5 A5 A5 A5 A5 A5 A5 A5 A5 A5 A5 A5 A5 A5 A5 A5 A5 A5 A5 A5 A5 A5 A5 A5 A5 A5 A5 A5 A5 A5 A5 A5 A5 A5 A5 A A A A A A A A A A A A             G8 G8 G8 G8 G8 G8 G8 G8 G8 G8 G8 G8 G8 G8 G8 G8 G8 G8 G8 G8 G8 G8 G8 G8 G8 G8 G8 G8 G8 G8 G8 G8 G8 G8 G8 G8 G8 G8 G8 G8 G8 G8 G8 G8 G8 G8 G8 G8 8 8 8 8 8 8 8 8 8 8 8 8 A8 A8 A8 A8 A8 A8 A8 A8 A8 A8 A8 A8 A8 A8 A8 A8 A8 A8 A8 A8 A8 A8 A8 A8 A8 A8 A8 A8 A8 A8 A8 A8 A8 A8 A8 A8 A A A A A A A A A A A A             J; J; J; J; J; J; J; J; J; J; J; J; J; J; J; J; J; J; J; J; J; J; J; J; J; J; J; J; J; J; J; J; J; J; J; J; J; J; J; J; J; J; J; J; J; J; J; J; ; ; ; ; ; ; ; ; ; ; ; ; D; D; D; D; D; D; D; D; D; D; D; D; D; D; D; D; D; D; D; D; D; D; D; D; D; D; D; D; D; D; D; D; D; D; D; D; D D D D D D D D D D D D             C> C> C> C> C> C> C> C> C> C> C> C> C> C> C> C> C> C> C> C> C> C> C> C> C> C> C> C> C> C> C> C> C> C> C> C> C> C> C> C> C> C> C> C> C> C> C> C> > > > > > > > > > > > > A> A> A> A> A> A> A> A> A> A> A> A> A> A> A> A> A> A> A> A> A> A> A> A> A> A> A> A> A> A> A> A> A> A> A> A> A A A A A A A A A A A A             ?7 ?7 ?7 ?7 ?7 ?7 ?7 ?7 ?7 ?7 ?7 ?7 ?7 ?7 ?7 ?7 ?7 ?7 ?7 ?7 ?7 ?7 ?7 ?7 ?7 ?7 ?7 ?7 ?7 ?7 ?7 ?7 ?7 ?7 ?7 ?7 ?7 ?7 ?7 ?7 ?7 ?7 ?7 ?7 ?7 ?7 ?7 ?7 7 7 7 7 7 7 7 7 7 7 7 7 >7 >7 >7 >7 >7 >7 >7 >7 >7 >7 >7 >7 >7 >7 >7 >7 >7 >7 >7 >7 >7 >7 >7 >7 >7 >7 >7 >7 >7 >7 >7 >7 >7 >7 >7 >7 > > > > > > > > > > > >             ?< ?< ?< ?< ?< ?< ?< ?< ?< ?< ?< ?< ?< ?< ?< ?< ?< ?< ?< ?< ?< ?< ?< ?< ?< ?< ?< ?< ?< ?< ?< ?< ?< ?< ?< ?< ?< ?< ?< ?< ?< ?< ?< ?< ?< ?< ?< ?< ?< ?< ?< ?< ?< ?< ?< ?< ?< ?< ?< ?< ?<0 ?<0 ?<0 ?<0 ?<0 ?<0 ?<0 ?<0 ?<0 ?<0 ?<0 ?<0 ?<0 ?<0 ?<0 ?<0 ?<0 ?<0 ?<0 ?<0 ?<0 ?<0 ?<0 ?<0 ?< ?< ?< ?< ?< ?< <2 <2 <2 <2 <2 <2 2 2 2 2 2 2 2 2 2 2 2 2 2 2 2 2 2 2       OHC4 OHC4 OHC4 OHC4 OHC4 OHC4 OHC4 OHC4 OHC4 OHC4 OHC4 OHC4 OHC4 OHC4 OHC4 OHC4 OHC4 OHC4 OHC4 OHC4 OHC4 OHC4 OHC4 OHC4 OHC4 OHC4 OHC4 OHC4 OHC4 OHC4 OHC4 OHC4 OHC4 OHC4 OHC4 OHC4 OHC4 OHC4 OHC4 OHC4 OHC4 OHC4 OHC4 OHC4 OHC4 OHC4 OHC4 OHC4 OHC OHC OHC OHC OHC OHC OHC OHC OHC OHC OHC OHC OHC0 OHC0 OHC0 OHC0 OHC0 OHC0 OHC0 OHC0 OHC0 OHC0 OHC0 OHC0 OHC0 OHC0 OHC0 OHC0 OHC0 OHC0 OHC0 OHC0 OHC0 OHC0 OHC0 OHC0 OHC0 OHC0 OHC0 OHC0 OHC0 OHC0 OHC0 OHC0 OHC0 OHC0 OHC0 OHC0 0 0 0 0 0 0 0 0 0 0 0 0             OCJ/ OCJ/ OCJ/ OCJ/ OCJ/ OCJ/ OCJ/ OCJ/ OCJ/ OCJ/ OCJ/ OCJ/ OCJ/ OCJ/ OCJ/ OCJ/ OCJ/ OCJ/ OCJ/ OCJ/ OCJ/ OCJ/ OCJ/ OCJ/ OCJ/ OCJ/ OCJ/ OCJ/ OCJ/ OCJ/ OCJ/ OCJ/ OCJ/ OCJ/ OCJ/ OCJ/ OCJ/ OCJ/ OCJ/ OCJ/ OCJ/ OCJ/ OCJ/ OCJ/ OCJ/ OCJ/ OCJ/ OCJ/ OCJ OCJ OCJ OCJ OCJ OCJ OCJ OCJ OCJ OCJ OCJ OCJ OCJ0 OCJ0 OCJ0 OCJ0 OCJ0 OCJ0 OCJ0 OCJ0 OCJ0 OCJ0 OCJ0 OCJ0 OCJ0 OCJ0 OCJ0 OCJ0 OCJ0 OCJ0 OCJ0 OCJ0 OCJ0 OCJ0 OCJ0 OCJ0 OCJ0 OCJ0 OCJ0 OCJ0 OCJ0 OCJ0 OCJ0 OCJ0 OCJ0 OCJ0 OCJ0 OCJ0 0 0 0 0 0 0 0 0 0 0 0 0             JCK+ JCK+ JCK+ JCK+ JCK+ JCK+ JCK+ JCK+ JCK+ JCK+ JCK+ JCK+ JCK+ JCK+ JCK+ JCK+ JCK+ JCK+ JCK+ JCK+ JCK+ JCK+ JCK+ JCK+ JCK+ JCK+ JCK+ JCK+ JCK+ JCK+ JCK+ JCK+ JCK+ JCK+ JCK+ JCK+ JCK+ JCK+ JCK+ JCK+ JCK+ JCK+ JCK+ JCK+ JCK+ JCK+ JCK+ JCK+ JCK JCK JCK JCK JCK JCK JCK JCK JCK JCK JCK JCK JCK0 JCK0 JCK0 JCK0 JCK0 JCK0 JCK0 JCK0 JCK0 JCK0 JCK0 JCK0 JCK0 JCK0 JCK0 JCK0 JCK0 JCK0 JCK0 JCK0 JCK0 JCK0 JCK0 JCK0 JCK0 JCK0 JCK0 JCK0 JCK0 JCK0 JCK0 JCK0 JCK0 JCK0 JCK0 JCK0 0 0 0 0 0 0 0 0 0 0 0 0             KHC3 KHC3 KHC3 KHC3 KHC3 KHC3 KHC3 KHC3 KHC3 KHC3 KHC3 KHC3 KHC3 KHC3 KHC3 KHC3 KHC3 KHC3 KHC3 KHC3 KHC3 KHC3 KHC3 KHC3 KHC3 KHC3 KHC3 KHC3 KHC3 KHC3 KHC3 KHC3 KHC3 KHC3 KHC3 KHC3 KHC3 KHC3 KHC3 KHC3 KHC3 KHC3 KHC3 KHC3 KHC3 KHC3 KHC3 KHC3 KHC KHC KHC KHC KHC KHC KHC KHC KHC KHC KHC KHC KHC0 KHC0 KHC0 KHC0 KHC0 KHC0 KHC0 KHC0 KHC0 KHC0 KHC0 KHC0 KHC0 KHC0 KHC0 KHC0 KHC0 KHC0 KHC0 KHC0 KHC0 KHC0 KHC0 KHC0 KHC0 KHC0 KHC0 KHC0 KHC0 KHC0 KHC0 KHC0 KHC0 KHC0 KHC0 KHC0 0 0 0 0 0 0 0 0 0 0 0 0             EKH6 EKH6 EKH6 EKH6 EKH6 EKH6 EKH6 EKH6 EKH6 EKH6 EKH6 EKH6 EKH6 EKH6 EKH6 EKH6 EKH6 EKH6 EKH6 EKH6 EKH6 EKH6 EKH6 EKH6 EKH6 EKH6 EKH6 EKH6 EKH6 EKH6 EKH6 EKH6 EKH6 EKH6 EKH6 EKH6 EKH6 EKH6 EKH6 EKH6 EKH6 EKH6 EKH6 EKH6 EKH6 EKH6 EKH6 EKH6 EKH EKH EKH EKH EKH EKH EKH EKH EKH EKH EKH EKH EKH0 EKH0 EKH0 EKH0 EKH0 EKH0 EKH0 EKH0 EKH0 EKH0 EKH0 EKH0 EKH0 EKH0 EKH0 EKH0 EKH0 EKH0 EKH0 EKH0 EKH0 EKH0 EKH0 EKH0 EKH0 EKH0 EKH0 EKH0 EKH0 EKH0 EKH0 EKH0 EKH0 EKH0 EKH0 EKH0 0 0 0 0 0 0 0 0 0 0 0 0             FJ7 FJ7 FJ7 FJ7 FJ7 FJ7 FJ7 FJ7 FJ7 FJ7 FJ7 FJ7 FJ7 FJ7 FJ7 FJ7 FJ7 FJ7 FJ7 FJ7 FJ7 FJ7 FJ7 FJ7 FJ7 FJ7 FJ7 FJ7 FJ7 FJ7 FJ7 FJ7 FJ7 FJ7 FJ7 FJ7 FJ7 FJ7 FJ7 FJ7 FJ7 FJ7 FJ7 FJ7 FJ7 FJ7 FJ7 FJ7 7 7 7 7 7 7 7 7 7 7 7 7 J7 J7 J7 J7 J7 J7 J7 J7 J7 J7 J7 J7 J7 J7 J7 J7 J7 J7 J7 J7 J7 J7 J7 J7 J7 J7 J7 J7 J7 J7 J7 J7 J7 J7 J7 J7 J7 J7 J7 J7 J7 J7 J7 J7 J7 J7 J7 J7 7 7 7 7 7 7 7 7 7 7 7 7 C7: C7: C7: C7: C7: C7: C7: C7: C7: C7: C7: C7: C7: C7: C7: C7: C7: C7: C7: C7: C7: C7: C7: C7: C7: C7: C7: C7: C7: C7: C7: C7: C7: C7: C7: C7: C7: C7: C7: C7: C7: C7: C7: C7: C7: C7: C7: C7: 7: 7: 7: 7: 7: 7: 7: 7: 7: 7: 7: 7: J7: J7: J7: J7: J7: J7: J7: J7: J7: J7: J7: J7: J: J: J: J: J: J: J: J: J: J: J: J: J: J: J: J: J: J: J: J: J: J: J: J: J J J J J J J J J J J J             B9 B9 B9 B9 B9 B9 B9 B9 B9 B9 B9 B9 B9 B9 B9 B9 B9 B9 B9 B9 B9 B9 B9 B9 B9 B9 B9 B9 B9 B9 B9 B9 B9 B9 B9 B9 B9 B9 B9 B9 B9 B9 B9 B9 B9 B9 B9 B9 9 9 9 9 9 9 9 9 9 9 9 9 H9 H9 H9 H9 H9 H9 H9 H9 H9 H9 H9 H9 H9 H9 H9 H9 H9 H9 H9 H9 H9 H9 H9 H9 H9 H9 H9 H9 H9 H9 H9 H9 H9 H9 H9 H9 H H H H H H H H H H H H             F7+ F7+ F7+ F7+ F7+ F7+ F7+ F7+ F7+ F7+ F7+ F7+ F7+ F7+ F7+ F7+ F7+ F7+ F7+ F7+ F7+ F7+ F7+ F7+ F7+ F7+ F7+ F7+ F7+ F7+ F7+ F7+ F7+ F7+ F7+ F7+ F7+ F7+ F7+ F7+ F7+ F7+ F7+ F7+ F7+ F7+ F7+ F7+ 7+ 7+ 7+ 7+ 7+ 7+ 7+ 7+ 7+ 7+ 7+ 7+ J7+ J7+ J7+ J7+ J7+ J7+ J7+ J7+ J7+ J7+ J7+ J7+ J7+ J7+ J7+ J7+ J7+ J7+ J7+ J7+ J7+ J7+ J7+ J7+ J7+ J7+ J7+ J7+ J7+ J7+ J7+ J7+ J7+ J7+ J7+ J7+ J+ J+ J+ J+ J+ J+ J+ J+ J+ J+ J+ J+ + + + + + + + + + + + + C+: C+: C+: C+: C+: C+: C+: C+: C+: C+: C+: C+: C+: C+: C+: C+: C+: C+: C+: C+: C+: C+: C+: C+: C+: C+: C+: C+: C+: C+: C+: C+: C+: C+: C+: C+: C+: C+: C+: C+: C+: C+: C+: C+: C+: C+: C+: C+: +: +: +: +: +: +: +: +: +: +: +: +: J+: J+: J+: J+: J+: J+: J+: J+: J+: J+: J+: J+: J: J: J: J: J: J: J: J: J: J: J: J: J: J: J: J: J: J: J: J: J: J: J: J: J J J J J J J J J J J J             B9 B9 B9 B9 B9 B9 B9 B9 B9 B9 B9 B9 B9 B9 B9 B9 B9 B9 B9 B9 B9 B9 B9 B9 B9 B9 B9 B9 B9 B9 B9 B9 B9 B9 B9 B9 B9 B9 B9 B9 B9 B9 B9 B9 B9 B9 B9 B9 9 9 9 9 9 9 9 9 9 9 9 9 H9 H9 H9 H9 H9 H9 H9 H9 H9 H9 H9 H9 H9 H9 H9 H9 H9 H9 H9 H9 H9 H9 H9 H9 H9 H9 H9 H9 H9 H9 H9 H9 H9 H9 H9 H9 H H H H H H H H H H H H             F7 F7 F7 F7 F7 F7 F7 F7 F7 F7 F7 F7 F7 F7 F7 F7 F7 F7 F7 F7 F7 F7 F7 F7 F7 F7 F7 F7 F7 F7 F7 F7 F7 F7 F7 F7 F7 F7 F7 F7 F7 F7 F7 F7 F7 F7 F7 F7 7 7 7 7 7 7 7 7 7 7 7 7 C7 C7 C7 C7 C7 C7 C7 C7 C7 C7 C7 C7 C7 C7 C7 C7 C7 C7 C7 C7 C7 C7 C7 C7 C7 C7 C7 C7 C7 C7 C7 C7 C7 C7 C7 C7 C7 C7 C7 C7 C7 C7 C7 C7 C7 C7 C7 C7 7 7 7 7 7 7 7 7 7 7 7 7 @07 @07 @07 @07 @07 @07 @07 @07 @07 @07 @07 @07 @07 @07 @07 @07 @07 @07 @07 @07 @07 @07 @07 @07 @07 @07 @07 @07 @07 @07 @07 @07 @07 @07 @07 @07 @07 @07 @07 @07 @07 @07 @07 @07 @07 @07 @07 @07 07 07 07 07 07 07 07 07 07 07 07 07 F07 F07 F07 F07 F07 F07 F07 F07 F07 F07 F07 F07 F07 F07 F07 F07 F07 F07 F07 F07 F07 F07 F07 F07 F07 F07 F07 F07 F07 F07 F07 F07 F07 F07 F07 F07 F7 F7 F7 F7 F7 F7 F7 F7 F7 F7 F7 F7 7 7 7 7 7 7 7 7 7 7 7 7 >27 >27 >27 >27 >27 >27 >27 >27 >27 >27 >27 >27 >27 >27 >27 >27 >27 >27 >27 >27 >27 >27 >27 >27 >27 >27 >27 >27 >27 >27 >27 >27 >27 >27 >27 >27 >27 >27 >27 >27 >27 >27 >27 >27 >27 >27 >27 >27 27 27 27 27 27 27 27 27 27 27 27 27 F27 F27 F27 F27 F27 F27 F27 F27 F27 F27 F27 F27 F27 F27 F27 F27 F27 F27 F27 F27 F27 F27 F27 F27 F27 F27 F27 F27 F27 F27 F27 F27 F27 F27 F27 F27 F7 F7 F7 F7 F7 F7 F7 F7 F7 F7 F7 F7 7 7 7 7 7 7 7 7 7 7 7 7 <47 <47 <47 <47 <47 <47 <47 <47 <47 <47 <47 <47 <47 <47 <47 <47 <47 <47 <47 <47 <47 <47 <47 <47 <47 <47 <47 <47 <47 <47 <47 <47 <47 <47 <47 <47 <47 <47 <47 <47 <47 <47 <47 <47 <47 <47 <47 <47 47 47 47 47 47 47 47 47 47 47 47 47 F47 F47 F47 F47 F47 F47 F47 F47 F47 F47 F47 F47 F47 F47 F47 F47 F47 F47 F47 F47 F47 F47 F47 F47 F47 F47 F47 F47 F47 F47 F47 F47 F47 F47 F47 F47 F7 F7 F7 F7 F7 F7 F7 F7 F7 F7 F7 F7 7 7 7 7 7 7 7 7 7 7 7 7 >27 >27 >27 >27 >27 >27 >27 >27 >27 >27 >27 >27 >27 >27 >27 >27 >27 >27 >27 >27 >27 >27 >27 >27 >27 >27 >27 >27 >27 >27 >27 >27 >27 >27 >27 >27 >27 >27 >27 >27 >27 >27 >27 >27 >27 >27 >27 >27 27 27 27 27 27 27 27 27 27 27 27 27 F27 F27 F27 F27 F27 F27 F27 F27 F27 F27 F27 F27 F27 F27 F27 F27 F27 F27 F27 F27 F27 F27 F27 F27 F27 F27 F27 F27 F27 F27 F27 F27 F27 F27 F27 F27 F7 F7 F7 F7 F7 F7 F7 F7 F7 F7 F7 F7 7 7 7 7 7 7 7 7 7 7 7 7 @70 @70 @70 @70 @70 @70 @70 @70 @70 @70 @70 @70 @70 @70 @70 @70 @70 @70 @70 @70 @70 @70 @70 @70 @70 @70 @70 @70 @70 @70 @70 @70 @70 @70 @70 @70 @70 @70 @70 @70 @70 @70 @70 @70 @70 @70 @70 @70 0 0 0 0 0 0 0 0 0 0 0 0 F0 F0 F0 F0 F0 F0 F0 F0 F0 F0 F0 F0 F0 F0 F0 F0 F0 F0 F0 F0 F0 F0 F0 F0 F0 F0 F0 F0 F0 F0 F0 F0 F0 F0 F0 F0 F F F F F F F F F F F F             D5 D5 D5 D5 D5 D5 D5 D5 D5 D5 D5 D5 D5 D5 D5 D5 D5 D5 D5 D5 D5 D5 D5 D5 D5 D5 D5 D5 D5 D5 D5 D5 D5 D5 D5 D5 D5 D5 D5 D5 D5 D5 D5 D5 D5 D5 D5 D5 5 5 5 5 5 5 5 5 5 5 5 5 H5 H5 H5 H5 H5 H5 H5 H5 H5 H5 H5 H5 H5 H5 H5 H5 H5 H5 H5 H5 H5 H5 H5 H5 H5 H5 H5 H5 H5 H5 H5 H5 H5 H5 H5 H5 H5 H5 H5 H5 H5 H5 H5 H5 H5 H5 H5 H5 5 5 5 5 5 5 5 5 5 5 5 5 A58 A58 A58 A58 A58 A58 A58 A58 A58 A58 A58 A58 A58 A58 A58 A58 A58 A58 A58 A58 A58 A58 A58 A58 A58 A58 A58 A58 A58 A58 A58 A58 A58 A58 A58 A58 A58 A58 A58 A58 A58 A58 A58 A58 A58 A58 A58 A58 58 58 58 58 58 58 58 58 58 58 58 58 H58 H58 H58 H58 H58 H58 H58 H58 H58 H58 H58 H58 H8 H8 H8 H8 H8 H8 H8 H8 H8 H8 H8 H8 H8 H8 H8 H8 H8 H8 H8 H8 H8 H8 H8 H8 H H H H H H H H H H H H             @7 @7 @7 @7 @7 @7 @7 @7 @7 @7 @7 @7 @7 @7 @7 @7 @7 @7 @7 @7 @7 @7 @7 @7 @7 @7 @7 @7 @7 @7 @7 @7 @7 @7 @7 @7 @7 @7 @7 @7 @7 @7 @7 @7 @7 @7 @7 @7 7 7 7 7 7 7 7 7 7 7 7 7 F7 F7 F7 F7 F7 F7 F7 F7 F7 F7 F7 F7 F7 F7 F7 F7 F7 F7 F7 F7 F7 F7 F7 F7 F7 F7 F7 F7 F7 F7 F7 F7 F7 F7 F7 F7 F F F F F F F F F F F F             D5) D5) D5) D5) D5) D5) D5) D5) D5) D5) D5) D5) D5) D5) D5) D5) D5) D5) D5) D5) D5) D5) D5) D5) D5) D5) D5) D5) D5) D5) D5) D5) D5) D5) D5) D5) D5) D5) D5) D5) D5) D5) D5) D5) D5) D5) D5) D5) 5) 5) 5) 5) 5) 5) 5) 5) 5) 5) 5) 5) H5) H5) H5) H5) H5) H5) H5) H5) H5) H5) H5) H5) H5) H5) H5) H5) H5) H5) H5) H5) H5) H5) H5) H5) H5) H5) H5) H5) H5) H5) H5) H5) H5) H5) H5) H5) H) H) H) H) H) H) H) H) H) H) H) H) ) ) ) ) ) ) ) ) ) ) ) ) A)8 A)8 A)8 A)8 A)8 A)8 A)8 A)8 A)8 A)8 A)8 A)8 A)8 A)8 A)8 A)8 A)8 A)8 A)8 A)8 A)8 A)8 A)8 A)8 A)8 A)8 A)8 A)8 A)8 A)8 A)8 A)8 A)8 A)8 A)8 A)8 A)8 A)8 A)8 A)8 A)8 A)8 A)8 A)8 A)8 A)8 A)8 A)8 )8 )8 )8 )8 )8 )8 )8 )8 )8 )8 )8 )8 H)8 H)8 H)8 H)8 H)8 H)8 H)8 H)8 H)8 H)8 H)8 H)8 H8 H8 H8 H8 H8 H8 H8 H8 H8 H8 H8 H8 H8 H8 H8 H8 H8 H8 H8 H8 H8 H8 H8 H8 H H H H H H H H H H H H             @7 @7 @7 @7 @7 @7 @7 @7 @7 @7 @7 @7 @7 @7 @7 @7 @7 @7 @7 @7 @7 @7 @7 @7 @7 @7 @7 @7 @7 @7 @7 @7 @7 @7 @7 @7 @7 @7 @7 @7 @7 @7 @7 @7 @7 @7 @7 @7 7 7 7 7 7 7 7 7 7 7 7 7 F7 F7 F7 F7 F7 F7 F7 F7 F7 F7 F7 F7 F7 F7 F7 F7 F7 F7 F7 F7 F7 F7 F7 F7 F7 F7 F7 F7 F7 F7 F7 F7 F7 F7 F7 F7 F F F F F F F F F F F F             D5 D5 D5 D5 D5 D5 D5 D5 D5 D5 D5 D5 D5 D5 D5 D5 D5 D5 D5 D5 D5 D5 D5 D5 D5 D5 D5 D5 D5 D5 D5 D5 D5 D5 D5 D5 D5 D5 D5 D5 D5 D5 D5 D5 D5 D5 D5 D5 5 5 5 5 5 5 5 5 5 5 5 5 A5 A5 A5 A5 A5 A5 A5 A5 A5 A5 A5 A5 A5 A5 A5 A5 A5 A5 A5 A5 A5 A5 A5 A5 A5 A5 A5 A5 A5 A5 A5 A5 A5 A5 A5 A5 A5 A5 A5 A5 A5 A5 A5 A5 A5 A5 A5 A5 5 5 5 5 5 5 5 5 5 5 5 5 >.5 >.5 >.5 >.5 >.5 >.5 >.5 >.5 >.5 >.5 >.5 >.5 >.5 >.5 >.5 >.5 >.5 >.5 >.5 >.5 >.5 >.5 >.5 >.5 >.5 >.5 >.5 >.5 >.5 >.5 >.5 >.5 >.5 >.5 >.5 >.5 >.5 >.5 >.5 >.5 >.5 >.5 >.5 >.5 >.5 >.5 >.5 >.5 .5 .5 .5 .5 .5 .5 .5 .5 .5 .5 .5 .5 D.5 D.5 D.5 D.5 D.5 D.5 D.5 D.5 D.5 D.5 D.5 D.5 D.5 D.5 D.5 D.5 D.5 D.5 D.5 D.5 D.5 D.5 D.5 D.5 D.5 D.5 D.5 D.5 D.5 D.5 D.5 D.5 D.5 D.5 D.5 D.5 D5 D5 D5 D5 D5 D5 D5 D5 D5 D5 D5 D5 5 5 5 5 5 5 5 5 5 5 5 5 <05 <05 <05 <05 <05 <05 <05 <05 <05 <05 <05 <05 <05 <05 <05 <05 <05 <05 <05 <05 <05 <05 <05 <05 <05 <05 <05 <05 <05 <05 <05 <05 <05 <05 <05 <05 <05 <05 <05 <05 <05 <05 <05 <05 <05 <05 <05 <05 05 05 05 05 05 05 05 05 05 05 05 05 D05 D05 D05 D05 D05 D05 D05 D05 D05 D05 D05 D05 D05 D05 D05 D05 D05 D05 D05 D05 D05 D05 D05 D05 D05 D05 D05 D05 D05 D05 D05 D05 D05 D05 D05 D05 D5 D5 D5 D5 D5 D5 D5 D5 D5 D5 D5 D5 5 5 5 5 5 5 5 5 5 5 5 5 :25 :25 :25 :25 :25 :25 :25 :25 :25 :25 :25 :25 :25 :25 :25 :25 :25 :25 :25 :25 :25 :25 :25 :25 :25 :25 :25 :25 :25 :25 :25 :25 :25 :25 :25 :25 :25 :25 :25 :25 :25 :25 :25 :25 :25 :25 :25 :25 25 25 25 25 25 25 25 25 25 25 25 25 D25 D25 D25 D25 D25 D25 D25 D25 D25 D25 D25 D25 D25 D25 D25 D25 D25 D25 D25 D25 D25 D25 D25 D25 D25 D25 D25 D25 D25 D25 D25 D25 D25 D25 D25 D25 D5 D5 D5 D5 D5 D5 D5 D5 D5 D5 D5 D5 5 5 5 5 5 5 5 5 5 5 5 5 <05 <05 <05 <05 <05 <05 <05 <05 <05 <05 <05 <05 <05 <05 <05 <05 <05 <05 <05 <05 <05 <05 <05 <05 <05 <05 <05 <05 <05 <05 <05 <05 <05 <05 <05 <05 <05 <05 <05 <05 <05 <05 <05 <05 <05 <05 <05 <05 05 05 05 05 05 05 05 05 05 05 05 05 D05 D05 D05 D05 D05 D05 D05 D05 D05 D05 D05 D05 D05 D05 D05 D05 D05 D05 D05 D05 D05 D05 D05 D05 D05 D05 D05 D05 D05 D05 D05 D05 D05 D05 D05 D05 D5 D5 D5 D5 D5 D5 D5 D5 D5 D5 D5 D5 5 5 5 5 5 5 5 5 5 5 5 5 >5. >5. >5. >5. >5. >5. >5. >5. >5. >5. >5. >5. >5. >5. >5. >5. >5. >5. >5. >5. >5. >5. >5. >5. >5. >5. >5. >5. >5. >5. >5. >5. >5. >5. >5. >5. >5. >5. >5. >5. >5. >5. >5. >5. >5. >5. >5. >5. . . . . . . . . . . . . D. D. D. D. D. D. D. D. D. D. D. D. D. D. D. D. D. D. D. D. D. D. D. D. D. D. D. D. D. D. D. D. D. D. D. D. D D D D D D D D D D D D             C33 C33 C33 C33 C33 C33 C33 C33 C33 C33 C33 C33 C33 C33 C33 C33 C33 C33 C33 C33 C33 C33 C33 C33 C33 C33 C33 C33 C33 C33 C33 C33 C33 C33 C33 C33 C33 C33 C33 C33 C33 C33 C33 C33 C33 C33 C33 C33 C3 C3 C3 C3 C3 C3 C3 C3 C3 C3 C3 C3 C35 C35 C35 C35 C35 C35 C35 C35 C35 C35 C35 C35 C35 C35 C35 C35 C35 C35 C35 C35 C35 C35 C35 C35 C35 C35 C35 C35 C35 C35 35 35 35 35 35 35 5 5 5 5 5 5 5 5 5 5 5 5             R7 R7 R7 R7 R7 R7 R7 R7 R7 R7 R7 R7 R7 R7 R7 R7 R7 R7 R7 R7 R7 R7 R7 R7 R7 R7 R7 R7 R7 R7 R7 R7 R7 R7 R7 R7 R7 R7 R7 R7 R7 R7 R7 R7 R7 R7 R7 R7 R R R R R R R R R R R R R3 R3 R3 R3 R3 R3 R3 R3 R3 R3 R3 R3 R3 R3 R3 R3 R3 R3 R3 R3 R3 R3 R3 R3 R3 R3 R3 R3 R3 R3 R3 R3 R3 R3 R3 R3 3 3 3 3 3 3 3 3 3 3 3 3             R2 R2 R2 R2 R2 R2 R2 R2 R2 R2 R2 R2 R2 R2 R2 R2 R2 R2 R2 R2 R2 R2 R2 R2 R2 R2 R2 R2 R2 R2 R2 R2 R2 R2 R2 R2 R2 R2 R2 R2 R2 R2 R2 R2 R2 R2 R2 R2 R R R R R R R R R R R R R3 R3 R3 R3 R3 R3 R3 R3 R3 R3 R3 R3 R3 R3 R3 R3 R3 R3 R3 R3 R3 R3 R3 R3 R3 R3 R3 R3 R3 R3 R3 R3 R3 R3 R3 R3 3 3 3 3 3 3 3 3 3 3 3 3             O. O. O. O. O. O. O. O. O. O. O. O. O. O. O. O. O. O. O. O. O. O. O. O. O. O. O. O. O. O. O. O. O. O. O. O. O. O. O. O. O. O. O. O. O. O. O. O. O O O O O O O O O O O O O3 O3 O3 O3 O3 O3 O3 O3 O3 O3 O3 O3 O3 O3 O3 O3 O3 O3 O3 O3 O3 O3 O3 O3 O3 O3 O3 O3 O3 O3 3 3 3 3 3 3 3 3 3 3 3 3 3 3 3 3 3 3             OK7 OK7 OK7 OK7 OK7 OK7 OK7 OK7 OK7 OK7 OK7 OK7 OK7 OK7 OK7 OK7 OK7 OK7 OK7 OK7 OK7 OK7 OK7 OK7 OK7 OK7 OK7 OK7 OK7 OK7 OK7 OK7 OK7 OK7 OK7 OK7 OK7 OK7 OK7 OK7 OK7 OK7 OK7 OK7 OK7 OK7 OK7 OK7 OK OK OK OK OK OK OK OK OK OK OK OK OK3 OK3 OK3 OK3 OK3 OK3 OK3 OK3 OK3 OK3 OK3 OK3 OK3 OK3 OK3 OK3 OK3 OK3 OK3 OK3 OK3 OK3 OK3 OK3 OK3 OK3 OK3 OK3 OK3 OK3 OK3 OK3 OK3 OK3 OK3 OK3 3 3 3 3 3 3 3 3 3 3 3 3             OK9 OK9 OK9 OK9 OK9 OK9 OK9 OK9 OK9 OK9 OK9 OK9 OK9 OK9 OK9 OK9 OK9 OK9 OK9 OK9 OK9 OK9 OK9 OK9 OK9 OK9 OK9 OK9 OK9 OK9 OK9 OK9 OK9 OK9 OK9 OK9 OK9 OK9 OK9 OK9 OK9 OK9 OK9 OK9 OK9 OK9 OK9 OK9 OK OK OK OK OK OK OK OK OK OK OK OK OK3 OK3 OK3 OK3 OK3 OK3 OK3 OK3 OK3 OK3 OK3 OK3 OK3 OK3 OK3 OK3 OK3 OK3 OK3 OK3 OK3 OK3 OK3 OK3 OK3 OK3 OK3 OK3 OK3 OK3 OK3 OK3 OK3 OK3 OK3 OK3 3 3 3 3 3 3 3 3 3 3 3 3             JM: JM: JM: JM: JM: JM: JM: JM: JM: JM: JM: JM: JM: JM: JM: JM: JM: JM: JM: JM: JM: JM: JM: JM: JM: JM: JM: JM: JM: JM: JM: JM: JM: JM: JM: JM: JM: JM: JM: JM: JM: JM: JM: JM: JM: JM: JM: JM: : : : : : : : : : : : : M: M: M: M: M: M: M: M: M: M: M: M: M: M: M: M: M: M: M: M: M: M: M: M: M: M: M: M: M: M: M: M: M: M: M: M: M: M: M: M: M: M: M: M: M: M: M: M: : : : : : : : : : : : : F:> F:> F:> F:> F:> F:> F:> F:> F:> F:> F:> F:> F:> F:> F:> F:> F:> F:> F:> F:> F:> F:> F:> F:> F:> F:> F:> F:> F:> F:> F:> F:> F:> F:> F:> F:> F:> F:> F:> F:> F:> F:> F:> F:> F:> F:> F:> F:> :> :> :> :> :> :> :> :> :> :> :> :> M:> M:> M:> M:> M:> M:> M:> M:> M:> M:> M:> M:> M> M> M> M> M> M> M> M> M> M> M> M> M> M> M> M> M> M> M> M> M> M> M> M> M M M M M M M M M M M M             E< E< E< E< E< E< E< E< E< E< E< E< E< E< E< E< E< E< E< E< E< E< E< E< E< E< E< E< E< E< E< E< E< E< E< E< E< E< E< E< E< E< E< E< E< E< E< E< < < < < < < < < < < < < K< K< K< K< K< K< K< K< K< K< K< K< K< K< K< K< K< K< K< K< K< K< K< K< K< K< K< K< K< K< K< K< K< K< K< K< K K K K K K K K K K K K             J:. J:. J:. J:. J:. J:. J:. J:. J:. J:. J:. J:. J:. J:. J:. J:. J:. J:. J:. J:. J:. J:. J:. J:. J:. J:. J:. J:. J:. J:. J:. J:. J:. J:. J:. J:. J:. J:. J:. J:. J:. J:. J:. J:. J:. J:. J:. J:. :. :. :. :. :. :. :. :. :. :. :. :. M:. M:. M:. M:. M:. M:. M:. M:. M:. M:. M:. M:. M:. M:. M:. M:. M:. M:. M:. M:. M:. M:. M:. M:. M:. M:. M:. M:. M:. M:. M:. M:. M:. M:. M:. M:. M. M. M. M. M. M. M. M. M. M. M. M. . . . . . . . . . . . . F.> F.> F.> F.> F.> F.> F.> F.> F.> F.> F.> F.> F.> F.> F.> F.> F.> F.> F.> F.> F.> F.> F.> F.> F.> F.> F.> F.> F.> F.> F.> F.> F.> F.> F.> F.> F.> F.> F.> F.> F.> F.> F.> F.> F.> F.> F.> F.> .> .> .> .> .> .> .> .> .> .> .> .> M.> M.> M.> M.> M.> M.> M.> M.> M.> M.> M.> M.> M> M> M> M> M> M> M> M> M> M> M> M> M> M> M> M> M> M> M> M> M> M> M> M> M M M M M M M M M M M M             E< E< E< E< E< E< E< E< E< E< E< E< E< E< E< E< E< E< E< E< E< E< E< E< E< E< E< E< E< E< E< E< E< E< E< E< E< E< E< E< E< E< E< E< E< E< E< E< < < < < < < < < < < < < K< K< K< K< K< K< K< K< K< K< K< K< K< K< K< K< K< K< K< K< K< K< K< K< K< K< K< K< K< K< K< K< K< K< K< K< K K K K K K K K K K K K             J: J: J: J: J: J: J: J: J: J: J: J: J: J: J: J: J: J: J: J: J: J: J: J: J: J: J: J: J: J: J: J: J: J: J: J: J: J: J: J: J: J: J: J: J: J: J: J: : : : : : : : : : : : : F: F: F: F: F: F: F: F: F: F: F: F: F: F: F: F: F: F: F: F: F: F: F: F: F: F: F: F: F: F: F: F: F: F: F: F: F: F: F: F: F: F: F: F: F: F: F: F: : : : : : : : : : : : : C3: C3: C3: C3: C3: C3: C3: C3: C3: C3: C3: C3: C3: C3: C3: C3: C3: C3: C3: C3: C3: C3: C3: C3: C3: C3: C3: C3: C3: C3: C3: C3: C3: C3: C3: C3: C3: C3: C3: C3: C3: C3: C3: C3: C3: C3: C3: C3: 3: 3: 3: 3: 3: 3: 3: 3: 3: 3: 3: 3: I3: I3: I3: I3: I3: I3: I3: I3: I3: I3: I3: I3: I3: I3: I3: I3: I3: I3: I3: I3: I3: I3: I3: I3: I3: I3: I3: I3: I3: I3: I3: I3: I3: I3: I3: I3: I: I: I: I: I: I: I: I: I: I: I: I: : : : : : : : : : : : : A5: A5: A5: A5: A5: A5: A5: A5: A5: A5: A5: A5: A5: A5: A5: A5: A5: A5: A5: A5: A5: A5: A5: A5: A5: A5: A5: A5: A5: A5: A5: A5: A5: A5: A5: A5: A5: A5: A5: A5: A5: A5: A5: A5: A5: A5: A5: A5: 5: 5: 5: 5: 5: 5: 5: 5: 5: 5: 5: 5: I5: I5: I5: I5: I5: I5: I5: I5: I5: I5: I5: I5: I5: I5: I5: I5: I5: I5: I5: I5: I5: I5: I5: I5: I5: I5: I5: I5: I5: I5: I5: I5: I5: I5: I5: I5: I: I: I: I: I: I: I: I: I: I: I: I: : : : : : : : : : : : : ?7: ?7: ?7: ?7: ?7: ?7: ?7: ?7: ?7: ?7: ?7: ?7: ?7: ?7: ?7: ?7: ?7: ?7: ?7: ?7: ?7: ?7: ?7: ?7: ?7: ?7: ?7: ?7: ?7: ?7: ?7: ?7: ?7: ?7: ?7: ?7: ?7: ?7: ?7: ?7: ?7: ?7: ?7: ?7: ?7: ?7: ?7: ?7: 7: 7: 7: 7: 7: 7: 7: 7: 7: 7: 7: 7: I7: I7: I7: I7: I7: I7: I7: I7: I7: I7: I7: I7: I7: I7: I7: I7: I7: I7: I7: I7: I7: I7: I7: I7: I7: I7: I7: I7: I7: I7: I7: I7: I7: I7: I7: I7: I: I: I: I: I: I: I: I: I: I: I: I: : : : : : : : : : : : : A5: A5: A5: A5: A5: A5: A5: A5: A5: A5: A5: A5: A5: A5: A5: A5: A5: A5: A5: A5: A5: A5: A5: A5: A5: A5: A5: A5: A5: A5: A5: A5: A5: A5: A5: A5: A5: A5: A5: A5: A5: A5: A5: A5: A5: A5: A5: A5: 5: 5: 5: 5: 5: 5: 5: 5: 5: 5: 5: 5: I5: I5: I5: I5: I5: I5: I5: I5: I5: I5: I5: I5: I5: I5: I5: I5: I5: I5: I5: I5: I5: I5: I5: I5: I5: I5: I5: I5: I5: I5: I5: I5: I5: I5: I5: I5: I: I: I: I: I: I: I: I: I: I: I: I: : : : : : : : : : : : : C:3 C:3 C:3 C:3 C:3 C:3 C:3 C:3 C:3 C:3 C:3 C:3 C:3 C:3 C:3 C:3 C:3 C:3 C:3 C:3 C:3 C:3 C:3 C:3 C:3 C:3 C:3 C:3 C:3 C:3 C:3 C:3 C:3 C:3 C:3 C:3 C:3 C:3 C:3 C:3 C:3 C:3 C:3 C:3 C:3 C:3 C:3 C:3 3 3 3 3 3 3 3 3 3 3 3 3 I3 I3 I3 I3 I3 I3 I3 I3 I3 I3 I3 I3 I3 I3 I3 I3 I3 I3 I3 I3 I3 I3 I3 I3 I3 I3 I3 I3 I3 I3 I3 I3 I3 I3 I3 I3 I I I I I I I I I I I I             H8 H8 H8 H8 H8 H8 H8 H8 H8 H8 H8 H8 H8 H8 H8 H8 H8 H8 H8 H8 H8 H8 H8 H8 H8 H8 H8 H8 H8 H8 H8 H8 H8 H8 H8 H8 H8 H8 H8 H8 H8 H8 H8 H8 H8 H8 H8 H8 8 8 8 8 8 8 8 8 8 8 8 8 K8 K8 K8 K8 K8 K8 K8 K8 K8 K8 K8 K8 K8 K8 K8 K8 K8 K8 K8 K8 K8 K8 K8 K8 K8 K8 K8 K8 K8 K8 K8 K8 K8 K8 K8 K8 K8 K8 K8 K8 K8 K8 K8 K8 K8 K8 K8 K8 8 8 8 8 8 8 8 8 8 8 8 8 D8< D8< D8< D8< D8< D8< D8< D8< D8< D8< D8< D8< D8< D8< D8< D8< D8< D8< D8< D8< D8< D8< D8< D8< D8< D8< D8< D8< D8< D8< D8< D8< D8< D8< D8< D8< D8< D8< D8< D8< D8< D8< D8< D8< D8< D8< D8< D8< 8< 8< 8< 8< 8< 8< 8< 8< 8< 8< 8< 8< K8< K8< K8< K8< K8< K8< K8< K8< K8< K8< K8< K8< K< K< K< K< K< K< K< K< K< K< K< K< K< K< K< K< K< K< K< K< K< K< K< K< K K K K K K K K K K K K             C: C: C: C: C: C: C: C: C: C: C: C: C: C: C: C: C: C: C: C: C: C: C: C: C: C: C: C: C: C: C: C: C: C: C: C: C: C: C: C: C: C: C: C: C: C: C: C: : : : : : : : : : : : : I: I: I: I: I: I: I: I: I: I: I: I: I: I: I: I: I: I: I: I: I: I: I: I: I: I: I: I: I: I: I: I: I: I: I: I: I I I I I I I I I I I I             H8, H8, H8, H8, H8, H8, H8, H8, H8, H8, H8, H8, H8, H8, H8, H8, H8, H8, H8, H8, H8, H8, H8, H8, H8, H8, H8, H8, H8, H8, H8, H8, H8, H8, H8, H8, H8, H8, H8, H8, H8, H8, H8, H8, H8, H8, H8, H8, 8, 8, 8, 8, 8, 8, 8, 8, 8, 8, 8, 8, K8, K8, K8, K8, K8, K8, K8, K8, K8, K8, K8, K8, K8, K8, K8, K8, K8, K8, K8, K8, K8, K8, K8, K8, K8, K8, K8, K8, K8, K8, K8, K8, K8, K8, K8, K8, K, K, K, K, K, K, K, K, K, K, K, K, , , , , , , , , , , , , D,< D,< D,< D,< D,< D,< D,< D,< D,< D,< D,< D,< D,< D,< D,< D,< D,< D,< D,< D,< D,< D,< D,< D,< D,< D,< D,< D,< D,< D,< D,< D,< D,< D,< D,< D,< D,< D,< D,< D,< D,< D,< D,< D,< D,< D,< D,< D,< ,< ,< ,< ,< ,< ,< ,< ,< ,< ,< ,< ,< K,< K,< K,< K,< K,< K,< K,< K,< K,< K,< K,< K,< K< K< K< K< K< K< K< K< K< K< K< K< K< K< K< K< K< K< K< K< K< K< K< K< K K K K K K K K K K K K             C: C: C: C: C: C: C: C: C: C: C: C: C: C: C: C: C: C: C: C: C: C: C: C: C: C: C: C: C: C: C: C: C: C: C: C: C: C: C: C: C: C: C: C: C: C: C: C: : : : : : : : : : : : : I: I: I: I: I: I: I: I: I: I: I: I: I: I: I: I: I: I: I: I: I: I: I: I: I: I: I: I: I: I: I: I: I: I: I: I: I I I I I I I I I I I I             H8 H8 H8 H8 H8 H8 H8 H8 H8 H8 H8 H8 H8 H8 H8 H8 H8 H8 H8 H8 H8 H8 H8 H8 H8 H8 H8 H8 H8 H8 H8 H8 H8 H8 H8 H8 H8 H8 H8 H8 H8 H8 H8 H8 H8 H8 H8 H8 8 8 8 8 8 8 8 8 8 8 8 8 D8 D8 D8 D8 D8 D8 D8 D8 D8 D8 D8 D8 D8 D8 D8 D8 D8 D8 D8 D8 D8 D8 D8 D8 D8 D8 D8 D8 D8 D8 D8 D8 D8 D8 D8 D8 D8 D8 D8 D8 D8 D8 D8 D8 D8 D8 D8 D8 8 8 8 8 8 8 8 8 8 8 8 8 A28 A28 A28 A28 A28 A28 A28 A28 A28 A28 A28 A28 A28 A28 A28 A28 A28 A28 A28 A28 A28 A28 A28 A28 A28 A28 A28 A28 A28 A28 A28 A28 A28 A28 A28 A28 A28 A28 A28 A28 A28 A28 A28 A28 A28 A28 A28 A28 28 28 28 28 28 28 28 28 28 28 28 28 H28 H28 H28 H28 H28 H28 H28 H28 H28 H28 H28 H28 H28 H28 H28 H28 H28 H28 H28 H28 H28 H28 H28 H28 H28 H28 H28 H28 H28 H28 H28 H28 H28 H28 H28 H28 H8 H8 H8 H8 H8 H8 H8 H8 H8 H8 H8 H8 8 8 8 8 8 8 8 8 8 8 8 8 ?38 ?38 ?38 ?38 ?38 ?38 ?38 ?38 ?38 ?38 ?38 ?38 ?38 ?38 ?38 ?38 ?38 ?38 ?38 ?38 ?38 ?38 ?38 ?38 ?38 ?38 ?38 ?38 ?38 ?38 ?38 ?38 ?38 ?38 ?38 ?38 ?38 ?38 ?38 ?38 ?38 ?38 ?38 ?38 ?38 ?38 ?38 ?38 38 38 38 38 38 38 38 38 38 38 38 38 H38 H38 H38 H38 H38 H38 H38 H38 H38 H38 H38 H38 H38 H38 H38 H38 H38 H38 H38 H38 H38 H38 H38 H38 H38 H38 H38 H38 H38 H38 H38 H38 H38 H38 H38 H38 H8 H8 H8 H8 H8 H8 H8 H8 H8 H8 H8 H8 8 8 8 8 8 8 8 8 8 8 8 8 >58 >58 >58 >58 >58 >58 >58 >58 >58 >58 >58 >58 >58 >58 >58 >58 >58 >58 >58 >58 >58 >58 >58 >58 >58 >58 >58 >58 >58 >58 >58 >58 >58 >58 >58 >58 >58 >58 >58 >58 >58 >58 >58 >58 >58 >58 >58 >58 58 58 58 58 58 58 58 58 58 58 58 58 H58 H58 H58 H58 H58 H58 H58 H58 H58 H58 H58 H58 H58 H58 H58 H58 H58 H58 H58 H58 H58 H58 H58 H58 H58 H58 H58 H58 H58 H58 H58 H58 H58 H58 H58 H58 H8 H8 H8 H8 H8 H8 H8 H8 H8 H8 H8 H8 8 8 8 8 8 8 8 8 8 8 8 8 ?38 ?38 ?38 ?38 ?38 ?38 ?38 ?38 ?38 ?38 ?38 ?38 ?38 ?38 ?38 ?38 ?38 ?38 ?38 ?38 ?38 ?38 ?38 ?38 ?38 ?38 ?38 ?38 ?38 ?38 ?38 ?38 ?38 ?38 ?38 ?38 ?38 ?38 ?38 ?38 ?38 ?38 ?38 ?38 ?38 ?38 ?38 ?38 38 38 38 38 38 38 38 38 38 38 38 38 H38 H38 H38 H38 H38 H38 H38 H38 H38 H38 H38 H38 H38 H38 H38 H38 H38 H38 H38 H38 H38 H38 H38 H38 H38 H38 H38 H38 H38 H38 H38 H38 H38 H38 H38 H38 H8 H8 H8 H8 H8 H8 H8 H8 H8 H8 H8 H8 8 8 8 8 8 8 8 8 8 8 8 8 A82 A82 A82 A82 A82 A82 A82 A82 A82 A82 A82 A82 A82 A82 A82 A82 A82 A82 A82 A82 A82 A82 A82 A82 A82 A82 A82 A82 A82 A82 A82 A82 A82 A82 A82 A82 A82 A82 A82 A82 A82 A82 A82 A82 A82 A82 A82 A82 2 2 2 2 2 2 2 2 2 2 2 2 H2 H2 H2 H2 H2 H2 H2 H2 H2 H2 H2 H2 H2 H2 H2 H2 H2 H2 H2 H2 H2 H2 H2 H2 H2 H2 H2 H2 H2 H2 H2 H2 H2 H2 H2 H2 H H H H H H H H H H H H             7G7 7G7 7G7 7G7 7G7 7G7 7G7 7G7 7G7 7G7 7G7 7G7 7G7 7G7 7G7 7G7 7G7 7G7 7G7 7G7 7G7 7G7 7G7 7G7 7G7 7G7 7G7 7G7 7G7 7G7 7G7 7G7 7G7 7G7 7G7 7G7 7G7 7G7 7G7 7G7 7G7 7G7 7G7 7G7 7G7 7G7 7G7 7G7 7G 7G 7G 7G 7G 7G 7G 7G 7G 7G 7G 7G 7G5 7G5 7G5 7G5 7G5 7G5 7G5 7G5 7G5 7G5 7G5 7G5 7G5 7G5 7G5 7G5 7G5 7G5 7G5 7G5 7G5 7G5 7G5 7G5 7G5 7G5 7G5 7G5 7G5 7G5 7G5 7G5 7G5 7G5 7G5 7G5 5 5 5 5 5 5 5 5 5 5 5 5             HC3 HC3 HC3 HC3 HC3 HC3 HC3 HC3 HC3 HC3 HC3 HC3 HC3 HC3 HC3 HC3 HC3 HC3 HC3 HC3 HC3 HC3 HC3 HC3 HC3 HC3 HC3 HC3 HC3 HC3 HC3 HC3 HC3 HC3 HC3 HC3 HC3 HC3 HC3 HC3 HC3 HC3 HC3 HC3 HC3 HC3 HC3 HC3 HC HC HC HC HC HC HC HC HC HC HC HC HC5 HC5 HC5 HC5 HC5 HC5 HC5 HC5 HC5 HC5 HC5 HC5 HC5 HC5 HC5 HC5 HC5 HC5 HC5 HC5 HC5 HC5 HC5 HC5 HC5 HC5 HC5 HC5 HC5 HC5 HC5 HC5 HC5 HC5 HC5 HC5 5 5 5 5 5 5 5 5 5 5 5 5             FA2 FA2 FA2 FA2 FA2 FA2 FA2 FA2 FA2 FA2 FA2 FA2 FA2 FA2 FA2 FA2 FA2 FA2 FA2 FA2 FA2 FA2 FA2 FA2 FA2 FA2 FA2 FA2 FA2 FA2 FA2 FA2 FA2 FA2 FA2 FA2 FA2 FA2 FA2 FA2 FA2 FA2 FA2 FA2 FA2 FA2 FA2 FA2 FA FA FA FA FA FA FA FA FA FA FA FA FA3 FA3 FA3 FA3 FA3 FA3 FA3 FA3 FA3 FA3 FA3 FA3 FA3 FA3 FA3 FA3 FA3 FA3 FA3 FA3 FA3 FA3 FA3 FA3 FA3 FA3 FA3 FA3 FA3 FA3 FA3 FA3 FA3 FA3 FA3 FA3 3 3 3 3 3 3 3 3 3 3 3 3             ?D0 ?D0 ?D0 ?D0 ?D0 ?D0 ?D0 ?D0 ?D0 ?D0 ?D0 ?D0 ?D0 ?D0 ?D0 ?D0 ?D0 ?D0 ?D0 ?D0 ?D0 ?D0 ?D0 ?D0 ?D0 ?D0 ?D0 ?D0 ?D0 ?D0 ?D0 ?D0 ?D0 ?D0 ?D0 ?D0 ?D0 ?D0 ?D0 ?D0 ?D0 ?D0 ?D0 ?D0 ?D0 ?D0 ?D0 ?D0 ?D ?D ?D ?D ?D ?D ?D ?D ?D ?D ?D ?D ?D3 ?D3 ?D3 ?D3 ?D3 ?D3 ?D3 ?D3 ?D3 ?D3 ?D3 ?D3 ?D3 ?D3 ?D3 ?D3 ?D3 ?D3 ?D3 ?D3 ?D3 ?D3 ?D3 ?D3 ?D3 ?D3 ?D3 ?D3 ?D3 ?D3 ?D3 ?D3 ?D3 ?D3 ?D3 ?D3 3 3 3 3 3 3 3 3 3 3 3 3             C>. C>. C>. C>. C>. C>. C>. C>. C>. C>. C>. C>. C>. C>. C>. C>. C>. C>. C>. C>. C>. C>. C>. C>. C>. C>. C>. C>. C>. C>. C>. C>. C>. C>. C>. C>. C>. C>. C>. C>. C>. C>. C>. C>. C>. C>. C>. C>. C> C> C> C> C> C> C> C> C> C> C> C> C>3 C>3 C>3 C>3 C>3 C>3 C>3 C>3 C>3 C>3 C>3 C>3 C>3 C>3 C>3 C>3 C>3 C>3 C>3 C>3 C>3 C>3 C>3 C>3 C>3 C>3 C>3 C>3 C>3 C>3 C>3 C>3 C>3 C>3 C>3 C>3 3 3 3 3 3 3 3 3 3 3 3 3             A<, A<, A<, A<, A<, A<, A<, A<, A<, A<, A<, A<, A<, A<, A<, A<, A<, A<, A<, A<, A<, A<, A<, A<, A<, A<, A<, A<, A<, A<, A<, A<, A<, A<, A<, A<, A<, A<, A<, A<, A<, A<, A<, A<, A<, A<, A<, A<, A< A< A< A< A< A< A< A< A< A< A< A< A<3 A<3 A<3 A<3 A<3 A<3 A<3 A<3 A<3 A<3 A<3 A<3 A<3 A<3 A<3 A<3 A<3 A<3 A<3 A<3 A<3 A<3 A<3 A<3 A<3 A<3 A<3 A<3 A<3 A<3 A<3 A<3 A<3 A<3 A<3 A<3 3 3 3 3 3 3 3 3 3 3 3 3             ?F:+ ?F:+ ?F:+ ?F:+ ?F:+ ?F:+ ?F:+ ?F:+ ?F:+ ?F:+ ?F:+ ?F:+ ?F:+ ?F:+ ?F:+ ?F:+ ?F:+ ?F:+ ?F:+ ?F:+ ?F:+ ?F:+ ?F:+ ?F:+ ?F:+ ?F:+ ?F:+ ?F:+ ?F:+ ?F:+ ?F:+ ?F:+ ?F:+ ?F:+ ?F:+ ?F:+ ?F:+ ?F:+ ?F:+ ?F:+ ?F:+ ?F:+ ?F:+ ?F:+ ?F:+ ?F:+ ?F:+ ?F:+ ?F: ?F: ?F: ?F: ?F: ?F: ?F: ?F: ?F: ?F: ?F: ?F: ?F:3 ?F:3 ?F:3 ?F:3 ?F:3 ?F:3 ?F:3 ?F:3 ?F:3 ?F:3 ?F:3 ?F:3 ?F:3 ?F:3 ?F:3 ?F:3 ?F:3 ?F:3 ?F:3 ?F:3 ?F:3 ?F:3 ?F:3 ?F:3 ?F:3 ?F:3 ?F:3 ?F:3 ?F:3 ?F:3 ?F:3 ?F:3 ?F:3 ?F:3 ?F:3 ?F:3 :3 :3 :3 :3 :3 :3 :3 :3 :3 :3 :3 :3 : : : : : : : : : : : : :>D) :>D) :>D) :>D) :>D) :>D) :>D) :>D) :>D) :>D) :>D) :>D) :>D) :>D) :>D) :>D) :>D) :>D) :>D) :>D) :>D) :>D) :>D) :>D) :>D) :>D) :>D) :>D) :>D) :>D) :>D) :>D) :>D) :>D) :>D) :>D) :>D) :>D) :>D) :>D) :>D) :>D) :>D) :>D) :>D) :>D) :>D) :>D) :>D :>D :>D :>D :>D :>D :>D :>D :>D :>D :>D :>D :>D3 :>D3 :>D3 :>D3 :>D3 :>D3 :>D3 :>D3 :>D3 :>D3 :>D3 :>D3 >D3 >D3 >D3 >D3 >D3 >D3 >D3 >D3 >D3 >D3 >D3 >D3 >D3 >D3 >D3 >D3 >D3 >D3 >D3 >D3 >D3 >D3 >D3 >D3 3 3 3 3 3 3 3 3 3 3 3 3             :C?' :C?' :C?' :C?' :C?' :C?' :C?' :C?' :C?' :C?' :C?' :C?' :C?' :C?' :C?' :C?' :C?' :C?' :C?' :C?' :C?' :C?' :C?' :C?' :C?' :C?' :C?' :C?' :C?' :C?' :C?' :C?' :C?' :C?' :C?' :C?' :C?' :C?' :C?' :C?' :C?' :C?' :C?' :C?' :C?' :C?' :C?' :C?' :C? :C? :C? :C? :C? :C? :C? :C? :C? :C? :C? :C? :C?3 :C?3 :C?3 :C?3 :C?3 :C?3 :C?3 :C?3 :C?3 :C?3 :C?3 :C?3 :C?3 :C?3 :C?3 :C?3 :C?3 :C?3 :C?3 :C?3 :C?3 :C?3 :C?3 :C?3 :C?3 :C?3 :C?3 :C?3 :C?3 :C?3 :C?3 :C?3 :C?3 :C?3 :C?3 :C?3 C?3 C?3 C?3 C?3 C?3 C?3 C?3 C?3 C?3 C?3 C?3 C?3 C? C? C? C? C? C? C? C? C? C? C? C? C?<, C?<, C?<, C?<, C?<, C?<, C?<, C?<, C?<, C?<, C?<, C?<, C?<, C?<, C?<, C?<, C?<, C?<, C?<, C?<, C?<, C?<, C?<, C?<, C?<, C?<, C?<, C?<, C?<, C?<, C?<, C?<, C?<, C?<, C?<, C?<, C?<, C?<, C?<, C?<, C?<, C?<, C?<, C?<, C?<, C?<, C?<, C?<, ?<, ?<, ?<, ?<, ?<, ?<, ?<, ?<, ?<, ?<, ?<, ?<, ?<H, ?<H, ?<H, ?<H, ?<H, ?<H, ?<H, ?<H, ?<H, ?<H, ?<H, ?<H, ?<H, ?<H, ?<H, ?<H, ?<H, ?<H, ?<H, ?<H, ?<H, ?<H, ?<H, ?<H, ?<H, ?<H, ?<H, ?<H, ?<H, ?<H, ?<H, ?<H, ?<H, ?<H, ?<H, ?<H, H H H H H H H H H H H H             C>. C>. C>. C>. C>. C>. C>. C>. C>. C>. C>. C>. C>. C>. C>. C>. C>. C>. C>. C>. C>. C>. C>. C>. >. >. >. >. >. >. A>. A>. A>. A>. A>. A>. A>. A>. A>. A>. A>. A>. A>. A>. A>. A>. A>. A>. A>. A>. A>. A>. A>. A>. >. >. >. >. >. >. C>. C>. C>. C>. C>. C>. C>. C>. C>. C>. C>. C>. C>. C>. C>. C>. C>. C>. C>. C>. C>. C>. C>. C>. >. >. >. >. >. >. A>. A>. A>. A>. A>. A>. A> A> A> A> A> A> A> A> A> A> A> A> A> A> A> A> A> A> A> A> A> A> A> A> A>" A>" A>" A>" A>" A>" A>" A>" A>" A>" A>" A>" A>" A>" A>" A>" A>" A>" A>" A>" A>" A>" A>" A>" A>" A>" A>" A>" A>" A>" A>" A>" A>" A>" A>" A>" A>" A>" A>" A>" A>" A>" A>" A>" A>" A>" A>" A>" A>" A>" A>" A>" A>" A>" A>" A>" A>" >" >" >" >?" >?" >?" >?" >?" >?" >?" >?" >?" >?" >?" >?" ?" ?" ?" ?" ?" ?" ?" ?" ?" ?" ?" ?" ?" ?" ?" ?" ?" ?" ?" ?" ?" ?" ?" ?" ? ? ? ? ? ? ? ? ? ? ? ?             ??C ??C ??C ??C ??C ??C ??C ??C ??C ??C ??C ??C ??C ??C ??C ??C ??C ??C ??C ??C ??C ??C ??C ??C ??C ??C ??C ??C ??C ??C ??C ??C ??C ??C ??C ??C ??C ??C ??C ??C ??C ??C ??C ??C ??C ??C ??C ??C ??C ??C ??C ??C ??C ??C ??C ??C ??C ??C ??C ??C ??C ??C ??C ??C ??C ??C ??C ??C ??C ??C ??C ??C ??C ??C ??C ??C ??C ??C ??C ??C ??C ??C ??C ??C ??C ??C ??C ??C ??C ??C ?C ?C ?C ?C ?C ?C C C C C C C C C C C C C C C C C C        F F F F F F F F F F F F F F F F F F F F F F F F F F F F F F F F F F F F F F F F F F F F F F F F F F F F F F F F F F F F FD FD FD FD FD FD FD FD FD FD FD FD FD FD FD FD FD FD FD FD FD FD FD FD FD FD FD FD FD FD D D D D D D D D D D D D D D D D D D             FC FC FC FC FC FC FC FC FC FC FC FC FC FC FC FC FC FC FC FC FC FC FC FC FC FC FC FC FC FC FC FC FC FC FC FC FC FC FC FC FC FC FC FC FC FC FC FC F F F F F F F F F F F F FA FA FA FA FA FA FA FA FA FA FA FA FA FA FA FA FA FA FA FA FA FA FA FA FA FA FA FA FA FA A A A A A A A A A A A A A A A A A A             H@ H@ H@ H@ H@ H@ H@ H@ H@ H@ H@ H@ H@ H@ H@ H@ H@ H@ H@ H@ H@ H@ H@ H@ @ @ @ @ @ @ F@ F@ F@ F@ F@ F@ F@ F@ F@ F@ F@ F@ F@ F@ F@ F@ F@ F@ F F F F F F       HA HA HA HA HA HA HA HA HA HA HA HA HA HA HA HA HA HA HA HA HA HA HA HA A A A A A A FA FA FA FA FA FA FA FA FA FA FA FA FA FA FA FA FA FA F F F F F F       HC HC HC HC HC HC HC HC HC HC HC HC HC HC HC HC HC HC HC HC HC HC HC HC C C C C C C FC FC FC FC FC FC FC FC FC FC FC FC FC FC FC FC FC FC F F F F F F       H@ H@ H@ H@ H@ H@ H@ H@ H@ H@ H@ H@ H@ H@ H@ H@ H@ H@ H@ H@ H@ H@ H@ H@ @ @ @ @ @ @ F@ F@ F@ F@ F@ F@ F@ F@ F@ F@ F@ F@ F@ F@ F@ F@ F@ F@ F F F F F F       H= H= H= H= H= H= H= H= H= H= H= H= H= H= H= H= H= H= H= H= H= H= H= H= = = = = = = F= F= F= F= F= F= F= F= F= F= F= F= F= F= F= F= F= F= F F F F F F       H@ H@ H@ H@ H@ H@ H@ H@ H@ H@ H@ H@ H@ H@ H@ H@ H@ H@ H@ H@ H@ H@ H@ H@ @ @ @ @ @ @ F@ F@ F@ F@ F@ F@ F@ F@ F@ F@ F@ F@ F@ F@ F@ F@ F@ F@ F F F F F F       H: H: H: H: H: H: H: H: H: H: H: H: H: H: H: H: H: H: H: H: H: H: H: H: : : : : : : F: F: F: F: F: F: F: F: F: F: F: F: F: F: F: F: F: F: F F F F F F       H< H< H< H< H< H< H< H< H< H< H< H< H< H< H< H< H< H< H< H< H< H< H< H< < < < < < < F< F< F< F< F< F< F< F< F< F< F< F< F< F< F< F< F< F< F F F F F F       H= H= H= H= H= H= H= H= H= H= H= H= H= H= H= H= H= H= H= H= H= H= H= H= = = = = = = F= F= F= F= F= F= F= F= F= F= F= F= F= F= F= F= F= F= F F F F F F       H: H: H: H: H: H: H: H: H: H: H: H: H: H: H: H: H: H: H: H: H: H: H: H: : : : : : : F: F: F: F: F: F: F: F: F: F: F: F: F: F: F: F: F: F: F F F F F F       H7 H7 H7 H7 H7 H7 H7 H7 H7 H7 H7 H7 H7 H7 H7 H7 H7 H7 H7 H7 H7 H7 H7 H7 7 7 7 7 7 7 F7 F7 F7 F7 F7 F7 F7 F7 F7 F7 F7 F7 F7 F7 F7 F7 F7 F7 F F F F F F       H: H: H: H: H: H: H: H: H: H: H: H: H: H: H: H: H: H: H: H: H: H: H: H: : : : : : : F: F: F: F: F: F: F: F: F: F: F: F: F: F: F: F: F: F: F F F F F F F F F F F F F4 F4 F4 F4 F4 F4 F4 F4 F4 F4 F4 F4 F4 F4 F4 F4 F4 F4 F4 F4 F4 F4 F4 F4 F4 F4 F4 F4 F4 F4 F4 F4 F4 F4 F4 F4 F4 F4 F4 F4 F4 F4 F4 F4 F4 F4 F4 F4             D5 D5 D5 D5 D5 D5 D5 D5 D5 D5 D5 D5 D5 D5 D5 D5 D5 D5 D5 D5 D5 D5 D5 D5 D5 D5 D5 D5 D5 D5 D5 D5 D5 D5 D5 D5 D5 D5 D5 D5 D5 D5 D5 D5 D5 D5 D5 D5             F7 F7 F7 F7 F7 F7 F7 F7 F7 F7 F7 F7 F7 F7 F7 F7 F7 F7 F7 F7 F7 F7 F7 F7 F7 F7 F7 F7 F7 F7 F7 F7 F7 F7 F7 F7 F7 F7 F7 F7 F7 F7 F7 F7 F7 F7 F7 F7             I4 I4 I4 I4 I4 I4 I4 I4 I4 I4 I4 I4 I4 I4 I4 I4 I4 I4 I4 I4 I4 I4 I4 I4 I4 I4 I4 I4 I4 I4 I4 I4 I4 I4 I4 I4 I4 I4 I4 I4 I4 I4 I4 I4 I4 I4 I4 I4             H0 H0 H0 H0 H0 H0 H0 H0 H0 H0 H0 H0 H0 H0 H0 H0 H0 H0 H0 H0 H0 H0 H0 H0 H0 H0 H0 H0 H0 H0 H0 H0 H0 H0 H0 H0 H0 H0 H0 H0 H0 H0 H0 H0 H0 H0 H0 H0             F4 F4 F4 F4 F4 F4 F4 F4 F4 F4 F4 F4 F4 F4 F4 F4 F4 F4 F4 F4 F4 F4 F4 F4 F4 F4 F4 F4 F4 F4 F4 F4 F4 F4 F4 F4 F4 F4 F4 F4 F4 F4 F4 F4 F4 F4 F4 F4             D) D) D) D) D) D) D) D) D) D) D) D) D) D) D) D) D) D) D) D) D) D) D) D) D) D) D) D) D) D) D) D) D) D) D) D) D) D) D) D) D) D) D) D) D) D) D) D) ) ) ) ) ) ) ) ) ) ) ) ) F) F) F) F) F) F) F) F) F) F) F) F) F) F) F) F) F) F) F) F) F) F) F) F) F) F) F) F) F) F) F) F) F) F) F) F) F F F F F F F F F F F F             D D D D D D D D D D D D D D D D D D D D D D D D D D D D D D D D D D D D D D D D D D D D D D D D D D D D D D D D D D D D DC DC DC DC DC DC DC DC DC DC DC DC DC DC DC DC DC DC DC DC DC DC DC DC DC DC DC DC DC DC DC DC DC DC DC DC C C C C C C C C C C C C             DA DA DA DA DA DA DA DA DA DA DA DA DA DA DA DA DA DA DA DA DA DA DA DA DA DA DA DA DA DA DA DA DA DA DA DA DA DA DA DA DA DA DA DA DA DA DA DA D D D D D D D D D D D D D? D? D? D? D? D? D? D? D? D? D? D? D? D? D? D? D? D? D? D? D? D? D? D? D? D? D? D? D? D? D? D? D? D? D? D? ? ? ? ? ? ? ? ? ? ? ? ?             F> F> F> F> F> F> F> F> F> F> F> F> F> F> F> F> F> F> F> F> F> F> F> F> > > > > > > D> D> D> D> D> D> D> D> D> D> D> D> D> D> D> D> D> D> D D D D D D       F? F? F? F? F? F? F? F? F? F? F? F? F? F? F? F? F? F? F? F? F? F? F? F? ? ? ? ? ? ? D? D? D? D? D? D? D? D? D? D? D? D? D? D? D? D? D? D? D D D D D D       FA FA FA FA FA FA FA FA FA FA FA FA FA FA FA FA FA FA FA FA FA FA FA FA A A A A A A DA DA DA DA DA DA DA DA DA DA DA DA DA DA DA DA DA DA D D D D D D       F> F> F> F> F> F> F> F> F> F> F> F> F> F> F> F> F> F> F> F> F> F> F> F> > > > > > > D> D> D> D> D> D> D> D> D> D> D> D> D> D> D> D> D> D> D D D D D D       F: F: F: F: F: F: F: F: F: F: F: F: F: F: F: F: F: F: F: F: F: F: F: F: : : : : : : D: D: D: D: D: D: D: D: D: D: D: D: D: D: D: D: D: D: D D D D D D       F> F> F> F> F> F> F> F> F> F> F> F> F> F> F> F> F> F> F> F> F> F> F> F> > > > > > > D> D> D> D> D> D> D> D> D> D> D> D> D> D> D> D> D> D> D D D D D D       F8 F8 F8 F8 F8 F8 F8 F8 F8 F8 F8 F8 F8 F8 F8 F8 F8 F8 F8 F8 F8 F8 F8 F8 8 8 8 8 8 8 D8 D8 D8 D8 D8 D8 D8 D8 D8 D8 D8 D8 D8 D8 D8 D8 D8 D8 D D D D D D       F: F: F: F: F: F: F: F: F: F: F: F: F: F: F: F: F: F: F: F: F: F: F: F: : : : : : : D: D: D: D: D: D: D: D: D: D: D: D: D: D: D: D: D: D: D D D D D D       F< F< F< F< F< F< F< F< F< F< F< F< F< F< F< F< F< F< F< F< F< F< F< F< < < < < < < D< D< D< D< D< D< D< D< D< D< D< D< D< D< D< D< D< D< D D D D D D       F8 F8 F8 F8 F8 F8 F8 F8 F8 F8 F8 F8 F8 F8 F8 F8 F8 F8 F8 F8 F8 F8 F8 F8 8 8 8 8 8 8 D8 D8 D8 D8 D8 D8 D8 D8 D8 D8 D8 D8 D8 D8 D8 D8 D8 D8 D D D D D D       F5 F5 F5 F5 F5 F5 F5 F5 F5 F5 F5 F5 F5 F5 F5 F5 F5 F5 F5 F5 F5 F5 F5 F5 5 5 5 5 5 5 D5 D5 D5 D5 D5 D5 D5 D5 D5 D5 D5 D5 D5 D5 D5 D5 D5 D5 D D D D D D       F8 F8 F8 F8 F8 F8 F8 F8 F8 F8 F8 F8 F8 F8 F8 F8 F8 F8 F8 F8 F8 F8 F8 F8 8 8 8 8 8 8 D8 D8 D8 D8 D8 D8 D8 D8 D8 D8 D8 D8 D8 D8 D8 D8 D8 D8 D D D D D D D D D D D D D2 D2 D2 D2 D2 D2 D2 D2 D2 D2 D2 D2 D2 D2 D2 D2 D2 D2 D2 D2 D2 D2 D2 D2 D2 D2 D2 D2 D2 D2 D2 D2 D2 D2 D2 D2 D2 D2 D2 D2 D2 D2 D2 D2 D2 D2 D2 D2             C3 C3 C3 C3 C3 C3 C3 C3 C3 C3 C3 C3 C3 C3 C3 C3 C3 C3 C3 C3 C3 C3 C3 C3 C3 C3 C3 C3 C3 C3 C3 C3 C3 C3 C3 C3 C3 C3 C3 C3 C3 C3 C3 C3 C3 C3 C3 C3             D5 D5 D5 D5 D5 D5 D5 D5 D5 D5 D5 D5 D5 D5 D5 D5 D5 D5 D5 D5 D5 D5 D5 D5 D5 D5 D5 D5 D5 D5 D5 D5 D5 D5 D5 D5 D5 D5 D5 D5 D5 D5 D5 D5 D5 D5 D5 D5             H2 H2 H2 H2 H2 H2 H2 H2 H2 H2 H2 H2 H2 H2 H2 H2 H2 H2 H2 H2 H2 H2 H2 H2 H2 H2 H2 H2 H2 H2 H2 H2 H2 H2 H2 H2 H2 H2 H2 H2 H2 H2 H2 H2 H2 H2 H2 H2             F. F. F. F. F. F. F. F. F. F. F. F. F. F. F. F. F. F. F. F. F. F. F. F. F. F. F. F. F. F. F. F. F. F. F. F. F. F. F. F. F. F. F. F. F. F. F. F.             D2 D2 D2 D2 D2 D2 D2 D2 D2 D2 D2 D2 D2 D2 D2 D2 D2 D2 D2 D2 D2 D2 D2 D2 D2 D2 D2 D2 D2 D2 D2 D2 D2 D2 D2 D2 D2 D2 D2 D2 D2 D2 D2 D2 D2 D2 D2 D2             C' C' C' C' C' C' C' C' C' C' C' C' C' C' C' C' C' C' C' C' C' C' C' C' C' C' C' C' C' C' C' C' C' C' C' C' C' C' C' C' C' C' C' C' C' C' C' C' ' ' ' ' ' ' ' ' ' ' ' ' E' E' E' E' E' E' E' E' E' E' E' E' E' E' E' E' E' E' E' E' E' E' E' E' ' ' ' ' ' ' G' G' G' G' G' G' G' G' G' G' G' G' G' G' G' G' G' G' G' G' G' G' G' G' ' ' ' ' ' ' H H H H H H H H H H H H H H H H H H H H H H H H H H H H H H H H H H H H H H H H H H H H H H H H H H H H H H H H H H H H HF HF HF HF HF HF HF HF HF HF HF HF HF HF HF HF HF HF HF HF HF HF HF HF HF HF HF HF HF HF F F F F F F F F F F F F F F F F F F             HE HE HE HE HE HE HE HE HE HE HE HE HE HE HE HE HE HE HE HE HE HE HE HE HE HE HE HE HE HE HE HE HE HE HE HE HE HE HE HE HE HE HE HE HE HE HE HE H H H H H H H H H H H H HC HC HC HC HC HC HC HC HC HC HC HC HC HC HC HC HC HC HC HC HC HC HC HC HC HC HC HC HC HC C C C C C C C C C C C C C C C C C C             JB JB JB JB JB JB JB JB JB JB JB JB JB JB JB JB JB JB JB JB JB JB JB JB B B B B B B HB HB HB HB HB HB HB HB HB HB HB HB HB HB HB HB HB HB H H H H H H       JC JC JC JC JC JC JC JC JC JC JC JC JC JC JC JC JC JC JC JC JC JC JC JC C C C C C C HC HC HC HC HC HC HC HC HC HC HC HC HC HC HC HC HC HC H H H H H H       JE JE JE JE JE JE JE JE JE JE JE JE JE JE JE JE JE JE JE JE JE JE JE JE E E E E E E HE HE HE HE HE HE HE HE HE HE HE HE HE HE HE HE HE HE H H H H H H       JB JB JB JB JB JB JB JB JB JB JB JB JB JB JB JB JB JB JB JB JB JB JB JB B B B B B B HB HB HB HB HB HB HB HB HB HB HB HB HB HB HB HB HB HB H H H H H H       J? J? J? J? J? J? J? J? J? J? J? J? J? J? J? J? J? J? J? J? J? J? J? J? ? ? ? ? ? ? H? H? H? H? H? H? H? H? H? H? H? H? H? H? H? H? H? H? H H H H H H       JB JB JB JB JB JB JB JB JB JB JB JB JB JB JB JB JB JB JB JB JB JB JB JB B B B B B B HB HB HB HB HB HB HB HB HB HB HB HB HB HB HB HB HB HB H H H H H H       J< J< J< J< J< J< J< J< J< J< J< J< J< J< J< J< J< J< J< J< J< J< J< J< < < < < < < H< H< H< H< H< H< H< H< H< H< H< H< H< H< H< H< H< H< H H H H H H       J> J> J> J> J> J> J> J> J> J> J> J> J> J> J> J> J> J> J> J> J> J> J> J> > > > > > > H> H> H> H> H> H> H> H> H> H> H> H> H> H> H> H> H> H> H H H H H H       J? J? J? J? J? J? J? J? J? J? J? J? J? J? J? J? J? J? J? J? J? J? J? J? ? ? ? ? ? ? H? H? H? H? H? H? H? H? H? H? H? H? H? H? H? H? H? H? H H H H H H       J< J< J< J< J< J< J< J< J< J< J< J< J< J< J< J< J< J< J< J< J< J< J< J< < < < < < < H< H< H< H< H< H< H< H< H< H< H< H< H< H< H< H< H< H< H H H H H H       J9 J9 J9 J9 J9 J9 J9 J9 J9 J9 J9 J9 J9 J9 J9 J9 J9 J9 J9 J9 J9 J9 J9 J9 9 9 9 9 9 9 H9 H9 H9 H9 H9 H9 H9 H9 H9 H9 H9 H9 H9 H9 H9 H9 H9 H9 H H H H H H       J< J< J< J< J< J< J< J< J< J< J< J< J< J< J< J< J< J< J< J< J< J< J< J< < < < < < < H< H< H< H< H< H< H< H< H< H< H< H< H< H< H< H< H< H< H H H H H H H H H H H H H6 H6 H6 H6 H6 H6 H6 H6 H6 H6 H6 H6 H6 H6 H6 H6 H6 H6 H6 H6 H6 H6 H6 H6 H6 H6 H6 H6 H6 H6 H6 H6 H6 H6 H6 H6 H6 H6 H6 H6 H6 H6 H6 H6 H6 H6 H6 H6             F7 F7 F7 F7 F7 F7 F7 F7 F7 F7 F7 F7 F7 F7 F7 F7 F7 F7 F7 F7 F7 F7 F7 F7 F7 F7 F7 F7 F7 F7 F7 F7 F7 F7 F7 F7 F7 F7 F7 F7 F7 F7 F7 F7 F7 F7 F7 F7             H9 H9 H9 H9 H9 H9 H9 H9 H9 H9 H9 H9 H9 H9 H9 H9 H9 H9 H9 H9 H9 H9 H9 H9 H9 H9 H9 H9 H9 H9 H9 H9 H9 H9 H9 H9 H9 H9 H9 H9 H9 H9 H9 H9 H9 H9 H9 H9             K6 K6 K6 K6 K6 K6 K6 K6 K6 K6 K6 K6 K6 K6 K6 K6 K6 K6 K6 K6 K6 K6 K6 K6 K6 K6 K6 K6 K6 K6 K6 K6 K6 K6 K6 K6 K6 K6 K6 K6 K6 K6 K6 K6 K6 K6 K6 K6             J2 J2 J2 J2 J2 J2 J2 J2 J2 J2 J2 J2 J2 J2 J2 J2 J2 J2 J2 J2 J2 J2 J2 J2 J2 J2 J2 J2 J2 J2 J2 J2 J2 J2 J2 J2 J2 J2 J2 J2 J2 J2 J2 J2 J2 J2 J2 J2             H6 H6 H6 H6 H6 H6 H6 H6 H6 H6 H6 H6 H6 H6 H6 H6 H6 H6 H6 H6 H6 H6 H6 H6 H6 H6 H6 H6 H6 H6 H6 H6 H6 H6 H6 H6 H6 H6 H6 H6 H6 H6 H6 H6 H6 H6 H6 H6             F+ F+ F+ F+ F+ F+ F+ F+ F+ F+ F+ F+ F+ F+ F+ F+ F+ F+ F+ F+ F+ F+ F+ F+ F+ F+ F+ F+ F+ F+ F+ F+ F+ F+ F+ F+ F+ F+ F+ F+ F+ F+ F+ F+ F+ F+ F+ F+ + + + + + + + + + + + + E+ E+ E+ E+ E+ E+ E+ E+ E+ E+ E+ E+ E+ E+ E+ E+ E+ E+ E+ E+ E+ E+ E+ E+ E+ E+ E+ E+ E+ E+ E+ E+ E+ E+ E+ E+ E E E E E E E E E E E E             C. C. C. C. C. C. C. C. C. C. C. C. C. C. C. C. C. C. C. C. C. C. C. C. C. C. C. C. C. C. C. C. C. C. C. C. C. C. C. C. C. C. C. C. C. C. C. C. . . . . . . . . . . . . K. K. K. K. K. K. K. K. K. K. K. K. K. K. K. K. K. K. K. K. K. K. K. K. K. K. K. K. K. K. K. K. K. K. K. K. K K K K K K K K K K K K             B3 B3 B3 B3 B3 B3 B3 B3 B3 B3 B3 B3 B3 B3 B3 B3 B3 B3 B3 B3 B3 B3 B3 B3 B3 B3 B3 B3 B3 B3 B3 B3 B3 B3 B3 B3 B3 B3 B3 B3 B3 B3 B3 B3 B3 B3 B3 B3 3 3 3 3 3 3 3 3 3 3 3 3 C3 C3 C3 C3 C3 C3 C3 C3 C3 C3 C3 C3 C3 C3 C3 C3 C3 C3 C3 C3 C3 C3 C3 C3 C3 C3 C3 C3 C3 C3 C3 C3 C3 C3 C3 C3 C C C C C C C C C C C C             E) E) E) E) E) E) E) E) E) E) E) E) E) E) E) E) E) E) E) E) E) E) E) E) E) E) E) E) E) E) E) E) E) E) E) E) E) E) E) E) E) E) E) E) E) E) E) E) ) ) ) ) ) ) ) ) ) ) ) ) C) C) C) C) C) C) C) C) C) C) C) C) C) C) C) C) C) C) C) C) C) C) C) C) C) C) C) C) C) C) C) C) C) C) C) C) C C C C C C C C C C C C             A- A- A- A- A- A- A- A- A- A- A- A- A- A- A- A- A- A- A- A- A- A- A- A- A- A- A- A- A- A- A- A- A- A- A- A- A- A- A- A- A- A- A- A- A- A- A- A- - - - - - - - - - - - - J- J- J- J- J- J- J- J- J- J- J- J- J- J- J- J- J- J- J- J- J- J- J- J- J- J- J- J- J- J- J- J- J- J- J- J- J J J J J J J J J J J J             @2 @2 @2 @2 @2 @2 @2 @2 @2 @2 @2 @2 @2 @2 @2 @2 @2 @2 @2 @2 @2 @2 @2 @2 @2 @2 @2 @2 @2 @2 @2 @2 @2 @2 @2 @2 @2 @2 @2 @2 @2 @2 @2 @2 @2 @2 @2 @2 2 2 2 2 2 2 2 2 2 2 2 2 A2 A2 A2 A2 A2 A2 A2 A2 A2 A2 A2 A2 A2 A2 A2 A2 A2 A2 A2 A2 A2 A2 A2 A2 A2 A2 A2 A2 A2 A2 A2 A2 A2 A2 A2 A2 A A A A A A A A A A A A             C' C' C' C' C' C' C' C' C' C' C' C' C' C' C' C' C' C' C' C' C' C' C' C' C' C' C' C' C' C' C' C' C' C' C' C' C' C' C' C' C' C' C' C' C' C' C' C' ' ' ' ' ' ' ' ' ' ' ' ' A' A' A' A' A' A' A' A' A' A' A' A' A' A' A' A' A' A' A' A' A' A' A' A' A' A' A' A' A' A' A' A' A' A' A' A' A A A A A A A A A A A A             ?+ ?+ ?+ ?+ ?+ ?+ ?+ ?+ ?+ ?+ ?+ ?+ ?+ ?+ ?+ ?+ ?+ ?+ ?+ ?+ ?+ ?+ ?+ ?+ ?+ ?+ ?+ ?+ ?+ ?+ ?+ ?+ ?+ ?+ ?+ ?+ ?+ ?+ ?+ ?+ ?+ ?+ ?+ ?+ ?+ ?+ ?+ ?+ + + + + + + + + + + + + H+ H+ H+ H+ H+ H+ H+ H+ H+ H+ H+ H+ H+ H+ H+ H+ H+ H+ H+ H+ H+ H+ H+ H+ H+ H+ H+ H+ H+ H+ H+ H+ H+ H+ H+ H+ H H H H H H H H H H H H             >0 >0 >0 >0 >0 >0 >0 >0 >0 >0 >0 >0 >0 >0 >0 >0 >0 >0 >0 >0 >0 >0 >0 >0 >0 >0 >0 >0 >0 >0 >0 >0 >0 >0 >0 >0 >0 >0 >0 >0 >0 >0 >0 >0 >0 >0 >0 >0 0 0 0 0 0 0 0 0 0 0 0 0 @0 @0 @0 @0 @0 @0 @0 @0 @0 @0 @0 @0 @0 @0 @0 @0 @0 @0 @0 @0 @0 @0 @0 @0 @0 @0 @0 @0 @0 @0 @0 @0 @0 @0 @0 @0 @ @ @ @ @ @ @ @ @ @ @ @             B& B& B& B& B& B& B& B& B& B& B& B& B& B& B& B& B& B& B& B& B& B& B& B& B& B& B& B& B& B& B& B& B& B& B& B& B& B& B& B& B& B& B& B& B& B& B& B& & & & & & & & & & & & & @& @& @& @& @& @& @& @& @& @& @& @& @& @& @& @& @& @& @& @& @& @& @& @& @& @& @& @& @& @& @ @ @ @ @ @ @ @ @ @ @ @ @ @ @ @ @ @             >2 >2 >2 >2 >2 >2 >2 >2 >2 >2 >2 >2 >2 >2 >2 >2 >2 >2 >2 >2 >2 >2 >2 >2 >2 >2 >2 >2 >2 >2 >2 >2 >2 >2 >2 >2 >2 >2 >2 >2 >2 >2 >2 >2 >2 >2 >2 >2 2 2 2 2 2 2 2 2 2 2 2 2 H2 H2 H2 H2 H2 H2 H2 H2 H2 H2 H2 H2 H2 H2 H2 H2 H2 H2 H2 H2 H2 H2 H2 H2 H2 H2 H2 H2 H2 H2 H H H H H H H H H H H H H H H H H H             @ @ @ @ @ @ @ @ @ @ @ @ @ @ @ @ @ @ @ @ @ @ @ @ @ @ @ @ @ @ @ @ @ @ @ @ @ @ @ @ @ @ @ @ @ @ @ @             B B B B B B B B B B B B B B B B B B B B B B B B B B B B B B B B B B B B B B B B B B B B B B B B             C& C& C& C& C& C& C& C& C& C& C& C& C& C& C& C& C& C& C& C& C& C& C& C& C& C& C& C& C& C& C& C& C& C& C& C& C& C& C& C& C& C& C& C& C& C& C& C& & & & & & & & & & & & & B& B& B& B& B& B& B& B& B& B& B& B& B& B& B& B& B& B& B& B& B& B& B& B& B& B& B& B& B& B& B B B B B B B B B B B B B B B B B B             @2 @2 @2 @2 @2 @2 @2 @2 @2 @2 @2 @2 @2 @2 @2 @2 @2 @2 @2 @2 @2 @2 @2 @2 @2 @2 @2 @2 @2 @2 @2 @2 @2 @2 @2 @2 @2 @2 @2 @2 @2 @2 @2 @2 @2 @2 @2 @2 2 2 2 2 2 2 2 2 2 2 2 2 F2 F2 F2 F2 F2 F2 F2 F2 F2 F2 F2 F2 F2 F2 F2 F2 F2 F2 F2 F2 F2 F2 F2 F2 F2 F2 F2 F2 F2 F2 F F F F F F F F F F F F F F F F F F             = = = = = = = = = = = = = = = = = = = = = = = = = = = = = = = = = = = = = = = = = = = = = = = =             > > > > > > > > > > > > > > > > > > > > > > > > > > > > > > > > > > > > > > > > > > > > > > > >             @& @& @& @& @& @& @& @& @& @& @& @& @& @& @& @& @& @& @& @& @& @& @& @& @& @& @& @& @& @& @& @& @& @& @& @& @& @& @& @& @& @& @& @& @& @& @& @& & & & & & & & & & & & & >& >& >& >& >& >& >& >& >& >& >& >& >& >& >& >& >& >& >& >& >& >& >& >& >& >& >& >& >& >& > > > > > > > > > > > > > > > > > >             =2 =2 =2 =2 =2 =2 =2 =2 =2 =2 =2 =2 =2 =2 =2 =2 =2 =2 =2 =2 =2 =2 =2 =2 =2 =2 =2 =2 =2 =2 =2 =2 =2 =2 =2 =2 =2 =2 =2 =2 =2 =2 =2 =2 =2 =2 =2 =2 2 2 2 2 2 2 2 2 2 2 2 2 E2 E2 E2 E2 E2 E2 E2 E2 E2 E2 E2 E2 E2 E2 E2 E2 E2 E2 E2 E2 E2 E2 E2 E2 E2 E2 E2 E2 E2 E2 E E E E E E E E E E E E E E E E E E             @ @ @ @ @ @ @ @ @ @ @ @ @ @ @ @ @ @ @ @ @ @ @ @ @ @ @ @ @ @ @ @ @ @ @ @ @ @ @ @ @ @ @ @ @ @ @ @             B B B B B B B B B B B B B B B B B B B B B B B B B B B B B B B B B B B B B B B B B B B B B B B B             C& C& C& C& C& C& C& C& C& C& C& C& C& C& C& C& C& C& C& C& C& C& C& C& C& C& C& C& C& C& C& C& C& C& C& C& C& C& C& C& C& C& C& C& C& C& C& C& & & & & & & & & & & & & B& B& B& B& B& B& B& B& B& B& B& B& B& B& B& B& B& B& B& B& B& B& B& B& B& B& B& B& B& B& B B B B B B B B B B B B B B B B B B             @2 @2 @2 @2 @2 @2 @2 @2 @2 @2 @2 @2 @2 @2 @2 @2 @2 @2 @2 @2 @2 @2 @2 @2 @2 @2 @2 @2 @2 @2 @2 @2 @2 @2 @2 @2 @2 @2 @2 @2 @2 @2 @2 @2 @2 @2 @2 @2 2 2 2 2 2 2 2 2 2 2 2 2 >2 >2 >2 >2 >2 >2 >2 >2 >2 >2 >2 >2 >2 >2 >2 >2 >2 >2 >2 >2 >2 >2 >2 >2 >2 >2 >2 >2 >2 >2 > > > > > > > > > > > > > > > > > >             @2 @2 @2 @2 @2 @2 @2 @2 @2 @2 @2 @2 @2 @2 @2 @2 @2 @2 @2 @2 @2 @2 @2 @2 @2 @2 @2 @2 @2 @2 @2 @2 @2 @2 @2 @2 @2 @2 @2 @2 @2 @2 @2 @2 @2 @2 @2 @2 2 2 2 2 2 2 2 2 2 2 2 2 B2 B2 B2 B2 B2 B2 B2 B2 B2 B2 B2 B2 B2 B2 B2 B2 B2 B2 B2 B2 B2 B2 B2 B2 B2 B2 B2 B2 B2 B2 B B B B B B B B B B B B B B B B B B             C. C. C. C. C. C. C. C. C. C. C. C. C. C. C. C. C. C. C. C. C. C. C. C. C. C. C. C. C. C. C. C. C. C. C. C. C. C. C. C. C. C. C. C. C. C. C. C. C C C C C C C C C C C C C- C- C- C- C- C- C- C- C- C- C- C- C- C- C- C- C- C- C- C- C- C- C- C- C- C- C- C- C- C- - - - - - - - - - - - - - - - - - -             7+ 7+ 7+ 7+ 7+ 7+ 7+ 7+ 7+ 7+ 7+ 7+ 7+ 7+ 7+ 7+ 7+ 7+ 7+ 7+ 7+ 7+ 7+ 7+ 7+ 7+ 7+ 7+ 7+ 7+ 7+ 7+ 7+ 7+ 7+ 7+ 7+ 7+ 7+ 7+ 7+ 7+ 7+ 7+ 7+ 7+ 7+ 7+ 7 7 7 7 7 7 7 7 7 7 7 7 7- 7- 7- 7- 7- 7- 7- 7- 7- 7- 7- 7- 7- 7- 7- 7- 7- 7- 7- 7- 7- 7- 7- 7- 7- 7- 7- 7- 7- 7- 7- 7- 7- 7- 7- 7- - - - - - - - - - - - -             7. 7. 7. 7. 7. 7. 7. 7. 7. 7. 7. 7. 7. 7. 7. 7. 7. 7. 7. 7. 7. 7. 7. 7. 7. 7. 7. 7. 7. 7. 7. 7. 7. 7. 7. 7. 7. 7. 7. 7. 7. 7. 7. 7. 7. 7. 7. 7. 7 7 7 7 7 7 7 7 7 7 7 7 70 70 70 70 70 70 70 70 70 70 70 70 70 70 70 70 70 70 70 70 70 70 70 70 70 70 70 70 70 70 70 70 70 70 70 70 0 0 0 0 0 0 0 0 0 0 0 0             62 62 62 62 62 62 62 62 62 62 62 62 62 62 62 62 62 62 62 62 62 62 62 62 62 62 62 62 62 62 62 62 62 62 62 62 62 62 62 62 62 62 62 62 62 62 62 62 6 6 6 6 6 6 6 6 6 6 6 6 60 60 60 60 60 60 60 60 60 60 60 60 60 60 60 60 60 60 60 60 60 60 60 60 60 60 60 60 60 60 60 60 60 60 60 60 0 0 0 0 0 0 0 0 0 0 0 0             >2 >2 >2 >2 >2 >2 >2 >2 >2 >2 >2 >2 >2 >2 >2 >2 >2 >2 >2 >2 >2 >2 >2 >2 >2 >2 >2 >2 >2 >2 >2 >2 >2 >2 >2 >2 >2 >2 >2 >2 >2 >2 >2 >2 >2 >2 >2 >2 > > > > > > > > > > > > >4 >4 >4 >4 >4 >4 >4 >4 >4 >4 >4 >4 >4 >4 >4 >4 >4 >4 >4 >4 >4 >4 >4 >4 >4 >4 >4 >4 >4 >4 >4 >4 >4 >4 >4 >4 4 4 4 4 4 4 4 4 4 4 4 4             >6 >6 >6 >6 >6 >6 >6 >6 >6 >6 >6 >6 >6 >6 >6 >6 >6 >6 >6 >6 >6 >6 >6 >6 >6 >6 >6 >6 >6 >6 >6 >6 >6 >6 >6 >6 >6 >6 >6 >6 >6 >6 >6 >6 >6 >6 >6 >6 > > > > > > > > > > > > >2 >2 >2 >2 >2 >2 >2 >2 >2 >2 >2 >2 >2 >2 >2 >2 >2 >2 >2 >2 >2 >2 >2 >2 >2 >2 >2 >2 >2 >2 >2 >2 >2 >2 >2 >2 2 2 2 2 2 2 2 2 2 2 2 2             :7 :7 :7 :7 :7 :7 :7 :7 :7 :7 :7 :7 :7 :7 :7 :7 :7 :7 :7 :7 :7 :7 :7 :7 :7 :7 :7 :7 :7 :7 :7 :7 :7 :7 :7 :7 :7 :7 :7 :7 :7 :7 :7 :7 :7 :7 :7 :7 : : : : : : : : : : : : :6 :6 :6 :6 :6 :6 :6 :6 :6 :6 :6 :6 :6 :6 :6 :6 :6 :6 :6 :6 :6 :6 :6 :6 :6 :6 :6 :6 :6 :6 :6 :6 :6 :6 :6 :6 6 6 6 6 6 6 6 6 6 6 6 6             C7 C7 C7 C7 C7 C7 C7 C7 C7 C7 C7 C7 C7 C7 C7 C7 C7 C7 C7 C7 C7 C7 C7 C7 C7 C7 C7 C7 C7 C7 C7 C7 C7 C7 C7 C7 C7 C7 C7 C7 C7 C7 C7 C7 C7 C7 C7 C7 C C C C C C C C C C C C C9 C9 C9 C9 C9 C9 C9 C9 C9 C9 C9 C9 C9 C9 C9 C9 C9 C9 C9 C9 C9 C9 C9 C9 C9 C9 C9 C9 C9 C9 C9 C9 C9 C9 C9 C9 9 9 9 9 9 9 9 9 9 9 9 9             C: C: C: C: C: C: C: C: C: C: C: C: C: C: C: C: C: C: C: C: C: C: C: C: C: C: C: C: C: C: C: C: C: C: C: C: C: C: C: C: C: C: C: C: C: C: C: C: C C C C C C C C C C C C C< C< C< C< C< C< C< C< C< C< C< C< C< C< C< C< C< C< C< C< C< C< C< C< C< C< C< C< C< C< C< C< C< C< C< C< < < < < < < < < < < < <             B> B> B> B> B> B> B> B> B> B> B> B> B> B> B> B> B> B> B> B> B> B> B> B> B> B> B> B> B> B> B> B> B> B> B> B> B> B> B> B> B> B> B> B> B> B> B> B> B B B B B B B B B B B B B< B< B< B< B< B< B< B< B< B< B< B< B< B< B< B< B< B< B< B< B< B< B< B< B< B< B< B< B< B< B< B< B< B< B< B< < < < < < < < < < < < <             J> J> J> J> J> J> J> J> J> J> J> J> J> J> J> J> J> J> J> J> J> J> J> J> J> J> J> J> J> J> J> J> J> J> J> J> J> J> J> J> J> J> J> J> J> J> J> J> J J J J J J J J J J J J J@ J@ J@ J@ J@ J@ J@ J@ J@ J@ J@ J@ J@ J@ J@ J@ J@ J@ J@ J@ J@ J@ J@ J@ J@ J@ J@ J@ J@ J@ J@ J@ J@ J@ J@ J@ @ @ @ @ @ @ @ @ @ @ @ @             JB JB JB JB JB JB JB JB JB JB JB JB JB JB JB JB JB JB JB JB JB JB JB JB JB JB JB JB JB JB JB JB JB JB JB JB JB JB JB JB JB JB JB JB JB JB JB JB J J J J J J J J J J J J J> J> J> J> J> J> J> J> J> J> J> J> J> J> J> J> J> J> J> J> J> J> J> J> J> J> J> J> J> J> J> J> J> J> J> J> > > > > > > > > > > > >             FC FC FC FC FC FC FC FC FC FC FC FC FC FC FC FC FC FC FC FC FC FC FC FC FC FC FC FC FC FC FC FC FC FC FC FC FC FC FC FC FC FC FC FC FC FC FC FC C C C C C C C C C C C C EC EC EC EC EC EC EC EC EC EC EC EC EC EC EC EC EC EC EC EC EC EC EC EC EC EC EC EC EC EC EC EC EC EC EC EC EC EC EC EC EC EC EC EC EC EC EC EC C C C C C        C7:> C7:> C7:> C7:> C7:> C7:> C7:> C7:> C7:> C7:> C7:> C7:> C7:> C7:> C7:> C7:> C7:> C7:> C7:> C7:> C7:> C7:> C7:> C7:> C7:> C7:> C7:> C7:> C7:> C7:> C7:> C7:> C7:> C7:> C7:> C7:> C7:> C7:> C7:> C7:> C7:> C7:> C7:> C7:> C7:> C7:> C7:> C7:> 7:> 7:> 7:> 7:> 7:> 7:> 7:> 7:> 7:> 7:> 7:> 7:> E7:> E7:> E7:> E7:> E7:> E7:> E7:> E7:> E7:> E7:> E7:> E7:> E7:> E7:> E7:> E7:> E7:> E7:> E7:> E7:> E7:> E7:> E7:> E7:> E7:> E7:> E7:> E7:> E7:> E7:> E7:> E7:> E7:> E7:> E7:> E7:> E> E> E> E> E> E> E> E> E> E> E> E> > > > > >        F7:> F7:> F7:> F7:> F7:> F7:> F7:> F7:> F7:> F7:> F7:> F7:> F7:> F7:> F7:> F7:> F7:> F7:> F7:> F7:> F7:> F7:> F7:> F7:> F7:> F7:> F7:> F7:> F7:> F7:> F7:> F7:> F7:> F7:> F7:> F7:> F7:> F7:> F7:> F7:> F7:> F7:> F7:> F7:> F7:> F7:> F7:> F7:> 7:> 7:> 7:> 7:> 7:> 7:> 7:> 7:> 7:> 7:> 7:> 7:> H7:> H7:> H7:> H7:> H7:> H7:> H7:> H7:> H7:> H7:> H7:> H7:> H7:> H7:> H7:> H7:> H7:> H7:> H7:> H7:> H7:> H7:> H7:> H7:> H7:> H7:> H7:> H7:> H7:> H7:> H7:> H7:> H7:> H7:> H7:> H7:> H> H> H> H> H> H> H> H> H> H> H> H> > > > > >        J96> J96> J96> J96> J96> J96> J96> J96> J96> J96> J96> J96> J96> J96> J96> J96> J96> J96> J96> J96> J96> J96> J96> J96> J96> J96> J96> J96> J96> J96> J96> J96> J96> J96> J96> J96> J96> J96> J96> J96> J96> J96> J96> J96> J96> J96> J96> J96> 96> 96> 96> 96> 96> 96> 96> 96> 96> 96> 96> 96> H96> H96> H96> H96> H96> H96> H96> H96> H96> H96> H96> H96> H96> H96> H96> H96> H96> H96> H96> H96> H96> H96> H96> H96> H96> H96> H96> H96> H96> H96> H96> H96> H96> H96> H96> H96> H> H> H> H> H> H> H> H> H> H> H> H> > > > > >        J629 J629 J629 J629 J629 J629 J629 J629 J629 J629 J629 J629 J629 J629 J629 J629 J629 J629 J629 J629 J629 J629 J629 J629 J629 J629 J629 J629 J629 J629 J629 J629 J629 J629 J629 J629 J629 J629 J629 J629 J629 J629 J629 J629 J629 J629 J629 J629 629 629 629 629 629 629 629 629 629 629 629 629 L629 L629 L629 L629 L629 L629 L629 L629 L629 L629 L629 L629 L629 L629 L629 L629 L629 L629 L629 L629 L629 L629 L629 L629 L629 L629 L629 L629 L629 L629 L629 L629 L629 L629 L629 L629 L9 L9 L9 L9 L9 L9 L9 L9 L9 L9 L9 L9 9 9 9 9 9        N629 N629 N629 N629 N629 N629 N629 N629 N629 N629 N629 N629 N629 N629 N629 N629 N629 N629 N629 N629 N629 N629 N629 N629 N629 N629 N629 N629 N629 N629 N629 N629 N629 N629 N629 N629 N629 N629 N629 N629 N629 N629 N629 N629 N629 N629 N629 N629 629 629 629 629 629 629 629 629 629 629 629 629 J629 J629 J629 J629 J629 J629 J629 J629 J629 J629 J629 J629 J629 J629 J629 J629 J629 J629 J629 J629 J629 J629 J629 J629 J629 J629 J629 J629 J629 J629 J629 J629 J629 J629 J629 J629 J9 J9 J9 J9 J9 J9 J9 J9 J9 J9 J9 J9 9 9 9 9 9        O2.7 O2.7 O2.7 O2.7 O2.7 O2.7 O2.7 O2.7 O2.7 O2.7 O2.7 O2.7 O2.7 O2.7 O2.7 O2.7 O2.7 O2.7 O2.7 O2.7 O2.7 O2.7 O2.7 O2.7 O2.7 O2.7 O2.7 O2.7 O2.7 O2.7 O2.7 O2.7 O2.7 O2.7 O2.7 O2.7 O2.7 O2.7 O2.7 O2.7 O2.7 O2.7 O2.7 O2.7 O2.7 O2.7 O2.7 O2.7 2.7 2.7 2.7 2.7 2.7 2.7 2.7 2.7 2.7 2.7 2.7 2.7 N2.7 N2.7 N2.7 N2.7 N2.7 N2.7 N2.7 N2.7 N2.7 N2.7 N2.7 N2.7 N2.7 N2.7 N2.7 N2.7 N2.7 N2.7 N2.7 N2.7 N2.7 N2.7 N2.7 N2.7 N2.7 N2.7 N2.7 N2.7 N2.7 N2.7 N2.7 N2.7 N2.7 N2.7 N2.7 N2.7 N N N N N N N N N N N N             O.+2 O.+2 O.+2 O.+2 O.+2 O.+2 O.+2 O.+2 O.+2 O.+2 O.+2 O.+2 O.+2 O.+2 O.+2 O.+2 O.+2 O.+2 O.+2 O.+2 O.+2 O.+2 O.+2 O.+2 O.+2 O.+2 O.+2 O.+2 O.+2 O.+2 O.+2 O.+2 O.+2 O.+2 O.+2 O.+2 O.+2 O.+2 O.+2 O.+2 O.+2 O.+2 O.+2 O.+2 O.+2 O.+2 O.+2 O.+2 .+2 .+2 .+2 .+2 .+2 .+2 .+2 .+2 .+2 .+2 .+2 .+2 Q.+2 Q.+2 Q.+2 Q.+2 Q.+2 Q.+2 Q.+2 Q.+2 Q.+2 Q.+2 Q.+2 Q.+2 Q.+2 Q.+2 Q.+2 Q.+2 Q.+2 Q.+2 Q.+2 Q.+2 Q.+2 Q.+2 Q.+2 Q.+2 Q.+2 Q.+2 Q.+2 Q.+2 Q.+2 Q.+2 Q.+2 Q.+2 Q.+2 Q.+2 Q.+2 Q.+2 Q Q Q Q Q Q Q Q Q Q Q Q             R+2. R+2. R+2. R+2. R+2. R+2. R+2. R+2. R+2. R+2. R+2. R+2. R+2. R+2. R+2. R+2. R+2. R+2. R+2. R+2. R+2. R+2. R+2. R+2. R+2. R+2. R+2. R+2. R+2. R+2. R+2. R+2. R+2. R+2. R+2. R+2. R+2. R+2. R+2. R+2. R+2. R+2. R+2. R+2. R+2. R+2. R+2. R+2. +2. +2. +2. +2. +2. +2. +2. +2. +2. +2. +2. +2. O+2. O+2. O+2. O+2. O+2. O+2. O+2. O+2. O+2. O+2. O+2. O+2. O+2. O+2. O+2. O+2. O+2. O+2. O+2. O+2. O+2. O+2. O+2. O+2. O+2. O+2. O+2. O+2. O+2. O+2. O+2. O+2. O+2. O+2. O+2. O+2. O O O O O O O O O O O O             Q*&2- Q*&2- Q*&2- Q*&2- Q*&2- Q*&2- Q*&2- Q*&2- Q*&2- Q*&2- Q*&2- Q*&2- Q*&2- Q*&2- Q*&2- Q*&2- Q*&2- Q*&2- Q*&2- Q*&2- Q*&2- Q*&2- Q*&2- Q*&2- Q*&2- Q*&2- Q*&2- Q*&2- Q*&2- Q*&2- Q*&2- Q*&2- Q*&2- Q*&2- Q*&2- Q*&2- Q*&2- Q*&2- Q*&2- Q*&2- Q*&2- Q*&2- Q*&2- Q*&2- Q*&2- Q*&2- Q*&2- Q*&2- *&2- *&2- *&2- *&2- *&2- *&2- *&2- *&2- *&2- *&2- *&2- *&2- O*&2- O*&2- O*&2- O*&2- O*&2- O*&2- O*&2- O*&2- O*&2- O*&2- O*&2- O*&2- O*&2- O*&2- O*&2- O*&2- O*&2- O*&2- O*&2- O*&2- O*&2- O*&2- O*&2- O*&2- O*&2- O*&2- O*&2- O*&2- O*&2- O*&2- O*&2- O*&2- O*&2- O*&2- O*&2- O*&2- O*&2- O*&2- O*&2- O*&2- O*&2- O*&2- O*&2- O*&2- O*&2- O*&2- O*&2- O*&2- *&2- *&2- *&2- *&2- *&2- *&2- *&2- *&2- *&2- *&2- *&2- *&2- N*&2- N*&2- N*&2- N*&2- N*&2- N*&2- N*&2- N*&2- N*&2- N*&2- N*&2- N*&2- N*&2- N*&2- N*&2- N*&2- N*&2- N*&2- N*&2- N*&2- N*&2- N*&2- N*&2- N*&2- N*&2- N*&2- N*&2- N*&2- N*&2- N*&2- N*&2- N*&2- N*&2- N*&2- N*&2- N*&2- N*&2- N*&2- N*&2- N*&2- N*&2- N*&2- N*&2- N*&2- N*&2- N*&2- N*&2- N*&2- *&2- *&2- *&2- *&2- *&2- *&2- *&2- *&2- *&2- *&2- *&2- *&2- L*&2- L*&2- L*&2- L*&2- L*&2- L*&2- L*&2- L*&2- L*&2- L*&2- L*&2- L*&2- L L L L L L L L L L L L L L L L L L L L L L L L L L L L L L L L L L L L             J J J J J J J J J J J J J J J J J J J J J J J J J J J J J J J J J J J J J J J J J J J J J J J J             H H H H H H H H H H H H H H H H H H H H H H H H H H H H H H H H H H H H H H H H H H H H H H H H             F F F F F F F F F F F F F F F F F F F F F F F F F F F F F F F F F F F F F F F F F F F F F F F F F F F F F F F F F F F F FE FE FE FE FE FE FE FE FE FE FE FE FE FE FE FE FE FE FE FE FE FE FE FE FE FE FE FE FE FE E E E E E E E E E E E E E E E E E E             FJOC FJOC FJOC FJOC FJOC FJOC FJOC FJOC FJOC FJOC FJOC FJOC FJOC FJOC FJOC FJOC FJOC FJOC FJOC FJOC FJOC FJOC FJOC FJOC FJOC FJOC FJOC FJOC FJOC FJOC FJOC FJOC FJOC FJOC FJOC FJOC FJOC FJOC FJOC FJOC FJOC FJOC FJOC FJOC FJOC FJOC FJOC FJOC FJO FJO FJO FJO FJO FJO FJO FJO FJO FJO FJO FJO FJOA FJOA FJOA FJOA FJOA FJOA FJOA FJOA FJOA FJOA FJOA FJOA FJOA FJOA FJOA FJOA FJOA FJOA FJOA FJOA FJOA FJOA FJOA FJOA FJOA FJOA FJOA FJOA FJOA FJOA FJOA FJOA FJOA FJOA FJOA FJOA A A A A A A A A A A A A             OJF? OJF? OJF? OJF? OJF? OJF? OJF? OJF? OJF? OJF? OJF? OJF? OJF? OJF? OJF? OJF? OJF? OJF? OJF? OJF? OJF? OJF? OJF? OJF? OJF? OJF? OJF? OJF? OJF? OJF? OJF? OJF? OJF? OJF? OJF? OJF? OJF? OJF? OJF? OJF? OJF? OJF? OJF? OJF? OJF? OJF? OJF? OJF? OJF OJF OJF OJF OJF OJF OJF OJF OJF OJF OJF OJF OJF> OJF> OJF> OJF> OJF> OJF> OJF> OJF> OJF> OJF> OJF> OJF> OJF> OJF> OJF> OJF> OJF> OJF> OJF> OJF> OJF> OJF> OJF> OJF> OJF> OJF> OJF> OJF> OJF> OJF> OJF> OJF> OJF> OJF> OJF> OJF> > > > > > > > > > > > >             KF< KF< KF< KF< KF< KF< KF< KF< KF< KF< KF< KF< KF< KF< KF< KF< KF< KF< KF< KF< KF< KF< KF< KF< KF< KF< KF< KF< KF< KF< KF< KF< KF< KF< KF< KF< KF< KF< KF< KF< KF< KF< KF< KF< KF< KF< KF< KF< F F F F F F F F F F F F FM> FM> FM> FM> FM> FM> FM> FM> FM> FM> FM> FM> FM> FM> FM> FM> FM> FM> FM> FM> FM> FM> FM> FM> FM> FM> FM> FM> FM> FM> FM> FM> FM> FM> FM> FM> M> M> M> M> M> M> M> M> M> M> M> M>             K< K< K< K< K< K< K< K< K< K< K< K< K< K< K< K< K< K< K< K< K< K< K< K< K< K< K< K< K< K< K< K< K< K< K< K< K< K< K< K< K< K< K< K< K< K< K< K<             J: J: J: J: J: J: J: J: J: J: J: J: J: J: J: J: J: J: J: J: J: J: J: J: J: J: J: J: J: J: J: J: J: J: J: J: J: J: J: J: J: J: J: J: J: J: J: J:             H9 H9 H9 H9 H9 H9 H9 H9 H9 H9 H9 H9 H9 H9 H9 H9 H9 H9 H9 H9 H9 H9 H9 H9 H9 H9 H9 H9 H9 H9 H9 H9 H9 H9 H9 H9 H9 H9 H9 H9 H9 H9 H9 H9 H9 H9 H9 H9             F7 F7 F7 F7 F7 F7 F7 F7 F7 F7 F7 F7 F7 F7 F7 F7 F7 F7 F7 F7 F7 F7 F7 F7 F7 F7 F7 F7 F7 F7 F7 F7 F7 F7 F7 F7 F7 F7 F7 F7 F7 F7 F7 F7 F7 F7 F7 F7             E5 E5 E5 E5 E5 E5 E5 E5 E5 E5 E5 E5 E5 E5 E5 E5 E5 E5 E5 E5 E5 E5 E5 E5 E5 E5 E5 E5 E5 E5 E5 E5 E5 E5 E5 E5 E5 E5 E5 E5 E5 E5 E5 E5 E5 E E E E E E E E E E E E E E E EC EC EC EC EC EC EC EC EC EC EC EC EC EC EC EC EC EC EC EC EC EC EC EC EC EC EC EC EC EC C C C C C C C C C C C C C C C C C C             MEHA MEHA MEHA MEHA MEHA MEHA MEHA MEHA MEHA MEHA MEHA MEHA MEHA MEHA MEHA MEHA MEHA MEHA MEHA MEHA MEHA MEHA MEHA MEHA MEHA MEHA MEHA MEHA MEHA MEHA MEHA MEHA MEHA MEHA MEHA MEHA MEHA MEHA MEHA MEHA MEHA MEHA MEHA MEHA MEHA MEHA MEHA MEHA MEH MEH MEH MEH MEH MEH MEH MEH MEH MEH MEH MEH MEH? MEH? MEH? MEH? MEH? MEH? MEH? MEH? MEH? MEH? MEH? MEH? MEH? MEH? MEH? MEH? MEH? MEH? MEH? MEH? MEH? MEH? MEH? MEH? MEH? MEH? MEH? MEH? MEH? MEH? MEH? MEH? MEH? MEH? MEH? MEH? ? ? ? ? ? ? ? ? ? ? ? ?             EMH> EMH> EMH> EMH> EMH> EMH> EMH> EMH> EMH> EMH> EMH> EMH> EMH> EMH> EMH> EMH> EMH> EMH> EMH> EMH> EMH> EMH> EMH> EMH> EMH> EMH> EMH> EMH> EMH> EMH> EMH> EMH> EMH> EMH> EMH> EMH> EMH> EMH> EMH> EMH> EMH> EMH> EMH> EMH> EMH> EMH> EMH> EMH> EMH EMH EMH EMH EMH EMH EMH EMH EMH EMH EMH EMH EMH< EMH< EMH< EMH< EMH< EMH< EMH< EMH< EMH< EMH< EMH< EMH< EMH< EMH< EMH< EMH< EMH< EMH< EMH< EMH< EMH< EMH< EMH< EMH< EMH< EMH< EMH< EMH< EMH< EMH< EMH< EMH< EMH< EMH< EMH< EMH< < < < < < < < < < < < <             JE: JE: JE: JE: JE: JE: JE: JE: JE: JE: JE: JE: JE: JE: JE: JE: JE: JE: JE: JE: JE: JE: JE: JE: JE: JE: JE: JE: JE: JE: JE: JE: JE: JE: JE: JE: JE: JE: JE: JE: JE: JE: JE: JE: JE: JE: JE: JE: E E E E E E E E E E E E EK< EK< EK< EK< EK< EK< EK< EK< EK< EK< EK< EK< EK< EK< EK< EK< EK< EK< EK< EK< EK< EK< EK< EK< EK< EK< EK< EK< EK< EK< EK< EK< EK< EK< EK< EK< K< K< K< K< K< K< K< K< K< K< K< K<             J: J: J: J: J: J: J: J: J: J: J: J: J: J: J: J: J: J: J: J: J: J: J: J: J: J: J: J: J: J: J: J: J: J: J: J: J: J: J: J: J: J: J: J: J: J: J: J:             H9 H9 H9 H9 H9 H9 H9 H9 H9 H9 H9 H9 H9 H9 H9 H9 H9 H9 H9 H9 H9 H9 H9 H9 H9 H9 H9 H9 H9 H9 H9 H9 H9 H9 H9 H9 H9 H9 H9 H9 H9 H9 H9 H9 H9 H9 H9 H9             F7 F7 F7 F7 F7 F7 F7 F7 F7 F7 F7 F7 F7 F7 F7 F7 F7 F7 F7 F7 F7 F7 F7 F7 F7 F7 F7 F7 F7 F7 F7 F7 F7 F7 F7 F7 F7 F7 F7 F7 F7 F7 F7 F7 F7 F7 F7 F7             E5 E5 E5 E5 E5 E5 E5 E5 E5 E5 E5 E5 E5 E5 E5 E5 E5 E5 E5 E5 E5 E5 E5 E5 E5 E5 E5 E5 E5 E5 E5 E5 E5 E5 E5 E5 E5 E5 E5 E5 E5 E5 E5 E5 E5 E5 E5 E5             C3 C3 C3 C3 C3 C3 C3 C3 C3 C3 C3 C3 C3 C3 C3 C3 C3 C3 C3 C3 C3 C3 C3 C3 C3 C3 C3 C3 C3 C3 C3 C3 C3 C3 C3 C3 C3 C3 C3 C3 C3 C3 C3 C3 C3 C3 C3 C3 C C C C C C C C C C C C CA CA CA CA CA CA CA CA CA CA CA CA CA CA CA CA CA CA CA CA CA CA CA CA CA CA CA CA CA CA A A A A A A A A A A A A A A A A A A             KCF? KCF? KCF? KCF? KCF? KCF? KCF? KCF? KCF? KCF? KCF? KCF? KCF? KCF? KCF? KCF? KCF? KCF? KCF? KCF? KCF? KCF? KCF? KCF? KCF? KCF? KCF? KCF? KCF? KCF? KCF? KCF? KCF? KCF? KCF? KCF? KCF? KCF? KCF? KCF? KCF? KCF? KCF? KCF? KCF? KCF? KCF? KCF? KCF KCF KCF KCF KCF KCF KCF KCF KCF KCF KCF KCF KCF> KCF> KCF> KCF> KCF> KCF> KCF> KCF> KCF> KCF> KCF> KCF> KCF> KCF> KCF> KCF> KCF> KCF> KCF> KCF> KCF> KCF> KCF> KCF> KCF> KCF> KCF> KCF> KCF> KCF> KCF> KCF> KCF> KCF> KCF> KCF> > > > > > > > > > > > >             FKC< FKC< FKC< FKC< FKC< FKC< FKC< FKC< FKC< FKC< FKC< FKC< FKC< FKC< FKC< FKC< FKC< FKC< FKC< FKC< FKC< FKC< FKC< FKC< FKC< FKC< FKC< FKC< FKC< FKC< FKC< FKC< FKC< FKC< FKC< FKC< FKC< FKC< FKC< FKC< FKC< FKC< FKC< FKC< FKC< FKC< FKC< FKC< FKC FKC FKC FKC FKC FKC FKC FKC FKC FKC FKC FKC FKC: FKC: FKC: FKC: FKC: FKC: FKC: FKC: FKC: FKC: FKC: FKC: FKC: FKC: FKC: FKC: FKC: FKC: FKC: FKC: FKC: FKC: FKC: FKC: FKC: FKC: FKC: FKC: FKC: FKC: FKC: FKC: FKC: FKC: FKC: FKC: : : : : : : : : : : : :             HC9 HC9 HC9 HC9 HC9 HC9 HC9 HC9 HC9 HC9 HC9 HC9 HC9 HC9 HC9 HC9 HC9 HC9 HC9 HC9 HC9 HC9 HC9 HC9 HC9 HC9 HC9 HC9 HC9 HC9 HC9 HC9 HC9 HC9 HC9 HC9 HC9 HC9 HC9 HC9 HC9 HC9 HC9 HC9 HC9 HC9 HC9 HC9 C C C C C C C C C C C C CJ: CJ: CJ: CJ: CJ: CJ: CJ: CJ: CJ: CJ: CJ: CJ: CJ: CJ: CJ: CJ: CJ: CJ: CJ: CJ: CJ: CJ: CJ: CJ: CJ: CJ: CJ: CJ: CJ: CJ: CJ: CJ: CJ: CJ: CJ: CJ: J: J: J: J: J: J: J: J: J: J: J: J:             H9 H9 H9 H9 H9 H9 H9 H9 H9 H9 H9 H9 H9 H9 H9 H9 H9 H9 H9 H9 H9 H9 H9 H9 H9 H9 H9 H9 H9 H9 H9 H9 H9 H9 H9 H9 H9 H9 H9 H9 H9 H9 H9 H9 H9 H9 H9 H9             F7 F7 F7 F7 F7 F7 F7 F7 F7 F7 F7 F7 F7 F7 F7 F7 F7 F7 F7 F7 F7 F7 F7 F7 F7 F7 F7 F7 F7 F7 F7 F7 F7 F7 F7 F7 F7 F7 F7 F7 F7 F7 F7 F7 F7 F7 F7 F7             E6 E6 E6 E6 E6 E6 E6 E6 E6 E6 E6 E6 E6 E6 E6 E6 E6 E6 E6 E6 E6 E6 E6 E6 E6 E6 E6 E6 E6 E6 E6 E6 E6 E6 E6 E6 E6 E6 E6 E6 E6 E6 E6 E6 E6 E6 E6 E6             C4 C4 C4 C4 C4 C4 C4 C4 C4 C4 C4 C4 C4 C4 C4 C4 C4 C4 C4 C4 C4 C4 C4 C4 C4 C4 C4 C4 C4 C4 C4 C4 C4 C4 C4 C4 C4 C4 C4 C4 C4 C4 C4 C4 C4 C4 C4 C4             B2 B2 B2 B2 B2 B2 B2 B2 B2 B2 B2 B2 B2 B2 B2 B2 B2 B2 B2 B2 B2 B2 B2 B2 B2 B2 B2 B2 B2 B2 B2 B2 B2 B2 B2 B2 B2 B2 B2 B2 B2 B2 B2 B2 B2 B2 B2 B2 B B B B B B B B B B B B B3 B3 B3 B3 B3 B3 B3 B3 B3 B3 B3 B3 B3 B3 B3 B3 B3 B3 B3 B3 B3 B3 B3 B3 B3 B3 B3 B3 B3 B3 B3 B3 B3 B3 B3 B3 3 3 3 3 3 3 3 3 3 3 3 3             JBE2 JBE2 JBE2 JBE2 JBE2 JBE2 JBE2 JBE2 JBE2 JBE2 JBE2 JBE2 JBE2 JBE2 JBE2 JBE2 JBE2 JBE2 JBE2 JBE2 JBE2 JBE2 JBE2 JBE2 JBE2 JBE2 JBE2 JBE2 JBE2 JBE2 JBE2 JBE2 JBE2 JBE2 JBE2 JBE2 JBE2 JBE2 JBE2 JBE2 JBE2 JBE2 JBE2 JBE2 JBE2 JBE2 JBE2 JBE2 JBE JBE JBE JBE JBE JBE JBE JBE JBE JBE JBE JBE JBE0 JBE0 JBE0 JBE0 JBE0 JBE0 JBE0 JBE0 JBE0 JBE0 JBE0 JBE0 JBE0 JBE0 JBE0 JBE0 JBE0 JBE0 JBE0 JBE0 JBE0 JBE0 JBE0 JBE0 JBE0 JBE0 JBE0 JBE0 JBE0 JBE0 JBE0 JBE0 JBE0 JBE0 JBE0 JBE0 0 0 0 0 0 0 0 0 0 0 0 0             BJE. BJE. BJE. BJE. BJE. BJE. BJE. BJE. BJE. BJE. BJE. BJE. BJE. BJE. BJE. BJE. BJE. BJE. BJE. BJE. BJE. BJE. BJE. BJE. BJE. BJE. BJE. BJE. BJE. BJE. BJE. BJE. BJE. BJE. BJE. BJE. BJE. BJE. BJE. BJE. BJE. BJE. BJE. BJE. BJE. BJE. BJE. BJE. BJE BJE BJE BJE BJE BJE BJE BJE BJE BJE BJE BJE BJE- BJE- BJE- BJE- BJE- BJE- BJE- BJE- BJE- BJE- BJE- BJE- BJE- BJE- BJE- BJE- BJE- BJE- BJE- BJE- BJE- BJE- BJE- BJE- BJE- BJE- BJE- BJE- BJE- BJE- BJE- BJE- BJE- BJE- BJE- BJE- - - - - - - - - - - - -             CF>+ CF>+ CF>+ CF>+ CF>+ CF>+ CF>+ CF>+ CF>+ CF>+ CF>+ CF>+ CF>+ CF>+ CF>+ CF>+ CF>+ CF>+ CF>+ CF>+ CF>+ CF>+ CF>+ CF>+ CF>+ CF>+ CF>+ CF>+ CF>+ CF>+ CF>+ CF>+ CF>+ CF>+ CF>+ CF>+ CF>+ CF>+ CF>+ CF>+ CF>+ CF>+ CF>+ CF>+ CF>+ CF>+ CF>+ CF>+ CF> CF> CF> CF> CF> CF> CF> CF> CF> CF> CF> CF> CF>- CF>- CF>- CF>- CF>- CF>- CF>- CF>- CF>- CF>- CF>- CF>- CF>- CF>- CF>- CF>- CF>- CF>- CF>- CF>- CF>- CF>- CF>- CF>- CF>- CF>- CF>- CF>- CF>- CF>- CF>- CF>- CF>- CF>- CF>- CF>- - - - - - - - - - - - -             FC+ FC+ FC+ FC+ FC+ FC+ FC+ FC+ FC+ FC+ FC+ FC+ FC+ FC+ FC+ FC+ FC+ FC+ FC+ FC+ FC+ FC+ FC+ FC+ FC+ FC+ FC+ FC+ FC+ FC+ FC+ FC+ FC+ FC+ FC+ FC+ FC+ FC+ FC+ FC+ FC+ FC+ FC+ FC+ FC+ FC+ FC+ FC+ FC FC FC FC FC FC FC FC FC FC FC FC FC) FC) FC) FC) FC) FC) FC) FC) FC) FC) FC) FC) FC) FC) FC) FC) FC) FC) FC) FC) FC) FC) FC) FC) FC) FC) FC) FC) FC) FC) FC) FC) FC) FC) FC) FC) ) ) ) ) ) ) ) ) ) ) ) )             CF' CF' CF' CF' CF' CF' CF' CF' CF' CF' CF' CF' CF' CF' CF' CF' CF' CF' CF' CF' CF' CF' CF' CF' CF' CF' CF' CF' CF' CF' CF' CF' CF' CF' CF' CF' CF' CF' CF' CF' CF' CF' CF' CF' CF' CF' CF' CF' CF CF CF CF CF CF CF CF CF CF CF CF CF& CF& CF& CF& CF& CF& CF& CF& CF& CF& CF& CF& CF& CF& CF& CF& CF& CF& CF& CF& CF& CF& CF& CF& CF& CF& CF& CF& CF& CF& CF& CF& CF& CF& CF& CF& & & & & & & & & & & & &             ?F$ ?F$ ?F$ ?F$ ?F$ ?F$ ?F$ ?F$ ?F$ ?F$ ?F$ ?F$ ?F$ ?F$ ?F$ ?F$ ?F$ ?F$ ?F$ ?F$ ?F$ ?F$ ?F$ ?F$ ?F$ ?F$ ?F$ ?F$ ?F$ ?F$ ?F$ ?F$ ?F$ ?F$ ?F$ ?F$ ?F$ ?F$ ?F$ ?F$ ?F$ ?F$ ?F$ ?F$ ?F$ ?F$ ?F$ ?F$ F$ F$ F$ F$ F$ F$ F$ F$ F$ F$ F$ F$ >F$ >F$ >F$ >F$ >F$ >F$ >F$ >F$ >F$ >F$ >F$ >F$ >F$ >F$ >F$ >F$ >F$ >F$ >F$ >F$ >F$ >F$ >F$ >F$ >F$ >F$ >F$ >F$ >F$ >F$ >F$ >F$ >F$ >F$ >F$ >F$ >F >F >F >F >F >F >F >F >F >F >F >F F F F F F F F F F F F F ?F0 ?F0 ?F0 ?F0 ?F0 ?F0 ?F0 ?F0 ?F0 ?F0 ?F0 ?F0 ?F0 ?F0 ?F0 ?F0 ?F0 ?F0 ?F0 ?F0 ?F0 ?F0 ?F0 ?F0 ?F0 ?F0 ?F0 ?F0 ?F0 ?F0 ?F0 ?F0 ?F0 ?F0 ?F0 ?F0 ?F0 ?F0 ?F0 ?F0 ?F0 ?F0 ?F0 ?F0 ?F0 ?F0 ?F0 ?F0 F0 F0 F0 F0 F0 F0 F0 F0 F0 F0 F0 F0 AF0 AF0 AF0 AF0 AF0 AF0 AF0 AF0 AF0 AF0 AF0 AF0 AF0 AF0 AF0 AF0 AF0 AF0 AF0 AF0 AF0 AF0 AF0 AF0 AF0 AF0 AF0 AF0 AF0 AF0 AF AF AF AF AF AF AF AF AF AF AF AF AF AF AF AF AF AF F F F F F F F F F F F F CF0 CF0 CF0 CF0 CF0 CF0 CF0 CF0 CF0 CF0 CF0 CF0 CF0 CF0 CF0 CF0 CF0 CF0 CF0 CF0 CF0 CF0 CF0 CF0 CF0 CF0 CF0 CF0 CF0 CF0 CF0 CF0 CF0 CF0 CF0 CF0 CF0 CF0 CF0 CF0 CF0 CF0 CF0 CF0 CF0 CF0 CF0 CF0 0 0 0 0 0 0 0 0 0 0 0 0 ?0 ?0 ?0 ?0 ?0 ?0 ?0 ?0 ?0 ?0 ?0 ?0 ?0 ?0 ?0 ?0 ?0 ?0 ?0 ?0 ?0 ?0 ?0 ?0 ?0 ?0 ?0 ?0 ?0 ?0 ? ? ? ? ? ? ? ? ? ? ? ? ? ? ? ? ? ?             <E) <E) <E) <E) <E) <E) <E) <E) <E) <E) <E) <E) <E) <E) <E) <E) <E) <E) <E) <E) <E) <E) <E) <E) <E) <E) <E) <E) <E) <E) <E) <E) <E) <E) <E) <E) <E) <E) <E) <E) <E) <E) <E) <E) <E) <E) <E) <E) E) E) E) E) E) E) E) E) E) E) E) E) CE) CE) CE) CE) CE) CE) CE) CE) CE) CE) CE) CE) CE) CE) CE) CE) CE) CE) CE) CE) CE) CE) CE) CE) CE) CE) CE) CE) CE) CE) CE) CE) CE) CE) CE) CE) CE CE CE CE CE CE CE CE CE CE CE CE E E E E E E E E E E E E AE5 AE5 AE5 AE5 AE5 AE5 AE5 AE5 AE5 AE5 AE5 AE5 AE5 AE5 AE5 AE5 AE5 AE5 AE5 AE5 AE5 AE5 AE5 AE5 AE5 AE5 AE5 AE5 AE5 AE5 AE5 AE5 AE5 AE5 AE5 AE5 AE5 AE5 AE5 AE5 AE5 AE5 AE5 AE5 AE5 AE5 AE5 AE5 E5 E5 E5 E5 E5 E5 E5 E5 E5 E5 E5 E5 ?E5 ?E5 ?E5 ?E5 ?E5 ?E5 ?E5 ?E5 ?E5 ?E5 ?E5 ?E5 ?E5 ?E5 ?E5 ?E5 ?E5 ?E5 ?E5 ?E5 ?E5 ?E5 ?E5 ?E5 ?E5 ?E5 ?E5 ?E5 ?E5 ?E5 ?E ?E ?E ?E ?E ?E ?E ?E ?E ?E ?E ?E ?E ?E ?E ?E ?E ?E E E E E E E E E E E E E >E5 >E5 >E5 >E5 >E5 >E5 >E5 >E5 >E5 >E5 >E5 >E5 >E5 >E5 >E5 >E5 >E5 >E5 >E5 >E5 >E5 >E5 >E5 >E5 >E5 >E5 >E5 >E5 >E5 >E5 >E5 >E5 >E5 >E5 >E5 >E5 >E5 >E5 >E5 >E5 >E5 >E5 >E5 >E5 >E5 >E5 >E5 >E5 E5 E5 E5 E5 E5 E5 E5 E5 E5 E5 E5 E5 <E5 <E5 <E5 <E5 <E5 <E5 <E5 <E5 <E5 <E5 <E5 <E5 <E5 <E5 <E5 <E5 <E5 <E5 <E5 <E5 <E5 <E5 <E5 <E5 <E5 <E5 <E5 <E5 <E5 <E5 <E <E <E <E <E <E <E <E <E <E <E <E <E <E <E <E <E <E E E E E E E E E E E E E >E: >E: >E: >E: >E: >E: >E: >E: >E: >E: >E: >E: >E: >E: >E: >E: >E: >E: >E: >E: >E: >E: >E: >E: >E: >E: >E: >E: >E: >E: >E: >E: >E: >E: >E: >E: >E: >E: >E: >E: >E: >E: >E: >E: >E: >E: >E: >E: E: E: E: E: E: E: E: E: E: E: E: E: <E: <E: <E: <E: <E: <E: <E: <E: <E: <E: <E: <E: <E: <E: <E: <E: <E: <E: <E: <E: <E: <E: <E: <E: <E: <E: <E: <E: <E: <E: <E: <E: <E: <E: <E: <E: <E <E <E <E <E <E <E <E <E <E <E <E E E E E E E E E E E E E >E. >E. >E. >E. >E. >E. >E. >E. >E. >E. >E. >E. >E. >E. >E. >E. >E. >E. >E. >E. >E. >E. >E. >E. >E. >E. >E. >E. >E. >E. >E. >E. >E. >E. >E. >E. >E. >E. >E. >E. >E. >E. >E. >E. >E. >E. >E. >E. E. E. E. E. E. E. E. E. E. E. E. E. ?E. ?E. ?E. ?E. ?E. ?E. ?E. ?E. ?E. ?E. ?E. ?E. ?E. ?E. ?E. ?E. ?E. ?E. ?E. ?E. ?E. ?E. ?E. ?E. ?E. ?E. ?E. ?E. ?E. ?E. ?E ?E ?E ?E ?E ?E ?E ?E ?E ?E ?E ?E ?E ?E ?E ?E ?E ?E E E E E E E E E E E E E AE. AE. AE. AE. AE. AE. AE. AE. AE. AE. AE. AE. AE. AE. AE. AE. AE. AE. AE. AE. AE. AE. AE. AE. AE. AE. AE. AE. AE. AE. AE. AE. AE. AE. AE. AE. AE. AE. AE. AE. AE. AE. AE. AE. AE. AE. AE. AE. . . . . . . . . . . . . >. >. >. >. >. >. >. >. >. >. >. >. >. >. >. >. >. >. >. >. >. >. >. >. >. >. >. >. >. >. > > > > > > > > > > > > > > > > > >             :C' :C' :C' :C' :C' :C' :C' :C' :C' :C' :C' :C' :C' :C' :C' :C' :C' :C' :C' :C' :C' :C' :C' :C' :C' :C' :C' :C' :C' :C' :C' :C' :C' :C' :C' :C' :C' :C' :C' :C' :C' :C' :C' :C' :C' :C' :C' :C' C' C' C' C' C' C' C' C' C' C' C' C' AC' AC' AC' AC' AC' AC' AC' AC' AC' AC' AC' AC' AC' AC' AC' AC' AC' AC' AC' AC' AC' AC' AC' AC' AC' AC' AC' AC' AC' AC' AC' AC' AC' AC' AC' AC' AC AC AC AC AC AC AC AC AC AC AC AC C C C C C C C C C C C C ?C3 ?C3 ?C3 ?C3 ?C3 ?C3 ?C3 ?C3 ?C3 ?C3 ?C3 ?C3 ?C3 ?C3 ?C3 ?C3 ?C3 ?C3 ?C3 ?C3 ?C3 ?C3 ?C3 ?C3 ?C3 ?C3 ?C3 ?C3 ?C3 ?C3 ?C3 ?C3 ?C3 ?C3 ?C3 ?C3 ?C3 ?C3 ?C3 ?C3 ?C3 ?C3 ?C3 ?C3 ?C3 ?C3 ?C3 ?C3 C3 C3 C3 C3 C3 C3 C3 C3 C3 C3 C3 C3 >C3 >C3 >C3 >C3 >C3 >C3 >C3 >C3 >C3 >C3 >C3 >C3 >C3 >C3 >C3 >C3 >C3 >C3 >C3 >C3 >C3 >C3 >C3 >C3 >C3 >C3 >C3 >C3 >C3 >C3 >C >C >C >C >C >C >C >C >C >C >C >C >C >C >C >C >C >C C C C C C C C C C C C C <C3 <C3 <C3 <C3 <C3 <C3 <C3 <C3 <C3 <C3 <C3 <C3 <C3 <C3 <C3 <C3 <C3 <C3 <C3 <C3 <C3 <C3 <C3 <C3 <C3 <C3 <C3 <C3 <C3 <C3 <C3 <C3 <C3 <C3 <C3 <C3 <C3 <C3 <C3 <C3 <C3 <C3 <C3 <C3 <C3 <C3 <C3 <C3 C3 C3 C3 C3 C3 C3 C3 C3 C3 C3 C3 C3 :C3 :C3 :C3 :C3 :C3 :C3 :C3 :C3 :C3 :C3 :C3 :C3 :C3 :C3 :C3 :C3 :C3 :C3 :C3 :C3 :C3 :C3 :C3 :C3 :C3 :C3 :C3 :C3 :C3 :C3 :C :C :C :C :C :C :C :C :C :C :C :C :C :C :C :C :C :C C C C C C C C C C C C C <C9 <C9 <C9 <C9 <C9 <C9 <C9 <C9 <C9 <C9 <C9 <C9 <C9 <C9 <C9 <C9 <C9 <C9 <C9 <C9 <C9 <C9 <C9 <C9 <C9 <C9 <C9 <C9 <C9 <C9 <C9 <C9 <C9 <C9 <C9 <C9 <C9 <C9 <C9 <C9 <C9 <C9 <C9 <C9 <C9 <C9 <C9 <C9 C9 C9 C9 C9 C9 C9 C9 C9 C9 C9 C9 C9 :C9 :C9 :C9 :C9 :C9 :C9 :C9 :C9 :C9 :C9 :C9 :C9 :C9 :C9 :C9 :C9 :C9 :C9 :C9 :C9 :C9 :C9 :C9 :C9 :C9 :C9 :C9 :C9 :C9 :C9 :C9 :C9 :C9 :C9 :C9 :C9 :C :C :C :C :C :C :C :C :C :C :C :C C C C C C C C C C C C C <C- <C- <C- <C- <C- <C- <C- <C- <C- <C- <C- <C- <C- <C- <C- <C- <C- <C- <C- <C- <C- <C- <C- <C- <C- <C- <C- <C- <C- <C- <C- <C- <C- <C- <C- <C- <C- <C- <C- <C- <C- <C- <C- <C- <C- <C- <C- <C- C- C- C- C- C- C- C- C- C- C- C- C- >C- >C- >C- >C- >C- >C- >C- >C- >C- >C- >C- >C- >C- >C- >C- >C- >C- >C- >C- >C- >C- >C- >C- >C- >C- >C- >C- >C- >C- >C- >C >C >C >C >C >C >C >C >C >C >C >C >C >C >C >C >C >C C C C C C C C C C C C C ?C- ?C- ?C- ?C- ?C- ?C- ?C- ?C- ?C- ?C- ?C- ?C- ?C- ?C- ?C- ?C- ?C- ?C- ?C- ?C- ?C- ?C- ?C- ?C- ?C- ?C- ?C- ?C- ?C- ?C- ?C- ?C- ?C- ?C- ?C- ?C- ?C- ?C- ?C- ?C- ?C- ?C- ?C- ?C- ?C- ?C- ?C- ?C- - - - - - - - - - - - - <- <- <- <- <- <- <- <- <- <- <- <- <- <- <- <- <- <- <- <- <- <- <- <- <- <- <- <- <- <- < < < < < < < < < < < < < < < < < <             9B& 9B& 9B& 9B& 9B& 9B& 9B& 9B& 9B& 9B& 9B& 9B& 9B& 9B& 9B& 9B& 9B& 9B& 9B& 9B& 9B& 9B& 9B& 9B& 9B& 9B& 9B& 9B& 9B& 9B& 9B& 9B& 9B& 9B& 9B& 9B& 9B& 9B& 9B& 9B& 9B& 9B& 9B& 9B& 9B& 9B& 9B& 9B& B& B& B& B& B& B& B& B& B& B& B& B& ?B& ?B& ?B& ?B& ?B& ?B& ?B& ?B& ?B& ?B& ?B& ?B& ?B& ?B& ?B& ?B& ?B& ?B& ?B& ?B& ?B& ?B& ?B& ?B& ?B& ?B& ?B& ?B& ?B& ?B& ?B& ?B& ?B& ?B& ?B& ?B& ?B ?B ?B ?B ?B ?B ?B ?B ?B ?B ?B ?B B B B B B B B B B B B B >B >B >B >B >B >B >B >B >B >B >B >B >B >B >B >B >B >B >B >B >B >B >B >B >B >B >B >B >B >B >B >B >B >B >B >B >B >B >B >B >B >B >B >B >B >B >B >B B B B B B B B B B B B B <B <B <B <B <B <B <B <B <B <B <B <B <B <B <B <B <B <B <B <B <B <B <B <B <B <B <B <B <B <B <B <B <B <B <B <B <B <B <B <B <B <B <B <B <B <B <B <B B B B B B B B B B B B B :B :B :B :B :B :B :B :B :B :B :B :B :B :B :B :B :B :B :B :B :B :B :B :B :B :B :B :B :B :B :B :B :B :B :B :B :B :B :B :B :B :B :B :B :B :B :B :B             9 9 9 9 9 9 9 9 9 9 9 9 9 9 9 9 9 9 9 9 9 9 9 9 9 9 9 9 9 9 9 9 9 9 9 9 9 9 9 9 9 9 9 9 9 9 9 9             C: C: C: C: C: C: C: C: C: C: C: C: C: C: C: C: C: C: C: C: C: C: C: C: : : : : : : B: B: B: B: B: B: B: B: B: B: B: B: B: B: B: B: B: B: B B B B B B       C> C> C> C> C> C> C> C> C> C> C> C> C> C> C> C> C> C> C> C> C> C> C> C> C> C> C> C> C> C> C> C> C> C> C> C> C> C> C> C> C> C> C> C> C> C> C> C> C C C C C C C C C C C C C< C< C< C< C< C< C< C< C< C< C< C< C< C< C< C< C< C< C< C< C< C< C< C< C< C< C< C< C< C< C< C< C< C< C< C< C< C< C< C< C< C< C< C< C< C< C< C< C C C C C C C C C C C C C: C: C: C: C: C: C: C: C: C: C: C: C: C: C: C: C: C: C: C: C: C: C: C: C: C: C: C: C: C: C: C: C: C: C: C: C: C: C: C: C: C: C: C: C: C: C: C: C C C C C C C C C C C C C9 C9 C9 C9 C9 C9 C9 C9 C9 C9 C9 C9 C9 C9 C9 C9 C9 C9 C9 C9 C9 C9 C9 C9 C9 C9 C9 C9 C9 C9 C9 C9 C9 C9 C9 C9 C9 C9 C9 C9 C9 C9 C9 C9 C9 C9 C9 C9 C C C C C C C C C C C C C7 C7 C7 C7 C7 C7 C7 C7 C7 C7 C7 C7 7 7 7 7 7 7 7 7 7 7 7 7 7 7 7 7 7 7 7 7 7 7 7 7 7 7 7 7 7 7 7 7 7 7 7 7             E6 E6 E6 E6 E6 E6 E6 E6 E6 E6 E6 E6 E6 E6 E6 E6 E6 E6 E6 E6 E6 E6 E6 E6 E6 E6 E6 E6 E6 E6 E6 E6 E6 E6 E6 E6 E6 E6 E6 E6 E6 E6 E6 E6 E6 E6 E6 E6 E E E E E E E E E E E E E7 E7 E7 E7 E7 E7 E7 E7 E7 E7 E7 E7 E7 E7 E7 E7 E7 E7 E7 E7 E7 E7 E7 E7 E7 E7 E7 E7 E7 E7 E7 E7 E7 E7 E7 E7 7 7 7 7 7 7 7 7 7 7 7 7             JEB6 JEB6 JEB6 JEB6 JEB6 JEB6 JEB6 JEB6 JEB6 JEB6 JEB6 JEB6 JEB6 JEB6 JEB6 JEB6 JEB6 JEB6 JEB6 JEB6 JEB6 JEB6 JEB6 JEB6 JEB6 JEB6 JEB6 JEB6 JEB6 JEB6 JEB6 JEB6 JEB6 JEB6 JEB6 JEB6 JEB6 JEB6 JEB6 JEB6 JEB6 JEB6 JEB6 JEB6 JEB6 JEB6 JEB6 JEB6 JEB JEB JEB JEB JEB JEB JEB JEB JEB JEB JEB JEB JEB4 JEB4 JEB4 JEB4 JEB4 JEB4 JEB4 JEB4 JEB4 JEB4 JEB4 JEB4 JEB4 JEB4 JEB4 JEB4 JEB4 JEB4 JEB4 JEB4 JEB4 JEB4 JEB4 JEB4 JEB4 JEB4 JEB4 JEB4 JEB4 JEB4 JEB4 JEB4 JEB4 JEB4 JEB4 JEB4 4 4 4 4 4 4 4 4 4 4 4 4             BJE2 BJE2 BJE2 BJE2 BJE2 BJE2 BJE2 BJE2 BJE2 BJE2 BJE2 BJE2 BJE2 BJE2 BJE2 BJE2 BJE2 BJE2 BJE2 BJE2 BJE2 BJE2 BJE2 BJE2 BJE2 BJE2 BJE2 BJE2 BJE2 BJE2 BJE2 BJE2 BJE2 BJE2 BJE2 BJE2 BJE2 BJE2 BJE2 BJE2 BJE2 BJE2 BJE2 BJE2 BJE2 BJE2 BJE2 BJE2 BJE BJE BJE BJE BJE BJE BJE BJE BJE BJE BJE BJE BJE0 BJE0 BJE0 BJE0 BJE0 BJE0 BJE0 BJE0 BJE0 BJE0 BJE0 BJE0 BJE0 BJE0 BJE0 BJE0 BJE0 BJE0 BJE0 BJE0 BJE0 BJE0 BJE0 BJE0 BJE0 BJE0 BJE0 BJE0 BJE0 BJE0 BJE0 BJE0 BJE0 BJE0 BJE0 BJE0 0 0 0 0 0 0 0 0 0 0 0 0             CGJM/ CGJM/ CGJM/ CGJM/ CGJM/ CGJM/ CGJM/ CGJM/ CGJM/ CGJM/ CGJM/ CGJM/ CGJM/ CGJM/ CGJM/ CGJM/ CGJM/ CGJM/ CGJM/ CGJM/ CGJM/ CGJM/ CGJM/ CGJM/ CGJM/ CGJM/ CGJM/ CGJM/ CGJM/ CGJM/ CGJM/ CGJM/ CGJM/ CGJM/ CGJM/ CGJM/ CGJM/ CGJM/ CGJM/ CGJM/ CGJM/ CGJM/ CGJM/ CGJM/ CGJM/ CGJM/ CGJM/ CGJM/ CGJM CGJM CGJM CGJM CGJM CGJM CGJM CGJM CGJM CGJM CGJM CGJM CGJM- CGJM- CGJM- CGJM- CGJM- CGJM- CGJM- CGJM- CGJM- CGJM- CGJM- CGJM- CGJM- CGJM- CGJM- CGJM- CGJM- CGJM- CGJM- CGJM- CGJM- CGJM- CGJM- CGJM- CGJM- CGJM- CGJM- CGJM- CGJM- CGJM- CGJM- CGJM- CGJM- CGJM- CGJM- CGJM- - - - - - - - - - - - -             GJCM+ GJCM+ GJCM+ GJCM+ GJCM+ GJCM+ GJCM+ GJCM+ GJCM+ GJCM+ GJCM+ GJCM+ GJCM+ GJCM+ GJCM+ GJCM+ GJCM+ GJCM+ GJCM+ GJCM+ GJCM+ GJCM+ GJCM+ GJCM+ GJCM+ GJCM+ GJCM+ GJCM+ GJCM+ GJCM+ GJCM+ GJCM+ GJCM+ GJCM+ GJCM+ GJCM+ GJCM+ GJCM+ GJCM+ GJCM+ GJCM+ GJCM+ GJCM+ GJCM+ GJCM+ GJCM+ GJCM+ GJCM+ GJCM GJCM GJCM GJCM GJCM GJCM GJCM GJCM GJCM GJCM GJCM GJCM GJCM) GJCM) GJCM) GJCM) GJCM) GJCM) GJCM) GJCM) GJCM) GJCM) GJCM) GJCM) GJCM) GJCM) GJCM) GJCM) GJCM) GJCM) GJCM) GJCM) GJCM) GJCM) GJCM) GJCM) GJCM) GJCM) GJCM) GJCM) GJCM) GJCM) GJCM) GJCM) GJCM) GJCM) GJCM) GJCM) ) ) ) ) ) ) ) ) ) ) ) )             CGJM( CGJM( CGJM( CGJM( CGJM( CGJM( CGJM( CGJM( CGJM( CGJM( CGJM( CGJM( CGJM( CGJM( CGJM( CGJM( CGJM( CGJM( CGJM( CGJM( CGJM( CGJM( CGJM( CGJM( CGJM( CGJM( CGJM( CGJM( CGJM( CGJM( CGJM( CGJM( CGJM( CGJM( CGJM( CGJM( CGJM( CGJM( CGJM( CGJM( CGJM( CGJM( CGJM( CGJM( CGJM( CGJM( CGJM( CGJM( CGJM CGJM CGJM CGJM CGJM CGJM CGJM CGJM CGJM CGJM CGJM CGJM CGJM& CGJM& CGJM& CGJM& CGJM& CGJM& CGJM& CGJM& CGJM& CGJM& CGJM& CGJM& CGJM& CGJM& CGJM& CGJM& CGJM& CGJM& CGJM& CGJM& CGJM& CGJM& CGJM& CGJM& CGJM& CGJM& CGJM& CGJM& CGJM& CGJM& CGJM& CGJM& CGJM& CGJM& CGJM& CGJM& & & & & & & & & & & & &             JGCM$ JGCM$ JGCM$ JGCM$ JGCM$ JGCM$ JGCM$ JGCM$ JGCM$ JGCM$ JGCM$ JGCM$ JGCM$ JGCM$ JGCM$ JGCM$ JGCM$ JGCM$ JGCM$ JGCM$ JGCM$ JGCM$ JGCM$ JGCM$ JGCM$ JGCM$ JGCM$ JGCM$ JGCM$ JGCM$ JGCM$ JGCM$ JGCM$ JGCM$ JGCM$ JGCM$ JGCM$ JGCM$ JGCM$ JGCM$ JGCM$ JGCM$ JGCM$ JGCM$ JGCM$ JGCM$ JGCM$ JGCM$ JGCM$ JGCM$ JGCM$ JGCM$ JGCM$ JGCM$ JGCM$ JGCM$ JGCM$ JGCM$ JGCM$ JGCM$ JGCM$ JGCM$ JGCM$ JGCM$ JGCM$ JGCM$ JGCM$ JGCM$ JGCM$ JGCM$ JGCM$ JGCM$ JGCM$ JGCM$ JGCM$ JGCM$ JGCM$ JGCM$ JGCM$ JGCM$ JGCM$ JGCM$ JGCM$ JGCM$ JGCM$ JGCM$ JGCM$ JGCM$ JGCM$ JGCM$ JGCM$ JGCM$ JGCM$ JGCM$ JGCM$ JGCM$                         CLH7 CLH7 CLH7 CLH7 CLH7 CLH7 CLH7 CLH7 CLH7 CLH7 CLH7 CLH7 CLH7 CLH7 CLH7 CLH7 CLH7 CLH7 CLH7 CLH7 CLH7 CLH7 CLH7 CLH7 CLH7 CLH7 CLH7 CLH7 CLH7 CLH7 CLH7 CLH7 CLH7 CLH7 CLH7 CLH7 CLH7 CLH7 CLH7 CLH7 CLH7 CLH7 CLH7 CLH7 CLH7 CLH7 CLH7 CLH7 CLH CLH CLH CLH CLH CLH CLH CLH CLH CLH CLH CLH CLH5 CLH5 CLH5 CLH5 CLH5 CLH5 CLH5 CLH5 CLH5 CLH5 CLH5 CLH5 CLH5 CLH5 CLH5 CLH5 CLH5 CLH5 CLH5 CLH5 CLH5 CLH5 CLH5 CLH5 CLH5 CLH5 CLH5 CLH5 CLH5 CLH5 CLH5 CLH5 CLH5 CLH5 CLH5 CLH5 5 5 5 5 5 5 5 5 5 5 5 5             CHL4 CHL4 CHL4 CHL4 CHL4 CHL4 CHL4 CHL4 CHL4 CHL4 CHL4 CHL4 CHL4 CHL4 CHL4 CHL4 CHL4 CHL4 CHL4 CHL4 CHL4 CHL4 CHL4 CHL4 CHL4 CHL4 CHL4 CHL4 CHL4 CHL4 CHL4 CHL4 CHL4 CHL4 CHL4 CHL4 CHL4 CHL4 CHL4 CHL4 CHL4 CHL4 CHL4 CHL4 CHL4 CHL4 CHL4 CHL4 CHL CHL CHL CHL CHL CHL CHL CHL CHL CHL CHL CHL CHL2 CHL2 CHL2 CHL2 CHL2 CHL2 CHL2 CHL2 CHL2 CHL2 CHL2 CHL2 CHL2 CHL2 CHL2 CHL2 CHL2 CHL2 CHL2 CHL2 CHL2 CHL2 CHL2 CHL2 CHL2 CHL2 CHL2 CHL2 CHL2 CHL2 CHL2 CHL2 CHL2 CHL2 CHL2 CHL2 2 2 2 2 2 2 2 2 2 2 2 2             OILE1 OILE1 OILE1 OILE1 OILE1 OILE1 OILE1 OILE1 OILE1 OILE1 OILE1 OILE1 OILE1 OILE1 OILE1 OILE1 OILE1 OILE1 OILE1 OILE1 OILE1 OILE1 OILE1 OILE1 OILE1 OILE1 OILE1 OILE1 OILE1 OILE1 OILE1 OILE1 OILE1 OILE1 OILE1 OILE1 OILE1 OILE1 OILE1 OILE1 OILE1 OILE1 OILE1 OILE1 OILE1 OILE1 OILE1 OILE1 OILE OILE OILE OILE OILE OILE OILE OILE OILE OILE OILE OILE OILE/ OILE/ OILE/ OILE/ OILE/ OILE/ OILE/ OILE/ OILE/ OILE/ OILE/ OILE/ OILE/ OILE/ OILE/ OILE/ OILE/ OILE/ OILE/ OILE/ OILE/ OILE/ OILE/ OILE/ OILE/ OILE/ OILE/ OILE/ OILE/ OILE/ ILE/ ILE/ ILE/ ILE/ ILE/ ILE/ / / / / / / / / / / / /             OILE- OILE- OILE- OILE- OILE- OILE- OILE- OILE- OILE- OILE- OILE- OILE- OILE- OILE- OILE- OILE- OILE- OILE- OILE- OILE- OILE- OILE- OILE- OILE- OILE- OILE- OILE- OILE- OILE- OILE- OILE- OILE- OILE- OILE- OILE- OILE- OILE- OILE- OILE- OILE- OILE- OILE- OILE- OILE- OILE- OILE- OILE- OILE- OILE OILE OILE OILE OILE OILE OILE OILE OILE OILE OILE OILE OILE+ OILE+ OILE+ OILE+ OILE+ OILE+ OILE+ OILE+ OILE+ OILE+ OILE+ OILE+ OILE+ OILE+ OILE+ OILE+ OILE+ OILE+ OILE+ OILE+ OILE+ OILE+ OILE+ OILE+ OILE+ OILE+ OILE+ OILE+ OILE+ OILE+ ILE+ ILE+ ILE+ ILE+ ILE+ ILE+ + + + + + + + + + + + +             OLIE* OLIE* OLIE* OLIE* OLIE* OLIE* OLIE* OLIE* OLIE* OLIE* OLIE* OLIE* OLIE* OLIE* OLIE* OLIE* OLIE* OLIE* OLIE* OLIE* OLIE* OLIE* OLIE* OLIE* OLIE* OLIE* OLIE* OLIE* OLIE* OLIE* OLIE* OLIE* OLIE* OLIE* OLIE* OLIE* OLIE* OLIE* OLIE* OLIE* OLIE* OLIE* OLIE* OLIE* OLIE* OLIE* OLIE* OLIE* OLIE OLIE OLIE OLIE OLIE OLIE OLIE OLIE OLIE OLIE OLIE OLIE OLIE( OLIE( OLIE( OLIE( OLIE( OLIE( OLIE( OLIE( OLIE( OLIE( OLIE( OLIE( OLIE( OLIE( OLIE( OLIE( OLIE( OLIE( OLIE( OLIE( OLIE( OLIE( OLIE( OLIE( OLIE( OLIE( OLIE( OLIE( OLIE( OLIE( LIE( LIE( LIE( LIE( LIE( LIE( ( ( ( ( ( ( ( ( ( ( ( (             LIEO& LIEO& LIEO& LIEO& LIEO& LIEO& LIEO& LIEO& LIEO& LIEO& LIEO& LIEO& LIEO& LIEO& LIEO& LIEO& LIEO& LIEO& LIEO& LIEO& LIEO& LIEO& LIEO& LIEO& LIEO& LIEO& LIEO& LIEO& LIEO& LIEO& LIEO& LIEO& LIEO& LIEO& LIEO& LIEO& LIEO& LIEO& LIEO& LIEO& LIEO& LIEO& LIEO& LIEO& LIEO& LIEO& LIEO& LIEO& LIEO& LIEO& LIEO& LIEO& LIEO& LIEO& LIEO& LIEO& LIEO& LIEO& LIEO& LIEO& LIEO& LIEO& LIEO& LIEO& LIEO& LIEO& LIEO& LIEO& LIEO& LIEO& LIEO& LIEO& LIEO& LIEO& LIEO& LIEO& LIEO& LIEO& LIEO& LIEO& LIEO& LIEO& LIEO& LIEO& LIEO& LIEO& LIEO& LIEO& LIEO& LIEO& LIEO& LIEO& LIEO& LIEO& LIEO& LIEO&                         NJE< NJE< NJE< NJE< NJE< NJE< NJE< NJE< NJE< NJE< NJE< NJE< NJE< NJE< NJE< NJE< NJE< NJE< NJE< NJE< NJE< NJE< NJE< NJE< NJE< NJE< NJE< NJE< NJE< NJE< NJE< NJE< NJE< NJE< NJE< NJE< NJE< NJE< NJE< NJE< NJE< NJE< NJE< NJE< NJE< NJE< NJE< NJE< NJE NJE NJE NJE NJE NJE NJE NJE NJE NJE NJE NJE NJE: NJE: NJE: NJE: NJE: NJE: NJE: NJE: NJE: NJE: NJE: NJE: NJE: NJE: NJE: NJE: NJE: NJE: NJE: NJE: NJE: NJE: NJE: NJE: NJE: NJE: NJE: NJE: NJE: NJE: JE: JE: JE: JE: JE: JE: : : : : : : : : : : : :             NEJ9 NEJ9 NEJ9 NEJ9 NEJ9 NEJ9 NEJ9 NEJ9 NEJ9 NEJ9 NEJ9 NEJ9 NEJ9 NEJ9 NEJ9 NEJ9 NEJ9 NEJ9 NEJ9 NEJ9 NEJ9 NEJ9 NEJ9 NEJ9 NEJ9 NEJ9 NEJ9 NEJ9 NEJ9 NEJ9 NEJ9 NEJ9 NEJ9 NEJ9 NEJ9 NEJ9 NEJ9 NEJ9 NEJ9 NEJ9 NEJ9 NEJ9 NEJ9 NEJ9 NEJ9 NEJ9 NEJ9 NEJ9 NEJ NEJ NEJ NEJ NEJ NEJ NEJ NEJ NEJ NEJ NEJ NEJ NEJ7 NEJ7 NEJ7 NEJ7 NEJ7 NEJ7 NEJ7 NEJ7 NEJ7 NEJ7 NEJ7 NEJ7 NEJ7 NEJ7 NEJ7 NEJ7 NEJ7 NEJ7 NEJ7 NEJ7 NEJ7 NEJ7 NEJ7 NEJ7 NEJ7 NEJ7 NEJ7 NEJ7 NEJ7 NEJ7 EJ7 EJ7 EJ7 EJ7 EJ7 EJ7 7 7 7 7 7 7 7 7 7 7 7 7             QHJ6 QHJ6 QHJ6 QHJ6 QHJ6 QHJ6 QHJ6 QHJ6 QHJ6 QHJ6 QHJ6 QHJ6 QHJ6 QHJ6 QHJ6 QHJ6 QHJ6 QHJ6 QHJ6 QHJ6 QHJ6 QHJ6 QHJ6 QHJ6 QHJ6 QHJ6 QHJ6 QHJ6 QHJ6 QHJ6 QHJ6 QHJ6 QHJ6 QHJ6 QHJ6 QHJ6 QHJ6 QHJ6 QHJ6 QHJ6 QHJ6 QHJ6 QHJ6 QHJ6 QHJ6 QHJ6 QHJ6 QHJ6 QHJ QHJ QHJ QHJ QHJ QHJ QHJ QHJ QHJ QHJ QHJ QHJ QHJ4 QHJ4 QHJ4 QHJ4 QHJ4 QHJ4 QHJ4 QHJ4 QHJ4 QHJ4 QHJ4 QHJ4 QHJ4 QHJ4 QHJ4 QHJ4 QHJ4 QHJ4 QHJ4 QHJ4 QHJ4 QHJ4 QHJ4 QHJ4 QHJ4 QHJ4 QHJ4 QHJ4 QHJ4 QHJ4 HJ4 HJ4 HJ4 HJ4 HJ4 HJ4 4 4 4 4 4 4 4 4 4 4 4 4             QJH2 QJH2 QJH2 QJH2 QJH2 QJH2 QJH2 QJH2 QJH2 QJH2 QJH2 QJH2 QJH2 QJH2 QJH2 QJH2 QJH2 QJH2 QJH2 QJH2 QJH2 QJH2 QJH2 QJH2 QJH2 QJH2 QJH2 QJH2 QJH2 QJH2 QJH2 QJH2 QJH2 QJH2 QJH2 QJH2 QJH2 QJH2 QJH2 QJH2 QJH2 QJH2 QJH2 QJH2 QJH2 QJH2 QJH2 QJH2 QJH QJH QJH QJH QJH QJH QJH QJH QJH QJH QJH QJH QJH0 QJH0 QJH0 QJH0 QJH0 QJH0 QJH0 QJH0 QJH0 QJH0 QJH0 QJH0 QJH0 QJH0 QJH0 QJH0 QJH0 QJH0 QJH0 QJH0 QJH0 QJH0 QJH0 QJH0 QJH0 QJH0 QJH0 QJH0 QJH0 QJH0 JH0 JH0 JH0 JH0 JH0 JH0 0 0 0 0 0 0 0 0 0 0 0 0             QJH. QJH. QJH. QJH. QJH. QJH. QJH. QJH. QJH. QJH. QJH. QJH. QJH. QJH. QJH. QJH. QJH. QJH. QJH. QJH. QJH. QJH. QJH. QJH. QJH. QJH. QJH. QJH. QJH. QJH. QJH. QJH. QJH. QJH. QJH. QJH. QJH. QJH. QJH. QJH. QJH. QJH. QJH. QJH. QJH. QJH. QJH. QJH. QJH QJH QJH QJH QJH QJH QJH QJH QJH QJH QJH QJH QJH- QJH- QJH- QJH- QJH- QJH- QJH- QJH- QJH- QJH- QJH- QJH- QJH- QJH- QJH- QJH- QJH- QJH- QJH- QJH- QJH- QJH- QJH- QJH- QJH- QJH- QJH- QJH- QJH- QJH- JH- JH- JH- JH- JH- JH- - - - - - - - - - - - -             QHJ+ QHJ+ QHJ+ QHJ+ QHJ+ QHJ+ QHJ+ QHJ+ QHJ+ QHJ+ QHJ+ QHJ+ QHJ+ QHJ+ QHJ+ QHJ+ QHJ+ QHJ+ QHJ+ QHJ+ QHJ+ QHJ+ QHJ+ QHJ+ QHJ+ QHJ+ QHJ+ QHJ+ QHJ+ QHJ+ QHJ+ QHJ+ QHJ+ QHJ+ QHJ+ QHJ+ QHJ+ QHJ+ QHJ+ QHJ+ QHJ+ QHJ+ QHJ+ QHJ+ QHJ+ QHJ+ QHJ+ QHJ+ QHJ QHJ QHJ QHJ QHJ QHJ QHJ QHJ QHJ QHJ QHJ QHJ QHJ* QHJ* QHJ* QHJ* QHJ* QHJ* QHJ* QHJ* QHJ* QHJ* QHJ* QHJ* QHJ* QHJ* QHJ* QHJ* QHJ* QHJ* QHJ* QHJ* QHJ* QHJ* QHJ* QHJ* QHJ* QHJ* QHJ* QHJ* QHJ* QHJ* QHJ* QHJ* QHJ* QHJ* QHJ* QHJ* HJ* HJ* HJ* HJ* HJ* HJ* HJ* HJ* HJ* HJ* HJ* HJ* HJ HJ HJ HJ HJ HJ HJ HJ HJ HJ HJ HJ JOF+ JOF+ JOF+ JOF+ JOF+ JOF+ JOF+ JOF+ JOF+ JOF+ JOF+ JOF+ JOF+ JOF+ JOF+ JOF+ JOF+ JOF+ JOF+ JOF+ JOF+ JOF+ JOF+ JOF+ JOF+ JOF+ JOF+ JOF+ JOF+ JOF+ JOF+ JOF+ JOF+ JOF+ JOF+ JOF+ JOF+ JOF+ JOF+ JOF+ JOF+ JOF+ JOF+ JOF+ JOF+ JOF+ JOF+ JOF+ JOF JOF JOF JOF JOF JOF JOF JOF JOF JOF JOF JOF JOF- JOF- JOF- JOF- JOF- JOF- JOF- JOF- JOF- JOF- JOF- JOF- OF- OF- OF- OF- OF- OF- OF- OF- OF- OF- OF- OF- OF- OF- OF- OF- OF- OF- F- F- F- F- F- F- F- F- F- F- F- F- F- F- F- F- F- F- F F F F F F F F F F F F MJC. MJC. MJC. MJC. MJC. MJC. MJC. MJC. MJC. MJC. MJC. MJC. MJC. MJC. MJC. MJC. MJC. MJC. MJC. MJC. MJC. MJC. MJC. MJC. MJC. MJC. MJC. MJC. MJC. MJC. MJC. MJC. MJC. MJC. MJC. MJC. MJC. MJC. MJC. MJC. MJC. MJC. MJC. MJC. MJC. MJC. MJC. MJC. MJC MJC MJC MJC MJC MJC MJC MJC MJC MJC MJC MJC MJC+ MJC+ MJC+ MJC+ MJC+ MJC+ MJC+ MJC+ MJC+ MJC+ MJC+ MJC+ MJC+ MJC+ MJC+ MJC+ MJC+ MJC+ MJC+ MJC+ MJC+ MJC+ MJC+ MJC+ MJC+ MJC+ MJC+ MJC+ MJC+ MJC+ JC+ JC+ JC+ JC+ JC+ JC+ C+ C+ C+ C+ C+ C+ C+ C+ C+ C+ C+ C+ C C C C C C C C C C C C HKC0 HKC0 HKC0 HKC0 HKC0 HKC0 HKC0 HKC0 HKC0 HKC0 HKC0 HKC0 HKC0 HKC0 HKC0 HKC0 HKC0 HKC0 HKC0 HKC0 HKC0 HKC0 HKC0 HKC0 HKC0 HKC0 HKC0 HKC0 HKC0 HKC0 HKC0 HKC0 HKC0 HKC0 HKC0 HKC0 HKC0 HKC0 HKC0 HKC0 HKC0 HKC0 HKC0 HKC0 HKC0 HKC0 HKC0 HKC0 HKC HKC HKC HKC HKC HKC HKC HKC HKC HKC HKC HKC HKC. HKC. HKC. HKC. HKC. HKC. HKC. HKC. HKC. HKC. HKC. HKC. HKC. HKC. HKC. HKC. HKC. HKC. HKC. HKC. HKC. HKC. HKC. HKC. HKC. HKC. HKC. HKC. HKC. HKC. HKC. HKC. HKC. HKC. HKC. HKC. C. C. C. C. C. C. C. C. C. C. C. C. C C C C C C C C C C C C FJC0 FJC0 FJC0 FJC0 FJC0 FJC0 FJC0 FJC0 FJC0 FJC0 FJC0 FJC0 FJC0 FJC0 FJC0 FJC0 FJC0 FJC0 FJC0 FJC0 FJC0 FJC0 FJC0 FJC0 FJC0 FJC0 FJC0 FJC0 FJC0 FJC0 FJC0 FJC0 FJC0 FJC0 FJC0 FJC0 FJC0 FJC0 FJC0 FJC0 FJC0 FJC0 FJC0 FJC0 FJC0 FJC0 FJC0 FJC0 FJC FJC FJC FJC FJC FJC FJC FJC FJC FJC FJC FJC FJC2 FJC2 FJC2 FJC2 FJC2 FJC2 FJC2 FJC2 FJC2 FJC2 FJC2 FJC2 FJC2 FJC2 FJC2 FJC2 FJC2 FJC2 FJC2 FJC2 FJC2 FJC2 FJC2 FJC2 FJC2 FJC2 FJC2 FJC2 FJC2 FJC2 FJC2 FJC2 FJC2 FJC2 FJC2 FJC2 C2 C2 C2 C2 C2 C2 C2 C2 C2 C2 C2 C2 C C C C C C C C C C C C CHE3 CHE3 CHE3 CHE3 CHE3 CHE3 CHE3 CHE3 CHE3 CHE3 CHE3 CHE3 CHE3 CHE3 CHE3 CHE3 CHE3 CHE3 CHE3 CHE3 CHE3 CHE3 CHE3 CHE3 CHE3 CHE3 CHE3 CHE3 CHE3 CHE3 CHE3 CHE3 CHE3 CHE3 CHE3 CHE3 CHE3 CHE3 CHE3 CHE3 CHE3 CHE3 CHE3 CHE3 CHE3 CHE3 CHE3 CHE3 HE HE HE HE HE HE HE HE HE HE HE HE HE0 HE0 HE0 HE0 HE0 HE0 HE0 HE0 HE0 HE0 HE0 HE0 HE0 HE0 HE0 HE0 HE0 HE0 HE0 HE0 HE0 HE0 HE0 HE0 HE0 HE0 HE0 HE0 HE0 HE0 HE0 HE0 HE0 HE0 HE0 HE0 0 0 0 0 0 0 0 0 0 0 0 0             HBE2 HBE2 HBE2 HBE2 HBE2 HBE2 HBE2 HBE2 HBE2 HBE2 HBE2 HBE2 HBE2 HBE2 HBE2 HBE2 HBE2 HBE2 HBE2 HBE2 HBE2 HBE2 HBE2 HBE2 HBE2 HBE2 HBE2 HBE2 HBE2 HBE2 HBE2 HBE2 HBE2 HBE2 HBE2 HBE2 HBE2 HBE2 HBE2 HBE2 HBE2 HBE2 HBE2 HBE2 HBE2 HBE2 HBE2 HBE2 HBE HBE HBE HBE HBE HBE HBE HBE HBE HBE HBE HBE HBE4 HBE4 HBE4 HBE4 HBE4 HBE4 HBE4 HBE4 HBE4 HBE4 HBE4 HBE4 HBE4 HBE4 HBE4 HBE4 HBE4 HBE4 HBE4 HBE4 HBE4 HBE4 HBE4 HBE4 HBE4 HBE4 HBE4 HBE4 HBE4 HBE4 HBE4 HBE4 HBE4 HBE4 HBE4 HBE4 HBE4 HBE4 HBE4 HBE4 HBE4 HBE4 HBE4 HBE4 HBE4 HBE4 HBE4 HBE4 HBE HBE HBE HBE HBE HBE HBE HBE HBE HBE HBE HBE HBE6 HBE6 HBE6 HBE6 HBE6 HBE6 HBE6 HBE6 HBE6 HBE6 HBE6 HBE6 HBE6 HBE6 HBE6 HBE6 HBE6 HBE6 HBE6 HBE6 HBE6 HBE6 HBE6 HBE6 BE6 BE6 BE6 BE6 BE6 BE6 BE6 BE6 BE6 BE6 BE6 BE6 BE6 BE6 BE6 BE6 BE6 BE6 BE6 BE6 BE6 BE6 BE6 BE6 BE BE BE BE BE BE BE BE BE BE BE BE BEJ2 BEJ2 BEJ2 BEJ2 BEJ2 BEJ2 BEJ2 BEJ2 BEJ2 BEJ2 BEJ2 BEJ2 J2 J2 J2 J2 J2 J2 J2 J2 J2 J2 J2 J2 J2 J2 J2 J2 J2 J2 J2 J2 J2 J2 J2 J2 J2 J2 J2 J2 J2 J2 J2 J2 J2 J2 J2 J2             >FC7 >FC7 >FC7 >FC7 >FC7 >FC7 >FC7 >FC7 >FC7 >FC7 >FC7 >FC7 >FC7 >FC7 >FC7 >FC7 >FC7 >FC7 >FC7 >FC7 >FC7 >FC7 >FC7 >FC7 >FC7 >FC7 >FC7 >FC7 >FC7 >FC7 >FC7 >FC7 >FC7 >FC7 >FC7 >FC7 >FC7 >FC7 >FC7 >FC7 >FC7 >FC7 >FC7 >FC7 >FC7 >FC7 >FC7 >FC7 >FC7 >FC7 >FC7 >FC7 >FC7 >FC7 >FC7 >FC7 >FC7 >FC7 >FC7 >FC7 >FC7 >FC7 >FC7 >FC7 >FC7 >FC7 >FC7 >FC7 >FC7 >FC7 >FC7 >FC7 >FC7 >FC7 >FC7 >FC7 >FC7 >FC7 >FC7 >FC7 >FC7 >FC7 >FC7 >FC7 >FC7 >FC7 >FC7 >FC7 >FC7 >FC7 >FC7 >FC7 >FC7 >FC7 >FC7 >FC7 FC FC FC FC FC FC FC FC FC FC FC FC FC FC FC FC FC FC FC FC FC FC FC FC F?C0 F?C0 F?C0 F?C0 F?C0 F?C0 F?C0 F?C0 F?C0 F?C0 F?C0 F?C0 F?C0 F?C0 F?C0 F?C0 F?C0 F?C0 F?C0 F?C0 F?C0 F?C0 F?C0 F?C0 F?C0 F?C0 F?C0 F?C0 F?C0 F?C0 F?C0 F?C0 F?C0 F?C0 F?C0 F?C0 F?C0 F?C0 F?C0 F?C0 F?C0 F?C0 F?C0 F?C0 F?C0 F?C0 F?C0 F?C0 ?C0 ?C0 ?C0 ?C0 ?C0 ?C0 ?C0 ?C0 ?C0 ?C0 ?C0 ?C0 ?CE0 ?CE0 ?CE0 ?CE0 ?CE0 ?CE0 ?CE0 ?CE0 ?CE0 ?CE0 ?CE0 ?CE0 ?CE0 ?CE0 ?CE0 ?CE0 ?CE0 ?CE0 ?CE0 ?CE0 ?CE0 ?CE0 ?CE0 ?CE0 ?CE0 ?CE0 ?CE0 ?CE0 ?CE0 ?CE0 ?CE0 ?CE0 ?CE0 ?CE0 ?CE0 ?CE0 E E E E E E E E E E E E             FB2 FB2 FB2 FB2 FB2 FB2 FB2 FB2 FB2 FB2 FB2 FB2 FB2 FB2 FB2 FB2 FB2 FB2 FB2 FB2 FB2 FB2 FB2 FB2 B2 B2 B2 B2 B2 B2 EB2 EB2 EB2 EB2 EB2 EB2 EB2 EB2 EB2 EB2 EB2 EB2 EB2 EB2 EB2 EB2 EB2 EB2 EB2 EB2 EB2 EB2 EB2 EB2 B2 B2 B2 B2 B2 B2 FB2 FB2 FB2 FB2 FB2 FB2 FB2 FB2 FB2 FB2 FB2 FB2 FB2 FB2 FB2 FB2 FB2 FB2 FB2 FB2 FB2 FB2 FB2 FB2 B2 B2 B2 B2 B2 B2 EB2 EB2 EB2 EB2 EB2 EB2 EB EB EB EB EB EB EB EB EB EB EB EB EB EB EB EB EB EB EB EB EB EB EB EB EB& EB& EB& EB& EB& EB& EB& EB& EB& EB& EB& EB& EB& EB& EB& EB& EB& EB& EB& EB& EB& EB& EB& EB& EB& EB& EB& EB& EB& EB& EB& EB& EB& EB& EB& EB& EB& EB& EB& EB& EB& EB& EB& EB& EB& EB& EB& EB& EB& EB& EB& EB& EB& EB& EB& EB& EB& B& B& B& BC& BC& BC& BC& BC& BC& BC& BC& BC& BC& BC& BC& C& C& C& C& C& C& C& C& C& C& C& C& C& C& C& C& C& C& C& C& C& C& C& C& C C C C C C C C C C C C             CC+ CC+ CC+ CC+ CC+ CC+ CC+ CC+ CC+ CC+ CC+ CC+ CC+ CC+ CC+ CC+ CC+ CC+ CC+ CC+ CC+ CC+ CC+ CC+ CC+ CC+ CC+ CC+ CC+ CC+ CC+ CC+ CC+ CC+ CC+ CC+ CC+ CC+ CC+ CC+ CC+ CC+ CC+ CC+ CC+ CC+ CC+ CC+ CC+ CC+ CC+ CC+ CC+ CC+ CC+ CC+ CC+ CC+ CC+ CC+ CC+ CC+ CC+ CC+ CC+ CC+ CC+ CC+ CC+ CC+ CC+ CC+ CC+ CC+ CC+ CC+ CC+ CC+ CC+ CC+ CC+ CC+ CC+ CC+ CC+ CC+ CC+ CC+ CC+ CC+ CC+ CC+ CC+ CC+ CC+ CC+ CC+ CC+ CC+ CC+ CC+ CC+ CC+ CC+ CC+ CC+ CC+ CC+ CC+ CC+ CC+ CC+ CC+ CC+ CC+ CC+ CC+ CC+ CC+ CC+ CC+ CC+ CC+ CC+ CC+ CC+ CC+ CC+ CC+ CC+ CC+ CC+ CC+ CC+ CC+ CC+ CC+ CC+ CC+ CC+ CC+ CC+ CC+ CC+ CC+ CC+ CC+ CC+ CC+ CC+ CC+ CC+ CC+ CC+ CC+ CC+ CC+ CC+ CC+ CC+ CC+ CC+ CC+ CC+ CC+ CC+ CC+ CC+ CC+ CC+ CC+ CC+ CC+ CC+ CC+ CC+ CC+ CC+ CC+ CC+ CC+ CC+ CC+ CC+ CC+ CC+ CC+ CC+ CC+ CC+ CC+ CC+  