                                                                                                                                                                                                                                                                                                                       J J J J J J J J J J J J J J J J J J J J J J J J J J J J J J J J J J J J J J J J J J J J J J J J J J J J J J J J J J J J J J J J J J J J J J J J J J J J J J J J J J J J J J J J J J J J J J J J J J J J J J J J J J J J J J J J J J J J J J J J J J J J J J J J J J J J J J J J J J J J J J J J J J J J J J J J J J J J J J J J J J J J J J J J J J J J J J J J J J J J J J J J J J J J J J J J J J J J J J J J J J J J J J J J J J J J J J J J J J J J J J J J J J J J J J J J J J J J J J J J J J J J J J J J J J J J J J J J J J J J J J J J J J J J J J J J J J J J J J J J J J J J J J J J J J J J J J J J J J J J J J J J J J J     J J J J J J J J J J J J J J J J J J J J J J J J J J J J J J J J J J J J J J J J J J J J J J J J J J J J J J J J J J J J J J J J J J J J J J J J J J J J J J J J J J J J J J J J J J J J J J J J J J J J J J J J J J J J J J J J J J J J J J J J J J J J J J J J J J J J J J J J J J J J J J J J J J J J J J J J J J J J J J J J J J J J J J J J J J J J J J J J J J J J J J J J J J J J J J J J J J J J J J J J J J J J J J J J J J J J J J J J J J J J J J J J J J J J J J J J J J J J J J J J J J J J J J J J J J J J J J J J J J J J J J J J J J J J J J J J J J J J J J J J J J J J J J J J J J J J J J J J J J J J J J J J J J J     F F F F F F F F F F F F F F F F F F F F F F F F F F F F F F F F F F F F F F F F F F F F F F F F F F F F F F F F F F F F F F F F F F F F F F F F F F F F F F F F F F F F F F F F F F F F F F F F F F F F F F F F F F F F F F F F F F F F F F F F F F F F F F F F F F F F F F F F F F F F F F F F F F F F F F F F F F F F F F F F F F F F F F F F F F F F F F F F F F F F F F F F F F F F F F F F F F F F F F F F F F F F F F F F F F F F F F F F F F F F F F F F F F F F F F F F F F F F F F F F F F F F F F F F F F F F F F F F F F F F F F F F F F F F F F F F F F F F F F F F F F F F F F F F F F F F F F F F F F F F F F F F F F F     CF CF CF CF CF CF CF CF CF CF CF CF CF CF CF CF CF CF CF CF CF CF CF CF CF CF CF CF CF CF CF CF CF CF CF CF CF CF CF CF CF CF CF CF CF CF CF CF CF CF CF CF CF CF CF CF CF CF CF CF CF CF CF CF CF CF CF CF CF CF CF CF CF CF CF CF CF CF CF CF CF CF CF CF CF CF CF CF CF CF CF CF CF CF CF CF CF CF CF CF CF CF CF CF CF CF CF CF CF CF CF CF CF CF CF CF CF CF CF CF CF CF CF CF CF CF CF CF CF CF CF CF CF CF CF CF CF CF CF CF CF CF CF CF CF CF CF CF CF CF CF CF CF CF CF CF CF CF CF CF CF CF CF CF CF CF CF CF CF CF CF CF CF CF CF CF CF CF CF CF CF CF CF CF CF CF CF CF CF CF CF CF CF CF CF CF CF CF CF CF CF CF CF CF CF CF CF CF CF CF CF CF CF CF CF CF CF CF CF CF CF CF CF CF CF CF CF CF CF CF CF CF CF CF CF CF CF CF CF CF CF CF CF CF CF CF CF CF CF CF CF CF CF CF CF CF CF CF CF CF CF CF CF CF CF CF CF CF CF CF CF CF CF CF CF CF CF CF CF CF CF CF CF CF CF CF CF CF CF CF CF CF CF CF CF CF CF CF CF CF CF CF CF CF CF CF CF     CF CF CF CF CF CF CF CF CF CF CF CF CF CF CF CF CF CF CF CF CF CF CF CF CF CF CF CF CF CF CF CF CF CF CF CF CF CF CF CF CF CF CF CF CF CF CF CF CF CF CF CF CF CF CF CF CF CF CF CF CF CF CF CF CF CF CF CF CF CF CF CF CF CF CF CF CF CF CF CF CF CF CF CF CF CF CF CF CF CF CF CF CF CF CF CF CF CF CF CF CF CF CF CF CF CF CF CF CF CF CF CF CF CF CF CF CF CF CF CF CF CF CF CF CF CF CF CF CF CF CF CF CF CF CF CF CF CF CF CF CF CF CF CF CF CF CF CF CF CF CF CF CF CF CF CF CF CF CF CF CF CF CF CF CF CF CF CF CF CF CF CF CF CF CF CF CF CF CF CF CF CF CF CF CF CF CF CF CF CF CF CF CF CF CF CF CF CF CF CF CF CF CF CF CF CF CF CF CF CF CF CF CF CF CF CF CF CF CF CF CF CF CF CF CF CF CF CF CF CF CF CF CF CF CF CF CF CF CF CF CF CF CF CF CF CF CF CF CF CF CF CF CF CF CF CF CF CF CF CF CF CF CF CF CF CF CF CF CF CF CF CF CF CF CF CF CF CF CF CF CF CF CF CF CF CF CF CF CF CF CF CF CF CF CF CF CF CF CF CF CF CF CF CF CF CF CF     EB EB EB EB EB EB EB EB EB EB EB EB EB EB EB EB EB EB EB EB EB EB EB EB EB EB EB EB EB EB EB EB EB EB EB EB EB EB EB EB EB EB EB EB EB EB EB EB EB EB EB EB EB EB EB EB EB EB EB EB EB EB EB EB EB EB EB EB EB EB EB EB EB EB EB EB EB EB EB EB EB EB EB EB EB EB EB EB EB EB EB EB EB EB EB EB EB EB EB EB EB EB EB EB EB EB EB EB EB EB EB EB EB EB EB EB EB EB EB EB EB EB EB EB EB EB EB EB EB EB EB EB EB EB EB EB EB EB EB EB EB EB EB EB EB EB EB EB EB EB EB EB B B B CB CB CB CB CB CB CB CB CB CB CB CB CB CB CB CB CB CB CB CB CB CB CB CB CB CB CB CB CB CB CB CB CB CB CB CB CB CB CB CB CB CB CB CB CB CB CB CB CB CB CB CB CB CB CB CB CB CB CB CB CB CB CB CB CB CB CB CB CB CB CB CB CB CB CB CB CB CB CB CB CB CB CB CB CB CB CB CB CB CB CB CB CB CB CB CB CB CB CB CB CB CB CB CB CB CB CB CB CB CB CB CB CB CB CB CB CB CB CB CB CB CB CB CB CB CB CB CB CB CB CB CB CB CB CB CB CB CB CB CB CB CB CB CB CB CB CB CB CB CB CB CB     E>B E>B E>B E>B E>B E>B E>B E>B E>B E>B E>B E>B E>B E>B E>B E>B E>B E>B E>B E>B E>B E>B E>B E>B E>B E>B E>B E>B E>B E>B E>B E>B E>B E>B E>B E>B E>B E>B E>B E>B E>B E>B E>B E>B E>B E>B E>B E>B E>B E>B E>B E>B E>B E>B E>B E>B E>B E>B E>B E>B E>B E>B E>B E>B E>B E>B E>B E>B E>B E>B E>B E>B E>B E>B E>B E>B E>B E>B E>B E>B E>B E>B E>B E>B E>B E>B E>B E>B E>B E>B E>B E>B E>B E>B E>B E>B E>B E>B E>B E>B E>B E>B E>B E>B E>B E>B E>B E>B E>B E>B E>B E>B E>B E>B E>B E>B E>B E>B E>B E>B E>B E>B E>B E>B E>B E>B E>B E>B E>B E>B E>B E>B E>B E>B E>B E>B E>B E>B E>B E>B E>B E>B E>B E>B E>B E>B E>B E>B E>B E>B E>B E>B >B >B >B F>B F>B F>B F>B F>B F>B F>B F>B F>B F>B F>B F>B F>B F>B F>B F>B F>B F>B F>B F>B F>B F>B F>B F>B F>B F>B F>B F>B F>B F>B F>B F>B F>B F>B F>B F>B F>B F>B F>B F>B F>B F>B F>B F>B F>B F>B F>B F>B F>B F>B F>B F>B F>B F>B F>B F>B F>B F>B F>B F>B F>B F>B F>B F>B F>B F>B F>B F>B F>B F>B F>B F>B F>B F>B F>B F>B F>B F>B F>B F>B F>B F>B F>B F>B F>B F>B F>B F>B F>B F>B F>B F>B F>B F>B F>B F>B F>B F>B F>B F>B F>B F>B F>B F>B F>B F>B F>B F>B F>B F>B F>B F>B F>B F>B F>B F>B F>B F>B F>B F>B F>B F>B F>B F>B F>B F>B F>B F>B F>B F>B F>B F>B F>B F>B F>B F>B F>B F>B F>B F>B F>B F>B F>B F>B F>B F>B F>B F>B F>B F>B F>B F>B     E>B E>B E>B E>B E>B E>B E>B E>B E>B E>B E>B E>B E>B E>B E>B E>B E>B E>B E>B E>B E>B E>B E>B E>B E>B E>B E>B E>B E>B E>B E>B E>B E>B E>B E>B E>B E>B E>B E>B E>B E>B E>B E>B E>B E>B E>B E>B E>B E>B E>B E>B E>B E>B E>B E>B E>B E>B E>B E>B E>B E>B E>B E>B E>B E>B E>B E>B E>B E>B E>B E>B E>B E>B E>B E>B E>B E>B E>B E>B E>B E>B E>B E>B E>B E>B E>B E>B E>B E>B E>B E>B E>B E>B E>B E>B E>B E>B E>B E>B E>B E>B E>B E>B E>B E>B E>B E>B E>B E>B E>B E>B E>B E>B E>B E>B E>B E>B E>B E>B E>B E>B E>B E>B E>B E>B E>B E>B E>B E>B E>B E>B E>B E>B E>B E>B E>B E>B E>B E>B E>B E>B E>B E>B E>B E>B E>B E>B E>B E>B E>B E>B E>B >B >B >B F>B F>B F>B F>B F>B F>B F>B F>B F>B F>B F>B F>B F>B F>B F>B F>B F>B F>B F>B F>B F>B F>B F>B F>B F>B F>B F>B F>B F>B F>B F>B F>B F>B F>B F>B F>B F>B F>B F>B F>B F>B F>B F>B F>B F>B F>B F>B F>B F>B F>B F>B F>B F>B F>B F>B F>B F>B F>B F>B F>B F>B F>B F>B F>B F>B F>B F>B F>B F>B F>B F>B F>B F>B F>B F>B F>B F>B F>B F>B F>B F>B F>B F>B F>B F>B F>B F>B F>B F>B F>B F>B F>B F>B F>B F>B F>B F>B F>B F>B F>B F>B F>B F>B F>B F>B F>B F>B F>B F>B F>B F>B F>B F>B F>B F>B F>B F>B F>B F>B F>B F>B F>B F>B F>B F>B F>B F>B F>B F>B F>B F>B F>B F>B F>B F>B F>B F>B F>B F>B F>B F>B F>B F>B F>B F>B F>B F>B F>B F>B F>B F>B F>B     C>: C>: C>: C>: C>: C>: C>: C>: C>: C>: C>: C>: C>: C>: C>: C>: C>: C>: C>: C>: C>: C>: C>: C>: C>: C>: C>: C>: C>: C>: C>: C>: C>: C>: C>: C>: C>: C>: C>: C>: C>: C>: C>: C>: C>: C>: C>: C>: C>: C>: C>: C>: C>: C>: C>: C>: C>: C>: C>: C>: C>: C>: C>: C>: C>: C>: C>: C>: C>: C>: C>: C>: C>: C>: C>: C>: C>: C>: C>: C>: C>: C>: C>: C>: C>: C>: C>: C>: C>: C>: C>: C>: C>: C>: C>: C>: C>: C>: C>: C>: C>: C>: C>: C>: C>: C>: C>: C>: C>: C>: C>: C>: C>: C>: C>: C>: C>: C>: C>: C>: C>: C>: C>: C>: C>: C>: C>: C>: C>: C>: C>: C>: C>: C>: C>: C>: C>: C>: C>: C>: C>: C>: C>: C>: C>: C>: C>: C>: C>: C>: C>: C>: >: >: >: B>: B>: B>: B>: B>: B>: B>: B>: B>: B>: B>: B>: B>: B>: B>: B>: B>: B>: B>: B>: B>: B>: B>: B>: B>: B>: B>: B>: B>: B>: B>: B>: B>: B>: B>: B>: B>: B>: B>: B>: B>: B>: B>: B>: B>: B>: B>: B>: B>: B>: B>: B>: B>: B>: B>: B>: B>: B>: B>: B>: B>: B>: B>: B>: B>: B>: B>: B>: B>: B>: B>: B>: B>: B>: B>: B>: B>: B>: B>: B>: B>: B>: B>: B>: B>: B>: B>: B>: B>: B>: B>: B>: B>: B>: B>: B>: B>: B>: B>: B>: B>: B>: B>: B>: B>: B>: B>: B>: B>: B>: B>: B>: B>: B>: B>: B>: B>: B>: B>: B>: B>: B>: B>: B>: B>: B>: B>: B>: B>: B>: B>: B>: B>: B>: B>: B>: B>: B>: B>: B>: B>: B>: B>: B>: B>: B>: B>: B>: B>: B>: B>: B>:     C7:> C7:> C7:> C7:> C7:> C7:> C7:> C7:> C7:> C7:> C7:> C7:> C7:> C7:> C7:> C7:> C7:> C7:> C7:> C7:> C7:> C7:> C7:> C7:> C7:> C7:> C7:> C7:> C7:> C7:> C7:> C7:> C7:> C7:> C7:> C7:> C7:> C7:> C7:> C7:> C7:> C7:> C7:> C7:> C7:> C7:> C7:> C7:> C7:> C7:> C7:> C7:> C7:> C7:> C7:> C7:> C7:> C7:> C7:> C7:> C7:> C7:> C7:> C7:> C7:> C7:> C7:> C7:> C7:> C7:> C7:> C7:> C7:> C7:> C7:> C7:> C7:> C7:> C7:> C7:> C7:> C7:> C7:> C7:> C7:> C7:> C7:> C7:> C7:> C7:> C7:> C7:> C7:> C7:> C7:> C7:> C7:> C7:> C7:> C7:> C7:> C7:> C7:> C7:> C7:> C7:> C7:> C7:> C7:> C7:> C7:> C7:> C7:> C7:> C7:> C7:> C7:> C7:> C7:> C7:> C7:> C7:> C7:> C7:> C7:> C7:> C7:> C7:> C7:> C7:> C7:> C7:> C7:> C7:> C7:> C7:> C7:> C7:> C7:> C7:> C7:> C7:> C7:> C7:> C7:> C7:> C7:> C7:> C7:> C7:> C7:> C7:> 7:> 7:> 7:> E7:> E7:> E7:> E7:> E7:> E7:> E7:> E7:> E7:> E7:> E7:> E7:> E7:> E7:> E7:> E7:> E7:> E7:> E7:> E7:> E7:> E7:> E7:> E7:> E7:> E7:> E7:> E7:> E7:> E7:> E7:> E7:> E7:> E7:> E7:> E7:> E7:> E7:> E7:> E7:> E7:> E7:> E7:> E7:> E7:> E7:> E7:> E7:> E7:> E7:> E7:> E7:> E7:> E7:> E7:> E7:> E7:> E7:> E7:> E7:> E7:> E7:> E7:> E7:> E7:> E7:> E7:> E7:> E7:> E7:> E7:> E7:> E7:> E7:> E7:> E7:> E7:> E7:> E7:> E7:> E7:> E7:> E7:> E7:> E7:> E7:> E7:> E7:> E7:> E7:> E7:> E7:> E7:> E7:> E7:> E7:> E7:> E7:> E7:> E7:> E7:> E7:> E7:> E7:> E7:> E7:> E7:> E7:> E7:> E7:> E7:> E7:> E7:> E7:> E7:> E7:> E7:> E7:> E7:> E7:> E7:> E7:> E7:> E7:> E7:> E7:> E7:> E7:> E7:> E7:> E7:> E7:> E7:> E7:> E7:> E7:> E7:> E7:> E7:> E7:> E7:> E7:> E7:> E7:> E7:> E7:> E7:> E7:> E7:> E7:> E7:> E7:>     F7>: F7>: F7>: F7>: F7>: F7>: F7>: F7>: F7>: F7>: F7>: F7>: F7>: F7>: F7>: F7>: F7>: F7>: F7>: F7>: F7>: F7>: F7>: F7>: F7>: F7>: F7>: F7>: F7>: F7>: F7>: F7>: F7>: F7>: F7>: F7>: F7>: F7>: F7>: F7>: F7>: F7>: F7>: F7>: F7>: F7>: F7>: F7>: F7>: F7>: F7>: F7>: F7>: F7>: F7>: F7>: F7>: F7>: F7>: F7>: F7>: F7>: F7>: F7>: F7>: F7>: F7>: F7>: F7>: F7>: F7>: F7>: F7>: F7>: F7>: F7>: F7>: F7>: F7>: F7>: F7>: F7>: F7>: F7>: F7>: F7>: F7>: F7>: F7>: F7>: F7>: F7>: F7>: F7>: F7>: F7>: F7>: F7>: F7>: F7>: F7>: F7>: F7>: F7>: F7>: F7>: F7>: F7>: F7>: F7>: F7>: F7>: F7>: F7>: F7>: F7>: F7>: F7>: F7>: F7>: F7>: F7>: F7>: F7>: F7>: F7>: F7>: F7>: F7>: F7>: F7>: F7>: F7>: F7>: F7>: F7>: F7>: F7>: F7>: F7>: F7>: F7>: F7>: F7>: F7>: F7>: F7>: F7>: F7>: F7>: F7>: F7>: 7>: 7>: 7>: H7>: H7>: H7>: H7>: H7>: H7>: H7>: H7>: H7>: H7>: H7>: H7>: H7>: H7>: H7>: H7>: H7>: H7>: H7>: H7>: H7>: H7>: H7>: H7>: H7>: H7>: H7>: H7>: H7>: H7>: H7>: H7>: H7>: H7>: H7>: H7>: H7>: H7>: H7>: H7>: H7>: H7>: H7>: H7>: H7>: H7>: H7>: H7>: H7>: H7>: H7>: H7>: H7>: H7>: H7>: H7>: H7>: H7>: H7>: H7>: H7>: H7>: H7>: H7>: H7>: H7>: H7>: H7>: H7>: H7>: H7>: H7>: H7>: H7>: H7>: H7>: H7>: H7>: H7>: H7>: H7>: H7>: H7>: H7>: H7>: H7>: H7>: H7>: H7>: H7>: H7>: H7>: H7>: H7>: H7>: H7>: H7>: H7>: H7>: H7>: H7>: H7>: H7>: H7>: H7>: H7>: H7>: H7>: H7>: H7>: H7>: H7>: H7>: H7>: H7>: H7>: H7>: H7>: H7>: H7>: H7>: H7>: H7>: H7>: H7>: H7>: H7>: H7>: H7>: H7>: H7>: H7>: H7>: H7>: H7>: H7>: H7>: H7>: H7>: H7>: H7>: H7>: H7>: H7>: H7>: H7>: H7>: H7>: H7>: H7>: H7>: H7>:     J69> J69> J69> J69> J69> J69> J69> J69> J69> J69> J69> J69> J69> J69> J69> J69> J69> J69> J69> J69> J69> J69> J69> J69> J69> J69> J69> J69> J69> J69> J69> J69> J69> J69> J69> J69> J69> J69> J69> J69> J69> J69> J69> J69> J69> J69> J69> J69> J69> J69> J69> J69> J69> J69> J69> J69> J69> J69> J69> J69> J69> J69> J69> J69> J69> J69> J69> J69> J69> J69> J69> J69> J69> J69> J69> J69> J69> J69> J69> J69> J69> J69> J69> J69> J69> J69> J69> J69> J69> J69> J69> J69> J69> J69> J69> J69> J69> J69> J69> J69> J69> J69> J69> J69> J69> J69> J69> J69> J69> J69> J69> J69> J69> J69> J69> J69> J69> J69> J69> J69> J69> J69> J69> J69> J69> J69> J69> J69> J69> J69> J69> J69> J69> J69> J69> J69> J69> J69> J69> J69> J69> J69> J69> J69> J69> J69> J69> J69> J69> J69> J69> J69> 69> 69> 69> 69> 69>H 69>H 69>H 69>H 69>H 69>H 69>H 69>H 69>H 69>H 69>H 69>H 69>H 69>H 69>H 69>H 69>H 69>H 69>H 69>H 69>H 69>H 69>H 69>H 69>H 69>H 69>H 69>H 69>H 69>H 69>H 69>H 69>H 69>H 69>H 69>H 69>H 69>H 69>H 69>H 69>H 69>H 69>H 69>H 69>H 69>H 69>H 69>H 69>H 69>H 69>H 69>H 69>H 69>H 69>H 69>H 69>H 69>H 69>H 69>H 69>H 69>H 69>H 69>H 69>H 69>H 69>H 69>H 69>H 69>H 69>H 69>H 69>H 69>H 69>H 69>H 69>H 69>H 69>H 69>H 69>H 69>H 69>H 69>H 69>H 69>H 69>H 69>H 69>H 69>H 69>H 69>H 69>H 69>H 69>H 69>H 69>H 69>H 69>H 69>H 69>H 69>H 69>H 69>H 69>H 69>H 69>H 69>H 69>H 69>H 69>H 69>H 69>H 69>H 69>H 69>H 69>H 69>H 69>H 69>H 69>H 69>H 69>H 69>H 69>H 69>H 69>H 69>H 69>H 69>H 69>H 69>H 69>H 69>H 69>H 69>H 69>H 69>H 69>H 69>H 69>H 69>H 69>H 69>H 69>H 69>H 69>H 69>H 69>H 69>H 69>H H    J692 J692 J692 J692 J692 J692 J692 J692 J692 J692 J692 J692 J692 J692 J692 J692 J692 J692 J692 J692 J692 J692 J692 J692 J692 J692 J692 J692 J692 J692 J692 J692 J692 J692 J692 J692 J692 J692 J692 J692 J692 J692 J692 J692 J692 J692 J692 J692 J692 J692 J692 J692 J692 J692 J692 J692 J692 J692 J692 J692 J692 J692 J692 J692 J692 J692 J692 J692 J692 J692 J692 J692 J692 J692 J692 J692 J692 J692 J692 J692 J692 J692 J692 J692 J692 J692 J692 J692 J692 J692 J692 J692 J692 J692 J692 J692 J692 J692 J692 J692 J692 J692 J692 J692 J692 J692 J692 J692 J692 J692 J692 J692 J692 J692 J692 J692 J692 J692 J692 J692 J692 J692 J692 J692 J692 J692 J692 J692 J692 J692 J692 J692 J692 J692 J692 J692 J692 J692 J692 J692 J692 J692 J692 J692 J692 J692 J692 J692 J692 J692 J692 J692 692 692 692 692 692L 692L 692L 692L 692L 692L 692L 692L 692L 692L 692L 692L 692L 692L 692L 692L 692L 692L 692L 692L 692L 692L 692L 692L 692L 692L 692L 692L 692L 692L 692L 692L 692L 692L 692L 692L 692L 692L 692L 692L 692L 692L 692L 692L 692L 692L 692L 692L 692L 692L 692L 692L 692L 692L 692L 692L 692L 692L 692L 692L 692L 692L 692L 692L 692L 692L 692L 692L 692L 692L 692L 692L 692L 692L 692L 692L 692L 692L 692L 692L 692L 692L 692L 692L 692L 692L 692L 692L 692L 692L 692L 692L 692L 692L 692L 692L 692L 692L 692L 692L 692L 692L 692L 692L 692L 692L 692L 692L 692L 692L 692L 692L 692L 692L 692L 692L 692L 692L 692L 692L 692L 692L 692L 692L 692L 692L 692L 692L 692L 692L 692L 692L 692L 692L 692L 692L 692L 692L 692L 692L 692L 692L 692L 692L 692L 692L 692L 692L 692L 692L 692L L    N962 N962 N962 N962 N962 N962 N962 N962 N962 N962 N962 N962 N962 N962 N962 N962 N962 N962 N962 N962 N962 N962 N962 N962 N962 N962 N962 N962 N962 N962 N962 N962 N962 N962 N962 N962 N962 N962 N962 N962 N962 N962 N962 N962 N962 N962 N962 N962 N962 N962 N962 N962 N962 N962 N962 N962 N962 N962 N962 N962 N962 N962 N962 N962 N962 N962 N962 N962 N962 N962 N962 N962 N962 N962 N962 N962 N962 N962 N962 N962 N962 N962 N962 N962 N962 N962 N962 N962 N962 N962 N962 N962 N962 N962 N962 N962 N962 N962 N962 N962 N962 N962 N962 N962 N962 N962 N962 N962 N962 N962 N962 N962 N962 N962 N962 N962 N962 N962 N962 N962 N962 N962 N962 N962 N962 N962 N962 N962 N962 N962 N962 N962 N962 N962 N962 N962 N962 N962 N962 N962 N962 N962 N962 N962 N962 N962 N962 N962 N962 N962 N962 N962 962 962 962 962 962J 962J 962J 962J 962J 962J 962J 962J 962J 962J 962J 962J 962J 962J 962J 962J 962J 962J 962J 962J 962J 962J 962J 962J 962J 962J 962J 962J 962J 962J 962J 962J 962J 962J 962J 962J 962J 962J 962J 962J 962J 962J 962J 962J 962J 962J 962J 962J 962J 962J 962J 962J 962J 962J 962J 962J 962J 962J 962J 962J 962J 962J 962J 962J 962J 962J 962J 962J 962J 962J 962J 962J 962J 962J 962J 962J 962J 962J 962J 962J 962J 962J 962J 962J 962J 962J 962J 962J 962J 962J 962J 962J 962J 962J 962J 962J 962J 962J 962J 962J 962J 962J 962J 962J 962J 962J 962J 962J 962J 962J 962J 962J 962J 962J 962J 962J 962J 962J 962J 962J 962J 962J 962J 962J 962J 962J 962J 962J 962J 962J 962J 962J 962J 962J 962J 962J 962J 962J 962J 962J 962J 962J 962J 962J 962J 962J 962J 962J 962J 962J 962J J    O27. O27. O27. O27. O27. O27. O27. O27. O27. O27. O27. O27. O27. O27. O27. O27. O27. O27. O27. O27. O27. O27. O27. O27. O27. O27. O27. O27. O27. O27. O27. O27. O27. O27. O27. O27. O27. O27. O27. O27. O27. O27. O27. O27. O27. O27. O27. O27. O27. O27. O27. O27. O27. O27. O27. O27. O27. O27. O27. O27. O27. O27. O27. O27. O27. O27. O27. O27. O27. O27. O27. O27. O27. O27. O27. O27. O27. O27. O27. O27. O27. O27. O27. O27. O27. O27. O27. O27. O27. O27. O27. O27. O27. O27. O27. O27. O27. O27. O27. O27. O27. O27. O27. O27. O27. O27. O27. O27. O27. O27. O27. O27. O27. O27. O27. O27. O27. O27. O27. O27. O27. O27. O27. O27. O27. O27. O27. O27. O27. O27. O27. O27. O27. O27. O27. O27. O27. O27. O27. O27. O27. O27. O27. O27. O27. O27. O27. O27. O27. O27. O27. O27. 27. 27. 27. 27. 27.N 27.N 27.N 27.N 27.N 27.N 27.N 27.N 27.N 27.N 27.N 27.N 27.N 27.N 27.N 27.N 27.N 27.N 27.N 27.N 27.N 27.N 27.N 27.N 27.N 27.N 27.N 27.N 27.N 27.N 27.N 27.N 27.N 27.N 27.N 27.N 27.N 27.N 27.N 27.N 27.N 27.N 27.N 27.N 27.N 27.N 27.N 27.N 27.N 27.N 27.N 27.N 27.N 27.N 27.N 27.N 27.N 27.N 27.N 27.N 27.N 27.N 27.N 27.N 27.N 27.N 27.N 27.N 27.N 27.N 27.N 27.N 27.N 27.N 27.N 27.N 27.N 27.N 27.N 27.N 27.N 27.N 27.N 27.N 27.N 27.N 27.N 27.N 27.N 27.N 27.N 27.N 27.N 27.N 27.N 27.N 27.N 27.N 27.N 27.N 27.N 27.N 27.N 27.N 27.N 27.N 27.N 27.N 27.N 27.N 27.N 27.N 27.N 27.N 27.N 27.N 27.N 27.N 27.N 27.N 27.N 27.N 27.N 27.N 27.N 27.N 27.N 27.N 27.N 27.N 27.N 27.N 27.N 27.N 27.N 27.N 27.N 27.N 27.N 27.N 27.N 27.N 27.N 27.N 27.N 27.N 27.N 27.N 27.N 27.N 27.N N    O27.+ O27.+ O27.+ O27.+ O27.+ O27.+ O27.+ O27.+ O27.+ O27.+ O27.+ O27.+ O27.+ O27.+ O27.+ O27.+ O27.+ O27.+ O27.+ O27.+ O27.+ O27.+ O27.+ O27.+ O27.+ O27.+ O27.+ O27.+ O27.+ O27.+ O27.+ O27.+ O27.+ O27.+ O27.+ O27.+ O27.+ O27.+ O27.+ O27.+ O27.+ O27.+ O27.+ O27.+ O27.+ O27.+ O27.+ O27.+ O27.+ O27.+ O27.+ O27.+ O27.+ O27.+ O27.+ O27.+ O27.+ O27.+ O27.+ O27.+ O27.+ O27.+ O27.+ O27.+ O27.+ O27.+ O27.+ O27.+ O27.+ O27.+ O27.+ O27.+ O27.+ O27.+ O27.+ O27.+ O27.+ O27.+ O27.+ O27.+ O27.+ O27.+ O27.+ O27.+ O27.+ O27.+ O27.+ O27.+ O27.+ O27.+ O27.+ O27.+ O27.+ O27.+ O27.+ O27.+ O27.+ O27.+ O27.+ O27.+ O27.+ O27.+ O27.+ O27.+ O27.+ O27.+ O27.+ O27.+ O27.+ O27.+ O27.+ O27.+ O27.+ O27.+ O27.+ O27.+ O27.+ O27.+ O27.+ O27.+ O27.+ O27.+ O27.+ O27.+ O27.+ O27.+ O27.+ O27.+ O27.+ O27.+ O27.+ O27.+ O27.+ O27.+ O27.+ O27.+ O27.+ O27.+ O27.+ O27.+ O27.+ O27.+ O27.+ O27.+ O27.+ O27.+ O27.+ O27.+ O27.+ O27.+ O27.+ O27.+ 27.+ 27.+ 27.+ 27.+ 27.+Q 27.+Q 27.+Q 27.+Q 27.+Q 27.+Q 27.+Q 27.+Q 27.+Q 27.+Q 27.+Q 27.+Q 27.+Q 27.+Q 27.+Q 27.+Q 27.+Q 27.+Q 27.+Q 27.+Q 27.+Q 27.+Q 27.+Q 27.+Q 27.+Q 27.+Q 27.+Q 27.+Q 27.+Q 27.+Q 27.+Q 27.+Q 27.+Q 27.+Q 27.+Q 27.+Q 27.+Q 27.+Q 27.+Q 27.+Q 27.+Q 27.+Q 27.+Q 27.+Q 27.+Q 27.+Q 27.+Q 27.+Q 27.+Q 27.+Q 27.+Q 27.+Q 27.+Q 27.+Q 27.+Q 27.+Q 27.+Q 27.+Q 27.+Q 27.+Q 27.+Q 27.+Q 27.+Q 27.+Q 27.+Q 27.+Q 27.+Q 27.+Q 27.+Q 27.+Q 27.+Q 27.+Q 27.+Q 27.+Q 27.+Q 27.+Q 27.+Q 27.+Q 27.+Q 27.+Q 27.+Q 27.+Q 27.+Q 27.+Q 27.+Q 27.+Q 27.+Q 27.+Q 27.+Q 27.+Q 27.+Q 27.+Q 27.+Q 27.+Q 27.+Q 27.+Q 27.+Q 27.+Q 27.+Q 27.+Q 27.+Q 27.+Q 27.+Q 27.+Q 27.+Q 27.+Q 27.+Q 27.+Q 27.+Q 27.+Q 27.+Q 27.+Q 27.+Q 27.+Q 27.+Q 27.+Q 27.+Q 27.+Q 27.+Q 27.+Q 27.+Q 27.+Q 27.+Q 27.+Q 27.+Q 27.+Q 27.+Q 27.+Q 27.+Q 27.+Q 27.+Q 27.+Q 27.+Q 27.+Q 27.+Q 27.+Q 27.+Q 27.+Q 27.+Q 27.+Q 27.+Q 27.+Q 27.+Q 27.+Q 27.+Q 27.+Q 27.+Q 27.+Q 27.+Q 27.+Q 27.+Q Q    R2+. R2+. R2+. R2+. R2+. R2+. R2+. R2+. R2+. R2+. R2+. R2+. R2+. R2+. R2+. R2+. R2+. R2+. R2+. R2+. R2+. R2+. R2+. R2+. R2+. R2+. R2+. R2+. R2+. R2+. R2+. R2+. R2+. R2+. R2+. R2+. R2+. R2+. R2+. R2+. R2+. R2+. R2+. R2+. R2+. R2+. R2+. R2+. R2+. R2+. R2+. R2+. R2+. R2+. R2+. R2+. R2+. R2+. R2+. R2+. R2+. R2+. R2+. R2+. R2+. R2+. R2+. R2+. R2+. R2+. R2+. R2+. R2+. R2+. R2+. R2+. R2+. R2+. R2+. R2+. R2+. R2+. R2+. R2+. R2+. R2+. R2+. R2+. R2+. R2+. R2+. R2+. R2+. R2+. R2+. R2+. R2+. R2+. R2+. R2+. R2+. R2+. R2+. R2+. R2+. R2+. R2+. R2+. R2+. R2+. R2+. R2+. R2+. R2+. R2+. R2+. R2+. R2+. R2+. R2+. R2+. R2+. R2+. R2+. R2+. R2+. R2+. R2+. R2+. R2+. R2+. R2+. R2+. R2+. R2+. R2+. R2+. R2+. R2+. R2+. R2+. R2+. R2+. R2+. R2+. R2+. R2+. R2+. R2+. R2+. R2+. R2+. 2+. 2+. 2+. 2+. 2+.O 2+.O 2+.O 2+.O 2+.O 2+.O 2+.O 2+.O 2+.O 2+.O 2+.O 2+.O 2+.O 2+.O 2+.O 2+.O 2+.O 2+.O 2+.O 2+.O 2+.O 2+.O 2+.O 2+.O 2+.O 2+.O 2+.O 2+.O 2+.O 2+.O 2+.O 2+.O 2+.O 2+.O 2+.O 2+.O 2+.O 2+.O 2+.O 2+.O 2+.O 2+.O 2+.O 2+.O 2+.O 2+.O 2+.O 2+.O 2+.O 2+.O 2+.O 2+.O 2+.O 2+.O 2+.O 2+.O 2+.O 2+.O 2+.O 2+.O 2+.O 2+.O 2+.O 2+.O 2+.O 2+.O 2+.O 2+.O 2+.O 2+.O 2+.O 2+.O 2+.O 2+.O 2+.O 2+.O 2+.O 2+.O 2+.O 2+.O 2+.O 2+.O 2+.O 2+.O 2+.O 2+.O 2+.O 2+.O 2+.O 2+.O 2+.O 2+.O 2+.O 2+.O 2+.O 2+.O 2+.O 2+.O 2+.O 2+.O 2+.O 2+.O 2+.O 2+.O 2+.O 2+.O 2+.O 2+.O 2+.O 2+.O 2+.O 2+.O 2+.O 2+.O 2+.O 2+.O 2+.O 2+.O 2+.O 2+.O 2+.O 2+.O 2+.O 2+.O 2+.O 2+.O 2+.O 2+.O 2+.O 2+.O 2+.O 2+.O 2+.O 2+.O 2+.O 2+.O 2+.O 2+.O 2+.O 2+.O 2+.O 2+.O 2+.O 2+.O 2+.O 2+.O 2+.O 2+.O 2+.O 2+.O 2+.O O    Q2&*- Q2&*- Q2&*- Q2&*- Q2&*- Q2&*- Q2&*- Q2&*- Q2&*- Q2&*- Q2&*- Q2&*- Q2&*- Q2&*- Q2&*- Q2&*- Q2&*- Q2&*- Q2&*- Q2&*- Q2&*- Q2&*- Q2&*- Q2&*- Q2&*- Q2&*- Q2&*- Q2&*- Q2&*- Q2&*- Q2&*- Q2&*- Q2&*- Q2&*- Q2&*- Q2&*- Q2&*- Q2&*- Q2&*- Q2&*- Q2&*- Q2&*- Q2&*- Q2&*- Q2&*- Q2&*- Q2&*- Q2&*- Q2&*- Q2&*- Q2&*- Q2&*- Q2&*- Q2&*- Q2&*- Q2&*- Q2&*- Q2&*- Q2&*- Q2&*- Q2&*- Q2&*- Q2&*- Q2&*- Q2&*- Q2&*- Q2&*- Q2&*- Q2&*- Q2&*- Q2&*- Q2&*- Q2&*- Q2&*- Q2&*- Q2&*- Q2&*- Q2&*- Q2&*- Q2&*- Q2&*- Q2&*- Q2&*- Q2&*- Q2&*- Q2&*- Q2&*- Q2&*- Q2&*- Q2&*- Q2&*- Q2&*- Q2&*- Q2&*- Q2&*- Q2&*- Q2&*- Q2&*- Q2&*- Q2&*- Q2&*- Q2&*- Q2&*- Q2&*- Q2&*- Q2&*- Q2&*- Q2&*- Q2&*- Q2&*- Q2&*- Q2&*- Q2&*- Q2&*- Q2&*- Q2&*- Q2&*- Q2&*- Q2&*- Q2&*- Q2&*- Q2&*- Q2&*- Q2&*- Q2&*- Q2&*- Q2&*- Q2&*- Q2&*- Q2&*- Q2&*- Q2&*- Q2&*- Q2&*- Q2&*- Q2&*- Q2&*- Q2&*- Q2&*- Q2&*- Q2&*- Q2&*- Q2&*- Q2&*- Q2&*- Q2&*- Q2&*- Q2&*- Q2&*- Q2&*- Q2&*- Q2&*- 2&*- 2&*- 2&*- 2&*- O2&*- O2&*- O2&*- O2&*- O2&*- O2&*- O2&*- O2&*- O2&*- O2&*- O2&*- O2&*- O2&*- O2&*- O2&*- O2&*- O2&*- O2&*- O2&*- O2&*- O2&*- O2&*- O2&*- O2&*- O2&*- O2&*- O2&*- O2&*- O2&*- O2&*- O2&*- O2&*- O2&*- O2&*- O2&*- O2&*- O2&*- O2&*- O2&*- O2&*- O2&*- O2&*- O2&*- O2&*- O2&*- O2&*- O2&*- O2&*- O2&*- O2&*- O2&*- O2&*- O2&*- O2&*- O2&*- O2&*- O2&*- O2&*- O2&*- O2&*- O2&*- O2&*- O2&*- O2&*- O2&*- O2&*- O2&*- O2&*- O2&*- O2&*- O2&*- O2&*- O2&*- O2&*- O2&*- O2&*- O2&*- O2&*- O2&*- O2&*- O2&*- O2&*- O2&*- O2&*- O2&*- O2&*- O2&*- O2&*- O2&*- O2&*- O2&*- O2&*- O2&*- O2&*- O2&*- O2&*- O2&*- O2&*- O2&*- O2&*- O2&*- O2&*- O2&*- O2&*- O2&*- O2&*- O2&*- O2&*- O2&*- O2&*- O2&*- O2&*- O2&*- O2&*- O2&*- O2&*- O2&*- O2&*- O2&*- O2&*- O2&*- O2&*- O2&*- O2&*- O2&*- O2&*- O2&*- O2&*- O2&*- O2&*- O2&*- O2&*- O2&*- O2&*- O2&*- O2&*- O2&*- O2&*- O2&*- O2&*- O2&*- O2&*- O2&*- O2&*- O2&*- O2&*- O2&*- O2&*- O2&*- O2&*- O2&*- O2&*- 2&*- 2&*- 2&*- N2&*- N2&*- N2&*- N2&*- N2&*- N2&*- N2&*- N2&*- N2&*- N2&*- N2&*- N2&*- N2&*- N2&*- N2&*- N2&*- N2&*- N2&*- N2&*- N2&*- N2&*- N2&*- N2&*- N2&*- N2&*- N2&*- N2&*- N2&*- N2&*- N2&*- N2&*- N2&*- N2&*- N2&*- N2&*- N2&*- N2&*- N2&*- N2&*- N2&*- N2&*- N2&*- N2&*- N2&*- N2&*- N2&*- N2&*- N2&*- N2&*- N2&*- N2&*- N2&*- N2&*- N2&*- N2&*- N2&*- N2&*- N2&*- N2&*- N2&*- N2&*- N2&*- N2&*- N2&*- N2&*- N2&*- N2&*- N2&*- N2&*- N2&*- N2&*- N2&*- N2&*- N2&*- N2&*- N2&*- N2&*- N2&*- N2&*- N2&*- N2&*- N2&*- N2&*- N2&*- N2&*- N2&*- N2&*- N2&*- N2&*- N2&*- N2&*- N2&*- N2&*- N2&*- N2&*- N2&*- N2&*- N2&*- N2&*- N2&*- N2&*- N2&*- N2&*- N2&*- N2&*- N2&*- N2&*- N2&*- N2&*- N2&*- N2&*- N2&*- N2&*- N2&*- N2&*- N2&*- N2&*- N2&*- N2&*- N2&*- N2&*- N2&*- N2&*- N2&*- N2&*- N2&*- N2&*- N2&*- N2&*- N2&*- N2&*- N2&*- N2&*- N2&*- N2&*- N2&*- N2&*- N2&*- N2&*- N2&*- N2&*- N2&*- N2&*- N2&*- N2&*- N2&*- N2&*- N2&*- N2&*- N2&*- N2&*- N2&*- 2&*- 2&*- 2&*- 2&*- L2&*- L2&*- L2&*- L2&*- L2&*- L2&*- L2&*- L2&*- L2&*- L2&*- L2&*- L2&*- L2&*- L2&*- L2&*- L2&*- L2&*- L2&*- L2&*- L2&*- L2&*- L2&*- L2&*- L2&*- L2&*- L2&*- L2&*- L2&*- L2&*- L2&*- L2&*- L2&*- L2&*- L2&*- L2&*- L2&*- L2&*- L2&*- L2&*- L2&*- L2&*- L2&*- L2&*- L2&*- L2&*- L2&*- L2&*- L2&*- L2&*- L2&*- L2&*- L2&*- L2&*- L2&*- L2&*- L2&*- L2&*- L2&*- L2&*- L2&*- L2&*- L2&*- L2&*- L2&*- L2&*- L2&*- L2&*- L2&*- L2&*- L2&*- L2&*- L2&*- L2&*- L2&*- L2&*- L2&*- L2&*- L2&*- L2&*- L2&*- L2&*- L2&*- L2&*- L2&*- L2&*- L2&*- L2&*- L2&*- L2&*- L2&*- L2&*- L2&*- L2&*- L2&*- L2&*- L2&*- L2&*- L2&*- L2&*- L2&*- L2&*- L2&*- L2&*- L2&*- L2&*- L2&*- L2&*- L2&*- L2&*- L2&*- L2&*- L2&*- L2&*- L2&*- L2&*- L2&*- L2&*- L2&*- L2&*- L2&*- L2&*- L2&*- L2&*- L2&*- L2&*- L2&*- L2&*- L2&*- L2&*- L2&*- L2&*- L2&*- L2&*- L2&*- L2&*- L2&*- L2&*- L2&*- L2&*- L2&*- L2&*- L2&*- L2&*- L2&*- L2&*- L2&*- L2&*- L2&*- L2&*- L2&*- L2&*- L2&*- 2&*- 2&*- 2&*- 2&*-J 2&*-J 2&*-J 2&*-J 2&*-J 2&*-J 2&*-J 2&*-J 2&*-J 2&*-J 2&*-J 2&*-J 2&*-J 2&*-J 2&*-J 2&*-J 2&*-J 2&*-J 2&*-J 2&*-J 2&*-J 2&*-J 2&*-J 2&*-J 2&*-J 2&*-J 2&*-J 2&*-J 2&*-J 2&*-J 2&*-J 2&*-J 2&*-J 2&*-J 2&*-J 2&*-J 2&*-J 2&*-J 2&*-J 2&*-J 2&*-J 2&*-J 2&*-J 2&*-J 2&*-J 2&*-J 2&*-J 2&*-J 2&*-J 2&*-J 2&*-J 2&*-J 2&*-J 2&*-J 2&*-J 2&*-J 2&*-J 2&*-J 2&*-J 2&*-J 2&*-J 2&*-J 2&*-J 2&*-J 2&*-J 2&*-J 2&*-J 2&*-J 2&*-J 2&*-J 2&*-J 2&*-J 2&*-J 2&*-J 2&*-J 2&*-J 2&*-J 2&*-J 2&*-J 2&*-J 2&*-J 2&*-J 2&*-J 2&*-J 2&*-J 2&*-J 2&*-J 2&*-J 2&*-J 2&*-J J J J J J J J J J J J J J J J J J J J J J J J J J J J J J J J J J J J J J J J J J J J J J J J J J J J J J J J J J J J J J J     H H H H H H H H H H H H H H H H H H H H H H H H H H H H H H H H H H H H H H H H H H H H H H H H H H H H H H H H H H H H H H H H H H H H H H H H H H H H H H H H H H H H H H H H H H H H H H H H H H H H H H H H H H H H H H H H H H H H H H H H H H H H H H H H H H H H H H H H H H H H H H H H H H H H H H H H    F F F F F F F F F F F F F F F F F F F F F F F F F F F F F F F F F F F F F F F F F F F F F F F F F F F F F F F F F F F F F F F F F F F F F F F F F F F F F F F F F F F F F F F F F F F F F F F F F F F F F F F F F F F F F F F F F F F F F F F F F F F F F F F F F F F F F F F F F F F F F F F F F F F F F F F F F F F F FE FE FE FE FE FE FE FE FE FE FE FE FE FE FE FE FE FE FE FE FE FE FE FE FE FE FE FE FE FE FE FE FE FE FE FE FE FE FE FE FE FE FE FE FE FE FE FE FE FE FE FE FE FE FE FE FE FE FE FE FE FE FE FE FE FE FE FE FE FE FE FE FE FE FE FE FE FE FE FE FE FE FE FE FE FE FE FE FE FE FE FE FE FE FE FE FE FE FE FE FE FE FE FE FE FE FE FE FE FE FE FE FE FE FE FE FE FE FE FE FE FE FE FE FE FE FE FE FE FE FE FE FE FE FE FE FE FE FE FE FE FE FE FE FE FE FE FE FE FE FE E    COFJ COFJ COFJ COFJ COFJ COFJ COFJ COFJ COFJ COFJ COFJ COFJ COFJ COFJ COFJ COFJ COFJ COFJ COFJ COFJ COFJ COFJ COFJ COFJ COFJ COFJ COFJ COFJ COFJ COFJ COFJ COFJ COFJ COFJ COFJ COFJ COFJ COFJ COFJ COFJ COFJ COFJ COFJ COFJ COFJ COFJ COFJ COFJ COFJ COFJ COFJ COFJ COFJ COFJ COFJ COFJ COFJ COFJ COFJ COFJ COFJ COFJ COFJ COFJ COFJ COFJ COFJ COFJ COFJ COFJ COFJ COFJ COFJ COFJ COFJ COFJ COFJ COFJ COFJ COFJ COFJ COFJ COFJ COFJ COFJ COFJ COFJ COFJ COFJ COFJ COFJ COFJ COFJ COFJ COFJ COFJ COFJ COFJ COFJ COFJ COFJ COFJ COFJ COFJ COFJ COFJ COFJ COFJ COFJ COFJ COFJ COFJ COFJ COFJ COFJ COFJ COFJ COFJ COFJ COFJ COFJ COFJ COFJ COFJ COFJ COFJ COFJ COFJ COFJ COFJ COFJ COFJ COFJ COFJ COFJ COFJ COFJ COFJ COFJ COFJ COFJ COFJ COFJ COFJ COFJ COFJ COFJ COFJ COFJ COFJ COFJ COFJ OFJ OFJ OFJ OFJ OFJA OFJA OFJA OFJA OFJA OFJA OFJA OFJA OFJA OFJA OFJA OFJA OFJA OFJA OFJA OFJA OFJA OFJA OFJA OFJA OFJA OFJA OFJA OFJA OFJA OFJA OFJA OFJA OFJA OFJA OFJA OFJA OFJA OFJA OFJA OFJA OFJA OFJA OFJA OFJA OFJA OFJA OFJA OFJA OFJA OFJA OFJA OFJA OFJA OFJA OFJA OFJA OFJA OFJA OFJA OFJA OFJA OFJA OFJA OFJA OFJA OFJA OFJA OFJA OFJA OFJA OFJA OFJA OFJA OFJA OFJA OFJA OFJA OFJA OFJA OFJA OFJA OFJA OFJA OFJA OFJA OFJA OFJA OFJA OFJA OFJA OFJA OFJA OFJA OFJA OFJA OFJA OFJA OFJA OFJA OFJA OFJA OFJA OFJA OFJA OFJA OFJA OFJA OFJA OFJA OFJA OFJA OFJA OFJA OFJA OFJA OFJA OFJA OFJA OFJA OFJA OFJA OFJA OFJA OFJA OFJA OFJA OFJA OFJA OFJA OFJA OFJA OFJA OFJA OFJA OFJA OFJA OFJA OFJA OFJA OFJA OFJA OFJA OFJA OFJA OFJA OFJA OFJA OFJA OFJA OFJA OFJA OFJA OFJA OFJA OFJA A    ?OFJ ?OFJ ?OFJ ?OFJ ?OFJ ?OFJ ?OFJ ?OFJ ?OFJ ?OFJ ?OFJ ?OFJ ?OFJ ?OFJ ?OFJ ?OFJ ?OFJ ?OFJ ?OFJ ?OFJ ?OFJ ?OFJ ?OFJ ?OFJ ?OFJ ?OFJ ?OFJ ?OFJ ?OFJ ?OFJ ?OFJ ?OFJ ?OFJ ?OFJ ?OFJ ?OFJ ?OFJ ?OFJ ?OFJ ?OFJ ?OFJ ?OFJ ?OFJ ?OFJ ?OFJ ?OFJ ?OFJ ?OFJ ?OFJ ?OFJ ?OFJ ?OFJ ?OFJ ?OFJ ?OFJ ?OFJ ?OFJ ?OFJ ?OFJ ?OFJ ?OFJ ?OFJ ?OFJ ?OFJ ?OFJ ?OFJ ?OFJ ?OFJ ?OFJ ?OFJ ?OFJ ?OFJ ?OFJ ?OFJ ?OFJ ?OFJ ?OFJ ?OFJ ?OFJ ?OFJ ?OFJ ?OFJ ?OFJ ?OFJ ?OFJ ?OFJ ?OFJ ?OFJ ?OFJ ?OFJ ?OFJ ?OFJ ?OFJ ?OFJ ?OFJ ?OFJ ?OFJ ?OFJ ?OFJ ?OFJ ?OFJ ?OFJ ?OFJ ?OFJ ?OFJ ?OFJ ?OFJ ?OFJ ?OFJ ?OFJ ?OFJ ?OFJ ?OFJ ?OFJ ?OFJ ?OFJ ?OFJ ?OFJ ?OFJ ?OFJ ?OFJ ?OFJ ?OFJ ?OFJ ?OFJ ?OFJ ?OFJ ?OFJ ?OFJ ?OFJ ?OFJ ?OFJ ?OFJ ?OFJ ?OFJ ?OFJ ?OFJ ?OFJ ?OFJ ?OFJ ?OFJ ?OFJ ?OFJ ?OFJ ?OFJ ?OFJ ?OFJ ?OFJ ?OFJ ?OFJ ?OFJ ?OFJ OFJ OFJ OFJ OFJ OFJ> OFJ> OFJ> OFJ> OFJ> OFJ> OFJ> OFJ> OFJ> OFJ> OFJ> OFJ> OFJ> OFJ> OFJ> OFJ> OFJ> OFJ> OFJ> OFJ> OFJ> OFJ> OFJ> OFJ> OFJ> OFJ> OFJ> OFJ> OFJ> OFJ> OFJ> OFJ> OFJ> OFJ> OFJ> OFJ> OFJ> OFJ> OFJ> OFJ> OFJ> OFJ> OFJ> OFJ> OFJ> OFJ> OFJ> OFJ> OFJ> OFJ> OFJ> OFJ> OFJ> OFJ> OFJ> OFJ> OFJ> OFJ> OFJ> OFJ> OFJ> OFJ> OFJ> OFJ> OFJ> OFJ> OFJ> OFJ> OFJ> OFJ> OFJ> OFJ> OFJ> OFJ> OFJ> OFJ> OFJ> OFJ> OFJ> OFJ> OFJ> OFJ> OFJ> OFJ> OFJ> OFJ> OFJ> OFJ> OFJ> OFJ> OFJ> OFJ> OFJ> OFJ> OFJ> OFJ> OFJ> OFJ> OFJ> OFJ> OFJ> OFJ> OFJ> OFJ> OFJ> OFJ> OFJ> OFJ> OFJ> OFJ> OFJ> OFJ> OFJ> OFJ> OFJ> OFJ> OFJ> OFJ> OFJ> OFJ> OFJ> OFJ> OFJ> OFJ> OFJ> OFJ> OFJ> OFJ> OFJ> OFJ> OFJ> OFJ> OFJ> OFJ> OFJ> OFJ> OFJ> OFJ> OFJ> OFJ> OFJ> OFJ> OFJ> OFJ> OFJ> OFJ> OFJ> OFJ> OFJ> OFJ> OFJ> >    K<H K<H K<H K<H K<H K<H K<H K<H K<H K<H K<H K<H K<H K<H K<H K<H K<H K<H K<H K<H K<H K<H K<H K<H K<H K<H K<H K<H K<H K<H K<H K<H K<H K<H K<H K<H K<H K<H K<H K<H K<H K<H K<H K<H K<H K<H K<H K<H K<H K<H K<H K<H K<H K<H K<H K<H K<H K<H K<H K<H K<H K<H K<H K<H K<H K<H K<H K<H K<H K<H K<H K<H K<H K<H K<H K<H K<H K<H K<H K<H K<H K<H K<H K<H K<H K<H K<H K<H K<H K<H K<H K<H K<H K<H K<H K<H K<H K<H K<H K<H K<H K<H K<H K<H K<H K<H K<H K<H K<H K<H K<H K<H K<H K<H K<H K<H K<H K<H K<H K<H K<H K<H K<H K<H K<H K<H K<H K<H K<H K<H K<H K<H K<H K<H K<H K<H K<H K<H K<H K<H K<H K<H K<H K<H K<H K<H K<H K<H K<H K<H K<H K<H H H H H M>H M>H M>H M>H M>H M>H M>H M>H M>H M>H M>H M>H M>H M>H M>H M>H M>H M>H M>H M>H M>H M>H M>H M>H M>H M>H M>H M>H M>H M>H M>H M>H M>H M>H M>H M>H M>H M>H M>H M>H M>H M>H M>H M>H M>H M>H M>H M>H M>H M>H M>H M>H M>H M>H M>H M>H M>H M>H M>H M>H M>H M>H M>H M>H M>H M>H M>H M>H M>H M>H M>H M>H M>H M>H M>H M>H M>H M>H M>H M>H M>H M>H M>H M>H M>H M>H M>H M>H M>H M>H M>H M>H M>H M>H M>H M>H M>H M>H M>H M>H M>H M>H M>H M>H M>H M>H M>H M>H M>H M>H M>H M>H M>H M>H M>H M>H M>H M>H M>H M>H M>H M>H M>H M>H M>H M>H M>H M>H M>H M>H M>H M>H M>H M>H M>H M>H M>H M>H M>H M>H M>H M>H M>H M>H M>H M>H M>H M>H M>H M>H M>H M>H H H H H HK< HK< HK< HK< HK< HK< HK< HK< HK< HK< HK< HK< HK< HK< HK< HK< HK< HK< HK< HK< HK< HK< HK< HK< HK< HK< HK< HK< HK< HK< HK< HK< HK< HK< HK< HK< HK< HK< HK< HK< HK< HK< HK< HK< HK< HK< HK< HK< HK< HK< HK< HK< HK< HK< HK< HK< HK< HK< HK< HK< HK< HK< HK< HK< HK< HK< HK< HK< HK< HK< HK< HK< HK< HK< HK< HK< HK< HK< HK< HK< HK< HK< HK< HK< HK< HK< HK< HK< HK< HK< HK< HK< HK< HK< HK< HK< HK< HK< HK< HK< HK< HK< HK< HK< HK< HK< HK< HK< HK< HK< HK< HK< HK< HK< HK< HK< HK< HK< HK< HK< HK< HK< HK< HK< HK< HK< HK< HK< HK< HK< HK< HK< HK< HK< HK< HK< HK< HK< HK< HK< HK< HK< HK< HK< HK< HK< HK< K< K< K< K< K<    J: J: J: J: J: J: J: J: J: J: J: J: J: J: J: J: J: J: J: J: J: J: J: J: J: J: J: J: J: J: J: J: J: J: J: J: J: J: J: J: J: J: J: J: J: J: J: J: J: J: J: J: J: J: J: J: J: J: J: J: J: J: J: J: J: J: J: J: J: J: J: J: J: J: J: J: J: J: J: J: J: J: J: J: J: J: J: J: J: J: J: J: J: J: J: J: J: J: J: J: J: J: J: J: J: J: J: J: J: J: J: J: J: J: J: J: J: J: J: J: J: J: J: J: J: J: J: J: J: J: J: J: J: J: J: J: J: J: J: J: J: J: J: J: J: J: J: J: J: J: J: J:     H9 H9 H9 H9 H9 H9 H9 H9 H9 H9 H9 H9 H9 H9 H9 H9 H9 H9 H9 H9 H9 H9 H9 H9 H9 H9 H9 H9 H9 H9 H9 H9 H9 H9 H9 H9 H9 H9 H9 H9 H9 H9 H9 H9 H9 H9 H9 H9 H9 H9 H9 H9 H9 H9 H9 H9 H9 H9 H9 H9 H9 H9 H9 H9 H9 H9 H9 H9 H9 H9 H9 H9 H9 H9 H9 H9 H9 H9 H9 H9 H9 H9 H9 H9 H9 H9 H9 H9 H9 H9 H9 H9 H9 H9 H9 H9 H9 H9 H9 H9 H9 H9 H9 H9 H9 H9 H9 H9 H9 H9 H9 H9 H9 H9 H9 H9 H9 H9 H9 H9 H9 H9 H9 H9 H9 H9 H9 H9 H9 H9 H9 H9 H9 H9 H9 H9 H9 H9 H9 H9 H9 H9 H9 H9 H9 H9 H9 H9 H9 H9 H9 H9    F7 F7 F7 F7 F7 F7 F7 F7 F7 F7 F7 F7 F7 F7 F7 F7 F7 F7 F7 F7 F7 F7 F7 F7 F7 F7 F7 F7 F7 F7 F7 F7 F7 F7 F7 F7 F7 F7 F7 F7 F7 F7 F7 F7 F7 F7 F7 F7 F7 F7 F7 F7 F7 F7 F7 F7 F7 F7 F7 F7 F7 F7 F7 F7 F7 F7 F7 F7 F7 F7 F7 F7 F7 F7 F7 F7 F7 F7 F7 F7 F7 F7 F7 F7 F7 F7 F7 F7 F7 F7 F7 F7 F7 F7 F7 F7 F7 F7 F7 F7 F7 F7 F7 F7 F7 F7 F7 F7 F7 F7 F7 F7 F7 F7 F7 F7 F7 F7 F7 F7 F7 F7 F7 F7 F7 F7 F7 F7 F7 F7 F7 F7 F7 F7 F7 F7 F7 F7 F7 F7 F7 F7 F7 F7 F7 F7 F7 F7 F7 F7 F7 F7     5E 5E 5E 5E 5E 5E 5E 5E 5E 5E 5E 5E 5E 5E 5E 5E 5E 5E 5E 5E 5E 5E 5E 5E 5E 5E 5E 5E 5E 5E 5E 5E 5E 5E 5E 5E 5E 5E 5E 5E 5E 5E 5E 5E 5E 5E 5E 5E 5E 5E 5E 5E 5E 5E 5E 5E 5E 5E 5E 5E 5E 5E 5E 5E 5E 5E 5E 5E 5E 5E 5E 5E 5E 5E 5E 5E 5E 5E 5E 5E 5E 5E 5E 5E 5E 5E 5E 5E 5E 5E 5E 5E 5E 5E 5E 5E 5E 5E 5E 5E 5E 5E 5E 5E 5E 5E 5E 5E 5E 5E 5E 5E 5E 5E 5E 5E 5E 5E 5E 5E 5E 5E 5E 5E 5E 5E 5E 5E 5E 5E 5E 5E 5E 5E 5E 5E 5E 5E 5E 5E 5E 5E 5E 5E 5E 5E 5E 5E 5E 5E 5E 5E E E E CE CE CE CE CE CE CE CE CE CE CE CE CE CE CE CE CE CE CE CE CE CE CE CE CE CE CE CE CE CE CE CE CE CE CE CE CE CE CE CE CE CE CE CE CE CE CE CE CE CE CE CE CE CE CE CE CE CE CE CE CE CE CE CE CE CE CE CE CE CE CE CE CE CE CE CE CE CE CE CE CE CE CE CE CE CE CE CE CE CE CE CE CE CE CE CE CE CE CE CE CE CE CE CE CE CE CE CE CE CE CE CE CE CE CE CE CE CE CE CE CE CE CE CE CE CE CE CE CE CE CE CE CE CE CE CE CE CE CE CE CE CE CE CE CE CE CE CE CE CE CE CE     AEHM AEHM AEHM AEHM AEHM AEHM AEHM AEHM AEHM AEHM AEHM AEHM AEHM AEHM AEHM AEHM AEHM AEHM AEHM AEHM AEHM AEHM AEHM AEHM AEHM AEHM AEHM AEHM AEHM AEHM AEHM AEHM AEHM AEHM AEHM AEHM AEHM AEHM AEHM AEHM AEHM AEHM AEHM AEHM AEHM AEHM AEHM AEHM AEHM AEHM AEHM AEHM AEHM AEHM AEHM AEHM AEHM AEHM AEHM AEHM AEHM AEHM AEHM AEHM AEHM AEHM AEHM AEHM AEHM AEHM AEHM AEHM AEHM AEHM AEHM AEHM AEHM AEHM AEHM AEHM AEHM AEHM AEHM AEHM AEHM AEHM AEHM AEHM AEHM AEHM AEHM AEHM AEHM AEHM AEHM AEHM AEHM AEHM AEHM AEHM AEHM AEHM AEHM AEHM AEHM AEHM AEHM AEHM AEHM AEHM AEHM AEHM AEHM AEHM AEHM AEHM AEHM AEHM AEHM AEHM AEHM AEHM AEHM AEHM AEHM AEHM AEHM AEHM AEHM AEHM AEHM AEHM AEHM AEHM AEHM AEHM AEHM AEHM AEHM AEHM AEHM AEHM AEHM AEHM AEHM AEHM AEHM AEHM AEHM AEHM AEHM AEHM EHM EHM EHM ?EHM ?EHM ?EHM ?EHM ?EHM ?EHM ?EHM ?EHM ?EHM ?EHM ?EHM ?EHM ?EHM ?EHM ?EHM ?EHM ?EHM ?EHM ?EHM ?EHM ?EHM ?EHM ?EHM ?EHM ?EHM ?EHM ?EHM ?EHM ?EHM ?EHM ?EHM ?EHM ?EHM ?EHM ?EHM ?EHM ?EHM ?EHM ?EHM ?EHM ?EHM ?EHM ?EHM ?EHM ?EHM ?EHM ?EHM ?EHM ?EHM ?EHM ?EHM ?EHM ?EHM ?EHM ?EHM ?EHM ?EHM ?EHM ?EHM ?EHM ?EHM ?EHM ?EHM ?EHM ?EHM ?EHM ?EHM ?EHM ?EHM ?EHM ?EHM ?EHM ?EHM ?EHM ?EHM ?EHM ?EHM ?EHM ?EHM ?EHM ?EHM ?EHM ?EHM ?EHM ?EHM ?EHM ?EHM ?EHM ?EHM ?EHM ?EHM ?EHM ?EHM ?EHM ?EHM ?EHM ?EHM ?EHM ?EHM ?EHM ?EHM ?EHM ?EHM ?EHM ?EHM ?EHM ?EHM ?EHM ?EHM ?EHM ?EHM ?EHM ?EHM ?EHM ?EHM ?EHM ?EHM ?EHM ?EHM ?EHM ?EHM ?EHM ?EHM ?EHM ?EHM ?EHM ?EHM ?EHM ?EHM ?EHM ?EHM ?EHM ?EHM ?EHM ?EHM ?EHM ?EHM ?EHM ?EHM ?EHM ?EHM ?EHM ?EHM ?EHM ?EHM ?EHM ?EHM ?EHM ?EHM ?EHM ?EHM ?EHM     >HME >HME >HME >HME >HME >HME >HME >HME >HME >HME >HME >HME >HME >HME >HME >HME >HME >HME >HME >HME >HME >HME >HME >HME >HME >HME >HME >HME >HME >HME >HME >HME >HME >HME >HME >HME >HME >HME >HME >HME >HME >HME >HME >HME >HME >HME >HME >HME >HME >HME >HME >HME >HME >HME >HME >HME >HME >HME >HME >HME >HME >HME >HME >HME >HME >HME >HME >HME >HME >HME >HME >HME >HME >HME >HME >HME >HME >HME >HME >HME >HME >HME >HME >HME >HME >HME >HME >HME >HME >HME >HME >HME >HME >HME >HME >HME >HME >HME >HME >HME >HME >HME >HME >HME >HME >HME >HME >HME >HME >HME >HME >HME >HME >HME >HME >HME >HME >HME >HME >HME >HME >HME >HME >HME >HME >HME >HME >HME >HME >HME >HME >HME >HME >HME >HME >HME >HME >HME >HME >HME >HME >HME >HME >HME >HME >HME >HME >HME >HME >HME >HME >HME HME HME HME <HME <HME <HME <HME <HME <HME <HME <HME <HME <HME <HME <HME <HME <HME <HME <HME <HME <HME <HME <HME <HME <HME <HME <HME <HME <HME <HME <HME <HME <HME <HME <HME <HME <HME <HME <HME <HME <HME <HME <HME <HME <HME <HME <HME <HME <HME <HME <HME <HME <HME <HME <HME <HME <HME <HME <HME <HME <HME <HME <HME <HME <HME <HME <HME <HME <HME <HME <HME <HME <HME <HME <HME <HME <HME <HME <HME <HME <HME <HME <HME <HME <HME <HME <HME <HME <HME <HME <HME <HME <HME <HME <HME <HME <HME <HME <HME <HME <HME <HME <HME <HME <HME <HME <HME <HME <HME <HME <HME <HME <HME <HME <HME <HME <HME <HME <HME <HME <HME <HME <HME <HME <HME <HME <HME <HME <HME <HME <HME <HME <HME <HME <HME <HME <HME <HME <HME <HME <HME <HME <HME <HME <HME <HME <HME <HME <HME <HME <HME <HME <HME <HME <HME     J:F J:F J:F J:F J:F J:F J:F J:F J:F J:F J:F J:F J:F J:F J:F J:F J:F J:F J:F J:F J:F J:F J:F J:F J:F J:F J:F J:F J:F J:F J:F J:F J:F J:F J:F J:F J:F J:F J:F J:F J:F J:F J:F J:F J:F J:F J:F J:F J:F J:F J:F J:F J:F J:F J:F J:F J:F J:F J:F J:F J:F J:F J:F J:F J:F J:F J:F J:F J:F J:F J:F J:F J:F J:F J:F J:F J:F J:F J:F J:F J:F J:F J:F J:F J:F J:F J:F J:F J:F J:F J:F J:F J:F J:F J:F J:F J:F J:F J:F J:F J:F J:F J:F J:F J:F J:F J:F J:F J:F J:F J:F J:F J:F J:F J:F J:F J:F J:F J:F J:F J:F J:F J:F J:F J:F J:F J:F J:F J:F J:F J:F J:F J:F J:F J:F J:F J:F J:F J:F J:F J:F J:F J:F J:F J:F J:F J:F J:F J:F J:F J:F J:F F F F K<F K<F K<F K<F K<F K<F K<F K<F K<F K<F K<F K<F K<F K<F K<F K<F K<F K<F K<F K<F K<F K<F K<F K<F K<F K<F K<F K<F K<F K<F K<F K<F K<F K<F K<F K<F K<F K<F K<F K<F K<F K<F K<F K<F K<F K<F K<F K<F K<F K<F K<F K<F K<F K<F K<F K<F K<F K<F K<F K<F K<F K<F K<F K<F K<F K<F K<F K<F K<F K<F K<F K<F K<F K<F K<F K<F K<F K<F K<F K<F K<F K<F K<F K<F K<F K<F K<F K<F K<F K<F K<F K<F K<F K<F K<F K<F K<F K<F K<F K<F K<F K<F K<F K<F K<F K<F K<F K<F K<F K<F K<F K<F K<F K<F K<F K<F K<F K<F K<F K<F K<F K<F K<F K<F K<F K<F K<F K<F K<F K<F K<F K<F K<F K<F K<F K<F K<F K<F K<F K<F K<F K<F K<F K<F K<F K<F K<F K<F K<F K<F K<F K<F F F F F FJ: FJ: FJ: FJ: FJ: FJ: FJ: FJ: FJ: FJ: FJ: FJ: FJ: FJ: FJ: FJ: FJ: FJ: FJ: FJ: FJ: FJ: FJ: FJ: FJ: FJ: FJ: FJ: FJ: FJ: FJ: FJ: FJ: FJ: FJ: FJ: FJ: FJ: FJ: FJ: FJ: FJ: FJ: FJ: FJ: FJ: FJ: FJ: FJ: FJ: FJ: FJ: FJ: FJ: FJ: FJ: FJ: FJ: FJ: FJ: FJ: FJ: FJ: FJ: FJ: FJ: FJ: FJ: FJ: FJ: FJ: FJ: FJ: FJ: FJ: FJ: FJ: FJ: FJ: FJ: FJ: FJ: FJ: FJ: FJ: FJ: FJ: FJ: FJ: FJ: FJ: FJ: FJ: FJ: FJ: FJ: FJ: FJ: FJ: FJ: FJ: FJ: FJ: FJ: FJ: FJ: FJ: FJ: FJ: FJ: FJ: FJ: FJ: FJ: FJ: FJ: FJ: FJ: FJ: FJ: FJ: FJ: FJ: FJ: FJ: FJ: FJ: FJ: FJ: FJ: FJ: FJ: FJ: FJ: FJ: FJ: FJ: FJ: FJ: FJ: FJ: FJ: J: J: J: J: J: J: J: J: J: J:    H9 H9 H9 H9 H9 H9 H9 H9 H9 H9 H9 H9 H9 H9 H9 H9 H9 H9 H9 H9 H9 H9 H9 H9 H9 H9 H9 H9 H9 H9 H9 H9 H9 H9 H9 H9 H9 H9 H9 H9 H9 H9 H9 H9 H9 H9 H9 H9 H9 H9 H9 H9 H9 H9 H9 H9 H9 H9 H9 H9 H9 H9 H9 H9 H9 H9 H9 H9 H9 H9 H9 H9 H9 H9 H9 H9 H9 H9 H9 H9 H9 H9 H9 H9 H9 H9 H9 H9 H9 H9 H9 H9 H9 H9 H9 H9 H9 H9 H9 H9 H9 H9 H9 H9 H9 H9 H9 H9 H9 H9 H9 H9 H9 H9 H9 H9 H9 H9 H9 H9 H9 H9 H9 H9 H9 H9 H9 H9 H9 H9 H9 H9 H9 H9 H9 H9 H9 H9 H9 H9 H9 H9 H9 H9 H9 H9 H9 H9 H9 H9 H9 H9     F7 F7 F7 F7 F7 F7 F7 F7 F7 F7 F7 F7 F7 F7 F7 F7 F7 F7 F7 F7 F7 F7 F7 F7 F7 F7 F7 F7 F7 F7 F7 F7 F7 F7 F7 F7 F7 F7 F7 F7 F7 F7 F7 F7 F7 F7 F7 F7 F7 F7 F7 F7 F7 F7 F7 F7 F7 F7 F7 F7 F7 F7 F7 F7 F7 F7 F7 F7 F7 F7 F7 F7 F7 F7 F7 F7 F7 F7 F7 F7 F7 F7 F7 F7 F7 F7 F7 F7 F7 F7 F7 F7 F7 F7 F7 F7 F7 F7 F7 F7 F7 F7 F7 F7 F7 F7 F7 F7 F7 F7 F7 F7 F7 F7 F7 F7 F7 F7 F7 F7 F7 F7 F7 F7 F7 F7 F7 F7 F7 F7 F7 F7 F7 F7 F7 F7 F7 F7 F7 F7 F7 F7 F7 F7 F7 F7 F7 F7 F7 F7 F7 F7    E5 E5 E5 E5 E5 E5 E5 E5 E5 E5 E5 E5 E5 E5 E5 E5 E5 E5 E5 E5 E5 E5 E5 E5 E5 E5 E5 E5 E5 E5 E5 E5 E5 E5 E5 E5 E5 E5 E5 E5 E5 E5 E5 E5 E5 E5 E5 E5 E5 E5 E5 E5 E5 E5 E5 E5 E5 E5 E5 E5 E5 E5 E5 E5 E5 E5 E5 E5 E5 E5 E5 E5 E5 E5 E5 E5 E5 E5 E5 E5 E5 E5 E5 E5 E5 E5 E5 E5 E5 E5 E5 E5 E5 E5 E5 E5 E5 E5 E5 E5 E5 E5 E5 E5 E5 E5 E5 E5 E5 E5 E5 E5 E5 E5 E5 E5 E5 E5 E5 E5 E5 E5 E5 E5 E5 E5 E5 E5 E5 E5 E5 E5 E5 E5 E5 E5 E5 E5 E5 E5 E5 E5 E5 E5 E5 E5 E5 E5 E5 E5 E5 E5     3C 3C 3C 3C 3C 3C 3C 3C 3C 3C 3C 3C 3C 3C 3C 3C 3C 3C 3C 3C 3C 3C 3C 3C 3C 3C 3C 3C 3C 3C 3C 3C 3C 3C 3C 3C 3C 3C 3C 3C 3C 3C 3C 3C 3C 3C 3C 3C 3C 3C 3C 3C 3C 3C 3C 3C 3C 3C 3C 3C 3C 3C 3C 3C 3C 3C 3C 3C 3C 3C 3C 3C 3C 3C 3C 3C 3C 3C 3C 3C 3C 3C 3C 3C 3C 3C 3C 3C 3C 3C 3C 3C 3C 3C 3C 3C 3C 3C 3C 3C 3C 3C 3C 3C 3C 3C 3C 3C 3C 3C 3C 3C 3C 3C 3C 3C 3C 3C 3C 3C 3C 3C 3C 3C 3C 3C 3C 3C 3C 3C 3C 3C 3C 3C 3C 3C 3C 3C 3C 3C 3C 3C 3C 3C 3C 3C 3C 3C 3C 3C 3C 3C C C C AC AC AC AC AC AC AC AC AC AC AC AC AC AC AC AC AC AC AC AC AC AC AC AC AC AC AC AC AC AC AC AC AC AC AC AC AC AC AC AC AC AC AC AC AC AC AC AC AC AC AC AC AC AC AC AC AC AC AC AC AC AC AC AC AC AC AC AC AC AC AC AC AC AC AC AC AC AC AC AC AC AC AC AC AC AC AC AC AC AC AC AC AC AC AC AC AC AC AC AC AC AC AC AC AC AC AC AC AC AC AC AC AC AC AC AC AC AC AC AC AC AC AC AC AC AC AC AC AC AC AC AC AC AC AC AC AC AC AC AC AC AC AC AC AC AC AC AC AC AC AC AC     ?CFK ?CFK ?CFK ?CFK ?CFK ?CFK ?CFK ?CFK ?CFK ?CFK ?CFK ?CFK ?CFK ?CFK ?CFK ?CFK ?CFK ?CFK ?CFK ?CFK ?CFK ?CFK ?CFK ?CFK ?CFK ?CFK ?CFK ?CFK ?CFK ?CFK ?CFK ?CFK ?CFK ?CFK ?CFK ?CFK ?CFK ?CFK ?CFK ?CFK ?CFK ?CFK ?CFK ?CFK ?CFK ?CFK ?CFK ?CFK ?CFK ?CFK ?CFK ?CFK ?CFK ?CFK ?CFK ?CFK ?CFK ?CFK ?CFK ?CFK ?CFK ?CFK ?CFK ?CFK ?CFK ?CFK ?CFK ?CFK ?CFK ?CFK ?CFK ?CFK ?CFK ?CFK ?CFK ?CFK ?CFK ?CFK ?CFK ?CFK ?CFK ?CFK ?CFK ?CFK ?CFK ?CFK ?CFK ?CFK ?CFK ?CFK ?CFK ?CFK ?CFK ?CFK ?CFK ?CFK ?CFK ?CFK ?CFK ?CFK ?CFK ?CFK ?CFK ?CFK ?CFK ?CFK ?CFK ?CFK ?CFK ?CFK ?CFK ?CFK ?CFK ?CFK ?CFK ?CFK ?CFK ?CFK ?CFK ?CFK ?CFK ?CFK ?CFK ?CFK ?CFK ?CFK ?CFK ?CFK ?CFK ?CFK ?CFK ?CFK ?CFK ?CFK ?CFK ?CFK ?CFK ?CFK ?CFK ?CFK ?CFK ?CFK ?CFK ?CFK ?CFK ?CFK ?CFK ?CFK ?CFK ?CFK ?CFK ?CFK CFK CFK CFK >CFK >CFK >CFK >CFK >CFK >CFK >CFK >CFK >CFK >CFK >CFK >CFK >CFK >CFK >CFK >CFK >CFK >CFK >CFK >CFK >CFK >CFK >CFK >CFK >CFK >CFK >CFK >CFK >CFK >CFK >CFK >CFK >CFK >CFK >CFK >CFK >CFK >CFK >CFK >CFK >CFK >CFK >CFK >CFK >CFK >CFK >CFK >CFK >CFK >CFK >CFK >CFK >CFK >CFK >CFK >CFK >CFK >CFK >CFK >CFK >CFK >CFK >CFK >CFK >CFK >CFK >CFK >CFK >CFK >CFK >CFK >CFK >CFK >CFK >CFK >CFK >CFK >CFK >CFK >CFK >CFK >CFK >CFK >CFK >CFK >CFK >CFK >CFK >CFK >CFK >CFK >CFK >CFK >CFK >CFK >CFK >CFK >CFK >CFK >CFK >CFK >CFK >CFK >CFK >CFK >CFK >CFK >CFK >CFK >CFK >CFK >CFK >CFK >CFK >CFK >CFK >CFK >CFK >CFK >CFK >CFK >CFK >CFK >CFK >CFK >CFK >CFK >CFK >CFK >CFK >CFK >CFK >CFK >CFK >CFK >CFK >CFK >CFK >CFK >CFK >CFK >CFK >CFK >CFK >CFK >CFK >CFK >CFK >CFK >CFK >CFK >CFK     <CFK <CFK <CFK <CFK <CFK <CFK <CFK <CFK <CFK <CFK <CFK <CFK <CFK <CFK <CFK <CFK <CFK <CFK <CFK <CFK <CFK <CFK <CFK <CFK <CFK <CFK <CFK <CFK <CFK <CFK <CFK <CFK <CFK <CFK <CFK <CFK <CFK <CFK <CFK <CFK <CFK <CFK <CFK <CFK <CFK <CFK <CFK <CFK <CFK <CFK <CFK <CFK <CFK <CFK <CFK <CFK <CFK <CFK <CFK <CFK <CFK <CFK <CFK <CFK <CFK <CFK <CFK <CFK <CFK <CFK <CFK <CFK <CFK <CFK <CFK <CFK <CFK <CFK <CFK <CFK <CFK <CFK <CFK <CFK <CFK <CFK <CFK <CFK <CFK <CFK <CFK <CFK <CFK <CFK <CFK <CFK <CFK <CFK <CFK <CFK <CFK <CFK <CFK <CFK <CFK <CFK <CFK <CFK <CFK <CFK <CFK <CFK <CFK <CFK <CFK <CFK <CFK <CFK <CFK <CFK <CFK <CFK <CFK <CFK <CFK <CFK <CFK <CFK <CFK <CFK <CFK <CFK <CFK <CFK <CFK <CFK <CFK <CFK <CFK <CFK <CFK <CFK <CFK <CFK <CFK <CFK <CFK <CFK <CFK <CFK <CFK <CFK CFK CFK CFK :CFK :CFK :CFK :CFK :CFK :CFK :CFK :CFK :CFK :CFK :CFK :CFK :CFK :CFK :CFK :CFK :CFK :CFK :CFK :CFK :CFK :CFK :CFK :CFK :CFK :CFK :CFK :CFK :CFK :CFK :CFK :CFK :CFK :CFK :CFK :CFK :CFK :CFK :CFK :CFK :CFK :CFK :CFK :CFK :CFK :CFK :CFK :CFK :CFK :CFK :CFK :CFK :CFK :CFK :CFK :CFK :CFK :CFK :CFK :CFK :CFK :CFK :CFK :CFK :CFK :CFK :CFK :CFK :CFK :CFK :CFK :CFK :CFK :CFK :CFK :CFK :CFK :CFK :CFK :CFK :CFK :CFK :CFK :CFK :CFK :CFK :CFK :CFK :CFK :CFK :CFK :CFK :CFK :CFK :CFK :CFK :CFK :CFK :CFK :CFK :CFK :CFK :CFK :CFK :CFK :CFK :CFK :CFK :CFK :CFK :CFK :CFK :CFK :CFK :CFK :CFK :CFK :CFK :CFK :CFK :CFK :CFK :CFK :CFK :CFK :CFK :CFK :CFK :CFK :CFK :CFK :CFK :CFK :CFK :CFK :CFK :CFK :CFK :CFK :CFK :CFK :CFK :CFK :CFK :CFK :CFK :CFK :CFK :CFK :CFK :CFK :CFK     H9C H9C H9C H9C H9C H9C H9C H9C H9C H9C H9C H9C H9C H9C H9C H9C H9C H9C H9C H9C H9C H9C H9C H9C H9C H9C H9C H9C H9C H9C H9C H9C H9C H9C H9C H9C H9C H9C H9C H9C H9C H9C H9C H9C H9C H9C H9C H9C H9C H9C H9C H9C H9C H9C H9C H9C H9C H9C H9C H9C H9C H9C H9C H9C H9C H9C H9C H9C H9C H9C H9C H9C H9C H9C H9C H9C H9C H9C H9C H9C H9C H9C H9C H9C H9C H9C H9C H9C H9C H9C H9C H9C H9C H9C H9C H9C H9C H9C H9C H9C H9C H9C H9C H9C H9C H9C H9C H9C H9C H9C H9C H9C H9C H9C H9C H9C H9C H9C H9C H9C H9C H9C H9C H9C H9C H9C H9C H9C H9C H9C H9C H9C H9C H9C H9C H9C H9C H9C H9C H9C H9C H9C H9C H9C H9C H9C H9C H9C H9C H9C H9C H9C C C C J:C J:C J:C J:C J:C J:C J:C J:C J:C J:C J:C J:C J:C J:C J:C J:C J:C J:C J:C J:C J:C J:C J:C J:C J:C J:C J:C J:C J:C J:C J:C J:C J:C J:C J:C J:C J:C J:C J:C J:C J:C J:C J:C J:C J:C J:C J:C J:C J:C J:C J:C J:C J:C J:C J:C J:C J:C J:C J:C J:C J:C J:C J:C J:C J:C J:C J:C J:C J:C J:C J:C J:C J:C J:C J:C J:C J:C J:C J:C J:C J:C J:C J:C J:C J:C J:C J:C J:C J:C J:C J:C J:C J:C J:C J:C J:C J:C J:C J:C J:C J:C J:C J:C J:C J:C J:C J:C J:C J:C J:C J:C J:C J:C J:C J:C J:C J:C J:C J:C J:C J:C J:C J:C J:C J:C J:C J:C J:C J:C J:C J:C J:C J:C J:C J:C J:C J:C J:C J:C J:C J:C J:C J:C J:C J:C J:C J:C J:C J:C J:C J:C J:C C C C C H9C H9C H9C H9C H9C H9C H9C H9C H9C H9C H9C H9C H9C H9C H9C H9C H9C H9C H9C H9C H9C H9C H9C H9C H9C H9C H9C H9C H9C H9C H9C H9C H9C H9C H9C H9C H9C H9C H9C H9C H9C H9C H9C H9C H9C H9C H9C H9C H9C H9C H9C H9C H9C H9C H9C H9C H9C H9C H9C H9C H9C H9C H9C H9C H9C H9C H9C H9C H9C H9C H9C H9C H9C H9C H9C H9C H9C H9C H9C H9C H9C H9C H9C H9C H9C H9C H9C H9C H9C H9C H9C H9C H9C H9C H9C H9C H9C H9C H9C H9C H9C H9C H9C H9C H9C H9C H9C H9C H9C H9C H9C H9C H9C H9C H9C H9C H9C H9C H9C H9C H9C H9C H9C H9C H9C H9C H9C H9C H9C H9C H9C H9C H9C H9C H9C H9C H9C H9C H9C H9C H9C H9C H9C H9C H9C H9C H9C H9C H9C H9C H9C H9C C C C C CF7 CF7 CF7 CF7 CF7 CF7 CF7 CF7 CF7 CF7 CF7 CF7 CF7 CF7 CF7 CF7 CF7 CF7 CF7 CF7 CF7 CF7 CF7 CF7 CF7 CF7 CF7 CF7 CF7 CF7 CF7 CF7 CF7 CF7 CF7 CF7 CF7 CF7 CF7 CF7 CF7 CF7 CF7 CF7 CF7 CF7 CF7 CF7 CF7 CF7 CF7 CF7 CF7 CF7 CF7 CF7 CF7 CF7 CF7 CF7 CF7 CF7 CF7 CF7 CF7 CF7 CF7 CF7 CF7 CF7 CF7 CF7 CF7 CF7 CF7 CF7 CF7 CF7 CF7 CF7 CF7 CF7 CF7 CF7 CF7 CF7 CF7 CF7 CF7 CF7 CF7 CF7 CF7 CF7 CF7 CF7 CF7 CF7 CF7 CF7 CF7 CF7 CF7 CF7 CF7 CF7 CF7 CF7 CF7 CF7 CF7 CF7 CF7 CF7 CF7 CF7 CF7 CF7 CF7 CF7 CF7 CF7 CF7 CF7 CF7 CF7 CF7 CF7 CF7 CF7 CF7 CF7 CF7 CF7 CF7 CF7 CF7 CF7 CF7 CF7 CF7 CF7 CF7 CF7 CF7 CF7 CF7 CF7 CF7 CF7 CF7 F7    E6 E6 E6 E6 E6 E6 E6 E6 E6 E6 E6 E6 E6 E6 E6 E6 E6 E6 E6 E6 E6 E6 E6 E6 E6 E6 E6 E6 E6 E6 E6 E6 E6 E6 E6 E6 E6 E6 E6 E6 E6 E6 E6 E6 E6 E6 E6 E6 E6 E6 E6 E6 E6 E6 E6 E6 E6 E6 E6 E6 E6 E6 E6 E6 E6 E6 E6 E6 E6 E6 E6 E6 E6 E6 E6 E6 E6 E6 E6 E6 E6 E6 E6 E6 E6 E6 E6 E6 E6 E6 E6 E6 E6 E6 E6 E6 E6 E6 E6 E6 E6 E6 E6 E6 E6 E6 E6 E6 E6 E6 E6 E6 E6 E6 E6 E6 E6 E6 E6 E6 E6 E6 E6 E6 E6 E6 E6 E6 E6 E6 E6 E6 E6 E6 E6 E6 E6 E6 E6 E6 E6 E6 E6 E6 E6 E6 E6 E6 E6 E6 E6 E6     C4 C4 C4 C4 C4 C4 C4 C4 C4 C4 C4 C4 C4 C4 C4 C4 C4 C4 C4 C4 C4 C4 C4 C4 C4 C4 C4 C4 C4 C4 C4 C4 C4 C4 C4 C4 C4 C4 C4 C4 C4 C4 C4 C4 C4 C4 C4 C4 C4 C4 C4 C4 C4 C4 C4 C4 C4 C4 C4 C4 C4 C4 C4 C4 C4 C4 C4 C4 C4 C4 C4 C4 C4 C4 C4 C4 C4 C4 C4 C4 C4 C4 C4 C4 C4 C4 C4 C4 C4 C4 C4 C4 C4 C4 C4 C4 C4 C4 C4 C4 C4 C4 C4 C4 C4 C4 C4 C4 C4 C4 C4 C4 C4 C4 C4 C4 C4 C4 C4 C4 C4 C4 C4 C4 C4 C4 C4 C4 C4 C4 C4 C4 C4 C4 C4 C4 C4 C4 C4 C4 C4 C4 C4 C4 C4 C4 C4 C4 C4 C4 C4 C4    2B 2B 2B 2B 2B 2B 2B 2B 2B 2B 2B 2B 2B 2B 2B 2B 2B 2B 2B 2B 2B 2B 2B 2B 2B 2B 2B 2B 2B 2B 2B 2B 2B 2B 2B 2B 2B 2B 2B 2B 2B 2B 2B 2B 2B 2B 2B 2B 2B 2B 2B 2B 2B 2B 2B 2B 2B 2B 2B 2B 2B 2B 2B 2B 2B 2B 2B 2B 2B 2B 2B 2B 2B 2B 2B 2B 2B 2B 2B 2B 2B 2B 2B 2B 2B 2B 2B 2B 2B 2B 2B 2B 2B 2B 2B 2B 2B 2B 2B 2B 2B 2B 2B 2B 2B 2B 2B 2B 2B 2B 2B 2B 2B 2B 2B 2B 2B 2B 2B 2B 2B 2B 2B 2B 2B 2B 2B 2B 2B 2B 2B 2B 2B 2B 2B 2B 2B 2B 2B 2B 2B 2B 2B 2B 2B 2B 2B 2B 2B 2B 2B 2B B B B B B3 B3 B3 B3 B3 B3 B3 B3 B3 B3 B3 B3 B3 B3 B3 B3 B3 B3 B3 B3 B3 B3 B3 B3 B3 B3 B3 B3 B3 B3 B3 B3 B3 B3 B3 B3 B3 B3 B3 B3 B3 B3 B3 B3 B3 B3 B3 B3 B3 B3 B3 B3 B3 B3 B3 B3 B3 B3 B3 B3 B3 B3 B3 B3 B3 B3 B3 B3 B3 B3 B3 B3 B3 B3 B3 B3 B3 B3 B3 B3 B3 B3 B3 B3 B3 B3 B3 B3 B3 B3 B3 B3 B3 B3 B3 B3 B3 B3 B3 B3 B3 B3 B3 B3 B3 B3 B3 B3 B3 B3 B3 B3 B3 B3 B3 B3 B3 B3 B3 B3 B3 B3 B3 B3 B3 B3 B3 B3 B3 B3 B3 B3 B3 B3 B3 B3 B3 B3 B3 B3 B3 B3 B3 B3 B3 B3 B3 B3 B3 B3 B3 3    2JBE 2JBE 2JBE 2JBE 2JBE 2JBE 2JBE 2JBE 2JBE 2JBE 2JBE 2JBE 2JBE 2JBE 2JBE 2JBE 2JBE 2JBE 2JBE 2JBE 2JBE 2JBE 2JBE 2JBE 2JBE 2JBE 2JBE 2JBE 2JBE 2JBE 2JBE 2JBE 2JBE 2JBE 2JBE 2JBE 2JBE 2JBE 2JBE 2JBE 2JBE 2JBE 2JBE 2JBE 2JBE 2JBE 2JBE 2JBE 2JBE 2JBE 2JBE 2JBE 2JBE 2JBE 2JBE 2JBE 2JBE 2JBE 2JBE 2JBE 2JBE 2JBE 2JBE 2JBE 2JBE 2JBE 2JBE 2JBE 2JBE 2JBE 2JBE 2JBE 2JBE 2JBE 2JBE 2JBE 2JBE 2JBE 2JBE 2JBE 2JBE 2JBE 2JBE 2JBE 2JBE 2JBE 2JBE 2JBE 2JBE 2JBE 2JBE 2JBE 2JBE 2JBE 2JBE 2JBE 2JBE 2JBE 2JBE 2JBE 2JBE 2JBE 2JBE 2JBE 2JBE 2JBE 2JBE 2JBE 2JBE 2JBE 2JBE 2JBE 2JBE 2JBE 2JBE 2JBE 2JBE 2JBE 2JBE 2JBE 2JBE 2JBE 2JBE 2JBE 2JBE 2JBE 2JBE 2JBE 2JBE 2JBE 2JBE 2JBE 2JBE 2JBE 2JBE 2JBE 2JBE 2JBE 2JBE 2JBE 2JBE 2JBE 2JBE 2JBE 2JBE 2JBE 2JBE 2JBE 2JBE 2JBE 2JBE 2JBE JBE JBE JBE JBE JBE0 JBE0 JBE0 JBE0 JBE0 JBE0 JBE0 JBE0 JBE0 JBE0 JBE0 JBE0 JBE0 JBE0 JBE0 JBE0 JBE0 JBE0 JBE0 JBE0 JBE0 JBE0 JBE0 JBE0 JBE0 JBE0 JBE0 JBE0 JBE0 JBE0 JBE0 JBE0 JBE0 JBE0 JBE0 JBE0 JBE0 JBE0 JBE0 JBE0 JBE0 JBE0 JBE0 JBE0 JBE0 JBE0 JBE0 JBE0 JBE0 JBE0 JBE0 JBE0 JBE0 JBE0 JBE0 JBE0 JBE0 JBE0 JBE0 JBE0 JBE0 JBE0 JBE0 JBE0 JBE0 JBE0 JBE0 JBE0 JBE0 JBE0 JBE0 JBE0 JBE0 JBE0 JBE0 JBE0 JBE0 JBE0 JBE0 JBE0 JBE0 JBE0 JBE0 JBE0 JBE0 JBE0 JBE0 JBE0 JBE0 JBE0 JBE0 JBE0 JBE0 JBE0 JBE0 JBE0 JBE0 JBE0 JBE0 JBE0 JBE0 JBE0 JBE0 JBE0 JBE0 JBE0 JBE0 JBE0 JBE0 JBE0 JBE0 JBE0 JBE0 JBE0 JBE0 JBE0 JBE0 JBE0 JBE0 JBE0 JBE0 JBE0 JBE0 JBE0 JBE0 JBE0 JBE0 JBE0 JBE0 JBE0 JBE0 JBE0 JBE0 JBE0 JBE0 JBE0 JBE0 JBE0 JBE0 JBE0 JBE0 JBE0 JBE0 JBE0 JBE0 JBE0 JBE0 JBE0 JBE0 JBE0 JBE0 0    .JBE .JBE .JBE .JBE .JBE .JBE .JBE .JBE .JBE .JBE .JBE .JBE .JBE .JBE .JBE .JBE .JBE .JBE .JBE .JBE .JBE .JBE .JBE .JBE .JBE .JBE .JBE .JBE .JBE .JBE .JBE .JBE .JBE .JBE .JBE .JBE .JBE .JBE .JBE .JBE .JBE .JBE .JBE .JBE .JBE .JBE .JBE .JBE .JBE .JBE .JBE .JBE .JBE .JBE .JBE .JBE .JBE .JBE .JBE .JBE .JBE .JBE .JBE .JBE .JBE .JBE .JBE .JBE .JBE .JBE .JBE .JBE .JBE .JBE .JBE .JBE .JBE .JBE .JBE .JBE .JBE .JBE .JBE .JBE .JBE .JBE .JBE .JBE .JBE .JBE .JBE .JBE .JBE .JBE .JBE .JBE .JBE .JBE .JBE .JBE .JBE .JBE .JBE .JBE .JBE .JBE .JBE .JBE .JBE .JBE .JBE .JBE .JBE .JBE .JBE .JBE .JBE .JBE .JBE .JBE .JBE .JBE .JBE .JBE .JBE .JBE .JBE .JBE .JBE .JBE .JBE .JBE .JBE .JBE .JBE .JBE .JBE .JBE .JBE .JBE .JBE .JBE .JBE .JBE .JBE .JBE .JBE .JBE .JBE .JBE .JBE .JBE JBE JBE JBE JBE JBE- JBE- JBE- JBE- JBE- JBE- JBE- JBE- JBE- JBE- JBE- JBE- JBE- JBE- JBE- JBE- JBE- JBE- JBE- JBE- JBE- JBE- JBE- JBE- JBE- JBE- JBE- JBE- JBE- JBE- JBE- JBE- JBE- JBE- JBE- JBE- JBE- JBE- JBE- JBE- JBE- JBE- JBE- JBE- JBE- JBE- JBE- JBE- JBE- JBE- JBE- JBE- JBE- JBE- JBE- JBE- JBE- JBE- JBE- JBE- JBE- JBE- JBE- JBE- JBE- JBE- JBE- JBE- JBE- JBE- JBE- JBE- JBE- JBE- JBE- JBE- JBE- JBE- JBE- JBE- JBE- JBE- JBE- JBE- JBE- JBE- JBE- JBE- JBE- JBE- JBE- JBE- JBE- JBE- JBE- JBE- JBE- JBE- JBE- JBE- JBE- JBE- JBE- JBE- JBE- JBE- JBE- JBE- JBE- JBE- JBE- JBE- JBE- JBE- JBE- JBE- JBE- JBE- JBE- JBE- JBE- JBE- JBE- JBE- JBE- JBE- JBE- JBE- JBE- JBE- JBE- JBE- JBE- JBE- JBE- JBE- JBE- JBE- JBE- JBE- JBE- JBE- JBE- JBE- JBE- JBE- JBE- JBE- JBE- JBE- JBE- -    +CF> +CF> +CF> +CF> +CF> +CF> +CF> +CF> +CF> +CF> +CF> +CF> +CF> +CF> +CF> +CF> +CF> +CF> +CF> +CF> +CF> +CF> +CF> +CF> +CF> +CF> +CF> +CF> +CF> +CF> +CF> +CF> +CF> +CF> +CF> +CF> +CF> +CF> +CF> +CF> +CF> +CF> +CF> +CF> +CF> +CF> +CF> +CF> +CF> +CF> +CF> +CF> +CF> +CF> +CF> +CF> +CF> +CF> +CF> +CF> +CF> +CF> +CF> +CF> +CF> +CF> +CF> +CF> +CF> +CF> +CF> +CF> +CF> +CF> +CF> +CF> +CF> +CF> +CF> +CF> +CF> +CF> +CF> +CF> +CF> +CF> +CF> +CF> +CF> +CF> +CF> +CF> +CF> +CF> +CF> +CF> +CF> +CF> +CF> +CF> +CF> +CF> +CF> +CF> +CF> +CF> +CF> +CF> +CF> +CF> +CF> +CF> +CF> +CF> +CF> +CF> +CF> +CF> +CF> +CF> +CF> +CF> +CF> +CF> +CF> +CF> +CF> +CF> +CF> +CF> +CF> +CF> +CF> +CF> +CF> +CF> +CF> +CF> +CF> +CF> +CF> +CF> +CF> +CF> +CF> +CF> +CF> +CF> +CF> +CF> +CF> +CF> CF> CF> CF> CF> CF-> CF-> CF-> CF-> CF-> CF-> CF-> CF-> CF-> CF-> CF-> CF-> CF-> CF-> CF-> CF-> CF-> CF-> CF-> CF-> CF-> CF-> CF-> CF-> CF-> CF-> CF-> CF-> CF-> CF-> CF-> CF-> CF-> CF-> CF-> CF-> CF-> CF-> CF-> CF-> CF-> CF-> CF-> CF-> CF-> CF-> CF-> CF-> CF-> CF-> CF-> CF-> CF-> CF-> CF-> CF-> CF-> CF-> CF-> CF-> CF-> CF-> CF-> CF-> CF-> CF-> CF-> CF-> CF-> CF-> CF-> CF-> CF-> CF-> CF-> CF-> CF-> CF-> CF-> CF-> CF-> CF-> CF-> CF-> CF-> CF-> CF-> CF-> CF-> CF-> CF-> CF-> CF-> CF-> CF-> CF-> CF-> CF-> CF-> CF-> CF-> CF-> CF-> CF-> CF-> CF-> CF-> CF-> CF-> CF-> CF-> CF-> CF-> CF-> CF-> CF-> CF-> CF-> CF-> CF-> CF-> CF-> CF-> CF-> CF-> CF-> CF-> CF-> CF-> CF-> CF-> CF-> CF-> CF-> CF-> CF-> CF-> CF-> CF-> CF-> CF-> CF-> CF-> CF-> CF-> CF-> CF-> CF-> CF-> CF-> CF-> -> > > > +CF> +CF> +CF> +CF> +CF> +CF> +CF> +CF> +CF> +CF> +CF> +CF> +CF> +CF> +CF> +CF> +CF> +CF> +CF> +CF> +CF> +CF> +CF> +CF> +CF> +CF> +CF> +CF> +CF> +CF> +CF> +CF> +CF> +CF> +CF> +CF> +CF> +CF> +CF> +CF> +CF> +CF> +CF> +CF> +CF> +CF> +CF> +CF> +CF> +CF> +CF> +CF> +CF> +CF> +CF> +CF> +CF> +CF> +CF> +CF> +CF> +CF> +CF> +CF> +CF> +CF> +CF> +CF> +CF> +CF> +CF> +CF> +CF> +CF> +CF> +CF> +CF> +CF> +CF> +CF> +CF> +CF> +CF> +CF> +CF> +CF> +CF> +CF> +CF> +CF> +CF> +CF> +CF> +CF> +CF> +CF> +CF> +CF> +CF> +CF> +CF> +CF> +CF> +CF> +CF> +CF> +CF> +CF> +CF> +CF> +CF> +CF> +CF> +CF> +CF> +CF> +CF> +CF> +CF> +CF> +CF> +CF> +CF> +CF> +CF> +CF> +CF> +CF> +CF> +CF> +CF> +CF> +CF> +CF> +CF> +CF> +CF> +CF> +CF> +CF> +CF> +CF> +CF> +CF> +CF> +CF> +CF> +CF> +CF> +CF> +CF> +CF> CF> CF> CF> CF> CF)> CF)> CF)> CF)> CF)> CF)> CF)> CF)> CF)> CF)> CF)> CF)> CF)> CF)> CF)> CF)> CF)> CF)> CF)> CF)> CF)> CF)> CF)> CF)> CF)> CF)> CF)> CF)> CF)> CF)> CF)> CF)> CF)> CF)> CF)> CF)> CF)> CF)> CF)> CF)> CF)> CF)> CF)> CF)> CF)> CF)> CF)> CF)> CF)> CF)> CF)> CF)> CF)> CF)> CF)> CF)> CF)> CF)> CF)> CF)> CF)> CF)> CF)> CF)> CF)> CF)> CF)> CF)> CF)> CF)> CF)> CF)> CF)> CF)> CF)> CF)> CF)> CF)> CF)> CF)> CF)> CF)> CF)> CF)> CF)> CF)> CF)> CF)> CF)> CF)> CF)> CF)> CF)> CF)> CF)> CF)> CF)> CF)> CF)> CF)> CF)> CF)> CF)> CF)> CF)> CF)> CF)> CF)> CF)> CF)> CF)> CF)> CF)> CF)> CF)> CF)> CF)> CF)> CF)> CF)> CF)> CF)> CF)> CF)> CF)> CF)> CF)> CF)> CF)> CF)> CF)> CF)> CF)> CF)> CF)> CF)> CF)> CF)> CF)> CF)> CF)> CF)> CF)> CF)> CF)> CF)> CF)> CF)> CF)> CF)> CF)> )> > > > 'CF> 'CF> 'CF> 'CF> 'CF> 'CF> 'CF> 'CF> 'CF> 'CF> 'CF> 'CF> 'CF> 'CF> 'CF> 'CF> 'CF> 'CF> 'CF> 'CF> 'CF> 'CF> 'CF> 'CF> 'CF> 'CF> 'CF> 'CF> 'CF> 'CF> 'CF> 'CF> 'CF> 'CF> 'CF> 'CF> 'CF> 'CF> 'CF> 'CF> 'CF> 'CF> 'CF> 'CF> 'CF> 'CF> 'CF> 'CF> 'CF> 'CF> 'CF> 'CF> 'CF> 'CF> 'CF> 'CF> 'CF> 'CF> 'CF> 'CF> 'CF> 'CF> 'CF> 'CF> 'CF> 'CF> 'CF> 'CF> 'CF> 'CF> 'CF> 'CF> 'CF> 'CF> 'CF> 'CF> 'CF> 'CF> 'CF> 'CF> 'CF> 'CF> 'CF> 'CF> 'CF> 'CF> 'CF> 'CF> 'CF> 'CF> 'CF> 'CF> 'CF> 'CF> 'CF> 'CF> 'CF> 'CF> 'CF> 'CF> 'CF> 'CF> 'CF> 'CF> 'CF> 'CF> 'CF> 'CF> 'CF> 'CF> 'CF> 'CF> 'CF> 'CF> 'CF> 'CF> 'CF> 'CF> 'CF> 'CF> 'CF> 'CF> 'CF> 'CF> 'CF> 'CF> 'CF> 'CF> 'CF> 'CF> 'CF> 'CF> 'CF> 'CF> 'CF> 'CF> 'CF> 'CF> 'CF> 'CF> 'CF> 'CF> 'CF> 'CF> 'CF> 'CF> 'CF> 'CF> 'CF> 'CF> 'CF> 'CF> CF> CF> CF> CF> CF&> CF&> CF&> CF&> CF&> CF&> CF&> CF&> CF&> CF&> CF&> CF&> CF&> CF&> CF&> CF&> CF&> CF&> CF&> CF&> CF&> CF&> CF&> CF&> CF&> CF&> CF&> CF&> CF&> CF&> CF&> CF&> CF&> CF&> CF&> CF&> CF&> CF&> CF&> CF&> CF&> CF&> CF&> CF&> CF&> CF&> CF&> CF&> CF&> CF&> CF&> CF&> CF&> CF&> CF&> CF&> CF&> CF&> CF&> CF&> CF&> CF&> CF&> CF&> CF&> CF&> CF&> CF&> CF&> CF&> CF&> CF&> CF&> CF&> CF&> CF&> CF&> CF&> CF&> CF&> CF&> CF&> CF&> CF&> CF&> CF&> CF&> CF&> CF&> CF&> CF&> CF&> CF&> CF&> CF&> CF&> CF&> CF&> CF&> CF&> CF&> CF&> CF&> CF&> CF&> CF&> CF&> CF&> CF&> CF&> CF&> CF&> CF&> CF&> CF&> CF&> CF&> CF&> CF&> CF&> CF&> CF&> CF&> CF&> CF&> CF&> CF&> CF&> CF&> CF&> CF&> CF&> CF&> CF&> CF&> CF&> CF&> CF&> CF&> CF&> CF&> CF&> CF&> CF&> CF&> CF&> CF&> CF&> CF&> CF&> CF&> &> >   ?$F ?$F ?$F ?$F ?$F ?$F ?$F ?$F ?$F ?$F ?$F ?$F ?$F ?$F ?$F ?$F ?$F ?$F ?$F ?$F ?$F ?$F ?$F ?$F ?$F ?$F ?$F ?$F ?$F ?$F ?$F ?$F ?$F ?$F ?$F ?$F ?$F ?$F ?$F ?$F ?$F ?$F ?$F ?$F ?$F ?$F ?$F ?$F ?$F ?$F ?$F ?$F ?$F ?$F ?$F ?$F ?$F ?$F ?$F ?$F ?$F ?$F ?$F ?$F ?$F ?$F ?$F ?$F ?$F ?$F ?$F ?$F ?$F ?$F ?$F ?$F ?$F ?$F ?$F ?$F ?$F ?$F ?$F ?$F ?$F ?$F ?$F ?$F ?$F ?$F ?$F ?$F ?$F ?$F ?$F ?$F ?$F ?$F ?$F ?$F ?$F ?$F ?$F ?$F ?$F ?$F ?$F ?$F ?$F ?$F ?$F ?$F ?$F ?$F ?$F ?$F ?$F ?$F ?$F ?$F ?$F ?$F ?$F ?$F ?$F ?$F ?$F ?$F ?$F ?$F ?$F ?$F ?$F ?$F ?$F ?$F ?$F ?$F ?$F ?$F ?$F ?$F ?$F ?$F ?$F ?$F ?$F ?$F ?$F ?$F ?$F ?$F $F $F $F $F $>F $>F $>F $>F $>F $>F $>F $>F $>F $>F $>F $>F $>F $>F $>F $>F $>F $>F $>F $>F $>F $>F $>F $>F $>F $>F $>F $>F $>F $>F $>F $>F $>F $>F $>F $>F $>F $>F $>F $>F $>F $>F $>F $>F $>F $>F $>F $>F $>F $>F $>F $>F $>F $>F $>F $>F $>F $>F $>F $>F $>F $>F $>F $>F $>F $>F $>F $>F $>F $>F $>F $>F $>F $>F $>F $>F $>F $>F $>F $>F $>F $>F $>F $>F $>F $>F $>F $>F $>F $>F $>F $>F $>F $>F $>F $>F $>F $>F $>F $>F $>F $>F $>F $>F $>F $>F $>F $>F $>F $>F $>F $>F $>F $>F $>F $>F $>F $>F $>F $>F $>F $>F $>F $>F $>F $>F $>F $>F $>F $>F $>F $>F $>F $>F $>F $>F $>F $>F $>F $>F $>F $>F $>F $>F $>F $>F $>F $>F $>F $>F $>F >F F F F ?0F ?0F ?0F ?0F ?0F ?0F ?0F ?0F ?0F ?0F ?0F ?0F ?0F ?0F ?0F ?0F ?0F ?0F ?0F ?0F ?0F ?0F ?0F ?0F ?0F ?0F ?0F ?0F ?0F ?0F ?0F ?0F ?0F ?0F ?0F ?0F ?0F ?0F ?0F ?0F ?0F ?0F ?0F ?0F ?0F ?0F ?0F ?0F ?0F ?0F ?0F ?0F ?0F ?0F ?0F ?0F ?0F ?0F ?0F ?0F ?0F ?0F ?0F ?0F ?0F ?0F ?0F ?0F ?0F ?0F ?0F ?0F ?0F ?0F ?0F ?0F ?0F ?0F ?0F ?0F ?0F ?0F ?0F ?0F ?0F ?0F ?0F ?0F ?0F ?0F ?0F ?0F ?0F ?0F ?0F ?0F ?0F ?0F ?0F ?0F ?0F ?0F ?0F ?0F ?0F ?0F ?0F ?0F ?0F ?0F ?0F ?0F ?0F ?0F ?0F ?0F ?0F ?0F ?0F ?0F ?0F ?0F ?0F ?0F ?0F ?0F ?0F ?0F ?0F ?0F ?0F ?0F ?0F ?0F ?0F ?0F ?0F ?0F ?0F ?0F ?0F ?0F ?0F ?0F ?0F ?0F ?0F ?0F ?0F ?0F ?0F ?0F 0F 0F 0F 0F 0AF 0AF 0AF 0AF 0AF 0AF 0AF 0AF 0AF 0AF 0AF 0AF 0AF 0AF 0AF 0AF 0AF 0AF 0AF 0AF 0AF 0AF 0AF 0AF 0AF 0AF 0AF 0AF 0AF 0AF 0AF 0AF 0AF 0AF 0AF 0AF 0AF 0AF 0AF 0AF 0AF 0AF 0AF 0AF 0AF 0AF 0AF 0AF 0AF 0AF 0AF 0AF 0AF 0AF 0AF 0AF 0AF 0AF 0AF 0AF 0AF 0AF 0AF 0AF 0AF 0AF 0AF 0AF 0AF 0AF 0AF 0AF 0AF 0AF 0AF 0AF 0AF 0AF 0AF 0AF 0AF 0AF 0AF 0AF 0AF 0AF 0AF 0AF 0AF 0AF 0AF 0AF 0AF 0AF 0AF 0AF 0AF 0AF 0AF 0AF 0AF 0AF 0AF 0AF 0AF 0AF 0AF 0AF 0AF 0AF 0AF 0AF 0AF 0AF 0AF 0AF 0AF 0AF 0AF 0AF 0AF 0AF 0AF 0AF 0AF 0AF 0AF 0AF 0AF 0AF 0AF 0AF 0AF 0AF 0AF 0AF 0AF 0AF 0AF 0AF 0AF 0AF 0AF 0AF 0AF 0AF 0AF 0AF 0AF 0AF 0AF AF F F F C0F C0F C0F C0F C0F C0F C0F C0F C0F C0F C0F C0F C0F C0F C0F C0F C0F C0F C0F C0F C0F C0F C0F C0F C0F C0F C0F C0F C0F C0F C0F C0F C0F C0F C0F C0F C0F C0F C0F C0F C0F C0F C0F C0F C0F C0F C0F C0F C0F C0F C0F C0F C0F C0F C0F C0F C0F C0F C0F C0F C0F C0F C0F C0F C0F C0F C0F C0F C0F C0F C0F C0F C0F C0F C0F C0F C0F C0F C0F C0F C0F C0F C0F C0F C0F C0F C0F C0F C0F C0F C0F C0F C0F C0F C0F C0F C0F C0F C0F C0F C0F C0F C0F C0F C0F C0F C0F C0F C0F C0F C0F C0F C0F C0F C0F C0F C0F C0F C0F C0F C0F C0F C0F C0F C0F C0F C0F C0F C0F C0F C0F C0F C0F C0F C0F C0F C0F C0F C0F C0F C0F C0F C0F C0F C0F C0F C0F C0F C0F C0F C0F C0F 0F 0F 0F 0F 0?F 0?F 0?F 0?F 0?F 0?F 0?F 0?F 0?F 0?F 0?F 0?F 0?F 0?F 0?F 0?F 0?F 0?F 0?F 0?F 0?F 0?F 0?F 0?F 0?F 0?F 0?F 0?F 0?F 0?F 0?F 0?F 0?F 0?F 0?F 0?F 0?F 0?F 0?F 0?F 0?F 0?F 0?F 0?F 0?F 0?F 0?F 0?F 0?F 0?F 0?F 0?F 0?F 0?F 0?F 0?F 0?F 0?F 0?F 0?F 0?F 0?F 0?F 0?F 0?F 0?F 0?F 0?F 0?F 0?F 0?F 0?F 0?F 0?F 0?F 0?F 0?F 0?F 0?F 0?F 0?F 0?F 0?F 0?F 0?F 0?F 0?F 0?F 0?F 0?F 0?F 0?F 0?F 0?F 0?F 0?F 0?F 0?F 0?F 0?F 0?F 0?F 0?F 0?F 0?F 0?F 0?F 0?F 0?F 0?F 0?F 0?F 0?F 0?F 0?F 0?F 0?F 0?F 0?F 0?F 0?F 0?F 0?F 0?F 0?F 0?F 0?F 0?F 0?F 0?F 0?F 0?F 0?F 0?F 0?F 0?F 0?F 0?F 0?F 0?F 0?F 0?F 0?F 0?F 0?F 0?F 0?F 0?F 0?F 0?F 0?F ?F F   <)E <)E <)E <)E <)E <)E <)E <)E <)E <)E <)E <)E <)E <)E <)E <)E <)E <)E <)E <)E <)E <)E <)E <)E <)E <)E <)E <)E <)E <)E <)E <)E <)E <)E <)E <)E <)E <)E <)E <)E <)E <)E <)E <)E <)E <)E <)E <)E <)E <)E <)E <)E <)E <)E <)E <)E <)E <)E <)E <)E <)E <)E <)E <)E <)E <)E <)E <)E <)E <)E <)E <)E <)E <)E <)E <)E <)E <)E <)E <)E <)E <)E <)E <)E <)E <)E <)E <)E <)E <)E <)E <)E <)E <)E <)E <)E <)E <)E <)E <)E <)E <)E <)E <)E <)E <)E <)E <)E <)E <)E <)E <)E <)E <)E <)E <)E <)E <)E <)E <)E <)E <)E <)E <)E <)E <)E <)E <)E <)E <)E <)E <)E <)E <)E <)E <)E <)E <)E <)E <)E <)E <)E <)E <)E <)E <)E <)E <)E <)E <)E <)E <)E )E )E )E )E )CE )CE )CE )CE )CE )CE )CE )CE )CE )CE )CE )CE )CE )CE )CE )CE )CE )CE )CE )CE )CE )CE )CE )CE )CE )CE )CE )CE )CE )CE )CE )CE )CE )CE )CE )CE )CE )CE )CE )CE )CE )CE )CE )CE )CE )CE )CE )CE )CE )CE )CE )CE )CE )CE )CE )CE )CE )CE )CE )CE )CE )CE )CE )CE )CE )CE )CE )CE )CE )CE )CE )CE )CE )CE )CE )CE )CE )CE )CE )CE )CE )CE )CE )CE )CE )CE )CE )CE )CE )CE )CE )CE )CE )CE )CE )CE )CE )CE )CE )CE )CE )CE )CE )CE )CE )CE )CE )CE )CE )CE )CE )CE )CE )CE )CE )CE )CE )CE )CE )CE )CE )CE )CE )CE )CE )CE )CE )CE )CE )CE )CE )CE )CE )CE )CE )CE )CE )CE )CE )CE )CE )CE )CE )CE )CE )CE )CE )CE )CE )CE )CE CE E E E A5E A5E A5E A5E A5E A5E A5E A5E A5E A5E A5E A5E A5E A5E A5E A5E A5E A5E A5E A5E A5E A5E A5E A5E A5E A5E A5E A5E A5E A5E A5E A5E A5E A5E A5E A5E A5E A5E A5E A5E A5E A5E A5E A5E A5E A5E A5E A5E A5E A5E A5E A5E A5E A5E A5E A5E A5E A5E A5E A5E A5E A5E A5E A5E A5E A5E A5E A5E A5E A5E A5E A5E A5E A5E A5E A5E A5E A5E A5E A5E A5E A5E A5E A5E A5E A5E A5E A5E A5E A5E A5E A5E A5E A5E A5E A5E A5E A5E A5E A5E A5E A5E A5E A5E A5E A5E A5E A5E A5E A5E A5E A5E A5E A5E A5E A5E A5E A5E A5E A5E A5E A5E A5E A5E A5E A5E A5E A5E A5E A5E A5E A5E A5E A5E A5E A5E A5E A5E A5E A5E A5E A5E A5E A5E A5E A5E A5E A5E A5E A5E A5E A5E 5E 5E 5E 5E 5?E 5?E 5?E 5?E 5?E 5?E 5?E 5?E 5?E 5?E 5?E 5?E 5?E 5?E 5?E 5?E 5?E 5?E 5?E 5?E 5?E 5?E 5?E 5?E 5?E 5?E 5?E 5?E 5?E 5?E 5?E 5?E 5?E 5?E 5?E 5?E 5?E 5?E 5?E 5?E 5?E 5?E 5?E 5?E 5?E 5?E 5?E 5?E 5?E 5?E 5?E 5?E 5?E 5?E 5?E 5?E 5?E 5?E 5?E 5?E 5?E 5?E 5?E 5?E 5?E 5?E 5?E 5?E 5?E 5?E 5?E 5?E 5?E 5?E 5?E 5?E 5?E 5?E 5?E 5?E 5?E 5?E 5?E 5?E 5?E 5?E 5?E 5?E 5?E 5?E 5?E 5?E 5?E 5?E 5?E 5?E 5?E 5?E 5?E 5?E 5?E 5?E 5?E 5?E 5?E 5?E 5?E 5?E 5?E 5?E 5?E 5?E 5?E 5?E 5?E 5?E 5?E 5?E 5?E 5?E 5?E 5?E 5?E 5?E 5?E 5?E 5?E 5?E 5?E 5?E 5?E 5?E 5?E 5?E 5?E 5?E 5?E 5?E 5?E 5?E 5?E 5?E 5?E 5?E 5?E 5?E 5?E 5?E 5?E 5?E 5?E ?E E E E E >5E >5E >5E >5E >5E >5E >5E >5E >5E >5E >5E >5E >5E >5E >5E >5E >5E >5E >5E >5E >5E >5E >5E >5E >5E >5E >5E >5E >5E >5E >5E >5E >5E >5E >5E >5E >5E >5E >5E >5E >5E >5E >5E >5E >5E >5E >5E >5E >5E >5E >5E >5E >5E >5E >5E >5E >5E >5E >5E >5E >5E >5E >5E >5E >5E >5E >5E >5E >5E >5E >5E >5E >5E >5E >5E >5E >5E >5E >5E >5E >5E >5E >5E >5E >5E >5E >5E >5E >5E >5E >5E >5E >5E >5E >5E >5E >5E >5E >5E >5E >5E >5E >5E >5E >5E >5E >5E >5E >5E >5E >5E >5E >5E >5E >5E >5E >5E >5E >5E >5E >5E >5E >5E >5E >5E >5E >5E >5E >5E >5E >5E >5E >5E >5E >5E >5E >5E >5E >5E >5E >5E >5E >5E >5E >5E >5E >5E >5E >5E >5E >5E >5E 5E 5E 5E <5E <5E <5E <5E <5E <5E <5E <5E <5E <5E <5E <5E <5E <5E <5E <5E <5E <5E <5E <5E <5E <5E <5E <5E <5E <5E <5E <5E <5E <5E <5E <5E <5E <5E <5E <5E <5E <5E <5E <5E <5E <5E <5E <5E <5E <5E <5E <5E <5E <5E <5E <5E <5E <5E <5E <5E <5E <5E <5E <5E <5E <5E <5E <5E <5E <5E <5E <5E <5E <5E <5E <5E <5E <5E <5E <5E <5E <5E <5E <5E <5E <5E <5E <5E <5E <5E <5E <5E <5E <5E <5E <5E <5E <5E <5E <5E <5E <5E <5E <5E <5E <5E <5E <5E <5E <5E <5E <5E <5E <5E <5E <5E <5E <5E <5E <5E <5E <5E <5E <5E <5E <5E <5E <5E <5E <5E <5E <5E <5E <5E <5E <5E <5E <5E <5E <5E <5E <5E <5E <5E <5E <5E <5E <5E <5E <5E <5E <5E <5E <5E <5E <5E E E E E >:E >:E >:E >:E >:E >:E >:E >:E >:E >:E >:E >:E >:E >:E >:E >:E >:E >:E >:E >:E >:E >:E >:E >:E >:E >:E >:E >:E >:E >:E >:E >:E >:E >:E >:E >:E >:E >:E >:E >:E >:E >:E >:E >:E >:E >:E >:E >:E >:E >:E >:E >:E >:E >:E >:E >:E >:E >:E >:E >:E >:E >:E >:E >:E >:E >:E >:E >:E >:E >:E >:E >:E >:E >:E >:E >:E >:E >:E >:E >:E >:E >:E >:E >:E >:E >:E >:E >:E >:E >:E >:E >:E >:E >:E >:E >:E >:E >:E >:E >:E >:E >:E >:E >:E >:E >:E >:E >:E >:E >:E >:E >:E >:E >:E >:E >:E >:E >:E >:E >:E >:E >:E >:E >:E >:E >:E >:E >:E >:E >:E >:E >:E >:E >:E >:E >:E >:E >:E >:E >:E >:E >:E >:E >:E >:E >:E >:E >:E >:E >:E >:E >:E :E :E :E <:E <:E <:E <:E <:E <:E <:E <:E <:E <:E <:E <:E <:E <:E <:E <:E <:E <:E <:E <:E <:E <:E <:E <:E <:E <:E <:E <:E <:E <:E <:E <:E <:E <:E <:E <:E <:E <:E <:E <:E <:E <:E <:E <:E <:E <:E <:E <:E <:E <:E <:E <:E <:E <:E <:E <:E <:E <:E <:E <:E <:E <:E <:E <:E <:E <:E <:E <:E <:E <:E <:E <:E <:E <:E <:E <:E <:E <:E <:E <:E <:E <:E <:E <:E <:E <:E <:E <:E <:E <:E <:E <:E <:E <:E <:E <:E <:E <:E <:E <:E <:E <:E <:E <:E <:E <:E <:E <:E <:E <:E <:E <:E <:E <:E <:E <:E <:E <:E <:E <:E <:E <:E <:E <:E <:E <:E <:E <:E <:E <:E <:E <:E <:E <:E <:E <:E <:E <:E <:E <:E <:E <:E <:E <:E <:E <:E <:E <:E <:E <:E <:E <:E E E E E >.E >.E >.E >.E >.E >.E >.E >.E >.E >.E >.E >.E >.E >.E >.E >.E >.E >.E >.E >.E >.E >.E >.E >.E >.E >.E >.E >.E >.E >.E >.E >.E >.E >.E >.E >.E >.E >.E >.E >.E >.E >.E >.E >.E >.E >.E >.E >.E >.E >.E >.E >.E >.E >.E >.E >.E >.E >.E >.E >.E >.E >.E >.E >.E >.E >.E >.E >.E >.E >.E >.E >.E >.E >.E >.E >.E >.E >.E >.E >.E >.E >.E >.E >.E >.E >.E >.E >.E >.E >.E >.E >.E >.E >.E >.E >.E >.E >.E >.E >.E >.E >.E >.E >.E >.E >.E >.E >.E >.E >.E >.E >.E >.E >.E >.E >.E >.E >.E >.E >.E >.E >.E >.E >.E >.E >.E >.E >.E >.E >.E >.E >.E >.E >.E >.E >.E >.E >.E >.E >.E >.E >.E >.E >.E >.E >.E >.E >.E >.E >.E >.E >.E .E .E .E ?.E ?.E ?.E ?.E ?.E ?.E ?.E ?.E ?.E ?.E ?.E ?.E ?.E ?.E ?.E ?.E ?.E ?.E ?.E ?.E ?.E ?.E ?.E ?.E ?.E ?.E ?.E ?.E ?.E ?.E ?.E ?.E ?.E ?.E ?.E ?.E ?.E ?.E ?.E ?.E ?.E ?.E ?.E ?.E ?.E ?.E ?.E ?.E ?.E ?.E ?.E ?.E ?.E ?.E ?.E ?.E ?.E ?.E ?.E ?.E ?.E ?.E ?.E ?.E ?.E ?.E ?.E ?.E ?.E ?.E ?.E ?.E ?.E ?.E ?.E ?.E ?.E ?.E ?.E ?.E ?.E ?.E ?.E ?.E ?.E ?.E ?.E ?.E ?.E ?.E ?.E ?.E ?.E ?.E ?.E ?.E ?.E ?.E ?.E ?.E ?.E ?.E ?.E ?.E ?.E ?.E ?.E ?.E ?.E ?.E ?.E ?.E ?.E ?.E ?.E ?.E ?.E ?.E ?.E ?.E ?.E ?.E ?.E ?.E ?.E ?.E ?.E ?.E ?.E ?.E ?.E ?.E ?.E ?.E ?.E ?.E ?.E ?.E ?.E ?.E ?.E ?.E ?.E ?.E ?.E ?.E ?.E ?.E ?.E ?.E ?.E ?.E E E E E A.E A.E A.E A.E A.E A.E A.E A.E A.E A.E A.E A.E A.E A.E A.E A.E A.E A.E A.E A.E A.E A.E A.E A.E A.E A.E A.E A.E A.E A.E A.E A.E A.E A.E A.E A.E A.E A.E A.E A.E A.E A.E A.E A.E A.E A.E A.E A.E A.E A.E A.E A.E A.E A.E A.E A.E A.E A.E A.E A.E A.E A.E A.E A.E A.E A.E A.E A.E A.E A.E A.E A.E A.E A.E A.E A.E A.E A.E A.E A.E A.E A.E A.E A.E A.E A.E A.E A.E A.E A.E A.E A.E A.E A.E A.E A.E A.E A.E A.E A.E A.E A.E A.E A.E A.E A.E A.E A.E A.E A.E A.E A.E A.E A.E A.E A.E A.E A.E A.E A.E A.E A.E A.E A.E A.E A.E A.E A.E A.E A.E A.E A.E A.E A.E A.E A.E A.E A.E A.E A.E A.E A.E A.E A.E A.E A.E A.E A.E A.E A.E A.E A.E .E .E .E >.E >.E >.E >.E >.E >.E >.E >.E >.E >.E >.E >.E >.E >.E >.E >.E >.E >.E >.E >.E >.E >.E >.E >.E >.E >.E >.E >.E >.E >.E >.E >.E >.E >.E >.E >.E >.E >.E >.E >.E >.E >.E >.E >.E >.E >.E >.E >.E >.E >.E >.E >.E >.E >.E >.E >.E >.E >.E >.E >.E >.E >.E >.E >.E >.E >.E >.E >.E >.E >.E >.E >.E >.E >.E >.E >.E >.E >.E >.E >.E >.E >.E >.E >.E >.E >.E >.E >.E >.E >.E >.E >.E >.E >.E >.E >.E >.E >.E >.E >.E >.E >.E >.E >.E >.E >.E >.E >.E >.E >.E >.E >.E >.E >.E >.E >.E >.E >.E >.E >.E >.E >.E >.E >.E >.E >.E >.E >.E >.E >.E >.E >.E >.E >.E >.E >.E >.E >.E >.E >.E >.E >.E >.E >.E >.E >.E >.E >.E >.E >.E >.E >.E     :'C :'C :'C :'C :'C :'C :'C :'C :'C :'C :'C :'C :'C :'C :'C :'C :'C :'C :'C :'C :'C :'C :'C :'C :'C :'C :'C :'C :'C :'C :'C :'C :'C :'C :'C :'C :'C :'C :'C :'C :'C :'C :'C :'C :'C :'C :'C :'C :'C :'C :'C :'C :'C :'C :'C :'C :'C :'C :'C :'C :'C :'C :'C :'C :'C :'C :'C :'C :'C :'C :'C :'C :'C :'C :'C :'C :'C :'C :'C :'C :'C :'C :'C :'C :'C :'C :'C :'C :'C :'C :'C :'C :'C :'C :'C :'C :'C :'C :'C :'C :'C :'C :'C :'C :'C :'C :'C :'C :'C :'C :'C :'C :'C :'C :'C :'C :'C :'C :'C :'C :'C :'C :'C :'C :'C :'C :'C :'C :'C :'C :'C :'C :'C :'C :'C :'C :'C :'C :'C :'C :'C :'C :'C :'C :'C :'C :'C :'C :'C :'C :'C :'C 'C 'C 'C A'C A'C A'C A'C A'C A'C A'C A'C A'C A'C A'C A'C A'C A'C A'C A'C A'C A'C A'C A'C A'C A'C A'C A'C A'C A'C A'C A'C A'C A'C A'C A'C A'C A'C A'C A'C A'C A'C A'C A'C A'C A'C A'C A'C A'C A'C A'C A'C A'C A'C A'C A'C A'C A'C A'C A'C A'C A'C A'C A'C A'C A'C A'C A'C A'C A'C A'C A'C A'C A'C A'C A'C A'C A'C A'C A'C A'C A'C A'C A'C A'C A'C A'C A'C A'C A'C A'C A'C A'C A'C A'C A'C A'C A'C A'C A'C A'C A'C A'C A'C A'C A'C A'C A'C A'C A'C A'C A'C A'C A'C A'C A'C A'C A'C A'C A'C A'C A'C A'C A'C A'C A'C A'C A'C A'C A'C A'C A'C A'C A'C A'C A'C A'C A'C A'C A'C A'C A'C A'C A'C A'C A'C A'C A'C A'C A'C A'C A'C A'C A'C A'C A'C C C C C ?3C ?3C ?3C ?3C ?3C ?3C ?3C ?3C ?3C ?3C ?3C ?3C ?3C ?3C ?3C ?3C ?3C ?3C ?3C ?3C ?3C ?3C ?3C ?3C ?3C ?3C ?3C ?3C ?3C ?3C ?3C ?3C ?3C ?3C ?3C ?3C ?3C ?3C ?3C ?3C ?3C ?3C ?3C ?3C ?3C ?3C ?3C ?3C ?3C ?3C ?3C ?3C ?3C ?3C ?3C ?3C ?3C ?3C ?3C ?3C ?3C ?3C ?3C ?3C ?3C ?3C ?3C ?3C ?3C ?3C ?3C ?3C ?3C ?3C ?3C ?3C ?3C ?3C ?3C ?3C ?3C ?3C ?3C ?3C ?3C ?3C ?3C ?3C ?3C ?3C ?3C ?3C ?3C ?3C ?3C ?3C ?3C ?3C ?3C ?3C ?3C ?3C ?3C ?3C ?3C ?3C ?3C ?3C ?3C ?3C ?3C ?3C ?3C ?3C ?3C ?3C ?3C ?3C ?3C ?3C ?3C ?3C ?3C ?3C ?3C ?3C ?3C ?3C ?3C ?3C ?3C ?3C ?3C ?3C ?3C ?3C ?3C ?3C ?3C ?3C ?3C ?3C ?3C ?3C ?3C ?3C ?3C ?3C ?3C ?3C ?3C ?3C 3C 3C 3C >3C >3C >3C >3C >3C >3C >3C >3C >3C >3C >3C >3C >3C >3C >3C >3C >3C >3C >3C >3C >3C >3C >3C >3C >3C >3C >3C >3C >3C >3C >3C >3C >3C >3C >3C >3C >3C >3C >3C >3C >3C >3C >3C >3C >3C >3C >3C >3C >3C >3C >3C >3C >3C >3C >3C >3C >3C >3C >3C >3C >3C >3C >3C >3C >3C >3C >3C >3C >3C >3C >3C >3C >3C >3C >3C >3C >3C >3C >3C >3C >3C >3C >3C >3C >3C >3C >3C >3C >3C >3C >3C >3C >3C >3C >3C >3C >3C >3C >3C >3C >3C >3C >3C >3C >3C >3C >3C >3C >3C >3C >3C >3C >3C >3C >3C >3C >3C >3C >3C >3C >3C >3C >3C >3C >3C >3C >3C >3C >3C >3C >3C >3C >3C >3C >3C >3C >3C >3C >3C >3C >3C >3C >3C >3C >3C >3C >3C >3C >3C >3C >3C >3C C C C C <3C <3C <3C <3C <3C <3C <3C <3C <3C <3C <3C <3C <3C <3C <3C <3C <3C <3C <3C <3C <3C <3C <3C <3C <3C <3C <3C <3C <3C <3C <3C <3C <3C <3C <3C <3C <3C <3C <3C <3C <3C <3C <3C <3C <3C <3C <3C <3C <3C <3C <3C <3C <3C <3C <3C <3C <3C <3C <3C <3C <3C <3C <3C <3C <3C <3C <3C <3C <3C <3C <3C <3C <3C <3C <3C <3C <3C <3C <3C <3C <3C <3C <3C <3C <3C <3C <3C <3C <3C <3C <3C <3C <3C <3C <3C <3C <3C <3C <3C <3C <3C <3C <3C <3C <3C <3C <3C <3C <3C <3C <3C <3C <3C <3C <3C <3C <3C <3C <3C <3C <3C <3C <3C <3C <3C <3C <3C <3C <3C <3C <3C <3C <3C <3C <3C <3C <3C <3C <3C <3C <3C <3C <3C <3C <3C <3C <3C <3C <3C <3C <3C <3C 3C 3C 3C :3C :3C :3C :3C :3C :3C :3C :3C :3C :3C :3C :3C :3C :3C :3C :3C :3C :3C :3C :3C :3C :3C :3C :3C :3C :3C :3C :3C :3C :3C :3C :3C :3C :3C :3C :3C :3C :3C :3C :3C :3C :3C :3C :3C :3C :3C :3C :3C :3C :3C :3C :3C :3C :3C :3C :3C :3C :3C :3C :3C :3C :3C :3C :3C :3C :3C :3C :3C :3C :3C :3C :3C :3C :3C :3C :3C :3C :3C :3C :3C :3C :3C :3C :3C :3C :3C :3C :3C :3C :3C :3C :3C :3C :3C :3C :3C :3C :3C :3C :3C :3C :3C :3C :3C :3C :3C :3C :3C :3C :3C :3C :3C :3C :3C :3C :3C :3C :3C :3C :3C :3C :3C :3C :3C :3C :3C :3C :3C :3C :3C :3C :3C :3C :3C :3C :3C :3C :3C :3C :3C :3C :3C :3C :3C :3C :3C :3C :3C :3C :3C :3C :3C C C C C <9C <9C <9C <9C <9C <9C <9C <9C <9C <9C <9C <9C <9C <9C <9C <9C <9C <9C <9C <9C <9C <9C <9C <9C <9C <9C <9C <9C <9C <9C <9C <9C <9C <9C <9C <9C <9C <9C <9C <9C <9C <9C <9C <9C <9C <9C <9C <9C <9C <9C <9C <9C <9C <9C <9C <9C <9C <9C <9C <9C <9C <9C <9C <9C <9C <9C <9C <9C <9C <9C <9C <9C <9C <9C <9C <9C <9C <9C <9C <9C <9C <9C <9C <9C <9C <9C <9C <9C <9C <9C <9C <9C <9C <9C <9C <9C <9C <9C <9C <9C <9C <9C <9C <9C <9C <9C <9C <9C <9C <9C <9C <9C <9C <9C <9C <9C <9C <9C <9C <9C <9C <9C <9C <9C <9C <9C <9C <9C <9C <9C <9C <9C <9C <9C <9C <9C <9C <9C <9C <9C <9C <9C <9C <9C <9C <9C <9C <9C <9C <9C <9C <9C 9C 9C 9C :9C :9C :9C :9C :9C :9C :9C :9C :9C :9C :9C :9C :9C :9C :9C :9C :9C :9C :9C :9C :9C :9C :9C :9C :9C :9C :9C :9C :9C :9C :9C :9C :9C :9C :9C :9C :9C :9C :9C :9C :9C :9C :9C :9C :9C :9C :9C :9C :9C :9C :9C :9C :9C :9C :9C :9C :9C :9C :9C :9C :9C :9C :9C :9C :9C :9C :9C :9C :9C :9C :9C :9C :9C :9C :9C :9C :9C :9C :9C :9C :9C :9C :9C :9C :9C :9C :9C :9C :9C :9C :9C :9C :9C :9C :9C :9C :9C :9C :9C :9C :9C :9C :9C :9C :9C :9C :9C :9C :9C :9C :9C :9C :9C :9C :9C :9C :9C :9C :9C :9C :9C :9C :9C :9C :9C :9C :9C :9C :9C :9C :9C :9C :9C :9C :9C :9C :9C :9C :9C :9C :9C :9C :9C :9C :9C :9C :9C :9C :9C :9C :9C :9C C C C C <-C <-C <-C <-C <-C <-C <-C <-C <-C <-C <-C <-C <-C <-C <-C <-C <-C <-C <-C <-C <-C <-C <-C <-C <-C <-C <-C <-C <-C <-C <-C <-C <-C <-C <-C <-C <-C <-C <-C <-C <-C <-C <-C <-C <-C <-C <-C <-C <-C <-C <-C <-C <-C <-C <-C <-C <-C <-C <-C <-C <-C <-C <-C <-C <-C <-C <-C <-C <-C <-C <-C <-C <-C <-C <-C <-C <-C <-C <-C <-C <-C <-C <-C <-C <-C <-C <-C <-C <-C <-C <-C <-C <-C <-C <-C <-C <-C <-C <-C <-C <-C <-C <-C <-C <-C <-C <-C <-C <-C <-C <-C <-C <-C <-C <-C <-C <-C <-C <-C <-C <-C <-C <-C <-C <-C <-C <-C <-C <-C <-C <-C <-C <-C <-C <-C <-C <-C <-C <-C <-C <-C <-C <-C <-C <-C <-C <-C <-C <-C <-C <-C <-C -C -C -C >-C >-C >-C >-C >-C >-C >-C >-C >-C >-C >-C >-C >-C >-C >-C >-C >-C >-C >-C >-C >-C >-C >-C >-C >-C >-C >-C >-C >-C >-C >-C >-C >-C >-C >-C >-C >-C >-C >-C >-C >-C >-C >-C >-C >-C >-C >-C >-C >-C >-C >-C >-C >-C >-C >-C >-C >-C >-C >-C >-C >-C >-C >-C >-C >-C >-C >-C >-C >-C >-C >-C >-C >-C >-C >-C >-C >-C >-C >-C >-C >-C >-C >-C >-C >-C >-C >-C >-C >-C >-C >-C >-C >-C >-C >-C >-C >-C >-C >-C >-C >-C >-C >-C >-C >-C >-C >-C >-C >-C >-C >-C >-C >-C >-C >-C >-C >-C >-C >-C >-C >-C >-C >-C >-C >-C >-C >-C >-C >-C >-C >-C >-C >-C >-C >-C >-C >-C >-C >-C >-C >-C >-C >-C >-C >-C >-C >-C >-C >-C >-C >-C >-C C C C C ?-C ?-C ?-C ?-C ?-C ?-C ?-C ?-C ?-C ?-C ?-C ?-C ?-C ?-C ?-C ?-C ?-C ?-C ?-C ?-C ?-C ?-C ?-C ?-C ?-C ?-C ?-C ?-C ?-C ?-C ?-C ?-C ?-C ?-C ?-C ?-C ?-C ?-C ?-C ?-C ?-C ?-C ?-C ?-C ?-C ?-C ?-C ?-C ?-C ?-C ?-C ?-C ?-C ?-C ?-C ?-C ?-C ?-C ?-C ?-C ?-C ?-C ?-C ?-C ?-C ?-C ?-C ?-C ?-C ?-C ?-C ?-C ?-C ?-C ?-C ?-C ?-C ?-C ?-C ?-C ?-C ?-C ?-C ?-C ?-C ?-C ?-C ?-C ?-C ?-C ?-C ?-C ?-C ?-C ?-C ?-C ?-C ?-C ?-C ?-C ?-C ?-C ?-C ?-C ?-C ?-C ?-C ?-C ?-C ?-C ?-C ?-C ?-C ?-C ?-C ?-C ?-C ?-C ?-C ?-C ?-C ?-C ?-C ?-C ?-C ?-C ?-C ?-C ?-C ?-C ?-C ?-C ?-C ?-C ?-C ?-C ?-C ?-C ?-C ?-C ?-C ?-C ?-C ?-C ?-C ?-C ?-C ?-C ?-C ?-C ?-C ?-C -C -C -C <-C <-C <-C <-C <-C <-C <-C <-C <-C <-C <-C <-C <-C <-C <-C <-C <-C <-C <-C <-C <-C <-C <-C <-C <-C <-C <-C <-C <-C <-C <-C <-C <-C <-C <-C <-C <-C <-C <-C <-C <-C <-C <-C <-C <-C <-C <-C <-C <-C <-C <-C <-C <-C <-C <-C <-C <-C <-C <-C <-C <-C <-C <-C <-C <-C <-C <-C <-C <-C <-C <-C <-C <-C <-C <-C <-C <-C <-C <-C <-C <-C <-C <-C <-C <-C <-C <-C <-C <-C <-C <-C <-C <-C <-C <-C <-C <-C <-C <-C <-C <-C <-C <-C <-C <-C <-C <-C <-C <-C <-C <-C <-C <-C <-C <-C <-C <-C <-C <-C <-C <-C <-C <-C <-C <-C <-C <-C <-C <-C <-C <-C <-C <-C <-C <-C <-C <-C <-C <-C <-C <-C <-C <-C <-C <-C <-C <-C <-C <-C <-C <-C <-C C    9&B 9&B 9&B 9&B 9&B 9&B 9&B 9&B 9&B 9&B 9&B 9&B 9&B 9&B 9&B 9&B 9&B 9&B 9&B 9&B 9&B 9&B 9&B 9&B 9&B 9&B 9&B 9&B 9&B 9&B 9&B 9&B 9&B 9&B 9&B 9&B 9&B 9&B 9&B 9&B 9&B 9&B 9&B 9&B 9&B 9&B 9&B 9&B 9&B 9&B 9&B 9&B 9&B 9&B 9&B 9&B 9&B 9&B 9&B 9&B 9&B 9&B 9&B 9&B 9&B 9&B 9&B 9&B 9&B 9&B 9&B 9&B 9&B 9&B 9&B 9&B 9&B 9&B 9&B 9&B 9&B 9&B 9&B 9&B 9&B 9&B 9&B 9&B 9&B 9&B 9&B 9&B 9&B 9&B 9&B 9&B 9&B 9&B 9&B 9&B 9&B 9&B 9&B 9&B 9&B 9&B 9&B 9&B 9&B 9&B 9&B 9&B 9&B 9&B 9&B 9&B 9&B 9&B 9&B 9&B 9&B 9&B 9&B 9&B 9&B 9&B 9&B 9&B 9&B 9&B 9&B 9&B 9&B 9&B 9&B 9&B 9&B 9&B 9&B 9&B 9&B 9&B 9&B 9&B 9&B 9&B 9&B 9&B 9&B 9&B 9&B 9&B &B &B &B ?&B ?&B ?&B ?&B ?&B ?&B ?&B ?&B ?&B ?&B ?&B ?&B ?&B ?&B ?&B ?&B ?&B ?&B ?&B ?&B ?&B ?&B ?&B ?&B ?&B ?&B ?&B ?&B ?&B ?&B ?&B ?&B ?&B ?&B ?&B ?&B ?&B ?&B ?&B ?&B ?&B ?&B ?&B ?&B ?&B ?&B ?&B ?&B ?&B ?&B ?&B ?&B ?&B ?&B ?&B ?&B ?&B ?&B ?&B ?&B ?&B ?&B ?&B ?&B ?&B ?&B ?&B ?&B ?&B ?&B ?&B ?&B ?&B ?&B ?&B ?&B ?&B ?&B ?&B ?&B ?&B ?&B ?&B ?&B ?&B ?&B ?&B ?&B ?&B ?&B ?&B ?&B ?&B ?&B ?&B ?&B ?&B ?&B ?&B ?&B ?&B ?&B ?&B ?&B ?&B ?&B ?&B ?&B ?&B ?&B ?&B ?&B ?&B ?&B ?&B ?&B ?&B ?&B ?&B ?&B ?&B ?&B ?&B ?&B ?&B ?&B ?&B ?&B ?&B ?&B ?&B ?&B ?&B ?&B ?&B ?&B ?&B ?&B ?&B ?&B ?&B ?&B ?&B ?&B ?&B ?&B ?&B ?&B ?&B ?&B ?&B ?&B &B &B &B &B &>B &>B &>B &>B &>B &>B &>B &>B &>B &>B &>B &>B &>B &>B &>B &>B &>B &>B &>B &>B &>B &>B &>B &>B &>B &>B &>B &>B &>B &>B &>B &>B &>B &>B &>B &>B &>B &>B &>B &>B &>B &>B &>B &>B &>B &>B &>B &>B &>B &>B &>B &>B &>B &>B &>B &>B &>B &>B &>B &>B &>B &>B &>B &>B &>B &>B &>B &>B &>B &>B &>B &>B &>B &>B &>B &>B &>B &>B &>B &>B &>B &>B &>B &>B &>B &>B &>B &>B &>B &>B &>B &>B &>B &>B &>B &>B &>B &>B &>B &>B &>B &>B &>B &>B &>B &>B &>B &>B &>B &>B &>B &>B &>B &>B &>B &>B &>B &>B &>B &>B &>B &>B &>B &>B &>B &>B &>B &>B &>B &>B &>B &>B &>B &>B &>B &>B &>B &>B &>B &>B &>B &>B >B >B >B >B >B >B >B >B >B >B B B B <B <B <B <B <B <B <B <B <B <B <B <B <B <B <B <B <B <B <B <B <B <B <B <B <B <B <B <B <B <B <B <B <B <B <B <B <B <B <B <B <B <B <B <B <B <B <B <B <B <B <B <B <B <B <B <B <B <B <B <B <B <B <B <B <B <B <B <B <B <B <B <B <B <B <B <B <B <B <B <B <B <B <B <B <B <B <B <B <B <B <B <B <B <B <B <B <B <B <B <B <B <B <B <B <B <B <B <B <B <B <B <B <B <B <B <B <B <B <B <B <B <B <B <B <B <B <B <B <B <B <B <B <B <B <B <B <B <B <B <B <B <B <B <B <B <B <B <B <B <B <B <B B B B B :B :B :B :B :B :B :B :B :B :B :B :B :B :B :B :B :B :B :B :B :B :B :B :B :B :B :B :B :B :B :B :B :B :B :B :B :B :B :B :B :B :B :B :B :B :B :B :B :B :B :B :B :B :B :B :B :B :B :B :B :B :B :B :B :B :B :B :B :B :B :B :B :B :B :B :B :B :B :B :B :B :B :B :B :B :B :B :B :B :B :B :B :B :B :B :B :B :B :B :B :B :B :B :B :B :B :B :B :B :B :B :B :B :B :B :B :B :B :B :B :B :B :B :B :B :B :B :B :B :B :B :B :B :B :B :B :B :B :B :B :B :B :B :B :B :B :B :B :B :B :B :B B B B B 9B 9B 9B 9B 9B 9B 9B 9B 9B 9B 9B 9B 9B 9B 9B 9B 9B 9B 9B 9B 9B 9B 9B 9B 9B 9B 9B 9B 9B 9B 9B 9B 9B 9B 9B 9B 9B 9B 9B 9B 9B 9B 9B 9B 9B 9B 9B 9B 9B 9B 9B 9B 9B 9B 9B 9B 9B 9B 9B 9B 9B 9B 9B 9B 9B 9B 9B 9B 9B 9B 9B 9B 9B 9B 9B 9B 9B 9B 9B 9B 9B 9B 9B 9B 9B 9B 9B 9B 9B 9B 9B 9B 9B 9B 9B 9B 9B 9B 9B 9B 9B 9B 9B 9B 9B 9B 9B 9B 9B 9B 9B 9B 9B 9B 9B 9B 9B 9B 9B 9B 9B 9B 9B 9B 9B 9B 9B 9B 9B 9B 9B 9B 9B 9B 9B 9B 9B 9B 9B 9B 9B 9B 9B 9B 9B 9B 9B 9B 9B 9B 9B 9B B   E: E: E: E: E: E: E: E: E: E: E: E: E: E: E: E: E: E: E: E: E: E: E: E: E: E: E: E: E: E: E: E: E: E: E: E: E: E: E: E: E: E: E: E: E: E: E: E: E: E: E: E: E: E: E: E: E: E: E: E: E: E: E: E: E: E: E: E: E: E: E: E: E: E: : : : : C: C: C: C: C: C: C: C: C: C: C: C: C: C: C: C: C: C: C: C: C: C: C: C: C: C: C: C: C: C: C: C: C: C: C: C: C: C: C: C: C: C: C: C: C: C: C: C: C: C: C: C: C: C: C: C: C: C: C: C: C: C: C: C: C: C: C: C: C: C: C: C: C: C:     B> B> B> B> B> B> B> B> B> B> B> B> B> B> B> B> B> B> B> B> B> B> B> B> B> B> B> B> B> B> B> B> B> B> B> B> B> B> B> B> B> B> B> B> B> B> B> B> B> B> B> B> B> B> B> B> B> B> B> B> B> B> B> B> B> B> B> B> B> B> B> B> B> B> > > > C> C> C> C> C> C> C> C> C> C> C> C> C> C> C> C> C> C> C> C> C> C> C> C> C> C> C> C> C> C> C> C> C> C> C> C> C> C> C> C> C> C> C> C> C> C> C> C> C> C> C> C> C> C> C> C> C> C> C> C> C> C> C> C> C> C> C> C> C> C> C> C> C> C> >    E< E< E< E< E< E< E< E< E< E< E< E< E< E< E< E< E< E< E< E< E< E< E< E< E< E< E< E< E< E< E< E< E< E< E< E< E< E< E< E< E< E< E< E< E< E< E< E< E< E< E< E< E< E< E< E< E< E< E< E< E< E< E< E< E< E< E< E< E< E< E< E< E< E< < < < < C< C< C< C< C< C< C< C< C< C< C< C< C< C< C< C< C< C< C< C< C< C< C< C< C< C< C< C< C< C< C< C< C< C< C< C< C< C< C< C< C< C< C< C< C< C< C< C< C< C< C< C< C< C< C< C< C< C< C< C< C< C< C< C< C< C< C< C< C< C< C< C< C< C<     E: E: E: E: E: E: E: E: E: E: E: E: E: E: E: E: E: E: E: E: E: E: E: E: E: E: E: E: E: E: E: E: E: E: E: E: E: E: E: E: E: E: E: E: E: E: E: E: E: E: E: E: E: E: E: E: E: E: E: E: E: E: E: E: E: E: E: E: E: E: E: E: E: E: : : : C: C: C: C: C: C: C: C: C: C: C: C: C: C: C: C: C: C: C: C: C: C: C: C: C: C: C: C: C: C: C: C: C: C: C: C: C: C: C: C: C: C: C: C: C: C: C: C: C: C: C: C: C: C: C: C: C: C: C: C: C: C: C: C: C: C: C: C: C: C: C: C: C: C: :    E9 E9 E9 E9 E9 E9 E9 E9 E9 E9 E9 E9 E9 E9 E9 E9 E9 E9 E9 E9 E9 E9 E9 E9 E9 E9 E9 E9 E9 E9 E9 E9 E9 E9 E9 E9 E9 E9 E9 E9 E9 E9 E9 E9 E9 E9 E9 E9 E9 E9 E9 E9 E9 E9 E9 E9 E9 E9 E9 E9 E9 E9 E9 E9 E9 E9 E9 E9 E9 E9 E9 E9 E9 E9 9 9 9 9 C9 C9 C9 C9 C9 C9 C9 C9 C9 C9 C9 C9 C9 C9 C9 C9 C9 C9 C9 C9 C9 C9 C9 C9 C9 C9 C9 C9 C9 C9 C9 C9 C9 C9 C9 C9 C9 C9 C9 C9 C9 C9 C9 C9 C9 C9 C9 C9 C9 C9 C9 C9 C9 C9 C9 C9 C9 C9 C9 C9 C9 C9 C9 C9 C9 C9 C9 C9 C9 C9 C9 C9 C9 C9     B7 B7 B7 B7 B7 B7 B7 B7 B7 B7 B7 B7 B7 B7 B7 B7 B7 B7 B7 B7 B7 B7 B7 B7 B7 B7 B7 B7 B7 B7 B7 B7 B7 B7 B7 B7 B7 B7 B7 B7 B7 B7 B7 B7 B7 B7 B7 B7 B7 B7 B7 B7 B7 B7 B7 B7 B7 B7 B7 B7 B7 B7 B7 B7 B7 B7 B7 B7 B7 B7 B7 B7 B7 B7 7 7 7 C7 C7 C7 C7 C7 C7 C7 C7 C7 C7 C7 C7 C7 C7 C7 C7 C7 C7 C7 C7 C7 C7 C7 C7 C7 C7 C7 C7 C7 C7 C7 C7 C7 C7 C7 C7 C7 C7 C7 C7 C7 C7 C7 C7 C7 C7 C7 C7 C7 C7 C7 C7 C7 C7 C7 C7 C7 C7 C7 C7 C7 C7 C7 C7 C7 C7 C7 C7 C7 C7 C7 C7 C7 C7 7    6E 6E 6E 6E 6E 6E 6E 6E 6E 6E 6E 6E 6E 6E 6E 6E 6E 6E 6E 6E 6E 6E 6E 6E 6E 6E 6E 6E 6E 6E 6E 6E 6E 6E 6E 6E 6E 6E 6E 6E 6E 6E 6E 6E 6E 6E 6E 6E 6E 6E 6E 6E 6E 6E 6E 6E 6E 6E 6E 6E 6E 6E 6E 6E 6E 6E 6E 6E 6E 6E 6E 6E 6E 6E 6E 6E 6E 6E 6E 6E 6E 6E 6E 6E 6E 6E 6E 6E 6E 6E 6E 6E 6E 6E 6E 6E 6E 6E 6E 6E 6E 6E 6E 6E 6E 6E 6E 6E 6E 6E 6E 6E 6E 6E 6E 6E 6E 6E 6E 6E 6E 6E 6E 6E 6E 6E 6E 6E 6E 6E 6E 6E 6E 6E 6E 6E 6E 6E 6E 6E 6E 6E 6E 6E 6E 6E 6E 6E 6E 6E 6E 6E E E E E E7 E7 E7 E7 E7 E7 E7 E7 E7 E7 E7 E7 E7 E7 E7 E7 E7 E7 E7 E7 E7 E7 E7 E7 E7 E7 E7 E7 E7 E7 E7 E7 E7 E7 E7 E7 E7 E7 E7 E7 E7 E7 E7 E7 E7 E7 E7 E7 E7 E7 E7 E7 E7 E7 E7 E7 E7 E7 E7 E7 E7 E7 E7 E7 E7 E7 E7 E7 E7 E7 E7 E7 E7 E7 E7 E7 E7 E7 E7 E7 E7 E7 E7 E7 E7 E7 E7 E7 E7 E7 E7 E7 E7 E7 E7 E7 E7 E7 E7 E7 E7 E7 E7 E7 E7 E7 E7 E7 E7 E7 E7 E7 E7 E7 E7 E7 E7 E7 E7 E7 E7 E7 E7 E7 E7 E7 E7 E7 E7 E7 E7 E7 E7 E7 E7 E7 E7 E7 E7 E7 E7 E7 E7 E7 E7 E7 E7 E7 E7 E7 E7 7    6BEJ 6BEJ 6BEJ 6BEJ 6BEJ 6BEJ 6BEJ 6BEJ 6BEJ 6BEJ 6BEJ 6BEJ 6BEJ 6BEJ 6BEJ 6BEJ 6BEJ 6BEJ 6BEJ 6BEJ 6BEJ 6BEJ 6BEJ 6BEJ 6BEJ 6BEJ 6BEJ 6BEJ 6BEJ 6BEJ 6BEJ 6BEJ 6BEJ 6BEJ 6BEJ 6BEJ 6BEJ 6BEJ 6BEJ 6BEJ 6BEJ 6BEJ 6BEJ 6BEJ 6BEJ 6BEJ 6BEJ 6BEJ 6BEJ 6BEJ 6BEJ 6BEJ 6BEJ 6BEJ 6BEJ 6BEJ 6BEJ 6BEJ 6BEJ 6BEJ 6BEJ 6BEJ 6BEJ 6BEJ 6BEJ 6BEJ 6BEJ 6BEJ 6BEJ 6BEJ 6BEJ 6BEJ 6BEJ 6BEJ 6BEJ 6BEJ 6BEJ 6BEJ 6BEJ 6BEJ 6BEJ 6BEJ 6BEJ 6BEJ 6BEJ 6BEJ 6BEJ 6BEJ 6BEJ 6BEJ 6BEJ 6BEJ 6BEJ 6BEJ 6BEJ 6BEJ 6BEJ 6BEJ 6BEJ 6BEJ 6BEJ 6BEJ 6BEJ 6BEJ 6BEJ 6BEJ 6BEJ 6BEJ 6BEJ 6BEJ 6BEJ 6BEJ 6BEJ 6BEJ 6BEJ 6BEJ 6BEJ 6BEJ 6BEJ 6BEJ 6BEJ 6BEJ 6BEJ 6BEJ 6BEJ 6BEJ 6BEJ 6BEJ 6BEJ 6BEJ 6BEJ 6BEJ 6BEJ 6BEJ 6BEJ 6BEJ 6BEJ 6BEJ 6BEJ 6BEJ 6BEJ 6BEJ 6BEJ 6BEJ 6BEJ 6BEJ 6BEJ 6BEJ 6BEJ 6BEJ 6BEJ 6BEJ BEJ BEJ BEJ BEJ BEJ4 BEJ4 BEJ4 BEJ4 BEJ4 BEJ4 BEJ4 BEJ4 BEJ4 BEJ4 BEJ4 BEJ4 BEJ4 BEJ4 BEJ4 BEJ4 BEJ4 BEJ4 BEJ4 BEJ4 BEJ4 BEJ4 BEJ4 BEJ4 BEJ4 BEJ4 BEJ4 BEJ4 BEJ4 BEJ4 BEJ4 BEJ4 BEJ4 BEJ4 BEJ4 BEJ4 BEJ4 BEJ4 BEJ4 BEJ4 BEJ4 BEJ4 BEJ4 BEJ4 BEJ4 BEJ4 BEJ4 BEJ4 BEJ4 BEJ4 BEJ4 BEJ4 BEJ4 BEJ4 BEJ4 BEJ4 BEJ4 BEJ4 BEJ4 BEJ4 BEJ4 BEJ4 BEJ4 BEJ4 BEJ4 BEJ4 BEJ4 BEJ4 BEJ4 BEJ4 BEJ4 BEJ4 BEJ4 BEJ4 BEJ4 BEJ4 BEJ4 BEJ4 BEJ4 BEJ4 BEJ4 BEJ4 BEJ4 BEJ4 BEJ4 BEJ4 BEJ4 BEJ4 BEJ4 BEJ4 BEJ4 BEJ4 BEJ4 BEJ4 BEJ4 BEJ4 BEJ4 BEJ4 BEJ4 BEJ4 BEJ4 BEJ4 BEJ4 BEJ4 BEJ4 BEJ4 BEJ4 BEJ4 BEJ4 BEJ4 BEJ4 BEJ4 BEJ4 BEJ4 BEJ4 BEJ4 BEJ4 BEJ4 BEJ4 BEJ4 BEJ4 BEJ4 BEJ4 BEJ4 BEJ4 BEJ4 BEJ4 BEJ4 BEJ4 BEJ4 BEJ4 BEJ4 BEJ4 BEJ4 BEJ4 BEJ4 BEJ4 BEJ4 BEJ4 BEJ4 BEJ4 BEJ4 BEJ4 BEJ4 BEJ4 BEJ4 BEJ4 BEJ4 BEJ4 BEJ4 BEJ4 4    2EJB 2EJB 2EJB 2EJB 2EJB 2EJB 2EJB 2EJB 2EJB 2EJB 2EJB 2EJB 2EJB 2EJB 2EJB 2EJB 2EJB 2EJB 2EJB 2EJB 2EJB 2EJB 2EJB 2EJB 2EJB 2EJB 2EJB 2EJB 2EJB 2EJB 2EJB 2EJB 2EJB 2EJB 2EJB 2EJB 2EJB 2EJB 2EJB 2EJB 2EJB 2EJB 2EJB 2EJB 2EJB 2EJB 2EJB 2EJB 2EJB 2EJB 2EJB 2EJB 2EJB 2EJB 2EJB 2EJB 2EJB 2EJB 2EJB 2EJB 2EJB 2EJB 2EJB 2EJB 2EJB 2EJB 2EJB 2EJB 2EJB 2EJB 2EJB 2EJB 2EJB 2EJB 2EJB 2EJB 2EJB 2EJB 2EJB 2EJB 2EJB 2EJB 2EJB 2EJB 2EJB 2EJB 2EJB 2EJB 2EJB 2EJB 2EJB 2EJB 2EJB 2EJB 2EJB 2EJB 2EJB 2EJB 2EJB 2EJB 2EJB 2EJB 2EJB 2EJB 2EJB 2EJB 2EJB 2EJB 2EJB 2EJB 2EJB 2EJB 2EJB 2EJB 2EJB 2EJB 2EJB 2EJB 2EJB 2EJB 2EJB 2EJB 2EJB 2EJB 2EJB 2EJB 2EJB 2EJB 2EJB 2EJB 2EJB 2EJB 2EJB 2EJB 2EJB 2EJB 2EJB 2EJB 2EJB 2EJB 2EJB 2EJB 2EJB 2EJB 2EJB 2EJB 2EJB 2EJB 2EJB 2EJB 2EJB 2EJB EJB EJB EJB EJB EJB0 EJB0 EJB0 EJB0 EJB0 EJB0 EJB0 EJB0 EJB0 EJB0 EJB0 EJB0 EJB0 EJB0 EJB0 EJB0 EJB0 EJB0 EJB0 EJB0 EJB0 EJB0 EJB0 EJB0 EJB0 EJB0 EJB0 EJB0 EJB0 EJB0 EJB0 EJB0 EJB0 EJB0 EJB0 EJB0 EJB0 EJB0 EJB0 EJB0 EJB0 EJB0 EJB0 EJB0 EJB0 EJB0 EJB0 EJB0 EJB0 EJB0 EJB0 EJB0 EJB0 EJB0 EJB0 EJB0 EJB0 EJB0 EJB0 EJB0 EJB0 EJB0 EJB0 EJB0 EJB0 EJB0 EJB0 EJB0 EJB0 EJB0 EJB0 EJB0 EJB0 EJB0 EJB0 EJB0 EJB0 EJB0 EJB0 EJB0 EJB0 EJB0 EJB0 EJB0 EJB0 EJB0 EJB0 EJB0 EJB0 EJB0 EJB0 EJB0 EJB0 EJB0 EJB0 EJB0 EJB0 EJB0 EJB0 EJB0 EJB0 EJB0 EJB0 EJB0 EJB0 EJB0 EJB0 EJB0 EJB0 EJB0 EJB0 EJB0 EJB0 EJB0 EJB0 EJB0 EJB0 EJB0 EJB0 EJB0 EJB0 EJB0 EJB0 EJB0 EJB0 EJB0 EJB0 EJB0 EJB0 EJB0 EJB0 EJB0 EJB0 EJB0 EJB0 EJB0 EJB0 EJB0 EJB0 EJB0 EJB0 EJB0 EJB0 EJB0 EJB0 EJB0 EJB0 EJB0 EJB0 EJB0 EJB0 0    /JCGM /JCGM /JCGM /JCGM /JCGM /JCGM /JCGM /JCGM /JCGM /JCGM /JCGM /JCGM /JCGM /JCGM /JCGM /JCGM /JCGM /JCGM /JCGM /JCGM /JCGM /JCGM /JCGM /JCGM /JCGM /JCGM /JCGM /JCGM /JCGM /JCGM /JCGM /JCGM /JCGM /JCGM /JCGM /JCGM /JCGM /JCGM /JCGM /JCGM /JCGM /JCGM /JCGM /JCGM /JCGM /JCGM /JCGM /JCGM /JCGM /JCGM /JCGM /JCGM /JCGM /JCGM /JCGM /JCGM /JCGM /JCGM /JCGM /JCGM /JCGM /JCGM /JCGM /JCGM /JCGM /JCGM /JCGM /JCGM /JCGM /JCGM /JCGM /JCGM /JCGM /JCGM /JCGM /JCGM /JCGM /JCGM /JCGM /JCGM /JCGM /JCGM /JCGM /JCGM /JCGM /JCGM /JCGM /JCGM /JCGM /JCGM /JCGM /JCGM /JCGM /JCGM /JCGM /JCGM /JCGM /JCGM /JCGM /JCGM /JCGM /JCGM /JCGM /JCGM /JCGM /JCGM /JCGM /JCGM /JCGM /JCGM /JCGM /JCGM /JCGM /JCGM /JCGM /JCGM /JCGM /JCGM /JCGM /JCGM /JCGM /JCGM /JCGM /JCGM /JCGM /JCGM /JCGM /JCGM /JCGM /JCGM /JCGM /JCGM /JCGM /JCGM /JCGM /JCGM /JCGM /JCGM /JCGM /JCGM /JCGM /JCGM /JCGM /JCGM /JCGM /JCGM /JCGM /JCGM /JCGM /JCGM /JCGM /JCGM JCGM JCGM JCGM JCGM JCGM- JCGM- JCGM- JCGM- JCGM- JCGM- JCGM- JCGM- JCGM- JCGM- JCGM- JCGM- JCGM- JCGM- JCGM- JCGM- JCGM- JCGM- JCGM- JCGM- JCGM- JCGM- JCGM- JCGM- JCGM- JCGM- JCGM- JCGM- JCGM- JCGM- JCGM- JCGM- JCGM- JCGM- JCGM- JCGM- JCGM- JCGM- JCGM- JCGM- JCGM- JCGM- JCGM- JCGM- JCGM- JCGM- JCGM- JCGM- JCGM- JCGM- JCGM- JCGM- JCGM- JCGM- JCGM- JCGM- JCGM- JCGM- JCGM- JCGM- JCGM- JCGM- JCGM- JCGM- JCGM- JCGM- JCGM- JCGM- JCGM- JCGM- JCGM- JCGM- JCGM- JCGM- JCGM- JCGM- JCGM- JCGM- JCGM- JCGM- JCGM- JCGM- JCGM- JCGM- JCGM- JCGM- JCGM- JCGM- JCGM- JCGM- JCGM- JCGM- JCGM- JCGM- JCGM- JCGM- JCGM- JCGM- JCGM- JCGM- JCGM- JCGM- JCGM- JCGM- JCGM- JCGM- JCGM- JCGM- JCGM- JCGM- JCGM- JCGM- JCGM- JCGM- JCGM- JCGM- JCGM- JCGM- JCGM- JCGM- JCGM- JCGM- JCGM- JCGM- JCGM- JCGM- JCGM- JCGM- JCGM- JCGM- JCGM- JCGM- JCGM- JCGM- JCGM- JCGM- JCGM- JCGM- JCGM- JCGM- JCGM- JCGM- JCGM- JCGM- JCGM- JCGM- JCGM- JCGM- JCGM- JCGM- JCGM- -    +GJMC +GJMC +GJMC +GJMC +GJMC +GJMC +GJMC +GJMC +GJMC +GJMC +GJMC +GJMC +GJMC +GJMC +GJMC +GJMC +GJMC +GJMC +GJMC +GJMC +GJMC +GJMC +GJMC +GJMC +GJMC +GJMC +GJMC +GJMC +GJMC +GJMC +GJMC +GJMC +GJMC +GJMC +GJMC +GJMC +GJMC +GJMC +GJMC +GJMC +GJMC +GJMC +GJMC +GJMC +GJMC +GJMC +GJMC +GJMC +GJMC +GJMC +GJMC +GJMC +GJMC +GJMC +GJMC +GJMC +GJMC +GJMC +GJMC +GJMC +GJMC +GJMC +GJMC +GJMC +GJMC +GJMC +GJMC +GJMC +GJMC +GJMC +GJMC +GJMC +GJMC +GJMC +GJMC +GJMC +GJMC +GJMC +GJMC +GJMC +GJMC +GJMC +GJMC +GJMC +GJMC +GJMC +GJMC +GJMC +GJMC +GJMC +GJMC +GJMC +GJMC +GJMC +GJMC +GJMC +GJMC +GJMC +GJMC +GJMC +GJMC +GJMC +GJMC +GJMC +GJMC +GJMC +GJMC +GJMC +GJMC +GJMC +GJMC +GJMC +GJMC +GJMC +GJMC +GJMC +GJMC +GJMC +GJMC +GJMC +GJMC +GJMC +GJMC +GJMC +GJMC +GJMC +GJMC +GJMC +GJMC +GJMC +GJMC +GJMC +GJMC +GJMC +GJMC +GJMC +GJMC +GJMC +GJMC +GJMC +GJMC +GJMC +GJMC +GJMC +GJMC +GJMC +GJMC +GJMC +GJMC +GJMC +GJMC +GJMC GJMC GJMC GJMC GJMC GJMC) GJMC) GJMC) GJMC) GJMC) GJMC) GJMC) GJMC) GJMC) GJMC) GJMC) GJMC) GJMC) GJMC) GJMC) GJMC) GJMC) GJMC) GJMC) GJMC) GJMC) GJMC) GJMC) GJMC) GJMC) GJMC) GJMC) GJMC) GJMC) GJMC) GJMC) GJMC) GJMC) GJMC) GJMC) GJMC) GJMC) GJMC) GJMC) GJMC) GJMC) GJMC) GJMC) GJMC) GJMC) GJMC) GJMC) GJMC) GJMC) GJMC) GJMC) GJMC) GJMC) GJMC) GJMC) GJMC) GJMC) GJMC) GJMC) GJMC) GJMC) GJMC) GJMC) GJMC) GJMC) GJMC) GJMC) GJMC) GJMC) GJMC) GJMC) GJMC) GJMC) GJMC) GJMC) GJMC) GJMC) GJMC) GJMC) GJMC) GJMC) GJMC) GJMC) GJMC) GJMC) GJMC) GJMC) GJMC) GJMC) GJMC) GJMC) GJMC) GJMC) GJMC) GJMC) GJMC) GJMC) GJMC) GJMC) GJMC) GJMC) GJMC) GJMC) GJMC) GJMC) GJMC) GJMC) GJMC) GJMC) GJMC) GJMC) GJMC) GJMC) GJMC) GJMC) GJMC) GJMC) GJMC) GJMC) GJMC) GJMC) GJMC) GJMC) GJMC) GJMC) GJMC) GJMC) GJMC) GJMC) GJMC) GJMC) GJMC) GJMC) GJMC) GJMC) GJMC) GJMC) GJMC) GJMC) GJMC) GJMC) GJMC) GJMC) GJMC) GJMC) GJMC) GJMC) GJMC) GJMC) GJMC) GJMC) )    (JCGM (JCGM (JCGM (JCGM (JCGM (JCGM (JCGM (JCGM (JCGM (JCGM (JCGM (JCGM (JCGM (JCGM (JCGM (JCGM (JCGM (JCGM (JCGM (JCGM (JCGM (JCGM (JCGM (JCGM (JCGM (JCGM (JCGM (JCGM (JCGM (JCGM (JCGM (JCGM (JCGM (JCGM (JCGM (JCGM (JCGM (JCGM (JCGM (JCGM (JCGM (JCGM (JCGM (JCGM (JCGM (JCGM (JCGM (JCGM (JCGM (JCGM (JCGM (JCGM (JCGM (JCGM (JCGM (JCGM (JCGM (JCGM (JCGM (JCGM (JCGM (JCGM (JCGM (JCGM (JCGM (JCGM (JCGM (JCGM (JCGM (JCGM (JCGM (JCGM (JCGM (JCGM (JCGM (JCGM (JCGM (JCGM (JCGM (JCGM (JCGM (JCGM (JCGM (JCGM (JCGM (JCGM (JCGM (JCGM (JCGM (JCGM (JCGM (JCGM (JCGM (JCGM (JCGM (JCGM (JCGM (JCGM (JCGM (JCGM (JCGM (JCGM (JCGM (JCGM (JCGM (JCGM (JCGM (JCGM (JCGM (JCGM (JCGM (JCGM (JCGM (JCGM (JCGM (JCGM (JCGM (JCGM (JCGM (JCGM (JCGM (JCGM (JCGM (JCGM (JCGM (JCGM (JCGM (JCGM (JCGM (JCGM (JCGM (JCGM (JCGM (JCGM (JCGM (JCGM (JCGM (JCGM (JCGM (JCGM (JCGM (JCGM (JCGM (JCGM (JCGM (JCGM (JCGM (JCGM (JCGM (JCGM (JCGM (JCGM JCGM JCGM JCGM JCGM JCGM& JCGM& JCGM& JCGM& JCGM& JCGM& JCGM& JCGM& JCGM& JCGM& JCGM& JCGM& JCGM& JCGM& JCGM& JCGM& JCGM& JCGM& JCGM& JCGM& JCGM& JCGM& JCGM& JCGM& JCGM& JCGM& JCGM& JCGM& JCGM& JCGM& JCGM& JCGM& JCGM& JCGM& JCGM& JCGM& JCGM& JCGM& JCGM& JCGM& JCGM& JCGM& JCGM& JCGM& JCGM& JCGM& JCGM& JCGM& JCGM& JCGM& JCGM& JCGM& JCGM& JCGM& JCGM& JCGM& JCGM& JCGM& JCGM& JCGM& JCGM& JCGM& JCGM& JCGM& JCGM& JCGM& JCGM& JCGM& JCGM& JCGM& JCGM& JCGM& JCGM& JCGM& JCGM& JCGM& JCGM& JCGM& JCGM& JCGM& JCGM& JCGM& JCGM& JCGM& JCGM& JCGM& JCGM& JCGM& JCGM& JCGM& JCGM& JCGM& JCGM& JCGM& JCGM& JCGM& JCGM& JCGM& JCGM& JCGM& JCGM& JCGM& JCGM& JCGM& JCGM& JCGM& JCGM& JCGM& JCGM& JCGM& JCGM& JCGM& JCGM& JCGM& JCGM& JCGM& JCGM& JCGM& JCGM& JCGM& JCGM& JCGM& JCGM& JCGM& JCGM& JCGM& JCGM& JCGM& JCGM& JCGM& JCGM& JCGM& JCGM& JCGM& JCGM& JCGM& JCGM& JCGM& JCGM& JCGM& JCGM& JCGM& JCGM& JCGM& JCGM& JCGM& JCGM& JCGM& JCGM& JCGM& JCGM& &    MGJ$C MGJ$C MGJ$C MGJ$C MGJ$C MGJ$C MGJ$C MGJ$C MGJ$C MGJ$C MGJ$C MGJ$C MGJ$C MGJ$C MGJ$C MGJ$C MGJ$C MGJ$C MGJ$C MGJ$C MGJ$C MGJ$C MGJ$C MGJ$C MGJ$C MGJ$C MGJ$C MGJ$C MGJ$C MGJ$C MGJ$C MGJ$C MGJ$C MGJ$C MGJ$C MGJ$C MGJ$C MGJ$C MGJ$C MGJ$C MGJ$C MGJ$C MGJ$C MGJ$C MGJ$C MGJ$C MGJ$C MGJ$C MGJ$C MGJ$C MGJ$C MGJ$C MGJ$C MGJ$C MGJ$C MGJ$C MGJ$C MGJ$C MGJ$C MGJ$C MGJ$C MGJ$C MGJ$C MGJ$C MGJ$C MGJ$C MGJ$C MGJ$C MGJ$C MGJ$C MGJ$C MGJ$C MGJ$C MGJ$C MGJ$C MGJ$C MGJ$C MGJ$C MGJ$C MGJ$C MGJ$C MGJ$C MGJ$C MGJ$C MGJ$C MGJ$C MGJ$C MGJ$C MGJ$C MGJ$C MGJ$C MGJ$C MGJ$C MGJ$C MGJ$C MGJ$C MGJ$C MGJ$C MGJ$C MGJ$C MGJ$C MGJ$C MGJ$C MGJ$C MGJ$C MGJ$C MGJ$C MGJ$C MGJ$C MGJ$C MGJ$C MGJ$C MGJ$C MGJ$C MGJ$C MGJ$C MGJ$C MGJ$C MGJ$C MGJ$C MGJ$C MGJ$C MGJ$C MGJ$C MGJ$C MGJ$C MGJ$C MGJ$C MGJ$C MGJ$C MGJ$C MGJ$C MGJ$C MGJ$C MGJ$C MGJ$C MGJ$C MGJ$C MGJ$C MGJ$C MGJ$C MGJ$C MGJ$C MGJ$C MGJ$C MGJ$C MGJ$C MGJ$C MGJ$C MGJ$C MGJ$C MGJ$C MGJ$C MGJ$C MGJ$C MGJ$C MGJ$C MGJ$C MGJ$C MGJ$C MGJ$C MGJ$C MGJ$C MGJ$C MGJ$C MGJ$C MGJ$C MGJ$C MGJ$C MGJ$C MGJ$C MGJ$C MGJ$C MGJ$C MGJ$C MGJ$C MGJ$C MGJ$C MGJ$C MGJ$C MGJ$C MGJ$C MGJ$C MGJ$C MGJ$C MGJ$C MGJ$C MGJ$C MGJ$C MGJ$C MGJ$C MGJ$C MGJ$C MGJ$C MGJ$C MGJ$C MGJ$C MGJ$C MGJ$C MGJ$C MGJ$C MGJ$C MGJ$C MGJ$C MGJ$C MGJ$C MGJ$C MGJ$C MGJ$C MGJ$C MGJ$C MGJ$C MGJ$C MGJ$C MGJ$C MGJ$C MGJ$C MGJ$C MGJ$C MGJ$C MGJ$C MGJ$C MGJ$C MGJ$C MGJ$C MGJ$C MGJ$C MGJ$C MGJ$C MGJ$C MGJ$C MGJ$C MGJ$C MGJ$C MGJ$C MGJ$C MGJ$C MGJ$C MGJ$C MGJ$C MGJ$C MGJ$C MGJ$C MGJ$C MGJ$C MGJ$C MGJ$C MGJ$C MGJ$C MGJ$C MGJ$C MGJ$C MGJ$C MGJ$C MGJ$C MGJ$C MGJ$C MGJ$C MGJ$C MGJ$C MGJ$C MGJ$C MGJ$C MGJ$C MGJ$C MGJ$C MGJ$C MGJ$C MGJ$C MGJ$C MGJ$C MGJ$C MGJ$C MGJ$C MGJ$C MGJ$C MGJ$C MGJ$C MGJ$C MGJ$C MGJ$C MGJ$C MGJ$C MGJ$C MGJ$C MGJ$C MGJ$C MGJ$C MGJ$C MGJ$C MGJ$C MGJ$C MGJ$C MGJ$C MGJ$C MGJ$C MGJ$C MGJ$C MGJ$C MGJ$C MGJ$C MGJ$C MGJ$C MGJ$C MGJ$C MGJ$C MGJ$C C C C C 7CLH 7CLH 7CLH 7CLH 7CLH 7CLH 7CLH 7CLH 7CLH 7CLH 7CLH 7CLH 7CLH 7CLH 7CLH 7CLH 7CLH 7CLH 7CLH 7CLH 7CLH 7CLH 7CLH 7CLH 7CLH 7CLH 7CLH 7CLH 7CLH 7CLH 7CLH 7CLH 7CLH 7CLH 7CLH 7CLH 7CLH 7CLH 7CLH 7CLH 7CLH 7CLH 7CLH 7CLH 7CLH 7CLH 7CLH 7CLH 7CLH 7CLH 7CLH 7CLH 7CLH 7CLH 7CLH 7CLH 7CLH 7CLH 7CLH 7CLH 7CLH 7CLH 7CLH 7CLH 7CLH 7CLH 7CLH 7CLH 7CLH 7CLH 7CLH 7CLH 7CLH 7CLH 7CLH 7CLH 7CLH 7CLH 7CLH 7CLH 7CLH 7CLH 7CLH 7CLH 7CLH 7CLH 7CLH 7CLH 7CLH 7CLH 7CLH 7CLH 7CLH 7CLH 7CLH 7CLH 7CLH 7CLH 7CLH 7CLH 7CLH 7CLH 7CLH 7CLH 7CLH 7CLH 7CLH 7CLH 7CLH 7CLH 7CLH 7CLH 7CLH 7CLH 7CLH 7CLH 7CLH 7CLH 7CLH 7CLH 7CLH 7CLH 7CLH 7CLH 7CLH 7CLH 7CLH 7CLH 7CLH 7CLH 7CLH 7CLH 7CLH 7CLH 7CLH 7CLH 7CLH 7CLH 7CLH 7CLH 7CLH 7CLH 7CLH 7CLH 7CLH 7CLH 7CLH 7CLH 7CLH 7CLH 7CLH 7CLH CLH CLH CLH CLH CLH5 CLH5 CLH5 CLH5 CLH5 CLH5 CLH5 CLH5 CLH5 CLH5 CLH5 CLH5 CLH5 CLH5 CLH5 CLH5 CLH5 CLH5 CLH5 CLH5 CLH5 CLH5 CLH5 CLH5 CLH5 CLH5 CLH5 CLH5 CLH5 CLH5 CLH5 CLH5 CLH5 CLH5 CLH5 CLH5 CLH5 CLH5 CLH5 CLH5 CLH5 CLH5 CLH5 CLH5 CLH5 CLH5 CLH5 CLH5 CLH5 CLH5 CLH5 CLH5 CLH5 CLH5 CLH5 CLH5 CLH5 CLH5 CLH5 CLH5 CLH5 CLH5 CLH5 CLH5 CLH5 CLH5 CLH5 CLH5 CLH5 CLH5 CLH5 CLH5 CLH5 CLH5 CLH5 CLH5 CLH5 CLH5 CLH5 CLH5 CLH5 CLH5 CLH5 CLH5 CLH5 CLH5 CLH5 CLH5 CLH5 CLH5 CLH5 CLH5 CLH5 CLH5 CLH5 CLH5 CLH5 CLH5 CLH5 CLH5 CLH5 CLH5 CLH5 CLH5 CLH5 CLH5 CLH5 CLH5 CLH5 CLH5 CLH5 CLH5 CLH5 CLH5 CLH5 CLH5 CLH5 CLH5 CLH5 CLH5 CLH5 CLH5 CLH5 CLH5 CLH5 CLH5 LH5 LH5 LH5 LH5 LH5 LH5 LH5 LH5 5 5 5 5 5 5 5 5 5 5 5 5 5 5 5 5 5 5    4HLC 4HLC 4HLC 4HLC 4HLC 4HLC 4HLC 4HLC 4HLC 4HLC 4HLC 4HLC 4HLC 4HLC 4HLC 4HLC 4HLC 4HLC 4HLC 4HLC 4HLC 4HLC 4HLC 4HLC 4HLC 4HLC 4HLC 4HLC 4HLC 4HLC 4HLC 4HLC 4HLC 4HLC 4HLC 4HLC 4HLC 4HLC 4HLC 4HLC 4HLC 4HLC 4HLC 4HLC 4HLC 4HLC 4HLC 4HLC 4HLC 4HLC 4HLC 4HLC 4HLC 4HLC 4HLC 4HLC 4HLC 4HLC 4HLC 4HLC 4HLC 4HLC 4HLC 4HLC 4HLC 4HLC 4HLC 4HLC 4HLC 4HLC 4HLC 4HLC 4HLC 4HLC 4HLC 4HLC 4HLC 4HLC 4HLC 4HLC 4HLC 4HLC 4HLC 4HLC 4HLC 4HLC 4HLC 4HLC 4HLC 4HLC 4HLC 4HLC 4HLC 4HLC 4HLC 4HLC 4HLC 4HLC 4HLC 4HLC 4HLC 4HLC 4HLC 4HLC 4HLC 4HLC 4HLC 4HLC 4HLC 4HLC 4HLC 4HLC 4HLC 4HLC 4HLC 4HLC 4HLC 4HLC 4HLC 4HLC 4HLC 4HLC 4HLC 4HLC 4HLC 4HLC 4HLC 4HLC 4HLC 4HLC 4HLC 4HLC 4HLC 4HLC 4HLC 4HLC 4HLC 4HLC 4HLC 4HLC 4HLC 4HLC 4HLC 4HLC 4HLC 4HLC 4HLC 4HLC 4HLC 4HLC 4HLC 4HLC HLC HLC HLC HLC HLC2 HLC2 HLC2 HLC2 HLC2 HLC2 HLC2 HLC2 HLC2 HLC2 HLC2 HLC2 HLC2 HLC2 HLC2 HLC2 HLC2 HLC2 HLC2 HLC2 HLC2 HLC2 HLC2 HLC2 HLC2 HLC2 HLC2 HLC2 HLC2 HLC2 HLC2 HLC2 HLC2 HLC2 HLC2 HLC2 HLC2 HLC2 HLC2 HLC2 HLC2 HLC2 HLC2 HLC2 HLC2 HLC2 HLC2 HLC2 HLC2 HLC2 HLC2 HLC2 HLC2 HLC2 HLC2 HLC2 HLC2 HLC2 HLC2 HLC2 HLC2 HLC2 HLC2 HLC2 HLC2 HLC2 HLC2 HLC2 HLC2 HLC2 HLC2 HLC2 HLC2 HLC2 HLC2 HLC2 HLC2 HLC2 HLC2 HLC2 HLC2 HLC2 HLC2 HLC2 HLC2 HLC2 HLC2 HLC2 HLC2 HLC2 HLC2 HLC2 HLC2 HLC2 HLC2 HLC2 HLC2 HLC2 HLC2 HLC2 HLC2 HLC2 HLC2 HLC2 HLC2 HLC2 HLC2 HLC2 HLC2 HLC2 HLC2 HLC2 HLC2 HLC2 HLC2 HLC2 HLC2 HLC2 HLC2 HLC2 HLC2 HLC2 HLC2 HLC2 HLC2 HLC2 HLC2 HLC2 HLC2 HLC2 HLC2 HLC2 HLC2 HLC2 HLC2 HLC2 HLC2 HLC2 HLC2 HLC2 HLC2 HLC2 HLC2 HLC2 HLC2 HLC2 HLC2 HLC2 HLC2 HLC2 HLC2 2     1LOEI 1LOEI 1LOEI 1LOEI 1LOEI 1LOEI 1LOEI 1LOEI 1LOEI 1LOEI 1LOEI 1LOEI 1LOEI 1LOEI 1LOEI 1LOEI 1LOEI 1LOEI 1LOEI 1LOEI 1LOEI 1LOEI 1LOEI 1LOEI 1LOEI 1LOEI 1LOEI 1LOEI 1LOEI 1LOEI 1LOEI 1LOEI 1LOEI 1LOEI 1LOEI 1LOEI 1LOEI 1LOEI 1LOEI 1LOEI 1LOEI 1LOEI 1LOEI 1LOEI 1LOEI 1LOEI 1LOEI 1LOEI 1LOEI 1LOEI 1LOEI 1LOEI 1LOEI 1LOEI 1LOEI 1LOEI 1LOEI 1LOEI 1LOEI 1LOEI 1LOEI 1LOEI 1LOEI 1LOEI 1LOEI 1LOEI 1LOEI 1LOEI 1LOEI 1LOEI 1LOEI 1LOEI 1LOEI 1LOEI 1LOEI 1LOEI 1LOEI 1LOEI 1LOEI 1LOEI 1LOEI 1LOEI 1LOEI 1LOEI 1LOEI 1LOEI 1LOEI 1LOEI 1LOEI 1LOEI 1LOEI 1LOEI 1LOEI 1LOEI 1LOEI 1LOEI 1LOEI 1LOEI 1LOEI 1LOEI 1LOEI 1LOEI 1LOEI 1LOEI 1LOEI 1LOEI 1LOEI 1LOEI 1LOEI 1LOEI 1LOEI 1LOEI 1LOEI 1LOEI 1LOEI 1LOEI 1LOEI 1LOEI 1LOEI 1LOEI 1LOEI 1LOEI 1LOEI 1LOEI 1LOEI 1LOEI 1LOEI 1LOEI 1LOEI 1LOEI 1LOEI 1LOEI 1LOEI 1LOEI 1LOEI 1LOEI 1LOEI 1LOEI 1LOEI 1LOEI 1LOEI 1LOEI 1LOEI 1LOEI 1LOEI 1LOEI 1LOEI 1LOEI 1LOEI 1LOEI 1LOEI 1LOEI LOEI LOEI LOEI /LOEI /LOEI /LOEI /LOEI /LOEI /LOEI /LOEI /LOEI /LOEI /LOEI /LOEI /LOEI /LOEI /LOEI /LOEI /LOEI /LOEI /LOEI /LOEI /LOEI /LOEI /LOEI /LOEI /LOEI /LOEI /LOEI /LOEI /LOEI /LOEI /LOEI /LOEI /LOEI /LOEI /LOEI /LOEI /LOEI /LOEI /LOEI /LOEI /LOEI /LOEI /LOEI /LOEI /LOEI /LOEI /LOEI /LOEI /LOEI /LOEI /LOEI /LOEI /LOEI /LOEI /LOEI /LOEI /LOEI /LOEI /LOEI /LOEI /LOEI /LOEI /LOEI /LOEI /LOEI /LOEI /LOEI /LOEI /LOEI /LOEI /LOEI /LOEI /LOEI /LOEI /LOEI /LOEI /LOEI /LOEI /LOEI /LOEI /LOEI /LOEI /LOEI /LOEI /LOEI /LOEI /LOEI /LOEI /LOEI /LOEI /LOEI /LOEI /LOEI /LOEI /LOEI /LOEI /LOEI /LOEI /LOEI /LOEI /LOEI /LOEI /LOEI /LOEI /LOEI /LOEI /LOEI /LOEI /LOEI /LOEI /LOEI /LOEI /LOEI /LOEI /LOEI /LOEI /LOEI /LOEI /LOEI /LOEI /LOEI /LOEI /LOEI /LOEI /LOEI /LOEI /LOEI /LOEI /LOEI /LOEI /LOEI /LOEI /LOEI /LOEI /LOEI /LOEI /LOEI /LOEI /LOEI /LOEI /LOEI /LOEI /LOEI /LOEI /LOEI /LOEI /LOEI /LOEI /LOEI /LOEI /LOEI /LOEI /LOEI     -ILOE -ILOE -ILOE -ILOE -ILOE -ILOE -ILOE -ILOE -ILOE -ILOE -ILOE -ILOE -ILOE -ILOE -ILOE -ILOE -ILOE -ILOE -ILOE -ILOE -ILOE -ILOE -ILOE -ILOE -ILOE -ILOE -ILOE -ILOE -ILOE -ILOE -ILOE -ILOE -ILOE -ILOE -ILOE -ILOE -ILOE -ILOE -ILOE -ILOE -ILOE -ILOE -ILOE -ILOE -ILOE -ILOE -ILOE -ILOE -ILOE -ILOE -ILOE -ILOE -ILOE -ILOE -ILOE -ILOE -ILOE -ILOE -ILOE -ILOE -ILOE -ILOE -ILOE -ILOE -ILOE -ILOE -ILOE -ILOE -ILOE -ILOE -ILOE -ILOE -ILOE -ILOE -ILOE -ILOE -ILOE -ILOE -ILOE -ILOE -ILOE -ILOE -ILOE -ILOE -ILOE -ILOE -ILOE -ILOE -ILOE -ILOE -ILOE -ILOE -ILOE -ILOE -ILOE -ILOE -ILOE -ILOE -ILOE -ILOE -ILOE -ILOE -ILOE -ILOE -ILOE -ILOE -ILOE -ILOE -ILOE -ILOE -ILOE -ILOE -ILOE -ILOE -ILOE -ILOE -ILOE -ILOE -ILOE -ILOE -ILOE -ILOE -ILOE -ILOE -ILOE -ILOE -ILOE -ILOE -ILOE -ILOE -ILOE -ILOE -ILOE -ILOE -ILOE -ILOE -ILOE -ILOE -ILOE -ILOE -ILOE -ILOE -ILOE -ILOE -ILOE -ILOE -ILOE -ILOE -ILOE -ILOE -ILOE -ILOE ILOE ILOE ILOE +ILOE +ILOE +ILOE +ILOE +ILOE +ILOE +ILOE +ILOE +ILOE +ILOE +ILOE +ILOE +ILOE +ILOE +ILOE +ILOE +ILOE +ILOE +ILOE +ILOE +ILOE +ILOE +ILOE +ILOE +ILOE +ILOE +ILOE +ILOE +ILOE +ILOE +ILOE +ILOE +ILOE +ILOE +ILOE +ILOE +ILOE +ILOE +ILOE +ILOE +ILOE +ILOE +ILOE +ILOE +ILOE +ILOE +ILOE +ILOE +ILOE +ILOE +ILOE +ILOE +ILOE +ILOE +ILOE +ILOE +ILOE +ILOE +ILOE +ILOE +ILOE +ILOE +ILOE +ILOE +ILOE +ILOE +ILOE +ILOE +ILOE +ILOE +ILOE +ILOE +ILOE +ILOE +ILOE +ILOE +ILOE +ILOE +ILOE +ILOE +ILOE +ILOE +ILOE +ILOE +ILOE +ILOE +ILOE +ILOE +ILOE +ILOE +ILOE +ILOE +ILOE +ILOE +ILOE +ILOE +ILOE +ILOE +ILOE +ILOE +ILOE +ILOE +ILOE +ILOE +ILOE +ILOE +ILOE +ILOE +ILOE +ILOE +ILOE +ILOE +ILOE +ILOE +ILOE +ILOE +ILOE +ILOE +ILOE +ILOE +ILOE +ILOE +ILOE +ILOE +ILOE +ILOE +ILOE +ILOE +ILOE +ILOE +ILOE +ILOE +ILOE +ILOE +ILOE +ILOE +ILOE +ILOE +ILOE +ILOE +ILOE +ILOE +ILOE +ILOE +ILOE +ILOE +ILOE +ILOE +ILOE +ILOE +ILOE +ILOE     *LOEI *LOEI *LOEI *LOEI *LOEI *LOEI *LOEI *LOEI *LOEI *LOEI *LOEI *LOEI *LOEI *LOEI *LOEI *LOEI *LOEI *LOEI *LOEI *LOEI *LOEI *LOEI *LOEI *LOEI *LOEI *LOEI *LOEI *LOEI *LOEI *LOEI *LOEI *LOEI *LOEI *LOEI *LOEI *LOEI *LOEI *LOEI *LOEI *LOEI *LOEI *LOEI *LOEI *LOEI *LOEI *LOEI *LOEI *LOEI *LOEI *LOEI *LOEI *LOEI *LOEI *LOEI *LOEI *LOEI *LOEI *LOEI *LOEI *LOEI *LOEI *LOEI *LOEI *LOEI *LOEI *LOEI *LOEI *LOEI *LOEI *LOEI *LOEI *LOEI *LOEI *LOEI *LOEI *LOEI *LOEI *LOEI *LOEI *LOEI *LOEI *LOEI *LOEI *LOEI *LOEI *LOEI *LOEI *LOEI *LOEI *LOEI *LOEI *LOEI *LOEI *LOEI *LOEI *LOEI *LOEI *LOEI *LOEI *LOEI *LOEI *LOEI *LOEI *LOEI *LOEI *LOEI *LOEI *LOEI *LOEI *LOEI *LOEI *LOEI *LOEI *LOEI *LOEI *LOEI *LOEI *LOEI *LOEI *LOEI *LOEI *LOEI *LOEI *LOEI *LOEI *LOEI *LOEI *LOEI *LOEI *LOEI *LOEI *LOEI *LOEI *LOEI *LOEI *LOEI *LOEI *LOEI *LOEI *LOEI *LOEI *LOEI *LOEI *LOEI *LOEI *LOEI *LOEI *LOEI *LOEI *LOEI *LOEI *LOEI LOEI LOEI LOEI (LOEI (LOEI (LOEI (LOEI (LOEI (LOEI (LOEI (LOEI (LOEI (LOEI (LOEI (LOEI (LOEI (LOEI (LOEI (LOEI (LOEI (LOEI (LOEI (LOEI (LOEI (LOEI (LOEI (LOEI (LOEI (LOEI (LOEI (LOEI (LOEI (LOEI (LOEI (LOEI (LOEI (LOEI (LOEI (LOEI (LOEI (LOEI (LOEI (LOEI (LOEI (LOEI (LOEI (LOEI (LOEI (LOEI (LOEI (LOEI (LOEI (LOEI (LOEI (LOEI (LOEI (LOEI (LOEI (LOEI (LOEI (LOEI (LOEI (LOEI (LOEI (LOEI (LOEI (LOEI (LOEI (LOEI (LOEI (LOEI (LOEI (LOEI (LOEI (LOEI (LOEI (LOEI (LOEI (LOEI (LOEI (LOEI (LOEI (LOEI (LOEI (LOEI (LOEI (LOEI (LOEI (LOEI (LOEI (LOEI (LOEI (LOEI (LOEI (LOEI (LOEI (LOEI (LOEI (LOEI (LOEI (LOEI (LOEI (LOEI (LOEI (LOEI (LOEI (LOEI (LOEI (LOEI (LOEI (LOEI (LOEI (LOEI (LOEI (LOEI (LOEI (LOEI (LOEI (LOEI (LOEI (LOEI (LOEI (LOEI (LOEI (LOEI (LOEI (LOEI (LOEI (LOEI (LOEI (LOEI (LOEI (LOEI (LOEI (LOEI (LOEI (LOEI (LOEI (LOEI (LOEI (LOEI (LOEI (LOEI (LOEI (LOEI (LOEI (LOEI (LOEI (LOEI (LOEI (LOEI (LOEI (LOEI (LOEI (LOEI     LOI&E LOI&E LOI&E LOI&E LOI&E LOI&E LOI&E LOI&E LOI&E LOI&E LOI&E LOI&E LOI&E LOI&E LOI&E LOI&E LOI&E LOI&E LOI&E LOI&E LOI&E LOI&E LOI&E LOI&E LOI&E LOI&E LOI&E LOI&E LOI&E LOI&E LOI&E LOI&E LOI&E LOI&E LOI&E LOI&E LOI&E LOI&E LOI&E LOI&E LOI&E LOI&E LOI&E LOI&E LOI&E LOI&E LOI&E LOI&E LOI&E LOI&E LOI&E LOI&E LOI&E LOI&E LOI&E LOI&E LOI&E LOI&E LOI&E LOI&E LOI&E LOI&E LOI&E LOI&E LOI&E LOI&E LOI&E LOI&E LOI&E LOI&E LOI&E LOI&E LOI&E LOI&E LOI&E LOI&E LOI&E LOI&E LOI&E LOI&E LOI&E LOI&E LOI&E LOI&E LOI&E LOI&E LOI&E LOI&E LOI&E LOI&E LOI&E LOI&E LOI&E LOI&E LOI&E LOI&E LOI&E LOI&E LOI&E LOI&E LOI&E LOI&E LOI&E LOI&E LOI&E LOI&E LOI&E LOI&E LOI&E LOI&E LOI&E LOI&E LOI&E LOI&E LOI&E LOI&E LOI&E LOI&E LOI&E LOI&E LOI&E LOI&E LOI&E LOI&E LOI&E LOI&E LOI&E LOI&E LOI&E LOI&E LOI&E LOI&E LOI&E LOI&E LOI&E LOI&E LOI&E LOI&E LOI&E LOI&E LOI&E LOI&E LOI&E LOI&E LOI&E LOI&E LOI&E LOI&E LOI&E LOI&E LOI&E LOI&E LOI&E LOI&E LOI&E LOI&E LOI&E LOI&E LOI&E LOI&E LOI&E LOI&E LOI&E LOI&E LOI&E LOI&E LOI&E LOI&E LOI&E LOI&E LOI&E LOI&E LOI&E LOI&E LOI&E LOI&E LOI&E LOI&E LOI&E LOI&E LOI&E LOI&E LOI&E LOI&E LOI&E LOI&E LOI&E LOI&E LOI&E LOI&E LOI&E LOI&E LOI&E LOI&E LOI&E LOI&E LOI&E LOI&E LOI&E LOI&E LOI&E LOI&E LOI&E LOI&E LOI&E LOI&E LOI&E LOI&E LOI&E LOI&E LOI&E LOI&E LOI&E LOI&E LOI&E LOI&E LOI&E LOI&E LOI&E LOI&E LOI&E LOI&E LOI&E LOI&E LOI&E LOI&E LOI&E LOI&E LOI&E LOI&E LOI&E LOI&E LOI&E LOI&E LOI&E LOI&E LOI&E LOI&E LOI&E LOI&E LOI&E LOI&E LOI&E LOI&E LOI&E LOI&E LOI&E LOI&E LOI&E LOI&E LOI&E LOI&E LOI&E LOI&E LOI&E LOI&E LOI&E LOI&E LOI&E LOI&E LOI&E LOI&E LOI&E LOI&E LOI&E LOI&E LOI&E LOI&E LOI&E LOI&E LOI&E LOI&E LOI&E LOI&E LOI&E LOI&E LOI&E LOI&E LOI&E LOI&E LOI&E LOI&E LOI&E LOI&E LOI&E LOI&E LOI&E LOI&E LOI&E LOI&E LOI&E LOI&E LOI&E LOI&E LOI&E LOI&E LOI&E LOI&E LOI&E LOI&E LOI&E LOI&E LOI&E LOI&E LOI&E LOI&E LOI&E E E E E <EJN <EJN <EJN <EJN <EJN <EJN <EJN <EJN <EJN <EJN <EJN <EJN <EJN <EJN <EJN <EJN <EJN <EJN <EJN <EJN <EJN <EJN <EJN <EJN <EJN <EJN <EJN <EJN <EJN <EJN <EJN <EJN <EJN <EJN <EJN <EJN <EJN <EJN <EJN <EJN <EJN <EJN <EJN <EJN <EJN <EJN <EJN <EJN <EJN <EJN <EJN <EJN <EJN <EJN <EJN <EJN <EJN <EJN <EJN <EJN <EJN <EJN <EJN <EJN <EJN <EJN <EJN <EJN <EJN <EJN <EJN <EJN <EJN <EJN <EJN <EJN <EJN <EJN <EJN <EJN <EJN <EJN <EJN <EJN <EJN <EJN <EJN <EJN <EJN <EJN <EJN <EJN <EJN <EJN <EJN <EJN <EJN <EJN <EJN <EJN <EJN <EJN <EJN <EJN <EJN <EJN <EJN <EJN <EJN <EJN <EJN <EJN <EJN <EJN <EJN <EJN <EJN <EJN <EJN <EJN <EJN <EJN <EJN <EJN <EJN <EJN <EJN <EJN <EJN <EJN <EJN <EJN <EJN <EJN <EJN <EJN <EJN <EJN <EJN <EJN <EJN <EJN <EJN <EJN <EJN <EJN <EJN <EJN <EJN <EJN <EJN <EJN EJN EJN EJN EJN: EJN: EJN: EJN: EJN: EJN: EJN: EJN: EJN: EJN: EJN: EJN: EJN: EJN: EJN: EJN: EJN: EJN: EJN: EJN: EJN: EJN: EJN: EJN: EJN: EJN: EJN: EJN: EJN: EJN: EJN: EJN: EJN: EJN: EJN: EJN: EJN: EJN: EJN: EJN: EJN: EJN: EJN: EJN: EJN: EJN: EJN: EJN: EJN: EJN: EJN: EJN: EJN: EJN: EJN: EJN: EJN: EJN: EJN: EJN: EJN: EJN: EJN: EJN: EJN: EJN: EJN: EJN: EJN: EJN: EJN: EJN: EJN: EJN: EJN: EJN: EJN: EJN: EJN: EJN: EJN: EJN: EJN: EJN: EJN: EJN: EJN: EJN: EJN: EJN: EJN: EJN: EJN: EJN: EJN: EJN: EJN: EJN: EJN: EJN: EJN: EJN: EJN: EJN: EJN: EJN: EJN: EJN: EJN: EJN: EJN: EJN: EJN: EJN: EJN: EJN: EJN: EJN: EJN: EJN: EJN: EJN: EJN: EJN: JN: JN: JN: JN: JN: JN: JN: JN: JN: JN: JN: : : : : : : : : : : : : : : : : :     9EJN 9EJN 9EJN 9EJN 9EJN 9EJN 9EJN 9EJN 9EJN 9EJN 9EJN 9EJN 9EJN 9EJN 9EJN 9EJN 9EJN 9EJN 9EJN 9EJN 9EJN 9EJN 9EJN 9EJN 9EJN 9EJN 9EJN 9EJN 9EJN 9EJN 9EJN 9EJN 9EJN 9EJN 9EJN 9EJN 9EJN 9EJN 9EJN 9EJN 9EJN 9EJN 9EJN 9EJN 9EJN 9EJN 9EJN 9EJN 9EJN 9EJN 9EJN 9EJN 9EJN 9EJN 9EJN 9EJN 9EJN 9EJN 9EJN 9EJN 9EJN 9EJN 9EJN 9EJN 9EJN 9EJN 9EJN 9EJN 9EJN 9EJN 9EJN 9EJN 9EJN 9EJN 9EJN 9EJN 9EJN 9EJN 9EJN 9EJN 9EJN 9EJN 9EJN 9EJN 9EJN 9EJN 9EJN 9EJN 9EJN 9EJN 9EJN 9EJN 9EJN 9EJN 9EJN 9EJN 9EJN 9EJN 9EJN 9EJN 9EJN 9EJN 9EJN 9EJN 9EJN 9EJN 9EJN 9EJN 9EJN 9EJN 9EJN 9EJN 9EJN 9EJN 9EJN 9EJN 9EJN 9EJN 9EJN 9EJN 9EJN 9EJN 9EJN 9EJN 9EJN 9EJN 9EJN 9EJN 9EJN 9EJN 9EJN 9EJN 9EJN 9EJN 9EJN 9EJN 9EJN 9EJN 9EJN 9EJN 9EJN 9EJN 9EJN 9EJN 9EJN 9EJN 9EJN 9EJN 9EJN 9EJN 9EJN 9EJN EJN EJN EJN EJN7 EJN7 EJN7 EJN7 EJN7 EJN7 EJN7 EJN7 EJN7 EJN7 EJN7 EJN7 EJN7 EJN7 EJN7 EJN7 EJN7 EJN7 EJN7 EJN7 EJN7 EJN7 EJN7 EJN7 EJN7 EJN7 EJN7 EJN7 EJN7 EJN7 EJN7 EJN7 EJN7 EJN7 EJN7 EJN7 EJN7 EJN7 EJN7 EJN7 EJN7 EJN7 EJN7 EJN7 EJN7 EJN7 EJN7 EJN7 EJN7 EJN7 EJN7 EJN7 EJN7 EJN7 EJN7 EJN7 EJN7 EJN7 EJN7 EJN7 EJN7 EJN7 EJN7 EJN7 EJN7 EJN7 EJN7 EJN7 EJN7 EJN7 EJN7 EJN7 EJN7 EJN7 EJN7 EJN7 EJN7 EJN7 EJN7 EJN7 EJN7 EJN7 EJN7 EJN7 EJN7 EJN7 EJN7 EJN7 EJN7 EJN7 EJN7 EJN7 EJN7 EJN7 EJN7 EJN7 EJN7 EJN7 EJN7 EJN7 EJN7 EJN7 EJN7 EJN7 EJN7 EJN7 EJN7 EJN7 EJN7 EJN7 EJN7 EJN7 EJN7 EJN7 EJN7 EJN7 EJN7 EJN7 EJN7 EJN7 EJN7 EJN7 EJN7 EJN7 EJN7 7 7 7 7 7 7 7 7 7 7 7 7 7 7 7 7 7 7 7 7 7 7 7 7 7 7 7     6QHJ 6QHJ 6QHJ 6QHJ 6QHJ 6QHJ 6QHJ 6QHJ 6QHJ 6QHJ 6QHJ 6QHJ 6QHJ 6QHJ 6QHJ 6QHJ 6QHJ 6QHJ 6QHJ 6QHJ 6QHJ 6QHJ 6QHJ 6QHJ 6QHJ 6QHJ 6QHJ 6QHJ 6QHJ 6QHJ 6QHJ 6QHJ 6QHJ 6QHJ 6QHJ 6QHJ 6QHJ 6QHJ 6QHJ 6QHJ 6QHJ 6QHJ 6QHJ 6QHJ 6QHJ 6QHJ 6QHJ 6QHJ 6QHJ 6QHJ 6QHJ 6QHJ 6QHJ 6QHJ 6QHJ 6QHJ 6QHJ 6QHJ 6QHJ 6QHJ 6QHJ 6QHJ 6QHJ 6QHJ 6QHJ 6QHJ 6QHJ 6QHJ 6QHJ 6QHJ 6QHJ 6QHJ 6QHJ 6QHJ 6QHJ 6QHJ 6QHJ 6QHJ 6QHJ 6QHJ 6QHJ 6QHJ 6QHJ 6QHJ 6QHJ 6QHJ 6QHJ 6QHJ 6QHJ 6QHJ 6QHJ 6QHJ 6QHJ 6QHJ 6QHJ 6QHJ 6QHJ 6QHJ 6QHJ 6QHJ 6QHJ 6QHJ 6QHJ 6QHJ 6QHJ 6QHJ 6QHJ 6QHJ 6QHJ 6QHJ 6QHJ 6QHJ 6QHJ 6QHJ 6QHJ 6QHJ 6QHJ 6QHJ 6QHJ 6QHJ 6QHJ 6QHJ 6QHJ 6QHJ 6QHJ 6QHJ 6QHJ 6QHJ 6QHJ 6QHJ 6QHJ 6QHJ 6QHJ 6QHJ 6QHJ 6QHJ 6QHJ 6QHJ 6QHJ 6QHJ 6QHJ 6QHJ 6QHJ 6QHJ 6QHJ 6QHJ 6QHJ 6QHJ 6QHJ 6QHJ 6QHJ 6QHJ QHJ QHJ QHJ 4QHJ 4QHJ 4QHJ 4QHJ 4QHJ 4QHJ 4QHJ 4QHJ 4QHJ 4QHJ 4QHJ 4QHJ 4QHJ 4QHJ 4QHJ 4QHJ 4QHJ 4QHJ 4QHJ 4QHJ 4QHJ 4QHJ 4QHJ 4QHJ 4QHJ 4QHJ 4QHJ 4QHJ 4QHJ 4QHJ 4QHJ 4QHJ 4QHJ 4QHJ 4QHJ 4QHJ 4QHJ 4QHJ 4QHJ 4QHJ 4QHJ 4QHJ 4QHJ 4QHJ 4QHJ 4QHJ 4QHJ 4QHJ 4QHJ 4QHJ 4QHJ 4QHJ 4QHJ 4QHJ 4QHJ 4QHJ 4QHJ 4QHJ 4QHJ 4QHJ 4QHJ 4QHJ 4QHJ 4QHJ 4QHJ 4QHJ 4QHJ 4QHJ 4QHJ 4QHJ 4QHJ 4QHJ 4QHJ 4QHJ 4QHJ 4QHJ 4QHJ 4QHJ 4QHJ 4QHJ 4QHJ 4QHJ 4QHJ 4QHJ 4QHJ 4QHJ 4QHJ 4QHJ 4QHJ 4QHJ 4QHJ 4QHJ 4QHJ 4QHJ 4QHJ 4QHJ 4QHJ 4QHJ 4QHJ 4QHJ 4QHJ 4QHJ 4QHJ 4QHJ 4QHJ 4QHJ 4QHJ 4QHJ 4QHJ 4QHJ 4QHJ 4QHJ 4QHJ 4QHJ 4QHJ 4QHJ 4QHJ 4QHJ 4QHJ 4QHJ 4QHJ 4QHJ 4QHJ 4QHJ 4QHJ 4QHJ 4QHJ 4QHJ 4QHJ 4QHJ 4QHJ 4QHJ 4QHJ 4QHJ 4QHJ 4QHJ 4QHJ 4QHJ 4QHJ 4QHJ 4QHJ 4QHJ 4QHJ 4QHJ 4QHJ 4QHJ 4QHJ 4QHJ 4QHJ 4QHJ 4QHJ 4QHJ     2QHJ 2QHJ 2QHJ 2QHJ 2QHJ 2QHJ 2QHJ 2QHJ 2QHJ 2QHJ 2QHJ 2QHJ 2QHJ 2QHJ 2QHJ 2QHJ 2QHJ 2QHJ 2QHJ 2QHJ 2QHJ 2QHJ 2QHJ 2QHJ 2QHJ 2QHJ 2QHJ 2QHJ 2QHJ 2QHJ 2QHJ 2QHJ 2QHJ 2QHJ 2QHJ 2QHJ 2QHJ 2QHJ 2QHJ 2QHJ 2QHJ 2QHJ 2QHJ 2QHJ 2QHJ 2QHJ 2QHJ 2QHJ 2QHJ 2QHJ 2QHJ 2QHJ 2QHJ 2QHJ 2QHJ 2QHJ 2QHJ 2QHJ 2QHJ 2QHJ 2QHJ 2QHJ 2QHJ 2QHJ 2QHJ 2QHJ 2QHJ 2QHJ 2QHJ 2QHJ 2QHJ 2QHJ 2QHJ 2QHJ 2QHJ 2QHJ 2QHJ 2QHJ 2QHJ 2QHJ 2QHJ 2QHJ 2QHJ 2QHJ 2QHJ 2QHJ 2QHJ 2QHJ 2QHJ 2QHJ 2QHJ 2QHJ 2QHJ 2QHJ 2QHJ 2QHJ 2QHJ 2QHJ 2QHJ 2QHJ 2QHJ 2QHJ 2QHJ 2QHJ 2QHJ 2QHJ 2QHJ 2QHJ 2QHJ 2QHJ 2QHJ 2QHJ 2QHJ 2QHJ 2QHJ 2QHJ 2QHJ 2QHJ 2QHJ 2QHJ 2QHJ 2QHJ 2QHJ 2QHJ 2QHJ 2QHJ 2QHJ 2QHJ 2QHJ 2QHJ 2QHJ 2QHJ 2QHJ 2QHJ 2QHJ 2QHJ 2QHJ 2QHJ 2QHJ 2QHJ 2QHJ 2QHJ 2QHJ 2QHJ 2QHJ 2QHJ 2QHJ 2QHJ 2QHJ 2QHJ 2QHJ 2QHJ QHJ QHJ QHJ 0QHJ 0QHJ 0QHJ 0QHJ 0QHJ 0QHJ 0QHJ 0QHJ 0QHJ 0QHJ 0QHJ 0QHJ 0QHJ 0QHJ 0QHJ 0QHJ 0QHJ 0QHJ 0QHJ 0QHJ 0QHJ 0QHJ 0QHJ 0QHJ 0QHJ 0QHJ 0QHJ 0QHJ 0QHJ 0QHJ 0QHJ 0QHJ 0QHJ 0QHJ 0QHJ 0QHJ 0QHJ 0QHJ 0QHJ 0QHJ 0QHJ 0QHJ 0QHJ 0QHJ 0QHJ 0QHJ 0QHJ 0QHJ 0QHJ 0QHJ 0QHJ 0QHJ 0QHJ 0QHJ 0QHJ 0QHJ 0QHJ 0QHJ 0QHJ 0QHJ 0QHJ 0QHJ 0QHJ 0QHJ 0QHJ 0QHJ 0QHJ 0QHJ 0QHJ 0QHJ 0QHJ 0QHJ 0QHJ 0QHJ 0QHJ 0QHJ 0QHJ 0QHJ 0QHJ 0QHJ 0QHJ 0QHJ 0QHJ 0QHJ 0QHJ 0QHJ 0QHJ 0QHJ 0QHJ 0QHJ 0QHJ 0QHJ 0QHJ 0QHJ 0QHJ 0QHJ 0QHJ 0QHJ 0QHJ 0QHJ 0QHJ 0QHJ 0QHJ 0QHJ 0QHJ 0QHJ 0QHJ 0QHJ 0QHJ 0QHJ 0QHJ 0QHJ 0QHJ 0QHJ 0QHJ 0QHJ 0QHJ 0QHJ 0QHJ 0QHJ 0QHJ 0QHJ 0QHJ 0QHJ 0QHJ 0QHJ 0QHJ 0QHJ 0QHJ 0QHJ 0QHJ 0QHJ 0QHJ 0QHJ 0QHJ 0QHJ 0QHJ 0QHJ 0QHJ 0QHJ 0QHJ 0QHJ 0QHJ 0QHJ 0QHJ 0QHJ 0QHJ 0QHJ 0QHJ 0QHJ 0QHJ 0QHJ     .JHQ .JHQ .JHQ .JHQ .JHQ .JHQ .JHQ .JHQ .JHQ .JHQ .JHQ .JHQ .JHQ .JHQ .JHQ .JHQ .JHQ .JHQ .JHQ .JHQ .JHQ .JHQ .JHQ .JHQ .JHQ .JHQ .JHQ .JHQ .JHQ .JHQ .JHQ .JHQ .JHQ .JHQ .JHQ .JHQ .JHQ .JHQ .JHQ .JHQ .JHQ .JHQ .JHQ .JHQ .JHQ .JHQ .JHQ .JHQ .JHQ .JHQ .JHQ .JHQ .JHQ .JHQ .JHQ .JHQ .JHQ .JHQ .JHQ .JHQ .JHQ .JHQ .JHQ .JHQ .JHQ .JHQ .JHQ .JHQ .JHQ .JHQ .JHQ .JHQ .JHQ .JHQ .JHQ .JHQ .JHQ .JHQ .JHQ .JHQ .JHQ .JHQ .JHQ .JHQ .JHQ .JHQ .JHQ .JHQ .JHQ .JHQ .JHQ .JHQ .JHQ .JHQ .JHQ .JHQ .JHQ .JHQ .JHQ .JHQ .JHQ .JHQ .JHQ .JHQ .JHQ .JHQ .JHQ .JHQ .JHQ .JHQ .JHQ .JHQ .JHQ .JHQ .JHQ .JHQ .JHQ .JHQ .JHQ .JHQ .JHQ .JHQ .JHQ .JHQ .JHQ .JHQ .JHQ .JHQ .JHQ .JHQ .JHQ .JHQ .JHQ .JHQ .JHQ .JHQ .JHQ .JHQ .JHQ .JHQ .JHQ .JHQ .JHQ .JHQ .JHQ .JHQ .JHQ .JHQ .JHQ .JHQ .JHQ .JHQ JHQ JHQ JHQ -JHQ -JHQ -JHQ -JHQ -JHQ -JHQ -JHQ -JHQ -JHQ -JHQ -JHQ -JHQ -JHQ -JHQ -JHQ -JHQ -JHQ -JHQ -JHQ -JHQ -JHQ -JHQ -JHQ -JHQ -JHQ -JHQ -JHQ -JHQ -JHQ -JHQ -JHQ -JHQ -JHQ -JHQ -JHQ -JHQ -JHQ -JHQ -JHQ -JHQ -JHQ -JHQ -JHQ -JHQ -JHQ -JHQ -JHQ -JHQ -JHQ -JHQ -JHQ -JHQ -JHQ -JHQ -JHQ -JHQ -JHQ -JHQ -JHQ -JHQ -JHQ -JHQ -JHQ -JHQ -JHQ -JHQ -JHQ -JHQ -JHQ -JHQ -JHQ -JHQ -JHQ -JHQ -JHQ -JHQ -JHQ -JHQ -JHQ -JHQ -JHQ -JHQ -JHQ -JHQ -JHQ -JHQ -JHQ -JHQ -JHQ -JHQ -JHQ -JHQ -JHQ -JHQ -JHQ -JHQ -JHQ -JHQ -JHQ -JHQ -JHQ -JHQ -JHQ -JHQ -JHQ -JHQ -JHQ -JHQ -JHQ -JHQ -JHQ -JHQ -JHQ -JHQ -JHQ -JHQ -JHQ -JHQ -JHQ -JHQ -JHQ -JHQ -JHQ -JHQ -JHQ -JHQ -JHQ -JHQ -JHQ -JHQ -JHQ -JHQ -JHQ -JHQ -JHQ -JHQ -JHQ -JHQ -JHQ -JHQ -JHQ -JHQ -JHQ -JHQ -JHQ -JHQ -JHQ -JHQ -JHQ -JHQ -JHQ -JHQ     +HQJ +HQJ +HQJ +HQJ +HQJ +HQJ +HQJ +HQJ +HQJ +HQJ +HQJ +HQJ +HQJ +HQJ +HQJ +HQJ +HQJ +HQJ +HQJ +HQJ +HQJ +HQJ +HQJ +HQJ +HQJ +HQJ +HQJ +HQJ +HQJ +HQJ +HQJ +HQJ +HQJ +HQJ +HQJ +HQJ +HQJ +HQJ +HQJ +HQJ +HQJ +HQJ +HQJ +HQJ +HQJ +HQJ +HQJ +HQJ +HQJ +HQJ +HQJ +HQJ +HQJ +HQJ +HQJ +HQJ +HQJ +HQJ +HQJ +HQJ +HQJ +HQJ +HQJ +HQJ +HQJ +HQJ +HQJ +HQJ +HQJ +HQJ +HQJ +HQJ +HQJ +HQJ +HQJ +HQJ +HQJ +HQJ +HQJ +HQJ +HQJ +HQJ +HQJ +HQJ +HQJ +HQJ +HQJ +HQJ +HQJ +HQJ +HQJ +HQJ +HQJ +HQJ +HQJ +HQJ +HQJ +HQJ +HQJ +HQJ +HQJ +HQJ +HQJ +HQJ +HQJ +HQJ +HQJ +HQJ +HQJ +HQJ +HQJ +HQJ +HQJ +HQJ +HQJ +HQJ +HQJ +HQJ +HQJ +HQJ +HQJ +HQJ +HQJ +HQJ +HQJ +HQJ +HQJ +HQJ +HQJ +HQJ +HQJ +HQJ +HQJ +HQJ +HQJ +HQJ +HQJ +HQJ +HQJ +HQJ +HQJ +HQJ +HQJ +HQJ +HQJ +HQJ +HQJ +HQJ +HQJ +HQJ +HQJ +HQJ HQJ HQJ HQJ *HQJ *HQJ *HQJ *HQJ *HQJ *HQJ *HQJ *HQJ *HQJ *HQJ *HQJ *HQJ *HQJ *HQJ *HQJ *HQJ *HQJ *HQJ *HQJ *HQJ *HQJ *HQJ *HQJ *HQJ *HQJ *HQJ *HQJ *HQJ *HQJ *HQJ *HQJ *HQJ *HQJ *HQJ *HQJ *HQJ *HQJ *HQJ *HQJ *HQJ *HQJ *HQJ *HQJ *HQJ *HQJ *HQJ *HQJ *HQJ *HQJ *HQJ *HQJ *HQJ *HQJ *HQJ *HQJ *HQJ *HQJ *HQJ *HQJ *HQJ *HQJ *HQJ *HQJ *HQJ *HQJ *HQJ *HQJ *HQJ *HQJ *HQJ *HQJ *HQJ *HQJ *HQJ *HQJ *HQJ *HQJ *HQJ *HQJ *HQJ *HQJ *HQJ *HQJ *HQJ *HQJ *HQJ *HQJ *HQJ *HQJ *HQJ *HQJ *HQJ *HQJ *HQJ *HQJ *HQJ *HQJ *HQJ *HQJ *HQJ *HQJ *HQJ *HQJ *HQJ *HQJ *HQJ *HQJ *HQJ *HQJ *HQJ *HQJ *HQJ *HQJ *HQJ *HQJ *HQJ *HQJ *HQJ *HQJ *HQJ *HQJ *HQJ *HQJ *HQJ *HQJ *HQJ *HQJ *HQJ *HQJ *HQJ *HQJ *HQJ *HQJ *HQJ *HQJ *HQJ *HQJ *HQJ *HQJ *HQJ *HQJ *HQJ *HQJ *HQJ *HQJ *HQJ *HQJ *HQJ *HQJ *HQJ *HQJ *HQJ J J J J +JOF +JOF +JOF +JOF +JOF +JOF +JOF +JOF +JOF +JOF +JOF +JOF +JOF +JOF +JOF +JOF +JOF +JOF +JOF +JOF +JOF +JOF +JOF +JOF +JOF +JOF +JOF +JOF +JOF +JOF +JOF +JOF +JOF +JOF +JOF +JOF +JOF +JOF +JOF +JOF +JOF +JOF +JOF +JOF +JOF +JOF +JOF +JOF +JOF +JOF +JOF +JOF +JOF +JOF +JOF +JOF +JOF +JOF +JOF +JOF +JOF +JOF +JOF +JOF +JOF +JOF +JOF +JOF +JOF +JOF +JOF +JOF +JOF +JOF +JOF +JOF +JOF +JOF +JOF +JOF +JOF +JOF +JOF +JOF +JOF +JOF +JOF +JOF +JOF +JOF +JOF +JOF +JOF +JOF +JOF +JOF +JOF +JOF +JOF +JOF +JOF +JOF +JOF +JOF +JOF +JOF +JOF +JOF +JOF +JOF +JOF +JOF +JOF +JOF +JOF +JOF +JOF +JOF +JOF +JOF +JOF +JOF +JOF +JOF +JOF +JOF +JOF +JOF +JOF +JOF +JOF +JOF +JOF +JOF +JOF +JOF +JOF +JOF +JOF +JOF +JOF +JOF +JOF +JOF +JOF +JOF +JOF +JOF +JOF +JOF +JOF +JOF JOF JOF JOF J-OF J-OF J-OF J-OF J-OF J-OF J-OF J-OF J-OF J-OF J-OF J-OF J-OF J-OF J-OF J-OF J-OF J-OF J-OF J-OF J-OF J-OF J-OF J-OF J-OF J-OF J-OF J-OF J-OF J-OF J-OF J-OF J-OF J-OF J-OF J-OF J-OF J-OF J-OF J-OF J-OF J-OF J-OF J-OF J-OF J-OF J-OF J-OF J-OF J-OF J-OF J-OF J-OF J-OF J-OF J-OF J-OF J-OF J-OF J-OF J-OF J-OF J-OF J-OF J-OF J-OF J-OF J-OF J-OF J-OF J-OF J-OF J-OF J-OF J-OF J-OF J-OF J-OF J-OF J-OF J-OF J-OF J-OF J-OF J-OF J-OF J-OF J-OF J-OF J-OF J-OF J-OF J-OF J-OF J-OF J-OF J-OF J-OF J-OF J-OF J-OF J-OF J-OF J-OF J-OF J-OF J-OF J-OF J-OF J-OF J-OF J-OF J-OF J-OF J-OF J-OF J-OF J-OF J-OF J-OF J-OF J-OF J-OF J-OF J-OF J-OF J-OF J-OF J-OF J-OF J-OF J-OF J-OF J-OF J-OF J-OF J-OF J-OF J-OF J-OF J-OF J-OF J-OF J-OF J-OF J-OF J-OF J-OF J-OF -OF -OF -OF     .CJM .CJM .CJM .CJM .CJM .CJM .CJM .CJM .CJM .CJM .CJM .CJM .CJM .CJM .CJM .CJM .CJM .CJM .CJM .CJM .CJM .CJM .CJM .CJM .CJM .CJM .CJM .CJM .CJM .CJM .CJM .CJM .CJM .CJM .CJM .CJM .CJM .CJM .CJM .CJM .CJM .CJM .CJM .CJM .CJM .CJM .CJM .CJM .CJM .CJM .CJM .CJM .CJM .CJM .CJM .CJM .CJM .CJM .CJM .CJM .CJM .CJM .CJM .CJM .CJM .CJM .CJM .CJM .CJM .CJM .CJM .CJM .CJM .CJM .CJM .CJM .CJM .CJM .CJM .CJM .CJM .CJM .CJM .CJM .CJM .CJM .CJM .CJM .CJM .CJM .CJM .CJM .CJM .CJM .CJM .CJM .CJM .CJM .CJM .CJM .CJM .CJM .CJM .CJM .CJM .CJM .CJM .CJM .CJM .CJM .CJM .CJM .CJM .CJM .CJM .CJM .CJM .CJM .CJM .CJM .CJM .CJM .CJM .CJM .CJM .CJM .CJM .CJM .CJM .CJM .CJM .CJM .CJM .CJM .CJM .CJM .CJM .CJM .CJM .CJM .CJM .CJM .CJM .CJM .CJM .CJM .CJM .CJM .CJM .CJM .CJM .CJM CJM CJM CJM +CJM +CJM +CJM +CJM +CJM +CJM +CJM +CJM +CJM +CJM +CJM +CJM +CJM +CJM +CJM +CJM +CJM +CJM +CJM +CJM +CJM +CJM +CJM +CJM +CJM +CJM +CJM +CJM +CJM +CJM +CJM +CJM +CJM +CJM +CJM +CJM +CJM +CJM +CJM +CJM +CJM +CJM +CJM +CJM +CJM +CJM +CJM +CJM +CJM +CJM +CJM +CJM +CJM +CJM +CJM +CJM +CJM +CJM +CJM +CJM +CJM +CJM +CJM +CJM +CJM +CJM +CJM +CJM +CJM +CJM +CJM +CJM +CJM +CJM +CJM +CJM +CJM +CJM +CJM +CJM +CJM +CJM +CJM +CJM +CJM +CJM +CJM +CJM +CJM +CJM +CJM +CJM +CJM +CJM +CJM +CJM +CJM +CJM +CJM +CJM +CJM +CJM +CJM +CJM +CJM +CJM +CJM +CJM +CJM +CJM +CJM +CJM +CJM +CJM +CJM +CJM +CJM +CJM +CJM +CJM +CJM +CJM +CJM +CJM +CJM +CJM +CJM +CJM +CJM +CJM +CJM +CJM +CJM +CJM +CJM +CJM +CJM +CJM +CJM +CJM +CJM +CJM +CJM +CJM +CJM +CJM +CJM +CJM +CJM +CJM +CJM +CJM     0HKC 0HKC 0HKC 0HKC 0HKC 0HKC 0HKC 0HKC 0HKC 0HKC 0HKC 0HKC 0HKC 0HKC 0HKC 0HKC 0HKC 0HKC 0HKC 0HKC 0HKC 0HKC 0HKC 0HKC 0HKC 0HKC 0HKC 0HKC 0HKC 0HKC 0HKC 0HKC 0HKC 0HKC 0HKC 0HKC 0HKC 0HKC 0HKC 0HKC 0HKC 0HKC 0HKC 0HKC 0HKC 0HKC 0HKC 0HKC 0HKC 0HKC 0HKC 0HKC 0HKC 0HKC 0HKC 0HKC 0HKC 0HKC 0HKC 0HKC 0HKC 0HKC 0HKC 0HKC 0HKC 0HKC 0HKC 0HKC 0HKC 0HKC 0HKC 0HKC 0HKC 0HKC 0HKC 0HKC 0HKC 0HKC 0HKC 0HKC 0HKC 0HKC 0HKC 0HKC 0HKC 0HKC 0HKC 0HKC 0HKC 0HKC 0HKC 0HKC 0HKC 0HKC 0HKC 0HKC 0HKC 0HKC 0HKC 0HKC 0HKC 0HKC 0HKC 0HKC 0HKC 0HKC 0HKC 0HKC 0HKC 0HKC 0HKC 0HKC 0HKC 0HKC 0HKC 0HKC 0HKC 0HKC 0HKC 0HKC 0HKC 0HKC 0HKC 0HKC 0HKC 0HKC 0HKC 0HKC 0HKC 0HKC 0HKC 0HKC 0HKC 0HKC 0HKC 0HKC 0HKC 0HKC 0HKC 0HKC 0HKC 0HKC 0HKC 0HKC 0HKC 0HKC 0HKC 0HKC 0HKC 0HKC 0HKC 0HKC HKC HKC HKC HKC HK.C HK.C HK.C HK.C HK.C HK.C HK.C HK.C HK.C HK.C HK.C HK.C HK.C HK.C HK.C HK.C HK.C HK.C HK.C HK.C HK.C HK.C HK.C HK.C HK.C HK.C HK.C HK.C HK.C HK.C HK.C HK.C HK.C HK.C HK.C HK.C HK.C HK.C HK.C HK.C HK.C HK.C HK.C HK.C HK.C HK.C HK.C HK.C HK.C HK.C HK.C HK.C HK.C HK.C HK.C HK.C HK.C HK.C HK.C HK.C HK.C HK.C HK.C HK.C HK.C HK.C HK.C HK.C HK.C HK.C HK.C HK.C HK.C HK.C HK.C HK.C HK.C HK.C HK.C HK.C HK.C HK.C HK.C HK.C HK.C HK.C HK.C HK.C HK.C HK.C HK.C HK.C HK.C HK.C HK.C HK.C HK.C HK.C HK.C HK.C HK.C HK.C HK.C HK.C HK.C HK.C HK.C HK.C HK.C HK.C HK.C HK.C HK.C HK.C HK.C HK.C HK.C HK.C HK.C HK.C HK.C HK.C HK.C HK.C HK.C HK.C HK.C HK.C HK.C HK.C HK.C HK.C HK.C HK.C HK.C HK.C HK.C HK.C HK.C HK.C HK.C HK.C HK.C HK.C HK.C HK.C HK.C HK.C HK.C HK.C HK.C .C C C C 0FJC 0FJC 0FJC 0FJC 0FJC 0FJC 0FJC 0FJC 0FJC 0FJC 0FJC 0FJC 0FJC 0FJC 0FJC 0FJC 0FJC 0FJC 0FJC 0FJC 0FJC 0FJC 0FJC 0FJC 0FJC 0FJC 0FJC 0FJC 0FJC 0FJC 0FJC 0FJC 0FJC 0FJC 0FJC 0FJC 0FJC 0FJC 0FJC 0FJC 0FJC 0FJC 0FJC 0FJC 0FJC 0FJC 0FJC 0FJC 0FJC 0FJC 0FJC 0FJC 0FJC 0FJC 0FJC 0FJC 0FJC 0FJC 0FJC 0FJC 0FJC 0FJC 0FJC 0FJC 0FJC 0FJC 0FJC 0FJC 0FJC 0FJC 0FJC 0FJC 0FJC 0FJC 0FJC 0FJC 0FJC 0FJC 0FJC 0FJC 0FJC 0FJC 0FJC 0FJC 0FJC 0FJC 0FJC 0FJC 0FJC 0FJC 0FJC 0FJC 0FJC 0FJC 0FJC 0FJC 0FJC 0FJC 0FJC 0FJC 0FJC 0FJC 0FJC 0FJC 0FJC 0FJC 0FJC 0FJC 0FJC 0FJC 0FJC 0FJC 0FJC 0FJC 0FJC 0FJC 0FJC 0FJC 0FJC 0FJC 0FJC 0FJC 0FJC 0FJC 0FJC 0FJC 0FJC 0FJC 0FJC 0FJC 0FJC 0FJC 0FJC 0FJC 0FJC 0FJC 0FJC 0FJC 0FJC 0FJC 0FJC 0FJC 0FJC 0FJC 0FJC 0FJC 0FJC 0FJC 0FJC 0FJC 0FJC 0FJC FJC FJC FJC FJC FJ2C FJ2C FJ2C FJ2C FJ2C FJ2C FJ2C FJ2C FJ2C FJ2C FJ2C FJ2C FJ2C FJ2C FJ2C FJ2C FJ2C FJ2C FJ2C FJ2C FJ2C FJ2C FJ2C FJ2C FJ2C FJ2C FJ2C FJ2C FJ2C FJ2C FJ2C FJ2C FJ2C FJ2C FJ2C FJ2C FJ2C FJ2C FJ2C FJ2C FJ2C FJ2C FJ2C FJ2C FJ2C FJ2C FJ2C FJ2C FJ2C FJ2C FJ2C FJ2C FJ2C FJ2C FJ2C FJ2C FJ2C FJ2C FJ2C FJ2C FJ2C FJ2C FJ2C FJ2C FJ2C FJ2C FJ2C FJ2C FJ2C FJ2C FJ2C FJ2C FJ2C FJ2C FJ2C FJ2C FJ2C FJ2C FJ2C FJ2C FJ2C FJ2C FJ2C FJ2C FJ2C FJ2C FJ2C FJ2C FJ2C FJ2C FJ2C FJ2C FJ2C FJ2C FJ2C FJ2C FJ2C FJ2C FJ2C FJ2C FJ2C FJ2C FJ2C FJ2C FJ2C FJ2C FJ2C FJ2C FJ2C FJ2C FJ2C FJ2C FJ2C FJ2C FJ2C FJ2C FJ2C FJ2C FJ2C FJ2C FJ2C FJ2C FJ2C FJ2C FJ2C FJ2C FJ2C FJ2C FJ2C FJ2C FJ2C FJ2C FJ2C FJ2C FJ2C FJ2C FJ2C FJ2C FJ2C FJ2C FJ2C FJ2C FJ2C FJ2C FJ2C FJ2C FJ2C FJ2C FJ2C FJ2C FJ2C 2C C C C 3CEH 3CEH 3CEH 3CEH 3CEH 3CEH 3CEH 3CEH 3CEH 3CEH 3CEH 3CEH 3CEH 3CEH 3CEH 3CEH 3CEH 3CEH 3CEH 3CEH 3CEH 3CEH 3CEH 3CEH 3CEH 3CEH 3CEH 3CEH 3CEH 3CEH 3CEH 3CEH 3CEH 3CEH 3CEH 3CEH 3CEH 3CEH 3CEH 3CEH 3CEH 3CEH 3CEH 3CEH 3CEH 3CEH 3CEH 3CEH 3CEH 3CEH 3CEH 3CEH 3CEH 3CEH 3CEH 3CEH 3CEH 3CEH 3CEH 3CEH 3CEH 3CEH 3CEH 3CEH 3CEH 3CEH 3CEH 3CEH 3CEH 3CEH 3CEH 3CEH 3CEH 3CEH 3CEH 3CEH 3CEH 3CEH 3CEH 3CEH 3CEH 3CEH 3CEH 3CEH 3CEH 3CEH 3CEH 3CEH 3CEH 3CEH 3CEH 3CEH 3CEH 3CEH 3CEH 3CEH 3CEH 3CEH 3CEH 3CEH 3CEH 3CEH 3CEH 3CEH 3CEH 3CEH 3CEH 3CEH 3CEH 3CEH 3CEH 3CEH 3CEH 3CEH 3CEH 3CEH 3CEH 3CEH 3CEH 3CEH 3CEH 3CEH 3CEH 3CEH 3CEH 3CEH 3CEH 3CEH 3CEH 3CEH 3CEH 3CEH 3CEH 3CEH 3CEH 3CEH 3CEH 3CEH 3CEH 3CEH 3CEH 3CEH 3CEH 3CEH 3CEH 3CEH 3CEH 3CEH 3CEH 3CEH 3CEH 3CEH CEH CEH CEH CEH 0CEH 0CEH 0CEH 0CEH 0CEH 0CEH 0CEH 0CEH 0CEH 0CEH 0CEH 0CEH 0CEH 0CEH 0CEH 0CEH 0CEH 0CEH 0CEH 0CEH 0CEH 0CEH 0CEH 0CEH 0CEH 0CEH 0CEH 0CEH 0CEH 0CEH 0CEH 0CEH 0CEH 0CEH 0CEH 0CEH 0CEH 0CEH 0CEH 0CEH 0CEH 0CEH 0CEH 0CEH 0CEH 0CEH 0CEH 0CEH 0CEH 0CEH 0CEH 0CEH 0CEH 0CEH 0CEH 0CEH 0CEH 0CEH 0CEH 0CEH 0CEH 0CEH 0CEH 0CEH 0CEH 0CEH 0CEH 0CEH 0CEH 0CEH 0CEH 0CEH 0CEH 0CEH 0CEH 0CEH 0CEH 0CEH 0CEH 0CEH 0CEH 0CEH 0CEH 0CEH 0CEH 0CEH 0CEH 0CEH 0CEH 0CEH 0CEH 0CEH 0CEH 0CEH 0CEH 0CEH 0CEH 0CEH 0CEH 0CEH 0CEH 0CEH 0CEH 0CEH 0CEH 0CEH 0CEH 0CEH 0CEH 0CEH 0CEH 0CEH 0CEH 0CEH 0CEH 0CEH 0CEH 0CEH 0CEH 0CEH 0CEH 0CEH 0CEH 0CEH 0CEH 0CEH 0CEH 0CEH 0CEH 0CEH 0CEH 0CEH 0CEH 0CEH 0CEH 0CEH 0CEH 0CEH 0CEH 0CEH 0CEH 0CEH 0CEH 0CEH 0CEH 0CEH 0CEH 0CEH 0CEH 0CEH 0CEH 0CEH CEH EH EH EH2B EH2B EH2B EH2B EH2B EH2B EH2B EH2B EH2B EH2B EH2B EH2B EH2B EH2B EH2B EH2B EH2B EH2B EH2B EH2B EH2B EH2B EH2B EH2B EH2B EH2B EH2B EH2B EH2B EH2B EH2B EH2B EH2B EH2B EH2B EH2B EH2B EH2B EH2B EH2B EH2B EH2B EH2B EH2B EH2B EH2B EH2B EH2B EH2B EH2B EH2B EH2B EH2B EH2B EH2B EH2B EH2B EH2B EH2B EH2B EH2B H2B H2B H2B H2B H2B H2B H2B H2B H2B H2B H2B H2B H2B H2B H2B H2B H2B H2EB H2EB H2EB H2EB H2EB H2EB H2EB H2EB H2EB H2EB H2EB H2EB H2EB H2EB H2EB H2EB H2EB H2EB H2EB H2EB H2EB H2EB H2EB H2EB H2EB H2EB H2EB H2EB H2EB H2EB H2EB H2EB H2EB H2EB H2EB H2EB H2EB H2EB H2EB H2EB H2EB H2EB H2EB H2EB H2EB H2EB H2EB H2EB H2EB H2EB H2EB H2EB H2EB H2EB H2EB H2EB H2EB H2EB H2EB H2EB H2EB H2EB H2EB H2EB 2EB 2EB 2EB 2EB 2EB 2EB 2EB 2EB 2EB 2EB EB EB EB EB 4HEB 4HEB 4HEB 4HEB 4HEB 4HEB 4HEB 4HEB 4HEB 4HEB 4HEB 4HEB 4HEB 4HEB 4HEB 4HEB 4HEB 4HEB 4HEB 4HEB 4HEB 4HEB 4HEB 4HEB 4HEB 4HEB 4HEB 4HEB 4HEB 4HEB 4HEB 4HEB 4HEB 4HEB 4HEB 4HEB 4HEB 4HEB 4HEB 4HEB 4HEB 4HEB 4HEB 4HEB 4HEB 4HEB 4HEB 4HEB 4HEB 4HEB 4HEB 4HEB 4HEB 4HEB 4HEB 4HEB 4HEB 4HEB 4HEB 4HEB 4HEB 4HEB 4HEB 4HEB 4HEB 4HEB 4HEB 4HEB 4HEB 4HEB 4HEB 4HEB 4HEB 4HEB 4HEB 4HEB 4HEB 4HEB 4HEB 4HEB 4HEB 4HEB 4HEB 4HEB 4HEB 4HEB 4HEB 4HEB 4HEB 4HEB 4HEB 4HEB 4HEB 4HEB 4HEB 4HEB 4HEB 4HEB 4HEB 4HEB 4HEB 4HEB 4HEB 4HEB 4HEB 4HEB 4HEB 4HEB 4HEB 4HEB 4HEB 4HEB 4HEB 4HEB 4HEB 4HEB 4HEB 4HEB 4HEB 4HEB 4HEB 4HEB 4HEB 4HEB 4HEB 4HEB 4HEB 4HEB 4HEB 4HEB 4HEB 4HEB 4HEB 4HEB 4HEB 4HEB 4HEB 4HEB 4HEB 4HEB 4HEB 4HEB 4HEB 4HEB 4HEB 4HEB 4HEB 4HEB 4HEB 4HEB 4HEB 4HEB HEB HEB HEB 6HEB 6HEB 6HEB 6HEB 6HEB 6HEB 6HEB 6HEB 6HEB 6HEB 6HEB 6HEB 6HEB 6HEB 6HEB 6HEB 6HEB 6HEB 6HEB 6HEB 6HEB 6HEB 6HEB 6HEB 6HEB 6HEB 6HEB 6HEB 6HEB 6HEB 6HEB 6HEB 6HEB 6HEB 6HEB 6HEB 6HEB 6HEB 6HEB 6HEB 6HEB 6HEB 6HEB 6HEB 6HEB 6HEB 6HEB 6HEB 6HEB 6HEB 6HEB 6HEB 6HEB 6HEB 6HEB 6HEB 6HEB 6HEB 6HEB 6HEB 6HEB 6HEB 6HEB 6HEB 6HEB 6HEB 6HEB 6HEB 6HEB 6HEB 6HEB 6HEB 6HEB 6HEB 6HEB 6HEB 6HEB 6HEB 6HEB 6HEB 6HEB 6HEB 6HEB 6HEB 6HEB 6HEB 6HEB 6HEB 6HEB 6HEB 6HEB 6HEB 6HEB 6HEB 6HEB 6HEB 6HEB 6HEB 6HEB 6HEB 6HEB 6HEB 6HEB 6HEB 6HEB 6HEB 6HEB 6HEB 6HEB 6HEB 6HEB 6HEB 6HEB 6HEB 6HEB 6HEB 6HEB 6HEB 6HEB 6HEB 6HEB 6HEB 6HEB 6HEB 6HEB 6HEB 6HEB 6HEB 6HEB 6HEB 6HEB 6HEB 6HEB 6HEB 6HEB 6HEB 6HEB 6HEB 6HEB 6HEB 6HEB 6HEB 6HEB 6HEB 6HEB 6HEB 6HEB 6HEB 6HEB 6HEB 6HEB 6HEB EB EB EB EB EBJ2 EBJ2 EBJ2 EBJ2 EBJ2 EBJ2 EBJ2 EBJ2 EBJ2 EBJ2 EBJ2 EBJ2 EBJ2 EBJ2 EBJ2 EBJ2 EBJ2 EBJ2 EBJ2 EBJ2 EBJ2 EBJ2 EBJ2 EBJ2 EBJ2 EBJ2 EBJ2 EBJ2 EBJ2 EBJ2 EBJ2 EBJ2 EBJ2 EBJ2 EBJ2 EBJ2 EBJ2 EBJ2 EBJ2 EBJ2 EBJ2 EBJ2 EBJ2 EBJ2 EBJ2 EBJ2 EBJ2 EBJ2 EBJ2 EBJ2 EBJ2 EBJ2 EBJ2 EBJ2 EBJ2 EBJ2 EBJ2 EBJ2 EBJ2 EBJ2 EBJ2 EBJ2 EBJ2 EBJ2 EBJ2 EBJ2 EBJ2 EBJ2 EBJ2 EBJ2 EBJ2 EBJ2 EBJ2 EBJ2 EBJ2 EBJ2 EBJ2 EBJ2 EBJ2 EBJ2 EBJ2 EBJ2 EBJ2 EBJ2 EBJ2 EBJ2 EBJ2 EBJ2 EBJ2 EBJ2 EBJ2 EBJ2 EBJ2 EBJ2 EBJ2 EBJ2 EBJ2 EBJ2 EBJ2 EBJ2 EBJ2 EBJ2 EBJ2 EBJ2 EBJ2 EBJ2 EBJ2 EBJ2 EBJ2 EBJ2 EBJ2 EBJ2 EBJ2 EBJ2 EBJ2 EBJ2 EBJ2 EBJ2 EBJ2 EBJ2 EBJ2 EBJ2 EBJ2 EBJ2 EBJ2 EBJ2 EBJ2 EBJ2 EBJ2 EBJ2 EBJ2 EBJ2 EBJ2 EBJ2 EBJ2 EBJ2 EBJ2 EBJ2 EBJ2 EBJ2 EBJ2 EBJ2 EBJ2 EBJ2 EBJ2 BJ2 BJ2 BJ2 J2 J2 J2 J2    H>7C H>7C H>7C H>7C H>7C H>7C H>7C H>7C H>7C H>7C H>7C H>7C H>7C H>7C H>7C H>7C H>7C H>7C H>7C H>7C H>7C H>7C H>7C H>7C H>7C H>7C H>7C H>7C H>7C H>7C H>7C H>7C H>7C H>7C H>7C H>7C H>7C H>7C H>7C H>7C H>7C H>7C H>7C H>7C H>7C H>7C H>7C H>7C H>7C H>7C H>7C H>7C H>7C H>7C H>7C H>7C H>7C H>7C H>7C H>7C H>7C H>7C H>7C H>7C H>7C H>7C H>7C H>7C H>7C H>7C H>7C H>7C H>7C H>7C H>7C H>7C H>7C H>7C H>7C H>7C H>7C H>7C H>7C H>7C H>7C H>7C H>7C H>7C H>7C H>7C H>7C H>7C H>7C H>7C H>7C H>7C H>7C H>7C H>7C H>7C H>7C H>7C H>7C H>7C H>7C H>7C H>7C H>7C H>7C H>7C H>7C H>7C H>7C H>7C H>7C H>7C H>7C H>7C H>7C H>7C H>7C H>7C H>7C H>7C H>7C H>7C H>7C H>7C H>7C H>7C H>7C H>7C H>7C H>7C H>7C H>7C H>7C H>7C H>7C H>7C H>7C H>7C H>7C H>7C H>7C H>7C H>7C H>7C H>7C H>7C H>7C H>7C >7C >7C >7C >7C >7FC >7FC >7FC >7FC >7FC >7FC >7FC >7FC >7FC >7FC >7FC >7FC >7FC >7FC >7FC >7FC >7FC >7FC >7FC >7FC >7FC >7FC >7FC >7FC >7FC >7FC >7FC >7FC >7FC >7FC >7FC >7FC >7FC >7FC >7FC >7FC >7FC >7FC >7FC >7FC >7FC >7FC >7FC >7FC >7FC >7FC >7FC >7FC >7FC >7FC >7FC >7FC >7FC >7FC >7FC >7FC >7FC >7FC >7FC >7FC >7FC >7FC >7FC >7FC >7FC >7FC >7FC >7FC >7FC >7FC >7FC >7FC >7FC >7FC >7FC >7FC >7FC >7FC >7FC >7FC >7FC >7FC >7FC >7FC >7FC >7FC >7FC >7FC >7FC >7FC >7FC >7FC >7FC >7FC >7FC >7FC >7FC >7FC >7FC >7FC >7FC >7FC >7FC >7FC >7FC >7FC >7FC >7FC >7FC >7FC >7FC >7FC >7FC >7FC >7FC >7FC >7FC >7FC >7FC >7FC >7FC >7FC >7FC >7FC >7FC >7FC >7FC >7FC >7FC >7FC >7FC >7FC >7FC >7FC >7FC >7FC >7FC >7FC >7FC >7FC >7FC >7FC >7FC >7FC >7FC >7FC >7FC >7FC >7FC >7FC >7FC FC FC FC FC FC0 FC0 FC0 FC0 FC0 FC0 FC0 FC0 FC0 FC0 FC0 FC0 FC0 FC0 FC0 FC0 FC0 FC0 FC0 FC0 FC0 FC0 FC0 FC0 FC0 FC0 FC0 FC0 FC0 FC0 FC0 FC0 FC0 FC0 FC0 FC0 FC0 FC0 FC0 FC0 FC0 FC0 FC0 FC0 FC0 FC0 FC0 FC0 FC0 FC0 FC0 FC0 FC0 FC0 FC0 FC0 FC0 FC0 FC0 FC0 FC0 FC0 FC0 FC0 FC0 FC0 FC0 FC0 FC0 FC0 FC0 FC0 FC0 FC0 FC0 FC0 FC0 FC0 FC0 FC0 FC0 FC0 FC0 FC0 FC0 FC0 FC0 FC0 FC0 FC0 FC0 FC0 FC0 FC0 FC0 FC0 FC0 FC0 FC0 FC0 FC0 FC0 FC0 FC0 FC0 FC0 FC0 FC0 FC0 FC0 FC0 FC0 FC0 FC0 FC0 FC0 FC0 FC0 FC0 FC0 FC0 FC0 FC0 FC0 FC0 FC0 FC0 FC0 FC0 FC0 FC0 FC0 FC0 FC0 FC0 FC0 FC0 FC0 FC0 FC0 FC0 FC0 FC0 FC0 FC0 FC0 FC0 FC0 FC0 FC0 FC0 FC0 C0 C0 C0 C0 C0E C0E C0E C0E C0E C0E C0E C0E C0E C0E C0E C0E C0E C0E C0E C0E C0E C0E C0E C0E C0E C0E C0E C0E C0E C0E C0E C0E C0E C0E C0E C0E C0E C0E C0E C0E C0E C0E C0E C0E C0E C0E C0E C0E C0E C0E C0E C0E C0E C0E C0E C0E C0E C0E C0E C0E C0E C0E C0E C0E C0E C0E C0E C0E C0E C0E C0E C0E C0E C0E C0E C0E C0E C0E C0E C0E C0E C0E C0E C0E C0E C0E C0E C0E C0E C0E C0E C0E C0E C0E C0E C0E C0E C0E C0E C0E C0E C0E C0E C0E C0E C0E C0E C0E C0E C0E C0E C0E C0E C0E C0E C0E C0E C0E C0E C0E C0E C0E C0E C0E C0E C0E C0E C0E C0E C0E C0E C0E C0E C0E C0E C0E C0E C0E C0E C0E C0E C0E C0E C0E C0E C0E C0E C0E C0E C0E C0E C0E 0E 0E 0E E    F2B F2B F2B F2B F2B F2B F2B F2B F2B F2B F2B F2B F2B F2B F2B F2B F2B F2B F2B F2B F2B F2B F2B F2B F2B F2B F2B F2B F2B F2B F2B F2B F2B F2B F2B F2B F2B F2B F2B F2B F2B F2B F2B F2B F2B F2B F2B F2B F2B F2B F2B F2B F2B F2B F2B F2B F2B F2B F2B F2B F2B F2B F2B F2B F2B F2B F2B F2B F2B F2B F2B F2B F2B F2B 2B 2B 2B 2B E2B E2B E2B E2B E2B E2B E2B E2B E2B E2B E2B E2B E2B E2B E2B E2B E2B E2B E2B E2B E2B E2B E2B E2B E2B E2B E2B E2B E2B E2B E2B E2B E2B E2B E2B E2B E2B E2B E2B E2B E2B E2B E2B E2B E2B E2B E2B E2B E2B E2B E2B E2B E2B E2B E2B E2B E2B E2B E2B E2B E2B E2B E2B E2B E2B E2B E2B E2B E2B E2B E2B E2B E2B E2B 2B 2B 2B 2B F2B F2B F2B F2B F2B F2B F2B F2B F2B F2B F2B F2B F2B F2B F2B F2B F2B F2B F2B F2B F2B F2B F2B F2B F2B F2B F2B F2B F2B F2B F2B F2B F2B F2B F2B F2B F2B F2B F2B F2B F2B F2B F2B F2B F2B F2B F2B F2B F2B F2B F2B F2B F2B F2B F2B F2B F2B F2B F2B F2B F2B F2B F2B F2B F2B F2B F2B F2B F2B F2B F2B F2B F2B F2B 2B 2B 2B 2B 2EB 2EB 2EB 2EB 2EB 2EB 2EB 2EB 2EB 2EB 2EB 2EB 2EB 2EB 2EB 2EB 2EB 2EB 2EB 2EB 2EB 2EB 2EB 2EB 2EB 2EB 2EB 2EB 2EB 2EB 2EB 2EB 2EB 2EB 2EB 2EB 2EB 2EB 2EB 2EB 2EB 2EB 2EB 2EB 2EB 2EB 2EB 2EB 2EB 2EB 2EB 2EB 2EB 2EB 2EB 2EB 2EB 2EB 2EB 2EB 2EB 2EB 2EB 2EB 2EB 2EB 2EB 2EB 2EB 2EB 2EB 2EB 2EB EB B B B FB& FB& FB& FB& FB& FB& FB& FB& FB& FB& FB& FB& FB& FB& FB& FB& FB& FB& FB& FB& FB& FB& FB& FB& FB& FB& FB& FB& FB& FB& FB& FB& FB& FB& FB& FB& FB& FB& FB& FB& FB& FB& FB& FB& FB& FB& FB& FB& FB& FB& FB& FB& FB& FB& FB& FB& FB& FB& FB& FB& FB& FB& FB& FB& FB& FB& FB& FB& FB& FB& FB& FB& FB& FB& B& B& B& B& EB& EB& EB& EB& EB& EB& EB& EB& EB& EB& EB& EB& EB& EB& EB& EB& EB& EB& EB& EB& EB& EB& EB& EB& EB& EB& EB& EB& EB& EB& EB& EB& EB& EB& EB& EB& EB& EB& EB& EB& EB& EB& EB& EB& EB& EB& EB& EB& EB& EB& EB& EB& EB& EB& EB& EB& EB& EB& EB& EB& EB& EB& EB& EB& EB& EB& EB& EB& EB& EB& EB& EB& EB& EB& B& B& B& B& B&C B&C B&C B&C B&C B&C B&C B&C B&C B&C B&C B&C B&C B&C B&C B&C B&C B&C B&C B&C B&C B&C B&C B&C B&C B&C B&C B&C B&C B&C B&C B&C B&C B&C B&C B&C B&C B&C B&C B&C B&C B&C B&C B&C B&C B&C B&C B&C B&C B&C B&C B&C B&C B&C B&C B&C B&C B&C B&C B&C B&C B&C B&C B&C B&C B&C B&C B&C B&C B&C B&C B&C B&C B&C B&C B&C B&C B&C B&C B&C B&C B&C B&C B&C B&C B&C B&C B&C B&C B&C B&C B&C B&C B&C B&C B&C B&C B&C B&C B&C B&C B&C B&C B&C B&C B&C B&C B&C B&C B&C B&C B&C B&C B&C B&C B&C B&C B&C B&C B&C B&C B&C B&C B&C B&C B&C B&C B&C B&C B&C B&C B&C B&C B&C B&C B&C B&C B&C B&C B&C B&C B&C B&C B&C B&C B&C B&C B&C &C &C &C C    C+ C+ C+ C+ C+ C+ C+ C+ C+ C+ C+ C+ C+ C+ C+ C+ C+ C+ C+ C+ C+ C+ C+ C+ C+ C+ C+ C+ C+ C+ C+ C+ C+ C+ C+ C+ C+ C+ C+ C+ C+ C+ C+ C+ C+ C+ C+ C+ C+ C+ C+ C+ C+ C+ C+ C+ C+ C+ C+ C+ C+ C+ C+ C+ C+ C+ C+ C+ C+ C+ C+ C+ C+ C+ C+ C+ C+ C+ C+ C+ C+ C+ C+ C+ C+ C+ C+ C+ C+ C+ C+ C+ C+ C+ C+ C+ C+ C+ C+ C+ C+ C+ C+ C+ C+ C+ C+ C+ C+ C+ C+ C+ C+ C+ C+ C+ C+ C+ C+ C+ C+ C+ C+ C+ C+ C+ C+ C+ C+ C+ C+ C+ C+ C+ C+ C+ C+ C+ C+ C+ C+ C+ C+ C+ C+ C+ C+ C+ C+ C+ C+ C+ + + + + + + + + + + + + + + + + + + + + E+ E+ E+ E+ E+ E+ E+ E+ E+ E+ E+ E+ E+ E+ E+ E+ E+ E+ E+ E+ E+ E+ E+ E+ E+ E+ E+ E+ E+ E+ E+ E+ E+ E+ E+ E+ E+ E+ E+ E+ E+ E+ E+ E+ E+ E+ E+ E+ E+ E+ E+ E+ E+ E+ E+ E+ E+ E+ E+ E+ E+ E+ E+ E+ E+ E+ E+ E+ E+ E+ E+ E+ E+ E+ E+ E+ E+ E+ E+ E+ E+ E+ E+ E+ E+ E+ E+ E+ E+ E+ E+ E+ E+ E+ E+ E+ E+ E+ E+ E+ E+ E+ E+ E+ E+ E+ E+ E+ E+ E+ E+ E+ E+ E+ E+ E+ E+ E+ E+ E+ E+ E+ E+ E+ E+ E+ E+ E+ E+ E+ E+ E+ E+ E+ E+ E+ E+ E+ E+ E+ E+ E+ E+ E+ E+ E+ E+ E+ E+ E+ E+ E+ + + + F+ F+ F+ F+ F+ F+ F+ F+ F+ F+ F+ F+ F+ F+ F+ F+ F+ F+ F+ F+ F+ F+ F+ F+ F+ F+ F+ F+ F+ F+ F+ F+ F+ F+ F+ F+ F+ F+ F+ F+ F+ F+ F+ F+ F+ F+ F+ F+ F+ F+ F+ F+ F+ F+ F+ F+ F+ F+ F+ F+ F+ F+ F+ F+ F+ F+ F+ F+ F+ F+ F+ F+ F+ F+ F+ F+ F+ F+ F+ F+ F+ F+ F+ F+ F+ F+ F+ F+ F+ F+ F+ F+ F+ F+ F+ F+ F+ F+ F+ F+ F+ F+ F+ F+ F+ F+ F+ F+ F+ F+ F+ F+ F+ F+ F+ F+ F+ F+ F+ F+ F+ F+ F+ F+ F+ F+ F+ F+ F+ F+ F+ F+ F+ F+ F+ F+ F+ F+ F+ F+ F+ F+ F+ F+ F+ F+ F+ F+ F+ F+ F+ F+ + + + + +C +C +C +C +C +C +C +C +C +C +C +C +C +C +C +C +C +C +C +C +C +C +C +C +C +C +C +C +C +C +C +C +C +C +C +C +C +C +C +C +C +C +C +C +C +C +C +C +C +C +C +C +C +C +C +C +C +C +C +C +C +C +C +C +C +C +C +C +C +C +C +C +C +C +C +C +C +C +C +C +C +C +C +C +C +C +C +C +C +C +C +C +C +C +C +C +C C C C C C C C C C C C C C C C C C C C C C C C C C C C C C C C C C C C C C C C C C C C C C C C C C C C C C C C    B B B B B B B B B B B B B B B B B B B B B B B B B B B B B B B B B B B B B B B B B B B B B B B B B B B B B B B B B B B B B B B B B B B B B B B B B B B B B B B B B B B B B B B B B B B B B B B B B B B B B B B B B B B B B B B B B B B B B B B B B B B B B B B B B B B B B B B B B B B B B B B B B B B B B B B B     C C C C C C C C C C C C C C C C C C C C C C C C C C C C C C C C C C C C C C C C C C C C C C C C C C C C C C C C C C C C C C C C C C C C C C C C C C C C C C C C C C C C C C C C C C C C C C C C C C C C C C C C C C C C C C C C C C C C C C C C C C C C C C C C C C C C C C C C C C C C C C C C C C C C C C C C    > > > > > > > > > > > > > > > > > > > > > > > > > > > > > > > > > > > > > > > > > > > > > > > > > > > > > > > > > > > > > > > > > > > > > > > > > > > > > > > > > > > > > > > > > > > > > > > > > > > > > > > > > > > > > > > > > > > > > > > > > > > > > > > > > > > > > > > > > > > > > > > > > > > > > > > > > > > > >C >C >C >C >C >C >C >C >C >C >C >C >C >C >C >C >C >C >C >C >C >C >C >C >C >C >C >C >C >C >C >C >C >C >C >C >C >C >C >C >C >C >C >C >C >C >C >C >C >C >C >C >C >C >C >C >C >C >C >C >C >C >C >C >C >C >C >C >C >C >C >C >C >C >C >C >C >C >C >C >C >C >C >C >C >C >C >C >C >C >C >C >C >C >C >C >C >C >C >C >C >C >C >C >C >C >C >C >C >C >C >C >C >C >C >C >C >C >C >C >C >C >C >C >C >C >C >C >C >C >C >C >C >C >C >C >C >C >C >C >C >C >C >C >C >C >C >C >C >C >C C     F F F F F F F F F F F F F F F F F F F F F F F F F F F F F F F F F F F F F F F F F F F F F F F F F F F F F F F F F F F F F F F F F F F F F F F F F F F F F F F F F F F F F F F F F F F F F F F F F F F F F F F F F F F F F F F F F F F F F F F F F F F F F F F F F F F F F F F F F F F F F F F F F F F F F F F F    C C C C C C C C C C C C C C C C C C C C C C C C C C C C C C C C C C C C C C C C C C C C C C C C C C C C C C C C C C C C C C C C C C C C C C C C C C C C C C C C C C C C C C C C C C C C C C C C C C C C C C C C C C C C C C C C C C C C C C C C C C C C C C C C C C C C C C C C C C C C C C C C C C C C C C C C     I I I I I I I I I I I I I I I I I I I I I I I I I I I I I I I I I I I I I I I I I I I I I I I I I I I I I I I I I I I I I I I I I I I I I I I I I I I I I I I I I I I I I I I I I I I I I I I I I I I I I I I I I I I I I I I I I I I I I I I I I I I I I I I I I I I I I I I I I I I I I I I I I I I I I I I I    C C C C C C C C C C C C C C C C C C C C C C C C C C C C C C C C C C C C C C C C C C C C C C C C C C C C C C C C C C C C C C C C C C C C C C C C C C C C C C C C C C C C C C C C C C C C C C C C C C C C C C C C C C C C C C C C C C C C C C C C C C C C C C C C C C C C C C C C C C C C C C C C C C C C C C C C     J J J J J J J J J J J J J J J J J J J J J J J J J J J J J J J J J J J J J J J J J J J J J J J J J J J J J J J J J J J J J J J J J J J J J J J J J J J J J J J J J J J J J J J J J J J J J J J J J J J J J J J J J J J J J J J J J J J J J J J J J J J J J J J J J J J J J J J J J J J J J J J J J J J J J J J J J J J >J >J >J >J >J >J >J >J >J >J >J >J >J >J >J >J >J >J >J >J >J >J >J >J >J >J >J >J >J >J >J >J >J >J >J >J >J >J >J >J >J >J >J >J >J >J >J >J >J >J >J >J >J >J >J >J >J >J >J >J >J >J >J >J >J >J >J >J >J >J >J >J >J >J J J J J @J @J @J @J @J @J @J @J @J @J @J @J @J @J @J @J @J @J @J @J @J @J @J @J @J @J @J @J @J @J @J @J @J @J @J @J @J @J @J @J @J @J @J @J @J @J @J @J @J @J @J @J @J @J @J @J @J @J @J @J @J @J @J @J @J @J @J @J @J @J @J @J @J @J     AQ AQ AQ AQ AQ AQ AQ AQ AQ AQ AQ AQ AQ AQ AQ AQ AQ AQ AQ AQ AQ AQ AQ AQ AQ AQ AQ AQ AQ AQ AQ AQ AQ AQ AQ AQ AQ AQ AQ AQ AQ AQ AQ AQ AQ AQ AQ AQ AQ AQ AQ AQ AQ AQ AQ AQ AQ AQ AQ AQ AQ AQ AQ AQ AQ AQ AQ AQ AQ AQ AQ AQ AQ AQ AQ AQ AQ AQ AQ AQ AQ AQ AQ AQ AQ AQ AQ AQ AQ AQ AQ AQ AQ AQ AQ AQ AQ AQ AQ AQ AQ AQ AQ AQ AQ AQ AQ AQ AQ AQ AQ AQ AQ AQ AQ AQ AQ AQ AQ AQ AQ AQ AQ AQ AQ AQ AQ AQ AQ AQ AQ AQ AQ AQ AQ AQ AQ AQ AQ AQ AQ AQ AQ AQ AQ AQ AQ AQ AQ AQ AQ AQ Q Q Q >Q >Q >Q >Q >Q >Q >Q >Q >Q >Q >Q >Q >Q >Q >Q >Q >Q >Q >Q >Q >Q >Q >Q >Q >Q >Q >Q >Q >Q >Q >Q >Q >Q >Q >Q >Q >Q >Q >Q >Q >Q >Q >Q >Q >Q >Q >Q >Q >Q >Q >Q >Q >Q >Q >Q >Q >Q >Q >Q >Q >Q >Q >Q >Q >Q >Q >Q >Q >Q >Q >Q >Q >Q >Q >Q >Q >Q >Q >Q >Q >Q >Q >Q >Q >Q >Q >Q >Q >Q >Q >Q >Q >Q >Q >Q >Q >Q >Q >Q >Q >Q >Q >Q >Q >Q >Q >Q >Q >Q >Q >Q >Q >Q >Q >Q >Q >Q >Q >Q >Q >Q >Q >Q >Q >Q >Q >Q >Q >Q >Q >Q >Q >Q >Q >Q >Q >Q >Q >Q >Q >Q >Q >Q >Q >Q >Q >Q >Q >Q >Q >Q >Q     =Q =Q =Q =Q =Q =Q =Q =Q =Q =Q =Q =Q =Q =Q =Q =Q =Q =Q =Q =Q =Q =Q =Q =Q =Q =Q =Q =Q =Q =Q =Q =Q =Q =Q =Q =Q =Q =Q =Q =Q =Q =Q =Q =Q =Q =Q =Q =Q =Q =Q =Q =Q =Q =Q =Q =Q =Q =Q =Q =Q =Q =Q =Q =Q =Q =Q =Q =Q =Q =Q =Q =Q =Q =Q =Q =Q =Q =Q =Q =Q =Q =Q =Q =Q =Q =Q =Q =Q =Q =Q =Q =Q =Q =Q =Q =Q =Q =Q =Q =Q =Q =Q =Q =Q =Q =Q =Q =Q =Q =Q =Q =Q =Q =Q =Q =Q =Q =Q =Q =Q =Q =Q =Q =Q =Q =Q =Q =Q =Q =Q =Q =Q =Q =Q =Q =Q =Q =Q =Q =Q =Q =Q =Q =Q =Q =Q =Q =Q =Q =Q =Q =Q Q Q Q >Q >Q >Q >Q >Q >Q >Q >Q >Q >Q >Q >Q >Q >Q >Q >Q >Q >Q >Q >Q >Q >Q >Q >Q >Q >Q >Q >Q >Q >Q >Q >Q >Q >Q >Q >Q >Q >Q >Q >Q >Q >Q >Q >Q >Q >Q >Q >Q >Q >Q >Q >Q >Q >Q >Q >Q >Q >Q >Q >Q >Q >Q >Q >Q >Q >Q >Q >Q >Q >Q >Q >Q >Q >Q >Q >Q >Q >Q >Q >Q >Q >Q >Q >Q >Q >Q >Q >Q >Q >Q >Q >Q >Q >Q >Q >Q >Q >Q >Q >Q >Q >Q >Q >Q >Q >Q >Q >Q >Q >Q >Q >Q >Q >Q >Q >Q >Q >Q >Q >Q >Q >Q >Q >Q >Q >Q >Q >Q >Q >Q >Q >Q >Q >Q >Q >Q >Q >Q >Q >Q >Q >Q >Q >Q >Q >Q >Q >Q >Q >Q >Q >Q     9M 9M 9M 9M 9M 9M 9M 9M 9M 9M 9M 9M 9M 9M 9M 9M 9M 9M 9M 9M 9M 9M 9M 9M 9M 9M 9M 9M 9M 9M 9M 9M 9M 9M 9M 9M 9M 9M 9M 9M 9M 9M 9M 9M 9M 9M 9M 9M 9M 9M 9M 9M 9M 9M 9M 9M 9M 9M 9M 9M 9M 9M 9M 9M 9M 9M 9M 9M 9M 9M 9M 9M 9M 9M 9M 9M 9M 9M 9M 9M 9M 9M 9M 9M 9M 9M 9M 9M 9M 9M 9M 9M 9M 9M 9M 9M 9M 9M 9M 9M 9M 9M 9M 9M 9M 9M 9M 9M 9M 9M 9M 9M 9M 9M 9M 9M 9M 9M 9M 9M 9M 9M 9M 9M 9M 9M 9M 9M 9M 9M 9M 9M 9M 9M 9M 9M 9M 9M 9M 9M 9M 9M 9M 9M 9M 9M 9M 9M 9M 9M 9M 9M M M M >M >M >M >M >M >M >M >M >M >M >M >M >M >M >M >M >M >M >M >M >M >M >M >M >M >M >M >M >M >M >M >M >M >M >M >M >M >M >M >M >M >M >M >M >M >M >M >M >M >M >M >M >M >M >M >M >M >M >M >M >M >M >M >M >M >M >M >M >M >M >M >M >M >M >M >M >M >M >M >M >M >M >M >M >M >M >M >M >M >M >M >M >M >M >M >M >M >M >M >M >M >M >M >M >M >M >M >M >M >M >M >M >M >M >M >M >M >M >M >M >M >M >M >M >M >M >M >M >M >M >M >M >M >M >M >M >M >M >M >M >M >M >M >M >M >M >M >M >M >M >M >M     AJ AJ AJ AJ AJ AJ AJ AJ AJ AJ AJ AJ AJ AJ AJ AJ AJ AJ AJ AJ AJ AJ AJ AJ AJ AJ AJ AJ AJ AJ AJ AJ AJ AJ AJ AJ AJ AJ AJ AJ AJ AJ AJ AJ AJ AJ AJ AJ AJ AJ AJ AJ AJ AJ AJ AJ AJ AJ AJ AJ AJ AJ AJ AJ AJ AJ AJ AJ AJ AJ AJ AJ AJ AJ AJ AJ AJ AJ AJ AJ AJ AJ AJ AJ AJ AJ AJ AJ AJ AJ AJ AJ AJ AJ AJ AJ AJ AJ AJ AJ AJ AJ AJ AJ AJ AJ AJ AJ AJ AJ AJ AJ AJ AJ AJ AJ AJ AJ AJ AJ AJ AJ AJ AJ AJ AJ AJ AJ AJ AJ AJ AJ AJ AJ AJ AJ AJ AJ AJ AJ AJ AJ AJ AJ AJ AJ AJ AJ AJ AJ AJ AJ J J J >J >J >J >J >J >J >J >J >J >J >J >J >J >J >J >J >J >J >J >J >J >J >J >J >J >J >J >J >J >J >J >J >J >J >J >J >J >J >J >J >J >J >J >J >J >J >J >J >J >J >J >J >J >J >J >J >J >J >J >J >J >J >J >J >J >J >J >J >J >J >J >J >J >J >J >J >J >J >J >J >J >J >J >J >J >J >J >J >J >J >J >J >J >J >J >J >J >J >J >J >J >J >J >J >J >J >J >J >J >J >J >J >J >J >J >J >J >J >J >J >J >J >J >J >J >J >J >J >J >J >J >J >J >J >J >J >J >J >J >J >J >J >J >J >J >J >J >J >J >J >J >J     DJ DJ DJ DJ DJ DJ DJ DJ DJ DJ DJ DJ DJ DJ DJ DJ DJ DJ DJ DJ DJ DJ DJ DJ DJ DJ DJ DJ DJ DJ DJ DJ DJ DJ DJ DJ DJ DJ DJ DJ DJ DJ DJ DJ DJ DJ DJ DJ DJ DJ DJ DJ DJ DJ DJ DJ DJ DJ DJ DJ DJ DJ DJ DJ DJ DJ DJ DJ DJ DJ DJ DJ DJ DJ DJ DJ DJ DJ DJ DJ DJ DJ DJ DJ DJ DJ DJ DJ DJ DJ DJ DJ DJ DJ DJ DJ DJ DJ DJ DJ DJ DJ DJ DJ DJ DJ DJ DJ DJ DJ DJ DJ DJ DJ DJ DJ DJ DJ DJ DJ DJ DJ DJ DJ DJ DJ DJ DJ DJ DJ DJ DJ DJ DJ DJ DJ DJ DJ DJ DJ DJ DJ DJ DJ DJ DJ DJ DJ DJ DJ DJ DJ J J J >J >J >J >J >J >J >J >J >J >J >J >J >J >J >J >J >J >J >J >J >J >J >J >J >J >J >J >J >J >J >J >J >J >J >J >J >J >J >J >J >J >J >J >J >J >J >J >J >J >J >J >J >J >J >J >J >J >J >J >J >J >J >J >J >J >J >J >J >J >J >J >J >J >J >J >J >J >J >J >J >J >J >J >J >J >J >J >J >J >J >J >J >J >J >J >J >J >J >J >J >J >J >J >J >J >J >J >J >J >J >J >J >J >J >J >J >J >J >J >J >J >J >J >J >J >J >J >J >J >J >J >J >J >J >J >J >J >J >J >J >J >J >J >J >J >J >J >J >J >J >J >J     JE JE JE JE JE JE JE JE JE JE JE JE JE JE JE JE JE JE JE JE JE JE JE JE JE JE JE JE JE JE JE JE JE JE JE JE JE JE JE JE JE JE JE JE JE JE JE JE JE JE JE JE JE JE JE JE JE JE JE JE JE JE JE JE JE JE JE JE JE JE JE JE JE JE JE JE JE JE JE JE JE JE JE JE JE JE JE JE JE JE JE JE JE JE JE JE JE JE JE JE JE JE JE JE JE JE JE JE JE JE JE JE JE JE JE JE JE JE JE JE JE JE JE JE JE JE JE JE JE JE JE JE JE JE JE JE JE JE JE JE JE JE JE JE JE JE JE JE JE JE JE JE E E E GE GE GE GE GE GE GE GE GE GE GE GE GE GE GE GE GE GE GE GE GE GE GE GE GE GE GE GE GE GE GE GE GE GE GE GE GE GE GE GE GE GE GE GE GE GE GE GE GE GE GE GE GE GE GE GE GE GE GE GE GE GE GE GE GE GE GE GE GE GE GE GE GE GE GE GE GE GE GE GE GE GE GE GE GE GE GE GE GE GE GE GE GE GE GE GE GE GE GE GE GE GE GE GE GE GE GE GE GE GE GE GE GE GE GE GE GE GE GE GE GE GE GE GE GE GE GE GE GE GE GE GE GE GE GE GE GE GE GE GE GE GE GE GE GE GE GE GE GE GE GE GE     HE HE HE HE HE HE HE HE HE HE HE HE HE HE HE HE HE HE HE HE HE HE HE HE HE HE HE HE HE HE HE HE HE HE HE HE HE HE HE HE HE HE HE HE HE HE HE HE HE HE HE HE HE HE HE HE HE HE HE HE HE HE HE HE HE HE HE HE HE HE HE HE HE HE HE HE HE HE HE HE HE HE HE HE HE HE HE HE HE HE HE HE HE HE HE HE HE HE HE HE HE HE HE HE HE HE HE HE HE HE HE HE HE HE HE HE HE HE HE HE HE HE HE HE HE HE HE HE HE HE HE HE HE HE HE HE HE HE HE HE HE HE HE HE HE HE HE HE HE HE HE HE E E E LE LE LE LE LE LE LE LE LE LE LE LE LE LE LE LE LE LE LE LE LE LE LE LE LE LE LE LE LE LE LE LE LE LE LE LE LE LE LE LE LE LE LE LE LE LE LE LE LE LE LE LE LE LE LE LE LE LE LE LE LE LE LE LE LE LE LE LE LE LE LE LE LE LE LE LE LE LE LE LE LE LE LE LE LE LE LE LE LE LE LE LE LE LE LE LE LE LE LE LE LE LE LE LE LE LE LE LE LE LE LE LE LE LE LE LE LE LE LE LE LE LE LE LE LE LE LE LE LE LE LE LE LE LE LE LE LE LE LE LE LE LE LE LE LE LE LE LE LE LE LE LE     ME ME ME ME ME ME ME ME ME ME ME ME ME ME ME ME ME ME ME ME ME ME ME ME ME ME ME ME ME ME ME ME ME ME ME ME ME ME ME ME ME ME ME ME ME ME ME ME ME ME ME ME ME ME ME ME ME ME ME ME ME ME ME ME ME ME ME ME ME ME ME ME ME ME ME ME ME ME ME ME ME ME ME ME ME ME ME ME ME ME ME ME ME ME ME ME ME ME ME ME ME ME ME ME ME ME ME ME ME ME ME ME ME ME ME ME ME ME ME ME ME ME ME ME ME ME ME ME ME ME ME ME ME ME ME ME ME ME ME ME ME ME ME ME ME ME ME ME ME ME ME ME E E E HE HE HE HE HE HE HE HE HE HE HE HE HE HE HE HE HE HE HE HE HE HE HE HE HE HE HE HE HE HE HE HE HE HE HE HE HE HE HE HE HE HE HE HE HE HE HE HE HE HE HE HE HE HE HE HE HE HE HE HE HE HE HE HE HE HE HE HE HE HE HE HE HE HE HE HE HE HE HE HE HE HE HE HE HE HE HE HE HE HE HE HE HE HE HE HE HE HE HE HE HE HE HE HE HE HE HE HE HE HE HE HE HE HE HE HE HE HE HE HE HE HE HE HE HE HE HE HE HE HE HE HE HE HE HE HE HE HE HE HE HE HE HE HE HE HE HE HE HE HE HE HE     FE FE FE FE FE FE FE FE FE FE FE FE FE FE FE FE FE FE FE FE FE FE FE FE FE FE FE FE FE FE FE FE FE FE FE FE FE FE FE FE FE FE FE FE FE FE FE FE FE FE FE FE FE FE FE FE FE FE FE FE FE FE FE FE FE FE FE FE FE FE FE FE FE FE FE FE FE FE FE FE FE FE FE FE FE FE FE FE FE FE FE FE FE FE FE FE FE FE FE FE FE FE FE FE FE FE FE FE FE FE FE FE FE FE FE FE FE FE FE FE FE FE FE FE FE FE FE FE FE FE FE FE FE FE FE FE FE FE FE FE FE FE FE FE FE FE FE FE FE FE FE FE E E E HE HE HE HE HE HE HE HE HE HE HE HE HE HE HE HE HE HE HE HE HE HE HE HE HE HE HE HE HE HE HE HE HE HE HE HE HE HE HE HE HE HE HE HE HE HE HE HE HE HE HE HE HE HE HE HE HE HE HE HE HE HE HE HE HE HE HE HE HE HE HE HE HE HE HE HE HE HE HE HE HE HE HE HE HE HE HE HE HE HE HE HE HE HE HE HE HE HE HE HE HE HE HE HE HE HE HE HE HE HE HE HE HE HE HE HE HE HE HE HE HE HE HE HE HE HE HE HE HE HE HE HE HE HE HE HE HE HE HE HE HE HE HE HE HE HE HE HE HE HE HE HE     JC JC JC JC JC JC JC JC JC JC JC JC JC JC JC JC JC JC JC JC JC JC JC JC JC JC JC JC JC JC JC JC JC JC JC JC JC JC JC JC JC JC JC JC JC JC JC JC JC JC JC JC JC JC JC JC JC JC JC JC JC JC JC JC JC JC JC JC JC JC JC JC JC JC JC JC JC JC JC JC JC JC JC JC JC JC JC JC JC JC JC JC JC JC JC JC JC JC JC JC JC JC JC JC JC JC JC JC JC JC JC JC JC JC JC JC JC JC JC JC JC JC JC JC JC JC JC JC JC JC JC JC JC JC JC JC JC JC JC JC JC JC JC JC JC JC JC JC JC JC JC JC C C C C CF CF CF CF CF CF CF CF CF CF CF CF CF CF CF CF CF CF CF CF CF CF CF CF CF CF CF CF CF CF CF CF CF CF CF CF CF CF CF CF CF CF CF CF CF CF CF CF CF CF CF CF CF CF CF CF CF CF CF CF CF CF CF CF CF CF CF CF CF CF CF CF CF CF CF CF CF CF CF CF CF CF CF CF CF CF CF CF CF CF CF CF CF CF CF CF CF CF CF CF CF CF CF CF CF CF CF CF CF CF CF CF CF CF CF CF CF CF CF CF CF CF CF CF CF CF CF CF CF CF CF CF CF CF CF CF CF CF CF CF CF CF CF CF CF CF CF CF CF CF CF F    KC KC KC KC KC KC KC KC KC KC KC KC KC KC KC KC KC KC KC KC KC KC KC KC KC KC KC KC KC KC KC KC KC KC KC KC KC KC KC KC KC KC KC KC KC KC KC KC KC KC KC KC KC KC KC KC KC KC KC KC KC KC KC KC KC KC KC KC KC KC KC KC KC KC KC KC KC KC KC KC KC KC KC KC KC KC KC KC KC KC KC KC KC KC KC KC KC KC KC KC KC KC KC KC KC KC KC KC KC KC KC KC KC KC KC KC KC KC KC KC KC KC KC KC KC KC KC KC KC KC KC KC KC KC KC KC KC KC KC KC KC KC KC KC KC KC KC KC KC KC KC KC C C C C CF CF CF CF CF CF CF CF CF CF CF CF CF CF CF CF CF CF CF CF CF CF CF CF CF CF CF CF CF CF CF CF CF CF CF CF CF CF CF CF CF CF CF CF CF CF CF CF CF CF CF CF CF CF CF CF CF CF CF CF CF CF CF CF CF CF CF CF CF CF CF CF CF CF CF CF CF CF CF CF CF CF CF CF CF CF CF CF CF CF CF CF CF CF CF CF CF CF CF CF CF CF CF CF CF CF CF CF CF CF CF CF CF CF CF CF CF CF CF CF CF CF CF CF CF CF CF CF CF CF CF CF CF CF CF CF CF CF CF CF CF CF CF CF CF CF CF CF CF CF CF F    EC EC EC EC EC EC EC EC EC EC EC EC EC EC EC EC EC EC EC EC EC EC EC EC EC EC EC EC EC EC EC EC EC EC EC EC EC EC EC EC EC EC EC EC EC EC EC EC EC EC EC EC EC EC EC EC EC EC EC EC EC EC EC EC EC EC EC EC EC EC EC EC EC EC EC EC EC EC EC EC EC EC EC EC EC EC EC EC EC EC EC EC EC EC EC EC EC EC EC EC EC EC EC EC EC EC EC EC EC EC EC EC EC EC EC EC EC EC EC EC EC EC EC EC EC EC EC EC EC EC EC EC EC EC EC EC EC EC EC EC EC EC EC EC EC EC EC EC EC EC EC EC C C C C CH CH CH CH CH CH CH CH CH CH CH CH CH CH CH CH CH CH CH CH CH CH CH CH CH CH CH CH CH CH CH CH CH CH CH CH CH CH CH CH CH CH CH CH CH CH CH CH CH CH CH CH CH CH CH CH CH CH CH CH CH CH CH CH CH CH CH CH CH CH CH CH CH CH CH CH CH CH CH CH CH CH CH CH CH CH CH CH CH CH CH CH CH CH CH CH CH CH CH CH CH CH CH CH CH CH CH CH CH CH CH CH CH CH CH CH CH CH CH CH CH CH CH CH CH CH CH CH CH CH CH CH CH CH CH CH CH CH CH CH CH CH CH CH CH CH CH CH CH CH CH H    JA JA JA JA JA JA JA JA JA JA JA JA JA JA JA JA JA JA JA JA JA JA JA JA JA JA JA JA JA JA JA JA JA JA JA JA JA JA JA JA JA JA JA JA JA JA JA JA JA JA JA JA JA JA JA JA JA JA JA JA JA JA JA JA JA JA JA JA JA JA JA JA JA JA JA JA JA JA JA JA JA JA JA JA JA JA JA JA JA JA JA JA JA JA JA JA JA JA JA JA JA JA JA JA JA JA JA JA JA JA JA JA JA JA JA JA JA JA JA JA JA JA JA JA JA JA JA JA JA JA JA JA JA JA JA JA JA JA JA JA JA JA JA JA JA JA JA JA JA JA JA JA A A A A AK AK AK AK AK AK AK AK AK AK AK AK AK AK AK AK AK AK AK AK AK AK AK AK AK AK AK AK AK AK AK AK AK AK AK AK AK AK AK AK AK AK AK AK AK AK AK AK AK AK AK AK AK AK AK AK AK AK AK AK AK AK AK AK AK AK AK AK AK AK AK AK AK AK AK AK AK AK AK AK AK AK AK AK AK AK AK AK AK AK AK AK AK AK AK AK AK AK AK AK AK AK AK AK AK AK AK AK AK AK AK AK AK AK AK AK AK AK AK AK AK AK AK AK AK AK AK AK AK AK AK AK AK AK AK AK AK AK AK AK AK AK AK AK AK AK AK AK AK AK AK K    MA MA MA MA MA MA MA MA MA MA MA MA MA MA MA MA MA MA MA MA MA MA MA MA MA MA MA MA MA MA MA MA MA MA MA MA MA MA MA MA MA MA MA MA MA MA MA MA MA MA MA MA MA MA MA MA MA MA MA MA MA MA MA MA MA MA MA MA MA MA MA MA MA MA MA MA MA MA MA MA MA MA MA MA MA MA MA MA MA MA MA MA MA MA MA MA MA MA MA MA MA MA MA MA MA MA MA MA MA MA MA MA MA MA MA MA MA MA MA MA MA MA MA MA MA MA MA MA MA MA MA MA MA MA MA MA MA MA MA MA MA MA MA MA MA MA MA MA MA MA MA MA A A A A JA JA JA JA JA JA JA JA JA JA JA JA JA JA JA JA JA JA JA JA JA JA JA JA JA JA JA JA JA JA JA JA JA JA JA JA JA JA JA JA JA JA JA JA JA JA JA JA JA JA JA JA JA JA JA JA JA JA JA JA JA JA JA JA JA JA JA JA JA JA JA JA JA JA JA JA JA JA JA JA JA JA JA JA JA JA JA JA JA JA JA JA JA JA JA JA JA JA JA JA JA JA JA JA JA JA JA JA JA JA JA JA JA JA JA JA JA JA JA JA JA JA JA JA JA JA JA JA JA JA JA JA JA JA JA JA JA JA JA JA JA JA JA JA JA JA JA JA JA JA JA JA A A A AH AH AH AH AH AH AH AH AH AH AH AH AH AH AH AH AH AH AH AH AH AH AH AH AH AH AH AH AH AH AH AH AH AH AH AH AH AH AH AH AH AH AH AH AH AH AH AH AH AH AH AH AH AH AH AH AH AH AH AH AH AH AH AH AH AH AH AH AH AH AH AH AH AH AH AH AH H H H H H H H H H H H H H H H H H H H H H H H H H H H H H H H H H H H H H H H H H H H H H H H H H H H H H H H H H H H H H H H H H H H H H H H H H H H     AG AG AG AG AG AG AG AG AG AG AG AG AG AG AG AG AG AG AG AG AG AG AG AG AG AG AG AG AG AG AG AG AG AG AG AG AG AG AG AG AG AG AG AG AG AG AG AG AG AG AG AG AG AG AG AG AG AG AG AG AG AG AG AG AG AG AG AG AG AG AG AG AG AG AG AG AG AG AG AG AG AG AG AG AG AG AG AG AG AG AG AG AG AG AG AG AG AG AG AG AG AG AG AG AG AG AG AG AG AG AG AG AG AG AG AG AG AG AG AG AG AG AG AG AG AG AG AG AG AG AG AG AG AG AG AG AG AG AG AG AG AG AG AG AG AG AG AG AG AG AG AG    ?H ?H ?H ?H ?H ?H ?H ?H ?H ?H ?H ?H ?H ?H ?H ?H ?H ?H ?H ?H ?H ?H ?H ?H ?H ?H ?H ?H ?H ?H ?H ?H ?H ?H ?H ?H ?H ?H ?H ?H ?H ?H ?H ?H ?H ?H ?H ?H ?H ?H ?H ?H ?H ?H ?H ?H ?H ?H ?H ?H ?H ?H ?H ?H ?H ?H ?H ?H ?H ?H ?H ?H ?H ?H ?H ?H ?H ?H ?H ?H ?H ?H ?H ?H ?H ?H ?H ?H ?H ?H ?H ?H ?H ?H ?H ?H ?H ?H ?H ?H ?H ?H ?H ?H ?H ?H ?H ?H ?H ?H ?H ?H ?H ?H ?H ?H ?H ?H ?H ?H ?H ?H ?H ?H ?H ?H ?H ?H ?H ?H ?H ?H ?H ?H ?H ?H ?H ?H ?H ?H ?H ?H ?H ?H ?H ?H ?H ?H ?H ?H ?H ?H H H H H H> H> H> H> H> H> H> H> H> H> H> H> H> H> H> H> H> H> H> H> H> H> H> H> H> H> H> H> H> H> H> H> H> H> H> H> H> H> H> H> H> H> H> H> H> H> H> H> H> H> H> H> H> H> H> H> H> H> H> H> H> H> H> H> H> H> H> H> H> H> H> H> H> H> H> H> H> H> H> H> H> H> H> H> H> H> H> H> H> H> H> H> H> H> H> H> H> H> H> H> H> H> H> H> H> H> H> H> H> H> H> H> H> H> H> H> H> H> H> H> H> H> H> H> H> H> H> H> H> H> H> H> H> H> H> H> H> H> H> H> H> H> H> H> H> H> H> H> H> H> H> >    <H <H <H <H <H <H <H <H <H <H <H <H <H <H <H <H <H <H <H <H <H <H <H <H <H <H <H <H <H <H <H <H <H <H <H <H <H <H <H <H <H <H <H <H <H <H <H <H <H <H <H <H <H <H <H <H <H <H <H <H <H <H <H <H <H <H <H <H <H <H <H <H <H <H <H <H <H <H <H <H <H <H <H <H <H <H <H <H <H <H <H <H <H <H <H <H <H <H <H <H <H <H <H <H <H <H <H <H <H <H <H <H <H <H <H <H <H <H <H <H <H <H <H <H <H <H <H <H <H <H <H <H <H <H <H <H <H <H <H <H <H <H <H <H <H <H <H <H <H <H <H <H H H H H H? H? H? H? H? H? H? H? H? H? H? H? H? H? H? H? H? H? H? H? H? H? H? H? H? H? H? H? H? H? H? H? H? H? H? H? H? H? H? H? H? H? H? H? H? H? H? H? H? H? H? H? H? H? H? H? H? H? H? H? H? H? H? H? H? H? H? H? H? H? H? H? H? H? H? H? H? H? H? H? H? H? H? H? H? H? H? H? H? H? H? H? H? H? H? H? H? H? H? H? H? H? H? H? H? H? H? H? H? H? H? H? H? H? H? H? H? H? H? H? H? H? H? H? H? H? H? H? H? H? H? H? H? H? H? H? H? H? H? H? H? H? H? H? H? H? H? H? H? H? H? ?    H8 H8 H8 H8 H8 H8 H8 H8 H8 H8 H8 H8 H8 H8 H8 H8 H8 H8 H8 H8 H8 H8 H8 H8 H8 H8 H8 H8 H8 H8 H8 H8 H8 H8 H8 H8 H8 H8 H8 H8 H8 H8 H8 H8 H8 H8 H8 H8 H8 H8 H8 H8 H8 H8 H8 H8 H8 H8 H8 H8 H8 H8 H8 H8 H8 H8 H8 H8 H8 H8 H8 H8 H8 H8 H8 H8 H8 H8 H8 H8 H8 H8 H8 H8 H8 H8 H8 H8 H8 H8 H8 H8 H8 H8 H8 H8 H8 H8 H8 H8 H8 H8 H8 H8 H8 H8 H8 H8 H8 H8 H8 H8 H8 H8 H8 H8 H8 H8 H8 H8 H8 H8 H8 H8 H8 H8 H8 H8 H8 H8 H8 H8 H8 H8 H8 H8 H8 H8 H8 H8 H8 H8 H8 H8 H8 H8 H8 H8 H8 H8 H8 H8 8 8 8 8 8J 8J 8J 8J 8J 8J 8J 8J 8J 8J 8J 8J 8J 8J 8J 8J 8J 8J 8J 8J 8J 8J 8J 8J 8J 8J 8J 8J 8J 8J 8J 8J 8J 8J 8J 8J 8J 8J 8J 8J 8J 8J 8J 8J 8J 8J 8J 8J 8J 8J 8J 8J 8J 8J 8J 8J 8J 8J 8J 8J 8J 8J 8J 8J 8J 8J 8J 8J 8J 8J 8J 8J 8J 8J 8J 8J 8J 8J 8J 8J 8J 8J 8J 8J 8J 8J 8J 8J 8J 8J 8J 8J 8J 8J 8J 8J 8J 8J 8J 8J 8J 8J 8J 8J 8J 8J 8J 8J 8J 8J 8J 8J 8J 8J 8J 8J 8J 8J 8J 8J 8J 8J 8J 8J 8J 8J 8J 8J 8J 8J 8J 8J 8J 8J 8J 8J 8J 8J 8J 8J 8J 8J 8J 8J 8J 8J 8J 8J 8J 8J 8J J    K< K< K< K< K< K< K< K< K< K< K< K< K< K< K< K< K< K< K< K< K< K< K< K< K< K< K< K< K< K< K< K< K< K< K< K< K< K< K< K< K< K< K< K< K< K< K< K< K< K< K< K< K< K< K< K< K< K< K< K< K< K< K< K< K< K< K< K< K< K< K< K< K< K< K< K< K< K< K< K< K< K< K< K< K< K< K< K< K< K< K< K< K< K< K< K< K< K< K< K< K< K< K< K< K< K< K< K< K< K< K< K< K< K< K< K< K< K< K< K< K< K< K< K< K< K< K< K< K< K< K< K< K< K< K< K< K< K< K< K< K< K< K< K< K< K< K< K< K< K< K< K< < < < < <H <H <H <H <H <H <H <H <H <H <H <H <H <H <H <H <H <H <H <H <H <H <H <H <H <H <H <H <H <H <H <H <H <H <H <H <H <H <H <H <H <H <H <H <H <H <H <H <H <H <H <H <H <H <H <H <H <H <H <H <H <H <H <H <H <H <H <H <H <H <H <H <H <H <H <H <H <H <H <H <H <H <H <H <H <H <H <H <H <H <H <H <H <H <H <H <H <H <H <H <H <H <H <H <H <H <H <H <H <H <H <H <H <H <H <H <H <H <H <H <H <H <H <H <H <H <H <H <H <H <H <H <H <H <H <H <H <H <H <H <H <H <H <H <H <H <H <H <H <H <H H    N? N? N? N? N? N? N? N? N? N? N? N? N? N? N? N? N? N? N? N? N? N? N? N? N? N? N? N? N? N? N? N? N? N? N? N? N? N? N? N? N? N? N? N? N? N? N? N? N? N? N? N? N? N? N? N? N? N? N? N? N? N? N? N? N? N? N? N? N? N? N? N? N? N? N? N? N? N? N? N? N? N? N? N? N? N? N? N? N? N? N? N? N? N? N? N? N? N? N? N? N? N? N? N? N? N? N? N? N? N? N? N? N? N? N? N? N? N? N? N? N? N? N? N? N? N? N? N? N? N? N? N? N? N? N? N? N? N? N? N? N? N? N? N? N? N? N? N? N? N? N? N? ? ? ? ? ?H ?H ?H ?H ?H ?H ?H ?H ?H ?H ?H ?H ?H ?H ?H ?H ?H ?H ?H ?H ?H ?H ?H ?H ?H ?H ?H ?H ?H ?H ?H ?H ?H ?H ?H ?H ?H ?H ?H ?H ?H ?H ?H ?H ?H ?H ?H ?H ?H ?H ?H ?H ?H ?H ?H ?H ?H ?H ?H ?H ?H ?H ?H ?H ?H ?H ?H ?H ?H ?H ?H ?H ?H ?H ?H ?H ?H ?H ?H ?H ?H ?H ?H ?H ?H ?H ?H ?H ?H ?H ?H ?H ?H ?H ?H ?H ?H ?H ?H ?H ?H ?H ?H ?H ?H ?H ?H ?H ?H ?H ?H ?H ?H ?H ?H ?H ?H ?H ?H ?H ?H ?H ?H ?H ?H ?H ?H ?H ?H ?H ?H ?H ?H ?H ?H ?H ?H ?H ?H ?H ?H ?H ?H ?H ?H ?H ?H ?H ?H ?H ?H H    Q6 Q6 Q6 Q6 Q6 Q6 Q6 Q6 Q6 Q6 Q6 Q6 Q6 Q6 Q6 Q6 Q6 Q6 Q6 Q6 Q6 Q6 Q6 Q6 Q6 Q6 Q6 Q6 Q6 Q6 Q6 Q6 Q6 Q6 Q6 Q6 Q6 Q6 Q6 Q6 Q6 Q6 Q6 Q6 Q6 Q6 Q6 Q6 Q6 Q6 Q6 Q6 Q6 Q6 Q6 Q6 Q6 Q6 Q6 Q6 Q6 Q6 Q6 Q6 Q6 Q6 Q6 Q6 Q6 Q6 Q6 Q6 Q6 Q6 Q6 Q6 Q6 Q6 Q6 Q6 Q6 Q6 Q6 Q6 Q6 Q6 Q6 Q6 Q6 Q6 Q6 Q6 Q6 Q6 Q6 Q6 Q6 Q6 Q6 Q6 Q6 Q6 Q6 Q6 Q6 Q6 Q6 Q6 Q6 Q6 Q6 Q6 Q6 Q6 Q6 Q6 Q6 Q6 Q6 Q6 Q6 Q6 Q6 Q6 Q6 Q6 Q6 Q6 Q6 Q6 Q6 Q6 Q6 Q6 Q6 Q6 Q6 Q6 Q6 Q6 Q6 Q6 Q6 Q6 Q6 Q6 Q6 Q6 Q6 Q6 Q6 Q6 6 6 6 6 6K 6K 6K 6K 6K 6K 6K 6K 6K 6K 6K 6K 6K 6K 6K 6K 6K 6K 6K 6K 6K 6K 6K 6K 6K 6K 6K 6K 6K 6K 6K 6K 6K 6K 6K 6K 6K 6K 6K 6K 6K 6K 6K 6K 6K 6K 6K 6K 6K 6K 6K 6K 6K 6K 6K 6K 6K 6K 6K 6K 6K 6K 6K 6K 6K 6K 6K 6K 6K 6K 6K 6K 6K 6K 6K 6K 6K 6K 6K 6K 6K 6K 6K 6K 6K 6K 6K 6K 6K 6K 6K 6K 6K 6K 6K 6K 6K 6K 6K 6K 6K 6K 6K 6K 6K 6K 6K 6K 6K 6K 6K 6K 6K 6K 6K 6K 6K 6K 6K 6K 6K 6K 6K 6K 6K 6K 6K 6K 6K 6K 6K 6K 6K 6K 6K 6K 6K 6K 6K 6K 6K 6K 6K 6K 6K 6K 6K 6K 6K 6K 6K K    J9 J9 J9 J9 J9 J9 J9 J9 J9 J9 J9 J9 J9 J9 J9 J9 J9 J9 J9 J9 J9 J9 J9 J9 J9 J9 J9 J9 J9 J9 J9 J9 J9 J9 J9 J9 J9 J9 J9 J9 J9 J9 J9 J9 J9 J9 J9 J9 J9 J9 J9 J9 J9 J9 J9 J9 J9 J9 J9 J9 J9 J9 J9 J9 J9 J9 J9 J9 J9 J9 J9 J9 J9 J9 J9 J9 J9 J9 J9 J9 J9 J9 J9 J9 J9 J9 J9 J9 J9 J9 J9 J9 J9 J9 J9 J9 J9 J9 J9 J9 J9 J9 J9 J9 J9 J9 J9 J9 J9 J9 J9 J9 J9 J9 J9 J9 J9 J9 J9 J9 J9 J9 J9 J9 J9 J9 J9 J9 J9 J9 J9 J9 J9 J9 J9 J9 J9 J9 J9 J9 J9 J9 J9 J9 J9 J9 J9 J9 J9 J9 J9 J9 9 9 9 9 9H 9H 9H 9H 9H 9H 9H 9H 9H 9H 9H 9H 9H 9H 9H 9H 9H 9H 9H 9H 9H 9H 9H 9H 9H 9H 9H 9H 9H 9H 9H 9H 9H 9H 9H 9H 9H 9H 9H 9H 9H 9H 9H 9H 9H 9H 9H 9H 9H 9H 9H 9H 9H 9H 9H 9H 9H 9H 9H 9H 9H 9H 9H 9H 9H 9H 9H 9H 9H 9H 9H 9H 9H 9H 9H 9H 9H 9H 9H 9H 9H 9H 9H 9H 9H 9H 9H 9H 9H 9H 9H 9H 9H 9H 9H 9H 9H 9H 9H 9H 9H 9H 9H 9H 9H 9H 9H 9H 9H 9H 9H 9H 9H 9H 9H 9H 9H 9H 9H 9H 9H 9H 9H 9H 9H 9H 9H 9H 9H 9H 9H 9H 9H 9H 9H 9H 9H 9H 9H 9H 9H 9H 9H 9H 9H 9H 9H 9H 9H 9H 9H H     F> F> F> F> F> F> F> F> F> F> F> F> F> F> F> F> F> F> F> F> F> F> F> F> F> F> F> F> F> F> F> F> F> F> F> F> F> F> F> F> F> F> F> F> F> F> F> F> F> F> F> F> F> F> F> F> F> F> F> F> F> F> F> F> F> F> F> F> F> F> F> F> F> F> F> F> F> F> F> F> F> F> F> F> F> F> F> F> F> F> F> F> F> F> F> F> F> F> F> F> F> F> F> F> F> F> F> F> F> F> F> F> F> F> F> F> F> F> F> F> F> F> F> F> F> F> F> F> F> F> F> F> F> F> F> F> F> F> F> F> F> F> F> F> F> F> F> F> F> F> F> F> > > > E> E> E> E> E> E> E> E> E> E> E> E> E> E> E> E> E> E> E> E> E> E> E> E> E> E> E> E> E> E> E> E> E> E> E> E> E> E> E> E> E> E> E> E> E> E> E> E> E> E> E> E> E> E> E> E> E> E> E> E> E> E> E> E> E> E> E> E> E> E> E> E> E> E> E> E> E> E> E> E> E> E> E> E> E> E> E> E> E> E> E> E> E> E> E> E> E> E> E> E> E> E> E> E> E> E> E> E> E> E> E> E> E> E> E> E> E> E> E> E> E> E> E> E> E> E> E> E> E> E> E> E> E> E> E> E> E> E> E> E> E> E> E> E> E> E> E> E> E> E> E> E>     CF CF CF CF CF CF CF CF CF CF CF CF CF CF CF CF CF CF CF CF CF CF CF CF CF CF CF CF CF CF CF CF CF CF CF CF CF CF CF CF CF CF CF CF CF CF CF CF CF CF CF CF CF CF CF CF CF CF CF CF CF CF CF CF CF CF CF CF CF CF CF CF CF CF CF CF CF CF CF CF CF CF CF CF CF CF CF CF CF CF CF CF CF CF CF CF CF CF CF CF CF CF CF CF CF CF CF CF CF CF CF CF CF CF CF CF CF CF CF CF CF CF CF CF CF CF CF CF CF CF CF CF CF CF CF CF CF CF CF CF CF CF CF CF CF CF CF CF CF CF CF CF CF CF CF 7CF 7CF 7CF 7CF 7CF 7CF 7CF 7CF 7CF 7CF 7CF 7CF 7CF 7CF 7CF 7CF 7CF 7CF 7CF 7CF 7CF 7CF 7CF 7CF 7CF 7CF 7CF 7CF 7CF 7CF 7CF 7CF 7CF 7CF 7CF 7CF 7CF 7CF 7CF 7CF 7CF 7CF 7CF 7CF 7CF 7CF 7CF 7CF 7CF 7CF 7CF 7CF 7CF 7CF 7CF 7CF 7CF 7CF 7CF 7CF 7CF 7CF 7CF 7CF 7CF 7CF 7CF 7CF 7CF 7CF 7CF 7CF 7CF 7CF CF CF CF CF 9CF 9CF 9CF 9CF 9CF 9CF 9CF 9CF 9CF 9CF 9CF 9CF 9CF 9CF 9CF 9CF 9CF 9CF 9CF 9CF 9CF 9CF 9CF 9CF 9CF 9CF 9CF 9CF 9CF 9CF 9CF 9CF 9CF 9CF 9CF 9CF 9CF 9CF 9CF 9CF 9CF 9CF 9CF 9CF 9CF 9CF 9CF 9CF 9CF 9CF 9CF 9CF 9CF 9CF 9CF 9CF 9CF 9CF 9CF 9CF 9CF 9CF 9CF 9CF 9CF 9CF 9CF 9CF 9CF 9CF 9CF 9CF 9CF 9CF     :CJ :CJ :CJ :CJ :CJ :CJ :CJ :CJ :CJ :CJ :CJ :CJ :CJ :CJ :CJ :CJ :CJ :CJ :CJ :CJ :CJ :CJ :CJ :CJ :CJ :CJ :CJ :CJ :CJ :CJ :CJ :CJ :CJ :CJ :CJ :CJ :CJ :CJ :CJ :CJ :CJ :CJ :CJ :CJ :CJ :CJ :CJ :CJ :CJ :CJ :CJ :CJ :CJ :CJ :CJ :CJ :CJ :CJ :CJ :CJ :CJ :CJ :CJ :CJ :CJ :CJ :CJ :CJ :CJ :CJ :CJ :CJ :CJ :CJ :CJ :CJ :CJ :CJ :CJ :CJ :CJ :CJ :CJ :CJ :CJ :CJ :CJ :CJ :CJ :CJ :CJ :CJ :CJ :CJ :CJ :CJ :CJ :CJ :CJ :CJ :CJ :CJ :CJ :CJ :CJ :CJ :CJ :CJ :CJ :CJ :CJ :CJ :CJ :CJ :CJ :CJ :CJ :CJ :CJ :CJ :CJ :CJ :CJ :CJ :CJ :CJ :CJ :CJ :CJ :CJ :CJ :CJ :CJ :CJ :CJ :CJ :CJ :CJ :CJ :CJ :CJ :CJ :CJ :CJ :CJ :CJ :CJ :CJ :CJ :CJ :CJ :CJ CJ CJ CJ 7CJ 7CJ 7CJ 7CJ 7CJ 7CJ 7CJ 7CJ 7CJ 7CJ 7CJ 7CJ 7CJ 7CJ 7CJ 7CJ 7CJ 7CJ 7CJ 7CJ 7CJ 7CJ 7CJ 7CJ 7CJ 7CJ 7CJ 7CJ 7CJ 7CJ 7CJ 7CJ 7CJ 7CJ 7CJ 7CJ 7CJ 7CJ 7CJ 7CJ 7CJ 7CJ 7CJ 7CJ 7CJ 7CJ 7CJ 7CJ 7CJ 7CJ 7CJ 7CJ 7CJ 7CJ 7CJ 7CJ 7CJ 7CJ 7CJ 7CJ 7CJ 7CJ 7CJ 7CJ 7CJ 7CJ 7CJ 7CJ 7CJ 7CJ 7CJ 7CJ 7CJ 7CJ 7CJ 7CJ 7CJ 7CJ 7CJ 7CJ 7CJ 7CJ 7CJ 7CJ 7CJ 7CJ 7CJ 7CJ 7CJ 7CJ 7CJ 7CJ 7CJ 7CJ 7CJ 7CJ 7CJ 7CJ 7CJ 7CJ 7CJ 7CJ 7CJ 7CJ 7CJ 7CJ 7CJ 7CJ 7CJ 7CJ 7CJ 7CJ 7CJ 7CJ 7CJ 7CJ 7CJ 7CJ 7CJ 7CJ 7CJ 7CJ 7CJ 7CJ 7CJ 7CJ 7CJ 7CJ 7CJ 7CJ 7CJ 7CJ 7CJ 7CJ 7CJ 7CJ 7CJ 7CJ 7CJ 7CJ 7CJ 7CJ 7CJ 7CJ 7CJ 7CJ 7CJ 7CJ 7CJ 7CJ 7CJ 7CJ     6EJI 6EJI 6EJI 6EJI 6EJI 6EJI 6EJI 6EJI 6EJI 6EJI 6EJI 6EJI 6EJI 6EJI 6EJI 6EJI 6EJI 6EJI 6EJI 6EJI 6EJI 6EJI 6EJI 6EJI 6EJI 6EJI 6EJI 6EJI 6EJI 6EJI 6EJI 6EJI 6EJI 6EJI 6EJI 6EJI 6EJI 6EJI 6EJI 6EJI 6EJI 6EJI 6EJI 6EJI 6EJI 6EJI 6EJI 6EJI 6EJI 6EJI 6EJI 6EJI 6EJI 6EJI 6EJI 6EJI 6EJI 6EJI 6EJI 6EJI 6EJI 6EJI 6EJI 6EJI 6EJI 6EJI 6EJI 6EJI 6EJI 6EJI 6EJI 6EJI 6EJI 6EJI 6EJI 6EJI 6EJI 6EJI 6EJI 6EJI 6EJI 6EJI 6EJI 6EJI 6EJI 6EJI 6EJI 6EJI 6EJI 6EJI 6EJI 6EJI 6EJI 6EJI 6EJI 6EJI 6EJI 6EJI 6EJI 6EJI 6EJI 6EJI 6EJI 6EJI 6EJI 6EJI 6EJI 6EJI 6EJI 6EJI 6EJI 6EJI 6EJI 6EJI 6EJI 6EJI 6EJI 6EJI 6EJI 6EJI 6EJI 6EJI 6EJI 6EJI 6EJI 6EJI 6EJI 6EJI 6EJI 6EJI 6EJI 6EJI 6EJI 6EJI 6EJI 6EJI 6EJI 6EJI 6EJI 6EJI 6EJI 6EJI 6EJI 6EJI 6EJI 6EJI 6EJI 6EJI 6EJI 6EJI 6EJI 6EJI EJI EJI EJI 7EJI 7EJI 7EJI 7EJI 7EJI 7EJI 7EJI 7EJI 7EJI 7EJI 7EJI 7EJI 7EJI 7EJI 7EJI 7EJI 7EJI 7EJI 7EJI 7EJI 7EJI 7EJI 7EJI 7EJI 7EJI 7EJI 7EJI 7EJI 7EJI 7EJI 7EJI 7EJI 7EJI 7EJI 7EJI 7EJI 7EJI 7EJI 7EJI 7EJI 7EJI 7EJI 7EJI 7EJI 7EJI 7EJI 7EJI 7EJI 7EJI 7EJI 7EJI 7EJI 7EJI 7EJI 7EJI 7EJI 7EJI 7EJI 7EJI 7EJI 7EJI 7EJI 7EJI 7EJI 7EJI 7EJI 7EJI 7EJI 7EJI 7EJI 7EJI 7EJI 7EJI 7EJI 7EJI 7EJI 7EJI 7EJI 7EJI 7EJI 7EJI 7EJI 7EJI 7EJI 7EJI 7EJI 7EJI 7EJI 7EJI 7EJI 7EJI 7EJI 7EJI 7EJI 7EJI 7EJI 7EJI 7EJI 7EJI 7EJI 7EJI 7EJI 7EJI 7EJI 7EJI 7EJI 7EJI 7EJI 7EJI 7EJI 7EJI 7EJI 7EJI 7EJI 7EJI 7EJI 7EJI 7EJI 7EJI 7EJI 7EJI 7EJI 7EJI 7EJI 7EJI 7EJI 7EJI 7EJI 7EJI 7EJI 7EJI 7EJI 7EJI 7EJI 7EJI 7EJI 7EJI 7EJI 7EJI 7EJI 7EJI 7EJI 7EJI 7EJI 7EJI 7EJI 7EJI 7EJI 7EJI 7EJI 7EJI 7EJI     2FE 2FE 2FE 2FE 2FE 2FE 2FE 2FE 2FE 2FE 2FE 2FE 2FE 2FE 2FE 2FE 2FE 2FE 2FE 2FE 2FE 2FE 2FE 2FE 2FE 2FE 2FE 2FE 2FE 2FE 2FE 2FE 2FE 2FE 2FE 2FE 2FE 2FE 2FE 2FE 2FE 2FE 2FE 2FE 2FE 2FE 2FE 2FE 2FE 2FE 2FE 2FE 2FE 2FE 2FE 2FE 2FE 2FE 2FE 2FE 2FE 2FE 2FE 2FE 2FE 2FE 2FE 2FE 2FE 2FE 2FE 2FE 2FE 2FE 2FE 2FE 2FE 2FE 2FE 2FE 2FE 2FE 2FE 2FE 2FE 2FE 2FE 2FE 2FE 2FE 2FE 2FE 2FE 2FE 2FE 2FE 2FE 2FE 2FE 2FE 2FE 2FE 2FE 2FE 2FE 2FE 2FE 2FE 2FE 2FE 2FE 2FE 2FE 2FE 2FE 2FE 2FE 2FE 2FE 2FE 2FE 2FE 2FE 2FE 2FE 2FE 2FE 2FE 2FE 2FE 2FE 2FE 2FE 2FE 2FE 2FE 2FE 2FE 2FE 2FE 2FE 2FE 2FE 2FE 2FE 2FE 2FE 2FE 2FE 2FE 2FE 2FE FE FE FE 7FE 7FE 7FE 7FE 7FE 7FE 7FE 7FE 7FE 7FE 7FE 7FE 7FE 7FE 7FE 7FE 7FE 7FE 7FE 7FE 7FE 7FE 7FE 7FE 7FE 7FE 7FE 7FE 7FE 7FE 7FE 7FE 7FE 7FE 7FE 7FE 7FE 7FE 7FE 7FE 7FE 7FE 7FE 7FE 7FE 7FE 7FE 7FE 7FE 7FE 7FE 7FE 7FE 7FE 7FE 7FE 7FE 7FE 7FE 7FE 7FE 7FE 7FE 7FE 7FE 7FE 7FE 7FE 7FE 7FE 7FE 7FE 7FE 7FE 7FE 7FE 7FE 7FE 7FE 7FE 7FE 7FE 7FE 7FE 7FE 7FE 7FE 7FE 7FE 7FE 7FE 7FE 7FE 7FE 7FE 7FE 7FE 7FE 7FE 7FE 7FE 7FE 7FE 7FE 7FE 7FE 7FE 7FE 7FE 7FE 7FE 7FE 7FE 7FE 7FE 7FE 7FE 7FE 7FE 7FE 7FE 7FE 7FE 7FE 7FE 7FE 7FE 7FE 7FE 7FE 7FE 7FE 7FE 7FE 7FE 7FE 7FE 7FE 7FE 7FE 7FE 7FE 7FE 7FE 7FE 7FE 7FE 7FE 7FE 7FE 7FE 7FE     :CF :CF :CF :CF :CF :CF :CF :CF :CF :CF :CF :CF :CF :CF :CF :CF :CF :CF :CF :CF :CF :CF :CF :CF :CF :CF :CF :CF :CF :CF :CF :CF :CF :CF :CF :CF :CF :CF :CF :CF :CF :CF :CF :CF :CF :CF :CF :CF :CF :CF :CF :CF :CF :CF :CF :CF :CF :CF :CF :CF :CF :CF :CF :CF :CF :CF :CF :CF :CF :CF :CF :CF :CF :CF :CF :CF :CF :CF :CF :CF :CF :CF :CF :CF :CF :CF :CF :CF :CF :CF :CF :CF :CF :CF :CF :CF :CF :CF :CF :CF :CF :CF :CF :CF :CF :CF :CF :CF :CF :CF :CF :CF :CF :CF :CF :CF :CF :CF :CF :CF :CF :CF :CF :CF :CF :CF :CF :CF :CF :CF :CF :CF :CF :CF :CF :CF :CF :CF :CF :CF :CF :CF :CF :CF :CF :CF :CF :CF :CF :CF :CF :CF CF CF CF 7CF 7CF 7CF 7CF 7CF 7CF 7CF 7CF 7CF 7CF 7CF 7CF 7CF 7CF 7CF 7CF 7CF 7CF 7CF 7CF 7CF 7CF 7CF 7CF 7CF 7CF 7CF 7CF 7CF 7CF 7CF 7CF 7CF 7CF 7CF 7CF 7CF 7CF 7CF 7CF 7CF 7CF 7CF 7CF 7CF 7CF 7CF 7CF 7CF 7CF 7CF 7CF 7CF 7CF 7CF 7CF 7CF 7CF 7CF 7CF 7CF 7CF 7CF 7CF 7CF 7CF 7CF 7CF 7CF 7CF 7CF 7CF 7CF 7CF 7CF 7CF 7CF 7CF 7CF 7CF 7CF 7CF 7CF 7CF 7CF 7CF 7CF 7CF 7CF 7CF 7CF 7CF 7CF 7CF 7CF 7CF 7CF 7CF 7CF 7CF 7CF 7CF 7CF 7CF 7CF 7CF 7CF 7CF 7CF 7CF 7CF 7CF 7CF 7CF 7CF 7CF 7CF 7CF 7CF 7CF 7CF 7CF 7CF 7CF 7CF 7CF 7CF 7CF 7CF 7CF 7CF 7CF 7CF 7CF 7CF 7CF 7CF 7CF 7CF 7CF 7CF 7CF 7CF 7CF 7CF 7CF 7CF 7CF 7CF 7CF 7CF 7CF     =CF =CF =CF =CF =CF =CF =CF =CF =CF =CF =CF =CF =CF =CF =CF =CF =CF =CF =CF =CF =CF =CF =CF =CF =CF =CF =CF =CF =CF =CF =CF =CF =CF =CF =CF =CF =CF =CF =CF =CF =CF =CF =CF =CF =CF =CF =CF =CF =CF =CF =CF =CF =CF =CF =CF =CF =CF =CF =CF =CF =CF =CF =CF =CF =CF =CF =CF =CF =CF =CF =CF =CF =CF =CF =CF =CF =CF =CF =CF =CF =CF =CF =CF =CF =CF =CF =CF =CF =CF =CF =CF =CF =CF =CF =CF =CF =CF =CF =CF =CF =CF =CF =CF =CF =CF =CF =CF =CF =CF =CF =CF =CF =CF =CF =CF =CF =CF =CF =CF =CF =CF =CF =CF =CF =CF =CF =CF =CF =CF =CF =CF =CF =CF =CF =CF =CF =CF =CF =CF =CF =CF =CF =CF =CF =CF =CF =CF =CF =CF =CF =CF =CF CF CF CF 7CF 7CF 7CF 7CF 7CF 7CF 7CF 7CF 7CF 7CF 7CF 7CF 7CF 7CF 7CF 7CF 7CF 7CF 7CF 7CF 7CF 7CF 7CF 7CF 7CF 7CF 7CF 7CF 7CF 7CF 7CF 7CF 7CF 7CF 7CF 7CF 7CF 7CF 7CF 7CF 7CF 7CF 7CF 7CF 7CF 7CF 7CF 7CF 7CF 7CF 7CF 7CF 7CF 7CF 7CF 7CF 7CF 7CF 7CF 7CF 7CF 7CF 7CF 7CF 7CF 7CF 7CF 7CF 7CF 7CF 7CF 7CF 7CF 7CF 7CF 7CF 7CF 7CF 7CF 7CF 7CF 7CF 7CF 7CF 7CF 7CF 7CF 7CF 7CF 7CF 7CF 7CF 7CF 7CF 7CF 7CF 7CF 7CF 7CF 7CF 7CF 7CF 7CF 7CF 7CF 7CF 7CF 7CF 7CF 7CF 7CF 7CF 7CF 7CF 7CF 7CF 7CF 7CF 7CF 7CF 7CF 7CF 7CF 7CF 7CF 7CF 7CF 7CF 7CF 7CF 7CF 7CF 7CF 7CF 7CF 7CF 7CF 7CF 7CF 7CF 7CF 7CF 7CF 7CF 7CF 7CF 7CF 7CF 7CF 7CF 7CF 7CF     EC> EC> EC> EC> EC> EC> EC> EC> EC> EC> EC> EC> EC> EC> EC> EC> EC> EC> EC> EC> EC> EC> EC> EC> EC> EC> EC> EC> EC> EC> EC> EC> EC> EC> EC> EC> EC> EC> EC> EC> EC> EC> EC> EC> EC> EC> EC> EC> EC> EC> EC> EC> EC> EC> EC> EC> EC> EC> EC> EC> EC> EC> EC> EC> EC> EC> EC> EC> EC> EC> EC> EC> EC> EC> EC> EC> EC> EC> EC> EC> EC> EC> EC> EC> EC> EC> EC> EC> EC> EC> EC> EC> EC> EC> EC> EC> EC> EC> EC> EC> EC> EC> EC> EC> EC> EC> EC> EC> EC> EC> EC> EC> EC> EC> EC> EC> EC> EC> EC> EC> EC> EC> EC> EC> EC> EC> EC> EC> EC> EC> EC> EC> EC> EC> EC> EC> EC> EC> EC> EC> EC> EC> EC> EC> EC> EC> EC> EC> EC> EC> EC> EC> C> C> C> QC> QC> QC> QC> QC> QC> QC> QC> QC> QC> QC> QC> QC> QC> QC> QC> QC> QC> QC> QC> QC> QC> QC> QC> QC> QC> QC> QC> QC> QC> QC> QC> QC> QC> QC> QC> QC> QC> QC> QC> QC> QC> QC> QC> QC> QC> QC> QC> QC> QC> QC> QC> QC> QC> QC> QC> QC> QC> QC> QC> QC> QC> QC> QC> QC> QC> QC> QC> QC> QC> QC> QC> QC> QC> QC> QC> QC> QC> QC> QC> QC> QC> QC> QC> QC> QC> QC> QC> QC> QC> QC> QC> QC> QC> QC> QC> QC> QC> QC> QC> QC> QC> QC> QC> QC> QC> QC> QC> QC> QC> QC> QC> QC> QC> QC> QC> QC> QC> QC> QC> QC> QC> QC> QC> QC> QC> QC> QC> QC> QC> QC> QC> QC> QC> QC> QC> QC> QC> QC> QC> QC> QC> QC> QC> QC> QC> QC> QC> QC> QC> QC> QC> > > > > J>A J>A J>A J>A J>A J>A J>A J>A J>A J>A J>A J>A J>A J>A J>A J>A J>A J>A J>A J>A J>A J>A J>A J>A J>A J>A J>A J>A J>A J>A J>A J>A J>A J>A J>A J>A J>A J>A J>A J>A J>A J>A J>A J>A J>A J>A J>A J>A J>A J>A J>A J>A J>A J>A J>A J>A J>A J>A J>A J>A J>A J>A J>A J>A J>A J>A J>A J>A J>A J>A J>A J>A J>A J>A J>A J>A J>A J>A J>A J>A J>A J>A J>A J>A J>A J>A J>A J>A J>A J>A J>A J>A J>A J>A J>A J>A J>A J>A J>A J>A J>A J>A J>A J>A J>A J>A J>A J>A J>A J>A J>A J>A J>A J>A J>A J>A J>A J>A J>A J>A J>A J>A J>A J>A J>A J>A J>A J>A J>A J>A J>A J>A J>A J>A J>A J>A J>A J>A J>A J>A J>A J>A J>A J>A J>A J>A J>A J>A J>A J>A J>A J>A >A >A >A >QA >QA >QA >QA >QA >QA >QA >QA >QA >QA >QA >QA >QA >QA >QA >QA >QA >QA >QA >QA >QA >QA >QA >QA >QA >QA >QA >QA >QA >QA >QA >QA >QA >QA >QA >QA >QA >QA >QA >QA >QA >QA >QA >QA >QA >QA >QA >QA >QA >QA >QA >QA >QA >QA >QA >QA >QA >QA >QA >QA >QA >QA >QA >QA >QA >QA >QA >QA >QA >QA >QA >QA >QA >QA >QA >QA >QA >QA >QA >QA >QA >QA >QA >QA >QA >QA >QA >QA >QA >QA >QA >QA >QA >QA >QA >QA >QA >QA >QA >QA >QA >QA >QA >QA >QA >QA >QA >QA >QA >QA >QA >QA >QA >QA >QA >QA >QA >QA >QA >QA >QA >QA >QA >QA >QA >QA >QA >QA >QA >QA >QA >QA >QA >QA >QA >QA >QA >QA >QA >QA >QA >QA >QA >QA >QA >QA >QA >QA >QA QA QA QA     I@ I@ I@ I@ I@ I@ I@ I@ I@ I@ I@ I@ I@ I@ I@ I@ I@ I@ I@ I@ I@ I@ I@ I@ I@ I@ I@ I@ I@ I@ I@ I@ I@ I@ I@ I@ I@ I@ I@ I@ I@ I@ I@ I@ I@ I@ I@ I@ I@ I@ I@ I@ I@ I@ I@ I@ I@ I@ I@ I@ I@ I@ I@ I@ I@ I@ I@ I@ I@ I@ I@ I@ I@ I@ I@ I@ I@ I@ I@ I@ I@ I@ I@ I@ I@ I@ I@ I@ I@ I@ I@ I@ I@ I@ I@ I@ I@ I@ I@ I@ I@ I@ I@ I@ I@ I@ I@ I@ I@ I@ I@ I@ I@ I@ I@ I@ I@ I@ I@ I@ I@ I@ I@ I@ I@ I@ I@ I@ I@ I@ I@ I@ I@ I@ I@ I@ I@ I@ I@ I@ I@ I@ I@ I@ I@ I@ I@ I@ I@ I@ I@ I@ @ @ @ O@ O@ O@ O@ O@ O@ O@ O@ O@ O@ O@ O@ O@ O@ O@ O@ O@ O@ O@ O@ O@ O@ O@ O@ O@ O@ O@ O@ O@ O@ O@ O@ O@ O@ O@ O@ O@ O@ O@ O@ O@ O@ O@ O@ O@ O@ O@ O@ O@ O@ O@ O@ O@ O@ O@ O@ O@ O@ O@ O@ O@ O@ O@ O@ O@ O@ O@ O@ O@ O@ O@ O@ O@ O@ O@ O@ O@ O@ O@ O@ O@ O@ O@ O@ O@ O@ O@ O@ O@ O@ O@ O@ O@ O@ O@ O@ O@ O@ O@ O@ O@ O@ O@ O@ O@ O@ O@ O@ O@ O@ O@ O@ O@ O@ O@ O@ O@ O@ O@ O@ O@ O@ O@ O@ O@ O@ O@ O@ O@ O@ O@ O@ O@ O@ O@ O@ O@ O@ O@ O@ O@ O@ O@ O@ O@ O@ O@ O@ O@ O@ O@ O@     M2> M2> M2> M2> M2> M2> M2> M2> M2> M2> M2> M2> M2> M2> M2> M2> M2> M2> M2> M2> M2> M2> M2> M2> M2> M2> M2> M2> M2> M2> M2> M2> M2> M2> M2> M2> M2> M2> M2> M2> M2> M2> M2> M2> M2> M2> M2> M2> M2> M2> M2> M2> M2> M2> M2> M2> M2> M2> M2> M2> M2> M2> M2> M2> M2> M2> M2> M2> M2> M2> M2> M2> M2> M2> M2> M2> M2> M2> M2> M2> M2> M2> M2> M2> M2> M2> M2> M2> M2> M2> M2> M2> M2> M2> M2> M2> M2> M2> M2> M2> M2> M2> M2> M2> M2> M2> M2> M2> M2> M2> M2> M2> M2> M2> M2> M2> M2> M2> M2> M2> M2> M2> M2> M2> M2> M2> M2> M2> M2> M2> M2> M2> M2> M2> M2> M2> M2> M2> M2> M2> M2> M2> M2> M2> M2> M2> M2> M2> M2> M2> M2> M2> 2> 2> 2> Q2> Q2> Q2> Q2> Q2> Q2> Q2> Q2> Q2> Q2> Q2> Q2> Q2> Q2> Q2> Q2> Q2> Q2> Q2> Q2> Q2> Q2> Q2> Q2> Q2> Q2> Q2> Q2> Q2> Q2> Q2> Q2> Q2> Q2> Q2> Q2> Q2> Q2> Q2> Q2> Q2> Q2> Q2> Q2> Q2> Q2> Q2> Q2> Q2> Q2> Q2> Q2> Q2> Q2> Q2> Q2> Q2> Q2> Q2> Q2> Q2> Q2> Q2> Q2> Q2> Q2> Q2> Q2> Q2> Q2> Q2> Q2> Q2> Q2> Q2> Q2> Q2> Q2> Q2> Q2> Q2> Q2> Q2> Q2> Q2> Q2> Q2> Q2> Q2> Q2> Q2> Q2> Q2> Q2> Q2> Q2> Q2> Q2> Q2> Q2> Q2> Q2> Q2> Q2> Q2> Q2> Q2> Q2> Q2> Q2> Q2> Q2> Q2> Q2> Q2> Q2> Q2> Q2> Q2> Q2> Q2> Q2> Q2> Q2> Q2> Q2> Q2> Q2> Q2> Q2> Q2> Q2> Q2> Q2> Q2> Q2> Q2> Q2> Q2> Q2> Q2> Q2> Q2> Q2> Q2> Q2> Q2> Q2> Q2> Q2> Q2> Q2>     JA JA JA JA JA JA JA JA JA JA JA JA JA JA JA JA JA JA JA JA JA JA JA JA JA JA JA JA JA JA JA JA JA JA JA JA JA JA JA JA JA JA JA JA JA JA JA JA JA JA JA JA JA JA JA JA JA JA JA JA JA JA JA JA JA JA JA JA JA JA JA JA JA JA JA JA JA JA JA JA JA JA JA JA JA JA JA JA JA JA JA JA JA JA JA JA JA JA JA JA JA JA JA JA JA JA JA JA JA JA JA JA JA JA JA JA JA JA JA JA JA JA JA JA JA JA JA JA JA JA JA JA JA JA JA JA JA JA JA JA JA JA JA JA JA JA JA JA JA JA JA JA A A A QA QA QA QA QA QA QA QA QA QA QA QA QA QA QA QA QA QA QA QA QA QA QA QA QA QA QA QA QA QA QA QA QA QA QA QA QA QA QA QA QA QA QA QA QA QA QA QA QA QA QA QA QA QA QA QA QA QA QA QA QA QA QA QA QA QA QA QA QA QA QA QA QA QA QA QA QA QA QA QA QA QA QA QA QA QA QA QA QA QA QA QA QA QA QA QA QA QA QA QA QA QA QA QA QA QA QA QA QA QA QA QA QA QA QA QA QA QA QA QA QA QA QA QA QA QA QA QA QA QA QA QA QA QA QA QA QA QA QA QA QA QA QA QA QA QA QA QA QA QA QA QA     I@ I@ I@ I@ I@ I@ I@ I@ I@ I@ I@ I@ I@ I@ I@ I@ I@ I@ I@ I@ I@ I@ I@ I@ I@ I@ I@ I@ I@ I@ I@ I@ I@ I@ I@ I@ I@ I@ I@ I@ I@ I@ I@ I@ I@ I@ I@ I@ I@ I@ I@ I@ I@ I@ I@ I@ I@ I@ I@ I@ I@ I@ I@ I@ I@ I@ I@ I@ I@ I@ I@ I@ I@ I@ I@ I@ I@ I@ I@ I@ I@ I@ I@ I@ I@ I@ I@ I@ I@ I@ I@ I@ I@ I@ I@ I@ I@ I@ I@ I@ I@ I@ I@ I@ I@ I@ I@ I@ I@ I@ I@ I@ I@ I@ I@ I@ I@ I@ I@ I@ I@ I@ I@ I@ I@ I@ I@ I@ I@ I@ I@ I@ I@ I@ I@ I@ I@ I@ I@ I@ I@ I@ I@ I@ I@ I@ I@ I@ I@ I@ I@ I@ @ @ @ @ @O @O @O @O @O @O @O @O @O @O @O @O @O @O @O @O @O @O @O @O @O @O @O @O @O @O @O @O @O @O @O @O @O @O @O @O @O @O @O @O @O @O @O @O @O @O @O @O @O @O @O @O @O @O @O @O @O @O @O @O @O @O @O @O @O @O @O @O @O @O @O @O @O @O @O @O @O @O @O @O @O @O @O @O @O @O @O @O @O @O @O @O @O @O @O @O @O @O @O @O @O @O @O @O @O @O @O @O @O @O @O @O @O @O @O @O @O @O @O @O @O @O @O @O @O @O @O @O @O @O @O @O @O @O @O @O @O @O @O @O @O @O @O @O @O @O @O @O @O @O @O O    M> M> M> M> M> M> M> M> M> M> M> M> M> M> M> M> M> M> M> M> M> M> M> M> M> M> M> M> M> M> M> M> M> M> M> M> M> M> M> M> M> M> M> M> M> M> M> M> M> M> M> M> M> M> M> M> M> M> M> M> M> M> M> M> M> M> M> M> M> M> M> M> M> M> M> M> M> M> M> M> M> M> M> M> M> M> M> M> M> M> M> M> M> M> M> M> M> M> M> M> M> M> M> M> M> M> M> M> M> M> M> M> M> M> M> M> M> M> M> M> M> M> M> M> M> M> M> M> M> M> M> M> M> M> M> M> M> M> M> M> M> M> M> M> M> M> M> M> M> M> M> M> > > > > J> J> J> J> J> J> J> J> J> J> J> J> J> J> J> J> J> J> J> J> J> J> J> J> J> J> J> J> J> J> J> J> J> J> J> J> J> J> J> J> J> J> J> J> J> J> J> J> J> J> J> J> J> J> J> J> J> J> J> J> J> J> J> J> J> J> J> J> J> J> J> J> J> J> J> J> J> J> J> J> J> J> J> J> J> J> J> J> J> J> J> J> J> J> J> J> J> J> J> J> J> J> J> J> J> J> J> J> J> J> J> J> J> J> J> J> J> J> J> J> J> J> J> J> J> J> J> J> J> J> J> J> J> J> J> J> J> J> J> J> J> J> J> J> J> J> J> J> J> J> J> J> > > > G7> G7> G7> G7> G7> G7> G7> G7> G7> G7> G7> G7> G7> G7> G7> G7> G7> G7> G7> G7> G7> G7> G7> G7> G7> G7> G7> G7> G7> G7> G7> G7> G7> G7> G7> G7> G7> G7> G7> G7> G7> G7> G7> G7> G7> G7> G7> G7> G7> G7> G7> G7> G7> G7> G7> G7> G7> G7> G7> G7> G7> G7> G7> G7> G7> G7> G7> G7> G7> G7> G7> G7> G7> G7> G7> G7> G7> G7> G7> G7> G7> G7> G7> G7> G7> G7> G7> G7> G7> G7> G7> G7> G7> G7> G7> G7> G7> G7> G7> G7> G7> G7> G7> G7> G7> G7> G7> G7> G7> G7> G7> G7> G7> G7> G7> G7> G7> G7> G7> G7> G7> G7> G7> G7> G7> G7> G7> G7> G7> G7> G7> G7> G7> G7> G7> G7> G7> G7> G7> G7> G7> G7> G7> G7> G7> G7> G7> G7> G7> G7> G7> G7> 7> 7> 7> 7> 7M> 7M> 7M> 7M> 7M> 7M> 7M> 7M> 7M> 7M> 7M> 7M> 7M> 7M> 7M> 7M> 7M> 7M> 7M> 7M> 7M> 7M> 7M> 7M> 7M> 7M> 7M> 7M> 7M> 7M> 7M> 7M> 7M> 7M> 7M> 7M> 7M> 7M> 7M> 7M> 7M> 7M> 7M> 7M> 7M> 7M> 7M> 7M> 7M> 7M> 7M> 7M> 7M> 7M> 7M> 7M> 7M> 7M> 7M> 7M> 7M> 7M> 7M> 7M> 7M> 7M> 7M> 7M> 7M> 7M> 7M> 7M> 7M> 7M> 7M> 7M> 7M> 7M> 7M> 7M> 7M> 7M> 7M> 7M> 7M> 7M> 7M> 7M> 7M> 7M> 7M> 7M> 7M> 7M> 7M> 7M> 7M> 7M> 7M> 7M> 7M> 7M> 7M> 7M> 7M> 7M> 7M> 7M> 7M> 7M> 7M> 7M> 7M> 7M> 7M> 7M> 7M> 7M> 7M> 7M> 7M> 7M> 7M> 7M> 7M> 7M> 7M> 7M> 7M> 7M> 7M> 7M> 7M> 7M> 7M> 7M> 7M> 7M> 7M> 7M> 7M> 7M> 7M> 7M> 7M> 7M> 7M> 7M> 7M> 7M> 7M> M> > > > E9> E9> E9> E9> E9> E9> E9> E9> E9> E9> E9> E9> E9> E9> E9> E9> E9> E9> E9> E9> E9> E9> E9> E9> E9> E9> E9> E9> E9> E9> E9> E9> E9> E9> E9> E9> E9> E9> E9> E9> E9> E9> E9> E9> E9> E9> E9> E9> E9> E9> E9> E9> E9> E9> E9> E9> E9> E9> E9> E9> E9> E9> E9> E9> E9> E9> E9> E9> E9> E9> E9> E9> E9> E9> E9> E9> E9> E9> E9> E9> E9> E9> E9> E9> E9> E9> E9> E9> E9> E9> E9> E9> E9> E9> E9> E9> E9> E9> E9> E9> E9> E9> E9> E9> E9> E9> E9> E9> E9> E9> E9> E9> E9> E9> E9> E9> E9> E9> E9> E9> E9> E9> E9> E9> E9> E9> E9> E9> E9> E9> E9> E9> E9> E9> E9> E9> E9> E9> E9> E9> E9> E9> E9> E9> E9> E9> E9> E9> E9> E9> E9> E9> 9> 9> 9> 9> 9M> 9M> 9M> 9M> 9M> 9M> 9M> 9M> 9M> 9M> 9M> 9M> 9M> 9M> 9M> 9M> 9M> 9M> 9M> 9M> 9M> 9M> 9M> 9M> 9M> 9M> 9M> 9M> 9M> 9M> 9M> 9M> 9M> 9M> 9M> 9M> 9M> 9M> 9M> 9M> 9M> 9M> 9M> 9M> 9M> 9M> 9M> 9M> 9M> 9M> 9M> 9M> 9M> 9M> 9M> 9M> 9M> 9M> 9M> 9M> 9M> 9M> 9M> 9M> 9M> 9M> 9M> 9M> 9M> 9M> 9M> 9M> 9M> 9M> 9M> 9M> 9M> 9M> 9M> 9M> 9M> 9M> 9M> 9M> 9M> 9M> 9M> 9M> 9M> 9M> 9M> 9M> 9M> 9M> 9M> 9M> 9M> 9M> 9M> 9M> 9M> 9M> 9M> 9M> 9M> 9M> 9M> 9M> 9M> 9M> 9M> 9M> 9M> 9M> 9M> 9M> 9M> 9M> 9M> 9M> 9M> 9M> 9M> 9M> 9M> 9M> 9M> 9M> 9M> 9M> 9M> 9M> 9M> 9M> 9M> 9M> 9M> 9M> 9M> 9M> 9M> 9M> 9M> 9M> 9M> 9M> 9M> 9M> 9M> 9M> 9M> M> > > > C;> C;> C;> C;> C;> C;> C;> C;> C;> C;> C;> C;> C;> C;> C;> C;> C;> C;> C;> C;> C;> C;> C;> C;> C;> C;> C;> C;> C;> C;> C;> C;> C;> C;> C;> C;> C;> C;> C;> C;> C;> C;> C;> C;> C;> C;> C;> C;> C;> C;> C;> C;> C;> C;> C;> C;> C;> C;> C;> C;> C;> C;> C;> C;> C;> C;> C;> C;> C;> C;> C;> C;> C;> C;> C;> C;> C;> C;> C;> C;> C;> C;> C;> C;> C;> C;> C;> C;> C;> C;> C;> C;> C;> C;> C;> C;> C;> C;> C;> C;> C;> C;> C;> C;> C;> C;> C;> C;> C;> C;> C;> C;> C;> C;> C;> C;> C;> C;> C;> C;> C;> C;> C;> C;> C;> C;> C;> C;> C;> C;> C;> C;> C;> C;> C;> C;> C;> C;> C;> C;> C;> C;> C;> C;> C;> C;> C;> C;> C;> C;> C;> C;> ;> ;> ;> ;> ;M> ;M> ;M> ;M> ;M> ;M> ;M> ;M> ;M> ;M> ;M> ;M> ;M> ;M> ;M> ;M> ;M> ;M> ;M> ;M> ;M> ;M> ;M> ;M> ;M> ;M> ;M> ;M> ;M> ;M> ;M> ;M> ;M> ;M> ;M> ;M> ;M> ;M> ;M> ;M> ;M> ;M> ;M> ;M> ;M> ;M> ;M> ;M> ;M> ;M> ;M> ;M> ;M> ;M> ;M> ;M> ;M> ;M> ;M> ;M> ;M> ;M> ;M> ;M> ;M> ;M> ;M> ;M> ;M> ;M> ;M> ;M> ;M> ;M> ;M> ;M> ;M> ;M> ;M> ;M> ;M> ;M> ;M> ;M> ;M> ;M> ;M> ;M> ;M> ;M> ;M> ;M> ;M> ;M> ;M> ;M> ;M> ;M> ;M> ;M> ;M> ;M> ;M> ;M> ;M> ;M> ;M> ;M> ;M> ;M> ;M> ;M> ;M> ;M> ;M> ;M> ;M> ;M> ;M> ;M> ;M> ;M> ;M> ;M> ;M> ;M> ;M> ;M> ;M> ;M> ;M> ;M> ;M> ;M> ;M> ;M> ;M> ;M> ;M> ;M> ;M> ;M> ;M> ;M> ;M> ;M> ;M> ;M> ;M> ;M> ;M> M> > > > E9> E9> E9> E9> E9> E9> E9> E9> E9> E9> E9> E9> E9> E9> E9> E9> E9> E9> E9> E9> E9> E9> E9> E9> E9> E9> E9> E9> E9> E9> E9> E9> E9> E9> E9> E9> E9> E9> E9> E9> E9> E9> E9> E9> E9> E9> E9> E9> E9> E9> E9> E9> E9> E9> E9> E9> E9> E9> E9> E9> E9> E9> E9> E9> E9> E9> E9> E9> E9> E9> E9> E9> E9> E9> E9> E9> E9> E9> E9> E9> E9> E9> E9> E9> E9> E9> E9> E9> E9> E9> E9> E9> E9> E9> E9> E9> E9> E9> E9> E9> E9> E9> E9> E9> E9> E9> E9> E9> E9> E9> E9> E9> E9> E9> E9> E9> E9> E9> E9> E9> E9> E9> E9> E9> E9> E9> E9> E9> E9> E9> E9> E9> E9> E9> E9> E9> E9> E9> E9> E9> E9> E9> E9> E9> E9> E9> E9> E9> E9> E9> E9> E9> 9> 9> 9> 9> 9M> 9M> 9M> 9M> 9M> 9M> 9M> 9M> 9M> 9M> 9M> 9M> 9M> 9M> 9M> 9M> 9M> 9M> 9M> 9M> 9M> 9M> 9M> 9M> 9M> 9M> 9M> 9M> 9M> 9M> 9M> 9M> 9M> 9M> 9M> 9M> 9M> 9M> 9M> 9M> 9M> 9M> 9M> 9M> 9M> 9M> 9M> 9M> 9M> 9M> 9M> 9M> 9M> 9M> 9M> 9M> 9M> 9M> 9M> 9M> 9M> 9M> 9M> 9M> 9M> 9M> 9M> 9M> 9M> 9M> 9M> 9M> 9M> 9M> 9M> 9M> 9M> 9M> 9M> 9M> 9M> 9M> 9M> 9M> 9M> 9M> 9M> 9M> 9M> 9M> 9M> 9M> 9M> 9M> 9M> 9M> 9M> 9M> 9M> 9M> 9M> 9M> 9M> 9M> 9M> 9M> 9M> 9M> 9M> 9M> 9M> 9M> 9M> 9M> 9M> 9M> 9M> 9M> 9M> 9M> 9M> 9M> 9M> 9M> 9M> 9M> 9M> 9M> 9M> 9M> 9M> 9M> 9M> 9M> 9M> 9M> 9M> 9M> 9M> 9M> 9M> 9M> 9M> 9M> 9M> 9M> 9M> 9M> 9M> 9M> 9M> M> > > > G7> G7> G7> G7> G7> G7> G7> G7> G7> G7> G7> G7> G7> G7> G7> G7> G7> G7> G7> G7> G7> G7> G7> G7> G7> G7> G7> G7> G7> G7> G7> G7> G7> G7> G7> G7> G7> G7> G7> G7> G7> G7> G7> G7> G7> G7> G7> G7> G7> G7> G7> G7> G7> G7> G7> G7> G7> G7> G7> G7> G7> G7> G7> G7> G7> G7> G7> G7> G7> G7> G7> G7> G7> G7> G7> G7> G7> G7> G7> G7> G7> G7> G7> G7> G7> G7> G7> G7> G7> G7> G7> G7> G7> G7> G7> G7> G7> G7> G7> G7> G7> G7> G7> G7> G7> G7> G7> G7> G7> G7> G7> G7> G7> G7> G7> G7> G7> G7> G7> G7> G7> G7> G7> G7> G7> G7> G7> G7> G7> G7> G7> G7> G7> G7> G7> G7> G7> G7> G7> G7> G7> G7> G7> G7> G7> G7> G7> G7> G7> G7> G7> G7> 7> 7> 7> 7> 7M> 7M> 7M> 7M> 7M> 7M> 7M> 7M> 7M> 7M> 7M> 7M> 7M> 7M> 7M> 7M> 7M> 7M> 7M> 7M> 7M> 7M> 7M> 7M> 7M> 7M> 7M> 7M> 7M> 7M> 7M> 7M> 7M> 7M> 7M> 7M> 7M> 7M> 7M> 7M> 7M> 7M> 7M> 7M> 7M> 7M> 7M> 7M> 7M> 7M> 7M> 7M> 7M> 7M> 7M> 7M> 7M> 7M> 7M> 7M> 7M> 7M> 7M> 7M> 7M> 7M> 7M> 7M> 7M> 7M> 7M> 7M> 7M> 7M> 7M> 7M> 7M> 7M> 7M> 7M> 7M> 7M> 7M> 7M> 7M> 7M> 7M> 7M> 7M> 7M> 7M> 7M> 7M> 7M> 7M> 7M> 7M> 7M> 7M> 7M> 7M> 7M> 7M> 7M> 7M> 7M> 7M> 7M> 7M> 7M> 7M> 7M> 7M> 7M> 7M> 7M> 7M> 7M> 7M> 7M> 7M> 7M> 7M> 7M> 7M> 7M> 7M> 7M> 7M> 7M> 7M> 7M> 7M> 7M> 7M> 7M> 7M> 7M> 7M> 7M> 7M> 7M> 7M> 7M> 7M> 7M> 7M> 7M> 7M> 7M> 7M> M>    K< K< K< K< K< K< K< K< K< K< K< K< K< K< K< K< K< K< K< K< K< K< K< K< K< K< K< K< K< K< K< K< K< K< K< K< K< K< K< K< K< K< K< K< K< K< K< K< K< K< K< K< K< K< K< K< K< K< K< K< K< K< K< K< K< K< K< K< K< K< K< K< K< K< K< K< K< K< K< K< K< K< K< K< K< K< K< K< K< K< K< K< K< K< K< K< K< K< K< K< K< K< K< K< K< K< K< K< K< K< K< K< K< K< K< K< K< K< K< K< K< K< K< K< K< K< K< K< K< K< K< K< K< K< K< K< K< K< K< K< K< K< K< K< K< K< K< K< K< K< K< K< < < < < O< O< O< O< O< O< O< O< O< O< O< O< O< O< O< O< O< O< O< O< O< O< O< O< O< O< O< O< O< O< O< O< O< O< O< O< O< O< O< O< O< O< O< O< O< O< O< O< O< O< O< O< O< O< O< O< O< O< O< O< O< O< O< O< O< O< O< O< O< O< O< O< O< O< O< O< O< O< O< O< O< O< O< O< O< O< O< O< O< O< O< O< O< O< O< O< O< O< O< O< O< O< O< O< O< O< O< O< O< O< O< O< O< O< O< O< O< O< O< O< O< O< O< O< O< O< O< O< O< O< O< O< O< O< O< O< O< O< O< O< O< O< O< O< O< O< O< O< O< O< O< O< < < < H<? H<? H<? H<? H<? H<? H<? H<? H<? H<? H<? H<? H<? H<? H<? H<? H<? H<? H<? H<? H<? H<? H<? H<? H<? H<? H<? H<? H<? H<? H<? H<? H<? H<? H<? H<? H<? H<? H<? H<? H<? H<? H<? H<? H<? H<? H<? H<? H<? H<? H<? H<? H<? H<? H<? H<? H<? H<? H<? H<? H<? H<? H<? H<? H<? H<? H<? H<? H<? H<? H<? H<? H<? H<? H<? H<? H<? H<? H<? H<? H<? H<? H<? H<? H<? H<? H<? H<? H<? H<? H<? H<? H<? H<? H<? H<? H<? H<? H<? H<? H<? H<? H<? H<? H<? H<? H<? H<? H<? H<? H<? H<? H<? H<? H<? H<? H<? H<? H<? H<? H<? H<? H<? H<? H<? H<? H<? H<? H<? H<? H<? H<? H<? H<? H<? H<? H<? H<? H<? H<? H<? H<? H<? H<? H<? H<? H<? H<? H<? H<? H<? H<? <? <? <? <? <?O <?O <?O <?O <?O <?O <?O <?O <?O <?O <?O <?O <?O <?O <?O <?O <?O <?O <?O <?O <?O <?O <?O <?O <?O <?O <?O <?O <?O <?O <?O <?O <?O <?O <?O <?O <?O <?O <?O <?O <?O <?O <?O <?O <?O <?O <?O <?O <?O <?O <?O <?O <?O <?O <?O <?O <?O <?O <?O <?O <?O <?O <?O <?O <?O <?O <?O <?O <?O <?O <?O <?O <?O <?O <?O <?O <?O <?O <?O <?O <?O <?O <?O <?O <?O <?O <?O <?O <?O <?O <?O <?O <?O <?O <?O <?O <?O <?O <?O <?O <?O <?O <?O <?O <?O <?O <?O <?O <?O <?O <?O <?O <?O <?O <?O <?O <?O <?O <?O <?O <?O <?O <?O <?O <?O <?O <?O <?O <?O <?O <?O <?O <?O <?O <?O <?O <?O <?O <?O <?O <?O <?O <?O <?O <?O <?O <?O <?O ?O ?O ?O O    G> G> G> G> G> G> G> G> G> G> G> G> G> G> G> G> G> G> G> G> G> G> G> G> G> G> G> G> G> G> G> G> G> G> G> G> G> G> G> G> G> G> G> G> G> G> G> G> G> G> G> G> G> G> G> G> G> G> G> G> G> G> G> G> G> G> G> G> G> G> G> G> G> G> G> G> G> G> G> G> G> G> G> G> G> G> G> G> G> G> G> G> G> G> G> G> G> G> G> G> G> G> G> G> G> G> G> G> G> G> G> G> G> G> G> G> G> G> G> G> G> G> G> G> G> G> G> G> G> G> G> G> G> G> G> G> G> G> G> G> G> G> G> G> G> G> G> G> G> G> G> G> > > > > >M >M >M >M >M >M >M >M >M >M >M >M >M >M >M >M >M >M >M >M >M >M >M >M >M >M >M >M >M >M >M >M >M >M >M >M >M >M >M >M >M >M >M >M >M >M >M >M >M >M >M >M >M >M >M >M >M >M >M >M >M >M >M >M >M >M >M >M >M >M >M >M >M >M >M >M >M >M >M >M >M >M >M >M >M >M >M >M >M >M >M >M >M >M >M >M >M >M >M >M >M >M >M >M >M >M >M >M >M >M >M >M >M >M >M >M >M >M >M >M >M >M >M >M >M >M >M >M >M >M >M >M >M >M >M >M >M >M >M >M >M >M >M >M >M >M >M >M >M >M >M M    K<0 K<0 K<0 K<0 K<0 K<0 K<0 K<0 K<0 K<0 K<0 K<0 K<0 K<0 K<0 K<0 K<0 K<0 K<0 K<0 K<0 K<0 K<0 K<0 K<0 K<0 K<0 K<0 K<0 K<0 K<0 K<0 K<0 K<0 K<0 K<0 K<0 K<0 K<0 K<0 K<0 K<0 K<0 K<0 K<0 K<0 K<0 K<0 K<0 K<0 K<0 K<0 K<0 K<0 K<0 K<0 K<0 K<0 K<0 K<0 K<0 K<0 K<0 K<0 K<0 K<0 K<0 K<0 K<0 K<0 K<0 K<0 K<0 K<0 K<0 K<0 K<0 K<0 K<0 K<0 K<0 K<0 K<0 K<0 K<0 K<0 K<0 K<0 K<0 K<0 K<0 K<0 K<0 K<0 K<0 K<0 K<0 K<0 K<0 K<0 K<0 K<0 K<0 K<0 K<0 K<0 K<0 K<0 K<0 K<0 K<0 K<0 K<0 K<0 K<0 K<0 K<0 K<0 K<0 K<0 K<0 K<0 K<0 K<0 K<0 K<0 K<0 K<0 K<0 K<0 K<0 K<0 K<0 K<0 K<0 K<0 K<0 K<0 K<0 K<0 K<0 K<0 K<0 K<0 K<0 K<0 K<0 K<0 K<0 K<0 K<0 K<0 <0 <0 <0 <0 <0O <0O <0O <0O <0O <0O <0O <0O <0O <0O <0O <0O <0O <0O <0O <0O <0O <0O <0O <0O <0O <0O <0O <0O <0O <0O <0O <0O <0O <0O <0O <0O <0O <0O <0O <0O <0O <0O <0O <0O <0O <0O <0O <0O <0O <0O <0O <0O <0O <0O <0O <0O <0O <0O <0O <0O <0O <0O <0O <0O <0O <0O <0O <0O <0O <0O <0O <0O <0O <0O <0O <0O <0O <0O <0O <0O <0O <0O <0O <0O <0O <0O <0O <0O <0O <0O <0O <0O <0O <0O <0O <0O <0O <0O <0O <0O <0O <0O <0O <0O <0O <0O <0O <0O <0O <0O <0O <0O <0O <0O <0O <0O <0O <0O <0O <0O <0O <0O <0O <0O <0O <0O <0O <0O <0O <0O <0O <0O <0O <0O <0O <0O <0O <0O <0O <0O <0O <0O <0O <0O <0O <0O <0O <0O <0O <0O <0O <0O <0O <0O <0O O    H? H? H? H? H? H? H? H? H? H? H? H? H? H? H? H? H? H? H? H? H? H? H? H? H? H? H? H? H? H? H? H? H? H? H? H? H? H? H? H? H? H? H? H? H? H? H? H? H? H? H? H? H? H? H? H? H? H? H? H? H? H? H? H? H? H? H? H? H? H? H? H? H? H? H? H? H? H? H? H? H? H? H? H? H? H? H? H? H? H? H? H? H? H? H? H? H? H? H? H? H? H? H? H? H? H? H? H? H? H? H? H? H? H? H? H? H? H? H? H? H? H? H? H? H? H? H? H? H? H? H? H? H? H? H? H? H? H? H? H? H? H? H? H? H? H? H? H? H? H? H? H? ? ? ? ? ?O ?O ?O ?O ?O ?O ?O ?O ?O ?O ?O ?O ?O ?O ?O ?O ?O ?O ?O ?O ?O ?O ?O ?O ?O ?O ?O ?O ?O ?O ?O ?O ?O ?O ?O ?O ?O ?O ?O ?O ?O ?O ?O ?O ?O ?O ?O ?O ?O ?O ?O ?O ?O ?O ?O ?O ?O ?O ?O ?O ?O ?O ?O ?O ?O ?O ?O ?O ?O ?O ?O ?O ?O ?O ?O ?O ?O ?O ?O ?O ?O ?O ?O ?O ?O ?O ?O ?O ?O ?O ?O ?O ?O ?O ?O ?O ?O ?O ?O ?O ?O ?O ?O ?O ?O ?O ?O ?O ?O ?O ?O ?O ?O ?O ?O ?O ?O ?O ?O ?O ?O ?O ?O ?O ?O ?O ?O ?O ?O ?O ?O ?O ?O ?O ?O ?O ?O ?O ?O ?O ?O ?O ?O ?O ?O ?O ?O ?O ?O ?O ?O O    G> G> G> G> G> G> G> G> G> G> G> G> G> G> G> G> G> G> G> G> G> G> G> G> G> G> G> G> G> G> G> G> G> G> G> G> G> G> G> G> G> G> G> G> G> G> G> G> G> G> G> G> G> G> G> G> G> G> G> G> G> G> G> G> G> G> G> G> G> G> G> G> G> G> G> G> G> G> G> G> G> G> G> G> G> G> G> G> G> G> G> G> G> G> G> G> G> G> G> G> G> G> G> G> G> G> G> G> G> G> G> G> G> G> G> G> G> G> G> G> G> G> G> G> G> G> G> G> G> G> G> G> G> G> G> G> G> G> G> G> G> G> G> G> G> G> G> G> G> G> G> G> > > > > >M >M >M >M >M >M >M >M >M >M >M >M >M >M >M >M >M >M >M >M >M >M >M >M >M >M >M >M >M >M >M >M >M >M >M >M >M >M >M >M >M >M >M >M >M >M >M >M >M >M >M >M >M >M >M >M >M >M >M >M >M >M >M >M >M >M >M >M >M >M >M >M >M >M >M >M >M >M >M >M >M >M >M >M >M >M >M >M >M >M >M >M >M >M >M >M >M >M >M >M >M >M >M >M >M >M >M >M >M >M >M >M >M >M >M >M >M >M >M >M >M >M >M >M >M >M >M >M >M >M >M >M >M >M >M >M >M >M >M >M >M >M >M >M >M >M >M >M >M >M >M M     K< K< K< K< K< K< K< K< K< K< K< K< K< K< K< K< K< K< K< K< K< K< K< K< K< K< K< K< K< K< K< K< K< K< K< K< K< K< K< K< K< K< K< K< K< K< K< K< K< K< K< K< K< K< K< K< K< K< K< K< K< K< K< K< K< K< K< K< K< K< K< K< K< K< K< K< K< K< K< K< K< K< K< K< K< K< K< K< K< K< K< K< K< K< K< K< K< K< K< K< K< K< K< K< K< K< K< K< K< K< K< K< K< K< K< K< K< K< K< K< K< K< K< K< K< K< K< K< K< K< K< K< K< K< K< K< K< K< K< K< K< K< K< K< K< K< K< K< K< K< K< K< < < < H< H< H< H< H< H< H< H< H< H< H< H< H< H< H< H< H< H< H< H< H< H< H< H< H< H< H< H< H< H< H< H< H< H< H< H< H< H< H< H< H< H< H< H< H< H< H< H< H< H< H< H< H< H< H< H< H< H< H< H< H< H< H< H< H< H< H< H< H< H< H< H< H< H< H< H< H< H< H< H< H< H< H< H< H< H< H< H< H< H< H< H< H< H< H< H< H< H< H< H< H< H< H< H< H< H< H< H< H< H< H< H< H< H< H< H< H< H< H< H< H< H< H< H< H< H< H< H< H< H< H< H< H< H< H< H< H< H< H< H< H< H< H< H< H< H< H< H< H< H< H< H< < < < < E5< E5< E5< E5< E5< E5< E5< E5< E5< E5< E5< E5< E5< E5< E5< E5< E5< E5< E5< E5< E5< E5< E5< E5< E5< E5< E5< E5< E5< E5< E5< E5< E5< E5< E5< E5< E5< E5< E5< E5< E5< E5< E5< E5< E5< E5< E5< E5< E5< E5< E5< E5< E5< E5< E5< E5< E5< E5< E5< E5< E5< E5< E5< E5< E5< E5< E5< E5< E5< E5< E5< E5< E5< E5< E5< E5< E5< E5< E5< E5< E5< E5< E5< E5< E5< E5< E5< E5< E5< E5< E5< E5< E5< E5< E5< E5< E5< E5< E5< E5< E5< E5< E5< E5< E5< E5< E5< E5< E5< E5< E5< E5< E5< E5< E5< E5< E5< E5< E5< E5< E5< E5< E5< E5< E5< E5< E5< E5< E5< E5< E5< E5< E5< E5< E5< E5< E5< E5< E5< E5< E5< E5< E5< E5< E5< E5< E5< E5< E5< E5< E5< E5< 5< 5< 5< K5< K5< K5< K5< K5< K5< K5< K5< K5< K5< K5< K5< K5< K5< K5< K5< K5< K5< K5< K5< K5< K5< K5< K5< K5< K5< K5< K5< K5< K5< K5< K5< K5< K5< K5< K5< K5< K5< K5< K5< K5< K5< K5< K5< K5< K5< K5< K5< K5< K5< K5< K5< K5< K5< K5< K5< K5< K5< K5< K5< K5< K5< K5< K5< K5< K5< K5< K5< K5< K5< K5< K5< K5< K5< K5< K5< K5< K5< K5< K5< K5< K5< K5< K5< K5< K5< K5< K5< K5< K5< K5< K5< K5< K5< K5< K5< K5< K5< K5< K5< K5< K5< K5< K5< K5< K5< K5< K5< K5< K5< K5< K5< K5< K5< K5< K5< K5< K5< K5< K5< K5< K5< K5< K5< K5< K5< K5< K5< K5< K5< K5< K5< K5< K5< K5< K5< K5< K5< K5< K5< K5< K5< K5< K5< K5< K5< K5< K5< K5< K5< K5< K5< < < < < C7< C7< C7< C7< C7< C7< C7< C7< C7< C7< C7< C7< C7< C7< C7< C7< C7< C7< C7< C7< C7< C7< C7< C7< C7< C7< C7< C7< C7< C7< C7< C7< C7< C7< C7< C7< C7< C7< C7< C7< C7< C7< C7< C7< C7< C7< C7< C7< C7< C7< C7< C7< C7< C7< C7< C7< C7< C7< C7< C7< C7< C7< C7< C7< C7< C7< C7< C7< C7< C7< C7< C7< C7< C7< C7< C7< C7< C7< C7< C7< C7< C7< C7< C7< C7< C7< C7< C7< C7< C7< C7< C7< C7< C7< C7< C7< C7< C7< C7< C7< C7< C7< C7< C7< C7< C7< C7< C7< C7< C7< C7< C7< C7< C7< C7< C7< C7< C7< C7< C7< C7< C7< C7< C7< C7< C7< C7< C7< C7< C7< C7< C7< C7< C7< C7< C7< C7< C7< C7< C7< C7< C7< C7< C7< C7< C7< C7< C7< C7< C7< C7< C7< 7< 7< 7< K7< K7< K7< K7< K7< K7< K7< K7< K7< K7< K7< K7< K7< K7< K7< K7< K7< K7< K7< K7< K7< K7< K7< K7< K7< K7< K7< K7< K7< K7< K7< K7< K7< K7< K7< K7< K7< K7< K7< K7< K7< K7< K7< K7< K7< K7< K7< K7< K7< K7< K7< K7< K7< K7< K7< K7< K7< K7< K7< K7< K7< K7< K7< K7< K7< K7< K7< K7< K7< K7< K7< K7< K7< K7< K7< K7< K7< K7< K7< K7< K7< K7< K7< K7< K7< K7< K7< K7< K7< K7< K7< K7< K7< K7< K7< K7< K7< K7< K7< K7< K7< K7< K7< K7< K7< K7< K7< K7< K7< K7< K7< K7< K7< K7< K7< K7< K7< K7< K7< K7< K7< K7< K7< K7< K7< K7< K7< K7< K7< K7< K7< K7< K7< K7< K7< K7< K7< K7< K7< K7< K7< K7< K7< K7< K7< K7< K7< K7< K7< K7< K7< K7< < < < < A9< A9< A9< A9< A9< A9< A9< A9< A9< A9< A9< A9< A9< A9< A9< A9< A9< A9< A9< A9< A9< A9< A9< A9< A9< A9< A9< A9< A9< A9< A9< A9< A9< A9< A9< A9< A9< A9< A9< A9< A9< A9< A9< A9< A9< A9< A9< A9< A9< A9< A9< A9< A9< A9< A9< A9< A9< A9< A9< A9< A9< A9< A9< A9< A9< A9< A9< A9< A9< A9< A9< A9< A9< A9< A9< A9< A9< A9< A9< A9< A9< A9< A9< A9< A9< A9< A9< A9< A9< A9< A9< A9< A9< A9< A9< A9< A9< A9< A9< A9< A9< A9< A9< A9< A9< A9< A9< A9< A9< A9< A9< A9< A9< A9< A9< A9< A9< A9< A9< A9< A9< A9< A9< A9< A9< A9< A9< A9< A9< A9< A9< A9< A9< A9< A9< A9< A9< A9< A9< A9< A9< A9< A9< A9< A9< A9< A9< A9< A9< A9< A9< A9< 9< 9< 9< K9< K9< K9< K9< K9< K9< K9< K9< K9< K9< K9< K9< K9< K9< K9< K9< K9< K9< K9< K9< K9< K9< K9< K9< K9< K9< K9< K9< K9< K9< K9< K9< K9< K9< K9< K9< K9< K9< K9< K9< K9< K9< K9< K9< K9< K9< K9< K9< K9< K9< K9< K9< K9< K9< K9< K9< K9< K9< K9< K9< K9< K9< K9< K9< K9< K9< K9< K9< K9< K9< K9< K9< K9< K9< K9< K9< K9< K9< K9< K9< K9< K9< K9< K9< K9< K9< K9< K9< K9< K9< K9< K9< K9< K9< K9< K9< K9< K9< K9< K9< K9< K9< K9< K9< K9< K9< K9< K9< K9< K9< K9< K9< K9< K9< K9< K9< K9< K9< K9< K9< K9< K9< K9< K9< K9< K9< K9< K9< K9< K9< K9< K9< K9< K9< K9< K9< K9< K9< K9< K9< K9< K9< K9< K9< K9< K9< K9< K9< K9< K9< K9< K9< < < < < C7< C7< C7< C7< C7< C7< C7< C7< C7< C7< C7< C7< C7< C7< C7< C7< C7< C7< C7< C7< C7< C7< C7< C7< C7< C7< C7< C7< C7< C7< C7< C7< C7< C7< C7< C7< C7< C7< C7< C7< C7< C7< C7< C7< C7< C7< C7< C7< C7< C7< C7< C7< C7< C7< C7< C7< C7< C7< C7< C7< C7< C7< C7< C7< C7< C7< C7< C7< C7< C7< C7< C7< C7< C7< C7< C7< C7< C7< C7< C7< C7< C7< C7< C7< C7< C7< C7< C7< C7< C7< C7< C7< C7< C7< C7< C7< C7< C7< C7< C7< C7< C7< C7< C7< C7< C7< C7< C7< C7< C7< C7< C7< C7< C7< C7< C7< C7< C7< C7< C7< C7< C7< C7< C7< C7< C7< C7< C7< C7< C7< C7< C7< C7< C7< C7< C7< C7< C7< C7< C7< C7< C7< C7< C7< C7< C7< C7< C7< C7< C7< C7< C7< 7< 7< 7< K7< K7< K7< K7< K7< K7< K7< K7< K7< K7< K7< K7< K7< K7< K7< K7< K7< K7< K7< K7< K7< K7< K7< K7< K7< K7< K7< K7< K7< K7< K7< K7< K7< K7< K7< K7< K7< K7< K7< K7< K7< K7< K7< K7< K7< K7< K7< K7< K7< K7< K7< K7< K7< K7< K7< K7< K7< K7< K7< K7< K7< K7< K7< K7< K7< K7< K7< K7< K7< K7< K7< K7< K7< K7< K7< K7< K7< K7< K7< K7< K7< K7< K7< K7< K7< K7< K7< K7< K7< K7< K7< K7< K7< K7< K7< K7< K7< K7< K7< K7< K7< K7< K7< K7< K7< K7< K7< K7< K7< K7< K7< K7< K7< K7< K7< K7< K7< K7< K7< K7< K7< K7< K7< K7< K7< K7< K7< K7< K7< K7< K7< K7< K7< K7< K7< K7< K7< K7< K7< K7< K7< K7< K7< K7< K7< K7< K7< K7< K7< K7< K7< K7< < < < < E5< E5< E5< E5< E5< E5< E5< E5< E5< E5< E5< E5< E5< E5< E5< E5< E5< E5< E5< E5< E5< E5< E5< E5< E5< E5< E5< E5< E5< E5< E5< E5< E5< E5< E5< E5< E5< E5< E5< E5< E5< E5< E5< E5< E5< E5< E5< E5< E5< E5< E5< E5< E5< E5< E5< E5< E5< E5< E5< E5< E5< E5< E5< E5< E5< E5< E5< E5< E5< E5< E5< E5< E5< E5< E5< E5< E5< E5< E5< E5< E5< E5< E5< E5< E5< E5< E5< E5< E5< E5< E5< E5< E5< E5< E5< E5< E5< E5< E5< E5< E5< E5< E5< E5< E5< E5< E5< E5< E5< E5< E5< E5< E5< E5< E5< E5< E5< E5< E5< E5< E5< E5< E5< E5< E5< E5< E5< E5< E5< E5< E5< E5< E5< E5< E5< E5< E5< E5< E5< E5< E5< E5< E5< E5< E5< E5< E5< E5< E5< E5< E5< E5< 5< 5< 5< K5< K5< K5< K5< K5< K5< K5< K5< K5< K5< K5< K5< K5< K5< K5< K5< K5< K5< K5< K5< K5< K5< K5< K5< K5< K5< K5< K5< K5< K5< K5< K5< K5< K5< K5< K5< K5< K5< K5< K5< K5< K5< K5< K5< K5< K5< K5< K5< K5< K5< K5< K5< K5< K5< K5< K5< K5< K5< K5< K5< K5< K5< K5< K5< K5< K5< K5< K5< K5< K5< K5< K5< K5< K5< K5< K5< K5< K5< K5< K5< K5< K5< K5< K5< K5< K5< K5< K5< K5< K5< K5< K5< K5< K5< K5< K5< K5< K5< K5< K5< K5< K5< K5< K5< K5< K5< K5< K5< K5< K5< K5< K5< K5< K5< K5< K5< K5< K5< K5< K5< K5< K5< K5< K5< K5< K5< K5< K5< K5< K5< K5< K5< K5< K5< K5< K5< K5< K5< K5< K5< K5< K5< K5< K5< K5< K5< K5< K5< K5< K5< K5< K5< <    :J :J :J :J :J :J :J :J :J :J :J :J :J :J :J :J :J :J :J :J :J :J :J :J :J :J :J :J :J :J :J :J :J :J :J :J :J :J :J :J :J :J :J :J :J :J :J :J :J :J :J :J :J :J :J :J :J :J :J :J :J :J :J :J :J :J :J :J :J :J :J :J :J :J :J :J :J :J :J :J :J :J :J :J :J :J :J :J :J :J :J :J :J :J :J :J :J :J :J :J :J :J :J :J :J :J :J :J :J :J :J :J :J :J :J :J :J :J :J :J :J :J :J :J :J :J :J :J :J :J :J :J :J :J :J :J :J :J :J :J :J :J :J :J :J :J :J :J :J :J :J :J J J J <J <J <J <J <J <J <J <J <J <J <J <J <J <J <J <J <J <J <J <J <J <J <J <J <J <J <J <J <J <J <J <J <J <J <J <J <J <J <J <J <J <J <J <J <J <J <J <J <J <J <J <J <J <J <J <J <J <J <J <J <J <J <J <J <J <J <J <J <J <J <J <J <J <J <J <J <J <J <J <J <J <J <J <J <J <J <J <J <J <J <J <J <J <J <J <J <J <J <J <J <J <J <J <J <J <J <J <J <J <J <J <J <J <J <J <J <J <J <J <J <J <J <J <J <J <J <J <J <J <J <J <J <J <J <J <J <J <J <J <J <J <J <J <J <J <J <J <J <J <J <J <J     >M >M >M >M >M >M >M >M >M >M >M >M >M >M >M >M >M >M >M >M >M >M >M >M >M >M >M >M >M >M >M >M >M >M >M >M >M >M >M >M >M >M >M >M >M >M >M >M >M >M >M >M >M >M >M >M >M >M >M >M >M >M >M >M >M >M >M >M >M >M >M >M >M >M >M >M >M >M >M >M >M >M >M >M >M >M >M >M >M >M >M >M >M >M >M >M >M >M >M >M >M >M >M >M >M >M >M >M >M >M >M >M >M >M >M >M >M >M >M >M >M >M >M >M >M >M >M >M >M >M >M >M >M >M >M >M >M >M >M >M >M >M >M >M >M >M >M >M >M >M >M >M M M M :M :M :M :M :M :M :M :M :M :M :M :M :M :M :M :M :M :M :M :M :M :M :M :M :M :M :M :M :M :M :M :M :M :M :M :M :M :M :M :M :M :M :M :M :M :M :M :M :M :M :M :M :M :M :M :M :M :M :M :M :M :M :M :M :M :M :M :M :M :M :M :M :M :M :M :M :M :M :M :M :M :M :M :M :M :M :M :M :M :M :M :M :M :M :M :M :M :M :M :M :M :M :M :M :M :M :M :M :M :M :M :M :M :M :M :M :M :M :M :M :M :M :M :M :M :M :M :M :M :M :M :M :M :M :M :M :M :M :M :M :M :M :M :M :M :M :M :M :M :M :M :M     9M 9M 9M 9M 9M 9M 9M 9M 9M 9M 9M 9M 9M 9M 9M 9M 9M 9M 9M 9M 9M 9M 9M 9M 9M 9M 9M 9M 9M 9M 9M 9M 9M 9M 9M 9M 9M 9M 9M 9M 9M 9M 9M 9M 9M 9M 9M 9M 9M 9M 9M 9M 9M 9M 9M 9M 9M 9M 9M 9M 9M 9M 9M 9M 9M 9M 9M 9M 9M 9M 9M 9M 9M 9M 9M 9M 9M 9M 9M 9M 9M 9M 9M 9M 9M 9M 9M 9M 9M 9M 9M 9M 9M 9M 9M 9M 9M 9M 9M 9M 9M 9M 9M 9M 9M 9M 9M 9M 9M 9M 9M 9M 9M 9M 9M 9M 9M 9M 9M 9M 9M 9M 9M 9M 9M 9M 9M 9M 9M 9M 9M 9M 9M 9M 9M 9M 9M 9M 9M 9M 9M 9M 9M 9M 9M 9M 9M 9M 9M 9M 9M 9M M M M :M :M :M :M :M :M :M :M :M :M :M :M :M :M :M :M :M :M :M :M :M :M :M :M :M :M :M :M :M :M :M :M :M :M :M :M :M :M :M :M :M :M :M :M :M :M :M :M :M :M :M :M :M :M :M :M :M :M :M :M :M :M :M :M :M :M :M :M :M :M :M :M :M :M :M :M :M :M :M :M :M :M :M :M :M :M :M :M :M :M :M :M :M :M :M :M :M :M :M :M :M :M :M :M :M :M :M :M :M :M :M :M :M :M :M :M :M :M :M :M :M :M :M :M :M :M :M :M :M :M :M :M :M :M :M :M :M :M :M :M :M :M :M :M :M :M :M :M :M :M :M :M     5J 5J 5J 5J 5J 5J 5J 5J 5J 5J 5J 5J 5J 5J 5J 5J 5J 5J 5J 5J 5J 5J 5J 5J 5J 5J 5J 5J 5J 5J 5J 5J 5J 5J 5J 5J 5J 5J 5J 5J 5J 5J 5J 5J 5J 5J 5J 5J 5J 5J 5J 5J 5J 5J 5J 5J 5J 5J 5J 5J 5J 5J 5J 5J 5J 5J 5J 5J 5J 5J 5J 5J 5J 5J 5J 5J 5J 5J 5J 5J 5J 5J 5J 5J 5J 5J 5J 5J 5J 5J 5J 5J 5J 5J 5J 5J 5J 5J 5J 5J 5J 5J 5J 5J 5J 5J 5J 5J 5J 5J 5J 5J 5J 5J 5J 5J 5J 5J 5J 5J 5J 5J 5J 5J 5J 5J 5J 5J 5J 5J 5J 5J 5J 5J 5J 5J 5J 5J 5J 5J 5J 5J 5J 5J 5J 5J 5J 5J 5J 5J 5J 5J J J J :J :J :J :J :J :J :J :J :J :J :J :J :J :J :J :J :J :J :J :J :J :J :J :J :J :J :J :J :J :J :J :J :J :J :J :J :J :J :J :J :J :J :J :J :J :J :J :J :J :J :J :J :J :J :J :J :J :J :J :J :J :J :J :J :J :J :J :J :J :J :J :J :J :J :J :J :J :J :J :J :J :J :J :J :J :J :J :J :J :J :J :J :J :J :J :J :J :J :J :J :J :J :J :J :J :J :J :J :J :J :J :J :J :J :J :J :J :J :J :J :J :J :J :J :J :J :J :J :J :J :J :J :J :J :J :J :J :J :J :J :J :J :J :J :J :J :J :J :J :J :J :J     >JF >JF >JF >JF >JF >JF >JF >JF >JF >JF >JF >JF >JF >JF >JF >JF >JF >JF >JF >JF >JF >JF >JF >JF >JF >JF >JF >JF >JF >JF >JF >JF >JF >JF >JF >JF >JF >JF >JF >JF >JF >JF >JF >JF >JF >JF >JF >JF >JF >JF >JF >JF >JF >JF >JF >JF >JF >JF >JF >JF >JF >JF >JF >JF >JF >JF >JF >JF >JF >JF >JF >JF >JF >JF >JF >JF >JF >JF >JF >JF >JF >JF >JF >JF >JF >JF >JF >JF >JF >JF >JF >JF >JF >JF >JF >JF >JF >JF >JF >JF >JF >JF >JF >JF >JF >JF >JF >JF >JF >JF >JF >JF >JF >JF >JF >JF >JF >JF >JF >JF >JF >JF >JF >JF >JF >JF >JF >JF >JF >JF >JF >JF >JF >JF >JF >JF >JF >JF >JF >JF >JF >JF >JF >JF >JF >JF >JF >JF >JF >JF >JF >JF JF JF JF :JF :JF :JF :JF :JF :JF :JF :JF :JF :JF :JF :JF :JF :JF :JF :JF :JF :JF :JF :JF :JF :JF :JF :JF :JF :JF :JF :JF :JF :JF :JF :JF :JF :JF :JF :JF :JF :JF :JF :JF :JF :JF :JF :JF :JF :JF :JF :JF :JF :JF :JF :JF :JF :JF :JF :JF :JF :JF :JF :JF :JF :JF :JF :JF :JF :JF :JF :JF :JF :JF :JF :JF :JF :JF :JF :JF :JF :JF :JF :JF :JF :JF :JF :JF :JF :JF :JF :JF :JF :JF :JF :JF :JF :JF :JF :JF :JF :JF :JF :JF :JF :JF :JF :JF :JF :JF :JF :JF :JF :JF :JF :JF :JF :JF :JF :JF :JF :JF :JF :JF :JF :JF :JF :JF :JF :JF :JF :JF :JF :JF :JF :JF :JF :JF :JF :JF :JF :JF :JF :JF :JF :JF :JF :JF :JF :JF :JF :JF :JF :JF :JF :JF     @JF @JF @JF @JF @JF @JF @JF @JF @JF @JF @JF @JF @JF @JF @JF @JF @JF @JF @JF @JF @JF @JF @JF @JF @JF @JF @JF @JF @JF @JF @JF @JF @JF @JF @JF @JF @JF @JF @JF @JF @JF @JF @JF @JF @JF @JF @JF @JF @JF @JF @JF @JF @JF @JF @JF @JF @JF @JF @JF @JF @JF @JF @JF @JF @JF @JF @JF @JF @JF @JF @JF @JF @JF @JF @JF @JF @JF @JF @JF @JF @JF @JF @JF @JF @JF @JF @JF @JF @JF @JF @JF @JF @JF @JF @JF @JF @JF @JF @JF @JF @JF @JF @JF @JF @JF @JF @JF @JF @JF @JF @JF @JF @JF @JF @JF @JF @JF @JF @JF @JF @JF @JF @JF @JF @JF @JF @JF @JF @JF @JF @JF @JF @JF @JF @JF @JF @JF @JF @JF @JF @JF @JF @JF @JF @JF @JF @JF @JF @JF @JF @JF @JF JF JF JF :JF :JF :JF :JF :JF :JF :JF :JF :JF :JF :JF :JF :JF :JF :JF :JF :JF :JF :JF :JF :JF :JF :JF :JF :JF :JF :JF :JF :JF :JF :JF :JF :JF :JF :JF :JF :JF :JF :JF :JF :JF :JF :JF :JF :JF :JF :JF :JF :JF :JF :JF :JF :JF :JF :JF :JF :JF :JF :JF :JF :JF :JF :JF :JF :JF :JF :JF :JF :JF :JF :JF :JF :JF :JF :JF :JF :JF :JF :JF :JF :JF :JF :JF :JF :JF :JF :JF :JF :JF :JF :JF :JF :JF :JF :JF :JF :JF :JF :JF :JF :JF :JF :JF :JF :JF :JF :JF :JF :JF :JF :JF :JF :JF :JF :JF :JF :JF :JF :JF :JF :JF :JF :JF :JF :JF :JF :JF :JF :JF :JF :JF :JF :JF :JF :JF :JF :JF :JF :JF :JF :JF :JF :JF :JF :JF :JF :JF :JF :JF :JF :JF :JF     HFA HFA HFA HFA HFA HFA HFA HFA HFA HFA HFA HFA HFA HFA HFA HFA HFA HFA HFA HFA HFA HFA HFA HFA HFA HFA HFA HFA HFA HFA HFA HFA HFA HFA HFA HFA HFA HFA HFA HFA HFA HFA HFA HFA HFA HFA HFA HFA HFA HFA HFA HFA HFA HFA HFA HFA HFA HFA HFA HFA HFA HFA HFA HFA HFA HFA HFA HFA HFA HFA HFA HFA HFA HFA HFA HFA HFA HFA HFA HFA HFA HFA HFA HFA HFA HFA HFA HFA HFA HFA HFA HFA HFA HFA HFA HFA HFA HFA HFA HFA HFA HFA HFA HFA HFA HFA HFA HFA HFA HFA HFA HFA HFA HFA HFA HFA HFA HFA HFA HFA HFA HFA HFA HFA HFA HFA HFA HFA HFA HFA HFA HFA HFA HFA HFA HFA HFA HFA HFA HFA HFA HFA HFA HFA HFA HFA HFA HFA HFA HFA HFA HFA FA FA FA FA FTA FTA FTA FTA FTA FTA FTA FTA FTA FTA FTA FTA FTA FTA FTA FTA FTA FTA FTA FTA FTA FTA FTA FTA FTA FTA FTA FTA FTA FTA FTA FTA FTA FTA FTA FTA FTA FTA FTA FTA FTA FTA FTA FTA FTA FTA FTA FTA FTA FTA FTA FTA FTA FTA FTA FTA FTA FTA FTA FTA FTA FTA FTA FTA FTA FTA FTA FTA FTA FTA FTA FTA FTA FTA FTA FTA FTA FTA FTA FTA FTA FTA FTA FTA FTA FTA FTA FTA FTA FTA FTA FTA FTA FTA FTA FTA FTA FTA FTA FTA FTA FTA FTA FTA FTA FTA FTA FTA FTA FTA FTA FTA FTA FTA FTA FTA FTA FTA FTA FTA FTA FTA FTA FTA FTA FTA FTA FTA FTA FTA FTA FTA FTA FTA FTA FTA FTA FTA FTA FTA FTA FTA FTA FTA FTA FTA FTA FTA FTA FTA FTA TA A A A MAE MAE MAE MAE MAE MAE MAE MAE MAE MAE MAE MAE MAE MAE MAE MAE MAE MAE MAE MAE MAE MAE MAE MAE MAE MAE MAE MAE MAE MAE MAE MAE MAE MAE MAE MAE MAE MAE MAE MAE MAE MAE MAE MAE MAE MAE MAE MAE MAE MAE MAE MAE MAE MAE MAE MAE MAE MAE MAE MAE MAE MAE MAE MAE MAE MAE MAE MAE MAE MAE MAE MAE MAE MAE MAE MAE MAE MAE MAE MAE MAE MAE MAE MAE MAE MAE MAE MAE MAE MAE MAE MAE MAE MAE MAE MAE MAE MAE MAE MAE MAE MAE MAE MAE MAE MAE MAE MAE MAE MAE MAE MAE MAE MAE MAE MAE MAE MAE MAE MAE MAE MAE MAE MAE MAE MAE MAE MAE MAE MAE MAE MAE MAE MAE MAE MAE MAE MAE MAE MAE MAE MAE MAE MAE MAE MAE MAE MAE MAE MAE MAE MAE AE AE AE AE AET AET AET AET AET AET AET AET AET AET AET AET AET AET AET AET AET AET AET AET AET AET AET AET AET AET AET AET AET AET AET AET AET AET AET AET AET AET AET AET AET AET AET AET AET AET AET AET AET AET AET AET AET AET AET AET AET AET AET AET AET AET AET AET AET AET AET AET AET AET AET AET AET AET AET AET AET AET AET AET AET AET AET AET AET AET AET AET AET AET AET AET AET AET AET AET AET AET AET AET AET AET AET AET AET AET AET AET AET AET AET AET AET AET AET AET AET AET AET AET AET AET AET AET AET AET AET AET AET AET AET AET AET AET AET AET AET AET AET AET AET AET AET AET AET AET AET AET ET ET ET T    LC LC LC LC LC LC LC LC LC LC LC LC LC LC LC LC LC LC LC LC LC LC LC LC LC LC LC LC LC LC LC LC LC LC LC LC LC LC LC LC LC LC LC LC LC LC LC LC LC LC LC LC LC LC LC LC LC LC LC LC LC LC LC LC LC LC LC LC LC LC LC LC LC LC LC LC LC LC LC LC LC LC LC LC LC LC LC LC LC LC LC LC LC LC LC LC LC LC LC LC LC LC LC LC LC LC LC LC LC LC LC LC LC LC LC LC LC LC LC LC LC LC LC LC LC LC LC LC LC LC LC LC LC LC LC LC LC LC LC LC LC LC LC LC LC LC LC LC LC LC LC LC C C C C CR CR CR CR CR CR CR CR CR CR CR CR CR CR CR CR CR CR CR CR CR CR CR CR CR CR CR CR CR CR CR CR CR CR CR CR CR CR CR CR CR CR CR CR CR CR CR CR CR CR CR CR CR CR CR CR CR CR CR CR CR CR CR CR CR CR CR CR CR CR CR CR CR CR CR CR CR CR CR CR CR CR CR CR CR CR CR CR CR CR CR CR CR CR CR CR CR CR CR CR CR CR CR CR CR CR CR CR CR CR CR CR CR CR CR CR CR CR CR CR CR CR CR CR CR CR CR CR CR CR CR CR CR CR CR CR CR CR CR CR CR CR CR CR CR CR CR CR CR CR CR R    Q5A Q5A Q5A Q5A Q5A Q5A Q5A Q5A Q5A Q5A Q5A Q5A Q5A Q5A Q5A Q5A Q5A Q5A Q5A Q5A Q5A Q5A Q5A Q5A Q5A Q5A Q5A Q5A Q5A Q5A Q5A Q5A Q5A Q5A Q5A Q5A Q5A Q5A Q5A Q5A Q5A Q5A Q5A Q5A Q5A Q5A Q5A Q5A Q5A Q5A Q5A Q5A Q5A Q5A Q5A Q5A Q5A Q5A Q5A Q5A Q5A Q5A Q5A Q5A Q5A Q5A Q5A Q5A Q5A Q5A Q5A Q5A Q5A Q5A Q5A Q5A Q5A Q5A Q5A Q5A Q5A Q5A Q5A Q5A Q5A Q5A Q5A Q5A Q5A Q5A Q5A Q5A Q5A Q5A Q5A Q5A Q5A Q5A Q5A Q5A Q5A Q5A Q5A Q5A Q5A Q5A Q5A Q5A Q5A Q5A Q5A Q5A Q5A Q5A Q5A Q5A Q5A Q5A Q5A Q5A Q5A Q5A Q5A Q5A Q5A Q5A Q5A Q5A Q5A Q5A Q5A Q5A Q5A Q5A Q5A Q5A Q5A Q5A Q5A Q5A Q5A Q5A Q5A Q5A Q5A Q5A Q5A Q5A Q5A Q5A Q5A Q5A 5A 5A 5A 5A 5AT 5AT 5AT 5AT 5AT 5AT 5AT 5AT 5AT 5AT 5AT 5AT 5AT 5AT 5AT 5AT 5AT 5AT 5AT 5AT 5AT 5AT 5AT 5AT 5AT 5AT 5AT 5AT 5AT 5AT 5AT 5AT 5AT 5AT 5AT 5AT 5AT 5AT 5AT 5AT 5AT 5AT 5AT 5AT 5AT 5AT 5AT 5AT 5AT 5AT 5AT 5AT 5AT 5AT 5AT 5AT 5AT 5AT 5AT 5AT 5AT 5AT 5AT 5AT 5AT 5AT 5AT 5AT 5AT 5AT 5AT 5AT 5AT 5AT 5AT 5AT 5AT 5AT 5AT 5AT 5AT 5AT 5AT 5AT 5AT 5AT 5AT 5AT 5AT 5AT 5AT 5AT 5AT 5AT 5AT 5AT 5AT 5AT 5AT 5AT 5AT 5AT 5AT 5AT 5AT 5AT 5AT 5AT 5AT 5AT 5AT 5AT 5AT 5AT 5AT 5AT 5AT 5AT 5AT 5AT 5AT 5AT 5AT 5AT 5AT 5AT 5AT 5AT 5AT 5AT 5AT 5AT 5AT 5AT 5AT 5AT 5AT 5AT 5AT 5AT 5AT 5AT 5AT 5AT 5AT 5AT 5AT 5AT 5AT 5AT 5AT T    ME ME ME ME ME ME ME ME ME ME ME ME ME ME ME ME ME ME ME ME ME ME ME ME ME ME ME ME ME ME ME ME ME ME ME ME ME ME ME ME ME ME ME ME ME ME ME ME ME ME ME ME ME ME ME ME ME ME ME ME ME ME ME ME ME ME ME ME ME ME ME ME ME ME ME ME ME ME ME ME ME ME ME ME ME ME ME ME ME ME ME ME ME ME ME ME ME ME ME ME ME ME ME ME ME ME ME ME ME ME ME ME ME ME ME ME ME ME ME ME ME ME ME ME ME ME ME ME ME ME ME ME ME ME ME ME ME ME ME ME ME ME ME ME ME ME ME ME ME ME ME ME E E E E ET ET ET ET ET ET ET ET ET ET ET ET ET ET ET ET ET ET ET ET ET ET ET ET ET ET ET ET ET ET ET ET ET ET ET ET ET ET ET ET ET ET ET ET ET ET ET ET ET ET ET ET ET ET ET ET ET ET ET ET ET ET ET ET ET ET ET ET ET ET ET ET ET ET ET ET ET ET ET ET ET ET ET ET ET ET ET ET ET ET ET ET ET ET ET ET ET ET ET ET ET ET ET ET ET ET ET ET ET ET ET ET ET ET ET ET ET ET ET ET ET ET ET ET ET ET ET ET ET ET ET ET ET ET ET ET ET ET ET ET ET ET ET ET ET ET ET ET ET ET ET T    LC LC LC LC LC LC LC LC LC LC LC LC LC LC LC LC LC LC LC LC LC LC LC LC LC LC LC LC LC LC LC LC LC LC LC LC LC LC LC LC LC LC LC LC LC LC LC LC LC LC LC LC LC LC LC LC LC LC LC LC LC LC LC LC LC LC LC LC LC LC LC LC LC LC LC LC LC LC LC LC LC LC LC LC LC LC LC LC LC LC LC LC LC LC LC LC LC LC LC LC LC LC LC LC LC LC LC LC LC LC LC LC LC LC LC LC LC LC LC LC LC LC LC LC LC LC LC LC LC LC LC LC LC LC LC LC LC LC LC LC LC LC LC LC LC LC LC LC LC LC LC LC C C C C CR CR CR CR CR CR CR CR CR CR CR CR CR CR CR CR CR CR CR CR CR CR CR CR CR CR CR CR CR CR CR CR CR CR CR CR CR CR CR CR CR CR CR CR CR CR CR CR CR CR CR CR CR CR CR CR CR CR CR CR CR CR CR CR CR CR CR CR CR CR CR CR CR CR CR CR CR CR CR CR CR CR CR CR CR CR CR CR CR CR CR CR CR CR CR CR CR CR CR CR CR CR CR CR CR CR CR CR CR CR CR CR CR CR CR CR CR CR CR CR CR CR CR CR CR CR CR CR CR CR CR CR CR CR CR CR CR CR CR CR CR CR CR CR CR CR CR CR CR CR CR R    QA QA QA QA QA QA QA QA QA QA QA QA QA QA QA QA QA QA QA QA QA QA QA QA QA QA QA QA QA QA QA QA QA QA QA QA QA QA QA QA QA QA QA QA QA QA QA QA QA QA QA QA QA QA QA QA QA QA QA QA QA QA QA QA QA QA QA QA QA QA QA QA QA QA QA QA QA QA QA QA QA QA QA QA QA QA QA QA QA QA QA QA QA QA QA QA QA QA QA QA QA QA QA QA QA QA QA QA QA QA QA QA QA QA QA QA QA QA QA QA QA QA QA QA QA QA QA QA QA QA QA QA QA QA QA QA QA QA QA QA QA QA QA QA QA QA QA QA QA QA QA QA A A A A MA MA MA MA MA MA MA MA MA MA MA MA MA MA MA MA MA MA MA MA MA MA MA MA MA MA MA MA MA MA MA MA MA MA MA MA MA MA MA MA MA MA MA MA MA MA MA MA MA MA MA MA MA MA MA MA MA MA MA MA MA MA MA MA MA MA MA MA MA MA MA MA MA MA MA MA MA MA MA MA MA MA MA MA MA MA MA MA MA MA MA MA MA MA MA MA MA MA MA MA MA MA MA MA MA MA MA MA MA MA MA MA MA MA MA MA MA MA MA MA MA MA MA MA MA MA MA MA MA MA MA MA MA MA MA MA MA MA MA MA MA MA MA MA MA MA MA MA MA MA MA MA A A A J:A J:A J:A J:A J:A J:A J:A J:A J:A J:A J:A J:A J:A J:A J:A J:A J:A J:A J:A J:A J:A J:A J:A J:A J:A J:A J:A J:A J:A J:A J:A J:A J:A J:A J:A J:A J:A J:A J:A J:A J:A J:A J:A J:A J:A J:A J:A J:A J:A J:A J:A J:A J:A J:A J:A J:A J:A J:A J:A J:A J:A J:A J:A J:A J:A J:A J:A J:A J:A J:A J:A J:A J:A J:A J:A J:A J:A J:A J:A J:A J:A J:A J:A J:A J:A J:A J:A J:A J:A J:A J:A J:A J:A J:A J:A J:A J:A J:A J:A J:A J:A J:A J:A J:A J:A J:A J:A J:A J:A J:A J:A J:A J:A J:A J:A J:A J:A J:A J:A J:A J:A J:A J:A J:A J:A J:A J:A J:A J:A J:A J:A J:A J:A J:A J:A J:A J:A J:A J:A J:A J:A J:A J:A J:A J:A J:A J:A J:A J:A J:A J:A J:A :A :A :A :A :PA :PA :PA :PA :PA :PA :PA :PA :PA :PA :PA :PA :PA :PA :PA :PA :PA :PA :PA :PA :PA :PA :PA :PA :PA :PA :PA :PA :PA :PA :PA :PA :PA :PA :PA :PA :PA :PA :PA :PA :PA :PA :PA :PA :PA :PA :PA :PA :PA :PA :PA :PA :PA :PA :PA :PA :PA :PA :PA :PA :PA :PA :PA :PA :PA :PA :PA :PA :PA :PA :PA :PA :PA :PA :PA :PA :PA :PA :PA :PA :PA :PA :PA :PA :PA :PA :PA :PA :PA :PA :PA :PA :PA :PA :PA :PA :PA :PA :PA :PA :PA :PA :PA :PA :PA :PA :PA :PA :PA :PA :PA :PA :PA :PA :PA :PA :PA :PA :PA :PA :PA :PA :PA :PA :PA :PA :PA :PA :PA :PA :PA :PA :PA :PA :PA :PA :PA :PA :PA :PA :PA :PA :PA :PA :PA :PA :PA :PA :PA :PA :PA PA A A A H<A H<A H<A H<A H<A H<A H<A H<A H<A H<A H<A H<A H<A H<A H<A H<A H<A H<A H<A H<A H<A H<A H<A H<A H<A H<A H<A H<A H<A H<A H<A H<A H<A H<A H<A H<A H<A H<A H<A H<A H<A H<A H<A H<A H<A H<A H<A H<A H<A H<A H<A H<A H<A H<A H<A H<A H<A H<A H<A H<A H<A H<A H<A H<A H<A H<A H<A H<A H<A H<A H<A H<A H<A H<A H<A H<A H<A H<A H<A H<A H<A H<A H<A H<A H<A H<A H<A H<A H<A H<A H<A H<A H<A H<A H<A H<A H<A H<A H<A H<A H<A H<A H<A H<A H<A H<A H<A H<A H<A H<A H<A H<A H<A H<A H<A H<A H<A H<A H<A H<A H<A H<A H<A H<A H<A H<A H<A H<A H<A H<A H<A H<A H<A H<A H<A H<A H<A H<A H<A H<A H<A H<A H<A H<A H<A H<A H<A H<A H<A H<A H<A H<A <A <A <A <A <PA <PA <PA <PA <PA <PA <PA <PA <PA <PA <PA <PA <PA <PA <PA <PA <PA <PA <PA <PA <PA <PA <PA <PA <PA <PA <PA <PA <PA <PA <PA <PA <PA <PA <PA <PA <PA <PA <PA <PA <PA <PA <PA <PA <PA <PA <PA <PA <PA <PA <PA <PA <PA <PA <PA <PA <PA <PA <PA <PA <PA <PA <PA <PA <PA <PA <PA <PA <PA <PA <PA <PA <PA <PA <PA <PA <PA <PA <PA <PA <PA <PA <PA <PA <PA <PA <PA <PA <PA <PA <PA <PA <PA <PA <PA <PA <PA <PA <PA <PA <PA <PA <PA <PA <PA <PA <PA <PA <PA <PA <PA <PA <PA <PA <PA <PA <PA <PA <PA <PA <PA <PA <PA <PA <PA <PA <PA <PA <PA <PA <PA <PA <PA <PA <PA <PA <PA <PA <PA <PA <PA <PA <PA <PA <PA <PA <PA <PA <PA <PA <PA PA A A A F>A F>A F>A F>A F>A F>A F>A F>A F>A F>A F>A F>A F>A F>A F>A F>A F>A F>A F>A F>A F>A F>A F>A F>A F>A F>A F>A F>A F>A F>A F>A F>A F>A F>A F>A F>A F>A F>A F>A F>A F>A F>A F>A F>A F>A F>A F>A F>A F>A F>A F>A F>A F>A F>A F>A F>A F>A F>A F>A F>A F>A F>A F>A F>A F>A F>A F>A F>A F>A F>A F>A F>A F>A F>A F>A F>A F>A F>A F>A F>A F>A F>A F>A F>A F>A F>A F>A F>A F>A F>A F>A F>A F>A F>A F>A F>A F>A F>A F>A F>A F>A F>A F>A F>A F>A F>A F>A F>A F>A F>A F>A F>A F>A F>A F>A F>A F>A F>A F>A F>A F>A F>A F>A F>A F>A F>A F>A F>A F>A F>A F>A F>A F>A F>A F>A F>A F>A F>A F>A F>A F>A F>A F>A F>A F>A F>A F>A F>A F>A F>A F>A F>A >A >A >A >A >PA >PA >PA >PA >PA >PA >PA >PA >PA >PA >PA >PA >PA >PA >PA >PA >PA >PA >PA >PA >PA >PA >PA >PA >PA >PA >PA >PA >PA >PA >PA >PA >PA >PA >PA >PA >PA >PA >PA >PA >PA >PA >PA >PA >PA >PA >PA >PA >PA >PA >PA >PA >PA >PA >PA >PA >PA >PA >PA >PA >PA >PA >PA >PA >PA >PA >PA >PA >PA >PA >PA >PA >PA >PA >PA >PA >PA >PA >PA >PA >PA >PA >PA >PA >PA >PA >PA >PA >PA >PA >PA >PA >PA >PA >PA >PA >PA >PA >PA >PA >PA >PA >PA >PA >PA >PA >PA >PA >PA >PA >PA >PA >PA >PA >PA >PA >PA >PA >PA >PA >PA >PA >PA >PA >PA >PA >PA >PA >PA >PA >PA >PA >PA >PA >PA >PA >PA >PA >PA >PA >PA >PA >PA >PA >PA >PA >PA >PA >PA >PA >PA PA A A A H<A H<A H<A H<A H<A H<A H<A H<A H<A H<A H<A H<A H<A H<A H<A H<A H<A H<A H<A H<A H<A H<A H<A H<A H<A H<A H<A H<A H<A H<A H<A H<A H<A H<A H<A H<A H<A H<A H<A H<A H<A H<A H<A H<A H<A H<A H<A H<A H<A H<A H<A H<A H<A H<A H<A H<A H<A H<A H<A H<A H<A H<A H<A H<A H<A H<A H<A H<A H<A H<A H<A H<A H<A H<A H<A H<A H<A H<A H<A H<A H<A H<A H<A H<A H<A H<A H<A H<A H<A H<A H<A H<A H<A H<A H<A H<A H<A H<A H<A H<A H<A H<A H<A H<A H<A H<A H<A H<A H<A H<A H<A H<A H<A H<A H<A H<A H<A H<A H<A H<A H<A H<A H<A H<A H<A H<A H<A H<A H<A H<A H<A H<A H<A H<A H<A H<A H<A H<A H<A H<A H<A H<A H<A H<A H<A H<A H<A H<A H<A H<A H<A H<A <A <A <A <A <PA <PA <PA <PA <PA <PA <PA <PA <PA <PA <PA <PA <PA <PA <PA <PA <PA <PA <PA <PA <PA <PA <PA <PA <PA <PA <PA <PA <PA <PA <PA <PA <PA <PA <PA <PA <PA <PA <PA <PA <PA <PA <PA <PA <PA <PA <PA <PA <PA <PA <PA <PA <PA <PA <PA <PA <PA <PA <PA <PA <PA <PA <PA <PA <PA <PA <PA <PA <PA <PA <PA <PA <PA <PA <PA <PA <PA <PA <PA <PA <PA <PA <PA <PA <PA <PA <PA <PA <PA <PA <PA <PA <PA <PA <PA <PA <PA <PA <PA <PA <PA <PA <PA <PA <PA <PA <PA <PA <PA <PA <PA <PA <PA <PA <PA <PA <PA <PA <PA <PA <PA <PA <PA <PA <PA <PA <PA <PA <PA <PA <PA <PA <PA <PA <PA <PA <PA <PA <PA <PA <PA <PA <PA <PA <PA <PA <PA <PA <PA <PA <PA PA A A A J:A J:A J:A J:A J:A J:A J:A J:A J:A J:A J:A J:A J:A J:A J:A J:A J:A J:A J:A J:A J:A J:A J:A J:A J:A J:A J:A J:A J:A J:A J:A J:A J:A J:A J:A J:A J:A J:A J:A J:A J:A J:A J:A J:A J:A J:A J:A J:A J:A J:A J:A J:A J:A J:A J:A J:A J:A J:A J:A J:A J:A J:A J:A J:A J:A J:A J:A J:A J:A J:A J:A J:A J:A J:A J:A J:A J:A J:A J:A J:A J:A J:A J:A J:A J:A J:A J:A J:A J:A J:A J:A J:A J:A J:A J:A J:A J:A J:A J:A J:A J:A J:A J:A J:A J:A J:A J:A J:A J:A J:A J:A J:A J:A J:A J:A J:A J:A J:A J:A J:A J:A J:A J:A J:A J:A J:A J:A J:A J:A J:A J:A J:A J:A J:A J:A J:A J:A J:A J:A J:A J:A J:A J:A J:A J:A J:A J:A J:A J:A J:A J:A J:A :A :A :A :A :PA :PA :PA :PA :PA :PA :PA :PA :PA :PA :PA :PA :PA :PA :PA :PA :PA :PA :PA :PA :PA :PA :PA :PA :PA :PA :PA :PA :PA :PA :PA :PA :PA :PA :PA :PA :PA :PA :PA :PA :PA :PA :PA :PA :PA :PA :PA :PA :PA :PA :PA :PA :PA :PA :PA :PA :PA :PA :PA :PA :PA :PA :PA :PA :PA :PA :PA :PA :PA :PA :PA :PA :PA :PA :PA :PA :PA :PA :PA :PA :PA :PA :PA :PA :PA :PA :PA :PA :PA :PA :PA :PA :PA :PA :PA :PA :PA :PA :PA :PA :PA :PA :PA :PA :PA :PA :PA :PA :PA :PA :PA :PA :PA :PA :PA :PA :PA :PA :PA :PA :PA :PA :PA :PA :PA :PA :PA :PA :PA :PA :PA :PA :PA :PA :PA :PA :PA :PA :PA :PA :PA :PA :PA :PA :PA :PA :PA :PA :PA :PA :PA PA    O? O? O? O? O? O? O? O? O? O? O? O? O? O? O? O? O? O? O? O? O? O? O? O? O? O? O? O? O? O? O? O? O? O? O? O? O? O? O? O? O? O? O? O? O? O? O? O? O? O? O? O? O? O? O? O? O? O? O? O? O? O? O? O? O? O? O? O? O? O? O? O? O? O? O? O? O? O? O? O? O? O? O? O? O? O? O? O? O? O? O? O? O? O? O? O? O? O? O? O? O? O? O? O? O? O? O? O? O? O? O? O? O? O? O? O? O? O? O? O? O? O? O? O? O? O? O? O? O? O? O? O? O? O? O? O? O? O? O? O? O? O? O? O? O? O? O? O? O? O? O? O? ? ? ? ? R? R? R? R? R? R? R? R? R? R? R? R? R? R? R? R? R? R? R? R? R? R? R? R? R? R? R? R? R? R? R? R? R? R? R? R? R? R? R? R? R? R? R? R? R? R? R? R? R? R? R? R? R? R? R? R? R? R? R? R? R? R? R? R? R? R? R? R? R? R? R? R? R? R? R? R? R? R? R? R? R? R? R? R? R? R? R? R? R? R? R? R? R? R? R? R? R? R? R? R? R? R? R? R? R? R? R? R? R? R? R? R? R? R? R? R? R? R? R? R? R? R? R? R? R? R? R? R? R? R? R? R? R? R? R? R? R? R? R? R? R? R? R? R? R? R? R? R? R? R? R? R? ? ? ? ? K?C K?C K?C K?C K?C K?C K?C K?C K?C K?C K?C K?C K?C K?C K?C K?C K?C K?C K?C K?C K?C K?C K?C K?C K?C K?C K?C K?C K?C K?C K?C K?C K?C K?C K?C K?C K?C K?C K?C K?C K?C K?C K?C K?C K?C K?C K?C K?C K?C K?C K?C K?C K?C K?C K?C K?C K?C K?C K?C K?C K?C K?C K?C K?C K?C K?C K?C K?C K?C K?C K?C K?C K?C K?C K?C K?C K?C K?C K?C K?C K?C K?C K?C K?C K?C K?C K?C K?C K?C K?C K?C K?C K?C K?C K?C K?C K?C K?C K?C K?C K?C K?C K?C K?C K?C K?C K?C K?C K?C K?C K?C K?C K?C K?C K?C K?C K?C K?C K?C K?C K?C K?C K?C K?C K?C K?C K?C K?C K?C K?C K?C K?C K?C K?C K?C K?C K?C K?C K?C K?C K?C K?C K?C K?C K?C K?C K?C K?C K?C K?C K?C K?C ?C ?C ?C ?RC ?RC ?RC ?RC ?RC ?RC ?RC ?RC ?RC ?RC ?RC ?RC ?RC ?RC ?RC ?RC ?RC ?RC ?RC ?RC ?RC ?RC ?RC ?RC ?RC ?RC ?RC ?RC ?RC ?RC ?RC ?RC ?RC ?RC ?RC ?RC ?RC ?RC ?RC ?RC ?RC ?RC ?RC ?RC ?RC ?RC ?RC ?RC ?RC ?RC ?RC ?RC ?RC ?RC ?RC ?RC ?RC ?RC ?RC ?RC ?RC ?RC ?RC ?RC ?RC ?RC ?RC ?RC ?RC ?RC ?RC ?RC ?RC ?RC ?RC ?RC ?RC ?RC ?RC ?RC ?RC ?RC ?RC ?RC ?RC ?RC ?RC ?RC ?RC ?RC ?RC ?RC ?RC ?RC ?RC ?RC ?RC ?RC ?RC ?RC ?RC ?RC ?RC ?RC ?RC ?RC ?RC ?RC ?RC ?RC ?RC ?RC ?RC ?RC ?RC ?RC ?RC ?RC ?RC ?RC ?RC ?RC ?RC ?RC ?RC ?RC ?RC ?RC ?RC ?RC ?RC ?RC ?RC ?RC ?RC ?RC ?RC ?RC ?RC ?RC ?RC ?RC ?RC ?RC ?RC ?RC ?RC ?RC RC RC RC RC     JA JA JA JA JA JA JA JA JA JA JA JA JA JA JA JA JA JA JA JA JA JA JA JA JA JA JA JA JA JA JA JA JA JA JA JA JA JA JA JA JA JA JA JA JA JA JA JA JA JA JA JA JA JA JA JA JA JA JA JA JA JA JA JA JA JA JA JA JA JA JA JA JA JA JA JA JA JA JA JA JA JA JA JA JA JA JA JA JA JA JA JA JA JA JA JA JA JA JA JA JA JA JA JA JA JA JA JA JA JA JA JA JA JA JA JA JA JA JA JA JA JA JA JA JA JA JA JA JA JA JA JA JA JA JA JA JA JA JA JA JA JA JA JA JA JA JA JA JA JA JA JA A A A PA PA PA PA PA PA PA PA PA PA PA PA PA PA PA PA PA PA PA PA PA PA PA PA PA PA PA PA PA PA PA PA PA PA PA PA PA PA PA PA PA PA PA PA PA PA PA PA PA PA PA PA PA PA PA PA PA PA PA PA PA PA PA PA PA PA PA PA PA PA PA PA PA PA PA PA PA PA PA PA PA PA PA PA PA PA PA PA PA PA PA PA PA PA PA PA PA PA PA PA PA PA PA PA PA PA PA PA PA PA PA PA PA PA PA PA PA PA PA PA PA PA PA PA PA PA PA PA PA PA PA PA PA PA PA PA PA PA PA PA PA PA PA PA PA PA PA PA PA PA PA PA     O3? O3? O3? O3? O3? O3? O3? O3? O3? O3? O3? O3? O3? O3? O3? O3? O3? O3? O3? O3? O3? O3? O3? O3? O3? O3? O3? O3? O3? O3? O3? O3? O3? O3? O3? O3? O3? O3? O3? O3? O3? O3? O3? O3? O3? O3? O3? O3? O3? O3? O3? O3? O3? O3? O3? O3? O3? O3? O3? O3? O3? O3? O3? O3? O3? O3? O3? O3? O3? O3? O3? O3? O3? O3? O3? O3? O3? O3? O3? O3? O3? O3? O3? O3? O3? O3? O3? O3? O3? O3? O3? O3? O3? O3? O3? O3? O3? O3? O3? O3? O3? O3? O3? O3? O3? O3? O3? O3? O3? O3? O3? O3? O3? O3? O3? O3? O3? O3? O3? O3? O3? O3? O3? O3? O3? O3? O3? O3? O3? O3? O3? O3? O3? O3? O3? O3? O3? O3? O3? O3? O3? O3? O3? O3? O3? O3? O3? O3? O3? O3? O3? O3? 3? 3? 3? R3? R3? R3? R3? R3? R3? R3? R3? R3? R3? R3? R3? R3? R3? R3? R3? R3? R3? R3? R3? R3? R3? R3? R3? R3? R3? R3? R3? R3? R3? R3? R3? R3? R3? R3? R3? R3? R3? R3? R3? R3? R3? R3? R3? R3? R3? R3? R3? R3? R3? R3? R3? R3? R3? R3? R3? R3? R3? R3? R3? R3? R3? R3? R3? R3? R3? R3? R3? R3? R3? R3? R3? R3? R3? R3? R3? R3? R3? R3? R3? R3? R3? R3? R3? R3? R3? R3? R3? R3? R3? R3? R3? R3? R3? R3? R3? R3? R3? R3? R3? R3? R3? R3? R3? R3? R3? R3? R3? R3? R3? R3? R3? R3? R3? R3? R3? R3? R3? R3? R3? R3? R3? R3? R3? R3? R3? R3? R3? R3? R3? R3? R3? R3? R3? R3? R3? R3? R3? R3? R3? R3? R3? R3? R3? R3? R3? R3? R3? R3? R3? R3? R3?     KC KC KC KC KC KC KC KC KC KC KC KC KC KC KC KC KC KC KC KC KC KC KC KC KC KC KC KC KC KC KC KC KC KC KC KC KC KC KC KC KC KC KC KC KC KC KC KC KC KC KC KC KC KC KC KC KC KC KC KC KC KC KC KC KC KC KC KC KC KC KC KC KC KC KC KC KC KC KC KC KC KC KC KC KC KC KC KC KC KC KC KC KC KC KC KC KC KC KC KC KC KC KC KC KC KC KC KC KC KC KC KC KC KC KC KC KC KC KC KC KC KC KC KC KC KC KC KC KC KC KC KC KC KC KC KC KC KC KC KC KC KC KC KC KC KC KC KC KC KC KC KC C C C RC RC RC RC RC RC RC RC RC RC RC RC RC RC RC RC RC RC RC RC RC RC RC RC RC RC RC RC RC RC RC RC RC RC RC RC RC RC RC RC RC RC RC RC RC RC RC RC RC RC RC RC RC RC RC RC RC RC RC RC RC RC RC RC RC RC RC RC RC RC RC RC RC RC RC RC RC RC RC RC RC RC RC RC RC RC RC RC RC RC RC RC RC RC RC RC RC RC RC RC RC RC RC RC RC RC RC RC RC RC RC RC RC RC RC RC RC RC RC RC RC RC RC RC RC RC RC RC RC RC RC RC RC RC RC RC RC RC RC RC RC RC RC RC RC RC RC RC RC RC RC RC     JA JA JA JA JA JA JA JA JA JA JA JA JA JA JA JA JA JA JA JA JA JA JA JA JA JA JA JA JA JA JA JA JA JA JA JA JA JA JA JA JA JA JA JA JA JA JA JA JA JA JA JA JA JA JA JA JA JA JA JA JA JA JA JA JA JA JA JA JA JA JA JA JA JA JA JA JA JA JA JA JA JA JA JA JA JA JA JA JA JA JA JA JA JA JA JA JA JA JA JA JA JA JA JA JA JA JA JA JA JA JA JA JA JA JA JA JA JA JA JA JA JA JA JA JA JA JA JA JA JA JA JA JA JA JA JA JA JA JA JA JA JA JA JA JA JA JA JA JA JA JA JA A A A PA PA PA PA PA PA PA PA PA PA PA PA PA PA PA PA PA PA PA PA PA PA PA PA PA PA PA PA PA PA PA PA PA PA PA PA PA PA PA PA PA PA PA PA PA PA PA PA PA PA PA PA PA PA PA PA PA PA PA PA PA PA PA PA PA PA PA PA PA PA PA PA PA PA PA PA PA PA PA PA PA PA PA PA PA PA PA PA PA PA PA PA PA PA PA PA PA PA PA PA PA PA PA PA PA PA PA PA PA PA PA PA PA PA PA PA PA PA PA PA PA PA PA PA PA PA PA PA PA PA PA PA PA PA PA PA PA PA PA PA PA PA PA PA PA PA PA PA PA PA PA PA     O? O? O? O? O? O? O? O? O? O? O? O? O? O? O? O? O? O? O? O? O? O? O? O? O? O? O? O? O? O? O? O? O? O? O? O? O? O? O? O? O? O? O? O? O? O? O? O? O? O? O? O? O? O? O? O? O? O? O? O? O? O? O? O? O? O? O? O? O? O? O? O? O? O? O? O? O? O? O? O? O? O? O? O? O? O? O? O? O? O? O? O? O? O? O? O? O? O? O? O? O? O? O? O? O? O? O? O? O? O? O? O? O? O? O? O? O? O? O? O? O? O? O? O? O? O? O? O? O? O? O? O? O? O? O? O? O? O? O? O? O? O? O? O? O? O? O? O? O? O? O? O? ? ? ? K? K? K? K? K? K? K? K? K? K? K? K? K? K? K? K? K? K? K? K? K? K? K? K? K? K? K? K? K? K? K? K? K? K? K? K? K? K? K? K? K? K? K? K? K? K? K? K? K? K? K? K? K? K? K? K? K? K? K? K? K? K? K? K? K? K? K? K? K? K? K? K? K? K? K? K? K? K? K? K? K? K? K? K? K? K? K? K? K? K? K? K? K? K? K? K? K? K? K? K? K? K? K? K? K? K? K? K? K? K? K? K? K? K? K? K? K? K? K? K? K? K? K? K? K? K? K? K? K? K? K? K? K? K? K? K? K? K? K? K? K? K? K? K? K? K? K? K? K? K? K? K? ? ? ? ? H9? H9? H9? H9? H9? H9? H9? H9? H9? H9? H9? H9? H9? H9? H9? H9? H9? H9? H9? H9? H9? H9? H9? H9? H9? H9? H9? H9? H9? H9? H9? H9? H9? H9? H9? H9? H9? H9? H9? H9? H9? H9? H9? H9? H9? H9? H9? H9? H9? H9? H9? H9? H9? H9? H9? H9? H9? H9? H9? H9? H9? H9? H9? H9? H9? H9? H9? H9? H9? H9? H9? H9? H9? H9? H9? H9? H9? H9? H9? H9? H9? H9? H9? H9? H9? H9? H9? H9? H9? H9? H9? H9? H9? H9? H9? H9? H9? H9? H9? H9? H9? H9? H9? H9? H9? H9? H9? H9? H9? H9? H9? H9? H9? H9? H9? H9? H9? H9? H9? H9? H9? H9? H9? H9? H9? H9? H9? H9? H9? H9? H9? H9? H9? H9? H9? H9? H9? H9? H9? H9? H9? H9? H9? H9? H9? H9? H9? H9? H9? H9? H9? H9? 9? 9? 9? O9? O9? O9? O9? O9? O9? O9? O9? O9? O9? O9? O9? O9? O9? O9? O9? O9? O9? O9? O9? O9? O9? O9? O9? O9? O9? O9? O9? O9? O9? O9? O9? O9? O9? O9? O9? O9? O9? O9? O9? O9? O9? O9? O9? O9? O9? O9? O9? O9? O9? O9? O9? O9? O9? O9? O9? O9? O9? O9? O9? O9? O9? O9? O9? O9? O9? O9? O9? O9? O9? O9? O9? O9? O9? O9? O9? O9? O9? O9? O9? O9? O9? O9? O9? O9? O9? O9? O9? O9? O9? O9? O9? O9? O9? O9? O9? O9? O9? O9? O9? O9? O9? O9? O9? O9? O9? O9? O9? O9? O9? O9? O9? O9? O9? O9? O9? O9? O9? O9? O9? O9? O9? O9? O9? O9? O9? O9? O9? O9? O9? O9? O9? O9? O9? O9? O9? O9? O9? O9? O9? O9? O9? O9? O9? O9? O9? O9? O9? O9? O9? O9? O9? ? ? ? ? F:? F:? F:? F:? F:? F:? F:? F:? F:? F:? F:? F:? F:? F:? F:? F:? F:? F:? F:? F:? F:? F:? F:? F:? F:? F:? F:? F:? F:? F:? F:? F:? F:? F:? F:? F:? F:? F:? F:? F:? F:? F:? F:? F:? F:? F:? F:? F:? F:? F:? F:? F:? F:? F:? F:? F:? F:? F:? F:? F:? F:? F:? F:? F:? F:? F:? F:? F:? F:? F:? F:? F:? F:? F:? F:? F:? F:? F:? F:? F:? F:? F:? F:? F:? F:? F:? F:? F:? F:? F:? F:? F:? F:? F:? F:? F:? F:? F:? F:? F:? F:? F:? F:? F:? F:? F:? F:? F:? F:? F:? F:? F:? F:? F:? F:? F:? F:? F:? F:? F:? F:? F:? F:? F:? F:? F:? F:? F:? F:? F:? F:? F:? F:? F:? F:? F:? F:? F:? F:? F:? F:? F:? F:? F:? F:? F:? F:? F:? F:? F:? F:? F:? :? :? :? O:? O:? O:? O:? O:? O:? O:? O:? O:? O:? O:? O:? O:? O:? O:? O:? O:? O:? O:? O:? O:? O:? O:? O:? O:? O:? O:? O:? O:? O:? O:? O:? O:? O:? O:? O:? O:? O:? O:? O:? O:? O:? O:? O:? O:? O:? O:? O:? O:? O:? O:? O:? O:? O:? O:? O:? O:? O:? O:? O:? O:? O:? O:? O:? O:? O:? O:? O:? O:? O:? O:? O:? O:? O:? O:? O:? O:? O:? O:? O:? O:? O:? O:? O:? O:? O:? O:? O:? O:? O:? O:? O:? O:? O:? O:? O:? O:? O:? O:? O:? O:? O:? O:? O:? O:? O:? O:? O:? O:? O:? O:? O:? O:? O:? O:? O:? O:? O:? O:? O:? O:? O:? O:? O:? O:? O:? O:? O:? O:? O:? O:? O:? O:? O:? O:? O:? O:? O:? O:? O:? O:? O:? O:? O:? O:? O:? O:? O:? O:? O:? O:? O:? ? ? ? ? E<? E<? E<? E<? E<? E<? E<? E<? E<? E<? E<? E<? E<? E<? E<? E<? E<? E<? E<? E<? E<? E<? E<? E<? E<? E<? E<? E<? E<? E<? E<? E<? E<? E<? E<? E<? E<? E<? E<? E<? E<? E<? E<? E<? E<? E<? E<? E<? E<? E<? E<? E<? E<? E<? E<? E<? E<? E<? E<? E<? E<? E<? E<? E<? E<? E<? E<? E<? E<? E<? E<? E<? E<? E<? E<? E<? E<? E<? E<? E<? E<? E<? E<? E<? E<? E<? E<? E<? E<? E<? E<? E<? E<? E<? E<? E<? E<? E<? E<? E<? E<? E<? E<? E<? E<? E<? E<? E<? E<? E<? E<? E<? E<? E<? E<? E<? E<? E<? E<? E<? E<? E<? E<? E<? E<? E<? E<? E<? E<? E<? E<? E<? E<? E<? E<? E<? E<? E<? E<? E<? E<? E<? E<? E<? E<? E<? E<? E<? E<? E<? E<? E<? <? <? <? O<? O<? O<? O<? O<? O<? O<? O<? O<? O<? O<? O<? O<? O<? O<? O<? O<? O<? O<? O<? O<? O<? O<? O<? O<? O<? O<? O<? O<? O<? O<? O<? O<? O<? O<? O<? O<? O<? O<? O<? O<? O<? O<? O<? O<? O<? O<? O<? O<? O<? O<? O<? O<? O<? O<? O<? O<? O<? O<? O<? O<? O<? O<? O<? O<? O<? O<? O<? O<? O<? O<? O<? O<? O<? O<? O<? O<? O<? O<? O<? O<? O<? O<? O<? O<? O<? O<? O<? O<? O<? O<? O<? O<? O<? O<? O<? O<? O<? O<? O<? O<? O<? O<? O<? O<? O<? O<? O<? O<? O<? O<? O<? O<? O<? O<? O<? O<? O<? O<? O<? O<? O<? O<? O<? O<? O<? O<? O<? O<? O<? O<? O<? O<? O<? O<? O<? O<? O<? O<? O<? O<? O<? O<? O<? O<? O<? O<? O<? O<? O<? O<? O<? ? ? ? ? F:? F:? F:? F:? F:? F:? F:? F:? F:? F:? F:? F:? F:? F:? F:? F:? F:? F:? F:? F:? F:? F:? F:? F:? F:? F:? F:? F:? F:? F:? F:? F:? F:? F:? F:? F:? F:? F:? F:? F:? F:? F:? F:? F:? F:? F:? F:? F:? F:? F:? F:? F:? F:? F:? F:? F:? F:? F:? F:? F:? F:? F:? F:? F:? F:? F:? F:? F:? F:? F:? F:? F:? F:? F:? F:? F:? F:? F:? F:? F:? F:? F:? F:? F:? F:? F:? F:? F:? F:? F:? F:? F:? F:? F:? F:? F:? F:? F:? F:? F:? F:? F:? F:? F:? F:? F:? F:? F:? F:? F:? F:? F:? F:? F:? F:? F:? F:? F:? F:? F:? F:? F:? F:? F:? F:? F:? F:? F:? F:? F:? F:? F:? F:? F:? F:? F:? F:? F:? F:? F:? F:? F:? F:? F:? F:? F:? F:? F:? F:? F:? F:? F:? :? :? :? O:? O:? O:? O:? O:? O:? O:? O:? O:? O:? O:? O:? O:? O:? O:? O:? O:? O:? O:? O:? O:? O:? O:? O:? O:? O:? O:? O:? O:? O:? O:? O:? O:? O:? O:? O:? O:? O:? O:? O:? O:? O:? O:? O:? O:? O:? O:? O:? O:? O:? O:? O:? O:? O:? O:? O:? O:? O:? O:? O:? O:? O:? O:? O:? O:? O:? O:? O:? O:? O:? O:? O:? O:? O:? O:? O:? O:? O:? O:? O:? O:? O:? O:? O:? O:? O:? O:? O:? O:? O:? O:? O:? O:? O:? O:? O:? O:? O:? O:? O:? O:? O:? O:? O:? O:? O:? O:? O:? O:? O:? O:? O:? O:? O:? O:? O:? O:? O:? O:? O:? O:? O:? O:? O:? O:? O:? O:? O:? O:? O:? O:? O:? O:? O:? O:? O:? O:? O:? O:? O:? O:? O:? O:? O:? O:? O:? O:? O:? O:? O:? O:? O:? ? ? ? ? H9? H9? H9? H9? H9? H9? H9? H9? H9? H9? H9? H9? H9? H9? H9? H9? H9? H9? H9? H9? H9? H9? H9? H9? H9? H9? H9? H9? H9? H9? H9? H9? H9? H9? H9? H9? H9? H9? H9? H9? H9? H9? H9? H9? H9? H9? H9? H9? H9? H9? H9? H9? H9? H9? H9? H9? H9? H9? H9? H9? H9? H9? H9? H9? H9? H9? H9? H9? H9? H9? H9? H9? H9? H9? H9? H9? H9? H9? H9? H9? H9? H9? H9? H9? H9? H9? H9? H9? H9? H9? H9? H9? H9? H9? H9? H9? H9? H9? H9? H9? H9? H9? H9? H9? H9? H9? H9? H9? H9? H9? H9? H9? H9? H9? H9? H9? H9? H9? H9? H9? H9? H9? H9? H9? H9? H9? H9? H9? H9? H9? H9? H9? H9? H9? H9? H9? H9? H9? H9? H9? H9? H9? H9? H9? H9? H9? H9? H9? H9? H9? H9? H9? 9? 9? 9? O9? O9? O9? O9? O9? O9? O9? O9? O9? O9? O9? O9? O9? O9? O9? O9? O9? O9? O9? O9? O9? O9? O9? O9? O9? O9? O9? O9? O9? O9? O9? O9? O9? O9? O9? O9? O9? O9? O9? O9? O9? O9? O9? O9? O9? O9? O9? O9? O9? O9? O9? O9? O9? O9? O9? O9? O9? O9? O9? O9? O9? O9? O9? O9? O9? O9? O9? O9? O9? O9? O9? O9? O9? O9? O9? O9? O9? O9? O9? O9? O9? O9? O9? O9? O9? O9? O9? O9? O9? O9? O9? O9? O9? O9? O9? O9? O9? O9? O9? O9? O9? O9? O9? O9? O9? O9? O9? O9? O9? O9? O9? O9? O9? O9? O9? O9? O9? O9? O9? O9? O9? O9? O9? O9? O9? O9? O9? O9? O9? O9? O9? O9? O9? O9? O9? O9? O9? O9? O9? O9? O9? O9? O9? O9? O9? O9? O9? O9? O9? O9? O9? O9? ?    >N >N >N >N >N >N >N >N >N >N >N >N >N >N >N >N >N >N >N >N >N >N >N >N >N >N >N >N >N >N >N >N >N >N >N >N >N >N >N >N >N >N >N >N >N >N >N >N >N >N >N >N >N >N >N >N >N >N >N >N >N >N >N >N >N >N >N >N >N >N >N >N >N >N >N >N >N >N >N >N >N >N >N >N >N >N >N >N >N >N >N >N >N >N >N >N >N >N >N >N >N >N >N >N >N >N >N >N >N >N >N >N >N >N >N >N >N >N >N >N >N >N >N >N >N >N >N >N >N >N >N >N >N >N >N >N >N >N >N >N >N >N >N >N >N >N >N >N >N >N >N >N N N N <N <N <N <N <N <N <N <N <N <N <N <N <N <N <N <N <N <N <N <N <N <N <N <N <N <N <N <N <N <N <N <N <N <N <N <N <N <N <N <N <N <N <N <N <N <N <N <N <N <N <N <N <N <N <N <N <N <N <N <N <N <N <N <N <N <N <N <N <N <N <N <N <N <N <N <N <N <N <N <N <N <N <N <N <N <N <N <N <N <N <N <N <N <N <N <N <N <N <N <N <N <N <N <N <N <N <N <N <N <N <N <N <N <N <N <N <N <N <N <N <N <N <N <N <N <N <N <N <N <N <N <N <N <N <N <N <N <N <N <N <N <N <N <N <N <N <N <N <N <N <N <N     :OJ :OJ :OJ :OJ :OJ :OJ :OJ :OJ :OJ :OJ :OJ :OJ :OJ :OJ :OJ :OJ :OJ :OJ :OJ :OJ :OJ :OJ :OJ :OJ :OJ :OJ :OJ :OJ :OJ :OJ :OJ :OJ :OJ :OJ :OJ :OJ :OJ :OJ :OJ :OJ :OJ :OJ :OJ :OJ :OJ :OJ :OJ :OJ :OJ :OJ :OJ :OJ :OJ :OJ :OJ :OJ :OJ :OJ :OJ :OJ :OJ :OJ :OJ :OJ :OJ :OJ :OJ :OJ :OJ :OJ :OJ :OJ :OJ :OJ :OJ :OJ :OJ :OJ :OJ :OJ :OJ :OJ :OJ :OJ :OJ :OJ :OJ :OJ :OJ :OJ :OJ :OJ :OJ :OJ :OJ :OJ :OJ :OJ :OJ :OJ :OJ :OJ :OJ :OJ :OJ :OJ :OJ :OJ :OJ :OJ :OJ :OJ :OJ :OJ :OJ :OJ :OJ :OJ :OJ :OJ :OJ :OJ :OJ :OJ :OJ :OJ :OJ :OJ :OJ :OJ :OJ :OJ :OJ :OJ :OJ :OJ :OJ :OJ :OJ :OJ :OJ :OJ :OJ :OJ :OJ :OJ :OJ :OJ :OJ :OJ :OJ :OJ OJ OJ OJ OJ OJ< OJ< OJ< OJ< OJ< OJ< OJ< OJ< OJ< OJ< OJ< OJ< OJ< OJ< OJ< OJ< OJ< OJ< OJ< OJ< OJ< OJ< OJ< OJ< OJ< OJ< OJ< OJ< OJ< OJ< OJ< OJ< OJ< OJ< OJ< OJ< OJ< OJ< OJ< OJ< OJ< OJ< OJ< OJ< OJ< OJ< OJ< OJ< OJ< OJ< OJ< OJ< OJ< OJ< OJ< OJ< OJ< OJ< OJ< OJ< OJ< OJ< OJ< OJ< OJ< OJ< OJ< OJ< OJ< OJ< OJ< OJ< OJ< OJ< OJ< OJ< OJ< OJ< OJ< OJ< OJ< OJ< OJ< OJ< OJ< OJ< OJ< OJ< OJ< OJ< OJ< OJ< OJ< OJ< OJ< OJ< OJ< OJ< OJ< OJ< OJ< OJ< OJ< OJ< OJ< OJ< OJ< OJ< OJ< OJ< OJ< OJ< OJ< OJ< OJ< OJ< OJ< OJ< OJ< OJ< OJ< OJ< OJ< OJ< OJ< OJ< OJ< OJ< OJ< OJ< OJ< OJ< OJ< OJ< OJ< OJ< OJ< OJ< OJ< OJ< OJ< OJ< OJ< OJ< OJ< OJ< OJ< OJ< OJ< OJ< OJ< <    9MH 9MH 9MH 9MH 9MH 9MH 9MH 9MH 9MH 9MH 9MH 9MH 9MH 9MH 9MH 9MH 9MH 9MH 9MH 9MH 9MH 9MH 9MH 9MH 9MH 9MH 9MH 9MH 9MH 9MH 9MH 9MH 9MH 9MH 9MH 9MH 9MH 9MH 9MH 9MH 9MH 9MH 9MH 9MH 9MH 9MH 9MH 9MH 9MH 9MH 9MH 9MH 9MH 9MH 9MH 9MH 9MH 9MH 9MH 9MH 9MH 9MH 9MH 9MH 9MH 9MH 9MH 9MH 9MH 9MH 9MH 9MH 9MH 9MH 9MH 9MH 9MH 9MH 9MH 9MH 9MH 9MH 9MH 9MH 9MH 9MH 9MH 9MH 9MH 9MH 9MH 9MH 9MH 9MH 9MH 9MH 9MH 9MH 9MH 9MH 9MH 9MH 9MH 9MH 9MH 9MH 9MH 9MH 9MH 9MH 9MH 9MH 9MH 9MH 9MH 9MH 9MH 9MH 9MH 9MH 9MH 9MH 9MH 9MH 9MH 9MH 9MH 9MH 9MH 9MH 9MH 9MH 9MH 9MH 9MH 9MH 9MH 9MH 9MH 9MH 9MH 9MH 9MH 9MH 9MH 9MH 9MH 9MH 9MH 9MH 9MH 9MH MH MH MH MH MH: MH: MH: MH: MH: MH: MH: MH: MH: MH: MH: MH: MH: MH: MH: MH: MH: MH: MH: MH: MH: MH: MH: MH: MH: MH: MH: MH: MH: MH: MH: MH: MH: MH: MH: MH: MH: MH: MH: MH: MH: MH: MH: MH: MH: MH: MH: MH: MH: MH: MH: MH: MH: MH: MH: MH: MH: MH: MH: MH: MH: MH: MH: MH: MH: MH: MH: MH: MH: MH: MH: MH: MH: MH: MH: MH: MH: MH: MH: MH: MH: MH: MH: MH: MH: MH: MH: MH: MH: MH: MH: MH: MH: MH: MH: MH: MH: MH: MH: MH: MH: MH: MH: MH: MH: MH: MH: MH: MH: MH: MH: MH: MH: MH: MH: MH: MH: MH: MH: MH: MH: MH: MH: MH: MH: MH: MH: MH: MH: MH: MH: MH: MH: MH: MH: MH: MH: MH: MH: MH: MH: MH: MH: MH: MH: MH: MH: MH: MH: MH: MH: :    7KF 7KF 7KF 7KF 7KF 7KF 7KF 7KF 7KF 7KF 7KF 7KF 7KF 7KF 7KF 7KF 7KF 7KF 7KF 7KF 7KF 7KF 7KF 7KF 7KF 7KF 7KF 7KF 7KF 7KF 7KF 7KF 7KF 7KF 7KF 7KF 7KF 7KF 7KF 7KF 7KF 7KF 7KF 7KF 7KF 7KF 7KF 7KF 7KF 7KF 7KF 7KF 7KF 7KF 7KF 7KF 7KF 7KF 7KF 7KF 7KF 7KF 7KF 7KF 7KF 7KF 7KF 7KF 7KF 7KF 7KF 7KF 7KF 7KF 7KF 7KF 7KF 7KF 7KF 7KF 7KF 7KF 7KF 7KF 7KF 7KF 7KF 7KF 7KF 7KF 7KF 7KF 7KF 7KF 7KF 7KF 7KF 7KF 7KF 7KF 7KF 7KF 7KF 7KF 7KF 7KF 7KF 7KF 7KF 7KF 7KF 7KF 7KF 7KF 7KF 7KF 7KF 7KF 7KF 7KF 7KF 7KF 7KF 7KF 7KF 7KF 7KF 7KF 7KF 7KF 7KF 7KF 7KF 7KF 7KF 7KF 7KF 7KF 7KF 7KF 7KF 7KF 7KF 7KF 7KF 7KF 7KF 7KF 7KF 7KF 7KF 7KF KF KF KF KF KF: KF: KF: KF: KF: KF: KF: KF: KF: KF: KF: KF: KF: KF: KF: KF: KF: KF: KF: KF: KF: KF: KF: KF: KF: KF: KF: KF: KF: KF: KF: KF: KF: KF: KF: KF: KF: KF: KF: KF: KF: KF: KF: KF: KF: KF: KF: KF: KF: KF: KF: KF: KF: KF: KF: KF: KF: KF: KF: KF: KF: KF: KF: KF: KF: KF: KF: KF: KF: KF: KF: KF: KF: KF: KF: KF: KF: KF: KF: KF: KF: KF: KF: KF: KF: KF: KF: KF: KF: KF: KF: KF: KF: KF: KF: KF: KF: KF: KF: KF: KF: KF: KF: KF: KF: KF: KF: KF: KF: KF: KF: KF: KF: KF: KF: KF: KF: KF: KF: KF: KF: KF: KF: KF: KF: KF: KF: KF: KF: KF: KF: KF: KF: KF: KF: KF: KF: KF: KF: KF: KF: KF: KF: KF: KF: KF: KF: KF: KF: KF: KF: :    5JE 5JE 5JE 5JE 5JE 5JE 5JE 5JE 5JE 5JE 5JE 5JE 5JE 5JE 5JE 5JE 5JE 5JE 5JE 5JE 5JE 5JE 5JE 5JE 5JE 5JE 5JE 5JE 5JE 5JE 5JE 5JE 5JE 5JE 5JE 5JE 5JE 5JE 5JE 5JE 5JE 5JE 5JE 5JE 5JE 5JE 5JE 5JE 5JE 5JE 5JE 5JE 5JE 5JE 5JE 5JE 5JE 5JE 5JE 5JE 5JE 5JE 5JE 5JE 5JE 5JE 5JE 5JE 5JE 5JE 5JE 5JE 5JE 5JE 5JE 5JE 5JE 5JE 5JE 5JE 5JE 5JE 5JE 5JE 5JE 5JE 5JE 5JE 5JE 5JE 5JE 5JE 5JE 5JE 5JE 5JE 5JE 5JE 5JE 5JE 5JE 5JE 5JE 5JE 5JE 5JE 5JE 5JE 5JE 5JE 5JE 5JE 5JE 5JE 5JE 5JE 5JE 5JE 5JE 5JE 5JE 5JE 5JE 5JE 5JE 5JE 5JE 5JE 5JE 5JE 5JE 5JE 5JE 5JE 5JE 5JE 5JE 5JE 5JE 5JE 5JE 5JE 5JE 5JE 5JE 5JE 5JE 5JE 5JE 5JE 5JE 5JE JE JE JE JE JE: JE: JE: JE: JE: JE: JE: JE: JE: JE: JE: JE: JE: JE: JE: JE: JE: JE: JE: JE: JE: JE: JE: JE: JE: JE: JE: JE: JE: JE: JE: JE: JE: JE: JE: JE: JE: JE: JE: JE: JE: JE: JE: JE: JE: JE: JE: JE: JE: JE: JE: JE: JE: JE: JE: JE: JE: JE: JE: JE: JE: JE: JE: JE: JE: JE: JE: JE: JE: JE: JE: JE: JE: JE: JE: JE: JE: JE: JE: JE: JE: JE: JE: JE: JE: JE: JE: JE: JE: JE: JE: JE: JE: JE: JE: JE: JE: JE: JE: JE: JE: JE: JE: JE: JE: JE: JE: JE: JE: JE: JE: JE: JE: JE: JE: JE: JE: JE: JE: JE: JE: JE: JE: JE: JE: JE: JE: JE: JE: JE: JE: JE: JE: JE: JE: JE: JE: JE: JE: JE: JE: JE: JE: JE: JE: JE: JE: JE: JE: JE: JE: :    3HC 3HC 3HC 3HC 3HC 3HC 3HC 3HC 3HC 3HC 3HC 3HC 3HC 3HC 3HC 3HC 3HC 3HC 3HC 3HC 3HC 3HC 3HC 3HC 3HC 3HC 3HC 3HC 3HC 3HC 3HC 3HC 3HC 3HC 3HC 3HC 3HC 3HC 3HC 3HC 3HC 3HC 3HC 3HC 3HC 3HC 3HC 3HC 3HC 3HC 3HC 3HC 3HC 3HC 3HC 3HC 3HC 3HC 3HC 3HC 3HC 3HC 3HC 3HC 3HC 3HC 3HC 3HC 3HC 3HC 3HC 3HC 3HC 3HC 3HC 3HC 3HC 3HC 3HC 3HC 3HC 3HC 3HC 3HC 3HC 3HC 3HC 3HC 3HC 3HC 3HC 3HC 3HC 3HC 3HC 3HC 3HC 3HC 3HC 3HC 3HC 3HC 3HC 3HC 3HC 3HC 3HC 3HC 3HC 3HC 3HC 3HC 3HC 3HC 3HC 3HC 3HC 3HC 3HC 3HC 3HC 3HC 3HC 3HC 3HC 3HC 3HC 3HC 3HC 3HC 3HC 3HC 3HC 3HC 3HC 3HC 3HC 3HC 3HC 3HC 3HC 3HC 3HC 3HC 3HC 3HC 3HC 3HC 3HC 3HC 3HC 3HC HC HC HC HC HC: HC: HC: HC: HC: HC: HC: HC: HC: HC: HC: HC: HC: HC: HC: HC: HC: HC: HC: HC: HC: HC: HC: HC: HC: HC: HC: HC: HC: HC: HC: HC: HC: HC: HC: HC: HC: HC: HC: HC: HC: HC: HC: HC: HC: HC: HC: HC: HC: HC: HC: HC: HC: HC: HC: HC: HC: HC: HC: HC: HC: HC: HC: HC: HC: HC: HC: HC: HC: HC: HC: HC: HC: HC: HC: HC: HC: HC: HC: HC: HC: HC: HC: HC: HC: HC: HC: HC: HC: HC: HC: HC: HC: HC: HC: HC: HC: HC: HC: HC: HC: HC: HC: HC: HC: HC: HC: HC: HC: HC: HC: HC: HC: HC: HC: HC: HC: HC: HC: HC: HC: HC: HC: HC: HC: HC: HC: HC: HC: HC: HC: HC: HC: HC: HC: HC: HC: HC: HC: HC: HC: HC: HC: HC: HC: HC: HC: HC: HC: HC: HC: :    2FMA 2FMA 2FMA 2FMA 2FMA 2FMA 2FMA 2FMA 2FMA 2FMA 2FMA 2FMA 2FMA 2FMA 2FMA 2FMA 2FMA 2FMA 2FMA 2FMA 2FMA 2FMA 2FMA 2FMA 2FMA 2FMA 2FMA 2FMA 2FMA 2FMA 2FMA 2FMA 2FMA 2FMA 2FMA 2FMA 2FMA 2FMA 2FMA 2FMA 2FMA 2FMA 2FMA 2FMA 2FMA 2FMA 2FMA 2FMA 2FMA 2FMA 2FMA 2FMA 2FMA 2FMA 2FMA 2FMA 2FMA 2FMA 2FMA 2FMA 2FMA 2FMA 2FMA 2FMA 2FMA 2FMA 2FMA 2FMA 2FMA 2FMA 2FMA 2FMA 2FMA 2FMA 2FMA 2FMA 2FMA 2FMA 2FMA 2FMA 2FMA 2FMA 2FMA 2FMA 2FMA 2FMA 2FMA 2FMA 2FMA 2FMA 2FMA 2FMA 2FMA 2FMA 2FMA 2FMA 2FMA 2FMA 2FMA 2FMA 2FMA 2FMA 2FMA 2FMA 2FMA 2FMA 2FMA 2FMA 2FMA 2FMA 2FMA 2FMA 2FMA 2FMA 2FMA 2FMA 2FMA 2FMA 2FMA 2FMA 2FMA 2FMA 2FMA 2FMA 2FMA 2FMA 2FMA 2FMA 2FMA 2FMA 2FMA 2FMA 2FMA 2FMA 2FMA 2FMA 2FMA 2FMA 2FMA 2FMA 2FMA 2FMA 2FMA 2FMA 2FMA 2FMA 2FMA 2FMA 2FMA 2FMA 2FMA 2FMA FMA FMA FMA FMA FM:A FM:A FM:A FM:A FM:A FM:A FM:A FM:A FM:A FM:A FM:A FM:A FM:A FM:A FM:A FM:A FM:A FM:A FM:A FM:A FM:A FM:A FM:A FM:A FM:A FM:A FM:A FM:A FM:A FM:A FM:A FM:A FM:A FM:A FM:A FM:A FM:A FM:A FM:A FM:A FM:A FM:A FM:A FM:A FM:A FM:A FM:A FM:A FM:A FM:A FM:A FM:A FM:A FM:A FM:A FM:A FM:A FM:A FM:A FM:A FM:A FM:A FM:A FM:A FM:A FM:A FM:A FM:A FM:A FM:A FM:A FM:A FM:A FM:A FM:A FM:A FM:A FM:A FM:A FM:A FM:A FM:A FM:A FM:A FM:A FM:A FM:A FM:A FM:A FM:A FM:A FM:A FM:A FM:A FM:A FM:A FM:A FM:A FM:A FM:A FM:A FM:A FM:A FM:A FM:A FM:A FM:A FM:A FM:A FM:A FM:A FM:A FM:A FM:A FM:A FM:A FM:A FM:A FM:A FM:A FM:A FM:A FM:A FM:A FM:A FM:A FM:A FM:A FM:A FM:A FM:A FM:A FM:A FM:A FM:A FM:A FM:A FM:A FM:A FM:A FM:A FM:A FM:A FM:A FM:A FM:A FM:A FM:A FM:A FM:A FM:A :A A A A 0AEK 0AEK 0AEK 0AEK 0AEK 0AEK 0AEK 0AEK 0AEK 0AEK 0AEK 0AEK 0AEK 0AEK 0AEK 0AEK 0AEK 0AEK 0AEK 0AEK 0AEK 0AEK 0AEK 0AEK 0AEK 0AEK 0AEK 0AEK 0AEK 0AEK 0AEK 0AEK 0AEK 0AEK 0AEK 0AEK 0AEK 0AEK 0AEK 0AEK 0AEK 0AEK 0AEK 0AEK 0AEK 0AEK 0AEK 0AEK 0AEK 0AEK 0AEK 0AEK 0AEK 0AEK 0AEK 0AEK 0AEK 0AEK 0AEK 0AEK 0AEK 0AEK 0AEK 0AEK 0AEK 0AEK 0AEK 0AEK 0AEK 0AEK 0AEK 0AEK 0AEK 0AEK 0AEK 0AEK 0AEK 0AEK 0AEK 0AEK 0AEK 0AEK 0AEK 0AEK 0AEK 0AEK 0AEK 0AEK 0AEK 0AEK 0AEK 0AEK 0AEK 0AEK 0AEK 0AEK 0AEK 0AEK 0AEK 0AEK 0AEK 0AEK 0AEK 0AEK 0AEK 0AEK 0AEK 0AEK 0AEK 0AEK 0AEK 0AEK 0AEK 0AEK 0AEK 0AEK 0AEK 0AEK 0AEK 0AEK 0AEK 0AEK 0AEK 0AEK 0AEK 0AEK 0AEK 0AEK 0AEK 0AEK 0AEK 0AEK 0AEK 0AEK 0AEK 0AEK 0AEK 0AEK 0AEK 0AEK 0AEK 0AEK 0AEK 0AEK 0AEK 0AEK 0AEK 0AEK 0AEK 0AEK 0AEK 0AEK AEK AEK AEK AEK A:EK A:EK A:EK A:EK A:EK A:EK A:EK A:EK A:EK A:EK A:EK A:EK A:EK A:EK A:EK A:EK A:EK A:EK A:EK A:EK A:EK A:EK A:EK A:EK A:EK A:EK A:EK A:EK A:EK A:EK A:EK A:EK A:EK A:EK A:EK A:EK A:EK A:EK A:EK A:EK A:EK A:EK A:EK A:EK A:EK A:EK A:EK A:EK A:EK A:EK A:EK A:EK A:EK A:EK A:EK A:EK A:EK A:EK A:EK A:EK A:EK A:EK A:EK A:EK A:EK A:EK A:EK A:EK A:EK A:EK A:EK A:EK A:EK A:EK A:EK A:EK A:EK A:EK A:EK A:EK A:EK A:EK A:EK A:EK A:EK A:EK A:EK A:EK A:EK A:EK A:EK A:EK A:EK A:EK A:EK A:EK A:EK A:EK A:EK A:EK A:EK A:EK A:EK A:EK A:EK A:EK A:EK A:EK A:EK A:EK A:EK A:EK A:EK A:EK A:EK A:EK A:EK A:EK A:EK A:EK A:EK A:EK A:EK A:EK A:EK A:EK A:EK A:EK A:EK A:EK A:EK A:EK A:EK A:EK A:EK A:EK A:EK A:EK A:EK A:EK A:EK A:EK A:EK A:EK A:EK A:EK A:EK A:EK :EK :EK :EK :EK EK EK EK EK.A EK.A EK.A EK.A EK.A EK.A EK.A EK.A EK.A EK.A EK.A EK.A EK.A EK.A EK.A EK.A EK.A EK.A EK.A EK.A EK.A EK.A EK.A EK.A EK.A EK.A EK.A EK.A EK.A K.A K.A K.A K.A K.A K.A K.A K.A K.A K.A K.A K.A K.A K.A K.A K.A K.A K.A K.A K.A K.A K.A K.A K.A K.A K.A K.A K.A K.A K.A K.A K.A K.A K.A K.A K.A K.A K.A K.A K.A K.A K.A K.A K.A K.A K.A K.A K.A .A .AF .AF .AF .AF .AF .AF .AF .AF .AF .AF .AF .AF .AF .AF .AF .AF .AF .AF .AF .AF .AF .AF .AF .AF .AF .AF .AF .AF .AF .AF .AF .AF .AF .AF .AF .AF .AF .AF .AF .AF .AF .AF .AF .AF .AF .AF .AF .AF .AF .AF .AF .AF .AF .AF .AF .AF .AF .AF .AF .AF .AF .AF .AF .AF .AF .AF .AF .AF .AF .AF .AF .AF .AF .AF AF AF AF AF :JAF :JAF :JAF :JAF :JAF :JAF :JAF :JAF :JAF :JAF :JAF :JAF :JAF :JAF :JAF :JAF :JAF :JAF :JAF :JAF :JAF :JAF :JAF :JAF :JAF :JAF :JAF :JAF :JAF :JAF :JAF :JAF :JAF :JAF :JAF :JAF :JAF :JAF :JAF :JAF :JAF :JAF :JAF :JAF :JAF :JAF :JAF :JAF :JAF :JAF :JAF :JAF :JAF :JAF :JAF :JAF :JAF :JAF :JAF :JAF :JAF :JAF :JAF :JAF :JAF :JAF :JAF :JAF :JAF :JAF :JAF :JAF :JAF :JAF :JAF :JAF :JAF :JAF :JAF :JAF :JAF :JAF :JAF :JAF :JAF :JAF :JAF :JAF :JAF :JAF :JAF :JAF :JAF :JAF :JAF :JAF :JAF :JAF :JAF :JAF :JAF :JAF :JAF :JAF :JAF :JAF :JAF :JAF :JAF :JAF :JAF :JAF :JAF :JAF :JAF :JAF :JAF :JAF :JAF :JAF :JAF :JAF :JAF :JAF :JAF :JAF :JAF :JAF :JAF :JAF :JAF :JAF :JAF :JAF :JAF :JAF :JAF :JAF :JAF :JAF :JAF :JAF :JAF :JAF :JAF :JAF :JAF :JAF :JAF :JAF :JAF :JAF JAF JAF JAF JAF3 JAF3 JAF3 JAF3 JAF3 JAF3 JAF3 JAF3 JAF3 JAF3 JAF3 JAF3 JAF3 JAF3 JAF3 JAF3 JAF3 JAF3 JAF3 JAF3 JAF3 JAF3 JAF3 JAF3 JAF3 JAF3 JAF3 JAF3 JAF3 JAF3 JAF3 JAF3 JAF3 JAF3 JAF3 JAF3 JAF3 JAF3 JAF3 JAF3 JAF3 JAF3 JAF3 JAF3 JAF3 JAF3 JAF3 JAF3 JAF3 JAF3 JAF3 JAF3 JAF3 JAF3 JAF3 JAF3 JAF3 JAF3 JAF3 JAF3 JAF3 JAF3 JAF3 JAF3 JAF3 JAF3 JAF3 JAF3 JAF3 JAF3 JAF3 JAF3 JAF3 JAF3 JAF3 JAF3 JAF3 JAF3 JAF3 JAF3 JAF3 JAF3 JAF3 JAF3 JAF3 JAF3 JAF3 JAF3 JAF3 JAF3 JAF3 JAF3 JAF3 JAF3 JAF3 JAF3 JAF3 JAF3 JAF3 JAF3 JAF3 JAF3 JAF3 JAF3 JAF3 JAF3 JAF3 JAF3 JAF3 JAF3 JAF3 JAF3 JAF3 JAF3 JAF3 JAF3 JAF3 JAF3 JAF3 JAF3 JAF3 JAF3 JAF3 JAF3 JAF3 JAF3 JAF3 JAF3 JAF3 JAF3 JAF3 JAF3 JAF3 JAF3 JAF3 JAF3 JAF3 JAF3 JAF3 JAF3 JAF3 JAF3 JAF3 JAF3 JAF3 JAF3 JAF3 JAF3 JAF3 JAF3 JAF3 JAF3 F3 F3 F3 F3 F3O F3O F3O F3O F3O F3O F3O F3O F3O F3O F3O F3O F3O F3O F3O F3O F3O F3O F3O F3O F3O F3O F3O F3O F3O F3O F3O F3O F3O F3O F3O F3O F3O F3O F3O F3O F3O F3O F3O F3O F3O F3O F3O F3O F3O F3O F3O F3O F3O F3O F3O F3O F3O F3O F3O F3O F3O F3O F3O F3O F3O F3O F3O F3O F3O F3O F3O F3O F3O F3O F3O F3O F3O F3O F3O F3O F3O F3O F3O F3O F3O F3O F3O F3O F3O F3O F3O F3O F3O F3O F3O F3O F3O F3O F3O F3O F3O F3O F3O F3O F3O F3O F3O F3O F3O F3O F3O F3O F3O F3O F3O F3O F3O F3O F3O F3O F3O F3O F3O F3O F3O F3O F3O F3O F3O F3O F3O F3O F3O F3O F3O F3O F3O F3O F3O F3O F3O F3O F3O F3O F3O F3O F3O F3O F3O 3O 3O 3O 3O 3O 3O O    J5E J5E J5E J5E J5E J5E J5E J5E J5E J5E J5E J5E J5E J5E J5E J5E J5E J5E J5E J5E J5E J5E J5E J5E J5E J5E J5E J5E J5E J5E J5E J5E J5E J5E J5E J5E J5E J5E J5E J5E J5E J5E J5E J5E J5E J5E J5E J5E J5E J5E J5E J5E J5E J5E J5E J5E J5E J5E J5E J5E J5E J5E J5E J5E J5E J5E J5E J5E J5E J5E J5E J5E J5E J5E 5E 5E 5E 5E H5E H5E H5E H5E H5E H5E H5E H5E H5E H5E H5E H5E H5E H5E H5E H5E H5E H5E H5E H5E H5E H5E H5E H5E H5E H5E H5E H5E H5E H5E H5E H5E H5E H5E H5E H5E H5E H5E H5E H5E H5E H5E H5E H5E H5E H5E H5E H5E H5E H5E H5E H5E H5E H5E H5E H5E H5E H5E H5E H5E H5E H5E H5E H5E H5E H5E H5E H5E H5E H5E H5E H5E H5E H5E 5E 5E 5E 5E J5E J5E J5E J5E J5E J5E J5E J5E J5E J5E J5E J5E J5E J5E J5E J5E J5E J5E J5E J5E J5E J5E J5E J5E J5E J5E J5E J5E J5E J5E J5E J5E J5E J5E J5E J5E J5E J5E J5E J5E J5E J5E J5E J5E J5E J5E J5E J5E J5E J5E J5E J5E J5E J5E J5E J5E J5E J5E J5E J5E J5E J5E J5E J5E J5E J5E J5E J5E J5E J5E J5E J5E J5E J5E 5E 5E 5E 5E 5HE 5HE 5HE 5HE 5HE 5HE 5HE 5HE 5HE 5HE 5HE 5HE 5HE 5HE 5HE 5HE 5HE 5HE 5HE 5HE 5HE 5HE 5HE 5HE 5HE 5HE 5HE 5HE 5HE 5HE 5HE 5HE 5HE 5HE 5HE 5HE 5HE 5HE 5HE 5HE 5HE 5HE 5HE 5HE 5HE 5HE 5HE 5HE 5HE 5HE 5HE 5HE 5HE 5HE 5HE 5HE 5HE 5HE 5HE 5HE 5HE 5HE 5HE 5HE 5HE 5HE 5HE 5HE 5HE 5HE 5HE 5HE 5HE HE E E E JE) JE) JE) JE) JE) JE) JE) JE) JE) JE) JE) JE) JE) JE) JE) JE) JE) JE) JE) JE) JE) JE) JE) JE) JE) JE) JE) JE) JE) JE) JE) JE) JE) JE) JE) JE) JE) JE) JE) JE) JE) JE) JE) JE) JE) JE) JE) JE) JE) JE) JE) JE) JE) JE) JE) JE) JE) JE) JE) JE) JE) JE) JE) JE) JE) JE) JE) JE) JE) JE) JE) JE) JE) JE) E) E) E) E) EH) EH) EH) EH) EH) EH) EH) EH) EH) EH) EH) EH) EH) EH) EH) EH) EH) EH) EH) EH) EH) EH) EH) EH) EH) EH) EH) EH) EH) EH) EH) EH) EH) EH) EH) EH) EH) EH) EH) EH) EH) EH) EH) EH) EH) EH) EH) EH) EH) EH) EH) EH) EH) EH) EH) EH) EH) EH) EH) EH) EH) EH) EH) EH) H) H) H) H) H) H) H) H) H) H) ) ) ) ) )F )F )F )F )F )F )F )F )F )F )F )F )F )F )F )F )F )F )F )F )F )F )F )F )F )F )F )F )F )F )F )F )F )F )F )F )F )F )F )F )F )F )F )F )F )F )F )F )F )F )F )F )F )F )F )F )F )F )F )F )F )F )F )F )F )F )F )F )F )F )F )F )F )F )F )F )F )F )F )F )F )F )F )F )F )F )F )F )F )F )F )F )F )F )F )F )F )F )F )F )F )F )F )F )F )F )F )F )F )F )F )F )F )F )F )F )F )F )F )F )F )F )F )F )F )F )F )F )F )F )F )F )F )F )F )F )F )F )F )F )F )F )F )F )F )F )F )F )F )F )F F    F. F. F. F. F. F. F. F. F. F. F. F. F. F. F. F. F. F. F. F. F. F. F. F. F. F. F. F. F. F. F. F. F. F. F. F. F. F. F. F. F. F. F. F. F. F. F. F. F. F. F. F. F. F. F. F. F. F. F. F. F. F. F. F. F. F. F. F. F. F. F. F. F. F. F. F. F. F. F. F. F. F. F. F. F. F. F. F. F. F. F. F. F. F. F. F. F. F. F. F. F. F. F. F. F. F. F. F. F. F. F. F. F. F. F. F. F. F. F. F. F. F. F. F. F. F. F. F. F. F. F. F. F. F. F. F. F. F. F. F. F. F. F. F. F. F. F. F. F. F. F. F. F. F. F. F. F. F. F. F. F. F. F. F. F. F. F. F. F. F. F. F. F. F. F. F. F. F. F. F. F. F. F. F. F. F. F. F. F. F. F. F. F. F. F. F. F. F. F. F. F. F. F. F. F. F. F. F. F. F. F. F. F. F. F. F. F. F. F. F. F. F. F. F. F. F. F. F. F. F. F. F. F. F. F. F. F. F. F. F. F. F. F. F. F. F. F. F. F. F. F. F. F. F. F. F. F. F. F. F. F. F. F. F. F. F. F. F. F. F. F. F. F. F. F. F. F. F. F. F. F. F. F. F. F. F. F. F. F. F. F. F. F. F. F. F. F. F. F. F. F. F. F. F. F. F. F. . . . . M. M. M. M. M. M. M. M. M. M. M. M. M. M. M. M. M. M. M. M. M. M. M. M. M. M. M. M. M. M. M. M. M. M. M. M. M. M. M. M. M. M. M. M. M. M. M. M. M. M. M. M. M. M. M. M. M. M. M. M. M. M. M. M. M. M. M. M. M. M. M. M. M. M. M. M. M. M. M. M. M. M. M. M. M. M. M. M. M. M. M. M. M. M. M. M. M. M. M. M. M. M. M. M. M. M. M. M. M. M. M. M. M. M. M. M. M. M. M. M. M. M. M. M. M. M. M. M. M. M. M. M. M. M. M. M. M. M. M. M. M. M. M. M. M. M. M. M. M. M. M. M. M. M. M. M. M. M. M. M. M. M. M. M. M. M. M. M. M. M. M. M. M. M. M. M. M. M. M. M. M. M. M. M. M. M. M. M. M. M. M. M. M. M. M. M. M. M. M. M. M. M. M. M. M. M. M. M. M. M. M. M. M. M. M. M. M. M. M. M. M. M. M. M. M. M. M. M. M. M. M. M. M. M. M. M. M. M. M. M. M. M. M. M. M. M. M. M. M. M. M. M. M. M. M. M. M. M. M. M. M. M. M. M. M. M. M. M. M. M. M. M. M. M. M. M. M. M. M. M. M. M. M. M. M. M. M. M. M. M. M. M. M. M. M. M. M. M. M. M. M. M. M. M. M. M. M. . . . . . M. M. M. M. M. M. M. M. M. M. M. M. M. M. M. M. M. M. M. M. M. M. M. M. M. M. M. M. M. M. M. M. M. M. M. M. M. M. M. M. M. M. M. M. M. M. M. M. M. M. M. M. M. M. M. M. M. M. M. M. M. M. M. M. M. M. M. M. M. M. M. M. M. M. M. M. M. M. M. M. M. M. M. M. M. M. M. M. M. M. M. M. M. M. M. M. M. M. M. M. M. M. M. M. M. M. M. M. M. M. M. M. M. M. M. M. M. M. M. M. M. M. M. M. M. M. M. M. M. M. M. M. M. M. M. M. M. M. M. M. M. M. M. M. M. M. M. M. M. M. M. M. M. M. M. M. M. M. M. M. M. M. M. M. M. M. M. M. M. M. M. M. M. M. M. M. M. M. M. M. M. M. M. M. M. M. M. M. M. M. M. M. M. M. M. M. M. M. M. M. M. M. M. M. M. M. M. M. M. M. M. M. M. M. M. M. M. M. M. M. M. M. M. M. M. M. M. M. M. M. M. M. M. M. M. M. M. M. M. M. M. M. M. M. M. M. M. M. M. M. M. M. M. M. M. M. M. M. M. M. M. M. M. M. M. M. M. M. M. M. M. M. M. M. M. M. M. M. M. M. M. M. M. M. M. M. M. M. M. M. M. M. M. M. M. M. M. M. M. M. M. M. M. M. M. M. M. .    J J J J J J J J J J J J J J J J J J J J J J J J J J J J J J J J J J J J J J J J J J J J J J J J J J J J J J J J J J J J J J J J J J J J J J J J J J J J J J J J J J J J J J J J J J J J J J J J J J J J J J J J J J J J J J J J J J J J J J J J J J J J J J J J J J J J J J J J J J J J J J J J J J J J J J J J J J J J J J J J J J J J J J J J J J J J J J J J J J J J J J J J J J J J J J J J J J J J J J J J J J J J J J J J J J J J J J J J J J J J J J J J J J J J J J J J J J J J J J J J J J J J J J J J J J J J J J J J J J J J J J J J J J J J J J J J J J J J J J J J J J J J J J J J J J J J J J J J J J J J J J J J J J J     JF JF JF JF JF JF JF JF JF JF JF JF JF JF JF JF JF JF JF JF JF JF JF JF JF JF JF JF JF JF JF JF JF JF JF JF JF JF JF JF JF JF JF JF JF JF JF JF JF JF JF JF JF JF JF JF JF JF JF JF JF JF JF JF JF JF JF JF JF JF JF JF JF JF JF JF JF JF JF JF JF JF JF JF JF JF JF JF JF JF JF JF JF JF JF JF JF JF JF JF JF JF JF JF JF JF JF JF JF JF JF JF JF JF JF JF JF JF JF JF JF JF JF JF JF JF JF JF JF JF JF JF JF JF JF JF JF JF JF JF JF JF JF JF JF JF JF JF JF JF JF JF JF JF JF JF JF JF JF JF JF JF JF JF JF JF JF JF JF JF JF JF JF JF JF JF JF JF JF JF JF JF JF JF JF JF JF JF JF JF JF JF JF JF JF JF JF JF JF JF JF JF JF JF JF JF JF JF JF JF JF JF JF JF JF JF JF JF JF JF JF JF JF JF JF JF JF JF JF JF JF JF JF JF JF JF JF JF JF JF JF JF JF JF JF JF JF JF JF JF JF JF JF JF JF JF JF JF JF JF JF JF JF JF JF JF JF JF JF JF JF JF JF JF JF JF JF JF JF JF JF JF JF JF JF JF JF JF JF JF JF JF JF JF JF JF JF JF JF JF JF JF JF JF JF JF JF     JF JF JF JF JF JF JF JF JF JF JF JF JF JF JF JF JF JF JF JF JF JF JF JF JF JF JF JF JF JF JF JF JF JF JF JF JF JF JF JF JF JF JF JF JF JF JF JF JF JF JF JF JF JF JF JF JF JF JF JF JF JF JF JF JF JF JF JF JF JF JF JF JF JF JF JF JF JF JF JF JF JF JF JF JF JF JF JF JF JF JF JF JF JF JF JF JF JF JF JF JF JF JF JF JF JF JF JF JF JF JF JF JF JF JF JF JF JF JF JF JF JF JF JF JF JF JF JF JF JF JF JF JF JF JF JF JF JF JF JF JF JF JF JF JF JF JF JF JF JF JF JF JF JF JF JF JF JF JF JF JF JF JF JF JF JF JF JF JF JF JF JF JF JF JF JF JF JF JF JF JF JF JF JF JF JF JF JF JF JF JF JF JF JF JF JF JF JF JF JF JF JF JF JF JF JF JF JF JF JF JF JF JF JF JF JF JF JF JF JF JF JF JF JF JF JF JF JF JF JF JF JF JF JF JF JF JF JF JF JF JF JF JF JF JF JF JF JF JF JF JF JF JF JF JF JF JF JF JF JF JF JF JF JF JF JF JF JF JF JF JF JF JF JF JF JF JF JF JF JF JF JF JF JF JF JF JF JF JF JF JF JF JF JF JF JF JF JF JF JF JF JF JF JF JF JF JF     HE HE HE HE HE HE HE HE HE HE HE HE HE HE HE HE HE HE HE HE HE HE HE HE HE HE HE HE HE HE HE HE HE HE HE HE HE HE HE HE HE HE HE HE HE HE HE HE HE HE HE HE HE HE HE HE HE HE HE HE HE HE HE HE HE HE HE HE HE HE HE HE HE HE HE HE HE HE HE HE HE HE HE HE HE HE HE HE HE HE HE HE HE HE HE HE HE HE HE HE HE HE HE HE HE HE HE HE HE HE HE HE HE HE HE HE HE HE HE HE HE HE HE HE HE HE HE HE HE HE HE HE HE HE HE HE HE HE HE HE HE HE HE HE HE HE HE HE HE HE HE HE E E E FE FE FE FE FE FE FE FE FE FE FE FE FE FE FE FE FE FE FE FE FE FE FE FE FE FE FE FE FE FE FE FE FE FE FE FE FE FE FE FE FE FE FE FE FE FE FE FE FE FE FE FE FE FE FE FE FE FE FE FE FE FE FE FE FE FE FE FE FE FE FE FE FE FE FE FE FE FE FE FE FE FE FE FE FE FE FE FE FE FE FE FE FE FE FE FE FE FE FE FE FE FE FE FE FE FE FE FE FE FE FE FE FE FE FE FE FE FE FE FE FE FE FE FE FE FE FE FE FE FE FE FE FE FE FE FE FE FE FE FE FE FE FE FE FE FE FE FE FE FE FE FE     HAE HAE HAE HAE HAE HAE HAE HAE HAE HAE HAE HAE HAE HAE HAE HAE HAE HAE HAE HAE HAE HAE HAE HAE HAE HAE HAE HAE HAE HAE HAE HAE HAE HAE HAE HAE HAE HAE HAE HAE HAE HAE HAE HAE HAE HAE HAE HAE HAE HAE HAE HAE HAE HAE HAE HAE HAE HAE HAE HAE HAE HAE HAE HAE HAE HAE HAE HAE HAE HAE HAE HAE HAE HAE HAE HAE HAE HAE HAE HAE HAE HAE HAE HAE HAE HAE HAE HAE HAE HAE HAE HAE HAE HAE HAE HAE HAE HAE HAE HAE HAE HAE HAE HAE HAE HAE HAE HAE HAE HAE HAE HAE HAE HAE HAE HAE HAE HAE HAE HAE HAE HAE HAE HAE HAE HAE HAE HAE HAE HAE HAE HAE HAE HAE HAE HAE HAE HAE HAE HAE HAE HAE HAE HAE HAE HAE HAE HAE HAE HAE HAE HAE AE AE AE JAE JAE JAE JAE JAE JAE JAE JAE JAE JAE JAE JAE JAE JAE JAE JAE JAE JAE JAE JAE JAE JAE JAE JAE JAE JAE JAE JAE JAE JAE JAE JAE JAE JAE JAE JAE JAE JAE JAE JAE JAE JAE JAE JAE JAE JAE JAE JAE JAE JAE JAE JAE JAE JAE JAE JAE JAE JAE JAE JAE JAE JAE JAE JAE JAE JAE JAE JAE JAE JAE JAE JAE JAE JAE JAE JAE JAE JAE JAE JAE JAE JAE JAE JAE JAE JAE JAE JAE JAE JAE JAE JAE JAE JAE JAE JAE JAE JAE JAE JAE JAE JAE JAE JAE JAE JAE JAE JAE JAE JAE JAE JAE JAE JAE JAE JAE JAE JAE JAE JAE JAE JAE JAE JAE JAE JAE JAE JAE JAE JAE JAE JAE JAE JAE JAE JAE JAE JAE JAE JAE JAE JAE JAE JAE JAE JAE JAE JAE JAE JAE JAE JAE     HAE HAE HAE HAE HAE HAE HAE HAE HAE HAE HAE HAE HAE HAE HAE HAE HAE HAE HAE HAE HAE HAE HAE HAE HAE HAE HAE HAE HAE HAE HAE HAE HAE HAE HAE HAE HAE HAE HAE HAE HAE HAE HAE HAE HAE HAE HAE HAE HAE HAE HAE HAE HAE HAE HAE HAE HAE HAE HAE HAE HAE HAE HAE HAE HAE HAE HAE HAE HAE HAE HAE HAE HAE HAE HAE HAE HAE HAE HAE HAE HAE HAE HAE HAE HAE HAE HAE HAE HAE HAE HAE HAE HAE HAE HAE HAE HAE HAE HAE HAE HAE HAE HAE HAE HAE HAE HAE HAE HAE HAE HAE HAE HAE HAE HAE HAE HAE HAE HAE HAE HAE HAE HAE HAE HAE HAE HAE HAE HAE HAE HAE HAE HAE HAE HAE HAE HAE HAE HAE HAE HAE HAE HAE HAE HAE HAE HAE HAE HAE HAE HAE HAE AE AE AE JAE JAE JAE JAE JAE JAE JAE JAE JAE JAE JAE JAE JAE JAE JAE JAE JAE JAE JAE JAE JAE JAE JAE JAE JAE JAE JAE JAE JAE JAE JAE JAE JAE JAE JAE JAE JAE JAE JAE JAE JAE JAE JAE JAE JAE JAE JAE JAE JAE JAE JAE JAE JAE JAE JAE JAE JAE JAE JAE JAE JAE JAE JAE JAE JAE JAE JAE JAE JAE JAE JAE JAE JAE JAE JAE JAE JAE JAE JAE JAE JAE JAE JAE JAE JAE JAE JAE JAE JAE JAE JAE JAE JAE JAE JAE JAE JAE JAE JAE JAE JAE JAE JAE JAE JAE JAE JAE JAE JAE JAE JAE JAE JAE JAE JAE JAE JAE JAE JAE JAE JAE JAE JAE JAE JAE JAE JAE JAE JAE JAE JAE JAE JAE JAE JAE JAE JAE JAE JAE JAE JAE JAE JAE JAE JAE JAE JAE JAE JAE JAE JAE JAE     FA> FA> FA> FA> FA> FA> FA> FA> FA> FA> FA> FA> FA> FA> FA> FA> FA> FA> FA> FA> FA> FA> FA> FA> FA> FA> FA> FA> FA> FA> FA> FA> FA> FA> FA> FA> FA> FA> FA> FA> FA> FA> FA> FA> FA> FA> FA> FA> FA> FA> FA> FA> FA> FA> FA> FA> FA> FA> FA> FA> FA> FA> FA> FA> FA> FA> FA> FA> FA> FA> FA> FA> FA> FA> FA> FA> FA> FA> FA> FA> FA> FA> FA> FA> FA> FA> FA> FA> FA> FA> FA> FA> FA> FA> FA> FA> FA> FA> FA> FA> FA> FA> FA> FA> FA> FA> FA> FA> FA> FA> FA> FA> FA> FA> FA> FA> FA> FA> FA> FA> FA> FA> FA> FA> FA> FA> FA> FA> FA> FA> FA> FA> FA> FA> FA> FA> FA> FA> FA> FA> FA> FA> FA> FA> FA> FA> FA> FA> FA> FA> FA> FA> A> A> A> EA> EA> EA> EA> EA> EA> EA> EA> EA> EA> EA> EA> EA> EA> EA> EA> EA> EA> EA> EA> EA> EA> EA> EA> EA> EA> EA> EA> EA> EA> EA> EA> EA> EA> EA> EA> EA> EA> EA> EA> EA> EA> EA> EA> EA> EA> EA> EA> EA> EA> EA> EA> EA> EA> EA> EA> EA> EA> EA> EA> EA> EA> EA> EA> EA> EA> EA> EA> EA> EA> EA> EA> EA> EA> EA> EA> EA> EA> EA> EA> EA> EA> EA> EA> EA> EA> EA> EA> EA> EA> EA> EA> EA> EA> EA> EA> EA> EA> EA> EA> EA> EA> EA> EA> EA> EA> EA> EA> EA> EA> EA> EA> EA> EA> EA> EA> EA> EA> EA> EA> EA> EA> EA> EA> EA> EA> EA> EA> EA> EA> EA> EA> EA> EA> EA> EA> EA> EA> EA> EA> EA> EA> EA> EA> EA> EA> EA> EA> EA> EA> EA> EA>     F>:A F>:A F>:A F>:A F>:A F>:A F>:A F>:A F>:A F>:A F>:A F>:A F>:A F>:A F>:A F>:A F>:A F>:A F>:A F>:A F>:A F>:A F>:A F>:A F>:A F>:A F>:A F>:A F>:A F>:A F>:A F>:A F>:A F>:A F>:A F>:A F>:A F>:A F>:A F>:A F>:A F>:A F>:A F>:A F>:A F>:A F>:A F>:A F>:A F>:A F>:A F>:A F>:A F>:A F>:A F>:A F>:A F>:A F>:A F>:A F>:A F>:A F>:A F>:A F>:A F>:A F>:A F>:A F>:A F>:A F>:A F>:A F>:A F>:A F>:A F>:A F>:A F>:A F>:A F>:A F>:A F>:A F>:A F>:A F>:A F>:A F>:A F>:A F>:A F>:A F>:A F>:A F>:A F>:A F>:A F>:A F>:A F>:A F>:A F>:A F>:A F>:A F>:A F>:A F>:A F>:A F>:A F>:A F>:A F>:A F>:A F>:A F>:A F>:A F>:A F>:A F>:A F>:A F>:A F>:A F>:A F>:A F>:A F>:A F>:A F>:A F>:A F>:A F>:A F>:A F>:A F>:A F>:A F>:A F>:A F>:A F>:A F>:A F>:A F>:A F>:A F>:A F>:A F>:A F>:A F>:A F>:A F>:A F>:A F>:A F>:A F>:A >:A >:A >:A H>:A H>:A H>:A H>:A H>:A H>:A H>:A H>:A H>:A H>:A H>:A H>:A H>:A H>:A H>:A H>:A H>:A H>:A H>:A H>:A H>:A H>:A H>:A H>:A H>:A H>:A H>:A H>:A H>:A H>:A H>:A H>:A H>:A H>:A H>:A H>:A H>:A H>:A H>:A H>:A H>:A H>:A H>:A H>:A H>:A H>:A H>:A H>:A H>:A H>:A H>:A H>:A H>:A H>:A H>:A H>:A H>:A H>:A H>:A H>:A H>:A H>:A H>:A H>:A H>:A H>:A H>:A H>:A H>:A H>:A H>:A H>:A H>:A H>:A H>:A H>:A H>:A H>:A H>:A H>:A H>:A H>:A H>:A H>:A H>:A H>:A H>:A H>:A H>:A H>:A H>:A H>:A H>:A H>:A H>:A H>:A H>:A H>:A H>:A H>:A H>:A H>:A H>:A H>:A H>:A H>:A H>:A H>:A H>:A H>:A H>:A H>:A H>:A H>:A H>:A H>:A H>:A H>:A H>:A H>:A H>:A H>:A H>:A H>:A H>:A H>:A H>:A H>:A H>:A H>:A H>:A H>:A H>:A H>:A H>:A H>:A H>:A H>:A H>:A H>:A H>:A H>:A H>:A H>:A H>:A H>:A H>:A H>:A H>:A H>:A H>:A H>:A     J:A> J:A> J:A> J:A> J:A> J:A> J:A> J:A> J:A> J:A> J:A> J:A> J:A> J:A> J:A> J:A> J:A> J:A> J:A> J:A> J:A> J:A> J:A> J:A> J:A> J:A> J:A> J:A> J:A> J:A> J:A> J:A> J:A> J:A> J:A> J:A> J:A> J:A> J:A> J:A> J:A> J:A> J:A> J:A> J:A> J:A> J:A> J:A> J:A> J:A> J:A> J:A> J:A> J:A> J:A> J:A> J:A> J:A> J:A> J:A> J:A> J:A> J:A> J:A> J:A> J:A> J:A> J:A> J:A> J:A> J:A> J:A> J:A> J:A> J:A> J:A> J:A> J:A> J:A> J:A> J:A> J:A> J:A> J:A> J:A> J:A> J:A> J:A> J:A> J:A> J:A> J:A> J:A> J:A> J:A> J:A> J:A> J:A> J:A> J:A> J:A> J:A> J:A> J:A> J:A> J:A> J:A> J:A> J:A> J:A> J:A> J:A> J:A> J:A> J:A> J:A> J:A> J:A> J:A> J:A> J:A> J:A> J:A> J:A> J:A> J:A> J:A> J:A> J:A> J:A> J:A> J:A> J:A> J:A> J:A> J:A> J:A> J:A> J:A> J:A> J:A> J:A> J:A> J:A> J:A> J:A> J:A> J:A> J:A> J:A> J:A> J:A> :A> :A> :A> K:A> K:A> K:A> K:A> K:A> K:A> K:A> K:A> K:A> K:A> K:A> K:A> K:A> K:A> K:A> K:A> K:A> K:A> K:A> K:A> K:A> K:A> K:A> K:A> K:A> K:A> K:A> K:A> K:A> K:A> K:A> K:A> K:A> K:A> K:A> K:A> K:A> K:A> K:A> K:A> K:A> K:A> K:A> K:A> K:A> K:A> K:A> K:A> K:A> K:A> K:A> K:A> K:A> K:A> K:A> K:A> K:A> K:A> K:A> K:A> K:A> K:A> K:A> K:A> K:A> K:A> K:A> K:A> K:A> K:A> K:A> K:A> K:A> K:A> K:A> K:A> K:A> K:A> K:A> K:A> K:A> K:A> K:A> K:A> K:A> K:A> K:A> K:A> K:A> K:A> K:A> K:A> K:A> K:A> K:A> K:A> K:A> K:A> K:A> K:A> K:A> K:A> K:A> K:A> K:A> K:A> K:A> K:A> K:A> K:A> K:A> K:A> K:A> K:A> K:A> K:A> K:A> K:A> K:A> K:A> K:A> K:A> K:A> K:A> K:A> K:A> K:A> K:A> K:A> K:A> K:A> K:A> K:A> K:A> K:A> K:A> K:A> K:A> K:A> K:A> K:A> K:A> K:A> K:A> K:A> K:A> K:A> K:A> K:A> K:A> K:A> K:A>     MA<9 MA<9 MA<9 MA<9 MA<9 MA<9 MA<9 MA<9 MA<9 MA<9 MA<9 MA<9 MA<9 MA<9 MA<9 MA<9 MA<9 MA<9 MA<9 MA<9 MA<9 MA<9 MA<9 MA<9 MA<9 MA<9 MA<9 MA<9 MA<9 MA<9 MA<9 MA<9 MA<9 MA<9 MA<9 MA<9 MA<9 MA<9 MA<9 MA<9 MA<9 MA<9 MA<9 MA<9 MA<9 MA<9 MA<9 MA<9 MA<9 MA<9 MA<9 MA<9 MA<9 MA<9 MA<9 MA<9 MA<9 MA<9 MA<9 MA<9 MA<9 MA<9 MA<9 MA<9 MA<9 MA<9 MA<9 MA<9 MA<9 MA<9 MA<9 MA<9 MA<9 MA<9 MA<9 MA<9 MA<9 MA<9 MA<9 MA<9 MA<9 MA<9 MA<9 MA<9 MA<9 MA<9 MA<9 MA<9 MA<9 MA<9 MA<9 MA<9 MA<9 MA<9 MA<9 MA<9 MA<9 MA<9 MA<9 MA<9 MA<9 MA<9 MA<9 MA<9 MA<9 MA<9 MA<9 MA<9 MA<9 MA<9 MA<9 MA<9 MA<9 MA<9 MA<9 MA<9 MA<9 MA<9 MA<9 MA<9 MA<9 MA<9 MA<9 MA<9 MA<9 MA<9 MA<9 MA<9 MA<9 MA<9 MA<9 MA<9 MA<9 MA<9 MA<9 MA<9 MA<9 MA<9 MA<9 MA<9 MA<9 MA<9 MA<9 MA<9 MA<9 MA<9 MA<9 MA<9 MA<9 MA<9 MA<9 MA<9 A<9 A<9 A<9 LA<9 LA<9 LA<9 LA<9 LA<9 LA<9 LA<9 LA<9 LA<9 LA<9 LA<9 LA<9 LA<9 LA<9 LA<9 LA<9 LA<9 LA<9 LA<9 LA<9 LA<9 LA<9 LA<9 LA<9 LA<9 LA<9 LA<9 LA<9 LA<9 LA<9 LA<9 LA<9 LA<9 LA<9 LA<9 LA<9 LA<9 LA<9 LA<9 LA<9 LA<9 LA<9 LA<9 LA<9 LA<9 LA<9 LA<9 LA<9 LA<9 LA<9 LA<9 LA<9 LA<9 LA<9 LA<9 LA<9 LA<9 LA<9 LA<9 LA<9 LA<9 LA<9 LA<9 LA<9 LA<9 LA<9 LA<9 LA<9 LA<9 LA<9 LA<9 LA<9 LA<9 LA<9 LA<9 LA<9 LA<9 LA<9 LA<9 LA<9 LA<9 LA<9 LA<9 LA<9 LA<9 LA<9 LA<9 LA<9 LA<9 LA<9 LA<9 LA<9 LA<9 LA<9 LA<9 LA<9 LA<9 LA<9 LA<9 LA<9 LA<9 LA<9 LA<9 LA<9 LA<9 LA<9 LA<9 LA<9 LA<9 LA<9 LA<9 LA<9 LA<9 LA<9 LA<9 LA<9 LA<9 LA<9 LA<9 LA<9 LA<9 LA<9 LA<9 LA<9 LA<9 LA<9 LA<9 LA<9 LA<9 LA<9 LA<9 LA<9 LA<9 LA<9 LA<9 LA<9 LA<9 LA<9 LA<9 LA<9 LA<9 LA<9 LA<9 LA<9 LA<9 LA<9 LA<9 LA<9 LA<9 LA<9 LA<9 LA<9     M5<9 M5<9 M5<9 M5<9 M5<9 M5<9 M5<9 M5<9 M5<9 M5<9 M5<9 M5<9 M5<9 M5<9 M5<9 M5<9 M5<9 M5<9 M5<9 M5<9 M5<9 M5<9 M5<9 M5<9 M5<9 M5<9 M5<9 M5<9 M5<9 M5<9 M5<9 M5<9 M5<9 M5<9 M5<9 M5<9 M5<9 M5<9 M5<9 M5<9 M5<9 M5<9 M5<9 M5<9 M5<9 M5<9 M5<9 M5<9 M5<9 M5<9 M5<9 M5<9 M5<9 M5<9 M5<9 M5<9 M5<9 M5<9 M5<9 M5<9 M5<9 M5<9 M5<9 M5<9 M5<9 M5<9 M5<9 M5<9 M5<9 M5<9 M5<9 M5<9 M5<9 M5<9 M5<9 M5<9 M5<9 M5<9 M5<9 M5<9 M5<9 M5<9 M5<9 M5<9 M5<9 M5<9 M5<9 M5<9 M5<9 M5<9 M5<9 M5<9 M5<9 M5<9 M5<9 M5<9 M5<9 M5<9 M5<9 M5<9 M5<9 M5<9 M5<9 M5<9 M5<9 M5<9 M5<9 M5<9 M5<9 M5<9 M5<9 M5<9 M5<9 M5<9 M5<9 M5<9 M5<9 M5<9 M5<9 M5<9 M5<9 M5<9 M5<9 M5<9 M5<9 M5<9 M5<9 M5<9 M5<9 M5<9 M5<9 M5<9 M5<9 M5<9 M5<9 M5<9 M5<9 M5<9 M5<9 M5<9 M5<9 M5<9 M5<9 M5<9 M5<9 M5<9 M5<9 M5<9 M5<9 M5<9 M5<9 M5<9 5<9 5<9 5<9 O5<9 O5<9 O5<9 O5<9 O5<9 O5<9 O5<9 O5<9 O5<9 O5<9 O5<9 O5<9 O5<9 O5<9 O5<9 O5<9 O5<9 O5<9 O5<9 O5<9 O5<9 O5<9 O5<9 O5<9 O5<9 O5<9 O5<9 O5<9 O5<9 O5<9 O5<9 O5<9 O5<9 O5<9 O5<9 O5<9 O5<9 O5<9 O5<9 O5<9 O5<9 O5<9 O5<9 O5<9 O5<9 O5<9 O5<9 O5<9 O5<9 O5<9 O5<9 O5<9 O5<9 O5<9 O5<9 O5<9 O5<9 O5<9 O5<9 O5<9 O5<9 O5<9 O5<9 O5<9 O5<9 O5<9 O5<9 O5<9 O5<9 O5<9 O5<9 O5<9 O5<9 O5<9 O5<9 O5<9 O5<9 O5<9 O5<9 O5<9 O5<9 O5<9 O5<9 O5<9 O5<9 O5<9 O5<9 O5<9 O5<9 O5<9 O5<9 O5<9 O5<9 O5<9 O5<9 O5<9 O5<9 O5<9 O5<9 O5<9 O5<9 O5<9 O5<9 O5<9 O5<9 O5<9 O5<9 O5<9 O5<9 O5<9 O5<9 O5<9 O5<9 O5<9 O5<9 O5<9 O5<9 O5<9 O5<9 O5<9 O5<9 O5<9 O5<9 O5<9 O5<9 O5<9 O5<9 O5<9 O5<9 O5<9 O5<9 O5<9 O5<9 O5<9 O5<9 O5<9 O5<9 O5<9 O5<9 O5<9 O5<9 O5<9 O5<9 O5<9 O5<9 O5<9 O5<9 O5<9 O5<9 O5<9 O5<9 O5<9     Q59< Q59< Q59< Q59< Q59< Q59< Q59< Q59< Q59< Q59< Q59< Q59< Q59< Q59< Q59< Q59< Q59< Q59< Q59< Q59< Q59< Q59< Q59< Q59< Q59< Q59< Q59< Q59< Q59< Q59< Q59< Q59< Q59< Q59< Q59< Q59< Q59< Q59< Q59< Q59< Q59< Q59< Q59< Q59< Q59< Q59< Q59< Q59< Q59< Q59< Q59< Q59< Q59< Q59< Q59< Q59< Q59< Q59< Q59< Q59< Q59< Q59< Q59< Q59< Q59< Q59< Q59< Q59< Q59< Q59< Q59< Q59< Q59< Q59< Q59< Q59< Q59< Q59< Q59< Q59< Q59< Q59< Q59< Q59< Q59< Q59< Q59< Q59< Q59< Q59< Q59< Q59< Q59< Q59< Q59< Q59< Q59< Q59< Q59< Q59< Q59< Q59< Q59< Q59< Q59< Q59< Q59< Q59< Q59< Q59< Q59< Q59< Q59< Q59< Q59< Q59< Q59< Q59< Q59< Q59< Q59< Q59< Q59< Q59< Q59< Q59< Q59< Q59< Q59< Q59< Q59< Q59< Q59< Q59< Q59< Q59< Q59< Q59< Q59< Q59< Q59< Q59< Q59< Q59< Q59< Q59< Q59< Q59< Q59< Q59< Q59< Q59< 59< 59< 59< 59< 59<M 59<M 59<M 59<M 59<M 59<M 59<M 59<M 59<M 59<M 59<M 59<M 59<M 59<M 59<M 59<M 59<M 59<M 59<M 59<M 59<M 59<M 59<M 59<M 59<M 59<M 59<M 59<M 59<M 59<M 59<M 59<M 59<M 59<M 59<M 59<M 59<M 59<M 59<M 59<M 59<M 59<M 59<M 59<M 59<M 59<M 59<M 59<M 59<M 59<M 59<M 59<M 59<M 59<M 59<M 59<M 59<M 59<M 59<M 59<M 59<M 59<M 59<M 59<M 59<M 59<M 59<M 59<M 59<M 59<M 59<M 59<M 59<M 59<M 59<M 59<M 59<M 59<M 59<M 59<M 59<M 59<M 59<M 59<M 59<M 59<M 59<M 59<M 59<M 59<M 59<M 59<M 59<M 59<M 59<M 59<M 59<M 59<M 59<M 59<M 59<M 59<M 59<M 59<M 59<M 59<M 59<M 59<M 59<M 59<M 59<M 59<M 59<M 59<M 59<M 59<M 59<M 59<M 59<M 59<M 59<M 59<M 59<M 59<M 59<M 59<M 59<M 59<M 59<M 59<M 59<M 59<M 59<M 59<M 59<M 59<M 59<M 59<M 59<M 59<M 59<M 59<M 59<M 59<M 59<M 59<M 59<M 59<M 59<M 59<M 59<M M    R52: R52: R52: R52: R52: R52: R52: R52: R52: R52: R52: R52: R52: R52: R52: R52: R52: R52: R52: R52: R52: R52: R52: R52: R52: R52: R52: R52: R52: R52: R52: R52: R52: R52: R52: R52: R52: R52: R52: R52: R52: R52: R52: R52: R52: R52: R52: R52: R52: R52: R52: R52: R52: R52: R52: R52: R52: R52: R52: R52: R52: R52: R52: R52: R52: R52: R52: R52: R52: R52: R52: R52: R52: R52: R52: R52: R52: R52: R52: R52: R52: R52: R52: R52: R52: R52: R52: R52: R52: R52: R52: R52: R52: R52: R52: R52: R52: R52: R52: R52: R52: R52: R52: R52: R52: R52: R52: R52: R52: R52: R52: R52: R52: R52: R52: R52: R52: R52: R52: R52: R52: R52: R52: R52: R52: R52: R52: R52: R52: R52: R52: R52: R52: R52: R52: R52: R52: R52: R52: R52: R52: R52: R52: R52: R52: R52: R52: R52: R52: R52: R52: R52: 52: 52: 52: 52: 52:Q 52:Q 52:Q 52:Q 52:Q 52:Q 52:Q 52:Q 52:Q 52:Q 52:Q 52:Q 52:Q 52:Q 52:Q 52:Q 52:Q 52:Q 52:Q 52:Q 52:Q 52:Q 52:Q 52:Q 52:Q 52:Q 52:Q 52:Q 52:Q 52:Q 52:Q 52:Q 52:Q 52:Q 52:Q 52:Q 52:Q 52:Q 52:Q 52:Q 52:Q 52:Q 52:Q 52:Q 52:Q 52:Q 52:Q 52:Q 52:Q 52:Q 52:Q 52:Q 52:Q 52:Q 52:Q 52:Q 52:Q 52:Q 52:Q 52:Q 52:Q 52:Q 52:Q 52:Q 52:Q 52:Q 52:Q 52:Q 52:Q 52:Q 52:Q 52:Q 52:Q 52:Q 52:Q 52:Q 52:Q 52:Q 52:Q 52:Q 52:Q 52:Q 52:Q 52:Q 52:Q 52:Q 52:Q 52:Q 52:Q 52:Q 52:Q 52:Q 52:Q 52:Q 52:Q 52:Q 52:Q 52:Q 52:Q 52:Q 52:Q 52:Q 52:Q 52:Q 52:Q 52:Q 52:Q 52:Q 52:Q 52:Q 52:Q 52:Q 52:Q 52:Q 52:Q 52:Q 52:Q 52:Q 52:Q 52:Q 52:Q 52:Q 52:Q 52:Q 52:Q 52:Q 52:Q 52:Q 52:Q 52:Q 52:Q 52:Q 52:Q 52:Q 52:Q 52:Q 52:Q 52:Q 52:Q 52:Q 52:Q 52:Q 52:Q 52:Q 52:Q 52:Q 52:Q 52:Q 52:Q 52:Q 52:Q Q    R52. R52. R52. R52. R52. R52. R52. R52. R52. R52. R52. R52. R52. R52. R52. R52. R52. R52. R52. R52. R52. R52. R52. R52. R52. R52. R52. R52. R52. R52. R52. R52. R52. R52. R52. R52. R52. R52. R52. R52. R52. R52. R52. R52. R52. R52. R52. R52. R52. R52. R52. R52. R52. R52. R52. R52. R52. R52. R52. R52. R52. R52. R52. R52. R52. R52. R52. R52. R52. R52. R52. R52. R52. R52. R52. R52. R52. R52. R52. R52. R52. R52. R52. R52. R52. R52. R52. R52. R52. R52. R52. R52. R52. R52. R52. R52. R52. R52. R52. R52. R52. R52. R52. R52. R52. R52. R52. R52. R52. R52. R52. R52. R52. R52. R52. R52. R52. R52. R52. R52. R52. R52. R52. R52. R52. R52. R52. R52. R52. R52. R52. R52. R52. R52. R52. R52. R52. R52. R52. R52. R52. R52. R52. R52. R52. R52. R52. R52. R52. R52. R52. R52. 52. 52. 52. 52. 52.T 52.T 52.T 52.T 52.T 52.T 52.T 52.T 52.T 52.T 52.T 52.T 52.T 52.T 52.T 52.T 52.T 52.T 52.T 52.T 52.T 52.T 52.T 52.T 52.T 52.T 52.T 52.T 52.T 52.T 52.T 52.T 52.T 52.T 52.T 52.T 52.T 52.T 52.T 52.T 52.T 52.T 52.T 52.T 52.T 52.T 52.T 52.T 52.T 52.T 52.T 52.T 52.T 52.T 52.T 52.T 52.T 52.T 52.T 52.T 52.T 52.T 52.T 52.T 52.T 52.T 52.T 52.T 52.T 52.T 52.T 52.T 52.T 52.T 52.T 52.T 52.T 52.T 52.T 52.T 52.T 52.T 52.T 52.T 52.T 52.T 52.T 52.T 52.T 52.T 52.T 52.T 52.T 52.T 52.T 52.T 52.T 52.T 52.T 52.T 52.T 52.T 52.T 52.T 52.T 52.T 52.T 52.T 52.T 52.T 52.T 52.T 52.T 52.T 52.T 52.T 52.T 52.T 52.T 52.T 52.T 52.T 52.T 52.T 52.T 52.T 52.T 52.T 52.T 52.T 52.T 52.T 52.T 52.T 52.T 52.T 52.T 52.T 52.T 52.T 52.T 52.T 52.T 52.T 52.T 52.T 52.T 52.T 52.T 52.T 52.T T    Q.25 Q.25 Q.25 Q.25 Q.25 Q.25 Q.25 Q.25 Q.25 Q.25 Q.25 Q.25 Q.25 Q.25 Q.25 Q.25 Q.25 Q.25 Q.25 Q.25 Q.25 Q.25 Q.25 Q.25 Q.25 Q.25 Q.25 Q.25 Q.25 Q.25 Q.25 Q.25 Q.25 Q.25 Q.25 Q.25 Q.25 Q.25 Q.25 Q.25 Q.25 Q.25 Q.25 Q.25 Q.25 Q.25 Q.25 Q.25 Q.25 Q.25 Q.25 Q.25 Q.25 Q.25 Q.25 Q.25 Q.25 Q.25 Q.25 Q.25 Q.25 Q.25 Q.25 Q.25 Q.25 Q.25 Q.25 Q.25 Q.25 Q.25 Q.25 Q.25 Q.25 Q.25 Q.25 Q.25 Q.25 Q.25 Q.25 Q.25 Q.25 Q.25 Q.25 Q.25 Q.25 Q.25 Q.25 Q.25 Q.25 Q.25 Q.25 Q.25 Q.25 Q.25 Q.25 Q.25 Q.25 Q.25 Q.25 Q.25 Q.25 Q.25 Q.25 Q.25 Q.25 Q.25 Q.25 Q.25 Q.25 Q.25 Q.25 Q.25 Q.25 Q.25 Q.25 Q.25 Q.25 Q.25 Q.25 Q.25 Q.25 Q.25 Q.25 Q.25 Q.25 Q.25 Q.25 Q.25 Q.25 Q.25 Q.25 Q.25 Q.25 Q.25 Q.25 Q.25 Q.25 Q.25 Q.25 Q.25 Q.25 Q.25 Q.25 Q.25 Q.25 Q.25 Q.25 Q.25 Q.25 Q.25 Q.25 Q.25 .25 .25 .25 .25 .25R .25R .25R .25R .25R .25R .25R .25R .25R .25R .25R .25R .25R .25R .25R .25R .25R .25R .25R .25R .25R .25R .25R .25R .25R .25R .25R .25R .25R .25R .25R .25R .25R .25R .25R .25R .25R .25R .25R .25R .25R .25R .25R .25R .25R .25R .25R .25R .25R .25R .25R .25R .25R .25R .25R .25R .25R .25R .25R .25R .25R .25R .25R .25R .25R .25R .25R .25R .25R .25R .25R .25R .25R .25R .25R .25R .25R .25R .25R .25R .25R .25R .25R .25R .25R .25R .25R .25R .25R .25R .25R .25R .25R .25R .25R .25R .25R .25R .25R .25R .25R .25R .25R .25R .25R .25R .25R .25R .25R .25R .25R .25R .25R .25R .25R .25R .25R .25R .25R .25R .25R .25R .25R .25R .25R .25R .25R .25R .25R .25R .25R .25R .25R .25R .25R .25R .25R .25R .25R .25R .25R .25R .25R .25R .25R .25R .25R .25R .25R .25R .25R R    T-)50 T-)50 T-)50 T-)50 T-)50 T-)50 T-)50 T-)50 T-)50 T-)50 T-)50 T-)50 T-)50 T-)50 T-)50 T-)50 T-)50 T-)50 T-)50 T-)50 T-)50 T-)50 T-)50 T-)50 T-)50 T-)50 T-)50 T-)50 T-)50 T-)50 T-)50 T-)50 T-)50 T-)50 T-)50 T-)50 T-)50 T-)50 T-)50 T-)50 T-)50 T-)50 T-)50 T-)50 T-)50 T-)50 T-)50 T-)50 T-)50 T-)50 T-)50 T-)50 T-)50 T-)50 T-)50 T-)50 T-)50 T-)50 T-)50 T-)50 T-)50 T-)50 T-)50 T-)50 T-)50 T-)50 T-)50 T-)50 T-)50 T-)50 T-)50 T-)50 T-)50 T-)50 T-)50 T-)50 T-)50 T-)50 T-)50 T-)50 T-)50 T-)50 T-)50 T-)50 T-)50 T-)50 T-)50 T-)50 T-)50 T-)50 T-)50 T-)50 T-)50 T-)50 T-)50 T-)50 T-)50 T-)50 T-)50 T-)50 T-)50 T-)50 T-)50 T-)50 T-)50 T-)50 T-)50 T-)50 T-)50 T-)50 T-)50 T-)50 T-)50 T-)50 T-)50 T-)50 T-)50 T-)50 T-)50 T-)50 T-)50 T-)50 T-)50 T-)50 T-)50 T-)50 T-)50 T-)50 T-)50 T-)50 T-)50 T-)50 T-)50 T-)50 T-)50 T-)50 T-)50 T-)50 T-)50 T-)50 T-)50 T-)50 T-)50 T-)50 T-)50 T-)50 T-)50 T-)50 T-)50 T-)50 T-)50 T-)50 -)50 -)50 -)50 -)50 R-)50 R-)50 R-)50 R-)50 R-)50 R-)50 R-)50 R-)50 R-)50 R-)50 R-)50 R-)50 R-)50 R-)50 R-)50 R-)50 R-)50 R-)50 R-)50 R-)50 R-)50 R-)50 R-)50 R-)50 R-)50 R-)50 R-)50 R-)50 R-)50 R-)50 R-)50 R-)50 R-)50 R-)50 R-)50 R-)50 R-)50 R-)50 R-)50 R-)50 R-)50 R-)50 R-)50 R-)50 R-)50 R-)50 R-)50 R-)50 R-)50 R-)50 R-)50 R-)50 R-)50 R-)50 R-)50 R-)50 R-)50 R-)50 R-)50 R-)50 R-)50 R-)50 R-)50 R-)50 R-)50 R-)50 R-)50 R-)50 R-)50 R-)50 R-)50 R-)50 R-)50 R-)50 R-)50 R-)50 R-)50 R-)50 R-)50 R-)50 R-)50 R-)50 R-)50 R-)50 R-)50 R-)50 R-)50 R-)50 R-)50 R-)50 R-)50 R-)50 R-)50 R-)50 R-)50 R-)50 R-)50 R-)50 R-)50 R-)50 R-)50 R-)50 R-)50 R-)50 R-)50 R-)50 R-)50 R-)50 R-)50 R-)50 R-)50 R-)50 R-)50 R-)50 R-)50 R-)50 R-)50 R-)50 R-)50 R-)50 R-)50 R-)50 R-)50 R-)50 R-)50 R-)50 R-)50 R-)50 R-)50 R-)50 R-)50 R-)50 R-)50 R-)50 R-)50 R-)50 R-)50 R-)50 R-)50 R-)50 R-)50 R-)50 R-)50 R-)50 R-)50 R-)50 R-)50 R-)50 R-)50 R-)50 R-)50 R-)50 -)50 -)50 -)50 Q-)50 Q-)50 Q-)50 Q-)50 Q-)50 Q-)50 Q-)50 Q-)50 Q-)50 Q-)50 Q-)50 Q-)50 Q-)50 Q-)50 Q-)50 Q-)50 Q-)50 Q-)50 Q-)50 Q-)50 Q-)50 Q-)50 Q-)50 Q-)50 Q-)50 Q-)50 Q-)50 Q-)50 Q-)50 Q-)50 Q-)50 Q-)50 Q-)50 Q-)50 Q-)50 Q-)50 Q-)50 Q-)50 Q-)50 Q-)50 Q-)50 Q-)50 Q-)50 Q-)50 Q-)50 Q-)50 Q-)50 Q-)50 Q-)50 Q-)50 Q-)50 Q-)50 Q-)50 Q-)50 Q-)50 Q-)50 Q-)50 Q-)50 Q-)50 Q-)50 Q-)50 Q-)50 Q-)50 Q-)50 Q-)50 Q-)50 Q-)50 Q-)50 Q-)50 Q-)50 Q-)50 Q-)50 Q-)50 Q-)50 Q-)50 Q-)50 Q-)50 Q-)50 Q-)50 Q-)50 Q-)50 Q-)50 Q-)50 Q-)50 Q-)50 Q-)50 Q-)50 Q-)50 Q-)50 Q-)50 Q-)50 Q-)50 Q-)50 Q-)50 Q-)50 Q-)50 Q-)50 Q-)50 Q-)50 Q-)50 Q-)50 Q-)50 Q-)50 Q-)50 Q-)50 Q-)50 Q-)50 Q-)50 Q-)50 Q-)50 Q-)50 Q-)50 Q-)50 Q-)50 Q-)50 Q-)50 Q-)50 Q-)50 Q-)50 Q-)50 Q-)50 Q-)50 Q-)50 Q-)50 Q-)50 Q-)50 Q-)50 Q-)50 Q-)50 Q-)50 Q-)50 Q-)50 Q-)50 Q-)50 Q-)50 Q-)50 Q-)50 Q-)50 Q-)50 Q-)50 Q-)50 Q-)50 Q-)50 Q-)50 Q-)50 Q-)50 Q-)50 Q-)50 Q-)50 Q-)50 Q-)50 Q-)50 -)50 -)50 -)50 -)50 O-)50 O-)50 O-)50 O-)50 O-)50 O-)50 O-)50 O-)50 O-)50 O-)50 O-)50 O-)50 O-)50 O-)50 O-)50 O-)50 O-)50 O-)50 O-)50 O-)50 O-)50 O-)50 O-)50 O-)50 O-)50 O-)50 O-)50 O-)50 O-)50 O-)50 O-)50 O-)50 O-)50 O-)50 O-)50 O-)50 O-)50 O-)50 O-)50 O-)50 O-)50 O-)50 O-)50 O-)50 O-)50 O-)50 O-)50 O-)50 O-)50 O-)50 O-)50 O-)50 O-)50 O-)50 O-)50 O-)50 O-)50 O-)50 O-)50 O-)50 O-)50 O-)50 O-)50 O-)50 O-)50 O-)50 O-)50 O-)50 O-)50 O-)50 O-)50 O-)50 O-)50 O-)50 O-)50 O-)50 O-)50 O-)50 O-)50 O-)50 O-)50 O-)50 O-)50 O-)50 O-)50 O-)50 O-)50 O-)50 O-)50 O-)50 O-)50 O-)50 O-)50 O-)50 O-)50 O-)50 O-)50 O-)50 O-)50 O-)50 O-)50 O-)50 O-)50 O-)50 O-)50 O-)50 O-)50 O-)50 O-)50 O-)50 O-)50 O-)50 O-)50 O-)50 O-)50 O-)50 O-)50 O-)50 O-)50 O-)50 O-)50 O-)50 O-)50 O-)50 O-)50 O-)50 O-)50 O-)50 O-)50 O-)50 O-)50 O-)50 O-)50 O-)50 O-)50 O-)50 O-)50 O-)50 O-)50 O-)50 O-)50 O-)50 O-)50 O-)50 O-)50 O-)50 O-)50 O-)50 O-)50 O-)50 O-)50 O-)50 -)50 -)50 -)50 -)50M -)50M -)50M -)50M -)50M -)50M -)50M -)50M -)50M -)50M -)50M -)50M -)50M -)50M -)50M -)50M -)50M -)50M -)50M -)50M -)50M -)50M -)50M -)50M -)50M -)50M -)50M -)50M -)50M -)50M -)50M -)50M -)50M -)50M -)50M -)50M -)50M -)50M -)50M -)50M -)50M -)50M -)50M -)50M -)50M -)50M -)50M -)50M -)50M -)50M -)50M -)50M -)50M -)50M -)50M -)50M -)50M -)50M -)50M -)50M -)50M -)50M -)50M -)50M -)50M -)50M -)50M -)50M -)50M -)50M -)50M -)50M -)50M -)50M -)50M -)50M -)50M -)50M -)50M -)50M -)50M -)50M -)50M -)50M -)50M -)50M -)50M -)50M -)50M -)50M M M M M M M M M M M M M M M M M M M M M M M M M M M M M M M M M M M M M M M M M M M M M M M M M M M M M M M M M M M M M M M     K K K K K K K K K K K K K K K K K K K K K K K K K K K K K K K K K K K K K K K K K K K K K K K K K K K K K K K K K K K K K K K K K K K K K K K K K K K K K K K K K K K K K K K K K K K K K K K K K K K K K K K K K K K K K K K K K K K K K K K K K K K K K K K K K K K K K K K K K K K K K K K K K K K K K K K K    J J J J J J J J J J J J J J J J J J J J J J J J J J J J J J J J J J J J J J J J J J J J J J J J J J J J J J J J J J J J J J J J J J J J J J J J J J J J J J J J J J J J J J J J J J J J J J J J J J J J J J J J J J J J J J J J J J J J J J J J J J J J J J J J J J J J J J J J J J J J J J J J J J J J J J J J J J J J JH JH JH JH JH JH JH JH JH JH JH JH JH JH JH JH JH JH JH JH JH JH JH JH JH JH JH JH JH JH JH JH JH JH JH JH JH JH JH JH JH JH JH JH JH JH JH JH JH JH JH JH JH JH JH JH JH JH JH JH JH JH JH JH JH JH JH JH JH JH JH JH JH JH JH JH JH JH JH JH JH JH JH JH JH JH JH JH JH JH JH JH JH JH JH JH JH JH JH JH JH JH JH JH JH JH JH JH JH JH JH JH JH JH JH JH JH JH JH JH JH JH JH JH JH JH JH JH JH JH JH JH JH JH JH JH JH JH JH JH JH JH JH JH JH JH JH JH JH JH JH H    FRMJ FRMJ FRMJ FRMJ FRMJ FRMJ FRMJ FRMJ FRMJ FRMJ FRMJ FRMJ FRMJ FRMJ FRMJ FRMJ FRMJ FRMJ FRMJ FRMJ FRMJ FRMJ FRMJ FRMJ FRMJ FRMJ FRMJ FRMJ FRMJ FRMJ FRMJ FRMJ FRMJ FRMJ FRMJ FRMJ FRMJ FRMJ FRMJ FRMJ FRMJ FRMJ FRMJ FRMJ FRMJ FRMJ FRMJ FRMJ FRMJ FRMJ FRMJ FRMJ FRMJ FRMJ FRMJ FRMJ FRMJ FRMJ FRMJ FRMJ FRMJ FRMJ FRMJ FRMJ FRMJ FRMJ FRMJ FRMJ FRMJ FRMJ FRMJ FRMJ FRMJ FRMJ FRMJ FRMJ FRMJ FRMJ FRMJ FRMJ FRMJ FRMJ FRMJ FRMJ FRMJ FRMJ FRMJ FRMJ FRMJ FRMJ FRMJ FRMJ FRMJ FRMJ FRMJ FRMJ FRMJ FRMJ FRMJ FRMJ FRMJ FRMJ FRMJ FRMJ FRMJ FRMJ FRMJ FRMJ FRMJ FRMJ FRMJ FRMJ FRMJ FRMJ FRMJ FRMJ FRMJ FRMJ FRMJ FRMJ FRMJ FRMJ FRMJ FRMJ FRMJ FRMJ FRMJ FRMJ FRMJ FRMJ FRMJ FRMJ FRMJ FRMJ FRMJ FRMJ FRMJ FRMJ FRMJ FRMJ FRMJ FRMJ FRMJ FRMJ FRMJ FRMJ FRMJ FRMJ FRMJ FRMJ FRMJ FRMJ RMJ RMJ RMJ RMJ RMJE RMJE RMJE RMJE RMJE RMJE RMJE RMJE RMJE RMJE RMJE RMJE RMJE RMJE RMJE RMJE RMJE RMJE RMJE RMJE RMJE RMJE RMJE RMJE RMJE RMJE RMJE RMJE RMJE RMJE RMJE RMJE RMJE RMJE RMJE RMJE RMJE RMJE RMJE RMJE RMJE RMJE RMJE RMJE RMJE RMJE RMJE RMJE RMJE RMJE RMJE RMJE RMJE RMJE RMJE RMJE RMJE RMJE RMJE RMJE RMJE RMJE RMJE RMJE RMJE RMJE RMJE RMJE RMJE RMJE RMJE RMJE RMJE RMJE RMJE RMJE RMJE RMJE RMJE RMJE RMJE RMJE RMJE RMJE RMJE RMJE RMJE RMJE RMJE RMJE RMJE RMJE RMJE RMJE RMJE RMJE RMJE RMJE RMJE RMJE RMJE RMJE RMJE RMJE RMJE RMJE RMJE RMJE RMJE RMJE RMJE RMJE RMJE RMJE RMJE RMJE RMJE RMJE RMJE RMJE RMJE RMJE RMJE RMJE RMJE RMJE RMJE RMJE RMJE RMJE RMJE RMJE RMJE RMJE RMJE RMJE RMJE RMJE RMJE RMJE RMJE RMJE RMJE RMJE RMJE RMJE RMJE RMJE RMJE RMJE RMJE E    CMJR CMJR CMJR CMJR CMJR CMJR CMJR CMJR CMJR CMJR CMJR CMJR CMJR CMJR CMJR CMJR CMJR CMJR CMJR CMJR CMJR CMJR CMJR CMJR CMJR CMJR CMJR CMJR CMJR CMJR CMJR CMJR CMJR CMJR CMJR CMJR CMJR CMJR CMJR CMJR CMJR CMJR CMJR CMJR CMJR CMJR CMJR CMJR CMJR CMJR CMJR CMJR CMJR CMJR CMJR CMJR CMJR CMJR CMJR CMJR CMJR CMJR CMJR CMJR CMJR CMJR CMJR CMJR CMJR CMJR CMJR CMJR CMJR CMJR CMJR CMJR CMJR CMJR CMJR CMJR CMJR CMJR CMJR CMJR CMJR CMJR CMJR CMJR CMJR CMJR CMJR CMJR CMJR CMJR CMJR CMJR CMJR CMJR CMJR CMJR CMJR CMJR CMJR CMJR CMJR CMJR CMJR CMJR CMJR CMJR CMJR CMJR CMJR CMJR CMJR CMJR CMJR CMJR CMJR CMJR CMJR CMJR CMJR CMJR CMJR CMJR CMJR CMJR CMJR CMJR CMJR CMJR CMJR CMJR CMJR CMJR CMJR CMJR CMJR CMJR CMJR CMJR CMJR CMJR CMJR CMJR CMJR CMJR CMJR CMJR CMJR CMJR MJR MJR MJR MJR MJRA MJRA MJRA MJRA MJRA MJRA MJRA MJRA MJRA MJRA MJRA MJRA MJRA MJRA MJRA MJRA MJRA MJRA MJRA MJRA MJRA MJRA MJRA MJRA MJRA MJRA MJRA MJRA MJRA MJRA MJRA MJRA MJRA MJRA MJRA MJRA MJRA MJRA MJRA MJRA MJRA MJRA MJRA MJRA MJRA MJRA MJRA MJRA MJRA MJRA MJRA MJRA MJRA MJRA MJRA MJRA MJRA MJRA MJRA MJRA MJRA MJRA MJRA MJRA MJRA MJRA MJRA MJRA MJRA MJRA MJRA MJRA MJRA MJRA MJRA MJRA MJRA MJRA MJRA MJRA MJRA MJRA MJRA MJRA MJRA MJRA MJRA MJRA MJRA MJRA MJRA MJRA MJRA MJRA MJRA MJRA MJRA MJRA MJRA MJRA MJRA MJRA MJRA MJRA MJRA MJRA MJRA MJRA MJRA MJRA MJRA MJRA MJRA MJRA MJRA MJRA MJRA MJRA MJRA MJRA MJRA MJRA MJRA MJRA MJRA MJRA MJRA MJRA MJRA MJRA MJRA MJRA MJRA MJRA MJRA MJRA MJRA MJRA MJRA MJRA MJRA MJRA MJRA MJRA MJRA MJRA MJRA MJRA MJRA MJRA MJRA A    ?OJ ?OJ ?OJ ?OJ ?OJ ?OJ ?OJ ?OJ ?OJ ?OJ ?OJ ?OJ ?OJ ?OJ ?OJ ?OJ ?OJ ?OJ ?OJ ?OJ ?OJ ?OJ ?OJ ?OJ ?OJ ?OJ ?OJ ?OJ ?OJ ?OJ ?OJ ?OJ ?OJ ?OJ ?OJ ?OJ ?OJ ?OJ ?OJ ?OJ ?OJ ?OJ ?OJ ?OJ ?OJ ?OJ ?OJ ?OJ ?OJ ?OJ ?OJ ?OJ ?OJ ?OJ ?OJ ?OJ ?OJ ?OJ ?OJ ?OJ ?OJ ?OJ ?OJ ?OJ ?OJ ?OJ ?OJ ?OJ ?OJ ?OJ ?OJ ?OJ ?OJ ?OJ ?OJ ?OJ ?OJ ?OJ ?OJ ?OJ ?OJ ?OJ ?OJ ?OJ ?OJ ?OJ ?OJ ?OJ ?OJ ?OJ ?OJ ?OJ ?OJ ?OJ ?OJ ?OJ ?OJ ?OJ ?OJ ?OJ ?OJ ?OJ ?OJ ?OJ ?OJ ?OJ ?OJ ?OJ ?OJ ?OJ ?OJ ?OJ ?OJ ?OJ ?OJ ?OJ ?OJ ?OJ ?OJ ?OJ ?OJ ?OJ ?OJ ?OJ ?OJ ?OJ ?OJ ?OJ ?OJ ?OJ ?OJ ?OJ ?OJ ?OJ ?OJ ?OJ ?OJ ?OJ ?OJ ?OJ ?OJ ?OJ ?OJ ?OJ ?OJ ?OJ ?OJ ?OJ ?OJ ?OJ ?OJ ?OJ J J J J AQJ AQJ AQJ AQJ AQJ AQJ AQJ AQJ AQJ AQJ AQJ AQJ AQJ AQJ AQJ AQJ AQJ AQJ AQJ AQJ AQJ AQJ AQJ AQJ AQJ AQJ AQJ AQJ AQJ AQJ AQJ AQJ AQJ AQJ AQJ AQJ AQJ AQJ AQJ AQJ AQJ AQJ AQJ AQJ AQJ AQJ AQJ AQJ AQJ AQJ AQJ AQJ AQJ AQJ AQJ AQJ AQJ AQJ AQJ AQJ AQJ AQJ AQJ AQJ AQJ AQJ AQJ AQJ AQJ AQJ AQJ AQJ AQJ AQJ AQJ AQJ AQJ AQJ AQJ AQJ AQJ AQJ AQJ AQJ AQJ AQJ AQJ AQJ AQJ AQJ AQJ AQJ AQJ AQJ AQJ AQJ AQJ AQJ AQJ AQJ AQJ AQJ AQJ AQJ AQJ AQJ AQJ AQJ AQJ AQJ AQJ AQJ AQJ AQJ AQJ AQJ AQJ AQJ AQJ AQJ AQJ AQJ AQJ AQJ AQJ AQJ AQJ AQJ AQJ AQJ AQJ AQJ AQJ AQJ AQJ AQJ AQJ AQJ AQJ AQJ AQJ AQJ AQJ AQJ AQJ AQJ AQJ AQJ AQJ AQJ AQJ AQJ J J J J?O J?O J?O J?O J?O J?O J?O J?O J?O J?O J?O J?O J?O J?O J?O J?O J?O J?O J?O J?O J?O J?O J?O J?O J?O J?O J?O J?O J?O J?O J?O J?O J?O J?O J?O J?O J?O J?O J?O J?O J?O J?O J?O J?O J?O J?O J?O J?O J?O J?O J?O J?O J?O J?O J?O J?O J?O J?O J?O J?O J?O J?O J?O J?O J?O J?O J?O J?O J?O J?O J?O J?O J?O J?O J?O J?O J?O J?O J?O J?O J?O J?O J?O J?O J?O J?O J?O J?O J?O J?O J?O J?O J?O J?O J?O J?O J?O J?O J?O J?O J?O J?O J?O J?O J?O J?O J?O J?O J?O J?O J?O J?O J?O J?O J?O J?O J?O J?O J?O J?O J?O J?O J?O J?O J?O J?O J?O J?O J?O J?O J?O J?O J?O J?O J?O J?O J?O J?O J?O J?O J?O J?O ?O ?O ?O ?O ?O ?O ?O ?O ?O ?O     >M >M >M >M >M >M >M >M >M >M >M >M >M >M >M >M >M >M >M >M >M >M >M >M >M >M >M >M >M >M >M >M >M >M >M >M >M >M >M >M >M >M >M >M >M >M >M >M >M >M >M >M >M >M >M >M >M >M >M >M >M >M >M >M >M >M >M >M >M >M >M >M >M >M >M >M >M >M >M >M >M >M >M >M >M >M >M >M >M >M >M >M >M >M >M >M >M >M >M >M >M >M >M >M >M >M >M >M >M >M >M >M >M >M >M >M >M >M >M >M >M >M >M >M >M >M >M >M >M >M >M >M >M >M >M >M >M >M >M >M >M >M >M >M >M >M >M >M >M >M >M >M    <K <K <K <K <K <K <K <K <K <K <K <K <K <K <K <K <K <K <K <K <K <K <K <K <K <K <K <K <K <K <K <K <K <K <K <K <K <K <K <K <K <K <K <K <K <K <K <K <K <K <K <K <K <K <K <K <K <K <K <K <K <K <K <K <K <K <K <K <K <K <K <K <K <K <K <K <K <K <K <K <K <K <K <K <K <K <K <K <K <K <K <K <K <K <K <K <K <K <K <K <K <K <K <K <K <K <K <K <K <K <K <K <K <K <K <K <K <K <K <K <K <K <K <K <K <K <K <K <K <K <K <K <K <K <K <K <K <K <K <K <K <K <K <K <K <K <K <K <K <K <K <K     :J :J :J :J :J :J :J :J :J :J :J :J :J :J :J :J :J :J :J :J :J :J :J :J :J :J :J :J :J :J :J :J :J :J :J :J :J :J :J :J :J :J :J :J :J :J :J :J :J :J :J :J :J :J :J :J :J :J :J :J :J :J :J :J :J :J :J :J :J :J :J :J :J :J :J :J :J :J :J :J :J :J :J :J :J :J :J :J :J :J :J :J :J :J :J :J :J :J :J :J :J :J :J :J :J :J :J :J :J :J :J :J :J :J :J :J :J :J :J :J :J :J :J :J :J :J :J :J :J :J :J :J :J :J :J :J :J :J :J :J :J :J :J :J :J :J :J :J :J :J :J :J     9H 9H 9H 9H 9H 9H 9H 9H 9H 9H 9H 9H 9H 9H 9H 9H 9H 9H 9H 9H 9H 9H 9H 9H 9H 9H 9H 9H 9H 9H 9H 9H 9H 9H 9H 9H 9H 9H 9H 9H 9H 9H 9H 9H 9H 9H 9H 9H 9H 9H 9H 9H 9H 9H 9H 9H 9H 9H 9H 9H 9H 9H 9H 9H 9H 9H 9H 9H 9H 9H 9H 9H 9H 9H 9H 9H 9H 9H 9H 9H 9H 9H 9H 9H 9H 9H 9H 9H 9H 9H 9H 9H 9H 9H 9H 9H 9H 9H 9H 9H 9H 9H 9H 9H 9H 9H 9H 9H 9H 9H 9H 9H 9H 9H 9H 9H 9H 9H 9H 9H 9H 9H 9H 9H 9H 9H 9H 9H 9H 9H 9H 9H 9H 9H 9H 9H 9H 9H 9H 9H 9H 9H 9H 9H 9H 9H 9H 9H 9H 9H 9H 9H H H H FH FH FH FH FH FH FH FH FH FH FH FH FH FH FH FH FH FH FH FH FH FH FH FH FH FH FH FH FH FH FH FH FH FH FH FH FH FH FH FH FH FH FH FH FH FH FH FH FH FH FH FH FH FH FH FH FH FH FH FH FH FH FH FH FH FH FH FH FH FH FH FH FH FH FH FH FH FH FH FH FH FH FH FH FH FH FH FH FH FH FH FH FH FH FH FH FH FH FH FH FH FH FH FH FH FH FH FH FH FH FH FH FH FH FH FH FH FH FH FH FH FH FH FH FH FH FH FH FH FH FH FH FH FH FH FH FH FH FH FH FH FH FH FH FH FH FH FH FH FH FH FH     EQKH EQKH EQKH EQKH EQKH EQKH EQKH EQKH EQKH EQKH EQKH EQKH EQKH EQKH EQKH EQKH EQKH EQKH EQKH EQKH EQKH EQKH EQKH EQKH EQKH EQKH EQKH EQKH EQKH EQKH EQKH EQKH EQKH EQKH EQKH EQKH EQKH EQKH EQKH EQKH EQKH EQKH EQKH EQKH EQKH EQKH EQKH EQKH EQKH EQKH EQKH EQKH EQKH EQKH EQKH EQKH EQKH EQKH EQKH EQKH EQKH EQKH EQKH EQKH EQKH EQKH EQKH EQKH EQKH EQKH EQKH EQKH EQKH EQKH EQKH EQKH EQKH EQKH EQKH EQKH EQKH EQKH EQKH EQKH EQKH EQKH EQKH EQKH EQKH EQKH EQKH EQKH EQKH EQKH EQKH EQKH EQKH EQKH EQKH EQKH EQKH EQKH EQKH EQKH EQKH EQKH EQKH EQKH EQKH EQKH EQKH EQKH EQKH EQKH EQKH EQKH EQKH EQKH EQKH EQKH EQKH EQKH EQKH EQKH EQKH EQKH EQKH EQKH EQKH EQKH EQKH EQKH EQKH EQKH EQKH EQKH EQKH EQKH EQKH EQKH EQKH EQKH EQKH EQKH EQKH EQKH EQKH EQKH EQKH EQKH EQKH EQKH QKH QKH QKH CQKH CQKH CQKH CQKH CQKH CQKH CQKH CQKH CQKH CQKH CQKH CQKH CQKH CQKH CQKH CQKH CQKH CQKH CQKH CQKH CQKH CQKH CQKH CQKH CQKH CQKH CQKH CQKH CQKH CQKH CQKH CQKH CQKH CQKH CQKH CQKH CQKH CQKH CQKH CQKH CQKH CQKH CQKH CQKH CQKH CQKH CQKH CQKH CQKH CQKH CQKH CQKH CQKH CQKH CQKH CQKH CQKH CQKH CQKH CQKH CQKH CQKH CQKH CQKH CQKH CQKH CQKH CQKH CQKH CQKH CQKH CQKH CQKH CQKH CQKH CQKH CQKH CQKH CQKH CQKH CQKH CQKH CQKH CQKH CQKH CQKH CQKH CQKH CQKH CQKH CQKH CQKH CQKH CQKH CQKH CQKH CQKH CQKH CQKH CQKH CQKH CQKH CQKH CQKH CQKH CQKH CQKH CQKH CQKH CQKH CQKH CQKH CQKH CQKH CQKH CQKH CQKH CQKH CQKH CQKH CQKH CQKH CQKH CQKH CQKH CQKH CQKH CQKH CQKH CQKH CQKH CQKH CQKH CQKH CQKH CQKH CQKH CQKH CQKH CQKH CQKH CQKH CQKH CQKH CQKH CQKH CQKH CQKH CQKH CQKH CQKH CQKH     AQKH AQKH AQKH AQKH AQKH AQKH AQKH AQKH AQKH AQKH AQKH AQKH AQKH AQKH AQKH AQKH AQKH AQKH AQKH AQKH AQKH AQKH AQKH AQKH AQKH AQKH AQKH AQKH AQKH AQKH AQKH AQKH AQKH AQKH AQKH AQKH AQKH AQKH AQKH AQKH AQKH AQKH AQKH AQKH AQKH AQKH AQKH AQKH AQKH AQKH AQKH AQKH AQKH AQKH AQKH AQKH AQKH AQKH AQKH AQKH AQKH AQKH AQKH AQKH AQKH AQKH AQKH AQKH AQKH AQKH AQKH AQKH AQKH AQKH AQKH AQKH AQKH AQKH AQKH AQKH AQKH AQKH AQKH AQKH AQKH AQKH AQKH AQKH AQKH AQKH AQKH AQKH AQKH AQKH AQKH AQKH AQKH AQKH AQKH AQKH AQKH AQKH AQKH AQKH AQKH AQKH AQKH AQKH AQKH AQKH AQKH AQKH AQKH AQKH AQKH AQKH AQKH AQKH AQKH AQKH AQKH AQKH AQKH AQKH AQKH AQKH AQKH AQKH AQKH AQKH AQKH AQKH AQKH AQKH AQKH AQKH AQKH AQKH AQKH AQKH AQKH AQKH AQKH AQKH AQKH AQKH AQKH AQKH AQKH AQKH AQKH AQKH QKH QKH QKH ?QKH ?QKH ?QKH ?QKH ?QKH ?QKH ?QKH ?QKH ?QKH ?QKH ?QKH ?QKH ?QKH ?QKH ?QKH ?QKH ?QKH ?QKH ?QKH ?QKH ?QKH ?QKH ?QKH ?QKH ?QKH ?QKH ?QKH ?QKH ?QKH ?QKH ?QKH ?QKH ?QKH ?QKH ?QKH ?QKH ?QKH ?QKH ?QKH ?QKH ?QKH ?QKH ?QKH ?QKH ?QKH ?QKH ?QKH ?QKH ?QKH ?QKH ?QKH ?QKH ?QKH ?QKH ?QKH ?QKH ?QKH ?QKH ?QKH ?QKH ?QKH ?QKH ?QKH ?QKH ?QKH ?QKH ?QKH ?QKH ?QKH ?QKH ?QKH ?QKH ?QKH ?QKH ?QKH ?QKH ?QKH ?QKH ?QKH ?QKH ?QKH ?QKH ?QKH ?QKH ?QKH ?QKH ?QKH ?QKH ?QKH ?QKH ?QKH ?QKH ?QKH ?QKH ?QKH ?QKH ?QKH ?QKH ?QKH ?QKH ?QKH ?QKH ?QKH ?QKH ?QKH ?QKH ?QKH ?QKH ?QKH ?QKH ?QKH ?QKH ?QKH ?QKH ?QKH ?QKH ?QKH ?QKH ?QKH ?QKH ?QKH ?QKH ?QKH ?QKH ?QKH ?QKH ?QKH ?QKH ?QKH ?QKH ?QKH ?QKH ?QKH ?QKH ?QKH ?QKH ?QKH ?QKH ?QKH ?QKH ?QKH ?QKH ?QKH ?QKH ?QKH ?QKH ?QKH ?QKH ?QKH ?QKH ?QKH ?QKH     >MH >MH >MH >MH >MH >MH >MH >MH >MH >MH >MH >MH >MH >MH >MH >MH >MH >MH >MH >MH >MH >MH >MH >MH >MH >MH >MH >MH >MH >MH >MH >MH >MH >MH >MH >MH >MH >MH >MH >MH >MH >MH >MH >MH >MH >MH >MH >MH >MH >MH >MH >MH >MH >MH >MH >MH >MH >MH >MH >MH >MH >MH >MH >MH >MH >MH >MH >MH >MH >MH >MH >MH >MH >MH >MH >MH >MH >MH >MH >MH >MH >MH >MH >MH >MH >MH >MH >MH >MH >MH >MH >MH >MH >MH >MH >MH >MH >MH >MH >MH >MH >MH >MH >MH >MH >MH >MH >MH >MH >MH >MH >MH >MH >MH >MH >MH >MH >MH >MH >MH >MH >MH >MH >MH >MH >MH >MH >MH >MH >MH >MH >MH >MH >MH >MH >MH >MH >MH >MH >MH >MH >MH >MH >MH >MH >MH >MH >MH >MH >MH >MH >MH H H H ?OH ?OH ?OH ?OH ?OH ?OH ?OH ?OH ?OH ?OH ?OH ?OH ?OH ?OH ?OH ?OH ?OH ?OH ?OH ?OH ?OH ?OH ?OH ?OH ?OH ?OH ?OH ?OH ?OH ?OH ?OH ?OH ?OH ?OH ?OH ?OH ?OH ?OH ?OH ?OH ?OH ?OH ?OH ?OH ?OH ?OH ?OH ?OH ?OH ?OH ?OH ?OH ?OH ?OH ?OH ?OH ?OH ?OH ?OH ?OH ?OH ?OH ?OH ?OH ?OH ?OH ?OH ?OH ?OH ?OH ?OH ?OH ?OH ?OH ?OH ?OH ?OH ?OH ?OH ?OH ?OH ?OH ?OH ?OH ?OH ?OH ?OH ?OH ?OH ?OH ?OH ?OH ?OH ?OH ?OH ?OH ?OH ?OH ?OH ?OH ?OH ?OH ?OH ?OH ?OH ?OH ?OH ?OH ?OH ?OH ?OH ?OH ?OH ?OH ?OH ?OH ?OH ?OH ?OH ?OH ?OH ?OH ?OH ?OH ?OH ?OH ?OH ?OH ?OH ?OH ?OH ?OH ?OH ?OH ?OH ?OH ?OH ?OH ?OH ?OH ?OH ?OH ?OH ?OH ?OH ?OH ?OH ?OH ?OH ?OH ?OH ?OH H H H H H>M H>M H>M H>M H>M H>M H>M H>M H>M H>M H>M H>M H>M H>M H>M H>M H>M H>M H>M H>M H>M H>M H>M H>M H>M H>M H>M H>M H>M H>M H>M H>M H>M H>M H>M H>M H>M H>M H>M H>M H>M H>M H>M H>M H>M H>M H>M H>M H>M H>M H>M H>M H>M H>M H>M H>M H>M H>M H>M H>M H>M H>M H>M H>M H>M H>M H>M H>M H>M H>M H>M H>M H>M H>M H>M H>M H>M H>M H>M H>M H>M H>M H>M H>M H>M H>M H>M H>M H>M H>M H>M H>M H>M H>M H>M H>M H>M H>M H>M H>M H>M H>M H>M H>M H>M H>M H>M H>M H>M H>M H>M H>M H>M H>M H>M H>M H>M H>M H>M H>M H>M H>M H>M H>M H>M H>M H>M H>M H>M H>M H>M H>M H>M H>M H>M H>M H>M H>M H>M H>M H>M H>M >M >M >M >M >M >M >M >M >M >M    <K <K <K <K <K <K <K <K <K <K <K <K <K <K <K <K <K <K <K <K <K <K <K <K <K <K <K <K <K <K <K <K <K <K <K <K <K <K <K <K <K <K <K <K <K <K <K <K <K <K <K <K <K <K <K <K <K <K <K <K <K <K <K <K <K <K <K <K <K <K <K <K <K <K <K <K <K <K <K <K <K <K <K <K <K <K <K <K <K <K <K <K <K <K <K <K <K <K <K <K <K <K <K <K <K <K <K <K <K <K <K <K <K <K <K <K <K <K <K <K <K <K <K <K <K <K <K <K <K <K <K <K <K <K <K <K <K <K <K <K <K <K <K <K <K <K <K <K <K <K <K <K     :J :J :J :J :J :J :J :J :J :J :J :J :J :J :J :J :J :J :J :J :J :J :J :J :J :J :J :J :J :J :J :J :J :J :J :J :J :J :J :J :J :J :J :J :J :J :J :J :J :J :J :J :J :J :J :J :J :J :J :J :J :J :J :J :J :J :J :J :J :J :J :J :J :J :J :J :J :J :J :J :J :J :J :J :J :J :J :J :J :J :J :J :J :J :J :J :J :J :J :J :J :J :J :J :J :J :J :J :J :J :J :J :J :J :J :J :J :J :J :J :J :J :J :J :J :J :J :J :J :J :J :J :J :J :J :J :J :J :J :J :J :J :J :J :J :J :J :J :J :J :J :J    9H 9H 9H 9H 9H 9H 9H 9H 9H 9H 9H 9H 9H 9H 9H 9H 9H 9H 9H 9H 9H 9H 9H 9H 9H 9H 9H 9H 9H 9H 9H 9H 9H 9H 9H 9H 9H 9H 9H 9H 9H 9H 9H 9H 9H 9H 9H 9H 9H 9H 9H 9H 9H 9H 9H 9H 9H 9H 9H 9H 9H 9H 9H 9H 9H 9H 9H 9H 9H 9H 9H 9H 9H 9H 9H 9H 9H 9H 9H 9H 9H 9H 9H 9H 9H 9H 9H 9H 9H 9H 9H 9H 9H 9H 9H 9H 9H 9H 9H 9H 9H 9H 9H 9H 9H 9H 9H 9H 9H 9H 9H 9H 9H 9H 9H 9H 9H 9H 9H 9H 9H 9H 9H 9H 9H 9H 9H 9H 9H 9H 9H 9H 9H 9H 9H 9H 9H 9H 9H 9H 9H 9H 9H 9H 9H 9H 9H 9H 9H 9H 9H 9H     7F 7F 7F 7F 7F 7F 7F 7F 7F 7F 7F 7F 7F 7F 7F 7F 7F 7F 7F 7F 7F 7F 7F 7F 7F 7F 7F 7F 7F 7F 7F 7F 7F 7F 7F 7F 7F 7F 7F 7F 7F 7F 7F 7F 7F 7F 7F 7F 7F 7F 7F 7F 7F 7F 7F 7F 7F 7F 7F 7F 7F 7F 7F 7F 7F 7F 7F 7F 7F 7F 7F 7F 7F 7F 7F 7F 7F 7F 7F 7F 7F 7F 7F 7F 7F 7F 7F 7F 7F 7F 7F 7F 7F 7F 7F 7F 7F 7F 7F 7F 7F 7F 7F 7F 7F 7F 7F 7F 7F 7F 7F 7F 7F 7F 7F 7F 7F 7F 7F 7F 7F 7F 7F 7F 7F 7F 7F 7F 7F 7F 7F 7F 7F 7F 7F 7F 7F 7F 7F 7F 7F 7F 7F 7F 7F 7F 7F 7F 7F 7F 7F 7F F F F EF EF EF EF EF EF EF EF EF EF EF EF EF EF EF EF EF EF EF EF EF EF EF EF EF EF EF EF EF EF EF EF EF EF EF EF EF EF EF EF EF EF EF EF EF EF EF EF EF EF EF EF EF EF EF EF EF EF EF EF EF EF EF EF EF EF EF EF EF EF EF EF EF EF EF EF EF EF EF EF EF EF EF EF EF EF EF EF EF EF EF EF EF EF EF EF EF EF EF EF EF EF EF EF EF EF EF EF EF EF EF EF EF EF EF EF EF EF EF EF EF EF EF EF EF EF EF EF EF EF EF EF EF EF EF EF EF EF EF EF EF EF EF EF EF EF EF EF EF EF EF EF     CJFO CJFO CJFO CJFO CJFO CJFO CJFO CJFO CJFO CJFO CJFO CJFO CJFO CJFO CJFO CJFO CJFO CJFO CJFO CJFO CJFO CJFO CJFO CJFO CJFO CJFO CJFO CJFO CJFO CJFO CJFO CJFO CJFO CJFO CJFO CJFO CJFO CJFO CJFO CJFO CJFO CJFO CJFO CJFO CJFO CJFO CJFO CJFO CJFO CJFO CJFO CJFO CJFO CJFO CJFO CJFO CJFO CJFO CJFO CJFO CJFO CJFO CJFO CJFO CJFO CJFO CJFO CJFO CJFO CJFO CJFO CJFO CJFO CJFO CJFO CJFO CJFO CJFO CJFO CJFO CJFO CJFO CJFO CJFO CJFO CJFO CJFO CJFO CJFO CJFO CJFO CJFO CJFO CJFO CJFO CJFO CJFO CJFO CJFO CJFO CJFO CJFO CJFO CJFO CJFO CJFO CJFO CJFO CJFO CJFO CJFO CJFO CJFO CJFO CJFO CJFO CJFO CJFO CJFO CJFO CJFO CJFO CJFO CJFO CJFO CJFO CJFO CJFO CJFO CJFO CJFO CJFO CJFO CJFO CJFO CJFO CJFO CJFO CJFO CJFO CJFO CJFO CJFO CJFO CJFO CJFO CJFO CJFO CJFO CJFO CJFO CJFO JFO JFO JFO AJFO AJFO AJFO AJFO AJFO AJFO AJFO AJFO AJFO AJFO AJFO AJFO AJFO AJFO AJFO AJFO AJFO AJFO AJFO AJFO AJFO AJFO AJFO AJFO AJFO AJFO AJFO AJFO AJFO AJFO AJFO AJFO AJFO AJFO AJFO AJFO AJFO AJFO AJFO AJFO AJFO AJFO AJFO AJFO AJFO AJFO AJFO AJFO AJFO AJFO AJFO AJFO AJFO AJFO AJFO AJFO AJFO AJFO AJFO AJFO AJFO AJFO AJFO AJFO AJFO AJFO AJFO AJFO AJFO AJFO AJFO AJFO AJFO AJFO AJFO AJFO AJFO AJFO AJFO AJFO AJFO AJFO AJFO AJFO AJFO AJFO AJFO AJFO AJFO AJFO AJFO AJFO AJFO AJFO AJFO AJFO AJFO AJFO AJFO AJFO AJFO AJFO AJFO AJFO AJFO AJFO AJFO AJFO AJFO AJFO AJFO AJFO AJFO AJFO AJFO AJFO AJFO AJFO AJFO AJFO AJFO AJFO AJFO AJFO AJFO AJFO AJFO AJFO AJFO AJFO AJFO AJFO AJFO AJFO AJFO AJFO AJFO AJFO AJFO AJFO AJFO AJFO AJFO AJFO AJFO AJFO AJFO AJFO AJFO AJFO AJFO AJFO     ?JFO ?JFO ?JFO ?JFO ?JFO ?JFO ?JFO ?JFO ?JFO ?JFO ?JFO ?JFO ?JFO ?JFO ?JFO ?JFO ?JFO ?JFO ?JFO ?JFO ?JFO ?JFO ?JFO ?JFO ?JFO ?JFO ?JFO ?JFO ?JFO ?JFO ?JFO ?JFO ?JFO ?JFO ?JFO ?JFO ?JFO ?JFO ?JFO ?JFO ?JFO ?JFO ?JFO ?JFO ?JFO ?JFO ?JFO ?JFO ?JFO ?JFO ?JFO ?JFO ?JFO ?JFO ?JFO ?JFO ?JFO ?JFO ?JFO ?JFO ?JFO ?JFO ?JFO ?JFO ?JFO ?JFO ?JFO ?JFO ?JFO ?JFO ?JFO ?JFO ?JFO ?JFO ?JFO ?JFO ?JFO ?JFO ?JFO ?JFO ?JFO ?JFO ?JFO ?JFO ?JFO ?JFO ?JFO ?JFO ?JFO ?JFO ?JFO ?JFO ?JFO ?JFO ?JFO ?JFO ?JFO ?JFO ?JFO ?JFO ?JFO ?JFO ?JFO ?JFO ?JFO ?JFO ?JFO ?JFO ?JFO ?JFO ?JFO ?JFO ?JFO ?JFO ?JFO ?JFO ?JFO ?JFO ?JFO ?JFO ?JFO ?JFO ?JFO ?JFO ?JFO ?JFO ?JFO ?JFO ?JFO ?JFO ?JFO ?JFO ?JFO ?JFO ?JFO ?JFO ?JFO ?JFO ?JFO ?JFO ?JFO ?JFO ?JFO ?JFO ?JFO ?JFO ?JFO ?JFO ?JFO ?JFO ?JFO ?JFO JFO JFO JFO >JFO >JFO >JFO >JFO >JFO >JFO >JFO >JFO >JFO >JFO >JFO >JFO >JFO >JFO >JFO >JFO >JFO >JFO >JFO >JFO >JFO >JFO >JFO >JFO >JFO >JFO >JFO >JFO >JFO >JFO >JFO >JFO >JFO >JFO >JFO >JFO >JFO >JFO >JFO >JFO >JFO >JFO >JFO >JFO >JFO >JFO >JFO >JFO >JFO >JFO >JFO >JFO >JFO >JFO >JFO >JFO >JFO >JFO >JFO >JFO >JFO >JFO >JFO >JFO >JFO >JFO >JFO >JFO >JFO >JFO >JFO >JFO >JFO >JFO >JFO >JFO >JFO >JFO >JFO >JFO >JFO >JFO >JFO >JFO >JFO >JFO >JFO >JFO >JFO >JFO >JFO >JFO >JFO >JFO >JFO >JFO >JFO >JFO >JFO >JFO >JFO >JFO >JFO >JFO >JFO >JFO >JFO >JFO >JFO >JFO >JFO >JFO >JFO >JFO >JFO >JFO >JFO >JFO >JFO >JFO >JFO >JFO >JFO >JFO >JFO >JFO >JFO >JFO >JFO >JFO >JFO >JFO >JFO >JFO >JFO >JFO >JFO >JFO >JFO >JFO >JFO >JFO >JFO >JFO >JFO >JFO >JFO >JFO >JFO >JFO >JFO >JFO     <KF <KF <KF <KF <KF <KF <KF <KF <KF <KF <KF <KF <KF <KF <KF <KF <KF <KF <KF <KF <KF <KF <KF <KF <KF <KF <KF <KF <KF <KF <KF <KF <KF <KF <KF <KF <KF <KF <KF <KF <KF <KF <KF <KF <KF <KF <KF <KF <KF <KF <KF <KF <KF <KF <KF <KF <KF <KF <KF <KF <KF <KF <KF <KF <KF <KF <KF <KF <KF <KF <KF <KF <KF <KF <KF <KF <KF <KF <KF <KF <KF <KF <KF <KF <KF <KF <KF <KF <KF <KF <KF <KF <KF <KF <KF <KF <KF <KF <KF <KF <KF <KF <KF <KF <KF <KF <KF <KF <KF <KF <KF <KF <KF <KF <KF <KF <KF <KF <KF <KF <KF <KF <KF <KF <KF <KF <KF <KF <KF <KF <KF <KF <KF <KF <KF <KF <KF <KF <KF <KF <KF <KF <KF <KF <KF <KF <KF <KF <KF <KF <KF <KF F F F >MF >MF >MF >MF >MF >MF >MF >MF >MF >MF >MF >MF >MF >MF >MF >MF >MF >MF >MF >MF >MF >MF >MF >MF >MF >MF >MF >MF >MF >MF >MF >MF >MF >MF >MF >MF >MF >MF >MF >MF >MF >MF >MF >MF >MF >MF >MF >MF >MF >MF >MF >MF >MF >MF >MF >MF >MF >MF >MF >MF >MF >MF >MF >MF >MF >MF >MF >MF >MF >MF >MF >MF >MF >MF >MF >MF >MF >MF >MF >MF >MF >MF >MF >MF >MF >MF >MF >MF >MF >MF >MF >MF >MF >MF >MF >MF >MF >MF >MF >MF >MF >MF >MF >MF >MF >MF >MF >MF >MF >MF >MF >MF >MF >MF >MF >MF >MF >MF >MF >MF >MF >MF >MF >MF >MF >MF >MF >MF >MF >MF >MF >MF >MF >MF >MF >MF >MF >MF >MF >MF >MF >MF >MF >MF >MF >MF >MF >MF >MF >MF >MF >MF F F F F F<K F<K F<K F<K F<K F<K F<K F<K F<K F<K F<K F<K F<K F<K F<K F<K F<K F<K F<K F<K F<K F<K F<K F<K F<K F<K F<K F<K F<K F<K F<K F<K F<K F<K F<K F<K F<K F<K F<K F<K F<K F<K F<K F<K F<K F<K F<K F<K F<K F<K F<K F<K F<K F<K F<K F<K F<K F<K F<K F<K F<K F<K F<K F<K F<K F<K F<K F<K F<K F<K F<K F<K F<K F<K F<K F<K F<K F<K F<K F<K F<K F<K F<K F<K F<K F<K F<K F<K F<K F<K F<K F<K F<K F<K F<K F<K F<K F<K F<K F<K F<K F<K F<K F<K F<K F<K F<K F<K F<K F<K F<K F<K F<K F<K F<K F<K F<K F<K F<K F<K F<K F<K F<K F<K F<K F<K F<K F<K F<K F<K F<K F<K F<K F<K F<K F<K F<K F<K F<K F<K F<K F<K <K <K <K <K <K <K <K <K <K <K    :J :J :J :J :J :J :J :J :J :J :J :J :J :J :J :J :J :J :J :J :J :J :J :J :J :J :J :J :J :J :J :J :J :J :J :J :J :J :J :J :J :J :J :J :J :J :J :J :J :J :J :J :J :J :J :J :J :J :J :J :J :J :J :J :J :J :J :J :J :J :J :J :J :J :J :J :J :J :J :J :J :J :J :J :J :J :J :J :J :J :J :J :J :J :J :J :J :J :J :J :J :J :J :J :J :J :J :J :J :J :J :J :J :J :J :J :J :J :J :J :J :J :J :J :J :J :J :J :J :J :J :J :J :J :J :J :J :J :J :J :J :J :J :J :J :J :J :J :J :J :J :J     9H 9H 9H 9H 9H 9H 9H 9H 9H 9H 9H 9H 9H 9H 9H 9H 9H 9H 9H 9H 9H 9H 9H 9H 9H 9H 9H 9H 9H 9H 9H 9H 9H 9H 9H 9H 9H 9H 9H 9H 9H 9H 9H 9H 9H 9H 9H 9H 9H 9H 9H 9H 9H 9H 9H 9H 9H 9H 9H 9H 9H 9H 9H 9H 9H 9H 9H 9H 9H 9H 9H 9H 9H 9H 9H 9H 9H 9H 9H 9H 9H 9H 9H 9H 9H 9H 9H 9H 9H 9H 9H 9H 9H 9H 9H 9H 9H 9H 9H 9H 9H 9H 9H 9H 9H 9H 9H 9H 9H 9H 9H 9H 9H 9H 9H 9H 9H 9H 9H 9H 9H 9H 9H 9H 9H 9H 9H 9H 9H 9H 9H 9H 9H 9H 9H 9H 9H 9H 9H 9H 9H 9H 9H 9H 9H 9H 9H 9H 9H 9H 9H 9H    7F 7F 7F 7F 7F 7F 7F 7F 7F 7F 7F 7F 7F 7F 7F 7F 7F 7F 7F 7F 7F 7F 7F 7F 7F 7F 7F 7F 7F 7F 7F 7F 7F 7F 7F 7F 7F 7F 7F 7F 7F 7F 7F 7F 7F 7F 7F 7F 7F 7F 7F 7F 7F 7F 7F 7F 7F 7F 7F 7F 7F 7F 7F 7F 7F 7F 7F 7F 7F 7F 7F 7F 7F 7F 7F 7F 7F 7F 7F 7F 7F 7F 7F 7F 7F 7F 7F 7F 7F 7F 7F 7F 7F 7F 7F 7F 7F 7F 7F 7F 7F 7F 7F 7F 7F 7F 7F 7F 7F 7F 7F 7F 7F 7F 7F 7F 7F 7F 7F 7F 7F 7F 7F 7F 7F 7F 7F 7F 7F 7F 7F 7F 7F 7F 7F 7F 7F 7F 7F 7F 7F 7F 7F 7F 7F 7F 7F 7F 7F 7F 7F 7F     5E 5E 5E 5E 5E 5E 5E 5E 5E 5E 5E 5E 5E 5E 5E 5E 5E 5E 5E 5E 5E 5E 5E 5E 5E 5E 5E 5E 5E 5E 5E 5E 5E 5E 5E 5E 5E 5E 5E 5E 5E 5E 5E 5E 5E 5E 5E 5E 5E 5E 5E 5E 5E 5E 5E 5E 5E 5E 5E 5E 5E 5E 5E 5E 5E 5E 5E 5E 5E 5E 5E 5E 5E 5E 5E 5E 5E 5E 5E 5E 5E 5E 5E 5E 5E 5E 5E 5E 5E 5E 5E 5E 5E 5E 5E 5E 5E 5E 5E 5E 5E 5E 5E 5E 5E 5E 5E 5E 5E 5E 5E 5E 5E 5E 5E 5E 5E 5E 5E 5E 5E 5E 5E 5E 5E 5E 5E 5E 5E 5E 5E 5E 5E 5E 5E 5E 5E 5E 5E 5E 5E 5E 5E 5E 5E 5E 5E 5E 5E 5E 5E 5E E E E E E7 E7 E7 E7 E7 E7 E7 E7 E7 E7 E7 E7 E7 E7 E7 E7 E7 E7 E7 E7 E7 E7 E7 E7 E7 E7 E7 E7 E7 E7 E7 E7 E7 E7 E7 E7 E7 E7 E7 E7 E7 E7 E7 E7 E7 E7 E7 E7 E7 E7 E7 E7 E7 E7 E7 E7 E7 E7 E7 E7 E7 E7 E7 E7 E7 E7 E7 E7 E7 E7 E7 E7 E7 E7 E7 E7 E7 E7 E7 E7 E7 E7 E7 E7 E7 E7 E7 E7 E7 E7 E7 E7 E7 E7 E7 E7 E7 E7 E7 E7 E7 E7 E7 E7 E7 E7 E7 E7 E7 E7 E7 E7 E7 E7 E7 E7 E7 E7 E7 E7 E7 E7 E7 E7 E7 E7 E7 E7 E7 E7 E7 E7 E7 E7 E7 E7 E7 E7 E7 E7 E7 E7 E7 E7 E7 E7 E7 E7 E7 E7 E7 7    5EMH 5EMH 5EMH 5EMH 5EMH 5EMH 5EMH 5EMH 5EMH 5EMH 5EMH 5EMH 5EMH 5EMH 5EMH 5EMH 5EMH 5EMH 5EMH 5EMH 5EMH 5EMH 5EMH 5EMH 5EMH 5EMH 5EMH 5EMH 5EMH 5EMH 5EMH 5EMH 5EMH 5EMH 5EMH 5EMH 5EMH 5EMH 5EMH 5EMH 5EMH 5EMH 5EMH 5EMH 5EMH 5EMH 5EMH 5EMH 5EMH 5EMH 5EMH 5EMH 5EMH 5EMH 5EMH 5EMH 5EMH 5EMH 5EMH 5EMH 5EMH 5EMH 5EMH 5EMH 5EMH 5EMH 5EMH 5EMH 5EMH 5EMH 5EMH 5EMH 5EMH 5EMH 5EMH 5EMH 5EMH 5EMH 5EMH 5EMH 5EMH 5EMH 5EMH 5EMH 5EMH 5EMH 5EMH 5EMH 5EMH 5EMH 5EMH 5EMH 5EMH 5EMH 5EMH 5EMH 5EMH 5EMH 5EMH 5EMH 5EMH 5EMH 5EMH 5EMH 5EMH 5EMH 5EMH 5EMH 5EMH 5EMH 5EMH 5EMH 5EMH 5EMH 5EMH 5EMH 5EMH 5EMH 5EMH 5EMH 5EMH 5EMH 5EMH 5EMH 5EMH 5EMH 5EMH 5EMH 5EMH 5EMH 5EMH 5EMH 5EMH 5EMH 5EMH 5EMH 5EMH 5EMH 5EMH 5EMH 5EMH 5EMH 5EMH 5EMH 5EMH 5EMH 5EMH 5EMH 5EMH 5EMH 5EMH 5EMH EMH EMH EMH EMH EMH3 EMH3 EMH3 EMH3 EMH3 EMH3 EMH3 EMH3 EMH3 EMH3 EMH3 EMH3 EMH3 EMH3 EMH3 EMH3 EMH3 EMH3 EMH3 EMH3 EMH3 EMH3 EMH3 EMH3 EMH3 EMH3 EMH3 EMH3 EMH3 EMH3 EMH3 EMH3 EMH3 EMH3 EMH3 EMH3 EMH3 EMH3 EMH3 EMH3 EMH3 EMH3 EMH3 EMH3 EMH3 EMH3 EMH3 EMH3 EMH3 EMH3 EMH3 EMH3 EMH3 EMH3 EMH3 EMH3 EMH3 EMH3 EMH3 EMH3 EMH3 EMH3 EMH3 EMH3 EMH3 EMH3 EMH3 EMH3 EMH3 EMH3 EMH3 EMH3 EMH3 EMH3 EMH3 EMH3 EMH3 EMH3 EMH3 EMH3 EMH3 EMH3 EMH3 EMH3 EMH3 EMH3 EMH3 EMH3 EMH3 EMH3 EMH3 EMH3 EMH3 EMH3 EMH3 EMH3 EMH3 EMH3 EMH3 EMH3 EMH3 EMH3 EMH3 EMH3 EMH3 EMH3 EMH3 EMH3 EMH3 EMH3 EMH3 EMH3 EMH3 EMH3 EMH3 EMH3 EMH3 EMH3 EMH3 EMH3 EMH3 EMH3 EMH3 EMH3 EMH3 EMH3 EMH3 EMH3 EMH3 EMH3 EMH3 EMH3 EMH3 EMH3 EMH3 EMH3 EMH3 EMH3 EMH3 EMH3 EMH3 EMH3 EMH3 EMH3 EMH3 EMH3 EMH3 EMH3 EMH3 EMH3 EMH3 3    2HEM 2HEM 2HEM 2HEM 2HEM 2HEM 2HEM 2HEM 2HEM 2HEM 2HEM 2HEM 2HEM 2HEM 2HEM 2HEM 2HEM 2HEM 2HEM 2HEM 2HEM 2HEM 2HEM 2HEM 2HEM 2HEM 2HEM 2HEM 2HEM 2HEM 2HEM 2HEM 2HEM 2HEM 2HEM 2HEM 2HEM 2HEM 2HEM 2HEM 2HEM 2HEM 2HEM 2HEM 2HEM 2HEM 2HEM 2HEM 2HEM 2HEM 2HEM 2HEM 2HEM 2HEM 2HEM 2HEM 2HEM 2HEM 2HEM 2HEM 2HEM 2HEM 2HEM 2HEM 2HEM 2HEM 2HEM 2HEM 2HEM 2HEM 2HEM 2HEM 2HEM 2HEM 2HEM 2HEM 2HEM 2HEM 2HEM 2HEM 2HEM 2HEM 2HEM 2HEM 2HEM 2HEM 2HEM 2HEM 2HEM 2HEM 2HEM 2HEM 2HEM 2HEM 2HEM 2HEM 2HEM 2HEM 2HEM 2HEM 2HEM 2HEM 2HEM 2HEM 2HEM 2HEM 2HEM 2HEM 2HEM 2HEM 2HEM 2HEM 2HEM 2HEM 2HEM 2HEM 2HEM 2HEM 2HEM 2HEM 2HEM 2HEM 2HEM 2HEM 2HEM 2HEM 2HEM 2HEM 2HEM 2HEM 2HEM 2HEM 2HEM 2HEM 2HEM 2HEM 2HEM 2HEM 2HEM 2HEM 2HEM 2HEM 2HEM 2HEM 2HEM 2HEM 2HEM 2HEM 2HEM 2HEM 2HEM 2HEM HEM HEM HEM HEM HEM0 HEM0 HEM0 HEM0 HEM0 HEM0 HEM0 HEM0 HEM0 HEM0 HEM0 HEM0 HEM0 HEM0 HEM0 HEM0 HEM0 HEM0 HEM0 HEM0 HEM0 HEM0 HEM0 HEM0 HEM0 HEM0 HEM0 HEM0 HEM0 HEM0 HEM0 HEM0 HEM0 HEM0 HEM0 HEM0 HEM0 HEM0 HEM0 HEM0 HEM0 HEM0 HEM0 HEM0 HEM0 HEM0 HEM0 HEM0 HEM0 HEM0 HEM0 HEM0 HEM0 HEM0 HEM0 HEM0 HEM0 HEM0 HEM0 HEM0 HEM0 HEM0 HEM0 HEM0 HEM0 HEM0 HEM0 HEM0 HEM0 HEM0 HEM0 HEM0 HEM0 HEM0 HEM0 HEM0 HEM0 HEM0 HEM0 HEM0 HEM0 HEM0 HEM0 HEM0 HEM0 HEM0 HEM0 HEM0 HEM0 HEM0 HEM0 HEM0 HEM0 HEM0 HEM0 HEM0 HEM0 HEM0 HEM0 HEM0 HEM0 HEM0 HEM0 HEM0 HEM0 HEM0 HEM0 HEM0 HEM0 HEM0 HEM0 HEM0 HEM0 HEM0 HEM0 HEM0 HEM0 HEM0 HEM0 HEM0 HEM0 HEM0 HEM0 HEM0 HEM0 HEM0 HEM0 HEM0 HEM0 HEM0 HEM0 HEM0 HEM0 HEM0 HEM0 HEM0 HEM0 HEM0 HEM0 HEM0 HEM0 HEM0 HEM0 HEM0 HEM0 HEM0 HEM0 HEM0 HEM0 HEM0 HEM0 0    .FJA .FJA .FJA .FJA .FJA .FJA .FJA .FJA .FJA .FJA .FJA .FJA .FJA .FJA .FJA .FJA .FJA .FJA .FJA .FJA .FJA .FJA .FJA .FJA .FJA .FJA .FJA .FJA .FJA .FJA .FJA .FJA .FJA .FJA .FJA .FJA .FJA .FJA .FJA .FJA .FJA .FJA .FJA .FJA .FJA .FJA .FJA .FJA .FJA .FJA .FJA .FJA .FJA .FJA .FJA .FJA .FJA .FJA .FJA .FJA .FJA .FJA .FJA .FJA .FJA .FJA .FJA .FJA .FJA .FJA .FJA .FJA .FJA .FJA .FJA .FJA .FJA .FJA .FJA .FJA .FJA .FJA .FJA .FJA .FJA .FJA .FJA .FJA .FJA .FJA .FJA .FJA .FJA .FJA .FJA .FJA .FJA .FJA .FJA .FJA .FJA .FJA .FJA .FJA .FJA .FJA .FJA .FJA .FJA .FJA .FJA .FJA .FJA .FJA .FJA .FJA .FJA .FJA .FJA .FJA .FJA .FJA .FJA .FJA .FJA .FJA .FJA .FJA .FJA .FJA .FJA .FJA .FJA .FJA .FJA .FJA .FJA .FJA .FJA .FJA .FJA .FJA .FJA .FJA .FJA .FJA .FJA .FJA .FJA .FJA .FJA .FJA FJA FJA FJA FJA FJ0A FJ0A FJ0A FJ0A FJ0A FJ0A FJ0A FJ0A FJ0A FJ0A FJ0A FJ0A FJ0A FJ0A FJ0A FJ0A FJ0A FJ0A FJ0A FJ0A FJ0A FJ0A FJ0A FJ0A FJ0A FJ0A FJ0A FJ0A FJ0A FJ0A FJ0A FJ0A FJ0A FJ0A FJ0A FJ0A FJ0A FJ0A FJ0A FJ0A FJ0A FJ0A FJ0A FJ0A FJ0A FJ0A FJ0A FJ0A FJ0A FJ0A FJ0A FJ0A FJ0A FJ0A FJ0A FJ0A FJ0A FJ0A FJ0A FJ0A FJ0A FJ0A FJ0A FJ0A FJ0A FJ0A FJ0A FJ0A FJ0A FJ0A FJ0A FJ0A FJ0A FJ0A FJ0A FJ0A FJ0A FJ0A FJ0A FJ0A FJ0A FJ0A FJ0A FJ0A FJ0A FJ0A FJ0A FJ0A FJ0A FJ0A FJ0A FJ0A FJ0A FJ0A FJ0A FJ0A FJ0A FJ0A FJ0A FJ0A FJ0A FJ0A FJ0A FJ0A FJ0A FJ0A FJ0A FJ0A FJ0A FJ0A FJ0A FJ0A FJ0A FJ0A FJ0A FJ0A FJ0A FJ0A FJ0A FJ0A FJ0A FJ0A FJ0A FJ0A FJ0A FJ0A FJ0A FJ0A FJ0A FJ0A FJ0A FJ0A FJ0A FJ0A FJ0A FJ0A FJ0A FJ0A FJ0A FJ0A FJ0A FJ0A FJ0A FJ0A FJ0A FJ0A FJ0A FJ0A FJ0A FJ0A FJ0A 0A A A A .JFA .JFA .JFA .JFA .JFA .JFA .JFA .JFA .JFA .JFA .JFA .JFA .JFA .JFA .JFA .JFA .JFA .JFA .JFA .JFA .JFA .JFA .JFA .JFA .JFA .JFA .JFA .JFA .JFA .JFA .JFA .JFA .JFA .JFA .JFA .JFA .JFA .JFA .JFA .JFA .JFA .JFA .JFA .JFA .JFA .JFA .JFA .JFA .JFA .JFA .JFA .JFA .JFA .JFA .JFA .JFA .JFA .JFA .JFA .JFA .JFA .JFA .JFA .JFA .JFA .JFA .JFA .JFA .JFA .JFA .JFA .JFA .JFA .JFA .JFA .JFA .JFA .JFA .JFA .JFA .JFA .JFA .JFA .JFA .JFA .JFA .JFA .JFA .JFA .JFA .JFA .JFA .JFA .JFA .JFA .JFA .JFA .JFA .JFA .JFA .JFA .JFA .JFA .JFA .JFA .JFA .JFA .JFA .JFA .JFA .JFA .JFA .JFA .JFA .JFA .JFA .JFA .JFA .JFA .JFA .JFA .JFA .JFA .JFA .JFA .JFA .JFA .JFA .JFA .JFA .JFA .JFA .JFA .JFA .JFA .JFA .JFA .JFA .JFA .JFA .JFA .JFA .JFA .JFA .JFA .JFA .JFA .JFA .JFA .JFA .JFA .JFA JFA JFA JFA JFA JF-A JF-A JF-A JF-A JF-A JF-A JF-A JF-A JF-A JF-A JF-A JF-A JF-A JF-A JF-A JF-A JF-A JF-A JF-A JF-A JF-A JF-A JF-A JF-A JF-A JF-A JF-A JF-A JF-A JF-A JF-A JF-A JF-A JF-A JF-A JF-A JF-A JF-A JF-A JF-A JF-A JF-A JF-A JF-A JF-A JF-A JF-A JF-A JF-A JF-A JF-A JF-A JF-A JF-A JF-A JF-A JF-A JF-A JF-A JF-A JF-A JF-A JF-A JF-A JF-A JF-A JF-A JF-A JF-A JF-A JF-A JF-A JF-A JF-A JF-A JF-A JF-A JF-A JF-A JF-A JF-A JF-A JF-A JF-A JF-A JF-A JF-A JF-A JF-A JF-A JF-A JF-A JF-A JF-A JF-A JF-A JF-A JF-A JF-A JF-A JF-A JF-A JF-A JF-A JF-A JF-A JF-A JF-A JF-A JF-A JF-A JF-A JF-A JF-A JF-A JF-A JF-A JF-A JF-A JF-A JF-A JF-A JF-A JF-A JF-A JF-A JF-A JF-A JF-A JF-A JF-A JF-A JF-A JF-A JF-A JF-A JF-A JF-A JF-A JF-A JF-A JF-A JF-A JF-A JF-A JF-A JF-A JF-A JF-A JF-A JF-A -A A A A +FJA +FJA +FJA +FJA +FJA +FJA +FJA +FJA +FJA +FJA +FJA +FJA +FJA +FJA +FJA +FJA +FJA +FJA +FJA +FJA +FJA +FJA +FJA +FJA +FJA +FJA +FJA +FJA +FJA +FJA +FJA +FJA +FJA +FJA +FJA +FJA +FJA +FJA +FJA +FJA +FJA +FJA +FJA +FJA +FJA +FJA +FJA +FJA +FJA +FJA +FJA +FJA +FJA +FJA +FJA +FJA +FJA +FJA +FJA +FJA +FJA +FJA +FJA +FJA +FJA +FJA +FJA +FJA +FJA +FJA +FJA +FJA +FJA +FJA +FJA +FJA +FJA +FJA +FJA +FJA +FJA +FJA +FJA +FJA +FJA +FJA +FJA +FJA +FJA +FJA +FJA +FJA +FJA +FJA +FJA +FJA +FJA +FJA +FJA +FJA +FJA +FJA +FJA +FJA +FJA +FJA +FJA +FJA +FJA +FJA +FJA +FJA +FJA +FJA +FJA +FJA +FJA +FJA +FJA +FJA +FJA +FJA +FJA +FJA +FJA +FJA +FJA +FJA +FJA +FJA +FJA +FJA +FJA +FJA +FJA +FJA +FJA +FJA +FJA +FJA +FJA +FJA +FJA +FJA +FJA +FJA +FJA +FJA +FJA +FJA +FJA +FJA FJA FJA FJA FJA FJ)A FJ)A FJ)A FJ)A FJ)A FJ)A FJ)A FJ)A FJ)A FJ)A FJ)A FJ)A FJ)A FJ)A FJ)A FJ)A FJ)A FJ)A FJ)A FJ)A FJ)A FJ)A FJ)A FJ)A FJ)A FJ)A FJ)A FJ)A FJ)A FJ)A FJ)A FJ)A FJ)A FJ)A FJ)A FJ)A FJ)A FJ)A FJ)A FJ)A FJ)A FJ)A FJ)A FJ)A FJ)A FJ)A FJ)A FJ)A FJ)A FJ)A FJ)A FJ)A FJ)A FJ)A FJ)A FJ)A FJ)A FJ)A FJ)A FJ)A FJ)A FJ)A FJ)A FJ)A FJ)A FJ)A FJ)A FJ)A FJ)A FJ)A FJ)A FJ)A FJ)A FJ)A FJ)A FJ)A FJ)A FJ)A FJ)A FJ)A FJ)A FJ)A FJ)A FJ)A FJ)A FJ)A FJ)A FJ)A FJ)A FJ)A FJ)A FJ)A FJ)A FJ)A FJ)A FJ)A FJ)A FJ)A FJ)A FJ)A FJ)A FJ)A FJ)A FJ)A FJ)A FJ)A FJ)A FJ)A FJ)A FJ)A FJ)A FJ)A FJ)A FJ)A FJ)A FJ)A FJ)A FJ)A FJ)A FJ)A FJ)A FJ)A FJ)A FJ)A FJ)A FJ)A FJ)A FJ)A FJ)A FJ)A FJ)A FJ)A FJ)A FJ)A FJ)A FJ)A FJ)A FJ)A FJ)A FJ)A FJ)A FJ)A FJ)A FJ)A FJ)A FJ)A FJ)A FJ)A FJ)A FJ)A FJ)A )A A   C'J C'J C'J C'J C'J C'J C'J C'J C'J C'J C'J C'J C'J C'J C'J C'J C'J C'J C'J C'J C'J C'J C'J C'J C'J C'J C'J C'J C'J C'J C'J C'J C'J C'J C'J C'J C'J C'J C'J C'J C'J C'J C'J C'J C'J C'J C'J C'J C'J C'J C'J C'J C'J C'J C'J C'J C'J C'J C'J C'J C'J C'J C'J C'J C'J C'J C'J C'J C'J C'J C'J C'J C'J C'J C'J C'J C'J C'J C'J C'J C'J C'J C'J C'J C'J C'J C'J C'J C'J C'J C'J C'J C'J C'J C'J C'J C'J C'J C'J C'J C'J C'J C'J C'J C'J C'J C'J C'J C'J C'J C'J C'J C'J C'J C'J C'J C'J C'J C'J C'J C'J C'J C'J C'J C'J C'J C'J C'J C'J C'J C'J C'J C'J C'J C'J C'J C'J C'J C'J C'J C'J C'J C'J C'J C'J C'J C'J C'J C'J C'J C'J C'J 'J 'J 'J 'J 'AJ 'AJ 'AJ 'AJ 'AJ 'AJ 'AJ 'AJ 'AJ 'AJ 'AJ 'AJ 'AJ 'AJ 'AJ 'AJ 'AJ 'AJ 'AJ 'AJ 'AJ 'AJ 'AJ 'AJ 'AJ 'AJ 'AJ 'AJ 'AJ 'AJ 'AJ 'AJ 'AJ 'AJ 'AJ 'AJ 'AJ 'AJ 'AJ 'AJ 'AJ 'AJ 'AJ 'AJ 'AJ 'AJ 'AJ 'AJ 'AJ 'AJ 'AJ 'AJ 'AJ 'AJ 'AJ 'AJ 'AJ 'AJ 'AJ 'AJ 'AJ 'AJ 'AJ 'AJ 'AJ 'AJ 'AJ 'AJ 'AJ 'AJ 'AJ 'AJ 'AJ 'AJ 'AJ 'AJ 'AJ 'AJ 'AJ 'AJ 'AJ 'AJ 'AJ 'AJ 'AJ 'AJ 'AJ 'AJ 'AJ 'AJ 'AJ 'AJ 'AJ 'AJ 'AJ 'AJ 'AJ 'AJ 'AJ 'AJ 'AJ 'AJ 'AJ 'AJ 'AJ 'AJ 'AJ 'AJ 'AJ 'AJ 'AJ 'AJ 'AJ 'AJ 'AJ 'AJ 'AJ 'AJ 'AJ 'AJ 'AJ 'AJ 'AJ 'AJ 'AJ 'AJ 'AJ 'AJ 'AJ 'AJ 'AJ 'AJ 'AJ 'AJ 'AJ 'AJ 'AJ 'AJ 'AJ 'AJ 'AJ 'AJ 'AJ 'AJ 'AJ 'AJ 'AJ 'AJ 'AJ 'AJ 'AJ AJ J J J C3J C3J C3J C3J C3J C3J C3J C3J C3J C3J C3J C3J C3J C3J C3J C3J C3J C3J C3J C3J C3J C3J C3J C3J C3J C3J C3J C3J C3J C3J C3J C3J C3J C3J C3J C3J C3J C3J C3J C3J C3J C3J C3J C3J C3J C3J C3J C3J C3J C3J C3J C3J C3J C3J C3J C3J C3J C3J C3J C3J C3J C3J C3J C3J C3J C3J C3J C3J C3J C3J C3J C3J C3J C3J C3J C3J C3J C3J C3J C3J C3J C3J C3J C3J C3J C3J C3J C3J C3J C3J C3J C3J C3J C3J C3J C3J C3J C3J C3J C3J C3J C3J C3J C3J C3J C3J C3J C3J C3J C3J C3J C3J C3J C3J C3J C3J C3J C3J C3J C3J C3J C3J C3J C3J C3J C3J C3J C3J C3J C3J C3J C3J C3J C3J C3J C3J C3J C3J C3J C3J C3J C3J C3J C3J C3J C3J C3J C3J C3J C3J C3J C3J 3J 3J 3J 3J 3EJ 3EJ 3EJ 3EJ 3EJ 3EJ 3EJ 3EJ 3EJ 3EJ 3EJ 3EJ 3EJ 3EJ 3EJ 3EJ 3EJ 3EJ 3EJ 3EJ 3EJ 3EJ 3EJ 3EJ 3EJ 3EJ 3EJ 3EJ 3EJ 3EJ 3EJ 3EJ 3EJ 3EJ 3EJ 3EJ 3EJ 3EJ 3EJ 3EJ 3EJ 3EJ 3EJ 3EJ 3EJ 3EJ 3EJ 3EJ 3EJ 3EJ 3EJ 3EJ 3EJ 3EJ 3EJ 3EJ 3EJ 3EJ 3EJ 3EJ 3EJ 3EJ 3EJ 3EJ 3EJ 3EJ 3EJ 3EJ 3EJ 3EJ 3EJ 3EJ 3EJ 3EJ 3EJ 3EJ 3EJ 3EJ 3EJ 3EJ 3EJ 3EJ 3EJ 3EJ 3EJ 3EJ 3EJ 3EJ 3EJ 3EJ 3EJ 3EJ 3EJ 3EJ 3EJ 3EJ 3EJ 3EJ 3EJ 3EJ 3EJ 3EJ 3EJ 3EJ 3EJ 3EJ 3EJ 3EJ 3EJ 3EJ 3EJ 3EJ 3EJ 3EJ 3EJ 3EJ 3EJ 3EJ 3EJ 3EJ 3EJ 3EJ 3EJ 3EJ 3EJ 3EJ 3EJ 3EJ 3EJ 3EJ 3EJ 3EJ 3EJ 3EJ 3EJ 3EJ 3EJ 3EJ 3EJ 3EJ 3EJ 3EJ 3EJ 3EJ 3EJ 3EJ 3EJ 3EJ 3EJ 3EJ 3EJ EJ J J J F3J F3J F3J F3J F3J F3J F3J F3J F3J F3J F3J F3J F3J F3J F3J F3J F3J F3J F3J F3J F3J F3J F3J F3J F3J F3J F3J F3J F3J F3J F3J F3J F3J F3J F3J F3J F3J F3J F3J F3J F3J F3J F3J F3J F3J F3J F3J F3J F3J F3J F3J F3J F3J F3J F3J F3J F3J F3J F3J F3J F3J F3J F3J F3J F3J F3J F3J F3J F3J F3J F3J F3J F3J F3J F3J F3J F3J F3J F3J F3J F3J F3J F3J F3J F3J F3J F3J F3J F3J F3J F3J F3J F3J F3J F3J F3J F3J F3J F3J F3J F3J F3J F3J F3J F3J F3J F3J F3J F3J F3J F3J F3J F3J F3J F3J F3J F3J F3J F3J F3J F3J F3J F3J F3J F3J F3J F3J F3J F3J F3J F3J F3J F3J F3J F3J F3J F3J F3J F3J F3J F3J F3J F3J F3J F3J F3J F3J F3J F3J F3J F3J F3J 3J 3J 3J 3J 3CJ 3CJ 3CJ 3CJ 3CJ 3CJ 3CJ 3CJ 3CJ 3CJ 3CJ 3CJ 3CJ 3CJ 3CJ 3CJ 3CJ 3CJ 3CJ 3CJ 3CJ 3CJ 3CJ 3CJ 3CJ 3CJ 3CJ 3CJ 3CJ 3CJ 3CJ 3CJ 3CJ 3CJ 3CJ 3CJ 3CJ 3CJ 3CJ 3CJ 3CJ 3CJ 3CJ 3CJ 3CJ 3CJ 3CJ 3CJ 3CJ 3CJ 3CJ 3CJ 3CJ 3CJ 3CJ 3CJ 3CJ 3CJ 3CJ 3CJ 3CJ 3CJ 3CJ 3CJ 3CJ 3CJ 3CJ 3CJ 3CJ 3CJ 3CJ 3CJ 3CJ 3CJ 3CJ 3CJ 3CJ 3CJ 3CJ 3CJ 3CJ 3CJ 3CJ 3CJ 3CJ 3CJ 3CJ 3CJ 3CJ 3CJ 3CJ 3CJ 3CJ 3CJ 3CJ 3CJ 3CJ 3CJ 3CJ 3CJ 3CJ 3CJ 3CJ 3CJ 3CJ 3CJ 3CJ 3CJ 3CJ 3CJ 3CJ 3CJ 3CJ 3CJ 3CJ 3CJ 3CJ 3CJ 3CJ 3CJ 3CJ 3CJ 3CJ 3CJ 3CJ 3CJ 3CJ 3CJ 3CJ 3CJ 3CJ 3CJ 3CJ 3CJ 3CJ 3CJ 3CJ 3CJ 3CJ 3CJ 3CJ 3CJ 3CJ 3CJ 3CJ 3CJ 3CJ 3CJ 3CJ 3CJ 3CJ CJ J   9H 9H 9H 9H 9H 9H 9H 9H 9H 9H 9H 9H 9H 9H 9H 9H 9H 9H 9H 9H 9H 9H 9H 9H 9H 9H 9H 9H 9H 9H 9H 9H 9H 9H 9H 9H 9H 9H 9H 9H 9H 9H 9H 9H 9H 9H 9H 9H 9H 9H 9H 9H 9H 9H 9H 9H 9H 9H 9H 9H 9H 9H 9H 9H 9H 9H 9H 9H 9H 9H 9H 9H 9H 9H 9H 9H 9H 9H 9H 9H 9H 9H 9H 9H 9H 9H 9H 9H 9H 9H 9H 9H 9H 9H 9H 9H 9H 9H 9H 9H 9H 9H 9H 9H 9H 9H 9H 9H 9H 9H 9H 9H 9H 9H 9H 9H 9H 9H 9H 9H 9H 9H 9H 9H 9H 9H 9H 9H 9H 9H 9H 9H 9H 9H 9H 9H 9H 9H 9H 9H 9H 9H 9H 9H 9H 9H 9H 9H 9H 9H 9H 9H 9H 9H 9H 9H 9FH 9FH 9FH 9FH 9FH 9FH 9FH 9FH 9FH 9FH 9FH 9FH 9FH 9FH 9FH 9FH 9FH 9FH 9FH 9FH 9FH 9FH 9FH 9FH 9FH 9FH 9FH 9FH 9FH 9FH 9FH 9FH 9FH 9FH 9FH 9FH 9FH 9FH 9FH 9FH 9FH 9FH 9FH 9FH 9FH 9FH 9FH 9FH 9FH 9FH 9FH 9FH 9FH 9FH 9FH 9FH 9FH 9FH 9FH 9FH 9FH 9FH 9FH 9FH 9FH 9FH 9FH 9FH 9FH 9FH 9FH 9FH 9FH 9FH 9FH 9FH 9FH 9FH 9FH 9FH 9FH 9FH 9FH 9FH 9FH 9FH 9FH 9FH 9FH 9FH 9FH 9FH 9FH 9FH 9FH 9FH 9FH 9FH 9FH 9FH 9FH 9FH 9FH 9FH 9FH 9FH 9FH 9FH 9FH 9FH 9FH 9FH 9FH 9FH 9FH 9FH 9FH 9FH 9FH 9FH 9FH 9FH 9FH 9FH 9FH 9FH 9FH 9FH 9FH 9FH 9FH 9FH 9FH 9FH 9FH 9FH 9FH 9FH 9FH 9FH 9FH 9FH 9FH 9FH 9FH 9FH 9FH 9FH 9FH 9FH 9FH FH H H H E-H E-H E-H E-H E-H E-H E-H E-H E-H E-H E-H E-H E-H E-H E-H E-H E-H E-H E-H E-H E-H E-H E-H E-H E-H E-H E-H E-H E-H E-H E-H E-H E-H E-H E-H E-H E-H E-H E-H E-H E-H E-H E-H E-H E-H E-H E-H E-H E-H E-H E-H E-H E-H E-H E-H E-H E-H E-H E-H E-H E-H E-H E-H E-H E-H E-H E-H E-H E-H E-H E-H E-H E-H E-H E-H E-H E-H E-H E-H E-H E-H E-H E-H E-H E-H E-H E-H E-H E-H E-H E-H E-H E-H E-H E-H E-H E-H E-H E-H E-H E-H E-H E-H E-H E-H E-H E-H E-H E-H E-H E-H E-H E-H E-H E-H E-H E-H E-H E-H E-H E-H E-H E-H E-H E-H E-H E-H E-H E-H E-H E-H E-H E-H E-H E-H E-H E-H E-H E-H E-H E-H E-H E-H E-H E-H E-H E-H E-H E-H E-H E-H E-H -H -H -H -H -CH -CH -CH -CH -CH -CH -CH -CH -CH -CH -CH -CH -CH -CH -CH -CH -CH -CH -CH -CH -CH -CH -CH -CH -CH -CH -CH -CH -CH -CH -CH -CH -CH -CH -CH -CH -CH -CH -CH -CH -CH -CH -CH -CH -CH -CH -CH -CH -CH -CH -CH -CH -CH -CH -CH -CH -CH -CH -CH -CH -CH -CH -CH -CH -CH -CH -CH -CH -CH -CH -CH -CH -CH -CH -CH -CH -CH -CH -CH -CH -CH -CH -CH -CH -CH -CH -CH -CH -CH -CH -CH -CH -CH -CH -CH -CH -CH -CH -CH -CH -CH -CH -CH -CH -CH -CH -CH -CH -CH -CH -CH -CH -CH -CH -CH -CH -CH -CH -CH -CH -CH -CH -CH -CH -CH -CH -CH -CH -CH -CH -CH -CH -CH -CH -CH -CH -CH -CH -CH -CH -CH -CH -CH -CH -CH -CH -CH -CH -CH -CH -CH CH H H H A-H A-H A-H A-H A-H A-H A-H A-H A-H A-H A-H A-H A-H A-H A-H A-H A-H A-H A-H A-H A-H A-H A-H A-H A-H A-H A-H A-H A-H A-H A-H A-H A-H A-H A-H A-H A-H A-H A-H A-H A-H A-H A-H A-H A-H A-H A-H A-H A-H A-H A-H A-H A-H A-H A-H A-H A-H A-H A-H A-H A-H A-H A-H A-H A-H A-H A-H A-H A-H A-H A-H A-H A-H A-H A-H A-H A-H A-H A-H A-H A-H A-H A-H A-H A-H A-H A-H A-H A-H A-H A-H A-H A-H A-H A-H A-H A-H A-H A-H A-H A-H A-H A-H A-H A-H A-H A-H A-H A-H A-H A-H A-H A-H A-H A-H A-H A-H A-H A-H A-H A-H A-H A-H A-H A-H A-H A-H A-H A-H A-H A-H A-H A-H A-H A-H A-H A-H A-H A-H A-H A-H A-H A-H A-H A-H A-H A-H A-H A-H A-H A-H A-H -H -H -H -H -?H -?H -?H -?H -?H -?H -?H -?H -?H -?H -?H -?H -?H -?H -?H -?H -?H -?H -?H -?H -?H -?H -?H -?H -?H -?H -?H -?H -?H -?H -?H -?H -?H -?H -?H -?H -?H -?H -?H -?H -?H -?H -?H -?H -?H -?H -?H -?H -?H -?H -?H -?H -?H -?H -?H -?H -?H -?H -?H -?H -?H -?H -?H -?H -?H -?H -?H -?H -?H -?H -?H -?H -?H -?H -?H -?H -?H -?H -?H -?H -?H -?H -?H -?H -?H -?H -?H -?H -?H -?H -?H -?H -?H -?H -?H -?H -?H -?H -?H -?H -?H -?H -?H -?H -?H -?H -?H -?H -?H -?H -?H -?H -?H -?H -?H -?H -?H -?H -?H -?H -?H -?H -?H -?H -?H -?H -?H -?H -?H -?H -?H -?H -?H -?H -?H -?H -?H -?H -?H -?H -?H -?H -?H -?H -?H -?H -?H -?H -?H -?H -?H ?H H H H A&H A&H A&H A&H A&H A&H A&H A&H A&H A&H A&H A&H A&H A&H A&H A&H A&H A&H A&H A&H A&H A&H A&H A&H A&H A&H A&H A&H A&H A&H A&H A&H A&H A&H A&H A&H A&H A&H A&H A&H A&H A&H A&H A&H A&H A&H A&H A&H A&H A&H A&H A&H A&H A&H A&H A&H A&H A&H A&H A&H A&H A&H A&H A&H A&H A&H A&H A&H A&H A&H A&H A&H A&H A&H A&H A&H A&H A&H A&H A&H A&H A&H A&H A&H A&H A&H A&H A&H A&H A&H A&H A&H A&H A&H A&H A&H A&H A&H A&H A&H A&H A&H A&H A&H A&H A&H A&H A&H A&H A&H A&H A&H A&H A&H A&H A&H A&H A&H A&H A&H A&H A&H A&H A&H A&H A&H A&H A&H A&H A&H A&H A&H A&H A&H A&H A&H A&H A&H A&H A&H A&H A&H A&H A&H A&H A&H A&H A&H A&H A&H A&H A&H &H &H &H &H &?H &?H &?H &?H &?H &?H &?H &?H &?H &?H &?H &?H &?H &?H &?H &?H &?H &?H &?H &?H &?H &?H &?H &?H &?H &?H &?H &?H &?H &?H &?H &?H &?H &?H &?H &?H &?H &?H &?H &?H &?H &?H &?H &?H &?H &?H &?H &?H &?H &?H &?H &?H &?H &?H &?H &?H &?H &?H &?H &?H &?H &?H &?H &?H &?H &?H &?H &?H &?H &?H &?H &?H &?H &?H &?H &?H &?H &?H &?H &?H &?H &?H &?H &?H &?H &?H &?H &?H &?H &?H &?H &?H &?H &?H &?H &?H &?H &?H &?H &?H &?H &?H &?H &?H &?H &?H &?H &?H &?H &?H &?H &?H &?H &?H &?H &?H &?H &?H &?H &?H &?H &?H &?H &?H &?H &?H &?H &?H &?H &?H &?H &?H &?H &?H &?H &?H &?H &?H &?H &?H &?H &?H &?H &?H &?H &?H &?H &?H &?H &?H &?H ?H H H H H A2H A2H A2H A2H A2H A2H A2H A2H A2H A2H A2H A2H A2H A2H A2H A2H A2H A2H A2H A2H A2H A2H A2H A2H A2H A2H A2H A2H A2H A2H A2H A2H A2H A2H A2H A2H A2H A2H A2H A2H A2H A2H A2H A2H A2H A2H A2H A2H A2H A2H A2H A2H A2H A2H A2H A2H A2H A2H A2H A2H A2H A2H A2H A2H A2H A2H A2H A2H A2H A2H A2H A2H A2H A2H A2H A2H A2H A2H A2H A2H A2H A2H A2H A2H A2H A2H A2H A2H A2H A2H A2H A2H A2H A2H A2H A2H A2H A2H A2H A2H A2H A2H A2H A2H A2H A2H A2H A2H A2H A2H A2H A2H A2H A2H A2H A2H A2H A2H A2H A2H A2H A2H A2H A2H A2H A2H A2H A2H A2H A2H A2H A2H A2H A2H A2H A2H A2H A2H A2H A2H A2H A2H A2H A2H A2H A2H A2H A2H A2H A2H A2H A2H 2H 2H 2H C2H C2H C2H C2H C2H C2H C2H C2H C2H C2H C2H C2H C2H C2H C2H C2H C2H C2H C2H C2H C2H C2H C2H C2H C2H C2H C2H C2H C2H C2H C2H C2H C2H C2H C2H C2H C2H C2H C2H C2H C2H C2H C2H C2H C2H C2H C2H C2H C2H C2H C2H C2H C2H C2H C2H C2H C2H C2H C2H C2H C2H C2H C2H C2H C2H C2H C2H C2H C2H C2H C2H C2H C2H C2H C2H C2H C2H C2H C2H C2H C2H C2H C2H C2H C2H C2H C2H C2H C2H C2H C2H C2H C2H C2H C2H C2H C2H C2H C2H C2H C2H C2H C2H C2H C2H C2H C2H C2H C2H C2H C2H C2H C2H C2H C2H C2H C2H C2H C2H C2H C2H C2H C2H C2H C2H C2H C2H C2H C2H C2H C2H C2H C2H C2H C2H C2H C2H C2H C2H C2H C2H C2H C2H C2H C2H C2H C2H C2H C2H C2H C2H C2H H H H H E2H E2H E2H E2H E2H E2H E2H E2H E2H E2H E2H E2H E2H E2H E2H E2H E2H E2H E2H E2H E2H E2H E2H E2H E2H E2H E2H E2H E2H E2H E2H E2H E2H E2H E2H E2H E2H E2H E2H E2H E2H E2H E2H E2H E2H E2H E2H E2H E2H E2H E2H E2H E2H E2H E2H E2H E2H E2H E2H E2H E2H E2H E2H E2H E2H E2H E2H E2H E2H E2H E2H E2H E2H E2H E2H E2H E2H E2H E2H E2H E2H E2H E2H E2H E2H E2H E2H E2H E2H E2H E2H E2H E2H E2H E2H E2H E2H E2H E2H E2H E2H E2H E2H E2H E2H E2H E2H E2H E2H E2H E2H E2H E2H E2H E2H E2H E2H E2H E2H E2H E2H E2H E2H E2H E2H E2H E2H E2H E2H E2H E2H E2H E2H E2H E2H E2H E2H E2H E2H E2H E2H E2H E2H E2H E2H E2H E2H E2H E2H E2H E2H E2H 2H 2H 2H A2H A2H A2H A2H A2H A2H A2H A2H A2H A2H A2H A2H A2H A2H A2H A2H A2H A2H A2H A2H A2H A2H A2H A2H A2H A2H A2H A2H A2H A2H A2H A2H A2H A2H A2H A2H A2H A2H A2H A2H A2H A2H A2H A2H A2H A2H A2H A2H A2H A2H A2H A2H A2H A2H A2H A2H A2H A2H A2H A2H A2H A2H A2H A2H A2H A2H A2H A2H A2H A2H A2H A2H A2H A2H A2H A2H A2H A2H A2H A2H A2H A2H A2H A2H A2H A2H A2H A2H A2H A2H A2H A2H A2H A2H A2H A2H A2H A2H A2H A2H A2H A2H A2H A2H A2H A2H A2H A2H A2H A2H A2H A2H A2H A2H A2H A2H A2H A2H A2H A2H A2H A2H A2H A2H A2H A2H A2H A2H A2H A2H A2H A2H A2H A2H A2H A2H A2H A2H A2H A2H A2H A2H A2H A2H A2H A2H A2H A2H A2H A2H A2H A2H     >7F >7F >7F >7F >7F >7F >7F >7F >7F >7F >7F >7F >7F >7F >7F >7F >7F >7F >7F >7F >7F >7F >7F >7F >7F >7F >7F >7F >7F >7F >7F >7F >7F >7F >7F >7F >7F >7F >7F >7F >7F >7F >7F >7F >7F >7F >7F >7F >7F >7F >7F >7F >7F >7F >7F >7F >7F >7F >7F >7F >7F >7F >7F >7F >7F >7F >7F >7F >7F >7F >7F >7F >7F >7F >7F >7F >7F >7F >7F >7F >7F >7F >7F >7F >7F >7F >7F >7F >7F >7F >7F >7F >7F >7F >7F >7F >7F >7F >7F >7F >7F >7F >7F >7F >7F >7F >7F >7F >7F >7F >7F >7F >7F >7F >7F >7F >7F >7F >7F >7F >7F >7F >7F >7F >7F >7F >7F >7F >7F >7F >7F >7F >7F >7F >7F >7F >7F >7F >7F >7F >7F >7F >7F >7F >7F >7F >7F >7F >7F >7F >7F >7F 7F 7F 7F E7F E7F E7F E7F E7F E7F E7F E7F E7F E7F E7F E7F E7F E7F E7F E7F E7F E7F E7F E7F E7F E7F E7F E7F E7F E7F E7F E7F E7F E7F E7F E7F E7F E7F E7F E7F E7F E7F E7F E7F E7F E7F E7F E7F E7F E7F E7F E7F E7F E7F E7F E7F E7F E7F E7F E7F E7F E7F E7F E7F E7F E7F E7F E7F E7F E7F E7F E7F E7F E7F E7F E7F E7F E7F E7F E7F E7F E7F E7F E7F E7F E7F E7F E7F E7F E7F E7F E7F E7F E7F E7F E7F E7F E7F E7F E7F E7F E7F E7F E7F E7F E7F E7F E7F E7F E7F E7F E7F E7F E7F E7F E7F E7F E7F E7F E7F E7F E7F E7F E7F E7F E7F E7F E7F E7F E7F E7F E7F E7F E7F E7F E7F E7F E7F E7F E7F E7F E7F E7F E7F E7F E7F E7F E7F E7F E7F E7F E7F E7F E7F E7F E7F F F F F C+F C+F C+F C+F C+F C+F C+F C+F C+F C+F C+F C+F C+F C+F C+F C+F C+F C+F C+F C+F C+F C+F C+F C+F C+F C+F C+F C+F C+F C+F C+F C+F C+F C+F C+F C+F C+F C+F C+F C+F C+F C+F C+F C+F C+F C+F C+F C+F C+F C+F C+F C+F C+F C+F C+F C+F C+F C+F C+F C+F C+F C+F C+F C+F C+F C+F C+F C+F C+F C+F C+F C+F C+F C+F C+F C+F C+F C+F C+F C+F C+F C+F C+F C+F C+F C+F C+F C+F C+F C+F C+F C+F C+F C+F C+F C+F C+F C+F C+F C+F C+F C+F C+F C+F C+F C+F C+F C+F C+F C+F C+F C+F C+F C+F C+F C+F C+F C+F C+F C+F C+F C+F C+F C+F C+F C+F C+F C+F C+F C+F C+F C+F C+F C+F C+F C+F C+F C+F C+F C+F C+F C+F C+F C+F C+F C+F C+F C+F C+F C+F C+F C+F +F +F +F A+F A+F A+F A+F A+F A+F A+F A+F A+F A+F A+F A+F A+F A+F A+F A+F A+F A+F A+F A+F A+F A+F A+F A+F A+F A+F A+F A+F A+F A+F A+F A+F A+F A+F A+F A+F A+F A+F A+F A+F A+F A+F A+F A+F A+F A+F A+F A+F A+F A+F A+F A+F A+F A+F A+F A+F A+F A+F A+F A+F A+F A+F A+F A+F A+F A+F A+F A+F A+F A+F A+F A+F A+F A+F A+F A+F A+F A+F A+F A+F A+F A+F A+F A+F A+F A+F A+F A+F A+F A+F A+F A+F A+F A+F A+F A+F A+F A+F A+F A+F A+F A+F A+F A+F A+F A+F A+F A+F A+F A+F A+F A+F A+F A+F A+F A+F A+F A+F A+F A+F A+F A+F A+F A+F A+F A+F A+F A+F A+F A+F A+F A+F A+F A+F A+F A+F A+F A+F A+F A+F A+F A+F A+F A+F A+F A+F A+F A+F A+F A+F A+F A+F F F F F ?+F ?+F ?+F ?+F ?+F ?+F ?+F ?+F ?+F ?+F ?+F ?+F ?+F ?+F ?+F ?+F ?+F ?+F ?+F ?+F ?+F ?+F ?+F ?+F ?+F ?+F ?+F ?+F ?+F ?+F ?+F ?+F ?+F ?+F ?+F ?+F ?+F ?+F ?+F ?+F ?+F ?+F ?+F ?+F ?+F ?+F ?+F ?+F ?+F ?+F ?+F ?+F ?+F ?+F ?+F ?+F ?+F ?+F ?+F ?+F ?+F ?+F ?+F ?+F ?+F ?+F ?+F ?+F ?+F ?+F ?+F ?+F ?+F ?+F ?+F ?+F ?+F ?+F ?+F ?+F ?+F ?+F ?+F ?+F ?+F ?+F ?+F ?+F ?+F ?+F ?+F ?+F ?+F ?+F ?+F ?+F ?+F ?+F ?+F ?+F ?+F ?+F ?+F ?+F ?+F ?+F ?+F ?+F ?+F ?+F ?+F ?+F ?+F ?+F ?+F ?+F ?+F ?+F ?+F ?+F ?+F ?+F ?+F ?+F ?+F ?+F ?+F ?+F ?+F ?+F ?+F ?+F ?+F ?+F ?+F ?+F ?+F ?+F ?+F ?+F ?+F ?+F ?+F ?+F ?+F ?+F ?+F ?+F ?+F ?+F ?+F ?+F +F +F +F >+F >+F >+F >+F >+F >+F >+F >+F >+F >+F >+F >+F >+F >+F >+F >+F >+F >+F >+F >+F >+F >+F >+F >+F >+F >+F >+F >+F >+F >+F >+F >+F >+F >+F >+F >+F >+F >+F >+F >+F >+F >+F >+F >+F >+F >+F >+F >+F >+F >+F >+F >+F >+F >+F >+F >+F >+F >+F >+F >+F >+F >+F >+F >+F >+F >+F >+F >+F >+F >+F >+F >+F >+F >+F >+F >+F >+F >+F >+F >+F >+F >+F >+F >+F >+F >+F >+F >+F >+F >+F >+F >+F >+F >+F >+F >+F >+F >+F >+F >+F >+F >+F >+F >+F >+F >+F >+F >+F >+F >+F >+F >+F >+F >+F >+F >+F >+F >+F >+F >+F >+F >+F >+F >+F >+F >+F >+F >+F >+F >+F >+F >+F >+F >+F >+F >+F >+F >+F >+F >+F >+F >+F >+F >+F >+F >+F >+F >+F >+F >+F >+F >+F F F F F ?$F ?$F ?$F ?$F ?$F ?$F ?$F ?$F ?$F ?$F ?$F ?$F ?$F ?$F ?$F ?$F ?$F ?$F ?$F ?$F ?$F ?$F ?$F ?$F ?$F ?$F ?$F ?$F ?$F ?$F ?$F ?$F ?$F ?$F ?$F ?$F ?$F ?$F ?$F ?$F ?$F ?$F ?$F ?$F ?$F ?$F ?$F ?$F ?$F ?$F ?$F ?$F ?$F ?$F ?$F ?$F ?$F ?$F ?$F ?$F ?$F ?$F ?$F ?$F ?$F ?$F ?$F ?$F ?$F ?$F ?$F ?$F ?$F ?$F ?$F ?$F ?$F ?$F ?$F ?$F ?$F ?$F ?$F ?$F ?$F ?$F ?$F ?$F ?$F ?$F ?$F ?$F ?$F ?$F ?$F ?$F ?$F ?$F ?$F ?$F ?$F ?$F ?$F ?$F ?$F ?$F ?$F ?$F ?$F ?$F ?$F ?$F ?$F ?$F ?$F ?$F ?$F ?$F ?$F ?$F ?$F ?$F ?$F ?$F ?$F ?$F ?$F ?$F ?$F ?$F ?$F ?$F ?$F ?$F ?$F ?$F ?$F ?$F ?$F ?$F ?$F ?$F ?$F ?$F ?$F ?$F ?$F ?$F ?$F ?$F ?$F ?$F $F $F $F >$F >$F >$F >$F >$F >$F >$F >$F >$F >$F >$F >$F >$F >$F >$F >$F >$F >$F >$F >$F >$F >$F >$F >$F >$F >$F >$F >$F >$F >$F >$F >$F >$F >$F >$F >$F >$F >$F >$F >$F >$F >$F >$F >$F >$F >$F >$F >$F >$F >$F >$F >$F >$F >$F >$F >$F >$F >$F >$F >$F >$F >$F >$F >$F >$F >$F >$F >$F >$F >$F >$F >$F >$F >$F >$F >$F >$F >$F >$F >$F >$F >$F >$F >$F >$F >$F >$F >$F >$F >$F >$F >$F >$F >$F >$F >$F >$F >$F >$F >$F >$F >$F >$F >$F >$F >$F >$F >$F >$F >$F >$F >$F >$F >$F >$F >$F >$F >$F >$F >$F >$F >$F >$F >$F >$F >$F >$F >$F >$F >$F >$F >$F >$F >$F >$F >$F >$F >$F >$F >$F >$F >$F >$F >$F >$F >$F >$F >$F >$F >$F >$F >$F F F F F ?0F ?0F ?0F ?0F ?0F ?0F ?0F ?0F ?0F ?0F ?0F ?0F ?0F ?0F ?0F ?0F ?0F ?0F ?0F ?0F ?0F ?0F ?0F ?0F ?0F ?0F ?0F ?0F ?0F ?0F ?0F ?0F ?0F ?0F ?0F ?0F ?0F ?0F ?0F ?0F ?0F ?0F ?0F ?0F ?0F ?0F ?0F ?0F ?0F ?0F ?0F ?0F ?0F ?0F ?0F ?0F ?0F ?0F ?0F ?0F ?0F ?0F ?0F ?0F ?0F ?0F ?0F ?0F ?0F ?0F ?0F ?0F ?0F ?0F ?0F ?0F ?0F ?0F ?0F ?0F ?0F ?0F ?0F ?0F ?0F ?0F ?0F ?0F ?0F ?0F ?0F ?0F ?0F ?0F ?0F ?0F ?0F ?0F ?0F ?0F ?0F ?0F ?0F ?0F ?0F ?0F ?0F ?0F ?0F ?0F ?0F ?0F ?0F ?0F ?0F ?0F ?0F ?0F ?0F ?0F ?0F ?0F ?0F ?0F ?0F ?0F ?0F ?0F ?0F ?0F ?0F ?0F ?0F ?0F ?0F ?0F ?0F ?0F ?0F ?0F ?0F ?0F ?0F ?0F ?0F ?0F ?0F ?0F ?0F ?0F ?0F ?0F 0F 0F 0F A0F A0F A0F A0F A0F A0F A0F A0F A0F A0F A0F A0F A0F A0F A0F A0F A0F A0F A0F A0F A0F A0F A0F A0F A0F A0F A0F A0F A0F A0F A0F A0F A0F A0F A0F A0F A0F A0F A0F A0F A0F A0F A0F A0F A0F A0F A0F A0F A0F A0F A0F A0F A0F A0F A0F A0F A0F A0F A0F A0F A0F A0F A0F A0F A0F A0F A0F A0F A0F A0F A0F A0F A0F A0F A0F A0F A0F A0F A0F A0F A0F A0F A0F A0F A0F A0F A0F A0F A0F A0F A0F A0F A0F A0F A0F A0F A0F A0F A0F A0F A0F A0F A0F A0F A0F A0F A0F A0F A0F A0F A0F A0F A0F A0F A0F A0F A0F A0F A0F A0F A0F A0F A0F A0F A0F A0F A0F A0F A0F A0F A0F A0F A0F A0F A0F A0F A0F A0F A0F A0F A0F A0F A0F A0F A0F A0F A0F A0F A0F A0F A0F A0F F F F F C0F C0F C0F C0F C0F C0F C0F C0F C0F C0F C0F C0F C0F C0F C0F C0F C0F C0F C0F C0F C0F C0F C0F C0F C0F C0F C0F C0F C0F C0F C0F C0F C0F C0F C0F C0F C0F C0F C0F C0F C0F C0F C0F C0F C0F C0F C0F C0F C0F C0F C0F C0F C0F C0F C0F C0F C0F C0F C0F C0F C0F C0F C0F C0F C0F C0F C0F C0F C0F C0F C0F C0F C0F C0F C0F C0F C0F C0F C0F C0F C0F C0F C0F C0F C0F C0F C0F C0F C0F C0F C0F C0F C0F C0F C0F C0F C0F C0F C0F C0F C0F C0F C0F C0F C0F C0F C0F C0F C0F C0F C0F C0F C0F C0F C0F C0F C0F C0F C0F C0F C0F C0F C0F C0F C0F C0F C0F C0F C0F C0F C0F C0F C0F C0F C0F C0F C0F C0F C0F C0F C0F C0F C0F C0F C0F C0F C0F C0F C0F C0F C0F C0F 0F 0F 0F ?0F ?0F ?0F ?0F ?0F ?0F ?0F ?0F ?0F ?0F ?0F ?0F ?0F ?0F ?0F ?0F ?0F ?0F ?0F ?0F ?0F ?0F ?0F ?0F ?0F ?0F ?0F ?0F ?0F ?0F ?0F ?0F ?0F ?0F ?0F ?0F ?0F ?0F ?0F ?0F ?0F ?0F ?0F ?0F ?0F ?0F ?0F ?0F ?0F ?0F ?0F ?0F ?0F ?0F ?0F ?0F ?0F ?0F ?0F ?0F ?0F ?0F ?0F ?0F ?0F ?0F ?0F ?0F ?0F ?0F ?0F ?0F ?0F ?0F ?0F ?0F ?0F ?0F ?0F ?0F ?0F ?0F ?0F ?0F ?0F ?0F ?0F ?0F ?0F ?0F ?0F ?0F ?0F ?0F ?0F ?0F ?0F ?0F ?0F ?0F ?0F ?0F ?0F ?0F ?0F ?0F ?0F ?0F ?0F ?0F ?0F ?0F ?0F ?0F ?0F ?0F ?0F ?0F ?0F ?0F ?0F ?0F ?0F ?0F ?0F ?0F ?0F ?0F ?0F ?0F ?0F ?0F ?0F ?0F ?0F ?0F ?0F ?0F ?0F ?0F ?0F ?0F ?0F ?0F ?0F ?0F ?0F ?0F ?0F ?0F ?0F ?0F F    <5E <5E <5E <5E <5E <5E <5E <5E <5E <5E <5E <5E <5E <5E <5E <5E <5E <5E <5E <5E <5E <5E <5E <5E <5E <5E <5E <5E <5E <5E <5E <5E <5E <5E <5E <5E <5E <5E <5E <5E <5E <5E <5E <5E <5E <5E <5E <5E <5E <5E <5E <5E <5E <5E <5E <5E <5E <5E <5E <5E <5E <5E <5E <5E <5E <5E <5E <5E <5E <5E <5E <5E <5E <5E <5E <5E <5E <5E <5E <5E <5E <5E <5E <5E <5E <5E <5E <5E <5E <5E <5E <5E <5E <5E <5E <5E <5E <5E <5E <5E <5E <5E <5E <5E <5E <5E <5E <5E <5E <5E <5E <5E <5E <5E <5E <5E <5E <5E <5E <5E <5E <5E <5E <5E <5E <5E <5E <5E <5E <5E <5E <5E <5E <5E <5E <5E <5E <5E <5E <5E <5E <5E <5E <5E <5E <5E <5E <5E <5E <5E <5E <5E 5E 5E 5E C5E C5E C5E C5E C5E C5E C5E C5E C5E C5E C5E C5E C5E C5E C5E C5E C5E C5E C5E C5E C5E C5E C5E C5E C5E C5E C5E C5E C5E C5E C5E C5E C5E C5E C5E C5E C5E C5E C5E C5E C5E C5E C5E C5E C5E C5E C5E C5E C5E C5E C5E C5E C5E C5E C5E C5E C5E C5E C5E C5E C5E C5E C5E C5E C5E C5E C5E C5E C5E C5E C5E C5E C5E C5E C5E C5E C5E C5E C5E C5E C5E C5E C5E C5E C5E C5E C5E C5E C5E C5E C5E C5E C5E C5E C5E C5E C5E C5E C5E C5E C5E C5E C5E C5E C5E C5E C5E C5E C5E C5E C5E C5E C5E C5E C5E C5E C5E C5E C5E C5E C5E C5E C5E C5E C5E C5E C5E C5E C5E C5E C5E C5E C5E C5E C5E C5E C5E C5E C5E C5E C5E C5E C5E C5E C5E C5E C5E C5E C5E C5E C5E C5E 5E 5E 5E 5E A5E A5E A5E A5E A5E A5E A5E A5E A5E A5E A5E A5E A5E A5E A5E A5E A5E A5E A5E A5E A5E A5E A5E A5E A5E A5E A5E A5E A5E A5E A5E A5E A5E A5E A5E A5E A5E A5E A5E A5E A5E A5E A5E A5E A5E A5E A5E A5E A5E A5E A5E A5E A5E A5E A5E A5E A5E A5E A5E A5E A5E A5E A5E A5E A5E A5E A5E A5E A5E A5E A5E A5E A5E A5E A5E A5E A5E A5E A5E A5E A5E A5E A5E A5E A5E A5E A5E A5E A5E A5E A5E A5E A5E A5E A5E A5E A5E A5E A5E A5E A5E A5E A5E A5E A5E A5E A5E A5E A5E A5E A5E A5E A5E A5E A5E A5E A5E A5E A5E A5E A5E A5E A5E A5E A5E A5E A5E A5E A5E A5E A5E A5E A5E A5E A5E A5E A5E A5E A5E A5E A5E A5E A5E A5E A5E A5E A5E A5E A5E A5E A5E A5E 5E 5E 5E ?5E ?5E ?5E ?5E ?5E ?5E ?5E ?5E ?5E ?5E ?5E ?5E ?5E ?5E ?5E ?5E ?5E ?5E ?5E ?5E ?5E ?5E ?5E ?5E ?5E ?5E ?5E ?5E ?5E ?5E ?5E ?5E ?5E ?5E ?5E ?5E ?5E ?5E ?5E ?5E ?5E ?5E ?5E ?5E ?5E ?5E ?5E ?5E ?5E ?5E ?5E ?5E ?5E ?5E ?5E ?5E ?5E ?5E ?5E ?5E ?5E ?5E ?5E ?5E ?5E ?5E ?5E ?5E ?5E ?5E ?5E ?5E ?5E ?5E ?5E ?5E ?5E ?5E ?5E ?5E ?5E ?5E ?5E ?5E ?5E ?5E ?5E ?5E ?5E ?5E ?5E ?5E ?5E ?5E ?5E ?5E ?5E ?5E ?5E ?5E ?5E ?5E ?5E ?5E ?5E ?5E ?5E ?5E ?5E ?5E ?5E ?5E ?5E ?5E ?5E ?5E ?5E ?5E ?5E ?5E ?5E ?5E ?5E ?5E ?5E ?5E ?5E ?5E ?5E ?5E ?5E ?5E ?5E ?5E ?5E ?5E ?5E ?5E ?5E ?5E ?5E ?5E ?5E ?5E ?5E ?5E ?5E ?5E ?5E ?5E ?5E ?5E 5E 5E 5E 5E >5E >5E >5E >5E >5E >5E >5E >5E >5E >5E >5E >5E >5E >5E >5E >5E >5E >5E >5E >5E >5E >5E >5E >5E >5E >5E >5E >5E >5E >5E >5E >5E >5E >5E >5E >5E >5E >5E >5E >5E >5E >5E >5E >5E >5E >5E >5E >5E >5E >5E >5E >5E >5E >5E >5E >5E >5E >5E >5E >5E >5E >5E >5E >5E >5E >5E >5E >5E >5E >5E >5E >5E >5E >5E >5E >5E >5E >5E >5E >5E >5E >5E >5E >5E >5E >5E >5E >5E >5E >5E >5E >5E >5E >5E >5E >5E >5E >5E >5E >5E >5E >5E >5E >5E >5E >5E >5E >5E >5E >5E >5E >5E >5E >5E >5E >5E >5E >5E >5E >5E >5E >5E >5E >5E >5E >5E >5E >5E >5E >5E >5E >5E >5E >5E >5E >5E >5E >5E >5E >5E >5E >5E >5E >5E >5E >5E >5E >5E >5E >5E >5E >5E 5E 5E 5E <5E <5E <5E <5E <5E <5E <5E <5E <5E <5E <5E <5E <5E <5E <5E <5E <5E <5E <5E <5E <5E <5E <5E <5E <5E <5E <5E <5E <5E <5E <5E <5E <5E <5E <5E <5E <5E <5E <5E <5E <5E <5E <5E <5E <5E <5E <5E <5E <5E <5E <5E <5E <5E <5E <5E <5E <5E <5E <5E <5E <5E <5E <5E <5E <5E <5E <5E <5E <5E <5E <5E <5E <5E <5E <5E <5E <5E <5E <5E <5E <5E <5E <5E <5E <5E <5E <5E <5E <5E <5E <5E <5E <5E <5E <5E <5E <5E <5E <5E <5E <5E <5E <5E <5E <5E <5E <5E <5E <5E <5E <5E <5E <5E <5E <5E <5E <5E <5E <5E <5E <5E <5E <5E <5E <5E <5E <5E <5E <5E <5E <5E <5E <5E <5E <5E <5E <5E <5E <5E <5E <5E <5E <5E <5E <5E <5E <5E <5E <5E <5E <5E <5E E E   E> E> E> E> E> E> E> E> E> E> E> E> E> E> E> E> E> E> E> E> E> E> E> E> E> E> E> E> E> E> E> E> E> E> E> E> E> E> E> E> E> E> E> E> E> E> E> E> E> E> E> E> E> E> E> E> E> E> E> E> E> E> E> E> E> E> E> E> E> E> E> E> E> E> > > > > F> F> F> F> F> F> F> F> F> F> F> F> F> F> F> F> F> F> F> F> F> F> F> F> F> F> F> F> F> F> F> F> F> F> F> F> F> F> F> F> F> F> F> F> F> F> F> F> F> F> F> F> F> F> F> F> F> F> F> F> F> F> F> F> F> F> F> F> F> F> F> F> F> F>    HA HA HA HA HA HA HA HA HA HA HA HA HA HA HA HA HA HA HA HA HA HA HA HA HA HA HA HA HA HA HA HA HA HA HA HA HA HA HA HA HA HA HA HA HA HA HA HA HA HA HA HA HA HA HA HA HA HA HA HA HA HA HA HA HA HA HA HA HA HA HA HA HA HA A A A A FA FA FA FA FA FA FA FA FA FA FA FA FA FA FA FA FA FA FA FA FA FA FA FA FA FA FA FA FA FA FA FA FA FA FA FA FA FA FA FA FA FA FA FA FA FA FA FA FA FA FA FA FA FA FA FA FA FA FA FA FA FA FA FA FA FA FA FA FA FA FA FA FA FA     H? H? H? H? H? H? H? H? H? H? H? H? H? H? H? H? H? H? H? H? H? H? H? H? H? H? H? H? H? H? H? H? H? H? H? H? H? H? H? H? H? H? H? H? H? H? H? H? H? H? H? H? H? H? H? H? H? H? H? H? H? H? H? H? H? H? H? H? H? H? H? H? H? H? ? ? ? ? F? F? F? F? F? F? F? F? F? F? F? F? F? F? F? F? F? F? F? F? F? F? F? F? F? F? F? F? F? F? F? F? F? F? F? F? F? F? F? F? F? F? F? F? F? F? F? F? F? F? F? F? F? F? F? F? F? F? F? F? F? F? F? F? F? F? F? F? F? F? F? F? F? F?     H> H> H> H> H> H> H> H> H> H> H> H> H> H> H> H> H> H> H> H> H> H> H> H> H> H> H> H> H> H> H> H> H> H> H> H> H> H> H> H> H> H> H> H> H> H> H> H> H> H> H> H> H> H> H> H> H> H> H> H> H> H> H> H> H> H> H> H> H> H> H> H> H> H> > > > F> F> F> F> F> F> F> F> F> F> F> F> F> F> F> F> F> F> F> F> F> F> F> F> F> F> F> F> F> F> F> F> F> F> F> F> F> F> F> F> F> F> F> F> F> F> F> F> F> F> F> F> F> F> F> F> F> F> F> F> F> F> F> F> F> F> F> F> F> F> F> F> F> F> >    H< H< H< H< H< H< H< H< H< H< H< H< H< H< H< H< H< H< H< H< H< H< H< H< H< H< H< H< H< H< H< H< H< H< H< H< H< H< H< H< H< H< H< H< H< H< H< H< H< H< H< H< H< H< H< H< H< H< H< H< H< H< H< H< H< H< H< H< H< H< H< H< H< H< < < < < F< F< F< F< F< F< F< F< F< F< F< F< F< F< F< F< F< F< F< F< F< F< F< F< F< F< F< F< F< F< F< F< F< F< F< F< F< F< F< F< F< F< F< F< F< F< F< F< F< F< F< F< F< F< F< F< F< F< F< F< F< F< F< F< F< F< F< F< F< F< F< F< F< F<     E: E: E: E: E: E: E: E: E: E: E: E: E: E: E: E: E: E: E: E: E: E: E: E: E: E: E: E: E: E: E: E: E: E: E: E: E: E: E: E: E: E: E: E: E: E: E: E: E: E: E: E: E: E: E: E: E: E: E: E: E: E: E: E: E: E: E: E: E: E: E: E: E: E: : : : F: F: F: F: F: F: F: F: F: F: F: F: F: F: F: F: F: F: F: F: F: F: F: F: F: F: F: F: F: F: F: F: F: F: F: F: F: F: F: F: F: F: F: F: F: F: F: F: F: F: F: F: F: F: F: F: F: F: F: F: F: F: F: F: F: F: F: F: F: F: F: F: F: F: :    9H 9H 9H 9H 9H 9H 9H 9H 9H 9H 9H 9H 9H 9H 9H 9H 9H 9H 9H 9H 9H 9H 9H 9H 9H 9H 9H 9H 9H 9H 9H 9H 9H 9H 9H 9H 9H 9H 9H 9H 9H 9H 9H 9H 9H 9H 9H 9H 9H 9H 9H 9H 9H 9H 9H 9H 9H 9H 9H 9H 9H 9H 9H 9H 9H 9H 9H 9H 9H 9H 9H 9H 9H 9H 9H 9H 9H 9H 9H 9H 9H 9H 9H 9H 9H 9H 9H 9H 9H 9H 9H 9H 9H 9H 9H 9H 9H 9H 9H 9H 9H 9H 9H 9H 9H 9H 9H 9H 9H 9H 9H 9H 9H 9H 9H 9H 9H 9H 9H 9H 9H 9H 9H 9H 9H 9H 9H 9H 9H 9H 9H 9H 9H 9H 9H 9H 9H 9H 9H 9H 9H 9H 9H 9H 9H 9H 9H 9H 9H 9H 9H 9H H H H H H: H: H: H: H: H: H: H: H: H: H: H: H: H: H: H: H: H: H: H: H: H: H: H: H: H: H: H: H: H: H: H: H: H: H: H: H: H: H: H: H: H: H: H: H: H: H: H: H: H: H: H: H: H: H: H: H: H: H: H: H: H: H: H: H: H: H: H: H: H: H: H: H: H: H: H: H: H: H: H: H: H: H: H: H: H: H: H: H: H: H: H: H: H: H: H: H: H: H: H: H: H: H: H: H: H: H: H: H: H: H: H: H: H: H: H: H: H: H: H: H: H: H: H: H: H: H: H: H: H: H: H: H: H: H: H: H: H: H: H: H: H: H: H: H: H: H: H: H: H: H: :    9EAH 9EAH 9EAH 9EAH 9EAH 9EAH 9EAH 9EAH 9EAH 9EAH 9EAH 9EAH 9EAH 9EAH 9EAH 9EAH 9EAH 9EAH 9EAH 9EAH 9EAH 9EAH 9EAH 9EAH 9EAH 9EAH 9EAH 9EAH 9EAH 9EAH 9EAH 9EAH 9EAH 9EAH 9EAH 9EAH 9EAH 9EAH 9EAH 9EAH 9EAH 9EAH 9EAH 9EAH 9EAH 9EAH 9EAH 9EAH 9EAH 9EAH 9EAH 9EAH 9EAH 9EAH 9EAH 9EAH 9EAH 9EAH 9EAH 9EAH 9EAH 9EAH 9EAH 9EAH 9EAH 9EAH 9EAH 9EAH 9EAH 9EAH 9EAH 9EAH 9EAH 9EAH 9EAH 9EAH 9EAH 9EAH 9EAH 9EAH 9EAH 9EAH 9EAH 9EAH 9EAH 9EAH 9EAH 9EAH 9EAH 9EAH 9EAH 9EAH 9EAH 9EAH 9EAH 9EAH 9EAH 9EAH 9EAH 9EAH 9EAH 9EAH 9EAH 9EAH 9EAH 9EAH 9EAH 9EAH 9EAH 9EAH 9EAH 9EAH 9EAH 9EAH 9EAH 9EAH 9EAH 9EAH 9EAH 9EAH 9EAH 9EAH 9EAH 9EAH 9EAH 9EAH 9EAH 9EAH 9EAH 9EAH 9EAH 9EAH 9EAH 9EAH 9EAH 9EAH 9EAH 9EAH 9EAH 9EAH 9EAH 9EAH 9EAH 9EAH 9EAH 9EAH 9EAH 9EAH 9EAH 9EAH 9EAH 9EAH EAH EAH EAH EAH EAH7 EAH7 EAH7 EAH7 EAH7 EAH7 EAH7 EAH7 EAH7 EAH7 EAH7 EAH7 EAH7 EAH7 EAH7 EAH7 EAH7 EAH7 EAH7 EAH7 EAH7 EAH7 EAH7 EAH7 EAH7 EAH7 EAH7 EAH7 EAH7 EAH7 EAH7 EAH7 EAH7 EAH7 EAH7 EAH7 EAH7 EAH7 EAH7 EAH7 EAH7 EAH7 EAH7 EAH7 EAH7 EAH7 EAH7 EAH7 EAH7 EAH7 EAH7 EAH7 EAH7 EAH7 EAH7 EAH7 EAH7 EAH7 EAH7 EAH7 EAH7 EAH7 EAH7 EAH7 EAH7 EAH7 EAH7 EAH7 EAH7 EAH7 EAH7 EAH7 EAH7 EAH7 EAH7 EAH7 EAH7 EAH7 EAH7 EAH7 EAH7 EAH7 EAH7 EAH7 EAH7 EAH7 EAH7 EAH7 EAH7 EAH7 EAH7 EAH7 EAH7 EAH7 EAH7 EAH7 EAH7 EAH7 EAH7 EAH7 EAH7 EAH7 EAH7 EAH7 EAH7 EAH7 EAH7 EAH7 EAH7 EAH7 EAH7 EAH7 EAH7 EAH7 EAH7 EAH7 EAH7 EAH7 EAH7 EAH7 EAH7 EAH7 EAH7 EAH7 EAH7 EAH7 EAH7 EAH7 EAH7 EAH7 EAH7 EAH7 EAH7 EAH7 EAH7 EAH7 EAH7 EAH7 EAH7 EAH7 EAH7 EAH7 EAH7 EAH7 EAH7 EAH7 EAH7 EAH7 EAH7 EAH7 EAH7 7    5AHE 5AHE 5AHE 5AHE 5AHE 5AHE 5AHE 5AHE 5AHE 5AHE 5AHE 5AHE 5AHE 5AHE 5AHE 5AHE 5AHE 5AHE 5AHE 5AHE 5AHE 5AHE 5AHE 5AHE 5AHE 5AHE 5AHE 5AHE 5AHE 5AHE 5AHE 5AHE 5AHE 5AHE 5AHE 5AHE 5AHE 5AHE 5AHE 5AHE 5AHE 5AHE 5AHE 5AHE 5AHE 5AHE 5AHE 5AHE 5AHE 5AHE 5AHE 5AHE 5AHE 5AHE 5AHE 5AHE 5AHE 5AHE 5AHE 5AHE 5AHE 5AHE 5AHE 5AHE 5AHE 5AHE 5AHE 5AHE 5AHE 5AHE 5AHE 5AHE 5AHE 5AHE 5AHE 5AHE 5AHE 5AHE 5AHE 5AHE 5AHE 5AHE 5AHE 5AHE 5AHE 5AHE 5AHE 5AHE 5AHE 5AHE 5AHE 5AHE 5AHE 5AHE 5AHE 5AHE 5AHE 5AHE 5AHE 5AHE 5AHE 5AHE 5AHE 5AHE 5AHE 5AHE 5AHE 5AHE 5AHE 5AHE 5AHE 5AHE 5AHE 5AHE 5AHE 5AHE 5AHE 5AHE 5AHE 5AHE 5AHE 5AHE 5AHE 5AHE 5AHE 5AHE 5AHE 5AHE 5AHE 5AHE 5AHE 5AHE 5AHE 5AHE 5AHE 5AHE 5AHE 5AHE 5AHE 5AHE 5AHE 5AHE 5AHE 5AHE 5AHE 5AHE 5AHE 5AHE 5AHE 5AHE 5AHE 5AHE AHE AHE AHE AHE AHE3 AHE3 AHE3 AHE3 AHE3 AHE3 AHE3 AHE3 AHE3 AHE3 AHE3 AHE3 AHE3 AHE3 AHE3 AHE3 AHE3 AHE3 AHE3 AHE3 AHE3 AHE3 AHE3 AHE3 AHE3 AHE3 AHE3 AHE3 AHE3 AHE3 AHE3 AHE3 AHE3 AHE3 AHE3 AHE3 AHE3 AHE3 AHE3 AHE3 AHE3 AHE3 AHE3 AHE3 AHE3 AHE3 AHE3 AHE3 AHE3 AHE3 AHE3 AHE3 AHE3 AHE3 AHE3 AHE3 AHE3 AHE3 AHE3 AHE3 AHE3 AHE3 AHE3 AHE3 AHE3 AHE3 AHE3 AHE3 AHE3 AHE3 AHE3 AHE3 AHE3 AHE3 AHE3 AHE3 AHE3 AHE3 AHE3 AHE3 AHE3 AHE3 AHE3 AHE3 AHE3 AHE3 AHE3 AHE3 AHE3 AHE3 AHE3 AHE3 AHE3 AHE3 AHE3 AHE3 AHE3 AHE3 AHE3 AHE3 AHE3 AHE3 AHE3 AHE3 AHE3 AHE3 AHE3 AHE3 AHE3 AHE3 AHE3 AHE3 AHE3 AHE3 AHE3 AHE3 AHE3 AHE3 AHE3 AHE3 AHE3 AHE3 AHE3 AHE3 AHE3 AHE3 AHE3 AHE3 AHE3 AHE3 AHE3 AHE3 AHE3 AHE3 AHE3 AHE3 AHE3 AHE3 AHE3 AHE3 AHE3 AHE3 AHE3 AHE3 AHE3 AHE3 AHE3 AHE3 AHE3 AHE3 AHE3 3    2DMF 2DMF 2DMF 2DMF 2DMF 2DMF 2DMF 2DMF 2DMF 2DMF 2DMF 2DMF 2DMF 2DMF 2DMF 2DMF 2DMF 2DMF 2DMF 2DMF 2DMF 2DMF 2DMF 2DMF 2DMF 2DMF 2DMF 2DMF 2DMF 2DMF 2DMF 2DMF 2DMF 2DMF 2DMF 2DMF 2DMF 2DMF 2DMF 2DMF 2DMF 2DMF 2DMF 2DMF 2DMF 2DMF 2DMF 2DMF 2DMF 2DMF 2DMF 2DMF 2DMF 2DMF 2DMF 2DMF 2DMF 2DMF 2DMF 2DMF 2DMF 2DMF 2DMF 2DMF 2DMF 2DMF 2DMF 2DMF 2DMF 2DMF 2DMF 2DMF 2DMF 2DMF 2DMF 2DMF 2DMF 2DMF 2DMF 2DMF 2DMF 2DMF 2DMF 2DMF 2DMF 2DMF 2DMF 2DMF 2DMF 2DMF 2DMF 2DMF 2DMF 2DMF 2DMF 2DMF 2DMF 2DMF 2DMF 2DMF 2DMF 2DMF 2DMF 2DMF 2DMF 2DMF 2DMF 2DMF 2DMF 2DMF 2DMF 2DMF 2DMF 2DMF 2DMF 2DMF 2DMF 2DMF 2DMF 2DMF 2DMF 2DMF 2DMF 2DMF 2DMF 2DMF 2DMF 2DMF 2DMF 2DMF 2DMF 2DMF 2DMF 2DMF 2DMF 2DMF 2DMF 2DMF 2DMF 2DMF 2DMF 2DMF 2DMF 2DMF 2DMF 2DMF 2DMF 2DMF 2DMF 2DMF 2DMF 2DMF DMF DMF DMF DMF DM0F DM0F DM0F DM0F DM0F DM0F DM0F DM0F DM0F DM0F DM0F DM0F DM0F DM0F DM0F DM0F DM0F DM0F DM0F DM0F DM0F DM0F DM0F DM0F DM0F DM0F DM0F DM0F DM0F DM0F DM0F DM0F DM0F DM0F DM0F DM0F DM0F DM0F DM0F DM0F DM0F DM0F DM0F DM0F DM0F DM0F DM0F DM0F DM0F DM0F DM0F DM0F DM0F DM0F DM0F DM0F DM0F DM0F DM0F DM0F DM0F DM0F DM0F DM0F DM0F DM0F DM0F DM0F DM0F DM0F DM0F DM0F DM0F DM0F DM0F DM0F DM0F DM0F DM0F DM0F DM0F DM0F DM0F DM0F DM0F DM0F DM0F DM0F DM0F DM0F DM0F DM0F DM0F DM0F DM0F DM0F DM0F DM0F DM0F DM0F DM0F DM0F DM0F DM0F DM0F DM0F DM0F DM0F DM0F DM0F DM0F DM0F DM0F DM0F DM0F DM0F DM0F DM0F DM0F DM0F DM0F DM0F DM0F DM0F DM0F DM0F DM0F DM0F DM0F DM0F DM0F DM0F DM0F DM0F DM0F DM0F DM0F DM0F DM0F DM0F DM0F DM0F DM0F DM0F DM0F DM0F DM0F DM0F DM0F DM0F DM0F 0F F F F .DMF .DMF .DMF .DMF .DMF .DMF .DMF .DMF .DMF .DMF .DMF .DMF .DMF .DMF .DMF .DMF .DMF .DMF .DMF .DMF .DMF .DMF .DMF .DMF .DMF .DMF .DMF .DMF .DMF .DMF .DMF .DMF .DMF .DMF .DMF .DMF .DMF .DMF .DMF .DMF .DMF .DMF .DMF .DMF .DMF .DMF .DMF .DMF .DMF .DMF .DMF .DMF .DMF .DMF .DMF .DMF .DMF .DMF .DMF .DMF .DMF .DMF .DMF .DMF .DMF .DMF .DMF .DMF .DMF .DMF .DMF .DMF .DMF .DMF .DMF .DMF .DMF .DMF .DMF .DMF .DMF .DMF .DMF .DMF .DMF .DMF .DMF .DMF .DMF .DMF .DMF .DMF .DMF .DMF .DMF .DMF .DMF .DMF .DMF .DMF .DMF .DMF .DMF .DMF .DMF .DMF .DMF .DMF .DMF .DMF .DMF .DMF .DMF .DMF .DMF .DMF .DMF .DMF .DMF .DMF .DMF .DMF .DMF .DMF .DMF .DMF .DMF .DMF .DMF .DMF .DMF .DMF .DMF .DMF .DMF .DMF .DMF .DMF .DMF .DMF .DMF .DMF .DMF .DMF .DMF .DMF .DMF .DMF .DMF .DMF .DMF .DMF DMF DMF DMF DMF DM,F DM,F DM,F DM,F DM,F DM,F DM,F DM,F DM,F DM,F DM,F DM,F DM,F DM,F DM,F DM,F DM,F DM,F DM,F DM,F DM,F DM,F DM,F DM,F DM,F DM,F DM,F DM,F DM,F DM,F DM,F DM,F DM,F DM,F DM,F DM,F DM,F DM,F DM,F DM,F DM,F DM,F DM,F DM,F DM,F DM,F DM,F DM,F DM,F DM,F DM,F DM,F DM,F DM,F DM,F DM,F DM,F DM,F DM,F DM,F DM,F DM,F DM,F DM,F DM,F DM,F DM,F DM,F DM,F DM,F DM,F DM,F DM,F DM,F DM,F DM,F DM,F DM,F DM,F DM,F DM,F DM,F DM,F DM,F DM,F DM,F DM,F DM,F DM,F DM,F DM,F DM,F DM,F DM,F DM,F DM,F DM,F DM,F DM,F DM,F DM,F DM,F DM,F DM,F DM,F DM,F DM,F DM,F DM,F DM,F DM,F DM,F DM,F DM,F DM,F DM,F DM,F DM,F DM,F DM,F DM,F DM,F DM,F DM,F DM,F DM,F DM,F DM,F DM,F DM,F DM,F DM,F DM,F DM,F DM,F DM,F DM,F DM,F DM,F DM,F DM,F DM,F DM,F DM,F DM,F DM,F DM,F DM,F DM,F DM,F DM,F ,F F F F +DMF +DMF +DMF +DMF +DMF +DMF +DMF +DMF +DMF +DMF +DMF +DMF +DMF +DMF +DMF +DMF +DMF +DMF +DMF +DMF +DMF +DMF +DMF +DMF +DMF +DMF +DMF +DMF +DMF +DMF +DMF +DMF +DMF +DMF +DMF +DMF +DMF +DMF +DMF +DMF +DMF +DMF +DMF +DMF +DMF +DMF +DMF +DMF +DMF +DMF +DMF +DMF +DMF +DMF +DMF +DMF +DMF +DMF +DMF +DMF +DMF +DMF +DMF +DMF +DMF +DMF +DMF +DMF +DMF +DMF +DMF +DMF +DMF +DMF +DMF +DMF +DMF +DMF +DMF +DMF +DMF +DMF +DMF +DMF +DMF +DMF +DMF +DMF +DMF +DMF +DMF +DMF +DMF +DMF +DMF +DMF +DMF +DMF +DMF +DMF +DMF +DMF +DMF +DMF +DMF +DMF +DMF +DMF +DMF +DMF +DMF +DMF +DMF +DMF +DMF +DMF +DMF +DMF +DMF +DMF +DMF +DMF +DMF +DMF +DMF +DMF +DMF +DMF +DMF +DMF +DMF +DMF +DMF +DMF +DMF +DMF +DMF +DMF +DMF +DMF +DMF +DMF +DMF +DMF +DMF +DMF +DMF +DMF +DMF +DMF +DMF +DMF DMF DMF DMF DMF DM)F DM)F DM)F DM)F DM)F DM)F DM)F DM)F DM)F DM)F DM)F DM)F DM)F DM)F DM)F DM)F DM)F DM)F DM)F DM)F DM)F DM)F DM)F DM)F DM)F DM)F DM)F DM)F DM)F DM)F DM)F DM)F DM)F DM)F DM)F DM)F DM)F DM)F DM)F DM)F DM)F DM)F DM)F DM)F DM)F DM)F DM)F DM)F DM)F DM)F DM)F DM)F DM)F DM)F DM)F DM)F DM)F DM)F DM)F DM)F DM)F DM)F DM)F DM)F DM)F DM)F DM)F DM)F DM)F DM)F DM)F DM)F DM)F DM)F DM)F DM)F DM)F DM)F DM)F DM)F DM)F DM)F DM)F DM)F DM)F DM)F DM)F DM)F DM)F DM)F DM)F DM)F DM)F DM)F DM)F DM)F DM)F DM)F DM)F DM)F DM)F DM)F DM)F DM)F DM)F DM)F DM)F DM)F DM)F DM)F DM)F DM)F DM)F DM)F DM)F DM)F DM)F DM)F DM)F DM)F DM)F DM)F DM)F DM)F DM)F DM)F DM)F DM)F DM)F DM)F DM)F DM)F DM)F DM)F DM)F DM)F DM)F DM)F DM)F DM)F DM)F DM)F DM)F DM)F DM)F DM)F DM)F DM)F DM)F DM)F DM)F )F F F F 'DMF 'DMF 'DMF 'DMF 'DMF 'DMF 'DMF 'DMF 'DMF 'DMF 'DMF 'DMF 'DMF 'DMF 'DMF 'DMF 'DMF 'DMF 'DMF 'DMF 'DMF 'DMF 'DMF 'DMF 'DMF 'DMF 'DMF 'DMF 'DMF 'DMF 'DMF 'DMF 'DMF 'DMF 'DMF 'DMF 'DMF 'DMF 'DMF 'DMF 'DMF 'DMF 'DMF 'DMF 'DMF 'DMF 'DMF 'DMF 'DMF 'DMF 'DMF 'DMF 'DMF 'DMF 'DMF 'DMF 'DMF 'DMF 'DMF 'DMF 'DMF 'DMF 'DMF 'DMF 'DMF 'DMF 'DMF 'DMF 'DMF 'DMF 'DMF 'DMF 'DMF 'DMF 'DMF 'DMF 'DMF 'DMF 'DMF 'DMF 'DMF 'DMF 'DMF 'DMF 'DMF 'DMF 'DMF 'DMF 'DMF 'DMF 'DMF 'DMF 'DMF 'DMF 'DMF 'DMF 'DMF 'DMF 'DMF 'DMF 'DMF 'DMF 'DMF 'DMF 'DMF 'DMF 'DMF 'DMF 'DMF 'DMF 'DMF 'DMF 'DMF 'DMF 'DMF 'DMF 'DMF 'DMF 'DMF 'DMF 'DMF 'DMF 'DMF 'DMF 'DMF 'DMF 'DMF 'DMF 'DMF 'DMF 'DMF 'DMF 'DMF 'DMF 'DMF 'DMF 'DMF 'DMF 'DMF 'DMF 'DMF 'DMF 'DMF 'DMF 'DMF 'DMF 'DMF 'DMF 'DMF 'DMF 'DMF 'DMF 'DMF 'DMF 'DMF 'DMF 'DMF 'DMF 'DMF 'DMF 'DMF 'DMF 'DMF 'DMF 'DMF 'DMF 'DMF 'DMF 'DMF 'DMF 'DMF 'DMF 'DMF 'DMF 'DMF 'DMF 'DMF 'DMF 'DMF 'DMF 'DMF 'DMF 'DMF 'DMF 'DMF 'DMF 'DMF 'DMF 'DMF 'DMF 'DMF 'DMF 'DMF 'DMF 'DMF 'DMF 'DMF 'DMF 'DMF 'DMF 'DMF 'DMF 'DMF 'DMF 'DMF 'DMF 'DMF 'DMF 'DMF 'DMF 'DMF 'DMF 'DMF 'DMF 'DMF 'DMF 'DMF 'DMF 'DMF 'DMF 'DMF 'DMF 'DMF 'DMF 'DMF 'DMF 'DMF 'DMF 'DMF 'DMF 'DMF 'DMF 'DMF 'DMF 'DMF 'DMF 'DMF 'DMF 'DMF 'DMF 'DMF 'DMF 'DMF 'DMF 'DMF 'DMF 'DMF 'DMF 'DMF 'DMF 'DMF 'DMF 'DMF 'DMF 'DMF 'DMF 'DMF 'DMF 'DMF 'DMF 'DMF 'DMF 'DMF 'DMF 'DMF 'DMF 'DMF 'DMF 'DMF 'DMF 'DMF 'DMF 'DMF 'DMF 'DMF 'DMF 'DMF 'DMF 'DMF 'DMF 'DMF 'DMF 'DMF 'DMF 'DMF 'DMF 'DMF 'DMF 'DMF 'DMF 'DMF 'DMF 'DMF 'DMF 'DMF 'DMF 'DMF 'DMF 'DMF 'DMF 'DMF 'DMF 'DMF 'DMF 'DMF 'DMF 'DMF F F F F :CKF :CKF :CKF :CKF :CKF :CKF :CKF :CKF :CKF :CKF :CKF :CKF :CKF :CKF :CKF :CKF :CKF :CKF :CKF :CKF :CKF :CKF :CKF :CKF :CKF :CKF :CKF :CKF :CKF :CKF :CKF :CKF :CKF :CKF :CKF :CKF :CKF :CKF :CKF :CKF :CKF :CKF :CKF :CKF :CKF :CKF :CKF :CKF :CKF :CKF :CKF :CKF :CKF :CKF :CKF :CKF :CKF :CKF :CKF :CKF :CKF :CKF :CKF :CKF :CKF :CKF :CKF :CKF :CKF :CKF :CKF :CKF :CKF :CKF :CKF :CKF :CKF :CKF :CKF :CKF :CKF :CKF :CKF :CKF :CKF :CKF :CKF :CKF :CKF :CKF :CKF :CKF :CKF :CKF :CKF :CKF :CKF :CKF :CKF :CKF :CKF :CKF :CKF :CKF :CKF :CKF :CKF :CKF :CKF :CKF :CKF :CKF :CKF :CKF :CKF :CKF :CKF :CKF :CKF :CKF :CKF :CKF :CKF :CKF :CKF :CKF :CKF :CKF :CKF :CKF :CKF :CKF :CKF :CKF :CKF :CKF :CKF :CKF :CKF :CKF :CKF :CKF :CKF :CKF :CKF :CKF :CKF :CKF :CKF :CKF :CKF :CKF CKF CKF CKF CKF CKF8 CKF8 CKF8 CKF8 CKF8 CKF8 CKF8 CKF8 CKF8 CKF8 CKF8 CKF8 CKF8 CKF8 CKF8 CKF8 CKF8 CKF8 CKF8 CKF8 CKF8 CKF8 CKF8 CKF8 CKF8 CKF8 CKF8 CKF8 CKF8 CKF8 CKF8 CKF8 CKF8 CKF8 CKF8 CKF8 CKF8 CKF8 CKF8 CKF8 CKF8 CKF8 CKF8 CKF8 CKF8 CKF8 CKF8 CKF8 CKF8 CKF8 CKF8 CKF8 CKF8 CKF8 CKF8 CKF8 CKF8 CKF8 CKF8 CKF8 CKF8 CKF8 CKF8 CKF8 CKF8 CKF8 CKF8 CKF8 CKF8 CKF8 CKF8 CKF8 CKF8 CKF8 CKF8 CKF8 CKF8 CKF8 CKF8 CKF8 CKF8 CKF8 CKF8 CKF8 CKF8 CKF8 CKF8 CKF8 CKF8 CKF8 CKF8 CKF8 CKF8 CKF8 CKF8 CKF8 CKF8 CKF8 CKF8 CKF8 CKF8 CKF8 CKF8 CKF8 CKF8 CKF8 CKF8 CKF8 CKF8 CKF8 CKF8 CKF8 CKF8 CKF8 CKF8 CKF8 CKF8 CKF8 CKF8 CKF8 CKF8 CKF8 CKF8 CKF8 CKF8 CKF8 CKF8 CKF8 CKF8 CKF8 CKF8 CKF8 CKF8 CKF8 F8 8 8 8 8 8 8 8 8 8 8 8 8 8 8 8 8 8    7FCK 7FCK 7FCK 7FCK 7FCK 7FCK 7FCK 7FCK 7FCK 7FCK 7FCK 7FCK 7FCK 7FCK 7FCK 7FCK 7FCK 7FCK 7FCK 7FCK 7FCK 7FCK 7FCK 7FCK 7FCK 7FCK 7FCK 7FCK 7FCK 7FCK 7FCK 7FCK 7FCK 7FCK 7FCK 7FCK 7FCK 7FCK 7FCK 7FCK 7FCK 7FCK 7FCK 7FCK 7FCK 7FCK 7FCK 7FCK 7FCK 7FCK 7FCK 7FCK 7FCK 7FCK 7FCK 7FCK 7FCK 7FCK 7FCK 7FCK 7FCK 7FCK 7FCK 7FCK 7FCK 7FCK 7FCK 7FCK 7FCK 7FCK 7FCK 7FCK 7FCK 7FCK 7FCK 7FCK 7FCK 7FCK 7FCK 7FCK 7FCK 7FCK 7FCK 7FCK 7FCK 7FCK 7FCK 7FCK 7FCK 7FCK 7FCK 7FCK 7FCK 7FCK 7FCK 7FCK 7FCK 7FCK 7FCK 7FCK 7FCK 7FCK 7FCK 7FCK 7FCK 7FCK 7FCK 7FCK 7FCK 7FCK 7FCK 7FCK 7FCK 7FCK 7FCK 7FCK 7FCK 7FCK 7FCK 7FCK 7FCK 7FCK 7FCK 7FCK 7FCK 7FCK 7FCK 7FCK 7FCK 7FCK 7FCK 7FCK 7FCK 7FCK 7FCK 7FCK 7FCK 7FCK 7FCK 7FCK 7FCK 7FCK 7FCK 7FCK 7FCK 7FCK 7FCK 7FCK 7FCK 7FCK 7FCK 7FCK FCK FCK FCK FCK FCK5 FCK5 FCK5 FCK5 FCK5 FCK5 FCK5 FCK5 FCK5 FCK5 FCK5 FCK5 FCK5 FCK5 FCK5 FCK5 FCK5 FCK5 FCK5 FCK5 FCK5 FCK5 FCK5 FCK5 FCK5 FCK5 FCK5 FCK5 FCK5 FCK5 FCK5 FCK5 FCK5 FCK5 FCK5 FCK5 FCK5 FCK5 FCK5 FCK5 FCK5 FCK5 FCK5 FCK5 FCK5 FCK5 FCK5 FCK5 FCK5 FCK5 FCK5 FCK5 FCK5 FCK5 FCK5 FCK5 FCK5 FCK5 FCK5 FCK5 FCK5 FCK5 FCK5 FCK5 FCK5 FCK5 FCK5 FCK5 FCK5 FCK5 FCK5 FCK5 FCK5 FCK5 FCK5 FCK5 FCK5 FCK5 FCK5 FCK5 FCK5 FCK5 FCK5 FCK5 FCK5 FCK5 FCK5 FCK5 FCK5 FCK5 FCK5 FCK5 FCK5 FCK5 FCK5 FCK5 FCK5 FCK5 FCK5 FCK5 FCK5 FCK5 FCK5 FCK5 FCK5 FCK5 FCK5 FCK5 FCK5 FCK5 FCK5 FCK5 FCK5 FCK5 FCK5 FCK5 FCK5 FCK5 FCK5 FCK5 FCK5 FCK5 FCK5 FCK5 FCK5 FCK5 FCK5 FCK5 FCK5 FCK5 FCK5 FCK5 FCK5 FCK5 FCK5 FCK5 FCK5 FCK5 FCK5 FCK5 FCK5 FCK5 FCK5 FCK5 FCK5 FCK5 FCK5 FCK5 FCK5 FCK5 FCK5 5    4FOH 4FOH 4FOH 4FOH 4FOH 4FOH 4FOH 4FOH 4FOH 4FOH 4FOH 4FOH 4FOH 4FOH 4FOH 4FOH 4FOH 4FOH 4FOH 4FOH 4FOH 4FOH 4FOH 4FOH 4FOH 4FOH 4FOH 4FOH 4FOH 4FOH 4FOH 4FOH 4FOH 4FOH 4FOH 4FOH 4FOH 4FOH 4FOH 4FOH 4FOH 4FOH 4FOH 4FOH 4FOH 4FOH 4FOH 4FOH 4FOH 4FOH 4FOH 4FOH 4FOH 4FOH 4FOH 4FOH 4FOH 4FOH 4FOH 4FOH 4FOH 4FOH 4FOH 4FOH 4FOH 4FOH 4FOH 4FOH 4FOH 4FOH 4FOH 4FOH 4FOH 4FOH 4FOH 4FOH 4FOH 4FOH 4FOH 4FOH 4FOH 4FOH 4FOH 4FOH 4FOH 4FOH 4FOH 4FOH 4FOH 4FOH 4FOH 4FOH 4FOH 4FOH 4FOH 4FOH 4FOH 4FOH 4FOH 4FOH 4FOH 4FOH 4FOH 4FOH 4FOH 4FOH 4FOH 4FOH 4FOH 4FOH 4FOH 4FOH 4FOH 4FOH 4FOH 4FOH 4FOH 4FOH 4FOH 4FOH 4FOH 4FOH 4FOH 4FOH 4FOH 4FOH 4FOH 4FOH 4FOH 4FOH 4FOH 4FOH 4FOH 4FOH 4FOH 4FOH 4FOH 4FOH 4FOH 4FOH 4FOH 4FOH 4FOH 4FOH 4FOH 4FOH 4FOH 4FOH 4FOH 4FOH 4FOH 4FOH FOH FOH FOH FOH FO2H FO2H FO2H FO2H FO2H FO2H FO2H FO2H FO2H FO2H FO2H FO2H FO2H FO2H FO2H FO2H FO2H FO2H FO2H FO2H FO2H FO2H FO2H FO2H FO2H FO2H FO2H FO2H FO2H FO2H FO2H FO2H FO2H FO2H FO2H FO2H FO2H FO2H FO2H FO2H FO2H FO2H FO2H FO2H FO2H FO2H FO2H FO2H FO2H FO2H FO2H FO2H FO2H FO2H FO2H FO2H FO2H FO2H FO2H FO2H FO2H FO2H FO2H FO2H FO2H FO2H FO2H FO2H FO2H FO2H FO2H FO2H FO2H FO2H FO2H FO2H FO2H FO2H FO2H FO2H FO2H FO2H FO2H FO2H FO2H FO2H FO2H FO2H FO2H FO2H FO2H FO2H FO2H FO2H FO2H FO2H FO2H FO2H FO2H FO2H FO2H FO2H FO2H FO2H FO2H FO2H FO2H FO2H FO2H FO2H FO2H FO2H FO2H FO2H FO2H FO2H FO2H FO2H FO2H FO2H FO2H FO2H FO2H FO2H FO2H FO2H FO2H FO2H FO2H FO2H FO2H FO2H FO2H FO2H FO2H FO2H FO2H FO2H FO2H FO2H FO2H FO2H FO2H FO2H FO2H FO2H FO2H FO2H FO2H FO2H FO2H 2H H H H 0FOH 0FOH 0FOH 0FOH 0FOH 0FOH 0FOH 0FOH 0FOH 0FOH 0FOH 0FOH 0FOH 0FOH 0FOH 0FOH 0FOH 0FOH 0FOH 0FOH 0FOH 0FOH 0FOH 0FOH 0FOH 0FOH 0FOH 0FOH 0FOH 0FOH 0FOH 0FOH 0FOH 0FOH 0FOH 0FOH 0FOH 0FOH 0FOH 0FOH 0FOH 0FOH 0FOH 0FOH 0FOH 0FOH 0FOH 0FOH 0FOH 0FOH 0FOH 0FOH 0FOH 0FOH 0FOH 0FOH 0FOH 0FOH 0FOH 0FOH 0FOH 0FOH 0FOH 0FOH 0FOH 0FOH 0FOH 0FOH 0FOH 0FOH 0FOH 0FOH 0FOH 0FOH 0FOH 0FOH 0FOH 0FOH 0FOH 0FOH 0FOH 0FOH 0FOH 0FOH 0FOH 0FOH 0FOH 0FOH 0FOH 0FOH 0FOH 0FOH 0FOH 0FOH 0FOH 0FOH 0FOH 0FOH 0FOH 0FOH 0FOH 0FOH 0FOH 0FOH 0FOH 0FOH 0FOH 0FOH 0FOH 0FOH 0FOH 0FOH 0FOH 0FOH 0FOH 0FOH 0FOH 0FOH 0FOH 0FOH 0FOH 0FOH 0FOH 0FOH 0FOH 0FOH 0FOH 0FOH 0FOH 0FOH 0FOH 0FOH 0FOH 0FOH 0FOH 0FOH 0FOH 0FOH 0FOH 0FOH 0FOH 0FOH 0FOH 0FOH 0FOH 0FOH 0FOH 0FOH 0FOH 0FOH 0FOH 0FOH FOH FOH FOH FOH FO.H FO.H FO.H FO.H FO.H FO.H FO.H FO.H FO.H FO.H FO.H FO.H FO.H FO.H FO.H FO.H FO.H FO.H FO.H FO.H FO.H FO.H FO.H FO.H FO.H FO.H FO.H FO.H FO.H FO.H FO.H FO.H FO.H FO.H FO.H FO.H FO.H FO.H FO.H FO.H FO.H FO.H FO.H FO.H FO.H FO.H FO.H FO.H FO.H FO.H FO.H FO.H FO.H FO.H FO.H FO.H FO.H FO.H FO.H FO.H FO.H FO.H FO.H FO.H FO.H FO.H FO.H FO.H FO.H FO.H FO.H FO.H FO.H FO.H FO.H FO.H FO.H FO.H FO.H FO.H FO.H FO.H FO.H FO.H FO.H FO.H FO.H FO.H FO.H FO.H FO.H FO.H FO.H FO.H FO.H FO.H FO.H FO.H FO.H FO.H FO.H FO.H FO.H FO.H FO.H FO.H FO.H FO.H FO.H FO.H FO.H FO.H FO.H FO.H FO.H FO.H FO.H FO.H FO.H FO.H FO.H FO.H FO.H FO.H FO.H FO.H FO.H FO.H FO.H FO.H FO.H FO.H FO.H FO.H FO.H FO.H FO.H FO.H FO.H FO.H FO.H FO.H FO.H FO.H FO.H FO.H FO.H FO.H FO.H FO.H FO.H .H H H H H -FOH -FOH -FOH -FOH -FOH -FOH -FOH -FOH -FOH -FOH -FOH -FOH -FOH -FOH -FOH -FOH -FOH -FOH -FOH -FOH -FOH -FOH -FOH -FOH -FOH -FOH -FOH -FOH -FOH -FOH -FOH -FOH -FOH -FOH -FOH -FOH -FOH -FOH -FOH -FOH -FOH -FOH -FOH -FOH -FOH -FOH -FOH -FOH -FOH -FOH -FOH -FOH -FOH -FOH -FOH -FOH -FOH -FOH -FOH -FOH -FOH -FOH -FOH -FOH -FOH -FOH -FOH -FOH -FOH -FOH -FOH -FOH -FOH -FOH -FOH -FOH -FOH -FOH -FOH -FOH -FOH -FOH -FOH -FOH -FOH -FOH -FOH -FOH -FOH -FOH -FOH -FOH -FOH -FOH -FOH -FOH -FOH -FOH -FOH -FOH -FOH -FOH -FOH -FOH -FOH -FOH -FOH -FOH -FOH -FOH -FOH -FOH -FOH -FOH -FOH -FOH -FOH -FOH -FOH -FOH -FOH -FOH -FOH -FOH -FOH -FOH -FOH -FOH -FOH -FOH -FOH -FOH -FOH -FOH -FOH -FOH -FOH -FOH -FOH -FOH -FOH -FOH -FOH -FOH -FOH -FOH -FOH -FOH -FOH -FOH -FOH -FOH FOH FOH FOH +FOH +FOH +FOH +FOH +FOH +FOH +FOH +FOH +FOH +FOH +FOH +FOH +FOH +FOH +FOH +FOH +FOH +FOH +FOH +FOH +FOH +FOH +FOH +FOH +FOH +FOH +FOH +FOH +FOH +FOH +FOH +FOH +FOH +FOH +FOH +FOH +FOH +FOH +FOH +FOH +FOH +FOH +FOH +FOH +FOH +FOH +FOH +FOH +FOH +FOH +FOH +FOH +FOH +FOH +FOH +FOH +FOH +FOH +FOH +FOH +FOH +FOH +FOH +FOH +FOH +FOH +FOH +FOH +FOH +FOH +FOH +FOH +FOH +FOH +FOH +FOH +FOH +FOH +FOH +FOH +FOH +FOH +FOH +FOH +FOH +FOH +FOH +FOH +FOH +FOH +FOH +FOH +FOH +FOH +FOH +FOH +FOH +FOH +FOH +FOH +FOH +FOH +FOH +FOH +FOH +FOH +FOH +FOH +FOH +FOH +FOH +FOH +FOH +FOH +FOH +FOH +FOH +FOH +FOH +FOH +FOH +FOH +FOH +FOH +FOH +FOH +FOH +FOH +FOH +FOH +FOH +FOH +FOH +FOH +FOH +FOH +FOH +FOH +FOH +FOH +FOH +FOH +FOH +FOH +FOH +FOH +FOH +FOH +FOH +FOH +FOH +FOH H H H H )OFH )OFH )OFH )OFH )OFH )OFH )OFH )OFH )OFH )OFH )OFH )OFH )OFH )OFH )OFH )OFH )OFH )OFH )OFH )OFH )OFH )OFH )OFH )OFH )OFH )OFH )OFH )OFH )OFH )OFH )OFH )OFH )OFH )OFH )OFH )OFH )OFH )OFH )OFH )OFH )OFH )OFH )OFH )OFH )OFH )OFH )OFH )OFH )OFH )OFH )OFH )OFH )OFH )OFH )OFH )OFH )OFH )OFH )OFH )OFH )OFH )OFH )OFH )OFH )OFH )OFH )OFH )OFH )OFH )OFH )OFH )OFH )OFH )OFH )OFH )OFH )OFH )OFH )OFH )OFH )OFH )OFH )OFH )OFH )OFH )OFH )OFH )OFH )OFH )OFH )OFH )OFH )OFH )OFH )OFH )OFH )OFH )OFH )OFH )OFH )OFH )OFH )OFH )OFH )OFH )OFH )OFH )OFH )OFH )OFH )OFH )OFH )OFH )OFH )OFH )OFH )OFH )OFH )OFH )OFH )OFH )OFH )OFH )OFH )OFH )OFH )OFH )OFH )OFH )OFH )OFH )OFH )OFH )OFH )OFH )OFH )OFH )OFH )OFH )OFH )OFH )OFH )OFH )OFH )OFH )OFH )OFH )OFH )OFH )OFH )OFH )OFH )OFH )OFH )OFH )OFH )OFH )OFH )OFH )OFH )OFH )OFH )OFH )OFH )OFH )OFH )OFH )OFH )OFH )OFH )OFH )OFH )OFH )OFH )OFH )OFH )OFH )OFH )OFH )OFH )OFH )OFH )OFH )OFH )OFH )OFH )OFH )OFH )OFH )OFH )OFH )OFH )OFH )OFH )OFH )OFH )OFH )OFH )OFH )OFH )OFH )OFH )OFH )OFH )OFH )OFH )OFH )OFH )OFH )OFH )OFH )OFH )OFH )OFH )OFH )OFH )OFH )OFH )OFH )OFH )OFH )OFH )OFH )OFH )OFH )OFH )OFH )OFH )OFH )OFH )OFH )OFH )OFH )OFH )OFH )OFH )OFH )OFH )OFH )OFH )OFH )OFH )OFH )OFH )OFH )OFH )OFH )OFH )OFH )OFH )OFH )OFH )OFH )OFH )OFH )OFH )OFH )OFH )OFH )OFH )OFH )OFH )OFH )OFH )OFH )OFH )OFH )OFH )OFH )OFH )OFH )OFH )OFH )OFH )OFH )OFH )OFH )OFH )OFH )OFH )OFH )OFH )OFH )OFH )OFH )OFH )OFH )OFH )OFH )OFH )OFH )OFH )OFH )OFH )OFH )OFH )OFH )OFH )OFH )OFH )OFH )OFH )OFH )OFH )OFH )OFH )OFH H H H H ?HME ?HME ?HME ?HME ?HME ?HME ?HME ?HME ?HME ?HME ?HME ?HME ?HME ?HME ?HME ?HME ?HME ?HME ?HME ?HME ?HME ?HME ?HME ?HME ?HME ?HME ?HME ?HME ?HME ?HME ?HME ?HME ?HME ?HME ?HME ?HME ?HME ?HME ?HME ?HME ?HME ?HME ?HME ?HME ?HME ?HME ?HME ?HME ?HME ?HME ?HME ?HME ?HME ?HME ?HME ?HME ?HME ?HME ?HME ?HME ?HME ?HME ?HME ?HME ?HME ?HME ?HME ?HME ?HME ?HME ?HME ?HME ?HME ?HME ?HME ?HME ?HME ?HME ?HME ?HME ?HME ?HME ?HME ?HME ?HME ?HME ?HME ?HME ?HME ?HME ?HME ?HME ?HME ?HME ?HME ?HME ?HME ?HME ?HME ?HME ?HME ?HME ?HME ?HME ?HME ?HME ?HME ?HME ?HME ?HME ?HME ?HME ?HME ?HME ?HME ?HME ?HME ?HME ?HME ?HME ?HME ?HME ?HME ?HME ?HME ?HME ?HME ?HME ?HME ?HME ?HME ?HME ?HME ?HME ?HME ?HME ?HME ?HME ?HME ?HME ?HME ?HME ?HME ?HME ?HME ?HME ?HME ?HME ?HME ?HME ?HME ?HME HME HME HME HME> HME> HME> HME> HME> HME> HME> HME> HME> HME> HME> HME> HME> HME> HME> HME> HME> HME> HME> HME> HME> HME> HME> HME> HME> HME> HME> HME> HME> HME> HME> HME> HME> HME> HME> HME> HME> HME> HME> HME> HME> HME> HME> HME> HME> HME> HME> HME> HME> HME> HME> HME> HME> HME> HME> HME> HME> HME> HME> HME> HME> HME> HME> HME> HME> HME> HME> HME> HME> HME> HME> HME> HME> HME> HME> HME> HME> HME> HME> HME> HME> HME> HME> HME> HME> HME> HME> HME> HME> HME> HME> HME> HME> HME> HME> HME> HME> HME> HME> HME> ME> ME> ME> ME> ME> ME> ME> ME> ME> ME> ME> ME> ME> ME> ME> ME> ME> ME> ME> ME> ME> ME> ME> ME> ME> ME> ME> ME> ME> ME> ME> ME> ME> ME> ME> > > > > > > > > > > > > > > > > >     <HEM <HEM <HEM <HEM <HEM <HEM <HEM <HEM <HEM <HEM <HEM <HEM <HEM <HEM <HEM <HEM <HEM <HEM <HEM <HEM <HEM <HEM <HEM <HEM <HEM <HEM <HEM <HEM <HEM <HEM <HEM <HEM <HEM <HEM <HEM <HEM <HEM <HEM <HEM <HEM <HEM <HEM <HEM <HEM <HEM <HEM <HEM <HEM <HEM <HEM <HEM <HEM <HEM <HEM <HEM <HEM <HEM <HEM <HEM <HEM <HEM <HEM <HEM <HEM <HEM <HEM <HEM <HEM <HEM <HEM <HEM <HEM <HEM <HEM <HEM <HEM <HEM <HEM <HEM <HEM <HEM <HEM <HEM <HEM <HEM <HEM <HEM <HEM <HEM <HEM <HEM <HEM <HEM <HEM <HEM <HEM <HEM <HEM <HEM <HEM <HEM <HEM <HEM <HEM <HEM <HEM <HEM <HEM <HEM <HEM <HEM <HEM <HEM <HEM <HEM <HEM <HEM <HEM <HEM <HEM <HEM <HEM <HEM <HEM <HEM <HEM <HEM <HEM <HEM <HEM <HEM <HEM <HEM <HEM <HEM <HEM <HEM <HEM <HEM <HEM <HEM <HEM <HEM <HEM <HEM <HEM <HEM <HEM <HEM <HEM <HEM <HEM HEM HEM HEM :HEM :HEM :HEM :HEM :HEM :HEM :HEM :HEM :HEM :HEM :HEM :HEM :HEM :HEM :HEM :HEM :HEM :HEM :HEM :HEM :HEM :HEM :HEM :HEM :HEM :HEM :HEM :HEM :HEM :HEM :HEM :HEM :HEM :HEM :HEM :HEM :HEM :HEM :HEM :HEM :HEM :HEM :HEM :HEM :HEM :HEM :HEM :HEM :HEM :HEM :HEM :HEM :HEM :HEM :HEM :HEM :HEM :HEM :HEM :HEM :HEM :HEM :HEM :HEM :HEM :HEM :HEM :HEM :HEM :HEM :HEM :HEM :HEM :HEM :HEM :HEM :HEM :HEM :HEM :HEM :HEM :HEM :HEM :HEM :HEM :HEM :HEM :HEM :HEM :HEM :HEM :HEM :HEM :HEM :HEM :HEM :HEM :HEM :HEM :HEM :HEM :HEM :HEM :HEM :HEM :HEM :HEM :HEM :HEM :HEM :HEM :HEM :HEM :HEM :HEM :HEM :HEM :HEM :HEM :HEM :HEM :HEM :HEM :HEM :HEM :HEM :HEM :HEM :HEM :HEM :HEM :HEM :HEM :HEM :HEM :HEM :HEM :HEM :HEM :HEM :HEM :HEM :HEM :HEM :HEM :HEM :HEM :HEM :HEM :HEM :HEM :HEM     9HKM 9HKM 9HKM 9HKM 9HKM 9HKM 9HKM 9HKM 9HKM 9HKM 9HKM 9HKM 9HKM 9HKM 9HKM 9HKM 9HKM 9HKM 9HKM 9HKM 9HKM 9HKM 9HKM 9HKM 9HKM 9HKM 9HKM 9HKM 9HKM 9HKM 9HKM 9HKM 9HKM 9HKM 9HKM 9HKM 9HKM 9HKM 9HKM 9HKM 9HKM 9HKM 9HKM 9HKM 9HKM 9HKM 9HKM 9HKM 9HKM 9HKM 9HKM 9HKM 9HKM 9HKM 9HKM 9HKM 9HKM 9HKM 9HKM 9HKM 9HKM 9HKM 9HKM 9HKM 9HKM 9HKM 9HKM 9HKM 9HKM 9HKM 9HKM 9HKM 9HKM 9HKM 9HKM 9HKM 9HKM 9HKM 9HKM 9HKM 9HKM 9HKM 9HKM 9HKM 9HKM 9HKM 9HKM 9HKM 9HKM 9HKM 9HKM 9HKM 9HKM 9HKM 9HKM 9HKM 9HKM 9HKM 9HKM 9HKM 9HKM 9HKM 9HKM 9HKM 9HKM 9HKM 9HKM 9HKM 9HKM 9HKM 9HKM 9HKM 9HKM 9HKM 9HKM 9HKM 9HKM 9HKM 9HKM 9HKM 9HKM 9HKM 9HKM 9HKM 9HKM 9HKM 9HKM 9HKM 9HKM 9HKM 9HKM 9HKM 9HKM 9HKM 9HKM 9HKM 9HKM 9HKM 9HKM 9HKM 9HKM 9HKM 9HKM 9HKM 9HKM 9HKM 9HKM 9HKM 9HKM 9HKM 9HKM 9HKM HKM HKM HKM 7HKM 7HKM 7HKM 7HKM 7HKM 7HKM 7HKM 7HKM 7HKM 7HKM 7HKM 7HKM 7HKM 7HKM 7HKM 7HKM 7HKM 7HKM 7HKM 7HKM 7HKM 7HKM 7HKM 7HKM 7HKM 7HKM 7HKM 7HKM 7HKM 7HKM 7HKM 7HKM 7HKM 7HKM 7HKM 7HKM 7HKM 7HKM 7HKM 7HKM 7HKM 7HKM 7HKM 7HKM 7HKM 7HKM 7HKM 7HKM 7HKM 7HKM 7HKM 7HKM 7HKM 7HKM 7HKM 7HKM 7HKM 7HKM 7HKM 7HKM 7HKM 7HKM 7HKM 7HKM 7HKM 7HKM 7HKM 7HKM 7HKM 7HKM 7HKM 7HKM 7HKM 7HKM 7HKM 7HKM 7HKM 7HKM 7HKM 7HKM 7HKM 7HKM 7HKM 7HKM 7HKM 7HKM 7HKM 7HKM 7HKM 7HKM 7HKM 7HKM 7HKM 7HKM 7HKM 7HKM 7HKM 7HKM 7HKM 7HKM 7HKM 7HKM 7HKM 7HKM 7HKM 7HKM 7HKM 7HKM 7HKM 7HKM 7HKM 7HKM 7HKM 7HKM 7HKM 7HKM 7HKM 7HKM 7HKM 7HKM 7HKM 7HKM 7HKM 7HKM 7HKM 7HKM 7HKM 7HKM 7HKM 7HKM 7HKM 7HKM 7HKM 7HKM 7HKM 7HKM 7HKM 7HKM 7HKM 7HKM 7HKM 7HKM 7HKM 7HKM 7HKM 7HKM 7HKM 7HKM 7HKM 7HKM 7HKM 7HKM M M M M 5HKM 5HKM 5HKM 5HKM 5HKM 5HKM 5HKM 5HKM 5HKM 5HKM 5HKM 5HKM 5HKM 5HKM 5HKM 5HKM 5HKM 5HKM 5HKM 5HKM 5HKM 5HKM 5HKM 5HKM 5HKM 5HKM 5HKM 5HKM 5HKM 5HKM 5HKM 5HKM 5HKM 5HKM 5HKM 5HKM 5HKM 5HKM 5HKM 5HKM 5HKM 5HKM 5HKM 5HKM 5HKM 5HKM 5HKM 5HKM 5HKM 5HKM 5HKM 5HKM 5HKM 5HKM 5HKM 5HKM 5HKM 5HKM 5HKM 5HKM 5HKM 5HKM 5HKM 5HKM 5HKM 5HKM 5HKM 5HKM 5HKM 5HKM 5HKM 5HKM 5HKM 5HKM 5HKM 5HKM 5HKM 5HKM 5HKM 5HKM 5HKM 5HKM 5HKM 5HKM 5HKM 5HKM 5HKM 5HKM 5HKM 5HKM 5HKM 5HKM 5HKM 5HKM 5HKM 5HKM 5HKM 5HKM 5HKM 5HKM 5HKM 5HKM 5HKM 5HKM 5HKM 5HKM 5HKM 5HKM 5HKM 5HKM 5HKM 5HKM 5HKM 5HKM 5HKM 5HKM 5HKM 5HKM 5HKM 5HKM 5HKM 5HKM 5HKM 5HKM 5HKM 5HKM 5HKM 5HKM 5HKM 5HKM 5HKM 5HKM 5HKM 5HKM 5HKM 5HKM 5HKM 5HKM 5HKM 5HKM 5HKM 5HKM 5HKM 5HKM 5HKM 5HKM 5HKM 5HKM 5HKM 5HKM 5HKM 5HKM HKM HKM HKM 3HKM 3HKM 3HKM 3HKM 3HKM 3HKM 3HKM 3HKM 3HKM 3HKM 3HKM 3HKM 3HKM 3HKM 3HKM 3HKM 3HKM 3HKM 3HKM 3HKM 3HKM 3HKM 3HKM 3HKM 3HKM 3HKM 3HKM 3HKM 3HKM 3HKM 3HKM 3HKM 3HKM 3HKM 3HKM 3HKM 3HKM 3HKM 3HKM 3HKM 3HKM 3HKM 3HKM 3HKM 3HKM 3HKM 3HKM 3HKM 3HKM 3HKM 3HKM 3HKM 3HKM 3HKM 3HKM 3HKM 3HKM 3HKM 3HKM 3HKM 3HKM 3HKM 3HKM 3HKM 3HKM 3HKM 3HKM 3HKM 3HKM 3HKM 3HKM 3HKM 3HKM 3HKM 3HKM 3HKM 3HKM 3HKM 3HKM 3HKM 3HKM 3HKM 3HKM 3HKM 3HKM 3HKM 3HKM 3HKM 3HKM 3HKM 3HKM 3HKM 3HKM 3HKM 3HKM 3HKM 3HKM 3HKM 3HKM 3HKM 3HKM 3HKM 3HKM 3HKM 3HKM 3HKM 3HKM 3HKM 3HKM 3HKM 3HKM 3HKM 3HKM 3HKM 3HKM 3HKM 3HKM 3HKM 3HKM 3HKM 3HKM 3HKM 3HKM 3HKM 3HKM 3HKM 3HKM 3HKM 3HKM 3HKM 3HKM 3HKM 3HKM 3HKM 3HKM 3HKM 3HKM 3HKM 3HKM 3HKM 3HKM 3HKM 3HKM 3HKM 3HKM 3HKM 3HKM 3HKM 3HKM 3HKM 3HKM 3HKM M M M M 2HKM 2HKM 2HKM 2HKM 2HKM 2HKM 2HKM 2HKM 2HKM 2HKM 2HKM 2HKM 2HKM 2HKM 2HKM 2HKM 2HKM 2HKM 2HKM 2HKM 2HKM 2HKM 2HKM 2HKM 2HKM 2HKM 2HKM 2HKM 2HKM 2HKM 2HKM 2HKM 2HKM 2HKM 2HKM 2HKM 2HKM 2HKM 2HKM 2HKM 2HKM 2HKM 2HKM 2HKM 2HKM 2HKM 2HKM 2HKM 2HKM 2HKM 2HKM 2HKM 2HKM 2HKM 2HKM 2HKM 2HKM 2HKM 2HKM 2HKM 2HKM 2HKM 2HKM 2HKM 2HKM 2HKM 2HKM 2HKM 2HKM 2HKM 2HKM 2HKM 2HKM 2HKM 2HKM 2HKM 2HKM 2HKM 2HKM 2HKM 2HKM 2HKM 2HKM 2HKM 2HKM 2HKM 2HKM 2HKM 2HKM 2HKM 2HKM 2HKM 2HKM 2HKM 2HKM 2HKM 2HKM 2HKM 2HKM 2HKM 2HKM 2HKM 2HKM 2HKM 2HKM 2HKM 2HKM 2HKM 2HKM 2HKM 2HKM 2HKM 2HKM 2HKM 2HKM 2HKM 2HKM 2HKM 2HKM 2HKM 2HKM 2HKM 2HKM 2HKM 2HKM 2HKM 2HKM 2HKM 2HKM 2HKM 2HKM 2HKM 2HKM 2HKM 2HKM 2HKM 2HKM 2HKM 2HKM 2HKM 2HKM 2HKM 2HKM 2HKM 2HKM 2HKM 2HKM 2HKM 2HKM 2HKM 2HKM 2HKM HKM HKM HKM 0HKM 0HKM 0HKM 0HKM 0HKM 0HKM 0HKM 0HKM 0HKM 0HKM 0HKM 0HKM 0HKM 0HKM 0HKM 0HKM 0HKM 0HKM 0HKM 0HKM 0HKM 0HKM 0HKM 0HKM 0HKM 0HKM 0HKM 0HKM 0HKM 0HKM 0HKM 0HKM 0HKM 0HKM 0HKM 0HKM 0HKM 0HKM 0HKM 0HKM 0HKM 0HKM 0HKM 0HKM 0HKM 0HKM 0HKM 0HKM 0HKM 0HKM 0HKM 0HKM 0HKM 0HKM 0HKM 0HKM 0HKM 0HKM 0HKM 0HKM 0HKM 0HKM 0HKM 0HKM 0HKM 0HKM 0HKM 0HKM 0HKM 0HKM 0HKM 0HKM 0HKM 0HKM 0HKM 0HKM 0HKM 0HKM 0HKM 0HKM 0HKM 0HKM 0HKM 0HKM 0HKM 0HKM 0HKM 0HKM 0HKM 0HKM 0HKM 0HKM 0HKM 0HKM 0HKM 0HKM 0HKM 0HKM 0HKM 0HKM 0HKM 0HKM 0HKM 0HKM 0HKM 0HKM 0HKM 0HKM 0HKM 0HKM 0HKM 0HKM 0HKM 0HKM 0HKM 0HKM 0HKM 0HKM 0HKM 0HKM 0HKM 0HKM 0HKM 0HKM 0HKM 0HKM 0HKM 0HKM 0HKM 0HKM 0HKM 0HKM 0HKM 0HKM 0HKM 0HKM 0HKM 0HKM 0HKM 0HKM 0HKM 0HKM 0HKM 0HKM 0HKM 0HKM 0HKM 0HKM 0HKM 0HKM 0HKM 0HKM M M M M .HKM .HKM .HKM .HKM .HKM .HKM .HKM .HKM .HKM .HKM .HKM .HKM .HKM .HKM .HKM .HKM .HKM .HKM .HKM .HKM .HKM .HKM .HKM .HKM .HKM .HKM .HKM .HKM .HKM .HKM .HKM .HKM .HKM .HKM .HKM .HKM .HKM .HKM .HKM .HKM .HKM .HKM .HKM .HKM .HKM .HKM .HKM .HKM .HKM .HKM .HKM .HKM .HKM .HKM .HKM .HKM .HKM .HKM .HKM .HKM .HKM .HKM .HKM .HKM .HKM .HKM .HKM .HKM .HKM .HKM .HKM .HKM .HKM .HKM .HKM .HKM .HKM .HKM .HKM .HKM .HKM .HKM .HKM .HKM .HKM .HKM .HKM .HKM .HKM .HKM .HKM .HKM .HKM .HKM .HKM .HKM .HKM .HKM .HKM .HKM .HKM .HKM .HKM .HKM .HKM .HKM .HKM .HKM .HKM .HKM .HKM .HKM .HKM .HKM .HKM .HKM .HKM .HKM .HKM .HKM .HKM .HKM .HKM .HKM .HKM .HKM .HKM .HKM .HKM .HKM .HKM .HKM .HKM .HKM .HKM .HKM .HKM .HKM .HKM .HKM .HKM .HKM .HKM .HKM .HKM .HKM .HKM .HKM .HKM .HKM .HKM .HKM HKM HKM HKM -HKM -HKM -HKM -HKM -HKM -HKM -HKM -HKM -HKM -HKM -HKM -HKM -HKM -HKM -HKM -HKM -HKM -HKM -HKM -HKM -HKM -HKM -HKM -HKM -HKM -HKM -HKM -HKM -HKM -HKM -HKM -HKM -HKM -HKM -HKM -HKM -HKM -HKM -HKM -HKM -HKM -HKM -HKM -HKM -HKM -HKM -HKM -HKM -HKM -HKM -HKM -HKM -HKM -HKM -HKM -HKM -HKM -HKM -HKM -HKM -HKM -HKM -HKM -HKM -HKM -HKM -HKM -HKM -HKM -HKM -HKM -HKM -HKM -HKM -HKM -HKM -HKM -HKM -HKM -HKM -HKM -HKM -HKM -HKM -HKM -HKM -HKM -HKM -HKM -HKM -HKM -HKM -HKM -HKM -HKM -HKM -HKM -HKM -HKM -HKM -HKM -HKM -HKM -HKM -HKM -HKM -HKM -HKM -HKM -HKM -HKM -HKM -HKM -HKM -HKM -HKM -HKM -HKM -HKM -HKM -HKM -HKM -HKM -HKM -HKM -HKM -HKM -HKM -HKM -HKM -HKM -HKM -HKM -HKM -HKM -HKM -HKM -HKM -HKM -HKM -HKM -HKM -HKM -HKM -HKM -HKM -HKM -HKM -HKM -HKM -HKM -HKM M M M M .FJM .FJM .FJM .FJM .FJM .FJM .FJM .FJM .FJM .FJM .FJM .FJM .FJM .FJM .FJM .FJM .FJM .FJM .FJM .FJM .FJM .FJM .FJM .FJM .FJM .FJM .FJM .FJM .FJM .FJM .FJM .FJM .FJM .FJM .FJM .FJM .FJM .FJM .FJM .FJM .FJM .FJM .FJM .FJM .FJM .FJM .FJM .FJM .FJM .FJM .FJM .FJM .FJM .FJM .FJM .FJM .FJM .FJM .FJM .FJM .FJM .FJM .FJM .FJM .FJM .FJM .FJM .FJM .FJM .FJM .FJM .FJM .FJM .FJM .FJM .FJM .FJM .FJM .FJM .FJM .FJM .FJM .FJM .FJM .FJM .FJM .FJM .FJM .FJM .FJM .FJM .FJM .FJM .FJM .FJM .FJM .FJM .FJM .FJM .FJM .FJM .FJM .FJM .FJM .FJM .FJM .FJM .FJM .FJM .FJM .FJM .FJM .FJM .FJM .FJM .FJM .FJM .FJM .FJM .FJM .FJM .FJM .FJM .FJM .FJM .FJM .FJM .FJM .FJM .FJM .FJM .FJM .FJM .FJM .FJM .FJM .FJM .FJM .FJM .FJM .FJM .FJM .FJM .FJM .FJM .FJM .FJM .FJM .FJM .FJM .FJM .FJM FJM FJM FJM 0FJM 0FJM 0FJM 0FJM 0FJM 0FJM 0FJM 0FJM 0FJM 0FJM 0FJM 0FJM 0FJM 0FJM 0FJM 0FJM 0FJM 0FJM 0FJM 0FJM 0FJM 0FJM 0FJM 0FJM 0FJM 0FJM 0FJM 0FJM 0FJM 0FJM 0FJM 0FJM 0FJM 0FJM 0FJM 0FJM 0FJM 0FJM 0FJM 0FJM 0FJM 0FJM 0FJM 0FJM 0FJM 0FJM 0FJM 0FJM 0FJM 0FJM 0FJM 0FJM 0FJM 0FJM 0FJM 0FJM 0FJM 0FJM 0FJM 0FJM 0FJM 0FJM 0FJM 0FJM 0FJM 0FJM 0FJM 0FJM 0FJM 0FJM 0FJM 0FJM 0FJM 0FJM 0FJM 0FJM 0FJM 0FJM 0FJM 0FJM 0FJM 0FJM 0FJM 0FJM 0FJM 0FJM 0FJM 0FJM 0FJM 0FJM 0FJM 0FJM 0FJM 0FJM 0FJM 0FJM 0FJM 0FJM 0FJM 0FJM 0FJM 0FJM 0FJM 0FJM 0FJM 0FJM 0FJM 0FJM 0FJM 0FJM 0FJM 0FJM 0FJM 0FJM 0FJM 0FJM 0FJM 0FJM 0FJM 0FJM 0FJM 0FJM 0FJM 0FJM 0FJM 0FJM 0FJM 0FJM 0FJM 0FJM 0FJM 0FJM 0FJM 0FJM 0FJM 0FJM 0FJM 0FJM 0FJM 0FJM 0FJM 0FJM 0FJM 0FJM 0FJM 0FJM 0FJM 0FJM 0FJM 0FJM 0FJM 0FJM M M M M 2DFM 2DFM 2DFM 2DFM 2DFM 2DFM 2DFM 2DFM 2DFM 2DFM 2DFM 2DFM 2DFM 2DFM 2DFM 2DFM 2DFM 2DFM 2DFM 2DFM 2DFM 2DFM 2DFM 2DFM 2DFM 2DFM 2DFM 2DFM 2DFM 2DFM 2DFM 2DFM 2DFM 2DFM 2DFM 2DFM 2DFM 2DFM 2DFM 2DFM 2DFM 2DFM 2DFM 2DFM 2DFM 2DFM 2DFM 2DFM 2DFM 2DFM 2DFM 2DFM 2DFM 2DFM 2DFM 2DFM 2DFM 2DFM 2DFM 2DFM 2DFM 2DFM 2DFM 2DFM 2DFM 2DFM 2DFM 2DFM 2DFM 2DFM 2DFM 2DFM 2DFM 2DFM 2DFM 2DFM 2DFM 2DFM 2DFM 2DFM 2DFM 2DFM 2DFM 2DFM 2DFM 2DFM 2DFM 2DFM 2DFM 2DFM 2DFM 2DFM 2DFM 2DFM 2DFM 2DFM 2DFM 2DFM 2DFM 2DFM 2DFM 2DFM 2DFM 2DFM 2DFM 2DFM 2DFM 2DFM 2DFM 2DFM 2DFM 2DFM 2DFM 2DFM 2DFM 2DFM 2DFM 2DFM 2DFM 2DFM 2DFM 2DFM 2DFM 2DFM 2DFM 2DFM 2DFM 2DFM 2DFM 2DFM 2DFM 2DFM 2DFM 2DFM 2DFM 2DFM 2DFM 2DFM 2DFM 2DFM 2DFM 2DFM 2DFM 2DFM 2DFM 2DFM 2DFM 2DFM 2DFM 2DFM 2DFM 2DFM DFM DFM DFM .DFM .DFM .DFM .DFM .DFM .DFM .DFM .DFM .DFM .DFM .DFM .DFM .DFM .DFM .DFM .DFM .DFM .DFM .DFM .DFM .DFM .DFM .DFM .DFM .DFM .DFM .DFM .DFM .DFM .DFM .DFM .DFM .DFM .DFM .DFM .DFM .DFM .DFM .DFM .DFM .DFM .DFM .DFM .DFM .DFM .DFM .DFM .DFM .DFM .DFM .DFM .DFM .DFM .DFM .DFM .DFM .DFM .DFM .DFM .DFM .DFM .DFM .DFM .DFM .DFM .DFM .DFM .DFM .DFM .DFM .DFM .DFM .DFM .DFM .DFM .DFM .DFM .DFM .DFM .DFM .DFM .DFM .DFM .DFM .DFM .DFM .DFM .DFM .DFM .DFM .DFM .DFM .DFM .DFM .DFM .DFM .DFM .DFM .DFM .DFM .DFM .DFM .DFM .DFM .DFM .DFM .DFM .DFM .DFM .DFM .DFM .DFM .DFM .DFM .DFM .DFM .DFM .DFM .DFM .DFM .DFM .DFM .DFM .DFM .DFM .DFM .DFM .DFM .DFM .DFM .DFM .DFM .DFM .DFM .DFM .DFM .DFM .DFM .DFM .DFM .DFM .DFM .DFM .DFM .DFM .DFM .DFM .DFM .DFM .DFM .DFM .DFM M    3CKF 3CKF 3CKF 3CKF 3CKF 3CKF 3CKF 3CKF 3CKF 3CKF 3CKF 3CKF 3CKF 3CKF 3CKF 3CKF 3CKF 3CKF 3CKF 3CKF 3CKF 3CKF 3CKF 3CKF 3CKF 3CKF 3CKF 3CKF 3CKF 3CKF 3CKF 3CKF 3CKF 3CKF 3CKF 3CKF 3CKF 3CKF 3CKF 3CKF 3CKF 3CKF 3CKF 3CKF 3CKF 3CKF 3CKF 3CKF 3CKF 3CKF 3CKF 3CKF 3CKF 3CKF 3CKF 3CKF 3CKF 3CKF 3CKF 3CKF 3CKF 3CKF 3CKF 3CKF 3CKF 3CKF 3CKF 3CKF 3CKF 3CKF 3CKF 3CKF 3CKF 3CKF 3CKF 3CKF 3CKF 3CKF 3CKF 3CKF 3CKF 3CKF 3CKF 3CKF 3CKF 3CKF 3CKF 3CKF 3CKF 3CKF 3CKF 3CKF 3CKF 3CKF 3CKF 3CKF 3CKF 3CKF 3CKF 3CKF 3CKF 3CKF 3CKF 3CKF 3CKF 3CKF 3CKF 3CKF 3CKF 3CKF 3CKF 3CKF 3CKF 3CKF 3CKF 3CKF 3CKF 3CKF 3CKF 3CKF 3CKF 3CKF 3CKF 3CKF 3CKF 3CKF 3CKF 3CKF 3CKF 3CKF 3CKF 3CKF 3CKF 3CKF 3CKF 3CKF 3CKF 3CKF 3CKF 3CKF 3CKF 3CKF 3CKF 3CKF 3CKF 3CKF 3CKF 3CKF 3CKF 3CKF 3CKF 3CKF CKF CKF CKF 2CKF 2CKF 2CKF 2CKF 2CKF 2CKF 2CKF 2CKF 2CKF 2CKF 2CKF 2CKF 2CKF 2CKF 2CKF 2CKF 2CKF 2CKF 2CKF 2CKF 2CKF 2CKF 2CKF 2CKF 2CKF 2CKF 2CKF 2CKF 2CKF 2CKF 2CKF 2CKF 2CKF 2CKF 2CKF 2CKF 2CKF 2CKF 2CKF 2CKF 2CKF 2CKF 2CKF 2CKF 2CKF 2CKF 2CKF 2CKF 2CKF 2CKF 2CKF 2CKF 2CKF 2CKF 2CKF 2CKF 2CKF 2CKF 2CKF 2CKF 2CKF 2CKF 2CKF 2CKF 2CKF 2CKF 2CKF 2CKF 2CKF 2CKF 2CKF 2CKF 2CKF 2CKF 2CKF 2CKF 2CKF 2CKF 2CKF 2CKF 2CKF 2CKF 2CKF 2CKF 2CKF 2CKF 2CKF 2CKF 2CKF 2CKF 2CKF 2CKF 2CKF 2CKF 2CKF 2CKF 2CKF 2CKF 2CKF 2CKF 2CKF 2CKF 2CKF 2CKF 2CKF 2CKF 2CKF 2CKF 2CKF 2CKF 2CKF 2CKF 2CKF 2CKF 2CKF 2CKF 2CKF 2CKF 2CKF 2CKF 2CKF 2CKF 2CKF 2CKF 2CKF 2CKF 2CKF 2CKF 2CKF 2CKF 2CKF 2CKF 2CKF 2CKF 2CKF 2CKF 2CKF 2CKF 2CKF 2CKF 2CKF 2CKF 2CKF 2CKF 2CKF 2CKF 2CKF 2CKF 2CKF 2CKF 2CKF 2CKF F F F F 3AJF 3AJF 3AJF 3AJF 3AJF 3AJF 3AJF 3AJF 3AJF 3AJF 3AJF 3AJF 3AJF 3AJF 3AJF 3AJF 3AJF 3AJF 3AJF 3AJF 3AJF 3AJF 3AJF 3AJF 3AJF 3AJF 3AJF 3AJF 3AJF 3AJF 3AJF 3AJF 3AJF 3AJF 3AJF 3AJF 3AJF 3AJF 3AJF 3AJF 3AJF 3AJF 3AJF 3AJF 3AJF 3AJF 3AJF 3AJF 3AJF 3AJF 3AJF 3AJF 3AJF 3AJF 3AJF 3AJF 3AJF 3AJF 3AJF 3AJF 3AJF 3AJF 3AJF 3AJF 3AJF 3AJF 3AJF 3AJF 3AJF 3AJF 3AJF 3AJF 3AJF 3AJF 3AJF 3AJF 3AJF 3AJF 3AJF 3AJF 3AJF 3AJF 3AJF 3AJF 3AJF 3AJF 3AJF 3AJF 3AJF 3AJF 3AJF 3AJF 3AJF 3AJF 3AJF 3AJF 3AJF 3AJF 3AJF 3AJF 3AJF 3AJF 3AJF 3AJF 3AJF 3AJF 3AJF 3AJF 3AJF 3AJF 3AJF 3AJF 3AJF 3AJF 3AJF 3AJF 3AJF 3AJF 3AJF 3AJF 3AJF 3AJF 3AJF 3AJF 3AJF 3AJF 3AJF 3AJF 3AJF 3AJF 3AJF 3AJF 3AJF 3AJF 3AJF 3AJF 3AJF 3AJF 3AJF 3AJF 3AJF 3AJF 3AJF 3AJF 3AJF 3AJF 3AJF 3AJF 3AJF 3AJF 3AJF 3AJF AJF AJF AJF 5AJF 5AJF 5AJF 5AJF 5AJF 5AJF 5AJF 5AJF 5AJF 5AJF 5AJF 5AJF 5AJF 5AJF 5AJF 5AJF 5AJF 5AJF 5AJF 5AJF 5AJF 5AJF 5AJF 5AJF 5AJF 5AJF 5AJF 5AJF 5AJF 5AJF 5AJF 5AJF 5AJF 5AJF 5AJF 5AJF 5AJF 5AJF 5AJF 5AJF 5AJF 5AJF 5AJF 5AJF 5AJF 5AJF 5AJF 5AJF 5AJF 5AJF 5AJF 5AJF 5AJF 5AJF 5AJF 5AJF 5AJF 5AJF 5AJF 5AJF 5AJF 5AJF 5AJF 5AJF 5AJF 5AJF 5AJF 5AJF 5AJF 5AJF 5AJF 5AJF 5AJF 5AJF 5AJF 5AJF 5AJF 5AJF 5AJF 5AJF 5AJF 5AJF 5AJF 5AJF 5AJF 5AJF 5AJF 5AJF 5AJF 5AJF 5AJF 5AJF 5AJF 5AJF 5AJF 5AJF 5AJF 5AJF 5AJF 5AJF 5AJF 5AJF 5AJF 5AJF 5AJF 5AJF 5AJF 5AJF 5AJF 5AJF 5AJF 5AJF 5AJF 5AJF 5AJF 5AJF 5AJF 5AJF 5AJF 5AJF 5AJF 5AJF 5AJF 5AJF 5AJF 5AJF 5AJF 5AJF 5AJF 5AJF 5AJF 5AJF 5AJF 5AJF 5AJF 5AJF 5AJF 5AJF 5AJF 5AJF 5AJF 5AJF 5AJF 5AJF 5AJF 5AJF 5AJF 5AJF 5AJF 5AJF 5AJF 5AJF F F F F 7H?F 7H?F 7H?F 7H?F 7H?F 7H?F 7H?F 7H?F 7H?F 7H?F 7H?F 7H?F 7H?F 7H?F 7H?F 7H?F 7H?F 7H?F 7H?F 7H?F 7H?F 7H?F 7H?F 7H?F 7H?F 7H?F 7H?F 7H?F 7H?F 7H?F 7H?F 7H?F 7H?F 7H?F 7H?F 7H?F 7H?F 7H?F 7H?F 7H?F 7H?F 7H?F 7H?F 7H?F 7H?F 7H?F 7H?F 7H?F 7H?F 7H?F 7H?F 7H?F 7H?F 7H?F 7H?F 7H?F 7H?F 7H?F 7H?F 7H?F 7H?F 7H?F 7H?F 7H?F 7H?F 7H?F 7H?F 7H?F 7H?F 7H?F 7H?F 7H?F 7H?F 7H?F 7H?F 7H?F 7H?F 7H?F 7H?F 7H?F 7H?F 7H?F 7H?F 7H?F 7H?F 7H?F 7H?F 7H?F 7H?F 7H?F 7H?F 7H?F 7H?F 7H?F 7H?F 7H?F 7H?F 7H?F 7H?F 7H?F 7H?F 7H?F 7H?F 7H?F 7H?F 7H?F 7H?F 7H?F 7H?F 7H?F 7H?F 7H?F 7H?F 7H?F 7H?F 7H?F 7H?F 7H?F 7H?F 7H?F 7H?F 7H?F 7H?F 7H?F 7H?F 7H?F 7H?F 7H?F 7H?F 7H?F 7H?F 7H?F 7H?F 7H?F 7H?F 7H?F 7H?F 7H?F 7H?F 7H?F 7H?F 7H?F 7H?F 7H?F 7H?F 7H?F 7H?F 7H?F 7H?F 7H?F 7H?F 7H?F H?F H?F H?F H?F H?3F H?3F H?3F H?3F H?3F H?3F H?3F H?3F H?3F H?3F H?3F H?3F H?3F H?3F H?3F H?3F H?3F H?3F H?3F H?3F H?3F H?3F H?3F H?3F H?3F H?3F H?3F H?3F H?3F H?3F H?3F H?3F H?3F H?3F H?3F H?3F H?3F H?3F H?3F H?3F H?3F H?3F H?3F H?3F H?3F H?3F H?3F H?3F H?3F H?3F H?3F H?3F H?3F H?3F H?3F H?3F H?3F H?3F H?3F H?3F H?3F H?3F H?3F H?3F H?3F H?3F H?3F H?3F H?3F H?3F H?3F H?3F H?3F H?3F H?3F H?3F H?3F H?3F H?3F H?3F H?3F H?3F H?3F H?3F H?3F H?3F H?3F H?3F H?3F H?3F H?3F H?3F H?3F H?3F H?3F H?3F H?3F H?3F H?3F H?3F H?3F H?3F H?3F H?3F H?3F H?3F H?3F H?3F H?3F H?3F H?3F H?3F H?3F H?3F H?3F H?3F H?3F H?3F H?3F H?3F H?3F H?3F H?3F H?3F H?3F H?3F H?3F H?3F H?3F H?3F H?3F H?3F H?3F H?3F H?3F H?3F H?3F H?3F H?3F H?3F H?3F H?3F H?3F H?3F H?3F H?3F H?3F H?3F H?3F H?3F H?3F 3F F   5H?E 5H?E 5H?E 5H?E 5H?E 5H?E 5H?E 5H?E 5H?E 5H?E 5H?E 5H?E 5H?E 5H?E 5H?E 5H?E 5H?E 5H?E 5H?E 5H?E 5H?E 5H?E 5H?E 5H?E 5H?E 5H?E 5H?E 5H?E 5H?E 5H?E 5H?E 5H?E 5H?E 5H?E 5H?E 5H?E 5H?E 5H?E 5H?E 5H?E 5H?E 5H?E 5H?E 5H?E 5H?E 5H?E 5H?E 5H?E 5H?E 5H?E 5H?E 5H?E 5H?E 5H?E 5H?E 5H?E 5H?E 5H?E 5H?E 5H?E 5H?E 5H?E 5H?E 5H?E 5H?E 5H?E 5H?E 5H?E 5H?E 5H?E 5H?E 5H?E 5H?E 5H?E 5H?E 5H?E 5H?E 5H?E 5H?E 5H?E 5H?E 5H?E 5H?E 5H?E 5H?E 5H?E 5H?E 5H?E 5H?E 5H?E 5H?E 5H?E 5H?E 5H?E 5H?E 5H?E 5H?E 5H?E 5H?E 5H?E 5H?E 5H?E 5H?E 5H?E 5H?E 5H?E 5H?E 5H?E 5H?E 5H?E 5H?E 5H?E 5H?E 5H?E 5H?E 5H?E 5H?E 5H?E 5H?E 5H?E 5H?E 5H?E 5H?E 5H?E 5H?E 5H?E 5H?E 5H?E 5H?E 5H?E 5H?E 5H?E 5H?E 5H?E 5H?E 5H?E 5H?E 5H?E 5H?E 5H?E 5H?E 5H?E 5H?E 5H?E 5H?E 5H?E 5H?E 5H?E 5H?E 5H?E 5H?E 5H?E H?E H?E H?E H?E 7H?E 7H?E 7H?E 7H?E 7H?E 7H?E 7H?E 7H?E 7H?E 7H?E 7H?E 7H?E 7H?E 7H?E 7H?E 7H?E 7H?E 7H?E 7H?E 7H?E 7H?E 7H?E 7H?E 7H?E 7H?E 7H?E 7H?E 7H?E 7H?E 7H?E 7H?E 7H?E 7H?E 7H?E 7H?E 7H?E 7H?E 7H?E 7H?E 7H?E 7H?E 7H?E 7H?E 7H?E 7H?E 7H?E 7H?E 7H?E 7H?E 7H?E 7H?E 7H?E 7H?E 7H?E 7H?E 7H?E 7H?E 7H?E 7H?E 7H?E 7H?E 7H?E 7H?E 7H?E 7H?E 7H?E 7H?E 7H?E 7H?E 7H?E 7H?E 7H?E 7H?E 7H?E 7H?E 7H?E 7H?E 7H?E 7H?E 7H?E 7H?E 7H?E 7H?E 7H?E 7H?E 7H?E 7H?E 7H?E 7H?E 7H?E 7H?E 7H?E 7H?E 7H?E 7H?E 7H?E 7H?E 7H?E 7H?E 7H?E 7H?E 7H?E 7H?E 7H?E 7H?E 7H?E 7H?E 7H?E 7H?E 7H?E 7H?E 7H?E 7H?E 7H?E 7H?E 7H?E 7H?E 7H?E 7H?E 7H?E 7H?E 7H?E 7H?E 7H?E 7H?E 7H?E 7H?E 7H?E 7H?E 7H?E 7H?E 7H?E 7H?E 7H?E 7H?E 7H?E 7H?E 7H?E 7H?E 7H?E 7H?E 7H?E 7H?E 7H?E 7H?E 7H?E 7H?E 7H?E 7H?E 7H?E 7H?E 7H?E H?E H?E H?E 9H?E 9H?E 9H?E 9H?E 9H?E 9H?E 9H?E 9H?E 9H?E 9H?E 9H?E 9H?E 9H?E 9H?E 9H?E 9H?E 9H?E 9H?E 9H?E 9H?E 9H?E 9H?E 9H?E 9H?E 9H?E 9H?E 9H?E 9H?E 9H?E 9H?E 9H?E 9H?E 9H?E 9H?E 9H?E 9H?E 9H?E 9H?E 9H?E 9H?E 9H?E 9H?E 9H?E 9H?E 9H?E 9H?E 9H?E 9H?E 9H?E 9H?E 9H?E 9H?E 9H?E 9H?E 9H?E 9H?E 9H?E 9H?E 9H?E 9H?E 9H?E 9H?E 9H?E 9H?E 9H?E 9H?E 9H?E 9H?E 9H?E 9H?E 9H?E 9H?E 9H?E 9H?E 9H?E 9H?E 9H?E 9H?E 9H?E 9H?E 9H?E 9H?E 9H?E 9H?E 9H?E 9H?E 9H?E 9H?E 9H?E 9H?E 9H?E 9H?E 9H?E 9H?E 9H?E 9H?E 9H?E 9H?E 9H?E 9H?E 9H?E 9H?E 9H?E 9H?E 9H?E 9H?E 9H?E 9H?E 9H?E 9H?E 9H?E 9H?E 9H?E 9H?E 9H?E 9H?E 9H?E 9H?E 9H?E 9H?E 9H?E 9H?E 9H?E 9H?E 9H?E 9H?E 9H?E 9H?E 9H?E 9H?E 9H?E 9H?E 9H?E 9H?E 9H?E 9H?E 9H?E 9H?E 9H?E 9H?E 9H?E 9H?E 9H?E 9H?E 9H?E 9H?E 9H?E 9H?E 9H?E 9H?E 9H?E 9H?E E E E E E5JA E5JA E5JA E5JA E5JA E5JA E5JA E5JA E5JA E5JA E5JA E5JA E5JA E5JA E5JA E5JA E5JA E5JA E5JA E5JA E5JA E5JA E5JA E5JA E5JA E5JA E5JA E5JA E5JA E5JA E5JA E5JA E5JA E5JA E5JA E5JA E5JA E5JA E5JA E5JA E5JA E5JA E5JA E5JA E5JA E5JA E5JA E5JA E5JA E5JA E5JA E5JA E5JA E5JA E5JA E5JA E5JA E5JA E5JA E5JA E5JA E5JA E5JA E5JA E5JA E5JA E5JA E5JA E5JA E5JA E5JA E5JA E5JA E5JA E5JA E5JA E5JA E5JA E5JA E5JA E5JA E5JA E5JA E5JA E5JA E5JA E5JA E5JA E5JA E5JA E5JA E5JA E5JA E5JA E5JA E5JA E5JA E5JA E5JA E5JA E5JA E5JA E5JA E5JA E5JA E5JA E5JA E5JA E5JA E5JA E5JA E5JA E5JA E5JA E5JA E5JA E5JA E5JA E5JA E5JA E5JA E5JA E5JA E5JA E5JA E5JA E5JA E5JA E5JA E5JA E5JA E5JA E5JA E5JA E5JA E5JA E5JA E5JA E5JA E5JA E5JA E5JA E5JA E5JA E5JA E5JA E5JA E5JA 5JA 5JA 5JA 5JA    :> :> :> :> :> :> :> :> :> :> :> :> :> :> :> :> :> :> :> :> :> :> :> :> :> :> :> :> :> :> :> :> :> :> :> :> :> :> :> :> :> :> :> :> :> :> :> :> :> :> :> :> :> :> :> :> :> :> :> :> :> :> :> :> :> :> :> :> :> :> :> :> :> :> :> :> :> :> :A> :A> :A> :A> :A> :A> :A> :A> :A> :A> :A> :A> :A> :A> :A> :A> :A> :A> :A> :A> :A> :A> :A> :A> :A> :A> :A> :A> :A> :A> :A> :A> :A> :A> :A> :A> :A> :A> :A> :A> :A> :A> :A> :A> :A> :A> :A> :A> :A> :A> :A> :A> :A> :A> :A> :A> :A> :A> :A> :A> :A> :A> :A> :A> :A> :A> :A> :A> :A> :A> :A> :A> :A> :A> :A> :A> :A> :A> :A>F :A>F :A>F :A>F :A>F :A>F :A>F :A>F :A>F :A>F :A>F :A>F :A>F :A>F :A>F :A>F :A>F :A>F :A>F :A>F :A>F :A>F :A>F :A>F :A>F :A>F :A>F :A>F :A>F :A>F :A>F :A>F :A>F :A>F :A>F :A>F :A>F :A>F :A>F :A>F :A>F :A>F :A>F :A>F :A>F :A>F :A>F :A>F :A>F :A>F :A>F :A>F :A>F :A>F :A>F :A>F :A>F :A>F :A>F :A>F :A>F :A>F :A>F :A>F :A>F :A>F :A>F :A>F :A>F :A>F :A>F :A>F :A>F :A>F :A>F :A>F :A>F :A>F :A>F :A>F :A>F :A>F :A>F :A>F :A>F :A>F :A>F :A>F :A>F :A>F :A>F :A>F :A>F :A>F :A>F :A>F :A>F :A>F :A>F :A>F :A>F :A>F :A>F :A>F :A>F :A>F :A>F :A>F :A>F :A>F :A>F :A>F :A>F :A>F :A>F :A>F :A>F :A>F :A>F :A>F :A>F :A>F :A>F :A>F :A>F :A>F :A>F :A>F :A>F :A>F :A>F :A>F :A>F :A>F :A>F :A>F :A>F :A>F :A>F :A>F :A>F :A>F :A>F :A>F :A>F :A>F :A>F :A>F :A>F :A>F :A>F A>F A>F >F >F >F3C >F3C >F3C >F3C >F3C >F3C >F3C >F3C >F3C >F3C >F3C >F3C >F3C >F3C >F3C >F3C >F3C >F3C >F3C >F3C >F3C >F3C >F3C >F3C >F3C >F3C >F3C >F3C >F3C >F3C >F3C >F3C >F3C >F3C >F3C >F3C >F3C >F3C >F3C >F3C >F3C >F3C >F3C >F3C >F3C >F3C >F3C >F3C >F3C >F3C >F3C >F3C >F3C >F3C >F3C >F3C >F3C >F3C >F3C >F3C >F3C >F3C >F3C >F3C >F3C >F3C >F3C >F3C >F3C >F3C >F3C >F3C >F3C >F3C >F3C >F3C >F3C >F3C >F3C >F3C >F3C >F3C >F3C >F3C >F3C >F3C >F3C >F3C >F3C >F3C >F3C >F3C >F3C >F3C >F3C >F3C >F3C >F3C >F3C >F3C >F3C >F3C >F3C >F3C >F3C >F3C >F3C >F3C >F3C >F3C >F3C >F3C >F3C >F3C >F3C >F3C >F3C >F3C >F3C >F3C >F3C >F3C >F3C >F3C >F3C >F3C >F3C >F3C >F3C >F3C >F3C >F3C >F3C >F3C >F3C >F3C >F3C >F3C >F3C >F3C >F3C >F3C F3C F3C F3C F3C F3C F3C F3C F3C F3C F3C 3C 3C 3C 3C 3CH? 3CH? 3CH? 3CH? 3CH? 3CH? 3CH? 3CH? 3CH? 3CH? 3CH? 3CH? 3CH? 3CH? 3CH? 3CH? 3CH? 3CH? 3CH? 3CH? 3CH? 3CH? 3CH? 3CH? 3CH? 3CH? 3CH? 3CH? 3CH? 3CH? 3CH? 3CH? 3CH? 3CH? 3CH? 3CH? 3CH? 3CH? 3CH? 3CH? 3CH? 3CH? 3CH? 3CH? 3CH? 3CH? 3CH? 3CH? 3CH? 3CH? 3CH? 3CH? 3CH? 3CH? 3CH? 3CH? 3CH? 3CH? 3CH? 3CH? 3CH? 3CH? 3CH? 3CH? 3CH? 3CH? 3CH? 3CH? 3CH? 3CH? 3CH? 3CH? 3CH? 3CH? 3CH? 3CH? 3CH? 3CH? 3CH? 3CH? 3CH? 3CH? 3CH? 3CH? 3CH? 3CH? 3CH? 3CH? 3CH? 3CH? 3CH? 3CH? 3CH? 3CH? 3CH? 3CH? 3CH? 3CH? 3CH? 3CH? 3CH? 3CH? 3CH? 3CH? 3CH? 3CH? 3CH? 3CH? 3CH? 3CH? 3CH? 3CH? 3CH? 3CH? 3CH? 3CH? 3CH? 3CH? 3CH? 3CH? 3CH? 3CH? 3CH? 3CH? 3CH? 3CH? 3CH? 3CH? 3CH? 3CH? 3CH? 3CH? 3CH? 3CH? 3CH? 3CH? 3CH? 3CH? 3CH? 3CH? 3CH? 3CH? 3CH? 3CH? 3CH? 3CH? 3CH? 3CH? 3CH? 3CH? 3CH? H?    F5< F5< F5< F5< F5< F5< F5< F5< F5< F5< F5< F5< F5< F5< F5< F5< F5< F5< F5< F5< F5< F5< F5< F5< F5< F5< F5< F5< F5< F5< F5< F5< F5< F5< F5< F5< F5< F5< F5< F5< F5< F5< F5< F5< F5< F5< F5< F5< F5< F5< F5< F5< F5< F5< F5< F5< F5< F5< F5< F5< F5< F5< F5< F5< F5< F5< F5< F5< F5< F5< F5< F5< F5< F5< 5< 5< 5< 5< E5< E5< E5< E5< E5< E5< E5< E5< E5< E5< E5< E5< E5< E5< E5< E5< E5< E5< E5< E5< E5< E5< E5< E5< E5< E5< E5< E5< E5< E5< E5< E5< E5< E5< E5< E5< E5< E5< E5< E5< E5< E5< E5< E5< E5< E5< E5< E5< E5< E5< E5< E5< E5< E5< E5< E5< E5< E5< E5< E5< E5< E5< E5< E5< E5< E5< E5< E5< E5< E5< E5< E5< E5< E5< 5< 5< 5< 5< F5< F5< F5< F5< F5< F5< F5< F5< F5< F5< F5< F5< F5< F5< F5< F5< F5< F5< F5< F5< F5< F5< F5< F5< F5< F5< F5< F5< F5< F5< F5< F5< F5< F5< F5< F5< F5< F5< F5< F5< F5< F5< F5< F5< F5< F5< F5< F5< F5< F5< F5< F5< F5< F5< F5< F5< F5< F5< F5< F5< F5< F5< F5< F5< F5< F5< F5< F5< F5< F5< F5< F5< F5< F5< 5< 5< 5< E5< E5< E5< E5< E5< E5< E5< E5< E5< E5< E5< E5< E5< E5< E5< E5< E5< E5< E5< E5< E5< E5< E5< E5< E5< E5< E5< E5< E5< E5< E5< E5< E5< E5< E5< E5< E5< E5< E5< E5< E5< E5< E5< E5< E5< E5< E5< E5< E5< E5< E5< E5< E5< E5< E5< E5< E5< E5< E5< E5< E5< E5< E5< E5< E5< E5< E5< E5< E5< E5< E5< E5< E5< E5< < < < < F<) F<) F<) F<) F<) F<) F<) F<) F<) F<) F<) F<) F<) F<) F<) F<) F<) F<) F<) F<) F<) F<) F<) F<) F<) F<) F<) F<) F<) F<) F<) F<) F<) F<) F<) F<) F<) F<) F<) F<) F<) F<) F<) F<) F<) F<) F<) F<) F<) F<) F<) F<) F<) F<) F<) F<) F<) F<) F<) F<) F<) F<) F<) F<) F<) F<) F<) F<) F<) F<) F<) F<) F<) F<) <) <) <) <) E<) E<) E<) E<) E<) E<) E<) E<) E<) E<) E<) E<) E<) E<) E<) E<) E<) E<) E<) E<) E<) E<) E<) E<) E<) E<) E<) E<) E<) E<) E<) E<) E<) E<) E<) E<) E<) E<) E<) E<) E<) E<) E<) E<) E<) E<) E<) E<) E<) E<) E<) E<) E<) E<) E<) E<) E<) E<) E<) E<) E<) E<) E<) E<) E<) E<) E<) E<) E<) E<) E<) E<) E<) E<) <) <) <) <) <)F <)F <)F <)F <)F <)F <)F <)F <)F <)F <)F <)F <)F <)F <)F <)F <)F <)F <)F <)F <)F <)F <)F <)F <)F <)F <)F <)F <)F <)F <)F <)F <)F <)F <)F <)F <)F <)F <)F <)F <)F <)F <)F <)F <)F <)F <)F <)F <)F <)F <)F <)F <)F <)F <)F <)F <)F <)F <)F <)F <)F <)F <)F <)F <)F <)F <)F <)F <)F <)F <)F <)F <)F <)F <)F <)F <)F <)F <)F <)F <)F <)F <)F <)F <)F <)F <)F <)F <)F <)F <)F <)F <)F <)F <)F <)F <)F <)F <)F <)F <)F <)F <)F <)F <)F <)F <)F <)F <)F <)F <)F <)F <)F <)F <)F <)F <)F <)F <)F <)F <)F <)F <)F <)F <)F <)F <)F <)F <)F <)F <)F <)F <)F <)F <)F <)F <)F <)F <)F <)F <)F <)F <)F <)F <)F <)F <)F <)F )F )F )F F    F.A> F.A> F.A> F.A> F.A> F.A> F.A> F.A> F.A> F.A> F.A> F.A> F.A> F.A> F.A> F.A> F.A> F.A> F.A> F.A> F.A> F.A> F.A> F.A> F.A> F.A> F.A> F.A> F.A> F.A> F.A> F.A> F.A> F.A> F.A> F.A> F.A> F.A> F.A> F.A> F.A> F.A> F.A> F.A> F.A> F.A> F.A> F.A> F.A> F.A> F.A> F.A> F.A> F.A> F.A> F.A> F.A> F.A> F.A> F.A> F.A> F.A> F.A> F.A> F.A> F.A> F.A> F.A> F.A> F.A> F.A> F.A> F.A> F.A> F.A> F.A> F.A> F.A> F.A> F.A> F.A> F.A> F.A> F.A> F.A> F.A> F.A> F.A> F.A> F.A> F.A> F.A> F.A> F.A> F.A> F.A> F.A> F.A> F.A> F.A> F.A> F.A> F.A> F.A> F.A> F.A> F.A> F.A> F.A> F.A> F.A> F.A> F.A> F.A> F.A> F.A> F.A> F.A> F.A> F.A> F.A> F.A> F.A> F.A> F.A> F.A> F.A> F.A> F.A> F.A> F.A> F.A> F.A> F.A> F.A> F.A> F.A> F.A> F.A> F.A> F.A> F.A> F.A> F.A> F.A> F.A> F.A> F.A> F.A> F.A> F.A> F.A> .A> .A> .A> .A> .A> .A> .A> .A> .A> .A> .A> .A> .A> .A> .A> .A> .A> .A> .A> .A> .A>H .A>H .A>H .A>H .A>H .A>H .A>H .A>H .A>H .A>H .A>H .A>H .A>H .A>H .A>H .A>H .A>H .A>H .A>H .A>H .A>H .A>H .A>H .A>H .A>H .A>H .A>H .A>H .A>H .A>H .A>H .A>H .A>H .A>H .A>H .A>H .A>H .A>H .A>H .A>H .A>H .A>H .A>H .A>H .A>H .A>H .A>H .A>H .A>H .A>H .A>H .A>H .A>H .A>H .A>H .A>H .A>H .A>H .A>H .A>H .A>H .A>H .A>H .A>H .A>H .A>H .A>H .A>H .A>H .A>H .A>H .A>H .A>H .A>H .A>H .A>H .A>H .A>H .A>H .A>H .A>H .A>H .A>H .A>H .A>H .A>H .A>H .A>H .A>H .A>H .A>H .A>H .A>H .A>H .A>H .A>H .A>H .A>H .A>H .A>H .A>H .A>H .A>H .A>H .A>H .A>H .A>H .A>H .A>H .A>H .A>H .A>H .A>H .A>H .A>H .A>H .A>H .A>H .A>H .A>H .A>H .A>H .A>H .A>H .A>H .A>H .A>H .A>H .A>H .A>H .A>H .A>H .A>H .A>H .A>H H H H H H H H H H H H H H H H H H    JA JA JA JA JA JA JA JA JA JA JA JA JA JA JA JA JA JA JA JA JA JA JA JA JA JA JA JA JA JA JA JA JA JA JA JA JA JA JA JA JA JA JA JA JA JA JA JA JA JA JA JA JA JA JA JA JA JA JA JA JA JA JA JA JA JA JA JA JA JA JA JA JA JA JA JA JA JA JA JA JA JA JA JA JA JA JA JA JA JA JA JA JA JA JA JA JA JA JA JA JA JA JA JA JA JA JA JA JA JA JA JA JA JA JA JA JA JA JA JA JA JA JA JA JA JA JA JA JA JA JA JA JA JA JA JA JA JA JA JA JA JA JA JA JA JA JA JA JA JA JA JA A A A A AF AF AF AF AF AF AF AF AF AF AF AF AF AF AF AF AF AF AF AF AF AF AF AF AF AF AF AF AF AF AF AF AF AF AF AF AF AF AF AF AF AF AF AF AF AF AF AF AF AF AF AF AF AF AF AF AF AF AF AF AF AF AF AF AF AF AF AF AF AF AF AF AF AF AF AF AF AF AF AF AF AF AF AF AF AF AF AF AF AF AF AF AF AF AF AF AF AF AF AF AF AF AF AF AF AF AF AF AF AF AF AF AF AF AF AF AF AF AF AF AF AF AF AF AF AF AF AF AF AF AF AF AF AF AF AF AF AF AF AF AF AF AF AF AF AF AF AF AF AF AF F    EA EA EA EA EA EA EA EA EA EA EA EA EA EA EA EA EA EA EA EA EA EA EA EA EA EA EA EA EA EA EA EA EA EA EA EA EA EA EA EA EA EA EA EA EA EA EA EA EA EA EA EA EA EA EA EA EA EA EA EA EA EA EA EA EA EA EA EA EA EA EA EA EA EA EA EA EA EA EA EA EA EA EA EA EA EA EA EA EA EA EA EA EA EA EA EA EA EA EA EA EA EA EA EA EA EA EA EA EA EA EA EA EA EA EA EA EA EA EA EA EA EA EA EA EA EA EA EA EA EA EA EA EA EA EA EA EA EA EA EA EA EA EA EA EA EA EA EA EA EA EA EA A A A A AF AF AF AF AF AF AF AF AF AF AF AF AF AF AF AF AF AF AF AF AF AF AF AF AF AF AF AF AF AF AF AF AF AF AF AF AF AF AF AF AF AF AF AF AF AF AF AF AF AF AF AF AF AF AF AF AF AF AF AF AF AF AF AF AF AF AF AF AF AF AF AF AF AF AF AF AF AF AF AF AF AF AF AF AF AF AF AF AF AF AF AF AF AF AF AF AF AF AF AF AF AF AF AF AF AF AF AF AF AF AF AF AF AF AF AF AF AF AF AF AF AF AF AF AF AF AF AF AF AF AF AF AF AF AF AF AF AF AF AF AF AF AF AF AF AF AF AF AF AF AF F    A> A> A> A> A> A> A> A> A> A> A> A> A> A> A> A> A> A> A> A> A> A> A> A> A> A> A> A> A> A> A> A> A> A> A> A> A> A> A> A> A> A> A> A> A> A> A> A> A> A> A> A> A> A> A> A> A> A> A> A> A> A> A> A> A> A> A> A> A> A> A> A> A> A> A> A> A> A> A> A> A> A> A> A> A> A> A> A> A> A> A> A> A> A> A> A> A> A> A> A> A> A> A> A> A> A> A> A> A> A> A> A> A> A> A> A> A> A> A> A> A> A> A> A> A> A> A> A> A> A> A> A> A> A> A> A> A> A> A> A> A> A> A> A> A> A> A> A> A> A> A> A> > > > > >F >F >F >F >F >F >F >F >F >F >F >F >F >F >F >F >F >F >F >F >F >F >F >F >F >F >F >F >F >F >F >F >F >F >F >F >F >F >F >F >F >F >F >F >F >F >F >F >F >F >F >F >F >F >F >F >F >F >F >F >F >F >F >F >F >F >F >F >F >F >F >F >F >F >F >F >F >F >F >F >F >F >F >F >F >F >F >F >F >F >F >F >F >F >F >F >F >F >F >F >F >F >F >F >F >F >F >F >F >F >F >F >F >F >F >F >F >F >F >F >F >F >F >F >F >F >F >F >F >F >F >F >F >F >F >F >F >F >F >F >F >F >F >F >F >F >F >F >F >F >F F    J: J: J: J: J: J: J: J: J: J: J: J: J: J: J: J: J: J: J: J: J: J: J: J: J: J: J: J: J: J: J: J: J: J: J: J: J: J: J: J: J: J: J: J: J: J: J: J: J: J: J: J: J: J: J: J: J: J: J: J: J: J: J: J: J: J: J: J: J: J: J: J: J: J: J: J: J: J: J: J: J: J: J: J: J: J: J: J: J: J: J: J: J: J: J: J: J: J: J: J: J: J: J: J: J: J: J: J: J: J: J: J: J: J: J: J: J: J: J: J: J: J: J: J: J: J: J: J: J: J: J: J: J: J: J: J: J: J: J: J: J: J: J: J: J: J: J: J: J: J: J: J: : : : : :F :F :F :F :F :F :F :F :F :F :F :F :F :F :F :F :F :F :F :F :F :F :F :F :F :F :F :F :F :F :F :F :F :F :F :F :F :F :F :F :F :F :F :F :F :F :F :F :F :F :F :F :F :F :F :F :F :F :F :F :F :F :F :F :F :F :F :F :F :F :F :F :F :F :F :F :F :F :F :F :F :F :F :F :F :F :F :F :F :F :F :F :F :F :F :F :F :F :F :F :F :F :F :F :F :F :F :F :F :F :F :F :F :F :F :F :F :F :F :F :F :F :F :F :F :F :F :F :F :F :F :F :F :F :F :F :F :F :F :F :F :F :F :F :F :F :F :F :F :F :F F    L: L: L: L: L: L: L: L: L: L: L: L: L: L: L: L: L: L: L: L: L: L: L: L: L: L: L: L: L: L: L: L: L: L: L: L: L: L: L: L: L: L: L: L: L: L: L: L: L: L: L: L: L: L: L: L: L: L: L: L: L: L: L: L: L: L: L: L: L: L: L: L: L: L: L: L: L: L: L: L: L: L: L: L: L: L: L: L: L: L: L: L: L: L: L: L: L: L: L: L: L: L: L: L: L: L: L: L: L: L: L: L: L: L: L: L: L: L: L: L: L: L: L: L: L: L: L: L: L: L: L: L: L: L: L: L: L: L: L: L: L: L: L: L: L: L: L: L: L: L: L: L: : : : : :F :F :F :F :F :F :F :F :F :F :F :F :F :F :F :F :F :F :F :F :F :F :F :F :F :F :F :F :F :F :F :F :F :F :F :F :F :F :F :F :F :F :F :F :F :F :F :F :F :F :F :F :F :F :F :F :F :F :F :F :F :F :F :F :F :F :F :F :F :F :F :F :F :F :F :F :F :F :F :F :F :F :F :F :F :F :F :F :F :F :F :F :F :F :F :F :F :F :F :F :F :F :F :F :F :F :F :F :F :F :F :F :F :F :F :F :F :F :F :F :F :F :F :F :F :F :F :F :F :F :F :F :F :F :F :F :F :F :F :F :F :F :F :F :F :F :F :F :F :F :F F     9M 9M 9M 9M 9M 9M 9M 9M 9M 9M 9M 9M 9M 9M 9M 9M 9M 9M 9M 9M 9M 9M 9M 9M 9M 9M 9M 9M 9M 9M 9M 9M 9M 9M 9M 9M 9M 9M 9M 9M 9M 9M 9M 9M 9M 9M 9M 9M 9M 9M 9M 9M 9M 9M 9M 9M 9M 9M 9M 9M 9M 9M 9M 9M 9M 9M 9M 9M 9M 9M 9M 9M 9M 9M 9M 9M 9M 9M 9M 9M 9M 9M 9M 9M 9M 9M 9M 9M 9M 9M 9M 9M 9M 9M 9M 9M 9M 9M 9M 9M 9M 9M 9M 9M 9M 9M 9M 9M 9M 9M 9M 9M 9M 9M 9M 9M 9M 9M 9M 9M 9M 9M 9M 9M 9M 9M 9M 9M 9M 9M 9M 9M 9M 9M 9M 9M 9M 9M 9M 9M 9M 9M 9M 9M 9M 9M 9M 9M 9M 9M 9M 9M M M M 7M 7M 7M 7M 7M 7M 7M 7M 7M 7M 7M 7M 7M 7M 7M 7M 7M 7M 7M 7M 7M 7M 7M 7M 7M 7M 7M 7M 7M 7M 7M 7M 7M 7M 7M 7M 7M 7M 7M 7M 7M 7M 7M 7M 7M 7M 7M 7M 7M 7M 7M 7M 7M 7M 7M 7M 7M 7M 7M 7M 7M 7M 7M 7M 7M 7M 7M 7M 7M 7M 7M 7M 7M 7M 7M 7M 7M 7M 7M 7M 7M 7M 7M 7M 7M 7M 7M 7M 7M 7M 7M 7M 7M 7M 7M 7M 7M 7M 7M 7M 7M 7M 7M 7M 7M 7M 7M 7M 7M 7M 7M 7M 7M 7M 7M 7M 7M 7M 7M 7M 7M 7M 7M 7M 7M 7M 7M 7M 7M 7M 7M 7M 7M 7M 7M 7M 7M 7M 7M 7M 7M 7M 7M 7M 7M 7M 7M 7M 7M 7M 7M 7M     9T 9T 9T 9T 9T 9T 9T 9T 9T 9T 9T 9T 9T 9T 9T 9T 9T 9T 9T 9T 9T 9T 9T 9T 9T 9T 9T 9T 9T 9T 9T 9T 9T 9T 9T 9T 9T 9T 9T 9T 9T 9T 9T 9T 9T 9T 9T 9T 9T 9T 9T 9T 9T 9T 9T 9T 9T 9T 9T 9T 9T 9T 9T 9T 9T 9T 9T 9T 9T 9T 9T 9T 9T 9T 9T 9T 9T 9T 9T 9T 9T 9T 9T 9T 9T 9T 9T 9T 9T 9T 9T 9T 9T 9T 9T 9T 9T 9T 9T 9T 9T 9T 9T 9T 9T 9T 9T 9T 9T 9T 9T 9T 9T 9T 9T 9T 9T 9T 9T 9T 9T 9T 9T 9T 9T 9T 9T 9T 9T 9T 9T 9T 9T 9T 9T 9T 9T 9T 9T 9T 9T 9T 9T 9T 9T 9T 9T 9T 9T 9T 9T 9T T T T 5T 5T 5T 5T 5T 5T 5T 5T 5T 5T 5T 5T 5T 5T 5T 5T 5T 5T 5T 5T 5T 5T 5T 5T 5T 5T 5T 5T 5T 5T 5T 5T 5T 5T 5T 5T 5T 5T 5T 5T 5T 5T 5T 5T 5T 5T 5T 5T 5T 5T 5T 5T 5T 5T 5T 5T 5T 5T 5T 5T 5T 5T 5T 5T 5T 5T 5T 5T 5T 5T 5T 5T 5T 5T 5T 5T 5T 5T 5T 5T 5T 5T 5T 5T 5T 5T 5T 5T 5T 5T 5T 5T 5T 5T 5T 5T 5T 5T 5T 5T 5T 5T 5T 5T 5T 5T 5T 5T 5T 5T 5T 5T 5T 5T 5T 5T 5T 5T 5T 5T 5T 5T 5T 5T 5T 5T 5T 5T 5T 5T 5T 5T 5T 5T 5T 5T 5T 5T 5T 5T 5T 5T 5T 5T 5T 5T 5T 5T 5T 5T 5T 5T     4T 4T 4T 4T 4T 4T 4T 4T 4T 4T 4T 4T 4T 4T 4T 4T 4T 4T 4T 4T 4T 4T 4T 4T 4T 4T 4T 4T 4T 4T 4T 4T 4T 4T 4T 4T 4T 4T 4T 4T 4T 4T 4T 4T 4T 4T 4T 4T 4T 4T 4T 4T 4T 4T 4T 4T 4T 4T 4T 4T 4T 4T 4T 4T 4T 4T 4T 4T 4T 4T 4T 4T 4T 4T 4T 4T 4T 4T 4T 4T 4T 4T 4T 4T 4T 4T 4T 4T 4T 4T 4T 4T 4T 4T 4T 4T 4T 4T 4T 4T 4T 4T 4T 4T 4T 4T 4T 4T 4T 4T 4T 4T 4T 4T 4T 4T 4T 4T 4T 4T 4T 4T 4T 4T 4T 4T 4T 4T 4T 4T 4T 4T 4T 4T 4T 4T 4T 4T 4T 4T 4T 4T 4T 4T 4T 4T 4T 4T 4T 4T 4T 4T T T T 5T 5T 5T 5T 5T 5T 5T 5T 5T 5T 5T 5T 5T 5T 5T 5T 5T 5T 5T 5T 5T 5T 5T 5T 5T 5T 5T 5T 5T 5T 5T 5T 5T 5T 5T 5T 5T 5T 5T 5T 5T 5T 5T 5T 5T 5T 5T 5T 5T 5T 5T 5T 5T 5T 5T 5T 5T 5T 5T 5T 5T 5T 5T 5T 5T 5T 5T 5T 5T 5T 5T 5T 5T 5T 5T 5T 5T 5T 5T 5T 5T 5T 5T 5T 5T 5T 5T 5T 5T 5T 5T 5T 5T 5T 5T 5T 5T 5T 5T 5T 5T 5T 5T 5T 5T 5T 5T 5T 5T 5T 5T 5T 5T 5T 5T 5T 5T 5T 5T 5T 5T 5T 5T 5T 5T 5T 5T 5T 5T 5T 5T 5T 5T 5T 5T 5T 5T 5T 5T 5T 5T 5T 5T 5T 5T 5T 5T 5T 5T 5T 5T 5T     0Q 0Q 0Q 0Q 0Q 0Q 0Q 0Q 0Q 0Q 0Q 0Q 0Q 0Q 0Q 0Q 0Q 0Q 0Q 0Q 0Q 0Q 0Q 0Q 0Q 0Q 0Q 0Q 0Q 0Q 0Q 0Q 0Q 0Q 0Q 0Q 0Q 0Q 0Q 0Q 0Q 0Q 0Q 0Q 0Q 0Q 0Q 0Q 0Q 0Q 0Q 0Q 0Q 0Q 0Q 0Q 0Q 0Q 0Q 0Q 0Q 0Q 0Q 0Q 0Q 0Q 0Q 0Q 0Q 0Q 0Q 0Q 0Q 0Q 0Q 0Q 0Q 0Q 0Q 0Q 0Q 0Q 0Q 0Q 0Q 0Q 0Q 0Q 0Q 0Q 0Q 0Q 0Q 0Q 0Q 0Q 0Q 0Q 0Q 0Q 0Q 0Q 0Q 0Q 0Q 0Q 0Q 0Q 0Q 0Q 0Q 0Q 0Q 0Q 0Q 0Q 0Q 0Q 0Q 0Q 0Q 0Q 0Q 0Q 0Q 0Q 0Q 0Q 0Q 0Q 0Q 0Q 0Q 0Q 0Q 0Q 0Q 0Q 0Q 0Q 0Q 0Q 0Q 0Q 0Q 0Q 0Q 0Q 0Q 0Q 0Q 0Q Q Q Q 5Q 5Q 5Q 5Q 5Q 5Q 5Q 5Q 5Q 5Q 5Q 5Q 5Q 5Q 5Q 5Q 5Q 5Q 5Q 5Q 5Q 5Q 5Q 5Q 5Q 5Q 5Q 5Q 5Q 5Q 5Q 5Q 5Q 5Q 5Q 5Q 5Q 5Q 5Q 5Q 5Q 5Q 5Q 5Q 5Q 5Q 5Q 5Q 5Q 5Q 5Q 5Q 5Q 5Q 5Q 5Q 5Q 5Q 5Q 5Q 5Q 5Q 5Q 5Q 5Q 5Q 5Q 5Q 5Q 5Q 5Q 5Q 5Q 5Q 5Q 5Q 5Q 5Q 5Q 5Q 5Q 5Q 5Q 5Q 5Q 5Q 5Q 5Q 5Q 5Q 5Q 5Q 5Q 5Q 5Q 5Q 5Q 5Q 5Q 5Q 5Q 5Q 5Q 5Q 5Q 5Q 5Q 5Q 5Q 5Q 5Q 5Q 5Q 5Q 5Q 5Q 5Q 5Q 5Q 5Q 5Q 5Q 5Q 5Q 5Q 5Q 5Q 5Q 5Q 5Q 5Q 5Q 5Q 5Q 5Q 5Q 5Q 5Q 5Q 5Q 5Q 5Q 5Q 5Q 5Q 5Q 5Q 5Q 5Q 5Q 5Q 5Q     9M 9M 9M 9M 9M 9M 9M 9M 9M 9M 9M 9M 9M 9M 9M 9M 9M 9M 9M 9M 9M 9M 9M 9M 9M 9M 9M 9M 9M 9M 9M 9M 9M 9M 9M 9M 9M 9M 9M 9M 9M 9M 9M 9M 9M 9M 9M 9M 9M 9M 9M 9M 9M 9M 9M 9M 9M 9M 9M 9M 9M 9M 9M 9M 9M 9M 9M 9M 9M 9M 9M 9M 9M 9M 9M 9M 9M 9M 9M 9M 9M 9M 9M 9M 9M 9M 9M 9M 9M 9M 9M 9M 9M 9M 9M 9M 9M 9M 9M 9M 9M 9M 9M 9M 9M 9M 9M 9M 9M 9M 9M 9M 9M 9M 9M 9M 9M 9M 9M 9M 9M 9M 9M 9M 9M 9M 9M 9M 9M 9M 9M 9M 9M 9M 9M 9M 9M 9M 9M 9M 9M 9M 9M 9M 9M 9M 9M 9M 9M 9M 9M 9M M M M 5M 5M 5M 5M 5M 5M 5M 5M 5M 5M 5M 5M 5M 5M 5M 5M 5M 5M 5M 5M 5M 5M 5M 5M 5M 5M 5M 5M 5M 5M 5M 5M 5M 5M 5M 5M 5M 5M 5M 5M 5M 5M 5M 5M 5M 5M 5M 5M 5M 5M 5M 5M 5M 5M 5M 5M 5M 5M 5M 5M 5M 5M 5M 5M 5M 5M 5M 5M 5M 5M 5M 5M 5M 5M 5M 5M 5M 5M 5M 5M 5M 5M 5M 5M 5M 5M 5M 5M 5M 5M 5M 5M 5M 5M 5M 5M 5M 5M 5M 5M 5M 5M 5M 5M 5M 5M 5M 5M 5M 5M 5M 5M 5M 5M 5M 5M 5M 5M 5M 5M 5M 5M 5M 5M 5M 5M 5M 5M 5M 5M 5M 5M 5M 5M 5M 5M 5M 5M 5M 5M 5M 5M 5M 5M 5M 5M 5M 5M 5M 5M 5M 5M     ;M ;M ;M ;M ;M ;M ;M ;M ;M ;M ;M ;M ;M ;M ;M ;M ;M ;M ;M ;M ;M ;M ;M ;M ;M ;M ;M ;M ;M ;M ;M ;M ;M ;M ;M ;M ;M ;M ;M ;M ;M ;M ;M ;M ;M ;M ;M ;M ;M ;M ;M ;M ;M ;M ;M ;M ;M ;M ;M ;M ;M ;M ;M ;M ;M ;M ;M ;M ;M ;M ;M ;M ;M ;M ;M ;M ;M ;M ;M ;M ;M ;M ;M ;M ;M ;M ;M ;M ;M ;M ;M ;M ;M ;M ;M ;M ;M ;M ;M ;M ;M ;M ;M ;M ;M ;M ;M ;M ;M ;M ;M ;M ;M ;M ;M ;M ;M ;M ;M ;M ;M ;M ;M ;M ;M ;M ;M ;M ;M ;M ;M ;M ;M ;M ;M ;M ;M ;M ;M ;M ;M ;M ;M ;M ;M ;M ;M ;M ;M ;M ;M ;M M M M 5M 5M 5M 5M 5M 5M 5M 5M 5M 5M 5M 5M 5M 5M 5M 5M 5M 5M 5M 5M 5M 5M 5M 5M 5M 5M 5M 5M 5M 5M 5M 5M 5M 5M 5M 5M 5M 5M 5M 5M 5M 5M 5M 5M 5M 5M 5M 5M 5M 5M 5M 5M 5M 5M 5M 5M 5M 5M 5M 5M 5M 5M 5M 5M 5M 5M 5M 5M 5M 5M 5M 5M 5M 5M 5M 5M 5M 5M 5M 5M 5M 5M 5M 5M 5M 5M 5M 5M 5M 5M 5M 5M 5M 5M 5M 5M 5M 5M 5M 5M 5M 5M 5M 5M 5M 5M 5M 5M 5M 5M 5M 5M 5M 5M 5M 5M 5M 5M 5M 5M 5M 5M 5M 5M 5M 5M 5M 5M 5M 5M 5M 5M 5M 5M 5M 5M 5M 5M 5M 5M 5M 5M 5M 5M 5M 5M 5M 5M 5M 5M 5M 5M     K< K< K< K< K< K< K< K< K< K< K< K< K< K< K< K< K< K< K< K< K< K< K< K< K< K< K< K< K< K< K< K< K< K< K< K< K< K< K< K< K< K< K< K< K< K< K< K< K< K< K< K< K< K< K< K< K< K< K< K< K< K< K< K< K< K< K< K< K< K< K< K< K< K< K< K< K< K< K< K< K< K< K< K< K< K< K< K< K< K< K< K< K< K< K< K< K< K< K< K< K< K< K< K< K< K< K< K< K< K< K< K< K< K< K< K< K< K< K< K< K< K< K< K< K< K< K< K< K< K< K< K< K< K< K< K< K< K< K< K< K< K< K< K< K< K< K< K< K< K< K< K< < < < J< J< J< J< J< J< J< J< J< J< J< J< J< J< J< J< J< J< J< J< J< J< J< J< J< J< J< J< J< J< J< J< J< J< J< J< J< J< J< J< J< J< J< J< J< J< J< J< J< J< J< J< J< J< J< J< J< J< J< J< J< J< J< J< J< J< J< J< J< J< J< J< J< J< J< J< J< J< J< J< J< J< J< J< J< J< J< J< J< J< J< J< J< J< J< J< J< J< J< J< J< J< J< J< J< J< J< J< J< J< J< J< J< J< J< J< J< J< J< J< J< J< J< J< J< J< J< J< J< J< J< J< J< J< J< J< J< J< J< J< J< J< J< J< J< J< J< J< J< J< J< J<     K7 K7 K7 K7 K7 K7 K7 K7 K7 K7 K7 K7 K7 K7 K7 K7 K7 K7 K7 K7 K7 K7 K7 K7 K7 K7 K7 K7 K7 K7 K7 K7 K7 K7 K7 K7 K7 K7 K7 K7 K7 K7 K7 K7 K7 K7 K7 K7 K7 K7 K7 K7 K7 K7 K7 K7 K7 K7 K7 K7 K7 K7 K7 K7 K7 K7 K7 K7 K7 K7 K7 K7 K7 K7 K7 K7 K7 K7 K7 K7 K7 K7 K7 K7 K7 K7 K7 K7 K7 K7 K7 K7 K7 K7 K7 K7 K7 K7 K7 K7 K7 K7 K7 K7 K7 K7 K7 K7 K7 K7 K7 K7 K7 K7 K7 K7 K7 K7 K7 K7 K7 K7 K7 K7 K7 K7 K7 K7 K7 K7 K7 K7 K7 K7 K7 K7 K7 K7 K7 K7 K7 K7 K7 K7 K7 K7 K7 K7 K7 K7 K7 K7 7 7 7 H7 H7 H7 H7 H7 H7 H7 H7 H7 H7 H7 H7 H7 H7 H7 H7 H7 H7 H7 H7 H7 H7 H7 H7 H7 H7 H7 H7 H7 H7 H7 H7 H7 H7 H7 H7 H7 H7 H7 H7 H7 H7 H7 H7 H7 H7 H7 H7 H7 H7 H7 H7 H7 H7 H7 H7 H7 H7 H7 H7 H7 H7 H7 H7 H7 H7 H7 H7 H7 H7 H7 H7 H7 H7 H7 H7 H7 H7 H7 H7 H7 H7 H7 H7 H7 H7 H7 H7 H7 H7 H7 H7 H7 H7 H7 H7 H7 H7 H7 H7 H7 H7 H7 H7 H7 H7 H7 H7 H7 H7 H7 H7 H7 H7 H7 H7 H7 H7 H7 H7 H7 H7 H7 H7 H7 H7 H7 H7 H7 H7 H7 H7 H7 H7 H7 H7 H7 H7 H7 H7 H7 H7 H7 H7 H7 H7 H7 H7 H7 H7 H7 H7     G7 G7 G7 G7 G7 G7 G7 G7 G7 G7 G7 G7 G7 G7 G7 G7 G7 G7 G7 G7 G7 G7 G7 G7 G7 G7 G7 G7 G7 G7 G7 G7 G7 G7 G7 G7 G7 G7 G7 G7 G7 G7 G7 G7 G7 G7 G7 G7 G7 G7 G7 G7 G7 G7 G7 G7 G7 G7 G7 G7 G7 G7 G7 G7 G7 G7 G7 G7 G7 G7 G7 G7 G7 G7 G7 G7 G7 G7 G7 G7 G7 G7 G7 G7 G7 G7 G7 G7 G7 G7 G7 G7 G7 G7 G7 G7 G7 G7 G7 G7 G7 G7 G7 G7 G7 G7 G7 G7 G7 G7 G7 G7 G7 G7 G7 G7 G7 G7 G7 G7 G7 G7 G7 G7 G7 G7 G7 G7 G7 G7 G7 G7 G7 G7 G7 G7 G7 G7 G7 G7 G7 G7 G7 G7 G7 G7 G7 G7 G7 G7 G7 G7 7 7 7 H7 H7 H7 H7 H7 H7 H7 H7 H7 H7 H7 H7 H7 H7 H7 H7 H7 H7 H7 H7 H7 H7 H7 H7 H7 H7 H7 H7 H7 H7 H7 H7 H7 H7 H7 H7 H7 H7 H7 H7 H7 H7 H7 H7 H7 H7 H7 H7 H7 H7 H7 H7 H7 H7 H7 H7 H7 H7 H7 H7 H7 H7 H7 H7 H7 H7 H7 H7 H7 H7 H7 H7 H7 H7 H7 H7 H7 H7 H7 H7 H7 H7 H7 H7 H7 H7 H7 H7 H7 H7 H7 H7 H7 H7 H7 H7 H7 H7 H7 H7 H7 H7 H7 H7 H7 H7 H7 H7 H7 H7 H7 H7 H7 H7 H7 H7 H7 H7 H7 H7 H7 H7 H7 H7 H7 H7 H7 H7 H7 H7 H7 H7 H7 H7 H7 H7 H7 H7 H7 H7 H7 H7 H7 H7 H7 H7 H7 H7 H7 H7 H7 H7     C3 C3 C3 C3 C3 C3 C3 C3 C3 C3 C3 C3 C3 C3 C3 C3 C3 C3 C3 C3 C3 C3 C3 C3 C3 C3 C3 C3 C3 C3 C3 C3 C3 C3 C3 C3 C3 C3 C3 C3 C3 C3 C3 C3 C3 C3 C3 C3 C3 C3 C3 C3 C3 C3 C3 C3 C3 C3 C3 C3 C3 C3 C3 C3 C3 C3 C3 C3 C3 C3 C3 C3 C3 C3 C3 C3 C3 C3 C3 C3 C3 C3 C3 C3 C3 C3 C3 C3 C3 C3 C3 C3 C3 C3 C3 C3 C3 C3 C3 C3 C3 C3 C3 C3 C3 C3 C3 C3 C3 C3 C3 C3 C3 C3 C3 C3 C3 C3 C3 C3 C3 C3 C3 C3 C3 C3 C3 C3 C3 C3 C3 C3 C3 C3 C3 C3 C3 C3 C3 C3 C3 C3 C3 C3 C3 C3 C3 C3 C3 C3 C3 C3 3 3 3 H3 H3 H3 H3 H3 H3 H3 H3 H3 H3 H3 H3 H3 H3 H3 H3 H3 H3 H3 H3 H3 H3 H3 H3 H3 H3 H3 H3 H3 H3 H3 H3 H3 H3 H3 H3 H3 H3 H3 H3 H3 H3 H3 H3 H3 H3 H3 H3 H3 H3 H3 H3 H3 H3 H3 H3 H3 H3 H3 H3 H3 H3 H3 H3 H3 H3 H3 H3 H3 H3 H3 H3 H3 H3 H3 H3 H3 H3 H3 H3 H3 H3 H3 H3 H3 H3 H3 H3 H3 H3 H3 H3 H3 H3 H3 H3 H3 H3 H3 H3 H3 H3 H3 H3 H3 H3 H3 H3 H3 H3 H3 H3 H3 H3 H3 H3 H3 H3 H3 H3 H3 H3 H3 H3 H3 H3 H3 H3 H3 H3 H3 H3 H3 H3 H3 H3 H3 H3 H3 H3 H3 H3 H3 H3 H3 H3 H3 H3 H3 H3 H3 H3     K0 K0 K0 K0 K0 K0 K0 K0 K0 K0 K0 K0 K0 K0 K0 K0 K0 K0 K0 K0 K0 K0 K0 K0 K0 K0 K0 K0 K0 K0 K0 K0 K0 K0 K0 K0 K0 K0 K0 K0 K0 K0 K0 K0 K0 K0 K0 K0 K0 K0 K0 K0 K0 K0 K0 K0 K0 K0 K0 K0 K0 K0 K0 K0 K0 K0 K0 K0 K0 K0 K0 K0 K0 K0 K0 K0 K0 K0 K0 K0 K0 K0 K0 K0 K0 K0 K0 K0 K0 K0 K0 K0 K0 K0 K0 K0 K0 K0 K0 K0 K0 K0 K0 K0 K0 K0 K0 K0 K0 K0 K0 K0 K0 K0 K0 K0 K0 K0 K0 K0 K0 K0 K0 K0 K0 K0 K0 K0 K0 K0 K0 K0 K0 K0 K0 K0 K0 K0 K0 K0 K0 K0 K0 K0 K0 K0 K0 K0 K0 K0 K0 K0 0 0 0 H0 H0 H0 H0 H0 H0 H0 H0 H0 H0 H0 H0 H0 H0 H0 H0 H0 H0 H0 H0 H0 H0 H0 H0 H0 H0 H0 H0 H0 H0 H0 H0 H0 H0 H0 H0 H0 H0 H0 H0 H0 H0 H0 H0 H0 H0 H0 H0 H0 H0 H0 H0 H0 H0 H0 H0 H0 H0 H0 H0 H0 H0 H0 H0 H0 H0 H0 H0 H0 H0 H0 H0 H0 H0 H0 H0 H0 H0 H0 H0 H0 H0 H0 H0 H0 H0 H0 H0 H0 H0 H0 H0 H0 H0 H0 H0 H0 H0 H0 H0 H0 H0 H0 H0 H0 H0 H0 H0 H0 H0 H0 H0 H0 H0 H0 H0 H0 H0 H0 H0 H0 H0 H0 H0 H0 H0 H0 H0 H0 H0 H0 H0 H0 H0 H0 H0 H0 H0 H0 H0 H0 H0 H0 H0 H0 H0 H0 H0 H0 H0 H0 H0     N0 N0 N0 N0 N0 N0 N0 N0 N0 N0 N0 N0 N0 N0 N0 N0 N0 N0 N0 N0 N0 N0 N0 N0 N0 N0 N0 N0 N0 N0 N0 N0 N0 N0 N0 N0 N0 N0 N0 N0 N0 N0 N0 N0 N0 N0 N0 N0 N0 N0 N0 N0 N0 N0 N0 N0 N0 N0 N0 N0 N0 N0 N0 N0 N0 N0 N0 N0 N0 N0 N0 N0 N0 N0 N0 N0 N0 N0 N0 N0 N0 N0 N0 N0 N0 N0 N0 N0 N0 N0 N0 N0 N0 N0 N0 N0 N0 N0 N0 N0 N0 N0 N0 N0 N0 N0 N0 N0 N0 N0 N0 N0 N0 N0 N0 N0 N0 N0 N0 N0 N0 N0 N0 N0 N0 N0 N0 N0 N0 N0 N0 N0 N0 N0 N0 N0 N0 N0 N0 N0 N0 N0 N0 N0 N0 N0 N0 N0 N0 N0 N0 N0 0 0 0 H0 H0 H0 H0 H0 H0 H0 H0 H0 H0 H0 H0 H0 H0 H0 H0 H0 H0 H0 H0 H0 H0 H0 H0 H0 H0 H0 H0 H0 H0 H0 H0 H0 H0 H0 H0 H0 H0 H0 H0 H0 H0 H0 H0 H0 H0 H0 H0 H0 H0 H0 H0 H0 H0 H0 H0 H0 H0 H0 H0 H0 H0 H0 H0 H0 H0 H0 H0 H0 H0 H0 H0 H0 H0 H0 H0 H0 H0 H0 H0 H0 H0 H0 H0 H0 H0 H0 H0 H0 H0 H0 H0 H0 H0 H0 H0 H0 H0 H0 H0 H0 H0 H0 H0 H0 H0 H0 H0 H0 H0 H0 H0 H0 H0 H0 H0 H0 H0 H0 H0 H0 H0 H0 H0 H0 H0 H0 H0 H0 H0 H0 H0 H0 H0 H0 H0 H0 H0 H0 H0 H0 H0 H0 H0 H0 H0 H0 H0 H0 H0 H0 H0     .O .O .O .O .O .O .O .O .O .O .O .O .O .O .O .O .O .O .O .O .O .O .O .O .O .O .O .O .O .O .O .O .O .O .O .O .O .O .O .O .O .O .O .O .O .O .O .O .O .O .O .O .O .O .O .O .O .O .O .O .O .O .O .O .O .O .O .O .O .O .O .O .O .O .O .O .O .O .O .O .O .O .O .O .O .O .O .O .O .O .O .O .O .O .O .O .O .O .O .O .O .O .O .O .O .O .O .O .O .O .O .O .O .O .O .O .O .O .O .O .O .O .O .O .O .O .O .O .O .O .O .O .O .O .O .O .O .O .O .O .O .O .O .O .O .O .O .O .O .O .O .O O O O O O- O- O- O- O- O- O- O- O- O- O- O- O- O- O- O- O- O- O- O- O- O- O- O- O- O- O- O- O- O- O- O- O- O- O- O- O- O- O- O- O- O- O- O- O- O- O- O- O- O- O- O- O- O- O- O- O- O- O- O- O- O- O- O- O- O- O- O- O- O- O- O- O- O- O- O- O- O- O- O- O- O- O- O- O- O- O- O- O- O- O- O- O- O- O- O- O- O- O- O- O- O- O- O- O- O- O- O- O- O- O- O- O- O- O- O- O- O- O- O- O- O- O- O- O- O- O- O- O- O- O- O- O- O- O- O- O- O- O- O- O- O- O- O- O- O- O- O- O- O- O- -    .J .J .J .J .J .J .J .J .J .J .J .J .J .J .J .J .J .J .J .J .J .J .J .J .J .J .J .J .J .J .J .J .J .J .J .J .J .J .J .J .J .J .J .J .J .J .J .J .J .J .J .J .J .J .J .J .J .J .J .J .J .J .J .J .J .J .J .J .J .J .J .J .J .J .J .J .J .J .J .J .J .J .J .J .J .J .J .J .J .J .J .J .J .J .J .J .J .J .J .J .J .J .J .J .J .J .J .J .J .J .J .J .J .J .J .J .J .J .J .J .J .J .J .J .J .J .J .J .J .J .J .J .J .J .J .J .J .J .J .J .J .J .J .J .J .J .J .J .J .J .J .J J J J J J+ J+ J+ J+ J+ J+ J+ J+ J+ J+ J+ J+ J+ J+ J+ J+ J+ J+ J+ J+ J+ J+ J+ J+ J+ J+ J+ J+ J+ J+ J+ J+ J+ J+ J+ J+ J+ J+ J+ J+ J+ J+ J+ J+ J+ J+ J+ J+ J+ J+ J+ J+ J+ J+ J+ J+ J+ J+ J+ J+ J+ J+ J+ J+ J+ J+ J+ J+ J+ J+ J+ J+ J+ J+ J+ J+ J+ J+ J+ J+ J+ J+ J+ J+ J+ J+ J+ J+ J+ J+ J+ J+ J+ J+ J+ J+ J+ J+ J+ J+ J+ J+ J+ J+ J+ J+ J+ J+ J+ J+ J+ J+ J+ J+ J+ J+ J+ J+ J+ J+ J+ J+ J+ J+ J+ J+ J+ J+ J+ J+ J+ J+ J+ J+ J+ J+ J+ J+ J+ J+ J+ J+ J+ J+ J+ J+ J+ J+ J+ J+ J+ +    *J *J *J *J *J *J *J *J *J *J *J *J *J *J *J *J *J *J *J *J *J *J *J *J *J *J *J *J *J *J *J *J *J *J *J *J *J *J *J *J *J *J *J *J *J *J *J *J *J *J *J *J *J *J *J *J *J *J *J *J *J *J *J *J *J *J *J *J *J *J *J *J *J *J *J *J *J *J *J *J *J *J *J *J *J *J *J *J *J *J *J *J *J *J *J *J *J *J *J *J *J *J *J *J *J *J *J *J *J *J *J *J *J *J *J *J *J *J *J *J *J *J *J *J *J *J *J *J *J *J *J *J *J *J *J *J *J *J *J *J *J *J *J *J *J *J *J *J *J *J *J *J J J J J J+ J+ J+ J+ J+ J+ J+ J+ J+ J+ J+ J+ J+ J+ J+ J+ J+ J+ J+ J+ J+ J+ J+ J+ J+ J+ J+ J+ J+ J+ J+ J+ J+ J+ J+ J+ J+ J+ J+ J+ J+ J+ J+ J+ J+ J+ J+ J+ J+ J+ J+ J+ J+ J+ J+ J+ J+ J+ J+ J+ J+ J+ J+ J+ J+ J+ J+ J+ J+ J+ J+ J+ J+ J+ J+ J+ J+ J+ J+ J+ J+ J+ J+ J+ J+ J+ J+ J+ J+ J+ J+ J+ J+ J+ J+ J+ J+ J+ J+ J+ J+ J+ J+ J+ J+ J+ J+ J+ J+ J+ J+ J+ J+ J+ J+ J+ J+ J+ J+ J+ J+ J+ J+ J+ J+ J+ J+ J+ J+ J+ J+ J+ J+ J+ J+ J+ J+ J+ J+ J+ J+ J+ J+ J+ J+ J+ J+ J+ J+ J+ J+ +    &F &F &F &F &F &F &F &F &F &F &F &F &F &F &F &F &F &F &F &F &F &F &F &F &F &F &F &F &F &F &F &F &F &F &F &F &F &F &F &F &F &F &F &F &F &F &F &F &F &F &F &F &F &F &F &F &F &F &F &F &F &F &F &F &F &F &F &F &F &F &F &F &F &F &F &F &F &F &F &F &F &F &F &F &F &F &F &F &F &F &F &F &F &F &F &F &F &F &F &F &F &F &F &F &F &F &F &F &F &F &F &F &F &F &F &F &F &F &F &F &F &F &F &F &F &F &F &F &F &F &F &F &F &F &F &F &F &F &F &F &F &F &F &F &F &F &F &F &F &F &F &F F F F F F+ F+ F+ F+ F+ F+ F+ F+ F+ F+ F+ F+ F+ F+ F+ F+ F+ F+ F+ F+ F+ F+ F+ F+ F+ F+ F+ F+ F+ F+ F+ F+ F+ F+ F+ F+ F+ F+ F+ F+ F+ F+ F+ F+ F+ F+ F+ F+ F+ F+ F+ F+ F+ F+ F+ F+ F+ F+ F+ F+ F+ F+ F+ F+ F+ F+ F+ F+ F+ F+ F+ F+ F+ F+ F+ F+ F+ F+ F+ F+ F+ F+ F+ F+ F+ F+ F+ F+ F+ F+ F+ F+ F+ F+ F+ F+ F+ F+ F+ F+ F+ F+ F+ F+ F+ F+ F+ F+ F+ F+ F+ F+ F+ F+ F+ F+ F+ F+ F+ F+ F+ F+ F+ F+ F+ F+ F+ F+ F+ F+ F+ F+ F+ F+ F+ F+ F+ F+ F+ F+ F+ F+ F+ F+ F+ F+ F+ F+ F+ F+ F+ +    .C .C .C .C .C .C .C .C .C .C .C .C .C .C .C .C .C .C .C .C .C .C .C .C .C .C .C .C .C .C .C .C .C .C .C .C .C .C .C .C .C .C .C .C .C .C .C .C .C .C .C .C .C .C .C .C .C .C .C .C .C .C .C .C .C .C .C .C .C .C .C .C .C .C .C .C .C .C .C .C .C .C .C .C .C .C .C .C .C .C .C .C .C .C .C .C .C .C .C .C .C .C .C .C .C .C .C .C .C .C .C .C .C .C .C .C .C .C .C .C .C .C .C .C .C .C .C .C .C .C .C .C .C .C .C .C .C .C .C .C .C .C .C .C .C .C .C .C .C .C .C .C C C C C C+ C+ C+ C+ C+ C+ C+ C+ C+ C+ C+ C+ C+ C+ C+ C+ C+ C+ C+ C+ C+ C+ C+ C+ C+ C+ C+ C+ C+ C+ C+ C+ C+ C+ C+ C+ C+ C+ C+ C+ C+ C+ C+ C+ C+ C+ C+ C+ C+ C+ C+ C+ C+ C+ C+ C+ C+ C+ C+ C+ C+ C+ C+ C+ C+ C+ C+ C+ C+ C+ C+ C+ C+ C+ C+ C+ C+ C+ C+ C+ C+ C+ C+ C+ C+ C+ C+ C+ C+ C+ C+ C+ C+ C+ C+ C+ C+ C+ C+ C+ C+ C+ C+ C+ C+ C+ C+ C+ C+ C+ C+ C+ C+ C+ C+ C+ C+ C+ C+ C+ C+ C+ C+ C+ C+ C+ C+ C+ C+ C+ C+ C+ C+ C+ C+ C+ C+ C+ C+ C+ C+ C+ C+ C+ C+ C+ C+ C+ C+ C+ C+ +    1C 1C 1C 1C 1C 1C 1C 1C 1C 1C 1C 1C 1C 1C 1C 1C 1C 1C 1C 1C 1C 1C 1C 1C 1C 1C 1C 1C 1C 1C 1C 1C 1C 1C 1C 1C 1C 1C 1C 1C 1C 1C 1C 1C 1C 1C 1C 1C 1C 1C 1C 1C 1C 1C 1C 1C 1C 1C 1C 1C 1C 1C 1C 1C 1C 1C 1C 1C 1C 1C 1C 1C 1C 1C 1C 1C 1C 1C 1C 1C 1C 1C 1C 1C 1C 1C 1C 1C 1C 1C 1C 1C 1C 1C 1C 1C 1C 1C 1C 1C 1C 1C 1C 1C 1C 1C 1C 1C 1C 1C 1C 1C 1C 1C 1C 1C 1C 1C 1C 1C 1C 1C 1C 1C 1C 1C 1C 1C 1C 1C 1C 1C 1C 1C 1C 1C 1C 1C 1C 1C 1C 1C 1C 1C 1C 1C 1C 1C 1C 1C 1C 1C C C C C C+ C+ C+ C+ C+ C+ C+ C+ C+ C+ C+ C+ C+ C+ C+ C+ C+ C+ C+ C+ C+ C+ C+ C+ C+ C+ C+ C+ C+ C+ C+ C+ C+ C+ C+ C+ C+ C+ C+ C+ C+ C+ C+ C+ C+ C+ C+ C+ C+ C+ C+ C+ C+ C+ C+ C+ C+ C+ C+ C+ C+ C+ C+ C+ C+ C+ C+ C+ C+ C+ C+ C+ C+ C+ C+ C+ C+ C+ C+ C+ C+ C+ C+ C+ C+ C+ C+ C+ C+ C+ C+ C+ C+ C+ C+ C+ C+ C+ C+ C+ C+ C+ C+ C+ C+ C+ C+ C+ C+ C+ C+ C+ C+ C+ C+ C+ C+ C+ C+ C+ C+ C+ C+ C+ C+ C+ C+ C+ C+ C+ C+ C+ C+ C+ C+ C+ C+ C+ C+ C+ C+ C+ C+ C+ C+ C+ C+ C+ C+ C+ C+ +    2A 2A 2A 2A 2A 2A 2A 2A 2A 2A 2A 2A 2A 2A 2A 2A 2A 2A 2A 2A 2A 2A 2A 2A 2A 2A 2A 2A 2A 2A 2A 2A 2A 2A 2A 2A 2A 2A 2A 2A 2A 2A 2A 2A 2A 2A 2A 2A 2A 2A 2A 2A 2A 2A 2A 2A 2A 2A 2A 2A 2A 2A 2A 2A 2A 2A 2A 2A 2A 2A 2A 2A 2A 2A 2A 2A 2A 2A 2A 2A 2A 2A 2A 2A 2A 2A 2A 2A 2A 2A 2A 2A 2A 2A 2A 2A 2A 2A 2A 2A 2A 2A 2A 2A 2A 2A 2A 2A 2A 2A 2A 2A 2A 2A 2A 2A 2A 2A 2A 2A 2A 2A 2A 2A 2A 2A 2A 2A 2A 2A 2A 2A 2A 2A 2A 2A 2A 2A 2A 2A 2A 2A 2A 2A 2A 2A 2A 2A 2A 2A 2A 2A A A A A A4 A4 A4 A4 A4 A4 A4 A4 A4 A4 A4 A4 A4 A4 A4 A4 A4 A4 A4 A4 A4 A4 A4 A4 A4 A4 A4 A4 A4 A4 A4 A4 A4 A4 A4 A4 A4 A4 A4 A4 A4 A4 A4 A4 A4 A4 A4 A4 A4 A4 A4 A4 A4 A4 A4 A4 A4 A4 A4 A4 A4 A4 A4 A4 A4 A4 A4 A4 A4 A4 A4 A4 A4 A4 A4 A4 A4 A4 A4 A4 A4 A4 A4 A4 A4 A4 A4 A4 A4 A4 A4 A4 A4 A4 A4 A4 A4 A4 A4 A4 A4 A4 A4 A4 A4 A4 A4 A4 A4 A4 A4 A4 A4 A4 A4 A4 A4 A4 A4 A4 A4 A4 A4 A4 A4 A4 A4 A4 A4 A4 A4 A4 A4 A4 A4 A4 A4 A4 A4 A4 A4 A4 A4 A4 A4 A4 A4 A4 A4 A4 A4 4    5Q 5Q 5Q 5Q 5Q 5Q 5Q 5Q 5Q 5Q 5Q 5Q 5Q 5Q 5Q 5Q 5Q 5Q 5Q 5Q 5Q 5Q 5Q 5Q 5Q 5Q 5Q 5Q 5Q 5Q 5Q 5Q 5Q 5Q 5Q 5Q 5Q 5Q 5Q 5Q 5Q 5Q 5Q 5Q 5Q 5Q 5Q 5Q 5Q 5Q 5Q 5Q 5Q 5Q 5Q 5Q 5Q 5Q 5Q 5Q 5Q 5Q 5Q 5Q 5Q 5Q 5Q 5Q 5Q 5Q 5Q 5Q 5Q 5Q 5Q 5Q 5Q 5Q 5Q 5Q 5Q 5Q 5Q 5Q 5Q 5Q 5Q 5Q 5Q 5Q 5Q 5Q 5Q 5Q 5Q 5Q 5Q 5Q 5Q 5Q 5Q 5Q 5Q 5Q 5Q 5Q 5Q 5Q 5Q 5Q 5Q 5Q 5Q 5Q 5Q 5Q 5Q 5Q 5Q 5Q 5Q 5Q 5Q 5Q 5Q 5Q 5Q 5Q 5Q 5Q 5Q 5Q 5Q 5Q 5Q 5Q 5Q 5Q 5Q 5Q 5Q 5Q 5Q 5Q 5Q 5Q 5Q 5Q 5Q 5Q 5Q 5Q Q Q Q Q Q2 Q2 Q2 Q2 Q2 Q2 Q2 Q2 Q2 Q2 Q2 Q2 Q2 Q2 Q2 Q2 Q2 Q2 Q2 Q2 Q2 Q2 Q2 Q2 Q2 Q2 Q2 Q2 Q2 Q2 Q2 Q2 Q2 Q2 Q2 Q2 Q2 Q2 Q2 Q2 Q2 Q2 Q2 Q2 Q2 Q2 Q2 Q2 Q2 Q2 Q2 Q2 Q2 Q2 Q2 Q2 Q2 Q2 Q2 Q2 Q2 Q2 Q2 Q2 Q2 Q2 Q2 Q2 Q2 Q2 Q2 Q2 Q2 Q2 Q2 Q2 Q2 Q2 Q2 Q2 Q2 Q2 Q2 Q2 Q2 Q2 Q2 Q2 Q2 Q2 Q2 Q2 Q2 Q2 Q2 Q2 Q2 Q2 Q2 Q2 Q2 Q2 Q2 Q2 Q2 Q2 Q2 Q2 Q2 Q2 Q2 Q2 Q2 Q2 Q2 Q2 Q2 Q2 Q2 Q2 Q2 Q2 Q2 Q2 Q2 Q2 Q2 Q2 Q2 Q2 Q2 Q2 Q2 Q2 Q2 Q2 Q2 Q2 Q2 Q2 Q2 Q2 Q2 Q2 Q2 Q2 Q2 Q2 Q2 Q2 Q2 2    1Q 1Q 1Q 1Q 1Q 1Q 1Q 1Q 1Q 1Q 1Q 1Q 1Q 1Q 1Q 1Q 1Q 1Q 1Q 1Q 1Q 1Q 1Q 1Q 1Q 1Q 1Q 1Q 1Q 1Q 1Q 1Q 1Q 1Q 1Q 1Q 1Q 1Q 1Q 1Q 1Q 1Q 1Q 1Q 1Q 1Q 1Q 1Q 1Q 1Q 1Q 1Q 1Q 1Q 1Q 1Q 1Q 1Q 1Q 1Q 1Q 1Q 1Q 1Q 1Q 1Q 1Q 1Q 1Q 1Q 1Q 1Q 1Q 1Q 1Q 1Q 1Q 1Q 1Q 1Q 1Q 1Q 1Q 1Q 1Q 1Q 1Q 1Q 1Q 1Q 1Q 1Q 1Q 1Q 1Q 1Q 1Q 1Q 1Q 1Q 1Q 1Q 1Q 1Q 1Q 1Q 1Q 1Q 1Q 1Q 1Q 1Q 1Q 1Q 1Q 1Q 1Q 1Q 1Q 1Q 1Q 1Q 1Q 1Q 1Q 1Q 1Q 1Q 1Q 1Q 1Q 1Q 1Q 1Q 1Q 1Q 1Q 1Q 1Q 1Q 1Q 1Q 1Q 1Q 1Q 1Q 1Q 1Q 1Q 1Q 1Q 1Q Q Q Q Q Q2 Q2 Q2 Q2 Q2 Q2 Q2 Q2 Q2 Q2 Q2 Q2 Q2 Q2 Q2 Q2 Q2 Q2 Q2 Q2 Q2 Q2 Q2 Q2 Q2 Q2 Q2 Q2 Q2 Q2 Q2 Q2 Q2 Q2 Q2 Q2 Q2 Q2 Q2 Q2 Q2 Q2 Q2 Q2 Q2 Q2 Q2 Q2 Q2 Q2 Q2 Q2 Q2 Q2 Q2 Q2 Q2 Q2 Q2 Q2 Q2 Q2 Q2 Q2 Q2 Q2 Q2 Q2 Q2 Q2 Q2 Q2 Q2 Q2 Q2 Q2 Q2 Q2 Q2 Q2 Q2 Q2 Q2 Q2 Q2 Q2 Q2 Q2 Q2 Q2 Q2 Q2 Q2 Q2 Q2 Q2 Q2 Q2 Q2 Q2 Q2 Q2 Q2 Q2 Q2 Q2 Q2 Q2 Q2 Q2 Q2 Q2 Q2 Q2 Q2 Q2 Q2 Q2 Q2 Q2 Q2 Q2 Q2 Q2 Q2 Q2 Q2 Q2 Q2 Q2 Q2 Q2 Q2 Q2 Q2 Q2 Q2 Q2 Q2 Q2 Q2 Q2 Q2 Q2 Q2 Q2 Q2 Q2 Q2 Q2 Q2 2    -M -M -M -M -M -M -M -M -M -M -M -M -M -M -M -M -M -M -M -M -M -M -M -M -M -M -M -M -M -M -M -M -M -M -M -M -M -M -M -M -M -M -M -M -M -M -M -M -M -M -M -M -M -M -M -M -M -M -M -M -M -M -M -M -M -M -M -M -M -M -M -M -M -M -M -M -M -M -M -M -M -M -M -M -M -M -M -M -M -M -M -M -M -M -M -M -M -M -M -M -M -M -M -M -M -M -M -M -M -M -M -M -M -M -M -M -M -M -M -M -M -M -M -M -M -M -M -M -M -M -M -M -M -M -M -M -M -M -M -M -M -M -M -M -M -M -M -M -M -M -M -M M M M M M2 M2 M2 M2 M2 M2 M2 M2 M2 M2 M2 M2 M2 M2 M2 M2 M2 M2 M2 M2 M2 M2 M2 M2 M2 M2 M2 M2 M2 M2 M2 M2 M2 M2 M2 M2 M2 M2 M2 M2 M2 M2 M2 M2 M2 M2 M2 M2 M2 M2 M2 M2 M2 M2 M2 M2 M2 M2 M2 M2 M2 M2 M2 M2 M2 M2 M2 M2 M2 M2 M2 M2 M2 M2 M2 M2 M2 M2 M2 M2 M2 M2 M2 M2 M2 M2 M2 M2 M2 M2 M2 M2 M2 M2 M2 M2 M2 M2 M2 M2 M2 M2 M2 M2 M2 M2 M2 M2 M2 M2 M2 M2 M2 M2 M2 M2 M2 M2 M2 M2 M2 M2 M2 M2 M2 M2 M2 M2 M2 M2 M2 M2 M2 M2 M2 M2 M2 M2 M2 M2 M2 M2 M2 M2 M2 M2 M2 M2 M2 M2 M2 2    5J 5J 5J 5J 5J 5J 5J 5J 5J 5J 5J 5J 5J 5J 5J 5J 5J 5J 5J 5J 5J 5J 5J 5J 5J 5J 5J 5J 5J 5J 5J 5J 5J 5J 5J 5J 5J 5J 5J 5J 5J 5J 5J 5J 5J 5J 5J 5J 5J 5J 5J 5J 5J 5J 5J 5J 5J 5J 5J 5J 5J 5J 5J 5J 5J 5J 5J 5J 5J 5J 5J 5J 5J 5J 5J 5J 5J 5J 5J 5J 5J 5J 5J 5J 5J 5J 5J 5J 5J 5J 5J 5J 5J 5J 5J 5J 5J 5J 5J 5J 5J 5J 5J 5J 5J 5J 5J 5J 5J 5J 5J 5J 5J 5J 5J 5J 5J 5J 5J 5J 5J 5J 5J 5J 5J 5J 5J 5J 5J 5J 5J 5J 5J 5J 5J 5J 5J 5J 5J 5J 5J 5J 5J 5J 5J 5J 5J 5J 5J 5J 5J 5J J J J J J2 J2 J2 J2 J2 J2 J2 J2 J2 J2 J2 J2 J2 J2 J2 J2 J2 J2 J2 J2 J2 J2 J2 J2 J2 J2 J2 J2 J2 J2 J2 J2 J2 J2 J2 J2 J2 J2 J2 J2 J2 J2 J2 J2 J2 J2 J2 J2 J2 J2 J2 J2 J2 J2 J2 J2 J2 J2 J2 J2 J2 J2 J2 J2 J2 J2 J2 J2 J2 J2 J2 J2 J2 J2 J2 J2 J2 J2 J2 J2 J2 J2 J2 J2 J2 J2 J2 J2 J2 J2 J2 J2 J2 J2 J2 J2 J2 J2 J2 J2 J2 J2 J2 J2 J2 J2 J2 J2 J2 J2 J2 J2 J2 J2 J2 J2 J2 J2 J2 J2 J2 J2 J2 J2 J2 J2 J2 J2 J2 J2 J2 J2 J2 J2 J2 J2 J2 J2 J2 J2 J2 J2 J2 J2 J2 J2 J2 J2 J2 J2 J2 2    8J 8J 8J 8J 8J 8J 8J 8J 8J 8J 8J 8J 8J 8J 8J 8J 8J 8J 8J 8J 8J 8J 8J 8J 8J 8J 8J 8J 8J 8J 8J 8J 8J 8J 8J 8J 8J 8J 8J 8J 8J 8J 8J 8J 8J 8J 8J 8J 8J 8J 8J 8J 8J 8J 8J 8J 8J 8J 8J 8J 8J 8J 8J 8J 8J 8J 8J 8J 8J 8J 8J 8J 8J 8J 8J 8J 8J 8J 8J 8J 8J 8J 8J 8J 8J 8J 8J 8J 8J 8J 8J 8J 8J 8J 8J 8J 8J 8J 8J 8J 8J 8J 8J 8J 8J 8J 8J 8J 8J 8J 8J 8J 8J 8J 8J 8J 8J 8J 8J 8J 8J 8J 8J 8J 8J 8J 8J 8J 8J 8J 8J 8J 8J 8J 8J 8J 8J 8J 8J 8J 8J 8J 8J 8J 8J 8J 8J 8J 8J 8J 8J 8J J J J J J2 J2 J2 J2 J2 J2 J2 J2 J2 J2 J2 J2 J2 J2 J2 J2 J2 J2 J2 J2 J2 J2 J2 J2 J2 J2 J2 J2 J2 J2 J2 J2 J2 J2 J2 J2 J2 J2 J2 J2 J2 J2 J2 J2 J2 J2 J2 J2 J2 J2 J2 J2 J2 J2 J2 J2 J2 J2 J2 J2 J2 J2 J2 J2 J2 J2 J2 J2 J2 J2 J2 J2 J2 J2 J2 J2 J2 J2 J2 J2 J2 J2 J2 J2 J2 J2 J2 J2 J2 J2 J2 J2 J2 J2 J2 J2 J2 J2 J2 J2 J2 J2 J2 J2 J2 J2 J2 J2 J2 J2 J2 J2 J2 J2 J2 J2 J2 J2 J2 J2 J2 J2 J2 J2 J2 J2 J2 J2 J2 J2 J2 J2 J2 J2 J2 J2 J2 J2 J2 J2 J2 J2 J2 J2 J2 J2 J2 J2 J2 J2 J2 2    I9 I9 I9 I9 I9 I9 I9 I9 I9 I9 I9 I9 I9 I9 I9 I9 I9 I9 I9 I9 I9 I9 I9 I9 I9 I9 I9 I9 I9 I9 I9 I9 I9 I9 I9 I9 I9 I9 I9 I9 I9 I9 I9 I9 I9 I9 I9 I9 I9 I9 I9 I9 I9 I9 I9 I9 I9 I9 I9 I9 I9 I9 I9 I9 I9 I9 I9 I9 I9 I9 I9 I9 I9 I9 I9 I9 I9 I9 I9 I9 I9 I9 I9 I9 I9 I9 I9 I9 I9 I9 I9 I9 I9 I9 I9 I9 I9 I9 I9 I9 I9 I9 I9 I9 I9 I9 I9 I9 I9 I9 I9 I9 I9 I9 I9 I9 I9 I9 I9 I9 I9 I9 I9 I9 I9 I9 I9 I9 I9 I9 I9 I9 I9 I9 I9 I9 I9 I9 I9 I9 I9 I9 I9 I9 I9 I9 I9 I9 I9 I9 I9 I9 9 9 9 9 9G 9G 9G 9G 9G 9G 9G 9G 9G 9G 9G 9G 9G 9G 9G 9G 9G 9G 9G 9G 9G 9G 9G 9G 9G 9G 9G 9G 9G 9G 9G 9G 9G 9G 9G 9G 9G 9G 9G 9G 9G 9G 9G 9G 9G 9G 9G 9G 9G 9G 9G 9G 9G 9G 9G 9G 9G 9G 9G 9G 9G 9G 9G 9G 9G 9G 9G 9G 9G 9G 9G 9G 9G 9G 9G 9G 9G 9G 9G 9G 9G 9G 9G 9G 9G 9G 9G 9G 9G 9G 9G 9G 9G 9G 9G 9G 9G 9G 9G 9G 9G 9G 9G 9G 9G 9G 9G 9G 9G 9G 9G 9G 9G 9G 9G 9G 9G 9G 9G 9G 9G 9G 9G 9G 9G 9G 9G 9G 9G 9G 9G 9G 9G 9G 9G 9G 9G 9G 9G 9G 9G 9G 9G 9G 9G 9G 9G 9G 9G 9G 9G G     IE IE IE IE IE IE IE IE IE IE IE IE IE IE IE IE IE IE IE IE IE IE IE IE IE IE IE IE IE IE IE IE IE IE IE IE IE IE IE IE IE IE IE IE IE IE IE IE IE IE IE IE IE IE IE IE IE IE IE IE IE IE IE IE IE IE IE IE IE IE IE IE IE IE IE IE IE IE IE IE IE IE IE IE IE IE IE IE IE IE IE IE IE IE IE IE IE IE IE IE IE IE IE IE IE IE IE IE IE IE IE IE IE IE IE IE IE IE IE IE IE IE IE IE IE IE IE IE IE IE IE IE IE IE IE IE IE IE IE IE IE IE IE IE IE IE IE IE IE IE IE IE E E E JE JE JE JE JE JE JE JE JE JE JE JE JE JE JE JE JE JE JE JE JE JE JE JE JE JE JE JE JE JE JE JE JE JE JE JE JE JE JE JE JE JE JE JE JE JE JE JE JE JE JE JE JE JE JE JE JE JE JE JE JE JE JE JE JE JE JE JE JE JE JE JE JE JE JE JE JE JE JE JE JE JE JE JE JE JE JE JE JE JE JE JE JE JE JE JE JE JE JE JE JE JE JE JE JE JE JE JE JE JE JE JE JE JE JE JE JE JE JE JE JE JE JE JE JE JE JE JE JE JE JE JE JE JE JE JE JE JE JE JE JE JE JE JE JE JE JE JE JE JE JE JE     GE GE GE GE GE GE GE GE GE GE GE GE GE GE GE GE GE GE GE GE GE GE GE GE GE GE GE GE GE GE GE GE GE GE GE GE GE GE GE GE GE GE GE GE GE GE GE GE GE GE GE GE GE GE GE GE GE GE GE GE GE GE GE GE GE GE GE GE GE GE GE GE GE GE GE GE GE GE GE GE GE GE GE GE GE GE GE GE GE GE GE GE GE GE GE GE GE GE GE GE GE GE GE GE GE GE GE GE GE GE GE GE GE GE GE GE GE GE GE GE GE GE GE GE GE GE GE GE GE GE GE GE GE GE GE GE GE GE GE GE GE GE GE GE GE GE GE GE GE GE GE GE E E E IE IE IE IE IE IE IE IE IE IE IE IE IE IE IE IE IE IE IE IE IE IE IE IE IE IE IE IE IE IE IE IE IE IE IE IE IE IE IE IE IE IE IE IE IE IE IE IE IE IE IE IE IE IE IE IE IE IE IE IE IE IE IE IE IE IE IE IE IE IE IE IE IE IE IE IE IE IE IE IE IE IE IE IE IE IE IE IE IE IE IE IE IE IE IE IE IE IE IE IE IE IE IE IE IE IE IE IE IE IE IE IE IE IE IE IE IE IE IE IE IE IE IE IE IE IE IE IE IE IE IE IE IE IE IE IE IE IE IE IE IE IE IE IE IE IE IE IE IE IE IE IE     JA JA JA JA JA JA JA JA JA JA JA JA JA JA JA JA JA JA JA JA JA JA JA JA JA JA JA JA JA JA JA JA JA JA JA JA JA JA JA JA JA JA JA JA JA JA JA JA JA JA JA JA JA JA JA JA JA JA JA JA JA JA JA JA JA JA JA JA JA JA JA JA JA JA JA JA JA JA JA JA JA JA JA JA JA JA JA JA JA JA JA JA JA JA JA JA JA JA JA JA JA JA JA JA JA JA JA JA JA JA JA JA JA JA JA JA JA JA JA JA JA JA JA JA JA JA JA JA JA JA JA JA JA JA JA JA JA JA JA JA JA JA JA JA JA JA JA JA JA JA JA JA A A A IA IA IA IA IA IA IA IA IA IA IA IA IA IA IA IA IA IA IA IA IA IA IA IA IA IA IA IA IA IA IA IA IA IA IA IA IA IA IA IA IA IA IA IA IA IA IA IA IA IA IA IA IA IA IA IA IA IA IA IA IA IA IA IA IA IA IA IA IA IA IA IA IA IA IA IA IA IA IA IA IA IA IA IA IA IA IA IA IA IA IA IA IA IA IA IA IA IA IA IA IA IA IA IA IA IA IA IA IA IA IA IA IA IA IA IA IA IA IA IA IA IA IA IA IA IA IA IA IA IA IA IA IA IA IA IA IA IA IA IA IA IA IA IA IA IA IA IA IA IA IA IA     JA> JA> JA> JA> JA> JA> JA> JA> JA> JA> JA> JA> JA> JA> JA> JA> JA> JA> JA> JA> JA> JA> JA> JA> JA> JA> JA> JA> JA> JA> JA> JA> JA> JA> JA> JA> JA> JA> JA> JA> JA> JA> JA> JA> JA> JA> JA> JA> JA> JA> JA> JA> JA> JA> JA> JA> JA> JA> JA> JA> JA> JA> JA> JA> JA> JA> JA> JA> JA> JA> JA> JA> JA> JA> JA> JA> JA> JA> JA> JA> JA> JA> JA> JA> JA> JA> JA> JA> JA> JA> JA> JA> JA> JA> JA> JA> JA> JA> JA> JA> JA> JA> JA> JA> JA> JA> JA> JA> JA> JA> JA> JA> JA> JA> JA> JA> JA> JA> JA> JA> JA> JA> JA> JA> JA> JA> JA> JA> JA> JA> JA> JA> JA> JA> JA> JA> JA> JA> JA> JA> JA> JA> JA> JA> JA> JA> JA> JA> JA> JA> JA> JA> A> A> A> LA> LA> LA> LA> LA> LA> LA> LA> LA> LA> LA> LA> LA> LA> LA> LA> LA> LA> LA> LA> LA> LA> LA> LA> LA> LA> LA> LA> LA> LA> LA> LA> LA> LA> LA> LA> LA> LA> LA> LA> LA> LA> LA> LA> LA> LA> LA> LA> LA> LA> LA> LA> LA> LA> LA> LA> LA> LA> LA> LA> LA> LA> LA> LA> LA> LA> LA> LA> LA> LA> LA> LA> LA> LA> LA> LA> LA> LA> LA> LA> LA> LA> LA> LA> LA> LA> LA> LA> LA> LA> LA> LA> LA> LA> LA> LA> LA> LA> LA> LA> LA> LA> LA> LA> LA> LA> LA> LA> LA> LA> LA> LA> LA> LA> LA> LA> LA> LA> LA> LA> LA> LA> LA> LA> LA> LA> LA> LA> LA> LA> LA> LA> LA> LA> LA> LA> LA> LA> LA> LA> LA> LA> LA> LA> LA> LA> LA> LA> LA> LA> LA> LA>     IA> IA> IA> IA> IA> IA> IA> IA> IA> IA> IA> IA> IA> IA> IA> IA> IA> IA> IA> IA> IA> IA> IA> IA> IA> IA> IA> IA> IA> IA> IA> IA> IA> IA> IA> IA> IA> IA> IA> IA> IA> IA> IA> IA> IA> IA> IA> IA> IA> IA> IA> IA> IA> IA> IA> IA> IA> IA> IA> IA> IA> IA> IA> IA> IA> IA> IA> IA> IA> IA> IA> IA> IA> IA> IA> IA> IA> IA> IA> IA> IA> IA> IA> IA> IA> IA> IA> IA> IA> IA> IA> IA> IA> IA> IA> IA> IA> IA> IA> IA> IA> IA> IA> IA> IA> IA> IA> IA> IA> IA> IA> IA> IA> IA> IA> IA> IA> IA> IA> IA> IA> IA> IA> IA> IA> IA> IA> IA> IA> IA> IA> IA> IA> IA> IA> IA> IA> IA> IA> IA> IA> IA> IA> IA> IA> IA> IA> IA> IA> IA> IA> IA> A> A> A> JA> JA> JA> JA> JA> JA> JA> JA> JA> JA> JA> JA> JA> JA> JA> JA> JA> JA> JA> JA> JA> JA> JA> JA> JA> JA> JA> JA> JA> JA> JA> JA> JA> JA> JA> JA> JA> JA> JA> JA> JA> JA> JA> JA> JA> JA> JA> JA> JA> JA> JA> JA> JA> JA> JA> JA> JA> JA> JA> JA> JA> JA> JA> JA> JA> JA> JA> JA> JA> JA> JA> JA> JA> JA> JA> JA> JA> JA> JA> JA> JA> JA> JA> JA> JA> JA> JA> JA> JA> JA> JA> JA> JA> JA> JA> JA> JA> JA> JA> JA> JA> JA> JA> JA> JA> JA> JA> JA> JA> JA> JA> JA> JA> JA> JA> JA> JA> JA> JA> JA> JA> JA> JA> JA> JA> JA> JA> JA> JA> JA> JA> JA> JA> JA> JA> JA> JA> JA> JA> JA> JA> JA> JA> JA> JA> JA> JA> JA> JA> JA> JA> JA>     =L@ =L@ =L@ =L@ =L@ =L@ =L@ =L@ =L@ =L@ =L@ =L@ =L@ =L@ =L@ =L@ =L@ =L@ =L@ =L@ =L@ =L@ =L@ =L@ =L@ =L@ =L@ =L@ =L@ =L@ =L@ =L@ =L@ =L@ =L@ =L@ =L@ =L@ =L@ =L@ =L@ =L@ =L@ =L@ =L@ =L@ =L@ =L@ =L@ =L@ =L@ =L@ =L@ =L@ =L@ =L@ =L@ =L@ =L@ =L@ =L@ =L@ =L@ =L@ =L@ =L@ =L@ =L@ =L@ =L@ =L@ =L@ =L@ =L@ =L@ =L@ =L@ =L@ =L@ =L@ =L@ =L@ =L@ =L@ =L@ =L@ =L@ =L@ =L@ =L@ =L@ =L@ =L@ =L@ =L@ =L@ =L@ =L@ =L@ =L@ =L@ =L@ =L@ =L@ =L@ =L@ =L@ =L@ =L@ =L@ =L@ =L@ =L@ =L@ =L@ =L@ =L@ =L@ =L@ =L@ =L@ =L@ =L@ =L@ =L@ =L@ =L@ =L@ =L@ =L@ =L@ =L@ =L@ =L@ =L@ =L@ =L@ =L@ =L@ =L@ =L@ =L@ =L@ =L@ =L@ =L@ =L@ =L@ =L@ =L@ =L@ =L@ L@ L@ L@ ;L@ ;L@ ;L@ ;L@ ;L@ ;L@ ;L@ ;L@ ;L@ ;L@ ;L@ ;L@ ;L@ ;L@ ;L@ ;L@ ;L@ ;L@ ;L@ ;L@ ;L@ ;L@ ;L@ ;L@ ;L@ ;L@ ;L@ ;L@ ;L@ ;L@ ;L@ ;L@ ;L@ ;L@ ;L@ ;L@ ;L@ ;L@ ;L@ ;L@ ;L@ ;L@ ;L@ ;L@ ;L@ ;L@ ;L@ ;L@ ;L@ ;L@ ;L@ ;L@ ;L@ ;L@ ;L@ ;L@ ;L@ ;L@ ;L@ ;L@ ;L@ ;L@ ;L@ ;L@ ;L@ ;L@ ;L@ ;L@ ;L@ ;L@ ;L@ ;L@ ;L@ ;L@ ;L@ ;L@ ;L@ ;L@ ;L@ ;L@ ;L@ ;L@ ;L@ ;L@ ;L@ ;L@ ;L@ ;L@ ;L@ ;L@ ;L@ ;L@ ;L@ ;L@ ;L@ ;L@ ;L@ ;L@ ;L@ ;L@ ;L@ ;L@ ;L@ ;L@ ;L@ ;L@ ;L@ ;L@ ;L@ ;L@ ;L@ ;L@ ;L@ ;L@ ;L@ ;L@ ;L@ ;L@ ;L@ ;L@ ;L@ ;L@ ;L@ ;L@ ;L@ ;L@ ;L@ ;L@ ;L@ ;L@ ;L@ ;L@ ;L@ ;L@ ;L@ ;L@ ;L@ ;L@ ;L@ ;L@ ;L@ ;L@ ;L@ ;L@ ;L@ ;L@ ;L@ ;L@ ;L@ ;L@ ;L@ ;L@     =E9 =E9 =E9 =E9 =E9 =E9 =E9 =E9 =E9 =E9 =E9 =E9 =E9 =E9 =E9 =E9 =E9 =E9 =E9 =E9 =E9 =E9 =E9 =E9 =E9 =E9 =E9 =E9 =E9 =E9 =E9 =E9 =E9 =E9 =E9 =E9 =E9 =E9 =E9 =E9 =E9 =E9 =E9 =E9 =E9 =E9 =E9 =E9 =E9 =E9 =E9 =E9 =E9 =E9 =E9 =E9 =E9 =E9 =E9 =E9 =E9 =E9 =E9 =E9 =E9 =E9 =E9 =E9 =E9 =E9 =E9 =E9 =E9 =E9 =E9 =E9 =E9 =E9 =E9 =E9 =E9 =E9 =E9 =E9 =E9 =E9 =E9 =E9 =E9 =E9 =E9 =E9 =E9 =E9 =E9 =E9 =E9 =E9 =E9 =E9 =E9 =E9 =E9 =E9 =E9 =E9 =E9 =E9 =E9 =E9 =E9 =E9 =E9 =E9 =E9 =E9 =E9 =E9 =E9 =E9 =E9 =E9 =E9 =E9 =E9 =E9 =E9 =E9 =E9 =E9 =E9 =E9 =E9 =E9 =E9 =E9 =E9 =E9 =E9 =E9 =E9 =E9 =E9 =E9 =E9 =E9 =E9 =E9 =E9 =E9 =E9 =E9 E9 E9 E9 >E9 >E9 >E9 >E9 >E9 >E9 >E9 >E9 >E9 >E9 >E9 >E9 >E9 >E9 >E9 >E9 >E9 >E9 >E9 >E9 >E9 >E9 >E9 >E9 >E9 >E9 >E9 >E9 >E9 >E9 >E9 >E9 >E9 >E9 >E9 >E9 >E9 >E9 >E9 >E9 >E9 >E9 >E9 >E9 >E9 >E9 >E9 >E9 >E9 >E9 >E9 >E9 >E9 >E9 >E9 >E9 >E9 >E9 >E9 >E9 >E9 >E9 >E9 >E9 >E9 >E9 >E9 >E9 >E9 >E9 >E9 >E9 >E9 >E9 >E9 >E9 >E9 >E9 >E9 >E9 >E9 >E9 >E9 >E9 >E9 >E9 >E9 >E9 >E9 >E9 >E9 >E9 >E9 >E9 >E9 >E9 >E9 >E9 >E9 >E9 >E9 >E9 >E9 >E9 >E9 >E9 >E9 >E9 >E9 >E9 >E9 >E9 >E9 >E9 >E9 >E9 >E9 >E9 >E9 >E9 >E9 >E9 >E9 >E9 >E9 >E9 >E9 >E9 >E9 >E9 >E9 >E9 >E9 >E9 >E9 >E9 >E9 >E9 >E9 >E9 >E9 >E9 >E9 >E9 >E9 >E9 >E9 >E9 >E9 >E9 >E9 >E9     ;9 ;9 ;9 ;9 ;9 ;9 ;9 ;9 ;9 ;9 ;9 ;9 ;9 ;9 ;9 ;9 ;9 ;9 ;9 ;9 ;9 ;9 ;9 ;9 ;9 ;9 ;9 ;9 ;9 ;9 ;9 ;9 ;9 ;9 ;9 ;9 ;9 ;9 ;9 ;9 ;9 ;9 ;9 ;9 ;9 ;9 ;9 ;9 ;9 ;9 ;9 ;9 ;9 ;9 ;9 ;9 ;9 ;9 ;9 ;9 ;9 ;9 ;9 ;9 ;9 ;9 ;9 ;9 ;9 ;9 ;9 ;9 ;9 ;9 ;9 ;9 ;9 ;9 ;9 ;9 ;9 ;9 ;9 ;9 ;9 ;9 ;9 ;9 ;9 ;9 ;9 ;9 ;9 ;9 ;9 ;9 ;9 ;9 ;9 ;9 ;9 ;9 ;9 ;9 ;9 ;9 ;9 ;9 ;9 ;9 ;9 ;9 ;9 ;9 ;9 ;9 ;9 ;9 ;9 ;9 ;9 ;9 ;9 ;9 ;9 ;9 ;9 ;9 ;9 ;9 ;9 ;9 ;9 ;9 ;9 ;9 ;9 ;9 ;9 ;9 ;9 ;9 ;9 ;9 ;9 ;9 ;9 ;9 ;9 ;9 ;9 ;9 9 9 9 =9 =9 =9 =9 =9 =9 =9 =9 =9 =9 =9 =9 =9 =9 =9 =9 =9 =9 =9 =9 =9 =9 =9 =9 =9 =9 =9 =9 =9 =9 =9 =9 =9 =9 =9 =9 =9 =9 =9 =9 =9 =9 =9 =9 =9 =9 =9 =9 =9 =9 =9 =9 =9 =9 =9 =9 =9 =9 =9 =9 =9 =9 =9 =9 =9 =9 =9 =9 =9 =9 =9 =9 =9 =9 =9 =9 =9 =9 =9 =9 =9 =9 =9 =9 =9 =9 =9 =9 =9 =9 =9 =9 =9 =9 =9 =9 =9 =9 =9 =9 =9 =9 =9 =9 =9 =9 =9 =9 =9 =9 =9 =9 =9 =9 =9 =9 =9 =9 =9 =9 =9 =9 =9 =9 =9 =9 =9 =9 =9 =9 =9 =9 =9 =9 =9 =9 =9 =9 =9 =9 =9 =9 =9 =9 =9 =9 =9 =9 =9 =9 =9 =9     >95 >95 >95 >95 >95 >95 >95 >95 >95 >95 >95 >95 >95 >95 >95 >95 >95 >95 >95 >95 >95 >95 >95 >95 >95 >95 >95 >95 >95 >95 >95 >95 >95 >95 >95 >95 >95 >95 >95 >95 >95 >95 >95 >95 >95 >95 >95 >95 >95 >95 >95 >95 >95 >95 >95 >95 >95 >95 >95 >95 >95 >95 >95 >95 >95 >95 >95 >95 >95 >95 >95 >95 >95 >95 >95 >95 >95 >95 >95 >95 >95 >95 >95 >95 >95 >95 >95 >95 >95 >95 >95 >95 >95 >95 >95 >95 >95 >95 >95 >95 >95 >95 >95 >95 >95 >95 >95 >95 >95 >95 >95 >95 >95 >95 >95 >95 >95 >95 >95 >95 >95 >95 >95 >95 >95 >95 >95 >95 >95 >95 >95 >95 >95 >95 >95 >95 >95 >95 >95 >95 >95 >95 >95 >95 >95 >95 >95 >95 >95 >95 >95 >95 95 95 95 =95 =95 =95 =95 =95 =95 =95 =95 =95 =95 =95 =95 =95 =95 =95 =95 =95 =95 =95 =95 =95 =95 =95 =95 =95 =95 =95 =95 =95 =95 =95 =95 =95 =95 =95 =95 =95 =95 =95 =95 =95 =95 =95 =95 =95 =95 =95 =95 =95 =95 =95 =95 =95 =95 =95 =95 =95 =95 =95 =95 =95 =95 =95 =95 =95 =95 =95 =95 =95 =95 =95 =95 =95 =95 =95 =95 =95 =95 =95 =95 =95 =95 =95 =95 =95 =95 =95 =95 =95 =95 =95 =95 =95 =95 =95 =95 =95 =95 =95 =95 =95 =95 =95 =95 =95 =95 =95 =95 =95 =95 =95 =95 =95 =95 =95 =95 =95 =95 =95 =95 =95 =95 =95 =95 =95 =95 =95 =95 =95 =95 =95 =95 =95 =95 =95 =95 =95 =95 =95 =95 =95 =95 =95 =95 =95 =95 =95 =95 =95 =95 =95 =95     >952 >952 >952 >952 >952 >952 >952 >952 >952 >952 >952 >952 >952 >952 >952 >952 >952 >952 >952 >952 >952 >952 >952 >952 >952 >952 >952 >952 >952 >952 >952 >952 >952 >952 >952 >952 >952 >952 >952 >952 >952 >952 >952 >952 >952 >952 >952 >952 >952 >952 >952 >952 >952 >952 >952 >952 >952 >952 >952 >952 >952 >952 >952 >952 >952 >952 >952 >952 >952 >952 >952 >952 >952 >952 >952 >952 >952 >952 >952 >952 >952 >952 >952 >952 >952 >952 >952 >952 >952 >952 >952 >952 >952 >952 >952 >952 >952 >952 >952 >952 >952 >952 >952 >952 >952 >952 >952 >952 >952 >952 >952 >952 >952 >952 >952 >952 >952 >952 >952 >952 >952 >952 >952 >952 >952 >952 >952 >952 >952 >952 >952 >952 >952 >952 >952 >952 >952 >952 >952 >952 >952 >952 >952 >952 >952 >952 >952 >952 >952 >952 >952 >952 952 952 952 @952 @952 @952 @952 @952 @952 @952 @952 @952 @952 @952 @952 @952 @952 @952 @952 @952 @952 @952 @952 @952 @952 @952 @952 @952 @952 @952 @952 @952 @952 @952 @952 @952 @952 @952 @952 @952 @952 @952 @952 @952 @952 @952 @952 @952 @952 @952 @952 @952 @952 @952 @952 @952 @952 @952 @952 @952 @952 @952 @952 @952 @952 @952 @952 @952 @952 @952 @952 @952 @952 @952 @952 @952 @952 @952 @952 @952 @952 @952 @952 @952 @952 @952 @952 @952 @952 @952 @952 @952 @952 @952 @952 @952 @952 @952 @952 @952 @952 @952 @952 @952 @952 @952 @952 @952 @952 @952 @952 @952 @952 @952 @952 @952 @952 @952 @952 @952 @952 @952 @952 @952 @952 @952 @952 @952 @952 @952 @952 @952 @952 @952 @952 @952 @952 @952 @952 @952 @952 @952 @952 @952 @952 @952 @952 @952 @952 @952 @952 @952 @952 @952 @952     A925 A925 A925 A925 A925 A925 A925 A925 A925 A925 A925 A925 A925 A925 A925 A925 A925 A925 A925 A925 A925 A925 A925 A925 A925 A925 A925 A925 A925 A925 A925 A925 A925 A925 A925 A925 A925 A925 A925 A925 A925 A925 A925 A925 A925 A925 A925 A925 A925 A925 A925 A925 A925 A925 A925 A925 A925 A925 A925 A925 A925 A925 A925 A925 A925 A925 A925 A925 A925 A925 A925 A925 A925 A925 A925 A925 A925 A925 A925 A925 A925 A925 A925 A925 A925 A925 A925 A925 A925 A925 A925 A925 A925 A925 A925 A925 A925 A925 A925 A925 A925 A925 A925 A925 A925 A925 A925 A925 A925 A925 A925 A925 A925 A925 A925 A925 A925 A925 A925 A925 A925 A925 A925 A925 A925 A925 A925 A925 A925 A925 A925 A925 A925 A925 A925 A925 A925 A925 A925 A925 A925 A925 A925 A925 A925 A925 A925 A925 A925 A925 A925 A925 925 925 925 C925 C925 C925 C925 C925 C925 C925 C925 C925 C925 C925 C925 C925 C925 C925 C925 C925 C925 C925 C925 C925 C925 C925 C925 C925 C925 C925 C925 C925 C925 C925 C925 C925 C925 C925 C925 C925 C925 C925 C925 C925 C925 C925 C925 C925 C925 C925 C925 C925 C925 C925 C925 C925 C925 C925 C925 C925 C925 C925 C925 C925 C925 C925 C925 C925 C925 C925 C925 C925 C925 C925 C925 C925 C925 C925 C925 C925 C925 C925 C925 C925 C925 C925 C925 C925 C925 C925 C925 C925 C925 C925 C925 C925 C925 C925 C925 C925 C925 C925 C925 C925 C925 C925 C925 C925 C925 C925 C925 C925 C925 C925 C925 C925 C925 C925 C925 C925 C925 C925 C925 C925 C925 C925 C925 C925 C925 C925 C925 C925 C925 C925 C925 C925 C925 C925 C925 C925 C925 C925 C925 C925 C925 C925 C925 C925 C925 C925 C925 C925 C925 C925 C925     E941 E941 E941 E941 E941 E941 E941 E941 E941 E941 E941 E941 E941 E941 E941 E941 E941 E941 E941 E941 E941 E941 E941 E941 E941 E941 E941 E941 E941 E941 E941 E941 E941 E941 E941 E941 E941 E941 E941 E941 E941 E941 E941 E941 E941 E941 E941 E941 E941 E941 E941 E941 E941 E941 E941 E941 E941 E941 E941 E941 E941 E941 E941 E941 E941 E941 E941 E941 E941 E941 E941 E941 E941 E941 E941 E941 E941 E941 E941 E941 E941 E941 E941 E941 E941 E941 E941 E941 E941 E941 E941 E941 E941 E941 E941 E941 E941 E941 E941 E941 E941 E941 E941 E941 E941 E941 E941 E941 E941 E941 E941 E941 E941 E941 E941 E941 E941 E941 E941 E941 E941 E941 E941 E941 E941 E941 E941 E941 E941 E941 E941 E941 E941 E941 E941 E941 E941 E941 E941 E941 E941 E941 E941 E941 E941 E941 E941 E941 E941 E941 E941 E941 941 941 941 C941 C941 C941 C941 C941 C941 C941 C941 C941 C941 C941 C941 C941 C941 C941 C941 C941 C941 C941 C941 C941 C941 C941 C941 C941 C941 C941 C941 C941 C941 C941 C941 C941 C941 C941 C941 C941 C941 C941 C941 C941 C941 C941 C941 C941 C941 C941 C941 C941 C941 C941 C941 C941 C941 C941 C941 C941 C941 C941 C941 C941 C941 C941 C941 C941 C941 C941 C941 C941 C941 C941 C941 C941 C941 C941 C941 C941 C941 C941 C941 C941 C941 C941 C941 C941 C941 C941 C941 C941 C941 C941 C941 C941 C941 C941 C941 C941 C941 C941 C941 C941 C941 C941 C941 C941 C941 C941 C941 C941 C941 C941 C941 C941 C941 C941 C941 C941 C941 C941 C941 C941 C941 C941 C941 C941 C941 C941 C941 C941 C941 C941 C941 C941 C941 C941 C941 C941 C941 C941 C941 C941 C941 C941 C941 C941 C941 C941 C941 C941 C941 C941 C941     E41- E41- E41- E41- E41- E41- E41- E41- E41- E41- E41- E41- E41- E41- E41- E41- E41- E41- E41- E41- E41- E41- E41- E41- E41- E41- E41- E41- E41- E41- E41- E41- E41- E41- E41- E41- E41- E41- E41- E41- E41- E41- E41- E41- E41- E41- E41- E41- E41- E41- E41- E41- E41- E41- E41- E41- E41- E41- E41- E41- E41- E41- E41- E41- E41- E41- E41- E41- E41- E41- E41- E41- E41- E41- E41- E41- E41- E41- E41- E41- E41- E41- E41- E41- E41- E41- E41- E41- E41- E41- E41- E41- E41- E41- E41- E41- E41- E41- E41- E41- E41- E41- E41- E41- E41- E41- E41- E41- E41- E41- E41- E41- E41- E41- E41- E41- E41- E41- E41- E41- E41- E41- E41- E41- E41- E41- E41- E41- E41- E41- E41- E41- E41- E41- E41- E41- E41- E41- E41- E41- E41- E41- E41- E41- E41- E41- E41- E41- E41- E41- E41- E41- 41- 41- 41- 41- 41-G 41-G 41-G 41-G 41-G 41-G 41-G 41-G 41-G 41-G 41-G 41-G 41-G 41-G 41-G 41-G 41-G 41-G 41-G 41-G 41-G 41-G 41-G 41-G 41-G 41-G 41-G 41-G 41-G 41-G 41-G 41-G 41-G 41-G 41-G 41-G 41-G 41-G 41-G 41-G 41-G 41-G 41-G 41-G 41-G 41-G 41-G 41-G 41-G 41-G 41-G 41-G 41-G 41-G 41-G 41-G 41-G 41-G 41-G 41-G 41-G 41-G 41-G 41-G 41-G 41-G 41-G 41-G 41-G 41-G 41-G 41-G 41-G 41-G 41-G 41-G 41-G 41-G 41-G 41-G 41-G 41-G 41-G 41-G 41-G 41-G 41-G 41-G 41-G 41-G 41-G 41-G 41-G 41-G 41-G 41-G 41-G 41-G 41-G 41-G 41-G 41-G 41-G 41-G 41-G 41-G 41-G 41-G 41-G 41-G 41-G 41-G 41-G 41-G 41-G 41-G 41-G 41-G 41-G 41-G 41-G 41-G 41-G 41-G 41-G 41-G 41-G 41-G 41-G 41-G 41-G 41-G 41-G 41-G 41-G 41-G 41-G 41-G 41-G 41-G 41-G 41-G 41-G 41-G 41-G 41-G 41-G 41-G 41-G 41-G 41-G G    I4-1 I4-1 I4-1 I4-1 I4-1 I4-1 I4-1 I4-1 I4-1 I4-1 I4-1 I4-1 I4-1 I4-1 I4-1 I4-1 I4-1 I4-1 I4-1 I4-1 I4-1 I4-1 I4-1 I4-1 I4-1 I4-1 I4-1 I4-1 I4-1 I4-1 I4-1 I4-1 I4-1 I4-1 I4-1 I4-1 I4-1 I4-1 I4-1 I4-1 I4-1 I4-1 I4-1 I4-1 I4-1 I4-1 I4-1 I4-1 I4-1 I4-1 I4-1 I4-1 I4-1 I4-1 I4-1 I4-1 I4-1 I4-1 I4-1 I4-1 I4-1 I4-1 I4-1 I4-1 I4-1 I4-1 I4-1 I4-1 I4-1 I4-1 I4-1 I4-1 I4-1 I4-1 I4-1 I4-1 I4-1 I4-1 I4-1 I4-1 I4-1 I4-1 I4-1 I4-1 I4-1 I4-1 I4-1 I4-1 I4-1 I4-1 I4-1 I4-1 I4-1 I4-1 I4-1 I4-1 I4-1 I4-1 I4-1 I4-1 I4-1 I4-1 I4-1 I4-1 I4-1 I4-1 I4-1 I4-1 I4-1 I4-1 I4-1 I4-1 I4-1 I4-1 I4-1 I4-1 I4-1 I4-1 I4-1 I4-1 I4-1 I4-1 I4-1 I4-1 I4-1 I4-1 I4-1 I4-1 I4-1 I4-1 I4-1 I4-1 I4-1 I4-1 I4-1 I4-1 I4-1 I4-1 I4-1 I4-1 I4-1 I4-1 I4-1 I4-1 I4-1 I4-1 I4-1 I4-1 I4-1 I4-1 I4-1 I4-1 4-1 4-1 4-1 4-1 4-1E 4-1E 4-1E 4-1E 4-1E 4-1E 4-1E 4-1E 4-1E 4-1E 4-1E 4-1E 4-1E 4-1E 4-1E 4-1E 4-1E 4-1E 4-1E 4-1E 4-1E 4-1E 4-1E 4-1E 4-1E 4-1E 4-1E 4-1E 4-1E 4-1E 4-1E 4-1E 4-1E 4-1E 4-1E 4-1E 4-1E 4-1E 4-1E 4-1E 4-1E 4-1E 4-1E 4-1E 4-1E 4-1E 4-1E 4-1E 4-1E 4-1E 4-1E 4-1E 4-1E 4-1E 4-1E 4-1E 4-1E 4-1E 4-1E 4-1E 4-1E 4-1E 4-1E 4-1E 4-1E 4-1E 4-1E 4-1E 4-1E 4-1E 4-1E 4-1E 4-1E 4-1E 4-1E 4-1E 4-1E 4-1E 4-1E 4-1E 4-1E 4-1E 4-1E 4-1E 4-1E 4-1E 4-1E 4-1E 4-1E 4-1E 4-1E 4-1E 4-1E 4-1E 4-1E 4-1E 4-1E 4-1E 4-1E 4-1E 4-1E 4-1E 4-1E 4-1E 4-1E 4-1E 4-1E 4-1E 4-1E 4-1E 4-1E 4-1E 4-1E 4-1E 4-1E 4-1E 4-1E 4-1E 4-1E 4-1E 4-1E 4-1E 4-1E 4-1E 4-1E 4-1E 4-1E 4-1E 4-1E 4-1E 4-1E 4-1E 4-1E 4-1E 4-1E 4-1E 4-1E 4-1E 4-1E 4-1E 4-1E 4-1E 4-1E 4-1E 4-1E 4-1E 4-1E 4-1E 4-1E 4-1E 4-1E E    J2-) J2-) J2-) J2-) J2-) J2-) J2-) J2-) J2-) J2-) J2-) J2-) J2-) J2-) J2-) J2-) J2-) J2-) J2-) J2-) J2-) J2-) J2-) J2-) J2-) J2-) J2-) J2-) J2-) J2-) J2-) J2-) J2-) J2-) J2-) J2-) J2-) J2-) J2-) J2-) J2-) J2-) J2-) J2-) J2-) J2-) J2-) J2-) J2-) J2-) J2-) J2-) J2-) J2-) J2-) J2-) J2-) J2-) J2-) J2-) J2-) J2-) J2-) J2-) J2-) J2-) J2-) J2-) J2-) J2-) J2-) J2-) J2-) J2-) J2-) J2-) J2-) J2-) J2-) J2-) J2-) J2-) J2-) J2-) J2-) J2-) J2-) J2-) J2-) J2-) J2-) J2-) J2-) J2-) J2-) J2-) J2-) J2-) J2-) J2-) J2-) J2-) J2-) J2-) J2-) J2-) J2-) J2-) J2-) J2-) J2-) J2-) J2-) J2-) J2-) J2-) J2-) J2-) J2-) J2-) J2-) J2-) J2-) J2-) J2-) J2-) J2-) J2-) J2-) J2-) J2-) J2-) J2-) J2-) J2-) J2-) J2-) J2-) J2-) J2-) J2-) J2-) J2-) J2-) J2-) J2-) J2-) J2-) J2-) J2-) J2-) J2-) 2-) 2-) 2-) 2-) 2-)I 2-)I 2-)I 2-)I 2-)I 2-)I 2-)I 2-)I 2-)I 2-)I 2-)I 2-)I 2-)I 2-)I 2-)I 2-)I 2-)I 2-)I 2-)I 2-)I 2-)I 2-)I 2-)I 2-)I 2-)I 2-)I 2-)I 2-)I 2-)I 2-)I 2-)I 2-)I 2-)I 2-)I 2-)I 2-)I 2-)I 2-)I 2-)I 2-)I 2-)I 2-)I 2-)I 2-)I 2-)I 2-)I 2-)I 2-)I 2-)I 2-)I 2-)I 2-)I 2-)I 2-)I 2-)I 2-)I 2-)I 2-)I 2-)I 2-)I 2-)I 2-)I 2-)I 2-)I 2-)I 2-)I 2-)I 2-)I 2-)I 2-)I 2-)I 2-)I 2-)I 2-)I 2-)I 2-)I 2-)I 2-)I 2-)I 2-)I 2-)I 2-)I 2-)I 2-)I 2-)I 2-)I 2-)I 2-)I 2-)I 2-)I 2-)I 2-)I 2-)I 2-)I 2-)I 2-)I 2-)I 2-)I 2-)I 2-)I 2-)I 2-)I 2-)I 2-)I 2-)I 2-)I 2-)I 2-)I 2-)I 2-)I 2-)I 2-)I 2-)I 2-)I 2-)I 2-)I 2-)I 2-)I 2-)I 2-)I 2-)I 2-)I 2-)I 2-)I 2-)I 2-)I 2-)I 2-)I 2-)I 2-)I 2-)I 2-)I 2-)I 2-)I 2-)I 2-)I 2-)I 2-)I 2-)I 2-)I 2-)I 2-)I 2-)I 2-)I 2-)I 2-)I 2-)I 2-)I 2-)I 2-)I 2-)I I    J-2&) J-2&) J-2&) J-2&) J-2&) J-2&) J-2&) J-2&) J-2&) J-2&) J-2&) J-2&) J-2&) J-2&) J-2&) J-2&) J-2&) J-2&) J-2&) J-2&) J-2&) J-2&) J-2&) J-2&) J-2&) J-2&) J-2&) J-2&) J-2&) J-2&) J-2&) J-2&) J-2&) J-2&) J-2&) J-2&) J-2&) J-2&) J-2&) J-2&) J-2&) J-2&) J-2&) J-2&) J-2&) J-2&) J-2&) J-2&) J-2&) J-2&) J-2&) J-2&) J-2&) J-2&) J-2&) J-2&) J-2&) J-2&) J-2&) J-2&) J-2&) J-2&) J-2&) J-2&) J-2&) J-2&) J-2&) J-2&) J-2&) J-2&) J-2&) J-2&) J-2&) J-2&) J-2&) J-2&) J-2&) J-2&) J-2&) J-2&) J-2&) J-2&) J-2&) J-2&) J-2&) J-2&) J-2&) J-2&) J-2&) J-2&) J-2&) J-2&) J-2&) J-2&) J-2&) J-2&) J-2&) J-2&) J-2&) J-2&) J-2&) J-2&) J-2&) J-2&) J-2&) J-2&) J-2&) J-2&) J-2&) J-2&) J-2&) J-2&) J-2&) J-2&) J-2&) J-2&) J-2&) J-2&) J-2&) J-2&) J-2&) J-2&) J-2&) J-2&) J-2&) J-2&) J-2&) J-2&) J-2&) J-2&) J-2&) J-2&) J-2&) J-2&) J-2&) J-2&) J-2&) J-2&) J-2&) J-2&) J-2&) J-2&) J-2&) J-2&) J-2&) J-2&) J-2&) J-2&) J-2&) J-2&) J-2&) J-2&) -2&) -2&) -2&) -2&) -2&)L -2&)L -2&)L -2&)L -2&)L -2&)L -2&)L -2&)L -2&)L -2&)L -2&)L -2&)L -2&)L -2&)L -2&)L -2&)L -2&)L -2&)L -2&)L -2&)L -2&)L -2&)L -2&)L -2&)L -2&)L -2&)L -2&)L -2&)L -2&)L -2&)L -2&)L -2&)L -2&)L -2&)L -2&)L -2&)L -2&)L -2&)L -2&)L -2&)L -2&)L -2&)L -2&)L -2&)L -2&)L -2&)L -2&)L -2&)L -2&)L -2&)L -2&)L -2&)L -2&)L -2&)L -2&)L -2&)L -2&)L -2&)L -2&)L -2&)L -2&)L -2&)L -2&)L -2&)L -2&)L -2&)L -2&)L -2&)L -2&)L -2&)L -2&)L -2&)L -2&)L -2&)L -2&)L -2&)L -2&)L -2&)L -2&)L -2&)L -2&)L -2&)L -2&)L -2&)L -2&)L -2&)L -2&)L -2&)L -2&)L -2&)L -2&)L -2&)L -2&)L -2&)L -2&)L -2&)L -2&)L -2&)L -2&)L -2&)L -2&)L -2&)L -2&)L -2&)L -2&)L -2&)L -2&)L -2&)L -2&)L -2&)L -2&)L -2&)L -2&)L -2&)L -2&)L -2&)L -2&)L -2&)L -2&)L -2&)L -2&)L -2&)L -2&)L -2&)L -2&)L -2&)L -2&)L -2&)L -2&)L -2&)L -2&)L -2&)L -2&)L -2&)L -2&)L -2&)L -2&)L -2&)L -2&)L -2&)L -2&)L -2&)L -2&)L -2&)L -2&)L -2&)L -2&)L -2&)L -2&)L -2&)L -2&)L L    M&-) M&-) M&-) M&-) M&-) M&-) M&-) M&-) M&-) M&-) M&-) M&-) M&-) M&-) M&-) M&-) M&-) M&-) M&-) M&-) M&-) M&-) M&-) M&-) M&-) M&-) M&-) M&-) M&-) M&-) M&-) M&-) M&-) M&-) M&-) M&-) M&-) M&-) M&-) M&-) M&-) M&-) M&-) M&-) M&-) M&-) M&-) M&-) M&-) M&-) M&-) M&-) M&-) M&-) M&-) M&-) M&-) M&-) M&-) M&-) M&-) M&-) M&-) M&-) M&-) M&-) M&-) M&-) M&-) M&-) M&-) M&-) M&-) M&-) M&-) M&-) M&-) M&-) M&-) M&-) M&-) M&-) M&-) M&-) M&-) M&-) M&-) M&-) M&-) M&-) M&-) M&-) M&-) M&-) M&-) M&-) M&-) M&-) M&-) M&-) M&-) M&-) M&-) M&-) M&-) M&-) M&-) M&-) M&-) M&-) M&-) M&-) M&-) M&-) M&-) M&-) M&-) M&-) M&-) M&-) M&-) M&-) M&-) M&-) M&-) M&-) M&-) M&-) M&-) M&-) M&-) M&-) M&-) M&-) M&-) M&-) M&-) M&-) M&-) M&-) M&-) M&-) M&-) M&-) M&-) M&-) M&-) M&-) M&-) M&-) M&-) M&-) &-) &-) &-) &-) &-)O &-)O &-)O &-)O &-)O &-)O &-)O &-)O &-)O &-)O &-)O &-)O &-)O &-)O &-)O &-)O &-)O &-)O &-)O &-)O &-)O &-)O &-)O &-)O &-)O &-)O &-)O &-)O &-)O &-)O &-)O &-)O &-)O &-)O &-)O &-)O &-)O &-)O &-)O &-)O &-)O &-)O &-)O &-)O &-)O &-)O &-)O &-)O &-)O &-)O &-)O &-)O &-)O &-)O &-)O &-)O &-)O &-)O &-)O &-)O &-)O &-)O &-)O &-)O &-)O &-)O &-)O &-)O &-)O &-)O &-)O &-)O &-)O &-)O &-)O &-)O &-)O &-)O &-)O &-)O &-)O &-)O &-)O &-)O &-)O &-)O &-)O &-)O &-)O &-)O &-)O &-)O &-)O &-)O &-)O &-)O &-)O &-)O &-)O &-)O &-)O &-)O &-)O &-)O &-)O &-)O &-)O &-)O &-)O &-)O &-)O &-)O &-)O &-)O &-)O &-)O &-)O &-)O &-)O &-)O &-)O &-)O &-)O &-)O &-)O &-)O &-)O &-)O &-)O &-)O &-)O &-)O &-)O &-)O &-)O &-)O &-)O &-)O &-)O &-)O &-)O &-)O &-)O &-)O &-)O &-)O &-)O &-)O &-)O &-)O &-)O O    Q(%- Q(%- Q(%- Q(%- Q(%- Q(%- Q(%- Q(%- Q(%- Q(%- Q(%- Q(%- Q(%- Q(%- Q(%- Q(%- Q(%- Q(%- Q(%- Q(%- Q(%- Q(%- Q(%- Q(%- Q(%- Q(%- Q(%- Q(%- Q(%- Q(%- Q(%- Q(%- Q(%- Q(%- Q(%- Q(%- Q(%- Q(%- Q(%- Q(%- Q(%- Q(%- Q(%- Q(%- Q(%- Q(%- Q(%- Q(%- Q(%- Q(%- Q(%- Q(%- Q(%- Q(%- Q(%- Q(%- Q(%- Q(%- Q(%- Q(%- Q(%- Q(%- Q(%- Q(%- Q(%- Q(%- Q(%- Q(%- Q(%- Q(%- Q(%- Q(%- Q(%- Q(%- Q(%- Q(%- Q(%- Q(%- Q(%- Q(%- Q(%- Q(%- Q(%- Q(%- Q(%- Q(%- Q(%- Q(%- Q(%- Q(%- Q(%- Q(%- Q(%- Q(%- Q(%- Q(%- Q(%- Q(%- Q(%- Q(%- Q(%- Q(%- Q(%- Q(%- Q(%- Q(%- Q(%- Q(%- Q(%- Q(%- Q(%- Q(%- Q(%- Q(%- Q(%- Q(%- Q(%- Q(%- Q(%- Q(%- Q(%- Q(%- Q(%- Q(%- Q(%- Q(%- Q(%- Q(%- Q(%- Q(%- Q(%- Q(%- Q(%- Q(%- Q(%- Q(%- Q(%- Q(%- Q(%- Q(%- Q(%- Q(%- Q(%- Q(%- Q(%- Q(%- Q(%- Q(%- Q(%- Q(%- Q(%- Q(%- (%- (%- (%- (%- R(%- R(%- R(%- R(%- R(%- R(%- R(%- R(%- R(%- R(%- R(%- R(%- R(%- R(%- R(%- R(%- R(%- R(%- R(%- R(%- R(%- R(%- R(%- R(%- R(%- R(%- R(%- R(%- R(%- R(%- R(%- R(%- R(%- R(%- R(%- R(%- R(%- R(%- R(%- R(%- R(%- R(%- R(%- R(%- R(%- R(%- R(%- R(%- R(%- R(%- R(%- R(%- R(%- R(%- R(%- R(%- R(%- R(%- R(%- R(%- R(%- R(%- R(%- R(%- R(%- R(%- R(%- R(%- R(%- R(%- R(%- R(%- R(%- R(%- R(%- R(%- R(%- R(%- R(%- R(%- R(%- R(%- R(%- R(%- R(%- R(%- R(%- R(%- R(%- R(%- R(%- R(%- R(%- R(%- R(%- R(%- R(%- R(%- R(%- R(%- R(%- R(%- R(%- R(%- R(%- R(%- R(%- R(%- R(%- R(%- R(%- R(%- R(%- R(%- R(%- R(%- R(%- R(%- R(%- R(%- R(%- R(%- R(%- R(%- R(%- R(%- R(%- R(%- R(%- R(%- R(%- R(%- R(%- R(%- R(%- R(%- R(%- R(%- R(%- R(%- R(%- R(%- R(%- R(%- R(%- R(%- R(%- R(%- R(%- R(%- R(%- R(%- (%- (%- (%- Q(%-E Q(%-E Q(%-E Q(%-E Q(%-E Q(%-E Q(%-E Q(%-E Q(%-E Q(%-E Q(%-E Q(%-E Q(%-E Q(%-E Q(%-E Q(%-E Q(%-E Q(%-E Q(%-E Q(%-E Q(%-E Q(%-E Q(%-E Q(%-E Q(%-E Q(%-E Q(%-E Q(%-E Q(%-E Q(%-E Q(%-E Q(%-E Q(%-E Q(%-E Q(%-E Q(%-E Q(%-E Q(%-E Q(%-E Q(%-E Q(%-E Q(%-E Q(%-E Q(%-E Q(%-E Q(%-E Q(%-E Q(%-E Q(%-E Q(%-E Q(%-E Q(%-E Q(%-E Q(%-E Q(%-E Q(%-E Q(%-E Q(%-E Q(%-E Q(%-E Q(%-E Q(%-E Q(%-E Q(%-E Q(%-E Q(%-E Q(%-E Q(%-E Q(%-E Q(%-E Q(%-E Q(%-E Q(%-E Q(%-E Q(%-E Q(%-E Q(%-E Q(%-E Q(%-E Q(%-E Q(%-E Q(%-E Q(%-E Q(%-E Q(%-E Q(%-E Q(%-E Q(%-E Q(%-E Q(%-E Q(%-E Q(%-E Q(%-E Q(%-E Q(%-E Q(%-E Q(%-E Q(%-E Q(%-E Q(%-E Q(%-E Q(%-E Q(%-E Q(%-E Q(%-E Q(%-E Q(%-E Q(%-E Q(%-E Q(%-E Q(%-E Q(%-E Q(%-E Q(%-E Q(%-E Q(%-E Q(%-E Q(%-E Q(%-E Q(%-E Q(%-E Q(%-E Q(%-E Q(%-E Q(%-E Q(%-E Q(%-E Q(%-E Q(%-E Q(%-E Q(%-E Q(%-E Q(%-E Q(%-E Q(%-E Q(%-E Q(%-E Q(%-E Q(%-E Q(%-E Q(%-E Q(%-E Q(%-E Q(%-E Q(%-E Q(%-E Q(%-E Q(%-E Q(%-E Q(%-E Q(%-E Q(%-E (%-E (%-E (%-E (%-E (%-EO (%-EO (%-EO (%-EO (%-EO (%-EO (%-EO (%-EO (%-EO (%-EO (%-EO (%-EO (%-EO (%-EO (%-EO (%-EO (%-EO (%-EO (%-EO (%-EO (%-EO (%-EO (%-EO (%-EO (%-EO (%-EO (%-EO (%-EO (%-EO (%-EO (%-EO (%-EO (%-EO (%-EO (%-EO (%-EO (%-EO (%-EO (%-EO (%-EO (%-EO (%-EO (%-EO (%-EO (%-EO (%-EO (%-EO (%-EO (%-EO (%-EO (%-EO (%-EO (%-EO (%-EO (%-EO (%-EO (%-EO (%-EO (%-EO (%-EO (%-EO (%-EO (%-EO (%-EO (%-EO (%-EO (%-EO (%-EO (%-EO (%-EO (%-EO (%-EO (%-EO (%-EO (%-EO (%-EO (%-EO (%-EO (%-EO (%-EO (%-EO (%-EO (%-EO (%-EO (%-EO (%-EO (%-EO (%-EO (%-EO (%-EO (%-EO (%-EO (%-EO (%-EO (%-EO (%-EO (%-EO (%-EO (%-EO (%-EO (%-EO (%-EO (%-EO (%-EO (%-EO (%-EO (%-EO (%-EO (%-EO (%-EO (%-EO (%-EO (%-EO (%-EO (%-EO (%-EO (%-EO (%-EO (%-EO (%-EO (%-EO (%-EO (%-EO (%-EO (%-EO (%-EO (%-EO (%-EO (%-EO (%-EO (%-EO (%-EO (%-EO (%-EO (%-EO (%-EO (%-EO (%-EO (%-EO (%-EO (%-EO (%-EO (%-EO (%-EO (%-EO (%-EO (%-EO (%-EO EO EO EO O    ME ME ME ME ME ME ME ME ME ME ME ME ME ME ME ME ME ME ME ME ME ME ME ME ME ME ME ME ME ME ME ME ME ME ME ME ME ME ME ME ME ME ME ME ME ME ME ME ME ME ME ME ME ME ME ME ME ME ME ME ME ME ME ME ME ME ME ME ME ME ME ME ME ME ME ME ME ME ME ME ME ME ME ME ME ME ME ME ME ME ME ME ME ME ME ME ME ME ME ME ME ME ME ME ME ME ME ME ME ME ME ME ME ME ME ME ME ME ME ME ME ME ME ME ME ME ME ME ME ME ME ME ME ME ME ME ME ME ME ME ME ME ME ME ME ME ME ME ME ME ME ME E E E E EL EL EL EL EL EL EL EL EL EL EL EL EL EL EL EL EL EL EL EL EL EL EL EL EL EL EL EL EL EL EL EL EL EL EL EL EL EL EL EL EL EL EL EL EL EL EL EL EL EL EL EL EL EL EL EL EL EL EL EL EL EL EL EL EL EL EL EL EL EL EL EL EL EL EL EL EL EL EL EL EL EL EL EL EL EL EL EL EL EL EL EL EL EL EL EL EL EL EL EL EL EL EL EL EL EL EL EL EL EL EL EL EL EL EL EL EL EL EL EL EL EL EL EL EL EL EL EL EL EL EL EL EL EL EL EL EL EL EL EL EL EL EL EL EL EL EL EL EL EL EL L    JM JM JM JM JM JM JM JM JM JM JM JM JM JM JM JM JM JM JM JM JM JM JM JM JM JM JM JM JM JM JM JM JM JM JM JM JM JM JM JM JM JM JM JM JM JM JM JM JM JM JM JM JM JM JM JM JM JM JM JM JM JM JM JM JM JM JM JM JM JM JM JM JM JM JM JM JM JM JM JM JM JM JM JM JM JM JM JM JM JM JM JM JM JM JM JM JM JM JM JM JM JM JM JM JM JM JM JM JM JM JM JM JM JM JM JM JM JM JM JM JM JM JM JM JM JM JM JM JM JM JM JM JM JM JM JM JM JM JM JM JM JM JM JM JM JM JM JM JM JM JM JM M M M M ML ML ML ML ML ML ML ML ML ML ML ML ML ML ML ML ML ML ML ML ML ML ML ML ML ML ML ML ML ML ML ML ML ML ML ML ML ML ML ML ML ML ML ML ML ML ML ML ML ML ML ML ML ML ML ML ML ML ML ML ML ML ML ML ML ML ML ML ML ML ML ML ML ML ML ML ML ML ML ML ML ML ML ML ML ML ML ML ML ML ML ML ML ML ML ML ML ML ML ML ML ML ML ML ML ML ML ML ML ML ML ML ML ML ML ML ML ML ML ML ML ML ML ML ML ML ML ML ML ML ML ML ML ML ML ML ML ML ML ML ML ML ML ML ML ML ML ML ML ML ML L    JMQ JMQ JMQ JMQ JMQ JMQ JMQ JMQ JMQ JMQ JMQ JMQ JMQ JMQ JMQ JMQ JMQ JMQ JMQ JMQ JMQ JMQ JMQ JMQ JMQ JMQ JMQ JMQ JMQ JMQ JMQ JMQ JMQ JMQ JMQ JMQ JMQ JMQ JMQ JMQ JMQ JMQ JMQ JMQ JMQ JMQ JMQ JMQ JMQ JMQ JMQ JMQ JMQ JMQ JMQ JMQ JMQ JMQ JMQ JMQ JMQ JMQ JMQ JMQ JMQ JMQ JMQ JMQ JMQ JMQ JMQ JMQ JMQ JMQ JMQ JMQ JMQ JMQ JMQ JMQ JMQ JMQ JMQ JMQ JMQ JMQ JMQ JMQ JMQ JMQ JMQ JMQ JMQ JMQ JMQ JMQ JMQ JMQ JMQ JMQ JMQ JMQ JMQ JMQ JMQ JMQ JMQ JMQ JMQ JMQ JMQ JMQ JMQ JMQ JMQ JMQ JMQ JMQ JMQ JMQ JMQ JMQ JMQ JMQ JMQ JMQ JMQ JMQ JMQ JMQ JMQ JMQ JMQ JMQ JMQ JMQ JMQ JMQ JMQ JMQ JMQ JMQ JMQ JMQ JMQ JMQ JMQ JMQ JMQ JMQ JMQ JMQ MQ MQ MQ MQ MQH MQH MQH MQH MQH MQH MQH MQH MQH MQH MQH MQH MQH MQH MQH MQH MQH MQH MQH MQH MQH MQH MQH MQH MQH MQH MQH MQH MQH MQH MQH MQH MQH MQH MQH MQH MQH MQH MQH MQH MQH MQH MQH MQH MQH MQH MQH MQH MQH MQH MQH MQH MQH MQH MQH MQH MQH MQH MQH MQH MQH MQH MQH MQH MQH MQH MQH MQH MQH MQH MQH MQH MQH MQH MQH MQH MQH MQH MQH MQH MQH MQH MQH MQH MQH MQH MQH MQH MQH MQH MQH MQH MQH MQH MQH MQH MQH MQH MQH MQH MQH MQH MQH MQH MQH MQH MQH MQH MQH MQH MQH MQH MQH MQH MQH MQH MQH MQH MQH MQH MQH MQH MQH MQH MQH MQH MQH MQH MQH MQH MQH MQH MQH MQH MQH MQH MQH MQH MQH MQH MQH MQH MQH MQH MQH MQH MQH MQH MQH MQH MQH H    FQM FQM FQM FQM FQM FQM FQM FQM FQM FQM FQM FQM FQM FQM FQM FQM FQM FQM FQM FQM FQM FQM FQM FQM FQM FQM FQM FQM FQM FQM FQM FQM FQM FQM FQM FQM FQM FQM FQM FQM FQM FQM FQM FQM FQM FQM FQM FQM FQM FQM FQM FQM FQM FQM FQM FQM FQM FQM FQM FQM FQM FQM FQM FQM FQM FQM FQM FQM FQM FQM FQM FQM FQM FQM FQM FQM FQM FQM FQM FQM FQM FQM FQM FQM FQM FQM FQM FQM FQM FQM FQM FQM FQM FQM FQM FQM FQM FQM FQM FQM FQM FQM FQM FQM FQM FQM FQM FQM FQM FQM FQM FQM FQM FQM FQM FQM FQM FQM FQM FQM FQM FQM FQM FQM FQM FQM FQM FQM FQM FQM FQM FQM FQM FQM FQM FQM FQM FQM FQM FQM FQM FQM FQM FQM FQM FQM FQM FQM FQM FQM FQM FQM QM QM QM QM QME QME QME QME QME QME QME QME QME QME QME QME QME QME QME QME QME QME QME QME QME QME QME QME QME QME QME QME QME QME QME QME QME QME QME QME QME QME QME QME QME QME QME QME QME QME QME QME QME QME QME QME QME QME QME QME QME QME QME QME QME QME QME QME QME QME QME QME QME QME QME QME QME QME QME QME QME QME QME QME QME QME QME QME QME QME QME QME QME QME QME QME QME QME QME QME QME QME QME QME QME QME QME QME QME QME QME QME QME QME QME QME QME QME QME QME QME QME QME QME QME QME QME QME QME QME QME QME QME QME QME QME QME QME QME QME QME QME QME QME QME QME QME QME QME QME QME QME QME QME QME E    RCM RCM RCM RCM RCM RCM RCM RCM RCM RCM RCM RCM RCM RCM RCM RCM RCM RCM RCM RCM RCM RCM RCM RCM RCM RCM RCM RCM RCM RCM RCM RCM RCM RCM RCM RCM RCM RCM RCM RCM RCM RCM RCM RCM RCM RCM RCM RCM RCM RCM RCM RCM RCM RCM RCM RCM RCM RCM RCM RCM RCM RCM RCM RCM RCM RCM RCM RCM RCM RCM RCM RCM RCM RCM RCM RCM RCM RCM RCM RCM RCM RCM RCM RCM RCM RCM RCM RCM RCM RCM RCM RCM RCM RCM RCM RCM RCM RCM RCM RCM RCM RCM RCM RCM RCM RCM RCM RCM RCM RCM RCM RCM RCM RCM RCM RCM RCM RCM RCM RCM RCM RCM RCM RCM RCM RCM RCM RCM RCM RCM RCM RCM RCM RCM RCM RCM RCM RCM RCM RCM RCM RCM RCM RCM RCM RCM RCM RCM RCM RCM RCM RCM M M M M TEM TEM TEM TEM TEM TEM TEM TEM TEM TEM TEM TEM TEM TEM TEM TEM TEM TEM TEM TEM TEM TEM TEM TEM TEM TEM TEM TEM TEM TEM TEM TEM TEM TEM TEM TEM TEM TEM TEM TEM TEM TEM TEM TEM TEM TEM TEM TEM TEM TEM TEM TEM TEM TEM TEM TEM TEM TEM TEM TEM TEM TEM TEM TEM TEM TEM TEM TEM TEM TEM TEM TEM TEM TEM TEM TEM TEM TEM TEM TEM TEM TEM TEM TEM TEM TEM TEM TEM TEM TEM TEM TEM TEM TEM TEM TEM TEM TEM TEM TEM TEM TEM TEM TEM TEM TEM TEM TEM TEM TEM TEM TEM TEM TEM TEM TEM TEM TEM TEM TEM TEM TEM TEM TEM TEM TEM TEM TEM TEM TEM TEM TEM TEM TEM TEM TEM TEM TEM TEM TEM TEM TEM TEM TEM TEM TEM TEM TEM TEM TEM TEM TEM M M M MRC MRC MRC MRC MRC MRC MRC MRC MRC MRC MRC MRC MRC MRC MRC MRC MRC MRC MRC MRC MRC MRC MRC MRC MRC MRC MRC MRC MRC MRC MRC MRC MRC MRC MRC MRC MRC MRC MRC MRC MRC MRC MRC MRC MRC MRC MRC MRC MRC MRC MRC MRC MRC MRC MRC MRC MRC MRC MRC MRC MRC MRC MRC MRC MRC MRC MRC MRC MRC MRC MRC MRC MRC MRC MRC MRC MRC MRC MRC MRC MRC MRC MRC MRC MRC MRC MRC MRC MRC MRC MRC MRC MRC MRC MRC MRC MRC MRC MRC MRC MRC MRC MRC MRC MRC MRC MRC MRC MRC MRC MRC MRC MRC MRC MRC MRC MRC MRC MRC MRC MRC MRC MRC MRC MRC MRC MRC MRC MRC MRC MRC MRC MRC MRC MRC MRC MRC MRC MRC MRC MRC MRC RC RC RC RC RC RC RC RC RC RC     QA QA QA QA QA QA QA QA QA QA QA QA QA QA QA QA QA QA QA QA QA QA QA QA QA QA QA QA QA QA QA QA QA QA QA QA QA QA QA QA QA QA QA QA QA QA QA QA QA QA QA QA QA QA QA QA QA QA QA QA QA QA QA QA QA QA QA QA QA QA QA QA QA QA QA QA QA QA QA QA QA QA QA QA QA QA QA QA QA QA QA QA QA QA QA QA QA QA QA QA QA QA QA QA QA QA QA QA QA QA QA QA QA QA QA QA QA QA QA QA QA QA QA QA QA QA QA QA QA QA QA QA QA QA QA QA QA QA QA QA QA QA QA QA QA QA QA QA QA QA QA QA     O@ O@ O@ O@ O@ O@ O@ O@ O@ O@ O@ O@ O@ O@ O@ O@ O@ O@ O@ O@ O@ O@ O@ O@ O@ O@ O@ O@ O@ O@ O@ O@ O@ O@ O@ O@ O@ O@ O@ O@ O@ O@ O@ O@ O@ O@ O@ O@ O@ O@ O@ O@ O@ O@ O@ O@ O@ O@ O@ O@ O@ O@ O@ O@ O@ O@ O@ O@ O@ O@ O@ O@ O@ O@ O@ O@ O@ O@ O@ O@ O@ O@ O@ O@ O@ O@ O@ O@ O@ O@ O@ O@ O@ O@ O@ O@ O@ O@ O@ O@ O@ O@ O@ O@ O@ O@ O@ O@ O@ O@ O@ O@ O@ O@ O@ O@ O@ O@ O@ O@ O@ O@ O@ O@ O@ O@ O@ O@ O@ O@ O@ O@ O@ O@ O@ O@ O@ O@ O@ O@ O@ O@ O@ O@ O@ O@ O@ O@ O@ O@ O@ O@    M> M> M> M> M> M> M> M> M> M> M> M> M> M> M> M> M> M> M> M> M> M> M> M> M> M> M> M> M> M> M> M> M> M> M> M> M> M> M> M> M> M> M> M> M> M> M> M> M> M> M> M> M> M> M> M> M> M> M> M> M> M> M> M> M> M> M> M> M> M> M> M> M> M> M> M> M> M> M> M> M> M> M> M> M> M> M> M> M> M> M> M> M> M> M> M> M> M> M> M> M> M> M> M> M> M> M> M> M> M> M> M> M> M> M> M> M> M> M> M> M> M> M> M> M> M> M> M> M> M> M> M> M> M> M> M> M> M> M> M> M> M> M> M> M> M> M> M> M> M> M> M>     <L <L <L <L <L <L <L <L <L <L <L <L <L <L <L <L <L <L <L <L <L <L <L <L <L <L <L <L <L <L <L <L <L <L <L <L <L <L <L <L <L <L <L <L <L <L <L <L <L <L <L <L <L <L <L <L <L <L <L <L <L <L <L <L <L <L <L <L <L <L <L <L <L <L <L <L <L <L <L <L <L <L <L <L <L <L <L <L <L <L <L <L <L <L <L <L <L <L <L <L <L <L <L <L <L <L <L <L <L <L <L <L <L <L <L <L <L <L <L <L <L <L <L <L <L <L <L <L <L <L <L <L <L <L <L <L <L <L <L <L <L <L <L <L <L <L <L <L <L <L <L <L L L L >L >L >L >L >L >L >L >L >L >L >L >L >L >L >L >L >L >L >L >L >L >L >L >L >L >L >L >L >L >L >L >L >L >L >L >L >L >L >L >L >L >L >L >L >L >L >L >L >L >L >L >L >L >L >L >L >L >L >L >L >L >L >L >L >L >L >L >L >L >L >L >L >L >L >L >L >L >L >L >L >L >L >L >L >L >L >L >L >L >L >L >L >L >L >L >L >L >L >L >L >L >L >L >L >L >L >L >L >L >L >L >L >L >L >L >L >L >L >L >L >L >L >L >L >L >L >L >L >L >L >L >L >L >L >L >L >L >L >L >L >L >L >L >L >L >L >L >L >L >L >L >L     <LO <LO <LO <LO <LO <LO <LO <LO <LO <LO <LO <LO <LO <LO <LO <LO <LO <LO <LO <LO <LO <LO <LO <LO <LO <LO <LO <LO <LO <LO <LO <LO <LO <LO <LO <LO <LO <LO <LO <LO <LO <LO <LO <LO <LO <LO <LO <LO <LO <LO <LO <LO <LO <LO <LO <LO <LO <LO <LO <LO <LO <LO <LO <LO <LO <LO <LO <LO <LO <LO <LO <LO <LO <LO <LO <LO <LO <LO <LO <LO <LO <LO <LO <LO <LO <LO <LO <LO <LO <LO <LO <LO <LO <LO <LO <LO <LO <LO <LO <LO <LO <LO <LO <LO <LO <LO <LO <LO <LO <LO <LO <LO <LO <LO <LO <LO <LO <LO <LO <LO <LO <LO <LO <LO <LO <LO <LO <LO <LO <LO <LO <LO <LO <LO <LO <LO <LO <LO <LO <LO <LO <LO <LO <LO <LO <LO <LO <LO <LO <LO <LO <LO LO LO LO :LO :LO :LO :LO :LO :LO :LO :LO :LO :LO :LO :LO :LO :LO :LO :LO :LO :LO :LO :LO :LO :LO :LO :LO :LO :LO :LO :LO :LO :LO :LO :LO :LO :LO :LO :LO :LO :LO :LO :LO :LO :LO :LO :LO :LO :LO :LO :LO :LO :LO :LO :LO :LO :LO :LO :LO :LO :LO :LO :LO :LO :LO :LO :LO :LO :LO :LO :LO :LO :LO :LO :LO :LO :LO :LO :LO :LO :LO :LO :LO :LO :LO :LO :LO :LO :LO :LO :LO :LO :LO :LO :LO :LO :LO :LO :LO :LO :LO :LO :LO :LO :LO :LO :LO :LO :LO :LO :LO :LO :LO :LO :LO :LO :LO :LO :LO :LO :LO :LO :LO :LO :LO :LO :LO :LO :LO :LO :LO :LO :LO :LO :LO :LO :LO :LO :LO :LO :LO :LO :LO :LO :LO :LO :LO :LO :LO :LO :LO :LO :LO :LO :LO     9LO 9LO 9LO 9LO 9LO 9LO 9LO 9LO 9LO 9LO 9LO 9LO 9LO 9LO 9LO 9LO 9LO 9LO 9LO 9LO 9LO 9LO 9LO 9LO 9LO 9LO 9LO 9LO 9LO 9LO 9LO 9LO 9LO 9LO 9LO 9LO 9LO 9LO 9LO 9LO 9LO 9LO 9LO 9LO 9LO 9LO 9LO 9LO 9LO 9LO 9LO 9LO 9LO 9LO 9LO 9LO 9LO 9LO 9LO 9LO 9LO 9LO 9LO 9LO 9LO 9LO 9LO 9LO 9LO 9LO 9LO 9LO 9LO 9LO 9LO 9LO 9LO 9LO 9LO 9LO 9LO 9LO 9LO 9LO 9LO 9LO 9LO 9LO 9LO 9LO 9LO 9LO 9LO 9LO 9LO 9LO 9LO 9LO 9LO 9LO 9LO 9LO 9LO 9LO 9LO 9LO 9LO 9LO 9LO 9LO 9LO 9LO 9LO 9LO 9LO 9LO 9LO 9LO 9LO 9LO 9LO 9LO 9LO 9LO 9LO 9LO 9LO 9LO 9LO 9LO 9LO 9LO 9LO 9LO 9LO 9LO 9LO 9LO 9LO 9LO 9LO 9LO 9LO 9LO 9LO 9LO 9LO 9LO 9LO 9LO 9LO 9LO LO LO LO 7LO 7LO 7LO 7LO 7LO 7LO 7LO 7LO 7LO 7LO 7LO 7LO 7LO 7LO 7LO 7LO 7LO 7LO 7LO 7LO 7LO 7LO 7LO 7LO 7LO 7LO 7LO 7LO 7LO 7LO 7LO 7LO 7LO 7LO 7LO 7LO 7LO 7LO 7LO 7LO 7LO 7LO 7LO 7LO 7LO 7LO 7LO 7LO 7LO 7LO 7LO 7LO 7LO 7LO 7LO 7LO 7LO 7LO 7LO 7LO 7LO 7LO 7LO 7LO 7LO 7LO 7LO 7LO 7LO 7LO 7LO 7LO 7LO 7LO 7LO 7LO 7LO 7LO 7LO 7LO 7LO 7LO 7LO 7LO 7LO 7LO 7LO 7LO 7LO 7LO 7LO 7LO 7LO 7LO 7LO 7LO 7LO 7LO 7LO 7LO 7LO 7LO 7LO 7LO 7LO 7LO 7LO 7LO 7LO 7LO 7LO 7LO 7LO 7LO 7LO 7LO 7LO 7LO 7LO 7LO 7LO 7LO 7LO 7LO 7LO 7LO 7LO 7LO 7LO 7LO 7LO 7LO 7LO 7LO 7LO 7LO 7LO 7LO 7LO 7LO 7LO 7LO 7LO 7LO 7LO 7LO 7LO 7LO 7LO 7LO 7LO 7LO     Q5L Q5L Q5L Q5L Q5L Q5L Q5L Q5L Q5L Q5L Q5L Q5L Q5L Q5L Q5L Q5L Q5L Q5L Q5L Q5L Q5L Q5L Q5L Q5L Q5L Q5L Q5L Q5L Q5L Q5L Q5L Q5L Q5L Q5L Q5L Q5L Q5L Q5L Q5L Q5L Q5L Q5L Q5L Q5L Q5L Q5L Q5L Q5L Q5L Q5L Q5L Q5L Q5L Q5L Q5L Q5L Q5L Q5L Q5L Q5L Q5L Q5L Q5L Q5L Q5L Q5L Q5L Q5L Q5L Q5L Q5L Q5L Q5L Q5L Q5L Q5L Q5L Q5L Q5L Q5L Q5L Q5L Q5L Q5L Q5L Q5L Q5L Q5L Q5L Q5L Q5L Q5L Q5L Q5L Q5L Q5L Q5L Q5L Q5L Q5L Q5L Q5L Q5L Q5L Q5L Q5L Q5L Q5L Q5L Q5L Q5L Q5L Q5L Q5L Q5L Q5L Q5L Q5L Q5L Q5L Q5L Q5L Q5L Q5L Q5L Q5L Q5L Q5L Q5L Q5L Q5L Q5L Q5L Q5L Q5L Q5L Q5L Q5L Q5L Q5L Q5L Q5L Q5L Q5L Q5L Q5L Q5L Q5L Q5L Q5L Q5L Q5L L L L R7L R7L R7L R7L R7L R7L R7L R7L R7L R7L R7L R7L R7L R7L R7L R7L R7L R7L R7L R7L R7L R7L R7L R7L R7L R7L R7L R7L R7L R7L R7L R7L R7L R7L R7L R7L R7L R7L R7L R7L R7L R7L R7L R7L R7L R7L R7L R7L R7L R7L R7L R7L R7L R7L R7L R7L R7L R7L R7L R7L R7L R7L R7L R7L R7L R7L R7L R7L R7L R7L R7L R7L R7L R7L R7L R7L R7L R7L R7L R7L R7L R7L R7L R7L R7L R7L R7L R7L R7L R7L R7L R7L R7L R7L R7L R7L R7L R7L R7L R7L R7L R7L R7L R7L R7L R7L R7L R7L R7L R7L R7L R7L R7L R7L R7L R7L R7L R7L R7L R7L R7L R7L R7L R7L R7L R7L R7L R7L R7L R7L R7L R7L R7L R7L R7L R7L R7L R7L R7L R7L R7L R7L R7L R7L R7L R7L R7L R7L R7L R7L R7L R7L L L L L LQ5 LQ5 LQ5 LQ5 LQ5 LQ5 LQ5 LQ5 LQ5 LQ5 LQ5 LQ5 LQ5 LQ5 LQ5 LQ5 LQ5 LQ5 LQ5 LQ5 LQ5 LQ5 LQ5 LQ5 LQ5 LQ5 LQ5 LQ5 LQ5 LQ5 LQ5 LQ5 LQ5 LQ5 LQ5 LQ5 LQ5 LQ5 LQ5 LQ5 LQ5 LQ5 LQ5 LQ5 LQ5 LQ5 LQ5 LQ5 LQ5 LQ5 LQ5 LQ5 LQ5 LQ5 LQ5 LQ5 LQ5 LQ5 LQ5 LQ5 LQ5 LQ5 LQ5 LQ5 LQ5 LQ5 LQ5 LQ5 LQ5 LQ5 LQ5 LQ5 LQ5 LQ5 LQ5 LQ5 LQ5 LQ5 LQ5 LQ5 LQ5 LQ5 LQ5 LQ5 LQ5 LQ5 LQ5 LQ5 LQ5 LQ5 LQ5 LQ5 LQ5 LQ5 LQ5 LQ5 LQ5 LQ5 LQ5 LQ5 LQ5 LQ5 LQ5 LQ5 LQ5 LQ5 LQ5 LQ5 LQ5 LQ5 LQ5 LQ5 LQ5 LQ5 LQ5 LQ5 LQ5 LQ5 LQ5 LQ5 LQ5 LQ5 LQ5 LQ5 LQ5 LQ5 LQ5 LQ5 LQ5 LQ5 LQ5 LQ5 LQ5 LQ5 LQ5 LQ5 LQ5 LQ5 LQ5 LQ5 LQ5 LQ5 Q5 Q5 Q5 Q5 Q5 Q5 Q5 Q5 Q5 Q5    O4 O4 O4 O4 O4 O4 O4 O4 O4 O4 O4 O4 O4 O4 O4 O4 O4 O4 O4 O4 O4 O4 O4 O4 O4 O4 O4 O4 O4 O4 O4 O4 O4 O4 O4 O4 O4 O4 O4 O4 O4 O4 O4 O4 O4 O4 O4 O4 O4 O4 O4 O4 O4 O4 O4 O4 O4 O4 O4 O4 O4 O4 O4 O4 O4 O4 O4 O4 O4 O4 O4 O4 O4 O4 O4 O4 O4 O4 O4 O4 O4 O4 O4 O4 O4 O4 O4 O4 O4 O4 O4 O4 O4 O4 O4 O4 O4 O4 O4 O4 O4 O4 O4 O4 O4 O4 O4 O4 O4 O4 O4 O4 O4 O4 O4 O4 O4 O4 O4 O4 O4 O4 O4 O4 O4 O4 O4 O4 O4 O4 O4 O4 O4 O4 O4 O4 O4 O4 O4 O4 O4 O4 O4 O4 O4 O4 O4 O4 O4 O4 O4 O4     M2 M2 M2 M2 M2 M2 M2 M2 M2 M2 M2 M2 M2 M2 M2 M2 M2 M2 M2 M2 M2 M2 M2 M2 M2 M2 M2 M2 M2 M2 M2 M2 M2 M2 M2 M2 M2 M2 M2 M2 M2 M2 M2 M2 M2 M2 M2 M2 M2 M2 M2 M2 M2 M2 M2 M2 M2 M2 M2 M2 M2 M2 M2 M2 M2 M2 M2 M2 M2 M2 M2 M2 M2 M2 M2 M2 M2 M2 M2 M2 M2 M2 M2 M2 M2 M2 M2 M2 M2 M2 M2 M2 M2 M2 M2 M2 M2 M2 M2 M2 M2 M2 M2 M2 M2 M2 M2 M2 M2 M2 M2 M2 M2 M2 M2 M2 M2 M2 M2 M2 M2 M2 M2 M2 M2 M2 M2 M2 M2 M2 M2 M2 M2 M2 M2 M2 M2 M2 M2 M2 M2 M2 M2 M2 M2 M2 M2 M2 M2 M2 M2 M2    L0 L0 L0 L0 L0 L0 L0 L0 L0 L0 L0 L0 L0 L0 L0 L0 L0 L0 L0 L0 L0 L0 L0 L0 L0 L0 L0 L0 L0 L0 L0 L0 L0 L0 L0 L0 L0 L0 L0 L0 L0 L0 L0 L0 L0 L0 L0 L0 L0 L0 L0 L0 L0 L0 L0 L0 L0 L0 L0 L0 L0 L0 L0 L0 L0 L0 L0 L0 L0 L0 L0 L0 L0 L0 L0 L0 L0 L0 L0 L0 L0 L0 L0 L0 L0 L0 L0 L0 L0 L0 L0 L0 L0 L0 L0 L0 L0 L0 L0 L0 L0 L0 L0 L0 L0 L0 L0 L0 L0 L0 L0 L0 L0 L0 L0 L0 L0 L0 L0 L0 L0 L0 L0 L0 L0 L0 L0 L0 L0 L0 L0 L0 L0 L0 L0 L0 L0 L0 L0 L0 L0 L0 L0 L0 L0 L0 L0 L0 L0 L0 L0 L0     J. J. J. J. J. J. J. J. J. J. J. J. J. J. J. J. J. J. J. J. J. J. J. J. J. J. J. J. J. J. J. J. J. J. J. J. J. J. J. J. J. J. J. J. J. J. J. J. J. J. J. J. J. J. J. J. J. J. J. J. J. J. J. J. J. J. J. J. J. J. J. J. J. J. J. J. J. J. J. J. J. J. J. J. J. J. J. J. J. J. J. J. J. J. J. J. J. J. J. J. J. J. J. J. J. J. J. J. J. J. J. J. J. J. J. J. J. J. J. J. J. J. J. J. J. J. J. J. J. J. J. J. J. J. J. J. J. J. J. J. J. J. J. J. J. J. J. J. J. J. J. J.    I0 I0 I0 I0 I0 I0 I0 I0 I0 I0 I0 I0 I0 I0 I0 I0 I0 I0 I0 I0 I0 I0 I0 I0 I0 I0 I0 I0 I0 I0 I0 I0 I0 I0 I0 I0 I0 I0 I0 I0 I0 I0 I0 I0 I0 I0 I0 I0 I0 I0 I0 I0 I0 I0 I0 I0 I0 I0 I0 I0 I0 I0 I0 I0 I0 I0 I0 I0 I0 I0 I0 I0 I0 I0 I0 I0 I0 I0 I0 I0 I0 I0 I0 I0 I0 I0 I0 I0 I0 I0 I0 I0 I0 I0 I0 I0 I0 I0 I0 I0 I0 I0 I0 I0 I0 I0 I0 I0 I0 I0 I0 I0 I0 I0 I0 I0 I0 I0 I0 I0 I0 I0 I0 I0 I0 I0 I0 I0 I0 I0 I0 I0 I0 I0 I0 I0 I0 I0 I0 I0 I0 I0 I0 I0 I0 I0 I0 I0 I0 I0 I0 I0     J. J. J. J. J. J. J. J. J. J. J. J. J. J. J. J. J. J. J. J. J. J. J. J. J. J. J. J. J. J. J. J. J. J. J. J. J. J. J. J. J. J. J. J. J. J. J. J. J. J. J. J. J. J. J. J. J. J. J. J. J. J. J. J. J. J. J. J. J. J. J. J. J. J. J. J. J. J. J. J. J. J. J. J. J. J. J. J. J. J. J. J. J. J. J. J. J. J. J. J. J. J. J. J. J. J. J. J. J. J. J. J. J. J. J. J. J. J. J. J. J. J. J. J. J. J. J. J. J. J. J. J. J. J. J. J. J. J. J. J. J. J. J. J. J. J. J. J. J. J. J. J.    L- L- L- L- L- L- L- L- L- L- L- L- L- L- L- L- L- L- L- L- L- L- L- L- L- L- L- L- L- L- L- L- L- L- L- L- L- L- L- L- L- L- L- L- L- L- L- L- L- L- L- L- L- L- L- L- L- L- L- L- L- L- L- L- L- L- L- L- L- L- L- L- L- L- L- L- L- L- L- L- L- L- L- L- L- L- L- L- L- L- L- L- L- L- L- L- L- L- L- L- L- L- L- L- L- L- L- L- L- L- L- L- L- L- L- L- L- L- L- L- L- L- L- L- L- L- L- L- L- L- L- L- L- L- L- L- L- L- L- L- L- L- L- L- L- L- L- L- L- L- L- L-     M+ M+ M+ M+ M+ M+ M+ M+ M+ M+ M+ M+ M+ M+ M+ M+ M+ M+ M+ M+ M+ M+ M+ M+ M+ M+ M+ M+ M+ M+ M+ M+ M+ M+ M+ M+ M+ M+ M+ M+ M+ M+ M+ M+ M+ M+ M+ M+ M+ M+ M+ M+ M+ M+ M+ M+ M+ M+ M+ M+ M+ M+ M+ M+ M+ M+ M+ M+ M+ M+ M+ M+ M+ M+ M+ M+ M+ M+ M+ M+ M+ M+ M+ M+ M+ M+ M+ M+ M+ M+ M+ M+ M+ M+ M+ M+ M+ M+ M+ M+ M+ M+ M+ M+ M+ M+ M+ M+ M+ M+ M+ M+ M+ M+ M+ M+ M+ M+ M+ M+ M+ M+ M+ M+ M+ M+ M+ M+ M+ M+ M+ M+ M+ M+ M+ M+ M+ M+ M+ M+ M+ M+ M+ M+ M+ M+ M+ M+ M+ M+ M+ M+    J) J) J) J) J) J) J) J) J) J) J) J) J) J) J) J) J) J) J) J) J) J) J) J) J) J) J) J) J) J) J) J) J) J) J) J) J) J) J) J) J) J) J) J) J) J) J) J) J) J) J) J) J) J) J) J) J) J) J) J) J) J) J) J) J) J) J) J) J) J) J) J) J) J) J) J) J) J) J) J) J) J) J) J) J) J) J) J) J) J) J) J) J) J) J) J) J) J) J) J) J) J) J) J) J) J) J) J) J) J) J) J) J) J) J) J) J) J) J) J) J) J) J) J) J) J) J) J) J) J) J) J) J) J) J) J) J) J) J) J) J) J) J) J) J) J) J) J) J) J) J) J)     (O (O (O (O (O (O (O (O (O (O (O (O (O (O (O (O (O (O (O (O (O (O (O (O (O (O (O (O (O (O (O (O (O (O (O (O (O (O (O (O (O (O (O (O (O (O (O (O (O (O (O (O (O (O (O (O (O (O (O (O (O (O (O (O (O (O (O (O (O (O (O (O (O (O (O (O (O (O (O (O (O (O (O (O (O (O (O (O (O (O (O (O (O (O (O (O (O (O (O (O (O (O (O (O (O (O (O (O (O (O (O (O (O (O (O (O (O (O (O (O (O (O (O (O (O (O (O (O (O (O (O (O (O (O (O (O (O (O (O (O (O (O (O (O (O (O (O (O (O (O (O (O O O O &O &O &O &O &O &O &O &O &O &O &O &O &O &O &O &O &O &O &O &O &O &O &O &O &O &O &O &O &O &O &O &O &O &O &O &O &O &O &O &O &O &O &O &O &O &O &O &O &O &O &O &O &O &O &O &O &O &O &O &O &O &O &O &O &O &O &O &O &O &O &O &O &O &O &O &O &O &O &O &O &O &O &O &O &O &O &O &O &O &O &O &O &O &O &O &O &O &O &O &O &O &O &O &O &O &O &O &O &O &O &O &O &O &O &O &O &O &O &O &O &O &O &O &O &O &O &O &O &O &O &O &O &O &O &O &O &O &O &O &O &O &O &O &O &O &O &O &O &O &O &O &O     (FJO (FJO (FJO (FJO (FJO (FJO (FJO (FJO (FJO (FJO (FJO (FJO (FJO (FJO (FJO (FJO (FJO (FJO (FJO (FJO (FJO (FJO (FJO (FJO (FJO (FJO (FJO (FJO (FJO (FJO (FJO (FJO (FJO (FJO (FJO (FJO (FJO (FJO (FJO (FJO (FJO (FJO (FJO (FJO (FJO (FJO (FJO (FJO (FJO (FJO (FJO (FJO (FJO (FJO (FJO (FJO (FJO (FJO (FJO (FJO (FJO (FJO (FJO (FJO (FJO (FJO (FJO (FJO (FJO (FJO (FJO (FJO (FJO (FJO (FJO (FJO (FJO (FJO (FJO (FJO (FJO (FJO (FJO (FJO (FJO (FJO (FJO (FJO (FJO (FJO (FJO (FJO (FJO (FJO (FJO (FJO (FJO (FJO (FJO (FJO (FJO (FJO (FJO (FJO (FJO (FJO (FJO (FJO (FJO (FJO (FJO (FJO (FJO (FJO (FJO (FJO (FJO (FJO (FJO (FJO (FJO (FJO (FJO (FJO (FJO (FJO (FJO (FJO (FJO (FJO (FJO (FJO (FJO (FJO (FJO (FJO (FJO (FJO (FJO (FJO (FJO (FJO (FJO (FJO (FJO (FJO (FJO (FJO (FJO (FJO (FJO (FJO FJO FJO FJO )FJO )FJO )FJO )FJO )FJO )FJO )FJO )FJO )FJO )FJO )FJO )FJO )FJO )FJO )FJO )FJO )FJO )FJO )FJO )FJO )FJO )FJO )FJO )FJO )FJO )FJO )FJO )FJO )FJO )FJO )FJO )FJO )FJO )FJO )FJO )FJO )FJO )FJO )FJO )FJO )FJO )FJO )FJO )FJO )FJO )FJO )FJO )FJO )FJO )FJO )FJO )FJO )FJO )FJO )FJO )FJO )FJO )FJO )FJO )FJO )FJO )FJO )FJO )FJO )FJO )FJO )FJO )FJO )FJO )FJO )FJO )FJO )FJO )FJO )FJO )FJO )FJO )FJO )FJO )FJO )FJO )FJO )FJO )FJO )FJO )FJO )FJO )FJO )FJO )FJO )FJO )FJO )FJO )FJO )FJO )FJO )FJO )FJO )FJO )FJO )FJO )FJO )FJO )FJO )FJO )FJO )FJO )FJO )FJO )FJO )FJO )FJO )FJO )FJO )FJO )FJO )FJO )FJO )FJO )FJO )FJO )FJO )FJO )FJO )FJO )FJO )FJO )FJO )FJO )FJO )FJO )FJO )FJO )FJO )FJO )FJO )FJO )FJO )FJO )FJO )FJO )FJO )FJO )FJO )FJO )FJO )FJO )FJO )FJO )FJO )FJO )FJO     +FJO +FJO +FJO +FJO +FJO +FJO +FJO +FJO +FJO +FJO +FJO +FJO +FJO +FJO +FJO +FJO +FJO +FJO +FJO +FJO +FJO +FJO +FJO +FJO +FJO +FJO +FJO +FJO +FJO +FJO +FJO +FJO +FJO +FJO +FJO +FJO +FJO +FJO +FJO +FJO +FJO +FJO +FJO +FJO +FJO +FJO +FJO +FJO +FJO +FJO +FJO +FJO +FJO +FJO +FJO +FJO +FJO +FJO +FJO +FJO +FJO +FJO +FJO +FJO +FJO +FJO +FJO +FJO +FJO +FJO +FJO +FJO +FJO +FJO +FJO +FJO +FJO +FJO +FJO +FJO +FJO +FJO +FJO +FJO +FJO +FJO +FJO +FJO +FJO +FJO +FJO +FJO +FJO +FJO +FJO +FJO +FJO +FJO +FJO +FJO +FJO +FJO +FJO +FJO +FJO +FJO +FJO +FJO +FJO +FJO +FJO +FJO +FJO +FJO +FJO +FJO +FJO +FJO +FJO +FJO +FJO +FJO +FJO +FJO +FJO +FJO +FJO +FJO +FJO +FJO +FJO +FJO +FJO +FJO +FJO +FJO +FJO +FJO +FJO +FJO +FJO +FJO +FJO +FJO +FJO +FJO +FJO +FJO +FJO +FJO +FJO +FJO FJO FJO FJO FJO FJ(O FJ(O FJ(O FJ(O FJ(O FJ(O FJ(O FJ(O FJ(O FJ(O FJ(O FJ(O FJ(O FJ(O FJ(O FJ(O FJ(O FJ(O FJ(O FJ(O FJ(O FJ(O FJ(O FJ(O FJ(O FJ(O FJ(O FJ(O FJ(O FJ(O FJ(O FJ(O FJ(O FJ(O FJ(O FJ(O FJ(O FJ(O FJ(O FJ(O FJ(O FJ(O FJ(O FJ(O FJ(O FJ(O FJ(O FJ(O FJ(O FJ(O FJ(O FJ(O FJ(O FJ(O FJ(O FJ(O FJ(O FJ(O FJ(O FJ(O FJ(O FJ(O FJ(O FJ(O FJ(O FJ(O FJ(O FJ(O FJ(O FJ(O FJ(O FJ(O FJ(O FJ(O FJ(O FJ(O FJ(O FJ(O FJ(O FJ(O FJ(O FJ(O FJ(O FJ(O FJ(O FJ(O FJ(O FJ(O FJ(O FJ(O FJ(O FJ(O FJ(O FJ(O FJ(O FJ(O FJ(O FJ(O FJ(O FJ(O FJ(O FJ(O FJ(O FJ(O FJ(O FJ(O FJ(O FJ(O FJ(O FJ(O FJ(O FJ(O FJ(O FJ(O FJ(O FJ(O FJ(O FJ(O FJ(O FJ(O FJ(O FJ(O FJ(O FJ(O FJ(O FJ(O FJ(O FJ(O FJ(O FJ(O FJ(O FJ(O FJ(O FJ(O FJ(O FJ(O FJ(O FJ(O FJ(O FJ(O FJ(O FJ(O FJ(O FJ(O FJ(O FJ(O FJ(O FJ(O FJ(O FJ(O FJ(O (O O O O -OFI -OFI -OFI -OFI -OFI -OFI -OFI -OFI -OFI -OFI -OFI -OFI -OFI -OFI -OFI -OFI -OFI -OFI -OFI -OFI -OFI -OFI -OFI -OFI -OFI -OFI -OFI -OFI -OFI -OFI -OFI -OFI -OFI -OFI -OFI -OFI -OFI -OFI -OFI -OFI -OFI -OFI -OFI -OFI -OFI -OFI -OFI -OFI -OFI -OFI -OFI -OFI -OFI -OFI -OFI -OFI -OFI -OFI -OFI -OFI -OFI -OFI -OFI -OFI -OFI -OFI -OFI -OFI -OFI -OFI -OFI -OFI -OFI -OFI -OFI -OFI -OFI -OFI -OFI -OFI -OFI -OFI -OFI -OFI -OFI -OFI -OFI -OFI -OFI -OFI -OFI -OFI -OFI -OFI -OFI -OFI -OFI -OFI -OFI -OFI -OFI -OFI -OFI -OFI -OFI -OFI -OFI -OFI -OFI -OFI -OFI -OFI -OFI -OFI -OFI -OFI -OFI -OFI -OFI -OFI -OFI -OFI -OFI -OFI -OFI -OFI -OFI -OFI -OFI -OFI -OFI -OFI -OFI -OFI -OFI -OFI -OFI -OFI -OFI -OFI -OFI -OFI -OFI -OFI -OFI -OFI -OFI -OFI -OFI -OFI -OFI -OFI OFI OFI OFI OFI OFI+ OFI+ OFI+ OFI+ OFI+ OFI+ OFI+ OFI+ OFI+ OFI+ OFI+ OFI+ OFI+ OFI+ OFI+ OFI+ OFI+ OFI+ OFI+ OFI+ OFI+ OFI+ OFI+ OFI+ OFI+ OFI+ OFI+ OFI+ OFI+ OFI+ OFI+ OFI+ OFI+ OFI+ OFI+ OFI+ OFI+ OFI+ OFI+ OFI+ OFI+ OFI+ OFI+ OFI+ OFI+ OFI+ OFI+ OFI+ OFI+ OFI+ OFI+ OFI+ OFI+ OFI+ OFI+ OFI+ OFI+ OFI+ OFI+ OFI+ OFI+ OFI+ OFI+ OFI+ OFI+ OFI+ OFI+ OFI+ OFI+ OFI+ OFI+ OFI+ OFI+ OFI+ OFI+ OFI+ OFI+ OFI+ OFI+ OFI+ OFI+ OFI+ OFI+ OFI+ OFI+ OFI+ OFI+ OFI+ OFI+ OFI+ OFI+ OFI+ OFI+ OFI+ OFI+ OFI+ OFI+ OFI+ OFI+ OFI+ OFI+ OFI+ OFI+ OFI+ OFI+ OFI+ OFI+ OFI+ OFI+ OFI+ OFI+ OFI+ OFI+ OFI+ OFI+ OFI+ OFI+ OFI+ OFI+ OFI+ OFI+ OFI+ OFI+ OFI+ OFI+ OFI+ OFI+ OFI+ OFI+ OFI+ OFI+ OFI+ OFI+ OFI+ OFI+ OFI+ OFI+ OFI+ OFI+ OFI+ OFI+ OFI+ OFI+ OFI+ OFI+ OFI+ OFI+ OFI+ FI+ FI+ FI+ +    -EIL -EIL -EIL -EIL -EIL -EIL -EIL -EIL -EIL -EIL -EIL -EIL -EIL -EIL -EIL -EIL -EIL -EIL -EIL -EIL -EIL -EIL -EIL -EIL -EIL -EIL -EIL -EIL -EIL -EIL -EIL -EIL -EIL -EIL -EIL -EIL -EIL -EIL -EIL -EIL -EIL -EIL -EIL -EIL -EIL -EIL -EIL -EIL -EIL -EIL -EIL -EIL -EIL -EIL -EIL -EIL -EIL -EIL -EIL -EIL -EIL -EIL -EIL -EIL -EIL -EIL -EIL -EIL -EIL -EIL -EIL -EIL -EIL -EIL -EIL -EIL -EIL -EIL -EIL -EIL -EIL -EIL -EIL -EIL -EIL -EIL -EIL -EIL -EIL -EIL -EIL -EIL -EIL -EIL -EIL -EIL -EIL -EIL -EIL -EIL -EIL -EIL -EIL -EIL -EIL -EIL -EIL -EIL -EIL -EIL -EIL -EIL -EIL -EIL -EIL -EIL -EIL -EIL -EIL -EIL -EIL -EIL -EIL -EIL -EIL -EIL -EIL -EIL -EIL -EIL -EIL -EIL -EIL -EIL -EIL -EIL -EIL -EIL -EIL -EIL -EIL -EIL -EIL -EIL -EIL -EIL -EIL -EIL -EIL -EIL -EIL -EIL EIL EIL EIL EIL EIL/ EIL/ EIL/ EIL/ EIL/ EIL/ EIL/ EIL/ EIL/ EIL/ EIL/ EIL/ EIL/ EIL/ EIL/ EIL/ EIL/ EIL/ EIL/ EIL/ EIL/ EIL/ EIL/ EIL/ EIL/ EIL/ EIL/ EIL/ EIL/ EIL/ EIL/ EIL/ EIL/ EIL/ EIL/ EIL/ EIL/ EIL/ EIL/ EIL/ EIL/ EIL/ EIL/ EIL/ EIL/ EIL/ EIL/ EIL/ EIL/ EIL/ EIL/ EIL/ EIL/ EIL/ EIL/ EIL/ EIL/ EIL/ EIL/ EIL/ EIL/ EIL/ EIL/ EIL/ EIL/ EIL/ EIL/ EIL/ EIL/ EIL/ EIL/ EIL/ EIL/ EIL/ EIL/ EIL/ EIL/ EIL/ EIL/ EIL/ EIL/ EIL/ EIL/ EIL/ EIL/ EIL/ EIL/ EIL/ EIL/ EIL/ EIL/ EIL/ EIL/ EIL/ EIL/ EIL/ EIL/ EIL/ EIL/ EIL/ EIL/ EIL/ EIL/ EIL/ EIL/ EIL/ EIL/ EIL/ EIL/ EIL/ EIL/ EIL/ EIL/ EIL/ EIL/ EIL/ EIL/ EIL/ EIL/ EIL/ EIL/ EIL/ EIL/ EIL/ EIL/ EIL/ EIL/ EIL/ EIL/ EIL/ EIL/ EIL/ EIL/ EIL/ EIL/ EIL/ EIL/ EIL/ EIL/ EIL/ EIL/ EIL/ EIL/ EIL/ EIL/ EIL/ EIL/ EIL/ EIL/ EIL/ EIL/ /    1ILE 1ILE 1ILE 1ILE 1ILE 1ILE 1ILE 1ILE 1ILE 1ILE 1ILE 1ILE 1ILE 1ILE 1ILE 1ILE 1ILE 1ILE 1ILE 1ILE 1ILE 1ILE 1ILE 1ILE 1ILE 1ILE 1ILE 1ILE 1ILE 1ILE 1ILE 1ILE 1ILE 1ILE 1ILE 1ILE 1ILE 1ILE 1ILE 1ILE 1ILE 1ILE 1ILE 1ILE 1ILE 1ILE 1ILE 1ILE 1ILE 1ILE 1ILE 1ILE 1ILE 1ILE 1ILE 1ILE 1ILE 1ILE 1ILE 1ILE 1ILE 1ILE 1ILE 1ILE 1ILE 1ILE 1ILE 1ILE 1ILE 1ILE 1ILE 1ILE 1ILE 1ILE 1ILE 1ILE 1ILE 1ILE 1ILE 1ILE 1ILE 1ILE 1ILE 1ILE 1ILE 1ILE 1ILE 1ILE 1ILE 1ILE 1ILE 1ILE 1ILE 1ILE 1ILE 1ILE 1ILE 1ILE 1ILE 1ILE 1ILE 1ILE 1ILE 1ILE 1ILE 1ILE 1ILE 1ILE 1ILE 1ILE 1ILE 1ILE 1ILE 1ILE 1ILE 1ILE 1ILE 1ILE 1ILE 1ILE 1ILE 1ILE 1ILE 1ILE 1ILE 1ILE 1ILE 1ILE 1ILE 1ILE 1ILE 1ILE 1ILE 1ILE 1ILE 1ILE 1ILE 1ILE 1ILE 1ILE 1ILE 1ILE 1ILE 1ILE 1ILE 1ILE 1ILE 1ILE 1ILE 1ILE 1ILE 1ILE ILE ILE ILE ILE ILE- ILE- ILE- ILE- ILE- ILE- ILE- ILE- ILE- ILE- ILE- ILE- ILE- ILE- ILE- ILE- ILE- ILE- ILE- ILE- ILE- ILE- ILE- ILE- ILE- ILE- ILE- ILE- ILE- ILE- ILE- ILE- ILE- ILE- ILE- ILE- ILE- ILE- ILE- ILE- ILE- ILE- ILE- ILE- ILE- ILE- ILE- ILE- ILE- ILE- ILE- ILE- ILE- ILE- ILE- ILE- ILE- ILE- ILE- ILE- ILE- ILE- ILE- ILE- ILE- ILE- ILE- ILE- ILE- ILE- ILE- ILE- ILE- ILE- ILE- ILE- ILE- ILE- ILE- ILE- ILE- ILE- ILE- ILE- ILE- ILE- ILE- ILE- ILE- ILE- ILE- ILE- ILE- ILE- ILE- ILE- ILE- ILE- ILE- ILE- ILE- ILE- ILE- ILE- ILE- ILE- ILE- ILE- ILE- ILE- ILE- ILE- ILE- ILE- ILE- ILE- ILE- ILE- ILE- ILE- ILE- ILE- ILE- ILE- ILE- ILE- ILE- ILE- ILE- ILE- ILE- ILE- ILE- ILE- ILE- ILE- ILE- ILE- ILE- ILE- ILE- ILE- ILE- ILE- ILE- ILE- ILE- ILE- ILE- ILE- ILE- -    @:C @:C @:C @:C @:C @:C @:C @:C @:C @:C @:C @:C @:C @:C @:C @:C @:C @:C @:C @:C @:C @:C @:C @:C @:C @:C @:C @:C @:C @:C @:C @:C @:C @:C @:C @:C @:C @:C @:C @:C @:C @:C @:C @:C @:C @:C @:C @:C @:C @:C @:C @:C @:C @:C @:C @:C @:C @:C @:C @:C @:C @:C @:C :C :C :C :C :C :C :C :C :C :C :C :C :C :C :C >:C >:C >:C >:C >:C >:C >:C >:C >:C >:C >:C >:C >:C >:C >:C >:C >:C >:C >:C >:C >:C >:C >:C >:C >:C >:C >:C >:C >:C >:C >:C >:C >:C >:C >:C >:C >:C >:C >:C >:C >:C >:C >:C >:C >:C >:C >:C >:C >:C >:C >:C >:C >:C >:C >:C >:C >:C >:C >:C >:C >:C >:C >:C >:C >:C >:C >:C >:C >:C >:C >:C >:C >:C >:C :C :C :C :C :C@ :C@ :C@ :C@ :C@ :C@ :C@ :C@ :C@ :C@ :C@ :C@ :C@ :C@ :C@ :C@ :C@ :C@ :C@ :C@ :C@ :C@ :C@ :C@ :C@ :C@ :C@ :C@ :C@ :C@ :C@ :C@ :C@ :C@ :C@ :C@ :C@ :C@ :C@ :C@ :C@ :C@ :C@ :C@ :C@ :C@ :C@ :C@ :C@ :C@ :C@ :C@ :C@ :C@ :C@ :C@ :C@ :C@ :C@ :C@ :C@ :C@ :C@ :C@ :C@ :C@ :C@ :C@ :C@ :C@ :C@ :C@ :C@ :C@ :C@ :C@ :C@ :C@ :C@ :C@ :C@ :C@ :C@ :C@ :C@ :C@ :C@ :C@ :C@ :C@ :C@ :C@ :C@ :C@ :C@ :C@ :C@ :C@ :C@ :C@ :C@ :C@ :C@ :C@ :C@ :C@ :C@ :C@ :C@ :C@ :C@ :C@ :C@ :C@ :C@ :C@ :C@ :C@ :C@ :C@ :C@ :C@ :C@ :C@ :C@ :C@ :C@ :C@ :C@ :C@ :C@ :C@ :C@ :C@ :C@ :C@ :C@ :C@ :C@ :C@ :C@ :C@ :C@ :C@ :C@ :C@ :C@ :C@ :C@ :C@ :C@ C@ C@ C@ C@ C@1 C@1 C@1 C@1 C@1 C@1 C@1 C@1 C@1 C@1 C@1 C@1 C@1 C@1 C@1 C@1 C@1 C@1 C@1 C@1 C@1 C@1 C@1 C@1 C@1 C@1 C@1 C@1 C@1 C@1 C@1 C@1 C@1 C@1 C@1 C@1 C@1 C@1 C@1 C@1 C@1 C@1 C@1 C@1 C@1 C@1 C@1 C@1 C@1 C@1 C@1 C@1 C@1 C@1 C@1 C@1 C@1 C@1 C@1 C@1 C@1 C@1 C@1 C@1 C@1 C@1 C@1 C@1 C@1 C@1 C@1 C@1 C@1 C@1 C@1 C@1 C@1 C@1 C@1 C@1 C@1 C@1 C@1 C@1 C@1 C@1 C@1 C@1 C@1 C@1 C@1 C@1 C@1 C@1 C@1 C@1 C@1 C@1 C@1 C@1 C@1 C@1 C@1 C@1 C@1 C@1 C@1 C@1 C@1 C@1 C@1 C@1 C@1 C@1 C@1 C@1 C@1 C@1 C@1 C@1 C@1 C@1 C@1 C@1 C@1 C@1 C@1 C@1 C@1 C@1 C@1 C@1 C@1 C@1 C@1 C@1 C@1 C@1 C@1 C@1 C@1 C@1 @1 @1 @1 @1 @1 @1 @1 @1 @1 @1 @1 @1 @1 @1 @1E @1E @1E @1E @1E @1E @1E @1E @1E @1E @1E @1E @1E @1E @1E @1E @1E @1E @1E @1E @1E @1E @1E @1E @1E @1E @1E @1E @1E @1E @1E @1E @1E @1E @1E @1E @1E @1E @1E @1E @1E @1E @1E @1E @1E @1E @1E @1E @1E @1E @1E @1E @1E @1E @1E @1E @1E @1E @1E @1E @1E @1E @1E @1E @1E @1E @1E @1E @1E @1E @1E @1E @1E @1E @1E @1E @1E @1E @1E @1E @1E @1E @1E @1E @1E @1E @1E @1E @1E @1E @1E @1E @1E @1E @1E @1E @1E @1E @1E @1E @1E @1E @1E @1E @1E @1E @1E @1E @1E @1E @1E @1E @1E @1E @1E @1E @1E @1E @1E @1E @1E @1E @1E @1E @1E @1E @1E @1E @1E @1E @1E @1E @1E @1E @1E @1E @1E @1E @1E @1E @1E @1E 1E 1E 1E 1E 1E 1E 1E 1E 1E E    2A> 2A> 2A> 2A> 2A> 2A> 2A> 2A> 2A> 2A> 2A> 2A> 2A> 2A> 2A> 2A> 2A> 2A> 2A> 2A> 2A> 2A> 2A> 2A> 2A> 2A> 2A> 2A> 2A> 2A> 2A> 2A> 2A> 2A> 2A> 2A> 2A> 2A> 2A> 2A> 2A> 2A> 2A> 2A> 2A> 2A> 2A> 2A> 2A> 2A> 2A> 2A> 2A> 2A> 2A> 2A> 2A> 2A> 2A> 2A> 2A> 2A> 2A> 2A> 2A> 2A> 2A> 2A> 2A> 2A> 2A> 2A> 2A> 2A> 2A> 2A> 2A> 2A> 2A> 2A> 2A> 2A> 2A> 2A> 2A> 2A> 2A> 2A> 2A> 2A> 2A> 2A> 2A> 2A> 2A> 2A> 2A> 2A> 2A> 2A> 2A> 2A> 2A> 2A> 2A> 2A> 2A> 2A> 2A> 2A> 2A> 2A> 2A> 2A> 2A> 2A> 2A> 2A> 2A> 2A> 2A> 2A> 2A> 2A> 2A> 2A> 2A> 2A> 2A> 2A> 2A> 2A> 2A> 2A> 2A> 2A> 2A> 2A> 2A> 2A> 2A> 2A> 2A> 2A> 2A> 2A> 2A> 2A> 2A> 2A> 2A> 2A> 2A> 2A> 2A> 2A> 2A> 2A> 2A> 2A> 2A> 2A> 2A> 2A> 2A> 2A> 2A> 2A> 2A> 2A> 2A> 2A> 2A> 2A> 2A> 2A> 2A> 2A> 2A> 2A> 2A> 2A> 2A> 2A> 2A> 2A> 2A> 2A> 2A> 2A> 2A> 2A> 2A> 2A> 2A> 2A> 2A> 2A> 2A> 2A> 2A> 2A> 2A> 2A> 2A> 2A> 2A> 2A> 2A> 2A> 2A> 2A> 2A> 2A> 2A> 2A> 2A> 2A> 2A> 2A> 2A> 2A> 2A> 2A> 2A> 2A> 2A> 2A> 2A> 2A> 2A> 2A> 2A> 2A> 2A> 2A> 2A> 2A> 2A> 2A> 2A> 2A> 2A> 2A> 2A> 2A> 2A> 2A> 2A> 2A> 2A> 2A> 2A> 2A> 2A> 2A> 2A> 2A> 2A> 2A> 2A> 2A> 2A> 2A> 2A> 2A> 2A> 2A> 2A> 2A> 2A> 2A> 2A> 2A> 2A> 2A> 2A> 2A> 2A> 2A> 2A> 2A> 2A> 2A> 2A> 2A> 2A> 2A> 2A> 2A> 2A> 2A> 2A> 2A> 2A> 2A> 2A> 2A> 2A> 2A> 2A> 2A> 2A> 2A> 2A> 2A> 2A> A> A> A> A> A>7 A>7 A>7 A>7 A>7 A>7 A>7 A>7 A>7 A>7 A>7 A>7 A>7 A>7 A>7 A>7 A>7 A>7 A>7 A>7 A>7 A>7 A>7 A>7 A>7 A>7 A>7 A>7 A>7 A>7 A>7 A>7 A>7 A>7 A>7 A>7 A>7 A>7 A>7 A>7 A>7 A>7 A>7 A>7 A>7 A>7 A>7 A>7 A>7 A>7 A>7 A>7 A>7 A>7 A>7 A>7 A>7 A>7 A>7 A>7 A>7 A>7 A>7 A>7 A>7 A>7 A>7 A>7 A>7 A>7 A>7 A>7 A>7 A>7 A>7 A>7 A>7 A>7 A>7 A>7 A>7 A>7 A>7 A>7 A>7 A>7 A>7 A>7 A>7 A>7 A>7 A>7 A>7 A>7 A>7 A>7 A>7 A>7 A>7 A>7 A>7 A>7 A>7 A>7 A>7 A>7 A>7 A>7 A>7 A>7 A>7 A>7 A>7 A>7 A>7 A>7 A>7 A>7 A>7 A>7 A>7 A>7 A>7 A>7 A>7 A>7 A>7 A>7 A>7 A>7 A>7 A>7 A>7 A>7 A>7 A>7 A>7 A>7 A>7 A>7 A>7 A>7 A>7 A>7 A>7 A>7 A>7 A>7 A>7 A>7 A>7 A>7 >7 >7 >7 >7 >7@ >7@ >7@ >7@ >7@ >7@ >7@ >7@ >7@ >7@ >7@ >7@ >7@ >7@ >7@ >7@ >7@ >7@ >7@ >7@ >7@ >7@ >7@ >7@ >7@ >7@ >7@ >7@ >7@ >7@ >7@ >7@ >7@ >7@ >7@ >7@ >7@ >7@ >7@ >7@ >7@ >7@ >7@ >7@ >7@ >7@ >7@ >7@ >7@ >7@ >7@ >7@ >7@ >7@ >7@ >7@ >7@ >7@ >7@ >7@ >7@ >7@ >7@ >7@ >7@ >7@ >7@ >7@ >7@ >7@ >7@ >7@ >7@ >7@ >7@ >7@ >7@ >7@ >7@ >7@ >7@ >7@ >7@ >7@ >7@ >7@ >7@ >7@ >7@ >7@ >7@ >7@ >7@ >7@ >7@ >7@ >7@ >7@ >7@ >7@ >7@ >7@ >7@ >7@ >7@ >7@ >7@ >7@ >7@ >7@ >7@ >7@ >7@ >7@ >7@ >7@ >7@ >7@ >7@ >7@ >7@ >7@ >7@ >7@ >7@ >7@ >7@ >7@ >7@ >7@ >7@ >7@ >7@ >7@ >7@ >7@ >7@ >7@ >7@ >7@ >7@ >7@ >7@ >7@ >7@ >7@ >7@ >7@ 7@ 7@ 7@ @    A9= A9= A9= A9= A9= A9= A9= A9= A9= A9= A9= A9= A9= A9= A9= A9= A9= A9= A9= A9= A9= A9= A9= A9= A9= A9= A9= A9= A9= A9= A9= A9= A9= A9= A9= A9= A9= A9= A9= A9= A9= A9= A9= A9= A9= A9= A9= A9= A9= A9= A9= A9= A9= A9= A9= A9= A9= A9= A9= A9= A9= A9= A9= A9= A9= A9= A9= A9= A9= A9= A9= A9= A9= A9= 9= 9= 9= 9= @9= @9= @9= @9= @9= @9= @9= @9= @9= @9= @9= @9= @9= @9= @9= @9= @9= @9= @9= @9= @9= @9= @9= @9= @9= @9= @9= @9= @9= @9= @9= @9= @9= @9= @9= @9= @9= @9= @9= @9= @9= @9= @9= @9= @9= @9= @9= @9= @9= @9= @9= @9= @9= @9= @9= @9= @9= @9= @9= @9= @9= @9= @9= @9= @9= @9= @9= @9= @9= @9= @9= @9= @9= @9= 9= 9= 9= 9= A9= A9= A9= A9= A9= A9= A9= A9= A9= A9= A9= A9= A9= A9= A9= A9= A9= A9= A9= A9= A9= A9= A9= A9= A9= A9= A9= A9= A9= A9= A9= A9= A9= A9= A9= A9= A9= A9= A9= A9= A9= A9= A9= A9= A9= A9= A9= A9= A9= A9= A9= A9= A9= A9= A9= A9= A9= A9= A9= A9= A9= A9= A9= A9= A9= A9= A9= A9= A9= A9= A9= A9= A9= A9= 9= 9= 9= 9= 9@= 9@= 9@= 9@= 9@= 9@= 9@= 9@= 9@= 9@= 9@= 9@= 9@= 9@= 9@= 9@= 9@= 9@= 9@= 9@= 9@= 9@= 9@= 9@= 9@= 9@= 9@= 9@= 9@= 9@= 9@= 9@= 9@= 9@= 9@= 9@= 9@= 9@= 9@= 9@= 9@= 9@= 9@= 9@= 9@= 9@= 9@= 9@= 9@= 9@= 9@= 9@= 9@= 9@= 9@= 9@= 9@= 9@= 9@= 9@= 9@= 9@= 9@= 9@= 9@= 9@= 9@= 9@= 9@= 9@= 9@= 9@= 9@= @= = = = A=- A=- A=- A=- A=- A=- A=- A=- A=- A=- A=- A=- A=- A=- A=- A=- A=- A=- A=- A=- A=- A=- A=- A=- A=- A=- A=- A=- A=- A=- A=- A=- A=- A=- A=- A=- A=- A=- A=- A=- A=- A=- A=- A=- A=- A=- A=- A=- A=- A=- A=- A=- A=- A=- A=- A=- A=- A=- A=- A=- A=- A=- A=- A=- A=- A=- A=- A=- A=- A=- A=- A=- A=- A=- =- =- =- =- @=- @=- @=- @=- @=- @=- @=- @=- @=- @=- @=- @=- @=- @=- @=- @=- @=- @=- @=- @=- @=- @=- @=- @=- @=- @=- @=- @=- @=- @=- @=- @=- @=- @=- @=- @=- @=- @=- @=- @=- @=- @=- @=- @=- @=- @=- @=- @=- @=- @=- @=- @=- @=- @=- @=- @=- @=- @=- @=- @=- @=- @=- @=- @=- @=- @=- @=- @=- @=- @=- @=- @=- @=- @=- =- =- =- =- =-> =-> =-> =-> =-> =-> =-> =-> =-> =-> =-> =-> =-> =-> =-> =-> =-> =-> =-> =-> =-> =-> =-> =-> =-> =-> =-> =-> =-> =-> =-> =-> =-> =-> =-> =-> =-> =-> =-> =-> =-> =-> =-> =-> =-> =-> =-> =-> =-> =-> =-> =-> =-> =-> =-> =-> =-> =-> =-> =-> =-> =-> =-> =-> =-> =-> =-> =-> =-> =-> =-> =-> =-> =-> =-> =-> =-> =-> =-> =-> =-> =-> =-> =-> =-> =-> =-> =-> =-> =-> =-> =-> =-> =-> =-> =-> =-> =-> =-> =-> =-> =-> =-> =-> =-> =-> =-> =-> =-> =-> =-> =-> =-> =-> =-> =-> =-> =-> =-> =-> =-> =-> =-> =-> =-> =-> =-> =-> =-> =-> =-> =-> =-> =-> =-> =-> =-> =-> =-> =-> =-> =-> =-> =-> =-> =-> =-> =-> -> -> -> >    >& >& >& >& >& >& >& >& >& >& >& >& >& >& >& >& >& >& >& >& >& >& >& >& >& >& >& >& >& >& >& >& >& >& >& >& >& >& >& >& >& >& >& >& >& >& >& >& >& >& >& >& >& >& >& >& >& >& >& >& >& >& >& >& >& >& >& >& >& >& >& >& >& >& >& >& >& >& >& >& >& >& >& >& >& >& >& >& >& >& >& >& >& >& >& >& >& >& >& >& >& >& >& >& >& >& >& >& >& >& >& >& >& >& >& >& >& >& >& >& >& >& >& >& >& >& >& >& >& >& >& >& >& >& >& >& >& >& >& >& >& >& >& >& >& >& >& >& >& >& >& >& & & & & @& @& @& @& @& @& @& @& @& @& @& @& @& @& @& @& @& @& @& @& @& @& @& @& @& @& @& @& @& @& @& @& @& @& @& @& @& @& @& @& @& @& @& @& @& @& @& @& @& @& @& @& @& @& @& @& @& @& @& @& @& @& @& @& @& @& @& @& @& @& @& @& @& @& @& @& @& @& @& @& @& @& @& @& @& @& @& @& @& @& @& @& @& @& @& @& @& @& @& @& @& @& @& @& @& @& @& @& @& @& @& @& @& @& @& @& @& @& @& @& @& @& @& @& @& @& @& @& @& @& @& @& @& @& @& @& @& @& @& @& @& @& @& @& @& @& @& @& @& @& @& @& & & & A& A& A& A& A& A& A& A& A& A& A& A& A& A& A& A& A& A& A& A& A& A& A& A& A& A& A& A& A& A& A& A& A& A& A& A& A& A& A& A& A& A& A& A& A& A& A& A& A& A& A& A& A& A& A& A& A& A& A& A& A& A& A& A& A& A& A& A& A& A& A& A& A& A& A& A& A& A& A& A& A& A& A& A& A& A& A& A& A& A& A& A& A& A& A& A& A& A& A& A& A& A& A& A& A& A& A& A& A& A& A& A& A& A& A& A& A& A& A& A& A& A& A& A& A& A& A& A& A& A& A& A& A& A& A& A& A& A& A& A& A& A& A& A& A& A& A& A& A& A& A& A& & & & & >& >& >& >& >& >& >& >& >& >& >& >& >& >& >& >& >& >& >& >& >& >& >& >& >& >& >& >& >& >& >& >& >& >& >& >& >& >& >& >& >& >& >& >& >& >& >& >& >& >& >& >& >& >& >& >& >& >& >& >& >& >& >& >& >& >& >& >& >& >& >& >& >& >& >& >& >& >& >& >& >& >& >& >& >& >& >& >& >& >& >& >& >& >& >& >& >& >& >& >& >& >& >& >& >& >& >& >& >& >& >& >& >& >& >& >& >& >& >& >& >& >& >& >& >& >& >& >& >& >& >& >& >& >& >& >& >& >& >& >& >& >& >& >& >& >& >& >& >& >& >& >& & & & =& =& =& =& =& =& =& =& =& =& =& =& =& =& =& =& =& =& =& =& =& =& =& =& =& =& =& =& =& =& =& =& =& =& =& =& =& =& =& =& =& =& =& =& =& =& =& =& =& =& =& =& =& =& =& =& =& =& =& =& =& =& =& =& =& =& =& =& =& =& =& =& =& =& =& =& =& =& =& =& =& =& =& =& =& =& =& =& =& =& =& =& =& =& =& =& =& =& =& =& =& =& =& =& =& =& =& =& =& =& =& =& =& =& =& =& =& =& =& =& =& =& =& =& =& =& =& =& =& =& =& =& =& =& =& =& =& =& =& =& =& =& =& =& =& =& =& =& =& =& =& =& & & &  > > > > > > > > > > > > > > > > > > > > > > > > > > > > > > > > > > > > > > > > > > > > > > > > > > > > > > > > > > > > > > > > > > > > > > > > > > > > > > > > > > > > > > > > > > > > > > > > > > > > > > > > > > > > > > > > > > > > > > > > > > > > > > > > > > > > > > > > > > > > > > > > > > > > > > > >     9 9 9 9 9 9 9 9 9 9 9 9 9 9 9 9 9 9 9 9 9 9 9 9 9 9 9 9 9 9 9 9 9 9 9 9 9 9 9 9 9 9 9 9 9 9 9 9 9 9 9 9 9 9 9 9 9 9 9 9 9 9 9 9 9 9 9 9 9 9 9 9 9 9 9 9 9 9 9 9 9 9 9 9 9 9 9 9 9 9 9 9 9 9 9 9 9 9 9 9 9 9 9 9 9 9 9 9 9 9 9 9 9 9 9 9 9 9 9 9 9 9 9 9 9 9 9 9 9 9 9 9 9 9 9 9 9 9 9 9 9 9 9 9 9 9 9 9 9 9 9 9    > > > > > > > > > > > > > > > > > > > > > > > > > > > > > > > > > > > > > > > > > > > > > > > > > > > > > > > > > > > > > > > > > > > > > > > > > > > > > > > > > > > > > > > > > > > > > > > > > > > > > > > > > > > > > > > > > > > > > > > > > > > > > > > > > > > > > > > > > > > > > > > > > > > > > > > >     A A A A A A A A A A A A A A A A A A A A A A A A A A A A A A A A A A A A A A A A A A A A A A A A A A A A A A A A A A A A A A A A A A A A A A A A A A A A A A A A A A A A A A A A A A A A A A A A A A A A A A A A A A A A A A A A A A A A A A A A A A A A A A A A A A A A A A A A A A A A A A A A A A A A A A A A    > > > > > > > > > > > > > > > > > > > > > > > > > > > > > > > > > > > > > > > > > > > > > > > > > > > > > > > > > > > > > > > > > > > > > > > > > > > > > > > > > > > > > > > > > > > > > > > > > > > > > > > > > > > > > > > > > > > > > > > > > > > > > > > > > > > > > > > > > > > > > > > > > > > > > > > >     D D D D D D D D D D D D D D D D D D D D D D D D D D D D D D D D D D D D D D D D D D D D D D D D D D D D D D D D D D D D D D D D D D D D D D D D D D D D D D D D D D D D D D D D D D D D D D D D D D D D D D D D D D D D D D D D D D D D D D D D D D D D D D D D D D D D D D D D D D D D D D D D D D D D D D D D    > > > > > > > > > > > > > > > > > > > > > > > > > > > > > > > > > > > > > > > > > > > > > > > > > > > > > > > > > > > > > > > > > > > > > > > > > > > > > > > > > > > > > > > > > > > > > > > > > > > > > > > > > > > > > > > > > > > > > > > > > > > > > > > > > > > > > > > > > > > > > > > > > > > > > > > >     E E E E E E E E E E E E E E E E E E E E E E E E E E E E E E E E E E E E E E E E E E E E E E E E E E E E E E E E E E E E E E E E E E E E E E E E E E E E E E E E E E E E E E E E E E E E E E E E E E E E E E E E E E E E E E E E E E E E E E E E E E E E E E E E E E E E E E E E E E E E E E E E E E E E E E E E E E E 9E 9E 9E 9E 9E 9E 9E 9E 9E 9E 9E 9E 9E 9E 9E 9E 9E 9E 9E 9E 9E 9E 9E 9E 9E 9E 9E 9E 9E 9E 9E 9E 9E 9E 9E 9E 9E 9E 9E 9E 9E 9E 9E 9E 9E 9E 9E 9E 9E 9E 9E 9E 9E 9E 9E 9E 9E 9E 9E 9E 9E 9E 9E 9E 9E 9E 9E 9E 9E 9E 9E 9E 9E 9E E E E E ;E ;E ;E ;E ;E ;E ;E ;E ;E ;E ;E ;E ;E ;E ;E ;E ;E ;E ;E ;E ;E ;E ;E ;E ;E ;E ;E ;E ;E ;E ;E ;E ;E ;E ;E ;E ;E ;E ;E ;E ;E ;E ;E ;E ;E ;E ;E ;E ;E ;E ;E ;E ;E ;E ;E ;E ;E ;E ;E ;E ;E ;E ;E ;E ;E ;E ;E ;E ;E ;E ;E ;E ;E ;E     <L <L <L <L <L <L <L <L <L <L <L <L <L <L <L <L <L <L <L <L <L <L <L <L <L <L <L <L <L <L <L <L <L <L <L <L <L <L <L <L <L <L <L <L <L <L <L <L <L <L <L <L <L <L <L <L <L <L <L <L <L <L <L <L <L <L <L <L <L <L <L <L <L <L <L <L <L <L <L <L <L <L <L <L <L <L <L <L <L <L <L <L <L <L <L <L <L <L <L <L <L <L <L <L <L <L <L <L <L <L <L <L <L <L <L <L <L <L <L <L <L <L <L <L <L <L <L <L <L <L <L <L <L <L <L <L <L <L <L <L <L <L <L <L <L <L <L <L <L <L <L <L L L L 9L 9L 9L 9L 9L 9L 9L 9L 9L 9L 9L 9L 9L 9L 9L 9L 9L 9L 9L 9L 9L 9L 9L 9L 9L 9L 9L 9L 9L 9L 9L 9L 9L 9L 9L 9L 9L 9L 9L 9L 9L 9L 9L 9L 9L 9L 9L 9L 9L 9L 9L 9L 9L 9L 9L 9L 9L 9L 9L 9L 9L 9L 9L 9L 9L 9L 9L 9L 9L 9L 9L 9L 9L 9L 9L 9L 9L 9L 9L 9L 9L 9L 9L 9L 9L 9L 9L 9L 9L 9L 9L 9L 9L 9L 9L 9L 9L 9L 9L 9L 9L 9L 9L 9L 9L 9L 9L 9L 9L 9L 9L 9L 9L 9L 9L 9L 9L 9L 9L 9L 9L 9L 9L 9L 9L 9L 9L 9L 9L 9L 9L 9L 9L 9L 9L 9L 9L 9L 9L 9L 9L 9L 9L 9L 9L 9L 9L 9L 9L 9L 9L 9L     8L 8L 8L 8L 8L 8L 8L 8L 8L 8L 8L 8L 8L 8L 8L 8L 8L 8L 8L 8L 8L 8L 8L 8L 8L 8L 8L 8L 8L 8L 8L 8L 8L 8L 8L 8L 8L 8L 8L 8L 8L 8L 8L 8L 8L 8L 8L 8L 8L 8L 8L 8L 8L 8L 8L 8L 8L 8L 8L 8L 8L 8L 8L 8L 8L 8L 8L 8L 8L 8L 8L 8L 8L 8L 8L 8L 8L 8L 8L 8L 8L 8L 8L 8L 8L 8L 8L 8L 8L 8L 8L 8L 8L 8L 8L 8L 8L 8L 8L 8L 8L 8L 8L 8L 8L 8L 8L 8L 8L 8L 8L 8L 8L 8L 8L 8L 8L 8L 8L 8L 8L 8L 8L 8L 8L 8L 8L 8L 8L 8L 8L 8L 8L 8L 8L 8L 8L 8L 8L 8L 8L 8L 8L 8L 8L 8L 8L 8L 8L 8L 8L 8L L L L 9L 9L 9L 9L 9L 9L 9L 9L 9L 9L 9L 9L 9L 9L 9L 9L 9L 9L 9L 9L 9L 9L 9L 9L 9L 9L 9L 9L 9L 9L 9L 9L 9L 9L 9L 9L 9L 9L 9L 9L 9L 9L 9L 9L 9L 9L 9L 9L 9L 9L 9L 9L 9L 9L 9L 9L 9L 9L 9L 9L 9L 9L 9L 9L 9L 9L 9L 9L 9L 9L 9L 9L 9L 9L 9L 9L 9L 9L 9L 9L 9L 9L 9L 9L 9L 9L 9L 9L 9L 9L 9L 9L 9L 9L 9L 9L 9L 9L 9L 9L 9L 9L 9L 9L 9L 9L 9L 9L 9L 9L 9L 9L 9L 9L 9L 9L 9L 9L 9L 9L 9L 9L 9L 9L 9L 9L 9L 9L 9L 9L 9L 9L 9L 9L 9L 9L 9L 9L 9L 9L 9L 9L 9L 9L 9L 9L 9L 9L 9L 9L 9L 9L     4H 4H 4H 4H 4H 4H 4H 4H 4H 4H 4H 4H 4H 4H 4H 4H 4H 4H 4H 4H 4H 4H 4H 4H 4H 4H 4H 4H 4H 4H 4H 4H 4H 4H 4H 4H 4H 4H 4H 4H 4H 4H 4H 4H 4H 4H 4H 4H 4H 4H 4H 4H 4H 4H 4H 4H 4H 4H 4H 4H 4H 4H 4H 4H 4H 4H 4H 4H 4H 4H 4H 4H 4H 4H 4H 4H 4H 4H 4H 4H 4H 4H 4H 4H 4H 4H 4H 4H 4H 4H 4H 4H 4H 4H 4H 4H 4H 4H 4H 4H 4H 4H 4H 4H 4H 4H 4H 4H 4H 4H 4H 4H 4H 4H 4H 4H 4H 4H 4H 4H 4H 4H 4H 4H 4H 4H 4H 4H 4H 4H 4H 4H 4H 4H 4H 4H 4H 4H 4H 4H 4H 4H 4H 4H 4H 4H 4H 4H 4H 4H 4H 4H H H H 9H 9H 9H 9H 9H 9H 9H 9H 9H 9H 9H 9H 9H 9H 9H 9H 9H 9H 9H 9H 9H 9H 9H 9H 9H 9H 9H 9H 9H 9H 9H 9H 9H 9H 9H 9H 9H 9H 9H 9H 9H 9H 9H 9H 9H 9H 9H 9H 9H 9H 9H 9H 9H 9H 9H 9H 9H 9H 9H 9H 9H 9H 9H 9H 9H 9H 9H 9H 9H 9H 9H 9H 9H 9H 9H 9H 9H 9H 9H 9H 9H 9H 9H 9H 9H 9H 9H 9H 9H 9H 9H 9H 9H 9H 9H 9H 9H 9H 9H 9H 9H 9H 9H 9H 9H 9H 9H 9H 9H 9H 9H 9H 9H 9H 9H 9H 9H 9H 9H 9H 9H 9H 9H 9H 9H 9H 9H 9H 9H 9H 9H 9H 9H 9H 9H 9H 9H 9H 9H 9H 9H 9H 9H 9H 9H 9H 9H 9H 9H 9H 9H 9H     <E <E <E <E <E <E <E <E <E <E <E <E <E <E <E <E <E <E <E <E <E <E <E <E <E <E <E <E <E <E <E <E <E <E <E <E <E <E <E <E <E <E <E <E <E <E <E <E <E <E <E <E <E <E <E <E <E <E <E <E <E <E <E <E <E <E <E <E <E <E <E <E <E <E <E <E <E <E <E <E <E <E <E <E <E <E <E <E <E <E <E <E <E <E <E <E <E <E <E <E <E <E <E <E <E <E <E <E <E <E <E <E <E <E <E <E <E <E <E <E <E <E <E <E <E <E <E <E <E <E <E <E <E <E <E <E <E <E <E <E <E <E <E <E <E <E <E <E <E <E <E <E E E E 9E 9E 9E 9E 9E 9E 9E 9E 9E 9E 9E 9E 9E 9E 9E 9E 9E 9E 9E 9E 9E 9E 9E 9E 9E 9E 9E 9E 9E 9E 9E 9E 9E 9E 9E 9E 9E 9E 9E 9E 9E 9E 9E 9E 9E 9E 9E 9E 9E 9E 9E 9E 9E 9E 9E 9E 9E 9E 9E 9E 9E 9E 9E 9E 9E 9E 9E 9E 9E 9E 9E 9E 9E 9E 9E 9E 9E 9E 9E 9E 9E 9E 9E 9E 9E 9E 9E 9E 9E 9E 9E 9E 9E 9E 9E 9E 9E 9E 9E 9E 9E 9E 9E 9E 9E 9E 9E 9E 9E 9E 9E 9E 9E 9E 9E 9E 9E 9E 9E 9E 9E 9E 9E 9E 9E 9E 9E 9E 9E 9E 9E 9E 9E 9E 9E 9E 9E 9E 9E 9E 9E 9E 9E 9E 9E 9E 9E 9E 9E 9E 9E 9E     ?E ?E ?E ?E ?E ?E ?E ?E ?E ?E ?E ?E ?E ?E ?E ?E ?E ?E ?E ?E ?E ?E ?E ?E ?E ?E ?E ?E ?E ?E ?E ?E ?E ?E ?E ?E ?E ?E ?E ?E ?E ?E ?E ?E ?E ?E ?E ?E ?E ?E ?E ?E ?E ?E ?E ?E ?E ?E ?E ?E ?E ?E ?E ?E ?E ?E ?E ?E ?E ?E ?E ?E ?E ?E ?E ?E ?E ?E ?E ?E ?E ?E ?E ?E ?E ?E ?E ?E ?E ?E ?E ?E ?E ?E ?E ?E ?E ?E ?E ?E ?E ?E ?E ?E ?E ?E ?E ?E ?E ?E ?E ?E ?E ?E ?E ?E ?E ?E ?E ?E ?E ?E ?E ?E ?E ?E ?E ?E ?E ?E ?E ?E ?E ?E ?E ?E ?E ?E ?E ?E ?E ?E ?E ?E ?E ?E ?E ?E ?E ?E ?E ?E E E E 9E 9E 9E 9E 9E 9E 9E 9E 9E 9E 9E 9E 9E 9E 9E 9E 9E 9E 9E 9E 9E 9E 9E 9E 9E 9E 9E 9E 9E 9E 9E 9E 9E 9E 9E 9E 9E 9E 9E 9E 9E 9E 9E 9E 9E 9E 9E 9E 9E 9E 9E 9E 9E 9E 9E 9E 9E 9E 9E 9E 9E 9E 9E 9E 9E 9E 9E 9E 9E 9E 9E 9E 9E 9E 9E 9E 9E 9E 9E 9E 9E 9E 9E 9E 9E 9E 9E 9E 9E 9E 9E 9E 9E 9E 9E 9E 9E 9E 9E 9E 9E 9E 9E 9E 9E 9E 9E 9E 9E 9E 9E 9E 9E 9E 9E 9E 9E 9E 9E 9E 9E 9E 9E 9E 9E 9E 9E 9E 9E 9E 9E 9E 9E 9E 9E 9E 9E 9E 9E 9E 9E 9E 9E 9E 9E 9E 9E 9E 9E 9E 9E 9E     E@ E@ E@ E@ E@ E@ E@ E@ E@ E@ E@ E@ E@ E@ E@ E@ E@ E@ E@ E@ E@ E@ E@ E@ E@ E@ E@ E@ E@ E@ E@ E@ E@ E@ E@ E@ E@ E@ E@ E@ E@ E@ E@ E@ E@ E@ E@ E@ E@ E@ E@ E@ E@ E@ E@ E@ E@ E@ E@ E@ E@ E@ E@ E@ E@ E@ E@ E@ E@ E@ E@ E@ E@ E@ E@ E@ E@ E@ E@ E@ E@ E@ E@ E@ E@ E@ E@ E@ E@ E@ E@ E@ E@ E@ E@ E@ E@ E@ E@ E@ E@ E@ E@ E@ E@ E@ E@ E@ E@ E@ E@ E@ E@ E@ E@ E@ E@ E@ E@ E@ E@ E@ E@ E@ E@ E@ E@ E@ E@ E@ E@ E@ E@ E@ E@ E@ E@ E@ E@ E@ E@ E@ E@ E@ E@ E@ E@ E@ E@ E@ E@ E@ @ @ @ B@ B@ B@ B@ B@ B@ B@ B@ B@ B@ B@ B@ B@ B@ B@ B@ B@ B@ B@ B@ B@ B@ B@ B@ B@ B@ B@ B@ B@ B@ B@ B@ B@ B@ B@ B@ B@ B@ B@ B@ B@ B@ B@ B@ B@ B@ B@ B@ B@ B@ B@ B@ B@ B@ B@ B@ B@ B@ B@ B@ B@ B@ B@ B@ B@ B@ B@ B@ B@ B@ B@ B@ B@ B@ B@ B@ B@ B@ B@ B@ B@ B@ B@ B@ B@ B@ B@ B@ B@ B@ B@ B@ B@ B@ B@ B@ B@ B@ B@ B@ B@ B@ B@ B@ B@ B@ B@ B@ B@ B@ B@ B@ B@ B@ B@ B@ B@ B@ B@ B@ B@ B@ B@ B@ B@ B@ B@ B@ B@ B@ B@ B@ B@ B@ B@ B@ B@ B@ B@ B@ B@ B@ B@ B@ B@ B@ B@ B@ B@ B@ B@ B@     C@ C@ C@ C@ C@ C@ C@ C@ C@ C@ C@ C@ C@ C@ C@ C@ C@ C@ C@ C@ C@ C@ C@ C@ C@ C@ C@ C@ C@ C@ C@ C@ C@ C@ C@ C@ C@ C@ C@ C@ C@ C@ C@ C@ C@ C@ C@ C@ C@ C@ C@ C@ C@ C@ C@ C@ C@ C@ C@ C@ C@ C@ C@ C@ C@ C@ C@ C@ C@ C@ C@ C@ C@ C@ C@ C@ C@ C@ C@ C@ C@ C@ C@ C@ C@ C@ C@ C@ C@ C@ C@ C@ C@ C@ C@ C@ C@ C@ C@ C@ C@ C@ C@ C@ C@ C@ C@ C@ C@ C@ C@ C@ C@ C@ C@ C@ C@ C@ C@ C@ C@ C@ C@ C@ C@ C@ C@ C@ C@ C@ C@ C@ C@ C@ C@ C@ C@ C@ C@ C@ C@ C@ C@ C@ C@ C@ C@ C@ C@ C@ C@ C@ @ @ @ G@ G@ G@ G@ G@ G@ G@ G@ G@ G@ G@ G@ G@ G@ G@ G@ G@ G@ G@ G@ G@ G@ G@ G@ G@ G@ G@ G@ G@ G@ G@ G@ G@ G@ G@ G@ G@ G@ G@ G@ G@ G@ G@ G@ G@ G@ G@ G@ G@ G@ G@ G@ G@ G@ G@ G@ G@ G@ G@ G@ G@ G@ G@ G@ G@ G@ G@ G@ G@ G@ G@ G@ G@ G@ G@ G@ G@ G@ G@ G@ G@ G@ G@ G@ G@ G@ G@ G@ G@ G@ G@ G@ G@ G@ G@ G@ G@ G@ G@ G@ G@ G@ G@ G@ G@ G@ G@ G@ G@ G@ G@ G@ G@ G@ G@ G@ G@ G@ G@ G@ G@ G@ G@ G@ G@ G@ G@ G@ G@ G@ G@ G@ G@ G@ G@ G@ G@ G@ G@ G@ G@ G@ G@ G@ G@ G@ G@ G@ G@ G@ G@ G@     H@ H@ H@ H@ H@ H@ H@ H@ H@ H@ H@ H@ H@ H@ H@ H@ H@ H@ H@ H@ H@ H@ H@ H@ H@ H@ H@ H@ H@ H@ H@ H@ H@ H@ H@ H@ H@ H@ H@ H@ H@ H@ H@ H@ H@ H@ H@ H@ H@ H@ H@ H@ H@ H@ H@ H@ H@ H@ H@ H@ H@ H@ H@ H@ H@ H@ H@ H@ H@ H@ H@ H@ H@ H@ H@ H@ H@ H@ H@ H@ H@ H@ H@ H@ H@ H@ H@ H@ H@ H@ H@ H@ H@ H@ H@ H@ H@ H@ H@ H@ H@ H@ H@ H@ H@ H@ H@ H@ H@ H@ H@ H@ H@ H@ H@ H@ H@ H@ H@ H@ H@ H@ H@ H@ H@ H@ H@ H@ H@ H@ H@ H@ H@ H@ H@ H@ H@ H@ H@ H@ H@ H@ H@ H@ H@ H@ H@ H@ H@ H@ H@ H@ @ @ @ C@ C@ C@ C@ C@ C@ C@ C@ C@ C@ C@ C@ C@ C@ C@ C@ C@ C@ C@ C@ C@ C@ C@ C@ C@ C@ C@ C@ C@ C@ C@ C@ C@ C@ C@ C@ C@ C@ C@ C@ C@ C@ C@ C@ C@ C@ C@ C@ C@ C@ C@ C@ C@ C@ C@ C@ C@ C@ C@ C@ C@ C@ C@ C@ C@ C@ C@ C@ C@ C@ C@ C@ C@ C@ C@ C@ C@ C@ C@ C@ C@ C@ C@ C@ C@ C@ C@ C@ C@ C@ C@ C@ C@ C@ C@ C@ C@ C@ C@ C@ C@ C@ C@ C@ C@ C@ C@ C@ C@ C@ C@ C@ C@ C@ C@ C@ C@ C@ C@ C@ C@ C@ C@ C@ C@ C@ C@ C@ C@ C@ C@ C@ C@ C@ C@ C@ C@ C@ C@ C@ C@ C@ C@ C@ C@ C@ C@ C@ C@ C@ C@ C@     A@ A@ A@ A@ A@ A@ A@ A@ A@ A@ A@ A@ A@ A@ A@ A@ A@ A@ A@ A@ A@ A@ A@ A@ A@ A@ A@ A@ A@ A@ A@ A@ A@ A@ A@ A@ A@ A@ A@ A@ A@ A@ A@ A@ A@ A@ A@ A@ A@ A@ A@ A@ A@ A@ A@ A@ A@ A@ A@ A@ A@ A@ A@ A@ A@ A@ A@ A@ A@ A@ A@ A@ A@ A@ A@ A@ A@ A@ A@ A@ A@ A@ A@ A@ A@ A@ A@ A@ A@ A@ A@ A@ A@ A@ A@ A@ A@ A@ A@ A@ A@ A@ A@ A@ A@ A@ A@ A@ A@ A@ A@ A@ A@ A@ A@ A@ A@ A@ A@ A@ A@ A@ A@ A@ A@ A@ A@ A@ A@ A@ A@ A@ A@ A@ A@ A@ A@ A@ A@ A@ A@ A@ A@ A@ A@ A@ A@ A@ A@ A@ A@ A@ @ @ @ @ @C @C @C @C @C @C @C @C @C @C @C @C @C @C @C @C @C @C @C @C @C @C @C @C @C @C @C @C @C @C @C @C @C @C @C @C @C @C @C @C @C @C @C @C @C @C @C @C @C @C @C @C @C @C @C @C @C @C @C @C @C @C @C @C @C @C @C @C @C @C @C @C @C @C @C @C @C @C @C @C @C @C @C @C @C @C @C @C @C @C @C @C @C @C @C @C @C @C @C @C @C @C @C @C @C @C @C @C @C @C @C @C @C @C @C @C @C @C @C @C @C @C @C @C @C @C @C @C @C @C @C @C @C @C @C @C @C @C @C @C @C @C @C @C @C @C @C @C @C @C @C C    E> E> E> E> E> E> E> E> E> E> E> E> E> E> E> E> E> E> E> E> E> E> E> E> E> E> E> E> E> E> E> E> E> E> E> E> E> E> E> E> E> E> E> E> E> E> E> E> E> E> E> E> E> E> E> E> E> E> E> E> E> E> E> E> E> E> E> E> E> E> E> E> E> E> E> E> E> E> E> E> E> E> E> E> E> E> E> E> E> E> E> E> E> E> E> E> E> E> E> E> E> E> E> E> E> E> E> E> E> E> E> E> E> E> E> E> E> E> E> E> E> E> E> E> E> E> E> E> E> E> E> E> E> E> E> E> E> E> E> E> E> E> E> E> E> E> E> E> E> E> E> E> > > > > >A >A >A >A >A >A >A >A >A >A >A >A >A >A >A >A >A >A >A >A >A >A >A >A >A >A >A >A >A >A >A >A >A >A >A >A >A >A >A >A >A >A >A >A >A >A >A >A >A >A >A >A >A >A >A >A >A >A >A >A >A >A >A >A >A >A >A >A >A >A >A >A >A >A >A >A >A >A >A >A >A >A >A >A >A >A >A >A >A >A >A >A >A >A >A >A >A >A >A >A >A >A >A >A >A >A >A >A >A >A >A >A >A >A >A >A >A >A >A >A >A >A >A >A >A >A >A >A >A >A >A >A >A >A >A >A >A >A >A >A >A >A >A >A >A >A >A >A >A >A >A A    F> F> F> F> F> F> F> F> F> F> F> F> F> F> F> F> F> F> F> F> F> F> F> F> F> F> F> F> F> F> F> F> F> F> F> F> F> F> F> F> F> F> F> F> F> F> F> F> F> F> F> F> F> F> F> F> F> F> F> F> F> F> F> F> F> F> F> F> F> F> F> F> F> F> F> F> F> F> F> F> F> F> F> F> F> F> F> F> F> F> F> F> F> F> F> F> F> F> F> F> F> F> F> F> F> F> F> F> F> F> F> F> F> F> F> F> F> F> F> F> F> F> F> F> F> F> F> F> F> F> F> F> F> F> F> F> F> F> F> F> F> F> F> F> F> F> F> F> F> F> F> F> > > > > >A >A >A >A >A >A >A >A >A >A >A >A >A >A >A >A >A >A >A >A >A >A >A >A >A >A >A >A >A >A >A >A >A >A >A >A >A >A >A >A >A >A >A >A >A >A >A >A >A >A >A >A >A >A >A >A >A >A >A >A >A >A >A >A >A >A >A >A >A >A >A >A >A >A >A >A >A >A >A >A >A >A >A >A >A >A >A >A >A >A >A >A >A >A >A >A >A >A >A >A >A >A >A >A >A >A >A >A >A >A >A >A >A >A >A >A >A >A >A >A >A >A >A >A >A >A >A >A >A >A >A >A >A >A >A >A >A >A >A >A >A >A >A >A >A >A >A >A >A >A >A A    @> @> @> @> @> @> @> @> @> @> @> @> @> @> @> @> @> @> @> @> @> @> @> @> @> @> @> @> @> @> @> @> @> @> @> @> @> @> @> @> @> @> @> @> @> @> @> @> @> @> @> @> @> @> @> @> @> @> @> @> @> @> @> @> @> @> @> @> @> @> @> @> @> @> @> @> @> @> @> @> @> @> @> @> @> @> @> @> @> @> @> @> @> @> @> @> @> @> @> @> @> @> @> @> @> @> @> @> @> @> @> @> @> @> @> @> @> @> @> @> @> @> @> @> @> @> @> @> @> @> @> @> @> @> @> @> @> @> @> @> @> @> @> @> @> @> @> @> @> @> @> @> > > > > >C >C >C >C >C >C >C >C >C >C >C >C >C >C >C >C >C >C >C >C >C >C >C >C >C >C >C >C >C >C >C >C >C >C >C >C >C >C >C >C >C >C >C >C >C >C >C >C >C >C >C >C >C >C >C >C >C >C >C >C >C >C >C >C >C >C >C >C >C >C >C >C >C >C >C >C >C >C >C >C >C >C >C >C >C >C >C >C >C >C >C >C >C >C >C >C >C >C >C >C >C >C >C >C >C >C >C >C >C >C >C >C >C >C >C >C >C >C >C >C >C >C >C >C >C >C >C >C >C >C >C >C >C >C >C >C >C >C >C >C >C >C >C >C >C >C >C >C >C >C >C C    E< E< E< E< E< E< E< E< E< E< E< E< E< E< E< E< E< E< E< E< E< E< E< E< E< E< E< E< E< E< E< E< E< E< E< E< E< E< E< E< E< E< E< E< E< E< E< E< E< E< E< E< E< E< E< E< E< E< E< E< E< E< E< E< E< E< E< E< E< E< E< E< E< E< E< E< E< E< E< E< E< E< E< E< E< E< E< E< E< E< E< E< E< E< E< E< E< E< E< E< E< E< E< E< E< E< E< E< E< E< E< E< E< E< E< E< E< E< E< E< E< E< E< E< E< E< E< E< E< E< E< E< E< E< E< E< E< E< E< E< E< E< E< E< E< E< E< E< E< E< E< E< < < < < <F <F <F <F <F <F <F <F <F <F <F <F <F <F <F <F <F <F <F <F <F <F <F <F <F <F <F <F <F <F <F <F <F <F <F <F <F <F <F <F <F <F <F <F <F <F <F <F <F <F <F <F <F <F <F <F <F <F <F <F <F <F <F <F <F <F <F <F <F <F <F <F <F <F <F <F <F <F <F <F <F <F <F <F <F <F <F <F <F <F <F <F <F <F <F <F <F <F <F <F <F <F <F <F <F <F <F <F <F <F <F <F <F <F <F <F <F <F <F <F <F <F <F <F <F <F <F <F <F <F <F <F <F <F <F <F <F <F <F <F <F <F <F <F <F <F <F <F <F <F <F F    H< H< H< H< H< H< H< H< H< H< H< H< H< H< H< H< H< H< H< H< H< H< H< H< H< H< H< H< H< H< H< H< H< H< H< H< H< H< H< H< H< H< H< H< H< H< H< H< H< H< H< H< H< H< H< H< H< H< H< H< H< H< H< H< H< H< H< H< H< H< H< H< H< H< H< H< H< H< H< H< H< H< H< H< H< H< H< H< H< H< H< H< H< H< H< H< H< H< H< H< H< H< H< H< H< H< H< H< H< H< H< H< H< H< H< H< H< H< H< H< H< H< H< H< H< H< H< H< H< H< H< H< H< H< H< H< H< H< H< H< H< H< H< H< H< H< H< H< H< H< H< H< < < < < E< E< E< E< E< E< E< E< E< E< E< E< E< E< E< E< E< E< E< E< E< E< E< E< E< E< E< E< E< E< E< E< E< E< E< E< E< E< E< E< E< E< E< E< E< E< E< E< E< E< E< E< E< E< E< E< E< E< E< E< E< E< E< E< E< E< E< E< E< E< E< E< E< E< E< E< E< E< E< E< E< E< E< E< E< E< E< E< E< E< E< E< E< E< E< E< E< E< E< E< E< E< E< E< E< E< E< E< E< E< E< E< E< E< E< E< E< E< E< E< E< E< E< E< E< E< E< E< E< E< E< E< E< E< E< E< E< E< E< E< E< E< E< E< E< E< E< E< E< E< E< E< < < < <C <C <C <C <C <C <C <C <C <C <C <C <C <C <C <C <C <C <C <C <C <C <C <C <C <C <C <C <C <C <C <C <C <C <C <C <C <C <C <C <C <C <C <C <C <C <C <C <C <C <C <C <C <C <C <C <C <C <C <C <C <C <C <C <C <C <C <C <C <C <C <C <C <C <C <C <C C C C C C C C C C C C C C C C C C C C C C C C C C C C C C C C C C C C C C C C C C C C C C C C C C C C C C C C C C C C C C C C C C C C C C C C C C C C     B< B< B< B< B< B< B< B< B< B< B< B< B< B< B< B< B< B< B< B< B< B< B< B< B< B< B< B< B< B< B< B< B< B< B< B< B< B< B< B< B< B< B< B< B< B< B< B< B< B< B< B< B< B< B< B< B< B< B< B< B< B< B< B< B< B< B< B< B< B< B< B< B< B< B< B< B< B< B< B< B< B< B< B< B< B< B< B< B< B< B< B< B< B< B< B< B< B< B< B< B< B< B< B< B< B< B< B< B< B< B< B< B< B< B< B< B< B< B< B< B< B< B< B< B< B< B< B< B< B< B< B< B< B< B< B< B< B< B< B< B< B< B< B< B< B< B< B< B< B< B< B<    :C :C :C :C :C :C :C :C :C :C :C :C :C :C :C :C :C :C :C :C :C :C :C :C :C :C :C :C :C :C :C :C :C :C :C :C :C :C :C :C :C :C :C :C :C :C :C :C :C :C :C :C :C :C :C :C :C :C :C :C :C :C :C :C :C :C :C :C :C :C :C :C :C :C :C :C :C :C :C :C :C :C :C :C :C :C :C :C :C :C :C :C :C :C :C :C :C :C :C :C :C :C :C :C :C :C :C :C :C :C :C :C :C :C :C :C :C :C :C :C :C :C :C :C :C :C :C :C :C :C :C :C :C :C :C :C :C :C :C :C :C :C :C :C :C :C :C :C :C :C :C :C C C C C C9 C9 C9 C9 C9 C9 C9 C9 C9 C9 C9 C9 C9 C9 C9 C9 C9 C9 C9 C9 C9 C9 C9 C9 C9 C9 C9 C9 C9 C9 C9 C9 C9 C9 C9 C9 C9 C9 C9 C9 C9 C9 C9 C9 C9 C9 C9 C9 C9 C9 C9 C9 C9 C9 C9 C9 C9 C9 C9 C9 C9 C9 C9 C9 C9 C9 C9 C9 C9 C9 C9 C9 C9 C9 C9 C9 C9 C9 C9 C9 C9 C9 C9 C9 C9 C9 C9 C9 C9 C9 C9 C9 C9 C9 C9 C9 C9 C9 C9 C9 C9 C9 C9 C9 C9 C9 C9 C9 C9 C9 C9 C9 C9 C9 C9 C9 C9 C9 C9 C9 C9 C9 C9 C9 C9 C9 C9 C9 C9 C9 C9 C9 C9 C9 C9 C9 C9 C9 C9 C9 C9 C9 C9 C9 C9 C9 C9 C9 C9 C9 C9 9    7C 7C 7C 7C 7C 7C 7C 7C 7C 7C 7C 7C 7C 7C 7C 7C 7C 7C 7C 7C 7C 7C 7C 7C 7C 7C 7C 7C 7C 7C 7C 7C 7C 7C 7C 7C 7C 7C 7C 7C 7C 7C 7C 7C 7C 7C 7C 7C 7C 7C 7C 7C 7C 7C 7C 7C 7C 7C 7C 7C 7C 7C 7C 7C 7C 7C 7C 7C 7C 7C 7C 7C 7C 7C 7C 7C 7C 7C 7C 7C 7C 7C 7C 7C 7C 7C 7C 7C 7C 7C 7C 7C 7C 7C 7C 7C 7C 7C 7C 7C 7C 7C 7C 7C 7C 7C 7C 7C 7C 7C 7C 7C 7C 7C 7C 7C 7C 7C 7C 7C 7C 7C 7C 7C 7C 7C 7C 7C 7C 7C 7C 7C 7C 7C 7C 7C 7C 7C 7C 7C 7C 7C 7C 7C 7C 7C 7C 7C 7C 7C 7C 7C C C C C C: C: C: C: C: C: C: C: C: C: C: C: C: C: C: C: C: C: C: C: C: C: C: C: C: C: C: C: C: C: C: C: C: C: C: C: C: C: C: C: C: C: C: C: C: C: C: C: C: C: C: C: C: C: C: C: C: C: C: C: C: C: C: C: C: C: C: C: C: C: C: C: C: C: C: C: C: C: C: C: C: C: C: C: C: C: C: C: C: C: C: C: C: C: C: C: C: C: C: C: C: C: C: C: C: C: C: C: C: C: C: C: C: C: C: C: C: C: C: C: C: C: C: C: C: C: C: C: C: C: C: C: C: C: C: C: C: C: C: C: C: C: C: C: C: C: C: C: C: C: C: :    C1 C1 C1 C1 C1 C1 C1 C1 C1 C1 C1 C1 C1 C1 C1 C1 C1 C1 C1 C1 C1 C1 C1 C1 C1 C1 C1 C1 C1 C1 C1 C1 C1 C1 C1 C1 C1 C1 C1 C1 C1 C1 C1 C1 C1 C1 C1 C1 C1 C1 C1 C1 C1 C1 C1 C1 C1 C1 C1 C1 C1 C1 C1 C1 C1 C1 C1 C1 C1 C1 C1 C1 C1 C1 C1 C1 C1 C1 C1 C1 C1 C1 C1 C1 C1 C1 C1 C1 C1 C1 C1 C1 C1 C1 C1 C1 C1 C1 C1 C1 C1 C1 C1 C1 C1 C1 C1 C1 C1 C1 C1 C1 C1 C1 C1 C1 C1 C1 C1 C1 C1 C1 C1 C1 C1 C1 C1 C1 C1 C1 C1 C1 C1 C1 C1 C1 C1 C1 C1 C1 C1 C1 C1 C1 C1 C1 C1 C1 C1 C1 C1 C1 1 1 1 1 1E 1E 1E 1E 1E 1E 1E 1E 1E 1E 1E 1E 1E 1E 1E 1E 1E 1E 1E 1E 1E 1E 1E 1E 1E 1E 1E 1E 1E 1E 1E 1E 1E 1E 1E 1E 1E 1E 1E 1E 1E 1E 1E 1E 1E 1E 1E 1E 1E 1E 1E 1E 1E 1E 1E 1E 1E 1E 1E 1E 1E 1E 1E 1E 1E 1E 1E 1E 1E 1E 1E 1E 1E 1E 1E 1E 1E 1E 1E 1E 1E 1E 1E 1E 1E 1E 1E 1E 1E 1E 1E 1E 1E 1E 1E 1E 1E 1E 1E 1E 1E 1E 1E 1E 1E 1E 1E 1E 1E 1E 1E 1E 1E 1E 1E 1E 1E 1E 1E 1E 1E 1E 1E 1E 1E 1E 1E 1E 1E 1E 1E 1E 1E 1E 1E 1E 1E 1E 1E 1E 1E 1E 1E 1E 1E 1E 1E 1E 1E 1E 1E E    F7 F7 F7 F7 F7 F7 F7 F7 F7 F7 F7 F7 F7 F7 F7 F7 F7 F7 F7 F7 F7 F7 F7 F7 F7 F7 F7 F7 F7 F7 F7 F7 F7 F7 F7 F7 F7 F7 F7 F7 F7 F7 F7 F7 F7 F7 F7 F7 F7 F7 F7 F7 F7 F7 F7 F7 F7 F7 F7 F7 F7 F7 F7 F7 F7 F7 F7 F7 F7 F7 F7 F7 F7 F7 F7 F7 F7 F7 F7 F7 F7 F7 F7 F7 F7 F7 F7 F7 F7 F7 F7 F7 F7 F7 F7 F7 F7 F7 F7 F7 F7 F7 F7 F7 F7 F7 F7 F7 F7 F7 F7 F7 F7 F7 F7 F7 F7 F7 F7 F7 F7 F7 F7 F7 F7 F7 F7 F7 F7 F7 F7 F7 F7 F7 F7 F7 F7 F7 F7 F7 F7 F7 F7 F7 F7 F7 F7 F7 F7 F7 F7 F7 7 7 7 7 7C 7C 7C 7C 7C 7C 7C 7C 7C 7C 7C 7C 7C 7C 7C 7C 7C 7C 7C 7C 7C 7C 7C 7C 7C 7C 7C 7C 7C 7C 7C 7C 7C 7C 7C 7C 7C 7C 7C 7C 7C 7C 7C 7C 7C 7C 7C 7C 7C 7C 7C 7C 7C 7C 7C 7C 7C 7C 7C 7C 7C 7C 7C 7C 7C 7C 7C 7C 7C 7C 7C 7C 7C 7C 7C 7C 7C 7C 7C 7C 7C 7C 7C 7C 7C 7C 7C 7C 7C 7C 7C 7C 7C 7C 7C 7C 7C 7C 7C 7C 7C 7C 7C 7C 7C 7C 7C 7C 7C 7C 7C 7C 7C 7C 7C 7C 7C 7C 7C 7C 7C 7C 7C 7C 7C 7C 7C 7C 7C 7C 7C 7C 7C 7C 7C 7C 7C 7C 7C 7C 7C 7C 7C 7C 7C 7C 7C 7C 7C 7C 7C C    I: I: I: I: I: I: I: I: I: I: I: I: I: I: I: I: I: I: I: I: I: I: I: I: I: I: I: I: I: I: I: I: I: I: I: I: I: I: I: I: I: I: I: I: I: I: I: I: I: I: I: I: I: I: I: I: I: I: I: I: I: I: I: I: I: I: I: I: I: I: I: I: I: I: I: I: I: I: I: I: I: I: I: I: I: I: I: I: I: I: I: I: I: I: I: I: I: I: I: I: I: I: I: I: I: I: I: I: I: I: I: I: I: I: I: I: I: I: I: I: I: I: I: I: I: I: I: I: I: I: I: I: I: I: I: I: I: I: I: I: I: I: I: I: I: I: I: I: I: I: I: I: : : : : :C :C :C :C :C :C :C :C :C :C :C :C :C :C :C :C :C :C :C :C :C :C :C :C :C :C :C :C :C :C :C :C :C :C :C :C :C :C :C :C :C :C :C :C :C :C :C :C :C :C :C :C :C :C :C :C :C :C :C :C :C :C :C :C :C :C :C :C :C :C :C :C :C :C :C :C :C :C :C :C :C :C :C :C :C :C :C :C :C :C :C :C :C :C :C :C :C :C :C :C :C :C :C :C :C :C :C :C :C :C :C :C :C :C :C :C :C :C :C :C :C :C :C :C :C :C :C :C :C :C :C :C :C :C :C :C :C :C :C :C :C :C :C :C :C :C :C :C :C :C :C C    L1 L1 L1 L1 L1 L1 L1 L1 L1 L1 L1 L1 L1 L1 L1 L1 L1 L1 L1 L1 L1 L1 L1 L1 L1 L1 L1 L1 L1 L1 L1 L1 L1 L1 L1 L1 L1 L1 L1 L1 L1 L1 L1 L1 L1 L1 L1 L1 L1 L1 L1 L1 L1 L1 L1 L1 L1 L1 L1 L1 L1 L1 L1 L1 L1 L1 L1 L1 L1 L1 L1 L1 L1 L1 L1 L1 L1 L1 L1 L1 L1 L1 L1 L1 L1 L1 L1 L1 L1 L1 L1 L1 L1 L1 L1 L1 L1 L1 L1 L1 L1 L1 L1 L1 L1 L1 L1 L1 L1 L1 L1 L1 L1 L1 L1 L1 L1 L1 L1 L1 L1 L1 L1 L1 L1 L1 L1 L1 L1 L1 L1 L1 L1 L1 L1 L1 L1 L1 L1 L1 L1 L1 L1 L1 L1 L1 L1 L1 L1 L1 L1 L1 1 1 1 1 1F 1F 1F 1F 1F 1F 1F 1F 1F 1F 1F 1F 1F 1F 1F 1F 1F 1F 1F 1F 1F 1F 1F 1F 1F 1F 1F 1F 1F 1F 1F 1F 1F 1F 1F 1F 1F 1F 1F 1F 1F 1F 1F 1F 1F 1F 1F 1F 1F 1F 1F 1F 1F 1F 1F 1F 1F 1F 1F 1F 1F 1F 1F 1F 1F 1F 1F 1F 1F 1F 1F 1F 1F 1F 1F 1F 1F 1F 1F 1F 1F 1F 1F 1F 1F 1F 1F 1F 1F 1F 1F 1F 1F 1F 1F 1F 1F 1F 1F 1F 1F 1F 1F 1F 1F 1F 1F 1F 1F 1F 1F 1F 1F 1F 1F 1F 1F 1F 1F 1F 1F 1F 1F 1F 1F 1F 1F 1F 1F 1F 1F 1F 1F 1F 1F 1F 1F 1F 1F 1F 1F 1F 1F 1F 1F 1F 1F 1F 1F 1F 1F F     E4 E4 E4 E4 E4 E4 E4 E4 E4 E4 E4 E4 E4 E4 E4 E4 E4 E4 E4 E4 E4 E4 E4 E4 E4 E4 E4 E4 E4 E4 E4 E4 E4 E4 E4 E4 E4 E4 E4 E4 E4 E4 E4 E4 E4 E4 E4 E4 E4 E4 E4 E4 E4 E4 E4 E4 E4 E4 E4 E4 E4 E4 E4 E4 E4 E4 E4 E4 E4 E4 E4 E4 E4 E4 E4 E4 E4 E4 E4 E4 E4 E4 E4 E4 E4 E4 E4 E4 E4 E4 E4 E4 E4 E4 E4 E4 E4 E4 E4 E4 E4 E4 E4 E4 E4 E4 E4 E4 E4 E4 E4 E4 E4 E4 E4 E4 E4 E4 E4 E4 E4 E4 E4 E4 E4 E4 E4 E4 E4 E4 E4 E4 E4 E4 E4 E4 E4 E4 E4 E4 E4 E4 E4 E4 E4 E4 E4 E4 E4 E4 E4 E4 4 4 4 C4 C4 C4 C4 C4 C4 C4 C4 C4 C4 C4 C4 C4 C4 C4 C4 C4 C4 C4 C4 C4 C4 C4 C4 C4 C4 C4 C4 C4 C4 C4 C4 C4 C4 C4 C4 C4 C4 C4 C4 C4 C4 C4 C4 C4 C4 C4 C4 C4 C4 C4 C4 C4 C4 C4 C4 C4 C4 C4 C4 C4 C4 C4 C4 C4 C4 C4 C4 C4 C4 C4 C4 C4 C4 C4 C4 C4 C4 C4 C4 C4 C4 C4 C4 C4 C4 C4 C4 C4 C4 C4 C4 C4 C4 C4 C4 C4 C4 C4 C4 C4 C4 C4 C4 C4 C4 C4 C4 C4 C4 C4 C4 C4 C4 C4 C4 C4 C4 C4 C4 C4 C4 C4 C4 C4 C4 C4 C4 C4 C4 C4 C4 C4 C4 C4 C4 C4 C4 C4 C4 C4 C4 C4 C4 C4 C4 C4 C4 C4 C4 C4 C4     A9 A9 A9 A9 A9 A9 A9 A9 A9 A9 A9 A9 A9 A9 A9 A9 A9 A9 A9 A9 A9 A9 A9 A9 A9 A9 A9 A9 A9 A9 A9 A9 A9 A9 A9 A9 A9 A9 A9 A9 A9 A9 A9 A9 A9 A9 A9 A9 A9 A9 A9 A9 A9 A9 A9 A9 A9 A9 A9 A9 A9 A9 A9 A9 A9 A9 A9 A9 A9 A9 A9 A9 A9 A9 A9 A9 A9 A9 A9 A9 A9 A9 A9 A9 A9 A9 A9 A9 A9 A9 A9 A9 A9 A9 A9 A9 A9 A9 A9 A9 A9 A9 A9 A9 A9 A9 A9 A9 A9 A9 A9 A9 A9 A9 A9 A9 A9 A9 A9 A9 A9 A9 A9 A9 A9 A9 A9 A9 A9 A9 A9 A9 A9 A9 A9 A9 A9 A9 A9 A9 A9 A9 A9 A9 A9 A9 A9 A9 A9 A9 A9 A9 9 9 9 @9 @9 @9 @9 @9 @9 @9 @9 @9 @9 @9 @9 @9 @9 @9 @9 @9 @9 @9 @9 @9 @9 @9 @9 @9 @9 @9 @9 @9 @9 @9 @9 @9 @9 @9 @9 @9 @9 @9 @9 @9 @9 @9 @9 @9 @9 @9 @9 @9 @9 @9 @9 @9 @9 @9 @9 @9 @9 @9 @9 @9 @9 @9 @9 @9 @9 @9 @9 @9 @9 @9 @9 @9 @9 @9 @9 @9 @9 @9 @9 @9 @9 @9 @9 @9 @9 @9 @9 @9 @9 @9 @9 @9 @9 @9 @9 @9 @9 @9 @9 @9 @9 @9 @9 @9 @9 @9 @9 @9 @9 @9 @9 @9 @9 @9 @9 @9 @9 @9 @9 @9 @9 @9 @9 @9 @9 @9 @9 @9 @9 @9 @9 @9 @9 @9 @9 @9 @9 @9 @9 @9 @9 @9 @9 @9 @9 @9 @9 @9 @9 @9 @9     A2 A2 A2 A2 A2 A2 A2 A2 A2 A2 A2 A2 A2 A2 A2 A2 A2 A2 A2 A2 A2 A2 A2 A2 A2 A2 A2 A2 A2 A2 A2 A2 A2 A2 A2 A2 A2 A2 A2 A2 A2 A2 A2 A2 A2 A2 A2 A2 A2 A2 A2 A2 A2 A2 A2 A2 A2 A2 A2 A2 A2 A2 A2 A2 A2 A2 A2 A2 A2 A2 A2 A2 A2 A2 A2 A2 A2 A2 A2 A2 A2 A2 A2 A2 A2 A2 A2 A2 A2 A2 A2 A2 A2 A2 A2 A2 A2 A2 A2 A2 A2 A2 A2 A2 A2 A2 A2 A2 A2 A2 A2 A2 A2 A2 A2 A2 A2 A2 A2 A2 A2 A2 A2 A2 A2 A2 A2 A2 A2 A2 A2 A2 A2 A2 A2 A2 A2 A2 A2 A2 A2 A2 A2 A2 A2 A2 A2 A2 A2 A2 A2 A2 2 2 2 C2 C2 C2 C2 C2 C2 C2 C2 C2 C2 C2 C2 C2 C2 C2 C2 C2 C2 C2 C2 C2 C2 C2 C2 C2 C2 C2 C2 C2 C2 C2 C2 C2 C2 C2 C2 C2 C2 C2 C2 C2 C2 C2 C2 C2 C2 C2 C2 C2 C2 C2 C2 C2 C2 C2 C2 C2 C2 C2 C2 C2 C2 C2 C2 C2 C2 C2 C2 C2 C2 C2 C2 C2 C2 C2 C2 C2 C2 C2 C2 C2 C2 C2 C2 C2 C2 C2 C2 C2 C2 C2 C2 C2 C2 C2 C2 C2 C2 C2 C2 C2 C2 C2 C2 C2 C2 C2 C2 C2 C2 C2 C2 C2 C2 C2 C2 C2 C2 C2 C2 C2 C2 C2 C2 C2 C2 C2 C2 C2 C2 C2 C2 C2 C2 C2 C2 C2 C2 C2 C2 C2 C2 C2 C2 C2 C2 C2 C2 C2 C2 C2 C2     D5 D5 D5 D5 D5 D5 D5 D5 D5 D5 D5 D5 D5 D5 D5 D5 D5 D5 D5 D5 D5 D5 D5 D5 D5 D5 D5 D5 D5 D5 D5 D5 D5 D5 D5 D5 D5 D5 D5 D5 D5 D5 D5 D5 D5 D5 D5 D5 D5 D5 D5 D5 D5 D5 D5 D5 D5 D5 D5 D5 D5 D5 D5 D5 D5 D5 D5 D5 D5 D5 D5 D5 D5 D5 D5 D5 D5 D5 D5 D5 D5 D5 D5 D5 D5 D5 D5 D5 D5 D5 D5 D5 D5 D5 D5 D5 D5 D5 D5 D5 D5 D5 D5 D5 D5 D5 D5 D5 D5 D5 D5 D5 D5 D5 D5 D5 D5 D5 D5 D5 D5 D5 D5 D5 D5 D5 D5 D5 D5 D5 D5 D5 D5 D5 D5 D5 D5 D5 D5 D5 D5 D5 D5 D5 D5 D5 D5 D5 D5 D5 D5 D5 5 5 5 A5 A5 A5 A5 A5 A5 A5 A5 A5 A5 A5 A5 A5 A5 A5 A5 A5 A5 A5 A5 A5 A5 A5 A5 A5 A5 A5 A5 A5 A5 A5 A5 A5 A5 A5 A5 A5 A5 A5 A5 A5 A5 A5 A5 A5 A5 A5 A5 A5 A5 A5 A5 A5 A5 A5 A5 A5 A5 A5 A5 A5 A5 A5 A5 A5 A5 A5 A5 A5 A5 A5 A5 A5 A5 A5 A5 A5 A5 A5 A5 A5 A5 A5 A5 A5 A5 A5 A5 A5 A5 A5 A5 A5 A5 A5 A5 A5 A5 A5 A5 A5 A5 A5 A5 A5 A5 A5 A5 A5 A5 A5 A5 A5 A5 A5 A5 A5 A5 A5 A5 A5 A5 A5 A5 A5 A5 A5 A5 A5 A5 A5 A5 A5 A5 A5 A5 A5 A5 A5 A5 A5 A5 A5 A5 A5 A5 A5 A5 A5 A5 A5 A5     G8 G8 G8 G8 G8 G8 G8 G8 G8 G8 G8 G8 G8 G8 G8 G8 G8 G8 G8 G8 G8 G8 G8 G8 G8 G8 G8 G8 G8 G8 G8 G8 G8 G8 G8 G8 G8 G8 G8 G8 G8 G8 G8 G8 G8 G8 G8 G8 G8 G8 G8 G8 G8 G8 G8 G8 G8 G8 G8 G8 G8 G8 G8 G8 G8 G8 G8 G8 G8 G8 G8 G8 G8 G8 G8 G8 G8 G8 G8 G8 G8 G8 G8 G8 G8 G8 G8 G8 G8 G8 G8 G8 G8 G8 G8 G8 G8 G8 G8 G8 G8 G8 G8 G8 G8 G8 G8 G8 G8 G8 G8 G8 G8 G8 G8 G8 G8 G8 G8 G8 G8 G8 G8 G8 G8 G8 G8 G8 G8 G8 G8 G8 G8 G8 G8 G8 G8 G8 G8 G8 G8 G8 G8 G8 G8 G8 G8 G8 G8 G8 G8 G8 8 8 8 A8 A8 A8 A8 A8 A8 A8 A8 A8 A8 A8 A8 A8 A8 A8 A8 A8 A8 A8 A8 A8 A8 A8 A8 A8 A8 A8 A8 A8 A8 A8 A8 A8 A8 A8 A8 A8 A8 A8 A8 A8 A8 A8 A8 A8 A8 A8 A8 A8 A8 A8 A8 A8 A8 A8 A8 A8 A8 A8 A8 A8 A8 A8 A8 A8 A8 A8 A8 A8 A8 A8 A8 A8 A8 A8 A8 A8 A8 A8 A8 A8 A8 A8 A8 A8 A8 A8 A8 A8 A8 A8 A8 A8 A8 A8 A8 A8 A8 A8 A8 A8 A8 A8 A8 A8 A8 A8 A8 A8 A8 A8 A8 A8 A8 A8 A8 A8 A8 A8 A8 A8 A8 A8 A8 A8 A8 A8 A8 A8 A8 A8 A8 A8 A8 A8 A8 A8 A8 A8 A8 A8 A8 A8 A8 A8 A8 A8 A8 A8 A8 A8 A8     J; J; J; J; J; J; J; J; J; J; J; J; J; J; J; J; J; J; J; J; J; J; J; J; J; J; J; J; J; J; J; J; J; J; J; J; J; J; J; J; J; J; J; J; J; J; J; J; J; J; J; J; J; J; J; J; J; J; J; J; J; J; J; J; J; J; J; J; J; J; J; J; J; J; J; J; J; J; J; J; J; J; J; J; J; J; J; J; J; J; J; J; J; J; J; J; J; J; J; J; J; J; J; J; J; J; J; J; J; J; J; J; J; J; J; J; J; J; J; J; J; J; J; J; J; J; J; J; J; J; J; J; J; J; J; J; J; J; J; J; J; J; J; J; J; J; J; J; J; J; J; J; ; ; ; D; D; D; D; D; D; D; D; D; D; D; D; D; D; D; D; D; D; D; D; D; D; D; D; D; D; D; D; D; D; D; D; D; D; D; D; D; D; D; D; D; D; D; D; D; D; D; D; D; D; D; D; D; D; D; D; D; D; D; D; D; D; D; D; D; D; D; D; D; D; D; D; D; D; D; D; D; D; D; D; D; D; D; D; D; D; D; D; D; D; D; D; D; D; D; D; D; D; D; D; D; D; D; D; D; D; D; D; D; D; D; D; D; D; D; D; D; D; D; D; D; D; D; D; D; D; D; D; D; D; D; D; D; D; D; D; D; D; D; D; D; D; D; D; D; D; D; D; D; D; D; D;     C> C> C> C> C> C> C> C> C> C> C> C> C> C> C> C> C> C> C> C> C> C> C> C> C> C> C> C> C> C> C> C> C> C> C> C> C> C> C> C> C> C> C> C> C> C> C> C> C> C> C> C> C> C> C> C> C> C> C> C> C> C> C> C> C> C> C> C> C> C> C> C> C> C> C> C> C> C> C> C> C> C> C> C> C> C> C> C> C> C> C> C> C> C> C> C> C> C> C> C> C> C> C> C> C> C> C> C> C> C> C> C> C> C> C> C> C> C> C> C> C> C> C> C> C> C> C> C> C> C> C> C> C> C> C> C> C> C> C> C> C> C> C> C> C> C> C> C> C> C> C> C> > > > A> A> A> A> A> A> A> A> A> A> A> A> A> A> A> A> A> A> A> A> A> A> A> A> A> A> A> A> A> A> A> A> A> A> A> A> A> A> A> A> A> A> A> A> A> A> A> A> A> A> A> A> A> A> A> A> A> A> A> A> A> A> A> A> A> A> A> A> A> A> A> A> A> A> A> A> A> A> A> A> A> A> A> A> A> A> A> A> A> A> A> A> A> A> A> A> A> A> A> A> A> A> A> A> A> A> A> A> A> A> A> A> A> A> A> A> A> A> A> A> A> A> A> A> A> A> A> A> A> A> A> A> A> A> A> A> A> A> A> A> A> A> A> A> A> A> A> A> A> A> A> A>     ?7 ?7 ?7 ?7 ?7 ?7 ?7 ?7 ?7 ?7 ?7 ?7 ?7 ?7 ?7 ?7 ?7 ?7 ?7 ?7 ?7 ?7 ?7 ?7 ?7 ?7 ?7 ?7 ?7 ?7 ?7 ?7 ?7 ?7 ?7 ?7 ?7 ?7 ?7 ?7 ?7 ?7 ?7 ?7 ?7 ?7 ?7 ?7 ?7 ?7 ?7 ?7 ?7 ?7 ?7 ?7 ?7 ?7 ?7 ?7 ?7 ?7 ?7 ?7 ?7 ?7 ?7 ?7 ?7 ?7 ?7 ?7 ?7 ?7 ?7 ?7 ?7 ?7 ?7 ?7 ?7 ?7 ?7 ?7 ?7 ?7 ?7 ?7 ?7 ?7 ?7 ?7 ?7 ?7 ?7 ?7 ?7 ?7 ?7 ?7 ?7 ?7 ?7 ?7 ?7 ?7 ?7 ?7 ?7 ?7 ?7 ?7 ?7 ?7 ?7 ?7 ?7 ?7 ?7 ?7 ?7 ?7 ?7 ?7 ?7 ?7 ?7 ?7 ?7 ?7 ?7 ?7 ?7 ?7 ?7 ?7 ?7 ?7 ?7 ?7 ?7 ?7 ?7 ?7 ?7 ?7 ?7 ?7 ?7 ?7 ?7 ?7 7 7 7 >7 >7 >7 >7 >7 >7 >7 >7 >7 >7 >7 >7 >7 >7 >7 >7 >7 >7 >7 >7 >7 >7 >7 >7 >7 >7 >7 >7 >7 >7 >7 >7 >7 >7 >7 >7 >7 >7 >7 >7 >7 >7 >7 >7 >7 >7 >7 >7 >7 >7 >7 >7 >7 >7 >7 >7 >7 >7 >7 >7 >7 >7 >7 >7 >7 >7 >7 >7 >7 >7 >7 >7 >7 >7 >7 >7 >7 >7 >7 >7 >7 >7 >7 >7 >7 >7 >7 >7 >7 >7 >7 >7 >7 >7 >7 >7 >7 >7 >7 >7 >7 >7 >7 >7 >7 >7 >7 >7 >7 >7 >7 >7 >7 >7 >7 >7 >7 >7 >7 >7 >7 >7 >7 >7 >7 >7 >7 >7 >7 >7 >7 >7 >7 >7 >7 >7 >7 >7 >7 >7 >7 >7 >7 >7 >7 >7 >7 >7 >7 >7 >7 >7     ?< ?< ?< ?< ?< ?< ?< ?< ?< ?< ?< ?< ?< ?< ?< ?< ?< ?< ?< ?< ?< ?< ?< ?< ?< ?< ?< ?< ?< ?< ?< ?< ?< ?< ?< ?< ?< ?< ?< ?< ?< ?< ?< ?< ?< ?< ?< ?< ?< ?< ?< ?< ?< ?< ?< ?< ?< ?< ?< ?< ?< ?< ?< ?< ?< ?< ?< ?< ?< ?< ?< ?< ?< ?< ?< ?< ?< ?< ?< ?< ?< ?< ?< ?< ?< ?< ?< ?< ?< ?< ?< ?< ?< ?< ?< ?< ?< ?< ?< ?< ?< ?< ?< ?< ?< ?< ?< ?< ?< ?< ?< ?< ?< ?< ?< ?< ?< ?< ?< ?< ?< ?< ?< ?< ?< ?< ?< ?< ?< ?< ?< ?< ?< ?< ?< ?< ?< ?< ?< ?< ?< ?< ?< ?< ?< ?< ?< ?< ?< ?< ?< ?< ?< 0?< 0?< 0?< 0?< 0?< 0?< 0?< 0?< 0?< 0?< 0?< 0?< 0?< 0?< 0?< 0?< 0?< 0?< 0?< 0?< 0?< 0?< 0?< 0?< 0?< 0?< 0?< 0?< 0?< 0?< 0?< 0?< 0?< 0?< 0?< 0?< 0?< 0?< 0?< 0?< 0?< 0?< 0?< 0?< 0?< 0?< 0?< 0?< 0?< 0?< 0?< 0?< 0?< 0?< 0?< 0?< 0?< 0?< 0?< 0?< 0?< 0?< 0?< 0?< 0?< 0?< 0?< 0?< 0?< 0?< 0?< 0?< 0?< 0?< ?< ?< ?< ?< ?< ?< ?< ?< ?< ?< ?< ?< ?< ?<2 ?<2 ?<2 ?<2 ?<2 ?<2 ?<2 ?<2 ?<2 ?<2 ?<2 ?<2 ?<2 ?<2 ?<2 ?<2 ?<2 ?<2 ?<2 ?<2 ?<2 ?<2 ?<2 ?<2 ?<2 ?<2 ?<2 ?<2 ?<2 ?<2 ?<2 ?<2 ?<2 ?<2 ?<2 ?<2 ?<2 ?<2 ?<2 ?<2 ?<2 ?<2 ?<2 ?<2 ?<2 ?<2 ?<2 ?<2 ?<2 ?<2 ?<2 ?<2 ?<2 ?<2 ?<2 ?<2 ?<2 ?<2 ?<2 ?<2 ?<2 ?<2 ?<2 ?<2 ?<2 ?<2 ?<2 2 2 2 2 2 2 2              3COH 3COH 3COH 3COH 3COH 3COH 3COH 3COH 3COH 3COH 3COH 3COH 3COH 3COH 3COH 3COH 3COH 3COH 3COH 3COH 3COH 3COH 3COH 3COH 3COH 3COH 3COH 3COH 3COH 3COH 3COH 3COH 3COH 3COH 3COH 3COH 3COH 3COH 3COH 3COH 3COH 3COH 3COH 3COH 3COH 3COH 3COH 3COH 3COH 3COH 3COH 3COH 3COH 3COH 3COH 3COH 3COH 3COH 3COH 3COH 3COH 3COH 3COH 3COH 3COH 3COH 3COH 3COH 3COH 3COH 3COH 3COH 3COH 3COH 3COH 3COH 3COH 3COH 3COH 3COH 3COH 3COH 3COH 3COH 3COH 3COH 3COH 3COH 3COH 3COH 3COH 3COH 3COH 3COH 3COH 3COH 3COH 3COH 3COH 3COH 3COH 3COH 3COH 3COH 3COH 3COH 3COH 3COH 3COH 3COH 3COH 3COH 3COH 3COH 3COH 3COH 3COH 3COH 3COH 3COH 3COH 3COH 3COH 3COH 3COH 3COH 3COH 3COH 3COH 3COH 3COH 3COH 3COH 3COH 3COH 3COH 3COH 3COH 3COH 3COH 3COH 3COH 3COH 3COH 3COH 3COH 3COH 3COH 3COH 3COH 3COH 3COH COH COH COH 0COH 0COH 0COH 0COH 0COH 0COH 0COH 0COH 0COH 0COH 0COH 0COH 0COH 0COH 0COH 0COH 0COH 0COH 0COH 0COH 0COH 0COH 0COH 0COH 0COH 0COH 0COH 0COH 0COH 0COH 0COH 0COH 0COH 0COH 0COH 0COH 0COH 0COH 0COH 0COH 0COH 0COH 0COH 0COH 0COH 0COH 0COH 0COH 0COH 0COH 0COH 0COH 0COH 0COH 0COH 0COH 0COH 0COH 0COH 0COH 0COH 0COH 0COH 0COH 0COH 0COH 0COH 0COH 0COH 0COH 0COH 0COH 0COH 0COH 0COH 0COH 0COH 0COH 0COH 0COH 0COH 0COH 0COH 0COH 0COH 0COH 0COH 0COH 0COH 0COH 0COH 0COH 0COH 0COH 0COH 0COH 0COH 0COH 0COH 0COH 0COH 0COH 0COH 0COH 0COH 0COH 0COH 0COH 0COH 0COH 0COH 0COH 0COH 0COH 0COH 0COH 0COH 0COH 0COH 0COH 0COH 0COH 0COH 0COH 0COH 0COH 0COH 0COH 0COH 0COH 0COH 0COH 0COH 0COH 0COH 0COH 0COH 0COH 0COH 0COH 0COH 0COH 0COH 0COH 0COH 0COH 0COH 0COH 0COH 0COH 0COH 0COH     /HCO /HCO /HCO /HCO /HCO /HCO /HCO /HCO /HCO /HCO /HCO /HCO /HCO /HCO /HCO /HCO /HCO /HCO /HCO /HCO /HCO /HCO /HCO /HCO /HCO /HCO /HCO /HCO /HCO /HCO /HCO /HCO /HCO /HCO /HCO /HCO /HCO /HCO /HCO /HCO /HCO /HCO /HCO /HCO /HCO /HCO /HCO /HCO /HCO /HCO /HCO /HCO /HCO /HCO /HCO /HCO /HCO /HCO /HCO /HCO /HCO /HCO /HCO /HCO /HCO /HCO /HCO /HCO /HCO /HCO /HCO /HCO /HCO /HCO /HCO /HCO /HCO /HCO /HCO /HCO /HCO /HCO /HCO /HCO /HCO /HCO /HCO /HCO /HCO /HCO /HCO /HCO /HCO /HCO /HCO /HCO /HCO /HCO /HCO /HCO /HCO /HCO /HCO /HCO /HCO /HCO /HCO /HCO /HCO /HCO /HCO /HCO /HCO /HCO /HCO /HCO /HCO /HCO /HCO /HCO /HCO /HCO /HCO /HCO /HCO /HCO /HCO /HCO /HCO /HCO /HCO /HCO /HCO /HCO /HCO /HCO /HCO /HCO /HCO /HCO /HCO /HCO /HCO /HCO /HCO /HCO /HCO /HCO /HCO /HCO /HCO /HCO HCO HCO HCO 0HCO 0HCO 0HCO 0HCO 0HCO 0HCO 0HCO 0HCO 0HCO 0HCO 0HCO 0HCO 0HCO 0HCO 0HCO 0HCO 0HCO 0HCO 0HCO 0HCO 0HCO 0HCO 0HCO 0HCO 0HCO 0HCO 0HCO 0HCO 0HCO 0HCO 0HCO 0HCO 0HCO 0HCO 0HCO 0HCO 0HCO 0HCO 0HCO 0HCO 0HCO 0HCO 0HCO 0HCO 0HCO 0HCO 0HCO 0HCO 0HCO 0HCO 0HCO 0HCO 0HCO 0HCO 0HCO 0HCO 0HCO 0HCO 0HCO 0HCO 0HCO 0HCO 0HCO 0HCO 0HCO 0HCO 0HCO 0HCO 0HCO 0HCO 0HCO 0HCO 0HCO 0HCO 0HCO 0HCO 0HCO 0HCO 0HCO 0HCO 0HCO 0HCO 0HCO 0HCO 0HCO 0HCO 0HCO 0HCO 0HCO 0HCO 0HCO 0HCO 0HCO 0HCO 0HCO 0HCO 0HCO 0HCO 0HCO 0HCO 0HCO 0HCO 0HCO 0HCO 0HCO 0HCO 0HCO 0HCO 0HCO 0HCO 0HCO 0HCO 0HCO 0HCO 0HCO 0HCO 0HCO 0HCO 0HCO 0HCO 0HCO 0HCO 0HCO 0HCO 0HCO 0HCO 0HCO 0HCO 0HCO 0HCO 0HCO 0HCO 0HCO 0HCO 0HCO 0HCO 0HCO 0HCO 0HCO 0HCO 0HCO 0HCO 0HCO 0HCO 0HCO 0HCO 0HCO 0HCO 0HCO 0HCO 0HCO 0HCO     +JCK +JCK +JCK +JCK +JCK +JCK +JCK +JCK +JCK +JCK +JCK +JCK +JCK +JCK +JCK +JCK +JCK +JCK +JCK +JCK +JCK +JCK +JCK +JCK +JCK +JCK +JCK +JCK +JCK +JCK +JCK +JCK +JCK +JCK +JCK +JCK +JCK +JCK +JCK +JCK +JCK +JCK +JCK +JCK +JCK +JCK +JCK +JCK +JCK +JCK +JCK +JCK +JCK +JCK +JCK +JCK +JCK +JCK +JCK +JCK +JCK +JCK +JCK +JCK +JCK +JCK +JCK +JCK +JCK +JCK +JCK +JCK +JCK +JCK +JCK +JCK +JCK +JCK +JCK +JCK +JCK +JCK +JCK +JCK +JCK +JCK +JCK +JCK +JCK +JCK +JCK +JCK +JCK +JCK +JCK +JCK +JCK +JCK +JCK +JCK +JCK +JCK +JCK +JCK +JCK +JCK +JCK +JCK +JCK +JCK +JCK +JCK +JCK +JCK +JCK +JCK +JCK +JCK +JCK +JCK +JCK +JCK +JCK +JCK +JCK +JCK +JCK +JCK +JCK +JCK +JCK +JCK +JCK +JCK +JCK +JCK +JCK +JCK +JCK +JCK +JCK +JCK +JCK +JCK +JCK +JCK +JCK +JCK +JCK +JCK +JCK +JCK JCK JCK JCK 0JCK 0JCK 0JCK 0JCK 0JCK 0JCK 0JCK 0JCK 0JCK 0JCK 0JCK 0JCK 0JCK 0JCK 0JCK 0JCK 0JCK 0JCK 0JCK 0JCK 0JCK 0JCK 0JCK 0JCK 0JCK 0JCK 0JCK 0JCK 0JCK 0JCK 0JCK 0JCK 0JCK 0JCK 0JCK 0JCK 0JCK 0JCK 0JCK 0JCK 0JCK 0JCK 0JCK 0JCK 0JCK 0JCK 0JCK 0JCK 0JCK 0JCK 0JCK 0JCK 0JCK 0JCK 0JCK 0JCK 0JCK 0JCK 0JCK 0JCK 0JCK 0JCK 0JCK 0JCK 0JCK 0JCK 0JCK 0JCK 0JCK 0JCK 0JCK 0JCK 0JCK 0JCK 0JCK 0JCK 0JCK 0JCK 0JCK 0JCK 0JCK 0JCK 0JCK 0JCK 0JCK 0JCK 0JCK 0JCK 0JCK 0JCK 0JCK 0JCK 0JCK 0JCK 0JCK 0JCK 0JCK 0JCK 0JCK 0JCK 0JCK 0JCK 0JCK 0JCK 0JCK 0JCK 0JCK 0JCK 0JCK 0JCK 0JCK 0JCK 0JCK 0JCK 0JCK 0JCK 0JCK 0JCK 0JCK 0JCK 0JCK 0JCK 0JCK 0JCK 0JCK 0JCK 0JCK 0JCK 0JCK 0JCK 0JCK 0JCK 0JCK 0JCK 0JCK 0JCK 0JCK 0JCK 0JCK 0JCK 0JCK 0JCK 0JCK 0JCK 0JCK 0JCK 0JCK 0JCK 0JCK 0JCK 0JCK 0JCK     3KHC 3KHC 3KHC 3KHC 3KHC 3KHC 3KHC 3KHC 3KHC 3KHC 3KHC 3KHC 3KHC 3KHC 3KHC 3KHC 3KHC 3KHC 3KHC 3KHC 3KHC 3KHC 3KHC 3KHC 3KHC 3KHC 3KHC 3KHC 3KHC 3KHC 3KHC 3KHC 3KHC 3KHC 3KHC 3KHC 3KHC 3KHC 3KHC 3KHC 3KHC 3KHC 3KHC 3KHC 3KHC 3KHC 3KHC 3KHC 3KHC 3KHC 3KHC 3KHC 3KHC 3KHC 3KHC 3KHC 3KHC 3KHC 3KHC 3KHC 3KHC 3KHC 3KHC 3KHC 3KHC 3KHC 3KHC 3KHC 3KHC 3KHC 3KHC 3KHC 3KHC 3KHC 3KHC 3KHC 3KHC 3KHC 3KHC 3KHC 3KHC 3KHC 3KHC 3KHC 3KHC 3KHC 3KHC 3KHC 3KHC 3KHC 3KHC 3KHC 3KHC 3KHC 3KHC 3KHC 3KHC 3KHC 3KHC 3KHC 3KHC 3KHC 3KHC 3KHC 3KHC 3KHC 3KHC 3KHC 3KHC 3KHC 3KHC 3KHC 3KHC 3KHC 3KHC 3KHC 3KHC 3KHC 3KHC 3KHC 3KHC 3KHC 3KHC 3KHC 3KHC 3KHC 3KHC 3KHC 3KHC 3KHC 3KHC 3KHC 3KHC 3KHC 3KHC 3KHC 3KHC 3KHC 3KHC 3KHC 3KHC 3KHC 3KHC 3KHC 3KHC 3KHC 3KHC 3KHC 3KHC 3KHC 3KHC 3KHC KHC KHC KHC KHC KHC0 KHC0 KHC0 KHC0 KHC0 KHC0 KHC0 KHC0 KHC0 KHC0 KHC0 KHC0 KHC0 KHC0 KHC0 KHC0 KHC0 KHC0 KHC0 KHC0 KHC0 KHC0 KHC0 KHC0 KHC0 KHC0 KHC0 KHC0 KHC0 KHC0 KHC0 KHC0 KHC0 KHC0 KHC0 KHC0 KHC0 KHC0 KHC0 KHC0 KHC0 KHC0 KHC0 KHC0 KHC0 KHC0 KHC0 KHC0 KHC0 KHC0 KHC0 KHC0 KHC0 KHC0 KHC0 KHC0 KHC0 KHC0 KHC0 KHC0 KHC0 KHC0 KHC0 KHC0 KHC0 KHC0 KHC0 KHC0 KHC0 KHC0 KHC0 KHC0 KHC0 KHC0 KHC0 KHC0 KHC0 KHC0 KHC0 KHC0 KHC0 KHC0 KHC0 KHC0 KHC0 KHC0 KHC0 KHC0 KHC0 KHC0 KHC0 KHC0 KHC0 KHC0 KHC0 KHC0 KHC0 KHC0 KHC0 KHC0 KHC0 KHC0 KHC0 KHC0 KHC0 KHC0 KHC0 KHC0 KHC0 KHC0 KHC0 KHC0 KHC0 KHC0 KHC0 KHC0 KHC0 KHC0 KHC0 KHC0 KHC0 KHC0 KHC0 KHC0 KHC0 KHC0 KHC0 KHC0 KHC0 KHC0 KHC0 KHC0 KHC0 KHC0 KHC0 KHC0 KHC0 KHC0 KHC0 KHC0 KHC0 KHC0 KHC0 KHC0 KHC0 KHC0 KHC0 KHC0 KHC0 KHC0 KHC0 0    6HEK 6HEK 6HEK 6HEK 6HEK 6HEK 6HEK 6HEK 6HEK 6HEK 6HEK 6HEK 6HEK 6HEK 6HEK 6HEK 6HEK 6HEK 6HEK 6HEK 6HEK 6HEK 6HEK 6HEK 6HEK 6HEK 6HEK 6HEK 6HEK 6HEK 6HEK 6HEK 6HEK 6HEK 6HEK 6HEK 6HEK 6HEK 6HEK 6HEK 6HEK 6HEK 6HEK 6HEK 6HEK 6HEK 6HEK 6HEK 6HEK 6HEK 6HEK 6HEK 6HEK 6HEK 6HEK 6HEK 6HEK 6HEK 6HEK 6HEK 6HEK 6HEK 6HEK 6HEK 6HEK 6HEK 6HEK 6HEK 6HEK 6HEK 6HEK 6HEK 6HEK 6HEK 6HEK 6HEK 6HEK 6HEK 6HEK 6HEK 6HEK 6HEK 6HEK 6HEK 6HEK 6HEK 6HEK 6HEK 6HEK 6HEK 6HEK 6HEK 6HEK 6HEK 6HEK 6HEK 6HEK 6HEK 6HEK 6HEK 6HEK 6HEK 6HEK 6HEK 6HEK 6HEK 6HEK 6HEK 6HEK 6HEK 6HEK 6HEK 6HEK 6HEK 6HEK 6HEK 6HEK 6HEK 6HEK 6HEK 6HEK 6HEK 6HEK 6HEK 6HEK 6HEK 6HEK 6HEK 6HEK 6HEK 6HEK 6HEK 6HEK 6HEK 6HEK 6HEK 6HEK 6HEK 6HEK 6HEK 6HEK 6HEK 6HEK 6HEK 6HEK 6HEK 6HEK 6HEK 6HEK 6HEK 6HEK 6HEK HEK HEK HEK HEK HEK0 HEK0 HEK0 HEK0 HEK0 HEK0 HEK0 HEK0 HEK0 HEK0 HEK0 HEK0 HEK0 HEK0 HEK0 HEK0 HEK0 HEK0 HEK0 HEK0 HEK0 HEK0 HEK0 HEK0 HEK0 HEK0 HEK0 HEK0 HEK0 HEK0 HEK0 HEK0 HEK0 HEK0 HEK0 HEK0 HEK0 HEK0 HEK0 HEK0 HEK0 HEK0 HEK0 HEK0 HEK0 HEK0 HEK0 HEK0 HEK0 HEK0 HEK0 HEK0 HEK0 HEK0 HEK0 HEK0 HEK0 HEK0 HEK0 HEK0 HEK0 HEK0 HEK0 HEK0 HEK0 HEK0 HEK0 HEK0 HEK0 HEK0 HEK0 HEK0 HEK0 HEK0 HEK0 HEK0 HEK0 HEK0 HEK0 HEK0 HEK0 HEK0 HEK0 HEK0 HEK0 HEK0 HEK0 HEK0 HEK0 HEK0 HEK0 HEK0 HEK0 HEK0 HEK0 HEK0 HEK0 HEK0 HEK0 HEK0 HEK0 HEK0 HEK0 HEK0 HEK0 HEK0 HEK0 HEK0 HEK0 HEK0 HEK0 HEK0 HEK0 HEK0 HEK0 HEK0 HEK0 HEK0 HEK0 HEK0 HEK0 HEK0 HEK0 HEK0 HEK0 HEK0 HEK0 HEK0 HEK0 HEK0 HEK0 HEK0 HEK0 HEK0 HEK0 HEK0 HEK0 HEK0 HEK0 HEK0 HEK0 HEK0 HEK0 HEK0 HEK0 HEK0 HEK0 HEK0 HEK0 HEK0 HEK0 0    JF7 JF7 JF7 JF7 JF7 JF7 JF7 JF7 JF7 JF7 JF7 JF7 JF7 JF7 JF7 JF7 JF7 JF7 JF7 JF7 JF7 JF7 JF7 JF7 JF7 JF7 JF7 JF7 JF7 JF7 JF7 JF7 JF7 JF7 JF7 JF7 JF7 JF7 JF7 JF7 JF7 JF7 JF7 JF7 JF7 JF7 JF7 JF7 JF7 JF7 JF7 JF7 JF7 JF7 JF7 JF7 JF7 JF7 JF7 JF7 JF7 JF7 JF7 JF7 JF7 JF7 JF7 JF7 JF7 JF7 JF7 JF7 JF7 JF7 JF7 JF7 JF7 JF7 JF7 JF7 JF7 JF7 JF7 JF7 JF7 JF7 JF7 JF7 JF7 JF7 JF7 JF7 JF7 JF7 JF7 JF7 JF7 JF7 JF7 JF7 JF7 JF7 JF7 JF7 JF7 JF7 JF7 JF7 JF7 JF7 JF7 JF7 JF7 JF7 JF7 JF7 JF7 JF7 JF7 JF7 JF7 JF7 JF7 JF7 JF7 JF7 JF7 JF7 JF7 JF7 JF7 JF7 JF7 JF7 JF7 JF7 JF7 JF7 JF7 JF7 JF7 JF7 JF7 JF7 JF7 JF7 JF7 JF7 JF7 JF7 JF7 JF7 F7 F7 F7 F7 FJ7 FJ7 FJ7 FJ7 FJ7 FJ7 FJ7 FJ7 FJ7 FJ7 FJ7 FJ7 FJ7 FJ7 FJ7 FJ7 FJ7 FJ7 FJ7 FJ7 FJ7 FJ7 FJ7 FJ7 FJ7 FJ7 FJ7 FJ7 FJ7 FJ7 FJ7 FJ7 FJ7 FJ7 FJ7 FJ7 FJ7 FJ7 FJ7 FJ7 FJ7 FJ7 FJ7 FJ7 FJ7 FJ7 FJ7 FJ7 FJ7 FJ7 FJ7 FJ7 FJ7 FJ7 FJ7 FJ7 FJ7 FJ7 FJ7 FJ7 FJ7 FJ7 FJ7 FJ7 FJ7 FJ7 FJ7 FJ7 FJ7 FJ7 FJ7 FJ7 FJ7 FJ7 FJ7 FJ7 FJ7 FJ7 FJ7 FJ7 FJ7 FJ7 FJ7 FJ7 FJ7 FJ7 FJ7 FJ7 FJ7 FJ7 FJ7 FJ7 FJ7 FJ7 FJ7 FJ7 FJ7 FJ7 FJ7 FJ7 FJ7 FJ7 FJ7 FJ7 FJ7 FJ7 FJ7 FJ7 FJ7 FJ7 FJ7 FJ7 FJ7 FJ7 FJ7 FJ7 FJ7 FJ7 FJ7 FJ7 FJ7 FJ7 FJ7 FJ7 FJ7 FJ7 FJ7 FJ7 FJ7 FJ7 FJ7 FJ7 FJ7 FJ7 FJ7 FJ7 FJ7 FJ7 FJ7 FJ7 FJ7 FJ7 FJ7 FJ7 FJ7 FJ7 FJ7 FJ7 FJ7 FJ7 FJ7 J7 7 7 7 C7: C7: C7: C7: C7: C7: C7: C7: C7: C7: C7: C7: C7: C7: C7: C7: C7: C7: C7: C7: C7: C7: C7: C7: C7: C7: C7: C7: C7: C7: C7: C7: C7: C7: C7: C7: C7: C7: C7: C7: C7: C7: C7: C7: C7: C7: C7: C7: C7: C7: C7: C7: C7: C7: C7: C7: C7: C7: C7: C7: C7: C7: C7: C7: C7: C7: C7: C7: C7: C7: C7: C7: C7: C7: C7: C7: C7: C7: C7: C7: C7: C7: C7: C7: C7: C7: C7: C7: C7: C7: C7: C7: C7: C7: C7: C7: C7: C7: C7: C7: C7: C7: C7: C7: C7: C7: C7: C7: C7: C7: C7: C7: C7: C7: C7: C7: C7: C7: C7: C7: C7: C7: C7: C7: C7: C7: C7: C7: C7: C7: C7: C7: C7: C7: C7: C7: C7: C7: C7: C7: C7: C7: C7: C7: C7: C7: C7: C7: C7: C7: C7: C7: 7: 7: 7: 7: 7:J 7:J 7:J 7:J 7:J 7:J 7:J 7:J 7:J 7:J 7:J 7:J 7:J 7:J 7:J 7:J 7:J 7:J 7:J 7:J 7:J 7:J 7:J 7:J 7:J 7:J 7:J 7:J 7:J 7:J 7:J 7:J 7:J 7:J 7:J 7:J 7:J 7:J 7:J 7:J 7:J 7:J 7:J 7:J 7:J 7:J 7:J 7:J 7:J 7:J 7:J 7:J 7:J 7:J 7:J 7:J 7:J 7:J 7:J 7:J 7:J 7:J 7:J 7:J 7:J 7:J 7:J 7:J 7:J 7:J 7:J 7:J 7:J 7:J 7:J 7:J 7:J 7:J 7:J 7:J 7:J 7:J 7:J 7:J 7:J 7:J 7:J 7:J 7:J 7:J 7:J 7:J 7:J 7:J 7:J 7:J 7:J 7:J 7:J 7:J 7:J 7:J 7:J 7:J 7:J 7:J 7:J 7:J 7:J 7:J 7:J 7:J 7:J 7:J 7:J 7:J 7:J 7:J 7:J 7:J 7:J 7:J 7:J 7:J 7:J 7:J 7:J 7:J 7:J 7:J 7:J 7:J 7:J 7:J 7:J 7:J 7:J 7:J 7:J 7:J 7:J 7:J 7:J 7:J 7:J 7:J 7:J 7:J :J :J :J J    B9 B9 B9 B9 B9 B9 B9 B9 B9 B9 B9 B9 B9 B9 B9 B9 B9 B9 B9 B9 B9 B9 B9 B9 B9 B9 B9 B9 B9 B9 B9 B9 B9 B9 B9 B9 B9 B9 B9 B9 B9 B9 B9 B9 B9 B9 B9 B9 B9 B9 B9 B9 B9 B9 B9 B9 B9 B9 B9 B9 B9 B9 B9 B9 B9 B9 B9 B9 B9 B9 B9 B9 B9 B9 B9 B9 B9 B9 B9 B9 B9 B9 B9 B9 B9 B9 B9 B9 B9 B9 B9 B9 B9 B9 B9 B9 B9 B9 B9 B9 B9 B9 B9 B9 B9 B9 B9 B9 B9 B9 B9 B9 B9 B9 B9 B9 B9 B9 B9 B9 B9 B9 B9 B9 B9 B9 B9 B9 B9 B9 B9 B9 B9 B9 B9 B9 B9 B9 B9 B9 B9 B9 B9 B9 B9 B9 B9 B9 B9 B9 B9 B9 9 9 9 9 9H 9H 9H 9H 9H 9H 9H 9H 9H 9H 9H 9H 9H 9H 9H 9H 9H 9H 9H 9H 9H 9H 9H 9H 9H 9H 9H 9H 9H 9H 9H 9H 9H 9H 9H 9H 9H 9H 9H 9H 9H 9H 9H 9H 9H 9H 9H 9H 9H 9H 9H 9H 9H 9H 9H 9H 9H 9H 9H 9H 9H 9H 9H 9H 9H 9H 9H 9H 9H 9H 9H 9H 9H 9H 9H 9H 9H 9H 9H 9H 9H 9H 9H 9H 9H 9H 9H 9H 9H 9H 9H 9H 9H 9H 9H 9H 9H 9H 9H 9H 9H 9H 9H 9H 9H 9H 9H 9H 9H 9H 9H 9H 9H 9H 9H 9H 9H 9H 9H 9H 9H 9H 9H 9H 9H 9H 9H 9H 9H 9H 9H 9H 9H 9H 9H 9H 9H 9H 9H 9H 9H 9H 9H 9H 9H 9H 9H 9H 9H 9H 9H H    F+7 F+7 F+7 F+7 F+7 F+7 F+7 F+7 F+7 F+7 F+7 F+7 F+7 F+7 F+7 F+7 F+7 F+7 F+7 F+7 F+7 F+7 F+7 F+7 F+7 F+7 F+7 F+7 F+7 F+7 F+7 F+7 F+7 F+7 F+7 F+7 F+7 F+7 F+7 F+7 F+7 F+7 F+7 F+7 F+7 F+7 F+7 F+7 F+7 F+7 F+7 F+7 F+7 F+7 F+7 F+7 F+7 F+7 F+7 F+7 F+7 F+7 F+7 F+7 F+7 F+7 F+7 F+7 F+7 F+7 F+7 F+7 F+7 F+7 F+7 F+7 F+7 F+7 F+7 F+7 F+7 F+7 F+7 F+7 F+7 F+7 F+7 F+7 F+7 F+7 F+7 F+7 F+7 F+7 F+7 F+7 F+7 F+7 F+7 F+7 F+7 F+7 F+7 F+7 F+7 F+7 F+7 F+7 F+7 F+7 F+7 F+7 F+7 F+7 F+7 F+7 F+7 F+7 F+7 F+7 F+7 F+7 F+7 F+7 F+7 F+7 F+7 F+7 F+7 F+7 F+7 F+7 F+7 F+7 F+7 F+7 F+7 F+7 F+7 F+7 F+7 F+7 F+7 F+7 F+7 F+7 F+7 F+7 F+7 F+7 F+7 F+7 +7 +7 +7 +7 +7J +7J +7J +7J +7J +7J +7J +7J +7J +7J +7J +7J +7J +7J +7J +7J +7J +7J +7J +7J +7J +7J +7J +7J +7J +7J +7J +7J +7J +7J +7J +7J +7J +7J +7J +7J +7J +7J +7J +7J +7J +7J +7J +7J +7J +7J +7J +7J +7J +7J +7J +7J +7J +7J +7J +7J +7J +7J +7J +7J +7J +7J +7J +7J +7J +7J +7J +7J +7J +7J +7J +7J +7J +7J +7J +7J +7J +7J +7J +7J +7J +7J +7J +7J +7J +7J +7J +7J +7J +7J +7J +7J +7J +7J +7J +7J +7J +7J +7J +7J +7J +7J +7J +7J +7J +7J +7J +7J +7J +7J +7J +7J +7J +7J +7J +7J +7J +7J +7J +7J +7J +7J +7J +7J +7J +7J +7J +7J +7J +7J +7J +7J +7J +7J +7J +7J +7J +7J +7J +7J +7J +7J +7J +7J +7J +7J +7J +7J +7J +7J +7J J    C: C: C: C: C: C: C: C: C: C: C: C: C: C: C: C: C: C: C: C: C: C: C: C: C: C: C: C: C: C: C: C: C: C: C: C: C: C: C: C: C: C: C: C: C: C: C: C: C: C: C: C: C: C: C: C: C: C: C: C: C: C: C: C: C: C: C: C: C: C: C: C: C: C: C: C: C: C: C: C: C: C: C: C: C: C: C: C: C: C: C: C: C: C: C: C: C: C: C: C: C: C: C: C: C: C: C: C: C: C: C: C: C: C: C: C: C: C: C: C: C: C: C: C: C: C: C: C: C: C: C: C: C: C: C: C: C: C: C: C: C: C: C: C: C: C: C: C: C: C: C: C: : : : : :J :J :J :J :J :J :J :J :J :J :J :J :J :J :J :J :J :J :J :J :J :J :J :J :J :J :J :J :J :J :J :J :J :J :J :J :J :J :J :J :J :J :J :J :J :J :J :J :J :J :J :J :J :J :J :J :J :J :J :J :J :J :J :J :J :J :J :J :J :J :J :J :J :J :J :J :J :J :J :J :J :J :J :J :J :J :J :J :J :J :J :J :J :J :J :J :J :J :J :J :J :J :J :J :J :J :J :J :J :J :J :J :J :J :J :J :J :J :J :J :J :J :J :J :J :J :J :J :J :J :J :J :J :J :J :J :J :J :J :J :J :J :J :J :J :J :J :J :J :J :J J    B9 B9 B9 B9 B9 B9 B9 B9 B9 B9 B9 B9 B9 B9 B9 B9 B9 B9 B9 B9 B9 B9 B9 B9 B9 B9 B9 B9 B9 B9 B9 B9 B9 B9 B9 B9 B9 B9 B9 B9 B9 B9 B9 B9 B9 B9 B9 B9 B9 B9 B9 B9 B9 B9 B9 B9 B9 B9 B9 B9 B9 B9 B9 B9 B9 B9 B9 B9 B9 B9 B9 B9 B9 B9 B9 B9 B9 B9 B9 B9 B9 B9 B9 B9 B9 B9 B9 B9 B9 B9 B9 B9 B9 B9 B9 B9 B9 B9 B9 B9 B9 B9 B9 B9 B9 B9 B9 B9 B9 B9 B9 B9 B9 B9 B9 B9 B9 B9 B9 B9 B9 B9 B9 B9 B9 B9 B9 B9 B9 B9 B9 B9 B9 B9 B9 B9 B9 B9 B9 B9 B9 B9 B9 B9 B9 B9 B9 B9 B9 B9 B9 B9 9 9 9 9 9H 9H 9H 9H 9H 9H 9H 9H 9H 9H 9H 9H 9H 9H 9H 9H 9H 9H 9H 9H 9H 9H 9H 9H 9H 9H 9H 9H 9H 9H 9H 9H 9H 9H 9H 9H 9H 9H 9H 9H 9H 9H 9H 9H 9H 9H 9H 9H 9H 9H 9H 9H 9H 9H 9H 9H 9H 9H 9H 9H 9H 9H 9H 9H 9H 9H 9H 9H 9H 9H 9H 9H 9H 9H 9H 9H 9H 9H 9H 9H 9H 9H 9H 9H 9H 9H 9H 9H 9H 9H 9H 9H 9H 9H 9H 9H 9H 9H 9H 9H 9H 9H 9H 9H 9H 9H 9H 9H 9H 9H 9H 9H 9H 9H 9H 9H 9H 9H 9H 9H 9H 9H 9H 9H 9H 9H 9H 9H 9H 9H 9H 9H 9H 9H 9H 9H 9H 9H 9H 9H 9H 9H 9H 9H 9H 9H 9H 9H 9H 9H 9H H    F7 F7 F7 F7 F7 F7 F7 F7 F7 F7 F7 F7 F7 F7 F7 F7 F7 F7 F7 F7 F7 F7 F7 F7 F7 F7 F7 F7 F7 F7 F7 F7 F7 F7 F7 F7 F7 F7 F7 F7 F7 F7 F7 F7 F7 F7 F7 F7 F7 F7 F7 F7 F7 F7 F7 F7 F7 F7 F7 F7 F7 F7 F7 F7 F7 F7 F7 F7 F7 F7 F7 F7 F7 F7 F7 F7 F7 F7 F7 F7 F7 F7 F7 F7 F7 F7 F7 F7 F7 F7 F7 F7 F7 F7 F7 F7 F7 F7 F7 F7 F7 F7 F7 F7 F7 F7 F7 F7 F7 F7 F7 F7 F7 F7 F7 F7 F7 F7 F7 F7 F7 F7 F7 F7 F7 F7 F7 F7 F7 F7 F7 F7 F7 F7 F7 F7 F7 F7 F7 F7 F7 F7 F7 F7 F7 F7 F7 F7 F7 F7 F7 F7 7 7 7 7 C7 C7 C7 C7 C7 C7 C7 C7 C7 C7 C7 C7 C7 C7 C7 C7 C7 C7 C7 C7 C7 C7 C7 C7 C7 C7 C7 C7 C7 C7 C7 C7 C7 C7 C7 C7 C7 C7 C7 C7 C7 C7 C7 C7 C7 C7 C7 C7 C7 C7 C7 C7 C7 C7 C7 C7 C7 C7 C7 C7 C7 C7 C7 C7 C7 C7 C7 C7 C7 C7 C7 C7 C7 C7 C7 C7 C7 C7 C7 C7 C7 C7 C7 C7 C7 C7 C7 C7 C7 C7 C7 C7 C7 C7 C7 C7 C7 C7 C7 C7 C7 C7 C7 C7 C7 C7 C7 C7 C7 C7 C7 C7 C7 C7 C7 C7 C7 C7 C7 C7 C7 C7 C7 C7 C7 C7 C7 C7 C7 C7 C7 C7 C7 C7 C7 C7 C7 C7 C7 C7 C7 C7 C7 C7 C7 C7 C7 C7 C7 C7 C7 C7 7 7 7 @07 @07 @07 @07 @07 @07 @07 @07 @07 @07 @07 @07 @07 @07 @07 @07 @07 @07 @07 @07 @07 @07 @07 @07 @07 @07 @07 @07 @07 @07 @07 @07 @07 @07 @07 @07 @07 @07 @07 @07 @07 @07 @07 @07 @07 @07 @07 @07 @07 @07 @07 @07 @07 @07 @07 @07 @07 @07 @07 @07 @07 @07 @07 @07 @07 @07 @07 @07 @07 @07 @07 @07 @07 @07 @07 @07 @07 @07 @07 @07 @07 @07 @07 @07 @07 @07 @07 @07 @07 @07 @07 @07 @07 @07 @07 @07 @07 @07 @07 @07 @07 @07 @07 @07 @07 @07 @07 @07 @07 @07 @07 @07 @07 @07 @07 @07 @07 @07 @07 @07 @07 @07 @07 @07 @07 @07 @07 @07 @07 @07 @07 @07 @07 @07 @07 @07 @07 @07 @07 @07 @07 @07 @07 @07 @07 @07 @07 @07 @07 @07 @07 @07 07 07 07 07 0F7 0F7 0F7 0F7 0F7 0F7 0F7 0F7 0F7 0F7 0F7 0F7 0F7 0F7 0F7 0F7 0F7 0F7 0F7 0F7 0F7 0F7 0F7 0F7 0F7 0F7 0F7 0F7 0F7 0F7 0F7 0F7 0F7 0F7 0F7 0F7 0F7 0F7 0F7 0F7 0F7 0F7 0F7 0F7 0F7 0F7 0F7 0F7 0F7 0F7 0F7 0F7 0F7 0F7 0F7 0F7 0F7 0F7 0F7 0F7 0F7 0F7 0F7 0F7 0F7 0F7 0F7 0F7 0F7 0F7 0F7 0F7 0F7 0F7 0F7 0F7 0F7 0F7 0F7 0F7 0F7 0F7 0F7 0F7 0F7 0F7 0F7 0F7 0F7 0F7 0F7 0F7 0F7 0F7 0F7 0F7 0F7 0F7 0F7 0F7 0F7 0F7 0F7 0F7 0F7 0F7 0F7 0F7 0F7 0F7 0F7 0F7 0F7 0F7 0F7 0F7 0F7 0F7 0F7 0F7 0F7 0F7 0F7 0F7 0F7 0F7 0F7 0F7 0F7 0F7 0F7 0F7 0F7 0F7 0F7 0F7 0F7 0F7 0F7 0F7 0F7 0F7 0F7 0F7 0F7 0F7 0F7 0F7 0F7 0F7 0F7 F7 7 7 7 >27 >27 >27 >27 >27 >27 >27 >27 >27 >27 >27 >27 >27 >27 >27 >27 >27 >27 >27 >27 >27 >27 >27 >27 >27 >27 >27 >27 >27 >27 >27 >27 >27 >27 >27 >27 >27 >27 >27 >27 >27 >27 >27 >27 >27 >27 >27 >27 >27 >27 >27 >27 >27 >27 >27 >27 >27 >27 >27 >27 >27 >27 >27 >27 >27 >27 >27 >27 >27 >27 >27 >27 >27 >27 >27 >27 >27 >27 >27 >27 >27 >27 >27 >27 >27 >27 >27 >27 >27 >27 >27 >27 >27 >27 >27 >27 >27 >27 >27 >27 >27 >27 >27 >27 >27 >27 >27 >27 >27 >27 >27 >27 >27 >27 >27 >27 >27 >27 >27 >27 >27 >27 >27 >27 >27 >27 >27 >27 >27 >27 >27 >27 >27 >27 >27 >27 >27 >27 >27 >27 >27 >27 >27 >27 >27 >27 >27 >27 >27 >27 >27 >27 27 27 27 27 2F7 2F7 2F7 2F7 2F7 2F7 2F7 2F7 2F7 2F7 2F7 2F7 2F7 2F7 2F7 2F7 2F7 2F7 2F7 2F7 2F7 2F7 2F7 2F7 2F7 2F7 2F7 2F7 2F7 2F7 2F7 2F7 2F7 2F7 2F7 2F7 2F7 2F7 2F7 2F7 2F7 2F7 2F7 2F7 2F7 2F7 2F7 2F7 2F7 2F7 2F7 2F7 2F7 2F7 2F7 2F7 2F7 2F7 2F7 2F7 2F7 2F7 2F7 2F7 2F7 2F7 2F7 2F7 2F7 2F7 2F7 2F7 2F7 2F7 2F7 2F7 2F7 2F7 2F7 2F7 2F7 2F7 2F7 2F7 2F7 2F7 2F7 2F7 2F7 2F7 2F7 2F7 2F7 2F7 2F7 2F7 2F7 2F7 2F7 2F7 2F7 2F7 2F7 2F7 2F7 2F7 2F7 2F7 2F7 2F7 2F7 2F7 2F7 2F7 2F7 2F7 2F7 2F7 2F7 2F7 2F7 2F7 2F7 2F7 2F7 2F7 2F7 2F7 2F7 2F7 2F7 2F7 2F7 2F7 2F7 2F7 2F7 2F7 2F7 2F7 2F7 2F7 2F7 2F7 2F7 2F7 2F7 2F7 2F7 2F7 2F7 F7 7 7 7 <47 <47 <47 <47 <47 <47 <47 <47 <47 <47 <47 <47 <47 <47 <47 <47 <47 <47 <47 <47 <47 <47 <47 <47 <47 <47 <47 <47 <47 <47 <47 <47 <47 <47 <47 <47 <47 <47 <47 <47 <47 <47 <47 <47 <47 <47 <47 <47 <47 <47 <47 <47 <47 <47 <47 <47 <47 <47 <47 <47 <47 <47 <47 <47 <47 <47 <47 <47 <47 <47 <47 <47 <47 <47 <47 <47 <47 <47 <47 <47 <47 <47 <47 <47 <47 <47 <47 <47 <47 <47 <47 <47 <47 <47 <47 <47 <47 <47 <47 <47 <47 <47 <47 <47 <47 <47 <47 <47 <47 <47 <47 <47 <47 <47 <47 <47 <47 <47 <47 <47 <47 <47 <47 <47 <47 <47 <47 <47 <47 <47 <47 <47 <47 <47 <47 <47 <47 <47 <47 <47 <47 <47 <47 <47 <47 <47 <47 <47 <47 <47 <47 <47 47 47 47 47 4F7 4F7 4F7 4F7 4F7 4F7 4F7 4F7 4F7 4F7 4F7 4F7 4F7 4F7 4F7 4F7 4F7 4F7 4F7 4F7 4F7 4F7 4F7 4F7 4F7 4F7 4F7 4F7 4F7 4F7 4F7 4F7 4F7 4F7 4F7 4F7 4F7 4F7 4F7 4F7 4F7 4F7 4F7 4F7 4F7 4F7 4F7 4F7 4F7 4F7 4F7 4F7 4F7 4F7 4F7 4F7 4F7 4F7 4F7 4F7 4F7 4F7 4F7 4F7 4F7 4F7 4F7 4F7 4F7 4F7 4F7 4F7 4F7 4F7 4F7 4F7 4F7 4F7 4F7 4F7 4F7 4F7 4F7 4F7 4F7 4F7 4F7 4F7 4F7 4F7 4F7 4F7 4F7 4F7 4F7 4F7 4F7 4F7 4F7 4F7 4F7 4F7 4F7 4F7 4F7 4F7 4F7 4F7 4F7 4F7 4F7 4F7 4F7 4F7 4F7 4F7 4F7 4F7 4F7 4F7 4F7 4F7 4F7 4F7 4F7 4F7 4F7 4F7 4F7 4F7 4F7 4F7 4F7 4F7 4F7 4F7 4F7 4F7 4F7 4F7 4F7 4F7 4F7 4F7 4F7 4F7 4F7 4F7 4F7 4F7 4F7 F7 7 7 7 >27 >27 >27 >27 >27 >27 >27 >27 >27 >27 >27 >27 >27 >27 >27 >27 >27 >27 >27 >27 >27 >27 >27 >27 >27 >27 >27 >27 >27 >27 >27 >27 >27 >27 >27 >27 >27 >27 >27 >27 >27 >27 >27 >27 >27 >27 >27 >27 >27 >27 >27 >27 >27 >27 >27 >27 >27 >27 >27 >27 >27 >27 >27 >27 >27 >27 >27 >27 >27 >27 >27 >27 >27 >27 >27 >27 >27 >27 >27 >27 >27 >27 >27 >27 >27 >27 >27 >27 >27 >27 >27 >27 >27 >27 >27 >27 >27 >27 >27 >27 >27 >27 >27 >27 >27 >27 >27 >27 >27 >27 >27 >27 >27 >27 >27 >27 >27 >27 >27 >27 >27 >27 >27 >27 >27 >27 >27 >27 >27 >27 >27 >27 >27 >27 >27 >27 >27 >27 >27 >27 >27 >27 >27 >27 >27 >27 >27 >27 >27 >27 >27 >27 27 27 27 27 2F7 2F7 2F7 2F7 2F7 2F7 2F7 2F7 2F7 2F7 2F7 2F7 2F7 2F7 2F7 2F7 2F7 2F7 2F7 2F7 2F7 2F7 2F7 2F7 2F7 2F7 2F7 2F7 2F7 2F7 2F7 2F7 2F7 2F7 2F7 2F7 2F7 2F7 2F7 2F7 2F7 2F7 2F7 2F7 2F7 2F7 2F7 2F7 2F7 2F7 2F7 2F7 2F7 2F7 2F7 2F7 2F7 2F7 2F7 2F7 2F7 2F7 2F7 2F7 2F7 2F7 2F7 2F7 2F7 2F7 2F7 2F7 2F7 2F7 2F7 2F7 2F7 2F7 2F7 2F7 2F7 2F7 2F7 2F7 2F7 2F7 2F7 2F7 2F7 2F7 2F7 2F7 2F7 2F7 2F7 2F7 2F7 2F7 2F7 2F7 2F7 2F7 2F7 2F7 2F7 2F7 2F7 2F7 2F7 2F7 2F7 2F7 2F7 2F7 2F7 2F7 2F7 2F7 2F7 2F7 2F7 2F7 2F7 2F7 2F7 2F7 2F7 2F7 2F7 2F7 2F7 2F7 2F7 2F7 2F7 2F7 2F7 2F7 2F7 2F7 2F7 2F7 2F7 2F7 2F7 2F7 2F7 2F7 2F7 2F7 2F7 F7 7 7 7 7 @07 @07 @07 @07 @07 @07 @07 @07 @07 @07 @07 @07 @07 @07 @07 @07 @07 @07 @07 @07 @07 @07 @07 @07 @07 @07 @07 @07 @07 @07 @07 @07 @07 @07 @07 @07 @07 @07 @07 @07 @07 @07 @07 @07 @07 @07 @07 @07 @07 @07 @07 @07 @07 @07 @07 @07 @07 @07 @07 @07 @07 @07 @07 @07 @07 @07 @07 @07 @07 @07 @07 @07 @07 @07 @07 @07 @07 @07 @07 @07 @07 @07 @07 @07 @07 @07 @07 @07 @07 @07 @07 @07 @07 @07 @07 @07 @07 @07 @07 @07 @07 @07 @07 @07 @07 @07 @07 @07 @07 @07 @07 @07 @07 @07 @07 @07 @07 @07 @07 @07 @07 @07 @07 @07 @07 @07 @07 @07 @07 @07 @07 @07 @07 @07 @07 @07 @07 @07 @07 @07 @07 @07 @07 @07 @07 @07 @07 @07 @07 @07 @07 @07 07 07 07 F07 F07 F07 F07 F07 F07 F07 F07 F07 F07 F07 F07 F07 F07 F07 F07 F07 F07 F07 F07 F07 F07 F07 F07 F07 F07 F07 F07 F07 F07 F07 F07 F07 F07 F07 F07 F07 F07 F07 F07 F07 F07 F07 F07 F07 F07 F07 F07 F07 F07 F07 F07 F07 F07 F07 F07 F07 F07 F07 F07 F07 F07 F07 F07 F07 F07 F07 F07 F07 F07 F07 F07 F07 F07 F07 F07 F07 F07 F07 F07 F07 F07 F07 F07 F07 F07 F07 F07 F07 F07 F07 F07 F07 F07 F07 F07 F07 F07 F07 F07 F07 F07 F07 F07 F07 F07 F07 F07 F07 F07 F07 F07 F07 F07 F07 F07 F07 F07 F07 F07 F07 F07 F07 F07 F07 F07 F07 F07 F07 F07 F07 F07 F07 F07 F07 F07 F07 F07 F07 F07 F07 F07 F07 F07 F07 F07 F07 F07 F07 F07 F07 F07     D5 D5 D5 D5 D5 D5 D5 D5 D5 D5 D5 D5 D5 D5 D5 D5 D5 D5 D5 D5 D5 D5 D5 D5 D5 D5 D5 D5 D5 D5 D5 D5 D5 D5 D5 D5 D5 D5 D5 D5 D5 D5 D5 D5 D5 D5 D5 D5 D5 D5 D5 D5 D5 D5 D5 D5 D5 D5 D5 D5 D5 D5 D5 D5 D5 D5 D5 D5 D5 D5 D5 D5 D5 D5 D5 D5 D5 D5 D5 D5 D5 D5 D5 D5 D5 D5 D5 D5 D5 D5 D5 D5 D5 D5 D5 D5 D5 D5 D5 D5 D5 D5 D5 D5 D5 D5 D5 D5 D5 D5 D5 D5 D5 D5 D5 D5 D5 D5 D5 D5 D5 D5 D5 D5 D5 D5 D5 D5 D5 D5 D5 D5 D5 D5 D5 D5 D5 D5 D5 D5 D5 D5 D5 D5 D5 D5 D5 D5 D5 D5 D5 D5 5 5 5 H5 H5 H5 H5 H5 H5 H5 H5 H5 H5 H5 H5 H5 H5 H5 H5 H5 H5 H5 H5 H5 H5 H5 H5 H5 H5 H5 H5 H5 H5 H5 H5 H5 H5 H5 H5 H5 H5 H5 H5 H5 H5 H5 H5 H5 H5 H5 H5 H5 H5 H5 H5 H5 H5 H5 H5 H5 H5 H5 H5 H5 H5 H5 H5 H5 H5 H5 H5 H5 H5 H5 H5 H5 H5 H5 H5 H5 H5 H5 H5 H5 H5 H5 H5 H5 H5 H5 H5 H5 H5 H5 H5 H5 H5 H5 H5 H5 H5 H5 H5 H5 H5 H5 H5 H5 H5 H5 H5 H5 H5 H5 H5 H5 H5 H5 H5 H5 H5 H5 H5 H5 H5 H5 H5 H5 H5 H5 H5 H5 H5 H5 H5 H5 H5 H5 H5 H5 H5 H5 H5 H5 H5 H5 H5 H5 H5 H5 H5 H5 H5 H5 H5 5 5 5 5 A58 A58 A58 A58 A58 A58 A58 A58 A58 A58 A58 A58 A58 A58 A58 A58 A58 A58 A58 A58 A58 A58 A58 A58 A58 A58 A58 A58 A58 A58 A58 A58 A58 A58 A58 A58 A58 A58 A58 A58 A58 A58 A58 A58 A58 A58 A58 A58 A58 A58 A58 A58 A58 A58 A58 A58 A58 A58 A58 A58 A58 A58 A58 A58 A58 A58 A58 A58 A58 A58 A58 A58 A58 A58 A58 A58 A58 A58 A58 A58 A58 A58 A58 A58 A58 A58 A58 A58 A58 A58 A58 A58 A58 A58 A58 A58 A58 A58 A58 A58 A58 A58 A58 A58 A58 A58 A58 A58 A58 A58 A58 A58 A58 A58 A58 A58 A58 A58 A58 A58 A58 A58 A58 A58 A58 A58 A58 A58 A58 A58 A58 A58 A58 A58 A58 A58 A58 A58 A58 A58 A58 A58 A58 A58 A58 A58 A58 A58 A58 A58 A58 A58 58 58 58 5H8 5H8 5H8 5H8 5H8 5H8 5H8 5H8 5H8 5H8 5H8 5H8 5H8 5H8 5H8 5H8 5H8 5H8 5H8 5H8 5H8 5H8 5H8 5H8 5H8 5H8 5H8 5H8 5H8 5H8 5H8 5H8 5H8 5H8 5H8 5H8 5H8 5H8 5H8 5H8 5H8 5H8 5H8 5H8 5H8 5H8 5H8 5H8 5H8 5H8 5H8 5H8 5H8 5H8 5H8 5H8 5H8 5H8 5H8 5H8 5H8 5H8 5H8 5H8 5H8 5H8 5H8 5H8 5H8 5H8 5H8 5H8 5H8 5H8 5H8 5H8 5H8 5H8 5H8 5H8 5H8 5H8 5H8 5H8 5H8 5H8 5H8 5H8 5H8 5H8 5H8 5H8 5H8 5H8 5H8 5H8 5H8 5H8 5H8 5H8 5H8 5H8 5H8 5H8 5H8 5H8 5H8 5H8 5H8 5H8 5H8 5H8 5H8 5H8 5H8 5H8 5H8 5H8 5H8 5H8 5H8 5H8 5H8 5H8 5H8 5H8 5H8 5H8 5H8 5H8 5H8 5H8 5H8 5H8 5H8 5H8 5H8 5H8 5H8 5H8 5H8 5H8 5H8 5H8 5H8 5H8 5H8 5H8 5H8 H8 H8 H8     @7 @7 @7 @7 @7 @7 @7 @7 @7 @7 @7 @7 @7 @7 @7 @7 @7 @7 @7 @7 @7 @7 @7 @7 @7 @7 @7 @7 @7 @7 @7 @7 @7 @7 @7 @7 @7 @7 @7 @7 @7 @7 @7 @7 @7 @7 @7 @7 @7 @7 @7 @7 @7 @7 @7 @7 @7 @7 @7 @7 @7 @7 @7 @7 @7 @7 @7 @7 @7 @7 @7 @7 @7 @7 @7 @7 @7 @7 @7 @7 @7 @7 @7 @7 @7 @7 @7 @7 @7 @7 @7 @7 @7 @7 @7 @7 @7 @7 @7 @7 @7 @7 @7 @7 @7 @7 @7 @7 @7 @7 @7 @7 @7 @7 @7 @7 @7 @7 @7 @7 @7 @7 @7 @7 @7 @7 @7 @7 @7 @7 @7 @7 @7 @7 @7 @7 @7 @7 @7 @7 @7 @7 @7 @7 @7 @7 @7 @7 @7 @7 @7 @7 7 7 7 F7 F7 F7 F7 F7 F7 F7 F7 F7 F7 F7 F7 F7 F7 F7 F7 F7 F7 F7 F7 F7 F7 F7 F7 F7 F7 F7 F7 F7 F7 F7 F7 F7 F7 F7 F7 F7 F7 F7 F7 F7 F7 F7 F7 F7 F7 F7 F7 F7 F7 F7 F7 F7 F7 F7 F7 F7 F7 F7 F7 F7 F7 F7 F7 F7 F7 F7 F7 F7 F7 F7 F7 F7 F7 F7 F7 F7 F7 F7 F7 F7 F7 F7 F7 F7 F7 F7 F7 F7 F7 F7 F7 F7 F7 F7 F7 F7 F7 F7 F7 F7 F7 F7 F7 F7 F7 F7 F7 F7 F7 F7 F7 F7 F7 F7 F7 F7 F7 F7 F7 F7 F7 F7 F7 F7 F7 F7 F7 F7 F7 F7 F7 F7 F7 F7 F7 F7 F7 F7 F7 F7 F7 F7 F7 F7 F7 F7 F7 F7 F7 F7 F7     D)5 D)5 D)5 D)5 D)5 D)5 D)5 D)5 D)5 D)5 D)5 D)5 D)5 D)5 D)5 D)5 D)5 D)5 D)5 D)5 D)5 D)5 D)5 D)5 D)5 D)5 D)5 D)5 D)5 D)5 D)5 D)5 D)5 D)5 D)5 D)5 D)5 D)5 D)5 D)5 D)5 D)5 D)5 D)5 D)5 D)5 D)5 D)5 D)5 D)5 D)5 D)5 D)5 D)5 D)5 D)5 D)5 D)5 D)5 D)5 D)5 D)5 D)5 D)5 D)5 D)5 D)5 D)5 D)5 D)5 D)5 D)5 D)5 D)5 D)5 D)5 D)5 D)5 D)5 D)5 D)5 D)5 D)5 D)5 D)5 D)5 D)5 D)5 D)5 D)5 D)5 D)5 D)5 D)5 D)5 D)5 D)5 D)5 D)5 D)5 D)5 D)5 D)5 D)5 D)5 D)5 D)5 D)5 D)5 D)5 D)5 D)5 D)5 D)5 D)5 D)5 D)5 D)5 D)5 D)5 D)5 D)5 D)5 D)5 D)5 D)5 D)5 D)5 D)5 D)5 D)5 D)5 D)5 D)5 D)5 D)5 D)5 D)5 D)5 D)5 D)5 D)5 D)5 D)5 D)5 D)5 D)5 D)5 D)5 D)5 D)5 D)5 )5 )5 )5 H)5 H)5 H)5 H)5 H)5 H)5 H)5 H)5 H)5 H)5 H)5 H)5 H)5 H)5 H)5 H)5 H)5 H)5 H)5 H)5 H)5 H)5 H)5 H)5 H)5 H)5 H)5 H)5 H)5 H)5 H)5 H)5 H)5 H)5 H)5 H)5 H)5 H)5 H)5 H)5 H)5 H)5 H)5 H)5 H)5 H)5 H)5 H)5 H)5 H)5 H)5 H)5 H)5 H)5 H)5 H)5 H)5 H)5 H)5 H)5 H)5 H)5 H)5 H)5 H)5 H)5 H)5 H)5 H)5 H)5 H)5 H)5 H)5 H)5 H)5 H)5 H)5 H)5 H)5 H)5 H)5 H)5 H)5 H)5 H)5 H)5 H)5 H)5 H)5 H)5 H)5 H)5 H)5 H)5 H)5 H)5 H)5 H)5 H)5 H)5 H)5 H)5 H)5 H)5 H)5 H)5 H)5 H)5 H)5 H)5 H)5 H)5 H)5 H)5 H)5 H)5 H)5 H)5 H)5 H)5 H)5 H)5 H)5 H)5 H)5 H)5 H)5 H)5 H)5 H)5 H)5 H)5 H)5 H)5 H)5 H)5 H)5 H)5 H)5 H)5 H)5 H)5 H)5 H)5 H)5 H)5 H)5 H)5 H)5 H)5 H)5 H)5     A8 A8 A8 A8 A8 A8 A8 A8 A8 A8 A8 A8 A8 A8 A8 A8 A8 A8 A8 A8 A8 A8 A8 A8 A8 A8 A8 A8 A8 A8 A8 A8 A8 A8 A8 A8 A8 A8 A8 A8 A8 A8 A8 A8 A8 A8 A8 A8 A8 A8 A8 A8 A8 A8 A8 A8 A8 A8 A8 A8 A8 A8 A8 A8 A8 A8 A8 A8 A8 A8 A8 A8 A8 A8 A8 A8 A8 A8 A8 A8 A8 A8 A8 A8 A8 A8 A8 A8 A8 A8 A8 A8 A8 A8 A8 A8 A8 A8 A8 A8 A8 A8 A8 A8 A8 A8 A8 A8 A8 A8 A8 A8 A8 A8 A8 A8 A8 A8 A8 A8 A8 A8 A8 A8 A8 A8 A8 A8 A8 A8 A8 A8 A8 A8 A8 A8 A8 A8 A8 A8 A8 A8 A8 A8 A8 A8 A8 A8 A8 A8 A8 A8 8 8 8 H8 H8 H8 H8 H8 H8 H8 H8 H8 H8 H8 H8 H8 H8 H8 H8 H8 H8 H8 H8 H8 H8 H8 H8 H8 H8 H8 H8 H8 H8 H8 H8 H8 H8 H8 H8 H8 H8 H8 H8 H8 H8 H8 H8 H8 H8 H8 H8 H8 H8 H8 H8 H8 H8 H8 H8 H8 H8 H8 H8 H8 H8 H8 H8 H8 H8 H8 H8 H8 H8 H8 H8 H8 H8 H8 H8 H8 H8 H8 H8 H8 H8 H8 H8 H8 H8 H8 H8 H8 H8 H8 H8 H8 H8 H8 H8 H8 H8 H8 H8 H8 H8 H8 H8 H8 H8 H8 H8 H8 H8 H8 H8 H8 H8 H8 H8 H8 H8 H8 H8 H8 H8 H8 H8 H8 H8 H8 H8 H8 H8 H8 H8 H8 H8 H8 H8 H8 H8 H8 H8 H8 H8 H8 H8 H8 H8 H8 H8 H8 H8 H8 H8     @7 @7 @7 @7 @7 @7 @7 @7 @7 @7 @7 @7 @7 @7 @7 @7 @7 @7 @7 @7 @7 @7 @7 @7 @7 @7 @7 @7 @7 @7 @7 @7 @7 @7 @7 @7 @7 @7 @7 @7 @7 @7 @7 @7 @7 @7 @7 @7 @7 @7 @7 @7 @7 @7 @7 @7 @7 @7 @7 @7 @7 @7 @7 @7 @7 @7 @7 @7 @7 @7 @7 @7 @7 @7 @7 @7 @7 @7 @7 @7 @7 @7 @7 @7 @7 @7 @7 @7 @7 @7 @7 @7 @7 @7 @7 @7 @7 @7 @7 @7 @7 @7 @7 @7 @7 @7 @7 @7 @7 @7 @7 @7 @7 @7 @7 @7 @7 @7 @7 @7 @7 @7 @7 @7 @7 @7 @7 @7 @7 @7 @7 @7 @7 @7 @7 @7 @7 @7 @7 @7 @7 @7 @7 @7 @7 @7 @7 @7 @7 @7 @7 @7 7 7 7 F7 F7 F7 F7 F7 F7 F7 F7 F7 F7 F7 F7 F7 F7 F7 F7 F7 F7 F7 F7 F7 F7 F7 F7 F7 F7 F7 F7 F7 F7 F7 F7 F7 F7 F7 F7 F7 F7 F7 F7 F7 F7 F7 F7 F7 F7 F7 F7 F7 F7 F7 F7 F7 F7 F7 F7 F7 F7 F7 F7 F7 F7 F7 F7 F7 F7 F7 F7 F7 F7 F7 F7 F7 F7 F7 F7 F7 F7 F7 F7 F7 F7 F7 F7 F7 F7 F7 F7 F7 F7 F7 F7 F7 F7 F7 F7 F7 F7 F7 F7 F7 F7 F7 F7 F7 F7 F7 F7 F7 F7 F7 F7 F7 F7 F7 F7 F7 F7 F7 F7 F7 F7 F7 F7 F7 F7 F7 F7 F7 F7 F7 F7 F7 F7 F7 F7 F7 F7 F7 F7 F7 F7 F7 F7 F7 F7 F7 F7 F7 F7 F7 F7     D5 D5 D5 D5 D5 D5 D5 D5 D5 D5 D5 D5 D5 D5 D5 D5 D5 D5 D5 D5 D5 D5 D5 D5 D5 D5 D5 D5 D5 D5 D5 D5 D5 D5 D5 D5 D5 D5 D5 D5 D5 D5 D5 D5 D5 D5 D5 D5 D5 D5 D5 D5 D5 D5 D5 D5 D5 D5 D5 D5 D5 D5 D5 D5 D5 D5 D5 D5 D5 D5 D5 D5 D5 D5 D5 D5 D5 D5 D5 D5 D5 D5 D5 D5 D5 D5 D5 D5 D5 D5 D5 D5 D5 D5 D5 D5 D5 D5 D5 D5 D5 D5 D5 D5 D5 D5 D5 D5 D5 D5 D5 D5 D5 D5 D5 D5 D5 D5 D5 D5 D5 D5 D5 D5 D5 D5 D5 D5 D5 D5 D5 D5 D5 D5 D5 D5 D5 D5 D5 D5 D5 D5 D5 D5 D5 D5 D5 D5 D5 D5 D5 D5 5 5 5 A5 A5 A5 A5 A5 A5 A5 A5 A5 A5 A5 A5 A5 A5 A5 A5 A5 A5 A5 A5 A5 A5 A5 A5 A5 A5 A5 A5 A5 A5 A5 A5 A5 A5 A5 A5 A5 A5 A5 A5 A5 A5 A5 A5 A5 A5 A5 A5 A5 A5 A5 A5 A5 A5 A5 A5 A5 A5 A5 A5 A5 A5 A5 A5 A5 A5 A5 A5 A5 A5 A5 A5 A5 A5 A5 A5 A5 A5 A5 A5 A5 A5 A5 A5 A5 A5 A5 A5 A5 A5 A5 A5 A5 A5 A5 A5 A5 A5 A5 A5 A5 A5 A5 A5 A5 A5 A5 A5 A5 A5 A5 A5 A5 A5 A5 A5 A5 A5 A5 A5 A5 A5 A5 A5 A5 A5 A5 A5 A5 A5 A5 A5 A5 A5 A5 A5 A5 A5 A5 A5 A5 A5 A5 A5 A5 A5 A5 A5 A5 A5 A5 A5 5 5 5 5 >.5 >.5 >.5 >.5 >.5 >.5 >.5 >.5 >.5 >.5 >.5 >.5 >.5 >.5 >.5 >.5 >.5 >.5 >.5 >.5 >.5 >.5 >.5 >.5 >.5 >.5 >.5 >.5 >.5 >.5 >.5 >.5 >.5 >.5 >.5 >.5 >.5 >.5 >.5 >.5 >.5 >.5 >.5 >.5 >.5 >.5 >.5 >.5 >.5 >.5 >.5 >.5 >.5 >.5 >.5 >.5 >.5 >.5 >.5 >.5 >.5 >.5 >.5 >.5 >.5 >.5 >.5 >.5 >.5 >.5 >.5 >.5 >.5 >.5 >.5 >.5 >.5 >.5 >.5 >.5 >.5 >.5 >.5 >.5 >.5 >.5 >.5 >.5 >.5 >.5 >.5 >.5 >.5 >.5 >.5 >.5 >.5 >.5 >.5 >.5 >.5 >.5 >.5 >.5 >.5 >.5 >.5 >.5 >.5 >.5 >.5 >.5 >.5 >.5 >.5 >.5 >.5 >.5 >.5 >.5 >.5 >.5 >.5 >.5 >.5 >.5 >.5 >.5 >.5 >.5 >.5 >.5 >.5 >.5 >.5 >.5 >.5 >.5 >.5 >.5 >.5 >.5 >.5 >.5 >.5 >.5 >.5 >.5 >.5 >.5 >.5 >.5 .5 .5 .5 D.5 D.5 D.5 D.5 D.5 D.5 D.5 D.5 D.5 D.5 D.5 D.5 D.5 D.5 D.5 D.5 D.5 D.5 D.5 D.5 D.5 D.5 D.5 D.5 D.5 D.5 D.5 D.5 D.5 D.5 D.5 D.5 D.5 D.5 D.5 D.5 D.5 D.5 D.5 D.5 D.5 D.5 D.5 D.5 D.5 D.5 D.5 D.5 D.5 D.5 D.5 D.5 D.5 D.5 D.5 D.5 D.5 D.5 D.5 D.5 D.5 D.5 D.5 D.5 D.5 D.5 D.5 D.5 D.5 D.5 D.5 D.5 D.5 D.5 D.5 D.5 D.5 D.5 D.5 D.5 D.5 D.5 D.5 D.5 D.5 D.5 D.5 D.5 D.5 D.5 D.5 D.5 D.5 D.5 D.5 D.5 D.5 D.5 D.5 D.5 D.5 D.5 D.5 D.5 D.5 D.5 D.5 D.5 D.5 D.5 D.5 D.5 D.5 D.5 D.5 D.5 D.5 D.5 D.5 D.5 D.5 D.5 D.5 D.5 D.5 D.5 D.5 D.5 D.5 D.5 D.5 D.5 D.5 D.5 D.5 D.5 D.5 D.5 D.5 D.5 D.5 D.5 D.5 D.5 D.5 D.5 D.5 D.5 D.5 D.5 D.5 D.5 5 5 5 5 <05 <05 <05 <05 <05 <05 <05 <05 <05 <05 <05 <05 <05 <05 <05 <05 <05 <05 <05 <05 <05 <05 <05 <05 <05 <05 <05 <05 <05 <05 <05 <05 <05 <05 <05 <05 <05 <05 <05 <05 <05 <05 <05 <05 <05 <05 <05 <05 <05 <05 <05 <05 <05 <05 <05 <05 <05 <05 <05 <05 <05 <05 <05 <05 <05 <05 <05 <05 <05 <05 <05 <05 <05 <05 <05 <05 <05 <05 <05 <05 <05 <05 <05 <05 <05 <05 <05 <05 <05 <05 <05 <05 <05 <05 <05 <05 <05 <05 <05 <05 <05 <05 <05 <05 <05 <05 <05 <05 <05 <05 <05 <05 <05 <05 <05 <05 <05 <05 <05 <05 <05 <05 <05 <05 <05 <05 <05 <05 <05 <05 <05 <05 <05 <05 <05 <05 <05 <05 <05 <05 <05 <05 <05 <05 <05 <05 <05 <05 <05 <05 <05 <05 05 05 05 D05 D05 D05 D05 D05 D05 D05 D05 D05 D05 D05 D05 D05 D05 D05 D05 D05 D05 D05 D05 D05 D05 D05 D05 D05 D05 D05 D05 D05 D05 D05 D05 D05 D05 D05 D05 D05 D05 D05 D05 D05 D05 D05 D05 D05 D05 D05 D05 D05 D05 D05 D05 D05 D05 D05 D05 D05 D05 D05 D05 D05 D05 D05 D05 D05 D05 D05 D05 D05 D05 D05 D05 D05 D05 D05 D05 D05 D05 D05 D05 D05 D05 D05 D05 D05 D05 D05 D05 D05 D05 D05 D05 D05 D05 D05 D05 D05 D05 D05 D05 D05 D05 D05 D05 D05 D05 D05 D05 D05 D05 D05 D05 D05 D05 D05 D05 D05 D05 D05 D05 D05 D05 D05 D05 D05 D05 D05 D05 D05 D05 D05 D05 D05 D05 D05 D05 D05 D05 D05 D05 D05 D05 D05 D05 D05 D05 D05 D05 D05 D05 D05 D05 5 5 5 5 :25 :25 :25 :25 :25 :25 :25 :25 :25 :25 :25 :25 :25 :25 :25 :25 :25 :25 :25 :25 :25 :25 :25 :25 :25 :25 :25 :25 :25 :25 :25 :25 :25 :25 :25 :25 :25 :25 :25 :25 :25 :25 :25 :25 :25 :25 :25 :25 :25 :25 :25 :25 :25 :25 :25 :25 :25 :25 :25 :25 :25 :25 :25 :25 :25 :25 :25 :25 :25 :25 :25 :25 :25 :25 :25 :25 :25 :25 :25 :25 :25 :25 :25 :25 :25 :25 :25 :25 :25 :25 :25 :25 :25 :25 :25 :25 :25 :25 :25 :25 :25 :25 :25 :25 :25 :25 :25 :25 :25 :25 :25 :25 :25 :25 :25 :25 :25 :25 :25 :25 :25 :25 :25 :25 :25 :25 :25 :25 :25 :25 :25 :25 :25 :25 :25 :25 :25 :25 :25 :25 :25 :25 :25 :25 :25 :25 :25 :25 :25 :25 :25 :25 25 25 25 D25 D25 D25 D25 D25 D25 D25 D25 D25 D25 D25 D25 D25 D25 D25 D25 D25 D25 D25 D25 D25 D25 D25 D25 D25 D25 D25 D25 D25 D25 D25 D25 D25 D25 D25 D25 D25 D25 D25 D25 D25 D25 D25 D25 D25 D25 D25 D25 D25 D25 D25 D25 D25 D25 D25 D25 D25 D25 D25 D25 D25 D25 D25 D25 D25 D25 D25 D25 D25 D25 D25 D25 D25 D25 D25 D25 D25 D25 D25 D25 D25 D25 D25 D25 D25 D25 D25 D25 D25 D25 D25 D25 D25 D25 D25 D25 D25 D25 D25 D25 D25 D25 D25 D25 D25 D25 D25 D25 D25 D25 D25 D25 D25 D25 D25 D25 D25 D25 D25 D25 D25 D25 D25 D25 D25 D25 D25 D25 D25 D25 D25 D25 D25 D25 D25 D25 D25 D25 D25 D25 D25 D25 D25 D25 D25 D25 D25 D25 D25 D25 D25 D25 5 5 5 5 <05 <05 <05 <05 <05 <05 <05 <05 <05 <05 <05 <05 <05 <05 <05 <05 <05 <05 <05 <05 <05 <05 <05 <05 <05 <05 <05 <05 <05 <05 <05 <05 <05 <05 <05 <05 <05 <05 <05 <05 <05 <05 <05 <05 <05 <05 <05 <05 <05 <05 <05 <05 <05 <05 <05 <05 <05 <05 <05 <05 <05 <05 <05 <05 <05 <05 <05 <05 <05 <05 <05 <05 <05 <05 <05 <05 <05 <05 <05 <05 <05 <05 <05 <05 <05 <05 <05 <05 <05 <05 <05 <05 <05 <05 <05 <05 <05 <05 <05 <05 <05 <05 <05 <05 <05 <05 <05 <05 <05 <05 <05 <05 <05 <05 <05 <05 <05 <05 <05 <05 <05 <05 <05 <05 <05 <05 <05 <05 <05 <05 <05 <05 <05 <05 <05 <05 <05 <05 <05 <05 <05 <05 <05 <05 <05 <05 <05 <05 <05 <05 <05 <05 05 05 05 D05 D05 D05 D05 D05 D05 D05 D05 D05 D05 D05 D05 D05 D05 D05 D05 D05 D05 D05 D05 D05 D05 D05 D05 D05 D05 D05 D05 D05 D05 D05 D05 D05 D05 D05 D05 D05 D05 D05 D05 D05 D05 D05 D05 D05 D05 D05 D05 D05 D05 D05 D05 D05 D05 D05 D05 D05 D05 D05 D05 D05 D05 D05 D05 D05 D05 D05 D05 D05 D05 D05 D05 D05 D05 D05 D05 D05 D05 D05 D05 D05 D05 D05 D05 D05 D05 D05 D05 D05 D05 D05 D05 D05 D05 D05 D05 D05 D05 D05 D05 D05 D05 D05 D05 D05 D05 D05 D05 D05 D05 D05 D05 D05 D05 D05 D05 D05 D05 D05 D05 D05 D05 D05 D05 D05 D05 D05 D05 D05 D05 D05 D05 D05 D05 D05 D05 D05 D05 D05 D05 D05 D05 D05 D05 D05 D05 D05 D05 D05 D05 D05 D05 5 5 5 5 >.5 >.5 >.5 >.5 >.5 >.5 >.5 >.5 >.5 >.5 >.5 >.5 >.5 >.5 >.5 >.5 >.5 >.5 >.5 >.5 >.5 >.5 >.5 >.5 >.5 >.5 >.5 >.5 >.5 >.5 >.5 >.5 >.5 >.5 >.5 >.5 >.5 >.5 >.5 >.5 >.5 >.5 >.5 >.5 >.5 >.5 >.5 >.5 >.5 >.5 >.5 >.5 >.5 >.5 >.5 >.5 >.5 >.5 >.5 >.5 >.5 >.5 >.5 >.5 >.5 >.5 >.5 >.5 >.5 >.5 >.5 >.5 >.5 >.5 >.5 >.5 >.5 >.5 >.5 >.5 >.5 >.5 >.5 >.5 >.5 >.5 >.5 >.5 >.5 >.5 >.5 >.5 >.5 >.5 >.5 >.5 >.5 >.5 >.5 >.5 >.5 >.5 >.5 >.5 >.5 >.5 >.5 >.5 >.5 >.5 >.5 >.5 >.5 >.5 >.5 >.5 >.5 >.5 >.5 >.5 >.5 >.5 >.5 >.5 >.5 >.5 >.5 >.5 >.5 >.5 >.5 >.5 >.5 >.5 >.5 >.5 >.5 >.5 >.5 >.5 >.5 >.5 >.5 >.5 >.5 >.5 >.5 >.5 >.5 >.5 >.5 >.5 .5 .5 .5 .5 .D5 .D5 .D5 .D5 .D5 .D5 .D5 .D5 .D5 .D5 .D5 .D5 .D5 .D5 .D5 .D5 .D5 .D5 .D5 .D5 .D5 .D5 .D5 .D5 .D5 .D5 .D5 .D5 .D5 .D5 .D5 .D5 .D5 .D5 .D5 .D5 .D5 .D5 .D5 .D5 .D5 .D5 .D5 .D5 .D5 .D5 .D5 .D5 .D5 .D5 .D5 .D5 .D5 .D5 .D5 .D5 .D5 .D5 .D5 .D5 .D5 .D5 .D5 .D5 .D5 .D5 .D5 .D5 .D5 .D5 .D5 .D5 .D5 .D5 .D5 .D5 .D5 .D5 .D5 .D5 .D5 .D5 .D5 .D5 .D5 .D5 .D5 .D5 .D5 .D5 .D5 .D5 .D5 .D5 .D5 .D5 .D5 .D5 .D5 .D5 .D5 .D5 .D5 .D5 .D5 .D5 .D5 .D5 .D5 .D5 .D5 .D5 .D5 .D5 .D5 .D5 .D5 .D5 .D5 .D5 .D5 .D5 .D5 .D5 .D5 .D5 .D5 .D5 .D5 .D5 .D5 .D5 .D5 .D5 .D5 .D5 .D5 .D5 .D5 .D5 .D5 .D5 .D5 .D5 .D5 .D5 .D5 .D5 .D5 .D5 .D5 D5    3C 3C 3C 3C 3C 3C 3C 3C 3C 3C 3C 3C 3C 3C 3C 3C 3C 3C 3C 3C 3C 3C 3C 3C 3C 3C 3C 3C 3C 3C 3C 3C 3C 3C 3C 3C 3C 3C 3C 3C 3C 3C 3C 3C 3C 3C 3C 3C 3C 3C 3C 3C 3C 3C 3C 3C 3C 3C 3C 3C 3C 3C 3C 3C 3C 3C 3C 3C 3C 3C 3C 3C 3C 3C 3C 3C 3C 3C 3C 3C 3C 3C 3C 3C 3C 3C 3C 3C 3C 3C 3C 3C 3C 3C 3C 3C 3C 3C 3C 3C 3C 3C 3C 3C 3C 3C 3C 3C 3C 3C 3C 3C 3C 3C 3C 3C 3C 3C 3C 3C 3C 3C 3C 3C 3C 3C 3C 3C 3C 3C 3C 3C 3C 3C 3C 3C 3C 3C 3C 3C 3C 3C 3C 3C 3C 3C 3C 3C 3C 3C 3C 3C C C C C C5 C5 C5 C5 C5 C5 C5 C5 C5 C5 C5 C5 C5 C5 C5 C5 C5 C5 C5 C5 C5 C5 C5 C5 C5 C5 C5 C5 C5 C5 C5 C5 C5 C5 C5 C5 C5 C5 C5 C5 C5 C5 C5 C5 C5 C5 C5 C5 C5 C5 C5 C5 C5 C5 C5 C5 C5 C5 C5 C5 C5 C5 C5 C5 C5 C5 C5 C5 C5 C5 C5 C5 C5 C5 C5 C5 C5 C5 C5 C5 C5 C5 C5 C5 C5 C5 C5 C5 C5 C5 C5 C5 C5 C5 C5 C5 C5 C5 C5 C5 C5 C5 C5 C5 C5 C5 C5 C5 C5 C5 C5 C5 C5 C5 C5 C5 C5 C5 C5 C5 C5 C5 C5 C5 C5 C5 C5 C5 C5 C5 C5 C5 C5 C5 C5 C5 C5 C5 C5 C5 C5 C5 C5 C5 C5 C5 C5 C5 C5 C5 C5 5    7R 7R 7R 7R 7R 7R 7R 7R 7R 7R 7R 7R 7R 7R 7R 7R 7R 7R 7R 7R 7R 7R 7R 7R 7R 7R 7R 7R 7R 7R 7R 7R 7R 7R 7R 7R 7R 7R 7R 7R 7R 7R 7R 7R 7R 7R 7R 7R 7R 7R 7R 7R 7R 7R 7R 7R 7R 7R 7R 7R 7R 7R 7R 7R 7R 7R 7R 7R 7R 7R 7R 7R 7R 7R 7R 7R 7R 7R 7R 7R 7R 7R 7R 7R 7R 7R 7R 7R 7R 7R 7R 7R 7R 7R 7R 7R 7R 7R 7R 7R 7R 7R 7R 7R 7R 7R 7R 7R 7R 7R 7R 7R 7R 7R 7R 7R 7R 7R 7R 7R 7R 7R 7R 7R 7R 7R 7R 7R 7R 7R 7R 7R 7R 7R 7R 7R 7R 7R 7R 7R 7R 7R 7R 7R 7R 7R 7R 7R 7R 7R 7R 7R R R R R R3 R3 R3 R3 R3 R3 R3 R3 R3 R3 R3 R3 R3 R3 R3 R3 R3 R3 R3 R3 R3 R3 R3 R3 R3 R3 R3 R3 R3 R3 R3 R3 R3 R3 R3 R3 R3 R3 R3 R3 R3 R3 R3 R3 R3 R3 R3 R3 R3 R3 R3 R3 R3 R3 R3 R3 R3 R3 R3 R3 R3 R3 R3 R3 R3 R3 R3 R3 R3 R3 R3 R3 R3 R3 R3 R3 R3 R3 R3 R3 R3 R3 R3 R3 R3 R3 R3 R3 R3 R3 R3 R3 R3 R3 R3 R3 R3 R3 R3 R3 R3 R3 R3 R3 R3 R3 R3 R3 R3 R3 R3 R3 R3 R3 R3 R3 R3 R3 R3 R3 R3 R3 R3 R3 R3 R3 R3 R3 R3 R3 R3 R3 R3 R3 R3 R3 R3 R3 R3 R3 R3 R3 R3 R3 R3 R3 R3 R3 R3 R3 R3 3    2R 2R 2R 2R 2R 2R 2R 2R 2R 2R 2R 2R 2R 2R 2R 2R 2R 2R 2R 2R 2R 2R 2R 2R 2R 2R 2R 2R 2R 2R 2R 2R 2R 2R 2R 2R 2R 2R 2R 2R 2R 2R 2R 2R 2R 2R 2R 2R 2R 2R 2R 2R 2R 2R 2R 2R 2R 2R 2R 2R 2R 2R 2R 2R 2R 2R 2R 2R 2R 2R 2R 2R 2R 2R 2R 2R 2R 2R 2R 2R 2R 2R 2R 2R 2R 2R 2R 2R 2R 2R 2R 2R 2R 2R 2R 2R 2R 2R 2R 2R 2R 2R 2R 2R 2R 2R 2R 2R 2R 2R 2R 2R 2R 2R 2R 2R 2R 2R 2R 2R 2R 2R 2R 2R 2R 2R 2R 2R 2R 2R 2R 2R 2R 2R 2R 2R 2R 2R 2R 2R 2R 2R 2R 2R 2R 2R 2R 2R 2R 2R 2R 2R R R R R R3 R3 R3 R3 R3 R3 R3 R3 R3 R3 R3 R3 R3 R3 R3 R3 R3 R3 R3 R3 R3 R3 R3 R3 R3 R3 R3 R3 R3 R3 R3 R3 R3 R3 R3 R3 R3 R3 R3 R3 R3 R3 R3 R3 R3 R3 R3 R3 R3 R3 R3 R3 R3 R3 R3 R3 R3 R3 R3 R3 R3 R3 R3 R3 R3 R3 R3 R3 R3 R3 R3 R3 R3 R3 R3 R3 R3 R3 R3 R3 R3 R3 R3 R3 R3 R3 R3 R3 R3 R3 R3 R3 R3 R3 R3 R3 R3 R3 R3 R3 R3 R3 R3 R3 R3 R3 R3 R3 R3 R3 R3 R3 R3 R3 R3 R3 R3 R3 R3 R3 R3 R3 R3 R3 R3 R3 R3 R3 R3 R3 R3 R3 R3 R3 R3 R3 R3 R3 R3 R3 R3 R3 R3 R3 R3 R3 R3 R3 R3 R3 R3 3    .O .O .O .O .O .O .O .O .O .O .O .O .O .O .O .O .O .O .O .O .O .O .O .O .O .O .O .O .O .O .O .O .O .O .O .O .O .O .O .O .O .O .O .O .O .O .O .O .O .O .O .O .O .O .O .O .O .O .O .O .O .O .O .O .O .O .O .O .O .O .O .O .O .O .O .O .O .O .O .O .O .O .O .O .O .O .O .O .O .O .O .O .O .O .O .O .O .O .O .O .O .O .O .O .O .O .O .O .O .O .O .O .O .O .O .O .O .O .O .O .O .O .O .O .O .O .O .O .O .O .O .O .O .O .O .O .O .O .O .O .O .O .O .O .O .O .O .O .O .O .O .O O O O O O3 O3 O3 O3 O3 O3 O3 O3 O3 O3 O3 O3 O3 O3 O3 O3 O3 O3 O3 O3 O3 O3 O3 O3 O3 O3 O3 O3 O3 O3 O3 O3 O3 O3 O3 O3 O3 O3 O3 O3 O3 O3 O3 O3 O3 O3 O3 O3 O3 O3 O3 O3 O3 O3 O3 O3 O3 O3 O3 O3 O3 O3 O3 O3 O3 O3 O3 O3 O3 O3 O3 O3 O3 O3 O3 O3 O3 O3 O3 O3 O3 O3 O3 O3 O3 O3 O3 O3 O3 O3 O3 O3 O3 O3 O3 O3 O3 O3 O3 O3 O3 O3 O3 O3 O3 O3 O3 O3 O3 O3 O3 O3 O3 O3 O3 O3 O3 O3 O3 O3 O3 O3 O3 O3 O3 O3 O3 O3 O3 O3 O3 O3 O3 O3 O3 O3 O3 O3 O3 O3 O3 O3 O3 O3 O3 O3 O3 O3 O3 O3 O3 3    7OK 7OK 7OK 7OK 7OK 7OK 7OK 7OK 7OK 7OK 7OK 7OK 7OK 7OK 7OK 7OK 7OK 7OK 7OK 7OK 7OK 7OK 7OK 7OK 7OK 7OK 7OK 7OK 7OK 7OK 7OK 7OK 7OK 7OK 7OK 7OK 7OK 7OK 7OK 7OK 7OK 7OK 7OK 7OK 7OK 7OK 7OK 7OK 7OK 7OK 7OK 7OK 7OK 7OK 7OK 7OK 7OK 7OK 7OK 7OK 7OK 7OK 7OK 7OK 7OK 7OK 7OK 7OK 7OK 7OK 7OK 7OK 7OK 7OK 7OK 7OK 7OK 7OK 7OK 7OK 7OK 7OK 7OK 7OK 7OK 7OK 7OK 7OK 7OK 7OK 7OK 7OK 7OK 7OK 7OK 7OK 7OK 7OK 7OK 7OK 7OK 7OK 7OK 7OK 7OK 7OK 7OK 7OK 7OK 7OK 7OK 7OK 7OK 7OK 7OK 7OK 7OK 7OK 7OK 7OK 7OK 7OK 7OK 7OK 7OK 7OK 7OK 7OK 7OK 7OK 7OK 7OK 7OK 7OK 7OK 7OK 7OK 7OK 7OK 7OK 7OK 7OK 7OK 7OK 7OK 7OK 7OK 7OK 7OK 7OK 7OK 7OK OK OK OK OK OK3 OK3 OK3 OK3 OK3 OK3 OK3 OK3 OK3 OK3 OK3 OK3 OK3 OK3 OK3 OK3 OK3 OK3 OK3 OK3 OK3 OK3 OK3 OK3 OK3 OK3 OK3 OK3 OK3 OK3 OK3 OK3 OK3 OK3 OK3 OK3 OK3 OK3 OK3 OK3 OK3 OK3 OK3 OK3 OK3 OK3 OK3 OK3 OK3 OK3 OK3 OK3 OK3 OK3 OK3 OK3 OK3 OK3 OK3 OK3 OK3 OK3 OK3 OK3 OK3 OK3 OK3 OK3 OK3 OK3 OK3 OK3 OK3 OK3 OK3 OK3 OK3 OK3 OK3 OK3 OK3 OK3 OK3 OK3 OK3 OK3 OK3 OK3 OK3 OK3 OK3 OK3 OK3 OK3 OK3 OK3 OK3 OK3 OK3 OK3 OK3 OK3 OK3 OK3 OK3 OK3 OK3 OK3 OK3 OK3 OK3 OK3 OK3 OK3 OK3 OK3 OK3 OK3 OK3 OK3 OK3 OK3 OK3 OK3 OK3 OK3 OK3 OK3 OK3 OK3 OK3 OK3 OK3 OK3 OK3 OK3 OK3 OK3 OK3 OK3 OK3 OK3 OK3 OK3 OK3 OK3 OK3 OK3 OK3 OK3 OK3 3    9KO 9KO 9KO 9KO 9KO 9KO 9KO 9KO 9KO 9KO 9KO 9KO 9KO 9KO 9KO 9KO 9KO 9KO 9KO 9KO 9KO 9KO 9KO 9KO 9KO 9KO 9KO 9KO 9KO 9KO 9KO 9KO 9KO 9KO 9KO 9KO 9KO 9KO 9KO 9KO 9KO 9KO 9KO 9KO 9KO 9KO 9KO 9KO 9KO 9KO 9KO 9KO 9KO 9KO 9KO 9KO 9KO 9KO 9KO 9KO 9KO 9KO 9KO 9KO 9KO 9KO 9KO 9KO 9KO 9KO 9KO 9KO 9KO 9KO 9KO 9KO 9KO 9KO 9KO 9KO 9KO 9KO 9KO 9KO 9KO 9KO 9KO 9KO 9KO 9KO 9KO 9KO 9KO 9KO 9KO 9KO 9KO 9KO 9KO 9KO 9KO 9KO 9KO 9KO 9KO 9KO 9KO 9KO 9KO 9KO 9KO 9KO 9KO 9KO 9KO 9KO 9KO 9KO 9KO 9KO 9KO 9KO 9KO 9KO 9KO 9KO 9KO 9KO 9KO 9KO 9KO 9KO 9KO 9KO 9KO 9KO 9KO 9KO 9KO 9KO 9KO 9KO 9KO 9KO 9KO 9KO 9KO 9KO 9KO 9KO 9KO 9KO KO KO KO KO KO3 KO3 KO3 KO3 KO3 KO3 KO3 KO3 KO3 KO3 KO3 KO3 KO3 KO3 KO3 KO3 KO3 KO3 KO3 KO3 KO3 KO3 KO3 KO3 KO3 KO3 KO3 KO3 KO3 KO3 KO3 KO3 KO3 KO3 KO3 KO3 KO3 KO3 KO3 KO3 KO3 KO3 KO3 KO3 KO3 KO3 KO3 KO3 KO3 KO3 KO3 KO3 KO3 KO3 KO3 KO3 KO3 KO3 KO3 KO3 KO3 KO3 KO3 KO3 KO3 KO3 KO3 KO3 KO3 KO3 KO3 KO3 KO3 KO3 KO3 KO3 KO3 KO3 KO3 KO3 KO3 KO3 KO3 KO3 KO3 KO3 KO3 KO3 KO3 KO3 KO3 KO3 KO3 KO3 KO3 KO3 KO3 KO3 KO3 KO3 KO3 KO3 KO3 KO3 KO3 KO3 KO3 KO3 KO3 KO3 KO3 KO3 KO3 KO3 KO3 KO3 KO3 KO3 KO3 KO3 KO3 KO3 KO3 KO3 KO3 KO3 KO3 KO3 KO3 KO3 KO3 KO3 KO3 KO3 KO3 KO3 KO3 KO3 KO3 KO3 KO3 KO3 KO3 KO3 KO3 KO3 KO3 KO3 KO3 KO3 KO3 3    MJ: MJ: MJ: MJ: MJ: MJ: MJ: MJ: MJ: MJ: MJ: MJ: MJ: MJ: MJ: MJ: MJ: MJ: MJ: MJ: MJ: MJ: MJ: MJ: MJ: MJ: MJ: MJ: MJ: MJ: MJ: MJ: MJ: MJ: MJ: MJ: MJ: MJ: MJ: MJ: MJ: MJ: MJ: MJ: MJ: MJ: MJ: MJ: MJ: MJ: MJ: MJ: MJ: MJ: MJ: MJ: MJ: MJ: MJ: MJ: MJ: MJ: MJ: MJ: MJ: MJ: MJ: MJ: MJ: MJ: MJ: MJ: MJ: MJ: MJ: MJ: MJ: MJ: MJ: MJ: MJ: MJ: MJ: MJ: MJ: MJ: MJ: MJ: MJ: MJ: MJ: MJ: MJ: MJ: MJ: MJ: MJ: MJ: MJ: MJ: MJ: MJ: MJ: MJ: MJ: MJ: MJ: MJ: MJ: MJ: MJ: MJ: MJ: MJ: MJ: MJ: MJ: MJ: MJ: MJ: MJ: MJ: MJ: MJ: MJ: MJ: MJ: MJ: MJ: MJ: MJ: MJ: MJ: MJ: MJ: MJ: MJ: MJ: MJ: MJ: MJ: MJ: MJ: MJ: MJ: MJ: MJ: MJ: MJ: MJ: MJ: MJ: J: J: J: J: JM: JM: JM: JM: JM: JM: JM: JM: JM: JM: JM: JM: JM: JM: JM: JM: JM: JM: JM: JM: JM: JM: JM: JM: JM: JM: JM: JM: JM: JM: JM: JM: JM: JM: JM: JM: JM: JM: JM: JM: JM: JM: JM: JM: JM: JM: JM: JM: JM: JM: JM: JM: JM: JM: JM: JM: JM: JM: JM: JM: JM: JM: JM: JM: JM: JM: JM: JM: JM: JM: JM: JM: JM: JM: JM: JM: JM: JM: JM: JM: JM: JM: JM: JM: JM: JM: JM: JM: JM: JM: JM: JM: JM: JM: JM: JM: JM: JM: JM: JM: JM: JM: JM: JM: JM: JM: JM: JM: JM: JM: JM: JM: JM: JM: JM: JM: JM: JM: JM: JM: JM: JM: JM: JM: JM: JM: JM: JM: JM: JM: JM: JM: JM: JM: JM: JM: JM: JM: JM: JM: JM: JM: JM: JM: JM: JM: JM: JM: JM: JM: JM: M: : : : F:> F:> F:> F:> F:> F:> F:> F:> F:> F:> F:> F:> F:> F:> F:> F:> F:> F:> F:> F:> F:> F:> F:> F:> F:> F:> F:> F:> F:> F:> F:> F:> F:> F:> F:> F:> F:> F:> F:> F:> F:> F:> F:> F:> F:> F:> F:> F:> F:> F:> F:> F:> F:> F:> F:> F:> F:> F:> F:> F:> F:> F:> F:> F:> F:> F:> F:> F:> F:> F:> F:> F:> F:> F:> F:> F:> F:> F:> F:> F:> F:> F:> F:> F:> F:> F:> F:> F:> F:> F:> F:> F:> F:> F:> F:> F:> F:> F:> F:> F:> F:> F:> F:> F:> F:> F:> F:> F:> F:> F:> F:> F:> F:> F:> F:> F:> F:> F:> F:> F:> F:> F:> F:> F:> F:> F:> F:> F:> F:> F:> F:> F:> F:> F:> F:> F:> F:> F:> F:> F:> F:> F:> F:> F:> F:> F:> F:> F:> F:> F:> F:> F:> :> :> :> :> :>M :>M :>M :>M :>M :>M :>M :>M :>M :>M :>M :>M :>M :>M :>M :>M :>M :>M :>M :>M :>M :>M :>M :>M :>M :>M :>M :>M :>M :>M :>M :>M :>M :>M :>M :>M :>M :>M :>M :>M :>M :>M :>M :>M :>M :>M :>M :>M :>M :>M :>M :>M :>M :>M :>M :>M :>M :>M :>M :>M :>M :>M :>M :>M :>M :>M :>M :>M :>M :>M :>M :>M :>M :>M :>M :>M :>M :>M :>M :>M :>M :>M :>M :>M :>M :>M :>M :>M :>M :>M :>M :>M :>M :>M :>M :>M :>M :>M :>M :>M :>M :>M :>M :>M :>M :>M :>M :>M :>M :>M :>M :>M :>M :>M :>M :>M :>M :>M :>M :>M :>M :>M :>M :>M :>M :>M :>M :>M :>M :>M :>M :>M :>M :>M :>M :>M :>M :>M :>M :>M :>M :>M :>M :>M :>M :>M :>M :>M >M >M >M M    E< E< E< E< E< E< E< E< E< E< E< E< E< E< E< E< E< E< E< E< E< E< E< E< E< E< E< E< E< E< E< E< E< E< E< E< E< E< E< E< E< E< E< E< E< E< E< E< E< E< E< E< E< E< E< E< E< E< E< E< E< E< E< E< E< E< E< E< E< E< E< E< E< E< E< E< E< E< E< E< E< E< E< E< E< E< E< E< E< E< E< E< E< E< E< E< E< E< E< E< E< E< E< E< E< E< E< E< E< E< E< E< E< E< E< E< E< E< E< E< E< E< E< E< E< E< E< E< E< E< E< E< E< E< E< E< E< E< E< E< E< E< E< E< E< E< E< E< E< E< E< E< < < < < <K <K <K <K <K <K <K <K <K <K <K <K <K <K <K <K <K <K <K <K <K <K <K <K <K <K <K <K <K <K <K <K <K <K <K <K <K <K <K <K <K <K <K <K <K <K <K <K <K <K <K <K <K <K <K <K <K <K <K <K <K <K <K <K <K <K <K <K <K <K <K <K <K <K <K <K <K <K <K <K <K <K <K <K <K <K <K <K <K <K <K <K <K <K <K <K <K <K <K <K <K <K <K <K <K <K <K <K <K <K <K <K <K <K <K <K <K <K <K <K <K <K <K <K <K <K <K <K <K <K <K <K <K <K <K <K <K <K <K <K <K <K <K <K <K <K <K <K <K <K <K K    J.: J.: J.: J.: J.: J.: J.: J.: J.: J.: J.: J.: J.: J.: J.: J.: J.: J.: J.: J.: J.: J.: J.: J.: J.: J.: J.: J.: J.: J.: J.: J.: J.: J.: J.: J.: J.: J.: J.: J.: J.: J.: J.: J.: J.: J.: J.: J.: J.: J.: J.: J.: J.: J.: J.: J.: J.: J.: J.: J.: J.: J.: J.: J.: J.: J.: J.: J.: J.: J.: J.: J.: J.: J.: J.: J.: J.: J.: J.: J.: J.: J.: J.: J.: J.: J.: J.: J.: J.: J.: J.: J.: J.: J.: J.: J.: J.: J.: J.: J.: J.: J.: J.: J.: J.: J.: J.: J.: J.: J.: J.: J.: J.: J.: J.: J.: J.: J.: J.: J.: J.: J.: J.: J.: J.: J.: J.: J.: J.: J.: J.: J.: J.: J.: J.: J.: J.: J.: J.: J.: J.: J.: J.: J.: J.: J.: J.: J.: J.: J.: J.: J.: .: .: .: .: .:M .:M .:M .:M .:M .:M .:M .:M .:M .:M .:M .:M .:M .:M .:M .:M .:M .:M .:M .:M .:M .:M .:M .:M .:M .:M .:M .:M .:M .:M .:M .:M .:M .:M .:M .:M .:M .:M .:M .:M .:M .:M .:M .:M .:M .:M .:M .:M .:M .:M .:M .:M .:M .:M .:M .:M .:M .:M .:M .:M .:M .:M .:M .:M .:M .:M .:M .:M .:M .:M .:M .:M .:M .:M .:M .:M .:M .:M .:M .:M .:M .:M .:M .:M .:M .:M .:M .:M .:M .:M .:M .:M .:M .:M .:M .:M .:M .:M .:M .:M .:M .:M .:M .:M .:M .:M .:M .:M .:M .:M .:M .:M .:M .:M .:M .:M .:M .:M .:M .:M .:M .:M .:M .:M .:M .:M .:M .:M .:M .:M .:M .:M .:M .:M .:M .:M .:M .:M .:M .:M .:M .:M .:M .:M .:M .:M .:M .:M .:M .:M .:M M    F> F> F> F> F> F> F> F> F> F> F> F> F> F> F> F> F> F> F> F> F> F> F> F> F> F> F> F> F> F> F> F> F> F> F> F> F> F> F> F> F> F> F> F> F> F> F> F> F> F> F> F> F> F> F> F> F> F> F> F> F> F> F> F> F> F> F> F> F> F> F> F> F> F> F> F> F> F> F> F> F> F> F> F> F> F> F> F> F> F> F> F> F> F> F> F> F> F> F> F> F> F> F> F> F> F> F> F> F> F> F> F> F> F> F> F> F> F> F> F> F> F> F> F> F> F> F> F> F> F> F> F> F> F> F> F> F> F> F> F> F> F> F> F> F> F> F> F> F> F> F> F> > > > > >M >M >M >M >M >M >M >M >M >M >M >M >M >M >M >M >M >M >M >M >M >M >M >M >M >M >M >M >M >M >M >M >M >M >M >M >M >M >M >M >M >M >M >M >M >M >M >M >M >M >M >M >M >M >M >M >M >M >M >M >M >M >M >M >M >M >M >M >M >M >M >M >M >M >M >M >M >M >M >M >M >M >M >M >M >M >M >M >M >M >M >M >M >M >M >M >M >M >M >M >M >M >M >M >M >M >M >M >M >M >M >M >M >M >M >M >M >M >M >M >M >M >M >M >M >M >M >M >M >M >M >M >M >M >M >M >M >M >M >M >M >M >M >M >M >M >M >M >M >M >M M    E< E< E< E< E< E< E< E< E< E< E< E< E< E< E< E< E< E< E< E< E< E< E< E< E< E< E< E< E< E< E< E< E< E< E< E< E< E< E< E< E< E< E< E< E< E< E< E< E< E< E< E< E< E< E< E< E< E< E< E< E< E< E< E< E< E< E< E< E< E< E< E< E< E< E< E< E< E< E< E< E< E< E< E< E< E< E< E< E< E< E< E< E< E< E< E< E< E< E< E< E< E< E< E< E< E< E< E< E< E< E< E< E< E< E< E< E< E< E< E< E< E< E< E< E< E< E< E< E< E< E< E< E< E< E< E< E< E< E< E< E< E< E< E< E< E< E< E< E< E< E< E< < < < < <K <K <K <K <K <K <K <K <K <K <K <K <K <K <K <K <K <K <K <K <K <K <K <K <K <K <K <K <K <K <K <K <K <K <K <K <K <K <K <K <K <K <K <K <K <K <K <K <K <K <K <K <K <K <K <K <K <K <K <K <K <K <K <K <K <K <K <K <K <K <K <K <K <K <K <K <K <K <K <K <K <K <K <K <K <K <K <K <K <K <K <K <K <K <K <K <K <K <K <K <K <K <K <K <K <K <K <K <K <K <K <K <K <K <K <K <K <K <K <K <K <K <K <K <K <K <K <K <K <K <K <K <K <K <K <K <K <K <K <K <K <K <K <K <K <K <K <K <K <K <K K     J: J: J: J: J: J: J: J: J: J: J: J: J: J: J: J: J: J: J: J: J: J: J: J: J: J: J: J: J: J: J: J: J: J: J: J: J: J: J: J: J: J: J: J: J: J: J: J: J: J: J: J: J: J: J: J: J: J: J: J: J: J: J: J: J: J: J: J: J: J: J: J: J: J: J: J: J: J: J: J: J: J: J: J: J: J: J: J: J: J: J: J: J: J: J: J: J: J: J: J: J: J: J: J: J: J: J: J: J: J: J: J: J: J: J: J: J: J: J: J: J: J: J: J: J: J: J: J: J: J: J: J: J: J: J: J: J: J: J: J: J: J: J: J: J: J: J: J: J: J: J: J: : : : F: F: F: F: F: F: F: F: F: F: F: F: F: F: F: F: F: F: F: F: F: F: F: F: F: F: F: F: F: F: F: F: F: F: F: F: F: F: F: F: F: F: F: F: F: F: F: F: F: F: F: F: F: F: F: F: F: F: F: F: F: F: F: F: F: F: F: F: F: F: F: F: F: F: F: F: F: F: F: F: F: F: F: F: F: F: F: F: F: F: F: F: F: F: F: F: F: F: F: F: F: F: F: F: F: F: F: F: F: F: F: F: F: F: F: F: F: F: F: F: F: F: F: F: F: F: F: F: F: F: F: F: F: F: F: F: F: F: F: F: F: F: F: F: F: F: F: F: F: F: F: F: : : : : C3: C3: C3: C3: C3: C3: C3: C3: C3: C3: C3: C3: C3: C3: C3: C3: C3: C3: C3: C3: C3: C3: C3: C3: C3: C3: C3: C3: C3: C3: C3: C3: C3: C3: C3: C3: C3: C3: C3: C3: C3: C3: C3: C3: C3: C3: C3: C3: C3: C3: C3: C3: C3: C3: C3: C3: C3: C3: C3: C3: C3: C3: C3: C3: C3: C3: C3: C3: C3: C3: C3: C3: C3: C3: C3: C3: C3: C3: C3: C3: C3: C3: C3: C3: C3: C3: C3: C3: C3: C3: C3: C3: C3: C3: C3: C3: C3: C3: C3: C3: C3: C3: C3: C3: C3: C3: C3: C3: C3: C3: C3: C3: C3: C3: C3: C3: C3: C3: C3: C3: C3: C3: C3: C3: C3: C3: C3: C3: C3: C3: C3: C3: C3: C3: C3: C3: C3: C3: C3: C3: C3: C3: C3: C3: C3: C3: C3: C3: C3: C3: C3: C3: 3: 3: 3: I3: I3: I3: I3: I3: I3: I3: I3: I3: I3: I3: I3: I3: I3: I3: I3: I3: I3: I3: I3: I3: I3: I3: I3: I3: I3: I3: I3: I3: I3: I3: I3: I3: I3: I3: I3: I3: I3: I3: I3: I3: I3: I3: I3: I3: I3: I3: I3: I3: I3: I3: I3: I3: I3: I3: I3: I3: I3: I3: I3: I3: I3: I3: I3: I3: I3: I3: I3: I3: I3: I3: I3: I3: I3: I3: I3: I3: I3: I3: I3: I3: I3: I3: I3: I3: I3: I3: I3: I3: I3: I3: I3: I3: I3: I3: I3: I3: I3: I3: I3: I3: I3: I3: I3: I3: I3: I3: I3: I3: I3: I3: I3: I3: I3: I3: I3: I3: I3: I3: I3: I3: I3: I3: I3: I3: I3: I3: I3: I3: I3: I3: I3: I3: I3: I3: I3: I3: I3: I3: I3: I3: I3: I3: I3: I3: I3: I3: I3: I3: I3: I3: I3: : : : : A5: A5: A5: A5: A5: A5: A5: A5: A5: A5: A5: A5: A5: A5: A5: A5: A5: A5: A5: A5: A5: A5: A5: A5: A5: A5: A5: A5: A5: A5: A5: A5: A5: A5: A5: A5: A5: A5: A5: A5: A5: A5: A5: A5: A5: A5: A5: A5: A5: A5: A5: A5: A5: A5: A5: A5: A5: A5: A5: A5: A5: A5: A5: A5: A5: A5: A5: A5: A5: A5: A5: A5: A5: A5: A5: A5: A5: A5: A5: A5: A5: A5: A5: A5: A5: A5: A5: A5: A5: A5: A5: A5: A5: A5: A5: A5: A5: A5: A5: A5: A5: A5: A5: A5: A5: A5: A5: A5: A5: A5: A5: A5: A5: A5: A5: A5: A5: A5: A5: A5: A5: A5: A5: A5: A5: A5: A5: A5: A5: A5: A5: A5: A5: A5: A5: A5: A5: A5: A5: A5: A5: A5: A5: A5: A5: A5: A5: A5: A5: A5: A5: A5: 5: 5: 5: I5: I5: I5: I5: I5: I5: I5: I5: I5: I5: I5: I5: I5: I5: I5: I5: I5: I5: I5: I5: I5: I5: I5: I5: I5: I5: I5: I5: I5: I5: I5: I5: I5: I5: I5: I5: I5: I5: I5: I5: I5: I5: I5: I5: I5: I5: I5: I5: I5: I5: I5: I5: I5: I5: I5: I5: I5: I5: I5: I5: I5: I5: I5: I5: I5: I5: I5: I5: I5: I5: I5: I5: I5: I5: I5: I5: I5: I5: I5: I5: I5: I5: I5: I5: I5: I5: I5: I5: I5: I5: I5: I5: I5: I5: I5: I5: I5: I5: I5: I5: I5: I5: I5: I5: I5: I5: I5: I5: I5: I5: I5: I5: I5: I5: I5: I5: I5: I5: I5: I5: I5: I5: I5: I5: I5: I5: I5: I5: I5: I5: I5: I5: I5: I5: I5: I5: I5: I5: I5: I5: I5: I5: I5: I5: I5: I5: I5: I5: I5: I5: I5: I5: : : : : ?7: ?7: ?7: ?7: ?7: ?7: ?7: ?7: ?7: ?7: ?7: ?7: ?7: ?7: ?7: ?7: ?7: ?7: ?7: ?7: ?7: ?7: ?7: ?7: ?7: ?7: ?7: ?7: ?7: ?7: ?7: ?7: ?7: ?7: ?7: ?7: ?7: ?7: ?7: ?7: ?7: ?7: ?7: ?7: ?7: ?7: ?7: ?7: ?7: ?7: ?7: ?7: ?7: ?7: ?7: ?7: ?7: ?7: ?7: ?7: ?7: ?7: ?7: ?7: ?7: ?7: ?7: ?7: ?7: ?7: ?7: ?7: ?7: ?7: ?7: ?7: ?7: ?7: ?7: ?7: ?7: ?7: ?7: ?7: ?7: ?7: ?7: ?7: ?7: ?7: ?7: ?7: ?7: ?7: ?7: ?7: ?7: ?7: ?7: ?7: ?7: ?7: ?7: ?7: ?7: ?7: ?7: ?7: ?7: ?7: ?7: ?7: ?7: ?7: ?7: ?7: ?7: ?7: ?7: ?7: ?7: ?7: ?7: ?7: ?7: ?7: ?7: ?7: ?7: ?7: ?7: ?7: ?7: ?7: ?7: ?7: ?7: ?7: ?7: ?7: ?7: ?7: ?7: ?7: ?7: ?7: ?7: ?7: ?7: ?7: ?7: ?7: 7: 7: 7: I7: I7: I7: I7: I7: I7: I7: I7: I7: I7: I7: I7: I7: I7: I7: I7: I7: I7: I7: I7: I7: I7: I7: I7: I7: I7: I7: I7: I7: I7: I7: I7: I7: I7: I7: I7: I7: I7: I7: I7: I7: I7: I7: I7: I7: I7: I7: I7: I7: I7: I7: I7: I7: I7: I7: I7: I7: I7: I7: I7: I7: I7: I7: I7: I7: I7: I7: I7: I7: I7: I7: I7: I7: I7: I7: I7: I7: I7: I7: I7: I7: I7: I7: I7: I7: I7: I7: I7: I7: I7: I7: I7: I7: I7: I7: I7: I7: I7: I7: I7: I7: I7: I7: I7: I7: I7: I7: I7: I7: I7: I7: I7: I7: I7: I7: I7: I7: I7: I7: I7: I7: I7: I7: I7: I7: I7: I7: I7: I7: I7: I7: I7: I7: I7: I7: I7: I7: I7: I7: I7: I7: I7: I7: I7: I7: I7: I7: I7: I7: I7: I7: I7: : : : : A5: A5: A5: A5: A5: A5: A5: A5: A5: A5: A5: A5: A5: A5: A5: A5: A5: A5: A5: A5: A5: A5: A5: A5: A5: A5: A5: A5: A5: A5: A5: A5: A5: A5: A5: A5: A5: A5: A5: A5: A5: A5: A5: A5: A5: A5: A5: A5: A5: A5: A5: A5: A5: A5: A5: A5: A5: A5: A5: A5: A5: A5: A5: A5: A5: A5: A5: A5: A5: A5: A5: A5: A5: A5: A5: A5: A5: A5: A5: A5: A5: A5: A5: A5: A5: A5: A5: A5: A5: A5: A5: A5: A5: A5: A5: A5: A5: A5: A5: A5: A5: A5: A5: A5: A5: A5: A5: A5: A5: A5: A5: A5: A5: A5: A5: A5: A5: A5: A5: A5: A5: A5: A5: A5: A5: A5: A5: A5: A5: A5: A5: A5: A5: A5: A5: A5: A5: A5: A5: A5: A5: A5: A5: A5: A5: A5: A5: A5: A5: A5: A5: A5: 5: 5: 5: I5: I5: I5: I5: I5: I5: I5: I5: I5: I5: I5: I5: I5: I5: I5: I5: I5: I5: I5: I5: I5: I5: I5: I5: I5: I5: I5: I5: I5: I5: I5: I5: I5: I5: I5: I5: I5: I5: I5: I5: I5: I5: I5: I5: I5: I5: I5: I5: I5: I5: I5: I5: I5: I5: I5: I5: I5: I5: I5: I5: I5: I5: I5: I5: I5: I5: I5: I5: I5: I5: I5: I5: I5: I5: I5: I5: I5: I5: I5: I5: I5: I5: I5: I5: I5: I5: I5: I5: I5: I5: I5: I5: I5: I5: I5: I5: I5: I5: I5: I5: I5: I5: I5: I5: I5: I5: I5: I5: I5: I5: I5: I5: I5: I5: I5: I5: I5: I5: I5: I5: I5: I5: I5: I5: I5: I5: I5: I5: I5: I5: I5: I5: I5: I5: I5: I5: I5: I5: I5: I5: I5: I5: I5: I5: I5: I5: I5: I5: I5: I5: I5: I5: : : : : C3: C3: C3: C3: C3: C3: C3: C3: C3: C3: C3: C3: C3: C3: C3: C3: C3: C3: C3: C3: C3: C3: C3: C3: C3: C3: C3: C3: C3: C3: C3: C3: C3: C3: C3: C3: C3: C3: C3: C3: C3: C3: C3: C3: C3: C3: C3: C3: C3: C3: C3: C3: C3: C3: C3: C3: C3: C3: C3: C3: C3: C3: C3: C3: C3: C3: C3: C3: C3: C3: C3: C3: C3: C3: C3: C3: C3: C3: C3: C3: C3: C3: C3: C3: C3: C3: C3: C3: C3: C3: C3: C3: C3: C3: C3: C3: C3: C3: C3: C3: C3: C3: C3: C3: C3: C3: C3: C3: C3: C3: C3: C3: C3: C3: C3: C3: C3: C3: C3: C3: C3: C3: C3: C3: C3: C3: C3: C3: C3: C3: C3: C3: C3: C3: C3: C3: C3: C3: C3: C3: C3: C3: C3: C3: C3: C3: C3: C3: C3: C3: C3: C3: 3: 3: 3: I3: I3: I3: I3: I3: I3: I3: I3: I3: I3: I3: I3: I3: I3: I3: I3: I3: I3: I3: I3: I3: I3: I3: I3: I3: I3: I3: I3: I3: I3: I3: I3: I3: I3: I3: I3: I3: I3: I3: I3: I3: I3: I3: I3: I3: I3: I3: I3: I3: I3: I3: I3: I3: I3: I3: I3: I3: I3: I3: I3: I3: I3: I3: I3: I3: I3: I3: I3: I3: I3: I3: I3: I3: I3: I3: I3: I3: I3: I3: I3: I3: I3: I3: I3: I3: I3: I3: I3: I3: I3: I3: I3: I3: I3: I3: I3: I3: I3: I3: I3: I3: I3: I3: I3: I3: I3: I3: I3: I3: I3: I3: I3: I3: I3: I3: I3: I3: I3: I3: I3: I3: I3: I3: I3: I3: I3: I3: I3: I3: I3: I3: I3: I3: I3: I3: I3: I3: I3: I3: I3: I3: I3: I3: I3: I3: I3: I3: I3: I3: I3: I3: I3: :    H8 H8 H8 H8 H8 H8 H8 H8 H8 H8 H8 H8 H8 H8 H8 H8 H8 H8 H8 H8 H8 H8 H8 H8 H8 H8 H8 H8 H8 H8 H8 H8 H8 H8 H8 H8 H8 H8 H8 H8 H8 H8 H8 H8 H8 H8 H8 H8 H8 H8 H8 H8 H8 H8 H8 H8 H8 H8 H8 H8 H8 H8 H8 H8 H8 H8 H8 H8 H8 H8 H8 H8 H8 H8 H8 H8 H8 H8 H8 H8 H8 H8 H8 H8 H8 H8 H8 H8 H8 H8 H8 H8 H8 H8 H8 H8 H8 H8 H8 H8 H8 H8 H8 H8 H8 H8 H8 H8 H8 H8 H8 H8 H8 H8 H8 H8 H8 H8 H8 H8 H8 H8 H8 H8 H8 H8 H8 H8 H8 H8 H8 H8 H8 H8 H8 H8 H8 H8 H8 H8 H8 H8 H8 H8 H8 H8 H8 H8 H8 H8 H8 H8 8 8 8 K8 K8 K8 K8 K8 K8 K8 K8 K8 K8 K8 K8 K8 K8 K8 K8 K8 K8 K8 K8 K8 K8 K8 K8 K8 K8 K8 K8 K8 K8 K8 K8 K8 K8 K8 K8 K8 K8 K8 K8 K8 K8 K8 K8 K8 K8 K8 K8 K8 K8 K8 K8 K8 K8 K8 K8 K8 K8 K8 K8 K8 K8 K8 K8 K8 K8 K8 K8 K8 K8 K8 K8 K8 K8 K8 K8 K8 K8 K8 K8 K8 K8 K8 K8 K8 K8 K8 K8 K8 K8 K8 K8 K8 K8 K8 K8 K8 K8 K8 K8 K8 K8 K8 K8 K8 K8 K8 K8 K8 K8 K8 K8 K8 K8 K8 K8 K8 K8 K8 K8 K8 K8 K8 K8 K8 K8 K8 K8 K8 K8 K8 K8 K8 K8 K8 K8 K8 K8 K8 K8 K8 K8 K8 K8 K8 K8 K8 K8 K8 K8 K8 K8 8 8 8 8 D8< D8< D8< D8< D8< D8< D8< D8< D8< D8< D8< D8< D8< D8< D8< D8< D8< D8< D8< D8< D8< D8< D8< D8< D8< D8< D8< D8< D8< D8< D8< D8< D8< D8< D8< D8< D8< D8< D8< D8< D8< D8< D8< D8< D8< D8< D8< D8< D8< D8< D8< D8< D8< D8< D8< D8< D8< D8< D8< D8< D8< D8< D8< D8< D8< D8< D8< D8< D8< D8< D8< D8< D8< D8< D8< D8< D8< D8< D8< D8< D8< D8< D8< D8< D8< D8< D8< D8< D8< D8< D8< D8< D8< D8< D8< D8< D8< D8< D8< D8< D8< D8< D8< D8< D8< D8< D8< D8< D8< D8< D8< D8< D8< D8< D8< D8< D8< D8< D8< D8< D8< D8< D8< D8< D8< D8< D8< D8< D8< D8< D8< D8< D8< D8< D8< D8< D8< D8< D8< D8< D8< D8< D8< D8< D8< D8< D8< D8< D8< D8< D8< D8< 8< 8< 8< 8K< 8K< 8K< 8K< 8K< 8K< 8K< 8K< 8K< 8K< 8K< 8K< 8K< 8K< 8K< 8K< 8K< 8K< 8K< 8K< 8K< 8K< 8K< 8K< 8K< 8K< 8K< 8K< 8K< 8K< 8K< 8K< 8K< 8K< 8K< 8K< 8K< 8K< 8K< 8K< 8K< 8K< 8K< 8K< 8K< 8K< 8K< 8K< 8K< 8K< 8K< 8K< 8K< 8K< 8K< 8K< 8K< 8K< 8K< 8K< 8K< 8K< 8K< 8K< 8K< 8K< 8K< 8K< 8K< 8K< 8K< 8K< 8K< 8K< 8K< 8K< 8K< 8K< 8K< 8K< 8K< 8K< 8K< 8K< 8K< 8K< 8K< 8K< 8K< 8K< 8K< 8K< 8K< 8K< 8K< 8K< 8K< 8K< 8K< 8K< 8K< 8K< 8K< 8K< 8K< 8K< 8K< 8K< 8K< 8K< 8K< 8K< 8K< 8K< 8K< 8K< 8K< 8K< 8K< 8K< 8K< 8K< 8K< 8K< 8K< 8K< 8K< 8K< 8K< 8K< 8K< 8K< 8K< 8K< 8K< 8K< 8K< 8K< 8K< 8K< 8K< 8K< 8K< 8K< 8K< 8K< 8K< 8K< 8K< K< K< K<     C: C: C: C: C: C: C: C: C: C: C: C: C: C: C: C: C: C: C: C: C: C: C: C: C: C: C: C: C: C: C: C: C: C: C: C: C: C: C: C: C: C: C: C: C: C: C: C: C: C: C: C: C: C: C: C: C: C: C: C: C: C: C: C: C: C: C: C: C: C: C: C: C: C: C: C: C: C: C: C: C: C: C: C: C: C: C: C: C: C: C: C: C: C: C: C: C: C: C: C: C: C: C: C: C: C: C: C: C: C: C: C: C: C: C: C: C: C: C: C: C: C: C: C: C: C: C: C: C: C: C: C: C: C: C: C: C: C: C: C: C: C: C: C: C: C: C: C: C: C: C: C: : : : I: I: I: I: I: I: I: I: I: I: I: I: I: I: I: I: I: I: I: I: I: I: I: I: I: I: I: I: I: I: I: I: I: I: I: I: I: I: I: I: I: I: I: I: I: I: I: I: I: I: I: I: I: I: I: I: I: I: I: I: I: I: I: I: I: I: I: I: I: I: I: I: I: I: I: I: I: I: I: I: I: I: I: I: I: I: I: I: I: I: I: I: I: I: I: I: I: I: I: I: I: I: I: I: I: I: I: I: I: I: I: I: I: I: I: I: I: I: I: I: I: I: I: I: I: I: I: I: I: I: I: I: I: I: I: I: I: I: I: I: I: I: I: I: I: I: I: I: I: I: I: I:     H,8 H,8 H,8 H,8 H,8 H,8 H,8 H,8 H,8 H,8 H,8 H,8 H,8 H,8 H,8 H,8 H,8 H,8 H,8 H,8 H,8 H,8 H,8 H,8 H,8 H,8 H,8 H,8 H,8 H,8 H,8 H,8 H,8 H,8 H,8 H,8 H,8 H,8 H,8 H,8 H,8 H,8 H,8 H,8 H,8 H,8 H,8 H,8 H,8 H,8 H,8 H,8 H,8 H,8 H,8 H,8 H,8 H,8 H,8 H,8 H,8 H,8 H,8 H,8 H,8 H,8 H,8 H,8 H,8 H,8 H,8 H,8 H,8 H,8 H,8 H,8 H,8 H,8 H,8 H,8 H,8 H,8 H,8 H,8 H,8 H,8 H,8 H,8 H,8 H,8 H,8 H,8 H,8 H,8 H,8 H,8 H,8 H,8 H,8 H,8 H,8 H,8 H,8 H,8 H,8 H,8 H,8 H,8 H,8 H,8 H,8 H,8 H,8 H,8 H,8 H,8 H,8 H,8 H,8 H,8 H,8 H,8 H,8 H,8 H,8 H,8 H,8 H,8 H,8 H,8 H,8 H,8 H,8 H,8 H,8 H,8 H,8 H,8 H,8 H,8 H,8 H,8 H,8 H,8 H,8 H,8 H,8 H,8 H,8 H,8 H,8 H,8 ,8 ,8 ,8 K,8 K,8 K,8 K,8 K,8 K,8 K,8 K,8 K,8 K,8 K,8 K,8 K,8 K,8 K,8 K,8 K,8 K,8 K,8 K,8 K,8 K,8 K,8 K,8 K,8 K,8 K,8 K,8 K,8 K,8 K,8 K,8 K,8 K,8 K,8 K,8 K,8 K,8 K,8 K,8 K,8 K,8 K,8 K,8 K,8 K,8 K,8 K,8 K,8 K,8 K,8 K,8 K,8 K,8 K,8 K,8 K,8 K,8 K,8 K,8 K,8 K,8 K,8 K,8 K,8 K,8 K,8 K,8 K,8 K,8 K,8 K,8 K,8 K,8 K,8 K,8 K,8 K,8 K,8 K,8 K,8 K,8 K,8 K,8 K,8 K,8 K,8 K,8 K,8 K,8 K,8 K,8 K,8 K,8 K,8 K,8 K,8 K,8 K,8 K,8 K,8 K,8 K,8 K,8 K,8 K,8 K,8 K,8 K,8 K,8 K,8 K,8 K,8 K,8 K,8 K,8 K,8 K,8 K,8 K,8 K,8 K,8 K,8 K,8 K,8 K,8 K,8 K,8 K,8 K,8 K,8 K,8 K,8 K,8 K,8 K,8 K,8 K,8 K,8 K,8 K,8 K,8 K,8 K,8 K,8 K,8 K,8 K,8 K,8 K,8 K,8 K,8     D< D< D< D< D< D< D< D< D< D< D< D< D< D< D< D< D< D< D< D< D< D< D< D< D< D< D< D< D< D< D< D< D< D< D< D< D< D< D< D< D< D< D< D< D< D< D< D< D< D< D< D< D< D< D< D< D< D< D< D< D< D< D< D< D< D< D< D< D< D< D< D< D< D< D< D< D< D< D< D< D< D< D< D< D< D< D< D< D< D< D< D< D< D< D< D< D< D< D< D< D< D< D< D< D< D< D< D< D< D< D< D< D< D< D< D< D< D< D< D< D< D< D< D< D< D< D< D< D< D< D< D< D< D< D< D< D< D< D< D< D< D< D< D< D< D< D< D< D< D< D< D< < < < K< K< K< K< K< K< K< K< K< K< K< K< K< K< K< K< K< K< K< K< K< K< K< K< K< K< K< K< K< K< K< K< K< K< K< K< K< K< K< K< K< K< K< K< K< K< K< K< K< K< K< K< K< K< K< K< K< K< K< K< K< K< K< K< K< K< K< K< K< K< K< K< K< K< K< K< K< K< K< K< K< K< K< K< K< K< K< K< K< K< K< K< K< K< K< K< K< K< K< K< K< K< K< K< K< K< K< K< K< K< K< K< K< K< K< K< K< K< K< K< K< K< K< K< K< K< K< K< K< K< K< K< K< K< K< K< K< K< K< K< K< K< K< K< K< K< K< K< K< K< K< K<     C: C: C: C: C: C: C: C: C: C: C: C: C: C: C: C: C: C: C: C: C: C: C: C: C: C: C: C: C: C: C: C: C: C: C: C: C: C: C: C: C: C: C: C: C: C: C: C: C: C: C: C: C: C: C: C: C: C: C: C: C: C: C: C: C: C: C: C: C: C: C: C: C: C: C: C: C: C: C: C: C: C: C: C: C: C: C: C: C: C: C: C: C: C: C: C: C: C: C: C: C: C: C: C: C: C: C: C: C: C: C: C: C: C: C: C: C: C: C: C: C: C: C: C: C: C: C: C: C: C: C: C: C: C: C: C: C: C: C: C: C: C: C: C: C: C: C: C: C: C: C: C: : : : I: I: I: I: I: I: I: I: I: I: I: I: I: I: I: I: I: I: I: I: I: I: I: I: I: I: I: I: I: I: I: I: I: I: I: I: I: I: I: I: I: I: I: I: I: I: I: I: I: I: I: I: I: I: I: I: I: I: I: I: I: I: I: I: I: I: I: I: I: I: I: I: I: I: I: I: I: I: I: I: I: I: I: I: I: I: I: I: I: I: I: I: I: I: I: I: I: I: I: I: I: I: I: I: I: I: I: I: I: I: I: I: I: I: I: I: I: I: I: I: I: I: I: I: I: I: I: I: I: I: I: I: I: I: I: I: I: I: I: I: I: I: I: I: I: I: I: I: I: I: I: I:     H8 H8 H8 H8 H8 H8 H8 H8 H8 H8 H8 H8 H8 H8 H8 H8 H8 H8 H8 H8 H8 H8 H8 H8 H8 H8 H8 H8 H8 H8 H8 H8 H8 H8 H8 H8 H8 H8 H8 H8 H8 H8 H8 H8 H8 H8 H8 H8 H8 H8 H8 H8 H8 H8 H8 H8 H8 H8 H8 H8 H8 H8 H8 H8 H8 H8 H8 H8 H8 H8 H8 H8 H8 H8 H8 H8 H8 H8 H8 H8 H8 H8 H8 H8 H8 H8 H8 H8 H8 H8 H8 H8 H8 H8 H8 H8 H8 H8 H8 H8 H8 H8 H8 H8 H8 H8 H8 H8 H8 H8 H8 H8 H8 H8 H8 H8 H8 H8 H8 H8 H8 H8 H8 H8 H8 H8 H8 H8 H8 H8 H8 H8 H8 H8 H8 H8 H8 H8 H8 H8 H8 H8 H8 H8 H8 H8 H8 H8 H8 H8 H8 H8 8 8 8 8 D8 D8 D8 D8 D8 D8 D8 D8 D8 D8 D8 D8 D8 D8 D8 D8 D8 D8 D8 D8 D8 D8 D8 D8 D8 D8 D8 D8 D8 D8 D8 D8 D8 D8 D8 D8 D8 D8 D8 D8 D8 D8 D8 D8 D8 D8 D8 D8 D8 D8 D8 D8 D8 D8 D8 D8 D8 D8 D8 D8 D8 D8 D8 D8 D8 D8 D8 D8 D8 D8 D8 D8 D8 D8 D8 D8 D8 D8 D8 D8 D8 D8 D8 D8 D8 D8 D8 D8 D8 D8 D8 D8 D8 D8 D8 D8 D8 D8 D8 D8 D8 D8 D8 D8 D8 D8 D8 D8 D8 D8 D8 D8 D8 D8 D8 D8 D8 D8 D8 D8 D8 D8 D8 D8 D8 D8 D8 D8 D8 D8 D8 D8 D8 D8 D8 D8 D8 D8 D8 D8 D8 D8 D8 D8 D8 D8 D8 D8 D8 D8 D8 D8 8 8 8 A28 A28 A28 A28 A28 A28 A28 A28 A28 A28 A28 A28 A28 A28 A28 A28 A28 A28 A28 A28 A28 A28 A28 A28 A28 A28 A28 A28 A28 A28 A28 A28 A28 A28 A28 A28 A28 A28 A28 A28 A28 A28 A28 A28 A28 A28 A28 A28 A28 A28 A28 A28 A28 A28 A28 A28 A28 A28 A28 A28 A28 A28 A28 A28 A28 A28 A28 A28 A28 A28 A28 A28 A28 A28 A28 A28 A28 A28 A28 A28 A28 A28 A28 A28 A28 A28 A28 A28 A28 A28 A28 A28 A28 A28 A28 A28 A28 A28 A28 A28 A28 A28 A28 A28 A28 A28 A28 A28 A28 A28 A28 A28 A28 A28 A28 A28 A28 A28 A28 A28 A28 A28 A28 A28 A28 A28 A28 A28 A28 A28 A28 A28 A28 A28 A28 A28 A28 A28 A28 A28 A28 A28 A28 A28 A28 A28 A28 A28 A28 A28 A28 A28 28 28 28 28 2H8 2H8 2H8 2H8 2H8 2H8 2H8 2H8 2H8 2H8 2H8 2H8 2H8 2H8 2H8 2H8 2H8 2H8 2H8 2H8 2H8 2H8 2H8 2H8 2H8 2H8 2H8 2H8 2H8 2H8 2H8 2H8 2H8 2H8 2H8 2H8 2H8 2H8 2H8 2H8 2H8 2H8 2H8 2H8 2H8 2H8 2H8 2H8 2H8 2H8 2H8 2H8 2H8 2H8 2H8 2H8 2H8 2H8 2H8 2H8 2H8 2H8 2H8 2H8 2H8 2H8 2H8 2H8 2H8 2H8 2H8 2H8 2H8 2H8 2H8 2H8 2H8 2H8 2H8 2H8 2H8 2H8 2H8 2H8 2H8 2H8 2H8 2H8 2H8 2H8 2H8 2H8 2H8 2H8 2H8 2H8 2H8 2H8 2H8 2H8 2H8 2H8 2H8 2H8 2H8 2H8 2H8 2H8 2H8 2H8 2H8 2H8 2H8 2H8 2H8 2H8 2H8 2H8 2H8 2H8 2H8 2H8 2H8 2H8 2H8 2H8 2H8 2H8 2H8 2H8 2H8 2H8 2H8 2H8 2H8 2H8 2H8 2H8 2H8 2H8 2H8 2H8 2H8 2H8 2H8 2H8 2H8 2H8 2H8 2H8 2H8 H8 8 8 8 ?38 ?38 ?38 ?38 ?38 ?38 ?38 ?38 ?38 ?38 ?38 ?38 ?38 ?38 ?38 ?38 ?38 ?38 ?38 ?38 ?38 ?38 ?38 ?38 ?38 ?38 ?38 ?38 ?38 ?38 ?38 ?38 ?38 ?38 ?38 ?38 ?38 ?38 ?38 ?38 ?38 ?38 ?38 ?38 ?38 ?38 ?38 ?38 ?38 ?38 ?38 ?38 ?38 ?38 ?38 ?38 ?38 ?38 ?38 ?38 ?38 ?38 ?38 ?38 ?38 ?38 ?38 ?38 ?38 ?38 ?38 ?38 ?38 ?38 ?38 ?38 ?38 ?38 ?38 ?38 ?38 ?38 ?38 ?38 ?38 ?38 ?38 ?38 ?38 ?38 ?38 ?38 ?38 ?38 ?38 ?38 ?38 ?38 ?38 ?38 ?38 ?38 ?38 ?38 ?38 ?38 ?38 ?38 ?38 ?38 ?38 ?38 ?38 ?38 ?38 ?38 ?38 ?38 ?38 ?38 ?38 ?38 ?38 ?38 ?38 ?38 ?38 ?38 ?38 ?38 ?38 ?38 ?38 ?38 ?38 ?38 ?38 ?38 ?38 ?38 ?38 ?38 ?38 ?38 ?38 ?38 ?38 ?38 ?38 ?38 ?38 ?38 38 38 38 38 3H8 3H8 3H8 3H8 3H8 3H8 3H8 3H8 3H8 3H8 3H8 3H8 3H8 3H8 3H8 3H8 3H8 3H8 3H8 3H8 3H8 3H8 3H8 3H8 3H8 3H8 3H8 3H8 3H8 3H8 3H8 3H8 3H8 3H8 3H8 3H8 3H8 3H8 3H8 3H8 3H8 3H8 3H8 3H8 3H8 3H8 3H8 3H8 3H8 3H8 3H8 3H8 3H8 3H8 3H8 3H8 3H8 3H8 3H8 3H8 3H8 3H8 3H8 3H8 3H8 3H8 3H8 3H8 3H8 3H8 3H8 3H8 3H8 3H8 3H8 3H8 3H8 3H8 3H8 3H8 3H8 3H8 3H8 3H8 3H8 3H8 3H8 3H8 3H8 3H8 3H8 3H8 3H8 3H8 3H8 3H8 3H8 3H8 3H8 3H8 3H8 3H8 3H8 3H8 3H8 3H8 3H8 3H8 3H8 3H8 3H8 3H8 3H8 3H8 3H8 3H8 3H8 3H8 3H8 3H8 3H8 3H8 3H8 3H8 3H8 3H8 3H8 3H8 3H8 3H8 3H8 3H8 3H8 3H8 3H8 3H8 3H8 3H8 3H8 3H8 3H8 3H8 3H8 3H8 3H8 3H8 3H8 3H8 3H8 3H8 3H8 H8 8 8 8 >58 >58 >58 >58 >58 >58 >58 >58 >58 >58 >58 >58 >58 >58 >58 >58 >58 >58 >58 >58 >58 >58 >58 >58 >58 >58 >58 >58 >58 >58 >58 >58 >58 >58 >58 >58 >58 >58 >58 >58 >58 >58 >58 >58 >58 >58 >58 >58 >58 >58 >58 >58 >58 >58 >58 >58 >58 >58 >58 >58 >58 >58 >58 >58 >58 >58 >58 >58 >58 >58 >58 >58 >58 >58 >58 >58 >58 >58 >58 >58 >58 >58 >58 >58 >58 >58 >58 >58 >58 >58 >58 >58 >58 >58 >58 >58 >58 >58 >58 >58 >58 >58 >58 >58 >58 >58 >58 >58 >58 >58 >58 >58 >58 >58 >58 >58 >58 >58 >58 >58 >58 >58 >58 >58 >58 >58 >58 >58 >58 >58 >58 >58 >58 >58 >58 >58 >58 >58 >58 >58 >58 >58 >58 >58 >58 >58 >58 >58 >58 >58 >58 >58 58 58 58 58 5H8 5H8 5H8 5H8 5H8 5H8 5H8 5H8 5H8 5H8 5H8 5H8 5H8 5H8 5H8 5H8 5H8 5H8 5H8 5H8 5H8 5H8 5H8 5H8 5H8 5H8 5H8 5H8 5H8 5H8 5H8 5H8 5H8 5H8 5H8 5H8 5H8 5H8 5H8 5H8 5H8 5H8 5H8 5H8 5H8 5H8 5H8 5H8 5H8 5H8 5H8 5H8 5H8 5H8 5H8 5H8 5H8 5H8 5H8 5H8 5H8 5H8 5H8 5H8 5H8 5H8 5H8 5H8 5H8 5H8 5H8 5H8 5H8 5H8 5H8 5H8 5H8 5H8 5H8 5H8 5H8 5H8 5H8 5H8 5H8 5H8 5H8 5H8 5H8 5H8 5H8 5H8 5H8 5H8 5H8 5H8 5H8 5H8 5H8 5H8 5H8 5H8 5H8 5H8 5H8 5H8 5H8 5H8 5H8 5H8 5H8 5H8 5H8 5H8 5H8 5H8 5H8 5H8 5H8 5H8 5H8 5H8 5H8 5H8 5H8 5H8 5H8 5H8 5H8 5H8 5H8 5H8 5H8 5H8 5H8 5H8 5H8 5H8 5H8 5H8 5H8 5H8 5H8 5H8 5H8 5H8 5H8 5H8 5H8 5H8 5H8 H8 8 8 8 ?38 ?38 ?38 ?38 ?38 ?38 ?38 ?38 ?38 ?38 ?38 ?38 ?38 ?38 ?38 ?38 ?38 ?38 ?38 ?38 ?38 ?38 ?38 ?38 ?38 ?38 ?38 ?38 ?38 ?38 ?38 ?38 ?38 ?38 ?38 ?38 ?38 ?38 ?38 ?38 ?38 ?38 ?38 ?38 ?38 ?38 ?38 ?38 ?38 ?38 ?38 ?38 ?38 ?38 ?38 ?38 ?38 ?38 ?38 ?38 ?38 ?38 ?38 ?38 ?38 ?38 ?38 ?38 ?38 ?38 ?38 ?38 ?38 ?38 ?38 ?38 ?38 ?38 ?38 ?38 ?38 ?38 ?38 ?38 ?38 ?38 ?38 ?38 ?38 ?38 ?38 ?38 ?38 ?38 ?38 ?38 ?38 ?38 ?38 ?38 ?38 ?38 ?38 ?38 ?38 ?38 ?38 ?38 ?38 ?38 ?38 ?38 ?38 ?38 ?38 ?38 ?38 ?38 ?38 ?38 ?38 ?38 ?38 ?38 ?38 ?38 ?38 ?38 ?38 ?38 ?38 ?38 ?38 ?38 ?38 ?38 ?38 ?38 ?38 ?38 ?38 ?38 ?38 ?38 ?38 ?38 ?38 ?38 ?38 ?38 ?38 ?38 38 38 38 38 3H8 3H8 3H8 3H8 3H8 3H8 3H8 3H8 3H8 3H8 3H8 3H8 3H8 3H8 3H8 3H8 3H8 3H8 3H8 3H8 3H8 3H8 3H8 3H8 3H8 3H8 3H8 3H8 3H8 3H8 3H8 3H8 3H8 3H8 3H8 3H8 3H8 3H8 3H8 3H8 3H8 3H8 3H8 3H8 3H8 3H8 3H8 3H8 3H8 3H8 3H8 3H8 3H8 3H8 3H8 3H8 3H8 3H8 3H8 3H8 3H8 3H8 3H8 3H8 3H8 3H8 3H8 3H8 3H8 3H8 3H8 3H8 3H8 3H8 3H8 3H8 3H8 3H8 3H8 3H8 3H8 3H8 3H8 3H8 3H8 3H8 3H8 3H8 3H8 3H8 3H8 3H8 3H8 3H8 3H8 3H8 3H8 3H8 3H8 3H8 3H8 3H8 3H8 3H8 3H8 3H8 3H8 3H8 3H8 3H8 3H8 3H8 3H8 3H8 3H8 3H8 3H8 3H8 3H8 3H8 3H8 3H8 3H8 3H8 3H8 3H8 3H8 3H8 3H8 3H8 3H8 3H8 3H8 3H8 3H8 3H8 3H8 3H8 3H8 3H8 3H8 3H8 3H8 3H8 3H8 3H8 3H8 3H8 3H8 3H8 3H8 H8 8 8 8 A28 A28 A28 A28 A28 A28 A28 A28 A28 A28 A28 A28 A28 A28 A28 A28 A28 A28 A28 A28 A28 A28 A28 A28 A28 A28 A28 A28 A28 A28 A28 A28 A28 A28 A28 A28 A28 A28 A28 A28 A28 A28 A28 A28 A28 A28 A28 A28 A28 A28 A28 A28 A28 A28 A28 A28 A28 A28 A28 A28 A28 A28 A28 A28 A28 A28 A28 A28 A28 A28 A28 A28 A28 A28 A28 A28 A28 A28 A28 A28 A28 A28 A28 A28 A28 A28 A28 A28 A28 A28 A28 A28 A28 A28 A28 A28 A28 A28 A28 A28 A28 A28 A28 A28 A28 A28 A28 A28 A28 A28 A28 A28 A28 A28 A28 A28 A28 A28 A28 A28 A28 A28 A28 A28 A28 A28 A28 A28 A28 A28 A28 A28 A28 A28 A28 A28 A28 A28 A28 A28 A28 A28 A28 A28 A28 A28 A28 A28 A28 A28 A28 A28 28 28 28 28 2H8 2H8 2H8 2H8 2H8 2H8 2H8 2H8 2H8 2H8 2H8 2H8 2H8 2H8 2H8 2H8 2H8 2H8 2H8 2H8 2H8 2H8 2H8 2H8 2H8 2H8 2H8 2H8 2H8 2H8 2H8 2H8 2H8 2H8 2H8 2H8 2H8 2H8 2H8 2H8 2H8 2H8 2H8 2H8 2H8 2H8 2H8 2H8 2H8 2H8 2H8 2H8 2H8 2H8 2H8 2H8 2H8 2H8 2H8 2H8 2H8 2H8 2H8 2H8 2H8 2H8 2H8 2H8 2H8 2H8 2H8 2H8 2H8 2H8 2H8 2H8 2H8 2H8 2H8 2H8 2H8 2H8 2H8 2H8 2H8 2H8 2H8 2H8 2H8 2H8 2H8 2H8 2H8 2H8 2H8 2H8 2H8 2H8 2H8 2H8 2H8 2H8 2H8 2H8 2H8 2H8 2H8 2H8 2H8 2H8 2H8 2H8 2H8 2H8 2H8 2H8 2H8 2H8 2H8 2H8 2H8 2H8 2H8 2H8 2H8 2H8 2H8 2H8 2H8 2H8 2H8 2H8 2H8 2H8 2H8 2H8 2H8 2H8 2H8 2H8 2H8 2H8 2H8 2H8 2H8 2H8 2H8 2H8 2H8 2H8 2H8 H8    7G 7G 7G 7G 7G 7G 7G 7G 7G 7G 7G 7G 7G 7G 7G 7G 7G 7G 7G 7G 7G 7G 7G 7G 7G 7G 7G 7G 7G 7G 7G 7G 7G 7G 7G 7G 7G 7G 7G 7G 7G 7G 7G 7G 7G 7G 7G 7G 7G 7G 7G 7G 7G 7G 7G 7G 7G 7G 7G 7G 7G 7G 7G 7G 7G 7G 7G 7G 7G 7G 7G 7G 7G 7G 7G 7G 7G 7G 7G 7G 7G 7G 7G 7G 7G 7G 7G 7G 7G 7G 7G 7G 7G 7G 7G 7G 7G 7G 7G 7G 7G 7G 7G 7G 7G 7G 7G 7G 7G 7G 7G 7G 7G 7G 7G 7G 7G 7G 7G 7G 7G 7G 7G 7G 7G 7G 7G 7G 7G 7G 7G 7G 7G 7G 7G 7G 7G 7G 7G 7G 7G 7G 7G 7G 7G 7G 7G 7G 7G 7G 7G 7G 7G 7G 7G 7G 7G5 7G5 7G5 7G5 7G5 7G5 7G5 7G5 7G5 7G5 7G5 7G5 7G5 7G5 7G5 7G5 7G5 7G5 7G5 7G5 7G5 7G5 7G5 7G5 7G5 7G5 7G5 7G5 7G5 7G5 7G5 7G5 7G5 7G5 7G5 7G5 7G5 7G5 7G5 7G5 7G5 7G5 7G5 7G5 7G5 7G5 7G5 7G5 7G5 7G5 7G5 7G5 7G5 7G5 7G5 7G5 7G5 7G5 7G5 7G5 7G5 7G5 7G5 7G5 7G5 7G5 7G5 7G5 7G5 7G5 7G5 7G5 7G5 7G5 7G5 7G5 7G5 7G5 7G5 7G5 7G5 7G5 7G5 7G5 7G5 7G5 7G5 7G5 7G5 7G5 7G5 7G5 7G5 7G5 7G5 7G5 7G5 7G5 7G5 7G5 7G5 7G5 7G5 7G5 7G5 7G5 7G5 7G5 7G5 7G5 7G5 7G5 7G5 7G5 7G5 7G5 7G5 7G5 7G5 7G5 7G5 7G5 7G5 7G5 7G5 7G5 7G5 7G5 7G5 7G5 7G5 7G5 7G5 7G5 7G5 7G5 7G5 7G5 7G5 7G5 7G5 7G5 7G5 7G5 7G5 7G5 7G5 7G5 7G5 7G5 7G5 5    3HC 3HC 3HC 3HC 3HC 3HC 3HC 3HC 3HC 3HC 3HC 3HC 3HC 3HC 3HC 3HC 3HC 3HC 3HC 3HC 3HC 3HC 3HC 3HC 3HC 3HC 3HC 3HC 3HC 3HC 3HC 3HC 3HC 3HC 3HC 3HC 3HC 3HC 3HC 3HC 3HC 3HC 3HC 3HC 3HC 3HC 3HC 3HC 3HC 3HC 3HC 3HC 3HC 3HC 3HC 3HC 3HC 3HC 3HC 3HC 3HC 3HC 3HC 3HC 3HC 3HC 3HC 3HC 3HC 3HC 3HC 3HC 3HC 3HC 3HC 3HC 3HC 3HC 3HC 3HC 3HC 3HC 3HC 3HC 3HC 3HC 3HC 3HC 3HC 3HC 3HC 3HC 3HC 3HC 3HC 3HC 3HC 3HC 3HC 3HC 3HC 3HC 3HC 3HC 3HC 3HC 3HC 3HC 3HC 3HC 3HC 3HC 3HC 3HC 3HC 3HC 3HC 3HC 3HC 3HC 3HC 3HC 3HC 3HC 3HC 3HC 3HC 3HC 3HC 3HC 3HC 3HC 3HC 3HC 3HC 3HC 3HC 3HC 3HC 3HC 3HC 3HC 3HC 3HC 3HC 3HC 3HC 3HC 3HC 3HC 3HC 3HC HC HC HC HC HC5 HC5 HC5 HC5 HC5 HC5 HC5 HC5 HC5 HC5 HC5 HC5 HC5 HC5 HC5 HC5 HC5 HC5 HC5 HC5 HC5 HC5 HC5 HC5 HC5 HC5 HC5 HC5 HC5 HC5 HC5 HC5 HC5 HC5 HC5 HC5 HC5 HC5 HC5 HC5 HC5 HC5 HC5 HC5 HC5 HC5 HC5 HC5 HC5 HC5 HC5 HC5 HC5 HC5 HC5 HC5 HC5 HC5 HC5 HC5 HC5 HC5 HC5 HC5 HC5 HC5 HC5 HC5 HC5 HC5 HC5 HC5 HC5 HC5 HC5 HC5 HC5 HC5 HC5 HC5 HC5 HC5 HC5 HC5 HC5 HC5 HC5 HC5 HC5 HC5 HC5 HC5 HC5 HC5 HC5 HC5 HC5 HC5 HC5 HC5 HC5 HC5 HC5 HC5 HC5 HC5 HC5 HC5 HC5 HC5 HC5 HC5 HC5 HC5 HC5 HC5 HC5 HC5 HC5 HC5 HC5 HC5 HC5 HC5 HC5 HC5 HC5 HC5 HC5 HC5 HC5 HC5 HC5 HC5 HC5 HC5 HC5 HC5 HC5 HC5 HC5 HC5 HC5 HC5 HC5 HC5 HC5 HC5 HC5 HC5 HC5 5    2FA 2FA 2FA 2FA 2FA 2FA 2FA 2FA 2FA 2FA 2FA 2FA 2FA 2FA 2FA 2FA 2FA 2FA 2FA 2FA 2FA 2FA 2FA 2FA 2FA 2FA 2FA 2FA 2FA 2FA 2FA 2FA 2FA 2FA 2FA 2FA 2FA 2FA 2FA 2FA 2FA 2FA 2FA 2FA 2FA 2FA 2FA 2FA 2FA 2FA 2FA 2FA 2FA 2FA 2FA 2FA 2FA 2FA 2FA 2FA 2FA 2FA 2FA 2FA 2FA 2FA 2FA 2FA 2FA 2FA 2FA 2FA 2FA 2FA 2FA 2FA 2FA 2FA 2FA 2FA 2FA 2FA 2FA 2FA 2FA 2FA 2FA 2FA 2FA 2FA 2FA 2FA 2FA 2FA 2FA 2FA 2FA 2FA 2FA 2FA 2FA 2FA 2FA 2FA 2FA 2FA 2FA 2FA 2FA 2FA 2FA 2FA 2FA 2FA 2FA 2FA 2FA 2FA 2FA 2FA 2FA 2FA 2FA 2FA 2FA 2FA 2FA 2FA 2FA 2FA 2FA 2FA 2FA 2FA 2FA 2FA 2FA 2FA 2FA 2FA 2FA 2FA 2FA 2FA 2FA 2FA 2FA 2FA 2FA 2FA 2FA 2FA FA FA FA FA FA3 FA3 FA3 FA3 FA3 FA3 FA3 FA3 FA3 FA3 FA3 FA3 FA3 FA3 FA3 FA3 FA3 FA3 FA3 FA3 FA3 FA3 FA3 FA3 FA3 FA3 FA3 FA3 FA3 FA3 FA3 FA3 FA3 FA3 FA3 FA3 FA3 FA3 FA3 FA3 FA3 FA3 FA3 FA3 FA3 FA3 FA3 FA3 FA3 FA3 FA3 FA3 FA3 FA3 FA3 FA3 FA3 FA3 FA3 FA3 FA3 FA3 FA3 FA3 FA3 FA3 FA3 FA3 FA3 FA3 FA3 FA3 FA3 FA3 FA3 FA3 FA3 FA3 FA3 FA3 FA3 FA3 FA3 FA3 FA3 FA3 FA3 FA3 FA3 FA3 FA3 FA3 FA3 FA3 FA3 FA3 FA3 FA3 FA3 FA3 FA3 FA3 FA3 FA3 FA3 FA3 FA3 FA3 FA3 FA3 FA3 FA3 FA3 FA3 FA3 FA3 FA3 FA3 FA3 FA3 FA3 FA3 FA3 FA3 FA3 FA3 FA3 FA3 FA3 FA3 FA3 FA3 FA3 FA3 FA3 FA3 FA3 FA3 FA3 FA3 FA3 FA3 FA3 FA3 FA3 FA3 FA3 FA3 FA3 FA3 FA3 3    0D? 0D? 0D? 0D? 0D? 0D? 0D? 0D? 0D? 0D? 0D? 0D? 0D? 0D? 0D? 0D? 0D? 0D? 0D? 0D? 0D? 0D? 0D? 0D? 0D? 0D? 0D? 0D? 0D? 0D? 0D? 0D? 0D? 0D? 0D? 0D? 0D? 0D? 0D? 0D? 0D? 0D? 0D? 0D? 0D? 0D? 0D? 0D? 0D? 0D? 0D? 0D? 0D? 0D? 0D? 0D? 0D? 0D? 0D? 0D? 0D? 0D? 0D? 0D? 0D? 0D? 0D? 0D? 0D? 0D? 0D? 0D? 0D? 0D? 0D? 0D? 0D? 0D? 0D? 0D? 0D? 0D? 0D? 0D? 0D? 0D? 0D? 0D? 0D? 0D? 0D? 0D? 0D? 0D? 0D? 0D? 0D? 0D? 0D? 0D? 0D? 0D? 0D? 0D? 0D? 0D? 0D? 0D? 0D? 0D? 0D? 0D? 0D? 0D? 0D? 0D? 0D? 0D? 0D? 0D? 0D? 0D? 0D? 0D? 0D? 0D? 0D? 0D? 0D? 0D? 0D? 0D? 0D? 0D? 0D? 0D? 0D? 0D? 0D? 0D? 0D? 0D? 0D? 0D? 0D? 0D? 0D? 0D? 0D? 0D? 0D? 0D? D? D? D? D? D?3 D?3 D?3 D?3 D?3 D?3 D?3 D?3 D?3 D?3 D?3 D?3 D?3 D?3 D?3 D?3 D?3 D?3 D?3 D?3 D?3 D?3 D?3 D?3 D?3 D?3 D?3 D?3 D?3 D?3 D?3 D?3 D?3 D?3 D?3 D?3 D?3 D?3 D?3 D?3 D?3 D?3 D?3 D?3 D?3 D?3 D?3 D?3 D?3 D?3 D?3 D?3 D?3 D?3 D?3 D?3 D?3 D?3 D?3 D?3 D?3 D?3 D?3 D?3 D?3 D?3 D?3 D?3 D?3 D?3 D?3 D?3 D?3 D?3 D?3 D?3 D?3 D?3 D?3 D?3 D?3 D?3 D?3 D?3 D?3 D?3 D?3 D?3 D?3 D?3 D?3 D?3 D?3 D?3 D?3 D?3 D?3 D?3 D?3 D?3 D?3 D?3 D?3 D?3 D?3 D?3 D?3 D?3 D?3 D?3 D?3 D?3 D?3 D?3 D?3 D?3 D?3 D?3 D?3 D?3 D?3 D?3 D?3 D?3 D?3 D?3 D?3 D?3 D?3 D?3 D?3 D?3 D?3 D?3 D?3 D?3 D?3 D?3 D?3 D?3 D?3 D?3 D?3 D?3 D?3 D?3 D?3 D?3 D?3 D?3 D?3 3    .>C .>C .>C .>C .>C .>C .>C .>C .>C .>C .>C .>C .>C .>C .>C .>C .>C .>C .>C .>C .>C .>C .>C .>C .>C .>C .>C .>C .>C .>C .>C .>C .>C .>C .>C .>C .>C .>C .>C .>C .>C .>C .>C .>C .>C .>C .>C .>C .>C .>C .>C .>C .>C .>C .>C .>C .>C .>C .>C .>C .>C .>C .>C .>C .>C .>C .>C .>C .>C .>C .>C .>C .>C .>C .>C .>C .>C .>C .>C .>C .>C .>C .>C .>C .>C .>C .>C .>C .>C .>C .>C .>C .>C .>C .>C .>C .>C .>C .>C .>C .>C .>C .>C .>C .>C .>C .>C .>C .>C .>C .>C .>C .>C .>C .>C .>C .>C .>C .>C .>C .>C .>C .>C .>C .>C .>C .>C .>C .>C .>C .>C .>C .>C .>C .>C .>C .>C .>C .>C .>C .>C .>C .>C .>C .>C .>C .>C .>C .>C .>C .>C .>C >C >C >C >C >C3 >C3 >C3 >C3 >C3 >C3 >C3 >C3 >C3 >C3 >C3 >C3 >C3 >C3 >C3 >C3 >C3 >C3 >C3 >C3 >C3 >C3 >C3 >C3 >C3 >C3 >C3 >C3 >C3 >C3 >C3 >C3 >C3 >C3 >C3 >C3 >C3 >C3 >C3 >C3 >C3 >C3 >C3 >C3 >C3 >C3 >C3 >C3 >C3 >C3 >C3 >C3 >C3 >C3 >C3 >C3 >C3 >C3 >C3 >C3 >C3 >C3 >C3 >C3 >C3 >C3 >C3 >C3 >C3 >C3 >C3 >C3 >C3 >C3 >C3 >C3 >C3 >C3 >C3 >C3 >C3 >C3 >C3 >C3 >C3 >C3 >C3 >C3 >C3 >C3 >C3 >C3 >C3 >C3 >C3 >C3 >C3 >C3 >C3 >C3 >C3 >C3 >C3 >C3 >C3 >C3 >C3 >C3 >C3 >C3 >C3 >C3 >C3 >C3 >C3 >C3 >C3 >C3 >C3 >C3 >C3 >C3 >C3 >C3 >C3 >C3 >C3 >C3 >C3 >C3 >C3 >C3 >C3 >C3 >C3 >C3 >C3 >C3 >C3 >C3 >C3 >C3 >C3 >C3 >C3 >C3 >C3 >C3 >C3 >C3 >C3 3    ,A< ,A< ,A< ,A< ,A< ,A< ,A< ,A< ,A< ,A< ,A< ,A< ,A< ,A< ,A< ,A< ,A< ,A< ,A< ,A< ,A< ,A< ,A< ,A< ,A< ,A< ,A< ,A< ,A< ,A< ,A< ,A< ,A< ,A< ,A< ,A< ,A< ,A< ,A< ,A< ,A< ,A< ,A< ,A< ,A< ,A< ,A< ,A< ,A< ,A< ,A< ,A< ,A< ,A< ,A< ,A< ,A< ,A< ,A< ,A< ,A< ,A< ,A< ,A< ,A< ,A< ,A< ,A< ,A< ,A< ,A< ,A< ,A< ,A< ,A< ,A< ,A< ,A< ,A< ,A< ,A< ,A< ,A< ,A< ,A< ,A< ,A< ,A< ,A< ,A< ,A< ,A< ,A< ,A< ,A< ,A< ,A< ,A< ,A< ,A< ,A< ,A< ,A< ,A< ,A< ,A< ,A< ,A< ,A< ,A< ,A< ,A< ,A< ,A< ,A< ,A< ,A< ,A< ,A< ,A< ,A< ,A< ,A< ,A< ,A< ,A< ,A< ,A< ,A< ,A< ,A< ,A< ,A< ,A< ,A< ,A< ,A< ,A< ,A< ,A< ,A< ,A< ,A< ,A< ,A< ,A< ,A< ,A< ,A< ,A< ,A< ,A< A< A< A< A< A<3 A<3 A<3 A<3 A<3 A<3 A<3 A<3 A<3 A<3 A<3 A<3 A<3 A<3 A<3 A<3 A<3 A<3 A<3 A<3 A<3 A<3 A<3 A<3 A<3 A<3 A<3 A<3 A<3 A<3 A<3 A<3 A<3 A<3 A<3 A<3 A<3 A<3 A<3 A<3 A<3 A<3 A<3 A<3 A<3 A<3 A<3 A<3 A<3 A<3 A<3 A<3 A<3 A<3 A<3 A<3 A<3 A<3 A<3 A<3 A<3 A<3 A<3 A<3 A<3 A<3 A<3 A<3 A<3 A<3 A<3 A<3 A<3 A<3 A<3 A<3 A<3 A<3 A<3 A<3 A<3 A<3 A<3 A<3 A<3 A<3 A<3 A<3 A<3 A<3 A<3 A<3 A<3 A<3 A<3 A<3 A<3 A<3 A<3 A<3 A<3 A<3 A<3 A<3 A<3 A<3 A<3 A<3 A<3 A<3 A<3 A<3 A<3 A<3 A<3 A<3 A<3 A<3 A<3 A<3 A<3 A<3 A<3 A<3 A<3 A<3 A<3 A<3 A<3 A<3 A<3 A<3 A<3 A<3 A<3 A<3 A<3 A<3 A<3 A<3 A<3 A<3 A<3 A<3 A<3 A<3 A<3 A<3 A<3 A<3 A<3 3    +F?: +F?: +F?: +F?: +F?: +F?: +F?: +F?: +F?: +F?: +F?: +F?: +F?: +F?: +F?: +F?: +F?: +F?: +F?: +F?: +F?: +F?: +F?: +F?: +F?: +F?: +F?: +F?: +F?: +F?: +F?: +F?: +F?: +F?: +F?: +F?: +F?: +F?: +F?: +F?: +F?: +F?: +F?: +F?: +F?: +F?: +F?: +F?: +F?: +F?: +F?: +F?: +F?: +F?: +F?: +F?: +F?: +F?: +F?: +F?: +F?: +F?: +F?: +F?: +F?: +F?: +F?: +F?: +F?: +F?: +F?: +F?: +F?: +F?: +F?: +F?: +F?: +F?: +F?: +F?: +F?: +F?: +F?: +F?: +F?: +F?: +F?: +F?: +F?: +F?: +F?: +F?: +F?: +F?: +F?: +F?: +F?: +F?: +F?: +F?: +F?: +F?: +F?: +F?: +F?: +F?: +F?: +F?: +F?: +F?: +F?: +F?: +F?: +F?: +F?: +F?: +F?: +F?: +F?: +F?: +F?: +F?: +F?: +F?: +F?: +F?: +F?: +F?: +F?: +F?: +F?: +F?: +F?: +F?: +F?: +F?: +F?: +F?: +F?: +F?: +F?: +F?: +F?: +F?: +F?: +F?: +F?: +F?: +F?: +F?: +F?: +F?: F?: F?: F?: F?: F?:3 F?:3 F?:3 F?:3 F?:3 F?:3 F?:3 F?:3 F?:3 F?:3 F?:3 F?:3 F?:3 F?:3 F?:3 F?:3 F?:3 F?:3 F?:3 F?:3 F?:3 F?:3 F?:3 F?:3 F?:3 F?:3 F?:3 F?:3 F?:3 F?:3 F?:3 F?:3 F?:3 F?:3 F?:3 F?:3 F?:3 F?:3 F?:3 F?:3 F?:3 F?:3 F?:3 F?:3 F?:3 F?:3 F?:3 F?:3 F?:3 F?:3 F?:3 F?:3 F?:3 F?:3 F?:3 F?:3 F?:3 F?:3 F?:3 F?:3 F?:3 F?:3 F?:3 F?:3 F?:3 F?:3 F?:3 F?:3 F?:3 F?:3 F?:3 F?:3 F?:3 F?:3 F?:3 F?:3 F?:3 F?:3 F?:3 F?:3 F?:3 F?:3 F?:3 F?:3 F?:3 F?:3 F?:3 F?:3 F?:3 F?:3 F?:3 F?:3 F?:3 F?:3 F?:3 F?:3 F?:3 F?:3 F?:3 F?:3 F?:3 F?:3 F?:3 F?:3 F?:3 F?:3 F?:3 F?:3 F?:3 F?:3 F?:3 F?:3 F?:3 F?:3 F?:3 F?:3 F?:3 F?:3 F?:3 F?:3 F?:3 F?:3 F?:3 F?:3 F?:3 F?:3 F?:3 F?:3 F?:3 F?:3 F?:3 F?:3 F?:3 F?:3 F?:3 F?:3 F?:3 F?:3 F?:3 F?:3 F?:3 F?:3 F?:3 F?:3 F?:3 F?:3 F?:3 F?:3 F?:3 F?:3 F?:3 3     )D> )D> )D> )D> )D> )D> )D> )D> )D> )D> )D> )D> )D> )D> )D> )D> )D> )D> )D> )D> )D> )D> )D> )D> )D> )D> )D> )D> )D> )D> )D> )D> )D> )D> )D> )D> )D> )D> )D> )D> )D> )D> )D> )D> )D> )D> )D> )D> )D> )D> )D> )D> )D> )D> )D> )D> )D> )D> )D> )D> )D> )D> )D> )D> )D> )D> )D> )D> )D> )D> )D> )D> )D> )D> )D> )D> )D> )D> )D> )D> )D> )D> )D> )D> )D> )D> )D> )D> )D> )D> )D> )D> )D> )D> )D> )D> )D> )D> )D> )D> )D> )D> )D> )D> )D> )D> )D> )D> )D> )D> )D> )D> )D> )D> )D> )D> )D> )D> )D> )D> )D> )D> )D> )D> )D> )D> )D> )D> )D> )D> )D> )D> )D> )D> )D> )D> )D> )D> )D> )D> )D> )D> )D> )D> )D> )D> )D> )D> )D> )D> )D> )D> D> D> D> 3D> 3D> 3D> 3D> 3D> 3D> 3D> 3D> 3D> 3D> 3D> 3D> 3D> 3D> 3D> 3D> 3D> 3D> 3D> 3D> 3D> 3D> 3D> 3D> 3D> 3D> 3D> 3D> 3D> 3D> 3D> 3D> 3D> 3D> 3D> 3D> 3D> 3D> 3D> 3D> 3D> 3D> 3D> 3D> 3D> 3D> 3D> 3D> 3D> 3D> 3D> 3D> 3D> 3D> 3D> 3D> 3D> 3D> 3D> 3D> 3D> 3D> 3D> 3D> 3D> 3D> 3D> 3D> 3D> 3D> 3D> 3D> 3D> 3D> 3D> 3D> 3D> 3D> 3D> 3D> 3D> 3D> 3D> 3D> 3D> 3D> 3D> 3D> 3D> 3D> 3D> 3D> 3D> 3D> 3D> 3D> 3D> 3D> 3D> 3D> 3D> 3D> 3D> 3D> 3D> 3D> 3D> 3D> 3D> 3D> 3D> 3D> 3D> 3D> 3D> 3D> 3D> 3D> 3D> 3D> 3D> 3D> 3D> 3D> 3D> 3D> 3D> 3D> 3D> 3D> 3D> 3D> 3D> 3D> 3D> 3D> 3D> 3D> 3D> 3D> 3D> 3D> 3D> 3D> 3D> 3D> 3D> 3D> 3D> 3D> 3D> 3D>     'C? 'C? 'C? 'C? 'C? 'C? 'C? 'C? 'C? 'C? 'C? 'C? 'C? 'C? 'C? 'C? 'C? 'C? 'C? 'C? 'C? 'C? 'C? 'C? 'C? 'C? 'C? 'C? 'C? 'C? 'C? 'C? 'C? 'C? 'C? 'C? 'C? 'C? 'C? 'C? 'C? 'C? 'C? 'C? 'C? 'C? 'C? 'C? 'C? 'C? 'C? 'C? 'C? 'C? 'C? 'C? 'C? 'C? 'C? 'C? 'C? 'C? 'C? 'C? 'C? 'C? 'C? 'C? 'C? 'C? 'C? 'C? 'C? 'C? 'C? 'C? 'C? 'C? 'C? 'C? 'C? 'C? 'C? 'C? 'C? 'C? 'C? 'C? 'C? 'C? 'C? 'C? 'C? 'C? 'C? 'C? 'C? 'C? 'C? 'C? 'C? 'C? 'C? 'C? 'C? 'C? 'C? 'C? 'C? 'C? 'C? 'C? 'C? 'C? 'C? 'C? 'C? 'C? 'C? 'C? 'C? 'C? 'C? 'C? 'C? 'C? 'C? 'C? 'C? 'C? 'C? 'C? 'C? 'C? 'C? 'C? 'C? 'C? 'C? 'C? 'C? 'C? 'C? 'C? 'C? 'C? 'C? 'C? 'C? 'C? 'C? 'C? C? C? C? 3C? 3C? 3C? 3C? 3C? 3C? 3C? 3C? 3C? 3C? 3C? 3C? 3C? 3C? 3C? 3C? 3C? 3C? 3C? 3C? 3C? 3C? 3C? 3C? 3C? 3C? 3C? 3C? 3C? 3C? 3C? 3C? 3C? 3C? 3C? 3C? 3C? 3C? 3C? 3C? 3C? 3C? 3C? 3C? 3C? 3C? 3C? 3C? 3C? 3C? 3C? 3C? 3C? 3C? 3C? 3C? 3C? 3C? 3C? 3C? 3C? 3C? 3C? 3C? 3C? 3C? 3C? 3C? 3C? 3C? 3C? 3C? 3C? 3C? 3C? 3C? 3C? 3C? 3C? 3C? 3C? 3C? 3C? 3C? 3C? 3C? 3C? 3C? 3C? 3C? 3C? 3C? 3C? 3C? 3C? 3C? 3C? 3C? 3C? 3C? 3C? 3C? 3C? 3C? 3C? 3C? 3C? 3C? 3C? 3C? 3C? 3C? 3C? 3C? 3C? 3C? 3C? 3C? 3C? 3C? 3C? 3C? 3C? 3C? 3C? 3C? 3C? 3C? 3C? 3C? 3C? 3C? 3C? 3C? 3C? 3C? 3C? 3C? 3C? 3C? 3C? 3C? 3C? 3C? 3C? 3C? 3C? 3C? 3C? 3C? 3C? 3C? C? C? C? C? C?, C?, C?, C?, C?, C?, C?, C?, C?, C?, C?, C?, C?, C?, C?, C?, C?, C?, C?, C?, C?, C?, C?, C?, C?, C?, C?, C?, C?, C?, C?, C?, C?, C?, C?, C?, C?, C?, C?, C?, C?, C?, C?, C?, C?, C?, C?, C?, C?, C?, C?, C?, C?, C?, C?, C?, C?, C?, C?, C?, C?, C?, C?, C?, C?, C?, C?, C?, C?, C?, C?, C?, C?, C?, C?, C?, C?, C?, C?, C?, C?, C?, C?, C?, C?, C?, C?, C?, C?, C?, C?, C?, C?, C?, C?, C?, C?, C?, C?, C?, C?, C?, C?, C?, C?, C?, C?, C?, C?, C?, C?, C?, C?, C?, C?, C?, C?, C?, C?, C?, C?, C?, C?, C?, C?, C?, C?, C?, C?, C?, C?, C?, C?, C?, C?, C?, C?, C?, C?, C?, C?, C?, C?, C?, C?, C?, C?, C?, C?, C?, C?, C?, ?, ?, ?, ?H, ?H, ?H, ?H, ?H, ?H, ?H, ?H, ?H, ?H, ?H, ?H, ?H, ?H, ?H, ?H, ?H, ?H, ?H, ?H, ?H, ?H, ?H, ?H, ?H, ?H, ?H, ?H, ?H, ?H, ?H, ?H, ?H, ?H, ?H, ?H, ?H, ?H, ?H, ?H, ?H, ?H, ?H, ?H, ?H, ?H, ?H, ?H, ?H, ?H, ?H, ?H, ?H, ?H, ?H, ?H, ?H, ?H, ?H, ?H, ?H, ?H, ?H, ?H, ?H, ?H, ?H, ?H, ?H, ?H, ?H, ?H, ?H, ?H, ?H, ?H, ?H, ?H, ?H, ?H, ?H, ?H, ?H, ?H, ?H, ?H, ?H, ?H, ?H, ?H, ?H, ?H, ?H, ?H, ?H, ?H, ?H, ?H, ?H, ?H, ?H, ?H, ?H, ?H, ?H, ?H, ?H, ?H, ?H, ?H, ?H, ?H, ?H, ?H, ?H, ?H, ?H, ?H, ?H, ?H, ?H, ?H, ?H, ?H, ?H, ?H, ?H, ?H, ?H, ?H, ?H, ?H, ?H, ?H, ?H, ?H, ?H, ?H, ?H, ?H, ?H, ?H, ?H, ?H, ?H, ?H, ?H, ?H, ?H, H, H, H,     C.> C.> C.> C.> C.> C.> C.> C.> C.> C.> C.> C.> C.> C.> C.> C.> C.> C.> C.> C.> C.> C.> C.> C.> C.> C.> C.> C.> C.> C.> C.> C.> C.> C.> C.> C.> C.> C.> C.> C.> C.> C.> C.> C.> C.> C.> C.> C.> C.> C.> C.> C.> C.> C.> C.> C.> C.> C.> C.> C.> C.> C.> C.> C.> C.> C.> C.> C.> C.> C.> C.> C.> C.> C.> .> .> .> A.> A.> A.> A.> A.> A.> A.> A.> A.> A.> A.> A.> A.> A.> A.> A.> A.> A.> A.> A.> A.> A.> A.> A.> A.> A.> A.> A.> A.> A.> A.> A.> A.> A.> A.> A.> A.> A.> A.> A.> A.> A.> A.> A.> A.> A.> A.> A.> A.> A.> A.> A.> A.> A.> A.> A.> A.> A.> A.> A.> A.> A.> A.> A.> A.> A.> A.> A.> A.> A.> A.> A.> A.> A.> .> .> .> .> C.> C.> C.> C.> C.> C.> C.> C.> C.> C.> C.> C.> C.> C.> C.> C.> C.> C.> C.> C.> C.> C.> C.> C.> C.> C.> C.> C.> C.> C.> C.> C.> C.> C.> C.> C.> C.> C.> C.> C.> C.> C.> C.> C.> C.> C.> C.> C.> C.> C.> C.> C.> C.> C.> C.> C.> C.> C.> C.> C.> C.> C.> C.> C.> C.> C.> C.> C.> C.> C.> C.> C.> C.> C.> .> .> .> .> A.> A.> A.> A.> A.> A.> A.> A.> A.> A.> A.> A.> A.> A.> A.> A.> A.> A.> A.> A.> A.> A.> A.> A.> A.> A.> A.> A.> A.> A.> A.> A.> A.> A.> A.> A.> A.> A.> A.> A.> A.> A.> A.> A.> A.> A.> A.> A.> A.> A.> A.> A.> A.> A.> A.> A.> A.> A.> A.> A.> A.> A.> A.> A.> A.> A.> A.> A.> A.> A.> A.> A.> A.> A.> > > > > C>. C>. C>. C>. C>. C>. C>. C>. C>. C>. C>. C>. C>. C>. C>. C>. C>. C>. C>. C>. C>. C>. C>. C>. C>. C>. C>. C>. C>. C>. C>. C>. C>. C>. C>. C>. C>. C>. C>. C>. C>. C>. C>. C>. C>. C>. C>. C>. C>. C>. C>. C>. C>. C>. C>. C>. C>. C>. C>. C>. C>. C>. C>. C>. C>. C>. C>. C>. C>. C>. C>. C>. C>. C>. >. >. >. A>. A>. A>. A>. A>. A>. A>. A>. A>. A>. A>. A>. A>. A>. A>. A>. A>. A>. A>. A>. A>. A>. A>. A>. A>. A>. A>. A>. A>. A>. A>. A>. A>. A>. A>. A>. A>. A>. A>. A>. A>. A>. A>. A>. A>. A>. A>. A>. A>. A>. A>. A>. A>. A>. A>. A>. A>. A>. A>. A>. A>. A>. A>. A>. A>. A>. A>. A>. A>. A>. A>. A>. A>. A>. >. >. >. >. >?. >?. >?. >?. >?. >?. >?. >?. >?. >?. >?. >?. >?. >?. >?. >?. >?. >?. >?. >?. >?. >?. >?. >?. >?. >?. >?. >?. >?. >?. >?. >?. >?. >?. >?. >?. >?. >?. >?. >?. >?. >?. >?. >?. >?. >?. >?. >?. >?. >?. >?. >?. >?. >?. >?. >?. >?. >?. >?. >?. >?. >?. >?. >?. >?. >?. >?. >?. >?. >?. >?. >?. >?. >?. >?. >?. >?. >?. >?. >?. >?. >?. >?. >?. >?. >?. >?. >?. >?. >?. >?. >?. >?. >?. >?. >?. >?. >?. >?. >?. >?. >?. >?. >?. >?. >?. >?. >?. >?. >?. >?. >?. >?. >?. >?. >?. >?. >?. >?. >?. >?. >?. >?. >?. >?. >?. >?. >?. >?. >?. >?. >?. >?. >?. >?. >?. >?. >?. >?. >?. >?. >?. >?. >?. >?. >?. >?. >?. >?. ?. ?. ?.     ?' ?' ?' ?' ?' ?' ?' ?' ?' ?' ?' ?' ?' ?' ?' ?' ?' ?' ?' ?' ?' ?' ?' ?' ?' ?' ?' ?' ?' ?' ?' ?' ?' ?' ?' ?' ?' ?' ?' ?' ?' ?' ?' ?' ?' ?' ?' ?' ?' ?' ?' ?' ?' ?' ?' ?' ?' ?' ?' ?' ?' ?' ?' ?' ?' ?' ?' ?' ?' ?' ?' ?' ?' ?' ?' ?' ?' ?' ?' ?' ?' ?' ?' ?' ?' ?' ?' ?' ?' ?' ?' ?' ?' ?' ?' ?' ?' ?' ?' ?' ?' ?' ?' ?' ?' ?' ?' ?' ?' ?' ?' ?' ?' ?' ?' ?' ?' ?' ?' ?' ?' ?' ?' ?' ?' ?' ?' ?' ?' ?' ?' ?' ?' ?' ?' ?' ?' ?' ?' ?' ?' ?' ?' ?' ?' ?' ?' ?' ?' ?' ?' ?' ?' ?' ?' ?' ?' ?' ?' ?' ?' ?' ?' ?' ?' ?' ?' ?' ?' ?' ?' ?' ?' ?' ?' ?' ?' ?' ?' ?' ?' ?' ?' ?' ?' ?' ?' ?' ?' ?' ?' ?' ?' ?' ?' ?' ?' ?' ?' ?' ?' ?' ?' ?' ?' ?' ?' ?' ?' ?' ?' ?' ?' ?' ?' ?' ?' ?' ?' ?' ?' ?' ?' ?' ?' ?' ?' ?' ?' ?' ?' ?' ?' ?' ?' ?' ?' ?' ?' ?' ?' ?' ?' ?' ?' ?' ?' ?' ?' ?' ?' ?' ?' ?' ?' ?' ?' ?' ?' ?' ?' ?' ?' ?' ?' ?' ?' ?' ?' ?' ?' ?' ?' ?' ?' ?' ?' ?' ?' ?' ?' ?' ?' ?' ?' ?' ?' ?' ?' ?' ?' ?' ?' ?' ?' ?' ?' ?' ?' ?' ?' ?' ?' ?' ?' ?' ?' ' ' ' ' 'F 'F 'F 'F 'F 'F 'F 'F 'F 'F 'F 'F 'F 'F 'F 'F 'F 'F 'F 'F 'F 'F 'F 'F 'F 'F 'F 'F 'F 'F 'F 'F 'F 'F 'F 'F 'F 'F 'F 'F 'F 'F 'F 'F 'F 'F 'F 'F 'F 'F 'F 'F 'F 'F 'F 'F 'F 'F 'F 'F 'F 'F 'F 'F 'F 'F 'F 'F 'F 'F 'F 'F 'F 'F 'F 'F 'F 'F 'F 'F 'F 'F 'F 'F 'F 'F 'F 'F 'F 'F 'F 'F 'F 'F 'F 'F 'F 'F 'F 'F 'F 'F 'F 'F 'F 'F 'F 'F 'F 'F 'F 'F 'F 'F 'F 'F 'F 'F 'F 'F 'F 'F 'F 'F 'F 'F 'F 'F 'F 'F 'F 'F 'F 'F 'F 'F 'F 'F 'F 'F 'F 'F 'F 'F 'F 'F 'F 'F 'F 'F 'F 'F F F F DF DF DF DF DF DF DF DF DF DF DF DF DF DF DF DF DF DF DF DF DF DF DF DF DF DF DF DF DF DF DF DF DF DF DF DF DF DF DF DF DF DF DF DF DF DF DF DF DF DF DF DF DF DF DF DF DF DF DF DF DF DF DF DF DF DF DF DF DF DF DF DF DF DF DF DF DF DF DF DF DF DF DF DF DF DF DF DF DF DF DF DF DF DF DF DF DF DF DF DF DF DF DF DF DF DF DF DF DF DF DF DF DF DF DF DF DF DF DF DF DF DF DF DF DF DF DF DF DF DF DF DF DF DF DF DF DF DF DF DF DF DF DF DF DF DF DF DF DF DF DF DF     CF CF CF CF CF CF CF CF CF CF CF CF CF CF CF CF CF CF CF CF CF CF CF CF CF CF CF CF CF CF CF CF CF CF CF CF CF CF CF CF CF CF CF CF CF CF CF CF CF CF CF CF CF CF CF CF CF CF CF CF CF CF CF CF CF CF CF CF CF CF CF CF CF CF CF CF CF CF CF CF CF CF CF CF CF CF CF CF CF CF CF CF CF CF CF CF CF CF CF CF CF CF CF CF CF CF CF CF CF CF CF CF CF CF CF CF CF CF CF CF CF CF CF CF CF CF CF CF CF CF CF CF CF CF CF CF CF CF CF CF CF CF CF CF CF CF CF CF CF CF CF CF F F F AF AF AF AF AF AF AF AF AF AF AF AF AF AF AF AF AF AF AF AF AF AF AF AF AF AF AF AF AF AF AF AF AF AF AF AF AF AF AF AF AF AF AF AF AF AF AF AF AF AF AF AF AF AF AF AF AF AF AF AF AF AF AF AF AF AF AF AF AF AF AF AF AF AF AF AF AF AF AF AF AF AF AF AF AF AF AF AF AF AF AF AF AF AF AF AF AF AF AF AF AF AF AF AF AF AF AF AF AF AF AF AF AF AF AF AF AF AF AF AF AF AF AF AF AF AF AF AF AF AF AF AF AF AF AF AF AF AF AF AF AF AF AF AF AF AF AF AF AF AF AF AF     H@ H@ H@ H@ H@ H@ H@ H@ H@ H@ H@ H@ H@ H@ H@ H@ H@ H@ H@ H@ H@ H@ H@ H@ H@ H@ H@ H@ H@ H@ H@ H@ H@ H@ H@ H@ H@ H@ H@ H@ H@ H@ H@ H@ H@ H@ H@ H@ H@ H@ H@ H@ H@ H@ H@ H@ H@ H@ H@ H@ H@ H@ H@ H@ H@ H@ H@ H@ H@ H@ H@ H@ H@ H@ H@ H@ H@ H@ H@ H@ H@ H@ H@ H@ H@ H@ H@ H@ H@ H@ H@ H@ H@ H@ H@ H@ H@ H@ H@ H@ H@ H@ H@ H@ H@ H@ H@ H@ H@ H@ H@ H@ H@ H@ H@ H@ H@ H@ H@ H@ H@ H@ H@ H@ H@ H@ H@ H@ H@ H@ H@ H@ H@ H@F H@F H@F H@F H@F H@F H@F @F @F @F @F @F @F @F @F @F @F @F @F F F F FA FA FA FA FA FA FA FA FA FA FA FA FA FA FA FA FA FA FA FA FA FA FA FA FA FA FA FA FA FA FA FA FA FA FA FA FA FA FA FA FA FA FA FEA FEA FEA FEA FEA FEA FEA FEA FEA EA EA EA EA EA EA EA EA EA EA EA EA EA EA EA EA EA EA EA EA EA EA EA EA EA EA EA EA EA EA EA EA EA EA EA EA EA EA EA EA EA EA EA EA EA EA EA EA EA EA EA EA EA EA EA EA EA EAF EAF EAF EAF EAF EAF EAF EAF AF AF AF AF AF AF AF AF AF AF AF AF AF AF AF AF AF AF AF AF AF AF AF AF AF AF AF AF AF AF AF AF AF AF AF F F F F FC FC FC FC FC FC FC FC FC FC FC FC FC FC FC FC FC FC FC FHC FHC FHC FHC FHC FHC FHC FHC HC HC HC HC HC HC HC HC HC HC HC HC HC HC HC HC HC HC HC HC HC HC HC HC HC HC HC HC HC HC HC HC HC HC HC HC HC HC HC HC HC HC HC HC HC HC HC HC HC HC HC HC HC HC HC HC HC HC HCF HCF HCF HCF HCF HCF HCF HCF CF CF CF CF CF CF CF CF CF CF CF CF CF CF CF CF CF CF CF CF CF CF CF CF CF CF CF CF CF CF CF CF CF CF CF CF CF CF CF CF CF CF CF CF CF CF CF CF CF CF CF CF CF CF CF CF CF CF CFH FH FH FH FH@ FH@ FH@ FH@ H@ H@ H@ H@ H@ H@ H@ H@ H@ H@ H@ H@ H@ H@ H@ H@ H@ H@ H@ H@ H@ H@ H@ H@ H@ H@ H@ H@ H@ H@ H@ H@ H@ H@ H@ H@ H@ H@ H@ H@ H@ H@ H@ H@ H@ H@ H@ H@ H@ H@ H@ H@ H@ H@ H@ H@ H@ H@ HF@ HF@ HF@ HF@ HF@ HF@ HF@ HF@ F@ F@ F@ F@ F@ F@ F@ F@ F@ F@ F@ F@ F@ F@ F@ F@ F@ F@ F@ F@ F@ F@ F@ F@ F@ F@ F@ F@ F@ F@ F@ F@ F@ F@ F@ F@ F@ F@ F@ F@ F@ F@ F@ F@ F@ F@ F@ F@ F@ F@ F@ F@ F@ F@ F@ F@ F@ F@ F@H F@H F@H F@H F@H F@H F@H F@H @H @H @H @H @H @H @H @H @H @H @H @H @H @H @H @H H H H H H= H= H= H= H= H= H= H= H= H= H= H= H= H= H= H= H= H= H= H= H= H= H= H= H= H= H= H= H= H= H= H= H= H= H= H= H= H= HF= HF= HF= HF= HF= HF= HF= HF= F= F= F= F= F= F= F= F= F= F= F= F= F= F= F= F= F= F= F= F= F= F= F= F= F= F= F= F= F= F= F= F= F= F= F= F= F= F= F= F= F= F= F= F= F= F= F= F= F= F= F= F= F= F= F= F= F= F=H F=H F=H F=H F=H F=H F=H F=H F=H =H =H =H =H =H =H =H =H =H =H =H =H =H =H =H =H =H =H =H =H =H =H =H =H =H =H =H =H =H =H =H =H =H =H =H =H =H =H =H =H H H H H@ H@ H@ H@ H@ H@ H@ H@ H@ H@ H@ H@ H@ H@ HF@ HF@ HF@ HF@ HF@ HF@ HF@ HF@ F@ F@ F@ F@ F@ F@ F@ F@ F@ F@ F@ F@ F@ F@ F@ F@ F@ F@ F@ F@ F@ F@ F@ F@ F@ F@ F@ F@ F@ F@ F@ F@ F@ F@ F@ F@ F@ F@ F@ F@ F@ F@ F@ F@ F@ F@ F@ F@ F@ F@ F@ F@ F@ F@ F@ F@ F@ F@ F@H F@H F@H F@H F@H F@H F@H F@H @H @H @H @H @H @H @H @H @H @H @H @H @H @H @H @H @H @H @H @H @H @H @H @H @H @H @H @H @H @H @H @H @H @H @H @H @H @H @H @H @H @H @H @H @H @H @H @H @H @H @H @H @H @H @H @H @H @H @H @HF @HF @HF @HF @HF HF HF F F F: F: F: F: F: F: F: F: F: F: F: F: F: F: F: F: F: F: F: F: F: F: F: F: F: F: F: F: F: F: F: F: F: F: F: F: F: F: F: F: F: F: F: F: F: F: F: F: F: F: F: F: F: F: F: F: FH: FH: FH: FH: FH: FH: FH: FH: FH: H: H: H: H: H: H: H: H: H: H: H: H: H: H: H: H: H: H: H: H: H: H: H: H: H: H: H: H: H: H: H: H: H: H: H: H: H: H: H: H: H: H: H: H: H: H: H: H: H: H: H: H: H: H: H: H: H: H:F H:F H:F H:F H:F H:F H:F H:F :F :F :F :F :F :F :F :F :F :F :F :F :F :F :F :F :F :F :F :F :F :F F F F F< F< F< F< F< F< F< F< F< F< F< F< F< F< F< F< F< F< F< F< F< F< F< F< F< F< F< F< F< F< F< F< F< FH< FH< FH< FH< FH< FH< FH< FH< H< H< H< H< H< H< H< H< H< H< H< H< H< H< H< H< H< H< H< H< H< H< H< H< H< H< H< H< H< H< H< H< H< H< H< H< H< H< H< H< H< H< H< H< H< H< H< H< H< H< H< H< H< H< H< H< H< H< H<F H<F H<F H<F H<F H<F H<F H<F <F <F <F <F <F <F <F <F <F <F <F <F <F <F <F <F <F <F <F <F <F <F <F <F <F <F <F <F <F <F <F <F <F <F <F <F <F <F <F <F <F <F <F <F <F F F F F F= F= F= F= F= F= F= F= F= FH= FH= FH= FH= FH= FH= FH= FH= H= H= H= H= H= H= H= H= H= H= H= H= H= H= H= H= H= H= H= H= H= H= H= H= H= H= H= H= H= H= H= H= H= H= H= H= H= H= H= H= H= H= H= H= H= H= H= H= H= H= H= H= H= H= H= H= H= HF= HF= HF= HF= HF= HF= HF= HF= HF= F= F= F= F= F= F= F= F= F= F= F= F= F= F= F= F= F= F= F= F= F= F= F= F= F= F= F= F= F= F= F= F= F= F= F= F= F= F= F= F= F= F= F= F= F= F= F= F= F= F= F= F= F= F= F= F= F= F= F=H F=H F=H F=H F=H F=H F=H =H =H =H =H H H H H H: H: H: H: H: H: H: H: H: H: H: H: H: H: H: H: H: H: H: H: H: H: H: H: H: H: H: H: H: H: H: H: H: H: H: H: H: H: H: H: H: H: H: H: H: H: H: H: H: H: H: HF: HF: HF: HF: HF: HF: HF: HF: F: F: F: F: F: F: F: F: F: F: F: F: F: F: F: F: F: F: F: F: F: F: F: F: F: F: F: F: F: F: F: F: F: F: F: F: F: F: F: F: F: F: F: F: F: F: F: F: F: F: F: F: F: F: F: F: F: F: F:H F:H F:H F:H F:H F:H F:H F:H :H :H :H :H :H :H :H :H :H :H :H :H :H :H :H :H :H :H :H :H :H :H :H :H :H :H :H H H H H7 H7 H7 H7 H7 H7 H7 H7 H7 H7 H7 H7 H7 H7 H7 H7 H7 H7 H7 H7 H7 H7 H7 H7 H7 H7 H7 H7 HF7 HF7 HF7 HF7 HF7 HF7 HF7 HF7 F7 F7 F7 F7 F7 F7 F7 F7 F7 F7 F7 F7 F7 F7 F7 F7 F7 F7 F7 F7 F7 F7 F7 F7 F7 F7 F7 F7 F7 F7 F7 F7 F7 F7 F7 F7 F7 F7 F7 F7 F7 F7 F7 F7 F7 F7 F7 F7 F7 F7 F7 F7 F7 F7 F7 F7 F7 F7 F7H F7H F7H F7H F7H F7H F7H F7H 7H 7H 7H 7H 7H 7H 7H 7H 7H 7H 7H 7H 7H 7H 7H 7H 7H 7H 7H 7H 7H 7H 7H 7H 7H 7H 7H 7H 7H 7H 7H 7H 7H 7H 7H 7H 7H 7H 7H 7H 7H 7H 7H 7H 7H 7H 7H 7H 7H 7H H H H H H: H: H: H: H:F H:F H:F H:F H:F H:F H:F H:F :F :F :F :F :F :F :F :F :F :F :F :F :F :F :F :F :F :F :F :F :F :F :F :F :F :F :F :F :F :F :F :F :F :F :F :F :F :F :F :F :F :F :F :F :F :F :F :F :F :F :F :F :F :F :F :F :F :F :F :F :F :F :F :F :F :F :F :F :F :F :F :F :F :F :F :F :F :F :F :F :F :F :F :F :F :F :F :F :F :F :F :F :F :F :F :F :F :F :F :F :F :F :F :F :F :F :F :F :F :F :F :F :F :F :F :F :F :F :F :F :F :F :F :F :F :F :F :F :F :F :F :F :F :F :F :F :F :F :F :F F F F 4F 4F 4F 4F 4F 4F 4F 4F 4F 4F 4F 4F 4F 4F 4F 4F 4F 4F 4F 4F 4F 4F 4F 4F 4F 4F 4F 4F 4F 4F 4F 4F 4F 4F 4F 4F 4F 4F 4F 4F 4F 4F 4F 4F 4F 4F 4F 4F 4F 4F 4F 4F 4F 4F 4F 4F 4F 4F 4F 4F 4F 4F 4F 4F 4F 4F 4F 4F 4F 4F 4F 4F 4F 4F 4F 4F 4F 4F 4F 4F 4F 4F 4F 4F 4F 4F 4F 4F 4F 4F 4F 4F 4F 4F 4F 4F 4F 4F 4F 4F 4F 4F 4F 4F 4F 4F 4F 4F 4F 4F 4F 4F 4F 4F 4F 4F 4F 4F 4F 4F 4F 4F 4F 4F 4F 4F 4F 4F 4F 4F 4F 4F 4F 4F 4F 4F 4F 4F 4F 4F 4F 4F 4F 4F 4F 4F 4F 4F 4F 4F 4F 4F F F F F F5D F5D F5D F5D F5D 5D 5D 5D 5D 5D 5D 5D 5D 5D 5D 5D 5D 5D 5D 5D 5D 5D 5D 5D 5D 5D 5D 5D 5D 5D 5D 5D 5D 5D 5D 5D 5D 5D 5D 5D 5D 5D 5D 5D 5D 5D 5D 5D 5D 5D 5D 5D 5D 5D 5D 5D 5D 5D 5D 5D 5D 5D 5D 5D 5D 5D 5D 5D 5D 5D 5D 5D 5D 5D 5D 5D 5D 5D 5D 5D 5D 5D 5D 5D 5D 5D 5D 5D 5D 5D 5D 5D 5D 5D 5D 5D 5D 5D 5D 5D 5D 5D 5D 5D 5D 5D 5D 5D 5D 5D 5D 5D 5D 5D 5D 5D 5D 5D 5D 5D 5D 5D 5D 5D 5D 5D 5D 5D 5D 5D 5D 5D 5D 5D 5D 5D 5D 5D 5D 5D 5D 5D 5D 5D 5D 5D 5D 5D 5D 5D 5D 5D    7F 7F 7F 7F 7F 7F 7F 7F 7F 7F 7F 7F 7F 7F 7F 7F 7F 7F 7F 7F 7F 7F 7F 7F 7F 7F 7F 7F 7F 7F 7F 7F 7F 7F 7F 7F 7F 7F 7F 7F 7F 7F 7F 7F 7F 7F 7F 7F 7F 7F 7F 7F 7F 7F 7F 7F 7F 7F 7F 7F 7F 7F 7F 7F 7F 7F 7F 7F 7F 7F 7F 7F 7F 7F 7F 7F 7F 7F 7F 7F 7F 7F 7F 7F 7F 7F 7F 7F 7F 7F 7F 7F 7F 7F 7F 7F 7F 7F 7F 7F 7F 7F 7F 7F 7F 7F 7F 7F 7F 7F 7F 7F 7F 7F 7F 7F 7F 7F 7F 7F 7F 7F 7F 7F 7F 7F 7F 7F 7F 7F 7F 7F 7F 7F 7F 7F 7F 7F 7F 7F 7F 7F 7F 7F 7F 7F 7F 7F 7F 7F 7F 7F     4I 4I 4I 4I 4I 4I 4I 4I 4I 4I 4I 4I 4I 4I 4I 4I 4I 4I 4I 4I 4I 4I 4I 4I 4I 4I 4I 4I 4I 4I 4I 4I 4I 4I 4I 4I 4I 4I 4I 4I 4I 4I 4I 4I 4I 4I 4I 4I 4I 4I 4I 4I 4I 4I 4I 4I 4I 4I 4I 4I 4I 4I 4I 4I 4I 4I 4I 4I 4I 4I 4I 4I 4I 4I 4I 4I 4I 4I 4I 4I 4I 4I 4I 4I 4I 4I 4I 4I 4I 4I 4I 4I 4I 4I 4I 4I 4I 4I 4I 4I 4I 4I 4I 4I 4I 4I 4I 4I 4I 4I 4I 4I 4I 4I 4I 4I 4I 4I 4I 4I 4I 4I 4I 4I 4I 4I 4I 4I 4I 4I 4I 4I 4I 4I 4I 4I 4I 4I 4I 4I 4I 4I 4I 4I 4I 4I 4I 4I 4I 4I 4I 4I    0H 0H 0H 0H 0H 0H 0H 0H 0H 0H 0H 0H 0H 0H 0H 0H 0H 0H 0H 0H 0H 0H 0H 0H 0H 0H 0H 0H 0H 0H 0H 0H 0H 0H 0H 0H 0H 0H 0H 0H 0H 0H 0H 0H 0H 0H 0H 0H 0H 0H 0H 0H 0H 0H 0H 0H 0H 0H 0H 0H 0H 0H 0H 0H 0H 0H 0H 0H 0H 0H 0H 0H 0H 0H 0H 0H 0H 0H 0H 0H 0H 0H 0H 0H 0H 0H 0H 0H 0H 0H 0H 0H 0H 0H 0H 0H 0H 0H 0H 0H 0H 0H 0H 0H 0H 0H 0H 0H 0H 0H 0H 0H 0H 0H 0H 0H 0H 0H 0H 0H 0H 0H 0H 0H 0H 0H 0H 0H 0H 0H 0H 0H 0H 0H 0H 0H 0H 0H 0H 0H 0H 0H 0H 0H 0H 0H 0H 0H 0H 0H 0H 0H     4F 4F 4F 4F 4F 4F 4F 4F 4F 4F 4F 4F 4F 4F 4F 4F 4F 4F 4F 4F 4F 4F 4F 4F 4F 4F 4F 4F 4F 4F 4F 4F 4F 4F 4F 4F 4F 4F 4F 4F 4F 4F 4F 4F 4F 4F 4F 4F 4F 4F 4F 4F 4F 4F 4F 4F 4F 4F 4F 4F 4F 4F 4F 4F 4F 4F 4F 4F 4F 4F 4F 4F 4F 4F 4F 4F 4F 4F 4F 4F 4F 4F 4F 4F 4F 4F 4F 4F 4F 4F 4F 4F 4F 4F 4F 4F 4F 4F 4F 4F 4F 4F 4F 4F 4F 4F 4F 4F 4F 4F 4F 4F 4F 4F 4F 4F 4F 4F 4F 4F 4F 4F 4F 4F 4F 4F 4F 4F 4F 4F 4F 4F 4F 4F 4F 4F 4F 4F 4F 4F 4F 4F 4F 4F 4F 4F 4F 4F 4F 4F 4F 4F    D) D) D) D) D) D) D) D) D) D) D) D) D) D) D) D) D) D) D) D) D) D) D) D) D) D) D) D) D) D) D) D) D) D) D) D) D) D) D) D) D) D) D) D) D) D) D) D) D) D) D) D) D) D) D) D) D) D) D) D) D) D) D) D) D) D) D) D) D) D) D) D) D) D) D) D) D) D) D) D) D) D) D) D) D) D) D) D) D) D) D) D) D) D) D) D) D) D) D) D) D) D) D) D) D) D) D) D) D) D) D) D) D) D) D) D) D) D) D) D) D) D) D) D) D) D) D) D) D) D) D) D) D) D) D) D) D) D) D) D) D) D) D) D) D) D) D) D) D) D) D) D) ) ) ) ) F) F) F) F) F) F) F) F) F) F) F) F) F) F) F) F) F) F) F) F) F) F) F) F) F) F) F) F) F) F) F) F) F) F) F) F) F) F) F) F) F) F) F) F) F) F) F) F) F) F) F) F) F) F) F) F) F) F) F) F) F) F) F) F) F) F) F) F) F) F) F) F) F) F) F) F) F) F) F) F) F) F) F) F) F) F) F) F) F) F) F) F) F) F) F) F) F) F) F) F) F) F) F) F) F) F) F) F) F) F) F) F) F) F) F) F) F) F) F) F) F) F) F) F) F) F) F) F) F) F) F) F) F) F) F) F) F) F) F) F) F) F) F) F) F) F) F) F) F) F) F) F) ) ) ) )D )D )D )D )D )D )D )D )D )D )D )D )D )D )D )D )D )D )D )D )D )D )D )D )D )D )D )D )D )D )D )D )D )D )D )D )D )D )D )D )D )D )D )D )D )D )D )D )D )D )D )D )D )D )D )D )D )D )D )D )D )D )D )D )D )D )D )D )D )D )D )D )D )D )D )D )D )D )D )D )D )D )D )D )D )D )D )D )D )D )D )D )D )D )D )D )D )D )D )D )D )D )D )D )D )D )D )D )D )D )D )D )D )D )D )D )D )D )D )D )D )D )D )D )D )D )D )D )D )D )D )D )D )D )D )D )D )D )D )D )D )D )D )D )D )D )D )D )D )D )D )D D D D D DC DC DC DC DC DC DC DC DC DC DC DC DC DC DC DC DC DC DC DC DC DC DC DC DC DC DC DC DC DC DC DC DC DC DC DC DC DC DC DC DC DC DC DC DC DC DC DC DC DC DC DC DC DC DC DC DC DC DC DC DC DC DC DC DC DC DC DC DC DC DC DC DC DC DC DC DC DC DC DC DC DC DC DC DC DC DC DC DC DC DC DC DC DC DC DC DC DC DC DC DC DC DC DC DC DC DC DC DC DC DC DC DC DC DC DC DC DC DC DC DC DC DC DC DC DC DC DC DC DC DC DC DC DC DC DC DC DC DC DC DC DC DC DC DC DC DC DC DC DC DC C    AD AD AD AD AD AD AD AD AD AD AD AD AD AD AD AD AD AD AD AD AD AD AD AD AD AD AD AD AD AD AD AD AD AD AD AD AD AD AD AD AD AD AD AD AD AD AD AD AD AD AD AD AD AD AD AD AD AD AD AD AD AD AD AD AD AD AD AD AD AD AD AD AD AD AD AD AD AD AD AD AD AD AD AD AD AD AD AD AD AD AD AD AD AD AD AD AD AD AD AD AD AD AD AD AD AD AD AD AD AD AD AD AD AD AD AD AD AD AD AD AD AD AD AD AD AD AD AD AD AD AD AD AD AD AD AD AD AD AD AD AD AD AD AD AD AD AD AD AD AD AD AD D D D D D? D? D? D? D? D? D? D? D? D? D? D? D? D? D? D? D? D? D? D? D? D? D? D? D? D? D? D? D? D? D? D? D? D? D? D? D? D? D? D? D? D? D? D? D? D? D? D? D? D? D? D? D? D? D? D? D? D? D? D? D? D? D? D? D? D? D? D? D? D? D? D? D? D? D? D? D? D? D? D? D? D? D? D? D? D? D? D? D? D? D? D? D? D? D? D? D? D? D? D? D? D? D? D? D? D? D? D? D? D? D? D? D? D? D? D? D? D? D? D? D? D? D? D? D? D? D? D? D? D? D? D? D? D? D? D? D? D? D? D? D? D? D? D? D? D? D? D? D? D? D? ?    >F >F >F >F >F >F >F >F >F >F >F >F >F >F >F >F >F >F >F >F >F >F >F >F >F >F >F >F >F >F >F >F >F >F >F >F >F >F >F >F >F >F >F >F >F >F >F >F >F >F >F >F >F >F >F >F >F >F >F >F >F >F >F >F >F >F >F >F >F >F >F >F >F >F >F >F >F >F >F >F >F >F >F >F >F >F >F >F >F >F >F >F >F >F >F >F >F >F >F >F >F >F >F >F >F >F >F >F >F >F >F >F >F >F >F >F >F >F >F >F >F >F >F >F >F >F >F >F >F >F >F >F >F >F >F >F >F >F >F >F >F >F >F >F >F >F >F >F >F >F >F >F F F F F F? F? F? F? F? F? F? F? F? F? F? F? F? F? F? F? F? F? F? F? F? F? F? F? F? F? F? F? F? F? F? F? F? F? F? F? F? F? F? F? F? F? F? F? ? ? ? D? D? D? D? D? D? D? D? D? D? D? D? D? D? D? D? D? D? D? D? D? D? D? D? D? D? D? D? D? D? D? D? D? D? D? D? D? D? D? D? D? D? D? D? D? D? D? D? D? D? D? D? D? D? D? D? D? D? D? D? D? D? D? D? D? D? D?C D?C D?C D?C D?C D?C D?C D?C ?C ?C ?C ?C ?C ?C ?C ?C ?C ?C ?C ?C ?C ?C ?C ?C ?C ?C ?C ?C ?C ?C ?C ?C ?C ?C ?C ?C ?C ?C ?C C C C CA CA CA CA CA CA CA CA CA CA CA CA CA CA CA CA CA CA CA CA CA CA CA CDA CDA CDA CDA CDA CDA CDA CDA CDA DA DA DA DA DA DA DA DA DA DA DA DA DA DA DA DA DA DA DA DA DA DA DA DA DA DA DA DA DA DA DA DA DA DA DA DA DA DA DA DA DA DA DA DA DA DA DA DA DA DA DA DA DA DA DA DAF DAF DAF DAF DAF DAF DAF DAF DAF DAF AF AF AF AF AF AF AF AF AF AF AF AF AF AF AF AF AF AF AF AF AF AF AF AF AF AF AF AF AF AF AF AF AF AF AF AF AF AF AF AF AF AF AF AF AF AF AF AF AF AF AF AF AF AF AF F FD FD FD FD> FD> FD> FD> FD> D> D> D> D> D> D> D> D> D> D> D> D> D> D> D> D> D> D> D> D> D> D> D> D> D> D> D> D> D> D> D> D> D> D> D> D> D> D> D> D> D> D> D> D> D> D> D> D> D> D> D> D> D> D> D> D> D> DF> DF> DF> DF> DF> DF> DF> DF> DF> F> F> F> F> F> F> F> F> F> F> F> F> F> F> F> F> F> F> F> F> F> F> F> F> F> F> F> F> F> F> F> F> F> F> F> F> F> F> F> F> F> F> F> F> F> F> F> F> F> F> F> F> F> F> F> F> F> F>D F>D F>D F>D F>D F>D F>D F>D >D >D >D >D >D >D >D >D >D >D >D >D >D >D >D >D D D D D: D: D: D: D: D: D: D: D: D: D: D: D: D: D: D: D: D: D: D: D: D: D: D: D: D: D: D: D: D: D: D: D: D: D: D: D: D: DF: DF: DF: DF: DF: DF: DF: DF: DF: F: F: F: F: F: F: F: F: F: F: F: F: F: F: F: F: F: F: F: F: F: F: F: F: F: F: F: F: F: F: F: F: F: F: F: F: F: F: F: F: F: F: F: F: F: F: F: F: F: F: F: F: F: F: F: F: F:D F:D F:D F:D F:D F:D F:D F:D F:D :D :D :D :D :D :D :D :D :D :D :D :D :D :D :D :D :D :D :D :D :D :D :D :D :D :D :D :D :D :D :D :D :D :D :D :D :D :D :D :D D D D D D> D> D> D> D> D> D> D> D> D> D> D> DF> DF> DF> DF> DF> DF> DF> DF> DF> F> F> F> F> F> F> F> F> F> F> F> F> F> F> F> F> F> F> F> F> F> F> F> F> F> F> F> F> F> F> F> F> F> F> F> F> F> F> F> F> F> F> F> F> F> F> F> F> F> F> F> F> F> F> F> F> F> FD> FD> FD> FD> FD> FD> FD> FD> D> D> D> D> D> D> D> D> D> D> D> D> D> D> D> D> D> D> D> D> D> D> D> D> D> D> D> D> D> D> D> D> D> D> D> D> D> D> D> D> D> D> D> D> D> D> D> D> D> D> D> D> D> D> D> D> D>F D>F D>F D>F D>F D>F D>F D>F D>F D>F F F F F8 F8 F8 F8 F8 F8 F8 F8 F8 F8 F8 F8 F8 F8 F8 F8 F8 F8 F8 F8 F8 F8 F8 F8 F8 F8 F8 F8 F8 F8 F8 F8 F8 F8 F8 F8 F8 F8 F8 F8 F8 F8 F8 F8 F8 F8 F8 F8 F8 F8 F8 F8 F8 FD8 FD8 FD8 FD8 FD8 FD8 FD8 FD8 D8 D8 D8 D8 D8 D8 D8 D8 D8 D8 D8 D8 D8 D8 D8 D8 D8 D8 D8 D8 D8 D8 D8 D8 D8 D8 D8 D8 D8 D8 D8 D8 D8 D8 D8 D8 D8 D8 D8 D8 D8 D8 D8 D8 D8 D8 D8 D8 D8 D8 D8 D8 D8 D8 D8 D8 D8 D8 D8F D8F D8F D8F D8F D8F D8F D8F 8F 8F 8F 8F 8F 8F 8F 8F 8F 8F 8F 8F 8F 8F 8F 8F 8F 8F 8F 8F 8F 8F 8F 8F 8F F F F F F: F: F: F: F: F: F: F: F: F: F: F: F: F: F: F: F: F: F: F: F: F: F: F: F: F: F: F: FD: FD: FD: FD: FD: FD: FD: FD: FD: D: D: D: D: D: D: D: D: D: D: D: D: D: D: D: D: D: D: D: D: D: D: D: D: D: D: D: D: D: D: D: D: D: D: D: D: D: D: D: D: D: D: D: D: D: D: D: D: D: D: D: D: D: D: D: D:F D:F D:F D:F D:F D:F D:F D:F D:F D:F :F :F :F :F :F :F :F :F :F :F :F :F :F :F :F :F :F :F :F :F :F :F :F :F :F :F :F :F :F :F :F :F :F :F :F :F :F :F :F :F :F :F :F :F :F :F :F :F :F :F F F F F< F< F< FD< FD< FD< FD< FD< FD< FD< FD< D< D< D< D< D< D< D< D< D< D< D< D< D< D< D< D< D< D< D< D< D< D< D< D< D< D< D< D< D< D< D< D< D< D< D< D< D< D< D< D< D< D< D< D< D< D< D< D< D< D< D< D< D< D< D< D< D< DF< DF< DF< DF< DF< DF< DF< DF< DF< F< F< F< F< F< F< F< F< F< F< F< F< F< F< F< F< F< F< F< F< F< F< F< F< F< F< F< F< F< F< F< F< F< F< F< F< F< F< F< F< F< F< F< F< F< F< F< F< F< F< F< F< F< F< F< F< F< F<D F<D F<D F<D F<D F<D F<D F<D <D <D <D <D <D <D <D <D <D <D D D D D D8 D8 D8 D8 D8 D8 D8 D8 D8 D8 D8 D8 D8 D8 D8 D8 D8 D8 D8 D8 D8 D8 D8 D8 D8 D8 D8 D8 D8 D8 D8 D8 D8 D8 D8 D8 D8 D8 D8 D8 D8 D8 D8 DF8 DF8 DF8 DF8 DF8 DF8 DF8 DF8 DF8 F8 F8 F8 F8 F8 F8 F8 F8 F8 F8 F8 F8 F8 F8 F8 F8 F8 F8 F8 F8 F8 F8 F8 F8 F8 F8 F8 F8 F8 F8 F8 F8 F8 F8 F8 F8 F8 F8 F8 F8 F8 F8 F8 F8 F8 F8 F8 F8 F8 F8 F8 F8 F8 F8 F8 F8 F8D F8D F8D F8D F8D F8D F8D F8D F8D 8D 8D 8D 8D 8D 8D 8D 8D 8D 8D 8D 8D 8D 8D 8D 8D 8D 8D 8D 8D 8D 8D 8D 8D 8D 8D 8D 8D 8D 8D 8D 8D 8D 8D 8D D D D D D5 D5 D5 D5 D5 D5 D5 D5 D5 D5 D5 D5 D5 D5 D5 D5 D5 D5 DF5 DF5 DF5 DF5 DF5 DF5 DF5 DF5 F5 F5 F5 F5 F5 F5 F5 F5 F5 F5 F5 F5 F5 F5 F5 F5 F5 F5 F5 F5 F5 F5 F5 F5 F5 F5 F5 F5 F5 F5 F5 F5 F5 F5 F5 F5 F5 F5 F5 F5 F5 F5 F5 F5 F5 F5 F5 F5 F5 F5 F5 F5 F5 F5 F5 F5 F5 F5 F5 F5D F5D F5D F5D F5D F5D F5D 5D 5D 5D 5D 5D 5D 5D 5D 5D 5D 5D 5D 5D 5D 5D 5D 5D 5D 5D 5D 5D 5D 5D 5D 5D 5D 5D 5D 5D 5D 5D 5D 5D 5D 5D 5D 5D 5D 5D 5D 5D 5D 5D 5D 5D 5D 5D 5D 5D 5D 5D 5D 5D 5D 5D 5D 5D 5D 5D 5D D D D 8D 8D 8D 8D 8D 8D 8D 8D 8D 8D 8D 8D 8D 8D 8D 8D 8D 8D 8D 8D 8D 8D 8D 8D 8D 8D 8D 8D 8D 8D 8D 8D 8D 8D 8D 8D 8D 8D 8D 8D 8D 8D 8D 8D 8D 8D 8D 8D 8D 8D 8D 8D 8D 8D 8D 8D 8D 8D 8D 8D 8D 8D 8D 8D 8D 8D 8D 8D 8D 8D 8D 8D 8D 8D 8D 8D 8D 8D 8D 8D 8D 8D 8D 8D 8D 8D 8D 8D 8D 8D 8D 8D 8D 8D 8D 8D 8D 8D 8D 8D 8D 8D 8D 8D 8D 8D 8D 8D 8D 8D 8D 8D 8D 8D 8D 8D 8D 8D 8D 8D 8D 8D 8D 8D 8D 8D 8D 8D 8D 8D 8D 8D 8D 8D 8D 8D 8D 8D 8D 8D 8D 8D 8D 8D 8D 8D 8D 8D 8D 8D 8D 8D D D D D D2 D2 D2 D2 D2 D2 D2 D2 D2 D2 D2 D2 D2 D2 D2 D2 D2 D2 D2 D2 D2 D2 D2 D2 D2 D2 D2 D2 D2 D2 D2 D2 D2 D2 D2 D2 D2 D2 D2 D2 D2 D2 D2 D2 D2 D2 D2 D2 D2 D2 D2 D2 D2 D2 D2 D2 D2 D2 D2 D2 D2 D2 D2 D2 D2 D2 D2 D2 D2 D2 D2 D2 D2 D2 D2 D2 D2 D2 D2 D2 D2 D2 D2 D2 D2 D2 D2 D2 D2 D2 D2 D2 D2 D2 D2 D2 D2 D2 D2 D2 D2 D2 D2 D2 D2 D2 D2 D2 D2 D2 D2 D2 D2 D2 D2 D2 D2 D2 D2 D2 D2 D2 D2 D2 D2 D2 D2 D2 D2 D2 D2 D2 D2 D2 D2 D2 D2 D2 D2 D2 D2 D2 D2 D2 D2 D2 D2 D2 D2 D2 2 2    3C 3C 3C 3C 3C 3C 3C 3C 3C 3C 3C 3C 3C 3C 3C 3C 3C 3C 3C 3C 3C 3C 3C 3C 3C 3C 3C 3C 3C 3C 3C 3C 3C 3C 3C 3C 3C 3C 3C 3C 3C 3C 3C 3C 3C 3C 3C 3C 3C 3C 3C 3C 3C 3C 3C 3C 3C 3C 3C 3C 3C 3C 3C 3C 3C 3C 3C 3C 3C 3C 3C 3C 3C 3C 3C 3C 3C 3C 3C 3C 3C 3C 3C 3C 3C 3C 3C 3C 3C 3C 3C 3C 3C 3C 3C 3C 3C 3C 3C 3C 3C 3C 3C 3C 3C 3C 3C 3C 3C 3C 3C 3C 3C 3C 3C 3C 3C 3C 3C 3C 3C 3C 3C 3C 3C 3C 3C 3C 3C 3C 3C 3C 3C 3C 3C 3C 3C 3C 3C 3C 3C 3C 3C 3C 3C 3C 3C 3C 3C 3C 3C 3C     5D 5D 5D 5D 5D 5D 5D 5D 5D 5D 5D 5D 5D 5D 5D 5D 5D 5D 5D 5D 5D 5D 5D 5D 5D 5D 5D 5D 5D 5D 5D 5D 5D 5D 5D 5D 5D 5D 5D 5D 5D 5D 5D 5D 5D 5D 5D 5D 5D 5D 5D 5D 5D 5D 5D 5D 5D 5D 5D 5D 5D 5D 5D 5D 5D 5D 5D 5D 5D 5D 5D 5D 5D 5D 5D 5D 5D 5D 5D 5D 5D 5D 5D 5D 5D 5D 5D 5D 5D 5D 5D 5D 5D 5D 5D 5D 5D 5D 5D 5D 5D 5D 5D 5D 5D 5D 5D 5D 5D 5D 5D 5D 5D 5D 5D 5D 5D 5D 5D 5D 5D 5D 5D 5D 5D 5D 5D 5D 5D 5D 5D 5D 5D 5D 5D 5D 5D 5D 5D 5D 5D 5D 5D 5D 5D 5D 5D 5D 5D 5D 5D 5D    2H 2H 2H 2H 2H 2H 2H 2H 2H 2H 2H 2H 2H 2H 2H 2H 2H 2H 2H 2H 2H 2H 2H 2H 2H 2H 2H 2H 2H 2H 2H 2H 2H 2H 2H 2H 2H 2H 2H 2H 2H 2H 2H 2H 2H 2H 2H 2H 2H 2H 2H 2H 2H 2H 2H 2H 2H 2H 2H 2H 2H 2H 2H 2H 2H 2H 2H 2H 2H 2H 2H 2H 2H 2H 2H 2H 2H 2H 2H 2H 2H 2H 2H 2H 2H 2H 2H 2H 2H 2H 2H 2H 2H 2H 2H 2H 2H 2H 2H 2H 2H 2H 2H 2H 2H 2H 2H 2H 2H 2H 2H 2H 2H 2H 2H 2H 2H 2H 2H 2H 2H 2H 2H 2H 2H 2H 2H 2H 2H 2H 2H 2H 2H 2H 2H 2H 2H 2H 2H 2H 2H 2H 2H 2H 2H 2H 2H 2H 2H 2H 2H 2H     .F .F .F .F .F .F .F .F .F .F .F .F .F .F .F .F .F .F .F .F .F .F .F .F .F .F .F .F .F .F .F .F .F .F .F .F .F .F .F .F .F .F .F .F .F .F .F .F .F .F .F .F .F .F .F .F .F .F .F .F .F .F .F .F .F .F .F .F .F .F .F .F .F .F .F .F .F .F .F .F .F .F .F .F .F .F .F .F .F .F .F .F .F .F .F .F .F .F .F .F .F .F .F .F .F .F .F .F .F .F .F .F .F .F .F .F .F .F .F .F .F .F .F .F .F .F .F .F .F .F .F .F .F .F .F .F .F .F .F .F .F .F .F .F .F .F .F .F .F .F .F .F    2D 2D 2D 2D 2D 2D 2D 2D 2D 2D 2D 2D 2D 2D 2D 2D 2D 2D 2D 2D 2D 2D 2D 2D 2D 2D 2D 2D 2D 2D 2D 2D 2D 2D 2D 2D 2D 2D 2D 2D 2D 2D 2D 2D 2D 2D 2D 2D 2D 2D 2D 2D 2D 2D 2D 2D 2D 2D 2D 2D 2D 2D 2D 2D 2D 2D 2D 2D 2D 2D 2D 2D 2D 2D 2D 2D 2D 2D 2D 2D 2D 2D 2D 2D 2D 2D 2D 2D 2D 2D 2D 2D 2D 2D 2D 2D 2D 2D 2D 2D 2D 2D 2D 2D 2D 2D 2D 2D 2D 2D 2D 2D 2D 2D 2D 2D 2D 2D 2D 2D 2D 2D 2D 2D 2D 2D 2D 2D 2D 2D 2D 2D 2D 2D 2D 2D 2D 2D 2D 2D 2D 2D 2D 2D 2D 2D 2D 2D 2D 2D 2D 2D     C' C' C' C' C' C' C' C' C' C' C' C' C' C' C' C' C' C' C' C' C' C' C' C' C' C' C' C' C' C' C' C' C' C' C' C' C' C' C' C' C' C' C' C' C' C' C' C' C' C' C' C' C' C' C' C' C' C' C' C' C' C' C' C' C' C' C' C' C' C' C' C' C' C' C' C' C' C' C' C' C' C' C' C' C' C' C' C' C' C' C' C' C' C' C' C' C' C' C' C' C' C' C' C' C' C' C' C' C' C' C' C' C' C' C' C' C' C' C' C' C' C' C' C' C' C' C' C' C' C' C' C' C' C' C' C' C' C' C' C' C' C' C' C' C' C' C' C' C' C' C' C' ' ' ' ' ' ' ' ' ' ' ' ' ' ' ' ' ' ' ' E' E' E' E' E' E' E' E' E' E' E' E' E' E' E' E' E' E' E' E' E' E' E' E' E' E' E' E' E' E' E' E' E' E' E' E' E' E' E' E' E' E' E' E' E' E' E' E' E' E' E' E' E' E' E' E' E' E' E' E' E' E' E' E' E' E' E' E' E' E' E' E' E' E' ' ' ' ' G' G' G' G' G' G' G' G' G' G' G' G' G' G' G' G' G' G' G' G' G' G' G' G' G' G' G' G' G' G' G' G' G' G' G' G' G' G' G' G' G' G' G' G' G' G' G' G' G' G' G' G' G' G' G' G' G' G' G' G' G' G' G' G' G' G' G' G' G' G' G' G' G' G' ' ' ' ' 'H 'H 'H 'H 'H 'H 'H 'H 'H 'H 'H 'H 'H 'H 'H 'H 'H 'H 'H 'H 'H 'H 'H 'H 'H 'H 'H 'H 'H 'H 'H 'H 'H 'H 'H 'H 'H 'H 'H 'H 'H 'H 'H 'H 'H 'H 'H 'H 'H 'H 'H 'H 'H 'H 'H 'H 'H 'H 'H 'H 'H 'H 'H 'H 'H 'H 'H 'H 'H 'H 'H 'H 'H 'H 'H 'H 'H 'H 'H 'H 'H 'H 'H 'H 'H 'H 'H 'H 'H 'H 'H 'H 'H 'H 'H 'H 'H 'H 'H 'H 'H 'H 'H 'H 'H 'H 'H 'H 'H 'H 'H 'H 'H 'H 'H 'H 'H 'H 'H 'H 'H 'H 'H 'H 'H 'H 'H 'H 'H 'H 'H 'H 'H 'H 'H 'H H H H H H H H H H H H H H H H H H H H FH FH FH FH FH FH FH FH FH FH FH FH FH FH FH FH FH FH FH FH FH FH FH FH FH FH FH FH FH FH FH FH FH FH FH FH FH FH FH FH FH FH FH FH FH FH FH FH FH FH FH FH FH FH FH FH FH FH FH FH FH FH FH FH FH FH FH FH FH FH FH FH FH FH FH FH FH FH FH FH FH FH FH FH FH FH FH FH FH FH FH FH FH FH FH FH FH FH FH FH FH FH FH FH FH FH FH FH FH FH FH FH FH FH FH FH FH FH FH FH FH FH FH FH FH FH FH FH FH FH FH FH FH FH FH FH FH FH FH FH FH FH FH FH FH FH FH FH FH FH FH FH     EH EH EH EH EH EH EH EH EH EH EH EH EH EH EH EH EH EH EH EH EH EH EH EH EH EH EH EH EH EH EH EH EH EH EH EH EH EH EH EH EH EH EH EH EH EH EH EH EH EH EH EH EH EH EH EH EH EH EH EH EH EH EH EH EH EH EH EH EH EH EH EH EH EH EH EH EH EH EH EH EH EH EH EH EH EH EH EH EH EH EH EH EH EH EH EH EH EH EH EH EH EH EH EH EH EH EH EH EH EH EH EH EH EH EH EH EH EH EH EH EH EH EH EH EH EH EH EH EH EH EH EH EH EH EH EH EH EH EH EH EH EH EH EH EH EH EH EH EH EH EH EH H H H CH CH CH CH CH CH CH CH CH CH CH CH CH CH CH CH CH CH CH CH CH CH CH CH CH CH CH CH CH CH CH CH CH CH CH CH CH CH CH CH CH CH CH CH CH CH CH CH CH CH CH CH CH CH CH CH CH CH CH CH CH CH CH CH CH CH CH CH CH CH CH CH CH CH CH CH CH CH CH CH CH CH CH CH CH CH CH CH CH CH CH CH CH CH CH CH CH CH CH CH CH CH CH CH CH CH CH CH CH CH CH CH CH CH CH CH CH CH CH CH CH CH CH CH CH CH CH CH CH CH CH CH CH CH CH CH CH CH CH CH CH CH CH CH CH CH CH CH CH CH CH CH     JB JB JB JB JB JB JB JB JB JB JB JB JB JB JB JB JB JB JB JB JB JB JB JB JB JB JB JB JB JB JB JB JB JB JB JB JB JB JB JB JB JB JB JB JB JB JB JB JB JB JB JB JB JB JB JB JB JB JB JB JB JB JB JB JB JB JB JB JB JB JB JB JB JB JB JB JB JB JB JB JB JB JB JB JB JB JB JB JB JB JB JB JB JB JB JB JB JB JB JB JB JB JB JB JB JB JB JB JB JB JB JB JB JB JB JB JB JB JB JB JB JB JB JB JB JB JB JB JB JB JBH JBH JBH JBH JBH JBH JBH JBH JBH JBH JBH JBH JBH BH BH BH BH BH BH BH BH BH H H H HC HC HC HC HC HC HC HC HC HC HC HC HC HC HC HC HC HC HC HC HC HC HC HC HC HC HC HC HC HC HC HC HC HC HC HC HC HC HC HGC HGC HGC HGC HGC HGC HGC HGC HGC HGC GC GC GC GC GC GC GC GC GC GC GC GC GC GC GC GC GC GC GC GC GC GC GC GC GC GC GC GC GC GC GC GC GC GC GC GC GC GC GC GC GC GC GC GC GC GC GC GC GC GC GC GC GC GC GCH GCH GCH GCH GCH GCH GCH GCH GCH GCH CH CH CH CH CH CH CH CH CH CH CH CH CH CH CH CH CH CH CH CH CH CH CH CH CH CH CH CH CH CH CH CH CH CH CH CH CH CH CH H H H H HE HE HE HE HE HE HE HE HE HE HE HE HJE HJE HJE HJE HJE HJE HJE HJE HJE JE JE JE JE JE JE JE JE JE JE JE JE JE JE JE JE JE JE JE JE JE JE JE JE JE JE JE JE JE JE JE JE JE JE JE JE JE JE JE JE JE JE JE JE JE JE JE JE JE JE JE JE JE JE JE JE JHE JHE JHE JHE JHE JHE JHE JHE JHE HE HE HE HE HE HE HE HE HE HE HE HE HE HE HE HE HE HE HE HE HE HE HE HE HE HE HE HE HE HE HE HE HE HE HE HE HE HE HE HE HE HE HE HE HE HE HE HE HE HE HE HE HE HE HE HEJ HEJ HEJ HEJ HEJ HEJ HEJ HEJ HEJ HEJ EJ J J J JB JB JB JB JB JB JB JB JB JB JB JB JB JB JB JB JB JB JB JB JB JB JB JB JB JB JB JB JB JB JB JB JB JB JB JB JB JB JB JB JB JB JB JB JB JB JB JB JB JB JB JHB JHB JHB JHB JHB JHB JHB JHB JHB HB HB HB HB HB HB HB HB HB HB HB HB HB HB HB HB HB HB HB HB HB HB HB HB HB HB HB HB HB HB HB HB HB HB HB HB HB HB HB HB HB HB HB HB HB HB HB HB HB HB HB HB HB HB HB HB HBJ HBJ HBJ HBJ HBJ HBJ HBJ HBJ HBJ BJ BJ BJ BJ BJ BJ BJ BJ BJ BJ BJ BJ BJ BJ BJ BJ BJ BJ BJ BJ BJ BJ BJ BJ BJ BJ BJ J J J J J? J? J? J? J? J? J? J? J? J? J? J? J? J? J? J? J? J? J? J? J? J? J? J? J? JH? JH? JH? JH? JH? JH? JH? JH? JH? H? H? H? H? H? H? H? H? H? H? H? H? H? H? H? H? H? H? H? H? H? H? H? H? H? H? H? H? H? H? H? H? H? H? H? H? H? H? H? H? H? H? H? H? H? H? H? H? H? H? H? H? H? H? H?J H?J H?J H?J H?J H?J H?J H?J H?J H?J H?J ?J ?J ?J ?J ?J ?J ?J ?J ?J ?J ?J ?J ?J ?J ?J ?J ?J ?J ?J ?J ?J ?J ?J ?J ?J ?J ?J ?J ?J ?J ?J ?J ?J ?J ?J ?J ?J ?J ?J ?J ?J ?J ?J ?J ?J ?J ?J ?J ?J ?J ?J ?J ?J J JH JH JHB JHB JHB JHB JHB JHB JHB HB HB HB HB HB HB HB HB HB HB HB HB HB HB HB HB HB HB HB HB HB HB HB HB HB HB HB HB HB HB HB HB HB HB HB HB HB HB HB HB HB HB HB HB HB HB HB HB HB HB HB HB HB HB HB HB HJB HJB HJB HJB HJB HJB HJB HJB HJB JB JB JB JB JB JB JB JB JB JB JB JB JB JB JB JB JB JB JB JB JB JB JB JB JB JB JB JB JB JB JB JB JB JB JB JB JB JB JB JB JB JB JB JB JB JB JB JB JB JB JB JB JB JB JB JB JBH JBH JBH JBH JBH JBH JBH JBH JBH BH BH BH BH BH BH BH BH BH BH BH BH BH BH BH H H H H H< H< H< H< H< H< H< H< H< H< H< H< H< H< H< H< H< H< H< H< H< H< H< H< H< H< H< H< H< H< H< H< H< H< H< H< HJ< HJ< HJ< HJ< HJ< HJ< HJ< HJ< HJ< HJ< J< J< J< J< J< J< J< J< J< J< J< J< J< J< J< J< J< J< J< J< J< J< J< J< J< J< J< J< J< J< J< J< J< J< J< J< J< J< J< J< J< J< J< J< J< J< J< J< J< J< J< J< J< J< J< J<H J<H J<H J<H J<H J<H J<H J<H J<H <H <H <H <H <H <H <H <H <H <H <H <H <H <H <H <H <H <H <H <H <H <H <H <H <H <H <H <H <H <H <H <H <H <H <H <H <H <H <H <H <H <H H H H H> H> H> H> H> H> H> H> H> H> H> HJ> HJ> HJ> HJ> HJ> HJ> HJ> HJ> HJ> J> J> J> J> J> J> J> J> J> J> J> J> J> J> J> J> J> J> J> J> J> J> J> J> J> J> J> J> J> J> J> J> J> J> J> J> J> J> J> J> J> J> J> J> J> J> J> J> J> J> J> J> J> J> J> JH> JH> JH> JH> JH> JH> JH> JH> JH> JH> H> H> H> H> H> H> H> H> H> H> H> H> H> H> H> H> H> H> H> H> H> H> H> H> H> H> H> H> H> H> H> H> H> H> H> H> H> H> H> H> H> H> H> H> H> H> H> H> H> H> H> H> H> H> H>J H>J H>J H>J H>J H>J H>J H>J H>J H>J >J >J >J J J J J J? J? J? J? J? J? J? J? J? J? J? J? J? J? J? J? J? J? J? J? J? J? J? J? J? J? J? J? J? J? J? J? J? J? J? J? J? J? J? J? J? J? J? J? J? J? J? J? JH? JH? JH? JH? JH? JH? JH? JH? JH? H? H? H? H? H? H? H? H? H? H? H? H? H? H? H? H? H? H? H? H? H? H? H? H? H? H? H? H? H? H? H? H? H? H? H? H? H? H? H? H? H? H? H? H? H? H? H? H? H? H? H? H? H? H? H? H? H?J H?J H?J H?J H?J H?J H?J H?J H?J ?J ?J ?J ?J ?J ?J ?J ?J ?J ?J ?J ?J ?J ?J ?J ?J ?J ?J ?J ?J ?J ?J ?J ?J ?J ?J ?J ?J ?J ?J J J J J< J< J< J< J< J< J< J< J< J< J< J< J< J< J< J< J< J< J< J< J< J< JH< JH< JH< JH< JH< JH< JH< JH< JH< JH< H< H< H< H< H< H< H< H< H< H< H< H< H< H< H< H< H< H< H< H< H< H< H< H< H< H< H< H< H< H< H< H< H< H< H< H< H< H< H< H< H< H< H< H< H< H< H< H< H< H< H< H< H< H< H< H< H<J H<J H<J H<J H<J H<J H<J H<J <J <J <J <J <J <J <J <J <J <J <J <J <J <J <J <J <J <J <J <J <J <J <J <J <J <J <J <J <J <J <J <J <J <J <J <J <J <J <J <J <J <J <J <J <J <J <J <J <J <J <J <J <J <J <J <J J J JH JH JH9 JH9 JH9 JH9 JH9 JH9 H9 H9 H9 H9 H9 H9 H9 H9 H9 H9 H9 H9 H9 H9 H9 H9 H9 H9 H9 H9 H9 H9 H9 H9 H9 H9 H9 H9 H9 H9 H9 H9 H9 H9 H9 H9 H9 H9 H9 H9 H9 H9 H9 H9 H9 H9 H9 H9 H9 H9 H9 H9 H9 H9 H9 H9 H9 H9 HJ9 HJ9 HJ9 HJ9 HJ9 HJ9 HJ9 HJ9 J9 J9 J9 J9 J9 J9 J9 J9 J9 J9 J9 J9 J9 J9 J9 J9 J9 J9 J9 J9 J9 J9 J9 J9 J9 J9 J9 J9 J9 J9 J9 J9 J9 J9 J9 J9 J9 J9 J9 J9 J9 J9 J9 J9 J9 J9 J9 J9 J9 J9 J9 J9 J9 J9 J9 J9 J9 J9 J9 J9H J9H J9H J9H J9H J9H J9H 9H 9H 9H 9H 9H 9H 9H 9H 9H 9H 9H 9H 9H 9H H H H H <H <H <H <H <H <H <H <H <H <H <H <H <H <H <H <H <H <H <H <H <H <H <H <H <H <H <H <H <H <H <H <H <H <H <H <H <H <H <H <H <H <H <H <H <H <H <H <H <H <H <H <H <H <H <H <H <H <H <H <H <H <H <H <H <H <H <H <H <H <H <H <H <H <H <H <H <H <H <H <H <H <H <H <H <H <H <H <H <H <H <H <H <H <H <H <H <H <H <H <H <H <H <H <H <H <H <H <H <H <H <H <H <H <H <H <H <H <H <H <H <H <H <H <H <H <H <H <H <H <H <H <H <H <H <H <H <H <H <H <H <H <H <H <H <H <H <H <H <H <H <H <H H H H H6 H6 H6 H6 H6 H6 H6 H6 H6 H6 H6 H6 H6 H6 H6 H6 H6 H6 H6 H6 H6 H6 H6 H6 H6 H6 H6 H6 H6 H6 H6 H6 H6 H6 H6 H6 H6 H6 H6 H6 H6 H6 H6 H6 H6 H6 H6 H6 H6 H6 H6 H6 H6 H6 H6 H6 H6 H6 H6 H6 H6 H6 H6 H6 H6 H6 H6 H6 H6 H6 H6 H6 H6 H6 H6 H6 H6 H6 H6 H6 H6 H6 H6 H6 H6 H6 H6 H6 H6 H6 H6 H6 H6 H6 H6 H6 H6 H6 H6 H6 H6 H6 H6 H6 H6 H6 H6 H6 H6 H6 H6 H6 H6 H6 H6 H6 H6 H6 H6 H6 H6 H6 H6 H6 H6 H6 H6 H6 H6 H6 H6 H6 H6 H6 H6 H6 H6 H6 H6 H6 H6 H6 H6 H6 H6 H6 H6 H6 H6 H6 6 6     F7 F7 F7 F7 F7 F7 F7 F7 F7 F7 F7 F7 F7 F7 F7 F7 F7 F7 F7 F7 F7 F7 F7 F7 F7 F7 F7 F7 F7 F7 F7 F7 F7 F7 F7 F7 F7 F7 F7 F7 F7 F7 F7 F7 F7 F7 F7 F7 F7 F7 F7 F7 F7 F7 F7 F7 F7 F7 F7 F7 F7 F7 F7 F7 F7 F7 F7 F7 F7 F7 F7 F7 F7 F7 F7 F7 F7 F7 F7 F7 F7 F7 F7 F7 F7 F7 F7 F7 F7 F7 F7 F7 F7 F7 F7 F7 F7 F7 F7 F7 F7 F7 F7 F7 F7 F7 F7 F7 F7 F7 F7 F7 F7 F7 F7 F7 F7 F7 F7 F7 F7 F7 F7 F7 F7 F7 F7 F7 F7 F7 F7 F7 F7 F7 F7 F7 F7 F7 F7 F7 F7 F7 F7 F7 F7 F7 F7 F7 F7 F7 F7 F7    H9 H9 H9 H9 H9 H9 H9 H9 H9 H9 H9 H9 H9 H9 H9 H9 H9 H9 H9 H9 H9 H9 H9 H9 H9 H9 H9 H9 H9 H9 H9 H9 H9 H9 H9 H9 H9 H9 H9 H9 H9 H9 H9 H9 H9 H9 H9 H9 H9 H9 H9 H9 H9 H9 H9 H9 H9 H9 H9 H9 H9 H9 H9 H9 H9 H9 H9 H9 H9 H9 H9 H9 H9 H9 H9 H9 H9 H9 H9 H9 H9 H9 H9 H9 H9 H9 H9 H9 H9 H9 H9 H9 H9 H9 H9 H9 H9 H9 H9 H9 H9 H9 H9 H9 H9 H9 H9 H9 H9 H9 H9 H9 H9 H9 H9 H9 H9 H9 H9 H9 H9 H9 H9 H9 H9 H9 H9 H9 H9 H9 H9 H9 H9 H9 H9 H9 H9 H9 H9 H9 H9 H9 H9 H9 H9 H9 H9 H9 H9 H9 H9 H9     K6 K6 K6 K6 K6 K6 K6 K6 K6 K6 K6 K6 K6 K6 K6 K6 K6 K6 K6 K6 K6 K6 K6 K6 K6 K6 K6 K6 K6 K6 K6 K6 K6 K6 K6 K6 K6 K6 K6 K6 K6 K6 K6 K6 K6 K6 K6 K6 K6 K6 K6 K6 K6 K6 K6 K6 K6 K6 K6 K6 K6 K6 K6 K6 K6 K6 K6 K6 K6 K6 K6 K6 K6 K6 K6 K6 K6 K6 K6 K6 K6 K6 K6 K6 K6 K6 K6 K6 K6 K6 K6 K6 K6 K6 K6 K6 K6 K6 K6 K6 K6 K6 K6 K6 K6 K6 K6 K6 K6 K6 K6 K6 K6 K6 K6 K6 K6 K6 K6 K6 K6 K6 K6 K6 K6 K6 K6 K6 K6 K6 K6 K6 K6 K6 K6 K6 K6 K6 K6 K6 K6 K6 K6 K6 K6 K6 K6 K6 K6 K6 K6 K6    J2 J2 J2 J2 J2 J2 J2 J2 J2 J2 J2 J2 J2 J2 J2 J2 J2 J2 J2 J2 J2 J2 J2 J2 J2 J2 J2 J2 J2 J2 J2 J2 J2 J2 J2 J2 J2 J2 J2 J2 J2 J2 J2 J2 J2 J2 J2 J2 J2 J2 J2 J2 J2 J2 J2 J2 J2 J2 J2 J2 J2 J2 J2 J2 J2 J2 J2 J2 J2 J2 J2 J2 J2 J2 J2 J2 J2 J2 J2 J2 J2 J2 J2 J2 J2 J2 J2 J2 J2 J2 J2 J2 J2 J2 J2 J2 J2 J2 J2 J2 J2 J2 J2 J2 J2 J2 J2 J2 J2 J2 J2 J2 J2 J2 J2 J2 J2 J2 J2 J2 J2 J2 J2 J2 J2 J2 J2 J2 J2 J2 J2 J2 J2 J2 J2 J2 J2 J2 J2 J2 J2 J2 J2 J2 J2 J2 J2 J2 J2 J2 J2 J2     H6 H6 H6 H6 H6 H6 H6 H6 H6 H6 H6 H6 H6 H6 H6 H6 H6 H6 H6 H6 H6 H6 H6 H6 H6 H6 H6 H6 H6 H6 H6 H6 H6 H6 H6 H6 H6 H6 H6 H6 H6 H6 H6 H6 H6 H6 H6 H6 H6 H6 H6 H6 H6 H6 H6 H6 H6 H6 H6 H6 H6 H6 H6 H6 H6 H6 H6 H6 H6 H6 H6 H6 H6 H6 H6 H6 H6 H6 H6 H6 H6 H6 H6 H6 H6 H6 H6 H6 H6 H6 H6 H6 H6 H6 H6 H6 H6 H6 H6 H6 H6 H6 H6 H6 H6 H6 H6 H6 H6 H6 H6 H6 H6 H6 H6 H6 H6 H6 H6 H6 H6 H6 H6 H6 H6 H6 H6 H6 H6 H6 H6 H6 H6 H6 H6 H6 H6 H6 H6 H6 H6 H6 H6 H6 H6 H6 H6 H6 H6 H6 H6 H6    F+ F+ F+ F+ F+ F+ F+ F+ F+ F+ F+ F+ F+ F+ F+ F+ F+ F+ F+ F+ F+ F+ F+ F+ F+ F+ F+ F+ F+ F+ F+ F+ F+ F+ F+ F+ F+ F+ F+ F+ F+ F+ F+ F+ F+ F+ F+ F+ F+ F+ F+ F+ F+ F+ F+ F+ F+ F+ F+ F+ F+ F+ F+ F+ F+ F+ F+ F+ F+ F+ F+ F+ F+ F+ F+ F+ F+ F+ F+ F+ F+ F+ F+ F+ F+ F+ F+ F+ F+ F+ F+ F+ F+ F+ F+ F+ F+ F+ F+ F+ F+ F+ F+ F+ F+ F+ F+ F+ F+ F+ F+ F+ F+ F+ F+ F+ F+ F+ F+ F+ F+ F+ F+ F+ F+ F+ F+ F+ F+ F+ F+ F+ F+ F+ F+ F+ F+ F+ F+ F+ F+ F+ F+ F+ F+ F+ F+ F+ F+ F+ F+ F+ + + + + +E +E +E +E +E +E +E +E +E +E +E +E +E +E +E +E +E +E +E +E +E +E +E +E +E +E +E +E +E +E +E +E +E +E +E +E +E +E +E +E +E +E +E +E +E +E +E +E +E +E +E +E +E +E +E +E +E +E +E +E +E +E +E +E +E +E +E +E +E +E +E +E +E +E +E +E +E +E +E +E +E +E +E +E +E +E +E +E +E +E +E +E +E +E +E +E +E +E +E +E +E +E +E +E +E +E +E +E +E +E +E +E +E +E +E +E +E +E +E +E +E +E +E +E +E +E +E +E +E +E +E +E +E +E +E +E +E +E +E +E +E +E +E +E +E +E +E +E +E +E +E E    C. C. C. C. C. C. C. C. C. C. C. C. C. C. C. C. C. C. C. C. C. C. C. C. C. C. C. C. C. C. C. C. C. C. C. C. C. C. C. C. C. C. C. C. C. C. C. C. C. C. C. C. C. C. C. C. C. C. C. C. C. C. C. C. C. C. C. C. C. C. C. C. C. C. C. C. C. C. C. C. C. C. C. C. C. C. C. C. C. C. C. C. C. C. C. C. C. C. C. C. C. C. C. C. C. C. C. C. C. C. C. C. C. C. C. C. C. C. C. C. C. C. C. C. C. C. C. C. C. C. C. C. C. C. C. C. C. C. C. C. C. C. C. C. C. C. C. C. C. C. C. C. . . . . .K .K .K .K .K .K .K .K .K .K .K .K .K .K .K .K .K .K .K .K .K .K .K .K .K .K .K .K .K .K .K .K .K .K .K .K .K .K .K .K .K .K .K .K .K .K .K .K .K .K .K .K .K .K .K .K .K .K .K .K .K .K .K .K .K .K .K .K .K .K .K .K .K .K .K .K .K .K .K .K .K .K .K .K .K .K .K .K .K .K .K .K .K .K .K .K .K .K .K .K .K .K .K .K .K .K .K .K .K .K .K .K .K .K .K .K .K .K .K .K .K .K .K .K .K .K .K .K .K .K .K .K .K .K .K .K .K .K .K .K .K .K .K .K .K .K .K .K .K .K .K K    B3 B3 B3 B3 B3 B3 B3 B3 B3 B3 B3 B3 B3 B3 B3 B3 B3 B3 B3 B3 B3 B3 B3 B3 B3 B3 B3 B3 B3 B3 B3 B3 B3 B3 B3 B3 B3 B3 B3 B3 B3 B3 B3 B3 B3 B3 B3 B3 B3 B3 B3 B3 B3 B3 B3 B3 B3 B3 B3 B3 B3 B3 B3 B3 B3 B3 B3 B3 B3 B3 B3 B3 B3 B3 B3 B3 B3 B3 B3 B3 B3 B3 B3 B3 B3 B3 B3 B3 B3 B3 B3 B3 B3 B3 B3 B3 B3 B3 B3 B3 B3 B3 B3 B3 B3 B3 B3 B3 B3 B3 B3 B3 B3 B3 B3 B3 B3 B3 B3 B3 B3 B3 B3 B3 B3 B3 B3 B3 B3 B3 B3 B3 B3 B3 B3 B3 B3 B3 B3 B3 B3 B3 B3 B3 B3 B3 B3 B3 B3 B3 B3 B3 3 3 3 3 3C 3C 3C 3C 3C 3C 3C 3C 3C 3C 3C 3C 3C 3C 3C 3C 3C 3C 3C 3C 3C 3C 3C 3C 3C 3C 3C 3C 3C 3C 3C 3C 3C 3C 3C 3C 3C 3C 3C 3C 3C 3C 3C 3C 3C 3C 3C 3C 3C 3C 3C 3C 3C 3C 3C 3C 3C 3C 3C 3C 3C 3C 3C 3C 3C 3C 3C 3C 3C 3C 3C 3C 3C 3C 3C 3C 3C 3C 3C 3C 3C 3C 3C 3C 3C 3C 3C 3C 3C 3C 3C 3C 3C 3C 3C 3C 3C 3C 3C 3C 3C 3C 3C 3C 3C 3C 3C 3C 3C 3C 3C 3C 3C 3C 3C 3C 3C 3C 3C 3C 3C 3C 3C 3C C C C C C C C C C C C C C C C C C C C C C C C C C C C C    E) E) E) E) E) E) E) E) E) E) E) E) E) E) E) E) E) E) E) E) E) E) E) E) E) E) E) E) E) E) E) E) E) E) E) E) E) E) E) E) E) E) E) E) E) E) E) E) E) E) E) E) E) E) E) E) E) E) E) E) E) E) E) E) E) E) E) E) E) E) E) E) E) E) E) E) E) E) E) E) E) E) E) E) E) E) E) E) E) E) E) E) E) E) E) E) E) E) E) E) E) E) E) E) E) E) E) E) E) E) E) E) E) E) E) E) E) E) E) E) E) E) E) E) E) E) E) E) E) E) E) E) E) E) E) E) E) E) E) E) E) E) E) E) E) E) E) E) E) E) E) E) ) ) ) ) )C )C )C )C )C )C )C )C )C )C )C )C )C )C )C )C )C )C )C )C )C )C )C )C )C )C )C )C )C )C )C )C )C )C )C )C )C )C )C )C )C )C )C )C )C )C )C )C )C )C )C )C )C )C )C )C )C )C )C )C )C )C )C )C )C )C )C )C )C )C )C )C )C )C )C )C )C )C )C )C )C )C )C )C )C )C )C )C )C )C )C )C )C )C )C )C )C )C )C )C )C )C )C )C )C )C )C )C )C )C )C )C )C )C )C )C )C )C )C )C )C )C )C )C )C )C )C )C )C )C )C )C )C )C )C )C )C )C )C )C )C )C )C )C )C )C )C )C )C )C )C C    A- A- A- A- A- A- A- A- A- A- A- A- A- A- A- A- A- A- A- A- A- A- A- A- A- A- A- A- A- A- A- A- A- A- A- A- A- A- A- A- A- A- A- A- A- A- A- A- A- A- A- A- A- A- A- A- A- A- A- A- A- A- A- A- A- A- A- A- A- A- A- A- A- A- A- A- A- A- A- A- A- A- A- A- A- A- A- A- A- A- A- A- A- A- A- A- A- A- A- A- A- A- A- A- A- A- A- A- A- A- A- A- A- A- A- A- A- A- A- A- A- A- A- A- A- A- A- A- A- A- A- A- A- A- A- A- A- A- A- A- A- A- A- A- A- A- A- A- A- A- A- A- - - - - -J -J -J -J -J -J -J -J -J -J -J -J -J -J -J -J -J -J -J -J -J -J -J -J -J -J -J -J -J -J -J -J -J -J -J -J -J -J -J -J -J -J -J -J -J -J -J -J -J -J -J -J -J -J -J -J -J -J -J -J -J -J -J -J -J -J -J -J -J -J -J -J -J -J -J -J -J -J -J -J -J -J -J -J -J -J -J -J -J -J -J -J -J -J -J -J -J -J -J -J -J -J -J -J -J -J -J -J -J -J -J -J -J -J -J -J -J -J -J -J -J -J -J -J -J -J -J -J -J -J -J -J -J -J -J -J -J -J -J -J -J -J -J -J -J -J -J -J -J -J -J J    @2 @2 @2 @2 @2 @2 @2 @2 @2 @2 @2 @2 @2 @2 @2 @2 @2 @2 @2 @2 @2 @2 @2 @2 @2 @2 @2 @2 @2 @2 @2 @2 @2 @2 @2 @2 @2 @2 @2 @2 @2 @2 @2 @2 @2 @2 @2 @2 @2 @2 @2 @2 @2 @2 @2 @2 @2 @2 @2 @2 @2 @2 @2 @2 @2 @2 @2 @2 @2 @2 @2 @2 @2 @2 @2 @2 @2 @2 @2 @2 @2 @2 @2 @2 @2 @2 @2 @2 @2 @2 @2 @2 @2 @2 @2 @2 @2 @2 @2 @2 @2 @2 @2 @2 @2 @2 @2 @2 @2 @2 @2 @2 @2 @2 @2 @2 @2 @2 @2 @2 @2 @2 @2 @2 @2 @2 @2 @2 @2 @2 @2 @2 @2 @2 @2 @2 @2 @2 @2 @2 @2 @2 @2 @2 @2 @2 @2 @2 @2 @2 @2 @2 2 2 2 2 2A 2A 2A 2A 2A 2A 2A 2A 2A 2A 2A 2A 2A 2A 2A 2A 2A 2A 2A 2A 2A 2A 2A 2A 2A 2A 2A 2A 2A 2A 2A 2A 2A 2A 2A 2A 2A 2A 2A 2A 2A 2A 2A 2A 2A 2A 2A 2A 2A 2A 2A 2A 2A 2A 2A 2A 2A 2A 2A 2A 2A 2A 2A 2A 2A 2A 2A 2A 2A 2A 2A 2A 2A 2A 2A 2A 2A 2A 2A 2A 2A 2A 2A 2A 2A 2A 2A 2A 2A 2A 2A 2A 2A 2A 2A 2A 2A 2A 2A 2A 2A 2A 2A 2A 2A 2A 2A 2A 2A 2A 2A 2A 2A 2A 2A 2A 2A 2A 2A 2A 2A 2A 2A 2A A A A A A A A A A A A A A A A A A A A A A A A A A A A A    C' C' C' C' C' C' C' C' C' C' C' C' C' C' C' C' C' C' C' C' C' C' C' C' C' C' C' C' C' C' C' C' C' C' C' C' C' C' C' C' C' C' C' C' C' C' C' C' C' C' C' C' C' C' C' C' C' C' C' C' C' C' C' C' C' C' C' C' C' C' C' C' C' C' C' C' C' C' C' C' C' C' C' C' C' C' C' C' C' C' C' C' C' C' C' C' C' C' C' C' C' C' C' C' C' C' C' C' C' C' C' C' C' C' C' C' C' C' C' C' C' C' C' C' C' C' C' C' C' C' C' C' C' C' C' C' C' C' C' C' C' C' C' C' C' C' C' C' C' C' C' C' ' ' ' ' 'A 'A 'A 'A 'A 'A 'A 'A 'A 'A 'A 'A 'A 'A 'A 'A 'A 'A 'A 'A 'A 'A 'A 'A 'A 'A 'A 'A 'A 'A 'A 'A 'A 'A 'A 'A 'A 'A 'A 'A 'A 'A 'A 'A 'A 'A 'A 'A 'A 'A 'A 'A 'A 'A 'A 'A 'A 'A 'A 'A 'A 'A 'A 'A 'A 'A 'A 'A 'A 'A 'A 'A 'A 'A 'A 'A 'A 'A 'A 'A 'A 'A 'A 'A 'A 'A 'A 'A 'A 'A 'A 'A 'A 'A 'A 'A 'A 'A 'A 'A 'A 'A 'A 'A 'A 'A 'A 'A 'A 'A 'A 'A 'A 'A 'A 'A 'A 'A 'A 'A 'A 'A 'A 'A 'A 'A 'A 'A 'A 'A 'A 'A 'A 'A 'A 'A 'A 'A 'A 'A 'A 'A 'A 'A 'A 'A 'A 'A 'A 'A 'A A    ?+ ?+ ?+ ?+ ?+ ?+ ?+ ?+ ?+ ?+ ?+ ?+ ?+ ?+ ?+ ?+ ?+ ?+ ?+ ?+ ?+ ?+ ?+ ?+ ?+ ?+ ?+ ?+ ?+ ?+ ?+ ?+ ?+ ?+ ?+ ?+ ?+ ?+ ?+ ?+ ?+ ?+ ?+ ?+ ?+ ?+ ?+ ?+ ?+ ?+ ?+ ?+ ?+ ?+ ?+ ?+ ?+ ?+ ?+ ?+ ?+ ?+ ?+ ?+ ?+ ?+ ?+ ?+ ?+ ?+ ?+ ?+ ?+ ?+ ?+ ?+ ?+ ?+ ?+ ?+ ?+ ?+ ?+ ?+ ?+ ?+ ?+ ?+ ?+ ?+ ?+ ?+ ?+ ?+ ?+ ?+ ?+ ?+ ?+ ?+ ?+ ?+ ?+ ?+ ?+ ?+ ?+ ?+ ?+ ?+ ?+ ?+ ?+ ?+ ?+ ?+ ?+ ?+ ?+ ?+ ?+ ?+ ?+ ?+ ?+ ?+ ?+ ?+ ?+ ?+ ?+ ?+ ?+ ?+ ?+ ?+ ?+ ?+ ?+ ?+ ?+ ?+ ?+ ?+ ?+ ?+ ?+ ?+ ?+ ?+ ?+ ?+ + + + + +H +H +H +H +H +H +H +H +H +H +H +H +H +H +H +H +H +H +H +H +H +H +H +H +H +H +H +H +H +H +H +H +H +H +H +H +H +H +H +H +H +H +H +H +H +H +H +H +H +H +H +H +H +H +H +H +H +H +H +H +H +H +H +H +H +H +H +H +H +H +H +H +H +H +H +H +H +H +H +H +H +H +H +H +H +H +H +H +H +H +H +H +H +H +H +H +H +H +H +H +H +H +H +H +H +H +H +H +H +H +H +H +H +H +H +H +H +H +H +H +H +H +H +H +H +H +H +H +H +H +H +H +H +H +H +H +H +H +H +H +H +H +H +H +H +H +H +H +H +H +H H    >0 >0 >0 >0 >0 >0 >0 >0 >0 >0 >0 >0 >0 >0 >0 >0 >0 >0 >0 >0 >0 >0 >0 >0 >0 >0 >0 >0 >0 >0 >0 >0 >0 >0 >0 >0 >0 >0 >0 >0 >0 >0 >0 >0 >0 >0 >0 >0 >0 >0 >0 >0 >0 >0 >0 >0 >0 >0 >0 >0 >0 >0 >0 >0 >0 >0 >0 >0 >0 >0 >0 >0 >0 >0 >0 >0 >0 >0 >0 >0 >0 >0 >0 >0 >0 >0 >0 >0 >0 >0 >0 >0 >0 >0 >0 >0 >0 >0 >0 >0 >0 >0 >0 >0 >0 >0 >0 >0 >0 >0 >0 >0 >0 >0 >0 >0 >0 >0 >0 >0 >0 >0 >0 >0 >0 >0 >0 >0 >0 >0 >0 >0 >0 >0 >0 >0 >0 >0 >0 >0 >0 >0 >0 >0 >0 >0 >0 >0 >0 >0 >0 >0 0 0 0 0 0@ 0@ 0@ 0@ 0@ 0@ 0@ 0@ 0@ 0@ 0@ 0@ 0@ 0@ 0@ 0@ 0@ 0@ 0@ 0@ 0@ 0@ 0@ 0@ 0@ 0@ 0@ 0@ 0@ 0@ 0@ 0@ 0@ 0@ 0@ 0@ 0@ 0@ 0@ 0@ 0@ 0@ 0@ 0@ 0@ 0@ 0@ 0@ 0@ 0@ 0@ 0@ 0@ 0@ 0@ 0@ 0@ 0@ 0@ 0@ 0@ 0@ 0@ 0@ 0@ 0@ 0@ 0@ 0@ 0@ 0@ 0@ 0@ 0@ 0@ 0@ 0@ 0@ 0@ 0@ 0@ 0@ 0@ 0@ 0@ 0@ 0@ 0@ 0@ 0@ 0@ 0@ 0@ 0@ 0@ 0@ 0@ 0@ 0@ 0@ 0@ 0@ 0@ 0@ 0@ 0@ 0@ 0@ 0@ 0@ 0@ 0@ 0@ 0@ 0@ 0@ 0@ 0@ 0@ 0@ 0@ 0@ 0@ 0@ @ @ @ @ @ @ @ @ @ @ @ @ @ @ @ @ @ @ @ @ @ @ @ @ @ @ @ @     B& B& B& B& B& B& B& B& B& B& B& B& B& B& B& B& B& B& B& B& B& B& B& B& B& B& B& B& B& B& B& B& B& B& B& B& B& B& B& B& B& B& B& B& B& B& B& B& B& B& B& B& B& B& B& B& B& B& B& B& B& B& B& B& B& B& B& B& B& B& B& B& B& B& B& B& B& B& B& B& B& B& B& B& B& B& B& B& B& B& B& B& B& B& B& B& B& B& B& B& B& B& B& B& B& B& B& B& B& B& B& B& B& B& B& B& B& B& B& B& B& B& B& B& B& B& B& B& B& B& B& B& B& B& B& B& B& B& B& B& B& B& B& B& B& B& B& B& B& B& B& B& & & & @& @& @& @& @& @& @& @& @& @& @& @& @& @& @& @& @& @& @& @& @& @& @& @& @& @& @& @& @& @& @& @& @& @& @& @& @& @& @& @& @& @& @& @& @& @& @& @& @& @& @& @& @& @& @& @& @& @& @& @& @& @& @& @& @& @& @& @& @& @& @& @& @& @& @& @& @& @& @& @& @& @& @& @& @& @& @& @& @& @& @& @& @& @& @& @& @& @& @& @& @& @& @& @& @& @& @& @& @& @& @& @& @& @& @& @& @& @& @& @& @& @& @& @& @& @& @& @& @& @& @& @& @& @& @& @& @& @& @& @& @& @& @& @& @& @& @& @& @& @& @& @& & & & & >&2 >&2 >&2 >&2 >&2 >&2 >&2 >&2 >&2 >&2 >&2 >&2 >&2 >&2 >&2 >&2 >&2 >&2 >&2 >&2 >&2 >&2 >&2 >&2 >&2 >&2 >&2 >&2 >&2 >&2 >&2 >&2 >&2 >&2 >&2 >&2 >&2 >&2 >&2 >&2 >&2 >&2 >&2 >&2 >&2 >&2 >&2 >&2 >&2 >&2 >&2 >&2 >&2 >&2 >&2 >&2 >&2 >&2 >&2 >&2 >&2 >&2 >&2 >&2 >&2 >&2 >&2 >&2 >&2 >&2 >&2 >&2 >&2 >&2 >&2 >&2 >&2 >&2 >&2 >&2 >&2 >&2 >&2 >&2 >&2 >&2 >&2 >&2 >&2 >&2 >&2 >&2 >&2 >&2 >&2 >&2 >&2 >&2 >&2 >&2 >&2 >&2 >&2 >&2 >&2 >&2 >&2 >&2 >&2 >&2 >&2 >&2 >&2 >&2 >&2 >&2 >&2 >&2 >&2 >&2 >&2 >&2 >&2 >&2 >&2 >&2 >&2 >&2 >&2 >&2 >&2 >&2 >&2 >&2 >&2 >&2 >&2 >&2 >&2 >&2 >&2 >&2 >&2 >&2 >&2 >&2 >&2 >&2 >&2 >&2 >&2 >&2 &2 &2 &2 H&2 H&2 H&2 H&2 H&2 H&2 H&2 H&2 H&2 H&2 H&2 H&2 H&2 H&2 H&2 H&2 H&2 H&2 H&2 H&2 H&2 H&2 H&2 H&2 H&2 H&2 H&2 H&2 H&2 H&2 H&2 H&2 H&2 H&2 H&2 H&2 H&2 H&2 H&2 H&2 H&2 H&2 H&2 H&2 H&2 H&2 H&2 H&2 H&2 H&2 H&2 H&2 H&2 H&2 H&2 H&2 H&2 H&2 H&2 H&2 H&2 H&2 H&2 H&2 H&2 H&2 H&2 H&2 H&2 H&2 H&2 H&2 H&2 H&2 H&2 H&2 H&2 H&2 H&2 H&2 H&2 H&2 H&2 H&2 H&2 H&2 H&2 H&2 H&2 H&2 H&2 H&2 H&2 H&2 H&2 H&2 H&2 H&2 H&2 H&2 H&2 H&2 H&2 H&2 H&2 H&2 H&2 H&2 H&2 H&2 H&2 H&2 H&2 H&2 H&2 H&2 H&2 H&2 H&2 H&2 H&2 H&2 H&2 H&2 H&2 H&2 H&2 H&2 H&2 H&2 H&2 H&2 H&2 H&2 H&2 H&2 H&2 H&2 H&2 H&2 H&2 H&2 H&2 H&2 H&2 H&2 H&2 H&2 H&2 H&2 H&2 H&2 &2 &2 &2 &2 @&2 @&2 @&2 @&2 @&2 @&2 @&2 @&2 @&2 @&2 @&2 @&2 @&2 @&2 @&2 @&2 @&2 @&2 @&2 @&2 @&2 @&2 @&2 @&2 @&2 @&2 @&2 @&2 @&2 @&2 @&2 @&2 @&2 @&2 @&2 @&2 @&2 @&2 @&2 @&2 @&2 @&2 @&2 @&2 @&2 @&2 @&2 @&2 @&2 @&2 @&2 @&2 @&2 @&2 @&2 @&2 @&2 @&2 @&2 @&2 @&2 @&2 @&2 @&2 @&2 @&2 @&2 @&2 @&2 @&2 @&2 @&2 @&2 @&2 @&2 @&2 @&2 @&2 @&2 @&2 @&2 @&2 @&2 @&2 @&2 @&2 @&2 @&2 @&2 @&2 @&2 @&2 @&2 @&2 @&2 @&2 @&2 @&2 @&2 @&2 @&2 @&2 @&2 @&2 @&2 @&2 @&2 @&2 @&2 @&2 @&2 @&2 @&2 @&2 @&2 @&2 @&2 @&2 @&2 @&2 @&2 @&2 @&2 @&2 @&2 @&2 @&2 @&2 @&2 @&2 @&2 @&2 @&2 @&2 @&2 @&2 @&2 @&2 @&2 @&2 @&2 @&2 @&2 @&2 @&2 @&2 @&2 @&2 @&2 @&2 @&2 @&2 &2 &2 &2 B&2 B&2 B&2 B&2 B&2 B&2 B&2 B&2 B&2 B&2 B&2 B&2 B&2 B&2 B&2 B&2 B&2 B&2 B&2 B&2 B&2 B&2 B&2 B&2 B&2 B&2 B&2 B&2 B&2 B&2 B&2 B&2 B&2 B&2 B&2 B&2 B&2 B&2 B&2 B&2 B&2 B&2 B&2 B&2 B&2 B&2 B&2 B&2 B&2 B&2 B&2 B&2 B&2 B&2 B&2 B&2 B&2 B&2 B&2 B&2 B&2 B&2 B&2 B&2 B&2 B&2 B&2 B&2 B&2 B&2 B&2 B&2 B&2 B&2 B&2 B&2 B&2 B&2 B&2 B&2 B&2 B&2 B&2 B&2 B&2 B&2 B&2 B&2 B&2 B&2 B&2 B&2 B&2 B&2 B&2 B&2 B&2 B&2 B&2 B&2 B&2 B&2 B&2 B&2 B&2 B&2 B&2 B&2 B&2 B&2 B&2 B&2 B&2 B&2 B&2 B&2 B&2 B&2 B&2 B&2 B&2 B&2 B&2 B&2 B&2 B&2 B&2 B&2 B&2 B&2 B&2 B&2 B&2 B&2 B&2 B&2 B&2 B&2 B&2 B&2 B&2 B&2 B&2 B&2 B&2 B&2 B&2 B&2 B&2 B&2 B&2 B&2 &2 &2 2 2 C2& C2& C2& C2& C2& C2& C2& C2& C2& C2& C2& C2& C2& C2& C2& C2& C2& C2& C2& C2& C2& C2& C2& C2& C2& C2& C2& C2& C2& C2& C2& C2& C2& C2& C2& C2& C2& C2& C2& C2& C2& C2& C2& C2& C2& C2& C2& C2& C2& C2& C2& C2& C2& C2& C2& C2& C2& C2& C2& C2& C2& C2& C2& C2& C2& C2& C2& C2& C2& C2& C2& C2& C2& C2& C2& C2& C2& C2& C2& C2& C2& C2& C2& C2& C2& C2& C2& C2& C2& C2& C2& C2& C2& C2& C2& C2& C2& C2& C2& C2& C2& C2& C2& C2& C2& C2& C2& C2& C2& C2& C2& C2& C2& C2& C2& C2& C2& C2& C2& C2& C2& C2& C2& C2& C2& C2& C2& C2& C2& C2& C2& C2& C2& C2& C2& C2& C2& C2& C2& C2& C2& C2& C2& C2& C2& C2& C2& C2& C2& C2& C2& C2& 2& 2& 2& B2& B2& B2& B2& B2& B2& B2& B2& B2& B2& B2& B2& B2& B2& B2& B2& B2& B2& B2& B2& B2& B2& B2& B2& B2& B2& B2& B2& B2& B2& B2& B2& B2& B2& B2& B2& B2& B2& B2& B2& B2& B2& B2& B2& B2& B2& B2& B2& B2& B2& B2& B2& B2& B2& B2& B2& B2& B2& B2& B2& B2& B2& B2& B2& B2& B2& B2& B2& B2& B2& B2& B2& B2& B2& B2& B2& B2& B2& B2& B2& B2& B2& B2& B2& B2& B2& B2& B2& B2& B2& B2& B2& B2& B2& B2& B2& B2& B2& B2& B2& B2& B2& B2& B2& B2& B2& B2& B2& B2& B2& B2& B2& B2& B2& B2& B2& B2& B2& B2& B2& B2& B2& B2& B2& B2& B2& B2& B2& B2& B2& B2& B2& B2& B2& B2& B2& B2& B2& B2& B2& B2& B2& B2& B2& B2& B2& B2& B2& B2& B2& B2& B2& 2& 2& & & @&2 @&2 @&2 @&2 @&2 @&2 @&2 @&2 @&2 @&2 @&2 @&2 @&2 @&2 @&2 @&2 @&2 @&2 @&2 @&2 @&2 @&2 @&2 @&2 @&2 @&2 @&2 @&2 @&2 @&2 @&2 @&2 @&2 @&2 @&2 @&2 @&2 @&2 @&2 @&2 @&2 @&2 @&2 @&2 @&2 @&2 @&2 @&2 @&2 @&2 @&2 @&2 @&2 @&2 @&2 @&2 @&2 @&2 @&2 @&2 @&2 @&2 @&2 @&2 @&2 @&2 @&2 @&2 @&2 @&2 @&2 @&2 @&2 @&2 @&2 @&2 @&2 @&2 @&2 @&2 @&2 @&2 @&2 @&2 @&2 @&2 @&2 @&2 @&2 @&2 @&2 @&2 @&2 @&2 @&2 @&2 @&2 @&2 @&2 @&2 @&2 @&2 @&2 @&2 @&2 @&2 @&2 @&2 @&2 @&2 @&2 @&2 @&2 @&2 @&2 @&2 @&2 @&2 @&2 @&2 @&2 @&2 @&2 @&2 @&2 @&2 @&2 @&2 @&2 @&2 @&2 @&2 @&2 @&2 @&2 @&2 @&2 @&2 @&2 @&2 @&2 @&2 @&2 @&2 @&2 @&2 @&2 @&2 @&2 @&2 @&2 @&2 &2 &2 &2 F&2 F&2 F&2 F&2 F&2 F&2 F&2 F&2 F&2 F&2 F&2 F&2 F&2 F&2 F&2 F&2 F&2 F&2 F&2 F&2 F&2 F&2 F&2 F&2 F&2 F&2 F&2 F&2 F&2 F&2 F&2 F&2 F&2 F&2 F&2 F&2 F&2 F&2 F&2 F&2 F&2 F&2 F&2 F&2 F&2 F&2 F&2 F&2 F&2 F&2 F&2 F&2 F&2 F&2 F&2 F&2 F&2 F&2 F&2 F&2 F&2 F&2 F&2 F&2 F&2 F&2 F&2 F&2 F&2 F&2 F&2 F&2 F&2 F&2 F&2 F&2 F&2 F&2 F&2 F&2 F&2 F&2 F&2 F&2 F&2 F&2 F&2 F&2 F&2 F&2 F&2 F&2 F&2 F&2 F&2 F&2 F&2 F&2 F&2 F&2 F&2 F&2 F&2 F&2 F&2 F&2 F&2 F&2 F&2 F&2 F&2 F&2 F&2 F&2 F&2 F&2 F&2 F&2 F&2 F&2 F&2 F&2 F&2 F&2 F&2 F&2 F&2 F&2 F&2 F&2 F&2 F&2 F&2 F&2 F&2 F&2 F&2 F&2 F&2 F&2 F&2 F&2 F&2 F&2 F&2 F&2 F&2 F&2 F&2 F&2 F&2 F&2 &2 &2 &2 &2 =&2 =&2 =&2 =&2 =&2 =&2 =&2 =&2 =&2 =&2 =&2 =&2 =&2 =&2 =&2 =&2 =&2 =&2 =&2 =&2 =&2 =&2 =&2 =&2 =&2 =&2 =&2 =&2 =&2 =&2 =&2 =&2 =&2 =&2 =&2 =&2 =&2 =&2 =&2 =&2 =&2 =&2 =&2 =&2 =&2 =&2 =&2 =&2 =&2 =&2 =&2 =&2 =&2 =&2 =&2 =&2 =&2 =&2 =&2 =&2 =&2 =&2 =&2 =&2 =&2 =&2 =&2 =&2 =&2 =&2 =&2 =&2 =&2 =&2 =&2 =&2 =&2 =&2 =&2 =&2 =&2 =&2 =&2 =&2 =&2 =&2 =&2 =&2 =&2 =&2 =&2 =&2 =&2 =&2 =&2 =&2 =&2 =&2 =&2 =&2 =&2 =&2 =&2 =&2 =&2 =&2 =&2 =&2 =&2 =&2 =&2 =&2 =&2 =&2 =&2 =&2 =&2 =&2 =&2 =&2 =&2 =&2 =&2 =&2 =&2 =&2 =&2 =&2 =&2 =&2 =&2 =&2 =&2 =&2 =&2 =&2 =&2 =&2 =&2 =&2 =&2 =&2 =&2 =&2 =&2 =&2 =&2 =&2 =&2 =&2 =&2 =&2 &2 &2 &2 >&2 >&2 >&2 >&2 >&2 >&2 >&2 >&2 >&2 >&2 >&2 >&2 >&2 >&2 >&2 >&2 >&2 >&2 >&2 >&2 >&2 >&2 >&2 >&2 >&2 >&2 >&2 >&2 >&2 >&2 >&2 >&2 >&2 >&2 >&2 >&2 >&2 >&2 >&2 >&2 >&2 >&2 >&2 >&2 >&2 >&2 >&2 >&2 >&2 >&2 >&2 >&2 >&2 >&2 >&2 >&2 >&2 >&2 >&2 >&2 >&2 >&2 >&2 >&2 >&2 >&2 >&2 >&2 >&2 >&2 >&2 >&2 >&2 >&2 >&2 >&2 >&2 >&2 >&2 >&2 >&2 >&2 >&2 >&2 >&2 >&2 >&2 >&2 >&2 >&2 >&2 >&2 >&2 >&2 >&2 >&2 >&2 >&2 >&2 >&2 >&2 >&2 >&2 >&2 >&2 >&2 >&2 >&2 >&2 >&2 >&2 >&2 >&2 >&2 >&2 >&2 >&2 >&2 >&2 >&2 >&2 >&2 >&2 >&2 >&2 >&2 >&2 >&2 >&2 >&2 >&2 >&2 >&2 >&2 >&2 >&2 >&2 >&2 >&2 >&2 >&2 >&2 >&2 >&2 >&2 >&2 >&2 >&2 >&2 >&2 >&2 >&2 &2 &2 2 2 @2& @2& @2& @2& @2& @2& @2& @2& @2& @2& @2& @2& @2& @2& @2& @2& @2& @2& @2& @2& @2& @2& @2& @2& @2& @2& @2& @2& @2& @2& @2& @2& @2& @2& @2& @2& @2& @2& @2& @2& @2& @2& @2& @2& @2& @2& @2& @2& @2& @2& @2& @2& @2& @2& @2& @2& @2& @2& @2& @2& @2& @2& @2& @2& @2& @2& @2& @2& @2& @2& @2& @2& @2& @2& @2& @2& @2& @2& @2& @2& @2& @2& @2& @2& @2& @2& @2& @2& @2& @2& @2& @2& @2& @2& @2& @2& @2& @2& @2& @2& @2& @2& @2& @2& @2& @2& @2& @2& @2& @2& @2& @2& @2& @2& @2& @2& @2& @2& @2& @2& @2& @2& @2& @2& @2& @2& @2& @2& @2& @2& @2& @2& @2& @2& @2& @2& @2& @2& @2& @2& @2& @2& @2& @2& @2& @2& @2& @2& @2& @2& @2& @2& 2& 2& 2& >2& >2& >2& >2& >2& >2& >2& >2& >2& >2& >2& >2& >2& >2& >2& >2& >2& >2& >2& >2& >2& >2& >2& >2& >2& >2& >2& >2& >2& >2& >2& >2& >2& >2& >2& >2& >2& >2& >2& >2& >2& >2& >2& >2& >2& >2& >2& >2& >2& >2& >2& >2& >2& >2& >2& >2& >2& >2& >2& >2& >2& >2& >2& >2& >2& >2& >2& >2& >2& >2& >2& >2& >2& >2& >2& >2& >2& >2& >2& >2& >2& >2& >2& >2& >2& >2& >2& >2& >2& >2& >2& >2& >2& >2& >2& >2& >2& >2& >2& >2& >2& >2& >2& >2& >2& >2& >2& >2& >2& >2& >2& >2& >2& >2& >2& >2& >2& >2& >2& >2& >2& >2& >2& >2& >2& >2& >2& >2& >2& >2& >2& >2& >2& >2& >2& >2& >2& >2& >2& >2& >2& >2& >2& >2& >2& >2& >2& >2& >2& >2& >2& >2& 2& 2& & & =&2 =&2 =&2 =&2 =&2 =&2 =&2 =&2 =&2 =&2 =&2 =&2 =&2 =&2 =&2 =&2 =&2 =&2 =&2 =&2 =&2 =&2 =&2 =&2 =&2 =&2 =&2 =&2 =&2 =&2 =&2 =&2 =&2 =&2 =&2 =&2 =&2 =&2 =&2 =&2 =&2 =&2 =&2 =&2 =&2 =&2 =&2 =&2 =&2 =&2 =&2 =&2 =&2 =&2 =&2 =&2 =&2 =&2 =&2 =&2 =&2 =&2 =&2 =&2 =&2 =&2 =&2 =&2 =&2 =&2 =&2 =&2 =&2 =&2 =&2 =&2 =&2 =&2 =&2 =&2 =&2 =&2 =&2 =&2 =&2 =&2 =&2 =&2 =&2 =&2 =&2 =&2 =&2 =&2 =&2 =&2 =&2 =&2 =&2 =&2 =&2 =&2 =&2 =&2 =&2 =&2 =&2 =&2 =&2 =&2 =&2 =&2 =&2 =&2 =&2 =&2 =&2 =&2 =&2 =&2 =&2 =&2 =&2 =&2 =&2 =&2 =&2 =&2 =&2 =&2 =&2 =&2 =&2 =&2 =&2 =&2 =&2 =&2 =&2 =&2 =&2 =&2 =&2 =&2 =&2 =&2 =&2 =&2 =&2 =&2 =&2 =&2 &2 &2 &2 E&2 E&2 E&2 E&2 E&2 E&2 E&2 E&2 E&2 E&2 E&2 E&2 E&2 E&2 E&2 E&2 E&2 E&2 E&2 E&2 E&2 E&2 E&2 E&2 E&2 E&2 E&2 E&2 E&2 E&2 E&2 E&2 E&2 E&2 E&2 E&2 E&2 E&2 E&2 E&2 E&2 E&2 E&2 E&2 E&2 E&2 E&2 E&2 E&2 E&2 E&2 E&2 E&2 E&2 E&2 E&2 E&2 E&2 E&2 E&2 E&2 E&2 E&2 E&2 E&2 E&2 E&2 E&2 E&2 E&2 E&2 E&2 E&2 E&2 E&2 E&2 E&2 E&2 E&2 E&2 E&2 E&2 E&2 E&2 E&2 E&2 E&2 E&2 E&2 E&2 E&2 E&2 E&2 E&2 E&2 E&2 E&2 E&2 E&2 E&2 E&2 E&2 E&2 E&2 E&2 E&2 E&2 E&2 E&2 E&2 E&2 E&2 E&2 E&2 E&2 E&2 E&2 E&2 E&2 E&2 E&2 E&2 E&2 E&2 E&2 E&2 E&2 E&2 E&2 E&2 E&2 E&2 E&2 E&2 E&2 E&2 E&2 E&2 E&2 E&2 E&2 E&2 E&2 E&2 E&2 E&2 E&2 E&2 E&2 E&2 E&2 E&2 &2 &2 &2 &2 @&2 @&2 @&2 @&2 @&2 @&2 @&2 @&2 @&2 @&2 @&2 @&2 @&2 @&2 @&2 @&2 @&2 @&2 @&2 @&2 @&2 @&2 @&2 @&2 @&2 @&2 @&2 @&2 @&2 @&2 @&2 @&2 @&2 @&2 @&2 @&2 @&2 @&2 @&2 @&2 @&2 @&2 @&2 @&2 @&2 @&2 @&2 @&2 @&2 @&2 @&2 @&2 @&2 @&2 @&2 @&2 @&2 @&2 @&2 @&2 @&2 @&2 @&2 @&2 @&2 @&2 @&2 @&2 @&2 @&2 @&2 @&2 @&2 @&2 @&2 @&2 @&2 @&2 @&2 @&2 @&2 @&2 @&2 @&2 @&2 @&2 @&2 @&2 @&2 @&2 @&2 @&2 @&2 @&2 @&2 @&2 @&2 @&2 @&2 @&2 @&2 @&2 @&2 @&2 @&2 @&2 @&2 @&2 @&2 @&2 @&2 @&2 @&2 @&2 @&2 @&2 @&2 @&2 @&2 @&2 @&2 @&2 @&2 @&2 @&2 @&2 @&2 @&2 @&2 @&2 @&2 @&2 @&2 @&2 @&2 @&2 @&2 @&2 @&2 @&2 @&2 @&2 @&2 @&2 @&2 @&2 @&2 @&2 @&2 @&2 @&2 @&2 &2 &2 &2 B&2 B&2 B&2 B&2 B&2 B&2 B&2 B&2 B&2 B&2 B&2 B&2 B&2 B&2 B&2 B&2 B&2 B&2 B&2 B&2 B&2 B&2 B&2 B&2 B&2 B&2 B&2 B&2 B&2 B&2 B&2 B&2 B&2 B&2 B&2 B&2 B&2 B&2 B&2 B&2 B&2 B&2 B&2 B&2 B&2 B&2 B&2 B&2 B&2 B&2 B&2 B&2 B&2 B&2 B&2 B&2 B&2 B&2 B&2 B&2 B&2 B&2 B&2 B&2 B&2 B&2 B&2 B&2 B&2 B&2 B&2 B&2 B&2 B&2 B&2 B&2 B&2 B&2 B&2 B&2 B&2 B&2 B&2 B&2 B&2 B&2 B&2 B&2 B&2 B&2 B&2 B&2 B&2 B&2 B&2 B&2 B&2 B&2 B&2 B&2 B&2 B&2 B&2 B&2 B&2 B&2 B&2 B&2 B&2 B&2 B&2 B&2 B&2 B&2 B&2 B&2 B&2 B&2 B&2 B&2 B&2 B&2 B&2 B&2 B&2 B&2 B&2 B&2 B&2 B&2 B&2 B&2 B&2 B&2 B&2 B&2 B&2 B&2 B&2 B&2 B&2 B&2 B&2 B&2 B&2 B&2 B&2 B&2 B&2 B&2 B&2 B&2 &2 &2 2 2 C&2 C&2 C&2 C&2 C&2 C&2 C&2 C&2 C&2 C&2 C&2 C&2 C&2 C&2 C&2 C&2 C&2 C&2 C&2 C&2 C&2 C&2 C&2 C&2 C&2 C&2 C&2 C&2 C&2 C&2 C&2 C&2 C&2 C&2 C&2 C&2 C&2 C&2 C&2 C&2 C&2 C&2 C&2 C&2 C&2 C&2 C&2 C&2 C&2 C&2 C&2 C&2 C&2 C&2 C&2 C&2 C&2 C&2 C&2 C&2 C&2 C&2 C&2 C&2 C&2 C&2 C&2 C&2 C&2 C&2 C&2 C&2 C&2 C&2 C&2 C&2 C&2 C&2 C&2 C&2 C&2 C&2 C&2 C&2 C&2 C&2 C&2 C&2 C&2 C&2 C&2 C&2 C&2 C&2 C&2 C&2 C&2 C&2 C&2 C&2 C&2 C&2 C&2 C&2 C&2 C&2 C&2 C&2 C&2 C&2 C&2 C&2 C&2 C&2 C&2 C&2 C&2 C&2 C&2 C&2 C&2 C&2 C&2 C&2 C&2 C&2 C&2 C&2 C&2 C&2 C&2 C&2 C&2 C&2 C&2 C&2 C&2 C&2 C&2 C&2 C&2 C&2 C&2 C&2 C&2 C&2 C&2 C&2 C&2 C&2 C&2 C&2 &2 &2 &2 B&2 B&2 B&2 B&2 B&2 B&2 B&2 B&2 B&2 B&2 B&2 B&2 B&2 B&2 B&2 B&2 B&2 B&2 B&2 B&2 B&2 B&2 B&2 B&2 B&2 B&2 B&2 B&2 B&2 B&2 B&2 B&2 B&2 B&2 B&2 B&2 B&2 B&2 B&2 B&2 B&2 B&2 B&2 B&2 B&2 B&2 B&2 B&2 B&2 B&2 B&2 B&2 B&2 B&2 B&2 B&2 B&2 B&2 B&2 B&2 B&2 B&2 B&2 B&2 B&2 B&2 B&2 B&2 B&2 B&2 B&2 B&2 B&2 B&2 B&2 B&2 B&2 B&2 B&2 B&2 B&2 B&2 B&2 B&2 B&2 B&2 B&2 B&2 B&2 B&2 B&2 B&2 B&2 B&2 B&2 B&2 B&2 B&2 B&2 B&2 B&2 B&2 B&2 B&2 B&2 B&2 B&2 B&2 B&2 B&2 B&2 B&2 B&2 B&2 B&2 B&2 B&2 B&2 B&2 B&2 B&2 B&2 B&2 B&2 B&2 B&2 B&2 B&2 B&2 B&2 B&2 B&2 B&2 B&2 B&2 B&2 B&2 B&2 B&2 B&2 B&2 B&2 B&2 B&2 B&2 B&2 B&2 B&2 B&2 B&2 B&2 B&2 2 2   @2 @2 @2 @2 @2 @2 @2 @2 @2 @2 @2 @2 @2 @2 @2 @2 @2 @2 @2 @2 @2 @2 @2 @2 @2 @2 @2 @2 @2 @2 @2 @2 @2 @2 @2 @2 @2 @2 @2 @2 @2 @2 @2 @2 @2 @2 @2 @2 @2 @2 @2 @2 @2 @2 @2 @2 @2 @2 @2 @2 @2 @2 @2 @2 @2 @2 @2 @2 @2 @2 @2 @2 @2 @2 @2 @2 @2 @2 @2 @2 @2 @2 @2 @2 @2 @2 @2 @2 @2 @2 @2 @2 @2 @2 @2 @2 @2 @2 @2 @2 @2 @2 @2 @2 @2 @2 @2 @2 @2 @2 @2 @2 @2 @2 @2 @2 @2 @2 @2 @2 @2 @2 @2 @2 @2 @2 @2 @2 @2 @2 @2 @2 @2 @2 @2 @2 @2 @2 @2 @2 @2 @2 @2 @2 @2 @2 @2 @2 @2 @2 @2 @2 2 2 2 >2 >2 >2 >2 >2 >2 >2 >2 >2 >2 >2 >2 >2 >2 >2 >2 >2 >2 >2 >2 >2 >2 >2 >2 >2 >2 >2 >2 >2 >2 >2 >2 >2 >2 >2 >2 >2 >2 >2 >2 >2 >2 >2 >2 >2 >2 >2 >2 >2 >2 >2 >2 >2 >2 >2 >2 >2 >2 >2 >2 >2 >2 >2 >2 >2 >2 >2 >2 >2 >2 >2 >2 >2 >2 >2 >2 >2 >2 >2 >2 >2 >2 >2 >2 >2 >2 >2 >2 >2 >2 >2 >2 >2 >2 >2 >2 >2 >2 >2 >2 >2 >2 >2 >2 >2 >2 >2 >2 >2 >2 >2 >2 >2 >2 >2 >2 >2 >2 >2 >2 >2 >2 >2 >2 >2 >2 >2 >2 >2 >2 >2 >2 >2 >2 >2 >2 >2 >2 >2 >2 >2 >2 >2 >2 >2 >2 >2 >2 >2 >2 >2 >2     @2 @2 @2 @2 @2 @2 @2 @2 @2 @2 @2 @2 @2 @2 @2 @2 @2 @2 @2 @2 @2 @2 @2 @2 @2 @2 @2 @2 @2 @2 @2 @2 @2 @2 @2 @2 @2 @2 @2 @2 @2 @2 @2 @2 @2 @2 @2 @2 @2 @2 @2 @2 @2 @2 @2 @2 @2 @2 @2 @2 @2 @2 @2 @2 @2 @2 @2 @2 @2 @2 @2 @2 @2 @2 @2 @2 @2 @2 @2 @2 @2 @2 @2 @2 @2 @2 @2 @2 @2 @2 @2 @2 @2 @2 @2 @2 @2 @2 @2 @2 @2 @2 @2 @2 @2 @2 @2 @2 @2 @2 @2 @2 @2 @2 @2 @2 @2 @2 @2 @2 @2 @2 @2 @2 @2 @2 @2 @2 @2 @2 @2 @2 @2 @2 @2 @2 @2 @2 @2 @2 @2 @2 @2 @2 @2 @2 @2 @2 @2 @2 @2 @2 2 2 2 B2 B2 B2 B2 B2 B2 B2 B2 B2 B2 B2 B2 B2 B2 B2 B2 B2 B2 B2 B2 B2 B2 B2 B2 B2 B2 B2 B2 B2 B2 B2 B2 B2 B2 B2 B2 B2 B2 B2 B2 B2 B2 B2 B2 B2 B2 B2 B2 B2 B2 B2 B2 B2 B2 B2 B2 B2 B2 B2 B2 B2 B2 B2 B2 B2 B2 B2 B2 B2 B2 B2 B2 B2 B2 B2 B2 B2 B2 B2 B2 B2 B2 B2 B2 B2 B2 B2 B2 B2 B2 B2 B2 B2 B2 B2 B2 B2 B2 B2 B2 B2 B2 B2 B2 B2 B2 B2 B2 B2 B2 B2 B2 B2 B2 B2 B2 B2 B2 B2 B2 B2 B2 B2 B2 B2 B2 B2 B2 B2 B2 B2 B2 B2 B2 B2 B2 B2 B2 B2 B2 B2 B2 B2 B2 B2 B2 B2 B2 B2 B2 B2 B2     .C .C .C .C .C .C .C .C .C .C .C .C .C .C .C .C .C .C .C .C .C .C .C .C .C .C .C .C .C .C .C .C .C .C .C .C .C .C .C .C .C .C .C .C .C .C .C .C .C .C .C .C .C .C .C .C .C .C .C .C .C .C .C .C .C .C .C .C .C .C .C .C .C .C .C .C .C .C .C .C .C .C .C .C .C .C .C .C .C .C .C .C .C .C .C .C .C .C .C .C .C .C .C .C .C .C .C .C .C .C .C .C .C .C .C .C .C .C .C .C .C .C .C .C .C .C .C .C .C .C .C .C .C .C .C .C .C .C .C .C .C .C .C .C .C .C .C .C .C .C .C .C C C C C C- C- C- C- C- C- C- C- C- C- C- C- C- C- C- C- C- C- C- C- C- C- C- C- C- C- C- C- C- C- C- C- C- C- C- C- C- C- C- C- C- C- C- C- C- C- C- C- C- C- C- C- C- C- C- C- C- C- C- C- C- C- C- C- C- C- C- C- C- C- C- C- C- C- C- C- C- C- C- C- C- C- C- C- C- C- C- C- C- C- C- C- C- C- C- C- C- C- C- C- C- C- C- C- C- C- C- C- C- C- C- C- C- C- C- C- C- C- C- C- C- C- C- C- C- C- C- C- C- C- C- C- C- C- C- C- C- C- C- C- C- C- C- C- C- C- C- C- C- C- C- -    +7 +7 +7 +7 +7 +7 +7 +7 +7 +7 +7 +7 +7 +7 +7 +7 +7 +7 +7 +7 +7 +7 +7 +7 +7 +7 +7 +7 +7 +7 +7 +7 +7 +7 +7 +7 +7 +7 +7 +7 +7 +7 +7 +7 +7 +7 +7 +7 +7 +7 +7 +7 +7 +7 +7 +7 +7 +7 +7 +7 +7 +7 +7 +7 +7 +7 +7 +7 +7 +7 +7 +7 +7 +7 +7 +7 +7 +7 +7 +7 +7 +7 +7 +7 +7 +7 +7 +7 +7 +7 +7 +7 +7 +7 +7 +7 +7 +7 +7 +7 +7 +7 +7 +7 +7 +7 +7 +7 +7 +7 +7 +7 +7 +7 +7 +7 +7 +7 +7 +7 +7 +7 +7 +7 +7 +7 +7 +7 +7 +7 +7 +7 +7 +7 +7 +7 +7 +7 +7 +7 +7 +7 +7 +7 +7 +7 +7 +7 +7 +7 +7 +7 7 7 7 7 7- 7- 7- 7- 7- 7- 7- 7- 7- 7- 7- 7- 7- 7- 7- 7- 7- 7- 7- 7- 7- 7- 7- 7- 7- 7- 7- 7- 7- 7- 7- 7- 7- 7- 7- 7- 7- 7- 7- 7- 7- 7- 7- 7- 7- 7- 7- 7- 7- 7- 7- 7- 7- 7- 7- 7- 7- 7- 7- 7- 7- 7- 7- 7- 7- 7- 7- 7- 7- 7- 7- 7- 7- 7- 7- 7- 7- 7- 7- 7- 7- 7- 7- 7- 7- 7- 7- 7- 7- 7- 7- 7- 7- 7- 7- 7- 7- 7- 7- 7- 7- 7- 7- 7- 7- 7- 7- 7- 7- 7- 7- 7- 7- 7- 7- 7- 7- 7- 7- 7- 7- 7- 7- 7- 7- 7- 7- 7- 7- 7- 7- 7- 7- 7- 7- 7- 7- 7- 7- 7- 7- 7- 7- 7- 7- 7- 7- 7- 7- 7- 7- -    .7 .7 .7 .7 .7 .7 .7 .7 .7 .7 .7 .7 .7 .7 .7 .7 .7 .7 .7 .7 .7 .7 .7 .7 .7 .7 .7 .7 .7 .7 .7 .7 .7 .7 .7 .7 .7 .7 .7 .7 .7 .7 .7 .7 .7 .7 .7 .7 .7 .7 .7 .7 .7 .7 .7 .7 .7 .7 .7 .7 .7 .7 .7 .7 .7 .7 .7 .7 .7 .7 .7 .7 .7 .7 .7 .7 .7 .7 .7 .7 .7 .7 .7 .7 .7 .7 .7 .7 .7 .7 .7 .7 .7 .7 .7 .7 .7 .7 .7 .7 .7 .7 .7 .7 .7 .7 .7 .7 .7 .7 .7 .7 .7 .7 .7 .7 .7 .7 .7 .7 .7 .7 .7 .7 .7 .7 .7 .7 .7 .7 .7 .7 .7 .7 .7 .7 .7 .7 .7 .7 .7 .7 .7 .7 .7 .7 .7 .7 .7 .7 .7 .7 7 7 7 7 70 70 70 70 70 70 70 70 70 70 70 70 70 70 70 70 70 70 70 70 70 70 70 70 70 70 70 70 70 70 70 70 70 70 70 70 70 70 70 70 70 70 70 70 70 70 70 70 70 70 70 70 70 70 70 70 70 70 70 70 70 70 70 70 70 70 70 70 70 70 70 70 70 70 70 70 70 70 70 70 70 70 70 70 70 70 70 70 70 70 70 70 70 70 70 70 70 70 70 70 70 70 70 70 70 70 70 70 70 70 70 70 70 70 70 70 70 70 70 70 70 70 70 70 70 70 70 70 70 70 70 70 70 70 70 70 70 70 70 70 70 70 70 70 70 70 70 70 70 70 70 0    26 26 26 26 26 26 26 26 26 26 26 26 26 26 26 26 26 26 26 26 26 26 26 26 26 26 26 26 26 26 26 26 26 26 26 26 26 26 26 26 26 26 26 26 26 26 26 26 26 26 26 26 26 26 26 26 26 26 26 26 26 26 26 26 26 26 26 26 26 26 26 26 26 26 26 26 26 26 26 26 26 26 26 26 26 26 26 26 26 26 26 26 26 26 26 26 26 26 26 26 26 26 26 26 26 26 26 26 26 26 26 26 26 26 26 26 26 26 26 26 26 26 26 26 26 26 26 26 26 26 26 26 26 26 26 26 26 26 26 26 26 26 26 26 26 26 26 26 26 26 26 26 6 6 6 6 60 60 60 60 60 60 60 60 60 60 60 60 60 60 60 60 60 60 60 60 60 60 60 60 60 60 60 60 60 60 60 60 60 60 60 60 60 60 60 60 60 60 60 60 60 60 60 60 60 60 60 60 60 60 60 60 60 60 60 60 60 60 60 60 60 60 60 60 60 60 60 60 60 60 60 60 60 60 60 60 60 60 60 60 60 60 60 60 60 60 60 60 60 60 60 60 60 60 60 60 60 60 60 60 60 60 60 60 60 60 60 60 60 60 60 60 60 60 60 60 60 60 60 60 60 60 60 60 60 60 60 60 60 60 60 60 60 60 60 60 60 60 60 60 60 60 60 60 60 60 60 0    2> 2> 2> 2> 2> 2> 2> 2> 2> 2> 2> 2> 2> 2> 2> 2> 2> 2> 2> 2> 2> 2> 2> 2> 2> 2> 2> 2> 2> 2> 2> 2> 2> 2> 2> 2> 2> 2> 2> 2> 2> 2> 2> 2> 2> 2> 2> 2> 2> 2> 2> 2> 2> 2> 2> 2> 2> 2> 2> 2> 2> 2> 2> 2> 2> 2> 2> 2> 2> 2> 2> 2> 2> 2> 2> 2> 2> 2> 2> 2> 2> 2> 2> 2> 2> 2> 2> 2> 2> 2> 2> 2> 2> 2> 2> 2> 2> 2> 2> 2> 2> 2> 2> 2> 2> 2> 2> 2> 2> 2> 2> 2> 2> 2> 2> 2> 2> 2> 2> 2> 2> 2> 2> 2> 2> 2> 2> 2> 2> 2> 2> 2> 2> 2> 2> 2> 2> 2> 2> 2> 2> 2> 2> 2> 2> 2> 2> 2> 2> 2> 2> 2> > > > > >4 >4 >4 >4 >4 >4 >4 >4 >4 >4 >4 >4 >4 >4 >4 >4 >4 >4 >4 >4 >4 >4 >4 >4 >4 >4 >4 >4 >4 >4 >4 >4 >4 >4 >4 >4 >4 >4 >4 >4 >4 >4 >4 >4 >4 >4 >4 >4 >4 >4 >4 >4 >4 >4 >4 >4 >4 >4 >4 >4 >4 >4 >4 >4 >4 >4 >4 >4 >4 >4 >4 >4 >4 >4 >4 >4 >4 >4 >4 >4 >4 >4 >4 >4 >4 >4 >4 >4 >4 >4 >4 >4 >4 >4 >4 >4 >4 >4 >4 >4 >4 >4 >4 >4 >4 >4 >4 >4 >4 >4 >4 >4 >4 >4 >4 >4 >4 >4 >4 >4 >4 >4 >4 >4 >4 >4 >4 >4 >4 >4 >4 >4 >4 >4 >4 >4 >4 >4 >4 >4 >4 >4 >4 >4 >4 >4 >4 >4 >4 >4 >4 4    6> 6> 6> 6> 6> 6> 6> 6> 6> 6> 6> 6> 6> 6> 6> 6> 6> 6> 6> 6> 6> 6> 6> 6> 6> 6> 6> 6> 6> 6> 6> 6> 6> 6> 6> 6> 6> 6> 6> 6> 6> 6> 6> 6> 6> 6> 6> 6> 6> 6> 6> 6> 6> 6> 6> 6> 6> 6> 6> 6> 6> 6> 6> 6> 6> 6> 6> 6> 6> 6> 6> 6> 6> 6> 6> 6> 6> 6> 6> 6> 6> 6> 6> 6> 6> 6> 6> 6> 6> 6> 6> 6> 6> 6> 6> 6> 6> 6> 6> 6> 6> 6> 6> 6> 6> 6> 6> 6> 6> 6> 6> 6> 6> 6> 6> 6> 6> 6> 6> 6> 6> 6> 6> 6> 6> 6> 6> 6> 6> 6> 6> 6> 6> 6> 6> 6> 6> 6> 6> 6> 6> 6> 6> 6> 6> 6> 6> 6> 6> 6> 6> 6> > > > > >2 >2 >2 >2 >2 >2 >2 >2 >2 >2 >2 >2 >2 >2 >2 >2 >2 >2 >2 >2 >2 >2 >2 >2 >2 >2 >2 >2 >2 >2 >2 >2 >2 >2 >2 >2 >2 >2 >2 >2 >2 >2 >2 >2 >2 >2 >2 >2 >2 >2 >2 >2 >2 >2 >2 >2 >2 >2 >2 >2 >2 >2 >2 >2 >2 >2 >2 >2 >2 >2 >2 >2 >2 >2 >2 >2 >2 >2 >2 >2 >2 >2 >2 >2 >2 >2 >2 >2 >2 >2 >2 >2 >2 >2 >2 >2 >2 >2 >2 >2 >2 >2 >2 >2 >2 >2 >2 >2 >2 >2 >2 >2 >2 >2 >2 >2 >2 >2 >2 >2 >2 >2 >2 >2 >2 >2 >2 >2 >2 >2 >2 >2 >2 >2 >2 >2 >2 >2 >2 >2 >2 >2 >2 >2 >2 >2 >2 >2 >2 >2 >2 2    7: 7: 7: 7: 7: 7: 7: 7: 7: 7: 7: 7: 7: 7: 7: 7: 7: 7: 7: 7: 7: 7: 7: 7: 7: 7: 7: 7: 7: 7: 7: 7: 7: 7: 7: 7: 7: 7: 7: 7: 7: 7: 7: 7: 7: 7: 7: 7: 7: 7: 7: 7: 7: 7: 7: 7: 7: 7: 7: 7: 7: 7: 7: 7: 7: 7: 7: 7: 7: 7: 7: 7: 7: 7: 7: 7: 7: 7: 7: 7: 7: 7: 7: 7: 7: 7: 7: 7: 7: 7: 7: 7: 7: 7: 7: 7: 7: 7: 7: 7: 7: 7: 7: 7: 7: 7: 7: 7: 7: 7: 7: 7: 7: 7: 7: 7: 7: 7: 7: 7: 7: 7: 7: 7: 7: 7: 7: 7: 7: 7: 7: 7: 7: 7: 7: 7: 7: 7: 7: 7: 7: 7: 7: 7: 7: 7: 7: 7: 7: 7: 7: 7: : : : : :6 :6 :6 :6 :6 :6 :6 :6 :6 :6 :6 :6 :6 :6 :6 :6 :6 :6 :6 :6 :6 :6 :6 :6 :6 :6 :6 :6 :6 :6 :6 :6 :6 :6 :6 :6 :6 :6 :6 :6 :6 :6 :6 :6 :6 :6 :6 :6 :6 :6 :6 :6 :6 :6 :6 :6 :6 :6 :6 :6 :6 :6 :6 :6 :6 :6 :6 :6 :6 :6 :6 :6 :6 :6 :6 :6 :6 :6 :6 :6 :6 :6 :6 :6 :6 :6 :6 :6 :6 :6 :6 :6 :6 :6 :6 :6 :6 :6 :6 :6 :6 :6 :6 :6 :6 :6 :6 :6 :6 :6 :6 :6 :6 :6 :6 :6 :6 :6 :6 :6 :6 :6 :6 :6 :6 :6 :6 :6 :6 :6 :6 :6 :6 :6 :6 :6 :6 :6 :6 :6 :6 :6 :6 :6 :6 :6 :6 :6 :6 :6 :6 6    7C 7C 7C 7C 7C 7C 7C 7C 7C 7C 7C 7C 7C 7C 7C 7C 7C 7C 7C 7C 7C 7C 7C 7C 7C 7C 7C 7C 7C 7C 7C 7C 7C 7C 7C 7C 7C 7C 7C 7C 7C 7C 7C 7C 7C 7C 7C 7C 7C 7C 7C 7C 7C 7C 7C 7C 7C 7C 7C 7C 7C 7C 7C 7C 7C 7C 7C 7C 7C 7C 7C 7C 7C 7C 7C 7C 7C 7C 7C 7C 7C 7C 7C 7C 7C 7C 7C 7C 7C 7C 7C 7C 7C 7C 7C 7C 7C 7C 7C 7C 7C 7C 7C 7C 7C 7C 7C 7C 7C 7C 7C 7C 7C 7C 7C 7C 7C 7C 7C 7C 7C 7C 7C 7C 7C 7C 7C 7C 7C 7C 7C 7C 7C 7C 7C 7C 7C 7C 7C 7C 7C 7C 7C 7C 7C 7C 7C 7C 7C 7C 7C 7C C C C C C9 C9 C9 C9 C9 C9 C9 C9 C9 C9 C9 C9 C9 C9 C9 C9 C9 C9 C9 C9 C9 C9 C9 C9 C9 C9 C9 C9 C9 C9 C9 C9 C9 C9 C9 C9 C9 C9 C9 C9 C9 C9 C9 C9 C9 C9 C9 C9 C9 C9 C9 C9 C9 C9 C9 C9 C9 C9 C9 C9 C9 C9 C9 C9 C9 C9 C9 C9 C9 C9 C9 C9 C9 C9 C9 C9 C9 C9 C9 C9 C9 C9 C9 C9 C9 C9 C9 C9 C9 C9 C9 C9 C9 C9 C9 C9 C9 C9 C9 C9 C9 C9 C9 C9 C9 C9 C9 C9 C9 C9 C9 C9 C9 C9 C9 C9 C9 C9 C9 C9 C9 C9 C9 C9 C9 C9 C9 C9 C9 C9 C9 C9 C9 C9 C9 C9 C9 C9 C9 C9 C9 C9 C9 C9 C9 C9 C9 C9 C9 C9 C9 9    :C :C :C :C :C :C :C :C :C :C :C :C :C :C :C :C :C :C :C :C :C :C :C :C :C :C :C :C :C :C :C :C :C :C :C :C :C :C :C :C :C :C :C :C :C :C :C :C :C :C :C :C :C :C :C :C :C :C :C :C :C :C :C :C :C :C :C :C :C :C :C :C :C :C :C :C :C :C :C :C :C :C :C :C :C :C :C :C :C :C :C :C :C :C :C :C :C :C :C :C :C :C :C :C :C :C :C :C :C :C :C :C :C :C :C :C :C :C :C :C :C :C :C :C :C :C :C :C :C :C :C :C :C :C :C :C :C :C :C :C :C :C :C :C :C :C :C :C :C :C :C :C C C C C C< C< C< C< C< C< C< C< C< C< C< C< C< C< C< C< C< C< C< C< C< C< C< C< C< C< C< C< C< C< C< C< C< C< C< C< C< C< C< C< C< C< C< C< C< C< C< C< C< C< C< C< C< C< C< C< C< C< C< C< C< C< C< C< C< C< C< C< C< C< C< C< C< C< C< C< C< C< C< C< C< C< C< C< C< C< C< C< C< C< C< C< C< C< C< C< C< C< C< C< C< C< C< C< C< C< C< C< C< C< C< C< C< C< C< C< C< C< C< C< C< C< C< C< C< C< C< C< C< C< C< C< C< C< C< C< C< C< C< C< C< C< C< C< C< C< C< C< C< C< C< <    >B >B >B >B >B >B >B >B >B >B >B >B >B >B >B >B >B >B >B >B >B >B >B >B >B >B >B >B >B >B >B >B >B >B >B >B >B >B >B >B >B >B >B >B >B >B >B >B >B >B >B >B >B >B >B >B >B >B >B >B >B >B >B >B >B >B >B >B >B >B >B >B >B >B >B >B >B >B >B >B >B >B >B >B >B >B >B >B >B >B >B >B >B >B >B >B >B >B >B >B >B >B >B >B >B >B >B >B >B >B >B >B >B >B >B >B >B >B >B >B >B >B >B >B >B >B >B >B >B >B >B >B >B >B >B >B >B >B >B >B >B >B >B >B >B >B >B >B >B >B >B >B B B B B B< B< B< B< B< B< B< B< B< B< B< B< B< B< B< B< B< B< B< B< B< B< B< B< B< B< B< B< B< B< B< B< B< B< B< B< B< B< B< B< B< B< B< B< B< B< B< B< B< B< B< B< B< B< B< B< B< B< B< B< B< B< B< B< B< B< B< B< B< B< B< B< B< B< B< B< B< B< B< B< B< B< B< B< B< B< B< B< B< B< B< B< B< B< B< B< B< B< B< B< B< B< B< B< B< B< B< B< B< B< B< B< B< B< B< B< B< B< B< B< B< B< B< B< B< B< B< B< B< B< B< B< B< B< B< B< B< B< B< B< B< B< B< B< B< B< B< B< B< B< B< <    >J >J >J >J >J >J >J >J >J >J >J >J >J >J >J >J >J >J >J >J >J >J >J >J >J >J >J >J >J >J >J >J >J >J >J >J >J >J >J >J >J >J >J >J >J >J >J >J >J >J >J >J >J >J >J >J >J >J >J >J >J >J >J >J >J >J >J >J >J >J >J >J >J >J >J >J >J >J >J >J >J >J >J >J >J >J >J >J >J >J >J >J >J >J >J >J >J >J >J >J >J >J >J >J >J >J >J >J >J >J >J >J >J >J >J >J >J >J >J >J >J >J >J >J >J >J >J >J >J >J >J >J >J >J >J >J >J >J >J >J >J >J >J >J >J >J >J >J >J >J >J >J J J J J J@ J@ J@ J@ J@ J@ J@ J@ J@ J@ J@ J@ J@ J@ J@ J@ J@ J@ J@ J@ J@ J@ J@ J@ J@ J@ J@ J@ J@ J@ J@ J@ J@ J@ J@ J@ J@ J@ J@ J@ J@ J@ J@ J@ J@ J@ J@ J@ J@ J@ J@ J@ J@ J@ J@ J@ J@ J@ J@ J@ J@ J@ J@ J@ J@ J@ J@ J@ J@ J@ J@ J@ J@ J@ J@ J@ J@ J@ J@ J@ J@ J@ J@ J@ J@ J@ J@ J@ J@ J@ J@ J@ J@ J@ J@ J@ J@ J@ J@ J@ J@ J@ J@ J@ J@ J@ J@ J@ J@ J@ J@ J@ J@ J@ J@ J@ J@ J@ J@ J@ J@ J@ J@ J@ J@ J@ J@ J@ J@ J@ J@ J@ J@ J@ J@ J@ J@ J@ J@ J@ J@ J@ J@ J@ J@ J@ J@ J@ J@ J@ J@ @    BJ BJ BJ BJ BJ BJ BJ BJ BJ BJ BJ BJ BJ BJ BJ BJ BJ BJ BJ BJ BJ BJ BJ BJ BJ BJ BJ BJ BJ BJ BJ BJ BJ BJ BJ BJ BJ BJ BJ BJ BJ BJ BJ BJ BJ BJ BJ BJ BJ BJ BJ BJ BJ BJ BJ BJ BJ BJ BJ BJ BJ BJ BJ BJ BJ BJ BJ BJ BJ BJ BJ BJ BJ BJ BJ BJ BJ BJ BJ BJ BJ BJ BJ BJ BJ BJ BJ BJ BJ BJ BJ BJ BJ BJ BJ BJ BJ BJ BJ BJ BJ BJ BJ BJ BJ BJ BJ BJ BJ BJ BJ BJ BJ BJ BJ BJ BJ BJ BJ BJ BJ BJ BJ BJ BJ BJ BJ BJ BJ BJ BJ BJ BJ BJ BJ BJ BJ BJ BJ BJ BJ BJ BJ BJ BJ BJ BJ BJ BJ BJ BJ BJ J J J J J> J> J> J> J> J> J> J> J> J> J> J> J> J> J> J> J> J> J> J> J> J> J> J> J> J> J> J> J> J> J> J> J> J> J> J> J> J> J> J> J> J> J> J> J> J> J> J> J> J> J> J> J> J> J> J> J> J> J> J> J> J> J> J> J> J> J> J> J> J> J> J> J> J> J> J> J> J> J> J> J> J> J> J> J> J> J> J> J> J> J> J> J> J> J> J> J> J> J> J> J> J> J> J> J> J> J> J> J> J> J> J> J> J> J> J> J> J> J> J> J> J> J> J> J> J> J> J> J> J> J> J> J> J> J> J> J> J> J> J> J> J> J> J> J> J> J> J> J> J> J> >    FC FC FC FC FC FC FC FC FC FC FC FC FC FC FC FC FC FC FC FC FC FC FC FC FC FC FC FC FC FC FC FC FC FC FC FC FC FC FC FC FC FC FC FC FC FC FC FC FC FC FC FC FC FC FC FC FC FC FC FC FC FC FC FC FC FC FC FC FC FC FC FC FC FC FC FC FC FC FC FC FC FC FC FC FC FC FC FC FC FC FC FC FC FC FC FC FC FC FC FC FC FC FC FC FC FC FC FC FC FC FC FC FC FC FC FC FC FC FC FC FC FC FC FC FC FC FC FC FC FC FC FC FC FC FC FC FC FC FC FC FC FC FC FC FC FC FC FC FC FC FC FC C C C C CE CE CE CE CE CE CE CE CE CE CE CE CE CE CE CE CE CE CE CE CE CE CE CE CE CE CE CE CE CE CE CE CE CE CE CE CE CE CE CE CE CE CE CE CE CE CE CE CE CE CE CE CE CE CE CE CE CE CE CE CE CE CE CE CE CE CE CE CE CE CE CE CE CE CE CE CE CE CE CE CE CE CE CE CE CE CE CE CE CE CE CE CE CE CE CE CE CE CE CE CE CE CE CE CE CE CE CE CE CE CE CE CE CE CE CE CE CE CE CE CE CE CE CE CE CE CE CE CE CE CE CE CE CE CE CE CE CE CE CE CE CE CE CE CE CE CE CE CE CE CE E     C>7: C>7: C>7: C>7: C>7: C>7: C>7: C>7: C>7: C>7: C>7: C>7: C>7: C>7: C>7: C>7: C>7: C>7: C>7: C>7: C>7: C>7: C>7: C>7: C>7: C>7: C>7: C>7: C>7: C>7: C>7: C>7: C>7: C>7: C>7: C>7: C>7: C>7: C>7: C>7: C>7: C>7: C>7: C>7: C>7: C>7: C>7: C>7: C>7: C>7: C>7: C>7: C>7: C>7: C>7: C>7: C>7: C>7: C>7: C>7: C>7: C>7: C>7: C>7: C>7: C>7: C>7: C>7: C>7: C>7: C>7: C>7: C>7: C>7: C>7: C>7: C>7: C>7: C>7: C>7: C>7: C>7: C>7: C>7: C>7: C>7: C>7: C>7: C>7: C>7: C>7: C>7: C>7: C>7: C>7: C>7: C>7: C>7: C>7: C>7: C>7: C>7: C>7: C>7: C>7: C>7: C>7: C>7: C>7: C>7: C>7: C>7: C>7: C>7: C>7: C>7: C>7: C>7: C>7: C>7: C>7: C>7: C>7: C>7: C>7: C>7: C>7: C>7: C>7: C>7: C>7: C>7: C>7: C>7: C>7: C>7: C>7: C>7: C>7: C>7: C>7: C>7: C>7: C>7: C>7: C>7: C>7: C>7: C>7: C>7: C>7: C>7: >7: >7: >7: E>7: E>7: E>7: E>7: E>7: E>7: E>7: E>7: E>7: E>7: E>7: E>7: E>7: E>7: E>7: E>7: E>7: E>7: E>7: E>7: E>7: E>7: E>7: E>7: E>7: E>7: E>7: E>7: E>7: E>7: E>7: E>7: E>7: E>7: E>7: E>7: E>7: E>7: E>7: E>7: E>7: E>7: E>7: E>7: E>7: E>7: E>7: E>7: E>7: E>7: E>7: E>7: E>7: E>7: E>7: E>7: E>7: E>7: E>7: E>7: E>7: E>7: E>7: E>7: E>7: E>7: E>7: E>7: E>7: E>7: E>7: E>7: E>7: E>7: E>7: E>7: E>7: E>7: E>7: E>7: E>7: E>7: E>7: E>7: E>7: E>7: E>7: E>7: E>7: E>7: E>7: E>7: E>7: E>7: E>7: E>7: E>7: E>7: E>7: E>7: E>7: E>7: E>7: E>7: E>7: E>7: E>7: E>7: E>7: E>7: E>7: E>7: E>7: E>7: E>7: E>7: E>7: E>7: E>7: E>7: E>7: E>7: E>7: E>7: E>7: E>7: E>7: E>7: E>7: E>7: E>7: E>7: E>7: E>7: E>7: E>7: E>7: E>7: E>7: E>7: E>7: E>7: E>7: E>7: E>7: E>7: E>7: E>7: E>7: E>7: E>7: E>7:     F>7: F>7: F>7: F>7: F>7: F>7: F>7: F>7: F>7: F>7: F>7: F>7: F>7: F>7: F>7: F>7: F>7: F>7: F>7: F>7: F>7: F>7: F>7: F>7: F>7: F>7: F>7: F>7: F>7: F>7: F>7: F>7: F>7: F>7: F>7: F>7: F>7: F>7: F>7: F>7: F>7: F>7: F>7: F>7: F>7: F>7: F>7: F>7: F>7: F>7: F>7: F>7: F>7: F>7: F>7: F>7: F>7: F>7: F>7: F>7: F>7: F>7: F>7: F>7: F>7: F>7: F>7: F>7: F>7: F>7: F>7: F>7: F>7: F>7: F>7: F>7: F>7: F>7: F>7: F>7: F>7: F>7: F>7: F>7: F>7: F>7: F>7: F>7: F>7: F>7: F>7: F>7: F>7: F>7: F>7: F>7: F>7: F>7: F>7: F>7: F>7: F>7: F>7: F>7: F>7: F>7: F>7: F>7: F>7: F>7: F>7: F>7: F>7: F>7: F>7: F>7: F>7: F>7: F>7: F>7: F>7: F>7: F>7: F>7: F>7: F>7: F>7: F>7: F>7: F>7: F>7: F>7: F>7: F>7: F>7: F>7: F>7: F>7: F>7: F>7: F>7: F>7: F>7: F>7: F>7: F>7: F>7: F>7: F>7: F>7: F>7: F>7: >7: >7: >7: H>7: H>7: H>7: H>7: H>7: H>7: H>7: H>7: H>7: H>7: H>7: H>7: H>7: H>7: H>7: H>7: H>7: H>7: H>7: H>7: H>7: H>7: H>7: H>7: H>7: H>7: H>7: H>7: H>7: H>7: H>7: H>7: H>7: H>7: H>7: H>7: H>7: H>7: H>7: H>7: H>7: H>7: H>7: H>7: H>7: H>7: H>7: H>7: H>7: H>7: H>7: H>7: H>7: H>7: H>7: H>7: H>7: H>7: H>7: H>7: H>7: H>7: H>7: H>7: H>7: H>7: H>7: H>7: H>7: H>7: H>7: H>7: H>7: H>7: H>7: H>7: H>7: H>7: H>7: H>7: H>7: H>7: H>7: H>7: H>7: H>7: H>7: H>7: H>7: H>7: H>7: H>7: H>7: H>7: H>7: H>7: H>7: H>7: H>7: H>7: H>7: H>7: H>7: H>7: H>7: H>7: H>7: H>7: H>7: H>7: H>7: H>7: H>7: H>7: H>7: H>7: H>7: H>7: H>7: H>7: H>7: H>7: H>7: H>7: H>7: H>7: H>7: H>7: H>7: H>7: H>7: H>7: H>7: H>7: H>7: H>7: H>7: H>7: H>7: H>7: H>7: H>7: H>7: H>7: H>7: H>7: H>7: H>7: H>7: H>7: H>7: H>7:     J>96 J>96 J>96 J>96 J>96 J>96 J>96 J>96 J>96 J>96 J>96 J>96 J>96 J>96 J>96 J>96 J>96 J>96 J>96 J>96 J>96 J>96 J>96 J>96 J>96 J>96 J>96 J>96 J>96 J>96 J>96 J>96 J>96 J>96 J>96 J>96 J>96 J>96 J>96 J>96 J>96 J>96 J>96 J>96 J>96 J>96 J>96 J>96 J>96 J>96 J>96 J>96 J>96 J>96 J>96 J>96 J>96 J>96 J>96 J>96 J>96 J>96 J>96 J>96 J>96 J>96 J>96 J>96 J>96 J>96 J>96 J>96 J>96 J>96 J>96 J>96 J>96 J>96 J>96 J>96 J>96 J>96 J>96 J>96 J>96 J>96 J>96 J>96 J>96 J>96 J>96 J>96 J>96 J>96 J>96 J>96 J>96 J>96 J>96 J>96 J>96 J>96 J>96 J>96 J>96 J>96 J>96 J>96 J>96 J>96 J>96 J>96 J>96 J>96 J>96 J>96 J>96 J>96 J>96 J>96 J>96 J>96 J>96 J>96 J>96 J>96 J>96 J>96 J>96 J>96 J>96 J>96 J>96 J>96 J>96 J>96 J>96 J>96 J>96 J>96 J>96 J>96 J>96 J>96 J>96 J>96 J>96 J>96 J>96 J>96 J>96 J>96 >96 >96 >96 H>96 H>96 H>96 H>96 H>96 H>96 H>96 H>96 H>96 H>96 H>96 H>96 H>96 H>96 H>96 H>96 H>96 H>96 H>96 H>96 H>96 H>96 H>96 H>96 H>96 H>96 H>96 H>96 H>96 H>96 H>96 H>96 H>96 H>96 H>96 H>96 H>96 H>96 H>96 H>96 H>96 H>96 H>96 H>96 H>96 H>96 H>96 H>96 H>96 H>96 H>96 H>96 H>96 H>96 H>96 H>96 H>96 H>96 H>96 H>96 H>96 H>96 H>96 H>96 H>96 H>96 H>96 H>96 H>96 H>96 H>96 H>96 H>96 H>96 H>96 H>96 H>96 H>96 H>96 H>96 H>96 H>96 H>96 H>96 H>96 H>96 H>96 H>96 H>96 H>96 H>96 H>96 H>96 H>96 H>96 H>96 H>96 H>96 H>96 H>96 H>96 H>96 H>96 H>96 H>96 H>96 H>96 H>96 H>96 H>96 H>96 H>96 H>96 H>96 H>96 H>96 H>96 H>96 H>96 H>96 H>96 H>96 H>96 H>96 H>96 H>96 H>96 H>96 H>96 H>96 H>96 H>96 H>96 H>96 H>96 H>96 H>96 H>96 H>96 H>96 H>96 H>96 H>96 H>96 H>96 H>96 H>96 H>96 H>96 H>96 H>96 H>96     J269 J269 J269 J269 J269 J269 J269 J269 J269 J269 J269 J269 J269 J269 J269 J269 J269 J269 J269 J269 J269 J269 J269 J269 J269 J269 J269 J269 J269 J269 J269 J269 J269 J269 J269 J269 J269 J269 J269 J269 J269 J269 J269 J269 J269 J269 J269 J269 J269 J269 J269 J269 J269 J269 J269 J269 J269 J269 J269 J269 J269 J269 J269 J269 J269 J269 J269 J269 J269 J269 J269 J269 J269 J269 J269 J269 J269 J269 J269 J269 J269 J269 J269 J269 J269 J269 J269 J269 J269 J269 J269 J269 J269 J269 J269 J269 J269 J269 J269 J269 J269 J269 J269 J269 J269 J269 J269 J269 J269 J269 J269 J269 J269 J269 J269 J269 J269 J269 J269 J269 J269 J269 J269 J269 J269 J269 J269 J269 J269 J269 J269 J269 J269 J269 J269 J269 J269 J269 J269 J269 J269 J269 J269 J269 J269 J269 J269 J269 J269 J269 J269 J269 269 269 269 L269 L269 L269 L269 L269 L269 L269 L269 L269 L269 L269 L269 L269 L269 L269 L269 L269 L269 L269 L269 L269 L269 L269 L269 L269 L269 L269 L269 L269 L269 L269 L269 L269 L269 L269 L269 L269 L269 L269 L269 L269 L269 L269 L269 L269 L269 L269 L269 L269 L269 L269 L269 L269 L269 L269 L269 L269 L269 L269 L269 L269 L269 L269 L269 L269 L269 L269 L269 L269 L269 L269 L269 L269 L269 L269 L269 L269 L269 L269 L269 L269 L269 L269 L269 L269 L269 L269 L269 L269 L269 L269 L269 L269 L269 L269 L269 L269 L269 L269 L269 L269 L269 L269 L269 L269 L269 L269 L269 L269 L269 L269 L269 L269 L269 L269 L269 L269 L269 L269 L269 L269 L269 L269 L269 L269 L269 L269 L269 L269 L269 L269 L269 L269 L269 L269 L269 L269 L269 L269 L269 L269 L269 L269 L269 L269 L269 L269 L269 L269 L269 L269 L269     N926 N926 N926 N926 N926 N926 N926 N926 N926 N926 N926 N926 N926 N926 N926 N926 N926 N926 N926 N926 N926 N926 N926 N926 N926 N926 N926 N926 N926 N926 N926 N926 N926 N926 N926 N926 N926 N926 N926 N926 N926 N926 N926 N926 N926 N926 N926 N926 N926 N926 N926 N926 N926 N926 N926 N926 N926 N926 N926 N926 N926 N926 N926 N926 N926 N926 N926 N926 N926 N926 N926 N926 N926 N926 N926 N926 N926 N926 N926 N926 N926 N926 N926 N926 N926 N926 N926 N926 N926 N926 N926 N926 N926 N926 N926 N926 N926 N926 N926 N926 N926 N926 N926 N926 N926 N926 N926 N926 N926 N926 N926 N926 N926 N926 N926 N926 N926 N926 N926 N926 N926 N926 N926 N926 N926 N926 N926 N926 N926 N926 N926 N926 N926 N926 N926 N926 N926 N926 N926 N926 N926 N926 N926 N926 N926 N926 N926 N926 N926 N926 N926 N926 926 926 926 J926 J926 J926 J926 J926 J926 J926 J926 J926 J926 J926 J926 J926 J926 J926 J926 J926 J926 J926 J926 J926 J926 J926 J926 J926 J926 J926 J926 J926 J926 J926 J926 J926 J926 J926 J926 J926 J926 J926 J926 J926 J926 J926 J926 J926 J926 J926 J926 J926 J926 J926 J926 J926 J926 J926 J926 J926 J926 J926 J926 J926 J926 J926 J926 J926 J926 J926 J926 J926 J926 J926 J926 J926 J926 J926 J926 J926 J926 J926 J926 J926 J926 J926 J926 J926 J926 J926 J926 J926 J926 J926 J926 J926 J926 J926 J926 J926 J926 J926 J926 J926 J926 J926 J926 J926 J926 J926 J926 J926 J926 J926 J926 J926 J926 J926 J926 J926 J926 J926 J926 J926 J926 J926 J926 J926 J926 J926 J926 J926 J926 J926 J926 J926 J926 J926 J926 J926 J926 J926 J926 J926 J926 J926 J926 J926 J926 J926 J926 J926 J926 J926 J926     O7.2 O7.2 O7.2 O7.2 O7.2 O7.2 O7.2 O7.2 O7.2 O7.2 O7.2 O7.2 O7.2 O7.2 O7.2 O7.2 O7.2 O7.2 O7.2 O7.2 O7.2 O7.2 O7.2 O7.2 O7.2 O7.2 O7.2 O7.2 O7.2 O7.2 O7.2 O7.2 O7.2 O7.2 O7.2 O7.2 O7.2 O7.2 O7.2 O7.2 O7.2 O7.2 O7.2 O7.2 O7.2 O7.2 O7.2 O7.2 O7.2 O7.2 O7.2 O7.2 O7.2 O7.2 O7.2 O7.2 O7.2 O7.2 O7.2 O7.2 O7.2 O7.2 O7.2 O7.2 O7.2 O7.2 O7.2 O7.2 O7.2 O7.2 O7.2 O7.2 O7.2 O7.2 O7.2 O7.2 O7.2 O7.2 O7.2 O7.2 O7.2 O7.2 O7.2 O7.2 O7.2 O7.2 O7.2 O7.2 O7.2 O7.2 O7.2 O7.2 O7.2 O7.2 O7.2 O7.2 O7.2 O7.2 O7.2 O7.2 O7.2 O7.2 O7.2 O7.2 O7.2 O7.2 O7.2 O7.2 O7.2 O7.2 O7.2 O7.2 O7.2 O7.2 O7.2 O7.2 O7.2 O7.2 O7.2 O7.2 O7.2 O7.2 O7.2 O7.2 O7.2 O7.2 O7.2 O7.2 O7.2 O7.2 O7.2 O7.2 O7.2 O7.2 O7.2 O7.2 O7.2 O7.2 O7.2 O7.2 O7.2 O7.2 O7.2 O7.2 O7.2 O7.2 O7.2 O7.2 O7.2 O7.2 O7.2 O7.2 7.2 7.2 7.2 N7.2 N7.2 N7.2 N7.2 N7.2 N7.2 N7.2 N7.2 N7.2 N7.2 N7.2 N7.2 N7.2 N7.2 N7.2 N7.2 N7.2 N7.2 N7.2 N7.2 N7.2 N7.2 N7.2 N7.2 N7.2 N7.2 N7.2 N7.2 N7.2 N7.2 N7.2 N7.2 N7.2 N7.2 N7.2 N7.2 N7.2 N7.2 N7.2 N7.2 N7.2 N7.2 N7.2 N7.2 N7.2 N7.2 N7.2 N7.2 N7.2 N7.2 N7.2 N7.2 N7.2 N7.2 N7.2 N7.2 N7.2 N7.2 N7.2 N7.2 N7.2 N7.2 N7.2 N7.2 N7.2 N7.2 N7.2 N7.2 N7.2 N7.2 N7.2 N7.2 N7.2 N7.2 N7.2 N7.2 N7.2 N7.2 N7.2 N7.2 N7.2 N7.2 N7.2 N7.2 N7.2 N7.2 N7.2 N7.2 N7.2 N7.2 N7.2 N7.2 N7.2 N7.2 N7.2 N7.2 N7.2 N7.2 N7.2 N7.2 N7.2 N7.2 N7.2 N7.2 N7.2 N7.2 N7.2 N7.2 N7.2 N7.2 N7.2 N7.2 N7.2 N7.2 N7.2 N7.2 N7.2 N7.2 N7.2 N7.2 N7.2 N7.2 N7.2 N7.2 N7.2 N7.2 N7.2 N7.2 N7.2 N7.2 N7.2 N7.2 N7.2 N7.2 N7.2 N7.2 N7.2 N7.2 N7.2 N7.2 N7.2 N7.2 N7.2 N7.2 N7.2 N7.2 N7.2 N7.2 N7.2 N7.2 N7.2 N7.2     O+.2 O+.2 O+.2 O+.2 O+.2 O+.2 O+.2 O+.2 O+.2 O+.2 O+.2 O+.2 O+.2 O+.2 O+.2 O+.2 O+.2 O+.2 O+.2 O+.2 O+.2 O+.2 O+.2 O+.2 O+.2 O+.2 O+.2 O+.2 O+.2 O+.2 O+.2 O+.2 O+.2 O+.2 O+.2 O+.2 O+.2 O+.2 O+.2 O+.2 O+.2 O+.2 O+.2 O+.2 O+.2 O+.2 O+.2 O+.2 O+.2 O+.2 O+.2 O+.2 O+.2 O+.2 O+.2 O+.2 O+.2 O+.2 O+.2 O+.2 O+.2 O+.2 O+.2 O+.2 O+.2 O+.2 O+.2 O+.2 O+.2 O+.2 O+.2 O+.2 O+.2 O+.2 O+.2 O+.2 O+.2 O+.2 O+.2 O+.2 O+.2 O+.2 O+.2 O+.2 O+.2 O+.2 O+.2 O+.2 O+.2 O+.2 O+.2 O+.2 O+.2 O+.2 O+.2 O+.2 O+.2 O+.2 O+.2 O+.2 O+.2 O+.2 O+.2 O+.2 O+.2 O+.2 O+.2 O+.2 O+.2 O+.2 O+.2 O+.2 O+.2 O+.2 O+.2 O+.2 O+.2 O+.2 O+.2 O+.2 O+.2 O+.2 O+.2 O+.2 O+.2 O+.2 O+.2 O+.2 O+.2 O+.2 O+.2 O+.2 O+.2 O+.2 O+.2 O+.2 O+.2 O+.2 O+.2 O+.2 O+.2 O+.2 O+.2 O+.2 O+.2 O+.2 O+.2 O+.2 O+.2 O+.2 O+.2 O+.2 +.2 +.2 +.2 Q+.2 Q+.2 Q+.2 Q+.2 Q+.2 Q+.2 Q+.2 Q+.2 Q+.2 Q+.2 Q+.2 Q+.2 Q+.2 Q+.2 Q+.2 Q+.2 Q+.2 Q+.2 Q+.2 Q+.2 Q+.2 Q+.2 Q+.2 Q+.2 Q+.2 Q+.2 Q+.2 Q+.2 Q+.2 Q+.2 Q+.2 Q+.2 Q+.2 Q+.2 Q+.2 Q+.2 Q+.2 Q+.2 Q+.2 Q+.2 Q+.2 Q+.2 Q+.2 Q+.2 Q+.2 Q+.2 Q+.2 Q+.2 Q+.2 Q+.2 Q+.2 Q+.2 Q+.2 Q+.2 Q+.2 Q+.2 Q+.2 Q+.2 Q+.2 Q+.2 Q+.2 Q+.2 Q+.2 Q+.2 Q+.2 Q+.2 Q+.2 Q+.2 Q+.2 Q+.2 Q+.2 Q+.2 Q+.2 Q+.2 Q+.2 Q+.2 Q+.2 Q+.2 Q+.2 Q+.2 Q+.2 Q+.2 Q+.2 Q+.2 Q+.2 Q+.2 Q+.2 Q+.2 Q+.2 Q+.2 Q+.2 Q+.2 Q+.2 Q+.2 Q+.2 Q+.2 Q+.2 Q+.2 Q+.2 Q+.2 Q+.2 Q+.2 Q+.2 Q+.2 Q+.2 Q+.2 Q+.2 Q+.2 Q+.2 Q+.2 Q+.2 Q+.2 Q+.2 Q+.2 Q+.2 Q+.2 Q+.2 Q+.2 Q+.2 Q+.2 Q+.2 Q+.2 Q+.2 Q+.2 Q+.2 Q+.2 Q+.2 Q+.2 Q+.2 Q+.2 Q+.2 Q+.2 Q+.2 Q+.2 Q+.2 Q+.2 Q+.2 Q+.2 Q+.2 Q+.2 Q+.2 Q+.2 Q+.2 Q+.2 Q+.2 Q+.2 Q+.2 Q+.2 Q+.2 Q+.2 Q+.2 Q+.2     R2.+ R2.+ R2.+ R2.+ R2.+ R2.+ R2.+ R2.+ R2.+ R2.+ R2.+ R2.+ R2.+ R2.+ R2.+ R2.+ R2.+ R2.+ R2.+ R2.+ R2.+ R2.+ R2.+ R2.+ R2.+ R2.+ R2.+ R2.+ R2.+ R2.+ R2.+ R2.+ R2.+ R2.+ R2.+ R2.+ R2.+ R2.+ R2.+ R2.+ R2.+ R2.+ R2.+ R2.+ R2.+ R2.+ R2.+ R2.+ R2.+ R2.+ R2.+ R2.+ R2.+ R2.+ R2.+ R2.+ R2.+ R2.+ R2.+ R2.+ R2.+ R2.+ R2.+ R2.+ R2.+ R2.+ R2.+ R2.+ R2.+ R2.+ R2.+ R2.+ R2.+ R2.+ R2.+ R2.+ R2.+ R2.+ R2.+ R2.+ R2.+ R2.+ R2.+ R2.+ R2.+ R2.+ R2.+ R2.+ R2.+ R2.+ R2.+ R2.+ R2.+ R2.+ R2.+ R2.+ R2.+ R2.+ R2.+ R2.+ R2.+ R2.+ R2.+ R2.+ R2.+ R2.+ R2.+ R2.+ R2.+ R2.+ R2.+ R2.+ R2.+ R2.+ R2.+ R2.+ R2.+ R2.+ R2.+ R2.+ R2.+ R2.+ R2.+ R2.+ R2.+ R2.+ R2.+ R2.+ R2.+ R2.+ R2.+ R2.+ R2.+ R2.+ R2.+ R2.+ R2.+ R2.+ R2.+ R2.+ R2.+ R2.+ R2.+ R2.+ R2.+ R2.+ R2.+ R2.+ R2.+ R2.+ R2.+ R2.+ 2.+ 2.+ 2.+ O2.+ O2.+ O2.+ O2.+ O2.+ O2.+ O2.+ O2.+ O2.+ O2.+ O2.+ O2.+ O2.+ O2.+ O2.+ O2.+ O2.+ O2.+ O2.+ O2.+ O2.+ O2.+ O2.+ O2.+ O2.+ O2.+ O2.+ O2.+ O2.+ O2.+ O2.+ O2.+ O2.+ O2.+ O2.+ O2.+ O2.+ O2.+ O2.+ O2.+ O2.+ O2.+ O2.+ O2.+ O2.+ O2.+ O2.+ O2.+ O2.+ O2.+ O2.+ O2.+ O2.+ O2.+ O2.+ O2.+ O2.+ O2.+ O2.+ O2.+ O2.+ O2.+ O2.+ O2.+ O2.+ O2.+ O2.+ O2.+ O2.+ O2.+ O2.+ O2.+ O2.+ O2.+ O2.+ O2.+ O2.+ O2.+ O2.+ O2.+ O2.+ O2.+ O2.+ O2.+ O2.+ O2.+ O2.+ O2.+ O2.+ O2.+ O2.+ O2.+ O2.+ O2.+ O2.+ O2.+ O2.+ O2.+ O2.+ O2.+ O2.+ O2.+ O2.+ O2.+ O2.+ O2.+ O2.+ O2.+ O2.+ O2.+ O2.+ O2.+ O2.+ O2.+ O2.+ O2.+ O2.+ O2.+ O2.+ O2.+ O2.+ O2.+ O2.+ O2.+ O2.+ O2.+ O2.+ O2.+ O2.+ O2.+ O2.+ O2.+ O2.+ O2.+ O2.+ O2.+ O2.+ O2.+ O2.+ O2.+ O2.+ O2.+ O2.+ O2.+ O2.+ O2.+ O2.+ O2.+ O2.+ O2.+ O2.+ O2.+     Q2*-& Q2*-& Q2*-& Q2*-& Q2*-& Q2*-& Q2*-& Q2*-& Q2*-& Q2*-& Q2*-& Q2*-& Q2*-& Q2*-& Q2*-& Q2*-& Q2*-& Q2*-& Q2*-& Q2*-& Q2*-& Q2*-& Q2*-& Q2*-& Q2*-& Q2*-& Q2*-& Q2*-& Q2*-& Q2*-& Q2*-& Q2*-& Q2*-& Q2*-& Q2*-& Q2*-& Q2*-& Q2*-& Q2*-& Q2*-& Q2*-& Q2*-& Q2*-& Q2*-& Q2*-& Q2*-& Q2*-& Q2*-& Q2*-& Q2*-& Q2*-& Q2*-& Q2*-& Q2*-& Q2*-& Q2*-& Q2*-& Q2*-& Q2*-& Q2*-& Q2*-& Q2*-& Q2*-& Q2*-& Q2*-& Q2*-& Q2*-& Q2*-& Q2*-& Q2*-& Q2*-& Q2*-& Q2*-& Q2*-& Q2*-& Q2*-& Q2*-& Q2*-& Q2*-& Q2*-& Q2*-& Q2*-& Q2*-& Q2*-& Q2*-& Q2*-& Q2*-& Q2*-& Q2*-& Q2*-& Q2*-& Q2*-& Q2*-& Q2*-& Q2*-& Q2*-& Q2*-& Q2*-& Q2*-& Q2*-& Q2*-& Q2*-& Q2*-& Q2*-& Q2*-& Q2*-& Q2*-& Q2*-& Q2*-& Q2*-& Q2*-& Q2*-& Q2*-& Q2*-& Q2*-& Q2*-& Q2*-& Q2*-& Q2*-& Q2*-& Q2*-& Q2*-& Q2*-& Q2*-& Q2*-& Q2*-& Q2*-& Q2*-& Q2*-& Q2*-& Q2*-& Q2*-& Q2*-& Q2*-& Q2*-& Q2*-& Q2*-& Q2*-& Q2*-& Q2*-& Q2*-& Q2*-& Q2*-& Q2*-& Q2*-& Q2*-& Q2*-& Q2*-& Q2*-& Q2*-& Q2*-& Q2*-& 2*-& 2*-& 2*-& O2*-& O2*-& O2*-& O2*-& O2*-& O2*-& O2*-& O2*-& O2*-& O2*-& O2*-& O2*-& O2*-& O2*-& O2*-& O2*-& O2*-& O2*-& O2*-& O2*-& O2*-& O2*-& O2*-& O2*-& O2*-& O2*-& O2*-& O2*-& O2*-& O2*-& O2*-& O2*-& O2*-& O2*-& O2*-& O2*-& O2*-& O2*-& O2*-& O2*-& O2*-& O2*-& O2*-& O2*-& O2*-& O2*-& O2*-& O2*-& O2*-& O2*-& O2*-& O2*-& O2*-& O2*-& O2*-& O2*-& O2*-& O2*-& O2*-& O2*-& O2*-& O2*-& O2*-& O2*-& O2*-& O2*-& O2*-& O2*-& O2*-& O2*-& O2*-& O2*-& O2*-& O2*-& O2*-& O2*-& O2*-& O2*-& O2*-& O2*-& O2*-& O2*-& O2*-& O2*-& O2*-& O2*-& O2*-& O2*-& O2*-& O2*-& O2*-& O2*-& O2*-& O2*-& O2*-& O2*-& O2*-& O2*-& O2*-& O2*-& O2*-& O2*-& O2*-& O2*-& O2*-& O2*-& O2*-& O2*-& O2*-& O2*-& O2*-& O2*-& O2*-& O2*-& O2*-& O2*-& O2*-& O2*-& O2*-& O2*-& O2*-& O2*-& O2*-& O2*-& O2*-& O2*-& O2*-& O2*-& O2*-& O2*-& O2*-& O2*-& O2*-& O2*-& O2*-& O2*-& O2*-& O2*-& O2*-& O2*-& O2*-& O2*-& O2*-& O2*-& O2*-& O2*-& O2*-& O2*-& O2*-& O2*-& O2*-& O2*-& 2*-& 2*-& 2*-& 2*-& N2*-& N2*-& N2*-& N2*-& N2*-& N2*-& N2*-& N2*-& N2*-& N2*-& N2*-& N2*-& N2*-& N2*-& N2*-& N2*-& N2*-& N2*-& N2*-& N2*-& N2*-& N2*-& N2*-& N2*-& N2*-& N2*-& N2*-& N2*-& N2*-& N2*-& N2*-& N2*-& N2*-& N2*-& N2*-& N2*-& N2*-& N2*-& N2*-& N2*-& N2*-& N2*-& N2*-& N2*-& N2*-& N2*-& N2*-& N2*-& N2*-& N2*-& N2*-& N2*-& N2*-& N2*-& N2*-& N2*-& N2*-& N2*-& N2*-& N2*-& N2*-& N2*-& N2*-& N2*-& N2*-& N2*-& N2*-& N2*-& N2*-& N2*-& N2*-& N2*-& N2*-& N2*-& N2*-& N2*-& N2*-& N2*-& N2*-& N2*-& N2*-& N2*-& N2*-& N2*-& N2*-& N2*-& N2*-& N2*-& N2*-& N2*-& N2*-& N2*-& N2*-& N2*-& N2*-& N2*-& N2*-& N2*-& N2*-& N2*-& N2*-& N2*-& N2*-& N2*-& N2*-& N2*-& N2*-& N2*-& N2*-& N2*-& N2*-& N2*-& N2*-& N2*-& N2*-& N2*-& N2*-& N2*-& N2*-& N2*-& N2*-& N2*-& N2*-& N2*-& N2*-& N2*-& N2*-& N2*-& N2*-& N2*-& N2*-& N2*-& N2*-& N2*-& N2*-& N2*-& N2*-& N2*-& N2*-& N2*-& N2*-& N2*-& N2*-& N2*-& N2*-& N2*-& N2*-& N2*-& N2*-& N2*-& N2*-& N2*-& 2*-& 2*-& 2*-& L2*-& L2*-& L2*-& L2*-& L2*-& L2*-& L2*-& L2*-& L2*-& L2*-& L2*-& L2*-& L2*-& L2*-& L2*-& L2*-& L2*-& L2*-& L2*-& L2*-& L2*-& L2*-& L2*-& L2*-& L2*-& L2*-& L2*-& L2*-& L2*-& L2*-& L2*-& L2*-& L2*-& L2*-& L2*-& L2*-& L2*-& L2*-& L2*-& L2*-& L2*-& L2*-& L2*-& L2*-& L2*-& L2*-& L2*-& L2*-& L2*-& L2*-& L2*-& L2*-& L2*-& L2*-& L2*-& L2*-& L2*-& L2*-& L2*-& L2*-& L2*-& L2*-& L2*-& L2*-& L2*-& L2*-& L2*-& L2*-& L2*-& L2*-& L2*-& L2*-& L2*-& L2*-& L2*-& L2*-& L2*-& L2*-& L2*-& L2*-& L2*-& L2*-& L2*-& L2*-& L2*-& L2*-& L2*-& L2*-& L2*-& L2*-& L2*-& L2*-& L2*-& L2*-& L2*-& L2*-& L2*-& L2*-& L2*-& L2*-& L2*-& L2*-& L2*-& L2*-& L2*-& L2*-& L2*-& L2*-& L2*-& L2*-& L2*-& L2*-& L2*-& L2*-& L2*-& L2*-& L2*-& L2*-& L2*-& L2*-& L2*-& L2*-& L2*-& L2*-& L2*-& L2*-& L2*-& L2*-& L2*-& L2*-& L2*-& L2*-& L2*-& L2*-& L2*-& L2*-& L2*-& L2*-& L2*-& L2*-& L2*-& L2*-& L2*-& L2*-& L2*-& L2*-& L2*-& L2*-& L2*-& L2*-& L2*-& L2*-& 2*-& 2*-& 2*-& 2*-& 2*-&J 2*-&J 2*-&J 2*-&J 2*-&J 2*-&J 2*-&J 2*-&J 2*-&J 2*-&J 2*-&J 2*-&J 2*-&J 2*-&J 2*-&J 2*-&J 2*-&J 2*-&J 2*-&J 2*-&J 2*-&J 2*-&J 2*-&J 2*-&J 2*-&J 2*-&J 2*-&J 2*-&J 2*-&J 2*-&J 2*-&J 2*-&J 2*-&J 2*-&J 2*-&J 2*-&J 2*-&J 2*-&J 2*-&J 2*-&J 2*-&J 2*-&J 2*-&J 2*-&J 2*-&J 2*-&J 2*-&J 2*-&J 2*-&J 2*-&J 2*-&J 2*-&J 2*-&J 2*-&J 2*-&J 2*-&J 2*-&J 2*-&J 2*-&J 2*-&J 2*-&J 2*-&J 2*-&J 2*-&J 2*-&J 2*-&J 2*-&J 2*-&J 2*-&J 2*-&J 2*-&J 2*-&J 2*-&J 2*-&J 2*-&J 2*-&J 2*-&J 2*-&J 2*-&J 2*-&J 2*-&J 2*-&J 2*-&J 2*-&J 2*-&J 2*-&J 2*-&J 2*-&J 2*-&J 2*-&J J J J J J J J J J J J J J J J J J J J J J J J J J J J J J J J J J J J J J J J J J J J J J J J J J J J J J J J J J J J J J J    H H H H H H H H H H H H H H H H H H H H H H H H H H H H H H H H H H H H H H H H H H H H H H H H H H H H H H H H H H H H H H H H H H H H H H H H H H H H H H H H H H H H H H H H H H H H H H H H H H H H H H H H H H H H H H H H H H H H H H H H H H H H H H H H H H H H H H H H H H H H H H H H H H H H H H H H     F F F F F F F F F F F F F F F F F F F F F F F F F F F F F F F F F F F F F F F F F F F F F F F F F F F F F F F F F F F F F F F F F F F F F F F F F F F F F F F F F F F F F F F F F F F F F F F F F F F F F F F F F F F F F F F F F F F F F F F F F F F F F F F F F F F F F F F F F F F F F F F F F F F F F F F F F F F EF EF EF EF EF EF EF EF EF EF EF EF EF EF EF EF EF EF EF EF EF EF EF EF EF EF EF EF EF EF EF EF EF EF EF EF EF EF EF EF EF EF EF EF EF EF EF EF EF EF EF EF EF EF EF EF EF EF EF EF EF EF EF EF EF EF EF EF EF EF EF EF EF EF EF EF EF EF EF EF EF EF EF EF EF EF EF EF EF EF EF EF EF EF EF EF EF EF EF EF EF EF EF EF EF EF EF EF EF EF EF EF EF EF EF EF EF EF EF EF EF EF EF EF EF EF EF EF EF EF EF EF EF EF EF EF EF EF EF EF EF EF EF EF EF EF EF EF EF EF EF EF     COFJ COFJ COFJ COFJ COFJ COFJ COFJ COFJ COFJ COFJ COFJ COFJ COFJ COFJ COFJ COFJ COFJ COFJ COFJ COFJ COFJ COFJ COFJ COFJ COFJ COFJ COFJ COFJ COFJ COFJ COFJ COFJ COFJ COFJ COFJ COFJ COFJ COFJ COFJ COFJ COFJ COFJ COFJ COFJ COFJ COFJ COFJ COFJ COFJ COFJ COFJ COFJ COFJ COFJ COFJ COFJ COFJ COFJ COFJ COFJ COFJ COFJ COFJ COFJ COFJ COFJ COFJ COFJ COFJ COFJ COFJ COFJ COFJ COFJ COFJ COFJ COFJ COFJ COFJ COFJ COFJ COFJ COFJ COFJ COFJ COFJ COFJ COFJ COFJ COFJ COFJ COFJ COFJ COFJ COFJ COFJ COFJ COFJ COFJ COFJ COFJ COFJ COFJ COFJ COFJ COFJ COFJ COFJ COFJ COFJ COFJ COFJ COFJ COFJ COFJ COFJ COFJ COFJ COFJ COFJ COFJ COFJ COFJ COFJ COFJ COFJ COFJ COFJ COFJ COFJ COFJ COFJ COFJ COFJ COFJ COFJ COFJ COFJ COFJ COFJ COFJ COFJ COFJ COFJ COFJ COFJ COFJ COFJ COFJ COFJ COFJ COFJ OFJ OFJ OFJ OFJ OFJA OFJA OFJA OFJA OFJA OFJA OFJA OFJA OFJA OFJA OFJA OFJA OFJA OFJA OFJA OFJA OFJA OFJA OFJA OFJA OFJA OFJA OFJA OFJA OFJA OFJA OFJA OFJA OFJA OFJA OFJA OFJA OFJA OFJA OFJA OFJA OFJA OFJA OFJA OFJA OFJA OFJA OFJA OFJA OFJA OFJA OFJA OFJA OFJA OFJA OFJA OFJA OFJA OFJA OFJA OFJA OFJA OFJA OFJA OFJA OFJA OFJA OFJA OFJA OFJA OFJA OFJA OFJA OFJA OFJA OFJA OFJA OFJA OFJA OFJA OFJA OFJA OFJA OFJA OFJA OFJA OFJA OFJA OFJA OFJA OFJA OFJA OFJA OFJA OFJA OFJA OFJA OFJA OFJA OFJA OFJA OFJA OFJA OFJA OFJA OFJA OFJA OFJA OFJA OFJA OFJA OFJA OFJA OFJA OFJA OFJA OFJA OFJA OFJA OFJA OFJA OFJA OFJA OFJA OFJA OFJA OFJA OFJA OFJA OFJA OFJA OFJA OFJA OFJA OFJA OFJA OFJA OFJA OFJA OFJA OFJA OFJA OFJA OFJA OFJA OFJA OFJA OFJA OFJA OFJA OFJA OFJA OFJA OFJA OFJA OFJA A    ?FOJ ?FOJ ?FOJ ?FOJ ?FOJ ?FOJ ?FOJ ?FOJ ?FOJ ?FOJ ?FOJ ?FOJ ?FOJ ?FOJ ?FOJ ?FOJ ?FOJ ?FOJ ?FOJ ?FOJ ?FOJ ?FOJ ?FOJ ?FOJ ?FOJ ?FOJ ?FOJ ?FOJ ?FOJ ?FOJ ?FOJ ?FOJ ?FOJ ?FOJ ?FOJ ?FOJ ?FOJ ?FOJ ?FOJ ?FOJ ?FOJ ?FOJ ?FOJ ?FOJ ?FOJ ?FOJ ?FOJ ?FOJ ?FOJ ?FOJ ?FOJ ?FOJ ?FOJ ?FOJ ?FOJ ?FOJ ?FOJ ?FOJ ?FOJ ?FOJ ?FOJ ?FOJ ?FOJ ?FOJ ?FOJ ?FOJ ?FOJ ?FOJ ?FOJ ?FOJ ?FOJ ?FOJ ?FOJ ?FOJ ?FOJ ?FOJ ?FOJ ?FOJ ?FOJ ?FOJ ?FOJ ?FOJ ?FOJ ?FOJ ?FOJ ?FOJ ?FOJ ?FOJ ?FOJ ?FOJ ?FOJ ?FOJ ?FOJ ?FOJ ?FOJ ?FOJ ?FOJ ?FOJ ?FOJ ?FOJ ?FOJ ?FOJ ?FOJ ?FOJ ?FOJ ?FOJ ?FOJ ?FOJ ?FOJ ?FOJ ?FOJ ?FOJ ?FOJ ?FOJ ?FOJ ?FOJ ?FOJ ?FOJ ?FOJ ?FOJ ?FOJ ?FOJ ?FOJ ?FOJ ?FOJ ?FOJ ?FOJ ?FOJ ?FOJ ?FOJ ?FOJ ?FOJ ?FOJ ?FOJ ?FOJ ?FOJ ?FOJ ?FOJ ?FOJ ?FOJ ?FOJ ?FOJ ?FOJ ?FOJ ?FOJ ?FOJ ?FOJ ?FOJ ?FOJ ?FOJ ?FOJ ?FOJ FOJ FOJ FOJ FOJ FOJ> FOJ> FOJ> FOJ> FOJ> FOJ> FOJ> FOJ> FOJ> FOJ> FOJ> FOJ> FOJ> FOJ> FOJ> FOJ> FOJ> FOJ> FOJ> FOJ> FOJ> FOJ> FOJ> FOJ> FOJ> FOJ> FOJ> FOJ> FOJ> FOJ> FOJ> FOJ> FOJ> FOJ> FOJ> FOJ> FOJ> FOJ> FOJ> FOJ> FOJ> FOJ> FOJ> FOJ> FOJ> FOJ> FOJ> FOJ> FOJ> FOJ> FOJ> FOJ> FOJ> FOJ> FOJ> FOJ> FOJ> FOJ> FOJ> FOJ> FOJ> FOJ> FOJ> FOJ> FOJ> FOJ> FOJ> FOJ> FOJ> FOJ> FOJ> FOJ> FOJ> FOJ> FOJ> FOJ> FOJ> FOJ> FOJ> FOJ> FOJ> FOJ> FOJ> FOJ> FOJ> FOJ> FOJ> FOJ> FOJ> FOJ> FOJ> FOJ> FOJ> FOJ> FOJ> FOJ> FOJ> FOJ> FOJ> FOJ> FOJ> FOJ> FOJ> FOJ> FOJ> FOJ> FOJ> FOJ> FOJ> FOJ> FOJ> FOJ> FOJ> FOJ> FOJ> FOJ> FOJ> FOJ> FOJ> FOJ> FOJ> FOJ> FOJ> FOJ> FOJ> FOJ> FOJ> FOJ> FOJ> FOJ> FOJ> FOJ> FOJ> FOJ> FOJ> FOJ> FOJ> FOJ> FOJ> FOJ> FOJ> FOJ> FOJ> FOJ> FOJ> FOJ> FOJ> FOJ> FOJ> FOJ> FOJ> >    K<H K<H K<H K<H K<H K<H K<H K<H K<H K<H K<H K<H K<H K<H K<H K<H K<H K<H K<H K<H K<H K<H K<H K<H K<H K<H K<H K<H K<H K<H K<H K<H K<H K<H K<H K<H K<H K<H K<H K<H K<H K<H K<H K<H K<H K<H K<H K<H K<H K<H K<H K<H K<H K<H K<H K<H K<H K<H K<H K<H K<H K<H K<H K<H K<H K<H K<H K<H K<H K<H K<H K<H K<H K<H K<H K<H K<H K<H K<H K<H K<H K<H K<H K<H K<H K<H K<H K<H K<H K<H K<H K<H K<H K<H K<H K<H K<H K<H K<H K<H K<H K<H K<H K<H K<H K<H K<H K<H K<H K<H K<H K<H K<H K<H K<H K<H K<H K<H K<H K<H K<H K<H K<H K<H K<H K<H K<H K<H K<H K<H K<H K<H K<H K<H K<H K<H K<H K<H K<H K<H K<H K<H K<H K<H K<H K<H K<H K<H K<H K<H K<H K<H H H H H M>H M>H M>H M>H M>H M>H M>H M>H M>H M>H M>H M>H M>H M>H M>H M>H M>H M>H M>H M>H M>H M>H M>H M>H M>H M>H M>H M>H M>H M>H M>H M>H M>H M>H M>H M>H M>H M>H M>H M>H M>H M>H M>H M>H M>H M>H M>H M>H M>H M>H M>H M>H M>H M>H M>H M>H M>H M>H M>H M>H M>H M>H M>H M>H M>H M>H M>H M>H M>H M>H M>H M>H M>H M>H M>H M>H M>H M>H M>H M>H M>H M>H M>H M>H M>H M>H M>H M>H M>H M>H M>H M>H M>H M>H M>H M>H M>H M>H M>H M>H M>H M>H M>H M>H M>H M>H M>H M>H M>H M>H M>H M>H M>H M>H M>H M>H M>H M>H M>H M>H M>H M>H M>H M>H M>H M>H M>H M>H M>H M>H M>H M>H M>H M>H M>H M>H M>H M>H M>H M>H M>H M>H M>H M>H M>H M>H M>H M>H M>H M>H M>H M>H H H H HK< HK< HK< HK< HK< HK< HK< HK< HK< HK< HK< HK< HK< HK< HK< HK< HK< HK< HK< HK< HK< HK< HK< HK< HK< HK< HK< HK< HK< HK< HK< HK< HK< HK< HK< HK< HK< HK< HK< HK< HK< HK< HK< HK< HK< HK< HK< HK< HK< HK< HK< HK< HK< HK< HK< HK< HK< HK< HK< HK< HK< HK< HK< HK< HK< HK< HK< HK< HK< HK< HK< HK< HK< HK< HK< HK< HK< HK< HK< HK< HK< HK< HK< HK< HK< HK< HK< HK< HK< HK< HK< HK< HK< HK< HK< HK< HK< HK< HK< HK< HK< HK< HK< HK< HK< HK< HK< HK< HK< HK< HK< HK< HK< HK< HK< HK< HK< HK< HK< HK< HK< HK< HK< HK< HK< HK< HK< HK< HK< HK< HK< HK< HK< HK< HK< HK< HK< HK< HK< HK< HK< HK< K< K< K< K< K< K< K< K< K< K<     J: J: J: J: J: J: J: J: J: J: J: J: J: J: J: J: J: J: J: J: J: J: J: J: J: J: J: J: J: J: J: J: J: J: J: J: J: J: J: J: J: J: J: J: J: J: J: J: J: J: J: J: J: J: J: J: J: J: J: J: J: J: J: J: J: J: J: J: J: J: J: J: J: J: J: J: J: J: J: J: J: J: J: J: J: J: J: J: J: J: J: J: J: J: J: J: J: J: J: J: J: J: J: J: J: J: J: J: J: J: J: J: J: J: J: J: J: J: J: J: J: J: J: J: J: J: J: J: J: J: J: J: J: J: J: J: J: J: J: J: J: J: J: J: J: J: J: J: J: J: J: J:    H9 H9 H9 H9 H9 H9 H9 H9 H9 H9 H9 H9 H9 H9 H9 H9 H9 H9 H9 H9 H9 H9 H9 H9 H9 H9 H9 H9 H9 H9 H9 H9 H9 H9 H9 H9 H9 H9 H9 H9 H9 H9 H9 H9 H9 H9 H9 H9 H9 H9 H9 H9 H9 H9 H9 H9 H9 H9 H9 H9 H9 H9 H9 H9 H9 H9 H9 H9 H9 H9 H9 H9 H9 H9 H9 H9 H9 H9 H9 H9 H9 H9 H9 H9 H9 H9 H9 H9 H9 H9 H9 H9 H9 H9 H9 H9 H9 H9 H9 H9 H9 H9 H9 H9 H9 H9 H9 H9 H9 H9 H9 H9 H9 H9 H9 H9 H9 H9 H9 H9 H9 H9 H9 H9 H9 H9 H9 H9 H9 H9 H9 H9 H9 H9 H9 H9 H9 H9 H9 H9 H9 H9 H9 H9 H9 H9 H9 H9 H9 H9 H9 H9     F7 F7 F7 F7 F7 F7 F7 F7 F7 F7 F7 F7 F7 F7 F7 F7 F7 F7 F7 F7 F7 F7 F7 F7 F7 F7 F7 F7 F7 F7 F7 F7 F7 F7 F7 F7 F7 F7 F7 F7 F7 F7 F7 F7 F7 F7 F7 F7 F7 F7 F7 F7 F7 F7 F7 F7 F7 F7 F7 F7 F7 F7 F7 F7 F7 F7 F7 F7 F7 F7 F7 F7 F7 F7 F7 F7 F7 F7 F7 F7 F7 F7 F7 F7 F7 F7 F7 F7 F7 F7 F7 F7 F7 F7 F7 F7 F7 F7 F7 F7 F7 F7 F7 F7 F7 F7 F7 F7 F7 F7 F7 F7 F7 F7 F7 F7 F7 F7 F7 F7 F7 F7 F7 F7 F7 F7 F7 F7 F7 F7 F7 F7 F7 F7 F7 F7 F7 F7 F7 F7 F7 F7 F7 F7 F7 F7 F7 F7 F7 F7 F7 F7    5E 5E 5E 5E 5E 5E 5E 5E 5E 5E 5E 5E 5E 5E 5E 5E 5E 5E 5E 5E 5E 5E 5E 5E 5E 5E 5E 5E 5E 5E 5E 5E 5E 5E 5E 5E 5E 5E 5E 5E 5E 5E 5E 5E 5E 5E 5E 5E 5E 5E 5E 5E 5E 5E 5E 5E 5E 5E 5E 5E 5E 5E 5E 5E 5E 5E 5E 5E 5E 5E 5E 5E 5E 5E 5E 5E 5E 5E 5E 5E 5E 5E 5E 5E 5E 5E 5E 5E 5E 5E 5E 5E 5E 5E 5E 5E 5E 5E 5E 5E 5E 5E 5E 5E 5E 5E 5E 5E 5E 5E 5E 5E 5E 5E 5E 5E 5E 5E 5E 5E 5E 5E 5E 5E 5E 5E 5E 5E 5E 5E 5E 5E 5E 5E 5E 5E 5E 5E 5E 5E 5E 5E 5E 5E 5E 5E 5E 5E 5E 5E 5E 5E E E E E EC EC EC EC EC EC EC EC EC EC EC EC EC EC EC EC EC EC EC EC EC EC EC EC EC EC EC EC EC EC EC EC EC EC EC EC EC EC EC EC EC EC EC EC EC EC EC EC EC EC EC EC EC EC EC EC EC EC EC EC EC EC EC EC EC EC EC EC EC EC EC EC EC EC EC EC EC EC EC EC EC EC EC EC EC EC EC EC EC EC EC EC EC EC EC EC EC EC EC EC EC EC EC EC EC EC EC EC EC EC EC EC EC EC EC EC EC EC EC EC EC EC EC EC EC EC EC EC EC EC EC EC EC EC EC EC EC EC EC EC EC EC EC EC EC EC EC EC EC EC EC C    AHME AHME AHME AHME AHME AHME AHME AHME AHME AHME AHME AHME AHME AHME AHME AHME AHME AHME AHME AHME AHME AHME AHME AHME AHME AHME AHME AHME AHME AHME AHME AHME AHME AHME AHME AHME AHME AHME AHME AHME AHME AHME AHME AHME AHME AHME AHME AHME AHME AHME AHME AHME AHME AHME AHME AHME AHME AHME AHME AHME AHME AHME AHME AHME AHME AHME AHME AHME AHME AHME AHME AHME AHME AHME AHME AHME AHME AHME AHME AHME AHME AHME AHME AHME AHME AHME AHME AHME AHME AHME AHME AHME AHME AHME AHME AHME AHME AHME AHME AHME AHME AHME AHME AHME AHME AHME AHME AHME AHME AHME AHME AHME AHME AHME AHME AHME AHME AHME AHME AHME AHME AHME AHME AHME AHME AHME AHME AHME AHME AHME AHME AHME AHME AHME AHME AHME AHME AHME AHME AHME AHME AHME AHME AHME AHME AHME AHME AHME AHME AHME AHME AHME HME HME HME HME HME? HME? HME? HME? HME? HME? HME? HME? HME? HME? HME? HME? HME? HME? HME? HME? HME? HME? HME? HME? HME? HME? HME? HME? HME? HME? HME? HME? HME? HME? HME? HME? HME? HME? HME? HME? HME? HME? HME? HME? HME? HME? HME? HME? HME? HME? HME? HME? HME? HME? HME? HME? HME? HME? HME? HME? HME? HME? HME? HME? HME? HME? HME? HME? HME? HME? HME? HME? HME? HME? HME? HME? HME? HME? HME? HME? HME? HME? HME? HME? HME? HME? HME? HME? HME? HME? HME? HME? HME? HME? HME? HME? HME? HME? HME? HME? HME? HME? HME? HME? HME? HME? HME? HME? HME? HME? HME? HME? HME? HME? HME? HME? HME? HME? HME? HME? HME? HME? HME? HME? HME? HME? HME? HME? HME? HME? HME? HME? HME? HME? HME? HME? HME? HME? HME? HME? HME? HME? HME? HME? HME? HME? HME? HME? HME? HME? HME? HME? HME? HME? HME? ?    >EHM >EHM >EHM >EHM >EHM >EHM >EHM >EHM >EHM >EHM >EHM >EHM >EHM >EHM >EHM >EHM >EHM >EHM >EHM >EHM >EHM >EHM >EHM >EHM >EHM >EHM >EHM >EHM >EHM >EHM >EHM >EHM >EHM >EHM >EHM >EHM >EHM >EHM >EHM >EHM >EHM >EHM >EHM >EHM >EHM >EHM >EHM >EHM >EHM >EHM >EHM >EHM >EHM >EHM >EHM >EHM >EHM >EHM >EHM >EHM >EHM >EHM >EHM >EHM >EHM >EHM >EHM >EHM >EHM >EHM >EHM >EHM >EHM >EHM >EHM >EHM >EHM >EHM >EHM >EHM >EHM >EHM >EHM >EHM >EHM >EHM >EHM >EHM >EHM >EHM >EHM >EHM >EHM >EHM >EHM >EHM >EHM >EHM >EHM >EHM >EHM >EHM >EHM >EHM >EHM >EHM >EHM >EHM >EHM >EHM >EHM >EHM >EHM >EHM >EHM >EHM >EHM >EHM >EHM >EHM >EHM >EHM >EHM >EHM >EHM >EHM >EHM >EHM >EHM >EHM >EHM >EHM >EHM >EHM >EHM >EHM >EHM >EHM >EHM >EHM >EHM >EHM >EHM >EHM >EHM >EHM >EHM >EHM >EHM >EHM >EHM >EHM EHM EHM EHM EHM EHM< EHM< EHM< EHM< EHM< EHM< EHM< EHM< EHM< EHM< EHM< EHM< EHM< EHM< EHM< EHM< EHM< EHM< EHM< EHM< EHM< EHM< EHM< EHM< EHM< EHM< EHM< EHM< EHM< EHM< EHM< EHM< EHM< EHM< EHM< EHM< EHM< EHM< EHM< EHM< EHM< EHM< EHM< EHM< EHM< EHM< EHM< EHM< EHM< EHM< EHM< EHM< EHM< EHM< EHM< EHM< EHM< EHM< EHM< EHM< EHM< EHM< EHM< EHM< EHM< EHM< EHM< EHM< EHM< EHM< EHM< EHM< EHM< EHM< EHM< EHM< EHM< EHM< EHM< EHM< EHM< EHM< EHM< EHM< EHM< EHM< EHM< EHM< EHM< EHM< EHM< EHM< EHM< EHM< EHM< EHM< EHM< EHM< EHM< EHM< EHM< EHM< EHM< EHM< EHM< EHM< EHM< EHM< EHM< EHM< EHM< EHM< EHM< EHM< EHM< EHM< EHM< EHM< EHM< EHM< EHM< EHM< EHM< EHM< EHM< EHM< EHM< EHM< EHM< EHM< EHM< EHM< EHM< EHM< EHM< EHM< EHM< EHM< EHM< EHM< EHM< EHM< EHM< EHM< EHM< EHM< EHM< EHM< EHM< EHM< EHM< <    J:F J:F J:F J:F J:F J:F J:F J:F J:F J:F J:F J:F J:F J:F J:F J:F J:F J:F J:F J:F J:F J:F J:F J:F J:F J:F J:F J:F J:F J:F J:F J:F J:F J:F J:F J:F J:F J:F J:F J:F J:F J:F J:F J:F J:F J:F J:F J:F J:F J:F J:F J:F J:F J:F J:F J:F J:F J:F J:F J:F J:F J:F J:F J:F J:F J:F J:F J:F J:F J:F J:F J:F J:F J:F J:F J:F J:F J:F J:F J:F J:F J:F J:F J:F J:F J:F J:F J:F J:F J:F J:F J:F J:F J:F J:F J:F J:F J:F J:F J:F J:F J:F J:F J:F J:F J:F J:F J:F J:F J:F J:F J:F J:F J:F J:F J:F J:F J:F J:F J:F J:F J:F J:F J:F J:F J:F J:F J:F J:F J:F J:F J:F J:F J:F J:F J:F J:F J:F J:F J:F J:F J:F J:F J:F J:F J:F J:F J:F J:F J:F J:F J:F F F F F K<F K<F K<F K<F K<F K<F K<F K<F K<F K<F K<F K<F K<F K<F K<F K<F K<F K<F K<F K<F K<F K<F K<F K<F K<F K<F K<F K<F K<F K<F K<F K<F K<F K<F K<F K<F K<F K<F K<F K<F K<F K<F K<F K<F K<F K<F K<F K<F K<F K<F K<F K<F K<F K<F K<F K<F K<F K<F K<F K<F K<F K<F K<F K<F K<F K<F K<F K<F K<F K<F K<F K<F K<F K<F K<F K<F K<F K<F K<F K<F K<F K<F K<F K<F K<F K<F K<F K<F K<F K<F K<F K<F K<F K<F K<F K<F K<F K<F K<F K<F K<F K<F K<F K<F K<F K<F K<F K<F K<F K<F K<F K<F K<F K<F K<F K<F K<F K<F K<F K<F K<F K<F K<F K<F K<F K<F K<F K<F K<F K<F K<F K<F K<F K<F K<F K<F K<F K<F K<F K<F K<F K<F K<F K<F K<F K<F K<F K<F K<F K<F K<F K<F F F F FJ: FJ: FJ: FJ: FJ: FJ: FJ: FJ: FJ: FJ: FJ: FJ: FJ: FJ: FJ: FJ: FJ: FJ: FJ: FJ: FJ: FJ: FJ: FJ: FJ: FJ: FJ: FJ: FJ: FJ: FJ: FJ: FJ: FJ: FJ: FJ: FJ: FJ: FJ: FJ: FJ: FJ: FJ: FJ: FJ: FJ: FJ: FJ: FJ: FJ: FJ: FJ: FJ: FJ: FJ: FJ: FJ: FJ: FJ: FJ: FJ: FJ: FJ: FJ: FJ: FJ: FJ: FJ: FJ: FJ: FJ: FJ: FJ: FJ: FJ: FJ: FJ: FJ: FJ: FJ: FJ: FJ: FJ: FJ: FJ: FJ: FJ: FJ: FJ: FJ: FJ: FJ: FJ: FJ: FJ: FJ: FJ: FJ: FJ: FJ: FJ: FJ: FJ: FJ: FJ: FJ: FJ: FJ: FJ: FJ: FJ: FJ: FJ: FJ: FJ: FJ: FJ: FJ: FJ: FJ: FJ: FJ: FJ: FJ: FJ: FJ: FJ: FJ: FJ: FJ: FJ: FJ: FJ: FJ: FJ: FJ: FJ: FJ: FJ: FJ: FJ: FJ: J: J: J: J: J: J: J: J: J: J:     H9 H9 H9 H9 H9 H9 H9 H9 H9 H9 H9 H9 H9 H9 H9 H9 H9 H9 H9 H9 H9 H9 H9 H9 H9 H9 H9 H9 H9 H9 H9 H9 H9 H9 H9 H9 H9 H9 H9 H9 H9 H9 H9 H9 H9 H9 H9 H9 H9 H9 H9 H9 H9 H9 H9 H9 H9 H9 H9 H9 H9 H9 H9 H9 H9 H9 H9 H9 H9 H9 H9 H9 H9 H9 H9 H9 H9 H9 H9 H9 H9 H9 H9 H9 H9 H9 H9 H9 H9 H9 H9 H9 H9 H9 H9 H9 H9 H9 H9 H9 H9 H9 H9 H9 H9 H9 H9 H9 H9 H9 H9 H9 H9 H9 H9 H9 H9 H9 H9 H9 H9 H9 H9 H9 H9 H9 H9 H9 H9 H9 H9 H9 H9 H9 H9 H9 H9 H9 H9 H9 H9 H9 H9 H9 H9 H9 H9 H9 H9 H9 H9 H9    F7 F7 F7 F7 F7 F7 F7 F7 F7 F7 F7 F7 F7 F7 F7 F7 F7 F7 F7 F7 F7 F7 F7 F7 F7 F7 F7 F7 F7 F7 F7 F7 F7 F7 F7 F7 F7 F7 F7 F7 F7 F7 F7 F7 F7 F7 F7 F7 F7 F7 F7 F7 F7 F7 F7 F7 F7 F7 F7 F7 F7 F7 F7 F7 F7 F7 F7 F7 F7 F7 F7 F7 F7 F7 F7 F7 F7 F7 F7 F7 F7 F7 F7 F7 F7 F7 F7 F7 F7 F7 F7 F7 F7 F7 F7 F7 F7 F7 F7 F7 F7 F7 F7 F7 F7 F7 F7 F7 F7 F7 F7 F7 F7 F7 F7 F7 F7 F7 F7 F7 F7 F7 F7 F7 F7 F7 F7 F7 F7 F7 F7 F7 F7 F7 F7 F7 F7 F7 F7 F7 F7 F7 F7 F7 F7 F7 F7 F7 F7 F7 F7 F7     E5 E5 E5 E5 E5 E5 E5 E5 E5 E5 E5 E5 E5 E5 E5 E5 E5 E5 E5 E5 E5 E5 E5 E5 E5 E5 E5 E5 E5 E5 E5 E5 E5 E5 E5 E5 E5 E5 E5 E5 E5 E5 E5 E5 E5 E5 E5 E5 E5 E5 E5 E5 E5 E5 E5 E5 E5 E5 E5 E5 E5 E5 E5 E5 E5 E5 E5 E5 E5 E5 E5 E5 E5 E5 E5 E5 E5 E5 E5 E5 E5 E5 E5 E5 E5 E5 E5 E5 E5 E5 E5 E5 E5 E5 E5 E5 E5 E5 E5 E5 E5 E5 E5 E5 E5 E5 E5 E5 E5 E5 E5 E5 E5 E5 E5 E5 E5 E5 E5 E5 E5 E5 E5 E5 E5 E5 E5 E5 E5 E5 E5 E5 E5 E5 E5 E5 E5 E5 E5 E5 E5 E5 E5 E5 E5 E5 E5 E5 E5 E5 E5 E5    3C 3C 3C 3C 3C 3C 3C 3C 3C 3C 3C 3C 3C 3C 3C 3C 3C 3C 3C 3C 3C 3C 3C 3C 3C 3C 3C 3C 3C 3C 3C 3C 3C 3C 3C 3C 3C 3C 3C 3C 3C 3C 3C 3C 3C 3C 3C 3C 3C 3C 3C 3C 3C 3C 3C 3C 3C 3C 3C 3C 3C 3C 3C 3C 3C 3C 3C 3C 3C 3C 3C 3C 3C 3C 3C 3C 3C 3C 3C 3C 3C 3C 3C 3C 3C 3C 3C 3C 3C 3C 3C 3C 3C 3C 3C 3C 3C 3C 3C 3C 3C 3C 3C 3C 3C 3C 3C 3C 3C 3C 3C 3C 3C 3C 3C 3C 3C 3C 3C 3C 3C 3C 3C 3C 3C 3C 3C 3C 3C 3C 3C 3C 3C 3C 3C 3C 3C 3C 3C 3C 3C 3C 3C 3C 3C 3C 3C 3C 3C 3C 3C 3C C C C C CA CA CA CA CA CA CA CA CA CA CA CA CA CA CA CA CA CA CA CA CA CA CA CA CA CA CA CA CA CA CA CA CA CA CA CA CA CA CA CA CA CA CA CA CA CA CA CA CA CA CA CA CA CA CA CA CA CA CA CA CA CA CA CA CA CA CA CA CA CA CA CA CA CA CA CA CA CA CA CA CA CA CA CA CA CA CA CA CA CA CA CA CA CA CA CA CA CA CA CA CA CA CA CA CA CA CA CA CA CA CA CA CA CA CA CA CA CA CA CA CA CA CA CA CA CA CA CA CA CA CA CA CA CA CA CA CA CA CA CA CA CA CA CA CA CA CA CA CA CA CA A    ?FKC ?FKC ?FKC ?FKC ?FKC ?FKC ?FKC ?FKC ?FKC ?FKC ?FKC ?FKC ?FKC ?FKC ?FKC ?FKC ?FKC ?FKC ?FKC ?FKC ?FKC ?FKC ?FKC ?FKC ?FKC ?FKC ?FKC ?FKC ?FKC ?FKC ?FKC ?FKC ?FKC ?FKC ?FKC ?FKC ?FKC ?FKC ?FKC ?FKC ?FKC ?FKC ?FKC ?FKC ?FKC ?FKC ?FKC ?FKC ?FKC ?FKC ?FKC ?FKC ?FKC ?FKC ?FKC ?FKC ?FKC ?FKC ?FKC ?FKC ?FKC ?FKC ?FKC ?FKC ?FKC ?FKC ?FKC ?FKC ?FKC ?FKC ?FKC ?FKC ?FKC ?FKC ?FKC ?FKC ?FKC ?FKC ?FKC ?FKC ?FKC ?FKC ?FKC ?FKC ?FKC ?FKC ?FKC ?FKC ?FKC ?FKC ?FKC ?FKC ?FKC ?FKC ?FKC ?FKC ?FKC ?FKC ?FKC ?FKC ?FKC ?FKC ?FKC ?FKC ?FKC ?FKC ?FKC ?FKC ?FKC ?FKC ?FKC ?FKC ?FKC ?FKC ?FKC ?FKC ?FKC ?FKC ?FKC ?FKC ?FKC ?FKC ?FKC ?FKC ?FKC ?FKC ?FKC ?FKC ?FKC ?FKC ?FKC ?FKC ?FKC ?FKC ?FKC ?FKC ?FKC ?FKC ?FKC ?FKC ?FKC ?FKC ?FKC ?FKC ?FKC ?FKC ?FKC ?FKC ?FKC ?FKC ?FKC ?FKC FKC FKC FKC FKC FKC> FKC> FKC> FKC> FKC> FKC> FKC> FKC> FKC> FKC> FKC> FKC> FKC> FKC> FKC> FKC> FKC> FKC> FKC> FKC> FKC> FKC> FKC> FKC> FKC> FKC> FKC> FKC> FKC> FKC> FKC> FKC> FKC> FKC> FKC> FKC> FKC> FKC> FKC> FKC> FKC> FKC> FKC> FKC> FKC> FKC> FKC> FKC> FKC> FKC> FKC> FKC> FKC> FKC> FKC> FKC> FKC> FKC> FKC> FKC> FKC> FKC> FKC> FKC> FKC> FKC> FKC> FKC> FKC> FKC> FKC> FKC> FKC> FKC> FKC> FKC> FKC> FKC> FKC> FKC> FKC> FKC> FKC> FKC> FKC> FKC> FKC> FKC> FKC> FKC> FKC> FKC> FKC> FKC> FKC> FKC> FKC> FKC> FKC> FKC> FKC> FKC> FKC> FKC> FKC> FKC> FKC> FKC> FKC> FKC> FKC> FKC> FKC> FKC> FKC> FKC> FKC> FKC> FKC> FKC> FKC> FKC> FKC> FKC> FKC> FKC> FKC> FKC> FKC> FKC> FKC> FKC> FKC> FKC> FKC> FKC> FKC> FKC> FKC> FKC> FKC> FKC> FKC> FKC> FKC> FKC> FKC> FKC> FKC> FKC> FKC> >     <FKC <FKC <FKC <FKC <FKC <FKC <FKC <FKC <FKC <FKC <FKC <FKC <FKC <FKC <FKC <FKC <FKC <FKC <FKC <FKC <FKC <FKC <FKC <FKC <FKC <FKC <FKC <FKC <FKC <FKC <FKC <FKC <FKC <FKC <FKC <FKC <FKC <FKC <FKC <FKC <FKC <FKC <FKC <FKC <FKC <FKC <FKC <FKC <FKC <FKC <FKC <FKC <FKC <FKC <FKC <FKC <FKC <FKC <FKC <FKC <FKC <FKC <FKC <FKC <FKC <FKC <FKC <FKC <FKC <FKC <FKC <FKC <FKC <FKC <FKC <FKC <FKC <FKC <FKC <FKC <FKC <FKC <FKC <FKC <FKC <FKC <FKC <FKC <FKC <FKC <FKC <FKC <FKC <FKC <FKC <FKC <FKC <FKC <FKC <FKC <FKC <FKC <FKC <FKC <FKC <FKC <FKC <FKC <FKC <FKC <FKC <FKC <FKC <FKC <FKC <FKC <FKC <FKC <FKC <FKC <FKC <FKC <FKC <FKC <FKC <FKC <FKC <FKC <FKC <FKC <FKC <FKC <FKC <FKC <FKC <FKC <FKC <FKC <FKC <FKC <FKC <FKC <FKC <FKC <FKC <FKC <FKC <FKC <FKC <FKC <FKC <FKC FKC FKC FKC :FKC :FKC :FKC :FKC :FKC :FKC :FKC :FKC :FKC :FKC :FKC :FKC :FKC :FKC :FKC :FKC :FKC :FKC :FKC :FKC :FKC :FKC :FKC :FKC :FKC :FKC :FKC :FKC :FKC :FKC :FKC :FKC :FKC :FKC :FKC :FKC :FKC :FKC :FKC :FKC :FKC :FKC :FKC :FKC :FKC :FKC :FKC :FKC :FKC :FKC :FKC :FKC :FKC :FKC :FKC :FKC :FKC :FKC :FKC :FKC :FKC :FKC :FKC :FKC :FKC :FKC :FKC :FKC :FKC :FKC :FKC :FKC :FKC :FKC :FKC :FKC :FKC :FKC :FKC :FKC :FKC :FKC :FKC :FKC :FKC :FKC :FKC :FKC :FKC :FKC :FKC :FKC :FKC :FKC :FKC :FKC :FKC :FKC :FKC :FKC :FKC :FKC :FKC :FKC :FKC :FKC :FKC :FKC :FKC :FKC :FKC :FKC :FKC :FKC :FKC :FKC :FKC :FKC :FKC :FKC :FKC :FKC :FKC :FKC :FKC :FKC :FKC :FKC :FKC :FKC :FKC :FKC :FKC :FKC :FKC :FKC :FKC :FKC :FKC :FKC :FKC :FKC :FKC :FKC :FKC :FKC :FKC :FKC :FKC :FKC :FKC :FKC     H9C H9C H9C H9C H9C H9C H9C H9C H9C H9C H9C H9C H9C H9C H9C H9C H9C H9C H9C H9C H9C H9C H9C H9C H9C H9C H9C H9C H9C H9C H9C H9C H9C H9C H9C H9C H9C H9C H9C H9C H9C H9C H9C H9C H9C H9C H9C H9C H9C H9C H9C H9C H9C H9C H9C H9C H9C H9C H9C H9C H9C H9C H9C H9C H9C H9C H9C H9C H9C H9C H9C H9C H9C H9C H9C H9C H9C H9C H9C H9C H9C H9C H9C H9C H9C H9C H9C H9C H9C H9C H9C H9C H9C H9C H9C H9C H9C H9C H9C H9C H9C H9C H9C H9C H9C H9C H9C H9C H9C H9C H9C H9C H9C H9C H9C H9C H9C H9C H9C H9C H9C H9C H9C H9C H9C H9C H9C H9C H9C H9C H9C H9C H9C H9C H9C H9C H9C H9C H9C H9C H9C H9C H9C H9C H9C H9C H9C H9C H9C H9C H9C H9C C C C J:C J:C J:C J:C J:C J:C J:C J:C J:C J:C J:C J:C J:C J:C J:C J:C J:C J:C J:C J:C J:C J:C J:C J:C J:C J:C J:C J:C J:C J:C J:C J:C J:C J:C J:C J:C J:C J:C J:C J:C J:C J:C J:C J:C J:C J:C J:C J:C J:C J:C J:C J:C J:C J:C J:C J:C J:C J:C J:C J:C J:C J:C J:C J:C J:C J:C J:C J:C J:C J:C J:C J:C J:C J:C J:C J:C J:C J:C J:C J:C J:C J:C J:C J:C J:C J:C J:C J:C J:C J:C J:C J:C J:C J:C J:C J:C J:C J:C J:C J:C J:C J:C J:C J:C J:C J:C J:C J:C J:C J:C J:C J:C J:C J:C J:C J:C J:C J:C J:C J:C J:C J:C J:C J:C J:C J:C J:C J:C J:C J:C J:C J:C J:C J:C J:C J:C J:C J:C J:C J:C J:C J:C J:C J:C J:C J:C J:C J:C J:C J:C J:C J:C C C C C CH9 CH9 CH9 CH9 CH9 CH9 CH9 CH9 CH9 CH9 CH9 CH9 CH9 CH9 CH9 CH9 CH9 CH9 CH9 CH9 CH9 CH9 CH9 CH9 CH9 CH9 CH9 CH9 CH9 CH9 CH9 CH9 CH9 CH9 CH9 CH9 CH9 CH9 CH9 CH9 CH9 CH9 CH9 CH9 CH9 CH9 CH9 CH9 CH9 CH9 CH9 CH9 CH9 CH9 CH9 CH9 CH9 CH9 CH9 CH9 CH9 CH9 CH9 CH9 CH9 CH9 CH9 CH9 CH9 CH9 CH9 CH9 CH9 CH9 CH9 CH9 CH9 CH9 CH9 CH9 CH9 CH9 CH9 CH9 CH9 CH9 CH9 CH9 CH9 CH9 CH9 CH9 CH9 CH9 CH9 CH9 CH9 CH9 CH9 CH9 CH9 CH9 CH9 CH9 CH9 CH9 CH9 CH9 CH9 CH9 CH9 CH9 CH9 CH9 CH9 CH9 CH9 CH9 CH9 CH9 CH9 CH9 CH9 CH9 CH9 CH9 CH9 CH9 CH9 CH9 CH9 CH9 CH9 CH9 CH9 CH9 CH9 CH9 CH9 CH9 CH9 CH9 H9 H9 H9 H9 H9 H9 H9 H9 H9 H9    F7 F7 F7 F7 F7 F7 F7 F7 F7 F7 F7 F7 F7 F7 F7 F7 F7 F7 F7 F7 F7 F7 F7 F7 F7 F7 F7 F7 F7 F7 F7 F7 F7 F7 F7 F7 F7 F7 F7 F7 F7 F7 F7 F7 F7 F7 F7 F7 F7 F7 F7 F7 F7 F7 F7 F7 F7 F7 F7 F7 F7 F7 F7 F7 F7 F7 F7 F7 F7 F7 F7 F7 F7 F7 F7 F7 F7 F7 F7 F7 F7 F7 F7 F7 F7 F7 F7 F7 F7 F7 F7 F7 F7 F7 F7 F7 F7 F7 F7 F7 F7 F7 F7 F7 F7 F7 F7 F7 F7 F7 F7 F7 F7 F7 F7 F7 F7 F7 F7 F7 F7 F7 F7 F7 F7 F7 F7 F7 F7 F7 F7 F7 F7 F7 F7 F7 F7 F7 F7 F7 F7 F7 F7 F7 F7 F7 F7 F7 F7 F7 F7 F7     E6 E6 E6 E6 E6 E6 E6 E6 E6 E6 E6 E6 E6 E6 E6 E6 E6 E6 E6 E6 E6 E6 E6 E6 E6 E6 E6 E6 E6 E6 E6 E6 E6 E6 E6 E6 E6 E6 E6 E6 E6 E6 E6 E6 E6 E6 E6 E6 E6 E6 E6 E6 E6 E6 E6 E6 E6 E6 E6 E6 E6 E6 E6 E6 E6 E6 E6 E6 E6 E6 E6 E6 E6 E6 E6 E6 E6 E6 E6 E6 E6 E6 E6 E6 E6 E6 E6 E6 E6 E6 E6 E6 E6 E6 E6 E6 E6 E6 E6 E6 E6 E6 E6 E6 E6 E6 E6 E6 E6 E6 E6 E6 E6 E6 E6 E6 E6 E6 E6 E6 E6 E6 E6 E6 E6 E6 E6 E6 E6 E6 E6 E6 E6 E6 E6 E6 E6 E6 E6 E6 E6 E6 E6 E6 E6 E6 E6 E6 E6 E6 E6 E6    C4 C4 C4 C4 C4 C4 C4 C4 C4 C4 C4 C4 C4 C4 C4 C4 C4 C4 C4 C4 C4 C4 C4 C4 C4 C4 C4 C4 C4 C4 C4 C4 C4 C4 C4 C4 C4 C4 C4 C4 C4 C4 C4 C4 C4 C4 C4 C4 C4 C4 C4 C4 C4 C4 C4 C4 C4 C4 C4 C4 C4 C4 C4 C4 C4 C4 C4 C4 C4 C4 C4 C4 C4 C4 C4 C4 C4 C4 C4 C4 C4 C4 C4 C4 C4 C4 C4 C4 C4 C4 C4 C4 C4 C4 C4 C4 C4 C4 C4 C4 C4 C4 C4 C4 C4 C4 C4 C4 C4 C4 C4 C4 C4 C4 C4 C4 C4 C4 C4 C4 C4 C4 C4 C4 C4 C4 C4 C4 C4 C4 C4 C4 C4 C4 C4 C4 C4 C4 C4 C4 C4 C4 C4 C4 C4 C4 C4 C4 C4 C4 C4 C4     2B 2B 2B 2B 2B 2B 2B 2B 2B 2B 2B 2B 2B 2B 2B 2B 2B 2B 2B 2B 2B 2B 2B 2B 2B 2B 2B 2B 2B 2B 2B 2B 2B 2B 2B 2B 2B 2B 2B 2B 2B 2B 2B 2B 2B 2B 2B 2B 2B 2B 2B 2B 2B 2B 2B 2B 2B 2B 2B 2B 2B 2B 2B 2B 2B 2B 2B 2B 2B 2B 2B 2B 2B 2B 2B 2B 2B 2B 2B 2B 2B 2B 2B 2B 2B 2B 2B 2B 2B 2B 2B 2B 2B 2B 2B 2B 2B 2B 2B 2B 2B 2B 2B 2B 2B 2B 2B 2B 2B 2B 2B 2B 2B 2B 2B 2B 2B 2B 2B 2B 2B 2B 2B 2B 2B 2B 2B 2B 2B 2B 2B 2B 2B 2B 2B 2B 2B 2B 2B 2B 2B 2B 2B 2B 2B 2B 2B 2B 2B 2B 2B 2B B B B 3B 3B 3B 3B 3B 3B 3B 3B 3B 3B 3B 3B 3B 3B 3B 3B 3B 3B 3B 3B 3B 3B 3B 3B 3B 3B 3B 3B 3B 3B 3B 3B 3B 3B 3B 3B 3B 3B 3B 3B 3B 3B 3B 3B 3B 3B 3B 3B 3B 3B 3B 3B 3B 3B 3B 3B 3B 3B 3B 3B 3B 3B 3B 3B 3B 3B 3B 3B 3B 3B 3B 3B 3B 3B 3B 3B 3B 3B 3B 3B 3B 3B 3B 3B 3B 3B 3B 3B 3B 3B 3B 3B 3B 3B 3B 3B 3B 3B 3B 3B 3B 3B 3B 3B 3B 3B 3B 3B 3B 3B 3B 3B 3B 3B 3B 3B 3B 3B 3B 3B 3B 3B 3B 3B 3B 3B 3B 3B 3B 3B 3B 3B 3B 3B 3B 3B 3B 3B 3B 3B 3B 3B 3B 3B 3B 3B 3B 3B 3B 3B 3B 3B     2JBE 2JBE 2JBE 2JBE 2JBE 2JBE 2JBE 2JBE 2JBE 2JBE 2JBE 2JBE 2JBE 2JBE 2JBE 2JBE 2JBE 2JBE 2JBE 2JBE 2JBE 2JBE 2JBE 2JBE 2JBE 2JBE 2JBE 2JBE 2JBE 2JBE 2JBE 2JBE 2JBE 2JBE 2JBE 2JBE 2JBE 2JBE 2JBE 2JBE 2JBE 2JBE 2JBE 2JBE 2JBE 2JBE 2JBE 2JBE 2JBE 2JBE 2JBE 2JBE 2JBE 2JBE 2JBE 2JBE 2JBE 2JBE 2JBE 2JBE 2JBE 2JBE 2JBE 2JBE 2JBE 2JBE 2JBE 2JBE 2JBE 2JBE 2JBE 2JBE 2JBE 2JBE 2JBE 2JBE 2JBE 2JBE 2JBE 2JBE 2JBE 2JBE 2JBE 2JBE 2JBE 2JBE 2JBE 2JBE 2JBE 2JBE 2JBE 2JBE 2JBE 2JBE 2JBE 2JBE 2JBE 2JBE 2JBE 2JBE 2JBE 2JBE 2JBE 2JBE 2JBE 2JBE 2JBE 2JBE 2JBE 2JBE 2JBE 2JBE 2JBE 2JBE 2JBE 2JBE 2JBE 2JBE 2JBE 2JBE 2JBE 2JBE 2JBE 2JBE 2JBE 2JBE 2JBE 2JBE 2JBE 2JBE 2JBE 2JBE 2JBE 2JBE 2JBE 2JBE 2JBE 2JBE 2JBE 2JBE 2JBE 2JBE 2JBE 2JBE 2JBE 2JBE 2JBE 2JBE 2JBE 2JBE 2JBE 2JBE JBE JBE JBE 0JBE 0JBE 0JBE 0JBE 0JBE 0JBE 0JBE 0JBE 0JBE 0JBE 0JBE 0JBE 0JBE 0JBE 0JBE 0JBE 0JBE 0JBE 0JBE 0JBE 0JBE 0JBE 0JBE 0JBE 0JBE 0JBE 0JBE 0JBE 0JBE 0JBE 0JBE 0JBE 0JBE 0JBE 0JBE 0JBE 0JBE 0JBE 0JBE 0JBE 0JBE 0JBE 0JBE 0JBE 0JBE 0JBE 0JBE 0JBE 0JBE 0JBE 0JBE 0JBE 0JBE 0JBE 0JBE 0JBE 0JBE 0JBE 0JBE 0JBE 0JBE 0JBE 0JBE 0JBE 0JBE 0JBE 0JBE 0JBE 0JBE 0JBE 0JBE 0JBE 0JBE 0JBE 0JBE 0JBE 0JBE 0JBE 0JBE 0JBE 0JBE 0JBE 0JBE 0JBE 0JBE 0JBE 0JBE 0JBE 0JBE 0JBE 0JBE 0JBE 0JBE 0JBE 0JBE 0JBE 0JBE 0JBE 0JBE 0JBE 0JBE 0JBE 0JBE 0JBE 0JBE 0JBE 0JBE 0JBE 0JBE 0JBE 0JBE 0JBE 0JBE 0JBE 0JBE 0JBE 0JBE 0JBE 0JBE 0JBE 0JBE 0JBE 0JBE 0JBE 0JBE 0JBE 0JBE 0JBE 0JBE 0JBE 0JBE 0JBE 0JBE 0JBE 0JBE 0JBE 0JBE 0JBE 0JBE 0JBE 0JBE 0JBE 0JBE 0JBE 0JBE 0JBE 0JBE 0JBE 0JBE 0JBE 0JBE 0JBE     .JBE .JBE .JBE .JBE .JBE .JBE .JBE .JBE .JBE .JBE .JBE .JBE .JBE .JBE .JBE .JBE .JBE .JBE .JBE .JBE .JBE .JBE .JBE .JBE .JBE .JBE .JBE .JBE .JBE .JBE .JBE .JBE .JBE .JBE .JBE .JBE .JBE .JBE .JBE .JBE .JBE .JBE .JBE .JBE .JBE .JBE .JBE .JBE .JBE .JBE .JBE .JBE .JBE .JBE .JBE .JBE .JBE .JBE .JBE .JBE .JBE .JBE .JBE .JBE .JBE .JBE .JBE .JBE .JBE .JBE .JBE .JBE .JBE .JBE .JBE .JBE .JBE .JBE .JBE .JBE .JBE .JBE .JBE .JBE .JBE .JBE .JBE .JBE .JBE .JBE .JBE .JBE .JBE .JBE .JBE .JBE .JBE .JBE .JBE .JBE .JBE .JBE .JBE .JBE .JBE .JBE .JBE .JBE .JBE .JBE .JBE .JBE .JBE .JBE .JBE .JBE .JBE .JBE .JBE .JBE .JBE .JBE .JBE .JBE .JBE .JBE .JBE .JBE .JBE .JBE .JBE .JBE .JBE .JBE .JBE .JBE .JBE .JBE .JBE .JBE .JBE .JBE .JBE .JBE .JBE .JBE .JBE .JBE .JBE .JBE .JBE .JBE JBE JBE JBE -JBE -JBE -JBE -JBE -JBE -JBE -JBE -JBE -JBE -JBE -JBE -JBE -JBE -JBE -JBE -JBE -JBE -JBE -JBE -JBE -JBE -JBE -JBE -JBE -JBE -JBE -JBE -JBE -JBE -JBE -JBE -JBE -JBE -JBE -JBE -JBE -JBE -JBE -JBE -JBE -JBE -JBE -JBE -JBE -JBE -JBE -JBE -JBE -JBE -JBE -JBE -JBE -JBE -JBE -JBE -JBE -JBE -JBE -JBE -JBE -JBE -JBE -JBE -JBE -JBE -JBE -JBE -JBE -JBE -JBE -JBE -JBE -JBE -JBE -JBE -JBE -JBE -JBE -JBE -JBE -JBE -JBE -JBE -JBE -JBE -JBE -JBE -JBE -JBE -JBE -JBE -JBE -JBE -JBE -JBE -JBE -JBE -JBE -JBE -JBE -JBE -JBE -JBE -JBE -JBE -JBE -JBE -JBE -JBE -JBE -JBE -JBE -JBE -JBE -JBE -JBE -JBE -JBE -JBE -JBE -JBE -JBE -JBE -JBE -JBE -JBE -JBE -JBE -JBE -JBE -JBE -JBE -JBE -JBE -JBE -JBE -JBE -JBE -JBE -JBE -JBE -JBE -JBE -JBE -JBE -JBE -JBE -JBE -JBE -JBE -JBE -JBE     +CF> +CF> +CF> +CF> +CF> +CF> +CF> +CF> +CF> +CF> +CF> +CF> +CF> +CF> +CF> +CF> +CF> +CF> +CF> +CF> +CF> +CF> +CF> +CF> +CF> +CF> +CF> +CF> +CF> +CF> +CF> +CF> +CF> +CF> +CF> +CF> +CF> +CF> +CF> +CF> +CF> +CF> +CF> +CF> +CF> +CF> +CF> +CF> +CF> +CF> +CF> +CF> +CF> +CF> +CF> +CF> +CF> +CF> +CF> +CF> +CF> +CF> +CF> +CF> +CF> +CF> +CF> +CF> +CF> +CF> +CF> +CF> +CF> +CF> +CF> +CF> +CF> +CF> +CF> +CF> +CF> +CF> +CF> +CF> +CF> +CF> +CF> +CF> +CF> +CF> +CF> +CF> +CF> +CF> +CF> +CF> +CF> +CF> +CF> +CF> +CF> +CF> +CF> +CF> +CF> +CF> +CF> +CF> +CF> +CF> +CF> +CF> +CF> +CF> +CF> +CF> +CF> +CF> +CF> +CF> +CF> +CF> +CF> +CF> +CF> +CF> +CF> +CF> +CF> +CF> +CF> +CF> +CF> +CF> +CF> +CF> +CF> +CF> +CF> +CF> +CF> +CF> +CF> +CF> +CF> +CF> +CF> +CF> +CF> +CF> +CF> +CF> CF> CF> CF> -CF> -CF> -CF> -CF> -CF> -CF> -CF> -CF> -CF> -CF> -CF> -CF> -CF> -CF> -CF> -CF> -CF> -CF> -CF> -CF> -CF> -CF> -CF> -CF> -CF> -CF> -CF> -CF> -CF> -CF> -CF> -CF> -CF> -CF> -CF> -CF> -CF> -CF> -CF> -CF> -CF> -CF> -CF> -CF> -CF> -CF> -CF> -CF> -CF> -CF> -CF> -CF> -CF> -CF> -CF> -CF> -CF> -CF> -CF> -CF> -CF> -CF> -CF> -CF> -CF> -CF> -CF> -CF> -CF> -CF> -CF> -CF> -CF> -CF> -CF> -CF> -CF> -CF> -CF> -CF> -CF> -CF> -CF> -CF> -CF> -CF> -CF> -CF> -CF> -CF> -CF> -CF> -CF> -CF> -CF> -CF> -CF> -CF> -CF> -CF> -CF> -CF> -CF> -CF> -CF> -CF> -CF> -CF> -CF> -CF> -CF> -CF> -CF> -CF> -CF> -CF> -CF> -CF> -CF> -CF> -CF> -CF> -CF> -CF> -CF> -CF> -CF> -CF> -CF> -CF> -CF> -CF> -CF> -CF> -CF> -CF> -CF> -CF> -CF> -CF> -CF> -CF> -CF> -CF> -CF> -CF> -CF> -CF> -CF> -CF> -CF> -CF>     +C>F +C>F +C>F +C>F +C>F +C>F +C>F +C>F +C>F +C>F +C>F +C>F +C>F +C>F +C>F +C>F +C>F +C>F +C>F +C>F +C>F +C>F +C>F +C>F +C>F +C>F +C>F +C>F +C>F +C>F +C>F +C>F +C>F +C>F +C>F +C>F +C>F +C>F +C>F +C>F +C>F +C>F +C>F +C>F +C>F +C>F +C>F +C>F +C>F +C>F +C>F +C>F +C>F +C>F +C>F +C>F +C>F +C>F +C>F +C>F +C>F +C>F +C>F +C>F +C>F +C>F +C>F +C>F +C>F +C>F +C>F +C>F +C>F +C>F +C>F +C>F +C>F +C>F +C>F +C>F +C>F +C>F +C>F +C>F +C>F +C>F +C>F +C>F +C>F +C>F +C>F +C>F +C>F +C>F +C>F +C>F +C>F +C>F +C>F +C>F +C>F +C>F +C>F +C>F +C>F +C>F +C>F +C>F +C>F +C>F +C>F +C>F +C>F +C>F +C>F +C>F +C>F +C>F +C>F +C>F +C>F +C>F +C>F +C>F +C>F +C>F +C>F +C>F +C>F +C>F +C>F +C>F +C>F +C>F +C>F +C>F +C>F +C>F +C>F +C>F +C>F +C>F +C>F +C>F +C>F +C>F +C>F +C>F +C>F +C>F +C>F +C>F C>F C>F C>F )C>F )C>F )C>F )C>F )C>F )C>F )C>F )C>F )C>F )C>F )C>F )C>F )C>F )C>F )C>F )C>F )C>F )C>F )C>F )C>F )C>F )C>F )C>F )C>F )C>F )C>F )C>F )C>F )C>F )C>F )C>F )C>F )C>F )C>F )C>F )C>F )C>F )C>F )C>F )C>F )C>F )C>F )C>F )C>F )C>F )C>F )C>F )C>F )C>F )C>F )C>F )C>F )C>F )C>F )C>F )C>F )C>F )C>F )C>F )C>F )C>F )C>F )C>F )C>F )C>F )C>F )C>F )C>F )C>F )C>F )C>F )C>F )C>F )C>F )C>F )C>F )C>F )C>F )C>F )C>F )C>F )C>F )C>F )C>F )C>F )C>F )C>F )C>F )C>F )C>F )C>F )C>F )C>F )C>F )C>F )C>F )C>F )C>F )C>F )C>F )C>F )C>F )C>F )C>F )C>F )C>F )C>F )C>F )C>F )C>F )C>F )C>F )C>F )C>F )C>F )C>F )C>F )C>F )C>F )C>F )C>F )C>F )C>F )C>F )C>F )C>F )C>F )C>F )C>F )C>F )C>F )C>F )C>F )C>F )C>F )C>F )C>F )C>F )C>F )C>F )C>F )C>F )C>F )C>F )C>F )C>F )C>F )C>F )C>F )C>F )C>F )C>F     'C>F 'C>F 'C>F 'C>F 'C>F 'C>F 'C>F 'C>F 'C>F 'C>F 'C>F 'C>F 'C>F 'C>F 'C>F 'C>F 'C>F 'C>F 'C>F 'C>F 'C>F 'C>F 'C>F 'C>F 'C>F 'C>F 'C>F 'C>F 'C>F 'C>F 'C>F 'C>F 'C>F 'C>F 'C>F 'C>F 'C>F 'C>F 'C>F 'C>F 'C>F 'C>F 'C>F 'C>F 'C>F 'C>F 'C>F 'C>F 'C>F 'C>F 'C>F 'C>F 'C>F 'C>F 'C>F 'C>F 'C>F 'C>F 'C>F 'C>F 'C>F 'C>F 'C>F 'C>F 'C>F 'C>F 'C>F 'C>F 'C>F 'C>F 'C>F 'C>F 'C>F 'C>F 'C>F 'C>F 'C>F 'C>F 'C>F 'C>F 'C>F 'C>F 'C>F 'C>F 'C>F 'C>F 'C>F 'C>F 'C>F 'C>F 'C>F 'C>F 'C>F 'C>F 'C>F 'C>F 'C>F 'C>F 'C>F 'C>F 'C>F 'C>F 'C>F 'C>F 'C>F 'C>F 'C>F 'C>F 'C>F 'C>F 'C>F 'C>F 'C>F 'C>F 'C>F 'C>F 'C>F 'C>F 'C>F 'C>F 'C>F 'C>F 'C>F 'C>F 'C>F 'C>F 'C>F 'C>F 'C>F 'C>F 'C>F 'C>F 'C>F 'C>F 'C>F 'C>F 'C>F 'C>F 'C>F 'C>F 'C>F 'C>F 'C>F 'C>F 'C>F 'C>F 'C>F 'C>F 'C>F 'C>F 'C>F 'C>F C>F C>F C>F &C>F &C>F &C>F &C>F &C>F &C>F &C>F &C>F &C>F &C>F &C>F &C>F &C>F &C>F &C>F &C>F &C>F &C>F &C>F &C>F &C>F &C>F &C>F &C>F &C>F &C>F &C>F &C>F &C>F &C>F &C>F &C>F &C>F &C>F &C>F &C>F &C>F &C>F &C>F &C>F &C>F &C>F &C>F &C>F &C>F &C>F &C>F &C>F &C>F &C>F &C>F &C>F &C>F &C>F &C>F &C>F &C>F &C>F &C>F &C>F &C>F &C>F &C>F &C>F &C>F &C>F &C>F &C>F &C>F &C>F &C>F &C>F &C>F &C>F &C>F &C>F &C>F &C>F &C>F &C>F &C>F &C>F &C>F &C>F &C>F &C>F &C>F &C>F &C>F &C>F &C>F &C>F &C>F &C>F &C>F &C>F &C>F &C>F &C>F &C>F &C>F &C>F &C>F &C>F &C>F &C>F &C>F &C>F &C>F &C>F &C>F &C>F &C>F &C>F &C>F &C>F &C>F &C>F &C>F &C>F &C>F &C>F &C>F &C>F &C>F &C>F &C>F &C>F &C>F &C>F &C>F &C>F &C>F &C>F &C>F &C>F &C>F &C>F &C>F &C>F &C>F &C>F &C>F &C>F &C>F &C>F &C>F &C>F &C>F &C>F &C>F &C>F     ?$F ?$F ?$F ?$F ?$F ?$F ?$F ?$F ?$F ?$F ?$F ?$F ?$F ?$F ?$F ?$F ?$F ?$F ?$F ?$F ?$F ?$F ?$F ?$F ?$F ?$F ?$F ?$F ?$F ?$F ?$F ?$F ?$F ?$F ?$F ?$F ?$F ?$F ?$F ?$F ?$F ?$F ?$F ?$F ?$F ?$F ?$F ?$F ?$F ?$F ?$F ?$F ?$F ?$F ?$F ?$F ?$F ?$F ?$F ?$F ?$F ?$F ?$F ?$F ?$F ?$F ?$F ?$F ?$F ?$F ?$F ?$F ?$F ?$F ?$F ?$F ?$F ?$F ?$F ?$F ?$F ?$F ?$F ?$F ?$F ?$F ?$F ?$F ?$F ?$F ?$F ?$F ?$F ?$F ?$F ?$F ?$F ?$F ?$F ?$F ?$F ?$F ?$F ?$F ?$F ?$F ?$F ?$F ?$F ?$F ?$F ?$F ?$F ?$F ?$F ?$F ?$F ?$F ?$F ?$F ?$F ?$F ?$F ?$F ?$F ?$F ?$F ?$F ?$F ?$F ?$F ?$F ?$F ?$F ?$F ?$F ?$F ?$F ?$F ?$F ?$F ?$F ?$F ?$F ?$F ?$F ?$F ?$F ?$F ?$F ?$F ?$F $F $F $F >$F >$F >$F >$F >$F >$F >$F >$F >$F >$F >$F >$F >$F >$F >$F >$F >$F >$F >$F >$F >$F >$F >$F >$F >$F >$F >$F >$F >$F >$F >$F >$F >$F >$F >$F >$F >$F >$F >$F >$F >$F >$F >$F >$F >$F >$F >$F >$F >$F >$F >$F >$F >$F >$F >$F >$F >$F >$F >$F >$F >$F >$F >$F >$F >$F >$F >$F >$F >$F >$F >$F >$F >$F >$F >$F >$F >$F >$F >$F >$F >$F >$F >$F >$F >$F >$F >$F >$F >$F >$F >$F >$F >$F >$F >$F >$F >$F >$F >$F >$F >$F >$F >$F >$F >$F >$F >$F >$F >$F >$F >$F >$F >$F >$F >$F >$F >$F >$F >$F >$F >$F >$F >$F >$F >$F >$F >$F >$F >$F >$F >$F >$F >$F >$F >$F >$F >$F >$F >$F >$F >$F >$F >$F >$F >$F >$F >$F >$F >$F >$F >$F >$F F F F F ?0F ?0F ?0F ?0F ?0F ?0F ?0F ?0F ?0F ?0F ?0F ?0F ?0F ?0F ?0F ?0F ?0F ?0F ?0F ?0F ?0F ?0F ?0F ?0F ?0F ?0F ?0F ?0F ?0F ?0F ?0F ?0F ?0F ?0F ?0F ?0F ?0F ?0F ?0F ?0F ?0F ?0F ?0F ?0F ?0F ?0F ?0F ?0F ?0F ?0F ?0F ?0F ?0F ?0F ?0F ?0F ?0F ?0F ?0F ?0F ?0F ?0F ?0F ?0F ?0F ?0F ?0F ?0F ?0F ?0F ?0F ?0F ?0F ?0F ?0F ?0F ?0F ?0F ?0F ?0F ?0F ?0F ?0F ?0F ?0F ?0F ?0F ?0F ?0F ?0F ?0F ?0F ?0F ?0F ?0F ?0F ?0F ?0F ?0F ?0F ?0F ?0F ?0F ?0F ?0F ?0F ?0F ?0F ?0F ?0F ?0F ?0F ?0F ?0F ?0F ?0F ?0F ?0F ?0F ?0F ?0F ?0F ?0F ?0F ?0F ?0F ?0F ?0F ?0F ?0F ?0F ?0F ?0F ?0F ?0F ?0F ?0F ?0F ?0F ?0F ?0F ?0F ?0F ?0F ?0F ?0F ?0F ?0F ?0F ?0F ?0F ?0F 0F 0F 0F A0F A0F A0F A0F A0F A0F A0F A0F A0F A0F A0F A0F A0F A0F A0F A0F A0F A0F A0F A0F A0F A0F A0F A0F A0F A0F A0F A0F A0F A0F A0F A0F A0F A0F A0F A0F A0F A0F A0F A0F A0F A0F A0F A0F A0F A0F A0F A0F A0F A0F A0F A0F A0F A0F A0F A0F A0F A0F A0F A0F A0F A0F A0F A0F A0F A0F A0F A0F A0F A0F A0F A0F A0F A0F A0F A0F A0F A0F A0F A0F A0F A0F A0F A0F A0F A0F A0F A0F A0F A0F A0F A0F A0F A0F A0F A0F A0F A0F A0F A0F A0F A0F A0F A0F A0F A0F A0F A0F A0F A0F A0F A0F A0F A0F A0F A0F A0F A0F A0F A0F A0F A0F A0F A0F A0F A0F A0F A0F A0F A0F A0F A0F A0F A0F A0F A0F A0F A0F A0F A0F A0F A0F A0F A0F A0F A0F A0F A0F A0F A0F A0F A0F F F F F C0F C0F C0F C0F C0F C0F C0F C0F C0F C0F C0F C0F C0F C0F C0F C0F C0F C0F C0F C0F C0F C0F C0F C0F C0F C0F C0F C0F C0F C0F C0F C0F C0F C0F C0F C0F C0F C0F C0F C0F C0F C0F C0F C0F C0F C0F C0F C0F C0F C0F C0F C0F C0F C0F C0F C0F C0F C0F C0F C0F C0F C0F C0F C0F C0F C0F C0F C0F C0F C0F C0F C0F C0F C0F C0F C0F C0F C0F C0F C0F C0F C0F C0F C0F C0F C0F C0F C0F C0F C0F C0F C0F C0F C0F C0F C0F C0F C0F C0F C0F C0F C0F C0F C0F C0F C0F C0F C0F C0F C0F C0F C0F C0F C0F C0F C0F C0F C0F C0F C0F C0F C0F C0F C0F C0F C0F C0F C0F C0F C0F C0F C0F C0F C0F C0F C0F C0F C0F C0F C0F C0F C0F C0F C0F C0F C0F C0F C0F C0F C0F C0F C0F 0F 0F 0F 0F 0?F 0?F 0?F 0?F 0?F 0?F 0?F 0?F 0?F 0?F 0?F 0?F 0?F 0?F 0?F 0?F 0?F 0?F 0?F 0?F 0?F 0?F 0?F 0?F 0?F 0?F 0?F 0?F 0?F 0?F 0?F 0?F 0?F 0?F 0?F 0?F 0?F 0?F 0?F 0?F 0?F 0?F 0?F 0?F 0?F 0?F 0?F 0?F 0?F 0?F 0?F 0?F 0?F 0?F 0?F 0?F 0?F 0?F 0?F 0?F 0?F 0?F 0?F 0?F 0?F 0?F 0?F 0?F 0?F 0?F 0?F 0?F 0?F 0?F 0?F 0?F 0?F 0?F 0?F 0?F 0?F 0?F 0?F 0?F 0?F 0?F 0?F 0?F 0?F 0?F 0?F 0?F 0?F 0?F 0?F 0?F 0?F 0?F 0?F 0?F 0?F 0?F 0?F 0?F 0?F 0?F 0?F 0?F 0?F 0?F 0?F 0?F 0?F 0?F 0?F 0?F 0?F 0?F 0?F 0?F 0?F 0?F 0?F 0?F 0?F 0?F 0?F 0?F 0?F 0?F 0?F 0?F 0?F 0?F 0?F 0?F 0?F 0?F 0?F 0?F 0?F 0?F 0?F 0?F 0?F 0?F 0?F 0?F 0?F 0?F 0?F ?F F   <)E <)E <)E <)E <)E <)E <)E <)E <)E <)E <)E <)E <)E <)E <)E <)E <)E <)E <)E <)E <)E <)E <)E <)E <)E <)E <)E <)E <)E <)E <)E <)E <)E <)E <)E <)E <)E <)E <)E <)E <)E <)E <)E <)E <)E <)E <)E <)E <)E <)E <)E <)E <)E <)E <)E <)E <)E <)E <)E <)E <)E <)E <)E <)E <)E <)E <)E <)E <)E <)E <)E <)E <)E <)E <)E <)E <)E <)E <)E <)E <)E <)E <)E <)E <)E <)E <)E <)E <)E <)E <)E <)E <)E <)E <)E <)E <)E <)E <)E <)E <)E <)E <)E <)E <)E <)E <)E <)E <)E <)E <)E <)E <)E <)E <)E <)E <)E <)E <)E <)E <)E <)E <)E <)E <)E <)E <)E <)E <)E <)E <)E <)E <)E <)E <)E <)E <)E <)E <)E <)E <)E <)E <)E <)E <)E <)E <)E <)E <)E <)E <)E <)E )E )E )E )E )CE )CE )CE )CE )CE )CE )CE )CE )CE )CE )CE )CE )CE )CE )CE )CE )CE )CE )CE )CE )CE )CE )CE )CE )CE )CE )CE )CE )CE )CE )CE )CE )CE )CE )CE )CE )CE )CE )CE )CE )CE )CE )CE )CE )CE )CE )CE )CE )CE )CE )CE )CE )CE )CE )CE )CE )CE )CE )CE )CE )CE )CE )CE )CE )CE )CE )CE )CE )CE )CE )CE )CE )CE )CE )CE )CE )CE )CE )CE )CE )CE )CE )CE )CE )CE )CE )CE )CE )CE )CE )CE )CE )CE )CE )CE )CE )CE )CE )CE )CE )CE )CE )CE )CE )CE )CE )CE )CE )CE )CE )CE )CE )CE )CE )CE )CE )CE )CE )CE )CE )CE )CE )CE )CE )CE )CE )CE )CE )CE )CE )CE )CE )CE )CE )CE )CE )CE )CE )CE )CE )CE )CE )CE )CE )CE )CE )CE )CE )CE )CE )CE CE E E E A5E A5E A5E A5E A5E A5E A5E A5E A5E A5E A5E A5E A5E A5E A5E A5E A5E A5E A5E A5E A5E A5E A5E A5E A5E A5E A5E A5E A5E A5E A5E A5E A5E A5E A5E A5E A5E A5E A5E A5E A5E A5E A5E A5E A5E A5E A5E A5E A5E A5E A5E A5E A5E A5E A5E A5E A5E A5E A5E A5E A5E A5E A5E A5E A5E A5E A5E A5E A5E A5E A5E A5E A5E A5E A5E A5E A5E A5E A5E A5E A5E A5E A5E A5E A5E A5E A5E A5E A5E A5E A5E A5E A5E A5E A5E A5E A5E A5E A5E A5E A5E A5E A5E A5E A5E A5E A5E A5E A5E A5E A5E A5E A5E A5E A5E A5E A5E A5E A5E A5E A5E A5E A5E A5E A5E A5E A5E A5E A5E A5E A5E A5E A5E A5E A5E A5E A5E A5E A5E A5E A5E A5E A5E A5E A5E A5E A5E A5E A5E A5E A5E A5E 5E 5E 5E 5E 5?E 5?E 5?E 5?E 5?E 5?E 5?E 5?E 5?E 5?E 5?E 5?E 5?E 5?E 5?E 5?E 5?E 5?E 5?E 5?E 5?E 5?E 5?E 5?E 5?E 5?E 5?E 5?E 5?E 5?E 5?E 5?E 5?E 5?E 5?E 5?E 5?E 5?E 5?E 5?E 5?E 5?E 5?E 5?E 5?E 5?E 5?E 5?E 5?E 5?E 5?E 5?E 5?E 5?E 5?E 5?E 5?E 5?E 5?E 5?E 5?E 5?E 5?E 5?E 5?E 5?E 5?E 5?E 5?E 5?E 5?E 5?E 5?E 5?E 5?E 5?E 5?E 5?E 5?E 5?E 5?E 5?E 5?E 5?E 5?E 5?E 5?E 5?E 5?E 5?E 5?E 5?E 5?E 5?E 5?E 5?E 5?E 5?E 5?E 5?E 5?E 5?E 5?E 5?E 5?E 5?E 5?E 5?E 5?E 5?E 5?E 5?E 5?E 5?E 5?E 5?E 5?E 5?E 5?E 5?E 5?E 5?E 5?E 5?E 5?E 5?E 5?E 5?E 5?E 5?E 5?E 5?E 5?E 5?E 5?E 5?E 5?E 5?E 5?E 5?E 5?E 5?E 5?E 5?E 5?E 5?E 5?E 5?E 5?E 5?E 5?E ?E E E E >5E >5E >5E >5E >5E >5E >5E >5E >5E >5E >5E >5E >5E >5E >5E >5E >5E >5E >5E >5E >5E >5E >5E >5E >5E >5E >5E >5E >5E >5E >5E >5E >5E >5E >5E >5E >5E >5E >5E >5E >5E >5E >5E >5E >5E >5E >5E >5E >5E >5E >5E >5E >5E >5E >5E >5E >5E >5E >5E >5E >5E >5E >5E >5E >5E >5E >5E >5E >5E >5E >5E >5E >5E >5E >5E >5E >5E >5E >5E >5E >5E >5E >5E >5E >5E >5E >5E >5E >5E >5E >5E >5E >5E >5E >5E >5E >5E >5E >5E >5E >5E >5E >5E >5E >5E >5E >5E >5E >5E >5E >5E >5E >5E >5E >5E >5E >5E >5E >5E >5E >5E >5E >5E >5E >5E >5E >5E >5E >5E >5E >5E >5E >5E >5E >5E >5E >5E >5E >5E >5E >5E >5E >5E >5E >5E >5E >5E >5E >5E >5E >5E >5E 5E 5E 5E 5E 5<E 5<E 5<E 5<E 5<E 5<E 5<E 5<E 5<E 5<E 5<E 5<E 5<E 5<E 5<E 5<E 5<E 5<E 5<E 5<E 5<E 5<E 5<E 5<E 5<E 5<E 5<E 5<E 5<E 5<E 5<E 5<E 5<E 5<E 5<E 5<E 5<E 5<E 5<E 5<E 5<E 5<E 5<E 5<E 5<E 5<E 5<E 5<E 5<E 5<E 5<E 5<E 5<E 5<E 5<E 5<E 5<E 5<E 5<E 5<E 5<E 5<E 5<E 5<E 5<E 5<E 5<E 5<E 5<E 5<E 5<E 5<E 5<E 5<E 5<E 5<E 5<E 5<E 5<E 5<E 5<E 5<E 5<E 5<E 5<E 5<E 5<E 5<E 5<E 5<E 5<E 5<E 5<E 5<E 5<E 5<E 5<E 5<E 5<E 5<E 5<E 5<E 5<E 5<E 5<E 5<E 5<E 5<E 5<E 5<E 5<E 5<E 5<E 5<E 5<E 5<E 5<E 5<E 5<E 5<E 5<E 5<E 5<E 5<E 5<E 5<E 5<E 5<E 5<E 5<E 5<E 5<E 5<E 5<E 5<E 5<E 5<E 5<E 5<E 5<E 5<E 5<E 5<E 5<E 5<E 5<E 5<E 5<E 5<E 5<E 5<E <E E E E >:E >:E >:E >:E >:E >:E >:E >:E >:E >:E >:E >:E >:E >:E >:E >:E >:E >:E >:E >:E >:E >:E >:E >:E >:E >:E >:E >:E >:E >:E >:E >:E >:E >:E >:E >:E >:E >:E >:E >:E >:E >:E >:E >:E >:E >:E >:E >:E >:E >:E >:E >:E >:E >:E >:E >:E >:E >:E >:E >:E >:E >:E >:E >:E >:E >:E >:E >:E >:E >:E >:E >:E >:E >:E >:E >:E >:E >:E >:E >:E >:E >:E >:E >:E >:E >:E >:E >:E >:E >:E >:E >:E >:E >:E >:E >:E >:E >:E >:E >:E >:E >:E >:E >:E >:E >:E >:E >:E >:E >:E >:E >:E >:E >:E >:E >:E >:E >:E >:E >:E >:E >:E >:E >:E >:E >:E >:E >:E >:E >:E >:E >:E >:E >:E >:E >:E >:E >:E >:E >:E >:E >:E >:E >:E >:E >:E >:E >:E >:E >:E >:E >:E :E :E :E :E :<E :<E :<E :<E :<E :<E :<E :<E :<E :<E :<E :<E :<E :<E :<E :<E :<E :<E :<E :<E :<E :<E :<E :<E :<E :<E :<E :<E :<E :<E :<E :<E :<E :<E :<E :<E :<E :<E :<E :<E :<E :<E :<E :<E :<E :<E :<E :<E :<E :<E :<E :<E :<E :<E :<E :<E :<E :<E :<E :<E :<E :<E :<E :<E :<E :<E :<E :<E :<E :<E :<E :<E :<E :<E :<E :<E :<E :<E :<E :<E :<E :<E :<E :<E :<E :<E :<E :<E :<E :<E :<E :<E :<E :<E :<E :<E :<E :<E :<E :<E :<E :<E :<E :<E :<E :<E :<E :<E :<E :<E :<E :<E :<E :<E :<E :<E :<E :<E :<E :<E :<E :<E :<E :<E :<E :<E :<E :<E :<E :<E :<E :<E :<E :<E :<E :<E :<E :<E :<E :<E :<E :<E :<E :<E :<E :<E :<E :<E :<E :<E :<E <E E E E >.E >.E >.E >.E >.E >.E >.E >.E >.E >.E >.E >.E >.E >.E >.E >.E >.E >.E >.E >.E >.E >.E >.E >.E >.E >.E >.E >.E >.E >.E >.E >.E >.E >.E >.E >.E >.E >.E >.E >.E >.E >.E >.E >.E >.E >.E >.E >.E >.E >.E >.E >.E >.E >.E >.E >.E >.E >.E >.E >.E >.E >.E >.E >.E >.E >.E >.E >.E >.E >.E >.E >.E >.E >.E >.E >.E >.E >.E >.E >.E >.E >.E >.E >.E >.E >.E >.E >.E >.E >.E >.E >.E >.E >.E >.E >.E >.E >.E >.E >.E >.E >.E >.E >.E >.E >.E >.E >.E >.E >.E >.E >.E >.E >.E >.E >.E >.E >.E >.E >.E >.E >.E >.E >.E >.E >.E >.E >.E >.E >.E >.E >.E >.E >.E >.E >.E >.E >.E >.E >.E >.E >.E >.E >.E >.E >.E >.E >.E >.E >.E >.E >.E .E .E .E .E .?E .?E .?E .?E .?E .?E .?E .?E .?E .?E .?E .?E .?E .?E .?E .?E .?E .?E .?E .?E .?E .?E .?E .?E .?E .?E .?E .?E .?E .?E .?E .?E .?E .?E .?E .?E .?E .?E .?E .?E .?E .?E .?E .?E .?E .?E .?E .?E .?E .?E .?E .?E .?E .?E .?E .?E .?E .?E .?E .?E .?E .?E .?E .?E .?E .?E .?E .?E .?E .?E .?E .?E .?E .?E .?E .?E .?E .?E .?E .?E .?E .?E .?E .?E .?E .?E .?E .?E .?E .?E .?E .?E .?E .?E .?E .?E .?E .?E .?E .?E .?E .?E .?E .?E .?E .?E .?E .?E .?E .?E .?E .?E .?E .?E .?E .?E .?E .?E .?E .?E .?E .?E .?E .?E .?E .?E .?E .?E .?E .?E .?E .?E .?E .?E .?E .?E .?E .?E .?E .?E .?E .?E .?E .?E .?E .?E .?E .?E .?E .?E .?E ?E E E E A.E A.E A.E A.E A.E A.E A.E A.E A.E A.E A.E A.E A.E A.E A.E A.E A.E A.E A.E A.E A.E A.E A.E A.E A.E A.E A.E A.E A.E A.E A.E A.E A.E A.E A.E A.E A.E A.E A.E A.E A.E A.E A.E A.E A.E A.E A.E A.E A.E A.E A.E A.E A.E A.E A.E A.E A.E A.E A.E A.E A.E A.E A.E A.E A.E A.E A.E A.E A.E A.E A.E A.E A.E A.E A.E A.E A.E A.E A.E A.E A.E A.E A.E A.E A.E A.E A.E A.E A.E A.E A.E A.E A.E A.E A.E A.E A.E A.E A.E A.E A.E A.E A.E A.E A.E A.E A.E A.E A.E A.E A.E A.E A.E A.E A.E A.E A.E A.E A.E A.E A.E A.E A.E A.E A.E A.E A.E A.E A.E A.E A.E A.E A.E A.E A.E A.E A.E A.E A.E A.E A.E A.E A.E A.E A.E A.E A.E A.E A.E A.E A.E A.E .E .E .E .E .>E .>E .>E .>E .>E .>E .>E .>E .>E .>E .>E .>E .>E .>E .>E .>E .>E .>E .>E .>E .>E .>E .>E .>E .>E .>E .>E .>E .>E .>E .>E .>E .>E .>E .>E .>E .>E .>E .>E .>E .>E .>E .>E .>E .>E .>E .>E .>E .>E .>E .>E .>E .>E .>E .>E .>E .>E .>E .>E .>E .>E .>E .>E .>E .>E .>E .>E .>E .>E .>E .>E .>E .>E .>E .>E .>E .>E .>E .>E .>E .>E .>E .>E .>E .>E .>E .>E .>E .>E .>E .>E .>E .>E .>E .>E .>E .>E .>E .>E .>E .>E .>E .>E .>E .>E .>E .>E .>E .>E .>E .>E .>E .>E .>E .>E .>E .>E .>E .>E .>E .>E .>E .>E .>E .>E .>E .>E .>E .>E .>E .>E .>E .>E .>E .>E .>E .>E .>E .>E .>E .>E .>E .>E .>E .>E .>E .>E .>E .>E .>E .>E >E    :'C :'C :'C :'C :'C :'C :'C :'C :'C :'C :'C :'C :'C :'C :'C :'C :'C :'C :'C :'C :'C :'C :'C :'C :'C :'C :'C :'C :'C :'C :'C :'C :'C :'C :'C :'C :'C :'C :'C :'C :'C :'C :'C :'C :'C :'C :'C :'C :'C :'C :'C :'C :'C :'C :'C :'C :'C :'C :'C :'C :'C :'C :'C :'C :'C :'C :'C :'C :'C :'C :'C :'C :'C :'C :'C :'C :'C :'C :'C :'C :'C :'C :'C :'C :'C :'C :'C :'C :'C :'C :'C :'C :'C :'C :'C :'C :'C :'C :'C :'C :'C :'C :'C :'C :'C :'C :'C :'C :'C :'C :'C :'C :'C :'C :'C :'C :'C :'C :'C :'C :'C :'C :'C :'C :'C :'C :'C :'C :'C :'C :'C :'C :'C :'C :'C :'C :'C :'C :'C :'C :'C :'C :'C :'C :'C :'C :'C :'C :'C :'C :'C :'C 'C 'C 'C 'C 'AC 'AC 'AC 'AC 'AC 'AC 'AC 'AC 'AC 'AC 'AC 'AC 'AC 'AC 'AC 'AC 'AC 'AC 'AC 'AC 'AC 'AC 'AC 'AC 'AC 'AC 'AC 'AC 'AC 'AC 'AC 'AC 'AC 'AC 'AC 'AC 'AC 'AC 'AC 'AC 'AC 'AC 'AC 'AC 'AC 'AC 'AC 'AC 'AC 'AC 'AC 'AC 'AC 'AC 'AC 'AC 'AC 'AC 'AC 'AC 'AC 'AC 'AC 'AC 'AC 'AC 'AC 'AC 'AC 'AC 'AC 'AC 'AC 'AC 'AC 'AC 'AC 'AC 'AC 'AC 'AC 'AC 'AC 'AC 'AC 'AC 'AC 'AC 'AC 'AC 'AC 'AC 'AC 'AC 'AC 'AC 'AC 'AC 'AC 'AC 'AC 'AC 'AC 'AC 'AC 'AC 'AC 'AC 'AC 'AC 'AC 'AC 'AC 'AC 'AC 'AC 'AC 'AC 'AC 'AC 'AC 'AC 'AC 'AC 'AC 'AC 'AC 'AC 'AC 'AC 'AC 'AC 'AC 'AC 'AC 'AC 'AC 'AC 'AC 'AC 'AC 'AC 'AC 'AC 'AC 'AC 'AC 'AC 'AC 'AC 'AC AC C C C ?3C ?3C ?3C ?3C ?3C ?3C ?3C ?3C ?3C ?3C ?3C ?3C ?3C ?3C ?3C ?3C ?3C ?3C ?3C ?3C ?3C ?3C ?3C ?3C ?3C ?3C ?3C ?3C ?3C ?3C ?3C ?3C ?3C ?3C ?3C ?3C ?3C ?3C ?3C ?3C ?3C ?3C ?3C ?3C ?3C ?3C ?3C ?3C ?3C ?3C ?3C ?3C ?3C ?3C ?3C ?3C ?3C ?3C ?3C ?3C ?3C ?3C ?3C ?3C ?3C ?3C ?3C ?3C ?3C ?3C ?3C ?3C ?3C ?3C ?3C ?3C ?3C ?3C ?3C ?3C ?3C ?3C ?3C ?3C ?3C ?3C ?3C ?3C ?3C ?3C ?3C ?3C ?3C ?3C ?3C ?3C ?3C ?3C ?3C ?3C ?3C ?3C ?3C ?3C ?3C ?3C ?3C ?3C ?3C ?3C ?3C ?3C ?3C ?3C ?3C ?3C ?3C ?3C ?3C ?3C ?3C ?3C ?3C ?3C ?3C ?3C ?3C ?3C ?3C ?3C ?3C ?3C ?3C ?3C ?3C ?3C ?3C ?3C ?3C ?3C ?3C ?3C ?3C ?3C ?3C ?3C ?3C ?3C ?3C ?3C ?3C ?3C 3C 3C 3C 3C 3>C 3>C 3>C 3>C 3>C 3>C 3>C 3>C 3>C 3>C 3>C 3>C 3>C 3>C 3>C 3>C 3>C 3>C 3>C 3>C 3>C 3>C 3>C 3>C 3>C 3>C 3>C 3>C 3>C 3>C 3>C 3>C 3>C 3>C 3>C 3>C 3>C 3>C 3>C 3>C 3>C 3>C 3>C 3>C 3>C 3>C 3>C 3>C 3>C 3>C 3>C 3>C 3>C 3>C 3>C 3>C 3>C 3>C 3>C 3>C 3>C 3>C 3>C 3>C 3>C 3>C 3>C 3>C 3>C 3>C 3>C 3>C 3>C 3>C 3>C 3>C 3>C 3>C 3>C 3>C 3>C 3>C 3>C 3>C 3>C 3>C 3>C 3>C 3>C 3>C 3>C 3>C 3>C 3>C 3>C 3>C 3>C 3>C 3>C 3>C 3>C 3>C 3>C 3>C 3>C 3>C 3>C 3>C 3>C 3>C 3>C 3>C 3>C 3>C 3>C 3>C 3>C 3>C 3>C 3>C 3>C 3>C 3>C 3>C 3>C 3>C 3>C 3>C 3>C 3>C 3>C 3>C 3>C 3>C 3>C 3>C 3>C 3>C 3>C 3>C 3>C 3>C 3>C 3>C 3>C 3>C 3>C 3>C 3>C 3>C 3>C >C C C C <3C <3C <3C <3C <3C <3C <3C <3C <3C <3C <3C <3C <3C <3C <3C <3C <3C <3C <3C <3C <3C <3C <3C <3C <3C <3C <3C <3C <3C <3C <3C <3C <3C <3C <3C <3C <3C <3C <3C <3C <3C <3C <3C <3C <3C <3C <3C <3C <3C <3C <3C <3C <3C <3C <3C <3C <3C <3C <3C <3C <3C <3C <3C <3C <3C <3C <3C <3C <3C <3C <3C <3C <3C <3C <3C <3C <3C <3C <3C <3C <3C <3C <3C <3C <3C <3C <3C <3C <3C <3C <3C <3C <3C <3C <3C <3C <3C <3C <3C <3C <3C <3C <3C <3C <3C <3C <3C <3C <3C <3C <3C <3C <3C <3C <3C <3C <3C <3C <3C <3C <3C <3C <3C <3C <3C <3C <3C <3C <3C <3C <3C <3C <3C <3C <3C <3C <3C <3C <3C <3C <3C <3C <3C <3C <3C <3C <3C <3C <3C <3C <3C <3C 3C 3C 3C 3C 3:C 3:C 3:C 3:C 3:C 3:C 3:C 3:C 3:C 3:C 3:C 3:C 3:C 3:C 3:C 3:C 3:C 3:C 3:C 3:C 3:C 3:C 3:C 3:C 3:C 3:C 3:C 3:C 3:C 3:C 3:C 3:C 3:C 3:C 3:C 3:C 3:C 3:C 3:C 3:C 3:C 3:C 3:C 3:C 3:C 3:C 3:C 3:C 3:C 3:C 3:C 3:C 3:C 3:C 3:C 3:C 3:C 3:C 3:C 3:C 3:C 3:C 3:C 3:C 3:C 3:C 3:C 3:C 3:C 3:C 3:C 3:C 3:C 3:C 3:C 3:C 3:C 3:C 3:C 3:C 3:C 3:C 3:C 3:C 3:C 3:C 3:C 3:C 3:C 3:C 3:C 3:C 3:C 3:C 3:C 3:C 3:C 3:C 3:C 3:C 3:C 3:C 3:C 3:C 3:C 3:C 3:C 3:C 3:C 3:C 3:C 3:C 3:C 3:C 3:C 3:C 3:C 3:C 3:C 3:C 3:C 3:C 3:C 3:C 3:C 3:C 3:C 3:C 3:C 3:C 3:C 3:C 3:C 3:C 3:C 3:C 3:C 3:C 3:C 3:C 3:C 3:C 3:C 3:C 3:C 3:C 3:C 3:C 3:C 3:C 3:C :C C C C <9C <9C <9C <9C <9C <9C <9C <9C <9C <9C <9C <9C <9C <9C <9C <9C <9C <9C <9C <9C <9C <9C <9C <9C <9C <9C <9C <9C <9C <9C <9C <9C <9C <9C <9C <9C <9C <9C <9C <9C <9C <9C <9C <9C <9C <9C <9C <9C <9C <9C <9C <9C <9C <9C <9C <9C <9C <9C <9C <9C <9C <9C <9C <9C <9C <9C <9C <9C <9C <9C <9C <9C <9C <9C <9C <9C <9C <9C <9C <9C <9C <9C <9C <9C <9C <9C <9C <9C <9C <9C <9C <9C <9C <9C <9C <9C <9C <9C <9C <9C <9C <9C <9C <9C <9C <9C <9C <9C <9C <9C <9C <9C <9C <9C <9C <9C <9C <9C <9C <9C <9C <9C <9C <9C <9C <9C <9C <9C <9C <9C <9C <9C <9C <9C <9C <9C <9C <9C <9C <9C <9C <9C <9C <9C <9C <9C <9C <9C <9C <9C <9C <9C 9C 9C 9C 9C 9:C 9:C 9:C 9:C 9:C 9:C 9:C 9:C 9:C 9:C 9:C 9:C 9:C 9:C 9:C 9:C 9:C 9:C 9:C 9:C 9:C 9:C 9:C 9:C 9:C 9:C 9:C 9:C 9:C 9:C 9:C 9:C 9:C 9:C 9:C 9:C 9:C 9:C 9:C 9:C 9:C 9:C 9:C 9:C 9:C 9:C 9:C 9:C 9:C 9:C 9:C 9:C 9:C 9:C 9:C 9:C 9:C 9:C 9:C 9:C 9:C 9:C 9:C 9:C 9:C 9:C 9:C 9:C 9:C 9:C 9:C 9:C 9:C 9:C 9:C 9:C 9:C 9:C 9:C 9:C 9:C 9:C 9:C 9:C 9:C 9:C 9:C 9:C 9:C 9:C 9:C 9:C 9:C 9:C 9:C 9:C 9:C 9:C 9:C 9:C 9:C 9:C 9:C 9:C 9:C 9:C 9:C 9:C 9:C 9:C 9:C 9:C 9:C 9:C 9:C 9:C 9:C 9:C 9:C 9:C 9:C 9:C 9:C 9:C 9:C 9:C 9:C 9:C 9:C 9:C 9:C 9:C 9:C 9:C 9:C 9:C 9:C 9:C 9:C 9:C 9:C 9:C 9:C 9:C 9:C 9:C 9:C 9:C 9:C 9:C 9:C :C C C C <-C <-C <-C <-C <-C <-C <-C <-C <-C <-C <-C <-C <-C <-C <-C <-C <-C <-C <-C <-C <-C <-C <-C <-C <-C <-C <-C <-C <-C <-C <-C <-C <-C <-C <-C <-C <-C <-C <-C <-C <-C <-C <-C <-C <-C <-C <-C <-C <-C <-C <-C <-C <-C <-C <-C <-C <-C <-C <-C <-C <-C <-C <-C <-C <-C <-C <-C <-C <-C <-C <-C <-C <-C <-C <-C <-C <-C <-C <-C <-C <-C <-C <-C <-C <-C <-C <-C <-C <-C <-C <-C <-C <-C <-C <-C <-C <-C <-C <-C <-C <-C <-C <-C <-C <-C <-C <-C <-C <-C <-C <-C <-C <-C <-C <-C <-C <-C <-C <-C <-C <-C <-C <-C <-C <-C <-C <-C <-C <-C <-C <-C <-C <-C <-C <-C <-C <-C <-C <-C <-C <-C <-C <-C <-C <-C <-C <-C <-C <-C <-C <-C <-C -C -C -C -C ->C ->C ->C ->C ->C ->C ->C ->C ->C ->C ->C ->C ->C ->C ->C ->C ->C ->C ->C ->C ->C ->C ->C ->C ->C ->C ->C ->C ->C ->C ->C ->C ->C ->C ->C ->C ->C ->C ->C ->C ->C ->C ->C ->C ->C ->C ->C ->C ->C ->C ->C ->C ->C ->C ->C ->C ->C ->C ->C ->C ->C ->C ->C ->C ->C ->C ->C ->C ->C ->C ->C ->C ->C ->C ->C ->C ->C ->C ->C ->C ->C ->C ->C ->C ->C ->C ->C ->C ->C ->C ->C ->C ->C ->C ->C ->C ->C ->C ->C ->C ->C ->C ->C ->C ->C ->C ->C ->C ->C ->C ->C ->C ->C ->C ->C ->C ->C ->C ->C ->C ->C ->C ->C ->C ->C ->C ->C ->C ->C ->C ->C ->C ->C ->C ->C ->C ->C ->C ->C ->C ->C ->C ->C ->C ->C ->C ->C ->C ->C ->C ->C >C C C C ?-C ?-C ?-C ?-C ?-C ?-C ?-C ?-C ?-C ?-C ?-C ?-C ?-C ?-C ?-C ?-C ?-C ?-C ?-C ?-C ?-C ?-C ?-C ?-C ?-C ?-C ?-C ?-C ?-C ?-C ?-C ?-C ?-C ?-C ?-C ?-C ?-C ?-C ?-C ?-C ?-C ?-C ?-C ?-C ?-C ?-C ?-C ?-C ?-C ?-C ?-C ?-C ?-C ?-C ?-C ?-C ?-C ?-C ?-C ?-C ?-C ?-C ?-C ?-C ?-C ?-C ?-C ?-C ?-C ?-C ?-C ?-C ?-C ?-C ?-C ?-C ?-C ?-C ?-C ?-C ?-C ?-C ?-C ?-C ?-C ?-C ?-C ?-C ?-C ?-C ?-C ?-C ?-C ?-C ?-C ?-C ?-C ?-C ?-C ?-C ?-C ?-C ?-C ?-C ?-C ?-C ?-C ?-C ?-C ?-C ?-C ?-C ?-C ?-C ?-C ?-C ?-C ?-C ?-C ?-C ?-C ?-C ?-C ?-C ?-C ?-C ?-C ?-C ?-C ?-C ?-C ?-C ?-C ?-C ?-C ?-C ?-C ?-C ?-C ?-C ?-C ?-C ?-C ?-C ?-C ?-C ?-C ?-C ?-C ?-C ?-C ?-C -C -C -C -C -<C -<C -<C -<C -<C -<C -<C -<C -<C -<C -<C -<C -<C -<C -<C -<C -<C -<C -<C -<C -<C -<C -<C -<C -<C -<C -<C -<C -<C -<C -<C -<C -<C -<C -<C -<C -<C -<C -<C -<C -<C -<C -<C -<C -<C -<C -<C -<C -<C -<C -<C -<C -<C -<C -<C -<C -<C -<C -<C -<C -<C -<C -<C -<C -<C -<C -<C -<C -<C -<C -<C -<C -<C -<C -<C -<C -<C -<C -<C -<C -<C -<C -<C -<C -<C -<C -<C -<C -<C -<C -<C -<C -<C -<C -<C -<C -<C -<C -<C -<C -<C -<C -<C -<C -<C -<C -<C -<C -<C -<C -<C -<C -<C -<C -<C -<C -<C -<C -<C -<C -<C -<C -<C -<C -<C -<C -<C -<C -<C -<C -<C -<C -<C -<C -<C -<C -<C -<C -<C -<C -<C -<C -<C -<C -<C -<C -<C -<C -<C -<C -<C <C     9&B 9&B 9&B 9&B 9&B 9&B 9&B 9&B 9&B 9&B 9&B 9&B 9&B 9&B 9&B 9&B 9&B 9&B 9&B 9&B 9&B 9&B 9&B 9&B 9&B 9&B 9&B 9&B 9&B 9&B 9&B 9&B 9&B 9&B 9&B 9&B 9&B 9&B 9&B 9&B 9&B 9&B 9&B 9&B 9&B 9&B 9&B 9&B 9&B 9&B 9&B 9&B 9&B 9&B 9&B 9&B 9&B 9&B 9&B 9&B 9&B 9&B 9&B 9&B 9&B 9&B 9&B 9&B 9&B 9&B 9&B 9&B 9&B 9&B 9&B 9&B 9&B 9&B 9&B 9&B 9&B 9&B 9&B 9&B 9&B 9&B 9&B 9&B 9&B 9&B 9&B 9&B 9&B 9&B 9&B 9&B 9&B 9&B 9&B 9&B 9&B 9&B 9&B 9&B 9&B 9&B 9&B 9&B 9&B 9&B 9&B 9&B 9&B 9&B 9&B 9&B 9&B 9&B 9&B 9&B 9&B 9&B 9&B 9&B 9&B 9&B 9&B 9&B 9&B 9&B 9&B 9&B 9&B 9&B 9&B 9&B 9&B 9&B 9&B 9&B 9&B 9&B 9&B 9&B 9&B 9&B 9&B 9&B 9&B 9&B 9&B 9&B &B &B &B ?&B ?&B ?&B ?&B ?&B ?&B ?&B ?&B ?&B ?&B ?&B ?&B ?&B ?&B ?&B ?&B ?&B ?&B ?&B ?&B ?&B ?&B ?&B ?&B ?&B ?&B ?&B ?&B ?&B ?&B ?&B ?&B ?&B ?&B ?&B ?&B ?&B ?&B ?&B ?&B ?&B ?&B ?&B ?&B ?&B ?&B ?&B ?&B ?&B ?&B ?&B ?&B ?&B ?&B ?&B ?&B ?&B ?&B ?&B ?&B ?&B ?&B ?&B ?&B ?&B ?&B ?&B ?&B ?&B ?&B ?&B ?&B ?&B ?&B ?&B ?&B ?&B ?&B ?&B ?&B ?&B ?&B ?&B ?&B ?&B ?&B ?&B ?&B ?&B ?&B ?&B ?&B ?&B ?&B ?&B ?&B ?&B ?&B ?&B ?&B ?&B ?&B ?&B ?&B ?&B ?&B ?&B ?&B ?&B ?&B ?&B ?&B ?&B ?&B ?&B ?&B ?&B ?&B ?&B ?&B ?&B ?&B ?&B ?&B ?&B ?&B ?&B ?&B ?&B ?&B ?&B ?&B ?&B ?&B ?&B ?&B ?&B ?&B ?&B ?&B ?&B ?&B ?&B ?&B ?&B ?&B ?&B ?&B ?&B ?&B ?&B ?&B &B &B &B &B >&B >&B >&B >&B >&B >&B >&B >&B >&B >&B >&B >&B >&B >&B >&B >&B >&B >&B >&B >&B >&B >&B >&B >&B >&B >&B >&B >&B >&B >&B >&B >&B >&B >&B >&B >&B >&B >&B >&B >&B >&B >&B >&B >&B >&B >&B >&B >&B >&B >&B >&B >&B >&B >&B >&B >&B >&B >&B >&B >&B >&B >&B >&B >&B >&B >&B >&B >&B >&B >&B >&B >&B >&B >&B >&B >&B >&B >&B >&B >&B >&B >&B >&B >&B >&B >&B >&B >&B >&B >&B >&B >&B >&B >&B >&B >&B >&B >&B >&B >&B >&B >&B >&B >&B >&B >&B >&B >&B >&B >&B >&B >&B >&B >&B >&B >&B >&B >&B >&B >&B >&B >&B >&B >&B >&B >&B >&B >&B >&B >&B >&B >&B >&B >&B >&B >&B >&B >&B >&B >&B >&B >&B >&B >&B >&B >&B >&B >&B >&B >&B >&B >&B &B &B &B <&B <&B <&B <&B <&B <&B <&B <&B <&B <&B <&B <&B <&B <&B <&B <&B <&B <&B <&B <&B <&B <&B <&B <&B <&B <&B <&B <&B <&B <&B <&B <&B <&B <&B <&B <&B <&B <&B <&B <&B <&B <&B <&B <&B <&B <&B <&B <&B <&B <&B <&B <&B <&B <&B <&B <&B <&B <&B <&B <&B <&B <&B <&B <&B <&B <&B <&B <&B <&B <&B <&B <&B <&B <&B <&B <&B <&B <&B <&B <&B <&B <&B <&B <&B <&B <&B <&B <&B <&B <&B <&B <&B <&B <&B <&B <&B <&B <&B <&B <&B <&B <&B <&B <&B <&B <&B <&B <&B <&B <&B <&B <&B <&B <&B <&B <&B <&B <&B <&B <&B <&B <&B <&B <&B <&B <&B <&B <&B <&B <&B <&B <&B <&B <&B <&B <&B <&B <&B <&B <&B <&B <&B <&B <&B <&B <&B <&B <&B <&B <&B <&B <&B &B &B &B &B :&B :&B :&B :&B :&B :&B :&B :&B :&B :&B :&B :&B :&B :&B :&B :&B :&B :&B :&B :&B :&B :&B :&B :&B :&B :&B :&B :&B :&B :&B :&B :&B :&B :&B :&B :&B :&B :&B :&B :&B :&B :&B :&B :&B :&B :&B :&B :&B :&B :&B :&B :&B :&B :&B :&B :&B :&B :&B :&B :&B :&B :&B :&B :&B :&B :&B :&B :&B :&B :&B :&B :&B :&B :&B :&B :&B :&B :&B :&B :&B :&B :&B :&B :&B :&B :&B :&B :&B :&B :&B :&B :&B :&B :&B :&B :&B :&B :&B :&B :&B :&B :&B :&B :&B :&B :&B :&B :&B :&B :&B :&B :&B :&B :&B :&B :&B :&B :&B :&B :&B :&B :&B :&B :&B :&B :&B :&B :&B :&B :&B :&B :&B :&B :&B :&B :&B :&B :&B :&B :&B :&B :&B :&B :&B :&B :&B :&B :&B :&B :&B :&B :&B &B &B &B 9B 9B 9B 9B 9B 9B 9B 9B 9B 9B 9B 9B 9B 9B 9B 9B 9B 9B 9B 9B 9B 9B 9B 9B 9B 9B 9B 9B 9B 9B 9B 9B 9B 9B 9B 9B 9B 9B 9B 9B 9B 9B 9B 9B 9B 9B 9B 9B 9B 9B 9B 9B 9B 9B 9B 9B 9B 9B 9B 9B 9B 9B 9B 9B 9B 9B 9B 9B 9B 9B 9B 9B 9B 9B 9B 9B 9B 9B 9B 9B 9B 9B 9B 9B 9B 9B 9B 9B 9B 9B 9B 9B 9B 9B 9B 9B 9B 9B 9B 9B 9B 9B 9B 9B 9B 9B 9B 9B 9B 9B 9B 9B 9B 9B 9B 9B 9B 9B 9B 9B 9B 9B 9B 9B 9B 9B 9B 9B 9B 9B 9B 9B 9B 9B 9B 9B 9B 9B 9B 9B 9B 9B 9B 9B 9B 9B 9B 9B 9B 9B 9B 9B B B   :E :E :E :E :E :E :E :E :E :E :E :E :E :E :E :E :E :E :E :E :E :E :E :E :E :E :E :E :E :E :E :E :E :E :E :E :E :E :E :E :E :E :E :E :E :E :E :E :E :E :E :E :E :E :E :E :E :E :E :E :E :E :E :E :E :E :E :E :E :E :E :E :E :E :E :E :E :E :E :E :E :E :E :E :E :E :E :E :E :E :E :E :E :E :E :E :E :E :E :E :E :E :E :E :E :E :E :E :E :E :E :E :E :E :E :E :E :E :E :E :E :E :E :E :E :E :E :E :E :E :E :E :E :E :E :E :E :E :E :E :E :E :E :E :E :E :E :EC :EC :EC :EC :EC EC EC EC EC> EC> EC> EC> EC> C> C> C> C> C> C> C> C> C> C> C> C> C> C> C> C> C> C> C> C> C> C> C> C> C> C> C> C> C> C> C> C> C> C> C> C> C> C> C> C> C> C> C> C> C> C> C> C> C> C> C> C> C> C> C> C> C> C> C> C> C> C> C> C> C> C> C> C> C> C> C> C> C> C> C> C> C> C> C> C> C> > > > > >E >E >E >E >E >E >E >E >E >E >E >E >E >E >E >E >E >E >E >E >E >E >E >E >E >E >E >E >E >E >E >E >E >E >E >E >E >E >E >E >E >E >E >E >E >E >E >E >E >E >E >E >E >E >E >E >E >E >E >E >E >E E E E E E< E< EC< EC< EC< EC< EC< EC< C< C< C< C< C< C< C< C< C< C< C< C< C< C< C< C< C< C< C< C< C< C< C< C< C< C< C< C< C< C< C< C< C< C< C< C< C< C< C< C< C< C< C< C< C< C< C< C< C< C< C< C< C< C< C< C< C< C< C< C< C< C< CE< CE< CE< CE< CE< CE< E< E< E< E< E< E< E< E< E< E< E< E< E< E< E< E< E< E< E< E< E< E< E< E< E< E< E< E< E< E< E< E< E< E< E< E< E< E< E< E< E< E< E< E< E< E< E< E< E< E< E< E< E< E< E< E< E< E< E< E< E< E< E< E< E< E< E< E< < < < <C <C <C <C <C C C C C: C: C: C: C: C: C: C: C: C: C: C: C: C: C: C: C: C: C: C: C: C: C: C: C: C: C: C: C: C: C: C: C: C: C: C: C: C: C: C: C: C: C: C: C: C: C: C: C: C: C: C: C: C: C: C: C: C: C: C: CE: CE: CE: CE: CE: CE: E: E: E: E: E: E: E: E: E: E: E: E: E: E: E: E: E: E: E: E: E: E: E: E: E: E: E: E: E: E: E: E: E: E: E: E: E: E: E: E: E: E: E: E: E: E: E: E: E: E: E: E: E: E: E: E: E: E: E: E: E: E: E:C E:C E:C E:C E:C E:C :C :C :C :C :C :C :C :C :C :C :C :C :C :C :C :C :C :C C C C C C9 C9 C9 C9 C9 C9 C9 C9 C9 C9 C9 C9 C9 C9 C9 C9 C9 C9 C9 C9 C9 C9 C9 C9 C9 C9 C9 C9 C9 C9 C9 C9 C9 C9 C9 C9 C9 C9 C9 C9 CE9 CE9 CE9 CE9 CE9 CE9 E9 E9 E9 E9 E9 E9 E9 E9 E9 E9 E9 E9 E9 E9 E9 E9 E9 E9 E9 E9 E9 E9 E9 E9 E9 E9 E9 E9 E9 E9 E9 E9 E9 E9 E9 E9 E9 E9 E9 E9 E9 E9 E9 E9 E9 E9 E9 E9 E9 E9 E9 E9 E9 E9 E9 E9 E9 E9 E9 E9 E9 E9C E9C E9C E9C E9C E9C E9C 9C 9C 9C 9C 9C 9C 9C 9C 9C 9C 9C 9C 9C 9C 9C 9C 9C 9C 9C 9C 9C 9C 9C 9C 9C 9C 9C 9C 9C 9C 9C 9C 9C 9C 9C 9C 9C 9C C C C C7 C7 C7 C7 C7 C7 C7 C7 C7 C7 C7 C7 C7 C7 C7 C7 C7 C7 C7 C7 CB7 CB7 CB7 CB7 CB7 CB7 B7 B7 B7 B7 B7 B7 B7 B7 B7 B7 B7 B7 B7 B7 B7 B7 B7 B7 B7 B7 B7 B7 B7 B7 B7 B7 B7 B7 B7 B7 B7 B7 B7 B7 B7 B7 B7 B7 B7 B7 B7 B7 B7 B7 B7 B7 B7 B7 B7 B7 B7 B7 B7 B7 B7 B7 B7 B7 B7 B7 B7 B7 B7C B7C B7C B7C B7C B7C 7C 7C 7C 7C 7C 7C 7C 7C 7C 7C 7C 7C 7C 7C 7C 7C 7C 7C 7C 7C 7C 7C 7C 7C 7C 7C 7C 7C 7C 7C 7C 7C 7C 7C 7C 7C 7C 7C 7C 7C 7C 7C 7C 7C 7C 7C 7C 7C 7C 7C 7C 7C 7C 7C 7C 7C 7C 7C C C C C C6E C6E C6E C6E C6E C6E 6E 6E 6E 6E 6E 6E 6E 6E 6E 6E 6E 6E 6E 6E 6E 6E 6E 6E 6E 6E 6E 6E 6E 6E 6E 6E 6E 6E 6E 6E 6E 6E 6E 6E 6E 6E 6E 6E 6E 6E 6E 6E 6E 6E 6E 6E 6E 6E 6E 6E 6E 6E 6E 6E 6E 6E 6E 6E 6E 6E 6E 6E 6E 6E 6E 6E 6E 6E 6E 6E 6E 6E 6E 6E 6E 6E 6E 6E 6E 6E 6E 6E 6E 6E 6E 6E 6E 6E 6E 6E 6E 6E 6E 6E 6E 6E 6E 6E 6E 6E 6E 6E 6E 6E 6E 6E 6E 6E 6E 6E 6E 6E 6E 6E 6E 6E 6E 6E 6E 6E 6E 6E 6E 6E 6E 6E 6E 6E 6E 6E 6E 6E 6E 6E 6E 6E 6E 6E 6E 6E 6E 6E 6E 6E 6E 6E E E E 7E 7E 7E 7E 7E 7E 7E 7E 7E 7E 7E 7E 7E 7E 7E 7E 7E 7E 7E 7E 7E 7E 7E 7E 7E 7E 7E 7E 7E 7E 7E 7E 7E 7E 7E 7E 7E 7E 7E 7E 7E 7E 7E 7E 7E 7E 7E 7E 7E 7E 7E 7E 7E 7E 7E 7E 7E 7E 7E 7E 7E 7E 7E 7E 7E 7E 7E 7E 7E 7E 7E 7E 7E 7E 7E 7E 7E 7E 7E 7E 7E 7E 7E 7E 7E 7E 7E 7E 7E 7E 7E 7E 7E 7E 7E 7E 7E 7E 7E 7E 7E 7E 7E 7E 7E 7E 7E 7E 7E 7E 7E 7E 7E 7E 7E 7E 7E 7E 7E 7E 7E 7E 7E 7E 7E 7E 7E 7E 7E 7E 7E 7E 7E 7E 7E 7E 7E 7E 7E 7E 7E 7E 7E 7E 7E 7E 7E 7E 7E 7E 7E 7E     6BEJ 6BEJ 6BEJ 6BEJ 6BEJ 6BEJ 6BEJ 6BEJ 6BEJ 6BEJ 6BEJ 6BEJ 6BEJ 6BEJ 6BEJ 6BEJ 6BEJ 6BEJ 6BEJ 6BEJ 6BEJ 6BEJ 6BEJ 6BEJ 6BEJ 6BEJ 6BEJ 6BEJ 6BEJ 6BEJ 6BEJ 6BEJ 6BEJ 6BEJ 6BEJ 6BEJ 6BEJ 6BEJ 6BEJ 6BEJ 6BEJ 6BEJ 6BEJ 6BEJ 6BEJ 6BEJ 6BEJ 6BEJ 6BEJ 6BEJ 6BEJ 6BEJ 6BEJ 6BEJ 6BEJ 6BEJ 6BEJ 6BEJ 6BEJ 6BEJ 6BEJ 6BEJ 6BEJ 6BEJ 6BEJ 6BEJ 6BEJ 6BEJ 6BEJ 6BEJ 6BEJ 6BEJ 6BEJ 6BEJ 6BEJ 6BEJ 6BEJ 6BEJ 6BEJ 6BEJ 6BEJ 6BEJ 6BEJ 6BEJ 6BEJ 6BEJ 6BEJ 6BEJ 6BEJ 6BEJ 6BEJ 6BEJ 6BEJ 6BEJ 6BEJ 6BEJ 6BEJ 6BEJ 6BEJ 6BEJ 6BEJ 6BEJ 6BEJ 6BEJ 6BEJ 6BEJ 6BEJ 6BEJ 6BEJ 6BEJ 6BEJ 6BEJ 6BEJ 6BEJ 6BEJ 6BEJ 6BEJ 6BEJ 6BEJ 6BEJ 6BEJ 6BEJ 6BEJ 6BEJ 6BEJ 6BEJ 6BEJ 6BEJ 6BEJ 6BEJ 6BEJ 6BEJ 6BEJ 6BEJ 6BEJ 6BEJ 6BEJ 6BEJ 6BEJ 6BEJ 6BEJ 6BEJ 6BEJ 6BEJ 6BEJ 6BEJ 6BEJ 6BEJ 6BEJ 6BEJ 6BEJ 6BEJ BEJ BEJ BEJ 4BEJ 4BEJ 4BEJ 4BEJ 4BEJ 4BEJ 4BEJ 4BEJ 4BEJ 4BEJ 4BEJ 4BEJ 4BEJ 4BEJ 4BEJ 4BEJ 4BEJ 4BEJ 4BEJ 4BEJ 4BEJ 4BEJ 4BEJ 4BEJ 4BEJ 4BEJ 4BEJ 4BEJ 4BEJ 4BEJ 4BEJ 4BEJ 4BEJ 4BEJ 4BEJ 4BEJ 4BEJ 4BEJ 4BEJ 4BEJ 4BEJ 4BEJ 4BEJ 4BEJ 4BEJ 4BEJ 4BEJ 4BEJ 4BEJ 4BEJ 4BEJ 4BEJ 4BEJ 4BEJ 4BEJ 4BEJ 4BEJ 4BEJ 4BEJ 4BEJ 4BEJ 4BEJ 4BEJ 4BEJ 4BEJ 4BEJ 4BEJ 4BEJ 4BEJ 4BEJ 4BEJ 4BEJ 4BEJ 4BEJ 4BEJ 4BEJ 4BEJ 4BEJ 4BEJ 4BEJ 4BEJ 4BEJ 4BEJ 4BEJ 4BEJ 4BEJ 4BEJ 4BEJ 4BEJ 4BEJ 4BEJ 4BEJ 4BEJ 4BEJ 4BEJ 4BEJ 4BEJ 4BEJ 4BEJ 4BEJ 4BEJ 4BEJ 4BEJ 4BEJ 4BEJ 4BEJ 4BEJ 4BEJ 4BEJ 4BEJ 4BEJ 4BEJ 4BEJ 4BEJ 4BEJ 4BEJ 4BEJ 4BEJ 4BEJ 4BEJ 4BEJ 4BEJ 4BEJ 4BEJ 4BEJ 4BEJ 4BEJ 4BEJ 4BEJ 4BEJ 4BEJ 4BEJ 4BEJ 4BEJ 4BEJ 4BEJ 4BEJ 4BEJ 4BEJ 4BEJ 4BEJ 4BEJ 4BEJ 4BEJ 4BEJ 4BEJ 4BEJ 4BEJ 4BEJ 4BEJ 4BEJ 4BEJ     2JBE 2JBE 2JBE 2JBE 2JBE 2JBE 2JBE 2JBE 2JBE 2JBE 2JBE 2JBE 2JBE 2JBE 2JBE 2JBE 2JBE 2JBE 2JBE 2JBE 2JBE 2JBE 2JBE 2JBE 2JBE 2JBE 2JBE 2JBE 2JBE 2JBE 2JBE 2JBE 2JBE 2JBE 2JBE 2JBE 2JBE 2JBE 2JBE 2JBE 2JBE 2JBE 2JBE 2JBE 2JBE 2JBE 2JBE 2JBE 2JBE 2JBE 2JBE 2JBE 2JBE 2JBE 2JBE 2JBE 2JBE 2JBE 2JBE 2JBE 2JBE 2JBE 2JBE 2JBE 2JBE 2JBE 2JBE 2JBE 2JBE 2JBE 2JBE 2JBE 2JBE 2JBE 2JBE 2JBE 2JBE 2JBE 2JBE 2JBE 2JBE 2JBE 2JBE 2JBE 2JBE 2JBE 2JBE 2JBE 2JBE 2JBE 2JBE 2JBE 2JBE 2JBE 2JBE 2JBE 2JBE 2JBE 2JBE 2JBE 2JBE 2JBE 2JBE 2JBE 2JBE 2JBE 2JBE 2JBE 2JBE 2JBE 2JBE 2JBE 2JBE 2JBE 2JBE 2JBE 2JBE 2JBE 2JBE 2JBE 2JBE 2JBE 2JBE 2JBE 2JBE 2JBE 2JBE 2JBE 2JBE 2JBE 2JBE 2JBE 2JBE 2JBE 2JBE 2JBE 2JBE 2JBE 2JBE 2JBE 2JBE 2JBE 2JBE 2JBE 2JBE 2JBE 2JBE 2JBE 2JBE 2JBE 2JBE 2JBE JBE JBE JBE 0JBE 0JBE 0JBE 0JBE 0JBE 0JBE 0JBE 0JBE 0JBE 0JBE 0JBE 0JBE 0JBE 0JBE 0JBE 0JBE 0JBE 0JBE 0JBE 0JBE 0JBE 0JBE 0JBE 0JBE 0JBE 0JBE 0JBE 0JBE 0JBE 0JBE 0JBE 0JBE 0JBE 0JBE 0JBE 0JBE 0JBE 0JBE 0JBE 0JBE 0JBE 0JBE 0JBE 0JBE 0JBE 0JBE 0JBE 0JBE 0JBE 0JBE 0JBE 0JBE 0JBE 0JBE 0JBE 0JBE 0JBE 0JBE 0JBE 0JBE 0JBE 0JBE 0JBE 0JBE 0JBE 0JBE 0JBE 0JBE 0JBE 0JBE 0JBE 0JBE 0JBE 0JBE 0JBE 0JBE 0JBE 0JBE 0JBE 0JBE 0JBE 0JBE 0JBE 0JBE 0JBE 0JBE 0JBE 0JBE 0JBE 0JBE 0JBE 0JBE 0JBE 0JBE 0JBE 0JBE 0JBE 0JBE 0JBE 0JBE 0JBE 0JBE 0JBE 0JBE 0JBE 0JBE 0JBE 0JBE 0JBE 0JBE 0JBE 0JBE 0JBE 0JBE 0JBE 0JBE 0JBE 0JBE 0JBE 0JBE 0JBE 0JBE 0JBE 0JBE 0JBE 0JBE 0JBE 0JBE 0JBE 0JBE 0JBE 0JBE 0JBE 0JBE 0JBE 0JBE 0JBE 0JBE 0JBE 0JBE 0JBE 0JBE 0JBE 0JBE 0JBE 0JBE 0JBE 0JBE 0JBE 0JBE 0JBE 0JBE     /CGJM /CGJM /CGJM /CGJM /CGJM /CGJM /CGJM /CGJM /CGJM /CGJM /CGJM /CGJM /CGJM /CGJM /CGJM /CGJM /CGJM /CGJM /CGJM /CGJM /CGJM /CGJM /CGJM /CGJM /CGJM /CGJM /CGJM /CGJM /CGJM /CGJM /CGJM /CGJM /CGJM /CGJM /CGJM /CGJM /CGJM /CGJM /CGJM /CGJM /CGJM /CGJM /CGJM /CGJM /CGJM /CGJM /CGJM /CGJM /CGJM /CGJM /CGJM /CGJM /CGJM /CGJM /CGJM /CGJM /CGJM /CGJM /CGJM /CGJM /CGJM /CGJM /CGJM /CGJM /CGJM /CGJM /CGJM /CGJM /CGJM /CGJM /CGJM /CGJM /CGJM /CGJM /CGJM /CGJM /CGJM /CGJM /CGJM /CGJM /CGJM /CGJM /CGJM /CGJM /CGJM /CGJM /CGJM /CGJM /CGJM /CGJM /CGJM /CGJM /CGJM /CGJM /CGJM /CGJM /CGJM /CGJM /CGJM /CGJM /CGJM /CGJM /CGJM /CGJM /CGJM /CGJM /CGJM /CGJM /CGJM /CGJM /CGJM /CGJM /CGJM /CGJM /CGJM /CGJM /CGJM /CGJM /CGJM /CGJM /CGJM /CGJM /CGJM /CGJM /CGJM /CGJM /CGJM /CGJM /CGJM /CGJM /CGJM /CGJM /CGJM /CGJM /CGJM /CGJM /CGJM /CGJM /CGJM /CGJM /CGJM /CGJM /CGJM /CGJM /CGJM /CGJM /CGJM /CGJM /CGJM /CGJM /CGJM /CGJM CGJM CGJM CGJM -CGJM -CGJM -CGJM -CGJM -CGJM -CGJM -CGJM -CGJM -CGJM -CGJM -CGJM -CGJM -CGJM -CGJM -CGJM -CGJM -CGJM -CGJM -CGJM -CGJM -CGJM -CGJM -CGJM -CGJM -CGJM -CGJM -CGJM -CGJM -CGJM -CGJM -CGJM -CGJM -CGJM -CGJM -CGJM -CGJM -CGJM -CGJM -CGJM -CGJM -CGJM -CGJM -CGJM -CGJM -CGJM -CGJM -CGJM -CGJM -CGJM -CGJM -CGJM -CGJM -CGJM -CGJM -CGJM -CGJM -CGJM -CGJM -CGJM -CGJM -CGJM -CGJM -CGJM -CGJM -CGJM -CGJM -CGJM -CGJM -CGJM -CGJM -CGJM -CGJM -CGJM -CGJM -CGJM -CGJM -CGJM -CGJM -CGJM -CGJM -CGJM -CGJM -CGJM -CGJM -CGJM -CGJM -CGJM -CGJM -CGJM -CGJM -CGJM -CGJM -CGJM -CGJM -CGJM -CGJM -CGJM -CGJM -CGJM -CGJM -CGJM -CGJM -CGJM -CGJM -CGJM -CGJM -CGJM -CGJM -CGJM -CGJM -CGJM -CGJM -CGJM -CGJM -CGJM -CGJM -CGJM -CGJM -CGJM -CGJM -CGJM -CGJM -CGJM -CGJM -CGJM -CGJM -CGJM -CGJM -CGJM -CGJM -CGJM -CGJM -CGJM -CGJM -CGJM -CGJM -CGJM -CGJM -CGJM -CGJM -CGJM -CGJM -CGJM -CGJM -CGJM -CGJM -CGJM -CGJM -CGJM -CGJM -CGJM -CGJM     +CGJM +CGJM +CGJM +CGJM +CGJM +CGJM +CGJM +CGJM +CGJM +CGJM +CGJM +CGJM +CGJM +CGJM +CGJM +CGJM +CGJM +CGJM +CGJM +CGJM +CGJM +CGJM +CGJM +CGJM +CGJM +CGJM +CGJM +CGJM +CGJM +CGJM +CGJM +CGJM +CGJM +CGJM +CGJM +CGJM +CGJM +CGJM +CGJM +CGJM +CGJM +CGJM +CGJM +CGJM +CGJM +CGJM +CGJM +CGJM +CGJM +CGJM +CGJM +CGJM +CGJM +CGJM +CGJM +CGJM +CGJM +CGJM +CGJM +CGJM +CGJM +CGJM +CGJM +CGJM +CGJM +CGJM +CGJM +CGJM +CGJM +CGJM +CGJM +CGJM +CGJM +CGJM +CGJM +CGJM +CGJM +CGJM +CGJM +CGJM +CGJM +CGJM +CGJM +CGJM +CGJM +CGJM +CGJM +CGJM +CGJM +CGJM +CGJM +CGJM +CGJM +CGJM +CGJM +CGJM +CGJM +CGJM +CGJM +CGJM +CGJM +CGJM +CGJM +CGJM +CGJM +CGJM +CGJM +CGJM +CGJM +CGJM +CGJM +CGJM +CGJM +CGJM +CGJM +CGJM +CGJM +CGJM +CGJM +CGJM +CGJM +CGJM +CGJM +CGJM +CGJM +CGJM +CGJM +CGJM +CGJM +CGJM +CGJM +CGJM +CGJM +CGJM +CGJM +CGJM +CGJM +CGJM +CGJM +CGJM +CGJM +CGJM +CGJM +CGJM +CGJM +CGJM +CGJM +CGJM +CGJM +CGJM +CGJM +CGJM CGJM CGJM CGJM )CGJM )CGJM )CGJM )CGJM )CGJM )CGJM )CGJM )CGJM )CGJM )CGJM )CGJM )CGJM )CGJM )CGJM )CGJM )CGJM )CGJM )CGJM )CGJM )CGJM )CGJM )CGJM )CGJM )CGJM )CGJM )CGJM )CGJM )CGJM )CGJM )CGJM )CGJM )CGJM )CGJM )CGJM )CGJM )CGJM )CGJM )CGJM )CGJM )CGJM )CGJM )CGJM )CGJM )CGJM )CGJM )CGJM )CGJM )CGJM )CGJM )CGJM )CGJM )CGJM )CGJM )CGJM )CGJM )CGJM )CGJM )CGJM )CGJM )CGJM )CGJM )CGJM )CGJM )CGJM )CGJM )CGJM )CGJM )CGJM )CGJM )CGJM )CGJM )CGJM )CGJM )CGJM )CGJM )CGJM )CGJM )CGJM )CGJM )CGJM )CGJM )CGJM )CGJM )CGJM )CGJM )CGJM )CGJM )CGJM )CGJM )CGJM )CGJM )CGJM )CGJM )CGJM )CGJM )CGJM )CGJM )CGJM )CGJM )CGJM )CGJM )CGJM )CGJM )CGJM )CGJM )CGJM )CGJM )CGJM )CGJM )CGJM )CGJM )CGJM )CGJM )CGJM )CGJM )CGJM )CGJM )CGJM )CGJM )CGJM )CGJM )CGJM )CGJM )CGJM )CGJM )CGJM )CGJM )CGJM )CGJM )CGJM )CGJM )CGJM )CGJM )CGJM )CGJM )CGJM )CGJM )CGJM )CGJM )CGJM )CGJM )CGJM )CGJM )CGJM )CGJM )CGJM )CGJM )CGJM )CGJM )CGJM )CGJM )CGJM     (MGJC (MGJC (MGJC (MGJC (MGJC (MGJC (MGJC (MGJC (MGJC (MGJC (MGJC (MGJC (MGJC (MGJC (MGJC (MGJC (MGJC (MGJC (MGJC (MGJC (MGJC (MGJC (MGJC (MGJC (MGJC (MGJC (MGJC (MGJC (MGJC (MGJC (MGJC (MGJC (MGJC (MGJC (MGJC (MGJC (MGJC (MGJC (MGJC (MGJC (MGJC (MGJC (MGJC (MGJC (MGJC (MGJC (MGJC (MGJC (MGJC (MGJC (MGJC (MGJC (MGJC (MGJC (MGJC (MGJC (MGJC (MGJC (MGJC (MGJC (MGJC (MGJC (MGJC (MGJC (MGJC (MGJC (MGJC (MGJC (MGJC (MGJC (MGJC (MGJC (MGJC (MGJC (MGJC (MGJC (MGJC (MGJC (MGJC (MGJC (MGJC (MGJC (MGJC (MGJC (MGJC (MGJC (MGJC (MGJC (MGJC (MGJC (MGJC (MGJC (MGJC (MGJC (MGJC (MGJC (MGJC (MGJC (MGJC (MGJC (MGJC (MGJC (MGJC (MGJC (MGJC (MGJC (MGJC (MGJC (MGJC (MGJC (MGJC (MGJC (MGJC (MGJC (MGJC (MGJC (MGJC (MGJC (MGJC (MGJC (MGJC (MGJC (MGJC (MGJC (MGJC (MGJC (MGJC (MGJC (MGJC (MGJC (MGJC (MGJC (MGJC (MGJC (MGJC (MGJC (MGJC (MGJC (MGJC (MGJC (MGJC (MGJC (MGJC (MGJC (MGJC (MGJC (MGJC (MGJC (MGJC (MGJC (MGJC (MGJC MGJC MGJC MGJC &MGJC &MGJC &MGJC &MGJC &MGJC &MGJC &MGJC &MGJC &MGJC &MGJC &MGJC &MGJC &MGJC &MGJC &MGJC &MGJC &MGJC &MGJC &MGJC &MGJC &MGJC &MGJC &MGJC &MGJC &MGJC &MGJC &MGJC &MGJC &MGJC &MGJC &MGJC &MGJC &MGJC &MGJC &MGJC &MGJC &MGJC &MGJC &MGJC &MGJC &MGJC &MGJC &MGJC &MGJC &MGJC &MGJC &MGJC &MGJC &MGJC &MGJC &MGJC &MGJC &MGJC &MGJC &MGJC &MGJC &MGJC &MGJC &MGJC &MGJC &MGJC &MGJC &MGJC &MGJC &MGJC &MGJC &MGJC &MGJC &MGJC &MGJC &MGJC &MGJC &MGJC &MGJC &MGJC &MGJC &MGJC &MGJC &MGJC &MGJC &MGJC &MGJC &MGJC &MGJC &MGJC &MGJC &MGJC &MGJC &MGJC &MGJC &MGJC &MGJC &MGJC &MGJC &MGJC &MGJC &MGJC &MGJC &MGJC &MGJC &MGJC &MGJC &MGJC &MGJC &MGJC &MGJC &MGJC &MGJC &MGJC &MGJC &MGJC &MGJC &MGJC &MGJC &MGJC &MGJC &MGJC &MGJC &MGJC &MGJC &MGJC &MGJC &MGJC &MGJC &MGJC &MGJC &MGJC &MGJC &MGJC &MGJC &MGJC &MGJC &MGJC &MGJC &MGJC &MGJC &MGJC &MGJC &MGJC &MGJC &MGJC &MGJC &MGJC &MGJC &MGJC &MGJC &MGJC &MGJC &MGJC &MGJC &MGJC &MGJC     JMCG$ JMCG$ JMCG$ JMCG$ JMCG$ JMCG$ JMCG$ JMCG$ JMCG$ JMCG$ JMCG$ JMCG$ JMCG$ JMCG$ JMCG$ JMCG$ JMCG$ JMCG$ JMCG$ JMCG$ JMCG$ JMCG$ JMCG$ JMCG$ JMCG$ JMCG$ JMCG$ JMCG$ JMCG$ JMCG$ JMCG$ JMCG$ JMCG$ JMCG$ JMCG$ JMCG$ JMCG$ JMCG$ JMCG$ JMCG$ JMCG$ JMCG$ JMCG$ JMCG$ JMCG$ JMCG$ JMCG$ JMCG$ JMCG$ JMCG$ JMCG$ JMCG$ JMCG$ JMCG$ JMCG$ JMCG$ JMCG$ JMCG$ JMCG$ JMCG$ JMCG$ JMCG$ JMCG$ JMCG$ JMCG$ JMCG$ JMCG$ JMCG$ JMCG$ JMCG$ JMCG$ JMCG$ JMCG$ JMCG$ JMCG$ JMCG$ JMCG$ JMCG$ JMCG$ JMCG$ JMCG$ JMCG$ JMCG$ JMCG$ JMCG$ JMCG$ JMCG$ JMCG$ JMCG$ JMCG$ JMCG$ JMCG$ JMCG$ JMCG$ JMCG$ JMCG$ JMCG$ JMCG$ JMCG$ JMCG$ JMCG$ JMCG$ JMCG$ JMCG$ JMCG$ JMCG$ JMCG$ JMCG$ JMCG$ JMCG$ JMCG$ JMCG$ JMCG$ JMCG$ JMCG$ JMCG$ JMCG$ JMCG$ JMCG$ JMCG$ JMCG$ JMCG$ JMCG$ JMCG$ JMCG$ JMCG$ JMCG$ JMCG$ JMCG$ JMCG$ JMCG$ JMCG$ JMCG$ JMCG$ JMCG$ JMCG$ JMCG$ JMCG$ JMCG$ JMCG$ JMCG$ JMCG$ JMCG$ JMCG$ JMCG$ JMCG$ JMCG$ JMCG$ JMCG$ JMCG$ JMCG$ JMCG$ JMCG$ JMCG$ JMCG$ JMCG$ JMCG$ JMCG$ JMCG$ JMCG$ JMCG$ JMCG$ JMCG$ JMCG$ JMCG$ JMCG$ JMCG$ JMCG$ JMCG$ JMCG$ JMCG$ JMCG$ JMCG$ JMCG$ JMCG$ JMCG$ JMCG$ JMCG$ JMCG$ JMCG$ JMCG$ JMCG$ JMCG$ JMCG$ JMCG$ JMCG$ JMCG$ JMCG$ JMCG$ JMCG$ JMCG$ JMCG$ JMCG$ JMCG$ JMCG$ JMCG$ JMCG$ JMCG$ JMCG$ JMCG$ JMCG$ JMCG$ JMCG$ JMCG$ JMCG$ JMCG$ JMCG$ JMCG$ JMCG$ JMCG$ JMCG$ JMCG$ JMCG$ JMCG$ JMCG$ JMCG$ JMCG$ JMCG$ JMCG$ JMCG$ JMCG$ JMCG$ JMCG$ JMCG$ JMCG$ JMCG$ JMCG$ JMCG$ JMCG$ JMCG$ JMCG$ JMCG$ JMCG$ JMCG$ JMCG$ JMCG$ JMCG$ JMCG$ JMCG$ JMCG$ JMCG$ JMCG$ JMCG$ JMCG$ JMCG$ JMCG$ JMCG$ JMCG$ JMCG$ JMCG$ JMCG$ JMCG$ JMCG$ JMCG$ JMCG$ JMCG$ JMCG$ JMCG$ JMCG$ JMCG$ JMCG$ JMCG$ JMCG$ JMCG$ JMCG$ JMCG$ JMCG$ JMCG$ JMCG$ JMCG$ JMCG$ JMCG$ JMCG$ JMCG$ JMCG$ JMCG$ JMCG$ JMCG$ JMCG$ JMCG$ JMCG$ JMCG$ JMCG$ JMCG$ JMCG$ JMCG$ JMCG$ JMCG$ JMCG$ JMCG$ JMCG$ JMCG$ JMCG$ JMCG$ JMCG$ JMCG$ JMCG$ JMCG$ JMCG$ JMCG$ JMCG$ JMCG$ JMCG$ JMCG$ JMCG$ JMCG$ JMCG$     7LCH 7LCH 7LCH 7LCH 7LCH 7LCH 7LCH 7LCH 7LCH 7LCH 7LCH 7LCH 7LCH 7LCH 7LCH 7LCH 7LCH 7LCH 7LCH 7LCH 7LCH 7LCH 7LCH 7LCH 7LCH 7LCH 7LCH 7LCH 7LCH 7LCH 7LCH 7LCH 7LCH 7LCH 7LCH 7LCH 7LCH 7LCH 7LCH 7LCH 7LCH 7LCH 7LCH 7LCH 7LCH 7LCH 7LCH 7LCH 7LCH 7LCH 7LCH 7LCH 7LCH 7LCH 7LCH 7LCH 7LCH 7LCH 7LCH 7LCH 7LCH 7LCH 7LCH 7LCH 7LCH 7LCH 7LCH 7LCH 7LCH 7LCH 7LCH 7LCH 7LCH 7LCH 7LCH 7LCH 7LCH 7LCH 7LCH 7LCH 7LCH 7LCH 7LCH 7LCH 7LCH 7LCH 7LCH 7LCH 7LCH 7LCH 7LCH 7LCH 7LCH 7LCH 7LCH 7LCH 7LCH 7LCH 7LCH 7LCH 7LCH 7LCH 7LCH 7LCH 7LCH 7LCH 7LCH 7LCH 7LCH 7LCH 7LCH 7LCH 7LCH 7LCH 7LCH 7LCH 7LCH 7LCH 7LCH 7LCH 7LCH 7LCH 7LCH 7LCH 7LCH 7LCH 7LCH 7LCH 7LCH 7LCH 7LCH 7LCH 7LCH 7LCH 7LCH 7LCH 7LCH 7LCH 7LCH 7LCH 7LCH 7LCH 7LCH 7LCH 7LCH 7LCH 7LCH 7LCH 7LCH 7LCH 7LCH 7LCH LCH LCH LCH LCH LCH5 LCH5 LCH5 LCH5 LCH5 LCH5 LCH5 LCH5 LCH5 LCH5 LCH5 LCH5 LCH5 LCH5 LCH5 LCH5 LCH5 LCH5 LCH5 LCH5 LCH5 LCH5 LCH5 LCH5 LCH5 LCH5 LCH5 LCH5 LCH5 LCH5 LCH5 LCH5 LCH5 LCH5 LCH5 LCH5 LCH5 LCH5 LCH5 LCH5 LCH5 LCH5 LCH5 LCH5 LCH5 LCH5 LCH5 LCH5 LCH5 LCH5 LCH5 LCH5 LCH5 LCH5 LCH5 LCH5 LCH5 LCH5 LCH5 LCH5 LCH5 LCH5 LCH5 LCH5 LCH5 LCH5 LCH5 LCH5 LCH5 LCH5 LCH5 LCH5 LCH5 LCH5 LCH5 LCH5 LCH5 LCH5 LCH5 LCH5 LCH5 LCH5 LCH5 LCH5 LCH5 LCH5 LCH5 LCH5 LCH5 LCH5 LCH5 LCH5 LCH5 LCH5 LCH5 LCH5 LCH5 LCH5 LCH5 LCH5 LCH5 LCH5 LCH5 LCH5 LCH5 LCH5 LCH5 LCH5 LCH5 LCH5 LCH5 LCH5 LCH5 LCH5 LCH5 LCH5 LCH5 LCH5 LCH5 LCH5 LCH5 LCH5 LCH5 LCH5 LCH5 LCH5 LCH5 LCH5 LCH5 LCH5 LCH5 LCH5 LCH5 LCH5 LCH5 LCH5 LCH5 LCH5 LCH5 LCH5 LCH5 LCH5 LCH5 LCH5 LCH5 LCH5 LCH5 LCH5 LCH5 LCH5 LCH5 5    4CHL 4CHL 4CHL 4CHL 4CHL 4CHL 4CHL 4CHL 4CHL 4CHL 4CHL 4CHL 4CHL 4CHL 4CHL 4CHL 4CHL 4CHL 4CHL 4CHL 4CHL 4CHL 4CHL 4CHL 4CHL 4CHL 4CHL 4CHL 4CHL 4CHL 4CHL 4CHL 4CHL 4CHL 4CHL 4CHL 4CHL 4CHL 4CHL 4CHL 4CHL 4CHL 4CHL 4CHL 4CHL 4CHL 4CHL 4CHL 4CHL 4CHL 4CHL 4CHL 4CHL 4CHL 4CHL 4CHL 4CHL 4CHL 4CHL 4CHL 4CHL 4CHL 4CHL 4CHL 4CHL 4CHL 4CHL 4CHL 4CHL 4CHL 4CHL 4CHL 4CHL 4CHL 4CHL 4CHL 4CHL 4CHL 4CHL 4CHL 4CHL 4CHL 4CHL 4CHL 4CHL 4CHL 4CHL 4CHL 4CHL 4CHL 4CHL 4CHL 4CHL 4CHL 4CHL 4CHL 4CHL 4CHL 4CHL 4CHL 4CHL 4CHL 4CHL 4CHL 4CHL 4CHL 4CHL 4CHL 4CHL 4CHL 4CHL 4CHL 4CHL 4CHL 4CHL 4CHL 4CHL 4CHL 4CHL 4CHL 4CHL 4CHL 4CHL 4CHL 4CHL 4CHL 4CHL 4CHL 4CHL 4CHL 4CHL 4CHL 4CHL 4CHL 4CHL 4CHL 4CHL 4CHL 4CHL 4CHL 4CHL 4CHL 4CHL 4CHL 4CHL 4CHL 4CHL 4CHL 4CHL 4CHL 4CHL 4CHL CHL CHL CHL CHL CHL2 CHL2 CHL2 CHL2 CHL2 CHL2 CHL2 CHL2 CHL2 CHL2 CHL2 CHL2 CHL2 CHL2 CHL2 CHL2 CHL2 CHL2 CHL2 CHL2 CHL2 CHL2 CHL2 CHL2 CHL2 CHL2 CHL2 CHL2 CHL2 CHL2 CHL2 CHL2 CHL2 CHL2 CHL2 CHL2 CHL2 CHL2 CHL2 CHL2 CHL2 CHL2 CHL2 CHL2 CHL2 CHL2 CHL2 CHL2 CHL2 CHL2 CHL2 CHL2 CHL2 CHL2 CHL2 CHL2 CHL2 CHL2 CHL2 CHL2 CHL2 CHL2 CHL2 CHL2 CHL2 CHL2 CHL2 CHL2 CHL2 CHL2 CHL2 CHL2 CHL2 CHL2 CHL2 CHL2 CHL2 CHL2 CHL2 CHL2 CHL2 CHL2 CHL2 CHL2 CHL2 CHL2 CHL2 CHL2 CHL2 CHL2 CHL2 CHL2 CHL2 CHL2 CHL2 CHL2 CHL2 CHL2 CHL2 CHL2 CHL2 CHL2 CHL2 CHL2 CHL2 CHL2 CHL2 CHL2 CHL2 CHL2 CHL2 CHL2 CHL2 CHL2 CHL2 CHL2 CHL2 CHL2 CHL2 CHL2 CHL2 CHL2 CHL2 CHL2 CHL2 CHL2 CHL2 CHL2 CHL2 CHL2 CHL2 CHL2 CHL2 CHL2 CHL2 CHL2 CHL2 CHL2 CHL2 CHL2 CHL2 CHL2 CHL2 CHL2 CHL2 CHL2 CHL2 CHL2 CHL2 CHL2 CHL2 2    1EILO 1EILO 1EILO 1EILO 1EILO 1EILO 1EILO 1EILO 1EILO 1EILO 1EILO 1EILO 1EILO 1EILO 1EILO 1EILO 1EILO 1EILO 1EILO 1EILO 1EILO 1EILO 1EILO 1EILO 1EILO 1EILO 1EILO 1EILO 1EILO 1EILO 1EILO 1EILO 1EILO 1EILO 1EILO 1EILO 1EILO 1EILO 1EILO 1EILO 1EILO 1EILO 1EILO 1EILO 1EILO 1EILO 1EILO 1EILO 1EILO 1EILO 1EILO 1EILO 1EILO 1EILO 1EILO 1EILO 1EILO 1EILO 1EILO 1EILO 1EILO 1EILO 1EILO 1EILO 1EILO 1EILO 1EILO 1EILO 1EILO 1EILO 1EILO 1EILO 1EILO 1EILO 1EILO 1EILO 1EILO 1EILO 1EILO 1EILO 1EILO 1EILO 1EILO 1EILO 1EILO 1EILO 1EILO 1EILO 1EILO 1EILO 1EILO 1EILO 1EILO 1EILO 1EILO 1EILO 1EILO 1EILO 1EILO 1EILO 1EILO 1EILO 1EILO 1EILO 1EILO 1EILO 1EILO 1EILO 1EILO 1EILO 1EILO 1EILO 1EILO 1EILO 1EILO 1EILO 1EILO 1EILO 1EILO 1EILO 1EILO 1EILO 1EILO 1EILO 1EILO 1EILO 1EILO 1EILO 1EILO 1EILO 1EILO 1EILO 1EILO 1EILO 1EILO 1EILO 1EILO 1EILO 1EILO 1EILO 1EILO 1EILO 1EILO 1EILO 1EILO 1EILO 1EILO 1EILO 1EILO 1EILO 1EILO 1EILO EILO EILO EILO EILO EILO/ EILO/ EILO/ EILO/ EILO/ EILO/ EILO/ EILO/ EILO/ EILO/ EILO/ EILO/ EILO/ EILO/ EILO/ EILO/ EILO/ EILO/ EILO/ EILO/ EILO/ EILO/ EILO/ EILO/ EILO/ EILO/ EILO/ EILO/ EILO/ EILO/ EILO/ EILO/ EILO/ EILO/ EILO/ EILO/ EILO/ EILO/ EILO/ EILO/ EILO/ EILO/ EILO/ EILO/ EILO/ EILO/ EILO/ EILO/ EILO/ EILO/ EILO/ EILO/ EILO/ EILO/ EILO/ EILO/ EILO/ EILO/ EILO/ EILO/ EILO/ EILO/ EILO/ EILO/ EILO/ EILO/ EILO/ EILO/ EILO/ EILO/ EILO/ EILO/ EILO/ EILO/ EILO/ EILO/ EILO/ EILO/ EILO/ EILO/ EILO/ EILO/ EILO/ EILO/ EILO/ EILO/ EILO/ EILO/ EILO/ EILO/ EILO/ EILO/ EILO/ EILO/ EILO/ EILO/ EILO/ EILO/ EILO/ EILO/ EILO/ EILO/ EILO/ EILO/ EILO/ EILO/ EILO/ EILO/ EILO/ EILO/ EILO/ EILO/ EILO/ EILO/ EILO/ EILO/ EILO/ EILO/ EILO/ EILO/ EILO/ EILO/ EILO/ EILO/ EILO/ EILO/ EILO/ EILO/ EILO/ EILO/ EILO/ EILO/ EILO/ EILO/ EILO/ EILO/ EILO/ EILO/ EILO/ EILO/ EILO/ EILO/ EILO/ EILO/ EILO/ EILO/ EILO/ EILO/ EILO/ EILO/ EILO/ /    -LOEI -LOEI -LOEI -LOEI -LOEI -LOEI -LOEI -LOEI -LOEI -LOEI -LOEI -LOEI -LOEI -LOEI -LOEI -LOEI -LOEI -LOEI -LOEI -LOEI -LOEI -LOEI -LOEI -LOEI -LOEI -LOEI -LOEI -LOEI -LOEI -LOEI -LOEI -LOEI -LOEI -LOEI -LOEI -LOEI -LOEI -LOEI -LOEI -LOEI -LOEI -LOEI -LOEI -LOEI -LOEI -LOEI -LOEI -LOEI -LOEI -LOEI -LOEI -LOEI -LOEI -LOEI -LOEI -LOEI -LOEI -LOEI -LOEI -LOEI -LOEI -LOEI -LOEI -LOEI -LOEI -LOEI -LOEI -LOEI -LOEI -LOEI -LOEI -LOEI -LOEI -LOEI -LOEI -LOEI -LOEI -LOEI -LOEI -LOEI -LOEI -LOEI -LOEI -LOEI -LOEI -LOEI -LOEI -LOEI -LOEI -LOEI -LOEI -LOEI -LOEI -LOEI -LOEI -LOEI -LOEI -LOEI -LOEI -LOEI -LOEI -LOEI -LOEI -LOEI -LOEI -LOEI -LOEI -LOEI -LOEI -LOEI -LOEI -LOEI -LOEI -LOEI -LOEI -LOEI -LOEI -LOEI -LOEI -LOEI -LOEI -LOEI -LOEI -LOEI -LOEI -LOEI -LOEI -LOEI -LOEI -LOEI -LOEI -LOEI -LOEI -LOEI -LOEI -LOEI -LOEI -LOEI -LOEI -LOEI -LOEI -LOEI -LOEI -LOEI -LOEI -LOEI -LOEI -LOEI -LOEI -LOEI -LOEI -LOEI LOEI LOEI LOEI LOEI LOEI+ LOEI+ LOEI+ LOEI+ LOEI+ LOEI+ LOEI+ LOEI+ LOEI+ LOEI+ LOEI+ LOEI+ LOEI+ LOEI+ LOEI+ LOEI+ LOEI+ LOEI+ LOEI+ LOEI+ LOEI+ LOEI+ LOEI+ LOEI+ LOEI+ LOEI+ LOEI+ LOEI+ LOEI+ LOEI+ LOEI+ LOEI+ LOEI+ LOEI+ LOEI+ LOEI+ LOEI+ LOEI+ LOEI+ LOEI+ LOEI+ LOEI+ LOEI+ LOEI+ LOEI+ LOEI+ LOEI+ LOEI+ LOEI+ LOEI+ LOEI+ LOEI+ LOEI+ LOEI+ LOEI+ LOEI+ LOEI+ LOEI+ LOEI+ LOEI+ LOEI+ LOEI+ LOEI+ LOEI+ LOEI+ LOEI+ LOEI+ LOEI+ LOEI+ LOEI+ LOEI+ LOEI+ LOEI+ LOEI+ LOEI+ LOEI+ LOEI+ LOEI+ LOEI+ LOEI+ LOEI+ LOEI+ LOEI+ LOEI+ LOEI+ LOEI+ LOEI+ LOEI+ LOEI+ LOEI+ LOEI+ LOEI+ LOEI+ LOEI+ LOEI+ LOEI+ LOEI+ LOEI+ LOEI+ LOEI+ LOEI+ LOEI+ LOEI+ LOEI+ LOEI+ LOEI+ LOEI+ LOEI+ LOEI+ LOEI+ LOEI+ LOEI+ LOEI+ LOEI+ LOEI+ LOEI+ LOEI+ LOEI+ LOEI+ LOEI+ LOEI+ LOEI+ LOEI+ LOEI+ LOEI+ LOEI+ LOEI+ LOEI+ LOEI+ LOEI+ LOEI+ LOEI+ LOEI+ LOEI+ LOEI+ LOEI+ LOEI+ LOEI+ LOEI+ LOEI+ LOEI+ LOEI+ LOEI+ LOEI+ LOEI+ LOEI+ LOEI+ LOEI+ LOEI+ LOEI+ LOEI+ +    *EILO *EILO *EILO *EILO *EILO *EILO *EILO *EILO *EILO *EILO *EILO *EILO *EILO *EILO *EILO *EILO *EILO *EILO *EILO *EILO *EILO *EILO *EILO *EILO *EILO *EILO *EILO *EILO *EILO *EILO *EILO *EILO *EILO *EILO *EILO *EILO *EILO *EILO *EILO *EILO *EILO *EILO *EILO *EILO *EILO *EILO *EILO *EILO *EILO *EILO *EILO *EILO *EILO *EILO *EILO *EILO *EILO *EILO *EILO *EILO *EILO *EILO *EILO *EILO *EILO *EILO *EILO *EILO *EILO *EILO *EILO *EILO *EILO *EILO *EILO *EILO *EILO *EILO *EILO *EILO *EILO *EILO *EILO *EILO *EILO *EILO *EILO *EILO *EILO *EILO *EILO *EILO *EILO *EILO *EILO *EILO *EILO *EILO *EILO *EILO *EILO *EILO *EILO *EILO *EILO *EILO *EILO *EILO *EILO *EILO *EILO *EILO *EILO *EILO *EILO *EILO *EILO *EILO *EILO *EILO *EILO *EILO *EILO *EILO *EILO *EILO *EILO *EILO *EILO *EILO *EILO *EILO *EILO *EILO *EILO *EILO *EILO *EILO *EILO *EILO *EILO *EILO *EILO *EILO *EILO *EILO *EILO *EILO *EILO *EILO *EILO *EILO EILO EILO EILO EILO EILO( EILO( EILO( EILO( EILO( EILO( EILO( EILO( EILO( EILO( EILO( EILO( EILO( EILO( EILO( EILO( EILO( EILO( EILO( EILO( EILO( EILO( EILO( EILO( EILO( EILO( EILO( EILO( EILO( EILO( EILO( EILO( EILO( EILO( EILO( EILO( EILO( EILO( EILO( EILO( EILO( EILO( EILO( EILO( EILO( EILO( EILO( EILO( EILO( EILO( EILO( EILO( EILO( EILO( EILO( EILO( EILO( EILO( EILO( EILO( EILO( EILO( EILO( EILO( EILO( EILO( EILO( EILO( EILO( EILO( EILO( EILO( EILO( EILO( EILO( EILO( EILO( EILO( EILO( EILO( EILO( EILO( EILO( EILO( EILO( EILO( EILO( EILO( EILO( EILO( EILO( EILO( EILO( EILO( EILO( EILO( EILO( EILO( EILO( EILO( EILO( EILO( EILO( EILO( EILO( EILO( EILO( EILO( EILO( EILO( EILO( EILO( EILO( EILO( EILO( EILO( EILO( EILO( EILO( EILO( EILO( EILO( EILO( EILO( EILO( EILO( EILO( EILO( EILO( EILO( EILO( EILO( EILO( EILO( EILO( EILO( EILO( EILO( EILO( EILO( EILO( EILO( EILO( EILO( EILO( EILO( EILO( EILO( EILO( EILO( EILO( (    LOEI& LOEI& LOEI& LOEI& LOEI& LOEI& LOEI& LOEI& LOEI& LOEI& LOEI& LOEI& LOEI& LOEI& LOEI& LOEI& LOEI& LOEI& LOEI& LOEI& LOEI& LOEI& LOEI& LOEI& LOEI& LOEI& LOEI& LOEI& LOEI& LOEI& LOEI& LOEI& LOEI& LOEI& LOEI& LOEI& LOEI& LOEI& LOEI& LOEI& LOEI& LOEI& LOEI& LOEI& LOEI& LOEI& LOEI& LOEI& LOEI& LOEI& LOEI& LOEI& LOEI& LOEI& LOEI& LOEI& LOEI& LOEI& LOEI& LOEI& LOEI& LOEI& LOEI& LOEI& LOEI& LOEI& LOEI& LOEI& LOEI& LOEI& LOEI& LOEI& LOEI& LOEI& LOEI& LOEI& LOEI& LOEI& LOEI& LOEI& LOEI& LOEI& LOEI& LOEI& LOEI& LOEI& LOEI& LOEI& LOEI& LOEI& LOEI& LOEI& LOEI& LOEI& LOEI& LOEI& LOEI& LOEI& LOEI& LOEI& LOEI& LOEI& LOEI& LOEI& LOEI& LOEI& LOEI& LOEI& LOEI& LOEI& LOEI& LOEI& LOEI& LOEI& LOEI& LOEI& LOEI& LOEI& LOEI& LOEI& LOEI& LOEI& LOEI& LOEI& LOEI& LOEI& LOEI& LOEI& LOEI& LOEI& LOEI& LOEI& LOEI& LOEI& LOEI& LOEI& LOEI& LOEI& LOEI& LOEI& LOEI& LOEI& LOEI& LOEI& LOEI& LOEI& LOEI& LOEI& LOEI& LOEI& LOEI& LOEI& LOEI& LOEI& LOEI& LOEI& LOEI& LOEI& LOEI& LOEI& LOEI& LOEI& LOEI& LOEI& LOEI& LOEI& LOEI& LOEI& LOEI& LOEI& LOEI& LOEI& LOEI& LOEI& LOEI& LOEI& LOEI& LOEI& LOEI& LOEI& LOEI& LOEI& LOEI& LOEI& LOEI& LOEI& LOEI& LOEI& LOEI& LOEI& LOEI& LOEI& LOEI& LOEI& LOEI& LOEI& LOEI& LOEI& LOEI& LOEI& LOEI& LOEI& LOEI& LOEI& LOEI& LOEI& LOEI& LOEI& LOEI& LOEI& LOEI& LOEI& LOEI& LOEI& LOEI& LOEI& LOEI& LOEI& LOEI& LOEI& LOEI& LOEI& LOEI& LOEI& LOEI& LOEI& LOEI& LOEI& LOEI& LOEI& LOEI& LOEI& LOEI& LOEI& LOEI& LOEI& LOEI& LOEI& LOEI& LOEI& LOEI& LOEI& LOEI& LOEI& LOEI& LOEI& LOEI& LOEI& LOEI& LOEI& LOEI& LOEI& LOEI& LOEI& LOEI& LOEI& LOEI& LOEI& LOEI& LOEI& LOEI& LOEI& LOEI& LOEI& LOEI& LOEI& LOEI& LOEI& LOEI& LOEI& LOEI& LOEI& LOEI& LOEI& LOEI& LOEI& LOEI& LOEI& LOEI& LOEI& LOEI& LOEI& LOEI& LOEI& LOEI& LOEI& LOEI& LOEI& LOEI& LOEI& LOEI& LOEI& LOEI& LOEI& LOEI& LOEI& LOEI& LOEI& LOEI& LOEI& LOEI& LOEI& LOEI& LOEI& LOEI& LOEI& LOEI&     <JNE <JNE <JNE <JNE <JNE <JNE <JNE <JNE <JNE <JNE <JNE <JNE <JNE <JNE <JNE <JNE <JNE <JNE <JNE <JNE <JNE <JNE <JNE <JNE <JNE <JNE <JNE <JNE <JNE <JNE <JNE <JNE <JNE <JNE <JNE <JNE <JNE <JNE <JNE <JNE <JNE <JNE <JNE <JNE <JNE <JNE <JNE <JNE <JNE <JNE <JNE <JNE <JNE <JNE <JNE <JNE <JNE <JNE <JNE <JNE <JNE <JNE <JNE <JNE <JNE <JNE <JNE <JNE <JNE <JNE <JNE <JNE <JNE <JNE <JNE <JNE <JNE <JNE <JNE <JNE <JNE <JNE <JNE <JNE <JNE <JNE <JNE <JNE <JNE <JNE <JNE <JNE <JNE <JNE <JNE <JNE <JNE <JNE <JNE <JNE <JNE <JNE <JNE <JNE <JNE <JNE <JNE <JNE <JNE <JNE <JNE <JNE <JNE <JNE <JNE <JNE <JNE <JNE <JNE <JNE <JNE <JNE <JNE <JNE <JNE <JNE <JNE <JNE <JNE <JNE <JNE <JNE <JNE <JNE <JNE <JNE <JNE <JNE <JNE <JNE <JNE <JNE <JNE <JNE <JNE <JNE <JNE <JNE <JNE <JNE <JNE <JNE JNE JNE JNE JNE JNE: JNE: JNE: JNE: JNE: JNE: JNE: JNE: JNE: JNE: JNE: JNE: JNE: JNE: JNE: JNE: JNE: JNE: JNE: JNE: JNE: JNE: JNE: JNE: JNE: JNE: JNE: JNE: JNE: JNE: JNE: JNE: JNE: JNE: JNE: JNE: JNE: JNE: JNE: JNE: JNE: JNE: JNE: JNE: JNE: JNE: JNE: JNE: JNE: JNE: JNE: JNE: JNE: JNE: JNE: JNE: JNE: JNE: JNE: JNE: JNE: JNE: JNE: JNE: JNE: JNE: JNE: JNE: JNE: JNE: JNE: JNE: JNE: JNE: JNE: JNE: JNE: JNE: JNE: JNE: JNE: JNE: JNE: JNE: JNE: JNE: JNE: JNE: JNE: JNE: JNE: JNE: JNE: JNE: JNE: JNE: JNE: JNE: JNE: JNE: JNE: JNE: JNE: JNE: JNE: JNE: JNE: JNE: JNE: JNE: JNE: JNE: JNE: JNE: JNE: JNE: JNE: JNE: JNE: JNE: JNE: JNE: JNE: JNE: JNE: JNE: JNE: JNE: JNE: JNE: JNE: JNE: JNE: JNE: JNE: JNE: JNE: JNE: JNE: JNE: JNE: JNE: JNE: JNE: JNE: JNE: JNE: JNE: JNE: JNE: JNE: :    9EJN 9EJN 9EJN 9EJN 9EJN 9EJN 9EJN 9EJN 9EJN 9EJN 9EJN 9EJN 9EJN 9EJN 9EJN 9EJN 9EJN 9EJN 9EJN 9EJN 9EJN 9EJN 9EJN 9EJN 9EJN 9EJN 9EJN 9EJN 9EJN 9EJN 9EJN 9EJN 9EJN 9EJN 9EJN 9EJN 9EJN 9EJN 9EJN 9EJN 9EJN 9EJN 9EJN 9EJN 9EJN 9EJN 9EJN 9EJN 9EJN 9EJN 9EJN 9EJN 9EJN 9EJN 9EJN 9EJN 9EJN 9EJN 9EJN 9EJN 9EJN 9EJN 9EJN 9EJN 9EJN 9EJN 9EJN 9EJN 9EJN 9EJN 9EJN 9EJN 9EJN 9EJN 9EJN 9EJN 9EJN 9EJN 9EJN 9EJN 9EJN 9EJN 9EJN 9EJN 9EJN 9EJN 9EJN 9EJN 9EJN 9EJN 9EJN 9EJN 9EJN 9EJN 9EJN 9EJN 9EJN 9EJN 9EJN 9EJN 9EJN 9EJN 9EJN 9EJN 9EJN 9EJN 9EJN 9EJN 9EJN 9EJN 9EJN 9EJN 9EJN 9EJN 9EJN 9EJN 9EJN 9EJN 9EJN 9EJN 9EJN 9EJN 9EJN 9EJN 9EJN 9EJN 9EJN 9EJN 9EJN 9EJN 9EJN 9EJN 9EJN 9EJN 9EJN 9EJN 9EJN 9EJN 9EJN 9EJN 9EJN 9EJN 9EJN 9EJN 9EJN 9EJN 9EJN 9EJN 9EJN 9EJN 9EJN 9EJN EJN EJN EJN EJN EJN7 EJN7 EJN7 EJN7 EJN7 EJN7 EJN7 EJN7 EJN7 EJN7 EJN7 EJN7 EJN7 EJN7 EJN7 EJN7 EJN7 EJN7 EJN7 EJN7 EJN7 EJN7 EJN7 EJN7 EJN7 EJN7 EJN7 EJN7 EJN7 EJN7 EJN7 EJN7 EJN7 EJN7 EJN7 EJN7 EJN7 EJN7 EJN7 EJN7 EJN7 EJN7 EJN7 EJN7 EJN7 EJN7 EJN7 EJN7 EJN7 EJN7 EJN7 EJN7 EJN7 EJN7 EJN7 EJN7 EJN7 EJN7 EJN7 EJN7 EJN7 EJN7 EJN7 EJN7 EJN7 EJN7 EJN7 EJN7 EJN7 EJN7 EJN7 EJN7 EJN7 EJN7 EJN7 EJN7 EJN7 EJN7 EJN7 EJN7 EJN7 EJN7 EJN7 EJN7 EJN7 EJN7 EJN7 EJN7 EJN7 EJN7 EJN7 EJN7 EJN7 EJN7 EJN7 EJN7 EJN7 EJN7 EJN7 EJN7 EJN7 EJN7 EJN7 EJN7 EJN7 EJN7 EJN7 EJN7 EJN7 EJN7 EJN7 EJN7 EJN7 EJN7 EJN7 EJN7 EJN7 EJN7 EJN7 EJN7 EJN7 EJN7 EJN7 EJN7 EJN7 EJN7 EJN7 EJN7 EJN7 EJN7 EJN7 EJN7 EJN7 EJN7 EJN7 EJN7 EJN7 EJN7 EJN7 EJN7 EJN7 EJN7 EJN7 EJN7 EJN7 EJN7 EJN7 EJN7 EJN7 EJN7 EJN7 7    6QHJ 6QHJ 6QHJ 6QHJ 6QHJ 6QHJ 6QHJ 6QHJ 6QHJ 6QHJ 6QHJ 6QHJ 6QHJ 6QHJ 6QHJ 6QHJ 6QHJ 6QHJ 6QHJ 6QHJ 6QHJ 6QHJ 6QHJ 6QHJ 6QHJ 6QHJ 6QHJ 6QHJ 6QHJ 6QHJ 6QHJ 6QHJ 6QHJ 6QHJ 6QHJ 6QHJ 6QHJ 6QHJ 6QHJ 6QHJ 6QHJ 6QHJ 6QHJ 6QHJ 6QHJ 6QHJ 6QHJ 6QHJ 6QHJ 6QHJ 6QHJ 6QHJ 6QHJ 6QHJ 6QHJ 6QHJ 6QHJ 6QHJ 6QHJ 6QHJ 6QHJ 6QHJ 6QHJ 6QHJ 6QHJ 6QHJ 6QHJ 6QHJ 6QHJ 6QHJ 6QHJ 6QHJ 6QHJ 6QHJ 6QHJ 6QHJ 6QHJ 6QHJ 6QHJ 6QHJ 6QHJ 6QHJ 6QHJ 6QHJ 6QHJ 6QHJ 6QHJ 6QHJ 6QHJ 6QHJ 6QHJ 6QHJ 6QHJ 6QHJ 6QHJ 6QHJ 6QHJ 6QHJ 6QHJ 6QHJ 6QHJ 6QHJ 6QHJ 6QHJ 6QHJ 6QHJ 6QHJ 6QHJ 6QHJ 6QHJ 6QHJ 6QHJ 6QHJ 6QHJ 6QHJ 6QHJ 6QHJ 6QHJ 6QHJ 6QHJ 6QHJ 6QHJ 6QHJ 6QHJ 6QHJ 6QHJ 6QHJ 6QHJ 6QHJ 6QHJ 6QHJ 6QHJ 6QHJ 6QHJ 6QHJ 6QHJ 6QHJ 6QHJ 6QHJ 6QHJ 6QHJ 6QHJ 6QHJ 6QHJ 6QHJ 6QHJ 6QHJ 6QHJ 6QHJ 6QHJ 6QHJ 6QHJ QHJ QHJ QHJ QHJ QHJ4 QHJ4 QHJ4 QHJ4 QHJ4 QHJ4 QHJ4 QHJ4 QHJ4 QHJ4 QHJ4 QHJ4 QHJ4 QHJ4 QHJ4 QHJ4 QHJ4 QHJ4 QHJ4 QHJ4 QHJ4 QHJ4 QHJ4 QHJ4 QHJ4 QHJ4 QHJ4 QHJ4 QHJ4 QHJ4 QHJ4 QHJ4 QHJ4 QHJ4 QHJ4 QHJ4 QHJ4 QHJ4 QHJ4 QHJ4 QHJ4 QHJ4 QHJ4 QHJ4 QHJ4 QHJ4 QHJ4 QHJ4 QHJ4 QHJ4 QHJ4 QHJ4 QHJ4 QHJ4 QHJ4 QHJ4 QHJ4 QHJ4 QHJ4 QHJ4 QHJ4 QHJ4 QHJ4 QHJ4 QHJ4 QHJ4 QHJ4 QHJ4 QHJ4 QHJ4 QHJ4 QHJ4 QHJ4 QHJ4 QHJ4 QHJ4 QHJ4 QHJ4 QHJ4 QHJ4 QHJ4 QHJ4 QHJ4 QHJ4 QHJ4 QHJ4 QHJ4 QHJ4 QHJ4 QHJ4 QHJ4 QHJ4 QHJ4 QHJ4 QHJ4 QHJ4 QHJ4 QHJ4 QHJ4 QHJ4 QHJ4 QHJ4 QHJ4 QHJ4 QHJ4 QHJ4 QHJ4 QHJ4 QHJ4 QHJ4 QHJ4 QHJ4 QHJ4 QHJ4 QHJ4 QHJ4 QHJ4 QHJ4 QHJ4 QHJ4 QHJ4 QHJ4 QHJ4 QHJ4 QHJ4 QHJ4 QHJ4 QHJ4 QHJ4 QHJ4 QHJ4 QHJ4 QHJ4 QHJ4 QHJ4 QHJ4 QHJ4 QHJ4 QHJ4 QHJ4 QHJ4 QHJ4 QHJ4 QHJ4 QHJ4 QHJ4 QHJ4 QHJ4 QHJ4 QHJ4 QHJ4 4    2JQH 2JQH 2JQH 2JQH 2JQH 2JQH 2JQH 2JQH 2JQH 2JQH 2JQH 2JQH 2JQH 2JQH 2JQH 2JQH 2JQH 2JQH 2JQH 2JQH 2JQH 2JQH 2JQH 2JQH 2JQH 2JQH 2JQH 2JQH 2JQH 2JQH 2JQH 2JQH 2JQH 2JQH 2JQH 2JQH 2JQH 2JQH 2JQH 2JQH 2JQH 2JQH 2JQH 2JQH 2JQH 2JQH 2JQH 2JQH 2JQH 2JQH 2JQH 2JQH 2JQH 2JQH 2JQH 2JQH 2JQH 2JQH 2JQH 2JQH 2JQH 2JQH 2JQH 2JQH 2JQH 2JQH 2JQH 2JQH 2JQH 2JQH 2JQH 2JQH 2JQH 2JQH 2JQH 2JQH 2JQH 2JQH 2JQH 2JQH 2JQH 2JQH 2JQH 2JQH 2JQH 2JQH 2JQH 2JQH 2JQH 2JQH 2JQH 2JQH 2JQH 2JQH 2JQH 2JQH 2JQH 2JQH 2JQH 2JQH 2JQH 2JQH 2JQH 2JQH 2JQH 2JQH 2JQH 2JQH 2JQH 2JQH 2JQH 2JQH 2JQH 2JQH 2JQH 2JQH 2JQH 2JQH 2JQH 2JQH 2JQH 2JQH 2JQH 2JQH 2JQH 2JQH 2JQH 2JQH 2JQH 2JQH 2JQH 2JQH 2JQH 2JQH 2JQH 2JQH 2JQH 2JQH 2JQH 2JQH 2JQH 2JQH 2JQH 2JQH 2JQH 2JQH 2JQH 2JQH 2JQH 2JQH 2JQH 2JQH JQH JQH JQH JQH JQH0 JQH0 JQH0 JQH0 JQH0 JQH0 JQH0 JQH0 JQH0 JQH0 JQH0 JQH0 JQH0 JQH0 JQH0 JQH0 JQH0 JQH0 JQH0 JQH0 JQH0 JQH0 JQH0 JQH0 JQH0 JQH0 JQH0 JQH0 JQH0 JQH0 JQH0 JQH0 JQH0 JQH0 JQH0 JQH0 JQH0 JQH0 JQH0 JQH0 JQH0 JQH0 JQH0 JQH0 JQH0 JQH0 JQH0 JQH0 JQH0 JQH0 JQH0 JQH0 JQH0 JQH0 JQH0 JQH0 JQH0 JQH0 JQH0 JQH0 JQH0 JQH0 JQH0 JQH0 JQH0 JQH0 JQH0 JQH0 JQH0 JQH0 JQH0 JQH0 JQH0 JQH0 JQH0 JQH0 JQH0 JQH0 JQH0 JQH0 JQH0 JQH0 JQH0 JQH0 JQH0 JQH0 JQH0 JQH0 JQH0 JQH0 JQH0 JQH0 JQH0 JQH0 JQH0 JQH0 JQH0 JQH0 JQH0 JQH0 JQH0 JQH0 JQH0 JQH0 JQH0 JQH0 JQH0 JQH0 JQH0 JQH0 JQH0 JQH0 JQH0 JQH0 JQH0 JQH0 JQH0 JQH0 JQH0 JQH0 JQH0 JQH0 JQH0 JQH0 JQH0 JQH0 JQH0 JQH0 JQH0 JQH0 JQH0 JQH0 JQH0 JQH0 JQH0 JQH0 JQH0 JQH0 JQH0 JQH0 JQH0 JQH0 JQH0 JQH0 JQH0 JQH0 JQH0 JQH0 JQH0 JQH0 JQH0 0    .JHQ .JHQ .JHQ .JHQ .JHQ .JHQ .JHQ .JHQ .JHQ .JHQ .JHQ .JHQ .JHQ .JHQ .JHQ .JHQ .JHQ .JHQ .JHQ .JHQ .JHQ .JHQ .JHQ .JHQ .JHQ .JHQ .JHQ .JHQ .JHQ .JHQ .JHQ .JHQ .JHQ .JHQ .JHQ .JHQ .JHQ .JHQ .JHQ .JHQ .JHQ .JHQ .JHQ .JHQ .JHQ .JHQ .JHQ .JHQ .JHQ .JHQ .JHQ .JHQ .JHQ .JHQ .JHQ .JHQ .JHQ .JHQ .JHQ .JHQ .JHQ .JHQ .JHQ .JHQ .JHQ .JHQ .JHQ .JHQ .JHQ .JHQ .JHQ .JHQ .JHQ .JHQ .JHQ .JHQ .JHQ .JHQ .JHQ .JHQ .JHQ .JHQ .JHQ .JHQ .JHQ .JHQ .JHQ .JHQ .JHQ .JHQ .JHQ .JHQ .JHQ .JHQ .JHQ .JHQ .JHQ .JHQ .JHQ .JHQ .JHQ .JHQ .JHQ .JHQ .JHQ .JHQ .JHQ .JHQ .JHQ .JHQ .JHQ .JHQ .JHQ .JHQ .JHQ .JHQ .JHQ .JHQ .JHQ .JHQ .JHQ .JHQ .JHQ .JHQ .JHQ .JHQ .JHQ .JHQ .JHQ .JHQ .JHQ .JHQ .JHQ .JHQ .JHQ .JHQ .JHQ .JHQ .JHQ .JHQ .JHQ .JHQ .JHQ .JHQ .JHQ .JHQ .JHQ .JHQ .JHQ .JHQ .JHQ .JHQ JHQ JHQ JHQ JHQ JHQ- JHQ- JHQ- JHQ- JHQ- JHQ- JHQ- JHQ- JHQ- JHQ- JHQ- JHQ- JHQ- JHQ- JHQ- JHQ- JHQ- JHQ- JHQ- JHQ- JHQ- JHQ- JHQ- JHQ- JHQ- JHQ- JHQ- JHQ- JHQ- JHQ- JHQ- JHQ- JHQ- JHQ- JHQ- JHQ- JHQ- JHQ- JHQ- JHQ- JHQ- JHQ- JHQ- JHQ- JHQ- JHQ- JHQ- JHQ- JHQ- JHQ- JHQ- JHQ- JHQ- JHQ- JHQ- JHQ- JHQ- JHQ- JHQ- JHQ- JHQ- JHQ- JHQ- JHQ- JHQ- JHQ- JHQ- JHQ- JHQ- JHQ- JHQ- JHQ- JHQ- JHQ- JHQ- JHQ- JHQ- JHQ- JHQ- JHQ- JHQ- JHQ- JHQ- JHQ- JHQ- JHQ- JHQ- JHQ- JHQ- JHQ- JHQ- JHQ- JHQ- JHQ- JHQ- JHQ- JHQ- JHQ- JHQ- JHQ- JHQ- JHQ- JHQ- JHQ- JHQ- JHQ- JHQ- JHQ- JHQ- JHQ- JHQ- JHQ- JHQ- JHQ- JHQ- JHQ- JHQ- JHQ- JHQ- JHQ- JHQ- JHQ- JHQ- JHQ- JHQ- JHQ- JHQ- JHQ- JHQ- JHQ- JHQ- JHQ- JHQ- JHQ- JHQ- JHQ- JHQ- JHQ- JHQ- JHQ- JHQ- JHQ- JHQ- JHQ- JHQ- JHQ- JHQ- JHQ- JHQ- JHQ- JHQ- -    +HQJ +HQJ +HQJ +HQJ +HQJ +HQJ +HQJ +HQJ +HQJ +HQJ +HQJ +HQJ +HQJ +HQJ +HQJ +HQJ +HQJ +HQJ +HQJ +HQJ +HQJ +HQJ +HQJ +HQJ +HQJ +HQJ +HQJ +HQJ +HQJ +HQJ +HQJ +HQJ +HQJ +HQJ +HQJ +HQJ +HQJ +HQJ +HQJ +HQJ +HQJ +HQJ +HQJ +HQJ +HQJ +HQJ +HQJ +HQJ +HQJ +HQJ +HQJ +HQJ +HQJ +HQJ +HQJ +HQJ +HQJ +HQJ +HQJ +HQJ +HQJ +HQJ +HQJ +HQJ +HQJ +HQJ +HQJ +HQJ +HQJ +HQJ +HQJ +HQJ +HQJ +HQJ +HQJ +HQJ +HQJ +HQJ +HQJ +HQJ +HQJ +HQJ +HQJ +HQJ +HQJ +HQJ +HQJ +HQJ +HQJ +HQJ +HQJ +HQJ +HQJ +HQJ +HQJ +HQJ +HQJ +HQJ +HQJ +HQJ +HQJ +HQJ +HQJ +HQJ +HQJ +HQJ +HQJ +HQJ +HQJ +HQJ +HQJ +HQJ +HQJ +HQJ +HQJ +HQJ +HQJ +HQJ +HQJ +HQJ +HQJ +HQJ +HQJ +HQJ +HQJ +HQJ +HQJ +HQJ +HQJ +HQJ +HQJ +HQJ +HQJ +HQJ +HQJ +HQJ +HQJ +HQJ +HQJ +HQJ +HQJ +HQJ +HQJ +HQJ +HQJ +HQJ +HQJ +HQJ +HQJ +HQJ +HQJ +HQJ +HQJ +HQJ +HQJ +HQJ +HQJ HQJ HQJ HQJ HQJ HQ*J HQ*J HQ*J HQ*J HQ*J HQ*J HQ*J HQ*J HQ*J HQ*J HQ*J HQ*J HQ*J HQ*J HQ*J HQ*J HQ*J HQ*J HQ*J HQ*J HQ*J HQ*J HQ*J HQ*J HQ*J HQ*J HQ*J HQ*J HQ*J HQ*J HQ*J HQ*J HQ*J HQ*J HQ*J HQ*J HQ*J HQ*J HQ*J HQ*J HQ*J HQ*J HQ*J HQ*J HQ*J HQ*J HQ*J HQ*J HQ*J HQ*J HQ*J HQ*J HQ*J HQ*J HQ*J HQ*J HQ*J HQ*J HQ*J HQ*J HQ*J HQ*J HQ*J HQ*J HQ*J HQ*J HQ*J HQ*J HQ*J HQ*J HQ*J HQ*J HQ*J HQ*J HQ*J HQ*J HQ*J HQ*J HQ*J HQ*J HQ*J HQ*J HQ*J HQ*J HQ*J HQ*J HQ*J HQ*J HQ*J HQ*J HQ*J HQ*J HQ*J HQ*J HQ*J HQ*J HQ*J HQ*J HQ*J HQ*J HQ*J HQ*J HQ*J HQ*J HQ*J HQ*J HQ*J HQ*J HQ*J HQ*J HQ*J HQ*J HQ*J HQ*J HQ*J HQ*J HQ*J HQ*J HQ*J HQ*J HQ*J HQ*J HQ*J HQ*J HQ*J HQ*J HQ*J HQ*J HQ*J HQ*J HQ*J HQ*J HQ*J HQ*J HQ*J HQ*J HQ*J HQ*J HQ*J HQ*J HQ*J HQ*J HQ*J HQ*J HQ*J HQ*J HQ*J HQ*J HQ*J HQ*J HQ*J HQ*J HQ*J HQ*J HQ*J HQ*J *J J J J +JFO +JFO +JFO +JFO +JFO +JFO +JFO +JFO +JFO +JFO +JFO +JFO +JFO +JFO +JFO +JFO +JFO +JFO +JFO +JFO +JFO +JFO +JFO +JFO +JFO +JFO +JFO +JFO +JFO +JFO +JFO +JFO +JFO +JFO +JFO +JFO +JFO +JFO +JFO +JFO +JFO +JFO +JFO +JFO +JFO +JFO +JFO +JFO +JFO +JFO +JFO +JFO +JFO +JFO +JFO +JFO +JFO +JFO +JFO +JFO +JFO +JFO +JFO +JFO +JFO +JFO +JFO +JFO +JFO +JFO +JFO +JFO +JFO +JFO +JFO +JFO +JFO +JFO +JFO +JFO +JFO +JFO +JFO +JFO +JFO +JFO +JFO +JFO +JFO +JFO +JFO +JFO +JFO +JFO +JFO +JFO +JFO +JFO +JFO +JFO +JFO +JFO +JFO +JFO +JFO +JFO +JFO +JFO +JFO +JFO +JFO +JFO +JFO +JFO +JFO +JFO +JFO +JFO +JFO +JFO +JFO +JFO +JFO +JFO +JFO +JFO +JFO +JFO +JFO +JFO +JFO +JFO +JFO +JFO +JFO +JFO +JFO +JFO +JFO +JFO +JFO +JFO +JFO +JFO +JFO +JFO +JFO +JFO +JFO +JFO +JFO +JFO +JFO +JFO +JFO +JFO +JFO JFO JFO JFO JFO JFO- JFO- JFO- JFO- JFO- JFO- JFO- JFO- JFO- JFO- JFO- JFO- JFO- JFO- JFO- JFO- JFO- JFO- JFO- JFO- JFO- JFO- JFO- JFO- JFO- JFO- JFO- JFO- JFO- JFO- JFO- JFO- JFO- JFO- JFO- JFO- JFO- JFO- JFO- JFO- JFO- JFO- JFO- JFO- JFO- JFO- JFO- JFO- JFO- JFO- JFO- JFO- JFO- JFO- JFO- JFO- JFO- JFO- JFO- JFO- JFO- JFO- JFO- JFO- JFO- JFO- JFO- JFO- JFO- JFO- JFO- JFO- JFO- JFO- JFO- JFO- JFO- JFO- JFO- JFO- JFO- JFO- JFO- JFO- JFO- JFO- JFO- JFO- JFO- JFO- JFO- JFO- JFO- JFO- JFO- JFO- JFO- JFO- JFO- JFO- JFO- JFO- JFO- JFO- JFO- JFO- JFO- JFO- JFO- JFO- JFO- JFO- JFO- JFO- JFO- JFO- JFO- JFO- JFO- JFO- JFO- JFO- JFO- JFO- JFO- JFO- JFO- JFO- JFO- JFO- JFO- JFO- JFO- JFO- JFO- JFO- JFO- JFO- JFO- JFO- JFO- JFO- JFO- JFO- JFO- JFO- JFO- JFO- JFO- JFO- JFO- JFO- JFO- FO- FO- FO- -    .JEM .JEM .JEM .JEM .JEM .JEM .JEM .JEM .JEM .JEM .JEM .JEM .JEM .JEM .JEM .JEM .JEM .JEM .JEM .JEM .JEM .JEM .JEM .JEM .JEM .JEM .JEM .JEM .JEM .JEM .JEM .JEM .JEM .JEM .JEM .JEM .JEM .JEM .JEM .JEM .JEM .JEM .JEM .JEM .JEM .JEM .JEM .JEM .JEM .JEM .JEM .JEM .JEM .JEM .JEM .JEM .JEM .JEM .JEM .JEM .JEM .JEM .JEM .JEM .JEM .JEM .JEM .JEM .JEM .JEM .JEM .JEM .JEM .JEM .JEM .JEM .JEM .JEM .JEM .JEM .JEM .JEM .JEM .JEM .JEM .JEM .JEM .JEM .JEM .JEM .JEM .JEM .JEM .JEM .JEM .JEM .JEM .JEM .JEM .JEM .JEM .JEM .JEM .JEM .JEM .JEM .JEM .JEM .JEM .JEM .JEM .JEM .JEM .JEM .JEM .JEM .JEM .JEM .JEM .JEM .JEM .JEM .JEM .JEM .JEM .JEM .JEM .JEM .JEM .JEM .JEM .JEM .JEM .JEM .JEM .JEM .JEM .JEM .JEM .JEM .JEM .JEM .JEM .JEM .JEM .JEM .JEM .JEM .JEM .JEM .JEM .JEM .JEM .JEM .JEM .JEM .JEM JEM JEM JEM +JEM +JEM +JEM +JEM +JEM +JEM +JEM +JEM +JEM +JEM +JEM +JEM +JEM +JEM +JEM +JEM +JEM +JEM +JEM +JEM +JEM +JEM +JEM +JEM +JEM +JEM +JEM +JEM +JEM +JEM +JEM +JEM +JEM +JEM +JEM +JEM +JEM +JEM +JEM +JEM +JEM +JEM +JEM +JEM +JEM +JEM +JEM +JEM +JEM +JEM +JEM +JEM +JEM +JEM +JEM +JEM +JEM +JEM +JEM +JEM +JEM +JEM +JEM +JEM +JEM +JEM +JEM +JEM +JEM +JEM +JEM +JEM +JEM +JEM +JEM +JEM +JEM +JEM +JEM +JEM +JEM +JEM +JEM +JEM +JEM +JEM +JEM +JEM +JEM +JEM +JEM +JEM +JEM +JEM +JEM +JEM +JEM +JEM +JEM +JEM +JEM +JEM +JEM +JEM +JEM +JEM +JEM +JEM +JEM +JEM +JEM +JEM +JEM +JEM +JEM +JEM +JEM +JEM +JEM +JEM +JEM +JEM +JEM +JEM +JEM +JEM +JEM +JEM +JEM +JEM +JEM +JEM +JEM +JEM +JEM +JEM +JEM +JEM +JEM +JEM +JEM +JEM +JEM +JEM +JEM +JEM +JEM +JEM +JEM +JEM +JEM +JEM +JEM +JEM +JEM +JEM +JEM     0KHC 0KHC 0KHC 0KHC 0KHC 0KHC 0KHC 0KHC 0KHC 0KHC 0KHC 0KHC 0KHC 0KHC 0KHC 0KHC 0KHC 0KHC 0KHC 0KHC 0KHC 0KHC 0KHC 0KHC 0KHC 0KHC 0KHC 0KHC 0KHC 0KHC 0KHC 0KHC 0KHC 0KHC 0KHC 0KHC 0KHC 0KHC 0KHC 0KHC 0KHC 0KHC 0KHC 0KHC 0KHC 0KHC 0KHC 0KHC 0KHC 0KHC 0KHC 0KHC 0KHC 0KHC 0KHC 0KHC 0KHC 0KHC 0KHC 0KHC 0KHC 0KHC 0KHC 0KHC 0KHC 0KHC 0KHC 0KHC 0KHC 0KHC 0KHC 0KHC 0KHC 0KHC 0KHC 0KHC 0KHC 0KHC 0KHC 0KHC 0KHC 0KHC 0KHC 0KHC 0KHC 0KHC 0KHC 0KHC 0KHC 0KHC 0KHC 0KHC 0KHC 0KHC 0KHC 0KHC 0KHC 0KHC 0KHC 0KHC 0KHC 0KHC 0KHC 0KHC 0KHC 0KHC 0KHC 0KHC 0KHC 0KHC 0KHC 0KHC 0KHC 0KHC 0KHC 0KHC 0KHC 0KHC 0KHC 0KHC 0KHC 0KHC 0KHC 0KHC 0KHC 0KHC 0KHC 0KHC 0KHC 0KHC 0KHC 0KHC 0KHC 0KHC 0KHC 0KHC 0KHC 0KHC 0KHC 0KHC 0KHC 0KHC 0KHC 0KHC 0KHC 0KHC 0KHC 0KHC 0KHC 0KHC 0KHC 0KHC 0KHC 0KHC 0KHC 0KHC 0KHC 0KHC KHC KHC KHC KHC .KHC .KHC .KHC .KHC .KHC .KHC .KHC .KHC .KHC .KHC .KHC .KHC .KHC .KHC .KHC .KHC .KHC .KHC .KHC .KHC .KHC .KHC .KHC .KHC .KHC .KHC .KHC .KHC .KHC .KHC .KHC .KHC .KHC .KHC .KHC .KHC .KHC .KHC .KHC .KHC .KHC .KHC .KHC .KHC .KHC .KHC .KHC .KHC .KHC .KHC .KHC .KHC .KHC .KHC .KHC .KHC .KHC .KHC .KHC .KHC .KHC .KHC .KHC .KHC .KHC .KHC .KHC .KHC .KHC .KHC .KHC .KHC .KHC .KHC .KHC .KHC .KHC .KHC .KHC .KHC .KHC .KHC .KHC .KHC .KHC .KHC .KHC .KHC .KHC .KHC .KHC .KHC .KHC .KHC .KHC .KHC .KHC .KHC .KHC .KHC .KHC .KHC .KHC .KHC .KHC .KHC .KHC .KHC .KHC .KHC .KHC .KHC .KHC .KHC .KHC .KHC .KHC .KHC .KHC .KHC .KHC .KHC .KHC .KHC .KHC .KHC .KHC .KHC .KHC .KHC .KHC .KHC .KHC .KHC .KHC .KHC .KHC .KHC .KHC .KHC .KHC .KHC .KHC .KHC .KHC .KHC .KHC .KHC .KHC .KHC .KHC .KHC .KHC .KHC .KHC .KHC .KHC .KHC C C C C 0JFC 0JFC 0JFC 0JFC 0JFC 0JFC 0JFC 0JFC 0JFC 0JFC 0JFC 0JFC 0JFC 0JFC 0JFC 0JFC 0JFC 0JFC 0JFC 0JFC 0JFC 0JFC 0JFC 0JFC 0JFC 0JFC 0JFC 0JFC 0JFC 0JFC 0JFC 0JFC 0JFC 0JFC 0JFC 0JFC 0JFC 0JFC 0JFC 0JFC 0JFC 0JFC 0JFC 0JFC 0JFC 0JFC 0JFC 0JFC 0JFC 0JFC 0JFC 0JFC 0JFC 0JFC 0JFC 0JFC 0JFC 0JFC 0JFC 0JFC 0JFC 0JFC 0JFC 0JFC 0JFC 0JFC 0JFC 0JFC 0JFC 0JFC 0JFC 0JFC 0JFC 0JFC 0JFC 0JFC 0JFC 0JFC 0JFC 0JFC 0JFC 0JFC 0JFC 0JFC 0JFC 0JFC 0JFC 0JFC 0JFC 0JFC 0JFC 0JFC 0JFC 0JFC 0JFC 0JFC 0JFC 0JFC 0JFC 0JFC 0JFC 0JFC 0JFC 0JFC 0JFC 0JFC 0JFC 0JFC 0JFC 0JFC 0JFC 0JFC 0JFC 0JFC 0JFC 0JFC 0JFC 0JFC 0JFC 0JFC 0JFC 0JFC 0JFC 0JFC 0JFC 0JFC 0JFC 0JFC 0JFC 0JFC 0JFC 0JFC 0JFC 0JFC 0JFC 0JFC 0JFC 0JFC 0JFC 0JFC 0JFC 0JFC 0JFC 0JFC 0JFC 0JFC 0JFC 0JFC 0JFC 0JFC 0JFC 0JFC 0JFC 0JFC 0JFC 0JFC 0JFC 0JFC JFC JFC JFC JFC 2JFC 2JFC 2JFC 2JFC 2JFC 2JFC 2JFC 2JFC 2JFC 2JFC 2JFC 2JFC 2JFC 2JFC 2JFC 2JFC 2JFC 2JFC 2JFC 2JFC 2JFC 2JFC 2JFC 2JFC 2JFC 2JFC 2JFC 2JFC 2JFC 2JFC 2JFC 2JFC 2JFC 2JFC 2JFC 2JFC 2JFC 2JFC 2JFC 2JFC 2JFC 2JFC 2JFC 2JFC 2JFC 2JFC 2JFC 2JFC 2JFC 2JFC 2JFC 2JFC 2JFC 2JFC 2JFC 2JFC 2JFC 2JFC 2JFC 2JFC 2JFC 2JFC 2JFC 2JFC 2JFC 2JFC 2JFC 2JFC 2JFC 2JFC 2JFC 2JFC 2JFC 2JFC 2JFC 2JFC 2JFC 2JFC 2JFC 2JFC 2JFC 2JFC 2JFC 2JFC 2JFC 2JFC 2JFC 2JFC 2JFC 2JFC 2JFC 2JFC 2JFC 2JFC 2JFC 2JFC 2JFC 2JFC 2JFC 2JFC 2JFC 2JFC 2JFC 2JFC 2JFC 2JFC 2JFC 2JFC 2JFC 2JFC 2JFC 2JFC 2JFC 2JFC 2JFC 2JFC 2JFC 2JFC 2JFC 2JFC 2JFC 2JFC 2JFC 2JFC 2JFC 2JFC 2JFC 2JFC 2JFC 2JFC 2JFC 2JFC 2JFC 2JFC 2JFC 2JFC 2JFC 2JFC 2JFC 2JFC 2JFC 2JFC 2JFC 2JFC 2JFC 2JFC 2JFC 2JFC 2JFC 2JFC 2JFC 2JFC 2JFC 2JFC 2JFC 2JFC 2JFC 2JFC C C C C 3HEC 3HEC 3HEC 3HEC 3HEC 3HEC 3HEC 3HEC 3HEC 3HEC 3HEC 3HEC 3HEC 3HEC 3HEC 3HEC 3HEC 3HEC 3HEC 3HEC 3HEC 3HEC 3HEC 3HEC 3HEC 3HEC 3HEC 3HEC 3HEC 3HEC 3HEC 3HEC 3HEC 3HEC 3HEC 3HEC 3HEC 3HEC 3HEC 3HEC 3HEC 3HEC 3HEC 3HEC 3HEC 3HEC 3HEC 3HEC 3HEC 3HEC 3HEC 3HEC 3HEC 3HEC 3HEC 3HEC 3HEC 3HEC 3HEC 3HEC 3HEC 3HEC 3HEC 3HEC 3HEC 3HEC 3HEC 3HEC 3HEC 3HEC 3HEC 3HEC 3HEC 3HEC 3HEC 3HEC 3HEC 3HEC 3HEC 3HEC 3HEC 3HEC 3HEC 3HEC 3HEC 3HEC 3HEC 3HEC 3HEC 3HEC 3HEC 3HEC 3HEC 3HEC 3HEC 3HEC 3HEC 3HEC 3HEC 3HEC 3HEC 3HEC 3HEC 3HEC 3HEC 3HEC 3HEC 3HEC 3HEC 3HEC 3HEC 3HEC 3HEC 3HEC 3HEC 3HEC 3HEC 3HEC 3HEC 3HEC 3HEC 3HEC 3HEC 3HEC 3HEC 3HEC 3HEC 3HEC 3HEC 3HEC 3HEC 3HEC 3HEC 3HEC 3HEC 3HEC 3HEC 3HEC 3HEC 3HEC 3HEC 3HEC 3HEC 3HEC 3HEC 3HEC 3HEC 3HEC 3HEC 3HEC 3HEC 3HEC 3HEC 3HEC 3HEC 3HEC 3HEC 3HEC HEC HEC HEC HEC 0HEC 0HEC 0HEC 0HEC 0HEC 0HEC 0HEC 0HEC 0HEC 0HEC 0HEC 0HEC 0HEC 0HEC 0HEC 0HEC 0HEC 0HEC 0HEC 0HEC 0HEC 0HEC 0HEC 0HEC 0HEC 0HEC 0HEC 0HEC 0HEC 0HEC 0HEC 0HEC 0HEC 0HEC 0HEC 0HEC 0HEC 0HEC 0HEC 0HEC 0HEC 0HEC 0HEC 0HEC 0HEC 0HEC 0HEC 0HEC 0HEC 0HEC 0HEC 0HEC 0HEC 0HEC 0HEC 0HEC 0HEC 0HEC 0HEC 0HEC 0HEC 0HEC 0HEC 0HEC 0HEC 0HEC 0HEC 0HEC 0HEC 0HEC 0HEC 0HEC 0HEC 0HEC 0HEC 0HEC 0HEC 0HEC 0HEC 0HEC 0HEC 0HEC 0HEC 0HEC 0HEC 0HEC 0HEC 0HEC 0HEC 0HEC 0HEC 0HEC 0HEC 0HEC 0HEC 0HEC 0HEC 0HEC 0HEC 0HEC 0HEC 0HEC 0HEC 0HEC 0HEC 0HEC 0HEC 0HEC 0HEC 0HEC 0HEC 0HEC 0HEC 0HEC 0HEC 0HEC 0HEC 0HEC 0HEC 0HEC 0HEC 0HEC 0HEC 0HEC 0HEC 0HEC 0HEC 0HEC 0HEC 0HEC 0HEC 0HEC 0HEC 0HEC 0HEC 0HEC 0HEC 0HEC 0HEC 0HEC 0HEC 0HEC 0HEC 0HEC 0HEC 0HEC 0HEC 0HEC 0HEC 0HEC 0HEC 0HEC 0HEC 0HEC 0HEC 0HEC 0HEC 0HEC C C   2B 2B 2B 2B 2B 2B 2B 2B 2B 2B 2B 2B 2B 2B 2B 2B 2B 2B 2B 2B 2B 2B 2B 2B 2B 2B 2B 2B 2B 2B 2B 2B 2B 2B 2B 2B 2B 2B 2B 2B 2B 2B 2B 2B 2B 2B 2B 2B 2B 2B 2B 2B 2B 2B 2B 2B 2B 2B 2B 2B 2B 2B 2B 2B 2B 2B 2B 2B 2B 2B 2B 2B 2B 2B 2B 2B 2B 2B 2B 2B 2B 2B 2B 2B 2BE 2BE 2BE 2BE 2BE 2BE 2BE 2BE 2BE 2BE 2BE 2BE 2BE 2BE 2BE 2BE 2BE 2BE 2BE 2BE 2BE 2BE 2BE 2BE 2BE 2BE 2BE 2BE 2BE 2BE 2BE 2BE 2BE 2BE 2BE 2BE 2BE 2BE 2BE 2BE 2BE 2BE 2BE 2BE 2BE 2BE 2BE 2BE 2BE 2BE 2BE 2BE 2BE 2BE 2BE 2BE 2BE 2BE 2BE 2BE 2BE 2BE 2BE 2BE 2BE 2BE 2BE 2BE 2BE 2BE 2BE 2BE 2BE 2BE 2BE 2BE 2BE 2BE 2BE 2BE 2BE BE BE BE 4HBE 4HBE 4HBE 4HBE 4HBE 4HBE 4HBE 4HBE 4HBE 4HBE 4HBE 4HBE 4HBE 4HBE 4HBE 4HBE 4HBE 4HBE 4HBE 4HBE 4HBE 4HBE 4HBE 4HBE 4HBE 4HBE 4HBE 4HBE 4HBE 4HBE 4HBE 4HBE 4HBE 4HBE 4HBE 4HBE 4HBE 4HBE 4HBE 4HBE 4HBE 4HBE 4HBE 4HBE 4HBE 4HBE 4HBE 4HBE 4HBE 4HBE 4HBE 4HBE 4HBE 4HBE 4HBE 4HBE 4HBE 4HBE 4HBE 4HBE 4HBE 4HBE 4HBE 4HBE 4HBE 4HBE 4HBE 4HBE 4HBE 4HBE 4HBE 4HBE 4HBE 4HBE 4HBE 4HBE 4HBE 4HBE 4HBE 4HBE 4HBE 4HBE 4HBE 4HBE 4HBE 4HBE 4HBE 4HBE 4HBE 4HBE 4HBE 4HBE 4HBE 4HBE 4HBE 4HBE 4HBE 4HBE 4HBE 4HBE 4HBE 4HBE 4HBE 4HBE 4HBE 4HBE 4HBE 4HBE 4HBE 4HBE 4HBE 4HBE 4HBE 4HBE 4HBE 4HBE 4HBE 4HBE 4HBE 4HBE 4HBE 4HBE 4HBE 4HBE 4HBE 4HBE 4HBE 4HBE 4HBE 4HBE 4HBE 4HBE 4HBE 4HBE 4HBE 4HBE 4HBE 4HBE 4HBE 4HBE 4HBE 4HBE 4HBE 4HBE 4HBE 4HBE 4HBE 4HBE 4HBE 4HBE 4HBE 4HBE 4HBE 4HBE 4HBE 4HBE 4HBE 4HBE 4HBE 4HBE 4HBE 4HBE 4HBE 4HBE 4HBE HBE HBE HBE HBE H6BE H6BE H6BE H6BE H6BE H6BE H6BE H6BE H6BE H6BE H6BE H6BE H6BE H6BE H6BE H6BE H6BE H6BE H6BE H6BE H6BE H6BE H6BE H6BE H6BE H6BE H6BE H6BE H6BE H6BE H6BE H6BE H6BE H6BE H6BE H6BE H6BE H6BE H6BE H6BE H6BE H6BE H6BE H6BE H6BE H6BE H6BE H6BE H6BE H6BE H6BE H6BE H6BE H6BE H6BE H6BE H6BE H6BE H6BE H6BE H6BE H6BE H6BE H6BE H6BE H6BE H6BE H6BE H6BE H6BE H6BE H6BE H6BE H6BE H6BE H6BE H6BE H6BE H6BE H6BE H6BE H6BE H6BE H6BE H6BE H6BE H6BE H6BE H6BE H6BE H6BE H6BE H6BE H6BE H6BE H6BE H6BE H6BE H6BE H6BE H6BE H6BE H6BE H6BE H6BE H6BE H6BE H6BE H6BE H6BE H6BE H6BE H6BE H6BE H6BE H6BE H6BE H6BE H6BE H6BE H6BE H6BE H6BE H6BE H6BE H6BE H6BE H6BE H6BE H6BE H6BE H6BE H6BE H6BE H6BE H6BE H6BE H6BE H6BE H6BE H6BE H6BE H6BE H6BE H6BE H6BE H6BE H6BE H6BE H6BE H6BE H6BE H6BE H6BE H6BE H6BE H6BE H6BE H6BE H6BE H6BE H6BE H6BE H6BE 6BE E E E EJ2 EJ2 EJ2 EJ2 EJ2 EJ2 EJ2 EJ2 EJ2 EJ2 EJ2 EJ2 EJ2 EJ2 EJ2 EJ2 EJ2 EJ2 EJ2 EJ2 EJ2 EJ2 EJ2 EJ2 EJ2 EJ2 EJ2 EJ2 EJ2 EJ2 EJ2 EJ2 EJ2 EJ2 EJ2 EJ2 EJ2 EJ2 EJ2 EJ2 EJ2 EJ2 EJ2 EJ2 EJ2 EJ2 EJ2 EJ2 EJ2 EJ2 EJ2 EJ2 EJ2 EJ2 EJ2 EJ2 EJ2 EJ2 EJ2 EJ2 EJ2 EJ2 EJ2 EJ2 EJ2 EJ2 EJ2 EJ2 EJ2 EJ2 EJ2 EJ2 EJ2 EJ2 EJ2 EJ2 EJ2 EJ2 EJ2 EJ2 EJ2 EJ2 EJ2 EJ2 EJ2 EJ2 EJ2 EJ2 EJ2 EJ2 EJ2 EJ2 EJ2 EJ2 EJ2 EJ2 EJ2 EJ2 EJ2 EJ2 EJ2 EJ2 EJ2 EJ2 EJ2 EJ2 EJ2 EJ2 EJ2 EJ2 EJ2 EJ2 EJ2 EJ2 EJ2 EJ2 EJ2 EJ2 EJ2 EJ2 EJ2 EJ2 EJ2 EJ2 EJ2 EJ2 EJ2 EJ2 EJ2 EJ2 EJ2 EJ2 EJ2 EJ2 EJ2 EJ2 EJ2 EJ2 EJ2 EJ2 EJ2 EJ2 EJ2 EJ2 EJ2 EJ2 EJ2 EJ2 EJ2 EJ2 EJ2 EJ2 EJ2 EJ2 EJ2 EJ2 EJ2 EJ2 J2 J2 J2 J2 J2 J2 J2     7CF> 7CF> 7CF> 7CF> 7CF> 7CF> 7CF> 7CF> 7CF> 7CF> 7CF> 7CF> 7CF> 7CF> 7CF> 7CF> 7CF> 7CF> 7CF> 7CF> 7CF> 7CF> 7CF> 7CF> 7CF> 7CF> 7CF> 7CF> 7CF> 7CF> 7CF> 7CF> 7CF> 7CF> 7CF> 7CF> 7CF> 7CF> 7CF> 7CF> 7CF> 7CF> 7CF> 7CF> 7CF> 7CF> 7CF> 7CF> 7CF> 7CF> 7CF> 7CF> 7CF> 7CF> 7CF> 7CF> 7CF> 7CF> 7CF> 7CF> 7CF> 7CF> 7CF> 7CF> 7CF> 7CF> 7CF> 7CF> 7CF> 7CF> 7CF> 7CF> 7CF> 7CF> 7CF> 7CF> 7CF> 7CF> 7CF> 7CF> 7CF> 7CF> 7CF> 7CF> 7CF> 7CF> 7CF> 7CF> 7CF> 7CF> 7CF> 7CF> 7CF> 7CF> 7CF> 7CF> 7CF> 7CF> 7CF> 7CF> 7CF> 7CF> 7CF> 7CF> 7CF> 7CF> 7CF> 7CF> 7CF> 7CF> 7CF> 7CF> 7CF> 7CF> 7CF> 7CF> 7CF> 7CF> 7CF> 7CF> 7CF> 7CF> 7CF> 7CF> 7CF> 7CF> 7CF> 7CF> 7CF> 7CF> 7CF> 7CF> 7CF> 7CF> 7CF> 7CF> 7CF> 7CF> 7CF> 7CF> 7CF> 7CF> 7CF> 7CF> 7CF> 7CF> 7CF> 7CF> 7CF> 7CF> 7CF> 7CF> 7CF> 7CF> 7CF> 7CF> 7CF> 7CF> 7CF> 7CF> 7CF> 7CF> 7CF> 7CF> 7CF> 7CF> 7CF> 7CF> 7CF> 7CF> 7CF> 7CF> 7CF> 7CF> 7CF> 7CF> 7CF> 7CF> 7CF> 7CF> 7CF> 7CF> 7CF> 7CF> 7CF> 7CF> 7CF> 7CF> 7CF> 7CF> 7CF> 7CF> 7CF> 7CF> 7CF> 7CF> 7CF> 7CF> 7CF> 7CF> 7CF> 7CF> 7CF> 7CF> 7CF> 7CF> 7CF> 7CF> 7CF> 7CF> 7CF> 7CF> 7CF> 7CF> 7CF> 7CF> 7CF> 7CF> 7CF> 7CF> 7CF> 7CF> 7CF> 7CF> 7CF> 7CF> 7CF> 7CF> 7CF> 7CF> 7CF> 7CF> 7CF> 7CF> 7CF> 7CF> 7CF> 7CF> 7CF> 7CF> 7CF> 7CF> 7CF> 7CF> 7CF> 7CF> 7CF> 7CF> 7CF> 7CF> 7CF> 7CF> 7CF> 7CF> 7CF> 7CF> 7CF> 7CF> 7CF> 7CF> 7CF> 7CF> 7CF> 7CF> 7CF> 7CF> 7CF> 7CF> 7CF> 7CF> 7CF> 7CF> 7CF> 7CF> 7CF> 7CF> 7CF> 7CF> 7CF> 7CF> 7CF> 7CF> 7CF> 7CF> 7CF> 7CF> 7CF> 7CF> 7CF> 7CF> 7CF> 7CF> 7CF> 7CF> 7CF> 7CF> 7CF> 7CF> 7CF> 7CF> 7CF> 7CF> 7CF> 7CF> 7CF> 7CF> 7CF> 7CF> 7CF> 7CF> 7CF> 7CF> 7CF> 7CF> 7CF> 7CF> 7CF> 7CF> 7CF> 7CF> 7CF> 7CF> 7CF> 7CF> 7CF> 7CF> 7CF> 7CF> 7CF> 7CF> 7CF> 7CF> 7CF> 7CF> 7CF> 7CF> 7CF> 7CF> 7CF> 7CF> 7CF> 7CF> 7CF> 7CF> 7CF> 7CF> 7CF> 7CF> 7CF> 7CF> 7CF> 7CF> 7CF> 7CF> 7CF> 7CF> 7CF> 7CF> 7CF> 7CF> 7CF> CF> CF> CF> CF>0 CF>0 CF>0 CF>0 CF>0 CF>0 CF>0 CF>0 CF>0 CF>0 CF>0 CF>0 CF>0 CF>0 CF>0 CF>0 CF>0 CF>0 CF>0 CF>0 CF>0 CF>0 CF>0 CF>0 CF>0 CF>0 CF>0 CF>0 CF>0 CF>0 CF>0 CF>0 CF>0 CF>0 CF>0 CF>0 CF>0 CF>0 CF>0 CF>0 CF>0 CF>0 CF>0 CF>0 CF>0 CF>0 CF>0 CF>0 CF>0 CF>0 CF>0 CF>0 CF>0 CF>0 CF>0 CF>0 CF>0 CF>0 CF>0 CF>0 CF>0 CF>0 CF>0 CF>0 CF>0 CF>0 CF>0 CF>0 CF>0 CF>0 CF>0 CF>0 CF>0 CF>0 CF>0 CF>0 CF>0 CF>0 CF>0 CF>0 CF>0 CF>0 CF>0 CF>0 CF>0 CF>0 CF>0 CF>0 CF>0 CF>0 CF>0 CF>0 CF>0 CF>0 CF>0 CF>0 CF>0 CF>0 CF>0 CF>0 CF>0 CF>0 CF>0 CF>0 CF>0 CF>0 CF>0 CF>0 CF>0 CF>0 CF>0 CF>0 CF>0 CF>0 CF>0 CF>0 CF>0 CF>0 CF>0 CF>0 CF>0 CF>0 CF>0 CF>0 CF>0 CF>0 CF>0 CF>0 CF>0 CF>0 CF>0 CF>0 CF>0 CF>0 CF>0 CF>0 CF>0 CF>0 CF>0 CF>0 CF>0 CF>0 CF>0 CF>0 CF>0 CF>0 CF>0 CF>0 CF>0 CF>0 CF>0 CF>0 CF>0 CF>0 CF>0 CF>0 CF>0 CF>0 CF>0 CF>0 CF>0 CF>0 CF>0 CF>0 CF>0 CF>0 CF>0 CF>0 CF>0 CF>0 CF>0 CF>0 CF>0 CF>0 CF>0 CF>0 CF>0 CF>0 0 0 0 0 0E 0E 0E 0E 0E 0E 0E 0E 0E 0E 0E 0E 0E 0E 0E 0E 0E 0E 0E 0E 0E 0E 0E 0E 0E 0E 0E 0E 0E 0E 0E 0E 0E 0E 0E 0E 0E 0E 0E 0E 0E 0E 0E 0E 0E 0E 0E 0E 0E 0E 0E 0E 0E 0E 0E 0E 0E 0E 0E 0E 0E 0E 0E 0E 0E 0E 0E 0E 0E 0E 0E 0E 0E 0E 0E 0E 0E 0E 0E 0E 0E 0E 0E 0E 0E 0E 0E 0E 0E 0E 0E 0E 0E 0E 0E 0E 0E 0E 0E 0E 0E 0E 0E 0E 0E 0E 0E 0E 0E 0E 0E 0E 0E 0E 0E 0E 0E 0E 0E 0E 0E 0E 0E 0E 0E 0E 0E 0E 0E 0E 0E 0E 0E 0E 0E 0E 0E 0E 0E 0E 0E 0E 0E 0E 0E 0E 0E 0E 0E 0E 0E 0E 0E 0E 0E 0E 0E 0E 0E 0E 0E 0E 0E 0E 0E 0E 0E 0E 0E 0E 0E 0E 0E 0E 0E 0E 0E E    F2B F2B F2B F2B F2B F2B F2B F2B F2B F2B F2B F2B F2B F2B F2B F2B F2B F2B F2B F2B F2B F2B F2B F2B F2B F2B F2B F2B F2B F2B F2B F2B F2B F2B F2B F2B F2B F2B F2B F2B F2B F2B F2B F2B F2B F2B F2B F2B F2B F2B F2B F2B F2B F2B F2B F2B F2B F2B F2B F2B F2B F2B F2B F2B F2B F2B F2B F2B F2B F2B F2B F2B F2B F2B F2B F2B F2B F2B F2B F2B F2B F2B F2B F2B F2B F2B F2B F2B F2B F2B F2B F2B F2B F2B F2B F2B F2B F2B F2B F2B F2B F2B F2B F2B F2B 2B 2B 2B 2B 2B E2B E2B E2B E2B E2B E2B E2B E2B E2B E2B E2B E2B E2B E2B E2B E2B E2B E2B E2B E2B E2B E2B E2B E2B E2B E2B E2B E2B E2B E2B E2B E2B E2B E2B E2B E2B E2B E2B E2B E2B E2B E2B E2B E2B E2B E2B E2B E2B E2B E2B E2B E2B E2B E2B E2B E2B E2B E2B E2B E2B E2B E2B E2B E2B E2B E2B E2B E2B E2B E2B E2B E2B E2B E2B E2B E2B E2B E2B E2B E2B E2B E2B E2B E2B E2B E2B E2B E2B E2B E2B E2B E2B E2B E2B E2B E2B E2B E2B E2B E2B E2B E2B E2B E2B E2B 2B 2B 2B 2B 2B F2B F2B F2B F2B F2B F2B F2B F2B F2B F2B F2B F2B F2B F2B F2B F2B F2B F2B F2B F2B F2B F2B F2B F2B F2B F2B F2B F2B F2B F2B F2B F2B F2B F2B F2B F2B F2B F2B F2B F2B F2B F2B F2B F2B F2B F2B F2B F2B F2B F2B F2B F2B F2B F2B F2B F2B F2B F2B F2B F2B F2B F2B F2B F2B F2B F2B F2B F2B F2B F2B F2B F2B F2B F2B F2B F2B F2B F2B F2B F2B F2B F2B F2B F2B F2B F2B F2B F2B F2B F2B F2B F2B F2B F2B F2B F2B F2B F2B F2B F2B F2B F2B F2B F2B F2B 2B 2B 2B 2B 2B 2B 2EB 2EB 2EB 2EB 2EB 2EB 2EB 2EB 2EB 2EB 2EB 2EB 2EB 2EB 2EB 2EB 2EB 2EB 2EB 2EB 2EB 2EB 2EB 2EB 2EB 2EB 2EB 2EB 2EB 2EB 2EB 2EB 2EB 2EB 2EB 2EB 2EB 2EB 2EB 2EB 2EB 2EB 2EB 2EB 2EB 2EB 2EB 2EB 2EB 2EB 2EB 2EB 2EB 2EB 2EB 2EB 2EB 2EB 2EB 2EB 2EB 2EB 2EB 2EB 2EB 2EB 2EB 2EB 2EB 2EB 2EB 2EB 2EB 2EB 2EB 2EB 2EB 2EB 2EB 2EB 2EB 2EB 2EB 2EB 2EB 2EB 2EB 2EB 2EB 2EB 2EB 2EB 2EB 2EB 2EB 2EB 2EB 2EB 2EB 2EB 2EB 2EB 2EB 2EB EB B B B B B FB& FB& FB& FB& FB& FB& FB& FB& FB& FB& FB& FB& FB& FB& FB& FB& FB& FB& FB& FB& FB& FB& FB& FB& FB& FB& FB& FB& FB& FB& FB& FB& FB& FB& FB& FB& FB& FB& FB& FB& FB& FB& FB& FB& FB& FB& FB& FB& FB& FB& FB& FB& FB& FB& FB& FB& FB& FB& FB& FB& FB& FB& FB& FB& FB& FB& FB& FB& FB& FB& FB& FB& FB& FB& FB& FB& FB& FB& FB& FB& FB& FB& FB& FB& FB& FB& FB& FB& FB& FB& FB& FB& FB& FB& FB& FB& FB& FB& FB& FB& FB& FB& FB& FB& FB& B& B& B& B& B& BE& BE& BE& BE& BE& BE& BE& BE& BE& BE& BE& BE& BE& BE& BE& BE& BE& BE& BE& BE& BE& BE& BE& BE& BE& BE& BE& BE& BE& BE& BE& BE& BE& BE& BE& BE& BE& BE& BE& BE& BE& BE& BE& BE& BE& BE& BE& BE& BE& BE& BE& BE& BE& BE& BE& BE& BE& BE& BE& BE& BE& BE& BE& BE& BE& BE& BE& BE& BE& BE& BE& BE& BE& BE& BE& BE& BE& BE& BE& BE& BE& BE& BE& BE& BE& BE& BE& BE& BE& BE& BE& BE& E& E& E& E& E& E& E& E& E& E& E& E& E& E& & & & & & & C& C& C& C& C& C& C& C& C& C& C& C& C& C& C& C& C& C& C& C& C& C& C& C& C& C& C& C& C& C& C& C& C& C& C& C& C& C& C& C& C& C& C& C& C& C& C& C& C& C& C& C& C& C& C& C& C& C& C& C& C& C& C& C& C& C& C& C& C& C& C& C& C& C& C& C& C& C& C& C& C& C& C& C& C& C& C& C& C& C& C& C& C& C& C& C& C& C& C& C& C& C& C& C& C& C& C& C& C& C& C& C& C& C& C& C& C& C& C& C& C& C& C& C& C& C& C& C& C& C& C& C& C& C& C& C& C& C& C& C& C& C& C& C& C& C& C& C& C& C& C& C& C& C& C& C& C& C& C& C& C& C& C& C& C& C& C& C& C& C& C& C& C& C& C& C& C& C& C& C& C& C& C& C& C& C& C& C& C& C& C& C& C& C& C& C& C& C& C& C& C& C& C& C& C& C& C& C& C& C& C& C& C& C& C& C& C&                      +C +C +C +C +C +C +C +C +C +C +C +C +C +C +C +C +C +C +C +C +C +C +C +C +C +C +C +C +C +C +C +C +C +C +C +C +C +C +C +C +C +C +C +C +C +C +C +C +C +C +C +C +C +C +C +C +C +C +C +C +C +C +C +C +C +C +C +C +C +C +C +C +C +C +C +C +C +C +C +C +C +C +C +C +C +C +C +C +C +C +C +C +C +C +C +C +C +C +C +C +C +C +C +C +C +C +C +C +C +C +C +C +C +C +C +C +C +C +C +C +C +C +C +C +C +C +C +C +C +C +C +C +C +C +C +C +C +C +C +C +C +C +C +C +C +C +C +C +C +C +C +C +C +C +C +C +C +C +C +C +C +C +C +C +C +C +C +C +C +C +C +C +C +C +C +C +C +C +C +C +C +C +C +C +C +C +C +C +C +C +C +C +C +C +C +C +C +C +C +C +C +C +C +C +C +C +C +C +C +C +C +C +C +C +C +C +C +C +C +C +C +C +C +C +C +C +C +C +C +C +C +C +C +C +C +C +C +C +C +C +C +C +C +C +C +C +C +C +C +C +C +C +C +C +C +C +C +C +C +C +C +C +C +C +C +C +C +C +C +C +C +C +C +C +C +C +C +C +C +C +C +C +C +C +C +C +C +C +C +C +C +C +C +C +C +C +C +C +C +C +C +C +C +C +C +C +C +C +C +C +C +C +C +C +C +C +C +C +C +C +C +C +C +C +C +C +C +C +C +C +C +C +C +C +C +C +C +C +C +C +C +C +C +C +C +C +C +C +C +C +C +C +C +C +C +C +C +C +C +C +C +C +C +C +C +C +C +C +C +C +C +C +C +C +C +C +C +C +C +C +C +C +C +C +C +C +C +C +C +C +C +C +C +C +C +C +C +C +C +C +C +C +C +C +C +C +C +C +C +C +C +C +C +C +C +C +C +C +C +C +C +C +C +C +C +C +C +C +C +C +C +C +C +C +C +C +C +C +C +C +C +C +C +C +C +C +C +C +C +C +C +C +C +C +C +C +C +C +C +C +C +C +C +C +C +C +C +C +C +C +C +C +C +C +C +C +C +C +C +C +C +C +C +C +C +C +C +C +C +C +C +C +C +C +C +C +C +C +C +C +C +C +C +C +C +C +C +C +C +C +C +C +C +C +C +C +C +C +C +C +C +C +C +C +C +C +C +C +C +C +C +C +C +C +C +C +C +C +C +C +C +C +C +C +C +C +C +C +C +C +C +C +C +C +C +C +C +C +C +C +C +C +C +C +C +C +C +C +C +C +C +C +C +C +C +C +C +C +C +C +C +C +C +C +C +C +C +C +C +C +C +C +C +C +C +C +C +C +C +C +C +C +C +C +C +C +C +C +C +C +C +C +C +C +C +C +C +C +C +C +C +C +C +C +C +C +C +C +C +C +C +C +C +C +C +C +C +C +C +C +C +C +C +C +C +C +C +C +C +C +C +C +C +C +C +C +C +C +C +C +C +C +C +C +C +C +C +C +C +C +C +C +C +C +C +C +C +C +C +C +C +C +C +C +C +C +C +C +C +C +C +C +C +C +C +C +C +C +C +C +C +C +C +C +C +C +C +C +C +C +C +C +C +C +C +C +C +C +C +C +C +C +C +C +C +C +C +C +C +C +C +C +C +C +C +C +C +C +C +C +C +C +C +C +C +C +C +C +C +C +C +C +C +C +C +C +C +C +C +C +C +C +C +C +C +C +C +C +C +C +C +C +C +C +C +C +C +C +C +C +C +C +C +C +C +C +C +C +C +C +C +C +C +C +C +C +C +C +C +C +C +C +C +C +C +C +C +C +C +C +C +C +C +C +C +C +C +C +C +C +C +C +C +C +C +C +C +C +C +C +C +C +C +C +C +C +C +C +C +C +C +C +C +C +C +C +C +C +C +C +C +C +C +C +C +C +C +C +C +C +C +C +C +C +C +C +C +C +C +C +C +C +C +C +C +C +C +C +C +C +C +C +C +C +C +C +C +C +C +C +C +C +C +C +C +C +C +C +C +C +C +C +C +C +C +C +C +C +C +C +C +C +C +C +C +C +C +C +C +C +C +C +C +C +C +C +C +C +C +C +C +C +C +C +C +C +C +C +C +C +C +C +C +C +C +C +C +C +C +C +C +C +C +C +C +C +C +C +C +C +C +C +C +C +C +C +C +C +C +C +C +C +C +C +C +C +C +C +C +C +C +C +C +C +C +C +C +C +C +C +C +C +C +C +C +C +C +C +C +C +C +C +C +C +C +C +C +C +C +C +C +C +C +C +C +C +C +C +C +C +C +C +C +C +C +C +C +C +C +C +C +C +C +C +C +C +C +C +C +C +C +C +C +C +C +C +C +C +C +C +C +C +C +C +C +C +C +C +C +C +C +C +C +C +C +C +C +C +C +C +C +C +C +C +C +C +C +C +C +C +C +C +C +C +C +C +C +C +C +C +C +C +C +C +C +C +C +C +C +C +C +C +C +C +C +C +C +C +C +C +C +C +C +C +C +C +C +C +C +C +C +C +C +C +C +C +C +C +C +C +C +C +C +C +C +C +C +C +C +C +C +C +C +C +C +C +C +C +C +C +C +C +C +C +C +C +C +C +C +C +C +C +C +C +C +C +C +C +C +C +C +C +C +C +C +C +C +C +C +C +C +C +C +C +C +C +C +C +C +C +C +C +C +C +C +C +C +C +C +C +C +C +C +C +C +C +C +C +C +C +C +C +C +C +C +C +C +C +C +C +C +C +C +C +C +C +C +C +C +C +C +C +C +C +C +C +C +C +C +C +C +C +C +C +C +C +C +C +C +C +C +C +C +C +C +C +C +C +C +C +C +C +C +C +C +C +C +C +C +C +C +C +C +C +C +C +C +C +C +C +C +C +C +C +C +C +C +C +C +C +C +C +C +C +C +C +C +C +C +C +C +C +C +C +C +C +C +C +C +C +C +C +C +C +C +C +C +C +C +C +C +C +C +C +C +C +C +C +C +C +C +C +C +C +C +C +C +C +C +C +C +C +C +C +C +C +C +C +C +C +C +C +C +C +C +C +C +C +C +C +C +C +C +C +C +C +C +C +C +C +C +C +C +C +C +C +C +C +C +C +C +C +C +C +C +C +C +C +C +C +C +C +C +C +C +C +C +C +C +C +C +C +C +C +C +C +C +C +C +C +C +C +C +C +C +C +C +C +C +C +C +C +C +C +C +C +C +C +C +C +C +C +C +C +C +C +C +C +C +C +C +C +C +C +C +C +C +C +C +C +C +C +C +C +C +C +C +C +C +C +C +C +C +C +C +C +C +C +C +C +C +C +C +C +C +C +C +C +C +C +C +C +C +C +C +C +C +C +C +C +C +C +C +C +C +C +C +C +C +C +C +C +C +C +C +C +C +C +C +C +C +C +C +C +C +C +C +C +C +C +C +C +C +C +C +C +C +C +C +C +C +C +C +C +C +C +C +C +C +C +C +C +C +C +C +C +C +C +C +C +C +C +C +C +C +C +C +C +C +C +C +C +C +C +C +C +C +C +C +C +C +C +C +C +C +C +C +C +C +C +C +C +C +C +C +C +C +C +C +C +C +C +C +C +C +C +C +C +C +C +C +C +C +C +C +C +C +C +C +C +C +C +C +C +C +C +C +C +C +C +C +C +C +C +C +C +C +C +C +C +C +C +C +C +C +C +C +C +C +C +C +C +C +C +C +C +C +C +C +C +C +C +C +C +C +C +C +C +C +C +C +C +C +C +C +C +C +C +C +C +C +C +C +C +C +C +C +C +C +C +C +C +C +C +C +C +C +C +C +C +C +C +C +C +C +C +C +C +C +C +C +C +C +C +C +C +C +C +C +C +C +C +C +C +C +C +C +C +C +C +C +C +C +C +C +C +C +C +C +C +C +C +C +C +C +C +C +C +C +C +C +C +C +C +C +C +C +C +C +C +C +C +C +C +C +C +C +C +C +C +C +C +C +C +C +C +C +C +C +C +C +C +C +C +C +C +C +C +C +C +C +C +C +C +C +C +C +C +C +C +C +C +C +C +C +C +C +C +C +C +C +C +C +C +C +C +C +C +C +C +C +C +C +C +C +C +C +C +C +C +C +C +C +C +C +C +C +C +C +C +C +C +C +C +C +C +C +C +C +C +C +C +C +C +C +C +C +C +C +C +C +C +C +C +C +C +C +C +C +C +C +C +C +C +C +C +C +C +C +C +C +C +C +C +C +C +C +C +C +C +C +C +C +C +C +C +C +C +C +C +C +C +C +C +C +C +C +C +C +C +C +C +C +C +C +C +C +C +C +C +C +C +C +C +C +C +C +C +C +C +C +C +C +C +C +C +C +C +C +C +C +C +C +C +C +C +C +C +C +C +C +C +C +C +C +C +C +C +C +C +C +C +C +C +C +C +C +C +C +C +C +C +C +C +C +C +C +C +C +C +C +C +C +C +C +C +C +C +C +C +C +C +C +C +C +C +C +C +C +C +C +C +C +C +C +C +C +C +C +C +C +C +C +C +C +C +C +C +C +C +C +C +C +C +C +C +C +C +C +C +C +C +C +C +C +C +C +C +C +C +C +C +C +C +C +C +C +C +C +C +C +C +C +C +C +C +C +C +C +C +C +C +C +C +C +C +C +C +C +C +C +C +C +C +C +C +C +C +C +C +C +C +C +C +C +C +C +C +C +C +C +C +C +C +C +C +C +C +C +C +C +C +C +C +C +C +C +C +C +C +C +C +C +C +C +C +C +C +C +C +C +C +C +C +C +C +C +C +C +C +C +C +C +C +C +C +C +C +C +C +C +C +C +C +C +C +C +C +C +C +C +C +C +C +C +C +C +C +C +C +C +C +C +C +C +C +C +C +C +C +C +C +C +C +C +C +C +C +C +C +C +C +C +C +C +C +C +C +C +C +C +C +C +C +C +C +C +C +C +C +C +C +C +C +C +C +C +C +C +C +C +C +C +C +C +C +C +C +C +C +C +C +C +C +C +C +C +C +C +C +C +C +C +C +C +C +C +C +C +C +C +C +C +C +C +C +C +C +C +C +C +C +C +C +C +C +C +C +C +C +C +C +C +C +C +C +C +C +C +C +C +C +C +C +C +C +C +C +C +C +C +C +C +C +C +C +C +C +C +C +C +C +C +C +C +C +C +C +C +C +C +C +C +C +C +C +C +C +C +C +C +C +C +C +C +C +C +C +C +C +C +C +C +C +C +C +C +C +C +C +C +C +C +C +C +C +C +C +C +C +C +C +C +C +C +C +C +C +C +C +C +C +C +C +C +C +C +C +C +C +C +C +C +C +C +C +C +C +C +C +C +C +C +C +C +C +C +C +C +C +C +C +C +C +C +C +C +C +C +C +C +C +C +C +C +C +C +C +C +C +C +C +C +C +C +C +C +C +C +C +C +C +C +C +C +C +C +C +C +C +C +C +C +C +C +C +C +C +C +C +C +C +C +C +C +C +C +C +C +C +C +C +C +C +C +C +C +C +C +C +C +C +C +C +C +C +C +C +C +C +C +C +C +C +C +C +C +C +C +C +C +C +C +C +C +C +C +C +C +C +C +C +C +C +C +C +C +C +C +C +C +C +C +C +C +C +C +C +C +C +C +C +C +C +C +C +C +C +C +C                                                                                                                                                                                                                                                                                                                                                                                                                                                                                                                                                                                                                                                                                                                                                                                                                                                                                                                                                                                                                                                                                                                                                                                                                                                                                                                                                                                                                                                                                                                                                                                                                                                                                                                                                                                                                                                                                                                                                                                                            F F F F F F F F F F F F F F F F F F F F F F F F F F F F F F F F F F F F F F F F F F F F F F F F F F F F F F F F F F F F F F F F F F F F F F F F F F F F F F F F F F F F F F F F F F F F F F F F F F F F F F F F F F F F F F F F F F F F F F F F F F F F F F F F F F F F F F F F F F F F F F F F F F F F F F F F F F F F F F F F F F F F F F F F F F F F F F F F F F F F F F F F F F F F F F F F F F F F F F F F F F F F F F F F F F F F F F F F F F F F F F F F F F F F F F F F F F F F F F F F F F F F F F F F F F F F F F F F F F F F F F F F F F F F F F F F F F F F F F F F F F F F F F F F F F F F F F F F F F F F                               CF CF CF CF CF CF CF CF CF CF CF CF CF CF CF CF CF CF CF CF CF CF CF CF CF CF CF CF CF CF CF CF CF CF CF CF CF CF CF CF CF CF CF CF CF CF CF CF CF CF CF CF CF CF CF CF CF CF CF CF CF CF CF CF CF CF CF CF CF CF CF CF CF CF CF CF CF CF CF CF CF CF CF CF CF CF CF CF CF CF CF CF CF CF CF CF CF CF CF CF CF CF CF CF CF CF CF CF CF CF CF CF CF CF CF CF CF CF CF CF CF CF CF CF CF CF CF CF CF CF CF CF CF CF CF CF CF CF CF CF CF CF CF CF CF CF CF CF CF CF CF CF CF CF CF CF CF CF CF CF CF CF CF CF CF CF CF CF CF CF CF CF CF CF CF CF CF CF CF CF CF CF CF CF CF CF CF CF CF CF CF CF CF CF CF CF CF CF CF CF CF CF CF CF CF CF CF CF CF CF CF CF +CF +CF +CF +CF +CF +CF +CF +CF +CF +CF +CF +CF +CF +CF +CF +CF +CF +CF +CF +CF +CF +CF +CF +CF +CF +CF +CF +CF +CF +CF +CF +CF +CF +CF +CF +CF +CF +CF +CF +CF +CF +CF +CF +CF +CF +CF +CF +CF +CF +CF +CF +CF +CF +CF +CF +CF +CF +CF +CF +CF +CF +CF +CF +CF +CF +CF +CF +CF +CF +CF +CF +CF +CF +CF +CF +CF +CF +CF +CF +CF +CF +CF +CF +CF +CF +CF +CF +CF +CF +CF +CF +CF +CF +CF +CF +CF +CF +CF +CF +CF +CF +CF +CF +CF +CF +CF +CF +CF +CF +CF +CF +CF +CF +CF +CF +CF +CF +CF +CF +CF +CF +CF +CF +CF +CF +CF +CF +CF +CF +CF +CF +CF +CF +CF +CF +CF +CF +CF +CF +CF +CF +CF +CF +CF +CF +CF +CF +CF +CF +CF +CF +CF +CF +CF +CF +CF +CF +CF +CF +CF +CF +CF +CF +CF +CF +CF +CF +CF +CF +CF +CF +CF +CF +CF +CF +CF +CF +CF +CF +CF +CF CF CF CF .CF .CF .CF .CF .CF .CF .CF .CF .CF .CF .CF .CF .CF .CF .CF .CF .CF .CF .CF .CF .CF .CF .CF .CF .CF .CF .CF .CF .CF .CF .CF .CF .CF .CF .CF .CF .CF .CF .CF .CF .CF .CF .CF .CF .CF .CF .CF .CF .CF .CF .CF .CF .CF .CF .CF .CF .CF .CF .CF .CF .CF .CF .CF .CF .CF .CF .CF .CF .CF .CF .CF .CF .CF .CF .CF .CF .CF .CF .CF .CF .CF .CF .CF .CF .CF .CF .CF .CF .CF .CF .CF .CF .CF .CF .CF .CF .CF .CF .CF .CF .CF .CF .CF .CF .CF .CF .CF .CF .CF .CF .CF .CF .CF .CF .CF .CF .CF .CF .CF .CF .CF .CF .CF .CF .CF .CF .CF .CF .CF .CF .CF .CF .CF .CF .CF .CF .CF .CF .CF .CF .CF .CF .CF .CF .CF .CF .CF .CF .CF .CF .CF .CF .CF .CF .CF .CF .CF .CF .CF .CF .CF .CF .CF .CF .CF .CF .CF .CF .CF .CF .CF .CF .CF .CF .CF .CF .CF .CF .CF .CF .CF CF CF CF CF 2CF 2CF 2CF 2CF 2CF 2CF 2CF 2CF 2CF 2CF 2CF 2CF 2CF 2CF 2CF 2CF 2CF 2CF 2CF 2CF 2CF 2CF 2CF 2CF 2CF 2CF 2CF 2CF 2CF 2CF 2CF 2CF 2CF 2CF 2CF 2CF 2CF 2CF 2CF 2CF 2CF 2CF 2CF 2CF 2CF 2CF 2CF 2CF 2CF 2CF 2CF 2CF 2CF 2CF 2CF 2CF 2CF 2CF 2CF 2CF 2CF 2CF 2CF 2CF 2CF 2CF 2CF 2CF 2CF 2CF 2CF 2CF 2CF 2CF 2CF 2CF 2CF 2CF 2CF 2CF 2CF 2CF 2CF 2CF 2CF 2CF 2CF 2CF 2CF 2CF 2CF 2CF 2CF 2CF 2CF 2CF 2CF 2CF 2CF 2CF 2CF 2CF 2CF 2CF 2CF 2CF 2CF 2CF 2CF 2CF 2CF 2CF 2CF 2CF 2CF 2CF 2CF 2CF 2CF 2CF 2CF 2CF 2CF 2CF 2CF 2CF 2CF 2CF 2CF 2CF 2CF 2CF 2CF 2CF 2CF 2CF 2CF 2CF 2CF 2CF 2CF 2CF 2CF 2CF 2CF 2CF 2CF 2CF 2CF 2CF 2CF 2CF 2CF 2CF 2CF 2CF 2CF 2CF 2CF 2CF 2CF 2CF 2CF 2CF 2CF 2CF 2CF 2CF 2CF 2CF 2CF 2CF 2CF 2CF 2CF 2CF 2CF 2CF 2CF 2CF 2CF CF CF CF CF C7F C7F C7F 7F 7F 7F 7F 7F 7F 7F 7F 7F 7F 7F 7F 7F 7F 7F 7F 7F 7F 7F 7F 7F 7F 7F 7F 7F 7F 7F 7F 7F 7F 7F 7F 7F 7F 7F 7F 7F 7F 7F 7F 7F 7F 7F 7F 7F 7F 7F 7F 7F 7F 7F 7F 7F 7F 7F 7F 7F 7F 7F 7F 7F 7F 7F 7F 7F 7F 7F 7F 7F 7F 7F 7F 7F 7F 7F 7F 7F 7F 7F 7F 7F 7F 7F 7F 7F 7F 7F 7F 7F 7F 7F 7F 7F 7F 7F 7F 7F 7F 7F 7F 7F 7F 7F 7F 7F 7F 7F 7F 7F 7F 7F 7F 7F 7F 7F 7F 7F 7F 7F 7F 7F 7F 7F 7F 7F 7F 7F 7F 7F 7F 7F 7F 7F 7F 7F 7F 7F 7F 7F 7F 7F 7F 7F 7F 7F 7F 7F 7F 7F 7F 7F 7F 7F 7F 7F 7F 7F 7F 7F 7F 7F 7F 7F 7F 7F 7F 7F 7F 7F 7F 7F 7F 7F 7F 7F 7F 7F 7F F F F FO: FO: FO: FO: FO: FO: FO: O: O: O: O: O: O: O: O: O: O: O: O: O: O: O: O: O: O: O: O: O: O: O: O: O: O: O: O: O: O: O: O: O: O: O: O: O: O: O: O: O: O: O: O: O: O: O: O: O: O: O: O: O: O: O: O: O: O: O: O: O: O: O: O: O: O: O: O: O: O: O: O: O: O: O: O: O: O: O: O: O: O: O: O: O: O: O: O: O: O: O: O: O: O: O: O: O: O: O: O: O: O: O: O: O: O: O: O: O: O: O: O: O: O: O: O: O: O: O: O: O: O: O: O: O: O: O: O: O: O: O: O: O: O: O: O: O: O: O: O: O: O: O: O: O: O: O: O: O: O: O: O: O: O: O: O: O: O: O: O: O: O: O: O: O: O: O: O: O: O: O: O: O: O:     N9 N9 N9 N9 N9 N9 N9 N9 N9 N9 N9 N9 N9 N9 N9 N9 N9 N9 N9 N9 N9 N9 N9 N9 N9 N9 N9 N9 N9 N9 N9 N9 N9 N9 N9 N9 N9 N9 N9 N9 N9 N9 N9 N9 N9 N9 N9 N9 N9 N9 N9 N9 N9 N9 N9 N9 N9 N9 N9 N9 N9 N9 N9 N9 N9 N9 N9 N9 N9 N9 N9 N9 N9 N9 N9 N9 N9 N9 N9 N9 N9 N9 N9 N9 N9 N9 N9 N9 N9 N9 N9 N9 N9 N9 N9 N9 N9 N9 N9 N9 N9 N9 N9 N9 N9 N9 N9 N9 N9 N9 N9 N9 N9 N9 N9 N9 N9 N9 N9 N9 N9 N9 N9 N9 N9 N9 N9 N9 N9 N9 N9 N9 N9 N9 N9 N9 N9 N9 N9 N9 N9 N9 N9 N9 N9 N9 N9 N9 N9 N9 N9 N9 N9 N9 N9 N9 N9 N9 N9 N9 N9 N9 N9 N9 N9 N9 N9 N9 N9 N9 N9 N9 N9 N9 N9 N9 N9 N9 N9 N9 N9     O7 O7 O7 O7 O7 O7 O7 O7 O7 O7 O7 O7 O7 O7 O7 O7 O7 O7 O7 O7 O7 O7 O7 O7 O7 O7 O7 O7 O7 O7 O7 O7 O7 O7 O7 O7 O7 O7 O7 O7 O7 O7 O7 O7 O7 O7 O7 O7 O7 O7 O7 O7 O7 O7 O7 O7 O7 O7 O7 O7 O7 O7 O7 O7 O7 O7 O7 O7 O7 O7 O7 O7 O7 O7 O7 O7 O7 O7 O7 O7 O7 O7 O7 O7 O7 O7 O7 O7 O7 O7 O7 O7 O7 O7 O7 O7 O7 O7 O7 O7 O7 O7 O7 O7 O7 O7 O7 O7 O7 O7 O7 O7 O7 O7 O7 O7 O7 O7 O7 O7 O7 O7 O7 O7 O7 O7 O7 O7 O7 O7 O7 O7 O7 O7 O7 O7 O7 O7 O7 O7 O7 O7 O7 O7 O7 O7 O7 O7 O7 O7 O7 O7 O7 O7 O7 O7 O7 O7 O7 O7 O7 O7 O7 O7 O7 O7 O7 O7 O7 O7 O7 O7 O7 O7 O7 O7 O7 O7 O7 O7 O7    6EH 6EH 6EH 6EH 6EH 6EH 6EH 6EH 6EH 6EH 6EH 6EH 6EH 6EH 6EH 6EH 6EH 6EH 6EH 6EH 6EH 6EH 6EH 6EH 6EH 6EH 6EH 6EH 6EH 6EH 6EH 6EH 6EH 6EH 6EH 6EH 6EH 6EH 6EH 6EH 6EH 6EH 6EH 6EH 6EH 6EH 6EH 6EH 6EH 6EH 6EH 6EH 6EH 6EH 6EH 6EH 6EH 6EH 6EH 6EH 6EH 6EH 6EH 6EH 6EH 6EH 6EH 6EH 6EH 6EH 6EH 6EH 6EH 6EH 6EH 6EH 6EH 6EH 6EH 6EH 6EH 6EH 6EH 6EH 6EH 6EH 6EH 6EH 6EH 6EH 6EH 6EH 6EH 6EH 6EH 6EH 6EH 6EH 6EH 6EH 6EH 6EH 6EH 6EH 6EH 6EH 6EH 6EH 6EH 6EH 6EH 6EH 6EH 6EH 6EH 6EH 6EH 6EH 6EH 6EH 6EH 6EH 6EH 6EH 6EH 6EH 6EH 6EH 6EH 6EH 6EH 6EH 6EH 6EH 6EH 6EH 6EH 6EH 6EH 6EH 6EH 6EH 6EH 6EH 6EH 6EH 6EH 6EH 6EH 6EH 6EH 6EH 6EH 6EH 6EH 6EH 6EH 6EH 6EH 6EH 6EH 6EH 6EH 6EH 6EH 6EH 6EH 6EH 6EH 6EH 6EH 6EH 6EH 6EH 6EH 6EH 6EH 6EH 6EH 6EH 6EH EH EH EH EH 7EH 7EH 7EH 7EH 7EH 7EH 7EH 7EH 7EH 7EH 7EH 7EH 7EH 7EH 7EH 7EH 7EH 7EH 7EH 7EH 7EH 7EH 7EH 7EH 7EH 7EH 7EH 7EH 7EH 7EH 7EH 7EH 7EH 7EH 7EH 7EH 7EH 7EH 7EH 7EH 7EH 7EH 7EH 7EH 7EH 7EH 7EH 7EH 7EH 7EH 7EH 7EH 7EH 7EH 7EH 7EH 7EH 7EH 7EH 7EH 7EH 7EH 7EH 7EH 7EH 7EH 7EH 7EH 7EH 7EH 7EH 7EH 7EH 7EH 7EH 7EH 7EH 7EH 7EH 7EH 7EH 7EH 7EH 7EH 7EH 7EH 7EH 7EH 7EH 7EH 7EH 7EH 7EH 7EH 7EH 7EH 7EH 7EH 7EH 7EH 7EH 7EH 7EH 7EH 7EH 7EH 7EH 7EH 7EH 7EH 7EH 7EH 7EH 7EH 7EH 7EH 7EH 7EH 7EH 7EH 7EH 7EH 7EH 7EH 7EH 7EH 7EH 7EH 7EH 7EH 7EH 7EH 7EH 7EH 7EH 7EH 7EH 7EH 7EH 7EH 7EH 7EH 7EH 7EH 7EH 7EH 7EH 7EH 7EH 7EH 7EH 7EH 7EH 7EH 7EH 7EH 7EH 7EH 7EH 7EH 7EH 7EH 7EH 7EH 7EH 7EH 7EH 7EH 7EH 7EH 7EH 7EH 7EH 7EH 7EH 7EH 7EH 7EH 7EH 7EH 7EH EH EH EH EH 9EH 9EH 9EH 9EH 9EH 9EH 9EH 9EH 9EH 9EH 9EH 9EH 9EH 9EH 9EH 9EH 9EH 9EH 9EH 9EH 9EH 9EH 9EH 9EH 9EH 9EH 9EH 9EH 9EH 9EH 9EH 9EH 9EH 9EH 9EH 9EH 9EH 9EH 9EH 9EH 9EH 9EH 9EH 9EH 9EH 9EH 9EH 9EH 9EH 9EH 9EH 9EH 9EH 9EH 9EH 9EH 9EH 9EH 9EH 9EH 9EH 9EH 9EH 9EH 9EH 9EH 9EH 9EH 9EH 9EH 9EH 9EH 9EH 9EH 9EH 9EH 9EH 9EH 9EH 9EH 9EH 9EH 9EH 9EH 9EH 9EH 9EH 9EH 9EH 9EH 9EH 9EH 9EH 9EH 9EH 9EH 9EH 9EH 9EH 9EH 9EH 9EH 9EH 9EH 9EH 9EH 9EH 9EH 9EH 9EH 9EH 9EH 9EH 9EH 9EH 9EH 9EH 9EH 9EH 9EH 9EH 9EH 9EH 9EH 9EH 9EH 9EH 9EH 9EH 9EH 9EH 9EH 9EH 9EH 9EH 9EH 9EH 9EH 9EH 9EH 9EH 9EH 9EH 9EH 9EH 9EH 9EH 9EH 9EH 9EH 9EH 9EH 9EH 9EH 9EH 9EH 9EH 9EH 9EH 9EH 9EH 9EH 9EH 9EH 9EH 9EH 9EH 9EH 9EH 9EH 9EH 9EH 9EH 9EH 9EH 9EH 9EH 9EH 9EH 9EH 9EH EH EH EH E3H E3H E3H E3H E3H E3H E3H E3H E3H E3H E3H E3H E3H E3H E3H E3H E3H E3H E3H E3H E3H E3H E3H E3H E3H E3H E3H E3H E3H E3H E3H E3H E3H E3H E3H E3H E3H E3H E3H E3H E3H E3H E3H E3H E3H E3H E3H E3H E3H E3H E3H E3H E3H E3H E3H E3H E3H E3H E3H E3H E3H E3H E3H E3H E3H E3H E3H E3H E3H E3H E3H E3H E3H E3H E3H E3H E3H E3H E3H E3H E3H E3H E3H E3H E3H E3H E3H E3H E3H E3H E3H E3H E3H E3H E3H E3H E3H E3H E3H E3H E3H E3H E3H E3H E3H E3H E3H E3H E3H E3H E3H E3H E3H E3H E3H E3H E3H E3H E3H E3H E3H E3H E3H E3H E3H E3H E3H E3H E3H E3H E3H E3H E3H E3H E3H E3H E3H E3H E3H E3H E3H E3H E3H E3H E3H E3H E3H E3H E3H E3H E3H E3H E3H E3H E3H E3H E3H E3H E3H E3H E3H E3H E3H E3H E3H E3H E3H E3H E3H E3H E3H E3H E3H E3H E3H E3H E3H E3H 3H 3H 3H H H H H 2H 2H 2H 2H 2H 2H 2H 2H 2H 2H 2H 2H 2H 2H 2H 2H 2H 2H 2H 2H 2H 2H 2H 2H 2H 2H 2H 2H 2H 2H 2H 2H 2H 2H 2H 2H 2H 2H 2H 2H 2H 2H 2H 2H 2H 2H 2H 2H 2H 2H 2H 2H 2H 2H 2H 2H 2H 2H 2H 2H 2H 2H 2H 2H 2H 2H 2H 2H 2H 2H 2H 2H 2H 2H 2H 2H 2H 2H 2H 2H 2H 2H 2H 2H 2H 2H 2H 2H 2H 2H 2H 2H 2H 2H 2H 2H 2H 2H 2H 2H 2H 2H 2H 2H 2H 2H 2H 2H 2H 2H 2H 2H 2H 2H 2H 2H 2H 2H 2H 2H 2H 2H 2H 2H 2H 2H 2H 2H 2H 2H 2H 2H 2H 2H 2H 2H 2H 2H 2H 2H 2H 2H 2H 2H 2H 2H 2H 2H 2H 2H 2H 2H 2H 2H 2H 2H 2H 2H 2H 2H 2H 2H 2H 2H 2H 2H 2H 2H 2H 2H 2H 2H 2H 2H 2H 2H 2H 2H 2H 2H 2H     Q0 Q0 Q0 Q0 Q0 Q0 Q0 Q0 Q0 Q0 Q0 Q0 Q0 Q0 Q0 Q0 Q0 Q0 Q0 Q0 Q0 Q0 Q0 Q0 Q0 Q0 Q0 Q0 Q0 Q0 Q0 Q0 Q0 Q0 Q0 Q0 Q0 Q0 Q0 Q0 Q0 Q0 Q0 Q0 Q0 Q0 Q0 Q0 Q0 Q0 Q0 Q0 Q0 Q0 Q0 Q0 Q0 Q0 Q0 Q0 Q0 Q0 Q0 Q0 Q0 Q0 Q0 Q0 Q0 Q0 Q0 Q0 Q0 Q0 Q0 Q0 Q0 Q0 Q0 Q0 Q0 Q0 Q0 Q0 Q0 Q0 Q0 Q0 Q0 Q0 Q0 Q0 Q0 Q0 Q0 Q0 Q0 Q0 Q0 Q0 Q0 Q0 Q0 Q0 Q0 Q0 Q0 Q0 Q0 Q0 Q0 Q0 Q0 Q0 Q0 Q0 Q0 Q0 Q0 Q0 Q0 Q0 Q0 Q0 Q0 Q0 Q0 Q0 Q0 Q0 Q0 Q0 Q0 Q0 Q0 Q0 Q0 Q0 Q0 Q0 Q0 Q0 Q0 Q0 Q0 Q0 Q0 Q0 Q0 Q0 Q0 Q0 Q0 Q0 Q0 Q0 Q0 Q0 Q0 Q0 Q0 Q0 Q0 Q0 Q0 Q0 Q0 Q0 Q0 Q0 Q0 Q0 Q0 Q0 Q0 Q0 Q0 Q0 Q0 Q0 Q0    O. O. O. O. O. O. O. O. O. O. O. O. O. O. O. O. O. O. O. O. O. O. O. O. O. O. O. O. O. O. O. O. O. O. O. O. O. O. O. O. O. O. O. O. O. O. O. O. O. O. O. O. O. O. O. O. O. O. O. O. O. O. O. O. O. O. O. O. O. O. O. O. O. O. O. O. O. O. O. O. O. O. O. O. O. O. O. O. O. O. O. O. O. O. O. O. O. O. O. O. O. O. O. O. O. O. O. O. O. O. O. O. O. O. O. O. O. O. O. O. O. O. O. O. O. O. O. O. O. O. O. O. O. O. O. O. O. O. O. O. O. O. O. O. O. O. O. O. O. O. O. O. O. O. O. O. O. O. O. O. O. O. O. O. O. O. O. O. O. O. O. O. O. O. O. O. O. O. O. O. O.     Q- Q- Q- Q- Q- Q- Q- Q- Q- Q- Q- Q- Q- Q- Q- Q- Q- Q- Q- Q- Q- Q- Q- Q- Q- Q- Q- Q- Q- Q- Q- Q- Q- Q- Q- Q- Q- Q- Q- Q- Q- Q- Q- Q- Q- Q- Q- Q- Q- Q- Q- Q- Q- Q- Q- Q- Q- Q- Q- Q- Q- Q- Q- Q- Q- Q- Q- Q- Q- Q- Q- Q- Q- Q- Q- Q- Q- Q- Q- Q- Q- Q- Q- Q- Q- Q- Q- Q- Q- Q- Q- Q- Q- Q- Q- Q- Q- Q- Q- Q- Q- Q- Q- Q- Q- Q- Q- Q- Q- Q- Q- Q- Q- Q- Q- Q- Q- Q- Q- Q- Q- Q- Q- Q- Q- Q- Q- Q- Q- Q- Q- Q- Q- Q- Q- Q- Q- Q- Q- Q- Q- Q- Q- Q- Q- Q- Q- Q- Q- Q- Q- Q- Q- Q- Q- Q- Q- Q- Q- Q- Q- Q- Q- Q- Q- Q- Q- Q- Q- Q- Q- Q- Q- Q- Q- Q- Q- Q- Q- Q- Q-     J. J. J. J. J. J. J. J. J. J. J. J. J. J. J. J. J. J. J. J. J. J. J. J. J. J. J. J. J. J. J. J. J. J. J. J. J. J. J. J. J. J. J. J. J. J. J. J. J. J. J. J. J. J. J. J. J. J. J. J. J. J. J. J. J. J. J. J. J. J. J. J. J. J. J. J. J. J. J. J. J. J. J. J. J. J. J. J. J. J. J. J. J. J. J. J. J. J. J. J. J. J. J. J. J. J. J. J. J. J. J. J. J. J. J. J. J. J. J. J. J. J. J. J. J. J. J. J. J. J. J. J. J. J. J. J. J. J. J. J. J. J. J. J. J. J. J. J. J. J. J. J. J. J. J. J. J. J. J. J. J. J. J. J. J. J. J. J. J. J. J. J. J. J. J. J. J. J. J. J. J. . . . . C. C. C. C. C. C. C. C. C. C. C. C. C. C. C. C. C. C. C. C. C. C. C. C. C. C. C. C. C. C. C. C. C. C. C. C. C. C. C. C. C. C. C. C. C. C. C. C. C. C. C. C. C. C. C. C. C. C. C. C. C. C. C. C. C. C. C. C. C. C. C. C. C. C. C. C. C. C. C. C. C. C. C. C. C. C. C. C. C. C. C. C. C. C. C. C. C. C. C. C. C. C. C. C. C. C. C. C. C. C. C. C. C. C. C. C. C. C. C. C. C. C. C. C. C. C. C. C. C. C. C. C. C. C. C. C. C. C. C. C. C. C. C. C. C. C. C. C. C. C. C. C. C. C. C. C. C. C. C. C. C. C. C. C. C. C. C. C. C. C. C. C. C. C. C. C. C. C. C. C. C. . . . F. F. F. F. F. F. F. F. F. F. F. F. F. F. F. F. F. F. F. F. F. F. F. F. F. F. F. F. F. F. F. F. F. F. F. F. F. F. F. F. F. F. F. F. F. F. F. F. F. F. F. F. F. F. F. F. F. F. F. F. F. F. F. F. F. F. F. F. F. F. F. F. F. F. F. F. F. F. F. F. F. F. F. F. F. F. F. F. F. F. F. F. F. F. F. F. F. F. F. F. F. F. F. F. F. F. F. F. F. F. F. F. F. F. F. F. F. F. F. F. F. F. F. F. F. F. F. F. F. F. F. F. F. F. F. F. F. F. F. F. F. F. F. F. F. F. F. F. F. F. F. F. F. F. F. F. F. F. F. F. F. F. F. F. F. F. F. F. F. F. F. F. F. F. F. F. F. F. F. F. F. . . . . J. J. J. J. J. J. J. J. J. J. J. J. J. J. J. J. J. J. J. J. J. J. J. J. J. J. J. J. J. J. J. J. J. J. J. J. J. J. J. J. J. J. J. J. J. J. J. J. J. J. J. J. J. J. J. J. J. J. J. J. J. J. J. J. J. J. J. J. J. J. J. J. J. J. J. J. J. J. J. J. J. J. J. J. J. J. J. J. J. J. J. J. J. J. J. J. J. J. J. J. J. J. J. J. J. J. J. J. J. J. J. J. J. J. J. J. J. J. J. J. J. J. J. J. J. J. J. J. J. J. J. J. J. J. J. J. J. J. J. J. J. J. J. J. J. J. J. J. J. J. J. J. J. J. J. J. J. J. J. J. J. J. J. J. J. J. J. J. J. J. J. J. J. J. J. J. J. J. J. J. J. . . . . O. O. O. O. O. O. O. O. O. O. O. O. O. O. O. O. O. O. O. O. O. O. O. O. O. O. O. O. O. O. O. O. O. O. O. O. O. O. O. O. O. O. O. O. O. O. O. O. O. O. O. O. O. O. O. O. O. O. O. O. O. O. O. O. O. O. O. O. O. O. O. O. O. O. O. O. O. O. O. O. O. O. O. O. O. O. O. O. O. O. O. O. O. O. O. O. O. O. O. O. O. O. O. O. O. O. O. O. O. O. O. O. O. O. O. O. O. O. O. O. O. O. O. O. O. O. O. O. O. O. O. O. O. O. O. O. O. O. O. O. O. O. O. O. O. O. O. O. O. O. O. O. O. O. O. O. O. O. O. O. O. O. O. O. O. O. O. O. O. O. O. O. O. O. O. O. O. O. O. O. O.    R2 R2 R2 R2 R2 R2 R2 R2 R2 R2 R2 R2 R2 R2 R2 R2 R2 R2 R2 R2 R2 R2 R2 R2 R2 R2 R2 R2 R2 R2 R2 R2 R2 R2 R2 R2 R2 R2 R2 R2 R2 R2 R2 R2 R2 R2 R2 R2 R2 R2 R2 R2 R2 R2 R2 R2 R2 R2 R2 R2 R2 R2 R2 R2 R2 R2 R2 R2 R2 R2 R2 R2 R2 R2 R2 R2 R2 R2 R2 R2 R2 R2 R2 R2 R2 R2 R2 R2 R2 R2 R2 R2 R2 R2 R2 R2 R2 R2 R2 R2 R2 R2 R2 R2 R2 R2 R2 R2 R2 R2 R2 R2 R2 R2 R2 R2 R2 R2 R2 R2 R2 R2 R2 R2 R2 R2 R2 R2 R2 R2 R2 R2 R2 R2 R2 R2 R2 R2 R2 R2 R2 R2 R2 R2 R2 R2 R2 R2 R2 R2 R2 R2 R2 R2 R2 R2 R2 R2 R2 R2 R2 R2 R2 R2 R2 R2 R2 R2 R2 R2 R2 R2 R2 R2 R2 R2 R2 R2 R2 R2 R2     Q0 Q0 Q0 Q0 Q0 Q0 Q0 Q0 Q0 Q0 Q0 Q0 Q0 Q0 Q0 Q0 Q0 Q0 Q0 Q0 Q0 Q0 Q0 Q0 Q0 Q0 Q0 Q0 Q0 Q0 Q0 Q0 Q0 Q0 Q0 Q0 Q0 Q0 Q0 Q0 Q0 Q0 Q0 Q0 Q0 Q0 Q0 Q0 Q0 Q0 Q0 Q0 Q0 Q0 Q0 Q0 Q0 Q0 Q0 Q0 Q0 Q0 Q0 Q0 Q0 Q0 Q0 Q0 Q0 Q0 Q0 Q0 Q0 Q0 Q0 Q0 Q0 Q0 Q0 Q0 Q0 Q0 Q0 Q0 Q0 Q0 Q0 Q0 Q0 Q0 Q0 Q0 Q0 Q0 Q0 Q0 Q0 Q0 Q0 Q0 Q0 Q0 Q0 Q0 Q0 Q0 Q0 Q0 Q0 Q0 Q0 Q0 Q0 Q0 Q0 Q0 Q0 Q0 Q0 Q0 Q0 Q0 Q0 Q0 Q0 Q0 Q0 Q0 Q0 Q0 Q0 Q0 Q0 Q0 Q0 Q0 Q0 Q0 Q0 Q0 Q0 Q0 Q0 Q0 Q0 Q0 Q0 Q0 Q0 Q0 Q0 Q0 Q0 Q0 Q0 Q0 Q0 Q0 Q0 Q0 Q0 Q0 Q0 Q0 Q0 Q0 Q0 Q0 Q0 Q0 Q0 Q0 Q0 Q0 Q0 Q0 Q0 Q0 Q0 Q0 Q0     O3 O3 O3 O3 O3 O3 O3 O3 O3 O3 O3 O3 O3 O3 O3 O3 O3 O3 O3 O3 O3 O3 O3 O3 O3 O3 O3 O3 O3 O3 O3 O3 O3 O3 O3 O3 O3 O3 O3 O3 O3 O3 O3 O3 O3 O3 O3 O3 O3 O3 O3 O3 O3 O3 O3 O3 O3 O3 O3 O3 O3 O3 O3 O3 O3 O3 O3 O3 O3 O3 O3 O3 O3 O3 O3 O3 O3 O3 O3 O3 O3 O3 O3 O3 O3 O3 O3 O3 O3 O3 O3 O3 O3 O3 O3 O3 O3 O3 O3 O3 O3 O3 O3 O3 O3 O3 O3 O3 O3 O3 O3 O3 O3 O3 O3 O3 O3 O3 O3 O3 O3 O3 O3 O3 O3 O3 O3 O3 O3 O3 O3 O3 O3 O3 O3 O3 O3 O3 O3 O3 O3 O3 O3 O3 O3 O3 O3 O3 O3 O3 O3 O3 O3 O3 O3 O3 O3 O3 O3 O3 O3 O3 O3 O3 O3 O3 O3 O3 O3 O3 O3 O3 O3 O3 O3 O3 O3 O3 O3 O3 O3    N2 N2 N2 N2 N2 N2 N2 N2 N2 N2 N2 N2 N2 N2 N2 N2 N2 N2 N2 N2 N2 N2 N2 N2 N2 N2 N2 N2 N2 N2 N2 N2 N2 N2 N2 N2 N2 N2 N2 N2 N2 N2 N2 N2 N2 N2 N2 N2 N2 N2 N2 N2 N2 N2 N2 N2 N2 N2 N2 N2 N2 N2 N2 N2 N2 N2 N2 N2 N2 N2 N2 N2 N2 N2 N2 N2 N2 N2 N2 N2 N2 N2 N2 N2 N2 N2 N2 N2 N2 N2 N2 N2 N2 N2 N2 N2 N2 N2 N2 N2 N2 N2 N2 N2 N2 N2 N2 N2 N2 N2 N2 N2 N2 N2 N2 N2 N2 N2 N2 N2 N2 N2 N2 N2 N2 N2 N2 N2 N2 N2 N2 N2 N2 N2 N2 N2 N2 N2 N2 N2 N2 N2 N2 N2 N2 N2 N2 N2 N2 N2 N2 N2 N2 N2 N2 N2 N2 N2 N2 N2 N2 N2 N2 N2 N2 N2 N2 N2 N2 N2 N2 N2 N2 N2 N2 N2 N2 N2 N2 N2 N2 2 2 2 2 O2 O2 O2 O2 O2 O2 O2 O2 O2 O2 O2 O2 O2 O2 O2 O2 O2 O2 O2 O2 O2 O2 O2 O2 O2 O2 O2 O2 O2 O2 O2 O2 O2 O2 O2 O2 O2 O2 O2 O2 O2 O2 O2 O2 O2 O2 O2 O2 O2 O2 O2 O2 O2 O2 O2 O2 O2 O2 O2 O2 O2 O2 O2 O2 O2 O2 O2 O2 O2 O2 O2 O2 O2 O2 O2 O2 O2 O2 O2 O2 O2 O2 O2 O2 O2 O2 O2 O2 O2 O2 O2 O2 O2 O2 O2 O2 O2 O2 O2 O2 O2 O2 O2 O2 O2 O2 O2 O2 O2 O2 O2 O2 O2 O2 O2 O2 O2 O2 O2 O2 O2 O2 O2 O2 O2 O2 O2 O2 O2 O2 O2 O2 O2 O2 O2 O2 O2 O2 O2 O2 O2 O2 O2 O2 O2 O2 O2 O2 O2 O2 O2 O2 O2 O2 O2 O2 O2 O2 O2 O2 O2 O2 O2 O2 O2 O2 O2 O2 O2 O2 O2 O2 O2 O2 O2 O2 O2 O2 O2 O2 O2 2 2 2 2 Q2 Q2 Q2 Q2 Q2 Q2 Q2 Q2 Q2 Q2 Q2 Q2 Q2 Q2 Q2 Q2 Q2 Q2 Q2 Q2 Q2 Q2 Q2 Q2 Q2 Q2 Q2 Q2 Q2 Q2 Q2 Q2 Q2 Q2 Q2 Q2 Q2 Q2 Q2 Q2 Q2 Q2 Q2 Q2 Q2 Q2 Q2 Q2 Q2 Q2 Q2 Q2 Q2 Q2 Q2 Q2 Q2 Q2 Q2 Q2 Q2 Q2 Q2 Q2 Q2 Q2 Q2 Q2 Q2 Q2 Q2 Q2 Q2 Q2 Q2 Q2 Q2 Q2 Q2 Q2 Q2 Q2 Q2 Q2 Q2 Q2 Q2 Q2 Q2 Q2 Q2 Q2 Q2 Q2 Q2 Q2 Q2 Q2 Q2 Q2 Q2 Q2 Q2 Q2 Q2 Q2 Q2 Q2 Q2 Q2 Q2 Q2 Q2 Q2 Q2 Q2 Q2 Q2 Q2 Q2 Q2 Q2 Q2 Q2 Q2 Q2 Q2 Q2 Q2 Q2 Q2 Q2 Q2 Q2 Q2 Q2 Q2 Q2 Q2 Q2 Q2 Q2 Q2 Q2 Q2 Q2 Q2 Q2 Q2 Q2 Q2 Q2 Q2 Q2 Q2 Q2 Q2 Q2 Q2 Q2 Q2 Q2 Q2 Q2 Q2 Q2 Q2 Q2 Q2 Q2 Q2 Q2 Q2 Q2 Q2 Q2 Q2 Q2 Q2 Q2 Q2 2 2 2 K2 K2 K2 K2 K2 K2 K2 K2 K2 K2 K2 K2 K2 K2 K2 K2 K2 K2 K2 K2 K2 K2 K2 K2 K2 K2 K2 K2 K2 K2 K2 K2 K2 K2 K2 K2 K2 K2 K2 K2 K2 K2 K2 K2 K2 K2 K2 K2 K2 K2 K2 K2 K2 K2 K2 K2 K2 K2 K2 K2 K2 K2 K2 K2 K2 K2 K2 K2 K2 K2 K2 K2 K2 K2 K2 K2 K2 K2 K2 K2 K2 K2 K2 K2 K2 K2 K2 K2 K2 K2 K2 K2 K2 K2 K2 K2 K2 K2 K2 K2 K2 K2 K2 K2 K2 K2 K2 K2 K2 K2 K2 K2 K2 K2 K2 K2 K2 K2 K2 K2 K2 K2 K2 K2 K2 K2 K2 K2 K2 K2 K2 K2 K2 K2 K2 K2 K2 K2 K2 K2 K2 K2 K2 K2 K2 K2 K2 K2 K2 K2 K2 K2 K2 K2 K2 K2 K2 K2 K2 K2 K2 K2 K2 K2 K2 K2 K2 K2 K2 K2 K2 K2 K2 K2 K2 K2 K2 K2 K2 K2 K2 2 2 2 2 J2 J2 J2 J2 J2 J2 J2 J2 J2 J2 J2 J2 J2 J2 J2 J2 J2 J2 J2 J2 J2 J2 J2 J2 J2 J2 J2 J2 J2 J2 J2 J2 J2 J2 J2 J2 J2 J2 J2 J2 J2 J2 J2 J2 J2 J2 J2 J2 J2 J2 J2 J2 J2 J2 J2 J2 J2 J2 J2 J2 J2 J2 J2 J2 J2 J2 J2 J2 J2 J2 J2 J2 J2 J2 J2 J2 J2 J2 J2 J2 J2 J2 J2 J2 J2 J2 J2 J2 J2 J2 J2 J2 J2 J2 J2 J2 J2 J2 J2 J2 J2 J2 J2 J2 J2 J2 J2 J2 J2 J2 J2 J2 J2 J2 J2 J2 J2 J2 J2 J2 J2 J2 J2 J2 J2 J2 J2 J2 J2 J2 J2 J2 J2 J2 J2 J2 J2 J2 J2 J2 J2 J2 J2 J2 J2 J2 J2 J2 J2 J2 J2 J2 J2 J2 J2 J2 J2 J2 J2 J2 J2 J2 J2 J2 J2 J2 J2 J2 J2 J2 J2 J2 J2 J2 J2 J2 J2 J2 J2 J2 J2     H4 H4 H4 H4 H4 H4 H4 H4 H4 H4 H4 H4 H4 H4 H4 H4 H4 H4 H4 H4 H4 H4 H4 H4 H4 H4 H4 H4 H4 H4 H4 H4 H4 H4 H4 H4 H4 H4 H4 H4 H4 H4 H4 H4 H4 H4 H4 H4 H4 H4 H4 H4 H4 H4 H4 H4 H4 H4 H4 H4 H4 H4 H4 H4 H4 H4 H4 H4 H4 H4 H4 H4 H4 H4 H4 H4 H4 H4 H4 H4 H4 H4 H4 H4 H4 H4 H4 H4 H4 H4 H4 H4 H4 H4 H4 H4 H4 H4 H4 H4 H4 H4 H4 H4 H4 H4 H4 H4 H4 H4 H4 H4 H4 H4 H4 H4 H4 H4 H4 H4 H4 H4 H4 H4 H4 H4 H4 H4 H4 H4 H4 H4 H4 H4 H4 H4 H4 H4 H4 H4 H4 H4 H4 H4 H4 H4 H4 H4 H4 H4 H4 H4 H4 H4 H4 H4 H4 H4 H4 H4 H4 H4 H4 H4 H4 H4 H4 H4 H4 H4 H4 H4 H4 H4 H4 H4 H4 H4 H4 H4 H4    F6 F6 F6 F6 F6 F6 F6 F6 F6 F6 F6 F6 F6 F6 F6 F6 F6 F6 F6 F6 F6 F6 F6 F6 F6 F6 F6 F6 F6 F6 F6 F6 F6 F6 F6 F6 F6 F6 F6 F6 F6 F6 F6 F6 F6 F6 F6 F6 F6 F6 F6 F6 F6 F6 F6 F6 F6 F6 F6 F6 F6 F6 F6 F6 F6 F6 F6 F6 F6 F6 F6 F6 F6 F6 F6 F6 F6 F6 F6 F6 F6 F6 F6 F6 F6 F6 F6 F6 F6 F6 F6 F6 F6 F6 F6 F6 F6 F6 F6 F6 F6 F6 F6 F6 F6 F6 F6 F6 F6 F6 F6 F6 F6 F6 F6 F6 F6 F6 F6 F6 F6 F6 F6 F6 F6 F6 F6 F6 F6 F6 F6 F6 F6 F6 F6 F6 F6 F6 F6 F6 F6 F6 F6 F6 F6 F6 F6 F6 F6 F6 F6 F6 F6 F6 F6 F6 F6 F6 F6 F6 F6 F6 F6 F6 F6 F6 F6 F6 F6 F6 F6 F6 F6 F6 F6 F6 F6 F6 F6 F6 F6     E2 E2 E2 E2 E2 E2 E2 E2 E2 E2 E2 E2 E2 E2 E2 E2 E2 E2 E2 E2 E2 E2 E2 E2 E2 E2 E2 E2 E2 E2 E2 E2 E2 E2 E2 E2 E2 E2 E2 E2 E2 E2 E2 E2 E2 E2 E2 E2 E2 E2 E2 E2 E2 E2 E2 E2 E2 E2 E2 E2 E2 E2 E2 E2 E2 E2 E2 E2 E2 E2 E2 E2 E2 E2 E2 E2 E2 E2 E2 E2 E2 E2 E2 E2 E2 E2 E2 E2 E2 E2 E2 E2 E2 E2 E2 E2 E2 E2 E2 E2 E2 E2 E2 E2 E2 E2 E2 E2 E2 E2 E2 E2 E2 E2 E2 E2 E2 E2 E2 E2 E2 E2 E2 E2 E2 E2 E2 E2 E2 E2 E2 E2 E2 E2 E2 E2 E2 E2 E2 E2 E2 E2 E2 E2 E2 E2 E2 E2 E2 E2 E2 E2 E2 E2 E2 E2 E2 E2 E2 E2 E2 E2 E2 E2 E2 E2 E2 E2 E2 E2 E2 E2 E2 E2 E2 E2 E2 E2 E2 E2 E2     F7 F7 F7 F7 F7 F7 F7 F7 F7 F7 F7 F7 F7 F7 F7 F7 F7 F7 F7 F7 F7 F7 F7 F7 F7 F7 F7 F7 F7 F7 F7 F7 F7 F7 F7 F7 F7 F7 F7 F7 F7 F7 F7 F7 F7 F7 F7 F7 F7 F7 F7 F7 F7 F7 F7 F7 F7 F7 F7 F7 F7 F7 F7 F7 F7 F7 F7 F7 F7 F7 F7 F7 F7 F7 F7 F7 F7 F7 F7 F7 F7 F7 F7 F7 F7 F7 F7 F7 F7 F7 F7 F7 F7 F7 F7 F7 F7 F7 F7 F7 F7 F7 F7 F7 F7 F7 F7 F7 F7 F7 F7 F7 F7 F7 F7 F7 F7 F7 F7 F7 F7 F7 F7 F7 F7 F7 F7 F7 F7 F7 F7 F7 F7 F7 F7 F7 F7 F7 F7 F7 F7 F7 F7 F7 F7 F7 F7 F7 F7 F7 F7 F7 F7 F7 F7 F7 F7 F7 F7 F7 F7 F7 F7 F7 F7 F7 F7 F7 F7 F7 F7 F7 F7 F7 F7 F7 F7 F7 F7 F7 F7 F7 F7 F7 F7 F7 CF7 CF7 CF7 CF7 CF7 CF7 CF7 CF7 CF7 CF7 CF7 CF7 CF7 CF7 CF7 CF7 CF7 CF7 CF7 CF7 CF7 CF7 CF7 CF7 CF7 CF7 CF7 CF7 CF7 CF7 CF7 CF7 CF7 CF7 CF7 CF7 CF7 CF7 CF7 CF7 CF7 CF7 CF7 CF7 CF7 CF7 CF7 CF7 CF7 CF7 CF7 CF7 CF7 CF7 CF7 CF7 CF7 CF7 CF7 CF7 CF7 CF7 CF7 CF7 CF7 CF7 CF7 CF7 CF7 CF7 CF7 CF7 CF7 CF7 CF7 CF7 CF7 CF7 CF7 CF7 CF7 CF7 CF7 CF7 CF7 CF7 CF7 CF7 CF7 CF7 CF7 CF7 CF7 CF7 CF7 CF7 CF7 CF7 CF7 CF7 CF7 CF7 CF7 CF7 CF7 CF7 CF7 CF7 CF7 CF7 CF7 CF7 CF7 CF7 CF7 CF7 CF7 CF7 CF7 CF7 CF7 CF7 CF7 CF7 CF7 CF7 CF7 CF7 CF7 CF7 CF7 CF7 CF7 CF7 CF7 CF7 CF7 CF7 CF7 CF7 CF7 CF7 CF7 CF7 CF7 CF7 CF7 CF7 CF7 CF7 CF7 CF7 CF7 CF7 CF7 CF7 CF7 CF7 CF7 CF7 CF7 CF7 CF7 CF7 CF7 CF7 CF7 CF7 CF7 CF7 CF7 CF7 CF7 CF7 CF7 CF7 CF7 CF7 CF7 CF7 CF7 F7 F7 F7 F7 AF7 AF7 AF7 AF7 AF7 AF7 AF7 AF7 AF7 AF7 AF7 AF7 AF7 AF7 AF7 AF7 AF7 AF7 AF7 AF7 AF7 AF7 AF7 AF7 AF7 AF7 AF7 AF7 AF7 AF7 AF7 AF7 AF7 AF7 AF7 AF7 AF7 AF7 AF7 AF7 AF7 AF7 AF7 AF7 AF7 AF7 AF7 AF7 AF7 AF7 AF7 AF7 AF7 AF7 AF7 AF7 AF7 AF7 AF7 AF7 AF7 AF7 AF7 AF7 AF7 AF7 AF7 AF7 AF7 AF7 AF7 AF7 AF7 AF7 AF7 AF7 AF7 AF7 AF7 AF7 AF7 AF7 AF7 AF7 AF7 AF7 AF7 AF7 AF7 AF7 AF7 AF7 AF7 AF7 AF7 AF7 AF7 AF7 AF7 AF7 AF7 AF7 AF7 AF7 AF7 AF7 AF7 AF7 AF7 AF7 AF7 AF7 AF7 AF7 AF7 AF7 AF7 AF7 AF7 AF7 AF7 AF7 AF7 AF7 AF7 AF7 AF7 AF7 AF7 AF7 AF7 AF7 AF7 AF7 AF7 AF7 AF7 AF7 AF7 AF7 AF7 AF7 AF7 AF7 AF7 AF7 AF7 AF7 AF7 AF7 AF7 AF7 AF7 AF7 AF7 AF7 AF7 AF7 AF7 AF7 AF7 AF7 AF7 AF7 AF7 AF7 AF7 AF7 AF7 AF7 AF7 AF7 AF7 AF7 AF7 AF7 AF7 AF7 AF7 AF7 AF7 F7 F7 F7 >F7 >F7 >F7 >F7 >F7 >F7 >F7 >F7 >F7 >F7 >F7 >F7 >F7 >F7 >F7 >F7 >F7 >F7 >F7 >F7 >F7 >F7 >F7 >F7 >F7 >F7 >F7 >F7 >F7 >F7 >F7 >F7 >F7 >F7 >F7 >F7 >F7 >F7 >F7 >F7 >F7 >F7 >F7 >F7 >F7 >F7 >F7 >F7 >F7 >F7 >F7 >F7 >F7 >F7 >F7 >F7 >F7 >F7 >F7 >F7 >F7 >F7 >F7 >F7 >F7 >F7 >F7 >F7 >F7 >F7 >F7 >F7 >F7 >F7 >F7 >F7 >F7 >F7 >F7 >F7 >F7 >F7 >F7 >F7 >F7 >F7 >F7 >F7 >F7 >F7 >F7 >F7 >F7 >F7 >F7 >F7 >F7 >F7 >F7 >F7 >F7 >F7 >F7 >F7 >F7 >F7 >F7 >F7 >F7 >F7 >F7 >F7 >F7 >F7 >F7 >F7 >F7 >F7 >F7 >F7 >F7 >F7 >F7 >F7 >F7 >F7 >F7 >F7 >F7 >F7 >F7 >F7 >F7 >F7 >F7 >F7 >F7 >F7 >F7 >F7 >F7 >F7 >F7 >F7 >F7 >F7 >F7 >F7 >F7 >F7 >F7 >F7 >F7 >F7 >F7 >F7 >F7 >F7 >F7 >F7 >F7 >F7 >F7 >F7 >F7 >F7 >F7 >F7 >F7 >F7 >F7 >F7 >F7 >F7 >F7 >F7 >F7 >F7 >F7 >F7 >F7 F7 F7 F7 F7 F7? F7? F7? F7? F7? F7? F7? F7? F7? F7? F7? F7? F7? F7? F7? F7? F7? F7? F7? F7? F7? F7? F7? F7? F7? F7? F7? F7? F7? F7? F7? F7? F7? F7? F7? F7? F7? F7? F7? F7? F7? F7? F7? F7? F7? F7? F7? F7? F7? F7? F7? F7? F7? F7? F7? F7? F7? F7? F7? F7? F7? F7? F7? F7? F7? F7? F7? F7? F7? F7? F7? F7? F7? F7? F7? F7? F7? F7? F7? F7? F7? F7? F7? F7? F7? F7? F7? F7? F7? F7? F7? F7? F7? F7? F7? F7? F7? F7? F7? F7? F7? F7? F7? F7? F7? F7? F7? F7? F7? F7? F7? F7? F7? F7? F7? F7? F7? F7? F7? F7? F7? F7? F7? F7? F7? F7? F7? F7? F7? F7? F7? F7? F7? F7? F7? F7? F7? F7? F7? F7? F7? F7? F7? F7? F7? F7? F7? F7? F7? F7? F7? F7? F7? F7? F7? F7? F7? F7? F7? F7? F7? F7? F7? F7? F7? F7? F7? F7? F7? F7? F7? F7? F7? F7? F7? F7? F7? F7? F7? F7? F7? F7? F7? F7? F7? F7? F7? F7? F7? F7? F7? F7? F7? F7? F7? F7? F7? F7? F7? F7? F7? F7? F7? F7? F7? F7? F7? F7? F7? F7? F7? F7? F7? F7? F7? F7? F7? F7? F7? F7? F7? F7? F7? F7? F7? F7? F7? F7? F7? F7? F7? F7? F7? F7? F7? F7? F7? F7? F7? F7? F7? F7? F7? F7? F7? F7? F7? F7? F7? F7? F7? F7? F7? F7? F7? F7? F7? F7? F7? F7? F7? F7? F7? F7? F7? F7? F7? F7? F7? F7? F7? F7? F7? F7? F7? F7? F7? F7? F7? F7? F7? F7? F7? F7? F7? F7? F7? F7? F7? F7? F7? F7? F7? F7? F7? F7? F7? F7? F7? F7? F7? F7? F7? F7? F7? F7? F7? F7? F7? F7? F7? F7? F7? F7? F7? F7? F7? F7? F7? F7? F7? F7? F7? F7? F7? F7? F7? F7? F7? F7? F7? F7? F7? F7? F7? F7? F7? F7? F7? F7? F7? F7? F7? F7? F7? F7? F7? F7? F7? F7? F7? F7? F7? F7? F7? F7? F7? F7? F7? F7? F7? F7? F7? F7? F7? F7? F7? 7? ? ? ? H3? H3? H3? H3? H3? H3? H3? H3? H3? H3? H3? H3? H3? H3? H3? H3? H3? H3? H3? H3? H3? H3? H3? H3? H3? H3? H3? H3? H3? H3? H3? H3? H3? H3? H3? H3? H3? H3? H3? H3? H3? H3? H3? H3? H3? H3? H3? H3? H3? H3? H3? H3? H3? H3? H3? H3? H3? H3? H3? H3? H3? H3? H3? H3? H3? H3? H3? H3? H3? H3? H3? H3? H3? H3? H3? H3? H3? H3? H3? H3? H3? H3? H3? H3? H3? H3? H3? H3? H3? H3? H3? H3? H3? H3? H3? H3? H3? H3? H3? H3? H3? H3? H3? H3? H3? H3? H3? H3? H3? H3? H3? H3? H3? H3? H3? H3? H3? H3? H3? H3? H3? H3? H3? H3? H3? H3? H3? H3? H3? H3? H3? H3? H3? H3? H3? H3? H3? H3? H3? H3? H3? H3? H3? H3? H3? H3? H3? H3? H3? H3? H3? H3? H3? H3? H3? H3? H3? H3? H3? H3? H3? H3? H3? H3? H3? H3? H3? H3? H3? H3? H3? H3? H3? H3? H3? H3? H3? H3? H3? H3? H3? 3? 3? 3? 3? K3? K3? K3? K3? K3? K3? K3? K3? K3? K3? K3? K3? K3? K3? K3? K3? K3? K3? K3? K3? K3? K3? K3? K3? K3? K3? K3? K3? K3? K3? K3? K3? K3? K3? K3? K3? K3? K3? K3? K3? K3? K3? K3? K3? K3? K3? K3? K3? K3? K3? K3? K3? K3? K3? K3? K3? K3? K3? K3? K3? K3? K3? K3? K3? K3? K3? K3? K3? K3? K3? K3? K3? K3? K3? K3? K3? K3? K3? K3? K3? K3? K3? K3? K3? K3? K3? K3? K3? K3? K3? K3? K3? K3? K3? K3? K3? K3? K3? K3? K3? K3? K3? K3? K3? K3? K3? K3? K3? K3? K3? K3? K3? K3? K3? K3? K3? K3? K3? K3? K3? K3? K3? K3? K3? K3? K3? K3? K3? K3? K3? K3? K3? K3? K3? K3? K3? K3? K3? K3? K3? K3? K3? K3? K3? K3? K3? K3? K3? K3? K3? K3? K3? K3? K3? K3? K3? K3? K3? K3? K3? K3? K3? K3? K3? K3? K3? K3? K3? K3? K3? K3? K3? K3? K3? K3? K3? K3? K3? K3? K3? K3? ? ? ? ?E5 ?E5 ?E5 ?E5 ?E5 ?E5 ?E5 ?E5 ?E5 ?E5 ?E5 ?E5 ?E5 ?E5 ?E5 ?E5 ?E5 ?E5 ?E5 ?E5 ?E5 ?E5 ?E5 ?E5 ?E5 ?E5 ?E5 ?E5 ?E5 ?E5 ?E5 ?E5 ?E5 ?E5 ?E5 ?E5 ?E5 ?E5 ?E5 ?E5 ?E5 ?E5 ?E5 ?E5 ?E5 ?E5 ?E5 ?E5 ?E5 ?E5 ?E5 ?E5 ?E5 ?E5 ?E5 ?E5 ?E5 ?E5 ?E5 ?E5 ?E5 ?E5 ?E5 ?E5 ?E5 ?E5 ?E5 ?E5 ?E5 ?E5 ?E5 ?E5 ?E5 ?E5 ?E5 ?E5 ?E5 ?E5 ?E5 ?E5 ?E5 ?E5 ?E5 ?E5 ?E5 ?E5 ?E5 ?E5 ?E5 ?E5 ?E5 ?E5 ?E5 ?E5 ?E5 ?E5 ?E5 ?E5 ?E5 ?E5 ?E5 ?E5 ?E5 ?E5 ?E5 ?E5 ?E5 ?E5 ?E5 ?E5 ?E5 ?E5 ?E5 ?E5 ?E5 ?E5 ?E5 ?E5 ?E5 ?E5 ?E5 ?E5 ?E5 ?E5 ?E5 ?E5 ?E5 ?E5 ?E5 ?E5 ?E5 ?E5 ?E5 ?E5 ?E5 ?E5 ?E5 ?E5 ?E5 ?E5 ?E5 ?E5 ?E5 ?E5 ?E5 ?E5 ?E5 ?E5 ?E5 ?E5 ?E5 ?E5 ?E5 ?E5 ?E5 ?E5 ?E5 ?E5 ?E5 ?E5 ?E5 ?E5 ?E5 ?E5 ?E5 ?E5 ?E5 ?E5 ?E5 ?E5 ?E5 ?E5 ?E5 ?E5 ?E5 ?E5 ?E5 ?E5 ?E5 ?E5 ?E5 ?E5 ?E5 ?E5 ?E5 ?E5 E5 AE5 AE5 AE5 AE5 AE5 AE5 AE5 AE5 AE5 AE5 AE5 AE5 AE5 AE5 AE5 AE5 AE5 AE5 AE5 AE5 AE5 AE5 AE5 AE5 AE5 AE5 AE5 AE5 AE5 AE5 AE5 AE5 AE5 AE5 AE5 AE5 AE5 AE5 AE5 AE5 AE5 AE5 AE5 AE5 AE5 AE5 AE5 AE5 AE5 AE5 AE5 AE5 AE5 AE5 AE5 AE5 AE5 AE5 AE5 AE5 AE5 AE5 AE5 AE5 AE5 AE5 AE5 AE5 AE5 AE5 AE5 AE5 AE5 AE5 AE5 AE5 AE5 AE5 AE5 AE5 AE5 AE5 AE5 AE5 AE5 AE5 AE5 AE5 AE5 AE5 AE5 AE5 AE5 AE5 AE5 AE5 AE5 AE5 AE5 AE5 AE5 AE5 AE5 AE5 AE5 AE5 AE5 AE5 AE5 AE5 AE5 AE5 AE5 AE5 AE5 AE5 AE5 AE5 AE5 AE5 AE5 AE5 AE5 AE5 AE5 AE5 AE5 AE5 AE5 AE5 AE5 AE5 AE5 AE5 AE5 AE5 AE5 AE5 AE5 AE5 AE5 AE5 AE5 AE5 AE5 AE5 AE5 AE5 AE5 AE5 AE5 AE5 AE5 AE5 AE5 AE5 AE5 AE5 AE5 AE5 AE5 AE5 AE5 AE5 AE5 AE5 AE5 AE5 AE5 AE5 AE5 AE5 AE5 AE5 AE5 AE5 AE5 AE5 AE5 AE5 AE5 E5 E5 E5 ?E5 ?E5 ?E5 ?E5 ?E5 ?E5 ?E5 ?E5 ?E5 ?E5 ?E5 ?E5 ?E5 ?E5 ?E5 ?E5 ?E5 ?E5 ?E5 ?E5 ?E5 ?E5 ?E5 ?E5 ?E5 ?E5 ?E5 ?E5 ?E5 ?E5 ?E5 ?E5 ?E5 ?E5 ?E5 ?E5 ?E5 ?E5 ?E5 ?E5 ?E5 ?E5 ?E5 ?E5 ?E5 ?E5 ?E5 ?E5 ?E5 ?E5 ?E5 ?E5 ?E5 ?E5 ?E5 ?E5 ?E5 ?E5 ?E5 ?E5 ?E5 ?E5 ?E5 ?E5 ?E5 ?E5 ?E5 ?E5 ?E5 ?E5 ?E5 ?E5 ?E5 ?E5 ?E5 ?E5 ?E5 ?E5 ?E5 ?E5 ?E5 ?E5 ?E5 ?E5 ?E5 ?E5 ?E5 ?E5 ?E5 ?E5 ?E5 ?E5 ?E5 ?E5 ?E5 ?E5 ?E5 ?E5 ?E5 ?E5 ?E5 ?E5 ?E5 ?E5 ?E5 ?E5 ?E5 ?E5 ?E5 ?E5 ?E5 ?E5 ?E5 ?E5 ?E5 ?E5 ?E5 ?E5 ?E5 ?E5 ?E5 ?E5 ?E5 ?E5 ?E5 ?E5 ?E5 ?E5 ?E5 ?E5 ?E5 ?E5 ?E5 ?E5 ?E5 ?E5 ?E5 ?E5 ?E5 ?E5 ?E5 ?E5 ?E5 ?E5 ?E5 ?E5 ?E5 ?E5 ?E5 ?E5 ?E5 ?E5 ?E5 ?E5 ?E5 ?E5 ?E5 ?E5 ?E5 ?E5 ?E5 ?E5 ?E5 ?E5 ?E5 ?E5 ?E5 ?E5 ?E5 ?E5 ?E5 ?E5 ?E5 ?E5 ?E5 ?E5 ?E5 ?E5 ?E5 ?E5 ?E5 E5 E5 E5 E5 <E5 <E5 <E5 <E5 <E5 <E5 <E5 <E5 <E5 <E5 <E5 <E5 <E5 <E5 <E5 <E5 <E5 <E5 <E5 <E5 <E5 <E5 <E5 <E5 <E5 <E5 <E5 <E5 <E5 <E5 <E5 <E5 <E5 <E5 <E5 <E5 <E5 <E5 <E5 <E5 <E5 <E5 <E5 <E5 <E5 <E5 <E5 <E5 <E5 <E5 <E5 <E5 <E5 <E5 <E5 <E5 <E5 <E5 <E5 <E5 <E5 <E5 <E5 <E5 <E5 <E5 <E5 <E5 <E5 <E5 <E5 <E5 <E5 <E5 <E5 <E5 <E5 <E5 <E5 <E5 <E5 <E5 <E5 <E5 <E5 <E5 <E5 <E5 <E5 <E5 <E5 <E5 <E5 <E5 <E5 <E5 <E5 <E5 <E5 <E5 <E5 <E5 <E5 <E5 <E5 <E5 <E5 <E5 <E5 <E5 <E5 <E5 <E5 <E5 <E5 <E5 <E5 <E5 <E5 <E5 <E5 <E5 <E5 <E5 <E5 <E5 <E5 <E5 <E5 <E5 <E5 <E5 <E5 <E5 <E5 <E5 <E5 <E5 <E5 <E5 <E5 <E5 <E5 <E5 <E5 <E5 <E5 <E5 <E5 <E5 <E5 <E5 <E5 <E5 <E5 <E5 <E5 <E5 <E5 <E5 <E5 <E5 <E5 <E5 <E5 <E5 <E5 <E5 <E5 <E5 <E5 <E5 <E5 <E5 <E5 <E5 <E5 <E5 <E5 <E5 <E5 E5 E5 E5 E5 E5> E5> E5> E5> E5> E5> E5> E5> E5> E5> E5> E5> E5> E5> E5> E5> E5> E5> E5> E5> E5> E5> E5> E5> E5> E5> E5> E5> E5> E5> E5> E5> E5> E5> E5> E5> E5> E5> E5> E5> E5> E5> E5> E5> E5> E5> E5> E5> E5> E5> E5> E5> E5> E5> E5> E5> E5> E5> E5> E5> E5> E5> E5> E5> E5> E5> E5> E5> E5> E5> E5> E5> E5> E5> E5> E5> E5> E5> E5> E5> E5> E5> E5> E5> E5> E5> E5> E5> E5> E5> E5> E5> E5> E5> E5> E5> E5> E5> E5> E5> E5> E5> E5> E5> E5> E5> E5> E5> E5> E5> E5> E5> E5> E5> E5> E5> E5> E5> E5> E5> E5> E5> E5> E5> E5> E5> E5> E5> E5> E5> E5> E5> E5> E5> E5> E5> E5> E5> E5> E5> E5> E5> E5> E5> E5> E5> E5> E5> E5> E5> E5> E5> E5> E5> E5> E5> E5> E5> E5> E5> E5> E5> E5> E5> E5> E5> E5> E5> E5> E5> E5> E5> E5> E5> E5> E5> E5> E5> E5> E5> E5> E5> E5> E5> E5> 5> E5> E5> E5> E5> E5> E5> E5> E5> E5> E5> E5> E5> E5> E5> E5> E5> E5> E5> E5> E5> E5> E5> E5> E5> E5> E5> E5> E5> E5> E5> E5> E5> E5> E5> E5> E5> E5> E5> E5> E5> E5> E5> E5> E5> E5> E5> E5> E5> E5> E5> E5> E5> E5> E5> E5> E5> E5> E5> E5> E5> E5> E5> E5> E5> E5> E5> E5> E5> E5> E5> E5> E5> E5> E5> E5> E5> E5> E5> E5> E5> E5> E5> E5> E5> E5> E5> E5> E5> E5> E5> E5> E5> E5> E5> E5> E5> E5> E5> E5> E5> E5> E5> E5> E5> E5> E5> E5> E5> E5> E5> E5> E5> E5> E5> E5> E5> E5> E5> E5> E5> E5> E5> E5> E5> E5> E5> E5> E5> E5> E5> E5> E5> E5> E5> E5> E5> E5> E5> E5> E5> E5> E5> E5> E5> E5> E5> E5> E5> E5> E5> E5> E5> E5> E5> E5> E5> E5> E5> E5> E5> E5> E5> E5> E5> E5> E5> E5> E5> E5> E5> E5> E5> E5> E5> E5> E5> E5> E5> E5> E5> E5> > > > > F2> F2> F2> F2> F2> F2> F2> F2> F2> F2> F2> F2> F2> F2> F2> F2> F2> F2> F2> F2> F2> F2> F2> F2> F2> F2> F2> F2> F2> F2> F2> F2> F2> F2> F2> F2> F2> F2> F2> F2> F2> F2> F2> F2> F2> F2> F2> F2> F2> F2> F2> F2> F2> F2> F2> F2> F2> F2> F2> F2> F2> F2> F2> F2> F2> F2> F2> F2> F2> F2> F2> F2> F2> F2> F2> F2> F2> F2> F2> F2> F2> F2> F2> F2> F2> F2> F2> F2> F2> F2> F2> F2> F2> F2> F2> F2> F2> F2> F2> F2> F2> F2> F2> F2> F2> F2> F2> F2> F2> F2> F2> F2> F2> F2> F2> F2> F2> F2> F2> F2> F2> F2> F2> F2> F2> F2> F2> F2> F2> F2> F2> F2> F2> F2> F2> F2> F2> F2> F2> F2> F2> F2> F2> F2> F2> F2> F2> F2> F2> F2> F2> F2> F2> F2> F2> F2> F2> F2> F2> F2> F2> F2> F2> F2> F2> F2> F2> F2> F2> F2> F2> F2> F2> F2> F2> F2> F2> F2> F2> F2> F2> 2> 2> 2> J2> J2> J2> J2> J2> J2> J2> J2> J2> J2> J2> J2> J2> J2> J2> J2> J2> J2> J2> J2> J2> J2> J2> J2> J2> J2> J2> J2> J2> J2> J2> J2> J2> J2> J2> J2> J2> J2> J2> J2> J2> J2> J2> J2> J2> J2> J2> J2> J2> J2> J2> J2> J2> J2> J2> J2> J2> J2> J2> J2> J2> J2> J2> J2> J2> J2> J2> J2> J2> J2> J2> J2> J2> J2> J2> J2> J2> J2> J2> J2> J2> J2> J2> J2> J2> J2> J2> J2> J2> J2> J2> J2> J2> J2> J2> J2> J2> J2> J2> J2> J2> J2> J2> J2> J2> J2> J2> J2> J2> J2> J2> J2> J2> J2> J2> J2> J2> J2> J2> J2> J2> J2> J2> J2> J2> J2> J2> J2> J2> J2> J2> J2> J2> J2> J2> J2> J2> J2> J2> J2> J2> J2> J2> J2> J2> J2> J2> J2> J2> J2> J2> J2> J2> J2> J2> J2> J2> J2> J2> J2> J2> J2> J2> J2> J2> J2> J2> J2> J2> J2> J2> J2> J2> J2> J2> J2> J2> J2> J2> J2> J2> 2> > > > >C3 >C3 >C3 >C3 >C3 >C3 >C3 >C3 >C3 >C3 >C3 >C3 >C3 >C3 >C3 >C3 >C3 >C3 >C3 >C3 >C3 >C3 >C3 >C3 >C3 >C3 >C3 >C3 >C3 >C3 >C3 >C3 >C3 >C3 >C3 >C3 >C3 >C3 >C3 >C3 >C3 >C3 >C3 >C3 >C3 >C3 >C3 >C3 >C3 >C3 >C3 >C3 >C3 >C3 >C3 >C3 >C3 >C3 >C3 >C3 >C3 >C3 >C3 >C3 >C3 >C3 >C3 >C3 >C3 >C3 >C3 >C3 >C3 >C3 >C3 >C3 >C3 >C3 >C3 >C3 >C3 >C3 >C3 >C3 >C3 >C3 >C3 >C3 >C3 >C3 >C3 >C3 >C3 >C3 >C3 >C3 >C3 >C3 >C3 >C3 >C3 >C3 >C3 >C3 >C3 >C3 >C3 >C3 >C3 >C3 >C3 >C3 >C3 >C3 >C3 >C3 >C3 >C3 >C3 >C3 >C3 >C3 >C3 >C3 >C3 >C3 >C3 >C3 >C3 >C3 >C3 >C3 >C3 >C3 >C3 >C3 >C3 >C3 >C3 >C3 >C3 >C3 >C3 >C3 >C3 >C3 >C3 >C3 >C3 >C3 >C3 >C3 >C3 >C3 >C3 >C3 >C3 >C3 >C3 >C3 >C3 >C3 >C3 >C3 >C3 >C3 >C3 >C3 >C3 >C3 >C3 >C3 >C3 >C3 >C3 >C3 >C3 >C3 >C3 >C3 >C3 >C3 >C3 >C3 >C3 >C3 ?C3 ?C3 ?C3 ?C3 ?C3 ?C3 ?C3 ?C3 ?C3 ?C3 ?C3 ?C3 ?C3 ?C3 ?C3 ?C3 ?C3 ?C3 ?C3 ?C3 ?C3 ?C3 ?C3 ?C3 ?C3 ?C3 ?C3 ?C3 ?C3 ?C3 ?C3 ?C3 ?C3 ?C3 ?C3 ?C3 ?C3 ?C3 ?C3 ?C3 ?C3 ?C3 ?C3 ?C3 ?C3 ?C3 ?C3 ?C3 ?C3 ?C3 ?C3 ?C3 ?C3 ?C3 ?C3 ?C3 ?C3 ?C3 ?C3 ?C3 ?C3 ?C3 ?C3 ?C3 ?C3 ?C3 ?C3 ?C3 ?C3 ?C3 ?C3 ?C3 ?C3 ?C3 ?C3 ?C3 ?C3 ?C3 ?C3 ?C3 ?C3 ?C3 ?C3 ?C3 ?C3 ?C3 ?C3 ?C3 ?C3 ?C3 ?C3 ?C3 ?C3 ?C3 ?C3 ?C3 ?C3 ?C3 ?C3 ?C3 ?C3 ?C3 ?C3 ?C3 ?C3 ?C3 ?C3 ?C3 ?C3 ?C3 ?C3 ?C3 ?C3 ?C3 ?C3 ?C3 ?C3 ?C3 ?C3 ?C3 ?C3 ?C3 ?C3 ?C3 ?C3 ?C3 ?C3 ?C3 ?C3 ?C3 ?C3 ?C3 ?C3 ?C3 ?C3 ?C3 ?C3 ?C3 ?C3 ?C3 ?C3 ?C3 ?C3 ?C3 ?C3 ?C3 ?C3 ?C3 ?C3 ?C3 ?C3 ?C3 ?C3 ?C3 ?C3 ?C3 ?C3 ?C3 ?C3 ?C3 ?C3 ?C3 ?C3 ?C3 ?C3 ?C3 ?C3 ?C3 ?C3 ?C3 ?C3 ?C3 ?C3 ?C3 ?C3 ?C3 ?C3 ?C3 ?C3 ?C3 ?C3 C3 C3 C3 C3 >C3 >C3 >C3 >C3 >C3 >C3 >C3 >C3 >C3 >C3 >C3 >C3 >C3 >C3 >C3 >C3 >C3 >C3 >C3 >C3 >C3 >C3 >C3 >C3 >C3 >C3 >C3 >C3 >C3 >C3 >C3 >C3 >C3 >C3 >C3 >C3 >C3 >C3 >C3 >C3 >C3 >C3 >C3 >C3 >C3 >C3 >C3 >C3 >C3 >C3 >C3 >C3 >C3 >C3 >C3 >C3 >C3 >C3 >C3 >C3 >C3 >C3 >C3 >C3 >C3 >C3 >C3 >C3 >C3 >C3 >C3 >C3 >C3 >C3 >C3 >C3 >C3 >C3 >C3 >C3 >C3 >C3 >C3 >C3 >C3 >C3 >C3 >C3 >C3 >C3 >C3 >C3 >C3 >C3 >C3 >C3 >C3 >C3 >C3 >C3 >C3 >C3 >C3 >C3 >C3 >C3 >C3 >C3 >C3 >C3 >C3 >C3 >C3 >C3 >C3 >C3 >C3 >C3 >C3 >C3 >C3 >C3 >C3 >C3 >C3 >C3 >C3 >C3 >C3 >C3 >C3 >C3 >C3 >C3 >C3 >C3 >C3 >C3 >C3 >C3 >C3 >C3 >C3 >C3 >C3 >C3 >C3 >C3 >C3 >C3 >C3 >C3 >C3 >C3 >C3 >C3 >C3 >C3 >C3 >C3 >C3 >C3 >C3 >C3 >C3 >C3 >C3 >C3 >C3 >C3 >C3 >C3 >C3 >C3 >C3 >C3 >C3 >C3 >C3 >C3 >C3 C3 C3 C3 C3 :C3 :C3 :C3 :C3 :C3 :C3 :C3 :C3 :C3 :C3 :C3 :C3 :C3 :C3 :C3 :C3 :C3 :C3 :C3 :C3 :C3 :C3 :C3 :C3 :C3 :C3 :C3 :C3 :C3 :C3 :C3 :C3 :C3 :C3 :C3 :C3 :C3 :C3 :C3 :C3 :C3 :C3 :C3 :C3 :C3 :C3 :C3 :C3 :C3 :C3 :C3 :C3 :C3 :C3 :C3 :C3 :C3 :C3 :C3 :C3 :C3 :C3 :C3 :C3 :C3 :C3 :C3 :C3 :C3 :C3 :C3 :C3 :C3 :C3 :C3 :C3 :C3 :C3 :C3 :C3 :C3 :C3 :C3 :C3 :C3 :C3 :C3 :C3 :C3 :C3 :C3 :C3 :C3 :C3 :C3 :C3 :C3 :C3 :C3 :C3 :C3 :C3 :C3 :C3 :C3 :C3 :C3 :C3 :C3 :C3 :C3 :C3 :C3 :C3 :C3 :C3 :C3 :C3 :C3 :C3 :C3 :C3 :C3 :C3 :C3 :C3 :C3 :C3 :C3 :C3 :C3 :C3 :C3 :C3 :C3 :C3 :C3 :C3 :C3 :C3 :C3 :C3 :C3 :C3 :C3 :C3 :C3 :C3 :C3 :C3 :C3 :C3 :C3 :C3 :C3 :C3 :C3 :C3 :C3 :C3 :C3 :C3 :C3 :C3 :C3 :C3 :C3 :C3 :C3 :C3 :C3 :C3 :C3 :C3 :C3 :C3 :C3 :C3 :C3 :C3 :C3 C3 C3 C3 C3< C3< C3< C3< C3< C3< C3< C3< C3< C3< C3< C3< C3< C3< C3< C3< C3< C3< C3< C3< C3< C3< C3< C3< C3< C3< C3< C3< C3< C3< C3< C3< C3< C3< C3< C3< C3< C3< C3< C3< C3< C3< C3< C3< C3< C3< C3< C3< C3< C3< C3< C3< C3< C3< C3< C3< C3< C3< C3< C3< C3< C3< C3< C3< C3< C3< C3< C3< C3< C3< C3< C3< C3< C3< C3< C3< C3< C3< C3< C3< C3< C3< C3< C3< C3< C3< C3< C3< C3< C3< C3< C3< C3< C3< C3< C3< C3< C3< C3< C3< C3< C3< C3< C3< C3< C3< C3< C3< C3< C3< C3< C3< C3< C3< C3< C3< C3< C3< C3< C3< C3< C3< C3< C3< C3< C3< C3< C3< C3< C3< C3< C3< C3< C3< C3< C3< C3< C3< C3< C3< C3< C3< C3< C3< C3< C3< C3< C3< C3< C3< C3< C3< C3< C3< C3< C3< C3< C3< C3< C3< C3< C3< C3< C3< C3< C3< C3< C3< C3< C3< C3< C3< C3< C3< C3< C3< C3< C3< C3< C3< C3< C3< C3< C3< C3< C3< 3< C3< C3< C3< C3< C3< C3< C3< C3< C3< C3< C3< C3< C3< C3< C3< C3< C3< C3< C3< C3< C3< C3< C3< C3< C3< C3< C3< C3< C3< C3< C3< C3< C3< C3< C3< C3< C3< C3< C3< C3< C3< C3< C3< C3< C3< C3< C3< C3< C3< C3< C3< C3< C3< C3< C3< C3< C3< C3< C3< C3< C3< C3< C3< C3< C3< C3< C3< C3< C3< C3< C3< C3< C3< C3< C3< C3< C3< C3< C3< C3< C3< C3< C3< C3< C3< C3< C3< C3< C3< C3< C3< C3< C3< C3< C3< C3< C3< C3< C3< C3< C3< C3< C3< C3< C3< C3< C3< C3< C3< C3< C3< C3< C3< C3< C3< C3< C3< C3< C3< C3< C3< C3< C3< C3< C3< C3< C3< C3< C3< C3< C3< C3< C3< C3< C3< C3< C3< C3< C3< C3< C3< C3< C3< C3< C3< C3< C3< C3< C3< C3< C3< C3< C3< C3< C3< C3< C3< C3< C3< C3< C3< C3< C3< C3< C3< C3< C3< C3< C3< C3< C3< C3< C3< C3< C3< C3< C3< C3< C3< C3< C3< < < < E0< E0< E0< E0< E0< E0< E0< E0< E0< E0< E0< E0< E0< E0< E0< E0< E0< E0< E0< E0< E0< E0< E0< E0< E0< E0< E0< E0< E0< E0< E0< E0< E0< E0< E0< E0< E0< E0< E0< E0< E0< E0< E0< E0< E0< E0< E0< E0< E0< E0< E0< E0< E0< E0< E0< E0< E0< E0< E0< E0< E0< E0< E0< E0< E0< E0< E0< E0< E0< E0< E0< E0< E0< E0< E0< E0< E0< E0< E0< E0< E0< E0< E0< E0< E0< E0< E0< E0< E0< E0< E0< E0< E0< E0< E0< E0< E0< E0< E0< E0< E0< E0< E0< E0< E0< E0< E0< E0< E0< E0< E0< E0< E0< E0< E0< E0< E0< E0< E0< E0< E0< E0< E0< E0< E0< E0< E0< E0< E0< E0< E0< E0< E0< E0< E0< E0< E0< E0< E0< E0< E0< E0< E0< E0< E0< E0< E0< E0< E0< E0< E0< E0< E0< E0< E0< E0< E0< E0< E0< E0< E0< E0< E0< E0< E0< E0< E0< E0< E0< E0< E0< E0< E0< E0< E0< E0< E0< E0< E0< E0< E0< 0< 0< 0< 0< H0< H0< H0< H0< H0< H0< H0< H0< H0< H0< H0< H0< H0< H0< H0< H0< H0< H0< H0< H0< H0< H0< H0< H0< H0< H0< H0< H0< H0< H0< H0< H0< H0< H0< H0< H0< H0< H0< H0< H0< H0< H0< H0< H0< H0< H0< H0< H0< H0< H0< H0< H0< H0< H0< H0< H0< H0< H0< H0< H0< H0< H0< H0< H0< H0< H0< H0< H0< H0< H0< H0< H0< H0< H0< H0< H0< H0< H0< H0< H0< H0< H0< H0< H0< H0< H0< H0< H0< H0< H0< H0< H0< H0< H0< H0< H0< H0< H0< H0< H0< H0< H0< H0< H0< H0< H0< H0< H0< H0< H0< H0< H0< H0< H0< H0< H0< H0< H0< H0< H0< H0< H0< H0< H0< H0< H0< H0< H0< H0< H0< H0< H0< H0< H0< H0< H0< H0< H0< H0< H0< H0< H0< H0< H0< H0< H0< H0< H0< H0< H0< H0< H0< H0< H0< H0< H0< H0< H0< H0< H0< H0< H0< H0< H0< H0< H0< H0< H0< H0< H0< H0< H0< H0< H0< H0< H0< H0< H0< H0< H0< H0< < < < < B<2 B<2 B<2 B<2 B<2 B<2 B<2 B<2 B<2 B<2 B<2 B<2 B<2 B<2 B<2 B<2 B<2 B<2 B<2 B<2 B<2 B<2 B<2 B<2 B<2 B<2 B<2 B<2 B<2 B<2 B<2 B<2 B<2 B<2 B<2 B<2 B<2 B<2 B<2 B<2 B<2 B<2 B<2 B<2 B<2 B<2 B<2 B<2 B<2 B<2 B<2 B<2 B<2 B<2 B<2 B<2 B<2 B<2 B<2 B<2 B<2 B<2 B<2 B<2 B<2 B<2 B<2 B<2 B<2 B<2 B<2 B<2 B<2 B<2 B<2 B<2 B<2 B<2 B<2 B<2 B<2 B<2 B<2 B<2 B<2 B<2 B<2 B<2 B<2 B<2 B<2 B<2 B<2 B<2 B<2 B<2 B<2 B<2 B<2 B<2 B<2 B<2 B<2 B<2 B<2 B<2 B<2 B<2 B<2 B<2 B<2 B<2 B<2 B<2 B<2 B<2 B<2 B<2 B<2 B<2 B<2 B<2 B<2 B<2 B<2 B<2 B<2 B<2 B<2 B<2 B<2 B<2 B<2 B<2 B<2 B<2 B<2 B<2 B<2 B<2 B<2 B<2 B<2 B<2 B<2 B<2 B<2 B<2 B<2 B<2 B<2 B<2 B<2 B<2 B<2 B<2 B<2 B<2 B<2 B<2 B<2 B<2 B<2 B<2 B<2 B<2 B<2 B<2 B<2 B<2 B<2 B<2 B<2 B<2 B<2 B<2 B<2 B<2 B<2 B<2 B<2 <2 <2 <2 E<2 E<2 E<2 E<2 E<2 E<2 E<2 E<2 E<2 E<2 E<2 E<2 E<2 E<2 E<2 E<2 E<2 E<2 E<2 E<2 E<2 E<2 E<2 E<2 E<2 E<2 E<2 E<2 E<2 E<2 E<2 E<2 E<2 E<2 E<2 E<2 E<2 E<2 E<2 E<2 E<2 E<2 E<2 E<2 E<2 E<2 E<2 E<2 E<2 E<2 E<2 E<2 E<2 E<2 E<2 E<2 E<2 E<2 E<2 E<2 E<2 E<2 E<2 E<2 E<2 E<2 E<2 E<2 E<2 E<2 E<2 E<2 E<2 E<2 E<2 E<2 E<2 E<2 E<2 E<2 E<2 E<2 E<2 E<2 E<2 E<2 E<2 E<2 E<2 E<2 E<2 E<2 E<2 E<2 E<2 E<2 E<2 E<2 E<2 E<2 E<2 E<2 E<2 E<2 E<2 E<2 E<2 E<2 E<2 E<2 E<2 E<2 E<2 E<2 E<2 E<2 E<2 E<2 E<2 E<2 E<2 E<2 E<2 E<2 E<2 E<2 E<2 E<2 E<2 E<2 E<2 E<2 E<2 E<2 E<2 E<2 E<2 E<2 E<2 E<2 E<2 E<2 E<2 E<2 E<2 E<2 E<2 E<2 E<2 E<2 E<2 E<2 E<2 E<2 E<2 E<2 E<2 E<2 E<2 E<2 E<2 E<2 E<2 E<2 E<2 E<2 E<2 E<2 E<2 E<2 E<2 E<2 E<2 E<2 E<2 E<2 E<2 E<2 E<2 E<2 E<2 <2 <2 2 2 H92 H92 H92 H92 H92 H92 H92 H92 H92 H92 H92 H92 H92 H92 H92 H92 H92 H92 H92 H92 H92 H92 H92 H92 H92 H92 H92 H92 H92 H92 H92 H92 H92 H92 H92 H92 H92 H92 H92 H92 H92 H92 H92 H92 H92 H92 H92 H92 H92 H92 H92 H92 H92 H92 H92 H92 H92 H92 H92 H92 H92 H92 H92 H92 H92 H92 H92 H92 H92 H92 H92 H92 H92 H92 H92 H92 H92 H92 H92 H92 H92 H92 H92 H92 H92 H92 H92 H92 H92 H92 H92 H92 H92 H92 H92 H92 H92 H92 H92 H92 H92 H92 H92 H92 H92 H92 H92 H92 H92 H92 H92 H92 H92 H92 H92 H92 H92 H92 H92 H92 H92 H92 H92 H92 H92 H92 H92 H92 H92 H92 H92 H92 H92 H92 H92 H92 H92 H92 H92 H92 H92 H92 H92 H92 H92 H92 H92 H92 H92 H92 H92 H92 H92 H92 H92 H92 H92 H92 H92 H92 H92 H92 H92 H92 H92 H92 H92 H92 H92 H92 H92 H92 H92 H92 H92 H92 H92 H92 H92 H92 H92 92 92 92 92 J92 J92 J92 J92 J92 J92 J92 J92 J92 J92 J92 J92 J92 J92 J92 J92 J92 J92 J92 J92 J92 J92 J92 J92 J92 J92 J92 J92 J92 J92 J92 J92 J92 J92 J92 J92 J92 J92 J92 J92 J92 J92 J92 J92 J92 J92 J92 J92 J92 J92 J92 J92 J92 J92 J92 J92 J92 J92 J92 J92 J92 J92 J92 J92 J92 J92 J92 J92 J92 J92 J92 J92 J92 J92 J92 J92 J92 J92 J92 J92 J92 J92 J92 J92 J92 J92 J92 J92 J92 J92 J92 J92 J92 J92 J92 J92 J92 J92 J92 J92 J92 J92 J92 J92 J92 J92 J92 J92 J92 J92 J92 J92 J92 J92 J92 J92 J92 J92 J92 J92 J92 J92 J92 J92 J92 J92 J92 J92 J92 J92 J92 J92 J92 J92 J92 J92 J92 J92 J92 J92 J92 J92 J92 J92 J92 J92 J92 J92 J92 J92 J92 J92 J92 J92 J92 J92 J92 J92 J92 J92 J92 J92 J92 J92 J92 J92 J92 J92 J92 J92 J92 J92 J92 J92 J92 J92 J92 J92 J92 J92 J92 2 2 2 C:2 C:2 C:2 C:2 C:2 C:2 C:2 C:2 C:2 C:2 C:2 C:2 C:2 C:2 C:2 C:2 C:2 C:2 C:2 C:2 C:2 C:2 C:2 C:2 C:2 C:2 C:2 C:2 C:2 C:2 C:2 C:2 C:2 C:2 C:2 C:2 C:2 C:2 C:2 C:2 C:2 C:2 C:2 C:2 C:2 C:2 C:2 C:2 C:2 C:2 C:2 C:2 C:2 C:2 C:2 C:2 C:2 C:2 C:2 C:2 C:2 C:2 C:2 C:2 C:2 C:2 C:2 C:2 C:2 C:2 C:2 C:2 C:2 C:2 C:2 C:2 C:2 C:2 C:2 C:2 C:2 C:2 C:2 C:2 C:2 C:2 C:2 C:2 C:2 C:2 C:2 C:2 C:2 C:2 C:2 C:2 C:2 C:2 C:2 C:2 C:2 C:2 C:2 C:2 C:2 C:2 C:2 C:2 C:2 C:2 C:2 C:2 C:2 C:2 C:2 C:2 C:2 C:2 C:2 C:2 C:2 C:2 C:2 C:2 C:2 C:2 C:2 C:2 C:2 C:2 C:2 C:2 C:2 C:2 C:2 C:2 C:2 C:2 C:2 C:2 C:2 C:2 C:2 C:2 C:2 C:2 C:2 C:2 C:2 C:2 C:2 C:2 C:2 C:2 C:2 C:2 C:2 C:2 C:2 C:2 C:2 C:2 C:2 C:2 C:2 C:2 C:2 C:2 C:2 C:2 C:2 C:2 C:2 C:2 C:2 C:2 C:2 C:2 C:2 C:2 C:2 :2 :2 :2 :2 F:2 F:2 F:2 F:2 F:2 F:2 F:2 F:2 F:2 F:2 F:2 F:2 F:2 F:2 F:2 F:2 F:2 F:2 F:2 F:2 F:2 F:2 F:2 F:2 F:2 F:2 F:2 F:2 F:2 F:2 F:2 F:2 F:2 F:2 F:2 F:2 F:2 F:2 F:2 F:2 F:2 F:2 F:2 F:2 F:2 F:2 F:2 F:2 F:2 F:2 F:2 F:2 F:2 F:2 F:2 F:2 F:2 F:2 F:2 F:2 F:2 F:2 F:2 F:2 F:2 F:2 F:2 F:2 F:2 F:2 F:2 F:2 F:2 F:2 F:2 F:2 F:2 F:2 F:2 F:2 F:2 F:2 F:2 F:2 F:2 F:2 F:2 F:2 F:2 F:2 F:2 F:2 F:2 F:2 F:2 F:2 F:2 F:2 F:2 F:2 F:2 F:2 F:2 F:2 F:2 F:2 F:2 F:2 F:2 F:2 F:2 F:2 F:2 F:2 F:2 F:2 F:2 F:2 F:2 F:2 F:2 F:2 F:2 F:2 F:2 F:2 F:2 F:2 F:2 F:2 F:2 F:2 F:2 F:2 F:2 F:2 F:2 F:2 F:2 F:2 F:2 F:2 F:2 F:2 F:2 F:2 F:2 F:2 F:2 F:2 F:2 F:2 F:2 F:2 F:2 F:2 F:2 F:2 F:2 F:2 F:2 F:2 F:2 F:2 F:2 F:2 F:2 F:2 F:2 F:2 F:2 F:2 F:2 F:2 F:2 F:2 F:2 F:2 F:2 F:2 F:2 2 2 2 2 J72 J72 J72 J72 J72 J72 J72 J72 J72 J72 J72 J72 J72 J72 J72 J72 J72 J72 J72 J72 J72 J72 J72 J72 J72 J72 J72 J72 J72 J72 J72 J72 J72 J72 J72 J72 J72 J72 J72 J72 J72 J72 J72 J72 J72 J72 J72 J72 J72 J72 J72 J72 J72 J72 J72 J72 J72 J72 J72 J72 J72 J72 J72 J72 J72 J72 J72 J72 J72 J72 J72 J72 J72 J72 J72 J72 J72 J72 J72 J72 J72 J72 J72 J72 J72 J72 J72 J72 J72 J72 J72 J72 J72 J72 J72 J72 J72 J72 J72 J72 J72 J72 J72 J72 J72 J72 J72 J72 J72 J72 J72 J72 J72 J72 J72 J72 J72 J72 J72 J72 J72 J72 J72 J72 J72 J72 J72 J72 J72 J72 J72 J72 J72 J72 J72 J72 J72 J72 J72 J72 J72 J72 J72 J72 J72 J72 J72 J72 J72 J72 J72 J72 J72 J72 J72 J72 J72 J72 J72 J72 J72 J72 J72 J72 J72 J72 J72 J72 J72 J72 J72 J72 J72 J72 J72 J72 J72 J72 J72 J72 J72 72 72 72 72 K72 K72 K72 K72 K72 K72 K72 K72 K72 K72 K72 K72 K72 K72 K72 K72 K72 K72 K72 K72 K72 K72 K72 K72 K72 K72 K72 K72 K72 K72 K72 K72 K72 K72 K72 K72 K72 K72 K72 K72 K72 K72 K72 K72 K72 K72 K72 K72 K72 K72 K72 K72 K72 K72 K72 K72 K72 K72 K72 K72 K72 K72 K72 K72 K72 K72 K72 K72 K72 K72 K72 K72 K72 K72 K72 K72 K72 K72 K72 K72 K72 K72 K72 K72 K72 K72 K72 K72 K72 K72 K72 K72 K72 K72 K72 K72 K72 K72 K72 K72 K72 K72 K72 K72 K72 K72 K72 K72 K72 K72 K72 K72 K72 K72 K72 K72 K72 K72 K72 K72 K72 K72 K72 K72 K72 K72 K72 K72 K72 K72 K72 K72 K72 K72 K72 K72 K72 K72 K72 K72 K72 K72 K72 K72 K72 K72 K72 K72 K72 K72 K72 K72 K72 K72 K72 K72 K72 K72 K72 K72 K72 K72 K72 K72 K72 K72 K72 K72 K72 K72 K72 K72 K72 K72 K72 K72 K72 K72 K72 K72 K72 2 2 2 E62 E62 E62 E62 E62 E62 E62 E62 E62 E62 E62 E62 E62 E62 E62 E62 E62 E62 E62 E62 E62 E62 E62 E62 E62 E62 E62 E62 E62 E62 E62 E62 E62 E62 E62 E62 E62 E62 E62 E62 E62 E62 E62 E62 E62 E62 E62 E62 E62 E62 E62 E62 E62 E62 E62 E62 E62 E62 E62 E62 E62 E62 E62 E62 E62 E62 E62 E62 E62 E62 E62 E62 E62 E62 E62 E62 E62 E62 E62 E62 E62 E62 E62 E62 E62 E62 E62 E62 E62 E62 E62 E62 E62 E62 E62 E62 E62 E62 E62 E62 E62 E62 E62 E62 E62 E62 E62 E62 E62 E62 E62 E62 E62 E62 E62 E62 E62 E62 E62 E62 E62 E62 E62 E62 E62 E62 E62 E62 E62 E62 E62 E62 E62 E62 E62 E62 E62 E62 E62 E62 E62 E62 E62 E62 E62 E62 E62 E62 E62 E62 E62 E62 E62 E62 E62 E62 E62 E62 E62 E62 E62 E62 E62 E62 E62 E62 E62 E62 E62 E62 E62 E62 E62 E62 E62 E62 E62 E62 E62 E62 E62 62 62 62 62 H62 H62 H62 H62 H62 H62 H62 H62 H62 H62 H62 H62 H62 H62 H62 H62 H62 H62 H62 H62 H62 H62 H62 H62 H62 H62 H62 H62 H62 H62 H62 H62 H62 H62 H62 H62 H62 H62 H62 H62 H62 H62 H62 H62 H62 H62 H62 H62 H62 H62 H62 H62 H62 H62 H62 H62 H62 H62 H62 H62 H62 H62 H62 H62 H62 H62 H62 H62 H62 H62 H62 H62 H62 H62 H62 H62 H62 H62 H62 H62 H62 H62 H62 H62 H62 H62 H62 H62 H62 H62 H62 H62 H62 H62 H62 H62 H62 H62 H62 H62 H62 H62 H62 H62 H62 H62 H62 H62 H62 H62 H62 H62 H62 H62 H62 H62 H62 H62 H62 H62 H62 H62 H62 H62 H62 H62 H62 H62 H62 H62 H62 H62 H62 H62 H62 H62 H62 H62 H62 H62 H62 H62 H62 H62 H62 H62 H62 H62 H62 H62 H62 H62 H62 H62 H62 H62 H62 H62 H62 H62 H62 H62 H62 H62 H62 H62 H62 H62 H62 H62 H62 H62 H62 H62 H62 H62 H62 H62 H62 H62 H62 2 2 2  J90 J90 J90 J90 J90 J90 J90 J90 J90 J90 J90 J90 J90 J90 J90 J90 J90 J90 J90 J90 J90 J90 J90 J90 J90 J90 J90 J90 J90 J90 J90 J90 J90 J90 J90 J90 J90 J90 J90 J90 J90 J90 J90 J90 J90 J90 J90 J90 J90 J90 J90 J90 J90 J90 J90 J90 J90 J90 J90 J90 J90 J90 J90 J90 J90 J90 J90 J90 J90 J90 J90 J90 J90 J90 J90 J90 J90 J90 J90 J90 J90 J90 J90 J90 J90 J90 J90 J90 J90 J90 J90 J90 J90 J90 J90 J90 J90 J90 J90 J90 J90 J90 J90 J90 J90 J90 J90 J90 J90 J90 J90 J90 J90 J90 J90 J90 J90 J90 J90 J90 J90 J90 J90 J90 J90 J90 J90 J90 J90 J90 J90 J90 J90 J90 J90 J90 J90 J90 J90 J90 J90 J90 J90 J90 J90 J90 J90 J90 J90 J90 J90 J90 J90 J90 J90 J90 J90 J90 J90 J90 J90 J90 J90 J90 J90 J90 J90 J90 J90 J90 J90 J90 J90 J90 J90 J90 J90 J90 J90 J90 J90 90 90 90 N90 N90 N90 N90 N90 N90 N90 N90 N90 N90 N90 N90 N90 N90 N90 N90 N90 N90 N90 N90 N90 N90 N90 N90 N90 N90 N90 N90 N90 N90 N90 N90 N90 N90 N90 N90 N90 N90 N90 N90 N90 N90 N90 N90 N90 N90 N90 N90 N90 N90 N90 N90 N90 N90 N90 N90 N90 N90 N90 N90 N90 N90 N90 N90 N90 N90 N90 N90 N90 N90 N90 N90 N90 N90 N90 N90 N90 N90 N90 N90 N90 N90 N90 N90 N90 N90 N90 N90 N90 N90 N90 N90 N90 N90 N90 N90 N90 N90 N90 N90 N90 N90 N90 N90 N90 N90 N90 N90 N90 N90 N90 N90 N90 N90 N90 N90 N90 N90 N90 N90 N90 N90 N90 N90 N90 N90 N90 N90 N90 N90 N90 N90 N90 N90 N90 N90 N90 N90 N90 N90 N90 N90 N90 N90 N90 N90 N90 N90 N90 N90 N90 N90 N90 N90 N90 N90 N90 N90 N90 N90 N90 N90 N90 N90 N90 N90 N90 N90 N90 N90 N90 N90 N90 N90 N90 N90 N90 N90 N90 N90 N90 90    F.2 F.2 F.2 F.2 F.2 F.2 F.2 F.2 F.2 F.2 F.2 F.2 F.2 F.2 F.2 F.2 F.2 F.2 F.2 F.2 F.2 F.2 F.2 F.2 F.2 F.2 F.2 F.2 F.2 F.2 F.2 F.2 F.2 F.2 F.2 F.2 F.2 F.2 F.2 F.2 F.2 F.2 F.2 F.2 F.2 F.2 F.2 F.2 F.2 F.2 F.2 F.2 F.2 F.2 F.2 F.2 F.2 F.2 F.2 F.2 F.2 F.2 F.2 F.2 F.2 F.2 F.2 F.2 F.2 F.2 F.2 F.2 F.2 F.2 F.2 F.2 F.2 F.2 F.2 F.2 F.2 F.2 F.2 F.2 F.2 F.2 F.2 F.2 F.2 F.2 F.2 F.2 F.2 F.2 F.2 F.2 F.2 F.2 F.2 F.2 F.2 F.2 F.2 F.2 F.2 F.2 F.2 F.2 F.2 F.2 F.2 F.2 F.2 F.2 F.2 F.2 F.2 F.2 F.2 F.2 F.2 F.2 F.2 F.2 F.2 F.2 F.2 F.2 F.2 F.2 F.2 F.2 F.2 F.2 F.2 F.2 F.2 F.2 F.2 F.2 F.2 F.2 F.2 F.2 F.2 F.2 F.2 F.2 F.2 F.2 F.2 F.2 F.2 F.2 F.2 F.2 F.2 F.2 F.2 F.2 F.2 F.2 F.2 F.2 F.2 F.2 F.2 F.2 F.2 F.2 F.2 F.2 F.2 F.2 F.2 F.2 F.2 F.2 F.2 F.2 F.2 .2 .2 .2 .2 J.2 J.2 J.2 J.2 J.2 J.2 J.2 J.2 J.2 J.2 J.2 J.2 J.2 J.2 J.2 J.2 J.2 J.2 J.2 J.2 J.2 J.2 J.2 J.2 J.2 J.2 J.2 J.2 J.2 J.2 J.2 J.2 J.2 J.2 J.2 J.2 J.2 J.2 J.2 J.2 J.2 J.2 J.2 J.2 J.2 J.2 J.2 J.2 J.2 J.2 J.2 J.2 J.2 J.2 J.2 J.2 J.2 J.2 J.2 J.2 J.2 J.2 J.2 J.2 J.2 J.2 J.2 J.2 J.2 J.2 J.2 J.2 J.2 J.2 J.2 J.2 J.2 J.2 J.2 J.2 J.2 J.2 J.2 J.2 J.2 J.2 J.2 J.2 J.2 J.2 J.2 J.2 J.2 J.2 J.2 J.2 J.2 J.2 J.2 J.2 J.2 J.2 J.2 J.2 J.2 J.2 J.2 J.2 J.2 J.2 J.2 J.2 J.2 J.2 J.2 J.2 J.2 J.2 J.2 J.2 J.2 J.2 J.2 J.2 J.2 J.2 J.2 J.2 J.2 J.2 J.2 J.2 J.2 J.2 J.2 J.2 J.2 J.2 J.2 J.2 J.2 J.2 J.2 J.2 J.2 J.2 J.2 J.2 J.2 J.2 J.2 J.2 J.2 J.2 J.2 J.2 J.2 J.2 J.2 J.2 J.2 J.2 J.2 J.2 J.2 J.2 J.2 J.2 J.2 J.2 J.2 J.2 J.2 J.2 J.2 J.2 J.2 J.2 J.2 J.2 J.2 2 2 2 N+2 N+2 N+2 N+2 N+2 N+2 N+2 N+2 N+2 N+2 N+2 N+2 N+2 N+2 N+2 N+2 N+2 N+2 N+2 N+2 N+2 N+2 N+2 N+2 N+2 N+2 N+2 N+2 N+2 N+2 N+2 N+2 N+2 N+2 N+2 N+2 N+2 N+2 N+2 N+2 N+2 N+2 N+2 N+2 N+2 N+2 N+2 N+2 N+2 N+2 N+2 N+2 N+2 N+2 N+2 N+2 N+2 N+2 N+2 N+2 N+2 N+2 N+2 N+2 N+2 N+2 N+2 N+2 N+2 N+2 N+2 N+2 N+2 N+2 N+2 N+2 N+2 N+2 N+2 N+2 N+2 N+2 N+2 N+2 N+2 N+2 N+2 N+2 N+2 N+2 N+2 N+2 N+2 N+2 N+2 N+2 N+2 N+2 N+2 N+2 N+2 N+2 N+2 N+2 N+2 N+2 N+2 N+2 N+2 N+2 N+2 N+2 N+2 N+2 N+2 N+2 N+2 N+2 N+2 N+2 N+2 N+2 N+2 N+2 N+2 N+2 N+2 N+2 N+2 N+2 N+2 N+2 N+2 N+2 N+2 N+2 N+2 N+2 N+2 N+2 N+2 N+2 N+2 N+2 N+2 N+2 N+2 N+2 N+2 N+2 N+2 N+2 N+2 N+2 N+2 N+2 N+2 N+2 N+2 N+2 N+2 N+2 N+2 N+2 N+2 N+2 N+2 N+2 N+2 N+2 N+2 N+2 N+2 N+2 N+2 N+2 N+2 N+2 N+2 N+2 N+2 +2 +2 +2 +2 O+2 O+2 O+2 O+2 O+2 O+2 O+2 O+2 O+2 O+2 O+2 O+2 O+2 O+2 O+2 O+2 O+2 O+2 O+2 O+2 O+2 O+2 O+2 O+2 O+2 O+2 O+2 O+2 O+2 O+2 O+2 O+2 O+2 O+2 O+2 O+2 O+2 O+2 O+2 O+2 O+2 O+2 O+2 O+2 O+2 O+2 O+2 O+2 O+2 O+2 O+2 O+2 O+2 O+2 O+2 O+2 O+2 O+2 O+2 O+2 O+2 O+2 O+2 O+2 O+2 O+2 O+2 O+2 O+2 O+2 O+2 O+2 O+2 O+2 O+2 O+2 O+2 O+2 O+2 O+2 O+2 O+2 O+2 O+2 O+2 O+2 O+2 O+2 O+2 O+2 O+2 O+2 O+2 O+2 O+2 O+2 O+2 O+2 O+2 O+2 O+2 O+2 O+2 O+2 O+2 O+2 O+2 O+2 O+2 O+2 O+2 O+2 O+2 O+2 O+2 O+2 O+2 O+2 O+2 O+2 O+2 O+2 O+2 O+2 O+2 O+2 O+2 O+2 O+2 O+2 O+2 O+2 O+2 O+2 O+2 O+2 O+2 O+2 O+2 O+2 O+2 O+2 O+2 O+2 O+2 O+2 O+2 O+2 O+2 O+2 O+2 O+2 O+2 O+2 O+2 O+2 O+2 O+2 O+2 O+2 O+2 O+2 O+2 O+2 O+2 O+2 O+2 O+2 O+2 O+2 O+2 O+2 O+2 O+2 O+2 O+2 O+2 O+2 O+2 O+2 O+2 2 2 2 2 Q&2 Q&2 Q&2 Q&2 Q&2 Q&2 Q&2 Q&2 Q&2 Q&2 Q&2 Q&2 Q&2 Q&2 Q&2 Q&2 Q&2 Q&2 Q&2 Q&2 Q&2 Q&2 Q&2 Q&2 Q&2 Q&2 Q&2 Q&2 Q&2 Q&2 Q&2 Q&2 Q&2 Q&2 Q&2 Q&2 Q&2 Q&2 Q&2 Q&2 Q&2 Q&2 Q&2 Q&2 Q&2 Q&2 Q&2 Q&2 Q&2 Q&2 Q&2 Q&2 Q&2 Q&2 Q&2 Q&2 Q&2 Q&2 Q&2 Q&2 Q&2 Q&2 Q&2 Q&2 Q&2 Q&2 Q&2 Q&2 Q&2 Q&2 Q&2 Q&2 Q&2 Q&2 Q&2 Q&2 Q&2 Q&2 Q&2 Q&2 Q&2 Q&2 Q&2 Q&2 Q&2 Q&2 Q&2 Q&2 Q&2 Q&2 Q&2 Q&2 Q&2 Q&2 Q&2 Q&2 Q&2 Q&2 Q&2 Q&2 Q&2 Q&2 Q&2 Q&2 Q&2 Q&2 Q&2 Q&2 Q&2 Q&2 Q&2 Q&2 Q&2 Q&2 Q&2 Q&2 Q&2 Q&2 Q&2 Q&2 Q&2 Q&2 Q&2 Q&2 Q&2 Q&2 Q&2 Q&2 Q&2 Q&2 Q&2 Q&2 Q&2 Q&2 Q&2 Q&2 Q&2 Q&2 Q&2 Q&2 Q&2 Q&2 Q&2 Q&2 Q&2 Q&2 Q&2 Q&2 Q&2 Q&2 Q&2 Q&2 Q&2 Q&2 Q&2 Q&2 Q&2 Q&2 Q&2 Q&2 Q&2 Q&2 Q&2 Q&2 Q&2 Q&2 Q&2 Q&2 Q&2 Q&2 Q&2 Q&2 Q&2 Q&2 Q&2 Q&2 Q&2 Q&2 Q&2 Q&2 Q&2 &2 &2 &2 O&2 O&2 O&2 O&2 O&2 O&2 O&2 O&2 O&2 O&2 O&2 O&2 O&2 O&2 O&2 O&2 O&2 O&2 O&2 O&2 O&2 O&2 O&2 O&2 O&2 O&2 O&2 O&2 O&2 O&2 O&2 O&2 O&2 O&2 O&2 O&2 O&2 O&2 O&2 O&2 O&2 O&2 O&2 O&2 O&2 O&2 O&2 O&2 O&2 O&2 O&2 O&2 O&2 O&2 O&2 O&2 O&2 O&2 O&2 O&2 O&2 O&2 O&2 O&2 O&2 O&2 O&2 O&2 O&2 O&2 O&2 O&2 O&2 O&2 O&2 O&2 O&2 O&2 O&2 O&2 O&2 O&2 O&2 O&2 O&2 O&2 O&2 O&2 O&2 O&2 O&2 O&2 O&2 O&2 O&2 O&2 O&2 O&2 O&2 O&2 O&2 O&2 O&2 O&2 O&2 O&2 O&2 O&2 O&2 O&2 O&2 O&2 O&2 O&2 O&2 O&2 O&2 O&2 O&2 O&2 O&2 O&2 O&2 O&2 O&2 O&2 O&2 O&2 O&2 O&2 O&2 O&2 O&2 O&2 O&2 O&2 O&2 O&2 O&2 O&2 O&2 O&2 O&2 O&2 O&2 O&2 O&2 O&2 O&2 O&2 O&2 O&2 O&2 O&2 O&2 O&2 O&2 O&2 O&2 O&2 O&2 O&2 O&2 O&2 O&2 O&2 O&2 O&2 O&2 O&2 O&2 O&2 O&2 O&2 O&2 O&2 O&2 O&2 O&2 O&2 O&2 &2 2   N> N> N> N> N> N> N> N> N> N> N> N> N> N> N> N> N> N> N> N> N> N> N> N> N> N> N> N> N> N> N> N> N> N> N> N> N> N> N> N> N> N> N> N> N> N> N> N> N> N> N> N> N> N> N> N> N> N> N> N> N> N> N> N> N> N> N> N> N> N> N> N> N> N> N> N> N> N> N> N> N> N> N> N> N> N> N> N> N> N> N> N> N> N> N> N> N> N> N> N> N> N> N> N> N> N> N> N> N> N> N> N> N> N> N> N> N> N> N> N> N> N> N> N> N> N> N> N> N> N> N> N> N> N> N> N> N> N> N> N> N> N> N> N> N> N> N> N> N> N> N> N> N> N> N> N> N> N> N> N> N> N> N> N> N> N> N> N> N> N> N> N> N> N> N> N> N> N> N> N> N> > > > > L> L> L> L> L> L> L> L> L> L> L> L> L> L> L> L> L> L> L> L> L> L> L> L> L> L> L> L> L> L> L> L> L> L> L> L> L> L> L> L> L> L> L> L> L> L> L> L> L> L> L> L> L> L> L> L> L> L> L> L> L> L> L> L> L> L> L> L> L> L> L> L> L> L> L> L> L> L> L> L> L> L> L> L> L> L> L> L> L> L> L> L> L> L> L> L> L> L> L> L> L> L> L> L> L> L> L> L> L> L> L> L> L> L> L> L> L> L> L> L> L> L> L> L> L> L> L> L> L> L> L> L> L> L> L> L> L> L> L> L> L> L> L> L> L> L> L> L> L> L> L> L> L> L> L> L> L> L> L> L> L> L> L> L> L> L> L> L> L> L> L> L> L> L> L> L> L> L> L> L> L> > > > J> J> J> J> J> J> J> J> J> J> J> J> J> J> J> J> J> J> J> J> J> J> J> J> J> J> J> J> J> J> J> J> J> J> J> J> J> J> J> J> J> J> J> J> J> J> J> J> J> J> J> J> J> J> J> J> J> J> J> J> J> J> J> J> J> J> J> J> J> J> J> J> J> J> J> J> J> J> J> J> J> J> J> J> J> J> J> J> J> J> J> J> J> J> J> J> J> J> J> J> J> J> J> J> J> J> J> J> J> J> J> J> J> J> J> J> J> J> J> J> J> J> J> J> J> J> J> J> J> J> J> J> J> J> J> J> J> J> J> J> J> J> J> J> J> J> J> J> J> J> J> J> J> J> J> J> J> J> J> J> J> J> J> J> J> J> J> J> J> J> J> J> J> J> J> J> J> J> J> J> J>     K< K< K< K< K< K< K< K< K< K< K< K< K< K< K< K< K< K< K< K< K< K< K< K< K< K< K< K< K< K< K< K< K< K< K< K< K< K< K< K< K< K< K< K< K< K< K< K< K< K< K< K< K< K< K< K< K< K< K< K< K< K< K< K< K< K< K< K< K< K< K< K< K< K< K< K< K< K< K< K< K< K< K< K< K< K< K< K< K< K< K< K< K< K< K< K< K< K< K< K< K< K< K< K< K< K< K< K< K< K< K< K< K< K< K< K< K< K< K< K< K< K< K< K< K< K< K< K< K< K< K< K< K< K< K< K< K< K< K< K< K< K< K< K< K< K< K< K< K< K< K< K< K< K< K< K< K< K< K< K< K< K< K< K< K< K< K< K< K< K< K< K< K< K< K< K< K< K< K< K< K<     M; M; M; M; M; M; M; M; M; M; M; M; M; M; M; M; M; M; M; M; M; M; M; M; M; M; M; M; M; M; M; M; M; M; M; M; M; M; M; M; M; M; M; M; M; M; M; M; M; M; M; M; M; M; M; M; M; M; M; M; M; M; M; M; M; M; M; M; M; M; M; M; M; M; M; M; M; M; M; M; M; M; M; M; M; M; M; M; M; ; ; ; K; K; K; K; K; K; K; K; K; K; K; K; K; K; K; K; K; K; K; K; K; K; K; K; K; K; K; K; K; K; K; K; K; K; K; K; K; K; K; K; K; K; K; K; K; K; K; K; K; K; K; K; K; K; K; K; K; K; K; K; K; K; K; K; K; K; K; K; K; K; K; K; K; K; K; K; K; K; K; K; K; K; K; K; K; K; K; K; K;    J9 J9 J9 J9 J9 J9 J9 J9 J9 J9 J9 J9 J9 J9 J9 J9 J9 J9 J9 J9 J9 J9 J9 J9 J9 J9 J9 J9 J9 J9 J9 J9 J9 J9 J9 J9 J9 J9 J9 J9 J9 J9 J9 J9 J9 J9 J9 J9 J9 J9 J9 J9 J9 J9 J9 J9 J9 J9 J9 J9 J9 J9 J9 J9 J9 J9 J9 J9 J9 J9 J9 J9 J9 J9 J9 J9 J9 J9 J9 J9 J9 J9 J9 J9 J9 J9 J9 J9 J9 9 9 9 9 9K 9K 9K 9K 9K 9K 9K 9K 9K 9K 9K 9K 9K 9K 9K 9K 9K 9K 9K 9K 9K 9K 9K 9K 9K 9K 9K 9K 9K 9K 9K 9K 9K 9K 9K 9K 9K 9K 9K 9K 9K 9K 9K 9K 9K 9K 9K 9K 9K 9K 9K 9K 9K 9K 9K 9K 9K 9K 9K 9K 9K 9K 9K 9K 9K 9K 9K 9K 9K 9K 9K 9K 9K 9K 9K 9K 9K 9K 9K 9K 9K 9K 9K 9K 9K 9K 9K 9K K    7G 7G 7G 7G 7G 7G 7G 7G 7G 7G 7G 7G 7G 7G 7G 7G 7G 7G 7G 7G 7G 7G 7G 7G 7G 7G 7G 7G 7G 7G 7G 7G 7G 7G 7G 7G 7G 7G 7G 7G 7G 7G 7G 7G 7G 7G 7G 7G 7G 7G 7G 7G 7G 7G 7G 7G 7G 7G 7G 7G 7G 7G 7G 7G 7G 7G 7G 7G 7G 7G 7G 7G 7G 7G 7G 7G 7G 7G 7G 7G 7G 7G 7G 7G 7G 7G 7G 7G 7G 7G 7G 7G 7JG 7JG 7JG 7JG 7JG 7JG 7JG 7JG 7JG 7JG 7JG 7JG 7JG 7JG 7JG 7JG 7JG 7JG 7JG 7JG 7JG 7JG 7JG 7JG 7JG 7JG 7JG 7JG 7JG 7JG 7JG 7JG 7JG 7JG 7JG 7JG 7JG 7JG 7JG 7JG 7JG 7JG 7JG 7JG 7JG 7JG 7JG 7JG 7JG 7JG 7JG 7JG 7JG 7JG 7JG 7JG 7JG 7JG 7JG 7JG 7JG 7JG 7JG 7JG 7JG 7JG 7JG 7JG 7JG 7JG 7JG 7JG 7JG 7JG 7JG 7JG 7JG 7JG 7JG 7JG 7JG 7JG 7JG 7JG 7JG 7JG 7JG 7JG 7JG JG JG JG JG 2JGM 2JGM 2JGM 2JGM 2JGM 2JGM 2JGM 2JGM 2JGM 2JGM 2JGM 2JGM 2JGM 2JGM 2JGM 2JGM 2JGM 2JGM 2JGM 2JGM 2JGM 2JGM 2JGM 2JGM 2JGM 2JGM 2JGM 2JGM 2JGM 2JGM 2JGM 2JGM 2JGM 2JGM 2JGM 2JGM 2JGM 2JGM 2JGM 2JGM 2JGM 2JGM 2JGM 2JGM 2JGM 2JGM 2JGM 2JGM 2JGM 2JGM 2JGM 2JGM 2JGM 2JGM 2JGM 2JGM 2JGM 2JGM 2JGM 2JGM 2JGM 2JGM 2JGM 2JGM 2JGM 2JGM 2JGM 2JGM 2JGM 2JGM 2JGM 2JGM 2JGM 2JGM 2JGM 2JGM 2JGM 2JGM 2JGM 2JGM 2JGM 2JGM 2JGM 2JGM 2JGM 2JGM 2JGM 2JGM 2JGM 2JGM 2JGM 2JGM 2JGM 2JGM 2JGM 2JGM 2JGM 2JGM 2JGM 2JGM 2JGM 2JGM 2JGM 2JGM 2JGM 2JGM 2JGM 2JGM 2JGM 2JGM 2JGM 2JGM 2JGM 2JGM 2JGM 2JGM 2JGM 2JGM 2JGM 2JGM 2JGM 2JGM 2JGM 2JGM 2JGM 2JGM 2JGM 2JGM 2JGM 2JGM 2JGM 2JGM 2JGM 2JGM 2JGM 2JGM 2JGM 2JGM 2JGM 2JGM 2JGM 2JGM 2JGM 2JGM 2JGM 2JGM 2JGM 2JGM 2JGM 2JGM 2JGM 2JGM 2JGM 2JGM 2JGM 2JGM 2JGM 2JGM 2JGM 2JGM 2JGM 2JGM 2JGM 2JGM 2JGM 2JGM 2JGM 2JGM 2JGM 2JGM 2JGM 2JGM 2JGM 2JGM 2JGM 2JGM 2JGM 2JGM 2JGM 2JGM 2JGM JGM JGM JGM 7JGM 7JGM 7JGM 7JGM 7JGM 7JGM 7JGM 7JGM 7JGM 7JGM 7JGM 7JGM 7JGM 7JGM 7JGM 7JGM 7JGM 7JGM 7JGM 7JGM 7JGM 7JGM 7JGM 7JGM 7JGM 7JGM 7JGM 7JGM 7JGM 7JGM 7JGM 7JGM 7JGM 7JGM 7JGM 7JGM 7JGM 7JGM 7JGM 7JGM 7JGM 7JGM 7JGM 7JGM 7JGM 7JGM 7JGM 7JGM 7JGM 7JGM 7JGM 7JGM 7JGM 7JGM 7JGM 7JGM 7JGM 7JGM 7JGM 7JGM 7JGM 7JGM 7JGM 7JGM 7JGM 7JGM 7JGM 7JGM 7JGM 7JGM 7JGM 7JGM 7JGM 7JGM 7JGM 7JGM 7JGM 7JGM 7JGM 7JGM 7JGM 7JGM 7JGM 7JGM 7JGM 7JGM 7JGM 7JGM 7JGM 7JGM 7JGM 7JGM 7JGM 7JGM 7JGM 7JGM 7JGM 7JGM 7JGM 7JGM 7JGM 7JGM 7JGM 7JGM 7JGM 7JGM 7JGM 7JGM 7JGM 7JGM 7JGM 7JGM 7JGM 7JGM 7JGM 7JGM 7JGM 7JGM 7JGM 7JGM 7JGM 7JGM 7JGM 7JGM 7JGM 7JGM 7JGM 7JGM 7JGM 7JGM 7JGM 7JGM 7JGM 7JGM 7JGM 7JGM 7JGM 7JGM 7JGM 7JGM 7JGM 7JGM 7JGM 7JGM 7JGM 7JGM 7JGM 7JGM 7JGM 7JGM 7JGM 7JGM 7JGM 7JGM 7JGM 7JGM 7JGM 7JGM 7JGM 7JGM 7JGM 7JGM 7JGM 7JGM 7JGM 7JGM 7JGM 7JGM 7JGM 7JGM 7JGM 7JGM 7JGM 7JGM 7JGM 7JGM 7JGM 7JGM 7JGM 7JGM 7JGM JGM JGM JGM JGM ;JGM ;JGM ;JGM ;JGM ;JGM ;JGM ;JGM ;JGM ;JGM ;JGM ;JGM ;JGM ;JGM ;JGM ;JGM ;JGM ;JGM ;JGM ;JGM ;JGM ;JGM ;JGM ;JGM ;JGM ;JGM ;JGM ;JGM ;JGM ;JGM ;JGM ;JGM ;JGM ;JGM ;JGM ;JGM ;JGM ;JGM ;JGM ;JGM ;JGM ;JGM ;JGM ;JGM ;JGM ;JGM ;JGM ;JGM ;JGM ;JGM ;JGM ;JGM ;JGM ;JGM ;JGM ;JGM ;JGM ;JGM ;JGM ;JGM ;JGM ;JGM ;JGM ;JGM ;JGM ;JGM ;JGM ;JGM ;JGM ;JGM ;JGM ;JGM ;JGM ;JGM ;JGM ;JGM ;JGM ;JGM ;JGM ;JGM ;JGM ;JGM ;JGM ;JGM ;JGM ;JGM ;JGM ;JGM ;JGM ;JGM ;JGM ;JGM ;JGM ;JGM ;JGM ;JGM ;JGM ;JGM ;JGM ;JGM ;JGM ;JGM ;JGM ;JGM ;JGM ;JGM ;JGM ;JGM ;JGM ;JGM ;JGM ;JGM ;JGM ;JGM ;JGM ;JGM ;JGM ;JGM ;JGM ;JGM ;JGM ;JGM ;JGM ;JGM ;JGM ;JGM ;JGM ;JGM ;JGM ;JGM ;JGM ;JGM ;JGM ;JGM ;JGM ;JGM ;JGM ;JGM ;JGM ;JGM ;JGM ;JGM ;JGM ;JGM ;JGM ;JGM ;JGM ;JGM ;JGM ;JGM ;JGM ;JGM ;JGM ;JGM ;JGM ;JGM ;JGM ;JGM ;JGM ;JGM ;JGM ;JGM ;JGM ;JGM ;JGM ;JGM ;JGM ;JGM ;JGM ;JGM ;JGM ;JGM ;JGM ;JGM ;JGM ;JGM ;JGM ;JGM ;JGM ;JGM ;JGM ;JGM JGM JGM JGM JGM J>GM J>GM J>GM J>GM J>GM J>GM J>GM J>GM J>GM J>GM J>GM J>GM J>GM J>GM J>GM J>GM J>GM J>GM J>GM J>GM J>GM J>GM J>GM J>GM J>GM J>GM J>GM J>GM J>GM J>GM J>GM J>GM J>GM J>GM J>GM J>GM J>GM J>GM J>GM J>GM J>GM J>GM J>GM J>GM J>GM J>GM J>GM J>GM J>GM J>GM J>GM J>GM J>GM J>GM J>GM J>GM J>GM J>GM J>GM J>GM J>GM J>GM J>GM J>GM J>GM J>GM J>GM J>GM J>GM J>GM J>GM J>GM J>GM J>GM J>GM J>GM J>GM J>GM J>GM J>GM J>GM J>GM J>GM J>GM J>GM J>GM J>GM J>GM J>GM J>GM J>GM J>GM J>GM J>GM J>GM J>GM J>GM J>GM J>GM J>GM J>GM J>GM J>GM J>GM J>GM J>GM J>GM J>GM J>GM J>GM J>GM J>GM J>GM J>GM J>GM J>GM J>GM J>GM J>GM J>GM J>GM J>GM J>GM J>GM J>GM J>GM J>GM J>GM J>GM J>GM J>GM J>GM J>GM J>GM J>GM J>GM J>GM J>GM J>GM J>GM J>GM J>GM J>GM J>GM J>GM J>GM J>GM J>GM J>GM J>GM J>GM J>GM J>GM J>GM J>GM J>GM J>GM J>GM J>GM J>GM J>GM J>GM J>GM J>GM J>GM J>GM J>GM J>GM J>GM J>GM J>GM >GM >GM >GM >GM >GM >GM >GM >GM >GM >GM GM GM GM H?M H?M H?M H?M H?M H?M H?M H?M H?M H?M H?M H?M H?M H?M H?M H?M H?M H?M H?M H?M H?M H?M H?M H?M H?M H?M H?M H?M H?M H?M H?M H?M H?M H?M H?M H?M H?M H?M H?M H?M H?M H?M H?M H?M H?M H?M H?M H?M H?M H?M H?M H?M H?M H?M H?M H?M H?M H?M H?M H?M H?M H?M H?M H?M H?M H?M H?M H?M H?M H?M H?M H?M H?M H?M H?M H?M H?M H?M H?M H?M H?M H?M H?M H?M H?M H?M H?M H?M H?M H?M H?M H?M H?M H?M H?M H?M H?M H?M H?M H?M H?M H?M H?M H?M H?M H?M H?M H?M H?M H?M H?M H?M H?M H?M H?M H?M H?M H?M H?M H?M H?M H?M H?M H?M H?M H?M H?M H?M H?M H?M H?M H?M H?M H?M H?M H?M H?M H?M H?M H?M H?M H?M H?M H?M H?M H?M H?M H?M H?M H?M H?M H?M H?M H?M H?M H?M H?M H?M H?M H?M H?M H?M H?M H?M H?M H?M H?M H?M H?M H?M H?M H?M H?M H?M H?M H?M H?M H?M H?M H?M H?M M M M M J>M J>M J>M J>M J>M J>M J>M J>M J>M J>M J>M J>M J>M J>M J>M J>M J>M J>M J>M J>M J>M J>M J>M J>M J>M J>M J>M J>M J>M J>M J>M J>M J>M J>M J>M J>M J>M J>M J>M J>M J>M J>M J>M J>M J>M J>M J>M J>M J>M J>M J>M J>M J>M J>M J>M J>M J>M J>M J>M J>M J>M J>M J>M J>M J>M J>M J>M J>M J>M J>M J>M J>M J>M J>M J>M J>M J>M J>M J>M J>M J>M J>M J>M J>M J>M J>M J>M J>M J>M >M >M >M H>M H>M H>M H>M H>M H>M H>M H>M H>M H>M H>M H>M H>M H>M H>M H>M H>M H>M H>M H>M H>M H>M H>M H>M H>M H>M H>M H>M H>M H>M H>M H>M H>M H>M H>M H>M H>M H>M H>M H>M H>M H>M H>M H>M H>M H>M H>M H>M H>M H>M H>M H>M H>M H>M H>M H>M H>M H>M H>M H>M H>M H>M H>M H>M H>M H>M H>M H>M H>M H>M H>M H>M H>M H>M H>M H>M H>M H>M H>M H>M H>M H>M H>M H>M H>M H>M H>M H>M H>M M M   G< G< G< G< G< G< G< G< G< G< G< G< G< G< G< G< G< G< G< G< G< G< G< G< G< G< G< G< G< G< G< G< G< G< G< G< G< G< G< G< G< G< G< G< G< G< G< G< G< G< G< G< G< G< G< G< G< G< G< G< G< G< G< G< G< G< G< G< G< G< G< G< G< G< G< G< G< G< G< G< G< G< G< G< G< G< G< G< G< < < < H< H< H< H< H< H< H< H< H< H< H< H< H< H< H< H< H< H< H< H< H< H< H< H< H< H< H< H< H< H< H< H< H< H< H< H< H< H< H< H< H< H< H< H< H< H< H< H< H< H< H< H< H< H< H< H< H< H< H< H< H< H< H< H< H< H< H< H< H< H< H< H< H< H< H< H< H< H< H< H< H< H< H< H< H< H< H< H< H<     J; J; J; J; J; J; J; J; J; J; J; J; J; J; J; J; J; J; J; J; J; J; J; J; J; J; J; J; J; J; J; J; J; J; J; J; J; J; J; J; J; J; J; J; J; J; J; J; J; J; J; J; J; J; J; J; J; J; J; J; J; J; J; J; J; J; J; J; J; J; J; J; J; J; J; J; J; J; J; J; J; J; J; J; J; J; J; J; J; J; J; J; J; J; J; J; J; J; J; J; J; J; J; J; J; J; J; J; J; J; J; J; J; J; J; J; J; J; J; J; J; J; J; J; J; J; J; J; J; J; J; J; J; J; J; J; J; J; J; J; J; J; J; J; J; J; J; J; J; J; J; J; J; J; J; J; J; J; J; J; J; J; J; J; J; J; J; J; J; J; J; J; J; J; J; J; J; J; J; J; J;    K< K< K< K< K< K< K< K< K< K< K< K< K< K< K< K< K< K< K< K< K< K< K< K< K< K< K< K< K< K< K< K< K< K< K< K< K< K< K< K< K< K< K< K< K< K< K< K< K< K< K< K< K< K< K< K< K< K< K< K< K< K< K< K< K< K< K< K< K< K< K< K< K< K< K< K< K< K< K< K< K< K< K< K< K< K< K< K< K< K< K< K< K< K< K< K< K< K< K< K< K< K< K< K< K< K< K< K< K< K< K< K< K< K< K< K< K< K< K< K< K< K< K< K< K< K< K< K< K< K< K< K< K< K< K< K< K< K< K< K< K< K< K< K< K< K< K< K< K< K< K< K< K< K< K< K< K< K< K< K< K< K< K< K< K< K< K< K< K< K< K< K< K< K< K< K< K< K< K< K< K<     M> M> M> M> M> M> M> M> M> M> M> M> M> M> M> M> M> M> M> M> M> M> M> M> M> M> M> M> M> M> M> M> M> M> M> M> M> M> M> M> M> M> M> M> M> M> M> M> M> M> M> M> M> M> M> M> M> M> M> M> M> M> M> M> M> M> M> M> M> M> M> M> M> M> M> M> M> M> M> M> M> M> M> M> M> M> M> M> M> > > > K> K> K> K> K> K> K> K> K> K> K> K> K> K> K> K> K> K> K> K> K> K> K> K> K> K> K> K> K> K> K> K> K> K> K> K> K> K> K> K> K> K> K> K> K> K> K> K> K> K> K> K> K> K> K> K> K> K> K> K> K> K> K> K> K> K> K> K> K> K> K> K> K> K> K> K> K> K> K> K> K> K> K> K> K> K> K> K> K>     J8 J8 J8 J8 J8 J8 J8 J8 J8 J8 J8 J8 J8 J8 J8 J8 J8 J8 J8 J8 J8 J8 J8 J8 J8 J8 J8 J8 J8 J8 J8 J8 J8 J8 J8 J8 J8 J8 J8 J8 J8 J8 J8 J8 J8 J8 J8 J8 J8 J8 J8 J8 J8 J8 J8 J8 J8 J8 J8 J8 J8 J8 J8 J8 J8 J8 J8 J8 J8 J8 J8 J8 J8 J8 J8 J8 J8 J8 J8 J8 J8 J8 J8 J8 J8 J8 J8 J8 J8 8 8 8 K8 K8 K8 K8 K8 K8 K8 K8 K8 K8 K8 K8 K8 K8 K8 K8 K8 K8 K8 K8 K8 K8 K8 K8 K8 K8 K8 K8 K8 K8 K8 K8 K8 K8 K8 K8 K8 K8 K8 K8 K8 K8 K8 K8 K8 K8 K8 K8 K8 K8 K8 K8 K8 K8 K8 K8 K8 K8 K8 K8 K8 K8 K8 K8 K8 K8 K8 K8 K8 K8 K8 K8 K8 K8 K8 K8 K8 K8 K8 K8 K8 K8 K8 K8 K8 K8 K8 K8 K8    M7 M7 M7 M7 M7 M7 M7 M7 M7 M7 M7 M7 M7 M7 M7 M7 M7 M7 M7 M7 M7 M7 M7 M7 M7 M7 M7 M7 M7 M7 M7 M7 M7 M7 M7 M7 M7 M7 M7 M7 M7 M7 M7 M7 M7 M7 M7 M7 M7 M7 M7 M7 M7 M7 M7 M7 M7 M7 M7 M7 M7 M7 M7 M7 M7 M7 M7 M7 M7 M7 M7 M7 M7 M7 M7 M7 M7 M7 M7 M7 M7 M7 M7 M7 M7 M7 M7 M7 M7 M7 M7 M7 M7 M7 M7 M7 M7 M7 M7 M7 M7 M7 M7 M7 M7 M7 M7 M7 M7 M7 M7 M7 M7 M7 M7 M7 M7 M7 M7 M7 M7 M7 M7 M7 M7 M7 M7 M7 M7 M7 M7 M7 M7 M7 M7 M7 M7 M7 M7 M7 M7 M7 M7 M7 M7 M7 M7 M7 M7 M7 M7 M7 M7 M7 M7 M7 M7 M7 M7 M7 M7 M7 M7 M7 M7 M7 M7 M7 M7 M7 M7 M7 M7 M7 M7 M7 M7 M7 M7 M7 M7     P5 P5 P5 P5 P5 P5 P5 P5 P5 P5 P5 P5 P5 P5 P5 P5 P5 P5 P5 P5 P5 P5 P5 P5 P5 P5 P5 P5 P5 P5 P5 P5 P5 P5 P5 P5 P5 P5 P5 P5 P5 P5 P5 P5 P5 P5 P5 P5 P5 P5 P5 P5 P5 P5 P5 P5 P5 P5 P5 P5 P5 P5 P5 P5 P5 P5 P5 P5 P5 P5 P5 P5 P5 P5 P5 P5 P5 P5 P5 P5 P5 P5 P5 P5 P5 P5 P5 P5 P5 P5 P5 P5 P5 P5 P5 P5 P5 P5 P5 P5 P5 P5 P5 P5 P5 P5 P5 P5 P5 P5 P5 P5 P5 P5 P5 P5 P5 P5 P5 P5 P5 P5 P5 P5 P5 P5 P5 P5 P5 P5 P5 P5 P5 P5 P5 P5 P5 P5 P5 P5 P5 P5 P5 P5 P5 P5 P5 P5 P5 P5 P5 P5 P5 P5 P5 P5 P5 P5 P5 P5 P5 P5 P5 P5 P5 P5 P5 P5 P5 P5 P5 P5 P5 P5 P5 P5 P5 P5 P5 P5 P5     O3 O3 O3 O3 O3 O3 O3 O3 O3 O3 O3 O3 O3 O3 O3 O3 O3 O3 O3 O3 O3 O3 O3 O3 O3 O3 O3 O3 O3 O3 O3 O3 O3 O3 O3 O3 O3 O3 O3 O3 O3 O3 O3 O3 O3 O3 O3 O3 O3 O3 O3 O3 O3 O3 O3 O3 O3 O3 O3 O3 O3 O3 O3 O3 O3 O3 O3 O3 O3 O3 O3 O3 O3 O3 O3 O3 O3 O3 O3 O3 O3 O3 O3 O3 O3 O3 O3 O3 O3 O3 O3 O3 O3 O3 O3 O3 O3 O3 O3 O3 O3 O3 O3 O3 O3 O3 O3 O3 O3 O3 O3 O3 O3 O3 O3 O3 O3 O3 O3 O3 O3 O3 O3 O3 O3 O3 O3 O3 O3 O3 O3 O3 O3 O3 O3 O3 O3 O3 O3 O3 O3 O3 O3 O3 O3 O3 O3 O3 O3 O3 O3 O3 O3 O3 O3 O3 O3 O3 O3 O3 O3 O3 O3 O3 O3 O3 O3 O3 O3 O3 O3 O3 O3 O3 O3 O3 O3 O3 O3 O3 O3    M2 M2 M2 M2 M2 M2 M2 M2 M2 M2 M2 M2 M2 M2 M2 M2 M2 M2 M2 M2 M2 M2 M2 M2 M2 M2 M2 M2 M2 M2 M2 M2 M2 M2 M2 M2 M2 M2 M2 M2 M2 M2 M2 M2 M2 M2 M2 M2 M2 M2 M2 M2 M2 M2 M2 M2 M2 M2 M2 M2 M2 M2 M2 M2 M2 M2 M2 M2 M2 M2 M2 M2 M2 M2 M2 M2 M2 M2 M2 M2 M2 M2 M2 M2 M2 M2 M2 M2 M2 M2 M2 M2 M2 M2 M2 M2 M2 M2 M2 M2 M2 M2 M2 M2 M2 M2 M2 M2 M2 M2 M2 M2 M2 M2 M2 M2 M2 M2 M2 M2 M2 M2 M2 M2 M2 M2 M2 M2 M2 M2 M2 M2 M2 M2 M2 M2 M2 M2 M2 M2 M2 M2 M2 M2 M2 M2 M2 M2 M2 M2 M2 M2 M2 M2 M2 M2 M2 M2 M2 M2 M2 M2 M2 M2 M2 M2 M2 M2 M2 M2 M2 M2 M2 M2 M2 M2 M2 M2 M2 M2 M2     K0 K0 K0 K0 K0 K0 K0 K0 K0 K0 K0 K0 K0 K0 K0 K0 K0 K0 K0 K0 K0 K0 K0 K0 K0 K0 K0 K0 K0 K0 K0 K0 K0 K0 K0 K0 K0 K0 K0 K0 K0 K0 K0 K0 K0 K0 K0 K0 K0 K0 K0 K0 K0 K0 K0 K0 K0 K0 K0 K0 K0 K0 K0 K0 K0 K0 K0 K0 K0 K0 K0 K0 K0 K0 K0 K0 K0 K0 K0 K0 K0 K0 K0 K0 K0 K0 K0 K0 K0 K0 K0 K0 K0 K0 K0 K0 K0 K0 K0 K0 K0 K0 K0 K0 K0 K0 K0 K0 K0 K0 K0 K0 K0 K0 K0 K0 K0 K0 K0 K0 K0 K0 K0 K0 K0 K0 K0 K0 K0 K0 K0 K0 K0 K0 K0 K0 K0 K0 K0 K0 K0 K0 K0 K0 K0 K0 K0 K0 K0 K0 K0 K0 K0 K0 K0 K0 K0 K0 K0 K0 K0 K0 K0 K0 K0 K0 K0 K0 K0 K0 K0 K0 K0 K0 K0 K0 K0 K0 K0 K0 K0 0 0 0 0 H0 H0 H0 H0 H0 H0 H0 H0 H0 H0 H0 H0 H0 H0 H0 H0 H0 H0 H0 H0 H0 H0 H0 H0 H0 H0 H0 H0 H0 H0 H0 H0 H0 H0 H0 H0 H0 H0 H0 H0 H0 H0 H0 H0 H0 H0 H0 H0 H0 H0 H0 H0 H0 H0 H0 H0 H0 H0 H0 H0 H0 H0 H0 H0 H0 H0 H0 H0 H0 H0 H0 H0 H0 H0 H0 H0 H0 H0 H0 H0 H0 H0 H0 H0 H0 H0 H0 H0 H0 H0 H0 H0 H0 H0 H0 H0 H0 H0 H0 H0 H0 H0 H0 H0 H0 H0 H0 H0 H0 H0 H0 H0 H0 H0 H0 H0 H0 H0 H0 H0 H0 H0 H0 H0 H0 H0 H0 H0 H0 H0 H0 H0 H0 H0 H0 H0 H0 H0 H0 H0 H0 H0 H0 H0 H0 H0 H0 H0 H0 H0 H0 H0 H0 H0 H0 H0 H0 H0 H0 H0 H0 H0 H0 H0 H0 H0 H0 H0 H0 H0 H0 H0 H0 H0 H0 H0 H0 H0 H0 H0 H0 0 0 0 K0 K0 K0 K0 K0 K0 K0 K0 K0 K0 K0 K0 K0 K0 K0 K0 K0 K0 K0 K0 K0 K0 K0 K0 K0 K0 K0 K0 K0 K0 K0 K0 K0 K0 K0 K0 K0 K0 K0 K0 K0 K0 K0 K0 K0 K0 K0 K0 K0 K0 K0 K0 K0 K0 K0 K0 K0 K0 K0 K0 K0 K0 K0 K0 K0 K0 K0 K0 K0 K0 K0 K0 K0 K0 K0 K0 K0 K0 K0 K0 K0 K0 K0 K0 K0 K0 K0 K0 K0 K0 K0 K0 K0 K0 K0 K0 K0 K0 K0 K0 K0 K0 K0 K0 K0 K0 K0 K0 K0 K0 K0 K0 K0 K0 K0 K0 K0 K0 K0 K0 K0 K0 K0 K0 K0 K0 K0 K0 K0 K0 K0 K0 K0 K0 K0 K0 K0 K0 K0 K0 K0 K0 K0 K0 K0 K0 K0 K0 K0 K0 K0 K0 K0 K0 K0 K0 K0 K0 K0 K0 K0 K0 K0 K0 K0 K0 K0 K0 K0 K0 K0 K0 K0 K0 K0 K0 K0 K0 K0 K0 K0 0 0 0 0 O0 O0 O0 O0 O0 O0 O0 O0 O0 O0 O0 O0 O0 O0 O0 O0 O0 O0 O0 O0 O0 O0 O0 O0 O0 O0 O0 O0 O0 O0 O0 O0 O0 O0 O0 O0 O0 O0 O0 O0 O0 O0 O0 O0 O0 O0 O0 O0 O0 O0 O0 O0 O0 O0 O0 O0 O0 O0 O0 O0 O0 O0 O0 O0 O0 O0 O0 O0 O0 O0 O0 O0 O0 O0 O0 O0 O0 O0 O0 O0 O0 O0 O0 O0 O0 O0 O0 O0 O0 O0 O0 O0 O0 O0 O0 O0 O0 O0 O0 O0 O0 O0 O0 O0 O0 O0 O0 O0 O0 O0 O0 O0 O0 O0 O0 O0 O0 O0 O0 O0 O0 O0 O0 O0 O0 O0 O0 O0 O0 O0 O0 O0 O0 O0 O0 O0 O0 O0 O0 O0 O0 O0 O0 O0 O0 O0 O0 O0 O0 O0 O0 O0 O0 O0 O0 O0 O0 O0 O0 O0 O0 O0 O0 O0 O0 O0 O0 O0 O0 O0 O0 O0 O0 O0 O0 O0 O0 O0 O0 O0 O0 0 0 0 0 T0 T0 T0 T0 T0 T0 T0 T0 T0 T0 T0 T0 T0 T0 T0 T0 T0 T0 T0 T0 T0 T0 T0 T0 T0 T0 T0 T0 T0 T0 T0 T0 T0 T0 T0 T0 T0 T0 T0 T0 T0 T0 T0 T0 T0 T0 T0 T0 T0 T0 T0 T0 T0 T0 T0 T0 T0 T0 T0 T0 T0 T0 T0 T0 T0 T0 T0 T0 T0 T0 T0 T0 T0 T0 T0 T0 T0 T0 T0 T0 T0 T0 T0 T0 T0 T0 T0 T0 T0 T0 T0 T0 T0 T0 T0 T0 T0 T0 T0 T0 T0 T0 T0 T0 T0 T0 T0 T0 T0 T0 T0 T0 T0 T0 T0 T0 T0 T0 T0 T0 T0 T0 T0 T0 T0 T0 T0 T0 T0 T0 T0 T0 T0 T0 T0 T0 T0 T0 T0 T0 T0 T0 T0 T0 T0 T0 T0 T0 T0 T0 T0 T0 T0 T0 T0 T0 T0 T0 T0 T0 T0 T0 T0 T0 T0 T0 T0 T0 T0 T0 T0 T0 T0 T0 T0 T0 T0 T0 T0 T0 T0    R0 R0 R0 R0 R0 R0 R0 R0 R0 R0 R0 R0 R0 R0 R0 R0 R0 R0 R0 R0 R0 R0 R0 R0 R0 R0 R0 R0 R0 R0 R0 R0 R0 R0 R0 R0 R0 R0 R0 R0 R0 R0 R0 R0 R0 R0 R0 R0 R0 R0 R0 R0 R0 R0 R0 R0 R0 R0 R0 R0 R0 R0 R0 R0 R0 R0 R0 R0 R0 R0 R0 R0 R0 R0 R0 R0 R0 R0 R0 R0 R0 R0 R0 R0 R0 R0 R0 R0 R0 R0 R0 R0 R0 R0 R0 R0 R0 R0 R0 R0 R0 R0 R0 R0 R0 R0 R0 R0 R0 R0 R0 R0 R0 R0 R0 R0 R0 R0 R0 R0 R0 R0 R0 R0 R0 R0 R0 R0 R0 R0 R0 R0 R0 R0 R0 R0 R0 R0 R0 R0 R0 R0 R0 R0 R0 R0 R0 R0 R0 R0 R0 R0 R0 R0 R0 R0 R0 R0 R0 R0 R0 R0 R0 R0 R0 R0 R0 R0 R0 R0 R0 R0 R0 R0 R0 R0 R0 R0 R0 R0 R0     Q3 Q3 Q3 Q3 Q3 Q3 Q3 Q3 Q3 Q3 Q3 Q3 Q3 Q3 Q3 Q3 Q3 Q3 Q3 Q3 Q3 Q3 Q3 Q3 Q3 Q3 Q3 Q3 Q3 Q3 Q3 Q3 Q3 Q3 Q3 Q3 Q3 Q3 Q3 Q3 Q3 Q3 Q3 Q3 Q3 Q3 Q3 Q3 Q3 Q3 Q3 Q3 Q3 Q3 Q3 Q3 Q3 Q3 Q3 Q3 Q3 Q3 Q3 Q3 Q3 Q3 Q3 Q3 Q3 Q3 Q3 Q3 Q3 Q3 Q3 Q3 Q3 Q3 Q3 Q3 Q3 Q3 Q3 Q3 Q3 Q3 Q3 Q3 Q3 Q3 Q3 Q3 Q3 Q3 Q3 Q3 Q3 Q3 Q3 Q3 Q3 Q3 Q3 Q3 Q3 Q3 Q3 Q3 Q3 Q3 Q3 Q3 Q3 Q3 Q3 Q3 Q3 Q3 Q3 Q3 Q3 Q3 Q3 Q3 Q3 Q3 Q3 Q3 Q3 Q3 Q3 Q3 Q3 Q3 Q3 Q3 Q3 Q3 Q3 Q3 Q3 Q3 Q3 Q3 Q3 Q3 Q3 Q3 Q3 Q3 Q3 Q3 Q3 Q3 Q3 Q3 Q3 Q3 Q3 Q3 Q3 Q3 Q3 Q3 Q3 Q3 Q3 Q3 Q3 Q3 Q3 Q3 Q3 Q3 Q3 Q3 Q3 Q3 Q3 Q3 Q3     O7 O7 O7 O7 O7 O7 O7 O7 O7 O7 O7 O7 O7 O7 O7 O7 O7 O7 O7 O7 O7 O7 O7 O7 O7 O7 O7 O7 O7 O7 O7 O7 O7 O7 O7 O7 O7 O7 O7 O7 O7 O7 O7 O7 O7 O7 O7 O7 O7 O7 O7 O7 O7 O7 O7 O7 O7 O7 O7 O7 O7 O7 O7 O7 O7 O7 O7 O7 O7 O7 O7 O7 O7 O7 O7 O7 O7 O7 O7 O7 O7 O7 O7 O7 O7 O7 O7 O7 O7 O7 O7 O7 O7 O7 O7 O7 O7 O7 O7 O7 O7 O7 O7 O7 O7 O7 O7 O7 O7 O7 O7 O7 O7 O7 O7 O7 O7 O7 O7 O7 O7 O7 O7 O7 O7 O7 O7 O7 O7 O7 O7 O7 O7 O7 O7 O7 O7 O7 O7 O7 O7 O7 O7 O7 O7 O7 O7 O7 O7 O7 O7 O7 O7 O7 O7 O7 O7 O7 O7 O7 O7 O7 O7 O7 O7 O7 O7 O7 O7 O7 O7 O7 O7 O7 O7 O7 O7 O7 O7 O7 O7    N< N< N< N< N< N< N< N< N< N< N< N< N< N< N< N< N< N< N< N< N< N< N< N< N< N< N< N< N< N< N< N< N< N< N< N< N< N< N< N< N< N< N< N< N< N< N< N< N< N< N< N< N< N< N< N< N< N< N< N< N< N< N< N< N< N< N< N< N< N< N< N< N< N< N< N< N< N< N< N< N< N< N< N< N< N< N< N< N< N< N< N< N< N< N< N< N< N< N< N< N< N< N< N< N< N< N< N< N< N< N< N< N< N< N< N< N< N< N< N< N< N< N< N< N< N< N< N< N< N< N< N< N< N< N< N< N< N< N< N< N< N< N< N< N< N< N< N< N< N< N< N< N< N< N< N< N< N< N< N< N< N< N< N< N< N< N< N< N< N< N< N< N< N< N< N< N< N< N< N< N< < < < < O< O< O< O< O< O< O< O< O< O< O< O< O< O< O< O< O< O< O< O< O< O< O< O< O< O< O< O< O< O< O< O< O< O< O< O< O< O< O< O< O< O< O< O< O< O< O< O< O< O< O< O< O< O< O< O< O< O< O< O< O< O< O< O< O< O< O< O< O< O< O< O< O< O< O< O< O< O< O< O< O< O< O< O< O< O< O< O< O< O< O< O< O< O< O< O< O< O< O< O< O< O< O< O< O< O< O< O< O< O< O< O< O< O< O< O< O< O< O< O< O< O< O< O< O< O< O< O< O< O< O< O< O< O< O< O< O< O< O< O< O< O< O< O< O< O< O< O< O< O< O< O< O< O< O< O< O< O< O< O< O< O< O< O< O< O< O< O< O< O< O< O< O< O< O< O< O< O< O< O< O<     Q02 Q02 Q02 Q02 Q02 Q02 Q02 Q02 Q02 Q02 Q02 Q02 Q02 Q02 Q02 Q02 Q02 Q02 Q02 Q02 Q02 Q02 Q02 Q02 Q02 Q02 Q02 Q02 Q02 Q02 Q02 Q02 Q02 Q02 Q02 Q02 Q02 Q02 Q02 Q02 Q02 Q02 Q02 Q02 Q02 Q02 Q02 Q02 Q02 Q02 Q02 Q02 Q02 Q02 Q02 Q02 Q02 Q02 Q02 Q02 Q02 Q02 Q02 Q02 Q02 Q02 Q02 Q02 Q02 Q02 Q02 Q02 Q02 Q02 Q02 Q02 Q02 Q02 Q02 Q02 Q02 Q02 Q02 Q02 Q02 Q02 Q02 Q02 Q02 Q02 Q02 Q02 Q02 Q02 Q02 Q02 Q02 Q02 Q02 Q02 Q02 Q02 Q02 Q02 Q02 Q02 Q02 Q02 Q02 Q02 Q02 Q02 Q02 Q02 Q02 Q02 Q02 Q02 Q02 Q02 Q02 Q02 Q02 Q02 Q02 Q02 Q02 Q02 Q02 Q02 Q02 Q02 Q02 Q02 Q02 Q02 Q02 Q02 Q02 Q02 Q02 Q02 Q02 Q02 Q02 Q02 Q02 Q02 Q02 Q02 Q02 Q02 Q02 Q02 Q02 Q02 Q02 Q02 Q02 Q02 Q02 Q02 Q02 Q02 Q02 Q02 Q02 Q02 Q02 Q02 Q02 Q02 Q02 Q02 Q02 Q02 Q02 Q02 Q02 Q02 Q02 02 02 02 K02 K02 K02 K02 K02 K02 K02 K02 K02 K02 K02 K02 K02 K02 K02 K02 K02 K02 K02 K02 K02 K02 K02 K02 K02 K02 K02 K02 K02 K02 K02 K02 K02 K02 K02 K02 K02 K02 K02 K02 K02 K02 K02 K02 K02 K02 K02 K02 K02 K02 K02 K02 K02 K02 K02 K02 K02 K02 K02 K02 K02 K02 K02 K02 K02 K02 K02 K02 K02 K02 K02 K02 K02 K02 K02 K02 K02 K02 K02 K02 K02 K02 K02 K02 K02 K02 K02 K02 K02 K02 K02 K02 K02 K02 K02 K02 K02 K02 K02 K02 K02 K02 K02 K02 K02 K02 K02 K02 K02 K02 K02 K02 K02 K02 K02 K02 K02 K02 K02 K02 K02 K02 K02 K02 K02 K02 K02 K02 K02 K02 K02 K02 K02 K02 K02 K02 K02 K02 K02 K02 K02 K02 K02 K02 K02 K02 K02 K02 K02 K02 K02 K02 K02 K02 K02 K02 K02 K02 K02 K02 K02 K02 K02 K02 K02 K02 K02 K02 K02 K02 K02 K02 K02 K02 K02 K02 K02 K02 K02 K02 K02 02    J4. J4. J4. J4. J4. J4. J4. J4. J4. J4. J4. J4. J4. J4. J4. J4. J4. J4. J4. J4. J4. J4. J4. J4. J4. J4. J4. J4. J4. J4. J4. J4. J4. J4. J4. J4. J4. J4. J4. J4. J4. J4. J4. J4. J4. J4. J4. J4. J4. J4. J4. J4. J4. J4. J4. J4. J4. J4. J4. J4. J4. J4. J4. J4. J4. J4. J4. J4. J4. J4. J4. J4. J4. J4. J4. J4. J4. J4. J4. J4. J4. J4. J4. J4. J4. J4. J4. J4. J4. J4. J4. J4. J4. J4. J4. J4. J4. J4. J4. J4. J4. J4. J4. J4. J4. J4. J4. J4. J4. J4. J4. J4. J4. J4. J4. J4. J4. J4. J4. J4. J4. J4. J4. J4. J4. J4. J4. J4. J4. J4. J4. J4. J4. J4. J4. J4. J4. J4. J4. J4. J4. J4. J4. J4. J4. J4. J4. J4. J4. J4. J4. J4. J4. J4. J4. J4. J4. J4. J4. J4. J4. J4. J4. J4. J4. J4. J4. J4. J4. J4. J4. J4. J4. J4. J4. J4. J4. J4. J4. J4. J4. 4. 4. 4. 4. H4. H4. H4. H4. H4. H4. H4. H4. H4. H4. H4. H4. H4. H4. H4. H4. H4. H4. H4. H4. H4. H4. H4. H4. H4. H4. H4. H4. H4. H4. H4. H4. H4. H4. H4. H4. H4. H4. H4. H4. H4. H4. H4. H4. H4. H4. H4. H4. H4. H4. H4. H4. H4. H4. H4. H4. H4. H4. H4. H4. H4. H4. H4. H4. H4. H4. H4. H4. H4. H4. H4. H4. H4. H4. H4. H4. H4. H4. H4. H4. H4. H4. H4. H4. H4. H4. H4. H4. H4. H4. H4. H4. H4. H4. H4. H4. H4. H4. H4. H4. H4. H4. H4. H4. H4. H4. H4. H4. H4. H4. H4. H4. H4. H4. H4. H4. H4. H4. H4. H4. H4. H4. H4. H4. H4. H4. H4. H4. H4. H4. H4. H4. H4. H4. H4. H4. H4. H4. H4. H4. H4. H4. H4. H4. H4. H4. H4. H4. H4. H4. H4. H4. H4. H4. H4. H4. H4. H4. H4. H4. H4. H4. H4. H4. H4. H4. H4. H4. H4. H4. H4. H4. H4. H4. H4. H4. H4. H4. H4. H4. H4.    F6- F6- F6- F6- F6- F6- F6- F6- F6- F6- F6- F6- F6- F6- F6- F6- F6- F6- F6- F6- F6- F6- F6- F6- F6- F6- F6- F6- F6- F6- F6- F6- F6- F6- F6- F6- F6- F6- F6- F6- F6- F6- F6- F6- F6- F6- F6- F6- F6- F6- F6- F6- F6- F6- F6- F6- F6- F6- F6- F6- F6- F6- F6- F6- F6- F6- F6- F6- F6- F6- F6- F6- F6- F6- F6- F6- F6- F6- F6- F6- F6- F6- F6- F6- F6- F6- F6- F6- F6- F6- F6- F6- F6- F6- F6- F6- F6- F6- F6- F6- F6- F6- F6- F6- F6- F6- F6- F6- F6- F6- F6- F6- F6- F6- F6- F6- F6- F6- F6- F6- F6- F6- F6- F6- F6- F6- F6- F6- F6- F6- F6- F6- F6- F6- F6- F6- F6- F6- F6- F6- F6- F6- F6- F6- F6- F6- F6- F6- F6- F6- F6- F6- F6- F6- F6- F6- F6- F6- F6- F6- F6- F6- F6- F6- F6- F6- F6- F6- F6- F6- F6- F6- F6- F6- F6- F6- F6- F6- F6- F6- F6- 6- 6- 6- 6- E6- E6- E6- E6- E6- E6- E6- E6- E6- E6- E6- E6- E6- E6- E6- E6- E6- E6- E6- E6- E6- E6- E6- E6- E6- E6- E6- E6- E6- E6- E6- E6- E6- E6- E6- E6- E6- E6- E6- E6- E6- E6- E6- E6- E6- E6- E6- E6- E6- E6- E6- E6- E6- E6- E6- E6- E6- E6- E6- E6- E6- E6- E6- E6- E6- E6- E6- E6- E6- E6- E6- E6- E6- E6- E6- E6- E6- E6- E6- E6- E6- E6- E6- E6- E6- E6- E6- E6- E6- E6- E6- E6- E6- E6- E6- E6- E6- E6- E6- E6- E6- E6- E6- E6- E6- E6- E6- E6- E6- E6- E6- E6- E6- E6- E6- E6- E6- E6- E6- E6- E6- E6- E6- E6- E6- E6- E6- E6- E6- E6- E6- E6- E6- E6- E6- E6- E6- E6- E6- E6- E6- E6- E6- E6- E6- E6- E6- E6- E6- E6- E6- E6- E6- E6- E6- E6- E6- E6- E6- E6- E6- E6- E6- E6- E6- E6- E6- E6- E6- E6- E6- E6- E6- E6- E6- E6- E6- E6- E6- E6- E6-     F+ F+ F+ F+ F+ F+ F+ F+ F+ F+ F+ F+ F+ F+ F+ F+ F+ F+ F+ F+ F+ F+ F+ F+ F+ F+ F+ F+ F+ F+ F+ F+ F+ F+ F+ F+ F+ F+ F+ F+ F+ F+ F+ F+ F+ F+ F+ F+ F+ F+ F+ F+ F+ F+ F+ F+ F+ F+ F+ F+ F+ F+ F+ F+ F+ F+ F+ F+ F+ F+ F+ F+ F+ F+ F+ F+ F+ F+ F+ F+ F+ F+ F+ F+ F+ F+ F+ F+ F+ F+ F+ F+ F+ F+ F+ F+ F+ F+ F+ F+ F+ F+ F+ F+ F+ F+ F+ F+ F+ F+ F+ F+ F+ F+ F+ F+ F+ F+ F+ F+ F+ F+ F+ F+ F+ F+ F+ F+ F+ F+ F+ F+ F+ F+ F+ F+ F+ F+ F+ F+ F+ F+ F+ F+ F+ F+ F+ F+ F+ F+ F+ F+ F+ F+ F+ F+ F+ F+ F+ F+ F+ F+ F+ F+ F+ F+ F+ F+ F+ F+ F+ F+ F+ F+ F+ F+ F+ F+ F+ F+ F+ F+ F+ F+ F+ F+ 7F+ 7F+ 7F+ 7F+ 7F+ 7F+ 7F+ 7F+ 7F+ 7F+ 7F+ 7F+ 7F+ 7F+ 7F+ 7F+ 7F+ 7F+ 7F+ 7F+ 7F+ 7F+ 7F+ 7F+ 7F+ 7F+ 7F+ 7F+ 7F+ 7F+ 7F+ 7F+ 7F+ 7F+ 7F+ 7F+ 7F+ 7F+ 7F+ 7F+ 7F+ 7F+ 7F+ 7F+ 7F+ 7F+ 7F+ 7F+ 7F+ 7F+ 7F+ 7F+ 7F+ 7F+ 7F+ 7F+ 7F+ 7F+ 7F+ 7F+ 7F+ 7F+ 7F+ 7F+ 7F+ 7F+ 7F+ 7F+ 7F+ 7F+ 7F+ 7F+ 7F+ 7F+ 7F+ 7F+ 7F+ 7F+ 7F+ 7F+ 7F+ 7F+ 7F+ 7F+ 7F+ 7F+ 7F+ 7F+ 7F+ 7F+ 7F+ 7F+ 7F+ 7F+ 7F+ 7F+ 7F+ 7F+ 7F+ 7F+ 7F+ 7F+ 7F+ 7F+ 7F+ 7F+ 7F+ 7F+ 7F+ 7F+ 7F+ 7F+ 7F+ 7F+ 7F+ 7F+ 7F+ 7F+ 7F+ 7F+ 7F+ 7F+ 7F+ 7F+ 7F+ 7F+ 7F+ 7F+ 7F+ 7F+ 7F+ 7F+ 7F+ 7F+ 7F+ 7F+ 7F+ 7F+ 7F+ 7F+ 7F+ 7F+ 7F+ 7F+ 7F+ 7F+ 7F+ 7F+ 7F+ 7F+ 7F+ 7F+ 7F+ 7F+ 7F+ 7F+ 7F+ 7F+ 7F+ 7F+ 7F+ 7F+ 7F+ 7F+ 7F+ 7F+ 7F+ 7F+ 7F+ 7F+ 7F+ 7F+ 7F+ 7F+ 7F+ 7F+ 7F+ 7F+ 7F+ 7F+ 7F+ F+ F+ F+ F+ :F+ :F+ :F+ :F+ :F+ :F+ :F+ :F+ :F+ :F+ :F+ :F+ :F+ :F+ :F+ :F+ :F+ :F+ :F+ :F+ :F+ :F+ :F+ :F+ :F+ :F+ :F+ :F+ :F+ :F+ :F+ :F+ :F+ :F+ :F+ :F+ :F+ :F+ :F+ :F+ :F+ :F+ :F+ :F+ :F+ :F+ :F+ :F+ :F+ :F+ :F+ :F+ :F+ :F+ :F+ :F+ :F+ :F+ :F+ :F+ :F+ :F+ :F+ :F+ :F+ :F+ :F+ :F+ :F+ :F+ :F+ :F+ :F+ :F+ :F+ :F+ :F+ :F+ :F+ :F+ :F+ :F+ :F+ :F+ :F+ :F+ :F+ :F+ :F+ :F+ :F+ :F+ :F+ :F+ :F+ :F+ :F+ :F+ :F+ :F+ :F+ :F+ :F+ :F+ :F+ :F+ :F+ :F+ :F+ :F+ :F+ :F+ :F+ :F+ :F+ :F+ :F+ :F+ :F+ :F+ :F+ :F+ :F+ :F+ :F+ :F+ :F+ :F+ :F+ :F+ :F+ :F+ :F+ :F+ :F+ :F+ :F+ :F+ :F+ :F+ :F+ :F+ :F+ :F+ :F+ :F+ :F+ :F+ :F+ :F+ :F+ :F+ :F+ :F+ :F+ :F+ :F+ :F+ :F+ :F+ :F+ :F+ :F+ :F+ :F+ :F+ :F+ :F+ :F+ :F+ :F+ :F+ :F+ :F+ :F+ :F+ :F+ :F+ :F+ :F+ :F+ F+ F+ F+ >F+ >F+ >F+ >F+ >F+ >F+ >F+ >F+ >F+ >F+ >F+ >F+ >F+ >F+ >F+ >F+ >F+ >F+ >F+ >F+ >F+ >F+ >F+ >F+ >F+ >F+ >F+ >F+ >F+ >F+ >F+ >F+ >F+ >F+ >F+ >F+ >F+ >F+ >F+ >F+ >F+ >F+ >F+ >F+ >F+ >F+ >F+ >F+ >F+ >F+ >F+ >F+ >F+ >F+ >F+ >F+ >F+ >F+ >F+ >F+ >F+ >F+ >F+ >F+ >F+ >F+ >F+ >F+ >F+ >F+ >F+ >F+ >F+ >F+ >F+ >F+ >F+ >F+ >F+ >F+ >F+ >F+ >F+ >F+ >F+ >F+ >F+ >F+ >F+ >F+ >F+ >F+ >F+ >F+ >F+ >F+ >F+ >F+ >F+ >F+ >F+ >F+ >F+ >F+ >F+ >F+ >F+ >F+ >F+ >F+ >F+ >F+ >F+ >F+ >F+ >F+ >F+ >F+ >F+ >F+ >F+ >F+ >F+ >F+ >F+ >F+ >F+ >F+ >F+ >F+ >F+ >F+ >F+ >F+ >F+ >F+ >F+ >F+ >F+ >F+ >F+ >F+ >F+ >F+ >F+ >F+ >F+ >F+ >F+ >F+ >F+ >F+ >F+ >F+ >F+ >F+ >F+ >F+ >F+ >F+ >F+ >F+ >F+ >F+ >F+ >F+ >F+ >F+ >F+ >F+ >F+ >F+ >F+ >F+ >F+ >F+ >F+ >F+ >F+ >F+ >F+ F+ F+ F+ F+ CF+ CF+ CF+ CF+ CF+ CF+ CF+ CF+ CF+ CF+ CF+ CF+ CF+ CF+ CF+ CF+ CF+ CF+ CF+ CF+ CF+ CF+ CF+ CF+ CF+ CF+ CF+ CF+ CF+ CF+ CF+ CF+ CF+ CF+ CF+ CF+ CF+ CF+ CF+ CF+ CF+ CF+ CF+ CF+ CF+ CF+ CF+ CF+ CF+ CF+ CF+ CF+ CF+ CF+ CF+ CF+ CF+ CF+ CF+ CF+ CF+ CF+ CF+ CF+ CF+ CF+ CF+ CF+ CF+ CF+ CF+ CF+ CF+ CF+ CF+ CF+ CF+ CF+ CF+ CF+ CF+ CF+ CF+ CF+ CF+ CF+ CF+ CF+ CF+ CF+ CF+ CF+ CF+ CF+ CF+ CF+ CF+ CF+ CF+ CF+ CF+ CF+ CF+ CF+ CF+ CF+ CF+ CF+ CF+ CF+ CF+ CF+ CF+ CF+ CF+ CF+ CF+ CF+ CF+ CF+ CF+ CF+ CF+ CF+ CF+ CF+ CF+ CF+ CF+ CF+ CF+ CF+ CF+ CF+ CF+ CF+ CF+ CF+ CF+ CF+ CF+ CF+ CF+ CF+ CF+ CF+ CF+ CF+ CF+ CF+ CF+ CF+ CF+ CF+ CF+ CF+ CF+ CF+ CF+ CF+ CF+ CF+ CF+ CF+ CF+ CF+ CF+ CF+ CF+ CF+ CF+ CF+ CF+ CF+ CF+ CF+ CF+ CF+ CF+ CF+ CF+ F+ F+ F+ F+ AF+ AF+ AF+ AF+ AF+ AF+ AF+ AF+ AF+ AF+ AF+ AF+ AF+ AF+ AF+ AF+ AF+ AF+ AF+ AF+ AF+ AF+ AF+ AF+ AF+ AF+ AF+ AF+ AF+ AF+ AF+ AF+ AF+ AF+ AF+ AF+ AF+ AF+ AF+ AF+ AF+ AF+ AF+ AF+ AF+ AF+ AF+ AF+ AF+ AF+ AF+ AF+ AF+ AF+ AF+ AF+ AF+ AF+ AF+ AF+ AF+ AF+ AF+ AF+ AF+ AF+ AF+ AF+ AF+ AF+ AF+ AF+ AF+ AF+ AF+ AF+ AF+ AF+ AF+ AF+ AF+ AF+ AF+ AF+ AF+ AF+ AF+ AF+ AF+ AF+ AF+ AF+ AF+ AF+ AF+ AF+ AF+ AF+ AF+ AF+ AF+ AF+ AF+ AF+ AF+ AF+ AF+ AF+ AF+ AF+ AF+ AF+ AF+ AF+ AF+ AF+ AF+ AF+ AF+ AF+ AF+ AF+ AF+ AF+ AF+ AF+ AF+ AF+ AF+ AF+ AF+ AF+ AF+ AF+ AF+ AF+ AF+ AF+ AF+ AF+ AF+ AF+ AF+ AF+ AF+ AF+ AF+ AF+ AF+ AF+ AF+ AF+ AF+ AF+ AF+ AF+ AF+ AF+ AF+ AF+ AF+ AF+ AF+ AF+ AF+ AF+ AF+ AF+ AF+ AF+ AF+ AF+ AF+ AF+ AF+ AF+ AF+ AF+ AF+ AF+ AF+ F+ F+ F+ F+ ?F+ ?F+ ?F+ ?F+ ?F+ ?F+ ?F+ ?F+ ?F+ ?F+ ?F+ ?F+ ?F+ ?F+ ?F+ ?F+ ?F+ ?F+ ?F+ ?F+ ?F+ ?F+ ?F+ ?F+ ?F+ ?F+ ?F+ ?F+ ?F+ ?F+ ?F+ ?F+ ?F+ ?F+ ?F+ ?F+ ?F+ ?F+ ?F+ ?F+ ?F+ ?F+ ?F+ ?F+ ?F+ ?F+ ?F+ ?F+ ?F+ ?F+ ?F+ ?F+ ?F+ ?F+ ?F+ ?F+ ?F+ ?F+ ?F+ ?F+ ?F+ ?F+ ?F+ ?F+ ?F+ ?F+ ?F+ ?F+ ?F+ ?F+ ?F+ ?F+ ?F+ ?F+ ?F+ ?F+ ?F+ ?F+ ?F+ ?F+ ?F+ ?F+ ?F+ ?F+ ?F+ ?F+ ?F+ ?F+ ?F+ ?F+ ?F+ ?F+ ?F+ ?F+ ?F+ ?F+ ?F+ ?F+ ?F+ ?F+ ?F+ ?F+ ?F+ ?F+ ?F+ ?F+ ?F+ ?F+ ?F+ ?F+ ?F+ ?F+ ?F+ ?F+ ?F+ ?F+ ?F+ ?F+ ?F+ ?F+ ?F+ ?F+ ?F+ ?F+ ?F+ ?F+ ?F+ ?F+ ?F+ ?F+ ?F+ ?F+ ?F+ ?F+ ?F+ ?F+ ?F+ ?F+ ?F+ ?F+ ?F+ ?F+ ?F+ ?F+ ?F+ ?F+ ?F+ ?F+ ?F+ ?F+ ?F+ ?F+ ?F+ ?F+ ?F+ ?F+ ?F+ ?F+ ?F+ ?F+ ?F+ ?F+ ?F+ ?F+ ?F+ ?F+ ?F+ ?F+ ?F+ ?F+ ?F+ ?F+ ?F+ ?F+ ?F+ ?F+ ?F+ ?F+ ?F+ ?F+ ?F+ F+ F+ F+ >F+ >F+ >F+ >F+ >F+ >F+ >F+ >F+ >F+ >F+ >F+ >F+ >F+ >F+ >F+ >F+ >F+ >F+ >F+ >F+ >F+ >F+ >F+ >F+ >F+ >F+ >F+ >F+ >F+ >F+ >F+ >F+ >F+ >F+ >F+ >F+ >F+ >F+ >F+ >F+ >F+ >F+ >F+ >F+ >F+ >F+ >F+ >F+ >F+ >F+ >F+ >F+ >F+ >F+ >F+ >F+ >F+ >F+ >F+ >F+ >F+ >F+ >F+ >F+ >F+ >F+ >F+ >F+ >F+ >F+ >F+ >F+ >F+ >F+ >F+ >F+ >F+ >F+ >F+ >F+ >F+ >F+ >F+ >F+ >F+ >F+ >F+ >F+ >F+ >F+ >F+ >F+ >F+ >F+ >F+ >F+ >F+ >F+ >F+ >F+ >F+ >F+ >F+ >F+ >F+ >F+ >F+ >F+ >F+ >F+ >F+ >F+ >F+ >F+ >F+ >F+ >F+ >F+ >F+ >F+ >F+ >F+ >F+ >F+ >F+ >F+ >F+ >F+ >F+ >F+ >F+ >F+ >F+ >F+ >F+ >F+ >F+ >F+ >F+ >F+ >F+ >F+ >F+ >F+ >F+ >F+ >F+ >F+ >F+ >F+ >F+ >F+ >F+ >F+ >F+ >F+ >F+ >F+ >F+ >F+ >F+ >F+ >F+ >F+ >F+ >F+ >F+ >F+ >F+ >F+ >F+ >F+ >F+ >F+ >F+ >F+ >F+ >F+ >F+ >F+ >F+ + + + + +=E +=E +=E +=E +=E +=E +=E +=E +=E +=E +=E +=E +=E +=E +=E +=E +=E +=E +=E +=E +=E =E =E =E =E =E =E =E =E =E =E =E =E =E =E =E =E =E =E =E =E =E =E =E =E =E =E =E =E =E =E =E =E =E =E =E =E =E =E =E =E =E =E =E =E =E =E =E =E =E =E =E =E =E =E =E =E =E =E =E =E =E =E =E =E =E =E =E =E =E =E =E =E =E =E =E =E =E =E =E =E =E =E =E =E =E =E =E =E =E =E =E =E =E =E =E =E =E =E =E =E =E =E =E =E =E =E =E =E =E =E =E =E =E =E =E =E =E =E =E =E =E =E =E =E =E =E =E =E =E =E =E =E =E =E =E =E =E =E =E =E =E =E =E =E =E =E =E =E =E =E =E =E =E =E =E =E =E =E =E =E E E E E >E >E >E >E >E >E >E >E >E >E >E >E >E >E >E >E >E >E >E >E >E >E >E >E >E >E >E >E >E >E >E >E >E >E >E >E >E >E >E >E >E >E >E >E >E >E >E >E >E >E >E >E >E >E >E >E >E >E >E >E >E >E >E >E >E >E >E >E >E >E >E >E >E >E >E >E >E >E >E >E >E >E >E >E >E >E >E >E >E >E >E >E >E >E >E >E >E >E >E >E >E >E >E >E >E >E >E >E >E >E >E >E >E >E >E >E >E >E >E >E >E >E >E >E >E >E >E >E >E >E >E >E >E >E >E >E >E >E >E >E >E >E >E >E >E >E >E >E >E >E >E >E >E >E >E >E >E >E >E >E >E >E >E >E >E >E >E >E >E >E >E >E >E >E >E >E >E >E >E >E >E E E E @E @E @E @E @E @E @E @E @E @E @E @E @E @E @E @E @E @E @E @E @E @E @E @E @E @E @E @E @E @E @E @E @E @E @E @E @E @E @E @E @E @E @E @E @E @E @E @E @E @E @E @E @E @E @E @E @E @E @E @E @E @E @E @E @E @E @E @E @E @E @E @E @E @E @E @E @E @E @E @E @E @E @E @E @E @E @E @E @E @E @E @E @E @E @E @E @E @E @E @E @E @E @E @E @E @E @E @E @E @E @E @E @E @E @E @E @E @E @E @E @E @E @E @E @E @E @E @E @E @E @E @E @E @E @E @E @E @E @E @E @E @E @E @E @E @E @E @E @E @E @E @E @E @E @E @E @E @E @E @E @E @E @E @E @E @E @E @E @E @E @E @E @E @E @E @E @E @E @E @E @E E E E E :E :E :E :E :E :E :E :E :E :E :E :E :E :E :E :E :E :E :E :E :E :E :E :E :E :E :E :E :E :E :E :E :E :E :E :E :E :E :E :E :E :E :E :E :E :E :E :E :E :E :E :E :E :E :E :E :E :E :E :E :E :E :E :E :E :E :E :E :E :E :E :E :E :E :E :E :E :E :E :E :E :E :E :E :E :E :E :E :E :E :E :E :E :E :E :E :E :E :E :E :E :E :E :E :E :E :E :E :E :E :E :E :E :E :E :E :E :E :E :E :E :E :E :E :E :E :E :E :E :E :E :E :E :E :E :E :E :E :E :E :E :E :E :E :E :E :E :E :E :E :E :E :E :E :E :E :E :E :E :E :E :E :E :E :E :E :E :E :E :E :E :E :E :E :E :E :E :E :E :E :E E E E E 9E 9E 9E 9E 9E 9E 9E 9E 9E 9E 9E 9E 9E 9E 9E 9E 9E 9E 9E 9E 9E 9E 9E 9E 9E 9E 9E 9E 9E 9E 9E 9E 9E 9E 9E 9E 9E 9E 9E 9E 9E 9E 9E 9E 9E 9E 9E 9E 9E 9E 9E 9E 9E 9E 9E 9E 9E 9E 9E 9E 9E 9E 9E 9E 9E 9E 9E 9E 9E 9E 9E 9E 9E 9E 9E 9E 9E 9E 9E 9E 9E 9E 9E 9E 9E 9E 9E 9E 9E 9E 9E 9E 9E 9E 9E 9E 9E 9E 9E 9E 9E 9E 9E 9E 9E 9E 9E 9E 9E 9E 9E 9E 9E 9E 9E 9E 9E 9E 9E 9E 9E 9E 9E 9E 9E 9E 9E 9E 9E 9E 9E 9E 9E 9E 9E 9E 9E 9E 9E 9E 9E 9E 9E 9E 9E 9E 9E 9E 9E 9E 9E 9E 9E 9E 9E 9E 9E 9E 9E 9E 9E 9E 9E 9E 9E 9E 9E 9E 9E 9E 9E 9E 9E 9E 9E 9E 9E 9E 9E 9E 9E E E E 7E 7E 7E 7E 7E 7E 7E 7E 7E 7E 7E 7E 7E 7E 7E 7E 7E 7E 7E 7E 7E 7E 7E 7E 7E 7E 7E 7E 7E 7E 7E 7E 7E 7E 7E 7E 7E 7E 7E 7E 7E 7E 7E 7E 7E 7E 7E 7E 7E 7E 7E 7E 7E 7E 7E 7E 7E 7E 7E 7E 7E 7E 7E 7E 7E 7E 7E 7E 7E 7E 7E 7E 7E 7E 7E 7E 7E 7E 7E 7E 7E 7E 7E 7E 7E 7E 7E 7E 7E 7E 7E 7E 7E 7E 7E 7E 7E 7E 7E 7E 7E 7E 7E 7E 7E 7E 7E 7E 7E 7E 7E 7E 7E 7E 7E 7E 7E 7E 7E 7E 7E 7E 7E 7E 7E 7E 7E 7E 7E 7E 7E 7E 7E 7E 7E 7E 7E 7E 7E 7E 7E 7E 7E 7E 7E 7E 7E 7E 7E 7E 7E 7E 7E 7E 7E 7E 7E 7E 7E 7E 7E 7E 7E 7E 7E 7E 7E 7E 7E 7E 7E 7E 7E 7E 7E 7E 7E 7E 7E 7E 7E E E E E 5E 5E 5E 5E 5E 5E 5E 5E 5E 5E 5E 5E 5E 5E 5E 5E 5E 5E 5E 5E 5E 5E 5E 5E 5E 5E 5E 5E 5E 5E 5E 5E 5E 5E 5E 5E 5E 5E 5E 5E 5E 5E 5E 5E 5E 5E 5E 5E 5E 5E 5E 5E 5E 5E 5E 5E 5E 5E 5E 5E 5E 5E 5E 5E 5E 5E 5E 5E 5E 5E 5E 5E 5E 5E 5E 5E 5E 5E 5E 5E 5E 5E 5E 5E 5E 5E 5E 5E 5E 5E 5E 5E 5E 5E 5E 5E 5E 5E 5E 5E 5E 5E 5E 5E 5E 5E 5E 5E 5E 5E 5E 5E 5E 5E 5E 5E 5E 5E 5E 5E 5E 5E 5E 5E 5E 5E 5E 5E 5E 5E 5E 5E 5E 5E 5E 5E 5E 5E 5E 5E 5E 5E 5E 5E 5E 5E 5E 5E 5E 5E 5E 5E 5E 5E 5E 5E 5E 5E 5E 5E 5E 5E 5E 5E 5E 5E 5E 5E 5E 5E 5E 5E 5E 5E 5E 5E 5E 5E 5E 5E 5E E E E E 4E 4E 4E 4E 4E 4E 4E 4E 4E 4E 4E 4E 4E 4E 4E 4E 4E 4E 4E 4E 4E 4E 4E 4E 4E 4E 4E 4E 4E 4E 4E 4E 4E 4E 4E 4E 4E 4E 4E 4E 4E 4E 4E 4E 4E 4E 4E 4E 4E 4E 4E 4E 4E 4E 4E 4E 4E 4E 4E 4E 4E 4E 4E 4E 4E 4E 4E 4E 4E 4E 4E 4E 4E 4E 4E 4E 4E 4E 4E 4E 4E 4E 4E 4E 4E 4E 4E 4E 4E 4E 4E 4E 4E 4E 4E 4E 4E 4E 4E 4E 4E 4E 4E 4E 4E 4E 4E 4E 4E 4E 4E 4E 4E 4E 4E 4E 4E 4E 4E 4E 4E 4E 4E 4E 4E 4E 4E 4E 4E 4E 4E 4E 4E 4E 4E 4E 4E 4E 4E 4E 4E 4E 4E 4E 4E 4E 4E 4E 4E 4E 4E 4E 4E 4E 4E 4E 4E 4E 4E 4E 4E 4E 4E 4E 4E 4E 4E 4E 4E 4E 4E 4E 4E 4E 4E 4E 4E 4E 4E 4E 4E E E E E2) E2) E2) E2) E2) E2) E2) E2) E2) E2) E2) E2) E2) E2) E2) E2) E2) E2) E2) E2) E2) E2) E2) E2) E2) E2) E2) E2) E2) E2) E2) E2) E2) E2) E2) E2) E2) E2) E2) E2) E2) E2) E2) E2) E2) E2) E2) E2) E2) E2) E2) E2) E2) E2) E2) E2) E2) E2) E2) E2) E2) E2) E2) E2) E2) E2) E2) E2) E2) E2) E2) E2) E2) E2) E2) E2) E2) E2) E2) E2) E2) E2) E2) E2) E2) E2) E2) E2) E2) E2) E2) E2) E2) E2) E2) E2) E2) E2) E2) E2) E2) E2) E2) E2) E2) E2) E2) E2) E2) E2) E2) E2) E2) E2) E2) E2) E2) E2) E2) E2) E2) E2) E2) E2) E2) E2) E2) E2) E2) E2) E2) E2) E2) E2) E2) E2) E2) E2) E2) E2) E2) E2) E2) E2) E2) E2) E2) E2) E2) E2) E2) E2) E2) E2) E2) E2) E2) E2) E2) E2) E2) E2) E2) E2) E2) E2) E2) E2) E2) E2) E2) E2) E2) E2) E2) E2) E2) E2) E2) E2) E2) 2) 2) 2) 2) >2) >2) >2) >2) >2) >2) >2) >2) >2) >2) >2) >2) >2) >2) >2) >2) >2) >2) >2) >2) >2) >2) >2) >2) >2) >2) >2) >2) >2) >2) >2) >2) >2) >2) >2) >2) >2) >2) >2) >2) >2) >2) >2) >2) >2) >2) >2) >2) >2) >2) >2) >2) >2) >2) >2) >2) >2) >2) >2) >2) >2) >2) >2) >2) >2) >2) >2) >2) >2) >2) >2) >2) >2) >2) >2) >2) >2) >2) >2) >2) >2) >2) >2) >2) >2) >2) >2) >2) >2) >2) >2) >2) >2) >2) >2) >2) >2) >2) >2) >2) >2) >2) >2) >2) >2) >2) >2) >2) >2) >2) >2) >2) >2) >2) >2) >2) >2) >2) >2) >2) >2) >2) >2) >2) >2) >2) >2) >2) >2) >2) >2) >2) >2) >2) >2) >2) >2) >2) >2) >2) >2) >2) >2) >2) >2) >2) >2) >2) >2) >2) >2) >2) >2) >2) >2) >2) >2) >2) >2) >2) >2) >2) >2) >2) >2) >2) >2) >2) >2) >2) >2) >2) >2) >2) >2) >2) >2) >2) >2) >2) >2) 2) 2) 2) 2) A2) A2) A2) A2) A2) A2) A2) A2) A2) A2) A2) A2) A2) A2) A2) A2) A2) A2) A2) A2) A2) A2) A2) A2) A2) A2) A2) A2) A2) A2) A2) A2) A2) A2) A2) A2) A2) A2) A2) A2) A2) A2) A2) A2) A2) A2) A2) A2) A2) A2) A2) A2) A2) A2) A2) A2) A2) A2) A2) A2) A2) A2) A2) A2) A2) A2) A2) A2) A2) A2) A2) A2) A2) A2) A2) A2) A2) A2) A2) A2) A2) A2) A2) A2) A2) A2) A2) A2) A2) A2) A2) A2) A2) A2) A2) A2) A2) A2) A2) A2) A2) A2) A2) A2) A2) A2) A2) A2) A2) A2) A2) A2) A2) A2) A2) A2) A2) A2) A2) A2) A2) A2) A2) A2) A2) A2) A2) A2) A2) A2) A2) A2) A2) A2) A2) A2) A2) A2) A2) A2) A2) A2) A2) A2) A2) A2) A2) A2) A2) A2) A2) A2) A2) A2) A2) A2) A2) A2) A2) A2) A2) A2) A2) A2) A2) A2) A2) A2) A2) A2) A2) A2) A2) A2) A2) A2) A2) A2) A2) A2) A2) 2) 2) 2) E2) E2) E2) E2) E2) E2) E2) E2) E2) E2) E2) E2) E2) E2) E2) E2) E2) E2) E2) E2) E2) E2) E2) E2) E2) E2) E2) E2) E2) E2) E2) E2) E2) E2) E2) E2) E2) E2) E2) E2) E2) E2) E2) E2) E2) E2) E2) E2) E2) E2) E2) E2) E2) E2) E2) E2) E2) E2) E2) E2) E2) E2) E2) E2) E2) E2) E2) E2) E2) E2) E2) E2) E2) E2) E2) E2) E2) E2) E2) E2) E2) E2) E2) E2) E2) E2) E2) E2) E2) E2) E2) E2) E2) E2) E2) E2) E2) E2) E2) E2) E2) E2) E2) E2) E2) E2) E2) E2) E2) E2) E2) E2) E2) E2) E2) E2) E2) E2) E2) E2) E2) E2) E2) E2) E2) E2) E2) E2) E2) E2) E2) E2) E2) E2) E2) E2) E2) E2) E2) E2) E2) E2) E2) E2) E2) E2) E2) E2) E2) E2) E2) E2) E2) E2) E2) E2) E2) E2) E2) E2) E2) E2) E2) E2) E2) E2) E2) E2) E2) E2) E2) E2) E2) E2) E2) E2) E2) E2) E2) E2) E2) 2) 2) 2) 2) J2) J2) J2) J2) J2) J2) J2) J2) J2) J2) J2) J2) J2) J2) J2) J2) J2) J2) J2) J2) J2) J2) J2) J2) J2) J2) J2) J2) J2) J2) J2) J2) J2) J2) J2) J2) J2) J2) J2) J2) J2) J2) J2) J2) J2) J2) J2) J2) J2) J2) J2) J2) J2) J2) J2) J2) J2) J2) J2) J2) J2) J2) J2) J2) J2) J2) J2) J2) J2) J2) J2) J2) J2) J2) J2) J2) J2) J2) J2) J2) J2) J2) J2) J2) J2) J2) J2) J2) J2) J2) J2) J2) J2) J2) J2) J2) J2) J2) J2) J2) J2) J2) J2) J2) J2) J2) J2) J2) J2) J2) J2) J2) J2) J2) J2) J2) J2) J2) J2) J2) J2) J2) J2) J2) J2) J2) J2) J2) J2) J2) J2) J2) J2) J2) J2) J2) J2) J2) J2) J2) J2) J2) J2) J2) J2) J2) J2) J2) J2) J2) J2) J2) J2) J2) J2) J2) J2) J2) J2) J2) J2) J2) J2) J2) J2) J2) J2) J2) J2) J2) J2) J2) J2) J2) J2) J2) J2) J2) J2) J2) J2) 2) 2) 2)  M M M M M M M M M M M M M M M M M M M M M M M M M M M M M M M M M M M M M M M M M M M M M M M M M M M M M M M M M M M M M M M M M M M M M M M M M M M M M M M M M M M M M M M M M M M M M M M M M M M M M M M M M M M M M M M M M M M M M M M M M M M M M M M M M M M M M M M M M M M M M M M M M M M M M M M M M M M M M M M M M M M M M M M M M M M M M M M M M M M M M    L59 L59 L59 L59 L59 L59 L59 L59 L59 L59 L59 L59 L59 L59 L59 L59 L59 L59 L59 L59 L59 L59 L59 L59 L59 L59 L59 L59 L59 L59 L59 L59 L59 L59 L59 L59 L59 L59 L59 L59 L59 L59 L59 L59 L59 L59 L59 L59 L59 L59 L59 L59 L59 L59 L59 L59 L59 L59 L59 L59 L59 L59 L59 L59 L59 L59 L59 L59 L59 L59 L59 L59 L59 L59 L59 L59 L59 L59 L59 L59 L59 L59 L59 L59 L59 L59 L59 L59 L59 L59 L59 L59 L59 L59 L59 L59 L59 L59 L59 L59 L59 L59 L59 L59 L59 L59 L59 L59 L59 L59 L59 L59 L59 L59 L59 L59 L59 L59 L59 L59 L59 L59 L59 L59 L59 L59 L59 L59 L59 L59 L59 L59 L59 L59 L59 L59 L59 L59 L59 L59 L59 L59 L59 L59 L59 L59 L59 L59 L59 L59 L59 L59 L59 L59 L59 L59 L59 L59 L59 L59 L59 L59 L59 L59 L59 L59 L59 L59 L59 L59 L59 L59 L59 L59 L59 L59 L59 L59 L59 L59 L59 59 59 59 59 J59 J59 J59 J59 J59 J59 J59 J59 J59 J59 J59 J59 J59 J59 J59 J59 J59 J59 J59 J59 J59 J59 J59 J59 J59 J59 J59 J59 J59 J59 J59 J59 J59 J59 J59 J59 J59 J59 J59 J59 J59 J59 J59 J59 J59 J59 J59 J59 J59 J59 J59 J59 J59 J59 J59 J59 J59 J59 J59 J59 J59 J59 J59 J59 J59 J59 J59 J59 J59 J59 J59 J59 J59 J59 J59 J59 J59 J59 J59 J59 J59 J59 J59 J59 J59 J59 J59 J59 J59 J59 J59 J59 J59 J59 J59 J59 J59 J59 J59 J59 J59 J59 J59 J59 J59 J59 J59 J59 J59 J59 J59 J59 J59 J59 J59 J59 J59 J59 J59 J59 J59 J59 J59 J59 J59 J59 J59 J59 J59 J59 J59 J59 J59 J59 J59 J59 J59 J59 J59 J59 J59 J59 J59 J59 J59 J59 J59 J59 J59 J59 J59 J59 J59 J59 J59 J59 J59 J59 J59 J59 J59 J59 J59 J59 J59 J59 J59 J59 J59 J59 J59 J59 J59 J59 J59 J59 J59 J59 J59 J59 J59     I47 I47 I47 I47 I47 I47 I47 I47 I47 I47 I47 I47 I47 I47 I47 I47 I47 I47 I47 I47 I47 I47 I47 I47 I47 I47 I47 I47 I47 I47 I47 I47 I47 I47 I47 I47 I47 I47 I47 I47 I47 I47 I47 I47 I47 I47 I47 I47 I47 I47 I47 I47 I47 I47 I47 I47 I47 I47 I47 I47 I47 I47 I47 I47 I47 I47 I47 I47 I47 I47 I47 I47 I47 I47 I47 I47 I47 I47 I47 I47 I47 I47 I47 I47 I47 I47 I47 I47 I47 I47 I47 I47 I47 I47 I47 I47 I47 I47 I47 I47 I47 I47 I47 I47 I47 I47 I47 I47 I47 I47 I47 I47 I47 I47 I47 I47 I47 I47 I47 I47 I47 I47 I47 I47 I47 I47 I47 I47 I47 I47 I47 I47 I47 I47 I47 I47 I47 I47 I47 I47 I47 I47 I47 I47 I47 I47 I47 I47 I47 I47 I47 I47 I47 I47 I47 I47 I47 I47 I47 I47 I47 I47 I47 I47 I47 I47 I47 I47 I47 I47 I47 I47 I47 I47 I47 I47 I47 I47 I47 I47 I47 47 47 47 J47 J47 J47 J47 J47 J47 J47 J47 J47 J47 J47 J47 J47 J47 J47 J47 J47 J47 J47 J47 J47 J47 J47 J47 J47 J47 J47 J47 J47 J47 J47 J47 J47 J47 J47 J47 J47 J47 J47 J47 J47 J47 J47 J47 J47 J47 J47 J47 J47 J47 J47 J47 J47 J47 J47 J47 J47 J47 J47 J47 J47 J47 J47 J47 J47 J47 J47 J47 J47 J47 J47 J47 J47 J47 J47 J47 J47 J47 J47 J47 J47 J47 J47 J47 J47 J47 J47 J47 J47 J47 J47 J47 J47 J47 J47 J47 J47 J47 J47 J47 J47 J47 J47 J47 J47 J47 J47 J47 J47 J47 J47 J47 J47 J47 J47 J47 J47 J47 J47 J47 J47 J47 J47 J47 J47 J47 J47 J47 J47 J47 J47 J47 J47 J47 J47 J47 J47 J47 J47 J47 J47 J47 J47 J47 J47 J47 J47 J47 J47 J47 J47 J47 J47 J47 J47 J47 J47 J47 J47 J47 J47 J47 J47 J47 J47 J47 J47 J47 J47 J47 J47 J47 J47 J47 J47 J47 J47 J47 J47 J47 J47 47 7 7 7 L72 L72 L72 L72 L72 L72 L72 L72 L72 L72 L72 L72 L72 L72 L72 L72 L72 L72 L72 L72 L72 L72 L72 L72 L72 L72 L72 L72 L72 L72 L72 L72 L72 L72 L72 L72 L72 L72 L72 L72 L72 L72 L72 L72 L72 L72 L72 L72 L72 L72 L72 L72 L72 L72 L72 L72 L72 L72 L72 L72 L72 L72 L72 L72 L72 L72 L72 L72 L72 L72 L72 L72 L72 L72 L72 L72 L72 L72 L72 L72 L72 L72 L72 L72 L72 L72 L72 L72 L72 L72 L72 L72 L72 L72 L72 L72 L72 L72 L72 L72 L72 L72 L72 L72 L72 L72 L72 L72 L72 L72 L72 L72 L72 L72 L72 L72 L72 L72 L72 L72 L72 L72 L72 L72 L72 L72 L72 L72 L72 L72 L72 L72 L72 L72 L72 L72 L72 L72 L72 L72 L72 L72 L72 L72 L72 L72 L72 L72 L72 L72 L72 L72 L72 L72 L72 L72 L72 L72 L72 L72 L72 L72 L72 L72 L72 L72 L72 L72 L72 L72 L72 L72 L72 L72 L72 L72 L72 L72 L72 L72 L72 72 72 72 72 7F2 7F2 7F2 7F2 7F2 7F2 7F2 7F2 7F2 7F2 7F2 7F2 7F2 7F2 7F2 7F2 7F2 7F2 7F2 7F2 7F2 7F2 7F2 7F2 7F2 7F2 7F2 7F2 7F2 7F2 7F2 7F2 7F2 7F2 7F2 7F2 7F2 7F2 7F2 7F2 7F2 7F2 7F2 7F2 7F2 7F2 7F2 7F2 7F2 7F2 7F2 7F2 7F2 7F2 7F2 7F2 7F2 7F2 7F2 7F2 7F2 7F2 7F2 7F2 7F2 7F2 7F2 7F2 7F2 7F2 7F2 7F2 7F2 7F2 7F2 7F2 7F2 7F2 7F2 7F2 7F2 7F2 7F2 7F2 7F2 7F2 7F2 7F2 7F2 7F2 7F2 7F2 7F2 7F2 7F2 7F2 7F2 7F2 7F2 7F2 7F2 7F2 7F2 7F2 7F2 7F2 7F2 7F2 7F2 7F2 7F2 7F2 7F2 7F2 7F2 7F2 7F2 7F2 7F2 7F2 7F2 7F2 7F2 7F2 7F2 7F2 7F2 7F2 7F2 7F2 7F2 7F2 7F2 7F2 7F2 7F2 7F2 7F2 7F2 7F2 7F2 7F2 7F2 7F2 7F2 7F2 7F2 7F2 7F2 7F2 7F2 7F2 7F2 7F2 7F2 7F2 7F2 7F2 7F2 7F2 7F2 7F2 7F2 7F2 7F2 7F2 7F2 7F2 7F2 7F2 7F2 7F2 7F2 7F2 7F2 7F2 7F2 7F2 F2 F2 F2    E14 E14 E14 E14 E14 E14 E14 E14 E14 E14 E14 E14 E14 E14 E14 E14 E14 E14 E14 E14 E14 E14 E14 E14 E14 E14 E14 E14 E14 E14 E14 E14 E14 E14 E14 E14 E14 E14 E14 E14 E14 E14 E14 E14 E14 E14 E14 E14 E14 E14 E14 E14 E14 E14 E14 E14 E14 E14 E14 E14 E14 E14 E14 E14 E14 E14 E14 E14 E14 E14 E14 E14 E14 E14 E14 E14 E14 E14 E14 E14 E14 E14 E14 E14 E14 E14 E14 E14 E14 E14 E14 E14 E14 E14 E14 E14 E14 E14 E14 E14 E14 E14 E14 E14 E14 E14 E14 E14 E14 E14 E14 E14 E14 E14 E14 E14 E14 E14 E14 E14 E14 E14 E14 E14 E14 E14 E14 E14 E14 E14 E14 E14 E14 E14 E14 E14 E14 E14 E14 E14 E14 E14 E14 E14 E14 E14 E14 E14 E14 E14 E14 E14 E14 E14 E14 E14 E14 E14 E14 E14 E14 E14 E14 E14 E14 E14 E14 E14 E14 E14 E14 E14 E14 E14 E14 E14 E14 E14 E14 E14 E14 14 14 14 14 C14 C14 C14 C14 C14 C14 C14 C14 C14 C14 C14 C14 C14 C14 C14 C14 C14 C14 C14 C14 C14 C14 C14 C14 C14 C14 C14 C14 C14 C14 C14 C14 C14 C14 C14 C14 C14 C14 C14 C14 C14 C14 C14 C14 C14 C14 C14 C14 C14 C14 C14 C14 C14 C14 C14 C14 C14 C14 C14 C14 C14 C14 C14 C14 C14 C14 C14 C14 C14 C14 C14 C14 C14 C14 C14 C14 C14 C14 C14 C14 C14 C14 C14 C14 C14 C14 C14 C14 C14 C14 C14 C14 C14 C14 C14 C14 C14 C14 C14 C14 C14 C14 C14 C14 C14 C14 C14 C14 C14 C14 C14 C14 C14 C14 C14 C14 C14 C14 C14 C14 C14 C14 C14 C14 C14 C14 C14 C14 C14 C14 C14 C14 C14 C14 C14 C14 C14 C14 C14 C14 C14 C14 C14 C14 C14 C14 C14 C14 C14 C14 C14 C14 C14 C14 C14 C14 C14 C14 C14 C14 C14 C14 C14 C14 C14 C14 C14 C14 C14 C14 C14 C14 C14 C14 C14 C14 C14 C14 C14 C14 C14 4 4 4 4 A4- A4- A4- A4- A4- A4- A4- A4- A4- A4- A4- A4- A4- A4- A4- A4- A4- A4- A4- A4- A4- A4- A4- A4- A4- A4- A4- A4- A4- A4- A4- A4- A4- A4- A4- A4- A4- A4- A4- A4- A4- A4- A4- A4- A4- A4- A4- A4- A4- A4- A4- A4- A4- A4- A4- A4- A4- A4- A4- A4- A4- A4- A4- A4- A4- A4- A4- A4- A4- A4- A4- A4- A4- A4- A4- A4- A4- A4- A4- A4- A4- A4- A4- A4- A4- A4- A4- A4- A4- A4- A4- A4- A4- A4- A4- A4- A4- A4- A4- A4- A4- A4- A4- A4- A4- A4- A4- A4- A4- A4- A4- A4- A4- A4- A4- A4- A4- A4- A4- A4- A4- A4- A4- A4- A4- A4- A4- A4- A4- A4- A4- A4- A4- A4- A4- A4- A4- A4- A4- A4- A4- A4- A4- A4- A4- A4- A4- A4- A4- A4- A4- A4- A4- A4- A4- A4- A4- A4- A4- A4- A4- A4- A4- A4- A4- A4- A4- A4- A4- A4- A4- A4- A4- A4- A4- A4- A4- A4- A4- A4- A4- 4- 4- 4- 4- 4@- 4@- 4@- 4@- 4@- 4@- 4@- 4@- 4@- 4@- 4@- 4@- 4@- 4@- 4@- 4@- 4@- 4@- 4@- 4@- 4@- 4@- 4@- 4@- 4@- 4@- 4@- 4@- 4@- 4@- 4@- 4@- 4@- 4@- 4@- 4@- 4@- 4@- 4@- 4@- 4@- 4@- 4@- 4@- 4@- 4@- 4@- 4@- 4@- 4@- 4@- 4@- 4@- 4@- 4@- 4@- 4@- 4@- 4@- 4@- 4@- 4@- 4@- 4@- 4@- 4@- 4@- 4@- 4@- 4@- 4@- 4@- 4@- 4@- 4@- 4@- 4@- 4@- 4@- 4@- 4@- 4@- 4@- 4@- 4@- 4@- 4@- 4@- 4@- 4@- 4@- 4@- 4@- 4@- 4@- 4@- 4@- 4@- 4@- 4@- 4@- 4@- 4@- 4@- 4@- 4@- 4@- 4@- 4@- 4@- 4@- 4@- 4@- 4@- 4@- 4@- 4@- 4@- 4@- 4@- 4@- 4@- 4@- 4@- 4@- 4@- 4@- 4@- 4@- 4@- 4@- 4@- 4@- 4@- 4@- 4@- 4@- 4@- 4@- 4@- 4@- 4@- 4@- 4@- 4@- 4@- 4@- 4@- 4@- 4@- 4@- 4@- 4@- 4@- 4@- 4@- 4@- 4@- 4@- 4@- 4@- 4@- 4@- 4@- 4@- 4@- 4@- 4@- 4@- 4@- 4@- 4@- 4@- 4@- 4@- 4@- 4@- @- @- @- @-    B2 B2 B2 B2 B2 B2 B2 B2 B2 B2 B2 B2 B2 B2 B2 B2 B2 B2 B2 B2 B2 B2 B2 B2 B2 B2 B2 B2 B2 B2 B2 B2 B2 B2 B2 B2 B2 B2 B2 B2 B2 B2 B2 B2 B2 B2 B2 B2 B2 B2 B2 B2 B2 B2 B2 B2 B2 B2 B2 B2 B2 B2 B2 B2 B2 B2 B2 B2 B2 B2 B2 B2 B2 B2 B2 B2 B2 B2 B2 B2 B2 B2 B2 B2 B2 B2 B2 B2 B2 B2 B2 B2 B2 B2 B2 B2 B2 B2 B2 B2 B2 B2 B2 B2 B2 B2 B2 B2 B2 B2 B2 B2 B2 B2 B2 B2 B2 B2 B2 B2 B2 B2 B2 B2 B2 B2 B2 B2 B2 B2 B2 B2 B2 B2 B2 B2 B2 B2 B2 B2 B2 B2 B2 B2 B2 B2 B2 B2 B2 B2 B2 B2 B2 B2 B2 B2 B2 B2 B2 B2 B2 B2 B2 B2 B2 B2 B2 B2 B2 B2 B2 B2 B2 B2 B2 B2 B2 B2 B2 B2 B2 2 2 2 2 C2 C2 C2 C2 C2 C2 C2 C2 C2 C2 C2 C2 C2 C2 C2 C2 C2 C2 C2 C2 C2 C2 C2 C2 C2 C2 C2 C2 C2 C2 C2 C2 C2 C2 C2 C2 C2 C2 C2 C2 C2 C2 C2 C2 C2 C2 C2 C2 C2 C2 C2 C2 C2 C2 C2 C2 C2 C2 C2 C2 C2 C2 C2 C2 C2 C2 C2 C2 C2 C2 C2 C2 C2 C2 C2 C2 C2 C2 C2 C2 C2 C2 C2 C2 C2 C2 C2 C2 C2 C2 C2 C2 C2 C2 C2 C2 C2 C2 C2 C2 C2 C2 C2 C2 C2 C2 C2 C2 C2 C2 C2 C2 C2 C2 C2 C2 C2 C2 C2 C2 C2 C2 C2 C2 C2 C2 C2 C2 C2 C2 C2 C2 C2 C2 C2 C2 C2 C2 C2 C2 C2 C2 C2 C2 C2 C2 C2 C2 C2 C2 C2 C2 C2 C2 C2 C2 C2 C2 C2 C2 C2 C2 C2 C2 C2 C2 C2 C2 C2 C2 C2 C2 C2 C2 C2 C2 C2 C2 C2 C2 C2     E0 E0 E0 E0 E0 E0 E0 E0 E0 E0 E0 E0 E0 E0 E0 E0 E0 E0 E0 E0 E0 E0 E0 E0 E0 E0 E0 E0 E0 E0 E0 E0 E0 E0 E0 E0 E0 E0 E0 E0 E0 E0 E0 E0 E0 E0 E0 E0 E0 E0 E0 E0 E0 E0 E0 E0 E0 E0 E0 E0 E0 E0 E0 E0 E0 E0 E0 E0 E0 E0 E0 E0 E0 E0 E0 E0 E0 E0 E0 E0 E0 E0 E0 E0 E0 E0 E0 E0 E0 E0 E0 E0 E0 E0 E0 E0 E0 E0 E0 E0 E0 E0 E0 E0 E0 E0 E0 E0 E0 E0 E0 E0 E0 E0 E0 E0 E0 E0 E0 E0 E0 E0 E0 E0 E0 E0 E0 E0 E0 E0 E0 E0 E0 E0 E0 E0 E0 E0 E0 E0 E0 E0 E0 E0 E0 E0 E0 E0 E0 E0 E0 E0 E0 E0 E0 E0 E0 E0 E0 E0 E0 E0 E0 E0 E0 E0 E0 E0 E0 E0 E0 E0 E0 E0 E0 E0 E0 E0 E0 E0 E0 0 0 0 ?0 ?0 ?0 ?0 ?0 ?0 ?0 ?0 ?0 ?0 ?0 ?0 ?0 ?0 ?0 ?0 ?0 ?0 ?0 ?0 ?0 ?0 ?0 ?0 ?0 ?0 ?0 ?0 ?0 ?0 ?0 ?0 ?0 ?0 ?0 ?0 ?0 ?0 ?0 ?0 ?0 ?0 ?0 ?0 ?0 ?0 ?0 ?0 ?0 ?0 ?0 ?0 ?0 ?0 ?0 ?0 ?0 ?0 ?0 ?0 ?0 ?0 ?0 ?0 ?0 ?0 ?0 ?0 ?0 ?0 ?0 ?0 ?0 ?0 ?0 ?0 ?0 ?0 ?0 ?0 ?0 ?0 ?0 ?0 ?0 ?0 ?0 ?0 ?0 ?0 ?0 ?0 ?0 ?0 ?0 ?0 ?0 ?0 ?0 ?0 ?0 ?0 ?0 ?0 ?0 ?0 ?0 ?0 ?0 ?0 ?0 ?0 ?0 ?0 ?0 ?0 ?0 ?0 ?0 ?0 ?0 ?0 ?0 ?0 ?0 ?0 ?0 ?0 ?0 ?0 ?0 ?0 ?0 ?0 ?0 ?0 ?0 ?0 ?0 ?0 ?0 ?0 ?0 ?0 ?0 ?0 ?0 ?0 ?0 ?0 ?0 ?0 ?0 ?0 ?0 ?0 ?0 ?0 ?0 ?0 ?0 ?0 ?0 ?0 ?0 ?0 ?0 ?0 ?0 ?0 ?0 ?0 ?0 ?0 ?0 ?0 ?0 ?0 ?0 ?0 ?0 0    >. >. >. >. >. >. >. >. >. >. >. >. >. >. >. >. >. >. >. >. >. >. >. >. >. >. >. >. >. >. >. >. >. >. >. >. >. >. >. >. >. >. >. >. >. >. >. >. >. >. >. >. >. >. >. >. >. >. >. >. >. >. >. >. >. >. >. >. >. >. >. >. >. >. >. >. >. >. >. >. >. >. >. >. >. >. >. >. >. >. >. >. >. >. >. >. >. >. >. >. >. >. >. >. >. >. >. >. >. >. >. >. >. >. >. >. >. >. >. >. >. >. >. >. >. >. >. >. >. >. >. >. >. >. >. >. >. >. >. >. >. >. >. >. >. >. >. >. >. >. >. >. >. >. >. >. >. >. >. >. >. >. >. >. >. >. >. >. >. >. >. >. >. >. >. >. >. >. >. >. >. . . . . <. <. <. <. <. <. <. <. <. <. <. <. <. <. <. <. <. <. <. <. <. <. <. <. <. <. <. <. <. <. <. <. <. <. <. <. <. <. <. <. <. <. <. <. <. <. <. <. <. <. <. <. <. <. <. <. <. <. <. <. <. <. <. <. <. <. <. <. <. <. <. <. <. <. <. <. <. <. <. <. <. <. <. <. <. <. <. <. <. <. <. <. <. <. <. <. <. <. <. <. <. <. <. <. <. <. <. <. <. <. <. <. <. <. <. <. <. <. <. <. <. <. <. <. <. <. <. <. <. <. <. <. <. <. <. <. <. <. <. <. <. <. <. <. <. <. <. <. <. <. <. <. <. <. <. <. <. <. <. <. <. <. <. <. <. <. <. <. <. <. <. <. <. <. <. <. <. <. <. <. <.    :- :- :- :- :- :- :- :- :- :- :- :- :- :- :- :- :- :- :- :- :- :- :- :- :- :- :- :- :- :- :- :- :- :- :- :- :- :- :- :- :- :- :- :- :- :- :- :- :- :- :- :- :- :- :- :- :- :- :- :- :- :- :- :- :- :- :- :- :- :- :- :- :- :- :- :- :- :- :- :- :- :- :- :- :- :- :- :- :- :- :- :- :- :- :- :- :- :- :- :- :- :- :- :- :- :- :- :- :- :- :- :- :- :- :- :- :- :- :- :- :- :- :- :- :- :- :- :- :- :- :- :- :- :- :- :- :- :- :- :- :- :- :- :- :- :- :- :- :- :- :- :- :- :- :- :- :- :- :- :- :- :- :- :- :- :- :- :- :- :- :- :- :- :- :- :- :- :- :- :- :- - - - - 9- 9- 9- 9- 9- 9- 9- 9- 9- 9- 9- 9- 9- 9- 9- 9- 9- 9- 9- 9- 9- 9- 9- 9- 9- 9- 9- 9- 9- 9- 9- 9- 9- 9- 9- 9- 9- 9- 9- 9- 9- 9- 9- 9- 9- 9- 9- 9- 9- 9- 9- 9- 9- 9- 9- 9- 9- 9- 9- 9- 9- 9- 9- 9- 9- 9- 9- 9- 9- 9- 9- 9- 9- 9- 9- 9- 9- 9- 9- 9- 9- 9- 9- 9- 9- 9- 9- 9- 9- 9- 9- 9- 9- 9- 9- 9- 9- 9- 9- 9- 9- 9- 9- 9- 9- 9- 9- 9- 9- 9- 9- 9- 9- 9- 9- 9- 9- 9- 9- 9- 9- 9- 9- 9- 9- 9- 9- 9- 9- 9- 9- 9- 9- 9- 9- 9- 9- 9- 9- 9- 9- 9- 9- 9- 9- 9- 9- 9- 9- 9- 9- 9- 9- 9- 9- 9- 9- 9- 9- 9- 9- 9- 9- 9- 9- 9- 9- 9- 9- 9- 9- 9- 9- 9- 9- 9- 9- 9- 9- 9- 9-     :+ :+ :+ :+ :+ :+ :+ :+ :+ :+ :+ :+ :+ :+ :+ :+ :+ :+ :+ :+ :+ :+ :+ :+ :+ :+ :+ :+ :+ :+ :+ :+ :+ :+ :+ :+ :+ :+ :+ :+ :+ :+ :+ :+ :+ :+ :+ :+ :+ :+ :+ :+ :+ :+ :+ :+ :+ :+ :+ :+ :+ :+ :+ :+ :+ :+ :+ :+ :+ :+ :+ :+ :+ :+ :+ :+ :+ :+ :+ :+ :+ :+ :+ :+ :+ :+ :+ :+ :+ :+ :+ :+ :+ :+ :+ :+ :+ :+ :+ :+ :+ :+ :+ :+ :+ :+ :+ :+ :+ :+ :+ :+ :+ :+ :+ :+ :+ :+ :+ :+ :+ :+ :+ :+ :+ :+ :+ :+ :+ :+ :+ :+ :+ :+ :+ :+ :+ :+ :+ :+ :+ :+ :+ :+ :+ :+ :+ :+ :+ :+ :+ :+ :+ :+ :+ :+ :+ :+ :+ :+ :+ :+ :+ :+ :+ :+ :+ :+ :+ :+ :+ :+ :+ :+ :+ :+ :+ :+ :+ :+ :+ + + + <+ <+ <+ <+ <+ <+ <+ <+ <+ <+ <+ <+ <+ <+ <+ <+ <+ <+ <+ <+ <+ <+ <+ <+ <+ <+ <+ <+ <+ <+ <+ <+ <+ <+ <+ <+ <+ <+ <+ <+ <+ <+ <+ <+ <+ <+ <+ <+ <+ <+ <+ <+ <+ <+ <+ <+ <+ <+ <+ <+ <+ <+ <+ <+ <+ <+ <+ <+ <+ <+ <+ <+ <+ <+ <+ <+ <+ <+ <+ <+ <+ <+ <+ <+ <+ <+ <+ <+ <+ <+ <+ <+ <+ <+ <+ <+ <+ <+ <+ <+ <+ <+ <+ <+ <+ <+ <+ <+ <+ <+ <+ <+ <+ <+ <+ <+ <+ <+ <+ <+ <+ <+ <+ <+ <+ <+ <+ <+ <+ <+ <+ <+ <+ <+ <+ <+ <+ <+ <+ <+ <+ <+ <+ <+ <+ <+ <+ <+ <+ <+ <+ <+ <+ <+ <+ <+ <+ <+ <+ <+ <+ <+ <+ <+ <+ <+ <+ <+ <+ <+ <+ <+ <+ <+ <+ <+ <+ <+ <+ <+ <+ +    >) >) >) >) >) >) >) >) >) >) >) >) >) >) >) >) >) >) >) >) >) >) >) >) >) >) >) >) >) >) >) >) >) >) >) >) >) >) >) >) >) >) >) >) >) >) >) >) >) >) >) >) >) >) >) >) >) >) >) >) >) >) >) >) >) >) >) >) >) >) >) >) >) >) >) >) >) >) >) >) >) >) >) >) >) >) >) >) >) >) >) >) >) >) >) >) >) >) >) >) >) >) >) >) >) >) >) >) >) >) >) >) >) >) >) >) >) >) >) >) >) >) >) >) >) >) >) >) >) >) >) >) >) >) >) >) >) >) >) >) >) >) >) >) >) >) >) >) >) >) >) >) >) >) >) >) >) >) >) >) >) >) >) >) >) >) >) >) >) >) >) >) >) >) >) >) >) >) >) >) >) ) ) ) ) 8) 8) 8) 8) 8) 8) 8) 8) 8) 8) 8) 8) 8) 8) 8) 8) 8) 8) 8) 8) 8) 8) 8) 8) 8) 8) 8) 8) 8) 8) 8) 8) 8) 8) 8) 8) 8) 8) 8) 8) 8) 8) 8) 8) 8) 8) 8) 8) 8) 8) 8) 8) 8) 8) 8) 8) 8) 8) 8) 8) 8) 8) 8) 8) 8) 8) 8) 8) 8) 8) 8) 8) 8) 8) 8) 8) 8) 8) 8) 8) 8) 8) 8) 8) 8) 8) 8) 8) 8) 8) 8) 8) 8) 8) 8) 8) 8) 8) 8) 8) 8) 8) 8) 8) 8) 8) 8) 8) 8) 8) 8) 8) 8) 8) 8) 8) 8) 8) 8) 8) 8) 8) 8) 8) 8) 8) 8) 8) 8) 8) 8) 8) 8) 8) 8) 8) 8) 8) 8) 8) 8) 8) 8) 8) 8) 8) 8) 8) 8) 8) 8) 8) 8) 8) 8) 8) 8) 8) 8) 8) 8) 8) 8) 8) 8) 8) 8) 8) 8) 8) 8) 8) 8) 8) 8) 8) 8) 8) 8) 8) 8)    7' 7' 7' 7' 7' 7' 7' 7' 7' 7' 7' 7' 7' 7' 7' 7' 7' 7' 7' 7' 7' 7' 7' 7' 7' 7' 7' 7' 7' 7' 7' 7' 7' 7' 7' 7' 7' 7' 7' 7' 7' 7' 7' 7' 7' 7' 7' 7' 7' 7' 7' 7' 7' 7' 7' 7' 7' 7' 7' 7' 7' 7' 7' 7' 7' 7' 7' 7' 7' 7' 7' 7' 7' 7' 7' 7' 7' 7' 7' 7' 7' 7' 7' 7' 7' 7' 7' 7' 7' 7' 7' 7' 7' 7' 7' 7' 7' 7' 7' 7' 7' 7' 7' 7' 7' 7' 7' 7' 7' 7' 7' 7' 7' 7' 7' 7' 7' 7' 7' 7' 7' 7' 7' 7' 7' 7' 7' 7' 7' 7' 7' 7' 7' 7' 7' 7' 7' 7' 7' 7' 7' 7' 7' 7' 7' 7' 7' 7' 7' 7' 7' 7' 7' 7' 7' 7' 7' 7' 7' 7' 7' 7' 7' 7' 7' 7' 7' 7' 7' 7' 7' 7' 7' 7' 7' 7' 7' 7' 7' 7' 7' ' ' ' ' 5' 5' 5' 5' 5' 5' 5' 5' 5' 5' 5' 5' 5' 5' 5' 5' 5' 5' 5' 5' 5' 5' 5' 5' 5' 5' 5' 5' 5' 5' 5' 5' 5' 5' 5' 5' 5' 5' 5' 5' 5' 5' 5' 5' 5' 5' 5' 5' 5' 5' 5' 5' 5' 5' 5' 5' 5' 5' 5' 5' 5' 5' 5' 5' 5' 5' 5' 5' 5' 5' 5' 5' 5' 5' 5' 5' 5' 5' 5' 5' 5' 5' 5' 5' 5' 5' 5' 5' 5' 5' 5' 5' 5' 5' 5' 5' 5' 5' 5' 5' 5' 5' 5' 5' 5' 5' 5' 5' 5' 5' 5' 5' 5' 5' 5' 5' 5' 5' 5' 5' 5' 5' 5' 5' 5' 5' 5' 5' 5' 5' 5' 5' 5' 5' 5' 5' 5' 5' 5' 5' 5' 5' 5' 5' 5' 5' 5' 5' 5' 5' 5' 5' 5' 5' 5' 5' 5' 5' 5' 5' 5' 5' 5' 5' 5' 5' 5' 5' 5' 5' 5' 5' 5' 5' 5' 5' 5' 5' 5' 5' 5'     3& 3& 3& 3& 3& 3& 3& 3& 3& 3& 3& 3& 3& 3& 3& 3& 3& 3& 3& 3& 3& 3& 3& 3& 3& 3& 3& 3& 3& 3& 3& 3& 3& 3& 3& 3& 3& 3& 3& 3& 3& 3& 3& 3& 3& 3& 3& 3& 3& 3& 3& 3& 3& 3& 3& 3& 3& 3& 3& 3& 3& 3& 3& 3& 3& 3& 3& 3& 3& 3& 3& 3& 3& 3& 3& 3& 3& 3& 3& 3& 3& 3& 3& 3& 3& 3& 3& 3& 3& 3& 3& 3& 3& 3& 3& 3& 3& 3& 3& 3& 3& 3& 3& 3& 3& 3& 3& 3& 3& 3& 3& 3& 3& 3& 3& 3& 3& 3& 3& 3& 3& 3& 3& 3& 3& 3& 3& 3& 3& 3& 3& 3& 3& 3& 3& 3& 3& 3& 3& 3& 3& 3& 3& 3& 3& 3& 3& 3& 3& 3& 3& 3& 3& 3& 3& 3& 3& 3& 3& 3& 3& 3& 3& 3& 3& 3& 3& 3& 3& 3& 3& 3& 3& 3& 3& 3& 3& 3& 3& 3& 3& & & & 2& 2& 2& 2& 2& 2& 2& 2& 2& 2& 2& 2& 2& 2& 2& 2& 2& 2& 2& 2& 2& 2& 2& 2& 2& 2& 2& 2& 2& 2& 2& 2& 2& 2& 2& 2& 2& 2& 2& 2& 2& 2& 2& 2& 2& 2& 2& 2& 2& 2& 2& 2& 2& 2& 2& 2& 2& 2& 2& 2& 2& 2& 2& 2& 2& 2& 2& 2& 2& 2& 2& 2& 2& 2& 2& 2& 2& 2& 2& 2& 2& 2& 2& 2& 2& 2& 2& 2& 2& 2& 2& 2& 2& 2& 2& 2& 2& 2& 2& 2& 2& 2& 2& 2& 2& 2& 2& 2& 2& 2& 2& 2& 2& 2& 2& 2& 2& 2& 2& 2& 2& 2& 2& 2& 2& 2& 2& 2& 2& 2& 2& 2& 2& 2& 2& 2& 2& 2& 2& 2& 2& 2& 2& 2& 2& 2& 2& 2& 2& 2& 2& 2& 2& 2& 2& 2& 2& 2& 2& 2& 2& 2& 2& 2& 2& 2& 2& 2& 2& 2& 2& 2& 2& 2& 2& 2& 2& 2& 2& 2& 2& &    1( 1( 1( 1( 1( 1( 1( 1( 1( 1( 1( 1( 1( 1( 1( 1( 1( 1( 1( 1( 1( 1( 1( 1( 1( 1( 1( 1( 1( 1( 1( 1( 1( 1( 1( 1( 1( 1( 1( 1( 1( 1( 1( 1( 1( 1( 1( 1( 1( 1( 1( 1( 1( 1( 1( 1( 1( 1( 1( 1( 1( 1( 1( 1( 1( 1( 1( 1( 1( 1( 1( 1( 1( 1( 1( 1( 1( 1( 1( 1( 1( 1( 1( 1( 1( 1( 1( 1( 1( 1( 1( 1( 1( 1( 1( 1( 1( 1( 1( 1( 1( 1( 1( 1( 1( 1( 1( 1( 1( 1( 1( 1( 1( 1( 1( 1( 1( 1( 1( 1( 1( 1( 1( 1( 1( 1( 1( 1( 1( 1( 1( 1( 1( 1( 1( 1( 1( 1( 1( 1( 1( 1( 1( 1( 1( 1( 1( 1( 1( 1( 1( 1( 1( 1( 1( 1( 1( 1( 1( 1( 1( 1( 1( 1( 1( 1( 1( 1( 1( 1( 1( 1( 1( 1( 1( 1( 1( 1( 1( 1( 1( ( ( ( ( 2( 2( 2( 2( 2( 2( 2( 2( 2( 2( 2( 2( 2( 2( 2( 2( 2( 2( 2( 2( 2( 2( 2( 2( 2( 2( 2( 2( 2( 2( 2( 2( 2( 2( 2( 2( 2( 2( 2( 2( 2( 2( 2( 2( 2( 2( 2( 2( 2( 2( 2( 2( 2( 2( 2( 2( 2( 2( 2( 2( 2( 2( 2( 2( 2( 2( 2( 2( 2( 2( 2( 2( 2( 2( 2( 2( 2( 2( 2( 2( 2( 2( 2( 2( 2( 2( 2( 2( 2( 2( 2( 2( 2( 2( 2( 2( 2( 2( 2( 2( 2( 2( 2( 2( 2( 2( 2( 2( 2( 2( 2( 2( 2( 2( 2( 2( 2( 2( 2( 2( 2( 2( 2( 2( 2( 2( 2( 2( 2( 2( 2( 2( 2( 2( 2( 2( 2( 2( 2( 2( 2( 2( 2( 2( 2( 2( 2( 2( 2( 2( 2( 2( 2( 2( 2( 2( 2( 2( 2( 2( 2( 2( 2( 2( 2( 2( 2( 2( 2( 2( 2( 2( 2( 2( 2( 2( 2( 2( 2( 2( 2( ( ( ( (4 (4 (4 (4 (4 (4 (4 (4 (4 (4 (4 (4 (4 (4 (4 (4 (4 (4 (4 (4 (4 (4 (4 (4 (4 (4 (4 (4 (4 (4 (4 (4 (4 (4 (4 (4 (4 (4 (4 (4 (4 (4 (4 (4 (4 (4 (4 (4 (4 (4 (4 (4 (4 (4 (4 (4 (4 (4 (4 (4 (4 (4 (4 (4 (4 (4 (4 (4 (4 (4 (4 (4 (4 (4 (4 (4 (4 (4 (4 (4 (4 (4 (4 (4 (4 (4 (4 (4 (4 (4 (4 (4 (4 (4 (4 (4 (4 (4 (4 (4 (4 (4 (4 (4 (4 (4 (4 (4 (4 (4 (4 (4 (4 (4 (4 (4 (4 (4 (4 (4 (4 (4 (4 (4 (4 (4 (4 (4 (4 (4 (4 (4 (4 (4 (4 (4 (4 (4 (4 (4 (4 (4 (4 (4 (4 (4 (4 (4 (4 (4 (4 (4 (4 (4 (4 (4 (4 (4 (4 (4 (4 (4 (4 (4 (4 (4 (4 (4 (4 (4 4 4 4 4 4 4 4 4 4 4 4     . . . . . . . . . . . . . . . . . . . . . . . . . . . . . . . . . . . . . . . . . . . . . . . . . . . . . . . . . . . . . . . . . . . . . . . . . . . . . . . . . . . . . . . . . . . . . . . . . . . . . . . . . . . . . . . . . . . . . . . . . . . . . . . . . . . . . . . . . . . . . . . . . . . . . . . . . . . . . . . . . . . . . . . . . . . . . . . . . . . . .     - - - - - - - - - - - - - - - - - - - - - - - - - - - - - - - - - - - - - - - - - - - - - - - - - - - - - - - - - - - - - - - - - - - - - - - - - - - - - - - - - - - - - - - - - - - - - - - - - - - - - - - - - - - - - - - - - - - - - - - - - - - - - - - - - - - - - - - - - - - - - - - - - - - - - - - - - - - - - - - - - - - - - - - - - - - - - - - - - - - - -    + + + + + + + + + + + + + + + + + + + + + + + + + + + + + + + + + + + + + + + + + + + + + + + + + + + + + + + + + + + + + + + + + + + + + + + + + + + + + + + + + + + + + + + + + + + + + + + + + + + + + + + + + + + + + + + + + + + + + + + + + + + + + + + + + + + + + + + + + + + + + + + + + + + + + + + + + + + + + + + + + + + + + + + + + + + + + + + + + + + + +     J) J) J) J) J) J) J) J) J) J) J) J) J) J) J) J) J) J) J) J) J) J) J) J) J) J) J) J) J) J) J) J) J) J) J) J) J) J) J) J) J) J) J) J) J) J) J) J) J) J) J) J) J) J) J) J) J) J) J) J) J) J) J) J) J) J) J) J) J) J) J) J) J) J) J) J) J) J) J) J) J) J) J) J) J) J) J) J) J) ) ) ) ) )I )I )I )I )I )I )I )I )I )I )I )I )I )I )I )I )I )I )I )I )I )I )I )I )I )I )I )I )I )I )I )I )I )I )I )I )I )I )I )I )I )I )I )I )I )I )I )I )I )I )I )I )I )I )I )I )I )I )I )I )I )I )I )I )I )I )I )I )I )I )I )I )I )I )I )I )I )I )I )I )I )I )I )I )I )I )I )I I    G( G( G( G( G( G( G( G( G( G( G( G( G( G( G( G( G( G( G( G( G( G( G( G( G( G( G( G( G( G( G( G( G( G( G( G( G( G( G( G( G( G( G( G( G( G( G( G( G( G( G( G( G( G( G( G( G( G( G( G( G( G( G( G( G( G( G( G( G( G( G( G( G( G( G( G( G( G( G( G( G( G( G( G( G( G( G( G( G( ( ( ( I( I( I( I( I( I( I( I( I( I( I( I( I( I( I( I( I( I( I( I( I( I( I( I( I( I( I( I( I( I( I( I( I( I( I( I( I( I( I( I( I( I( I( I( I( I( I( I( I( I( I( I( I( I( I( I( I( I( I( I( I( I( I( I( I( I( I( I( I( I( I( I( I( I( I( I( I( I( I( I( I( I( I( I( I( I( I( I( I(     )J )J )J )J )J )J )J )J )J )J )J )J )J )J )J )J )J )J )J )J )J )J )J )J )J )J )J )J )J )J )J )J )J )J )J )J )J )J )J )J )J )J )J )J )J )J )J )J )J )J )J )J )J )J )J )J )J )J )J )J )J )J )J )J )J )J )J )J )J )J )J )J )J )J )J )J )J )J )J )J )J )J )J )J )J )J )J )J )J )J )J )J )J )J )J )J )J )J )J )J )J )J )J )J )J )J )J )J )J )J )J )J )J )J )J )J )J )J )J )J )J )J )J )J )J )J )J )J )J )J )J )J )J )J )J )J )J )J )J )J )J )J )J )J )J )J )J )J )J )J )J )J )J )J )J )J )J )J )J )J )J )J )J )J )J )J )J )J )J )J )J )J )J )J )J )J )J )J )J )J )J )J )J )J )J )J L)J L)J L)J L)J L)J L)J L)J L)J L)J L)J L)J L)J L)J L)J L)J L)J L)J L)J L)J L)J L)J L)J L)J L)J L)J L)J L)J L)J L)J L)J L)J L)J L)J L)J L)J L)J L)J L)J L)J L)J L)J L)J L)J L)J L)J L)J L)J L)J L)J L)J L)J L)J L)J L)J L)J L)J L)J L)J L)J L)J L)J L)J L)J L)J L)J L)J L)J L)J L)J L)J L)J L)J L)J L)J L)J L)J L)J L)J L)J L)J L)J L)J L)J L)J L)J L)J L)J L)J L)J L)J L)J L)J L)J L)J L)J L)J L)J L)J L)J L)J L)J L)J L)J L)J L)J L)J L)J L)J L)J L)J L)J L)J L)J L)J L)J L)J L)J L)J L)J L)J L)J L)J L)J L)J L)J L)J L)J L)J L)J L)J L)J L)J L)J L)J L)J L)J L)J L)J L)J L)J L)J L)J L)J L)J L)J L)J L)J L)J L)J L)J L)J L)J L)J L)J L)J L)J L)J L)J L)J L)J L)J L)J L)J L)J L)J L)J L)J L)J L)J L)J L)J L)J L)J L)J L)J L)J L)J L)J L)J L)J L)J J J J J MJ+ MJ+ MJ+ MJ+ MJ+ MJ+ MJ+ MJ+ MJ+ MJ+ MJ+ MJ+ MJ+ MJ+ MJ+ MJ+ MJ+ MJ+ MJ+ MJ+ MJ+ MJ+ MJ+ MJ+ MJ+ MJ+ MJ+ MJ+ MJ+ MJ+ MJ+ MJ+ MJ+ MJ+ MJ+ MJ+ MJ+ MJ+ MJ+ MJ+ MJ+ MJ+ MJ+ MJ+ MJ+ MJ+ MJ+ MJ+ MJ+ MJ+ MJ+ MJ+ MJ+ MJ+ MJ+ MJ+ MJ+ MJ+ MJ+ MJ+ MJ+ MJ+ MJ+ MJ+ MJ+ MJ+ MJ+ MJ+ MJ+ MJ+ MJ+ MJ+ MJ+ MJ+ MJ+ MJ+ MJ+ MJ+ MJ+ MJ+ MJ+ MJ+ MJ+ MJ+ MJ+ MJ+ MJ+ MJ+ MJ+ MJ+ MJ+ MJ+ MJ+ MJ+ MJ+ MJ+ MJ+ MJ+ MJ+ MJ+ MJ+ MJ+ MJ+ MJ+ MJ+ MJ+ MJ+ MJ+ MJ+ MJ+ MJ+ MJ+ MJ+ MJ+ MJ+ MJ+ MJ+ MJ+ MJ+ MJ+ MJ+ MJ+ MJ+ MJ+ MJ+ MJ+ MJ+ MJ+ MJ+ MJ+ MJ+ MJ+ MJ+ MJ+ MJ+ MJ+ MJ+ MJ+ MJ+ MJ+ MJ+ MJ+ MJ+ MJ+ MJ+ MJ+ MJ+ MJ+ MJ+ MJ+ MJ+ MJ+ MJ+ MJ+ MJ+ MJ+ MJ+ MJ+ MJ+ MJ+ MJ+ MJ+ MJ+ MJ+ MJ+ MJ+ MJ+ MJ+ MJ+ MJ+ MJ+ MJ+ MJ+ MJ+ MJ+ MJ+ MJ+ MJ+ MJ+ MJ+ MJ+ J+ J+ J+ JR+ JR+ JR+ JR+ JR+ JR+ JR+ JR+ JR+ JR+ JR+ JR+ JR+ JR+ JR+ JR+ JR+ JR+ JR+ JR+ JR+ JR+ JR+ JR+ JR+ JR+ JR+ JR+ JR+ JR+ JR+ JR+ JR+ JR+ JR+ JR+ JR+ JR+ JR+ JR+ JR+ JR+ JR+ JR+ JR+ JR+ JR+ JR+ JR+ JR+ JR+ JR+ JR+ JR+ JR+ JR+ JR+ JR+ JR+ JR+ JR+ JR+ JR+ JR+ JR+ JR+ JR+ JR+ JR+ JR+ JR+ JR+ JR+ JR+ JR+ JR+ JR+ JR+ JR+ JR+ JR+ JR+ JR+ JR+ JR+ JR+ JR+ JR+ JR+ JR+ JR+ JR+ JR+ JR+ JR+ JR+ JR+ JR+ JR+ JR+ JR+ JR+ JR+ JR+ JR+ JR+ JR+ JR+ JR+ JR+ JR+ JR+ JR+ JR+ JR+ JR+ JR+ JR+ JR+ JR+ JR+ JR+ JR+ JR+ JR+ JR+ JR+ JR+ JR+ JR+ JR+ JR+ JR+ JR+ JR+ JR+ JR+ JR+ JR+ JR+ JR+ JR+ JR+ JR+ JR+ JR+ JR+ JR+ JR+ JR+ JR+ JR+ JR+ JR+ JR+ JR+ JR+ JR+ JR+ JR+ JR+ JR+ JR+ JR+ JR+ JR+ JR+ JR+ JR+ JR+ JR+ JR+ JR+ JR+ JR+ JR+ JR+ JR+ R+ R+ R+ +    M-I M-I M-I M-I M-I M-I M-I M-I M-I M-I M-I M-I M-I M-I M-I M-I M-I M-I M-I M-I M-I M-I M-I M-I M-I M-I M-I M-I M-I M-I M-I M-I M-I M-I M-I M-I M-I M-I M-I M-I M-I M-I M-I M-I M-I M-I M-I M-I M-I M-I M-I M-I M-I M-I M-I M-I M-I M-I M-I M-I M-I M-I M-I M-I M-I M-I M-I M-I M-I M-I M-I M-I M-I M-I M-I M-I M-I M-I M-I M-I M-I M-I M-I M-I M-I M-I M-I M-I M-I M-I M-I M-I M-I M-I M-I M-I M-I M-I M-I M-I M-I M-I M-I M-I M-I M-I M-I M-I M-I M-I M-I M-I M-I M-I M-I M-I M-I M-I M-I M-I M-I M-I M-I M-I M-I M-I M-I M-I M-I M-I M-I M-I M-I M-I M-I M-I M-I M-I M-I M-I M-I M-I M-I M-I M-I M-I M-I M-I M-I M-I M-I M-I M-I M-I M-I M-I M-I M-I M-I M-I -I -I -I -I -I -I -I -I -I -I -I -I L-I L-I L-I L-I L-I L-I L-I L-I L-I L-I L-I L-I L-I L-I L-I L-I L-I L-I L-I L-I L-I L-I L-I L-I L-I L-I L-I L-I L-I L-I L-I L-I L-I L-I L-I L-I L-I L-I L-I L-I L-I L-I L-I L-I L-I L-I L-I L-I L-I L-I L-I L-I L-I L-I L-I L-I L-I L-I L-I L-I L-I L-I L-I L-I L-I L-I L-I L-I L-I L-I L-I L-I L-I LM-I LM-I LM-I LM-I LM-I LM-I LM-I LM-I LM-I LM-I LM-I LM-I LM-I LM-I LM-I LM-I M-I M-I M-I M-I M-I M-I M-I M-I M-I M-I M-I M-I M-I M-I M-I M-I M-I M-I M-I M-I M-I M-I M-I M-I M-I M-I M-I M-I M-I M-I M-I M-I M-I M-I M-I M-I M-I M-I M-I M-I M-I M-I M-I M-I M-I M-I M-I M-I M-I M-I M-I M-I M-I M-I M-I M-I M-LI M-LI M-LI M-LI M-LI M-LI M-LI M-LI M-LI M-LI M-LI M-LI M-LI M-LI M-LI M-LI M-LI -LI -LI -LI -LI -LI -LI -LI -LI -LI -LI -LI -LI -LI -LI -LI -LI -LI -LI -LI -LI -LI -LI -LI -LI -LI -LI -LI -LI -LI -LI -LI -LI LI LI LI LI- LI- LI- LI- LI- LI- LI- LI- LI- LI- LI- LI- LI- LI- LI- LI- LI- LI- LI- LI- LMI- LMI- LMI- LMI- LMI- LMI- LMI- LMI- LMI- LMI- LMI- LMI- LMI- LMI- LMI- LMI- LMI- MI- MI- MI- MI- MI- MI- MI- MI- MI- MI- MI- MI- MI- MI- MI- MI- MI- MI- MI- MI- MI- MI- MI- MI- MI- MI- MI- MI- MI- MI- MI- MI- MI- MI- MI- MI- MI- MI- MI- MI- MI- MI- MI- MI- MI- MI- MI- MI- MI- MI- MI- MI- MI- MI- MI- MI- MLI- MLI- MLI- MLI- MLI- MLI- MLI- MLI- MLI- MLI- MLI- MLI- MLI- MLI- MLI- MLI- LI- LI- LI- LI- LI- LI- LI- LI- LI- LI- LI- LI- LI- LI- LI- LI- LI- LI- LI- LI- LI- LI- LI- LI- LI- LI- LI- LI- LI- LI- LI- LI- LI- LI- LI- LI- LI- LI- LI- LI- LI- LI- LI- LI- LI- LI- LI- LI- LI- LI- LI- LI- LI- LI- LI- LI- LI- LI- LI- LI- LI- LI- LI- LI- LI- LI- LI- LI- LI- LI- LI- LI- LI- I- I- I- IJ- IJ- IJ- IJ- IJ- IJ- IJ- IJ- IJ- IJ- IJ- IJ- IJ- IJ- IJ- IJ- IJ- IJ- IJ- IJ- IJ- IJ- IJ- IJ- IJ- IJ- IJ- IJ- IJ- IJ- IJ- IJ- IJ- IJ- IJ- IJ- IJ- IJ- IJ- IJ- IJ- IJ- IJ- IJ- IJ- IJ- IJ- IJ- IJ- IJ- IJ- IJ- IJ- IJ- IJ- IJ- IJ- IJ- IJ- IJ- IJ- IJ- IJ- IJ- IJ- IJ- IJ- IJ- IJ- IJ- IJ- IJ- IJ- IJ- IJ- IJ- IJ- IJ- IJ- IJ- IJ- IJ- IJ- IJ- IJ- IJ- IJ- IJ- IJ- IJ- IJ- IJ- IJ- IJ- IJ- IJ- IJ- IJ- IJ- IJ- IJ- IJ- IJ- IJ- IJ- IJ- IJ- IJ- IJ- IJ- IJ- IJ- IJ- IJ- IJ- IJ- IJ- IJ- IJ- IJ- IJ- IJ- IJ- IJ- IJ- IJ- IJ- IJ- IJ- IJ- IJ- IJ- IJ- IJ- IJ- IJ- IJ- IJ- IJ- IJ- IJ- IJ- IJ- IJ- IJ- IJ- IJ- IJ- IJ- IJ- IJ- IJ- IJ- IJ- IJ- IJ- IJ- IJ- IJ- IJ- IJ- IJ- IJ- IJ- IJ- IJ- IJ- IJ- IJ- IJ- IJ- IJ- IJ- IJ- IJ- IJ- IJ- IJ- J- J- J-     J& J& J& J& J& J& J& J& J& J& J& J& J& J& J& J& J& J& J& J& J& J& J& J& J& J& J& J& J& J& J& J& J& J& J& J& J& J& J& J& J& J& J& J& J& J& J& J& J& J& J& J& J& J& J& J& J& J& J& J& J& J& J& J& J& J& J& J& J& J& J& J& J& J& J& J& J& J& J& J& J& J& J& J& J& J& J& J& J& J& J& J& J& J& J& J& J& J& J& J& J& J& J& J& J& J& J& J& J& J& J& J& J& J& J& J& J& J& J& J& J& J& J& J& J& J& J& J& J& J& J& J& J& J& J& J& J& J& J& J& J& J& J& J& J& J& J& J& J& J& J& J& J& J& J& J& J& J& J& J& J& J& J& J& J& J& J& J& J& J& J& J& J& J& J& J& J& J& J& J& J& & & & H& H& H& H& H& H& H& H& H& H& H& H& H& H& H& H& H& H& H& H& H& H& H& H& H& H& H& H& H& H& H& H& H& H& H& H& H& H& H& H& H& H& H& H& H& H& H& H& H& H& H& H& H& H& H& H& H& H& H& H& H& H& H& H& H& H& H& H& H& H& H& H& H& H& H& H& H& H& H& H& H& H& H& H& H& H& H& H& H& H& H& H& H& H& H& H& H& H& H& H& H& H& H& H& H& H& H& H& H& H& H& H& H& H& H& H& H& H& H& H& H& H& H& H& H& H& H& H& H& H& H& H& H& H& H& H& H& H& H& H& H& H& H& H& H& H& H& H& H& H& H& H& H& H& H& H& H& H& H& H& H& H& H& H& H& H& H& H& H& H& H& H& H& H& H& H& H& H& H& H& H& & & & & F& F& F& F& F& F& F& F& F& F& F& F& F& F& F& F& F& F& F& F& F& F& F& F& F& F& F& F& F& F& F& F& F& F& F& F& F& F& F& F& F& F& F& F& F& F& F& F& F& F& F& F& F& F& F& F& F& F& F& F& F& F& F& F& F& F& F& F& F& F& F& F& F& F& F& F& F& F& F& F& F& F& F& F& F& F& F& F& F& F& F& F& F& F& F& F& F& F& F& F& F& F& F& F& F& F& F& F& F& F& F& F& F& F& F& F& F& F& F& F& F& F& F& F& F& F& F& F& F& F& F& F& F& F& F& F& F& F& F& F& F& F& F& F& F& F& F& F& F& F& F& F& F& F& F& F& F& F& F& F& F& F& F& F& F& F& F& F& F& F& F& F& F& F& F& F& F& F& F& F& F& & & & & &E &E &E &E &E &E &E &E &E &E &E &E &E &E &E &E &E &E &E &E &E &E &E &E &E &E &E &E &E &E &E &E &E &E &E &E &E &E &E &E &E &E &E &E &E &E &E &E &E &E &E &E &E &E &E &E &E &E &E &E &E &E &E &E &E &E &E &E &E &E &E &E &E &E &E &E &E &E &E &E &E &E &E &E &E &E &E &E &E &E &E &E &E &E &E &E &E &E &E &E &E &E &E &E &E &E &E &E &E &E &E &E &E &E &E &E &E &E &E &E &E &E &E &E &E &E &E &E &E &E &E &E &E &E &E &E &E &E &E &E &E &E &E &E &E &E &E &E &E &E &E &E &E &E &E &E &E &E &E &E &E &E &E &E &E &E &E &E &E &E &E &E &E &E &E &E &E &E E E E    C C C C C C C C C C C C C C C C C C C C C C C C C C C C C C C C C C C C C C C C C C C C C C C C C C C C C C C C C C C C C C C C C C C C C C C C C C C C C C C C C C C C C C C C C C C C C C C C C C C C C C C C C C C C C C C C C C C C C C C C C C C C C C C C C C C C C C C C C C C C C C C C C C C C C C C C C C C C C C C C C C C C C C C C C C C C C C C C C C C C C C C C C C C EC EC EC EC EC EC EC EC EC EC EC EC EC EC EC EC EC EC EC EC EC EC EC EC EC EC EC EC EC EC EC EC EC EC EC EC EC EC EC EC EC EC EC EC EC EC EC EC EC EC EC EC EC EC EC EC EC EC EC EC EC EC EC EC EC EC EC EC EC EC EC EC EC EC EC EC EC EC EC EC EC EC EC EC EC EC EC EC EC EC EC EC EC EC EC EC EC EC EC EC EC EC EC EC EC EC EC EC EC EC EC EC EC EC EC EC EC EC EC EC EC EC EC EC EC EC EC EC EC EC EC EC EC EC EC EC EC EC EC EC EC EC EC EC EC EC EC EC EC EC EC EC EC EC EC EC EC EC EC EC EC EC EC EC EC EC EC EC EC EC EC EC EC EC EC EC EC EC EC EC EC C C C CF CF CF CF CF CF CF CF CF CF CF CF CF CF CF CF CF CF CF CF CF CF CF CF CF CF CF CF CF CF CF CF CF CF CF CF CF CF CF CF CF CF CF CF CF CF CF CF CF CF CF CF CF CF CF CF CF CF CF CF CF CF CF CF CF CF CF CF CF CF CF CF CF CF CF CF CF CF CF CF CF CF CF CF CF CF CF CF CF CF CF CF CF CF CF CF CF CF CF CF CF CF CF CF CF CF CF CF CF CF CF CF CF CF CF CF CF CF CF CF CF CF CF CF CF CF CF CF CF CF CF CF CF CF CF CF CF CF CF CF CF CF CF CF CF CF CF CF CF CF CF CF CF CF CF CF CF CF CF CF CF CF CF CF CF CF CF CF CF CF CF CF CF CF CF CF CF CF CF CF CF CF CF CF CF CF CF CF= CF= CF= CF= CF= CF= CF= CF= CF= CF= CF= CF= CF= CF= CF= CF= CF= CF= CF= CF= CF= CF= CF= CF= CF= CF= CF= CF= CF= CF= CF= CF= CF= CF= CF= CF= CF= CF= CF= CF= CF= CF= CF= CF= CF= CF= CF= CF= CF= CF= CF= CF= CF= CF= CF= CF= CF= CF= CF= CF= CF= CF= CF= CF= CF= CF= CF= CF= CF= CF= CF= CF= CF= CF= CF= CF= CF= CF= CF= CF= CF= CF= CF= CF= CF= CF= CF= CF= CF= CF= CF= CF= CF= CF= CF= CF= CF= CF= CF= CF= CF= CF= CF= CF= CF= CF= CF= CF= CF= CF= CF= CF= CF= CF= CF= CF= CF= CF= CF= CF= CF= CF= CF= CF= CF= CF= CF= CF= CF= CF= CF= CF= CF= CF= CF= CF= CF= CF= CF= CF= CF= CF= CF= CF= CF= CF= CF= CF= CF= CF= CF= CF= CF= CF= CF= CF= CF= CF= CF= CF= CF= CF= CF= CF= CF= CF= CF= CF= CF= CF= CF= CF= CF= CF= CF= CF= CF= F= F= F= =    B> B> B> B> B> B> B> B> B> B> B> B> B> B> B> B> B> B> B> B> B> B> B> B> B> B> B> B> B> B> B> B> B> B> B> B> B> B> B> B> B> B> B> B> B> B> B> B> B> B> B> B> B> B> B> B> B> B> B> B> B> B> B> B> B> B> B> B> B> B> B> B> B> B> B> B> B> B> B> B> B> B> B> B> B> B> B> B> B> B> B> B> B> B>E B>E B>E B>E B>E B>E B>E B>E B>E B>E B>E B>E B>E B>E B>E B>E B>E B>E B>E B>E B>E B>E B>E B>E B>E B>E B>E B>E B>E B>E B>E B>E B>E B>E B>E B>E B>E B>E B>E B>E B>E B>E B>E B>E B>E B>E B>E B>E B>E B>E B>E B>E B>E B>E B>E B>E B>E B>E B>E B>E B>E B>E B>E B>E B>E B>E B>E B>E B>E B>E B>E B>E B>E B>E B>E B>E B>E B>E B>E B>E B>E B>E B>E B>E B>E B>E B>E B>E B>E B>E B>E B>E 6B>EJ 6B>EJ 6B>EJ 6B>EJ 6B>EJ 6B>EJ 6B>EJ 6B>EJ 6B>EJ 6B>EJ 6B>EJ 6B>EJ 6B>EJ 6B>EJ 6B>EJ 6B>EJ 6B>EJ 6B>EJ 6B>EJ 6B>EJ 6B>EJ 6B>EJ 6B>EJ 6B>EJ 6B>EJ 6B>EJ 6B>EJ 6B>EJ 6B>EJ 6B>EJ 6B>EJ 6B>EJ 6B>EJ 6B>EJ 6B>EJ 6B>EJ 6B>EJ 6B>EJ 6B>EJ 6B>EJ 6B>EJ 6B>EJ 6B>EJ 6B>EJ 6B>EJ 6B>EJ 6B>EJ 6B>EJ 6B>EJ 6B>EJ 6B>EJ 6B>EJ 6B>EJ 6B>EJ 6B>EJ 6B>EJ 6B>EJ 6B>EJ 6B>EJ 6B>EJ 6B>EJ 6B>EJ 6B>EJ 6B>EJ 6B>EJ 6B>EJ 6B>EJ 6B>EJ 6B>EJ 6B>EJ 6B>EJ 6B>EJ 6B>EJ 6B>EJ 6B>EJ 6B>EJ 6B>EJ 6B>EJ 6B>EJ 6B>EJ 6B>EJ 6B>EJ 6B>EJ 6B>EJ 6B>EJ 6B>EJ 6B>EJ 6B>EJ 6B>EJ 6B>EJ 6B>EJ 6B>EJ 6B>EJ 6B>EJ 6B>EJ 6B>EJ 6B>EJ 6B>EJ 6B>EJ 6B>EJ 6B>EJ 6B>EJ 6B>EJ 6B>EJ 6B>EJ 6B>EJ 6B>EJ 6B>EJ 6B>EJ 6B>EJ 6B>EJ 6B>EJ 6B>EJ 6B>EJ 6B>EJ 6B>EJ 6B>EJ 6B>EJ 6B>EJ 6B>EJ 6B>EJ 6B>EJ 6B>EJ 6B>EJ 6B>EJ 6B>EJ 6B>EJ 6B>EJ 6B>EJ 6B>EJ 6B>EJ 6B>EJ 6B>EJ 6B>EJ 6B>EJ 6B>EJ 6B>EJ 6B>EJ 6B>EJ 6B>EJ 6B>EJ 6B>EJ 6B>EJ 6B>EJ 6B>EJ 6B>EJ 6B>EJ 6B>EJ 6B>EJ 6B>EJ 6B>EJ 6B>EJ 6B>EJ 6B>EJ 6B>EJ 6B>EJ 6B>EJ 6B>EJ 6B>EJ 6B>EJ 6B>EJ 6B>EJ 6B>EJ 6B>EJ 6B>EJ 6B>EJ 6B>EJ 6B>EJ 6B>EJ 6B>EJ 6B>EJ 6B>EJ 6B>EJ 6B>EJ 6B>EJ 6B>EJ 6B>EJ 6B>EJ 6B>EJ 6B>EJ 6B>EJ B>EJ B>EJ B>EJ B>EJ 7B>EJ 7B>EJ 7B>EJ 7B>EJ 7B>EJ 7B>EJ 7B>EJ 7B>EJ 7B>EJ 7B>EJ 7B>EJ 7B>EJ 7B>EJ 7B>EJ 7B>EJ 7B>EJ 7B>EJ 7B>EJ 7B>EJ 7B>EJ 7B>EJ 7B>EJ 7B>EJ 7B>EJ 7B>EJ 7B>EJ 7B>EJ 7B>EJ 7B>EJ 7B>EJ 7B>EJ 7B>EJ 7B>EJ 7B>EJ 7B>EJ 7B>EJ 7B>EJ 7B>EJ 7B>EJ 7B>EJ 7B>EJ 7B>EJ 7B>EJ 7B>EJ 7B>EJ 7B>EJ 7B>EJ 7B>EJ 7B>EJ 7B>EJ 7B>EJ 7B>EJ 7B>EJ 7B>EJ 7B>EJ 7B>EJ 7B>EJ 7B>EJ 7B>EJ 7B>EJ 7B>EJ 7B>EJ 7B>EJ 7B>EJ 7B>EJ 7B>EJ 7B>EJ 7B>EJ 7B>EJ 7B>EJ 7B>EJ 7B>EJ 7B>EJ 7B>EJ 7B>EJ 7B>EJ 7B>EJ 7B>EJ 7B>EJ 7B>EJ 7B>EJ 7B>EJ 7B>EJ 7B>EJ 7B>EJ 7B>EJ 7B>EJ 7B>EJ 7B>EJ 7B>EJ 7B>EJ 7B>EJ 7B>EJ 7B>EJ 7B>EJ 7B>EJ 7B>EJ 7B>EJ 7B>EJ 7B>EJ 7B>EJ 7B>EJ 7B>EJ 7B>EJ 7B>EJ 7B>EJ 7B>EJ 7B>EJ 7B>EJ 7B>EJ 7B>EJ 7B>EJ 7B>EJ 7B>EJ 7B>EJ 7B>EJ 7B>EJ 7B>EJ 7B>EJ 7B>EJ 7B>EJ 7B>EJ 7B>EJ 7B>EJ 7B>EJ 7B>EJ 7B>EJ 7B>EJ 7B>EJ 7B>EJ 7B>EJ 7B>EJ 7B>EJ 7B>EJ 7B>EJ 7B>EJ 7B>EJ 7B>EJ 7B>EJ 7B>EJ 7B>EJ 7B>EJ 7B>EJ 7B>EJ 7B>EJ 7B>EJ 7B>EJ 7B>EJ 7B>EJ 7B>EJ 7B>EJ 7B>EJ 7B>EJ 7B>EJ 7B>EJ 7B>EJ 7B>EJ 7B>EJ 7B>EJ 7B>EJ 7B>EJ 7B>EJ 7B>EJ 7B>EJ 7B>EJ 7B>EJ 7B>EJ 7B>EJ 7B>EJ 7B>EJ 7B>EJ 7B>EJ 7B>EJ 7B>EJ 7B>EJ 7B>EJ 7B>EJ 7B>EJ 7B>EJ 7B>EJ 7B>EJ B>EJ B>EJ B>EJ 9B>EJ 9B>EJ 9B>EJ 9B>EJ 9B>EJ 9B>EJ 9B>EJ 9B>EJ 9B>EJ 9B>EJ 9B>EJ 9B>EJ 9B>EJ 9B>EJ 9B>EJ 9B>EJ 9B>EJ 9B>EJ 9B>EJ 9B>EJ 9B>EJ 9B>EJ 9B>EJ 9B>EJ 9B>EJ 9B>EJ 9B>EJ 9B>EJ 9B>EJ 9B>EJ 9B>EJ 9B>EJ 9B>EJ 9B>EJ 9B>EJ 9B>EJ 9B>EJ 9B>EJ 9B>EJ 9B>EJ 9B>EJ 9B>EJ 9B>EJ 9B>EJ 9B>EJ 9B>EJ 9B>EJ 9B>EJ 9B>EJ 9B>EJ 9B>EJ 9B>EJ 9B>EJ 9B>EJ 9B>EJ 9B>EJ 9B>EJ 9B>EJ 9B>EJ 9B>EJ 9B>EJ 9B>EJ 9B>EJ 9B>EJ 9B>EJ 9B>EJ 9B>EJ 9B>EJ 9B>EJ 9B>EJ 9B>EJ 9B>EJ 9B>EJ 9B>EJ 9B>EJ 9B>EJ 9B>EJ 9B>EJ 9B>EJ 9B>EJ 9B>EJ 9B>EJ 9B>EJ 9B>EJ 9B>EJ 9B>EJ 9B>EJ 9B>EJ 9B>EJ 9B>EJ 9B>EJ 9B>EJ 9B>EJ 9B>EJ 9B>EJ 9B>EJ 9B>EJ 9B>EJ 9B>EJ 9B>EJ 9B>EJ 9B>EJ 9B>EJ 9B>EJ 9B>EJ 9B>EJ 9B>EJ 9B>EJ 9B>EJ 9B>EJ 9B>EJ 9B>EJ 9B>EJ 9B>EJ 9B>EJ 9B>EJ 9B>EJ 9B>EJ 9B>EJ 9B>EJ 9B>EJ 9B>EJ 9B>EJ 9B>EJ 9B>EJ 9B>EJ 9B>EJ 9B>EJ 9B>EJ 9B>EJ 9B>EJ 9B>EJ 9B>EJ 9B>EJ 9B>EJ 9B>EJ 9B>EJ 9B>EJ 9B>EJ 9B>EJ 9B>EJ 9B>EJ 9B>EJ 9B>EJ 9B>EJ 9B>EJ 9B>EJ 9B>EJ 9B>EJ 9B>EJ 9B>EJ 9B>EJ 9B>EJ 9B>EJ 9B>EJ 9B>EJ 9B>EJ 9B>EJ 9B>EJ 9B>EJ 9B>EJ 9B>EJ 9B>EJ 9B>EJ 9B>EJ 9B>EJ 9B>EJ 9B>EJ 9B>EJ 9B>EJ 9B>EJ 9B>EJ 9B>EJ 9B>EJ 9B>EJ 9B>EJ 9B>EJ 9B>EJ 9B>EJ 9B>EJ 9B>EJ B>EJ B>EJ B>EJ B>EJ B>EJ2 B>EJ2 B>EJ2 B>EJ2 B>EJ2 B>EJ2 B>EJ2 B>EJ2 B>EJ2 B>EJ2 B>EJ2 B>EJ2 B>EJ2 B>EJ2 B>EJ2 B>EJ2 B>EJ2 B>EJ2 B>EJ2 B>EJ2 B>EJ2 B>EJ2 B>EJ2 B>EJ2 B>EJ2 B>EJ2 B>EJ2 B>EJ2 B>EJ2 B>EJ2 B>EJ2 B>EJ2 B>EJ2 B>EJ2 B>EJ2 B>EJ2 B>EJ2 B>EJ2 B>EJ2 B>EJ2 B>EJ2 B>EJ2 B>EJ2 B>EJ2 B>EJ2 B>EJ2 B>EJ2 B>EJ2 B>EJ2 B>EJ2 B>EJ2 B>EJ2 B>EJ2 B>EJ2 B>EJ2 B>EJ2 B>EJ2 B>EJ2 B>EJ2 B>EJ2 B>EJ2 B>EJ2 B>EJ2 B>EJ2 B>EJ2 B>EJ2 B>EJ2 B>EJ2 B>EJ2 B>EJ2 B>EJ2 B>EJ2 B>EJ2 B>EJ2 B>EJ2 B>EJ2 B>EJ2 B>EJ2 B>EJ2 B>EJ2 B>EJ2 B>EJ2 B>EJ2 B>EJ2 B>EJ2 B>EJ2 B>EJ2 B>EJ2 B>EJ2 B>EJ2 B>EJ2 B>EJ2 B>EJ2 B>EJ2 B>EJ2 B>EJ2 B>EJ2 B>EJ2 B>EJ2 B>EJ2 B>EJ2 B>EJ2 B>EJ2 B>EJ2 B>EJ2 B>EJ2 B>EJ2 B>EJ2 B>EJ2 B>EJ2 B>EJ2 B>EJ2 B>EJ2 B>EJ2 B>EJ2 B>EJ2 B>EJ2 B>EJ2 B>EJ2 B>EJ2 B>EJ2 B>EJ2 B>EJ2 B>EJ2 B>EJ2 B>EJ2 B>EJ2 B>EJ2 B>EJ2 B>EJ2 B>EJ2 B>EJ2 B>EJ2 B>EJ2 B>EJ2 B>EJ2 B>EJ2 B>EJ2 B>EJ2 B>EJ2 B>EJ2 B>EJ2 B>EJ2 B>EJ2 B>EJ2 B>EJ2 B>EJ2 B>EJ2 B>EJ2 B>EJ2 B>EJ2 B>EJ2 B>EJ2 B>EJ2 B>EJ2 B>EJ2 B>EJ2 B>EJ2 B>EJ2 B>EJ2 B>EJ2 B>EJ2 B>EJ2 B>EJ2 B>EJ2 B>EJ2 B>EJ2 B>EJ2 B>EJ2 B>EJ2 B>EJ2 B>EJ2 B>EJ2 B>EJ2 B>EJ2 B>EJ2 B>EJ2 B>EJ2 B>EJ2 B>EJ2 B>EJ2 B>EJ2 B>EJ2 B>EJ2 B>EJ2 B>EJ2 B>EJ2 B>EJ2 B>EJ2 B>EJ2 B>EJ2 B>EJ2 B>EJ2 B>EJ2 B>EJ2 B>EJ2 B>EJ2 B>EJ2 B>EJ2 B>EJ2 B>EJ2 B>EJ2 B>EJ2 B>EJ2 B>EJ2 B>EJ2 B>EJ2 B>EJ2 B>EJ2 B>EJ2 B>EJ2 B>EJ2 B>EJ2 B>EJ2 B>EJ2 B>EJ2 B>EJ2 B>EJ2 B>EJ2 B>EJ2 B>EJ2 B>EJ2 B>EJ2 B>EJ2 B>EJ2 B>EJ2 B>EJ2 B>EJ2 B>EJ2 B>EJ2 B>EJ2 B>EJ2 B>EJ2 B>EJ2 B>EJ2 B>EJ2 B>EJ2 B>EJ2 B>EJ2 B>EJ2 B>EJ2 B>EJ2 B>EJ2 B>EJ2 B>EJ2 B>EJ2 B>EJ2 B>EJ2 B>EJ2 B>EJ2 B>EJ2 B>EJ2 B>EJ2 B>EJ2 B>EJ2 B>EJ2 B>EJ2 B>EJ2 B>EJ2 B>EJ2 B>EJ2 B>EJ2 B>EJ2 B>EJ2 B>EJ2 B>EJ2 B>EJ2 B>EJ2 B>EJ2 B>EJ2 B>EJ2 B>EJ2 B>EJ2 B>EJ2 B>EJ2 B>EJ2 B>EJ2 B>EJ2 B>EJ2 B>EJ2 B>EJ2 B>EJ2 B>EJ2 B>EJ2 B>EJ2 B>EJ2 B>EJ2 B>EJ2 B>EJ2 B>EJ2 B>EJ2 B>EJ2 B>EJ2 B>EJ2 B>EJ2 B>EJ2 B>EJ2 B>EJ2 B>EJ2 B>EJ2 B>EJ2 B>EJ2 B>EJ2 B>EJ2 B>EJ2 B>EJ2 B>EJ2 B>EJ2 B>EJ2 B>EJ2 B>EJ2 B>EJ2 B>EJ2 B>EJ2 B>EJ2 B>EJ2 B>EJ2 B>EJ2 B>EJ2 B>EJ2 B>EJ2 B>EJ2 B>EJ2 B>EJ2 B>EJ2 B>EJ2 B>EJ2 B>EJ2 B>EJ2 B>EJ2 B>EJ2 B>EJ2 B>EJ2 B>EJ2 B>EJ2 B>EJ2 B>EJ2 B>EJ2 B>EJ2 B>EJ2 B>EJ2 B>EJ2 B>EJ2 B>EJ2 B>EJ2 B>EJ2 B>EJ2 B>EJ2 B>EJ2 B>EJ2 B>EJ2 B>EJ2 B>EJ2 B>EJ2 B>EJ2 B>EJ2 B>EJ2 B>EJ2 B>EJ2 B>EJ2 B>EJ2 B>EJ2 B>EJ2 B>EJ2 B>EJ2 B>EJ2 B>EJ2 B>EJ2 B>EJ2 EJ2 EJ2 EJ2 EJ2 EJ2 EJ2 EJ2 EJ2 EJ2 EJ2 EJ2 EJ2 EJ2 EJ2 EJ2 EJ2 EJ2 EJ2 EJ2 EJ2 EJ2 EJ2 EJ2 EJ2 EJ2 EJ2 EJ2 EJ2 EJ2 EJ2 EJ2 EJ2 EJ2 EJ2 EJ2 EJ2 EJ2 EJ2 EJ2 EJ2 EJ2 EJ2 EJ2 EJ2 EJ2 EJ2 EJ2 EJ2 EJ2 EJ2 EJ2 EJ2 EJ2 EJ2 EJ2 EJ2 EJ2 EJ2 EJ2 EJ2 EJ2 EJ2 EJ2 EJ2 EJ2 EJ2 EJ2 EJ2 EJ2 EJ2 EJ2 EJ2 EJ2 EJ2 EJ2 EJ2 EJ2 EJ2 EJ2 EJ2 EJ2 EJ2 EJ2 EJ2 EJ2 EJ2 EJ2 EJ2 EJ2 EJ2 EJ2 EJ2 EJ2 J2 J2 J2 J2 J2 J2 J2 J2 J2 J2 J2 J2 J2 J2 J2 J2 J2 J2 J2 J2 J2 J2 J2 J2 J2 J2 J2 J2 J2 J2 J2 J2 J2 J2 J2 J2 J2 J2 J2 J2 J2 J2 J2 J2 J2 J2 J2 J2 J2 J2 J2 J2 J2 J2 J2 J2 J2 J2 J2 J2 J2 J2 J2 J2 J2 J2 J2 J2 J2 J2 J2 J2 J2 J2 J2 J2 J2 J2 J2 J2 J2 J2 J2 J2 J2 J2 J2 J2 J2 J2 2 2 2 2 E2 E2 E2 E2 E2 E2 E2 E2 E2 E2 E2 E2 E2 E2 E2 E2 E2 E2 E2 E2 E2 E2 E2 E2 E2 E2 E2 E2 E2 E2 E2 E2 E2 E2 E2 E2 E2 E2 E2 E2 E2 E2 E2 E2 E2 E2 E2 E2 E2 E2 E2 E2 E2 E2 E2 E2 E2 E2 E2 E2 E2 E2 E2 E2 E2 E2 E2 E2 E2 E2 E2 E2 E2 E2 E2 E2 E2 E2 E2 E2 E2 E2 E2 E2 E2 E2 E2 E2 E2 E2 E2 E2 E2 E2 E2 E2 E2 E2 E2 E2 E2 E2 E2 E2 E2 E2 E2 E2 E2 E2 E2 E2 E2 E2 E2 E2 E2 E2 E2 E2 E2 E2 E2 E2 E2 E2 E2 E2 E2 E2 E2 E2 E2 E2 E2 E2 E2 E2 E2 E2 E2 E2 E2 E2 E2 E2 E2 E2 E2 E2 E2 E2 E2 E2 E2 E2 E2 E2 E2 E2 E2 E2 E2 E2 E2 E2 E2 E2 E2 E2 E2 E2 E2 E2 E2 E2 E2 E2 E2 E2 E2    E2 E2 E2 E2 E2 E2 E2 E2 E2 E2 E2 E2 E2 E2 E2 E2 E2 E2 E2 E2 E2 E2 E2 E2 E2 E2 E2 E2 E2 E2 E2 E2 E2 E2 E2 E2 E2 E2 E2 E2 E2 E2 E2 E2 E2 E2 E2 E2 E2 E2 E2 E2 E2 E2 E2 E2 E2 E2 E2 E2 E2 E2 E2 E2 E2 E2 E2 E2 E2 E2 E2 E2 E2 E2 E2 E2 E2 E2 E2 E2 E2 E2 E2 E2 E2 E2 E2 E2 E2 E2 E2 E2 E2 E2 E2 E2 E2 E2 E2 E2 E2 E2 E2 E2 E2 E2 E2 E2 E2 E2 E2 E2 E2 E2 E2 E2 E2 E2 E2 E2 E2 E2 E2 E2 E2 E2 E2 E2 E2 E2 E2 E2 E2 E2 E2 E2 E2 E2 E2 E2 E2 E2 E2 E2 E2 E2 E2 E2 E2 E2 E2 E2 E2 E2 E2 E2 E2 E2 E2 E2 E2 E2 E2 E2 E2 E2 E2 E2 E2 E2 E2 E2 E2 E2 E2 E2 E2 E2 E2 E2 E2 2 2 2 2 Q2 Q2 Q2 Q2 Q2 Q2 Q2 Q2 Q2 Q2 Q2 Q2 Q2 Q2 Q2 Q2 Q2 Q2 Q2 Q2 Q2 Q2 Q2 Q2 Q2 Q2 Q2 Q2 Q2 Q2 Q2 Q2 Q2 Q2 Q2 Q2 Q2 Q2 Q2 Q2 Q2 Q2 Q2 Q2 Q2 Q2 Q2 Q2 Q2 Q2 Q2 Q2 Q2 Q2 Q2 Q2 Q2 Q2 Q2 Q2 Q2 Q2 Q2 Q2 Q2 Q2 Q2 Q2 Q2 Q2 Q2 Q2 Q2 Q2 Q2 Q2 Q2 Q2 Q2 Q2 Q2 Q2 Q2 Q2 Q2 Q2 Q2 Q2 Q2 Q2 Q2 Q2 Q2 Q2 Q2 Q2 Q2 Q2 Q2 Q2 Q2 Q2 Q2 Q2 Q2 Q2 Q2 Q2 Q2 Q2 Q2 Q2 Q2 Q2 Q2 Q2 Q2 Q2 Q2 Q2 Q2 Q2 Q2 Q2 Q2 Q2 Q2 Q2 Q2 Q2 Q2 Q2 Q2 Q2 Q2 Q2 Q2 Q2 Q2 Q2 Q2 Q2 Q2 Q2 Q2 Q2 Q2 Q2 Q2 Q2 Q2 Q2 Q2 Q2 Q2 Q2 Q2 Q2 Q2 Q2 Q2 Q2 Q2 Q2 Q2 Q2 Q2 Q2 Q2 Q2 Q2 Q2 Q2 Q2 Q2 Q2 Q2 Q2 Q2 Q2 Q2 2 2 2 2 N2 N2 N2 N2 N2 N2 N2 N2 N2 N2 N2 N2 N2 N2 N2 N2 N2 N2 N2 N2 N2 N2 N2 N2 N2 N2 N2 N2 N2 N2 N2 N2 N2 N2 N2 N2 N2 N2 N2 N2 N2 N2 N2 N2 N2 N2 N2 N2 N2 N2 N2 N2 N2 N2 N2 N2 N2 N2 N2 N2 N2 N2 N2 N2 N2 N2 N2 N2 N2 N2 N2 N2 N2 N2 N2 N2 N2 N2 N2 N2 N2 N2 N2 N2 N2 N2 N2 N2 N2 N2 N2 N2 N2 N2 N2 N2 N2 N2 N2 N2 N2 N2 N2 N2 N2 N2 N2 N2 N2 N2 N2 N2 N2 N2 N2 N2 N2 N2 N2 N2 N2 N2 N2 N2 N2 N2 N2 N2 N2 N2 N2 N2 N2 N2 N2 N2 N2 N2 N2 N2 N2 N2 N2 N2 N2 N2 N2 N2 N2 N2 N2 N2 N2 N2 N2 N2 N2 N2 N2 N2 N2 N2 N2 N2 N2 N2 N2 N2 N2 N2 N2 N2 N2 N2 N2 N2 N2 N2 N2 N2 N2 2 2 2 J2 J2 J2 J2 J2 J2 J2 J2 J2 J2 J2 J2 J2 J2 J2 J2 J2 J2 J2 J2 J2 J2 J2 J2 J2 J2 J2 J2 J2 J2 J2 J2 J2 J2 J2 J2 J2 J2 J2 J2 J2 J2 J2 J2 J2 J2 J2 J2 J2 J2 J2 J2 J2 J2 J2 J2 J2 J2 J2 J2 J2 J2 J2 J2 J2 J2 J2 J2 J2 J2 J2 J2 J2 J2 J2 J2 J2 J2 J2 J2 J2 J2 J2 J2 J2 J2 J2 J2 J2 J2 J2 J2 J2 J2 J2 J2 J2 J2 J2 J2 J2 J2 J2 J2 J2 J2 J2 J2 J2 J2 J2 J2 J2 J2 J2 J2 J2 J2 J2 J2 J2 J2 J2 J2 J2 J2 J2 J2 J2 J2 J2 J2 J2 J2 J2 J2 J2 J2 J2 J2 J2 J2 J2 J2 J2 J2 J2 J2 J2 J2 J2 J2 J2 J2 J2 J2 J2 J2 J2 J2 J2 J2 J2 J2 J2 J2 J2 J2 J2 J2 J2 J2 J2 J2 J2 J2 J2 J2 J2 J2 J2 2 2 2 2 E2 E2 E2 E2 E2 E2 E2 E2 E2 E2 E2 E2 E2 E2 E2 E2 E2 E2 E2 E2 E2 E2 E2 E2 E2 E2 E2 E2 E2 E2 E2 E2 E2 E2 E2 E2 E2 E2 E2 E2 E2 E2 E2 E2 E2 E2 E2 E2 E2 E2 E2 E2 E2 E2 E2 E2 E2 E2 E2 E2 E2 E2 E2 E2 E2 E2 E2 E2 E2 E2 E2 E2 E2 E2 E2 E2 E2 E2 E2 E2 E2 E2 E2 E2 E2 E2 E2 E2 E2 E2 E2 E2 E2 E2 E2 E2 E2 E2 E2 E2 E2 E2 E2 E2 E2 E2 E2 E2 E2 E2 E2 E2 E2 E2 E2 E2 E2 E2 E2 E2 E2 E2 E2 E2 E2 E2 E2 E2 E2 E2 E2 E2 E2 E2 E2 E2 E2 E2 E2 E2 E2 E2 E2 E2 E2 E2 E2 E2 E2 E2 E2 E2 E2 E2 E2 E2 E2 E2 E2 E2 E2 E2 E2 E2 E2 E2 E2 E2 E2 E2 E2 E2 E2 E2 E2 E2 E2 E2 E2 E2 E2     B9 B9 B9 B9 B9 B9 B9 B9 B9 B9 B9 B9 B9 B9 B9 B9 B9 B9 B9 B9 B9 B9 B9 B9 B9 B9 B9 B9 B9 B9 B9 B9 B9 B9 B9 B9 B9 B9 B9 B9 B9 B9 B9 B9 B9 B9 B9 B9 B9 B9 B9 B9 B9 B9 B9 B9 B9 B9 B9 B9 B9 B9 B9 B9 B9 B9 B9 B9 B9 B9 B9 B9 B9 B9 B9 B9 B9 B9 B9 B9 B9 B9 B9 B9 B9 B9 B9 B9 B9 B9 B9 B9 B9 B9 B9 B9 B9 B9 B9 B9 B9 B9 B9 B9 B9 B9 B9 B9 B9 B9 B9 B9 B9 B9 B9 B9 B9 B9 B9 B9 B9 B9 B9 B9 B9 B9 B9 B9 B9 B9 B9 B9 B9 B9 B9 B9 B9 B9 B9 B9 B9 B9 B9 B9 B9 B9 B9 B9 B9 B9 B9 B9 B9 B9 B9 B9 B9 B9 B9 B9 B9 B9 B9 B9 B9 B9 B9 B9 B9 B9 B9 B9 B9 B9 B9 B9 B9 B9 B9 B9 B9    C: C: C: C: C: C: C: C: C: C: C: C: C: C: C: C: C: C: C: C: C: C: C: C: C: C: C: C: C: C: C: C: C: C: C: C: C: C: C: C: C: C: C: C: C: C: C: C: C: C: C: C: C: C: C: C: C: C: C: C: C: C: C: C: C: C: C: C: C: C: C: C: C: C: C: C: C: C: C: C: C: C: C: C: C: C: C: C: C: C: C: C: C: C: C: C: C: C: C: C: C: C: C: C: C: C: C: C: C: C: C: C: C: C: C: C: C: C: C: C: C: C: C: C: C: C: C: C: C: C: C: C: C: C: C: C: C: C: C: C: C: C: C: C: C: C: C: C: C: C: C: C: C: C: C: C: C: C: C: C: C: C: C: C: C: C: C: C: C: C: C: C: C: C: C: C: C: C: C: C: C:     E< E< E< E< E< E< E< E< E< E< E< E< E< E< E< E< E< E< E< E< E< E< E< E< E< E< E< E< E< E< E< E< E< E< E< E< E< E< E< E< E< E< E< E< E< E< E< E< E< E< E< E< E< E< E< E< E< E< E< E< E< E< E< E< E< E< E< E< E< E< E< E< E< E< E< E< E< E< E< E< E< E< E< E< E< E< E< E< E< E< E< E< E< E< E< E< E< E< E< E< E< E< E< E< E< E< E< E< E< E< E< E< E< E< E< E< E< E< E< E< E< E< E< E< E< E< E< E< E< E< E< E< E< E< E< E< E< E< E< E< E< E< E< E< E< E< E< E< E< E< E< E< E< E< E< E< E< E< E< E< E< E< E< E< E< E< E< E< E< E< E< E< E< E< E< E< E< E< E< E< E<     G5 G5 G5 G5 G5 G5 G5 G5 G5 G5 G5 G5 G5 G5 G5 G5 G5 G5 G5 G5 G5 G5 G5 G5 G5 G5 G5 G5 G5 G5 G5 G5 G5 G5 G5 G5 G5 G5 G5 G5 G5 G5 G5 G5 G5 G5 G5 G5 G5 G5 G5 G5 G5 G5 G5 G5 G5 G5 G5 G5 G5 G5 G5 G5 G5 G5 G5 G5 G5 G5 G5 G5 G5 G5 G5 G5 G5 G5 G5 G5 G5 G5 G5 G5 G5 G5 G5 G5 G5 G5 G5 G5 G5 G5 G5 G5 G5 G5 G5 G5 G5 G5 G5 G5 G5 G5 G5 G5 G5 G5 G5 G5 G5 G5 G5 G5 G5 G5 G5 G5 G5 G5 G5 G5 G5 G5 G5 G5 G5 G5 G5 G5 G5 G5 G5 G5 G5 G5 G5 G5 G5 G5 G5 G5 G5 G5 G5 G5 G5 G5 G5 G5 G5 G5 G5 G5 G5 G5 G5 G5 G5 G5 G5 G5 G5 G5 G5 G5 G5 G5 G5 G5 G5 G5 G5 G5 G5 G5 G5 G5 G5 5 5 5 E5 E5 E5 E5 E5 E5 E5 E5 E5 E5 E5 E5 E5 E5 E5 E5 E5 E5 E5 E5 E5 E5 E5 E5 E5 E5 E5 E5 E5 E5 E5 E5 E5 E5 E5 E5 E5 E5 E5 E5 E5 E5 E5 E5 E5 E5 E5 E5 E5 E5 E5 E5 E5 E5 E5 E5 E5 E5 E5 E5 E5 E5 E5 E5 E5 E5 E5 E5 E5 E5 E5 E5 E5 E5 E5 E5 E5 E5 E5 E5 E5 E5 E5 E5 E5 E5 E5 E5 E5 E5 E5 E5 E5 E5 E5 E5 E5 E5 E5 E5 E5 E5 E5 E5 E5 E5 E5 E5 E5 E5 E5 E5 E5 E5 E5 E5 E5 E5 E5 E5 E5 E5 E5 E5 E5 E5 E5 E5 E5 E5 E5 E5 E5 E5 E5 E5 E5 E5 E5 E5 E5 E5 E5 E5 E5 E5 E5 E5 E5 E5 E5 E5 E5 E5 E5 E5 E5 E5 E5 E5 E5 E5 E5 E5 E5 E5 E5 E5 E5 E5 E5 E5 E5 E5 E5 E5 E5 E5 E5 E5 E5 5    C3< C3< C3< C3< C3< C3< C3< C3< C3< C3< C3< C3< C3< C3< C3< C3< C3< C3< C3< C3< C3< C3< C3< C3< C3< C3< C3< C3< C3< C3< C3< C3< C3< C3< C3< C3< C3< C3< C3< C3< C3< C3< C3< C3< C3< C3< C3< C3< C3< C3< C3< C3< C3< C3< C3< C3< C3< C3< C3< C3< C3< C3< C3< C3< C3< C3< C3< C3< C3< C3< C3< C3< C3< C3< C3< C3< C3< C3< C3< C3< C3< C3< C3< C3< C3< C3< C3< C3< C3< C3< C3< C3< C3< C3< C3< C3< C3< C3< C3< C3< C3< C3< C3< C3< C3< C3< C3< C3< C3< C3< C3< C3< C3< C3< C3< C3< C3< C3< C3< C3< C3< C3< C3< C3< C3< C3< C3< C3< C3< C3< C3< C3< C3< C3< C3< C3< C3< C3< C3< C3< C3< C3< C3< C3< C3< C3< C3< C3< C3< C3< C3< C3< C3< C3< C3< C3< C3< C3< C3< C3< C3< C3< C3< C3< C3< C3< C3< C3< C3< C3< C3< C3< C3< C3< C3< C3< C3< C3< C3< C3< C3< 3< 3< 3< 3< H3< H3< H3< H3< H3< H3< H3< H3< H3< H3< H3< H3< H3< H3< H3< H3< H3< H3< H3< H3< H3< H3< H3< H3< H3< H3< H3< H3< H3< H3< H3< H3< H3< H3< H3< H3< H3< H3< H3< H3< H3< H3< H3< H3< H3< H3< H3< H3< H3< H3< H3< H3< H3< H3< H3< H3< H3< H3< H3< H3< H3< H3< H3< H3< H3< H3< H3< H3< H3< H3< H3< H3< H3< H3< H3< H3< H3< H3< H3< H3< H3< H3< H3< H3< H3< H3< H3< H3< H3< H3< H3< H3< H3< H3< H3< H3< H3< H3< H3< H3< H3< H3< H3< H3< H3< H3< H3< H3< H3< H3< H3< H3< H3< H3< H3< H3< H3< H3< H3< H3< H3< H3< H3< H3< H3< H3< H3< H3< H3< H3< H3< H3< H3< H3< H3< H3< H3< H3< H3< H3< H3< H3< H3< H3< H3< H3< H3< H3< H3< H3< H3< H3< H3< H3< H3< H3< H3< H3< H3< H3< H3< H3< H3< H3< H3< H3< H3< H3< H3< H3< H3< H3< H3< H3< H3< H3< H3< H3< H3< H3< H3< < < < J<5 J<5 J<5 J<5 J<5 J<5 J<5 J<5 J<5 J<5 J<5 J<5 J<5 J<5 J<5 J<5 J<5 J<5 J<5 J<5 J<5 J<5 J<5 J<5 J<5 J<5 J<5 J<5 J<5 J<5 J<5 J<5 J<5 J<5 J<5 J<5 J<5 J<5 J<5 J<5 J<5 J<5 J<5 J<5 J<5 J<5 J<5 J<5 J<5 J<5 J<5 J<5 J<5 J<5 J<5 J<5 J<5 J<5 J<5 J<5 J<5 J<5 J<5 J<5 J<5 J<5 J<5 J<5 J<5 J<5 J<5 J<5 J<5 J<5 J<5 J<5 J<5 J<5 J<5 J<5 J<5 J<5 J<5 J<5 J<5 J<5 J<5 J<5 J<5 J<5 J<5 J<5 J<5 J<5 J<5 J<5 J<5 J<5 J<5 J<5 J<5 J<5 J<5 J<5 J<5 J<5 J<5 J<5 J<5 J<5 J<5 J<5 J<5 J<5 J<5 J<5 J<5 J<5 J<5 J<5 J<5 J<5 J<5 J<5 J<5 J<5 J<5 J<5 J<5 J<5 J<5 J<5 J<5 J<5 J<5 J<5 J<5 J<5 J<5 J<5 J<5 J<5 J<5 J<5 J<5 J<5 J<5 J<5 J<5 J<5 J<5 J<5 J<5 J<5 J<5 J<5 J<5 J<5 J<5 J<5 J<5 J<5 J<5 J<5 J<5 J<5 J<5 J<5 J<5 J<5 J<5 J<5 J<5 J<5 J<5 J<5 J<5 J<5 J<5 J<5 J<5 <5 <5 <5 <5 <K5 <K5 <K5 <K5 <K5 <K5 <K5 <K5 <K5 <K5 <K5 <K5 <K5 <K5 <K5 <K5 <K5 <K5 <K5 <K5 <K5 <K5 <K5 <K5 <K5 <K5 <K5 <K5 <K5 <K5 <K5 <K5 <K5 <K5 <K5 <K5 <K5 <K5 <K5 <K5 <K5 <K5 <K5 <K5 <K5 <K5 <K5 <K5 <K5 <K5 <K5 <K5 <K5 <K5 <K5 <K5 <K5 <K5 <K5 <K5 <K5 <K5 <K5 <K5 <K5 <K5 <K5 <K5 <K5 <K5 <K5 <K5 <K5 <K5 <K5 <K5 <K5 <K5 <K5 <K5 <K5 <K5 <K5 <K5 <K5 <K5 <K5 <K5 <K5 <K5 <K5 <K5 <K5 <K5 <K5 <K5 <K5 <K5 <K5 <K5 <K5 <K5 <K5 <K5 <K5 <K5 <K5 <K5 <K5 <K5 <K5 <K5 <K5 <K5 <K5 <K5 <K5 <K5 <K5 <K5 <K5 <K5 <K5 <K5 <K5 <K5 <K5 <K5 <K5 <K5 <K5 <K5 <K5 <K5 <K5 <K5 <K5 <K5 <K5 <K5 <K5 <K5 <K5 <K5 <K5 <K5 <K5 <K5 <K5 <K5 <K5 <K5 <K5 <K5 <K5 <K5 <K5 <K5 <K5 <K5 <K5 <K5 <K5 <K5 <K5 <K5 <K5 <K5 <K5 <K5 <K5 <K5 <K5 <K5 <K5 <K5 <K5 <K5 K5 K5 K5     M;7 M;7 M;7 M;7 M;7 M;7 M;7 M;7 M;7 M;7 M;7 M;7 M;7 M;7 M;7 M;7 M;7 M;7 M;7 M;7 M;7 M;7 M;7 M;7 M;7 M;7 M;7 M;7 M;7 M;7 M;7 M;7 M;7 M;7 M;7 M;7 M;7 M;7 M;7 M;7 M;7 M;7 M;7 M;7 M;7 M;7 M;7 M;7 M;7 M;7 M;7 M;7 M;7 M;7 M;7 M;7 M;7 M;7 M;7 M;7 M;7 M;7 M;7 M;7 M;7 M;7 M;7 M;7 M;7 M;7 M;7 M;7 M;7 M;7 M;7 M;7 M;7 M;7 M;7 M;7 M;7 M;7 M;7 M;7 M;7 M;7 M;7 M;7 M;7 M;7 M;7 M;7 M;7 M;7 M;7 M;7 M;7 M;7 M;7 M;7 M;7 M;7 M;7 M;7 M;7 M;7 M;7 M;7 M;7 M;7 M;7 M;7 M;7 M;7 M;7 M;7 M;7 M;7 M;7 M;7 M;7 M;7 M;7 M;7 M;7 M;7 M;7 M;7 M;7 M;7 M;7 M;7 M;7 M;7 M;7 M;7 M;7 M;7 M;7 M;7 M;7 M;7 M;7 M;7 M;7 M;7 M;7 M;7 M;7 M;7 M;7 M;7 M;7 M;7 M;7 M;7 M;7 M;7 M;7 M;7 M;7 M;7 M;7 M;7 M;7 M;7 M;7 M;7 M;7 M;7 M;7 M;7 M;7 M;7 M;7 M;7 M;7 M;7 M;7 M;7 M;7 ;7 ;7 ;7 ;7 O;7 O;7 O;7 O;7 O;7 O;7 O;7 O;7 O;7 O;7 O;7 O;7 O;7 O;7 O;7 O;7 O;7 O;7 O;7 O;7 O;7 O;7 O;7 O;7 O;7 O;7 O;7 O;7 O;7 O;7 O;7 O;7 O;7 O;7 O;7 O;7 O;7 O;7 O;7 O;7 O;7 O;7 O;7 O;7 O;7 O;7 O;7 O;7 O;7 O;7 O;7 O;7 O;7 O;7 O;7 O;7 O;7 O;7 O;7 O;7 O;7 O;7 O;7 O;7 O;7 O;7 O;7 O;7 O;7 O;7 O;7 O;7 O;7 O;7 O;7 O;7 O;7 O;7 O;7 O;7 O;7 O;7 O;7 O;7 O;7 O;7 O;7 O;7 O;7 O;7 O;7 O;7 O;7 O;7 O;7 O;7 O;7 O;7 O;7 O;7 O;7 O;7 O;7 O;7 O;7 O;7 O;7 O;7 O;7 O;7 O;7 O;7 O;7 O;7 O;7 O;7 O;7 O;7 O;7 O;7 O;7 O;7 O;7 O;7 O;7 O;7 O;7 O;7 O;7 O;7 O;7 O;7 O;7 O;7 O;7 O;7 O;7 O;7 O;7 O;7 O;7 O;7 O;7 O;7 O;7 O;7 O;7 O;7 O;7 O;7 O;7 O;7 O;7 O;7 O;7 O;7 O;7 O;7 O;7 O;7 O;7 O;7 O;7 O;7 O;7 O;7 O;7 O;7 O;7 O;7 O;7 O;7 O;7 O;7 O;7 O;7 O;7 O;7 O;7 O;7 O;7    M0 M0 M0 M0 M0 M0 M0 M0 M0 M0 M0 M0 M0 M0 M0 M0 M0 M0 M0 M0 M0 M0 M0 M0 M0 M0 M0 M0 M0 M0 M0 M0 M0 M0 M0 M0 M0 M0 M0 M0 M0 M0 M0 M0 M0 M0 M0 M0 M0 M0 M0 M0 M0 M0 M0 M0 M0 M0 M0 M0 M0 M0 M0 M0 M0 M0 M0 M0 MK0 MK0 MK0 MK0 MK0 MK0 MK0 K0 K0 K0 K0 K0 K0 K0 K0 K0 K0 K0 K0 K0 K0 K0 K0 K0 K0 K0 K0 K0 K0 K0 K0 K0 K0 K0 K0 K0 K0 K0 K0 K0 K0 K0 K0 K0 K0 K0 K0 K0 K0 K0 K0 K0 K0 K0 K0 K0 K0 K0 K0 K0 K0 K0 K0 K0 K0 K0 K0 KM0 KM0 KM0 KM0 KM0 KM0 KM0 KM0 M0 M0 M0 M0 M0 M0 M0 M0 M0 M0 M0 M0 M0 M0 M0 M0 M0 M0 M0 M0 M0 M0 M0 M0 M0 M0 M0 M0 M0 M0 M0 M0 M0 M0 M0 M0 M0 M0 M0 M0 M0 M0 M<0 M<0 M<0 M<0 M<0 M<0 M<0 M<0 M<0 M<0 M<0 M<0 M<0 M<0 M<0 M<0 M<0 M<0K M<0K M<0K M<0K M<0K M<0K M<0K M<0K <0K <0K <0K <0K <0K <0K <0K <0K <0K <0K <0K <0K <0K <0K <0K <0K <0K <0K <0K <0K <0K <0K <0K <0K <0K <0K <0K <0K <0K <0K <0K <0K <0K <0K <0K <0K <0K <0K <0K <0K <0K <0K <0K <0K <0K <0K <0K <0K <0K <0K <0K <0K <0K <0K <0K <0K <0K <0K <0K <0K <0K <0K <0K <0K <0K <0K <0K <0K <0K <0K <0K <0K <0K <0K <0K <0K <0K <0K <0K <0K <0K <0K <0K <0K <0K <0K <0K <0K <0K <0K <0K <0K <0K <0K <0K <0K <0K <0K <0K <0K <0K <0K <0K <0K <0K <0K <0K <0K <0K <0K <0K <0K <0K <0K <0K <0K <0K <0K <0K <0K <0K <0K <0K <0K <0K <0K <0K <0K <0K <0K <0K <0K <0K <0K <0K <0K <0K <0K <0K <0K <0K <0K <0K <0K <0K <0K <0K <0K <0K <0K <0K <0K <0K <0K <0K <0K K K K K KJ7 KJ7 KJ7 KJ7 KJ7 KJ7 KJ7 KJ7 KJ7 KJ7 KJ7 KJ7 KJ7 KJ7 KJ7 J7 J7 J7 J7 J7 J7 J7 J7 J7 J7 J7 J7 J7 J7 J7 J7 J7 J7 J7 J7 J7 J7 J7 J7 J7 J7 J7 J7 J7 J7 J7 J7 J7 J7 J7 J7 J7 J7 J7 J7 J7 J7 J7 J7 J7 J7 J7 J7 J7 J7 J7 J7 J7 J7 J7 J7 J7 J7 J7 J7 J7 J7 J7 J7 J7 J7 J7 J7 J7 J7 J7 J7 J7 J7 J7 J7 J7 J7 J7 J7 J7 J7 J7 J7 J7 J7 J7 J7 J7 J7 J7 J7 J7 J7 J7 J7 J7 J7 J7 J7 J7 J7 J7 J7 J7 J7 J7 J7 J7 J7 J7 J7 J7 J7 J7 J7 J7 J7 J7 J7 J7 J7 J7 J7 J7 J7 J7 J7 J7 J7 J7 J7 J7 J7 J7 J7 J7 J7 J7 J7 J7 J7 J7 J7 J7 J7 J7 J7 J7 J7 J7 J7 J7 J7 J7 J7 J7 J7 J7 J7 J7 J7 J7 J7 J7 J7    H3 H3 H3 H3 H3 H3 H3 H3 H3 H3 H3 H3 H3 H3 H3 H3 H3 H3 H3 H3 H3 H3 H3 H3 H3 H3 H3 H3 H3 H3 H3 H3 H3 H3 H3 H3 H3 H3 H3 H3 H3 H3 H3 H3 H3 H3 H3 H3 H3 H3 H3 H3 H3 H3 H3 H3 H3 H3 H3 H3 H3 H3 H3 H3 H3 H3 H3 H3 H3 H3 H3 H3 H3 H3 H3 H3 H3 H3 H3 H3 H3 H3 H3 H3 H3 H3 H3 H3 H3 H3 H3 H3 H3 H3 H3 H3 H3 H3 H3 H3 H3 H3 H3 H3 H3 H3 H3 H3 H3 H3 H3 H3 H3 H3 H3 H3 H3 H3 H3 H3 H3 H3 H3 H3 H3 H3 H3 H3 H3 H3 H3 H3 H3 H3 H3 H3 H3 H3 H3 H3 H3 H3 H3 H3 H3 H3 H3 H3 H3 H3 H3 H3 H3 H3 H3 H3 H3 H3 H3 H3 H3 H3 H3 H3 H3 H3 H3 H3 H3 H3 H3 H3 H3 H3 H3 H3 H3 H3 H3 H3 H3     O0 O0 O0 O0 O0 O0 O0 O0 O0 O0 O0 O0 O0 O0 O0 O0 O0 O0 O0 O0 O0 O0 O0 O0 O0 O0 O0 O0 O0 O0 O0 O0 O0 O0 O0 O0 O0 O0 O0 O0 O0 O0 O0 O0 O0 O0 O0 O0 O0 O0 O0 O0 O0 O0 O0 O0 O0 O0 O0 O0 O0 O0 O0 O0 O0 O0 O0 O0 O0 O0 O0 O0 O0 O0 O0 O0 O0 O0 O0 O0 O0 O0 O0 O0 O0 O0 O0 O0 O0 0 0 0 M0 M0 M0 M0 M0 M0 M0 M0 M0 M0 M0 M0 M0 M0 M0 M0 M0 M0 M0 M0 M0 M0 M0 M0 M0 M0 M0 M0 M0 M0 M0 M0 M0 M0 M0 M0 M0 M0 M0 M0 M0 M0 M0 M0 M0 M0 M0 M0 M0 M0 M0 M0 M0 M0 M0 M0 M0 M0 M0 M0 M0 M0 M0 M0 M0 M0 M0 M0 M0 M0 M0 M0 M0 M0 M0 M0 M0 M0 M0 M0 M0 M0 M0 M0 M0 M0 M0 M0 M0     /O /O /O /O /O /O /O /O /O /O /O /O /O /O /O /O /O /O /O /O /O /O /O /O /O /O /O /O /O /O /O /O /O /O /O /O /O /O /O /O /O /O /O /O /O /O /O /O /O /O /O /O /O /O /O /O /O /O /O /O /O /O /O /O /O /O /O /O /O /O /O /O /O /O /O /O /O /O /O /O /O /O /O /O /O /O /O /O /O /O /O /O /O /O /O /O /O /O /O /O /O /O /O /O /O /O /O /O /O /O /O /O /O /O /O /O /O /O /O /O /O /O /O /O /O /O /O /O /O /O /O /O /O /O /O /O /O /O /O /O /O /O /O /O /O /O /O /O /O /O /O /O /O /O /O /O /O /O /O /O /O /O /O /O /O /O /O /O /O /O /O /O /O /O /O /O /O /O /O /O /O O O O 0O 0O 0O 0O 0O 0O 0O 0O 0O 0O 0O 0O 0O 0O 0O 0O 0O 0O 0O 0O 0O 0O 0O 0O 0O 0O 0O 0O 0O 0O 0O 0O 0O 0O 0O 0O 0O 0O 0O 0O 0O 0O 0O 0O 0O 0O 0O 0O 0O 0O 0O 0O 0O 0O 0O 0O 0O 0O 0O 0O 0O 0O 0O 0O 0O 0O 0O 0O 0O 0O 0O 0O 0O 0O 0O 0O 0O 0O 0O 0O 0O 0O 0O 0O 0O 0O 0O 0O 0O 0O 0O 0O 0O 0O 0O 0O 0O 0O 0O 0O 0O 0O 0O 0O 0O 0O 0O 0O 0O 0O 0O 0O 0O 0O 0O 0O 0O 0O 0O 0O 0O 0O 0O 0O 0O 0O 0O 0O 0O 0O 0O 0O 0O 0O 0O 0O 0O 0O 0O 0O 0O 0O 0O 0O 0O 0O 0O 0O 0O 0O 0O 0O 0O 0O 0O 0O 0O 0O 0O 0O 0O 0O 0O 0O 0O 0O 0O 0O 0O 0O 0O 0O 0O 0O 0O 0O 0O 0O 0O 0O 0O O    O2 O2 O2 O2 O2 O2 O2 O2 O2 O2 O2 O2 O2 O2 O2 O2 O2 O2 O2 O2 O2 O2 O2 O2 O2 O2 O2 O2 O2 O2 O2 O2 O2 O2 O2 O2 O2 O2 O2 O2 O2 O2 O2 O2 O2 O2 O2 O2 O2 O2 O2 O2 O2 O2 O2 O2 O2 O2 O2 O2 O2 O2 O2 O2 O2 O2 O2 O2 O2 O2 O2 O2 O2 O2 O2 O2 O2 O2 O2 O2 O2 O2 O2 O2 O2 O2 O2 O2 O2 O2 O2 O2 O2 O2 O2 O2 O2 O2 O2 O2 O2 O2 O2 O2 O2 O2 O2 O2 O2 O2 O2 O2 O2 O2 O2 O2 O2 O2 O2 O2 O2 O2 O2 O2 O2 O2 O2 O2 O2 O2 O2 O2 O2 O2 O2 O2 O2 O2 O2 O2 O2 O2 O2 O2 O2 O2 O2 O2 O2 O2 O2 O2 O2 O2 O2 O2 O2 O2 O2 O2 O2 O2 O2 O2 O2 O2 O2 O2 O2 O2 O2 O2 O2 O2 O2 O2 O2 O2 O2 O2 O2     O4 O4 O4 O4 O4 O4 O4 O4 O4 O4 O4 O4 O4 O4 O4 O4 O4 O4 O4 O4 O4 O4 O4 O4 O4 O4 O4 O4 O4 O4 O4 O4 O4 O4 O4 O4 O4 O4 O4 O4 O4 O4 O4 O4 O4 O4 O4 O4 O4 O4 O4 O4 O4 O4 O4 O4 O4 O4 O4 O4 O4 O4 O4 O4 O4 O4 O4 O4 O4 O4 O4 O4 O4 O4 O4 O4 O4 O4 O4 O4 O4 O4 O4 O4 O4 O4 O4 O4 O4 O4 O4 O4 O4 O4 O4 O4 O4 O4 O4 O4 O4 O4 O4 O4 O4 O4 O4 O4 O4 O4 O4 O4 O4 O4 O4 O4 O4 O4 O4 O4 O4 O4 O4 O4 O4 O4 O4 O4 O4 O4 O4 O4 O4 O4 O4 O4 O4 O4 O4 O4 O4 O4 O4 O4 O4 O4 O4 O4 O4 O4 O4 O4 O4 O4 O4 O4 O4 O4 O4 O4 O4 O4 O4 O4 O4 O4 O4 O4 O4 O4 O4 O4 O4 O4 O4 O4 O4 O4 O4 O4 O4    F2 F2 F2 F2 F2 F2 F2 F2 F2 F2 F2 F2 F2 F2 F2 F2 F2 F2 F2 F2 F2 F2 F2 F2 F2 F2 F2 F2 F2 F2 F2 F2 F2 F2 F2 F2 F2 F2 F2 F2 F2 F2 F2 F2 F2 F2 F2 F2 F2 F2 F2 F2 F2 F2 F2 F2 F2 F2 F2 F2 F2 F2 F2 F2 F2 F2 F2 F2 F2 F2 F2 F2 F2 F2 F2 F2 F2 F2 F2 F2 F2 F2 F2 F2 F2 F2 F2 F2 F2 F2 F2 F2 F2 F2 F2 F2 F2 F2 F2 F2 F2 F2 F2 F2 F2 F2 F2 F2 F2 F2 F2 F2 F2 F2 F2 F2 F2 F2 F2 F2 F2 F2 F2 F2 F2 F2 F2 F2 F2 F2 F2 F2 F2 F2 F2 F2 F2 F2 F2 F2 F2 F2 F2 F2 F2 F2 F2 F2 F2 F2 F2 F2 F2 F2 F2 F2 F2 F2 F2 F2 F2 F2 F2 F2 F2 F2 F2 F2 F2 F2 F2 F2 F2 F2 F2 F2 F2 F2 F2 F2 F2     E0 E0 E0 E0 E0 E0 E0 E0 E0 E0 E0 E0 E0 E0 E0 E0 E0 E0 E0 E0 E0 E0 E0 E0 E0 E0 E0 E0 E0 E0 E0 E0 E0 E0 E0 E0 E0 E0 E0 E0 E0 E0 E0 E0 E0 E0 E0 E0 E0 E0 E0 E0 E0 E0 E0 E0 E0 E0 E0 E0 E0 E0 E0 E0 E0 E0 E0 E0 E0 E0 E0 E0 E0 E0 E0 E0 E0 E0 E0 E0 E0 E0 E0 E0 E0 E0 E0 E0 E0 E0 E0 E0 E0 E0 E0 E0 E0 E0 E0 E0 E0 E0 E0 E0 E0 E0 E0 E0 E0 E0 E0 E0 E0 E0 E0 E0 E0 E0 E0 E0 E0 E0 E0 E0 E0 E0 E0 E0 E0 E0 E0 E0 E0 E0 E0 E0 E0 E0 E0 E0 E0 E0 E0 E0 E0 E0 E0 E0 E0 E0 E0 E0 E0 E0 E0 E0 E0 E0 E0 E0 E0 E0 E0 E0 E0 E0 E0 E0 E0 E0 E0 E0 E0 E0 E0 E0 E0 E0 E0 E0 E0     H5 H5 H5 H5 H5 H5 H5 H5 H5 H5 H5 H5 H5 H5 H5 H5 H5 H5 H5 H5 H5 H5 H5 H5 H5 H5 H5 H5 H5 H5 H5 H5 H5 H5 H5 H5 H5 H5 H5 H5 H5 H5 H5 H5 H5 H5 H5 H5 H5 H5 H5 H5 H5 H5 H5 H5 H5 H5 H5 H5 H5 H5 H5 H5 H5 H5 H5 H5 H5 H5 H5 H5 H5 H5 H5 H5 H5 H5 H5 H5 H5 H5 H5 H5 H5 H5 H5 H5 H5 H5 H5 H5 H5 H5 H5 H5 H5 H5 H5 H5 H5 H5 H5 H5 H5 H5 H5 H5 H5 H5 H5 H5 H5 H5 H5 H5 H5 H5 H5 H5 H5 H5 H5 H5 H5 H5 H5 H5 H5 H5 H5 H5 H5 H5 H5 H5 H5 H5 H5 H5 H5 H5 H5 H5 H5 H5 H5 H5 H5 H5 H5 H5 H5 H5 H5 H5 H5 H5 H5 H5 H5 H5 H5 H5 H5 H5 H5 H5 H5 H5 H5 H5 H5 H5 H5 H5 H5 H5 H5 H5 H5    F7 F7 F7 F7 F7 F7 F7 F7 F7 F7 F7 F7 F7 F7 F7 F7 F7 F7 F7 F7 F7 F7 F7 F7 F7 F7 F7 F7 F7 F7 F7 F7 F7 F7 F7 F7 F7 F7 F7 F7 F7 F7 F7 F7 F7 F7 F7 F7 F7 F7 F7 F7 F7 F7 F7 F7 F7 F7 F7 F7 F7 F7 F7 F7 F7 F7 F7 F7 F7 F7 F7 F7 F7 F7 F7 F7 F7 F7 F7 F7 F7 F7 F7 F7 F7 F7 F7 F7 F7 F7 F7 F7 F7 F7 F7 F7 F7 F7 F7 F7 F7 F7 F7 F7 F7 F7 F7 F7 F7 F7 F7 F7 F7 F7 F7 F7 F7 F7 F7 F7 F7 F7 F7 F7 F7 F7 F7 F7 F7 F7 F7 F7 F7 F7 F7 F7 F7 F7 F7 F7 F7 F7 F7 F7 F7 F7 F7 F7 F7 F7 F7 F7 F7 F7 F7 F7 F7 F7 F7 F7 F7 F7 F7 F7 F7 F7 F7 F7 F7 F7 F7 F7 F7 F7 F7 F7 F7 F7 F7 F7 F7     E9 E9 E9 E9 E9 E9 E9 E9 E9 E9 E9 E9 E9 E9 E9 E9 E9 E9 E9 E9 E9 E9 E9 E9 E9 E9 E9 E9 E9 E9 E9 E9 E9 E9 E9 E9 E9 E9 E9 E9 E9 E9 E9 E9 E9 E9 E9 E9 E9 E9 E9 E9 E9 E9 E9 E9 E9 E9 E9 E9 E9 E9 E9 E9 E9 E9 E9 E9 E9 E9 E9 E9 E9 E9 E9 E9 E9 E9 E9 E9 E9 E9 E9 E9 E9 E9 E9 E9 E9 E9 E9 E9 E9 E9 E9 E9 E9 E9 E9 E9 E9 E9 E9 E9 E9 E9 E9 E9 E9 E9 E9 E9 E9 E9 E9 E9 E9 E9 E9 E9 E9 E9 E9 E9 E9 E9 E9 E9 E9 E9 E9 E9 E9 E9 E9 E9 E9 E9 E9 E9 E9 E9 E9 E9 E9 E9 E9 E9 E9 E9 E9 E9 E9 E9 E9 E9 E9 E9 E9 E9 E9 E9 E9 E9 E9 E9 E9 E9 E9 E9 E9 E9 E9 E9 E9 E9 E9 E9 E9 E9 E9     C: C: C: C: C: C: C: C: C: C: C: C: C: C: C: C: C: C: C: C: C: C: C: C: C: C: C: C: C: C: C: C: C: C: C: C: C: C: C: C: C: C: C: C: C: C: C: C: C: C: C: C: C: C: C: C: C: C: C: C: C: C: C: C: C: C: C: C: C: C: C: C: C: C: C: C: C: C: C: C: C: C: C: C: C: C: C: C: C: C: C: C: C: C: C: C: C: C: C: C: C: C: C: C: C: C: C: C: C: C: C: C: C: C: C: C: C: C: C: C: C: C: C: C: C: C: C: C: C: C: C: C: C: C: C: C: C: C: C: C: C: C: C: C: C: C: C: C: C: C: C: C: C: C: C: C: C: C: C: C: C: C: C: C: C: C: C: C: C: C: C: C: C: C: C: C: C: C: C: C: C:    L< L< L< L< L< L< L< L< L< L< L< L< L< L< L< L< L< L< L< L< L< L< L< L< L< L< L< L< L< L< L< L< L< L< L< L< L< L< L< L< L< L< L< L< L< L< L< L< L< L< L< L< L< L< L< L< L< L< L< L< L< L< L< L< L< L< L< L< L< L< L< L< L< L< L< L< L< L< L< L< L< L< L< L< L< L< L< L< L< L< L< L< L< L< L< L< L< L< L< L< L< L< L< L< L< L< L< L< L< L< L< L< L< L< L< L< L< L< L< L< L< L< L< L< L< L< L< L< L< L< L< L< L< L< L< L< L< L< L< L< L< L< L< L< L< L< L< L< L< L< L< L< L< L< L< L< L< L< L< L< L< L< L< L< L< L< L< L< L< L< L< L< L< L< L< L< L< L< L< L< L<     L9 L9 L9 L9 L9 L9 L9 L9 L9 L9 L9 L9 L9 L9 L9 L9 L9 L9 L9 L9 L9 L9 L9 L9 L9 L9 L9 L9 L9 L9 L9 L9 L9 L9 L9 L9 L9 L9 L9 L9 L9 L9 L9 L9 L9 L9 L9 L9 L9 L9 L9 L9 L9 L9 L9 L9 L9 L9 L9 L9 L9 L9 L9 L9 L9 L9 L9 L9 L9 L9 L9 L9 L9 L9 L9 L9 L9 L9 L9 L9 L9 L9 L9 L9 L9 L9 L9 L9 L9 L9 L9 L9 L9 L9 L9 L9 L9 L9 L9 L9 L9 L9 L9 L9 L9 L9 L9 L9 L9 L9 L9 L9 L9 L9 L9 L9 L9 L9 L9 L9 L9 L9 L9 L9 L9 L9 L9 L9 L9 L9 L9 L9 L9 L9 L9 L9 L9 L9 L9 L9 L9 L9 L9 L9 L9 L9 L9 L9 L9 L9 L9 L9 L9 L9 L9 L9 L9 L9 L9 L9 L9 L9 L9 L9 L9 L9 L9 L9 L9 L9 L9 L9 L9 L9 L9 L9M L9M L9M L9M L9M L9M M M M M M7 M7 M7 M7 M7 M7 M7 M7 M7 M7 M7 M7 M7 M7 M7 M7 M7 M7 M7 M7 M7 M7 M7 M7 M7 M7 M7 M7 M7 M7 M7 M7 M7 M7 M7 M7 M7 M7 M7 M7 M7 M7 M7 M7 M7 M7 M7 M7 M7 M7 M7 M7 M7 M7 M7 M7 M7 ML7 ML7 ML7 ML7 ML7 ML7 ML7 ML7 ML7 ML7 ML7 ML7 ML7 ML7 ML7 ML7 ML7 ML7 ML7 ML7 ML7 ML7 L7 L7 L7 L7 L7 L7 L7 L7 L7 L7 L7 L7 L7 L7 L7 L7 L7 L7 L7 L7 L7 L7 L7 L7 L7 L7 L7 L7 L7 L7 L7 L7 L7 L7 L7 L7 L7 L7 L7 L7 L7 L7 L7 L7 L7 L7M L7M L7M L7M L7M L7M L7M L7M L7M L7M L7M L7M L7M L7M L7M L7M L7M L7M L7M L7M L7M L7M 7M 7M 7M 7M 7M 7M 7M 7M 7M 7M 7M 7M 7M 7M 7M 7M 7M 7M 7M 7M 7M 7M 7M 7M 7M 7M 7M 7M 7M 7M 7M 7M 7M 7M 7M M M M M5 M5 M5 M5 M5 M5 M5 M5 M5 M5 M5 M5 M5 M5 M5 M5 M5 M5 M5 M5 M5 M5 M5 M5 M5 M5 M5 M5 M5 M5 M5 M5 M5 M5 M5 M5 M5 M5 M5 M5 M5 M5 M5 M5 M5 M5 M5 M5 M5 M5 M5 M5 M5 M5 M5 M5 M5 M5 M5 M5 M5 M5 M5 M5 M5 M5 M5 M5 M5 M5 M5 M5 M5 M5 M5 M5 M5 M5 M5 M5 M5 M5 M5 M5 M5 M5 M5 M5 M5 M5 M5 M5 M5 M5 M5 M5 M5 M5 M5 M5 M5 M5 M5 M5 M5 M5 M5 M5 M5 M5 M5 M5 M5 M5 M5 M5 M5 M5 M5 M5 M5 M5 M5 M5 M5 M5 M5 M5 M5 M5 M5 M5 M5 M5 M5 M5 M5 M5 M5 M5 M5 M5 M5 M5 M5 M5 M5 M5 M5 M5 M5 M5 M5 M5 M5 M5 M5 M5 M5 M5 M5 M5 M5 M5 M5 M5 M5 M5 M5 M5 M5 M5 M5 M5 M5 M5 M5 M5 M5 M5 5 5 5 5 5 K5 K5 K5 K5 K5 K5 K5 K5 K5 K5 K5 K5 K5 K5 K5 K5 K5 K5 K5 K5 K5 K5 K5 K5 K5 K5 K5 K5 K5 K5 K5 K5 K5 K5 K5 K5 K5 K5 K5 K5 K5 K5 K5 K5 K5 K5 K5 K5 K5 K5 K5 K5 K5 K5 K5 K5 K5 K5 K5 K5 K5 K5 K5 K5 K5 K5 K5 K5 K5 K5 K5 K5 K5 K5 K5 K5 K5 K5 K5 K5 K5 K5 K5 K5 K5 K5 K5 K5 K5 K5 K5 K5 K5 K5 K5 K5 K5 K5 K5 K5 K5 K5 K5 K5 K5 K5 K5 K5 K5 K5 K5 K5 K5 K5 K5 K5 K5 K5 K5 K5 K5 K5 K5 K5 K5 K5 K5 K5 K5 K5 K5 K5 K5 K5 K5 K5 K5 K5 K5 K5 K5 K5 K5 K5 K5 K5 K5 K5 K5 K5 K5 K5 K5 K5 K5 K5 K5 K5 K5 K5 K5 K5 K5 K5 K5 K5 K5 K5 K5 K5 K5 K5 K5 K5 K5 K5 K5 K5 K5 K5 K5     J: J: J: J: J: J: J: J: J: J: J: J: J: J: J: J: J: J: J: J: J: J: J: J: J: J: J: J: J: J: J: J: J: J: J: J: J: J: J: J: J: J: J: J: J: J: J: J: J: J: J: J: J: J: J: J: J: J: J: J: J: J: J: J: J: J: J: J: J: J: J: J: J: J: J: J: J: J: J: J: J: J: J: J: J: J: J: J: J: J: J: J: J: J: J: J: J: J: J: J: J: J: J: J: J: J: J: J: J: J: J: J: J: J: J: J: J: J: J: J: J: J: J: J: J: J: J: J: J: J: J: J: J: J: J: J: J: J: J: J: J: J: J: J: J: J: J: J: J: J: J: J: J: J: J: J: J: J: J: J: J: J: J: J: J: J: J: J: J: J: J: J: J: J: J: J: J: J: J: J: J: : : : H: H: H: H: H: H: H: H: H: H: H: H: H: H: H: H: H: H: H: H: H: H: H: H: H: H: H: H: H: H: H: H: H: H: H: H: H: H: H: H: H: H: H: H: H: H: H: H: H: H: H: H: H: H: H: H: H: H: H: H: H: H: H: H: H: H: H: H: H: H: H: H: H: H: H: H: H: H: H: H: H: H: H: H: H: H: H: H: H: H: H: H: H: H: H: H: H: H: H: H: H: H: H: H: H: H: H: H: H: H: H: H: H: H: H: H: H: H: H: H: H: H: H: H: H: H: H: H: H: H: H: H: H: H: H: H: H: H: H: H: H: H: H: H: H: H: H: H: H: H: H: H: H: H: H: H: H: H: H: H: H: H: H: H: H: H: H: H: H: H: H: H: H: H: H: H: H: H: H: H: H: :    F2 F2 F2 F2 F2 F2 F2 F2 F2 F2 F2 F2 F2 F2 F2 F2 F2 F2 F2 F2 F2 F2 F2 F2 F2 F2 F2 F2 F2 F2 F2 F2 F2 F2 F2 F2 F2 F2 F2 F2 F2 F2 F2 F2 F2 F2 F2 F2 F2 F2 F2 F2 F2 F2 F2 F2 F2 F2 F2 F2 F2 F2 F2 F2 F2 F2 F2 F2 F2 F2 F2 F2 F2 F2 F2 F2 F2 F2 F2 F2 F2 F2 F2 F2 F2 F2 F2 F2 F2 F2 F2 F2 F2 F2 F2 F2 F2 F2 F2 F2 F2 F2 F2 F2 F2 F2 F2 F2 F2 F2 F2 F2 F2 F2 F2 F2 F2 F2 F2 F2 F2 F2 F2 F2 F2 F2 F2 F2 F2 F2 F2 F2 F2 F2 F2 F2 F2 F2 F2 F2 F2 F2 F2 F2 F2 F2 F2 F2 F2 F2 F2 F2 F2 F2 F2 F2 F2 F2 F2 F2 F2 F2 F2 F2 F2 F2 F2 F2 F2 F2 F2 F2 F2 F2 F2 F2 F2 F2 F2 F2 F2 2 2 2 2 E2 E2 E2 E2 E2 E2 E2 E2 E2 E2 E2 E2 E2 E2 E2 E2 E2 E2 E2 E2 E2 E2 E2 E2 E2 E2 E2 E2 E2 E2 E2 E2 E2 E2 E2 E2 E2 E2 E2 E2 E2 E2 E2 E2 E2 E2 E2 E2 E2 E2 E2 E2 E2 E2 E2 E2 E2 E2 E2 E2 E2 E2 E2 E2 E2 E2 E2 E2 E2 E2 E2 E2 E2 E2 E2 E2 E2 E2 E2 E2 E2 E2 E2 E2 E2 E2 E2 E2 E2 E2 E2 E2 E2 E2 E2 E2 E2 E2 E2 E2 E2 E2 E2 E2 E2 E2 E2 E2 E2 E2 E2 E2 E2 E2 E2 E2 E2 E2 E2 E2 E2 E2 E2 E2 E2 E2 E2 E2 E2 E2 E2 E2 E2 E2 E2 E2 E2 E2 E2 E2 E2 E2 E2 E2 E2 E2 E2 E2 E2 E2 E2 E2 E2 E2 E2 E2 E2 E2 E2 E2 E2 E2 E2 E2 E2 E2 E2 E2 E2 E2 E2 E2 E2 E2 E2 E2 E2 E2 E2 E2 E2     C3 C3 C3 C3 C3 C3 C3 C3 C3 C3 C3 C3 C3 C3 C3 C3 C3 C3 C3 C3 C3 C3 C3 C3 C3 C3 C3 C3 C3 C3 C3 C3 C3 C3 C3 C3 C3 C3 C3 C3 C3 C3 C3 C3 C3 C3 C3 C3 C3 C3 C3 C3 C3 C3 C3 C3 C3 C3 C3 C3 C3 C3 C3 C3 C3 C3 C3 C3 C3 C3 C3 C3 C3 C3 C3 C3 C3 C3 C3 C3 C3 C3 C3 C3 C3 C3 C3 C3 C3 C3 C3 C3 C3 C3 C3 C3 C3 C3 C3 C3 C3 C3 C3 C3 C3 C3 C3 C3 C3 C3 C3 C3 C3 C3 C3 C3 C3 C3 C3 C3 C3 C3 C3 C3 C3 C3 C3 C3 C3 C3 C3 C3 C3 C3 C3 C3 C3 C3 C3 C3 C3 C3 C3 C3 C3 C3 C3 C3 C3 C3 C3 C3 C3 C3 C3 C3 C3 C3 C3 C3 C3 C3 C3 C3 C3 C3 C3 C3 C3 C3 C3 C3 C3 C3 C3 C3 C3 C3 C3 C3 C3 3 3 3 A3 A3 A3 A3 A3 A3 A3 A3 A3 A3 A3 A3 A3 A3 A3 A3 A3 A3 A3 A3 A3 A3 A3 A3 A3 A3 A3 A3 A3 A3 A3 A3 A3 A3 A3 A3 A3 A3 A3 A3 A3 A3 A3 A3 A3 A3 A3 A3 A3 A3 A3 A3 A3 A3 A3 A3 A3 A3 A3 A3 A3 A3 A3 A3 A3 A3 A3 A3 A3 A3 A3 A3 A3 A3 A3 A3 A3 A3 A3 A3 A3 A3 A3 A3 A3 A3 A3 A3 A3 A3 A3 A3 A3 A3 A3 A3 A3 A3 A3 A3 A3 A3 A3 A3 A3 A3 A3 A3 A3 A3 A3 A3 A3 A3 A3 A3 A3 A3 A3 A3 A3 A3 A3 A3 A3 A3 A3 A3 A3 A3 A3 A3 A3 A3 A3 A3 A3 A3 A3 A3 A3 A3 A3 A3 A3 A3 A3 A3 A3 A3 A3 A3 A3 A3 A3 A3 A3 A3 A3 A3 A3 A3 A3 A3 A3 A3 A3 A3 A3 A3 A3 A3 A3 A3 A3 A3 A3 A3 A3 A3 A3 3    C' C' C' C' C' C' C' C' C' C' C' C' C' C' C' C' C' C' C' C' C' C' C' C' C' C' C' C' C' C' C' C' C' C' C' C' C' C' C' C' C' C' C' C' C' C' C' C' C' C' C' C' C' C' C' C' C' C' C' C' C' C' C' C' C' C' C' C' C' C' C' C' C' C' C' C' C' C' C' C' C' C' C' C' C' C' C' C' C' C' C' C' C' C' C' C' C' C' C' C' C' C' C' C' C' C' C' C' C' C' C' C' C' C' C' C' C' C' C' C' C' C' C' C' C' C' C' C' C' C' C' C' C' C' C' C' C' C' C' C' C' C' C' C' C' C' C' C' C' C' C' C' C' C' C' C' C' C' C' C' C' C' C' C' C' C' C' C' C' C' C' C' C' C' C' C' C' C' C' C' C' ' ' ' ' F' F' F' F' F' F' F' F' F' F' F' F' F' F' F' F' F' F' F' F' F' F' F' F' F' F' F' F' F' F' F' F' F' F' F' F' F' F' F' F' F' F' F' F' F' F' F' F' F' F' F' F' F' F' F' F' F' F' F' F' F' F' F' F' F' F' F' F' F' F' F' F' F' F' F' F' F' F' F' F' F' F' F' F' F' F' F' F' F' F' F' F' F' F' F' F' F' F' F' F' F' F' F' F' F' F' F' F' F' F' F' F' F' F' F' F' F' F' F' F' F' F' F' F' F' F' F' F' F' F' F' F' F' F' F' F' F' F' F' F' F' F' F' F' F' F' F' F' F' F' F' F' F' F' F' F' F' F' F' F' F' F' F' F' F' F' F' F' F' F' F' F' F' F' F' F' F' F' F' F' F'    H3 H3 H3 H3 H3 H3 H3 H3 H3 H3 H3 H3 H3 H3 H3 H3 H3 H3 H3 H3 H3 H3 H3 H3 H3 H3 H3 H3 H3 H3 H3 H3 H3 H3 H3 H3 H3 H3 H3 H3 H3 H3 H3 H3 H3 H3 H3 H3 H3 H3 H3 H3 H3 H3 H3 H3 H3 H3 H3 H3 H3 H3 H3 H3 H3 H3 H3 H3 H3 H3 H3 H3 H3 H3 H3 H3 H3 H3 H3 H3 H3 H3 H3 H3 H3 H3 H3 H3 H3 H3 H3 H3 H3 H3 H3 H3 H3 H3 H3 H3 H3 H3 H3 H3 H3 H3 H3 H3 H3 H3 H3 H3 H3 H3 H3 H3 H3 H3 H3 H3 H3 H3 H3 H3 H3 H3 H3 H3 H3 H3 H3 H3 H3 H3 H3 H3 H3 H3 H3 H3 H3 H3 H3 H3 H3 H3 H3 H3 H3 H3 H3 H3 H3 H3 H3 H3 H3 H3 H3 H3 H3 H3 H3 H3 H3 H3 H3 H3 H3 H3 H3 H3 H3 H3 H3 H3 H3 H3 H3 H3 H3 3 3 3 3 J3 J3 J3 J3 J3 J3 J3 J3 J3 J3 J3 J3 J3 J3 J3 J3 J3 J3 J3 J3 J3 J3 J3 J3 J3 J3 J3 J3 J3 J3 J3 J3 J3 J3 J3 J3 J3 J3 J3 J3 J3 J3 J3 J3 J3 J3 J3 J3 J3 J3 J3 J3 J3 J3 J3 J3 J3 J3 J3 J3 J3 J3 J3 J3 J3 J3 J3 J3 J3 J3 J3 J3 J3 J3 J3 J3 J3 J3 J3 J3 J3 J3 J3 J3 J3 J3 J3 J3 J3 J3 J3 J3 J3 J3 J3 J3 J3 J3 J3 J3 J3 J3 J3 J3 J3 J3 J3 J3 J3 J3 J3 J3 J3 J3 J3 J3 J3 J3 J3 J3 J3 J3 J3 J3 J3 J3 J3 J3 J3 J3 J3 J3 J3 J3 J3 J3 J3 J3 J3 J3 J3 J3 J3 J3 J3 J3 J3 J3 J3 J3 J3 J3 J3 J3 J3 J3 J3 J3 J3 J3 J3 J3 J3 J3 J3 J3 J3 J3 J3 J3 J3 J3 J3 J3 J3 J3 J3 J3 J3 J3 J3     K0 K0 K0 K0 K0 K0 K0 K0 K0 K0 K0 K0 K0 K0 K0 K0 K0 K0 K0 K0 K0 K0 K0 K0 K0 K0 K0 K0 K0 K0 K0 K0 K0 K0 K0 K0 K0 K0 K0 K0 K0 K0 K0 K0 K0 K0 K0 K0 K0 K0 K0 K0 K0 K0 K0 K0 K0 K0 K0 K0 K0 K0 K0 K0 K0 K0 K0 K0 K0 K0 K0 K0 K0 K0 K0 K0 K0 K0 K0 K0 K0 K0 K0 K0 K0 K0 K0 K0 K0 K0 K0 K0 K0 K0 K0 K0 K0 K0 K0 K0 K0 K0 K0 K0 K0 K0 K0 K0 K0 K0 K0 K0 K0 K0 K0 K0 K0 K0 K0 K0 K0 K0 K0 K0 K0 K0 K0 K0 K0 K0 K0 K0 K0 K0 K0 K0 K0 K0 K0 K0 K0 K0 K0 K0 K0 K0 K0 K0 K0 K0 K0 K0 K0 K0 K0 K0 K0 K0 K0 K0 K0 K0 K0 K0 K0 K0 K0 K0 K0 K0 K0 K0 K0 K0 K0 K0 K0 K0 K0 K0 K0 0 0 0 H0 H0 H0 H0 H0 H0 H0 H0 H0 H0 H0 H0 H0 H0 H0 H0 H0 H0 H0 H0 H0 H0 H0 H0 H0 H0 H0 H0 H0 H0 H0 H0 H0 H0 H0 H0 H0 H0 H0 H0 H0 H0 H0 H0 H0 H0 H0 H0 H0 H0 H0 H0 H0 H0 H0 H0 H0 H0 H0 H0 H0 H0 H0 H0 H0 H0 H0 H0 H0 H0 H0 H0 H0 H0 H0 H0 H0 H0 H0 H0 H0 H0 H0 H0 H0 H0 H0 H0 H0 H0 H0 H0 H0 H0 H0 H0 H0 H0 H0 H0 H0 H0 H0 H0 H0 H0 H0 H0 H0 H0 H0 H0 H0 H0 H0 H0 H0 H0 H0 H0 H0 H0 H0 H0 H0 H0 H0 H0 H0 H0 H0 H0 H0 H0 H0 H0 H0 H0 H0 H0 H0 H0 H0 H0 H0 H0 H0 H0 H0 H0 H0 H0 H0 H0 H0 H0 H0 H0 H0 H0 H0 H0 H0 H0 H0 H0 H0 H0 H0 H0 H0 H0 H0 H0 H0 H0 H0 H0 H0 H0 H0 0    F5 F5 F5 F5 F5 F5 F5 F5 F5 F5 F5 F5 F5 F5 F5 F5 F5 F5 F5 F5 F5 F5 F5 F5 F5 F5 F5 F5 F5 F5 F5 F5 F5 F5 F5 F5 F5 F5 F5 F5 F5 F5 F5 F5 F5 F5 F5 F5 F5 F5 F5 F5 F5 F5 F5 F5 F5 F5 F5 F5 F5 F5 F5 F5 F5 F5 F5 F5 F5 F5 F5 F5 F5 F5 F5 F5 F5 F5 F5 F5 F5 F5 F5 F5 F5 F5 F5 F5 F5 F5 F5 F5 F5 F5 F5 F5 F5 F5 F5 F5 F5 F5 F5 F5 F5 F5 F5 F5 F5 F5 F5 F5 F5 F5 F5 F5 F5 F5 F5 F5 F5 F5 F5 F5 F5 F5 F5 F5 F5 F5 F5 F5 F5 F5 F5 F5 F5 F5 F5 F5 F5 F5 F5 F5 F5 F5 F5 F5 F5 F5 F5 F5 F5 F5 F5 F5 F5 F5 F5 F5 F5 F5 F5 F5 F5 F5 F5 F5 F5 F5 F5 F5 F5 F5 F5 F5 F5 F5 F5 F5 F5     E) E) E) E) E) E) E) E) E) E) E) E) E) E) E) E) E) E) E) E) E) E) E) E) E) E) E) E) E) E) E) E) E) E) E) E) E) E) E) E) E) E) E) E) E) E) E) E) E) E) E) E) E) E) E) E) E) E) E) E) E) E) E) E) E) E) E) E) E) E) E) E) E) E) E) E) E) E) E) E) E) E) E) E) E) E) E) E) E) E) E) E) E) E) E) E) E) E) E) E) E) E) E) E) E) E) E) E) E) E) E) E) E) E) E) E) E) E) E) E) E) E) E) E) E) E) E) E) E) E) E) E) E) E) E) E) E) E) E) E) E) E) E) E) E) E) E) E) E) E) E) E) E) E) E) E) E) E) E) E) E) E) E) E) E) E) E) E) E) E) E) E) E) E) E) E) E) E) E) E) E)    C- C- C- C- C- C- C- C- C- C- C- C- C- C- C- C- C- C- C- C- C- C- C- C- C- C- C- C- C- C- C- C- C- C- C- C- C- C- C- C- C- C- C- C- C- C- C- C- C- C- C- C- C- C- C- C- C- C- C- C- C- C- C- C- C- C- C- C- C- C- C- C- C- C- C- C- C- C- C- C- C- C- C- C- C- C- C- C- C- C- C- C- C- C- C- C- C- C- C- C- C- C- C- C- C- C- C- C- C- C- C- C- C- C- C- C- C- C- C- C- C- C- C- C- C- C- C- C- C- C- C- C- C- C- C- C- C- C- C- C- C- C- C- C- C- C- C- C- C- C- C- C- C- C- C- C- C- C- C- C- C- C- C- C- C- C- C- C- C- C- C- C- C- C- C- C- C- C- C- C- C-     A0 A0 A0 A0 A0 A0 A0 A0 A0 A0 A0 A0 A0 A0 A0 A0 A0 A0 A0 A0 A0 A0 A0 A0 A0 A0 A0 A0 A0 A0 A0 A0 A0 A0 A0 A0 A0 A0 A0 A0 A0 A0 A0 A0 A0 A0 A0 A0 A0 A0 A0 A0 A0 A0 A0 A0 A0 A0 A0 A0 A0 A0 A0 A0 A0 A0 A0 A0 A0 A0 A0 A0 A0 A0 A0 A0 A0 A0 A0 A0 A0 A0 A0 A0 A0 A0 A0 A0 A0 A0 A0 A0 A0 A0 A0 A0 A0 A0 A0 A0 A0 A0 A0 A0 A0 A0 A0 A0 A0 A0 A0 A0 A0 A0 A0 A0 A0 A0 A0 A0 A0 A0 A0 A0 A0 A0 A0 A0 A0 A0 A0 A0 A0 A0 A0 A0 A0 A0 A0 A0 A0 A0 A0 A0 A0 A0 A0 A0 A0 A0 A0 A0 A0 A0 A0 A0 A0 A0 A0 A0 A0 A0 A0 A0 A0 A0 A0 A0 A0 A0 A0 A0 A0 A0 A0 A0 A0 A0 A0 A0 A0     3M 3M 3M 3M 3M 3M 3M 3M 3M 3M 3M 3M 3M 3M 3M 3M 3M 3M 3M 3M 3M 3M 3M 3M 3M 3M 3M 3M 3M 3M 3M 3M 3M 3M 3M 3M 3M 3M 3M 3M 3M 3M 3M 3M 3M 3M 3M 3M 3M 3M 3M 3M 3M 3M 3M 3M 3M 3M 3M 3M 3M 3M 3M 3M 3M 3M 3M 3M 3M 3M 3M 3M 3M 3M 3M 3M 3M 3M 3M 3M 3M 3M 3M 3M 3M 3M 3M 3M 3M 3M 3M 3M 3M 3M 3M 3M 3M 3M 3M 3M 3M 3M 3M 3M 3M 3M 3M 3M 3M 3M 3M 3M 3M 3M 3M 3M 3M 3M 3M 3M 3M 3M 3M 3M 3M 3M 3M 3M 3M 3M 3M 3M 3M 3M 3M 3M 3M 3M 3M 3M 3M 3M 3M 3M 3M 3M 3M 3M 3M 3M 3M 3M 3M 3M 3M 3M 3M 3M 3M 3M 3M 3M 3M 3M 3M 3M 3M 3M 3M 3M 3M 3M 3M 3M 3M 3M 3M 3M 3M 3M 3M M M M 7M 7M 7M 7M 7M 7M 7M 7M 7M 7M 7M 7M 7M 7M 7M 7M 7M 7M 7M 7M 7M 7M 7M 7M 7M 7M 7M 7M 7M 7M 7M 7M 7M 7M 7M 7M 7M 7M 7M 7M 7M 7M 7M 7M 7M 7M 7M 7M 7M 7M 7M 7M 7M 7M 7M 7M 7M 7M 7M 7M 7M 7M 7M 7M 7M 7M 7M 7M 7M 7M 7M 7M 7M 7M 7M 7M 7M 7M 7M 7M 7M 7M 7M 7M 7M 7M 7M 7M 7M 7M 7M 7M 7M 7M 7M 7M 7M 7M 7M 7M 7M 7M 7M 7M 7M 7M 7M 7M 7M 7M 7M 7M 7M 7M 7M 7M 7M 7M 7M 7M 7M 7M 7M 7M 7M 7M 7M 7M 7M 7M 7M 7M 7M 7M 7M 7M 7M 7M 7M 7M 7M 7M 7M 7M 7M 7M 7M 7M 7M 7M 7M 7M 7M 7M 7M 7M 7M 7M 7M 7M 7M 7M 7M 7M 7M 7M 7M 7M 7M 7M 7M 7M 7M 7M 7M 7M 7M 7M 7M 7M 7M M M M M 5M 5M 5M 5M 5M 5M 5M 5M 5M 5M 5M 5M 5M 5M 5M 5M 5M 5M 5M 5M 5M 5M 5M 5M 5M 5M 5M 5M 5M 5M 5M 5M 5M 5M 5M 5M 5M 5M 5M 5M 5M 5M 5M 5M 5M 5M 5M 5M 5M 5M 5M 5M 5M 5M 5M 5M 5M 5M 5M 5M 5M 5M 5M 5M 5M 5M 5M 5M 5M 5M 5M 5M 5M 5M 5M 5M 5M 5M 5M 5M 5M 5M 5M 5M 5M 5M 5M 5M 5M 5M 5M 5M 5M 5M 5M 5M 5M 5M 5M 5M 5M 5M 5M 5M 5M 5M 5M 5M 5M 5M 5M 5M 5M 5M 5M 5M 5M 5M 5M 5M 5M 5M 5M 5M 5M 5M 5M 5M 5M 5M 5M 5M 5M 5M 5M 5M 5M 5M 5M 5M 5M 5M 5M 5M 5M 5M 5M 5M 5M 5M 5M 5M 5M 5M 5M 5M 5M 5M 5M 5M 5M 5M 5M 5M 5M 5M 5M 5M 5M 5M 5M 5M 5M 5M 5M 5M 5M 5M 5M 5M 5M     E3 E3 E3 E3 E3 E3 E3 E3 E3 E3 E3 E3 E3 E3 E3 E3 E3 E3 E3 E3 E3 E3 E3 E3 E3 E3 E3 E3 E3 E3 E3 E3 E3 E3 E3 E3 E3 E3 E3 E3 E3 E3 E3 E3 E3 E3 E3 E3 E3 E3 E3 E3 E3 E3 E3 E3 E3 E3 E3 E3 E3 E3 E3 E3 E3 E3 E3 E3 E3 E3 E3 E3 E3 E3 E3 E3 E3 E3 E3 E3 E3 E3 E3 E3 E3 E3 E3 E3 E3 E3 E3 E3 E3 E3 E3 E3 E3 E3 E3 E3 E3 E3 E3 E3 E3 E3 E3 E3 E3 E3 E3 E3 E3 E3 E3 E3 E3 E3 E3 E3 E3 E3 E3 E3 E3 E3 E3 E3 E3 E3 E3 E3 E3 E3 E3 E3 E3 E3 E3 E3 E3 E3 E3 E3 E3 E3 E3 E3 E3 E3 E3 E3 E3 E3 E3 E3 E3 E3 E3 E3 E3 E3 E3 E3 E3 E3 E3 E3 E3 E3 E3 E3 E3 E3 E3 E3 E3 E3 E3 E3 E3    F2 F2 F2 F2 F2 F2 F2 F2 F2 F2 F2 F2 F2 F2 F2 F2 F2 F2 F2 F2 F2 F2 F2 F2 F2 F2 F2 F2 F2 F2 F2 F2 F2 F2 F2 F2 F2 F2 F2 F2 F2 F2 F2 F2 F2 F2 F2 F2 F2 F2 F2 F2 F2 F2 F2 F2 F2 F2 F2 F2 F2 F2 F2 F2 F2 F2 F2 F2 F2 F2 F2 F2 F2 F2 F2 F2 F2 F2 F2 F2 F2 F2 F2 F2 F2 F2 F2 F2 F2 F2 F2 F2 F2 F2 F2 F2 F2 F2 F2 F2 F2 F2 F2 F2 F2 F2 F2 F2 F2 F2 F2 F2 F2 F2 F2 F2 F2 F2 F2 F2 F2 F2 F2 F2 F2 F2 F2 F2 F2 F2 F2 F2 F2 F2 F2 F2 F2 F2 F2 F2 F2 F2 F2 F2 F2 F2 F2 F2 F2 F2 F2 F2 F2 F2 F2 F2 F2 F2 F2 F2 F2 F2 F2 F2 F2 F2 F2 F2 F2 F2 F2 F2 F2 F2 F2 F2 F2 F2 F2 F2 F2     K0 K0 K0 K0 K0 K0 K0 K0 K0 K0 K0 K0 K0 K0 K0 K0 K0 K0 K0 K0 K0 K0 K0 K0 K0 K0 K0 K0 K0 K0 K0 K0 K0 K0 K0 K0 K0 K0 K0 K0 K0 K0 K0 K0 K0 K0 K0 K0 K0 K0 K0 K0 K0 K0 K0 K0 K0 K0 K0 K0 K0 K0 K0 K0 K0 K0 K0 K0 K0 K0 K0 K0 K0 K0 K0 K0 K0 K0 K0 K0 K0 K0 K0 K0 K0 K0 K0 K0 K0 K0 K0 K0 K0 K0 K0 K0 K0 K0 K0 K0 K0 K0 K0 K0 K0 K0 K0 K0 K0 K0 K0 K0 K0 K0 K0 K0 K0 K0 K0 K0 K0 K0 K0 K0 K0 K0 K0 K0 K0 K0 K0 K0 K0 K0 K0 K0 K0 K0 K0 K0 K0 K0 K0 K0 K0 K0 K0 K0 K0 K0 K0 K0 K0 K0 K0 K0 K0 K0 K0 K0 K0 K0 K0 K0 K0 K0 K0 K0 K0 K0 K0 K0 K0 K0 K0 K0 K0 K0 K0 K0 K0     J. J. J. J. J. J. J. J. J. J. J. J. J. J. J. J. J. J. J. J. J. J. J. J. J. J. J. J. J. J. J. J. J. J. J. J. J. J. J. J. J. J. J. J. J. J. J. J. J. J. J. J. J. J. J. J. J. J. J. J. J. J. J. J. J. J. J. J. J. J. J. J. J. J. J. J. J. J. J. J. J. J. J. J. J. J. J. J. J. J. J. J. J. J. J. J. J. J. J. J. J. J. J. J. J. J. J. J. J. J. J. J. J. J. J. J. J. J. J. J. J. J. J. J. J. J. J. J. J. J. J. J. J. J. J. J. J. J. J. J. J. J. J. J. J. J. J. J. J. J. J. J. J. J. J. J. J. J. J. J. J. J. J. J. J. J. J. J. J. J. J. J. J. J. J. J. J. J. J. J. J.    H3 H3 H3 H3 H3 H3 H3 H3 H3 H3 H3 H3 H3 H3 H3 H3 H3 H3 H3 H3 H3 H3 H3 H3 H3 H3 H3 H3 H3 H3 H3 H3 H3 H3 H3 H3 H3 H3 H3 H3 H3 H3 H3 H3 H3 H3 H3 H3 H3 H3 H3 H3 H3 H3 H3 H3 H3 H3 H3 H3 H3 H3 H3 H3 H3 H3 H3 H3 H3 H3 H3 H3 H3 H3 H3 H3 H3 H3 H3 H3 H3 H3 H3 H3 H3 H3 H3 H3 H3 H3 H3 H3 H3 H3 H3 H3 H3 H3 H3 H3 H3 H3 H3 H3 H3 H3 H3 H3 H3 H3 H3 H3 H3 H3 H3 H3 H3 H3 H3 H3 H3 H3 H3 H3 H3 H3 H3 H3 H3 H3 H3 H3 H3 H3 H3 H3 H3 H3 H3 H3 H3 H3 H3 H3 H3 H3 H3 H3 H3 H3 H3 H3 H3 H3 H3 H3 H3 H3 H3 H3 H3 H3 H3 H3 H3 H3 H3 H3 H3 H3 H3 H3 H3 H3 H3 H3 H3 H3 H3 H3 H3     J5E J5E J5E J5E J5E J5E J5E J5E J5E J5E J5E J5E J5E J5E J5E J5E J5E J5E J5E J5E J5E J5E J5E J5E J5E J5E J5E J5E J5E J5E J5E J5E J5E J5E J5E J5E J5E J5E J5E J5E J5E J5E J5E J5E J5E J5E J5E J5E J5E J5E J5E J5E J5E J5E J5E J5E J5E J5E J5E J5E J5E J5E J5E J5E J5E J5E J5E J5E J5E J5E J5E J5E J5E J5E J5E J5E J5E J5E J5E J5E J5E J5E J5E J5E J5E J5E J5E J5E J5E J5E J5E J5E J5E J5E J5E J5E J5E J5E J5E J5E J5E J5E J5E J5E J5E J5E J5E J5E J5E J5E J5E J5E J5E J5E J5E J5E J5E J5E J5E J5E J5E J5E J5E J5E J5E J5E J5E J5E J5E J5E J5E J5E J5E J5E J5E J5E J5E J5E J5E J5E J5E J5E J5E J5E J5E J5E J5E J5E J5E J5E J5E J5E J5E J5E J5E J5E J5E J5E J5E J5E J5E J5E J5E J5E J5E J5E J5E J5E J5E J5E J5E 5E H5E H5E H5E H5E H5E H5E H5E H5E H5E H5E H5E H5E H5E H5E H5E H5E H5E H5E H5E H5E H5E H5E H5E H5E H5E H5E H5E H5E H5E H5E H5E H5E H5E H5E H5E H5E H5E H5E H5E H5E H5E H5E H5E H5E H5E H5E H5E H5E H5E H5E H5E H5E H5E H5E H5E H5E H5E H5E H5E H5E H5E H5E H5E H5E H5E H5E H5E H5E H5E H5E H5E H5E H5E HJ5E HJ5E J5E J5E J5E J5E J5E J5E J5E J5E J5E J5E J5E J5E J5E J5E J5E J5E J5E J5E J5E J5E J5E J5E J5E J5E J5E J5E J5E J5E J5E J5E J5E J5E J5E J5E J5E J5E J5E J5E J5E J5E J5E J5E J5E J5E J5E J5E J5E J5E J5E J5E J5E J5E J5E J5E J5E J5E J5E J5E J5E J5E J5E J5E J5E J5E J5E J5E J5E J5E J5E J5E J5HE J5HE J5HE 5HE 5HE 5HE 5HE 5HE 5HE 5HE 5HE 5HE 5HE 5HE 5HE 5HE 5HE 5HE 5HE 5HE 5HE 5HE 5HE 5HE 5HE 5HE 5HE 5HE 5HE 5HE 5HE 5HE 5HE 5HE 5HE 5HE 5HE 5HE 5HE 5HE 5HE 5HE 5HE 5HE 5HE 5HE 5HE 5HE 5HE HE HE HE HE) HE) HE) HE) HE) HE) HE) HE) HE) HE) HE) HE) HE) HE) HE) HE) HE) HE) HE) HE) HJE) HJE) HJE) JE) JE) JE) JE) JE) JE) JE) JE) JE) JE) JE) JE) JE) JE) JE) JE) JE) JE) JE) JE) JE) JE) JE) JE) JE) JE) JE) JE) JE) JE) JE) JE) JE) JE) JE) JE) JE) JE) JE) JE) JE) JE) JE) JE) JE) JE) JE) JE) JE) JE) JE) JE) JE) JE) JE) JE) JE) JE) JE) JE) JE) JE) JE) JE) JE) JE) JE) JE) JE) JE) JHE) JHE) HE) HE) HE) HE) HE) HE) HE) HE) HE) HE) HE) HE) HE) HE) HE) HE) HE) HE) HE) HE) HE) HE) HE) HE) HE) HE) HE) HE) HE) HE) HE) HE) HE) HE) HE) HE) HE) HE) HE) HE) HE) HE) HE) HE) HE) HE) HE) HE) HE) HE) HE) HE) HE) HE) HE) HE) HE) HE) HE) HE) HE) HE) HE) HE) HE) HE) HE) HE) HE) HE) HE) HE) HE) HE) HE) HE) HE) HE) HE) HE) HE) HE) HE) HE) HE) HE) HE) E) E) E) EF) EF) EF) EF) EF) EF) EF) EF) EF) EF) EF) EF) EF) EF) EF) EF) EF) EF) EF) EF) EF) EF) EF) EF) EF) EF) EF) EF) EF) EF) EF) EF) EF) EF) EF) EF) EF) EF) EF) EF) EF) EF) EF) EF) EF) EF) EF) EF) EF) EF) EF) EF) EF) EF) EF) EF) EF) EF) EF) EF) EF) EF) EF) EF) EF) EF) EF) EF) EF) EF) EF) EF) EF) EF) EF) EF) EF) EF) EF) EF) EF) EF) EF) EF) EF) EF) EF) EF) EF) EF) EF) EF) EF) EF) EF) EF) EF) EF) EF) EF) EF) EF) EF) EF) EF) EF) EF) EF) EF) EF) EF) EF) EF) EF) EF) EF) EF) EF) EF) EF) EF) EF) EF) EF) EF) EF) EF) EF) EF) EF) EF) EF) EF) EF) EF) EF) EF) EF) EF) EF) EF) EF) EF) EF) EF) EF) EF) EF) EF) EF) EF) EF) EF) EF) EF) EF) EF) EF) EF) EF) EF) EF) EF) EF) EF) EF) EF) EF) EF) EF) EF) EF) EF) EF) EF) EF) EF) EF) F) F) F)     .F .F .F .F .F .F .F .F .F .F .F .F .F .F .F .F .F .F .F .F .F .F .F .F .F .F .F .F .F .F .F .F .F .F .F .F .F .F .F .F .F .F .F .F .F .F .F .F .F .F .F .F .F .F .F .F .F .F .F .F .F .F .F .F .F .F .F .F .F .F .F .F .F .F .F .F .F .F .F .F .F .F .F .F .F .F .F .F .F .F .F .F .F .F .F .F .F .F .F .F .F .F .F .F .F .F .F .F .F .F .F .F .F .F .F .F .F .F .F .F .F .F .F .F .F .F .F .F .F .F .F .F .F .F .F .F .F .F .F .F .F .F .F .F .F .F .F .F .F .F .F .F .F .F .F .F .F .F .F .F .F .F .F .F .F .F .F .F .F .F .F .F .F .F .F .F .F .F .F .F .F F F F F :F :F :F :F :F :F :F :F :F :F :F :F :F :F :F :F :F :F :F :F :F :F :F :F :F :F :F :F :F :F :F :F :F :F :F :F :F :F :F :F :F :F :F :F :F :F :F :F :F :F :F :F :F :F :F :F :F :F :F :F :F :F :F :F :F :F :F :F :F :F :F :F :F :F :F :F :F :F :F :F :F :F :F :F :F :F :F :F :F :F :F :F :F :F :F :F :F :F :F :F :F :F :F :F :F :F :F :F :F :F :F :F :F :F :F :F :F :F :F :F :F :F :F :F :F :F :F :F :F :F :F :F :F :F :F :F :F :F :F :F :F :F :F :F :F :F :F :F :F :F :F :F :F :F :F :F :F :F :F :F :F :F :F :F :F :F :F :F :F :F :F :F :F :F :F :F :F :F :F :F :F F F F 5F 5F 5F 5F 5F 5F 5F 5F 5F 5F 5F 5F 5F 5F 5F 5F 5F 5F 5F 5F 5F 5F 5F 5F 5F 5F 5F 5F 5F 5F 5F 5F 5F 5F 5F 5F 5F 5F 5F 5F 5F 5F 5F 5F 5F 5F 5F 5F 5F 5F 5F 5F 5F 5F 5F 5F 5F 5F 5F 5F 5F 5F 5F 5F 5F 5F 5F 5F 5F 5F 5F 5F 5F 5F 5F 5F 5F 5F 5F 5F 5F 5F 5F 5F 5F 5F 5F 5F 5F 5F 5F 5F 5F 5F 5F 5F 5F 5F 5F 5F 5F 5F 5F 5F 5F 5F 5F 5F 5F 5F 5F 5F 5F 5F 5F 5F 5F 5F 5F 5F 5F 5F 5F 5F 5F 5F 5F 5F 5F 5F 5F 5F 5F 5F 5F 5F 5F 5F 5F 5F 5F 5F 5F 5F 5F 5F 5F 5F 5F 5F 5F 5F 5F 5F 5F 5F 5F 5F 5F 5F 5F 5F 5F 5F 5F 5F 5F 5F 5F 5F 5F 5F 5F 5F 5F 5F 5F 5F 5F 5F 5F F F F F 2F 2F 2F 2F 2F 2F 2F 2F 2F 2F 2F 2F 2F 2F 2F 2F 2F 2F 2F 2F 2F 2F 2F 2F 2F 2F 2F 2F 2F 2F 2F 2F 2F 2F 2F 2F 2F 2F 2F 2F 2F 2F 2F 2F 2F 2F 2F 2F 2F 2F 2F 2F 2F 2F 2F 2F 2F 2F 2F 2F 2F 2F 2F 2F 2F 2F 2F 2F 2F 2F 2F 2F 2F 2F 2F 2F 2F 2F 2F 2F 2F 2F 2F 2F 2F 2F 2F 2F 2F 2F 2F 2F 2F 2F 2F 2F 2F 2F 2F 2F 2F 2F 2F 2F 2F 2F 2F 2F 2F 2F 2F 2F 2F 2F 2F 2F 2F 2F 2F 2F 2F 2F 2F 2F 2F 2F 2F 2F 2F 2F 2F 2F 2F 2F 2F 2F 2F 2F 2F 2F 2F 2F 2F 2F 2F 2F 2F 2F 2F 2F 2F 2F 2F 2F 2F 2F 2F 2F 2F 2F 2F 2F 2F 2F 2F 2F 2F 2F 2F 2F 2F 2F 2F 2F 2F 2F 2F 2F 2F 2F 2F F F F F .F .F .F .F .F .F .F .F .F .F .F .F .F .F .F .F .F .F .F .F .F .F .F .F .F .F .F .F .F .F .F .F .F .F .F .F .F .F .F .F .F .F .F .F .F .F .F .F .F .F .F .F .F .F .F .F .F .F .F .F .F .F .F .F .F .F .F .F .F .F .F .F .F .F .F .F .F .F .F .F .F .F .F .F .F .F .F .F .F .F .F .F .F .F .F .F .F .F .F .F .F .F .F .F .F .F .F .F .F .F .F .F .F .F .F .F .F .F .F .F .F .F .F .F .F .F .F .F .F .F .F .F .F .F .F .F .F .F .F .F .F .F .F .F .F .F .F .F .F .F .F .F .F .F .F .F .F .F .F .F .F .F .F .F .F .F .F .F .F .F .F .F .F .F .F .F .F .F .F .F .F    J+ J+ J+ J+ J+ J+ J+ J+ J+ J+ J+ J+ J+ J+ J+ J+ J+ J+ J+ J+ J+ J+ J+ J+ J+ J+ J+ J+ J+ J+ J+ J+ J+ J+ J+ J+ J+ J+ J+ J+ J+ J+ J+ J+ J+ J+ J+ J+ J+ J+ J+ J+ J+ J+ J+ J+ J+ J+ J+ J+ J+ J+ J+ J+ J+ J+ J+ J+ J+ J+ J+ J+ J+ J+ J+ J+ J+ J+ J+ J+ J+ J+ J+ J+ J+ J+ J+ J+ J+ J+ J+ J+ J+ J+ J+ J+ J+ J+ J+ J+ J+ J+ J+ J+ J+ J+ J+ J+ J+ J+ J+ J+ J+ J+ J+ J+ J+ J+ J+ J+ J+ J+ J+ J+ J+ J+ J+ J+ J+ J+ J+ J+ J+ J+ J+ J+ J+ J+ J+ J+ J+ J+ J+ J+ J+ J+ J+ J+ J+ J+ J+ J+ J+ J+ J+ J+ J+ J+ J+ J+ J+ J+ J+ J+ J+ J+ J+ J+ J+ J+ J+ J+ J+ J+ J+ J+ J+ J+ J+ J+ J+     H- H- H- H- H- H- H- H- H- H- H- H- H- H- H- H- H- H- H- H- H- H- H- H- H- H- H- H- H- H- H- H- H- H- H- H- H- H- H- H- H- H- H- H- H- H- H- H- H- H- H- H- H- H- H- H- H- H- H- H- H- H- H- H- H- H- H- H- H- H- H- H- H- H- H- H- H- H- H- H- H- H- H- H- H- H- H- H- H- H- H- H- H- H- H- H- H- H- H- H- H- H- H- H- H- H- H- H- H- H- H- H- H- H- H- H- H- H- H- H- H- H- H- H- H- H- H- H- H- H- H- H- H- H- H- H- H- H- H- H- H- H- H- H- H- H- H- H- H- H- H- H- H- H- H- H- H- H- H- H- H- H- H- H- H- H- H- H- H- H- H- H- H- H- H- H- H- H- H- H- H-     J. J. J. J. J. J. J. J. J. J. J. J. J. J. J. J. J. J. J. J. J. J. J. J. J. J. J. J. J. J. J. J. J. J. J. J. J. J. J. J. J. J. J. J. J. J. J. J. J. J. J. J. J. J. J. J. J. J. J. J. J. J. J. J. J. J. J. J. J. J. J. J. J. J. J. J. J. J. J. J. J. J. J. J. J. J. J. J. J. J. J. J. J. J. J. J. J. J. J. J. J. J. J. J. J. J. J. J. J. J. J. J. J. J. J. J. J. J. J. J. J. J. J. J. J. J. J. J. J. J. J. J. J. J. J. J. J. J. J. J. J. J. J. J. J. J. J. J. J. J. J. J. J. J. J. J. J. J. J. J. J. J. J. J. J. J. J. J. J. J. J. J. J. J. J. J. J. J. J. J. J.    ?0 ?0 ?0 ?0 ?0 ?0 ?0 ?0 ?0 ?0 ?0 ?0 ?0 ?0 ?0 ?0 ?0 ?0 ?0 ?0 ?0 ?0 ?0 ?0 ?0 ?0 ?0 ?0 ?0 ?0 ?0 ?0 ?0 ?0 ?0 ?0 ?0 ?0 ?0 ?0 ?0 ?0 ?0 ?0 ?0 ?0 ?0 ?0 ?0 ?0 ?0 ?0 ?0 ?0 ?0 ?0 ?0 ?0 ?0 ?0 ?0 ?0 ?0 ?0 ?0 ?0 ?0 ?0 ?0 ?0 ?0 ?0 ?0 ?0 ?0 ?0 ?0 ?0 ?0 ?0 ?0 ?0 ?0 ?0 ?0 ?0 ?0 ?0 ?0 ?0 ?0 ?0 ?0 ?0 ?0 ?0 ?0 ?0 ?0 ?0 ?0 ?0 ?0 ?0 ?0 ?0 ?0 ?0 ?0 ?0 ?0 ?0 ?0 ?0 ?0 ?0 ?0 ?0 ?0 ?0 ?0 ?0 ?0 ?0 ?0 ?0 ?0 ?0 ?0 ?0 ?0 ?0 ?0 ?0 ?0 ?0 ?0 ?0 ?0 ?0 ?0 ?0 ?0 ?0 ?0 ?0 ?0 ?0 ?0 ?0 ?0 ?0 ?0 ?0 ?0 ?0 ?0 ?0 ?0 ?0 ?0 ?0 ?0 ?0 ?0 ?0 ?0 ?0 ?0 ?0 ?0 ?0 ?0 ?0 ?0 ?0 ?0 ?0 ?0 ?0 ?0     >. >. >. >. >. >. >. >. >. >. >. >. >. >. >. >. >. >. >. >. >. >. >. >. >. >. >. >. >. >. >. >. >. >. >. >. >. >. >. >. >. >. >. >. >. >. >. >. >. >. >. >. >. >. >. >. >. >. >. >. >. >. >. >. >. >. >. >. >. >. >. >. >. >. >. >. >. >. >. >. >. >. >. >. >. >. >. >. >. >. >. >. >. >. >. >. >. >. >. >. >. >. >. >. >. >. >. >. >. >. >. >. >. >. >. >. >. >. >. >. >. >. >. >. >. >. >. >. >. >. >. >. >. >. >. >. >. >. >. >. >. >. >. >. >. >. >. >. >. >. >. >. >. >. >. >. >. >. >. >. >. >. >. >. >. >. >. >. >. >. >. >. >. >. >. >. >. >. >. >. >.     -< -< -< -< -< -< -< -< -< -< -< -< -< -< -< -< -< -< -< -< -< -< -< -< -< -< -< -< -< -< -< -< -< -< -< -< -< -< -< -< -< -< -< -< -< -< -< -< -< -< -< -< -< -< -< -< -< -< -< -< -< -< -< -< -< -< -< -< -< -< -< -< -< -< -< -< -< -< -< -< -< -< -< -< -< -< -< -< -< -< -< -< -< -< -< -< -< -< -< -< -< -< -< -< -< -< -< -< -< -< -< -< -< -< -< -< -< -< -< -< -< -< -< -< -< -< -< -< -< -< -< -< -< -< -< -< -< -< -< -< -< -< -< -< -< -< -< -< -< -< -< -< -< -< -< -< -< -< -< -< -< -< -< -< -< -< -< -< -< -< -< -< -< -< -< -< -< -< -< -< -< < < < 2< 2< 2< 2< 2< 2< 2< 2< 2< 2< 2< 2< 2< 2< 2< 2< 2< 2< 2< 2< 2< 2< 2< 2< 2< 2< 2< 2< 2< 2< 2< 2< 2< 2< 2< 2< 2< 2< 2< 2< 2< 2< 2< 2< 2< 2< 2< 2< 2< 2< 2< 2< 2< 2< 2< 2< 2< 2< 2< 2< 2< 2< 2< 2< 2< 2< 2< 2< 2< 2< 2< 2< 2< 2< 2< 2< 2< 2< 2< 2< 2< 2< 2< 2< 2< 2< 2< 2< 2< 2< 2< 2< 2< 2< 2< 2< 2< 2< 2< 2< 2< 2< 2< 2< 2< 2< 2< 2< 2< 2< 2< 2< 2< 2< 2< 2< 2< 2< 2< 2< 2< 2< 2< 2< 2< 2< 2< 2< 2< 2< 2< 2< 2< 2< 2< 2< 2< 2< 2< 2< 2< 2< 2< 2< 2< 2< 2< 2< 2< 2< 2< 2< 2< 2< 2< 2< 2< 2< 2< 2< 2< 2< 2< 2< 2< 2< 2< 2< 2< 2< 2< 2< 2< 2< 2< 2< 2< 2< 2< 2< 2< < < < < <4 <4 <4 <4 <4 <4 <4 <4 <4 <4 <4 <4 <4 <4 <4 <4 <4 <4 <4 <4 <4 <4 <4 <4 <4 <4 <4 <4 <4 <4 <4 <4 <4 <4 <4 <4 <4 <4 <4 <4 <4 <4 <4 <4 <4 <4 <4 <4 <4 <4 <4 <4 <4 <4 <4 <4 <4 <4 <4 <4 <4 <4 <4 <4 <4 <4 <4 <4 <4 <4 <4 <4 <4 <4 <4 <4 <4 <4 <4 <4 <4 <4 <4 <4 <4 <4 <4 <4 <4 <4 <4 <4 <4 <4 <4 <4 <4 <4 <4 <4 <4 <4 <4 <4 <4 <4 <4 <4 <4 <4 <4 <4 <4 <4 <4 <4 <4 <4 <4 <4 <4 <4 <4 <4 <4 <4 <4 <4 <4 <4 <4 4 4 4 4 4 4 4 4 4 4 4 4 4 4 4 4 4 4 4 4 4 4 4 4 4 4 4 4 4 4 4 4 4 4 4 4 4 4 4 4 4 4 4 4 4 4 4 4 4 4     E6 E6 E6 E6 E6 E6 E6 E6 E6 E6 E6 E6 E6 E6 E6 E6 E6 E6 E6 E6 E6 E6 E6 E6 E6 E6 E6 E6 E6 E6 E6 E6 E6 E6 E6 E6 E6 E6 E6 E6 E6 E6 E6 E6 E6 E6 E6 E6 E6 E6 E6 E6 E6 E6 E6 E6 E6 E6 E6 E6 E6 E6 E6 E6 E6 E6 E6 E6 E6 E6 E6 E6 E6 E6 E6 E6 E6 E6 E6 E6 E6 E6 E6 E6 E6 E6 E6 E6 E6 E6 E6 E6 E6 E6 E6 E6 E6 E6 E6 E6 E6 E6 E6 E6 E6 E6 E6 E6 E6 E6 E6 E6 E6 E6 E6 E6 E6 E6 E6 E6 E6 E6 E6 E6 E6 E6 E6 E6 E6 E6 E6 E6 E6 E6 E6 E6 E6 E6 E6 E6 E6 E6 E6 E6 E6 E6 E6 E6 E6 E6 E6 E6 E6 E6 E6 E6 E6 E6 E6 E6 E6 E6 E6 E6 E6 E6 E6 E6 E6 E6 E6 E6 E6 E6 E6 E6 E6 E6 E6 E6 E6    F7 F7 F7 F7 F7 F7 F7 F7 F7 F7 F7 F7 F7 F7 F7 F7 F7 F7 F7 F7 F7 F7 F7 F7 F7 F7 F7 F7 F7 F7 F7 F7 F7 F7 F7 F7 F7 F7 F7 F7 F7 F7 F7 F7 F7 F7 F7 F7 F7 F7 F7 F7 F7 F7 F7 F7 F7 F7 F7 F7 F7 F7 F7 F7 F7 F7 F7 F7 F7 F7 F7 F7 F7 F7 F7 F7 F7 F7 F7 F7 F7 F7 F7 F7 F7 F7 F7 F7 F7 F7 F7 F7 F7 F7 F7 F7 F7 F7 F7 F7 F7 F7 F7 F7 F7 F7 F7 F7 F7 F7 F7 F7 F7 F7 F7 F7 F7 F7 F7 F7 F7 F7 F7 F7 F7 F7 F7 F7 F7 F7 F7 F7 F7 F7 F7 F7 F7 F7 F7 F7 F7 F7 F7 F7 F7 F7 F7 F7 F7 F7 F7 F7 F7 F7 F7 F7 F7 F7 F7 F7 F7 F7 F7 F7 F7 F7 F7 F7 F7 F7 F7 F7 F7 F7 F7 F7 F7 F7 F7 F7 F7     H9 H9 H9 H9 H9 H9 H9 H9 H9 H9 H9 H9 H9 H9 H9 H9 H9 H9 H9 H9 H9 H9 H9 H9 H9 H9 H9 H9 H9 H9 H9 H9 H9 H9 H9 H9 H9 H9 H9 H9 H9 H9 H9 H9 H9 H9 H9 H9 H9 H9 H9 H9 H9 H9 H9 H9 H9 H9 H9 H9 H9 H9 H9 H9 H9 H9 H9 H9 H9 H9 H9 H9 H9 H9 H9 H9 H9 H9 H9 H9 H9 H9 H9 H9 H9 H9 H9 H9 H9 H9 H9 H9 H9 H9 H9 H9 H9 H9 H9 H9 H9 H9 H9 H9 H9 H9 H9 H9 H9 H9 H9 H9 H9 H9 H9 H9 H9 H9 H9 H9 H9 H9 H9 H9 H9 H9 H9 H9 H9 H9 H9 H9 H9 H9 H9 H9 H9 H9 H9 H9 H9 H9 H9 H9 H9 H9 H9 H9 H9 H9 H9 H9 H9 H9 H9 H9 H9 H9 H9 H9 H9 H9 H9 H9 H9 H9 H9 H9 H9 H9 H9 H9 H9 H9 H9 H9 H9 H9 H9 H9 H9     B2 B2 B2 B2 B2 B2 B2 B2 B2 B2 B2 B2 B2 B2 B2 B2 B2 B2 B2 B2 B2 B2 B2 B2 B2 B2 B2 B2 B2 B2 B2 B2 B2 B2 B2 B2 B2 B2 B2 B2 B2 B2 B2 B2 B2 B2 B2 B2 B2 B2 B2 B2 B2 B2 B2 B2 B2 B2 B2 B2 B2 B2 B2 B2 B2 B2 B2 B2 B2 B2 B2 B2 B2 B2 B2 B2 B2 B2 B2 B2 B2 B2 B2 B2 B2 B2 B2 B2 B2 B2 B2 B2 B2 B2 B2 B2 B2 B2 B2 B2 B2 B2 B2 B2 B2 B2 B2 B2 B2 B2 B2 B2 B2 B2 B2 B2 B2 B2 B2 B2 B2 B2 B2 B2 B2 B2 B2 B2 B2 B2 B2 B2 B2 B2 B2 B2 B2 B2 B2 B2 B2 B2 B2 B2 B2 B2 B2 B2 B2 B2 B2 B2 B2 B2 B2 B2 B2 B2 B2 B2 B2 B2 B2 B2 B2 B2 B2 B2 B2 B2 B2 B2 B2 B2 B2 B2 B2 B2 B2 B2 B2 2 2 2 J2 J2 J2 J2 J2 J2 J2 J2 J2 J2 J2 J2 J2 J2 J2 J2 J2 J2 J2 J2 J2 J2 J2 J2 J2 J2 J2 J2 J2 J2 J2 J2 J2 J2 J2 J2 J2 J2 J2 J2 J2 J2 J2 J2 J2 J2 J2 J2 J2 J2 J2 J2 J2 J2 J2 J2 J2 J2 J2 J2 J2 J2 J2 J2 J2 J2 J2 J2 J2 J2 J2 J2 J2 J2 J2 J2 J2 J2 J2 J2 J2 J2 J2 J2 J2 J2 J2 J2 J2 J2 J2 J2 J2 J2 J2 J2 J2 J2 J2 J2 J2 J2 J2 J2 J2 J2 J2 J2 J2 J2 J2 J2 J2 J2 J2 J2 J2 J2 J2 J2 J2 J2 J2 J2 J2 J2 J2 J2 J2 J2 J2 J2 J2 J2 J2 J2 J2 J2 J2 J2 J2 J2 J2 J2 J2 J2 J2 J2 J2 J2 J2 J2 J2 J2 J2 J2 J2 J2 J2 J2 J2 J2 J2 J2 J2 J2 J2 J2 J2 J2 J2 J2 J2 J2 J2 J2 J2 J2 J2 J2 J2 2 2 2 2 E2 E2 E2 E2 E2 E2 E2 E2 E2 E2 E2 E2 E2 E2 E2 E2 E2 E2 E2 E2 E2 E2 E2 E2 E2 E2 E2 E2 E2 E2 E2 E2 E2 E2 E2 E2 E2 E2 E2 E2 E2 E2 E2 E2 E2 E2 E2 E2 E2 E2 E2 E2 E2 E2 E2 E2 E2 E2 E2 E2 E2 E2 E2 E2 E2 E2 E2 E2 E2 E2 E2 E2 E2 E2 E2 E2 E2 E2 E2 E2 E2 E2 E2 E2 E2 E2 E2 E2 E2 E2 E2 E2 E2 E2 E2 E2 E2 E2 E2 E2 E2 E2 E2 E2 E2 E2 E2 E2 E2 E2 E2 E2 E2 E2 E2 E2 E2 E2 E2 E2 E2 E2 E2 E2 E2 E2 E2 E2 E2 E2 E2 E2 E2 E2 E2 E2 E2 E2 E2 E2 E2 E2 E2 E2 E2 E2 E2 E2 E2 E2 E2 E2 E2 E2 E2 E2 E2 E2 E2 E2 E2 E2 E2 E2 E2 E2 E2 E2 E2 E2 E2 E2 E2 E2 E2 E2 E2 E2 E2 E2 E2 2 2 2 2 B2 B2 B2 B2 B2 B2 B2 B2 B2 B2 B2 B2 B2 B2 B2 B2 B2 B2 B2 B2 B2 B2 B2 B2 B2 B2 B2 B2 B2 B2 B2 B2 B2 B2 B2 B2 B2 B2 B2 B2 B2 B2 B2 B2 B2 B2 B2 B2 B2 B2 B2 B2 B2 B2 B2 B2 B2 B2 B2 B2 B2 B2 B2 B2 B2 B2 B2 B2 B2 B2 B2 B2 B2 B2 B2 B2 B2 B2 B2 B2 B2 B2 B2 B2 B2 B2 B2 B2 B2 B2 B2 B2 B2 B2 B2 B2 B2 B2 B2 B2 B2 B2 B2 B2 B2 B2 B2 B2 B2 B2 B2 B2 B2 B2 B2 B2 B2 B2 B2 B2 B2 B2 B2 B2 B2 B2 B2 B2 B2 B2 B2 B2 B2 B2 B2 B2 B2 B2 B2 B2 B2 B2 B2 B2 B2 B2 B2 B2 B2 B2 B2 B2 B2 B2 B2 B2 B2 B2 B2 B2 B2 B2 B2 B2 B2 B2 B2 B2 B2 B2 B2 B2 B2 B2 B2 B2 B2 B2 B2 B2 B2 2 2 2 >2 >2 >2 >2 >2 >2 >2 >2 >2 >2 >2 >2 >2 >2 >2 >2 >2 >2 >2 >2 >2 >2 >2 >2 >2 >2 >2 >2 >2 >2 >2 >2 >2 >2 >2 >2 >2 >2 >2 >2 >2 >2 >2 >2 >2 >2 >2 >2 >2 >2 >2 >2 >2 >2 >2 >2 >2 >2 >2 >2 >2 >2 >2 >2 >2 >2 >2 >2 >2 >2 >2 >2 >2 >2 >2 >2 >2 >2 >2 >2 >2 >2 >2 >2 >2 >2 >2 >2 >2 >2 >2 >2 >2 >2 >2 >2 >2 >2 >2 >2 >2 >2 >2 >2 >2 >2 >2 >2 >2 >2 >2 >2 >2 >2 >2 >2 >2 >2 >2 >2 >2 >2 >2 >2 >2 >2 >2 >2 >2 >2 >2 >2 >2 >2 >2 >2 >2 >2 >2 >2 >2 >2 >2 >2 >2 >2 >2 >2 >2 >2 >2 >2 >2 >2 >2 >2 >2 >2 >2 >2 >2 >2 >2 >2 >2 >2 >2 >2 >2 >2 >2 >2 >2 >2 >2 >2 >2 >2 >2 >2 >2 2    =7 =7 =7 =7 =7 =7 =7 =7 =7 =7 =7 =7 =7 =7 =7 =7 =7 =7 =7 =7 =7 =7 =7 =7 =7 =7 =7 =7 =7 =7 =7 =7 =7 =7 =7 =7 =7 =7 =7 =7 =7 =7 =7 =7 =7 =7 =7 =7 =7 =7 =7 =7 =7 =7 =7 =7 =7 =7 =7 =7 =7 =7 =7 =7 =7 =7 =7 =7 =7 =7 =7 =7 =7 =7 =7 =7 =7 =7 =7 =7 =7 =7 =7 =7 =7 =7 =7 =7 =7 =7 =7 =7 =7 =7 =7 =7 =7 =7 =7 =7 =7 =7 =7 =7 =7 =7 =7 =7 =7 =7 =7 =7 =7 =7 =7 =7 =7 =7 =7 =7 =7 =7 =7 =7 =7 =7 =7 =7 =7 =7 =7 =7 =7 =7 =7 =7 =7 =7 =7 =7 =7 =7 =7 =7 =7 =7 =7 =7 =7 =7 =7 =7 =7 =7 =7 =7 =7 =7 =7 =7 =7 =7 =7 =7 =7 =7 =7 =7 =7 =7 =7 =7 =7 =7 =7 =7 =7 =7 =7 =7 =7     >6 >6 >6 >6 >6 >6 >6 >6 >6 >6 >6 >6 >6 >6 >6 >6 >6 >6 >6 >6 >6 >6 >6 >6 >6 >6 >6 >6 >6 >6 >6 >6 >6 >6 >6 >6 >6 >6 >6 >6 >6 >6 >6 >6 >6 >6 >6 >6 >6 >6 >6 >6 >6 >6 >6 >6 >6 >6 >6 >6 >6 >6 >6 >6 >6 >6 >6 >6 >6 >6 >6 >6 >6 >6 >6 >6 >6 >6 >6 >6 >6 >6 >6 >6 >6 >6 >6 >6 >6 >6 >6 >6 >6 >6 >6 >6 >6 >6 >6 >6 >6 >6 >6 >6 >6 >6 >6 >6 >6 >6 >6 >6 >6 >6 >6 >6 >6 >6 >6 >6 >6 >6 >6 >6 >6 >6 >6 >6 >6 >6 >6 >6 >6 >6 >6 >6 >6 >6 >6 >6 >6 >6 >6 >6 >6 >6 >6 >6 >6 >6 >6 >6 >6 >6 >6 >6 >6 >6 >6 >6 >6 >6 >6 >6 >6 >6 >6 >6 >6 >6 >6 >6 >6 >6 >6 >6 >6 >6 >6 >6 >6    @7 @7 @7 @7 @7 @7 @7 @7 @7 @7 @7 @7 @7 @7 @7 @7 @7 @7 @7 @7 @7 @7 @7 @7 @7 @7 @7 @7 @7 @7 @7 @7 @7 @7 @7 @7 @7 @7 @7 @7 @7 @7 @7 @7 @7 @7 @7 @7 @7 @7 @7 @7 @7 @7 @7 @7 @7 @7 @7 @7 @7 @7 @7 @7 @7 @7 @7 @7 @7 @7 @7 @7 @7 @7 @7 @7 @7 @7 @7 @7 @7 @7 @7 @7 @7 @7 @7 @7 @7 @7 @7 @7 @7 @7 @7 @7 @7 @7 @7 @7 @7 @7 @7 @7 @7 @7 @7 @7 @7 @7 @7 @7 @7 @7 @7 @7 @7 @7 @7 @7 @7 @7 @7 @7 @7 @7 @7 @7 @7 @7 @7 @7 @7 @7 @7 @7 @7 @7 @7 @7 @7 @7 @7 @7 @7 @7 @7 @7 @7 @7 @7 @7 @7 @7 @7 @7 @7 @7 @7 @7 @7 @7 @7 @7 @7 @7 @7 @7 @7 @7 @7 @7 @7 @7 @7 @7 @7 @7 @7 @7 @7     B0 B0 B0 B0 B0 B0 B0 B0 B0 B0 B0 B0 B0 B0 B0 B0 B0 B0 B0 B0 B0 B0 B0 B0 B0 B0 B0 B0 B0 B0 B0 B0 B0 B0 B0 B0 B0 B0 B0 B0 B0 B0 B0 B0 B0 B0 B0 B0 B0 B0 B0 B0 B0 B0 B0 B0 B0 B0 B0 B0 B0 B0 B0 B0 B0 B0 B0 B0 B0 B0 B0 B0 B0 B0 B0 B0 B0 B0 B0 B0 B0 B0 B0 B0 B0 B0 B0 B0 B0 B0 B0 B0 B0 B0 B0 B0 B0 B0 B0 B0 B0 B0 B0 B0 B0 B0 B0 B0 B0 B0 B0 B0 B0 B0 B0 B0 B0 B0 B0 B0 B0 B0 B0 B0 B0 B0 B0 B0 B0 B0 B0 B0 B0 B0 B0 B0 B0 B0 B0 B0 B0 B0 B0 B0 B0 B0 B0 B0 B0 B0 B0 B0 B0 B0 B0 B0 B0 B0 B0 B0 B0 B0 B0 B0 B0 B0 B0 B0 B0 B0 B0 B0 B0 B0 B0 B0 B0 B0 B0 B0 B0 0 0 0 0 @0 @0 @0 @0 @0 @0 @0 @0 @0 @0 @0 @0 @0 @0 @0 @0 @0 @0 @0 @0 @0 @0 @0 @0 @0 @0 @0 @0 @0 @0 @0 @0 @0 @0 @0 @0 @0 @0 @0 @0 @0 @0 @0 @0 @0 @0 @0 @0 @0 @0 @0 @0 @0 @0 @0 @0 @0 @0 @0 @0 @0 @0 @0 @0 @0 @0 @0 @0 @0 @0 @0 @0 @0 @0 @0 @0 @0 @0 @0 @0 @0 @0 @0 @0 @0 @0 @0 @0 @0 @0 @0 @0 @0 @0 @0 @0 @0 @0 @0 @0 @0 @0 @0 @0 @0 @0 @0 @0 @0 @0 @0 @0 @0 @0 @0 @0 @0 @0 @0 @0 @0 @0 @0 @0 @0 @0 @0 @0 @0 @0 @0 @0 @0 @0 @0 @0 @0 @0 @0 @0 @0 @0 @0 @0 @0 @0 @0 @0 @0 @0 @0 @0 @0 @0 @0 @0 @0 @0 @0 @0 @0 @0 @0 @0 @0 @0 @0 @0 @0 @0 @0 @0 @0 @0 @0 @0 @0 @0 @0 @0 @0     >.7 >.7 >.7 >.7 >.7 >.7 >.7 >.7 >.7 >.7 >.7 >.7 >.7 >.7 >.7 >.7 >.7 >.7 >.7 >.7 >.7 >.7 >.7 >.7 >.7 >.7 >.7 >.7 >.7 >.7 >.7 >.7 >.7 >.7 >.7 >.7 >.7 >.7 >.7 >.7 >.7 >.7 >.7 >.7 >.7 >.7 >.7 >.7 >.7 >.7 >.7 >.7 >.7 >.7 >.7 >.7 >.7 >.7 >.7 >.7 >.7 >.7 >.7 >.7 >.7 >.7 >.7 >.7 >.7 >.7 >.7 >.7 >.7 >.7 >.7 >.7 >.7 >.7 >.7 >.7 >.7 >.7 >.7 >.7 >.7 >.7 >.7 >.7 >.7 >.7 >.7 >.7 >.7 >.7 >.7 >.7 >.7 >.7 >.7 >.7 >.7 >.7 >.7 >.7 >.7 >.7 >.7 >.7 >.7 >.7 >.7 >.7 >.7 >.7 >.7 >.7 >.7 >.7 >.7 >.7 >.7 >.7 >.7 >.7 >.7 >.7 >.7 >.7 >.7 >.7 >.7 >.7 >.7 >.7 >.7 >.7 >.7 >.7 >.7 >.7 >.7 >.7 >.7 >.7 >.7 >.7 >.7 >.7 >.7 >.7 >.7 >.7 >.7 >.7 >.7 >.7 >.7 >.7 >.7 >.7 >.7 >.7 >.7 >.7 >.7 >.7 >.7 >.7 >.7 >.7 >.7 >.7 >.7 >.7 >.7 >.7 >.7 >.7 >.7 >.7 >.7 .7 .7 .7 C.7 C.7 C.7 C.7 C.7 C.7 C.7 C.7 C.7 C.7 C.7 C.7 C.7 C.7 C.7 C.7 C.7 C.7 C.7 C.7 C.7 C.7 C.7 C.7 C.7 C.7 C.7 C.7 C.7 C.7 C.7 C.7 C.7 C.7 C.7 C.7 C.7 C.7 C.7 C.7 C.7 C.7 C.7 C.7 C.7 C.7 C.7 C.7 C.7 C.7 C.7 C.7 C.7 C.7 C.7 C.7 C.7 C.7 C.7 C.7 C.7 C.7 C.7 C.7 C.7 C.7 C.7 C.7 C.7 C.7 C.7 C.7 C.7 C.7 C.7 C.7 C.7 C.7 C.7 C.7 C.7 C.7 C.7 C.7 C.7 C.7 C.7 C.7 C.7 C.7 C.7 C.7 C.7 C.7 C.7 C.7 C.7 C.7 C.7 C.7 C.7 C.7 C.7 C.7 C.7 C.7 C.7 C.7 C.7 C.7 C.7 C.7 C.7 C.7 C.7 C.7 C.7 C.7 C.7 C.7 C.7 C.7 C.7 C.7 C.7 C.7 C.7 C.7 C.7 C.7 C.7 C.7 C.7 C.7 C.7 C.7 C.7 C.7 C.7 C.7 C.7 C.7 C.7 C.7 C.7 C.7 C.7 C.7 C.7 C.7 C.7 C.7 C.7 C.7 C.7 C.7 C.7 C.7 C.7 C.7 C.7 C.7 C.7 C.7 C.7 C.7 C.7 C.7 C.7 C.7 C.7 C.7 C.7 C.7 C.7 C.7 C.7 C.7 C.7 C.7 C.7 .7 7 7 7 E70 E70 E70 E70 E70 E70 E70 E70 E70 E70 E70 E70 E70 E70 E70 E70 E70 E70 E70 E70 E70 E70 E70 E70 E70 E70 E70 E70 E70 E70 E70 E70 E70 E70 E70 E70 E70 E70 E70 E70 E70 E70 E70 E70 E70 E70 E70 E70 E70 E70 E70 E70 E70 E70 E70 E70 E70 E70 E70 E70 E70 E70 E70 E70 E70 E70 E70 E70 E70 E70 E70 E70 E70 E70 E70 E70 E70 E70 E70 E70 E70 E70 E70 E70 E70 E70 E70 E70 E70 E70 E70 E70 E70 E70 E70 E70 E70 E70 E70 E70 E70 E70 E70 E70 E70 E70 E70 E70 E70 E70 E70 E70 E70 E70 E70 E70 E70 E70 E70 E70 E70 E70 E70 E70 E70 E70 E70 E70 E70 E70 E70 E70 E70 E70 E70 E70 E70 E70 E70 E70 E70 E70 E70 E70 E70 E70 E70 E70 E70 E70 E70 E70 E70 E70 E70 E70 E70 E70 E70 E70 E70 E70 E70 E70 E70 E70 E70 E70 E70 E70 E70 E70 E70 E70 E70 E70 E70 E70 E70 E70 E70 70 70 70 70 7F0 7F0 7F0 7F0 7F0 7F0 7F0 7F0 7F0 7F0 7F0 7F0 7F0 7F0 7F0 7F0 7F0 7F0 7F0 7F0 7F0 7F0 7F0 7F0 7F0 7F0 7F0 7F0 7F0 7F0 7F0 7F0 7F0 7F0 7F0 7F0 7F0 7F0 7F0 7F0 7F0 7F0 7F0 7F0 7F0 7F0 7F0 7F0 7F0 7F0 7F0 7F0 7F0 7F0 7F0 7F0 7F0 7F0 7F0 7F0 7F0 7F0 7F0 7F0 7F0 7F0 7F0 7F0 7F0 7F0 7F0 7F0 7F0 7F0 7F0 7F0 7F0 7F0 7F0 7F0 7F0 7F0 7F0 7F0 7F0 7F0 7F0 7F0 7F0 7F0 7F0 7F0 7F0 7F0 7F0 7F0 7F0 7F0 7F0 7F0 7F0 7F0 7F0 7F0 7F0 7F0 7F0 7F0 7F0 7F0 7F0 7F0 7F0 7F0 7F0 7F0 7F0 7F0 7F0 7F0 7F0 7F0 7F0 7F0 7F0 7F0 7F0 7F0 7F0 7F0 7F0 7F0 7F0 7F0 7F0 7F0 7F0 7F0 7F0 7F0 7F0 7F0 7F0 7F0 7F0 7F0 7F0 7F0 7F0 7F0 7F0 7F0 7F0 7F0 7F0 7F0 7F0 7F0 7F0 7F0 7F0 7F0 7F0 7F0 7F0 7F0 7F0 7F0 7F0 7F0 7F0 7F0 7F0 7F0 7F0 7F0 7F0 7F0 F0 F0 F0    H26 H26 H26 H26 H26 H26 H26 H26 H26 H26 H26 H26 H26 H26 H26 H26 H26 H26 H26 H26 H26 H26 H26 H26 H26 H26 H26 H26 H26 H26 H26 H26 H26 H26 H26 H26 H26 H26 H26 H26 H26 H26 H26 H26 H26 H26 H26 H26 H26 H26 H26 H26 H26 H26 H26 H26 H26 H26 H26 H26 H26 H26 H26 H26 H26 H26 H26 H26 H26 H26 H26 H26 H26 H26 H26 H26 H26 H26 H26 H26 H26 H26 H26 H26 H26 H26 H26 H26 H26 H26 H26 H26 H26 H26 H26 H26 H26 H26 H26 H26 H26 H26 H26 H26 H26 H26 H26 H26 H26 H26 H26 H26 H26 H26 H26 H26 H26 H26 H26 H26 H26 H26 H26 H26 H26 H26 H26 H26 H26 H26 H26 H26 H26 H26 H26 H26 H26 H26 H26 H26 H26 H26 H26 H26 H26 H26 H26 H26 H26 H26 H26 H26 H26 H26 H26 H26 H26 H26 H26 H26 H26 H26 H26 H26 H26 H26 H26 H26 H26 H26 H26 H26 H26 H26 H26 H26 H26 H26 H26 H26 H26 26 26 26 26 J26 J26 J26 J26 J26 J26 J26 J26 J26 J26 J26 J26 J26 J26 J26 J26 J26 J26 J26 J26 J26 J26 J26 J26 J26 J26 J26 J26 J26 J26 J26 J26 J26 J26 J26 J26 J26 J26 J26 J26 J26 J26 J26 J26 J26 J26 J26 J26 J26 J26 J26 J26 J26 J26 J26 J26 J26 J26 J26 J26 J26 J26 J26 J26 J26 J26 J26 J26 J26 J26 J26 J26 J26 J26 J26 J26 J26 J26 J26 J26 J26 J26 J26 J26 J26 J26 J26 J26 J26 J26 J26 J26 J26 J26 J26 J26 J26 J26 J26 J26 J26 J26 J26 J26 J26 J26 J26 J26 J26 J26 J26 J26 J26 J26 J26 J26 J26 J26 J26 J26 J26 J26 J26 J26 J26 J26 J26 J26 J26 J26 J26 J26 J26 J26 J26 J26 J26 J26 J26 J26 J26 J26 J26 J26 J26 J26 J26 J26 J26 J26 J26 J26 J26 J26 J26 J26 J26 J26 J26 J26 J26 J26 J26 J26 J26 J26 J26 J26 J26 J26 J26 J26 J26 J26 J26 J26 J26 J26 J26 J26 J26     F7 F7 F7 F7 F7 F7 F7 F7 F7 F7 F7 F7 F7 F7 F7 F7 F7 F7 F7 F7 F7 F7 F7 F7 F7 F7 F7 F7 F7 F7 F7 F7 F7 F7 F7 F7 F7 F7 F7 F7 F7 F7 F7 F7 F7 F7 F7 F7 F7 F7 F7 F7 F7 F7 F7 F7 F7 F7 F7 F7 F7 F7 F7 F7 F7 F7 F7 F7 F7 F7 F7 F7 F7 F7 F7 F7 F7 F7 F7 F7 F7 F7 F7 F7 F7 F7 F7 F7 F7 F7 F7 F7 F7 F7 F7 F7 F7 F7 F7 F7 F7 F7 F7 F7 F7 F7 F7 F7 F7 F7 F7 F7 F7 F7 F7 F7 F7 F7 F7 F7 F7 F7 F7 F7 F7 F7 F7 F7 F7 F7 F7 F7 F7 F7 F7 F7 F7 F7 F7 F7 F7 F7 F7 F7 F7 F7 F7 F7 F7 F7 F7 F7 F7 F7 F7 F7 F7 F7 F7 F7 F7 F7 F7 F7 F7 F7 F7 F7 F7 F7 F7 F7 F7 F7 F7 F7 F7 F7 F7 F7 F7 7 7 7 E+7 E+7 E+7 E+7 E+7 E+7 E+7 E+7 E+7 E+7 E+7 E+7 E+7 E+7 E+7 E+7 E+7 E+7 E+7 E+7 E+7 E+7 E+7 E+7 E+7 E+7 E+7 E+7 E+7 E+7 E+7 E+7 E+7 E+7 E+7 E+7 E+7 E+7 E+7 E+7 E+7 E+7 E+7 E+7 E+7 E+7 E+7 E+7 E+7 E+7 E+7 E+7 E+7 E+7 E+7 E+7 E+7 E+7 E+7 E+7 E+7 E+7 E+7 E+7 E+7 E+7 E+7 E+7 E+7 E+7 E+7 E+7 E+7 E+7 E+7 E+7 E+7 E+7 E+7 E+7 E+7 E+7 E+7 E+7 E+7 E+7 E+7 E+7 E+7 E+7 E+7 E+7 E+7 E+7 E+7 E+7 E+7 E+7 E+7 E+7 E+7 E+7 E+7 E+7 E+7 E+7 E+7 E+7 E+7 E+7 E+7 E+7 E+7 E+7 E+7 E+7 E+7 E+7 E+7 E+7 E+7 E+7 E+7 E+7 E+7 E+7 E+7 E+7 E+7 E+7 E+7 E+7 E+7 E+7 E+7 E+7 E+7 E+7 E+7 E+7 E+7 E+7 E+7 E+7 E+7 E+7 E+7 E+7 E+7 E+7 E+7 E+7 E+7 E+7 E+7 E+7 E+7 E+7 E+7 E+7 E+7 E+7 E+7 E+7 E+7 E+7 E+7 E+7 E+7 E+7 E+7 E+7 E+7 E+7 E+7 E+7 E+7 E+7 E+7 E+7 E+7 7    C. C. C. C. C. C. C. C. C. C. C. C. C. C. C. C. C. C. C. C. C. C. C. C. C. C. C. C. C. C. C. C. C. C. C. C. C. C. C. C. C. C. C. C. C. C. C. C. C. C. C. C. C. C. C. C. C. C. C. C. C. C. C. C. C. C. C. C. C. C. C. C. C. C. C. C. C. C. C. C. C. C. C. C. C. C. C. C. C. C. C. C. C. C. C. C. C. C. C. C. C. C. C. C. C. C. C. C. C. C. C. C. C. C. C. C. C. C. C. C. C. C. C. C. C. C. C. C. C. C. C. C. C. C. C. C. C. C. C. C. C. C. C. C. C. C. C. C. C. C. C. C. C. C. C. C. C. C. C. C. C. C. C. C. C. C. C. C. C. C. C. C. C. C. C. C. C. C. C. C. C.     E2 E2 E2 E2 E2 E2 E2 E2 E2 E2 E2 E2 E2 E2 E2 E2 E2 E2 E2 E2 E2 E2 E2 E2 E2 E2 E2 E2 E2 E2 E2 E2 E2 E2 E2 E2 E2 E2 E2 E2 E2 E2 E2 E2 E2 E2 E2 E2 E2 E2 E2 E2 E2 E2 E2 E2 E2 E2 E2 E2 E2 E2 E2 E2 E2 E2 E2 E2 E2 E2 E2 E2 E2 E2 E2 E2 E2 E2 E2 E2 E2 E2 E2 E2 E2 E2 E2 E2 E2 E2 E2 E2 E2 E2 E2 E2 E2 E2 E2 E2 E2 E2 E2 E2 E2 E2 E2 E2 E2 E2 E2 E2 E2 E2 E2 E2 E2 E2 E2 E2 E2 E2 E2 E2 E2 E2 E2 E2 E2 E2 E2 E2 E2 E2 E2 E2 E2 E2 E2 E2 E2 E2 E2 E2 E2 E2 E2 E2 E2 E2 E2 E2 E2 E2 E2 E2 E2 E2 E2 E2 E2 E2 E2 E2 E2 E2 E2 E2 E2 E2 E2 E2 E2 E2 E2 E2 E2 E2 E2 E2 E2    F7 F7 F7 F7 F7 F7 F7 F7 F7 F7 F7 F7 F7 F7 F7 F7 F7 F7 F7 F7 F7 F7 F7 F7 F7 F7 F7 F7 F7 F7 F7 F7 F7 F7 F7 F7 F7 F7 F7 F7 F7 F7 F7 F7 F7 F7 F7 F7 F7 F7 F7 F7 F7 F7 F7 F7 F7 F7 F7 F7 F7 F7 F7 F7 F7 F7 F7 F7 F7 F7 F7 F7 F7 F7 F7 F7 F7 F7 F7 F7 F7 F7 F7 F7 F7 F7 F7 F7 F7 F7 F7 F7 F7 F7 F7 F7 F7 F7 F7 F7 F7 F7 F7 F7 F7 F7 F7 F7 F7 F7 F7 F7 F7 F7 F7 F7 F7 F7 F7 F7 F7 F7 F7 F7 F7 F7 F7 F7 F7 F7 F7 F7 F7 F7 F7 F7 F7 F7 F7 F7 F7 F7 F7 F7 F7 F7 F7 F7 F7 F7 F7 F7 F7 F7 F7 F7 F7 F7 F7 F7 F7 F7 F7 F7 F7 F7 F7 F7 F7 F7 F7 F7 F7 F7 F7 F7 F7 F7 F7 F7 F7     H7 H7 H7 H7 H7 H7 H7 H7 H7 H7 H7 H7 H7 H7 H7 H7 H7 H7 H7 H7 H7 H7 H7 H7 H7 H7 H7 H7 H7 H7 H7 H7 H7 H7 H7 H7 H7 H7 H7 H7 H7 H7 H7 H7 H7 H7 H7 H7 H7 H7 H7 H7 H7 H7 H7 H7 H7 H7 H7 H7 H7 H7 H7 H7 H7 H7 H7 H7 H7 H7 H7 H7 H7 H7 H7 H7 H7 H7 H7 H7 H7 H7 H7 H7 H7 H7 H7 H7 H7 H7 H7 H7 H7 H7 H7 H7 H7 H7 H7 H7 H7 H7 H7 H7 H7 H7 H7 H7 H7 H7 H7 H7 H7 H7 H7 H7 H7 H7 H7 H7 H7 H7 H7 H7 H7 H7 H7 H7 H7 H7 H7 H7 H7 H7 H7 H7 H7 H7 H7 H7 H7 H7 H7 H7 H7 H7 H7 H7 H7 H7 H7 H7 H7 H7 H7 H7 H7 H7 H7 H7 H7 H7 H7 H7 H7 H7 H7 H7 H7 H7 H7 H7 H7 H7 H7 H7 H7 H7 H7 H7 H7     J5 J5 J5 J5 J5 J5 J5 J5 J5 J5 J5 J5 J5 J5 J5 J5 J5 J5 J5 J5 J5 J5 J5 J5 J5 J5 J5 J5 J5 J5 J5 J5 J5 J5 J5 J5 J5 J5 J5 J5 J5 J5 J5 J5 J5 J5 J5 J5 J5 J5 J5 J5 J5 J5 J5 J5 J5 J5 J5 J5 J5 J5 J5 J5 J5 J5 J5 J5 J5 J5 J5 J5 J5 J5 J5 J5 J5 J5 J5 J5 J5 J5 J5 J5 J5 J5 J5 J5 J5 J5 J5 J5 J5 J5 J5 J5 J5 J5 J5 J5 J5 J5 J5 J5 J5 J5 J5 J5 J5 J5 J5 J5 J5 J5 J5 J5 J5 J5 J5 J5 J5 J5 J5 J5 J5 J5 J5 J5 J5 J5 J5 J5 J5 J5 J5 J5 J5 J5 J5 J5 J5 J5 J5 J5 J5 J5 J5 J5 J5 J5 J5 J5 J5 J5 J5 J5 J5 J5 J5 J5 J5 J5 J5 J5 J5 J5 J5 J5 J5 J5 J5 J5 J5 J5 J5 J5 J5 J5 J5 J5 J5    K3 K3 K3 K3 K3 K3 K3 K3 K3 K3 K3 K3 K3 K3 K3 K3 K3 K3 K3 K3 K3 K3 K3 K3 K3 K3 K3 K3 K3 K3 K3 K3 K3 K3 K3 K3 K3 K3 K3 K3 K3 K3 K3 K3 K3 K3 K3 K3 K3 K3 K3 K3 K3 K3 K3 K3 K3 K3 K3 K3 K3 K3 K3 K3 K3 K3 K3 K3 K3 K3 K3 K3 K3 K3 K3 K3 K3 K3 K3 K3 K3 K3 K3 K3 K3 K3 K3 K3 K3 K3 K3 K3 K3 K3 K3 K3 K3 K3 K3 K3 K3 K3 K3 K3 K3 K3 K3 K3 K3 K3 K3 K3 K3 K3 K3 K3 K3 K3 K3 K3 K3 K3 K3 K3 K3 K3 K3 K3 K3 K3 K3 K3 K3 K3 K3 K3 K3 K3 K3 K3 K3 K3 K3 K3 K3 K3 K3 K3 K3 K3 K3 K3 K3 K3 K3 K3 K3 K3 K3 K3 K3 K3 K3 K3 K3 K3 K3 K3 K3 K3 K3 K3 K3 K3 K3 K3 K3 K3 K3 K3 K3     2M 2M 2M 2M 2M 2M 2M 2M 2M 2M 2M 2M 2M 2M 2M 2M 2M 2M 2M 2M 2M 2M 2M 2M 2M 2M 2M 2M 2M 2M 2M 2M 2M 2M 2M 2M 2M 2M 2M 2M 2M 2M 2M 2M 2M 2M 2M 2M 2M 2M 2M 2M 2M 2M 2M 2M 2M 2M 2M 2M 2M 2M 2M 2M 2M 2M 2M 2M 2M 2M 2M 2M 2M 2M 2M 2M 2M 2M 2M 2M 2M 2M 2M 2M 2M 2M 2M 2M 2M 2M 2M 2M 2M 2M 2M 2M 2M 2M 2M 2M 2M 2M 2M 2M 2M 2M 2M 2M 2M 2M 2M 2M 2M 2M 2M 2M 2M 2M 2M 2M 2M 2M 2M 2M 2M 2M 2M 2M 2M 2M 2M 2M 2M 2M 2M 2M 2M 2M 2M 2M 2M 2M 2M 2M 2M 2M 2M 2M 2M 2M 2M 2M 2M 2M 2M 2M 2M 2M 2M 2M 2M 2M 2M 2M 2M 2M 2M 2M 2M 2M 2M 2M 2M 2M 2M 2M 2M 2M 2M 2M 2M M M M M 3M 3M 3M 3M 3M 3M 3M 3M 3M 3M 3M 3M 3M 3M 3M 3M 3M 3M 3M 3M 3M 3M 3M 3M 3M 3M 3M 3M 3M 3M 3M 3M 3M 3M 3M 3M 3M 3M 3M 3M 3M 3M 3M 3M 3M 3M 3M 3M 3M 3M 3M 3M 3M 3M 3M 3M 3M 3M 3M 3M 3M 3M 3M 3M 3M 3M 3M 3M 3M 3M 3M 3M 3M 3M 3M 3M 3M 3M 3M 3M 3M 3M 3M 3M 3M 3M 3M 3M 3M 3M 3M 3M 3M 3M 3M 3M 3M 3M 3M 3M 3M 3M 3M 3M 3M 3M 3M 3M 3M 3M 3M 3M 3M 3M 3M 3M 3M 3M 3M 3M 3M 3M 3M 3M 3M 3M 3M 3M 3M 3M 3M 3M 3M 3M 3M 3M 3M 3M 3M 3M 3M 3M 3M 3M 3M 3M 3M 3M 3M 3M 3M 3M 3M 3M 3M 3M 3M 3M 3M 3M 3M 3M 3M 3M 3M 3M 3M 3M 3M 3M 3M 3M 3M 3M 3M 3M 3M 3M 3M 3M 3M    5F 5F 5F 5F 5F 5F 5F 5F 5F 5F 5F 5F 5F 5F 5F 5F 5F 5F 5F 5F 5F 5F 5F 5F 5F 5F 5F 5F 5F 5F 5F 5F 5F 5F 5F 5F 5F 5F 5F 5F 5F 5F 5F 5F 5F 5F 5F 5F 5F 5F 5F 5F 5F 5F 5F 5F 5F 5F 5F 5F 5F 5F 5F 5F 5F 5F 5F 5F 5F 5F 5F 5F 5F 5F 5F 5F 5F 5F 5F 5F 5F 5F 5F 5F 5F 5F 5F 5F 5F 5F 5F 5F 5F 5F 5F 5F 5F 5F 5F 5F 5F 5F 5F 5F 5F 5F 5F 5F 5F 5F 5F 5F 5F 5F 5F 5F 5F 5F 5F 5F 5F 5F 5F 5F 5F 5F 5F 5F 5F 5F 5F 5F 5F 5F 5F 5F 5F 5F 5F 5F 5F 5F 5F 5F 5F 5F 5F 5F 5F 5F 5F 5F 5F 5F 5F 5F 5F 5F 5F 5F 5F 5F 5F 5F 5F 5F 5F 5F 5F 5F 5F 5F 5F 5F 5F 5F 5F 5F 5F 5F 5F F F F F 0F 0F 0F 0F 0F 0F 0F 0F 0F 0F 0F 0F 0F 0F 0F 0F 0F 0F 0F 0F 0F 0F 0F 0F 0F 0F 0F 0F 0F 0F 0F 0F 0F 0F 0F 0F 0F 0F 0F 0F 0F 0F 0F 0F 0F 0F 0F 0F 0F 0F 0F 0F 0F 0F 0F 0F 0F 0F 0F 0F 0F 0F 0F 0F 0F 0F 0F 0F 0F 0F 0F 0F 0F 0F 0F 0F 0F 0F 0F 0F 0F 0F 0F 0F 0F 0F 0F 0F 0F 0F 0F 0F 0F 0F 0F 0F 0F 0F 0F 0F 0F 0F 0F 0F 0F 0F 0F 0F 0F 0F 0F 0F 0F 0F 0F 0F 0F 0F 0F 0F 0F 0F 0F 0F 0F 0F 0F 0F 0F 0F 0F 0F 0F 0F 0F 0F 0F 0F 0F 0F 0F 0F 0F 0F 0F 0F 0F 0F 0F 0F 0F 0F 0F 0F 0F 0F 0F 0F 0F 0F 0F 0F 0F 0F 0F 0F 0F 0F 0F 0F 0F 0F 0F 0F 0F 0F 0F 0F 0F 0F 0F     P. P. P. P. P. P. P. P. P. P. P. P. P. P. P. P. P. P. P. P. P. P. P. P. P. P. P. P. P. P. P. P. P. P. P. P. P. P. P. P. P. P. P. P. P. P. P. P. P. P. P. P. P. P. P. P. P. P. P. P. P. P. P. P. P. P. P. P. P. P. P. P. P. P. P. P. P. P. P. P. P. P. P. P. P. P. P. P. P. . . . O. O. O. O. O. O. O. O. O. O. O. O. O. O. O. O. O. O. O. O. O. O. O. O. O. O. O. O. O. O. O. O. O. O. O. O. O. O. O. O. O. O. O. O. O. O. O. O. O. O. O. O. O. O. O. O. O. O. O. O. O. O. O. O. O. O. O. O. O. O. O. O. O. O. O. O. O. O. O. O. O. O. O. O. O. O. O. O. O.    ,P ,P ,P ,P ,P ,P ,P ,P ,P ,P ,P ,P ,P ,P ,P ,P ,P ,P ,P ,P ,P ,P ,P ,P ,P ,P ,P ,P ,P ,P ,P ,P ,P ,P ,P ,P ,P ,P ,P ,P ,P ,P ,P ,P ,P ,P ,P ,P ,P ,P ,P ,P ,P ,P ,P ,P ,P ,P ,P ,P ,P ,P ,P ,P ,P ,P ,P ,P ,P ,P ,P ,P ,P ,P ,P ,P ,P ,P ,P ,P ,P ,P ,P ,P ,P ,P ,P ,P ,P ,P ,P ,P ,P ,P ,P ,P ,P ,P ,P ,P ,P ,P ,P ,P ,P ,P ,P ,P ,P ,P ,P ,P ,P ,P ,P ,P ,P ,P ,P ,P ,P ,P ,P ,P ,P ,P ,P ,P ,P ,P ,P ,P ,P ,P ,P ,P ,P ,P ,P ,P ,P ,P ,P ,P ,P ,P ,P ,P ,P ,P ,P ,P ,P ,P ,P ,P ,P ,P ,P ,P ,P ,P ,P ,P ,P ,P ,P ,P ,P ,P ,P ,P ,P ,P ,P ,P ,P ,P ,P ,P ,P P P P P +P +P +P +P +P +P +P +P +P +P +P +P +P +P +P +P +P +P +P +P +P +P +P +P +P +P +P +P +P +P +P +P +P +P +P +P +P +P +P +P +P +P +P +P +P +P +P +P +P +P +P +P +P +P +P +P +P +P +P +P +P +P +P +P +P +P +P +P +P +P +P +P +P +P +P +P +P +P +P +P +P +P +P +P +P +P +P +P +P +P +P +P +P +P +P +P +P +P +P +P +P +P +P +P +P +P +P +P +P +P +P +P +P +P +P +P +P +P +P +P +P +P +P +P +P +P +P +P +P +P +P +P +P +P +P +P +P +P +P +P +P +P +P +P +P +P +P +P +P +P +P +P +P +P +P +P +P +P +P +P +P +P +P +P +P +P +P +P +P +P +P +P +P +P +P +P +P +P +P +P +P     R) R) R) R) R) R) R) R) R) R) R) R) R) R) R) R) R) R) R) R) R) R) R) R) R) R) R) R) R) R) R) R) R) R) R) R) R) R) R) R) R) R) R) R) R) R) R) R) R) R) R) R) R) R) R) R) R) R) R) R) R) R) R) R) R) R) R) R) R) R) R) R) R) R) R) R) R) R) R) R) R) R) R) R) R) R) R) R) R) R) R) R) R) R) R) R) R) R) R) R) R) R) R) R) R) R) R) R) R) R) R) R) R) R) R) R) R) R) R) R) R) R) R) R) R) R) R) R) R) R) R) R) R) R) R) R) R) R) R) R) R) R) R) R) R) R) R) R) R) R) R) R) R) R) R) R) R) R) R) R) R) R) R) R) R) R) R) R) R) R) R) R) R) R) R) R) R) R) R) R) R)    'O 'O 'O 'O 'O 'O 'O 'O 'O 'O 'O 'O 'O 'O 'O 'O 'O 'O 'O 'O 'O 'O 'O 'O 'O 'O 'O 'O 'O 'O 'O 'O 'O 'O 'O 'O 'O 'O 'O 'O 'O 'O 'O 'O 'O 'O 'O 'O 'O 'O 'O 'O 'O 'O 'O 'O 'O 'O 'O 'O 'O 'O 'O 'O 'O 'O 'O 'O 'O 'O 'O 'O 'O 'O 'O 'O 'O 'O 'O 'O 'O 'O 'O 'O 'O 'O 'O 'O 'O 'O 'O 'O 'O 'O 'O 'O 'O 'O 'O 'O 'O 'O 'O 'O 'O 'O 'O 'O 'O 'O 'O 'O 'O 'O 'O 'O 'O 'O 'O 'O 'O 'O 'O 'O 'O 'O 'O 'O 'O 'O 'O 'O 'O 'O 'O 'O 'O 'O 'O 'O 'O 'O 'O 'O 'O 'O 'O 'O 'O 'O 'O 'O 'O 'O 'O 'O 'O 'O 'O 'O 'O 'O 'O 'O 'O 'O 'O 'O 'O 'O 'O 'O 'O 'O 'O 'O 'O 'O 'O 'O 'O 'O 'O 'O 'O 'O 'O M'O M'O M'O M'O M'O M'O M'O M'O M'O M'O M'O M'O M'O M'O M'O M'O M'O M'O M'O M'O M'O M'O M'O M'O M'O M'O M'O M'O M'O M'O M'O M'O M'O M'O M'O M'O M'O M'O M'O M'O M'O M'O M'O M'O M'O M'O M'O M'O M'O M'O M'O M'O M'O M'O M'O M'O M'O M'O M'O M'O M'O M'O M'O M'O M'O M'O M'O M'O M'O M'O M'O M'O M'O M'O M'O M'O M'O M'O M'O M'O M'O M'O M'O M'O M'O M'O M'O M'O M'O M'O M'O M'O M'O M'O M'O M'O M'O M'O M'O M'O M'O M'O M'O M'O M'O M'O M'O M'O M'O M'O M'O M'O M'O M'O M'O M'O M'O M'O M'O M'O M'O M'O M'O M'O M'O M'O M'O M'O M'O M'O M'O M'O M'O M'O M'O M'O M'O M'O M'O M'O M'O M'O M'O M'O M'O M'O M'O M'O M'O M'O M'O M'O M'O M'O M'O M'O M'O M'O M'O M'O M'O M'O M'O M'O M'O M'O M'O M'O M'O M'O M'O M'O M'O M'O M'O M'O M'O M'O M'O M'O M'O 'O 'O 'O K'O K'O K'O K'O K'O K'O K'O K'O K'O K'O K'O K'O K'O K'O K'O K'O K'O K'O K'O K'O K'O K'O K'O K'O K'O K'O K'O K'O K'O K'O K'O K'O K'O K'O K'O K'O K'O K'O K'O K'O K'O K'O K'O K'O K'O K'O K'O K'O K'O K'O K'O K'O K'O K'O K'O K'O K'O K'O K'O K'O K'O K'O K'O K'O K'O K'O K'O K'O K'O K'O K'O K'O K'O K'O K'O K'O K'O K'O K'O K'O K'O K'O K'O K'O K'O K'O K'O K'O K'O K'O K'O K'O K'O K'O K'O K'O K'O K'O K'O K'O K'O K'O K'O K'O K'O K'O K'O K'O K'O K'O K'O K'O K'O K'O K'O K'O K'O K'O K'O K'O K'O K'O K'O K'O K'O K'O K'O K'O K'O K'O K'O K'O K'O K'O K'O K'O K'O K'O K'O K'O K'O K'O K'O K'O K'O K'O K'O K'O K'O K'O K'O K'O K'O K'O K'O K'O K'O K'O K'O K'O K'O K'O K'O K'O K'O K'O K'O K'O K'O K'O K'O K'O K'O K'O K'O K'O K'O K'O K'O K'O K'O 'O 'O 'O 'O J'O J'O J'O J'O J'O J'O J'O J'O J'O J'O J'O J'O J'O J'O J'O J'O J'O J'O J'O J'O J'O J'O J'O J'O J'O J'O J'O J'O J'O J'O J'O J'O J'O J'O J'O J'O J'O J'O J'O J'O J'O J'O J'O J'O J'O J'O J'O J'O J'O J'O J'O J'O J'O J'O J'O J'O J'O J'O J'O J'O J'O J'O J'O J'O J'O J'O J'O J'O J'O J'O J'O J'O J'O J'O J'O J'O J'O J'O J'O J'O J'O J'O J'O J'O J'O J'O J'O J'O J'O J'O J'O J'O J'O J'O J'O J'O J'O J'O J'O J'O J'O J'O J'O J'O J'O J'O J'O J'O J'O J'O J'O J'O J'O J'O J'O J'O J'O J'O J'O J'O J'O J'O J'O J'O J'O J'O J'O J'O J'O J'O J'O J'O J'O J'O J'O J'O J'O J'O J'O J'O J'O J'O J'O J'O J'O J'O J'O J'O J'O J'O J'O J'O J'O J'O J'O J'O J'O J'O J'O J'O J'O J'O J'O J'O J'O J'O J'O J'O J'O J'O J'O J'O J'O J'O J'O J'O J'O J'O J'O J'O J'O O O O O HO3 HO3 HO3 HO3 HO3 HO3 HO3 HO3 HO3 HO3 HO3 HO3 HO3 HO3 HO3 HO3 HO3 HO3 HO3 HO3 HO3 HO3 HO3 HO3 HO3 HO3 HO3 HO3 HO3 HO3 HO3 HO3 HO3 HO3 HO3 HO3 HO3 HO3 HO3 HO3 HO3 HO3 HO3 HO3 HO3 HO3 HO3 HO3 HO3 HO3 HO3 HO3 HO3 HO3 HO3 HO3 HO3 HO3 HO3 HO3 HO3 HO3 HO3 HO3 HO3 HO3 HO3 HO3 HO3 HO3 HO3 HO3 HO3 HO3 HO3 HO3 HO3 HO3 HO3 HO3 HO3 HO3 HO3 HO3 HO3 HO3 HO3 HO3 HO3 HO3 HO3 HO3 HO3 HO3 HO3 HO3 HO3 HO3 HO3 HO3 HO3 HO3 HO3 HO3 HO3 HO3 HO3 HO3 HO3 HO3 HO3 HO3 HO3 HO3 HO3 HO3 HO3 HO3 HO3 HO3 HO3 HO3 HO3 HO3 HO3 HO3 HO3 HO3 HO3 HO3 HO3 HO3 HO3 HO3 HO3 HO3 HO3 HO3 HO3 HO3 HO3 HO3 HO3 HO3 HO3 HO3 HO3 HO3 HO3 HO3 HO3 HO3 HO3 HO3 HO3 HO3 HO3 HO3 HO3 HO3 HO3 HO3 HO3 HO3 HO3 HO3 HO3 HO3 HO3 HO3 HO3 HO3 HO3 HO3 HO3 HO3 HO3 HO3 HO3 HO3 HO3 O3 O3 O3 O3 JO3 JO3 JO3 JO3 JO3 JO3 JO3 JO3 JO3 JO3 JO3 JO3 JO3 JO3 JO3 JO3 JO3 JO3 JO3 JO3 JO3 JO3 JO3 JO3 JO3 JO3 JO3 JO3 JO3 JO3 JO3 JO3 JO3 JO3 JO3 JO3 JO3 JO3 JO3 JO3 JO3 JO3 JO3 JO3 JO3 JO3 JO3 JO3 JO3 JO3 JO3 JO3 JO3 JO3 JO3 JO3 JO3 JO3 JO3 JO3 JO3 JO3 JO3 JO3 JO3 JO3 JO3 JO3 JO3 JO3 JO3 JO3 JO3 JO3 JO3 JO3 JO3 JO3 JO3 JO3 JO3 JO3 JO3 JO3 JO3 JO3 JO3 JO3 JO3 JO3 JO3 JO3 JO3 JO3 JO3 JO3 JO3 JO3 JO3 JO3 JO3 JO3 JO3 JO3 JO3 JO3 JO3 JO3 JO3 JO3 JO3 JO3 JO3 JO3 JO3 JO3 JO3 JO3 JO3 JO3 JO3 JO3 JO3 JO3 JO3 JO3 JO3 JO3 JO3 JO3 JO3 JO3 JO3 JO3 JO3 JO3 JO3 JO3 JO3 JO3 JO3 JO3 JO3 JO3 JO3 JO3 JO3 JO3 JO3 JO3 JO3 JO3 JO3 JO3 JO3 JO3 JO3 JO3 JO3 JO3 JO3 JO3 JO3 JO3 JO3 JO3 JO3 JO3 JO3 JO3 JO3 JO3 JO3 JO3 JO3 JO3 JO3 JO3 JO3 JO3 JO3 O3 O3 O3 KO3 KO3 KO3 KO3 KO3 KO3 KO3 KO3 KO3 KO3 KO3 KO3 KO3 KO3 KO3 KO3 KO3 KO3 KO3 KO3 KO3 KO3 KO3 KO3 KO3 KO3 KO3 KO3 KO3 KO3 KO3 KO3 KO3 KO3 KO3 KO3 KO3 KO3 KO3 KO3 KO3 KO3 KO3 KO3 KO3 KO3 KO3 KO3 KO3 KO3 KO3 KO3 KO3 KO3 KO3 KO3 KO3 KO3 KO3 KO3 KO3 KO3 KO3 KO3 KO3 KO3 KO3 KO3 KO3 KO3 KO3 KO3 KO3 KO3 KO3 KO3 KO3 KO3 KO3 KO3 KO3 KO3 KO3 KO3 KO3 KO3 KO3 KO3 KO3 KO3 KO3 KO3 KO3 KO3 KO3 KO3 KO3 KO3 KO3 KO3 KO3 KO3 KO3 KO3 KO3 KO3 KO3 KO3 KO3 KO3 KO3 KO3 KO3 KO3 KO3 KO3 KO3 KO3 KO3 KO3 KO3 KO3 KO3 KO3 KO3 KO3 KO3 KO3 KO3 KO3 KO3 KO3 KO3 KO3 KO3 KO3 KO3 KO3 KO3 KO3 KO3 KO3 KO3 KO3 KO3 KO3 KO3 KO3 KO3 KO3 KO3 KO3 KO3 KO3 KO3 KO3 KO3 KO3 KO3 KO3 KO3 KO3 KO3 KO3 KO3 KO3 KO3 KO3 KO3 KO3 KO3 KO3 KO3 KO3 KO3 KO3 KO3 KO3 KO3 KO3 KO3 O3 O3 O3 O3 FO3 FO3 FO3 FO3 FO3 FO3 FO3 FO3 FO3 FO3 FO3 FO3 FO3 FO3 FO3 FO3 FO3 FO3 FO3 FO3 FO3 FO3 FO3 FO3 FO3 FO3 FO3 FO3 FO3 FO3 FO3 FO3 FO3 FO3 FO3 FO3 FO3 FO3 FO3 FO3 FO3 FO3 FO3 FO3 FO3 FO3 FO3 FO3 FO3 FO3 FO3 FO3 FO3 FO3 FO3 FO3 FO3 FO3 FO3 FO3 FO3 FO3 FO3 FO3 FO3 FO3 FO3 FO3 FO3 FO3 FO3 FO3 FO3 FO3 FO3 FO3 FO3 FO3 FO3 FO3 FO3 FO3 FO3 FO3 FO3 FO3 FO3 FO3 FO3 FO3 FO3 FO3 FO3 FO3 FO3 FO3 FO3 FO3 FO3 FO3 FO3 FO3 FO3 FO3 FO3 FO3 FO3 FO3 FO3 FO3 FO3 FO3 FO3 FO3 FO3 FO3 FO3 FO3 FO3 FO3 FO3 FO3 FO3 FO3 FO3 FO3 FO3 FO3 FO3 FO3 FO3 FO3 FO3 FO3 FO3 FO3 FO3 FO3 FO3 FO3 FO3 FO3 FO3 FO3 FO3 FO3 FO3 FO3 FO3 FO3 FO3 FO3 FO3 FO3 FO3 FO3 FO3 FO3 FO3 FO3 FO3 FO3 FO3 FO3 FO3 FO3 FO3 FO3 FO3 FO3 FO3 FO3 FO3 FO3 FO3 FO3 FO3 FO3 FO3 FO3 FO3 O3 3 3 3 3EM 3EM 3EM 3EM 3EM 3EM 3EM 3EM 3EM 3EM 3EM 3EM 3EM 3EM 3EM 3EM 3EM 3EM 3EM 3EM 3EM 3EM 3EM 3EM 3EM 3EM 3EM 3EM 3EM 3EM 3EM 3EM 3EM 3EM 3EM 3EM 3EM 3EM 3EM 3EM 3EM 3EM 3EM 3EM 3EM 3EM 3EM 3EM 3EM 3EM 3EM 3EM 3EM 3EM 3EM 3EM 3EM 3EM 3EM 3EM 3EM 3EM 3EM 3EM 3EM 3EM 3EM 3EM 3EM 3EM 3EM 3EM 3EM 3EM 3EM 3EM 3EM 3EM 3EM 3EM 3EM 3EM 3EM 3EM 3EM 3EM 3EM 3EM 3EM 3EM 3EM 3EM 3EM 3EM 3EM 3EM 3EM 3EM 3EM 3EM 3EM 3EM 3EM 3EM 3EM 3EM 3EM 3EM 3EM 3EM 3EM 3EM 3EM 3EM 3EM 3EM 3EM 3EM 3EM 3EM 3EM 3EM 3EM 3EM 3EM 3EM 3EM 3EM 3EM 3EM 3EM 3EM 3EM 3EM 3EM 3EM 3EM 3EM 3EM 3EM 3EM 3EM 3EM 3EM 3EM 3EM 3EM 3EM 3EM 3EM 3EM 3EM 3EM 3EM 3EM 3EM 3EM 3EM 3EM 3EM 3EM 3EM 3EM 3EM 3EM 3EM 3EM 3EM 3EM 3EM 3EM 3EM 3EM 3EM 3EM 3EM 3EM 3EM 3EM 3EM 3EM EM EM EM CEM CEM CEM CEM CEM CEM CEM CEM CEM CEM CEM CEM CEM CEM CEM CEM CEM CEM CEM CEM CEM CEM CEM CEM CEM CEM CEM CEM CEM CEM CEM CEM CEM CEM CEM CEM CEM CEM CEM CEM CEM CEM CEM CEM CEM CEM CEM CEM CEM CEM CEM CEM CEM CEM CEM CEM CEM CEM CEM CEM CEM CEM CEM CEM CEM CEM CEM CEM CEM CEM CEM CEM CEM CEM CEM CEM CEM CEM CEM CEM CEM CEM CEM CEM CEM CEM CEM CEM CEM CEM CEM CEM CEM CEM CEM CEM CEM CEM CEM CEM CEM CEM CEM CEM CEM CEM CEM CEM CEM CEM CEM CEM CEM CEM CEM CEM CEM CEM CEM CEM CEM CEM CEM CEM CEM CEM CEM CEM CEM CEM CEM CEM CEM CEM CEM CEM CEM CEM CEM CEM CEM CEM CEM CEM CEM CEM CEM CEM CEM CEM CEM CEM CEM CEM CEM CEM CEM CEM CEM CEM CEM CEM CEM CEM CEM CEM CEM CEM CEM CEM CEM CEM CEM CEM CEM CEM CEM CEM CEM CEM CEM EM EM EM EM AEM AEM AEM AEM AEM AEM AEM AEM AEM AEM AEM AEM AEM AEM AEM AEM AEM AEM AEM AEM AEM AEM AEM AEM AEM AEM AEM AEM AEM AEM AEM AEM AEM AEM AEM AEM AEM AEM AEM AEM AEM AEM AEM AEM AEM AEM AEM AEM AEM AEM AEM AEM AEM AEM AEM AEM AEM AEM AEM AEM AEM AEM AEM AEM AEM AEM AEM AEM AEM AEM AEM AEM AEM AEM AEM AEM AEM AEM AEM AEM AEM AEM AEM AEM AEM AEM AEM AEM AEM AEM AEM AEM AEM AEM AEM AEM AEM AEM AEM AEM AEM AEM AEM AEM AEM AEM AEM AEM AEM AEM AEM AEM AEM AEM AEM AEM AEM AEM AEM AEM AEM AEM AEM AEM AEM AEM AEM AEM AEM AEM AEM AEM AEM AEM AEM AEM AEM AEM AEM AEM AEM AEM AEM AEM AEM AEM AEM AEM AEM AEM AEM AEM AEM AEM AEM AEM AEM AEM AEM AEM AEM AEM AEM AEM AEM AEM AEM AEM AEM AEM AEM AEM AEM AEM AEM AEM AEM AEM AEM AEM AEM EM EM EM EM ?EM ?EM ?EM ?EM ?EM ?EM ?EM ?EM ?EM ?EM ?EM ?EM ?EM ?EM ?EM ?EM ?EM ?EM ?EM ?EM ?EM ?EM ?EM ?EM ?EM ?EM ?EM ?EM ?EM ?EM ?EM ?EM ?EM ?EM ?EM ?EM ?EM ?EM ?EM ?EM ?EM ?EM ?EM ?EM ?EM ?EM ?EM ?EM ?EM ?EM ?EM ?EM ?EM ?EM ?EM ?EM ?EM ?EM ?EM ?EM ?EM ?EM ?EM ?EM ?EM ?EM ?EM ?EM ?EM ?EM ?EM ?EM ?EM ?EM ?EM ?EM ?EM ?EM ?EM ?EM ?EM ?EM ?EM ?EM ?EM ?EM ?EM ?EM ?EM ?EM ?EM ?EM ?EM ?EM ?EM ?EM ?EM ?EM ?EM ?EM ?EM ?EM ?EM ?EM ?EM ?EM ?EM ?EM ?EM ?EM ?EM ?EM ?EM ?EM ?EM ?EM ?EM ?EM ?EM ?EM ?EM ?EM ?EM ?EM ?EM ?EM ?EM ?EM ?EM ?EM ?EM ?EM ?EM ?EM ?EM ?EM ?EM ?EM ?EM ?EM ?EM ?EM ?EM ?EM ?EM ?EM ?EM ?EM ?EM ?EM ?EM ?EM ?EM ?EM ?EM ?EM ?EM ?EM ?EM ?EM ?EM ?EM ?EM ?EM ?EM ?EM ?EM ?EM ?EM ?EM ?EM ?EM ?EM ?EM ?EM ?EM ?EM ?EM ?EM ?EM ?EM M M M >MD >MD >MD >MD >MD >MD >MD >MD >MD >MD >MD >MD >MD >MD >MD >MD >MD >MD >MD >MD >MD >MD >MD >MD >MD >MD >MD >MD >MD >MD >MD >MD >MD >MD >MD >MD >MD >MD >MD >MD >MD >MD >MD >MD >MD >MD >MD >MD >MD >MD >MD >MD >MD >MD >MD >MD >MD >MD >MD >MD >MD >MD >MD >MD >MD >MD >MD >MD >MD >MD >MD >MD >MD >MD >MD >MD >MD >MD >MD >MD >MD >MD >MD >MD >MD >MD >MD >MD >MD >MD >MD >MD >MD >MD >MD >MD >MD >MD >MD >MD >MD >MD >MD >MD >MD >MD >MD >MD >MD >MD >MD >MD >MD >MD >MD >MD >MD >MD >MD >MD >MD >MD >MD >MD >MD >MD >MD >MD >MD >MD >MD >MD >MD >MD >MD >MD >MD >MD >MD >MD >MD >MD >MD >MD >MD >MD >MD >MD >MD >MD >MD >MD >MD >MD >MD >MD >MD >MD >MD >MD >MD >MD >MD >MD >MD >MD >MD >MD >MD >MD >MD >MD >MD >MD >MD >MD >MD >MD >MD >MD >MD MD MD MD MD K?D K?D K?D K?D K?D K?D K?D K?D K?D K?D K?D K?D K?D K?D K?D K?D K?D K?D K?D K?D K?D K?D K?D K?D K?D K?D K?D K?D K?D K?D K?D K?D K?D K?D K?D K?D K?D K?D K?D K?D K?D K?D K?D K?D K?D K?D K?D K?D K?D K?D K?D K?D K?D K?D K?D K?D K?D K?D K?D K?D K?D K?D K?D K?D K?D K?D K?D K?D K?D K?D K?D K?D K?D K?D K?D K?D K?D K?D K?D K?D K?D K?D K?D K?D K?D K?D K?D K?D K?D K?D K?D K?D K?D K?D K?D K?D K?D K?D K?D K?D K?D K?D K?D K?D K?D K?D K?D K?D K?D K?D K?D K?D K?D K?D K?D K?D K?D K?D K?D K?D K?D K?D K?D K?D K?D K?D K?D K?D K?D K?D K?D K?D K?D K?D K?D K?D K?D K?D K?D K?D K?D K?D K?D K?D K?D K?D K?D K?D K?D K?D K?D K?D K?D K?D K?D K?D K?D K?D K?D K?D K?D K?D K?D K?D K?D K?D K?D K?D K?D K?D K?D K?D K?D K?D K?D K?D K?D K?D K?D K?D K?D D D D D JAD JAD JAD JAD JAD JAD JAD JAD JAD JAD JAD JAD JAD JAD JAD JAD JAD JAD JAD JAD JAD JAD JAD JAD JAD JAD JAD JAD JAD JAD JAD JAD JAD JAD JAD JAD JAD JAD JAD JAD JAD JAD JAD JAD JAD JAD JAD JAD JAD JAD JAD JAD JAD JAD JAD JAD JAD JAD JAD JAD JAD JAD JAD JAD JAD JAD JAD JAD JAD JAD JAD JAD JAD JAD JAD JAD JAD JAD JAD JAD JAD JAD JAD JAD JAD JAD JAD JAD JAD JAD JAD JAD JAD JAD JAD JAD JAD JAD JAD JAD JAD JAD JAD JAD JAD JAD JAD JAD JAD JAD JAD JAD JAD JAD JAD JAD JAD JAD JAD JAD JAD JAD JAD JAD JAD JAD JAD JAD JAD JAD JAD JAD JAD JAD JAD JAD JAD JAD JAD JAD JAD JAD JAD JAD JAD JAD JAD JAD JAD JAD JAD JAD JAD JAD JAD JAD JAD JAD JAD JAD JAD JAD JAD JAD JAD JAD JAD JAD JAD JAD JAD JAD JAD JAD JAD JAD JAD JAD JAD JAD JAD D D D H8D H8D H8D H8D H8D H8D H8D H8D H8D H8D H8D H8D H8D H8D H8D H8D H8D H8D H8D H8D H8D H8D H8D H8D H8D H8D H8D H8D H8D H8D H8D H8D H8D H8D H8D H8D H8D H8D H8D H8D H8D H8D H8D H8D H8D H8D H8D H8D H8D H8D H8D H8D H8D H8D H8D H8D H8D H8D H8D H8D H8D H8D H8D H8D H8D H8D H8D H8D H8D H8D H8D H8D H8D H8D H8D H8D H8D H8D H8D H8D H8D H8D H8D H8D H8D H8D H8D H8D H8D H8D H8D H8D H8D H8D H8D H8D H8D H8D H8D H8D H8D H8D H8D H8D H8D H8D H8D H8D H8D H8D H8D H8D H8D H8D H8D H8D H8D H8D H8D H8D H8D H8D H8D H8D H8D H8D H8D H8D H8D H8D H8D H8D H8D H8D H8D H8D H8D H8D H8D H8D H8D H8D H8D H8D H8D H8D H8D H8D H8D H8D H8D H8D H8D H8D H8D H8D H8D H8D H8D H8D H8D H8D H8D H8D H8D H8D H8D H8D H8D H8D H8D H8D H8D H8D H8D H8D H8D H8D H8D H8D H8D D D D D G7D G7D G7D G7D G7D G7D G7D G7D G7D G7D G7D G7D G7D G7D G7D G7D G7D G7D G7D G7D G7D G7D G7D G7D G7D G7D G7D G7D G7D G7D G7D G7D G7D G7D G7D G7D G7D G7D G7D G7D G7D G7D G7D G7D G7D G7D G7D G7D G7D G7D G7D G7D G7D G7D G7D G7D G7D G7D G7D G7D G7D G7D G7D G7D G7D G7D G7D G7D G7D G7D G7D G7D G7D G7D G7D G7D G7D G7D G7D G7D G7D G7D G7D G7D G7D G7D G7D G7D G7D G7D G7D G7D G7D G7D G7D G7D G7D G7D G7D G7D G7D G7D G7D G7D G7D G7D G7D G7D G7D G7D G7D G7D G7D G7D G7D G7D G7D G7D G7D G7D G7D G7D G7D G7D G7D G7D G7D G7D G7D G7D G7D G7D G7D G7D G7D G7D G7D G7D G7D G7D G7D G7D G7D G7D G7D G7D G7D G7D G7D G7D G7D G7D G7D G7D G7D G7D G7D G7D G7D G7D G7D G7D G7D G7D G7D G7D G7D G7D G7D G7D G7D G7D G7D G7D G7D G7D G7D G7D G7D G7D G7D D D D  E5 E5 E5 E5 E5 E5 E5 E5 E5 E5 E5 E5 E5 E5 E5 E5 E5 E5 E5 E5 E5 E5 E5 E5 E5 E5 E5 E5 E5 E5 E5 E5 E5 E5 E5 E5 E5 E5 E5 E5 E5 E5 E5 E5 E5 E5 E5 E5 E5 E5 E5 E5 E5 E5 E5 E5 E5 E5 E5 E5 E5 E5 E5 E5 E5 E5 E5 E5 E5 E5 E5 E5 E5 E5 E5 E5 E5 E5 E5 E5 E5 E5 E5 E5 E5 E5 E5 E5 E5 E5 E5 E5 E5 E5 E5 E5 E5 E5 E5 E5 E5 E5 E5 E5 E5 E5 E5 E5 E5 E5 E5 E5 E5 E5 E5 E5 E5 E5 E5 E5 E5 E5 E5 E5 E5 E5 E5 E5 E5 E5 E5 E5 E5 E5 E5 E5 E5 E5 E5 E5 E5 E5 E5 E5 E5 E5 E5 E5 E5 E5 E5 E5 E5 E5 E5 E5 E5 E5 E5 E5 E5 E5 E5 E5 E5 E5 E5 E5 E5 E5 E5 E5 E5 E5 E5 E5 E5 E5 E5 E5 E5    3C 3C 3C 3C 3C 3C 3C 3C 3C 3C 3C 3C 3C 3C 3C 3C 3C 3C 3C 3C 3C 3C 3C 3C 3C 3C 3C 3C 3C 3C 3C 3C 3C 3C 3C 3C 3C 3C 3C 3C 3C 3C 3C 3C 3C 3C 3C 3C 3C 3C 3C 3C 3C 3C 3C 3C 3C 3C 3C 3C 3C 3C 3C 3C 3C 3C 3C 3C 3C 3C 3C 3C 3C 3C 3C 3C 3C 3C 3C 3C 3C 3C 3C 3C 3C 3C 3C 3C 3C 3C 3C 3C 3C 3C 3C 3C 3C 3C 3C 3C 3C 3C 3C 3C 3C 3C 3C 3C 3C 3C 3C 3C 3C 3C 3C 3C 3C 3C 3C 3C 3C 3C 3C 3C 3C 3C 3C 3C 3C 3C 3C 3C 3C 3C 3C 3C 3C 3C 3C 3C 3C 3C 3C 3C 3C 3C 3C 3C 3C 3C 3C 3C 3C 3C 3C 3C 3C 3C 3C 3C 3C 3C 3C 3C 3C 3C 3C 3C 3C 3C 3C 3C 3C 3C 3C 3C 3C 3C 3C 3C 3C C C C C 2C 2C 2C 2C 2C 2C 2C 2C 2C 2C 2C 2C 2C 2C 2C 2C 2C 2C 2C 2C 2C 2C 2C 2C 2C 2C 2C 2C 2C 2C 2C 2C 2C 2C 2C 2C 2C 2C 2C 2C 2C 2C 2C 2C 2C 2C 2C 2C 2C 2C 2C 2C 2C 2C 2C 2C 2C 2C 2C 2C 2C 2C 2C 2C 2C 2C 2C 2C 2C 2C 2C 2C 2C 2C 2C 2C 2C 2C 2C 2C 2C 2C 2C 2C 2C 2C 2C 2C 2C 2C 2C 2C 2C 2C 2C 2C 2C 2C 2C 2C 2C 2C 2C 2C 2C 2C 2C 2C 2C 2C 2C 2C 2C 2C 2C 2C 2C 2C 2C 2C 2C 2C 2C 2C 2C 2C 2C 2C 2C 2C 2C 2C 2C 2C 2C 2C 2C 2C 2C 2C 2C 2C 2C 2C 2C 2C 2C 2C 2C 2C 2C 2C 2C 2C 2C 2C 2C 2C 2C 2C 2C 2C 2C 2C 2C 2C 2C 2C 2C 2C 2C 2C 2C 2C 2C 2C 2C 2C 2C 2C 2C C C C C K0C K0C K0C K0C K0C K0C K0C K0C K0C K0C K0C K0C K0C K0C K0C K0C K0C K0C K0C K0C K0C K0C K0C K0C K0C K0C K0C K0C K0C K0C K0C K0C K0C K0C K0C K0C K0C K0C K0C K0C K0C K0C K0C K0C K0C K0C K0C K0C K0C K0C K0C K0C K0C K0C K0C K0C K0C K0C K0C K0C K0C K0C K0C K0C K0C K0C K0C K0C K0C K0C K0C K0C K0C K0C K0C K0C K0C K0C K0C K0C K0C K0C K0C K0C K0C K0C K0C K0C K0C 0C 0C 0C J0C J0C J0C J0C J0C J0C J0C J0C J0C J0C J0C J0C J0C J0C J0C J0C J0C J0C J0C J0C J0C J0C J0C J0C J0C J0C J0C J0C J0C J0C J0C J0C J0C J0C J0C J0C J0C J0C J0C J0C J0C J0C J0C J0C J0C J0C J0C J0C J0C J0C J0C J0C J0C J0C J0C J0C J0C J0C J0C J0C J0C J0C J0C J0C J0C J0C J0C J0C J0C J0C J0C J0C J0C J0C J0C J0C J0C J0C J0C J0C J0C J0C J0C J0C J0C J0C J0C J0C J0C C C C 2KC 2KC 2KC 2KC 2KC 2KC 2KC 2KC 2KC 2KC 2KC 2KC 2KC 2KC 2KC 2KC 2KC 2KC 2KC 2KC 2KC 2KC 2KC 2KC 2KC 2KC 2KC 2KC 2KC 2KC 2KC 2KC 2KC 2KC 2KC 2KC 2KC 2KC 2KC 2KC 2KC 2KC 2KC 2KC 2KC 2KC 2KC 2KC 2KC 2KC 2KC 2KC 2KC 2KC 2KC 2KC 2KC 2KC 2KC 2KC 2KC 2KC 2KC 2KC 2KC 2KC 2KC 2KC 2KC 2KC 2KC 2KC 2KC 2KC 2KC 2KC 2KC 2KC 2KC 2KC 2KC 2KC 2KC 2KC 2KC 2KC 2KC 2KC 2KC 2KC 2KC 2KC 2KC 2KC 2KC 2KC 2KC 2KC 2KC 2KC 2KC 2KC 2KC 2KC 2KC 2KC 2KC 2KC 2KC 2KC 2KC 2KC 2KC 2KC 2KC 2KC 2KC 2KC 2KC 2KC 2KC 2KC 2KC 2KC 2KC 2KC 2KC 2KC 2KC 2KC 2KC 2KC 2KC 2KC 2KC 2KC 2KC 2KC 2KC 2KC 2KC 2KC 2KC 2KC 2KC 2KC 2KC 2KC 2KC 2KC 2KC 2KC 2KC 2KC 2KC 2KC 2KC 2KC 2KC 2KC 2KC 2KC 2KC 2KC 2KC 2KC 2KC 2KC 2KC 2KC 2KC 2KC 2KC 2KC 2KC 2KC 2KC 2KC 2KC 2KC 2KC KC KC KC KC 3KC 3KC 3KC 3KC 3KC 3KC 3KC 3KC 3KC 3KC 3KC 3KC 3KC 3KC 3KC 3KC 3KC 3KC 3KC 3KC 3KC 3KC 3KC 3KC 3KC 3KC 3KC 3KC 3KC 3KC 3KC 3KC 3KC 3KC 3KC 3KC 3KC 3KC 3KC 3KC 3KC 3KC 3KC 3KC 3KC 3KC 3KC 3KC 3KC 3KC 3KC 3KC 3KC 3KC 3KC 3KC 3KC 3KC 3KC 3KC 3KC 3KC 3KC 3KC 3KC 3KC 3KC 3KC 3KC 3KC 3KC 3KC 3KC 3KC 3KC 3KC 3KC 3KC 3KC 3KC 3KC 3KC 3KC 3KC 3KC 3KC 3KC 3KC 3KC 3KC 3KC 3KC 3KC 3KC 3KC 3KC 3KC 3KC 3KC 3KC 3KC 3KC 3KC 3KC 3KC 3KC 3KC 3KC 3KC 3KC 3KC 3KC 3KC 3KC 3KC 3KC 3KC 3KC 3KC 3KC 3KC 3KC 3KC 3KC 3KC 3KC 3KC 3KC 3KC 3KC 3KC 3KC 3KC 3KC 3KC 3KC 3KC 3KC 3KC 3KC 3KC 3KC 3KC 3KC 3KC 3KC 3KC 3KC 3KC 3KC 3KC 3KC 3KC 3KC 3KC 3KC 3KC 3KC 3KC 3KC 3KC 3KC 3KC 3KC 3KC 3KC 3KC 3KC 3KC 3KC 3KC 3KC 3KC 3KC 3KC 3KC 3KC 3KC 3KC 3KC 3KC C C C C K+C K+C K+C K+C K+C K+C K+C K+C K+C K+C K+C K+C K+C K+C K+C K+C K+C K+C K+C K+C K+C K+C K+C K+C K+C K+C K+C K+C K+C K+C K+C K+C K+C K+C K+C K+C K+C K+C K+C K+C K+C K+C K+C K+C K+C K+C K+C K+C K+C K+C K+C K+C K+C K+C K+C K+C K+C K+C K+C K+C K+C K+C K+C K+C K+C K+C K+C K+C K+C K+C K+C K+C K+C K+C K+C K+C K+C K+C K+C K+C K+C K+C K+C K+C K+C K+C K+C K+C K+C K+C K+C K+C K+C K+C K+C K+C K+C K+C K+C K+C K+C K+C K+C K+C K+C K+C K+C K+C K+C K+C K+C K+C K+C K+C K+C K+C K+C K+C K+C K+C K+C K+C K+C K+C K+C K+C K+C K+C K+C K+C K+C K+C K+C K+C K+C K+C K+C K+C K+C K+C K+C K+C K+C K+C K+C K+C K+C K+C K+C K+C K+C K+C K+C K+C K+C K+C K+C K+C K+C K+C K+C K+C K+C K+C K+C K+C K+C K+C K+C K+C K+C K+C K+C K+C K+C K+C K+C K+C K+C K+C K+C C   KE* KE* KE* KE* KE* KE* KE* KE* KE* KE* KE* KE* KE* KE* KE* KE* KE* KE* KE* KE* KE* KE* KE* KE* KE* KE* KE* KE* KE* KE* KE* KE* KE* KE* KE* KE* KE* KE* KE* KE* KE* KE* KE* KE* KE* KE* KE* KE* KE* KE* KE* KE* KE* KE* KE* KE* KE* KE* KE* KE* KE* KE* KE* KE* KE* KE* KE* KE* KE* KE* KE* KE* KE* KE* KE* KE* KE* KE* KE* KE* KE* KE* KE* KE* KE* KE* KE* KE* KE* KE* KE* KE* KE* KE* KE* KE* KE* KE* KE* KE* KE* KE* KE* KE* KE* KE* KE* KE* KE* KE* KE* KE* KE* KE* KE* KE* KE* KE* KE* KE* KE* KE* KE* KE* KE* KE* KE* KE* KE* KE* KE* KE* KE* KE* KE* KE* KE* KE* KE* KE* KE* KE* KE* KE* KE* KE* KE* KE* KE* KE* KE* KE* KE* KE* KE* KE* KE* KE* KE* KE* KE* KE* KE* KE* KE* KE* KE* KE* KE* KE* KE* KE* KE* KE* KE* KE* KE* KE* KE* KE* KE* E* E* E* E* JE* JE* JE* JE* JE* JE* JE* JE* JE* JE* JE* JE* JE* JE* JE* JE* JE* JE* JE* JE* JE* JE* JE* JE* JE* JE* JE* JE* JE* JE* JE* JE* JE* JE* JE* JE* JE* JE* JE* JE* JE* JE* JE* JE* JE* JE* JE* JE* JE* JE* JE* JE* JE* JE* JE* JE* JE* JE* JE* JE* JE* JE* JE* JE* JE* JE* JE* JE* JE* JE* JE* JE* JE* JE* JE* JE* JE* JE* JE* JE* JE* JE* JE* JE* JE* JE* JE* JE* JE* JE* JE* JE* JE* JE* JE* JE* JE* JE* JE* JE* JE* JE* JE* JE* JE* JE* JE* JE* JE* JE* JE* JE* JE* JE* JE* JE* JE* JE* JE* JE* JE* JE* JE* JE* JE* JE* JE* JE* JE* JE* JE* JE* JE* JE* JE* JE* JE* JE* JE* JE* JE* JE* JE* JE* JE* JE* JE* JE* JE* JE* JE* JE* JE* JE* JE* JE* JE* JE* JE* JE* JE* JE* JE* JE* JE* JE* JE* JE* JE* JE* JE* JE* JE* JE* JE* JE* JE* JE* JE* JE* JE*     H+ H+ H+ H+ H+ H+ H+ H+ H+ H+ H+ H+ H+ H+ H+ H+ H+ H+ H+ H+ H+ H+ H+ H+ H+ H+ H+ H+ H+ H+ H+ H+ H+ H+ H+ H+ H+ H+ H+ H+ H+ H+ H+ H+ H+ H+ H+ H+ H+ H+ H+ H+ H+ H+ H+ H+ H+ H+ H+ H+ H+ H+ H+ H+ H+ H+ H+ H+ H+ H+ H+ H+ H+ H+ H+ H+ H+ H+ H+ H+ H+ H+ H+ H+ H+ H+ H+ H+ H+ H+ H+ H+ H+ H+ H+ H+ H+ H+ H+ H+ H+ H+ H+ H+ H+ H+ H+ H+ H+ H+ H+ H+ H+ H+ H+ H+ H+ H+ H+ H+ H+ H+ H+ H+ H+ H+ H+ H+ H+ H+ H+ H+ H+ H+ H+ H+ H+ H+ H+ H+ H+ H+ H+ H+ H+ H+ H+ H+ H+ H+ H+ H+ H+ H+ H+ H+ H+ H+ H+ H+ H+ H+ H+ H+ H+ H+ H+ H+ H+ H+ H+ H+ H+ H+ H+ H+ H+ H+ H+ H+ H+ + + + F+ F+ F+ F+ F+ F+ F+ F+ F+ F+ F+ F+ F+ F+ F+ F+ F+ F+ F+ F+ F+ F+ F+ F+ F+ F+ F+ F+ F+ F+ F+ F+ F+ F+ F+ F+ F+ F+ F+ F+ F+ F+ F+ F+ F+ F+ F+ F+ F+ F+ F+ F+ F+ F+ F+ F+ F+ F+ F+ F+ F+ F+ F+ F+ F+ F+ F+ F+ F+ F+ F+ F+ F+ F+ F+ F+ F+ F+ F+ F+ F+ F+ F+ F+ F+ F+ F+ F+ F+ F+ F+ F+ F+ F+ F+ F+ F+ F+ F+ F+ F+ F+ F+ F+ F+ F+ F+ F+ F+ F+ F+ F+ F+ F+ F+ F+ F+ F+ F+ F+ F+ F+ F+ F+ F+ F+ F+ F+ F+ F+ F+ F+ F+ F+ F+ F+ F+ F+ F+ F+ F+ F+ F+ F+ F+ F+ F+ F+ F+ F+ F+ F+ F+ F+ F+ F+ F+ F+ F+ F+ F+ F+ F+ F+ F+ F+ F+ F+ F+ F+ F+ F+ F+ F+ F+ F+ F+ F+ F+ F+ F+ +    E0 E0 E0 E0 E0 E0 E0 E0 E0 E0 E0 E0 E0 E0 E0 E0 E0 E0 E0 E0 E0 E0 E0 E0 E0 E0 E0 E0 E0 E0 E0 E0 E0 E0 E0 E0 E0 E0 E0 E0 E0 E0 E0 E0 E0 E0 E0 E0 E0 E0 E0 E0 E0 E0 E0 E0 E0 E0 E0 E0 E0 E0 E0 E0 E0 E0 E0 E0 E0 E0 E0 E0 E0 E0 E0 E0 E0 E0 E0 E0 E0 E0 E0 E0 E0 E0 E0 E0 E0 E0 E0 E0 E0 E0 E0 E0 E0 E0 E0 E0 E0 E0 E0 E0 E0 E0 E0 E0 E0 E0 E0 E0 E0 E0 E0 E0 E0 E0 E0 E0 E0 E0 E0 E0 E0 E0 E0 E0 E0 E0 E0 E0 E0 E0 E0 E0 E0 E0 E0 E0 E0 E0 E0 E0 E0 E0 E0 E0 E0 E0 E0 E0 E0 E0 E0 E0 E0 E0 E0 E0 E0 E0 E0 E0 E0 E0 E0 E0 E0 E0 E0 E0 E0 E0 E0 E0 E0 E0 E0 E0 E0 0 0 0 0 F0 F0 F0 F0 F0 F0 F0 F0 F0 F0 F0 F0 F0 F0 F0 F0 F0 F0 F0 F0 F0 F0 F0 F0 F0 F0 F0 F0 F0 F0 F0 F0 F0 F0 F0 F0 F0 F0 F0 F0 F0 F0 F0 F0 F0 F0 F0 F0 F0 F0 F0 F0 F0 F0 F0 F0 F0 F0 F0 F0 F0 F0 F0 F0 F0 F0 F0 F0 F0 F0 F0 F0 F0 F0 F0 F0 F0 F0 F0 F0 F0 F0 F0 F0 F0 F0 F0 F0 F0 F0 F0 F0 F0 F0 F0 F0 F0 F0 F0 F0 F0 F0 F0 F0 F0 F0 F0 F0 F0 F0 F0 F0 F0 F0 F0 F0 F0 F0 F0 F0 F0 F0 F0 F0 F0 F0 F0 F0 F0 F0 F0 F0 F0 F0 F0 F0 F0 F0 F0 F0 F0 F0 F0 F0 F0 F0 F0 F0 F0 F0 F0 F0 F0 F0 F0 F0 F0 F0 F0 F0 F0 F0 F0 F0 F0 F0 F0 F0 F0 F0 F0 F0 F0 F0 F0 F0 F0 F0 F0 F0 F0     H- H- H- H- H- H- H- H- H- H- H- H- H- H- H- H- H- H- H- H- H- H- H- H- H- H- H- H- H- H- H- H- H- H- H- H- H- H- H- H- H- H- H- H- H- H- H- H- H- H- H- H- H- H- H- H- H- H- H- H- H- H- H- H- H- H- H- H- H- H- H- H- H- H- H- H- H- H- H- H- H- H- H- H- H- H- H- H- H- H- H- H- H- H- H- H- H- H- H- H- H- H- H- H- H- H- H- H- H- H- H- H- H- H- H- H- H- H- H- H- H- H- H- H- H- H- H- H- H- H- H- H- H- H- H- H- H- H- H- H- H- H- H- H- H- H- H- H- H- H- H- H- H- H- H- H- H- H- H- H- H- H- H- H- H- H- H- H- H- H- H- H- H- H- H- H- H- H- H- H- H- - - - C- C- C- C- C- C- C- C- C- C- C- C- C- C- C- C- C- C- C- C- C- C- C- C- C- C- C- C- C- C- C- C- C- C- C- C- C- C- C- C- C- C- C- C- C- C- C- C- C- C- C- C- C- C- C- C- C- C- C- C- C- C- C- C- C- C- C- C- C- C- C- C- C- C- C- C- C- C- C- C- C- C- C- C- C- C- C- C- C- C- C- C- C- C- C- C- C- C- C- C- C- C- C- C- C- C- C- C- C- C- C- C- C- C- C- C- C- C- C- C- C- C- C- C- C- C- C- C- C- C- C- C- C- C- C- C- C- C- C- C- C- C- C- C- C- C- C- C- C- C- C- C- C- C- C- C- C- C- C- C- C- C- C- C- C- C- C- C- C- C- C- C- C- C- C- C- C- C- C- C- C- -    B2 B2 B2 B2 B2 B2 B2 B2 B2 B2 B2 B2 B2 B2 B2 B2 B2 B2 B2 B2 B2 B2 B2 B2 B2 B2 B2 B2 B2 B2 B2 B2 B2 B2 B2 B2 B2 B2 B2 B2 B2 B2 B2 B2 B2 B2 B2 B2 B2 B2 B2 B2 B2 B2 B2 B2 B2 B2 B2 B2 B2 B2 B2 B2 B2 B2 B2 B2 B2 B2 B2 B2 B2 B2 B2 B2 B2 B2 B2 B2 B2 B2 B2 B2 B2 B2 B2 B2 B2 B2 B2 B2 B2 B2 B2 B2 B2 B2 B2 B2 B2 B2 B2 B2 B2 B2 B2 B2 B2 B2 B2 B2 B2 B2 B2 B2 B2 B2 B2 B2 B2 B2 B2 B2 B2 B2 B2 B2 B2 B2 B2 B2 B2 B2 B2 B2 B2 B2 B2 B2 B2 B2 B2 B2 B2 B2 B2 B2 B2 B2 B2 B2 B2 B2 B2 B2 B2 B2 B2 B2 B2 B2 B2 B2 B2 B2 B2 B2 B2 B2 B2 B2 B2 B2 B2 B2 B2 B2 B2 B2 B2 2 2 2 2 C2 C2 C2 C2 C2 C2 C2 C2 C2 C2 C2 C2 C2 C2 C2 C2 C2 C2 C2 C2 C2 C2 C2 C2 C2 C2 C2 C2 C2 C2 C2 C2 C2 C2 C2 C2 C2 C2 C2 C2 C2 C2 C2 C2 C2 C2 C2 C2 C2 C2 C2 C2 C2 C2 C2 C2 C2 C2 C2 C2 C2 C2 C2 C2 C2 C2 C2 C2 C2 C2 C2 C2 C2 C2 C2 C2 C2 C2 C2 C2 C2 C2 C2 C2 C2 C2 C2 C2 C2 C2 C2 C2 C2 C2 C2 C2 C2 C2 C2 C2 C2 C2 C2 C2 C2 C2 C2 C2 C2 C2 C2 C2 C2 C2 C2 C2 C2 C2 C2 C2 C2 C2 C2 C2 C2 C2 C2 C2 C2 C2 C2 C2 C2 C2 C2 C2 C2 C2 C2 C2 C2 C2 C2 C2 C2 C2 C2 C2 C2 C2 C2 C2 C2 C2 C2 C2 C2 C2 C2 C2 C2 C2 C2 C2 C2 C2 C2 C2 C2 C2 C2 C2 C2 C2 C2 C2 C2 C2 C2 C2 C2 2 2 2 2E 2E 2E 2E 2E 2E 2E 2E 2E 2E 2E 2E 2E 2E 2E 2E 2E 2E 2E 2E 2E 2E 2E 2E 2E 2E 2E 2E 2E 2E 2E 2E 2E 2E 2E 2E 2E 2E 2E 2E 2E 2E 2E 2E 2E 2E 2E 2E 2E 2E 2E 2E 2E 2E 2E 2E 2E 2E 2E 2E 2E 2E 2E 2E 2E 2E 2E 2E 2E 2E 2E 2E 2E 2E 2E 2E 2E 2E 2E 2E 2E 2E 2E 2E 2E 2E 2E 2E 2E 2E 2E 2E 2E 2E 2E 2E 2E 2E 2E 2E 2E 2E 2E 2E 2E 2E 2E 2E 2E 2E 2E 2E 2E 2E 2E 2E 2E 2E 2E 2E 2E 2E 2E 2E 2E 2E 2E 2E 2E 2E 2E 2E 2E 2E 2E 2E 2E 2E 2E 2E 2E 2E 2E 2E 2E 2E 2E 2E 2E 2E 2E 2E 2E 2E 2E 2E 2E 2E 2E 2E 2E 2E 2E 2E 2E 2E 2E 2E 2E 2E 2E 2E 2E 2E 2E 2E 2E 2E 2E 2E 2E E E E E ?E ?E ?E ?E ?E ?E ?E ?E ?E ?E ?E ?E ?E ?E ?E ?E ?E ?E ?E ?E ?E ?E ?E ?E ?E ?E ?E ?E ?E ?E ?E ?E ?E ?E ?E ?E ?E ?E ?E ?E ?E ?E ?E ?E ?E ?E ?E ?E ?E ?E ?E ?E ?E ?E ?E ?E ?E ?E ?E ?E ?E ?E ?E ?E ?E ?E ?E ?E ?E ?E ?E ?E ?E ?E ?E ?E ?E ?E ?E ?E ?E ?E ?E ?E ?E ?E ?E ?E ?E ?E ?E ?E ?E ?E ?E ?E ?E ?E ?E ?E ?E ?E ?E ?E ?E ?E ?E ?E ?E ?E ?E ?E ?E ?E ?E ?E ?E ?E ?E ?E ?E ?E ?E ?E ?E ?E ?E ?E ?E ?E ?E ?E ?E ?E ?E ?E ?E ?E ?E ?E ?E ?E ?E ?E ?E ?E ?E ?E ?E ?E ?E ?E ?E ?E ?E ?E ?E ?E ?E ?E ?E ?E ?E ?E ?E ?E ?E ?E ?E ?E ?E ?E ?E ?E ?E ?E ?E ?E ?E ?E ?E     E> E> E> E> E> E> E> E> E> E> E> E> E> E> E> E> E> E> E> E> E> E> E> E> E> E> E> E> E> E> E> E> E> E> E> E> E> E> E> E> E> E> E> E> E> E> E> E> E> E> E> E> E> E> E> E> E> E> E> E> E> E> E> E> E> E> E> E> E> E> E> E> E> E> E> E> E> E> E> E> E> E> E> E> E> E> E> E> E> > > > C> C> C> C> C> C> C> C> C> C> C> C> C> C> C> C> C> C> C> C> C> C> C> C> C> C> C> C> C> C> C> C> C> C> C> C> C> C> C> C> C> C> C> C> C> C> C> C> C> C> C> C> C> C> C> C> C> C> C> C> C> C> C> C> C> C> C> C> C> C> C> C> C> C> C> C> C> C> C> C> C> C> C> C> C> C> C> C> C>    <E <E <E <E <E <E <E <E <E <E <E <E <E <E <E <E <E <E <E <E <E <E <E <E <E <E <E <E <E <E <E <E <E <E <E <E <E <E <E <E <E <E <E <E <E <E <E <E <E <E <E <E <E <E <E <E <E <E <E <E <E <E <E <E <E <E <E <E <E <E <E <E <E <E <E <E <E <E <E <E <E <E <E <E <E <E <E <E <E <E <E <E <E <E <E <E <E <E <E <E <E <E <E <E <E <E <E <E <E <E <E <E <E <E <E <E <E <E <E <E <E <E <E <E <E <E <E <E <E <E <E <E <E <E <E <E <E <E <E <E <E <E <E <E <E <E <E <E <E <E <E <E <E <E <E <E <E <E <E <E <E <E <E <E <E <E <E <E <E <E <E <E <E <E <E <E <E <E <E <E <E E E E E :E :E :E :E :E :E :E :E :E :E :E :E :E :E :E :E :E :E :E :E :E :E :E :E :E :E :E :E :E :E :E :E :E :E :E :E :E :E :E :E :E :E :E :E :E :E :E :E :E :E :E :E :E :E :E :E :E :E :E :E :E :E :E :E :E :E :E :E :E :E :E :E :E :E :E :E :E :E :E :E :E :E :E :E :E :E :E :E :E :E :E :E :E :E :E :E :E :E :E :E :E :E :E :E :E :E :E :E :E :E :E :E :E :E :E :E :E :E :E :E :E :E :E :E :E :E :E :E :E :E :E :E :E :E :E :E :E :E :E :E :E :E :E :E :E :E :E :E :E :E :E :E :E :E :E :E :E :E :E :E :E :E :E :E :E :E :E :E :E :E :E :E :E :E :E :E :E :E :E :E :E     E9 E9 E9 E9 E9 E9 E9 E9 E9 E9 E9 E9 E9 E9 E9 E9 E9 E9 E9 E9 E9 E9 E9 E9 E9 E9 E9 E9 E9 E9 E9 E9 E9 E9 E9 E9 E9 E9 E9 E9 E9 E9 E9 E9 E9 E9 E9 E9 E9 E9 E9 E9 E9 E9 E9 E9 E9 E9 E9 E9 E9 E9 E9 E9 E9 E9 E9 E9 E9 E9 E9 E9 E9 E9 E9 E9 E9 E9 E9 E9 E9 E9 E9 E9 E9 E9 E9 E9 E9 E9 E9 E9 E9 E9 E9 E9 E9 E9 E9 E9 E9 E9 E9 E9 E9 E9 E9 E9 E9 E9 E9 E9 E9 E9 E9 E9 E9 E9 E9 E9 E9 E9 E9 E9 E9 E9 E9 E9 E9 E9 E9 E9 E9 E9 E9 E9 E9 E9 E9 E9 E9 E9 E9 E9 E9 E9 E9 E9 E9 E9 E9 E9 E9 E9 E9 E9 E9 E9 E9 E9 E9 E9 E9 E9 E9 E9 E9 E9 E9 E9 E9 E9 E9 E9 E9 E9 E9 E9 E9 E9 E9    E: E: E: E: E: E: E: E: E: E: E: E: E: E: E: E: E: E: E: E: E: E: E: E: E: E: E: E: E: E: E: E: E: E: E: E: E: E: E: E: E: E: E: E: E: E: E: E: E: E: E: E: E: E: E: E: E: E: E: E: E: E: E: E: E: E: E: E: E: E: E: E: E: E: E: E: E: E: E: E: E: E: E: E: E: E: E: E: E: E: E: E: E: E: E: E: E: E: E: E: E: E: E: E: E: E: E: E: E: E: E: E: E: E: E: E: E: E: E: E: E: E: E: E: E: E: E: E: E: E: E: E: E: E: E: E: E: E: E: E: E: E: E: E: E: E: E: E: E: E: E: E: E: E: E: E: E: E: E: E: E: E: E: E: E: E: E: E: E: E: E: E: E: E: E: E: E: E: E: E: E:     C< C< C< C< C< C< C< C< C< C< C< C< C< C< C< C< C< C< C< C< C< C< C< C< C< C< C< C< C< C< C< C< C< C< C< C< C< C< C< C< C< C< C< C< C< C< C< C< C< C< C< C< C< C< C< C< C< C< C< C< C< C< C< C< C< C< C< C< C< C< C< C< C< C< C< C< C< C< C< C< C< C< C< C< C< C< C< C< C< C< C< C< C< C< C< C< C< C< C< C< C< C< C< C< C< C< C< C< C< C< C< C< C< C< C< C< C< C< C< C< C< C< C< C< C< C< C< C< C< C< C< C< C< C< C< C< C< C< C< C< C< C< C< C< C< C< C< C< C< C< C< C< C< C< C< C< C< C< C< C< C< C< C< C< C< C< C< C< C< C< C< C< C< C< C< C< C< C< C< C< C<     B> B> B> B> B> B> B> B> B> B> B> B> B> B> B> B> B> B> B> B> B> B> B> B> B> B> B> B> B> B> B> B> B> B> B> B> B> B> B> B> B> B> B> B> B> B> B> B> B> B> B> B> B> B> B> B> B> B> B> B> B> B> B> B> B> B> B> B> B> B> B> B> B> B> B> B> B> B> B> B> B> B> B> B> B> B> B> B> B> B> B> B> B> B> B> B> B> B> B> B> B> B> B> B> B> B> B> B> B> B> B> B> B> B> B> B> B> B> B> B> B> B> B> B> B> B> B> B> B> B> B> B> B> B> B> B> B> B> B> B> B> B> B> B> B> B> B> B> B> B> B> B> B> B> B> B> B> B> B> B> B> B> B> B> B> B> B> B> B> B> B> B> B> B> B> B> B> B> B> B> B>    C: C: C: C: C: C: C: C: C: C: C: C: C: C: C: C: C: C: C: C: C: C: C: C: C: C: C: C: C: C: C: C: C: C: C: C: C: C: C: C: C: C: C: C: C: C: C: C: C: C: C: C: C: C: C: C: C: C: C: C: C: C: C: C: C: C: C: C: C: C: C: C: C: C: C: C: C: C: C: C: C: C: C: C: C: C: C: C: C: C: C: C: C: C: C: C: C: C: C: C: C: C: C: C: C: C: C: C: C: C: C: C: C: C: C: C: C: C: C: C: C: C: C: C: C: C: C: C: C: C: C: C: C: C: C: C: C: C: C: C: C: C: C: C: C: C: C: C: C: C: C: C: C: C: C: C: C: C: C: C: C: C: C: C: C: C: C: C: C: C: C: C: C: C: C: C: C: C: C: C: C:     9H 9H 9H 9H 9H 9H 9H 9H 9H 9H 9H 9H 9H 9H 9H 9H 9H 9H 9H 9H 9H 9H 9H 9H 9H 9H 9H 9H 9H 9H 9H 9H 9H 9H 9H 9H 9H 9H 9H 9H 9H 9H 9H 9H 9H 9H 9H 9H 9H 9H 9H 9H 9H 9H 9H 9H 9H 9H 9H 9H 9H 9H 9H 9H 9H 9H 9H 9H 9H 9H 9H 9H 9H 9H 9H 9H 9H 9H 9H 9H 9H 9H 9H 9H 9H 9H 9H 9H 9H 9H 9H 9H 9H 9H 9H 9H 9H 9H 9H 9H 9H 9H 9H 9H 9H 9H 9H 9H 9H 9H 9H 9H 9H 9H 9H 9H 9H 9H 9H 9H 9H 9H 9H 9H 9H 9H 9H 9H 9H 9H 9H 9H 9H 9H 9H 9H 9H 9H 9H 9H 9H 9H 9H 9H 9H 9H 9H 9H 9H 9H 9H 9H 9H 9H 9H 9H 9H 9H 9H 9H 9H 9H 9H 9H 9H 9H 9H 9H 9H 9H 9H 9H 9H 9H 9H 9H 9H 9H 9H 9H 9H H H H H F7H F7H F7H F7H F7H F7H F7H F7H F7H F7H F7H F7H F7H F7H F7H F7H F7H F7H F7H F7H F7H F7H F7H F7H F7H F7H F7H F7H F7H F7H F7H F7H F7H F7H F7H F7H F7H F7H F7H F7H F7H F7H F7H F7H F7H F7H F7H F7H F7H F7H F7H F7H F7H F7H F7H F7H F7H F7H F7H F7H F7H F7H F7H F7H F7H F7H F7H F7H F7H F7H F7H F7H F7H F7H F7H F7H F7H F7H F7H F7H F7H F7H F7H F7H F7H F7H F7H F7H F7H F7H F7H F7H F7H F7H F7H F7H F7H F7H F7H F7H F7H F7H F7H F7H F7H F7H F7H F7H F7H F7H F7H F7H F7H F7H F7H F7H F7H F7H F7H F7H F7H F7H F7H F7H F7H F7H F7H F7H F7H F7H F7H F7H F7H F7H F7H F7H F7H F7H F7H F7H F7H F7H F7H F7H F7H F7H F7H F7H F7H F7H F7H F7H F7H F7H F7H F7H F7H F7H F7H F7H F7H F7H F7H F7H F7H F7H F7H F7H F7H F7H F7H F7H F7H F7H F7H F7H F7H F7H F7H F7H F7H H H H HE6 HE6 HE6 HE6 HE6 HE6 HE6 HE6 HE6 HE6 HE6 HE6 HE6 HE6 HE6 HE6 HE6 HE6 HE6 HE6 HE6 HE6 HE6 HE6 HE6 HE6 HE6 HE6 HE6 HE6 HE6 HE6 HE6 HE6 HE6 HE6 HE6 HE6 HE6 HE6 HE6 HE6 HE6 HE6 HE6 HE6 HE6 HE6 HE6 HE6 HE6 HE6 HE6 HE6 HE6 HE6 HE6 HE6 HE6 HE6 HE6 HE6 HE6 HE6 HE6 HE6 HE6 HE6 HE6 HE6 HE6 HE6 HE6 HE6 HE6 HE6 HE6 HE6 HE6 HE6 HE6 HE6 HE6 HE6 HE6 HE6 HE6 HE6 HE6 HE6 HE6 HE6 HE6 HE6 HE6 HE6 HE6 HE6 HE6 HE6 HE6 HE6 HE6 HE6 HE6 HE6 HE6 HE6 HE6 HE6 HE6 HE6 HE6 HE6 HE6 HE6 HE6 HE6 HE6 HE6 HE6 HE6 HE6 HE6 HE6 HE6 HE6 HE6 HE6 HE6 HE6 HE6 HE6 HE6 HE6 HE6 HE6 HE6 HE6 HE6 HE6 HE6 HE6 HE6 HE6 HE6 HE6 HE6 HE6 HE6 HE6 HE6 HE6 HE6 HE6 HE6 HE6 HE6 HE6 HE6 HE6 HE6 HE6 HE6 HE6 HE6 HE6 HE6 HE6 HE6 E6 E6 E6 E6 E6 E6 E6 E6 E6 E6 E6     CH4 CH4 CH4 CH4 CH4 CH4 CH4 CH4 CH4 CH4 CH4 CH4 CH4 CH4 CH4 CH4 CH4 CH4 CH4 CH4 CH4 CH4 CH4 CH4 CH4 CH4 CH4 CH4 CH4 CH4 CH4 CH4 CH4 CH4 CH4 CH4 CH4 CH4 CH4 CH4 CH4 CH4 CH4 CH4 CH4 CH4 CH4 CH4 CH4 CH4 CH4 CH4 CH4 CH4 CH4 CH4 CH4 CH4 CH4 CH4 CH4 CH4 CH4 CH4 CH4 CH4 CH4 CH4 CH4 CH4 CH4 CH4 CH4 CH4 CH4 CH4 CH4 CH4 CH4 CH4 CH4 CH4 CH4 CH4 CH4 CH4 CH4 CH4 CH4 CH4 CH4 CH4 CH4 CH4 CH4 CH4 CH4 CH4 CH4 CH4 CH4 CH4 CH4 CH4 CH4 CH4 CH4 CH4 CH4 CH4 CH4 CH4 CH4 CH4 CH4 CH4 CH4 CH4 CH4 CH4 CH4 CH4 CH4 CH4 CH4 CH4 CH4 CH4 CH4 CH4 CH4 CH4 CH4 CH4 CH4 CH4 CH4 CH4 CH4 CH4 CH4 CH4 CH4 CH4 CH4 CH4 CH4 CH4 CH4 CH4 CH4 CH4 CH4 CH4 CH4 CH4 CH4 CH4 CH4 CH4 CH4 CH4 CH4 CH4 CH4 CH4 CH4 CH4 CH4 CH4 CH4 CH4 CH4 CH4 CH4 CH4 CH4 CH4 CH4 CH4 CH4     6EH 6EH 6EH 6EH 6EH 6EH 6EH 6EH 6EH 6EH 6EH 6EH 6EH 6EH 6EH 6EH 6EH 6EH 6EH 6EH 6EH 6EH 6EH 6EH 6EH 6EH 6EH 6EH 6EH 6EH 6EH 6EH 6EH 6EH 6EH 6EH 6EH 6EH 6EH 6EH 6EH 6EH 6EH 6EH 6EH 6EH 6EH 6EH 6EH 6EH 6EH 6EH 6EH 6EH 6EH 6EH 6EH 6EH 6EH 6EH 6EH 6EH 6EH 6EH 6EH 6EH 6EH 6EH 6EH 6EH 6EH 6EH 6EH 6EH 6EH 6EH 6EH 6EH 6EH 6EH 6EH 6EH 6EH 6EH 6EH 6EH 6EH 6EH 6EH 6EH 6EH 6EH 6EH 6EH 6EH 6EH 6EH 6EH 6EH 6EH 6EH 6EH 6EH 6EH 6EH 6EH 6EH 6EH 6EH 6EH 6EH 6EH 6EH 6EH 6EH 6EH 6EH 6EH 6EH 6EH 6EH 6EH 6EH 6EH 6EH 6EH 6EH 6EH 6EH 6EH 6EH 6EH 6EH 6EH 6EH 6EH 6EH 6EH 6EH 6EH 6EH 6EH 6EH 6EH 6EH 6EH 6EH 6EH 6EH 6EH 6EH 6EH 6EH 6EH 6EH 6EH 6EH 6EH 6EH 6EH 6EH 6EH 6EH 6EH 6EH 6EH 6EH 6EH 6EH 6EH 6EH 6EH 6EH 6EH 6EH 6EH 6EH 6EH 6EH 6EH 6EH EH EH EH 7EH 7EH 7EH 7EH 7EH 7EH 7EH 7EH 7EH 7EH 7EH 7EH 7EH 7EH 7EH 7EH 7EH 7EH 7EH 7EH 7EH 7EH 7EH 7EH 7EH 7EH 7EH 7EH 7EH 7EH 7EH 7EH 7EH 7EH 7EH 7EH 7EH 7EH 7EH 7EH 7EH 7EH 7EH 7EH 7EH 7EH 7EH 7EH 7EH 7EH 7EH 7EH 7EH 7EH 7EH 7EH 7EH 7EH 7EH 7EH 7EH 7EH 7EH 7EH 7EH 7EH 7EH 7EH 7EH 7EH 7EH 7EH 7EH 7EH 7EH 7EH 7EH 7EH 7EH 7EH 7EH 7EH 7EH 7EH 7EH 7EH 7EH 7EH 7EH 7EH 7EH 7EH 7EH 7EH 7EH 7EH 7EH 7EH 7EH 7EH 7EH 7EH 7EH 7EH 7EH 7EH 7EH 7EH 7EH 7EH 7EH 7EH 7EH 7EH 7EH 7EH 7EH 7EH 7EH 7EH 7EH 7EH 7EH 7EH 7EH 7EH 7EH 7EH 7EH 7EH 7EH 7EH 7EH 7EH 7EH 7EH 7EH 7EH 7EH 7EH 7EH 7EH 7EH 7EH 7EH 7EH 7EH 7EH 7EH 7EH 7EH 7EH 7EH 7EH 7EH 7EH 7EH 7EH 7EH 7EH 7EH 7EH 7EH 7EH 7EH 7EH 7EH 7EH 7EH 7EH 7EH 7EH 7EH 7EH 7EH 7EH 7EH 7EH 7EH 7EH 7EH EH EH EH EH 9EH 9EH 9EH 9EH 9EH 9EH 9EH 9EH 9EH 9EH 9EH 9EH 9EH 9EH 9EH 9EH 9EH 9EH 9EH 9EH 9EH 9EH 9EH 9EH 9EH 9EH 9EH 9EH 9EH 9EH 9EH 9EH 9EH 9EH 9EH 9EH 9EH 9EH 9EH 9EH 9EH 9EH 9EH 9EH 9EH 9EH 9EH 9EH 9EH 9EH 9EH 9EH 9EH 9EH 9EH 9EH 9EH 9EH 9EH 9EH 9EH 9EH 9EH 9EH 9EH 9EH 9EH 9EH 9EH 9EH 9EH 9EH 9EH 9EH 9EH 9EH 9EH 9EH 9EH 9EH 9EH 9EH 9EH 9EH 9EH 9EH 9EH 9EH 9EH 9EH 9EH 9EH 9EH 9EH 9EH 9EH 9EH 9EH 9EH 9EH 9EH 9EH 9EH 9EH 9EH 9EH 9EH 9EH 9EH 9EH 9EH 9EH 9EH 9EH 9EH 9EH 9EH 9EH 9EH 9EH 9EH 9EH 9EH 9EH 9EH 9EH 9EH 9EH 9EH 9EH 9EH 9EH 9EH 9EH 9EH 9EH 9EH 9EH 9EH 9EH 9EH 9EH 9EH 9EH 9EH 9EH 9EH 9EH 9EH 9EH 9EH 9EH 9EH 9EH 9EH 9EH 9EH 9EH 9EH 9EH 9EH 9EH 9EH 9EH 9EH 9EH 9EH 9EH 9EH 9EH 9EH 9EH 9EH 9EH 9EH 9EH 9EH 9EH 9EH 9EH 9EH EH EH EH EH 3EH 3EH 3EH 3EH 3EH 3EH 3EH 3EH 3EH 3EH 3EH 3EH 3EH 3EH 3EH 3EH 3EH 3EH 3EH 3EH 3EH 3EH 3EH 3EH 3EH 3EH 3EH 3EH 3EH 3EH 3EH 3EH 3EH 3EH 3EH 3EH 3EH 3EH 3EH 3EH 3EH 3EH 3EH 3EH 3EH 3EH 3EH 3EH 3EH 3EH 3EH 3EH 3EH 3EH 3EH 3EH 3EH 3EH 3EH 3EH 3EH 3EH 3EH 3EH 3EH 3EH 3EH 3EH 3EH 3EH 3EH 3EH 3EH 3EH 3EH 3EH 3EH 3EH 3EH 3EH 3EH 3EH 3EH 3EH 3EH 3EH 3EH 3EH 3EH 3EH 3EH 3EH 3EH 3EH 3EH 3EH 3EH 3EH 3EH 3EH 3EH 3EH 3EH 3EH 3EH 3EH 3EH 3EH 3EH 3EH 3EH 3EH 3EH 3EH 3EH 3EH 3EH 3EH 3EH 3EH 3EH 3EH 3EH 3EH 3EH 3EH 3EH 3EH 3EH 3EH 3EH 3EH 3EH 3EH 3EH 3EH 3EH 3EH 3EH 3EH 3EH 3EH 3EH 3EH 3EH 3EH 3EH 3EH 3EH 3EH 3EH 3EH 3EH 3EH 3EH 3EH 3EH 3EH 3EH 3EH 3EH 3EH 3EH 3EH 3EH 3EH 3EH 3EH 3EH 3EH 3EH 3EH 3EH 3EH 3EH 3EH 3EH 3EH 3EH 3EH 3EH EH EH EH 2EH 2EH 2EH 2EH 2EH 2EH 2EH 2EH 2EH 2EH 2EH 2EH 2EH 2EH 2EH 2EH 2EH 2EH 2EH 2EH 2EH 2EH 2EH 2EH 2EH 2EH 2EH 2EH 2EH 2EH 2EH 2EH 2EH 2EH 2EH 2EH 2EH 2EH 2EH 2EH 2EH 2EH 2EH 2EH 2EH 2EH 2EH 2EH 2EH 2EH 2EH 2EH 2EH 2EH 2EH 2EH 2EH 2EH 2EH 2EH 2EH 2EH 2EH 2EH 2EH 2EH 2EH 2EH 2EH 2EH 2EH 2EH 2EH 2EH 2EH 2EH 2EH 2EH 2EH 2EH 2EH 2EH 2EH 2EH 2EH 2EH 2EH 2EH 2EH 2EH 2EH 2EH 2EH 2EH 2EH 2EH 2EH 2EH 2EH 2EH 2EH 2EH 2EH 2EH 2EH 2EH 2EH 2EH 2EH 2EH 2EH 2EH 2EH 2EH 2EH 2EH 2EH 2EH 2EH 2EH 2EH 2EH 2EH 2EH 2EH 2EH 2EH 2EH 2EH 2EH 2EH 2EH 2EH 2EH 2EH 2EH 2EH 2EH 2EH 2EH 2EH 2EH 2EH 2EH 2EH 2EH 2EH 2EH 2EH 2EH 2EH 2EH 2EH 2EH 2EH 2EH 2EH 2EH 2EH 2EH 2EH 2EH 2EH 2EH 2EH 2EH 2EH 2EH 2EH 2EH 2EH 2EH 2EH 2EH 2EH 2EH 2EH 2EH 2EH 2EH 2EH EH EH EH EH 0EH 0EH 0EH 0EH 0EH 0EH 0EH 0EH 0EH 0EH 0EH 0EH 0EH 0EH 0EH 0EH 0EH 0EH 0EH 0EH 0EH 0EH 0EH 0EH 0EH 0EH 0EH 0EH 0EH 0EH 0EH 0EH 0EH 0EH 0EH 0EH 0EH 0EH 0EH 0EH 0EH 0EH 0EH 0EH 0EH 0EH 0EH 0EH 0EH 0EH 0EH 0EH 0EH 0EH 0EH 0EH 0EH 0EH 0EH 0EH 0EH 0EH 0EH 0EH 0EH 0EH 0EH 0EH 0EH 0EH 0EH 0EH 0EH 0EH 0EH 0EH 0EH 0EH 0EH 0EH 0EH 0EH 0EH 0EH 0EH 0EH 0EH 0EH 0EH 0EH 0EH 0EH 0EH 0EH 0EH 0EH 0EH 0EH 0EH 0EH 0EH 0EH 0EH 0EH 0EH 0EH 0EH 0EH 0EH 0EH 0EH 0EH 0EH 0EH 0EH 0EH 0EH 0EH 0EH 0EH 0EH 0EH 0EH 0EH 0EH 0EH 0EH 0EH 0EH 0EH 0EH 0EH 0EH 0EH 0EH 0EH 0EH 0EH 0EH 0EH 0EH 0EH 0EH 0EH 0EH 0EH 0EH 0EH 0EH 0EH 0EH 0EH 0EH 0EH 0EH 0EH 0EH 0EH 0EH 0EH 0EH 0EH 0EH 0EH 0EH 0EH 0EH 0EH 0EH 0EH 0EH 0EH 0EH 0EH 0EH 0EH 0EH 0EH 0EH 0EH 0EH     C. C. C. C. C. C. C. C. C. C. C. C. C. C. C. C. C. C. C. C. C. C. C. C. C. C. C. C. C. C. C. C. C. C. C. C. C. C. C. C. C. C. C. C. C. C. C. C. C. C. C. C. C. C. C. C. C. C. C. C. C. C. C. C. C. C. C. C. C. C. C. C. C. C. C. C. C. C. C. C. C. C. C. C. C. C. C. C. C. . . . B. B. B. B. B. B. B. B. B. B. B. B. B. B. B. B. B. B. B. B. B. B. B. B. B. B. B. B. B. B. B. B. B. B. B. B. B. B. B. B. B. B. B. B. B. B. B. B. B. B. B. B. B. B. B. B. B. B. B. B. B. B. B. B. B. B. B. B. B. B. B. B. B. B. B. B. B. B. B. B. B. B. B. B. B. B. B. B. B.     @- @- @- @- @- @- @- @- @- @- @- @- @- @- @- @- @- @- @- @- @- @- @- @- @- @- @- @- @- @- @- @- @- @- @- @- @- @- @- @- @- @- @- @- @- @- @- @- @- @- @- @- @- @- @- @- @- @- @- @- @- @- @- @- @- @- @- @- @- @- @- @- @- @- @- @- @- @- @- @- @- @- @- @- @- @- @- @- @- - - - B- B- B- B- B- B- B- B- B- B- B- B- B- B- B- B- B- B- B- B- B- B- B- B- B- B- B- B- B- B- B- B- B- B- B- B- B- B- B- B- B- B- B- B- B- B- B- B- B- B- B- B- B- B- B- B- B- B- B- B- B- B- B- B- B- B- B- B- B- B- B- B- B- B- B- B- B- B- B- B- B- B- B- B- B- B- B- B- B-    .C .C .C .C .C .C .C .C .C .C .C .C .C .C .C .C .C .C .C .C .C .C .C .C .C .C .C .C .C .C .C .C .C .C .C .C .C .C .C .C .C .C .C .C .C .C .C .C .C .C .C .C .C .C .C .C .C .C .C .C .C .C .C .C .C .C .C .C .C .C .C .C .C .C .C .C .C .C .C .C .C .C .C .C .C .C .C .C .C .C .C .C .C .C .C .C .C .C .C .C .C .C .C .C .C .C .C .C .C .C .C .C .C .C .C .C .C .C .C .C .C .C .C .C .C .C .C .C .C .C .C .C .C .C .C .C .C .C .C .C .C .C .C .C .C .C .C .C .C .C .C .C .C .C .C .C .C .C .C .C .C .C .C .C .C .C .C .C .C .C .C .C .C .C .C .C .C .C .C .C .C .C .C .C .C .C .C .C E.C E.C E.C E.C E.C E.C E.C E.C E.C E.C E.C E.C E.C E.C E.C E.C E.C E.C E.C E.C E.C E.C E.C E.C E.C E.C E.C E.C E.C E.C E.C E.C E.C E.C E.C E.C E.C E.C E.C E.C E.C E.C E.C E.C E.C E.C E.C E.C E.C E.C E.C E.C E.C E.C E.C E.C E.C E.C E.C E.C E.C E.C E.C E.C E.C E.C E.C E.C E.C E.C E.C E.C E.C E.C E.C E.C E.C E.C E.C E.C E.C E.C E.C E.C E.C E.C E.C E.C E.C E.C E.C E.C E.C E.C E.C E.C E.C E.C E.C E.C E.C E.C E.C E.C E.C E.C E.C E.C E.C E.C E.C E.C E.C E.C E.C E.C E.C E.C E.C E.C E.C E.C E.C E.C E.C E.C E.C E.C E.C E.C E.C E.C E.C E.C E.C E.C E.C E.C E.C E.C E.C E.C E.C E.C E.C E.C E.C E.C E.C E.C E.C E.C E.C E.C E.C E.C E.C E.C E.C E.C E.C E.C E.C E.C E.C E.C E.C E.C E.C E.C E.C E.C E.C E.C E.C E.C E.C E.C E.C E.C E.C E.C E.C E.C C C C C FC0 FC0 FC0 FC0 FC0 FC0 FC0 FC0 FC0 FC0 FC0 FC0 FC0 FC0 FC0 FC0 FC0 FC0 FC0 FC0 FC0 FC0 FC0 FC0 FC0 FC0 FC0 FC0 FC0 FC0 FC0 FC0 FC0 FC0 FC0 FC0 FC0 FC0 FC0 FC0 FC0 FC0 FC0 FC0 FC0 FC0 FC0 FC0 FC0 FC0 FC0 FC0 FC0 FC0 FC0 FC0 FC0 FC0 FC0 FC0 FC0 FC0 FC0 FC0 FC0 FC0 FC0 FC0 FC0 FC0 FC0 FC0 FC0 FC0 FC0 FC0 FC0 FC0 FC0 FC0 FC0 FC0 FC0 FC0 FC0 FC0 FC0 FC0 FC0 FC0 FC0 FC0 FC0 FC0 FC0 FC0 FC0 FC0 FC0 FC0 FC0 FC0 FC0 FC0 FC0 FC0 FC0 FC0 FC0 FC0 FC0 FC0 FC0 FC0 FC0 FC0 FC0 FC0 FC0 FC0 FC0 FC0 FC0 FC0 FC0 FC0 FC0 FC0 FC0 FC0 FC0 FC0 FC0 FC0 FC0 FC0 FC0 FC0 FC0 FC0 FC0 FC0 FC0 FC0 FC0 FC0 FC0 FC0 FC0 FC0 FC0 FC0 FC0 FC0 FC0 FC0 FC0 FC0 FC0 FC0 FC0 FC0 FC0 FC0 FC0 FC0 FC0 FC0 FC0 FC0 FC0 FC0 FC0 FC0 FC0 FC0 FC0 FC0 FC0 FC0 FC0 FC0 FC0 FC0 C0 C0 C0 C0 CK0 CK0 CK0 CK0 CK0 CK0 CK0 CK0 CK0 CK0 CK0 CK0 CK0 CK0 CK0 CK0 CK0 CK0 CK0 CK0 CK0 CK0 CK0 CK0 CK0 CK0 CK0 CK0 CK0 CK0 CK0 CK0 CK0 CK0 CK0 CK0 CK0 CK0 CK0 CK0 CK0 CK0 CK0 CK0 CK0 CK0 CK0 CK0 CK0 CK0 CK0 CK0 CK0 CK0 CK0 CK0 CK0 CK0 CK0 CK0 CK0 CK0 CK0 CK0 CK0 CK0 CK0 CK0 CK0 CK0 CK0 CK0 CK0 CK0 CK0 CK0 CK0 CK0 CK0 CK0 CK0 CK0 CK0 CK0 CK0 CK0 CK0 CK0 CK0 CK0 CK0 CK0 CK0 CK0 CK0 CK0 CK0 CK0 CK0 CK0 CK0 CK0 CK0 CK0 CK0 CK0 CK0 CK0 CK0 CK0 CK0 CK0 CK0 CK0 CK0 CK0 CK0 CK0 CK0 CK0 CK0 CK0 CK0 CK0 CK0 CK0 CK0 CK0 CK0 CK0 CK0 CK0 CK0 CK0 CK0 CK0 CK0 CK0 CK0 CK0 CK0 CK0 CK0 CK0 CK0 CK0 CK0 CK0 CK0 CK0 CK0 CK0 CK0 CK0 CK0 CK0 CK0 CK0 CK0 CK0 CK0 CK0 CK0 CK0 CK0 CK0 CK0 CK0 CK0 CK0 CK0 CK0 CK0 CK0 CK0 CK0 CK0 CK0 CK0 CK0 CK0 K0 K0 K0     F2B F2B F2B F2B F2B F2B F2B F2B F2B F2B F2B F2B F2B F2B F2B F2B F2B F2B F2B F2B F2B F2B F2B F2B F2B F2B F2B F2B F2B F2B F2B F2B F2B F2B F2B F2B F2B F2B F2B F2B F2B F2B F2B F2B F2B F2B F2B F2B F2B F2B F2B F2B F2B F2B F2B F2B F2B F2B F2B F2B F2B F2B F2B F2B F2B F2B F2B F2B F2B F2B F2B F2B F2B F2B F2B F2B F2B F2B F2B F2B F2B F2B F2B F2B F2B F2B F2B F2B F2B F2B 2B 2B 2B 2B E2B E2B E2B E2B E2B E2B E2B E2B E2B E2B E2B E2B E2B E2B E2B E2B E2B E2B E2B E2B E2B E2B E2B E2B E2B E2B E2B E2B E2B E2B E2B E2B E2B E2B E2B E2B E2B E2B E2B E2B E2B E2B E2B E2B E2B E2B E2B E2B E2B E2B E2B E2B E2B E2B E2B E2B E2B E2B E2B E2B E2B E2B E2B E2B E2B E2B E2B E2B E2B E2B E2B E2B E2B E2B E2B E2B E2B E2B E2B E2B E2B E2B E2B E2B E2B E2B E2B E2B E2B E2B 2B 2B 2B 2B F2B F2B F2B F2B F2B F2B F2B F2B F2B F2B F2B F2B F2B F2B F2B F2B F2B F2B F2B F2B F2B F2B F2B F2B F2B F2B F2B F2B F2B F2B F2B F2B F2B F2B F2B F2B F2B F2B F2B F2B F2B F2B F2B F2B F2B F2B F2B F2B F2B F2B F2B F2B F2B F2B F2B F2B F2B F2B F2B F2B F2B F2B F2B F2B F2B F2B F2B F2B F2B F2B F2B F2B F2B F2B F2B F2B F2B F2B F2B F2B F2B F2B F2B F2B F2B F2B F2B F2B F2B F2B 2B 2B 2B 2B E2B E2B E2B E2B E2B E2B E2B E2B E2B E2B E2B E2B E2B E2B E2B E2B E2B E2B E2B E2B E2B E2B E2B E2B E2B E2B E2B E2B E2B E2B E2B E2B E2B E2B E2B E2B E2B E2B E2B E2B E2B E2B E2B E2B E2B E2B E2B E2B E2B E2B E2B E2B E2B E2B E2B E2B E2B E2B E2B E2B E2B E2B E2B E2B E2B E2B E2B E2B E2B E2B E2B E2B E2B E2B E2B E2B E2B E2B E2B E2B E2B E2B E2B E2B E2B E2B E2B E2B E2B E2B B B B B FB& FB& FB& FB& FB& FB& FB& FB& FB& FB& FB& FB& FB& FB& FB& FB& FB& FB& FB& FB& FB& FB& FB& FB& FB& FB& FB& FB& FB& FB& FB& FB& FB& FB& FB& FB& FB& FB& FB& FB& FB& FB& FB& FB& FB& FB& FB& FB& FB& FB& FB& FB& FB& FB& FB& FB& FB& FB& FB& FB& FB& FB& FB& FB& FB& FB& FB& FB& FB& FB& FB& FB& FB& FB& FB& FB& FB& FB& FB& FB& FB& FB& FB& FB& FB& FB& FB& FB& FB& FB& B& B& B& B& BE& BE& BE& BE& BE& BE& BE& BE& BE& BE& BE& BE& BE& BE& BE& BE& BE& BE& BE& BE& BE& BE& BE& BE& BE& BE& BE& BE& BE& BE& BE& BE& BE& BE& BE& BE& BE& BE& BE& BE& BE& BE& BE& BE& BE& BE& BE& BE& BE& BE& BE& BE& BE& BE& BE& BE& BE& BE& BE& BE& BE& BE& BE& BE& BE& BE& BE& BE& BE& BE& BE& BE& BE& BE& BE& BE& BE& BE& BE& E& E& E& E& E& E& E& E& E& E& E& & & & & C& C& C& C& C& C& C& C& C& C& C& C& C& C& C& C& C& C& C& C& C& C& C& C& C& C& C& C& C& C& C& C& C& C& C& C& C& C& C& C& C& C& C& C& C& C& C& C& C& C& C& C& C& C& C& C& C& C& C& C& C& C& C& C& C& C& C& C& C& C& C& C& C& C& C& C& C& C& C& C& C& C& C& C& C& C& C& C& C& C& C& C& C& C& C& C& C& C& C& C& C& C& C& C& C& C& C& C& C& C& C& C& C& C& C& C& C& C& C& C& C& C& C& C& C& C& C& C& C& C& C& C& C& C& C& C& C& C& C& C& C& C& C& C& C& C& C& C& C& C& C& C& C& C& C& C& C& C& C& C& C& C& C& C& C& C& C& C& C& C& C& C& C& C& C& C& C& C& C& C& C& C& C& C&     +C +C +C +C +C +C +C +C +C +C +C +C +C +C +C +C +C +C +C +C +C +C +C +C +C +C +C +C +C +C +C +C +C +C +C +C +C +C +C +C +C +C +C +C +C +C +C +C +C +C +C +C +C +C +C +C +C +C +C +C +C +C +C +C +C +C +C +C +C +C +C +C +C +C +C +C +C +C +C +C +C +C +C +C +C +C +C +C +C +C +C +C +C +C +C +C +C +C +C +C +C +C +C +C +C +C +C +C +C +C +C +C +C +C +C +C +C +C +C +C +C +C +C +C +C +C +C +C +C +C +C +C +C +C +C +C +C +C +C +C +C +C +C +C +C +C +C +C +C +C +C +C +C +C +C +C +C +C +C +C +C +C +C +C +C +C +C +C +C +C +C +C +C +C +C +C +C +C +C +C +C +C +C +C +C +C +C +C +C +C +C +C +C +C +C +C +C +C +C +C +C +C A+C A+C A+C A+C A+C A+C A+C A+C A+C A+C A+C A+C A+C A+C A+C A+C A+C A+C A+C A+C A+C A+C A+C A+C A+C A+C A+C A+C A+C A+C A+C A+C A+C A+C A+C A+C A+C A+C A+C A+C A+C A+C A+C A+C A+C A+C A+C A+C A+C A+C A+C A+C A+C A+C A+C A+C A+C A+C A+C A+C A+C A+C A+C A+C A+C A+C A+C A+C A+C A+C A+C A+C A+C A+C A+C A+C A+C A+C A+C A+C A+C A+C A+C A+C A+C A+C A+C A+C A+C A+C A+C A+C A+C A+C A+C A+C A+C A+C A+C A+C A+C A+C A+C A+C A+C A+C A+C A+C A+C A+C A+C A+C A+C A+C A+C A+C A+C A+C A+C A+C A+C A+C A+C A+C A+C A+C A+C A+C A+C A+C A+C A+C A+C A+C A+C A+C A+C A+C A+C A+C A+C A+C A+C A+C A+C A+C A+C A+C A+C A+C A+C A+C A+C A+C A+C A+C A+C A+C A+C A+C A+C A+C A+C A+C A+C A+C A+C A+C A+C A+C A+C A+C A+C A+C A+C A+C A+C A+C A+C A+C A+C A+C A+C A+C A+C A+C A+C A+C A+C A+C A+C A+C A+C A+C A+C A+C A+C +C +C +C +C +C +C ?+C ?+C ?+C ?+C ?+C ?+C ?+C ?+C ?+C ?+C ?+C ?+C ?+C ?+C ?+C ?+C ?+C ?+C ?+C ?+C ?+C ?+C ?+C ?+C ?+C ?+C ?+C ?+C ?+C ?+C ?+C ?+C ?+C ?+C ?+C ?+C ?+C ?+C ?+C ?+C ?+C ?+C ?+C ?+C ?+C ?+C ?+C ?+C ?+C ?+C ?+C ?+C ?+C ?+C ?+C ?+C ?+C ?+C ?+C ?+C ?+C ?+C ?+C ?+C ?+C ?+C ?+C ?+C ?+C ?+C ?+C ?+C ?+C ?+C ?+C ?+C ?+C ?+C ?+C ?+C ?+C ?+C ?+C ?+C ?+C ?+C ?+C ?+C ?+C ?+C ?+C ?+C ?+C ?+C ?+C ?+C ?+C ?+C ?+C ?+C ?+C ?+C ?+C ?+C ?+C ?+C ?+C ?+C ?+C ?+C ?+C ?+C ?+C ?+C ?+C ?+C ?+C ?+C ?+C ?+C ?+C ?+C ?+C ?+C ?+C ?+C ?+C ?+C ?+C ?+C ?+C ?+C ?+C ?+C ?+C ?+C ?+C ?+C ?+C ?+C ?+C ?+C ?+C ?+C ?+C ?+C ?+C ?+C ?+C ?+C ?+C ?+C ?+C ?+C ?+C ?+C ?+C ?+C ?+C ?+C ?+C ?+C ?+C ?+C ?+C ?+C ?+C ?+C ?+C ?+C ?+C ?+C ?+C ?+C ?+C ?+C ?+C ?+C ?+C ?+C ?+C ?+C ?+C ?+C ?+C ?+C ?+C ?+C ?+C ?+C ?+C ?+C ?+C ?+C ?+C ?+C ?+C +C +C +C +C +C >+C >+C >+C >+C >+C >+C >+C >+C >+C >+C >+C >+C >+C >+C >+C >+C >+C >+C >+C >+C >+C >+C >+C >+C >+C >+C >+C >+C >+C >+C >+C >+C >+C >+C >+C >+C >+C >+C >+C >+C >+C >+C >+C >+C >+C >+C >+C >+C >+C >+C >+C >+C >+C >+C >+C >+C >+C >+C >+C >+C >+C >+C >+C >+C >+C >+C >+C >+C >+C >+C >+C >+C >+C >+C >+C >+C >+C >+C >+C >+C >+C >+C >+C >+C >+C >+C >+C >+C >+C >+C >+C >+C >+C >+C >+C >+C >+C >+C >+C >+C >+C >+C >+C >+C >+C >+C >+C >+C >+C >+C >+C >+C >+C >+C >+C >+C >+C >+C >+C >+C >+C >+C >+C >+C >+C >+C >+C >+C >+C >+C >+C >+C >+C >+C >+C >+C >+C >+C >+C >+C >+C >+C >+C >+C >+C >+C >+C >+C >+C >+C >+C >+C >+C >+C >+C >+C >+C >+C >+C >+C >+C >+C >+C >+C >+C >+C >+C >+C >+C >+C >+C >+C >+C >+C >+C >+C >+C >+C >+C >+C >+C >+C >+C >+C >+C >+C >+C >+C >+C >+C >+C >+C >+C >+C >+C >+C >+C +C +C +C +C +C +C <+C <+C <+C <+C <+C <+C <+C <+C <+C <+C <+C <+C <+C <+C <+C <+C <+C <+C <+C <+C <+C <+C <+C <+C <+C <+C <+C <+C <+C <+C <+C <+C <+C <+C <+C <+C <+C <+C <+C <+C <+C <+C <+C <+C <+C <+C <+C <+C <+C <+C <+C <+C <+C <+C <+C <+C <+C <+C <+C <+C <+C <+C <+C <+C <+C <+C <+C <+C <+C <+C <+C <+C <+C <+C <+C <+C <+C <+C <+C <+C <+C <+C <+C <+C <+C <+C <+C <+C <+C <+C <+C <+C <+C <+C <+C <+C <+C <+C <+C <+C <+C <+C <+C <+C <+C <+C <+C <+C <+C <+C <+C <+C <+C <+C <+C <+C <+C <+C <+C <+C <+C <+C <+C <+C <+C <+C <+C <+C <+C <+C <+C <+C <+C <+C <+C <+C <+C <+C <+C <+C <+C <+C <+C <+C <+C <+C <+C <+C <+C <+C <+C <+C <+C <+C <+C <+C <+C <+C <+C <+C <+C <+C <+C <+C <+C <+C <+C <+C <+C <+C <+C <+C <+C <+C <+C <+C <+C <+C <+C <+C <+C <+C <+C <+C <+C <+C <+C <+C <+C <+C <+C <+C <+C <+C <+C <+C <+C +C +C +C +C +C >C >C >C >C >C >C >C >C >C >C >C >C >C >C >C >C >C >C >C >C >C >C >C >C >C >C >C >C >C >C >C >C >C >C >C >C >C >C >C >C >C >C >C >C >C >C >C >C >C >C >C >C >C >C >C >C >C >C >C >C >C >C >C >C >C >C >C >C >C >C >C >C >C >C >C >C >C >C >C >C >C >C >C >C >C >C >C >C >C >C >C >C >C >C >C >C >C >C >C >C >C >C >C >C >C >C >C >C >C >C >C >C >C >C >C >C >C >C >C >C >C >C >C >C >C >C >C >C >C >C >C >C >C >C >C >C >C >C >C >C >C >C >C >C >C >C >C >C >C >C >C >C >C >C >C >C >C >C >C >C >C >C >C >C >C >C >C >C >C >C >C >C >C >C >C >C >C >C >C >C >C >C >C >C >C >C >C >C >C >C >C >C >C >C >C >C >C C C C C C C ?C ?C ?C ?C ?C ?C ?C ?C ?C ?C ?C ?C ?C ?C ?C ?C ?C ?C ?C ?C ?C ?C ?C ?C ?C ?C ?C ?C ?C ?C ?C ?C ?C ?C ?C ?C ?C ?C ?C ?C ?C ?C ?C ?C ?C ?C ?C ?C ?C ?C ?C ?C ?C ?C ?C ?C ?C ?C ?C ?C ?C ?C ?C ?C ?C ?C ?C ?C ?C ?C ?C ?C ?C ?C ?C ?C ?C ?C ?C ?C ?C ?C ?C ?C ?C ?C ?C ?C ?C ?C ?C ?C ?C ?C ?C ?C ?C ?C ?C ?C ?C ?C ?C ?C ?C ?C ?C ?C ?C ?C ?C ?C ?C ?C ?C ?C ?C ?C ?C ?C ?C ?C ?C ?C ?C ?C ?C ?C ?C ?C ?C ?C ?C ?C ?C ?C ?C ?C ?C ?C ?C ?C ?C ?C ?C ?C ?C ?C ?C ?C ?C ?C ?C ?C ?C ?C ?C ?C ?C ?C ?C ?C ?C ?C ?C ?C ?C ?C ?C ?C ?C ?C ?C ?C ?C ?C ?C ?C ?C ?C ?C ?C ?C ?C ?C ?C ?C ?C ?C ?C ?C ?C ?C ?C ?C ?C ?C ?C ?C ?C ?C ?C 6?C 6?C 6?C 6?C 6?C 6?C 6?C 6?C 6?C 6?C 6?C 6?C 6?C 6?C 6?C 6?C 6?C 6?C 6?C 6?C 6?C 6?C 6?C 6?C 6?C 6?C 6?C 6?C 6?C 6?C 6?C 6?C 6?C 6?C 6?C 6?C 6?C 6?C 6?C 6?C 6?C 6?C 6?C 6?C 6?C 6?C 6?C 6?C 6?C 6?C 6?C 6?C 6?C 6?C 6?C 6?C 6?C 6?C 6?C 6?C 6?C 6?C 6?C 6?C 6?C 6?C 6?C 6?C 6?C 6?C 6?C 6?C 6?C 6?C 6?C 6?C 6?C 6?C 6?C 6?C 6?C 6?C 6?C 6?C 6?C 6?C 6?C 6?C 6?C 6?C 6?C 6?C 6?C 6?C 6?C 6?C 6?C 6?C 6?C 6?C 6?C 6?C 6?C 6?C 6?C 6?C 6?C 6?C 6?C 6?C 6?C 6?C 6?C 6?C 6?C 6?C 6?C 6?C 6?C 6?C 6?C 6?C 6?C 6?C 6?C 6?C 6?C 6?C 6?C 6?C 6?C 6?C 6?C 6?C 6?C 6?C 6?C 6?C 6?C 6?C 6?C 6?C 6?C 6?C 6?C 6?C 6?C 6?C 6?C 6?C 6?C 6?C 6?C 6?C 6?C 6?C 6?C 6?C 6?C 6?C 6?C 6?C 6?C 6?C 6?C 6?C 6?C 6?C 6?C 6?C 6?C 6?C 6?C 6?C 6?C 6?C 6?C 6?C 6?C 6?C 6?C 6?C 6?C 6?C 6?C 6?C 6?C 6?C 6?C 6?C 6?C 6?C 6?C 6?C 6?C 6?C 6?C ?C C C C C C C:7 C:7 C:7 C:7 C:7 C:7 C:7 C:7 C:7 C:7 C:7 C:7 C:7 C:7 C:7 C:7 C:7 C:7 C:7 C:7 C:7 C:7 C:7 C:7 C:7 C:7 C:7 C:7 C:7 C:7 C:7 C:7 C:7 C:7 C:7 C:7 C:7 C:7 C:7 C:7 C:7 C:7 C:7 C:7 C:7 C:7 C:7 C:7 C:7 C:7 C:7 C:7 C:7 C:7 C:7 C:7 C:7 C:7 C:7 C:7 C:7 C:7 C:7 C:7 C:7 C:7 C:7 C:7 C:7 C:7 C:7 C:7 C:7 C:7 C:7 C:7 C:7 C:7 C:7 C:7 C:7 C:7 C:7 C:7 C:7 C:7 C:7 C:7 C:7 C:7 C:7 C:7 C:7 C:7 C:7 C:7 C:7 C:7 C:7 C:7 C:7 C:7 C:7 C:7 C:7 C:7 C:7 C:7 C:7 C:7 C:7 C:7 C:7 C:7 C:7 C:7> C:7> C:7> C:7> C:7> C:7> C:7> C:7> C:7> C:7> C:7> C:7> C:7> C:7> C:7> C:7> C:7> C:7> C:7> C:7> C:7> C:7> C:7> C:7> C:7> C:7> C:7> C:7> C:7> C:7> C:7> C:7> C:7> C:7> C:7> C:7> C:7> C:7> C:7> C:7> C:7> C:7> C:7> C:7> C:7> C:7> C:7> C:7> C:7> C:7> C:7> C:7> C:7> C:7> C:7> C:7> C:7> C:7> C:7> C:7> C:7> C:7> C:7> C:7> C:7> C:7> C:7> C:7> C:7> C:7> C:7> C:7> C:7> C:7> C:7> C:7> C:7> C:7> C:7> C:7> C:7> :7> :7> :7> :7> :7> :7> :7> :7> :7> :7> :7> :7> :7> :7> :7> :7> :7> :7> :7> :7> :7> :7> :7> :7> :7> :7> :7> :7> :7> :7> :7> :7> :7> :7> .:7C> .:7C> .:7C> .:7C> .:7C> .:7C> .:7C> .:7C> .:7C> .:7C> .:7C> .:7C> .:7C> .:7C> .:7C> .:7C> .:7C> .:7C> .:7C> .:7C> .:7C> .:7C> .:7C> .:7C> .:7C> .:7C> .:7C> .:7C> .:7C> .:7C> .:7C> .:7C> .:7C> .:7C> .:7C> .:7C> .:7C> .:7C> .:7C> .:7C> .:7C> .:7C> .:7C> .:7C> .:7C> .:7C> .:7C> .:7C> .:7C> .:7C> .:7C> .:7C> .:7C> .:7C> .:7C> .:7C> .:7C> .:7C> .:7C> .:7C> .:7C> .:7C> .:7C> .:7C> .:7C> .:7C> .:7C> .:7C> .:7C> .:7C> .:7C> .:7C> .:7C> .:7C> .:7C> .:7C> .:7C> .:7C> .:7C> .:7C> .:7C> .:7C> .:7C> .:7C> .:7C> .:7C> .:7C> .:7C> .:7C> .:7C> .:7C> .:7C> .:7C> .:7C> .:7C> .:7C> .:7C> .:7C> .:7C> .:7C> .:7C> .:7C> .:7C> .:7C> .:7C> .:7C> .:7C> .:7C> .:7C> .:7C> .:7C> .:7C> .:7C> .:7C> .:7C> .:7C> .:7C> .:7C> .:7C> .:7C> .:7C> .:7C> .:7C> .:7C> .:7C> .:7C> .:7C> .:7C> .:7C> .:7C> .:7C> .:7C> .:7C> .:7C> .:7C> .:7C> .:7C> .:7C> .:7C> .:7C> .:7C> .:7C> .:7C> .:7C> .:7C> .:7C> .:7C> .:7C> .:7C> .:7C> .:7C> .:7C> .:7C> .:7C> .:7C> .:7C> .:7C> .:7C> .:7C> .:7C> .:7C> .:7C> .:7C> .:7C> .:7C> .:7C> .:7C> .:7C> .:7C> .:7C> .:7C> .:7C> .:7C> .:7C> .:7C> .:7C> .:7C> .:7C> .:7C> .:7C> .:7C> .:7C> .:7C> .:7C> .:7C> .:7C> .:7C> .:7C> .:7C> .:7C> .:7C> .:7C> .:7C> .:7C> .:7C> .:7C> .:7C> .:7C> .:7C> .:7C> .:7C> .:7C> .:7C> .:7C> .:7C> .:7C> .:7C> .:7C> .:7C> .:7C> .:7C> .:7C> .:7C> .:7C> .:7C> .:7C> .:7C> .:7C> .:7C> .:7C> .:7C> .:7C> .:7C> .:7C> .:7C> :7C> :7C> :7C> :7C> :7C> 0:7C> 0:7C> 0:7C> 0:7C> 0:7C> 0:7C> 0:7C> 0:7C> 0:7C> 0:7C> 0:7C> 0:7C> 0:7C> 0:7C> 0:7C> 0:7C> 0:7C> 0:7C> 0:7C> 0:7C> 0:7C> 0:7C> 0:7C> 0:7C> 0:7C> 0:7C> 0:7C> 0:7C> 0:7C> 0:7C> 0:7C> 0:7C> 0:7C> 0:7C> 0:7C> 0:7C> 0:7C> 0:7C> 0:7C> 0:7C> 0:7C> 0:7C> 0:7C> 0:7C> 0:7C> 0:7C> 0:7C> 0:7C> 0:7C> 0:7C> 0:7C> 0:7C> 0:7C> 0:7C> 0:7C> 0:7C> 0:7C> 0:7C> 0:7C> 0:7C> 0:7C> 0:7C> 0:7C> 0:7C> 0:7C> 0:7C> 0:7C> 0:7C> 0:7C> 0:7C> 0:7C> 0:7C> 0:7C> 0:7C> 0:7C> 0:7C> 0:7C> 0:7C> 0:7C> 0:7C> 0:7C> 0:7C> 0:7C> 0:7C> 0:7C> 0:7C> 0:7C> 0:7C> 0:7C> 0:7C> 0:7C> 0:7C> 0:7C> 0:7C> 0:7C> 0:7C> 0:7C> 0:7C> 0:7C> 0:7C> 0:7C> 0:7C> 0:7C> 0:7C> 0:7C> 0:7C> 0:7C> 0:7C> 0:7C> 0:7C> 0:7C> 0:7C> 0:7C> 0:7C> 0:7C> 0:7C> 0:7C> 0:7C> 0:7C> 0:7C> 0:7C> 0:7C> 0:7C> 0:7C> 0:7C> 0:7C> 0:7C> 0:7C> 0:7C> 0:7C> 0:7C> 0:7C> 0:7C> 0:7C> 0:7C> 0:7C> 0:7C> 0:7C> 0:7C> 0:7C> 0:7C> 0:7C> 0:7C> 0:7C> 0:7C> 0:7C> 0:7C> 0:7C> 0:7C> 0:7C> 0:7C> 0:7C> 0:7C> 0:7C> 0:7C> 0:7C> 0:7C> 0:7C> 0:7C> 0:7C> 0:7C> 0:7C> 0:7C> 0:7C> 0:7C> 0:7C> 0:7C> 0:7C> 0:7C> 0:7C> 0:7C> 0:7C> 0:7C> 0:7C> 0:7C> 0:7C> 0:7C> 0:7C> 0:7C> 0:7C> 0:7C> 0:7C> 0:7C> 0:7C> 0:7C> 0:7C> 0:7C> 0:7C> 0:7C> 0:7C> 0:7C> 0:7C> 0:7C> 0:7C> 0:7C> 0:7C> 0:7C> 0:7C> 0:7C> 0:7C> 0:7C> 0:7C> 0:7C> 0:7C> 0:7C> 0:7C> 0:7C> 0:7C> 0:7C> 0:7C> 0:7C> 0:7C> 0:7C> 0:7C> 0:7C> 0:7C> 0:7C> 0:7C> 0:7C> 0:7C> 0:7C> 0:7C> 0:7C> 0:7C> 0:7C> :7C> :7C> :7C> :7C> :7C> 2:7C> 2:7C> 2:7C> 2:7C> 2:7C> 2:7C> 2:7C> 2:7C> 2:7C> 2:7C> 2:7C> 2:7C> 2:7C> 2:7C> 2:7C> 2:7C> 2:7C> 2:7C> 2:7C> 2:7C> 2:7C> 2:7C> 2:7C> 2:7C> 2:7C> 2:7C> 2:7C> 2:7C> 2:7C> 2:7C> 2:7C> 2:7C> 2:7C> 2:7C> 2:7C> 2:7C> 2:7C> 2:7C> 2:7C> 2:7C> 2:7C> 2:7C> 2:7C> 2:7C> 2:7C> 2:7C> 2:7C> 2:7C> 2:7C> 2:7C> 2:7C> 2:7C> 2:7C> 2:7C> 2:7C> 2:7C> 2:7C> 2:7C> 2:7C> 2:7C> 2:7C> 2:7C> 2:7C> 2:7C> 2:7C> 2:7C> 2:7C> 2:7C> 2:7C> 2:7C> 2:7C> 2:7C> 2:7C> 2:7C> 2:7C> 2:7C> 2:7C> 2:7C> 2:7C> 2:7C> 2:7C> 2:7C> 2:7C> 2:7C> 2:7C> 2:7C> 2:7C> 2:7C> 2:7C> 2:7C> 2:7C> 2:7C> 2:7C> 2:7C> 2:7C> 2:7C> 2:7C> 2:7C> 2:7C> 2:7C> 2:7C> 2:7C> 2:7C> 2:7C> 2:7C> 2:7C> 2:7C> 2:7C> 2:7C> 2:7C> 2:7C> 2:7C> 2:7C> 2:7C> 2:7C> 2:7C> 2:7C> 2:7C> 2:7C> 2:7C> 2:7C> 2:7C> 2:7C> 2:7C> 2:7C> 2:7C> 2:7C> 2:7C> 2:7C> 2:7C> 2:7C> 2:7C> 2:7C> 2:7C> 2:7C> 2:7C> 2:7C> 2:7C> 2:7C> 2:7C> 2:7C> 2:7C> 2:7C> 2:7C> 2:7C> 2:7C> 2:7C> 2:7C> 2:7C> 2:7C> 2:7C> 2:7C> 2:7C> 2:7C> 2:7C> 2:7C> 2:7C> 2:7C> 2:7C> 2:7C> 2:7C> 2:7C> 2:7C> 2:7C> 2:7C> 2:7C> 2:7C> 2:7C> 2:7C> 2:7C> 2:7C> 2:7C> 2:7C> 2:7C> 2:7C> 2:7C> 2:7C> 2:7C> 2:7C> 2:7C> 2:7C> 2:7C> 2:7C> 2:7C> 2:7C> 2:7C> 2:7C> 2:7C> 2:7C> 2:7C> 2:7C> 2:7C> 2:7C> 2:7C> 2:7C> 2:7C> 2:7C> 2:7C> 2:7C> 2:7C> 2:7C> 2:7C> 2:7C> 2:7C> 2:7C> 2:7C> 2:7C> 2:7C> 2:7C> 2:7C> 2:7C> 2:7C> 2:7C> 2:7C> 2:7C> 2:7C> 2:7C> 2:7C> 2:7C> 2:7C> 2:7C> 2:7C> 2:7C> 2:7C> 2:7C> 2:7C> 2:7C> 2:7C> 2:7C> 2:7C> 2:7C> 2:7C> 2:7C> 2:7C> 2:7C> 2:7C> 2:7C> 2:7C> 2:7C> 2:7C> 2:7C> 2:7C> 2:7C> 2:7C> 2:7C> 2:7C> 2:7C> 2:7C> 2:7C> 2:7C> 2:7C> 2:7C> 2:7C> 2:7C> 2:7C> 2:7C> 2:7C> 2:7C> 2:7C> 2:7C> 2:7C> 2:7C> 2:7C> 2:7C> 2:7C> 2:7C> 2:7C> 2:7C> 2:7C> 2:7C> 2:7C> 2:7C> 2:7C> 2:7C> :7C> :7C> :7C> :7C> :7C>+ :7C>+ :7C>+ :7C>+ :7C>+ :7C>+ :7C>+ :7C>+ :7C>+ :7C>+ :7C>+ :7C>+ :7C>+ :7C>+ :7C>+ :7C>+ :7C>+ :7C>+ :7C>+ :7C>+ :7C>+ :7C>+ :7C>+ :7C>+ :7C>+ :7C>+ :7C>+ :7C>+ :7C>+ :7C>+ :7C>+ :7C>+ :7C>+ :7C>+ :7C>+ :7C>+ :7C>+ :7C>+ :7C>+ :7C>+ :7C>+ :7C>+ :7C>+ :7C>+ :7C>+ :7C>+ :7C>+ :7C>+ :7C>+ :7C>+ :7C>+ :7C>+ :7C>+ :7C>+ :7C>+ :7C>+ :7C>+ :7C>+ :7C>+ :7C>+ :7C>+ :7C>+ :7C>+ :7C>+ :7C>+ :7C>+ :7C>+ :7C>+ :7C>+ :7C>+ :7C>+ :7C>+ :7C>+ :7C>+ :7C>+ :7C>+ :7C>+ :7C>+ :7C>+ :7C>+ :7C>+ :7C>+ :7C>+ :7C>+ :7C>+ :7C>+ :7C>+ :7C>+ :7C>+ :7C>+ :7C>+ :7C>+ :7C>+ :7C>+ :7C>+ :7C>+ :7C>+ :7C>+ :7C>+ :7C>+ :7C>+ :7C>+ :7C>+ :7C>+ :7C>+ :7C>+ :7C>+ :7C>+ :7C>+ :7C>+ :7C>+ :7C>+ :7C>+ :7C>+ :7C>+ :7C>+ :7C>+ :7C>+ :7C>+ :7C>+ :7C>+ :7C>+ :7C>+ :7C>+ :7C>+ :7C>+ :7C>+ :7C>+ :7C>+ :7C>+ :7C>+ :7C>+ :7C>+ :7C>+ :7C>+ :7C>+ :7C>+ :7C>+ :7C>+ :7C>+ :7C>+ :7C>+ :7C>+ :7C>+ :7C>+ :7C>+ :7C>+ :7C>+ :7C>+ :7C>+ :7C>+ :7C>+ :7C>+ :7C>+ :7C>+ :7C>+ :7C>+ :7C>+ :7C>+ :7C>+ :7C>+ :7C>+ :7C>+ :7C>+ :7C>+ :7C>+ :7C>+ :7C>+ :7C>+ :7C>+ :7C>+ :7C>+ :7C>+ :7C>+ :7C>+ :7C>+ :7C>+ :7C>+ :7C>+ :7C>+ :7C>+ :7C>+ :7C>+ :7C>+ :7C>+ :7C>+ :7C>+ :7C>+ :7C>+ :7C>+ :7C>+ :7C>+ :7C>+ :7C>+ :7C>+ :7C>+ :7C>+ :7C>+ :7C>+ :7C>+ :7C>+ :7C>+ :7C>+ :7C>+ :7C>+ :7C>+ :7C>+ :7C>+ :7C>+ :7C>+ :7C>+ :7C>+ :7C>+ :7C>+ :7C>+ :7C>+ :7C>+ :7C>+ :7C>+ :7C>+ :7C>+ :7C>+ :7C>+ :7C>+ :7C>+ :7C>+ :7C>+ :7C>+ :7C>+ :7C>+ :7C>+ :7C>+ :7C>+ :7C>+ :7C>+ :7C>+ :7C>+ :7C>+ :7C>+ :7C>+ :7C>+ :7C>+ :7C>+ :7C>+ :7C>+ :7C>+ :7C>+ :7C>+ :7C>+ :7C>+ :7C>+ :7C>+ :7C>+ :7C>+ :7C>+ :7C>+ :7C>+ :7C>+ :7C>+ :7C>+ :7C>+ :7C>+ :7C>+ :7C>+ :7C>+ :7C>+ :7C>+ :7C>+ :7C>+ :7C>+ :7C>+ :7C>+ :7C>+ :7C>+ :7C>+ :7C>+ :7C>+ :7C>+ :7C>+ :7C>+ :7C>+ :7C>+ :7C>+ :7C>+ :7C>+ :7C>+ :7C>+ :7C>+ :7C>+ :7C>+ :7C>+ :7C>+ :7C>+ :7C>+ :7C>+ :7C>+ :7C>+ :7C>+ :7C>+ :7C>+ :7C>+ :7C>+ :7C>+ :7C>+ :7C>+ :7C>+ :7C>+ :7C>+ :7C>+ :7C>+ :7C>+ :7C>+ :7C>+ :7C>+ :7C>+ :7C>+ :7C>+ :7C>+ :7C>+ :7C>+ :7C>+ :7C>+ :7C>+ :7C>+ :7C>+ :7C>+ :7C>+ :7C>+ :7C>+ :7C>+ :7C>+ :7C>+ :7C>+ :7C>+ :7C>+ :7C>+ :7C>+ :7C>+ :7C>+ :7C>+ :7C>+ :7C>+ :7C>+ :7C>+ :7C>+ :7C>+ :7C>+ :7C>+ :7C>+ :7C>+ :7C>+ :7C>+ :7C>+ :7C>+ :7C>+ :7C>+ :7C>+ :7C>+ :7C>+ :7C>+ :7C>+ :7C>+ :7C>+ :7C>+ :7C>+ :7C>+ :7C>+ :7C>+ :7C>+ :7C>+ :7C>+ :7C>+ :7C>+ :7C>+ :7C>+ :7C>+ :7C>+ :7C>+ :7C>+ :7C>+ :7C>+ :7C>+ :7C>+ :7C>+ :7C>+ :7C>+ :7C>+ :7C>+ :7C>+ :7C>+ :7C>+ :7C>+ :7C>+ :7C>+ :7C>+ :7C>+ :7C>+ :7C>+ :7C>+ :7C>+ :7C>+ :7C>+ :7C>+ :7C>+ :7C>+ :7C>+ :7C>+ :7C>+ :7C>+ :7C>+ :7C>+ :7C>+ :7C>+ :7C>+ :7C>+ :7C>+ :7C>+ :7C>+ :7C>+ :7C>+ :7C>+ :7C>+ :7C>+ :7C>+ :7C>+ :7C>+ :7C>+ :7C>+ :7C>+ :7C>+ :7C>+ :7C>+ :7C>+ :7C>+ :7C>+ :7C>+ :7C>+ :7C>+ :7C>+ :7C>+ :7C>+ :7C>+ :7C>+ :7C>+ :7C>+ :7C>+ :7C>+ :7C>+ :7C>+ :7C>+ :7C>+ :7C>+ :7C>+ :7C>+ :7C>+ :7C>+ :7C>+ :7C>+ :7C>+ :7C>+ :7C>+ :7C>+ :7C>+ :7C>+ :7C>+ :7C>+ :7C>+ :7C>+ :7C>+ :7C>+ :7C>+ :7C>+ :7C>+ :7C>+ :7C>+ :7C>+ :7C>+ :7C>+ :7C>+ :7C>+ :7C>+ :7C>+ :7C>+ :7C>+ :7C>+ :7C>+ :7C>+ :7C>+ :7C>+ :7C>+ :7C>+ :7C>+ :7C>+ :7C>+ :7C>+ :7C>+ :7C>+ :7C>+ :7C>+ :7C>+ :7C>+ :7C>+ :7C>+ :7C>+ :7C>+ :7C>+ :7C>+ :7C>+ :7C>+ :7C>+ :7C>+ :7C>+ :7C>+ :7C>+ :7C>+ :7C>+ :7C>+ :7C>+ :7C>+ :7C>+ :7C>+ :7C>+ :7C>+ :7C>+ :7C>+ :7C>+ :7C>+ :7C>+ :7C>+ :7C>+ :7C>+ :7C>+ :7C>+ :7C>+ :7C>+ :7C>+ :7C>+ :7C>+ :7C>+ :7C>+ :7C>+ :7C>+ :7C>+ :7C>+ :7C>+ :7C>+ :7C>+ :7C>+ :7C>+ :7C>+ :7C>+ :7C>+ :7C>+ :7C>+ :7C>+ :7C>+ :7C>+ :7C>+ :7C>+ :7C>+ :7C>+ :7C>+ :7C>+ :7C>+ :7C>+ :7C>+ :7C>+ :7C>+ :7C>+ :7C>+ :7C>+ :7C>+ :7C>+ :7C>+ :7C>+ :7C>+ :7C>+ :7C>+ :7C>+ :7C>+ :7C>+ :7C>+ :7C>+ :7C>+ :7C>+ :7C>+ :7C>+ :7C>+ :7C>+ :7C>+ :7C>+ :7C>+ :7C>+ :7C>+ :7C>+ :7C>+ :7C>+ :7C>+ :7C>+ :7C>+ :7C>+ :7C>+ :7C>+ :7C>+ :7C>+ :7C>+ :7C>+ :7C>+ :7C>+ :7C>+ :7C>+ :7C>+ :7C>+ :7C>+ :7C>+ :7C>+ :7C>+ :7C>+ :7C>+ :7C>+ :7C>+ :7C>+ :7C>+ :7C>+ :7C>+ :7C>+ :7C>+ :7C>+ :7C>+ :7C>+ :7C>+ :7C>+ :7C>+ :7C>+ :7C>+ :7C>+ :7C>+ :7C>+ :7C>+ :7C>+ :7C>+ :7C>+ :7C>+ :7C>+ :7C>+ :7C>+ :7C>+ :7C>+ :7C>+ :7C>+ :7C>+ :7C>+ :7C>+ :7C>+ :7C>+ :7C>+ :7C>+ :7C>+ :7C>+ :7C>+ :7C>+ :7C>+ :7C>+ :7C>+ :7C>+ :7C>+ :7C>+ :7C>+ :7C>+ :7C>+ :7C>+ :7C>+ :7C>+ :7C>+ :7C>+ :7C>+ :7C>+ :7C>+ :7C>+ :7C>+ :7C>+ :7C>+ :7C>+ :7C>+ :7C>+ :7C>+ :7C>+ :7C>+ :7C>+ :7C>+ :7C>+ :7C>+ :7C>+ :7C>+ :7C>+ :7C>+ :7C>+ :7C>+ :7C>+ :7C>+ :7C>+ :7C>+ :7C>+ :7C>+ :7C>+ :7C>+ :7C>+ :7C>+ :7C>+ :7C>+ :7C>+ :7C>+ :7C>+ :7C>+ :7C>+ :7C>+ :7C>+ :7C>+ :7C>+ :7C>+ :7C>+ :7C>+ :7C>+ :7C>+ :7C>+ :7C>+ :7C>+ :7C>+ :7C>+ :7C>+ :7C>+ :7C>+ :7C>+ :7C>+ :7C>+ :7C>+ :7C>+ :7C>+ :7C>+ :7C>+ :7C>+ :7C>+ :7C>+ :7C>+ :7C>+ :7C>+ :7C>+ :7C>+ :7C>+ :7C>+ :7C>+ :7C>+ :7C>+ :7C>+ :7C>+ :7C>+ :7C>+ :7C>+ :7C>+ :7C>+ :7C>+ :7C>+ :7C>+ :7C>+ :7C>+ :7C>+ :7C>+ :7C>+ :7C>+ :7C>+ :7C>+ :7C>+ :7C>+ :7C>+ :7C>+ :7C>+ :7C>+ :7C>+ :7C>+ :7C>+ :7C>+ :7C>+ :7C>+ :7C>+ :7C>+ :7C>+ :7C>+ :7C>+ :7C>+ :7C>+ :7C>+ :7C>+ :7C>+ :7C>+ :7C>+ :7C>+ :7C>+ :7C>+ :7C>+ :7C>+ :7C>+ :7C>+ :7C>+ :7C>+ :7C>+ :7C>+ :7C>+ :7C>+ :7C>+ :7C>+ :7C>+ :7C>+ :7C>+ :7C>+ :7C>+ :7C>+ :7C>+ :7C>+ :7C>+ :7C>+ :7C>+ :7C>+ :7C>+ :7C>+ :7C>+ :7C>+ :7C>+ :7C>+ :7C>+ :7C>+ :7C>+ :7C>+ :7C>+ :7C>+ :7C>+ :7C>+ :7C>+ :7C>+ :7C>+ :7C>+ :7C>+ :7C>+ :7C>+ :7C>+ :7C>+ :7C>+ :7C>+ :7C>+ :7C>+ :7C>+ :7C>+ :7C>+ :7C>+ :7C>+ :7C>+ :7C>+ :7C>+ :7C>+ :7C>+ :7C>+ :7C>+ :7C>+ :7C>+ :7C>+ :7C>+ :7C>+ :7C>+ :7C>+ :7C>+ :7C>+ :7C>+ :7C>+ :7C>+ :7C>+ :7C>+ :7C>+ :7C>+ :7C>+ :7C>+ :7C>+ :7C>+ :7C>+ :7C>+ :7C>+ :7C>+ :7C>+ :7C>+ :7C>+ :7C>+ :7C>+ :7C>+ :7C>+ :7C>+ :7C>+ :7C>+ :7C>+ :7C>+ :7C>+ :7C>+ :7C>+ :7C>+ :7C>+ :7C>+ :7C>+ :7C>+ :7C>+ :7C>+ :7C>+ :7C>+ :7C>+ :7C>+ :7C>+ :7C>+ :7C>+ :7C>+ :7C>+ :7C>+ :7C>+ :7C>+ :7C>+ :7C>+ :7C>+ :7C>+ :7C>+ :7C>+ :7C>+ :7C>+ :7C>+ :7C>+ :7C>+ :7C>+ :7C>+ :7C>+ :7C>+ :7C>+ :7C>+ :7C>+ :7C>+ :7C>+ :7C>+ :7C>+ :7C>+ :7C>+ :7C>+ :7C>+ :7C>+ :7C>+ :7C>+ :7C>+ :7C>+ :7C>+ :7C>+ :7C>+ :7C>+ :7C>+ :7C>+ :7C>+ :7C>+ :7C>+ :7C>+ :7C>+ :7C>+ :7C>+ :7C>+ :7C>+ :7C>+ :7C>+ :7C>+ :7C>+ :7C>+ :7C>+ :7C>+ :7C>+ :7C>+ :7C>+ :7C>+ :7C>+ :7C>+ :7C>+ :7C>+ :7C>+ :7C>+ :7C>+ :7C>+ :7C>+ :7C>+ :7C>+ :7C>+ :7C>+ :7C>+ :7C>+ :7C>+ :7C>+ :7C>+ :7C>+ :7C>+ :7C>+ :7C>+ :7C>+ :7C>+ :7C>+ :7C>+ :7C>+ :7C>+ :7C>+ :7C>+ :7C>+ :7C>+ :7C>+ :7C>+ :7C>+ :7C>+ :7C>+ :7C>+ :7C>+ :7C>+ :7C>+ :7C>+ :7C>+ :7C>+ :7C>+ :7C>+ :7C>+ :7C>+ :7C>+ :7C>+ :7C>+ :7C>+ :7C>+ :7C>+ :7C>+ :7C>+ :7C>+ :7C>+ :7C>+ :7C>+ :7C>+ :7C>+ :7C>+ :7C>+ :7C>+ :7C>+ :7C>+ :7C>+ :7C>+ :7C>+ :7C>+ :7C>+ :7C>+ :7C>+ :7C>+ :7C>+ :7C>+ :7C>+ :7C>+ :7C>+ :7C>+ :7C>+ :7C>+ :7C>+ :7C>+ :7C>+ :7C>+ :7C>+ :7C>+ :7C>+ :7C>+ :7C>+ :7C>+ :7C>+ :7C>+ :7C>+ :7C>+ :7C>+ :7C>+ :7C>+ :7C>+ :7C>+ :7C>+ :7C>+ :7C>+ :7C>+ :7C>+ :7C>+ :7C>+ :7C>+ :7C>+ :7C>+ :7C>+ :7C>+ :7C>+ :7C>+ :7C>+ :7C>+ :7C>+ :7C>+ :7C>+ :7C>+ :7C>+ :7C>+ :7C>+ :7C>+ :7C>+ :7C>+ :7C>+ :7C>+ :7C>+ :7C>+ :7C>+ :7C>+ :7C>+ :7C>+ :7C>+ :7C>+ :7C>+ :7C>+ :7C>+ :7C>+ :7C>+ :7C>+ :7C>+ :7C>+ :7C>+ :7C>+ :7C>+ :7C>+ :7C>+ :7C>+ :7C>+ :7C>+ :7C>+ :7C>+ :7C>+ :7C>+ :7C>+ :7C>+ :7C>+ :7C>+ :7C>+ :7C>+ :7C>+ :7C>+ :7C>+ :7C>+ :7C>+ :7C>+ :7C>+ :7C>+ :7C>+ :7C>+ :7C>+ :7C>+ :7C>+ :7C>+ :7C>+ :7C>+ :7C>+ :7C>+ :7C>+ :7C>+ :7C>+ :7C>+ :7C>+ :7C>+ :7C>+ :7C>+ :7C>+ :7C>+ :7C>+ :7C>+ :7C>+ :7C>+ :7C>+ :7C>+ :7C>+ :7C>+ :7C>+ :7C>+ :7C>+ :7C>+ :7C>+ :7C>+ :7C>+ :7C>+ :7C>+ :7C>+ :7C>+ :7C>+ :7C>+ :7C>+ :7C>+ :7C>+ :7C>+ :7C>+ :7C>+ :7C>+ :7C>+ :7C>+ :7C>+ :7C>+ :7C>+ :7C>+ :7C>+ :7C>+ :7C>+ :7C>+ :7C>+ :7C>+ :7C>+ :7C>+ :7C>+ :7C>+ :7C>+ :7C>+ :7C>+ :7C>+ :7C>+ :7C>+ :7C>+ :7C>+ :7C>+ :7C>+ :7C>+ :7C>+ :7C>+ :7C>+ :7C>+ :7C>+ :7C>+ :7C>+ :7C>+ :7C>+ :7C>+ :7C>+ :7C>+ :7C>+ :7C>+ :7C>+ :7C>+ :7C>+ :7C>+ :7C>+ :7C>+ :7C>+ :7C>+ :7C>+ :7C>+ :7C>+ :7C>+ :7C>+ :7C>+ :7C>+ :7C>+ :7C>+ :7C>+ :7C>+ :7C>+ :7C>+ :7C>+ :7C>+ :7C>+ :7C>+ :7C>+ :7C>+ :7C>+ :7C>+ :7C>+ :7C>+ :7C>+ :7C>+ :7C>+ :7C>+ :7C>+ :7C>+ :7C>+ :7C>+ :7C>+ :7C>+ :7C>+ :7C>+ :7C>+ :7C>+ :7C>+ :7C>+ :7C>+ :7C>+ :7C>+ :7C>+ :7C>+ :7C>+ :7C>+ :7C>+ :7C>+ :7C>+ :7C>+ :7C>+ :7C>+ :7C>+ :7C>+ :7C>+ :7C>+ :7C>+ :7C>+ :7C>+ :7C>+ :7C>+ :7C>+ :7C>+ :7C>+ :7C>+ :7C>+ :7C>+ :7C>+ :7C>+ :7C>+ :7C>+ :7C>+ :7C>+ :7C>+ :7C>+ :7C>+ :7C>+ :7C>+ :7C>+ :7C>+ :7C>+ :7C>+ :7C>+ :7C>+ :7C>+ :7C>+ :7C>+ :7C>+ :7C>+ :7C>+ :7C>+ :7C>+ :7C>+ :7C>+ :7C>+ :7C>+ :7C>+ :7C>+ :7C>+ :7C>+ :7C>+ :7C>+ :7C>+ :7C>+ :7C>+ :7C>+ :7C>+ :7C>+ :7C>+ :7C>+ :7C>+ :7C>+ :7C>+ :7C>+ :7C>+ :7C>+ :7C>+ :7C>+ :7C>+ :7C>+ :7C>+ :7C>+ :7C>+ :7C>+ :7C>+ :7C>+ :7C>+ :7C>+ :7C>+ :7C>+ :7C>+ :7C>+ :7C>+ :7C>+ :7C>+ :7C>+ :7C>+ :7C>+ :7C>+ :7C>+ :7C>+ :7C>+ :7C>+ :7C>+ :7C>+ :7C>+ :7C>+ :7C>+ :7C>+ :7C>+ :7C>+ :7C>+ :7C>+ :7C>+ :7C>+ :7C>+ :7C>+ :7C>+ :7C>+ :7C>+ :7C>+ :7C>+ :7C>+ :7C>+ :7C>+ :7C>+ :7C>+ :7C>+ :7C>+ :7C>+ :7C>+ :7C>+ :7C>+ :7C>+ :7C>+ :7C>+ :7C>+ :7C>+ :7C>+ :7C>+ :7C>+ :7C>+ :7C>+ :7C>+ :7C>+ :7C>+ :7C>+ :7C>+ :7C>+ :7C>+ :7C>+ :7C>+ :7C>+ :7C>+ :7C>+ :7C>+ :7C>+ :7C>+ :7C>+ :7C>+ :7C>+ :7C>+ :7C>+ :7C>+ :7C>+ :7C>+ :7C>+ :7C>+ :7C>+ :7C>+ :7C>+ :7C>+ :7C>+ :7C>+ :7C>+ :7C>+ :7C>+ :7C>+ :7C>+ :7C>+ :7C>+ :7C>+ :7C>+ :7C>+ :7C>+ :7C>+ :7C>+ :7C>+ :7C>+ :7C>+ :7C>+ :7C>+ :7C>+ :7C>+ :7C>+ :7C>+ :7C>+ :7C>+ :7C>+ :7C>+ :7C>+ :7C>+ :7C>+ :7C>+ :7C>+ :7C>+ :7C>+ :7C>+ :7C>+ :7C>+ :7C>+ :7C>+ :7C>+ :7C>+ :7C>+ :7C>+ :7C>+ :7C>+ :7C>+ :7C>+ :7C>+ :7C>+ :7C>+ :7C>+ :7C>+ :7C>+ :7C>+ :7C>+ :7C>+ :7C>+ :7C>+ :7C>+ :7C>+ :7C>+ :7C>+ :7C>+ :7C>+ :7C>+ :7C>+ :7C>+ :7C>+ :7C>+ :7C>+ :7C>+ :7C>+ :7C>+ :7C>+ :7C>+ :7C>+ :7C>+ :7C>+ :7C>+ :7C>+ :7C>+ :7C>+ :7C>+ :7C>+ :7C>+ :7C>+ :7C>+ :7C>+ :7C>+ :7C>+ :7C>+ :7C>+ :7C>+ :7C>+ :7C>+ :7C>+ :7C>+ :7C>+ :7C>+ :7C>+ :7C>+ :7C>+ :7C>+ :7C>+ :7C>+ :7C>+ :7C>+ :7C>+ :7C>+ :7C>+ :7C>+ :7C>+ :7C>+ :7C>+ :7C>+ :7C>+ :7C>+ :7C>+ :7C>+ :7C>+ :7C>+ :7C>+ :7C>+ :7C>+ :7C>+ :7C>+ :7C>+ :7C>+ :7C>+ :7C>+ :7C>+ :7C>+ :7C>+ :7C>+ :7C>+ :7C>+ :7C>+ :7C>+ :7C>+ :7C>+ :7C>+ :7C>+ :7C>+ :7C>+ :7C>+ :7C>+ :7C>+ :7C>+ :7C>+ :7C>+ :7C>+ :7C>+ :7C>+ :7C>+ :7C>+ :7C>+ :7C>+ :7C>+ :7C>+ :7C>+ :7C>+ :7C>+ :7C>+ :7C>+ :7C>+ :7C>+ :7C>+ :7C>+ :7C>+ :7C>+ :7C>+ :7C>+ :7C>+ :7C>+ :7C>+ :7C>+ :7C>+ :7C>+ :7C>+ :7C>+ :7C>+ :7C>+ :7C>+ :7C>+ :7C>+ :7C>+ :7C>+ :7C>+ :7C>+ :7C>+ :7C>+ :7C>+ :7C>+ :7C>+ :7C>+ :7C>+ :7C>+ :7C>+ :7C>+ :7C>+ :7C>+ :7C>+ :7C>+ :7C>+ :7C>+ :7C>+ :7C>+ :7C>+ :7C>+ :7C>+ :7C>+ :7C>+ :7C>+ :7C>+ :7C>+ :7C>+ :7C>+ :7C>+ :7C>+ :7C>+ :7C>+ :7C>+ :7C>+ :7C>+ :7C>+ :7C>+ :7C>+ :7C>+ :7C>+ :7C>+ :7C>+ :7C>+ :7C>+ :7C>+ :7C>+ :7C>+ :7C>+ :7C>+ :7C>+ :7C>+ :7C>+ :7C>+ :7C>+ :7C>+ :7C>+ :7C>+ :7C>+ :7C>+ :7C>+ :7C>+ :7C>+ :7C>+ :7C>+ :7C>+ :7C>+ :7C>+ :7C>+ :7C>+ :7C>+ :7C>+ :7C>+ :7C>+ :7C>+ :7C>+ :7C>+ :7C>+ :7C>+ :7C>+ :7C>+ :7C>+ :7C>+ :7C>+ :7C>+ :7C>+ :7C>+ :7C>+ :7C>+ :7C>+ :7C>+ :7C>+ :7C>+ :7C>+ :7C>+ :7C>+ :7C>+ :7C>+ :7C>+ :7C>+ :7C>+ :7C>+ :7C>+ :7C>+ :7C>+ :7C>+ :7C>+ :7C>+ :7C>+ :7C>+ :7C>+ :7C>+ :7C>+ :7C>+ :7C>+ :7C>+ :7C>+ :7C>+ :7C>+ :7C>+ :7C>+ :7C>+ :7C>+ :7C>+ :7C>+ :7C>+ :7C>+ :7C>+ :7C>+ :7C>+ :7C>+ :7C>+ :7C>+ :7C>+ :7C>+ :7C>+ :7C>+ :7C>+ :7C>+ :7C>+ :7C>+ :7C>+ :7C>+ :7C>+ :7C>+ :7C>+ :7C>+ :7C>+ :7C>+ :7C>+ :7C>+ :7C>+ :7C>+ :7C>+ :7C>+ :7C>+ :7C>+ :7C>+ :7C>+ :7C>+ :7C>+ :7C>+ :7C>+ :7C>+ :7C>+ :7C>+ :7C>+ :7C>+ :7C>+ :7C>+ :7C>+ :7C>+ :7C>+ :7C>+ :7C>+ :7C>+ :7C>+ :7C>+ :7C>+ :7C>+ :7C>+ :7C>+ :7C>+ :7C>+ :7C>+ :7C>+ :7C>+ :7C>+ :7C>+ :7C>+ :7C>+ :7C>+ :7C>+ :7C>+ :7C>+ :7C>+ :7C>+ :7C>+ :7C>+ :7C>+ :7C>+ :7C>+ :7C>+ :7C>+ :7C>+ :7C>+ :7C>+ :7C>+ :7C>+ :7C>+ :7C>+ :7C>+ :7C>+ :7C>+ :7C>+ :7C>+ :7C>+ :7C>+ :7C>+ :7C>+ :7C>+ :7C>+ :7C>+ :7C>+ :7C>+ :7C>+ :7C>+ :7C>+ :7C>+ :7C>+ :7C>+ :7C>+ :7C>+ :7C>+ :7C>+ :7C>+ :7C>+ :7C>+ :7C>+ :7C>+ :7C>+ :7C>+ :7C>+ :7C>+ :7C>+ :7C>+ :7C>+ :7C>+ :7C>+ :7C>+ :7C>+ :7C>+ :7C>+ :7C>+ :7C>+ :7C>+ :7C>+ :7C>+ :7C>+ :7C>+ :7C>+ :7C>+ :7C>+ :7C>+ :7C>+ :7C>+ :7C>+ :7C>+ :7C>+ :7C>+ :7C>+ :7C>+ :7C>+ :7C>+ :7C>+ :7C>+ :7C>+ :7C>+ :7C>+ :7C>+ :7C>+ :7C>+ :7C>+ :7C>+ :7C>+ :7C>+ :7C>+ :7C>+ :7C>+ :7C>+ :7C>+ :7C>+ :7C>+ :7C>+ :7C>+ :7C>+ :7C>+ :7C>+ :7C>+ :7C>+ :7C>+ :7C>+ :7C>+ :7C>+ :7C>+ :7C>+ :7C>+ :7C>+ :7C>+ :7C>+ :7C>+ :7C>+ :7C>+ :7C>+ :7C>+ :7C>+ :7C>+ :7C>+ :7C>+ :7C>+ :7C>+ :7C>+ :7C>+ :7C>+ :7C>+ :7C>+ :7C>+ :7C>+ :7C>+ :7C>+ :7C>+ :7C>+ :7C>+ :7C>+ :7C>+ :7C>+ :7C>+ :7C>+ :7C>+ :7C>+ :7C>+ :7C>+ :7C>+ :7C>+ :7C>+ :7C>+ :7C>+ :7C>+ :7C>+ :7C>+ :7C>+ :7C>+ :7C>+ :7C>+ :7C>+ :7C>+ :7C>+ :7C>+ :7C>+ :7C>+ :7C>+ :7C>+ :7C>+ :7C>+ :7C>+ :7C>+ :7C>+ :7C>+ :7C>+ :7C>+ :7C>+ :7C>+ :7C>+ :7C>+ :7C>+ :7C>+ :7C>+ :7C>+ :7C>+ :7C>+ :7C>+ :7C>+ :7C>+ :7C>+ :7C>+ :7C>+ :7C>+ :7C>+ :7C>+ :7C>+ :7C>+ :7C>+ :7C>+ :7C>+ :7C>+ :7C>+ :7C>+ :7C>+ :7C>+ :7C>+ :7C>+ :7C>+ :7C>+ :7C>+ :7C>+ :7C>+ :7C>+ :7C>+ :7C>+ :7C>+ :7C>+ :7C>+ :7C>+ :7C>+ :7C>+ :7C>+ :7C>+ :7C>+ :7C>+ :7C>+ :7C>+ :7C>+ :7C>+ :7C>+ :7C>+ :7C>+ :7C>+ :7C>+ :7C>+ :7C>+ :7C>+ :7C>+ :7C>+ :7C>+ :7C>+ :7C>+ :7C>+ :7C>+ :7C>+ :7C>+ :7C>+ :7C>+ :7C>+ :7C>+ :7C>+ :7C>+ :7C>+ :7C>+ :7C>+ :7C>+ :7C>+ :7C>+ :7C>+ :7C>+ :7C>+ :7C>+ :7C>+ :7C>+ :7C>+ :7C>+ :7C>+ :7C>+ :7C>+ :7C>+ :7C>+ :7C>+ :7C>+ :7C>+ :7C>+ :7C>+ :7C>+ :7C>+ :7C>+ :7C>+ :7C>+ :7C>+ :7C>+ :7C>+ :7C>+ :7C>+ :7C>+ :7C>+ :7C>+ :7C>+ :7C>+ :7C>+ :7C>+ :7C>+ :7C>+ :7C>+ :7C>+ :7C>+ :7C>+ :7C>+ :7C>+ :7C>+ :7C>+ :7C>+ :7C>+ :7C>+ :7C>+ :7C>+ :7C>+ :7C>+ :7C>+ :7C>+ :7C>+ :7C>+ :7C>+ :7C>+ :7C>+ :7C>+ :7C>+ :7C>+ :7C>+ :7C>+ :7C>+ :7C>+ :7C>+ :7C>+ :7C>+ :7C>+ :7C>+ :7C>+ :7C>+ :7C>+ :7C>+ :7C>+ :7C>+ :7C>+ :7C>+ :7C>+ :7C>+ :7C>+ :7C>+ :7C>+ :7C>+ :7C>+ :7C>+ :7C>+ :7C>+ :7C>+ :7C>+ :7C>+ :7C>+ :7C>+ :7C>+ :7C>+ :7C>+ :7C>+ :7C>+ :7C>+ :7C>+ :7C>+ :7C>+ :7C>+ :7C>+ :7C>+ :7C>+ :7C>+ :7C>+ :7C>+ :7C>+ :7C>+ :7C>+ :7C>+ :7C>+ :7C>+ :7C>+ :7C>+ :7C>+ :7C>+ :7C>+ :7C>+ :7C>+ :7C>+ :7C>+ :7C>+ :7C>+ :7C>+ :7C>+ :7C>+ :7C>+ :7C>+ :7C>+ :7C>+ :7C>+ :7C>+ :7C>+ :7C>+ :7C>+ :7C>+ :7C>+ :7C>+ :7C>+ :7C>+ :7C>+ :7C>+ :7C>+ :7C>+ :7C>+ :7C>+ :7C>+ :7C>+ :7C>+ :7C>+ :7C>+ :7C>+ :7C>+ :7C>+ :7C>+ :7C>+ :7C>+ :7C>+ :7C>+ :7C>+ :7C>+ :7C>+ :7C>+ :7C>+ :7C>+ :7C>+ :7C>+ :7C>+ :7C>+ :7C>+ :7C>+ :7C>+ :7C>+ :7C>+ :7C>+ :7C>+ :7C>+ :7C>+ :7C>+ :7C>+ :7C>+ :7C>+ :7C>+ :7C>+ :7C>+ :7C>+ :7C>+ :7C>+ :7C>+ :7C>+ :7C>+ :7C>+ :7C>+ :7C>+ :7C>+ :7C>+ :7C>+ :7C>+ :7C>+ :7C>+ :7C>+ :7C>+ :7C>+ :7C>+ :7C>+ :7C>+ :7C>+ :7C>+ :7C>+ :7C>+ :7C>+ :7C>+ :7C>+ :7C>+ :7C>+ :7C>+ :7C>+ :7C>+ :7C>+ :7C>+ :7C>+ :7C>+ :7C>+ :7C>+ :7C>+ :7C>+ :7C>+ :7C>+ :7C>+ :7C>+ :7C>+ :7C>+ :7C>+ :7C>+ :7C>+ :7C>+ :7C>+ :7C>+ :7C>+ :7C>+ :7C>+ :7C>+ :7C>+ :7C>+ :7C>+ :7C>+ :7C>+ :7C>+ :7C>+ :7C>+ :7C>+ :7C>+ :7C>+ :7C>+ :7C>+ :7C>+ :7C>+ :7C>+ :7C>+ :7C>+ :7C>+ :7C>+ :7C>+ :7C>+ :7C>+ :7C>+ :7C>+ :7C>+ :7C>+ :7C>+ :7C>+ :7C>+ :7C>+ :7C>+ :7C>+ :7C>+ :7C>+ :7C>+ :7C>+ :7C>+ :7C>+ :7C>+ :7C>+ :7C>+ :7C>+ :7C>+ :7C>+ :7C>+ :7C>+ :7C>+ :7C>+ :7C>+ :7C>+ :7C>+ :7C>+ :7C>+ :7C>+ :7C>+ :7C>+ :7C>+ :7C>+ :7C>+ :7C>+ :7C>+ :7C>+ :7C>+ :7C>+ :7C>+ :7C>+ :7C>+ :7C>+ :7C>+ :7C>+ :7C>+ :7C>+ :7C>+ :7C>+ :7C>+ :7C>+ :7C>+ :7C>+ :7C>+ :7C>+ :7C>+ :7C>+ :7C>+ :7C>+ :7C>+ :7C>+ :7C>+ :7C>+ :7C>+ :7C>+ :7C>+ :7C>+ :7C>+ :7C>+ :7C>+ :7C>+ :7C>+ :7C>+ :7C>+ :7C>+ :7C>+ :7C>+ :7C>+ :7C>+ :7C>+ :7C>+ :7C>+ :7C>+ :7C>+ :7C>+ :7C>+ :7C>+ :7C>+ :7C>+ :7C>+ :7C>+ :7C>+ :7C>+ :7C>+ :7C>+ :7C>+ :7C>+ :7C>+ :7C>+ :7C>+ :7C>+ :7C>+ :7C>+ :7C>+ :7C>+ :7C>+ :7C>+ :7C>+ :7C>+ :7C>+ :7C>+ :7C>+ :7C>+ :7C>+ :7C>+ :7C>+ :7C>+ :7C>+ :7C>+ :7C>+ :7C>+ :7C>+ :7C>+ :7C>+ :7C>+ :7C>+ :7C>+ :7C>+ :7C>+ :7C>+ :7C>+ :7C>+ :7C>+ :7C>+ :7C>+ :7C>+ :7C>+ :7C>+ :7C>+ :7C>+ :7C>+ :7C>+ :7C>+ :7C>+ :7C>+ :7C>+ :7C>+ :7C>+ :7C>+ :7C>+ :7C>+ :7C>+ :7C>+ :7C>+ :7C>+ :7C>+ :7C>+ :7C>+ :7C>+ :7C>+ :7C>+ :7C>+ :7C>+ :7C>+ :7C>+ :7C>+ :7C>+ :7C>+ :7C>+ :7C>+ :7C>+ :7C>+ :7C>+ :7C>+ :7C>+ :7C>+ :7C>+ :7C>+ :7C>+ :7C>+ :7C>+ :7C>+ :7C>+ :7C>+ :7C>+ :7C>+ :7C>+ :7C>+ :7C>+ :7C>+ :7C>+ :7C>+ :7C>+ :7C>+ :7C>+ :7C>+ :7C>+ :7C>+ :7C>+ :7C>+ :7C>+ :7C>+ :7C>+ :7C>+ :7C>+ :7C>+ :7C>+ :7C>+ :7C>+ :7C>+ :7C>+ :7C>+ :7C>+ :7C>+ :7C>+ :7C>+ :7C>+ :7C>+ :7C>+ :7C>+ :7C>+ :7C>+ :7C>+ :7C>+ :7C>+ :7C>+ :7C>+ :7C>+ :7C>+ :7C>+ :7C>+ :7C>+ :7C>+ :7C>+ :7C>+ :7C>+ :7C>+ :7C>+ :7C>+ :7C>+ :7C>+ :7C>+ :7C>+ :7C>+ :7C>+ :7C>+ :7C>+ :7C>+ :7C>+ :7C>+ :7C>+ :7C>+ :7C>+ :7C>+ :7C>+ :7C>+ :7C>+ :7C>+ :7C>+ :7C>+ :7C>+ :7C>+ :7C>+ :7C>+ :7C>+ :7C>+ :7C>+ :7C>+ :7C>+ :7C>+ :7C>+ :7C>+ :7C>+ :7C>+ :7C>+ :7C>+ :7C>+ :7C>+ :7C>+ :7C>+ :7C>+ :7C>+ :7C>+ :7C>+ :7C>+ :7C>+ :7C>+ :7C>+ :7C>+ :7C>+ :7C>+ :7C>+ :7C>+ :7C>+ :7C>+ :7C>+ :7C>+ :7C>+ :7C>+ :7C>+ :7C>+ :7C>+ :7C>+ :7C>+ :7C>+ :7C>+ :7C>+ :7C>+ :7C>+ :7C>+ :7C>+ :7C>+ :7C>+ :7C>+ :7C>+ :7C>+ :7C>+ :7C>+ :7C>+ :7C>+ :7C>+ :7C>+ :7C>+ :7C>+ :7C>+ :7C>+ :7C>+ :7C>+ :7C>+ :7C>+ :7C>+ :7C>+ :7C>+ :7C>+ C>+ C>+ C>+ C>+ C>+ C>+ >+ >+ >+ >+ >+ + + + + + + + + + + + + + + + + + + + + + + + + + + + + + + + + + + + + + + + + + +                                                                                                                                                                                                                                                                                                                                                                                                                                                                                                                                                                                                                                                                                                                                                                                                                                                                                                                                                                                                                                                                                                                                                                                                                                                                                                                                                                                                                                                                                                                                                                                                                                 > > > > > > > > > > > > > > > > > > > > > > > > > > > > > > > > > > > > > > > > > > > > > > > > > > > > > > > > > > > > > > > > > > > > > > > > > > > > > > > > > > > > > > > > > > > > > > > > > > > > > > > > > > > > > > > > > > > > > > > > > > > > > > > > > > > > > > > > > > > > > > > > > > > > > > > > > > > > > > > > > > > > > > > > > > > > > > > > > > > > > > > > > >   7> 7> 7> 7> 7> 7> 7> 7> 7> 7> 7> 7> 7> 7> 7> 7> 7> 7> 7> 7> 7> 7> 7> 7> 7> 7> 7> 7> 7> 7> 7> 7> 7> 7> 7> 7> 7> 7> 7> 7> 7> 7> 7> 7> 7> 7> 7> 7> 7> 7> 7> 7> 7> 7> 7> 7> 7> 7> 7> 7> 7> 7> 7> 7> 7> 7> 7> 7> 7> 7> 7> 7> 7> 7> 7> 7> 7> 7> 7> 7> 7> 7> 7> 7> 7> 7> 7> 7> 7> 7> 7> 7> 7> 7> 7> 7> 7> 7> 7> 7> 7> 7> 7> 7> 7> 7> 7> 7> 7> 7> 7> 7> 7> 7> 7> 7> 7> 7> 7> 7> 7> 7> 7> 7> 7> 7> 7> 7> 7> 7> 7> 7> 7> 7> 7> 7> 7> 7> 7> 7> 7> 7> 7> 7> 7> 7> 7> 7> 7> 7> 7> 7> 7> 7> 7> 7> 7> 7> 7> 7> 7> 7> 7> 7> 7> 7> 7> 7> 7> 7> 7> 7> 7> 7> 7> 7> 7> 7> 7> 7> 7> 7> 7> 7> 7> 7> 7> 7> <7> <7> <7> <7> <7> <7> <7> <7> <7> <7> <7> <7> <7> <7> <7> <7> <7> <7> <7> <7> <7> <7> <7> <7> <7> <7> <7> <7> <7> <7> <7> <7> <7> <7> <7> <7> <7> <7> <7> <7> <7> <7> <7> <7> <7> <7> <7> <7> <7> <7> <7> <7> <7> <7> <7> <7> <7> <7> <7> <7> <7> <7> <7> <7> <7> <7> <7> <7> <7> <7> <7> <7> <7> <7> <7> <7> <7> <7> <7> <7> <7> <7> <7> <7> <7> <7> <7> <7> <7> <7> <7> <7> <7> <7> <7> <7> <7> <7> <7> <7> <7> <7> <7> <7> <7> <7> <7> <7> <7> <7> <7> <7> <7> <7> <7> <7> <7> <7> <7> <7> <7> <7> <7> <7> <7> <7> <7> <7> <7> <7> <7> <7> <7> <7> <7> <7> <7> <7> <7> <7> <7> <7> <7> <7> <7> <7> <7> <7> <7> <7> <7> <7> <7> <7> <7> <7> <7> <7> <7> <7> <7> <7> <7> <7> <7> <7> <7> <7> <7> <7> <7> <7> <7> <7> <7> <7> <7> <7> <7> <7> <7> <7> <7> <7> <7> <7> 7> 7> :7> :7> :7> :7> :7> :7> :7> :7> :7> :7> :7> :7> :7> :7> :7> :7> :7> :7> :7> :7> :7> :7> :7> :7> :7> :7> :7> :7> :7> :7> :7> :7> :7> :7> :7> :7> :7> :7> :7> :7> :7> :7> :7> :7> :7> :7> :7> :7> :7> :7> :7> :7> :7> :7> :7> :7> :7> :7> :7> :7> :7> :7> :7> :7> :7> :7> :7> :7> :7> :7> :7> :7> :7> :7> :7> :7> :7> :7> :7> :7> :7> :7> :7> :7> :7> :7> :7> :7> :7> :7> :7> :7> :7> :7> :7> :7> :7> :7> :7> :7> :7> :7> :7> :7> :7> :7> :7> :7> :7> :7> :7> :7> :7> :7> :7> :7> :7> :7> :7> :7> :7> :7> :7> :7> :7> :7> :7> :7> :7> :7> :7> :7> :7> :7> :7> :7> :7> :7> :7> :7> :7> :7> :7> :7> :7> :7> :7> :7> :7> :7> :7> :7> :7> :7> :7> :7> :7> :7> :7> :7> :7> :7> :7> :7> :7> :7> :7> :7> :7> :7> :7> :7> :7> :7> :7> :7> :7> :7> :7> :7> :7> :7> :7> :7> :7> :7> 7> 7> 97> 97> 97> 97> 97> 97> 97> 97> 97> 97> 97> 97> 97> 97> 97> 97> 97> 97> 97> 97> 97> 97> 97> 97> 97> 97> 97> 97> 97> 97> 97> 97> 97> 97> 97> 97> 97> 97> 97> 97> 97> 97> 97> 97> 97> 97> 97> 97> 97> 97> 97> 97> 97> 97> 97> 97> 97> 97> 97> 97> 97> 97> 97> 97> 97> 97> 97> 97> 97> 97> 97> 97> 97> 97> 97> 97> 97> 97> 97> 97> 97> 97> 97> 97> 97> 97> 97> 97> 97> 97> 97> 97> 97> 97> 97> 97> 97> 97> 97> 97> 97> 97> 97> 97> 97> 97> 97> 97> 97> 97> 97> 97> 97> 97> 97> 97> 97> 97> 97> 97> 97> 97> 97> 97> 97> 97> 97> 97> 97> 97> 97> 97> 97> 97> 97> 97> 97> 97> 97> 97> 97> 97> 97> 97> 97> 97> 97> 97> 97> 97> 97> 97> 97> 97> 97> 97> 97> 97> 97> 97> 97> 97> 97> 97> 97> 97> 97> 97> 97> 97> 97> 97> 97> 97> 97> 97> 97> 97> 97> 97> 97> 97> 97> 97> 97> 97> 7> 7> 7>: 7>: 7>: 7>: 7>: 7>: 7>: 7>: 7>: 7>: 7>: 7>: 7>: 7>: 7>: 7>: 7>: 7>: 7>: 7>: 7>: 7>: 7>: 7>: 7>: 7>: 7>: 7>: 7>: 7>: 7>: 7>: 7>: 7>: 7>: 7>: 7>: 7>: 7>: 7>: 7>: 7>: 7>: 7>: 7>: 7>: 7>: 7>: 7>: 7>: 7>: 7>: 7>: 7>: 7>: 7>: 7>: 7>: 7>: 7>: 7>: 7>: 7>: 7>: 7>: 7>: 7>: 7>: 7>: 7>: 7>: 7>: 7>: 7>: 7>: 7>: 7>: 7>: 7>: 7>: 7>: 7>: 7>: 7>: 7>: 7>: 7>: 7>: 7>: 7>: 7>: 7>: 7>: 7>: 7>: 7>: 7>: 7>: 7>: 7>: 7>: 7>: 7>: 7>: 7>: 7>: 7>: 7>: 7>: 7>: 7>: 7>: 7>: 7>: 7>: 7>: 7>: 7>: 7>: 7>: 7>: 7>: 7>: 7>: 7>: 7>: 7>: 7>: 7>: 7>: 7>: 7>: 7>: 7>: 7>: 7>: 7>: 7>: 7>: 7>: 7>: 7>: 7>: 7>: 7>: 7>: 7>: 7>: 7>: 7>: 7>: 7>: 7>: 7>: 7>: 7>: 7>: 7>: 7>: 7>: 7>: 7>: 7>: 7>: 7>: 7>: 7>: 7>: 7>: 7>: 7>: 7>: 7>: 7>: 7>: 7>: 7>: 7>: 7>: 7>: 7>: 7>: 7>: 7>: 7>: >: >: >: 6>: 6>: 6>: 6>: 6>: 6>: 6>: 6>: 6>: 6>: 6>: 6>: 6>: 6>: 6>: 6>: 6>: 6>: 6>: 6>: 6>: 6>: 6>: 6>: 6>: 6>: 6>: 6>: 6>: 6>: 6>: 6>: 6>: 6>: 6>: 6>: 6>: 6>: 6>: 6>: 6>: 6>: 6>: 6>: 6>: 6>: 6>: 6>: 6>: 6>: 6>: 6>: 6>: 6>: 6>: 6>: 6>: 6>: 6>: 6>: 6>: 6>: 6>: 6>: 6>: 6>: 6>: 6>: 6>: 6>: 6>: 6>: 6>: 6>: 6>: 6>: 6>: 6>: 6>: 6>: 6>: 6>: 6>: 6>: 6>: 6>: 6>: 6>: 6>: 6>: 6>: 6>: 6>: 6>: 6>: 6>: 6>: 6>: 6>: 6>: 6>: 6>: 6>: 6>: 6>: 6>: 6>: 6>: 6>: 6>: 6>: 6>: 6>: 6>: 6>: 6>: 6>: 6>: 6>: 6>: 6>: 6>: 6>: 6>: 6>: 6>: 6>: 6>: 6>: 6>: 6>: 6>: 6>: 6>: 6>: 6>: 6>: 6>: 6>: 6>: 6>: 6>: 6>: 6>: 6>: 6>: 6>: 6>: 6>: 6>: 6>: 6>: 6>: 6>: 6>: 6>: 6>: 6>: 6>: 6>: 6>: 6>: 6>: 6>: 6>: 6>: 6>: 6>: 6>: 6>: 6>: 6>: 6>: 6>: 6>: 6>: 6>: 6>: 6>: 6>: 6>: 6>: 6>: 6>: 6>: 6>: >: >7: >7: >7: >7: >7: >7: >7: >7: >7: >7: >7: >7: >7: >7: >7: >7: >7: >7: >7: >7: >7: >7: >7: >7: >7: >7: >7: >7: >7: >7: >7: >7: >7: >7: >7: >7: >7: >7: >7: >7: >7: >7: >7: >7: >7: >7: >7: >7: >7: >7: >7: >7: >7: >7: >7: >7: >7: >7: >7: >7: >7: >7: >7: >7: >7: >7: >7: >7: >7: >7: >7: >7: >7: >7: >7: >7: >7: >7: >7: >7: >7: >7: >7: >7: >7: >7: >7: >7: >7: >7: >7: >7: >7: >7: >7: >7: >7: >7: >7: >7: >7: >7: >7: >7: >7: >7: >7: >7: >7: >7: >7: >7: >7: >7: >7: >7: >7: >7: >7: >7: >7: >7: >7: >7: >7: >7: >7: >7: >7: >7: >7: >7: >7: >7: >7: >7: >7: >7: >7: >7: >7: >7: >7: >7: >7: >7: >7: >7: >7: >7: >7: >7: >7: >7: >7: >7: >7: >7: >7: >7: >7: >7: >7: >7: >7: >7: >7: >7: >7: >7: >7: >7: >7: >7: >7: >7: >7: >7: >7: >7: >7: >7: >7: 7: 7: 7: : : >2: >2: >2: >2: >2: >2: >2: >2: >2: >2: >2: >2: >2: >2: >2: >2: >2: >2: >2: >2: >2: >2: >2: >2: >2: >2: >2: >2: >2: >2: >2: >2: >2: >2: >2: >2: >2: >2: >2: >2: >2: >2: >2: >2: >2: >2: >2: >2: >2: >2: >2: >2: >2: >2: >2: >2: >2: >2: >2: >2: >2: >2: >2: >2: >2: >2: >2: >2: >2: >2: >2: >2: >2: >2: >2: >2: >2: >2: >2: >2: >2: >2: >2: >2: >2: >2: >2: >2: >2: >2: >2: >2: >2: >2: >2: >2: >2: >2: >2: >2: >2: >2: >2: >2: >2: >2: >2: >2: >2: >2: >2: >2: >2: >2: >2: >2: >2: >2: >2: >2: >2: >2: >2: >2: >2: >2: >2: >2: >2: >2: >2: >2: >2: >2: >2: >2: >2: >2: >2: >2: >2: >2: >2: >2: >2: >2: >2: >2: >2: >2: >2: >2: >2: >2: >2: >2: >2: >2: >2: >2: >2: >2: >2: >2: >2: >2: >2: >2: >2: >2: >2: >2: >2: >2: >2: >2: >2: >2: >2: >2: >2: >2: >2: >2: >2: >2: : :   C3 C3 C3 C3 C3 C3 C3 C3 C3 C3 C3 C3 C3 C3 C3 C3 C3 C3 C3 C3 C3 C3 C3 C3 C3 C3 C3 C3 C3 C3 C3 C3 C3 C3 C3 C3 C3 C3 C3 C3 C3 C3 C3 C3 C3 C3 C3 C3 C3 C3 C3 C3 C3 C3 C3 C3 C3 C3 C3 C3 C3 C3 C3 C3 C3 C3 C3 C3 C3 C3 C3 C3 C3 C3 C3 C3 C3 C3 C3 C3 C3 C3 C3 C3 C3 C3 C3 C3 C3 C3 C3 C3 C3 C3 C3 C3 C3 C3 C3 C3 C3 C3 C3 C3 C3 C3 C3 C3 C3 C3 C3 C3 C3 C3 C3 C3 C3 C3 C3 C3 C3 C3 C3 C3 C3 C3 C3 C3 C3 C3 C3 C3 C3 C3 C3 C3 C3 C3 C3 C3 C3 C3 C3 C3 C3 C3 C3 C3 C3 C3 C3 C3 C3 C3 C3 C3 C3 C3 C3 C3 C3 C3 C3 C3 C3 C3 C3 C3 C3 C3 C3 C3 C3 C3 C3 C3 C3 C3 C3 C3 C3 C3 C3 C3 C3 C3   E0 E0 E0 E0 E0 E0 E0 E0 E0 E0 E0 E0 E0 E0 E0 E0 E0 E0 E0 E0 E0 E0 E0 E0 E0 E0 E0 E0 E0 E0 E0 E0 E0 E0 E0 E0 E0 E0 E0 E0 E0 E0 E0 E0 E0 E0 E0 E0 E0 E0 E0 E0 E0 E0 E0 E0 E0 E0 E0 E0 E0 E0 E0 E0 E0 E0 E0 E0 E0 E0 E0 E0 E0 E0 E0 E0 E0 E0 E0 E0 E0 E0 E0 E0 E0 E0 E0 E0 E0 E0 E0 E0 E0 E0 E0 E0 E0 E0 E0 E0 E0 E0 E0 E0 E0 E0 E0 E0 E0 E0 E0 E0 E0 E0 E0 E0 E0 E0 E0 E0 E0 E0 E0 E0 E0 E0 E0 E0 E0 E0 E0 E0 E0 E0 E0 E0 E0 E0 E0 E0 E0 E0 E0 E0 E0 E0 E0 E0 E0 E0 E0 E0 E0 E0 E0 E0 E0 E0 E0 E0 E0 E0 E0 E0 E0 E0 E0 E0 E0 E0 E0 E0 E0 E0 E0 E0 E0 E0 E0 E0 E0 E0 E0 E0 E0 E0   B2 B2 B2 B2 B2 B2 B2 B2 B2 B2 B2 B2 B2 B2 B2 B2 B2 B2 B2 B2 B2 B2 B2 B2 B2 B2 B2 B2 B2 B2 B2 B2 B2 B2 B2 B2 B2 B2 B2 B2 B2 B2 B2 B2 B2 B2 B2 B2 B2 B2 B2 B2 B2 B2 B2 B2 B2 B2 B2 B2 B2 B2 B2 B2 B2 B2 B2 B2 B2 B2 B2 B2 B2 B2 B2 B2 B2 B2 B2 B2 B2 B2 B2 B2 B2 B2 B2 B2 B2 B2 B2 B2 B2 B2 B2 B2 B2 B2 B2 B2 B2 B2 B2 B2 B2 B2 B2 B2 B2 B2 B2 B2 B2 B2 B2 B2 B2 B2 B2 B2 B2 B2 B2 B2 B2 B2 B2 B2 B2 B2 B2 B2 B2 B2 B2 B2 B2 B2 B2 B2 B2 B2 B2 B2 B2 B2 B2 B2 B2 B2 B2 B2 B2 B2 B2 B2 B2 B2 B2 B2 B2 B2 B2 B2 B2 B2 B2 B2 B2 B2 B2 B2 B2 B2 B2 B2 B2 B2 B2 B2 B2 B2 B2 B2 B2 B2   C3 C3 C3 C3 C3 C3 C3 C3 C3 C3 C3 C3 C3 C3 C3 C3 C3 C3 C3 C3 C3 C3 C3 C3 C3 C3 C3 C3 C3 C3 C3 C3 C3 C3 C3 C3 C3 C3 C3 C3 C3 C3 C3 C3 C3 C3 C3 C3 C3 C3 C3 C3 C3 C3 C3 C3 C3 C3 C3 C3 C3 C3 C3 C3 C3 C3 C3 C3 C3 C3 C3 C3 C3 C3 C3 C3 C3 C3 C3 C3 C3 C3 C3 C3 C3 C3 C3 C3 C3 C3 C3 C3 C3 C3 C3 C3 C3 C3 C3 C3 C3 C3 C3 C3 C3 C3 C3 C3 C3 C3 C3 C3 C3 C3 C3 C3 C3 C3 C3 C3 C3 C3 C3 C3 C3 C3 C3 C3 C3 C3 C3 C3 C3 C3 C3 C3 C3 C3 C3 C3 C3 C3 C3 C3 C3 C3 C3 C3 C3 C3 C3 C3 C3 C3 C3 C3 C3 C3 C3 C3 C3 C3 C3 C3 C3 C3 C3 C3 C3 C3 C3 C3 C3 C3 C3 C3 C3 C3 C3 C3 C3 C3 C3 C3 C3 C3   *E *E *E *E *E *E *E *E *E *E *E *E *E *E *E *E *E *E *E *E *E *E *E *E *E *E *E *E *E *E *E *E *E *E *E *E *E *E *E *E *E *E *E *E *E *E *E *E *E *E *E *E *E *E *E *E *E *E *E *E *E *E *E *E *E *E *E *E *E *E *E *E *E *E *E *E *E *E *E *E *E *E *E *E *E *E *E *E *E *E *E *E *E *E *E *E *E *E *E *E *E *E *E *E *E *E *E *E *E *E *E *E *E *E *E *E *E *E *E *E *E *E *E *E *E *E *E *E *E *E *E *E *E *E *E *E *E *E *E *E *E *E *E *E *E *E *E *E *E *E *E *E *E *E *E *E *E *E *E *E *E *E *E *E *E *E *E *E *E *E *E *E *E *E *E *E *E *E *E *E *E *E *E *E *E *E *E *E ?*E ?*E ?*E ?*E ?*E ?*E ?*E ?*E ?*E ?*E ?*E ?*E ?*E ?*E ?*E ?*E ?*E ?*E ?*E ?*E ?*E ?*E ?*E ?*E ?*E ?*E ?*E ?*E ?*E ?*E ?*E ?*E ?*E ?*E ?*E ?*E ?*E ?*E ?*E ?*E ?*E ?*E ?*E ?*E ?*E ?*E ?*E ?*E ?*E ?*E ?*E ?*E ?*E ?*E ?*E ?*E ?*E ?*E ?*E ?*E ?*E ?*E ?*E ?*E ?*E ?*E ?*E ?*E ?*E ?*E ?*E ?*E ?*E ?*E ?*E ?*E ?*E ?*E ?*E ?*E ?*E ?*E ?*E ?*E ?*E ?*E ?*E ?*E ?*E ?*E ?*E ?*E ?*E ?*E ?*E ?*E ?*E ?*E ?*E ?*E ?*E ?*E ?*E ?*E ?*E ?*E ?*E ?*E ?*E ?*E ?*E ?*E ?*E ?*E ?*E ?*E ?*E ?*E ?*E ?*E ?*E ?*E ?*E ?*E ?*E ?*E ?*E ?*E ?*E ?*E ?*E ?*E ?*E ?*E ?*E ?*E ?*E ?*E ?*E ?*E ?*E ?*E ?*E ?*E ?*E ?*E ?*E ?*E ?*E ?*E ?*E ?*E ?*E ?*E ?*E ?*E ?*E ?*E ?*E ?*E ?*E ?*E ?*E ?*E ?*E ?*E ?*E ?*E ?*E ?*E ?*E ?*E ?*E ?*E ?*E ?*E ?*E ?*E ?*E ?*E ?*E ?*E ?*E ?*E ?*E ?*E *E >*E >*E >*E >*E >*E >*E >*E >*E >*E >*E >*E >*E >*E >*E >*E >*E >*E >*E >*E >*E >*E >*E >*E >*E >*E >*E >*E >*E >*E >*E >*E >*E >*E >*E >*E >*E >*E >*E >*E >*E >*E >*E >*E >*E >*E >*E >*E >*E >*E >*E >*E >*E >*E >*E >*E >*E >*E >*E >*E >*E >*E >*E >*E >*E >*E >*E >*E >*E >*E >*E >*E >*E >*E >*E >*E >*E >*E >*E >*E >*E >*E >*E >*E >*E >*E >*E >*E >*E >*E >*E >*E >*E >*E >*E >*E >*E >*E >*E >*E >*E >*E >*E >*E >*E >*E >*E >*E >*E >*E >*E >*E >*E >*E >*E >*E >*E >*E >*E >*E >*E >*E >*E >*E >*E >*E >*E >*E >*E >*E >*E >*E >*E >*E >*E >*E >*E >*E >*E >*E >*E >*E >*E >*E >*E >*E >*E >*E >*E >*E >*E >*E >*E >*E >*E >*E >*E >*E >*E >*E >*E >*E >*E >*E >*E >*E >*E >*E >*E >*E >*E >*E >*E >*E >*E >*E >*E >*E >*E >*E >*E >*E >*E >*E >*E >*E >*E *E *E <*E <*E <*E <*E <*E <*E <*E <*E <*E <*E <*E <*E <*E <*E <*E <*E <*E <*E <*E <*E <*E <*E <*E <*E <*E <*E <*E <*E <*E <*E <*E <*E <*E <*E <*E <*E <*E <*E <*E <*E <*E <*E <*E <*E <*E <*E <*E <*E <*E <*E <*E <*E <*E <*E <*E <*E <*E <*E <*E <*E <*E <*E <*E <*E <*E <*E <*E <*E <*E <*E <*E <*E <*E <*E <*E <*E <*E <*E <*E <*E <*E <*E <*E <*E <*E <*E <*E <*E <*E <*E <*E <*E <*E <*E <*E <*E <*E <*E <*E <*E <*E <*E <*E <*E <*E <*E <*E <*E <*E <*E <*E <*E <*E <*E <*E <*E <*E <*E <*E <*E <*E <*E <*E <*E <*E <*E <*E <*E <*E <*E <*E <*E <*E <*E <*E <*E <*E <*E <*E <*E <*E <*E <*E <*E <*E <*E <*E <*E <*E <*E <*E <*E <*E <*E <*E <*E <*E <*E <*E <*E <*E <*E <*E <*E <*E <*E <*E <*E <*E <*E <*E <*E <*E <*E <*E <*E <*E <*E <*E <*E <*E <*E <*E <*E <*E <*E *E *E E E >E >E >E >E >E >E >E >E >E >E >E >E >E >E >E >E >E >E >E >E >E >E >E >E >E >E >E >E >E >E >E >E >E >E >E >E >E >E >E >E >E >E >E >E >E >E >E >E >E >E >E >E >E >E >E >E >E >E >E >E >E >E >E >E >E >E >E >E >E >E >E >E >E >E >E >E >E >E >E >E >E >E >E >E >E >E >E >E >E >E >E >E E E <E <E <E <E <E <E <E <E <E <E <E <E <E <E <E <E <E <E <E <E <E <E <E <E <E <E <E <E <E <E <E <E <E <E <E <E <E <E <E <E <E <E <E <E <E <E <E <E <E <E <E <E <E <E <E <E <E <E <E <E <E <E <E <E <E <E <E <E <E <E <E <E <E <E <E <E <E <E <E <E <E <E <E <E <E <E <E <E <E <E <E <E E E 9E> 9E> 9E> 9E> 9E> 9E> 9E> 9E> 9E> 9E> 9E> 9E> 9E> 9E> 9E> 9E> 9E> 9E> 9E> 9E> 9E> 9E> 9E> 9E> 9E> 9E> 9E> 9E> 9E> 9E> 9E> 9E> 9E> 9E> 9E> 9E> 9E> 9E> 9E> 9E> 9E> 9E> 9E> 9E> 9E> 9E> 9E> 9E> 9E> 9E> 9E> 9E> 9E> 9E> 9E> 9E> 9E> 9E> 9E> 9E> 9E> 9E> 9E> 9E> 9E> 9E> 9E> 9E> 9E> 9E> 9E> 9E> 9E> 9E> 9E> 9E> 9E> 9E> 9E> 9E> 9E> 9E> 9E> 9E> 9E> 9E> 9E> 9E> 9E> 9E> 9E> 9E> 9E> 9E> 9E> 9E> 9E> 9E> 9E> 9E> 9E> 9E> 9E> 9E> 9E> 9E> 9E> 9E> 9E> 9E> 9E> 9E> 9E> 9E> 9E> 9E> 9E> 9E> 9E> 9E> 9E> 9E> 9E> 9E> 9E> 9E> 9E> 9E> 9E> 9E> 9E> 9E> 9E> 9E> 9E> 9E> 9E> 9E> 9E> 9E> 9E> 9E> 9E> 9E> 9E> 9E> 9E> 9E> 9E> 9E> 9E> 9E> 9E> 9E> 9E> 9E> 9E> 9E> 9E> 9E> 9E> 9E> 9E> 9E> 9E> 9E> 9E> 9E> 9E> 9E> 9E> 9E> 9E> 9E> 9E> 9E> 9E> 9E> 9E> 9E> 9E> 9E> 9E> 9E> 9E> 9E> E> E> E:> E:> E:> E:> E:> E:> E:> E:> E:> E:> E:> E:> E:> E:> E:> E:> E:> E:> E:> E:> E:> E:> E:> E:> E:> E:> E:> E:> E:> E:> E:> E:> E:> E:> E:> E:> E:> E:> E:> E:> E:> E:> E:> E:> E:> E:> E:> E:> E:> E:> E:> E:> E:> E:> E:> E:> E:> E:> E:> E:> E:> E:> E:> E:> E:> E:> E:> E:> E:> E:> E:> E:> E:> E:> E:> E:> E:> E:> E:> E:> E:> E:> E:> E:> E:> E:> E:> E:> E:> E:> E:> E:> E:> E:> E:> E:> E:> E:> E:> E:> E:> E:> E:> E:> E:> E:> E:> E:> E:> E:> E:> E:> E:> E:> E:> E:> E:> E:> E:> E:> E:> E:> E:> E:> E:> E:> E:> E:> E:> E:> E:> E:> E:> E:> E:> E:> E:> E:> E:> E:> E:> E:> E:> E:> E:> E:> E:> E:> E:> E:> E:> E:> E:> E:> E:> E:> E:> E:> E:> E:> E:> E:> E:> E:> E:> E:> E:> E:> E:> E:> E:> E:> E:> E:> E:> E:> E:> E:> E:> E:> E:> E:> E:> E:> :> :>   >< >< >< >< >< >< >< >< >< >< >< >< >< >< >< >< >< >< >< >< >< >< >< >< >< >< >< >< >< >< >< >< >< >< >< >< >< >< >< >< >< >< >< >< >< >< >< >< >< >< >< >< >< >< >< >< >< >< >< >< >< >< >< >< >< >< >< >< >< >< >< >< >< >< >< >< >< >< >< >< >< >< >< >< >< >< >< >< >< >< >< >< >< >< >< >< >< >< >< >< >< >< >< >< >< >< >< >< >< >< >< >< >< >< >< >< >< >< >< >< >< >< >< >< >< >< >< >< >< >< >< >< >< >< >< >< >< >< >< >< >< >< >< >< >< >< >< >< >< >< >< >< >< >< >< >< >< >< >< >< >< >< >< >< >< >< >< >< >< >< >< >< >< >< >< >< >< >< >< >< >< >< >< >< >< ><   E6 E6 E6 E6 E6 E6 E6 E6 E6 E6 E6 E6 E6 E6 E6 E6 E6 E6 E6 E6 E6 E6 E6 E6 E6 E6 E6 E6 E6 E6 E6 E6 E6 E6 E6 E6 E6 E6 E6 E6 E6 E6 E6 E6 E6 E6 E6 E6 E6 E6 E6 E6 E6 E6 E6 E6 E6 E6 E6 E6 E6 E6 E6 E6 E6 E6 E6 E6 E6 E6 E6 E6 E6 E6 E6 E6 E6 E6 E6 E6 E6 E6 E6 E6 E6 E6 E6 E6 E6 E6 E6 E6 E6 E6 E6 E6 E6 E6 E6 E6 E6 E6 E6 E6 E6 E6 E6 E6 E6 E6 E6 E6 E6 E6 E6 E6 E6 E6 E6 E6 E6 E6 E6 E6 E6 E6 E6 E6 E6 E6 E6 E6 E6 E6 E6 E6 E6 E6 E6 E6 E6 E6 E6 E6 E6 E6 E6 E6 E6 E6 E6 E6 E6 E6 E6 E6 E6 E6 E6 E6 E6 E6 E6 E6 E6 E6 E6 E6 E6 E6 E6 E6 E6 E6 E6 E6 E6 E6 E6 E6 E6 E6 E6 E6 E6 E6   F7 F7 F7 F7 F7 F7 F7 F7 F7 F7 F7 F7 F7 F7 F7 F7 F7 F7 F7 F7 F7 F7 F7 F7 F7 F7 F7 F7 F7 F7 F7 F7 F7 F7 F7 F7 F7 F7 F7 F7 F7 F7 F7 F7 F7 F7 F7 F7 F7 F7 F7 F7 F7 F7 F7 F7 F7 F7 F7 F7 F7 F7 F7 F7 F7 F7 F7 F7 F7 F7 F7 F7 F7 F7 F7 F7 F7 F7 F7 F7 F7 F7 F7 F7 F7 F7 F7 F7 F7 F7 F7 F7 F7 F7 F7 F7 F7 F7 F7 F7 F7 F7 F7 F7 F7 F7 F7 F7 F7 F7 F7 F7 F7 F7 F7 F7 F7 F7 F7 F7 F7 F7 F7 F7 F7 F7 F7 F7 F7 F7 F7 F7 F7 F7 F7 F7 F7 F7 F7 F7 F7 F7 F7 F7 F7 F7 F7 F7 F7 F7 F7 F7 F7 F7 F7 F7 F7 F7 F7 F7 F7 F7 F7 F7 F7 F7 F7 F7 F7 F7 F7 F7 F7 F7 F7 F7 F7 F7 F7 F7 F7 F7 F7 F7 F7 F7  C9 C9 C9 C9 C9 C9 C9 C9 C9 C9 C9 C9 C9 C9 C9 C9 C9 C9 C9 C9 C9 C9 C9 C9 C9 C9 C9 C9 C9 C9 C9 C9 C9 C9 C9 C9 C9 C9 C9 C9 C9 C9 C9 C9 C9 C9 C9 C9 C9 C9 C9 C9 C9 C9 C9 C9 C9 C9 C9 C9 C9 C9 C9 C9 C9 C9 C9 C9 C9 C9 C9 C9 C9 C9 C9 C9 C9 C9 C9 C9 C9 C9 C9 C9 C9 C9 C9 C9 C9 C9 C9 C9 C9 C9 C9 C9 C9 C9 C9 C9 C9 C9 C9 C9 C9 C9 C9 C9 C9 C9 C9 C9 C9 C9 C9 C9 C9 C9 C9 C9 C9 C9 C9 C9 C9 C9 C9 C9 C9 C9 C9 C9 C9 C9 C9 C9 C9 C9 C9 C9 C9 C9 C9 C9 C9 C9 C9 C9 C9 C9 C9 C9 C9 C9 C9 C9 C9 C9 C9 C9 C9 C9 C9 C9 C9 C9 C9 C9 C9 C9 C9 C9 C9 C9 C9 C9 C9 C9 C9 C9 C9 C9 C9 C9 C9 C9   E2 E2 E2 E2 E2 E2 E2 E2 E2 E2 E2 E2 E2 E2 E2 E2 E2 E2 E2 E2 E2 E2 E2 E2 E2 E2 E2 E2 E2 E2 E2 E2 E2 E2 E2 E2 E2 E2 E2 E2 E2 E2 E2 E2 E2 E2 E2 E2 E2 E2 E2 E2 E2 E2 E2 E2 E2 E2 E2 E2 E2 E2 E2 E2 E2 E2 E2 E2 E2 E2 E2 E2 E2 E2 E2 E2 E2 E2 E2 E2 E2 E2 E2 E2 E2 E2 E2 E2 E2 E2 E2 E2 E2 E2 E2 E2 E2 E2 E2 E2 E2 E2 E2 E2 E2 E2 E2 E2 E2 E2 E2 E2 E2 E2 E2 E2 E2 E2 E2 E2 E2 E2 E2 E2 E2 E2 E2 E2 E2 E2 E2 E2 E2 E2 E2 E2 E2 E2 E2 E2 E2 E2 E2 E2 E2 E2 E2 E2 E2 E2 E2 E2 E2 E2 E2 E2 E2 E2 E2 E2 E2 E2 E2 E2 E2 E2 E2 E2 E2 E2 E2 E2 E2 E2 E2 E2 E2 E2 E2 E2 E2 E2 E2 E2 E2 E2   7F 7F 7F 7F 7F 7F 7F 7F 7F 7F 7F 7F 7F 7F 7F 7F 7F 7F 7F 7F 7F 7F 7F 7F 7F 7F 7F 7F 7F 7F 7F 7F 7F 7F 7F 7F 7F 7F 7F 7F 7F 7F 7F 7F 7F 7F 7F 7F 7F 7F 7F 7F 7F 7F 7F 7F 7F 7F 7F 7F 7F 7F 7F 7F 7F 7F 7F 7F 7F 7F 7F 7F 7F 7F 7F 7F 7F 7F 7F 7F 7F 7F 7F 7F 7F 7F 7F 7F 7F 7F 7F 7F 7F 7F 7F 7F 7F 7F 7F 7F 7F 7F 7F 7F 7F 7F 7F 7F 7F 7F 7F 7F 7F 7F 7F 7F 7F 7F 7F 7F 7F 7F 7F 7F 7F 7F 7F 7F 7F 7F 7F 7F 7F 7F 7F 7F 7F 7F 7F 7F 7F 7F 7F 7F 7F 7F 7F 7F 7F 7F 7F 7F 7F 7F 7F 7F 7F 7F 7F 7F 7F 7F 7F 7F 7F 7F 7F 7F 7F 7F 7F 7F 7F 7F 7F 7F 7F 7F 7F 7F 7F 7F 7F 7F 7F 7F 7F 7F E7F E7F E7F E7F E7F E7F E7F E7F E7F E7F E7F E7F E7F E7F E7F E7F E7F E7F E7F E7F E7F E7F E7F E7F E7F E7F E7F E7F E7F E7F E7F E7F E7F E7F E7F E7F E7F E7F E7F E7F E7F E7F E7F E7F E7F E7F E7F E7F E7F E7F E7F E7F E7F E7F E7F E7F E7F E7F E7F E7F E7F E7F E7F E7F E7F E7F E7F E7F E7F E7F E7F E7F E7F E7F E7F E7F E7F E7F E7F E7F E7F E7F E7F E7F E7F E7F E7F E7F E7F E7F E7F E7F E7F E7F E7F E7F E7F E7F E7F E7F E7F E7F E7F E7F E7F E7F E7F E7F E7F E7F E7F E7F E7F E7F E7F E7F E7F E7F E7F E7F E7F E7F E7F E7F E7F E7F E7F E7F E7F E7F E7F E7F E7F E7F E7F E7F E7F E7F E7F E7F E7F E7F E7F E7F E7F E7F E7F E7F E7F E7F E7F E7F E7F E7F E7F E7F E7F E7F E7F E7F E7F E7F E7F E7F E7F E7F E7F E7F E7F E7F E7F E7F E7F E7F E7F E7F E7F E7F E7F E7F E7F E7F E7F E7F E7F E7F F F C2F C2F C2F C2F C2F C2F C2F C2F C2F C2F C2F C2F C2F C2F C2F C2F C2F C2F C2F C2F C2F C2F C2F C2F C2F C2F C2F C2F C2F C2F C2F C2F C2F C2F C2F C2F C2F C2F C2F C2F C2F C2F C2F C2F C2F C2F C2F C2F C2F C2F C2F C2F C2F C2F C2F C2F C2F C2F C2F C2F C2F C2F C2F C2F C2F C2F C2F C2F C2F C2F C2F C2F C2F C2F C2F C2F C2F C2F C2F C2F C2F C2F C2F C2F C2F C2F C2F C2F C2F C2F C2F C2F C2F C2F C2F C2F C2F C2F C2F C2F C2F C2F C2F C2F C2F C2F C2F C2F C2F C2F C2F C2F C2F C2F C2F C2F C2F C2F C2F C2F C2F C2F C2F C2F C2F C2F C2F C2F C2F C2F C2F C2F C2F C2F C2F C2F C2F C2F C2F C2F C2F C2F C2F C2F C2F C2F C2F C2F C2F C2F C2F C2F C2F C2F C2F C2F C2F C2F C2F C2F C2F C2F C2F C2F C2F C2F C2F C2F C2F C2F C2F C2F C2F C2F C2F C2F C2F C2F C2F C2F C2F C2F C2F C2F C2F C2F 2F 2F B2F B2F B2F B2F B2F B2F B2F B2F B2F B2F B2F B2F B2F B2F B2F B2F B2F B2F B2F B2F B2F B2F B2F B2F B2F B2F B2F B2F B2F B2F B2F B2F B2F B2F B2F B2F B2F B2F B2F B2F B2F B2F B2F B2F B2F B2F B2F B2F B2F B2F B2F B2F B2F B2F B2F B2F B2F B2F B2F B2F B2F B2F B2F B2F B2F B2F B2F B2F B2F B2F B2F B2F B2F B2F B2F B2F B2F B2F B2F B2F B2F B2F B2F B2F B2F B2F B2F B2F B2F B2F B2F B2F B2F B2F B2F B2F B2F B2F B2F B2F B2F B2F B2F B2F B2F B2F B2F B2F B2F B2F B2F B2F B2F B2F B2F B2F B2F B2F B2F B2F B2F B2F B2F B2F B2F B2F B2F B2F B2F B2F B2F B2F B2F B2F B2F B2F B2F B2F B2F B2F B2F B2F B2F B2F B2F B2F B2F B2F B2F B2F B2F B2F B2F B2F B2F B2F B2F B2F B2F B2F B2F B2F B2F B2F B2F B2F B2F B2F B2F B2F B2F B2F B2F B2F B2F B2F B2F B2F B2F B2F B2F B2F B2F B2F B2F B2F F F C3F C3F C3F C3F C3F C3F C3F C3F C3F C3F C3F C3F C3F C3F C3F C3F C3F C3F C3F C3F C3F C3F C3F C3F C3F C3F C3F C3F C3F C3F C3F C3F C3F C3F C3F C3F C3F C3F C3F C3F C3F C3F C3F C3F C3F C3F C3F C3F C3F C3F C3F C3F C3F C3F C3F C3F C3F C3F C3F C3F C3F C3F C3F C3F C3F C3F C3F C3F C3F C3F C3F C3F C3F C3F C3F C3F C3F C3F C3F C3F C3F C3F C3F C3F C3F C3F C3F C3F C3F C3F C3F C3F C3F C3F C3F C3F C3F C3F C3F C3F C3F C3F C3F C3F C3F C3F C3F C3F C3F C3F C3F C3F C3F C3F C3F C3F C3F C3F C3F C3F C3F C3F C3F C3F C3F C3F C3F C3F C3F C3F C3F C3F C3F C3F C3F C3F C3F C3F C3F C3F C3F C3F C3F C3F C3F C3F C3F C3F C3F C3F C3F C3F C3F C3F C3F C3F C3F C3F C3F C3F C3F C3F C3F C3F C3F C3F C3F C3F C3F C3F C3F C3F C3F C3F C3F C3F C3F C3F C3F C3F C3F C3F C3F C3F C3F C3F 3F 3F >3F >3F >3F >3F >3F >3F >3F >3F >3F >3F >3F >3F >3F >3F >3F >3F >3F >3F >3F >3F >3F >3F >3F >3F >3F >3F >3F >3F >3F >3F >3F >3F >3F >3F >3F >3F >3F >3F >3F >3F >3F >3F >3F >3F >3F >3F >3F >3F >3F >3F >3F >3F >3F >3F >3F >3F >3F >3F >3F >3F >3F >3F >3F >3F >3F >3F >3F >3F >3F >3F >3F >3F >3F >3F >3F >3F >3F >3F >3F >3F >3F >3F >3F >3F >3F >3F >3F >3F >3F >3F >3F >3F >3F >3F >3F >3F >3F >3F >3F >3F >3F >3F >3F >3F >3F >3F >3F >3F >3F >3F >3F >3F >3F >3F >3F >3F >3F >3F >3F >3F >3F >3F >3F >3F >3F >3F >3F >3F >3F >3F >3F >3F >3F >3F >3F >3F >3F >3F >3F >3F >3F >3F >3F >3F >3F >3F >3F >3F >3F >3F >3F >3F >3F >3F >3F >3F >3F >3F >3F >3F >3F >3F >3F >3F >3F >3F >3F >3F >3F >3F >3F >3F >3F >3F >3F >3F >3F >3F >3F >3F >3F >3F >3F >3F >3F >3F F F F?7 F?7 F?7 F?7 F?7 F?7 F?7 F?7 F?7 F?7 F?7 F?7 F?7 F?7 F?7 F?7 F?7 F?7 F?7 F?7 F?7 F?7 F?7 F?7 F?7 F?7 F?7 F?7 F?7 F?7 F?7 F?7 F?7 F?7 F?7 F?7 F?7 F?7 F?7 F?7 F?7 F?7 F?7 F?7 F?7 F?7 F?7 F?7 F?7 F?7 F?7 F?7 F?7 F?7 F?7 F?7 F?7 F?7 F?7 F?7 F?7 F?7 F?7 F?7 F?7 F?7 F?7 F?7 F?7 F?7 F?7 F?7 F?7 F?7 F?7 F?7 F?7 F?7 F?7 F?7 F?7 F?7 F?7 F?7 F?7 F?7 F?7 F?7 F?7 F?7 F?7 F?7 F?7 F?7 F?7 F?7 F?7 F?7 F?7 F?7 F?7 F?7 F?7 F?7 F?7 F?7 F?7 F?7 F?7 F?7 F?7 F?7 F?7 F?7 F?7 F?7 F?7 F?7 F?7 F?7 F?7 F?7 F?7 F?7 F?7 F?7 F?7 F?7 F?7 F?7 F?7 F?7 F?7 F?7 F?7 F?7 F?7 F?7 F?7 F?7 F?7 F?7 F?7 F?7 F?7 F?7 F?7 F?7 F?7 F?7 F?7 F?7 F?7 F?7 F?7 F?7 F?7 F?7 F?7 F?7 F?7 F?7 F?7 F?7 F?7 F?7 F?7 F?7 F?7 F?7 F?7 F?7 F?7 F?7 F?7 F?7 F?7 F?7 F?7 F?7 F?7 F?7 F?7 F?7 ?7 ?7 7 7 F7 F7 F7 F7 F7 F7 F7 F7 F7 F7 F7 F7 F7 F7 F7 F7 F7 F7 F7 F7 F7 F7 F7 F7 F7 F7 F7 F7 F7 F7 F7 F7 F7 F7 F7 F7 F7 F7 F7 F7 F7 F7 F7 F7 F7 F7 F7 F7 F7 F7 F7 F7 F7 F7 F7 F7 F7 F7 F7 F7 F7 F7 F7 F7 F7 F7 F7 F7 F7 F7 F7 F7 F7 F7 F7 F7 F7 F7 F7 F7 F7 F7 F7 F7 F7 F7 F7 F7 F7 F7 F7 F7 F7 F7 F7 F7 F7 F7 F7 F7 F7 F7 F7 F7 F7 F7 F7 F7 F7 F7 F7 F7 F7 F7 F7 F7 F7 F7 F7 F7 F7 F7 F7 F7 F7 F7 F7 F7 F7 F7 F7 F7 F7 F7 F7 F7 F7 F7 F7 F7 F7 F7 F7 F7 F7 F7 F7 F7 F7 F7 F7 F7 F7 F7 F7 F7 F7 F7 F7 F7 F7 F7 F7 F7 F7 F7 F7 F7 F7 F7 F7 F7 F7 F7 F7 F7 F7 F7 F7 F7 F7 F7 F7 F7 F7 F7   E0 E0 E0 E0 E0 E0 E0 E0 E0 E0 E0 E0 E0 E0 E0 E0 E0 E0 E0 E0 E0 E0 E0 E0 E0 E0 E0 E0 E0 E0 E0 E0 E0 E0 E0 E0 E0 E0 E0 E0 E0 E0 E0 E0 E0 E0 E0 E0 E0 E0 E0 E0 E0 E0 E0 E0 E0 E0 E0 E0 E0 E0 E0 E0 E0 E0 E0 E0 E0 E0 E0 E0 E0 E0 E0 E0 E0 E0 E0 E0 E0 E0 E0 E0 E0 E0 E0 E0 E0 E0 E0 E0 E0 E0 E0 E0 E0 E0 E0 E0 E0 E0 E0 E0 E0 E0 E0 E0 E0 E0 E0 E0 E0 E0 E0 E0 E0 E0 E0 E0 E0 E0 E0 E0 E0 E0 E0 E0 E0 E0 E0 E0 E0 E0 E0 E0 E0 E0 E0 E0 E0 E0 E0 E0 E0 E0 E0 E0 E0 E0 E0 E0 E0 E0 E0 E0 E0 E0 E0 E0 E0 E0 E0 E0 E0 E0 E0 E0 E0 E0 E0 E0 E0 E0 E0 E0 E0 E0 E0 E0 E0 E0 E0 E0 E0 E0 0 0 H0 H0 H0 H0 H0 H0 H0 H0 H0 H0 H0 H0 H0 H0 H0 H0 H0 H0 H0 H0 H0 H0 H0 H0 H0 H0 H0 H0 H0 H0 H0 H0 H0 H0 H0 H0 H0 H0 H0 H0 H0 H0 H0 H0 H0 H0 H0 H0 H0 H0 H0 H0 H0 H0 H0 H0 H0 H0 H0 H0 H0 H0 H0 H0 H0 H0 H0 H0 H0 H0 H0 H0 H0 H0 H0 H0 H0 H0 H0 H0 H0 H0 H0 H0 H0 H0 H0 H0 H0 H0 H0 H0 H0 H0 H0 H0 H0 H0 H0 H0 H0 H0 H0 H0 H0 H0 H0 H0 H0 H0 H0 H0 H0 H0 H0 H0 H0 H0 H0 H0 H0 H0 H0 H0 H0 H0 H0 H0 H0 H0 H0 H0 H0 H0 H0 H0 H0 H0 H0 H0 H0 H0 H0 H0 H0 H0 H0 H0 H0 H0 H0 H0 H0 H0 H0 H0 H0 H0 H0 H0 H0 H0 H0 H0 H0 H0 H0 H0 H0 H0 H0 H0 H0 H0 H0 H0 H0 H0 H0 H0 H0 H0 H0 H0 H0 H0  B3 B3 B3 B3 B3 B3 B3 B3 B3 B3 B3 B3 B3 B3 B3 B3 B3 B3 B3 B3 B3 B3 B3 B3 B3 B3 B3 B3 B3 B3 B3 B3 B3 B3 B3 B3 B3 B3 B3 B3 B3 B3 B3 B3 B3 B3 B3 B3 B3 B3 B3 B3 B3 B3 B3 B3 B3 B3 B3 B3 B3 B3 B3 B3 B3 B3 B3 B3 B3 B3 B3 B3 B3 B3 B3 B3 B3 B3 B3 B3 B3 B3 B3 B3 B3 B3 B3 B3 B3 B3 B3 B3 B3 B3 B3 B3 B3 B3 B3 B3 B3 B3 B3 B3 B3 B3 B3 B3 B3 B3 B3 B3 B3 B3 B3 B3 B3 B3 B3 B3 B3 B3 B3 B3 B3 B3 B3 B3 B3 B3 B3 B3 B3 B3 B3 B3 B3 B3 B3 B3 B3 B3 B3 B3 B3 B3 B3 B3 B3 B3 B3 B3 B3 B3 B3 B3 B3 B3 B3 B3 B3 B3 B3 B3 B3 B3 B3 B3 B3 B3 B3 B3 B3 B3 B3 B3 B3 B3 B3 B3 B3 B3 B3 B3 B3 B3 3 3 C3 C3 C3 C3 C3 C3 C3 C3 C3 C3 C3 C3 C3 C3 C3 C3 C3 C3 C3 C3 C3 C3 C3 C3 C3 C3 C3 C3 C3 C3 C3 C3 C3 C3 C3 C3 C3 C3 C3 C3 C3 C3 C3 C3 C3 C3 C3 C3 C3 C3 C3 C3 C3 C3 C3 C3 C3 C3 C3 C3 C3 C3 C3 C3 C3 C3 C3 C3 C3 C3 C3 C3 C3 C3 C3 C3 C3 C3 C3 C3 C3 C3 C3 C3 C3 C3 C3 C3 C3 C3 C3 C3 C3 C3 C3 C3 C3 C3 C3 C3 C3 C3 C3 C3 C3 C3 C3 C3 C3 C3 C3 C3 C3 C3 C3 C3 C3 C3 C3 C3 C3 C3 C3 C3 C3 C3 C3 C3 C3 C3 C3 C3 C3 C3 C3 C3 C3 C3 C3 C3 C3 C3 C3 C3 C3 C3 C3 C3 C3 C3 C3 C3 C3 C3 C3 C3 C3 C3 C3 C3 C3 C3 C3 C3 C3 C3 C3 C3 C3 C3 C3 C3 C3 C3 C3 C3 C3 C3 C3 C3 C3 C3 C3 C3 C3 C3   C2 C2 C2 C2 C2 C2 C2 C2 C2 C2 C2 C2 C2 C2 C2 C2 C2 C2 C2 C2 C2 C2 C2 C2 C2 C2 C2 C2 C2 C2 C2 C2 C2 C2 C2 C2 C2 C2 C2 C2 C2 C2 C2 C2 C2 C2 C2 C2 C2 C2 C2 C2 C2 C2 C2 C2 C2 C2 C2 C2 C2 C2 C2 C2 C2 C2 C2 C2 C2 C2 C2 C2 C2 C2 CB2 CB2 CB2 CB2 CB2 CB2 CB2 CB2 CB2 CB2 CB2 CB2 CB2 CB2 CB2 CB2 CB2 CB2 B2 B2 B2 B2 B2 B2 B2 B2 B2 B2 B2 B2 B2 B2 B2 B2 B2 B2 B2 B2 B2 B2 B2 B2 B2 B2 B2 B2 B2 B2 B2 B2 B2 B2 B2 B2 B2 B2 B2 B2 B2 B2 B2 B2 B2 B2 B2 B2 B2 B2 B2 B2 B2 B2 B2 B2 BC2 BC2 BC2 BC2 BC2 BC2 BC2 BC2 BC2 BC2 BC2 BC2 BC2 BC2 BC2 BC2 BC2 BC2 C2 C2 C2 C2 C2 C2 C2 C2 C2 C2 C2 C2 C2 C2 C2 C2 C2 C2 C2 C2 C2 C2 C2 C2 C2 C2 C2 C2 C2 C2 C2 C2 C2 C2 C2 C2 C2 C2 C2 C2 C2 C2 C2 C2 C2 C2 C2 C2 C2 C2 C2 C2 C2 C2 C2 C2 CB2 CB2 CB2 CB2 CB2 CB2 CB2 CB2 CB2 CB2 CB2 CB2 CB2 CB2 CB2 CB2 CB2 CB2 B2 B2 B2 B2 B2 B2 B2 B2 B2 B2 B2 B2 B2 B2 B2 B2 B2 B2 B2 B2 B2 B2 B2 B2 B2 B2 B2 B2 B2 B2 B2 B2 B2 B2 B2 B2 B2 B2 B2 B2 B2 B2 B2 B2 B2 B2 B2 B2 B2 B2 B2 B2 B2 B2 B2 B2 B2 B2 B2 B2 B2 B2 B2 B2 B2 B2 B2 B2 B2 B2 B2 B2 B2 B2 B2 B2 B2 B2 B2 B2 B2 B2 B2 B2 B2 B2 B2 B2 B2 B2 B2 B2 B2 B2 B2 B2 B2 B2 B2 B2 B2 B2 B2 B2 B2 B2 B2 B2 B2 B2 B2 B2 B2 B2 B2 B2 B2 B2 B2 B2 B2 B2 B2 B2 B2 B2 B2 B2 B2 B2 B2 B2 2 2 2 2 @2 @2 @2 @2 @2 @2 @2 @2 @2 @2 @2 @2 @2 @2 @2 @2 @2 @2 @2 @2 @2 @2 @2 @2 @2 @2 @2 @2 @2 @2 @2 @2 @2 @2 @2 @2 @2 @2 @2 @2 @2 @2 @2 @2 @2 @2 @2 @2 @2 @2 @2 @2 @2 @2 @2 @2 @2 @2 @2 @2 @2 @2 @2 @2 @2 @2 @2 @2 @2 @2 @2 @2 @2 @2 @2 @2 @2 @2 @2 @2 @2 @2 @2 @2 @2 @2 @2 @2 @2 @2 @2 @2 @2 @2 @2 @2 @2 @2 @2 @2 @2 @2 @2 @2 @2 @2 @2 @2 @2 @2 @2 @2 @2 @2 @2 @2 @2 @2 @2 @2 @2 @2 @2 @2 @2 @2 @2 @2 @2 @2 @2 @2 @2 @2 @2 @2 @2 @2 @2 @2 @2 @2 @2 @2 @2 @2 @2 @2 @2 @2 @2 @2 @2 @2 @2 @2 @2 @2 @2 @2 @2 @2 @2 @2 @2 @2 @2 @2 @2 @2 @2 @2 @2 @2 @2 @2 @2 @2 @2 @2 @2 @2 @2 @2 @2 @2   >0 >0 >0 >0 >0 >0 >0 >0 >0 >0 >0 >0 >0 >0 >0 >0 >0 >0 >0 >0 >0 >0 >0 >0 >0 >0 >0 >0 >0 >0 >0 >0 >0 >0 >0 >0 >0 >0 >0 >0 >0 >0 >0 >0 >0 >0 >0 >0 >0 >0 >0 >0 >0 >0 >0 >0 >0 >0 >0 >0 >0 >0 >0 >0 >0 >0 >0 >0 >0 >0 >0 >0 >0 >0 >0 >0 >0 >0 >0 >0 >0 >0 >0 >0 >0 >0 >0 >0 >0 >0 >0 >0 >0 >0 >0 >0 >0 >0 >0 >0 >0 >0 >0 >0 >0 >0 >0 >0 >0 >0 >0 >0 >0 >0 >0 >0 >0 >0 >0 >0 >0 >0 >0 >0 >0 >0 >0 >0 >0 >0 >0 >0 >0 >0 >0 >0 >0 >0 >0 >0 >0 >0 >0 >0 >0 >0 >0 >0 >0 >0 >0 >0 >0 >0 >0 >0 >0 >0 >0 >0 >0 >0 >0 >0 >0 >0 >0 >0 >0 >0 >0 >0 >0 >0 >0 >0 >0 >0 >0 >0 >0 >0 >0 >0 >0 >0   .J .J .J .J .J .J .J .J .J .J .J .J .J .J .J .J .J .J .J .J .J .J .J .J .J .J .J .J .J .J .J .J .J .J .J .J .J .J .J .J .J .J .J .J .J .J .J .J .J .J .J .J .J .J .J .J .J .J .J .J .J .J .J .J .J .J .J .J .J .J .J .J .J .J .J .J .J .J .J .J .J .J .J .J .J .J .J .J .J .J .J .J .J .J .J .J .J .J .J .J .J .J .J .J .J .J .J .J .J .J .J .J .J .J .J .J .J .J .J .J .J .J .J .J .J .J .J .J .J .J .J .J .J .J .J .J .J .J .J .J .J .J .J .J .J .J .J .J .J .J .J .J .J .J .J .J .J .J .J .J .J .J .J .J .J .J .J .J .J .J .J .J .J .J .J .J .J .J .J .J .J .J .J .J .J .J J J -J -J -J -J -J -J -J -J -J -J -J -J -J -J -J -J -J -J -J -J -J -J -J -J -J -J -J -J -J -J -J -J -J -J -J -J -J -J -J -J -J -J -J -J -J -J -J -J -J -J -J -J -J -J -J -J -J -J -J -J -J -J -J -J -J -J -J -J -J -J -J -J -J -J -J -J -J -J -J -J -J -J -J -J -J -J -J -J -J -J -J -J -J -J -J -J -J -J -J -J -J -J -J -J -J -J -J -J -J -J -J -J -J -J -J -J -J -J -J -J -J -J -J -J -J -J -J -J -J -J -J -J -J -J -J -J -J -J -J -J -J -J -J -J -J -J -J -J -J -J -J -J -J -J -J -J -J -J -J -J -J -J -J -J -J -J -J -J -J -J -J -J -J -J -J -J -J -J -J -J -J -J -J -J -J -J J J .J .J .J .J .J .J .J .J .J .J .J .J .J .J .J .J .J .J .J .J .J .J .J .J .J .J .J .J .J .J .J .J .J .J .J .J .J .J .J .J .J .J .J .J .J .J .J .J .J .J .J .J .J .J .J .J .J .J .J .J .J .J .J .J .J .J .J .J .J .J .J .J .J .J .J .J .J .J .J .J .J .J .J .J .J .J .J .J .J .J .J .J .J .J .J .J .J .J .J .J .J .J .J .J .J .J .J .J .J .J .J .J .J .J .J .J .J .J .J .J .J .J .J .J .J .J .J .J .J .J .J .J .J .J .J .J .J .J .J .J .J .J .J .J .J .J .J .J .J .J .J .J .J .J .J .J .J .J .J .J .J .J .J .J .J .J .J .J .J .J .J .J .J .J .J .J .J .J .J .J .J .J .J .J .J .J   K+ K+ K+ K+ K+ K+ K+ K+ K+ K+ K+ K+ K+ K+ K+ K+ K+ K+ K+ K+ K+ K+ K+ K+ K+ K+ K+ K+ K+ K+ K+ K+ K+ K+ K+ K+ K+ K+ K+ K+ K+ K+ K+ K+ K+ K+ K+ K+ K+ K+ K+ K+ K+ K+ K+ K+ K+ K+ K+ K+ K+ K+ K+ K+ K+ K+ K+ K+ K+ K+ K+ K+ K+ K+ K+ K+ K+ K+ K+ K+ K+ K+ K+ K+ K+ K+ K+ K+ K+ K+ K+ K+ K+ K+ K+ K+ K+ K+ K+ K+ K+ K+ K+ K+ K+ K+ K+ K+ K+ K+ K+ K+ K+ K+ K+ K+ K+ K+ K+ K+ K+ K+ K+ K+ K+ K+ K+ K+ K+ K+ K+ K+ K+ K+ K+ K+ K+ K+ K+ K+ K+ K+ K+ K+ K+ K+ K+ K+ K+ K+ K+ K+ K+ K+ K+ K+ K+ K+ K+ K+ K+ K+ K+ K+ K+ K+ K+ K+ K+ K+ K+ K+ K+ K+ K+ K+ K+ K+ K+ K+ K+ K+ K+ K+ K+ K+   J2 J2 J2 J2 J2 J2 J2 J2 J2 J2 J2 J2 J2 J2 J2 J2 J2 J2 J2 J2 J2 J2 J2 J2 J2 J2 J2 J2 J2 J2 J2 J2 J2 J2 J2 J2 J2 J2 J2 J2 J2 J2 J2 J2 J2 J2 J2 J2 J2 J2 J2 J2 J2 J2 J2 J2 J2 J2 J2 J2 J2 J2 J2 J2 J2 J2 J2 J2 J2 J2 J2 J2 J2 J2 J2 J2 J2 J2 J2 J2 J2 J2 J2 J2 J2 J2 J2 J2 J2 J2 J2 J2 J2 J2 J2 J2 J2 J2 J2 J2 J2 J2 J2 J2 J2 J2 J2 J2 J2 J2 J2 J2 J2 J2 J2 J2 J2 J2 J2 J2 J2 J2 J2 J2 J2 J2 J2 J2 J2 J2 J2 J2 J2 J2 J2 J2 J2 J2 J2 J2 J2 J2 J2 J2 J2 J2 J2 J2 J2 J2 J2 J2 J2 J2 J2 J2 J2 J2 J2 J2 J2 J2 J2 J2 J2 J2 J2 J2 J2 J2 J2 J2 J2 J2 J2 J2 J2 J2 J2 J2 J2 J2 J2 J2 J2 J2 2 2 H2 H2 H2 H2 H2 H2 H2 H2 H2 H2 H2 H2 H2 H2 H2 H2 H2 H2 H2 H2 H2 H2 H2 H2 H2 H2 H2 H2 H2 H2 H2 H2 H2 H2 H2 H2 H2 H2 H2 H2 H2 H2 H2 H2 H2 H2 H2 H2 H2 H2 H2 H2 H2 H2 H2 H2 H2 H2 H2 H2 H2 H2 H2 H2 H2 H2 H2 H2 H2 H2 H2 H2 H2 H2 H2 H2 H2 H2 H2 H2 H2 H2 H2 H2 H2 H2 H2 H2 H2 H2 H2 H2 H2 H2 H2 H2 H2 H2 H2 H2 H2 H2 H2 H2 H2 H2 H2 H2 H2 H2 H2 H2 H2 H2 H2 H2 H2 H2 H2 H2 H2 H2 H2 H2 H2 H2 H2 H2 H2 H2 H2 H2 H2 H2 H2 H2 H2 H2 H2 H2 H2 H2 H2 H2 H2 H2 H2 H2 H2 H2 H2 H2 H2 H2 H2 H2 H2 H2 H2 H2 H2 H2 H2 H2 H2 H2 H2 H2 H2 H2 H2 H2 H2 H2 H2 H2 H2 H2 H2 H2 H2 H2 H2 H2 H2 H2   F& F& F& F& F& F& F& F& F& F& F& F& F& F& F& F& F& F& F& F& F& F& F& F& F& F& F& F& F& F& F& F& F& F& F& F& F& F& F& F& F& F& F& F& F& F& F& F& F& F& F& F& F& F& F& F& F& F& F& F& F& F& F& F& F& F& F& F& F& F& F& F& F& F& F& F& F& F& F& F& F& F& F& F& F& F& F& F& F& F& F& F& F& F& F& F& F& F& F& F& F& F& F& F& F& F& F& F& F& F& F& F& F& F& F& F& F& F& F& F& F& F& F& F& F& F& F& F& F& F& F& F& F& F& F& F& F& F& F& F& F& F& F& F& F& F& F& F& F& F& F& F& F& F& F& F& F& F& F& F& F& F& F& F& F& F& F& F& F& F& F& F& F& F& F& F& F& F& F& F& F& F& F& F& F& F& & E& E& E& E& E& E& E& E& E& E& E& E& E& E& E& E& E& E& E& E& E& E& E& E& E& E& E& E& E& E& E& E& E& E& E& E& E& E& E& E& E& E& E& E& E& E& E& E& E& E& E& E& E& E& E& E& E& E& E& E& E& E& E& E& E& E& E& E& E& E& E& E& E& E& E& E& E& E& E& E& E& E& E& E& E& E& E& E& E& E& E& E& E& E& E& E& E& E& E& E& E& E& E& E& E& E& E& E& E& E& E& E& E& E& E& E& E& E& E& E& E& E& E& E& E& E& E& E& E& E& E& E& E& E& E& E& E& E& E& E& E& E& E& E& E& E& E& E& E& E& E& E& E& E& E& E& E& E& E& E& E& E& E& E& E& E& E& E& E& E& E& E& E& E& E& E& E& E& E& E& E& E& E& E& E& E& &  F+ F+ F+ F+ F+ F+ F+ F+ F+ F+ F+ F+ F+ F+ F+ F+ F+ F+ F+ F+ F+ F+ F+ F+ F+ F+ F+ F+ F+ F+ F+ F+ F+ F+ F+ F+ F+ F+ F+ F+ F+ F+ F+ F+ F+ F+ F+ F+ F+ F+ F+ F+ F+ F+ F+ F+ F+ F+ F+ F+ F+ F+ F+ F+ F+ F+ F+ F+ F+ F+ F+ F+ F+ F+ F+ F+ F+ F+ F+ F+ F+ F+ F+ F+ F+ F+ F+ F+ F+ F+ F+ F+ F+ F+ F+ F+ F+ F+ F+ F+ F+ F+ F+ F+ F+ F+ F+ F+ F+ F+ F+ F+ F+ F+ F+ F+ F+ F+ F+ F+ F+ F+ F+ F+ F+ F+ F+ F+ F+ F+ F+ F+ F+ F+ F+ F+ F+ F+ F+ F+ F+ F+ F+ F+ F+ F+ F+ F+ F+ F+ F+ F+ F+ F+ F+ F+ F+ F+ F+ F+ F+ F+ F+ F+ F+ F+ F+ F+ F+ F+ F+ F+ F+ F+ F+ F+ F+ F+ F+ F+ F+ F+ F+ F+ F+ F+ + + E+ E+ E+ E+ E+ E+ E+ E+ E+ E+ E+ E+ E+ E+ E+ E+ E+ E+ E+ E+ E+ E+ E+ E+ E+ E+ E+ E+ E+ E+ E+ E+ E+ E+ E+ E+ E+ E+ E+ E+ E+ E+ E+ E+ E+ E+ E+ E+ E+ E+ E+ E+ E+ E+ E+ E+ E+ E+ E+ E+ E+ E+ E+ E+ E+ E+ E+ E+ E+ E+ E+ E+ E+ E+ E+ E+ E+ E+ E+ E+ E+ E+ E+ E+ E+ E+ E+ E+ E+ E+ E+ E+ E+ E+ E+ E+ E+ E+ E+ E+ E+ E+ E+ E+ E+ E+ E+ E+ E+ E+ E+ E+ E+ E+ E+ E+ E+ E+ E+ E+ E+ E+ E+ E+ E+ E+ E+ E+ E+ E+ E+ E+ E+ E+ E+ E+ E+ E+ E+ E+ E+ E+ E+ E+ E+ E+ E+ E+ E+ E+ E+ E+ E+ E+ E+ E+ E+ E+ E+ E+ E+ E+ E+ E+ E+ E+ E+ E+ E+ E+ E+ E+ E+ E+ E+ E+ E+ E+ E+ E+ E+ E+ E+ E+ E+ E+ + + C.+ C.+ C.+ C.+ C.+ C.+ C.+ C.+ C.+ C.+ C.+ C.+ C.+ C.+ C.+ C.+ C.+ C.+ C.+ C.+ C.+ C.+ C.+ C.+ C.+ C.+ C.+ C.+ C.+ C.+ C.+ C.+ C.+ C.+ C.+ C.+ C.+ C.+ C.+ C.+ C.+ C.+ C.+ C.+ C.+ C.+ C.+ C.+ C.+ C.+ C.+ C.+ C.+ C.+ C.+ C.+ C.+ C.+ C.+ C.+ C.+ C.+ C.+ C.+ C.+ C.+ C.+ C.+ C.+ C.+ C.+ C.+ C.+ C.+ C.+ C.+ C.+ C.+ C.+ C.+ C.+ C.+ C.+ C.+ C.+ C.+ C.+ C.+ C.+ C.+ C.+ C.+ C.+ C.+ C.+ C.+ C.+ C.+ C.+ C.+ C.+ C.+ C.+ C.+ C.+ C.+ C.+ C.+ C.+ C.+ C.+ C.+ C.+ C.+ C.+ C.+ C.+ C.+ C.+ C.+ C.+ C.+ C.+ C.+ C.+ C.+ C.+ C.+ C.+ C.+ C.+ C.+ C.+ C.+ C.+ C.+ C.+ C.+ C.+ C.+ C.+ C.+ C.+ C.+ C.+ C.+ C.+ C.+ C.+ C.+ C.+ C.+ C.+ C.+ C.+ C.+ C.+ C.+ C.+ C.+ C.+ C.+ C.+ C.+ C.+ C.+ C.+ C.+ C.+ C.+ C.+ C.+ C.+ C.+ C.+ C.+ C.+ C.+ C.+ C.+ C.+ C.+ C.+ C.+ C.+ C.+ .+ .+ E.+ E.+ E.+ E.+ E.+ E.+ E.+ E.+ E.+ E.+ E.+ E.+ E.+ E.+ E.+ E.+ E.+ E.+ E.+ E.+ E.+ E.+ E.+ E.+ E.+ E.+ E.+ E.+ E.+ E.+ E.+ E.+ E.+ E.+ E.+ E.+ E.+ E.+ E.+ E.+ E.+ E.+ E.+ E.+ E.+ E.+ E.+ E.+ E.+ E.+ E.+ E.+ E.+ E.+ E.+ E.+ E.+ E.+ E.+ E.+ E.+ E.+ E.+ E.+ E.+ E.+ E.+ E.+ E.+ E.+ E.+ E.+ E.+ E.+ E.+ E.+ E.+ E.+ E.+ E.+ E.+ E.+ E.+ E.+ E.+ E.+ E.+ E.+ E.+ E.+ E.+ E.+ E.+ E.+ E.+ E.+ E.+ E.+ E.+ E.+ E.+ E.+ E.+ E.+ E.+ E.+ E.+ E.+ E.+ E.+ E.+ E.+ E.+ E.+ E.+ E.+ E.+ E.+ E.+ E.+ E.+ E.+ E.+ E.+ E.+ E.+ E.+ E.+ E.+ E.+ E.+ E.+ E.+ E.+ E.+ E.+ E.+ E.+ E.+ E.+ E.+ E.+ E.+ E.+ E.+ E.+ E.+ E.+ E.+ E.+ E.+ E.+ E.+ E.+ E.+ E.+ E.+ E.+ E.+ E.+ E.+ E.+ E.+ E.+ E.+ E.+ E.+ E.+ E.+ E.+ E.+ E.+ E.+ E.+ E.+ E.+ E.+ E.+ E.+ E.+ E.+ E.+ E.+ E.+ E.+ E.+ + + F+2 F+2 F+2 F+2 F+2 F+2 F+2 F+2 F+2 F+2 F+2 F+2 F+2 F+2 F+2 F+2 F+2 F+2 F+2 F+2 F+2 F+2 F+2 F+2 F+2 F+2 F+2 F+2 F+2 F+2 F+2 F+2 F+2 F+2 F+2 F+2 F+2 F+2 F+2 F+2 F+2 F+2 F+2 F+2 F+2 F+2 F+2 F+2 F+2 F+2 F+2 F+2 F+2 F+2 F+2 F+2 F+2 F+2 F+2 F+2 F+2 F+2 F+2 F+2 F+2 F+2 F+2 F+2 F+2 F+2 F+2 F+2 F+2 F+2 F+2 F+2 F+2 F+2 F+2 F+2 F+2 F+2 F+2 F+2 F+2 F+2 F+2 F+2 F+2 F+2 F+2 F+2 F+2 F+2 F+2 F+2 F+2 F+2 F+2 F+2 F+2 F+2 F+2 F+2 F+2 F+2 F+2 F+2 F+2 F+2 F+2 F+2 F+2 F+2 F+2 F+2 F+2 F+2 F+2 F+2 F+2 F+2 F+2 F+2 F+2 F+2 F+2 F+2 F+2 F+2 F+2 F+2 F+2 F+2 F+2 F+2 F+2 F+2 F+2 F+2 F+2 F+2 F+2 F+2 F+2 F+2 F+2 F+2 F+2 F+2 F+2 F+2 F+2 F+2 F+2 F+2 F+2 F+2 F+2 F+2 F+2 F+2 F+2 F+2 F+2 F+2 F+2 F+2 F+2 F+2 F+2 F+2 F+2 F+2 F+2 F+2 F+2 F+2 F+2 F+2 F+2 F+2 F+2 F+2 F+2 F+2 +2 +2 +H2 +H2 +H2 +H2 +H2 +H2 +H2 +H2 +H2 +H2 +H2 +H2 +H2 +H2 +H2 +H2 +H2 +H2 +H2 +H2 +H2 +H2 +H2 +H2 +H2 +H2 +H2 +H2 +H2 +H2 +H2 +H2 +H2 +H2 +H2 +H2 +H2 +H2 +H2 +H2 +H2 +H2 +H2 +H2 +H2 +H2 +H2 +H2 +H2 +H2 +H2 +H2 +H2 +H2 +H2 +H2 +H2 +H2 +H2 +H2 +H2 +H2 +H2 +H2 +H2 +H2 +H2 +H2 +H2 +H2 +H2 +H2 +H2 +H2 +H2 +H2 +H2 +H2 +H2 +H2 +H2 +H2 +H2 +H2 +H2 +H2 +H2 +H2 +H2 +H2 +H2 +H2 +H2 +H2 +H2 +H2 +H2 +H2 +H2 +H2 +H2 +H2 +H2 +H2 +H2 +H2 +H2 +H2 +H2 +H2 +H2 +H2 +H2 +H2 +H2 +H2 +H2 +H2 +H2 +H2 +H2 +H2 +H2 +H2 +H2 +H2 +H2 +H2 +H2 +H2 +H2 +H2 +H2 +H2 +H2 +H2 +H2 +H2 +H2 +H2 +H2 +H2 +H2 +H2 +H2 +H2 +H2 +H2 +H2 +H2 +H2 +H2 +H2 +H2 +H2 +H2 +H2 +H2 +H2 +H2 +H2 +H2 +H2 +H2 +H2 +H2 +H2 +H2 +H2 +H2 +H2 +H2 +H2 +H2 +H2 +H2 +H2 +H2 +H2 +H2 +H2 +H2 +H2 +H2 +H2 H2   J7 J7 J7 J7 J7 J7 J7 J7 J7 J7 J7 J7 J7 J7 J7 J7 J7 J7 J7 J7 J7 J7 J7 J7 J7 J7 J7 J7 J7 J7 J7 J7 J7 J7 J7 J7 J7 J7 J7 J7 J7 J7 J7 J7 J7 J7 J7 J7 J7 J7 J7 J7 J7 J7 J7 J7 J7 J7 J7 J7 J7 J7 J7 J7 J7 J7 J7 J7 J7 J7 J7 J7 J7 J7 J7 J7 J7 J7 J7 J7 J7 J7 J7 J7 J7 J7 J7 J7 J7 J7 J7 J7 J7 J7 J7 J7 J7 J7 J7 J7 J7 J7 J7 J7 J7 J7 J7 J7 J7 J7 J7 J7 J7 J7 J7 J7 J7 J7 J7 J7 J7 J7 J7 J7 J7 J7 J7 J7 J7 J7 J7 J7 J7 J7 J7 J7 J7 J7 J7 J7 J7 J7 J7 J7 J7 J7 J7 J7 J7 J7 J7 J7 J7 J7 J7 J7 J7 J7 J7 J7 J7 J7 J7 J7 J7 J7 J7 J7 J7 J7 J7 J7 J7 J7 J7 J7 J7 J7 J7 J7 J7 J7 J7 J7 J7 J7 7 7 K7 K7 K7 K7 K7 K7 K7 K7 K7 K7 K7 K7 K7 K7 K7 K7 K7 K7 K7 K7 K7 K7 K7 K7 K7 K7 K7 K7 K7 K7 K7 K7 K7 K7 K7 K7 K7 K7 K7 K7 K7 K7 K7 K7 K7 K7 K7 K7 K7 K7 K7 K7 K7 K7 K7 K7 K7 K7 K7 K7 K7 K7 K7 K7 K7 K7 K7 K7 K7 K7 K7 K7 K7 K7 K7 K7 K7 K7 K7 K7 K7 K7 K7 K7 K7 K7 K7 K7 K7 K7 K7 K7 K7 K7 K7 K7 K7 K7 K7 K7 K7 K7 K7 K7 K7 K7 K7 K7 K7 K7 K7 K7 K7 K7 K7 K7 K7 K7 K7 K7 K7 K7 K7 K7 K7 K7 K7 K7 K7 K7 K7 K7 K7 K7 K7 K7 K7 K7 K7 K7 K7 K7 K7 K7 K7 K7 K7 K7 K7 K7 K7 K7 K7 K7 K7 K7 K7 K7 K7 K7 K7 K7 K7 K7 K7 K7 K7 K7 K7 K7 K7 K7 K7 K7 K7 K7 K7 K7 K7 K7 K7 K7 K7 K7 K7 K7   M5 M5 M5 M5 M5 M5 M5 M5 M5 M5 M5 M5 M5 M5 M5 M5 M5 M5 M5 M5 M5 M5 M5 M5 M5 M5 M5 M5 M5 M5 M5 M5 M5 M5 M5 M5 M5 M5 M5 M5 M5 M5 M5 M5 M5 M5 M5 M5 M5 M5 M5 M5 M5 M5 M5 M5 M5 M5 M5 M5 M5 M5 M5 M5 M5 M5 M5 M5 M5 M5 M5 M5 M5 M5 M5 M5 M5 M5 M5 M5 M5 M5 M5 M5 M5 M5 M5 M5 M5 M5 M5 M5 M5 M5 M5 M5 M5 M5 M5 M5 M5 M5 M5 M5 M5 M5 M5 M5 M5 M5 M5 M5 M5 M5 M5 M5 M5 M5 M5 M5 M5 M5 M5 M5 M5 M5 M5 M5 M5 M5 M5 M5 M5 M5 M5 M5 M5 M5 M5 M5 M5 M5 M5 M5 M5 M5 M5 M5 M5 M5 M5 M5 M5 M5 M5 M5 M5 M5 M5 M5 5 5 5 5 5 K5 K5 K5 K5 K5 K5 K5 K5 K5 K5 K5 K5 K5 K5 K5 K5 K5 K5 K5 K5 K5 K5 K5 K5 K5 K5 K5 K5 K5 K5 K5 K5 K5 K5 K5 K5 K5 K5 K5 K5 K5 K5 K5 K5 K5 K5 K5 K5 K5 K5 K5 K5 K5 K5 K5 K5 K5 K5 K5 K5 K5 K5 K5 K5 K5 K5 K5 K5 K5 K5 K5 K5 K5 K5 K5 K5 K5 K5 K5 K5 K5 K5 K5 KM5 KM5 M5 M5 M5 M5 M5 M5 M5 M5 M5 M5 M5 M5 M5 M5 M5 M5 M5 M5 M5 M5 M5 M5 M5 M5 M5 M5 M5 M5 M5 M5 M5 M5 M5 M5 M5 M5 M5 M5 M5 M5 M5 M5 M5 M5 M5 M5 M5 M5 M5 M5 M5 M5 M5 M5 M5 M5 M5 M5 M5 M5 M5 M5 M5 M5 M5 M5 M5 M5 M5 M5 M5 M5 M5 M5 M5 M5 M5 M5 M5 M5 M5 M5 M5K 5K 5K 5K 5K 5K 5K 5K 5K 5K 5K 5K 5K 5K 5K 5K 5K 5K 5K 5K 5K 5K 5K 5K 5K 5K 5K 5K 5K 5K 5K 5K 5K 5K 5K 5K 5K 5K 5K 5K 5K 5K K K K3 K3 K3 K3 K3 K3 K3 K3 K3 K3 K3 K3 K3 K3 K3 K3 K3 K3 K3 K3 K3 K3 K3 K3 K3 K3 K3 K3 K3 K3 K3 K3 K3 K3 K3 K3 K3 K3 K3 K3 KM3 M3 M3 M3 M3 M3 M3 M3 M3 M3 M3 M3 M3 M3 M3 M3 M3 M3 M3 M3 M3 M3 M3 M3 M3 M3 M3 M3 M3 M3 M3 M3 M3 M3 M3 M3 M3 M3 M3 M3 M3 M3 M3 M3 M3 M3 M3 M3 M3 M3 M3 M3 M3 M3 M3 M3 M3 M3 M3 M3 M3 M3 M3 M3 M3 M3 M3 M3 M3 M3 M3 M3 M3 M3 M3 M3 M3 M3 M3 M3 M3 M3 M3 M3 MK3 K3 K3 K3 K3 K3 K3 K3 K3 K3 K3 K3 K3 K3 K3 K3 K3 K3 K3 K3 K3 K3 K3 K3 K3 K3 K3 K3 K3 K3 K3 K3 K3 K3 K3 K3 K3 K3 K3 K3 K3 K3 K3 K3 K3 K3 K3 K3 K3 K3 K3 K3 K3 K3 K3 K3 K3 K3 K3 K3 K3 K3 K3 K3 K3 K3 K3 K3 K3 K3 K3 K3 K3 K3 K3 K3 K3 K3 K3 K3 K3 K3 K3 KJ3 KJ3 J3 J3 J3 J3 J3 J3 J3 J3 J3 J3 J3 J3 J3 J3 J3 J3 J3 J3 J3 J3 J3 J3 J3 J3 J3 J3 J3 J3 J3 J3 J3 J3 J3 J3 J3 J3 J3 J3 J3 J3 J3 J3 J3 J3 J3 J3 J3 J3 J3 J3 J3 J3 J3 J3 J3 J3 J3 J3 J3 J3 J3 J3 J3 J3 J3 J3 J3 J3 J3 J3 J3 J3 J3 J3 J3 J3 J3 J3 J3 J3 J3 J3 J3K 3K 3K 3K 3K 3K 3K 3K 3K 3K 3K 3K 3K 3K 3K 3K 3K 3K 3K 3K 3K 3K 3K 3K 3K 3K 3K 3K 3K 3K 3K 3K 3K 3K 3K 3K 3K 3K 3K 3K 3K 3K 3K 3K 3K 3K 3K 3K 3K 3K 3K 3K 3K 3K 3K 3K 3K 3K 3K 3K 3K 3K 3K 3K 3K 3K 3K 3K 3K 3K 3K 3K 3K 3K 3K 3K 3K 3K 3K 3K 3K 3K 3K K K2M 2M 2M 2M 2M 2M 2M 2M 2M 2M 2M 2M 2M 2M 2M 2M 2M 2M 2M 2M 2M 2M 2M 2M 2M 2M 2M 2M 2M 2M 2M 2M 2M 2M 2M 2M 2M 2M 2M 2M 2M 2M 2M 2M 2M 2M 2M 2M 2M 2M 2M 2M 2M 2M 2M 2M 2M 2M 2M 2M 2M 2M 2M 2M 2M 2M 2M 2M 2M 2M 2M 2M 2M 2M 2M 2M 2M 2M 2M 2M 2M 2M 2M 2M 2M 2M 2M 2M 2M 2M 2M 2M 2M 2M 2M 2M 2M 2M 2M 2M 2M 2M 2M 2M 2M 2M 2M 2M 2M 2M 2M 2M 2M 2M 2M 2M 2M 2M 2M 2M 2M 2M 2M 2M 2M 2M 2M 2M 2M 2M 2M 2M 2M 2M 2M 2M 2M 2M 2M 2M 2M 2M 2M 2M 2M 2M 2M 2M 2M 2M 2M 2M 2M 2M 2M 2M 2M 2M 2M 2M 2M 2M 2M 2M 2M 2M 2M 2M 2M 2M 2M 2M 2M 2M 2M 2M 2M 2M 2M 2M 2M 2M 2M 2M 2M 2M M M 5M 5M 5M 5M 5M 5M 5M 5M 5M 5M 5M 5M 5M 5M 5M 5M 5M 5M 5M 5M 5M 5M 5M 5M 5M 5M 5M 5M 5M 5M 5M 5M 5M 5M 5M 5M 5M 5M 5M 5M 5M 5M 5M 5M 5M 5M 5M 5M 5M 5M 5M 5M 5M 5M 5M 5M 5M 5M 5M 5M 5M 5M 5M 5M 5M 5M 5M 5M 5M 5M 5M 5M 5M 5M 5M 5M 5M 5M 5M 5M 5M 5M 5M 5M 5M 5M 5M 5M 5M 5M 5M 5M 5M 5M 5M 5M 5M 5M 5M 5M 5M 5M 5M 5M 5M 5M 5M 5M 5M 5M 5M 5M 5M 5M 5M 5M 5M 5M 5M 5M 5M 5M 5M 5M 5M 5M 5M 5M 5M 5M 5M 5M 5M 5M 5M 5M 5M 5M 5M 5M 5M 5M 5M 5M 5M 5M 5M 5M 5M 5M 5M 5M 5M 5M 5M 5M 5M 5M 5M 5M 5M 5M 5M 5M 5M 5M 5M 5M 5M 5M 5M 5M 5M 5M 5M 5M 5M 5M 5M 5M 5M 5M 5M 5M 5M 5M M M 7M 7M 7M 7M 7M 7M 7M 7M 7M 7M 7M 7M 7M 7M 7M 7M 7M 7M 7M 7M 7M 7M 7M 7M 7M 7M 7M 7M 7M 7M 7M 7M 7M 7M 7M 7M 7M 7M 7M 7M 7M 7M 7M 7M 7M 7M 7M 7M 7M 7M 7M 7M 7M 7M 7M 7M 7M 7M 7M 7M 7M 7M 7M 7M 7M 7M 7M 7M 7M 7M 7M 7M 7M 7M 7M 7M 7M 7M 7M 7M 7M 7M 7M 7M 7M 7M 7M 7M 7M 7M 7M 7M 7M 7M 7M 7M 7M 7M 7M 7M 7M 7M 7M 7M 7M 7M 7M 7M 7M 7M 7M 7M 7M 7M 7M 7M 7M 7M 7M 7M 7M 7M 7M 7M 7M 7M 7M 7M 7M 7M 7M 7M 7M 7M 7M 7M 7M 7M 7M 7M 7M 7M 7M 7M 7M 7M 7M 7M 7M 7M 7M 7M 7M 7M 7M 7M 7M 7M 7M 7M 7M 7M 7M 7M 7M 7M 7M 7M 7M 7M 7M 7M 7M 7M 7M 7M 7M 7M 7M 7M 7M 7M 7M 7M 7M 7M   K9 K9 K9 K9 K9 K9 K9 K9 K9 K9 K9 K9 K9 K9 K9 K9 K9 K9 K9 K9 K9 K9 K9 K9 K9 K9 K9 K9 K9 K9 K9 K9 K9 K9 K9 K9 K9 K9 K9 K9 K9 K9 K9 K9 K9 K9 K9 K9 K9 K9 K9 K9 K9 K9 K9 K9 K9 K9 K9 K9 K9 K9 K9 K9 K9 K9 K9 K9 K9 K9 K9 K9 K9 K9 K9 K9 K9 K9 K9 K9 K9 K9 K9 K9 K9 K9 K9 K9 K9 K9 K9 K9 K9 K9 K9 K9 K9 K9 K9 K9 K9 K9 K9 K9 K9 K9 K9 K9 K9 K9 K9 K9 K9 K9 K9 K9 K9 K9 K9 K9 K9 K9 K9 K9 K9 K9 K9 K9 K9 K9 K9 K9 K9 K9 K9 K9 K9 K9 K9 K9 K9 K9 K9 K9 K9 K9 K9 K9 K9 K9 K9 K9 K9 K9 K9 K9 K9 K9 K9 K9 K9 K9 K9 K9 K9 K9 K9 K9 K9 K9 K9 K9 K9 K9 K9 K9 K9 K9 K9 K9 K9 K9 K9 K9 K9 K9   J: J: J: J: J: J: J: J: J: J: J: J: J: J: J: J: J: J: J: J: J: J: J: J: J: J: J: J: J: J: J: J: J: J: J: J: J: J: J: J: J: J: J: J: J: J: J: J: J: J: J: J: J: J: J: J: J: J: J: J: J: J: J: J: J: J: J: J: J: J: J: J: J: J: J: J: J: J: J: J: J: J: J: J: J: J: J: J: J: J: J: J: J: J: J: J: J: J: J: J: J: J: J: J: J: J: J: J: J: J: J: J: J: J: J: J: J: J: J: J: J: J: J: J: J: J: J: J: J: J: J: J: J: J: J: J: J: J: J: J: J: J: J: J: J: J: J: J: J: J: J: J: J: J: J: J: J: J: J: J: J: J: J: J: J: J: J: J: J: J: J: J: J: J: J: J: J: J: J: J: J: J: J: J: J: J:   H9 H9 H9 H9 H9 H9 H9 H9 H9 H9 H9 H9 H9 H9 H9 H9 H9 H9 H9 H9 H9 H9 H9 H9 H9 H9 H9 H9 H9 H9 H9 H9 H9 H9 H9 H9 H9 H9 H9 H9 H9 H9 H9 H9 H9 H9 H9 H9 H9 H9 H9 H9 H9 H9 H9 H9 H9 H9 H9 H9 H9 H9 H9 H9 H9 H9 H9 H9 H9 H9 H9 H9 H9 H9 H9 H9 H9 H9 H9 H9 H9 H9 H9 H9 H9 H9 H9 H9 H9 H9 H9 H9 H9 H9 H9 H9 H9 H9 H9 H9 H9 H9 H9 H9 H9 H9 H9 H9 H9 H9 H9 H9 H9 H9 H9 H9 H9 H9 H9 H9 H9 H9 H9 H9 H9 H9 H9 H9 H9 H9 H9 H9 H9 H9 H9 H9 H9 H9 H9 H9 H9 H9 H9 H9 H9 H9 H9 H9 H9 H9 H9 H9 H9 H9 H9 H9 H9 H9 H9 H9 H9 H9 H9 H9 H9 H9 H9 H9 H9 H9 H9 H9 H9 H9 H9 H9 H9 H9 H9 H9 H9 H9 H9 H9 H9 H9   F: F: F: F: F: F: F: F: F: F: F: F: F: F: F: F: F: F: F: F: F: F: F: F: F: F: F: F: F: F: F: F: F: F: F: F: F: F: F: F: F: F: F: F: F: F: F: F: F: F: F: F: F: F: F: F: F: F: F: F: F: F: F: F: F: F: F: F: F: F: F: F: F: F: F: F: F: F: F: F: F: F: F: F: F: F: F: F: F: F: F: F: F: F: F: F: F: F: F: F: F: F: F: F: F: F: F: F: F: F: F: F: F: F: F: F: F: F: F: F: F: F: F: F: F: F: F: F: F: F: F: F: F: F: F: F: F: F: F: F: F: F: F: F: F: F: F: F: F: F: F: F: F: F: F: F: F: F: F: F: F: F: F: F: F: F: F: F: F: F: F: F: F: F: F: F: F: F: F: F: F: F: F: F: F: F:   E< E< E< E< E< E< E< E< E< E< E< E< E< E< E< E< E< E< E< E< E< E< E< E< E< E< E< E< E< E< E< E< E< E< E< E< E< E< E< E< E< E< E< E< E< E< E< E< E< E< E< E< E< E< E< E< E< E< E< E< E< E< E< E< E< E< E< E< E< E< E< E< E< E< E< E< E< E< E< E< E< E< E< E< E< E< E< E< E< E< E< E< E< E< E< E< E< E< E< E< E< E< E< E< E< E< E< E< E< E< E< E< E< E< E< E< E< E< E< E< E< E< E< E< E< E< E< E< E< E< E< E< E< E< E< E< E< E< E< E< E< E< E< E< E< E< E< E< E< E< E< E< E< E< E< E< E< E< E< E< E< E< E< E< E< E< E< E< E< E< E< E< E< E< E< E< E< E< E< E< E< E< E< E< E< E<   F> F> F> F> F> F> F> F> F> F> F> F> F> F> F> F> F> F> F> F> F> F> F> F> F> F> F> F> F> F> F> F> F> F> F> F> F> F> F> F> F> F> F> F> F> F> F> F> F> F> F> F> F> F> F> F> F> F> F> F> F> F> F> F> F> F> F> F> F> F> F> F> F> F> F> F> F> F> F> F> F> F> F> F> F> F> F> F> F> F> F> F> F> F> F> F> F> F> F> F> F> F> F> F> F> F> F> F> F> F> F> F> F> F> F> F> F> F> F> F> F> F> F> F> F> F> F> F> F> F> F> F> F> F> F> F> F> F> F> F> F> F> F> F> F> F> F> F> F> F> F> F> F> F> F> F> F> F> F> F> F> F> F> F> F> F> F> F> F> F> F> F> F> F> F> F> F> F> F> F> F> F> F> F> F> F> > > H> H> H> H> H> H> H> H> H> H> H> H> H> H> H> H> H> H> H> H> H> H> H> H> H> H> H> H> H> H> H> H> H> H> H> H> H> H> H> H> H> H> H> H> H> H> H> H> H> H> H> H> H> H> H> H> H> H> H> H> H> H> H> H> H> H> H> H> H> H> H> H> H> H> H> H> H> H> H> H> H> H> H> H> H> H> H> H> H> H> H> H> H> H> H> H> H> H> H> H> H> H> H> H> H> H> H> H> H> H> H> H> H> H> H> H> H> H> H> H> H> H> H> H> H> H> H> H> H> H> H> H> H> H> H> H> H> H> H> H> H> H> H> H> H> H> H> H> H> H> H> H> H> H> H> H> H> H> H> H> H> H> H> H> H> H> H> H> H> H> H> H> H> H> H> H> H> H> H> H> H> H> H> H> H> H>   A: A: A: A: A: A: A: A: A: A: A: A: A: A: A: A: A: A: A: A: A: A: A: A: A: A: A: A: A: A: A: A: A: A: A: A: A: A: A: A: A: A: A: A: A: A: A: A: A: A: A: A: A: A: A: A: A: A: A: A: A: A: A: A: A: A: A: A: A: A: A: A: A: A: A: A: A: A: A: A: A: A: A: A: A: A: A: A: A: A: A: A: A: A: A: A: A: A: A: A: A: A: A: A: A: A: A: A: A: A: A: A: A: A: A: A: A: A: A: A: A: A: A: A: A: A: A: A: A: A: A: A: A: A: A: A: A: A: A: A: A: A: A: A: A: A: A: A: A: A: A: A: A: A: A: A: A: A: A: A: A: A: A: A: A: A: A: A: A: A: A: A: A: A: A: A: A: A: A: A: A: A: A: A: A: A: : : D: D: D: D: D: D: D: D: D: D: D: D: D: D: D: D: D: D: D: D: D: D: D: D: D: D: D: D: D: D: D: D: D: D: D: D: D: D: D: D: D: D: D: D: D: D: D: D: D: D: D: D: D: D: D: D: D: D: D: D: D: D: D: D: D: D: D: D: D: D: D: D: D: D: D: D: D: D: D: D: D: D: D: D: D: D: D: D: D: D: D: D: D: D: D: D: D: D: D: D: D: D: D: D: D: D: D: D: D: D: D: D: D: D: D: D: D: D: D: D: D: D: D: D: D: D: D: D: D: D: D: D: D: D: D: D: D: D: D: D: D: D: D: D: D: D: D: D: D: D: D: D: D: D: D: D: D: D: D: D: D: D: D: D: D: D: D: D: D: D: D: D: D: D: D: D: D: D: D: D: D: D: D: D: D: D:  ?C ?C ?C ?C ?C ?C ?C ?C ?C ?C ?C ?C ?C ?C ?C ?C ?C ?C ?C ?C ?C ?C ?C ?C ?C ?C ?C ?C ?C ?C ?C ?C ?C ?C ?C ?C ?C ?C ?C ?C ?C ?C ?C ?C ?C ?C ?C ?C ?C ?C ?C ?C ?C ?C ?C ?C ?C ?C ?C ?C ?C ?C ?C ?C ?C ?C ?C ?C ?C ?C ?C ?C ?C ?C ?C ?C ?C ?C ?C ?C ?C ?C ?C ?C ?C ?C ?C ?C ?C ?C ?C ?C ?C ?C ?C ?C ?C ?C ?C ?C ?C ?C ?C ?C ?C ?C ?C ?C ?C ?C ?C ?C ?C ?C ?C ?C ?C ?C ?C ?C ?C ?C ?C ?C ?C ?C ?C ?C ?C ?C ?C ?C ?C ?C ?C ?C ?C ?C ?C ?C ?C ?C ?C ?C ?C ?C ?C ?C ?C ?C ?C ?C ?C ?C ?C ?C ?C ?C ?C ?C ?C ?C ?C ?C ?C ?C ?C ?C ?C ?C ?C ?C ?C ?C ?C ?C ?C ?C ?C ?C ?C ?C ?C ?C ?C ?C C C AC AC AC AC AC AC AC AC AC AC AC AC AC AC AC AC AC AC AC AC AC AC AC AC AC AC AC AC AC AC AC AC AC AC AC AC AC AC AC AC AC AC AC AC AC AC AC AC AC AC AC AC AC AC AC AC AC AC AC AC AC AC AC AC AC AC AC AC AC AC AC AC AC AC AC AC AC AC AC AC AC AC AC AC AC AC AC AC AC AC AC AC AC AC AC AC AC AC AC AC AC AC AC AC AC AC AC AC AC AC AC AC AC AC AC AC AC AC AC AC AC AC AC AC AC AC AC AC AC AC AC AC AC AC AC AC AC AC AC AC AC AC AC AC AC AC AC AC AC AC AC AC AC AC AC AC AC AC AC AC AC AC AC AC AC AC AC AC AC AC AC AC AC AC AC AC AC AC AC AC AC AC AC AC AC AC   ?O ?O ?O ?O ?O ?O ?O ?O ?O ?O ?O ?O ?O ?O ?O ?O ?O ?O ?O ?O ?O ?O ?O ?O ?O ?O ?O ?O ?O ?O ?O ?O ?O ?O ?O ?O ?O ?O ?O ?O ?O ?O ?O ?O ?O ?O ?O ?O ?O ?O ?O ?O ?O ?O ?O ?O ?O ?O ?O ?O ?O ?O ?O ?O ?O ?O ?O ?O ?O ?O ?O ?O ?O ?O ?O ?O ?O ?O ?O ?O ?O ?O ?O ?O ?O ?O ?O ?O ?O ?O ?O ?O ?O ?O ?O ?O ?O ?O ?O ?O ?O ?O ?O ?O ?O ?O ?O ?O ?O ?O ?O ?O ?O ?O ?O ?O ?O ?O ?O ?O ?O ?O ?O ?O ?O ?O ?O ?O ?O ?O ?O ?O ?O ?O ?O ?O ?O ?O ?O ?O ?O ?O ?O ?O ?O ?O ?O ?O ?O ?O ?O ?O ?O ?O ?O ?O ?O ?O ?O ?O ?O ?O ?O ?O ?O ?O ?O ?O ?O ?O ?O ?O ?O ?O ?O ?O ?O ?O ?O ?O ?O ?O ?O ?O ?O ?O O O >O >O >O >O >O >O >O >O >O >O >O >O >O >O >O >O >O >O >O >O >O >O >O >O >O >O >O >O >O >O >O >O >O >O >O >O >O >O >O >O >O >O >O >O >O >O >O >O >O >O >O >O >O >O >O >O >O >O >O >O >O >O >O >O >O >O >O >O >O >O >O >O >O >O >O >O >O >O >O >O >O >O >O >O >O >O >O >O >O >O >O >O >O >O >O >O >O >O >O >O >O >O >O >O >O >O >O >O >O >O >O >O >O >O >O >O >O >O >O >O >O >O >O >O >O >O >O >O >O >O >O >O >O >O >O >O >O >O >O >O >O >O >O >O >O >O >O >O >O >O >O >O >O >O >O >O >O >O >O >O >O >O >O >O >O >O >O >O >O >O >O >O >O >O >O >O >O >O >O >O >O >O >O >O >O >O O O O< O< O< O< O< O< O< O< O< O< O< O< O< O< O< O< O< O< O< O< O< O< O< O< O< O< O< O< O< O< O< O< O< O< O< O< O< O< O< O< O< O< O< O< O< O< O< O< O< O< O< O< O< O< O< O< O< O< O< O< O< O< O< O< O< O< O< O< O< O< O< O< O< O< O< O< O< O< O< O< O< O< O< O< O< O< O< O< O< O< O< O< O< O< O< O< O< O< O< O< O< O< O< O< O< O< O< O< O< O< O< O< O< O< O< O< O< O< O< O< O< O< O< O< O< O< O< O< O< O< O< O< O< O< O< O< O< O< O< O< O< O< O< O< O< O< O< O< O< O< O< O< O< O< O< O< O< O< O< O< O< O< O< O< O< O< O< O< O< O< O< O< O< O< O< O< O< O< O< O< O< O< O< O< O< O< < < M< M< M< M< M< M< M< M< M< M< M< M< M< M< M< M< M< M< M< M< M< M< M< M< M< M< M< M< M< M< M< M< M< M< M< M< M< M< M< M< M< M< M< M< M< M< M< M< M< M< M< M< M< M< M< M< M< M< M< M< M< M< M< M< M< M< M< M< M< M< M< M< M< M< M< M< M< M< M< M< M< M< M< M< M< M< M< M< M< M< M< M< M< M< M< M< M< M< M< M< M< M< M< M< M< M< M< M< M< M< M< M< M< M< M< M< M< M< M< M< M< M< M< M< M< M< M< M< M< M< M< M< M< M< M< M< M< M< M< M< M< M< M< M< M< M< M< M< M< M< M< M< M< M< M< M< M< M< M< M< M< M< M< M< M< M< M< M< M< M< M< M< M< M< M< M< M< M< M< M< M< M< M< M< M< M<   K> K> K> K> K> K> K> K> K> K> K> K> K> K> K> K> K> K> K> K> K> K> K> K> K> K> K> K> K> K> K> K> K> K> K> K> K> K> K> K> K> K> K> K> K> K> K> K> K> K> K> K> K> K> K> K> K> K> K> K> K> K> K> K> K> K> K> K> K> K> K> K> K> K> K> K> K> K> K> K> K> K> K> K> K> K> K> K> K> K> K> K> K> K> K> K> K> K> K> K> K> K> K> K> K> K> K> K> K> K> K> K> K> K> K> K> K> K> K> K> K> K> K> K> K> K> K> K> K> K> K> K> K> K> K> K> K> K> K> K> K> K> K> K> K> K> K> K> K> K> K> K> K> K> K> K> K> K> K> K> K> K> K> K> K> K> K> K> K> K> K> K> K> K> K> K> K> K> K> K> K> K> K> K> K> K> > > J> J> J> J> J> J> J> J> J> J> J> J> J> J> J> J> J> J> J> J> J> J> J> J> J> J> J> J> J> J> J> J> J> J> J> J> J> J> J> J> J> J> J> J> J> J> J> J> J> J> J> J> J> J> J> J> J> J> J> J> J> J> J> J> J> J> J> J> J> J> J> J> J> J> J> J> J> J> J> J> J> J> J> J> J> J> J> J> J> J> J> J> J> J> J> J> J> J> J> J> J> J> J> J> J> J> J> J> J> J> J> J> J> J> J> J> J> J> J> J> J> J> J> J> J> J> J> J> J> J> J> J> J> J> J> J> J> J> J> J> J> J> J> J> J> J> J> J> J> J> J> J> J> J> J> J> J> J> J> J> J> J> J> J> J> J> J> J> J> J> J> J> J> J> J> J> J> J> J> J> J> J> J> J> J> J>   H? H? H? H? H? H? H? H? H? H? H? H? H? H? H? H? H? H? H? H? H? H? H? H? H? H? H? H? H? H? H? H? H? H? H? H? H? H? H? H? H? H? H? H? H? H? H? H? H? H? H? H? H? H? H? H? H? H? H? H? H? H? H? H? H? H? H? H? H? H? H? H? H? H? H? H? H? H? H? H? H? H? H? H? H? H? H? H? H? H? H? H? H? H? H? H? H? H? H? H? H? H? H? H? H? H? H? H? H? H? H? H? H? H? H? H? H? H? H? H? H? H? H? H? H? H? H? H? H? H? H? H? H? H? H? H? H? H? H? H? H? H? H? H? H? H? H? H? H? H? H? H? H? H? H? H? H? H? H? H? H? H? H? H? H? H? H? H? H? H? H? H? H? H? H? H? H? H? H? H? H? H? H? H? H? H? ? ? J? J? J? J? J? J? J? J? J? J? J? J? J? J? J? J? J? J? J? J? J? J? J? J? J? J? J? J? J? J? J? J? J? J? J? J? J? J? J? J? J? J? J? J? J? J? J? J? J? J? J? J? J? J? J? J? J? J? J? J? J? J? J? J? J? J? J? J? J? J? J? J? J? J? J? J? J? J? J? J? J? J? J? J? J? J? J? J? J? J? J? J? J? J? J? J? J? J? J? J? J? J? J? J? J? J? J? J? J? J? J? J? J? J? J? J? J? J? J? J? J? J? J? J? J? J? J? J? J? J? J? J? J? J? J? J? J? J? J? J? J? J? J? J? J? J? J? J? J? J? J? J? J? J? J? J? J? J? J? J? J? J? J? J? J? J? J? J? J? J? J? J? J? J? J? J? J? J? J? J? J? J? J? J? J? J?   K< K< K< K< K< K< K< K< K< K< K< K< K< K< K< K< K< K< K< K< K< K< K< K< K< K< K< K< K< K< K< K< K< K< K< K< K< K< K< K< K< K< K< K< K< K< K< K< K< K< K< K< K< K< K< K< K< K< K< K< K< K< K< K< K< K< K< K< K< K< K< K< K< K< K< K< K< K< K< K< K< K< K< K< K< K< K< K< K< K< K< K< K< K< K< K< K< K< K< K< K< K< K< K< K< K< K< K< K< K< K< K< K< K< K< K< K< K< K< K< K< K< K< K< K< K< K< K< K< K< K< K< K< K< K< K< K< K< K< K< K< K< K< K< K< K< K< K< K< K< K< K< K< K< K< K< K< K< K< K< K< K< K< K< K< K< K< K< K< K< K< K< K< K< K< K< K< K< K< K< K< K< K< K< K< K< < < F< F< F< F< F< F< F< F< F< F< F< F< F< F< F< F< F< F< F< F< F< F< F< F< F< F< F< F< F< F< F< F< F< F< F< F< F< F< F< F< F< F< F< F< F< F< F< F< F< F< F< F< F< F< F< F< F< F< F< F< F< F< F< F< F< F< F< F< F< F< F< F< F< F< F< F< F< F< F< F< F< F< F< F< F< F< F< F< F< F< F< F< F< F< F< F< F< F< F< F< F< F< F< F< F< F< F< F< F< F< F< F< F< F< F< F< F< F< F< F< F< F< F< F< F< F< F< F< F< F< F< F< F< F< F< F< F< F< F< F< F< F< F< F< F< F< F< F< F< F< F< F< F< F< F< F< F< F< F< F< F< F< F< F< F< F< F< F< F< F< F< F< F< F< F< F< F< F< F< F< F< F< F< F< F< F<  EA EA EA EA EA EA EA EA EA EA EA EA EA EA EA EA EA EA EA EA EA EA EA EA EA EA EA EA EA EA EA EA EA EA EA EA EA EA EA EA EA EA EA EA EA EA EA EA EA EA EA EA EA EA EA EA EA EA EA EA EA EA EA EA EA EA EA EA EA EA EA EA EA EA EA EA EA EA EA EA EA EA EA EA EA EA EA EA EA EA EA EA EA EA EA EA EA EA EA EA EA EA EA EA EA EA EA EA EA EA EA EA EA EA EA EA EA EA EA EA EA EA EA EA EA EA EA EA EA EA EA EA EA EA EA EA EA EA EA EA EA EA EA EA EA EA EA EA EA EA EA EA EA EA EA EA EA EA EA EA EA EA EA EA EA EA EA EA EA EA EA EA EA EA EA EA EA EA EA EA EA EA EA EA EA EA A A HA HA HA HA HA HA HA HA HA HA HA HA HA HA HA HA HA HA HA HA HA HA HA HA HA HA HA HA HA HA HA HA HA HA HA HA HA HA HA HA HA HA HA HA HA HA HA HA HA HA HA HA HA HA HA HA HA HA HA HA HA HA HA HA HA HA HA HA HA HA HA HA HA HA HA HA HA HA HA HA HA HA HA HA HA HA HA HA HA HA HA HA HA HA HA HA HA HA HA HA HA HA HA HA HA HA HA HA HA HA HA HA HA HA HA HA HA HA HA HA HA HA HA HA HA HA HA HA HA HA HA HA HA HA HA HA HA HA HA HA HA HA HA HA HA HA HA HA HA HA HA HA HA HA HA HA HA HA HA HA HA HA HA HA HA HA HA HA HA HA HA HA HA HA HA HA HA HA HA HA HA HA HA HA HA HA   J? J? J? J? J? J? J? J? J? J? J? J? J? J? J? J? J? J? J? J? J? J? J? J? J? J? J? J? J? J? J? J? J? J? J? J? J? J? J? J? J? J? J? J? J? J? J? J? J? J? J? J? J? J? J? J? J? J? J? J? J? J? J? J? J? J? J? J? J? J? J? J? J? J? J? J? J? J? J? J? J? J? J? J? J? J? J? J? J? J? J? J? J? J? J? J? J? J? J? J? J? J? J? J? J? J? J? J? J? J? J? J? J? J? J? J? J? J? J? J? J? J? J? J? J? J? J? J? J? J? J? J? J? J? J? J? J? J? J? J? J? J? J? J? J? J? J? J? J? J? J? J? J? J? J? J? J? J? J? J? J? J? J? J? J? J? J? J? J? J? J? J? J? J? J? J? J? J? J? J? J? J? J? J? J? J? ? ? K? K? K? K? K? K? K? K? K? K? K? K? K? K? K? K? K? K? K? K? K? K? K? K? K? K? K? K? K? K? K? K? K? K? K? K? K? K? K? K? K? K? K? K? K? K? K? K? K? K? K? K? K? K? K? K? K? K? K? K? K? K? K? K? K? K? K? K? K? K? K? K? K? K? K? K? K? K? K? K? K? K? K? K? K? K? K? K? K? K? K? K? K? K? K? K? K? K? K? K? K? K? K? K? K? K? K? K? K? K? K? K? K? K? K? K? K? K? K? K? K? K? K? K? K? K? K? K? K? K? K? K? K? K? K? K? K? K? K? K? K? K? K? K? K? K? K? K? K? K? K? K? K? K? K? K? K? K? K? K? K? K? K? K? K? K? K? K? K? K? K? K? K? K? K? K? K? K? K? K? K? K? K? K? K? K?   M> M> M> M> M> M> M> M> M> M> M> M> M> M> M> M> M> M> M> M> M> M> M> M> M> M> M> M> M> M> M> M> M> M> M> M> M> M> M> M> M> M> M> M> M> M> M> M> M> M> M> M> M> M> M> M> M> M> M> M> M> M> M> M> M> M> M> M> M> M> M> M> M> M> M> M> M> M> M> M> M> M> M> M> M> M> M> M> M> M> M> M> M> M> M> M> M> M> M> M> M> M> M> M> M> M> M> M> M> M> M> M> M> M> M> M> M> M> M> M> M> M> M> M> M> M> M> M> M> M> M> M> M> M> M> M> M> M> M> M> M> M> M> M> M> M> M> M> M> M> M> M> M> M> M> M> M> M> M> M> M> M> M> M> M> M> M> M> M> M> M> M> M> M> M> M> M> M> M> M> M> M> M> M> M> M> > > K> K> K> K> K> K> K> K> K> K> K> K> K> K> K> K> K> K> K> K> K> K> K> K> K> K> K> K> K> K> K> K> K> K> K> K> K> K> K> K> K> K> K> K> K> K> K> K> K> K> K> K> K> K> K> K> K> K> K> K> K> K> K> K> K> K> K> K> K> K> K> K> K> K> K> K> K> K> K> K> K> K> K> K> K> K> K> K> K> K> K> K> K> K> K> K> K> K> K> K> K> K> K> K> K> K> K> K> K> K> K> K> K> K> K> K> K> K> K> K> K> K> K> K> K> K> K> K> K> K> K> K> K> K> K> K> K> K> K> K> K> K> K> K> K> K> K> K> K> K> K> K> K> K> K> K> K> K> K> K> K> K> K> K> K> K> K> K> K> K> K> K> K> K> K> K> K> K> K> K> K> K> K> K> K> K>   M< M< M< M< M< M< M< M< M< M< M< M< M< M< M< M< M< M< M< M< M< M< M< M< M< M< M< M< M< M< M< M< M< M< M< M< M< M< M< M< M< M< M< M< M< M< M< M< M< M< M< M< M< M< M< M< M< M< M< M< M< M< M< M< M< M< M< M< M< M< M< M< M< M< M< M< M< M< M< M< M< M< M< M< M< M< M< M< M< M< M< M< M< M< M< M< M< M< M< M< M< M< M< M< M< M< M< M< M< M< M< M< M< M< M< M< M< M< M< M< M< M< M< M< M< M< M< M< M< M< M< M< M< M< M< M< M< M< M< M< M< M< M< M< M< M< M< M< M< M< M< M< M< M< M< M< M< M< M< M< M< M< M< M< M< M< M< M< M< M< M< M< M< M< M< M< M< M< M< M< M< M< M< M< M< M<   O: O: O: O: O: O: O: O: O: O: O: O: O: O: O: O: O: O: O: O: O: O: O: O: O: O: O: O: O: O: O: O: O: O: O: O: O: O: O: O: O: O: O: O: O: O: O: O: O: O: O: O: O: O: O: O: O: O: O: O: O: O: O: O: O: O: O: O: O: O: O: O: O: O: O: O: O: O: O: O: O: O: O: O: O: O: O: O: O: O: O: O: O: O: O: O: O: O: O: O: O: O: O: O: O: O: O: O: O: O: O: O: O: O: O: O: O: O: O: O: O: O: O: O: O: O: O: O: O: O: O: O: O: O: O: O: O: O: O: O: O: O: O: O: O: O: O: O: O: O: O: O: O: O: O: O: O: O: O: O: O: O: O: O: O: O: O: O: O: O: O: O: O: O: O: O: O: O: O: O: O: O: O: O: O: O:   MA MA MA MA MA MA MA MA MA MA MA MA MA MA MA MA MA MA MA MA MA MA MA MA MA MA MA MA MA MA MA MA MA MA MA MA MA MA MA MA MA MA MA MA MA MA MA MA MA MA MA MA MA MA MA MA MA MA MA MA MA MA MA MA MA MA MA MA MA MA MA MA MA MA MA MA MA MA MA MA MA MA MA MA MA MA MA MA MA MA MA MA MA MA MA MA MA MA MA MA MA MA MA MA MA MA MA MA MA MA MA MA MA MA MA MA MA MA MA MA MA MA MA MA MA MA MA MA MA MA MA MA MA MA MA MA MA MA MA MA MA MA MA MA MA MA MA MA MA MA MA MA MA MA MA MA MA MA MA MA MA MA MA MA MA MA MA MA MA MA MA MA MA MA MA MA MA MA MA MA MA MA MA MA MA MA A A KA KA KA KA KA KA KA KA KA KA KA KA KA KA KA KA KA KA KA KA KA KA KA KA KA KA KA KA KA KA KA KA KA KA KA KA KA KA KA KA KA KA KA KA KA KA KA KA KA KA KA KA KA KA KA KA KA KA KA KA KA KA KA KA KA KA KA KA KA KA KA KA KA KA KA KA KA KA KA KA KA KA KA KA KA KA KA KA KA KA KA KA KA KA KA KA KA KA KA KA KA KA KA KA KA KA KA KA KA KA KA KA KA KA KA KA KA KA KA KA KA KA KA KA KA KA KA KA KA KA KA KA KA KA KA KA KA KA KA KA KA KA KA KA KA KA KA KA KA KA KA KA KA KA KA KA KA KA KA KA KA KA KA KA KA KA KA KA KA KA KA KA KA KA KA KA KA KA KA KA KA KA KA KA KA KA   J5 J5 J5 J5 J5 J5 J5 J5 J5 J5 J5 J5 J5 J5 J5 J5 J5 J5 J5 J5 J5 J5 J5 J5 J5 J5 J5 J5 J5 J5 J5 J5 J5 J5 J5 J5 J5 J5 J5 J5 J5 J5 J5 J5 J5 J5 J5 J5 J5 J5 J5 J5 J5 J5 J5 J5 J5 J5 J5 J5 J5 J5 J5 J5 J5 J5 J5 J5 J5 J5 J5 J5 J5 J5 J5 J5 J5 J5 J5 J5 J5 J5 J5 J5 J5 J5 J5 J5 J5 J5 J5 J5 J5 J5 J5 J5 J5 J5 J5 J5 J5 J5 J5 J5 J5 J5 J5 J5 J5 J5 J5 J5 J5 J5 J5 J5 J5 J5 J5 J5 J5 J5 J5 J5 J5 J5 J5 J5 J5 J5 J5 J5 J5 J5 J5 J5 J5 J5 J5 J5 J5 J5 J5 J5 J5 J5 J5 J5 J5 J5 J5 J5 J5 J5 J5 J5 J5 J5 J5 J5 J5 J5 J5 J5 J5 J5 J5 J5 J5 J5 J5 J5 J5 J5 J5 J5 J5 J5 J5 J5 J5 J5 J5 J5 J5 J5 5 5 H5 H5 H5 H5 H5 H5 H5 H5 H5 H5 H5 H5 H5 H5 H5 H5 H5 H5 H5 H5 H5 H5 H5 H5 H5 H5 H5 H5 H5 H5 H5 H5 H5 H5 H5 H5 H5 H5 H5 H5 H5 H5 H5 H5 H5 H5 H5 H5 H5 H5 H5 H5 H5 H5 H5 H5 H5 H5 H5 H5 H5 H5 H5 H5 H5 H5 H5 H5 H5 H5 H5 H5 H5 H5 H5 H5 H5 H5 H5 H5 H5 H5 H5 H5 H5 H5 H5 H5 H5 H5 H5 H5 H5 H5 H5 H5 H5 H5 H5 H5 H5 H5 H5 H5 H5 H5 H5 H5 H5 H5 H5 H5 H5 H5 H5 H5 H5 H5 H5 H5 H5 H5 H5 H5 H5 H5 H5 H5 H5 H5 H5 H5 H5 H5 H5 H5 H5 H5 H5 H5 H5 H5 H5 H5 H5 H5 H5 H5 H5 H5 H5 H5 H5 H5 H5 H5 H5 H5 H5 H5 H5 H5 H5 H5 H5 H5 H5 H5 H5 H5 H5 H5 H5 H5 H5 H5 H5 H5 H5 H5 H5 H5 H5 H5 H5 H5   H: H: H: H: H: H: H: H: H: H: H: H: H: H: H: H: H: H: H: H: H: H: H: H: H: H: H: H: H: H: H: H: H: H: H: H: H: H: H: H: H: H: H: H: H: H: H: H: H: H: H: H: H: H: H: H: H: H: H: H: H: H: H: H: H: H: H: H: H: H: H: H: H: H: H: H: H: H: H: H: H: H: H: H: H: H: H: H: H: H: H: H: H: H: H: H: H: H: H: H: H: H: H: H: H: H: H: H: H: H: H: H: H: H: H: H: H: H: H: H: H: H: H: H: H: H: H: H: H: H: H: H: H: H: H: H: H: H: H: H: H: H: H: H: H: H: H: H: H: H: H: H: H: H: H: H: H: H: H: H: H: H: H: H: H: H: H: H: H: H: H: H: H: H: H: H: H: H: H: H: H: H: H: H: H: H: : J: J: J: J: J: J: J: J: J: J: J: J: J: J: J: J: J: J: J: J: J: J: J: J: J: J: J: J: J: J: J: J: J: J: J: J: J: J: J: J: J: J: J: J: J: J: J: J: J: J: J: J: J: J: J: J: J: J: J: J: J: J: J: J: J: J: J: J: J: J: J: J: J: J: J: J: J: J: J: J: J: J: J: J: J: J: J: J: J: J: J: J: J: J: J: J: J: J: J: J: J: J: J: J: J: J: J: J: J: J: J: J: J: J: J: J: J: J: J: J: J: J: J: J: J: J: J: J: J: J: J: J: J: J: J: J: J: J: J: J: J: J: J: J: J: J: J: J: J: J: J: J: J: J: J: J: J: J: J: J: J: J: J: J: J: J: J: J: J: J: J: J: J: J: J: J: J: J: J: J: J: J: J: J: J: J: :  H. H. H. H. H. H. H. H. H. H. H. H. H. H. H. H. H. H. H. H. H. H. H. H. H. H. H. H. H. H. H. H. H. H. H. H. H. H. H. H. H. H. H. H. H. H. H. H. H. H. H. H. H. H. H. H. H. H. H. H. H. H. H. H. H. H. H. H. H. H. H. H. H. H. H. H. H. H. H. H. H. H. H. H. H. H. H. H. H. H. H. H. H. H. H. H. H. H. H. H. H. H. H. H. H. H. H. H. H. H. H. H. H. H. H. H. H. H. H. H. H. H. H. H. H. H. H. H. H. H. H. H. H. H. H. H. H. H. H. H. H. H. H. H. H. H. H. H. H. H. H. H. H. H. H. H. H. H. H. H. H. H. H. H. H. H. H. H. H. H. H. H. H. H. H. H. H. H. H. H. H. H. H. H. H. H.   F- F- F- F- F- F- F- F- F- F- F- F- F- F- F- F- F- F- F- F- F- F- F- F- F- F- F- F- F- F- F- F- F- F- F- F- F- F- F- F- F- F- F- F- F- F- F- F- F- F- F- F- F- F- F- F- F- F- F- F- F- F- F- F- F- F- F- F- F- F- F- F- F- F- F- F- F- F- F- F- F- F- F- F- F- F- F- F- F- F- F- F- F- F- F- F- F- F- F- F- F- F- F- F- F- F- F- F- F- F- F- F- F- F- F- F- F- F- F- F- F- F- F- F- F- F- F- F- F- F- F- F- F- F- F- F- F- F- F- F- F- F- F- F- F- F- F- F- F- F- F- F- F- F- F- F- F- F- F- F- F- F- F- F- F- F- F- F- F- F- F- F- F- F- F- F- F- F- F- F- F- F- F- F- F- F-   +J +J +J +J +J +J +J +J +J +J +J +J +J +J +J +J +J +J +J +J +J +J +J +J +J +J +J +J +J +J +J +J +J +J +J +J +J +J +J +J +J +J +J +J +J +J +J +J +J +J +J +J +J +J +J +J +J +J +J +J +J +J +J +J +J +J +J +J +J +J +J +J +J +J +J +J +J +J +J +J +J +J +J +J +J +J +J +J +J +J +J +J +J +J +JO +JO +JO +JO +JO +JO +JO +JO +JO +JO +JO +JO +JO +JO +JO +JO +JO +JO +JO +JO +JO +JO +JO +JO +JO +JO +JO +JO +JO +JO +JO +JO +JO +JO +JO +JO +JO +JO +JO +JO +JO +JO +JO +JO +JO +JO +JO +JO +JO +JO +JO +JO +JO +JO +JO +JO +JO +JO +JO +JO +JO +JO +JO +JO +JO +JO +JO +JO +JO +JO +JO +JO +JO +JO +JO +JO +JO +JO +JO +JO +JO +JO +JO +JO +JO +JO +JO +JO +JO +JO +JO +JO JO JO *RJO *RJO *RJO *RJO *RJO *RJO *RJO *RJO *RJO *RJO *RJO *RJO *RJO *RJO *RJO *RJO *RJO *RJO *RJO *RJO *RJO *RJO *RJO *RJO *RJO *RJO *RJO *RJO *RJO *RJO *RJO *RJO *RJO *RJO *RJO *RJO *RJO *RJO *RJO *RJO *RJO *RJO *RJO *RJO *RJO *RJO *RJO *RJO *RJO *RJO *RJO *RJO *RJO *RJO *RJO *RJO *RJO *RJO *RJO *RJO *RJO *RJO *RJO *RJO *RJO *RJO *RJO *RJO *RJO *RJO *RJO *RJO *RJO *RJO *RJO *RJO *RJO *RJO *RJO *RJO *RJO *RJO *RJO *RJO *RJO *RJO *RJO *RJO *RJO *RJO *RJO *RJO *RJO *RJO *RJO *RJO *RJO *RJO *RJO *RJO *RJO *RJO *RJO *RJO *RJO *RJO *RJO *RJO *RJO *RJO *RJO *RJO *RJO *RJO *RJO *RJO *RJO *RJO *RJO *RJO *RJO *RJO *RJO *RJO *RJO *RJO *RJO *RJO *RJO *RJO *RJO *RJO *RJO *RJO *RJO *RJO *RJO *RJO *RJO *RJO *RJO *RJO *RJO *RJO *RJO *RJO *RJO *RJO *RJO *RJO *RJO *RJO *RJO *RJO *RJO *RJO *RJO *RJO *RJO *RJO *RJO *RJO *RJO *RJO *RJO *RJO *RJO *RJO *RJO *RJO *RJO *RJO *RJO *RJO *RJO *RJO *RJO *RJO *RJO *RJO *RJO *RJO *RJO *RJO *RJO *RJO RJO RJO +RJO +RJO +RJO +RJO +RJO +RJO +RJO +RJO +RJO +RJO +RJO +RJO +RJO +RJO +RJO +RJO +RJO +RJO +RJO +RJO +RJO +RJO +RJO +RJO +RJO +RJO +RJO +RJO +RJO +RJO +RJO +RJO +RJO +RJO +RJO +RJO +RJO +RJO +RJO +RJO +RJO +RJO +RJO +RJO +RJO +RJO +RJO +RJO +RJO +RJO +RJO +RJO +RJO +RJO +RJO +RJO +RJO +RJO +RJO +RJO +RJO +RJO +RJO +RJO +RJO +RJO +RJO +RJO +RJO +RJO +RJO +RJO +RJO +RJO +RJO +RJO +RJO +RJO +RJO +RJO +RJO +RJO +RJO +RJO +RJO +RJO +RJO +RJO +RJO +RJO +RJO +RJO +RJO +RJO +RJO +RJO +RJO +RJO +RJO +RJO +RJO +RJO +RJO +RJO +RJO +RJO +RJO +RJO +RJO +RJO +RJO +RJO +RJO +RJO +RJO +RJO +RJO +RJO +RJO +RJO +RJO +RJO +RJO +RJO +RJO +RJO +RJO +RJO +RJO +RJO +RJO +RJO +RJO +RJO +RJO +RJO +RJO +RJO +RJO +RJO +RJO +RJO +RJO +RJO +RJO +RJO +RJO +RJO +RJO +RJO +RJO +RJO +RJO +RJO +RJO +RJO +RJO +RJO +RJO +RJO +RJO +RJO +RJO +RJO +RJO +RJO +RJO +RJO +RJO +RJO +RJO +RJO +RJO +RJO +RJO +RJO +RJO +RJO +RJO +RJO +RJO +RJO +RJO +RJO +RJO +RJO JO O O  Q- Q- Q- Q- Q- Q- Q- Q- Q- Q- Q- Q- Q- Q- Q- Q- Q- Q- Q- Q- Q- Q- Q- Q- Q- Q- Q- Q- Q- Q- Q- Q- Q- Q- Q- Q- Q- Q- Q- Q- Q- Q- Q- Q- Q- Q- Q- Q- Q- Q- Q- Q- Q- Q- Q- Q- Q- Q- Q- Q- Q- Q- Q- Q- Q- Q- Q- Q- Q- Q- Q- Q- Q- Q- Q- Q- Q- Q- Q- Q- Q- Q- Q- Q- Q- Q- Q- Q- Q- Q- Q- Q- Q- Q- Q- Q- Q- Q- Q- Q- Q- Q- Q- Q- Q- Q- Q- Q- Q- Q- Q- Q- Q- Q- Q- Q- Q- Q- Q- Q- Q- Q- Q- Q- Q- Q- Q- Q- Q- Q- Q- Q- Q- Q- Q- Q- Q- Q- Q- Q- Q- Q- Q- Q- Q- Q- Q- Q- Q- Q- Q- Q- Q- Q- Q- Q- Q- Q- Q- Q- Q- Q- Q- Q- Q- Q- Q- Q- Q- Q- Q- Q- Q- Q- Q- Q- Q- Q- Q- Q- Q- Q- Q- Q- Q- Q-  O. O. O. O. O. O. O. O. O. O. O. O. O. O. O. O. O. O. O. O. O. O. O. O. O. O. O. O. O. O. O. O. O. O. O. O. O. O. O. O. O. O. O. O. O. O. O. O. O. O. O. O. O. O. O. O. O. O. O. O. O. O. O. O. O. O. O. O. O. O. O. O. O. O. O. O. O. O. O. O. O. O. O. O. O. O. O. O. O. O. O. O. O. O. O. O. O. O. O. O. O. O. O. O. O. O. O. O. O. O. O. O. O. O. O. O. O. O. O. O. O. O. O. O. O. O. O. O. O. O. O. O. O. O. O. O. O. O. O. O. O. O. O. O. O. O. O. O. O. O. O. O. O. O. O. O. O. O. O. O. O. O. O. O. O. O. O. O. O. O. O. O. O. O. O. O. O. O. O. O. O. O. O. O. O. O. . . Q. Q. Q. Q. Q. Q. Q. Q. Q. Q. Q. Q. Q. Q. Q. Q. Q. Q. Q. Q. Q. Q. Q. Q. Q. Q. Q. Q. Q. Q. Q. Q. Q. Q. Q. Q. Q. Q. Q. Q. Q. Q. Q. Q. Q. Q. Q. Q. Q. Q. Q. Q. Q. Q. Q. Q. Q. Q. Q. Q. Q. Q. Q. Q. Q. Q. Q. Q. Q. Q. Q. Q. Q. Q. Q. Q. Q. Q. Q. Q. Q. Q. Q. Q. Q. Q. Q. Q. Q. Q. Q. Q. Q. Q. Q. Q. Q. Q. Q. Q. Q. Q. Q. Q. Q. Q. Q. Q. Q. Q. Q. Q. Q. Q. Q. Q. Q. Q. Q. Q. Q. Q. Q. Q. Q. Q. Q. Q. Q. Q. Q. Q. Q. Q. Q. Q. Q. Q. Q. Q. Q. Q. Q. Q. Q. Q. Q. Q. Q. Q. Q. Q. Q. Q. Q. Q. Q. Q. Q. Q. Q. Q. Q. Q. Q. Q. Q. Q. Q. Q. Q. Q. Q. Q. Q. Q. Q. Q. Q. Q. Q. Q. Q. Q. Q. Q.   R+ R+ R+ R+ R+ R+ R+ R+ R+ R+ R+ R+ R+ R+ R+ R+ R+ R+ R+ R+ R+ R+ R+ R+ R+ R+ R+ R+ R+ R+ R+ R+ R+ R+ R+ R+ R+ R+ R+ R+ R+ R+ R+ R+ R+ R+ R+ R+ R+ R+ R+ R+ R+ R+ R+ R+ R+ R+ R+ R+ R+ R+ R+ R+ R+ R+ R+ R+ R+ R+ R+ R+ R+ R+ R+ R+ R+ R+ R+ R+ R+ R+ R+ R+ R+ R+ R+ R+ R+ R+ R+ R+ R+ R+ R+ R+ R+ R+ R+ R+ R+ R+ R+ R+ R+ R+ R+ R+ R+ R+ R+ R+ R+ R+ R+ R+ R+ R+ R+ R+ R+ R+ R+ R+ R+ R+ R+ R+ R+ R+ R+ R+ R+ R+ R+ R+ R+ R+ R+ R+ R+ R+ R+ R+ R+ R+ R+ R+ R+ R+ R+ R+ R+ R+ R+ R+ R+ R+ R+ R+ R+ R+ R+ R+ R+ R+ R+ R+ R+ R+ R+ R+ R+ R+ R+ R+ R+ R+ R+ R+ R+ R+ R+ R+ R+ R+ + + M+ M+ M+ M+ M+ M+ M+ M+ M+ M+ M+ M+ M+ M+ M+ M+ M+ M+ M+ M+ M+ M+ M+ M+ M+ M+ M+ M+ M+ M+ M+ M+ M+ M+ M+ M+ M+ M+ M+ M+ M+ M+ M+ M+ M+ M+ M+ M+ M+ M+ M+ M+ M+ M+ M+ M+ M+ M+ M+ M+ M+ M+ M+ M+ M+ M+ M+ M+ M+ M+ M+ M+ M+ M+ M+ M+ M+ M+ M+ M+ M+ M+ M+ M+ M+ M+ M+ M+ M+ M+ M+ M+ M+ M+ M+ M+ M+ M+ M+ M+ M+ M+ M+ M+ M+ M+ M+ M+ M+ M+ M+ M+ M+ M+ M+ M+ M+ M+ M+ M+ M+ M+ M+ M+ M+ M+ M+ M+ M+ M+ M+ M+ M+ M+ M+ M+ M+ M+ M+ M+ M+ M+ M+ M+ M+ M+ M+ M+ M+ M+ M+ M+ M+ M+ M+ M+ M+ M+ M+ M+ M+ M+ M+ M+ M+ M+ M+ M+ M+ M+ M+ M+ M+ M+ M+ M+ M+ M+ M+ M+ M+ M+ M+ M+ M+ M+   M0 M0 M0 M0 M0 M0 M0 M0 M0 M0 M0 M0 M0 M0 M0 M0 M0 M0 M0 M0 M0 M0 M0 M0 M0 M0 M0 M0 M0 M0 M0 M0 M0 M0 M0 M0 M0 M0 M0 M0 M0 M0 M0 M0 M0 M0 M0 M0 M0 M0 M0 M0 M0 M0 M0 M0 M0 M0 M0 M0 M0 M0 M0 M0 M0 M0 M0 M0 M0 M0 M0 M0 M0 M0 M0 M0 M0 M0 M0 M0 M0 M0 M0 M0 M0 M0 M0 M0 M0 M0 M0 M0 M0 M0 M0 M0 M0 M0 M0 M0 M0 M0 M0 M0 M0 M0 M0 M0 M0 M0 M0 M0 M0 M0 M0 M0 M0 M0 M0 M0 M0 M0 M0 M0 M0 M0 M0 M0 M0 M0 M0 M0 M0 M0 M0 M0 M0 M0 M0 M0 M0 M0 M0 M0 M0 M0 M0 M0 M0 M0 M0 M0 M0 M0 M0 M0 M0 M0 M0 M0 M0 M0 M0 M0 M0 M0 M0 M0 M0 M0K 0K 0K 0K 0K 0K 0K 0K 0K 0K 0K 0K 0K 0K 0K 0K 0K K K K/ K/ K/ K/ K/ K/ K/ K/ K/ K/ K/ K/ K/ K/ K/ K/ K/ K/ K/ K/ K/ K/ K/ K/ K/ K/ K/ K/ K/ K/ K/ K/ K/ K/ K/ K/ K/ K/ K/ K/ K/ K/ K/ K/ K/ K/ K/ K/ K/ K/ K/ K/ K/ K/ K/ KM/ KM/ KM/ KM/ KM/ KM/ KM/ KM/ KM/ KM/ KM/ KM/ KM/ KM/ KM/ KM/ KM/ KM/ M/ M/ M/ M/ M/ M/ M/ M/ M/ M/ M/ M/ M/ M/ M/ M/ M/ M/ M/ M/ M/ M/ M/ M/ M/ M/ M/ M/ M/ M/ M/ M/ M/ M/ M/ M/ M/ M/ M/ M/ M/ M/ M/ M/ M/ M/ M/ M/ M/ M/ M/ M/ M/ M/ M/ M/ M/K M/K M/K M/K M/K M/K M/K M/K M/K M/K M/K M/K M/K M/K M/K M/K M/K M/K /K /K /K /K /K /K /K /K /K /K /K /K /K /K /K /K /K /K /K /K /K /K /K /K /K /K /K /K /K /K /K /K /K /K /K /K /K /K /K K K K0 K0 K0 K0 K0 K0 K0 K0 K0 K0 K0 K0 K0 K0 K0 KM0 KM0 KM0 KM0 KM0 KM0 KM0 KM0 KM0 KM0 KM0 KM0 KM0 KM0 KM0 KM0 KM0 KM0 M0 M0 M0 M0 M0 M0 M0 M0 M0 M0 M0 M0 M0 M0 M0 M0 M0 M0 M0 M0 M0 M0 M0 M0 M0 M0 M0 M0 M0 M0 M0 M0 M0 M0 M0 M0 M0 M0 M0 M0 M0 M0 M0 M0 M0 M0 M0 M0 M0 M0 M0 M0 M0 M0 M0 M0 MK0 MK0 MK0 MK0 MK0 MK0 MK0 MK0 MK0 MK0 MK0 MK0 MK0 MK0 MK0 MK0 MK0 MK0 K0 K0 K0 K0 K0 K0 K0 K0 K0 K0 K0 K0 K0 K0 K0 K0 K0 K0 K0 K0 K0 K0 K0 K0 K0 K0 K0 K0 K0 K0 K0 K0 K0 K0 K0 K0 K0 K0 K0 K0 K0 K0 K0 K0 K0 K0 K0 K0 K0 K0 K0 K0 K0 K0 K0 K0 K0 K0 K0 K0 K0 K0 K0 K0 K0 K0 K0 K0 K0 K0 K0 K0 K0 K0 0 0 0 0 0   J2 J2 J2 J2 J2 J2 J2 J2 J2 J2 J2 J2 J2 J2 J2 J2 J2 J2 J2 J2 J2 J2 J2 J2 J2 J2 J2 J2 J2 J2 J2 J2 J2 J2 J2 J2 J2 J2 J2 J2 J2 J2 J2 J2 J2 J2 J2 J2 J2 J2 J2 J2 J2 J2 J2 J2 J2 J2 J2 J2 J2 J2 J2 J2 J2 J2 J2 J2 J2 J2 J2 J2 J2 J2 J2 J2 J2 J2 J2 J2 J2 J2 J2 J2 J2 J2 J2 J2 J2 J2 J2 J2 J2 J2 J2 J2 J2 J2 J2 J2 J2 J2 J2 J2 J2 J2 J2 J2 J2 J2 J2 J2 J2 J2 J2 J2 J2 J2 J2 J2 J2 J2 J2 J2 J2 J2 J2 J2 J2 J2 J2 J2 J2 J2 J2 J2 J2 J2 J2 J2 J2 J2 J2 J2 J2 J2 J2 J2 J2 J2 J2 J2 J2 J2 J2 J2 J2 J2 J2 J2 J2 J2 J2 J2 J2 J2 J2 J2 J2 J2 J2 J2 J2 J2 J2 J2 J2 J2 J2 J2 J2 J2 J2 J2 J2 J2   H3 H3 H3 H3 H3 H3 H3 H3 H3 H3 H3 H3 H3 H3 H3 H3 H3 H3 H3 H3 H3 H3 H3 H3 H3 H3 H3 H3 H3 H3 H3 H3 H3 H3 H3 H3 H3 H3 H3 H3 H3 H3 H3 H3 H3 H3 H3 H3 H3 H3 H3 H3 H3 H3 H3 H3 H3 H3 H3 H3 H3 H3 H3 H3 H3 H3 H3 H3 H3 H3 H3 H3 H3 H3 H3 H3 H3 H3 H3 H3 H3 H3 H3 H3 H3 H3 H3 H3 H3 H3 H3 H3 H3 H3 H3 H3 H3 H3 H3 H3 H3 H3 H3 H3 H3 H3 H3 H3 H3 H3 H3 H3 H3 H3 H3 H3 H3 H3 H3 H3 H3 H3 H3 H3 H3 H3 H3 H3 H3 H3 H3 H3 H3 H3 H3 H3 H3 H3 H3 H3 H3 H3 H3 H3 H3 H3 H3 H3 H3 H3 H3 H3 H3 H3 H3 H3 H3 H3 H3 H3 H3 H3 H3 H3 H3 H3 H3 H3 H3 H3 H3 H3 H3 H3 H3 H3 H3 H3 H3 H3 H3 H3 H3 H3 H3 H3 3 3 J3 J3 J3 J3 J3 J3 J3 J3 J3 J3 J3 J3 J3 J3 J3 J3 J3 J3 J3 J3 J3 J3 J3 J3 J3 J3 J3 J3 J3 J3 J3 J3 J3 J3 J3 J3 J3 J3 J3 J3 J3 J3 J3 J3 J3 J3 J3 J3 J3 J3 J3 J3 J3 J3 J3 J3 J3 J3 J3 J3 J3 J3 J3 J3 J3 J3 J3 J3 J3 J3 J3 J3 J3 J3 J3 J3 J3 J3 J3 J3 J3 J3 J3 J3 J3 J3 J3 J3 J3 J3 J3 J3 J3 J3 J3 J3 J3 J3 J3 J3 J3 J3 J3 J3 J3 J3 J3 J3 J3 J3 J3 J3 J3 J3 J3 J3 J3 J3 J3 J3 J3 J3 J3 J3 J3 J3 J3 J3 J3 J3 J3 J3 J3 J3 J3 J3 J3 J3 J3 J3 J3 J3 J3 J3 J3 J3 J3 J3 J3 J3 J3 J3 J3 J3 J3 J3 J3 J3 J3 J3 J3 J3 J3 J3 J3 J3 J3 J3 J3 J3 J3 J3 J3 J3 J3 J3 J3 J3 J3 J3 J3 J3 J3 J3 J3 J3   K2 K2 K2 K2 K2 K2 K2 K2 K2 K2 K2 K2 K2 K2 K2 K2 K2 K2 K2 K2 K2 K2 K2 K2 K2 K2 K2 K2 K2 K2 K2 K2 K2 K2 K2 K2 K2 K2 K2 K2 K2 K2 K2 K2 K2 K2 K2 K2 K2 K2 K2 K2 K2 K2 K2 K2 K2 K2 K2 K2 K2 K2 K2 K2 K2 K2 K2 K2 K2 K2 K2 K2 K2 K2 K2 K2 K2 K2 K2 K2 K2 K2 K2 K2 K2 K2 K2 K2 K2 K2 K2 K2 K2 K2 K2 K2 K2 K2 K2 K2 K2 K2 K2 K2 K2 K2 K2 K2 K2 K2 K2 K2 K2 K2 K2 K2 K2 K2 K2 K2 K2 K2 K2 K2 K2 K2 K2 K2 K2 K2 K2 K2 K2 K2 K2 K2 K2 K2 K2 K2 K2 K2 K2 K2 K2 K2 K2 K2 K2 K2 K2 K2 K2 K2 K2 K2 K2 K2 K2 K2 K2 K2 K2 K2 K2 K2 K2 K2 K2 K2 K2 K2 K2 K2 K2 K2 K2 K2 K2 K2 K2 K2 K2 K2 K2 K2 2 2 F2 F2 F2 F2 F2 F2 F2 F2 F2 F2 F2 F2 F2 F2 F2 F2 F2 F2 F2 F2 F2 F2 F2 F2 F2 F2 F2 F2 F2 F2 F2 F2 F2 F2 F2 F2 F2 F2 F2 F2 F2 F2 F2 F2 F2 F2 F2 F2 F2 F2 F2 F2 F2 F2 F2 F2 F2 F2 F2 F2 F2 F2 F2 F2 F2 F2 F2 F2 F2 F2 F2 F2 F2 F2 F2 F2 F2 F2 F2 F2 F2 F2 F2 F2 F2 F2 F2 F2 F2 F2 F2 F2 F2 F2 F2 F2 F2 F2 F2 F2 F2 F2 F2 F2 F2 F2 F2 F2 F2 F2 F2 F2 F2 F2 F2 F2 F2 F2 F2 F2 F2 F2 F2 F2 F2 F2 F2 F2 F2 F2 F2 F2 F2 F2 F2 F2 F2 F2 F2 F2 F2 F2 F2 F2 F2 F2 F2 F2 F2 F2 F2 F2 F2 F2 F2 F2 F2 F2 F2 F2 F2 F2 F2 F2 F2 F2 F2 F2 F2 F2 F2 F2 F2 F2 F2 F2 F2 F2 F2 F2 F2 F2 F2 F2 F2 F2   E0 E0 E0 E0 E0 E0 E0 E0 E0 E0 E0 E0 E0 E0 E0 E0 E0 E0 E0 E0 E0 E0 E0 E0 E0 E0 E0 E0 E0 E0 E0 E0 E0 E0 E0 E0 E0 E0 E0 E0 E0 E0 E0 E0 E0 E0 E0 E0 E0 E0 E0 E0 E0 E0 E0 E0 E0 E0 E0 E0 E0 E0 E0 E0 E0 E0 E0 E0 E0 E0 E0 E0 E0 E0 E0 E0 E0 E0 E0 E0 E0 E0 E0 E0 E0 E0 E0 E0 E0 E0 E0 E0 E0 E0 E0 E0 E0 E0 E0 E0 E0 E0 E0 E0 E0 E0 E0 E0 E0 E0 E0 E0 E0 E0 E0 E0 E0 E0 E0 E0 E0 E0 E0 E0 E0 E0 E0 E0 E0 E0 E0 E0 E0 E0 E0 E0 E0 E0 E0 E0 E0 E0 E0 E0 E0 E0 E0 E0 E0 E0 E0 E0 E0 E0 E0 E0 E0 E0 E0 E0 E0 E0 E0 E0 E0 E0 E0 E0 E0 E0 E0 E0 E0 E0 E0 E0 E0 E0 E0 E0 E0 E0 E0 E0 E0 E0 0 F0 F0 F0 F0 F0 F0 F0 F0 F0 F0 F0 F0 F0 F0 F0 F0 F0 F0 F0 F0 F0 F0 F0 F0 F0 F0 F0 F0 F0 F0 F0 F0 F0 F0 F0 F0 F0 F0 F0 F0 F0 F0 F0 F0 F0 F0 F0 F0 F0 F0 F0 F0 F0 F0 F0 F0 F0 F0 F0 F0 F0 F0 F0 F0 F0 F0 F0 F0 F0 F0 F0 F0 F0 F0 F0 F0 F0 F0 F0 F0 F0 F0 F0 F0 F0 F0 F0 F0 F0 F0 F0 F0 F0 F0 F0 F0 F0 F0 F0 F0 F0 F0 F0 F0 F0 F0 F0 F0 F0 F0 F0 F0 F0 F0 F0 F0 F0 F0 F0 F0 F0 F0 F0 F0 F0 F0 F0 F0 F0 F0 F0 F0 F0 F0 F0 F0 F0 F0 F0 F0 F0 F0 F0 F0 F0 F0 F0 F0 F0 F0 F0 F0 F0 F0 F0 F0 F0 F0 F0 F0 F0 F0 F0 F0 F0 F0 F0 F0 F0 F0 F0 F0 F0 F0 F0 F0 F0 F0 F0 F0 F0 F0 F0 F0 F0 F0 0  H- H- H- H- H- H- H- H- H- H- H- H- H- H- H- H- H- H- H- H- H- H- H- H- H- H- H- H- H- H- H- H- H- H- H- H- H- H- H- H- H- H- H- H- H- H- H- H- H- H- H- H- H- H- H- H- H- H- H- H- H- H- H- H- H- H- H- H- H- H- H- H- H- H- H- H- H- H- H- H- H- H- H- H- H- H- H- H- H- H- H- H- H- H- H- H- H- H- H- H- H- H- H- H- H- H- H- H- H- H- H- H- H- H- H- H- H- H- H- H- H- H- H- H- H- H- H- H- H- H- H- H- H- H- H- H- H- H- H- H- H- H- H- H- H- H- H- H- H- H- H- H- H- H- H- H- H- H- H- H- H- H- H- H- H- H- H- H- H- H- H- H- H- H- H- H- H- H- H- H- H- H- H- H- H- H- - - C- C- C- C- C- C- C- C- C- C- C- C- C- C- C- C- C- C- C- C- C- C- C- C- C- C- C- C- C- C- C- C- C- C- C- C- C- C- C- C- C- C- C- C- C- C- C- C- C- C- C- C- C- C- C- C- C- C- C- C- C- C- C- C- C- C- C- C- C- C- C- C- C- C- C- C- C- C- C- C- C- C- C- C- C- C- C- C- C- C- C- C- C- C- C- C- C- C- C- C- C- C- C- C- C- C- C- C- C- C- C- C- C- C- C- C- C- C- C- C- C- C- C- C- C- C- C- C- C- C- C- C- C- C- C- C- C- C- C- C- C- C- C- C- C- C- C- C- C- C- C- C- C- C- C- C- C- C- C- C- C- C- C- C- C- C- C- C- C- C- C- C- C- C- C- C- C- C- C- C- C- C- C- C- C- C-   B2 B2 B2 B2 B2 B2 B2 B2 B2 B2 B2 B2 B2 B2 B2 B2 B2 B2 B2 B2 B2 B2 B2 B2 B2 B2 B2 B2 B2 B2 B2 B2 B2 B2 B2 B2 B2 B2 B2 B2 B2 B2 B2 B2 B2 B2 B2 B2 B2 B2 B2 B2 B2 B2 B2 B2 B2 B2 B2 B2 B2 B2 B2 B2 B2 B2 B2 B2 B2 B2 B2 B2 B2 B2 B2 B2 B2 B2 B2 B2 B2 B2 B2 B2 B2 B2 B2 B2 B2 B2 B2 B2 B2 B2 B2 B2 B2 B2 B2 B2 B2 B2 B2 B2 B2 B2 B2 B2 B2 B2 B2 B2 B2 B2 B2 B2 B2 B2 B2 B2 B2 B2 B2 B2 B2 B2 B2 B2 B2 B2 B2 B2 B2 B2 B2 B2 B2 B2 B2 B2 B2 B2 B2 B2 B2 B2 B2 B2 B2 B2 B2 B2 B2 B2 B2 B2 B2 B2 B2 B2 B2 B2 B2 B2 B2 B2 B2 B2 B2 B2 B2 B2 B2 B2 B2 B2 B2 B2 B2 B2 B2 B2 B2 B2 B2 B2 2 2 C2 C2 C2 C2 C2 C2 C2 C2 C2 C2 C2 C2 C2 C2 C2 C2 C2 C2 C2 C2 C2 C2 C2 C2 C2 C2 C2 C2 C2 C2 C2 C2 C2 C2 C2 C2 C2 C2 C2 C2 C2 C2 C2 C2 C2 C2 C2 C2 C2 C2 C2 C2 C2 C2 C2 C2 C2 C2 C2 C2 C2 C2 C2 C2 C2 C2 C2 C2 C2 C2 C2 C2 C2 C2 C2 C2 C2 C2 C2 C2 C2 C2 C2 C2 C2 C2 C2 C2 C2 C2 C2 C2 C2 C2 C2 C2 C2 C2 C2 C2 C2 C2 C2 C2 C2 C2 C2 C2 C2 C2 C2 C2 C2 C2 C2 C2 C2 C2 C2 C2 C2 C2 C2 C2 C2 C2 C2 C2 C2 C2 C2 C2 C2 C2 C2 C2 C2 C2 C2 C2 C2 C2 C2 C2 C2 C2 C2 C2 C2 C2 C2 C2 C2 C2 C2 C2 C2 C2 C2 C2 C2 C2 C2 C2 C2 C2 C2 C2 C2 C2 C2 C2 C2 C2 C2 C2 C2 C2 C2 C2 C2 C2 C2 C2 C2 C2 2 2 E2 E2 E2 E2 E2 E2 E2 E2 E2 E2 E2 E2 E2 E2 E2 E2 E2 E2 E2 E2 E2 E2 E2 E2 E2 E2 E2 E2 E2 E2 E2 E2 E2 E2 E2 E2 E2 E2 E2 E2 E2 E2 E2 E2 E2 E2 E2 E2 E2 E2 E2 E2 E2 E2 E2 E2 E2 E2 E2 E2 E2 E2 E2 E2 E2 E2 E2 E2 E2 E2 E2 E2 E2 E2 E2 E2 E2 E2 E2 E2 E2 E2 E2 E2 E2 E2 E2 E2 E2 E2 E2 E2 E2 E2 E2 E2 E2 E2 E2 E2 E2 E2 E2 E2 E2 E2 E2 E2 E2 E2 E2 E2 E2 E2 E2 E2 E2 E2 E2 E2 E2 E2 E2 E2 E2 E2 E2 E2 E2 E2 E2 E2 E2 E2 E2 E2 E2 E2 E2 E2 E2 E2 E2 E2 E2 E2 E2 E2 E2 E2 E2 E2 E2 E2 E2 E2 E2 E2 E2 E2 E2 E2 E2 E2 E2 E2 E2 E2 E2 E2 E2 E2 E2 E2 E2 E2 E2 E2 E2 E2 E2 E2 E2 E2 E2 E2 2 2 ?2 ?2 ?2 ?2 ?2 ?2 ?2 ?2 ?2 ?2 ?2 ?2 ?2 ?2 ?2 ?2 ?2 ?2 ?2 ?2 ?2 ?2 ?2 ?2 ?2 ?2 ?2 ?2 ?2 ?2 ?2 ?2 ?2 ?2 ?2 ?2 ?2 ?2 ?2 ?2 ?2 ?2 ?2 ?2 ?2 ?2 ?2 ?2 ?2 ?2 ?2 ?2 ?2 ?2 ?2 ?2 ?2 ?2 ?2 ?2 ?2 ?2 ?2 ?2 ?2 ?2 ?2 ?2 ?2 ?2 ?2 ?2 ?2 ?2 ?2 ?2 ?2 ?2 ?2 ?2 ?2 ?2 ?2 ?2 ?2 ?2 ?2 ?2 ?2 ?2 ?2 ?2 ?2 ?2 ?2 ?2 ?2 ?2 ?2 ?2 ?2 ?2 ?2 ?2 ?2 ?2 ?2 ?2 ?2 ?2 ?2 ?2 ?2 ?2 ?2 ?2 ?2 ?2 ?2 ?2 ?2 ?2 ?2 ?2 ?2 ?2 ?2 ?2 ?2 ?2 ?2 ?2 ?2 ?2 ?2 ?2 ?2 ?2 ?2 ?2 ?2 ?2 ?2 ?2 ?2 ?2 ?2 ?2 ?2 ?2 ?2 ?2 ?2 ?2 ?2 ?2 ?2 ?2 ?2 ?2 ?2 ?2 ?2 ?2 ?2 ?2 ?2 ?2 ?2 ?2 ?2 ?2 ?2 ?2 ?2 ?2 ?2 ?2 ?2 ?2 ?2 ?2 ?2 ?2 ?2 ?2 2    > > > > > > > > > > > > > > > > > > > > > > > > > > > > > > > > > > > > > > > > > > > > > > > > > > > > > > > > > > > > > > > > > > > > > > > > > > > > > > > > > > > > > > > > > > > > > > > > > > > > > > > > > > > > > > > > > > > > > > > > > > > > > > > > > > > > > > > > > > > > > > > > > > > > > > > > > > > > > > > > > > > > > > > > > > > > > > > > > > > > > > > > > >  @ @ @ @ @ @ @ @ @ @ @ @ @ @ @ @ @ @ @ @ @ @ @ @ @ @ @ @ @ @ @ @ @ @ @ @ @ @ @ @ @ @ @ @ @ @ @ @ @ @ @ @ @ @ @ @ @ @ @ @ @ @ @ @ @ @ @ @ @ @ @ @ @ @ @ @ @ @ @ @ @ @ @ @ @ @ @ @ @ @ @ @ @ @ @ @ @ @ @ @ @ @ @ @ @ @ @ @ @ @ @ @ @ @ @ @ @ @ @ @ @ @ @ @ @ @ @ @ @ @ @ @ @ @ @ @ @ @ @ @ @ @ @ @ @ @ @ @ @ @ @ @ @ @ @ @ @ @ @ @ @ @ @ @ @ @ @ @ @ @ @ @ @ @ @ @ @ @ @ @ @ @ @ @ @ @   B B B B B B B B B B B B B B B B B B B B B B B B B B B B B B B B B B B B B B B B B B B B B B B B B B B B B B B B B B B B B B B B B B B B B B B B B B B B B B B B B B B B B B B B B B B B B B B B B B B B B B B B B B B B B B B B B B B B B B B B B B B B B B B B B B B B B B B B B B B B B B B B B B B B B B B B B B B B B B B B B B B B B B B B B B B B B B B B B B B B B B B B B B B B <B <B <B <B <B <B <B <B <B <B <B <B <B <B <B <B <B <B <B <B <B <B <B <B <B <B <B <B <B <B <B <B <B <B <B <B <B <B <B <B <B <B <B <B <B <B <B <B <B <B <B <B <B <B <B <B <B <B <B <B <B <B <B <B <B <B <B <B <B <B <B <B <B <B <B <B <B <B <B <B <B <B <B <B <B <B <B <B <B <B <B <B <B <B <B <B <B <B <B <B <B <B <B <B <B <B <B <B <B <B <B <B <B <B <B <B <B <B <B <B <B <B <B <B <B <B <B <B <B <B <B <B <B <B <B <B <B <B <B <B <B <B <B <B <B <B <B <B <B <B <B <B <B <B <B <B <B <B <B <B <B <B <B <B <B <B <B <B <B <B <B <B <B <B <B <B <B <B <B <B <B <B <B <B <B <B   :C :C :C :C :C :C :C :C :C :C :C :C :C :C :C :C :C :C :C :C :C :C :C :C :C :C :C :C :C :C :C :C :C :C :C :C :C :C :C :C :C :C :C :C :C :C :C :C :C :C :C :C :C :C :C :C :C :C :C :C :C :C :C :C :C :C :C :C :C :C :C :C :C :C :C :C :C :C :C :C :C :C :C :C :C :C :C :C :C :C :C :C :C :C :C :C :C :C :C :C :C :C :C :C :C :C :C :C :C :C :C :C :C :C :C :C :C :C :C :C :C :C :C :C :C :C :C :C :C :C :C :C :C :C :C :C :C :C :C :C :C :C :C :C :C :C :C :C :C :C :C :C :C :C :C :C :C :C :C :C :C :C :C :C :C :C :C :C :C :C :C :C :C :C :C :C :C :C :C :C :C :C :C :C :C :C C C <C <C <C <C <C <C <C <C <C <C <C <C <C <C <C <C <C <C <C <C <C <C <C <C <C <C <C <C <C <C <C <C <C <C <C <C <C <C <C <C <C <C <C <C <C <C <C <C <C <C <C <C <C <C <C <C <C <C <C <C <C <C <C <C <C <C <C <C <C <C <C <C <C <C <C <C <C <C <C <C <C <C <C <C <C <C <C <C <C <C <C <C <C <C <C <C <C <C <C <C <C <C <C <C <C <C <C <C <C <C <C <C <C <C <C <C <C <C <C <C <C <C <C <C <C <C <C <C <C <C <C <C <C <C <C <C <C <C <C <C <C <C <C <C <C <C <C <C <C <C <C <C <C <C <C <C <C <C <C <C <C <C <C <C <C <C <C <C <C <C <C <C <C <C <C <C <C <C <C <C <C <C <C <C <C <C   F> F> F> F> F> F> F> F> F> F> F> F> F> F> F> F> F> F> F> F> F> F> F> F> F> F> F> F> F> F> F> F> F> F> F> F> F> F> F> F> F> F> F> F> F> F> F> F> F> F> F> F> F> F> F> F> F> F> F> F> F> F> F> F> F> F> F> F> F> F> F> F> F> F> F> F> F> F> F> F> F> F> F> F> F> F> F> F> F> F> F> F> F> F> F> F> F> F> F> F> F> F> F> F> F> F> F> F> F> F> F> F> F> F> F> F> F> F> F> F> F> F> F> F> F> F> F> F> F> F> F> F> F> F> F> F> F> F> F> F> F> F> F> F> F> F> F> F> F> F> F> F> F> F> F> F> F> F> F> F> F> F> F> F> F> F> F> F> F> F> F> F> F> F> F> F> F> F> F> F> F> F> F> F> F> F>   E6 E6 E6 E6 E6 E6 E6 E6 E6 E6 E6 E6 E6 E6 E6 E6 E6 E6 E6 E6 E6 E6 E6 E6 E6 E6 E6 E6 E6 E6 E6 E6 E6 E6 E6 E6 E6 E6 E6 E6 E6 E6 E6 E6 E6 E6 E6 E6 E6 E6 E6 E6 E6 E6 E6 E6 E6 E6 E6 E6 E6 E6 E6 E6 E6 E6 E6 E6 E6 E6 E6 E6 E6 E6 E6 E6 E6 E6 E6 E6 E6 E6 E6 E6 E6 E6 E6 E6 E6 E6 E6 E6 E6 E6 E6 E6 E6 E6 E6 E6 E6 E6 E6 E6 E6 E6 E6 E6 E6 E6 E6 E6 E6 E6 E6 E6 E6 E6 E6 E6 E6 E6 E6 E6 E6 E6 E6 E6 E6 E6 E6 E6 E6 E6 E6 E6 E6 E6 E6 E6 E6 E6 E6 E6 E6 E6 E6 E6 E6 E6 E6 E6 E6 E6 E6 E6 E6 E6 E6 E6 E6 E6 E6 E6 E6 E6 E6 E6 E6 E6 E6 E6 E6 E6 E6 E6 E6 E6 E6 E6 E6 E6 E6 E6 E6 E6   7F 7F 7F 7F 7F 7F 7F 7F 7F 7F 7F 7F 7F 7F 7F 7F 7F 7F 7F 7F 7F 7F 7F 7F 7F 7F 7F 7F 7F 7F 7F 7F 7F 7F 7F 7F 7F 7F 7F 7F 7F 7F 7F 7F 7F 7F 7F 7F 7F 7F 7F 7F 7F 7F 7F 7F 7F 7F 7F 7F 7F 7F 7F 7F 7F 7F 7F 7F 7F 7F 7F 7F 7F 7F 7F 7F 7F 7F 7F 7F 7F 7F 7F 7F 7F 7F 7F 7F 7F 7F 7F 7F 7F 7F 7F 7F 7F 7F 7F 7F 7F 7F 7F 7F 7F 7F 7F 7F 7F 7F 7F 7F 7F 7F 7F 7F 7F 7F 7F 7F 7F 7F 7F 7F 7F 7F 7F 7F 7F 7F 7F 7F 7F 7F 7F 7F 7F 7F 7F 7F 7F 7F 7F 7F 7F 7F 7F 7F 7F 7F 7F 7F 7F 7F 7F 7F 7F 7F 7F 7F 7F 7F 7F 7F 7F 7F 7F 7F 7F 7F 7F 7F 7F 7F 7F 7F 7F 7F 7F 7F 7F 7F 7F 7F 7F 7F F F 9F 9F 9F 9F 9F 9F 9F 9F 9F 9F 9F 9F 9F 9F 9F 9F 9F 9F 9F 9F 9F 9F 9F 9F 9F 9F 9F 9F 9F 9F 9F 9F 9F 9F 9F 9F 9F 9F 9F 9F 9F 9F 9F 9F 9F 9F 9F 9F 9F 9F 9F 9F 9F 9F 9F 9F 9F 9F 9F 9F 9F 9F 9F 9F 9F 9F 9F 9F 9F 9F 9F 9F 9F 9F 9F 9F 9F 9F 9F 9F 9F 9F 9F 9F 9F 9F 9F 9F 9F 9F 9F 9F 9F 9F 9F 9F 9F 9F 9F 9F 9F 9F 9F 9F 9F 9F 9F 9F 9F 9F 9F 9F 9F 9F 9F 9F 9F 9F 9F 9F 9F 9F 9F 9F 9F 9F 9F 9F 9F 9F 9F 9F 9F 9F 9F 9F 9F 9F 9F 9F 9F 9F 9F 9F 9F 9F 9F 9F 9F 9F 9F 9F 9F 9F 9F 9F 9F 9F 9F 9F 9F 9F 9F 9F 9F 9F 9F 9F 9F 9F 9F 9F 9F 9F 9F 9F 9F 9F 9F 9F 9F 9F 9F 9F 9F 9F   :C :C :C :C :C :C :C :C :C :C :C :C :C :C :C :C :C :C :C :C :C :C :C :C :C :C :C :C :C :C :C :C :C :C :C :C :C :C :C :C :C :C :C :C :C :C :C :C :C :C :C :C :C :C :C :C :C :C :C :C :C :C :C :C :C :C :C :C :C :C :C :C :C :C :C :C :C :C :C :C :C :C :C :C :C :C :C :C :C :C :C :C :C :C :C :C :C :C :C :C :C :C :C :C :C :C :C :C :C :C :C :C :C :C :C :C :C :C :C :C :C :C :C :C :C :C :C :C :C :C :C :C :C :C :C :C :C :C :C :C :C :C :C :C :C :C :C :C :C :C :C :C :C :C :C :C :C :C :C :C :C :C :C :C :C :C :C :C :C :C :C :C :C :C :C :C :C :C :C :C :C :C :C :C :C :C C C 2C 2C 2C 2C 2C 2C 2C 2C 2C 2C 2C 2C 2C 2C 2C 2C 2C 2C 2C 2C 2C 2C 2C 2C 2C 2C 2C 2C 2C 2C 2C 2C 2C 2C 2C 2C 2C 2C 2C 2C 2C 2C 2C 2C 2C 2C 2C 2C 2C 2C 2C 2C 2C 2C 2C 2C 2C 2C 2C 2C 2C 2C 2C 2C 2C 2C 2C 2C 2C 2C 2C 2C 2C 2C 2C 2C 2C 2C 2C 2C 2C 2C 2C 2C 2C 2C 2C 2C 2C 2C 2C 2C 2C 2C 2C 2C 2C 2C 2C 2C 2C 2C 2C 2C 2C 2C 2C 2C 2C 2C 2C 2C 2C 2C 2C 2C 2C 2C 2C 2C 2C 2C 2C 2C 2C 2C 2C 2C 2C 2C 2C 2C 2C 2C 2C 2C 2C 2C 2C 2C 2C 2C 2C 2C 2C 2C 2C 2C 2C 2C 2C 2C 2C 2C 2C 2C 2C 2C 2C 2C 2C 2C 2C 2C 2C 2C 2C 2C 2C 2C 2C 2C 2C 2C 2C 2C 2C 2C 2C 2C 2C 2C 2C 2C 2C 2C   O3 O3 O3 O3 O3 O3 O3 O3 O3 O3 O3 O3 O3 O3 O3 O3 O3 O3 O3 O3 O3 O3 O3 O3 O3 O3 O3 O3 O3 O3 O3 O3 O3 O3 O3 O3 O3 O3 O3 O3 O3 O3 O3 O3 O3 O3 O3 O3 O3 O3 O3 O3 O3 O3 O3 O3 O3 O3 O3 O3 O3 O3 O3 O3 O3 O3 O3 O3 O3 O3 O3 O3 O3 O3 O3 O3 O3 O3 O3 O3 O3 O3 O3 O3 O3 O3 O3 O3 O3 O3 O3 O3 3 3 M3 M3 M3 M3 M3 M3 M3 M3 M3 M3 M3 M3 M3 M3 M3 M3 M3 M3 M3 M3 M3 M3 M3 M3 M3 M3 M3 M3 M3 M3 M3 M3 M3 M3 M3 M3 M3 M3 M3 M3 M3 M3 M3 M3 M3 M3 M3 M3 M3 M3 M3 M3 M3 M3 M3 M3 M3 M3 M3 M3 M3 M3 M3 M3 M3 M3 M3 M3 M3 M3 M3 M3 M3 M3 M3 M3 M3 M3 M3 M3 M3 M3 M3 M3 M3 M3 M3 M3 M3 M3 M3 M3  5O 5O 5O 5O 5O 5O 5O 5O 5O 5O 5O 5O 5O 5O 5O 5O 5O 5O 5O 5O 5O 5O 5O 5O 5O 5O 5O 5O 5O 5O 5O 5O 5O 5O 5O 5O 5O 5O 5O 5O 5O 5O 5O 5O 5O 5O 5O 5O 5O 5O 5O 5O 5O 5O 5O 5O 5O 5O 5O 5O 5O 5O 5O 5O 5O 5O 5O 5O 5O 5O 5O 5O 5O 5O 5O 5O 5O 5O 5O 5O 5O 5O 5O 5O 5O 5O 5O 5O 5O 5O 5O 5O 5O 5O 5O 5O 5O 5O 5O 5O 5O 5O 5O 5O 5O 5O 5O 5O 5O 5O 5O 5O 5O 5O 5O 5O 5O 5O 5O 5O 5O 5O 5O 5O 5O 5O 5O 5O 5O 5O 5O 5O 5O 5O 5O 5O 5O 5O 5O 5O 5O 5O 5O 5O 5O 5O 5O 5O 5O 5O 5O 5O 5O 5O 5O 5O 5O 5O 5O 5O 5O 5O 5O 5O 5O 5O 5O 5O 5O 5O 5O 5O 5O 5O 5O 5O 5O 5O 5O 5O 5O 5O 5O 5O 5O 5O O O 7O 7O 7O 7O 7O 7O 7O 7O 7O 7O 7O 7O 7O 7O 7O 7O 7O 7O 7O 7O 7O 7O 7O 7O 7O 7O 7O 7O 7O 7O 7O 7O 7O 7O 7O 7O 7O 7O 7O 7O 7O 7O 7O 7O 7O 7O 7O 7O 7O 7O 7O 7O 7O 7O 7O 7O 7O 7O 7O 7O 7O 7O 7O 7O 7O 7O 7O 7O 7O 7O 7O 7O 7O 7O 7O 7O 7O 7O 7O 7O 7O 7O 7O 7O 7O 7O 7O 7O 7O 7O 7O 7O 7O 7O 7O 7O 7O 7O 7O 7O 7O 7O 7O 7O 7O 7O 7O 7O 7O 7O 7O 7O 7O 7O 7O 7O 7O 7O 7O 7O 7O 7O 7O 7O 7O 7O 7O 7O 7O 7O 7O 7O 7O 7O 7O 7O 7O 7O 7O 7O 7O 7O 7O 7O 7O 7O 7O 7O 7O 7O 7O 7O 7O 7O 7O 7O 7O 7O 7O 7O 7O 7O 7O 7O 7O 7O 7O 7O 7O 7O 7O 7O 7O 7O 7O 7O 7O 7O 7O 7O 7O 7O 7O 7O 7O 7O   P0 P0 P0 P0 P0 P0 P0 P0 P0 P0 P0 P0 P0 P0 P0 P0 P0 P0 P0 P0 P0 P0 P0 P0 P0 P0 P0 P0 P0 P0 P0 P0 P0 P0 P0 P0 P0 P0 P0 P0 P0 P0 P0 P0 P0 P0 P0 P0 P0 P0 P0 P0 P0 P0 P0 P0 P0 P0 P0 P0 P0 P0 P0 P0 P0 P0 P0 P0 P0 P0 P0 P0 P0 P0 P0 P0 P0 P0 P0 P0 P0 P0 P0 P0 P0 P0 P0 P0 P0 P0 P0 P0 P0 P0 P0 P0 P0 P0 P0 P0 P0 P0 P0 P0 P0 P0 P0 P0 P0 P0 P0 P0 P0 P0 P0 P0 P0 P0 P0 P0 P0 P0 P0 P0 P0 P0 P0 P0 P0 P0 P0 P0 P0 P0 P0 P0 P0 P0 P0 P0 P0 P0 P0 P0 P0 P0 P0 P0 P0 P0 P0 P0 P0 P0 P0 P0 P0 P0 P0 P0 P0 P0 P0 P0 P0 P0 P0 P0 P0 P0 P0 P0 P0 P0 P0 P0 P0 P0 P0 P0 P0 P0 P0 P0 P0 P0   O/ O/ O/ O/ O/ O/ O/ O/ O/ O/ O/ O/ O/ O/ O/ O/ O/ O/ O/ O/ O/ O/ O/ O/ O/ O/ O/ O/ O/ O/ O/ O/ O/ O/ O/ O/ O/ O/ O/ O/ O/ O/ O/ O/ O/ O/ O/ O/ O/ O/ O/ O/ O/ O/ O/ O/ O/ O/ O/ O/ O/ O/ O/ O/ O/ O/ O/ O/ O/ O/ O/ O/ O/ O/ O/ O/ O/ O/ O/ O/ O/ O/ O/ O/ O/ O/ O/ O/ O/ O/ O/ O/ O/ O/ O/ O/ O/ O/ O/ O/ O/ O/ O/ O/ O/ O/ O/ O/ O/ O/ O/ O/ O/ O/ O/ O/ O/ O/ O/ O/ O/ O/ O/ O/ O/ O/ O/ O/ O/ O/ O/ O/ O/ O/ O/ O/ O/ O/ O/ O/ O/ O/ O/ O/ O/ O/ O/ O/ O/ O/ O/ O/ O/ O/ O/ O/ O/ O/ O/ O/ O/ O/ O/ O/ O/ O/ O/ O/ O/ O/ O/ O/ O/ O/ O/ O/ O/ O/ O/ O/ O/ O/ O/ O/ O/ O/   M0 M0 M0 M0 M0 M0 M0 M0 M0 M0 M0 M0 M0 M0 M0 M0 M0 M0 M0 M0 M0 M0 M0 M0 M0 M0 M0 M0 M0 M0 M0 M0 M0 M0 M0 M0 M0 M0 M0 M0 M0 M0 M0 M0 M0 M0 M0 M0 M0 M0 M0 M0 M0 M0 M0 M0 M0 M0 M0 M0 M0 M0 M0 M0 M0 M0 M0 M0 M0 M0 M0 M0 M0 M0 M0 M0 M0 M0 M0 M0 M0 M0 M0 M0 M0 M0 M0 M0 M0 M0 M0 M0 M0 M0 M0 M0 M0 M0 M0 M0 M0 M0 M0 M0 M0 M0 M0 M0 M0 M0 M0 M0 M0 M0 M0 M0 M0 M0 M0 M0 M0 M0 M0 M0 M0 M0 M0 M0 M0 M0 M0 M0 M0 M0 M0 M0 M0 M0 M0 M0 M0 M0 M0 M0 M0 M0 M0 M0 M0 M0 M0 M0 M0 M0 M0 M0 M0 M0 M0 M0 M0 M0 M0 M0 M0 M0 M0 M0 M0 M0 M0 M0 M0 M0 M0 M0 M0 M0 M0 M0 M0 M0 M0 M0 M0 M0   K2 K2 K2 K2 K2 K2 K2 K2 K2 K2 K2 K2 K2 K2 K2 K2 K2 K2 K2 K2 K2 K2 K2 K2 K2 K2 K2 K2 K2 K2 K2 K2 K2 K2 K2 K2 K2 K2 K2 K2 K2 K2 K2 K2 K2 K2 K2 K2 K2 K2 K2 K2 K2 K2 K2 K2 K2 K2 K2 K2 K2 K2 K2 K2 K2 K2 K2 K2 K2 K2 K2 K2 K2 K2 K2 K2 K2 K2 K2 K2 K2 K2 K2 K2 K2 K2 K2 K2 K2 K2 K2 K2 K2 K2 K2 K2 K2 K2 K2 K2 K2 K2 K2 K2 K2 K2 K2 K2 K2 K2 K2 K2 K2 K2 K2 K2 K2 K2 K2 K2 K2 K2 K2 K2 K2 K2 K2 K2 K2 K2 K2 K2 K2 K2 K2 K2 K2 K2 K2 K2 K2 K2 K2 K2 K2 K2 K2 K2 K2 K2 K2 K2 K2 K2 K2 K2 K2 K2 K2 K2 K2 K2 K2 K2 K2 K2 K2 K2 K2 K2 K2 K2 K2 K2 K2 K2 K2 K2 K2 K2 K2 K2 K2 K2 K2 K2   J+ J+ J+ J+ J+ J+ J+ J+ J+ J+ J+ J+ J+ J+ J+ J+ J+ J+ J+ J+ J+ J+ J+ J+ J+ J+ J+ J+ J+ J+ J+ J+ J+ J+ J+ J+ J+ J+ J+ J+ J+ J+ J+ J+ J+ J+ J+ J+ J+ J+ J+ J+ J+ J+ J+ J+ J+ J+ J+ J+ J+ J+ J+ J+ J+ J+ J+ J+ J+ J+ J+ J+ J+ J+ J+ J+ J+ J+ J+ J+ J+ J+ J+ J+ J+ J+ J+ J+ J+ J+ J+ J+ J+ J+ J+ J+ J+ J+ J+ J+ J+ J+ J+ J+ J+ J+ J+ J+ J+ J+ J+ J+ J+ J+ J+ J+ J+ J+ J+ J+ J+ J+ J+ J+ J+ J+ J+ J+ J+ J+ J+ J+ J+ J+ J+ J+ J+ J+ J+ J+ J+ J+ J+ J+ J+ J+ J+ J+ J+ J+ J+ J+ J+ J+ J+ J+ J+ J+ J+ J+ J+ J+ J+ J+ J+ J+ J+ J+ J+ J+ J+ J+ J+ J+ J+ J+ J+ J+ J+ J+ J+ J+ J+ J+ J+ J+   0K 0K 0K 0K 0K 0K 0K 0K 0K 0K 0K 0K 0K 0K 0K 0K 0K 0K 0K 0K 0K 0K 0K 0K 0K 0K 0K 0K 0K 0K 0K 0K 0K 0K 0K 0K 0K 0K 0K 0K 0K 0K 0K 0K 0K 0K 0K 0K 0K 0K 0K 0K 0K 0K 0K 0K 0K 0K 0K 0K 0K 0K 0K 0K 0K 0K 0K 0K 0K 0K 0K 0K 0K 0K 0K 0K 0K 0K 0K 0K 0K 0K 0K 0K 0K 0K 0K 0K 0K 0K 0K 0K 0K 0K 0K 0K 0K 0K 0K 0K 0K 0K 0K 0K 0K 0K 0K 0K 0K 0K 0K 0K 0K 0K 0K 0K 0K 0K 0K 0K 0K 0K 0K 0K 0K 0K 0K 0K 0K 0K 0K 0K 0K 0K 0K 0K 0K 0K 0K 0K 0K 0K 0K 0K 0K 0K 0K 0K 0K 0K 0K 0K 0K 0K 0K 0K 0K 0K 0K 0K 0K 0K 0K 0K 0K 0K 0K 0K 0K 0K 0K 0K 0K 0K 0K 0K 0K 0K 0K 0K 0K 0K 0K 0K 0K 0K 0K 0K J0K J0K J0K J0K J0K J0K J0K J0K J0K J0K J0K J0K J0K J0K J0K J0K J0K J0K J0K J0K J0K J0K J0K J0K J0K J0K J0K J0K J0K J0K J0K J0K J0K J0K J0K J0K J0K J0K J0K J0K J0K J0K J0K J0K J0K J0K J0K J0K J0K J0K J0K J0K J0K J0K J0K J0K J0K J0K J0K J0K J0K J0K J0K J0K J0K J0K J0K J0K J0K J0K J0K J0K J0K J0K J0K J0K J0K J0K J0K J0K J0K J0K J0K J0K J0K J0K J0K J0K J0K J0K J0K J0K J0K J0K J0K J0K J0K J0K J0K J0K J0K J0K J0K J0K J0K J0K J0K J0K J0K J0K J0K J0K J0K J0K J0K J0K J0K J0K J0K J0K J0K J0K J0K J0K J0K J0K J0K J0K J0K J0K J0K J0K J0K J0K J0K J0K J0K J0K J0K J0K J0K J0K J0K J0K J0K J0K J0K J0K J0K J0K J0K J0K J0K J0K J0K J0K J0K J0K J0K J0K J0K J0K J0K J0K J0K J0K J0K J0K J0K J0K J0K J0K J0K J0K J0K J0K J0K J0K J0K J0K J0K J0K J0K J0K J0K J0K 0K 0K H0K H0K H0K H0K H0K H0K H0K H0K H0K H0K H0K H0K H0K H0K H0K H0K H0K H0K H0K H0K H0K H0K H0K H0K H0K H0K H0K H0K H0K H0K H0K H0K H0K H0K H0K H0K H0K H0K H0K H0K H0K H0K H0K H0K H0K H0K H0K H0K H0K H0K H0K H0K H0K H0K H0K H0K H0K H0K H0K H0K H0K H0K H0K H0K H0K H0K H0K H0K H0K H0K H0K H0K H0K H0K H0K H0K H0K H0K H0K H0K H0K H0K H0K H0K H0K H0K H0K H0K H0K H0K H0K H0K H0K H0K H0K H0K H0K H0K H0K H0K H0K H0K H0K H0K H0K H0K H0K H0K H0K H0K H0K H0K H0K H0K H0K H0K H0K H0K H0K H0K H0K H0K H0K H0K H0K H0K H0K H0K H0K H0K H0K H0K H0K H0K H0K H0K H0K H0K H0K H0K H0K H0K H0K H0K H0K H0K H0K H0K H0K H0K H0K H0K H0K H0K H0K H0K H0K H0K H0K H0K H0K H0K H0K H0K H0K H0K H0K H0K H0K H0K H0K H0K H0K H0K H0K H0K H0K H0K H0K H0K H0K H0K H0K H0K H0K H0K 0K 0K F0K F0K F0K F0K F0K F0K F0K F0K F0K F0K F0K F0K F0K F0K F0K F0K F0K F0K F0K F0K F0K F0K F0K F0K F0K F0K F0K F0K F0K F0K F0K F0K F0K F0K F0K F0K F0K F0K F0K F0K F0K F0K F0K F0K F0K F0K F0K F0K F0K F0K F0K F0K F0K F0K F0K F0K F0K F0K F0K F0K F0K F0K F0K F0K F0K F0K F0K F0K F0K F0K F0K F0K F0K F0K F0K F0K F0K F0K F0K F0K F0K F0K F0K F0K F0K F0K F0K F0K F0K F0K F0K F0K F0K F0K F0K F0K F0K F0K F0K F0K F0K F0K F0K F0K F0K F0K F0K F0K F0K F0K F0K F0K F0K F0K F0K F0K F0K F0K F0K F0K F0K F0K F0K F0K F0K F0K F0K F0K F0K F0K F0K F0K F0K F0K F0K F0K F0K F0K F0K F0K F0K F0K F0K F0K F0K F0K F0K F0K F0K F0K F0K F0K F0K F0K F0K F0K F0K F0K F0K F0K F0K F0K F0K F0K F0K F0K F0K F0K F0K F0K F0K F0K F0K F0K F0K F0K F0K F0K F0K F0K F0K F0K F0K F0K F0K F0K 0K K K HK HK HK HK HK HK HK HK HK HK HK HK HK HK HK HK HK HK HK HK HK HK HK HK HK HK HK HK HK HK HK HK HK HK HK HK HK HK HK HK HK HK HK HK HK HK HK HK HK HK HK HK HK HK HK HK HK HK HK HK HK HK HK HK HK HK HK HK HK HK HK HK HK HK HK HK HK HK HK HK HK HK HK HK HK HK HK HK HK HK HK HK HK HK HK HK HK HK HK HK HK HK HK HK HK HK HK HK HK HK HK HK HK HK HK HK HK HK HK HK HK HK HK HK HK HK HK HK HK HK HK HK HK HK HK HK HK HK HK HK HK HK HK HK HK HK HK HK HK HK HK HK HK HK HK HK HK HK HK HK HK HK HK HK HK HK HK HK HK HK HK HK HK HK HK HK HK HK HK HK HK HK HK HK HK HK HK HK EHK EHK EHK EHK EHK EHK EHK EHK EHK EHK EHK EHK EHK EHK EHK EHK EHK EHK EHK EHK EHK EHK EHK EHK EHK EHK EHK EHK EHK EHK EHK EHK EHK EHK EHK EHK EHK EHK EHK EHK EHK EHK EHK EHK EHK EHK EHK EHK EHK EHK EHK EHK EHK EHK EHK EHK EHK EHK EHK EHK EHK EHK EHK EHK EHK EHK EHK EHK EHK EHK EHK EHK EHK EHK EHK EHK EHK EHK EHK EHK EHK EHK EHK EHK EHK EHK EHK EHK EHK EHK EHK EHK EHK EHK EHK EHK EHK EHK EHK EHK EHK EHK EHK EHK EHK EHK EHK EHK EHK EHK EHK EHK EHK EHK EHK EHK EHK EHK EHK EHK EHK EHK EHK EHK EHK EHK EHK EHK EHK EHK EHK EHK EHK EHK EHK EHK EHK EHK EHK EHK EHK EHK EHK EHK EHK EHK EHK EHK EHK EHK EHK EHK EHK EHK EHK EHK EHK EHK EHK EHK EHK EHK EHK EHK EHK EHK EHK EHK EHK EHK EHK EHK EHK EHK EHK EHK EHK EHK EHK EHK EHK EHK EHK EHK EHK EHK   F F F F F F F F F F F F F F F F F F F F F F F F F F F F F F F F F F F F F F F F F F F F F F F F F F F F F F F F F F F F F F F F F F F F F F FK FK FK FK FK FK FK FK FK FK FK FK FK FK FK FK FK FK FK FK FK FK FK FK FK FK FK FK FK FK FK FK FK FK FK FK FK FK FK FK FK FK FK FK FK FK FK FK FK FK FK FK FK FK FK FK FK FK FK FK FK FK FK FK FK FK FK FK FK FK FKO FKO FKO FKO FKO FKO FKO FKO FKO FKO FKO FKO FKO FKO FKO FKO FKO FKO FKO FKO FKO FKO FKO FKO FKO FKO FKO FKO FKO FKO FKO FKO FKO FKO FKO FKO FKO FKO FKO FKO FKO FKO FKO FKO FKO FKO KO KO HKO HKO HKO HKO HKO HKO HKO HKO HKO HKO HKO HKO HKO HKO HKO HKO HKO HKO HKO HKO HKO HKO HKO HKO HKO HKO HKO HKO HKO HKO HKO HKO HKO HKO HKO HKO HKO HKO HKO HKO HKO HKO HKO HKO HKO HKO HKO HKO HKO HKO HKO HKO HKO HKO HKO HKO HKO HKO HKO HKO HKO HKO HKO HKO HKO HKO HKO HKO HKO HKO HKO HKO HKO HKO HKO HKO HKO HKO HKO HKO HKO HKO HKO HKO HKO HKO HKO HKO HKO HKO HKO HKO HKO HKO HKO HKO HKO HKO HKO HKO HKO HKO HKO HKO HKO HKO HKO HKO HKO HKO HKO HKO HKO HKO HKO HKO HKO HKO HKO HKO HKO HKO HKO HKO HKO HKO HKO HKO HKO HKO HKO HKO HKO HKO HKO HKO HKO HKO HKO HKO HKO HKO HKO HKO HKO HKO HKO HKO HKO HKO HKO HKO HKO HKO HKO HKO HKO HKO HKO HKO HKO HKO HKO HKO HKO HKO HKO HKO HKO HKO HKO HKO HKO HKO HKO HKO HKO HKO HKO HKO HKO HKO HKO HKO HKO HKO KO KO OJBQ OJBQ OJBQ OJBQ JBQ JBQ JBQ JBQ JBQ JBQ JBQ JBQ JBQ JBQ JBQ JBQ JBQ JBQ JBQ JBQ JBQ JBQ JBQ JBQ JBQ JBQ JBQ JBQ JBQ JBQ JBQ JBQ JBQ JBQ JBQ JBQ JBQ JBQ JBQ JBQ JBQ JBQ JBQ JBQ JBQ JBQ JBQ JBQ JBQ JBQ JBQ JBQ JBQ JBQ JBQ JBQ JBQ JBQ JBQ JBQ JBQ JBQ JBQ JBQ JBQ JBQ JBQ JBQ JBQ JBQ JBQ JBQ JBQ JBQ JBQ JBQ JBQ JBQ JBQ JBQ JBQ JBQ JBQ JBQ JBQ JBQ JBQ JBQ JBQ JBQ JBQ JBQ JBQ JBQ JBQ JBQ JBQ JBQ JBQ JBQ JBQ JBQ JBQ JBQ JBQ JBQ JBQ JBQ JBQ JBQ JBQ JBQ JBQ JBQ JBQ JBQ JBQ JBQ JBQ JBQ JBQ JBQ JBQ JBQ JBQ JBQ JBQ JBQ JBQ JBQ JBQ JBQ JBQ JBQ JBQ JBQ JBQ JBQ JBQ JBQ JBQ JBQ JBQ JBQ JBQ JBQ JBQ JBQ JBQ JBQ JBQ JBQ JBQ JBQ JBQ JBQ JBQ JBQ JBQ JBQ JBQ JBQ JBQ JBQ JBQ JBQ JBQ JBQ JBQ JBQ JBQ JBQ JBQ JBQ JBQ JBQ JBQ JBQ JBQ JBQ JBQ JBQ JBQ JBQ JBQ JBQ Q Q HCQ HCQ HCQ HCQ HCQ HCQ HCQ HCQ HCQ HCQ HCQ HCQ HCQ HCQ HCQ HCQ HCQ HCQ HCQ HCQ HCQ HCQ HCQ HCQ HCQ HCQ HCQ HCQ HCQ HCQ HCQ HCQ HCQ HCQ HCQ HCQ HCQ HCQ HCQ HCQ HCQ HCQ HCQ HCQ HCQ HCQ HCQ HCQ HCQ HCQ HCQ HCQ HCQ HCQ HCQ HCQ HCQ HCQ HCQ HCQ HCQ HCQ HCQ HCQ HCQ HCQ HCQ HCQ HCQ HCQ HCQ HCQ HCQ HCQ HCQ HCQ HCQ HCQ HCQ HCQ HCQ HCQ HCQ HCQ HCQ HCQ HCQ HCQ HCQ HCQ HCQ HCQ HCQ HCQ HCQ HCQ HCQ HCQ HCQ HCQ HCQ HCQ HCQ HCQ HCQ HCQ HCQ HCQ HCQ HCQ HCQ HCQ HCQ HCQ HCQ HCQ HCQ HCQ HCQ HCQ HCQ HCQ HCQ HCQ HCQ HCQ HCQ HCQ HCQ HCQ HCQ HCQ HCQ HCQ HCQ HCQ HCQ HCQ HCQ HCQ HCQ HCQ HCQ HCQ HCQ HCQ HCQ HCQ HCQ HCQ HCQ HCQ HCQ HCQ HCQ HCQ HCQ HCQ HCQ HCQ HCQ HCQ HCQ HCQ HCQ HCQ HCQ HCQ HCQ HCQ HCQ HCQ HCQ HCQ HCQ HCQ HCQ HCQ HCQ HCQ HCQ HCQ HCQ HCQ HCQ HCQ Q Q FEQ FEQ FEQ FEQ FEQ FEQ FEQ FEQ FEQ FEQ FEQ FEQ FEQ FEQ FEQ FEQ FEQ FEQ FEQ FEQ FEQ FEQ FEQ FEQ FEQ FEQ FEQ FEQ FEQ FEQ FEQ FEQ FEQ FEQ FEQ FEQ FEQ FEQ FEQ FEQ FEQ FEQ FEQ FEQ FEQ FEQ FEQ FEQ FEQ FEQ FEQ FEQ FEQ FEQ FEQ FEQ FEQ FEQ FEQ FEQ FEQ FEQ FEQ FEQ FEQ FEQ FEQ FEQ FEQ FEQ FEQ FEQ FEQ FEQ FEQ FEQ FEQ FEQ FEQ FEQ FEQ FEQ FEQ FEQ FEQ FEQ FEQ FEQ FEQ FEQ FEQ FEQ FEQ FEQ FEQ FEQ FEQ FEQ FEQ FEQ FEQ FEQ FEQ FEQ FEQ FEQ FEQ FEQ FEQ FEQ FEQ FEQ FEQ FEQ FEQ FEQ FEQ FEQ FEQ FEQ FEQ FEQ FEQ FEQ FEQ FEQ FEQ FEQ FEQ FEQ FEQ FEQ FEQ FEQ FEQ FEQ FEQ FEQ FEQ FEQ FEQ FEQ FEQ FEQ FEQ FEQ FEQ FEQ FEQ FEQ FEQ FEQ FEQ FEQ FEQ FEQ FEQ FEQ FEQ FEQ FEQ FEQ FEQ FEQ FEQ FEQ FEQ FEQ FEQ FEQ FEQ FEQ FEQ FEQ FEQ FEQ FEQ FEQ FEQ FEQ FEQ FEQ FEQ FEQ FEQ FEQ Q Q E>Q E>Q E>Q E>Q E>Q E>Q E>Q E>Q E>Q E>Q E>Q E>Q E>Q E>Q E>Q E>Q E>Q E>Q E>Q E>Q E>Q E>Q E>Q E>Q E>Q E>Q E>Q E>Q E>Q E>Q E>Q E>Q E>Q E>Q E>Q E>Q E>Q E>Q E>Q E>Q E>Q E>Q E>Q E>Q E>Q E>Q E>Q E>Q E>Q E>Q E>Q E>Q E>Q E>Q E>Q E>Q E>Q E>Q E>Q E>Q E>Q E>Q E>Q E>Q E>Q E>Q E>Q E>Q E>Q E>Q E>Q E>Q E>Q E>Q E>Q E>Q E>Q E>Q E>Q E>Q E>Q E>Q E>Q E>Q E>Q E>Q E>Q E>Q E>Q E>Q E>Q E>Q E>Q E>Q E>Q E>Q E>Q E>Q E>Q E>Q E>Q E>Q E>Q E>Q E>Q E>Q E>Q E>Q E>Q E>Q E>Q E>Q E>Q E>Q E>Q E>Q E>Q E>Q E>Q E>Q E>Q E>Q E>Q E>Q E>Q E>Q E>Q E>Q E>Q E>Q E>Q E>Q E>Q E>Q E>Q E>Q E>Q E>Q E>Q E>Q E>Q E>Q E>Q E>Q E>Q E>Q E>Q E>Q E>Q E>Q E>Q E>Q E>Q E>Q E>Q E>Q E>Q E>Q E>Q E>Q E>Q E>Q E>Q E>Q E>Q E>Q E>Q E>Q E>Q E>Q E>Q E>Q E>Q E>Q E>Q E>Q E>Q E>Q E>Q E>Q E>Q E>Q E>Q E>Q E>Q E>Q Q Q CQF CQF CQF CQF CQF CQF CQF CQF CQF CQF CQF CQF CQF CQF CQF CQF CQF CQF CQF CQF CQF CQF CQF CQF CQF CQF CQF CQF CQF CQF CQF CQF CQF CQF CQF CQF CQF CQF CQF CQF CQF CQF CQF CQF CQF CQF CQF CQF CQF CQF CQF CQF CQF CQF CQF CQF CQF CQF CQF CQF CQF CQF CQF CQF CQF CQF CQF CQF CQF CQF CQF CQF CQF CQF CQF CQF CQF CQF CQF CQF CQF CQF CQF CQF CQF CQF CQF CQF CQF CQF CQF CQF CQF CQF CQF CQF CQF CQF CQF CQF CQF CQF CQF CQF CQF CQF CQF CQF CQF CQF CQF CQF CQF CQF CQF CQF CQF CQF CQF CQF CQF CQF CQF CQF CQF CQF CQF CQF CQF CQF CQF CQF CQF CQF CQF CQF CQF CQF CQF CQF CQF CQF CQF CQF CQF CQF CQF CQF CQF CQF CQF CQF CQF CQF CQF CQF CQF CQF CQF CQF CQF CQF CQF CQF CQF CQF CQF CQF CQF CQF CQF CQF CQF CQF CQF CQF CQF CQF CQF CQF CQF CQF CQF CQF CQF CQF QF AQF AQF AQF AQF AQF AQF AQF AQF AQF AQF AQF AQF AQF AQF AQF AQF AQF AQF AQF AQF AQF AQF AQF AQF AQF AQF AQF AQF AQF AQF AQF AQF AQF AQF AQF AQF AQF AQF AQF AQF AQF AQF AQF AQF AQF AQF AQF AQF AQF AQF AQF AQF AQF AQF AQF AQF AQF AQF AQF AQF AQF AQF AQF AQF AQF AQF AQF AQF AQF AQF AQF AQF AQF AQF AQF AQF AQF AQF AQF AQF AQF AQF AQF AQF AQF AQF AQF AQF AQF AQF AQF AQF AQF AQF AQF AQF AQF AQF AQF AQF AQF AQF AQF AQF AQF AQF AQF AQF AQF AQF AQF AQF AQF AQF AQF AQF AQF AQF AQF AQF AQF AQF AQF AQF AQF AQF AQF AQF AQF AQF AQF AQF AQF AQF AQF AQF AQF AQF AQF AQF AQF AQF AQF AQF AQF AQF AQF AQF AQF AQF AQF AQF AQF AQF AQF AQF AQF AQF AQF AQF AQF AQF AQF AQF AQF AQF AQF AQF AQF AQF AQF AQF AQF AQF AQF AQF AQF AQF AQF AQF AQF AQF AQF AQF AQF AQF F F O@F O@F O@F O@F O@F O@F O@F O@F O@F O@F O@F O@F O@F O@F O@F O@F O@F O@F O@F O@F O@F O@F O@F O@F O@F O@F O@F O@F O@F O@F O@F O@F O@F O@F O@F O@F O@F O@F O@F O@F O@F O@F O@F O@F O@F O@F O@F O@F O@F O@F O@F O@F O@F O@F O@F O@F O@F O@F O@F O@F O@F O@F O@F O@F O@F O@F O@F O@F O@F O@F O@F O@F O@F O@F O@F O@F O@F O@F O@F O@F O@F O@F O@F O@F O@F O@F O@F O@F O@F O@F O@F O@F O@F O@F O@F O@F O@F O@F O@F O@F O@F O@F O@F O@F O@F O@F O@F O@F O@F O@F O@F O@F O@F O@F O@F O@F O@F O@F O@F O@F O@F O@F O@F O@F O@F O@F O@F O@F O@F O@F O@F O@F O@F O@F O@F O@F O@F O@F O@F O@F O@F O@F O@F O@F O@F O@F O@F O@F O@F O@F O@F O@F O@F O@F O@F O@F O@F O@F O@F O@F O@F O@F O@F O@F O@F O@F O@F O@F O@F O@F O@F O@F O@F O@F O@F O@F O@F O@F O@F O@F O@F O@F O@F O@F O@F O@F F F M>F M>F M>F M>F M>F M>F M>F M>F M>F M>F M>F M>F M>F M>F M>F M>F M>F M>F M>F M>F M>F M>F M>F M>F M>F M>F M>F M>F M>F M>F M>F M>F M>F M>F M>F M>F M>F M>F M>F M>F M>F M>F M>F M>F M>F M>F M>F M>F M>F M>F M>F M>F M>F M>F M>F M>F M>F M>F M>F M>F M>F M>F M>F M>F M>F M>F M>F M>F M>F M>F M>F M>F M>F M>F M>F M>F M>F M>F M>F M>F M>F M>F M>F M>F M>F M>F M>F M>F M>F M>F M>F M>F M>F M>F M>F M>F M>F M>F M>F M>F M>F M>F M>F M>F M>F M>F M>F M>F M>F M>F M>F M>F M>F M>F M>F M>F M>F M>F M>F M>F M>F M>F M>F M>F M>F M>F M>F M>F M>F M>F M>F M>F M>F M>F M>F M>F M>F M>F M>F M>F M>F M>F M>F M>F M>F M>F M>F M>F M>F M>F M>F M>F M>F M>F M>F M>F M>F M>F M>F M>F M>F M>F M>F M>F M>F M>F M>F M>F M>F M>F M>F M>F M>F M>F M>F M>F M>F M>F M>F M>F M>F M>F M>F M>F M>F M>F F F @FO @FO @FO @FO @FO @FO @FO @FO @FO @FO @FO @FO @FO @FO @FO @FO @FO @FO @FO @FO @FO @FO @FO @FO @FO @FO @FO @FO @FO @FO @FO @FO @FO @FO @FO @FO @FO @FO @FO @FO @FO @FO @FO @FO @FO @FO @FO @FO @FO @FO @FO @FO @FO @FO @FO @FO @FO @FO @FO @FO @FO @FO @FO @FO @FO @FO @FO @FO @FO @FO @FO @FO @FO @FO @FO @FO @FO @FO @FO @FO @FO @FO @FO @FO @FO @FO @FO @FO @FO @FO @FO @FO @FO @FO @FO @FO @FO @FO @FO @FO @FO @FO @FO @FO @FO @FO @FO @FO @FO @FO @FO @FO @FO @FO @FO @FO @FO @FO @FO @FO @FO @FO @FO @FO @FO @FO @FO @FO @FO @FO @FO @FO @FO @FO @FO @FO @FO @FO @FO @FO @FO @FO @FO @FO @FO @FO @FO @FO @FO @FO @FO @FO @FO @FO @FO @FO @FO @FO @FO @FO @FO @FO @FO @FO @FO @FO @FO @FO @FO @FO @FO @FO @FO @FO @FO @FO @FO @FO @FO @FO @FO @FO @FO @FO @FO @FO FO FO =FO =FO =FO =FO =FO =FO =FO =FO =FO =FO =FO =FO =FO =FO =FO =FO =FO =FO =FO =FO =FO =FO =FO =FO =FO =FO =FO =FO =FO =FO =FO =FO =FO =FO =FO =FO =FO =FO =FO =FO =FO =FO =FO =FO =FO =FO =FO =FO =FO =FO =FO =FO =FO =FO =FO =FO =FO =FO =FO =FO =FO =FO =FO =FO =FO =FO =FO =FO =FO =FO =FO =FO =FO =FO =FO =FO =FO =FO =FO =FO =FO =FO =FO =FO =FO =FO =FO =FO =FO =FO =FO =FO =FO =FO =FO =FO =FO =FO =FO =FO =FO =FO =FO =FO =FO =FO =FO =FO =FO =FO =FO =FO =FO =FO =FO =FO =FO =FO =FO =FO =FO =FO =FO =FO =FO =FO =FO =FO =FO =FO =FO =FO =FO =FO =FO =FO =FO =FO =FO =FO =FO =FO =FO =FO =FO =FO =FO =FO =FO =FO =FO =FO =FO =FO =FO =FO =FO =FO =FO =FO =FO =FO =FO =FO =FO =FO =FO =FO =FO =FO =FO =FO =FO =FO =FO =FO =FO =FO =FO =FO =FO =FO =FO =FO =FO =FO O O E>O E>O E>O E>O E>O E>O E>O E>O E>O E>O E>O E>O E>O E>O E>O E>O E>O E>O E>O E>O E>O E>O E>O E>O E>O E>O E>O E>O E>O E>O E>O E>O E>O E>O E>O E>O E>O E>O E>O E>O E>O E>O E>O E>O E>O E>O E>O E>O E>O E>O E>O E>O E>O E>O E>O E>O E>O E>O E>O E>O E>O E>O E>O E>O E>O E>O E>O E>O E>O E>O E>O E>O E>O E>O E>O E>O E>O E>O E>O E>O E>O E>O E>O E>O E>O E>O E>O E>O E>O E>O E>O E>O E>O E>O E>O E>O E>O E>O E>O E>O E>O E>O E>O E>O E>O E>O E>O E>O E>O E>O E>O E>O E>O E>O E>O E>O E>O E>O E>O E>O E>O E>O E>O E>O E>O E>O E>O E>O E>O E>O E>O E>O E>O E>O E>O E>O E>O E>O E>O E>O E>O E>O E>O E>O E>O E>O E>O E>O E>O E>O E>O E>O E>O E>O E>O E>O E>O E>O E>O E>O E>O E>O E>O E>O E>O E>O E>O E>O E>O E>O E>O E>O E>O E>O E>O E>O E>O E>O E>O E>O E>O E>O E>O E>O E>O E>O O O C@O C@O C@O C@O C@O C@O C@O C@O C@O C@O C@O C@O C@O C@O C@O C@O C@O C@O C@O C@O C@O C@O C@O C@O C@O C@O C@O C@O C@O C@O C@O C@O C@O C@O C@O C@O C@O C@O C@O C@O C@O C@O C@O C@O C@O C@O C@O C@O C@O C@O C@O C@O C@O C@O C@O C@O C@O C@O C@O C@O C@O C@O C@O C@O C@O C@O C@O C@O C@O C@O C@O C@O C@O C@O C@O C@O C@O C@O C@O C@O C@O C@O C@O C@O C@O C@O C@O C@O C@O C@O C@O C@O C@O C@O C@O C@O C@O C@O C@O C@O C@O C@O C@O C@O C@O C@O C@O C@O C@O C@O C@O C@O C@O C@O C@O C@O C@O C@O C@O C@O C@O C@O C@O C@O C@O C@O C@O C@O C@O C@O C@O C@O C@O C@O C@O C@O C@O C@O C@O C@O C@O C@O C@O C@O C@O C@O C@O C@O C@O C@O C@O C@O C@O C@O C@O C@O C@O C@O C@O C@O C@O C@O C@O C@O C@O C@O C@O C@O C@O C@O C@O C@O C@O C@O C@O C@O C@O C@O C@O C@O C@O C@O C@O C@O C@O C@O O O I9O I9O I9O I9O I9O I9O I9O I9O I9O I9O I9O I9O I9O I9O I9O I9O I9O I9O I9O I9O I9O I9O I9O I9O I9O I9O I9O I9O I9O I9O I9O I9O I9O I9O I9O I9O I9O I9O I9O I9O I9O I9O I9O I9O I9O I9O I9O I9O I9O I9O I9O I9O I9O I9O I9O I9O I9O I9O I9O I9O I9O I9O I9O I9O I9O I9O I9O I9O I9O I9O I9O I9O I9O I9O I9O I9O I9O I9O I9O I9O I9O I9O I9O I9O I9O I9O I9O I9O I9O I9O I9O I9O I9O I9O I9O I9O I9O I9O I9O I9O I9O I9O I9O I9O I9O I9O I9O I9O I9O I9O I9O I9O I9O I9O I9O I9O I9O I9O I9O I9O I9O I9O I9O I9O I9O I9O I9O I9O I9O I9O I9O I9O I9O I9O I9O I9O I9O I9O I9O I9O I9O I9O I9O I9O I9O I9O I9O I9O I9O I9O I9O I9O I9O I9O I9O I9O I9O I9O I9O I9O I9O I9O I9O I9O I9O I9O I9O I9O I9O I9O I9O I9O I9O I9O I9O I9O I9O I9O I9O I9O I9O I9O I9O I9O I9O I9O O O J;O J;O J;O J;O J;O J;O J;O J;O J;O J;O J;O J;O J;O J;O J;O J;O J;O J;O J;O J;O J;O J;O J;O J;O J;O J;O J;O J;O J;O J;O J;O J;O J;O J;O J;O J;O J;O J;O J;O J;O J;O J;O J;O J;O J;O J;O J;O J;O J;O J;O J;O J;O J;O J;O J;O J;O J;O J;O J;O J;O J;O J;O J;O J;O J;O J;O J;O J;O J;O J;O J;O J;O J;O J;O J;O J;O J;O J;O J;O J;O J;O J;O J;O J;O J;O J;O J;O J;O J;O J;O J;O J;O J;O J;O J;O J;O J;O J;O J;O J;O J;O J;O J;O J;O J;O J;O J;O J;O J;O J;O J;O J;O J;O J;O J;O J;O J;O J;O J;O J;O J;O J;O J;O J;O J;O J;O J;O J;O J;O J;O J;O J;O J;O J;O J;O J;O J;O J;O J;O J;O J;O J;O J;O J;O J;O J;O J;O J;O J;O J;O J;O J;O J;O J;O J;O J;O J;O J;O J;O J;O J;O J;O J;O J;O J;O J;O J;O J;O J;O J;O J;O J;O J;O J;O J;O J;O J;O J;O J;O J;O J;O J;O J;O J;O J;O J;O O O L=O L=O L=O L=O L=O L=O L=O L=O L=O L=O L=O L=O L=O L=O L=O L=O L=O L=O L=O L=O L=O L=O L=O L=O L=O L=O L=O L=O L=O L=O L=O L=O L=O L=O L=O L=O L=O L=O L=O L=O L=O L=O L=O L=O L=O L=O L=O L=O L=O L=O L=O L=O L=O L=O L=O L=O L=O L=O L=O L=O L=O L=O L=O L=O L=O L=O L=O L=O L=O L=O L=O L=O L=O L=O L=O L=O L=O L=O L=O L=O L=O L=O L=O L=O L=O L=O L=O L=O L=O L=O L=O L=O L=O L=O L=O L=O L=O L=O L=O L=O L=O L=O L=O L=O L=O L=O L=O L=O L=O L=O L=O L=O L=O L=O L=O L=O L=O L=O L=O L=O L=O L=O L=O L=O L=O L=O L=O L=O L=O L=O L=O L=O L=O L=O L=O L=O L=O L=O L=O L=O L=O L=O L=O L=O L=O L=O L=O L=O L=O L=O L=O L=O L=O L=O L=O L=O L=O L=O L=O L=O L=O L=O L=O L=O L=O L=O L=O L=O L=O L=O L=O L=O L=O L=O L=O L=O L=O L=O L=O L=O L=O L=O L=O L=O L=O L=O O O F7O F7O F7O F7O F7O F7O F7O F7O F7O F7O F7O F7O F7O F7O F7O F7O F7O F7O F7O F7O F7O F7O F7O F7O F7O F7O F7O F7O F7O F7O F7O F7O F7O F7O F7O F7O F7O F7O F7O F7O F7O F7O F7O F7O F7O F7O F7O F7O F7O F7O F7O F7O F7O F7O F7O F7O F7O F7O F7O F7O F7O F7O F7O F7O F7O F7O F7O F7O F7O F7O F7O F7O F7O F7O F7O F7O F7O F7O F7O F7O F7O F7O F7O F7O F7O F7O F7O F7O F7O F7O F7O F7O F7O F7O F7O F7O F7O F7O F7O F7O F7O F7O F7O F7O F7O F7O F7O F7O F7O F7O F7O F7O F7O F7O F7O F7O F7O F7O F7O F7O F7O F7O F7O F7O F7O F7O F7O F7O F7O F7O F7O F7O F7O F7O F7O F7O F7O F7O F7O F7O F7O F7O F7O F7O F7O F7O F7O F7O F7O F7O F7O F7O F7O F7O F7O F7O F7O F7O F7O F7O F7O F7O F7O F7O F7O F7O F7O F7O F7O F7O F7O F7O F7O F7O F7O F7O F7O F7O F7O F7O F7O F7O F7O F7O F7O F7O O O OE5 OE5 OE5 OE5 OE5 OE5 OE5 OE5 OE5 OE5 OE5 OE5 OE5 OE5 OE5 OE5 OE5 OE5 OE5 OE5 OE5 OE5 OE5 OE5 OE5 OE5 OE5 OE5 OE5 OE5 OE5 OE5 OE5 OE5 OE5 OE5 OE5 OE5 OE5 OE5 OE5 OE5 OE5 OE5 OE5 OE5 OE5 OE5 OE5 OE5 OE5 OE5 OE5 OE5 OE5 OE5 OE5 OE5 OE5 OE5 OE5 OE5 OE5 OE5 OE5 OE5 OE5 OE5 OE5 OE5 OE5 OE5 OE5 OE5 OE5 OE5 OE5 OE5 OE5 OE5 OE5 OE5 OE5 OE5 OE5 OE5 OE5 OE5 OE5 OE5 OE5 OE5 OE5 OE5 OE5 OE5 OE5 OE5 OE5 OE5 OE5 OE5 OE5 OE5 OE5 OE5 OE5 OE5 OE5 OE5 OE5 OE5 OE5 OE5 OE5 OE5 OE5 OE5 OE5 OE5 OE5 OE5 OE5 OE5 OE5 OE5 OE5 OE5 OE5 OE5 OE5 OE5 OE5 OE5 OE5 OE5 OE5 OE5 OE5 OE5 OE5 OE5 OE5 OE5 OE5 OE5 OE5 OE5 OE5 OE5 OE5 OE5 OE5 OE5 OE5 OE5 OE5 OE5 OE5 OE5 OE5 OE5 OE5 OE5 OE5 OE5 OE5 OE5 OE5 OE5 OE5 OE5 OE5 OE5 OE5 OE5 OE5 OE5 OE5 OE5 OE5 OE5 OE5 OE5 OE5 OE5 OE5 OE5 9OE5 9OE5 9OE5 9OE5 9OE5 9OE5 9OE5 9OE5 9OE5 9OE5 9OE5 9OE5 9OE5 9OE5 9OE5 9OE5 9OE5 9OE5 9OE5 9OE5 9OE5 9OE5 9OE5 9OE5 9OE5 9OE5 9OE5 9OE5 9OE5 9OE5 9OE5 9OE5 9OE5 9OE5 9OE5 9OE5 9OE5 9OE5 9OE5 9OE5 9OE5 9OE5 9OE5 9OE5 9OE5 9OE5 9OE5 9OE5 9OE5 9OE5 9OE5 9OE5 9OE5 9OE5 9OE5 9OE5 9OE5 9OE5 9OE5 9OE5 9OE5 9OE5 9OE5 9OE5 9OE5 9OE5 9OE5 9OE5 9OE5 9OE5 9OE5 9OE5 9OE5 9OE5 9OE5 9OE5 9OE5 9OE5 9OE5 9OE5 9OE5 9OE5 9OE5 9OE5 9OE5 9OE5 9OE5 9OE5 9OE5 9OE5 9OE5 9OE5 9OE5 9OE5 9OE5 9OE5 9OE5 9OE5 9OE5 9OE5 9OE5 9OE5 9OE5 9OE5 9OE5 9OE5 9OE5 9OE5 9OE5 9OE5 9OE5 9OE5 9OE5 9OE5 9OE5 9OE5 9OE5 9OE5 9OE5 9OE5 9OE5 9OE5 9OE5 9OE5 9OE5 9OE5 9OE5 9OE5 9OE5 9OE5 9OE5 9OE5 9OE5 9OE5 9OE5 9OE5 9OE5 9OE5 9OE5 9OE5 9OE5 9OE5 9OE5 9OE5 9OE5 9OE5 9OE5 9OE5 9OE5 9OE5 9OE5 9OE5 9OE5 9OE5 9OE5 9OE5 9OE5 9OE5 9OE5 9OE5 9OE5 9OE5 9OE5 9OE5 9OE5 9OE5 9OE5 9OE5 9OE5 9OE5 9OE5 9OE5 9OE5 9OE5 9OE5 9OE5 9OE5 9OE5 9OE5 9OE5 9OE5 9OE5 9OE5 9OE5 9OE5 9OE5 OE5 O;E5 O;E5 O;E5 O;E5 O;E5 O;E5 O;E5 O;E5 O;E5 O;E5 O;E5 O;E5 O;E5 O;E5 O;E5 O;E5 O;E5 O;E5 O;E5 O;E5 O;E5 O;E5 O;E5 O;E5 O;E5 O;E5 O;E5 O;E5 O;E5 O;E5 O;E5 O;E5 O;E5 O;E5 O;E5 O;E5 O;E5 O;E5 O;E5 O;E5 O;E5 O;E5 O;E5 O;E5 O;E5 O;E5 O;E5 O;E5 O;E5 O;E5 O;E5 O;E5 O;E5 O;E5 O;E5 O;E5 O;E5 O;E5 O;E5 O;E5 O;E5 O;E5 O;E5 O;E5 O;E5 O;E5 O;E5 O;E5 O;E5 O;E5 O;E5 O;E5 O;E5 O;E5 O;E5 O;E5 O;E5 O;E5 O;E5 O;E5 O;E5 O;E5 O;E5 O;E5 O;E5 O;E5 O;E5 O;E5 O;E5 ;E5 ;E5 ;E5 ;E5 ;E5 ;E5 ;E5 ;E5 ;E5 ;E5 ;E5 ;E5 ;E5 ;E5 ;E5 ;E5 ;E5 ;E5 ;E5 ;E5 ;E5 ;E5 ;E5 ;E5 ;E5 ;E5 ;E5 ;E5 ;E5 ;E5 ;E5 ;E5 ;E5 ;E5 ;E5 ;E5 ;E5 ;E5 ;E5 ;E5 ;E5 ;E5 ;E5 ;E5 ;E5 ;E5 ;E5 ;E5 ;E5 ;E5 ;E5 ;E5 ;E5 ;E5 ;E5 ;E5 ;E5 ;E5 ;E5 ;E5 ;E5 ;E5 ;E5 ;E5 ;E5 ;E5 ;E5 ;E5 ;E5 ;E5 ;E5 ;E5 ;E5 ;E5 ;E5 ;E5 ;E5 ;E5 ;E5 ;E5 ;E5 ;E5 ;E5 ;E5 ;E5 ;E5 ;E5 ;E5 ;E5 ;E5 ;E5 ;E5 ;E5 ;E5 ;E5 ;E5 ;E5 E5 E5 Q=E5 Q=E5 Q=E5 Q=E5 Q=E5 Q=E5 Q=E5 Q=E5 Q=E5 Q=E5 Q=E5 Q=E5 Q=E5 Q=E5 Q=E5 Q=E5 Q=E5 Q=E5 Q=E5 Q=E5 Q=E5 Q=E5 Q=E5 Q=E5 Q=E5 Q=E5 Q=E5 Q=E5 Q=E5 Q=E5 Q=E5 Q=E5 Q=E5 Q=E5 Q=E5 Q=E5 Q=E5 Q=E5 Q=E5 Q=E5 Q=E5 Q=E5 Q=E5 Q=E5 Q=E5 Q=E5 Q=E5 Q=E5 Q=E5 Q=E5 Q=E5 Q=E5 Q=E5 Q=E5 Q=E5 Q=E5 Q=E5 Q=E5 Q=E5 Q=E5 Q=E5 Q=E5 Q=E5 Q=E5 Q=E5 Q=E5 Q=E5 Q=E5 Q=E5 Q=E5 Q=E5 Q=E5 Q=E5 Q=E5 Q=E5 Q=E5 Q=E5 Q=E5 Q=E5 Q=E5 Q=E5 Q=E5 Q=E5 Q=E5 Q=E5 Q=E5 Q=E5 Q=E5 Q=E5 Q=E5 Q=E5 Q=E5 Q=E5 Q=E5 Q=E5 Q=E5 Q=E5 Q=E5 Q=E5 Q=E5 Q=E5 Q=E5 Q=E5 Q=E5 Q=E5 Q=E5 Q=E5 Q=E5 Q=E5 Q=E5 Q=E5 Q=E5 Q=E5 Q=E5 Q=E5 Q=E5 Q=E5 Q=E5 Q=E5 Q=E5 Q=E5 Q=E5 Q=E5 Q=E5 Q=E5 Q=E5 Q=E5 Q=E5 Q=E5 Q=E5 Q=E5 Q=E5 Q=E5 Q=E5 Q=E5 Q=E5 Q=E5 Q=E5 Q=E5 Q=E5 Q=E5 Q=E5 Q=E5 Q=E5 Q=E5 Q=E5 Q=E5 Q=E5 Q=E5 Q=E5 Q=E5 Q=E5 Q=E5 Q=E5 Q=E5 Q=E5 Q=E5 Q=E5 Q=E5 Q=E5 Q=E5 Q=E5 Q=E5 Q=E5 Q=E5 Q=E5 Q=E5 Q=E5 Q=E5 Q=E5 Q=E5 Q=E5 Q=E5 Q=E5 Q=E5 Q=E5 Q=E5 Q=E5 Q=E5 Q=E5 Q=E5 Q=E5 Q=E5 Q=E5 Q=E5 Q=E5 E5 E5 OE5> OE5> OE5> OE5> OE5> OE5> OE5> OE5> OE5> OE5> OE5> OE5> OE5> OE5> OE5> OE5> OE5> OE5> OE5> OE5> OE5> OE5> OE5> OE5> OE5> OE5> OE5> OE5> OE5> OE5> OE5> OE5> OE5> OE5> OE5> OE5> OE5> OE5> OE5> OE5> OE5> OE5> OE5> OE5> OE5> OE5> OE5> OE5> OE5> OE5> OE5> OE5> OE5> OE5> OE5> OE5> OE5> OE5> OE5> OE5> OE5> OE5> OE5> OE5> OE5> OE5> OE5> OE5> OE5> OE5> OE5> OE5> OE5> OE5> OE5> OE5> OE5> OE5> OE5> OE5> OE5> OE5> OE5> OE5> OE5> OE5> OE5> OE5> OE5> OE5> OE5> OE5> OE5> OE5> OE5> OE5> OE5> OE5> OE5> OE5> OE5> OE5> OE5> OE5> OE5> OE5> OE5> OE5> OE5> OE5> OE5> OE5> OE5> OE5> OE5> OE5> OE5> OE5> OE5> OE5> OE5> OE5> OE5> OE5> OE5> OE5> OE5> OE5> OE5> OE5> OE5> OE5> OE5> OE5> OE5> OE5> OE5> OE5> OE5> OE5> OE5> OE5> OE5> OE5> OE5> OE5> OE5> OE5> OE5> OE5> OE5> OE5> OE5> OE5> OE5> OE5> OE5> OE5> OE5> OE5> OE5> OE5> OE5> OE5> OE5> OE5> OE5> OE5> OE5> OE5> E5> E5> E5> E5> ME5> ME5> ME5> ME5> ME5> ME5> ME5> ME5> ME5> ME5> ME5> ME5> ME5> ME5> ME5> ME5> ME5> ME5> ME5> ME5> ME5> ME5> ME5> ME5> ME5> ME5> ME5> ME5> ME5> ME5> ME5> ME5> ME5> ME5> ME5> ME5> ME5> ME5> ME5> ME5> ME5> ME5> ME5> ME5> ME5> ME5> ME5> ME5> ME5> ME5> ME5> ME5> ME5> ME5> ME5> ME5> ME5> ME5> ME5> ME5> ME5> ME5> ME5> ME5> ME5> ME5> ME5> ME5> ME5> ME5> ME5> ME5> ME5> ME5> MOE5> MOE5> MOE5> MOE5> MOE5> MOE5> MOE5> MOE5> MOE5> MOE5> MOE5> MOE5> MOE5> MOE5> MOE5> MOE5> MOE5> MOE5> OE5> OE5> OE5> OE5> OE5> OE5> OE5> OE5> OE5> OE5> OE5> OE5> OE5> OE5> OE5> OE5> OE5> OE5> OE5> OE5> OE5> OE5> OE5> OE5> OE5> OE5> OE5> OE5> OE5> OE5> OE5> OE5> OE5> OE5> OE5> OE5> OE5> OE5> OE5> OE5> OE5> OE5> OE5> OE5> OE5> OE5> OE5> OE5> OE5> OE5> OE5> OE5> OE5> OE5> OE5> OE5> OE5M> OE5M> OE5M> OE5M> OE5M> OE5M> OE5M> OE5M> OE5M> OE5M> OE5M> OE5M> OE5M> OE5M> OE5M> OE5M> OE5M> OE5M> E5M> E5M> E5M> E5M> E5M> E5M> E5M> E5M> E5M> E5M> E5M> E5M> E5M> E5M> E5M> E5M> E5M> E5M> E5M> E5M> E5M> E5M> E5M> E5M> E5M> E5M> E5M> E5M> E5M> E5M> E5M> E5M> E5M> E5M> M> M> M7> M7> M7> M7> M7> M7> M7> M7> M7> M7> M7> M7> M7> M7> M7> M7> M7> M7> M7> M7> MO7> MO7> MO7> MO7> MO7> MO7> MO7> MO7> MO7> MO7> MO7> MO7> MO7> MO7> MO7> MO7> MO7> MO7> O7> O7> O7> O7> O7> O7> O7> O7> O7> O7> O7> O7> O7> O7> O7> O7> O7> O7> O7> O7> O7> O7> O7> O7> O7> O7> O7> O7> O7> O7> O7> O7> O7> O7> O7> O7> O7> O7> O7> O7> O7> O7> O7> O7> O7> O7> O7> O7> O7> O7> O7> O7> O7> O7> O7> O7> OM7> OM7> OM7> OM7> OM7> OM7> OM7> OM7> OM7> OM7> OM7> OM7> OM7> OM7> OM7> OM7> OM7> OM7> M7> M7> M7> M7> M7> M7> M7> M7> M7> M7> M7> M7> M7> M7> M7> M7> M7> M7> M7> M7> M7> M7> M7> M7> M7> M7> M7> M7> M7> M7> M7> M7> M7> M7> M7> M7> M7> M7> M7> M7> M7> M7> M7> M7> M7> M7> M7> M7> M7> M7> M7> M7> M7> M7> M7> M7> M7> M7> M7> M7> M7> M7> M7> M7> M7> M7> M7> M7> M7> M7> M7> M7> M7> M7> 7> 7> L7> L7> L7> L7> L7> L7> L7> L7> L7> L7> L7> L7> L7> L7> L7> L7> L7> L7> L7> L7> L7> L7> L7> L7> L7> L7> L7> L7> L7> L7> L7> L7> L7> L7> L7> L7> L7> L7> L7> L7> L7> L7> L7> L7> L7> L7> L7> L7> L7> L7> L7> L7> L7> L7> L7> L7> L7> L7> L7> L7> L7> L7> L7> L7> L7> L7> L7> L7> L7> L7> L7> L7> L7> L7> L7> L7> L7> L7> L7> L7> L7> L7> L7> L7> L7> L7> L7> L7> L7> L7> L7> L7> L7> L7> L7> L7> L7> L7> L7> L7> L7> L7> L7> L7> L7> L7> L7> L7> L7> L7> L7> L7> L7> L7> L7> L7> L7> L7> L7> L7> L7> L7> L7> L7> L7> L7> L7> L7> L7> L7> L7> L7> L7> L7> L7> L7> L7> L7> L7> L7> L7> L7> L7> L7> L7> L7> L7> L7> L7> L7> L7> L7> L7> L7> L7> L7> L7> L7> L7> L7> L7> L7> L7> L7> L7> L7> L7> L7> L7> L7> L7> L7> L7> L7> L7> L7> L7> L7> L7> L7> L7> L7> L7> L7> L7> L7> >    MI9 MI9 MI9 MI9 MI9 MI9 MI9 MI9 MI9 MI9 MI9 MI9 MI9 MI9 MI9 MI9 MI9 MI9 MI9 MI9 MI9 MI9 MI9 MI9 MI9 MI9 MI9 MI9 MI9 MI9 MI9 MI9 MI9 MI9 MI9 MI9 MI9 MI9 MI9 MI9 MI9 MI9 MI9 MI9 MI9 MI9 MI9 MI9 MI9 MI9 MI9 MI9 MI9 MI9 MI9 MI9 MI9 MI9 MI9 MI9 MI9 MI9 MI9 MI9 MI9 MI9 MI9 MI9 MI9 MI9 MI9 MI9 MI9 MI9 MI9 MI9 MI9 MI9 MI9 MI9 MI9 MI9 MI9 MI9 MI9 MI9 MI9 MI9 MI9 MI9 MI9 MI9 MI9 MI9 MI9 MI9 MI9 MI9 MI9 MI9 MI9 MI9 MI9 MI9 MI9 MI9 MI9 MI9 MI9 MI9 MI9 MI9 MI9 MI9 MI9 MI9 MI9 MI9 MI9 MI9 MI9 MI9 MI9 MI9 MI9 MI9 MI9 MI9 MI9 MI9 MI9 MI9 MI9 MI9 MI9 MI9 MI9 MI9 MI9 MI9 MI9 MI9 MI9 MI9 MI9 MI9 MI9 MI9 MI9 MI9 I9 I9 I9 I9 LI9 LI9 LI9 LI9 LI9 LI9 LI9 LI9 LI9 LI9 LI9 LI9 LI9 LI9 LI9 LI9 LI9 LI9 LI9 LI9 LI9 LI9 LI9 LI9 LI9 LI9 LI9 LI9 LI9 LI9 LI9 LI9 LI9 LI9 LI9 LI9 LI9 LI9 LI9 LI9 LI9 LI9 LI9 LI9 LI9 LI9 LI9 LI9 LI9 LI9 LI9 LI9 LI9 LI9 LI9 LI9 LI9 LI9 LI9 LI9 LI9 LI9 LI9 LI9 LI9 LI9 LI9 LI9 LI9 LI9 LI9 LI9 LI9 LI9 LI9 LI9 LI9 LI9 LI9 LMI9 LMI9 LMI9 LMI9 LMI9 LMI9 LMI9 LMI9 LMI9 LMI9 LMI9 LMI9 LMI9 MI9 MI9 MI9 MI9 MI9 MI9 MI9 MI9 MI9 MI9 MI9 MI9 MI9 MI9 MI9 MI9 MI9 MI9 MI9 MI9 MI9 MI9 MI9 MI9 MI9 MI9 MI9 MI9 MI9 MI9 MI9 MI9 MI9 MI9 MI9 MI9 MI9 MI9 MI9 MI9 MI9 MI9 MI9 MI9 MI9 MI9 MI9 MI9 MI9 MI9 MI9 MI9 MI9 MI9 MI9 MI9 MI9 MI9 MI9 MI9 MI9 MI9 MI9 MI9 MI9 MLI9 MLI9 MLI9 MLI9 MLI9 MLI9 MLI9 MLI9 MLI9 MLI9 MLI9 MLI9 MLI9 MLI9 LI9 LI9 LI9 LI9 LI9 LI9 LI9 LI9 LI9 LI9 LI9 LI9 LI9 LI9 LI9 LI9 LI9 LI9 LI9 LI9 LI9 LI9 LI9 LI9 LI9 LI9 LI9 LI9 LI9 LI9 LI9 LI9 LI9 LI9 LI9 LI9 LI9 LI9 LI9 LI9 LI9 LI9 LI9 LI9 LI9 LI9 LI9 LI9 LI9 LI9 LI-9 LI-9 LI-9 LI-9 LI-9 LI-9 LI-9 LI-9 LI-9 LI-9 LI-9 LI-9 LI-9 LI-9 LI-9 LMI-9 LMI-9 LMI-9 LMI-9 LMI-9 LMI-9 LMI-9 LMI-9 LMI-9 LMI-9 LMI-9 LMI-9 LMI-9 MI-9 MI-9 MI-9 MI-9 MI-9 MI-9 MI-9 MI-9 MI-9 MI-9 MI-9 MI-9 MI-9 MI-9 MI-9 MI-9 MI-9 MI-9 MI-9 MI-9 MI-9 MI-9 MI-9 MI-9 MI-9 MI-9 MI-9 MI-9 MI-9 MI-9 MI-9 MI-9 MI-9 MI-9 MI-9 MI-9 MI-9 MI-9 MI-9 MI-9 MI-9 MI-9 MI-9 MI-9 MI-9 MI-9 MI-9 MI-9 MI-9 MI-9 MI-9 MI-9 MI-9 MI-9 MI-9 MI-9 MI-9 MI-9 MI-9 MI-9 MI-9 MI-9 MI-9 MI-9 MI-9 MI-9 MLI-9 MLI-9 MLI-9 MLI-9 MLI-9 MLI-9 MLI-9 MLI-9 MLI-9 MLI-9 MLI-9 MLI-9 MLI-9 LI-9 LI-9 LI-9 LI-9 LI-9 LI-9 LI-9 LI-9 LI-9 LI-9 LI-9 LI-9 LI-9 LI-9 LI-9 LI-9 LI-9 LI-9 LI-9 LI-9 LI-9 LI-9 LI-9 LI-9 LI-9 LI-9 LI-9 LI-9 LI-9 LI-9 LI-9 LI-9 LI-9 LI-9 LI-9 LI-9 LI-9 LI-9 LI-9 LI-9 LI-9 LI-9 LI-9 LI-9 LI-9 LI-9 LI-9 LI-9 LI-9 LI-9 LI-9 LI-9 LI-9 LI-9 LI-9 LI-9 LI-9 LI-9 LI-9 LI-9 LI-9 LI-9 LI-9 LI-9 LI-9 LI-9 LI-9 LI-9 LI-9 LI-9 LI-9 LI-9 LI-9 LI-9 LI-9 LI-9 LI-9 LI-9 LI-9 I-9 I-9 -9 -9 -J9 -J9 -J9 -J9 -J9 -J9 -J9 -J9 -J9 -J9 -J9 -J9 -J9 -J9 -J9 -J9 -J9 -J9 -J9 -J9 -J9 -J9 -J9 -J9 -J9 -J9 -J9 -J9 -J9 -J9 -J9 -J9 -J9 -J9 -J9 -J9 -J9 -J9 -J9 -J9 -J9 -J9 -J9 -J9 -J9 -J9 -J9 -J9 -J9 -J9 -J9 -J9 -J9 -J9 -J9 -J9 -J9 -J9 -J9 -J9 -J9 -J9 -J9 -J9 -J9 -J9 -J9 -J9 -J9 -J9 -J9 -J9 -J9 -J9 -J9 -J9 -J9 -J9 -J9 -J9 -J9 -J9 -J9 -J9 -J9 -J9 -J9 -J9 -J9 -J9 -J9 -J9 -J9 -J9 -J9 -J9 -J9 -J9 -J9 -J9 -J9 -J9 -J9 -J9 -J9 -J9 -J9 -J9 -J9 -J9 -J9 -J9 -J9 -J9 -J9 -J9 -J9 -J9 -J9 -J9 -J9 -J9 -J9 -J9 -J9 -J9 -J9 -J9 -J9 -J9 -J9 -J9 -J9 -J9 -J9 -J9 -J9 -J9 -J9 -J9 -J9 -J9 -J9 -J9 -J9 -J9 -J9 -J9 -J9 -J9 -J9 -J9 -J9 -J9 -J9 -J9 -J9 -J9 -J9 -J9 -J9 -J9 -J9 -J9 -J9 -J9 -J9 -J9 -J9 -J9 -J9 -J9 -J9 -J9 -J9 -J9 -J9 -J9 -J9 -J9 -J9 -J9 -J9 -J9 -J9 J9 9 9   J2 J2 J2 J2 J2 J2 J2 J2 J2 J2 J2 J2 J2 J2 J2 J2 J2 J2 J2 J2 J2 J2 J2 J2 J2 J2 J2 J2 J2 J2 J2 J2 J2 J2 J2 J2 J2 J2 J2 J2 J2 J2 J2 J2 J2 J2 J2 J2 J2 J2 J2 J2 J2 J2 J2 J2 J2 J2 J2 J2 J2 J2 J2 J2 J2 J2 J2 J2 J2 J2 J2 J2 J2 J2 J2 J2 J2 J2 J2 J2 J2 J2 J2 J2 J2 J2 J2 J2 J2 J2 J2 J2 J2 J2 J2 J2 J2 J2 J2 J2 J2 J2 J2 J2 J2 J2 J2 J2 J2 J2 J2 J2 J2 J2 J2 J2 J2 J2 J2 J2 J2 J2 J2 J2 J2 J2 J2 J2 J2 J2 J2 J2 J2 J2 J2 J2 J2 J2 J2 J2 J2 J2 J2 J2 J2 J2 J2 J2 J2 J2 J2 J2 J2 J2 J2 J2 J2 J2 J2 J2 J2 J2 J2 J2 J2 J2 J2 J2 J2 J2 J2 J2 J2 J2 J2 J2 J2 J2 J2 J2 J2 J2 J2 J2 J2 J2 J2 J2 J2 J2 J2 J2 J2 J2 J2 J2 J2 J2 J2 J2 J2 J2 J2 J2 J2 J2 J2 J2 J2 J2 J2 J2 J2 J2 J2 J2 J2 J2 J2 J2 J2 J2 J2 J2 J2 J2 J2 J2 J2 J2 J2 J2 J2 J2 J2 J2 J2 J2 J2 J2 J2 J2 J2 J2 J2 J2 J2 J2 J2 J2 J2 J2 J2 J2 J2 J2 J2 J2 J2 J2 J2 J2 J2 J2 J2 J2 J2 J2 J2 J2 J2 J2 J2 J2 J2 J2 J2 J2 J2 J2 J2 J2 J2 J2 J2 J2 J2 J2 J2 J2 J2 J2 J2 J2 J2 J2 J2 J2 J2 J2 J2 J2 J2 J2 J2 J2 J2 J2 J2 J2 J2 J2 J2 J2 J2 J2 J2 J2 J2 J2 J2 J2 J2 J2 J2 J2 J2 J2 J2 J2 J2 J2 J2 J2 J2 J2 J2 J2 J2 J2 J2 J2 J2 J2 J2 J2 J2 J2 J2 J2 J2 J2 J2 J2 J2 J2 J2 J2 J2 J2 J2 J2 J2 J2 J2 J2 J2 J2 J2 J2 J2 J2 J2 J2 J2 J2 J2 J2& J2& J2& J2& J2& J2& J2& J2& J2& J2& J2& J2& J2& J2& J2& J2& J2& J2& J2& J2& J2& J2& J2& J2& J2& J2& J2& J2& J2& J2& J2& J2& J2& J2& J2& J2& J2& J2& J2& J2& J2& J2& J2& J2& J2& J2& J2& J2& J2& J2& J2& J2& J2& J2& J2& J2& J2& J2& J2& J2& J2& J2& J2& J2& J2& J2& J2& J2& J2& J2& J2& J2& J2& J2& J2& J2& J2& J2& J2& J2& J2& J2& J2& J2& J2& J2& J2& J2& J2& J2& J2& J2& J2& J2& J2& J2& J2& J2& J2& J2& J2& J2& J2& J2& J2& J2& J2& J2& J2& J2& J2& J2& J2& J2& J2& J2& J2& J2& J2& J2& J2& J2& J2& J2& J2& J2& J2& J2& J2& J2& J2& J2& J2& J2& J2& J2& J2& J2& J2& J2& J2& J2& J2& J2& J2& J2& J2& J2& J2& J2& J2& J2& J2& J2& J2& J2& J2& J2& J2& J2& J2& J2& J2& J2& J2& J2& J2& J2& J2& J2& J2& J2& J2& J2& J2& J2& J2& J2& J2& J2& J2& J2& J2& J2& J2& J2& J2& J2& J2& J2& J2& J2& J2& J2& J2& J2& J2& J2& J2& J2& J2& J2& J2& J2& J2& J2& J2& J2& J2& J2& J2& J2& J2& J2& J2& J2& J2& J2& J2& J2& J2& J2& J2& J2& J2& J2& J2& J2& J2& J2& J2& J2& J2& J2& J2& J2& J2& J2& J2& J2& J2& J2& J2& J2& J2& J2& J2& J2& J2& J2& J2& J2& J2& J2& J2& J2& J2& J2& J2& J2& J2& J2& J2& J2& J2& J2& J2& J2& J2& J2& J2& J2& J2& J2& J2& J2& J2& J2& J2& J2& J2& J2& J2& J2& J2& J2& J2& J2& J2& J2& J2& J2& J2& J2& J2& J2& J2& J2& J2& J2& J2& J2& J2& J2& J2& J2& J2& J2& J2& J2& J2& J2& J2& J2& J2& J2& J2& J2& J2& J2& J2& J2& J2& J2& J2& J2& J2& J2& J2& J2& J2& J2& J2& J2& J2& J2& J2& J2& J2& J2& J2& J2& J2& J2& J2& J2& J2& J2& J2& J2& J2& J2& J2& J2& J2& J2& J2& J2& J2& J2& J2& J2& J2& J2& J2& J2& J2& J2& J2& J2& J2& J2& J2& J2& J2& J2& J2& -J2& -J2& -J2& -J2& -J2& -J2& -J2& -J2& -J2& -J2& -J2& -J2& -J2& -J2& -J2& -J2& -J2& -J2& -J2& -J2& -J2& -J2& -J2& -J2& -J2& -J2& -J2& -J2& -J2& -J2& -J2& -J2& -J2& -J2& -J2& -J2& -J2& -J2& -J2& -J2& -J2& -J2& -J2& -J2& -J2& -J2& -J2& -J2& -J2& -J2& -J2& -J2& -J2& -J2& -J2& -J2& -J2& -J2& -J2& -J2& -J2& -J2& -J2& -J2& -J2& -J2& -J2& -J2& -J2& -J2& -J2& -J2& -J2& -J2& -J2& -J2& -J2& -J2& -J2& -J2& -J2& -J2& -J2& -J2& -J2& -J2& -J2& -J2& -J2& -J2& -J2& -J2& -J2& -J2& -J2& -J2& -J2& -J2& -J2& -J2& -J2& -J2& -J2& -J2& -J2& -J2& -J2& -J2& -J2& -J2& -J2& -J2& -J2& -J2& -J2& -J2& -J2& -J2& -J2& -J2& -J2& -J2& -J2& -J2& -J2& -J2& -J2& -J2& -J2& -J2& -J2& -J2& -J2& -J2& -J2& -J2& -J2& -J2& -J2& -J2& -J2& -J2& -J2& -J2& -J2& -J2& -J2& -J2& -J2& -J2& -J2& -J2& -J2& -J2& -J2& -J2& -J2& -J2& -J2& -J2& -J2& -J2& -J2& -J2& -J2& -J2& -J2& -J2& -J2& -J2& -J2& -J2& -J2& -J2& -J2& -J2& -J2& -J2& -J2& -J2& -J2& -J2& -J2& -J2& -J2& -J2& -J2& -J2& -J2& -J2& -J2& -J2& -J2& -J2& -J2& -J2& -J2& -J2& -J2& -J2& -J2& -J2& -J2& -J2& -J2& -J2& -J2& -J2& -J2& -J2& -J2& -J2& -J2& -J2& -J2& -J2& -J2& -J2& -J2& -J2& -J2& -J2& -J2& -J2& -J2& -J2& -J2& -J2& -J2& -J2& -J2& -J2& -J2& -J2& -J2& -J2& -J2& -J2& -J2& -J2& -J2& -J2& -J2& -J2& -J2& -J2& -J2& -J2& -J2& -J2& -J2& -J2& -J2& -J2& -J2& -J2& -J2& -J2& -J2& -J2& -J2& -J2& -J2& -J2& -J2& -J2& -J2& -J2& -J2& -J2& -J2& -J2& -J2& -J2& -J2& -J2& -J2& -J2& -J2& -J2& -J2& -J2& -J2& -J2& -J2& -J2& -J2& -J2& -J2& -J2& -J2& -J2& -J2& -J2& -J2& -J2& -J2& -J2& -J2& -J2& -J2& -J2& -J2& -J2& -J2& -J2& -J2& -J2& -J2& -J2& -J2& -J2& -J2& -J2& -J2& -J2& -J2& -J2& -J2& -J2& -J2& -J2& -J2& -J2& -J2& -J2& -J2& -J2& -J2& -J2& -J2& -J2& -J2& -J2& -J2& -J2& -J2& -J2& -J2& -J2& -J2& -J2& -J2& -J2& -J2& -J2& -J2& -J2& -J2& -J2& -J2& -J2& -J2& -J2& -J2& -J2& -J2& -J2& -J2& -J2& -J2& -J2& -J2& -J2& -J2& -J2& -J2& -J2& -J2& -J2& -J2& -J2& -J2& -J2& -J2& J2& & & BE2& BE2& BE2& BE2& BE2& BE2& BE2& BE2& BE2& BE2& BE2& BE2& BE2& BE2& BE2& BE2& BE2& BE2& BE2& BE2& BE2& BE2& BE2& BE2& BE2& BE2& BE2& BE2& BE2& BE2& BE2& BE2& BE2& BE2& BE2& BE2& BE2& BE2& BE2& BE2& BE2& BE2& BE2& BE2& BE2& BE2& BE2& BE2& BE2& BE2& BE2& BE2& BE2& BE2& BE2& BE2& BE2& BE2& BE2& BE2& BE2& BE2& BE2& BE2& BE2& BE2& BE2& BE2& BE2& BE2& BE2& BE2& BE2& BE2& BE2& BE2& BE2& BE2& BE2& BE2& BE2& BE2& BE2& BE2& BE2& BE2& BE2& BE2& BE2& BE2& BE2& BE2& BE2& BE2& BE2& BE2& BE2& BE2& BE2& BE2& BE2& BE2& BE2& BE2& BE2& BE2& BE2& BE2& BE2& BE2& BE2& BE2& BE2& BE2& BE2& BE2& BE2& BE2& BE2& BE2& BE2& BE2& BE2& BE2& BE2& BE2& BE2& BE2& BE2& BE2& BE2& BE2& BE2& BE2& BE2& BE2& BE2& BE2& BE2& BE2& BE2& BE2& BE2& BE2& BE2& BE2& BE2& BE2& BE2& BE2& BE2& BE2& BE2& BE2& BE2& BE2& BE2& BE2& BE2& BE2& BE2& BE2& BE2& BE2& BE2& BE2& BE2& BE2& BE2& BE2& BE2& BE2& BE2& BE2& BE2& BE2& BE2& BE2& BE2& BE2& BE2& BE2& BE2& BE2& BE2& BE2& BE2& BE2& BE2& BE2& BE2& BE2& BE2& BE2& BE2& BE2& BE2& BE2& BE2& BE2& BE2& BE2& BE2& BE2& BE2& BE2& BE2& BE2& BE2& BE2& BE2& BE2& BE2& BE2& BE2& BE2& BE2& BE2& BE2& BE2& BE2& BE2& BE2& BE2& BE2& BE2& BE2& BE2& BE2& BE2& BE2& BE2& BE2& BE2& BE2& BE2& BE2& BE2& BE2& BE2& BE2& BE2& BE2& BE2& BE2& BE2& BE2& BE2& BE2& BE2& BE2& BE2& BE2& BE2& BE2& BE2& BE2& BE2& BE2& BE2& BE2& BE2& BE2& BE2& BE2& BE2& BE2& BE2& BE2& BE2& BE2& BE2& BE2& BE2& BE2& BE2& BE2& BE2& BE2& BE2& BE2& BE2& BE2& BE2& BE2& BE2& BE2& BE2& BE2& BE2& BE2& BE2& BE2& BE2& BE2& BE2& BE2& BE2& BE2& BE2& BE2& BE2& BE2& BE2& BE2& BE2& BE2& BE2& BE2& BE2& BE2& BE2& BE2& BE2& BE2& BE2& BE2& BE2& BE2& BE2& BE2& BE2& BE2& BE2& BE2& BE2& BE2& BE2& BE2& BE2& BE2& BE2& BE2& BE2& BE2& BE2& BE2& BE2& BE2& BE2& BE2& BE2& BE2& BE2& BE2& BE2& BE2& BE2& BE2& BE2& BE2& BE2& BE2& BE2& BE2& BE2& BE2& BE2& BE2& BE2& BE2& BE2& BE2& BE2& BE2& BE2& BE2& BE2& BE2& BE2& BE2& BE2& BE2& BE2& BE2& BE2& BE2& BE2& BE2& BE2& BE2& BE2& BE2& BE2& BE2& BE2& BE2& BE2& BE2& BE2& BE2& BE2& BE2& BE2& BE2& BE2& BE2& BE2& BE2& BE2& BE2& BE2& BE2& BE2& BE2& BE2& BE2& BE2& BE2& BE2& BE2& BE2& BE2& BE2& BE2& BE2& BE2& BE2& BE2& BE2& BE2& BE2& BE2& BE2& BE2& BE2& BE2& BE2& BE2& BE2& BE2& BE2& BE2& BE2& BE2& BE2& BE2& BE2& BE2& BE2& BE2& BE2& BE2& BE2& BE2& BE2& BE2& BE2& BE2& BE2& BE2& BE2& BE2& BE2& BE2& BE2& BE2& BE2& BE2& BE2& BE2& BE2& BE2& BE2& BE2& BE2& BE2& BE2& BE2& BE2& BE2& BE2& BE2& BE2& BE2& BE2& BE2& BE2& BE2& BE2& BE2& BE2& BE2& BE2& BE2& BE2& BE2& BE2& BE2& BE2& BE2& BE2& BE2& BE2& BE2& BE2& BE2& BE2& BE2& BE2& BE2& BE2& BE2& BE2& BE2& BE2& BE2& BE2& BE2& BE2& BE2& BE2& BE2& BE2& BE2& BE2& BE2& BE2& BE2& BE2& BE2& BE2& BE2& BE2& BE2& BE2& BE2& BE2& BE2& BE2& BE2& BE2& BE2& BE2& BE2& BE2& BE2& BE2& BE2& BE2& BE2& BE2& BE2& BE2& BE2& BE2& BE2& BE2& BE2& BE2& BE2& BE2& BE2& BE2& BE2& BE2& BE2& BE2& BE2& BE2& BE2& BE2& BE2& BE2& BE2& BE2& BE2& BE2& BE2& BE2& BE2& BE2& BE2& BE2& BE2& BE2& BE2& BE2& BE2& BE2& BE2& BE2& BE2& BE2& BE2& BE2& BE2& BE2& BE2& BE2& BE2& BE2& BE2& BE2& BE2& BE2& BE2& BE2& BE2& BE2& BE2& BE2& BE2& BE2& BE2& BE2& BE2& BE2& BE2& BE2& BE2& BE2& BE2& BE2& BE2& BE2& BE2& BE2& BE2& BE2& BE2& BE2& BE2& BE2& BE2& BE2& BE2& BE2& BE2& BE2& BE2& BE2& BE2& BE2& BE2& BE2& BE2& BE2& BE2& BE2& BE2& BE2& BE2& BE2& BE2& BE2& BE2& BE2& BE2& BE2& BE2& BE2& BE2& BE2& BE2& BE2& BE2& BE2& BE2& BE2& BE2& BE2& BE2& BE2& BE2& BE2& BE2& BE2& BE2& BE2& BE2& BE2& BE2& BE2& BE2& BE2& BE2& BE2& BE2& BE2& BE2& BE2& BE2& BE2& BE2& BE2& BE2& BE2& BE2& BE2& BE2& BE2& BE2& BE2& BE2& BE2& BE2& BE2& BE2& BE2& BE2& BE2& BE2& BE2& BE2& BE2& BE2& BE2& BE2& BE2& BE2& BE2& BE2& BE2& BE2& BE2& BE2& BE2& BE2& BE2& BE2& BE2& BE2& BE2& BE2& BE2& BE2& BE2& BE2& BE2& BE2& BE2& BE2& BE2& BE2& BE2& BE2& BE2& BE2& BE2& BE2& BE2& BE2& BE2& BE2& BE2& BE2& BE2& BE2& BE2& BE2& BE2& BE2& BE2& BE2& BE2& BE2& BE2& BE2& BE2& BE2& BE2& BE2& BE2& BE2& BE2& BE2& BE2& BE2& BE2& BE2& BE2& BE2& BE2& BE2& BE2& BE2& BE2& BE2& BE2& BE2& BE2& BE2& BE2& BE2& BE2& BE2& BE2& BE2& BE2& BE2& BE2& BE2& BE2& BE2& BE2& BE2& BE2& BE2& BE2& BE2& BE2& BE2& BE2& BE2& BE2& BE2& BE2& BE2& BE2& BE2& BE2& BE2& BE2& BE2& BE2& BE2& BE2& BE2& BE2& BE2& BE2& BE2& BE2& BE2& BE2& BE2& BE2& BE2& BE2& BE2& BE2& BE2& BE2& BE2& BE2& BE2& BE2& BE2& BE2& BE2& BE2& BE2& BE2& BE2& BE2& BE2& BE2& BE2& BE2& BE2& BE2& BE2& BE2& BE2& BE2& BE2& BE2& BE2& BE2& BE2& BE2& BE2& BE2& BE2& BE2& BE2& BE2& BE2& BE2& BE2& BE2& BE2& BE2& BE2& BE2& BE2& BE2& BE2& BE2& BE2& BE2& BE2& BE2& BE2& BE2& BE2& BE2& BE2& BE2& BE2& BE2& BE2& BE2& BE2& BE2& BE2& BE2& BE2& BE2& BE2& BE2& BE2& BE2& BE2& BE2& BE2& BE2& BE2& BE2& BE2& BE2& BE2& BE2& BE2& BE2& BE2& BE2& BE2& BE2& BE2& BE2& BE2& BE2& BE2& BE2& BE2& BE2& BE2& BE2& BE2& BE2& BE2& BE2& BE2& BE2& BE2& BE2& BE2& BE2& BE2& 2& 2& Q2& Q2& Q2& Q2& Q2& Q2& Q2& Q2& Q2& Q2& Q2& Q2& Q2& Q2& Q2& Q2& Q2& Q2& Q2& Q2& Q2& Q2& Q2& Q2& Q2& Q2& Q2& Q2& Q2& Q2& Q2& Q2& Q2& Q2& Q2& Q2& Q2& Q2& Q2& Q2& Q2& Q2& Q2& Q2& Q2& Q2& Q2& Q2& Q2& Q2& Q2& Q2& Q2& Q2& Q2& Q2& Q2& Q2& Q2& Q2& Q2& Q2& Q2& Q2& Q2& Q2& Q2& Q2& Q2& Q2& Q2& Q2& Q2& Q2& Q2& Q2& Q2& Q2& Q2& Q2& Q2& Q2& Q2& Q2& Q2& Q2& Q2& Q2& Q2& Q2& Q2& Q2& Q2& Q2& Q2& Q2& Q2& Q2& Q2& Q2& Q2& Q2& Q2& Q2& Q2& Q2& Q2& Q2& Q2& Q2& Q2& Q2& Q2& Q2& Q2& Q2& Q2& Q2& Q2& Q2& Q2& Q2& Q2& Q2& Q2& Q2& Q2& Q2& Q2& Q2& Q2& Q2& Q2& Q2& Q2& Q2& Q2& Q2& Q2& Q2& Q2& Q2& Q2& Q2& Q2& Q2& Q2& Q2& Q2& Q2& Q2& Q2& Q2& Q2& Q2& Q2& Q2& Q2& Q2& Q2& Q2& Q2& Q2& Q2& Q2& Q2& Q2& Q2& Q2& Q2& Q2& Q2& Q2& Q2& Q2& Q2& Q2& Q2& Q2& Q2& Q2& Q2& Q2& Q2& Q2& Q2& &  Q2 Q2 Q2 Q2 Q2 Q2 Q2 Q2 Q2 Q2 Q2 Q2 Q2 Q2 Q2 Q2 Q2 Q2 Q2 Q2 Q2 Q2 Q2 Q2 Q2 Q2 Q2 Q2 Q2 Q2 Q2 Q2 Q2 Q2 Q2 Q2 Q2 Q2 Q2 Q2 Q2 Q2 Q2 Q2 Q2 Q2 Q2 Q2 Q2 Q2 Q2 Q2 Q2 Q2 Q2 Q2 Q2 Q2 Q2 Q2 Q2 Q2 Q2 Q2 Q2 Q2 Q2 Q2 Q2 Q2 Q2 Q2 Q2 Q2 Q2 Q2 Q2 Q2 Q2 Q2 Q2 Q2 Q2 Q2 Q2 Q2 Q2 Q2 Q2 Q2 Q2 Q2 Q2 Q2 Q2 Q2 Q2 Q2 Q2 Q2 Q2 Q2 Q2 Q2 Q2 Q2 Q2 Q2 Q2 Q2 Q2 Q2 Q2 Q2 Q2 Q2 Q2 Q2 Q2 Q2 Q2 Q2 Q2 Q2 Q2 Q2 Q2 Q2 Q2 Q2 Q2 Q2 Q2 Q2 Q2 Q2 Q2 Q2 Q2 Q2 Q2 Q2 Q2 Q2 Q2 Q2 Q2 Q2 Q2 Q2 Q2 Q2 Q2 Q2 Q2 Q2 Q2 Q2 Q2 Q2 Q2 Q2 Q2 Q2 Q2 Q2 Q2 Q2 Q2 Q2 Q2 Q2 Q2 Q2 Q2 Q2 Q2 Q2 Q2 Q2 Q2 Q2 Q2 Q2 Q2 Q2 Q2 Q2 OQ2 OQ2 OQ2 OQ2 OQ2 OQ2 OQ2 OQ2 OQ2 OQ2 OQ2 OQ2 OQ2 OQ2 OQ2 OQ2 OQ2 OQ2 OQ2 OQ2 OQ2 OQ2 OQ2 OQ2 OQ2 OQ2 OQ2 OQ2 OQ2 OQ2 OQ2 OQ2 OQ2 OQ2 OQ2 OQ2 OQ2 OQ2 OQ2 OQ2 OQ2 OQ2 OQ2 OQ2 OQ2 OQ2 OQ2 OQ2 OQ2 OQ2 OQ2 OQ2 OQ2 OQ2 OQ2 OQ2 OQ2 OQ2 OQ2 OQ2 OQ2 OQ2 OQ2 OQ2 OQ2 OQ2 OQ2 OQ2 OQ2 OQ2 OQ2 OQ2 OQ2 OQ2 OQ2 OQ2 OQ2 OQ2 OQ2 OQ2 OQ2 OQ2 OQ2 OQ2 OQ2 OQ2 OQ2 OQ2 OQ2 OQ2 OQ2 OQ2 OQ2 OQ2 OQ2 OQ2 OQ2 OQ2 OQ2 OQ2 OQ2 OQ2 OQ2 OQ2 OQ2 OQ2 OQ2 OQ2 OQ2 OQ2 OQ2 OQ2 OQ2 OQ2 OQ2 OQ2 OQ2 OQ2 OQ2 OQ2 OQ2 OQ2 OQ2 OQ2 OQ2 OQ2 OQ2 OQ2 OQ2 OQ2 OQ2 OQ2 OQ2 OQ2 OQ2 OQ2 OQ2 OQ2 OQ2 OQ2 OQ2 OQ2 OQ2 OQ2 OQ2 OQ2 OQ2 OQ2 OQ2 OQ2 OQ2 OQ2 OQ2 OQ2 OQ2 OQ2 OQ2 OQ2 OQ2 OQ2 OQ2 OQ2 OQ2 OQ2 OQ2 OQ2 OQ2 OQ2 OQ2 OQ2 OQ2 OQ2 OQ2 OQ2 OQ2 OQ2 OQ2 OQ2 OQ2 OQ2 OQ2 OQ2 OQ2 OQ2 OQ2 OQ2 Q2 NQ2 NQ2 NQ2 NQ2 NQ2 NQ2 NQ2 NQ2 NQ2 NQ2 NQ2 NQ2 NQ2 NQ2 NQ2 NQ2 NQ2 NQ2 NQ2 NQ2 NQ2 NQ2 NQ2 NQ2 NQ2 NQ2 NQ2 NQ2 NQ2 NQ2 NQ2 NQ2 NQ2 NQ2 NQ2 NQ2 NQ2 NQ2 NQ2 NQ2 NQ2 NQ2 NQ2 NQ2 NQ2 NQ2 NQ2 NQ2 NQ2 NQ2 NQ2 NQ2 NQ2 NQ2 NQ2 NQ2 NQ2 NQ2 NQ2 NQ2 NQ2 NQ2 NQ2 NQ2 NQ2 NQ2 NQ2 NQ2 NQ2 NQ2 NQ2 NQ2 NQ2 NQ2 NQ2 NQ2 NQ2 NQ2 NQ2 NQ2 NQ2 NQ2 NQ2 NQ2 NQ2 NQ2 NQ2 NQ2 NQ2 NQ2 NQ2 NQ2 NQ2 NQ2 NQ2 NQ2 NQ2 NQ2 NQ2 NQ2 NQ2 NQ2 NQ2 NQ2 NQ2 NQ2 NQ2 NQ2 NQ2 NQ2 NQ2 NQ2 NQ2 NQ2 NQ2 NQ2 NQ2 NQ2 NQ2 NQ2 NQ2 NQ2 NQ2 NQ2 NQ2 NQ2 NQ2 NQ2 NQ2 NQ2 NQ2 NQ2 NQ2 NQ2 NQ2 NQ2 NQ2 NQ2 NQ2 NQ2 NQ2 NQ2 NQ2 NQ2 NQ2 NQ2 NQ2 NQ2 NQ2 NQ2 NQ2 NQ2 NQ2 NQ2 NQ2 NQ2 NQ2 NQ2 NQ2 NQ2 NQ2 NQ2 NQ2 NQ2 NQ2 NQ2 NQ2 NQ2 NQ2 NQ2 NQ2 NQ2 NQ2 NQ2 NQ2 NQ2 NQ2 NQ2 NQ2 NQ2 NQ2 NQ2 NQ2 NQ2 NQ2 NQ2 Q2 Q2 LQ2 LQ2 LQ2 LQ2 LQ2 LQ2 LQ2 LQ2 LQ2 LQ2 LQ2 LQ2 LQ2 LQ2 LQ2 LQ2 LQ2 LQ2 LQ2 LQ2 LQ2 LQ2 LQ2 LQ2 LQ2 LQ2 LQ2 LQ2 LQ2 LQ2 LQ2 LQ2 LQ2 LQ2 LQ2 LQ2 LQ2 LQ2 LQ2 LQ2 LQ2 LQ2 LQ2 LQ2 LQ2 LQ2 LQ2 LQ2 LQ2 LQ2 LQ2 LQ2 LQ2 LQ2 LQ2 LQ2 LQ2 LQ2 LQ2 LQ2 LQ2 LQ2 LQ2 LQ2 LQ2 LQ2 LQ2 LQ2 LQ2 LQ2 LQ2 LQ2 LQ2 LQ2 LQ2 LQ2 LQ2 LQ2 LQ2 LQ2 LQ2 LQ2 LQ2 LQ2 LQ2 LQ2 LQ2 LQ2 LQ2 LQ2 LQ2 LQ2 LQ2 LQ2 LQ2 LQ2 LQ2 LQ2 LQ2 LQ2 LQ2 LQ2 LQ2 LQ2 LQ2 LQ2 LQ2 LQ2 LQ2 LQ2 LQ2 LQ2 LQ2 LQ2 LQ2 LQ2 LQ2 LQ2 LQ2 LQ2 LQ2 LQ2 LQ2 LQ2 LQ2 LQ2 LQ2 LQ2 LQ2 LQ2 LQ2 LQ2 LQ2 LQ2 LQ2 LQ2 LQ2 LQ2 LQ2 LQ2 LQ2 LQ2 LQ2 LQ2 LQ2 LQ2 LQ2 LQ2 LQ2 LQ2 LQ2 LQ2 LQ2 LQ2 LQ2 LQ2 LQ2 LQ2 LQ2 LQ2 LQ2 LQ2 LQ2 LQ2 LQ2 LQ2 LQ2 LQ2 LQ2 LQ2 LQ2 LQ2 LQ2 LQ2 LQ2 LQ2 LQ2 LQ2 LQ2 LQ2 LQ2 LQ2 LQ2 LQ2 LQ2 LQ2 Q2 Q2   N N N N N N N N N N N N N N N N N N N N N N N N N N N N N N N N N N N N N N N N N N N N N N N N N N N N N N N N N N N N N N N N N N N N N N N N N N N N N N N N N N N N N N N N N N N N N N N N N N N N N N N N N N N N N N N N N N N N N N N N N N N N N N N N N N N N N N N N N N N N N N N N N N N N N N N N N N N N N N N N N N N N N N N N N N N N N N N N N N N N N N N N N N N N KN KN KN KN KN KN KN KN KN KN KN KN KN KN KN KN KN KN KN KN KN KN KN KN KN KN KN KN KN KN KN KN KN KN KN KN KN KN KN KN KN KN KN KN KN KN KN KN KN KN KN KN KN KN KN KN KN KN KN KN KN KN KN KN KN KN KN KN KN KN KN KN KN KN KN KN KN KN KN KN KN KN KN KN KN KN KN KN KN KN KN KN KN KN KN KN KN KN KN KN KN KN KN KN KN KN KN KN KN KN KN KN KN KN KN KN KN KN KN KN KN KN KN KN KN KN KN KN KN KN KN KN KN KN KN KN KN KN KN KN KN KN KN KN KN KN KN KN KN KN KN KN KN KN KN KN KN KN KN KN KN KN KN KN KN KN KN KN KN KN KN KN KN KN KN KN KN KN KN KN KN KN KN KN KN KN   JN JN JN JN JN JN JN JN JN JN JN JN JN JN JN JN JN JN JN JN JN JN JN JN JN JN JN JN JN JN JN JN JN JN JN JN JN JN JN JN JN JN JN JN JN JN JN JN JN JN JN JN JN JN JN JN JN JN JN JN JN JN JN JN JN JN JN JN JN JN JN JN JN JN JN JN JN JN JN JN JN JN JN JN JN JN JN JN JN JN JN JN JN JN JN JN JN JN JN JN JN JN JN JN JN JN JN JN JN JN JN JN JN JN JN JN JN JN JN JN JN JN JN JN JN JN JN JN JN JN JN JN JN JN JN JN JN JN JN JN JN JN JN JN JN JN JN JN JN JN JN JN JN JN JN JN JN JN JN JN JN JN JN JN JN JN JN JN JN JN JN JN JN JN JN JN JN JN JN JN JN JN JN JN JN JN N N HN HN HN HN HN HN HN HN HN HN HN HN HN HN HN HN HN HN HN HN HN HN HN HN HN HN HN HN HN HN HN HN HN HN HN HN HN HN HN HN HN HN HN HN HN HN HN HN HN HN HN HN HN HN HN HN HN HN HN HN HN HN HN HN HN HN HN HN HN HN HN HN HN HN HN HN HN HN HN HN HN HN HN HN HN HN HN HN HN HN HN HN HN HN HN HN HN HN HN HN HN HN HN HN HN HN HN HN HN HN HN HN HN HN HN HN HN HN HN HN HN HN HN HN HN HN HN HN HN HN HN HN HN HN HN HN HN HN HN HN HN HN HN HN HN HN HN HN HN HN HN HN HN HN HN HN HN HN HN HN HN HN HN HN HN HN HN HN HN HN HN HN HN HN HN HN HN HN HN HN HN HN HN HN HN HN   F F F F F F F F F F F F F F F F F F F F F F F F F F F F F F F F F F F F F F F F F F F F F F F F F F F F F F F F F F F F F F F F F F F F F F FJ FJ FJ FJ FJ FJ FJ FJ FJ FJ FJ FJ FJ FJ FJ FJ FJ FJ FJ FJ FJ FJ FJ FJ FJ FJ FJ FJ FJ FJ FJ FJ FJ FJ FJ FJ FJ FJ FJ FJ FJ FJ FJ FJ FJ FJ FJ FJ FJ FJ FJ FJ FJ FJ FJ FJ FJ FJ FJ FJ FJ FJ FJ FJ FJ FJ FJ FJ FJ FJ FJ FOJ FOJ FOJ FOJ FOJ FOJ FOJ FOJ FOJ FOJ FOJ FOJ FOJ FOJ FOJ FOJ FOJ FOJ FOJ FOJ FOJ FOJ FOJ FOJ FOJ FOJ FOJ FOJ FOJ FOJ FOJ FOJ FOJ FOJ FOJ FOJ FOJ FOJ FOJ FOJ FOJ FOJ FOJ FOJ FOJ OJ OJ EOJ EOJ EOJ EOJ EOJ EOJ EOJ EOJ EOJ EOJ EOJ EOJ EOJ EOJ EOJ EOJ EOJ EOJ EOJ EOJ EOJ EOJ EOJ EOJ EOJ EOJ EOJ EOJ EOJ EOJ EOJ EOJ EOJ EOJ EOJ EOJ EOJ EOJ EOJ EOJ EOJ EOJ EOJ EOJ EOJ EOJ EOJ EOJ EOJ EOJ EOJ EOJ EOJ EOJ EOJ EOJ EOJ EOJ EOJ EOJ EOJ EOJ EOJ EOJ EOJ EOJ EOJ EOJ EOJ EOJ EOJ EOJ EOJ EOJ EOJ EOJ EOJ EOJ EOJ EOJ EOJ EOJ EOJ EOJ EOJ EOJ EOJ EOJ EOJ EOJ EOJ EOJ EOJ EOJ EOJ EOJ EOJ EOJ EOJ EOJ EOJ EOJ EOJ EOJ EOJ EOJ EOJ EOJ EOJ EOJ EOJ EOJ EOJ EOJ EOJ EOJ EOJ EOJ EOJ EOJ EOJ EOJ EOJ EOJ EOJ EOJ EOJ EOJ EOJ EOJ EOJ EOJ EOJ EOJ EOJ EOJ EOJ EOJ EOJ EOJ EOJ EOJ EOJ EOJ EOJ EOJ EOJ EOJ EOJ EOJ EOJ EOJ EOJ EOJ EOJ EOJ EOJ EOJ EOJ EOJ EOJ EOJ EOJ EOJ EOJ EOJ EOJ EOJ EOJ EOJ EOJ EOJ EOJ EOJ EOJ EOJ EOJ EOJ EOJ EOJ EOJ EOJ EOJ EOJ EOJ EOJ OJ COJ COJ COJ COJ COJ COJ COJ COJ COJ COJ COJ COJ COJ COJ COJ COJ COJ COJ COJ COJ COJ COJ COJ COJ COJ COJ COJ COJ COJ COJ COJ COJ COJ COJ COJ COJ COJ COJ COJ COJ COJ COJ COJ COJ COJ COJ COJ COJ COJ COJ COJ COJ COJ COJ COJ COJ COJ COJ COJ COJ COJ COJ COJ COJ COJ COJ COJ COJ COJ COJ COJ COJ COJ COJ COJ COJ COJ COJ COJ COJ COJ COJ COJ COJ COJ COJ COJ COJ COJ COJ COJ COJ COJ COJ COJ COJ COJ COJ COJ COJ COJ COJ COJ COJ COJ COJ COJ COJ COJ COJ COJ COJ COJ COJ COJ COJ COJ COJ COJ COJ COJ COJ COJ COJ COJ COJ COJ COJ COJ COJ COJ COJ COJ COJ COJ COJ COJ COJ COJ COJ COJ COJ COJ COJ COJ COJ COJ COJ COJ COJ COJ COJ COJ COJ COJ COJ COJ COJ COJ COJ COJ COJ COJ COJ COJ COJ COJ COJ COJ COJ COJ COJ COJ COJ COJ COJ COJ COJ COJ COJ COJ COJ COJ COJ COJ COJ OJ OJ OQBJ OQBJ OQBJ OQBJ OQBJ OQBJ OQBJ QBJ QBJ QBJ QBJ QBJ QBJ QBJ QBJ QBJ QBJ QBJ QBJ QBJ QBJ QBJ QBJ QBJ QBJ QBJ QBJ QBJ QBJ QBJ QBJ QBJ QBJ QBJ QBJ QBJ QBJ QBJ QBJ QBJ QBJ QBJ QBJ QBJ QBJ QBJ QBJ QBJ QBJ QBJ QBJ QBJ QBJ QBJ QBJ QBJ QBJ QBJ QBJ QBJ QBJ QBJ QBJ QBJ QBJ QBJ QBJ QBJ QBJ QBJ QBJ QBJ QBJ QBJ QBJ QBJ QBJ QBJ QBJ QBJ QBJ QBJ QBJ QBJ QBJ QBJ QBJ QBJ QBJ QBJ QBJ QBJ QBJ QBJ QBJ QBJ QBJ QBJ QBJ QBJ QBJ QBJ QBJ QBJ QBJ QBJ QBJ QBJ QBJ QBJ QBJ QBJ QBJ QBJ QBJ QBJ QBJ QBJ QBJ QBJ QBJ QBJ QBJ QBJ QBJ QBJ QBJ QBJ QBJ QBJ QBJ QBJ QBJ QBJ QBJ QBJ QBJ QBJ QBJ QBJ QBJ QBJ QBJ QBJ QBJ QBJ QBJ QBJ QBJ QBJ QBJ QBJ QBJ QBJ QBJ QBJ QBJ QBJ QBJ QBJ QBJ QBJ QBJ QBJ QBJ QBJ QBJ QBJ QBJ QBJ QBJ QBJ QBJ QBJ QBJ QBJ QBJ QBJ QBJ QBJ QBJ QBJ QBJ QBJ QBJ QBJ J J QCJ QCJ QCJ QCJ QCJ QCJ QCJ QCJ QCJ QCJ QCJ QCJ QCJ QCJ QCJ QCJ QCJ QCJ QCJ QCJ QCJ QCJ QCJ QCJ QCJ QCJ QCJ QCJ QCJ QCJ QCJ QCJ QCJ QCJ QCJ QCJ QCJ QCJ QCJ QCJ QCJ QCJ QCJ QCJ QCJ QCJ QCJ QCJ QCJ QCJ QCJ QCJ QCJ QCJ QCJ QCJ QCJ QCJ QCJ QCJ QCJ QCJ QCJ QCJ QCJ QCJ QCJ QCJ QCJ QCJ QCJ QCJ QCJ QCJ QCJ QCJ QCJ QCJ QCJ QCJ QCJ QCJ QCJ QCJ QCJ QCJ QCJ QCJ QCJ QCJ QCJ QCJ QCJ QCJ QCJ QCJ QCJ QCJ QCJ QCJ QCJ QCJ QCJ QCJ QCJ QCJ QCJ QCJ QCJ QCJ QCJ QCJ QCJ QCJ QCJ QCJ QCJ QCJ QCJ QCJ QCJ QCJ QCJ QCJ QCJ QCJ QCJ QCJ QCJ QCJ QCJ QCJ QCJ QCJ QCJ QCJ QCJ QCJ QCJ QCJ QCJ QCJ QCJ QCJ QCJ QCJ QCJ QCJ QCJ QCJ QCJ QCJ QCJ QCJ QCJ QCJ QCJ QCJ QCJ QCJ QCJ QCJ QCJ QCJ QCJ QCJ QCJ QCJ QCJ QCJ QCJ QCJ QCJ QCJ QCJ QCJ QCJ QCJ QCJ QCJ QCJ QCJ QCJ QCJ QCJ QCJ CJ CJ CRJ CRJ CRJ CRJ CRJ CRJ CRJ CRJ CRJ CRJ CRJ CRJ CRJ CRJ CRJ CRJ CRJ CRJ CRJ CRJ CRJ CRJ CRJ CRJ CRJ CRJ CRJ CRJ CRJ CRJ CRJ CRJ CRJ CRJ CRJ CRJ CRJ CRJ CRJ CRJ CRJ CRJ CRJ CRJ CRJ CRJ CRJ CRJ CRJ CRJ CRJ CRJ CRJ CRJ CRJ CRJ CRJ CRJ CRJ CRJ CRJ CRJ CRJ CRJ CRJ CRJ CRJ CRJ CRJ CRJ CRJ CRJ CRJ CRJ CRJ CRJ CRJ CRJ CRJ CRJ CRJ CRJ CRJ CRJ CRJ CRJ CRJ CRJ CRJ CRJ CRJ CRJ CRJ CRJ CRJ CRJ CRJ CRJ CRJ CRJ CRJ CRJ CRJ CRJ CRJ CRJ CRJ CRJ CRJ CRJ CRJ CRJ CRJ CRJ CRJ CRJ CRJ CRJ CRJ CRJ CRJ CRJ CRJ CRJ CRJ CRJ CRJ CRJ CRJ CRJ CRJ CRJ CRJ CRJ CRJ CRJ CRJ CRJ CRJ CRJ CRJ CRJ CRJ CRJ CRJ CRJ CRJ CRJ CRJ CRJ CRJ CRJ CRJ CRJ CRJ CRJ CRJ CRJ CRJ CRJ CRJ CRJ CRJ CRJ CRJ CRJ CRJ CRJ CRJ CRJ CRJ CRJ CRJ CRJ CRJ CRJ CRJ CRJ CRJ CRJ CRJ CRJ CRJ CRJ CRJ CRJ RJ RJ 7RJ 7RJ 7RJ 7RJ 7RJ 7RJ 7RJ 7RJ 7RJ 7RJ 7RJ 7RJ 7RJ 7RJ 7RJ 7RJ 7RJ 7RJ 7RJ 7RJ 7RJ 7RJ 7RJ 7RJ 7RJ 7RJ 7RJ 7RJ 7RJ 7RJ 7RJ 7RJ 7RJ 7RJ 7RJ 7RJ 7RJ 7RJ 7RJ 7RJ 7RJ 7RJ 7RJ 7RJ 7RJ 7RJ 7RJ 7RJ 7RJ 7RJ 7RJ 7RJ 7RJ 7RJ 7RJ 7RJ 7RJ 7RJ 7RJ 7RJ 7RJ 7RJ 7RJ 7RJ 7RJ 7RJ 7RJ 7RJ 7RJ 7RJ 7RJ 7RJ 7RJ 7RJ 7RJ 7RJ 7RJ 7RJ 7RJ 7RJ 7RJ 7RJ 7RJ 7RJ 7RJ 7RJ 7RJ 7RJ 7RJ 7RJ 7RJ 7RJ 7RJ 7RJ 7RJ 7RJ 7RJ 7RJ 7RJ 7RJ 7RJ 7RJ 7RJ 7RJ 7RJ 7RJ 7RJ 7RJ 7RJ 7RJ 7RJ 7RJ 7RJ 7RJ 7RJ 7RJ 7RJ 7RJ 7RJ 7RJ 7RJ 7RJ 7RJ 7RJ 7RJ 7RJ 7RJ 7RJ 7RJ 7RJ 7RJ 7RJ 7RJ 7RJ 7RJ 7RJ 7RJ 7RJ 7RJ 7RJ 7RJ 7RJ 7RJ 7RJ 7RJ 7RJ 7RJ 7RJ 7RJ 7RJ 7RJ 7RJ 7RJ 7RJ 7RJ 7RJ 7RJ 7RJ 7RJ 7RJ 7RJ 7RJ 7RJ 7RJ 7RJ 7RJ 7RJ 7RJ 7RJ 7RJ 7RJ 7RJ 7RJ 7RJ 7RJ 7RJ 7RJ 7RJ 7RJ 7RJ 7RJ 7RJ 7RJ 7RJ 7RJ 7RJ J J JQ9 JQ9 JQ9 JQ9 JQ9 JQ9 JQ9 JQ9 JQ9 JQ9 JQ9 JQ9 JQ9 JQ9 JQ9 JQ9 JQ9 JQ9 JQ9 JQ9 JQ9 JQ9 JQ9 JQ9 JQ9 JQ9 JQ9 JQ9 JQ9 JQ9 JQ9 JQ9 JQ9 JQ9 JQ9 JQ9 JQ9 JQ9 JQ9 JQ9 JQ9 JQ9 JQ9 JQ9 JQ9 JQ9 JQ9 JQ9 JQ9 JQ9 JQ9 JQ9 JQ9 JQ9 JQ9 JQ9 JQ9 JQ9 JQ9 JQ9 JQ9 JQ9 JQ9 JQ9 JQ9 JQ9 JQ9 JQ9 JQ9 JQ9 JQ9 JQ9 JQ9 JQ9 JQ9 JQ9 JQ9 JQ9 JQ9 JQ9 JQ9 JQ9 JQ9 JQ9 JQ9 JQ9 JQ9 JQ9 JQ9 JQ9 JQ9 JQ9 JQ9 JQ9 JQ9 JQ9 JQ9 JQ9 JQ9 JQ9 JQ9 JQ9 JQ9 JQ9 JQ9 JQ9 JQ9 JQ9 JQ9 JQ9 JQ9 JQ9 JQ9 JQ9 JQ9 JQ9 JQ9 JQ9 JQ9 JQ9 JQ9 JQ9 JQ9 JQ9 JQ9 JQ9 JQ9 JQ9 JQ9 JQ9 JQ9 JQ9 JQ9 JQ9 JQ9 JQ9 JQ9 JQ9 JQ9 JQ9 JQ9 JQ9 JQ9 JQ9 JQ9 JQ9 JQ9 JQ9 JQ9 JQ9 JQ9 JQ9 JQ9 JQ9 JQ9 JQ9 JQ9 JQ9 JQ9 JQ9 JQ9 JQ9 JQ9 JQ9 JQ9 JQ9 JQ9 JQ9 JQ9 JQ9 JQ9 JQ9 JQ9 JQ9 JQ9 Q9 Q9 Q9 Q9 Q9 Q9 Q9 Q9 Q9 Q9 Q9   O: O: O: O: O: O: O: O: O: O: O: O: O: O: O: O: O: O: O: O: O: O: O: O: O: O: O: O: O: O: O: O: O: O: O: O: O: O: O: O: O: O: O: O: O: O: O: O: O: O: O: O: O: O: O: O: O: O: O: O: O: O: O: O: O: O: O: O: O: O: O: O: O: O: O: O: O: O: O: O: O: O: O: O: O: O: O: O: O: O: O: O: O: O: O: O: O: O: O: O: O: O: O: O: O: O: O: O: O: O: O: O: O: O: O: O: O: O: O: O: O: O: O: O: O: O: O: O: O: O: O: O: O: O: O: O: O: O: O: O: O: O: O: O: O: O: O: O: O: O: O: O: O: O: O: O: O: O: O: O: O: O: O: O: O: O: O: O: O: O: O: O: O: O: O: O: O: O: O: O: O: O: O: O: O: O: : : Q: Q: Q: Q: Q: Q: Q: Q: Q: Q: Q: Q: Q: Q: Q: Q: Q: Q: Q: Q: Q: Q: Q: Q: Q: Q: Q: Q: Q: Q: Q: Q: Q: Q: Q: Q: Q: Q: Q: Q: Q: Q: Q: Q: Q: Q: Q: Q: Q: Q: Q: Q: Q: Q: Q: Q: Q: Q: Q: Q: Q: Q: Q: Q: Q: Q: Q: Q: Q: Q: Q: Q: Q: Q: Q: Q: Q: Q: Q: Q: Q: Q: Q: Q: Q: Q: Q: Q: Q: Q: Q: Q: Q: Q: Q: Q: Q: Q: Q: Q: Q: Q: Q: Q: Q: Q: Q: Q: Q: Q: Q: Q: Q: Q: Q: Q: Q: Q: Q: Q: Q: Q: Q: Q: Q: Q: Q: Q: Q: Q: Q: Q: Q: Q: Q: Q: Q: Q: Q: Q: Q: Q: Q: Q: Q: Q: Q: Q: Q: Q: Q: Q: Q: Q: Q: Q: Q: Q: Q: Q: Q: Q: Q: Q: Q: Q: Q: Q: Q: Q: Q: Q: Q: Q: Q: Q: Q: Q: Q: Q: Q: Q: Q: Q: Q: Q:   R7 R7 R7 R7 R7 R7 R7 R7 R7 R7 R7 R7 R7 R7 R7 R7 R7 R7 R7 R7 R7 R7 R7 R7 R7 R7 R7 R7 R7 R7 R7 R7 R7 R7 R7 R7 R7 R7 R7 R7 R7 R7 R7 R7 R7 R7 R7 R7 R7 R7 R7 R7 R7 R7 R7 R7 R7 R7 R7 R7 R7 R7 R7 R7 R7 R7 R7 R7 R7 R7 R7 R7 R7 R7 R7 R7 R7 R7 R7 R7 R7 R7 R7 R7 R7 R7 R7 R7 R7 R7 R7 R7 R7 R7 R7 R7 R7 R7 R7 R7 R7 R7 R7 R7 R7 R7 R7 R7 R7 R7 R7 R7 R7 R7 R7 R7 R7 R7 R7 R7 R7 R7 R7 R7 R7 R7 R7 R7 R7 R7 R7 R7 R7 R7 R7 R7 R7 R7 R7 R7 R7 R7 R7 R7 R7 R7 R7 R7 R7 R7 R7 R7 R7 R7 R7 R7 R7 R7 R7 R7 R7 R7 R7 R7 R7 R7 R7 R7 R7 R7 R7 R7 R7 R7 R7 R7 R7 R7 R7 R7 R7 R7 R7 R7 R7 R7 7 7 M7 M7 M7 M7 M7 M7 M7 M7 M7 M7 M7 M7 M7 M7 M7 M7 M7 M7 M7 M7 M7 M7 M7 M7 M7 M7 M7 M7 M7 M7 M7 M7 M7 M7 M7 M7 M7 M7 M7 M7 M7 M7 M7 M7 M7 M7 M7 M7 M7 M7 M7 M7 M7 M7 M7 M7 M7 M7 M7 M7 M7 M7 M7 M7 M7 M7 M7 M7 M7 M7 M7 M7 M7 M7 M7 M7 M7 M7 M7 M7 M7 M7 M7 M7 M7 M7 M7 M7 M7 M7 M7 M7 M7 M7 M7 M7 M7 M7 M7 M7 M7 M7 M7 M7 M7 M7 M7 M7 M7 M7 M7 M7 M7 M7 M7 M7 M7 M7 M7 M7 M7 M7 M7 M7 M7 M7 M7 M7 M7 M7 M7 M7 M7 M7 M7 M7 M7 M7 M7 M7 M7 M7 M7 M7 M7 M7 M7 M7 M7 M7 M7 M7 M7 M7 M7 M7 M7 M7 M7 M7 M7 M7 M7 M7 M7 M7 M7 M7 M7 M7 M7 M7 M7 M7 M7 M7 M7 M7 M7 M7 M7 M7 M7 M7 M7 M7   M< M< M< M< M< M< M< M< M< M< M< M< M< M< M< M< M< M< M< M< M< M< M< M< M< M< M< M< M< M< M< M< M< M< M< M< M< M< M< M< M< M< M< M< M< M< M< M< M< M< M< M< M< M< M< M< M< M< M< M< M< M< M< M< M< M< M< M< M< M< M< M< M< M< M< M< M< M< M< M< M< M< M< M< M< M< M< M< M< M< M< M< M< M< M< M< M< M< M< M< M< M< M< M< M< M< M< M< M< M< M< M< M< M< M< M< M< M< M< M< M< M< M< M< M< M< M< M< M< M< M< M< M< M< M< M< M< M< M< M< M< M< M< M< M< M< M< M< M< M< M< M< M< M< M< M< M< M< M< M< M< M< M< M< M< M< M< M< M< M< M< M< M< M< M< M< M< M< M< M< M< M< M< M< M< M< < < L< L< L< L< L< L< L< L< L< L< L< L< L< L< L< L< L< L< L< L< L< L< L< L< L< L< L< L< L< L< L< L< L< L< L< L< L< L< L< L< L< L< L< L< L< L< L< L< L< L< L< L< L< L< L< L< L< L< L< L< L< L< L< L< L< L< L< L< L< L< L< L< L< L< L< L< L< L< L< L< L< L< L< L< L< L< L< L< L< L< L< L< L< L< L< L< L< L< L< L< L< L< L< L< L< L< L< L< L< L< L< L< L< L< L< L< L< L< L< L< L< L< L< L< L< L< L< L< L< L< L< L< L< L< L< L< L< L< L< L< L< L< L< L< L< L< L< L< L< L< L< L< L< L< L< L< L< L< L< L< L< L< L< L< L< L< L< L< L< L< L< L< L< L< L< L< L< L< L< L< L< L< L< L< L< L<   J: J: J: J: J: J: J: J: J: J: J: J: J: J: J: J: J: J: J: J: J: J: J: J: J: J: J: J: J: J: J: J: J: J: J: J: J: J: J: J: J: J: J: J: J: J: J: J: J: J: J: J: J: J: J: J: J: J: J: J: J: J: J: J: J: J: J: J: J: J: J: J: J: J: J: J: J: J: J: J: J: J: J: J: J: J: J: J: J: J: J: J: J: J: J: J: J: J: J: J: J: J: J: J: J: J: J: J: J: J: J: J: J: J: J: J: J: J: J: J: J: J: J: J: J: J: J: J: J: J: J: J: J: J: J: J: J: J: J: J: J: J: J: J: J: J: J: J: J: J: J: J: J: J: J: J: J: J: J: J: J: J: J: J: J: J: J: J: J: J: J: J: J: J: J: J: J: J: J: J: J: J: J: J: J: J: : H: H: H: H: H: H: H: H: H: H: H: H: H: H: H: H: H: H: H: H: H: H: H: H: H: H: H: H: H: H: H: H: H: H: H: H: H: H: H: H: H: H: H: H: H: H: H: H: H: H: H: H: H: H: H: H: H: H: H: H: H: H: H: H: H: H: H: H: H: H: H: H: H: H: H: H: H: H: H: H: H: H: H: H: H: H: H: H: H: H: H: H: H: H: H: H: H: H: H: H: H: H: H: H: H: H: H: H: H: H: H: H: H: H: H: H: H: H: H: H: H: H: H: H: H: H: H: H: H: H: H: H: H: H: H: H: H: H: H: H: H: H: H: H: H: H: H: H: H: H: H: H: H: H: H: H: H: H: H: H: H: H: H: H: H: H: H: H: H: H: H: H: H: H: H: H: H: H: H: H: H: H: H: H: H: H: :  9T 9T 9T 9T 9T 9T 9T 9T 9T 9T 9T 9T 9T 9T 9T 9T 9T 9T 9T 9T 9T 9T 9T 9T 9T 9T 9T 9T 9T 9T 9T 9T 9T 9T 9T 9T 9T 9T 9T 9T 9T 9T 9T 9T 9T 9T 9T 9T 9T 9T 9T 9T 9T 9T 9T 9T 9T 9T 9T 9T 9T 9T 9T 9T 9T 9T 9T 9T 9T 9T 9T 9T 9T 9T 9T 9T 9T 9T 9T 9T 9T 9T 9T 9T 9T 9T 9T 9T 9T 9T 9T 9T 9T 9T 9T 9T 9T 9T 9T 9T 9T 9T 9T 9T 9T 9T 9T 9T 9T 9T 9T 9T 9T 9T 9T 9T 9T 9T 9T 9T 9T 9T 9T 9T 9T 9T 9T 9T 9T 9T 9T 9T 9T 9T 9T 9T 9T 9T 9T 9T 9T 9T 9T 9T 9T 9T 9T 9T 9T 9T 9T 9T 9T 9T 9T 9T 9T 9T 9T 9T 9T 9T 9T 9T 9T 9T 9T 9T 9T 9T 9T 9T 9T 9T 9T 9T 9T 9T 9T 9T 9T 9T 9T 9T 9T 9T T T <T <T <T <T <T <T <T <T <T <T <T <T <T <T <T <T <T <T <T <T <T <T <T <T <T <T <T <T <T <T <T <T <T <T <T <T <T <T <T <T <T <T <T <T <T <T <T <T <T <T <T <T <T <T <T <T <T <T <T <T <T <T <T <T <T <T <T <T <T <T <T <T <T <T <T <T <T <T <T <T <T <T <T <T <T <T <T <T <T <T <T <T <T <T <T <T <T <T <T <T <T <T <T <T <T <T <T <T <T <T <T <T <T <T <T <T <T <T <T <T <T <T <T <T <T <T <T <T <T <T <T <T <T <T <T <T <T <T <T <T <T <T <T <T <T <T <T <T <T <T <T <T <T <T <T <T <T <T <T <T <T <T <T <T <T <T <T <T <T <T <T <T <T <T <T <T <T <T <T <T <T <T <T <T <T <T T T >T >T >T >T >T >T >T >T >T >T >T >T >T >T >T >T >T >T >T >T >T >T >T >T >T >T >T >T >T >T >T >T >T >T >T >T >T >T >T >T >T >T >T >T >T >T >T >T >T >T >T >T >T >T >T >T >T >T >T >T >T >T >T >T >T >T >T >T >T >T >T >T >T >T >T >T >T >T >T >T >T >T >T >T >T >T >T >T >T >T >T >T >T >T >T >T >T >T >T >T >T >T >T >T >T >T >T >T >T >T >T >T >T >T >T >T >T >T >T >T >T >T >T >T >T >T >T >T >T >T >T >T >T >T >T >T >T >T >T >T >T >T >T >T >T >T >T >T >T >T >T >T >T >T >T >T >T >T >T >T >T >T >T >T >T >T >T >T >T >T >T >T >T >T >T >T >T >T >T >T >T >T >T >T >T >T   O@ O@ O@ O@ O@ O@ O@ O@ O@ O@ O@ O@ O@ O@ O@ O@ O@ O@ O@ O@ O@ O@ O@ O@ O@ O@ O@ O@ O@ O@ O@ O@ O@ O@ O@ O@ O@ O@ O@ O@ O@ O@ O@ O@ O@ O@ O@ O@ O@ O@ O@ O@ O@ O@ O@ O@ O@ O@ O@ O@ O@ O@ O@ O@ O@ O@ O@ O@ O@ O@ O@ O@ O@ O@ O@ O@ O@ O@ O@ O@ O@ O@ O@ O@ O@ O@ O@ O@ O@ O@ O@ O@ O@ O@ O@ O@ O@ O@ O@ O@ O@ O@ O@ O@ O@ O@ O@ O@ O@ O@ O@ O@ O@ O@ O@ O@ O@ O@ O@ O@ O@ O@ O@ O@ O@ O@ O@ O@ O@ O@ O@ O@ O@ O@ O@ O@ O@ O@ O@ O@ O@ O@ O@ O@ O@ O@ O@ O@ O@ O@ O@ O@ O@ O@ O@ O@ O@ O@ O@ O@ O@ O@ O@ O@ O@ O@ O@ O@ O@ O@ O@ O@ O@ O@ O@ O@ O@ O@ O@ O@ O@ O@ O@ O@ O@ O@   QA QA QA QA QA QA QA QA QA QA QA QA QA QA QA QA QA QA QA QA QA QA QA QA QA QA QA QA QA QA QA QA QA QA QA QA QA QA QA QA QA QA QA QA QA QA QA QA QA QA QA QA QA QA QA QA QA QA QA QA QA QA QA QA QA QA QA QA QA QA QA QA QA QA QA QA QA QA QA QA QA QA QA QA QA QA QA QA QA QA QA QA QA QA QA QA QA QA QA QA QA QA QA QA QA QA QA QA QA QA QA QA QA QA QA QA QA QA QA QA QA QA QA QA QA QA QA QA QA QA QA QA QA QA QA QA QA QA QA QA QA QA QA QA QA QA QA QA QA QA QA QA QA QA QA QA QA QA QA QA QA QA QA QA QA QA QA QA QA QA QA QA QA QA QA QA QA QA QA QA QA QA QA QA QA QA A A LA LA LA LA LA LA LA LA LA LA LA LA LA LA LA LA LA LA LA LA LA LA LA LA LA LA LA LA LA LA LA LA LA LA LA LA LA LA LA LA LA LA LA LA LA LA LA LA LA LA LA LA LA LA LA LA LA LA LA LA LA LA LA LA LA LA LA LA LA LA LA LA LA LA LA LA LA LA LA LA LA LA LA LA LA LA LA LA LA LA LA LA LA LA LA LA LA LA LA LA LA LA LA LA LA LA LA LA LA LA LA LA LA LA LA LA LA LA LA LA LA LA LA LA LA LA LA LA LA LA LA LA LA LA LA LA LA LA LA LA LA LA LA LA LA LA LA LA LA LA LA LA LA LA LA LA LA LA LA LA LA LA LA LA LA LA LA LA LA LA LA LA LA LA LA LA LA LA LA LA LA LA LA LA LA LA   M: M: M: M: M: M: M: M: M: M: M: M: M: M: M: M: M: M: M: M: M: M: M: M: M: M: M: M: M: M: M: M: M: M: M: M: M: M: M: M: M: M: M: M: M: M: M: M: M: M: M: M: M: M: M: M: M: M: M: M: M: M: M: M: M: M: M: M: M: M: M: M: M: M: M: M: M: M: M: M: M: M: M: M: M: M: M: M: M: M: M: M: M: M: M: M: M: M: M: M: M: M: M: M: M: M: M: M: M: M: M: M: M: M: M: M: M: M: M: M: M: M: M: M: M: M: M: M: M: M: M: M: M: M: M: M: M: M: M: M: M: M: M: M: M: M: M: M: M: M: M: M: M: M: M: M: M: M: M: M: M: M: M: M: M: M: M: M: M: M: M: M: M: M: M: M: M: M: M: M: M: M: M: M: M: M: : : R: R: R: R: R: R: R: R: R: R: R: R: R: R: R: R: R: R: R: R: R: R: R: R: R: R: R: R: R: R: R: R: R: R: R: R: R: R: R: R: R: R: R: R: R: R: R: R: R: R: R: R: R: R: R: R: R: R: R: R: R: R: R: R: R: R: R: R: R: R: R: R: R: R: R: R: R: R: R: R: R: R: R: R: R: R: R: R: R: R: R: R: R: R: R: R: R: R: R: R: R: R: R: R: R: R: R: R: R: R: R: R: R: R: R: R: R: R: R: R: R: R: R: R: R: R: R: R: R: R: R: R: R: R: R: R: R: R: R: R: R: R: R: R: R: R: R: R: R: R: R: R: R: R: R: R: R: R: R: R: R: R: R: R: R: R: R: R: R: R: R: R: R: R: R: R: R: R: R: R: R: R: R: R: R: R:   QL< QL< QL< QL< QL< QL< QL< QL< QL< QL< QL< QL< QL< QL< QL< QL< QL< QL< QL< QL< QL< QL< QL< QL< QL< QL< QL< QL< QL< QL< QL< QL< QL< QL< QL< QL< QL< QL< QL< QL< QL< QL< QL< QL< QL< QL< QL< QL< QL< QL< QL< QL< QL< QL< QL< QL< QL< QL< QL< QL< QL< QL< QL< QL< QL< QL< QL< QL< QL< QL< QL< QL< QL< QL< QL< QL< QL< QL< QL< QL< QL< QL< QL< QL< QL< QL< QL< QL< QL< QL< QL< QL< QL< QL< QL< QL< QL< QL< QL< QL< QL< QL< QL< QL< QL< QL< QL< QL< QL< QL< QL< QL< QL< QL< QL< QL< QL< QL< QL< QL< QL< QL< QL< QL< QL< QL< QL< QL< QL< QL< QL< QL< QL< QL< QL< QL< QL< QL< QL< QL< QL< QL< QL< QL< QL< QL< QL< QL< QL< QL< QL< QL< QL< QL< QL< QL< QL< QL< QL< QL< QL< QL< QL< QL< QL< QL< QL< QL< QL< QL< L< L< L< L< OL< OL< OL< OL< OL< OL< OL< OL< OL< OL< OL< OL< OL< OL< OL< OL< OL< OL< OL< OL< OL< OL< OL< OL< OL< OL< OL< OL< OL< OL< OL< OL< OL< OL< OL< OL< OL< OL< OL< OL< OL< OL< OL< OL< OL< OL< OL< OL< OL< OL< OL< OL< OL< OL< OL< OL< OL< OL< OL< OL< OL< OL< OL< OL< OL< OL< OL< OL< OL< OL< OL< OL< OL< OL< OL< OQL< OQL< OQL< OQL< OQL< OQL< OQL< OQL< OQL< OQL< OQL< OQL< OQL< OQL< OQL< OQL< OQL< QL< QL< QL< QL< QL< QL< QL< QL< QL< QL< QL< QL< QL< QL< QL< QL< QL< QL< QL< QL< QL< QL< QL< QL< QL< QL< QL< QL< QL< QL< QL< QL< QL< QL< QL< QL< QL< QL< QL< QL< QL< QL< QL< QL< QL< QL< QL< QL< QL< QL< QL< QL< QL< QL< QL< QL< QOL< QOL< QOL< QOL< QOL< QOL< QOL< QOL< QOL< QOL< QOL< QOL< QOL< QOL< QOL< QOL< QOL< QOL< QOL< OL< OL< OL< OL< OL< OL< OL< OL< OL< OL< OL< OL< OL< OL< OL< OL< OL< OL< OL< OL< OL< OL< OL< OL< OL< OL< OL< OL< OL< OL< OL< OL< OL< OL< OL< O0L< O0L< O0L< O0L< O0L< O0L< O0L< O0L< O0L< O0L< O0L< O0L< O0L< O0L< O0L< O0L< O0L< O0L< O0L< O0L< OQ0L< OQ0L< OQ0L< OQ0L< OQ0L< OQ0L< OQ0L< OQ0L< OQ0L< OQ0L< OQ0L< OQ0L< OQ0L< OQ0L< OQ0L< OQ0L< OQ0L< OQ0L< Q0L< Q0L< Q0L< Q0L< Q0L< Q0L< Q0L< Q0L< Q0L< Q0L< Q0L< Q0L< Q0L< Q0L< Q0L< Q0L< Q0L< Q0L< Q0L< Q0L< Q0L< Q0L< Q0L< Q0L< Q0L< Q0L< Q0L< Q0L< Q0L< Q0L< Q0L< Q0L< Q0L< Q0L< Q0L< Q0L< Q0L< Q0L< Q0L< Q0L< Q0L< Q0L< Q0L< Q0L< Q0L< Q0L< Q0L< Q0L< Q0L< Q0L< Q0L< Q0L< Q0L< Q0L< Q0L< Q0L< QO0L< QO0L< QO0L< QO0L< QO0L< QO0L< QO0L< QO0L< QO0L< QO0L< QO0L< QO0L< QO0L< QO0L< QO0L< QO0L< QO0L< QO0L< O0L< O0L< O0L< O0L< O0L< O0L< O0L< O0L< O0L< O0L< O0L< O0L< O0L< O0L< O0L< O0L< O0L< O0L< O0L< O0L< O0L< O0L< O0L< O0L< O0L< O0L< O0L< O0L< O0L< O0L< O0L< O0L< O0L< O0L< O0L< O0L< O0L< O0L< O0L< O0L< O0L< O0L< O0L< O0L< O0L< O0L< O0L< O0L< O0L< O0L< O0L< O0L< O0L< O0L< O0L< O0L< O0L< O0L< O0L< O0L< O0L< O0L< O0L< O0L< O0L< O0L< O0L< O0L< O0L< O0L< O0L< O0L< O0L< O0L< 0L< M0L< M0L< M0L< M0L< M0L< M0L< M0L< M0L< M0L< M0L< M0L< M0L< M0L< M0L< M0L< M0L< M0L< M0L< M0L< M0L< M0L< M0L< M0L< M0L< M0L< M0L< M0L< M0L< M0L< M0L< M0L< M0L< M0L< M0L< M0L< M0L< M0L< M0L< M0L< M0L< M0L< M0L< M0L< M0L< M0L< M0L< M0L< M0L< M0L< M0L< M0L< M0L< M0L< M0L< M0L< M0L< M0L< M0L< M0L< M0L< M0L< M0L< M0L< M0L< M0L< M0L< M0L< M0L< M0L< M0L< M0L< M0L< M0L< M0L< M0L< M0L< M0L< M0L< M0L< M0L< M0L< M0L< M0L< M0L< M0L< M0L< M0L< M0L< M0L< M0L< M0L< M0L< 0L< 0L< O0L< O0L< O0L< O0L< O0L< O0L< O0L< O0L< O0L< O0L< O0L< O0L< O0L< O0L< O0L< O0L< O0L< O0L< O0L< O0L< O0L< O0L< O0L< O0L< O0L< O0L< O0L< O0L< O0L< O0L< O0L< O0L< O0L< O0L< O0L< O0L< O0L< O0L< O0L< O0L< O0L< O0L< O0L< O0L< O0L< O0L< O0L< O0L< O0L< O0L< O0L< O0L< O0L< O0L< O0L< O0L< O0L< O0L< O0L< O0L< O0L< O0L< O0L< O0L< O0L< O0L< O0L< O0L< O0L< O0L< O0L< O0L< O0L< O0L< O0L< O0L< O0L< O0L< O0L< O0L< O0L< O0L< O0L< O0L< O0L< O0L< O0L< O0L< O0L< O0L< O0L< O0L< 0L< L<   5M 5M 5M 5M 5M 5M 5M 5M 5M 5M 5M 5M 5M 5M 5M 5M 5M 5M 5M 5M 5M 5M 5M 5M 5M 5M 5M 5M 5M 5M 5M 5M 5M 5M 5M 5M 5M 5M 5M 5M 5M 5M 5M 5M 5M 5M 5M 5M 5M 5M 5M 5M 5M 5M 5M 5M 5M 5M 5M 5M 5M 5M 5M 5M 5M 5M 5M 5M 5M 5M 5M 5M 5M 5M 5M 5M 5M 5M 5M 5M 5M 5M 5M 5M 5M 5M 5M 5M 5M 5M 5M 5M 5M 5M 5M 5M 5M 5M 5M 5M 5M 5M 5M 5M 5M 5M 5M 5M 5M 5M 5M 5M 5M 5M 5M 5M 5M 5M 5M 5M 5M 5M 5M 5M 5M 5M 5M 5M 5M 5M 5M 5M 5M 5M 5M 5M 5M 5M 5M 5M 5M 5M 5M 5M 5M 5M 5M 5M 5M 5M 5M 5M 5M 5M 5M 5M 5M 5M 5M 5M 5M 5M 5M 5M 5M 5M 5M 5M 5M 5M 5M 5M 5M 5M 5M 5M 5M 5M 5M 5M 5M 5M 5M 5M 5M 5M M M 7M 7M 7M 7M 7M 7M 7M 7M 7M 7M 7M 7M 7M 7M 7M 7M 7M 7M 7M 7M 7M 7M 7M 7M 7M 7M 7M 7M 7M 7M 7M 7M 7M 7M 7M 7M 7M 7M 7M 7M 7M 7M 7M 7M 7M 7M 7M 7M 7M 7M 7M 7M 7M 7M 7M 7M 7M 7M 7M 7M 7M 7M 7M 7M 7M 7M 7M 7M 7M 7M 7M 7M 7M 7M 7M 7M 7M 7M 7M 7M 7M 7M 7M 7M 7M 7M 7M 7M 7M 7M 7M 7M 7M 7M 7M 7M 7M 7M 7M 7M 7M 7M 7M 7M 7M 7M 7M 7M 7M 7M 7M 7M 7M 7M 7M 7M 7M 7M 7M 7M 7M 7M 7M 7M 7M 7M 7M 7M 7M 7M 7M 7M 7M 7M 7M 7M 7M 7M 7M 7M 7M 7M 7M 7M 7M 7M 7M 7M 7M 7M 7M 7M 7M 7M 7M 7M 7M 7M 7M 7M 7M 7M 7M 7M 7M 7M 7M 7M 7M 7M 7M 7M 7M 7M 7M 7M 7M 7M 7M 7M 7M 7M 7M 7M 7M 7M M M 8M 8M 8M 8M 8M 8M 8M 8M 8M 8M 8M 8M 8M 8M 8M 8M 8M 8M 8M 8M 8M 8M 8M 8M 8M 8M 8M 8M 8M 8M 8M 8M 8M 8M 8M 8M 8M 8M 8M 8M 8M 8M 8M 8M 8M 8M 8M 8M 8M 8M 8M 8M 8M 8M 8M 8M 8M 8M 8M 8M 8M 8M 8M 8M 8M 8M 8M 8M 8M 8M 8M 8M 8M 8M 8M 8M 8M 8M 8M 8M 8M 8M 8M 8M 8M 8M 8M 8M 8M 8M 8M 8M 8M 8M 8M 8M 8M 8M 8M 8M 8M 8M 8M 8M 8M 8M 8M 8M 8M 8M 8M 8M 8M 8M 8M 8M 8M 8M 8M 8M 8M 8M 8M 8M 8M 8M 8M 8M 8M 8M 8M 8M 8M 8M 8M 8M 8M 8M 8M 8M 8M 8M 8M 8M 8M 8M 8M 8M 8M 8M 8M 8M 8M 8M 8M 8M 8M 8M 8M 8M 8M 8M 8M 8M 8M 8M 8M 8M 8M 8M 8M 8M 8M 8M 8M 8M 8M 8M 8M 8M 8M 8M 8M 8M 8M 8M M M 7M 7M 7M 7M 7M 7M 7M 7M 7M 7M 7M 7M 7M 7M 7M 7M 7M 7M 7M 7M 7M 7M 7M 7M 7M 7M 7M 7M 7M 7M 7M 7M 7M 7M 7M 7M 7M 7M 7M 7M 7M 7M 7M 7M 7M 7M 7M 7M 7M 7M 7M 7M 7M 7M 7M 7M 7M 7M 7M 7M 7M 7M 7M 7M 7M 7M 7M 7M 7M 7M 7M 7M 7M 7M 7M 7M 7M 7M 7M 7M 7M 7M 7M 7M 7M 7M 7M 7M 7M 7M 7M 7M 7M 7M 7M 7M 7M 7M 7M 7M 7M 7M 7M 7M 7M 7M 7M 7M 7M 7M 7M 7M 7M 7M 7M 7M 7M 7M 7M 7M 7M 7M 7M 7M 7M 7M 7M 7M 7M 7M 7M 7M 7M 7M 7M 7M 7M 7M 7M 7M 7M 7M 7M 7M 7M 7M 7M 7M 7M 7M 7M 7M 7M 7M 7M 7M 7M 7M 7M 7M 7M 7M 7M 7M 7M 7M 7M 7M 7M 7M 7M 7M 7M 7M 7M 7M 7M 7M 7M 7M 7M 7M 7M 7M 7M 7M M M M5 M5 M5 M5 M5 M5 M5 M5 M5 M5 M5 M5 M5 M5 M5 M5 M5 M5 M5 M5 M5 M5 M5 M5 M5 M5 M5 M5 M5 M5 M5 M5 M5 M5 M5 M5 M5 M5 M5 M5 M5 M5 M5 M5 M5 M5 M5 M5 M5 M5 M5 M5 M5 M5 M5 M5 M5 M5 M5 M5 M5 M5 M5 M5 M5 M5 M5 M5 M5 M5 M5 M5 M5 M5 M5 M5 M5 M5 M5 M5 M5 M5 M5 M5 M5 M5 M5 M5 M5 M5 M5 M5 M5 M5 M5 M5 M5 M5 M5 M5 M5 M5 M5 M5 M5 M5 M5 M5 M5 M5 M5 M5 M5 M5 M5 M5 M5 M5 M5 M5 M5 M5 M5 M5 M5 M5 M5 M5 M5 M5 M5 M5 M5 M5 M5 M5 M5 M5 M5 M5 M5 M5 M5 M5 M5 M5 M5 M5 M5 M5 M5 M5 M5 M5 M5 M5 M5 M5 M5 M5 M5 M5 M5 M5 M5 M5 M5 M5 M5 M5 M5 M5 M5 M5 M5 M5 M5 M5 M5 M5 M5 M5 M5 M5 M5 5   O3 O3 O3 O3 O3 O3 O3 O3 O3 O3 O3 O3 O3 O3 O3 O3 O3 O3 O3 O3 O3 O3 O3 O3 O3 O3 O3 O3 O3 O3 O3 O3 O3 O3 O3 O3 O3 O3 O3 O3 O3 O3 O3 O3 O3 O3 O3 O3 O3 O3 O3 O3 O3 O3 O3 O3 O3 O3 O3 O3 O3 O3 O3 O3 O3 O3 O3 O3 O3 O3 O3 O3 O3 O3 O3 O3 O3 O3 O3 O3 O3 O3 O3 O3 O3 O3 O3 O3 O3 O3 O3 O3 O3 O3 O3 O3 O3 O3 O3 O3 O3 O3 O3 O3 O3 O3 O3 O3 O3 O3 O3 O3 O3 O3 O3 O3 O3 O3 O3 O3 O3 O3 O3 O3 O3 O3 O3 O3 O3 O3 O3 O3 O3 O3 O3 O3 O3 O3 O3 O3 O3 O3 O3 O3 O3 O3 O3 O3 O3 O3 O3 O3 O3 O3 O3 O3 O3 O3 O3 O3 O3 O3 O3 O3 O3 O3 O3 O3 O3 O3 O3 O3 O3 O3 O3 O3 O3 O3 O3 O3 O3 O3 O3 O3 O3 O3   P2 P2 P2 P2 P2 P2 P2 P2 P2 P2 P2 P2 P2 P2 P2 P2 P2 P2 P2 P2 P2 P2 P2 P2 P2 P2 P2 P2 P2 P2 P2 P2 P2 P2 P2 P2 P2 P2 P2 P2 P2 P2 P2 P2 P2 P2 P2 P2 P2 P2 P2 P2 P2 P2 P2 P2 P2 P2 P2 P2 P2 P2 P2 P2 P2 P2 P2 P2 P2 P2 P2 P2 P2 P2 P2 P2 P2 P2 P2 P2 P2 P2 P2 P2 P2 P2 P2 P2 P2 P2 P2 P2 P2 P2 P2 P2 P2 P2 P2 P2 P2 P2 P2 P2 P2 P2 P2 P2 P2 P2 P2 P2 P2 P2 P2 P2 P2 P2 P2 P2 P2 P2 P2 P2 P2 P2 P2 P2 P2 P2 P2 P2 P2 P2 P2 P2 P2 P2 P2 P2 P2 P2 P2 P2 P2 P2 P2 P2 P2 P2 P2 P2 P2 P2 P2 P2 P2 P2 P2 P2 P2 P2 P2 P2 P2 P2 P2 P2 P2 P2 P2 P2 P2 P2 P2 P2 P2 P2 P2 P2 P2 P2 P2 P2 P2 P2  O3 O3 O3 O3 O3 O3 O3 O3 O3 O3 O3 O3 O3 O3 O3 O3 O3 O3 O3 O3 O3 O3 O3 O3 O3 O3 O3 O3 O3 O3 O3 O3 O3 O3 O3 O3 O3 O3 O3 O3 O3 O3 O3 O3 O3 O3 O3 O3 O3 O3 O3 O3 O3 O3 O3 O3 O3 O3 O3 O3 O3 O3 O3 O3 O3 O3 O3 O3 O3 O3 O3 O3 O3 O3 O3 O3 O3 O3 O3 O3 O3 O3 O3 O3 O3 O3 O3 O3 O3 O3 O3 O3 O3 O3 O3 O3 O3 O3 O3 O3 O3 O3 O3 O3 O3 O3 O3 O3 O3 O3 O3 O3 O3 O3 O3 O3 O3 O3 O3 O3 O3 O3 O3 O3 O3 O3 O3 O3 O3 O3 O3 O3 O3 O3 O3 O3 O3 O3 O3 O3 O3 O3 O3 O3 O3 O3 O3 O3 O3 O3 O3 O3 O3 O3 O3 O3 O3 O3 O3 O3 O3 O3 O3 O3 O3 O3 O3 O3 O3 O3 O3 O3 O3 O3 O3 O3 O3 O3 O3 O3 O3 O3 O3 O3 O3 O3   M/ M/ M/ M/ M/ M/ M/ M/ M/ M/ M/ M/ M/ M/ M/ M/ M/ M/ M/ M/ M/ M/ M/ M/ M/ M/ M/ M/ M/ M/ M/ M/ M/ M/ M/ M/ M/ M/ M/ M/ M/ M/ M/ M/ M/ M/ M/ M/ M/ M/ M/ M/ M/ M/ M/ M/ M/ M/ M/ M/ M/ M/ M/ M/ M/ M/ M/ M/ M/ M/ M/ M/ M/ M/ M/ M/ M/ M/ M/ M/ M/ M/ M/ M/ M/ M/ M/ M/ M/ M/ M/ M/ M/ M/ M/ M/ M/ M/ M/ M/ M/ M/ M/ M/ M/ M/ M/ M/ M/ M/ M/ M/ M/ M/ M/ M/ M/ M/ M/ M/ M/ M/ M/ M/ M/ M/ M/ M/ M/ M/ M/ M/ M/ M/ M/ M/ M/ M/ M/ M/ M/ M/ M/ M/ M/ M/ M/ M/ M/ M/ M/ M/ M/ M/ M/ M/ M/ M/ M/ M/ M/ M/ M/ M/ M/ M/ M/ M/ M/ M/ M/ M/ M/ M/ M/ M/ M/ M/ M/ M/ M/ M/ M/ M/ M/ M/ / / K/ K/ K/ K/ K/ K/ K/ K/ K/ K/ K/ K/ K/ K/ K/ K/ K/ K/ K/ K/ K/ K/ K/ K/ K/ K/ K/ K/ K/ K/ K/ K/ K/ K/ K/ K/ K/ K/ K/ K/ K/ K/ K/ K/ K/ K/ K/ K/ K/ K/ K/ K/ K/ K/ K/ K/ K/ K/ K/ K/ K/ K/ K/ K/ K/ K/ K/ K/ K/ K/ K/ K/ K/ K/ K/ K/ K/ K/ K/ K/ K/ K/ K/ K/ K/ K/ K/ K/ K/ K/ K/ K/ K/ K/ K/ K/ K/ K/ K/ K/ K/ K/ K/ K/ K/ K/ K/ K/ K/ K/ K/ K/ K/ K/ K/ K/ K/ K/ K/ K/ K/ K/ K/ K/ K/ K/ K/ K/ K/ K/ K/ K/ K/ K/ K/ K/ K/ K/ K/ K/ K/ K/ K/ K/ K/ K/ K/ K/ K/ K/ K/ K/ K/ K/ K/ K/ K/ K/ K/ K/ K/ K/ K/ K/ K/ K/ K/ K/ K/ K/ K/ K/ K/ K/ K/ K/ K/ K/ K/ K/ K/ K/ K/ K/ K/ K/   J0 J0 J0 J0 J0 J0 J0 J0 J0 J0 J0 J0 J0 J0 J0 J0 J0 J0 J0 J0 J0 J0 J0 J0 J0 J0 J0 J0 J0 J0 J0 J0 J0 J0 J0 J0 J0 J0 J0 J0 J0 J0 J0 J0 J0 J0 J0 J0 J0 J0 J0 J0 J0 J0 J0 J0 J0 J0 J0 J0 J0 J0 J0 J0 J0 J0 J0 J0 J0 J0 J0 J0 J0 J0 J0 J0 J0 J0 J0 J0 J0 J0 J0 J0 J0 J0 J0 J0 J0 J0 J0 J0 J0 J0 J0 J0 J0 J0 J0 J0 J0 J0 J0 J0 J0 J0 J0 J0 J0 J0 J0 J0 J0 J0 J0 J0 J0 J0 J0 J0 J0 J0 J0 J0 J0 J0 J0 J0 J0 J0 J0 J0 J0 J0 J0 J0 J0 J0 J0 J0 J0 J0 J0 J0 J0 J0 J0 J0 J0 J0 J0 J0 J0 J0 J0 J0 J0 J0 J0 J0 J0 J0 J0 J0 J0 J0 J0 J0 J0 J0 J0 J0 J0 J0 J0 J0 J0 J0 J0 J0 J0 J0 J0 J0 J0 J0 0 0 K0 K0 K0 K0 K0 K0 K0 K0 K0 K0 K0 K0 K0 K0 K0 K0 K0 K0 K0 K0 K0 K0 K0 K0 K0 K0 K0 K0 K0 K0 K0 K0 K0 K0 K0 K0 K0 K0 K0 K0 K0 K0 K0 K0 K0 K0 K0 K0 K0 K0 K0 K0 K0 K0 K0 K0 K0 K0 K0 K0 K0 K0 K0 K0 K0 K0 K0 K0 K0 K0 K0 K0 K0 K0 K0 K0 K0 K0 K0 K0 K0 K0 K0 K0 K0 K0 K0 K0 K0 K0 K0 K0 K0 K0 K0 K0 K0 K0 K0 K0 K0 K0 K0 K0 K0 K0 K0 K0 K0 K0 K0 K0 K0 K0 K0 K0 K0 K0 K0 K0 K0 K0 K0 K0 K0 K0 K0 K0 K0 K0 K0 K0 K0 K0 K0 K0 K0 K0 K0 K0 K0 K0 K0 K0 K0 K0 K0 K0 K0 K0 K0 K0 K0 K0 K0 K0 K0 K0 K0 K0 K0 K0 K0 K0 K0 K0 K0 K0 K0 K0 K0 K0 K0 K0 K0 K0 K0 K0 K0 K0 K0 K0 K0 K0 K0 K0   H+ H+ H+ H+ H+ H+ H+ H+ H+ H+ H+ H+ H+ H+ H+ H+ H+ H+ H+ H+ H+ H+ H+ H+ H+ H+ H+ H+ H+ H+ H+ H+ H+ H+ H+ H+ H+ H+ H+ H+ H+ H+ H+ H+ H+ H+ H+ H+ H+ H+ H+ H+ H+ H+ H+ H+ H+ H+ H+ H+ H+ H+ H+ H+ H+ H+ H+ H+ H+ H+ H+ H+ H+ H+ H+ H+ H+ H+ H+ H+ H+ H+ H+ H+ H+ H+ H+ H+ H+ H+ H+ H+ H+ H+ H+ H+ H+ H+ H+ H+ H+ H+ H+ H+ H+ H+ H+ H+ H+ H+ H+ H+ H+ H+ H+ H+ H+ H+ H+ H+ H+ H+ H+ H+ H+ H+ H+ H+ H+ H+ H+ H+ H+ H+ H+ H+ H+ H+ H+ H+ H+ H+ H+ H+ H+ H+ H+ H+ H+ H+ H+ H+ H+ H+ H+ H+ H+ H+ H+ H+ H+ H+ H+ H+ H+ H+ H+ H+ H+ H+ H+ H+ H+ H+ H+ H+ H+ H+ H+ H+ H+ H+ H+ H+ H+ H+ + + G+ G+ G+ G+ G+ G+ G+ G+ G+ G+ G+ G+ G+ G+ G+ G+ G+ G+ G+ G+ G+ G+ G+ G+ G+ G+ G+ G+ G+ G+ G+ G+ G+ G+ G+ G+ G+ G+ G+ G+ G+ G+ G+ G+ G+ G+ G+ G+ G+ G+ G+ G+ G+ G+ G+ G+ G+ G+ G+ G+ G+ G+ G+ G+ G+ G+ G+ G+ G+ G+ G+ G+ G+ G+ G+ G+ G+ G+ G+ G+ G+ G+ G+ G+ G+ G+ G+ G+ G+ G+ G+ G+ G+ G+ G+ G+ G+ G+ G+ G+ G+ G+ G+ G+ G+ G+ G+ G+ G+ G+ G+ G+ G+ G+ G+ G+ G+ G+ G+ G+ G+ G+ G+ G+ G+ G+ G+ G+ G+ G+ G+ G+ G+ G+ G+ G+ G+ G+ G+ G+ G+ G+ G+ G+ G+ G+ G+ G+ G+ G+ G+ G+ G+ G+ G+ G+ G+ G+ G+ G+ G+ G+ G+ G+ G+ G+ G+ G+ G+ G+ G+ G+ G+ G+ G+ G+ G+ G+ G+ G+ G+ G+ G+ G+ G+ G+   E7 E7 E7 E7 E7 E7 E7 E7 E7 E7 E7 E7 E7 E7 E7 E7 E7 E7 E7 E7 E7 E7 E7 E7 E7 E7 E7 E7 E7 E7 E7 E7 E7 E7 E7 E7 E7 E7 E7 E7 E7 E7 E7 E7 E7 E7 E7 E7 E7 E7 E7 E7 E7 E7 E7 E7 E7 E7 E7 E7 E7 E7 E7 E7 E7 E7 E7 E7 E7 E7 E7 E7 E7 E7 E7 E7 E7 E7 E7 E7 E7 E7 E7 E7 E7 E7 E7 E7 E7 E7 E7 E7 E7 E7 E7 E7 E7 E7 E7 E7 E7 E7 E7 E7 E7 E7 E7 E7 E7 E7 E7 E7 E7 E7 E7 E7 E7 E7 E7 E7 E7 E7 E7 E7 E7 E7 E7 E7 E7 E7 E7 E7 E7 E7 E7 E7 E7 E7 E7 E7 E7 E7 E7 E7 E7 E7 E7 E7 E7 E7 E7 E7 E7 E7 E7 E7 E7 E7 E7 E7 E7 E7 E7 E7 E7 E7 E7 E7 E7 E7 E7 E7 E7 E7 E7 E7 E7 E7 E7 E7 E7 E7 E7 E7 E7 E7   C5 C5 C5 C5 C5 C5 C5 C5 C5 C5 C5 C5 C5 C5 C5 C5 C5 C5 C5 C5 C5 C5 C5 C5 C5 C5 C5 C5 C5 C5 C5 C5 C5 C5 C5 C5 C5 C5 C5 C5 C5 C5 C5 C5 C5 C5 C5 C5 C5 C5 C5 C5 C5 C5 C5 C5 C5 C5 C5 C5 C5 C5 C5 C5 C5 C5 C5 C5 C5 C5 C5 C5 C5 C5 C5 C5 C5 C5 C5 C5 C5 C5 C5 C5 C5 C5 C5 C5 C5 C5 C5 C5 C5 C5 C5 C5 C5 C5 C5 C5 C5 C5 C5 C5 C5 C5 C5 C5 C5 C5 C5 C5 C5 C5 C5 C5 C5 C5 C5 C5 C5 C5 C5 C5 C5 C5 C5 C5 C5 C5 C5 C5 C5 C5 C5 C5 C5 C5 C5 C5 C5 C5 C5 C5 C5 C5 C5 C5 C5 C5 C5 C5 C5 C5 C5 C5 C5 C5 C5 C5 C5 C5 C5 C5 C5 C5 C5 C5 C5 C5 C5 C5 C5 C5 C5 C5 C5 C5 C5 C5 C5 C5 C5 C5 C5 C5   H3 H3 H3 H3 H3 H3 H3 H3 H3 H3 H3 H3 H3 H3 H3 H3 H3 H3 H3 H3 H3 H3 H3 H3 H3 H3 H3 H3 H3 H3 H3 H3 H3 H3 H3 H3 H3 H3 H3 H3 H3 H3 H3 H3 H3 H3 H3 H3 H3 H3 H3 H3 H3 H3 H3 H3 H3 H3 H3 H3 H3 H3 H3 H3 H3 H3 H3 H3 H3 H3 H3 H3 H3 H3 H3 H3 H3 H3 H3 H3 H3 H3 H3 H3 H3 H3 H3 H3 H3 H3 H3 H3 H3 H3 H3 H3 H3 H3 H3 H3 H3 H3 H3 H3 H3 H3 H3 H3 H3 H3 H3 H3 H3 H3 H3 H3 H3 H3 H3 H3 H3 H3 H3 H3 H3 H3 H3 H3 H3 H3 H3 H3 H3 H3 H3 H3 H3 H3 H3 H3 H3 H3 H3 H3 H3 H3 H3 H3 H3 H3 H3 H3 H3 H3 H3 H3 H3 H3 H3 H3 H3 H3 H3 H3 H3 H3 H3 H3 H3 H3 H3 H3 H3 H3 H3 H3 H3 H3 H3 H3 H3 H3 H3 H3 H3 H3 3 3 G3 G3 G3 G3 G3 G3 G3 G3 G3 G3 G3 G3 G3 G3 G3 G3 G3 G3 G3 G3 G3 G3 G3 G3 G3 G3 G3 G3 G3 G3 G3 G3 G3 G3 G3 G3 G3 G3 G3 G3 G3 G3 G3 G3 G3 G3 G3 G3 G3 G3 G3 G3 G3 G3 G3 G3 G3 G3 G3 G3 G3 G3 G3 G3 G3 G3 G3 G3 G3 G3 G3 G3 G3 G3 G3 G3 G3 G3 G3 G3 G3 G3 G3 G3 G3 G3 G3 G3 G3 G3 G3 G3 G3 G3 G3 G3 G3 G3 G3 G3 G3 G3 G3 G3 G3 G3 G3 G3 G3 G3 G3 G3 G3 G3 G3 G3 G3 G3 G3 G3 G3 G3 G3 G3 G3 G3 G3 G3 G3 G3 G3 G3 G3 G3 G3 G3 G3 G3 G3 G3 G3 G3 G3 G3 G3 G3 G3 G3 G3 G3 G3 G3 G3 G3 G3 G3 G3 G3 G3 G3 G3 G3 G3 G3 G3 G3 G3 G3 G3 G3 G3 G3 G3 G3 G3 G3 G3 G3 G3 G3 G3 G3 G3 G3 G3 G3   H8 H8 H8 H8 H8 H8 H8 H8 H8 H8 H8 H8 H8 H8 H8 H8 H8 H8 H8 H8 H8 H8 H8 H8 H8 H8 H8 H8 H8 H8 H8 H8 H8 H8 H8 H8 H8 H8 H8 H8 H8 H8 H8 H8 H8 H8 H8 H8 H8 H8 H8 H8 H8 H8 H8 H8 H8 H8 H8 H8 H8 H8 H8 H8 H8 H8 H8 H8 H8 H8 H8 H8 H8 H8 H8 H8 H8 H8 H8 H8 H8 H8 H8 H8 H8 H8 H8 H8 H8 H8 H8 H8 H8 H8 H8 H8 H8 H8 H8 H8 H8 H8 H8 H8 H8 H8 H8 H8 H8 H8 H8 H8 H8 H8 H8 H8 H8 H8 H8 H8 H8 H8 H8 H8 H8 H8 H8 H8 H8 H8 H8 H8 H8 H8 H8 H8 H8 H8 H8 H8 H8 H8 H8 H8 H8 H8 H8 H8 H8 H8 H8 H8 H8 H8 H8 H8 H8 H8 H8 H8 H8 H8 H8 H8 H8 H8 H8 H8 H8 H8 H8 H8 H8 H8 H8 H8 H8 H8 H8 H8 H8 H8 H8 H8 H8 H8 8 K8 K8 K8 K8 K8 K8 K8 K8 K8 K8 K8 K8 K8 K8 K8 K8 K8 K8 K8 K8 K8 K8 K8 K8 K8 K8 K8 K8 K8 K8 K8 K8 K8 K8 K8 K8 K8 K8 K8 K8 K8 K8 K8 K8 K8 K8 K8 K8 K8 K8 K8 K8 K8 K8 K8 K8 K8 K8 K8 K8 K8 K8 K8 K8 K8 K8 K8 K8 K8 K8 K8 K8 K8 K8 K8 K8 K8 K8 K8 K8 K8 K8 K8 K8 K8 K8 K8 K8 K8 K8 K8 K8 K8 K8 K8 K8 K8 K8 K8 K8 K8 K8 K8 K8 K8 K8 K8 K8 K8 K8 K8 K8 K8 K8 K8 K8 K8 K8 K8 K8 K8 K8 K8 K8 K8 K8 K8 K8 K8 K8 K8 K8 K8 K8 K8 K8 K8 K8 K8 K8 K8 K8 K8 K8 K8 K8 K8 K8 K8 K8 K8 K8 K8 K8 K8 K8 K8 K8 K8 K8 K8 K8 K8 K8 K8 K8 K8 K8 K8 K8 K8 K8 K8 K8 K8 K8 K8 K8 K8 K8 K8 K8 K8 K8 K8 K8 8  J5 J5 J5 J5 J5 J5 J5 J5 J5 J5 J5 J5 J5 J5 J5 J5 J5 J5 J5 J5 J5 J5 J5 J5 J5 J5 J5 J5 J5 J5 J5 J5 J5 J5 J5 J5 J5 J5 J5 J5 J5 J5 J5 J5 J5 J5 J5 J5 J5 J5 J5 J5 J5 J5 J5 J5 J5 J5 J5 J5 J5 J5 J5 J5 J5 J5 J5 J5 J5 J5 J5 J5 J5 J5 J5 J5 J5 J5 J5 J5 J5 J5 J5 J5 J5 J5 J5 J5 J5 J5 J5 J5 J5 J5 J5 J5 J5 J5 J5 J5 J5 J5 J5 J5 J5 J5 J5 J5 J5 J5 J5 J5 J5 J5 J5 J5 J5 J5 J5 J5 J5 J5 J5 J5 J5 J5 J5 J5 J5 J5 J5 J5 J5 J5 J5 J5 J5 J5 J5 J5 J5 J5 J5 J5 J5 J5 J5 J5 J5 J5 J5 J5 J5 J5 J5 J5 J5 J5 J5 J5 J5 J5 J5 J5 J5 J5 J5 J5 J5 J5 J5 J5 J5 J5 J5 J5 J5 J5 J5 J5 J5 J5 J5 J5 J5 J5 5 5 K5 K5 K5 K5 K5 K5 K5 K5 K5 K5 K5 K5 K5 K5 K5 K5 K5 K5 K5 K5 K5 K5 K5 K5 K5 K5 K5 K5 K5 K5 K5 K5 K5 K5 K5 K5 K5 K5 K5 K5 K5 K5 K5 K5 K5 K5 K5 K5 K5 K5 K5 K5 K5 K5 K5 K5 K5 K5 K5 K5 K5 K5 K5 K5 K5 K5 K5 K5 K5 K5 K5 K5 K5 K5 K5 K5 K5 K5 K5 K5 K5 K5 K5 K5 K5 K5 K5 K5 K5 K5 K5 K5 K5 K5 K5 K5 K5 K5 K5 K5 K5 K5 K5 K5 K5 K5 K5 K5 K5 K5 K5 K5 K5 K5 K5 K5 K5 K5 K5 K5 K5 K5 K5 K5 K5 K5 K5 K5 K5 K5 K5 K5 K5 K5 K5 K5 K5 K5 K5 K5 K5 K5 K5 K5 K5 K5 K5 K5 K5 K5 K5 K5 K5 K5 K5 K5 K5 K5 K5 K5 K5 K5 K5 K5 K5 K5 K5 K5 K5 K5 K5 K5 K5 K5 K5 K5 K5 K5 K5 K5 K5 K5 K5 K5 K5 K5   M7 M7 M7 M7 M7 M7 M7 M7 M7 M7 M7 M7 M7 M7 M7 M7 M7 M7 M7 M7 M7 M7 M7 M7 M7 M7 M7 M7 M7 M7 M7 M7 M7 M7 M7 M7 M7 M7 M7 M7 M7 M7 M7 M7 M7 M7 M7 M7 M7 M7 M7 M7 M7 M7 M7 M7 M7 M7 M7 M7 M7 M7 M7 M7 M7 M7 M7 M7 M7 M7 M7 M7 M7 M7 M7 M7 M7 M7 M7 M7 M7 M7 M7 M7 M7 M7 M7 M7 M7 M7 M7 M7 M7 M7 M7 M7 M7 M7 M7 M7 M7 M7 M7 M7 M7 M7 M7 M7 M7 M7 M7 M7 M7 M7 M7 M7 M7 M7 M7 M7 M7 M7 M7 M7 M7 M7 M7 M7 M7 M7 M7 M7 M7 M7 M7 M7 M7 M7 M7 M7 M7 M7 M7 M7 M7 M7 M7 M7 M7 M7 M7 M7 M7 M7 M7 M7 M7 M7 M7 M7 M7 M7 M7 M7 M7 M7 M7 M7 M7 M7 M7 M7 M7 M7 M7 M7 M7 M7 M7 M7 M7 M7 M7 M7 M7 M7 7 7 J7 J7 J7 J7 J7 J7 J7 J7 J7 J7 J7 J7 J7 J7 J7 J7 J7 J7 J7 J7 J7 J7 J7 J7 J7 J7 J7 J7 J7 J7 J7 J7 J7 J7 J7 J7 J7 J7 J7 J7 J7 J7 J7 J7 J7 J7 J7 J7 J7 J7 J7 J7 J7 J7 J7 J7 J7 J7 J7 J7 J7 J7 J7 J7 J7 J7 J7 J7 J7 J7 J7 J7 J7 J7 J7 J7 J7 J7 J7 J7 J7 J7 J7 J7 J7 J7 J7 J7 J7 J7 J7 J7 J7 J7 J7 J7 J7 J7 J7 J7 J7 J7 J7 J7 J7 J7 J7 J7 J7 J7 J7 J7 J7 J7 J7 J7 J7 J7 J7 J7 J7 J7 J7 J7 J7 J7 J7 J7 J7 J7 J7 J7 J7 J7 J7 J7 J7 J7 J7 J7 J7 J7 J7 J7 J7 J7 J7 J7 J7 J7 J7 J7 J7 J7 J7 J7 J7 J7 J7 J7 J7 J7 J7 J7 J7 J7 J7 J7 J7 J7 J7 J7 J7 J7 J7 J7 J7 J7 J7 J7 J7 J7 J7 J7 J7 J7   M0 M0 M0 M0 M0 M0 M0 M0 M0 M0 M0 M0 M0 M0 M0 M0 M0 M0 M0 M0 M0 M0 M0 M0 M0 M0 M0 M0 M0 M0 M0 M0 M0 M0 M0 M0 M0 M0 M0 M0 M0 M0 M0 M0 M0 M0 M0 M0 M0 M0 M0 M0 M0 M0 M0 M0 M0 M0 M0 M0 M0 M0 M0 M0 M0 M0 M0 M0 M0 M0 M0 M0 M0 M0 M0 M0 M0 M0 M0 M0 M0 M0 M0 M0 M0 M0 M0 M0 M0 M0 M0 M0 M0 M0 M0 M0 M0 M0 M0 M0 M0 M0 M0 M0 M0 M0 M0 M0 M0 M0 M0 M0 M0 M0 M0 M0 M0 M0 M0 M0 M0 M0 M0 M0 M0 M0 M0 M0 M0 M0 M0 M0 M0 M0 M0 M0 M0 M0 M0 M0 M0 M0 M0 M0 M0 M0 M0 M0 M0 M0 M0 M0 M0 M0 M0 M0 M0 M0 M0 M0 M0 M0 M0 M0 M0 M0 M0 M0 M0 M0 M0 M0 M0 M0 M0 M0 M0 M0 M0 M0 M0 M0 M0 M0 M0 M0 0 0 K0 K0 K0 K0 K0 K0 K0 K0 K0 K0 K0 K0 K0 K0 K0 K0 K0 K0 K0 K0 K0 K0 K0 K0 K0 K0 K0 K0 K0 K0 K0 K0 K0 K0 K0 K0 K0 K0 K0 K0 K0 K0 K0 K0 K0 K0 K0 K0 K0 K0 K0 K0 K0 K0 K0 K0 K0 K0 K0 K0 K0 K0 K0 K0 K0 K0 K0 K0 K0 K0 K0 K0 K0 K0 K0 K0 K0 K0 K0 K0 K0 K0 K0 K0 K0 K0 K0 K0 K0 K0 K0 K0 K0 K0 K0 K0 K0 K0 K0 K0 K0 K0 K0 K0 K0 K0 K0 K0 K0 K0 K0 K0 K0 K0 K0 K0 K0 K0 K0 K0 K0 K0 K0 K0 K0 K0 K0 K0 K0 K0 K0 K0 K0 K0 K0 K0 K0 K0 K0 K0 K0 K0 K0 K0 K0 K0 K0 K0 K0 K0 K0 K0 K0 K0 K0 K0 K0 K0 K0 K0 K0 K0 K0 K0 K0 K0 K0 K0 K0 K0 K0 K0 K0 K0 K0 K0 K0 K0 K0 K0 K0 K0 K0 K0 K0 K0   J< J< J< J< J< J< J< J< J< J< J< J< J< J< J< J< J< J< J< J< J< J< J< J< J< J< J< J< J< J< J< J< J< J< J< J< J< J< J< J< J< J< J< J< J< J< J< J< J< J< J< J< J< J< J< J< J< J< J< J< J< J< J< J< J< J< J< J< J< J< J< J< J< J< J< J< J< J< J< J< J< J< J< J< J< J< J< J< J< J< J< J< J< J< J< J< J< J< J< J< J< J< J< J< J< J< J< J< J< J< J< J< J< J< J< J< J< J< J< J< J< J< J< J< J< J< J< J< J< J< J< J< J< J< J< J< J< J< J< J< J< J< J< J< J< J< J< J< J< J< J< J< J< J< J< J< J< J< J< J< J< J< J< J< J< J< J< J< J< J< J< J< J< J< J< J< J< J< J< J< J< J< J< J< J< J<   H: H: H: H: H: H: H: H: H: H: H: H: H: H: H: H: H: H: H: H: H: H: H: H: H: H: H: H: H: H: H: H: H: H: H: H: H: H: H: H: H: H: H: H: H: H: H: H: H: H: H: H: H: H: H: H: H: H: H: H: H: H: H: H: H: H: H: H: H: H: H: H: H: H: H: H: H: H: H: H: H: H: H: H: H: H: H: H: H: H: H: H: H: H: H: H: H: H: H: H: H: H: H: H: H: H: H: H: H: H: H: H: H: H: H: H: H: H: H: H: H: H: H: H: H: H: H: H: H: H: H: H: H: H: H: H: H: H: H: H: H: H: H: H: H: H: H: H: H: H: H: H: H: H: H: H: H: H: H: H: H: H: H: H: H: H: H: H: H: H: H: H: H: H: H: H: H: H: H: H: H: H: H: H: H: H:   J8 J8 J8 J8 J8 J8 J8 J8 J8 J8 J8 J8 J8 J8 J8 J8 J8 J8 J8 J8 J8 J8 J8 J8 J8 J8 J8 J8 J8 J8 J8 J8 J8 J8 J8 J8 J8 J8 J8 J8 J8 J8 J8 J8 J8 J8 J8 J8 J8 J8 J8 J8 J8 J8 J8 J8 J8 J8 J8 J8 J8 J8 J8 J8 J8 J8 J8 J8 J8 J8 J8 J8 J8 J8 J8 J8 J8 J8 J8 J8 J8 J8 J8 J8 J8 J8 J8 J8 J8 J8 J8 J8 J8 J8 J8 J8 J8 J8 J8 J8 J8 J8 J8 J8 J8 J8 J8 J8 J8 J8 J8 J8 J8 J8 J8 J8 J8 J8 J8 J8 J8 J8 J8 J8 J8 J8 J8 J8 J8 J8 J8 J8 J8 J8 J8 J8 J8 J8 J8 J8 J8 J8 J8 J8 J8 J8 J8 J8 J8 J8 J8 J8 J8 J8 J8 J8 J8 J8 J8 J8 J8 J8 J8 J8 J8 J8 J8 J8 J8 J8 J8 J8 J8 J8 J8 J8 J8 J8 J8 J8 J8 J8 J8 J8 J8 J8 8 8 L8 L8 L8 L8 L8 L8 L8 L8 L8 L8 L8 L8 L8 L8 L8 L8 L8 L8 L8 L8 L8 L8 L8 L8 L8 L8 L8 L8 L8 L8 L8 L8 L8 L8 L8 L8 L8 L8 L8 L8 L8 L8 L8 L8 L8 L8 L8 L8 L8 L8 L8 L8 L8 L8 L8 L8 L8 L8 L8 L8 L8 L8 L8 L8 L8 L8 L8 L8 L8 L8 L8 L8 L8 L8 L8 L8 L8 L8 L8 L8 L8 L8 L8 L8 L8 L8 L8 L8 L8 L8 L8 L8 L8 L8 L8 L8 L8 L8 L8 L8 L8 L8 L8 L8 L8 L8 L8 L8 L8 L8 L8 L8 L8 L8 L8 L8 L8 L8 L8 L8 L8 L8 L8 L8 L8 L8 L8 L8 L8 L8 L8 L8 L8 L8 L8 L8 L8 L8 L8 L8 L8 L8 L8 L8 L8 L8 L8 L8 L8 L8 L8 L8 L8 L8 L8 L8 L8 L8 L8 L8 L8 L8 L8 L8 L8 L8 L8 L8 L8 L8 L8 L8 L8 L8 L8 L8 L8 L8 L8 L8 L8 L8 L8 L8 L8 L8   M= M= M= M= M= M= M= M= M= M= M= M= M= M= M= M= M= M= M= M= M= M= M= M= M= M= M= M= M= M= M= M= M= M= M= M= M= M= M= M= M= M= M= M= M= M= M= M= M= M= M= M= M= M= M= M= M= M= M= M= M= M= M= M= M= M= M= M= M= M= M= M= M= M= M= M= M= M= M= M= M= M= M= M= M= M= M= M= M= M= M= M= M= M= M= M= M= M= M= M= M= M= M= M= M= M= M= M= M= M= M= M= M= M= M= M= M= M= M= M= M= M= M= M= M= M= M= M= M= M= M= M= M= M= M= M= M= M= M= M= M= M= M= M= M= M= M= M= M= M= M= M= M= M= M= M= M= M= M= M= M= M= M= M= M= M= M= M= M= M= M= M= M= M= M= M= M= M= M= M= M= M= M= M= M= M= = = O= O= O= O= O= O= O= O= O= O= O= O= O= O= O= O= O= O= O= O= O= O= O= O= O= O= O= O= O= O= O= O= O= O= O= O= O= O= O= O= O= O= O= O= O= O= O= O= O= O= O= O= O= O= O= O= O= O= O= O= O= O= O= O= O= O= O= O= O= O= O= O= O= O= O= O= O= O= O= O= O= O= O= O= O= O= O= O= O= O= O= O= O= O= O= O= O= O= O= O= O= O= O= O= O= O= O= O= O= O= O= O= O= O= O= O= O= O= O= O= O= O= O= O= O= O= O= O= O= O= O= O= O= O= O= O= O= O= O= O= O= O= O= O= O= O= O= O= O= O= O= O= O= O= O= O= O= O= O= O= O= O= O= O= O= O= O= O= O= O= O= O= O= O= O= O= O= O= O= O= O= O= O= O= O= O=  P: P: P: P: P: P: P: P: P: P: P: P: P: P: P: P: P: P: P: P: P: P: P: P: P: P: P: P: P: P: P: P: P: P: P: P: P: P: P: P: P: P: P: P: P: P: P: P: P: P: P: P: P: P: P: P: P: P: P: P: P: P: P: P: P: P: P: P: P: P: P: P: P: P: P: P: P: P: P: P: P: P: P: P: P: P: P: P: P: P: P: P: P: P: P: P: P: P: P: P: P: P: P: P: P: P: P: P: P: P: P: P: P: P: P: P: P: P: P: P: P: P: P: P: P: P: P: P: P: P: P: P: P: P: P: P: P: P: P: P: P: P: P: P: P: P: P: P: P: P: P: P: P: P: P: P: P: P: P: P: : : : : O: O: O: O: O: O: O: O: O: O: O: O: O: O: O: O: O: O: O: O: O: O: O: O: O: O: O: O: O: O: O: O: O: O: O: O: O: O: O: O: O: O: O: O: O: O: O: O: O: O: O: O: O: O: O: O: O: O: O: O: O: O: O: O: O: O: O: O: O: O: O: O: O: O: O: O: O: O: O: O: O: O: O: O: OP: OP: OP: OP: OP: OP: OP: OP: P: P: P: P: P: P: P: P: P: P: P: P: P: P: P: P: P: P: P: P: P: P: P: P: P: P: P: P: P: P: P: P: P: P: P: P: P: P: P: P: P: P: P: P: P: P: P: P: P: P: P: P: P: P: P: P: P: P: P: P: P: P: P: P: P: P: P: P: P: P: P: P: P: P: P: P: P:O P:O P:O P:O P:O P:O P:O P:O :O :O :O :O :O :O :O :O :O :O :O :O :O :O :O :O :O :O :O :O :O :O :O :O :O :O :O :O :O :O :O :O :O :O O O O< O< O< O< O< O< O< O< O< O< O< O< O< O< O< O< O< O< O< O< O< O< O< O< O< O< O< O< O< O< O< O< O< O< O< O< O< O< O< O< O< OP< OP< OP< OP< OP< OP< OP< P< P< P< P< P< P< P< P< P< P< P< P< P< P< P< P< P< P< P< P< P< P< P< P< P< P< P< P< P< P< P< P< P< P< P< P< P< P< P< P< P< P< P< P< P< P< P< P< P< P< P< P< P< P< P< P< P< P< P< P< P< P< P< P< P< P< P< P< P< P< P< P< P< P< P< P< PO< PO< PO< PO< PO< PO< PO< PO< PO< O< O< O< O< O< O< O< O< O< O< O< O< O< O< O< O< O< O< O< O< O< O< O< O< O< O< O< O< O< O< O< O< O< O< O< O< O< O< O< O< O< O< O< O< O< O< O< O< O< O< O< O< O< O< O< O< O< O< O< O< O< O< O< O< O< O< O< O< O< O< O< O< O< O< O< OM< OM< OM< OM< OM< OM< OM< OM< M< M< M< M< M< M< M< M< M< M< M< M< M< M< M< M< M< M< M< M< M< M< M< M< M< M< M< M< M< M< M< M< M< M< M< M< M< M< M< M< M< M< M< M< M< M< M< M< M< M< M< M< M< M< M< M< M< M< M< M< M< M< M< M< M< M< M< M< M< M< M< M< M< M< M< M< M<O M<O M<O M<O M<O M<O M<O M<O <O <O <O <O <O <O <O <O <O <O <O <O <O <O <O <O <O <O <O <O <O <O <O <O <O <O <O <O <O <O <O <O <O <O <O <O <O <O <O <O <O <O <O <O <O <O <O <O <O <O <O <O <O <O <O <O <O <O <O <O <O <O <O <O <O <O <O <O <O <O <O <O <O <O O O O5P O5P O5P O5P O5P O5P O5P O5P 5P 5P 5P 5P 5P 5P 5P 5P 5P 5P 5P 5P 5P 5P 5P 5P 5P 5P 5P 5P 5P 5P 5P 5P 5P 5P 5P 5P 5P 5P 5P 5P 5P 5P 5P 5P 5P 5P 5P 5P 5P 5P 5P 5P 5P 5P 5P 5P 5P 5P 5P 5P 5P 5P 5P 5P 5P 5P 5P 5P 5P 5P 5P 5P 5P 5P 5P 5P 5P 5P 5P 5P 5P 5P 5P 5P 5P 5P 5P 5P 5P 5P 5P 5P 5P 5P 5P 5P 5P 5P 5P 5P 5P 5P 5P 5P 5P 5P 5P 5P 5P 5P 5P 5P 5P 5P 5P 5P 5P 5P 5P 5P 5P 5P 5P 5P 5P 5P 5P 5P 5P 5P 5P 5P 5P 5P 5P 5P 5P 5P 5P 5P 5P 5P 5P 5P 5P 5P 5P 5P 5P 5P 5P 5P 5P 5P 5P 5P 5P 5P 5P 5P 5P 5P 5P 5P 5P 5P 5P 5P 5P 5P 5P 5P 5P 5P 5P 5P 5P 5P 5P 5P 5P 5P 5P 5P 5P 5P P P 3P 3P 3P 3P 3P 3P 3P 3P 3P 3P 3P 3P 3P 3P 3P 3P 3P 3P 3P 3P 3P 3P 3P 3P 3P 3P 3P 3P 3P 3P 3P 3P 3P 3P 3P 3P 3P 3P 3P 3P 3P 3P 3P 3P 3P 3P 3P 3P 3P 3P 3P 3P 3P 3P 3P 3P 3P 3P 3P 3P 3P 3P 3P 3P 3P 3P 3P 3P 3P 3P 3P 3P 3P 3P 3P 3P 3P 3P 3P 3P 3P 3P 3P 3P 3P 3P 3P 3P 3P 3P 3P 3P 3P 3P 3P 3P 3P 3P 3P 3P 3P 3P 3P 3P 3P 3P 3P 3P 3P 3P 3P 3P 3P 3P 3P 3P 3P 3P 3P 3P 3P 3P 3P 3P 3P 3P 3P 3P 3P 3P 3P 3P 3P 3P 3P 3P 3P 3P 3P 3P 3P 3P 3P 3P 3P 3P 3P 3P 3P 3P 3P 3P 3P 3P 3P 3P 3P 3P 3P 3P 3P 3P 3P 3P 3P 3P 3P 3P 3P 3P 3P 3P 3P 3P 3P 3P 3P 3P 3P 3P 3P 3P 3P 3P 3P 3P P P 5P 5P 5P 5P 5P 5P 5P 5P 5P 5P 5P 5P 5P 5P 5P 5P 5P 5P 5P 5P 5P 5P 5P 5P 5P 5P 5P 5P 5P 5P 5P 5P 5P 5P 5P 5P 5P 5P 5P 5P 5P 5P 5P 5P 5P 5P 5P 5P 5P 5P 5P 5P 5P 5P 5P 5P 5P 5P 5P 5P 5P 5P 5P 5P 5P 5P 5P 5P 5P 5P 5P 5P 5P 5P 5P 5P 5P 5P 5P 5P 5P 5P 5P 5P 5P 5P 5P 5P 5P 5P 5P 5P 5P 5P 5P 5P 5P 5P 5P 5P 5P 5P 5P 5P 5P 5P 5P 5P 5P 5P 5P 5P 5P 5P 5P 5P 5P 5P 5P 5P 5P 5P 5P 5P 5P 5P 5P 5P 5P 5P 5P 5P 5P 5P 5P 5P 5P 5P 5P 5P 5P 5P 5P 5P 5P 5P 5P 5P 5P 5P 5P 5P 5P 5P 5P 5P 5P 5P 5P 5P 5P 5P 5P 5P 5P 5P 5P 5P 5P 5P 5P 5P 5P 5P 5P 5P 5P 5P 5P 5P 5P 5P 5P 5P 5P 5P   G2 G2 G2 G2 G2 G2 G2 G2 G2 G2 G2 G2 G2 G2 G2 G2 G2 G2 G2 G2 G2 G2 G2 G2 G2 G2 G2 G2 G2 G2 G2 G2 G2 G2 G2 G2 G2 G2 G2 G2 G2 G2 G2 G2 G2 G2 G2 G2 G2 G2 G2 G2 G2 G2 G2 G2 G2 G2 G2 G2 G2 G2 G2 G2 G2 G2 G2 G2 G2 G2 G2 G2 G2 G2 G2 G2 G2 G2 G2 G2 G2 G2 G2 G2 G2 G2 G2 G2 G2 G2 G2 G2 G2 G2 G2 G2 G2 G2 G2 G2 G2 G2 G2 G2 G2 G2 G2 G2 G2 G2 G2 G2 G2 G2 G2 G2 G2 G2 G2 G2 G2 G2 G2 G2 G2 G2 G2 G2 G2 G2 G2 G2 G2 G2 G2 G2 G2 G2 G2 G2 G2 G2 G2 G2 G2 G2 G2 G2 G2 G2 G2 G2 G2 G2 G2 G2 G2 G2 G2 G2 G2 G2 G2 G2 G2 G2 G2 G2 G2 G2 G2 G2 G2 G2 G2 G2 G2 G2 G2 G2 G2 G2 G2 G2 G2 G2   H3 H3 H3 H3 H3 H3 H3 H3 H3 H3 H3 H3 H3 H3 H3 H3 H3 H3 H3 H3 H3 H3 H3 H3 H3 H3 H3 H3 H3 H3 H3 H3 H3 H3 H3 H3 H3 H3 H3 H3 H3 H3 H3 H3 H3 H3 H3 H3 H3 H3 H3 H3 H3 H3 H3 H3 H3 H3 H3 H3 H3 H3 H3 H3 H3 H3 H3 H3 H3 H3 H3 H3 H3 H3 H3 H3 H3 H3 H3 H3 H3 H3 H3 H3 H3 H3 H3 H3 H3 H3 H3 H3 3 3 G3 G3 G3 G3 G3 G3 G3 G3 G3 G3 G3 G3 G3 G3 G3 G3 G3 G3 G3 G3 G3 G3 G3 G3 G3 G3 G3 G3 G3 G3 G3 G3 G3 G3 G3 G3 G3 G3 G3 G3 G3 G3 G3 G3 G3 G3 G3 G3 G3 G3 G3 G3 G3 G3 G3 G3 G3 G3 G3 G3 G3 G3 G3 G3 G3 G3 G3 G3 G3 G3 G3 G3 G3 G3 G3 G3 G3 G3 G3 G3 G3 G3 G3 G3 G3 G3 G3 G3 G3 G3 G3 G3   8H 8H 8H 8H 8H 8H 8H 8H 8H 8H 8H 8H 8H 8H 8H 8H 8H 8H 8H 8H 8H 8H 8H 8H 8H 8H 8H 8H 8H 8H 8H 8H 8H 8H 8H 8H 8H 8H 8H 8H 8H 8H 8H 8H 8H 8H 8H 8H 8H 8H 8H 8H 8H 8H 8H 8H 8H 8H 8H 8H 8H 8H 8H 8H 8H 8H 8H 8H 8H 8H 8H 8H 8H 8H 8H 8H 8H 8H 8H 8H 8H 8H 8H 8H 8H 8H 8H 8H 8H 8H 8H 8H 8H 8H 8H 8H 8H 8H 8H 8H 8H 8H 8H 8H 8H 8H 8H 8H 8H 8H 8H 8H 8H 8H 8H 8H 8H 8H 8H 8H 8H 8H 8H 8H 8H 8H 8H 8H 8H 8H 8H 8H 8H 8H 8H 8H 8H 8H 8H 8H 8H 8H 8H 8H 8H 8H 8H 8H 8H 8H 8H 8H 8H 8H 8H 8H 8H 8H 8H 8H 8H 8H 8H 8H 8H 8H 8H 8H 8H 8H 8H 8H 8H 8H 8H 8H 8H 8H 8H 8H 8H 8H 8H 8H 8H 8H H H 7H 7H 7H 7H 7H 7H 7H 7H 7H 7H 7H 7H 7H 7H 7H 7H 7H 7H 7H 7H 7H 7H 7H 7H 7H 7H 7H 7H 7H 7H 7H 7H 7H 7H 7H 7H 7H 7H 7H 7H 7H 7H 7H 7H 7H 7H 7H 7H 7H 7H 7H 7H 7H 7H 7H 7H 7H 7H 7H 7H 7H 7H 7H 7H 7H 7H 7H 7H 7H 7H 7H 7H 7H 7H 7H 7H 7H 7H 7H 7H 7H 7H 7H 7H 7H 7H 7H 7H 7H 7H 7H 7H 7H 7H 7H 7H 7H 7H 7H 7H 7H 7H 7H 7H 7H 7H 7H 7H 7H 7H 7H 7H 7H 7H 7H 7H 7H 7H 7H 7H 7H 7H 7H 7H 7H 7H 7H 7H 7H 7H 7H 7H 7H 7H 7H 7H 7H 7H 7H 7H 7H 7H 7H 7H 7H 7H 7H 7H 7H 7H 7H 7H 7H 7H 7H 7H 7H 7H 7H 7H 7H 7H 7H 7H 7H 7H 7H 7H 7H 7H 7H 7H 7H 7H 7H 7H 7H 7H 7H 7H 7H 7H 7H 7H 7H 7H   J5 J5 J5 J5 J5 J5 J5 J5 J5 J5 J5 J5 J5 J5 J5 J5 J5 J5 J5 J5 J5 J5 J5 J5 J5 J5 J5 J5 J5 J5 J5 J5 J5 J5 J5 J5 J5 J5 J5 J5 J5 J5 J5 J5 J5 J5 J5 J5 J5 J5 J5 J5 J5 J5 J5 J5 J5 J5 J5 J5 J5 J5 J5 J5 J5 J5 J5 J5 J5 J5 J5 J5 J5 J5 J5 J5 J5 J5 J5 J5 J5 J5 J5 J5 J5 J5 J5 J5 J5 J5 J5 J5 J5 J5 J5 J5 J5 J5 J5 J5 J5 J5 J5 J5 J5 J5 J5 J5 J5 J5 J5 J5 J5 J5 J5 J5 J5 J5 J5 J5 J5 J5 J5 J5 J5 J5 J5 J5 J5 J5 J5 J5 J5 J5 J5 J5 J5 J5 J5 J5 J5 J5 J5 J5 J5 J5 J5 J5 J5 J5 J5 J5 J5 J5 J5 J5 J5 J5 J5 J5 J5 J5 J5 J5 J5 J5 J5 J5 J5 J5 J5 J5 J5 J5 J5 J5 J5 J5 J5 J5 J5 J5 J5 J5 J5 J5  K7G K7G K7G K7G K7G K7G K7G K7G K7G K7G K7G K7G K7G K7G K7G K7G K7G K7G K7G K7G K7G K7G K7G K7G K7G K7G K7G K7G K7G K7G K7G K7G K7G K7G K7G K7G K7G K7G K7G K7G K7G K7G K7G K7G K7G K7G K7G K7G K7G K7G K7G K7G K7G K7G K7G K7G K7G K7G K7G K7G K7G K7G K7G K7G K7G K7G K7G K7G K7G K7G K7G K7G K7G K7G K7G K7G K7G K7G K7G K7G K7G K7G K7G K7G K7G K7G K7G K7G K7G K7G K7G K7G K7G K7G K7G K7G K7G K7G K7G K7G K7G K7G K7G K7G K7G K7G K7G K7G K7G K7G K7G K7G K7G K7G K7G K7G K7G K7G K7G K7G K7G K7G K7G K7G K7G K7G K7G K7G K7G K7G K7G K7G K7G K7G K7G K7G K7G K7G K7G K7G 7G 7G 7G 7G J7G J7G J7G J7G J7G J7G J7G J7G J7G J7G J7G J7G J7G J7G J7G J7G J7G J7G J7G J7G J7G J7G J7G J7G J7G J7G J7G J7G J7G J7G J7G J7G J7G J7G J7G J7G J7G J7G J7G J7G J7G J7G J7G J7G J7G J7G J7G J7G J7G J7G J7G J7G J7G J7G J7G J7G J7G J7G J7G J7G J7G J7G J7G J7G J7G J7G J7G J7G J7G J7G J7G J7G J7G J7G J7G J7G J7G J7G J7G J7G J7G J7G J7G J7G JK7G JK7G JK7G JK7G JK7G JK7G JK7G JK7G K7G K7G K7G K7G K7G K7G K7G K7G K7G K7G K7G K7G K7G K7G K7G K7G K7G K7G K7G K7G K7G K7G K7G K7G K7G K7G K7G K7G K7G K7G K7G K7G K7G K7G K7G K7G K7G K7G K7G K7G K7G K7G K7G K7G K7G K7G K7G K7G K7G K7G K7G K7G K7G K7G K7G K7G K7G K7G K7G K7G K7G K7G K7G K7G K7G K7G K7G K7G K7G K7G K7G K7G K7G K7G K7G K7G K7JG K7JG K7JG K7JG K7JG K7JG K7JG K7JG 7JG 7JG 7JG 7JG 7JG 7JG 7JG 7JG 7JG 7JG 7JG 7JG 7JG 7JG 7JG 7JG 7JG 7JG 7JG 7JG 7JG 7JG 7JG 7JG 7JG 7JG 7JG 7JG 7JG 7JG 7JG 7JG 7JG 7JG 7JG 7JG 7JG 7JG 7JG 7JG 7JG 7JG 7JG 7JG 7JG 7JG 7JG 7JG 7JG 7JG 7JG 7JG 7JG 7JG JG JG JG+ JG+ JG+ JG+ JG+ JG+ JG+ JG+ JG+ JG+ JG+ JG+ JG+ JG+ JG+ JG+ JG+ JG+ JG+ JG+ JKG+ JKG+ JKG+ JKG+ JKG+ JKG+ JKG+ JKG+ KG+ KG+ KG+ KG+ KG+ KG+ KG+ KG+ KG+ KG+ KG+ KG+ KG+ KG+ KG+ KG+ KG+ KG+ KG+ KG+ KG+ KG+ KG+ KG+ KG+ KG+ KG+ KG+ KG+ KG+ KG+ KG+ KG+ KG+ KG+ KG+ KG+ KG+ KG+ KG+ KG+ KG+ KG+ KG+ KG+ KG+ KG+ KG+ KG+ KG+ KG+ KG+ KG+ KG+ KG+ KG+ KG+ KG+ KG+ KG+ KG+ KG+ KG+ KG+ KG+ KG+ KG+ KG+ KG+ KG+ KG+ KG+ KG+ KG+ KG+ KG+ KGJ+ KGJ+ KGJ+ KGJ+ KGJ+ KGJ+ KGJ+ KGJ+ GJ+ GJ+ GJ+ GJ+ GJ+ GJ+ GJ+ GJ+ GJ+ GJ+ GJ+ GJ+ GJ+ GJ+ GJ+ GJ+ GJ+ GJ+ GJ+ GJ+ GJ+ GJ+ GJ+ GJ+ GJ+ GJ+ GJ+ GJ+ GJ+ GJ+ GJ+ GJ+ GJ+ GJ+ GJ+ GJ+ GJ+ GJ+ GJ+ GJ+ GJ+ GJ+ GJ+ GJ+ GJ+ GJ+ GJ+ GJ+ GJ+ GJ+ GJ+ GJ+ GJ+ GJ+ GJ+ GJ+ GJ+ GJ+ GJ+ GJ+ GJ+ GJ+ GJ+ GJ+ GJ+ GJ+ GJ+ GJ+ GJ+ GJ+ GJ+ GJ+ GJ+ GJ+ GJ+ J+ J+ J+ J+H J+H J+H J+H J+H J+H +H +H +H +H +H +H +H +H +H +H +H +H +H +H +H +H +H +H +H +H +H +H +H +H +H +H +H +H +H +H +H +H +H +H +H +H +H +H +H +H +H +H +H +H +H +H +H +H +H +H +H +H +H +H +H +H +H +H +H +H +H +H +H +H +H +H +H +H +H +H +H +H +H +H +H +H +H +H +H +H +H +H +H +H +H +H +H +H +H +H +H +H +H +H +H +H +H +H +H +H +H +H +H +H +H +H +H +H +H +H +H +H +H +H +H +H +H +H +H +H +H +H +H +H +H +H +H +H +H +H +H +H +H +H +H +H +H +H +H +H +H +H +H +H +H +H +H +H +H +H +H +H +H +H +H +H +H +H +H +H +H +H +H +H +H +H +H +H +H +H +H +H +H +H +H +H +H +H +H H   $H $H $H $H $H $H $H $H $H $H $H $H $H $H $H $H $H $H $H $H $H $H $H $H $H $H $H $H $H $H $H $H $H $H $H $H $H $H $H $H $H $H $H $H $H $H $H $H $H $H $H $H $H $H $H $H $H $H $H $H $H $H $H $H $H $H $H $H $H $H $H $H $H $H $H $H $H $H $H $H $H $H $H $H $H $H $H $H $H $H $H $H $H $H $H $H $H $H $H $H $H $H $H $H $H $H $H $H $H $H $H $H $H $H $H $H $H $H $H $H $H $H $H $H $H $H $H $H $H $H $H $H $H $H $H $H $H $H $H $H $H $H $H $H $H $H $H $H $H $H $H $H $H $H $H $H $H $H $H $H $H $H $H $H $H $H $H $H $H $H $H $H $H $H $H $H $H $H $H $H $H $H $H $H $H $H $H $H $H $H $H $H $H $H $H $H $H $H $H $H $H $H $H $H $H $H $H $H $H $H $H $H $H $H $H $H $H $H $H $H $H $H $H $H $H $H $H $H $H $H $H $H $H $H $H $H $H $H $H $H $H $H $H $H $H $H $H $H $H $H $H $H $H $H $H $H $H $H $H $H $H $H $H $H $H $H $H $H $H $H $H $H $H $H $H $H $H $H $H $H $H $H $H $H $H $H $H $H $H $H $H $H $H $H $H $H $H $H $H $H $H $H $H $H $H $H $H $H $H $H $H $H $H $H $H $H $H $H $H $H $H $H $H $H $H $H $H $H $H $H $H $H $H $H $H $H $H $H $H $H $H $H $H $H $H $H $H $H $H $H $H $H $H $H $H $H $H $H $H $H $H $H $H $H $H $H $H $H $H $H $H $H $H $H $H H H <H <H <H <H <H <H <H <H <H <H <H <H <H <H <H <H <H <H <H <H <H <H <H <H <H <H <H <H <H <H <H <H <H <H <H <H <H <H <H <H <H <H <H <H <H <H <H <H <H <H <H <H <H <H <H <H <H <H <H <H <H <H <H <H <H <H <H <H <H <H <H <H <H <H <H <H <H <H <H <H <H <H <H <H <H <H <H <H <H <H <H <H <H <H <H <H <H <H <H <H <H <H <H <H <H <H <H <H <H <H <H <H <H <H <H <H <H <H <H <H <H <H <H <H <H <H <H <H <H <H <H <H <H <H <H <H <H <H <H <H <H <H <H <H <H <H <H <H <H <H <H <H <H <H <H <H <H <H <H <H <H <H <H <H <H <H <H <H <H <H <H <H <H <H <H <H <H <H <H <H <H <H <H <H <H <H H H :H :H :H :H :H :H :H :H :H :H :H :H :H :H :H :H :H :H :H :H :H :H :H :H :H :H :H :H :H :H :H :H :H :H :H :H :H :H :H :H :H :H :H :H :H :H :H :H :H :H :H :H :H :H :H :H :H :H :H :H :H :H :H :H :H :H :H :H :H :H :H :H :H :H :H :H :H :H :H :H :H :H :H :H :H :H :H :H :H :H :H :H :H :H :H :H :H :H :H :H :H :H :H :H :H :H :H :H :H :H :H :H :H :H :H :H :H :H :H :H :H :H :H :H :H :H :H :H :H :H :H :H :H :H :H :H :H :H :H :H :H :H :H :H :H :H :H :H :H :H :H :H :H :H :H :H :H :H :H :H :H :H :H :H :H :H :H :H :H :H :H :H :H :H :H :H :H :H :H :H :H :H :H :H :H :H H H <H <H <H <H <H <H <H <H <H <H <H <H <H <H <H <H <H <H <H <H <H <H <H <H <H <H <H <H <H <H <H <H <H <H <H <H <H <H <H <H <H <H <H <H <H <H <H <H <H <H <H <H <H <H <H <H <H <H <H <H <H <H <H <H <H <H <H <H <H <H <H <H <H <H <H <H <H <H <H <H <H <H <H <H <H <H <H <H <H <H <H <H <H <H <H <H <H <H <H <H <H <H <H <H <H <H <H <H <H <H <H <H <H <H <H <H <H <H <H <H <H <H <H <H <H <H <H <H <H <H <H <H <H <H <H <H <H <H <H <H <H <H <H <H <H <H <H <H <H <H <H <H <H <H <H <H <H <H <H <H <H <H <H <H <H <H <H <H <H <H <H <H <H <H <H <H <H <H <H <H <H <H <H <H <H <H   J: J: J: J: J: J: J: J: J: J: J: J: J: J: J: J: J: J: J: J: J: J: J: J: J: J: J: J: J: J: J: J: J: J: J: J: J: J: J: J: J: J: J: J: J: J: J: J: J: J: J: J: J: J: J: J: J: J: J: J: J: J: J: J: J: J: J: J: J: J: J: J: J: J: J: J: J: J: J: J: J: J: J: J: J: J: J: J: J: J: J: J: J: J: J: J: J: J: J: J: J: J: J: J: J: J: J: J: J: J: J: J: J: J: J: J: J: J: J: J: J: J: J: J: J: J: J: J: J: J: J: J: J: J: J: J: J: J: J: J: J: J: J: J: J: J: J: J: J: J: J: J: J: J: J: J: J: J: J: J: J: J: J: J: J: J: J: J: J: J: J: J: J: J: J: J: J: J: J: J: J: J: J: J: J: J:   K9 K9 K9 K9 K9 K9 K9 K9 K9 K9 K9 K9 K9 K9 K9 K9 K9 K9 K9 K9 K9 K9 K9 K9 K9 K9 K9 K9 K9 K9 K9 K9 K9 K9 K9 K9 K9 K9 K9 K9 K9 K9 K9 K9 K9 K9 K9 K9 K9 K9 K9 K9 K9 K9 K9 K9 K9 K9 K9 K9 K9 K9 K9 K9 K9 K9 K9 K9 K9 K9 K9 K9 K9 K9 K9 K9 K9 K9 K9 K9 K9 K9 K9 K9 K9 K9 K9 K9 K9 K9 K9 K9 K9 K9 K9 K9 K9 K9 K9 K9 K9 K9 K9 K9 K9 K9 K9 K9 K9 K9 K9 K9 K9 K9 K9 K9 K9 K9 K9 K9 K9 K9 K9 K9 K9 K9 K9 K9 K9 K9 K9 K9 K9 K9 K9 K9 K9 K9 K9 K9 K9 K9 K9 K9 K9 K9 K9 K9 K9 K9 K9 K9 K9 K9 K9 K9 K9 K9 K9 K9 K9 K9 K9 K9 K9 K9 K9 K9 K9 K9 K9 K9 K9 K9 K9 K9 K9 K9 K9 K9 K9 K9 K9 K9 K9 K9   J: J: J: J: J: J: J: J: J: J: J: J: J: J: J: J: J: J: J: J: J: J: J: J: J: J: J: J: J: J: J: J: J: J: J: J: J: J: J: J: J: J: J: J: J: J: J: J: J: J: J: J: J: J: J: J: J: J: J: J: J: J: J: J: J: J: J: J: J: J: J: J: J: J: J: J: J: J: J: J: J: J: J: J: J: J: J: J: J: J: J: J: J: J: J: J: J: J: J: J: J: J: J: J: J: J: J: J: J: J: J: J: J: J: J: J: J: J: J: J: J: J: J: J: J: J: J: J: J: J: J: J: J: J: J: J: J: J: J: J: J: J: J: J: J: J: J: J: J: J: J: J: J: J: J: J: J: J: J: J: J: J: J: J: J: J: J: J: J: J: J: J: J: J: J: J: J: J: J: J: J: J: J: J: J: J:   H3 H3 H3 H3 H3 H3 H3 H3 H3 H3 H3 H3 H3 H3 H3 H3 H3 H3 H3 H3 H3 H3 H3 H3 H3 H3 H3 H3 H3 H3 H3 H3 H3 H3 H3 H3 H3 H3 H3 H3 H3 H3 H3 H3 H3 H3 H3 H3 H3 H3 H3 H3 H3 H3 H3 H3 H3 H3 H3 H3 H3 H3 H3 H3 H3 H3 H3 H3 H3 H3 H3 H3 H3 H3 H3 H3 H3 H3 H3 H3 H3 H3 H3 H3 H3 H3 H3 H3 H3 H3 H3 H3 H3 H3 H3 H3 H3 H3 H3 H3 H3 H3 H3 H3 H3 H3 H3 H3 H3 H3 H3 H3 H3 H3 H3 H3 H3 H3 H3 H3 H3 H3 H3 H3 H3 H3 H3 H3 H3 H3 H3 H3 H3 H3 H3 H3 H3 H3 H3 H3 H3 H3 H3 H3 H3 H3 H3 H3 H3 H3 H3 H3 H3 H3 H3 H3 H3 H3 H3 H3 H3 H3 H3 H3 H3 H3 H3 H3 H3 H3 H3 H3 H3 H3 H3 H3 H3 H3 H3 H3 H3 H3 H3 H3 H3 H3 3 3 F3 F3 F3 F3 F3 F3 F3 F3 F3 F3 F3 F3 F3 F3 F3 F3 F3 F3 F3 F3 F3 F3 F3 F3 F3 F3 F3 F3 F3 F3 F3 F3 F3 F3 F3 F3 F3 F3 F3 F3 F3 F3 F3 F3 F3 F3 F3 F3 F3 F3 F3 F3 F3 F3 F3 F3 F3 F3 F3 F3 F3 F3 F3 F3 F3 F3 F3 F3 F3 F3 F3 F3 F3 F3 F3 F3 F3 F3 F3 F3 F3 F3 F3 F3 F3 F3 F3 F3 F3 F3 F3 F3 F3 F3 F3 F3 F3 F3 F3 F3 F3 F3 F3 F3 F3 F3 F3 F3 F3 F3 F3 F3 F3 F3 F3 F3 F3 F3 F3 F3 F3 F3 F3 F3 F3 F3 F3 F3 F3 F3 F3 F3 F3 F3 F3 F3 F3 F3 F3 F3 F3 F3 F3 F3 F3 F3 F3 F3 F3 F3 F3 F3 F3 F3 F3 F3 F3 F3 F3 F3 F3 F3 F3 F3 F3 F3 F3 F3 F3 F3 F3 F3 F3 F3 F3 F3 F3 F3 F3 F3 F3 F3 F3 F3 F3 F3   E7 E7 E7 E7 E7 E7 E7 E7 E7 E7 E7 E7 E7 E7 E7 E7 E7 E7 E7 E7 E7 E7 E7 E7 E7 E7 E7 E7 E7 E7 E7 E7 E7 E7 E7 E7 E7 E7 E7 E7 E7 E7 E7 E7 E7 E7 E7 E7 E7 E7 E7 E7 E7 E7 E7 E7 E7 E7 E7 E7 E7 E7 E7 E7 E7 E7 E7 E7 E7 E7 E7 E7 E7 E7 E7 E7 E7 E7 E7 E7 E7 E7 E7 E7 E7 E7 E7 E7 E7 E7 E7 E7 E7 E7 E7 E7 E7 E7 E7 E7 E7 E7 E7 E7 E7 E7 E7 E7 E7 E7 E7 E7 E7 E7 E7 E7 E7 E7 E7 E7 E7 E7 E7 E7 E7 E7 E7 E7 E7 E7 E7 E7 E7 E7 E7 E7 E7 E7 E7 E7 E7 E7 E7 E7 E7 E7 E7 E7 E7 E7 E7 E7 E7 E7 E7 E7 E7 E7 E7 E7 E7 E7 E7 E7 E7 E7 E7 E7 E7 E7 E7 E7 E7 E7 E7 E7 E7 E7 E7 E7 E7 E7 E7 E7 E7 E7 7 7 F7 F7 F7 F7 F7 F7 F7 F7 F7 F7 F7 F7 F7 F7 F7 F7 F7 F7 F7 F7 F7 F7 F7 F7 F7 F7 F7 F7 F7 F7 F7 F7 F7 F7 F7 F7 F7 F7 F7 F7 F7 F7 F7 F7 F7 F7 F7 F7 F7 F7 F7 F7 F7 F7 F7 F7 F7 F7 F7 F7 F7 F7 F7 F7 F7 F7 F7 F7 F7 F7 F7 F7 F7 F7 F7 F7 F7 F7 F7 F7 F7 F7 F7 F7 F7 F7 F7 F7 F7 F7 F7 F7 F7 F7 F7 F7 F7 F7 F7 F7 F7 F7 F7 F7 F7 F7 F7 F7 F7 F7 F7 F7 F7 F7 F7 F7 F7 F7 F7 F7 F7 F7 F7 F7 F7 F7 F7 F7 F7 F7 F7 F7 F7 F7 F7 F7 F7 F7 F7 F7 F7 F7 F7 F7 F7 F7 F7 F7 F7 F7 F7 F7 F7 F7 F7 F7 F7 F7 F7 F7 F7 F7 F7 F7 F7 F7 F7 F7 F7 F7 F7 F7 F7 F7 F7 F7 F7 F7 F7 F7 F7 F7 F7 F7 F7 F7  F5 F5 F5 F5 F5 F5 F5 F5 F5 F5 F5 F5 F5 F5 F5 F5 F5 F5 F5 F5 F5 F5 F5 F5 F5 F5 F5 F5 F5 F5 F5 F5 F5 F5 F5 F5 F5 F5 F5 F5 F5 F5 F5 F5 F5 F5 F5 F5 F5 F5 F5 F5 F5 F5 F5 F5 F5 F5 F5 F5 F5 F5 F5 F5 F5 F5 F5 F5 F5 F5 F5 F5 F5 F5 F5 F5 F5 F5 F5 F5 F5 F5 F5 F5 F5 F5 F5 F5 F5 F5 F5 F5 F5 F5 F5 F5 F5 F5 F5 F5 F5 F5 F5 F5 F5 F5 F5 F5 F5 F5 F5 F5 F5 F5 F5 F5 F5 F5 F5 F5 F5 F5 F5 F5 F5 F5 F5 F5 F5 F5 F5 F5 F5 F5 F5 F5 F5 F5 F5 F5 F5 F5 F5 F5 F5 F5 F5 F5 F5 F5 F5 F5 F5 F5 F5 F5 F5 F5 F5 F5 F5 F5 F5 F5 F5 F5 F5 F5 F5 F5 F5 F5 F5 F5 F5 F5 F5 F5 F5 F5 F5 F5 F5 F5 F5 F5 5 5 E5 E5 E5 E5 E5 E5 E5 E5 E5 E5 E5 E5 E5 E5 E5 E5 E5 E5 E5 E5 E5 E5 E5 E5 E5 E5 E5 E5 E5 E5 E5 E5 E5 E5 E5 E5 E5 E5 E5 E5 E5 E5 E5 E5 E5 E5 E5 E5 E5 E5 E5 E5 E5 E5 E5 E5 E5 E5 E5 E5 E5 E5 E5 E5 E5 E5 E5 E5 E5 E5 E5 E5 E5 E5 E5 E5 E5 E5 E5 E5 E5 E5 E5 E5 E5 E5 E5 E5 E5 E5 E5 E5 E5 E5 E5 E5 E5 E5 E5 E5 E5 E5 E5 E5 E5 E5 E5 E5 E5 E5 E5 E5 E5 E5 E5 E5 E5 E5 E5 E5 E5 E5 E5 E5 E5 E5 E5 E5 E5 E5 E5 E5 E5 E5 E5 E5 E5 E5 E5 E5 E5 E5 E5 E5 E5 E5 E5 E5 E5 E5 E5 E5 E5 E5 E5 E5 E5 E5 E5 E5 E5 E5 E5 E5 E5 E5 E5 E5 E5 E5 E5 E5 E5 E5 E5 E5 E5 E5 E5 E5 E5 E5 E5 E5 E5 E5   C3 C3 C3 C3 C3 C3 C3 C3 C3 C3 C3 C3 C3 C3 C3 C3 C3 C3 C3 C3 C3 C3 C3 C3 C3 C3 C3 C3 C3 C3 C3 C3 C3 C3 C3 C3 C3 C3 C3 C3 C3 C3 C3 C3 C3 C3 C3 C3 C3 C3 C3 C3 C3 C3 C3 C3 C3 C3 C3 C3 C3 C3 C3 C3 C3 C3 C3 C3 C3 C3 C3 C3 C3 C3 C3 C3 C3 C3 C3 C3 C3 C3 C3 C3 C3 C3 C3 C3 C3 C3 C3 C3 C3 C3 C3 C3 C3 C3 C3 C3 C3 C3 C3 C3 C3 C3 C3 C3 C3 C3 C3 C3 C3 C3 C3 C3 C3 C3 C3 C3 C3 C3 C3 C3 C3 C3 C3 C3 C3 C3 C3 C3 C3 C3 C3 C3 C3 C3 C3 C3 C3 C3 C3 C3 C3 C3 C3 C3 C3 C3 C3 C3 C3 C3 C3 C3 C3 C3 C3 C3 C3 C3 C3 C3 C3 C3 C3 C3 C3 C3 C3 C3 C3 C3 C3 C3 C3 C3 C3 C3 C3 C3 C3 C3 C3 C3 3 3 A3 A3 A3 A3 A3 A3 A3 A3 A3 A3 A3 A3 A3 A3 A3 A3 A3 A3 A3 A3 A3 A3 A3 A3 A3 A3 A3 A3 A3 A3 A3 A3 A3 A3 A3 A3 A3 A3 A3 A3 A3 A3 A3 A3 A3 A3 A3 A3 A3 A3 A3 A3 A3 A3 A3 A3 A3 A3 A3 A3 A3 A3 A3 A3 A3 A3 A3 A3 A3 A3 A3 A3 A3 A3 A3 A3 A3 A3 A3 A3 A3 A3 A3 A3 A3 A3 A3 A3 A3 A3 A3 A3 A3 A3 A3 A3 A3 A3 A3 A3 A3 A3 A3 A3 A3 A3 A3 A3 A3 A3 A3 A3 A3 A3 A3 A3 A3 A3 A3 A3 A3 A3 A3 A3 A3 A3 A3 A3 A3 A3 A3 A3 A3 A3 A3 A3 A3 A3 A3 A3 A3 A3 A3 A3 A3 A3 A3 A3 A3 A3 A3 A3 A3 A3 A3 A3 A3 A3 A3 A3 A3 A3 A3 A3 A3 A3 A3 A3 A3 A3 A3 A3 A3 A3 A3 A3 A3 A3 A3 A3 A3 A3 A3 A3 A3 A3   C2 C2 C2 C2 C2 C2 C2 C2 C2 C2 C2 C2 C2 C2 C2 C2 C2 C2 C2 C2 C2 C2 C2 C2 C2 C2 C2 C2 C2 C2 C2 C2 C2 C2 C2 C2 C2 C2 C2 C2 C2 C2 C2 C2 C2 C2 C2 C2 C2 C2 C2 C2 C2 C2 C2 C2 C2 C2 C2 C2 C2 C2 C2 C2 C2 C2 C2 C2 C2 C2 C2 C2 C2 C2 C2 C2 C2 C2 C2 C2 C2 C2 C2 C2 C2 C2 C2 C2 C2 C2 C2 C2 C2 C2 C2 C2 C2 C2 C2 C2 C2 C2 C2 C2 C2 C2 C2 C2 C2 C2 C2 C2 C2 C2 C2 C2 C2 C2 C2 C2 C2 C2 C2 C2 C2 C2 C2 C2 C2 C2 C2 C2 C2 C2 C2 C2 C2 C2 C2 C2 C2 C2 C2 C2 C2 C2 C2 C2 C2 C2 C2 C2 C2 C2 C2 C2 C2 C2 C2 C2 C2 C2 C2 C2 C2 C2 C2 C2 C2 C2 C2 C2 C2 C2 C2 C2 C2 C2 C2 C2 C2 C2 C2 C2 C2 C2 2 2 E2 E2 E2 E2 E2 E2 E2 E2 E2 E2 E2 E2 E2 E2 E2 E2 E2 E2 E2 E2 E2 E2 E2 E2 E2 E2 E2 E2 E2 E2 E2 E2 E2 E2 E2 E2 E2 E2 E2 E2 E2 E2 E2 E2 E2 E2 E2 E2 E2 E2 E2 E2 E2 E2 E2 E2 E2 E2 E2 E2 E2 E2 E2 E2 E2 E2 E2 E2 E2 E2 E2 E2 E2 E2 E2 E2 E2 E2 E2 E2 E2 E2 E2 E2 E2 E2 E2 E2 E2 E2 E2 E2 E2 E2 E2 E2 E2 E2 E2 E2 E2 E2 E2 E2 E2 E2 E2 E2 E2 E2 E2 E2 E2 E2 E2 E2 E2 E2 E2 E2 E2 E2 E2 E2 E2 E2 E2 E2 E2 E2 E2 E2 E2 E2 E2 E2 E2 E2 E2 E2 E2 E2 E2 E2 E2 E2 E2 E2 E2 E2 E2 E2 E2 E2 E2 E2 E2 E2 E2 E2 E2 E2 E2 E2 E2 E2 E2 E2 E2 E2 E2 E2 E2 E2 E2 E2 E2 E2 E2 E2 E2 E2 E2 E2 E2 E2   F7 F7 F7 F7 F7 F7 F7 F7 F7 F7 F7 F7 F7 F7 F7 F7 F7 F7 F7 F7 F7 F7 F7 F7 F7 F7 F7 F7 F7 F7 F7 F7 F7 F7 F7 F7 F7 F7 F7 F7 F7 F7 F7 F7 F7 F7 F7 F7 F7 F7 F7 F7 F7 F7 F7 F7 F7 F7 F7 F7 F7 F7 F7 F7 F7 F7 F7 F7 F7 F7 F7 F7 F7 F7 F7 F7 F7 F7 F7 F7 F7 F7 F7 F7 F7 F7 F7 F7 F7 F7 F7 F7 F7 F7 F7 F7 F7 F7 F7 F7 F7 F7 F7 F7 F7 F7 F7 F7 F7 F7 F7 F7 F7 F7 F7 F7 F7 F7 F7 F7 F7 F7 F7 F7 F7 F7 F7 F7 F7 F7 F7 F7 F7 F7 F7 F7 F7 F7 F7 F7 F7 F7 F7 F7 F7 F7 F7 F7 F7 F7 F7 F7 F7 F7 F7 F7 F7 F7 F7 F7 F7 F7 F7 F7 F7 F7 F7 F7 F7 F7 F7 F7 F7 F7 F7 F7 F7 F7 F7 F7 F7 F7 F7 F7 F7 F7 7 7 H7 H7 H7 H7 H7 H7 H7 H7 H7 H7 H7 H7 H7 H7 H7 H7 H7 H7 H7 H7 H7 H7 H7 H7 H7 H7 H7 H7 H7 H7 H7 H7 H7 H7 H7 H7 H7 H7 H7 H7 H7 H7 H7 H7 H7 H7 H7 H7 H7 H7 H7 H7 H7 H7 H7 H7 H7 H7 H7 H7 H7 H7 H7 H7 H7 H7 H7 H7 H7 H7 H7 H7 H7 H7 H7 H7 H7 H7 H7 H7 H7 H7 H7 H7 H7 H7 H7 H7 H7 H7 H7 H7 H7 H7 H7 H7 H7 H7 H7 H7 H7 H7 H7 H7 H7 H7 H7 H7 H7 H7 H7 H7 H7 H7 H7 H7 H7 H7 H7 H7 H7 H7 H7 H7 H7 H7 H7 H7 H7 H7 H7 H7 H7 H7 H7 H7 H7 H7 H7 H7 H7 H7 H7 H7 H7 H7 H7 H7 H7 H7 H7 H7 H7 H7 H7 H7 H7 H7 H7 H7 H7 H7 H7 H7 H7 H7 H7 H7 H7 H7 H7 H7 H7 H7 H7 H7 H7 H7 H7 H7 H7 H7 H7 H7 H7 H7   J3 J3 J3 J3 J3 J3 J3 J3 J3 J3 J3 J3 J3 J3 J3 J3 J3 J3 J3 J3 J3 J3 J3 J3 J3 J3 J3 J3 J3 J3 J3 J3 J3 J3 J3 J3 J3 J3 J3 J3 J3 J3 J3 J3 J3 J3 J3 J3 J3 J3 J3 J3 J3 J3 J3 J3 J3 J3 J3 J3 J3 J3 J3 J3 J3 J3 J3 J3 J3 J3 J3 J3 J3 J3 J3 J3 J3 J3 J3 J3 J3 J3 J3 J3 J3 J3 J3 J3 J3 J3 J3 J3 J3 J3 J3 J3 J3 J3 J3 J3 J3 J3 J3 J3 J3 J3 J3 J3 J3 J3 J3 J3 J3 J3 J3 J3 J3 J3 J3 J3 J3 J3 J3 J3 J3 J3 J3 J3 J3 J3 J3 J3 J3 J3 J3 J3 J3 J3 J3 J3 J3 J3 J3 J3 J3 J3 J3 J3 J3 J3 J3 J3 J3 J3 J3 J3 J3 J3 J3 J3 3 3 3 3 H3 H3 H3 H3 H3 H3 H3 H3 H3 H3 H3 H3 H3 H3 H3 H3 H3 H3 H3 H3 H3 H3 H3 H3 H3 H3 H3 H3 H3 H3 H3 H3 H3 H3 H3 H3 H3 H3 H3 H3 H3 H3 H3 H3 H3 H3 H3 H3 H3 H3 H3 H3 H3 H3 H3 H3 H3 H3 H3 H3 H3 H3 H3 H3 H3 H3 H3 H3 H3 H3 H3 H3 H3 H3 H3 H3 H3 H3 H3 H3 H3 H3 H3 H3 HJ3 HJ3 HJ3 HJ3 HJ3 HJ3 HJ3 HJ3 J3 J3 J3 J3 J3 J3 J3 J3 J3 J3 J3 J3 J3 J3 J3 J3 J3 J3 J3 J3 J3 J3 J3 J3 J3 J3 J3 J3 J3 J3 J3 J3 J3 J3 J3 J3 J3 J3 J3 J3 J3 J3 J3 J3 J3 J3 J3 J3 J3 J3 J3 J3 J3 J3 J3 J3 J3 J3 J3 J3 J3 J3 J3 J3 J3 J3 J3 J3 J3 J3 J3 J3 J3 J3 J3 J3 J3H J3H J3H J3H J3H J3H J3H J3H 3H 3H 3H 3H 3H 3H 3H 3H 3H 3H 3H 3H 3H 3H 3H 3H 3H 3H 3H 3H 3H 3H 3H 3H 3H 3H 3H 3H 3H 3H 3H 3H 3H 3H H H H5 H5 H5 H5 H5 H5 H5 H5 H5 H5 H5 H5 H5 H5 H5 H5 H5 H5 H5 H5 H5 H5 H5 H5 H5 H5 H5 H5 H5 H5 H5 H5 H5 H5 H5 H5 H5 H5 H5 H5 HJ5 HJ5 HJ5 HJ5 HJ5 HJ5 HJ5 HJ5 J5 J5 J5 J5 J5 J5 J5 J5 J5 J5 J5 J5 J5 J5 J5 J5 J5 J5 J5 J5 J5 J5 J5 J5 J5 J5 J5 J5 J5 J5 J5 J5 J5 J5 J5 J5 J5 J5 J5 J5 J5 J5 J5 J5 J5 J5 J5 J5 J5 J5 J5 J5 J5 J5 J5 J5 J5 J5 J5 J5 J5 J5 J5 J5 J5 J5 J5 J5 J5 J5 J5 J5 J5 J5 J5 J5 JH5 JH5 JH5 JH5 JH5 JH5 JH5 JH5 H5 H5 H5 H5 H5 H5 H5 H5 H5 H5 H5 H5 H5 H5 H5 H5 H5 H5 H5 H5 H5 H5 H5 H5 H5 H5 H5 H5 H5 H5 H5 H5 H5 H5 H5 H5 H5 H5 H5 H5 H5 H5 H5 H5 H5 H5 H5 H5 H5 H5 H5 H5 H5 H5 H5 H5 H5 H5 H5 H5 H5 H5 H5 H5 H5 H5 H5 H5 H5 H5 H5 H5 H5 H5 H5 H5 HF5 HF5 HF5 HF5 HF5 HF5 HF5 HF5 F5 F5 F5 F5 F5 F5 F5 F5 F5 F5 F5 F5 F5 F5 F5 F5 F5 F5 F5 F5 F5 F5 F5 F5 F5 F5 F5 F5 F5 F5 F5 F5 F5 F5 F5 F5 F5 F5 F5 F5 F5 F5 F5 F5 F5 F5 F5 F5 F5 F5 F5 F5 F5 F5 F5 F5 F5 F5 F5 F5 F5 F5 F5 F5 F5 F5 F5 F5 F5 F5 F5 F5 F5 F5 F5 F5 F5H F5H F5H F5H F5H F5H F5H F5H 5H 5H 5H 5H 5H 5H 5H 5H 5H 5H 5H 5H 5H 5H 5H 5H 5H 5H 5H 5H 5H 5H 5H 5H 5H 5H 5H 5H 5H 5H 5H 5H 5H 5H 5H 5H 5H 5H 5H 5H 5H 5H 5H 5H 5H 5H 5H 5H 5H 5H 5H 5H 5H 5H 5H 5H 5H 5H 5H 5H 5H 5H 5H 5H 5H 5H 5H 5H 5H 5H 5H 5H 5H 5H H H.J H.J H.J H.J H.J H.J H.J H.J H.J .J .J .J .J .J .J .J .J .J .J .J .J .J .J .J .J .J .J .J .J .J .J .J .J .J .J .J .J .J .J .J .J .J .J .J .J .J .J .J .J .J .J .J .J .J .J .J .J .J .J .J .J .J .J .J .J .J .J .J .J .J .J .J .J .J .J .J .J .J .J .J .J .J .J .J .J .J .J .J .J .J .J .J .J .J .J .J .J .J .J .J .J .J .J .J .J .J .J .J .J .J .J .J .J .J .J .J .J .J .J .J .J .J .J .J .J .J .J .J .J .J .J .J .J .J .J .J .J .J .J .J .J .J .J .J .J .J .J .J .J .J .J .J .J .J .J .J .J .J .J .J .J .J .J .J .J .J .J .J .J .J .J .J .J .J .J .J .J .J .J .J .J .J .J .J .J .J .J .J H.J H.J H.J H.J H.J H.J H.J H.J H.J H.J H.J H.J H.J H.J H.J H.J H.J H.J H.J H.J H.J H.J H.J H.J H.J H.J H.J H.J H.J H.J H.J H.J H.J H.J H.J H.J H.J H.J H.J H.J H.J H.J H.J H.J H.J H.J H.J H.J H.J H.J H.J H.J H.J H.J H.J H.J H.J H.J H.J H.J H.J H.J H.J H.J H.J H.J H.J H.J H.J H.J H.J H.J H.J H.J H.J H.J H.J H.J H.J H.J H.J H.J H.J H.J H.J H.J H.J H.J H.J H.J H.J H.J H.J H.J H.J H.J H.J H.J H.J H.J H.J H.J H.J H.J H.J H.J H.J H.J H.J H.J H.J H.J H.J H.J H.J H.J H.J H.J H.J H.J H.J H.J H.J H.J H.J H.J H.J H.J H.J H.J H.J H.J H.J H.J H.J H.J H.J H.J H.J H.J H.J H.J H.J H.J H.J H.J H.J H.J H.J H.J H.J H.J H.J H.J H.J H.J H.J H.J H.J H.J H.J H.J H.J H.J H.J H.J H.J H.J H.J H.J H.J H.J H.J H.J H.J H.J H.J H.J H.J H.J H.J H.J H.J H.J H.J H.J J J F5J F5J F5J F5J F5J F5J F5J F5J F5J F5J F5J F5J F5J F5J F5J F5J F5J F5J F5J F5J F5J F5J F5J F5J F5J F5J F5J F5J F5J F5J F5J F5J F5J F5J F5J F5J F5J F5J F5J F5J F5J F5J F5J F5J F5J F5J F5J F5J F5J F5J F5J F5J F5J F5J F5J F5J F5J F5J F5J F5J F5J F5J F5J F5J F5J F5J F5J F5J F5J F5J F5J F5J F5J F5J F5J F5J F5J F5J F5J F5J F5J F5J F5J F5J F5J F5J F5J F5J F5J F5J F5J F5J F5J F5J F5J F5J F5J F5J F5J F5J F5J F5J F5J F5J F5J F5J F5J F5J F5J F5J F5J F5J F5J F5J F5J F5J F5J F5J F5J F5J F5J F5J F5J F5J F5J F5J F5J F5J F5J F5J F5J F5J F5J F5J F5J F5J F5J F5J F5J F5J F5J F5J F5J F5J F5J F5J F5J F5J F5J F5J F5J F5J F5J F5J F5J F5J F5J F5J F5J F5J F5J F5J F5J F5J F5J F5J F5J F5J F5J F5J F5J F5J F5J F5J F5J F5J F5J F5J F5J F5J F5J F5J F5J F5J F5J F5J 5J 5J E5J E5J E5J E5J E5J E5J E5J E5J E5J E5J E5J E5J E5J E5J E5J E5J E5J E5J E5J E5J E5J E5J E5J E5J E5J E5J E5J E5J E5J E5J E5J E5J E5J E5J E5J E5J E5J E5J E5J E5J E5J E5J E5J E5J E5J E5J E5J E5J E5J E5J E5J E5J E5J E5J E5J E5J E5J E5J E5J E5J E5J E5J E5J E5J E5J E5J E5J E5J E5J E5J E5J E5J E5J E5J E5J E5J E5J E5J E5J E5J E5J E5J E5J E5J E5J E5J E5J E5J E5J E5J E5J E5J E5J E5J E5J E5J E5J E5J E5J E5J E5J E5J E5J E5J E5J E5J E5J E5J E5J E5J E5J E5J E5J E5J E5J E5J E5J E5J E5J E5J E5J E5J E5J E5J E5J E5J E5J E5J E5J E5J E5J E5J E5J E5J E5J E5J E5J E5J E5J E5J E5J E5J E5J E5J E5J E5J E5J E5J E5J E5J E5J E5J E5J E5J E5J E5J E5J E5J E5J E5J E5J E5J E5J E5J E5J E5J E5J E5J E5J E5J E5J E5J E5J E5J E5J E5J E5J E5J E5J E5J E5J E5J E5J E5J E5J E5J J J FJ: FJ: FJ: FJ: FJ: FJ: FJ: FJ: FJ: FJ: FJ: FJ: FJ: FJ: FJ: FJ: FJ: FJ: FJ: FJ: FJ: FJ: FJ: FJ: FJ: FJ: FJ: FJ: FJ: FJ: FJ: FJ: FJ: FJ: FJ: FJ: FJ: FJ: FJ: FJ: FJ: FJ: FJ: FJ: FJ: FJ: FJ: FJ: FJ: FJ: FJ: FJ: FJ: FJ: FJ: FJ: FJ: FJ: FJ: FJ: FJ: FJ: FJ: FJ: FJ: FJ: FJ: FJ: FJ: FJ: FJ: FJ: FJ: FJ: FJ: FJ: FJ: FJ: FJ: FJ: FJ: FJ: FJ: FJ: FJ: FJ: FJ: FJ: FJ: FJ: FJ: FJ: FJ: FJ: FJ: FJ: FJ: FJ: FJ: FJ: FJ: FJ: FJ: FJ: FJ: FJ: FJ: FJ: FJ: FJ: FJ: FJ: FJ: FJ: FJ: FJ: FJ: FJ: FJ: FJ: FJ: FJ: FJ: FJ: FJ: FJ: FJ: FJ: FJ: FJ: FJ: FJ: FJ: FJ: FJ: FJ: FJ: FJ: FJ: FJ: FJ: FJ: FJ: FJ: FJ: FJ: FJ: FJ: FJ: FJ: FJ: FJ: FJ: FJ: FJ: FJ: FJ: FJ: FJ: FJ: FJ: FJ: FJ: FJ: FJ: FJ: FJ: FJ: FJ: FJ: FJ: FJ: FJ: FJ: FJ: FJ: FJ: FJ: FJ: FJ: FJ: FJ: FJ: FJ: FJ: FJ: J: J: CJ: CJ: CJ: CJ: CJ: CJ: CJ: CJ: CJ: CJ: CJ: CJ: CJ: CJ: CJ: CJ: CJ: CJ: CJ: CJ: CJ: CJ: CJ: CJ: CJ: CJ: CJ: CJ: CJ: CJ: CJ: CJ: CJ: CJ: CJ: CJ: CJ: CJ: CJ: CJ: CJ: CJ: CJ: CJ: CJ: CJ: CJ: CJ: CJ: CJ: CJ: CJ: CJ: CJ: CJ: CJ: CJ: CJ: CJ: CJ: CJ: CJ: CJ: CJ: CJ: CJ: CJ: CJ: CJ: CJ: CJ: CJ: CJ: CJ: CJ: CJ: CJ: CJ: CJ: CJ: CJ: CJ: CJ: CJ: CJ: CJ: CJ: CJ: CJ: CJ: CJ: CJ: CJ: CJ: CJ: CJ: CJ: CJ: CJ: CJ: CJ: CJ: CJ: CJ: CJ: CJ: CJ: CJ: CJ: CJ: CJ: CJ: CJ: CJ: CJ: CJ: CJ: CJ: CJ: CJ: CJ: CJ: CJ: CJ: CJ: CJ: CJ: CJ: CJ: CJ: CJ: CJ: CJ: CJ: CJ: CJ: CJ: CJ: CJ: CJ: CJ: CJ: CJ: CJ: CJ: CJ: CJ: CJ: CJ: CJ: CJ: CJ: CJ: CJ: CJ: CJ: CJ: CJ: CJ: CJ: CJ: CJ: CJ: CJ: CJ: CJ: CJ: CJ: CJ: CJ: CJ: CJ: CJ: CJ: CJ: CJ: CJ: CJ: CJ: CJ: CJ: CJ: CJ: CJ: CJ: CJ: J: J: EJ: EJ: EJ: EJ: EJ: EJ: EJ: EJ: EJ: EJ: EJ: EJ: EJ: EJ: EJ: EJ: EJ: EJ: EJ: EJ: EJ: EJ: EJ: EJ: EJ: EJ: EJ: EJ: EJ: EJ: EJ: EJ: EJ: EJ: EJ: EJ: EJ: EJ: EJ: EJ: EJ: EJ: EJ: EJ: EJ: EJ: EJ: EJ: EJ: EJ: EJ: EJ: EJ: EJ: EJ: EJ: EJ: EJ: EJ: EJ: EJ: EJ: EJ: EJ: EJ: EJ: EJ: EJ: EJ: EJ: EJ: EJ: EJ: EJ: EJ: EJ: EJ: EJ: EJ: EJ: EJ: EJ: EJ: EJ: EJ: EJ: EJ: EJ: EJ: EJ: EJ: EJ: EJ: EJ: EJ: EJ: EJ: EJ: EJ: EJ: EJ: EJ: EJ: EJ: EJ: EJ: EJ: EJ: EJ: EJ: EJ: EJ: EJ: EJ: EJ: EJ: EJ: EJ: EJ: EJ: EJ: EJ: EJ: EJ: EJ: EJ: EJ: EJ: EJ: EJ: EJ: EJ: EJ: EJ: EJ: EJ: EJ: EJ: EJ: EJ: EJ: EJ: EJ: EJ: EJ: EJ: EJ: EJ: EJ: EJ: EJ: EJ: EJ: EJ: EJ: EJ: EJ: EJ: EJ: EJ: EJ: EJ: EJ: EJ: EJ: EJ: EJ: EJ: EJ: EJ: EJ: EJ: EJ: EJ: EJ: EJ: EJ: EJ: EJ: EJ: EJ: EJ: EJ: EJ: EJ: EJ: J: J: JF: JF: JF: JF: JF: JF: JF: JF: JF: JF: JF: JF: JF: JF: JF: JF: JF: JF: JF: JF: JF: JF: JF: JF: JF: JF: JF: JF: JF: JF: JF: JF: JF: JF: JF: JF: JF: JF: JF: JF: JF: JF: JF: JF: JF: JF: JF: JF: JF: JF: JF: JF: JF: JF: JF: JF: JF: JF: JF: JF: JF: JF: JF: JF: JF: JF: JF: JF: JF: JF: JF: JF: JF: JF: JF: JF: JF: JF: JF: JF: JF: JF: JF: JF: JF: JF: JF: JF: JF: JF: JF: JF: JF: JF: JF: JF: JF: JF: JF: JF: JF: JF: JF: JF: JF: JF: JF: JF: JF: JF: JF: JF: JF: JF: JF: JF: JF: JF: JF: JF: JF: JF: JF: JF: JF: JF: JF: JF: JF: JF: JF: JF: JF: JF: JF: JF: JF: JF: JF: JF: JF: JF: JF: JF: JF: JF: JF: JF: JF: JF: JF: JF: JF: JF: JF: JF: JF: JF: JF: JF: JF: JF: JF: JF: JF: JF: JF: JF: JF: JF: JF: JF: JF: JF: JF: JF: JF: JF: JF: JF: JF: JF: F: F: F: F: : : :@ :@ :@ :@ :@ :@ :@ :@ :@ :@ :@ :@ :@ :@ :@ :@ :@ :@ :@ :@ :@ :@ :@ :@ :@ :@ :@ :@ :@ :@ :@ :@ :@ :@ :@ :@ :@ :@ :@ :@ :@ :@ :@ :@ :@ :@ :@ :@ :@ :@ :@ :@ :@ :@ :@ :@ :@ :@ :@ :@ :@ :@ :@ :@ :@ :@ :@ :@ :@ :@ :@ :@ :@ :@ :@ :@ :@ :@ :@ :@ :@ :@ :@ :@ :@ :@ :@ :@ :@ :@ :@ :@ :@ :@ :@ :@ :@ :@ :@ :@ :@ :@ :@ :@ :@ :@ :@ :@ :@ :@ :@ :@ :@ :@ :@ :@ :@ :@ :@ :@ :@ :@ :@ :@ :@ :@ :@ :@ :@ :@ :@ :@ :@ :@ :@ :@ :@ :@ :@ :@ :@ :@ :@ :@ :@ :@ :@ :@ :@ :@ :@ :@ :@ :@ :@ :@ :@ :@ :@ :@ :@ :@ :@ :@ :@ :@ :@ :@ :@ :@ :@ :@ :@ :@ :@ :@ :@ :@ :@ :@ :@ :@ :@ :@ :@ @ @ @ C>@ C>@ C>@ C>@ C>@ C>@ C>@ C>@ C>@ C>@ C>@ C>@ C>@ C>@ C>@ C>@ C>@ C>@ C>@ C>@ C>@ C>@ C>@ C>@ C>@ C>@ C>@ C>@ C>@ C>@ C>@ C>@ C>@ C>@ C>@ C>@ C>@ C>@ C>@ C>@ C>@ C>@ C>@ C>@ C>@ C>@ C>@ C>@ C>@ C>@ C>@ C>@ C>@ C>@ C>@ C>@ C>@ C>@ C>@ C>@ C>@ C>@ C>@ C>@ C>@ C>@ C>@ C>@ C>@ C>@ C>@ C>@ C>@ C>@ C>@ C>@ C>@ C>@ C>@ C>@ C>@ C>@ C>@ C>@ C>@ C>@ C>@ C>@ C>@ C>@ C>@ C>@ C>@ C>@ C>@ C>@ C>@ C>@ C>@ C>@ C>@ C>@ C>@ C>@ C>@ C>@ C>@ C>@ C>@ C>@ C>@ C>@ C>@ C>@ C>@ C>@ C>@ C>@ C>@ C>@ C>@ C>@ C>@ C>@ C>@ C>@ C>@ C>@ C>@ C>@ C>@ C>@ C>@ C>@ C>@ C>@ C>@ C>@ C>@ C>@ C>@ C>@ C>@ C>@ C>@ C>@ C>@ C>@ C>@ C>@ C>@ C>@ C>@ C>@ C>@ C>@ C>@ C>@ C>@ C>@ C>@ C>@ C>@ C>@ C>@ C>@ C>@ C>@ C>@ C>@ C>@ C>@ C>@ C>@ C>@ C>@ C>@ C>@ C>@ C>@ C>@ C>@ C>@ C>@ C>@ C>@ @ @ E<@ E<@ E<@ E<@ E<@ E<@ E<@ E<@ E<@ E<@ E<@ E<@ E<@ E<@ E<@ E<@ E<@ E<@ E<@ E<@ E<@ E<@ E<@ E<@ E<@ E<@ E<@ E<@ E<@ E<@ E<@ E<@ E<@ E<@ E<@ E<@ E<@ E<@ E<@ E<@ E<@ E<@ E<@ E<@ E<@ E<@ E<@ E<@ E<@ E<@ E<@ E<@ E<@ E<@ E<@ E<@ E<@ E<@ E<@ E<@ E<@ E<@ E<@ E<@ E<@ E<@ E<@ E<@ E<@ E<@ E<@ E<@ E<@ E<@ E<@ E<@ E<@ E<@ E<@ E<@ E<@ E<@ E<@ E<@ E<@ E<@ E<@ E<@ E<@ E<@ E<@ E<@ E<@ E<@ E<@ E<@ E<@ E<@ E<@ E<@ E<@ E<@ E<@ E<@ E<@ E<@ E<@ E<@ E<@ E<@ E<@ E<@ E<@ E<@ E<@ E<@ E<@ E<@ E<@ E<@ E<@ E<@ E<@ E<@ E<@ E<@ E<@ E<@ E<@ E<@ E<@ E<@ E<@ E<@ E<@ E<@ E<@ E<@ E<@ E<@ E<@ E<@ E<@ E<@ E<@ E<@ E<@ E<@ E<@ E<@ E<@ E<@ E<@ E<@ E<@ E<@ E<@ E<@ E<@ E<@ E<@ E<@ E<@ E<@ E<@ E<@ E<@ E<@ E<@ E<@ E<@ E<@ E<@ E<@ E<@ E<@ E<@ E<@ E<@ E<@ E<@ E<@ E<@ E<@ E<@ E<@ @ @ F:@ F:@ F:@ F:@ F:@ F:@ F:@ F:@ F:@ F:@ F:@ F:@ F:@ F:@ F:@ F:@ F:@ F:@ F:@ F:@ F:@ F:@ F:@ F:@ F:@ F:@ F:@ F:@ F:@ F:@ F:@ F:@ F:@ F:@ F:@ F:@ F:@ F:@ F:@ F:@ F:@ F:@ F:@ F:@ F:@ F:@ F:@ F:@ F:@ F:@ F:@ F:@ F:@ F:@ F:@ F:@ F:@ F:@ F:@ F:@ F:@ F:@ F:@ F:@ F:@ F:@ F:@ F:@ F:@ F:@ F:@ F:@ F:@ F:@ F:@ F:@ F:@ F:@ F:@ F:@ F:@ F:@ F:@ F:@ F:@ F:@ F:@ F:@ F:@ F:@ F:@ F:@ F:@ F:@ F:@ F:@ F:@ F:@ F:@ F:@ F:@ F:@ F:@ F:@ F:@ F:@ F:@ F:@ F:@ F:@ F:@ F:@ F:@ F:@ F:@ F:@ F:@ F:@ F:@ F:@ F:@ F:@ F:@ F:@ F:@ F:@ F:@ F:@ F:@ F:@ F:@ F:@ F:@ F:@ F:@ F:@ F:@ F:@ F:@ F:@ F:@ F:@ F:@ F:@ F:@ F:@ F:@ F:@ F:@ F:@ F:@ F:@ F:@ F:@ F:@ F:@ F:@ F:@ F:@ F:@ F:@ F:@ F:@ F:@ F:@ F:@ F:@ F:@ F:@ F:@ F:@ F:@ F:@ F:@ F:@ F:@ F:@ F:@ F:@ F:@ F:@ F:@ F:@ F:@ F:@ F:@ @   9H 9H 9H 9H 9H 9H 9H 9H 9H 9H 9H 9H 9H 9H 9H 9H 9H 9H 9H 9H 9H 9H 9H 9H 9H 9H 9H 9H 9H 9H 9H 9H 9H 9H 9H 9H 9H 9H 9H 9H 9H 9H 9H 9H 9H 9H 9H 9H 9H 9H 9H 9H 9H 9H 9H 9H 9H 9H 9H 9H 9H 9H 9H 9H 9H 9H 9H 9H 9H 9H 9H 9H 9H 9H 9H 9H 9H 9H 9H 9H 9H 9H 9H 9H 9H 9H 9H 9H 9H 9H 9H 9H 9H 9H 9H 9H 9H 9H 9H 9H 9H 9H 9H 9H 9H 9H 9H 9H 9H 9H 9H 9H 9H 9H 9H 9H 9H 9H 9H 9H 9H 9H 9H 9H 9H 9H 9H 9H 9H 9H 9H 9H 9H 9H 9H 9H 9H 9H 9H 9H 9H 9H 9H 9H 9H 9H 9H 9H 9H 9H 9H 9H 9H 9H 9H 9H 9H 9H 9H 9H 9H 9H 9H 9H 9H 9H 9H 9H 9H 9H 9H 9H 9H 9H 9H 9H 9H 9H 9H 9H 9H 9H 9H 9H 9H 9H 9H 9H F9H F9H F9H F9H F9H F9H F9H F9H F9H F9H F9H F9H F9H F9H F9H F9H F9H F9H F9H F9H F9H F9H F9H F9H F9H F9H F9H F9H F9H F9H F9H F9H F9H F9H F9H F9H F9H F9H F9H F9H F9H F9H F9H F9H F9H F9H F9H F9H F9H F9H F9H F9H F9H F9H F9H F9H F9H F9H F9H F9H F9H F9H F9H F9H F9H F9H F9H F9H F9H F9H F9H F9H F9H F9H F9H F9H F9H F9H F9H F9H F9H F9H F9H F9H F9H F9H F9H F9H F9H F9H F9H F9H F9H F9H F9H F9H F9H F9H F9H F9H F9H F9H F9H F9H F9H F9H F9H F9H F9H F9H F9H F9H F9H F9H F9H F9H F9H F9H F9H F9H F9H F9H F9H F9H F9H F9H F9H F9H F9H F9H F9H F9H F9H F9H F9H F9H F9H F9H F9H F9H F9H F9H F9H F9H F9H F9H F9H F9H F9H F9H F9H F9H F9H F9H F9H F9H F9H F9H F9H F9H F9H F9H F9H F9H F9H F9H F9H F9H F9H F9H F9H F9H F9H F9H F9H F9H F9H F9H F9H F9H F9H F9H F9H F9H F9H F9H H H E7H E7H E7H E7H E7H E7H E7H E7H E7H E7H E7H E7H E7H E7H E7H E7H E7H E7H E7H E7H E7H E7H E7H E7H E7H E7H E7H E7H E7H E7H E7H E7H E7H E7H E7H E7H E7H E7H E7H E7H E7H E7H E7H E7H E7H E7H E7H E7H E7H E7H E7H E7H E7H E7H E7H E7H E7H E7H E7H E7H E7H E7H E7H E7H E7H E7H E7H E7H E7H E7H E7H E7H E7H E7H E7H E7H E7H E7H E7H E7H E7H E7H E7H E7H E7H E7H E7H E7H E7H E7H E7H E7H E7H E7H E7H E7H E7H E7H E7H E7H E7H E7H E7H E7H E7H E7H E7H E7H E7H E7H E7H E7H E7H E7H E7H E7H E7H E7H E7H E7H E7H E7H E7H E7H E7H E7H E7H E7H E7H E7H E7H E7H E7H E7H E7H E7H E7H E7H E7H E7H E7H E7H E7H E7H E7H E7H E7H E7H E7H E7H E7H E7H E7H E7H E7H E7H E7H E7H E7H E7H E7H E7H E7H E7H E7H E7H E7H E7H E7H E7H E7H E7H E7H E7H E7H E7H E7H E7H E7H E7H E7H E7H E7H E7H E7H E7H 7H 7H C7H C7H C7H C7H C7H C7H C7H C7H C7H C7H C7H C7H C7H C7H C7H C7H C7H C7H C7H C7H C7H C7H C7H C7H C7H C7H C7H C7H C7H C7H C7H C7H C7H C7H C7H C7H C7H C7H C7H C7H C7H C7H C7H C7H C7H C7H C7H C7H C7H C7H C7H C7H C7H C7H C7H C7H C7H C7H C7H C7H C7H C7H C7H C7H C7H C7H C7H C7H C7H C7H C7H C7H C7H C7H C7H C7H C7H C7H C7H C7H C7H C7H C7H C7H C7H C7H C7H C7H C7H C7H C7H C7H C7H C7H C7H C7H C7H C7H C7H C7H C7H C7H C7H C7H C7H C7H C7H C7H C7H C7H C7H C7H C7H C7H C7H C7H C7H C7H C7H C7H C7H C7H C7H C7H C7H C7H C7H C7H C7H C7H C7H C7H C7H C7H C7H C7H C7H C7H C7H C7H C7H C7H C7H C7H C7H C7H C7H C7H C7H C7H C7H C7H C7H C7H C7H C7H C7H C7H C7H C7H C7H C7H C7H C7H C7H C7H C7H C7H C7H C7H C7H C7H C7H C7H C7H C7H C7H C7H C7H C7H C7H C7H C7H C7H C7H C7H H H EH6 EH6 EH6 EH6 EH6 EH6 EH6 EH6 EH6 EH6 EH6 EH6 EH6 EH6 EH6 EH6 EH6 EH6 EH6 EH6 EH6 EH6 EH6 EH6 EH6 EH6 EH6 EH6 EH6 EH6 EH6 EH6 EH6 EH6 EH6 EH6 EH6 EH6 EH6 EH6 EH6 EH6 EH6 EH6 EH6 EH6 EH6 EH6 EH6 EH6 EH6 EH6 EH6 EH6 EH6 EH6 EH6 EH6 EH6 EH6 EH6 EH6 EH6 EH6 EH6 EH6 EH6 EH6 EH6 EH6 EH6 EH6 EH6 EH6 EH6 EH6 EH6 EH6 EH6 EH6 EH6 EH6 EH6 EH6 EH6 EH6 EH6 EH6 EH6 EH6 EH6 EH6 EH6 EH6 EH6 EH6 EH6 EH6 EH6 EH6 EH6 EH6 EH6 EH6 EH6 EH6 EH6 EH6 EH6 EH6 EH6 EH6 EH6 EH6 EH6 EH6 EH6 EH6 EH6 EH6 EH6 EH6 EH6 EH6 EH6 EH6 EH6 EH6 EH6 EH6 EH6 EH6 EH6 EH6 EH6 EH6 EH6 EH6 EH6 EH6 EH6 EH6 EH6 EH6 EH6 EH6 EH6 EH6 EH6 EH6 EH6 EH6 EH6 EH6 EH6 EH6 EH6 EH6 EH6 EH6 EH6 EH6 EH6 EH6 EH6 EH6 EH6 EH6 EH6 EH6 EH6 EH6 EH6 EH6 EH6 EH6 EH6 EH6 EH6 EH6 EH6 EH6 EH6 EH6 EH6 EH6 H6 H6 BH6 BH6 BH6 BH6 BH6 BH6 BH6 BH6 BH6 BH6 BH6 BH6 BH6 BH6 BH6 BH6 BH6 BH6 BH6 BH6 BH6 BH6 BH6 BH6 BH6 BH6 BH6 BH6 BH6 BH6 BH6 BH6 BH6 BH6 BH6 BH6 BH6 BH6 BH6 BH6 BH6 BH6 BH6 BH6 BH6 BH6 BH6 BH6 BH6 BH6 BH6 BH6 BH6 BH6 BH6 BH6 BH6 BH6 BH6 BH6 BH6 BH6 BH6 BH6 BH6 BH6 BH6 BH6 BH6 BH6 BH6 BH6 BH6 BH6 BH6 BH6 BH6 BH6 BH6 BH6 BH6 BH6 BH6 BH6 BH6 BH6 BH6 BH6 BH6 BH6 BH6 BH6 BH6 BH6 BH6 BH6 BH6 BH6 BH6 BH6 BH6 BH6 BH6 BH6 BH6 BH6 BH6 BH6 BH6 BH6 BH6 BH6 BH6 BH6 BH6 BH6 BH6 BH6 BH6 BH6 BH6 BH6 BH6 BH6 BH6 BH6 BH6 BH6 BH6 BH6 BH6 BH6 BH6 BH6 BH6 BH6 BH6 BH6 BH6 BH6 BH6 BH6 BH6 BH6 BH6 BH6 BH6 BH6 BH6 BH6 BH6 BH6 BH6 BH6 BH6 BH6 BH6 BH6 BH6 BH6 BH6 BH6 BH6 BH6 BH6 BH6 BH6 BH6 BH6 BH6 BH6 BH6 BH6 BH6 BH6 BH6 BH6 BH6 BH6 BH6 BH6 BH6 BH6 BH6 BH6 BH6 H6 H6 CH6 CH6 CH6 CH6 CH6 CH6 CH6 CH6 CH6 CH6 CH6 CH6 CH6 CH6 CH6 CH6 CH6 CH6 CH6 CH6 CH6 CH6 CH6 CH6 CH6 CH6 CH6 CH6 CH6 CH6 CH6 CH6 CH6 CH6 CH6 CH6 CH6 CH6 CH6 CH6 CH6 CH6 CH6 CH6 CH6 CH6 CH6 CH6 CH6 CH6 CH6 CH6 CH6 CH6 CH6 CH6 CH6 CH6 CH6 CH6 CH6 CH6 CH6 CH6 CH6 CH6 CH6 CH6 CH6 CH6 CH6 CH6 CH6 CH6 CH6 CH6 CH6 CH6 CH6 CH6 CH6 CH6 CH6 CH6 CH6 CH6 CH6 CH6 CH6 CH6 CH6 CH6 CH6 CH6 CH6 CH6 CH6 CH6 CH6 CH6 CH6 CH6 CH6 CH6 CH6 CH6 CH6 CH6 CH6 CH6 CH6 CH6 CH6 CH6 CH6 CH6 CH6 CH6 CH6 CH6 CH6 CH6 CH6 CH6 CH6 CH6 CH6 CH6 CH6 CH6 CH6 CH6 CH6 CH6 CH6 CH6 CH6 CH6 CH6 CH6 CH6 CH6 CH6 CH6 CH6 CH6 CH6 CH6 CH6 CH6 CH6 CH6 CH6 CH6 CH6 CH6 CH6 CH6 CH6 CH6 CH6 CH6 CH6 CH6 CH6 CH6 CH6 CH6 CH6 CH6 CH6 CH6 CH6 CH6 CH6 CH6 CH6 CH6 CH6 CH6 CH6 CH6 CH6 CH6 CH6 CH6 H6 H6 EH6 EH6 EH6 EH6 EH6 EH6 EH6 EH6 EH6 EH6 EH6 EH6 EH6 EH6 EH6 EH6 EH6 EH6 EH6 EH6 EH6 EH6 EH6 EH6 EH6 EH6 EH6 EH6 EH6 EH6 EH6 EH6 EH6 EH6 EH6 EH6 EH6 EH6 EH6 EH6 EH6 EH6 EH6 EH6 EH6 EH6 EH6 EH6 EH6 EH6 EH6 EH6 EH6 EH6 EH6 EH6 EH6 EH6 EH6 EH6 EH6 EH6 EH6 EH6 EH6 EH6 EH6 EH6 EH6 EH6 EH6 EH6 EH6 EH6 EH6 EH6 EH6 EH6 EH6 EH6 EH6 EH6 EH6 EH6 EH6 EH6 EH6 EH6 EH6 EH6 EH6 EH6 EH6 EH6 EH6 EH6 EH6 EH6 EH6 EH6 EH6 EH6 EH6 EH6 EH6 EH6 EH6 EH6 EH6 EH6 EH6 EH6 EH6 EH6 EH6 EH6 EH6 EH6 EH6 EH6 EH6 EH6 EH6 EH6 EH6 EH6 EH6 EH6 EH6 EH6 EH6 EH6 EH6 EH6 EH6 EH6 EH6 EH6 EH6 EH6 EH6 EH6 EH6 EH6 EH6 EH6 EH6 EH6 EH6 EH6 EH6 EH6 EH6 EH6 EH6 EH6 EH6 EH6 EH6 EH6 EH6 EH6 EH6 EH6 EH6 EH6 EH6 EH6 EH6 EH6 EH6 EH6 EH6 EH6 EH6 EH6 EH6 EH6 EH6 EH6 EH6 EH6 EH6 EH6 EH6 EH6 H6 H6 H6> H6> H6> H6> H6> H6> H6> H6> H6> H6> H6> H6> H6> H6> H6> H6> H6> H6> H6> H6> H6> H6> H6> H6> H6> H6> H6> H6> H6> H6> H6> H6> H6> H6> H6> H6> H6> H6> H6> H6> H6> H6> H6> H6> H6> H6> H6> H6> H6> H6> H6> H6> H6> H6> H6> H6> H6> H6> H6> H6> H6> H6> H6> H6> H6> H6> H6> H6> H6> H6> H6> H6> H6> H6> H6> H6> H6> H6> H6> H6> H6> H6> H6> H6> H6> H6> H6> H6> H6> H6> H6> H6> H6> H6> H6> H6> H6> H6> H6> H6> H6> H6> H6> H6> H6> H6> H6> H6> H6> H6> H6> H6> H6> H6> H6> H6> H6> H6> H6> H6> H6> H6> H6> H6> H6> H6> H6> H6> H6> H6> H6> H6> H6> H6> H6> H6> H6> H6> H6> H6> H6> H6> H6> H6> H6> H6> H6> H6> H6> H6> H6> H6> H6> H6> H6> H6> H6> H6> H6> H6> H6> H6> H6> H6> H6> H6> H6> H6> H6> H6> H6> H6> H6> H6> H6> H6> H6> H6> H6> H6> 6> 6> 6> 6> 6> 6> 6> > > H2> H2> H2> H2> H2> H2> H2> H2> H2> H2> H2> H2> H2> H2> H2> H2> H2> H2> H2> H2> H2> H2> H2> H2> H2> H2> H2> H2> H2> H2> H2> H2> H2> H2> H2> H2> H2> H2> H2> H2> H2> H2> H2> H2> H2> H2> H2> H2> H2> H2> H2> H2> H2> H2> H2> H2> H2> H2> H2> H2> H2> H2> H2> H2> H2> H2> H2> H2> H2> H2> H2> H2> H2> H2> H2> H2> H2> H2> H2> H2> H2> H2> H2> H2> H2> H2> H2> H2> H2> H2> H2> H2> H2> H2> H2> H2> H2> H2> H2> H2> H2> H2> H2> H2> H2> H2> H2> H2> H2> H2> H2> H2> H2> H2> H2> H2> H2> H2> H2> H2> H2> H2> H2> H2> H2> H2> H2> H2> H2> H2> H2> H2> H2> H2> H2> H2> H2> H2> H2> H2> H2> H2> H2> H2> H2> H2> H2> H2> H2> H2> H2> H2> H2> H2> H2> H2> H2> H2> H2> H2> H2> H2> H2> H2> H2> H2> H2> H2> H2> H2> H2> H2> H2> H2> H2> H2> H2> H2> H2> H2> H2> H2> H2> H2> H2> H2> > > F4> F4> F4> F4> F4> F4> F4> F4> F4> F4> F4> F4> F4> F4> F4> F4> F4> F4> F4> F4> F4> F4> F4> F4> F4> F4> F4> F4> F4> F4> F4> F4> F4> F4> F4> F4> F4> F4> F4> F4> F4> F4> F4> F4> F4> F4> F4> F4> F4> F4> F4> F4> F4> F4> F4> F4> F4> F4> F4> F4> F4> F4> F4> F4> F4> F4> F4> F4> F4> F4> F4> F4> F4> F4> F4> F4> F4> F4> F4> F4> F4> F4> F4> F4> F4> F4> F4> F4> F4> F4> F4> F4> F4> F4> F4> F4> F4> F4> F4> F4> F4> F4> F4> F4> F4> F4> F4> F4> F4> F4> F4> F4> F4> F4> F4> F4> F4> F4> F4> F4> F4> F4> F4> F4> F4> F4> F4> F4> F4> F4> F4> F4> F4> F4> F4> F4> F4> F4> F4> F4> F4> F4> F4> F4> F4> F4> F4> F4> F4> F4> F4> F4> F4> F4> F4> F4> F4> F4> F4> F4> F4> F4> F4> F4> F4> F4> F4> F4> F4> F4> F4> F4> F4> F4> F4> F4> F4> F4> F4> F4> F4> F4> F4> F4> F4> F4> > > E6> E6> E6> E6> E6> E6> E6> E6> E6> E6> E6> E6> E6> E6> E6> E6> E6> E6> E6> E6> E6> E6> E6> E6> E6> E6> E6> E6> E6> E6> E6> E6> E6> E6> E6> E6> E6> E6> E6> E6> E6> E6> E6> E6> E6> E6> E6> E6> E6> E6> E6> E6> E6> E6> E6> E6> E6> E6> E6> E6> E6> E6> E6> E6> E6> E6> E6> E6> E6> E6> E6> E6> E6> E6> E6> E6> E6> E6> E6> E6> E6> E6> E6> E6> E6> E6> E6> E6> E6> E6> E6> E6> E6> E6> E6> E6> E6> E6> E6> E6> E6> E6> E6> E6> E6> E6> E6> E6> E6> E6> E6> E6> E6> E6> E6> E6> E6> E6> E6> E6> E6> E6> E6> E6> E6> E6> E6> E6> E6> E6> E6> E6> E6> E6> E6> E6> E6> E6> E6> E6> E6> E6> E6> E6> E6> E6> E6> E6> E6> E6> E6> E6> E6> E6> E6> E6> E6> E6> E6> E6> E6> E6> E6> E6> E6> E6> E6> E6> E6> E6> E6> E6> E6> E6> E6> E6> E6> E6> E6> E6> E6> E6> E6> E6> E6> E6> > >  7F 7F 7F 7F 7F 7F 7F 7F 7F 7F 7F 7F 7F 7F 7F 7F 7F 7F 7F 7F 7F 7F 7F 7F 7F 7F 7F 7F 7F 7F 7F 7F 7F 7F 7F 7F 7F 7F 7F 7F 7F 7F 7F 7F 7F 7F 7F 7F 7F 7F 7F 7F 7F 7F 7F 7F 7F 7F 7F 7F 7F 7F 7F 7F 7F 7F 7F 7F 7F 7F 7F 7F 7F 7F 7F 7F 7F 7F 7F 7F 7F 7F 7F 7F 7F 7F 7F 7F 7F 7F 7F 7F 7F 7F 7F 7F 7F 7F 7F 7F 7F 7F 7F 7F 7F 7F 7F 7F 7F 7F 7F 7F 7F 7F 7F 7F 7F 7F 7F 7F 7F 7F 7F 7F 7F 7F 7F 7F 7F 7F 7F 7F 7F 7F 7F 7F 7F 7F 7F 7F 7F 7F 7F 7F 7F 7F 7F 7F 7F 7F 7F 7F 7F 7F 7F 7F 7F 7F 7F 7F 7F 7F 7F 7F 7F 7F 7F 7F 7F 7F 7F 7F 7F 7F 7F 7F 7F 7F 7F 7F 7F 7F 7F 7F 7F 7F 7F 7F E7F E7F E7F E7F E7F E7F E7F E7F E7F E7F E7F E7F E7F E7F E7F E7F E7F E7F E7F E7F E7F E7F E7F E7F E7F E7F E7F E7F E7F E7F E7F E7F E7F E7F E7F E7F E7F E7F E7F E7F E7F E7F E7F E7F E7F E7F E7F E7F E7F E7F E7F E7F E7F E7F E7F E7F E7F E7F E7F E7F E7F E7F E7F E7F E7F E7F E7F E7F E7F E7F E7F E7F E7F E7F E7F E7F E7F E7F E7F E7F E7F E7F E7F E7F E7F E7F E7F E7F E7F E7F E7F E7F E7F E7F E7F E7F E7F E7F E7F E7F E7F E7F E7F E7F E7F E7F E7F E7F E7F E7F E7F E7F E7F E7F E7F E7F E7F E7F E7F E7F E7F E7F E7F E7F E7F E7F E7F E7F E7F E7F E7F E7F E7F E7F E7F E7F E7F E7F E7F E7F E7F E7F E7F E7F E7F E7F E7F E7F E7F E7F E7F E7F E7F E7F E7F E7F E7F E7F E7F E7F E7F E7F E7F E7F E7F E7F E7F E7F E7F E7F E7F E7F E7F E7F E7F E7F E7F E7F E7F E7F E7F E7F E7F E7F E7F E7F F F C2F C2F C2F C2F C2F C2F C2F C2F C2F C2F C2F C2F C2F C2F C2F C2F C2F C2F C2F C2F C2F C2F C2F C2F C2F C2F C2F C2F C2F C2F C2F C2F C2F C2F C2F C2F C2F C2F C2F C2F C2F C2F C2F C2F C2F C2F C2F C2F C2F C2F C2F C2F C2F C2F C2F C2F C2F C2F C2F C2F C2F C2F C2F C2F C2F C2F C2F C2F C2F C2F C2F C2F C2F C2F C2F C2F C2F C2F C2F C2F C2F C2F C2F C2F C2F C2F C2F C2F C2F C2F C2F C2F C2F C2F C2F C2F C2F C2F C2F C2F C2F C2F C2F C2F C2F C2F C2F C2F C2F C2F C2F C2F C2F C2F C2F C2F C2F C2F C2F C2F C2F C2F C2F C2F C2F C2F C2F C2F C2F C2F C2F C2F C2F C2F C2F C2F C2F C2F C2F C2F C2F C2F C2F C2F C2F C2F C2F C2F C2F C2F C2F C2F C2F C2F C2F C2F C2F C2F C2F C2F C2F C2F C2F C2F C2F C2F C2F C2F C2F C2F C2F C2F C2F C2F C2F C2F C2F C2F C2F C2F C2F C2F C2F C2F C2F C2F 2F 2F B2F B2F B2F B2F B2F B2F B2F B2F B2F B2F B2F B2F B2F B2F B2F B2F B2F B2F B2F B2F B2F B2F B2F B2F B2F B2F B2F B2F B2F B2F B2F B2F B2F B2F B2F B2F B2F B2F B2F B2F B2F B2F B2F B2F B2F B2F B2F B2F B2F B2F B2F B2F B2F B2F B2F B2F B2F B2F B2F B2F B2F B2F B2F B2F B2F B2F B2F B2F B2F B2F B2F B2F B2F B2F B2F B2F B2F B2F B2F B2F B2F B2F B2F B2F B2F B2F B2F B2F B2F B2F B2F B2F B2F B2F B2F B2F B2F B2F B2F B2F B2F B2F B2F B2F B2F B2F B2F B2F B2F B2F B2F B2F B2F B2F B2F B2F B2F B2F B2F B2F B2F B2F B2F B2F B2F B2F B2F B2F B2F B2F B2F B2F B2F B2F B2F B2F B2F B2F B2F B2F B2F B2F B2F B2F B2F B2F B2F B2F B2F B2F B2F B2F B2F B2F B2F B2F B2F B2F B2F B2F B2F B2F B2F B2F B2F B2F B2F B2F B2F B2F B2F B2F B2F B2F B2F B2F B2F B2F B2F B2F B2F B2F B2F B2F B2F B2F F F CF+ CF+ CF+ CF+ CF+ CF+ CF+ CF+ CF+ CF+ CF+ CF+ CF+ CF+ CF+ CF+ CF+ CF+ CF+ CF+ CF+ CF+ CF+ CF+ CF+ CF+ CF+ CF+ CF+ CF+ CF+ CF+ CF+ CF+ CF+ CF+ CF+ CF+ CF+ CF+ CF+ CF+ CF+ CF+ CF+ CF+ CF+ CF+ CF+ CF+ CF+ CF+ CF+ CF+ CF+ CF+ CF+ CF+ CF+ CF+ CF+ CF+ CF+ CF+ CF+ CF+ CF+ CF+ CF+ CF+ CF+ CF+ CF+ CF+ CF+ CF+ CF+ CF+ CF+ CF+ CF+ CF+ CF+ CF+ CF+ CF+ CF+ CF+ CF+ CF+ CF+ CF+ CF+ CF+ CF+ CF+ CF+ CF+ CF+ CF+ CF+ CF+ CF+ CF+ CF+ CF+ CF+ CF+ CF+ CF+ CF+ CF+ CF+ CF+ CF+ CF+ CF+ CF+ CF+ CF+ CF+ CF+ CF+ CF+ CF+ CF+ CF+ CF+ CF+ CF+ CF+ CF+ CF+ CF+ CF+ CF+ CF+ CF+ CF+ CF+ CF+ CF+ CF+ CF+ CF+ CF+ CF+ CF+ CF+ CF+ CF+ CF+ CF+ CF+ CF+ CF+ CF+ CF+ CF+ CF+ CF+ CF+ CF+ CF+ CF+ CF+ CF+ CF+ CF+ CF+ CF+ CF+ CF+ CF+ CF+ CF+ CF+ CF+ CF+ CF+ CF+ CF+ CF+ CF+ CF+ CF+ F+ F+ ?F+ ?F+ ?F+ ?F+ ?F+ ?F+ ?F+ ?F+ ?F+ ?F+ ?F+ ?F+ ?F+ ?F+ ?F+ ?F+ ?F+ ?F+ ?F+ ?F+ ?F+ ?F+ ?F+ ?F+ ?F+ ?F+ ?F+ ?F+ ?F+ ?F+ ?F+ ?F+ ?F+ ?F+ ?F+ ?F+ ?F+ ?F+ ?F+ ?F+ ?F+ ?F+ ?F+ ?F+ ?F+ ?F+ ?F+ ?F+ ?F+ ?F+ ?F+ ?F+ ?F+ ?F+ ?F+ ?F+ ?F+ ?F+ ?F+ ?F+ ?F+ ?F+ ?F+ ?F+ ?F+ ?F+ ?F+ ?F+ ?F+ ?F+ ?F+ ?F+ ?F+ ?F+ ?F+ ?F+ ?F+ ?F+ ?F+ ?F+ ?F+ ?F+ ?F+ ?F+ ?F+ ?F+ ?F+ ?F+ ?F+ ?F+ ?F+ ?F+ ?F+ ?F+ ?F+ ?F+ ?F+ ?F+ ?F+ ?F+ ?F+ ?F+ ?F+ ?F+ ?F+ ?F+ ?F+ ?F+ ?F+ ?F+ ?F+ ?F+ ?F+ ?F+ ?F+ ?F+ ?F+ ?F+ ?F+ ?F+ ?F+ ?F+ ?F+ ?F+ ?F+ ?F+ ?F+ ?F+ ?F+ ?F+ ?F+ ?F+ ?F+ ?F+ ?F+ ?F+ ?F+ ?F+ ?F+ ?F+ ?F+ ?F+ ?F+ ?F+ ?F+ ?F+ ?F+ ?F+ ?F+ ?F+ ?F+ ?F+ ?F+ ?F+ ?F+ ?F+ ?F+ ?F+ ?F+ ?F+ ?F+ ?F+ ?F+ ?F+ ?F+ ?F+ ?F+ ?F+ ?F+ ?F+ ?F+ ?F+ ?F+ ?F+ ?F+ ?F+ ?F+ ?F+ ?F+ ?F+ ?F+ ?F+ ?F+ ?F+ ?F+ ?F+ F+ F+ FA+ FA+ FA+ FA+ FA+ FA+ FA+ FA+ FA+ FA+ FA+ FA+ FA+ FA+ FA+ FA+ FA+ FA+ FA+ FA+ FA+ FA+ FA+ FA+ FA+ FA+ FA+ FA+ FA+ FA+ FA+ FA+ FA+ FA+ FA+ FA+ FA+ FA+ FA+ FA+ FA+ FA+ FA+ FA+ FA+ FA+ FA+ FA+ FA+ FA+ FA+ FA+ FA+ FA+ FA+ FA+ FA+ FA+ FA+ FA+ FA+ FA+ FA+ FA+ FA+ FA+ FA+ FA+ FA+ FA+ FA+ FA+ FA+ FA+ FA+ FA+ FA+ FA+ FA+ FA+ FA+ FA+ FA+ FA+ FA+ FA+ FA+ FA+ FA+ FA+ FA+ FA+ FA+ FA+ FA+ FA+ FA+ FA+ FA+ FA+ FA+ FA+ FA+ FA+ FA+ FA+ FA+ FA+ FA+ FA+ FA+ FA+ FA+ FA+ FA+ FA+ FA+ FA+ FA+ FA+ FA+ FA+ FA+ FA+ FA+ FA+ FA+ FA+ FA+ FA+ FA+ FA+ FA+ FA+ FA+ FA+ FA+ FA+ FA+ FA+ FA+ FA+ FA+ FA+ FA+ FA+ FA+ FA+ FA+ FA+ FA+ FA+ FA+ FA+ FA+ FA+ FA+ FA+ FA+ FA+ FA+ FA+ FA+ FA+ FA+ FA+ FA+ FA+ FA+ FA+ FA+ FA+ FA+ FA+ FA+ FA+ FA+ FA+ FA+ FA+ FA+ FA+ A+ A+ A+ A+ + + FC+ FC+ FC+ FC+ FC+ FC+ FC+ FC+ FC+ FC+ FC+ FC+ FC+ FC+ FC+ FC+ FC+ FC+ FC+ FC+ FC+ FC+ FC+ FC+ FC+ FC+ FC+ FC+ FC+ FC+ FC+ FC+ FC+ FC+ FC+ FC+ FC+ FC+ FC+ FC+ FC+ FC+ FC+ FC+ FC+ FC+ FC+ FC+ FC+ FC+ FC+ FC+ FC+ FC+ FC+ FC+ FC+ FC+ FC+ FC+ FC+ FC+ FC+ FC+ FC+ FC+ FC+ FC+ FC+ FC+ FC+ FC+ FC+ FC+ FC+ FC+ FC+ FC+ FC+ FC+ FC+ FC+ FC+ FC+ FC+ FC+ FC+ FC+ FC+ FC+ FC+ FC+ FC+ FC+ FC+ FC+ FC+ FC+ FC+ FC+ FC+ FC+ FC+ FC+ FC+ FC+ FC+ FC+ FC+ FC+ FC+ FC+ FC+ FC+ FC+ FC+ FC+ FC+ FC+ FC+ FC+ FC+ FC+ FC+ FC+ FC+ FC+ FC+ FC+ FC+ FC+ FC+ FC+ FC+ FC+ FC+ FC+ FC+ FC+ FC+ FC+ FC+ FC+ FC+ FC+ FC+ FC+ FC+ FC+ FC+ FC+ FC+ FC+ FC+ FC+ FC+ FC+ FC+ FC+ FC+ FC+ FC+ FC+ FC+ FC+ FC+ FC+ FC+ FC+ FC+ FC+ FC+ FC+ FC+ FC+ FC+ FC+ FC+ FC+ FC+ FC+ FC+ FC+ FC+ FC+ FC+ +   >F >F >F >F >F >F >F >F >F >F >F >F >F >F >F >F >F >F >F >F >F >F >F >F >F >F >F >F >F >F >F >F >F >F >F >F >F >F >F >F >F >F >F >F >F >F >F >F >F >F >F >F >F >F >F >F >F >F >F >F >F >F >F >F >F >F >F >F >F >F >F >F >F >F >F >F >F >F >F >F >F >F >F >F >F >F >F >F >F >F >F >F >F >F >F >F >F >F >F >F >F >F >F >F >F >F >F >F >F >F >F >F >F >F >F >F >F >F >F >F >F >F >F >F >F >F >F >F >F >F >F >F >F >F >F >F >F >F >F >F >F >F >F >F >F >F >F >F >F >F >F >F >F >F >F >F >F >F >F >F >F >F >F >F >F= >F= >F= >F= >F= >F= F= F= F= F= F= F= F= F= F= F= F= F= F= F= F= F= = = =E =E =E =E =E =E =E =E =E =E =E =E =E =E =E =E =E =E =E =E =E =E =E =E =E =E =E =E =E =E =E =E =E =E =E =E =E =E =E =E =E =E =E =E =E =E =E =E =E =E =E =E =E =E =E =E =E =E =E =E =>E =>E =>E =>E =>E =>E =>E =>E >E >E >E >E >E >E >E >E >E >E >E >E >E >E >E >E >E >E >E >E >E >E >E >E >E >E >E >E >E >E >E >E >E >E >E >E >E >E >E >E >E >E >E >E >E >E >E >E >E >E >E >E >E >E >E >E >E >E >E >E >E >E >E >E >E >E >E >E >E >E >E >E >E >E >E >E >E= >E= >E= >E= >E= >E= >E= >E= E= E= E= E= E= E= E= E= E= E= E= E= E= E= E= E= E= E= E= E= E= E= E= E= E= E= E= E= E= E= E= E= E= E= = = =F =F =F =F =F =F =F =F =F =F =F =F =F =F =F =F =F =F =F =F =F =F =F =F =F =F =F =F =F =F =F =F =F =F =F =F =F =F =F =F =>F =>F =>F =>F =>F =>F =>F =>F >F >F >F >F >F >F >F >F >F >F >F >F >F >F >F >F >F >F >F >F >F >F >F >F >F >F >F >F >F >F >F >F >F >F >F >F >F >F >F >F >F >F >F >F >F >F >F >F >F >F >F >F >F >F >F >F >F >F >F >F >F >F >F >F >F >F >F >F >F >F >F >F >F >F >F >F >F= >F= >F= >F= >F= >F= >F= >F= F= F= F= F= F= F= F= F= F= F= F= F= F= F= F= F= F= F= F= F= F= F= F= F= F= F= F= F= F= F= F= F= F= F= F= F= F= F= F= F= F= F= F= F= F= F= F= F= F= F= F= F= F= F= = = =C =C =C =C =C =C =C =C =C =C =C =C =C =C =C =C =C =C =C =C =;C =;C =;C =;C =;C =;C =;C =;C ;C ;C ;C ;C ;C ;C ;C ;C ;C ;C ;C ;C ;C ;C ;C ;C ;C ;C ;C ;C ;C ;C ;C ;C ;C ;C ;C ;C ;C ;C ;C ;C ;C ;C ;C ;C ;C ;C ;C ;C ;C ;C ;C ;C ;C ;C ;C ;C ;C ;C ;C ;C ;C ;C ;C ;C ;C ;C ;C ;C ;C ;C ;C ;C ;C ;C ;C ;C ;C ;C ;C ;C ;C ;C ;C ;C ;C= ;C= ;C= ;C= ;C= ;C= ;C= ;C= C= C= C= C= C= C= C= C= C= C= C= C= C= C= C= C= C= C= C= C= C= C= C= C= C= C= C= C= C= C= C= C= C= C= C= C= C= C= C= C= C= C= C= C= C= C= C= C= C= C= C= C= C= C= C= C= C= C= C= C= C= C= C= C= C= C= C= C= C= = = = = = = = =C> =C> =C> =C> =C> =C> =C> =C> C> C> C> C> C> C> C> C> C> C> C> C> C> C> C> C> C> C> C> C> C> C> C> C> C> C> C> C> C> C> C> C> C> C> C> C> C> C> C> C> C> C> C> C> C> C> C> C> C> C> C> C> C> C> C> C> C> C> C> C> C> C> C> C> C> C> C> C> C> C> C> C> C> C> C> C> C> C> C> C> C> C> C> C> C> C> C> C> C> C> C> C> C> C> C> C> C> C> C> C> C> C> C> C> C> C> C> C> C> C> C> C> C> C> C> C> C> C> C> C> C> C> C> C> C> C> C> C> C> C> C> C> C> C> C> C> C> C> C> C> C> C> C> C> C> C> C> C> C> C> C> C> C> C> C> C> C> C> C> C> C> C> C> C> C> C> C> C> C> C> C> C> C> C> C> C> C> C> C> C> C:> C:> C:> C:> C:> C:> C:> C:> C:> C:> C:> C:> C:> C:> C:> C:> C:> C:> C:> C:> C:> C:> C:> C:> C:> C:> C:> C:> C:> C:> C:> C:> C:> C:> C:> C:> C:> C:> C:> C:> C:> C:> C:> C:> C:> C:> CB:> CB:> CB:> CB:> CB:> CB:> CB:> CB:> CB:> CB:> CB:> CB:> CB:> CB:> CB:> CB:> CB:> B:> B:> B:> B:> B:> B:> B:> B:> B:> B:> B:> B:> B:> B:> B:> B:> B:> B:> B:> B:> B:> B:> B:> B:> B:> B:> B:> B:> B:> B:> B:> B:> B:> B:> B:> B:> B:> B:> B:> B:> B:> B:> B:> B:> B:> B:> B:> B:> B:> B:> B:> B:> B:> B:> B:> B:> B:> B:> B:C> B:C> B:C> B:C> B:C> B:C> B:C> B:C> B:C> B:C> B:C> B:C> B:C> B:C> B:C> B:C> B:C> :C> :C> :C> :C> :C> :C> :C> :C> :C> :C> :C> :C> :C> :C> :C> :C> :C> :C> :C> :C> :C> :C> :C> :C> :C> :C> :C> :C> :C> :C> :C> :C> :C> :C> :C> :C> :C> :C> :C> :C> :C> :C> :C> :C> :C> :C> :C> :C> C> C> C9> C9> C9> C9> C9> C9> C9> C9> C9> C9> C9> C9> C9> C9> C9> C9> C9> C9> C9> C9> C9> C9> C9> C9> C9> 9> B9> B9> B9> B9> B9> B9> B9> B9> B9> B9> B9> B9> B9> B9> B9> B9> B9> B9> B9> B9> B9> B9> B9> B9> B9> B9> B9> B9> B9> B9> B9> B9> B9> B9> B9> B9> B9> B9> B9> B9> B9> B9> B9> B9> B9> B9> B9> B9> B9> B9> B9> B9> B9> B9> B9> B9> B9> B9> B9> B9> B9> B9> B9> B9> B9> B9> B9> B9> B9> B9> B9> B9> B9> B9> B9C> B9C> B9C> B9C> B9C> B9C> B9C> B9C> B9C> B9C> B9C> B9C> B9C> B9C> B9C> B9C> B9C> B9C> 9C> 9C> 9C> 9C> 9C> 9C> 9C> 9C> 9C> 9C> 9C> 9C> 9C> 9C> 9C> 9C> 9C> 9C> 9C> 9C> 9C> 9C> 9C> 9C> 9C> 9C> 9C> 9C> 9C> 9C> 9C> 9C> 9C> 9C> 9C> 9C> 9C> 9C> 9C> 9C> 9C> 9C> 9C> 9C> 9C> 9C> 9C> 9C> 9C> 9C> 9C> 9C> 9C> 9C> 9C> 9C> 9CB> 9CB> 9CB> 9CB> 9CB> 9CB> 9CB> 9CB> 9CB> 9CB> 9CB> 9CB> CB> CB> CB7> CB7> CB7> CB7> B7> B7> B7> B7> B7> B7> B7> B7> B7> B7> B7> B7> B7> B7> B7> B7> B7> B7> B7> B7> B7> B7> B7> B7> B7> B7> B7> B7> B7> B7> B7> B7> B7> B7> B7> B7> B7> B7> B7> B7> B7> B7> B7> B7> B7> B7> B7> B7> B7> B7> B7> B7> B7> B7> B7> B7> BC7> BC7> BC7> BC7> BC7> BC7> BC7> BC7> BC7> BC7> BC7> BC7> BC7> BC7> BC7> BC7> BC7> BC7> C7> C7> C7> C7> C7> C7> C7> C7> C7> C7> C7> C7> C7> C7> C7> C7> C7> C7> C7> C7> C7> C7> C7> C7> C7> C7> C7> C7> C7> C7> C7> C7> C7> C7> C7> C7> C7> C7> C7> C7> C7> C7> C7> C7> C7> C7> C7> C7> C7> C7> C7> C7> C7> C7> C7> C7> C7B> C7B> C7B> C7B> C7B> C7B> C7B> C7B> C7B> C7B> C7B> C7B> C7B> C7B> C7B> C7B> C7B> C7B> 7B> 7B> 7B> 7B> 7B> 7B> 7B> 7B> 7B> 7B> 7B> 7B> 7B> 7B> 7B> 7B> 7B> 7B> 7B> 7B> 7B> 7B> 7B> 7B> 7B> 7B> 7B> 7B> 7B> 7B> 7B> 7B> 7B> 7B> B> B> B9> B9> B9> B9> B9> B9> B9> B9> B9> B9> B9> B9> B9> B9> B9> B9> B9> B9> B9> B9> BC9> BC9> BC9> BC9> BC9> BC9> BC9> BC9> BC9> BC9> BC9> BC9> BC9> BC9> BC9> BC9> BC9> BC9> C9> C9> C9> C9> C9> C9> C9> C9> C9> C9> C9> C9> C9> C9> C9> C9> C9> C9> C9> C9> C9> C9> C9> C9> C9> C9> C9> C9> C9> C9> C9> C9> C9> C9> C9> C9> C9> C9> C9> C9> C9> C9> C9> C9> C9> C9> C9> C9> C9> C9> C9> C9> C9> C9> C9> C9> CB9> CB9> CB9> CB9> CB9> CB9> CB9> CB9> CB9> CB9> CB9> CB9> CB9> CB9> CB9> CB9> CB9> CB9> B9> B9> B9> B9> B9> B9> B9> B9> B9> B9> B9> B9> B9> B9> B9> B9> B9> B9> B9> B9> B9> B9> B9> B9> B9> B9> B9> B9> B9> B9> B9> B9> B9> B9> B9> B9> B9> B9> B9> B9> B9> B9> B9> B9> B9> B9> B9> B9> B9> B9> B9> B9> B9> B9> B9> B9> B9C> B9C> B9C> B9C> B9C> B9C> B9C> B9C> B9C> B9C> B9C> B9C> B9C> B9C> B9C> B9C> B9C> B9C> C> C> C2> C2> C2> C2> C2> C2> C2> C2> C2> C2> C2> C2> C2> C2> C2> C2> C2> C2> C2> C2> C2> C2> C2> C2> C2> C2> C2> C2> C2> C2> C2> C2> C2> C2> C2> C2> C2> C2> C2> C2> C2> C2> C2> C2> C2> C2> C2> C2> C2> C2> C2> C2> C2> C2> CB2> CB2> CB2> CB2> CB2> CB2> CB2> CB2> CB2> CB2> CB2> CB2> CB2> CB2> CB2> CB2> CB2> CB2> B2> B2> B2> B2> B2> B2> B2> B2> B2> B2> B2> B2> B2> B2> B2> B2> B2> B2> B2> B2> B2> B2> B2> B2> B2> B2> B2> B2> B2> B2> B2> B2> B2> B2> B2> B2> B2> B2> B2> B2> B2> B2> B2> B2> B2> B2> B2> B2> B2> B2> B2> B2> B2> B2> B2> B2> B2> B2> B2> B2> B2> B2> B2> B2> B2> B2> B2> B2> B2> B2> B2> B2> B2> B2> B2> B2> B2> B2> B2> B2> B2> B2> B2> B2> B2> B2> B2> B2> B2> B2> B2> B2> B2> B2> B2> B2> B2> B2> B2> B2> B2> B2> B2> B2> B2> B2> B2> B2> B2> B2> B2> B2> 2> 2> > > C3> C3> C3> C3> C3> C3> C3> C3> C3> C3> C3> C3> C3> C3> C3> C3> C3> C3> C3> C3> C3> C3> C3> C3> C3> C3> C3> C3> C3> C3> C3> C3> C3> C3> C3> C3> C3> C3> C3> C3> C3> C3> C3> C3> C3> C3> C3> C3> C3> C3> C3> C3> C3> C3> C3> C3> C3> C3> C3> C3> C3> C3> C3> C3> C3> C3> C3> C3> C3> C3> C3> C3> C3> C3> C3> C3> C3> C3> C3> C3> C3> C3> C3> C3> C3> C3> C3> C3> C3> C3> C3> C3> C3> C3> C3> C3> C3> C3> C3> C3> C3> C3> C3> C3> C3> C3> C3> C3> C3> C3> C3> C3> C3> C3> C3> C3> C3> C3> C3> C3> C3> C3> C3> C3> C3> C3> C3> C3> C3> C3> C3> C3> C3> C3> C3> C3> C3> C3> C3> C3> C3> C3> C3> C3> C3> C3> C3> C3> C3> C3> C3> C3> C3> C3> C3> C3> C3> C3> C3> C3> C3> C3> C3> C3> C3> C3> C3> C3> C3> C3> C3> C3> C3> C3> C3> C3> C3> C3> C3> C3> C3> C3> C3> C3> C3> C3> > > E0> E0> E0> E0> E0> E0> E0> E0> E0> E0> E0> E0> E0> E0> E0> E0> E0> E0> E0> E0> E0> E0> E0> E0> E0> E0> E0> E0> E0> E0> E0> E0> E0> E0> E0> E0> E0> E0> E0> E0> E0> E0> E0> E0> E0> E0> E0> E0> E0> E0> E0> E0> E0> E0> E0> E0> E0> E0> E0> E0> E0> E0> E0> E0> E0> E0> E0> E0> E0> E0> E0> E0> E0> E0> E0> E0> E0> E0> E0> E0> E0> E0> E0> E0> E0> E0> E0> E0> E0> E0> E0> E0> E0> E0> E0> E0> E0> E0> E0> E0> E0> E0> E0> E0> E0> E0> E0> E0> E0> E0> E0> E0> E0> E0> E0> E0> E0> E0> E0> E0> E0> E0> E0> E0> E0> E0> E0> E0> E0> E0> E0> E0> E0> E0> E0> E0> E0> E0> E0> E0> E0> E0> E0> E0> E0> E0> E0> E0> E0> E0> E0> E0> E0> E0> E0> E0> E0> E0> E0> E0> E0> E0> E0> E0> E0> E0> E0> E0> E0> E0> E0> E0> E0> E0> E0> E0> E0> E0> E0> E0> E0> E0> E0> E0> E0> E0> > >C/ >C/ >C/ >C/ >C/ >C/ >C/ >C/ >C/ >C/ >C/ >C/ >C/ >C/ >C/ >C/ >C/ >C/ >C/ >C/ >C/ >C/ >C/ >C/ >C/ >C/ >C/ >C/ >C/ >C/ >C/ >C/ >C/ >C/ >C/ >C/ >C/ >C/ >C/ >C/ >C/ >C/ >C/ >C/ >C/ >C/ >C/ >C/ >C/ >C/ >C/ >C/ >C/ >C/ >C/ >C/ >C/ >C/ >C/ >C/ >C/ >C/ >C/ >C/ >C/ >C/ >C/ >C/ >C/ >C/ >C/ >C/ >C/ >C/ >C/ >C/ >C/ >C/ >C/ >C/ >C/ >C/ >C/ >C/ >C/ >C/ >C/ >C/ >C/ >C/ >C/ >C/ >C/ >C/ >C/ >C/ >C/ >C/ >C/ >C/ >C/ >C/ >C/ >C/ >C/ >C/ >C/ >C/ >C/ >C/ >C/ >C/ >C/ >C/ >C/ >C/ >C/ >C/ >C/ >C/ >C/ >C/ >C/ >C/ >C/ >C/ >C/ >C/ >C/ >C/ >C/ >C/ >C/ >C/ >C/ >C/ >C/ >C/ >C/ >C/ >C/ >C/ >C/ >C/ >C/ >C/ >C/ >C/ >C/ >C/ >C/ >C/ >C/ >C/ >C/ >C/ >C/ >C/ >C/ >C/ >C/ >C/ >C/ >C/ >C/ >C/ >C/ >C/ >C/ >C/ >C/ >C/ >C/ >C/ >C/ >C/ >C/ >C/ >C/ >C/ >C/ C/ C/ C/ C/ C/ C/    A0 A0 A0 A0 A0 A0 A0 A0 A0 A0 A0 A0 A0 A0 A0 A0 A0 A0 A0 A0 A0 A0 A0 A0 A0 A0 A0 A0 A0 A0 A0 A0 A0 A0 A0 A0 A0 A0 A0 A0 A0 A0 A0 A0 A0 A0 A0 A0 A0 A0 A0 A0 A0 A0 A0 A0 A0 A0 A0 A0 A0 A0 A0 A0 A0 A0 A0 A0 A0 A0 A0 A0 A0 A0 A0 A0 A0 A0 A0 A0 A0 A0 A0 A0 A0 A0 A0 A0 A0 A0 A0 A0 A0 A0 A0 A0 A0 A0 A0 A0 A0 A0 A0 A0 A0 A0 A0 A0 A0 A0 A0 A0 A0 A0 A0 A0 A0 A0 A0 A0 A0 A0 A0 A0 A0 A0 A0 A0 A0 A0 A0 A0 A0 A0 A0 A0 A0 A0 A0 A0 A0 A0 A0 A0 A0 A0 A0 A0 A0 A0 A0 A0 A0 A0 A0 A0 A0 A0 A0 A0 A0 A0 A0 A0 A0 A0 A0 A0 A0 A0 A0 A0 A0 A0 A0 A0 A0 A0 A0 A0 A0 A0 A0 A0 A0 A0   ?2 ?2 ?2 ?2 ?2 ?2 ?2 ?2 ?2 ?2 ?2 ?2 ?2 ?2 ?2 ?2 ?2 ?2 ?2 ?2 ?2 ?2 ?2 ?2 ?2 ?2 ?2 ?2 ?2 ?2 ?2 ?2 ?2 ?2 ?2 ?2 ?2 ?2 ?2 ?2 ?2 ?2 ?2 ?2 ?2 ?2 ?2 ?2 ?2 ?2 ?2 ?2 ?2 ?2 ?2 ?2 ?2 ?2 ?2 ?2 ?2 ?2 ?2 ?2 ?2 ?2 ?2 ?2 ?2 ?2 ?2 ?2 ?2 ?2 ?2 ?2 ?2 ?2 ?2 ?2 ?2 ?2 ?2 ?2 ?2 ?2 ?2 ?2 ?2 ?2 ?2 ?2 ?2 ?2 ?2 ?2 ?2 ?2 ?2 ?2 ?2 ?2 ?2 ?2 ?2 ?2 ?2 ?2 ?2 ?2 ?2 ?2 ?2 ?2 ?2 ?2 ?2 ?2 ?2 ?2 ?2 ?2 ?2 ?2 ?2 ?2 ?2 ?2 ?2 ?2 ?2 ?2 ?2 ?2 ?2 ?2 ?2 ?2 ?2 ?2 ?2 ?2 ?2 ?2 ?2 ?2 ?2 ?2 ?2 ?2 ?2 ?2 ?2 ?2 ?2 ?2 ?2 ?2 ?2 ?2 ?2 ?2 ?2 ?2 ?2 ?2 ?2 ?2 ?2 ?2 ?2 ?2 ?2 ?2 ?2 ?2 ?2 ?2 ?2 ?2 ?2 ?2 ?2 ?2 ?2 ?2   >+ >+ >+ >+ >+ >+ >+ >+ >+ >+ >+ >+ >+ >+ >+ >+ >+ >+ >+ >+ >+ >+ >+ >+ >+ >+ >+ >+ >+ >+ >+ >+ >+ >+ >+ >+ >+ >+ >+ >+ >+ >+ >+ >+ >+ >+ >+ >+ >+ >+ >+ >+ >+ >+ >+ >+ >+ >+ >+ >+ >+ >+ >+ >+ >+ >+ >+ >+ >+ >+ >+ >+ >+ >+ >+ >+ >+ >+ >+ >+ >+ >+ >+ >+ >+ >+ >+ >+ >+ >+ >+ >+ >+ >+ >+ >+ >+ >+ >+ >+ >+ >+ >+ >+ >+ >+ >+ >+ >+ >+ >+ >+ >+ >+ >+ >+ >+ >+ >+ >+ >+ >+ >+ >+ >+ >+ >+ >+ >+ >+ >+ >+ >+ >+ >+ >+ >+ >+ >+ >+ >+ >+ >+ >+ >+ >+ >+ >+ >+ >+ >+ >+ >+ >+ >+ >+ >+ >+ >+ >+ >+ >+ >+ >+ >+ >+ >+ >+ >+ >+ >+ >+ >+ >+ >+ >+ >+ >+ >+ >+ >+ >+ >+ >+ >+ >+   0? 0? 0? 0? 0? 0? 0? 0? 0? 0? 0? 0? 0? 0? 0? 0? 0? 0? 0? 0? 0? 0? 0? 0? 0? 0? 0? 0? 0? 0? 0? 0? 0? 0? 0? 0? 0? 0? 0? 0? 0? 0? 0? 0? 0? 0? 0? 0? 0? 0? 0? 0? 0? 0? 0? 0? 0? 0? 0? 0? 0? 0? 0? 0? 0? 0? 0? 0? 0? 0? 0? 0? 0? 0? 0? 0? 0? 0? 0? 0? 0? 0? 0? 0? 0? 0? 0? 0? 0? 0? 0? 0? 0? 0? 0? 0? 0? 0? 0? 0? 0? 0? 0? 0? 0? 0? 0? 0? 0? 0? 0? 0? 0? 0? 0? 0? 0? 0? 0? 0? 0? 0? 0? 0? 0? 0? 0? 0? 0? 0? 0? 0? 0? 0? 0? 0? 0? 0? 0? 0? 0? 0? 0? 0? 0? 0? 0? 0? 0? 0? 0? 0? 0? 0? 0? 0? 0? 0? 0? 0? 0? 0? 0? 0? 0? 0? 0? 0? 0? 0? 0? 0? 0? 0? 0? 0? 0? 0? 0? 0? 0? 0? 0? 0? 0? 0? ? ? :2? :2? :2? :2? :2? :2? :2? :2? :2? :2? :2? :2? :2? :2? :2? :2? :2? :2? :2? :2? :2? :2? :2? :2? :2? :2? :2? :2? :2? :2? :2? :2? :2? :2? :2? :2? :2? :2? :2? :2? :2? :2? :2? :2? :2? :2? :2? :2? :2? :2? :2? :2? :2? :2? :2? :2? :2? :2? :2? :2? :2? :2? :2? :2? :2? :2? :2? :2? :2? :2? :2? :2? :2? :2? :2? :2? :2? :2? :2? :2? :2? :2? :2? :2? :2? :2? :2? :2? :2? :2? :2? :2? :2? :2? :2? :2? :2? :2? :2? :2? :2? :2? :2? :2? :2? :2? :2? :2? :2? :2? :2? :2? :2? :2? :2? :2? :2? :2? :2? :2? :2? :2? :2? :2? :2? :2? :2? :2? :2? :2? :2? :2? :2? :2? :2? :2? :2? :2? :2? :2? :2? :2? :2? :2? :2? :2? :2? :2? :2? :2? :2? :2? :2? :2? :2? :2? :2? :2? :2? :2? :2? :2? :2? :2? :2? :2? :2? :2? :2? :2? :2? :2? :2? :2? :2? :2? :2? :2? :2? :2? :2? :2? :2? :2? :2? :2? ? ? 90? 90? 90? 90? 90? 90? 90? 90? 90? 90? 90? 90? 90? 90? 90? 90? 90? 90? 90? 90? 90? 90? 90? 90? 90? 90? 90? 90? 90? 90? 90? 90? 90? 90? 90? 90? 90? 90? 90? 90? 90? 90? 90? 90? 90? 90? 90? 90? 90? 90? 90? 90? 90? 90? 90? 90? 90? 90? 90? 90? 90? 90? 90? 90? 90? 90? 90? 90? 90? 90? 90? 90? 90? 90? 90? 90? 90? 90? 90? 90? 90? 90? 90? 90? 90? 90? 90? 90? 90? 90? 90? 90? 90? 90? 90? 90? 90? 90? 90? 90? 90? 90? 90? 90? 90? 90? 90? 90? 90? 90? 90? 90? 90? 90? 90? 90? 90? 90? 90? 90? 90? 90? 90? 90? 90? 90? 90? 90? 90? 90? 90? 90? 90? 90? 90? 90? 90? 90? 90? 90? 90? 90? 90? 90? 90? 90? 90? 90? 90? 90? 90? 90? 90? 90? 90? 90? 90? 90? 90? 90? 90? 90? 90? 90? 90? 90? 90? 90? 90? 90? 90? 90? 90? 90? 90? 90? 90? 90? 90? 90? 90? 90? 90? 90? 90? 90? ? ? 7.? 7.? 7.? 7.? 7.? 7.? 7.? 7.? 7.? 7.? 7.? 7.? 7.? 7.? 7.? 7.? 7.? 7.? 7.? 7.? 7.? 7.? 7.? 7.? 7.? 7.? 7.? 7.? 7.? 7.? 7.? 7.? 7.? 7.? 7.? 7.? 7.? 7.? 7.? 7.? 7.? 7.? 7.? 7.? 7.? 7.? 7.? 7.? 7.? 7.? 7.? 7.? 7.? 7.? 7.? 7.? 7.? 7.? 7.? 7.? 7.? 7.? 7.? 7.? 7.? 7.? 7.? 7.? 7.? 7.? 7.? 7.? 7.? 7.? 7.? 7.? 7.? 7.? 7.? 7.? 7.? 7.? 7.? 7.? 7.? 7.? 7.? 7.? 7.? 7.? 7.? 7.? 7.? 7.? 7.? 7.? 7.? 7.? 7.? 7.? 7.? 7.? 7.? 7.? 7.? 7.? 7.? 7.? 7.? 7.? 7.? 7.? 7.? 7.? 7.? 7.? 7.? 7.? 7.? 7.? 7.? 7.? 7.? 7.? 7.? 7.? 7.? 7.? 7.? 7.? 7.? 7.? 7.? 7.? 7.? 7.? 7.? 7.? 7.? 7.? 7.? 7.? 7.? 7.? 7.? 7.? 7.? 7.? 7.? 7.? 7.? 7.? 7.? 7.? 7.? 7.? 7.? 7.? 7.? 7.? 7.? 7.? 7.? 7.? 7.? 7.? 7.? 7.? 7.? 7.? 7.? 7.? 7.? 7.? 7.? 7.? 7.? 7.? 7.? 7.? 7.? 7.? 7.? 7.? 7.? 7.? ?   <- <- <- <- <- <- <- <- <- <- <- <- <- <- <- <- <- <- <- <- <- <- <- <- <- <- <- <- <- <- <- <- <- <- <- <- <- <- <- <- <- <- <- <- <- <- <- <- <- <- <- <- <- <- <- <- <- <- <- <- <- <- <- <- <- <- <- <- <- <- <- <- <- <- <- <- <- <- <- <- <- <- <- <- <- <- <- <- <- <- <- <- <- <- <- <- <- <- <- <- <- <- <- <- <- <- <- <- <- <- <- <- <- <- <- <- <- <- <- <- <- <- <- <- <- <- <- <- <- <- <- <- <- <- <- <- <- <- <- <- <- <- <- <- <- <- <- <- <- <- <- <- <- <- <- <- <- <- <- <- <- <- <- <- <- <- <- <- <- <- <- <- <- <- <- <- <- <- <- <- <- <- <- <- <- <- - - ?- ?- ?- ?- ?- ?- ?- ?- ?- ?- ?- ?- ?- ?- ?- ?- ?- ?- ?- ?- ?- ?- ?- ?- ?- ?- ?- ?- ?- ?- ?- ?- ?- ?- ?- ?- ?- ?- ?- ?- ?- ?- ?- ?- ?- ?- ?- ?- ?- ?- ?- ?- ?- ?- ?- ?- ?- ?- ?- ?- ?- ?- ?- ?- ?- ?- ?- ?- ?- ?- ?- ?- ?- ?- ?- ?- ?- ?- ?- ?- ?- ?- ?- ?- ?- ?- ?- ?- ?- ?- ?- ?- ?- ?- ?- ?- ?- ?- ?- ?- ?- ?- ?- ?- ?- ?- ?- ?- ?- ?- ?- ?- ?- ?- ?- ?- ?- ?- ?- ?- ?- ?- ?- ?- ?- ?- ?- ?- ?- ?- ?- ?- ?- ?- ?- ?- ?- ?- ?- ?- ?- ?- ?- ?- ?- ?- ?- ?- ?- ?- ?- ?- ?- ?- ?- ?- ?- ?- ?- ?- ?- ?- ?- ?- ?- ?- ?- ?- ?- ?- ?- ?- ?- ?- ?- ?- ?- ?- ?- ?- ?- ?- ?- ?- ?- ?-   C. C. C. C. C. C. C. C. C. C. C. C. C. C. C. C. C. C. C. C. C. C. C. C. C. C. C. C. C. C. C. C. C. C. C. C. C. C. C. C. C. C. C. C. C. C. C. C. C. C. C. C. C. C. C. C. C. C. C. C. C. C. C. C. C. C. C. C. C. C. C. C. C. C. C. C. C. C. C. C. C. C. C. C. C. C. C. C. C. C. C. C. C. C. C. C. C. C. C. C. C. C. C. C. C. C. C. C. C. C. C. C. C. C. C. C. C. C. C. C. C. C. C. C. C. C. C. C. C. C. C. C. C. C. C. C. C. C. C. C. C. C. C. C. C. C. C. C. C. C. C. C. C. C. C. C. C. C. C. C. C. C. C. C. C. C. C. C. C. C. C. C. C. C. C. C. C. C. C. C. C. C. C. C. C. C. . . F. F. F. F. F. F. F. F. F. F. F. F. F. F. F. F. F. F. F. F. F. F. F. F. F. F. F. F. F. F. F. F. F. F. F. F. F. F. F. F. F. F. F. F. F. F. F. F. F. F. F. F. F. F. F. F. F. F. F. F. F. F. F. F. F. F. F. F. F. F. F. F. F. F. F. F. F. F. F. F. F. F. F. F. F. F. F. F. F. F. F. F. F. F. F. F. F. F. F. F. F. F. F. F. F. F. F. F. F. F. F. F. F. F. F. F. F. F. F. F. F. F. F. F. F. F. F. F. F. F. F. F. F. F. F. F. F. F. F. F. F. F. F. F. F. F. F. F. F. F. F. F. F. F. F. F. F. F. F. F. F. F. F. F. F. F. F. F. F. F. F. F. F. F. F. F. F. F. F. F. F. F. F. F. F. F.   E0 E0 E0 E0 E0 E0 E0 E0 E0 E0 E0 E0 E0 E0 E0 E0 E0 E0 E0 E0 E0 E0 E0 E0 E0 E0 E0 E0 E0 E0 E0 E0 E0 E0 E0 E0 E0 E0 E0 E0 E0 E0 E0 E0 E0 E0 E0 E0 E0 E0 E0 E0 E0 E0 E0 E0 E0 E0 E0 E0 E0 E0 E0 E0 E0 E0 E0 E0 E0 E0 E0 E0 E0 E0 E0 E0 E0 E0 E0 E0 E0 E0 E0 E0 E0 E0 E0 E0 E0 E0 E0 E0 E0 E0 E0 E0 E0 E0 E0 E0 E0 E0 E0 E0 E0 E0 E0 E0 E0 E0 E0 E0 E0 E0 E0 E0 E0 E0 E0 E0 E0 E0 E0 E0 E0 E0 E0 E0 E0 E0 E0 E0 E0 E0 E0 E0 E0 E0 E0 E0 E0 E0 E0 E0 E0 E0 E0 E0 E0 E0 E0 E0 E0 E0 E0 E0 E0 E0 E0 E0 E0 E0 E0 E0 E0 E0 E0 E0 E0 E0 E0 E0 E0 E0 E0 E0 E0 E0 E0 E0 E0 E0 E0 E0 E0 E0   B3 B3 B3 B3 B3 B3 B3 B3 B3 B3 B3 B3 B3 B3 B3 B3 B3 B3 B3 B3 B3 B3 B3 B3 B3 B3 B3 B3 B3 B3 B3 B3 B3 B3 B3 B3 B3 B3 B3 B3 B3 B3 B3 B3 B3 B3 B3 B3 B3 B3 B3 B3 B3 B3 B3 B3 B3 B3 B3 B3 B3 B3 B3 B3 B3 B3 B3 B3 B3 B3 B3 B3 B3 B3 B3 B3 B3 B3 B3 B3 B3 B3 B3 B3 B3 B3 B3 B3 B3 B3 B3 B3 B3 B3 B3 B3 B3 B3 B3 B3 B3 B3 B3 B3 B3 B3 B3 B3 B3 B3 B3 B3 B3 B3 B3 B3 B3 B3 B3 B3 B3 B3 B3 B3 B3 B3 B3 B3 B3 B3 B3 B3 B3 B3 B3 B3 B3 B3 B3 B3 B3 B3 B3 B3 B3 B3 B3 B3 B3 B3 B3 B3 B3 B3 B3 B3 B3 B3 B3 B3 B3 B3 B3 B3 B3 B3 B3 B3 B3 B3 B3 B3 B3 B3 B3 B3 B3 B3 B3 B3 B3 B3 B3 B3 B3 B3   C2 C2 C2 C2 C2 C2 C2 C2 C2 C2 C2 C2 C2 C2 C2 C2 C2 C2 C2 C2 C2 C2 C2 C2 C2 C2 C2 C2 C2 C2 C2 C2 C2 C2 C2 C2 C2 C2 C2 C2 C2 C2 C2 C2 C2 C2 C2 C2 C2 C2 C2 C2 C2 C2 C2 C2 C2 C2 C2 C2 C2 C2 C2 C2 C2 C2 C2 C2 C2 C2 C2 C2 C2 C2 C2 C2 C2 C2 C2 C2 C2 C2 C2 C2 C2 C2 C2 C2 C2 C2 C2 C2 C2 C2 C2 C2 C2 C2 C2 C2 C2 C2 C2 C2 C2 C2 C2 C2 C2 C2 C2 C2 C2 C2 C2 C2 C2 C2 C2 C2 C2 C2 C2 C2 C2 C2 C2 C2 C2 C2 C2 C2 C2 C2 C2 C2 C2 C2 C2 C2 C2 C2 C2 C2 C2 C2 C2 C2 C2 C2 C2 C2 C2 C2 C2 C2 C2 C2 C2 C2 C2 C2 C2 C2 C2 C2 C2 C2 C2 C2 C2 C2 C2 C2 C2 C2 C2 C2 C2 C2 C2 C2 C2 C2 C2 C2  E0 E0 E0 E0 E0 E0 E0 E0 E0 E0 E0 E0 E0 E0 E0 E0 E0 E0 E0 E0 E0 E0 E0 E0 E0 E0 E0 E0 E0 E0 E0 E0 E0 E0 E0 E0 E0 E0 E0 E0 E0 E0 E0 E0 E0 E0 E0 E0 E0 E0 E0 E0 E0 E0 E0 E0 E0 E0 E0 E0 E0 E0 E0 E0 E0 E0 E0 E0 E0 E0 E0 E0 E0 E0 E0 E0 E0 E0 E0 E0 E0 E0 E0 E0 E0 E0 E0 E0 E0 E0 E0 E0 E0 E0 E0 E0 E0 E0 E0 E0 E0 E0 E0 E0 E0 E0 E0 E0 E0 E0 E0 E0 E0 E0 E0 E0 E0 E0 E0 E0 E0 E0 E0 E0 E0 E0 E0 E0 E0 E0 E0 E0 E0 E0 E0 E0 E0 E0 E0 E0 E0 E0 E0 E0 E0 E0 E0 E0 E0 E0 E0 E0 E0 E0 E0 E0 E0 E0 E0 E0 E0 E0 E0 E0 E0 E0 E0 E0 E0 E0 E0 E0 E0 E0 E0 E0 E0 E0 E0 E0 E0 E0 E0 E0 E0 E0   6> 6> 6> 6> 6> 6> 6> 6> 6> 6> 6> 6> 6> 6> 6> 6> 6> 6> 6> 6> 6> 6> 6> 6> 6> 6> 6> 6> 6> 6> 6> 6> 6> 6> 6> 6> 6> 6> 6> 6> 6> 6> 6> 6> 6> 6> 6> 6> 6> 6> 6> 6> 6> 6> 6> 6> 6> 6> 6> 6> 6> 6> 6> 6> 6> 6> 6> 6> 6> 6> 6> 6> 6> 6> 6> 6> 6> 6> 6> 6> 6> 6> 6> 6> 6> 6> 6> 6> 6> 6> 6> 6> 6> 6> 6> 6> 6> 6> 6> 6> 6> 6> 6> 6> 6> 6> 6> 6> 6> 6> 6> 6> 6> 6> 6> 6> 6> 6> 6> 6> 6> 6> 6> 6> 6> 6> 6> 6> 6> 6> 6> 6> 6> 6> 6> 6> 6> 6> 6> 6> 6> 6> 6> 6> 6> 6> 6> 6> 6> 6> 6> 6> 6> 6> 6> 6> 6> 6> 6> 6> 6> 6> 6> 6> 6> 6> 6> 6> 6> 6> 6> 6> 6> 6> 6> 6> 6> 6> 6> 6> 6> 6> 6> 6> 6> 6> 6> 6> B6> B6> B6> B6> B6> B6> B6> B6> B6> B6> B6> B6> B6> B6> B6> B6> B6> B6> B6> B6> B6> B6> B6> B6> B6> B6> B6> B6> B6> B6> B6> B6> B6> B6> B6> B6> B6> B6> B6> B6> B6> B6> B6> B6> B6> B6> B6> B6> B6> B6> B6> B6> B6> B6> B6> B6> B6> B6> B6> B6> B6> B6> B6> B6> B6> B6> B6> B6> B6> B6> B6> B6> B6> B6> B6> B6> B6> B6> B6> B6> B6> B6> B6> B6> B6> B6> B6> B6> B6> B6> B6> B6> B6> B6> B6> B6> B6> B6> B6> B6> B6> B6> B6> B6> B6> B6> B6> B6> B6> B6> B6> B6> B6> B6> B6> B6> B6> B6> B6> B6> B6> B6> B6> B6> B6> B6> B6> B6> B6> B6> B6> B6> B6> B6> B6> B6> B6> B6> B6> B6> B6> B6> B6> B6> B6> B6> B6> B6> B6> B6> B6> B6> B6> B6> B6> B6> B6> B6> B6> B6> B6> B6> B6> B6> B6> B6> B6> B6> B6> B6> B6> B6> B6> B6> B6> B6> B6> B6> B6> B6> B6> B6> B6> B6> B6> B6> > > E2> E2> E2> E2> E2> E2> E2> E2> E2> E2> E2> E2> E2> E2> E2> E2> E2> E2> E2> E2> E2> E2> E2> E2> E2> E2> E2> E2> E2> E2> E2> E2> E2> E2> E2> E2> E2> E2> E2> E2> E2> E2> E2> E2> E2> E2> E2> E2> E2> E2> E2> E2> E2> E2> E2> E2> E2> E2> E2> E2> E2> E2> E2> E2> E2> E2> E2> E2> E2> E2> E2> E2> E2> E2> E2> E2> E2> E2> E2> E2> E2> E2> E2> E2> E2> E2> E2> E2> E2> E2> E2> E2> E2> E2> E2> E2> E2> E2> E2> E2> E2> E2> E2> E2> E2> E2> E2> E2> E2> E2> E2> E2> E2> E2> E2> E2> E2> E2> E2> E2> E2> E2> E2> E2> E2> E2> E2> E2> E2> E2> E2> E2> E2> E2> E2> E2> E2> E2> E2> E2> E2> E2> E2> E2> E2> E2> E2> E2> E2> E2> E2> E2> E2> E2> E2> E2> E2> E2> E2> E2> E2> E2> E2> E2> E2> E2> E2> E2> E2> E2> E2> E2> E2> E2> E2> E2> E2> E2> E2> E2> E2> E2> E2> E2> E2> E2> 2> 2> H2> H2> H2> H2> H2> H2> H2> H2> H2> H2> H2> H2> H2> H2> H2> H2> H2> H2> H2> H2> H2> H2> H2> H2> H2> H2> H2> H2> H2> H2> H2> H2> H2> H2> H2> H2> H2> H2> H2> H2> H2> H2> H2> H2> H2> H2> H2> H2> H2> H2> H2> H2> H2> H2> H2> H2> H2> H2> H2> H2> H2> H2> H2> H2> H2> H2> H2> H2> H2> H2> H2> H2> H2> H2> H2> H2> H2> H2> H2> H2> H2> H2> H2> H2> H2> H2> H2> H2> H2> H2> H2> H2> H2> H2> H2> H2> H2> H2> H2> H2> H2> H2> H2> H2> H2> H2> H2> H2> H2> H2> H2> H2> H2> H2> H2> H2> H2> H2> H2> H2> H2> H2> H2> H2> H2> H2> H2> H2> H2> H2> H2> H2> H2> H2> H2> H2> H2> H2> H2> H2> H2> H2> H2> H2> H2> H2> H2> H2> H2> H2> H2> H2> H2> H2> H2> H2> H2> H2> H2> H2> H2> H2> H2> H2> H2> H2> H2> H2> H2> H2> H2> H2> H2> H2> H2> H2> H2> H2> H2> H2> H2> H2> H2> H2> H2> H2> >    H7C H7C H7C H7C H7C H7C H7C H7C H7C H7C H7C H7C H7C H7C H7C H7C H7C H7C H7C H7C H7C H7C H7C H7C H7C H7C H7C H7C H7C H7C H7C H7C H7C H7C H7C H7C H7C H7C H7C H7C H7C H7C H7C H7C H7C H7C H7C H7C H7C H7C H7C H7C H7C H7C H7C H7C H7C H7C H7C H7C H7C H7C H7C H7C H7C H7C H7C H7C H7C H7C H7C H7C H7C H7C H7C H7C H7C H7C H7C H7C H7C H7C H7C H7C H7C H7C H7C H7C H7C H7C H7C H7C H7C H7C H7C H7C H7C H7C H7C H7C H7C H7C H7C H7C H7C H7C H7C H7C H7C H7C H7C H7C H7C H7C H7C H7C H7C H7C H7C H7C H7C H7C H7C H7C H7C H7C H7C H7C H7C H7C H7C H7C H7C H7C H7C H7C H7C H7C H7C H7C H7C H7C H7C H7C H7C H7C H7C H7C H7C H7C H7C H7C H7C H7C H7C H7C H7C 7C 7C 7C 7C 7C 7C 7C 7C 7C 7C 7C 7C 7C 7C 7C 7C 7C F7C F7C F7C F7C F7C F7C F7C F7C F7C F7C F7C F7C F7C F7C F7C F7C F7C F7C F7C F7C F7C F7C F7C F7C F7C F7C F7C F7C F7C F7C F7C F7C F7C F7C F7C F7C F7C F7C F7C F7C F7C F7C F7C F7C F7C F7C F7C F7C F7C F7C F7C F7C F7C F7C F7C F7C F7C F7C F7C F7C F7C F7C F7C F7C F7C F7C F7C F7C F7C F7C F7C F7C F7C F7C FH7C FH7C FH7C FH7C FH7C FH7C FH7C FH7C FH7C FH7C FH7C FH7C FH7C FH7C FH7C FH7C FH7C FH7C H7C H7C H7C H7C H7C H7C H7C H7C H7C H7C H7C H7C H7C H7C H7C H7C H7C H7C H7C H7C H7C H7C H7C H7C H7C H7C H7C H7C H7C H7C H7C H7C H7C H7C H7C H7C H7C H7C H7C H7C H7C H7C H7C H7C H7C H7C H7C H7C H7C H7C H7C H7C H7C H7C H7C H7C H7FC H7FC H7FC H7FC H7FC H7FC H7FC H7FC H7FC H7FC H7FC H7FC H7FC H7FC H7FC H7FC H7FC H7FC 7FC 7FC 7FC 7FC 7FC 7FC 7FC 7FC 7FC 7FC 7FC 7FC 7FC 7FC 7FC 7FC 7FC 7FC 7FC 7FC 7FC 7FC 7FC 7FC 7FC 7FC 7FC 7FC 7FC 7FC 7FC 7FC 7FC 7FC FC FC FC0 FC0 FC0 FC0 FC0 FC0 FC0 FC0 FC0 FC0 FC0 FC0 FC0 FC0 FC0 FC0 FC0 FC0 FC0 FC0 FHC0 FHC0 FHC0 FHC0 FHC0 FHC0 FHC0 FHC0 FHC0 FHC0 FHC0 FHC0 FHC0 FHC0 FHC0 FHC0 FHC0 FHC0 HC0 HC0 HC0 HC0 HC0 HC0 HC0 HC0 HC0 HC0 HC0 HC0 HC0 HC0 HC0 HC0 HC0 HC0 HC0 HC0 HC0 HC0 HC0 HC0 HC0 HC0 HC0 HC0 HC0 HC0 HC0 HC0 HC0 HC0 HC0 HC0 HC0 HC0 HC0 HC0 HC0 HC0 HC0 HC0 HC0 HC0 HC0 HC0 HC0 HC0 HC0 HC0 HC0 HC0 HC0 HC0 HFC0 HFC0 HFC0 HFC0 HFC0 HFC0 HFC0 HFC0 HFC0 HFC0 HFC0 HFC0 HFC0 HFC0 HFC0 HFC0 HFC0 HFC0 FC0 FC0 FC0 FC0 FC0 FC0 FC0 FC0 FC0 FC0 FC0 FC0 FC0 FC0 FC0 FC0 FC0 FC0 FC0 FC0 FC0 FC0 FC0 FC0 FC0 FC0 FC0 FC0 FC0 FC0 FC0 FC0 FC0 FC0 FC0 FC0 FC0 FC0 FC0 FC0 FC0 FC0 FC0 FC0 FC0 FC0 FC0 FC0 FC0 FC0 FC0 FC0 FC0 FC0 FC0 FC0 FC0 FC0 FC0 FC0 FC0 FC0 FC0 FC0 FC0 FC0 FC0 FC0 FC0 FC0 FC0 FC0 FC0 FC0 C0 0 0 E0 E0 E0 E0 E0 E0 E0 E0 E0 E0 E0 E0 E0 E0 E0 E0 E0 E0 E0 E0 E0 E0 E0 E0 E0 E0 E0 E0 E0 E0 E0 E0 E0 E0 E0 E0 E0 E0 E0 E0 E0 E0 E0 E0 E0 E0 E0 E0 E0 E0 E0 E0 E0 E0 E0 E0 E0 E0 E0 E0 E0 E0 E0 E0 E0 E0 E0 E0 E0 E0 E0 E0 E0 E0 E0 E0 E0 E0 E0 E0 E0 E0 E0 E0 E0 E0 E0 E0 E0 E0 E0 E0 E0 E0 E0 E0 E0 E0 E0 E0 E0 E0 E0 E0 E0 E0 E0 E0 E0 E0 E0 E0 E0 E0 E0 E0 E0 E0 E0 E0 E0 E0 E0 E0 E0 E0 E0 E0 E0 E0 E0 E0 E0 E0 E0 E0 E0 E0 E0 E0 E0 E0 E0 E0 E0 E0 E0 E0 E0 E0 E0 E0 E0 E0 E0 E0 E0 E0 E0 E0 E0 E0 E0 E0 E0 E0 E0 E0 E0 E0 E0 E0 E0 E0 E0 E0 E0 E0 E0 E0 E0 E0 E0 E0 E0 E0 E0 0   FB2 FB2 FB2 FB2 FB2 FB2 FB2 FB2 FB2 FB2 FB2 FB2 FB2 FB2 FB2 FB2 FB2 FB2 FB2 FB2 FB2 FB2 FB2 FB2 FB2 FB2 FB2 FB2 FB2 FB2 FB2 FB2 FB2 FB2 FB2 FB2 FB2 FB2 FB2 FB2 FB2 FB2 FB2 FB2 FB2 FB2 FB2 FB2 FB2 FB2 FB2 FB2 FB2 FB2 FB2 FB2 FB2 FB2 FB2 FB2 FB2 FB2 FB2 FB2 FB2 FB2 FB2 FB2 FB2 FB2 FB2 FB2 FB2 FB2 FB2 FB2 FB2 FB2 FB2 FB2 FB2 FB2 FB2 FB2 FB2 FB2 FB2 FB2 FB2 FB2 FB2 FB2 FB2 FB2 FB2 B2 B2 EB2 EB2 EB2 EB2 EB2 EB2 EB2 EB2 EB2 EB2 EB2 EB2 EB2 EB2 EB2 EB2 EB2 EB2 EB2 EB2 EB2 EB2 EB2 EB2 EB2 EB2 EB2 EB2 EB2 EB2 EB2 EB2 EB2 EB2 EB2 EB2 EB2 EB2 EB2 EB2 EB2 EB2 EB2 EB2 EB2 EB2 EB2 EB2 EB2 EB2 EB2 EB2 EB2 EB2 EB2 EB2 EB2 EB2 EB2 EB2 EB2 EB2 EB2 EB2 EB2 EB2 EB2 EB2 EB2 EB2 EB2 EB2 EB2 EB2 EB2 EB2 EB2 EB2 EB2 EB2 EB2 EB2 EB2 EB2 EB2 EB2 EB2 EB2 EB2 EB2 EB2 EB2 EB2 EB2 EB2 B2 B2 FB2 FB2 FB2 FB2 FB2 FB2 FB2 FB2 FB2 FB2 FB2 FB2 FB2 FB2 FB2 FB2 FB2 FB2 FB2 FB2 FB2 FB2 FB2 FB2 FB2 FB2 FB2 FB2 FB2 FB2 FB2 FB2 FB2 FB2 FB2 FB2 FB2 FB2 FB2 FB2 FB2 FB2 FB2 FB2 FB2 FB2 FB2 FB2 FB2 FB2 FB2 FB2 FB2 FB2 FB2 FB2 FB2 FB2 FB2 FB2 FB2 FB2 FB2 FB2 FB2 FB2 FB2 FB2 FB2 FB2 FB2 FB2 FB2 FB2 FB2 FB2 FB2 FB2 FB2 FB2 FB2 FB2 FB2 FB2 FB2 FB2 FB2 FB2 FB2 FB2 FB2 FB2 FB2 FB2 FB2 B2 B2 EB2 EB2 EB2 EB2 EB2 EB2 EB2 EB2 EB2 EB2 EB2 EB2 EB2 EB2 EB2 EB2 EB2 EB2 EB2 EB2 EB2 EB2 EB2 EB2 EB2 EB2 EB2 EB2 EB2 EB2 EB2 EB2 EB2 EB2 EB2 EB2 EB2 EB2 EB2 EB2 EB2 EB2 EB2 EB2 EB2 EB2 EB2 EB2 EB2 EB2 EB2 EB2 EB2 EB2 EB2 EB2 EB2 EB2 EB2 EB2 EB2 EB2 EB2 EB2 EB2 EB2 EB2 EB2 EB2 EB2 EB2 EB2 EB2 EB2 EB2 EB2 EB2 EB2 EB2 EB2 EB2 EB2 EB2 EB2 EB2 EB2 EB2 EB2 EB2 EB2 EB2 EB2 EB2 EB2 EB2 B2 B2 FB&2 FB&2 FB&2 FB&2 FB&2 FB&2 FB&2 FB&2 FB&2 FB&2 FB&2 FB&2 FB&2 FB&2 FB&2 FB&2 FB&2 FB&2 FB&2 FB&2 FB&2 FB&2 FB&2 FB&2 FB&2 FB&2 FB&2 FB&2 FB&2 FB&2 FB&2 FB&2 FB&2 FB&2 FB&2 FB&2 FB&2 FB&2 FB&2 FB&2 FB&2 FB&2 FB&2 FB&2 FB&2 FB&2 FB&2 FB&2 FB&2 FB&2 FB&2 FB&2 FB&2 FB&2 FB&2 FB&2 FB&2 FB&2 FB&2 FB&2 FB&2 FB&2 FB&2 FB&2 FB&2 FB&2 FB&2 FB&2 FB&2 FB&2 FB&2 FB&2 FB&2 FB&2 FB&2 FB&2 FB&2 FB&2 FB&2 FB&2 FB&2 FB&2 FB&2 FB&2 FB&2 FB&2 FB&2 FB&2 FB&2 FB&2 FB&2 FB&2 FB&2 FB&2 FB&2 B&2 B&2 B&2 EB&2 EB&2 EB&2 EB&2 EB&2 EB&2 EB&2 EB&2 EB&2 EB&2 EB&2 EB&2 EB&2 EB&2 EB&2 EB&2 EB&2 EB&2 EB&2 EB&2 EB&2 EB&2 EB&2 EB&2 EB&2 EB&2 EB&2 EB&2 EB&2 EB&2 EB&2 EB&2 EB&2 EB&2 EB&2 EB&2 EB&2 EB&2 EB&2 EB&2 EB&2 EB&2 EB&2 EB&2 EB&2 EB&2 EB&2 EB&2 EB&2 EB&2 EB&2 EB&2 EB&2 EB&2 EB&2 EB&2 EB&2 EB&2 EB&2 EB&2 EB&2 EB&2 EB&2 EB&2 EB&2 EB&2 EB&2 EB&2 EB&2 EB&2 EB&2 EB&2 EB&2 EB&2 EB&2 EB&2 EB&2 EB&2 EB&2 EB&2 EB&2 EB&2 EB&2 EB&2 EB&2 EB&2 EB&2 EB&2 EB&2 EB&2 EB&2 EB&2 EB&2 EB&2 EB&2 B&2 B&2 &2 C&2 C&2 C&2 C&2 C&2 C&2 C&2 C&2 C&2 C&2 C&2 C&2 C&2 C&2 C&2 C&2 C&2 C&2 C&2 C&2 C&2 C&2 C&2 C&2 C&2 C&2 C&2 C&2 C&2 C&2 C&2 C&2 C&2 C&2 C&2 C&2 C&2 C&2 C&2 C&2 C&2 C&2 C&2 C&2 C&2 C&2 C&2 C&2 C&2 C&2 C&2 C&2 C&2 C&2 C&2 C&2 C&2 C&2 C&2 C&2 C&2 C&2 C&2 C&2 C&2 C&2 C&2 C&2 C&2 C&2 C&2 C&2 C&2 C&2 C&2 C&2 C&2 C&2 C&2 C&2 C&2 C&2 C&2 C&2 C&2 C&2 C&2 C&2 C&2 C&2 C&2 C&2 C&2 C&2 C&2 C&2 C&2 C&2 C&2 C&2 C&2 C&2 C&2 C&2 C&2 C&2 C&2 C&2 C&2 C&2 C&2 C&2 C&2 C&2 C&2 C&2 C&2 C&2 C&2 C&2 C&2 C&2 C&2 C&2 C&2 C&2 C&2 C&2 C&2 C&2 C&2 C&2 C&2 C&2 C&2 C&2 C&2 C&2 C&2 C&2 C&2 C&2 C&2 C&2 C&2 C&2 C&2 C&2 C&2 C&2 C&2 C&2 C&2 C&2 C&2 C&2 C&2 C&2 C&2 C&2 C&2 C&2 C&2 C&2 C&2 C&2 C&2 C&2 C&2 C&2 C&2 C&2 C&2 C&2 C&2 C&2 C&2 C&2 C&2 C&2 C&2 C&2 C&2 C&2 C&2 C&2 C&2 C&2 C&2 C&2 C&2 C&2 2 2 2  C+ C+ C+ C+ C+ C+ C+ C+ C+ C+ C+ C+ C+ C+ C+ C+ C+ C+ C+ C+ C+ C+ C+ C+ C+ C+ C+ C+ C+ C+ C+ C+ C+ C+ C+ C+ C+ C+ C+ C+ C+ C+ C+ C+ C+ C+ C+ C+ C+ C+ C+ C+ C+ C+ C+ C+ C+ C+ C+ C+ C+ C+ C+ C+ C+ C+ C+ C+ C+ C+ C+ C+ C+ C+ C+ C+ C+ C+ C+ C+ C+ C+ C+ C+ C+ C+ C+ C+ C+ C+ C+ C+ C+ C+ C+ C+ C+ C+ C+ C+ C+ C+ C+ C+ C+ C+ C+ C+ C+ C+ C+ C+ C+ C+ C+ C+ C+ C+ C+ C+ C+ C+ C+ C+ C+ C+ C+ C+ C+ C+ C+ C+ C+ C+ C+ C+ C+ C+ C+ C+ C+ C+ C+ C+ C+ C+ C+ C+ C+ C+ C+ C+ C+ C+ C+ C+ C+ C+ C+ C+ C+ C+ C+ C+ C+ C+ C+ C+ C+ C+ C+ C+ C+ C+ C+ C+ C+ C+ C+ C+ C+ C+ C+ C+ C+ C+ C+ C+ C+ C+ C+ C+ C+ C+ C+ C+ C+ C+ C+ C+ C+ C+ C+ C+ C+ C+ C+ C+ C+ C+ C+ C+ C+ C+ C+ C+ C+ C+ C+ C+ C+ C+ C+ C+ C+ C+ C+ C+ C+ C+ C+ C+ C+ C+ C+ C+ C+ C+ C+ C+ C+ C+ C+ C+ C+ C+ C+ C+ C+ C+ C+ C+ C+ C+ C+ C+ C+ C+ C+ C+ C+ C+ C+ C+ C+ C+ C+ C+ C+ C+ C+ C+ C+ C+ C+ C+ C+ C+ C+ C+ C+ C+ C+ C+ C+ C+ C+ C+ C+ C+ C+ C+ C+ C+ C+ C+ C+ C+ C+ C+ C+ C+ C+ C+ C+ C+ C+ C+ C+ C+ C+ C+ C+ C+ C+ C+ C+ C+ C+ C+ C+ C+ C+ C+ C+ C+ C+ C+ C+ C+ C+ C+ C+ C+ C+ C+ C+ C+ C+ C+ C+ C+ C+ C+ C+ C+ C+ C+ C+ C+ C+ C+ C+ C+ C+ C+ C+ C+ C+ C+ C+ C+ C+ C+ C+ C+ C+ C+ C+ C+ C+ C+ C+ C+ C+ C+ C+ C+ C+ C+ C+ C+ C+ C+ C+ C+ C+ C+ C+ C+ C+ C+ C+ C+ C+ C+ C+ C+ C+ C+ C+ C+ C+ C+ C+ C+ C+ C+ C+ C+ C+ C+ .C+ .C+ .C+ .C+ .C+ .C+ .C+ .C+ .C+ .C+ .C+ .C+ .C+ .C+ .C+ .C+ .C+ .C+ .C+ .C+ .C+ .C+ .C+ .C+ .C+ .C+ .C+ .C+ .C+ .C+ .C+ .C+ .C+ .C+ .C+ .C+ .C+ .C+ .C+ .C+ .C+ .C+ .C+ .C+ .C+ .C+ .C+ .C+ .C+ .C+ .C+ .C+ .C+ .C+ .C+ .C+ .C+ .C+ .C+ .C+ .C+ .C+ .C+ .C+ .C+ .C+ .C+ .C+ .C+ .C+ .C+ .C+ .C+ .C+ .C+ .C+ .C+ .C+ .C+ .C+ .C+ .C+ .C+ .C+ .C+ .C+ .C+ .C+ .C+ .C+ .C+ .C+ .C+ .C+ .C+ .C+ .C+ .C+ .C+ .C+ .C+ .C+ .C+ .C+ .C+ .C+ .C+ .C+ .C+ .C+ .C+ .C+ .C+ .C+ .C+ .C+ .C+ .C+ .C+ .C+ .C+ .C+ .C+ .C+ .C+ .C+ .C+ .C+ .C+ .C+ .C+ .C+ .C+ .C+ .C+ .C+ .C+ .C+ .C+ .C+ .C+ .C+ .C+ .C+ .C+ .C+ .C+ .C+ .C+ .C+ .C+ .C+ .C+ .C+ .C+ .C+ .C+ .C+ .C+ .C+ .C+ .C+ .C+ .C+ .C+ .C+ .C+ .C+ .C+ .C+ .C+ .C+ .C+ .C+ .C+ .C+ .C+ .C+ .C+ .C+ .C+ .C+ .C+ .C+ .C+ .C+ .C+ .C+ .C+ .C+ .C+ .C+ .C+ .C+ .C+ .C+ .C+ .C+ .C+ .C+ .C+ .C+ .C+ .C+ .C+ .C+ .C+ .C+ .C+ .C+ .C+ .C+ .C+ .C+ .C+ .C+ .C+ .C+ .C+ .C+ .C+ .C+ .C+ .C+ .C+ .C+ .C+ .C+ .C+ .C+ .C+ .C+ .C+ .C+ .C+ .C+ .C+ .C+ .C+ .C+ .C+ .C+ .C+ .C+ .C+ .C+ .C+ .C+ .C+ .C+ .C+ .C+ .C+ .C+ .C+ .C+ .C+ .C+ .C+ .C+ .C+ .C+ .C+ .C+ .C+ .C+ .C+ .C+ .C+ .C+ .C+ .C+ .C+ .C+ .C+ .C+ .C+ .C+ .C+ .C+ .C+ .C+ .C+ .C+ .C+ .C+ .C+ .C+ .C+ .C+ .C+ .C+ .C+ .C+ .C+ .C+ .C+ .C+ .C+ .C+ .C+ .C+ .C+ .C+ .C+ .C+ .C+ .C+ .C+ .C+ .C+ .C+ .C+ .C+ .C+ .C+ .C+ .C+ .C+ .C+ .C+ .C+ .C+ .C+ .C+ .C+ .C+ .C+ .C+ .C+ .C+ .C+ .C+ .C+ .C+ .C+ .C+ .C+ .C+ .C+ .C+ .C+ .C+ .C+ .C+ .C+ .C+ .C+ .C+ .C+ .C+ .C+ .C+ .C+ .C+ .C+ .C+ .C+ .C+ .C+ .C+ .C+ .C+ .C+ .C+ .C+ .C+ .C+ .C+ .C+ .C+ .C+ .C+ .C+ .C+ .C+ .C+ .C+ .C+ .C+ .C+ .C+ .C+ .C+ .C+ .C+ .C+ .C+ .C+ .C+ .C+ .C+ .C+ .C+ .C+ .C+ .C+ .C+ .C+ .C+ .C+ .C+ .C+ .C+ .C+ .C+ .C+ .C+ C+ C+ 2C+ 2C+ 2C+ 2C+ 2C+ 2C+ 2C+ 2C+ 2C+ 2C+ 2C+ 2C+ 2C+ 2C+ 2C+ 2C+ 2C+ 2C+ 2C+ 2C+ 2C+ 2C+ 2C+ 2C+ 2C+ 2C+ 2C+ 2C+ 2C+ 2C+ 2C+ 2C+ 2C+ 2C+ 2C+ 2C+ 2C+ 2C+ 2C+ 2C+ 2C+ 2C+ 2C+ 2C+ 2C+ 2C+ 2C+ 2C+ 2C+ 2C+ 2C+ 2C+ 2C+ 2C+ 2C+ 2C+ 2C+ 2C+ 2C+ 2C+ 2C+ 2C+ 2C+ 2C+ 2C+ 2C+ 2C+ 2C+ 2C+ 2C+ 2C+ 2C+ 2C+ 2C+ 2C+ 2C+ 2C+ 2C+ 2C+ 2C+ 2C+ 2C+ 2C+ 2C+ 2C+ 2C+ 2C+ 2C+ 2C+ 2C+ 2C+ 2C+ 2C+ 2C+ 2C+ 2C+ 2C+ 2C+ 2C+ 2C+ 2C+ 2C+ 2C+ 2C+ 2C+ 2C+ 2C+ 2C+ 2C+ 2C+ 2C+ 2C+ 2C+ 2C+ 2C+ 2C+ 2C+ 2C+ 2C+ 2C+ 2C+ 2C+ 2C+ 2C+ 2C+ 2C+ 2C+ 2C+ 2C+ 2C+ 2C+ 2C+ 2C+ 2C+ 2C+ 2C+ 2C+ 2C+ 2C+ 2C+ 2C+ 2C+ 2C+ 2C+ 2C+ 2C+ 2C+ 2C+ 2C+ 2C+ 2C+ 2C+ 2C+ 2C+ 2C+ 2C+ 2C+ 2C+ 2C+ 2C+ 2C+ 2C+ 2C+ 2C+ 2C+ 2C+ 2C+ 2C+ 2C+ 2C+ 2C+ 2C+ 2C+ 2C+ 2C+ 2C+ 2C+ 2C+ 2C+ 2C+ 2C+ 2C+ 2C+ 2C+ 2C+ 2C+ 2C+ 2C+ 2C+ 2C+ 2C+ 2C+ 2C+ 2C+ 2C+ 2C+ 2C+ 2C+ 2C+ 2C+ 2C+ 2C+ 2C+ 2C+ 2C+ 2C+ 2C+ 2C+ 2C+ 2C+ 2C+ 2C+ 2C+ 2C+ 2C+ 2C+ 2C+ 2C+ 2C+ 2C+ 2C+ 2C+ 2C+ 2C+ 2C+ 2C+ 2C+ 2C+ 2C+ 2C+ 2C+ 2C+ 2C+ 2C+ 2C+ 2C+ 2C+ 2C+ 2C+ 2C+ 2C+ 2C+ 2C+ 2C+ 2C+ 2C+ 2C+ 2C+ 2C+ 2C+ 2C+ 2C+ 2C+ 2C+ 2C+ 2C+ 2C+ 2C+ 2C+ 2C+ 2C+ 2C+ 2C+ 2C+ 2C+ 2C+ 2C+ 2C+ 2C+ 2C+ 2C+ 2C+ 2C+ 2C+ 2C+ 2C+ 2C+ 2C+ 2C+ 2C+ 2C+ 2C+ 2C+ 2C+ 2C+ 2C+ 2C+ 2C+ 2C+ 2C+ 2C+ 2C+ 2C+ 2C+ 2C+ 2C+ 2C+ 2C+ 2C+ 2C+ 2C+ 2C+ 2C+ 2C+ 2C+ 2C+ 2C+ 2C+ 2C+ 2C+ 2C+ 2C+ 2C+ 2C+ 2C+ 2C+ 2C+ 2C+ 2C+ 2C+ 2C+ 2C+ 2C+ 2C+ 2C+ 2C+ 2C+ 2C+ 2C+ 2C+ 2C+ 2C+ 2C+ 2C+ 2C+ 2C+ 2C+ 2C+ 2C+ 2C+ 2C+ 2C+ 2C+ 2C+ 2C+ 2C+ 2C+ 2C+ 2C+ 2C+ 2C+ 2C+ 2C+ 2C+ 2C+ 2C+ 2C+ 2C+ 2C+ 2C+ 2C+ 2C+ 2C+ 2C+ 2C+ 2C+ 2C+ 2C+ 2C+ 2C+ 2C+ 2C+ 2C+ 2C+ 2C+ 2C+ 2C+ 2C+ 2C+ 2C+ 2C+ 2C+ 2C+ 2C+ 2C+ 2C+ 2C+ 2C+ 2C+ 2C+ 2C+ 2C+ 2C+ 2C+ 2C+ 2C+ 2C+ 2C+ 2C+ 2C+ 2C+ 2C+ 2C+ 2C+ 2C+ 2C+ 2C+ 2C+ C+ C+ :>7C+ :>7C+ :>7C+ :>7C+ :>7C+ :>7C+ :>7C+ :>7C+ :>7C+ :>7C+ :>7C+ :>7C+ :>7C+ :>7C+ :>7C+ :>7C+ :>7C+ :>7C+ :>7C+ :>7C+ :>7C+ :>7C+ :>7C+ :>7C+ :>7C+ :>7C+ :>7C+ :>7C+ :>7C+ :>7C+ :>7C+ :>7C+ :>7C+ :>7C+ :>7C+ :>7C+ :>7C+ :>7C+ :>7C+ :>7C+ :>7C+ :>7C+ :>7C+ :>7C+ :>7C+ :>7C+ :>7C+ :>7C+ :>7C+ :>7C+ :>7C+ :>7C+ :>7C+ :>7C+ :>7C+ :>7C+ :>7C+ :>7C+ :>7C+ :>7C+ :>7C+ :>7C+ :>7C+ :>7C+ :>7C+ :>7C+ :>7C+ :>7C+ :>7C+ :>7C+ :>7C+ :>7C+ :>7C+ :>7C+ :>7C+ :>7C+ :>7C+ :>7C+ :>7C+ :>7C+ :>7C+ :>7C+ :>7C+ :>7C+ :>7C+ :>7C+ :>7C+ :>7C+ :>7C+ :>7C+ :>7C+ :>7C+ :>7C+ :>7C+ :>7C+ :>7C+ :>7C+ :>7C+ :>7C+ :>7C+ :>7C+ :>7C+ :>7C+ :>7C+ :>7C+ :>7C+ :>7C+ :>7C+ :>7C+ :>7C+ :>7C+ :>7C+ :>7C+ :>7C+ :>7C+ :>7C+ :>7C+ :>7C+ :>7C+ :>7C+ :>7C+ :>7C+ :>7C+ :>7C+ :>7C+ :>7C+ :>7C+ :>7C+ :>7C+ :>7C+ :>7C+ :>7C+ :>7C+ :>7C+ :>7C+ :>7C+ :>7C+ :>7C+ :>7C+ :>7C+ :>7C+ :>7C+ :>7C+ :>7C+ :>7C+ :>7C+ :>7C+ :>7C+ :>7C+ :>7C+ :>7C+ :>7C+ :>7C+ :>7C+ :>7C+ :>7C+ :>7C+ :>7C+ :>7C+ :>7C+ :>7C+ :>7C+ :>7C+ :>7C+ :>7C+ :>7C+ :>7C+ :>7C+ :>7C+ :>7C+ :>7C+ :>7C+ :>7C+ :>7C+ :>7C+ :>7C+ :>7C+ :>7C+ :>7C+ :>7C+ :>7C+ :>7C+ :>7C+ :>7C+ :>7C+ :>7C+ :>7C+ :>7C+ :>7C+ :>7C+ :>7C+ :>7C+ :>7C+ :>7C+ :>7C+ :>7C+ :>7C+ :>7C+ :>7C+ :>7C+ :>7C+ :>7C+ :>7C+ :>7C+ :>7C+ :>7C+ :>7C+ :>7C+ :>7C+ :>7C+ :>7C+ :>7C+ :>7C+ :>7C+ :>7C+ :>7C+ :>7C+ :>7C+ :>7C+ :>7C+ :>7C+ :>7C+ :>7C+ :>7C+ :>7C+ :>7C+ :>7C+ :>7C+ :>7C+ :>7C+ :>7C+ :>7C+ :>7C+ :>7C+ :>7C+ :>7C+ :>7C+ :>7C+ :>7C+ :>7C+ :>7C+ :>7C+ :>7C+ :>7C+ :>7C+ :>7C+ :>7C+ :>7C+ :>7C+ :>7C+ :>7C+ :>7C+ :>7C+ :>7C+ :>7C+ :>7C+ :>7C+ :>7C+ :>7C+ :>7C+ :>7C+ :>7C+ :>7C+ :>7C+ :>7C+ :>7C+ :>7C+ :>7C+ :>7C+ :>7C+ :>7C+ :>7C+ :>7C+ :>7C+ :>7C+ :>7C+ :>7C+ :>7C+ :>7C+ :>7C+ :>7C+ :>7C+ :>7C+ :>7C+ :>7C+ :>7C+ :>7C+ :>7C+ :>7C+ :>7C+ :>7C+ :>7C+ :>7C+ :>7C+ :>7C+ :>7C+ :>7C+ :>7C+ :>7C+ :>7C+ :>7C+ :>7C+ :>7C+ :>7C+ :>7C+ :>7C+ :>7C+ :>7C+ :>7C+ :>7C+ :>7C+ :>7C+ :>7C+ :>7C+ :>7C+ :>7C+ :>7C+ :>7C+ :>7C+ :>7C+ :>7C+ :>7C+ :>7C+ :>7C+ :>7C+ :>7C+ :>7C+ :>7C+ :>7C+ :>7C+ :>7C+ :>7C+ :>7C+ :>7C+ :>7C+ :>7C+ :>7C+ :>7C+ :>7C+ :>7C+ :>7C+ :>7C+ :>7C+ :>7C+ :>7C+ :>7C+ :>7C+ :>7C+ :>7C+ :>7C+ :>7C+ :>7C+ :>7C+ :>7C+ :>7C+ :>7C+ :>7C+ :>7C+ :>7C+ :>7C+ :>7C+ :>7C+ :>7C+ :>7C+ :>7C+ :>7C+ :>7C+ :>7C+ :>7C+ :>7C+ :>7C+ :>7C+ :>7C+ :>7C+ :>7C+ :>7C+ :>7C+ :>7C+ :>7C+ :>7C+ :>7C+ :>7C+ :>7C+ :>7C+ :>7C+ :>7C+ :>7C+ :>7C+ :>7C+ :>7C+ :>7C+ :>7C+ :>7C+ :>7C+ :>7C+ :>7C+ :>7C+ :>7C+ :>7C+ :>7C+ :>7C+ :>7C+ :>7C+ :>7C+ :>7C+ :>7C+ :>7C+ :>7C+ :>7C+ :>7C+ :>7C+ :>7C+ :>7C+ :>7C+ :>7C+ :>7C+ :>7C+ :>7C+ :>7C+ :>7C+ :>7C+ :>7C+ :>7C+ :>7C+ :>7C+ :>7C+ :>7C+ :>7C+ :>7C+ :>7C+ :>7C+ :>7C+ :>7C+ :>7C+ :>7C+ :>7C+ :>7C+ :>7C+ :>7C+ :>7C+ :>7C+ :>7C+ :>7C+ :>7C+ :>7C+ :>7C+ :>7C+ :>7C+ :>7C+ :>7C+ :>7C+ :>7C+ :>7C+ :>7C+ :>7C+ :>7C+ :>7C+ :>7C+ :>7C+ :>7C+ :>7C+ :>7C+ :>7C+ :>7C+ :>7C+ :>7C+ :>7C+ :>7C+ :>7C+ :>7C+ :>7C+ :>7C+ :>7C+ :>7C+ :>7C+ :>7C+ :>7C+ :>7C+ :>7C+ :>7C+ :>7C+ :>7C+ :>7C+ :>7C+ :>7C+ :>7C+ :>7C+ :>7C+ :>7C+ :>7C+ :>7C+ :>7C+ :>7C+ :>7C+ :>7C+ :>7C+ :>7C+ :>7C+ :>7C+ :>7C+ :>7C+ :>7C+ :>7C+ :>7C+ :>7C+ :>7C+ :>7C+ :>7C+ :>7C+ :>7C+ :>7C+ :>7C+ :>7C+ :>7C+ :>7C+ :>7C+ :>7C+ :>7C+ :>7C+ :>7C+ :>7C+ :>7C+ :>7C+ :>7C+ :>7C+ :>7C+ :>7C+ :>7C+ :>7C+ :>7C+ :>7C+ :>7C+ :>7C+ :>7C+ :>7C+ :>7C+ :>7C+ :>7C+ :>7C+ :>7C+ :>7C+ :>7C+ :>7C+ :>7C+ :>7C+ :>7C+ :>7C+ :>7C+ :>7C+ :>7C+ :>7C+ :>7C+ :>7C+ :>7C+ :>7C+ :>7C+ :>7C+ :>7C+ :>7C+ :>7C+ :>7C+ :>7C+ :>7C+ :>7C+ :>7C+ :>7C+ :>7C+ :>7C+ :>7C+ :>7C+ :>7C+ :>7C+ :>7C+ :>7C+ :>7C+ :>7C+ :>7C+ :>7C+ :>7C+ :>7C+ :>7C+ :>7C+ :>7C+ :>7C+ :>7C+ :>7C+ :>7C+ :>7C+ :>7C+ :>7C+ :>7C+ :>7C+ :>7C+ :>7C+ :>7C+ :>7C+ :>7C+ :>7C+ :>7C+ :>7C+ :>7C+ :>7C+ :>7C+ :>7C+ :>7C+ :>7C+ :>7C+ :>7C+ :>7C+ :>7C+ :>7C+ :>7C+ :>7C+ :>7C+ :>7C+ :>7C+ :>7C+ :>7C+ :>7C+ :>7C+ :>7C+ :>7C+ :>7C+ :>7C+ :>7C+ :>7C+ :>7C+ :>7C+ :>7C+ :>7C+ :>7C+ :>7C+ :>7C+ :>7C+ :>7C+ :>7C+ :>7C+ :>7C+ :>7C+ :>7C+ :>7C+ :>7C+ :>7C+ :>7C+ :>7C+ :>7C+ :>7C+ :>7C+ :>7C+ :>7C+ :>7C+ :>7C+ :>7C+ :>7C+ :>7C+ :>7C+ :>7C+ :>7C+ :>7C+ :>7C+ :>7C+ :>7C+ :>7C+ :>7C+ :>7C+ :>7C+ :>7C+ :>7C+ :>7C+ :>7C+ :>7C+ :>7C+ :>7C+ :>7C+ :>7C+ :>7C+ :>7C+ :>7C+ :>7C+ :>7C+ :>7C+ :>7C+ :>7C+ :>7C+ :>7C+ :>7C+ :>7C+ :>7C+ :>7C+ :>7C+ :>7C+ :>7C+ :>7C+ :>7C+ :>7C+ :>7C+ :>7C+ :>7C+ :>7C+ :>7C+ :>7C+ :>7C+ :>7C+ :>7C+ :>7C+ :>7C+ :>7C+ :>7C+ :>7C+ :>7C+ :>7C+ :>7C+ :>7C+ :>7C+ :>7C+ :>7C+ :>7C+ :>7C+ :>7C+ :>7C+ :>7C+ :>7C+ :>7C+ :>7C+ :>7C+ :>7C+ :>7C+ :>7C+ :>7C+ :>7C+ :>7C+ :>7C+ :>7C+ :>7C+ :>7C+ :>7C+ :>7C+ :>7C+ :>7C+ :>7C+ :>7C+ :>7C+ :>7C+ :>7C+ :>7C+ :>7C+ :>7C+ :>7C+ :>7C+ :>7C+ :>7C+ :>7C+ :>7C+ :>7C+ :>7C+ :>7C+ :>7C+ :>7C+ :>7C+ :>7C+ :>7C+ :>7C+ :>7C+ :>7C+ :>7C+ :>7C+ :>7C+ :>7C+ :>7C+ :>7C+ :>7C+ :>7C+ :>7C+ :>7C+ :>7C+ :>7C+ :>7C+ :>7C+ :>7C+ :>7C+ :>7C+ :>7C+ :>7C+ :>7C+ :>7C+ :>7C+ :>7C+ :>7C+ :>7C+ :>7C+ :>7C+ :>7C+ :>7C+ :>7C+ :>7C+ :>7C+ :>7C+ :>7C+ :>7C+ :>7C+ :>7C+ :>7C+ :>7C+ :>7C+ :>7C+ :>7C+ :>7C+ :>7C+ :>7C+ :>7C+ :>7C+ :>7C+ :>7C+ :>7C+ :>7C+ :>7C+ :>7C+ :>7C+ :>7C+ :>7C+ :>7C+ :>7C+ :>7C+ :>7C+ :>7C+ :>7C+ :>7C+ :>7C+ :>7C+ :>7C+ :>7C+ :>7C+ :>7C+ :>7C+ :>7C+ :>7C+ :>7C+ :>7C+ :>7C+ :>7C+ :>7C+ :>7C+ :>7C+ :>7C+ :>7C+ :>7C+ :>7C+ :>7C+ :>7C+ :>7C+ :>7C+ :>7C+ :>7C+ :>7C+ :>7C+ :>7C+ :>7C+ :>7C+ :>7C+ :>7C+ :>7C+ :>7C+ :>7C+ :>7C+ :>7C+ :>7C+ :>7C+ :>7C+ :>7C+ :>7C+ :>7C+ :>7C+ :>7C+ :>7C+ :>7C+ :>7C+ :>7C+ :>7C+ :>7C+ :>7C+ :>7C+ :>7C+ :>7C+ :>7C+ :>7C+ :>7C+ :>7C+ :>7C+ :>7C+ :>7C+ :>7C+ :>7C+ :>7C+ :>7C+ :>7C+ :>7C+ :>7C+ :>7C+ :>7C+ :>7C+ :>7C+ :>7C+ :>7C+ :>7C+ :>7C+ :>7C+ :>7C+ :>7C+ :>7C+ :>7C+ :>7C+ :>7C+ :>7C+ :>7C+ :>7C+ :>7C+ :>7C+ :>7C+ :>7C+ :>7C+ :>7C+ :>7C+ :>7C+ :>7C+ :>7C+ :>7C+ :>7C+ :>7C+ :>7C+ :>7C+ :>7C+ :>7C+ :>7C+ :>7C+ :>7C+ :>7C+ :>7C+ :>7C+ :>7C+ :>7C+ :>7C+ :>7C+ :>7C+ :>7C+ :>7C+ :>7C+ :>7C+ :>7C+ :>7C+ :>7C+ :>7C+ :>7C+ :>7C+ :>7C+ :>7C+ :>7C+ :>7C+ :>7C+ :>7C+ :>7C+ :>7C+ :>7C+ :>7C+ :>7C+ :>7C+ :>7C+ :>7C+ :>7C+ :>7C+ :>7C+ :>7C+ :>7C+ :>7C+ :>7C+ :>7C+ :>7C+ :>7C+ :>7C+ :>7C+ :>7C+ :>7C+ :>7C+ :>7C+ :>7C+ :>7C+ :>7C+ :>7C+ :>7C+ :>7C+ :>7C+ :>7C+ :>7C+ :>7C+ :>7C+ :>7C+ :>7C+ :>7C+ :>7C+ :>7C+ :>7C+ :>7C+ :>7C+ :>7C+ :>7C+ :>7C+ :>7C+ :>7C+ :>7C+ :>7C+ :>7C+ :>7C+ :>7C+ :>7C+ :>7C+ :>7C+ :>7C+ :>7C+ :>7C+ :>7C+ :>7C+ :>7C+ :>7C+ :>7C+ :>7C+ :>7C+ :>7C+ :>7C+ :>7C+ :>7C+ :>7C+ :>7C+ :>7C+ :>7C+ :>7C+ :>7C+ :>7C+ :>7C+ :>7C+ :>7C+ :>7C+ :>7C+ :>7C+ :>7C+ :>7C+ :>7C+ :>7C+ :>7C+ :>7C+ :>7C+ :>7C+ :>7C+ :>7C+ :>7C+ :>7C+ :>7C+ :>7C+ :>7C+ :>7C+ :>7C+ :>7C+ :>7C+ :>7C+ :>7C+ :>7C+ :>7C+ :>7C+ :>7C+ :>7C+ :>7C+ :>7C+ :>7C+ :>7C+ :>7C+ :>7C+ :>7C+ :>7C+ :>7C+ :>7C+ :>7C+ :>7C+ :>7C+ :>7C+ :>7C+ :>7C+ :>7C+ :>7C+ :>7C+ :>7C+ :>7C+ :>7C+ :>7C+ :>7C+ :>7C+ :>7C+ :>7C+ :>7C+ :>7C+ :>7C+ :>7C+ :>7C+ :>7C+ :>7C+ :>7C+ :>7C+ :>7C+ :>7C+ :>7C+ :>7C+ :>7C+ :>7C+ :>7C+ :>7C+ :>7C+ :>7C+ :>7C+ :>7C+ :>7C+ :>7C+ :>7C+ :>7C+ :>7C+ :>7C+ :>7C+ :>7C+ :>7C+ :>7C+ :>7C+ :>7C+ :>7C+ :>7C+ :>7C+ :>7C+ :>7C+ :>7C+ :>7C+ :>7C+ :>7C+ :>7C+ :>7C+ :>7C+ :>7C+ :>7C+ :>7C+ :>7C+ :>7C+ :>7C+ :>7C+ :>7C+ :>7C+ :>7C+ :>7C+ :>7C+ :>7C+ :>7C+ :>7C+ :>7C+ :>7C+ :>7C+ :>7C+ :>7C+ :>7C+ :>7C+ :>7C+ :>7C+ :>7C+ :>7C+ :>7C+ :>7C+ :>7C+ :>7C+ :>7C+ :>7C+ :>7C+ :>7C+ :>7C+ :>7C+ :>7C+ :>7C+ :>7C+ :>7C+ :>7C+ :>7C+ :>7C+ :>7C+ :>7C+ :>7C+ :>7C+ :>7C+ :>7C+ :>7C+ :>7C+ :>7C+ :>7C+ :>7C+ :>7C+ :>7C+ :>7C+ :>7C+ :>7C+ :>7C+ :>7C+ :>7C+ :>7C+ :>7C+ :>7C+ :>7C+ :>7C+ :>7C+ :>7C+ :>7C+ :>7C+ :>7C+ :>7C+ :>7C+ :>7C+ :>7C+ :>7C+ :>7C+ :>7C+ :>7C+ :>7C+ :>7C+ :>7C+ :>7C+ :>7C+ :>7C+ :>7C+ :>7C+ :>7C+ :>7C+ :>7C+ :>7C+ :>7C+ :>7C+ :>7C+ :>7C+ :>7C+ :>7C+ :>7C+ :>7C+ :>7C+ :>7C+ :>7C+ :>7C+ :>7C+ :>7C+ :>7C+ :>7C+ :>7C+ :>7C+ :>7C+ :>7C+ :>7C+ :>7C+ :>7C+ :>7C+ :>7C+ :>7C+ :>7C+ :>7C+ :>7C+ :>7C+ :>7C+ :>7C+ :>7C+ :>7C+ :>7C+ :>7C+ :>7C+ :>7C+ :>7C+ :>7C+ :>7C+ :>7C+ :>7C+ :>7C+ :>7C+ :>7C+ :>7C+ :>7C+ :>7C+ :>7C+ :>7C+ :>7C+ :>7C+ :>7C+ :>7C+ :>7C+ :>7C+ :>7C+ :>7C+ :>7C+ :>7C+ :>7C+ :>7C+ :>7C+ :>7C+ :>7C+ :>7C+ :>7C+ :>7C+ :>7C+ :>7C+ :>7C+ :>7C+ :>7C+ :>7C+ :>7C+ :>7C+ :>7C+ :>7C+ :>7C+ :>7C+ :>7C+ :>7C+ :>7C+ :>7C+ :>7C+ :>7C+ :>7C+ :>7C+ :>7C+ :>7C+ :>7C+ :>7C+ :>7C+ :>7C+ :>7C+ :>7C+ :>7C+ :>7C+ :>7C+ :>7C+ :>7C+ :>7C+ :>7C+ :>7C+ :>7C+ :>7C+ :>7C+ :>7C+ :>7C+ :>7C+ :>7C+ :>7C+ :>7C+ :>7C+ :>7C+ :>7C+ :>7C+ :>7C+ :>7C+ :>7C+ :>7C+ :>7C+ :>7C+ :>7C+ :>7C+ :>7C+ :>7C+ :>7C+ :>7C+ :>7C+ :>7C+ :>7C+ :>7C+ :>7C+ :>7C+ :>7C+ :>7C+ :>7C+ :>7C+ :>7C+ :>7C+ :>7C+ :>7C+ :>7C+ :>7C+ :>7C+ :>7C+ :>7C+ :>7C+ :>7C+ :>7C+ :>7C+ :>7C+ :>7C+ :>7C+ :>7C+ :>7C+ :>7C+ :>7C+ :>7C+ :>7C+ :>7C+ :>7C+ :>7C+ :>7C+ :>7C+ :>7C+ :>7C+ :>7C+ :>7C+ :>7C+ :>7C+ :>7C+ :>7C+ :>7C+ :>7C+ :>7C+ :>7C+ :>7C+ :>7C+ :>7C+ :>7C+ :>7C+ :>7C+ :>7C+ :>7C+ :>7C+ :>7C+ :>7C+ :>7C+ :>7C+ :>7C+ :>7C+ :>7C+ :>7C+ :>7C+ :>7C+ :>7C+ :>7C+ :>7C+ :>7C+ :>7C+ :>7C+ :>7C+ :>7C+ :>7C+ :>7C+ :>7C+ :>7C+ :>7C+ :>7C+ :>7C+ :>7C+ :>7C+ :>7C+ :>7C+ :>7C+ :>7C+ :>7C+ :>7C+ :>7C+ :>7C+ :>7C+ :>7C+ :>7C+ :>7C+ :>7C+ :>7C+ :>7C+ :>7C+ :>7C+ :>7C+ :>7C+ :>7C+ :>7C+ :>7C+ :>7C+ :>7C+ :>7C+ :>7C+ :>7C+ :>7C+ :>7C+ :>7C+ :>7C+ :>7C+ :>7C+ :>7C+ :>7C+ :>7C+ :>7C+ :>7C+ :>7C+ :>7C+ :>7C+ :>7C+ :>7C+ :>7C+ :>7C+ :>7C+ :>7C+ :>7C+ :>7C+ :>7C+ :>7C+ :>7C+ :>7C+ :>7C+ :>7C+ :>7C+ :>7C+ :>7C+ :>7C+ :>7C+ :>7C+ :>7C+ :>7C+ :>7C+ :>7C+ :>7C+ :>7C+ :>7C+ :>7C+ :>7C+ :>7C+ :>7C+ :>7C+ :>7C+ :>7C+ :>7C+ :>7C+ :>7C+ :>7C+ :>7C+ :>7C+ :>7C+ :>7C+ :>7C+ :>7C+ :>7C+ :>7C+ :>7C+ :>7C+ :>7C+ :>7C+ :>7C+ :>7C+ :>7C+ :>7C+ :>7C+ :>7C+ :>7C+ :>7C+ :>7C+ :>7C+ :>7C+ :>7C+ :>7C+ :>7C+ :>7C+ :>7C+ :>7C+ :>7C+ :>7C+ :>7C+ :>7C+ :>7C+ :>7C+ :>7C+ :>7C+ :>7C+ :>7C+ :>7C+ :>7C+ :>7C+ :>7C+ :>7C+ :>7C+ :>7C+ :>7C+ :>7C+ :>7C+ :>7C+ :>7C+ :>7C+ :>7C+ :>7C+ :>7C+ :>7C+ :>7C+ :>7C+ :>7C+ :>7C+ :>7C+ :>7C+ :>7C+ :>7C+ :>7C+ :>7C+ :>7C+ :>7C+ :>7C+ :>7C+ :>7C+ :>7C+ :>7C+ :>7C+ :>7C+ :>7C+ :>7C+ :>7C+ :>7C+ :>7C+ :>7C+ :>7C+ :>7C+ :>7C+ :>7C+ :>7C+ :>7C+ :>7C+ :>7C+ :>7C+ :>7C+ :>7C+ :>7C+ :>7C+ :>7C+ :>7C+ :>7C+ :>7C+ :>7C+ :>7C+ :>7C+ :>7C+ :>7C+ :>7C+ :>7C+ :>7C+ :>7C+ :>7C+ :>7C+ :>7C+ :>7C+ :>7C+ :>7C+ :>7C+ :>7C+ :>7C+ :>7C+ :>7C+ :>7C+ :>7C+ :>7C+ :>7C+ :>7C+ :>7C+ :>7C+ :>7C+ :>7C+ :>7C+ :>7C+ :>7C+ :>7C+ :>7C+ :>7C+ :>7C+ :>7C+ :>7C+ :>7C+ :>7C+ :>7C+ :>7C+ :>7C+ :>7C+ :>7C+ :>7C+ :>7C+ :>7C+ :>7C+ :>7C+ :>7C+ :>7C+ :>7C+ :>7C+ :>7C+ :>7C+ :>7C+ :>7C+ :>7C+ :>7C+ :>7C+ :>7C+ :>7C+ :>7C+ :>7C+ :>7C+ :>7C+ :>7C+ :>7C+ :>7C+ :>7C+ :>7C+ :>7C+ :>7C+ :>7C+ :>7C+ :>7C+ :>7C+ :>7C+ :>7C+ :>7C+ :>7C+ :>7C+ :>7C+ :>7C+ :>7C+ :>7C+ :>7C+ :>7C+ :>7C+ :>7C+ :>7C+ :>7C+ :>7C+ :>7C+ :>7C+ :>7C+ :>7C+ :>7C+ :>7C+ :>7C+ :>7C+ :>7C+ :>7C+ :>7C+ :>7C+ :>7C+ :>7C+ :>7C+ :>7C+ :>7C+ :>7C+ :>7C+ :>7C+ :>7C+ :>7C+ :>7C+ :>7C+ :>7C+ :>7C+ :>7C+ :>7C+ :>7C+ :>7C+ :>7C+ :>7C+ :>7C+ :>7C+ :>7C+ :>7C+ :>7C+ :>7C+ :>7C+ :>7C+ :>7C+ :>7C+ :>7C+ :>7C+ :>7C+ :>7C+ :>7C+ :>7C+ :>7C+ :>7C+ :>7C+ :>7C+ :>7C+ :>7C+ :>7C+ :>7C+ :>7C+ :>7C+ :>7C+ :>7C+ :>7C+ :>7C+ :>7C+ :>7C+ :>7C+ :>7C+ :>7C+ :>7C+ :>7C+ :>7C+ :>7C+ :>7C+ :>7C+ :>7C+ :>7C+ :>7C+ :>7C+ :>7C+ :>7C+ :>7C+ :>7C+ :>7C+ :>7C+ :>7C+ :>7C+ :>7C+ :>7C+ :>7C+ :>7C+ :>7C+ :>7C+ :>7C+ :>7C+ :>7C+ :>7C+ :>7C+ :>7C+ :>7C+ :>7C+ :>7C+ :>7C+ :>7C+ :>7C+ :>7C+ :>7C+ :>7C+ :>7C+ :>7C+ :>7C+ :>7C+ :>7C+ :>7C+ :>7C+ :>7C+ :>7C+ :>7C+ :>7C+ :>7C+ :>7C+ :>7C+ :>7C+ :>7C+ :>7C+ :>7C+ :>7C+ :>7C+ :>7C+ :>7C+ :>7C+ :>7C+ :>7C+ :>7C+ :>7C+ :>7C+ :>7C+ :>7C+ :>7C+ :>7C+ :>7C+ :>7C+ :>7C+ :>7C+ :>7C+ :>7C+ :>7C+ :>7C+ :>7C+ :>7C+ :>7C+ :>7C+ :>7C+ :>7C+ :>7C+ :>7C+ :>7C+ :>7C+ :>7C+ :>7C+ :>7C+ :>7C+ :>7C+ :>7C+ :>7C+ :>7C+ :>7C+ :>7C+ :>7C+ :>7C+ :>7C+ :>7C+ :>7C+ :>7C+ :>7C+ :>7C+ :>7C+ :>7C+ :>7C+ :>7C+ :>7C+ :>7C+ :>7C+ :>7C+ :>7C+ :>7C+ :>7C+ :>7C+ :>7C+ :>7C+ :>7C+ :>7C+ :>7C+ :>7C+ :>7C+ :>7C+ :>7C+ :>7C+ :>7C+ :>7C+ :>7C+ :>7C+ :>7C+ :>7C+ :>7C+ :>7C+ :>7C+ :>7C+ :>7C+ :>7C+ :>7C+ :>7C+ :>7C+ :>7C+ :>7C+ :>7C+ :>7C+ :>7C+ :>7C+ :>7C+ :>7C+ :>7C+ :>7C+ :>7C+ :>7C+ :>7C+ :>7C+ :>7C+ :>7C+ :>7C+ :>7C+ :>7C+ :>7C+ :>7C+ :>7C+ :>7C+ :>7C+ :>7C+ :>7C+ :>7C+ :>7C+ :>7C+ :>7C+ :>7C+ :>7C+ :>7C+ :>7C+ :>7C+ :>7C+ :>7C+ :>7C+ :>7C+ :>7C+ :>7C+ :>7C+ :>7C+ :>7C+ :>7C+ :>7C+ :>7C+ :>7C+ :>7C+ :>7C+ :>7C+ :>7C+ :>7C+ :>7C+ :>7C+ :>7C+ :>7C+ :>7C+ :>7C+ :>7C+ :>7C+ :>7C+ :>7C+ :>7C+ :>7C+ :>7C+ :>7C+ :>7C+ :>7C+ :>7C+ :>7C+ :>7C+ :>7C+ :>7C+ :>7C+ :>7C+ :>7C+ :>7C+ :>7C+ :>7C+ :>7C+ :>7C+ :>7C+ :>7C+ :>7C+ :>7C+ :>7C+ :>7C+ :>7C+ :>7C+ :>7C+ :>7C+ :>7C+ :>7C+ :>7C+ :>7C+ :>7C+ :>7C+ :>7C+ :>7C+ :>7C+ :>7C+ :>7C+ :>7C+ :>7C+ :>7C+ :>7C+ :>7C+ :>7C+ :>7C+ :>7C+ :>7C+ :>7C+ :>7C+ :>7C+ :>7C+ :>7C+ :>7C+ :>7C+ :>7C+ :>7C+ :>7C+ :>7C+ :>7C+ :>7C+ :>7C+ :>7C+ :>7C+ :>7C+ :>7C+ :>7C+ :>7C+ :>7C+ :>7C+ :>7C+ :>7C+ :>7C+ :>7C+ :>7C+ :>7C+ :>7C+ :>7C+ :>7C+ :>7C+ :>7C+ :>7C+ :>7C+ :>7C+ :>7C+ :>7C+ :>7C+ :>7C+ :>7C+ :>7C+ :>7C+ :>7C+ :>7C+ :>7C+ :>7C+ :>7C+ :>7C+ :>7C+ :>7C+ :>7C+ :>7C+ :>7C+ :>7C+ :>7C+ :>7C+ :>7C+ :>7C+ :>7C+ :>7C+ :>7C+ :>7C+ :>7C+ :>7C+ :>7C+ :>7C+ :>7C+ :>7C+ :>7C+ :>7C+ :>7C+ :>7C+ :>7C+ :>7C+ :>7C+ :>7C+ :>7C+ :>7C+ :>7C+ :>7C+ :>7C+ :>7C+ :>7C+ :>7C+ :>7C+ :>7C+ :>7C+ :>7C+ :>7C+ :>7C+ :>7C+ :>7C+ :>7C+ :>7C+ :>7C+ :>7C+ :>7C+ :>7C+ :>7C+ :>7C+ :>7C+ :>7C+ :>7C+ :>7C+ :>7C+ :>7C+ :>7C+ :>7C+ :>7C+ :>7C+ :>7C+ :>7C+ :>7C+ :>7C+ :>7C+ :>7C+ :>7C+ :>7C+ :>7C+ :>7C+ :>7C+ :>7C+ :>7C+ :>7C+ :>7C+ :>7C+ :>7C+ :>7C+ :>7C+ :>7C+ :>7C+ :>7C+ :>7C+ :>7C+ :>7C+ :>7C+ :>7C+ :>7C+ :>7C+ :>7C+ :>7C+ :>7C+ :>7C+ :>7C+ :>7C+ :>7C+ :>7C+ :>7C+ :>7C+ :>7C+ :>7C+ :>7C+ :>7C+ :>7C+ :>7C+ :>7C+ :>7C+ :>7C+ C+ C+ C+ C+ C+ C+ C+ C+ C+ C+ C+ C+ C+ C+ C+ C+ C+ C+                                                                                                                                                                                                                                                                                                                                                                                                                                                                                                                                                                                                                                                                                                                                                                                                                                                                                                                                                                                                                                                                                                                                                                                                                                                                                                                                                                                                                                                                                                                                                                                                                                                                                                                                                                                                                                                                                                                                         >CF27+ >CF27+ >CF27+ >CF27+ >CF27+ >CF27+ >CF27+ >CF27+ >CF27+ >CF27+ >CF27+ >CF27+ >CF27+ >CF27+ >CF27+ >CF27+ >CF27+ >CF27+ >CF27+ >CF27+ >CF27+ >CF27+ >CF27+ >CF27+ >CF27+ >CF27+ >CF27+ >CF27+ >CF27+ >CF27+ >CF27+ >CF27+ >CF27+ >CF27+ >CF27+ >CF27+ >CF27+ >CF27+ >CF27+ >CF27+ >CF27+ >CF27+ >CF27+ >CF27+ >CF27+ >CF27+ >CF27+ >CF27+ >CF27+ >CF27+ >CF27+ >CF27+ >CF27+ >CF27+ >CF27+ >CF27+ >CF27+ >CF27+ >CF27+ >CF27+ >CF27+ >CF27+ >CF27+ >CF27+ >CF27+ >CF27+ >CF27+ >CF27+ >CF27+ >CF27+ >CF27+ >CF27+ >CF27+ >CF27+ >CF27+ >CF27+ >CF27+ >CF27+ >CF27+ >CF27+ >CF27+ >CF27+ >CF27+ >CF27+ >CF27+ >CF27+ >CF27+ >CF27+ >CF27+ >CF27+ >CF27+ >CF27+ >CF27+ >CF27+ >CF27+ >CF27+ >CF27+ >CF27+ >CF27+ >CF27+ >CF27+ >CF27+ >CF27+ >CF27+ >CF27+ >CF27+ >CF27+ >CF27+ >CF27+ >CF27+ >CF27+ >CF27+ >CF27+ >CF27+ >CF27+ >CF27+ >CF27+ >CF27+ >CF27+ >CF27+ >CF27+ >CF27+ >CF27+ >CF27+ >CF27+ >CF27+ >CF27+ >CF27+ >CF27+ >CF27+ >CF27+ >CF27+ >CF27+ >CF27+ >CF27+ >CF27+ >CF27+ >CF27+ >CF27+ >CF27+ >CF27+ >CF27+ >CF27+ >CF27+ >CF27+ >CF27+ >CF27+ >CF27+ >CF27+ >CF27+ >CF27+ >CF27+ >CF27+ >CF27+ >CF27+ >CF27+ >CF27+ >CF27+ >CF27+ >CF27+ >CF27+ >CF27+ >CF27+ >CF27+ >CF27+ >CF27+ >CF27+ >CF27+ >CF27+ >CF27+ >CF27+ >CF27+ >CF27+ >CF27+ >CF27+ >CF27+ >CF27+ >CF27+ >CF27+ >CF27+ >CF27+ >CF27+ >CF27+ >CF27+ >CF27+ >CF27+ >CF27+ >CF27+ >CF27+ >CF27+ >CF27+ >CF27+ >CF27+ >CF27+ >CF27+ >CF27+ >CF27+ >CF27+ >CF27+ >CF27+ >CF27+ >CF27+ >CF27+ >CF27+ >CF27+ >CF27+ >CF27+ >CF27+ >CF27+ >CF27+ >CF27+ >CF27+ >CF27+ >CF27+ >CF27+ >CF27+ >CF27+ >CF27+ >CF27+ >CF27+ >CF27+ >CF27+ >CF27+ >CF27+ >CF27+ >CF27+ >CF27+ >CF27+ >CF27+ >CF27+ >CF27+ >CF27+ >CF27+ >CF27+ >CF27+ >CF27+ >CF27+ >CF27+ >CF27+ >CF27+ >CF27+ >CF27+ >CF27+ >CF27+ >CF27+ >CF27+ >CF27+ >CF27+ >CF27+ >CF27+ >CF27+ >CF27+ >CF27+ >CF27+ >CF27+ >CF27+ >CF27+ >CF27+ >CF27+ >CF27+ >CF27+ >CF27+ >CF27+ >CF27+ >CF27+ >CF27+ >CF27+ >CF27+ >CF27+ >CF27+ >CF27+ >CF27+ >CF27+ >CF27+ >CF27+ >CF27+ >CF27+ >CF27+ >CF27+ >CF27+ >CF27+ >CF27+ >CF27+ >CF27+ >CF27+ >CF27+ >CF27+ >CF27+ >CF27+ >CF27+ >CF27+ >CF27+ >CF27+ >CF27+ >CF27+ >CF27+ >CF27+ >CF27+ >CF27+ >CF27+ >CF27+ >CF27+ >CF27+ >CF27+ >CF27+ >CF27+ >CF27+ >CF27+ >CF27+ >CF27+ >CF27+ >CF27+ >CF27+ >CF27+ >CF27+ >CF27+ >CF27+ >CF27+ >CF27+ >CF27+ >CF27+ >CF27+ >CF27+ >CF27+ >CF27+ >CF27+ >CF27+ >CF27+ >CF27+ >CF27+ >CF27+ >CF27+ >CF27+ >CF27+ >CF27+ >CF27+ >CF27+ >CF27+ >CF27+ >CF27+ >CF27+ >CF27+ >CF27+ >CF27+ >CF27+ >CF27+ >CF27+ >CF27+ >CF27+ >CF27+ >CF27+ >CF27+ >CF27+ >CF27+ >CF27+ >CF27+ >CF27+ >CF27+ >CF27+ >CF27+ >CF27+ >CF27+ >CF27+ >CF27+ >CF27+ >CF27+ >CF27+ >CF27+ >CF27+ >CF27+ >CF27+ >CF27+ >CF27+ >CF27+ >CF27+ >CF27+ >CF27+ >CF27+ >CF27+ >CF27+ >CF27+ >CF27+ >CF27+ >CF27+ >CF27+ >CF27+ >CF27+ >CF27+ >CF27+ >CF27+ >CF27+ >CF27+ >CF27+ >CF27+ >CF27+ >CF27+ >CF27+ >CF27+ >CF27+ >CF27+ >CF27+ >CF27+ >CF27+ >CF27+ >CF27+ >CF27+ 27+ 27+ 27+ 27+ 27+ 27+ E<27+ E<27+ E<27+ E<27+ E<27+ E<27+ E<27+ E<27+ E<27+ E<27+ E<27+ E<27+ E<27+ E<27+ E<27+ E<27+ E<27+ E<27+ E<27+ E<27+ E<27+ E<27+ E<27+ E<27+ E<27+ E<27+ E<27+ E<27+ E<27+ E<27+ E<27+ E<27+ E<27+ E<27+ E<27+ E<27+ E<27+ E<27+ E<27+ E<27+ E<27+ E<27+ E<27+ E<27+ E<27+ E<27+ E<27+ E<27+ E<27+ E<27+ E<27+ E<27+ E<27+ E<27+ E<27+ E<27+ E<27+ E<27+ E<27+ E<27+ E<27+ E<27+ E<27+ E<27+ E<27+ E<27+ E<27+ E<27+ E<27+ E<27+ E<27+ E<27+ E<27+ E<27+ E<27+ E<27+ E<27+ E<27+ E<27+ E<27+ E<27+ E<27+ E<27+ E<27+ E<27+ E<27+ E<27+ E<27+ E<27+ E<27+ E<27+ E<27+ E<27+ E<27+ E<27+ E<27+ E<27+ E<27+ E<27+ E<27+ E<27+ E<27+ E<27+ E<27+ E<27+ E<27+ E<27+ E<27+ E<27+ E<27+ E<27+ E<27+ E<27+ E<27+ E<27+ E<27+ E<27+ E<27+ E<27+ E<27+ E<27+ E<27+ E<27+ E<27+ E<27+ E<27+ E<27+ E<27+ E<27+ E<27+ E<27+ E<27+ E<27+ E<27+ E<27+ E<27+ E<27+ E<27+ E<27+ E<27+ E<27+ E<27+ E<27+ E<27+ E<27+ E<27+ E<27+ E<27+ E<27+ E<27+ E<27+ E<27+ E<27+ E<27+ E<27+ E<27+ E<27+ E<27+ E<27+ E<27+ E<27+ E<27+ E<27+ E<27+ E<27+ E<27+ E<27+ E<27+ E<27+ E<27+ E<27+ E<27+ E<27+ E<27+ E<27+ E<27+ E<27+ E<27+ E<27+ E<27+ E<27+ E<27+ E<27+ E<27+ E<27+ E<27+ E<27+ E<27+ E<27+ E<27+ E<27+ E<27+ E<27+ E<27+ E<27+ E<27+ E<27+ E<27+ E<27+ E<27+ E<27+ E<27+ E<27+ E<27+ E<27+ E<27+ E<27+ E<27+ E<27+ E<27+ E<27+ E<27+ E<27+ E<27+ E<27+ E<27+ E<27+ E<27+ E<27+ E<27+ E<27+ E<27+ E<27+ E<27+ E<27+ E<27+ E<27+ E<27+ E<27+ E<27+ E<27+ E<27+ E<27+ E<27+ E<27+ E<27+ E<27+ E<27+ E<27+ E<27+ E<27+ E<27+ E<27+ E<27+ E<27+ E<27+ E<27+ E<27+ E<27+ E<27+ E<27+ E<27+ E<27+ E<27+ E<27+ E<27+ E<27+ E<27+ E<27+ E<27+ E<27+ E<27+ E<27+ E<27+ E<27+ E<27+ E<27+ E<27+ E<27+ E<27+ E<27+ E<27+ E<27+ E<27+ E<27+ E<27+ E<27+ E<27+ E<27+ E<27+ E<27+ E<27+ E<27+ E<27+ E<27+ E<27+ E<27+ E<27+ E<27+ E<27+ E<27+ E<27+ E<27+ E<27+ E<27+ E<27+ E<27+ E<27+ E<27+ E<27+ E<27+ E<27+ E<27+ E<27+ E<27+ E<27+ E<27+ E<27+ E<27+ E<27+ E<27+ E<27+ E<27+ E<27+ E<27+ E<27+ E<27+ E<27+ E<27+ E<27+ E<27+ E<27+ E<27+ E<27+ E<27+ E<27+ E<27+ E<27+ E<27+ E<27+ E<27+ E<27+ E<27+ E<27+ E<27+ E<27+ E<27+ E<27+ E<27+ E<27+ E<27+ E<27+ E<27+ E<27+ E<27+ E<27+ E<27+ E<27+ E<27+ E<27+ E<27+ E<27+ E<27+ E<27+ E<27+ E<27+ E<27+ E<27+ E<27+ E<27+ E<27+ E<27+ E<27+ E<27+ E<27+ E<27+ E<27+ E<27+ E<27+ E<27+ E<27+ E<27+ E<27+ E<27+ E<27+ E<27+ E<27+ E<27+ E<27+ E<27+ E<27+ E<27+ E<27+ E<27+ E<27+ E<27+ E<27+ E<27+ E<27+ E<27+ E<27+ E<27+ E<27+ E<27+ E<27+ E<27+ E<27+ E<27+ E<27+ E<27+ E<27+ E<27+ E<27+ E<27+ E<27+ E<27+ + + + + + E<3+ E<3+ E<3+ E<3+ E<3+ E<3+ E<3+ E<3+ E<3+ E<3+ E<3+ E<3+ E<3+ E<3+ E<3+ E<3+ E<3+ E<3+ E<3+ E<3+ E<3+ E<3+ E<3+ E<3+ E<3+ E<3+ E<3+ E<3+ E<3+ E<3+ E<3+ E<3+ E<3+ E<3+ E<3+ E<3+ E<3+ E<3+ E<3+ E<3+ E<3+ E<3+ E<3+ E<3+ E<3+ E<3+ E<3+ E<3+ E<3+ E<3+ E<3+ E<3+ E<3+ E<3+ E<3+ E<3+ E<3+ E<3+ E<3+ E<3+ E<3+ E<3+ E<3+ E<3+ E<3+ E<3+ E<3+ E<3+ E<3+ E<3+ E<3+ E<3+ E<3+ E<3+ E<3+ E<3+ E<3+ E<3+ E<3+ E<3+ E<3+ E<3+ E<3+ E<3+ E<3+ E<3+ E<3+ E<3+ E<3+ E<3+ E<3+ E<3+ E<3+ E<3+ E<3+ E<3+ E<3+ E<3+ E<3+ E<3+ E<3+ E<3+ E<3+ E<3+ E<3+ E<3+ E<3+ E<3+ E<3+ E<3+ E<3+ E<3+ E<3+ E<3+ E<3+ E<3+ E<3+ E<3+ E<3+ E<3+ E<3+ E<3+ E<3+ E<3+ E<3+ E<3+ E<3+ E<3+ E<3+ E<3+ E<3+ E<3+ E<3+ E<3+ E<3+ E<3+ E<3+ E<3+ E<3+ E<3+ E<3+ E<3+ E<3+ E<3+ E<3+ E<3+ E<3+ E<3+ E<3+ E<3+ E<3+ E<3+ E<3+ E<3+ E<3+ E<3+ E<3+ E<3+ E<3+ E<3+ E<3+ E<3+ E<3+ E<3+ E<3+ E<3+ E<3+ E<3+ E<3+ E<3+ E<3+ E<3+ E<3+ E<3+ E<3+ E<3+ E<3+ E<3+ E<3+ E<3+ E<3+ E<3+ E<3+ E<3+ E<3+ E<3+ E<3+ E<3+ E<3+ E<3+ E<3+ E<3+ E<3+ E<3+ E<3+ E<3+ E<3+ E<3+ E<3+ E<3+ E<3+ E<3+ E<3+ E<3+ E<3+ E<3+ E<3+ E<3+ E<3+ E<3+ E<3+ E<3+ E<3+ E<3+ E<3+ E<3+ E<3+ E<3+ E<3+ E<3+ E<3+ E<3+ E<3+ E<3+ E<3+ E<3+ E<3+ E<3+ E<3+ E<3+ E<3+ E<3+ E<3+ E<3+ E<3+ E<3+ E<3+ E<3+ E<3+ E<3+ E<3+ E<3+ E<3+ E<3+ E<3+ E<3+ E<3+ E<3+ E<3+ E<3+ E<3+ E<3+ E<3+ E<3+ E<3+ E<3+ E<3+ E<3+ E<3+ E<3+ E<3+ E<3+ E<3+ E<3+ E<3+ E<3+ E<3+ E<3+ E<3+ E<3+ E<3+ E<3+ E<3+ E<3+ E<3+ E<3+ E<3+ E<3+ E<3+ E<3+ E<3+ E<3+ E<3+ E<3+ E<3+ E<3+ E<3+ E<3+ E<3+ E<3+ E<3+ E<3+ E<3+ E<3+ E<3+ E<3+ E<3+ E<3+ E<3+ E<3+ E<3+ E<3+ E<3+ E<3+ E<3+ E<3+ E<3+ E<3+ E<3+ E<3+ E<3+ E<3+ E<3+ E<3+ E<3+ E<3+ E<3+ E<3+ E<3+ E<3+ E<3+ E<3+ E<3+ E<3+ E<3+ E<3+ E<3+ E<3+ E<3+ E<3+ E<3+ E<3+ E<3+ E<3+ E<3+ E<3+ E<3+ E<3+ E<3+ E<3+ E<3+ E<3+ E<3+ E<3+ E<3+ E<3+ E<3+ E<3+ E<3+ E<3+ E<3+ E<3+ E<3+ E<3+ E<3+ E<3+ E<3+ E<3+ E<3+ E<3+ E<3+ E<3+ E<3+ E<3+ E<3+ E<3+ E<3+ E<3+ E<3+ E<3+ E<3+ E<3+ E<3+ E<3+ E<3+ E<3+ E<3+ E<3+ E<3+ E<3+ E<3+ E<3+ E<3+ E<3+ E<3+ E<3+ E<3+ E<3+ E<3+ E<3+ E<3+ E<3+ E<3+ E<3+ E<3+ E<3+ E<3+ E<3+ E<3+ E<3+ E<3+ E<3+ E<3+ E<3+ E<3+ E<3+ E<3+ E<3+ E<3+ E<3+ E<3+ E<3+ E<3+ E<3+ E<3+ E<3+ E<3+ E<3+ E<3+ E<3+ E<3+ E<3+ E<3+ E<3+ E<3+ E<3+ E<3+ E<3+ E<3+ E<3+ E<3+ E<3+ E<3+ E<3+ E<3+ E<3+ E<3+ E<3+ E<3+ E<3+ E<3+ E<3+ E<3+ E<3+ E<3+ E<3+ E<3+ E<3+ E<3+ E<3+ E<3+ E<3+ E<3+ E<3+ E<3+ E<3+ E<3+ E<3+ E<3+ E<3+ E<3+ E<3+ E<3+ E<3+ E<3+ E<3+ E<3+ E<3+ E<3+ E<3+ E<3+ E<3+ E<3+ E<3+ E<3+ E<3+ E<3+ E<3+ E<3+ E<3+ E<3+ E<3+ E<3+ E<3+ E<3+ E<3+ E<3+ E<3+ E<3+ E<3+ E<3+ E<3+ E<3+ E<3+ E<3+ E<3+ E<3+ E<3+ E<3+ E<3+ E<3+ E<3+ E<3+ E<3+ E<3+ E<3+ E<3+ E<3+ E<3+ E<3+ E<3+ E<3+ E<3+ E<3+ E<3+ E<3+ E<3+ E<3+ E<3+ E<3+ E<3+ E<3+ E<3+ E<3+ E<3+ E<3+ E<3+ E<3+ E<3+ E<3+ E<3+ E<3+ E<3+ E<3+ E<3+ E<3+ E<3+ E<3+ E<3+ E<3+ E<3+ E<3+ E<3+ E<3+ E<3+ E<3+ E<3+ E<3+ E<3+ E<3+ E<3+ E<3+ E<3+ E<3+ E<3+ E<3+ E<3+ E<3+ E<3+ E<3+ E<3+ E<3+ E<3+ E<3+ E<3+ E<3+ E<3+ E<3+ E<3+ E<3+ E<3+ E<3+ E<3+ E<3+ E<3+ E<3+ E<3+ E<3+ E<3+ E<3+ E<3+ E<3+ E<3+ E<3+ E<3+ E<3+ E<3+ E<3+ E<3+ E<3+ E<3+ E<3+ E<3+ E<3+ E<3+ E<3+ E<3+ E<3+ E<3+ E<3+ E<3+ E<3+ E<3+ E<3+ E<3+ E<3+ E<3+ E<3+ E<3+ E<3+ E<3+ E<3+ E<3+ E<3+ E<3+ E<3+ E<3+ E<3+ E<3+ E<3+ E<3+ E<3+ E<3+ E<3+ E<3+ E<3+ E<3+ E<3+ E<3+ E<3+ E<3+ E<3+ E<3+ E<3+ E<3+ E<3+ E<3+ E<3+ E<3+ E<3+ E<3+ E<3+ E<3+ E<3+ E<3+ E<3+ E<3+ E<3+ E<3+ E<3+ E<3+ E<3+ E<3+ E<3+ E<3+ E<3+ E<3+ E<3+ E<3+ E<3+ E<3+ E<3+ E<3+ E<3+ E<3+ E<3+ E<3+ E<3+ E<3+ E<3+ E<3+ E<3+ E<3+ E<3+ E<3+ E<3+ E<3+ E<3+ E<3+ E<3+ E<3+ E<3+ E<3+ E<3+ E<3+ E<3+ E<3+ E<3+ E<3+ E<3+ E<3+ E<3+ E<3+ E<3+ E<3+ E<3+ E<3+ E<3+ E<3+ E<3+ E<3+ E<3+ E<3+ E<3+ E<3+ E<3+ E<3+ E<3+ E<3+ E<3+ E<3+ E<3+ E<3+ E<3+ E<3+ E<3+ E<3+ E<3+ E<3+ E<3+ E<3+ E<3+ E<3+ E<3+ E<3+ E<3+ E<3+ E<3+ E<3+ E<3+ E<3+ E<3+ E<3+ E<3+ E<3+ E<3+ E<3+ E<3+ E<3+ E<3+ E<3+ E<3+ E<3+ E<3+ E<3+ E<3+ E<3+ E<3+ E<3+ E<3+ E<3+ E<3+ E<3+ E<3+ E<3+ E<3+ E<3+ E<3+ E<3+ E<3+ E<3+ E<3+ E<3+ E<3+ E<3+ E<3+ E<3+ E<3+ E<3+ E<3+ E<3+ E<3+ E<3+ E<3+ E<3+ E<3+ E<3+ E<3+ E<3+ E<3+ E<3+ E<3+ E<3+ E<3+ E<3+ E<3+ E<3+ E<3+ E<3+ E<3+ E<3+ E<3+ E<3+ E<3+ E<3+ E<3+ E<3+ E<3+ E<3+ E<3+ E<3+ E<3+ E<3+ E<3+ E<3+ E<3+ E<3+ E<3+ E<3+ E<3+ E<3+ E<3+ E<3+ E<3+ E<3+ E<3+ E<3+ E<3+ E<3+ E<3+ E<3+ E<3+ E<3+ E<3+ E<3+ E<3+ E<3+ E<3+ E<3+ E<3+ E<3+ E<3+ E<3+ E<3+ E<3+ E<3+ E<3+ E<3+ E<3+ E<3+ E<3+ E<3+ E<3+ E<3+ E<3+ E<3+ E<3+ E<3+ E<3+ E<3+ E<3+ E<3+ E<3+ E<3+ E<3+ E<3+ E<3+ E<3+ E<3+ E<3+ E<3+ E<3+ E<3+ E<3+ E<3+ E<3+ E<3+ E<3+ E<3+ E<3+ E<3+ E<3+ E<3+ E<3+ E<3+ E<3+ E<3+ E<3+ E<3+ E<3+ E<3+ E<3+ E<3+ E<3+ E<3+ E<3+ E<3+ E<3+ E<3+ E<3+ E<3+ E<3+ E<3+ E<3+ E<3+ E<3+ E<3+ E<3+ E<3+ E<3+ E<3+ E<3+ E<3+ E<3+ E<3+ E<3+ E<3+ E<3+ E<3+ E<3+ E<3+ E<3+ E<3+ E<3+ E<3+ E<3+ E<3+ E<3+ E<3+ E<3+ E<3+ E<3+ E<3+ E<3+ E<3+ E<3+ E<3+ E<3+ E<3+ E<3+ E<3+ E<3+ E<3+ E<3+ E<3+ E<3+ E<3+ E<3+ E<3+ E<3+ E<3+ E<3+ E<3+ E<3+ E<3+ E<3+ E<3+ E<3+ E<3+ E<3+ E<3+ E<3+ E<3+ E<3+ E<3+ E<3+ E<3+ E<3+ E<3+ E<3+ E<3+ E<3+ E<3+ E<3+ E<3+ E<3+ E<3+ E<3+ E<3+ E<3+ E<3+ E<3+ E<3+ E<3+ E<3+ E<3+ E<3+ E<3+ E<3+ E<3+ E<3+ E<3+ E<3+ E<3+ E<3+ E<3+ E<3+ E<3+ E<3+ E<3+ E<3+ E<3+ E<3+ E<3+ E<3+ E<3+ E<3+ E<3+ E<3+ E<3+ E<3+ E<3+ E<3+ E<3+ E<3+ E<3+ E<3+ E<3+ E<3+ E<3+ E<3+ E<3+ E<3+ E<3+ E<3+ E<3+ E<3+ E<3+ E<3+ E<3+ E<3+ E<3+ E<3+ E<3+ E<3+ E<3+ E<3+ E<3+ E<3+ E<3+ E<3+ E<3+ E<3+ E<3+ E<3+ E<3+ E<3+ E<3+ E<3+ E<3+ E<3+ E<3+ E<3+ E<3+ E<3+ E<3+ E<3+ E<3+ E<3+ E<3+ E<3+ E<3+ E<3+ E<3+ E<3+ E<3+ E<3+ E<3+ E<3+ E<3+ E<3+ E<3+ E<3+ E<3+ E<3+ E<3+ E<3+ E<3+ E<3+ E<3+ E<3+ E<3+ E<3+ E<3+ E<3+ E<3+ E<3+ E<3+ E<3+ E<3+ E<3+ E<3+ E<3+ E<3+ E<3+ E<3+ E<3+ E<3+ E<3+ E<3+ E<3+ E<3+ E<3+ E<3+ E<3+ E<3+ E<3+ E<3+ E<3+ E<3+ E<3+ E<3+ E<3+ E<3+ E<3+ E<3+ E<3+ E<3+ E<3+ E<3+ E<3+ E<3+ E<3+ E<3+ E<3+ E<3+ E<3+ E<3+ E<3+ E<3+ E<3+ E<3+ E<3+ E<3+ E<3+ E<3+ E<3+ E<3+ E<3+ E<3+ E<3+ E<3+ E<3+ E<3+ E<3+ E<3+ E<3+ E<3+ E<3+ E<3+ E<3+ E<3+ E<3+ E<3+ E<3+ E<3+ E<3+ E<3+ E<3+ E<3+ E<3+ E<3+ E<3+ E<3+ E<3+ E<3+ E<3+ E<3+ E<3+ E<3+ E<3+ E<3+ E<3+ E<3+ E<3+ E<3+ E<3+ E<3+ E<3+ E<3+ E<3+ E<3+ E<3+ E<3+ E<3+ E<3+ E<3+ E<3+ E<3+ E<3+ E<3+ E<3+ E<3+ E<3+ E<3+ E<3+ E<3+ E<3+ E<3+ E<3+ E<3+ E<3+ E<3+ E<3+ E<3+ E<3+ E<3+ E<3+ E<3+ E<3+ E<3+ E<3+ E<3+ E<3+ E<3+ E<3+ E<3+ E<3+ E<3+ E<3+ E<3+ E<3+ E<3+ E<3+ E<3+ E<3+ E<3+ E<3+ E<3+ E<3+ E<3+ E<3+ E<3+ E<3+ E<3+ E<3+ E<3+ <3+ <3+ <3+ <3+ <3+ <3+ H<3+ H<3+ H<3+ H<3+ H<3+ H<3+ H<3+ H<3+ H<3+ H<3+ H<3+ H<3+ H<3+ H<3+ H<3+ H<3+ H<3+ H<3+ H<3+ H<3+ H<3+ H<3+ H<3+ H<3+ H<3+ H<3+ H<3+ H<3+ H<3+ H<3+ H<3+ H<3+ H<3+ H<3+ H<3+ H<3+ H<3+ H<3+ H<3+ H<3+ H<3+ H<3+ H<3+ H<3+ H<3+ H<3+ H<3+ H<3+ H<3+ H<3+ H<3+ H<3+ H<3+ H<3+ H<3+ H<3+ H<3+ H<3+ H<3+ H<3+ H<3+ H<3+ H<3+ H<3+ H<3+ H<3+ H<3+ H<3+ H<3+ H<3+ H<3+ H<3+ H<3+ H<3+ H<3+ H<3+ H<3+ H<3+ H<3+ H<3+ H<3+ H<3+ H<3+ H<3+ H<3+ H<3+ H<3+ H<3+ H<3+ H<3+ H<3+ H<3+ H<3+ H<3+ H<3+ H<3+ H<3+ H<3+ H<3+ H<3+ H<3+ H<3+ H<3+ H<3+ H<3+ H<3+ H<3+ H<3+ H<3+ H<3+ H<3+ H<3+ H<3+ H<3+ H<3+ H<3+ H<3+ H<3+ H<3+ H<3+ H<3+ H<3+ H<3+ H<3+ H<3+ H<3+ H<3+ H<3+ H<3+ H<3+ H<3+ H<3+ H<3+ H<3+ H<3+ H<3+ H<3+ H<3+ H<3+ H<3+ H<3+ H<3+ H<3+ H<3+ H<3+ H<3+ H<3+ H<3+ H<3+ H<3+ H<3+ H<3+ H<3+ H<3+ H<3+ H<3+ H<3+ H<3+ H<3+ H<3+ H<3+ H<3+ H<3+ H<3+ H<3+ H<3+ H<3+ H<3+ H<3+ H<3+ H<3+ H<3+ H<3+ H<3+ H<3+ H<3+ H<3+ H<3+ H<3+ H<3+ H<3+ H<3+ H<3+ H<3+ H<3+ H<3+ H<3+ H<3+ H<3+ H<3+ H<3+ H<3+ H<3+ H<3+ H<3+ H<3+ H<3+ H<3+ H<3+ H<3+ <3+ <3+ <3+ <3+ <3+ <3+ F<3+ F<3+ F<3+ F<3+ F<3+ F<3+ F<3+ F<3+ F<3+ F<3+ F<3+ F<3+ F<3+ F<3+ F<3+ F<3+ F<3+ F<3+ F<3+ F<3+ F<3+ F<3+ F<3+ F<3+ F<3+ F<3+ F<3+ F<3+ F<3+ F<3+ F<3+ F<3+ F<3+ F<3+ F<3+ F<3+ F<3+ F<3+ F<3+ F<3+ F<3+ F<3+ F<3+ F<3+ F<3+ F<3+ F<3+ F<3+ F<3+ F<3+ F<3+ F<3+ F<3+ F<3+ F<3+ F<3+ F<3+ F<3+ F<3+ F<3+ F<3+ F<3+ F<3+ F<3+ F<3+ F<3+ F<3+ F<3+ F<3+ F<3+ F<3+ F<3+ F<3+ F<3+ F<3+ F<3+ F<3+ F<3+ F<3+ F<3+ F<3+ F<3+ F<3+ F<3+ F<3+ F<3+ F<3+ F<3+ F<3+ F<3+ F<3+ F<3+ F<3+ F<3+ F<3+ F<3+ F<3+ F<3+ F<3+ F<3+ F<3+ F<3+ F<3+ F<3+ F<3+ F<3+ F<3+ F<3+ F<3+ F<3+ F<3+ F<3+ F<3+ F<3+ F<3+ F<3+ F<3+ F<3+ F<3+ F<3+ F<3+ F<3+ F<3+ F<3+ F<3+ F<3+ F<3+ F<3+ F<3+ F<3+ F<3+ F<3+ F<3+ F<3+ F<3+ F<3+ F<3+ F<3+ F<3+ F<3+ F<3+ F<3+ F<3+ F<3+ F<3+ F<3+ F<3+ F<3+ F<3+ F<3+ F<3+ F<3+ F<3+ F<3+ F<3+ F<3+ F<3+ F<3+ F<3+ F<3+ F<3+ F<3+ F<3+ F<3+ F<3+ F<3+ F<3+ F<3+ F<3+ F<3+ F<3+ F<3+ F<3+ F<3+ F<3+ F<3+ F<3+ F<3+ F<3+ F<3+ F<3+ F<3+ F<3+ F<3+ F<3+ F<3+ F<3+ F<3+ F<3+ F<3+ F<3+ F<3+ F<3+ F<3+ F<3+ F<3+ F<3+ F<3+ F<3+ F<3+ <3+ <3+ <3+ <3+ <3+ H<3+ H<3+ H<3+ H<3+ H<3+ H<3+ H<3+ H<3+ H<3+ H<3+ H<3+ H<3+ H<3+ H<3+ H<3+ H<3+ H<3+ H<3+ H<3+ H<3+ H<3+ H<3+ H<3+ H<3+ H<3+ H<3+ H<3+ H<3+ H<3+ H<3+ H<3+ H<3+ H<3+ H<3+ H<3+ H<3+ H<3+ H<3+ H<3+ H<3+ H<3+ H<3+ H<3+ H<3+ H<3+ H<3+ H<3+ H<3+ H<3+ H<3+ H<3+ H<3+ H<3+ H<3+ H<3+ H<3+ H<3+ H<3+ H<3+ H<3+ H<3+ H<3+ H<3+ H<3+ H<3+ H<3+ H<3+ H<3+ H<3+ H<3+ H<3+ H<3+ H<3+ H<3+ H<3+ H<3+ H<3+ H<3+ H<3+ H<3+ H<3+ H<3+ H<3+ H<3+ H<3+ H<3+ H<3+ H<3+ H<3+ H<3+ H<3+ H<3+ H<3+ H<3+ H<3+ H<3+ H<3+ H<3+ H<3+ H<3+ H<3+ H<3+ H<3+ H<3+ H<3+ H<3+ H<3+ H<3+ H<3+ H<3+ H<3+ H<3+ H<3+ H<3+ H<3+ H<3+ H<3+ H<3+ H<3+ H<3+ H<3+ H<3+ H<3+ H<3+ H<3+ H<3+ H<3+ H<3+ H<3+ H<3+ H<3+ H<3+ H<3+ H<3+ H<3+ H<3+ H<3+ H<3+ H<3+ H<3+ H<3+ H<3+ H<3+ H<3+ H<3+ H<3+ H<3+ H<3+ H<3+ H<3+ H<3+ H<3+ H<3+ H<3+ H<3+ H<3+ H<3+ H<3+ H<3+ H<3+ H<3+ H<3+ H<3+ H<3+ H<3+ H<3+ H<3+ H<3+ H<3+ H<3+ H<3+ H<3+ H<3+ H<3+ H<3+ H<3+ H<3+ H<3+ H<3+ H<3+ H<3+ H<3+ H<3+ H<3+ H<3+ H<3+ H<3+ H<3+ H<3+ H<3+ H<3+ H<3+ H<3+ H<3+ H<3+ H<3+ H<3+ H<3+ H<3+ H<3+ H<3+ H<3+ H<3+ H<3+ H<3+ H<3+ H<3+ H<3+ H<3+ H<3+ H<3+ H<3+ H<3+ H<3+ H<3+ H<3+ H<3+ H<3+ H<3+ H<3+ H<3+ H<3+ H<3+ H<3+ H<3+ H<3+ H<3+ H<3+ H<3+ H<3+ H<3+ H<3+ H<3+ H<3+ H<3+ H<3+ H<3+ H<3+ H<3+ H<3+ H<3+ H<3+ H<3+ H<3+ H<3+ H<3+ H<3+ H<3+ H<3+ H<3+ H<3+ H<3+ H<3+ H<3+ H<3+ H<3+ H<3+ H<3+ H<3+ H<3+ H<3+ H<3+ H<3+ H<3+ H<3+ H<3+ H<3+ H<3+ H<3+ H<3+ H<3+ H<3+ H<3+ H<3+ H<3+ H<3+ H<3+ H<3+ H<3+ H<3+ H<3+ H<3+ H<3+ H<3+ H<3+ H<3+ H<3+ H<3+ H<3+ H<3+ H<3+ H<3+ H<3+ H<3+ H<3+ H<3+ H<3+ H<3+ H<3+ H<3+ H<3+ H<3+ H<3+ H<3+ H<3+ H<3+ H<3+ H<3+ H<3+ H<3+ H<3+ H<3+ H<3+ H<3+ H<3+ H<3+ H<3+ H<3+ H<3+ H<3+ H<3+ H<3+ H<3+ H<3+ H<3+ H<3+ H<3+ H<3+ H<3+ H<3+ H<3+ H<3+ H<3+ H<3+ H<3+ H<3+ H<3+ H<3+ H<3+ H<3+ H<3+ H<3+ H<3+ H<3+ H<3+ H<3+ H<3+ H<3+ H<3+ H<3+ H<3+ H<3+ H<3+ H<3+ H<3+ H<3+ H<3+ H<3+ H<3+ H<3+ H<3+ H<3+ H<3+ H<3+ H<3+ H<3+ H<3+ H<3+ H<3+ H<3+ H<3+ H<3+ H<3+ H<3+ H<3+ H<3+ H<3+ H<3+ H<3+ H<3+ H<3+ H<3+ H<3+ H<3+ H<3+ H<3+ H<3+ H<3+ H<3+ H<3+ H<3+ H<3+ H<3+ H<3+ H<3+ H<3+ H<3+ H<3+ H<3+ H<3+ H<3+ H<3+ H<3+ H<3+ H<3+ H<3+ <3+ <3+ <3+ <3+ <3+ <3+ E<3+ E<3+ E<3+ E<3+ E<3+ E<3+ E<3+ E<3+ E<3+ E<3+ E<3+ E<3+ E<3+ E<3+ E<3+ E<3+ E<3+ E<3+ E<3+ E<3+ E<3+ E<3+ E<3+ E<3+ E<3+ E<3+ E<3+ E<3+ E<3+ E<3+ E<3+ E<3+ E<3+ E<3+ E<3+ E<3+ E<3+ E<3+ E<3+ E<3+ E<3+ E<3+ E<3+ E<3+ E<3+ E<3+ E<3+ E<3+ E<3+ E<3+ E<3+ E<3+ E<3+ E<3+ E<3+ E<3+ E<3+ E<3+ E<3+ E<3+ E<3+ E<3+ E<3+ E<3+ E<3+ E<3+ E<3+ E<3+ E<3+ E<3+ E<3+ E<3+ E<3+ E<3+ E<3+ E<3+ E<3+ E<3+ E<3+ E<3+ E<3+ E<3+ E<3+ E<3+ E<3+ E<3+ E<3+ E<3+ E<3+ E<3+ E<3+ E<3+ E<3+ E<3+ E<3+ E<3+ E<3+ E<3+ E<3+ E<3+ E<3+ E<3+ E<3+ E<3+ E<3+ E<3+ E<3+ E<3+ E<3+ E<3+ E<3+ E<3+ E<3+ E<3+ E<3+ E<3+ E<3+ E<3+ E<3+ E<3+ E<3+ E<3+ E<3+ E<3+ E<3+ E<3+ E<3+ E<3+ E<3+ E<3+ E<3+ E<3+ E<3+ E<3+ E<3+ E<3+ E<3+ E<3+ E<3+ E<3+ E<3+ E<3+ E<3+ E<3+ E<3+ E<3+ E<3+ E<3+ E<3+ E<3+ E<3+ E<3+ E<3+ E<3+ E<3+ E<3+ E<3+ E<3+ E<3+ E<3+ E<3+ E<3+ E<3+ E<3+ E<3+ E<3+ E<3+ E<3+ E<3+ E<3+ E<3+ E<3+ E<3+ E<3+ E<3+ E<3+ E<3+ E<3+ E<3+ E<3+ E<3+ E<3+ E<3+ E<3+ E<3+ E<3+ E<3+ E<3+ E<3+ E<3+ E<3+ E<3+ E<3+ E<3+ E<3+ E<3+ E<3+ E<3+ E<3+ E<3+ E<3+ E<3+ E<3+ E<3+ E<3+ E<3+ E<3+ E<3+ E<3+ E<3+ E<3+ E<3+ E<3+ E<3+ E<3+ E<3+ E<3+ E<3+ E<3+ E<3+ E<3+ E<3+ E<3+ E<3+ E<3+ E<3+ E<3+ E<3+ E<3+ E<3+ E<3+ E<3+ E<3+ E<3+ E<3+ E<3+ E<3+ E<3+ E<3+ E<3+ E<3+ E<3+ E<3+ E<3+ E<3+ E<3+ E<3+ E<3+ E<3+ E<3+ E<3+ E<3+ E<3+ E<3+ E<3+ E<3+ E<3+ E<3+ E<3+ E<3+ E<3+ E<3+ E<3+ E<3+ E<3+ E<3+ E<3+ E<3+ E<3+ E<3+ E<3+ E<3+ E<3+ E<3+ E<3+ E<3+ E<3+ E<3+ E<3+ E<3+ E<3+ E<3+ E<3+ E<3+ E<3+ E<3+ E<3+ E<3+ E<3+ E<3+ E<3+ E<3+ E<3+ E<3+ E<3+ E<3+ E<3+ E<3+ E<3+ E<3+ E<3+ E<3+ E<3+ E<3+ E<3+ E<3+ E<3+ E<3+ E<3+ E<3+ E<3+ E<3+ E<3+ E<3+ E<3+ E<3+ E<3+ E<3+ E<3+ E<3+ E<3+ E<3+ E<3+ E<3+ E<3+ E<3+ E<3+ E<3+ E<3+ E<3+ E<3+ E<3+ E<3+ E<3+ E<3+ E<3+ E<3+ E<3+ E<3+ E<3+ E<3+ E<3+ E<3+ E<3+ E<3+ E<3+ E<3+ E<3+ E<3+ E<3+ E<3+ E<3+ E<3+ E<3+ E<3+ E<3+ E<3+ E<3+ E<3+ E<3+ E<3+ E<3+ E<3+ E<3+ E<3+ E<3+ E<3+ E<3+ E<3+ E<3+ E<3+ E<3+ E<3+ E<3+ E<3+ E<3+ E<3+ E<3+ E<3+ E<3+ E<3+ E<3+ E<3+ E<3+ E<3+ E<3+ E<3+ E<3+ E<3+ E<3+ E<3+ E<3+ E<3+ E<3+ E<3+ E<3+ E<3+ E<3+ E<3+ E<3+ E<3+ E<3+ E<3+ E<3+ E<3+ E<3+ 3+ 3+ 3+ 3+ 3+ B39<+ B39<+ B39<+ B39<+ B39<+ B39<+ B39<+ B39<+ B39<+ B39<+ B39<+ B39<+ B39<+ B39<+ B39<+ B39<+ B39<+ B39<+ B39<+ B39<+ B39<+ B39<+ B39<+ B39<+ B39<+ B39<+ B39<+ B39<+ B39<+ B39<+ B39<+ B39<+ B39<+ B39<+ B39<+ B39<+ B39<+ B39<+ B39<+ B39<+ B39<+ B39<+ B39<+ B39<+ B39<+ B39<+ B39<+ B39<+ B39<+ B39<+ B39<+ B39<+ B39<+ B39<+ B39<+ B39<+ B39<+ B39<+ B39<+ B39<+ B39<+ B39<+ B39<+ B39<+ B39<+ B39<+ B39<+ B39<+ B39<+ B39<+ B39<+ B39<+ B39<+ B39<+ B39<+ B39<+ B39<+ B39<+ B39<+ B39<+ B39<+ B39<+ B39<+ B39<+ B39<+ B39<+ B39<+ B39<+ B39<+ B39<+ B39<+ B39<+ B39<+ B39<+ B39<+ B39<+ B39<+ B39<+ B39<+ B39<+ B39<+ B39<+ B39<+ B39<+ B39<+ B39<+ B39<+ B39<+ B39<+ B39<+ B39<+ B39<+ B39<+ B39<+ B39<+ B39<+ B39<+ B39<+ B39<+ B39<+ B39<+ B39<+ B39<+ B39<+ B39<+ B39<+ B39<+ B39<+ B39<+ B39<+ B39<+ B39<+ B39<+ B39<+ B39<+ B39<+ B39<+ B39<+ B39<+ B39<+ B39<+ B39<+ B39<+ B39<+ B39<+ B39<+ B39<+ B39<+ B39<+ B39<+ B39<+ B39<+ B39<+ B39<+ B39<+ B39<+ B39<+ B39<+ B39<+ B39<+ B39<+ B39<+ B39<+ B39<+ B39<+ B39<+ B39<+ B39<+ B39<+ B39<+ B39<+ B39<+ B39<+ B39<+ B39<+ B39<+ B39<+ B39<+ B39<+ B39<+ B39<+ B39<+ B39<+ B39<+ B39<+ B39<+ B39<+ B39<+ B39<+ B39<+ B39<+ B39<+ B39<+ B39<+ B39<+ B39<+ B39<+ B39<+ B39<+ B39<+ B39<+ B39<+ B39<+ B39<+ B39<+ B39<+ B39<+ B39<+ B39<+ B39<+ B39<+ B39<+ B39<+ B39<+ B39<+ B39<+ B39<+ B39<+ B39<+ B39<+ B39<+ B39<+ B39<+ B39<+ B39<+ B39<+ B39<+ B39<+ B39<+ B39<+ B39<+ B39<+ B39<+ B39<+ B39<+ B39<+ B39<+ B39<+ B39<+ B39<+ B39<+ B39<+ B39<+ B39<+ B39<+ B39<+ B39<+ B39<+ B39<+ B39<+ B39<+ B39<+ B39<+ B39<+ B39<+ B39<+ B39<+ B39<+ B39<+ B39<+ B39<+ B39<+ B39<+ B39<+ B39<+ B39<+ B39<+ B39<+ B39<+ B39<+ B39<+ B39<+ B39<+ B39<+ B39<+ B39<+ B39<+ B39<+ B39<+ B39<+ B39<+ B39<+ B39<+ B39<+ B39<+ B39<+ B39<+ B39<+ B39<+ B39<+ B39<+ B39<+ B39<+ B39<+ B39<+ B39<+ B39<+ B39<+ B39<+ B39<+ B39<+ B39<+ B39<+ B39<+ B39<+ B39<+ B39<+ B39<+ B39<+ B39<+ B39<+ B39<+ B39<+ B39<+ B39<+ B39<+ B39<+ B39<+ B39<+ B39<+ B39<+ B39<+ B39<+ B39<+ B39<+ B39<+ B39<+ B39<+ B39<+ B39<+ B39<+ B39<+ B39<+ B39<+ B39<+ B39<+ B39<+ B39<+ B39<+ B39<+ B39<+ B39<+ B39<+ B39<+ B39<+ B39<+ B39<+ B39<+ B39<+ B39<+ B39<+ B39<+ B39<+ B39<+ B39<+ B39<+ B39<+ B39<+ B39<+ B39<+ B39<+ B39<+ B39<+ B39<+ B39<+ B39<+ B39<+ B39<+ B39<+ B39<+ B39<+ B39<+ B39<+ B39<+ B39<+ B39<+ B39<+ B39<+ B39<+ B39<+ B39<+ B39<+ B39<+ B39<+ B39<+ B39<+ B39<+ B39<+ B39<+ B39<+ B39<+ B39<+ B39<+ B39<+ B39<+ B39<+ B39<+ B39<+ B39<+ B39<+ B39<+ B39<+ B39<+ B39<+ B39<+ B39<+ B39<+ B39<+ B39<+ B39<+ B39<+ B39<+ B39<+ B39<+ B39<+ B39<+ B39<+ B39<+ B39<+ B39<+ B39<+ B39<+ B39<+ B39<+ B39<+ B39<+ B39<+ B39<+ B39<+ B39<+ B39<+ B39<+ B39<+ B39<+ B39<+ B39<+ B39<+ B39<+ B39<+ B39<+ B39<+ B39<+ B39<+ B39<+ B39<+ B39<+ B39<+ B39<+ B39<+ B39<+ B39<+ B39<+ B39<+ B39<+ B39<+ B39<+ B39<+ B39<+ B39<+ B39<+ B39<+ B39<+ B39<+ B39<+ B39<+ B39<+ B39<+ B39<+ B39<+ B39<+ B39<+ B39<+ B39<+ B39<+ B39<+ B39<+ B39<+ B39<+ B39<+ B39<+ B39<+ B39<+ B39<+ B39<+ B39<+ B39<+ B39<+ B39<+ B39<+ B39<+ B39<+ B39<+ B39<+ B39<+ B39<+ B39<+ B39<+ B39<+ B39<+ B39<+ B39<+ B39<+ B39<+ B39<+ B39<+ B39<+ B39<+ B39<+ B39<+ B39<+ B39<+ B39<+ B39<+ B39<+ B39<+ B39<+ B39<+ B39<+ B39<+ B39<+ B39<+ B39<+ B39<+ B39<+ B39<+ B39<+ B39<+ B39<+ B39<+ B39<+ B39<+ B39<+ B39<+ B39<+ B39<+ B39<+ B39<+ B39<+ B39<+ B39<+ B39<+ B39<+ B39<+ B39<+ B39<+ B39<+ B39<+ B39<+ B39<+ B39<+ B39<+ B39<+ B39<+ B39<+ B39<+ B39<+ B39<+ B39<+ B39<+ B39<+ B39<+ B39<+ B39<+ B39<+ B39<+ B39<+ B39<+ B39<+ B39<+ B39<+ B39<+ B39<+ B39<+ B39<+ B39<+ B39<+ B39<+ B39<+ B39<+ B39<+ B39<+ B39<+ B39<+ B39<+ B39<+ B39<+ B39<+ B39<+ B39<+ B39<+ B39<+ B39<+ B39<+ B39<+ B39<+ B39<+ B39<+ B39<+ B39<+ B39<+ B39<+ B39<+ B39<+ B39<+ B39<+ B39<+ B39<+ B39<+ B39<+ B39<+ B39<+ B39<+ B39<+ B39<+ B39<+ B39<+ B39<+ B39<+ B39<+ B39<+ B39<+ B39<+ B39<+ B39<+ B39<+ B39<+ B39<+ B39<+ B39<+ B39<+ B39<+ B39<+ B39<+ B39<+ B39<+ B39<+ B39<+ B39<+ B39<+ B39<+ B39<+ B39<+ B39<+ B39<+ B39<+ B39<+ B39<+ B39<+ B39<+ B39<+ B39<+ B39<+ B39<+ B39<+ B39<+ B39<+ B39<+ B39<+ B39<+ B39<+ B39<+ B39<+ B39<+ B39<+ B39<+ B39<+ B39<+ B39<+ B39<+ B39<+ B39<+ B39<+ B39<+ B39<+ B39<+ B39<+ B39<+ B39<+ B39<+ B39<+ B39<+ B39<+ B39<+ B39<+ B39<+ B39<+ B39<+ B39<+ B39<+ B39<+ B39<+ B39<+ B39<+ B39<+ B39<+ B39<+ B39<+ B39<+ B39<+ B39<+ B39<+ B39<+ B39<+ B39<+ B39<+ B39<+ B39<+ B39<+ B39<+ B39<+ B39<+ B39<+ B39<+ B39<+ B39<+ B39<+ B39<+ B39<+ B39<+ B39<+ B39<+ B39<+ B39<+ B39<+ B39<+ B39<+ B39<+ B39<+ B39<+ B39<+ B39<+ B39<+ B39<+ B39<+ B39<+ B39<+ B39<+ B39<+ B39<+ B39<+ B39<+ B39<+ B39<+ B39<+ B39<+ B39<+ B39<+ B39<+ B39<+ B39<+ B39<+ B39<+ B39<+ B39<+ B39<+ B39<+ B39<+ B39<+ B39<+ B39<+ B39<+ B39<+ B39<+ B39<+ B39<+ B39<+ B39<+ B39<+ B39<+ B39<+ B39<+ B39<+ B39<+ B39<+ B39<+ B39<+ B39<+ B39<+ B39<+ B39<+ B39<+ B39<+ B39<+ B39<+ B39<+ B39<+ B39<+ B39<+ B39<+ B39<+ B39<+ B39<+ B39<+ B39<+ B39<+ B39<+ B39<+ B39<+ B39<+ B39<+ B39<+ B39<+ B39<+ B39<+ B39<+ B39<+ B39<+ B39<+ B39<+ B39<+ B39<+ B39<+ B39<+ B39<+ B39<+ B39<+ B39<+ B39<+ B39<+ B39<+ B39<+ B39<+ B39<+ B39<+ B39<+ B39<+ B39<+ B39<+ B39<+ B39<+ B39<+ B39<+ B39<+ B39<+ B39<+ B39<+ B39<+ B39<+ B39<+ B39<+ B39<+ B39<+ B39<+ B39<+ B39<+ B39<+ B39<+ B39<+ B39<+ B39<+ B39<+ B39<+ B39<+ B39<+ B39<+ B39<+ B39<+ B39<+ B39<+ B39<+ B39<+ B39<+ B39<+ B39<+ B39<+ B39<+ B39<+ B39<+ B39<+ B39<+ B39<+ B39<+ B39<+ B39<+ B39<+ B39<+ B39<+ B39<+ B39<+ B39<+ B39<+ B39<+ B39<+ B39<+ B39<+ B39<+ B39<+ B39<+ B39<+ B39<+ B39<+ B39<+ B39<+ B39<+ B39<+ B39<+ B39<+ B39<+ B39<+ B39<+ B39<+ B39<+ B39<+ B39<+ B39<+ B39<+ B39<+ B39<+ B39<+ B39<+ B39<+ B39<+ B39<+ B39<+ B39<+ B39<+ B39<+ B39<+ B39<+ B39<+ B39<+ B39<+ B39<+ B39<+ B39<+ B39<+ B39<+ B39<+ B39<+ B39<+ B39<+ B39<+ B39<+ B39<+ B39<+ B39<+ B39<+ B39<+ B39<+ B39<+ B39<+ B39<+ B39<+ B39<+ B39<+ B39<+ B39<+ B39<+ B39<+ B39<+ B39<+ B39<+ B39<+ B39<+ B39<+ B39<+ B39<+ B39<+ B39<+ B39<+ B39<+ B39<+ B39<+ B39<+ B39<+ B39<+ B39<+ B39<+ B39<+ B39<+ B39<+ B39<+ B39<+ B39<+ B39<+ B39<+ B39<+ B39<+ B39<+ B39<+ B39<+ B39<+ B39<+ B39<+ B39<+ B39<+ B39<+ B39<+ B39<+ B39<+ B39<+ B39<+ B39<+ B39<+ B39<+ B39<+ B39<+ B39<+ B39<+ B39<+ B39<+ B39<+ B39<+ B39<+ B39<+ B39<+ B39<+ B39<+ B39<+ B39<+ B39<+ B39<+ B39<+ B39<+ B39<+ B39<+ B39<+ B39<+ B39<+ B39<+ B39<+ B39<+ B39<+ B39<+ B39<+ B39<+ B39<+ B39<+ B39<+ B39<+ B39<+ B39<+ B39<+ B39<+ B39<+ B39<+ B39<+ B39<+ B39<+ B39<+ B39<+ B39<+ B39<+ B39<+ B39<+ B39<+ B39<+ B39<+ B39<+ B39<+ B39<+ B39<+ B39<+ B39<+ B39<+ B39<+ B39<+ B39<+ B39<+ B39<+ B39<+ B39<+ B39<+ B39<+ B39<+ B39<+ B39<+ B39<+ B39<+ B39<+ B39<+ B39<+ B39<+ B39<+ B39<+ B39<+ B39<+ B39<+ B39<+ B39<+ B39<+ B39<+ B39<+ B39<+ B39<+ B39<+ B39<+ B39<+ B39<+ B39<+ B39<+ B39<+ B39<+ B39<+ B39<+ B39<+ B39<+ B39<+ B39<+ B39<+ B39<+ B39<+ B39<+ B39<+ B39<+ B39<+ B39<+ B39<+ B39<+ B39<+ B39<+ B39<+ B39<+ B39<+ B39<+ B39<+ B39<+ B39<+ B39<+ B39<+ B39<+ B39<+ B39<+ B39<+ B39<+ B39<+ B39<+ B39<+ B39<+ B39<+ B39<+ B39<+ B39<+ B39<+ B39<+ B39<+ B39<+ B39<+ B39<+ B39<+ B39<+ B39<+ B39<+ B39<+ B39<+ B39<+ B39<+ B39<+ B39<+ B39<+ B39<+ B39<+ B39<+ B39<+ B39<+ B39<+ B39<+ B39<+ B39<+ B39<+ B39<+ B39<+ B39<+ B39<+ B39<+ B39<+ B39<+ B39<+ B39<+ B39<+ B39<+ B39<+ B39<+ B39<+ B39<+ B39<+ B39<+ B39<+ B39<+ B39<+ B39<+ B39<+ B39<+ B39<+ B39<+ B39<+ B39<+ B39<+ B39<+ B39<+ B39<+ B39<+ B39<+ B39<+ B39<+ B39<+ B39<+ B39<+ B39<+ B39<+ B39<+ B39<+ B39<+ B39<+ B39<+ B39<+ B39<+ B39<+ B39<+ B39<+ B39<+ B39<+ B39<+ B39<+ B39<+ B39<+ B39<+ B39<+ B39<+ B39<+ B39<+ B39<+ B39<+ B39<+ B39<+ B39<+ B39<+ 39<+ 39<+ 39<+ 39<+ 39<+ 39<+ E39<+ E39<+ E39<+ E39<+ E39<+ E39<+ E39<+ E39<+ E39<+ E39<+ E39<+ E39<+ E39<+ E39<+ E39<+ E39<+ E39<+ E39<+ E39<+ E39<+ E39<+ E39<+ E39<+ E39<+ E39<+ E39<+ E39<+ E39<+ E39<+ E39<+ E39<+ E39<+ E39<+ E39<+ E39<+ E39<+ E39<+ E39<+ E39<+ E39<+ E39<+ E39<+ E39<+ E39<+ E39<+ E39<+ E39<+ E39<+ E39<+ E39<+ E39<+ E39<+ E39<+ E39<+ E39<+ E39<+ E39<+ E39<+ E39<+ E39<+ E39<+ E39<+ E39<+ E39<+ E39<+ E39<+ E39<+ E39<+ E39<+ E39<+ E39<+ E39<+ E39<+ E39<+ E39<+ E39<+ E39<+ E39<+ E39<+ E39<+ E39<+ E39<+ E39<+ E39<+ E39<+ E39<+ E39<+ E39<+ E39<+ E39<+ E39<+ E39<+ E39<+ E39<+ E39<+ E39<+ E39<+ E39<+ E39<+ E39<+ E39<+ E39<+ E39<+ E39<+ E39<+ E39<+ E39<+ E39<+ E39<+ E39<+ E39<+ E39<+ E39<+ E39<+ E39<+ E39<+ E39<+ E39<+ E39<+ E39<+ E39<+ E39<+ E39<+ E39<+ E39<+ E39<+ E39<+ E39<+ E39<+ E39<+ E39<+ E39<+ E39<+ E39<+ E39<+ E39<+ E39<+ E39<+ E39<+ E39<+ E39<+ E39<+ E39<+ E39<+ E39<+ E39<+ E39<+ E39<+ E39<+ E39<+ E39<+ E39<+ E39<+ E39<+ E39<+ E39<+ E39<+ E39<+ E39<+ E39<+ E39<+ E39<+ E39<+ E39<+ E39<+ E39<+ E39<+ E39<+ E39<+ E39<+ E39<+ E39<+ E39<+ E39<+ E39<+ E39<+ E39<+ E39<+ E39<+ E39<+ E39<+ E39<+ E39<+ E39<+ E39<+ E39<+ E39<+ E39<+ E39<+ E39<+ E39<+ E39<+ E39<+ E39<+ E39<+ E39<+ E39<+ E39<+ E39<+ E39<+ 39<+ 39<+ 39<+ 39<+ 39<+ 39<+ C39<+ C39<+ C39<+ C39<+ C39<+ C39<+ C39<+ C39<+ C39<+ C39<+ C39<+ C39<+ C39<+ C39<+ C39<+ C39<+ C39<+ C39<+ C39<+ C39<+ C39<+ C39<+ C39<+ C39<+ C39<+ C39<+ C39<+ C39<+ C39<+ C39<+ C39<+ C39<+ C39<+ C39<+ C39<+ C39<+ C39<+ C39<+ C39<+ C39<+ C39<+ C39<+ C39<+ C39<+ C39<+ C39<+ C39<+ C39<+ C39<+ C39<+ C39<+ C39<+ C39<+ C39<+ C39<+ C39<+ C39<+ C39<+ C39<+ C39<+ C39<+ C39<+ C39<+ C39<+ C39<+ C39<+ C39<+ C39<+ C39<+ C39<+ C39<+ C39<+ C39<+ C39<+ C39<+ C39<+ C39<+ C39<+ C39<+ C39<+ C39<+ C39<+ C39<+ C39<+ C39<+ C39<+ C39<+ C39<+ C39<+ C39<+ C39<+ C39<+ C39<+ C39<+ C39<+ C39<+ C39<+ C39<+ C39<+ C39<+ C39<+ C39<+ C39<+ C39<+ C39<+ C39<+ C39<+ C39<+ C39<+ C39<+ C39<+ C39<+ C39<+ C39<+ C39<+ C39<+ C39<+ C39<+ C39<+ C39<+ C39<+ C39<+ C39<+ C39<+ C39<+ C39<+ C39<+ C39<+ C39<+ C39<+ C39<+ C39<+ C39<+ C39<+ C39<+ C39<+ C39<+ C39<+ C39<+ C39<+ C39<+ C39<+ C39<+ C39<+ C39<+ C39<+ C39<+ C39<+ C39<+ C39<+ C39<+ C39<+ C39<+ C39<+ C39<+ C39<+ C39<+ C39<+ C39<+ C39<+ C39<+ C39<+ C39<+ C39<+ C39<+ C39<+ C39<+ C39<+ C39<+ C39<+ C39<+ C39<+ C39<+ C39<+ C39<+ C39<+ C39<+ C39<+ C39<+ C39<+ C39<+ C39<+ C39<+ C39<+ C39<+ C39<+ C39<+ C39<+ C39<+ C39<+ C39<+ C39<+ C39<+ C39<+ C39<+ C39<+ C39<+ C39<+ C39<+ C39<+ 39<+ 39<+ 39<+ 39<+ 39<+ 39<+ E39<+ E39<+ E39<+ E39<+ E39<+ E39<+ E39<+ E39<+ E39<+ E39<+ E39<+ E39<+ E39<+ E39<+ E39<+ E39<+ E39<+ E39<+ E39<+ E39<+ E39<+ E39<+ E39<+ E39<+ E39<+ E39<+ E39<+ E39<+ E39<+ E39<+ E39<+ E39<+ E39<+ E39<+ E39<+ E39<+ E39<+ E39<+ E39<+ E39<+ E39<+ E39<+ E39<+ E39<+ E39<+ E39<+ E39<+ E39<+ E39<+ E39<+ E39<+ E39<+ E39<+ E39<+ E39<+ E39<+ E39<+ E39<+ E39<+ E39<+ E39<+ E39<+ E39<+ E39<+ E39<+ E39<+ E39<+ E39<+ E39<+ E39<+ E39<+ E39<+ E39<+ E39<+ E39<+ E39<+ E39<+ E39<+ E39<+ E39<+ E39<+ E39<+ E39<+ E39<+ E39<+ E39<+ E39<+ E39<+ E39<+ E39<+ E39<+ E39<+ E39<+ E39<+ E39<+ E39<+ E39<+ E39<+ E39<+ E39<+ E39<+ E39<+ E39<+ E39<+ E39<+ E39<+ E39<+ E39<+ E39<+ E39<+ E39<+ E39<+ E39<+ E39<+ E39<+ E39<+ E39<+ E39<+ E39<+ E39<+ E39<+ E39<+ E39<+ E39<+ E39<+ E39<+ E39<+ E39<+ E39<+ E39<+ E39<+ E39<+ E39<+ E39<+ E39<+ E39<+ E39<+ E39<+ E39<+ E39<+ E39<+ E39<+ E39<+ E39<+ E39<+ E39<+ E39<+ E39<+ E39<+ E39<+ E39<+ E39<+ E39<+ E39<+ E39<+ E39<+ E39<+ E39<+ E39<+ E39<+ E39<+ E39<+ E39<+ E39<+ E39<+ E39<+ E39<+ E39<+ E39<+ E39<+ E39<+ E39<+ E39<+ E39<+ E39<+ E39<+ E39<+ E39<+ E39<+ E39<+ E39<+ E39<+ E39<+ E39<+ E39<+ E39<+ E39<+ E39<+ E39<+ E39<+ E39<+ E39<+ E39<+ E39<+ E39<+ E39<+ E39<+ E39<+ E39<+ E39<+ E39<+ E39<+ E39<+ E39<+ E39<+ E39<+ E39<+ E39<+ E39<+ E39<+ E39<+ E39<+ E39<+ E39<+ E39<+ E39<+ E39<+ E39<+ E39<+ E39<+ E39<+ E39<+ E39<+ E39<+ E39<+ E39<+ E39<+ E39<+ E39<+ E39<+ E39<+ E39<+ E39<+ E39<+ E39<+ E39<+ E39<+ E39<+ E39<+ E39<+ E39<+ E39<+ E39<+ E39<+ E39<+ E39<+ E39<+ E39<+ E39<+ E39<+ E39<+ E39<+ E39<+ E39<+ E39<+ E39<+ E39<+ E39<+ E39<+ E39<+ E39<+ E39<+ E39<+ E39<+ E39<+ E39<+ E39<+ E39<+ E39<+ E39<+ E39<+ E39<+ E39<+ E39<+ E39<+ E39<+ E39<+ E39<+ E39<+ E39<+ E39<+ E39<+ E39<+ E39<+ E39<+ E39<+ E39<+ E39<+ E39<+ E39<+ E39<+ E39<+ E39<+ E39<+ E39<+ E39<+ E39<+ E39<+ E39<+ E39<+ E39<+ E39<+ E39<+ E39<+ E39<+ E39<+ E39<+ E39<+ E39<+ E39<+ E39<+ E39<+ E39<+ E39<+ E39<+ E39<+ E39<+ E39<+ E39<+ E39<+ E39<+ E39<+ E39<+ E39<+ E39<+ E39<+ E39<+ E39<+ E39<+ E39<+ E39<+ E39<+ E39<+ E39<+ E39<+ E39<+ E39<+ E39<+ E39<+ E39<+ E39<+ E39<+ E39<+ E39<+ E39<+ E39<+ E39<+ E39<+ E39<+ E39<+ E39<+ E39<+ E39<+ E39<+ E39<+ E39<+ E39<+ E39<+ E39<+ E39<+ E39<+ E39<+ E39<+ E39<+ E39<+ E39<+ E39<+ E39<+ E39<+ E39<+ E39<+ E39<+ E39<+ E39<+ E39<+ E39<+ E39<+ E39<+ E39<+ E39<+ E39<+ E39<+ E39<+ E39<+ E39<+ E39<+ E39<+ E39<+ E39<+ E39<+ E39<+ E39<+ E39<+ E39<+ E39<+ E39<+ E39<+ E39<+ E39<+ E39<+ E39<+ E39<+ E39<+ E39<+ E39<+ E39<+ 39<+ 39<+ 39<+ 39<+ 39<+ 3?9<+ 3?9<+ 3?9<+ 3?9<+ 3?9<+ 3?9<+ 3?9<+ 3?9<+ 3?9<+ 3?9<+ 3?9<+ 3?9<+ 3?9<+ 3?9<+ 3?9<+ 3?9<+ 3?9<+ 3?9<+ 3?9<+ 3?9<+ 3?9<+ 3?9<+ 3?9<+ 3?9<+ 3?9<+ 3?9<+ 3?9<+ 3?9<+ 3?9<+ 3?9<+ 3?9<+ 3?9<+ 3?9<+ 3?9<+ 3?9<+ 3?9<+ 3?9<+ 3?9<+ 3?9<+ 3?9<+ 3?9<+ 3?9<+ 3?9<+ 3?9<+ 3?9<+ 3?9<+ 3?9<+ 3?9<+ 3?9<+ 3?9<+ 3?9<+ 3?9<+ 3?9<+ 3?9<+ 3?9<+ 3?9<+ 3?9<+ 3?9<+ 3?9<+ 3?9<+ 3?9<+ 3?9<+ 3?9<+ 3?9<+ 3?9<+ 3?9<+ 3?9<+ 3?9<+ 3?9<+ 3?9<+ 3?9<+ 3?9<+ 3?9<+ 3?9<+ 3?9<+ 3?9<+ 3?9<+ 3?9<+ 3?9<+ 3?9<+ 3?9<+ 3?9<+ 3?9<+ 3?9<+ 3?9<+ 3?9<+ 3?9<+ 3?9<+ 3?9<+ 3?9<+ 3?9<+ 3?9<+ 3?9<+ 3?9<+ 3?9<+ 3?9<+ 3?9<+ 3?9<+ 3?9<+ 3?9<+ 3?9<+ 3?9<+ 3?9<+ 3?9<+ 3?9<+ 3?9<+ 3?9<+ 3?9<+ 3?9<+ 3?9<+ 3?9<+ 3?9<+ 3?9<+ 3?9<+ 3?9<+ 3?9<+ 3?9<+ 3?9<+ 3?9<+ 3?9<+ 3?9<+ 3?9<+ 3?9<+ 3?9<+ 3?9<+ 3?9<+ 3?9<+ 3?9<+ 3?9<+ 3?9<+ 3?9<+ 3?9<+ 3?9<+ 3?9<+ 3?9<+ 3?9<+ 3?9<+ 3?9<+ 3?9<+ 3?9<+ 3?9<+ 3?9<+ 3?9<+ 3?9<+ 3?9<+ 3?9<+ 3?9<+ 3?9<+ 3?9<+ 3?9<+ 3?9<+ 3?9<+ 3?9<+ 3?9<+ 3?9<+ 3?9<+ 3?9<+ 3?9<+ 3?9<+ 3?9<+ 3?9<+ 3?9<+ 3?9<+ 3?9<+ 3?9<+ 3?9<+ 3?9<+ 3?9<+ 3?9<+ 3?9<+ 3?9<+ 3?9<+ 3?9<+ 3?9<+ 3?9<+ 3?9<+ 3?9<+ 3?9<+ 3?9<+ 3?9<+ 3?9<+ 3?9<+ 3?9<+ 3?9<+ 3?9<+ 3?9<+ 3?9<+ 3?9<+ 3?9<+ 3?9<+ 3?9<+ 3?9<+ 3?9<+ 3?9<+ 3?9<+ 3?9<+ 3?9<+ 3?9<+ 3?9<+ 3?9<+ 3?9<+ 3?9<+ 3?9<+ 3?9<+ 3?9<+ 3?9<+ 3?9<+ 3?9<+ 3?9<+ 3?9<+ 3?9<+ 3?9<+ 3?9<+ 3?9<+ 3?9<+ 3?9<+ 3?9<+ 3?9<+ 3?9<+ 3?9<+ 3?9<+ 3?9<+ 3?9<+ 3?9<+ 3?9<+ 3?9<+ 3?9<+ 3?9<+ 3?9<+ 3?9<+ 3?9<+ 3?9<+ 3?9<+ 3?9<+ 3?9<+ 3?9<+ 3?9<+ 3?9<+ 3?9<+ 3?9<+ 3?9<+ 3?9<+ 3?9<+ 3?9<+ 3?9<+ 3?9<+ 3?9<+ 3?9<+ 3?9<+ 3?9<+ 3?9<+ 3?9<+ 3?9<+ 3?9<+ 3?9<+ 3?9<+ 3?9<+ 3?9<+ 3?9<+ 3?9<+ 3?9<+ 3?9<+ 3?9<+ 3?9<+ 3?9<+ 3?9<+ 3?9<+ 3?9<+ 3?9<+ 3?9<+ 3?9<+ 3?9<+ 3?9<+ 3?9<+ 3?9<+ 3?9<+ 3?9<+ 3?9<+ 3?9<+ 3?9<+ 3?9<+ 3?9<+ 3?9<+ 3?9<+ 3?9<+ 3?9<+ 3?9<+ 3?9<+ 3?9<+ 3?9<+ 3?9<+ 3?9<+ 3?9<+ 3?9<+ 3?9<+ 3?9<+ 3?9<+ 3?9<+ 3?9<+ 3?9<+ 3?9<+ 3?9<+ 3?9<+ 3?9<+ 3?9<+ 3?9<+ 3?9<+ 3?9<+ 3?9<+ 3?9<+ 3?9<+ 3?9<+ 3?9<+ 3?9<+ 3?9<+ 3?9<+ 3?9<+ 3?9<+ 3?9<+ 3?9<+ 3?9<+ 3?9<+ 3?9<+ 3?9<+ 3?9<+ 3?9<+ 3?9<+ 3?9<+ 3?9<+ 3?9<+ 3?9<+ 3?9<+ 3?9<+ 3?9<+ 3?9<+ 3?9<+ 3?9<+ 3?9<+ 3?9<+ 3?9<+ 3?9<+ 3?9<+ 3?9<+ 3?9<+ 3?9<+ 3?9<+ 3?9<+ 3?9<+ 3?9<+ 3?9<+ 3?9<+ 3?9<+ 3?9<+ 3?9<+ 3?9<+ 3?9<+ 3?9<+ 3?9<+ 3?9<+ 3?9<+ 3?9<+ 3?9<+ 3?9<+ 3?9<+ 3?9<+ 3?9<+ 3?9<+ 3?9<+ 3?9<+ 3?9<+ 3?9<+ 3?9<+ 3?9<+ 3?9<+ 3?9<+ 3?9<+ 3?9<+ 3?9<+ 3?9<+ 3?9<+ 3?9<+ 3?9<+ 3?9<+ 3?9<+ 3?9<+ 3?9<+ 3?9<+ 3?9<+ 3?9<+ 3?9<+ 3?9<+ 3?9<+ 3?9<+ 3?9<+ 3?9<+ 3?9<+ 3?9<+ 3?9<+ 3?9<+ 3?9<+ 3?9<+ ?9<+ ?9<+ ?9<+ ?9<+ ?9<+ + + + + + + ?609+ ?609+ ?609+ ?609+ ?609+ ?609+ ?609+ ?609+ ?609+ ?609+ ?609+ ?609+ ?609+ ?609+ ?609+ ?609+ ?609+ ?609+ ?609+ ?609+ ?609+ ?609+ ?609+ ?609+ ?609+ ?609+ ?609+ ?609+ ?609+ ?609+ ?609+ ?609+ ?609+ ?609+ ?609+ ?609+ ?609+ ?609+ ?609+ ?609+ ?609+ ?609+ ?609+ ?609+ ?609+ ?609+ ?609+ ?609+ ?609+ ?609+ ?609+ ?609+ ?609+ ?609+ ?609+ ?609+ ?609+ ?609+ ?609+ ?609+ ?609+ ?609+ ?609+ ?609+ ?609+ ?609+ ?609+ ?609+ ?609+ ?609+ ?609+ ?609+ ?609+ ?609+ ?609+ ?609+ ?609+ ?609+ ?609+ ?609+ ?609+ ?609+ ?609+ ?609+ ?609+ ?609+ ?609+ ?609+ ?609+ ?609+ ?609+ ?609+ ?609+ ?609+ ?609+ ?609+ ?609+ ?609+ ?609+ ?609+ ?609+ ?609+ ?609+ ?609+ ?609+ ?609+ ?609+ ?609+ ?609+ ?609+ ?609+ ?609+ ?609+ ?609+ ?609+ ?609+ ?609+ ?609+ ?609+ ?609+ ?609+ ?609+ ?609+ ?609+ ?609+ ?609+ ?609+ ?609+ ?609+ ?609+ ?609+ ?609+ ?609+ ?609+ ?609+ ?609+ ?609+ ?609+ ?609+ ?609+ ?609+ ?609+ ?609+ ?609+ ?609+ ?609+ ?609+ ?609+ ?609+ ?609+ ?609+ ?609+ ?609+ ?609+ ?609+ ?609+ ?609+ ?609+ ?609+ ?609+ ?609+ ?609+ ?609+ ?609+ ?609+ ?609+ ?609+ ?609+ ?609+ ?609+ ?609+ ?609+ ?609+ ?609+ ?609+ ?609+ ?609+ ?609+ ?609+ ?609+ ?609+ ?609+ ?609+ ?609+ ?609+ ?609+ ?609+ ?609+ ?609+ ?609+ ?609+ ?609+ ?609+ ?609+ ?609+ ?609+ ?609+ ?609+ ?609+ ?609+ ?609+ ?609+ ?609+ ?609+ ?609+ ?609+ ?609+ ?609+ ?609+ ?609+ ?609+ ?609+ ?609+ ?609+ ?609+ ?609+ ?609+ ?609+ ?609+ ?609+ ?609+ ?609+ ?609+ ?609+ ?609+ ?609+ ?609+ ?609+ ?609+ ?609+ ?609+ ?609+ ?609+ ?609+ ?609+ ?609+ ?609+ ?609+ ?609+ ?609+ ?609+ ?609+ ?609+ ?609+ ?609+ ?609+ ?609+ ?609+ ?609+ ?609+ ?609+ ?609+ ?609+ ?609+ ?609+ ?609+ ?609+ ?609+ ?609+ ?609+ ?609+ ?609+ ?609+ ?609+ ?609+ ?609+ ?609+ ?609+ ?609+ ?609+ ?609+ ?609+ ?609+ ?609+ ?609+ ?609+ ?609+ ?609+ ?609+ ?609+ ?609+ ?609+ ?609+ ?609+ ?609+ ?609+ ?609+ ?609+ ?609+ ?609+ ?609+ ?609+ ?609+ ?609+ ?609+ ?609+ ?609+ ?609+ ?609+ ?609+ ?609+ ?609+ ?609+ ?609+ ?609+ ?609+ ?609+ ?609+ ?609+ ?609+ ?609+ ?609+ ?609+ ?609+ ?609+ ?609+ ?609+ ?609+ ?609+ ?609+ ?609+ ?609+ ?609+ ?609+ ?609+ ?609+ ?609+ ?609+ ?609+ ?609+ ?609+ ?609+ ?609+ ?609+ ?609+ ?609+ ?609+ ?609+ ?609+ ?609+ ?609+ ?609+ ?609+ ?609+ ?609+ ?609+ ?609+ ?609+ ?609+ ?609+ ?609+ ?609+ ?609+ ?609+ ?609+ ?609+ ?609+ ?609+ ?609+ ?609+ ?609+ ?609+ ?609+ ?609+ ?609+ ?609+ ?609+ ?609+ ?609+ ?609+ ?609+ ?609+ ?609+ ?609+ ?609+ ?609+ ?609+ ?609+ ?609+ ?609+ ?609+ ?609+ ?609+ ?609+ ?609+ ?609+ ?609+ ?609+ ?609+ ?609+ ?609+ ?609+ ?609+ ?609+ ?609+ ?609+ ?609+ ?609+ ?609+ ?609+ ?609+ ?609+ ?609+ ?609+ ?609+ ?609+ ?609+ ?609+ ?609+ ?609+ ?609+ ?609+ ?609+ ?609+ ?609+ ?609+ ?609+ ?609+ ?609+ ?609+ ?609+ ?609+ ?609+ ?609+ ?609+ ?609+ ?609+ ?609+ ?609+ ?609+ ?609+ ?609+ ?609+ ?609+ ?609+ ?609+ ?609+ ?609+ ?609+ ?609+ ?609+ ?609+ ?609+ ?609+ ?609+ ?609+ ?609+ ?609+ ?609+ ?609+ ?609+ ?609+ ?609+ ?609+ ?609+ ?609+ ?609+ ?609+ ?609+ ?609+ ?609+ ?609+ ?609+ ?609+ ?609+ ?609+ ?609+ ?609+ ?609+ ?609+ ?609+ ?609+ ?609+ ?609+ ?609+ ?609+ ?609+ ?609+ ?609+ ?609+ ?609+ ?609+ ?609+ ?609+ ?609+ ?609+ ?609+ ?609+ ?609+ ?609+ ?609+ ?609+ ?609+ ?609+ ?609+ ?609+ ?609+ ?609+ ?609+ ?609+ ?609+ ?609+ ?609+ ?609+ ?609+ ?609+ ?609+ ?609+ ?609+ ?609+ ?609+ ?609+ ?609+ ?609+ ?609+ ?609+ ?609+ ?609+ ?609+ ?609+ ?609+ ?609+ ?609+ ?609+ ?609+ ?609+ ?609+ ?609+ ?609+ ?609+ ?609+ ?609+ ?609+ ?609+ ?609+ ?609+ ?609+ ?609+ ?609+ ?609+ ?609+ ?609+ ?609+ ?609+ ?609+ ?609+ ?609+ ?609+ ?609+ ?609+ ?609+ ?609+ ?609+ ?609+ ?609+ ?609+ ?609+ ?609+ ?609+ ?609+ ?609+ ?609+ ?609+ ?609+ ?609+ ?609+ ?609+ ?609+ ?609+ ?609+ ?609+ ?609+ ?609+ ?609+ ?609+ ?609+ ?609+ ?609+ ?609+ ?609+ ?609+ ?609+ ?609+ ?609+ ?609+ ?609+ ?609+ ?609+ ?609+ ?609+ ?609+ ?609+ ?609+ ?609+ ?609+ ?609+ ?609+ ?609+ ?609+ ?609+ ?609+ ?609+ ?609+ ?609+ ?609+ ?609+ ?609+ ?609+ ?609+ ?609+ ?609+ ?609+ ?609+ ?609+ ?609+ ?609+ ?609+ ?609+ ?609+ ?609+ ?609+ ?609+ ?609+ ?609+ ?609+ ?609+ ?609+ ?609+ ?609+ ?609+ ?609+ ?609+ ?609+ ?609+ ?609+ ?609+ ?609+ ?609+ ?609+ ?609+ ?609+ ?609+ ?609+ ?609+ ?609+ ?609+ ?609+ ?609+ ?609+ ?609+ ?609+ ?609+ ?609+ ?609+ ?609+ ?609+ ?609+ ?609+ ?609+ ?609+ ?609+ ?609+ ?609+ ?609+ ?609+ ?609+ ?609+ ?609+ ?609+ ?609+ ?609+ ?609+ ?609+ ?609+ ?609+ ?609+ ?609+ ?609+ ?609+ ?609+ ?609+ ?609+ ?609+ ?609+ ?609+ ?609+ ?609+ ?609+ ?609+ ?609+ ?609+ ?609+ ?609+ ?609+ ?609+ ?609+ ?609+ ?609+ ?609+ ?609+ ?609+ ?609+ ?609+ ?609+ ?609+ ?609+ ?609+ ?609+ ?609+ ?609+ ?609+ ?609+ ?609+ ?609+ ?609+ ?609+ ?609+ ?609+ ?609+ ?609+ ?609+ ?609+ ?609+ ?609+ ?609+ ?609+ ?609+ ?609+ ?609+ ?609+ ?609+ ?609+ ?609+ ?609+ ?609+ ?609+ ?609+ ?609+ ?609+ ?609+ ?609+ ?609+ ?609+ ?609+ ?609+ ?609+ ?609+ ?609+ ?609+ ?609+ ?609+ ?609+ ?609+ ?609+ ?609+ ?609+ ?609+ ?609+ ?609+ ?609+ ?609+ ?609+ ?609+ ?609+ ?609+ ?609+ ?609+ ?609+ ?609+ ?609+ ?609+ ?609+ ?609+ ?609+ ?609+ ?609+ ?609+ ?609+ ?609+ ?609+ ?609+ ?609+ ?609+ ?609+ ?609+ ?609+ ?609+ ?609+ ?609+ ?609+ ?609+ ?609+ ?609+ ?609+ ?609+ ?609+ ?609+ ?609+ ?609+ ?609+ ?609+ ?609+ ?609+ ?609+ ?609+ ?609+ ?609+ ?609+ ?609+ ?609+ ?609+ ?609+ ?609+ ?609+ ?609+ ?609+ ?609+ ?609+ 609+ 609+ 609+ 609+ 609+ ?609+ ?609+ ?609+ ?609+ ?609+ ?609+ ?609+ ?609+ ?609+ ?609+ ?609+ ?609+ ?609+ ?609+ ?609+ ?609+ ?609+ ?609+ ?609+ ?609+ ?609+ ?609+ ?609+ ?609+ ?609+ ?609+ ?609+ ?609+ ?609+ ?609+ ?609+ ?609+ ?609+ ?609+ ?609+ ?609+ ?609+ ?609+ ?609+ ?609+ ?609+ ?609+ ?609+ ?609+ ?609+ ?609+ ?609+ ?609+ ?609+ ?609+ ?609+ ?609+ ?609+ ?609+ ?609+ ?609+ ?609+ ?609+ ?609+ ?609+ ?609+ ?609+ ?609+ ?609+ ?609+ ?609+ ?609+ ?609+ ?609+ ?609+ ?609+ ?609+ ?609+ ?609+ ?609+ ?609+ ?609+ ?609+ ?609+ ?609+ ?609+ ?609+ ?609+ ?609+ ?609+ ?609+ ?609+ ?609+ ?609+ ?609+ ?609+ ?609+ ?609+ ?609+ ?609+ ?609+ ?609+ ?609+ ?609+ ?609+ ?609+ ?609+ ?609+ ?609+ ?609+ ?609+ ?609+ ?609+ ?609+ ?609+ ?609+ ?609+ ?609+ ?609+ ?609+ ?609+ ?609+ ?609+ ?609+ ?609+ ?609+ ?609+ ?609+ ?609+ ?609+ ?609+ ?609+ ?609+ ?609+ ?609+ ?609+ ?609+ 609+ 609+ 609+ 609+ 609+ >609+ >609+ >609+ >609+ >609+ >609+ >609+ >609+ >609+ >609+ >609+ >609+ >609+ >609+ >609+ >609+ >609+ >609+ >609+ >609+ >609+ >609+ >609+ >609+ >609+ >609+ >609+ >609+ >609+ >609+ >609+ >609+ >609+ >609+ >609+ >609+ >609+ >609+ >609+ >609+ >609+ >609+ >609+ >609+ >609+ >609+ >609+ >609+ >609+ >609+ >609+ >609+ >609+ >609+ >609+ >609+ >609+ >609+ >609+ >609+ >609+ >609+ >609+ >609+ >609+ >609+ >609+ >609+ >609+ >609+ >609+ >609+ >609+ >609+ >609+ >609+ >609+ >609+ >609+ >609+ >609+ >609+ >609+ >609+ >609+ >609+ >609+ >609+ >609+ >609+ >609+ >609+ >609+ >609+ >609+ >609+ >609+ >609+ >609+ >609+ >609+ >609+ >609+ >609+ >609+ >609+ >609+ >609+ >609+ >609+ >609+ >609+ >609+ >609+ >609+ >609+ >609+ >609+ >609+ >609+ >609+ >609+ >609+ >609+ >609+ >609+ >609+ >609+ >609+ >609+ >609+ >609+ 609+ 609+ 609+ 609+ 609+ 609+ ?609+ ?609+ ?609+ ?609+ ?609+ ?609+ ?609+ ?609+ ?609+ ?609+ ?609+ ?609+ ?609+ ?609+ ?609+ ?609+ ?609+ ?609+ ?609+ ?609+ ?609+ ?609+ ?609+ ?609+ ?609+ ?609+ ?609+ ?609+ ?609+ ?609+ ?609+ ?609+ ?609+ ?609+ ?609+ ?609+ ?609+ ?609+ ?609+ ?609+ ?609+ ?609+ ?609+ ?609+ ?609+ ?609+ ?609+ ?609+ ?609+ ?609+ ?609+ ?609+ ?609+ ?609+ ?609+ ?609+ ?609+ ?609+ ?609+ ?609+ ?609+ ?609+ ?609+ ?609+ ?609+ ?609+ ?609+ ?609+ ?609+ ?609+ ?609+ ?609+ ?609+ ?609+ ?609+ ?609+ ?609+ ?609+ ?609+ ?609+ ?609+ ?609+ ?609+ ?609+ ?609+ ?609+ ?609+ ?609+ ?609+ ?609+ ?609+ ?609+ ?609+ ?609+ ?609+ ?609+ ?609+ ?609+ ?609+ ?609+ ?609+ ?609+ ?609+ ?609+ ?609+ ?609+ ?609+ ?609+ ?609+ ?609+ ?609+ ?609+ ?609+ ?609+ ?609+ ?609+ ?609+ ?609+ ?609+ ?609+ ?609+ ?609+ ?609+ ?609+ ?609+ ?609+ ?609+ ?609+ ?609+ ?609+ ?609+ ?609+ 609+ 609+ 609+ 609+ 609+ 609+ >609+ >609+ >609+ >609+ >609+ >609+ >609+ >609+ >609+ >609+ >609+ >609+ >609+ >609+ >609+ >609+ >609+ >609+ >609+ >609+ >609+ >609+ >609+ >609+ >609+ >609+ >609+ >609+ >609+ >609+ >609+ >609+ >609+ >609+ >609+ >609+ >609+ >609+ >609+ >609+ >609+ >609+ >609+ >609+ >609+ >609+ >609+ >609+ >609+ >609+ >609+ >609+ >609+ >609+ >609+ >609+ >609+ >609+ >609+ >609+ >609+ >609+ >609+ >609+ >609+ >609+ >609+ >609+ >609+ >609+ >609+ >609+ >609+ >609+ >609+ >609+ >609+ >609+ >609+ >609+ >609+ >609+ >609+ >609+ >609+ >609+ >609+ >609+ >609+ >609+ >609+ >609+ >609+ >609+ >609+ >609+ >609+ >609+ >609+ >609+ >609+ >609+ >609+ >609+ >609+ >609+ >609+ >609+ >609+ >609+ >609+ >609+ >609+ >609+ >609+ >609+ >609+ >609+ >609+ >609+ >609+ >609+ >609+ >609+ >609+ >609+ >609+ >609+ >609+ >609+ >609+ >609+ >609+ >609+ >609+ >609+ >609+ >609+ >609+ >609+ >609+ >609+ >609+ >609+ >609+ >609+ >609+ >609+ >609+ >609+ >609+ >609+ >609+ >609+ >609+ >609+ >609+ >609+ >609+ >609+ >609+ >609+ >609+ >609+ >609+ >609+ >609+ >609+ >609+ >609+ >609+ >609+ >609+ >609+ >609+ >609+ >609+ >609+ >609+ >609+ >609+ >609+ >609+ >609+ >609+ >609+ >609+ >609+ >609+ >609+ >609+ >609+ >609+ >609+ >609+ >609+ >609+ >609+ >609+ >609+ 609+ 609+ 609+ 609+ 609+ <609+ <609+ <609+ <609+ <609+ <609+ <609+ <609+ <609+ <609+ <609+ <609+ <609+ <609+ <609+ <609+ <609+ <609+ <609+ <609+ <609+ <609+ <609+ <609+ <609+ <609+ <609+ <609+ <609+ <609+ <609+ <609+ <609+ <609+ <609+ <609+ <609+ <609+ <609+ <609+ <609+ <609+ <609+ <609+ <609+ <609+ <609+ <609+ <609+ <609+ <609+ <609+ <609+ <609+ <609+ <609+ <609+ <609+ <609+ <609+ <609+ <609+ <609+ <609+ <609+ <609+ <609+ <609+ <609+ <609+ <609+ <609+ <609+ <609+ <609+ <609+ <609+ <609+ <609+ <609+ <609+ <609+ <609+ <609+ <609+ <609+ <609+ <609+ <609+ <609+ <609+ <609+ <609+ <609+ <609+ <609+ <609+ <609+ <609+ <609+ <609+ <609+ <609+ <609+ <609+ <609+ <609+ <609+ <609+ <609+ <609+ <609+ <609+ <609+ <609+ <609+ <609+ <609+ <609+ <609+ <609+ <609+ <609+ <609+ <609+ <609+ <609+ <609+ <609+ <609+ <609+ <609+ <609+ <609+ <609+ <609+ <609+ <609+ <609+ <609+ <609+ <609+ <609+ <609+ <609+ <609+ <609+ <609+ <609+ <609+ <609+ <609+ <609+ <609+ <609+ <609+ <609+ <609+ <609+ <609+ <609+ <609+ <609+ <609+ <609+ <609+ <609+ <609+ <609+ <609+ <609+ <609+ <609+ <609+ <609+ <609+ <609+ <609+ <609+ <609+ <609+ <609+ <609+ <609+ <609+ <609+ <609+ <609+ <609+ <609+ <609+ <609+ <609+ <609+ <609+ <609+ <609+ <609+ <609+ <609+ 609+ 9+ 9+ + + +:72 +:72 +:72 +:72 +:72 +:72 +:72 +:72 +:72 +:72 +:72 +:72 +:72 +:72 +:72 +:72 +:72 +:72 +:72 +:72 +:72 +:72 +:72 +:72 +:72 +:72 +:72 +:72 +:72 +:72 +:72 +:72 +:72 +:72 +:72 +:72 +:72 +:72 +:72 +:72 +:72 +:72 +:72 +:72 +:72 +:72 +:72 +:72 +:72 +:72 +:72 +:72 +:72 +:72 +:72 +:72 +:72 +:72 +:72 +:72 +:72 +:72 +:72 +:72 +:72 +:72 +:72 +:72 +:72 +:72 +:72 +:72 +:72 +:72 +:72 +:72 +:72 +:72 +:72 +:72 +:72 +:72 +:72 +:72 +:72 +:72 +:72 +:72 +:72 +:72 +:72 +:72 +:72 +:72 +:72 +:72 +:72 +:72 +:72 +:72 +:72 +:72 +:72 +:72 +:72 +:72 +:72 +:72 +:72 +:72 +:72 +:72 +:72 +:72 +:72 +:72 +:72 +:72 +:72 +:72 +:72 +:72 +:72 +:72 +:72 +:72 +:72 +:72 +:72 +:72 +:72 +:72 +:72 +:72 +:72 +:72 +:72 +:72 +:72 +:72 +:72 +:72 +:72 +:72 +:72 +:72 +:72 +:72 +:72 +:72 +:72 +:72 +:72 +:72 +:72 +:72 +:72 +:72 +:72 +:72 +:72 +:72 +:72 +:72 +:72 +:72 +:72 +:72 +:72 +:72 +:72 +:72 +:72 +:72 +:72 +:72 +:72 +:72 +:72 +:72 +:72 +:72 +:72 +:72 +:72 +:72 +:72 +:72 +:72 +:72 +:72 +:72 +:72 +:72 +:72 +:72 +:72 +:72 +:72 +:72 +:72 +:72 +:72 +:72 +:72 +:72 +:72 +:72 +:72 +:72 +:72 +:72 +:72 +:72 +:72 +:72 +:72 +:72 +:72 +:72 +:72 +:72 +:72 +:72 +:72 +:72 +:72 +:72 +:72 +:72 +:72 +:72 +:72 +:72 +:72 +:72 +:72 +:72 +:72 +:72 +:72 +:72 +:72 +:72 +:72 +:72 +:72 +:72 +:72 +:72 +:72 +:72 +:72 +:72 +:72 +:72 +:72 +:72 +:72 +:72 +:72 +:72 +:72 +:72 +:72 +:72 +:72 +:72 +:72 +:72 +:72 +:72 +:72 +:72 +:72 +:72 +:72 +:72 +:72 +:72 +:72 +:72 +:72 +:72 +:72 +:72 +:72 +:72 +:72 +:72 +:72 +:72 +:72 +:72 +:72 +:72 +:72 +:72 +:72 +:72 +:72 +:72 +:72 +:72 +:72 +:72 +:72 +:72 +:72 +:72 +:72 +:72 +:72 +:72 +:72 +:72 +:72 +:72 +:72 +:72 +:72 +:72 +:72 +:72 +:72 +:72 +:72 +:72 +:72 +:72 +:72 +:72 +:72 +:72 +:72 +:72 +:72 +:72 +:72 +:72 +:72 +:72 +:72 +:72 +:72 +:72 +:72 +:72 +:72 +:72 +:72 +:72 +:72 +:72 +:72 +:72 +:72 +:72 +:72 +:72 +:72 +:72 +:72 +:72 +:72 +:72 +:72 +:72 +:72 +:72 +:72 +:72 +:72 +:72 +:72 +:72 +:72 +:72 +:72 +:72 +:72 +:72 +:72 +:72 +:72 +:72 +:72 +:72 +:72 +:72 +:72 +:72 +:72 +:72 +:72 +:72 +:72 +:72 +:72 +:72 +:72 +:72 +:72 +:72 +:72 +:72 +:72 +:72 +:72 +:72 +:72 +:72 +:72 +:72 +:72 +:72 +:72 +:72 +:72 +:72 +:72 +:72 +:72 +:72 +:72 +:72 +:72 +:72 +:72 +:72 +:72 +:72 +:72 +:72 +:72 +:72 +:72 +:72 +:72 +:72 +:72 +:72 +:72 +:72 +:72 +:72 +:72 +:72 +:72 +:72 +:72 +:72 +:72 +:72 +:72 +:72 +:72 +:72 +:72 +:72 +:72 +:72 +:72 +:72 +:72 +:72 +:72 +:72 +:72 +:72 +:72 +:72 +:72 +:72 +:72 +:72 +:72 +:72 +:72 +:72 +:72 +:72 +:72 +:72 +:72 +:72 +:72 +:72 +:72 +:72 +:72 +:72 +:72 +:72 +:72 +:72 +:72 +:72 +:72 +:72 +:72 +:72 +:72 +:72 +:72 +:72 +:72 +:72 +:72 +:72 +:72 +:72 +:72 +:72 +:72 +:72 +:72 +:72 +:72 +:72 +:72 +:72 +:72 +:72 +:72 +:72 +:72 +:72 +:72 +:72 +:72 +:72 +:72 +:72 +:72 +:72 +:72 +:72 +:72 +:72 +:72 +:72 +:72 +:72 +:72 +:72 +:72 +:72 +:72 +:72 +:72 +:72 +:72 +:72 +:72 +:72 +:72 +:72 +:72 +:72 +:72 +:72 +:72 +:72 +:72 +:72 +:72 +:72 +:72 +:72 +:72 +:72 +:72 +:72 +:72 +:72 +:72 +:72 +:72 +:72 +:72 +:72 +:72 +:72 +:72 +:72 +:72 +:72 +:72 +:72 +:72 +:72 +:72 +:72 +:72 +:72 +:72 +:72 +:72 +:72 +:72 +:72 +:72 +:72 +:72 +:72 +:72 +:72 +:72 +:72 +:72 +:72 +:72 +:72 +:72 +:72 +:72 +:72 +:72 +:72 +:72 +:72 +:72 +:72 +:72 +:72 +:72 +:72 +:72 +:72 +:72 +:72 +:72 +:72 +:72 +:72 +:72 +:72 +:72 +:72 +:72 +:72 +:72 +:72 +:72 +:72 +:72 +:72 +:72 +:72 +:72 +:72 +:72 +:72 +:72 +:72 +:72 +:72 +:72 +:72 +:72 +:72 +:72 +:72 +:72 +:72 +:72 +:72 +:72 +:72 +:72 +:72 +:72 +:72 +:72 +:72 +:72 +:72 +:72 +:72 +:72 +:72 +:72 +:72 +:72 +:72 +:72 +:72 +:72 +:72 +:72 +:72 +:72 +:72 +:72 +:72 +:72 +:72 +:72 +:72 +:72 +:72 +:72 +:72 +:72 +:72 +:72 +:72 +:72 +:72 +:72 +:72 +:72 +:72 +:72 +:72 +:72 +:72 +:72 +:72 +:72 +:72 +:72 +:72 +:72 +:72 +:72 +:72 +:72 +:72 +:72 +:72 +:72 +:72 +:72 +:72 +:72 +:72 +:72 +:72 +:72 +:72 +:72 +:72 +:72 +:72 +:72 +:72 +:72 +:72 +:72 +:72 +:72 +:72 +:72 +:72 +:72 +:72 +:72 +:72 +:72 +:72 +:72 +:72 +:72 +:72 +:72 +:72 +:72 +:72 +:72 +:72 +:72 +:72 +:72 +:72 +:72 +:72 +:72 +:72 :72 :72 :72 :72 :72 :72 :72 :72 :72 :72 :72 :72 :72 :72 :72 :72 :72 :72 :72 :72 :72 :72 :72 :72 :72 :72 :72 :72 :72+ :72+ :72+ :72+ :72+ :72+ :72+ :72+ :72+ :72+ :72+ :72+ :72+ :72+ :72+ :72+ :72+ :72+ :72+ :72+ :72+ :72+ :72+ :72+ :72+ :72+ :72+ :72+ :72+ :72+ :72+ :72+ :72+ :72+ :72+ :72+ :72+ :72+ :72+ :72+ :72+ :72+ :72+ :72+ :72+ :72+ :72+ :72+ :72+ :72+ :72+ :72+ :72+ :72+ :72+ :72+ :72+ :72+ :72+ :72+ :72+ :72+ :72+ :72+ :72+ :72+ :72+ :72+ :72+ :72+ :72+ :72+ :72+ :72+ :72+ :72+ :72+ :72+ :72+ :72+ :72+ :72+ :72+ :72+ :72+ :72+ :72+ :72+ :72+ :72+ :72+ :72+ :72+ :72+ :72+ :72+ :72+ :72+ :72+ :72+ :72+ :72+ :72+ :72+ :72+ :72+ :72+ :72+ :72+ :72+ :72+ :72+ :72+ :72+ :72+ :72+ :72+ :72+ :72+ :72+ :72+ :72+ :72+ :72+ :72+ :72+ :72+ :72+ :72+ :72+ :72+ :72+ :72+ :72+ :72+ :72+ :72+ :72+ :72+ :72+ :72+ :72+ :72+ :72+ :72+ :72+ :72+ :72+ :72+ :72+ :72+ :72+ :72+ :72+ :72+ :72+ :72+ :72+ :72+ :72+ :72+ :72+ :72+ :72+ :72+ :72+ :72+ :72+ :72+ :72+ :72+ :72+ :72+ :72+ :72+ :72+ :72+ :72+ :72+ :72+ :72+ :72+ :72+ :72+ :72+ :72+ :72+ :72+ :72+ :72+ :72+ :72+ :72+ :72+ :72+ :72+ :72+ :72+ :72+ :72+ :72+ :72+ :72+ :72+ :72+ :72+ :72+ :72+ :72+ :72+ :72+ :72+ :72+ :72+ :72+ :72+ :72+ :72+ :72+ :72+ :72+ :72+ :72+ :72+ :72+ :72+ :72+ :72+ :72+ :72+ :72+ :72+ :72+ :72+ :72+ :72+ :72+ :72+ :72+ :72+ :72+ :72+ :72+ :72+ :72+ :72+ :72+ :72+ :72+ :72+ :72+ :72+ :72+ :72+ :72+ :72+ :72+ :72+ :72+ :72+ :72+ :72+ :72+ :72+ :72+ :72+ :72+ :72+ :72+ :72+ :72+ :72+ :72+ :72+ :72+ :72+ :72+ :72+ :72+ :72+ :72+ :72+ :72+ :72+ :72+ :72+ :72+ :72+ :72+ :72+ :72+ :72+ :72+ :72+ :72+ :72+ :72+ :72+ :72+ :72+ :72+ :72+ :72+ :72+ :72+ :72+ :72+ :72+ :72+ :72+ :72+ :72+ :72+ :72+ :72+ :72+ :72+ :72+ :72+ :72+ :72+ :72+ :72+ :72+ :72+ :72+ :72+ :72+ :72+ :72+ :72+ :72+ :72+ :72+ :72+ :72+ :72+ :72+ :72+ :72+ :72+ :72+ :72+ :72+ :72+ :72+ :72+ :72+ :72+ :72+ :72+ :72+ :72+ :72+ :72+ :72+ :72+ :72+ :72+ :72+ :72+ :72+ :72+ :72+ :72+ :72+ :72+ :72+ :72+ :72+ :72+ :72+ :72+ :72+ :72+ :72+ :72+ :72+ :72+ :72+ :72+ :72+ :72+ :72+ :72+ :72+ :72+ :72+ :72+ :72+ :72+ :72+ :72+ :72+ :72+ :72+ :72+ :72+ :72+ :72+ :72+ :72+ :72+ :72+ :72+ :72+ :72+ :72+ :72+ :72+ :72+ :72+ :72+ :72+ :72+ :72+ :72+ :72+ :72+ 72+ 72+ 72+ 72+ 72+ 972+ 972+ 972+ 972+ 972+ 972+ 972+ 972+ 972+ 972+ 972+ 972+ 972+ 972+ 972+ 972+ 972+ 972+ 972+ 972+ 972+ 972+ 972+ 972+ 972+ 972+ 972+ 972+ 972+ 972+ 972+ 972+ 972+ 972+ 972+ 972+ 972+ 972+ 972+ 972+ 972+ 972+ 972+ 972+ 972+ 972+ 972+ 972+ 972+ 972+ 972+ 972+ 972+ 972+ 972+ 972+ 972+ 972+ 972+ 972+ 972+ 972+ 972+ 972+ 972+ 972+ 972+ 972+ 972+ 972+ 972+ 972+ 972+ 972+ 972+ 972+ 972+ 972+ 972+ 972+ 972+ 972+ 972+ 972+ 972+ 972+ 972+ 972+ 972+ 972+ 972+ 972+ 972+ 972+ 972+ 972+ 972+ 972+ 972+ 972+ 972+ 972+ 972+ 972+ 972+ 972+ 972+ 972+ 972+ 972+ 972+ 972+ 972+ 972+ 972+ 972+ 972+ 972+ 972+ 972+ 972+ 972+ 972+ 972+ 972+ 972+ 972+ 972+ 972+ 972+ 972+ 972+ 972+ 972+ 972+ 972+ 972+ 972+ 972+ 972+ 972+ 972+ 972+ 972+ 972+ 972+ 972+ 972+ 972+ 972+ 972+ 972+ 972+ 972+ 972+ 972+ 972+ 972+ 972+ 972+ 972+ 972+ 972+ 972+ 972+ 972+ 972+ 972+ 972+ 972+ 972+ 972+ 972+ 972+ 972+ 972+ 972+ 972+ 972+ 972+ 972+ 972+ 972+ 972+ 972+ 972+ 972+ 972+ 972+ 972+ 972+ 972+ 972+ 972+ 972+ 972+ 972+ 972+ 972+ 972+ 972+ 972+ 972+ 972+ 972+ 972+ 972+ 972+ 972+ 972+ 972+ 972+ 972+ 972+ 972+ 972+ 972+ 972+ 972+ 972+ 972+ 972+ 972+ 972+ 972+ 972+ 972+ 972+ 972+ 972+ 972+ 972+ 972+ 972+ 972+ 972+ 972+ 972+ 972+ 972+ 972+ 972+ 972+ 972+ 972+ 972+ 972+ 972+ 972+ 972+ 972+ 972+ 972+ 972+ 972+ 972+ 972+ 972+ 972+ 972+ 972+ 972+ 972+ 972+ 972+ 972+ 972+ 972+ 972+ 972+ 972+ 972+ 972+ 972+ 972+ 972+ 972+ 972+ 972+ 972+ 972+ 972+ 972+ 972+ 972+ 972+ 972+ 972+ 972+ 972+ 972+ 972+ 972+ 972+ 972+ 972+ 972+ 972+ 972+ 972+ 972+ 972+ 972+ 972+ 972+ 972+ 972+ 972+ 972+ 972+ 972+ 972+ 972+ 972+ 972+ 972+ 972+ 972+ 972+ 972+ 972+ 972+ 972+ 972+ 972+ 972+ 972+ 972+ 972+ 972+ 972+ 972+ 972+ 972+ 972+ 972+ 972+ 972+ 972+ 972+ 972+ 972+ 972+ 972+ 972+ 972+ 972+ 972+ 972+ 972+ 972+ 972+ 972+ 972+ 972+ 972+ 972+ 972+ 972+ 972+ 972+ 972+ 972+ 972+ 972+ 972+ 972+ 972+ 972+ 972+ 972+ 972+ 972+ 972+ 972+ 972+ 972+ 972+ 972+ 972+ 972+ 972+ 972+ 972+ 972+ 972+ 972+ 972+ 972+ 972+ 972+ 972+ 972+ 972+ 972+ 972+ 972+ 972+ 972+ 972+ 972+ 972+ 972+ 972+ 972+ 972+ 72+ 72+ 72+ 2+ 72+ 72+ 72+ 72+ 72+ 72+ 72+ 72+ 72+ 72+ 72+ 72+ 72+ 72+ 72+ 72+ 72+ 72+ 72+ 72+ 72+ 72+ 72+ 72+ 72+ 72+ 72+ 72+ 72+ 72+ 72+ 72+ 72+ 72+ 72+ 72+ 72+ 72+ 72+ 72+ 72+ 72+ 72+ 72+ 72+ 72+ 72+ 72+ 72+ 72+ 72+ 72+ 72+ 72+ 72+ 72+ 72+ 72+ 72+ 72+ 72+ 72+ 72+ 72+ 72+ 72+ 72+ 72+ 72+ 72+ 72+ 72+ 72+ 72+ 72+ 72+ 72+ 72+ 72+ 72+ 72+ 72+ 72+ 72+ 72+ 72+ 72+ 72+ 72+ 72+ 72+ 72+ 72+ 72+ 72+ 72+ 72+ 72+ 72+ 72+ 72+ 72+ 72+ 72+ 72+ 72+ 72+ 72+ 72+ 72+ 72+ 72+ 72+ 72+ 72+ 72+ 72+ 72+ 72+ 72+ 72+ 72+ 72+ 72+ 72+ 72+ 72+ 72+ 72+ 72+ 72+ 72+ 72+ 72+ 72+ 72+ 72+ 72+ 72+ 72+ 72+ 72+ 72+ 72+ 72+ 72+ 72+ 72+ 72+ 72+ 72+ 72+ 72+ 72+ 72+ 72+ 72+ 72+ 72+ 72+ 72+ 72+ 72+ 72+ 72+ 72+ 72+ 72+ 72+ 72+ 72+ 72+ 72+ 72+ 72+ 72+ 72+ 72+ 72+ 72+ 72+ 72+ 72+ 72+ 72+ 72+ 72+ 72+ 72+ 72+ 72+ 72+ 72+ 72+ 72+ 72+ 72+ 72+ 72+ 72+ 72+ 72+ 72+ 72+ 72+ 72+ 72+ 72+ 72+ 72+ 72+ 72+ 72+ 72+ 72+ 72+ 72+ 72+ 72+ 72+ 72+ 72+ 72+ 72+ 72+ 72+ 72+ 72+ 72+ 72+ 72+ 72+ 72+ 72+ 72+ 72+ 72+ 72+ 72+ 72+ 72+ 72+ 72+ 72+ 72+ 72+ 72+ 72+ 72+ 72+ 72+ 72+ 72+ 72+ 72+ 72+ 72+ 72+ 72+ 72+ 72+ 72+ 72+ 72+ 72+ 72+ 72+ 72+ 72+ 72+ 72+ 72+ 72+ 72+ 72+ 72+ 72+ 72+ 72+ 72+ 72+ 72+ 72+ 72+ 72+ 72+ 72+ 72+ 72+ 72+ 72+ 72+ 72+ 72+ 72+ 72+ 72+ 72+ 72+ 72+ 72+ 72+ 72+ 72+ 72+ 72+ 72+ 72+ 72+ 72+ 72+ 72+ 72+ 72+ 72+ 72+ 72+ 72+ 72+ 72+ 72+ 72+ 72+ 72+ 72+ 72+ 72+ 72+ 72+ 72+ 72+ 72+ 72+ 72+ 72+ 72+ 72+ 72+ 72+ 72+ 72+ 72+ 72+ 72+ 72+ 72+ 72+ 72+ 72+ 72+ 72+ 72+ 72+ 72+ 72+ 72+ 72+ 72+ 72+ 72+ 72+ 72+ 72+ 72+ 72+ 72+ 72+ 72+ 72+ 72+ 72+ 72+ 72+ 72+ 72+ 72+ 72+ 72+ 72+ 72+ 72+ 72+ 72+ 72+ 72+ 72+ 72+ 72+ 72+ 72+ 72+ 72+ 72+ 72+ 72+ 72+ 72+ 72+ 72+ 72+ 72+ 72+ 72+ 72+ 72+ 72+ 72+ 72+ 72+ 72+ 72+ 72+ 72+ 72+ 72+ 72+ 72+ 72+ 72+ 72+ 72+ 72+ 72+ 72+ 72+ 72+ 72+ 72+ 72+ 72+ 72+ 72+ 72+ 72+ 72+ 72+ 72+ 72+ 72+ 72+ 72+ 72+ 72+ 72+ 72+ 72+ 72+ 72+ 72+ 72+ 72+ 72+ 72+ 72+ 72+ 72+ 72+ 72+ 72+ 72+ 72+ 72+ 72+ 72+ 72+ 72+ 72+ 72+ 72+ 72+ 72+ 72+ 72+ 72+ 72+ 72+ 72+ 72+ 72+ 72+ 72+ 72+ 72+ 72+ 72+ 72+ 72+ 72+ 72+ 72+ 72+ 72+ 72+ 72+ 72+ 72+ 72+ 72+ 72+ 72+ 72+ 72+ 72+ 72+ 72+ 72+ 72+ 72+ 72+ 72+ 72+ 72+ 72+ 72+ 72+ 72+ 72+ 72+ 72+ 72+ 72+ 72+ 72+ 72+ 72+ 72+ 72+ 72+ 72+ 72+ 72+ 72+ 72+ 72+ 72+ 72+ 72+ 72+ 72+ 72+ 72+ 72+ 72+ 72+ 72+ 72+ 72+ 72+ 72+ 72+ 72+ 72+ 72+ 72+ 72+ 72+ 72+ 72+ 72+ 72+ 72+ 72+ 72+ 72+ 72+ 72+ 72+ 72+ 72+ 72+ 72+ 72+ 72+ 72+ 72+ 72+ 72+ 72+ 72+ 72+ 72+ 72+ 72+ 72+ 72+ 72+ 72+ 72+ 72+ 72+ 72+ 72+ 72+ 72+ 72+ 72+ 72+ 72+ 72+ 72+ 72+ 72+ 72+ 72+ 72+ 72+ 72+ 72+ 72+ 72+ 72+ 72+ 72+ 72+ 72+ 72+ 72+ 72+ 72+ 72+ 72+ 72+ 72+ 72+ 72+ 72+ 72+ 72+ 72+ 72+ 72+ 72+ 72+ 72+ 72+ 72+ 72+ 72+ 72+ 72+ 72+ 72+ 72+ 72+ 72+ 72+ 72+ 72+ 72+ 72+ 72+ 72+ 72+ 72+ 72+ 72+ 72+ 72+ 72+ 72+ 72+ 72+ 72+ 72+ 72+ 72+ 72+ 72+ 72+ 72+ 72+ 72+ 72+ 72+ 72+ 72+ 72+ 72+ 72+ 72+ 72+ 72+ 72+ 72+ 72+ 72+ 72+ 72+ 72+ 72+ 72+ 72+ 72+ 72+ 72+ 72+ 72+ 72+ 72+ 72+ 72+ 72+ 72+ 72+ 72+ 72+ 72+ 72+ 72+ 72+ 72+ 72+ 72+ 72+ 72+ 72+ 72+ 72+ 72+ 72+ 72+ 72+ 72+ 72+ 72+ 72+ 72+ 72+ 72+ 72+ 72+ 72+ 72+ 72+ 72+ 72+ 72+ 72+ 72+ 72+ 72+ 72+ 72+ 72+ 72+ 72+ 72+ 72+ 72+ 72+ 72+ 72+ 72+ 72+ 72+ 72+ 72+ 72+ 72+ 72+ 72+ 72+ 72+ 72+ 72+ 72+ 72+ 72+ 72+ 72+ 72+ 72+ 72+ 72+ 72+ 72+ 72+ 72+ 72+ 72+ 72+ 72+ 72+ 72+ 72+ 72+ 72+ 72+ 72+ 72+ 72+ 72+ 72+ 72+ 72+ 72+ 72+ 72+ 72+ 72+ 72+ 72+ 72+ 72+ 72+ 72+ 72+ 72+ 72+ 72+ 72+ 72+ 72+ 72+ 72+ 72+ 72+ 72+ 2+ 2+ 2+ 2+ 2+ >:2+ >:2+ >:2+ >:2+ >:2+ >:2+ >:2+ >:2+ >:2+ >:2+ >:2+ >:2+ >:2+ >:2+ >:2+ >:2+ >:2+ >:2+ >:2+ >:2+ >:2+ >:2+ >:2+ >:2+ >:2+ >:2+ >:2+ >:2+ >:2+ >:2+ >:2+ >:2+ >:2+ >:2+ >:2+ >:2+ >:2+ >:2+ >:2+ >:2+ >:2+ >:2+ >:2+ >:2+ >:2+ >:2+ >:2+ >:2+ >:2+ >:2+ >:2+ >:2+ >:2+ >:2+ >:2+ >:2+ >:2+ >:2+ >:2+ >:2+ >:2+ >:2+ >:2+ >:2+ >:2+ >:2+ >:2+ >:2+ >:2+ >:2+ >:2+ >:2+ >:2+ >:2+ >:2+ >:2+ >:2+ >:2+ >:2+ >:2+ >:2+ >:2+ >:2+ >:2+ >:2+ >:2+ >:2+ >:2+ >:2+ >:2+ >:2+ >:2+ >:2+ >:2+ >:2+ >:2+ >:2+ >:2+ >:2+ >:2+ >:2+ >:2+ >:2+ >:2+ >:2+ >:2+ >:2+ >:2+ >:2+ >:2+ >:2+ >:2+ >:2+ >:2+ >:2+ >:2+ >:2+ >:2+ >:2+ >:2+ >:2+ >:2+ >:2+ >:2+ >:2+ >:2+ >:2+ >:2+ >:2+ >:2+ >:2+ >:2+ >:2+ >:2+ >:2+ >:2+ >:2+ >:2+ >:2+ >:2+ >:2+ >:2+ >:2+ >:2+ >:2+ >:2+ >:2+ >:2+ >:2+ >:2+ >:2+ >:2+ >:2+ >:2+ >:2+ >:2+ >:2+ >:2+ >:2+ >:2+ >:2+ >:2+ >:2+ >:2+ >:2+ >:2+ >:2+ >:2+ >:2+ >:2+ >:2+ >:2+ >:2+ >:2+ >:2+ >:2+ >:2+ >:2+ >:2+ >:2+ >:2+ >:2+ >:2+ >:2+ >:2+ >:2+ >:2+ >:2+ >:2+ >:2+ >:2+ >:2+ >:2+ >:2+ >:2+ >:2+ >:2+ >:2+ >:2+ >:2+ >:2+ >:2+ >:2+ >:2+ >:2+ >:2+ >:2+ >:2+ >:2+ >:2+ >:2+ >:2+ >:2+ >:2+ >:2+ >:2+ >:2+ >:2+ >:2+ >:2+ >:2+ >:2+ >:2+ >:2+ >:2+ >:2+ >:2+ >:2+ >:2+ >:2+ >:2+ >:2+ >:2+ >:2+ >:2+ >:2+ >:2+ >:2+ >:2+ >:2+ >:2+ >:2+ >:2+ >:2+ >:2+ >:2+ >:2+ >:2+ >:2+ >:2+ >:2+ >:2+ >:2+ >:2+ >:2+ >:2+ >:2+ >:2+ >:2+ >:2+ >:2+ >:2+ >:2+ >:2+ >:2+ >:2+ >:2+ >:2+ >:2+ >:2+ >:2+ >:2+ >:2+ >:2+ >:2+ >:2+ >:2+ >:2+ >:2+ >:2+ >:2+ >:2+ >:2+ >:2+ >:2+ >:2+ >:2+ >:2+ >:2+ >:2+ >:2+ >:2+ >:2+ >:2+ >:2+ >:2+ >:2+ >:2+ >:2+ >:2+ >:2+ >:2+ >:2+ >:2+ >:2+ >:2+ >:2+ >:2+ >:2+ >:2+ >:2+ >:2+ >:2+ >:2+ >:2+ >:2+ >:2+ >:2+ >:2+ >:2+ >:2+ >:2+ >:2+ >:2+ >:2+ >:2+ >:2+ >:2+ >:2+ >:2+ >:2+ >:2+ >:2+ >:2+ >:2+ >:2+ >:2+ >:2+ >:2+ >:2+ >:2+ >:2+ >:2+ >:2+ >:2+ >:2+ >:2+ >:2+ >:2+ >:2+ >:2+ >:2+ >:2+ >:2+ >:2+ >:2+ >:2+ >:2+ >:2+ >:2+ >:2+ >:2+ >:2+ >:2+ >:2+ >:2+ >:2+ >:2+ >:2+ >:2+ >:2+ >:2+ >:2+ >:2+ >:2+ >:2+ >:2+ >:2+ >:2+ >:2+ >:2+ >:2+ >:2+ >:2+ >:2+ >:2+ >:2+ >:2+ >:2+ >:2+ >:2+ >:2+ >:2+ >:2+ >:2+ >:2+ >:2+ >:2+ >:2+ >:2+ >:2+ >:2+ >:2+ >:2+ >:2+ >:2+ :2+ :2+ :2+ :2+ :2+ :2+ A:2+ A:2+ A:2+ A:2+ A:2+ A:2+ A:2+ A:2+ A:2+ A:2+ A:2+ A:2+ A:2+ A:2+ A:2+ A:2+ A:2+ A:2+ A:2+ A:2+ A:2+ A:2+ A:2+ A:2+ A:2+ A:2+ A:2+ A:2+ A:2+ A:2+ A:2+ A:2+ A:2+ A:2+ A:2+ A:2+ A:2+ A:2+ A:2+ A:2+ A:2+ A:2+ A:2+ A:2+ A:2+ A:2+ A:2+ A:2+ A:2+ A:2+ A:2+ A:2+ A:2+ A:2+ A:2+ A:2+ A:2+ A:2+ A:2+ A:2+ A:2+ A:2+ A:2+ A:2+ A:2+ A:2+ A:2+ A:2+ A:2+ A:2+ A:2+ A:2+ A:2+ A:2+ A:2+ A:2+ A:2+ A:2+ A:2+ A:2+ A:2+ A:2+ A:2+ A:2+ A:2+ A:2+ A:2+ A:2+ A:2+ A:2+ A:2+ A:2+ A:2+ A:2+ A:2+ A:2+ A:2+ A:2+ A:2+ A:2+ A:2+ A:2+ A:2+ A:2+ A:2+ A:2+ A:2+ A:2+ A:2+ A:2+ A:2+ A:2+ A:2+ A:2+ A:2+ A:2+ A:2+ A:2+ A:2+ A:2+ A:2+ A:2+ A:2+ A:2+ A:2+ A:2+ A:2+ A:2+ A:2+ A:2+ A:2+ A:2+ A:2+ A:2+ A:2+ A:2+ A:2+ A:2+ A:2+ A:2+ A:2+ A:2+ A:2+ A:2+ A:2+ A:2+ A:2+ A:2+ A:2+ A:2+ A:2+ A:2+ A:2+ A:2+ A:2+ A:2+ A:2+ A:2+ A:2+ A:2+ A:2+ A:2+ A:2+ A:2+ A:2+ A:2+ A:2+ A:2+ A:2+ A:2+ A:2+ A:2+ A:2+ A:2+ A:2+ A:2+ A:2+ A:2+ A:2+ A:2+ A:2+ A:2+ A:2+ A:2+ A:2+ A:2+ A:2+ A:2+ A:2+ A:2+ A:2+ A:2+ A:2+ A:2+ A:2+ A:2+ A:2+ A:2+ A:2+ A:2+ :2+ :2+ :2+ :2+ :2+ :@2+ :@2+ :@2+ :@2+ :@2+ :@2+ :@2+ :@2+ :@2+ :@2+ :@2+ :@2+ :@2+ :@2+ :@2+ :@2+ :@2+ :@2+ :@2+ :@2+ :@2+ :@2+ :@2+ :@2+ :@2+ :@2+ :@2+ :@2+ :@2+ :@2+ :@2+ :@2+ :@2+ :@2+ :@2+ :@2+ :@2+ :@2+ :@2+ :@2+ :@2+ :@2+ :@2+ :@2+ :@2+ :@2+ :@2+ :@2+ :@2+ :@2+ :@2+ :@2+ :@2+ :@2+ :@2+ :@2+ :@2+ :@2+ :@2+ :@2+ :@2+ :@2+ :@2+ :@2+ :@2+ :@2+ :@2+ :@2+ :@2+ :@2+ :@2+ :@2+ :@2+ :@2+ :@2+ :@2+ :@2+ :@2+ :@2+ :@2+ :@2+ :@2+ :@2+ :@2+ :@2+ :@2+ :@2+ :@2+ :@2+ :@2+ :@2+ :@2+ :@2+ :@2+ :@2+ :@2+ :@2+ :@2+ :@2+ :@2+ :@2+ :@2+ :@2+ :@2+ :@2+ :@2+ :@2+ :@2+ :@2+ :@2+ :@2+ :@2+ :@2+ :@2+ :@2+ :@2+ :@2+ :@2+ :@2+ :@2+ :@2+ :@2+ :@2+ :@2+ :@2+ :@2+ :@2+ :@2+ :@2+ :@2+ :@2+ :@2+ :@2+ :@2+ :@2+ :@2+ :@2+ :@2+ :@2+ :@2+ :@2+ :@2+ :@2+ :@2+ :@2+ :@2+ :@2+ :@2+ :@2+ :@2+ :@2+ :@2+ :@2+ :@2+ :@2+ :@2+ :@2+ :@2+ :@2+ :@2+ :@2+ :@2+ :@2+ :@2+ :@2+ :@2+ :@2+ :@2+ :@2+ :@2+ :@2+ :@2+ :@2+ :@2+ :@2+ :@2+ :@2+ :@2+ :@2+ :@2+ :@2+ :@2+ :@2+ :@2+ :@2+ :@2+ :@2+ :@2+ :@2+ :@2+ :@2+ :@2+ :@2+ :@2+ :@2+ :@2+ :@2+ @2+ @2+ @2+ @2+ @2+ 2+ + + + + + A2;7+ A2;7+ A2;7+ A2;7+ A2;7+ A2;7+ A2;7+ A2;7+ A2;7+ A2;7+ A2;7+ A2;7+ A2;7+ A2;7+ A2;7+ A2;7+ A2;7+ A2;7+ A2;7+ A2;7+ A2;7+ A2;7+ A2;7+ A2;7+ A2;7+ A2;7+ A2;7+ A2;7+ A2;7+ A2;7+ A2;7+ A2;7+ A2;7+ A2;7+ A2;7+ A2;7+ A2;7+ A2;7+ A2;7+ A2;7+ A2;7+ A2;7+ A2;7+ A2;7+ A2;7+ A2;7+ A2;7+ A2;7+ A2;7+ A2;7+ A2;7+ A2;7+ A2;7+ A2;7+ A2;7+ A2;7+ A2;7+ A2;7+ A2;7+ A2;7+ A2;7+ A2;7+ A2;7+ A2;7+ A2;7+ A2;7+ A2;7+ A2;7+ A2;7+ A2;7+ A2;7+ A2;7+ A2;7+ A2;7+ A2;7+ A2;7+ A2;7+ A2;7+ A2;7+ A2;7+ A2;7+ A2;7+ A2;7+ A2;7+ A2;7+ A2;7+ A2;7+ A2;7+ A2;7+ A2;7+ A2;7+ A2;7+ A2;7+ A2;7+ A2;7+ A2;7+ A2;7+ A2;7+ A2;7+ A2;7+ A2;7+ A2;7+ A2;7+ A2;7+ A2;7+ A2;7+ A2;7+ A2;7+ A2;7+ A2;7+ A2;7+ A2;7+ A2;7+ A2;7+ A2;7+ A2;7+ A2;7+ A2;7+ A2;7+ A2;7+ A2;7+ A2;7+ A2;7+ A2;7+ A2;7+ A2;7+ A2;7+ A2;7+ A2;7+ A2;7+ A2;7+ A2;7+ A2;7+ A2;7+ A2;7+ A2;7+ A2;7+ A2;7+ A2;7+ A2;7+ A2;7+ A2;7+ A2;7+ A2;7+ A2;7+ A2;7+ A2;7+ A2;7+ A2;7+ A2;7+ A2;7+ A2;7+ A2;7+ A2;7+ A2;7+ A2;7+ A2;7+ A2;7+ A2;7+ A2;7+ A2;7+ A2;7+ A2;7+ A2;7+ A2;7+ A2;7+ A2;7+ A2;7+ A2;7+ A2;7+ A2;7+ A2;7+ A2;7+ A2;7+ A2;7+ A2;7+ A2;7+ A2;7+ A2;7+ A2;7+ A2;7+ A2;7+ A2;7+ A2;7+ A2;7+ A2;7+ A2;7+ A2;7+ A2;7+ A2;7+ A2;7+ A2;7+ A2;7+ A2;7+ A2;7+ A2;7+ A2;7+ A2;7+ A2;7+ A2;7+ A2;7+ A2;7+ A2;7+ A2;7+ A2;7+ A2;7+ A2;7+ A2;7+ A2;7+ A2;7+ A2;7+ A2;7+ A2;7+ A2;7+ A2;7+ A2;7+ A2;7+ A2;7+ A2;7+ A2;7+ A2;7+ A2;7+ A2;7+ A2;7+ A2;7+ A2;7+ A2;7+ A2;7+ A2;7+ A2;7+ A2;7+ A2;7+ A2;7+ A2;7+ A2;7+ A2;7+ A2;7+ A2;7+ A2;7+ A2;7+ A2;7+ A2;7+ A2;7+ A2;7+ A2;7+ A2;7+ A2;7+ A2;7+ A2;7+ A2;7+ A2;7+ A2;7+ A2;7+ A2;7+ A2;7+ A2;7+ A2;7+ A2;7+ A2;7+ A2;7+ A2;7+ A2;7+ A2;7+ A2;7+ A2;7+ A2;7+ A2;7+ A2;7+ A2;7+ A2;7+ A2;7+ A2;7+ A2;7+ A2;7+ A2;7+ A2;7+ A2;7+ A2;7+ A2;7+ A2;7+ A2;7+ A2;7+ A2;7+ A2;7+ A2;7+ A2;7+ A2;7+ A2;7+ A2;7+ A2;7+ A2;7+ A2;7+ A2;7+ A2;7+ A2;7+ A2;7+ A2;7+ A2;7+ A2;7+ A2;7+ A2;7+ A2;7+ A2;7+ A2;7+ A2;7+ A2;7+ A2;7+ A2;7+ A2;7+ A2;7+ A2;7+ A2;7+ A2;7+ A2;7+ A2;7+ A2;7+ A2;7+ A2;7+ A2;7+ A2;7+ A2;7+ A2;7+ A2;7+ A2;7+ A2;7+ A2;7+ A2;7+ A2;7+ A2;7+ A2;7+ A2;7+ A2;7+ A2;7+ A2;7+ A2;7+ A2;7+ A2;7+ A2;7+ A2;7+ A2;7+ A2;7+ A2;7+ A2;7+ A2;7+ A2;7+ A2;7+ A2;7+ A2;7+ A2;7+ A2;7+ A2;7+ A2;7+ A2;7+ A2;7+ A2;7+ A2;7+ A2;7+ A2;7+ A2;7+ A2;7+ A2;7+ A2;7+ A2;7+ A2;7+ A2;7+ A2;7+ A2;7+ A2;7+ A2;7+ A2;7+ A2;7+ A2;7+ A2;7+ A2;7+ A2;7+ A2;7+ A2;7+ A2;7+ A2;7+ A2;7+ A2;7+ A2;7+ A2;7+ A2;7+ A2;7+ A2;7+ A2;7+ A2;7+ A2;7+ A2;7+ A2;7+ A2;7+ A2;7+ A2;7+ A2;7+ A2;7+ A2;7+ A2;7+ A2;7+ A2;7+ A2;7+ A2;7+ A2;7+ A2;7+ A2;7+ A2;7+ A2;7+ A2;7+ A2;7+ A2;7+ A2;7+ A2;7+ A2;7+ A2;7+ A2;7+ A2;7+ A2;7+ A2;7+ A2;7+ A2;7+ A2;7+ A2;7+ A2;7+ A2;7+ A2;7+ A2;7+ A2;7+ A2;7+ A2;7+ A2;7+ A2;7+ A2;7+ A2;7+ A2;7+ A2;7+ A2;7+ A2;7+ A2;7+ A2;7+ A2;7+ A2;7+ A2;7+ A2;7+ A2;7+ A2;7+ A2;7+ A2;7+ A2;7+ A2;7+ A2;7+ A2;7+ A2;7+ A2;7+ A2;7+ A2;7+ A2;7+ A2;7+ A2;7+ A2;7+ A2;7+ A2;7+ A2;7+ A2;7+ A2;7+ A2;7+ A2;7+ A2;7+ A2;7+ A2;7+ A2;7+ A2;7+ A2;7+ A2;7+ A2;7+ A2;7+ A2;7+ A2;7+ A2;7+ A2;7+ A2;7+ A2;7+ A2;7+ A2;7+ A2;7+ A2;7+ A2;7+ A2;7+ A2;7+ A2;7+ A2;7+ A2;7+ A2;7+ A2;7+ A2;7+ A2;7+ A2;7+ A2;7+ A2;7+ A2;7+ A2;7+ A2;7+ A2;7+ A2;7+ A2;7+ A2;7+ A2;7+ A2;7+ A2;7+ A2;7+ A2;7+ A2;7+ A2;7+ A2;7+ A2;7+ A2;7+ A2;7+ A2;7+ A2;7+ A2;7+ A2;7+ A2;7+ A2;7+ A2;7+ A2;7+ A2;7+ A2;7+ A2;7+ A2;7+ A2;7+ A2;7+ A2;7+ A2;7+ A2;7+ A2;7+ A2;7+ A2;7+ A2;7+ A2;7+ A2;7+ A2;7+ A2;7+ A2;7+ A2;7+ A2;7+ A2;7+ A2;7+ A2;7+ A2;7+ A2;7+ A2;7+ A2;7+ A2;7+ A2;7+ A2;7+ A2;7+ A2;7+ A2;7+ A2;7+ A2;7+ A2;7+ A2;7+ A2;7+ A2;7+ A2;7+ A2;7+ A2;7+ A2;7+ A2;7+ A2;7+ A2;7+ A2;7+ A2;7+ A2;7+ A2;7+ A2;7+ A2;7+ A2;7+ A2;7+ A2;7+ A2;7+ A2;7+ A2;7+ A2;7+ A2;7+ A2;7+ A2;7+ A2;7+ A2;7+ A2;7+ A2;7+ A2;7+ A2;7+ A2;7+ A2;7+ A2;7+ A2;7+ A2;7+ A2;7+ A2;7+ A2;7+ A2;7+ A2;7+ A2;7+ A2;7+ A2;7+ A2;7+ A2;7+ A2;7+ A2;7+ A2;7+ A2;7+ A2;7+ A2;7+ A2;7+ A2;7+ A2;7+ A2;7+ A2;7+ A2;7+ A2;7+ A2;7+ A2;7+ A2;7+ A2;7+ A2;7+ A2;7+ A2;7+ A2;7+ A2;7+ A2;7+ A2;7+ A2;7+ A2;7+ A2;7+ A2;7+ A2;7+ A2;7+ A2;7+ A2;7+ A2;7+ A2;7+ A2;7+ A2;7+ A2;7+ A2;7+ A2;7+ A2;7+ A2;7+ A2;7+ A2;7+ A2;7+ A2;7+ A2;7+ A2;7+ A2;7+ A2;7+ A2;7+ A2;7+ A2;7+ A2;7+ A2;7+ A2;7+ A2;7+ A2;7+ A2;7+ A2;7+ A2;7+ A2;7+ A2;7+ A2;7+ A2;7+ A2;7+ A2;7+ A2;7+ A2;7+ A2;7+ A2;7+ A2;7+ A2;7+ A2;7+ A2;7+ A2;7+ A2;7+ A2;7+ A2;7+ A2;7+ A2;7+ A2;7+ A2;7+ A2;7+ A2;7+ A2;7+ A2;7+ A2;7+ A2;7+ A2;7+ A2;7+ A2;7+ A2;7+ A2;7+ A2;7+ A2;7+ A2;7+ A2;7+ A2;7+ A2;7+ A2;7+ A2;7+ A2;7+ A2;7+ A2;7+ A2;7+ A2;7+ A2;7+ A2;7+ A2;7+ A2;7+ A2;7+ A2;7+ A2;7+ A2;7+ A2;7+ A2;7+ A2;7+ A2;7+ A2;7+ A2;7+ A2;7+ A2;7+ A2;7+ A2;7+ A2;7+ A2;7+ A2;7+ A2;7+ A2;7+ A2;7+ A2;7+ A2;7+ A2;7+ A2;7+ A2;7+ A2;7+ A2;7+ A2;7+ A2;7+ A2;7+ A2;7+ A2;7+ A2;7+ A2;7+ A2;7+ A2;7+ A2;7+ A2;7+ A2;7+ A2;7+ A2;7+ A2;7+ A2;7+ A2;7+ A2;7+ A2;7+ A2;7+ A2;7+ A2;7+ A2;7+ A2;7+ A2;7+ A2;7+ A2;7+ A2;7+ A2;7+ A2;7+ A2;7+ A2;7+ A2;7+ A2;7+ A2;7+ A2;7+ A2;7+ A2;7+ A2;7+ A2;7+ A2;7+ A2;7+ A2;7+ A2;7+ A2;7+ A2;7+ A2;7+ A2;7+ A2;7+ A2;7+ A2;7+ A2;7+ A2;7+ A2;7+ A2;7+ A2;7+ A2;7+ A2;7+ A2;7+ A2;7+ A2;7+ A2;7+ A2;7+ A2;7+ A2;7+ A2;7+ A2;7+ A2;7+ A2;7+ A2;7+ A2;7+ A2;7+ A2;7+ A2;7+ A2;7+ A2;7+ A2;7+ A2;7+ A2;7+ A2;7+ A2;7+ A2;7+ A2;7+ A2;7+ A2;7+ A2;7+ A2;7+ A2;7+ A2;7+ A2;7+ A2;7+ A2;7+ A2;7+ A2;7+ A2;7+ A2;7+ A2;7+ A2;7+ A2;7+ A2;7+ A2;7+ A2;7+ A2;7+ A2;7+ A2;7+ A2;7+ A2;7+ A2;7+ A2;7+ A2;7+ A2;7+ A2;7+ A2;7+ A2;7+ A2;7+ A2;7+ A2;7+ A2;7+ A2;7+ A2;7+ A2;7+ A2;7+ A2;7+ A2;7+ A2;7+ A2;7+ A2;7+ A2;7+ A2;7+ A2;7+ A2;7+ A2;7+ A2;7+ A2;7+ A2;7+ A2;7+ A2;7+ A2;7+ A2;7+ A2;7+ A2;7+ A2;7+ A2;7+ A2;7+ A2;7+ A2;7+ A2;7+ A2;7+ A2;7+ A2;7+ A2;7+ A2;7+ A2;7+ A2;7+ A2;7+ A2;7+ A2;7+ A2;7+ A2;7+ A2;7+ A2;7+ A2;7+ A2;7+ A2;7+ A2;7+ A2;7+ A2;7+ A2;7+ A2;7+ A2;7+ A2;7+ A2;7+ A2;7+ A2;7+ A2;7+ A2;7+ A2;7+ A2;7+ A2;7+ A2;7+ A2;7+ A2;7+ A2;7+ A2;7+ A2;7+ A2;7+ A2;7+ A2;7+ A2;7+ A2;7+ A2;7+ A2;7+ A2;7+ A2;7+ A2;7+ A2;7+ A2;7+ A2;7+ A2;7+ A2;7+ A2;7+ A2;7+ A2;7+ A2;7+ A2;7+ A2;7+ A2;7+ A2;7+ A2;7+ A2;7+ A2;7+ A2;7+ A2;7+ A2;7+ A2;7+ A2;7+ A2;7+ A2;7+ A2;7+ A2;7+ A2;7+ A2;7+ A2;7+ A2;7+ A2;7+ A2;7+ A2;7+ A2;7+ A2;7+ A2;7+ A2;7+ A2;7+ A2;7+ A2;7+ A2;7+ A2;7+ A2;7+ A2;7+ A2;7+ A2;7+ A2;7+ A2;7+ A2;7+ A2;7+ A2;7+ A2;7+ A2;7+ A2;7+ A2;7+ A2;7+ A2;7+ A2;7+ A2;7+ A2;7+ A2;7+ A2;7+ A2;7+ A2;7+ A2;7+ A2;7+ A2;7+ A2;7+ A2;7+ A2;7+ A2;7+ A2;7+ A2;7+ A2;7+ A2;7+ A2;7+ A2;7+ A2;7+ A2;7+ A2;7+ A2;7+ A2;7+ A2;7+ A2;7+ A2;7+ A2;7+ A2;7+ A2;7+ A2;7+ A2;7+ A2;7+ A2;7+ A2;7+ A2;7+ A2;7+ A2;7+ A2;7+ A2;7+ A2;7+ A2;7+ A2;7+ A2;7+ A2;7+ A2;7+ A2;7+ A2;7+ A2;7+ A2;7+ A2;7+ A2;7+ A2;7+ A2;7+ A2;7+ A2;7+ A2;7+ A2;7+ A2;7+ A2;7+ A2;7+ A2;7+ A2;7+ A2;7+ A2;7+ A2;7+ A2;7+ A2;7+ A2;7+ A2;7+ A2;7+ A2;7+ A2;7+ A2;7+ A2;7+ A2;7+ A2;7+ A2;7+ A2;7+ A2;7+ A2;7+ A2;7+ A2;7+ A2;7+ A2;7+ A2;7+ A2;7+ A2;7+ A2;7+ A2;7+ A2;7+ A2;7+ A2;7+ A2;7+ A2;7+ A2;7+ A2;7+ A2;7+ A2;7+ A2;7+ A2;7+ A2;7+ A2;7+ A2;7+ A2;7+ A2;7+ A2;7+ A2;7+ A2;7+ A2;7+ A2;7+ A2;7+ A2;7+ A2;7+ A2;7+ A2;7+ A2;7+ A2;7+ A2;7+ A2;7+ A2;7+ A2;7+ A2;7+ A2;7+ A2;7+ A2;7+ A2;7+ A2;7+ A2;7+ A2;7+ A2;7+ A2;7+ A2;7+ A2;7+ A2;7+ A2;7+ A2;7+ A2;7+ A2;7+ A2;7+ A2;7+ A2;7+ A2;7+ A2;7+ A2;7+ A2;7+ A2;7+ A2;7+ A2;7+ A2;7+ A2;7+ A2;7+ A2;7+ A2;7+ A2;7+ A2;7+ A2;7+ A2;7+ A2;7+ A2;7+ A2;7+ A2;7+ A2;7+ A2;7+ A2;7+ A2;7+ A2;7+ A2;7+ A2;7+ A2;7+ A2;7+ A2;7+ A2;7+ A2;7+ A2;7+ A2;7+ A2;7+ A2;7+ A2;7+ A2;7+ A2;7+ A2;7+ A2;7+ A2;7+ A2;7+ A2;7+ A2;7+ A2;7+ A2;7+ A2;7+ A2;7+ A2;7+ A2;7+ A2;7+ A2;7+ A2;7+ A2;7+ A2;7+ A2;7+ A2;7+ A2;7+ A2;7+ A2;7+ A2;7+ A2;7+ A2;7+ A2;7+ A2;7+ A2;7+ A2;7+ A2;7+ A2;7+ A2;7+ A2;7+ A2;7+ A2;7+ A2;7+ A2;7+ A2;7+ A2;7+ A2;7+ A2;7+ A2;7+ A2;7+ A2;7+ A2;7+ A2;7+ A2;7+ A2;7+ A2;7+ A2;7+ 2;7+ 2;7+ 2;7+ 2;7+ 2;7+ 2;7+ >2;7+ >2;7+ >2;7+ >2;7+ >2;7+ >2;7+ >2;7+ >2;7+ >2;7+ >2;7+ >2;7+ >2;7+ >2;7+ >2;7+ >2;7+ >2;7+ >2;7+ >2;7+ >2;7+ >2;7+ >2;7+ >2;7+ >2;7+ >2;7+ >2;7+ >2;7+ >2;7+ >2;7+ >2;7+ >2;7+ >2;7+ >2;7+ >2;7+ >2;7+ >2;7+ >2;7+ >2;7+ >2;7+ >2;7+ >2;7+ >2;7+ >2;7+ >2;7+ >2;7+ >2;7+ >2;7+ >2;7+ >2;7+ >2;7+ >2;7+ >2;7+ >2;7+ >2;7+ >2;7+ >2;7+ >2;7+ >2;7+ >2;7+ >2;7+ >2;7+ >2;7+ >2;7+ >2;7+ >2;7+ >2;7+ >2;7+ >2;7+ >2;7+ >2;7+ >2;7+ >2;7+ >2;7+ >2;7+ >2;7+ >2;7+ >2;7+ >2;7+ >2;7+ >2;7+ >2;7+ >2;7+ >2;7+ >2;7+ >2;7+ >2;7+ >2;7+ >2;7+ >2;7+ >2;7+ >2;7+ >2;7+ >2;7+ >2;7+ >2;7+ >2;7+ >2;7+ >2;7+ >2;7+ >2;7+ >2;7+ >2;7+ >2;7+ >2;7+ >2;7+ >2;7+ >2;7+ >2;7+ >2;7+ >2;7+ >2;7+ >2;7+ >2;7+ >2;7+ >2;7+ >2;7+ >2;7+ >2;7+ >2;7+ >2;7+ >2;7+ >2;7+ >2;7+ >2;7+ >2;7+ >2;7+ >2;7+ >2;7+ >2;7+ >2;7+ >2;7+ >2;7+ >2;7+ >2;7+ >2;7+ >2;7+ >2;7+ >2;7+ >2;7+ >2;7+ >2;7+ >2;7+ >2;7+ >2;7+ >2;7+ >2;7+ >2;7+ >2;7+ >2;7+ >2;7+ >2;7+ >2;7+ >2;7+ >2;7+ >2;7+ >2;7+ >2;7+ >2;7+ >2;7+ >2;7+ >2;7+ >2;7+ >2;7+ >2;7+ >2;7+ >2;7+ >2;7+ >2;7+ >2;7+ >2;7+ >2;7+ >2;7+ >2;7+ >2;7+ >2;7+ >2;7+ >2;7+ >2;7+ >2;7+ >2;7+ >2;7+ >2;7+ >2;7+ >2;7+ >2;7+ >2;7+ >2;7+ >2;7+ >2;7+ >2;7+ >2;7+ >2;7+ >2;7+ >2;7+ >2;7+ >2;7+ >2;7+ >2;7+ >2;7+ >2;7+ >2;7+ >2;7+ >2;7+ >2;7+ >2;7+ >2;7+ >2;7+ >2;7+ >2;7+ >2;7+ >2;7+ >2;7+ >2;7+ >2;7+ >2;7+ >2;7+ >2;7+ >2;7+ >2;7+ >2;7+ >2;7+ >2;7+ >2;7+ >2;7+ >2;7+ >2;7+ >2;7+ >2;7+ >2;7+ >2;7+ >2;7+ >2;7+ >2;7+ >2;7+ >2;7+ >2;7+ >2;7+ >2;7+ >2;7+ >2;7+ >2;7+ >2;7+ >2;7+ >2;7+ >2;7+ >2;7+ >2;7+ >2;7+ >2;7+ >2;7+ >2;7+ >2;7+ >2;7+ >2;7+ >2;7+ >2;7+ >2;7+ >2;7+ >2;7+ >2;7+ >2;7+ >2;7+ >2;7+ >2;7+ >2;7+ >2;7+ >2;7+ >2;7+ >2;7+ >2;7+ >2;7+ >2;7+ >2;7+ >2;7+ >2;7+ >2;7+ >2;7+ >2;7+ >2;7+ >2;7+ >2;7+ >2;7+ >2;7+ >2;7+ >2;7+ >2;7+ >2;7+ >2;7+ >2;7+ >2;7+ >2;7+ >2;7+ >2;7+ >2;7+ >2;7+ >2;7+ >2;7+ >2;7+ >2;7+ >2;7+ >2;7+ >2;7+ >2;7+ >2;7+ >2;7+ >2;7+ >2;7+ >2;7+ >2;7+ >2;7+ >2;7+ >2;7+ >2;7+ >2;7+ >2;7+ >2;7+ >2;7+ >2;7+ >2;7+ >2;7+ >2;7+ >2;7+ >2;7+ >2;7+ >2;7+ >2;7+ >2;7+ >2;7+ >2;7+ >2;7+ >2;7+ >2;7+ >2;7+ >2;7+ >2;7+ >2;7+ >2;7+ >2;7+ >2;7+ >2;7+ >2;7+ >2;7+ >2;7+ >2;7+ >2;7+ >2;7+ >2;7+ >2;7+ >2;7+ >2;7+ >2;7+ >2;7+ >2;7+ >2;7+ >2;7+ >2;7+ >2;7+ >2;7+ >2;7+ >2;7+ >2;7+ >2;7+ >2;7+ >2;7+ >2;7+ >2;7+ >2;7+ >2;7+ >2;7+ >2;7+ >2;7+ >2;7+ >2;7+ >2;7+ >2;7+ >2;7+ >2;7+ >2;7+ >2;7+ >2;7+ >2;7+ >2;7+ >2;7+ >2;7+ >2;7+ >2;7+ >2;7+ >2;7+ >2;7+ >2;7+ >2;7+ >2;7+ >2;7+ >2;7+ >2;7+ >2;7+ >2;7+ >2;7+ >2;7+ >2;7+ >2;7+ >2;7+ >2;7+ >2;7+ >2;7+ >2;7+ >2;7+ ;7+ ;7+ 7+ 0@<7+ 0@<7+ 0@<7+ 0@<7+ 0@<7+ 0@<7+ 0@<7+ 0@<7+ 0@<7+ 0@<7+ 0@<7+ 0@<7+ 0@<7+ 0@<7+ 0@<7+ 0@<7+ 0@<7+ 0@<7+ 0@<7+ 0@<7+ 0@<7+ 0@<7+ 0@<7+ 0@<7+ 0@<7+ 0@<7+ 0@<7+ 0@<7+ 0@<7+ 0@<7+ 0@<7+ 0@<7+ 0@<7+ 0@<7+ 0@<7+ 0@<7+ 0@<7+ 0@<7+ 0@<7+ 0@<7+ 0@<7+ 0@<7+ 0@<7+ 0@<7+ 0@<7+ 0@<7+ 0@<7+ 0@<7+ 0@<7+ 0@<7+ 0@<7+ 0@<7+ 0@<7+ 0@<7+ 0@<7+ 0@<7+ 0@<7+ 0@<7+ 0@<7+ 0@<7+ 0@<7+ 0@<7+ 0@<7+ 0@<7+ 0@<7+ 0@<7+ 0@<7+ 0@<7+ 0@<7+ 0@<7+ 0@<7+ 0@<7+ 0@<7+ 0@<7+ 0@<7+ 0@<7+ 0@<7+ 0@<7+ 0@<7+ 0@<7+ 0@<7+ 0@<7+ 0@<7+ 0@<7+ 0@<7+ 0@<7+ 0@<7+ 0@<7+ 0@<7+ 0@<7+ 0@<7+ 0@<7+ 0@<7+ 0@<7+ 0@<7+ 0@<7+ 0@<7+ 0@<7+ 0@<7+ 0@<7+ 0@<7+ 0@<7+ 0@<7+ 0@<7+ 0@<7+ 0@<7+ 0@<7+ 0@<7+ 0@<7+ 0@<7+ 0@<7+ 0@<7+ 0@<7+ 0@<7+ 0@<7+ 0@<7+ 0@<7+ 0@<7+ 0@<7+ 0@<7+ 0@<7+ 0@<7+ 0@<7+ 0@<7+ 0@<7+ 0@<7+ 0@<7+ 0@<7+ 0@<7+ 0@<7+ 0@<7+ 0@<7+ 0@<7+ 0@<7+ 0@<7+ 0@<7+ 0@<7+ 0@<7+ 0@<7+ 0@<7+ 0@<7+ 0@<7+ 0@<7+ 0@<7+ 0@<7+ 0@<7+ 0@<7+ 0@<7+ 0@<7+ 0@<7+ 0@<7+ 0@<7+ 0@<7+ 0@<7+ 0@<7+ 0@<7+ 0@<7+ 0@<7+ 0@<7+ 0@<7+ 0@<7+ 0@<7+ 0@<7+ 0@<7+ 0@<7+ 0@<7+ 0@<7+ 0@<7+ 0@<7+ 0@<7+ 0@<7+ 0@<7+ 0@<7+ 0@<7+ 0@<7+ 0@<7+ 0@<7+ 0@<7+ 0@<7+ 0@<7+ 0@<7+ 0@<7+ 0@<7+ 0@<7+ 0@<7+ 0@<7+ 0@<7+ 0@<7+ 0@<7+ 0@<7+ 0@<7+ 0@<7+ 0@<7+ 0@<7+ 0@<7+ 0@<7+ 0@<7+ 0@<7+ 0@<7+ 0@<7+ 0@<7+ 0@<7+ 0@<7+ 0@<7+ 0@<7+ 0@<7+ 0@<7+ 0@<7+ 0@<7+ 0@<7+ 0@<7+ 0@<7+ 0@<7+ 0@<7+ 0@<7+ 0@<7+ 0@<7+ 0@<7+ 0@<7+ 0@<7+ 0@<7+ 0@<7+ 0@<7+ 0@<7+ 0@<7+ 0@<7+ 0@<7+ 0@<7+ 0@<7+ 0@<7+ 0@<7+ 0@<7+ 0@<7+ 0@<7+ 0@<7+ 0@<7+ 0@<7+ 0@<7+ 0@<7+ 0@<7+ 0@<7+ 0@<7+ 0@<7+ 0@<7+ 0@<7+ 0@<7+ 0@<7+ 0@<7+ 0@<7+ 0@<7+ 0@<7+ 0@<7+ 0@<7+ 0@<7+ 0@<7+ 0@<7+ 0@<7+ 0@<7+ 0@<7+ 0@<7+ 0@<7+ 0@<7+ 0@<7+ 0@<7+ 0@<7+ 0@<7+ 0@<7+ 0@<7+ 0@<7+ 0@<7+ 0@<7+ 0@<7+ 0@<7+ 0@<7+ 0@<7+ 0@<7+ 0@<7+ 0@<7+ 0@<7+ 0@<7+ 0@<7+ 0@<7+ 0@<7+ 0@<7+ 0@<7+ 0@<7+ 0@<7+ 0@<7+ 0@<7+ 0@<7+ 0@<7+ 0@<7+ 0@<7+ 0@<7+ 0@<7+ 0@<7+ 0@<7+ 0@<7+ 0@<7+ 0@<7+ 0@<7+ 0@<7+ 0@<7+ 0@<7+ 0@<7+ 0@<7+ 0@<7+ 0@<7+ 0@<7+ 0@<7+ 0@<7+ 0@<7+ 0@<7+ 0@<7+ 0@<7+ 0@<7+ 0@<7+ 0@<7+ 0@<7+ 0@<7+ 0@<7+ 0@<7+ 0@<7+ 0@<7+ 0@<7+ 0@<7+ 0@<7+ 0@<7+ 0@<7+ 0@<7+ 0@<7+ 0@<7+ 0@<7+ 0@<7+ 0@<7+ 0@<7+ 0@<7+ 0@<7+ 0@<7+ 0@<7+ 0@<7+ 0@<7+ 0@<7+ 0@<7+ 0@<7+ 0@<7+ 0@<7+ 0@<7+ 0@<7+ 0@<7+ 0@<7+ 0@<7+ 0@<7+ 0@<7+ 0@<7+ 0@<7+ 0@<7+ 0@<7+ 0@<7+ 0@<7+ 0@<7+ 0@<7+ 0@<7+ 0@<7+ 0@<7+ 0@<7+ 0@<7+ 0@<7+ 0@<7+ 0@<7+ 0@<7+ 0@<7+ 0@<7+ 0@<7+ 0@<7+ 0@<7+ 0@<7+ 0@<7+ 0@<7+ 0@<7+ 0@<7+ 0@<7+ 0@<7+ 0@<7+ 0@<7+ 0@<7+ 0@<7+ 0@<7+ 0@<7+ 0@<7+ 0@<7+ 0@<7+ 0@<7+ 0@<7+ 0@<7+ 0@<7+ 0@<7+ 0@<7+ 0@<7+ 0@<7+ 0@<7+ 0@<7+ 0@<7+ 0@<7+ 0@<7+ 0@<7+ <7+ <7+ <7+ <7+ <7+ <7+ C<27+ C<27+ C<27+ C<27+ C<27+ C<27+ C<27+ C<27+ C<27+ C<27+ C<27+ C<27+ C<27+ C<27+ C<27+ C<27+ C<27+ C<27+ C<27+ C<27+ C<27+ C<27+ C<27+ C<27+ C<27+ C<27+ C<27+ C<27+ C<27+ C<27+ C<27+ C<27+ C<27+ C<27+ C<27+ C<27+ C<27+ C<27+ C<27+ C<27+ C<27+ C<27+ C<27+ C<27+ C<27+ C<27+ C<27+ C<27+ C<27+ C<27+ C<27+ C<27+ C<27+ C<27+ C<27+ C<27+ C<27+ C<27+ C<27+ C<27+ C<27+ C<27+ C<27+ C<27+ C<27+ C<27+ C<27+ C<27+ C<27+ C<27+ C<27+ C<27+ C<27+ C<27+ C<27+ C<27+ C<27+ C<27+ C<27+ C<27+ C<27+ C<27+ C<27+ C<27+ C<27+ C<27+ C<27+ C<27+ C<27+ C<27+ C<27+ C<27+ C<27+ C<27+ C<27+ C<27+ C<27+ C<27+ C<27+ C<27+ C<27+ C<27+ C<27+ C<27+ C<27+ C<27+ C<27+ C<27+ C<27+ C<27+ C<27+ C<27+ C<27+ C<27+ C<27+ C<27+ C<27+ C<27+ C<27+ C<27+ C<27+ C<27+ C<27+ C<27+ C<27+ C<27+ C<27+ C<27+ C<27+ C<27+ C<27+ C<27+ C<27+ C<27+ C<27+ C<27+ C<27+ C<27+ C<27+ C<27+ C<27+ C<27+ C<27+ C<27+ C<27+ C<27+ C<27+ C<27+ C<27+ C<27+ C<27+ C<27+ C<27+ C<27+ C<27+ C<27+ C<27+ C<27+ C<27+ C<27+ C<27+ C<27+ C<27+ C<27+ C<27+ C<27+ C<27+ C<27+ C<27+ C<27+ C<27+ C<27+ C<27+ C<27+ C<27+ C<27+ C<27+ C<27+ C<27+ C<27+ C<27+ C<27+ C<27+ C<27+ C<27+ C<27+ C<27+ C<27+ C<27+ C<27+ C<27+ C<27+ C<27+ C<27+ C<27+ C<27+ C<27+ C<27+ C<27+ C<27+ <27+ <27+ <27+ <27+ <27+ <27+ <B27+ <B27+ <B27+ <B27+ <B27+ <B27+ <B27+ <B27+ <B27+ <B27+ <B27+ <B27+ <B27+ <B27+ <B27+ <B27+ <B27+ <B27+ <B27+ <B27+ <B27+ <B27+ <B27+ <B27+ <B27+ <B27+ <B27+ <B27+ <B27+ <B27+ <B27+ <B27+ <B27+ <B27+ <B27+ <B27+ <B27+ <B27+ <B27+ <B27+ <B27+ <B27+ <B27+ <B27+ <B27+ <B27+ <B27+ <B27+ <B27+ <B27+ <B27+ <B27+ <B27+ <B27+ <B27+ <B27+ <B27+ <B27+ <B27+ <B27+ <B27+ <B27+ <B27+ <B27+ <B27+ <B27+ <B27+ <B27+ <B27+ <B27+ <B27+ <B27+ <B27+ <B27+ <B27+ <B27+ <B27+ <B27+ <B27+ <B27+ <B27+ <B27+ <B27+ <B27+ <B27+ <B27+ <B27+ <B27+ <B27+ <B27+ <B27+ <B27+ <B27+ <B27+ <B27+ <B27+ <B27+ <B27+ <B27+ <B27+ <B27+ <B27+ <B27+ <B27+ <B27+ <B27+ <B27+ <B27+ <B27+ <B27+ <B27+ <B27+ <B27+ <B27+ <B27+ <B27+ <B27+ <B27+ <B27+ <B27+ <B27+ <B27+ <B27+ <B27+ <B27+ <B27+ <B27+ <B27+ <B27+ <B27+ <B27+ <B27+ <B27+ <B27+ <B27+ <B27+ <B27+ <B27+ <B27+ <B27+ <B27+ <B27+ <B27+ <B27+ <B27+ <B27+ <B27+ <B27+ <B27+ <B27+ <B27+ <B27+ <B27+ <B27+ <B27+ <B27+ <B27+ <B27+ <B27+ <B27+ <B27+ <B27+ <B27+ <B27+ <B27+ <B27+ <B27+ <B27+ <B27+ <B27+ <B27+ <B27+ <B27+ <B27+ <B27+ <B27+ <B27+ <B27+ <B27+ <B27+ <B27+ <B27+ <B27+ <B27+ <B27+ <B27+ <B27+ <B27+ <B27+ <B27+ <B27+ <B27+ <B27+ <B27+ <B27+ <B27+ B27+ B27+ B27+ B27+ B27+ B27+ + + + + + C39<+ C39<+ C39<+ C39<+ C39<+ C39<+ C39<+ C39<+ C39<+ C39<+ C39<+ C39<+ C39<+ C39<+ C39<+ C39<+ C39<+ C39<+ C39<+ C39<+ C39<+ C39<+ C39<+ C39<+ C39<+ C39<+ C39<+ C39<+ C39<+ C39<+ C39<+ C39<+ C39<+ C39<+ C39<+ C39<+ C39<+ C39<+ C39<+ C39<+ C39<+ C39<+ C39<+ C39<+ C39<+ C39<+ C39<+ C39<+ C39<+ C39<+ C39<+ C39<+ C39<+ C39<+ C39<+ C39<+ C39<+ C39<+ C39<+ C39<+ C39<+ C39<+ C39<+ C39<+ C39<+ C39<+ C39<+ C39<+ C39<+ C39<+ C39<+ C39<+ C39<+ C39<+ C39<+ C39<+ C39<+ C39<+ C39<+ C39<+ C39<+ C39<+ C39<+ C39<+ C39<+ C39<+ C39<+ C39<+ C39<+ C39<+ C39<+ C39<+ C39<+ C39<+ C39<+ C39<+ C39<+ C39<+ C39<+ C39<+ C39<+ C39<+ C39<+ C39<+ C39<+ C39<+ C39<+ C39<+ C39<+ C39<+ C39<+ C39<+ C39<+ C39<+ C39<+ C39<+ C39<+ C39<+ C39<+ C39<+ C39<+ C39<+ C39<+ C39<+ C39<+ C39<+ C39<+ C39<+ C39<+ C39<+ C39<+ C39<+ C39<+ C39<+ C39<+ C39<+ C39<+ C39<+ C39<+ C39<+ C39<+ C39<+ C39<+ C39<+ C39<+ C39<+ C39<+ C39<+ C39<+ C39<+ C39<+ C39<+ C39<+ C39<+ C39<+ C39<+ C39<+ C39<+ C39<+ C39<+ C39<+ C39<+ C39<+ C39<+ C39<+ C39<+ C39<+ C39<+ C39<+ C39<+ C39<+ C39<+ C39<+ C39<+ C39<+ C39<+ C39<+ C39<+ C39<+ C39<+ C39<+ C39<+ C39<+ C39<+ C39<+ C39<+ C39<+ C39<+ C39<+ C39<+ C39<+ C39<+ C39<+ C39<+ C39<+ C39<+ C39<+ C39<+ C39<+ C39<+ C39<+ C39<+ C39<+ C39<+ C39<+ C39<+ C39<+ C39<+ C39<+ C39<+ C39<+ C39<+ C39<+ C39<+ C39<+ C39<+ C39<+ C39<+ C39<+ C39<+ C39<+ C39<+ C39<+ C39<+ C39<+ C39<+ C39<+ C39<+ C39<+ C39<+ C39<+ C39<+ C39<+ C39<+ C39<+ C39<+ C39<+ C39<+ C39<+ C39<+ C39<+ C39<+ C39<+ C39<+ C39<+ C39<+ C39<+ C39<+ C39<+ C39<+ C39<+ C39<+ C39<+ C39<+ C39<+ C39<+ C39<+ C39<+ C39<+ C39<+ C39<+ C39<+ C39<+ C39<+ C39<+ C39<+ C39<+ C39<+ C39<+ C39<+ C39<+ C39<+ C39<+ C39<+ C39<+ C39<+ C39<+ C39<+ C39<+ C39<+ C39<+ C39<+ C39<+ C39<+ C39<+ C39<+ C39<+ C39<+ C39<+ C39<+ C39<+ C39<+ C39<+ C39<+ C39<+ C39<+ C39<+ C39<+ C39<+ C39<+ C39<+ C39<+ C39<+ C39<+ C39<+ C39<+ C39<+ C39<+ C39<+ C39<+ C39<+ C39<+ C39<+ C39<+ C39<+ C39<+ C39<+ C39<+ C39<+ C39<+ C39<+ C39<+ C39<+ C39<+ C39<+ C39<+ C39<+ C39<+ C39<+ C39<+ C39<+ C39<+ C39<+ C39<+ C39<+ C39<+ C39<+ C39<+ C39<+ C39<+ C39<+ C39<+ C39<+ C39<+ C39<+ C39<+ C39<+ C39<+ C39<+ C39<+ C39<+ C39<+ C39<+ C39<+ C39<+ C39<+ C39<+ C39<+ C39<+ C39<+ C39<+ C39<+ C39<+ C39<+ C39<+ C39<+ C39<+ C39<+ C39<+ C39<+ C39<+ C39<+ C39<+ C39<+ C39<+ C39<+ C39<+ C39<+ C39<+ C39<+ C39<+ C39<+ C39<+ C39<+ C39<+ C39<+ C39<+ C39<+ C39<+ C39<+ C39<+ C39<+ C39<+ C39<+ C39<+ C39<+ C39<+ C39<+ C39<+ C39<+ C39<+ C39<+ C39<+ C39<+ C39<+ C39<+ C39<+ C39<+ C39<+ C39<+ C39<+ C39<+ C39<+ C39<+ C39<+ C39<+ C39<+ C39<+ C39<+ C39<+ C39<+ C39<+ C39<+ C39<+ C39<+ C39<+ C39<+ C39<+ C39<+ C39<+ C39<+ C39<+ C39<+ C39<+ C39<+ C39<+ C39<+ C39<+ C39<+ C39<+ C39<+ C39<+ C39<+ C39<+ C39<+ C39<+ C39<+ C39<+ C39<+ C39<+ C39<+ C39<+ C39<+ C39<+ C39<+ C39<+ C39<+ C39<+ C39<+ C39<+ C39<+ C39<+ C39<+ C39<+ C39<+ C39<+ C39<+ C39<+ C39<+ C39<+ C39<+ C39<+ C39<+ C39<+ C39<+ C39<+ C39<+ C39<+ C39<+ C39<+ C39<+ C39<+ C39<+ C39<+ C39<+ C39<+ C39<+ C39<+ C39<+ C39<+ C39<+ C39<+ C39<+ C39<+ C39<+ C39<+ C39<+ C39<+ C39<+ C39<+ C39<+ C39<+ C39<+ C39<+ C39<+ C39<+ C39<+ C39<+ C39<+ C39<+ C39<+ C39<+ C39<+ C39<+ C39<+ C39<+ C39<+ C39<+ C39<+ C39<+ C39<+ C39<+ C39<+ C39<+ C39<+ C39<+ C39<+ C39<+ C39<+ C39<+ C39<+ C39<+ C39<+ C39<+ C39<+ C39<+ C39<+ C39<+ C39<+ C39<+ C39<+ C39<+ C39<+ C39<+ C39<+ C39<+ C39<+ C39<+ C39<+ C39<+ C39<+ C39<+ C39<+ C39<+ C39<+ C39<+ C39<+ C39<+ C39<+ C39<+ C39<+ C39<+ C39<+ C39<+ C39<+ C39<+ C39<+ C39<+ C39<+ C39<+ C39<+ C39<+ C39<+ C39<+ C39<+ C39<+ C39<+ C39<+ C39<+ C39<+ C39<+ C39<+ C39<+ C39<+ C39<+ C39<+ C39<+ C39<+ C39<+ C39<+ C39<+ C39<+ C39<+ C39<+ C39<+ C39<+ C39<+ C39<+ C39<+ C39<+ C39<+ C39<+ C39<+ C39<+ C39<+ C39<+ C39<+ C39<+ C39<+ C39<+ C39<+ C39<+ C39<+ C39<+ C39<+ C39<+ C39<+ C39<+ C39<+ C39<+ C39<+ C39<+ C39<+ C39<+ C39<+ C39<+ C39<+ C39<+ C39<+ C39<+ C39<+ C39<+ C39<+ C39<+ C39<+ C39<+ C39<+ C39<+ C39<+ C39<+ C39<+ C39<+ C39<+ C39<+ C39<+ C39<+ C39<+ C39<+ C39<+ C39<+ C39<+ C39<+ C39<+ C39<+ C39<+ C39<+ C39<+ C39<+ C39<+ C39<+ C39<+ C39<+ C39<+ C39<+ C39<+ C39<+ C39<+ C39<+ C39<+ C39<+ C39<+ C39<+ C39<+ C39<+ C39<+ C39<+ C39<+ C39<+ C39<+ C39<+ C39<+ C39<+ C39<+ C39<+ C39<+ C39<+ C39<+ C39<+ C39<+ C39<+ C39<+ C39<+ C39<+ C39<+ C39<+ C39<+ C39<+ C39<+ C39<+ C39<+ C39<+ C39<+ C39<+ C39<+ C39<+ C39<+ C39<+ C39<+ C39<+ C39<+ C39<+ C39<+ C39<+ C39<+ C39<+ C39<+ C39<+ C39<+ C39<+ C39<+ C39<+ C39<+ C39<+ C39<+ C39<+ C39<+ C39<+ C39<+ C39<+ C39<+ C39<+ C39<+ C39<+ C39<+ C39<+ C39<+ C39<+ C39<+ C39<+ C39<+ C39<+ C39<+ C39<+ C39<+ C39<+ C39<+ C39<+ C39<+ C39<+ C39<+ C39<+ C39<+ C39<+ C39<+ C39<+ C39<+ C39<+ C39<+ C39<+ C39<+ C39<+ C39<+ C39<+ C39<+ C39<+ C39<+ C39<+ C39<+ C39<+ C39<+ C39<+ C39<+ C39<+ C39<+ C39<+ C39<+ C39<+ C39<+ C39<+ C39<+ C39<+ C39<+ C39<+ C39<+ C39<+ C39<+ C39<+ C39<+ C39<+ C39<+ C39<+ C39<+ C39<+ C39<+ C39<+ C39<+ C39<+ C39<+ C39<+ C39<+ C39<+ C39<+ C39<+ C39<+ C39<+ C39<+ C39<+ C39<+ C39<+ C39<+ C39<+ C39<+ C39<+ C39<+ C39<+ C39<+ C39<+ C39<+ C39<+ C39<+ C39<+ C39<+ C39<+ C39<+ C39<+ C39<+ C39<+ C39<+ C39<+ C39<+ C39<+ C39<+ C39<+ C39<+ C39<+ C39<+ C39<+ C39<+ C39<+ C39<+ C39<+ C39<+ C39<+ C39<+ C39<+ C39<+ C39<+ C39<+ C39<+ C39<+ C39<+ C39<+ C39<+ C39<+ C39<+ C39<+ C39<+ C39<+ C39<+ C39<+ C39<+ C39<+ C39<+ C39<+ C39<+ C39<+ C39<+ C39<+ C39<+ C39<+ C39<+ C39<+ C39<+ C39<+ C39<+ C39<+ C39<+ C39<+ C39<+ C39<+ C39<+ C39<+ C39<+ C39<+ C39<+ C39<+ C39<+ C39<+ C39<+ C39<+ C39<+ C39<+ C39<+ C39<+ C39<+ C39<+ C39<+ C39<+ C39<+ C39<+ C39<+ C39<+ C39<+ C39<+ C39<+ C39<+ C39<+ C39<+ C39<+ C39<+ C39<+ C39<+ C39<+ C39<+ C39<+ C39<+ C39<+ C39<+ C39<+ C39<+ C39<+ C39<+ C39<+ C39<+ C39<+ C39<+ C39<+ C39<+ C39<+ C39<+ C39<+ C39<+ C39<+ C39<+ C39<+ C39<+ C39<+ C39<+ C39<+ C39<+ C39<+ C39<+ C39<+ C39<+ C39<+ C39<+ C39<+ C39<+ C39<+ C39<+ C39<+ C39<+ C39<+ C39<+ C39<+ C39<+ C39<+ C39<+ C39<+ C39<+ C39<+ C39<+ C39<+ C39<+ C39<+ C39<+ C39<+ C39<+ C39<+ C39<+ C39<+ C39<+ C39<+ C39<+ C39<+ C39<+ C39<+ C39<+ C39<+ C39<+ C39<+ C39<+ C39<+ C39<+ C39<+ C39<+ C39<+ C39<+ C39<+ C39<+ C39<+ C39<+ C39<+ C39<+ C39<+ C39<+ C39<+ C39<+ C39<+ C39<+ C39<+ C39<+ C39<+ C39<+ C39<+ C39<+ C39<+ C39<+ C39<+ C39<+ C39<+ C39<+ C39<+ C39<+ C39<+ C39<+ C39<+ C39<+ C39<+ C39<+ C39<+ C39<+ C39<+ C39<+ C39<+ C39<+ C39<+ C39<+ C39<+ C39<+ C39<+ C39<+ C39<+ C39<+ C39<+ C39<+ C39<+ C39<+ C39<+ C39<+ C39<+ C39<+ C39<+ C39<+ C39<+ C39<+ C39<+ C39<+ C39<+ C39<+ C39<+ C39<+ C39<+ C39<+ C39<+ C39<+ C39<+ C39<+ C39<+ C39<+ C39<+ C39<+ C39<+ C39<+ C39<+ C39<+ C39<+ C39<+ C39<+ C39<+ C39<+ C39<+ C39<+ C39<+ C39<+ C39<+ C39<+ C39<+ C39<+ C39<+ C39<+ C39<+ C39<+ C39<+ C39<+ C39<+ C39<+ C39<+ C39<+ C39<+ C39<+ C39<+ C39<+ C39<+ C39<+ C39<+ C39<+ C39<+ C39<+ C39<+ C39<+ C39<+ C39<+ C39<+ C39<+ C39<+ C39<+ C39<+ C39<+ C39<+ C39<+ C39<+ C39<+ C39<+ C39<+ C39<+ C39<+ C39<+ C39<+ C39<+ C39<+ C39<+ C39<+ C39<+ C39<+ C39<+ C39<+ C39<+ C39<+ C39<+ C39<+ C39<+ C39<+ C39<+ C39<+ C39<+ C39<+ C39<+ C39<+ C39<+ C39<+ C39<+ C39<+ C39<+ C39<+ C39<+ C39<+ C39<+ C39<+ C39<+ C39<+ C39<+ C39<+ C39<+ C39<+ C39<+ C39<+ C39<+ C39<+ C39<+ C39<+ C39<+ C39<+ C39<+ C39<+ C39<+ C39<+ C39<+ C39<+ C39<+ C39<+ C39<+ C39<+ C39<+ C39<+ C39<+ C39<+ C39<+ C39<+ C39<+ C39<+ C39<+ C39<+ C39<+ C39<+ C39<+ C39<+ C39<+ C39<+ C39<+ C39<+ C39<+ C39<+ C39<+ C39<+ C39<+ C39<+ C39<+ C39<+ C39<+ C39<+ C39<+ C39<+ C39<+ C39<+ C39<+ C39<+ C39<+ C39<+ C39<+ C39<+ C39<+ C39<+ C39<+ C39<+ C39<+ C39<+ C39<+ C39<+ C39<+ C39<+ C39<+ C39<+ C39<+ C39<+ C39<+ C39<+ 39<+ 39<+ 39<+ 39<+ 39<+ 39<+ E39<+ E39<+ E39<+ E39<+ E39<+ E39<+ E39<+ E39<+ E39<+ E39<+ E39<+ E39<+ E39<+ E39<+ E39<+ E39<+ E39<+ E39<+ E39<+ E39<+ E39<+ E39<+ E39<+ E39<+ E39<+ E39<+ E39<+ E39<+ E39<+ E39<+ E39<+ E39<+ E39<+ E39<+ E39<+ E39<+ E39<+ E39<+ E39<+ E39<+ E39<+ E39<+ E39<+ E39<+ E39<+ E39<+ E39<+ E39<+ E39<+ E39<+ E39<+ E39<+ E39<+ E39<+ E39<+ E39<+ E39<+ E39<+ E39<+ E39<+ E39<+ E39<+ E39<+ E39<+ E39<+ E39<+ E39<+ E39<+ E39<+ E39<+ E39<+ E39<+ E39<+ E39<+ E39<+ E39<+ E39<+ E39<+ E39<+ E39<+ E39<+ E39<+ E39<+ E39<+ E39<+ E39<+ E39<+ E39<+ E39<+ E39<+ E39<+ E39<+ E39<+ E39<+ E39<+ E39<+ E39<+ E39<+ E39<+ E39<+ E39<+ E39<+ E39<+ E39<+ E39<+ E39<+ E39<+ E39<+ E39<+ E39<+ E39<+ E39<+ E39<+ E39<+ E39<+ E39<+ E39<+ E39<+ E39<+ E39<+ E39<+ E39<+ E39<+ E39<+ E39<+ E39<+ E39<+ E39<+ E39<+ E39<+ E39<+ E39<+ E39<+ E39<+ E39<+ E39<+ E39<+ E39<+ E39<+ E39<+ E39<+ E39<+ E39<+ E39<+ E39<+ E39<+ E39<+ E39<+ E39<+ E39<+ E39<+ E39<+ E39<+ E39<+ E39<+ E39<+ E39<+ E39<+ E39<+ E39<+ E39<+ E39<+ E39<+ E39<+ E39<+ E39<+ E39<+ E39<+ E39<+ E39<+ E39<+ E39<+ E39<+ E39<+ E39<+ E39<+ E39<+ E39<+ E39<+ E39<+ E39<+ E39<+ E39<+ E39<+ E39<+ E39<+ E39<+ E39<+ E39<+ E39<+ E39<+ E39<+ E39<+ E39<+ E39<+ E39<+ E39<+ E39<+ E39<+ E39<+ E39<+ E39<+ E39<+ E39<+ E39<+ E39<+ E39<+ E39<+ E39<+ E39<+ E39<+ E39<+ E39<+ E39<+ E39<+ E39<+ E39<+ E39<+ E39<+ E39<+ E39<+ E39<+ E39<+ E39<+ E39<+ E39<+ E39<+ E39<+ E39<+ E39<+ E39<+ E39<+ E39<+ E39<+ E39<+ E39<+ E39<+ E39<+ E39<+ E39<+ E39<+ E39<+ E39<+ E39<+ E39<+ E39<+ E39<+ E39<+ E39<+ E39<+ E39<+ E39<+ E39<+ E39<+ E39<+ E39<+ E39<+ E39<+ E39<+ E39<+ E39<+ E39<+ E39<+ E39<+ E39<+ E39<+ E39<+ E39<+ E39<+ E39<+ E39<+ E39<+ E39<+ E39<+ E39<+ E39<+ E39<+ E39<+ E39<+ E39<+ E39<+ E39<+ E39<+ E39<+ E39<+ E39<+ E39<+ E39<+ E39<+ E39<+ E39<+ E39<+ E39<+ E39<+ E39<+ E39<+ E39<+ E39<+ E39<+ E39<+ E39<+ E39<+ E39<+ E39<+ E39<+ E39<+ E39<+ E39<+ E39<+ E39<+ E39<+ E39<+ E39<+ E39<+ E39<+ E39<+ E39<+ E39<+ E39<+ E39<+ E39<+ E39<+ E39<+ E39<+ E39<+ E39<+ E39<+ E39<+ E39<+ E39<+ E39<+ E39<+ E39<+ E39<+ E39<+ E39<+ E39<+ E39<+ E39<+ E39<+ E39<+ E39<+ E39<+ E39<+ E39<+ E39<+ E39<+ E39<+ E39<+ E39<+ E39<+ E39<+ E39<+ E39<+ E39<+ E39<+ E39<+ E39<+ E39<+ E39<+ E39<+ E39<+ E39<+ E39<+ E39<+ E39<+ E39<+ E39<+ E39<+ E39<+ E39<+ E39<+ E39<+ E39<+ E39<+ E39<+ E39<+ E39<+ E39<+ E39<+ E39<+ E39<+ E39<+ E39<+ E39<+ E39<+ E39<+ E39<+ E39<+ E39<+ E39<+ E39<+ E39<+ E39<+ E39<+ E39<+ E39<+ E39<+ E39<+ E39<+ E39<+ E39<+ E39<+ E39<+ E39<+ E39<+ 39<+ 39<+ 39<+ 39<+ 39<+ B39<+ B39<+ B39<+ B39<+ B39<+ B39<+ B39<+ B39<+ B39<+ B39<+ B39<+ B39<+ B39<+ B39<+ B39<+ B39<+ B39<+ B39<+ B39<+ B39<+ B39<+ B39<+ B39<+ B39<+ B39<+ B39<+ B39<+ B39<+ B39<+ B39<+ B39<+ B39<+ B39<+ B39<+ B39<+ B39<+ B39<+ B39<+ B39<+ B39<+ B39<+ B39<+ B39<+ B39<+ B39<+ B39<+ B39<+ B39<+ B39<+ B39<+ B39<+ B39<+ B39<+ B39<+ B39<+ B39<+ B39<+ B39<+ B39<+ B39<+ B39<+ B39<+ B39<+ B39<+ B39<+ B39<+ B39<+ B39<+ B39<+ B39<+ B39<+ B39<+ B39<+ B39<+ B39<+ B39<+ B39<+ B39<+ B39<+ B39<+ B39<+ B39<+ B39<+ B39<+ B39<+ B39<+ B39<+ B39<+ B39<+ B39<+ B39<+ B39<+ B39<+ B39<+ B39<+ B39<+ B39<+ B39<+ B39<+ B39<+ B39<+ B39<+ B39<+ B39<+ B39<+ B39<+ B39<+ B39<+ B39<+ B39<+ B39<+ B39<+ B39<+ B39<+ B39<+ B39<+ B39<+ B39<+ B39<+ B39<+ B39<+ B39<+ B39<+ B39<+ B39<+ B39<+ B39<+ B39<+ B39<+ B39<+ B39<+ B39<+ B39<+ B39<+ B39<+ B39<+ B39<+ B39<+ B39<+ B39<+ B39<+ B39<+ B39<+ B39<+ B39<+ B39<+ B39<+ B39<+ B39<+ B39<+ B39<+ B39<+ B39<+ B39<+ B39<+ B39<+ B39<+ B39<+ B39<+ B39<+ B39<+ B39<+ B39<+ B39<+ B39<+ B39<+ B39<+ B39<+ B39<+ B39<+ B39<+ B39<+ B39<+ B39<+ B39<+ B39<+ B39<+ B39<+ B39<+ B39<+ B39<+ B39<+ B39<+ B39<+ B39<+ B39<+ B39<+ B39<+ B39<+ B39<+ B39<+ B39<+ B39<+ B39<+ B39<+ B39<+ B39<+ B39<+ B39<+ B39<+ 39<+ 39<+ 39<+ 39<+ 39<+ 39<+ C39<+ C39<+ C39<+ C39<+ C39<+ C39<+ C39<+ C39<+ C39<+ C39<+ C39<+ C39<+ C39<+ C39<+ C39<+ C39<+ C39<+ C39<+ C39<+ C39<+ C39<+ C39<+ C39<+ C39<+ C39<+ C39<+ C39<+ C39<+ C39<+ C39<+ C39<+ C39<+ C39<+ C39<+ C39<+ C39<+ C39<+ C39<+ C39<+ C39<+ C39<+ C39<+ C39<+ C39<+ C39<+ C39<+ C39<+ C39<+ C39<+ C39<+ C39<+ C39<+ C39<+ C39<+ C39<+ C39<+ C39<+ C39<+ C39<+ C39<+ C39<+ C39<+ C39<+ C39<+ C39<+ C39<+ C39<+ C39<+ C39<+ C39<+ C39<+ C39<+ C39<+ C39<+ C39<+ C39<+ C39<+ C39<+ C39<+ C39<+ C39<+ C39<+ C39<+ C39<+ C39<+ C39<+ C39<+ C39<+ C39<+ C39<+ C39<+ C39<+ C39<+ C39<+ C39<+ C39<+ C39<+ C39<+ C39<+ C39<+ C39<+ C39<+ C39<+ C39<+ C39<+ C39<+ C39<+ C39<+ C39<+ C39<+ C39<+ C39<+ C39<+ C39<+ C39<+ C39<+ C39<+ C39<+ C39<+ C39<+ C39<+ C39<+ C39<+ C39<+ C39<+ C39<+ C39<+ C39<+ C39<+ C39<+ C39<+ C39<+ C39<+ C39<+ C39<+ C39<+ C39<+ C39<+ C39<+ C39<+ C39<+ C39<+ C39<+ C39<+ C39<+ C39<+ C39<+ C39<+ C39<+ C39<+ C39<+ C39<+ C39<+ C39<+ C39<+ C39<+ C39<+ C39<+ C39<+ C39<+ C39<+ C39<+ C39<+ C39<+ C39<+ C39<+ C39<+ C39<+ C39<+ C39<+ C39<+ C39<+ C39<+ C39<+ C39<+ C39<+ C39<+ C39<+ C39<+ C39<+ C39<+ C39<+ C39<+ C39<+ C39<+ C39<+ C39<+ C39<+ C39<+ C39<+ C39<+ C39<+ C39<+ C39<+ C39<+ C39<+ C39<+ C39<+ C39<+ C39<+ 39<+ 39<+ 39<+ 39<+ 39<+ 39<+ B39<+ B39<+ B39<+ B39<+ B39<+ B39<+ B39<+ B39<+ B39<+ B39<+ B39<+ B39<+ B39<+ B39<+ B39<+ B39<+ B39<+ B39<+ B39<+ B39<+ B39<+ B39<+ B39<+ B39<+ B39<+ B39<+ B39<+ B39<+ B39<+ B39<+ B39<+ B39<+ B39<+ B39<+ B39<+ B39<+ B39<+ B39<+ B39<+ B39<+ B39<+ B39<+ B39<+ B39<+ B39<+ B39<+ B39<+ B39<+ B39<+ B39<+ B39<+ B39<+ B39<+ B39<+ B39<+ B39<+ B39<+ B39<+ B39<+ B39<+ B39<+ B39<+ B39<+ B39<+ B39<+ B39<+ B39<+ B39<+ B39<+ B39<+ B39<+ B39<+ B39<+ B39<+ B39<+ B39<+ B39<+ B39<+ B39<+ B39<+ B39<+ B39<+ B39<+ B39<+ B39<+ B39<+ B39<+ B39<+ B39<+ B39<+ B39<+ B39<+ B39<+ B39<+ B39<+ B39<+ B39<+ B39<+ B39<+ B39<+ B39<+ B39<+ B39<+ B39<+ B39<+ B39<+ B39<+ B39<+ B39<+ B39<+ B39<+ B39<+ B39<+ B39<+ B39<+ B39<+ B39<+ B39<+ B39<+ B39<+ B39<+ B39<+ B39<+ B39<+ B39<+ B39<+ B39<+ B39<+ B39<+ B39<+ B39<+ B39<+ B39<+ B39<+ B39<+ B39<+ B39<+ B39<+ B39<+ B39<+ B39<+ B39<+ B39<+ B39<+ B39<+ B39<+ B39<+ B39<+ B39<+ B39<+ B39<+ B39<+ B39<+ B39<+ B39<+ B39<+ B39<+ B39<+ B39<+ B39<+ B39<+ B39<+ B39<+ B39<+ B39<+ B39<+ B39<+ B39<+ B39<+ B39<+ B39<+ B39<+ B39<+ B39<+ B39<+ B39<+ B39<+ B39<+ B39<+ B39<+ B39<+ B39<+ B39<+ B39<+ B39<+ B39<+ B39<+ B39<+ B39<+ B39<+ B39<+ B39<+ B39<+ B39<+ B39<+ B39<+ B39<+ B39<+ B39<+ B39<+ 39<+ 39<+ 39<+ 39<+ 39<+ 39<+ C39<+ C39<+ C39<+ C39<+ C39<+ C39<+ C39<+ C39<+ C39<+ C39<+ C39<+ C39<+ C39<+ C39<+ C39<+ C39<+ C39<+ C39<+ C39<+ C39<+ C39<+ C39<+ C39<+ C39<+ C39<+ C39<+ C39<+ C39<+ C39<+ C39<+ C39<+ C39<+ C39<+ C39<+ C39<+ C39<+ C39<+ C39<+ C39<+ C39<+ C39<+ C39<+ C39<+ C39<+ C39<+ C39<+ C39<+ C39<+ C39<+ C39<+ C39<+ C39<+ C39<+ C39<+ C39<+ C39<+ C39<+ C39<+ C39<+ C39<+ C39<+ C39<+ C39<+ C39<+ C39<+ C39<+ C39<+ C39<+ C39<+ C39<+ C39<+ C39<+ C39<+ C39<+ C39<+ C39<+ C39<+ C39<+ C39<+ C39<+ C39<+ C39<+ C39<+ C39<+ C39<+ C39<+ C39<+ C39<+ C39<+ C39<+ C39<+ C39<+ C39<+ C39<+ C39<+ C39<+ C39<+ C39<+ C39<+ C39<+ C39<+ C39<+ C39<+ C39<+ C39<+ C39<+ C39<+ C39<+ C39<+ C39<+ C39<+ C39<+ C39<+ C39<+ C39<+ C39<+ C39<+ C39<+ C39<+ C39<+ C39<+ C39<+ C39<+ C39<+ C39<+ C39<+ C39<+ C39<+ C39<+ C39<+ C39<+ C39<+ C39<+ C39<+ C39<+ C39<+ C39<+ C39<+ C39<+ C39<+ C39<+ C39<+ C39<+ C39<+ C39<+ C39<+ C39<+ C39<+ C39<+ C39<+ C39<+ C39<+ C39<+ C39<+ C39<+ C39<+ C39<+ C39<+ C39<+ C39<+ C39<+ C39<+ C39<+ C39<+ C39<+ C39<+ C39<+ C39<+ C39<+ C39<+ C39<+ C39<+ C39<+ C39<+ C39<+ C39<+ C39<+ C39<+ C39<+ C39<+ C39<+ C39<+ C39<+ C39<+ C39<+ C39<+ C39<+ C39<+ C39<+ C39<+ C39<+ C39<+ C39<+ C39<+ C39<+ C39<+ C39<+ C39<+ C39<+ C39<+ + + + + + E+4:= E+4:= E+4:= E+4:= E+4:= E+4:= E+4:= E+4:= E+4:= E+4:= E+4:= E+4:= E+4:= E+4:= E+4:= E+4:= E+4:= E+4:= E+4:= E+4:= E+4:= E+4:= E+4:= E+4:= E+4:= E+4:= E+4:= E+4:= E+4:= E+4:= E+4:= E+4:= E+4:= E+4:= E+4:= E+4:= E+4:= E+4:= E+4:= E+4:= E+4:= E+4:= E+4:= E+4:= E+4:= E+4:= E+4:= E+4:= E+4:= E+4:= E+4:= E+4:= E+4:= E+4:= E+4:= E+4:= E+4:= E+4:= E+4:= E+4:= E+4:= E+4:= E+4:= E+4:= E+4:= E+4:= E+4:= E+4:= E+4:= E+4:= E+4:= E+4:= E+4:= E+4:= E+4:= E+4:= E+4:= E+4:= E+4:= E+4:= E+4:= E+4:= E+4:= E+4:= E+4:= E+4:= E+4:= E+4:= E+4:= E+4:= E+4:= E+4:= E+4:= E+4:= E+4:= E+4:= E+4:= E+4:= E+4:= E+4:= E+4:= E+4:= E+4:= E+4:= E+4:= E+4:= E+4:= E+4:= E+4:= E+4:= E+4:= E+4:= E+4:= E+4:= E+4:= E+4:= E+4:= E+4:= E+4:= E+4:= E+4:= E+4:= E+4:= E+4:= E+4:= E+4:= E+4:= E+4:= E+4:= E+4:= E+4:= E+4:= E+4:= E+4:= E+4:= E+4:= E+4:= E+4:= E+4:= E+4:= E+4:= E+4:= E+4:= E+4:= E+4:= E+4:= E+4:= E+4:= E+4:= E+4:= E+4:= E+4:= E+4:= E+4:= E+4:= E+4:= E+4:= E+4:= E+4:= E+4:= E+4:= E+4:= E+4:= E+4:= E+4:= E+4:= E+4:= E+4:= E+4:= E+4:= E+4:= E+4:= E+4:= E+4:= E+4:= E+4:= E+4:= E+4:= E+4:= E+4:= E+4:= E+4:= E+4:= E+4:= E+4:= E+4:= E+4:= E+4:= E+4:= E+4:= E+4:= E+4:= E+4:= E+4:= E+4:= E+4:= E+4:= E+4:= E+4:= E+4:= +4:= +4:= +4:= +4:= +4:= +4:= C+4:= C+4:= C+4:= C+4:= C+4:= C+4:= C+4:= C+4:= C+4:= C+4:= C+4:= C+4:= C+4:= C+4:= C+4:= C+4:= C+4:= C+4:= C+4:= C+4:= C+4:= C+4:= C+4:= C+4:= C+4:= C+4:= C+4:= C+4:= C+4:= C+4:= C+4:= C+4:= C+4:= C+4:= C+4:= C+4:= C+4:= C+4:= C+4:= C+4:= C+4:= C+4:= C+4:= C+4:= C+4:= C+4:= C+4:= C+4:= C+4:= C+4:= C+4:= C+4:= C+4:= C+4:= C+4:= C+4:= C+4:= C+4:= C+4:= C+4:= C+4:= C+4:= C+4:= C+4:= C+4:= C+4:= C+4:= C+4:= C+4:= C+4:= C+4:= C+4:= C+4:= C+4:= C+4:= C+4:= C+4:= C+4:= C+4:= C+4:= C+4:= C+4:= C+4:= C+4:= C+4:= C+4:= C+4:= C+4:= C+4:= C+4:= C+4:= C+4:= C+4:= C+4:= C+4:= C+4:= C+4:= C+4:= C+4:= C+4:= C+4:= C+4:= C+4:= C+4:= C+4:= C+4:= C+4:= C+4:= C+4:= C+4:= C+4:= C+4:= C+4:= C+4:= C+4:= C+4:= C+4:= C+4:= C+4:= C+4:= C+4:= C+4:= C+4:= C+4:= C+4:= C+4:= C+4:= C+4:= C+4:= C+4:= C+4:= C+4:= C+4:= C+4:= C+4:= C+4:= C+4:= C+4:= C+4:= C+4:= C+4:= C+4:= C+4:= C+4:= C+4:= C+4:= C+4:= C+4:= C+4:= C+4:= C+4:= C+4:= C+4:= C+4:= C+4:= C+4:= C+4:= C+4:= C+4:= C+4:= C+4:= C+4:= C+4:= C+4:= C+4:= C+4:= C+4:= C+4:= C+4:= C+4:= C+4:= C+4:= C+4:= C+4:= C+4:= C+4:= C+4:= C+4:= C+4:= C+4:= C+4:= C+4:= C+4:= C+4:= C+4:= C+4:= C+4:= C+4:= C+4:= C+4:= C+4:= C+4:= C+4:= C+4:= C+4:= C+4:= C+4:= C+4:= C+4:= C+4:= +4:= +4:= +4:= +4:= +4:= +4:= E+4:= E+4:= E+4:= E+4:= E+4:= E+4:= E+4:= E+4:= E+4:= E+4:= E+4:= E+4:= E+4:= E+4:= E+4:= E+4:= E+4:= E+4:= E+4:= E+4:= E+4:= E+4:= E+4:= E+4:= E+4:= E+4:= E+4:= E+4:= E+4:= E+4:= E+4:= E+4:= E+4:= E+4:= E+4:= E+4:= E+4:= E+4:= E+4:= E+4:= E+4:= E+4:= E+4:= E+4:= E+4:= E+4:= E+4:= E+4:= E+4:= E+4:= E+4:= E+4:= E+4:= E+4:= E+4:= E+4:= E+4:= E+4:= E+4:= E+4:= E+4:= E+4:= E+4:= E+4:= E+4:= E+4:= E+4:= E+4:= E+4:= E+4:= E+4:= E+4:= E+4:= E+4:= E+4:= E+4:= E+4:= E+4:= E+4:= E+4:= E+4:= E+4:= E+4:= E+4:= E+4:= E+4:= E+4:= E+4:= E+4:= E+4:= E+4:= E+4:= E+4:= E+4:= E+4:= E+4:= E+4:= E+4:= E+4:= E+4:= E+4:= E+4:= E+4:= E+4:= E+4:= E+4:= E+4:= E+4:= E+4:= E+4:= E+4:= E+4:= E+4:= E+4:= E+4:= E+4:= E+4:= E+4:= E+4:= E+4:= E+4:= E+4:= E+4:= E+4:= E+4:= E+4:= E+4:= E+4:= E+4:= E+4:= E+4:= E+4:= E+4:= E+4:= E+4:= E+4:= E+4:= E+4:= E+4:= E+4:= E+4:= E+4:= E+4:= E+4:= E+4:= E+4:= E+4:= E+4:= E+4:= E+4:= E+4:= E+4:= E+4:= E+4:= E+4:= E+4:= E+4:= E+4:= E+4:= E+4:= E+4:= E+4:= E+4:= E+4:= E+4:= E+4:= E+4:= E+4:= E+4:= E+4:= E+4:= E+4:= E+4:= E+4:= E+4:= E+4:= E+4:= E+4:= E+4:= E+4:= E+4:= E+4:= E+4:= E+4:= E+4:= E+4:= E+4:= E+4:= E+4:= E+4:= E+4:= E+4:= E+4:= E+4:= E+4:= E+4:= E+4:= E+4:= E+4:= E+4:= +4:= +4:= +4:= +4:= +4:= C+4:= C+4:= C+4:= C+4:= C+4:= C+4:= C+4:= C+4:= C+4:= C+4:= C+4:= C+4:= C+4:= C+4:= C+4:= C+4:= C+4:= C+4:= C+4:= C+4:= C+4:= C+4:= C+4:= C+4:= C+4:= C+4:= C+4:= C+4:= C+4:= C+4:= C+4:= C+4:= C+4:= C+4:= C+4:= C+4:= C+4:= C+4:= C+4:= C+4:= C+4:= C+4:= C+4:= C+4:= C+4:= C+4:= C+4:= C+4:= C+4:= C+4:= C+4:= C+4:= C+4:= C+4:= C+4:= C+4:= C+4:= C+4:= C+4:= C+4:= C+4:= C+4:= C+4:= C+4:= C+4:= C+4:= C+4:= C+4:= C+4:= C+4:= C+4:= C+4:= C+4:= C+4:= C+4:= C+4:= C+4:= C+4:= C+4:= C+4:= C+4:= C+4:= C+4:= C+4:= C+4:= C+4:= C+4:= C+4:= C+4:= C+4:= C+4:= C+4:= C+4:= C+4:= C+4:= C+4:= C+4:= C+4:= C+4:= C+4:= C+4:= C+4:= C+4:= C+4:= C+4:= C+4:= C+4:= C+4:= C+4:= C+4:= C+4:= C+4:= C+4:= C+4:= C+4:= C+4:= C+4:= C+4:= C+4:= C+4:= C+4:= C+4:= C+4:= C+4:= C+4:= C+4:= C+4:= C+4:= C+4:= C+4:= C+4:= C+4:= C+4:= C+4:= C+4:= C+4:= C+4:= C+4:= C+4:= C+4:= C+4:= C+4:= C+4:= C+4:= C+4:= C+4:= C+4:= C+4:= C+4:= C+4:= C+4:= C+4:= C+4:= C+4:= C+4:= C+4:= C+4:= C+4:= C+4:= C+4:= C+4:= C+4:= C+4:= C+4:= C+4:= C+4:= C+4:= C+4:= C+4:= C+4:= C+4:= C+4:= C+4:= C+4:= C+4:= C+4:= C+4:= C+4:= C+4:= C+4:= C+4:= C+4:= C+4:= C+4:= C+4:= C+4:= C+4:= C+4:= C+4:= C+4:= C+4:= C+4:= C+4:= C+4:= C+4:= C+4:= C+4:= C+4:= C+4:= C+4:= +4:= +4:= +4:= +4:= +4:= +4:= E+4:= E+4:= E+4:= E+4:= E+4:= E+4:= E+4:= E+4:= E+4:= E+4:= E+4:= E+4:= E+4:= E+4:= E+4:= E+4:= E+4:= E+4:= E+4:= E+4:= E+4:= E+4:= E+4:= E+4:= E+4:= E+4:= E+4:= E+4:= E+4:= E+4:= E+4:= E+4:= E+4:= E+4:= E+4:= E+4:= E+4:= E+4:= E+4:= E+4:= E+4:= E+4:= E+4:= E+4:= E+4:= E+4:= E+4:= E+4:= E+4:= E+4:= E+4:= E+4:= E+4:= E+4:= E+4:= E+4:= E+4:= E+4:= E+4:= E+4:= E+4:= E+4:= E+4:= E+4:= E+4:= E+4:= E+4:= E+4:= E+4:= E+4:= E+4:= E+4:= E+4:= E+4:= E+4:= E+4:= E+4:= E+4:= E+4:= E+4:= E+4:= E+4:= E+4:= E+4:= E+4:= E+4:= E+4:= E+4:= E+4:= E+4:= E+4:= E+4:= E+4:= E+4:= E+4:= E+4:= E+4:= E+4:= E+4:= E+4:= E+4:= E+4:= E+4:= E+4:= E+4:= E+4:= E+4:= E+4:= E+4:= E+4:= E+4:= E+4:= E+4:= E+4:= E+4:= E+4:= E+4:= E+4:= E+4:= E+4:= E+4:= E+4:= E+4:= E+4:= E+4:= E+4:= E+4:= E+4:= E+4:= E+4:= E+4:= E+4:= E+4:= E+4:= E+4:= E+4:= E+4:= E+4:= E+4:= E+4:= E+4:= E+4:= E+4:= E+4:= E+4:= E+4:= E+4:= E+4:= E+4:= E+4:= E+4:= E+4:= E+4:= E+4:= E+4:= E+4:= E+4:= E+4:= E+4:= E+4:= E+4:= E+4:= E+4:= E+4:= E+4:= E+4:= E+4:= E+4:= E+4:= E+4:= E+4:= E+4:= E+4:= E+4:= E+4:= E+4:= E+4:= E+4:= E+4:= E+4:= E+4:= E+4:= E+4:= E+4:= E+4:= E+4:= E+4:= E+4:= E+4:= E+4:= E+4:= E+4:= E+4:= E+4:= E+4:= E+4:= E+4:= E+4:= E+4:= E+4:= +4:= +4:= +4:= +4:= +4:= +4:= C+4:= C+4:= C+4:= C+4:= C+4:= C+4:= C+4:= C+4:= C+4:= C+4:= C+4:= C+4:= C+4:= C+4:= C+4:= C+4:= C+4:= C+4:= C+4:= C+4:= C+4:= C+4:= C+4:= C+4:= C+4:= C+4:= C+4:= C+4:= C+4:= C+4:= C+4:= C+4:= C+4:= C+4:= C+4:= C+4:= C+4:= C+4:= C+4:= C+4:= C+4:= C+4:= C+4:= C+4:= C+4:= C+4:= C+4:= C+4:= C+4:= C+4:= C+4:= C+4:= C+4:= C+4:= C+4:= C+4:= C+4:= C+4:= C+4:= C+4:= C+4:= C+4:= C+4:= C+4:= C+4:= C+4:= C+4:= C+4:= C+4:= C+4:= C+4:= C+4:= C+4:= C+4:= C+4:= C+4:= C+4:= C+4:= C+4:= C+4:= C+4:= C+4:= C+4:= C+4:= C+4:= C+4:= C+4:= C+4:= C+4:= C+4:= C+4:= C+4:= C+4:= C+4:= C+4:= C+4:= C+4:= C+4:= C+4:= C+4:= C+4:= C+4:= C+4:= C+4:= C+4:= C+4:= C+4:= C+4:= C+4:= C+4:= C+4:= C+4:= C+4:= C+4:= C+4:= C+4:= C+4:= C+4:= C+4:= C+4:= C+4:= C+4:= C+4:= C+4:= C+4:= C+4:= C+4:= C+4:= C+4:= C+4:= C+4:= C+4:= C+4:= C+4:= C+4:= C+4:= C+4:= C+4:= C+4:= C+4:= C+4:= C+4:= C+4:= C+4:= C+4:= C+4:= C+4:= C+4:= C+4:= C+4:= C+4:= C+4:= C+4:= C+4:= C+4:= C+4:= C+4:= C+4:= C+4:= C+4:= C+4:= C+4:= C+4:= C+4:= C+4:= C+4:= C+4:= C+4:= C+4:= C+4:= C+4:= C+4:= C+4:= C+4:= C+4:= C+4:= C+4:= C+4:= C+4:= C+4:= C+4:= C+4:= C+4:= C+4:= C+4:= C+4:= C+4:= C+4:= C+4:= C+4:= C+4:= C+4:= C+4:= C+4:= C+4:= C+4:= C+4:= C+4:= C+4:= C+4:= +4:= +4:= +4:= +4:= +4:= +4:= B+4:= B+4:= B+4:= B+4:= B+4:= B+4:= B+4:= B+4:= B+4:= B+4:= B+4:= B+4:= B+4:= B+4:= B+4:= B+4:= B+4:= B+4:= B+4:= B+4:= B+4:= B+4:= B+4:= B+4:= B+4:= B+4:= B+4:= B+4:= B+4:= B+4:= B+4:= B+4:= B+4:= B+4:= B+4:= B+4:= B+4:= B+4:= B+4:= B+4:= B+4:= B+4:= B+4:= B+4:= B+4:= B+4:= B+4:= B+4:= B+4:= B+4:= B+4:= B+4:= B+4:= B+4:= B+4:= B+4:= B+4:= B+4:= B+4:= B+4:= B+4:= B+4:= B+4:= B+4:= B+4:= B+4:= B+4:= B+4:= B+4:= B+4:= B+4:= B+4:= B+4:= B+4:= B+4:= B+4:= B+4:= B+4:= B+4:= B+4:= B+4:= B+4:= B+4:= B+4:= B+4:= B+4:= B+4:= B+4:= B+4:= B+4:= B+4:= B+4:= B+4:= B+4:= B+4:= B+4:= B+4:= B+4:= B+4:= B+4:= B+4:= B+4:= B+4:= B+4:= B+4:= B+4:= B+4:= B+4:= B+4:= B+4:= B+4:= B+4:= B+4:= B+4:= B+4:= B+4:= B+4:= B+4:= B+4:= B+4:= B+4:= B+4:= B+4:= B+4:= B+4:= B+4:= B+4:= B+4:= B+4:= B+4:= B+4:= B+4:= B+4:= B+4:= B+4:= B+4:= B+4:= B+4:= B+4:= B+4:= B+4:= B+4:= B+4:= B+4:= B+4:= B+4:= B+4:= B+4:= B+4:= B+4:= B+4:= B+4:= B+4:= B+4:= B+4:= B+4:= B+4:= B+4:= B+4:= B+4:= B+4:= B+4:= B+4:= B+4:= B+4:= B+4:= B+4:= B+4:= B+4:= B+4:= B+4:= B+4:= B+4:= B+4:= B+4:= B+4:= B+4:= B+4:= B+4:= B+4:= B+4:= B+4:= B+4:= B+4:= B+4:= B+4:= B+4:= B+4:= B+4:= B+4:= B+4:= B+4:= B+4:= B+4:= B+4:= B+4:= B+4:= B+4:= B+4:= B+4:= +4:= +4:= +4:= +4:= +4:= +C4:= +C4:= +C4:= +C4:= +C4:= +C4:= +C4:= +C4:= +C4:= +C4:= +C4:= +C4:= +C4:= +C4:= +C4:= +C4:= +C4:= +C4:= +C4:= +C4:= +C4:= +C4:= +C4:= +C4:= +C4:= +C4:= +C4:= +C4:= +C4:= +C4:= +C4:= +C4:= +C4:= +C4:= +C4:= +C4:= +C4:= +C4:= +C4:= +C4:= +C4:= +C4:= +C4:= +C4:= +C4:= +C4:= +C4:= +C4:= +C4:= +C4:= +C4:= +C4:= +C4:= +C4:= +C4:= +C4:= +C4:= +C4:= +C4:= +C4:= +C4:= +C4:= +C4:= +C4:= +C4:= +C4:= +C4:= +C4:= +C4:= +C4:= +C4:= +C4:= +C4:= +C4:= +C4:= +C4:= +C4:= +C4:= +C4:= +C4:= +C4:= +C4:= +C4:= +C4:= +C4:= +C4:= +C4:= +C4:= +C4:= +C4:= +C4:= +C4:= +C4:= +C4:= +C4:= +C4:= +C4:= +C4:= +C4:= +C4:= +C4:= +C4:= +C4:= +C4:= +C4:= +C4:= +C4:= +C4:= +C4:= +C4:= +C4:= +C4:= +C4:= +C4:= +C4:= +C4:= +C4:= +C4:= +C4:= +C4:= +C4:= +C4:= +C4:= +C4:= +C4:= +C4:= +C4:= +C4:= +C4:= +C4:= +C4:= +C4:= +C4:= +C4:= +C4:= +C4:= +C4:= +C4:= +C4:= +C4:= +C4:= +C4:= +C4:= +C4:= +C4:= +C4:= +C4:= +C4:= +C4:= +C4:= +C4:= +C4:= +C4:= +C4:= +C4:= +C4:= +C4:= +C4:= +C4:= +C4:= +C4:= +C4:= +C4:= +C4:= +C4:= +C4:= +C4:= +C4:= +C4:= +C4:= +C4:= +C4:= +C4:= +C4:= +C4:= +C4:= +C4:= +C4:= +C4:= +C4:= +C4:= +C4:= +C4:= +C4:= +C4:= +C4:= +C4:= +C4:= +C4:= +C4:= +C4:= +C4:= +C4:= +C4:= +C4:= +C4:= +C4:= C4:= C4:= C4:= 4:= =    2E 2E 2E 2E 2E 2E 2E 2E 2E 2E 2E 2E 2E 2E 2E 2E 2E 2E 2E 2E 2E 2E 2E 2E 2E 2E 2E 2E 2E 2E 2E 2E 2E 2E 2E 2E 2E 2E 2E 2E 2E 2E 2E 2E 2E 2E 2E 2E 2E 2E 2E 2E 2E 2E 2E 2E 2E 2E 2E 2E 2E 2E 2E 2E 2E 2E 2E 2E 2E 2E 2E 2E 2E 2E 2E 2E 2E 2E 2E 2E 2E 2E 2E 2E 2E 2E 2E 2E 2E 2E 2E 2E 2E 2E 2E 2E 2E 2E 2E 2E 2E 2E 2E 2E 2E 2E 2E 2E 2E 2E 2E 2E 2E 2E 2E 2E 2E 2E 2E 2E 2E 2E 2E 2E 2E 2E 2E 2E 2E 2E 2E 2E 2E 2E 2E 2E 2E 2E 2E 2E 2E 2E 2E 2E 2E 2E 2E 2E 2E 2E 2E 2E 2E 2E 2E 2E 2E 2E 2E 2E 2E 2E 2E 2E 2E 2E 2E 2E 2E 2E 2E 2E 2E 2E 2E 2E 2E 2E 2E 2E 2E 2E 2E 2E 2E 2E 2E 2E 2E 2E 2E 2E 2E 2E 2E 2E 2E 2E 2E 2E 2E 2E 2E 2E 2E 2E 2E 2E 2E 2E 2E 2E 2E 2E 2E 2E 2E 2E 2E 2E 2E 2E 2E 2E 2E 2E 2E 2E 2E 2E 2E 2E 2E 2E 2E 2E 2E 2E 2E 2E 2E 2E 2E 2E 2E 2E 2E 2E 2E 2E 2E 2E 2E 2E 2E 2E 2E 2E 2E 2E 2E 2E 2E 2E 2E 2E 2E 2E 2E 2E 2E 2E 2E 2E 2E 2E 2E 2E 2E 2E 2E 2E 2E 2E 2E 2E 2E 2E 2E 2E 2E 2E 2E 2E 2E 2E 2E 2E 2E 2E 2E 2E 2E 2E 2E 2E 2E 2E 2E 2E 2E 2E 2E 2E 2E 2E 2E 2E 2E 2E 2E 2E 2E 2E 2E 2E 2E 2E 2E 2E 2E 2E 2E 2E 2E 2E 2E 2E 2E 2E 2E 2E 2E 2E 2E 2E 2E 2E 2E 2E 2E 2E 2E 2E 2E 2E 2E 2E 2E 2E 2E 2E 2E 2E 2E 2E 2E 2E 2E 2E 2E 2E 2E 2E 2E 2E 2E 2E 2E 2E 2E 2E 2E 2E 2E 2E 2E 2E 2E 2E 2E 2E 2E 2E 2E 2E 2E 2E 2E 2E 2E 2E 2E 2E 2E 2E 2E 2E 2E 2E 2E 2E4= 2E4= 2E4= 2E4= 2E4= 2E4= 2E4= 2E4= 2E4= 2E4= 2E4= 2E4= 2E4= 2E4= 2E4= 2E4= 2E4= 2E4= 2E4= 2E4= 2E4= 2E4= 2E4= 2E4= 2E4= 2E4= 2E4= 2E4= 2E4= 2E4= 2E4= 2E4= 2E4= 2E4= 2E4= 2E4= 2E4= 2E4= 2E4= 2E4= 2E4= 2E4= 2E4= 2E4= 2E4= 2E4= 2E4= 2E4= 2E4= 2E4= 2E4= 2E4= 2E4= 2E4= 2E4= 2E4= 2E4= 2E4= 2E4= 2E4= 2E4= 2E4= 2E4= 2E4= 2E4= 2E4= 2E4= 2E4= 2E4= 2E4= 2E4= 2E4= 2E4= 2E4= 2E4= 2E4= 2E4= 2E4= 2E4= 2E4= 2E4= 2E4= 2E4= 2E4= 2E4= 2E4= 2E4= 2E4= 2E4= 2E4= 2E4= 2E4= 2E4= 2E4= 2E4= 2E4= 2E4= 2E4= 2E4= 2E4= 2E4= 2E4= 2E4= 2E4= 2E4= 2E4= 2E4= 2E4= 2E4= 2E4= 2E4= 2E4= 2E4= 2E4= 2E4= 2E4= 2E4= 2E4= 2E4= 2E4= 2E4= 2E4= 2E4= 2E4= 2E4= 2E4= 2E4= 2E4= 2E4= 2E4= 2E4= 2E4= 2E4= 2E4= 2E4= 2E4= 2E4= 2E4= 2E4= 2E4= 2E4= 2E4= 2E4= 2E4= 2E4= 2E4= 2E4= 2E4= 2E4= 2E4= 2E4= 2E4= 2E4= 2E4= 2E4= 2E4= 2E4= 2E4= 2E4= 2E4= 2E4= 2E4= 2E4= 2E4= 2E4= 2E4= 2E4= 2E4= 2E4= 2E4= 2E4= 2E4= 2E4= 2E4= 2E4= 2E4= 2E4= 2E4= 2E4= 2E4= 2E4= 2E4= 2E4= 2E4= 2E4= 2E4= 2E4= 2E4= 2E4= 2E4= 2E4= 2E4= 2E4= 2E4= 2E4= 2E4= 2E4= 2E4= 2E4= 2E4= 2E4= 2E4= 2E4= 2E4= 2E4= 2E4= 2E4= 2E4= 2E4= 2E4= 2E4= 2E4= 2E4= 2E4= 2E4= 2E4= 2E4= 2E4= 2E4= 2E4= 2E4= 2E4= 2E4= 2E4= 2E4= 2E4= 2E4= 2E4= 2E4= 2E4= 2E4= 2E4= 2E4= 2E4= 2E4= 2E4= 2E4= 2E4= 2E4= 2E4= 2E4= 2E4= 2E4= 2E4= 2E4= 2E4= 2E4= 2E4= 2E4= 2E4= 2E4= 2E4= 2E4= 2E4= 2E4= 2E4= 2E4= 2E4= 2E4= 2E4= 2E4= 2E4= 2E4= 2E4= 2E4= 2E4= 2E4= 2E4= 2E4= 2E4= 2E4= 2E4= 2E4= 2E4= 2E4= 2E4= 2E4= 2E4= 2E4= 2E4= 2E4= 2E4= 2E4= 2E4= 2E4= 2E4= 2E4= 2E4= 2E4= 2E4= 2E4= 2E4= 2E4= 2E4= 2E4= 2E4= 2E4= 2E4= 2E4= 2E4= 2E4= 2E4= 2E4= 2E4= 2E4= 2E4= 2E4= 2E4= 2E4= 2E4= 2E4= 2E4= 2E4= 2E4= 2E4= 2E4= 2E4= 2E4= 2E4= 2E4= 2E4= 2E4= 2E4= 2E4= 2E4= 2E4= 2E4= 2E4= 2E4= 2E4= 2E4= 2E4= 2E4= 2E4= 2E4= 2E4= 2E4= 2E4= 2E4= 2E4= 2E4= 2E4= 2E4= 2E4= 2E4= 2E4= 2E4= 2E4= 2E4= 2E4= 2E4= 2E4= 2E4= 2E4= 2E4= 2E4= 2E4= 2E4= 2E4= 2E4= 2E4= 2E4= 2E4= 2E4= 2E4= 2E4= 2E4= 2E4= 2E4= 2E4= 2E4= 2E4= 2E4= 2E4= 2E4= 2E4= 2E4= 2E4= 2E4= 2E4= 2E4= 2E4= 2E4= 2E4= 2E4= 2E4= 2E4= 2E4= 2E4= 2E4= 2E4= 2E4= 2E4= 2E4= 2E4= 2E4= 2E4= 2E4= 2E4= 2E4= 2E4= 2E4= 4= 4= 4= 4=       629E> 629E> 629E> 629E> 629E> 629E> 629E> 629E> 629E> 629E> 629E> 629E> 629E> 629E> 629E> 629E> 629E> 629E> 629E> 629E> 629E> 629E> 629E> 629E> 629E> 629E> 629E> 629E> 629E> 629E> 629E> 629E> 629E> 629E> 629E> 629E> 629E> 629E> 629E> 629E> 629E> 629E> 629E> 629E> 629E> 629E> 629E> 629E> 629E> 629E> 629E> 629E> 629E> 629E> 629E> 629E> 629E> 629E> 629E> 629E> 629E> 629E> 629E> 629E> 629E> 629E> 629E> 629E> 629E> 629E> 629E> 629E> 629E> 629E> 629E> 629E> 629E> 629E> 629E> 629E> 629E> 629E> 629E> 629E> 629E> 629E> 629E> 629E> 629E> 629E> 629E> 629E> 629E> 629E> 629E> 629E> 629E> 629E> 629E> 629E> 629E> 629E> 629E> 629E> 629E> 629E> 629E> 629E> 629E> 629E> 629E> 629E> 629E> 629E> 629E> 629E> 629E> 629E> 629E> 629E> 629E> 629E> 629E> 629E> 629E> 629E> 629E> 629E> 629E> 629E> 629E> 629E> 629E> 629E> 629E> 629E> 629E> 629E> 629E> 629E> 629E> 629E> 629E> 629E> 629E> 629E> 629E> 629E> 629E> 629E> 629E> 629E> 629E> 629E> 629E> 629E> 629E> 629E> 629E> 629E> 629E> 629E> 629E> 629E> 629E> 629E> 629E> 629E> 629E> 629E> 629E> 629E> 629E> 629E> 629E> 629E> 629E> 629E> 629E> 629E> 629E> 629E> 629E> 629E> 629E> 629E> 629E> 629E> 629E> 629E> 629E> 629E> 629E> 629E> 629E> 629E> 629E> 629E> 629E> 629E> 629E> 629E> 629E> 629E> 629E> 629E> 629E> 629E> 629E> 629E> 629E> 629E> 629E> 629E> 629E> 629E> 629E> 629E> 629E> 629E> 629E> 629E> 629E> 629E> 629E> 629E> 629E> 629E> 629E> 629E> 629E> 629E> 629E> 629E> 629E> 629E> 629E> 629E> 629E> 629E> 629E> 629E> 629E> 629E> 629E> 629E> 629E> 629E> 629E> 629E> 629E> 629E> 629E> 629E> 629E> 629E> 629E> 629E> 629E> 629E> 629E> 629E> 629E> 629E> 629E> 629E> 629E> 629E> 629E> 629E> 629E> 629E> 629E> 629E> 629E> 629E> 629E> 629E> 629E> 629E> 629E> 629E> 629E> 629E> 629E> 629E> 629E> 629E> 629E> 629E> 629E> 629E> 629E> 629E> 629E> 629E> 629E> 629E> 629E> 629E> 629E> 629E> 629E> 629E> 629E> 629E> 629E> 629E> 629E> 629E> 629E> 629E> 629E> 629E> 629E> 629E> 629E> 629E> 629E> 629E> 629E> 629E> 629E> 629E> 629E> 629E> 629E> 629E> 629E> 629E> 629E> 629E> 629E> 629E> 629E> 629E> 629E> 629E> 629E> 629E> 629E> 629E> 629E> 629E> 629E> 629E> 629E> 629E> 629E> 629E> 629E> 629E> 629E> 629E> 629E> 629E> 629E> 629E> 629E> 629E> 629E> 629E> 629E> 629E> 629E> 629E> 629E> 629E> 629E> 629E> 629E> 629E> 629E> 629E> 629E> 629E> 629E> 629E> 629E> 629E> 629E> 629E> 629E> 629E> 629E> 629E> 629E> 629E> 629E> 629E> 629E> 629E> 629E> 629E> 629E> 629E> 629E> 629E> 629E> 629E> 629E> 629E> 629E> 629E> 629E> 629E> 629E> 629E> 629E> 629E> 629E> 629E> 629E> 629E> 629E> 629E> 629E> 629E> 629E> 629E> 629E> 629E> 629E> 629E> 629E> 629E> 629E> 629E> 629E> 629E> 629E> 629E> 629E> 629E> 629E> 629E> 629E> 629E> 629E> 629E> 629E> 629E> 629E> 629E> 629E> 629E> 629E> 629E> 629E> 629E> 629E> 629E> 629E> 629E> 629E> 629E> 629E> 629E> 629E> 629E> 629E> 629E> 629E> 629E> 629E> 629E> 629E> 629E> 629E> 629E> 629E> 629E> 629E> 629E> 629E> 629E> 629E> 629E> 629E> 629E> 629E> 629E> 629E> 629E> 629E> 629E> 629E> 629E> 629E> 629E> 629E> 629E> 629E> 629E> 629E> 629E> 629E> 629E> 629E> 629E> 629E> 629E> 629E> 629E> 629E> 629E> 629E> 629E> 629E> 629E> 629E> 629E> 629E> 629E> 629E> 629E> 629E> 629E> 629E> 629E> 629E> 629E> 629E> 629E> 629E> 629E> 629E> 629E> 629E> 629E> 629E> 629E> 629E> 629E> 629E> 629E> 629E> 629E> 629E> 629E> 629E> 629E> 629E> 629E> 629E> 629E> 629E> 629E> 629E> 629E> 629E> 629E> 629E> 629E> 629E> 629E> 629E> 629E> 629E> 629E> 629E> 629E> 629E> 629E> 629E> 629E> 629E> 629E> 629E> 629E> 629E> 629E> 629E> 629E> 629E> 629E> 629E> 629E> 629E> 629E> 629E> 629E> 629E> 629E> 629E> 629E> 629E> 629E> 629E> 629E> 629E> 629E> 629E> 629E> 629E> 629E> 629E> 629E> 629E> 629E> 629E> 629E> 629E> 629E> 629E> 629E> 629E> 629E> 629E> 629E> 629E> 629E> 629E> 629E> 629E> 629E> 629E> 629E> 629E> 629E> 629E> 629E> 629E> 629E> 629E> 629E> 629E> 629E> 629E> 629E> 629E> 629E> 629E> 629E> 629E> 629E> 629E> 629E> 629E> 629E> 629E> 629E> 629E> 629E> 629E> 629E> 629E> 629E> 629E> 629E> 629E> 629E> 629E> 629E> 629E> 629E> 629E> 629E> 629E> 629E> 629E> 629E> 629E> 629E> 629E> 629E> 629E> 629E> 629E> 629E> 629E> 629E> 629E> 629E> 629E> 629E> 629E> 629E> 629E> 629E> 629E> 629E> 629E> 629E> 629E> 629E> 629E> 629E> 629E> 629E> 629E> 629E> 629E> 629E> 629E> 629E> 629E> 629E> 629E> 629E> 629E> 629E> 629E> 629E> 629E> 629E> 629E> 629E> 629E> 629E> 629E> 629E> 629E> 629E> 629E> 629E> 629E> 629E> 629E> 629E> 629E> 629E> 629E> 629E> 629E> 629E> 629E> 629E> 629E> 629E> 629E> 629E> 629E> 629E> 629E> 629E> 629E> 629E> 629E> 629E> 629E> 629E> 629E> 629E> 629E> 629E> 629E> 629E> 629E> 629E> 629E> 629E> 629E> 629E> 629E> 629E> 629E> 629E> 629E> 629E> 629E> 629E> 629E> 629E> 629E> 629E> 629E> 629E> 629E> 629E> 629E> 629E> 629E> 629E> 629E> 629E> 629E> 629E> 629E> 629E> 629E> 629E> 629E> 629E> 629E> 629E> 629E> 629E> 629E> 629E> 629E> 629E> 629E> 629E> 629E> 629E> 629E> 629E> 629E> 629E> 629E> 629E> 629E> 629E> 629E> 629E> 629E> 629E> 629E> 629E> 629E> 629E> 629E> 629E> 629E> 629E> 629E> 629E> 629E> 629E> 629E> 629E> 629E> 629E> 629E> 629E> 629E> 629E> 629E> 629E> 629E> 629E> 629E> 629E> 629E> 629E> 629E> 629E> 629E> 629E> 629E> 629E> 629E> 629E> 629E> 629E> 629E> 629E> 629E> 629E> 629E> 629E> 629E> 629E> 629E> 629E> 629E> 629E> 629E> 629E> 629E> 629E> 629E> 629E> 629E> 629E> 629E> 629E> 629E> 629E> 629E> 629E> 629E> 629E> 629E> 629E> 629E> 629E> 629E> 629E> 629E> 629E> 629E> 629E> 629E> 629E> 629E> 629E> 629E> 629E> 629E> 629E> 629E> 629E> 629E> 629E> 629E> 629E> 629E> 629E> 629E> 629E> 629E> 629E> 629E> 629E> 629E> 629E> 629E> 629E> 629E> 629E> 629E> 629E> 629E> 629E> 629E> 629E> 629E> 629E> 629E> 629E> 629E> 629E> 629E> 629E> 629E> 629E> 629E> 629E> 629E> 629E> 629E> 629E> 629E> 629E> 629E> 629E> 629E> 629E> 629E> 629E> 629E> 629E> 629E> 629E> 629E> 629E> 629E> 629E> 629E> 629E> 629E> 629E> 629E> 629E> 629E> 629E> 629E> 629E> 629E> 629E> 629E> 629E> 629E> 629E> 629E> 629E> 629E> 629E> 629E> 629E> 629E> 629E> 629E> 629E> 629E> 629E> 629E> 629E> 629E> 629E> 629E> 629E> 629E> 629E> 629E> 629E> 629E> 629E> 629E> 629E> 629E> 629E> 629E> 629E> 629E> 629E> 629E> 629E> 629E> 629E> 629E> 629E> 629E> 629E> 629E> 629E> 629E> 629E> 629E> 629E> 629E> 629E> 629E> 629E> 629E> 629E> 629E> 629E> 629E> 629E> 629E> 629E> 629E> 629E> 629E> 629E> 629E> 629E> 629E> 629E> 629E> 629E> 629E> 629E> 629E> 629E> 629E> 629E> 629E> 629E> 629E> 629E> 629E> 629E> 629E> 629E> 629E> 629E> 629E> 629E> 629E> 629E> 629E> 629E> 629E> 629E> 629E> 629E> 629E> 629E> 629E> 629E> 629E> 629E> 629E> 629E> 629E> 629E> 629E> 629E> 629E> 629E> 629E> 629E> 629E> 629E> 629E> 629E> 629E> 629E> 629E> 629E> 629E> 629E> 629E> 629E> 629E> 629E> 629E> 629E> 629E> 629E> 629E> 629E> 629E> 629E> 629E> 629E> 629E> 629E> 629E> 629E> 629E> 629E> 629E> 629E> 629E> 629E> 629E> 629E> 629E> 629E> 629E> 629E> 629E> 629E> 629E> 629E> 629E> 629E> 629E> 629E> 629E> 629E> 629E> 629E> 629E> 629E> 629E> 629E> 629E> 629E> 629E> 629E> 629E> 629E> 629E> 629E> 629E> 629E> 629E> 629E> 629E> 629E> 629E> 629E> 629E> 629E> 629E> 629E> 629E> 629E> 629E> 629E> 629E> 629E> 629E> 629E> 629E> 629E> 629E> 629E> 629E> 629E> 629E> 629E> 629E> 629E> 629E> 629E> 629E> 629E> 629E> 629E> 629E> 629E> 629E> 629E> 629E> 629E> 629E> 629E> 629E> 629E> 629E> 629E> 629E> 629E> 629E> 629E> 629E> 629E> 629E> 629E> 629E> 629E> 629E> 629E> 629E> 629E> 629E> 629E> 629E> 629E> 629E> 629E> 629E> 629E> 629E> 629E> 629E> 629E> 629E> 629E> 629E> 629E> 629E> 629E> 629E> 629E> 629E> 629E> 629E> 629E> 629E> 629E> 629E> 629E> 629E> 629E> 629E> 629E> 629E> 629E> 629E> 629E> 629E> 629E> 629E> 629E> 629E> 629E> 629E> 629E> 629E> 629E> 629E> 629E> 629E> 629E> 629E> 629E> 629E> 629E> 629E> 629E> 629E> 629E> 629E> 629E> 629E> 629E> 629E> 629E> 629E> 629E> 629E> 629E> 629E> 629E> 629E> 629E> 629E> 629E> 629E> 629E> 629E> 629E> 629E> 629E> 629E> 629E> 629E> 629E> 629E> 629E> 629E> 629E> 629E> 629E> 629E> 629E> 629E> 629E> 629E> 629E> 629E> 629E> 629E> 629E> 629E> 629E> 629E> 629E> 629E> 629E> 629E> 629E> 629E> 629E> 629E> 629E> 629E> 629E> 629E> 629E> 629E> 629E> 629E> 629E> 629E> 629E> 629E> 629E> 629E> 629E> 629E> 629E> 629E> 629E> 629E> 629E> 629E> 629E> 629E> 629E> 629E> 629E> 629E> 629E> 629E> 629E> 629E> 629E> 629E> 629E> 629E> 629E> 629E> 629E> 629E> 629E> 629E> 629E> 629E> 629E> 629E> 629E> 629E> 629E> 629E> 629E> 629E> 629E> 629E> 629E> 629E> 629E> 629E> 629E> 629E> 629E> 629E> 629E> 629E> 629E> 629E> 629E> 629E> 629E> 629E> 629E> 629E> 629E> 629E> 629E> 629E> 629E> 629E> 629E> 629E> 629E> 629E> 629E> 629E> 629E> 629E> 629E> 629E> 629E> 629E> 629E> 629E> 629E> 629E> 629E> 629E> 629E> 629E> 629E> 629E> 629E> 629E> 629E> 629E> 629E> 629E> 629E> 629E> 629E> 629E> 629E> 629E> 629E> 629E> 629E> 629E> 629E> 629E> 629E> 629E> 629E> 629E> 629E> 629E> 629E> 629E> 629E> 629E> 629E> 629E> 629E> 629E> 629E> 629E> 629E> 629E> 629E> 629E> 629E> 629E> 629E> 629E> 629E> 629E> 629E> 629E> 629E> 629E> 629E> 629E> 629E> 629E> 629E> 629E> 629E> 629E> 629E> 629E> 629E> 629E> 629E> 629E> 629E> 629E> 629E> 629E> 629E> 629E> 629E> 629E> 629E> 629E> 629E> 629E> 629E> 629E> 629E> 629E> 629E> 629E> 629E> 629E> 629E> 629E> 629E> 629E> 629E> 629E> 629E> 629E> 629E> 629E> 629E> 629E> 629E> 629E> 629E> 629E> 629E> 629E> 629E> 629E> 629E> 629E> 629E> 629E> 629E> 629E> 629E> 629E> 629E> 629E> 629E> 629E> 629E> 629E> 629E> 629E> 629E> 629E> 629E> 629E> 629E> 629E> 629E> 629E> 629E> 629E> 629E> 629E> 629E> 629E> 629E> 629E> 629E> 629E> 629E> 629E> 629E> 629E> 629E> 629E> 629E> 629E> 629E> 629E> 629E> 629E> 629E> 629E> 629E> 629E> 629E> 629E> 629E> 629E> 629E> 629E> 629E> 629E> 629E> 629E> 629E> 629E> 629E> 629E> 629E> 629E> 629E> 629E> 629E> 629E> 629E> 629E> 629E> 629E> 629E> 629E> 629E> 629E> 629E> 629E> 629E> 629E> 629E> 629E> 629E> 629E> 629E> 629E> 629E> 629E> 629E> 629E> 629E> 629E> 629E> 629E> 629E> 629E> 629E> 629E> 629E> 629E> 629E> 629E> 629E> 629E> 629E> 629E> 629E> 629E> 629E> 629E> 629E> 629E> 629E> 629E> 629E> 629E> 629E> 629E> 629E> 629E> 629E> 629E>                      FA:25 FA:25 FA:25 FA:25 FA:25 FA:25 FA:25 FA:25 FA:25 FA:25 FA:25 FA:25 FA:25 FA:25 FA:25 FA:25 FA:25 FA:25 FA:25 FA:25 FA:25 FA:25 FA:25 FA:25 FA:25 FA:25 FA:25 FA:25 FA:25 FA:25 FA:25 FA:25 FA:25 FA:25 FA:25 FA:25 FA:25 FA:25 FA:25 FA:25 FA:25 FA:25 FA:25 FA:25 FA:25 FA:25 FA:25 FA:25 FA:25 FA:25 FA:25 FA:25 FA:25 FA:25 FA:25 FA:25 FA:25 FA:25 FA:25 FA:25 FA:25 FA:25 FA:25 FA:25 FA:25 FA:25 FA:25 FA:25 FA:25 FA:25 FA:25 FA:25 FA:25 FA:25 FA:25 FA:25 FA:25 FA:25 FA:25 FA:25 FA:25 FA:25 FA:25 FA:25 FA:25 FA:25 FA:25 FA:25 FA:25 FA:25 FA:25 FA:25 FA:25 FA:25 FA:25 FA:25 FA:25 FA:25 FA:25 FA:25 FA:25 FA:25 FA:25 FA:25 FA:25 FA:25 FA:25 FA:25 FA:25 FA:25 FA:25 FA:25 FA:25 FA:25 FA:25 FA:25 FA:25 FA:25 FA:25 FA:25 FA:25 FA:25 FA:25 FA:25 FA:25 FA:25 FA:25 FA:25 FA:25 FA:25 FA:25 FA:25 FA:25 FA:25 FA:25 FA:25 FA:25 FA:25 FA:25 FA:25 FA:25 FA:25 FA:25 FA:25 FA:25 FA:25 FA:25 FA:25 FA:25 FA:25 FA:25 FA:25 FA:25 FA:25 FA:25 FA:25 FA:25 FA:25 FA:25 FA:25 FA:25 FA:25 FA:25 FA:25 FA:25 FA:25 FA:25 FA:25 FA:25 FA:25 FA:25 FA:25 FA:25 FA:25 FA:25 FA:25 FA:25 FA:25 FA:25 FA:25 FA:25 FA:25 FA:25 FA:25 FA:25 FA:25 FA:25 FA:25 FA:25 FA:25 FA:25 FA:25 FA:25 FA:25 FA:25 FA:25 FA:25 FA:25 FA:25 FA:25 FA:25 FA:25 FA:25 FA:25 FA:25 FA:25 FA:25 FA:25 FA:25 FA:25 FA:25 FA:25 FA:25 FA:25 FA:25 FA:25 FA:25 FA:25 FA:25 FA:25 FA:25 FA:25 FA:25 FA:25 FA:25 FA:25 FA:25 FA:25 FA:25 FA:25 FA:25 FA:25 FA:25 FA:25 FA:25 FA:25 FA:25 FA:25 FA:25 FA:25 FA:25 FA:25 FA:25 FA:25 FA:25 FA:25 FA:25 FA:25 FA:25 FA:25 FA:25 FA:25 FA:25 FA:25 FA:25 FA:25 FA:25 FA:25 FA:25 FA:25 FA:25 FA:25 FA:25 FA:25 FA:25 FA:25 FA:25 FA:25 FA:25 FA:25 FA:25 FA:25 FA:25 FA:25 FA:25 FA:25 FA:25 FA:25 FA:25 FA:25 FA:25 FA:25 FA:25 FA:25 FA:25 FA:25 FA:25 FA:25 FA:25 FA:25 FA:25 FA:25 FA:25 FA:25 FA:25 FA:25 FA:25 FA:25 FA:25 FA:25 FA:25 FA:25 FA:25 FA:25 FA:25 FA:25 FA:25 FA:25 FA:25 FA:25 FA:25 FA:25 FA:25 FA:25 FA:25 FA:25 FA:25 FA:25 FA:25 FA:25 FA:25 FA:25 FA:25 FA:25 FA:25 FA:25 FA:25 FA:25 FA:25 FA:25 FA:25 FA:25 FA:25 FA:25 FA:25 FA:25 FA:25 FA:25 FA:25 FA:25 FA:25 FA:25 FA:25 FA:25 FA:25 FA:25 FA:25 FA:25 FA:25 FA:25 FA:25 FA:25 FA:25 FA:25 FA:25 FA:25 FA:25 FA:25 FA:25 FA:25 FA:25 FA:25 FA:25 FA:25 FA:25 FA:25 FA:25 FA:25 FA:25 FA:25 FA:25 FA:25 FA:25 FA:25 FA:25 FA:25 FA:25 FA:25 FA:25 FA:25 FA:25 FA:25 FA:25 FA:25 FA:25 FA:25 FA:25 FA:25 FA:25 FA:25 FA:25 FA:25 FA:25 FA:25 FA:25 FA:25 FA:25 FA:25 FA:25 FA:25 FA:25 FA:25 FA:25 FA:25 FA:25 FA:25 A:25 A:25 A:25 A:25 A:25 AJ:25 AJ:25 AJ:25 AJ:25 AJ:25 AJ:25 AJ:25 AJ:25 AJ:25 AJ:25 AJ:25 AJ:25 AJ:25 AJ:25 AJ:25 AJ:25 AJ:25 AJ:25 AJ:25 AJ:25 AJ:25 AJ:25 AJ:25 AJ:25 AJ:25 AJ:25 AJ:25 AJ:25 AJ:25 AJ:25 AJ:25 AJ:25 AJ:25 AJ:25 AJ:25 AJ:25 AJ:25 AJ:25 AJ:25 AJ:25 AJ:25 AJ:25 AJ:25 AJ:25 AJ:25 AJ:25 AJ:25 AJ:25 AJ:25 AJ:25 AJ:25 AJ:25 AJ:25 AJ:25 AJ:25 AJ:25 AJ:25 AJ:25 AJ:25 AJ:25 AJ:25 AJ:25 AJ:25 AJ:25 AJ:25 AJ:25 AJ:25 AJ:25 AJ:25 AJ:25 AJ:25 AJ:25 AJ:25 AJ:25 AJ:25 AJ:25 AJ:25 AJ:25 AJ:25 AJ:25 AJ:25 AJ:25 AJ:25 AJ:25 AJ:25 AJ:25 AJ:25 AJ:25 AJ:25 AJ:25 AJ:25 AJ:25 AJ:25 AJ:25 AJ:25 AJ:25 AJ:25 AJ:25 AJ:25 AJ:25 AJ:25 AJ:25 AJ:25 AJ:25 AJ:25 AJ:25 AJ:25 AJ:25 AJ:25 AJ:25 AJ:25 AJ:25 AJ:25 AJ:25 AJ:25 AJ:25 AJ:25 AJ:25 AJ:25 AJ:25 AJ:25 AJ:25 AJ:25 AJ:25 AJ:25 AJ:25 AJ:25 AJ:25 AJ:25 AJ:25 AJ:25 AJ:25 AJ:25 AJ:25 AJ:25 AJ:25 AJ:25 AJ:25 AJ:25 AJ:25 AJ:25 AJ:25 AJ:25 AJ:25 AJ:25 AJ:25 AJ:25 AJ:25 AJ:25 AJ:25 AJ:25 AJ:25 AJ:25 AJ:25 AJ:25 AJ:25 AJ:25 AJ:25 AJ:25 AJ:25 AJ:25 AJ:25 AJ:25 AJ:25 AJ:25 AJ:25 AJ:25 AJ:25 AJ:25 AJ:25 AJ:25 AJ:25 AJ:25 AJ:25 AJ:25 AJ:25 AJ:25 AJ:25 AJ:25 AJ:25 AJ:25 AJ:25 AJ:25 AJ:25 AJ:25 AJ:25 AJ:25 AJ:25 AJ:25 AJ:25 AJ:25 AJ:25 AJ:25 AJ:25 AJ:25 AJ:25 AJ:25 AJ:25 AJ:25 AJ:25 AJ:25 AJ:25 AJ:25 AJ:25 AJ:25 AJ:25 AJ:25 AJ:25 AJ:25 AJ:25 AJ:25 AJ:25 AJ:25 AJ:25 AJ:25 AJ:25 AJ:25 AJ:25 AJ:25 AJ:25 AJ:25 AJ:25 AJ:25 AJ:25 AJ:25 AJ:25 AJ:25 AJ:25 AJ:25 AJ:25 AJ:25 AJ:25 AJ:25 AJ:25 AJ:25 AJ:25 AJ:25 AJ:25 AJ:25 AJ:25 AJ:25 AJ:25 AJ:25 AJ:25 AJ:25 AJ:25 AJ:25 AJ:25 AJ:25 AJ:25 AJ:25 AJ:25 AJ:25 AJ:25 AJ:25 AJ:25 AJ:25 AJ:25 AJ:25 AJ:25 AJ:25 AJ:25 AJ:25 AJ:25 AJ:25 AJ:25 AJ:25 AJ:25 AJ:25 AJ:25 AJ:25 AJ:25 AJ:25 AJ:25 AJ:25 AJ:25 AJ:25 AJ:25 AJ:25 AJ:25 AJ:25 AJ:25 AJ:25 AJ:25 AJ:25 AJ:25 AJ:25 AJ:25 AJ:25 AJ:25 AJ:25 AJ:25 AJ:25 AJ:25 AJ:25 AJ:25 AJ:25 AJ:25 AJ:25 AJ:25 AJ:25 AJ:25 AJ:25 AJ:25 AJ:25 AJ:25 AJ:25 AJ:25 AJ:25 AJ:25 AJ:25 AJ:25 AJ:25 AJ:25 AJ:25 AJ:25 AJ:25 AJ:25 AJ:25 AJ:25 AJ:25 AJ:25 AJ:25 AJ:25 AJ:25 AJ:25 AJ:25 AJ:25 AJ:25 AJ:25 AJ:25 AJ:25 AJ:25 AJ:25 AJ:25 AJ:25 AJ:25 AJ:25 AJ:25 AJ:25 AJ:25 AJ:25 AJ:25 AJ:25 AJ:25 AJ:25 AJ:25 AJ:25 AJ:25 AJ:25 AJ:25 AJ:25 AJ:25 AJ:25 AJ:25 AJ:25 AJ:25 AJ:25 AJ:25 AJ:25 AJ:25 AJ:25 AJ:25 AJ:25 AJ:25 AJ:25 AJ:25 AJ:25 AJ:25 AJ:25 AJ:25 AJ:25 AJ:25 AJ:25 AJ:25 AJ:25 AJ:25 AJ:25 AJ:25 AJ:25 AJ:25 AJ:25 AJ:25 AJ:25 AJ:25 AJ:25 AJ:25 AJ:25 AJ:25 AJ:25 AJ:25 AJ:25 AJ:25 AJ:25 AJ:25 AJ:25 AJ:25 AJ:25 AJ:25 AJ:25 AJ:25 AJ:25 J:25 J:25 J:25 J:25 :25 :25 :25 :25 :25 :25 MFJA:25 MFJA:25 MFJA:25 MFJA:25 MFJA:25 MFJA:25 MFJA:25 MFJA:25 MFJA:25 MFJA:25 MFJA:25 MFJA:25 MFJA:25 MFJA:25 MFJA:25 MFJA:25 MFJA:25 MFJA:25 MFJA:25 MFJA:25 MFJA:25 MFJA:25 MFJA:25 MFJA:25 MFJA:25 MFJA:25 MFJA:25 MFJA:25 MFJA:25 MFJA:25 MFJA:25 MFJA:25 MFJA:25 MFJA:25 MFJA:25 MFJA:25 MFJA:25 MFJA:25 MFJA:25 MFJA:25 MFJA:25 MFJA:25 MFJA:25 MFJA:25 MFJA:25 MFJA:25 MFJA:25 MFJA:25 MFJA:25 MFJA:25 MFJA:25 MFJA:25 MFJA:25 MFJA:25 MFJA:25 MFJA:25 MFJA:25 MFJA:25 MFJA:25 MFJA:25 MFJA:25 MFJA:25 MFJA:25 MFJA:25 MFJA:25 MFJA:25 MFJA:25 MFJA:25 MFJA:25 MFJA:25 MFJA:25 MFJA:25 MFJA:25 MFJA:25 MFJA:25 MFJA:25 MFJA:25 MFJA:25 MFJA:25 MFJA:25 MFJA:25 MFJA:25 MFJA:25 MFJA:25 MFJA:25 MFJA:25 MFJA:25 MFJA:25 MFJA:25 MFJA:25 MFJA:25 MFJA:25 MFJA:25 MFJA:25 MFJA:25 MFJA:25 MFJA:25 MFJA:25 MFJA:25 MFJA:25 MFJA:25 MFJA:25 MFJA:25 MFJA:25 MFJA:25 MFJA:25 MFJA:25 MFJA:25 MFJA:25 MFJA:25 MFJA:25 MFJA:25 MFJA:25 MFJA:25 MFJA:25 MFJA:25 MFJA:25 MFJA:25 MFJA:25 MFJA:25 MFJA:25 MFJA:25 MFJA:25 MFJA:25 MFJA:25 MFJA:25 MFJA:25 MFJA:25 MFJA:25 MFJA:25 MFJA:25 MFJA:25 MFJA:25 MFJA:25 MFJA:25 MFJA:25 MFJA:25 MFJA:25 MFJA:25 MFJA:25 MFJA:25 MFJA:25 MFJA:25 MFJA:25 MFJA:25 MFJA:25 MFJA:25 MFJA:25 MFJA:25 MFJA:25 MFJA:25 MFJA:25 MFJA:25 MFJA:25 MFJA:25 MFJA:25 MFJA:25 MFJA:25 MFJA:25 MFJA:25 MFJA:25 MFJA:25 MFJA:25 MFJA:25 MFJA:25 MFJA:25 MFJA:25 MFJA:25 MFJA:25 MFJA:25 MFJA:25 MFJA:25 MFJA:25 MFJA:25 MFJA:25 MFJA:25 MFJA:25 MFJA:25 MFJA:25 MFJA:25 MFJA:25 MFJA:25 MFJA:25 MFJA:25 MFJA:25 MFJA:25 MFJA:25 MFJA:25 MFJA:25 MFJA:25 MFJA:25 MFJA:25 MFJA:25 MFJA:25 MFJA:25 MFJA:25 MFJA:25 MFJA:25 MFJA:25 MFJA:25 MFJA:25 MFJA:25 MFJA:25 MFJA:25 MFJA:25 MFJA:25 MFJA:25 MFJA:25 MFJA:25 MFJA:25 MFJA:25 MFJA:25 MFJA:25 MFJA:25 MFJA:25 MFJA:25 MFJA:25 MFJA:25 MFJA:25 MFJA:25 MFJA:25 MFJA:25 MFJA:25 MFJA:25 MFJA:25 MFJA:25 MFJA:25 MFJA:25 MFJA:25 MFJA:25 MFJA:25 MFJA:25 MFJA:25 MFJA:25 MFJA:25 MFJA:25 MFJA:25 MFJA:25 MFJA:25 MFJA:25 MFJA:25 MFJA:25 MFJA:25 MFJA:25 MFJA:25 MFJA:25 MFJA:25 MFJA:25 MFJA:25 MFJA:25 MFJA:25 MFJA:25 MFJA:25 MFJA:25 MFJA:25 MFJA:25 MFJA:25 MFJA:25 MFJA:25 MFJA:25 MFJA:25 MFJA:25 MFJA:25 MFJA:25 MFJA:25 MFJA:25 MFJA:25 MFJA:25 MFJA:25 MFJA:25 MFJA:25 MFJA:25 MFJA:25 MFJA:25 MFJA:25 MFJA:25 MFJA:25 MFJA:25 MFJA:25 MFJA:25 MFJA:25 MFJA:25 MFJA:25 MFJA:25 MFJA:25 MFJA:25 MFJA:25 MFJA:25 MFJA:25 MFJA:25 MFJA:25 MFJA:25 MFJA:25 MFJA:25 MFJA:25 MFJA:25 MFJA:25 MFJA:25 MFJA:25 MFJA:25 MFJA:25 MFJA:25 MFJA:25 MFJA:25 MFJA:25 MFJA:25 MFJA:25 MFJA:25 MFJA:25 MFJA:25 MFJA:25 MFJA:25 MFJA:25 MFJA:25 MFJA:25 MFJA:25 MFJA:25 MFJA:25 MFJA:25 MFJA:25 MFJA:25 MFJA:25 MFJA:25 MFJA:25 MFJA:25 MFJA:25 MFJA:25 MFJA:25 MFJA:25 MFJA:25 MFJA:25 MFJA:25 MFJA:25 MFJA:25 MFJA:25 MFJA:25 MFJA:25 MFJA:25 MFJA:25 MFJA:25 MFJA:25 MFJA:25 MFJA:25 MFJA:25 MFJA:25 MFJA:25 MFJA:25 MFJA:25 MFJA:25 MFJA:25 MFJA:25 MFJA:25 MFJA:25 MFJA:25 MFJA:25 MFJA:25 MFJA:25 MFJA:25 MFJA:25 MFJA:25 MFJA:25 MFJA:25 MFJA:25 MFJA:25 MFJA:25 MFJA:25 MFJA:25 MFJA:25 MFJA:25 MFJA:25 MFJA:25 MFJA:25 MFJA:25 MFJA:25 MFJA:25 MFJA:25 MFJA:25 MFJA:25 MFJA:25 MFJA:25 MFJA:25 MFJA:25 MFJA:25 MFJA:25 MFJA:25 MFJA:25 MFJA:25 MFJA:25 MFJA:25 MFJA:25 MFJA:25 MFJA:25 MFJA:25 MFJA:25 MFJA:25 MFJA:25 MFJA:25 MFJA:25 MFJA:25 MFJA:25 MFJA:25 MFJA:25 MFJA:25 MFJA:25 MFJA:25 MFJA:25 MFJA:25 MFJA:25 MFJA:25 MFJA:25 MFJA:25 MFJA:25 MFJA:25 MFJA:25 MFJA:25 MFJA:25 MFJA:25 MFJA:25 MFJA:25 MFJA:25 MFJA:25 MFJA:25 MFJA:25 MFJA:25 MFJA:25 MFJA:25 MFJA:25 MFJA:25 MFJA:25 MFJA:25 MFJA:25 MFJA:25 MFJA:25 MFJA:25 MFJA:25 MFJA:25 MFJA:25 MFJA:25 MFJA:25 MFJA:25 MFJA:25 MFJA:25 MFJA:25 MFJA:25 MFJA:25 MFJA:25 MFJA:25 MFJA:25 MFJA:25 MFJA:25 MFJA:25 MFJA:25 MFJA:25 MFJA:25 MFJA:25 MFJA:25 MFJA:25 MFJA:25 MFJA:25 MFJA:25 MFJA:25 MFJA:25 MFJA:25 MFJA:25 MFJA:25 MFJA:25 MFJA:25 MFJA:25 MFJA:25 MFJA:25 MFJA:25 MFJA:25 MFJA:25 MFJA:25 MFJA:25 MFJA:25 MFJA:25 MFJA:25 MFJA:25 MFJA:25 MFJA:25 MFJA:25 MFJA:25 MFJA:25 MFJA:25 MFJA:25 MFJA:25 MFJA:25 MFJA:25 MFJA:25 MFJA:25 MFJA:25 MFJA:25 MFJA:25 MFJA:25 MFJA:25 MFJA:25 MFJA:25 MFJA:25 MFJA:25 MFJA:25 MFJA:25 MFJA:25 MFJA:25 MFJA:25 MFJA:25 MFJA:25 MFJA:25 MFJA:25 MFJA:25 MFJA:25 MFJA:25 MFJA:25 MFJA:25 MFJA:25 MFJA:25 MFJA:25 MFJA:25 MFJA:25 MFJA:25 MFJA:25 MFJA:25 MFJA:25 MFJA:25 MFJA:25 MFJA:25 MFJA:25 MFJA:25 MFJA:25 MFJA:25 MFJA:25 MFJA:25 MFJA:25 MFJA:25 MFJA:25 MFJA:25 MFJA:25 MFJA:25 MFJA:25 MFJA:25 MFJA:25 MFJA:25 MFJA:25 MFJA:25 MFJA:25 MFJA:25 MFJA:25 MFJA:25 MFJA:25 MFJA:25 MFJA:25 MFJA:25 MFJA:25 MFJA:25 MFJA:25 MFJA:25 MFJA:25 MFJA:25 MFJA:25 MFJA:25 MFJA:25 MFJA:25 MFJA:25 MFJA:25 MFJA:25 MFJA:25 MFJA:25 MFJA:25 MFJA:25 MFJA:25 MFJA:25 MFJA:25 MFJA:25 MFJA:25 MFJA:25 MFJA:25 MFJA:25 MFJA:25 MFJA:25 MFJA:25 MFJA:25 MFJA:25 MFJA:25 MFJA:25 MFJA:25 MFJA:25 MFJA:25 MFJA:25 MFJA:25 MFJA:25 MFJA:25 MFJA:25 MFJA:25 MFJA:25 MFJA:25 MFJA:25 MFJA:25 MFJA:25 MFJA:25 MFJA:25 MFJA:25 MFJA:25 MFJA:25 MFJA:25 MFJA:25 MFJA:25 MFJA:25 MFJA:25 MFJA:25 MFJA:25 MFJA:25 MFJA:25 MFJA:25 MFJA:25 MFJA:25 MFJA:25 MFJA:25 MFJA:25 MFJA:25 MFJA:25 MFJA:25 MFJA:25 MFJA:25 MFJA:25 MFJA:25 MFJA:25 MFJA:25 MFJA:25 MFJA:25 MFJA:25 MFJA:25 MFJA:25 MFJA:25 MFJA:25 MFJA:25 MFJA:25 MFJA:25 MFJA:25 MFJA:25 MFJA:25 MFJA:25 MFJA:25 MFJA:25 MFJA:25 MFJA:25 MFJA:25 MFJA:25 MFJA:25 MFJA:25 MFJA:25 MFJA:25 MFJA:25 MFJA:25 MFJA:25 MFJA:25 MFJA:25 MFJA:25 MFJA:25 MFJA:25 MFJA:25 MFJA:25 MFJA:25 MFJA:25 MFJA:25 MFJA:25 MFJA:25 MFJA:25 MFJA:25 MFJA:25 MFJA:25 MFJA:25 MFJA:25 MFJA:25 MFJA:25 MFJA:25 MFJA:25 MFJA:25 MFJA:25 MFJA:25 MFJA:25 MFJA:25 MFJA:25 MFJA:25 MFJA:25 MFJA:25 MFJA:25 MFJA:25 MFJA:25 MFJA:25 MFJA:25 MFJA:25 MFJA:25 MFJA:25 MFJA:25 MFJA:25 MFJA:25 MFJA:25 MFJA:25 MFJA:25 MFJA:25 MFJA:25 MFJA:25 MFJA:25 MFJA:25 MFJA:25 MFJA:25 MFJA:25 MFJA:25 MFJA:25 MFJA:25 MFJA:25 MFJA:25 MFJA:25 MFJA:25 MFJA:25 MFJA:25 MFJA:25 MFJA:25 MFJA:25 MFJA:25 MFJA:25 MFJA:25 MFJA:25 MFJA:25 MFJA:25 MFJA:25 MFJA:25 MFJA:25 MFJA:25 MFJA:25 MFJA:25 MFJA:25 MFJA:25 MFJA:25 MFJA:25 MFJA:25 MFJA:25 MFJA:25 MFJA:25 MFJA:25 MFJA:25 MFJA:25 MFJA:25 MFJA:25 MFJA:25 MFJA:25 MFJA:25 MFJA:25 MFJA:25 MFJA:25 MFJA:25 MFJA:25 MFJA:25 MFJA:25 MFJA:25 MFJA:25 MFJA:25 MFJA:25 MFJA:25 MFJA:25 MFJA:25 MFJA:25 MFJA:25 MFJA:25 MFJA:25 MFJA:25 MFJA:25 MFJA:25 MFJA:25 MFJA:25 MFJA:25 MFJA:25 MFJA:25 MFJA:25 MFJA:25 MFJA:25 MFJA:25 MFJA:25 MFJA:25 MFJA:25 MFJA:25 MFJA:25 MFJA:25 MFJA:25 MFJA:25 MFJA:25 MFJA:25 MFJA:25 MFJA:25 MFJA:25 MFJA:25 MFJA:25 MFJA:25 MFJA:25 MFJA:25 MFJA:25 MFJA:25 MFJA:25 MFJA:25 MFJA:25 MFJA:25 MFJA:25 MFJA:25 MFJA:25 MFJA:25 MFJA:25 MFJA:25 MFJA:25 MFJA:25 MFJA:25 MFJA:25 MFJA:25 MFJA:25 MFJA:25 MFJA:25 MFJA:25 MFJA:25 MFJA:25 MFJA:25 MFJA:25 MFJA:25 MFJA:25 MFJA:25 MFJA:25 MFJA:25 MFJA:25 MFJA:25 MFJA:25 MFJA:25 MFJA:25 MFJA:25 MFJA:25 MFJA:25 MFJA:25 MFJA:25 MFJA:25 MFJA:25 MFJA:25 MFJA:25 MFJA:25 MFJA:25 MFJA:25 MFJA:25 MFJA:25 MFJA:25 MFJA:25 MFJA:25 MFJA:25 MFJA:25 MFJA:25 MFJA:25 MFJA:25 MFJA:25 MFJA:25 MFJA:25 MFJA:25 MFJA:25 MFJA:25 MFJA:25 MFJA:25 MFJA:25 MFJA:25 MFJA:25 MFJA:25 MFJA:25 MFJA:25 MFJA:25 MFJA:25 MFJA:25 MFJA:25 MFJA:25 MFJA:25 MFJA:25 MFJA:25 MFJA:25 MFJA:25 MFJA:25 MFJA:25 MFJA:25 MFJA:25 MFJA:25 MFJA:25 MFJA:25 MFJA:25 MFJA:25 MFJA:25 MFJA:25 MFJA:25 MFJA:25 MFJA:25 MFJA:25 MFJA:25 MFJA:25 MFJA:25 MFJA:25 MFJA:25 MFJA:25 MFJA:25 MFJA:25 MFJA:25 MFJA:25 MFJA:25 MFJA:25 MFJA:25 MFJA:25 MFJA:25 MFJA:25 MFJA:25 MFJA:25 MFJA:25 MFJA:25 MFJA:25 MFJA:25 MFJA:25 MFJA:25 MFJA:25 MFJA:25 MFJA:25 MFJA:25 MFJA:25 MFJA:25 MFJA:25 MFJA:25 MFJA:25 MFJA:25 MFJA:25 MFJA:25 MFJA:25 MFJA:25 MFJA:25 MFJA:25 MFJA:25 MFJA:25 MFJA:25 MFJA:25 MFJA:25 MFJA:25 MFJA:25 MFJA:25 MFJA:25 MFJA:25 MFJA:25 MFJA:25 MFJA:25 MFJA:25 MFJA:25 MFJA:25 MFJA:25 MFJA:25 MFJA:25 MFJA:25 MFJA:25 MFJA:25 MFJA:25 MFJA:25 MFJA:25 MFJA:25 MFJA:25 MFJA:25 MFJA:25 MFJA:25 MFJA:25 MFJA:25 MFJA:25 MFJA:25 MFJA:25 MFJA:25 MFJA:25 MFJA:25 MFJA:25 MFJA:25 MFJA:25 MFJA:25 MFJA:25 MFJA:25 MFJA:25 MFJA:25 MFJA:25 MFJA:25 MFJA:25 MFJA:25 MFJA:25 MFJA:25 MFJA:25 MFJA:25 MFJA:25 MFJA:25 MFJA:25 MFJA:25 MFJA:25 MFJA:25 MFJA:25 MFJA:25 MFJA:25 MFJA:25 MFJA:25 MFJA:25 MFJA:25 MFJA:25 MFJA:25 MFJA:25 MFJA:25 MFJA:25 MFJA:25 MFJA:25 MFJA:25 MFJA:25 MFJA:25 MFJA:25 MFJA:25 MFJA:25 MFJA:25 MFJA:25 MFJA:25 MFJA:25 MFJA:25 MFJA:25 MFJA:25 MFJA:25 MFJA:25 MFJA:25 MFJA:25 MFJA:25 MFJA:25 MFJA:25 MFJA:25 MFJA:25 MFJA:25 MFJA:25 MFJA:25 MFJA:25 MFJA:25 MFJA:25 MFJA:25 MFJA:25 MFJA:25 MFJA:25 MFJA:25 MFJA:25 MFJA:25 MFJA:25 MFJA:25 MFJA:25 MFJA:25 MFJA:25 MFJA:25 MFJA:25 MFJA:25 MFJA:25 MFJA:25 MFJA:25 MFJA:25 MFJA:25 MFJA:25 MFJA:25 MFJA:25 MFJA:25 MFJA:25 MFJA:25 MFJA:25 MFJA:25 MFJA:25 MFJA:25 MFJA:25 MFJA:25 MFJA:25 MFJA:25 MFJA:25 MFJA:25 MFJA:25 MFJA:25 MFJA:25 MFJA:25 MFJA:25 MFJA:25 MFJA:25 MFJA:25 MFJA:25 MFJA:25 MFJA:25 MFJA:25 MFJA:25 MFJA:25 MFJA:25 MFJA:25 MFJA:25 MFJA:25 MFJA:25 MFJA:25 MFJA:25 MFJA:25 MFJA:25 MFJA:25 MFJA:25 MFJA:25 MFJA:25 MFJA:25 MFJA:25 MFJA:25 MFJA:25 MFJA:25 MFJA:25 MFJA:25 MFJA:25 MFJA:25 MFJA:25 MFJA:25 MFJA:25 MFJA:25 MFJA:25 MFJA:25 MFJA:25 MFJA:25 MFJA:25 MFJA:25 MFJA:25 MFJA:25 MFJA:25 MFJA:25 MFJA:25 MFJA:25 MFJA:25 MFJA:25 MFJA:25 MFJA:25 MFJA:25 MFJA:25 MFJA:25 MFJA:25 MFJA:25 MFJA:25 MFJA:25 MFJA:25 MFJA:25 MFJA:25 MFJA:25 MFJA:25 MFJA:25 MFJA:25 MFJA:25 MFJA:25 MFJA:25 MFJA:25 MFJA:25 MFJA:25 MFJA:25 MFJA:25 MFJA:25 MFJA:25 MFJA:25 MFJA:25 MFJA:25 MFJA:25 MFJA:25 MFJA:25 MFJA:25 MFJA:25 MFJA:25 MFJA:25 MFJA:25 MFJA:25 MFJA:25 MFJA:25 MFJA:25 MFJA:25 MFJA:25 MFJA:25 MFJA:25 MFJA:25 MFJA:25 MFJA:25 MFJA:25 MFJA:25 MFJA:25 MFJA:25 MFJA:25 MFJA:25 MFJA:25 MFJA:25 MFJA:25 MFJA:25 MFJA:25 MFJA:25 MFJA:25 MFJA:25 MFJA:25 MFJA:25 MFJA:25 MFJA:25 MFJA:25 MFJA:25 MFJA:25 MFJA:25 MFJA:25 MFJA:25 MFJA:25 MFJA:25 MFJA:25 MFJA:25 MFJA:25 MFJA:25 MFJA:25 MFJA:25 MFJA:25 MFJA:25 MFJA:25 MFJA:25 MFJA:25 MFJA:25 MFJA:25 MFJA:25 MFJA:25 MFJA:25 MFJA:25 MFJA:25 MFJA:25 MFJA:25 MFJA:25 MFJA:25 MFJA:25 MFJA:25 MFJA:25 MFJA:25 MFJA:25 MFJA:25 MFJA:25 MFJA:25 A:25 A:25 A:25 A:25 A:25 A:25 FA:25 FA:25 FA:25 FA:25 FA:25 FA:25 FA:25 FA:25 FA:25 FA:25 FA:25 FA:25 FA:25 FA:25 FA:25 FA:25 FA:25 FA:25 FA:25 FA:25 FA:25 FA:25 FA:25 FA:25 FA:25 FA:25 FA:25 FA:25 FA:25 FA:25 FA:25 FA:25 FA:25 FA:25 FA:25 FA:25 FA:25 FA:25 FA:25 FA:25 FA:25 FA:25 FA:25 FA:25 FA:25 FA:25 FA:25 FA:25 FA:25 FA:25 FA:25 FA:25 FA:25 FA:25 FA:25 FA:25 FA:25 FA:25 FA:25 FA:25 FA:25 FA:25 FA:25 FA:25 FA:25 FA:25 FA:25 FA:25 FA:25 FA:25 FA:25 FA:25 FA:25 FA:25 FA:25 FA:25 FA:25 FA:25 FA:25 FA:25 FA:25 FA:25 FA:25 FA:25 FA:25 FA:25 FA:25 FA:25 FA:25 FA:25 FA:25 FA:25 FA:25 FA:25 FA:25 FA:25 FA:25 FA:25 FA:25 FA:25 FA:25 FA:25 FA:25 FA:25 FA:25 FA:25 FA:25 FA:25 FA:25 FA:25 FA:25 FA:25 FA:25 FA:25 FA:25 FA:25 FA:25 FA:25 FA:25 FA:25 FA:25 FA:25 FA:25 FA:25 FA:25 FA:25 FA:25 FA:25 FA:25 FA:25 FA:25 FA:25 FA:25 FA:25 FA:25 FA:25 FA:25 FA:25 FA:25 FA:25 FA:25 FA:25 FA:25 FA:25 FA:25 FA:25 FA:25 FA:25 FA:25 FA:25 FA:25 FA:25 FA:25 FA:25 FA:25 FA:25 FA:25 FA:25 FA:25 FA:25 FA:25 FA:25 FA:25 FA:25 FA:25 FA:25 FA:25 FA:25 FA:25 FA:25 FA:25 FA:25 FA:25 FA:25 FA:25 FA:25 FA:25 FA:25 FA:25 FA:25 FA:25 FA:25 FA:25 FA:25 FA:25 FA:25 FA:25 FA:25 FA:25 FA:25 FA:25 FA:25 FA:25 FA:25 FA:25 FA:25 FA:25 FA:25 FA:25 FA:25 FA:25 FA:25 FA:25 FA:25 FA:25 FA:25 FA:25 FA:25 FA:25 FA:25 FA:25 FA:25 FA:25 FA:25 FA:25 FA:25 FA:25 FA:25 FA:25 FA:25 FA:25 FA:25 FA:25 FA:25 FA:25 FA:25 FA:25 FA:25 FA:25 FA:25 FA:25 FA:25 FA:25 FA:25 FA:25 FA:25 FA:25 FA:25 FA:25 FA:25 FA:25 FA:25 FA:25 FA:25 FA:25 FA:25 FA:25 FA:25 FA:25 FA:25 FA:25 FA:25 FA:25 FA:25 FA:25 FA:25 FA:25 FA:25 FA:25 FA:25 FA:25 FA:25 FA:25 FA:25 FA:25 FA:25 FA:25 FA:25 FA:25 FA:25 FA:25 FA:25 FA:25 FA:25 FA:25 FA:25 FA:25 FA:25 FA:25 FA:25 FA:25 FA:25 FA:25 FA:25 FA:25 FA:25 FA:25 FA:25 FA:25 FA:25 FA:25 FA:25 FA:25 FA:25 FA:25 FA:25 FA:25 FA:25 FA:25 FA:25 FA:25 FA:25 FA:25 FA:25 FA:25 FA:25 FA:25 FA:25 FA:25 FA:25 FA:25 FA:25 FA:25 FA:25 FA:25 FA:25 FA:25 FA:25 FA:25 FA:25 FA:25 FA:25 FA:25 FA:25 FA:25 FA:25 FA:25 FA:25 FA:25 FA:25 FA:25 FA:25 FA:25 FA:25 FA:25 FA:25 FA:25 FA:25 FA:25 FA:25 FA:25 FA:25 FA:25 FA:25 FA:25 FA:25 FA:25 FA:25 FA:25 FA:25 FA:25 FA:25 FA:25 FA:25 FA:25 FA:25 FA:25 FA:25 FA:25 FA:25 FA:25 FA:25 FA:25 FA:25 FA:25 FA:25 FA:25 FA:25 FA:25 FA:25 FA:25 FA:25 FA:25 FA:25 FA:25 FA:25 FA:25 FA:25 FA:25 FA:25 FA:25 FA:25 FA:25 FA:25 FA:25 FA:25 FA:25 FA:25 FA:25 FA:25 FA:25 FA:25 FA:25 FA:25 FA:25 FA:25 FA:25 FA:25 FA:25 FA:25 FA:25 FA:25 FA:25 FA:25 FA:25 FA:25 A:25 A:25 A:25 A:25 A:25 AD:25 AD:25 AD:25 AD:25 AD:25 AD:25 AD:25 AD:25 AD:25 AD:25 AD:25 AD:25 AD:25 AD:25 AD:25 AD:25 AD:25 AD:25 AD:25 AD:25 AD:25 AD:25 AD:25 AD:25 AD:25 AD:25 AD:25 AD:25 AD:25 AD:25 AD:25 AD:25 AD:25 AD:25 AD:25 AD:25 AD:25 AD:25 AD:25 AD:25 AD:25 AD:25 AD:25 AD:25 AD:25 AD:25 AD:25 AD:25 AD:25 AD:25 AD:25 AD:25 AD:25 AD:25 AD:25 AD:25 AD:25 AD:25 AD:25 AD:25 AD:25 AD:25 AD:25 AD:25 AD:25 AD:25 AD:25 AD:25 AD:25 AD:25 AD:25 AD:25 AD:25 AD:25 AD:25 AD:25 AD:25 AD:25 AD:25 AD:25 AD:25 AD:25 AD:25 AD:25 AD:25 AD:25 AD:25 AD:25 AD:25 AD:25 AD:25 AD:25 AD:25 AD:25 AD:25 AD:25 AD:25 AD:25 AD:25 AD:25 AD:25 AD:25 AD:25 AD:25 AD:25 AD:25 AD:25 AD:25 AD:25 AD:25 AD:25 AD:25 AD:25 AD:25 AD:25 AD:25 AD:25 AD:25 AD:25 AD:25 AD:25 AD:25 AD:25 AD:25 AD:25 AD:25 AD:25 AD:25 AD:25 AD:25 AD:25 AD:25 AD:25 AD:25 AD:25 AD:25 AD:25 AD:25 AD:25 AD:25 AD:25 AD:25 AD:25 AD:25 AD:25 AD:25 AD:25 AD:25 AD:25 AD:25 AD:25 AD:25 AD:25 AD:25 AD:25 AD:25 AD:25 AD:25 AD:25 AD:25 AD:25 AD:25 AD:25 AD:25 AD:25 AD:25 AD:25 AD:25 AD:25 AD:25 AD:25 AD:25 AD:25 AD:25 AD:25 AD:25 AD:25 AD:25 AD:25 AD:25 AD:25 AD:25 AD:25 AD:25 AD:25 AD:25 AD:25 AD:25 AD:25 AD:25 AD:25 AD:25 AD:25 AD:25 AD:25 AD:25 AD:25 D:25 D:25 D:25 D:25 D:25 :25 :25 :25 :25 :25 A:25 A:25 A:25 A:25 A:25 A:25 A:25 A:25 A:25 A:25 A:25 A:25 A:25 A:25 A:25 A:25 A:25 A:25 A:25 A:25 A:25 A:25 A:25 A:25 A:25 A:25 A:25 A:25 A:25 A:25 A:25 A:25 A:25 A:25 A:25 A:25 A:25 A:25 A:25 A:25 A:25 A:25 A:25 A:25 A:25 A:25 A:25 A:25 A:25 A:25 A:25 A:25 A:25 A:25 A:25 A:25 A:25 A:25 A:25 A:25 A:25 A:25 A:25 A:25 A:25 A:25 A:25 A:25 A:25 A:25 A:25 A:25 A:25 A:25 A:25 A:25 A:25 A:25 A:25 A:25 A:25 A:25 A:25 A:25 A:25 A:25 A:25 A:25 A:25 A:25 A:25 A:25 A:25 A:25 A:25 A:25 A:25 A:25 A:25 A:25 A:25 A:25 A:25 A:25 A:25 A:25 A:25 A:25 A:25 A:25 A:25 A:25 A:25 A:25 A:25 A:25 A:25 A:25 A:25 A:25 A:25 A:25 A:25 A:25 A:25 A:25 A:25 A:25 A:25 A:25 A:25 A:25 A:25 A:25 A:25 A:25 A:25 A:25 A:25 A:25 A:25 A:25 A:25 A:25 A:25 A:25 A:25 A:25 A:25 A:25 A:25 A:25 A:25 A:25 A:25 A:25 A:25 A:25 A:25 A:25 A:25 A:25 A:25 A:25 A:25 A:25 A:25 A:25 A:25 A:25 A:25 A:25 A:25 A:25 A:25 A:25 A:25 A:25 A:25 A:25 A:25 A:25 A:25 A:25 A:25 A:25 A:25 A:25 A:25 A:25 A:25 A:25 A:25 A:25 A:25 A:25 A:25 A:25 A:25 A:25 A:25 A:25 A:25 A:25 A:25 A:25 AC:25 AC:25 AC:25 AC:25 AC:25 AC:25 AC:25 AC:25 AC:25 AC:25 AC:25 AC:25 AC:25 AC:25 AC:25 AC:25 AC:25 AC:25 AC:25 AC:25 AC:25 AC:25 AC:25 AC:25 AC:25 AC:25 AC:25 AC:25 AC:25 AC:25 AC:25 AC:25 AC:25 AC:25 AC:25 AC:25 AC:25 AC:25 AC:25 AC:25 AC:25 AC:25 AC:25 AC:25 AC:25 AC:25 AC:25 AC:25 AC:25 AC:25 AC:25 AC:25 AC:25 AC:25 AC:25 AC:25 AC:25 AC:25 AC:25 AC:25 AC:25 AC:25 AC:25 AC:25 AC:25 AC:25 AC:25 AC:25 AC:25 AC:25 AC:25 AC:25 AC:25 AC:25 AC:25 AC:25 AC:25 AC:25 AC:25 AC:25 AC:25 AC:25 AC:25 AC:25 AC:25 AC:25 AC:25 AC:25 AC:25 AC:25 AC:25 AC:25 AC:25 AC:25 AC:25 AC:25 AC:25 AC:25 AC:25 AC:25 AC:25 AC:25 AC:25 AC:25 AC:25 AC:25 AC:25 AC:25 AC:25 AC:25 AC:25 AC:25 AC:25 AC:25 AC:25 AC:25 AC:25 AC:25 AC:25 AC:25 AC:25 AC:25 AC:25 AC:25 AC:25 AC:25 AC:25 AC:25 AC:25 AC:25 AC:25 AC:25 AC:25 AC:25 AC:25 AC:25 AC:25 AC:25 AC:25 AC:25 AC:25 AC:25 AC:25 AC:25 AC:25 AC:25 AC:25 AC:25 AC:25 AC:25 AC:25 AC:25 AC:25 AC:25 AC:25 AC:25 AC:25 AC:25 AC:25 AC:25 AC:25 AC:25 AC:25 AC:25 AC:25 AC:25 AC:25 AC:25 AC:25 AC:25 AC:25 AC:25 AC:25 AC:25 AC:25 AC:25 AC:25 AC:25 AC:25 AC:25 AC:25 AC:25 AC:25 AC:25 AC:25 AC:25 AC:25 AC:25 AC:25 AC:25 AC:25 AC:25 AC:25 AC:25 AC:25 AC:25 AC:25 AC:25 AC:25 AC:25 C:25 C:25 C:25 C:25 C:25 C:25 C:25 C:25 C:25 C:25 C:25 C:25 C:25 C:25 C:25 C:25 C:25 C:25 C:25 C:25 C:25 C:25 C:25 C:25 C:25 C:25 C:25 C:25 C:25 C:25 C:25 C:25 C:25 C:25 C:25 C:25 C:25 C:25 C:25 C:25 C:25 C:25 C:25 C:25 C:25 C:25 C:25 C:25 C:25 C:25 C:25 C:25 C:25 C:25 C:25 C:25 C:25 C:25 C:25 C:25 C:25 C:25 C:25 C:25 C:25 C:25 C:25 C:25 C:25 C:25 C:25 C:25 C:25 C:25 C:25 C:25 C:25 C:25 C:25 C:25 C:25 C:25 C:25 C:25 C:25 C:25 C:25 C:25 C:25 C:25 C:25 C:25 C:25 C:25 C:25 C:25 C:25 C:25 C:25 C:25 C:25 C:25 C:25 C:25 C:25 C:25 C:25 C:25 C:25 C:25 C:25 C:25 C:25 C:25 C:25 C:25 C:25 C:25 C:25 C:25 C:25 C:25 C:25 C:25 C:25 C:25 C:25 C:25 C:25 C:25 C:25 C:25 C:25 C:25 C:25 C:25 C:25 C:25 C:25 C:25 C:25 C:25 C:25 C:25 C:25 C:25 C:25 C:25 C:25 C:25 C:25 C:25 C:25 C:25 C:25 C:25 C:25 C:25 C:25 C:25 C:25 C:25 C:25 C:25 C:25 C:25 C:25 C:25 C:25 C:25 C:25 C:25 C:25 C:25 C:25 C:25 C:25 C:25 C:25 C:25 C:25 C:25 C:25 C:25 C:25 C:25 C:25 C:25 C:25 C:25 C:25 C:25 C:25 C:25 C:25 C:25 C:25 C:25 C:25 C:25 C:25 C:25 C:25 C:25 C:25 C:25       AC>7/ AC>7/ AC>7/ AC>7/ AC>7/ AC>7/ AC>7/ AC>7/ AC>7/ AC>7/ AC>7/ AC>7/ AC>7/ AC>7/ AC>7/ AC>7/ AC>7/ AC>7/ AC>7/ AC>7/ AC>7/ AC>7/ AC>7/ AC>7/ AC>7/ AC>7/ AC>7/ AC>7/ AC>7/ AC>7/ AC>7/ AC>7/ AC>7/ AC>7/ AC>7/ AC>7/ AC>7/ AC>7/ AC>7/ AC>7/ AC>7/ AC>7/ AC>7/ AC>7/ AC>7/ AC>7/ AC>7/ AC>7/ AC>7/ AC>7/ AC>7/ AC>7/ AC>7/ AC>7/ AC>7/ AC>7/ AC>7/ AC>7/ AC>7/ AC>7/ AC>7/ AC>7/ AC>7/ AC>7/ AC>7/ AC>7/ AC>7/ AC>7/ AC>7/ AC>7/ AC>7/ AC>7/ AC>7/ AC>7/ AC>7/ AC>7/ AC>7/ AC>7/ AC>7/ AC>7/ AC>7/ AC>7/ AC>7/ AC>7/ AC>7/ AC>7/ AC>7/ AC>7/ AC>7/ AC>7/ AC>7/ AC>7/ AC>7/ AC>7/ AC>7/ AC>7/ AC>7/ AC>7/ AC>7/ AC>7/ AC>7/ AC>7/ AC>7/ AC>7/ AC>7/ AC>7/ AC>7/ AC>7/ AC>7/ AC>7/ AC>7/ AC>7/ AC>7/ AC>7/ AC>7/ AC>7/ AC>7/ AC>7/ AC>7/ AC>7/ AC>7/ AC>7/ AC>7/ AC>7/ AC>7/ AC>7/ AC>7/ AC>7/ AC>7/ AC>7/ AC>7/ AC>7/ AC>7/ AC>7/ AC>7/ AC>7/ AC>7/ AC>7/ AC>7/ AC>7/ AC>7/ AC>7/ AC>7/ AC>7/ AC>7/ AC>7/ AC>7/ AC>7/ AC>7/ AC>7/ AC>7/ AC>7/ AC>7/ AC>7/ AC>7/ AC>7/ AC>7/ AC>7/ AC>7/ AC>7/ AC>7/ AC>7/ AC>7/ AC>7/ AC>7/ AC>7/ AC>7/ AC>7/ AC>7/ AC>7/ AC>7/ AC>7/ AC>7/ AC>7/ AC>7/ AC>7/ AC>7/ AC>7/ AC>7/ AC>7/ AC>7/ AC>7/ AC>7/ AC>7/ AC>7/ AC>7/ AC>7/ AC>7/ AC>7/ AC>7/ AC>7/ AC>7/ AC>7/ AC>7/ AC>7/ AC>7/ AC>7/ AC>7/ AC>7/ AC>7/ AC>7/ AC>7/ AC>7/ AC>7/ AC>7/ AC>7/ AC>7/ AC>7/ AC>7/ AC>7/ AC>7/ AC>7/ AC>7/ AC>7/ AC>7/ AC>7/ AC>7/ AC>7/ AC>7/ AC>7/ AC>7/ AC>7/ AC>7/ AC>7/ AC>7/ AC>7/ AC>7/ AC>7/ AC>7/ AC>7/ AC>7/ AC>7/ AC>7/ AC>7/ AC>7/ AC>7/ AC>7/ AC>7/ AC>7/ AC>7/ AC>7/ AC>7/ AC>7/ AC>7/ AC>7/ AC>7/ AC>7/ AC>7/ AC>7/ AC>7/ AC>7/ AC>7/ AC>7/ AC>7/ AC>7/ AC>7/ AC>7/ AC>7/ AC>7/ AC>7/ AC>7/ AC>7/ AC>7/ AC>7/ AC>7/ AC>7/ AC>7/ AC>7/ AC>7/ AC>7/ AC>7/ AC>7/ AC>7/ AC>7/ AC>7/ AC>7/ AC>7/ AC>7/ AC>7/ AC>7/ AC>7/ AC>7/ AC>7/ AC>7/ AC>7/ AC>7/ AC>7/ AC>7/ AC>7/ AC>7/ AC>7/ AC>7/ AC>7/ AC>7/ AC>7/ AC>7/ AC>7/ AC>7/ AC>7/ AC>7/ AC>7/ AC>7/ AC>7/ AC>7/ AC>7/ AC>7/ AC>7/ AC>7/ AC>7/ AC>7/ AC>7/ AC>7/ AC>7/ AC>7/ AC>7/ AC>7/ AC>7/ AC>7/ AC>7/ AC>7/ AC>7/ AC>7/ AC>7/ AC>7/ AC>7/ AC>7/ AC>7/ AC>7/ AC>7/ AC>7/ AC>7/ AC>7/ AC>7/ AC>7/ AC>7/ AC>7/ AC>7/ AC>7/ AC>7/ AC>7/ AC>7/ AC>7/ AC>7/ AC>7/ AC>7/ AC>7/ AC>7/ AC>7/ AC>7/ AC>7/ AC>7/ AC>7/ AC>7/ AC>7/ AC>7/ AC>7/ AC>7/ AC>7/ AC>7/ AC>7/ AC>7/ AC>7/ AC>7/ AC>7/ AC>7/ AC>7/ AC>7/ AC>7/ AC>7/ AC>7/ AC>7/ AC>7/ AC>7/ AC>7/ AC>7/ AC>7/ AC>7/ AC>7/ AC>7/ AC>7/ AC>7/ AC>7/ AC>7/ AC>7/ AC>7/ AC>7/ AC>7/ AC>7/ AC>7/ AC>7/ AC>7/ AC>7/ AC>7/ AC>7/ AC>7/ AC>7/ AC>7/ AC>7/ AC>7/ AC>7/ AC>7/ AC>7/ AC>7/ AC>7/ AC>7/ AC>7/ AC>7/ AC>7/ AC>7/ AC>7/ AC>7/ AC>7/ AC>7/ AC>7/ AC>7/ AC>7/ AC>7/ AC>7/ AC>7/ AC>7/ AC>7/ AC>7/ AC>7/ AC>7/ AC>7/ AC>7/ AC>7/ AC>7/ AC>7/ AC>7/ AC>7/ AC>7/ AC>7/ AC>7/ AC>7/ AC>7/ AC>7/ AC>7/ AC>7/ AC>7/ AC>7/ AC>7/ AC>7/ AC>7/ AC>7/ AC>7/ AC>7/ AC>7/ AC>7/ AC>7/ AC>7/ AC>7/ AC>7/ AC>7/ AC>7/ AC>7/ AC>7/ AC>7/ AC>7/ AC>7/ AC>7/ AC>7/ AC>7/ AC>7/ AC>7/ AC>7/ AC>7/ AC>7/ AC>7/ AC>7/ AC>7/ AC>7/ AC>7/ AC>7/ AC>7/ AC>7/ AC>7/ AC>7/ AC>7/ AC>7/ AC>7/ AC>7/ AC>7/ AC>7/ AC>7/ AC>7/ AC>7/ AC>7/ AC>7/ AC>7/ AC>7/ AC>7/ AC>7/ AC>7/ AC>7/ AC>7/ AC>7/ AC>7/ AC>7/ AC>7/ AC>7/ AC>7/ AC>7/ AC>7/ AC>7/ AC>7/ AC>7/ AC>7/ AC>7/ AC>7/ AC>7/ AC>7/ AC>7/ AC>7/ AC>7/ AC>7/ AC>7/ AC>7/ AC>7/ AC>7/ AC>7/ AC>7/ AC>7/ AC>7/ AC>7/ AC>7/ AC>7/ AC>7/ AC>7/ AC>7/ AC>7/ AC>7/ AC>7/ AC>7/ AC>7/ AC>7/ AC>7/ AC>7/ AC>7/ AC>7/ AC>7/ AC>7/ AC>7/ AC>7/ AC>7/ AC>7/ AC>7/ AC>7/ AC>7/ AC>7/ AC>7/ AC>7/ AC>7/ AC>7/ AC>7/ AC>7/ AC>7/ AC>7/ AC>7/ AC>7/ AC>7/ AC>7/ AC>7/ AC>7/ AC>7/ AC>7/ AC>7/ AC>7/ AC>7/ AC>7/ AC>7/ AC>7/ AC>7/ AC>7/ AC>7/ AC>7/ AC>7/ AC>7/ AC>7/ AC>7/ AC>7/ AC>7/ AC>7/ AC>7/ AC>7/ AC>7/ AC>7/ AC>7/ AC>7/ AC>7/ AC>7/ AC>7/ AC>7/ AC>7/ AC>7/ AC>7/ AC>7/ AC>7/ AC>7/ AC>7/ AC>7/ AC>7/ AC>7/ AC>7/ AC>7/ AC>7/ AC>7/ AC>7/ AC>7/ AC>7/ AC>7/ AC>7/ AC>7/ AC>7/ AC>7/ AC>7/ AC>7/ AC>7/ AC>7/ AC>7/ AC>7/ AC>7/ AC>7/ AC>7/ AC>7/ AC>7/ AC>7/ AC>7/ AC>7/ AC>7/ AC>7/ AC>7/ AC>7/ AC>7/ AC>7/ AC>7/ AC>7/ AC>7/ AC>7/ AC>7/ AC>7/ AC>7/ AC>7/ AC>7/ AC>7/ AC>7/ AC>7/ AC>7/ AC>7/ AC>7/ AC>7/ AC>7/ AC>7/ AC>7/ AC>7/ AC>7/ AC>7/ AC>7/ AC>7/ AC>7/ AC>7/ AC>7/ AC>7/ AC>7/ AC>7/ AC>7/ AC>7/ AC>7/ AC>7/ AC>7/ AC>7/ AC>7/ AC>7/ AC>7/ AC>7/ AC>7/ AC>7/ AC>7/ AC>7/ AC>7/ AC>7/ AC>7/ AC>7/ AC>7/ AC>7/ AC>7/ AC>7/ AC>7/ AC>7/ AC>7/ AC>7/ AC>7/ AC>7/ AC>7/ AC>7/ AC>7/ AC>7/ AC>7/ AC>7/ AC>7/ AC>7/ AC>7/ AC>7/ AC>7/ AC>7/ AC>7/ AC>7/ AC>7/ AC>7/ AC>7/ AC>7/ AC>7/ AC>7/ AC>7/ AC>7/ AC>7/ AC>7/ AC>7/ AC>7/ AC>7/ AC>7/ AC>7/ AC>7/ AC>7/ AC>7/ AC>7/ AC>7/ AC>7/ AC>7/ AC>7/ AC>7/ AC>7/ AC>7/ AC>7/ AC>7/ AC>7/ AC>7/ AC>7/ AC>7/ AC>7/ AC>7/ AC>7/ AC>7/ AC>7/ AC>7/ AC>7/ AC>7/ AC>7/ AC>7/ AC>7/ AC>7/ AC>7/ AC>7/ AC>7/ AC>7/ AC>7/ AC>7/ AC>7/ AC>7/ AC>7/ AC>7/ AC>7/ AC>7/ AC>7/ AC>7/ AC>7/ AC>7/ AC>7/ AC>7/ AC>7/ AC>7/ AC>7/ AC>7/ AC>7/ AC>7/ AC>7/ AC>7/ AC>7/ AC>7/ AC>7/ AC>7/ AC>7/ AC>7/ AC>7/ AC>7/ AC>7/ AC>7/ AC>7/ AC>7/ AC>7/ AC>7/ AC>7/ AC>7/ AC>7/ AC>7/ AC>7/ AC>7/ AC>7/ AC>7/ AC>7/ AC>7/ AC>7/ AC>7/ AC>7/ AC>7/ AC>7/ AC>7/ AC>7/ AC>7/ AC>7/ AC>7/ AC>7/ AC>7/ AC>7/ AC>7/ AC>7/ AC>7/ AC>7/ AC>7/ AC>7/ AC>7/ AC>7/ AC>7/ AC>7/ AC>7/ AC>7/ AC>7/ AC>7/ AC>7/ AC>7/ AC>7/ AC>7/ AC>7/ AC>7/ AC>7/ AC>7/ AC>7/ AC>7/ AC>7/ AC>7/ AC>7/ AC>7/ AC>7/ AC>7/ AC>7/ AC>7/ AC>7/ AC>7/ AC>7/ AC>7/ AC>7/ AC>7/ AC>7/ AC>7/ AC>7/ AC>7/ AC>7/ AC>7/ AC>7/ AC>7/ AC>7/ AC>7/ AC>7/ AC>7/ AC>7/ AC>7/ AC>7/ AC>7/ AC>7/ AC>7/ AC>7/ AC>7/ AC>7/ AC>7/ AC>7/ AC>7/ AC>7/ AC>7/ AC>7/ AC>7/ AC>7/ AC>7/ AC>7/ AC>7/ AC>7/ AC>7/ AC>7/ AC>7/ AC>7/ AC>7/ AC>7/ AC>7/ AC>7/ AC>7/ AC>7/ AC>7/ AC>7/ AC>7/ AC>7/ AC>7/ AC>7/ AC>7/ AC>7/ AC>7/ AC>7/ AC>7/ AC>7/ AC>7/ AC>7/ AC>7/ AC>7/ AC>7/ AC>7/ AC>7/ AC>7/ AC>7/ AC>7/ AC>7/ AC>7/ AC>7/ AC>7/ AC>7/ AC>7/ AC>7/ AC>7/ AC>7/ AC>7/ AC>7/ AC>7/ AC>7/ AC>7/ AC>7/ AC>7/ AC>7/ AC>7/ AC>7/ AC>7/ AC>7/ AC>7/ AC>7/ AC>7/ AC>7/ AC>7/ AC>7/ AC>7/ AC>7/ AC>7/ AC>7/ AC>7/ AC>7/ AC>7/ AC>7/ AC>7/ AC>7/ AC>7/ AC>7/ AC>7/ AC>7/ AC>7/ AC>7/ AC>7/ AC>7/ AC>7/ AC>7/ AC>7/ AC>7/ AC>7/ AC>7/ AC>7/ AC>7/ AC>7/ AC>7/ AC>7/ AC>7/ AC>7/ AC>7/ AC>7/ AC>7/ AC>7/ AC>7/ AC>7/ AC>7/ AC>7/ AC>7/ AC>7/ AC>7/ AC>7/ AC>7/ AC>7/ AC>7/ AC>7/ AC>7/ AC>7/ AC>7/ AC>7/ AC>7/ AC>7/ AC>7/ AC>7/ AC>7/ AC>7/ AC>7/ AC>7/ AC>7/ AC>7/ AC>7/ AC>7/ AC>7/ AC>7/ AC>7/ AC>7/ AC>7/ AC>7/ AC>7/ AC>7/ AC>7/ AC>7/ AC>7/ AC>7/ AC>7/ AC>7/ AC>7/ AC>7/ AC>7/ AC>7/ AC>7/ AC>7/ AC>7/ AC>7/ AC>7/ AC>7/ AC>7/ AC>7/ AC>7/ AC>7/ AC>7/ AC>7/ AC>7/ AC>7/ AC>7/ AC>7/ AC>7/ AC>7/ AC>7/ AC>7/ AC>7/ AC>7/ AC>7/ AC>7/ AC>7/ AC>7/ AC>7/ AC>7/ AC>7/ AC>7/ AC>7/ AC>7/ AC>7/ AC>7/ AC>7/ AC>7/ AC>7/ AC>7/ AC>7/ AC>7/ AC>7/ AC>7/ AC>7/ AC>7/ AC>7/ AC>7/ AC>7/ AC>7/ AC>7/ AC>7/ AC>7/ AC>7/ AC>7/ AC>7/ AC>7/ AC>7/ AC>7/ AC>7/ AC>7/ AC>7/ AC>7/ AC>7/ AC>7/ AC>7/ AC>7/ AC>7/ AC>7/ AC>7/ AC>7/ AC>7/ AC>7/ AC>7/ AC>7/ AC>7/ AC>7/ AC>7/ AC>7/ AC>7/ AC>7/ AC>7/ AC>7/ AC>7/ AC>7/ AC>7/ AC>7/ AC>7/ AC>7/ AC>7/ AC>7/ AC>7/ AC>7/ AC>7/ AC>7/ AC>7/ AC>7/ AC>7/ AC>7/ AC>7/ AC>7/ AC>7/ AC>7/ AC>7/ AC>7/ AC>7/ AC>7/ AC>7/ AC>7/ AC>7/ AC>7/ AC>7/ AC>7/ AC>7/ AC>7/ AC>7/ AC>7/ AC>7/ AC>7/ AC>7/ AC>7/ AC>7/ AC>7/ AC>7/ AC>7/ AC>7/ AC>7/ AC>7/ AC>7/ AC>7/ AC>7/ AC>7/ AC>7/ AC>7/ AC>7/ AC>7/ AC>7/ AC>7/ AC>7/ AC>7/ AC>7/ AC>7/ AC>7/ AC>7/ AC>7/ AC>7/ AC>7/ AC>7/ AC>7/ AC>7/ AC>7/ AC>7/ AC>7/ AC>7/ AC>7/ AC>7/ AC>7/ AC>7/ AC>7/ AC>7/ AC>7/ AC>7/ AC>7/ AC>7/ AC>7/ AC>7/ AC>7/ AC>7/ AC>7/ AC>7/ AC>7/ AC>7/ AC>7/ AC>7/ AC>7/ AC>7/ AC>7/ AC>7/ AC>7/ AC>7/ AC>7/ AC>7/ AC>7/ AC>7/ AC>7/ AC>7/ AC>7/ AC>7/ AC>7/ AC>7/ AC>7/ AC>7/ AC>7/ AC>7/ AC>7/ AC>7/ AC>7/ AC>7/ AC>7/ AC>7/ AC>7/ AC>7/ AC>7/ AC>7/ AC>7/ AC>7/ AC>7/ AC>7/ AC>7/ AC>7/ AC>7/ AC>7/ AC>7/ AC>7/ AC>7/ AC>7/ AC>7/ AC>7/ AC>7/ AC>7/ AC>7/ AC>7/ AC>7/ AC>7/ AC>7/ AC>7/ AC>7/ AC>7/ AC>7/ AC>7/ AC>7/ AC>7/ AC>7/ AC>7/ AC>7/ AC>7/ AC>7/ AC>7/ AC>7/ AC>7/ AC>7/ AC>7/ AC>7/ AC>7/ AC>7/ AC>7/ AC>7/ AC>7/ AC>7/ AC>7/ AC>7/ AC>7/ AC>7/ AC>7/ AC>7/ AC>7/ AC>7/ AC>7/ AC>7/ AC>7/ AC>7/ AC>7/ AC>7/ AC>7/ AC>7/ AC>7/ AC>7/ AC>7/ AC>7/ AC>7/ AC>7/ AC>7/ AC>7/ AC>7/ AC>7/ AC>7/ AC>7/ AC>7/ AC>7/ AC>7/ AC>7/ AC>7/ AC>7/ AC>7/ AC>7/ AC>7/ AC>7/ AC>7/ AC>7/ AC>7/ AC>7/ AC>7/ AC>7/ AC>7/ AC>7/ AC>7/ AC>7/ AC>7/ AC>7/ AC>7/ AC>7/ AC>7/ AC>7/ AC>7/ AC>7/ AC>7/ AC>7/ AC>7/ AC>7/ AC>7/ AC>7/ AC>7/ AC>7/ AC>7/ AC>7/ AC>7/ AC>7/ AC>7/ AC>7/ AC>7/ AC>7/ AC>7/ AC>7/ AC>7/ AC>7/ AC>7/ AC>7/ AC>7/ AC>7/ AC>7/ AC>7/ AC>7/ AC>7/ AC>7/ AC>7/ AC>7/ AC>7/ AC>7/ AC>7/ AC>7/ AC>7/ AC>7/ AC>7/ AC>7/ AC>7/ AC>7/ AC>7/ AC>7/ AC>7/ AC>7/ AC>7/ AC>7/ AC>7/ AC>7/ AC>7/ AC>7/ AC>7/ AC>7/ AC>7/ AC>7/ AC>7/ AC>7/ AC>7/ AC>7/ AC>7/ AC>7/ AC>7/ AC>7/ AC>7/ AC>7/ AC>7/ AC>7/ AC>7/ AC>7/ AC>7/ AC>7/ AC>7/ AC>7/ AC>7/ AC>7/ AC>7/ AC>7/ AC>7/ AC>7/ AC>7/ AC>7/ AC>7/ AC>7/ AC>7/ AC>7/ AC>7/ AC>7/ AC>7/ AC>7/ AC>7/ AC>7/ AC>7/ AC>7/ AC>7/ AC>7/ AC>7/ AC>7/ AC>7/ AC>7/ AC>7/ AC>7/ AC>7/ AC>7/ AC>7/ AC>7/ AC>7/ AC>7/ AC>7/ AC>7/ AC>7/ AC>7/ AC>7/ AC>7/ AC>7/ AC>7/ AC>7/ AC>7/ AC>7/ AC>7/ AC>7/ AC>7/ AC>7/ AC>7/ AC>7/ AC>7/ AC>7/ AC>7/ AC>7/ AC>7/ AC>7/ AC>7/ AC>7/ AC>7/ AC>7/ AC>7/ AC>7/ AC>7/ AC>7/ AC>7/ AC>7/ AC>7/ AC>7/ AC>7/ AC>7/ AC>7/ AC>7/ AC>7/ AC>7/ AC>7/ AC>7/ AC>7/ AC>7/ AC>7/ AC>7/ AC>7/ AC>7/ AC>7/ AC>7/ AC>7/ AC>7/ AC>7/ AC>7/ AC>7/ AC>7/ AC>7/ AC>7/ AC>7/ AC>7/ AC>7/ AC>7/ AC>7/ AC>7/ AC>7/ AC>7/ AC>7/ AC>7/ AC>7/ AC>7/ AC>7/ AC>7/ AC>7/ AC>7/ AC>7/ AC>7/ AC>7/ AC>7/ AC>7/ AC>7/ AC>7/ AC>7/ AC>7/ AC>7/ AC>7/ AC>7/ AC>7/ AC>7/ AC>7/ AC>7/ AC>7/ AC>7/ AC>7/ AC>7/ AC>7/ AC>7/ AC>7/ AC>7/ AC>7/ AC>7/ AC>7/ AC>7/ AC>7/ AC>7/ AC>7/ AC>7/ AC>7/ AC>7/ AC>7/ AC>7/ AC>7/ AC>7/ AC>7/ AC>7/ AC>7/ AC>7/ AC>7/ AC>7/ AC>7/ AC>7/ AC>7/ AC>7/ AC>7/ AC>7/ AC>7/ AC>7/ AC>7/ AC>7/ AC>7/ AC>7/ AC>7/ AC>7/ AC>7/ AC>7/ AC>7/ AC>7/ AC>7/ AC>7/ AC>7/ AC>7/ AC>7/ AC>7/ AC>7/ AC>7/ AC>7/ AC>7/ AC>7/ AC>7/ AC>7/ AC>7/ AC>7/ AC>7/ AC>7/ AC>7/ AC>7/ AC>7/ AC>7/ AC>7/ AC>7/ AC>7/ AC>7/ AC>7/ AC>7/ AC>7/ AC>7/ AC>7/ AC>7/ AC>7/ AC>7/ AC>7/ AC>7/ AC>7/ AC>7/ AC>7/ AC>7/ AC>7/ AC>7/ AC>7/ AC>7/ AC>7/ AC>7/ AC>7/ AC>7/ AC>7/ AC>7/ AC>7/ AC>7/ AC>7/ AC>7/ AC>7/ AC>7/ AC>7/ AC>7/ AC>7/ AC>7/ AC>7/ AC>7/ AC>7/ AC>7/ AC>7/ AC>7/ AC>7/ AC>7/ 7/ 7/ 7/ 7/ 7/ 7J/ 7J/ 7J/ 7J/ 7J/ 7J/ 7J/ 7J/ 7J/ 7J/ 7J/ 7J/ 7J/ 7J/ 7J/ 7J/ 7J/ 7J/ 7J/ 7J/ 7J/ 7J/ 7J/ 7J/ 7J/ 7J/ 7J/ 7J/ 7J/ 7J/ 7J/ 7J/ 7J/ 7J/ 7J/ 7J/ 7J/ 7J/ 7J/ 7J/ 7J/ 7J/ 7J/ 7J/ 7J/ 7J/ 7J/ 7J/ 7J/ 7J/ 7J/ 7J/ 7J/ 7J/ 7J/ 7J/ 7J/ 7J/ 7J/ 7J/ 7J/ 7J/ 7J/ 7J/ 7J/ 7J/ 7J/ 7J/ 7J/ 7J/ 7J/ 7J/ 7J/ 7J/ 7J/ 7J/ 7J/ 7J/ 7J/ 7J/ 7J/ 7J/ 7J/ 7J/ 7J/ 7J/ 7J/ 7J/ 7J/ 7J/ 7J/ 7J/ 7J/ 7J/ 7J/ 7J/ 7J/ 7J/ 7J/ 7J/ 7J/ 7J/ 7J/ 7J/ 7J/ 7J/ 7J/ 7J/ 7J/ 7J/ 7J/ 7J/ 7J/ 7J/ 7J/ 7J/ 7J/ 7J/ 7J/ 7J/ 7J/ 7J/ 7J/ 7J/ 7J/ 7J/ 7J/ 7J/ 7J/ 7J/ 7J/ 7J/ 7J/ 7J/ 7J/ 7J/ 7J/ 7J/ 7J/ 7J/ 7J/ 7J/ 7J/ 7J/ 7J/ 7J/ 7J/ 7J/ 7J/ 7J/ 7J/ 7J/ 7J/ 7J/ 7J/ 7J/ 7J/ 7J/ 7J/ 7J/ 7J/ 7J/ 7J/ 7J/ 7J/ 7J/ 7J/ 7J/ 7J/ 7J/ 7J/ 7J/ 7J/ 7J/ 7J/ 7J/ 7J/ 7J/ 7J/ 7J/ 7J/ 7J/ 7J/ 7J/ 7J/ 7J/ 7J/ 7J/ 7J/ 7J/ 7J/ 7J/ 7J/ 7J/ 7J/ 7J/ 7J/ 7J/ 7J/ 7J/ 7J/ 7J/ 7J/ 7J/ 7J/ 7J/ 7J/ 7J/ 7J/ 7J/ 7J/ 7J/ 7J/ 7J/ 7J/ 7J/ 7J/ 7J/ 7J/ 7J/ 7J/ 7J/ 7J/ 7J/ 7J/ 7J/ 7J/ 7J/ 7J/ 7J/ 7J/ 7J/ 7J/ 7J/ 7J/ 7J/ 7J/ 7J/ 7J/ 7J/ 7J/ 7J/ 7J/ 7J/ 7J/ 7J/ 7J/ 7J/ 7J/ 7J/ 7J/ 7J/ 7J/ 7J/ 7J/ 7J/ 7J/ 7J/ 7J/ 7J/ 7J/ 7J/ 7J/ 7J/ 7J/ 7J/ 7J/ 7J/ 7J/ 7J/ 7J/ 7J/ 7J/ 7J/ 7J/ 7J/ 7J/ 7J/ 7J/ 7J/ 7J/ 7J/ 7J/ 7J/ 7J/ 7J/ 7J/ 7J/ 7J/ 7J/ 7J/ 7J/ 7J/ 7J/ 7J/ 7J/ 7J/ 7J/ 7J/ 7J/ 7J/ 7J/ 7J/ 7J/ 7J/ 7J/ 7J/ 7J/ 7J/ 7J/ 7J/ 7J/ 7J/ 7J/ 7J/ 7J/ 7J/ 7J/ 7J/ 7J/ 7J/ 7J/ 7J/ 7J/ 7J/ 7J/ 7J/ 7J/ 7J/ 7J/ 7J/ 7J/ 7J/ 7J/ 7J/ 7J/ 7J/ 7J/ 7J/ 7J/ 7J/ 7J/ 7J/ 7J/ 7J/ 7J/ 7J/ 7J/ 7J/ 7J/ 7J/ 7J/ 7J/ 7J/ 7J/ 7J/ 7J/ 7J/ 7J/ 7J/ 7J/ 7J/ 7J/ 7J/ 7J/ 7J/ 7J/ 7J/ 7J/ 7J/ 7J/ 7J/ 7J/ 7J/ 7J/ 7J/ 7J/ 7J/ 7J/ 7J/ 7J/ 7J/ 7J/ 7J/ 7J/ 7J/ 7J/ 7J/ 7J/ 7J/ 7J/ 7J/ 7J/ 7J/ 7J/ 7J/ 7J/ 7J/ 7J/ 7J/ 7J/ 7J/ 7J/ 7J/ 7J/ 7J/ 7J/ 7J/ 7J/ 7J/ 7J/ M7J/ M7J/ M7J/ M7J/ M7J/ M7J/ M7J/ M7J/ M7J/ M7J/ M7J/ M7J/ M7J/ M7J/ M7J/ M7J/ M7J/ M7J/ M7J/ M7J/ M7J/ M7J/ M7J/ M7J/ M7J/ M7J/ M7J/ M7J/ M7J/ M7J/ M7J/ M7J/ M7J/ M7J/ M7J/ M7J/ M7J/ M7J/ M7J/ M7J/ M7J/ M7J/ M7J/ M7J/ M7J/ M7J/ M7J/ M7J/ M7J/ M7J/ M7J/ M7J/ M7J/ M7J/ M7J/ M7J/ M7J/ M7J/ M7J/ M7J/ M7J/ M7J/ M7J/ M7J/ M7J/ M7J/ M7J/ M7J/ M7J/ M7J/ M7J/ M7J/ M7J/ M7J/ M7J/ M7J/ M7J/ M7J/ M7J/ M7J/ M7J/ M7J/ M7J/ M7J/ M7J/ M7J/ M7J/ M7J/ M7J/ M7J/ M7J/ M7J/ M7J/ M7J/ M7J/ M7J/ M7J/ M7J/ M7J/ M7J/ M7J/ M7J/ M7J/ M7J/ M7J/ M7J/ M7J/ M7J/ M7J/ M7J/ M7J/ M7J/ M7J/ M7J/ M7J/ M7J/ M7J/ M7J/ M7J/ M7J/ M7J/ M7J/ M7J/ M7J/ M7J/ M7J/ M7J/ M7J/ M7J/ M7J/ M7J/ M7J/ M7J/ M7J/ M7J/ M7J/ M7J/ M7J/ M7J/ M7J/ M7J/ M7J/ M7J/ M7J/ M7J/ M7J/ M7J/ M7J/ M7J/ M7J/ M7J/ M7J/ M7J/ M7J/ M7J/ M7J/ M7J/ M7J/ M7J/ M7J/ M7J/ M7J/ M7J/ M7J/ M7J/ M7J/ M7J/ M7J/ M7J/ M7J/ M7J/ M7J/ M7J/ M7J/ M7J/ M7J/ M7J/ M7J/ M7J/ M7J/ M7J/ M7J/ M7J/ M7J/ M7J/ M7J/ M7J/ M7J/ M7J/ M7J/ M7J/ M7J/ M7J/ M7J/ M7J/ M7J/ M7J/ M7J/ M7J/ M7J/ M7J/ M7J/ M7J/ M7J/ M7J/ M7J/ M7J/ M7J/ M7J/ M7J/ M7J/ M7J/ M7J/ M7J/ M7J/ M7J/ M7J/ M7J/ M7J/ M7J/ M7J/ M7J/ M7J/ M7J/ M7J/ M7J/ M7J/ M7J/ M7J/ M7J/ M7J/ M7J/ M7J/ M7J/ M7J/ M7J/ M7J/ M7J/ M7J/ M7J/ M7J/ M7J/ M7J/ M7J/ M7J/ M7J/ M7J/ M7J/ M7J/ M7J/ M7J/ M7J/ M7J/ M7J/ M7J/ M7J/ M7J/ M7J/ M7J/ M7J/ M7J/ M7J/ M7J/ M7J/ M7J/ M7J/ M7J/ M7J/ M7J/ M7J/ M7J/ M7J/ M7J/ M7J/ M7J/ M7J/ M7J/ M7J/ M7J/ M7J/ M7J/ M7J/ M7J/ M7J/ M7J/ M7J/ M7J/ M7J/ M7J/ M7J/ M7J/ M7J/ M7J/ M7J/ M7J/ M7J/ M7J/ M7J/ M7J/ M7J/ M7J/ M7J/ M7J/ M7J/ M7J/ M7J/ M7J/ M7J/ M7J/ M7J/ M7J/ M7J/ M7J/ M7J/ M7J/ M7J/ M7J/ M7J/ M7J/ M7J/ M7J/ M7J/ M7J/ M7J/ M7J/ M7J/ M7J/ M7J/ M7J/ M7J/ M7J/ M7J/ M7J/ M7J/ M7J/ M7J/ M7J/ M7J/ M7J/ M7J/ M7J/ M7J/ M7J/ M7J/ M7J/ M7J/ M7J/ M7J/ M7J/ M7J/ M7J/ M7J/ M7J/ M7J/ M7J/ M7J/ M7J/ M7J/ M7J/ M7J/ M7J/ M7J/ M7J/ M7J/ M7J/ M7J/ M7J/ M7J/ M7J/ M7J/ M7J/ M7J/ M7J/ M7J/ M7J/ M7J/ M7J/ M7J/ M7J/ M7J/ M7J/ M7J/ M7J/ M7J/ M7J/ M7J/ M7J/ M7J/ M7J/ M7J/ M7J/ M7J/ M7J/ M7J/ M7J/ M7J/ M7J/ M7J/ M7J/ M7J/ M7J/ M7J/ M7J/ M7J/ M7J/ M7J/ 7J/ J/ J/ J/ J/ J/ P5J/ P5J/ P5J/ P5J/ P5J/ P5J/ P5J/ P5J/ P5J/ P5J/ P5J/ P5J/ P5J/ P5J/ P5J/ P5J/ P5J/ P5J/ P5J/ P5J/ P5J/ P5J/ P5J/ P5J/ P5J/ P5J/ P5J/ P5J/ P5J/ P5J/ P5J/ P5J/ P5J/ P5J/ P5J/ P5J/ P5J/ P5J/ P5J/ P5J/ P5J/ P5J/ P5J/ P5J/ P5J/ P5J/ P5J/ P5J/ P5J/ P5J/ P5J/ P5J/ P5J/ P5J/ P5J/ P5J/ P5J/ P5J/ P5J/ P5J/ P5J/ P5J/ P5J/ P5J/ P5J/ P5J/ P5J/ P5J/ P5J/ P5J/ P5J/ P5J/ P5J/ P5J/ P5J/ P5J/ P5J/ P5J/ P5J/ P5J/ P5J/ P5J/ P5J/ P5J/ P5J/ P5J/ P5J/ P5J/ P5J/ P5J/ P5J/ P5J/ P5J/ P5J/ P5J/ P5J/ P5J/ P5J/ P5J/ P5J/ P5J/ P5J/ P5J/ P5J/ P5J/ P5J/ P5J/ P5J/ P5J/ P5J/ P5J/ P5J/ P5J/ P5J/ P5J/ P5J/ P5J/ P5J/ P5J/ P5J/ P5J/ P5J/ P5J/ P5J/ P5J/ P5J/ P5J/ P5J/ P5J/ P5J/ P5J/ P5J/ P5J/ P5J/ P5J/ P5J/ P5J/ P5J/ P5J/ P5J/ P5J/ P5J/ P5J/ P5J/ P5J/ P5J/ P5J/ P5J/ P5J/ P5J/ P5J/ P5J/ P5J/ P5J/ P5J/ P5J/ P5J/ P5J/ P5J/ P5J/ P5J/ P5J/ P5J/ P5J/ P5J/ P5J/ P5J/ P5J/ P5J/ P5J/ P5J/ P5J/ P5J/ P5J/ P5J/ P5J/ P5J/ P5J/ P5J/ P5J/ P5J/ P5J/ P5J/ P5J/ P5J/ P5J/ P5J/ P5J/ P5J/ P5J/ P5J/ P5J/ P5J/ P5J/ P5J/ P5J/ P5J/ P5J/ P5J/ P5J/ P5J/ P5J/ P5J/ P5J/ P5J/ P5J/ P5J/ P5J/ P5J/ P5J/ P5J/ P5J/ P5J/ P5J/ P5J/ P5J/ P5J/ P5J/ P5J/ P5J/ P5J/ P5J/ P5J/ P5J/ P5J/ P5J/ P5J/ P5J/ P5J/ P5J/ P5J/ P5J/ P5J/ P5J/ P5J/ P5J/ P5J/ P5J/ P5J/ P5J/ P5J/ P5J/ P5J/ P5J/ P5J/ P5J/ P5J/ P5J/ P5J/ P5J/ P5J/ P5J/ P5J/ P5J/ P5J/ P5J/ P5J/ P5J/ P5J/ P5J/ P5J/ P5J/ P5J/ P5J/ P5J/ P5J/ P5J/ P5J/ P5J/ P5J/ P5J/ P5J/ P5J/ P5J/ P5J/ P5J/ P5J/ P5J/ P5J/ P5J/ P5J/ P5J/ P5J/ P5J/ P5J/ P5J/ P5J/ P5J/ P5J/ P5J/ P5J/ P5J/ P5J/ P5J/ P5J/ P5J/ P5J/ P5J/ P5J/ P5J/ P5J/ P5J/ P5J/ P5J/ P5J/ P5J/ P5J/ P5J/ P5J/ P5J/ P5J/ P5J/ P5J/ P5J/ P5J/ P5J/ P5J/ P5J/ P5J/ P5J/ P5J/ P5J/ P5J/ P5J/ P5J/ P5J/ P5J/ P5J/ P5J/ P5J/ P5J/ P5J/ P5J/ P5J/ P5J/ P5J/ P5J/ P5J/ P5J/ P5J/ P5J/ P5J/ P5J/ P5J/ P5J/ P5J/ P5J/ P5J/ P5J/ P5J/ P5J/ P5J/ P5J/ P5J/ P5J/ P5J/ P5J/ P5J/ P5J/ P5J/ P5J/ P5J/ P5J/ P5J/ P5J/ P5J/ P5J/ P5J/ P5J/ P5J/ P5J/ P5J/ P5J/ P5J/ P5J/ P5J/ P5J/ P5J/ P5J/ P5J/ P5J/ P5J/ P5J/ P5J/ P5J/ P5J/ P5J/ P5J/ P5J/ P5J/ P5J/ P5J/ P5J/ P5J/ P5J/ P5J/ P5J/ P5J/ P5J/ P5J/ P5J/ P5J/ P5J/ P5J/ P5J/ P5J/ P5J/ P5J/ P5J/ P5J/ P5J/ P5J/ P5J/ P5J/ P5J/ P5J/ P5J/ P5J/ P5J/ P5J/ P5J/ P5J/ P5J/ P5J/ P5J/ P5J/ P5J/ P5J/ P5J/ P5J/ P5J/ P5J/ P5J/ P5J/ P5J/ P5J/ P5J/ P5J/ P5J/ P5J/ P5J/ P5J/ P5J/ P5J/ P5J/ P5J/ P5J/ P5J/ P5J/ P5J/ P5J/ P5J/ P5J/ P5J/ P5J/ P5J/ P5J/ P5J/ P5J/ P5J/ P5J/ P5J/ P5J/ P5J/ P5J/ P5J/ P5J/ P5J/ P5J/ P5J/ P5J/ P5J/ P5J/ P5J/ P5J/ P5J/ P5J/ P5J/ P5J/ P5J/ P5J/ P5J/ P5J/ P5J/ P5J/ P5J/ P5J/ P5J/ P5J/ P5J/ P5J/ P5J/ P5J/ P5J/ P5J/ P5J/ P5J/ P5J/ P5J/ P5J/ P5J/ P5J/ P5J/ P5J/ P5J/ P5J/ P5J/ P5J/ P5J/ P5J/ P5J/ P5J/ P5J/ P5J/ P5J/ P5J/ P5J/ P5J/ P5J/ P5J/ P5J/ P5J/ P5J/ P5J/ P5J/ P5J/ P5J/ P5J/ P5J/ P5J/ P5J/ P5J/ P5J/ P5J/ P5J/ P5J/ P5J/ P5J/ P5J/ P5J/ P5J/ P5J/ P5J/ P5J/ P5J/ P5J/ P5J/ P5J/ P5J/ P5J/ P5J/ P5J/ P5J/ P5J/ P5J/ P5J/ P5J/ P5J/ P5J/ P5J/ P5J/ P5J/ P5J/ P5J/ P5J/ P5J/ P5J/ P5J/ P5J/ P5J/ P5J/ P5J/ P5J/ P5J/ P5J/ P5J/ P5J/ P5J/ P5J/ P5J/ P5J/ P5J/ P5J/ P5J/ P5J/ P5J/ P5J/ P5J/ P5J/ P5J/ P5J/ P5J/ P5J/ P5J/ P5J/ P5J/ P5J/ P5J/ P5J/ P5J/ P5J/ P5J/ P5J/ P5J/ P5J/ P5J/ P5J/ P5J/ P5J/ P5J/ P5J/ P5J/ P5J/ P5J/ P5J/ P5J/ P5J/ P5J/ P5J/ P5J/ P5J/ P5J/ P5J/ P5J/ P5J/ P5J/ P5J/ P5J/ P5J/ P5J/ P5J/ P5J/ P5J/ P5J/ P5J/ P5J/ P5J/ P5J/ P5J/ P5J/ P5J/ P5J/ P5J/ P5J/ P5J/ P5J/ P5J/ P5J/ P5J/ P5J/ P5J/ P5J/ P5J/ P5J/ P5J/ P5J/ P5J/ P5J/ P5J/ P5J/ P5J/ P5J/ P5J/ P5J/ P5J/ P5J/ P5J/ P5J/ P5J/ P5J/ P5J/ P5J/ P5J/ P5J/ P5J/ P5J/ P5J/ P5J/ P5J/ P5J/ P5J/ P5J/ P5J/ P5J/ P5J/ P5J/ P5J/ P5J/ P5J/ P5J/ P5J/ P5J/ P5J/ P5J/ P5J/ P5J/ P5J/ P5J/ P5J/ P5J/ P5J/ P5J/ P5J/ P5J/ P5J/ P5J/ P5J/ P5J/ P5J/ P5J/ P5J/ P5J/ P5J/ P5J/ P5J/ P5J/ P5J/ P5J/ P5J/ P5J/ P5J/ P5J/ P5J/ P5J/ P5J/ P5J/ P5J/ P5J/ P5J/ P5J/ P5J/ P5J/ P5J/ P5J/ P5J/ P5J/ P5J/ P5J/ P5J/ P5J/ P5J/ P5J/ P5J/ P5J/ P5J/ P5J/ P5J/ P5J/ P5J/ P5J/ P5J/ P5J/ P5J/ P5J/ P5J/ P5J/ P5J/ P5J/ P5J/ P5J/ P5J/ P5J/ P5J/ P5J/ P5J/ P5J/ P5J/ P5J/ P5J/ P5J/ P5J/ P5J/ P5J/ P5J/ P5J/ P5J/ P5J/ P5J/ P5J/ P5J/ P5J/ P5J/ P5J/ P5J/ P5J/ P5J/ P5J/ P5J/ P5J/ P5J/ P5J/ P5J/ P5J/ P5J/ P5J/ P5J/ P5J/ P5J/ P5J/ P5J/ P5J/ P5J/ P5J/ P5J/ P5J/ P5J/ P5J/ P5J/ P5J/ P5J/ P5J/ P5J/ P5J/ P5J/ P5J/ P5J/ P5J/ P5J/ J/ J/ J/ J/ J/ P3J/ P3J/ P3J/ P3J/ P3J/ P3J/ P3J/ P3J/ P3J/ P3J/ P3J/ P3J/ P3J/ P3J/ P3J/ P3J/ P3J/ P3J/ P3J/ P3J/ P3J/ P3J/ P3J/ P3J/ P3J/ P3J/ P3J/ P3J/ P3J/ P3J/ P3J/ P3J/ P3J/ P3J/ P3J/ P3J/ P3J/ P3J/ P3J/ P3J/ P3J/ P3J/ P3J/ P3J/ P3J/ P3J/ P3J/ P3J/ P3J/ P3J/ P3J/ P3J/ P3J/ P3J/ P3J/ P3J/ P3J/ P3J/ P3J/ P3J/ P3J/ P3J/ P3J/ P3J/ P3J/ P3J/ P3J/ P3J/ P3J/ P3J/ P3J/ P3J/ P3J/ P3J/ P3J/ P3J/ P3J/ P3J/ P3J/ P3J/ P3J/ P3J/ P3J/ P3J/ P3J/ P3J/ P3J/ P3J/ P3J/ P3J/ P3J/ P3J/ P3J/ P3J/ P3J/ P3J/ P3J/ P3J/ P3J/ P3J/ P3J/ P3J/ P3J/ P3J/ P3J/ P3J/ P3J/ P3J/ P3J/ P3J/ P3J/ P3J/ P3J/ P3J/ P3J/ P3J/ P3J/ P3J/ P3J/ P3J/ P3J/ P3J/ P3J/ P3J/ P3J/ P3J/ P3J/ P3J/ P3J/ P3J/ P3J/ P3J/ P3J/ P3J/ P3J/ P3J/ P3J/ P3J/ P3J/ P3J/ P3J/ P3J/ P3J/ P3J/ P3J/ P3J/ P3J/ P3J/ P3J/ P3J/ P3J/ P3J/ P3J/ P3J/ P3J/ P3J/ P3J/ P3J/ P3J/ P3J/ P3J/ P3J/ P3J/ P3J/ P3J/ P3J/ P3J/ P3J/ P3J/ P3J/ P3J/ P3J/ P3J/ P3J/ P3J/ P3J/ P3J/ P3J/ P3J/ P3J/ P3J/ P3J/ P3J/ P3J/ P3J/ P3J/ P3J/ P3J/ P3J/ P3J/ P3J/ P3J/ P3J/ P3J/ P3J/ P3J/ P3J/ P3J/ P3J/ P3J/ 3J/ 3J/ 3J/ 3J/ 3J/ 3J/ O3J/ O3J/ O3J/ O3J/ O3J/ O3J/ O3J/ O3J/ O3J/ O3J/ O3J/ O3J/ O3J/ O3J/ O3J/ O3J/ O3J/ O3J/ O3J/ O3J/ O3J/ O3J/ O3J/ O3J/ O3J/ O3J/ O3J/ O3J/ O3J/ O3J/ O3J/ O3J/ O3J/ O3J/ O3J/ O3J/ O3J/ O3J/ O3J/ O3J/ O3J/ O3J/ O3J/ O3J/ O3J/ O3J/ O3J/ O3J/ O3J/ O3J/ O3J/ O3J/ O3J/ O3J/ O3J/ O3J/ O3J/ O3J/ O3J/ O3J/ O3J/ O3J/ O3J/ O3J/ O3J/ O3J/ O3J/ O3J/ O3J/ O3J/ O3J/ O3J/ O3J/ O3J/ O3J/ O3J/ O3J/ O3J/ O3J/ O3J/ O3J/ O3J/ O3J/ O3J/ O3J/ O3J/ O3J/ O3J/ O3J/ O3J/ O3J/ O3J/ O3J/ O3J/ O3J/ O3J/ O3J/ O3J/ O3J/ O3J/ O3J/ O3J/ O3J/ O3J/ O3J/ O3J/ O3J/ O3J/ O3J/ O3J/ O3J/ O3J/ O3J/ O3J/ O3J/ O3J/ O3J/ O3J/ O3J/ O3J/ O3J/ O3J/ O3J/ O3J/ O3J/ O3J/ O3J/ O3J/ O3J/ O3J/ O3J/ O3J/ O3J/ O3J/ O3J/ O3J/ O3J/ O3J/ O3J/ O3J/ O3J/ O3J/ O3J/ O3J/ O3J/ O3J/ O3J/ O3J/ O3J/ O3J/ O3J/ O3J/ O3J/ O3J/ O3J/ O3J/ O3J/ O3J/ O3J/ O3J/ O3J/ O3J/ O3J/ O3J/ O3J/ O3J/ O3J/ O3J/ O3J/ O3J/ O3J/ O3J/ O3J/ O3J/ O3J/ O3J/ O3J/ O3J/ O3J/ O3J/ O3J/ O3J/ O3J/ O3J/ O3J/ O3J/ O3J/ O3J/ O3J/ O3J/ O3J/ O3J/ O3J/ O3J/ O3J/ O3J/ O3J/ O3J/ O3J/ O3J/ J/ J/ J/ J/ J/ M2J/ M2J/ M2J/ M2J/ M2J/ M2J/ M2J/ M2J/ M2J/ M2J/ M2J/ M2J/ M2J/ M2J/ M2J/ M2J/ M2J/ M2J/ M2J/ M2J/ M2J/ M2J/ M2J/ M2J/ M2J/ M2J/ M2J/ M2J/ M2J/ M2J/ M2J/ M2J/ M2J/ M2J/ M2J/ M2J/ M2J/ M2J/ M2J/ M2J/ M2J/ M2J/ M2J/ M2J/ M2J/ M2J/ M2J/ M2J/ M2J/ M2J/ M2J/ M2J/ M2J/ M2J/ M2J/ M2J/ M2J/ M2J/ M2J/ M2J/ M2J/ M2J/ M2J/ M2J/ M2J/ M2J/ M2J/ M2J/ M2J/ M2J/ M2J/ M2J/ M2J/ M2J/ M2J/ M2J/ M2J/ M2J/ M2J/ M2J/ M2J/ M2J/ M2J/ M2J/ M2J/ M2J/ M2J/ M2J/ M2J/ M2J/ M2J/ M2J/ M2J/ M2J/ M2J/ M2J/ M2J/ M2J/ M2J/ M2J/ M2J/ M2J/ M2J/ M2J/ M2J/ M2J/ M2J/ M2J/ M2J/ M2J/ M2J/ M2J/ M2J/ M2J/ M2J/ M2J/ M2J/ M2J/ M2J/ M2J/ M2J/ M2J/ M2J/ M2J/ M2J/ M2J/ M2J/ M2J/ M2J/ M2J/ M2J/ M2J/ M2J/ M2J/ M2J/ M2J/ M2J/ M2J/ M2J/ M2J/ M2J/ M2J/ M2J/ M2J/ M2J/ M2J/ M2J/ M2J/ M2J/ M2J/ M2J/ M2J/ M2J/ M2J/ M2J/ M2J/ M2J/ M2J/ M2J/ M2J/ M2J/ M2J/ M2J/ M2J/ M2J/ M2J/ M2J/ M2J/ M2J/ M2J/ M2J/ M2J/ M2J/ M2J/ M2J/ M2J/ M2J/ M2J/ M2J/ M2J/ M2J/ M2J/ M2J/ M2J/ M2J/ M2J/ M2J/ M2J/ M2J/ M2J/ M2J/ M2J/ M2J/ M2J/ M2J/ M2J/ M2J/ M2J/ M2J/ M2J/ 2J/ 2J/ 2J/ 2J/ 2J/ 2J/ P2J/ P2J/ P2J/ P2J/ P2J/ P2J/ P2J/ P2J/ P2J/ P2J/ P2J/ P2J/ P2J/ P2J/ P2J/ P2J/ P2J/ P2J/ P2J/ P2J/ P2J/ P2J/ P2J/ P2J/ P2J/ P2J/ P2J/ P2J/ P2J/ P2J/ P2J/ P2J/ P2J/ P2J/ P2J/ P2J/ P2J/ P2J/ P2J/ P2J/ P2J/ P2J/ P2J/ P2J/ P2J/ P2J/ P2J/ P2J/ P2J/ P2J/ P2J/ P2J/ P2J/ P2J/ P2J/ P2J/ P2J/ P2J/ P2J/ P2J/ P2J/ P2J/ P2J/ P2J/ P2J/ P2J/ P2J/ P2J/ P2J/ P2J/ P2J/ P2J/ P2J/ P2J/ P2J/ P2J/ P2J/ P2J/ P2J/ P2J/ P2J/ P2J/ P2J/ P2J/ P2J/ P2J/ P2J/ P2J/ P2J/ P2J/ P2J/ P2J/ P2J/ P2J/ P2J/ P2J/ P2J/ P2J/ 2J/ 2J/ 2J/ 2J/ 2J/ 2J/ O2J/ O2J/ O2J/ O2J/ O2J/ O2J/ O2J/ O2J/ O2J/ O2J/ O2J/ O2J/ O2J/ O2J/ O2J/ O2J/ O2J/ O2J/ O2J/ O2J/ O2J/ O2J/ O2J/ O2J/ O2J/ O2J/ O2J/ O2J/ O2J/ O2J/ O2J/ O2J/ O2J/ O2J/ O2J/ O2J/ O2J/ O2J/ O2J/ O2J/ O2J/ O2J/ O2J/ O2J/ O2J/ O2J/ O2J/ O2J/ O2J/ O2J/ O2J/ O2J/ O2J/ O2J/ O2J/ O2J/ O2J/ O2J/ O2J/ O2J/ O2J/ O2J/ O2J/ O2J/ O2J/ O2J/ O2J/ O2J/ O2J/ O2J/ O2J/ O2J/ O2J/ O2J/ O2J/ O2J/ O2J/ O2J/ O2J/ O2J/ O2J/ O2J/ O2J/ O2J/ O2J/ O2J/ O2J/ O2J/ O2J/ O2J/ O2J/ O2J/ O2J/ O2J/ O2J/ O2J/ O2J/ O2J/ / / / / / KC0 KC0 KC0 KC0 KC0 KC0 KC0 KC0 KC0 KC0 KC0 KC0 KC0 KC0 KC0 KC0 KC0 KC0 KC0 KC0 KC0 KC0 KC0 KC0 KC0 KC0 KC0 KC0 KC0 KC0 KC0 KC0 KC0 KC0 KC0 KC0 KC0 KC0 KC0 KC0 KC0 KC0 KC0 KC0 KC0 KC0 KC0 KC0 KC0 KC0 KC0 KC0 KC0 KC0 KC0 KC0 KC0 KC0 KC0 KC0 KC0 KC0 KC0 KC0 KC0 KC0 KC0 KC0 KC0 KC0 KC0 KC0 KC0 KC0 KC0 KC0 KC0 KC0 KC0 KC0 KC0 KC0 KC0 KC0 KC0 KC0 KC0 KC0 KC0 KC0 KC0 KC0 KC0 KC0 KC0 KC0 KC0 KC0 KC0 KC0 KC0 KC0 KC0 KC0 KC0 KC0 KC0 KC0 KC0 KC0 KC0 KC0 KC0 KC0 KC0 KC0 KC0 KC0 KC0 KC0 KC0 KC0 KC0 KC0 KC0 KC0 KC0 KC0 KC0 KC0 KC0 KC0 KC0 KC0 KC0 KC0 KC0 KC0 KC0 KC0 KC0 KC0 KC0 KC0 KC0 KC0 KC0 KC0 KC0 KC0 KC0 KC0 KC0 KC0 KC0 KC0 KC0 KC0 KC0 KC0 KC0 KC0 KC0 KC0 KC0 KC0 KC0 KC0 KC0 KC0 KC0 KC0 KC0 KC0 KC0 KC0 KC0 KC0 KC0 KC0 KC0 KC0 KC0 KC0 KC0 KC0 KC0 KC0 KC0 KC0 KC0 KC0 KC0 KC0 KC0 KC0 KC0 KC0 KC0 KC0 KC0 KC0 KC0 KC0 KC0 KC0 KC0 KC0 KC0 KC0 KC0 KC0 KC0 KC0 KC0 KC0 KC0 KC0 KC0 KC0 KC0 KC0 KC0 KC0 KC0 KC0 KC0 KC0 KC0 KC0 KC0 KC0 KC0 KC0 KC0 KC0 KC0 KC0 KC0 KC0 KC0 KC0 KC0 KC0 KC0 KC0 KC0 KC0 KC0 KC0 KC0 KC0 KC0 KC0 KC0 KC0 KC0 KC0 KC0 KC0 KC0 KC0 KC0 KC0 KC0 KC0 KC0 KC0 KC0 KC0 KC0 KC0 KC0 KC0 KC0 KC0 KC0 KC0 KC0 KC0 KC0 KC0 KC0 KC0 KC0 KC0 KC0 KC0 KC0 KC0 KC0 KC0 KC0 KC0 KC0 KC0 KC0 KC0 KC0 KC0 KC0 KC0 KC0 KC0 KC0 KC0 KC0 KC0 KC0 KC0 KC0 KC0 KC0 KC0 KC0 KC0 KC0 KC0 KC0 KC0 KC0 KC0 KC0 KC0 KC0 KC0 KC0 KC0 KC0 KC0 KC0 KC0 KC0 KC0 KC0 KC0 KC0 KC0 KC0 KC0 KC0 KC0 KC0 KC0 KC0 KC0 KC0 KC0 KC0 KC0 KC0 KC0 KC0 KC0 KC0 KC0 KC0 KC0 KC0 KC0 KC0 KC0 KC0 KC0 KC0 KC0 KC0 KC0 KC0 KC0 KC0 KC0 KC0 KC0 KC0 KC0 KC0 KC0 KC0 KC0 KC0 KC0 KC0 KC0 KC0 KC0 KC0 KC0 KC0 KC0 KC0 KC0 KC0 KC0 KC0 KC0 KC0 KC0 KC0 KC0 KC0 KC0 KC0 KC0 KC0 KC0 KC0 KC0 KC0 KC0 KC0 KC0 KC0 KC0 KC0 KC0 KC0 KC0 KC0 KC0 KC0 KC0 KC0 KC0 KC0 KC0 KC0 KC0 KC0 KC0 KC0 KC0 KC0 KC0 KC0 KC0 KC0 KC0 KC0 KC0 KC0 KC0 KC0 KC0 KC0 KC0 KC0 KC0 KC0 KC0 KC0 KC0 KC0 KC0 KC0 KC0 KC0 KC0 KC0 KC0 KC0 KC0 KC0 KC0 KC0 KC0 KC0 KC0 KC0 KC0 KC0 KC0 KC0 KC0 KC0 KC0 KC0 KC0 KC0 KC0 KC0 KC0 KC0 KC0 KC0 KC0 KC0 KC0 KC0 KC0 KC0 KC0 KC0 KC0 KC0 KC0 KC0 KC0 KC0 KC0 KC0 KC0 KC0 KC0 KC0 KC0 KC0 KC0 KC0 KC0 KC0 KC0 KC0 KC0 KC0 KC0 KC0 KC0 KC0 KC0 KC0 KC0 KC0 KC0 KC0 KC0 KC0 KC0 KC0 KC0 KC0 KC0 KC0 KC0 KC0 KC0 KC0 KC0 KC0 KC0 KC0 KC0 KC0 KC0 KC0 KC0 KC0 KC0 KC0 KC0 KC0 KC0 KC0 KC0 KC0 KC0 KC0 KC0 KC0 KC0 KC0 KC0 KC0 KC0 KC0 KC0 KC0 KC0 KC0 KC0 KC0 KC0 KC0 KC0 KC0 KC0 KC0 KC0 KC0 KC0 KC0 KC0 KC0 KC0 KC0 KC0 KC0 KC0 KC0 KC0 KC0 KC0 KC0 KC0 KC0 KC0 KC0 KC0 KC0 KC0 KC0 KC0 KC0 KC0 KC0 KC0 KC0 KC0 KC0 KC0 KC0 KC0 KC0 KC0 KC0 KC0 KC0 KC0 KC0 KC0 KC0 KC0 KC0 KC0 KC0 KC0 KC0 KC0 KC0 KC0 KC0 KC0 KC0 KC0 KC0 KC0 KC0 KC0 KC0 KC0 KC0 KC0 KC0 KC0 KC0 KC0 KC0 KC0 KC0 KC0 KC0 KC0 KC0 KC0 KC0 KC0 KC0 KC0 KC0 KC0 KC0 KC0 KC0 KC0 KC0 KC0 KC0 KC0 KC0 KC0 KC0 KC0 KC0 KC0 KC0 KC0 KC0 KC0 KC0 KC0 KC0 KC0 KC0 KC0 KC0 KC0 KC0 KC0 KC0 KC0 KC0 KC0 KC0 KC0 KC0 KC0 KC0 KC0 KC0 KC0 KC0 KC0 KC0 KC0 KC0 KC0 KC0 KC0 KC0 KC0 KC0 KC0 KC0 KC0 KC0 KC0 KC0 KC0 KC0 KC0 KC0 KC0 KC0 KC0 KC0 KC0 KC0 KC0 KC0 KC0 KC0 KC0 KC0 KC0 KC0 KC0 KC0 KC0 KC0 KC0 KC0 KC0 KC0 KC0 KC0 KC0 KC0 KC0 KC0 KC0 KC0 KC0 KC0 KC0 KC0 KC0 KC0 KC0 KC0 KC0 KC0 KC0 KC0 KC0 KC0 KC0 KC0 KC0 KC0 KC0 KC0 KC0 KC0 KC0 KC0 KC0 KC0 KC0 KC0 KC0 KC0 KC0 KC0 KC0 KC0 KC0 KC0 KC0 KC0 KC0 KC0 KC0 KC0 KC0 KC0 KC0 KC0 KC0 KC0 KC0 KC0 KC0 KC0 KC0 KC0 KC0 KC0 KC0 KC0 KC0 KC0 KC0 KC0 KC0 KC0 KC0 KC0 KC0 KC0 KC0 KC0 KC0 KC70 KC70 KC70 KC70 KC70 KC70 KC70 KC70 KC70 KC70 KC70 KC70 KC70 KC70 KC70 KC70 KC70 KC70 KC70 KC70 KC70 KC70 KC70 KC70 KC70 KC70 KC70 KC70 KC70 KC70 KC70 KC70 KC70 KC70 KC70 KC70 KC70 KC70 KC70 KC70 KC70 KC70 KC70 KC70 KC70 KC70 KC70 KC70 KC70 KC70 KC70 KC70 KC70 KC70 KC70 KC70 KC70 KC70 KC70 KC70 KC70 KC70 KC70 KC70 KC70 KC70 KC70 KC70 KC70 KC70 KC70 KC70 KC70 KC70 KC70 KC70 KC70 KC70 KC70 KC70 KC70 KC70 KC70 KC70 KC70 KC70 KC70 KC70 KC70 KC70 KC70 KC70 KC70 KC70 KC70 KC70 KC70 KC70 KC70 KC70 KC70 KC70 KC70 KC70 KC70 KC70 KC70 KC70 KC70 KC70 KC70 KC70 KC70 KC70 KC70 KC70 KC70 KC70 KC70 KC70 KC70 KC70 KC70 KC70 KC70 KC70 KC70 KC70 KC70 KC70 KC70 KC70 KC70 KC70 KC70 KC70 KC70 KC70 KC70 KC70 KC70 KC70 KC70 KC70 KC70 KC70 KC70 KC70 KC70 KC70 KC70 KC70 KC70 KC70 KC70 KC70 KC70 KC70 KC70 KC70 KC70 KC70 KC70 KC70 KC70 KC70 KC70 KC70 KC70 KC70 KC70 KC70 KC70 KC70 KC70 KC70 KC70 KC70 KC70 KC70 KC70 KC70 KC70 KC70 KC70 KC70 KC70 KC70 KC70 KC70 KC70 KC70 KC70 KC70 KC70 KC70 KC70 KC70 KC70 KC70 KC70 KC70 KC70 KC70 KC70 KC70 KC70 KC70 KC70 KC70 KC70 KC70 KC70 KC70 KC70 KC70 KC70 KC70 KC70 KC70 KC70 KC70 KC70 KC70 KC70 KC70 KC70 KC70 KC70 KC70 KC70 KC70 KC70 KC70 KC70 KC70 KC70 KC70 KC70 KC70 KC70 KC70 KC70 KC70 KC70 KC70 KC70 KC70 KC70 KC70 KC70 KC70 KC70 KC70 KC70 KC70 KC70 KC70 KC70 KC70 KC70 KC70 KC70 KC70 KC70 KC70 KC70 KC70 KC70 KC70 KC70 KC70 KC70 KC70 KC70 KC70 KC70 KC70 KC70 KC70 KC70 KC70 KC70 KC70 KC70 KC70 KC70 KC70 KC70 KC70 KC70 KC70 KC70 KC70 KC70 KC70 KC70 KC70 KC70 KC70 KC70 KC70 KC70 KC70 KC70 KC70 KC70 KC70 KC70 KC70 KC70 KC70 KC70 KC70 KC70 KC70 KC70 KC70 KC70 KC70 KC70 KC70 KC70 KC70 KC70 KC70 KC70 KC70 KC70 KC70 KC70 KC70 KC70 KC70 KC70 KC70 KC70 KC70 KC70 KC70 KC70 KC70 KC70 KC70 KC70 KC70 KC70 KC70 KC70 KC70 KC70 KC70 KC70 KC70 KC70 KC70 KC70 KC70 KC70 KC70 KC70 KC70 KC70 KC70 KC70 KC70 KC70 KC70 KC70 KC70 KC70 KC70 KC70 KC70 KC70 KC70 KC70 KC70 KC70 KC70 KC70 KC70 KC70 KC70 KC70 KC70 KC70 KC70 KC70 KC70 KC70 KC70 KC70 KC70 KC70 KC70 KC70 KC70 KC70 KC70 KC70 KC70 KC70 KC70 KC70 70 70 70 70 70 70 AJ70 AJ70 AJ70 AJ70 AJ70 AJ70 AJ70 AJ70 AJ70 AJ70 AJ70 AJ70 AJ70 AJ70 AJ70 AJ70 AJ70 AJ70 AJ70 AJ70 AJ70 AJ70 AJ70 AJ70 AJ70 AJ70 AJ70 AJ70 AJ70 AJ70 AJ70 AJ70 AJ70 AJ70 AJ70 AJ70 AJ70 AJ70 AJ70 AJ70 AJ70 AJ70 AJ70 AJ70 AJ70 AJ70 AJ70 AJ70 AJ70 AJ70 AJ70 AJ70 AJ70 AJ70 AJ70 AJ70 AJ70 AJ70 AJ70 AJ70 AJ70 AJ70 AJ70 AJ70 AJ70 AJ70 AJ70 AJ70 AJ70 AJ70 AJ70 AJ70 AJ70 AJ70 AJ70 AJ70 AJ70 AJ70 AJ70 AJ70 AJ70 AJ70 AJ70 AJ70 AJ70 AJ70 AJ70 AJ70 AJ70 AJ70 AJ70 AJ70 AJ70 AJ70 AJ70 AJ70 AJ70 AJ70 AJ70 AJ70 AJ70 AJ70 AJ70 AJ70 AJ70 AJ70 AJ70 AJ70 AJ70 AJ70 AJ70 AJ70 AJ70 AJ70 AJ70 AJ70 AJ70 AJ70 AJ70 AJ70 AJ70 AJ70 AJ70 AJ70 AJ70 AJ70 AJ70 AJ70 AJ70 AJ70 AJ70 AJ70 AJ70 AJ70 AJ70 AJ70 AJ70 AJ70 AJ70 AJ70 AJ70 AJ70 AJ70 AJ70 AJ70 AJ70 AJ70 AJ70 AJ70 AJ70 AJ70 AJ70 AJ70 AJ70 AJ70 AJ70 AJ70 AJ70 AJ70 AJ70 AJ70 AJ70 AJ70 AJ70 AJ70 AJ70 AJ70 AJ70 AJ70 AJ70 AJ70 AJ70 AJ70 AJ70 AJ70 AJ70 AJ70 AJ70 AJ70 AJ70 AJ70 AJ70 AJ70 AJ70 AJ70 AJ70 AJ70 AJ70 AJ70 AJ70 AJ70 AJ70 AJ70 AJ70 AJ70 AJ70 AJ70 AJ70 AJ70 AJ70 AJ70 AJ70 AJ70 AJ70 AJ70 AJ70 AJ70 AJ70 AJ70 AJ70 AJ70 AJ70 AJ70 AJ70 AJ70 AJ70 AJ70 AJ70 AJ70 AJ70 AJ70 AJ70 AJ70 AJ70 AJ70 AJ70 AJ70 AJ70 AJ70 AJ70 AJ70 AJ70 AJ70 AJ70 AJ70 AJ70 AJ70 AJ70 AJ70 AJ70 AJ70 AJ70 AJ70 AJ70 AJ70 AJ70 AJ70 AJ70 AJ70 AJ70 AJ70 AJ70 AJ70 AJ70 AJ70 AJ70 AJ70 AJ70 AJ70 AJ70 AJ70 AJ70 AJ70 AJ70 AJ70 AJ70 AJ70 AJ70 AJ70 AJ70 AJ70 AJ70 AJ70 AJ70 AJ70 AJ70 AJ70 AJ70 AJ70 AJ70 AJ70 AJ70 AJ70 AJ70 AJ70 AJ70 AJ70 AJ70 AJ70 AJ70 AJ70 AJ70 AJ70 AJ70 AJ70 AJ70 AJ70 AJ70 AJ70 AJ70 AJ70 AJ70 AJ70 AJ70 AJ70 AJ70 AJ70 AJ70 AJ70 AJ70 AJ70 AJ70 AJ70 AJ70 AJ70 AJ70 AJ70 AJ70 AJ70 AJ70 AJ70 AJ70 AJ70 AJ70 AJ70 AJ70 AJ70 AJ70 AJ70 AJ70 AJ70 AJ70 AJ70 AJ70 AJ70 AJ70 AJ70 AJ70 AJ70 AJ70 AJ70 AJ70 AJ70 AJ70 AJ70 AJ70 AJ70 AJ70 AJ70 AJ70 AJ70 AJ70 AJ70 AJ70 AJ70 AJ70 AJ70 AJ70 AJ70 AJ70 AJ70 AJ70 AJ70 AJ70 AJ70 AJ70 AJ70 AJ70 AJ70 AJ70 AJ70 AJ70 AJ70 AJ70 AJ70 AJ70 AJ70 AJ70 AJ70 AJ70 AJ70 AJ70 AJ70 AJ70 AJ70 AJ70 AJ70 AJ70 AJ70 AJ70 AJ70 AJ70 AJ70 AJ70 AJ70 AJ70 AJ70 AJ70 AJ70 AJ70 AJ70 AJ70 AJ70 AJ70 AJ70 AJ70 70 0 0 0 0 0 0?H< 0?H< 0?H< 0?H< 0?H< 0?H< 0?H< 0?H< 0?H< 0?H< 0?H< 0?H< 0?H< 0?H< 0?H< 0?H< 0?H< 0?H< 0?H< 0?H< 0?H< 0?H< 0?H< 0?H< 0?H< 0?H< 0?H< 0?H< 0?H< 0?H< 0?H< 0?H< 0?H< 0?H< 0?H< 0?H< 0?H< 0?H< 0?H< 0?H< 0?H< 0?H< 0?H< 0?H< 0?H< 0?H< 0?H< 0?H< 0?H< 0?H< 0?H< 0?H< 0?H< 0?H< 0?H< 0?H< 0?H< 0?H< 0?H< 0?H< 0?H< 0?H< 0?H< 0?H< 0?H< 0?H< 0?H< 0?H< 0?H< 0?H< 0?H< 0?H< 0?H< 0?H< 0?H< 0?H< 0?H< 0?H< 0?H< 0?H< 0?H< 0?H< 0?H< 0?H< 0?H< 0?H< 0?H< 0?H< 0?H< 0?H< 0?H< 0?H< 0?H< 0?H< 0?H< 0?H< 0?H< 0?H< 0?H< 0?H< 0?H< 0?H< 0?H< 0?H< 0?H< 0?H< 0?H< 0?H< 0?H< 0?H< 0?H< 0?H< 0?H< 0?H< 0?H< 0?H< 0?H< 0?H< 0?H< 0?H< 0?H< 0?H< 0?H< 0?H< 0?H< 0?H< 0?H< 0?H< 0?H< 0?H< 0?H< 0?H< 0?H< 0?H< 0?H< 0?H< 0?H< 0?H< 0?H< 0?H< 0?H< 0?H< 0?H< 0?H< 0?H< 0?H< 0?H< 0?H< 0?H< 0?H< 0?H< 0?H< 0?H< 0?H< 0?H< 0?H< 0?H< 0?H< 0?H< 0?H< 0?H< 0?H< 0?H< 0?H< 0?H< 0?H< 0?H< 0?H< 0?H< 0?H< 0?H< 0?H< 0?H< 0?H< 0?H< 0?H< 0?H< 0?H< 0?H< 0?H< 0?H< 0?H< 0?H< 0?H< 0?H< 0?H< 0?H< 0?H< 0?H< 0?H< 0?H< 0?H< 0?H< 0?H< 0?H< 0?H< 0?H< 0?H< 0?H< 0?H< 0?H< 0?H< 0?H< 0?H< 0?H< 0?H< 0?H< 0?H< 0?H< 0?H< 0?H< 0?H< 0?H< 0?H< 0?H< 0?H< 0?H< 0?H< 0?H< 0?H< 0?H< 0?H< 0?H< 0?H< 0?H< 0?H< 0?H< 0?H< 0?H< 0?H< 0?H< 0?H< 0?H< 0?H< 0?H< 0?H< 0?H< 0?H< 0?H< 0?H< 0?H< 0?H< 0?H< 0?H< 0?H< 0?H< 0?H< 0?H< 0?H< 0?H< 0?H< 0?H< 0?H< 0?H< 0?H< 0?H< 0?H< 0?H< 0?H< 0?H< 0?H< 0?H< 0?H< 0?H< 0?H< 0?H< 0?H< 0?H< 0?H< 0?H< 0?H< 0?H< 0?H< 0?H< 0?H< 0?H< 0?H< 0?H< 0?H< 0?H< 0?H< 0?H< 0?H< 0?H< 0?H< 0?H< 0?H< 0?H< 0?H< 0?H< 0?H< 0?H< 0?H< 0?H< 0?H< 0?H< 0?H< 0?H< 0?H< 0?H< 0?H< 0?H< 0?H< 0?H< 0?H< 0?H< 0?H< 0?H< 0?H< 0?H< 0?H< 0?H< 0?H< 0?H< 0?H< 0?H< 0?H< 0?H< 0?H< 0?H< 0?H< 0?H< 0?H< 0?H< 0?H< 0?H< 0?H< 0?H< 0?H< 0?H< 0?H< 0?H< 0?H< 0?H< 0?H< 0?H< 0?H< 0?H< 0?H< 0?H< 0?H< 0?H< 0?H< 0?H< 0?H< 0?H< 0?H< 0?H< 0?H< 0?H< 0?H< 0?H< 0?H< 0?H< 0?H< 0?H< 0?H< 0?H< 0?H< 0?H< 0?H< 0?H< 0?H< 0?H< 0?H< 0?H< 0?H< 0?H< 0?H< 0?H< 0?H< 0?H< 0?H< 0?H< 0?H< 0?H< 0?H< 0?H< 0?H< 0?H< 0?H< 0?H< 0?H< 0?H< 0?H< 0?H< 0?H< 0?H< 0?H< 0?H< 0?H< 0?H< 0?H< 0?H< 0?H< 0?H< 0?H< 0?H< 0?H< 0?H< 0?H< 0?H< 0?H< 0?H< 0?H< 0?H< 0?H< 0?H< 0?H< 0?H< 0?H< 0?H< 0?H< 0?H< 0?H< 0?H< 0?H< 0?H< 0?H< 0?H< 0?H< 0?H< 0?H< 0?H< 0?H< 0?H< 0?H< 0?H< 0?H< 0?H< 0?H< 0?H< 0?H< 0?H< 0?H< 0?H< 0?H< 0?H< 0?H< 0?H< 0?H< 0?H< 0?H< 0?H< 0?H< 0?H< 0?H< 0?H< 0?H< 0?H< 0?H< 0?H< 0?H< 0?H< 0?H< 0?H< 0?H< 0?H< 0?H< 0?H< 0?H< 0?H< 0?H< 0?H< 0?H< 0?H< 0?H< 0?H< 0?H< 0?H< 0?H< 0?H< 0?H< 0?H< 0?H< 0?H< 0?H< 0?H< 0?H< 0?H< 0?H< 0?H< 0?H< 0?H< 0?H< 0?H< 0?H< 0?H< 0?H< 0?H< 0?H< 0?H< 0?H< 0?H< 0?H< 0?H< 0?H< 0?H< 0?H< 0?H< 0?H< 0?H< 0?H< 0?H< 0?H< 0?H< 0?H< 0?H< 0?H< 0?H< 0?H< 0?H< 0?H< 0?H< 0?H< 0?H< 0?H< 0?H< 0?H< 0?H< 0?H< 0?H< 0?H< 0?H< 0?H< 0?H< 0?H< 0?H< 0?H< 0?H< 0?H< 0?H< 0?H< 0?H< 0?H< 0?H< 0?H< 0?H< 0?H< 0?H< 0?H< 0?H< 0?H< 0?H< 0?H< 0?H< 0?H< 0?H< 0?H< 0?H< 0?H< 0?H< 0?H< 0?H< 0?H< 0?H< 0?H< 0?H< 0?H< 0?H< 0?H< 0?H< 0?H< 0?H< 0?H< 0?H< 0?H< 0?H< 0?H< 0?H< 0?H< 0?H< 0?H< 0?H< 0?H< 0?H< 0?H< 0?H< 0?H< 0?H< 0?H< 0?H< 0?H< 0?H< 0?H< 0?H< 0?H< 0?H< 0?H< 0?H< 0?H< 0?H< 0?H< 0?H< 0?H< 0?H< 0?H< 0?H< 0?H< 0?H< 0?H< 0?H< 0?H< 0?H< 0?H< 0?H< 0?H< 0?H< 0?H< 0?H< 0?H< 0?H< 0?H< 0?H< 0?H< 0?H< 0?H< 0?H< 0?H< 0?H< 0?H< 0?H< 0?H< 0?H< 0?H< 0?H< 0?H< 0?H< 0?H< 0?H< 0?H< 0?H< 0?H< 0?H< 0?H< 0?H< 0?H< 0?H< 0?H< 0?H< 0?H< 0?H< 0?H< 0?H< 0?H< 0?H< 0?H< 0?H< 0?H< 0?H< 0?H< 0?H< 0?H< 0?H< 0?H< 0?H< 0?H< 0?H< 0?H< 0?H< 0?H< 0?H< 0?H< 0?H< 0?H< 0?H< 0?H< 0?H< 0?H< 0?H< 0?H< 0?H< 0?H< 0?H< 0?H< 0?H< 0?H< 0?H< 0?H< 0?H< 0?H< 0?H< 0?H< 0?H< 0?H< 0?H< 0?H< 0?H< 0?H< 0?H< 0?H< 0?H< 0?H< 0?H< 0?H< 0?H< 0?H< 0?H< 0?H< 0?H< 0?H< 0?H< 0?H< 0?H< 0?H< 0?H< 0?H< 0?H< 0?H< 0?H< 0?H< 0?H< 0?H< 0?H< 0?H< 0?H< 0?H< 0?H< 0?H< 0?H< 0?H< 0?H< 0?H< 0?H< 0?H< 0?H< 0?H< 0?H< 0?H< 0?H< 0?H< 0?H< 0?H< 0?H< 0?H< 0?H< 0?H< 0?H< 0?H< 0?H< 0?H< 0?H< 0?H< 0?H< 0?H< 0?H< 0?H< 0?H< 0?H< 0?H< 0?H< 0?H< 0?H< 0?H< 0?H< 0?H< 0?H< 0?H< 0?H< 0?H< 0?H< 0?H< 0?H< 0?H< 0?H< 0?H< 0?H< 0?H< 0?H< 0?H< 0?H< 0?H< 0?H< 0?H< 0?H< 0?H< 0?H< 0?H< 0?H< 0?H< 0?H< 0?H< 0?H< 0?H< 0?H< 0?H< 0?H< 0?H< 0?H< 0?H< 0?H< 0?H< 0?H< 0?H< 0?H< 0?H< 0?H< 0?H< 0?H< 0?H< 0?H< 0?H< 0?H< 0?H< 0?H< 0?H< 0?H< 0?H< 0?H< 0?H< 0?H< 0?H< 0?H< 0?H< 0?H< 0?H< 0?H< ?H<      *HEK *HEK *HEK *HEK *HEK *HEK *HEK *HEK *HEK *HEK *HEK *HEK *HEK *HEK *HEK *HEK *HEK *HEK *HEK *HEK *HEK *HEK *HEK *HEK *HEK *HEK *HEK *HEK *HEK *HEK *HEK *HEK *HEK *HEK *HEK *HEK *HEK *HEK *HEK *HEK *HEK *HEK *HEK *HEK *HEK *HEK *HEK *HEK *HEK *HEK *HEK *HEK *HEK *HEK *HEK *HEK *HEK *HEK *HEK *HEK *HEK *HEK *HEK *HEK *HEK *HEK *HEK *HEK *HEK *HEK *HEK *HEK *HEK *HEK *HEK *HEK *HEK *HEK *HEK *HEK *HEK *HEK *HEK *HEK *HEK *HEK *HEK *HEK *HEK *HEK *HEK *HEK *HEK *HEK *HEK *HEK *HEK *HEK *HEK *HEK *HEK *HEK *HEK *HEK *HEK *HEK *HEK *HEK *HEK *HEK *HEK *HEK *HEK *HEK *HEK *HEK *HEK *HEK *HEK *HEK *HEK *HEK *HEK *HEK *HEK *HEK *HEK *HEK *HEK *HEK *HEK *HEK *HEK *HEK *HEK *HEK *HEK *HEK *HEK *HEK *HEK *HEK *HEK *HEK *HEK *HEK *HEK *HEK *HEK *HEK *HEK *HEK *HEK *HEK *HEK *HEK *HEK *HEK *HEK *HEK *HEK *HEK *HEK *HEK *HEK *HEK *HEK *HEK *HEK *HEK *HEK *HEK *HEK *HEK *HEK *HEK *HEK *HEK *HEK *HEK *HEK *HEK *HEK *HEK *HEK *HEK *HEK *HEK *HEK *HEK *HEK *HEK *HEK *HEK *HEK *HEK *HEK *HEK *HEK *HEK *HEK *HEK *HEK *HEK *HEK *HEK *HEK *HEK *HEK *HEK *HEK *HEK *HEK *HEK *HEK *HEK *HEK *HEK *HEK *HEK *HEK *HEK *HEK *HEK *HEK *HEK *HEK *HEK *HEK *HEK *HEK *HEK *HEK *HEK *HEK *HEK *HEK *HEK *HEK *HEK *HEK *HEK *HEK *HEK *HEK *HEK *HEK *HEK *HEK *HEK *HEK *HEK *HEK *HEK *HEK *HEK *HEK *HEK *HEK *HEK *HEK *HEK *HEK *HEK *HEK *HEK *HEK *HEK *HEK *HEK *HEK *HEK *HEK *HEK *HEK *HEK *HEK *HEK *HEK *HEK *HEK *HEK *HEK *HEK *HEK *HEK *HEK *HEK *HEK *HEK *HEK *HEK *HEK *HEK *HEK *HEK *HEK *HEK *HEK *HEK *HEK *HEK *HEK *HEK *HEK *HEK *HEK *HEK *HEK *HEK *HEK *HEK *HEK *HEK *HEK *HEK *HEK *HEK *HEK *HEK *HEK *HEK *HEK *HEK *HEK *HEK *HEK *HEK *HEK *HEK *HEK *HEK *HEK *HEK *HEK *HEK *HEK *HEK *HEK *HEK *HEK *HEK *HEK *HEK *HEK *HEK *HEK *HEK *HEK *HEK *HEK *HEK *HEK *HEK *HEK *HEK *HEK *HEK *HEK *HEK *HEK *HEK *HEK *HEK *HEK *HEK *HEK *HEK *HEK *HEK *HEK *HEK *HEK *HEK *HEK *HEK *HEK *HEK *HEK *HEK *HEK *HEK *HEK *HEK *HEK *HEK *HEK *HEK *HEK *HEK *HEK *HEK *HEK *HEK *HEK *HEK *HEK *HEK *HEK *HEK *HEK *HEK *HEK *HEK *HEK *HEK HEK HEK HEK HEK HEK -HEK -HEK -HEK -HEK -HEK -HEK -HEK -HEK -HEK -HEK -HEK -HEK -HEK -HEK -HEK -HEK -HEK -HEK -HEK -HEK -HEK -HEK -HEK -HEK -HEK -HEK -HEK -HEK -HEK -HEK -HEK -HEK -HEK -HEK -HEK -HEK -HEK -HEK -HEK -HEK -HEK -HEK -HEK -HEK -HEK -HEK -HEK -HEK -HEK -HEK -HEK -HEK -HEK -HEK -HEK -HEK -HEK -HEK -HEK -HEK -HEK -HEK -HEK -HEK -HEK -HEK -HEK -HEK -HEK -HEK -HEK -HEK -HEK -HEK -HEK -HEK -HEK -HEK -HEK -HEK -HEK -HEK -HEK -HEK -HEK -HEK -HEK -HEK -HEK -HEK -HEK -HEK -HEK -HEK -HEK -HEK -HEK -HEK -HEK -HEK -HEK -HEK -HEK -HEK -HEK -HEK -HEK -HEK -HEK -HEK -HEK -HEK -HEK -HEK -HEK -HEK -HEK -HEK -HEK -HEK -HEK -HEK -HEK -HEK -HEK -HEK -HEK -HEK -HEK -HEK -HEK -HEK -HEK -HEK -HEK -HEK -HEK -HEK -HEK -HEK -HEK -HEK -HEK -HEK -HEK -HEK -HEK -HEK -HEK -HEK -HEK -HEK -HEK -HEK -HEK -HEK -HEK -HEK -HEK -HEK -HEK -HEK -HEK -HEK -HEK -HEK -HEK -HEK -HEK -HEK -HEK -HEK -HEK -HEK -HEK -HEK -HEK -HEK -HEK -HEK -HEK -HEK -HEK -HEK -HEK -HEK -HEK -HEK -HEK -HEK -HEK -HEK -HEK -HEK -HEK -HEK -HEK -HEK -HEK -HEK -HEK -HEK -HEK -HEK -HEK -HEK -HEK -HEK -HEK -HEK -HEK -HEK -HEK -HEK -HEK -HEK -HEK -HEK -HEK -HEK -HEK -HEK -HEK -HEK -HEK -HEK -HEK -HEK -HEK -HEK -HEK -HEK -HEK -HEK -HEK -HEK -HEK -HEK -HEK -HEK -HEK -HEK -HEK -HEK -HEK -HEK -HEK -HEK -HEK -HEK -HEK -HEK -HEK -HEK -HEK -HEK -HEK -HEK -HEK -HEK -HEK -HEK -HEK -HEK -HEK -HEK -HEK -HEK -HEK -HEK -HEK -HEK -HEK -HEK -HEK -HEK -HEK -HEK -HEK -HEK -HEK -HEK -HEK -HEK -HEK -HEK -HEK -HEK -HEK -HEK -HEK -HEK -HEK -HEK -HEK -HEK -HEK -HEK -HEK -HEK -HEK -HEK -HEK -HEK -HEK -HEK -HEK -HEK -HEK -HEK -HEK -HEK -HEK -HEK -HEK -HEK -HEK -HEK -HEK -HEK -HEK -HEK -HEK -HEK -HEK -HEK -HEK -HEK -HEK -HEK -HEK -HEK -HEK -HEK -HEK -HEK -HEK -HEK -HEK -HEK -HEK -HEK -HEK -HEK -HEK -HEK -HEK -HEK -HEK -HEK -HEK -HEK -HEK -HEK -HEK -HEK -HEK -HEK -HEK -HEK -HEK -HEK -HEK -HEK -HEK -HEK -HEK -HEK -HEK -HEK -HEK -HEK -HEK -HEK -HEK -HEK -HEK -HEK -HEK -HEK -HEK -HEK -HEK -HEK -HEK -HEK -HEK -HEK -HEK -HEK -HEK -HEK -HEK -HEK -HEK -HEK -HEK -HEK -HEK -HEK -HEK -HEK -HEK -HEK -HEK -HEK HEK K K K K K 0BEK 0BEK 0BEK 0BEK 0BEK 0BEK 0BEK 0BEK 0BEK 0BEK 0BEK 0BEK 0BEK 0BEK 0BEK 0BEK 0BEK 0BEK 0BEK 0BEK 0BEK 0BEK 0BEK 0BEK 0BEK 0BEK 0BEK 0BEK 0BEK 0BEK 0BEK 0BEK 0BEK 0BEK 0BEK 0BEK 0BEK 0BEK 0BEK 0BEK 0BEK 0BEK 0BEK 0BEK 0BEK 0BEK 0BEK 0BEK 0BEK 0BEK 0BEK 0BEK 0BEK 0BEK 0BEK 0BEK 0BEK 0BEK 0BEK 0BEK 0BEK 0BEK 0BEK 0BEK 0BEK 0BEK 0BEK 0BEK 0BEK 0BEK 0BEK 0BEK 0BEK 0BEK 0BEK 0BEK 0BEK 0BEK 0BEK 0BEK 0BEK 0BEK 0BEK 0BEK 0BEK 0BEK 0BEK 0BEK 0BEK 0BEK 0BEK 0BEK 0BEK 0BEK 0BEK 0BEK 0BEK 0BEK 0BEK 0BEK 0BEK 0BEK 0BEK 0BEK 0BEK 0BEK 0BEK 0BEK 0BEK 0BEK 0BEK 0BEK 0BEK 0BEK 0BEK 0BEK 0BEK 0BEK 0BEK 0BEK 0BEK 0BEK 0BEK 0BEK 0BEK 0BEK 0BEK 0BEK 0BEK 0BEK 0BEK 0BEK 0BEK 0BEK 0BEK 0BEK 0BEK 0BEK 0BEK 0BEK 0BEK 0BEK 0BEK 0BEK 0BEK 0BEK 0BEK 0BEK 0BEK 0BEK 0BEK 0BEK 0BEK 0BEK 0BEK 0BEK 0BEK 0BEK 0BEK 0BEK 0BEK 0BEK 0BEK 0BEK 0BEK 0BEK 0BEK 0BEK 0BEK 0BEK 0BEK 0BEK 0BEK 0BEK 0BEK 0BEK 0BEK 0BEK 0BEK 0BEK 0BEK 0BEK 0BEK 0BEK 0BEK 0BEK 0BEK 0BEK 0BEK 0BEK 0BEK 0BEK 0BEK 0BEK 0BEK 0BEK 0BEK 0BEK 0BEK 0BEK 0BEK 0BEK 0BEK 0BEK 0BEK 0BEK 0BEK 0BEK 0BEK 0BEK 0BEK 0BEK 0BEK 0BEK 0BEK 0BEK 0BEK 0BEK 0BEK 0BEK 0BEK 0BEK 0BEK 0BEK 0BEK 0BEK 0BEK 0BEK 0BEK 0BEK 0BEK 0BEK 0BEK 0BEK 0BEK 0BEK 0BEK 0BEK 0BEK 0BEK 0BEK 0BEK 0BEK 0BEK 0BEK 0BEK 0BEK 0BEK 0BEK 0BEK 0BEK 0BEK 0BEK 0BEK 0BEK 0BEK 0BEK 0BEK 0BEK 0BEK 0BEK 0BEK 0BEK 0BEK 0BEK 0BEK 0BEK 0BEK 0BEK 0BEK 0BEK 0BEK 0BEK 0BEK 0BEK 0BEK 0BEK 0BEK 0BEK 0BEK 0BEK 0BEK 0BEK 0BEK 0BEK 0BEK 0BEK 0BEK 0BEK 0BEK 0BEK 0BEK 0BEK 0BEK 0BEK 0BEK 0BEK 0BEK 0BEK 0BEK 0BEK 0BEK 0BEK 0BEK 0BEK 0BEK 0BEK 0BEK 0BEK 0BEK 0BEK 0BEK 0BEK 0BEK 0BEK 0BEK 0BEK 0BEK 0BEK 0BEK 0BEK 0BEK 0BEK 0BEK 0BEK 0BEK 0BEK 0BEK 0BEK 0BEK 0BEK 0BEK 0BEK 0BEK 0BEK 0BEK 0BEK 0BEK 0BEK 0BEK 0BEK 0BEK 0BEK 0BEK 0BEK 0BEK 0BEK 0BEK 0BEK 0BEK 0BEK 0BEK 0BEK 0BEK 0BEK 0BEK 0BEK 0BEK 0BEK 0BEK 0BEK 0BEK 0BEK 0BEK 0BEK 0BEK 0BEK 0BEK 0BEK 0BEK 0BEK 0BEK 0BEK 0BEK 0BEK 0BEK 0BEK 0BEK 0BEK 0BEK 0BEK 0BEK 0BEK 0BEK 0BEK 0BEK 0BEK 0BEK 0BEK 0BEK 0BEK 0BEK 0BEK 0BEK 0BEK 0BEK 0BEK 0BEK 0BEK 0BEK 0BEK 0BEK 0BEK 0BEK 0BEK 0BEK BEK BEK BEK BEK BEK -BEK -BEK -BEK -BEK -BEK -BEK -BEK -BEK -BEK -BEK -BEK -BEK -BEK -BEK -BEK -BEK -BEK -BEK -BEK -BEK -BEK -BEK -BEK -BEK -BEK -BEK -BEK -BEK -BEK -BEK -BEK -BEK -BEK -BEK -BEK -BEK -BEK -BEK -BEK -BEK -BEK -BEK -BEK -BEK -BEK -BEK -BEK -BEK -BEK -BEK -BEK -BEK -BEK -BEK -BEK -BEK -BEK -BEK -BEK -BEK -BEK -BEK -BEK -BEK -BEK -BEK -BEK -BEK -BEK -BEK -BEK -BEK -BEK -BEK -BEK -BEK -BEK -BEK -BEK -BEK -BEK -BEK -BEK -BEK -BEK -BEK -BEK -BEK -BEK -BEK -BEK -BEK -BEK -BEK -BEK -BEK -BEK -BEK -BEK -BEK -BEK -BEK -BEK -BEK -BEK -BEK -BEK -BEK -BEK -BEK -BEK -BEK -BEK -BEK -BEK -BEK -BEK -BEK -BEK -BEK -BEK -BEK -BEK -BEK -BEK -BEK -BEK -BEK -BEK -BEK -BEK -BEK -BEK -BEK -BEK -BEK -BEK -BEK -BEK -BEK -BEK -BEK -BEK -BEK -BEK -BEK -BEK -BEK -BEK -BEK -BEK -BEK -BEK -BEK -BEK -BEK -BEK -BEK -BEK -BEK -BEK -BEK -BEK -BEK -BEK -BEK -BEK -BEK -BEK -BEK -BEK -BEK -BEK -BEK -BEK -BEK -BEK -BEK -BEK -BEK -BEK -BEK -BEK -BEK -BEK -BEK -BEK -BEK -BEK -BEK -BEK -BEK -BEK -BEK -BEK -BEK -BEK -BEK -BEK -BEK -BEK -BEK -BEK -BEK -BEK -BEK -BEK -BEK -BEK -BEK -BEK -BEK -BEK -BEK -BEK -BEK -BEK -BEK -BEK -BEK -BEK -BEK -BEK -BEK -BEK -BEK -BEK -BEK -BEK -BEK -BEK -BEK -BEK -BEK -BEK -BEK -BEK -BEK -BEK -BEK -BEK -BEK -BEK -BEK -BEK -BEK -BEK -BEK -BEK -BEK -BEK -BEK -BEK -BEK -BEK -BEK -BEK -BEK -BEK -BEK -BEK -BEK -BEK -BEK -BEK -BEK -BEK -BEK -BEK -BEK -BEK -BEK -BEK -BEK -BEK -BEK -BEK -BEK -BEK -BEK -BEK -BEK -BEK -BEK -BEK -BEK -BEK -BEK -BEK -BEK -BEK -BEK -BEK -BEK -BEK -BEK -BEK -BEK -BEK -BEK -BEK -BEK -BEK -BEK -BEK -BEK -BEK -BEK -BEK -BEK -BEK -BEK -BEK -BEK -BEK -BEK -BEK -BEK -BEK -BEK -BEK -BEK -BEK -BEK -BEK -BEK -BEK -BEK -BEK -BEK -BEK -BEK -BEK -BEK -BEK -BEK -BEK -BEK -BEK -BEK -BEK -BEK -BEK -BEK -BEK -BEK -BEK -BEK -BEK -BEK -BEK -BEK -BEK -BEK -BEK -BEK -BEK -BEK -BEK -BEK -BEK -BEK -BEK -BEK -BEK -BEK -BEK -BEK -BEK -BEK -BEK -BEK -BEK -BEK -BEK -BEK -BEK -BEK -BEK -BEK -BEK -BEK -BEK -BEK -BEK -BEK -BEK -BEK -BEK -BEK -BEK -BEK -BEK -BEK -BEK -BEK -BEK -BEK -BEK -BEK -BEK -BEK -BEK -BEK -BEK -BEK BEK BEK BEK BEK BEK BEK -BEK -BEK -BEK -BEK -BEK -BEK -BEK -BEK -BEK -BEK -BEK -BEK -BEK -BEK -BEK -BEK -BEK -BEK -BEK -BEK -BEK -BEK -BEK -BEK -BEK -BEK -BEK -BEK -BEK -BEK -BEK -BEK -BEK -BEK -BEK -BEK -BEK -BEK -BEK -BEK -BEK -BEK -BEK -BEK -BEK -BEK -BEK -BEK -BEK -BEK -BEK -BEK -BEK -BEK -BEK -BEK -BEK -BEK -BEK -BEK -BEK -BEK -BEK -BEK -BEK -BEK -BEK -BEK -BEK -BEK -BEK -BEK -BEK -BEK -BEK -BEK -BEK -BEK -BEK -BEK -BEK -BEK -BEK -BEK -BEK -BEK -BEK -BEK -BEK -BEK -BEK -BEK -BEK -BEK -BEK -BEK -BEK -BEK -BEK -BEK -BEK -BEK -BEK -BEK -BEK -BEK -BEK -BEK -BEK -BEK -BEK -BEK -BEK -BEK -BEK -BEK -BEK -BEK -BEK -BEK -BEK -BEK -BEK -BEK -BEK -BEK -BEK -BEK -BEK -BEK -BEK -BEK -BEK -BEK -BEK -BEK -BEK -BEK -BEK -BEK -BEK -BEK -BEK -BEK -BEK -BEK -BEK -BEK -BEK -BEK -BEK -BEK -BEK -BEK -BEK -BEK -BEK -BEK -BEK -BEK -BEK -BEK -BEK -BEK -BEK -BEK -BEK -BEK -BEK -BEK -BEK -BEK -BEK -BEK -BEK -BEK -BEK -BEK -BEK -BEK -BEK -BEK -BEK -BEK -BEK -BEK -BEK -BEK -BEK -BEK -BEK -BEK -BEK -BEK -BEK -BEK -BEK -BEK -BEK -BEK BEK BEK BEK BEK BEK +BEK +BEK +BEK +BEK +BEK +BEK +BEK +BEK +BEK +BEK +BEK +BEK +BEK +BEK +BEK +BEK +BEK +BEK +BEK +BEK +BEK +BEK +BEK +BEK +BEK +BEK +BEK +BEK +BEK +BEK +BEK +BEK +BEK +BEK +BEK +BEK +BEK +BEK +BEK +BEK +BEK +BEK +BEK +BEK +BEK +BEK +BEK +BEK +BEK +BEK +BEK +BEK +BEK +BEK +BEK +BEK +BEK +BEK +BEK +BEK +BEK +BEK +BEK +BEK +BEK +BEK +BEK +BEK +BEK +BEK +BEK +BEK +BEK +BEK +BEK +BEK +BEK +BEK +BEK +BEK +BEK +BEK +BEK +BEK +BEK +BEK +BEK +BEK +BEK +BEK +BEK +BEK +BEK +BEK +BEK +BEK +BEK +BEK +BEK +BEK +BEK +BEK +BEK +BEK +BEK +BEK +BEK +BEK +BEK +BEK +BEK +BEK +BEK +BEK +BEK +BEK +BEK +BEK +BEK +BEK +BEK +BEK +BEK +BEK +BEK +BEK +BEK +BEK +BEK +BEK +BEK +BEK +BEK +BEK +BEK +BEK +BEK +BEK +BEK +BEK +BEK +BEK +BEK +BEK +BEK +BEK +BEK +BEK +BEK +BEK +BEK +BEK +BEK +BEK +BEK +BEK +BEK +BEK +BEK +BEK +BEK +BEK +BEK +BEK +BEK +BEK +BEK +BEK +BEK +BEK +BEK +BEK +BEK +BEK +BEK +BEK +BEK +BEK +BEK +BEK +BEK +BEK +BEK +BEK +BEK +BEK +BEK +BEK +BEK +BEK +BEK +BEK +BEK +BEK +BEK +BEK +BEK +BEK +BEK +BEK BEK BEK BEK BEK BEK BEK *BEK *BEK *BEK *BEK *BEK *BEK *BEK *BEK *BEK *BEK *BEK *BEK *BEK *BEK *BEK *BEK *BEK *BEK *BEK *BEK *BEK *BEK *BEK *BEK *BEK *BEK *BEK *BEK *BEK *BEK *BEK *BEK *BEK *BEK *BEK *BEK *BEK *BEK *BEK *BEK *BEK *BEK *BEK *BEK *BEK *BEK *BEK *BEK *BEK *BEK *BEK *BEK *BEK *BEK *BEK *BEK *BEK *BEK *BEK *BEK *BEK *BEK *BEK *BEK *BEK *BEK *BEK *BEK *BEK *BEK *BEK *BEK *BEK *BEK *BEK *BEK *BEK *BEK *BEK *BEK *BEK *BEK *BEK *BEK *BEK *BEK *BEK *BEK *BEK *BEK *BEK *BEK *BEK *BEK *BEK *BEK *BEK *BEK *BEK *BEK *BEK *BEK *BEK *BEK *BEK *BEK *BEK *BEK *BEK *BEK *BEK *BEK *BEK *BEK *BEK *BEK *BEK *BEK *BEK *BEK *BEK *BEK *BEK *BEK *BEK *BEK *BEK *BEK *BEK *BEK *BEK *BEK *BEK *BEK *BEK *BEK *BEK *BEK *BEK *BEK *BEK *BEK *BEK *BEK *BEK *BEK *BEK *BEK *BEK *BEK *BEK *BEK *BEK *BEK *BEK *BEK *BEK *BEK *BEK *BEK *BEK *BEK *BEK *BEK *BEK *BEK *BEK *BEK *BEK *BEK *BEK *BEK *BEK *BEK *BEK *BEK *BEK *BEK *BEK *BEK *BEK *BEK *BEK *BEK *BEK *BEK *BEK *BEK *BEK *BEK *BEK *BEK *BEK *BEK *BEK *BEK *BEK *BEK *BEK *BEK *BEK *BEK *BEK *BEK *BEK *BEK *BEK *BEK *BEK *BEK *BEK *BEK *BEK *BEK *BEK *BEK *BEK *BEK *BEK *BEK *BEK *BEK *BEK *BEK *BEK *BEK *BEK *BEK *BEK *BEK *BEK *BEK *BEK *BEK *BEK *BEK *BEK *BEK *BEK *BEK *BEK *BEK *BEK *BEK *BEK *BEK *BEK *BEK *BEK *BEK *BEK *BEK *BEK *BEK *BEK *BEK *BEK *BEK *BEK *BEK *BEK *BEK *BEK *BEK *BEK *BEK *BEK *BEK *BEK *BEK *BEK *BEK *BEK *BEK *BEK *BEK *BEK *BEK *BEK *BEK *BEK *BEK *BEK *BEK *BEK *BEK *BEK *BEK *BEK *BEK *BEK *BEK *BEK *BEK *BEK *BEK *BEK *BEK *BEK *BEK *BEK *BEK *BEK *BEK *BEK *BEK *BEK *BEK *BEK *BEK *BEK *BEK *BEK *BEK *BEK *BEK *BEK *BEK *BEK *BEK *BEK *BEK *BEK *BEK *BEK *BEK *BEK *BEK *BEK *BEK *BEK *BEK *BEK *BEK *BEK *BEK *BEK *BEK *BEK *BEK *BEK *BEK *BEK *BEK *BEK *BEK *BEK *BEK *BEK *BEK *BEK *BEK *BEK *BEK *BEK *BEK *BEK *BEK *BEK *BEK *BEK *BEK *BEK *BEK *BEK *BEK *BEK *BEK *BEK *BEK *BEK *BEK *BEK *BEK *BEK *BEK *BEK *BEK *BEK *BEK *BEK *BEK *BEK *BEK *BEK *BEK *BEK *BEK *BEK *BEK *BEK *BEK *BEK *BEK *BEK *BEK *BEK *BEK *BEK *BEK *BEK *BEK *BEK *BEK *BEK *BEK BEK K K K K K +FJK +FJK +FJK +FJK +FJK +FJK +FJK +FJK +FJK +FJK +FJK +FJK +FJK +FJK +FJK +FJK +FJK +FJK +FJK +FJK +FJK +FJK +FJK +FJK +FJK +FJK +FJK +FJK +FJK +FJK +FJK +FJK +FJK +FJK +FJK +FJK +FJK +FJK +FJK +FJK +FJK +FJK +FJK +FJK +FJK +FJK +FJK +FJK +FJK +FJK +FJK +FJK +FJK +FJK +FJK +FJK +FJK +FJK +FJK +FJK +FJK +FJK +FJK +FJK +FJK +FJK +FJK +FJK +FJK +FJK +FJK +FJK +FJK +FJK +FJK +FJK +FJK +FJK +FJK +FJK +FJK +FJK +FJK +FJK +FJK +FJK +FJK +FJK +FJK +FJK +FJK +FJK +FJK +FJK +FJK +FJK +FJK +FJK +FJK +FJK +FJK +FJK +FJK +FJK +FJK +FJK +FJK +FJK +FJK +FJK +FJK +FJK +FJK +FJK +FJK +FJK +FJK +FJK +FJK +FJK +FJK +FJK +FJK +FJK +FJK +FJK +FJK +FJK +FJK +FJK +FJK +FJK +FJK +FJK +FJK +FJK +FJK +FJK +FJK +FJK +FJK +FJK +FJK +FJK +FJK +FJK +FJK +FJK +FJK +FJK +FJK +FJK +FJK +FJK +FJK +FJK +FJK +FJK +FJK +FJK +FJK +FJK +FJK +FJK +FJK +FJK +FJK +FJK +FJK +FJK +FJK +FJK +FJK +FJK +FJK +FJK +FJK +FJK +FJK +FJK +FJK +FJK +FJK +FJK +FJK +FJK +FJK +FJK +FJK +FJK +FJK +FJK +FJK +FJK +FJK +FJK +FJK +FJK +FJK +FJK +FJK +FJK +FJK +FJK +FJK +FJK +FJK +FJK +FJK +FJK +FJK +FJK +FJK +FJK +FJK +FJK +FJK +FJK +FJK +FJK +FJK +FJK +FJK +FJK +FJK +FJK +FJK +FJK +FJK +FJK +FJK +FJK +FJK +FJK +FJK +FJK +FJK +FJK +FJK +FJK +FJK +FJK +FJK +FJK +FJK +FJK +FJK +FJK +FJK +FJK +FJK +FJK +FJK +FJK +FJK +FJK +FJK +FJK +FJK +FJK +FJK +FJK +FJK +FJK +FJK +FJK +FJK +FJK +FJK +FJK +FJK +FJK +FJK +FJK +FJK +FJK +FJK +FJK +FJK +FJK +FJK +FJK +FJK +FJK +FJK +FJK +FJK +FJK +FJK +FJK +FJK +FJK +FJK +FJK +FJK +FJK +FJK +FJK +FJK +FJK +FJK +FJK +FJK +FJK +FJK +FJK +FJK +FJK +FJK +FJK +FJK +FJK +FJK +FJK +FJK +FJK +FJK +FJK +FJK +FJK +FJK +FJK +FJK +FJK +FJK +FJK +FJK +FJK +FJK +FJK +FJK +FJK +FJK +FJK +FJK +FJK +FJK +FJK +FJK +FJK +FJK +FJK +FJK +FJK +FJK +FJK +FJK +FJK +FJK +FJK +FJK +FJK +FJK +FJK +FJK +FJK +FJK +FJK +FJK +FJK +FJK +FJK +FJK +FJK +FJK +FJK +FJK +FJK +FJK +FJK +FJK +FJK +FJK +FJK +FJK +FJK +FJK +FJK +FJK +FJK +FJK +FJK +FJK +FJK +FJK +FJK +FJK +FJK +FJK +FJK +FJK +FJK +FJK +FJK +FJK +FJK +FJK +FJK +FJK +FJK +FJK +FJK +FJK +FJK +FJK +FJK FJK FJK FJK FJK FJK .FJK .FJK .FJK .FJK .FJK .FJK .FJK .FJK .FJK .FJK .FJK .FJK .FJK .FJK .FJK .FJK .FJK .FJK .FJK .FJK .FJK .FJK .FJK .FJK .FJK .FJK .FJK .FJK .FJK .FJK .FJK .FJK .FJK .FJK .FJK .FJK .FJK .FJK .FJK .FJK .FJK .FJK .FJK .FJK .FJK .FJK .FJK .FJK .FJK .FJK .FJK .FJK .FJK .FJK .FJK .FJK .FJK .FJK .FJK .FJK .FJK .FJK .FJK .FJK .FJK .FJK .FJK .FJK .FJK .FJK .FJK .FJK .FJK .FJK .FJK .FJK .FJK .FJK .FJK .FJK .FJK .FJK .FJK .FJK .FJK .FJK .FJK .FJK .FJK .FJK .FJK .FJK .FJK .FJK .FJK .FJK .FJK .FJK .FJK .FJK .FJK .FJK .FJK .FJK .FJK .FJK .FJK .FJK .FJK .FJK .FJK .FJK .FJK .FJK .FJK .FJK .FJK .FJK .FJK .FJK .FJK .FJK .FJK .FJK .FJK .FJK .FJK .FJK .FJK .FJK .FJK .FJK .FJK .FJK .FJK .FJK .FJK .FJK .FJK .FJK .FJK .FJK .FJK .FJK .FJK .FJK .FJK .FJK .FJK .FJK .FJK .FJK .FJK .FJK .FJK .FJK .FJK .FJK .FJK .FJK .FJK .FJK .FJK .FJK .FJK .FJK .FJK .FJK .FJK .FJK .FJK .FJK .FJK .FJK .FJK .FJK .FJK .FJK .FJK .FJK .FJK .FJK .FJK .FJK .FJK .FJK .FJK .FJK .FJK .FJK .FJK .FJK .FJK .FJK .FJK .FJK .FJK .FJK .FJK .FJK .FJK .FJK .FJK .FJK .FJK .FJK .FJK .FJK .FJK .FJK .FJK .FJK .FJK .FJK .FJK .FJK .FJK .FJK .FJK .FJK .FJK .FJK .FJK .FJK .FJK .FJK .FJK .FJK .FJK .FJK .FJK .FJK .FJK .FJK .FJK .FJK .FJK .FJK .FJK .FJK .FJK .FJK .FJK .FJK .FJK .FJK .FJK .FJK .FJK .FJK .FJK .FJK .FJK .FJK .FJK .FJK .FJK .FJK .FJK .FJK .FJK .FJK .FJK .FJK .FJK .FJK .FJK .FJK .FJK .FJK .FJK .FJK .FJK .FJK .FJK .FJK .FJK .FJK .FJK .FJK .FJK .FJK .FJK .FJK .FJK .FJK .FJK .FJK .FJK .FJK .FJK .FJK .FJK .FJK .FJK .FJK .FJK .FJK .FJK .FJK .FJK .FJK .FJK .FJK .FJK .FJK .FJK .FJK .FJK .FJK .FJK .FJK .FJK .FJK .FJK .FJK .FJK .FJK .FJK .FJK .FJK .FJK .FJK .FJK .FJK .FJK .FJK .FJK .FJK .FJK .FJK .FJK .FJK .FJK .FJK .FJK .FJK .FJK .FJK .FJK .FJK .FJK .FJK .FJK .FJK .FJK .FJK .FJK .FJK .FJK .FJK .FJK .FJK .FJK .FJK .FJK .FJK .FJK .FJK .FJK .FJK .FJK .FJK .FJK .FJK .FJK .FJK .FJK .FJK .FJK .FJK .FJK .FJK .FJK .FJK .FJK .FJK .FJK .FJK .FJK .FJK .FJK .FJK .FJK .FJK .FJK .FJK .FJK .FJK .FJK .FJK .FJK .FJK .FJK .FJK .FJK .FJK .FJK .FJK .FJK .FJK .FJK .FJK .FJK .FJK .FJK FJK K K K K K 1FCK 1FCK 1FCK 1FCK 1FCK 1FCK 1FCK 1FCK 1FCK 1FCK 1FCK 1FCK 1FCK 1FCK 1FCK 1FCK 1FCK 1FCK 1FCK 1FCK 1FCK 1FCK 1FCK 1FCK 1FCK 1FCK 1FCK 1FCK 1FCK 1FCK 1FCK 1FCK 1FCK 1FCK 1FCK 1FCK 1FCK 1FCK 1FCK 1FCK 1FCK 1FCK 1FCK 1FCK 1FCK 1FCK 1FCK 1FCK 1FCK 1FCK 1FCK 1FCK 1FCK 1FCK 1FCK 1FCK 1FCK 1FCK 1FCK 1FCK 1FCK 1FCK 1FCK 1FCK 1FCK 1FCK 1FCK 1FCK 1FCK 1FCK 1FCK 1FCK 1FCK 1FCK 1FCK 1FCK 1FCK 1FCK 1FCK 1FCK 1FCK 1FCK 1FCK 1FCK 1FCK 1FCK 1FCK 1FCK 1FCK 1FCK 1FCK 1FCK 1FCK 1FCK 1FCK 1FCK 1FCK 1FCK 1FCK 1FCK 1FCK 1FCK 1FCK 1FCK 1FCK 1FCK 1FCK 1FCK 1FCK 1FCK 1FCK 1FCK 1FCK 1FCK 1FCK 1FCK 1FCK 1FCK 1FCK 1FCK 1FCK 1FCK 1FCK 1FCK 1FCK 1FCK 1FCK 1FCK 1FCK 1FCK 1FCK 1FCK 1FCK 1FCK 1FCK 1FCK 1FCK 1FCK 1FCK 1FCK 1FCK 1FCK 1FCK 1FCK 1FCK 1FCK 1FCK 1FCK 1FCK 1FCK 1FCK 1FCK 1FCK 1FCK 1FCK 1FCK 1FCK 1FCK 1FCK 1FCK 1FCK 1FCK 1FCK 1FCK 1FCK 1FCK 1FCK 1FCK 1FCK 1FCK 1FCK 1FCK 1FCK 1FCK 1FCK 1FCK 1FCK 1FCK 1FCK 1FCK 1FCK 1FCK 1FCK 1FCK 1FCK 1FCK 1FCK 1FCK 1FCK 1FCK 1FCK 1FCK 1FCK 1FCK 1FCK 1FCK 1FCK 1FCK 1FCK 1FCK 1FCK 1FCK 1FCK 1FCK 1FCK 1FCK 1FCK 1FCK 1FCK 1FCK 1FCK 1FCK 1FCK 1FCK 1FCK 1FCK 1FCK 1FCK 1FCK 1FCK 1FCK 1FCK 1FCK 1FCK 1FCK 1FCK 1FCK 1FCK 1FCK 1FCK 1FCK 1FCK 1FCK 1FCK 1FCK 1FCK 1FCK 1FCK 1FCK 1FCK 1FCK 1FCK 1FCK 1FCK 1FCK 1FCK 1FCK 1FCK 1FCK 1FCK 1FCK 1FCK 1FCK 1FCK 1FCK 1FCK 1FCK 1FCK 1FCK 1FCK 1FCK 1FCK 1FCK 1FCK 1FCK 1FCK 1FCK 1FCK 1FCK 1FCK 1FCK 1FCK 1FCK 1FCK 1FCK 1FCK 1FCK 1FCK 1FCK 1FCK 1FCK 1FCK 1FCK 1FCK 1FCK 1FCK 1FCK 1FCK 1FCK 1FCK 1FCK 1FCK 1FCK 1FCK 1FCK 1FCK 1FCK 1FCK 1FCK 1FCK 1FCK 1FCK 1FCK 1FCK 1FCK 1FCK 1FCK 1FCK 1FCK 1FCK 1FCK 1FCK 1FCK 1FCK 1FCK 1FCK 1FCK 1FCK 1FCK 1FCK 1FCK 1FCK 1FCK 1FCK 1FCK 1FCK 1FCK 1FCK 1FCK 1FCK 1FCK 1FCK 1FCK 1FCK 1FCK 1FCK 1FCK 1FCK 1FCK 1FCK 1FCK 1FCK 1FCK 1FCK 1FCK 1FCK 1FCK 1FCK 1FCK 1FCK 1FCK 1FCK 1FCK 1FCK 1FCK 1FCK 1FCK 1FCK 1FCK 1FCK 1FCK 1FCK 1FCK 1FCK 1FCK 1FCK 1FCK 1FCK 1FCK 1FCK 1FCK 1FCK 1FCK 1FCK 1FCK 1FCK 1FCK 1FCK 1FCK 1FCK 1FCK 1FCK 1FCK 1FCK 1FCK 1FCK 1FCK 1FCK 1FCK 1FCK 1FCK 1FCK 1FCK 1FCK 1FCK 1FCK 1FCK 1FCK 1FCK 1FCK 1FCK 1FCK 1FCK 1FCK 1FCK 1FCK FCK FCK FCK FCK FCK .FCK .FCK .FCK .FCK .FCK .FCK .FCK .FCK .FCK .FCK .FCK .FCK .FCK .FCK .FCK .FCK .FCK .FCK .FCK .FCK .FCK .FCK .FCK .FCK .FCK .FCK .FCK .FCK .FCK .FCK .FCK .FCK .FCK .FCK .FCK .FCK .FCK .FCK .FCK .FCK .FCK .FCK .FCK .FCK .FCK .FCK .FCK .FCK .FCK .FCK .FCK .FCK .FCK .FCK .FCK .FCK .FCK .FCK .FCK .FCK .FCK .FCK .FCK .FCK .FCK .FCK .FCK .FCK .FCK .FCK .FCK .FCK .FCK .FCK .FCK .FCK .FCK .FCK .FCK .FCK .FCK .FCK .FCK .FCK .FCK .FCK .FCK .FCK .FCK .FCK .FCK .FCK .FCK .FCK .FCK .FCK .FCK .FCK .FCK .FCK .FCK .FCK .FCK .FCK .FCK .FCK .FCK .FCK .FCK .FCK .FCK .FCK .FCK .FCK .FCK .FCK .FCK .FCK .FCK .FCK .FCK .FCK .FCK .FCK .FCK .FCK .FCK .FCK .FCK .FCK .FCK .FCK .FCK .FCK .FCK .FCK .FCK .FCK .FCK .FCK .FCK .FCK .FCK .FCK .FCK .FCK .FCK .FCK .FCK .FCK .FCK .FCK .FCK .FCK .FCK .FCK .FCK .FCK .FCK .FCK .FCK .FCK .FCK .FCK .FCK .FCK .FCK .FCK .FCK .FCK .FCK .FCK .FCK .FCK .FCK .FCK .FCK .FCK .FCK .FCK .FCK .FCK .FCK .FCK .FCK .FCK .FCK .FCK .FCK .FCK .FCK .FCK .FCK .FCK .FCK .FCK .FCK .FCK .FCK .FCK .FCK .FCK .FCK .FCK .FCK .FCK .FCK .FCK .FCK .FCK .FCK .FCK .FCK .FCK .FCK .FCK .FCK .FCK .FCK .FCK .FCK .FCK .FCK .FCK .FCK .FCK .FCK .FCK .FCK .FCK .FCK .FCK .FCK .FCK .FCK .FCK .FCK .FCK .FCK .FCK .FCK .FCK .FCK .FCK .FCK .FCK .FCK .FCK .FCK .FCK .FCK .FCK .FCK .FCK .FCK .FCK .FCK .FCK .FCK .FCK .FCK .FCK .FCK .FCK .FCK .FCK .FCK .FCK .FCK .FCK .FCK .FCK .FCK .FCK .FCK .FCK .FCK .FCK .FCK .FCK .FCK .FCK .FCK .FCK .FCK .FCK .FCK .FCK .FCK .FCK .FCK .FCK .FCK .FCK .FCK .FCK .FCK .FCK .FCK .FCK .FCK .FCK .FCK .FCK .FCK .FCK .FCK .FCK .FCK .FCK .FCK .FCK .FCK .FCK .FCK .FCK .FCK .FCK .FCK .FCK .FCK .FCK .FCK .FCK .FCK .FCK .FCK .FCK .FCK .FCK .FCK .FCK .FCK .FCK .FCK .FCK .FCK .FCK .FCK .FCK .FCK .FCK .FCK .FCK .FCK .FCK .FCK .FCK .FCK .FCK .FCK .FCK .FCK .FCK .FCK .FCK .FCK .FCK .FCK .FCK .FCK .FCK .FCK .FCK .FCK .FCK .FCK .FCK .FCK .FCK .FCK .FCK .FCK .FCK .FCK .FCK .FCK .FCK .FCK .FCK .FCK .FCK .FCK .FCK .FCK .FCK .FCK .FCK .FCK .FCK .FCK .FCK .FCK .FCK .FCK .FCK .FCK .FCK .FCK .FCK .FCK .FCK .FCK .FCK .FCK .FCK FCK FCK FCK FCK FCK FCK .FCK .FCK .FCK .FCK .FCK .FCK .FCK .FCK .FCK .FCK .FCK .FCK .FCK .FCK .FCK .FCK .FCK .FCK .FCK .FCK .FCK .FCK .FCK .FCK .FCK .FCK .FCK .FCK .FCK .FCK .FCK .FCK .FCK .FCK .FCK .FCK .FCK .FCK .FCK .FCK .FCK .FCK .FCK .FCK .FCK .FCK .FCK .FCK .FCK .FCK .FCK .FCK .FCK .FCK .FCK .FCK .FCK .FCK .FCK .FCK .FCK .FCK .FCK .FCK .FCK .FCK .FCK .FCK .FCK .FCK .FCK .FCK .FCK .FCK .FCK .FCK .FCK .FCK .FCK .FCK .FCK .FCK .FCK .FCK .FCK .FCK .FCK .FCK .FCK .FCK .FCK .FCK .FCK .FCK .FCK .FCK .FCK .FCK .FCK .FCK .FCK .FCK .FCK .FCK .FCK .FCK .FCK .FCK .FCK .FCK .FCK .FCK .FCK .FCK .FCK .FCK .FCK .FCK .FCK .FCK .FCK .FCK .FCK .FCK .FCK .FCK .FCK .FCK .FCK .FCK .FCK .FCK .FCK .FCK .FCK .FCK .FCK .FCK .FCK .FCK .FCK .FCK .FCK .FCK .FCK .FCK .FCK .FCK .FCK .FCK .FCK .FCK .FCK .FCK .FCK .FCK .FCK .FCK .FCK .FCK .FCK .FCK .FCK .FCK .FCK .FCK .FCK .FCK .FCK .FCK .FCK .FCK .FCK .FCK .FCK .FCK .FCK .FCK .FCK .FCK .FCK .FCK .FCK .FCK .FCK .FCK .FCK .FCK .FCK .FCK .FCK .FCK .FCK .FCK .FCK .FCK .FCK .FCK .FCK .FCK FCK FCK FCK FCK FCK ,FCK ,FCK ,FCK ,FCK ,FCK ,FCK ,FCK ,FCK ,FCK ,FCK ,FCK ,FCK ,FCK ,FCK ,FCK ,FCK ,FCK ,FCK ,FCK ,FCK ,FCK ,FCK ,FCK ,FCK ,FCK ,FCK ,FCK ,FCK ,FCK ,FCK ,FCK ,FCK ,FCK ,FCK ,FCK ,FCK ,FCK ,FCK ,FCK ,FCK ,FCK ,FCK ,FCK ,FCK ,FCK ,FCK ,FCK ,FCK ,FCK ,FCK ,FCK ,FCK ,FCK ,FCK ,FCK ,FCK ,FCK ,FCK ,FCK ,FCK ,FCK ,FCK ,FCK ,FCK ,FCK ,FCK ,FCK ,FCK ,FCK ,FCK ,FCK ,FCK ,FCK ,FCK ,FCK ,FCK ,FCK ,FCK ,FCK ,FCK ,FCK ,FCK ,FCK ,FCK ,FCK ,FCK ,FCK ,FCK ,FCK ,FCK ,FCK ,FCK ,FCK ,FCK ,FCK ,FCK ,FCK ,FCK ,FCK ,FCK ,FCK ,FCK ,FCK ,FCK ,FCK ,FCK ,FCK ,FCK ,FCK ,FCK ,FCK ,FCK ,FCK ,FCK ,FCK ,FCK ,FCK ,FCK ,FCK ,FCK ,FCK ,FCK ,FCK ,FCK ,FCK ,FCK ,FCK ,FCK ,FCK ,FCK ,FCK ,FCK ,FCK ,FCK ,FCK ,FCK ,FCK ,FCK ,FCK ,FCK ,FCK ,FCK ,FCK ,FCK ,FCK ,FCK ,FCK ,FCK ,FCK ,FCK ,FCK ,FCK ,FCK ,FCK ,FCK ,FCK ,FCK ,FCK ,FCK ,FCK ,FCK ,FCK ,FCK ,FCK ,FCK ,FCK ,FCK ,FCK ,FCK ,FCK ,FCK ,FCK ,FCK ,FCK ,FCK ,FCK ,FCK ,FCK ,FCK ,FCK ,FCK ,FCK ,FCK ,FCK ,FCK ,FCK ,FCK ,FCK ,FCK ,FCK ,FCK ,FCK ,FCK ,FCK ,FCK ,FCK ,FCK ,FCK ,FCK ,FCK FCK FCK FCK FCK FCK FCK +FCK +FCK +FCK +FCK +FCK +FCK +FCK +FCK +FCK +FCK +FCK +FCK +FCK +FCK +FCK +FCK +FCK +FCK +FCK +FCK +FCK +FCK +FCK +FCK +FCK +FCK +FCK +FCK +FCK +FCK +FCK +FCK +FCK +FCK +FCK +FCK +FCK +FCK +FCK +FCK +FCK +FCK +FCK +FCK +FCK +FCK +FCK +FCK +FCK +FCK +FCK +FCK +FCK +FCK +FCK +FCK +FCK +FCK +FCK +FCK +FCK +FCK +FCK +FCK +FCK +FCK +FCK +FCK +FCK +FCK +FCK +FCK +FCK +FCK +FCK +FCK +FCK +FCK +FCK +FCK +FCK +FCK +FCK +FCK +FCK +FCK +FCK +FCK +FCK +FCK +FCK +FCK +FCK +FCK +FCK +FCK +FCK +FCK +FCK +FCK +FCK +FCK +FCK +FCK +FCK +FCK +FCK +FCK +FCK +FCK +FCK +FCK +FCK +FCK +FCK +FCK +FCK +FCK +FCK +FCK +FCK +FCK +FCK +FCK +FCK +FCK +FCK +FCK +FCK +FCK +FCK +FCK +FCK +FCK +FCK +FCK +FCK +FCK +FCK +FCK +FCK +FCK +FCK +FCK +FCK +FCK +FCK +FCK +FCK +FCK +FCK +FCK +FCK +FCK +FCK +FCK +FCK +FCK +FCK +FCK +FCK +FCK +FCK +FCK +FCK +FCK +FCK +FCK +FCK +FCK +FCK +FCK +FCK +FCK +FCK +FCK +FCK +FCK +FCK +FCK +FCK +FCK +FCK +FCK +FCK +FCK +FCK +FCK +FCK +FCK +FCK +FCK +FCK +FCK +FCK +FCK +FCK +FCK +FCK +FCK +FCK +FCK +FCK +FCK +FCK +FCK +FCK +FCK +FCK +FCK +FCK +FCK +FCK +FCK +FCK +FCK +FCK +FCK +FCK +FCK +FCK +FCK +FCK +FCK +FCK +FCK +FCK +FCK +FCK +FCK +FCK +FCK +FCK +FCK +FCK +FCK +FCK +FCK +FCK +FCK +FCK +FCK +FCK +FCK +FCK +FCK +FCK +FCK +FCK +FCK +FCK +FCK +FCK +FCK +FCK +FCK +FCK +FCK +FCK +FCK +FCK +FCK +FCK +FCK +FCK +FCK +FCK +FCK +FCK +FCK +FCK +FCK +FCK +FCK +FCK +FCK +FCK +FCK +FCK +FCK +FCK +FCK +FCK +FCK +FCK +FCK +FCK +FCK +FCK +FCK +FCK +FCK +FCK +FCK +FCK +FCK +FCK +FCK +FCK +FCK +FCK +FCK +FCK +FCK +FCK +FCK +FCK +FCK +FCK +FCK +FCK +FCK +FCK +FCK +FCK +FCK +FCK +FCK +FCK +FCK +FCK +FCK +FCK +FCK +FCK +FCK +FCK +FCK +FCK +FCK +FCK +FCK +FCK +FCK +FCK +FCK +FCK +FCK +FCK +FCK +FCK +FCK +FCK +FCK +FCK +FCK +FCK +FCK +FCK +FCK +FCK +FCK +FCK +FCK +FCK +FCK +FCK +FCK +FCK +FCK +FCK +FCK +FCK +FCK +FCK +FCK +FCK +FCK +FCK +FCK +FCK +FCK +FCK +FCK +FCK +FCK +FCK +FCK +FCK +FCK +FCK +FCK +FCK +FCK +FCK +FCK +FCK +FCK +FCK +FCK +FCK +FCK +FCK +FCK +FCK +FCK +FCK +FCK +FCK +FCK +FCK +FCK +FCK +FCK +FCK +FCK FCK K K K K ,GAK ,GAK ,GAK ,GAK ,GAK ,GAK ,GAK ,GAK ,GAK ,GAK ,GAK ,GAK ,GAK ,GAK ,GAK ,GAK ,GAK ,GAK ,GAK ,GAK ,GAK ,GAK ,GAK ,GAK ,GAK ,GAK ,GAK ,GAK ,GAK ,GAK ,GAK ,GAK ,GAK ,GAK ,GAK ,GAK ,GAK ,GAK ,GAK ,GAK ,GAK ,GAK ,GAK ,GAK ,GAK ,GAK ,GAK ,GAK ,GAK ,GAK ,GAK ,GAK ,GAK ,GAK ,GAK ,GAK ,GAK ,GAK ,GAK ,GAK ,GAK ,GAK ,GAK ,GAK ,GAK ,GAK ,GAK ,GAK ,GAK ,GAK ,GAK ,GAK ,GAK ,GAK ,GAK ,GAK ,GAK ,GAK ,GAK ,GAK ,GAK ,GAK ,GAK ,GAK ,GAK ,GAK ,GAK ,GAK ,GAK ,GAK ,GAK ,GAK ,GAK ,GAK ,GAK ,GAK ,GAK ,GAK ,GAK ,GAK ,GAK ,GAK ,GAK ,GAK ,GAK ,GAK ,GAK ,GAK ,GAK ,GAK ,GAK ,GAK ,GAK ,GAK ,GAK ,GAK ,GAK ,GAK ,GAK ,GAK ,GAK ,GAK ,GAK ,GAK ,GAK ,GAK ,GAK ,GAK ,GAK ,GAK ,GAK ,GAK ,GAK ,GAK ,GAK ,GAK ,GAK ,GAK ,GAK ,GAK ,GAK ,GAK ,GAK ,GAK ,GAK ,GAK ,GAK ,GAK ,GAK ,GAK ,GAK ,GAK ,GAK ,GAK ,GAK ,GAK ,GAK ,GAK ,GAK ,GAK ,GAK ,GAK ,GAK ,GAK ,GAK ,GAK ,GAK ,GAK ,GAK ,GAK ,GAK ,GAK ,GAK ,GAK ,GAK ,GAK ,GAK ,GAK ,GAK ,GAK ,GAK ,GAK ,GAK ,GAK ,GAK ,GAK ,GAK ,GAK ,GAK ,GAK ,GAK ,GAK ,GAK ,GAK ,GAK ,GAK ,GAK ,GAK ,GAK ,GAK ,GAK ,GAK ,GAK ,GAK ,GAK ,GAK ,GAK ,GAK ,GAK ,GAK ,GAK ,GAK ,GAK ,GAK ,GAK ,GAK ,GAK ,GAK ,GAK ,GAK ,GAK ,GAK ,GAK ,GAK ,GAK ,GAK ,GAK ,GAK ,GAK ,GAK ,GAK ,GAK ,GAK ,GAK ,GAK ,GAK ,GAK ,GAK ,GAK ,GAK ,GAK ,GAK ,GAK ,GAK ,GAK ,GAK ,GAK ,GAK ,GAK ,GAK ,GAK ,GAK ,GAK ,GAK ,GAK ,GAK ,GAK ,GAK ,GAK ,GAK ,GAK ,GAK ,GAK ,GAK ,GAK ,GAK ,GAK ,GAK ,GAK ,GAK ,GAK ,GAK ,GAK ,GAK ,GAK ,GAK ,GAK ,GAK ,GAK ,GAK ,GAK ,GAK ,GAK ,GAK ,GAK ,GAK ,GAK ,GAK ,GAK ,GAK ,GAK ,GAK ,GAK ,GAK ,GAK ,GAK ,GAK ,GAK ,GAK ,GAK ,GAK ,GAK ,GAK ,GAK ,GAK ,GAK ,GAK ,GAK ,GAK ,GAK ,GAK ,GAK ,GAK ,GAK ,GAK ,GAK ,GAK ,GAK ,GAK ,GAK ,GAK ,GAK ,GAK ,GAK ,GAK ,GAK ,GAK ,GAK ,GAK ,GAK ,GAK ,GAK ,GAK ,GAK ,GAK ,GAK ,GAK ,GAK ,GAK ,GAK ,GAK ,GAK ,GAK ,GAK ,GAK ,GAK ,GAK ,GAK ,GAK ,GAK ,GAK ,GAK ,GAK ,GAK ,GAK ,GAK ,GAK ,GAK ,GAK ,GAK ,GAK ,GAK ,GAK ,GAK ,GAK ,GAK ,GAK ,GAK ,GAK ,GAK ,GAK ,GAK ,GAK ,GAK ,GAK ,GAK ,GAK ,GAK ,GAK ,GAK ,GAK ,GAK ,GAK ,GAK ,GAK ,GAK ,GAK ,GAK ,GAK ,GAK ,GAK ,GAK ,GAK ,GAK ,GAK ,GAK ,GAK ,GAK ,GAK ,GAK ,GAK ,GAK ,GAK ,GAK ,GAK ,GAK GAK GAK GAK GAK GAK GAK /GAK /GAK /GAK /GAK /GAK /GAK /GAK /GAK /GAK /GAK /GAK /GAK /GAK /GAK /GAK /GAK /GAK /GAK /GAK /GAK /GAK /GAK /GAK /GAK /GAK /GAK /GAK /GAK /GAK /GAK /GAK /GAK /GAK /GAK /GAK /GAK /GAK /GAK /GAK /GAK /GAK /GAK /GAK /GAK /GAK /GAK /GAK /GAK /GAK /GAK /GAK /GAK /GAK /GAK /GAK /GAK /GAK /GAK /GAK /GAK /GAK /GAK /GAK /GAK /GAK /GAK /GAK /GAK /GAK /GAK /GAK /GAK /GAK /GAK /GAK /GAK /GAK /GAK /GAK /GAK /GAK /GAK /GAK /GAK /GAK /GAK /GAK /GAK /GAK /GAK /GAK /GAK /GAK /GAK /GAK /GAK /GAK /GAK /GAK /GAK /GAK /GAK /GAK /GAK /GAK /GAK /GAK /GAK /GAK /GAK /GAK /GAK /GAK /GAK /GAK /GAK /GAK /GAK /GAK /GAK /GAK /GAK /GAK /GAK /GAK /GAK /GAK /GAK /GAK /GAK /GAK /GAK /GAK /GAK /GAK /GAK /GAK /GAK /GAK /GAK /GAK /GAK /GAK /GAK /GAK /GAK /GAK /GAK /GAK /GAK /GAK /GAK /GAK /GAK /GAK /GAK /GAK /GAK /GAK /GAK /GAK /GAK /GAK /GAK /GAK /GAK /GAK /GAK /GAK /GAK /GAK /GAK /GAK /GAK /GAK /GAK /GAK /GAK /GAK /GAK /GAK /GAK /GAK /GAK /GAK /GAK /GAK /GAK /GAK /GAK /GAK /GAK /GAK /GAK /GAK /GAK /GAK /GAK /GAK /GAK /GAK /GAK /GAK /GAK /GAK /GAK /GAK /GAK /GAK /GAK /GAK /GAK /GAK /GAK /GAK /GAK /GAK /GAK /GAK /GAK /GAK /GAK /GAK /GAK /GAK /GAK /GAK /GAK /GAK /GAK /GAK /GAK /GAK /GAK /GAK /GAK /GAK /GAK /GAK /GAK /GAK /GAK /GAK /GAK /GAK /GAK /GAK /GAK /GAK /GAK /GAK /GAK /GAK /GAK /GAK /GAK /GAK /GAK /GAK /GAK /GAK /GAK /GAK /GAK /GAK /GAK /GAK /GAK /GAK /GAK /GAK /GAK /GAK /GAK /GAK /GAK /GAK /GAK /GAK /GAK /GAK /GAK /GAK /GAK /GAK /GAK /GAK /GAK /GAK /GAK /GAK /GAK /GAK /GAK /GAK /GAK /GAK /GAK /GAK /GAK /GAK /GAK /GAK /GAK /GAK /GAK /GAK /GAK /GAK /GAK /GAK /GAK /GAK /GAK /GAK /GAK /GAK /GAK /GAK /GAK /GAK /GAK /GAK /GAK /GAK /GAK /GAK /GAK /GAK /GAK /GAK /GAK /GAK /GAK /GAK /GAK /GAK /GAK /GAK /GAK /GAK /GAK /GAK /GAK /GAK /GAK /GAK /GAK /GAK /GAK /GAK /GAK /GAK /GAK /GAK /GAK /GAK /GAK /GAK /GAK /GAK /GAK /GAK /GAK /GAK /GAK /GAK /GAK /GAK /GAK /GAK /GAK /GAK /GAK /GAK /GAK /GAK /GAK /GAK /GAK /GAK /GAK /GAK /GAK /GAK /GAK /GAK /GAK /GAK /GAK /GAK /GAK /GAK /GAK /GAK /GAK /GAK /GAK /GAK /GAK /GAK /GAK /GAK /GAK /GAK /GAK K K K K K 2DKA 2DKA 2DKA 2DKA 2DKA 2DKA 2DKA 2DKA 2DKA 2DKA 2DKA 2DKA 2DKA 2DKA 2DKA 2DKA 2DKA 2DKA 2DKA 2DKA 2DKA 2DKA 2DKA 2DKA 2DKA 2DKA 2DKA 2DKA 2DKA 2DKA 2DKA 2DKA 2DKA 2DKA 2DKA 2DKA 2DKA 2DKA 2DKA 2DKA 2DKA 2DKA 2DKA 2DKA 2DKA 2DKA 2DKA 2DKA 2DKA 2DKA 2DKA 2DKA 2DKA 2DKA 2DKA 2DKA 2DKA 2DKA 2DKA 2DKA 2DKA 2DKA 2DKA 2DKA 2DKA 2DKA 2DKA 2DKA 2DKA 2DKA 2DKA 2DKA 2DKA 2DKA 2DKA 2DKA 2DKA 2DKA 2DKA 2DKA 2DKA 2DKA 2DKA 2DKA 2DKA 2DKA 2DKA 2DKA 2DKA 2DKA 2DKA 2DKA 2DKA 2DKA 2DKA 2DKA 2DKA 2DKA 2DKA 2DKA 2DKA 2DKA 2DKA 2DKA 2DKA 2DKA 2DKA 2DKA 2DKA 2DKA 2DKA 2DKA 2DKA 2DKA 2DKA 2DKA 2DKA 2DKA 2DKA 2DKA 2DKA 2DKA 2DKA 2DKA 2DKA 2DKA 2DKA 2DKA 2DKA 2DKA 2DKA 2DKA 2DKA 2DKA 2DKA 2DKA 2DKA 2DKA 2DKA 2DKA 2DKA 2DKA 2DKA 2DKA 2DKA 2DKA 2DKA 2DKA 2DKA 2DKA 2DKA 2DKA 2DKA 2DKA 2DKA 2DKA 2DKA 2DKA 2DKA 2DKA 2DKA 2DKA 2DKA 2DKA 2DKA 2DKA 2DKA 2DKA 2DKA 2DKA 2DKA 2DKA 2DKA 2DKA 2DKA 2DKA 2DKA 2DKA 2DKA 2DKA 2DKA 2DKA 2DKA 2DKA 2DKA 2DKA 2DKA 2DKA 2DKA 2DKA 2DKA 2DKA 2DKA 2DKA 2DKA 2DKA 2DKA 2DKA 2DKA 2DKA 2DKA 2DKA 2DKA 2DKA 2DKA 2DKA 2DKA 2DKA 2DKA 2DKA 2DKA 2DKA 2DKA 2DKA 2DKA 2DKA 2DKA 2DKA 2DKA 2DKA 2DKA 2DKA 2DKA 2DKA 2DKA 2DKA 2DKA 2DKA 2DKA 2DKA 2DKA 2DKA 2DKA 2DKA 2DKA 2DKA 2DKA 2DKA 2DKA 2DKA 2DKA 2DKA 2DKA 2DKA 2DKA 2DKA 2DKA 2DKA 2DKA 2DKA 2DKA 2DKA 2DKA 2DKA 2DKA 2DKA 2DKA 2DKA 2DKA 2DKA 2DKA 2DKA 2DKA 2DKA 2DKA 2DKA 2DKA 2DKA 2DKA 2DKA 2DKA 2DKA 2DKA 2DKA 2DKA 2DKA 2DKA 2DKA 2DKA 2DKA 2DKA 2DKA 2DKA 2DKA 2DKA 2DKA 2DKA 2DKA 2DKA 2DKA 2DKA 2DKA 2DKA 2DKA 2DKA 2DKA 2DKA 2DKA 2DKA 2DKA 2DKA 2DKA 2DKA 2DKA 2DKA 2DKA 2DKA 2DKA 2DKA 2DKA 2DKA 2DKA 2DKA 2DKA 2DKA 2DKA 2DKA 2DKA 2DKA 2DKA 2DKA 2DKA 2DKA 2DKA 2DKA 2DKA 2DKA 2DKA 2DKA 2DKA 2DKA 2DKA 2DKA 2DKA 2DKA 2DKA 2DKA 2DKA 2DKA 2DKA 2DKA 2DKA 2DKA 2DKA 2DKA 2DKA 2DKA 2DKA 2DKA 2DKA 2DKA 2DKA 2DKA 2DKA 2DKA 2DKA 2DKA 2DKA 2DKA 2DKA 2DKA 2DKA 2DKA 2DKA 2DKA 2DKA 2DKA 2DKA 2DKA 2DKA 2DKA 2DKA 2DKA 2DKA 2DKA 2DKA 2DKA 2DKA 2DKA 2DKA 2DKA 2DKA 2DKA 2DKA 2DKA 2DKA 2DKA 2DKA 2DKA 2DKA 2DKA 2DKA 2DKA 2DKA 2DKA 2DKA 2DKA 2DKA 2DKA 2DKA 2DKA 2DKA 2DKA 2DKA 2DKA 2DKA DKA DKA DKA DKA DKA DKA /DKA /DKA /DKA /DKA /DKA /DKA /DKA /DKA /DKA /DKA /DKA /DKA /DKA /DKA /DKA /DKA /DKA /DKA /DKA /DKA /DKA /DKA /DKA /DKA /DKA /DKA /DKA /DKA /DKA /DKA /DKA /DKA /DKA /DKA /DKA /DKA /DKA /DKA /DKA /DKA /DKA /DKA /DKA /DKA /DKA /DKA /DKA /DKA /DKA /DKA /DKA /DKA /DKA /DKA /DKA /DKA /DKA /DKA /DKA /DKA /DKA /DKA /DKA /DKA /DKA /DKA /DKA /DKA /DKA /DKA /DKA /DKA /DKA /DKA /DKA /DKA /DKA /DKA /DKA /DKA /DKA /DKA /DKA /DKA /DKA /DKA /DKA /DKA /DKA /DKA /DKA /DKA /DKA /DKA /DKA /DKA /DKA /DKA /DKA /DKA /DKA /DKA /DKA /DKA /DKA /DKA /DKA /DKA /DKA /DKA /DKA /DKA /DKA /DKA /DKA /DKA /DKA /DKA /DKA /DKA /DKA /DKA /DKA /DKA /DKA /DKA /DKA /DKA /DKA /DKA /DKA /DKA /DKA /DKA /DKA /DKA /DKA /DKA /DKA /DKA /DKA /DKA /DKA /DKA /DKA /DKA /DKA /DKA /DKA /DKA /DKA /DKA /DKA /DKA /DKA /DKA /DKA /DKA /DKA /DKA /DKA /DKA /DKA /DKA /DKA /DKA /DKA /DKA /DKA /DKA /DKA /DKA /DKA /DKA /DKA /DKA /DKA /DKA /DKA /DKA /DKA /DKA /DKA /DKA /DKA /DKA /DKA /DKA /DKA /DKA /DKA /DKA /DKA /DKA /DKA /DKA /DKA /DKA /DKA /DKA /DKA /DKA /DKA /DKA /DKA /DKA /DKA /DKA /DKA /DKA /DKA /DKA /DKA /DKA /DKA /DKA /DKA /DKA /DKA /DKA /DKA /DKA /DKA /DKA /DKA /DKA /DKA /DKA /DKA /DKA /DKA /DKA /DKA /DKA /DKA /DKA /DKA /DKA /DKA /DKA /DKA /DKA /DKA /DKA /DKA /DKA /DKA /DKA /DKA /DKA /DKA /DKA /DKA /DKA /DKA /DKA /DKA /DKA /DKA /DKA /DKA /DKA /DKA /DKA /DKA /DKA /DKA /DKA /DKA /DKA /DKA /DKA /DKA /DKA /DKA /DKA /DKA /DKA /DKA /DKA /DKA /DKA /DKA /DKA /DKA /DKA /DKA /DKA /DKA /DKA /DKA /DKA /DKA /DKA /DKA /DKA /DKA /DKA /DKA /DKA /DKA /DKA /DKA /DKA /DKA /DKA /DKA /DKA /DKA /DKA /DKA /DKA /DKA /DKA /DKA /DKA /DKA /DKA /DKA /DKA /DKA /DKA /DKA /DKA /DKA /DKA /DKA /DKA /DKA /DKA /DKA /DKA /DKA /DKA /DKA /DKA /DKA /DKA /DKA /DKA /DKA /DKA /DKA /DKA /DKA /DKA /DKA /DKA /DKA /DKA /DKA /DKA /DKA /DKA /DKA /DKA /DKA /DKA /DKA /DKA /DKA /DKA /DKA /DKA /DKA /DKA /DKA /DKA /DKA /DKA /DKA /DKA /DKA /DKA /DKA /DKA /DKA /DKA /DKA /DKA /DKA /DKA /DKA /DKA /DKA /DKA /DKA /DKA /DKA /DKA /DKA /DKA /DKA /DKA /DKA /DKA /DKA /DKA /DKA /DKA /DKA /DKA /DKA /DKA /DKA /DKA KA KA KA KA KA /GKA /GKA /GKA /GKA /GKA /GKA /GKA /GKA /GKA /GKA /GKA /GKA /GKA /GKA /GKA /GKA /GKA /GKA /GKA /GKA /GKA /GKA /GKA /GKA /GKA /GKA /GKA /GKA /GKA /GKA /GKA /GKA /GKA /GKA /GKA /GKA /GKA /GKA /GKA /GKA /GKA /GKA /GKA /GKA /GKA /GKA /GKA /GKA /GKA /GKA /GKA /GKA /GKA /GKA /GKA /GKA /GKA /GKA /GKA /GKA /GKA /GKA /GKA /GKA /GKA /GKA /GKA /GKA /GKA /GKA /GKA /GKA /GKA /GKA /GKA /GKA /GKA /GKA /GKA /GKA /GKA /GKA /GKA /GKA /GKA /GKA /GKA /GKA /GKA /GKA /GKA /GKA /GKA /GKA /GKA /GKA /GKA /GKA /GKA /GKA /GKA /GKA /GKA /GKA /GKA /GKA /GKA /GKA /GKA /GKA /GKA /GKA /GKA /GKA /GKA /GKA /GKA /GKA /GKA /GKA /GKA /GKA /GKA /GKA /GKA /GKA /GKA /GKA /GKA /GKA /GKA /GKA /GKA /GKA /GKA /GKA /GKA /GKA /GKA /GKA /GKA /GKA /GKA /GKA /GKA /GKA /GKA /GKA /GKA /GKA /GKA /GKA /GKA /GKA /GKA /GKA /GKA /GKA /GKA /GKA /GKA /GKA /GKA /GKA /GKA /GKA /GKA /GKA /GKA /GKA /GKA /GKA /GKA /GKA /GKA /GKA /GKA /GKA /GKA /GKA /GKA /GKA /GKA /GKA /GKA /GKA /GKA /GKA /GKA /GKA /GKA /GKA /GKA /GKA /GKA /GKA /GKA /GKA /GKA /GKA GKA GKA GKA GKA GKA GKA .GKA .GKA .GKA .GKA .GKA .GKA .GKA .GKA .GKA .GKA .GKA .GKA .GKA .GKA .GKA .GKA .GKA .GKA .GKA .GKA .GKA .GKA .GKA .GKA .GKA .GKA .GKA .GKA .GKA .GKA .GKA .GKA .GKA .GKA .GKA .GKA .GKA .GKA .GKA .GKA .GKA .GKA .GKA .GKA .GKA .GKA .GKA .GKA .GKA .GKA .GKA .GKA .GKA .GKA .GKA .GKA .GKA .GKA .GKA .GKA .GKA .GKA .GKA .GKA .GKA .GKA .GKA .GKA .GKA .GKA .GKA .GKA .GKA .GKA .GKA .GKA .GKA .GKA .GKA .GKA .GKA .GKA .GKA .GKA .GKA .GKA .GKA .GKA .GKA .GKA .GKA .GKA .GKA .GKA .GKA .GKA .GKA .GKA .GKA .GKA .GKA .GKA .GKA .GKA .GKA .GKA .GKA .GKA .GKA .GKA .GKA .GKA .GKA .GKA .GKA .GKA .GKA .GKA .GKA .GKA .GKA .GKA .GKA .GKA .GKA .GKA .GKA .GKA .GKA .GKA .GKA .GKA .GKA .GKA .GKA .GKA .GKA .GKA .GKA .GKA .GKA .GKA .GKA .GKA .GKA .GKA .GKA .GKA .GKA .GKA .GKA .GKA .GKA .GKA .GKA .GKA .GKA .GKA .GKA .GKA .GKA .GKA .GKA .GKA .GKA .GKA .GKA .GKA .GKA .GKA .GKA .GKA .GKA .GKA .GKA .GKA .GKA .GKA .GKA .GKA .GKA .GKA .GKA .GKA .GKA .GKA .GKA .GKA .GKA .GKA .GKA .GKA .GKA .GKA .GKA .GKA .GKA .GKA .GKA .GKA GKA GKA GKA GKA GKA GKA ,GKA ,GKA ,GKA ,GKA ,GKA ,GKA ,GKA ,GKA ,GKA ,GKA ,GKA ,GKA ,GKA ,GKA ,GKA ,GKA ,GKA ,GKA ,GKA ,GKA ,GKA ,GKA ,GKA ,GKA ,GKA ,GKA ,GKA ,GKA ,GKA ,GKA ,GKA ,GKA ,GKA ,GKA ,GKA ,GKA ,GKA ,GKA ,GKA ,GKA ,GKA ,GKA ,GKA ,GKA ,GKA ,GKA ,GKA ,GKA ,GKA ,GKA ,GKA ,GKA ,GKA ,GKA ,GKA ,GKA ,GKA ,GKA ,GKA ,GKA ,GKA ,GKA ,GKA ,GKA ,GKA ,GKA ,GKA ,GKA ,GKA ,GKA ,GKA ,GKA ,GKA ,GKA ,GKA ,GKA ,GKA ,GKA ,GKA ,GKA ,GKA ,GKA ,GKA ,GKA ,GKA ,GKA ,GKA ,GKA ,GKA ,GKA ,GKA ,GKA ,GKA ,GKA ,GKA ,GKA ,GKA ,GKA ,GKA ,GKA ,GKA ,GKA ,GKA ,GKA ,GKA ,GKA ,GKA ,GKA ,GKA ,GKA ,GKA ,GKA ,GKA ,GKA ,GKA ,GKA ,GKA ,GKA ,GKA ,GKA ,GKA ,GKA ,GKA ,GKA ,GKA ,GKA ,GKA ,GKA ,GKA ,GKA ,GKA ,GKA ,GKA ,GKA ,GKA ,GKA ,GKA ,GKA ,GKA ,GKA ,GKA ,GKA ,GKA ,GKA ,GKA ,GKA ,GKA ,GKA ,GKA ,GKA ,GKA ,GKA ,GKA ,GKA ,GKA ,GKA ,GKA ,GKA ,GKA ,GKA ,GKA ,GKA ,GKA ,GKA ,GKA ,GKA ,GKA ,GKA ,GKA ,GKA ,GKA ,GKA ,GKA ,GKA ,GKA ,GKA ,GKA ,GKA ,GKA ,GKA ,GKA ,GKA ,GKA ,GKA ,GKA ,GKA ,GKA ,GKA ,GKA ,GKA ,GKA ,GKA ,GKA ,GKA ,GKA ,GKA ,GKA ,GKA ,GKA ,GKA ,GKA ,GKA ,GKA ,GKA ,GKA ,GKA ,GKA ,GKA ,GKA ,GKA ,GKA ,GKA ,GKA ,GKA ,GKA ,GKA ,GKA ,GKA ,GKA ,GKA ,GKA ,GKA ,GKA ,GKA ,GKA ,GKA ,GKA ,GKA ,GKA ,GKA ,GKA ,GKA ,GKA ,GKA ,GKA ,GKA ,GKA ,GKA ,GKA ,GKA ,GKA ,GKA ,GKA ,GKA ,GKA ,GKA ,GKA ,GKA ,GKA ,GKA ,GKA ,GKA ,GKA ,GKA ,GKA ,GKA ,GKA ,GKA ,GKA ,GKA ,GKA ,GKA ,GKA ,GKA ,GKA ,GKA ,GKA ,GKA ,GKA ,GKA ,GKA ,GKA ,GKA ,GKA ,GKA ,GKA ,GKA ,GKA ,GKA ,GKA ,GKA ,GKA ,GKA ,GKA ,GKA ,GKA ,GKA ,GKA ,GKA ,GKA ,GKA ,GKA ,GKA ,GKA ,GKA ,GKA ,GKA ,GKA ,GKA ,GKA ,GKA ,GKA ,GKA ,GKA ,GKA ,GKA ,GKA ,GKA ,GKA ,GKA ,GKA ,GKA ,GKA ,GKA ,GKA ,GKA ,GKA ,GKA ,GKA ,GKA ,GKA ,GKA ,GKA ,GKA ,GKA ,GKA ,GKA ,GKA ,GKA ,GKA ,GKA ,GKA ,GKA ,GKA ,GKA ,GKA ,GKA ,GKA ,GKA ,GKA ,GKA ,GKA ,GKA ,GKA ,GKA ,GKA ,GKA ,GKA ,GKA ,GKA ,GKA ,GKA ,GKA ,GKA ,GKA ,GKA ,GKA ,GKA ,GKA ,GKA ,GKA ,GKA ,GKA ,GKA ,GKA ,GKA ,GKA ,GKA ,GKA ,GKA ,GKA ,GKA ,GKA ,GKA ,GKA ,GKA ,GKA ,GKA ,GKA ,GKA ,GKA ,GKA ,GKA ,GKA ,GKA ,GKA ,GKA ,GKA ,GKA ,GKA ,GKA ,GKA ,GKA ,GKA ,GKA ,GKA ,GKA ,GKA ,GKA ,GKA ,GKA ,GKA ,GKA ,GKA ,GKA ,GKA KA KA KA KA KA GK3A GK3A GK3A GK3A GK3A GK3A GK3A GK3A GK3A GK3A GK3A GK3A GK3A GK3A GK3A GK3A GK3A GK3A GK3A GK3A GK3A GK3A GK3A GK3A GK3A GK3A GK3A GK3A GK3A GK3A GK3A GK3A GK3A GK3A GK3A GK3A GK3A GK3A GK3A GK3A GK3A GK3A GK3A GK3A GK3A GK3A GK3A GK3A GK3A GK3A GK3A GK3A GK3A GK3A GK3A GK3A GK3A GK3A GK3A GK3A GK3A GK3A GK3A GK3A GK3A GK3A GK3A GK3A GK3A GK3A GK3A GK3A GK3A GK3A GK3A GK3A GK3A GK3A GK3A GK3A GK3A GK3A GK3A GK3A GK3A GK3A GK3A GK3A GK3A GK3A GK3A GK3A GK3A GK3A GK3A GK3A GK3A GK3A GK3A GK3A GK3A GK3A GK3A GK3A GK3A GK3A GK3A GK3A GK3A GK3A GK3A GK3A GK3A GK3A GK3A GK3A GK3A GK3A GK3A GK3A GK3A GK3A GK3A GK3A GK3A GK3A GK3A GK3A GK3A GK3A GK3A GK3A GK3A GK3A GK3A GK3A GK3A GK3A GK3A GK3A GK3A GK3A GK3A GK3A GK3A GK3A GK3A GK3A GK3A GK3A GK3A GK3A GK3A GK3A GK3A GK3A GK3A GK3A GK3A GK3A GK3A GK3A GK3A GK3A GK3A GK3A GK3A GK3A GK3A GK3A GK3A GK3A GK3A GK3A GK3A GK3A GK3A GK3A GK3A GK3A GK3A GK3A GK3A GK3A GK3A GK3A GK3A GK3A GK3A GK3A GK3A GK3A GK3A GK3A GK3A GK3A GK3A GK3A GK3A GK3A GK3A GK3A GK3A GK3A GK3A GK3A GK3A GK3A GK3A GK3A GK3A GK3A GK3A GK3A GK3A GK3A GK3A GK3A GK3A GK3A GK3A GK3A GK3A GK3A GK3A GK3A GK3A GK3A GK3A GK3A GK3A GK3A GK3A GK3A GK3A GK3A GK3A GK3A GK3A GK3A GK3A GK3A GK3A GK3A GK3A GK3A GK3A GK3A GK3A GK3A GK3A GK3A GK3A GK3A GK3A GK3A GK3A GK3A GK3A GK3A GK3A GK3A GK3A GK3A GK3A GK3A GK3A GK3A GK3A GK3A GK3A GK3A GK3A GK3A GK3A GK3A GK3A GK3A GK3A GK3A GK3A GK3A GK3A GK3A GK3A GK3A GK3A GK3A GK3A GK3A GK3A GK3A GK3A GK3A GK3A GK3A GK3A GK3A GK3A GK3A GK3A GK3A GK3A GK3A GK3A GK3A GK3A GK3A GK3A GK3A GK3A GK3A GK3A GK3A GK3A GK3A GK3A GK3A GK3A GK3A GK3A GK3A GK3A GK3A GK3A GK3A GK3A GK3A GK3A GK3A GK3A GK3A GK3A GK3A GK3A GK3A GK3A GK3A GK3A GK3A GK3A GK3A GK3A GK3A GK3A GK3A GK3A GK3A GK3A GK3A GK3A GK3A GK3A GK3A GK3A GK3A GK3A GK3A GK3A GK3A GK3A GK3A GK3A GK3A GK3A GK3A GK3A GK3A GK3A GK3A GK3A GK3A GK3A GK3A GK3A GK3A GK3A GK3A GK3A GK3A GK3A GK3A GK3A GK3A GK3A GK3A GK3A GK3A GK3A GK3A GK3A GK3A GK3A GK3A GK3A GK3A GK3A GK3A GK3A GK3A GK3A GK3A GK3A GK3A GK3A GK3A K3A K3A K3A K3A K3A K3A KD3A KD3A KD3A KD3A KD3A KD3A KD3A KD3A KD3A KD3A KD3A KD3A KD3A KD3A KD3A KD3A KD3A KD3A KD3A KD3A KD3A KD3A KD3A KD3A KD3A KD3A KD3A KD3A KD3A KD3A KD3A KD3A KD3A KD3A KD3A KD3A KD3A KD3A KD3A KD3A KD3A KD3A KD3A KD3A KD3A KD3A KD3A KD3A KD3A KD3A KD3A KD3A KD3A KD3A KD3A KD3A KD3A KD3A KD3A KD3A KD3A KD3A KD3A KD3A KD3A KD3A KD3A KD3A KD3A KD3A KD3A KD3A KD3A KD3A KD3A KD3A KD3A KD3A KD3A KD3A KD3A KD3A KD3A KD3A KD3A KD3A KD3A KD3A KD3A KD3A KD3A KD3A KD3A KD3A KD3A KD3A KD3A KD3A KD3A KD3A KD3A KD3A KD3A KD3A KD3A KD3A KD3A KD3A KD3A KD3A KD3A KD3A KD3A KD3A KD3A KD3A KD3A KD3A KD3A KD3A KD3A KD3A KD3A KD3A KD3A KD3A KD3A KD3A KD3A KD3A KD3A KD3A KD3A KD3A KD3A KD3A KD3A KD3A KD3A KD3A KD3A KD3A KD3A KD3A KD3A KD3A KD3A KD3A KD3A KD3A KD3A KD3A KD3A KD3A KD3A KD3A KD3A KD3A KD3A KD3A KD3A KD3A KD3A KD3A KD3A KD3A KD3A KD3A KD3A KD3A KD3A KD3A KD3A KD3A KD3A KD3A KD3A KD3A KD3A KD3A KD3A KD3A KD3A KD3A KD3A KD3A KD3A KD3A KD3A KD3A KD3A KD3A KD3A KD3A KD3A KD3A KD3A KD3A KD3A KD3A KD3A KD3A KD3A KD3A KD3A KD3A KD3A KD3A KD3A KD3A KD3A KD3A KD3A KD3A KD3A KD3A KD3A KD3A KD3A KD3A KD3A KD3A KD3A KD3A KD3A KD3A KD3A KD3A KD3A KD3A KD3A KD3A KD3A KD3A KD3A KD3A KD3A KD3A KD3A KD3A KD3A KD3A KD3A KD3A KD3A KD3A KD3A KD3A KD3A KD3A KD3A KD3A KD3A KD3A KD3A KD3A KD3A KD3A KD3A KD3A KD3A KD3A KD3A KD3A KD3A KD3A KD3A KD3A KD3A KD3A KD3A KD3A KD3A KD3A KD3A KD3A KD3A KD3A KD3A KD3A KD3A KD3A KD3A KD3A KD3A KD3A KD3A KD3A KD3A KD3A KD3A KD3A KD3A KD3A KD3A KD3A KD3A KD3A KD3A KD3A KD3A KD3A KD3A KD3A KD3A KD3A KD3A KD3A KD3A KD3A KD3A KD3A KD3A KD3A KD3A KD3A KD3A KD3A KD3A KD3A KD3A KD3A KD3A KD3A KD3A KD3A KD3A KD3A KD3A KD3A KD3A KD3A KD3A KD3A KD3A KD3A KD3A KD3A KD3A KD3A KD3A KD3A KD3A KD3A KD3A KD3A KD3A KD3A KD3A KD3A KD3A KD3A KD3A KD3A KD3A KD3A KD3A KD3A KD3A KD3A KD3A KD3A KD3A KD3A KD3A KD3A KD3A KD3A KD3A KD3A KD3A KD3A KD3A KD3A KD3A KD3A KD3A KD3A KD3A KD3A KD3A KD3A KD3A KD3A KD3A KD3A KD3A KD3A KD3A KD3A KD3A KD3A KD3A D3A D3A D3A D3A D3A D3A D3A D3A D3A D3A D3A D3A D3A      KFC' KFC' KFC' KFC' KFC' KFC' KFC' KFC' KFC' KFC' KFC' KFC' KFC' KFC' KFC' KFC' KFC' KFC' KFC' KFC' KFC' KFC' KFC' KFC' KFC' KFC' KFC' KFC' KFC' KFC' KFC' KFC' KFC' KFC' KFC' KFC' KFC' KFC' KFC' KFC' KFC' KFC' KFC' KFC' KFC' KFC' KFC' KFC' KFC' KFC' KFC' KFC' KFC' KFC' KFC' KFC' KFC' KFC' KFC' KFC' KFC' KFC' KFC' KFC' KFC' KFC' KFC' KFC' KFC' KFC' KFC' KFC' KFC' KFC' KFC' KFC' KFC' KFC' KFC' KFC' KFC' KFC' KFC' KFC' KFC' KFC' KFC' KFC' KFC' KFC' KFC' KFC' KFC' KFC' KFC' KFC' KFC' KFC' KFC' KFC' KFC' KFC' KFC' KFC' KFC' KFC' KFC' KFC' KFC' KFC' KFC' KFC' KFC' KFC' KFC' KFC' KFC' KFC' KFC' KFC' KFC' KFC' KFC' KFC' KFC' KFC' KFC' KFC' KFC' KFC' KFC' KFC' KFC' KFC' KFC' KFC' KFC' KFC' KFC' KFC' KFC' KFC' KFC' KFC' KFC' KFC' KFC' KFC' KFC' KFC' KFC' KFC' KFC' KFC' KFC' KFC' KFC' KFC' KFC' KFC' KFC' KFC' KFC' KFC' KFC' KFC' KFC' KFC' KFC' KFC' KFC' KFC' KFC' KFC' KFC' KFC' KFC' KFC' KFC' KFC' KFC' KFC' KFC' KFC' KFC' KFC' KFC' KFC' KFC' KFC' KFC' KFC' KFC' KFC' KFC' KFC' KFC' KFC' KFC' KFC' KFC' KFC' KFC' KFC' KFC' KFC' KFC' KFC' KFC' KFC' KFC' KFC' KFC' KFC' KFC' KFC' KFC' KFC' KFC' KFC' KFC' KFC' KFC' KFC' KFC' KFC' KFC' KFC' KFC' KFC' KFC' KFC' KFC' KFC' KFC' KFC' KFC' KFC' KFC' KFC' KFC' KFC' KFC' KFC' KFC' KFC' KFC' KFC' KFC' KFC' KFC' KFC' KFC' KFC' KFC' KFC' KFC' KFC' KFC' KFC' KFC' KFC' KFC' KFC' KFC' KFC' KFC' KFC' KFC' KFC' KFC' KFC' KFC' KFC' KFC' KFC' KFC' KFC' KFC' KFC' KFC' KFC' KFC' KFC' KFC' KFC' KFC' KFC' KFC' KFC' KFC' KFC' KFC' KFC' KFC' KFC' KFC' KFC' KFC' KFC' KFC' KFC' KFC' KFC' KFC' KFC' KFC' KFC' KFC' KFC' KFC' KFC' KFC' KFC' KFC' KFC' KFC' KFC' KFC' KFC' KFC' KFC' KFC' KFC' KFC' KFC' KFC' KFC' KFC' KFC' KFC' KFC' KFC' KFC' KFC' KFC' KFC' KFC' KFC' KFC' KFC' KFC' KFC' KFC' KFC' KFC' KFC' KFC' KFC' KFC' KFC' KFC' KFC' KFC' KFC' KFC' KFC' KFC' KFC' KFC' KFC' KFC' KFC' KFC' KFC' KFC' KFC' KFC' KFC' KFC' KFC' KFC' KFC' KFC' KFC' KFC' KFC' KFC' KFC' KFC' KFC' KFC' KFC' KFC' KFC' KFC' KFC' KFC' KFC' KFC' KFC' KFC' KFC' KFC' KFC' KFC' KFC' KFC' KFC' KFC' KFC' KFC' KFC' KFC' KFC' KFC' KFC' KFC' KFC' KFC' KFC' KFC' KFC' KFC' KFC' KFC' KFC' KFC' KFC' KFC' KFC' KFC' KFC' KFC' KFC' KFC' KFC' KFC' KFC' KFC' KFC' KFC' KFC' KFC' KFC' KFC' KFC' KFC' KFC' KFC' KFC' KFC' KFC' KFC' KFC' KFC' KFC' KFC' KFC' KFC' KFC' KFC' KFC' KFC' KFC' KFC' KFC' KFC' KFC' KFC' KFC' KFC' KFC' KFC' KFC' KFC' KFC' KFC' KFC' KFC' KFC' KFC' KFC' KFC' KFC' KFC' KFC' KFC' KFC' KFC' KFC' KFC' KFC' KFC' KFC' KFC' KFC' KFC' KFC' KFC' KFC' KFC' KFC' KFC' KFC' KFC' KFC' KFC' KFC' KFC' KFC' KFC' KFC' KFC' KFC' KFC' KFC' KFC' KFC' KFC' KFC' KFC' KFC' KFC' KFC' KFC' KFC' KFC' KFC' KFC' KFC' KFC' KFC' KFC' KFC' KFC' KFC' KFC' KFC' KFC' KFC' KFC' KFC' KFC' KFC' KFC' KFC' KFC' KFC' KFC' KFC' KFC' KFC' KFC' KFC' KFC' KFC' KFC' KFC' KFC' KFC' KFC' KFC' KFC' KFC' KFC' KFC' KFC' KFC' KFC' KFC' KFC' KFC' KFC' KFC' KFC' KFC' KFC' KFC' KFC' KFC' KFC' KFC' KFC' KFC' KFC' KFC' KFC' KFC' KFC' KFC' KFC' KFC' KFC' KFC' KFC' KFC' KFC' KFC' KFC' KFC' KFC' KFC' KFC' KFC' KFC' KFC' KFC' KFC' KFC' KFC' KFC' KFC' KFC' KFC' KFC' KFC' KFC' KFC' KFC' KFC' KFC' KFC' KFC' KFC' KFC' KFC' KFC' KFC' KFC' KFC' KFC' KFC' KFC' KFC' KFC' KFC' KFC' KFC' KFC' KFC' KFC' KFC' KFC' KFC' KFC' KFC' KFC' KFC' KFC' KFC' KFC' KFC' KFC' KFC' KFC' KFC' KFC' KFC' KFC' KFC' KFC' KFC' KFC' KFC' KFC' KFC' KFC' KFC' KFC' KFC' KFC' KFC' KFC' KFC' KFC' KFC' KFC' KFC' KFC' KFC' KFC' KFC' KFC' KFC' KFC' KFC' KFC' KFC' KFC' KFC' KFC' KFC' KFC' KFC' KFC' KFC' KFC' KFC' KFC' KFC' KFC' KFC' KFC' KFC' KFC' KFC' KFC' KFC' KFC' KFC' KFC' KFC' KFC' KFC' KFC' KFC' KFC' KFC' KFC' KFC' KFC' KFC' KFC' KFC' KFC' KFC' KFC' KFC' KFC' KFC' KFC' KFC' KFC' KFC' KFC' KFC' KFC' KFC' KFC' KFC' KFC' KFC' KFC' KFC' KFC' KFC' KFC' KFC' KFC' KFC' KFC' KFC' KFC' KFC' KFC' KFC' KFC' KFC' KFC' KFC' KFC' KFC' KFC' KFC' KFC' KFC' KFC' KFC' KFC' KFC' KFC' KFC' KFC' KFC' KFC' KFC' KFC' KFC' KFC' KFC' KFC' KFC' KFC' KFC' KFC' KFC' KFC' KFC' KFC' KFC' KFC' KFC' KFC' KFC' KFC' KFC' KFC' KFC' KFC' KFC' KFC' KFC' KFC' KFC' KFC' KFC' KFC' KFC' KFC' KFC' KFC' KFC' KFC' KFC' KFC' KFC' KFC' KFC' KFC' KFC' KFC' KFC' KFC' KFC' KFC' KFC' KFC' KFC' KFC' KFC' KFC' KFC' KFC' KFC' KFC' KFC' KFC' KFC' KFC' KFC' KFC' KFC' KFC' KFC' KFC' KFC' KFC' KFC' KFC' KFC' KFC' KFC' KFC' KFC' KFC' KFC' KFC' KFC' KFC' KFC' KFC' KFC' KFC' KFC' KFC' KFC' KFC' KFC' KFC' KFC' KFC' KFC' KFC' KFC' KFC' KFC' KFC' KFC' KFC' KFC' KFC' KFC' KFC' KFC' KFC' KFC' KFC' KFC' KFC' KFC' KFC' KFC' KFC' KFC' KFC' KFC' KFC' KFC' KFC' KFC' KFC' KFC' KFC' KFC' KFC' KFC' KFC' KFC' KFC' KFC' KFC' KFC' KFC' KFC' KFC' KFC' KFC' KFC' KFC' KFC' KFC' KFC' KFC' KFC' KFC' KFC' KFC' KFC' KFC' KFC' KFC' KFC' KFC' KFC' KFC' KFC' KFC' KFC' KFC' KFC' KFC' KFC' KFC' KFC' KFC' KFC' KFC' KFC' KFC' KFC' KFC' KFC' KFC' KFC' KFC' KFC' KFC' KFC' KFC' KFC' KFC' KFC' KFC' KFC' KFC' KFC' KFC' KFC' KFC' KFC' KFC' KFC' KFC' KFC' KFC' KFC' KFC' KFC' KFC' KFC' KFC' KFC' KFC' KFC' KFC' KFC' KFC' KFC' KFC' KFC' KFC' KFC' KFC' KFC' KFC' KFC' KFC' KFC' KFC' KFC' KFC' KFC' KFC' KFC' KFC' KFC' KFC' KFC' KFC' KFC' KFC' KFC' KFC' KFC' KFC' KFC' KFC' KFC' KFC' KFC' KFC' KFC' KFC' KFC' KFC' KFC' KFC' KFC' KFC' KFC' KFC' KFC' KFC' KFC' KFC' KFC' KFC' KFC' KFC' KFC' KFC' KFC' KFC' KFC' KFC' KFC' KFC' KFC' KFC' KFC' KFC' KFC' KFC' KFC' KFC' KFC' KFC' KFC' KFC' KFC' KFC' KFC' KFC' KFC' KFC' KFC' KFC' KFC' KFC' KFC' KFC' KFC' KFC' KFC' KFC' KFC' KFC' KFC' KFC' KFC' KFC' KFC' KFC' KFC' KFC' KFC' KFC' KFC' KFC' KFC' KFC' KFC' KFC' KFC' KFC' KFC' KFC' KFC' KFC' KFC' KFC' KFC' KFC' KFC' KFC' KFC' KFC' KFC' KFC' KFC' KFC' KFC' KFC' KFC' KFC' KFC' KFC' KFC' KFC' KFC' KFC' KFC' KFC' KFC' KFC' KFC' KFC' KFC' KFC' KFC' KFC' KFC' KFC' KFC' KFC' KFC' KFC' KFC' KFC' KFC' KFC' KFC' KFC' KFC' KFC' KFC' KFC' KFC' KFC' KFC' KFC' KFC' KFC' KFC' KFC' KFC' KFC' KFC' KFC' KFC' KFC' KFC' KFC' KFC' KFC' KFC' KFC' KFC' KFC' KFC' KFC' KFC' KFC' KFC' KFC' KFC' KFC' KFC' KFC' KFC' KFC' KFC' KFC' KFC' KFC' KFC' KFC' KFC' KFC' KFC' KFC' KFC' KFC' KFC' KFC' KFC' KFC' KFC' KFC' KFC' KFC' KFC' KFC' KFC' KFC' KFC' KFC' KFC' KFC' KFC' KFC' KFC' KFC' KFC' KFC' KFC' KFC' KFC' KFC' KFC' KFC' KFC' KFC' KFC' KFC' KFC' KFC' KFC' KFC' KFC' KFC' KFC' KFC' KFC' KFC' KFC' KFC' KFC' KFC' KFC' KFC' KFC' KFC' KFC' KFC' KFC' KFC' KFC' KFC' KFC' KFC' KFC' KFC' KFC' KFC' KFC' KFC' KFC' KFC' KFC' KFC' KFC' KFC' KFC' KFC' KFC' KFC' KFC' KFC' KFC' KFC' KFC' KFC' KFC' KFC' KFC' KFC' KFC' KFC' KFC' KFC' KFC' KFC' KFC' KFC' KFC' KFC' KFC' KFC' KFC' KFC' KFC' KFC' KFC' KFC' KFC' KFC' KFC' KFC' KFC' KFC' KFC' KFC' KFC' KFC' KFC' KFC' KFC' KFC' KFC' KFC' KFC' KFC' KFC' KFC' KFC' KFC' KFC' KFC' KFC' KFC' KFC' KFC' KFC' KFC' KFC' KFC' KFC' KFC' KFC' KFC' KFC' KFC' KFC' KFC' KFC' KFC' KFC' KFC' KFC' KFC' KFC' KFC' KFC' KFC' KFC' KFC' KFC' KFC' KFC' KFC' KFC' KFC' KFC' KFC' KFC' KFC' KFC' KFC' KFC' KFC' KFC' KFC' KFC' KFC' KFC' KFC' KFC' KFC' KFC' KFC' KFC' KFC' KFC' KFC' KFC' KFC' KFC' KFC' KFC' KFC' KFC' KFC' KFC' KFC' KFC' KFC' KFC' KFC' KFC' KFC' KFC' KFC' KFC' KFC' KFC' KFC' KFC' KFC' KFC' KFC' KFC' KFC' KFC' KFC' KFC' KFC' KFC' KFC' KFC' KFC' KFC' KFC' KFC' KFC' KFC' KFC' KFC' KFC' KFC' KFC' KFC' KFC' KFC' KFC' KFC' KFC' KFC' KFC' KFC' KFC' KFC' KFC' KFC' KFC' KFC' KFC' KFC' KFC' KFC' KFC' KFC' KFC' KFC' KFC' KFC' KFC' KFC' KFC' KFC' KFC' KFC' KFC' KFC' KFC' KFC' KFC' KFC' KFC' KFC' KFC' KFC' KFC' KFC' KFC' KFC' KFC' KFC' KFC' KFC' KFC' KFC' KFC' KFC' KFC' KFC' KFC' KFC' KFC' KFC' KFC' KFC' KFC' KFC' KFC' KFC' KFC' KFC' KFC' KFC' KFC' KFC' KFC' KFC' KFC' KFC' KFC' KFC' KFC' KFC' KFC' KFC' KFC' KFC' KFC' KFC' KFC' KFC' KFC' KFC' KFC' KFC' KFC' KFC' KFC' KFC' KFC' KFC' KFC' KFC' KFC' KFC' KFC' KFC' KFC' KFC' KFC' KFC' KFC' KFC' KFC' KFC' KFC' KFC' KFC' KFC' KFC' KFC' KFC' KFC' KFC' KFC' KFC' KFC' KFC' KFC' KFC' KFC' KFC' KFC' KFC' KFC' KFC' KFC' KFC' KFC' KFC' KFC' KFC' KFC' KFC' KFC' KFC' KFC' KFC' KFC' KFC' KFC' KFC' KFC' KFC' KFC' KFC' KFC' KFC' KFC' KFC' KFC' KFC' KFC' KFC' KFC' KFC' KFC' KFC' KFC' KFC' KFC' KFC' KFC' KFC' KFC' KFC' KFC' KFC' KFC' KFC' KFC' KFC' KFC' KFC' KFC' KFC' KFC' KFC' KFC' KFC' KFC' KFC' KFC' KFC' KFC' KFC' KFC' KFC' KFC' KFC' KFC' KFC' KFC' KFC' KFC' KFC' KFC' KFC' KFC' KFC' KFC' KFC' KFC' KFC' KFC' KFC' KFC' KFC' KFC' KFC' KFC' KFC' KFC' KFC' KFC' KFC' KFC' KFC' KFC' KFC' KFC' KFC' KFC' KFC' KFC' KFC' KFC' KFC' KFC' KFC' KFC' KFC' KFC' KFC' KFC' KFC' KFC' KFC' KFC' KFC' KFC' KFC' KFC' KFC' KFC' KFC' KFC' KFC' KFC' KFC' KFC' KFC' KFC' KFC' KFC' KFC' KFC' KFC' KFC' KFC'I( KFC'I( KFC'I( I( I( I( I( I( I( I( I( I( I( I( I( I( I( I( I( I( I( I( I( I( I( I( I( I( I( I( I( I( I( I( I( I( I( I( I( I( I( I( I( I( I( I( I( I( I( I( I( I( I( I( I( I( I( I( I( I( I( I( I( I( I( I( I( I( I( I( I( I( I( I( I( I( I( I( I( I( I( I( I( I( I( I( I( I( I( I( I( I( I( I( I( I( I( I( I( I( I( I( I( I( I( I( I( I( I( I( I( I( I( I( I( I( I( I( I( I( I( I( I( I( I( I( I( I( I( I( I( I( I( I( I( I( I( I( I( I( I( I( I( I( I( I( I( I( I( I( I( I( I( I( I( I( I( I( I( I( I( I( I( I( I( I( I( I( I( I( I( I( I( I( I( I( I( I( I( I( I( I( I( I( I( I( I( I( I( I( I( I( I( I( I( I( I( I( I( I( I( I( I( I( I( I( I( I( I( I( I( I( I( I( I( I( I( I( I( I( I( I( I( I( I( I( I( I( I( I( I( I( I( I( I( I( I( I( I( I( I( I( I( I( I( I( I( I( I( I( I( I( I( I( I( I( I( I( I( I( I( I( I( I( I( I( I( I( I( I( I( I( I( I( I( I( I( I( I( I( I( I( I( I( I( I( I( I( I( I( I( I( I( I( I( I( I( I( I( I( I( I( I( I( I( I( I( I( I( I( I( I( I( I( I( I( I( I( I( I( I( I( I( I( I( I( I( I( I( I( I( I( I( I( I( I( I( I( I( I( I( I( I( I( I( I( I( I( I( I( I( I( I( I( I( I( I( I( I( I( I( I( I( I( I( I( I( I( I( I( I( I( I( I( I( I( I( I( I( I( I( I( I( I( I( I( I( I( I( I( I( I( I( I( I( I( I( I( I( I( I( I( I( I( I( I( ( ( ( ( ( F( F( F( F( F( F( F( F( F( F( F( F( F( F( F( F( F( F( F( F( F( F( F( F( F( F( F( F( F( F( F( F( F( F( F( F( F( F( F( F( F( F( F( F( F( F( F( F( F( F( F( F( F( F( F( F( F( F( F( F( F( F( F( F( F( F( F( F( F( F( F( F( F( F( F( F( F( F( F( F( F( F( F( F( F( F( F( F( F( F( F( F( F( F( F( F( F( F( F( F( F( F( F( F( F( F( F( F( F( F( F( F( F( F( F( F( F( F( F( F( F( F( F( F( F( F( F( F( F( F( F( F( F( F( F( F( F( F( F( F( F( F( F( F( F( F( F( F( F( F( F( F( F( F( F( F( F( F( F( F( F( F( F( F( F( F( F( F( F( F( F( F( F( F( F( F( F( F( F( F( F( F( F( F( F( F( F( F( F( F( F( F( F( F( F( F( F( F( F( F( F( F( F( F( F( F( F( F( F( F( F( F( F( F( F( F( F( F( F( F( F( F( F( F( F( F( F( F( F( F( F( F( F( F( F( F( F( F( F( F( F( F( F( F( F( F( F( F( F( F( F( F( F( F( F( F( F( F( F( F( F( F( F( F( F( F( F( F( F( F( F( F( F( F( F( F( F( F( F( F( F( F( F( F( F( F( F( F( F( F( F( F( F( F( F( F( F( F( F( F( F( F( F( F( F( F( F( F( F( F( F( F( F( F( F( F( F( F( F( F( F( F( F( F( F( F( F( F( F( F( F( F( F( F( F( F( F( F( F( F( F( F( F( F( F( F( F( F( F( F( F( F( F( F( F( F( F( F( F( F( F( F( F( F( F( F( F( F( F( F( F( F( F( F( F( F( F( F( F( F( F( F( F( F( F( F( F( F( F( F( F( F( F( F( F( F( F( F( F( F( F( F( F( F( F( F( ( ( ( ( ( ( FC=4( FC=4( FC=4( FC=4( FC=4( FC=4( FC=4( FC=4( FC=4( FC=4( FC=4( FC=4( FC=4( FC=4( FC=4( FC=4( FC=4( FC=4( FC=4( FC=4( FC=4( FC=4( FC=4( FC=4( FC=4( FC=4( FC=4( FC=4( FC=4( FC=4( FC=4( FC=4( FC=4( FC=4( FC=4( FC=4( FC=4( FC=4( FC=4( FC=4( FC=4( FC=4( FC=4( FC=4( FC=4( FC=4( FC=4( FC=4( FC=4( FC=4( FC=4( FC=4( FC=4( FC=4( FC=4( FC=4( FC=4( FC=4( FC=4( FC=4( FC=4( FC=4( FC=4( FC=4( FC=4( FC=4( FC=4( FC=4( FC=4( FC=4( FC=4( FC=4( FC=4( FC=4( FC=4( FC=4( FC=4( FC=4( FC=4( FC=4( FC=4( FC=4( FC=4( FC=4( FC=4( FC=4( FC=4( FC=4( FC=4( FC=4( FC=4( FC=4( FC=4( FC=4( FC=4( FC=4( FC=4( FC=4( FC=4( FC=4( FC=4( FC=4( FC=4( FC=4( FC=4( FC=4( FC=4( FC=4( FC=4( FC=4( FC=4( FC=4( FC=4( FC=4( FC=4( FC=4( FC=4( FC=4( FC=4( FC=4( FC=4( FC=4( FC=4( FC=4( FC=4( FC=4( FC=4( FC=4( FC=4( FC=4( FC=4( FC=4( FC=4( FC=4( FC=4( FC=4( FC=4( FC=4( FC=4( FC=4( FC=4( FC=4( FC=4( FC=4( FC=4( FC=4( FC=4( FC=4( FC=4( FC=4( FC=4( FC=4( FC=4( FC=4( FC=4( FC=4( FC=4( FC=4( FC=4( FC=4( FC=4( FC=4( FC=4( FC=4( FC=4( FC=4( FC=4( FC=4( FC=4( FC=4( FC=4( FC=4( FC=4( FC=4( FC=4( FC=4( FC=4( FC=4( FC=4( FC=4( FC=4( FC=4( FC=4( FC=4( FC=4( FC=4( FC=4( FC=4( FC=4( FC=4( FC=4( FC=4( FC=4( FC=4( FC=4( FC=4( FC=4( FC=4( FC=4( FC=4( FC=4( FC=4( FC=4( FC=4( FC=4( FC=4( FC=4( FC=4( FC=4( FC=4( FC=4( FC=4( FC=4( FC=4( FC=4( FC=4( FC=4( FC=4( FC=4( FC=4( FC=4( FC=4( FC=4( FC=4( FC=4( FC=4( FC=4( FC=4( FC=4( FC=4( FC=4( FC=4( FC=4( FC=4( FC=4( FC=4( FC=4( FC=4( FC=4( FC=4( FC=4( FC=4( FC=4( FC=4( FC=4( FC=4( FC=4( FC=4( FC=4( FC=4( FC=4( FC=4( FC=4( FC=4( FC=4( FC=4( FC=4( FC=4( FC=4( FC=4( FC=4( FC=4( FC=4( FC=4( FC=4( FC=4( FC=4( FC=4( FC=4( FC=4( FC=4( FC=4( FC=4( FC=4( FC=4( FC=4( FC=4( FC=4( FC=4( FC=4( FC=4( FC=4( FC=4( FC=4( FC=4( FC=4( FC=4( FC=4( FC=4( FC=4( FC=4( FC=4( FC=4( FC=4( FC=4( FC=4( FC=4( FC=4( FC=4( FC=4( FC=4( FC=4( FC=4( FC=4( FC=4( FC=4( FC=4( FC=4( FC=4( FC=4( FC=4( FC=4( FC=4( FC=4( FC=4( FC=4( FC=4( FC=4( FC=4( FC=4( FC=4( FC=4( FC=4( FC=4( FC=4( FC=4( FC=4( FC=4( FC=4( FC=4( FC=4( FC=4( FC=4( FC=4( FC=4( FC=4( FC=4( FC=4( FC=4( FC=4( FC=4( FC=4( FC=4( FC=4( FC=4( FC=4( FC=4( FC=4( FC=4( FC=4( FC=4( FC=4( FC=4( FC=4( FC=4( FC=4( FC=4( FC=4( FC=4( FC=4( FC=4( FC=4( FC=4( FC=4( FC=4( FC=4( FC=4( FC=4( FC=4( FC=4( FC=4( FC=4( FC=4( FC=4( FC=4( FC=4( FC=4( FC=4( FC=4( FC=4( FC=4( FC=4( FC=4( FC=4( FC=4( FC=4( FC=4( FC=4( FC=4( FC=4( FC=4( FC=4( FC=4( FC=4( FC=4( FC=4( FC=4( FC=4( FC=4( FC=4( FC=4( FC=4( FC=4( FC=4( FC=4( FC=4( FC=4( FC=4( FC=4( FC=4( FC=4( FC=4( FC=4( FC=4( FC=4( FC=4( FC=4( FC=4( FC=4( FC=4( FC=4( FC=4( FC=4( FC=4( FC=4( FC=4( FC=4( FC=4( FC=4( FC=4( FC=4( FC=4( FC=4( FC=4( FC=4( FC=4( FC=4( FC=4( FC=4( FC=4( FC=4( FC=4( FC=4( FC=4( FC=4( FC=4( FC=4( FC=4( FC=4( FC=4( FC=4( FC=4( FC=4( FC=4( FC=4( FC=4( FC=4( FC=4( FC=4( FC=4( FC=4( FC=4( FC=4( FC=4( FC=4( FC=4( FC=4( FC=4( FC=4( FC=4( FC=4( FC=4( FC=4( FC=4( FC=4( FC=4( FC=4( FC=4( FC=4( FC=4( FC=4( FC=4( FC=4( FC=4( FC=4( FC=4( FC=4( FC=4( FC=4( FC=4( FC=4( FC=4( FC=4( FC=4( FC=4( FC=4( FC=4( FC=4( FC=4( FC=4( FC=4( FC=4( FC=4( FC=4( FC=4( FC=4( FC=4( FC=4( FC=4( FC=4( FC=4( FC=4( FC=4( FC=4( FC=4( FC=4( FC=4( FC=4( FC=4( FC=4( FC=4( FC=4( FC=4( FC=4( FC=4( FC=4( FC=4( FC=4( FC=4( FC=4( FC=4( FC=4( FC=4( FC=4( FC=4( FC=4( FC=4( FC=4( FC=4( FC=4( FC=4( FC=4( FC=4( FC=4( FC=4( FC=4( FC=4( FC=4( FC=4( FC=4( FC=4( FC=4( FC=4( FC=4( FC=4( FC=4( FC=4( FC=4( FC=4( FC=4( FC=4( FC=4( FC=4( FC=4( FC=4( FC=4( FC=4( FC=4( FC=4( FC=4( FC=4( FC=4( FC=4( FC=4( FC=4( FC=4( FC=4( FC=4( FC=4( FC=4( FC=4( FC=4( FC=4( FC=4( FC=4( FC=4( FC=4( FC=4( FC=4( FC=4( FC=4( FC=4( FC=4( FC=4( FC=4( FC=4( FC=4( FC=4( FC=4( FC=4( FC=4( FC=4( FC=4( FC=4( FC=4( FC=4( FC=4( FC=4( FC=4( FC=4( FC=4( FC=4( FC=4( FC=4( FC=4( FC=4( FC=4( FC=4( FC=4( FC=4( FC=4( FC=4( FC=4( FC=4( FC=4( FC=4( FC=4( FC=4( FC=4( FC=4( FC=4( FC=4( FC=4( FC=4( FC=4( FC=4( FC=4( FC=4( FC=4( FC=4( FC=4( FC=4( FC=4( FC=4( FC=4( FC=4( FC=4( FC=4( FC=4( FC=4( FC=4( FC=4( FC=4( FC=4( FC=4( FC=4( FC=4( FC=4( FC=4( FC=4( FC=4( FC=4( FC=4( FC=4( FC=4( FC=4( FC=4( FC=4( FC=4( FC=4( FC=4( FC=4( FC=4( FC=4( FC=4( FC=4( FC=4( FC=4( FC=4( FC=4( FC=4( FC=4( FC=4( FC=4( FC=4( FC=4( FC=4( FC=4( FC=4( FC=4( FC=4( FC=4( FC=4( FC=4( FC=4( FC=4( FC=4( FC=4( FC=4( FC=4( FC=4( FC=4( FC=4( FC=4( FC=4( FC=4( FC=4( FC=4( FC=4( FC=4( FC=4( FC=4( FC=4( FC=4( FC=4( FC=4( FC=4( FC=4( FC=4( FC=4( FC=4( FC=4( FC=4( FC=4( FC=4( FC=4( FC=4( FC=4( FC=4( FC=4( FC=4( FC=4( FC=4( FC=4( FC=4( FC=4( FC=4( FC=4( FC=4( FC=4( FC=4( FC=4( FC=4( FC=4( FC=4( FC=4( FC=4( FC=4( FC=4( FC=4( FC=4( FC=4( FC=4( FC=4( FC=4( FC=4( FC=4( FC=4( FC=4( FC=4( FC=4( FC=4( FC=4( FC=4( FC=4( FC=4( FC=4( FC=4( FC=4( FC=4( FC=4( FC=4( FC=4( FC=4( FC=4( FC=4( FC=4( FC=4( FC=4( FC=4( FC=4( FC=4( FC=4( FC=4( FC=4( FC=4( FC=4( FC=4( FC=4( FC=4( FC=4( FC=4( FC=4( FC=4( FC=4( FC=4( FC=4( FC=4( FC=4( FC=4( FC=4( FC=4( FC=4( FC=4( FC=4( FC=4( FC=4( FC=4( FC=4( FC=4( FC=4( FC=4( FC=4( FC=4( FC=4( FC=4( FC=4( FC=4( FC=4( FC=4( FC=4( FC=4( FC=4( FC=4( FC=4( FC=4( FC=4( FC=4( FC=4( FC=4( FC=4( FC=4( FC=4( FC=4( FC=4( FC=4( FC=4( FC=4( FC=4( FC=4( FC=4( FC=4( FC=4( FC=4( FC=4( FC=4( FC=4( FC=4( FC=4( FC=4( FC=4( FC=4( FC=4( FC=4( FC=4( FC=4( FC=4( FC=4( FC=4( FC=4( FC=4( FC=4( FC=4( FC=4( FC=4( FC=4( FC=4( FC=4( FC=4( FC=4( FC=4( FC=4( FC=4( FC=4( FC=4( FC=4( FC=4( FC=4( FC=4( FC=4( FC=4( FC=4( FC=4( FC=4( FC=4( FC=4( FC=4( FC=4( FC=4( FC=4( FC=4( FC=4( FC=4( FC=4( FC=4( FC=4( FC=4( FC=4( FC=4( FC=4( FC=4( FC=4( FC=4( FC=4( FC=4( FC=4( FC=4( FC=4( FC=4( FC=4( FC=4( FC=4( FC=4( FC=4( FC=4( FC=4( FC=4( FC=4( FC=4( FC=4( FC=4( FC=4( FC=4( FC=4( FC=4( FC=4( FC=4( FC=4( FC=4( FC=4( FC=4( FC=4( FC=4( FC=4( FC=4( FC=4( FC=4( FC=4( FC=4( FC=4( FC=4( FC=4( FC=4( FC=4( FC=4( FC=4( FC=4( FC=4( FC=4( FC=4( FC=4( FC=4( FC=4( FC=4( FC=4( FC=4( FC=4( FC=4( FC=4( FC=4( FC=4( FC=4( FC=4( FC=4( FC=4( FC=4( FC=4( FC=4( FC=4( FC=4( FC=4( FC=4( FC=4( FC=4( FC=4( FC=4( FC=4( FC=4( FC=4( FC=4( FC=4( FC=4( FC=4( FC=4( FC=4( FC=4( FC=4( FC=4( FC=4( FC=4( FC=4( FC=4( FC=4( FC=4( FC=4( FC=4( FC=4( FC=4( FC=4( FC=4( FC=4( FC=4( FC=4( FC=4( FC=4( FC=4( FC=4( FC=4( FC=4( FC=4( FC=4( FC=4( FC=4( FC=4( FC=4( FC=4( FC=4( FC=4( FC=4( FC=4( FC=4( FC=4( FC=4( FC=4( FC=4( FC=4( FC=4( FC=4( FC=4( FC=4( FC=4( FC=4( FC=4( FC=4( FC=4( FC=4( FC=4( FC=4( FC=4( FC=4( FC=4( FC=4( FC=4( FC=4( FC=4( FC=4( FC=4( FC=4( FC=4( FC=4( FC=4( FC=4( FC=4( FC=4( FC=4( FC=4( FC=4( FC=4( FC=4( FC=4( FC=4( FC=4( FC=4( FC=4( FC=4( FC=4( FC=4( FC=4( FC=4( FC=4( FC=4( FC=4( FC=4( FC=4( FC=4( FC=4( FC=4( FC=4( FC=4( FC=4( FC=4( FC=4( FC=4( FC=4( FC=4( FC=4( FC=4( FC=4( FC=4( FC=4( FC=4( FC=4( FC=4( FC=4( FC=4( FC=4( FC=4( FC=4( FC=4( FC=4( FC=4( FC=4( FC=4( FC=4( FC=4( FC=4( FC=4( FC=4( FC=4( FC=4( FC=4( FC=4( FC=4( FC=4( FC=4( FC=4( FC=4( FC=4( FC=4( FC=4( FC=4( FC=4( FC=4( FC=4( FC=4( FC=4( FC=4( FC=4( FC=4( FC=4( FC=4( FC=4( FC=4( FC=4( FC=4( FC=4( FC=4( FC=4( FC=4( FC=4( FC=4( FC=4( FC=4( FC=4( FC=4( FC=4( FC=4( FC=4( FC=4( FC=4( FC=4( FC=4( FC=4( FC=4( FC=4( FC=4( FC=4( FC=4( FC=4( FC=4( FC=4( FC=4( FC=4( FC=4( FC=4( FC=4( FC=4( FC=4( FC=4( FC=4( FC=4( FC=4( FC=4( FC=4( FC=4( FC=4( FC=4( FC=4( FC=4( FC=4( FC=4( FC=4( FC=4( FC=4( FC=4( FC=4( FC=4( FC=4( FC=4( FC=4( FC=4( FC=4( FC=4( FC=4( FC=4( FC=4( FC=4( FC=4( FC=4( FC=4( FC=4( FC=4( FC=4( FC=4( FC=4( FC=4( FC=4( FC=4( FC=4( FC=4( FC=4( FC=4( FC=4( FC=4( FC=4( FC=4( FC=4( FC=4( FC=4( FC=4( FC=4( FC=4( FC=4( FC=4( FC=4( FC=4( FC=4( =4( =4( =4( =4( =4( F=4( F=4( F=4( F=4( F=4( F=4( F=4( F=4( F=4( F=4( F=4( F=4( F=4( F=4( F=4( F=4( F=4( F=4( F=4( F=4( F=4( F=4( F=4( F=4( F=4( F=4( F=4( F=4( F=4( F=4( F=4( F=4( F=4( F=4( F=4( F=4( F=4( F=4( F=4( F=4( F=4( F=4( F=4( F=4( F=4( F=4( F=4( F=4( F=4( F=4( F=4( F=4( F=4( F=4( F=4( F=4( F=4( F=4( F=4( F=4( F=4( F=4( F=4( F=4( F=4( F=4( F=4( F=4( F=4( F=4( F=4( F=4( F=4( F=4( F=4( F=4( F=4( F=4( F=4( F=4( F=4( F=4( F=4( F=4( F=4( F=4( F=4( F=4( F=4( F=4( F=4( F=4( F=4( F=4( F=4( F=4( F=4( F=4( F=4( F=4( F=4( F=4( F=4( F=4( F=4( F=4( F=4( F=4( F=4( F=4( F=4( F=4( F=4( F=4( F=4( F=4( F=4( F=4( F=4( F=4( F=4( F=4( F=4( F=4( F=4( F=4( F=4( F=4( F=4( F=4( F=4( F=4( F=4( F=4( F=4( F=4( F=4( F=4( F=4( F=4( F=4( F=4( F=4( F=4( F=4( F=4( F=4( F=4( F=4( F=4( F=4( F=4( F=4( F=4( F=4( F=4( F=4( F=4( F=4( F=4( F=4( F=4( F=4( F=4( F=4( F=4( F=4( F=4( F=4( F=4( F=4( F=4( F=4( F=4( F=4( F=4( F=4( F=4( F=4( F=4( F=4( F=4( F=4( F=4( F=4( F=4( F=4( F=4( F=4( F=4( F=4( F=4( F=4( F=4( F=4( F=4( F=4( F=4( F=4( F=4( =4( =4( =4( =4( =4( =4( D=4( D=4( D=4( D=4( D=4( D=4( D=4( D=4( D=4( D=4( D=4( D=4( D=4( D=4( D=4( D=4( D=4( D=4( D=4( D=4( D=4( D=4( D=4( D=4( D=4( D=4( D=4( D=4( D=4( D=4( D=4( D=4( D=4( D=4( D=4( D=4( D=4( D=4( D=4( D=4( D=4( D=4( D=4( D=4( D=4( D=4( D=4( D=4( D=4( D=4( D=4( D=4( D=4( D=4( D=4( D=4( D=4( D=4( D=4( D=4( D=4( D=4( D=4( D=4( D=4( D=4( D=4( D=4( D=4( D=4( D=4( D=4( D=4( D=4( D=4( D=4( D=4( D=4( D=4( D=4( D=4( D=4( D=4( D=4( D=4( D=4( D=4( D=4( D=4( D=4( D=4( D=4( D=4( D=4( D=4( D=4( D=4( D=4( D=4( D=4( D=4( D=4( D=4( D=4( D=4( D=4( D=4( D=4( D=4( D=4( D=4( D=4( D=4( D=4( D=4( D=4( D=4( D=4( D=4( D=4( D=4( D=4( D=4( D=4( D=4( D=4( D=4( D=4( D=4( D=4( D=4( D=4( D=4( D=4( D=4( D=4( D=4( D=4( D=4( D=4( D=4( D=4( D=4( D=4( D=4( D=4( D=4( D=4( D=4( D=4( D=4( D=4( D=4( D=4( D=4( D=4( D=4( D=4( D=4( D=4( D=4( D=4( D=4( D=4( D=4( D=4( D=4( D=4( D=4( D=4( D=4( D=4( D=4( D=4( D=4( D=4( D=4( D=4( D=4( D=4( D=4( D=4( D=4( D=4( D=4( D=4( D=4( D=4( D=4( D=4( D=4( D=4( D=4( D=4( D=4( D=4( D=4( D=4( D=4( D=4( =4( =4( =4( ( F( F( F( F( F( F( F( F( F( F( F( F( F( F( F( F( F( F( F( F( F( F( F( F( F( F( F( F( F( F( F( F( F( F( F( F( F( F( F( F( F( F( F( F( F( F( F( F( F( F( F( F( F( F( F( F( F( F( F( F( F( F( F( F( F( F( F( F( F( F( F( F( F( F( F( F( F( F( F( F( F( F( F( F( F( F( F( F( F( F( F( F( F( F( F( F( F( F( F( F( F( F( F( F( F( F( F( F( F( F( F( F( F( F( F( F( F( F( F( F( F( F( F( F( F( F( F( F( F( F( F( F( F( F( F( F( F( F( F( F( F( F( F( F( F( F( F( F( F( F( F( F( F( F( F( F( F( F( F( F( F( F( F( F( F( F( F( F( F( F( F( F( F( F( F( F( F( F( F( F( F( F( F( F( F( F( F( F( F( F( F( F( F( F( F( F( F( F( F( F( F( F( F( F( F( F( F( F( F( F( F( F( F( F( F( F( F( F( F( F( F( F( F( F( F( F( F( F( F( F( F( F( F( F( F( F( F( F( F( F( F( F( F( F( F( F( F( F( F( F( F( F( F( F( F( F( F( F( F( F( F( F( F( F( F( F( F( F( F( F( F( F( F( F( F( F( F( F( F( F( F( F( F( F( F( F( F( F( F( F( F( F( F( F( F( F( F( F( F( F( F( F( F( F( F( F( F( F( F( F( F( F( F( F( F( F( F( F( F( F( F( F( F( F( F( F( F( F( F( F( F( F( F( F( F( F( F( F( F( F( F( F( F( F( F( F( F( F( F( F( F( F( F( F( F( F( F( F( F( F( F( F( F( F( F( F( F( F( F( F( F( F( F( F( F( F( F( F( F( F( F( F( F( F( F( F( F( F( F( F( F( F( F( F( F( F( F( F( F( F( F( F( F( F( F( F( ( ( ( ( ( ( C( C( C( C( C( C( C( C( C( C( C( C( C( C( C( C( C( C( C( C( C( C( C( C( C( C( C( C( C( C( C( C( C( C( C( C( C( C( C( C( C( C( C( C( C( C( C( C( C( C( C( C( C( C( C( C( C( C( C( C( C( C( C( C( C( C( C( C( C( C( C( C( C( C( C( C( C( C( C( C( C( C( C( C( C( C( C( C( C( C( C( C( C( C( C( C( C( C( C( C( C( C( C( C( C( C( C( C( C( C( C( C( C( C( C( C( C( C( C( C( C( C( C( C( C( C( C( C( C( C( C( C( C( C( C( C( C( C( C( C( C( C( C( C( C( C( C( C( C( C( C( C( C( C( C( C( C( C( C( C( C( C( C( C( C( C( C( C( C( C( C( C( C( C( C( C( C( C( C( C( C( C( C( C( C( C( C( C( C( C( C( C( C( C( C( C( C( C( C( C( C( C( C( C( C( C( C( C( C( C( C( C( C( C( C( C( C( C( C( C( C( C( C( C( C( C( C( C( C( C( C( C( C( C( C( C( C( C( C( C( C( C( C( C( C( C( C( C( C( C( C( C( C( C( C( C( C( C( C( C( C( C( C( C( C( C( C( C( C( C( C( C( C( C( C( C( C( C( C( C( C( C( C( C( C( C( C( C( C( C( C( C( C( C( C( C( C( C( C( C( C( C( C( C( C( C( C( C( C( C( C( C( C( C( C( C( C( C( C( C( C( C( C( C( C( C( C( C( C( C( C( C( C( C( C( C( C( C( C( C( C( C( C( C( C( C( C( C( C( C( C( C( C( C( C( C( C( C( C( C( C( C( C( C( C( C( C( C( C( C( C( C( C( C( C( C( C( C( C( C( C( C( C( C( C( C( C( C( C( C( C( C( C( C( C( C( C( C( C( C( C( C( C( C( C( C( ( ( ( ( ( @C=4( @C=4( @C=4( @C=4( @C=4( @C=4( @C=4( @C=4( @C=4( @C=4( @C=4( @C=4( @C=4( @C=4( @C=4( @C=4( @C=4( @C=4( @C=4( @C=4( @C=4( @C=4( @C=4( @C=4( @C=4( @C=4( @C=4( @C=4( @C=4( @C=4( @C=4( @C=4( @C=4( @C=4( @C=4( @C=4( @C=4( @C=4( @C=4( @C=4( @C=4( @C=4( @C=4( @C=4( @C=4( @C=4( @C=4( @C=4( @C=4( @C=4( @C=4( @C=4( @C=4( @C=4( @C=4( @C=4( @C=4( @C=4( @C=4( @C=4( @C=4( @C=4( @C=4( @C=4( @C=4( @C=4( @C=4( @C=4( @C=4( @C=4( @C=4( @C=4( @C=4( @C=4( @C=4( @C=4( @C=4( @C=4( @C=4( @C=4( @C=4( @C=4( @C=4( @C=4( @C=4( @C=4( @C=4( @C=4( @C=4( @C=4( @C=4( @C=4( @C=4( @C=4( @C=4( @C=4( @C=4( @C=4( @C=4( @C=4( @C=4( @C=4( @C=4( @C=4( @C=4( @C=4( @C=4( @C=4( @C=4( @C=4( @C=4( @C=4( @C=4( @C=4( @C=4( @C=4( @C=4( @C=4( @C=4( @C=4( @C=4( @C=4( @C=4( @C=4( @C=4( @C=4( @C=4( @C=4( @C=4( @C=4( @C=4( @C=4( @C=4( @C=4( @C=4( @C=4( @C=4( @C=4( @C=4( @C=4( @C=4( @C=4( @C=4( @C=4( @C=4( @C=4( @C=4( @C=4( @C=4( @C=4( @C=4( @C=4( @C=4( @C=4( @C=4( @C=4( @C=4( @C=4( @C=4( @C=4( @C=4( @C=4( @C=4( @C=4( @C=4( @C=4( @C=4( @C=4( @C=4( @C=4( @C=4( @C=4( @C=4( @C=4( @C=4( @C=4( @C=4( @C=4( @C=4( @C=4( @C=4( @C=4( @C=4( @C=4( @C=4( @C=4( @C=4( @C=4( @C=4( @C=4( @C=4( @C=4( @C=4( @C=4( @C=4( @C=4( @C=4( @C=4( @C=4( @C=4( @C=4( @C=4( @C=4( @C=4( @C=4( @C=4( @C=4( @C=4( @C=4( @C=4( @C=4( @C=4( @C=4( @C=4( @C=4( @C=4( @C=4( @C=4( @C=4( @C=4( @C=4( @C=4( @C=4( @C=4( @C=4( @C=4( @C=4( @C=4( @C=4( @C=4( @C=4( @C=4( @C=4( @C=4( @C=4( @C=4( @C=4( @C=4( @C=4( @C=4( @C=4( @C=4( @C=4( @C=4( @C=4( @C=4( @C=4( @C=4( @C=4( @C=4( @C=4( @C=4( @C=4( @C=4( @C=4( @C=4( @C=4( @C=4( @C=4( @C=4( @C=4( @C=4( @C=4( @C=4( @C=4( @C=4( @C=4( @C=4( @C=4( @C=4( @C=4( @C=4( @C=4( @C=4( @C=4( @C=4( @C=4( @C=4( @C=4( @C=4( @C=4( @C=4( @C=4( @C=4( @C=4( @C=4( @C=4( @C=4( @C=4( @C=4( @C=4( @C=4( @C=4( @C=4( @C=4( @C=4( @C=4( @C=4( @C=4( @C=4( @C=4( @C=4( @C=4( @C=4( @C=4( @C=4( @C=4( @C=4( @C=4( @C=4( @C=4( @C=4( @C=4( @C=4( @C=4( @C=4( @C=4( @C=4( @C=4( @C=4( @C=4( @C=4( @C=4( @C=4( @C=4( @C=4( @C=4( @C=4( @C=4( @C=4( @C=4( @C=4( @C=4( @C=4( @C=4( @C=4( @C=4( @C=4( @C=4( @C=4( @C=4( @C=4( @C=4( @C=4( @C=4( @C=4( @C=4( @C=4( @C=4( @C=4( @C=4( @C=4( @C=4( @C=4( @C=4( @C=4( @C=4( @C=4( @C=4( @C=4( @C=4( @C=4( @C=4( @C=4( @C=4( @C=4( @C=4( @C=4( @C=4( @C=4( @C=4( @C=4( @C=4( @C=4( @C=4( @C=4( @C=4( @C=4( @C=4( @C=4( @C=4( @C=4( @C=4( @C=4( @C=4( @C=4( @C=4( @C=4( @C=4( @C=4( @C=4( @C=4( @C=4( @C=4( @C=4( @C=4( @C=4( @C=4( @C=4( @C=4( @C=4( @C=4( @C=4( @C=4( @C=4( @C=4( @C=4( @C=4( @C=4( @C=4( @C=4( @C=4( @C=4( @C=4( @C=4( @C=4( @C=4( @C=4( @C=4( @C=4( @C=4( @C=4( @C=4( @C=4( @C=4( @C=4( @C=4( @C=4( @C=4( @C=4( @C=4( @C=4( @C=4( @C=4( @C=4( @C=4( @C=4( @C=4( @C=4( @C=4( @C=4( @C=4( @C=4( @C=4( @C=4( @C=4( @C=4( @C=4( @C=4( @C=4( @C=4( @C=4( @C=4( @C=4( @C=4( @C=4( @C=4( @C=4( @C=4( @C=4( @C=4( @C=4( @C=4( @C=4( @C=4( @C=4( @C=4( @C=4( @C=4( @C=4( @C=4( @C=4( @C=4( @C=4( @C=4( @C=4( @C=4( @C=4( @C=4( @C=4( @C=4( @C=4( @C=4( @C=4( @C=4( @C=4( @C=4( @C=4( @C=4( @C=4( @C=4( @C=4( @C=4( @C=4( @C=4( @C=4( @C=4( @C=4( @C=4( @C=4( @C=4( @C=4( @C=4( @C=4( @C=4( @C=4( @C=4( @C=4( @C=4( @C=4( @C=4( @C=4( @C=4( @C=4( @C=4( @C=4( @C=4( @C=4( @C=4( @C=4( @C=4( @C=4( @C=4( @C=4( @C=4( @C=4( @C=4( @C=4( @C=4( @C=4( @C=4( @C=4( @C=4( @C=4( @C=4( @C=4( @C=4( @C=4( @C=4( @C=4( @C=4( @C=4( @C=4( @C=4( @C=4( @C=4( @C=4( @C=4( @C=4( @C=4( @C=4( @C=4( @C=4( @C=4( @C=4( @C=4( @C=4( @C=4( @C=4( @C=4( @C=4( @C=4( @C=4( @C=4( @C=4( @C=4( @C=4( @C=4( @C=4( @C=4( @C=4( @C=4( @C=4( @C=4( @C=4( @C=4( @C=4( @C=4( @C=4( @C=4( @C=4( @C=4( @C=4( @C=4( @C=4( @C=4( @C=4( @C=4( @C=4( @C=4( @C=4( @C=4( @C=4( @C=4( @C=4( @C=4( @C=4( @C=4( @C=4( @C=4( @C=4( @C=4( @C=4( @C=4( @C=4( @C=4( @C=4( @C=4( @C=4( @C=4( @C=4( @C=4( @C=4( @C=4( @C=4( @C=4( @C=4( @C=4( @C=4( @C=4( @C=4( @C=4( @C=4( @C=4( @C=4( @C=4( @C=4( @C=4( @C=4( @C=4( @C=4( @C=4( @C=4( @C=4( @C=4( @C=4( @C=4( @C=4( @C=4( @C=4( @C=4( @C=4( @C=4( @C=4( @C=4( @C=4( @C=4( @C=4( @C=4( @C=4( @C=4( @C=4( @C=4( @C=4( @C=4( @C=4( @C=4( @C=4( @C=4( @C=4( @C=4( @C=4( @C=4( @C=4( @C=4( @C=4( @C=4( @C=4( @C=4( @C=4( @C=4( @C=4( @C=4( @C=4( @C=4( @C=4( @C=4( @C=4( @C=4( @C=4( @C=4( @C=4( @C=4( @C=4( @C=4( @C=4( @C=4( @C=4( @C=4( @C=4( @C=4( @C=4( @C=4( @C=4( @C=4( @C=4( @C=4( @C=4( @C=4( @C=4( @C=4( @C=4( @C=4( @C=4( @C=4( @C=4( @C=4( @C=4( @C=4( @C=4( @C=4( @C=4( @C=4( @C=4( @C=4( @C=4( @C=4( @C=4( @C=4( @C=4( @C=4( @C=4( @C=4( @C=4( @C=4( @C=4( @C=4( @C=4( @C=4( @C=4( @C=4( @C=4( @C=4( @C=4( @C=4( @C=4( @C=4( @C=4( @C=4( @C=4( @C=4( @C=4( @C=4( @C=4( @C=4( @C=4( @C=4( @C=4( @C=4( @C=4( @C=4( @C=4( @C=4( @C=4( @C=4( @C=4( @C=4( @C=4( @C=4( @C=4( @C=4( @C=4( @C=4( @C=4( @C=4( @C=4( @C=4( @C=4( @C=4( @C=4( @C=4( @C=4( @C=4( @C=4( @C=4( @C=4( @C=4( @C=4( @C=4( @C=4( @C=4( @C=4( @C=4( @C=4( @C=4( @C=4( @C=4( @C=4( @C=4( @C=4( @C=4( @C=4( @C=4( @C=4( @C=4( @C=4( @C=4( @C=4( @C=4( @C=4( @C=4( @C=4( @C=4( @C=4( @C=4( @C=4( @C=4( @C=4( @C=4( @C=4( @C=4( @C=4( @C=4( @C=4( @C=4( @C=4( @C=4( @C=4( @C=4( @C=4( @C=4( @C=4( @C=4( @C=4( @C=4( @C=4( @C=4( @C=4( @C=4( @C=4( @C=4( @C=4( @C=4( @C=4( @C=4( @C=4( @C=4( @C=4( @C=4( @C=4( @C=4( @C=4( @C=4( @C=4( @C=4( @C=4( @C=4( @C=4( @C=4( @C=4( @C=4( @C=4( @C=4( @C=4( @C=4( @C=4( @C=4( @C=4( @C=4( @C=4( @C=4( @C=4( @C=4( @C=4( @C=4( @C=4( @C=4( @C=4( @C=4( @C=4( @C=4( @C=4( @C=4( @C=4( @C=4( @C=4( @C=4( @C=4( @C=4( @C=4( @C=4( @C=4( @C=4( @C=4( @C=4( @C=4( @C=4( @C=4( @C=4( @C=4( @C=4( @C=4( @C=4( @C=4( @C=4( @C=4( @C=4( @C=4( @C=4( @C=4( @C=4( @C=4( @C=4( @C=4( @C=4( @C=4( @C=4( @C=4( @C=4( @C=4( @C=4( @C=4( @C=4( @C=4( @C=4( @C=4( @C=4( @C=4( @C=4( @C=4( @C=4( @C=4( @C=4( @C=4( @C=4( @C=4( @C=4( @C=4( @C=4( @C=4( @C=4( @C=4( @C=4( @C=4( @C=4( @C=4( @C=4( @C=4( @C=4( @C=4( @C=4( @C=4( @C=4( @C=4( @C=4( @C=4( @C=4( @C=4( @C=4( @C=4( @C=4( @C=4( @C=4( @C=4( @C=4( @C=4( @C=4( @C=4( @C=4( @C=4( @C=4( @C=4( @C=4( @C=4( @C=4( @C=4( @C=4( @C=4( @C=4( @C=4( @C=4( @C=4( @C=4( @C=4( @C=4( @C=4( @C=4( @C=4( @C=4( @C=4( @C=4( @C=4( @C=4( @C=4( @C=4( @C=4( @C=4( @C=4( @C=4( @C=4( @C=4( @C=4( @C=4( @C=4( @C=4( @C=4( @C=4( @C=4( @C=4( @C=4( @C=4( @C=4( @C=4( @C=4( @C=4( @C=4( @C=4( @C=4( @C=4( @C=4( @C=4( @C=4( @C=4( @C=4( @C=4( @C=4( @C=4( @C=4( @C=4( @C=4( @C=4( @C=4( @C=4( @C=4( @C=4( @C=4( @C=4( @C=4( @C=4( @C=4( @C=4( @C=4( @C=4( @C=4( @C=4( @C=4( @C=4( @C=4( @C=4( @C=4( @C=4( @C=4( @C=4( @C=4( @C=4( @C=4( @C=4( @C=4( @C=4( @C=4( @C=4( @C=4( @C=4( @C=4( @C=4( @C=4( @C=4( @C=4( @C=4( @C=4( @C=4( @C=4( @C=4( @C=4( @C=4( @C=4( @C=4( @C=4( @C=4( @C=4( @C=4( @C=4( @C=4( @C=4( @C=4( @C=4( @C=4( @C=4( @C=4( @C=4( @C=4( @C=4( @C=4( @C=4( @C=4( @C=4( @C=4( @C=4( @C=4( @C=4( @C=4( @C=4( @C=4( @C=4( @C=4( @C=4( @C=4( @C=4( @C=4( @C=4( @C=4( @C=4( @C=4( @C=4( @C=4( @C=4( @C=4( @C=4( @C=4( @C=4( @C=4( @C=4( @C=4( @C=4( @C=4( @C=4( @C=4( @C=4( @C=4( @C=4( @C=4( @C=4( @C=4( @C=4( @C=4( @C=4( @C=4( @C=4( @C=4( @C=4( @C=4( @C=4( @C=4( @C=4( @C=4( @C=4( @C=4( @C=4( @C=4( @C=4( @C=4( @C=4( @C=4( @C=4( @C=4( @C=4( @C=4( @C=4( @C=4( @C=4( @C=4( @C=4( @C=4( @C=4( @C=4( @C=4( @C=4( @C=4( @C=4( @C=4( @C=4( @C=4( @C=4( @C=4( @C=4( @C=4( @C=4( @C=4( @C=4( @C=4( @C=4( @C=4( @C=4( @C=4( @C=4( @C=4( @C=4( @C=4( @C=4( @C=4( @C=4( @C=4( @C=4( @C=4( @C=4( @C=4( @C=4( @C=4( @C=4( @C=4( @C=4( @C=4( @C=4( @C=4( @C=4( @C=4( @C=4( @C=4( @C=4( @C=4( @C=4( @C=4( @C=4( @C=4( @C=4( @C=4( @C=4( @C=4( @C=4( @C=4( @C=4( @C=4( @C=4( @C=4( @C=4( @C=4( @C=4( @C=4( @C=4( @C=4( @C=4( @C=4( @C=4( @C=4( @C=4( @C=4( @C=4( =4( =4( =4( =4( =4( =4( C=4( C=4( C=4( C=4( C=4( C=4( C=4( C=4( C=4( C=4( C=4( C=4( C=4( C=4( C=4( C=4( C=4( C=4( C=4( C=4( C=4( C=4( C=4( C=4( C=4( C=4( C=4( C=4( C=4( C=4( C=4( C=4( C=4( C=4( C=4( C=4( C=4( C=4( C=4( C=4( C=4( C=4( C=4( C=4( C=4( C=4( C=4( C=4( C=4( C=4( C=4( C=4( C=4( C=4( C=4( C=4( C=4( C=4( C=4( C=4( C=4( C=4( C=4( C=4( C=4( C=4( C=4( C=4( C=4( C=4( C=4( C=4( C=4( C=4( C=4( C=4( C=4( C=4( C=4( C=4( C=4( C=4( C=4( C=4( C=4( C=4( C=4( C=4( C=4( C=4( C=4( C=4( C=4( C=4( C=4( C=4( C=4( C=4( C=4( C=4( C=4( C=4( C=4( C=4( C=4( C=4( C=4( C=4( C=4( C=4( C=4( C=4( C=4( C=4( C=4( C=4( C=4( C=4( C=4( C=4( C=4( C=4( C=4( C=4( C=4( C=4( C=4( C=4( C=4( C=4( C=4( C=4( C=4( C=4( C=4( C=4( C=4( C=4( C=4( C=4( C=4( C=4( C=4( C=4( C=4( C=4( C=4( C=4( C=4( C=4( C=4( C=4( C=4( C=4( C=4( C=4( C=4( C=4( C=4( C=4( C=4( C=4( C=4( C=4( C=4( C=4( C=4( C=4( C=4( C=4( C=4( C=4( C=4( C=4( C=4( C=4( C=4( C=4( C=4( C=4( C=4( C=4( C=4( C=4( C=4( C=4( C=4( C=4( C=4( C=4( C=4( C=4( C=4( C=4( C=4( C=4( C=4( C=4( C=4( C=4( =4( =4( =4( =4( =4( =4( A=4( A=4( A=4( A=4( A=4( A=4( A=4( A=4( A=4( A=4( A=4( A=4( A=4( A=4( A=4( A=4( A=4( A=4( A=4( A=4( A=4( A=4( A=4( A=4( A=4( A=4( A=4( A=4( A=4( A=4( A=4( A=4( A=4( A=4( A=4( A=4( A=4( A=4( A=4( A=4( A=4( A=4( A=4( A=4( A=4( A=4( A=4( A=4( A=4( A=4( A=4( A=4( A=4( A=4( A=4( A=4( A=4( A=4( A=4( A=4( A=4( A=4( A=4( A=4( A=4( A=4( A=4( A=4( A=4( A=4( A=4( A=4( A=4( A=4( A=4( A=4( A=4( A=4( A=4( A=4( A=4( A=4( A=4( A=4( A=4( A=4( A=4( A=4( A=4( A=4( A=4( A=4( A=4( A=4( A=4( A=4( A=4( A=4( A=4( A=4( A=4( A=4( A=4( A=4( A=4( A=4( A=4( A=4( A=4( A=4( A=4( A=4( A=4( A=4( A=4( A=4( A=4( A=4( A=4( A=4( A=4( A=4( A=4( A=4( A=4( A=4( A=4( A=4( A=4( A=4( A=4( A=4( A=4( A=4( A=4( A=4( A=4( A=4( A=4( A=4( A=4( A=4( A=4( A=4( A=4( A=4( A=4( A=4( A=4( A=4( A=4( A=4( A=4( A=4( A=4( A=4( A=4( A=4( A=4( A=4( A=4( A=4( A=4( A=4( A=4( A=4( A=4( A=4( A=4( A=4( A=4( A=4( A=4( A=4( A=4( A=4( A=4( A=4( A=4( A=4( A=4( A=4( A=4( A=4( A=4( A=4( A=4( A=4( A=4( A=4( A=4( A=4( A=4( A=4( A=4( A=4( A=4( A=4( A=4( A=4( =4( =4( ( ( C( C( C( C( C( C( C( C( C( C( C( C( C( C( C( C( C( C( C( C( C( C( C( C( C( C( C( C( C( C( C( C( C( C( C( C( C( C( C( C( C( C( C( C( C( C( C( C( C( C( C( C( C( C( C( C( C( C( C( C( C( C( C( C( C( C( C( C( C( C( C( C( C( C( C( C( C( C( C( C( C( C( C( C( C( C( C( C( C( C( C( C( C( C( C( C( C( C( C( C( C( C( C( C( C( C( C( C( C( C( C( C( C( C( C( C( C( C( C( C( C( C( C( C( C( C( C( C( C( C( C( C( C( C( C( C( C( C( C( C( C( C( C( C( C( C( C( C( C( C( C( C( C( C( C( C( C( C( C( C( C( C( C( C( C( C( C( C( C( C( C( C( C( C( C( C( C( C( C( C( C( C( C( C( C( C( C( C( C( C( C( C( C( C( C( C( C( C( C( C( C( C( C( C( C( C( C( C( C( C( C( C( C( C( C( C( C( C( C( C( C( C( C( C( C( C( C( C( C( C( C( C( C( C( C( C( C( C( C( C( C( C( C( C( C( C( C( C( C( C( C( C( C( C( C( C( C( C( C( C( C( C( C( C( C( C( C( C( C( C( C( C( C( C( C( C( C( C( C( C( C( C( C( C( C( C( C( C( C( C( C( C( C( C( C( C( C( C( C( C( C( C( C( C( C( C( C( C( C( C( C( C( C( C( C( C( C( C( C( C( C( C( C( C( C( C( C( C( C( C( C( C( C( C( C( C( C( C( C( C( C( C( C( C( C( C( C( C( C( C( C( C( C( C( C( C( C( C( C( C( C( C( C( C( C( C( C( C( C( C( C( C( C( C( C( C( C( C( C( C( C( C( C( C( C( C( C( C( C( C( C( C( C( C( C( C( C( C( C( C( C( C( C( C( C( C( ( ( ( ( ( @( @( @( @( @( @( @( @( @( @( @( @( @( @( @( @( @( @( @( @( @( @( @( @( @( @( @( @( @( @( @( @( @( @( @( @( @( @( @( @( @( @( @( @( @( @( @( @( @( @( @( @( @( @( @( @( @( @( @( @( @( @( @( @( @( @( @( @( @( @( @( @( @( @( @( @( @( @( @( @( @( @( @( @( @( @( @( @( @( @( @( @( @( @( @( @( @( @( @( @( @( @( @( @( @( @( @( @( @( @( @( @( @( @( @( @( @( @( @( @( @( @( @( @( @( @( @( @( @( @( @( @( @( @( @( @( @( @( @( @( @( @( @( @( @( @( @( @( @( @( @( @( @( @( @( @( @( @( @( @( @( @( @( @( @( @( @( @( @( @( @( @( @( @( @( @( @( @( @( @( @( @( @( @( @( @( @( @( @( @( @( @( @( @( @( @( @( @( @( @( @( @( @( @( @( @( @( @( @( @( @( @( @( @( @( @( @( @( @( @( @( @( @( @( @( @( @( @( @( @( @( @( @( @( @( @( @( @( @( @( @( @( @( @( @( @( @( @( @( @( @( @( @( @( @( @( @( @( @( @( @( @( @( @( @( @( @( @( @( @( @( @( @( @( @( @( @( @( @( @( @( @( @( @( @( @( @( @( @( @( @( @( @( @( @( @( @( @( @( @( @( @( @( @( @( @( @( @( @( @( @( @( @( @( @( @( @( @( @( @( @( @( @( @( @( @( @( @( @( @( @( @( @( @( @( @( @( @( @( @( @( @( @( @( @( @( @( @( @( @( @( @( @( @( @( @( @( @( @( @( @( @( @( @( @( @( @( @( @( @( @( @( @( @( @( @( @( @( @( @( @( @( @( @( @( @( @( @( @( @( @( @( @( @( @( @( @( @( @( @( @( @( @( @( @( @( ( ( ( ( ( ( @=(47 @=(47 @=(47 @=(47 @=(47 @=(47 @=(47 @=(47 @=(47 @=(47 @=(47 @=(47 @=(47 @=(47 @=(47 @=(47 @=(47 @=(47 @=(47 @=(47 @=(47 @=(47 @=(47 @=(47 @=(47 @=(47 @=(47 @=(47 @=(47 @=(47 @=(47 @=(47 @=(47 @=(47 @=(47 @=(47 @=(47 @=(47 @=(47 @=(47 @=(47 @=(47 @=(47 @=(47 @=(47 @=(47 @=(47 @=(47 @=(47 @=(47 @=(47 @=(47 @=(47 @=(47 @=(47 @=(47 @=(47 @=(47 @=(47 @=(47 @=(47 @=(47 @=(47 @=(47 @=(47 @=(47 @=(47 @=(47 @=(47 @=(47 @=(47 @=(47 @=(47 @=(47 @=(47 @=(47 @=(47 @=(47 @=(47 @=(47 @=(47 @=(47 @=(47 @=(47 @=(47 @=(47 @=(47 @=(47 @=(47 @=(47 @=(47 @=(47 @=(47 @=(47 @=(47 @=(47 @=(47 @=(47 @=(47 @=(47 @=(47 @=(47 @=(47 @=(47 @=(47 @=(47 @=(47 @=(47 @=(47 @=(47 @=(47 @=(47 @=(47 @=(47 @=(47 @=(47 @=(47 @=(47 @=(47 @=(47 @=(47 @=(47 @=(47 @=(47 @=(47 @=(47 @=(47 @=(47 @=(47 @=(47 @=(47 @=(47 @=(47 @=(47 @=(47 @=(47 @=(47 @=(47 @=(47 @=(47 @=(47 @=(47 @=(47 @=(47 @=(47 @=(47 @=(47 @=(47 @=(47 @=(47 @=(47 @=(47 @=(47 @=(47 @=(47 @=(47 @=(47 @=(47 @=(47 @=(47 @=(47 @=(47 @=(47 @=(47 @=(47 @=(47 @=(47 @=(47 @=(47 @=(47 @=(47 @=(47 @=(47 @=(47 @=(47 @=(47 @=(47 @=(47 @=(47 @=(47 @=(47 @=(47 @=(47 @=(47 @=(47 @=(47 @=(47 @=(47 @=(47 @=(47 @=(47 @=(47 @=(47 @=(47 @=(47 @=(47 @=(47 @=(47 @=(47 @=(47 @=(47 @=(47 @=(47 @=(47 @=(47 @=(47 @=(47 @=(47 @=(47 @=(47 @=(47 @=(47 @=(47 @=(47 @=(47 @=(47 @=(47 @=(47 @=(47 @=(47 @=(47 @=(47 @=(47 @=(47 @=(47 @=(47 @=(47 @=(47 @=(47 @=(47 @=(47 @=(47 @=(47 @=(47 @=(47 @=(47 @=(47 @=(47 @=(47 @=(47 @=(47 @=(47 @=(47 @=(47 @=(47 @=(47 @=(47 @=(47 @=(47 @=(47 @=(47 @=(47 @=(47 @=(47 @=(47 @=(47 @=(47 @=(47 @=(47 @=(47 @=(47 @=(47 @=(47 @=(47 @=(47 @=(47 @=(47 @=(47 @=(47 @=(47 @=(47 @=(47 @=(47 @=(47 @=(47 @=(47 @=(47 @=(47 @=(47 @=(47 @=(47 @=(47 @=(47 @=(47 @=(47 @=(47 @=(47 @=(47 @=(47 @=(47 @=(47 @=(47 @=(47 @=(47 @=(47 @=(47 @=(47 @=(47 @=(47 @=(47 @=(47 @=(47 @=(47 @=(47 @=(47 @=(47 @=(47 @=(47 @=(47 @=(47 @=(47 @=(47 @=(47 @=(47 @=(47 @=(47 @=(47 @=(47 @=(47 @=(47 @=(47 @=(47 @=(47 @=(47 @=(47 @=(47 @=(47 @=(47 @=(47 @=(47 @=(47 @=(47 @=(47 @=(47 @=(47 @=(47 @=(47 @=(47 @=(47 @=(47 @=(47 @=(47 @=(47 @=(47 @=(47 @=(47 @=(47 @=(47 @=(47 @=(47 @=(47 @=(47 @=(47 @=(47 @=(47 @=(47 @=(47 @=(47 @=(47 @=(47 @=(47 @=(47 @=(47 @=(47 @=(47 @=(47 @=(47 @=(47 @=(47 @=(47 @=(47 @=(47 @=(47 @=(47 @=(47 @=(47 @=(47 @=(47 @=(47 @=(47 @=(47 @=(47 @=(47 @=(47 @=(47 @=(47 @=(47 @=(47 @=(47 @=(47 @=(47 @=(47 @=(47 @=(47 @=(47 @=(47 @=(47 @=(47 @=(47 @=(47 @=(47 @=(47 @=(47 @=(47 @=(47 @=(47 @=(47 @=(47 @=(47 @=(47 @=(47 @=(47 @=(47 @=(47 @=(47 @=(47 @=(47 @=(47 @=(47 @=(47 @=(47 @=(47 @=(47 @=(47 @=(47 @=(47 @=(47 @=(47 @=(47 @=(47 @=(47 @=(47 @=(47 @=(47 @=(47 @=(47 @=(47 @=(47 @=(47 @=(47 @=(47 @=(47 @=(47 @=(47 @=(47 @=(47 @=(47 @=(47 @=(47 @=(47 @=(47 @=(47 @=(47 @=(47 @=(47 @=(47 @=(47 @=(47 @=(47 @=(47 @=(47 @=(47 @=(47 @=(47 @=(47 @=(47 @=(47 @=(47 @=(47 @=(47 @=(47 @=(47 @=(47 @=(47 @=(47 @=(47 @=(47 @=(47 @=(47 @=(47 @=(47 @=(47 @=(47 @=(47 @=(47 @=(47 @=(47 @=(47 @=(47 @=(47 @=(47 @=(47 @=(47 @=(47 @=(47 @=(47 @=(47 @=(47 @=(47 @=(47 @=(47 @=(47 @=(47 @=(47 @=(47 @=(47 @=(47 @=(47 @=(47 @=(47 @=(47 @=(47 @=(47 @=(47 @=(47 @=(47 @=(47 @=(47 @=(47 @=(47 @=(47 @=(47 @=(47 @=(47 @=(47 @=(47 @=(47 @=(47 @=(47 @=(47 @=(47 @=(47 @=(47 @=(47 @=(47 @=(47 @=(47 @=(47 @=(47 @=(47 @=(47 @=(47 @=(47 @=(47 @=(47 @=(47 @=(47 @=(47 @=(47 @=(47 @=(47 @=(47 @=(47 @=(47 @=(47 @=(47 @=(47 @=(47 @=(47 @=(47 @=(47 @=(47 @=(47 @=(47 @=(47 @=(47 @=(47 @=(47 @=(47 @=(47 @=(47 @=(47 @=(47 @=(47 @=(47 @=(47 @=(47 @=(47 @=(47 @=(47 @=(47 @=(47 @=(47 @=(47 @=(47 @=(47 @=(47 @=(47 @=(47 @=(47 @=(47 @=(47 @=(47 @=(47 @=(47 @=(47 @=(47 @=(47 @=(47 @=(47 @=(47 @=(47 @=(47 @=(47 @=(47 @=(47 @=(47 @=(47 @=(47 @=(47 @=(47 @=(47 @=(47 @=(47 @=(47 @=(47 @=(47 @=(47 @=(47 @=(47 @=(47 @=(47 @=(47 @=(47 @=(47 @=(47 @=(47 @=(47 @=(47 @=(47 @=(47 @=(47 @=(47 @=(47 @=(47 @=(47 @=(47 @=(47 @=(47 @=(47 @=(47 @=(47 @=(47 @=(47 @=(47 @=(47 @=(47 @=(47 @=(47 @=(47 @=(47 @=(47 @=(47 @=(47 @=(47 @=(47 @=(47 @=(47 @=(47 @=(47 @=(47 @=(47 @=(47 @=(47 @=(47 @=(47 @=(47 @=(47 @=(47 @=(47 @=(47 @=(47 @=(47 @=(47 @=(47 @=(47 @=(47 @=(47 @=(47 @=(47 @=(47 @=(47 @=(47 @=(47 @=(47 @=(47 @=(47 @=(47 @=(47 @=(47 @=(47 @=(47 @=(47 @=(47 @=(47 @=(47 @=(47 @=(47 @=(47 @=(47 @=(47 @=(47 @=(47 @=(47 @=(47 @=(47 @=(47 @=(47 @=(47 @=(47 @=(47 @=(47 @=(47 @=(47 @=(47 @=(47 @=(47 @=(47 @=(47 @=(47 @=(47 @=(47 @=(47 @=(47 @=(47 @=(47 @=(47 @=(47 @=(47 @=(47 @=(47 @=(47 @=(47 @=(47 @=(47 @=(47 @=(47 @=(47 @=(47 @=(47 @=(47 @=(47 @=(47 @=(47 @=(47 @=(47 @=(47 @=(47 @=(47 @=(47 @=(47 @=(47 @=(47 @=(47 @=(47 @=(47 @=(47 @=(47 @=(47 @=(47 @=(47 @=(47 @=(47 @=(47 @=(47 @=(47 @=(47 @=(47 @=(47 @=(47 @=(47 @=(47 @=(47 @=(47 @=(47 @=(47 @=(47 @=(47 @=(47 @=(47 @=(47 @=(47 @=(47 @=(47 @=(47 @=(47 @=(47 @=(47 @=(47 @=(47 @=(47 @=(47 @=(47 @=(47 @=(47 @=(47 @=(47 @=(47 @=(47 @=(47 @=(47 @=(47 @=(47 @=(47 @=(47 @=(47 @=(47 @=(47 @=(47 @=(47 @=(47 @=(47 @=(47 @=(47 @=(47 @=(47 @=(47 @=(47 @=(47 @=(47 @=(47 @=(47 @=(47 @=(47 @=(47 @=(47 @=(47 @=(47 @=(47 @=(47 @=(47 @=(47 @=(47 @=(47 @=(47 @=(47 @=(47 @=(47 @=(47 @=(47 @=(47 @=(47 @=(47 @=(47 @=(47 @=(47 @=(47 @=(47 @=(47 @=(47 @=(47 @=(47 @=(47 @=(47 @=(47 @=(47 @=(47 @=(47 @=(47 @=(47 @=(47 @=(47 @=(47 @=(47 @=(47 @=(47 @=(47 @=(47 @=(47 @=(47 @=(47 @=(47 @=(47 @=(47 @=(47 @=(47 @=(47 @=(47 @=(47 @=(47 @=(47 @=(47 @=(47 @=(47 @=(47 @=(47 @=(47 @=(47 @=(47 @=(47 @=(47 @=(47 @=(47 @=(47 @=(47 @=(47 @=(47 @=(47 @=(47 @=(47 @=(47 @=(47 @=(47 @=(47 @=(47 @=(47 @=(47 @=(47 @=(47 @=(47 @=(47 @=(47 @=(47 @=(47 @=(47 @=(47 @=(47 @=(47 @=(47 @=(47 @=(47 @=(47 @=(47 @=(47 @=(47 @=(47 @=(47 @=(47 @=(47 @=(47 @=(47 @=(47 @=(47 @=(47 @=(47 @=(47 @=(47 @=(47 @=(47 @=(47 @=(47 @=(47 @=(47 @=(47 @=(47 @=(47 @=(47 @=(47 @=(47 @=(47 @=(47 @=(47 @=(47 @=(47 @=(47 @=(47 @=(47 @=(47 @=(47 @=(47 @=(47 @=(47 @=(47 @=(47 @=(47 @=(47 @=(47 @=(47 @=(47 @=(47 @=(47 @=(47 @=(47 @=(47 @=(47 @=(47 @=(47 @=(47 @=(47 @=(47 @=(47 @=(47 @=(47 @=(47 @=(47 @=(47 @=(47 @=(47 @=(47 @=(47 @=(47 @=(47 @=(47 @=(47 @=(47 @=(47 @=(47 @=(47 @=(47 @=(47 @=(47 @=(47 @=(47 @=(47 @=(47 @=(47 @=(47 @=(47 @=(47 @=(47 @=(47 @=(47 @=(47 @=(47 @=(47 @=(47 @=(47 @=(47 @=(47 @=(47 @=(47 @=(47 @=(47 @=(47 @=(47 @=(47 @=(47 @=(47 @=(47 @=(47 @=(47 @=(47 @=(47 @=(47 @=(47 @=(47 @=(47 @=(47 @=(47 @=(47 @=(47 @=(47 @=(47 @=(47 @=(47 @=(47 @=(47 @=(47 @=(47 @=(47 @=(47 @=(47 @=(47 @=(47 @=(47 @=(47 @=(47 @=(47 @=(47 @=(47 @=(47 @=(47 @=(47 @=(47 @=(47 @=(47 @=(47 @=(47 @=(47 @=(47 @=(47 @=(47 @=(47 @=(47 @=(47 @=(47 @=(47 @=(47 @=(47 @=(47 @=(47 @=(47 @=(47 @=(47 @=(47 @=(47 @=(47 @=(47 @=(47 @=(47 @=(47 @=(47 @=(47 @=(47 @=(47 @=(47 @=(47 @=(47 @=(47 @=(47 @=(47 @=(47 @=(47 @=(47 @=(47 @=(47 @=(47 @=(47 @=(47 @=(47 @=(47 @=(47 @=(47 @=(47 @=(47 @=(47 @=(47 @=(47 @=(47 @=(47 @=(47 @=(47 @=(47 @=(47 @=(47 @=(47 @=(47 @=(47 @=(47 @=(47 @=(47 @=(47 @=(47 @=(47 @=(47 @=(47 @=(47 @=(47 @=(47 @=(47 @=(47 @=(47 @=(47 @=(47 @=(47 @=(47 @=(47 @=(47 @=(47 @=(47 @=(47 @=(47 @=(47 @=(47 @=(47 @=(47 @=(47 @=(47 @=(47 @=(47 @=(47 @=(47 @=(47 @=(47 @=(47 @=(47 @=(47 @=(47 @=(47 @=(47 @=(47 @=(47 @=(47 @=(47 @=(47 @=(47 @=(47 @=(47 @=(47 @=(47 @=(47 @=(47 @=(47 @=(47 @=(47 @=(47 @=(47 @=(47 @=(47 @=(47 @=(47 @=(47 @=(47 @=(47 @=(47 @=(47 @=(47 @=(47 @=(47 @=(47 @=(47 @=(47 @=(47 @=(47 @=(47 @=(47 @=(47 @=(47 @=(47 @=(47 @=(47 @=(47 @=(47 @=(47 @=(47 @=(47 @=(47 @=(47 @=(47 @=(47 @=(47 @=(47 @=(47 @=(47 @=(47 @=(47 @=(47 (47 (47 (47 (47 (47 (47 F(47 F(47 F(47 F(47 F(47 F(47 F(47 F(47 F(47 F(47 F(47 F(47 F(47 F(47 F(47 F(47 F(47 F(47 F(47 F(47 F(47 F(47 F(47 F(47 F(47 F(47 F(47 F(47 F(47 F(47 F(47 F(47 F(47 F(47 F(47 F(47 F(47 F(47 F(47 F(47 F(47 F(47 F(47 F(47 F(47 F(47 F(47 F(47 F(47 F(47 F(47 F(47 F(47 F(47 F(47 F(47 F(47 F(47 F(47 F(47 F(47 F(47 F(47 F(47 F(47 F(47 F(47 F(47 F(47 F(47 F(47 F(47 F(47 F(47 F(47 F(47 F(47 F(47 F(47 F(47 F(47 F(47 F(47 F(47 F(47 F(47 F(47 F(47 F(47 F(47 F(47 F(47 F(47 F(47 F(47 F(47 F(47 F(47 F(47 F(47 F(47 F(47 F(47 F(47 F(47 F(47 F(47 F(47 F(47 F(47 F(47 F(47 F(47 F(47 F(47 F(47 F(47 F(47 F(47 F(47 F(47 F(47 F(47 F(47 F(47 F(47 F(47 F(47 F(47 F(47 F(47 F(47 F(47 F(47 F(47 F(47 F(47 F(47 F(47 F(47 F(47 F(47 F(47 F(47 F(47 F(47 F(47 F(47 F(47 F(47 F(47 F(47 F(47 F(47 F(47 F(47 F(47 F(47 F(47 F(47 F(47 F(47 F(47 F(47 F(47 F(47 F(47 F(47 F(47 F(47 F(47 F(47 F(47 F(47 F(47 F(47 F(47 F(47 F(47 F(47 F(47 F(47 F(47 F(47 F(47 F(47 F(47 F(47 F(47 F(47 F(47 F(47 F(47 F(47 F(47 F(47 F(47 F(47 F(47 F(47 (47 (47 (47 (47 (47 (E47 (E47 (E47 (E47 (E47 (E47 (E47 (E47 (E47 (E47 (E47 (E47 (E47 (E47 (E47 (E47 (E47 (E47 (E47 (E47 (E47 (E47 (E47 (E47 (E47 (E47 (E47 (E47 (E47 (E47 (E47 (E47 (E47 (E47 (E47 (E47 (E47 (E47 (E47 (E47 (E47 (E47 (E47 (E47 (E47 (E47 (E47 (E47 (E47 (E47 (E47 (E47 (E47 (E47 (E47 (E47 (E47 (E47 (E47 (E47 (E47 (E47 (E47 (E47 (E47 (E47 (E47 (E47 (E47 (E47 (E47 (E47 (E47 (E47 (E47 (E47 (E47 (E47 (E47 (E47 (E47 (E47 (E47 (E47 (E47 (E47 (E47 (E47 (E47 (E47 (E47 (E47 (E47 (E47 (E47 (E47 (E47 (E47 (E47 (E47 (E47 (E47 (E47 (E47 (E47 (E47 (E47 (E47 (E47 (E47 (E47 (E47 (E47 (E47 (E47 (E47 (E47 (E47 (E47 (E47 (E47 (E47 (E47 (E47 (E47 (E47 (E47 (E47 (E47 (E47 (E47 (E47 (E47 (E47 (E47 (E47 (E47 (E47 (E47 (E47 (E47 (E47 (E47 (E47 (E47 (E47 (E47 (E47 (E47 (E47 (E47 (E47 (E47 (E47 (E47 (E47 (E47 (E47 (E47 (E47 (E47 (E47 (E47 (E47 (E47 (E47 (E47 (E47 (E47 (E47 (E47 (E47 (E47 (E47 (E47 (E47 (E47 (E47 (E47 (E47 (E47 (E47 (E47 (E47 (E47 (E47 (E47 (E47 (E47 (E47 (E47 (E47 (E47 E47 E47 E47 E47 E47 E47 E47 47 7 7   E* E* E* E* E* E* E* E* E* E* E* E* E* E* E* E* E* E* E* E* E* E* E* E* E* E* E* E* E* E* E* E* E* E* E* E* E* E* E* E* E* E* E* E* E* E* E* E* E* E* E* E* E* E* E* E* E* E* E* E* E* E* E* E* E* E* E* E* E* E* E* E* E* E* E* E* E* E* E* E* E* E* E* E* E* E* E* E* E* E* E* E* E* E* E* E* E* E* E* E* E* E* E* E* E* E* E* E* E* E* E* E* E* E* E* E* E* E* E* E* E* E* E* E* E* E* E* E* E* E* E* E* E* E* E* E* E* E* E* E* E* E* E* E* E* E* E* E* E* E* E* E* E* E* E* E* E* E* E* E* E* E* E* E* E* E* E* E* E* E* E* E* E* E* E* E* E* E* E* E* E* E* E* E* E* E* E* E* E* E* E* E* E* E* E* E* E* E* E* E* * * * * * H* H* H* H* H* H* H* H* H* H* H* H* H* H* H* H* H* H* H* H* H* H* H* H* H* H* H* H* H* H* H* H* H* H* H* H* H* H* H* H* H* H* H* H* H* H* H* H* H* H* H* H* H* H* H* H* H* H* H* H* H* H* H* H* H* H* H* H* H* H* H* H* H* H* H* H* H* H* H* H* H* H* H* H* H* H* H* H* H* H* H* H* H* H* H* H* H* H* * * * * * * F* F* F* F* F* F* F* F* F* F* F* F* F* F* F* F* F* F* F* F* F* F* F* F* F* F* F* F* F* F* F* F* F* F* F* F* F* F* F* F* F* F* F* F* F* F* F* F* F* F* F* F* F* F* F* F* F* F* F* F* F* F* F* F* F* F* F* F* F* F* F* F* F* F* F* F* F* F* F* F* F* F* F* F* F* F* F* F* F* F* F* F* F* F* F* F* F* F* * * * * * * E* E* E* E* E* E* E* E* E* E* E* E* E* E* E* E* E* E* E* E* E* E* E* E* E* E* E* E* E* E* E* E* E* E* E* E* E* E* E* E* E* E* E* E* E* E* E* E* E* E* E* E* E* E* E* E* E* E* E* E* E* E* E* E* E* E* E* E* E* E* E* E* E* E* E* E* E* E* E* E* E* E* E* E* E* E* E* E* E* E* E* E* E* E* E* E* E* E* * * * * * F* F* F* F* F* F* F* F* F* F* F* F* F* F* F* F* F* F* F* F* F* F* F* F* F* F* F* F* F* F* F* F* F* F* F* F* F* F* F* F* F* F* F* F* F* F* F* F* F* F* F* F* F* F* F* F* F* F* F* F* F* F* F* F* F* F* F* F* F* F* F* F* F* F* F* F* F* F* F* F* F* F* F* F* F* F* F* F* F* F* F* F* F* F* F* F* F* F* * * * * * * *H *H *H *H *H *H *H *H *H *H *H *H *H *H *H *H *H *H *H *H *H *H *H *H *H *H *H *H *H *H *H *H *H *H *H *H *H *H *H *H *H *H *H *H *H *H *H *H *H *H *H *H *H *H *H *H *H *H *H *H *H *H *H *H *H *H *H *H *H *H *H *H *H *H *H *H *H *H *H *H *H *H *H *H *H *H *H *H *H *H *H *H *H *H *H *H *H *H *H *H *H *H *H *H *H *H *H *H *H *H *H *H *H *H *H *H *H *H *H *H *H *H *H *H *H *H *H *H *H *H *H *H *H *H *H *H *H *H *H *H *H *H *H *H *H *H *H *H *H *H *H *H *H *H *H *H *H *H *H *H *H *H *H *H *H *H *H *H *H *H *H *H *H *H *H *H *H *H *H *H *H *H *H *H *H *H *H *H *H *H *H *H *H *H *H *H *H *H *H *H *H H H H H H H>9 H>9 H>9 H>9 H>9 H>9 H>9 H>9 H>9 H>9 H>9 H>9 H>9 H>9 H>9 H>9 H>9 H>9 H>9 H>9 H>9 H>9 H>9 H>9 H>9 H>9 H>9 H>9 H>9 H>9 H>9 H>9 H>9 H>9 H>9 H>9 H>9 H>9 H>9 H>9 H>9 H>9 H>9 H>9 H>9 H>9 H>9 H>9 H>9 H>9 H>9 H>9 H>9 H>9 H>9 H>9 H>9 H>9 H>9 H>9 H>9 H>9 H>9 H>9 H>9 H>9 H>9 H>9 H>9 H>9 H>9 H>9 H>9 H>9 H>9 H>9 H>9 H>9 H>9 H>9 H>9 H>9 H>9 H>9 H>9 H>9 H>9 H>9 H>9 H>9 H>9 H>9 H>9 H>9 H>9 H>9 H>9 H>9 H>9 H>9 H>9 H>9 H>9 H>9 H>9 H>9 H>9 H>9 H>9 H>9 H>9 H>9 H>9 H>9 H>9 H>9 H>9 H>9 H>9 H>9 H>9 H>9 H>9 H>9 H>9 H>9 H>9 H>9 H>9 H>9 H>9 H>9 H>9 H>9 H>9 H>9 H>9 H>9 H>9 H>9 H>9 H>9 H>9 H>9 H>9 H>9 H>9 H>9 H>9 H>9 H>9 H>9 H>9 H>9 H>9 H>9 H>9 H>9 H>9 H>9 H>9 H>9 H>9 H>9 H>9 H>9 H>9 H>9 H>9 H>9 H>9 H>9 H>9 H>9 H>9 H>9 H>9 H>9 H>9 H>9 H>9 H>9 H>9 H>9 H>9 H>9 H>9 H>9 H>9 H>9 H>9 H>9 H>9 H>9 H>9 H>9 H>9 H>9 H>9 H>9 H>9 H>9 H>9 H>9 H>9 H>9 H>9 H>9 H>9 H>9 H>9 H>9 H>9 H>9 H>9 H>9 H>9 H>9 H>9 H>9 H>9 H>9 H>9 H>9 H>9 H>9 H>9 H>9 H>9 H>9 H>9 H>9 H>9 H>9 H>9 H>9 H>9 H>9 H>9 H>9 H>9 H>9 H>9 H>9 H>9 H>9 H>9 H>9 H>9 H>9 H>9 H>9 H>9 H>9 H>9 H>9 H>9 H>9 H>9 H>9 H>9 H>9 H>9 H>9 H>9 H>9 H>9 H>9 H>9 H>9 H>9 H>9 H>9 H>9 H>9 H>9 H>9 H>9 H>9 H>9 H>9 H>9 H>9 H>9 H>9 H>9 H>9 H>9 H>9 H>9 H>9 H>9 H>9 H>9 H>9 H>9 H>9 H>9 H>9 H>9 H>9 H>9 H>9 H>9 H>9 H>9 H>9 H>9 H>9 H>9 H>9 H>9 H>9 H>9 H>9 H>9 H>9 H>9 H>9 H>9 H>9 H>9 H>9 H>9 H>9 H>9 H>9 H>9 H>9 H>9 H>9 H>9 H>9 H>9 H>9 H>9 H>9 H>9 H>9 H>9 H>9 H>9 H>9 H>9 H>9 H>9 H>9 H>9 H>9 H>9 H>9 H>9 H>9 H>9 H>9 H>9 H>9 H>9 H>9 H>9 H>9 H>9 H>9 H>9 H>9 H>9 H>9 H>9 H>9 H>9 H>9 H>9 H>9 H>9 H>9 H>9 H>9 H>9 H>9 H>9 H>9 H>9 H>9 H>9 H>9 H>9 H>9 H>9 H>9 H>9 H>9 H>9 H>9 H>9 H>9 H>9 H>9 H>9 H>9 H>9 H>9 H>9 H>9 H>9 H>9 H>9 H>9 H>9 H>9 H>9 H>9 H>9 H>9 H>9 H>9 H>9 H>9 H>9 H>9 H>9 H>9 H>9 H>9 H>9 H>9 H>9 H>9 H>9 H>9 H>9 H>9 H>9 H>9 H>9 H>9 H>9 H>9 H>9 H>9 H>9 H>9 H>9 H>9 H>9 H>9 H>9 H>9 H>9 H>9 H>9 H>9 H>9 H>9 H>9 H>9 H>9 H>9 H>9 H>9 H>9 H>9 H>9 H>9 H>9 H>9 H>9 H>9 H>9 H>9 H>9 H>9 H>9 H>9 H>9 H>9 H>9 H>9 H>9 H>9 H>9 H>9 H>9 H>9 H>9 H>9 H>9 H>9 H>9 H>9 H>9 H>9 H>9 H>9 H>9 H>9 H>9 H>9 H>9 H>9 H>9 H>9 H>9 H>9 H>9 H>9 H>9 H>9 H>9 H>9 H>9 H>9 H>9 H>9 H>9 H>9 H>9 H>9 H>9 H>9 H>9 H>9 H>9 H>9 H>9 H>9 H>9 H>9 H>9 H>9 H>9 H>9 H>9 H>9 H>9 H>9 H>9 H>9 H>9 H>9 H>9 H>9 H>9 H>9 H>9 H>9 H>9 H>9 H>9 H>9 H>9 H>9 H>9 H>9 H>9 H>9 H>9 H>9 H>9 H>9 H>9 H>9 H>9 H>9 H>9 H>9 H>9 H>9 H>9 H>9 H>9 H>9 H>9 H>9 H>9 H>9 H>9 H>9 H>9 H>9 H>9 H>9 H>9 H>9 H>9 H>9 H>9 H>9 H>9 H>9 H>9 H>9 H>9 H>9 H>9 H>9 H>9 H>9 H>9 H>9 H>9 H>9 H>9 H>9 H>9 H>9 H>9 H>9 >9 >9 >9 >9 >9 >9 >9 >9 >9 >9 @>9 @>9 @>9 @>9 @>9 @>9 @>9 @>9 @>9 @>9 @>9 @>9 @>9 @>9 @>9 @>9 @>9 @>9 @>9 @>9 @>9 @>9 @>9 @>9 @>9 @>9 @>9 @>9 @>9 @>9 @>9 @>9 @>9 @>9 @>9 @>9 @>9 @>9 @>9 @>9 @>9 @>9 @>9 @>9 @>9 @>9 @>9 @>9 @>9 @>9 @>9 @>9 @>9 @>9 @>9 @>9 @>9 @>9 @>9 @>9 @>9 @>9 @>9 @>9 @>9 @>9 @>9 @>9 @>9 @>9 @>9 @>9 @>9 @>9 @>9 @>9 @>9 @>9 @>9 @>9 @>9 @>9 @>9 @>9 @>9 @>9 @>9 @>9 @>9 @>9 @>9 @>9 @>9 @>9 @>9 @>9 @>9 @>9 >9 >9 >9 >9 >9 >9 B>9 B>9 B>9 B>9 B>9 B>9 B>9 B>9 B>9 B>9 B>9 B>9 B>9 B>9 B>9 B>9 B>9 B>9 B>9 B>9 B>9 B>9 B>9 B>9 B>9 B>9 B>9 B>9 B>9 B>9 B>9 B>9 B>9 B>9 B>9 B>9 B>9 B>9 B>9 B>9 B>9 B>9 B>9 B>9 B>9 B>9 B>9 B>9 B>9 B>9 B>9 B>9 B>9 B>9 B>9 B>9 B>9 B>9 B>9 B>9 B>9 B>9 B>9 B>9 B>9 B>9 B>9 B>9 B>9 B>9 B>9 B>9 B>9 B>9 B>9 B>9 B>9 B>9 B>9 B>9 B>9 B>9 B>9 B>9 B>9 B>9 B>9 B>9 B>9 B>9 B>9 B>9 B>9 B>9 B>9 B>9 B>9 B>9 >9 >9 >9 >9 >9 C>9 C>9 C>9 C>9 C>9 C>9 C>9 C>9 C>9 C>9 C>9 C>9 C>9 C>9 C>9 C>9 C>9 C>9 C>9 C>9 C>9 C>9 C>9 C>9 C>9 C>9 C>9 C>9 C>9 C>9 C>9 C>9 C>9 C>9 C>9 C>9 C>9 C>9 C>9 C>9 C>9 C>9 C>9 C>9 C>9 C>9 C>9 C>9 C>9 C>9 C>9 C>9 C>9 C>9 C>9 C>9 C>9 C>9 C>9 C>9 C>9 C>9 C>9 C>9 C>9 C>9 C>9 C>9 C>9 C>9 C>9 C>9 C>9 C>9 C>9 C>9 C>9 C>9 C>9 C>9 C>9 C>9 C>9 C>9 C>9 C>9 C>9 C>9 C>9 C>9 C>9 C>9 C>9 C>9 C>9 C>9 C>9 C>9 >9 >9 >9 >9 >9 >9 B>9 B>9 B>9 B>9 B>9 B>9 B>9 B>9 B>9 B>9 B>9 B>9 B>9 B>9 B>9 B>9 B>9 B>9 B>9 B>9 B>9 B>9 B>9 B>9 B>9 B>9 B>9 B>9 B>9 B>9 B>9 B>9 B>9 B>9 B>9 B>9 B>9 B>9 B>9 B>9 B>9 B>9 B>9 B>9 B>9 B>9 B>9 B>9 B>9 B>9 B>9 B>9 B>9 B>9 B>9 B>9 B>9 B>9 B>9 B>9 B>9 B>9 B>9 B>9 B>9 B>9 B>9 B>9 B>9 B>9 B>9 B>9 B>9 B>9 B>9 B>9 B>9 B>9 B>9 B>9 B>9 B>9 B>9 B>9 B>9 B>9 B>9 B>9 B>9 B>9 B>9 B>9 B>9 B>9 B>9 B>9 B>9 B>9 >9 >9 >9 >9 >9 >9 C>9 C>9 C>9 C>9 C>9 C>9 C>9 C>9 C>9 C>9 C>9 C>9 C>9 C>9 C>9 C>9 C>9 C>9 C>9 C>9 C>9 C>9 C>9 C>9 C>9 C>9 C>9 C>9 C>9 C>9 C>9 C>9 C>9 C>9 C>9 C>9 C>9 C>9 C>9 C>9 C>9 C>9 C>9 C>9 C>9 C>9 C>9 C>9 C>9 C>9 C>9 C>9 C>9 C>9 C>9 C>9 C>9 C>9 C>9 C>9 C>9 C>9 C>9 C>9 C>9 C>9 C>9 C>9 C>9 C>9 C>9 C>9 C>9 C>9 C>9 C>9 C>9 C>9 C>9 C>9 C>9 C>9 C>9 C>9 C>9 C>9 C>9 C>9 C>9 C>9 C>9 C>9 C>9 C>9 C>9 C>9 C>9 C>9 >9 >9 >9 >9 >9 B>9 B>9 B>9 B>9 B>9 B>9 B>9 B>9 B>9 B>9 B>9 B>9 B>9 B>9 B>9 B>9 B>9 B>9 B>9 B>9 B>9 B>9 B>9 B>9 B>9 B>9 B>9 B>9 B>9 B>9 B>9 B>9 B>9 B>9 B>9 B>9 B>9 B>9 B>9 B>9 B>9 B>9 B>9 B>9 B>9 B>9 B>9 B>9 B>9 B>9 B>9 B>9 B>9 B>9 B>9 B>9 B>9 B>9 B>9 B>9 B>9 B>9 B>9 B>9 B>9 B>9 B>9 B>9 B>9 B>9 B>9 B>9 B>9 B>9 B>9 B>9 B>9 B>9 B>9 B>9 B>9 B>9 B>9 B>9 B>9 B>9 B>9 B>9 B>9 B>9 B>9 B>9 B>9 B>9 B>9 B>9 B>9 B>9 >9 >9 >9 >9 >9 >9 C>9 C>9 C>9 C>9 C>9 C>9 C>9 C>9 C>9 C>9 C>9 C>9 C>9 C>9 C>9 C>9 C>9 C>9 C>9 C>9 C>9 C>9 C>9 C>9 C>9 C>9 C>9 C>9 C>9 C>9 C>9 C>9 C>9 C>9 C>9 C>9 C>9 C>9 C>9 C>9 C>9 C>9 C>9 C>9 C>9 C>9 C>9 C>9 C>9 C>9 C>9 C>9 C>9 C>9 C>9 C>9 C>9 C>9 C>9 C>9 C>9 C>9 C>9 C>9 C>9 C>9 C>9 C>9 C>9 C>9 C>9 C>9 C>9 C>9 C>9 C>9 C>9 C>9 C>9 C>9 C>9 C>9 C>9 C>9 C>9 C>9 C>9 C>9 C>9 C>9 C>9 C>9 C>9 C>9 C>9 C>9 C>9 C>9 >9 >9 >9 >9 >9 >9 B>9 B>9 B>9 B>9 B>9 B>9 B>9 B>9 B>9 B>9 B>9 B>9 B>9 B>9 B>9 B>9 B>9 B>9 B>9 B>9 B>9 B>9 B>9 B>9 B>9 B>9 B>9 B>9 B>9 B>9 B>9 B>9 B>9 B>9 B>9 B>9 B>9 B>9 B>9 B>9 B>9 B>9 B>9 B>9 B>9 B>9 B>9 B>9 B>9 B>9 B>9 B>9 B>9 B>9 B>9 B>9 B>9 B>9 B>9 B>9 B>9 B>9 B>9 B>9 B>9 B>9 B>9 B>9 B>9 B>9 B>9 B>9 B>9 B>9 B>9 B>9 B>9 B>9 B>9 B>9 B>9 B>9 B>9 B>9 B>9 B>9 B>9 B>9 B>9 B>9 B>9 B>9 B>9 B>9 B>9 B>9 B>9 B>9 >9 >9 >9 >9 >9 >@9 >@9 >@9 >@9 >@9 >@9 >@9 >@9 >@9 >@9 >@9 >@9 >@9 >@9 >@9 >@9 >@9 >@9 >@9 >@9 >@9 >@9 >@9 >@9 >@9 >@9 >@9 >@9 >@9 >@9 >@9 >@9 >@9 >@9 >@9 >@9 >@9 >@9 >@9 >@9 >@9 >@9 >@9 >@9 >@9 >@9 >@9 >@9 >@9 >@9 >@9 >@9 >@9 >@9 @9 @9 @9 @9 @9 @9 @9 @9 @9 @9 @9 @9 @9 @9 @9 @9 @9 @9 @9 @9 @9 @9 @9 @9 @9 @9 @9 @9 @9 @9 @9 @9 @9 @9 @9 @9 @9 @9 @9 @9 @9 @9 @9 @9 @9 @9 @9 @9 @9B @9B @9B @9B @9B @9B @9B @9B @9B @9B @9B @9B @9B 9B 9B 9B 9B 9B 9B 9B 9B 9B 9B 9B 9B 9B 9B 9B 9B 9B 9B 9B 9B 9B 9B 9B 9B 9B 9B 9B 9B 9B 9B 9B 9B 9B 9B 9B 9B 9B 9B 9B 9B 9B 9B 9B 9B 9B 9B 9B 9B 9B 9B 9B 9B 9B 9B 9B 9B 9B 9B 9B 9B 9B 9B 9B 9B 9B 9B 9B 9B 9B 9B 9B 9B 9B 9B 9B 9B 9B 9B 9B 9B 9B 9B 9B 9B 9B 9B B B B B B B);>C B);>C B);>C B);>C B);>C B);>C B);>C B);>C B);>C B);>C B);>C B);>C );>C );>C );>C );>C );>C );>C );>C );>C );>C );>C );>C );>C );>C );>C );>C );>C );>C );>C );>C );>C );>C );>C );>C );>C );>C );>C );>C );>C );>C );>C );>C );>C );>C );>C );>C );>C );>C );>C );>C );>C );>C );>C );>C );>C );>C );>C );>C );>C );>C );>C );>C );>C );>C );>C );>C );>C );>C );>C );>C );>C );>C );>C );>C );>C );>C );>C );>C );>C );>C );>C );>C );>C );>C );>C );>C );>C );>C );>C );>C );>C );>C );>C );>C );>C );>C );>C );>C );>C );>C );>C );>C );>C );>C );>C );>C );>C );>C );>C );>C );>C );>C );>C );>C );>C );>C );>C );>C );>C );>C );>C );>C );>C );>C );>C );>C );>C );>C );>C );>C );>C );>C );>C );>C );>C );>C );>C );>C );>C );>C );>C );>C );>C );>C );>C );>C );>C );>C );>C );>C );>C );>C );>C );>C );>C );>C );>C );>C );>C );>C );>C );>C );>C );>C );>C );>C );>C );>C );>C );>C );>C );>C );>C );>C );>C );>C );>C );>C );>C );>C );>C );>C );>C );>C );>C );>C );>C );>C );>C );>C );>C );>C );>C );>C );>C );>C );>C );>C );>C );>C );>C );>C );>C );>C );>C );>C );>C );>C );>C );>C );>C );>C );>C );>C );>C );>C );>C );>C );>C );>C );>C );>C );>C );>C );>C );>C );>C );>C );>C );>C );>C );>C );>C );>C );>C );>C );>C );>C );>C );>C );>C );>C );>C );>C );>C );>C );>C );>C );>C );>C );>C );>C );>C );>C );>C );>C );>C );>C );>C );>C );>C );>C );>C );>C );>C );>C );>C );>C );>C );>C );>C );>C );>C );>C );>C );>C );>C );>C );>C );>C );>C );>C );>C );>C );>C );>C );>C );>C );>C );>C );>C );>C );>C );>C );>C );>C );>C );>C );>C );>C );>C );>C );>C );>C );>C );>C );>C );>C );>C );>C );>C );>C );>C );>C );>C );>C );>C );>C );>C );>C );>C );>C );>C );>C );>C );>C );>C );>C );>C );>C );>C );>C );>C );>C );>C );>C );>C );>C );>C );>C );>C );>C );>C );>C );>C );>C );>C );>C );>C );>C );>C );>C );>C );>C );>C );>C );>C );>C );>C );>C );>C );>C );>C );>C );>C );>C );>C );>C );>C );>C );>C );>C );>C );>C );>C );>C );>C );>C );>C );>C );>C );>C );>C );>C );>C );>C );>C );>C );>C );>C );>C );>C );>C );>C );>C );>C );>C );>C );>C );>C );>C );>C );>C );>C );>C ;>C ;>C ;>C ;>C ;>C ;>C /;>C /;>C /;>C /;>C /;>C /;>C /;>C /;>C /;>C /;>C /;>C /;>C /;>C /;>C /;>C /;>C /;>C /;>C /;>C /;>C /;>C /;>C /;>C /;>C /;>C /;>C /;>C /;>C /;>C /;>C /;>C /;>C /;>C /;>C /;>C /;>C /;>C /;>C /;>C /;>C /;>C /;>C /;>C /;>C /;>C /;>C /;>C /;>C /;>C /;>C /;>C /;>C /;>C /;>C /;>C /;>C /;>C /;>C /;>C /;>C /;>C /;>C /;>C /;>C /;>C /;>C /;>C /;>C /;>C /;>C /;>C /;>C /;>C /;>C /;>C /;>C /;>C /;>C /;>C /;>C /;>C /;>C /;>C /;>C /;>C /;>C /;>C /;>C /;>C /;>C /;>C /;>C /;>C /;>C /;>C /;>C /;>C /;>C /;>C /;>C /;>C /;>C /;>C /;>C /;>C /;>C /;>C /;>C /;>C /;>C /;>C /;>C /;>C /;>C /;>C /;>C /;>C /;>C /;>C /;>C /;>C /;>C /;>C /;>C /;>C /;>C /;>C /;>C /;>C /;>C /;>C /;>C /;>C /;>C /;>C /;>C /;>C /;>C /;>C /;>C /;>C /;>C /;>C /;>C /;>C /;>C /;>C /;>C /;>C /;>C /;>C /;>C /;>C /;>C /;>C /;>C /;>C /;>C /;>C /;>C /;>C /;>C /;>C /;>C /;>C /;>C /;>C /;>C /;>C /;>C /;>C /;>C /;>C /;>C /;>C /;>C /;>C /;>C /;>C /;>C /;>C /;>C /;>C /;>C /;>C /;>C /;>C /;>C /;>C /;>C /;>C /;>C /;>C /;>C /;>C /;>C /;>C /;>C /;>C /;>C /;>C /;>C /;>C /;>C /;>C /;>C /;>C /;>C /;>C /;>C /;>C /;>C /;>C /;>C /;>C /;>C /;>C /;>C /;>C /;>C /;>C /;>C /;>C /;>C /;>C /;>C /;>C /;>C /;>C /;>C /;>C /;>C /;>C /;>C /;>C /;>C /;>C /;>C /;>C /;>C /;>C /;>C /;>C /;>C /;>C /;>C /;>C /;>C /;>C /;>C /;>C /;>C /;>C /;>C /;>C /;>C /;>C /;>C /;>C /;>C /;>C /;>C /;>C /;>C /;>C /;>C /;>C /;>C /;>C /;>C /;>C /;>C /;>C /;>C /;>C /;>C /;>C /;>C /;>C /;>C /;>C /;>C /;>C /;>C /;>C /;>C /;>C /;>C /;>C /;>C /;>C /;>C /;>C /;>C /;>C /;>C /;>C /;>C /;>C /;>C /;>C /;>C /;>C /;>C /;>C /;>C /;>C /;>C /;>C /;>C /;>C /;>C /;>C /;>C /;>C /;>C /;>C /;>C /;>C /;>C /;>C /;>C /;>C /;>C /;>C /;>C /;>C /;>C /;>C /;>C /;>C /;>C /;>C /;>C /;>C /;>C /;>C /;>C /;>C /;>C /;>C /;>C /;>C /;>C /;>C /;>C /;>C /;>C /;>C /;>C /;>C /;>C /;>C /;>C /;>C /;>C /;>C /;>C /;>C /;>C /;>C /;>C /;>C /;>C /;>C /;>C /;>C /;>C /;>C /;>C /;>C /;>C /;>C /;>C /;>C /;>C /;>C /;>C /;>C /;>C /;>C /;>C /;>C /;>C /;>C /;>C /;>C /;>C /;>C /;>C /;>C /;>C /;>C /;>C /;>C /;>C /;>C /;>C /;>C /;>C /;>C /;>C /;>C /;>C /;>C /;>C C C C C C 2;AC 2;AC 2;AC 2;AC 2;AC 2;AC 2;AC 2;AC 2;AC 2;AC 2;AC 2;AC 2;AC 2;AC 2;AC 2;AC 2;AC 2;AC 2;AC 2;AC 2;AC 2;AC 2;AC 2;AC 2;AC 2;AC 2;AC 2;AC 2;AC 2;AC 2;AC 2;AC 2;AC 2;AC 2;AC 2;AC 2;AC 2;AC 2;AC 2;AC 2;AC 2;AC 2;AC 2;AC 2;AC 2;AC 2;AC 2;AC 2;AC 2;AC 2;AC 2;AC 2;AC 2;AC 2;AC 2;AC 2;AC 2;AC 2;AC 2;AC 2;AC 2;AC 2;AC 2;AC 2;AC 2;AC 2;AC 2;AC 2;AC 2;AC 2;AC 2;AC 2;AC 2;AC 2;AC 2;AC 2;AC 2;AC 2;AC 2;AC 2;AC 2;AC 2;AC 2;AC 2;AC 2;AC 2;AC 2;AC 2;AC 2;AC 2;AC 2;AC 2;AC 2;AC 2;AC 2;AC 2;AC 2;AC 2;AC 2;AC 2;AC 2;AC 2;AC 2;AC 2;AC 2;AC 2;AC 2;AC 2;AC 2;AC 2;AC 2;AC 2;AC 2;AC 2;AC 2;AC 2;AC 2;AC 2;AC 2;AC 2;AC 2;AC 2;AC 2;AC 2;AC 2;AC 2;AC 2;AC 2;AC 2;AC 2;AC 2;AC 2;AC 2;AC 2;AC 2;AC 2;AC 2;AC 2;AC 2;AC 2;AC 2;AC 2;AC 2;AC 2;AC 2;AC 2;AC 2;AC 2;AC 2;AC 2;AC 2;AC 2;AC 2;AC 2;AC 2;AC 2;AC 2;AC 2;AC 2;AC 2;AC 2;AC 2;AC 2;AC 2;AC 2;AC 2;AC 2;AC 2;AC 2;AC 2;AC 2;AC 2;AC 2;AC 2;AC 2;AC 2;AC 2;AC 2;AC 2;AC 2;AC 2;AC 2;AC 2;AC 2;AC 2;AC 2;AC 2;AC 2;AC 2;AC 2;AC 2;AC 2;AC 2;AC 2;AC 2;AC 2;AC 2;AC 2;AC 2;AC 2;AC 2;AC 2;AC 2;AC 2;AC 2;AC 2;AC 2;AC 2;AC 2;AC 2;AC 2;AC 2;AC 2;AC 2;AC 2;AC 2;AC 2;AC 2;AC 2;AC 2;AC 2;AC 2;AC 2;AC 2;AC 2;AC 2;AC 2;AC 2;AC 2;AC 2;AC 2;AC 2;AC 2;AC 2;AC 2;AC 2;AC 2;AC 2;AC 2;AC 2;AC 2;AC 2;AC 2;AC 2;AC 2;AC 2;AC 2;AC 2;AC 2;AC 2;AC 2;AC 2;AC 2;AC 2;AC 2;AC 2;AC 2;AC 2;AC 2;AC 2;AC 2;AC 2;AC 2;AC 2;AC 2;AC 2;AC 2;AC 2;AC 2;AC 2;AC 2;AC 2;AC 2;AC 2;AC 2;AC 2;AC 2;AC 2;AC 2;AC 2;AC 2;AC 2;AC 2;AC 2;AC 2;AC 2;AC 2;AC 2;AC 2;AC 2;AC 2;AC 2;AC 2;AC 2;AC 2;AC 2;AC 2;AC 2;AC 2;AC 2;AC 2;AC 2;AC 2;AC 2;AC 2;AC 2;AC 2;AC 2;AC 2;AC 2;AC 2;AC 2;AC 2;AC 2;AC 2;AC 2;AC 2;AC 2;AC 2;AC 2;AC 2;AC 2;AC 2;AC 2;AC 2;AC 2;AC 2;AC 2;AC 2;AC 2;AC 2;AC 2;AC 2;AC 2;AC 2;AC 2;AC 2;AC 2;AC 2;AC 2;AC 2;AC 2;AC 2;AC 2;AC 2;AC 2;AC 2;AC 2;AC 2;AC 2;AC 2;AC 2;AC 2;AC 2;AC 2;AC 2;AC 2;AC 2;AC 2;AC 2;AC 2;AC 2;AC 2;AC 2;AC 2;AC 2;AC 2;AC 2;AC 2;AC 2;AC 2;AC 2;AC 2;AC 2;AC 2;AC 2;AC 2;AC 2;AC 2;AC 2;AC 2;AC 2;AC 2;AC 2;AC 2;AC 2;AC 2;AC 2;AC 2;AC 2;AC 2;AC 2;AC 2;AC 2;AC 2;AC 2;AC 2;AC 2;AC 2;AC 2;AC 2;AC 2;AC 2;AC 2;AC 2;AC ;AC ;AC ;AC ;AC ;AC ;AC 5;AC 5;AC 5;AC 5;AC 5;AC 5;AC 5;AC 5;AC 5;AC 5;AC 5;AC 5;AC 5;AC 5;AC 5;AC 5;AC 5;AC 5;AC 5;AC 5;AC 5;AC 5;AC 5;AC 5;AC 5;AC 5;AC 5;AC 5;AC 5;AC 5;AC 5;AC 5;AC 5;AC 5;AC 5;AC 5;AC 5;AC 5;AC 5;AC 5;AC 5;AC 5;AC 5;AC 5;AC 5;AC 5;AC 5;AC 5;AC 5;AC 5;AC 5;AC 5;AC 5;AC 5;AC 5;AC 5;AC 5;AC 5;AC 5;AC 5;AC 5;AC 5;AC 5;AC 5;AC 5;AC 5;AC 5;AC 5;AC 5;AC 5;AC 5;AC 5;AC 5;AC 5;AC 5;AC 5;AC 5;AC 5;AC 5;AC 5;AC 5;AC 5;AC 5;AC 5;AC 5;AC 5;AC 5;AC 5;AC 5;AC 5;AC 5;AC 5;AC 5;AC 5;AC 5;AC 5;AC 5;AC 5;AC 5;AC 5;AC 5;AC 5;AC 5;AC 5;AC 5;AC 5;AC 5;AC 5;AC 5;AC 5;AC 5;AC 5;AC 5;AC 5;AC 5;AC 5;AC 5;AC 5;AC 5;AC 5;AC 5;AC 5;AC 5;AC 5;AC 5;AC 5;AC 5;AC 5;AC 5;AC 5;AC 5;AC 5;AC 5;AC 5;AC 5;AC 5;AC 5;AC 5;AC 5;AC 5;AC 5;AC 5;AC 5;AC 5;AC 5;AC 5;AC 5;AC 5;AC 5;AC 5;AC 5;AC 5;AC 5;AC 5;AC 5;AC 5;AC 5;AC 5;AC 5;AC 5;AC 5;AC 5;AC 5;AC 5;AC 5;AC 5;AC 5;AC 5;AC 5;AC 5;AC 5;AC 5;AC 5;AC 5;AC 5;AC 5;AC 5;AC 5;AC 5;AC 5;AC 5;AC 5;AC 5;AC 5;AC 5;AC 5;AC 5;AC 5;AC 5;AC 5;AC 5;AC 5;AC 5;AC 5;AC 5;AC 5;AC 5;AC 5;AC 5;AC 5;AC 5;AC 5;AC 5;AC 5;AC 5;AC 5;AC 5;AC 5;AC 5;AC 5;AC 5;AC 5;AC 5;AC 5;AC 5;AC 5;AC 5;AC 5;AC 5;AC 5;AC 5;AC 5;AC 5;AC 5;AC 5;AC 5;AC 5;AC 5;AC 5;AC 5;AC 5;AC 5;AC 5;AC 5;AC 5;AC 5;AC 5;AC 5;AC 5;AC 5;AC 5;AC 5;AC 5;AC 5;AC 5;AC 5;AC 5;AC 5;AC 5;AC 5;AC 5;AC 5;AC 5;AC 5;AC 5;AC 5;AC 5;AC 5;AC 5;AC 5;AC 5;AC 5;AC 5;AC 5;AC 5;AC 5;AC 5;AC 5;AC 5;AC 5;AC 5;AC 5;AC 5;AC 5;AC 5;AC 5;AC 5;AC 5;AC 5;AC 5;AC 5;AC 5;AC 5;AC 5;AC 5;AC 5;AC 5;AC 5;AC 5;AC 5;AC 5;AC 5;AC 5;AC 5;AC 5;AC 5;AC 5;AC 5;AC 5;AC 5;AC 5;AC 5;AC 5;AC 5;AC 5;AC 5;AC 5;AC 5;AC 5;AC 5;AC 5;AC 5;AC 5;AC 5;AC 5;AC 5;AC 5;AC 5;AC 5;AC 5;AC 5;AC 5;AC 5;AC 5;AC 5;AC 5;AC 5;AC 5;AC 5;AC 5;AC 5;AC 5;AC 5;AC 5;AC 5;AC 5;AC 5;AC 5;AC 5;AC 5;AC 5;AC 5;AC 5;AC 5;AC 5;AC 5;AC 5;AC 5;AC 5;AC 5;AC 5;AC 5;AC 5;AC 5;AC 5;AC 5;AC 5;AC 5;AC 5;AC 5;AC 5;AC 5;AC 5;AC 5;AC 5;AC 5;AC 5;AC 5;AC 5;AC 5;AC 5;AC 5;AC 5;AC 5;AC 5;AC 5;AC 5;AC 5;AC 5;AC 5;AC 5;AC 5;AC 5;AC 5;AC 5;AC 5;AC 5;AC 5;AC 5;AC 5;AC 5;AC 5;AC 5;AC 5;AC 5;AC 5;AC 5;AC 5;AC 5;AC 5;AC 5;AC 5;AC 5;AC 5;AC 5;AC 5;AC ;AC ;AC ;AC ;AC ;AC 8;AC 8;AC 8;AC 8;AC 8;AC 8;AC 8;AC 8;AC 8;AC 8;AC 8;AC 8;AC 8;AC 8;AC 8;AC 8;AC 8;AC 8;AC 8;AC 8;AC 8;AC 8;AC 8;AC 8;AC 8;AC 8;AC 8;AC 8;AC 8;AC 8;AC 8;AC 8;AC 8;AC 8;AC 8;AC 8;AC 8;AC 8;AC 8;AC 8;AC 8;AC 8;AC 8;AC 8;AC 8;AC 8;AC 8;AC 8;AC 8;AC 8;AC 8;AC 8;AC 8;AC 8;AC 8;AC 8;AC 8;AC 8;AC 8;AC 8;AC 8;AC 8;AC 8;AC 8;AC 8;AC 8;AC 8;AC 8;AC 8;AC 8;AC 8;AC 8;AC 8;AC 8;AC 8;AC 8;AC 8;AC 8;AC 8;AC 8;AC 8;AC 8;AC 8;AC 8;AC 8;AC 8;AC 8;AC 8;AC 8;AC 8;AC 8;AC 8;AC 8;AC 8;AC 8;AC 8;AC 8;AC 8;AC 8;AC 8;AC 8;AC 8;AC 8;AC 8;AC 8;AC 8;AC 8;AC 8;AC 8;AC 8;AC 8;AC 8;AC 8;AC 8;AC 8;AC 8;AC 8;AC 8;AC 8;AC 8;AC 8;AC 8;AC 8;AC 8;AC 8;AC 8;AC 8;AC 8;AC 8;AC 8;AC 8;AC 8;AC 8;AC 8;AC 8;AC 8;AC 8;AC 8;AC 8;AC 8;AC 8;AC 8;AC 8;AC 8;AC 8;AC 8;AC 8;AC 8;AC 8;AC 8;AC 8;AC 8;AC 8;AC 8;AC 8;AC 8;AC 8;AC 8;AC 8;AC 8;AC 8;AC 8;AC 8;AC 8;AC 8;AC 8;AC 8;AC 8;AC 8;AC 8;AC 8;AC 8;AC 8;AC 8;AC 8;AC 8;AC 8;AC 8;AC 8;AC 8;AC 8;AC 8;AC 8;AC 8;AC 8;AC 8;AC 8;AC 8;AC 8;AC 8;AC 8;AC 8;AC 8;AC 8;AC 8;AC 8;AC 8;AC 8;AC 8;AC 8;AC 8;AC 8;AC 8;AC 8;AC 8;AC 8;AC 8;AC 8;AC 8;AC 8;AC 8;AC 8;AC 8;AC 8;AC 8;AC 8;AC 8;AC 8;AC 8;AC 8;AC 8;AC 8;AC 8;AC 8;AC 8;AC 8;AC 8;AC 8;AC 8;AC 8;AC 8;AC 8;AC 8;AC 8;AC 8;AC 8;AC 8;AC 8;AC 8;AC 8;AC 8;AC 8;AC 8;AC 8;AC 8;AC 8;AC 8;AC 8;AC 8;AC 8;AC 8;AC 8;AC 8;AC 8;AC 8;AC 8;AC 8;AC 8;AC 8;AC 8;AC 8;AC 8;AC 8;AC 8;AC 8;AC 8;AC 8;AC 8;AC 8;AC 8;AC 8;AC 8;AC 8;AC 8;AC 8;AC 8;AC 8;AC 8;AC 8;AC 8;AC 8;AC 8;AC 8;AC 8;AC 8;AC 8;AC 8;AC 8;AC 8;AC 8;AC 8;AC 8;AC 8;AC 8;AC 8;AC 8;AC 8;AC 8;AC 8;AC 8;AC 8;AC 8;AC 8;AC 8;AC 8;AC 8;AC 8;AC 8;AC 8;AC 8;AC 8;AC 8;AC 8;AC 8;AC 8;AC 8;AC 8;AC 8;AC 8;AC 8;AC 8;AC 8;AC 8;AC 8;AC 8;AC 8;AC 8;AC 8;AC 8;AC 8;AC 8;AC 8;AC 8;AC 8;AC 8;AC 8;AC 8;AC 8;AC 8;AC 8;AC 8;AC 8;AC 8;AC 8;AC 8;AC 8;AC 8;AC 8;AC 8;AC 8;AC 8;AC 8;AC 8;AC 8;AC 8;AC 8;AC 8;AC 8;AC 8;AC 8;AC 8;AC 8;AC 8;AC 8;AC 8;AC 8;AC 8;AC 8;AC 8;AC 8;AC 8;AC 8;AC 8;AC 8;AC 8;AC 8;AC 8;AC 8;AC 8;AC 8;AC 8;AC 8;AC 8;AC 8;AC 8;AC 8;AC 8;AC 8;AC 8;AC 8;AC 8;AC 8;AC 8;AC 8;AC 8;AC 8;AC 8;AC 8;AC 8;AC 8;AC 8;AC 8;AC 8;AC 8;AC 8;AC 8;AC ;AC ;AC ;AC ;AC ;AC ;AC 2;AC 2;AC 2;AC 2;AC 2;AC 2;AC 2;AC 2;AC 2;AC 2;AC 2;AC 2;AC 2;AC 2;AC 2;AC 2;AC 2;AC 2;AC 2;AC 2;AC 2;AC 2;AC 2;AC 2;AC 2;AC 2;AC 2;AC 2;AC 2;AC 2;AC 2;AC 2;AC 2;AC 2;AC 2;AC 2;AC 2;AC 2;AC 2;AC 2;AC 2;AC 2;AC 2;AC 2;AC 2;AC 2;AC 2;AC 2;AC 2;AC 2;AC 2;AC 2;AC 2;AC 2;AC 2;AC 2;AC 2;AC 2;AC 2;AC 2;AC 2;AC 2;AC 2;AC 2;AC 2;AC 2;AC 2;AC 2;AC 2;AC 2;AC 2;AC 2;AC 2;AC 2;AC 2;AC 2;AC 2;AC 2;AC 2;AC 2;AC 2;AC 2;AC 2;AC 2;AC 2;AC 2;AC 2;AC 2;AC 2;AC 2;AC 2;AC 2;AC 2;AC 2;AC 2;AC 2;AC 2;AC 2;AC 2;AC 2;AC 2;AC 2;AC 2;AC 2;AC 2;AC 2;AC 2;AC 2;AC 2;AC 2;AC 2;AC 2;AC 2;AC 2;AC 2;AC 2;AC 2;AC 2;AC 2;AC 2;AC 2;AC 2;AC 2;AC 2;AC 2;AC 2;AC 2;AC 2;AC 2;AC 2;AC 2;AC 2;AC 2;AC 2;AC 2;AC 2;AC 2;AC 2;AC 2;AC 2;AC 2;AC 2;AC 2;AC 2;AC 2;AC 2;AC 2;AC 2;AC 2;AC 2;AC 2;AC 2;AC 2;AC 2;AC 2;AC 2;AC 2;AC 2;AC 2;AC 2;AC 2;AC 2;AC 2;AC 2;AC 2;AC 2;AC 2;AC 2;AC 2;AC 2;AC 2;AC 2;AC 2;AC 2;AC 2;AC 2;AC 2;AC 2;AC 2;AC 2;AC 2;AC 2;AC 2;AC 2;AC 2;AC 2;AC 2;AC 2;AC 2;AC 2;AC 2;AC 2;AC 2;AC 2;AC 2;AC 2;AC 2;AC 2;AC 2;AC 2;AC 2;AC 2;AC 2;AC 2;AC 2;AC 2;AC 2;AC 2;AC 2;AC 2;AC 2;AC 2;AC 2;AC 2;AC 2;AC 2;AC 2;AC 2;AC 2;AC 2;AC 2;AC 2;AC 2;AC 2;AC 2;AC 2;AC 2;AC 2;AC 2;AC 2;AC 2;AC 2;AC 2;AC 2;AC 2;AC 2;AC 2;AC 2;AC 2;AC 2;AC 2;AC 2;AC 2;AC 2;AC 2;AC 2;AC 2;AC 2;AC 2;AC 2;AC 2;AC 2;AC 2;AC 2;AC 2;AC 2;AC 2;AC 2;AC 2;AC 2;AC 2;AC 2;AC 2;AC 2;AC 2;AC 2;AC 2;AC 2;AC 2;AC 2;AC 2;AC 2;AC 2;AC 2;AC 2;AC 2;AC 2;AC 2;AC 2;AC 2;AC 2;AC 2;AC 2;AC 2;AC 2;AC 2;AC 2;AC 2;AC 2;AC 2;AC 2;AC 2;AC 2;AC 2;AC 2;AC 2;AC 2;AC 2;AC 2;AC 2;AC 2;AC 2;AC 2;AC 2;AC 2;AC 2;AC 2;AC 2;AC 2;AC 2;AC 2;AC 2;AC 2;AC 2;AC 2;AC 2;AC 2;AC 2;AC 2;AC 2;AC 2;AC 2;AC 2;AC 2;AC 2;AC 2;AC 2;AC 2;AC 2;AC 2;AC 2;AC 2;AC 2;AC 2;AC 2;AC 2;AC 2;AC 2;AC 2;AC 2;AC 2;AC 2;AC 2;AC 2;AC 2;AC 2;AC 2;AC 2;AC 2;AC 2;AC 2;AC 2;AC 2;AC 2;AC 2;AC 2;AC 2;AC 2;AC 2;AC 2;AC 2;AC 2;AC 2;AC 2;AC 2;AC 2;AC 2;AC 2;AC 2;AC 2;AC 2;AC 2;AC 2;AC 2;AC 2;AC 2;AC 2;AC 2;AC 2;AC 2;AC 2;AC 2;AC 2;AC 2;AC 2;AC 2;AC 2;AC 2;AC 2;AC 2;AC 2;AC 2;AC 2;AC 2;AC 2;AC 2;AC 2;AC 2;AC 2;AC 2;AC 2;AC 2;AC 2;AC 2;AC 2;AC 2;AC C C C C C 3<?C 3<?C 3<?C 3<?C 3<?C 3<?C 3<?C 3<?C 3<?C 3<?C 3<?C 3<?C 3<?C 3<?C 3<?C 3<?C 3<?C 3<?C 3<?C 3<?C 3<?C 3<?C 3<?C 3<?C 3<?C 3<?C 3<?C 3<?C 3<?C 3<?C 3<?C 3<?C 3<?C 3<?C 3<?C 3<?C 3<?C 3<?C 3<?C 3<?C 3<?C 3<?C 3<?C 3<?C 3<?C 3<?C 3<?C 3<?C 3<?C 3<?C 3<?C 3<?C 3<?C 3<?C 3<?C 3<?C 3<?C 3<?C 3<?C 3<?C 3<?C 3<?C 3<?C 3<?C 3<?C 3<?C 3<?C 3<?C 3<?C 3<?C 3<?C 3<?C 3<?C 3<?C 3<?C 3<?C 3<?C 3<?C 3<?C 3<?C 3<?C 3<?C 3<?C 3<?C 3<?C 3<?C 3<?C 3<?C 3<?C 3<?C 3<?C 3<?C 3<?C 3<?C 3<?C 3<?C 3<?C 3<?C 3<?C 3<?C 3<?C 3<?C 3<?C 3<?C 3<?C 3<?C 3<?C 3<?C 3<?C 3<?C 3<?C 3<?C 3<?C 3<?C 3<?C 3<?C 3<?C 3<?C 3<?C 3<?C 3<?C 3<?C 3<?C 3<?C 3<?C 3<?C 3<?C 3<?C 3<?C 3<?C 3<?C 3<?C 3<?C 3<?C 3<?C 3<?C 3<?C 3<?C 3<?C 3<?C 3<?C 3<?C 3<?C 3<?C 3<?C 3<?C 3<?C 3<?C 3<?C 3<?C 3<?C 3<?C 3<?C 3<?C 3<?C 3<?C 3<?C 3<?C 3<?C 3<?C 3<?C 3<?C 3<?C 3<?C 3<?C 3<?C 3<?C 3<?C 3<?C 3<?C 3<?C 3<?C 3<?C 3<?C 3<?C 3<?C 3<?C 3<?C 3<?C 3<?C 3<?C 3<?C 3<?C 3<?C 3<?C 3<?C 3<?C 3<?C 3<?C 3<?C 3<?C 3<?C 3<?C 3<?C 3<?C 3<?C 3<?C 3<?C 3<?C 3<?C 3<?C 3<?C 3<?C 3<?C 3<?C 3<?C 3<?C 3<?C 3<?C 3<?C 3<?C 3<?C 3<?C 3<?C 3<?C 3<?C 3<?C 3<?C 3<?C 3<?C 3<?C 3<?C 3<?C 3<?C 3<?C 3<?C 3<?C 3<?C 3<?C 3<?C 3<?C 3<?C 3<?C 3<?C 3<?C 3<?C 3<?C 3<?C 3<?C 3<?C 3<?C 3<?C 3<?C 3<?C 3<?C 3<?C 3<?C 3<?C 3<?C 3<?C 3<?C 3<?C 3<?C 3<?C 3<?C 3<?C 3<?C 3<?C 3<?C 3<?C 3<?C 3<?C 3<?C 3<?C 3<?C 3<?C 3<?C 3<?C 3<?C 3<?C 3<?C 3<?C 3<?C 3<?C 3<?C 3<?C 3<?C 3<?C 3<?C 3<?C 3<?C 3<?C 3<?C 3<?C 3<?C 3<?C 3<?C 3<?C 3<?C 3<?C 3<?C 3<?C 3<?C 3<?C 3<?C 3<?C 3<?C 3<?C 3<?C 3<?C 3<?C 3<?C 3<?C 3<?C 3<?C 3<?C 3<?C 3<?C 3<?C 3<?C 3<?C 3<?C 3<?C 3<?C 3<?C 3<?C 3<?C 3<?C 3<?C 3<?C 3<?C 3<?C 3<?C 3<?C 3<?C 3<?C 3<?C 3<?C 3<?C 3<?C 3<?C 3<?C 3<?C 3<?C 3<?C 3<?C 3<?C 3<?C 3<?C 3<?C 3<?C 3<?C 3<?C 3<?C 3<?C 3<?C 3<?C 3<?C 3<?C 3<?C 3<?C 3<?C 3<?C 3<?C 3<?C 3<?C 3<?C 3<?C 3<?C 3<?C 3<?C 3<?C 3<?C 3<?C 3<?C 3<?C 3<?C 3<?C 3<?C 3<?C 3<?C 3<?C 3<?C 3<?C 3<?C 3<?C 3<?C 3<?C 3<?C 3<?C 3<?C 3<?C 3<?C 3<?C 3<?C 3<?C 3<?C 3<?C 3<?C 3<?C 3<?C 3<?C 3<?C 3<?C 3<?C 3<?C 3<?C 3<?C 3<?C 3<?C 3<?C 3<?C 3<?C 3<?C 3<?C 3<?C <?C <?C <?C <?C <?C <?C /<?C /<?C /<?C /<?C /<?C /<?C /<?C /<?C /<?C /<?C /<?C /<?C /<?C /<?C /<?C /<?C /<?C /<?C /<?C /<?C /<?C /<?C /<?C /<?C /<?C /<?C /<?C /<?C /<?C /<?C /<?C /<?C /<?C /<?C /<?C /<?C /<?C /<?C /<?C /<?C /<?C /<?C /<?C /<?C /<?C /<?C /<?C /<?C /<?C /<?C /<?C /<?C /<?C /<?C /<?C /<?C /<?C /<?C /<?C /<?C /<?C /<?C /<?C /<?C /<?C /<?C /<?C /<?C /<?C /<?C /<?C /<?C /<?C /<?C /<?C /<?C /<?C /<?C /<?C /<?C /<?C /<?C /<?C /<?C /<?C /<?C /<?C /<?C /<?C /<?C /<?C /<?C /<?C /<?C /<?C /<?C /<?C /<?C /<?C /<?C /<?C /<?C /<?C /<?C /<?C /<?C /<?C /<?C /<?C /<?C /<?C /<?C /<?C /<?C /<?C /<?C /<?C /<?C /<?C /<?C /<?C /<?C /<?C /<?C /<?C /<?C /<?C /<?C /<?C /<?C /<?C /<?C /<?C /<?C /<?C /<?C /<?C /<?C /<?C /<?C /<?C /<?C /<?C /<?C /<?C /<?C /<?C /<?C /<?C /<?C /<?C /<?C /<?C /<?C /<?C /<?C /<?C /<?C /<?C /<?C /<?C /<?C /<?C /<?C /<?C /<?C /<?C /<?C /<?C /<?C /<?C /<?C /<?C /<?C /<?C /<?C /<?C /<?C /<?C /<?C /<?C /<?C /<?C /<?C /<?C /<?C /<?C /<?C /<?C /<?C /<?C /<?C /<?C /<?C /<?C /<?C /<?C /<?C /<?C /<?C /<?C /<?C /<?C /<?C /<?C /<?C /<?C /<?C /<?C /<?C /<?C /<?C /<?C /<?C /<?C /<?C /<?C /<?C /<?C /<?C /<?C /<?C /<?C /<?C /<?C /<?C /<?C /<?C /<?C /<?C /<?C /<?C /<?C /<?C /<?C /<?C /<?C /<?C /<?C /<?C /<?C /<?C /<?C /<?C /<?C /<?C /<?C /<?C /<?C /<?C /<?C /<?C /<?C /<?C /<?C /<?C /<?C /<?C /<?C /<?C /<?C /<?C /<?C /<?C /<?C /<?C /<?C /<?C /<?C /<?C /<?C /<?C /<?C /<?C /<?C /<?C /<?C /<?C /<?C /<?C /<?C /<?C /<?C /<?C /<?C /<?C /<?C /<?C /<?C /<?C /<?C /<?C /<?C /<?C /<?C /<?C /<?C /<?C /<?C /<?C /<?C /<?C /<?C /<?C /<?C /<?C /<?C /<?C /<?C /<?C /<?C /<?C /<?C /<?C /<?C /<?C /<?C /<?C /<?C /<?C /<?C /<?C /<?C /<?C /<?C /<?C /<?C /<?C /<?C /<?C /<?C /<?C /<?C /<?C /<?C /<?C /<?C /<?C /<?C /<?C /<?C /<?C /<?C /<?C /<?C /<?C /<?C /<?C /<?C /<?C /<?C /<?C /<?C /<?C /<?C /<?C /<?C /<?C /<?C /<?C /<?C /<?C /<?C /<?C /<?C /<?C /<?C /<?C /<?C /<?C /<?C /<?C /<?C /<?C /<?C /<?C /<?C /<?C /<?C /<?C /<?C /<?C /<?C /<?C /<?C /<?C /<?C /<?C /<?C /<?C /<?C /<?C /<?C /<?C /<?C /<?C /<?C /<?C /<?C /<?C /<?C /<?C /<?C /<?C /<?C /<?C C C C C C 0?<C 0?<C 0?<C 0?<C 0?<C 0?<C 0?<C 0?<C 0?<C 0?<C 0?<C 0?<C 0?<C 0?<C 0?<C 0?<C 0?<C 0?<C 0?<C 0?<C 0?<C 0?<C 0?<C 0?<C 0?<C 0?<C 0?<C 0?<C 0?<C 0?<C 0?<C 0?<C 0?<C 0?<C 0?<C 0?<C 0?<C 0?<C 0?<C 0?<C 0?<C 0?<C 0?<C 0?<C 0?<C 0?<C 0?<C 0?<C 0?<C 0?<C 0?<C 0?<C 0?<C 0?<C 0?<C 0?<C 0?<C 0?<C 0?<C 0?<C 0?<C 0?<C 0?<C 0?<C 0?<C 0?<C 0?<C 0?<C 0?<C 0?<C 0?<C 0?<C 0?<C 0?<C 0?<C 0?<C 0?<C 0?<C 0?<C 0?<C 0?<C 0?<C 0?<C 0?<C 0?<C 0?<C 0?<C 0?<C 0?<C 0?<C 0?<C 0?<C 0?<C 0?<C 0?<C 0?<C 0?<C 0?<C 0?<C 0?<C 0?<C 0?<C 0?<C 0?<C 0?<C 0?<C 0?<C 0?<C 0?<C 0?<C 0?<C 0?<C 0?<C 0?<C 0?<C 0?<C 0?<C 0?<C 0?<C 0?<C 0?<C 0?<C 0?<C 0?<C 0?<C 0?<C 0?<C 0?<C 0?<C 0?<C 0?<C 0?<C 0?<C 0?<C 0?<C 0?<C 0?<C 0?<C 0?<C 0?<C 0?<C 0?<C 0?<C 0?<C 0?<C 0?<C 0?<C 0?<C 0?<C 0?<C 0?<C 0?<C 0?<C 0?<C 0?<C 0?<C 0?<C 0?<C 0?<C 0?<C 0?<C 0?<C 0?<C 0?<C 0?<C 0?<C 0?<C 0?<C 0?<C 0?<C 0?<C 0?<C 0?<C 0?<C 0?<C 0?<C 0?<C 0?<C 0?<C 0?<C 0?<C 0?<C 0?<C 0?<C 0?<C 0?<C 0?<C 0?<C 0?<C 0?<C 0?<C 0?<C 0?<C 0?<C 0?<C 0?<C 0?<C 0?<C 0?<C 0?<C 0?<C 0?<C 0?<C 0?<C 0?<C 0?<C 0?<C 0?<C 0?<C 0?<C 0?<C 0?<C 0?<C 0?<C 0?<C 0?<C 0?<C 0?<C 0?<C 0?<C 0?<C 0?<C 0?<C 0?<C 0?<C 0?<C 0?<C 0?<C 0?<C 0?<C 0?<C 0?<C 0?<C 0?<C 0?<C 0?<C 0?<C 0?<C 0?<C 0?<C 0?<C 0?<C 0?<C 0?<C 0?<C 0?<C 0?<C 0?<C 0?<C 0?<C 0?<C 0?<C 0?<C 0?<C 0?<C 0?<C 0?<C 0?<C 0?<C 0?<C 0?<C 0?<C 0?<C 0?<C 0?<C 0?<C 0?<C 0?<C 0?<C 0?<C 0?<C 0?<C 0?<C 0?<C 0?<C 0?<C 0?<C 0?<C 0?<C 0?<C 0?<C 0?<C 0?<C 0?<C 0?<C 0?<C 0?<C 0?<C 0?<C 0?<C 0?<C 0?<C 0?<C 0?<C 0?<C 0?<C 0?<C 0?<C 0?<C 0?<C 0?<C 0?<C 0?<C 0?<C 0?<C 0?<C 0?<C 0?<C 0?<C 0?<C 0?<C 0?<C 0?<C 0?<C 0?<C 0?<C 0?<C 0?<C 0?<C 0?<C 0?<C 0?<C 0?<C 0?<C 0?<C 0?<C 0?<C 0?<C 0?<C 0?<C 0?<C 0?<C 0?<C 0?<C 0?<C 0?<C 0?<C 0?<C 0?<C 0?<C 0?<C 0?<C 0?<C 0?<C 0?<C 0?<C 0?<C 0?<C 0?<C 0?<C 0?<C 0?<C 0?<C 0?<C 0?<C 0?<C 0?<C 0?<C 0?<C 0?<C 0?<C 0?<C 0?<C 0?<C 0?<C 0?<C 0?<C 0?<C 0?<C 0?<C 0?<C 0?<C 0?<C 0?<C 0?<C 0?<C 0?<C 0?<C 0?<C 0?<C 0?<C 0?<C 0?<C 0?<C 0?<C 0?<C 0?<C 0?<C 0?<C 0?<C 0?<C 0?<C 0?<C 0?<C 0?<C 0?<C 0?<C 0?<C 0?<C 0?<C 0?<C 0?<C 0?<C 0?<C 0?<C 0?<C ?<C ?<C ?<C ?<C ?<C ,?<C ,?<C ,?<C ,?<C ,?<C ,?<C ,?<C ,?<C ,?<C ,?<C ,?<C ,?<C ,?<C ,?<C ,?<C ,?<C ,?<C ,?<C ,?<C ,?<C ,?<C ,?<C ,?<C ,?<C ,?<C ,?<C ,?<C ,?<C ,?<C ,?<C ,?<C ,?<C ,?<C ,?<C ,?<C ,?<C ,?<C ,?<C ,?<C ,?<C ,?<C ,?<C ,?<C ,?<C ,?<C ,?<C ,?<C ,?<C ,?<C ,?<C ,?<C ,?<C ,?<C ,?<C ,?<C ,?<C ,?<C ,?<C ,?<C ,?<C ,?<C ,?<C ,?<C ,?<C ,?<C ,?<C ,?<C ,?<C ,?<C ,?<C ,?<C ,?<C ,?<C ,?<C ,?<C ,?<C ,?<C ,?<C ,?<C ,?<C ,?<C ,?<C ,?<C ,?<C ,?<C ,?<C ,?<C ,?<C ,?<C ,?<C ,?<C ,?<C ,?<C ,?<C ,?<C ,?<C ,?<C ,?<C ,?<C ,?<C ,?<C ,?<C ,?<C ,?<C ,?<C ,?<C ,?<C ,?<C ,?<C ,?<C ,?<C ,?<C ,?<C ,?<C ,?<C ,?<C ,?<C ,?<C ,?<C ,?<C ,?<C ,?<C ,?<C ,?<C ,?<C ,?<C ,?<C ,?<C ,?<C ,?<C ,?<C ,?<C ,?<C ,?<C ,?<C ,?<C ,?<C ,?<C ,?<C ,?<C ,?<C ,?<C ,?<C ,?<C ,?<C ,?<C ,?<C ,?<C ,?<C ,?<C ,?<C ,?<C ,?<C ,?<C ,?<C ,?<C ,?<C ,?<C ,?<C ,?<C ,?<C ,?<C ,?<C ,?<C ,?<C ,?<C ,?<C ,?<C ,?<C ,?<C ,?<C ,?<C ,?<C ,?<C ,?<C ,?<C ,?<C ,?<C ,?<C ,?<C ,?<C ,?<C ,?<C ,?<C ,?<C ,?<C ,?<C ,?<C ,?<C ,?<C ,?<C ,?<C ,?<C ,?<C ,?<C ,?<C ,?<C ,?<C ,?<C ,?<C ,?<C ,?<C ,?<C ,?<C ,?<C ,?<C ,?<C ,?<C ,?<C ,?<C ,?<C ,?<C ,?<C ,?<C ,?<C ,?<C ,?<C ,?<C ,?<C ,?<C ,?<C ,?<C ,?<C ,?<C ,?<C ,?<C ,?<C ,?<C ,?<C ,?<C ,?<C ,?<C ,?<C ,?<C ,?<C ,?<C ,?<C ,?<C ,?<C ,?<C ,?<C ,?<C ,?<C ,?<C ,?<C ,?<C ,?<C ,?<C ,?<C ,?<C ,?<C ,?<C ,?<C ,?<C ,?<C ,?<C ,?<C ,?<C ,?<C ,?<C ,?<C ,?<C ,?<C ,?<C ,?<C ,?<C ,?<C ,?<C ,?<C ,?<C ,?<C ,?<C ,?<C ,?<C ,?<C ,?<C ,?<C ,?<C ,?<C ,?<C ,?<C ,?<C ,?<C ,?<C ,?<C ,?<C ,?<C ,?<C ,?<C ,?<C ,?<C ,?<C ,?<C ,?<C ,?<C ,?<C ,?<C ,?<C ,?<C ,?<C ,?<C ,?<C ,?<C ,?<C ,?<C ,?<C ,?<C ,?<C ,?<C ,?<C ,?<C ,?<C ,?<C ,?<C ,?<C ,?<C ,?<C ,?<C ,?<C ,?<C ,?<C ,?<C ,?<C ,?<C ,?<C ,?<C ,?<C ,?<C ,?<C ,?<C ,?<C ,?<C ,?<C ,?<C ,?<C ,?<C ,?<C ,?<C ,?<C ,?<C ,?<C ,?<C ,?<C ,?<C ,?<C ,?<C ,?<C ,?<C ,?<C ,?<C ,?<C ,?<C ,?<C ,?<C ,?<C ,?<C ,?<C ,?<C ,?<C ,?<C ,?<C ,?<C ,?<C ,?<C ,?<C ,?<C ,?<C ,?<C ,?<C ,?<C ,?<C ,?<C ,?<C ,?<C ,?<C ,?<C ,?<C ,?<C ,?<C ,?<C ,?<C ,?<C ,?<C ,?<C ,?<C ,?<C ,?<C ,?<C ,?<C ,?<C ,?<C ,?<C ,?<C ,?<C ,?<C ,?<C ,?<C ,?<C ,?<C ,?<C ,?<C ,?<C ,?<C ,?<C ,?<C ,?<C ?<C ?<C ?<C ?<C ?<C ?<C *?<C *?<C *?<C *?<C *?<C *?<C *?<C *?<C *?<C *?<C *?<C *?<C *?<C *?<C *?<C *?<C *?<C *?<C *?<C *?<C *?<C *?<C *?<C *?<C *?<C *?<C *?<C *?<C *?<C *?<C *?<C *?<C *?<C *?<C *?<C *?<C *?<C *?<C *?<C *?<C *?<C *?<C *?<C *?<C *?<C *?<C *?<C *?<C *?<C *?<C *?<C *?<C *?<C *?<C *?<C *?<C *?<C *?<C *?<C *?<C *?<C *?<C *?<C *?<C *?<C *?<C *?<C *?<C *?<C *?<C *?<C *?<C *?<C *?<C *?<C *?<C *?<C *?<C *?<C *?<C *?<C *?<C *?<C *?<C *?<C *?<C *?<C *?<C *?<C *?<C *?<C *?<C *?<C *?<C *?<C *?<C *?<C *?<C *?<C *?<C *?<C *?<C *?<C *?<C *?<C *?<C *?<C *?<C *?<C *?<C *?<C *?<C *?<C *?<C *?<C *?<C *?<C *?<C *?<C *?<C *?<C *?<C *?<C *?<C *?<C *?<C *?<C *?<C *?<C *?<C *?<C *?<C *?<C *?<C *?<C *?<C *?<C *?<C *?<C *?<C *?<C *?<C *?<C *?<C *?<C *?<C *?<C *?<C *?<C *?<C *?<C *?<C *?<C *?<C *?<C *?<C *?<C *?<C *?<C *?<C *?<C *?<C *?<C *?<C *?<C *?<C *?<C *?<C *?<C *?<C *?<C *?<C *?<C *?<C *?<C *?<C *?<C *?<C *?<C *?<C *?<C *?<C *?<C *?<C *?<C *?<C *?<C *?<C *?<C *?<C *?<C *?<C *?<C *?<C *?<C *?<C *?<C *?<C *?<C *?<C *?<C *?<C *?<C *?<C *?<C *?<C *?<C *?<C *?<C *?<C *?<C *?<C *?<C *?<C *?<C *?<C *?<C *?<C *?<C *?<C *?<C *?<C *?<C *?<C *?<C *?<C *?<C *?<C *?<C *?<C *?<C *?<C *?<C *?<C *?<C *?<C *?<C *?<C *?<C *?<C *?<C *?<C *?<C *?<C *?<C *?<C *?<C *?<C *?<C *?<C *?<C *?<C *?<C *?<C *?<C *?<C *?<C *?<C *?<C *?<C *?<C *?<C *?<C *?<C *?<C *?<C *?<C *?<C *?<C *?<C *?<C *?<C *?<C *?<C *?<C *?<C *?<C *?<C *?<C *?<C *?<C *?<C *?<C *?<C *?<C *?<C *?<C *?<C *?<C *?<C *?<C *?<C *?<C *?<C *?<C *?<C *?<C *?<C *?<C *?<C *?<C *?<C *?<C *?<C *?<C *?<C *?<C *?<C *?<C *?<C *?<C *?<C *?<C *?<C *?<C *?<C *?<C *?<C *?<C *?<C *?<C *?<C *?<C *?<C *?<C *?<C *?<C *?<C *?<C *?<C *?<C *?<C *?<C *?<C *?<C *?<C *?<C *?<C *?<C *?<C *?<C *?<C *?<C *?<C *?<C *?<C *?<C *?<C *?<C *?<C *?<C *?<C *?<C *?<C *?<C *?<C *?<C *?<C *?<C *?<C *?<C *?<C *?<C *?<C *?<C *?<C *?<C *?<C *?<C *?<C *?<C *?<C *?<C *?<C *?<C *?<C *?<C *?<C *?<C *?<C *?<C *?<C *?<C *?<C *?<C *?<C *?<C *?<C *?<C *?<C *?<C *?<C *?<C *?<C *?<C *?<C *?<C *?<C *?<C *?<C *?<C *?<C *?<C *?<C *?<C *?<C ?<C ?<C ?<C ?<C ?<C +?<C +?<C +?<C +?<C +?<C +?<C +?<C +?<C +?<C +?<C +?<C +?<C +?<C +?<C +?<C +?<C +?<C +?<C +?<C +?<C +?<C +?<C +?<C +?<C +?<C +?<C +?<C +?<C +?<C +?<C +?<C +?<C +?<C +?<C +?<C +?<C +?<C +?<C +?<C +?<C +?<C +?<C +?<C +?<C +?<C +?<C +?<C +?<C +?<C +?<C +?<C +?<C +?<C +?<C +?<C +?<C +?<C +?<C +?<C +?<C +?<C +?<C +?<C +?<C +?<C +?<C +?<C +?<C +?<C +?<C +?<C +?<C +?<C +?<C +?<C +?<C +?<C +?<C +?<C +?<C +?<C +?<C +?<C +?<C +?<C +?<C +?<C +?<C +?<C +?<C +?<C +?<C +?<C +?<C +?<C +?<C +?<C +?<C +?<C +?<C +?<C +?<C +?<C +?<C +?<C +?<C +?<C +?<C +?<C +?<C +?<C +?<C +?<C +?<C +?<C +?<C +?<C +?<C +?<C +?<C +?<C +?<C +?<C +?<C +?<C +?<C +?<C +?<C +?<C +?<C +?<C +?<C +?<C +?<C +?<C +?<C +?<C +?<C +?<C +?<C +?<C +?<C +?<C +?<C +?<C +?<C +?<C +?<C +?<C +?<C +?<C +?<C +?<C +?<C +?<C +?<C +?<C +?<C +?<C +?<C +?<C +?<C +?<C +?<C +?<C +?<C +?<C +?<C +?<C +?<C +?<C +?<C +?<C +?<C +?<C +?<C +?<C +?<C +?<C +?<C +?<C +?<C +?<C +?<C +?<C +?<C +?<C +?<C +?<C +?<C +?<C +?<C +?<C +?<C +?<C +?<C +?<C +?<C +?<C +?<C +?<C +?<C +?<C +?<C +?<C +?<C +?<C +?<C +?<C +?<C +?<C +?<C +?<C +?<C +?<C +?<C +?<C +?<C +?<C +?<C +?<C +?<C +?<C +?<C +?<C +?<C +?<C +?<C +?<C +?<C +?<C +?<C +?<C +?<C +?<C +?<C +?<C +?<C +?<C +?<C +?<C +?<C +?<C +?<C +?<C +?<C +?<C +?<C +?<C +?<C +?<C +?<C +?<C +?<C +?<C +?<C +?<C +?<C +?<C +?<C +?<C +?<C +?<C +?<C +?<C +?<C +?<C +?<C +?<C +?<C +?<C +?<C +?<C +?<C +?<C +?<C +?<C +?<C +?<C +?<C +?<C +?<C +?<C +?<C +?<C +?<C +?<C +?<C +?<C +?<C +?<C +?<C +?<C +?<C +?<C +?<C +?<C +?<C +?<C +?<C +?<C +?<C +?<C +?<C +?<C +?<C +?<C +?<C +?<C +?<C +?<C +?<C +?<C +?<C +?<C +?<C +?<C +?<C +?<C +?<C +?<C +?<C +?<C +?<C +?<C +?<C +?<C +?<C +?<C +?<C +?<C +?<C +?<C +?<C +?<C +?<C +?<C +?<C +?<C +?<C +?<C +?<C +?<C +?<C +?<C +?<C +?<C +?<C +?<C +?<C +?<C +?<C +?<C +?<C +?<C +?<C +?<C +?<C +?<C +?<C +?<C +?<C +?<C +?<C +?<C +?<C +?<C +?<C +?<C +?<C +?<C +?<C +?<C +?<C +?<C +?<C +?<C +?<C +?<C +?<C +?<C +?<C +?<C +?<C +?<C +?<C +?<C +?<C +?<C +?<C +?<C +?<C +?<C +?<C +?<C +?<C +?<C +?<C +?<C +?<C +?<C +?<C +?<C +?<C +?<C +?<C ?<C C C C C C C C C C C C C C C C C C C C C C C@:% C@:% C@:% C@:% C@:% C@:% C@:% C@:% C@:% C@:% C@:% C@:% C@:% C@:% C@:% C@:% C@:% C@:% C@:% C@:% C@:% C@:% C@:% C@:% C@:% C@:% C@:% C@:% C@:% C@:% C@:% C@:% C@:% C@:% C@:% C@:% C@:% C@:% C@:% C@:% C@:% C@:% C@:% C@:% C@:% C@:% C@:% C@:% C@:% C@:% C@:% C@:% C@:% C@:% C@:% C@:% C@:% C@:% C@:% C@:% C@:% C@:% C@:% C@:% C@:% C@:% C@:% C@:% C@:% C@:% C@:% C@:% C@:% C@:% C@:% C@:% C@:% C@:% C@:% C@:% C@:% C@:% C@:% C@:% C@:% C@:% C@:% C@:% C@:% C@:% C@:% C@:% C@:% C@:% C@:% C@:% C@:% C@:% C@:% C@:% C@:% C@:% C@:% C@:% C@:% C@:% C@:% C@:% C@:% C@:% C@:% C@:% C@:% C@:% C@:% C@:% C@:% C@:% C@:% C@:% C@:% C@:% C@:% C@:% C@:% C@:% C@:% C@:% C@:% C@:% C@:% C@:% C@:% C@:% C@:% C@:% C@:% C@:% C@:% C@:% C@:% C@:% C@:% C@:% C@:% C@:% C@:% C@:% C@:% C@:% C@:% C@:% C@:% C@:% C@:% C@:% C@:% C@:% C@:% C@:% C@:% C@:% C@:% C@:% C@:% C@:% C@:% C@:% C@:% C@:% C@:% C@:% C@:% C@:% C@:% C@:% C@:% C@:% C@:% C@:% C@:% C@:% C@:% C@:% C@:% C@:% C@:% C@:% C@:% C@:% C@:% C@:% C@:% C@:% C@:% C@:% C@:% C@:% C@:% C@:% C@:% C@:% C@:% C@:% C@:% C@:% C@:% C@:% C@:% C@:% C@:% C@:% C@:% C@:% C@:% C@:% @:% @:% @:% @:% @:% @:% @:% @:% @:% @:% @:% @:% @:% @:% @:% @:% @:% @:% @:% @:% @:% @:% @:% @:% @:% @:% @:% @:% @:% @:% @:E% @:E% @:E% @:E% @:E% @:E% @:E% @:E% @:E% @:E% @:E% @:E% @:E% @:E% @:E% @:E% @:E% @:E% @:E% @:E% @:E% @:E% @:E% @:E% @:E% @:E% @:E% @:E% @:E% :E% :E% :E% :E% :E% :E% :E% :E% :E% :E% :E% :E% :E% :E% :E% :E% :E% :E% :E% :E% :E% :E% :E% :E% :E% :E% :E% :E% :E% :E% :E% :E% :E% :E% :E% :E% :E% :E% :E% :E% :E% :E% :E% :E% :E% :E% :E% :E% :E% :E% :E% :E% :E% :E% :E% :E% :E% :E% :E% :E% :E% :E% :E% :E% :E% :E% :E% :E% :E% :E% :E% :E% :E% :E% :E% :E% :E% :E% :E% :E% :E% :E% :E% :E% :E% :E% :E% :E% :E% :E% :E% :E% :E% :E% :E% :E% :E% :E% :E% :E% :E% :E% :E% :E% :E% :E% :E% :E% :E% :E% :E% :E% :E% :E% :E% :E% :E% :E% :E% :E% :E% :E% :E% :E% :E% :E% :E% :E% :E% :E% :E% :E% :E% :E% :E% :E% :E% :E% :E% :E% :E% :E% :E% :E% :E% :E% :E% E% E% E% E% E% E% E% E% E% E% E% E% E% E% E% E% E% E% E% E% E% E% E% E% E% E% E% E% E% E% E% E% % % % % % % F% F% F% F% F% F% F% F% F% F% F% F% F% F% F% F% F% F% F% F% F% F% F% F% F% F% F% F% F% F% F% F% F% F% F% F% F% F% F% F% F% F% F% F% F% F% F% F% F% F% F% F% F% F% F% F% F% F% F% F% F% F% F% F% F% F% F% F% F% F% F% F% F% F% F% F% F% F% F% F% F% F% F% F% F% F% F% F% F% F% F% F% F% F% F% F% F% F% F% F% F% F% F% F% F% F% F% F% F% F% F% F% F% F% F% F% F% F% F% F% F% F% F% F% F% F% F% F% F% F% F% F% F% F% F% F% F% F% F% F% F% F% F% F% F% F% F% F% F% F% F% F% F% F% F% F% F% F% F% F% F% F% F% F% F% F% F% F% F% F% F% F% F% F% F% F% F% F% F% F% F% F% F% F% F% F% F% F% F% F% F% F% F% F% F% F% F% F% F% F% F% F% F% F% F% F% F% F% % % % % % %C %C %C %C %C %C %C %C %C %C %C %C %C %C %C %C %C %C %C %C %C %C %C %C %C %C %C %C %C %C %C %C %C %C %C %C %C %C %C %C %C %C %C %C %C %C %C %C %C %C %C %C %C %C %C %C %C %C %C %C %C %C %C %C %C %C %C %C %C %C %C %C %C %C %C %C %C %C %C %C %C %C %C %C %C %C %C %C %C %C %C %C %C %C %C %C %C %C %C %C %C %C %C %C %C %C %C %C %C %C %C %C %C %C %C %C %C %C %C %C %C %C %C %C %C %C %C %C %C %C %C %C %C %C %C %C %C %C %C %C %C %C %C %C %C %C %C %C %C %C %C %C %C %C %C %C %C %C %C %C %C %C %C %C %C %C %C %C %C %C %C %C %C %C %C %C %C C C C C C C C C C C C C C C C C C C C C C C C C C C C C C C C       B& B& B& B& B& B& B& B& B& B& B& B& B& B& B& B& B& B& B& B& B& B& B& B& B& B& B& B& B& B& B& B& B& B& B& B& B& B& B& B& B& B& B& B& B& B& B& B& B& B& B& B& B& B& B& B& B& B& B& B& B& B& B& B& B& B& B& B& B& B& B& B& B& B& B& B& B& B& B& B& B& B& B& B& B& B& B& B& B& B& B& B& B& B& B& B& B& B& B& B& B& B& B& B& B& B& B& B& B& B& B& B& B& B& B& B& B& B& B& B& B& B& B& B& B& B& B& B& B& B& B& B& B& B& B& B& B& B& B& B& B& B& B& B& B& B& B& B& B& B& B& B& B& B& B& B& B& B& B& B& B& B& B& B& B& B& B& B& B& B& B& B& B& B& B& B& B& B& B& B& B& B& B& B& B& B& B& B& B& B& B& B& B& B& B& B& B& B& B& & & & & & & & & & & & & & C& C& C& C& C& C& C& C& C& C& C& C& C& C& C& C& C& C& C& C& C& C& C& C& C& C& C& C& C& C& C& C& C& C& C& C& C& C& C& C& C& C& C& C& C& C& C& C& C& C& C& C& C& C& C& C& C& C& C& C& C& C& C& C& C& C& C& C& C& C& C& C& C& C& C& C& C& C& C& C& C& C& C& C& C& C& C& C& C& C& C& C& C& C& C& C& C& C& C& C& C& C& C& C& C& C& C& C& C& C& C& C& C& C& C& C& C& C& C& C& C& C& C& C& C& C& C& C& C& C& C& C& C& C& C& C& C& C& C& C& C& C& C& C& C& C& C& C& C& C& C& C& C& C& C& C& C& C& C& C& C& C& C& C& C& C& C& C& C& C& C& C& C& C& C& C& C& C& C& C& C& C& C& C& C& C& C& C& C& C& C& C& C& C& C& C& C& C& C& C& C& C& C& C& C& C& C& C& C& C& C& C& C& C& C=& C=& C=& C=& C=& C=& C=& C=& C=& C=& C=& C=& C=& C=& C=& C=& C=& C=& C=& C=& C=& C=& C=& C=& C=& C=& C=& =& =& =& =& =& =& =& =& =& =& =& =& =& =& =& =& =& =& =& =& =& =& =& =& =& =& =& =& =& =& =& =& =& =& =& =& =& =& =& =& =& =& =& =& =& =& =& =& =& =& =& =& =& =& =& =& =& =& =& =& =& =& =& =& =& =& =& =& =& =& =& =& =& =& =& =& =& =& =& =& =& =& =& =& =& =& =& =& =& =& =& =& =& =& =& =& =& =& =& =& =& =& =& =& =& =& =& =& =& =& =& =& =& =& =& =& =& =& =& =& =& =& =& =& =& =& =& =& =& =& =& =& =& =& =& =& =& =& =& =& =& =& =& =& =& =& =& =& =& =& =& =& =& =& =& =& =& =& =& =& =& =& =& =& =& =& =& =& =& =& =& =& =& =& =& =& =& =& =& =& =& =& =& =& =& =& =& =F& =F& =F& =F& =F& =F& =F& =F& =F& =F& =F& =F& =F& =F& =F& =F& =F& =F& =F& =F& =F& =F& =F& =F& =F& =F& =F& =F& =F& =F& =F& =F& =F& =F& =F& =F& =F& =F& =F& =F& =F& =F& =F& =F& =F& =F& =F& =F& =F& =F& =F& =F& =F& =F& =F& =F& =F& =F& =F& =F& =F& =F& =F& =F& =F& =F& =F& =F& =F& =F& =F& =F& =F& =F& =F& =F& =F& =F& =F& =F& =F& =F& =F& =F& =F& =F& =F& =F& =F& =F& =F& =F& =F& =F& =F& =F& =F& =F& =F& =F& =F& =F& =F& =F& =F& =F& =F& =F& =F& =F& =F& =F& =F& =F& =F& =F& =F& =F& =F& =F& =F& =F& =F& =F& =F& =F& =F& =F& =F& =F& =F& =F& =F& =F& =F& =F& =F& =F& =F& =F& =F& =F& =F& =F& =F& =F& =F& =F& =F& =F& =F& =F& =F& =F& =F& =F& =F& =F& =F& =F& =F& =F& =F& =F& =F& =F& =F& =F& =F& =F& =F& =F& =F& =F& =F& =F& =F& =F& =F& =F& =F& =F& =F& =F& =F& =F& =F& =F& =F& =F& =F& =F& =F& =F& =F& =F& =F& =F& =F& =F& =F& =F& =F& =F& =F& =F& =F& =F& F& F& F& F& F& F& FE<>& FE<>& FE<>& FE<>& FE<>& FE<>& E<>& E<>& E<>& E<>& E<>& E<>& E<>& E<>& E<>& E<>& E<>& E<>& E<>& E<>& E<>& E<>& E<>& E<>& E<>& E<>& E<>& E<>& E<>& E<>& E<>& E<>& E<>& E<>& E<>& E<>& E<>& E<>& E<>& E<>& E<>& E<>& E<>& E<>& E<>& E<>& E<>& E<>& E<>& E<>& E<>& E<>& E<>& E<>& E<>& E<>& E<>& E<>& E<>& E<>& E<>& E<>& E<>& E<>& E<>& E<>& E<>& E<>& E<>& E<>& E<>& E<>& E<>& E<>& E<>& E<>& E<>& E<>& E<>& E<>& E<>& E<>& E<>& E<>& E<>& E<>& E<>& E<>& E<>& E<>& E<>& E<>& E<>& E<>& E<>& E<>& E<>& E<>& E<>& E<>& E<>& E<>& E<>& E<>& E<>& E<>& E<>& E<>& E<>& E<>& E<>& E<>& E<>& E<>& E<>& E<>& E<>& E<>& E<>& E<>& E<>& E<>& E<>& E<>& E<>& E<>& E<>& E<>& E<>& E<>& E<>& E<>& E<>& E<>& E<>& E<>& E<>& E<>& E<>& E<>& E<>& E<>& E<>& E<>& E<>& E<>& E<>& E<>& E<>& E<>& E<>& E<>& E<>& E<>& E<>& E<>& E<>& E<>& E<>& E<>& E<>& E<>& E<>& E<>& E<>& E<>& E<>& E<>& E<>& E<>& E<>& E<>& E<>& E<>& E<>& E<>& E<>& E<>& E<>& E<>& E<>& E<>& E<>& E<>& E<>& E<>& E<>& E<>& E<>& E<>& E<>& E<>& E<>& E<>& E<>& E<>& E<>& E<>& E<>& E<>& E<>& E<>& E<>& E<>& E<>& E<>& E<>& E<>& E<>& E<>& E<>& E<>& E<>& E<>& EC<>& EC<>& EC<>& EC<>& EC<>& EC<>& EC<>& C<>& C<>& C<>& C<>& C<>& C<>& C<>& C<>& C<>& C<>& C<>& C<>& C<>& C<>& C<>& C<>& C<>& C<>& C<>& C<>& C<>& C<>& C<>& C<>& C<>& C<>& C<>& C<>& C<>& C<>& C<>& C<>& C<>& C<>& C<>& C<>& C<>& C<>& C<>& C<>& C<>& C<>& C<>& C<>& C<>& C<>& C<>& C<>& C<>& C<>& C<>& C<>& C<>& C<>& C<>& C<>& C<>& C<>& C<>& C<>& C<>& C<>& C<>& C<>& C<>& C<>& C<>& C<>& C<>& C<>& C<>& C<>& C<>& C<>& C<>& C<>& C<>& C<>& C<>& C<>& C<>& C<>& C<>& C<>& C<>& C<>& C<>& C<>& C<>& C<>& C<>& C<>& C<>& C<>& C<>& C<>& C<>& C<>& C<>& C<>& C<>& C<>& C<>& C<>& C<>& C<>& C<>& C<>& C<>& C<>& C<>& C<>& C<>& C<>& C<>& C<>& C<>& C<>& C<>& C<>& C<>& C<>& C<>& C<>& C<>& C<>& C<>& C<>& C<>& C<>& C<>& C<>& C<>& C<>& C<>& C<>& C<>& C<>& C<>& C<>& C<>& C<>& C<>& C<>& C<>& C<>& C<>& C<>& C<>& C<>& C<>& C<>& C<>& C<>& C<>& C<>& C<>& C<>& C<>& C<>& C<>& C<>& C<>& C<>& C<>& C<>& C<>& C<>& C<>& C<>& C<>& C<>& C<>& C<>& C<>& C<>& C<>& C<>& C<>& C<>& C<>& C<>& C<>& C<>& C<>& C<>& C<>& C<>& C<>& C<>& C<>& C<>& C<>& C<>& C<>& C<>& C<>& C<>& C<>& C<>& C<>& <>& <>& <>& <>& <>& <>& E<>& E<>& E<>& E<>& E<>& E<>& E<>& E<>& E<>& E<>& E<>& E<>& E<>& E<>& E<>& E<>& E<>& E<>& E<>& E<>& E<>& E<>& E<>& E<>& E<>& E<>& E<>& E<>& E<>& E<>& E<>& E<>& E<>& E<>& E<>& E<>& E<>& E<>& E<>& E<>& E<>& E<>& E<>& E<>& E<>& E<>& E<>& E<>& E<>& E<>& E<>& E<>& E<>& E<>& E<>& E<>& E<>& E<>& E<>& E<>& E<>& E<>& E<>& E<>& E<>& E<>& E<>& E<>& E<>& E<>& E<>& E<>& E<>& E<>& E<>& E<>& E<>& E<>& E<>& E<>& E<>& E<>& E<>& E<>& E<>& E<>& E<>& E<>& E<>& E<>& E<>& E<>& E<>& E<>& E<>& E<>& E<>& E<>& E<>& E<>& E<>& E<>& E<>& E<>& E<>& E<>& E<>& E<>& E<>& E<>& E<>& E<>& E<>& E<>& E<>& E<>& E<>& E<>& E<>& E<>& E<>& E<>& E<>& E<>& E<>& E<>& E<>& E<>& E<>& E<>& E<>& E<>& E<>& E<>& E<>& E<>& E<>& E<>& E<>& E<>& E<>& E<>& E<>& E<>& E<>& E<>& E<>& E<>& E<>& E<>& E<>& E<>& E<>& E<>& E<>& E<>& E<>& E<>& E<>& E<>& E<>& E<>& E<>& E<>& E<>& E<>& E<>& E<>& E<>& E<>& E<>& E<>& E<>& E<>& E<>& E<>& E<>& E<>& E<>& E<>& E<>& E<>& E<>& E<>& E<>& E<>& E<>& E<>& E<>& E<>& E<>& E<>& E<>& E<>& E<>& E<>& E<>& E<>& E<>& E<>& E<>& E<>& E<>& E<>& E<>& E<>& E<>& E<>& <>& <>& <>& <>& <>& <>& <>B& <>B& <>B& <>B& <>B& <>B& <>B& <>B& <>B& <>B& <>B& <>B& <>B& <>B& <>B& <>B& <>B& <>B& <>B& <>B& <>B& <>B& <>B& <>B& <>B& <>B& <>B& <>B& <>B& <>B& <>B& <>B& <>B& <>B& <>B& <>B& <>B& <>B& <>B& <>B& <>B& <>B& <>B& <>B& <>B& <>B& <>B& <>B& <>B& <>B& <>B& <>B& <>B& <>B& <>B& <>B& <>B& <>B& <>B& <>B& <>B& <>B& <>B& <>B& <>B& <>B& <>B& <>B& <>B& <>B& <>B& <>B& <>B& <>B& <>B& <>B& <>B& <>B& <>B& <>B& <>B& <>B& <>B& <>B& <>B& <>B& <>B& <>B& <>B& <>B& <>B& <>B& <>B& <>B& <>B& <>B& <>B& <>B& <>B& <>B& <>B& <>B& <>B& <>B& <>B& <>B& <>B& <>B& <>B& <>B& <>B& <>B& <>B& <>B& <>B& <>B& <>B& <>B& <>B& <>B& <>B& <>B& <>B& <>B& <>B& <>B& <>B& <>B& <>B& <>B& <>B& <>B& <>B& <>B& <>B& <>B& <>B& <>B& <>B& <>B& <>B& <>B& <>B& <>B& <>B& <>B& <>B& <>B& <>B& <>B& <>B& <>B& <>B& <>B& <>B& <>B& <>B& <>B& <>B& <>B& <>B& <>B& <>B& <>B& <>B& <>B& <>B& <>B& <>B& <>B& <>B& <>B& <>B& <>B& <>B& <>B& <>B& <>B& <>B& <>B& <>B& <>B& <>B& <>B& <>B& <>B& <>B& <>B& <>B& <>B& <>B& <>B& <>B& <>B& <>B& <>B& <>B& <>B& <>B& <>B& <>B& <>B& <>B& B& B& B& B& B&      <>C+ <>C+ <>C+ <>C+ <>C+ <>C+ <>C+ <>C+ <>C+ <>C+ <>C+ <>C+ <>C+ <>C+ <>C+ <>C+ <>C+ <>C+ <>C+ <>C+ <>C+ <>C+ <>C+ <>C+ <>C+ <>C+ <>C+ <>C+ <>C+ <>C+ <>C+ <>C+ <>C+ <>C+ <>C+ <>C+ <>C+ <>C+ <>C+ <>C+ <>C+ <>C+ <>C+ <>C+ <>C+ <>C+ <>C+ <>C+ <>C+ <>C+ <>C+ <>C+ <>C+ <>C+ <>C+ <>C+ <>C+ <>C+ <>C+ <>C+ <>C+ <>C+ <>C+ <>C+ <>C+ <>C+ <>C+ <>C+ <>C+ <>C+ <>C+ <>C+ <>C+ <>C+ <>C+ <>C+ <>C+ <>C+ <>C+ <>C+ <>C+ <>C+ <>C+ <>C+ <>C+ <>C+ <>C+ <>C+ <>C+ <>C+ <>C+ <>C+ <>C+ <>C+ <>C+ <>C+ <>C+ <>C+ <>C+ <>C+ <>C+ <>C+ <>C+ <>C+ <>C+ <>C+ <>C+ <>C+ <>C+ <>C+ <>C+ <>C+ <>C+ <>C+ <>C+ <>C+ <>C+ <>C+ <>C+ <>C+ <>C+ <>C+ <>C+ <>C+ <>C+ <>C+ <>C+ <>C+ <>C+ <>C+ <>C+ <>C+ <>C+ <>C+ <>C+ <>C+ <>C+ <>C+ <>C+ <>C+ <>C+ <>C+ <>C+ <>C+ <>C+ <>C+ <>C+ <>C+ <>C+ <>C+ <>C+ <>C+ <>C+ <>C+ <>C+ <>C+ <>C+ <>C+ <>C+ <>C+ <>C+ <>C+ <>C+ <>C+ <>C+ <>C+ <>C+ <>C+ <>C+ <>C+ <>C+ <>C+ <>C+ <>C+ <>C+ <>C+ <>C+ <>C+ <>C+ <>C+ <>C+ <>C+ <>C+ <>C+ <>C+ <>C+ <>C+ <>C+ <>C+ <>C+ <>C+ <>C+ <>C+ <>C+ <>C+ <>C+ <>C+ <>C+ <>C+ <>C+ <>C+ <>C+ <>C+ <>C+ <>C+ <>C+ <>C+ <>C+ <>C+ <>C+ <>C+ <>C+ <>C+ <>C+ <>C+ <>C+ <>C+ <>C+ <>C+ <>C+ <>C+ <>C+ <>C+ <>C+ <>C+ <>C+ <>C+ <>C+ <>C+ <>C+ <>C+ <>C+ <>C+ <>C+ <>C+ <>C+ <>C+ <>C+ <>C+ <>C+ <>C+ <>C+ <>C+ <>C+ <>C+ <>C+ <>C+ <>C+ <>C+ <>C+ <>C+ <>C+ <>C+ <>C+ <>C+ <>C+ <>C+ <>C+ <>C+ <>C+ <>C+ <>C+ <>C+ <>C+ <>C+ <>C+ <>C+ <>C+ <>C+ <>C+ <>C+ <>C+ <>C+ <>C+ <>C+ <>C+ <>C+ <>C+ <>C+ <>C+ <>C+ <>C+ <>C+ <>C+ <>C+ <>C+ <>C+ <>C+ <>C+ <>C+ <>C+ <>C+ <>C+ <>C+ <>C+ <>C+ <>C+ <>C+ <>C+ <>C+ <>C+ <>C+ <>C+ <>C+ <>C+ <>C+ <>C+ <>C+ <>C+ <>C+ <>C+ <>C+ <>C+ <>C+ <>C+ <>C+ <>C+ <>C+ <>C+ <>C+ <>C+ <>C+ <>C+ <>C+ <>C+ <>C+ <>C+ <>C+ <>C+ <>C+ <>C+ <>C+ <>C+ <>C+ <>C+ <>C+ <>C+ <>C+ <>C+ <>C+ <>C+ <>C+ <>C+ <>C+ <>C+ <>C+ <>C+ <>C+ <>C+ <>C+ <>C+ <>C+ <>C+ <>C+ <>C+ <>C+ <>C+ <>C+ <>C+ <>C+ <>C+ <>C+ <>C+ <>C+ <>C+ <>C+ <>C+ <>C+ <>C+ <>C+ <>C+ <>C+ <>C+ <>C+ <>C+ <>C+ <>C+ <>C+ <>C+ <>C+ <>C+ <>C+ <>C+ <>C+ <>C+ <>C+ <>C+ <>C+ <>C+ <>C+ <>C+ <>C+ <>C+ <>C+ <>C+ <>C+ <>C+ <>C+ <>C+ <>C+ <>C+ <>C+ <>C+ <>C+ <>C+ <>C+ <>C+ <>C+ <>C+ <>C+ <>C+ <>C+ <>C+ <>C+ <>C+ <>C+ <>C+ <>C+ <>C+ <>C+ <>C+ <>C+ <>C+ <>C+ <>C+ <>C+ <>C+ <>C+ <>C+ <>C+ <>C+ <>C+ <>C+ <>C+ <>C+ <>C+ <>C+ <>C+ <>C+ <>C+ <>C+ <>C+ <>C+ <>C+ <>C+ <>C+ <>C+ <>C+ <>C+ <>C+ <>C+ <>C+ <>C+ <>C+ <>C+ <>C+ <>C+ <>C+ <>C+ <>C+ <>C+ <>C+ <>C+ <>C+ <>C+ <>C+ <>C+ <>C+ <>C+ <>C+ <>C+ <>C+ <>C+ <>C+ >C+ >C+ >C+ >C+ >C+ >C+ >C9+ >C9+ >C9+ >C9+ >C9+ >C9+ >C9+ >C9+ >C9+ >C9+ >C9+ >C9+ >C9+ >C9+ >C9+ >C9+ >C9+ >C9+ >C9+ >C9+ >C9+ >C9+ >C9+ >C9+ >C9+ >C9+ >C9+ >C9+ >C9+ >C9+ >C9+ >C9+ >C9+ >C9+ >C9+ >C9+ >C9+ >C9+ >C9+ >C9+ >C9+ >C9+ >C9+ >C9+ >C9+ >C9+ >C9+ >C9+ >C9+ >C9+ >C9+ >C9+ >C9+ >C9+ >C9+ >C9+ >C9+ >C9+ >C9+ >C9+ >C9+ >C9+ >C9+ >C9+ >C9+ >C9+ >C9+ >C9+ >C9+ >C9+ >C9+ >C9+ >C9+ >C9+ >C9+ >C9+ >C9+ >C9+ >C9+ >C9+ >C9+ >C9+ >C9+ >C9+ >C9+ >C9+ >C9+ >C9+ >C9+ >C9+ >C9+ >C9+ >C9+ >C9+ >C9+ >C9+ >C9+ >C9+ >C9+ >C9+ >C9+ >C9+ >C9+ >C9+ >C9+ >C9+ >C9+ >C9+ >C9+ >C9+ >C9+ >C9+ >C9+ >C9+ >C9+ >C9+ >C9+ >C9+ >C9+ >C9+ >C9+ >C9+ >C9+ >C9+ >C9+ >C9+ >C9+ >C9+ >C9+ >C9+ >C9+ >C9+ >C9+ >C9+ >C9+ >C9+ >C9+ >C9+ >C9+ >C9+ >C9+ >C9+ >C9+ >C9+ >C9+ >C9+ >C9+ >C9+ >C9+ >C9+ >C9+ >C9+ >C9+ >C9+ >C9+ >C9+ >C9+ >C9+ >C9+ >C9+ >C9+ >C9+ >C9+ >C9+ >C9+ >C9+ >C9+ >C9+ >C9+ >C9+ >C9+ >C9+ >C9+ >C9+ >C9+ >C9+ >C9+ >C9+ >C9+ >C9+ >C9+ >C9+ >C9+ >C9+ >C9+ >C9+ >C9+ >C9+ >C9+ >C9+ >C9+ >C9+ >C9+ >C9+ >C9+ >C9+ >C9+ >C9+ >C9+ >C9+ >C9+ >C9+ >C9+ >C9+ >C9+ >C9+ >C9+ >C9+ >C9+ >C9+ >C9+ >C9+ >C9+ >C9+ >C9+ >C9+ >C9+ >C9+ >C9+ >C9+ >C9+ >C9+ >C9+ >C9+ >C9+ >C9+ >C9+ >C9+ >C9+ >C9+ >C9+ >C9+ >C9+ >C9+ >C9+ >C9+ >C9+ >C9+ >C9+ >C9+ >C9+ >C9+ >C9+ >C9+ >C9+ >C9+ >C9+ >C9+ >C9+ >C9+ >C9+ >C9+ >C9+ >C9+ >C9+ >C9+ >C9+ >C9+ >C9+ >C9+ >C9+ >C9+ >C9+ >C9+ >C9+ >C9+ >C9+ >C9+ >C9+ >C9+ >C9+ >C9+ >C9+ >C9+ >C9+ >C9+ >C9+ >C9+ >C9+ >C9+ >C9+ >C9+ >C9+ >C9+ >C9+ >C9+ >C9+ >C9+ >C9+ >C9+ >C9+ >C9+ >C9+ >C9+ >C9+ >C9+ >C9+ >C9+ >C9+ >C9+ >C9+ >C9+ >C9+ >C9+ >C9+ >C9+ >C9+ >C9+ >C9+ >C9+ >C9+ >C9+ >C9+ >C9+ >C9+ >C9+ >C9+ >C9+ >C9+ >C9+ >C9+ >C9+ >C9+ >C9+ >C9+ >C9+ >C9+ >C9+ >C9+ >C9+ >C9+ >C9+ >C9+ >C9+ >C9+ >C9+ >C9+ >C9+ >C9+ >C9+ >C9+ >C9+ >C9+ >C9+ >C9+ >C9+ >C9+ >C9+ >C9+ >C9+ >C9+ >C9+ >C9+ >C9+ >C9+ >C9+ >C9+ >C9+ >C9+ >C9+ >C9+ >C9+ >C9+ >C9+ >C9+ >C9+ >C9+ >C9+ >C9+ >C9+ >C9+ >C9+ >C9+ >C9+ >C9+ >C9+ >C9+ >C9+ >C9+ >C9+ >C9+ >C9+ >C9+ >C9+ >C9+ >C9+ >C9+ >C9+ >C9+ >C9+ >C9+ >C9+ >C9+ >C9+ >C9+ >C9+ >C9+ >C9+ >C9+ >C9+ >C9+ >C9+ >C9+ >C9+ >C9+ >C9+ >C9+ >C9+ >C9+ >C9+ >C9+ >C9+ >C9+ >C9+ >C9+ >C9+ >C9+ >C9+ >C9+ >C9+ >C9+ >C9+ >C9+ >C9+ >C9+ >C9+ >C9+ >C9+ >C9+ >C9+ >C9+ >C9+ >C9+ >C9+ >C9+ >C9+ >C9+ >C9+ >C9+ >C9+ >C9+ >C9+ >C9+ >C9+ >C9+ >C9+ >C9+ >C9+ >C9+ >C9+ >C9+ >C9+ >C9+ >C9+ >C9+ >C9+ >C9+ >C9+ >C9+ >C9+ >C9+ >C9+ >C9+ >C9+ >C9+ >C9+ >C9+ >C9+ >C9+ 9+ 9+ 9+ 9+ 9+ + + + + + +7:C> +7:C> +7:C> +7:C> +7:C> +7:C> +7:C> +7:C> +7:C> +7:C> +7:C> +7:C> +7:C> +7:C> +7:C> +7:C> +7:C> +7:C> +7:C> +7:C> +7:C> +7:C> +7:C> +7:C> +7:C> +7:C> +7:C> +7:C> +7:C> +7:C> +7:C> +7:C> +7:C> +7:C> +7:C> +7:C> +7:C> +7:C> +7:C> +7:C> +7:C> +7:C> +7:C> +7:C> +7:C> +7:C> +7:C> +7:C> +7:C> +7:C> +7:C> +7:C> +7:C> +7:C> +7:C> +7:C> +7:C> +7:C> +7:C> +7:C> +7:C> +7:C> +7:C> +7:C> +7:C> +7:C> +7:C> +7:C> +7:C> +7:C> +7:C> +7:C> +7:C> +7:C> +7:C> +7:C> +7:C> +7:C> +7:C> +7:C> +7:C> +7:C> +7:C> +7:C> +7:C> +7:C> +7:C> +7:C> +7:C> +7:C> +7:C> +7:C> +7:C> +7:C> +7:C> +7:C> +7:C> +7:C> +7:C> +7:C> +7:C> +7:C> +7:C> +7:C> +7:C> +7:C> +7:C> +7:C> +7:C> +7:C> +7:C> +7:C> +7:C> +7:C> +7:C> +7:C> +7:C> +7:C> +7:C> +7:C> +7:C> +7:C> +7:C> +7:C> +7:C> +7:C> +7:C> +7:C> +7:C> +7:C> +7:C> +7:C> +7:C> +7:C> +7:C> +7:C> +7:C> +7:C> +7:C> +7:C> +7:C> +7:C> +7:C> +7:C> +7:C> +7:C> +7:C> +7:C> +7:C> +7:C> +7:C> +7:C> +7:C> +7:C> +7:C> +7:C> +7:C> +7:C> +7:C> +7:C> +7:C> +7:C> +7:C> +7:C> +7:C> +7:C> +7:C> +7:C> +7:C> +7:C> +7:C> +7:C> +7:C> +7:C> +7:C> +7:C> +7:C> +7:C> +7:C> +7:C> +7:C> +7:C> +7:C> +7:C> +7:C> +7:C> +7:C> +7:C> +7:C> +7:C> +7:C> +7:C> +7:C> +7:C> +7:C> +7:C> +7:C> +7:C> +7:C> +7:C> +7:C> +7:C> +7:C> +7:C> +7:C> +7:C> +7:C> +7:C> +7:C> +7:C> +7:C> +7:C> +7:C> +7:C> +7:C> +7:C> +7:C> +7:C> +7:C> +7:C> +7:C> +7:C> +7:C> +7:C> +7:C> +7:C> +7:C> +7:C> +7:C> +7:C> +7:C> +7:C> +7:C> +7:C> +7:C> +7:C> +7:C> +7:C> +7:C> +7:C> +7:C> +7:C> +7:C> +7:C> +7:C> +7:C> +7:C> +7:C> +7:C> +7:C> +7:C> +7:C> +7:C> +7:C> +7:C> +7:C> +7:C> +7:C> +7:C> +7:C> +7:C> +7:C> +7:C> +7:C> +7:C> +7:C> +7:C> +7:C> +7:C> +7:C> +7:C> +7:C> +7:C> +7:C> +7:C> +7:C> +7:C> +7:C> +7:C> +7:C> +7:C> +7:C> +7:C> +7:C> +7:C> +7:C> +7:C> +7:C> +7:C> +7:C> +7:C> +7:C> +7:C> +7:C> +7:C> +7:C> +7:C> +7:C> +7:C> +7:C> +7:C> +7:C> +7:C> +7:C> +7:C> +7:C> +7:C> +7:C> +7:C> +7:C> +7:C> +7:C> +7:C> +7:C> +7:C> +7:C> +7:C> +7:C> +7:C> +7:C> +7:C> +7:C> +7:C> +7:C> +7:C> +7:C> +7:C> +7:C> +7:C> +7:C> +7:C> +7:C> +7:C> +7:C> +7:C> +7:C> +7:C> +7:C> +7:C> +7:C> +7:C> +7:C> +7:C> +7:C> +7:C> +7:C> +7:C> +7:C> +7:C> +7:C> +7:C> +7:C> +7:C> +7:C> +7:C> +7:C> +7:C> +7:C> +7:C> +7:C> +7:C> +7:C> +7:C> +7:C> +7:C> +7:C> +7:C> +7:C> +7:C> +7:C> +7:C> +7:C> +7:C> +7:C> +7:C> +7:C> +7:C> +7:C> +7:C> +7:C> +7:C> +7:C> +7:C> +7:C> +7:C> +7:C> +7:C> +7:C> +7:C> +7:C> +7:C> +7:C> +7:C> +7:C> +7:C> +7:C> +7:C> +7:C> +7:C> +7:C> +7:C> +7:C> +7:C> +7:C> +7:C> +7:C> +7:C> +7:C> +7:C> +7:C> +7:C> +7:C> +7:C> +7:C> +7:C> +7:C> +7:C> +7:C> +7:C> +7:C> +7:C> +7:C> +7:C> +7:C> +7:C> +7:C> +7:C> +7:C> +7:C> +7:C> +7:C> +7:C> +7:C> +7:C> +7:C> +7:C> +7:C> +7:C> +7:C> +7:C> +7:C> +7:C> +7:C> +7:C> +7:C> +7:C> +7:C> +7:C> +7:C> +7:C> +7:C> +7:C> +7:C> +7:C> +7:C> +7:C> +7:C> +7:C> +7:C> +7:C> +7:C> +7:C> +7:C> +7:C> +7:C> +7:C> +7:C> +7:C> +7:C> +7:C> +7:C> +7:C> +7:C> +7:C> +7:C> +7:C> +7:C> +7:C> +7:C> +7:C> +7:C> +7:C> +7:C> +7:C> +7:C> +7:C> +7:C> +7:C> +7:C> +7:C> +7:C> +7:C> +7:C> +7:C> +7:C> +7:C> +7:C> +7:C> +7:C> +7:C> +7:C> +7:C> +7:C> +7:C> +7:C> +7:C> +7:C> +7:C> +7:C> +7:C> +7:C> +7:C> +7:C> +7:C> +7:C> +7:C> +7:C> +7:C> +7:C> +7:C> +7:C> +7:C> +7:C> +7:C> +7:C> +7:C> +7:C> +7:C> +7:C> +7:C> +7:C> +7:C> +7:C> +7:C> +7:C> +7:C> +7:C> +7:C> +7:C> +7:C> +7:C> +7:C> +7:C> +7:C> +7:C> +7:C> +7:C> +7:C> +7:C> +7:C> +7:C> +7:C> +7:C> +7:C> +7:C> +7:C> +7:C> +7:C> +7:C> +7:C> +7:C> +7:C> +7:C> +7:C> +7:C> +7:C> +7:C> +7:C> +7:C> +7:C> +7:C> +7:C> +7:C> +7:C> +7:C> +7:C> +7:C> +7:C> +7:C> +7:C> +7:C> +7:C> +7:C> +7:C> +7:C> +7:C> +7:C> +7:C> +7:C> +7:C> +7:C> +7:C> +7:C> +7:C> +7:C> +7:C> +7:C> +7:C> +7:C> +7:C> +7:C> +7:C> +7:C> +7:C> +7:C> +7:C> +7:C> +7:C> +7:C> +7:C> +7:C> +7:C> +7:C> +7:C> +7:C> +7:C> +7:C> +7:C> +7:C> +7:C> +7:C> +7:C> +7:C> +7:C> +7:C> +7:C> +7:C> +7:C> +7:C> +7:C> +7:C> +7:C> +7:C> +7:C> +7:C> +7:C> +7:C> +7:C> +7:C> +7:C> +7:C> +7:C> +7:C> +7:C> +7:C> +7:C> +7:C> +7:C> +7:C> +7:C> +7:C> +7:C> +7:C> +7:C> +7:C> +7:C> +7:C> +7:C> +7:C> +7:C> +7:C> +7:C> +7:C> +7:C> +7:C> +7:C> +7:C> +7:C> +7:C> +7:C> +7:C> +7:C> +7:C> +7:C> +7:C> +7:C> +7:C> +7:C> +7:C> +7:C> +7:C> +7:C> +7:C> +7:C> +7:C> +7:C> +7:C> +7:C> +7:C> +7:C> +7:C> +7:C> +7:C> +7:C> +7:C> +7:C> +7:C> +7:C> +7:C> +7:C> +7:C> +7:C> +7:C> +7:C> +7:C> +7:C> +7:C> +7:C> +7:C> +7:C> +7:C> +7:C> +7:C> +7:C> +7:C> +7:C> +7:C> +7:C> +7:C> +7:C> +7:C> +7:C> +7:C> +7:C> +7:C> +7:C> +7:C> +7:C> +7:C> +7:C> +7:C> +7:C> +7:C> +7:C> +7:C> +7:C> +7:C> +7:C> +7:C> +7:C> +7:C> +7:C> +7:C> +7:C> +7:C> +7:C> +7:C> +7:C> +7:C> +7:C> +7:C> +7:C> +7:C> +7:C> +7:C> +7:C> +7:C> +7:C> +7:C> +7:C> +7:C> +7:C> +7:C> +7:C> +7:C> +7:C> +7:C> +7:C> +7:C> +7:C> +7:C> +7:C> +7:C> +7:C> +7:C> +7:C> +7:C> +7:C> +7:C> +7:C> +7:C> +7:C> +7:C> +7:C> +7:C> +7:C> +7:C> +7:C> +7:C> +7:C> +7:C> +7:C> +7:C> +7:C> +7:C> +7:C> +7:C> +7:C> +7:C> +7:C> +7:C> +7:C> +7:C> +7:C> +7:C> +7:C> +7:C> +7:C> +7:C> +7:C> +7:C> +7:C> +7:C> +7:C> +7:C> +7:C> +7:C> +7:C> +7:C> +7:C> +7:C> +7:C> +7:C> +7:C> +7:C> +7:C> +7:C> +7:C> +7:C> +7:C> +7:C> +7:C> +7:C> +7:C> +7:C> +7:C> +7:C> +7:C> +7:C> +7:C> +7:C> +7:C> +7:C> +7:C> +7:C> +7:C> +7:C> +7:C> +7:C> +7:C> +7:C> +7:C> +7:C> +7:C> +7:C> +7:C> +7:C> +7:C> +7:C> +7:C> +7:C> +7:C> +7:C> +7:C> +7:C> +7:C> +7:C> +7:C> +7:C> +7:C> +7:C> +7:C> +7:C> +7:C> +7:C> +7:C> +7:C> +7:C> +7:C> +7:C> +7:C> +7:C> +7:C> +7:C> +7:C> +7:C> +7:C> +7:C> +7:C> +7:C> +7:C> +7:C> +7:C> +7:C> +7:C> +7:C> +7:C> +7:C> +7:C> +7:C> +7:C> +7:C> +7:C> +7:C> +7:C> +7:C> +7:C> +7:C> +7:C> +7:C> +7:C> +7:C> +7:C> +7:C> +7:C> +7:C> +7:C> +7:C> +7:C> +7:C> +7:C> +7:C> +7:C> +7:C> +7:C> +7:C> +7:C> +7:C> +7:C> +7:C> +7:C> +7:C> +7:C> +7:C> +7:C> +7:C> +7:C> +7:C> +7:C> +7:C> +7:C> +7:C> +7:C> +7:C> +7:C> +7:C> +7:C> +7:C> +7:C> +7:C> +7:C> +7:C> +7:C> +7:C> +7:C> +7:C> +7:C> +7:C> +7:C> +7:C> +7:C> +7:C> +7:C> +7:C> +7:C> +7:C> +7:C> +7:C> +7:C> +7:C> +7:C> +7:C> +7:C> +7:C> +7:C> +7:C> +7:C> +7:C> +7:C> +7:C> +7:C> +7:C> +7:C> +7:C> +7:C> +7:C> +7:C> +7:C> +7:C> +7:C> +7:C> +7:C> +7:C> +7:C> +7:C> +7:C> +7:C> +7:C> +7:C> +7:C> +7:C> +7:C> +7:C> +7:C> +7:C> +7:C> +7:C> +7:C> +7:C> +7:C> +7:C> +7:C> +7:C> +7:C> +7:C> +7:C> +7:C> +7:C> +7:C> +7:C> +7:C> +7:C> +7:C> +7:C> +7:C> +7:C> +7:C> +7:C> +7:C> +7:C> +7:C> +7:C> +7:C> +7:C> +7:C> +7:C> +7:C> +7:C> +7:C> +7:C> +7:C> +7:C> +7:C> +7:C> +7:C> +7:C> +7:C> +7:C> +7:C> +7:C> +7:C> +7:C> +7:C> +7:C> +7:C> +7:C> +7:C> +7:C> +7:C> +7:C> +7:C> +7:C> +7:C> +7:C> +7:C> +7:C> +7:C> +7:C> +7:C> +7:C> +7:C> +7:C> +7:C> +7:C> +7:C> +7:C> +7:C> +7:C> +7:C> +7:C> +7:C> +7:C> +7:C> +7:C> +7:C> +7:C> +7:C> +7:C> +7:C> +7:C> +7:C> +7:C> +7:C> +7:C> +7:C> +7:C> +7:C> +7:C> +7:C> +7:C> +7:C> +7:C> +7:C> +7:C> +7:C> +7:C> +7:C> +7:C> +7:C> +7:C> +7:C> +7:C> +7:C> +7:C> +7:C> +7:C> +7:C> +7:C> +7:C> +7:C> +7:C> +7:C> +7:C> +7:C> +7:C> +7:C> +7:C> +7:C> +7:C> +7:C> +7:C> +7:C> +7:C> +7:C> +7:C> +7:C> +7:C> +7:C> +7:C> +7:C> +7:C> +7:C> +7:C> +7:C> +7:C> +7:C> +7:C> +7:C> +7:C> +7:C> +7:C> +7:C> +7:C> +7:C> +7:C> +7:C> +7:C> +7:C> +7:C> +7:C> +7:C> +7:C> +7:C> +7:C> +7:C> +7:C> +7:C> +7:C> +7:C> +7:C> +7:C> +7:C> +7:C> +7:C> +7:C> +7:C> +7:C> +7:C> +7:C> +7:C> +7:C> +7:C> +7:C> +7:C> +7:C> +7:C> +7:C> +7:C> +7:C> +7:C> +7:C> +7:C> +7:C> +7:C> +7:C> +7:C> +7:C> +7:C> +7:C> +7:C> +7:C> +7:C> +7:C> +7:C> +7:C> +7:C> +7:C> +7:C> +7:C> +7:C> +7:C> +7:C> +7:C> +7:C> +7:C> +7:C> +7:C> +7:C> +7:C> +7:C> +7:C> +7:C> +7:C> +7:C> +7:C> +7:C> +7:C> +7:C> +7:C> +7:C> +7:C> +7:C> +7:C> +7:C> +7:C> +7:C> +7:C> +7:C> +7:C> +7:C> +7:C> +7:C> +7:C> +7:C> +7:C> +7:C> +7:C> +7:C> +7:C> +7:C> +7:C> +7:C> +7:C> +7:C> +7:C> +7:C> +7:C> +7:C> +7:C> +7:C> +7:C> +7:C> +7:C> +7:C> +7:C> +7:C> +7:C> +7:C> +7:C> +7:C> +7:C> +7:C> +7:C> +7:C> +7:C> +7:C> +7:C> +7:C> +7:C> +7:C> +7:C> +7:C> +7:C> +7:C> +7:C> +7:C> +7:C> +7:C> +7:C> +7:C> +7:C> +7:C> +7:C> +7:C> +7:C> +7:C> +7:C> +7:C> +7:C> +7:C> +7:C> +7:C> +7:C> +7:C> +7:C> +7:C> +7:C> +7:C> +7:C> +7:C> +7:C> +7:C> +7:C> +7:C> +7:C> +7:C> +7:C> +7:C> +7:C> +7:C> +7:C> +7:C> +7:C> +7:C> +7:C> +7:C> +7:C> +7:C> +7:C> +7:C> +7:C> +7:C> +7:C> +7:C> +7:C> +7:C> +7:C> +7:C> +7:C> +7:C> +7:C> +7:C> +7:C> +7:C> +7:C> +7:C> +7:C> +7:C> +7:C> +7:C> +7:C> +7:C> +7:C> +7:C> +7:C> +7:C> +7:C> +7:C> +7:C> +7:C> +7:C> +7:C> +7:C> +7:C> +7:C> +7:C> +7:C> +7:C> +7:C> +7:C> +7:C> +7:C> +7:C> +7:C> +7:C> +7:C> +7:C> +7:C> +7:C> +7:C> +7:C> +7:C> +7:C> +7:C> +7:C> +7:C> +7:C> +7:C> +7:C> +7:C> +7:C> +7:C> +7:C> +7:C> +7:C> +7:C> +7:C> +7:C> +7:C> +7:C> +7:C> +7:C> +7:C> +7:C> +7:C> +7:C> +7:C> +7:C> +7:C> +7:C> +7:C> +7:C> +7:C> +7:C> +7:C> +7:C> +7:C> +7:C> +7:C> +7:C> +7:C> +7:C> +7:C> +7:C> +7:C> +7:C> +7:C> +7:C> +7:C> +7:C> +7:C> +7:C> +7:C> +7:C> +7:C> +7:C> +7:C> +7:C> +7:C> +7:C> +7:C> +7:C> +7:C> +7:C> +7:C> +7:C> +7:C> +7:C> +7:C> +7:C> +7:C> +7:C> +7:C> +7:C> +7:C> +7:C> +7:C> +7:C> +7:C> +7:C> +7:C> +7:C> +7:C> +7:C> +7:C> +7:C> +7:C> +7:C> +7:C> +7:C> +7:C> +7:C> +7:C> +7:C> +7:C> +7:C> +7:C> +7:C> +7:C> +7:C> +7:C> +7:C> +7:C> +7:C> +7:C> +7:C> +7:C> +7:C> +7:C> +7:C> +7:C> +7:C> +7:C> +7:C> +7:C> +7:C> +7:C> +7:C> +7:C> +7:C> +7:C> +7:C> +7:C> +7:C> +7:C> +7:C> +7:C> +7:C> +7:C> +7:C> +7:C> +7:C> +7:C> +7:C> +7:C> +7:C> +7:C> +7:C> +7:C> +7:C> +7:C> +7:C> +7:C> +7:C> +7:C> +7:C> +7:C> +7:C> +7:C> +7:C> +7:C> +7:C> +7:C> +7:C> +7:C> +7:C> +7:C> +7:C> +7:C> +7:C> +7:C> +7:C> +7:C> +7:C> +7:C> +7:C> +7:C> +7:C> +7:C> +7:C> +7:C> +7:C> +7:C> +7:C> +7:C> +7:C> +7:C> +7:C> +7:C> +7:C> +7:C> +7:C> +7:C> +7:C> +7:C> +7:C> +7:C> +7:C> +7:C> +7:C> +7:C> +7:C> +7:C> +7:C> +7:C> +7:C> +7:C> +7:C> +7:C> +7:C> +7:C> +7:C> +7:C> +7:C> +7:C> +7:C> +7:C> +7:C> +7:C> +7:C> +7:C> +7:C> +7:C> +7:C> +7:C> +7:C> +7:C> +7:C> +7:C> +7:C> +7:C> +7:C> +7:C> +7:C> +7:C> +7:C> +7:C> +7:C> +7:C> +7:C> +7:C> +7:C> +7:C> +7:C> +7:C> +7:C> +7:C> +7:C> +7:C> +7:C> +7:C> +7:C> +7:C> +7:C> +7:C> +7:C> +7:C> +7:C> +7:C> +7:C> +7:C> +7:C> +7:C> +7:C> +7:C> +7:C> +7:C> +7:C> +7:C> +7:C> +7:C> +7:C> +7:C> +7:C> +7:C> +7:C> +7:C> +7:C> +7:C> +7:C> +7:C> +7:C> +7:C> +7:C> +7:C> +7:C> +7:C> +7:C> +7:C> +7:C> +7:C> +7:C> +7:C> +7:C> +7:C> +7:C> +7:C> +7:C> +7:C> +7:C> +7:C> +7:C> +7:C> +7:C> +7:C> +7:C> +7:C> +7:C> +7:C> +7:C> +7:C> +7:C> +7:C> +7:C> +7:C> +7:C> +7:C> +7:C> +7:C> +7:C> +7:C> +7:C> +7:C> +7:C> +7:C> +7:C> +7:C> +7:C> +7:C> +7:C> +7:C> +7:C> +7:C> +7:C> +7:C> +7:C> +7:C> +7:C> +7:C> +7:C> +7:C> +7:C> +7:C> +7:C> +7:C> +7:C> +7:C> +7:C> +7:C> +7:C> +7:C> +7:C> +7:C> +7:C> +7:C> +7:C> +7:C> +7:C> +7:C> +7:C> +7:C> +7:C> +7:C> +7:C> +7:C> +7:C> +7:C> +7:C> +7:C> +7:C> +7:C> +7:C> +7:C> +7:C> +7:C> +7:C> +7:C> +7:C> +7:C> +7:C> +7:C> +7:C> +7:C> +7:C> +7:C> +7:C> +7:C> +7:C> +7:C> +7:C> +7:C> +7:C> +7:C> +7:C> +7:C> +7:C> +7:C> +7:C> +7:C> +7:C> +7:C> +7:C> +7:C> +7:C> +7:C> +7:C> +7:C> +7:C> +7:C> +7:C> +7:C> +7:C> +7:C> +7:C> +7:C> +7:C> +7:C> +7:C> +7:C> +7:C> +7:C> +7:C> +7:C> +7:C> +7:C> +7:C> +7:C> +7:C> +7:C> +7:C> +7:C> +7:C> +7:C> +7:C> +7:C> +7:C> +7:C> +7:C> +7:C> +7:C> +7:C> +7:C> +7:C> +7:C> +7:C> +7:C> +7:C> +7:C> +7:C> +7:C> +7:C> +7:C> +7:C> +7:C> +7:C> +7:C> +7:C> +7:C> +7:C> +7:C> +7:C> +7:C> +7:C> +7:C> +7:C> +7:C> +7:C> +7:C> +7:C> +7:C> +7:C> +7:C> +7:C> +7:C> +7:C> +7:C> +7:C> +7:C> +7:C> +7:C> +7:C> +7:C> +7:C> +7:C> +7:C> +7:C> +7:C> +7:C> +7:C> +7:C> +7:C> +7:C> +7:C> +7:C> +7:C> +7:C> +7:C> +7:C> +7:C> +7:C> +7:C> +7:C> +7:C> +7:C> +7:C> +7:C> +7:C> +7:C> +7:C> +7:C> +7:C> +7:C> +7:C> +7:C> +7:C> +7:C> +7:C> +7:C> +7:C> +7:C> +7:C> +7:C> +7:C> +7:C> +7:C> +7:C> +7:C> +7:C> +7:C> +7:C> +7:C> +7:C> +7:C> +7:C> +7:C> +7:C> +7:C> +7:C> +7:C> +7:C> +7:C> +7:C> +7:C> +7:C> +7:C> +7:C> +7:C> +7:C> +7:C> +7:C> +7:C> +7:C> +7:C> +7:C> +7:C> +7:C> +7:C> +7:C> +7:C> +7:C> +7:C> +7:C> +7:C> +7:C> +7:C> +7:C> +7:C> +7:C> +7:C> +7:C> +7:C> +7:C> +7:C> +7:C> +7:C> +7:C> +7:C> +7:C> +7:C> +7:C> +7:C> +7:C> +7:C> +7:C> +7:C> +7:C> +7:C> +7:C> +7:C> +7:C> +7:C> +7:C> +7:C> +7:C> +7:C> +7:C> +7:C> +7:C> +7:C> +7:C> +7:C> +7:C> +7:C> +7:C> +7:C> +7:C> +7:C> +7:C> +7:C> +7:C> +7:C> +7:C> +7:C> +7:C> +7:C> +7:C> +7:C> +7:C> +7:C> +7:C> +7:C> +7:C> +7:C> +7:C> +7:C> +7:C> +7:C> +7:C> +7:C> +7:C> +7:C> +7:C> +7:C> +7:C> +7:C> +7:C> +7:C> +7:C> +7:C> +7:C> +7:C> +7:C> +7:C> +7:C> +7:C> +7:C> +7:C> +7:C> +7:C> +7:C> +7:C> +7:C> +7:C> +7:C> +7:C> +7:C> +7:C> +7:C> +7:C> +7:C> +7:C> +7:C> +7:C> +7:C> +7:C> +7:C> +7:C> +7:C> +7:C> +7:C> +7:C> +7:C> +7:C> +7:C> +7:C> +7:C> +7:C> +7:C> +7:C> +7:C> +7:C> +7:C> +7:C> +7:C> +7:C> +7:C> +7:C> +7:C> +7:C> +7:C> +7:C> +7:C> +7:C> +7:C> +7:C> +7:C> +7:C> +7:C> +7:C> +7:C> +7:C> +7:C> +7:C> +7:C> +7:C> +7:C> +7:C> +7:C> +7:C> +7:C> +7:C> +7:C> +7:C> +7:C> +7:C> +7:C> +7:C> +7:C> +7:C> +7:C> +7:C> +7:C> +7:C> +7:C> +7:C> +7:C> +7:C> +7:C> +7:C> +7:C> +7:C> +7:C> +7:C> +7:C> +7:C> +7:C> +7:C> +7:C> +7:C> +7:C> +7:C> +7:C> +7:C> +7:C> +7:C> +7:C> +7:C> +7:C> +7:C> +7:C> +7:C> +7:C> +7:C> +7:C> +7:C> +7:C> +7:C> +7:C> +7:C> +7:C> +7:C> +7:C> +7:C> +7:C> +7:C> +7:C> +7:C> +7:C> +7:C> +7:C> +7:C> +7:C> +7:C> +7:C> +7:C> +7:C> +7:C> +7:C> +7:C> +7:C> +7:C> +7:C> +7:C> +7:C> +7:C> +7:C> +7:C> +7:C> +7:C> +7:C> +7:C> +7:C> +7:C> +7:C> +7:C> +7:C> +7:C> +7:C> +7:C> +7:C> +7:C> +7:C> +7:C> +7:C> +7:C> +7:C> +7:C> +7:C> +7:C> +7:C> +7:C> +7:C> +7:C> +7:C> +7:C> +7:C> +7:C> +7:C> +7:C> +7:C> +7:C> +7:C> +7:C> +7:C> +7:C> +7:C> +7:C> +7:C> +7:C> +7:C> +7:C> +7:C> +7:C> +7:C> +7:C> +7:C> +7:C> +7:C> +7:C> +7:C> +7:C> +7:C> +7:C> +7:C> +7:C> +7:C> +7:C> +7:C> +7:C> +7:C> +7:C> +7:C> +7:C> +7:C> +7:C> +7:C> +7:C> +7:C> +7:C> +7:C> +7:C> +7:C> +7:C> +7:C> +7:C> +7:C> +7:C> +7:C> +7:C> +7:C> +7:C> +7:C> +7:C> +7:C> +7:C> +7:C> +7:C> +7:C> +7:C> +7:C> +7:C> +7:C> +7:C> +7:C> +7:C> +7:C> +7:C> +7:C> +7:C> +7:C> +7:C> +7:C> +7:C> +7:C> +7:C> +7:C> +7:C> +7:C> +7:C> +7:C> +7:C> +7:C> +7:C> +7:C> +7:C> +7:C> +7:C> +7:C> +7:C> +7:C> +7:C> +7:C> +7:C> +7:C> +7:C> +7:C> +7:C> +7:C> +7:C> +7:C> +7:C> +7:C> +7:C> +7:C> +7:C> +7:C> +7:C> +7:C> +7:C> +7:C> +7:C> +7:C> +7:C> +7:C> +7:C> +7:C> +7:C> +7:C> +7:C> +7:C> +7:C> +7:C> +7:C> +7:C> +7:C> +7:C> +7:C> +7:C> +7:C> +7:C> +7:C> +7:C> +7:C> +7:C> +7:C> +7:C> +7:C> +7:C> +7:C> +7:C> +7:C> +7:C> +7:C> +7:C> +7:C> +7:C> +7:C> +7:C> +7:C> +7:C> +7:C> +7:C> +7:C> +7:C> +7:C> +7:C> +7:C> +7:C> +7:C> +7:C> +7:C> +7:C> +7:C> +7:C> +7:C> +7:C> +7:C> +7:C> +7:C> +7:C> +7:C> +7:C> +7:C> +7:C> +7:C> +7:C> +7:C> +7:C> +7:C> +7:C> +7:C> +7:C> +7:C> +7:C> +7:C> +7:C> +7:C> +7:C> +7:C> +7:C> +7:C> +7:C> +7:C> +7:C> +7:C> +7:C> +7:C> +7:C> +7:C> +7:C> +7:C> +7:C> +7:C> +7:C> +7:C> +7:C> +7:C> +7:C> +7:C> +7:C> +7:C> +7:C> +7:C> +7:C> +7:C> +7:C> +7:C> +7:C> +7:C> +7:C> +7:C> +7:C> +7:C> +7:C> +7:C> +7:C> +7:C> +7:C> +7:C> +7:C> +7:C> +7:C> +7:C> +7:C> +7:C> +7:C> +7:C> +7:C> +7:C> +7:C> +7:C> +7:C> +7:C> +7:C> +7:C> +7:C> +7:C> +7:C> +7:C> +7:C> +7:C> +7:C> +7:C> +7:C> +7:C> +7:C> +7:C> +7:C> +7:C> +7:C> +7:C> +7:C> +7:C> +7:C> +7:C> +7:C> +7:C> +7:C> +7:C> +7:C> +7:C> +7:C> +7:C> +7:C> +7:C> +7:C> +7:C> +7:C> +7:C> +7:C> +7:C> +7:C> +7:C> +7:C> +7:C> +7:C> +7:C> +7:C> +7:C> +7:C> +7:C> +7:C> +7:C> +7:C> +7:C> +7:C> +7:C> +7:C> +7:C> +7:C> +7:C> +7:C> +7:C> +7:C> +7:C> +7:C> +7:C> +7:C> +7:C> +7:C> +7:C> +7:C> +7:C> +7:C> +7:C> +7:C> +7:C> +7:C> +7:C> +7:C> +7:C> +7:C> +7:C> +7:C> +7:C> +7:C> +7:C> +7:C> +7:C> +7:C> +7:C> +7:C> +7:C> +7:C> +7:C> +7:C> +7:C> +7:C> +7:C> +7:C> +7:C> +7:C> +7:C> +7:C> +7:C> +7:C> +7:C> +7:C> +7:C> +7:C> +7:C> +7:C> +7:C> +7:C> +7:C> +7:C> +7:C> +7:C> +7:C> +7:C> +7:C> +7:C> +7:C> +7:C> +7:C> +7:C> +7:C> +7:C> +7:C> +7:C> +7:C> +7:C> +7:C> +7:C> +7:C> +7:C> +7:C> +7:C> +7:C> +7:C> +7:C> +7:C> +7:C> +7:C> +7:C> +7:C> +7:C> +7:C> +7:C> +7:C> +7:C> +7:C> +7:C> +7:C> +7:C> +7:C> +7:C> +7:C> +7:C> +7:C> +7:C> +7:C> +7:C> +7:C> +7:C> +7:C> +7:C> +7:C> +7:C> +7:C> +7:C> +7:C> +7:C> +7:C> +7:C> +7:C> +7:C> +7:C> +7:C> +7:C> +7:C> +7:C> +7:C> +7:C> +7:C> +7:C> +7:C> +7:C> +7:C> +7:C> +7:C> +7:C> +7:C> +7:C> +7:C> +7:C> +7:C> +7:C> +7:C> +7:C> +7:C> +7:C> +7:C> +7:C> +7:C> +7:C> +7:C> +7:C> +7:C> +7:C> +7:C> +7:C> +7:C> +7:C> +7:C> +7:C> +7:C> +7:C> +7:C> +7:C> +7:C> +7:C> +7:C> +7:C> +7:C> +7:C> +7:C> +7:C> +7:C> +7:C> +7:C> +7:C> +7:C> +7:C> +7:C> +7:C> +7:C> +7:C> +7:C> +7:C> +7:C> +7:C> +7:C> +7:C> +7:C> +7:C> +7:C> +7:C> +7:C> +7:C> +7:C> +7:C> +7:C> +7:C> +7:C> +7:C> +7:C> +7:C> +7:C> +7:C> +7:C> +7:C> +7:C> +7:C> +7:C> +7:C> +7:C> +7:C> +7:C> +7:C> +7:C> +7:C> +7:C> +7:C> +7:C> +7:C> +7:C> +7:C> +7:C> +7:C> +7:C> +7:C> +7:C> +7:C> +7:C> +7:C> +7:C> +7:C> +7:C> +7:C> +7:C> +7:C> +7:C> +7:C> +7:C> +7:C> +7:C> +7:C> +7:C> +7:C> +7:C> +7:C> +7:C> +7:C> +7:C> +7:C> +7:C> +7:C> +7:C> +7:C> +7:C> +7:C> +7:C> +7:C> +7:C> +7:C> +7:C> +7:C> +7:C> +7:C> +7:C> +7:C> +7:C> +7:C> +7:C> +7:C> +7:C> +7:C> +7:C> +7:C> +7:C> +7:C> +7:C> +7:C> +7:C> +7:C> +7:C> +7:C> +7:C> +7:C> +7:C> +7:C> +7:C> +7:C> +7:C> +7:C> +7:C> +7:C> +7:C> +7:C> +7:C> +7:C> +7:C> +7:C> +7:C> +7:C> +7:C> +7:C> +7:C> +7:C> +7:C> +7:C> +7:C> +7:C> +7:C> +7:C> +7:C> +7:C> +7:C> +7:C> +7:C> +7:C> +7:C> +7:C> +7:C> +7:C> +7:C> +7:C> +7:C> +7:C> +7:C> +7:C> +7:C> +7:C> +7:C> +7:C> +7:C> +7:C> +7:C> +7:C> +7:C> +7:C> +7:C> +7:C> +7:C> +7:C> +7:C> +7:C> +7:C> +7:C> +7:C> +7:C> +7:C> +7:C> +7:C> +7:C> +7:C> +7:C> +7:C> +7:C> +7:C> +7:C> +7:C> +7:C> +7:C> +7:C> +7:C> +7:C> +7:C> +7:C> +7:C> +7:C> +7:C> +7:C> +7:C> +7:C> +7:C> +7:C> +7:C> +7:C> +7:C> +7:C> 7:C> 7:C> 7:C> 7:C> 7:C> 7:C> 7:C> 7:C> 7:C> 7:C>                                                                                                                                                                                                                                                                                                                                                                                                                                                                                                                                                                                                                                                                                                                                                                                                                                                                                                                                                                                                                                                                                                                                                                                                                                                                                                                                                                                                                                                                                                                                                                                                                                                                                                                                                                                                                                                                                                  O+ O+ O+ O+ O+ O+ O+ O+ O+ O+ O+ O+ O+ O+ O+ O+ O+ O+ O+ O+ O+ O+ O+ O+ O+ O+ O+ O+ O+ O+ O+ O+ O+ O+ O+ O+ O+ O+ O+ O+ O+ O+ O+ O+ O+ O+ O+ O+ O+ O+ O+ O+ O+ O+ O+ O+ O+ O+ O+ O+ O+ O+ O+ O+ O+ O+ O+ O+ O+ O+ O+ O+ O+ O+ O+ O+ O+ O+ O+ O+ O+ O+ O+ O+ O+ O+ O+ O+ O+ O+ O+ O+ O+ O+ O+ O+ O+ O+ O+ O+ O+ O+ O+ O+ O+ O+ O+ O+ O+ O+ O+ O+ O+ O+ O+ O+ O+ O+ O+ O+ O+ O+ O+ O+ O+ O+ O+ O+ O+ O+ O+ O+ O+ O+ O+ O+ O+ O+ O+ O+ O+ O+ O+ O+ O+ O+ O+ O+ O+ O+ O+ O+ O+ O+ O+ O+ O+ O+ O+ O+ O+ O+ O+ O+ O+ O+ O+ O+ O+ O+ O+ O+ O+ O+ O+ O+ O+ O+ O+ O+ O+ O+ O+ O+ O+ O+ O+ O+ O+ O+ O+ O+ O+ O+ O+ O+ O+ O+ O+ O+ O+ O+ O+ O+ O+ O+ O+ O+ O+ O+ O+ O+ O+ O+ O+ O+ O+ O+ O+ O+ O+ O+ O+ O+ O+ O+ O+ O+ O+ O+ O+ O+ O+ O+ O+ O+ O+ O+ O+ O+ O+ O+ O+ O+ O+ O+ O+ O+ O+ O+ O+ O+ O+ O+ O+ O+ O+ O+ O+ O+ O+ O+ O+ O+ O+ O+ O+ O+ O+ O+ O+ O+ O+ O+ O+ O+ O+ O+ O+ O+ O+ O+ O+ O+ O+ O+ O+ O+ O+ O+ O+ O+ O+ O+ O+ O+ O+ O+ O+ O+ O+ O+ O+ O+ O+ O+ O+ O+ O+ O+ O+ O+ O+ O+ O+ O+ O+ O+ O+ O+ O+ O+ O+ O+ O+ O+ O+ O+ O+ O+ O+ O+ O+ O+ O+ O+ O+ O+ O+ O+ O+ O+ O+ O+ O+ O+ O+ O+ O+ O+ O+ O+ O+ O+ O+ O+ O+ O+  R2 R2 R2 R2 R2 R2 R2 R2 R2 R2 R2 R2 R2 R2 R2 R2 R2 R2 R2 R2 R2 R2 R2 R2 R2 R2 R2 R2 R2 R2 R2 R2 R2 R2 R2 R2 R2 R2 R2 R2 R2 R2 R2 R2 R2 R2 R2 R2 R2 R2 R2 R2 R2 R2 R2 R2 R2 R2 R2 R2 R2 R2 R2 R2 R2 R2 R2 R2 R2 R2 R2 R2 R2 R2 R2 R2 R2 R2 R2 R2 R2 R2 R2 R2 R2 R2 R2 R2 R2 R2 R2 R2 R2 R2 R2 R2 R2 R2 R2 R2 R2 R2 R2 R2 R2 R2 R2 R2 R2 R2 R2 R2 R2 R2 R2 R2 R2 R2 R2 R2 R2 R2 R2 R2 R2 R2 R2 R2 R2 R2 R2 R2 R2 R2 R2 R2 R2 R2 R2 R2 R2 R2 R2 R2 R2 R2 R2 R2 R2 R2 R2 R2 R2 R2 R2 R2 R2 R2 R2 R2 R2 R2 R2 R2 R2 R2 R2 R2 R2 R2 R2 R2 R2 R2 R2 R2 R2 R2 2 2 Q2 Q2 Q2 Q2 Q2 Q2 Q2 Q2 Q2 Q2 Q2 Q2 Q2 Q2 Q2 Q2 Q2 Q2 Q2 Q2 Q2 Q2 Q2 Q2 Q2 Q2 Q2 Q2 Q2 Q2 Q2 Q2 Q2 Q2 Q2 Q2 Q2 Q2 Q2 Q2 Q2 Q2 Q2 Q2 Q2 Q2 Q2 Q2 Q2 Q2 Q2 Q2 Q2 Q2 Q2 Q2 Q2 Q2 Q2 Q2 Q2 Q2 Q2 Q2 Q2 Q2 Q2 Q2 Q2 Q2 Q2 Q2 Q2 Q2 Q2 Q2 Q2 Q2 Q2 Q2 Q2 Q2 Q2 Q2 Q2 Q2 Q2 Q2 Q2 Q2 Q2 Q2 Q2 Q2 Q2 Q2 Q2 Q2 Q2 Q2 Q2 Q2 Q2 Q2 Q2 Q2 Q2 Q2 Q2 Q2 Q2 Q2 Q2 Q2 Q2 Q2 Q2 Q2 Q2 Q2 Q2 Q2 Q2 Q2 Q2 Q2 Q2 Q2 Q2 Q2 Q2 Q2 Q2 Q2 Q2 Q2 Q2 Q2 Q2 Q2 Q2 Q2 Q2 Q2 Q2 Q2 Q2 Q2 Q2 Q2 Q2 Q2 Q2 Q2 Q2 Q2 Q2 Q2 Q2 Q2 Q2 Q2 Q2 Q2 Q2 Q2 Q2 Q2 Q2 Q2 Q2 Q2 Q2 Q2 Q2 Q2 Q2 Q2   R7 R7 R7 R7 R7 R7 R7 R7 R7 R7 R7 R7 R7 R7 R7 R7 R7 R7 R7 R7 R7 R7 R7 R7 R7 R7 R7 R7 R7 R7 R7 R7 R7 R7 R7 R7 R7 R7 R7 R7 R7 R7 R7 R7 R7 R7 R7 R7 R7 R7 R7 R7 R7 R7 R7 R7 R7 R7 R7 R7 R7 R7 R7 R7 R7 R7 R7 R7 R7 R7 R7 R7 R7 R7 R7 R7 R7 R7 R7 R7 R7 R7 R7 R7 R7 R7 R7 R7 R7 R7 R7 R7 R7 R7 R7 R7 R7 R7 R7 R7 R7 R7 R7 R7 R7 R7 R7 R7 R7 R7 R7 R7 R7 R7 R7 R7 R7 R7 R7 R7 R7 R7 R7 R7 R7 R7 R7 R7 R7 R7 R7 R7 R7 R7 R7 R7 R7 R7 R7 R7 R7 R7 R7 R7 R7 R7 R7 R7 R7 R7 R7 R7 R7 R7 R7 R7 R7 R7 R7 R7 R7 R7 R7 R7 R7 R7 R7 R7 R7 R7 R7 R7 R7 R7 R7 R7 R7 R7 R7 R7 R7 R7 R7 R7 R7 R7 R7 R7 R7 R7 R7 R7 R7 R7 R7 R7 R7 R7 R7 R7 R7 R7 R7 R7 R7 R7 R7 R7 R7 R7 R7 R7 R7 R7 R7 R7 R7 R7 R7 R7 R7 R7 R7 R7 R7 R7 R7 R7 R7 R7 R7 R7 R7 R7 R7 R7 R7 R7 R7 R7 R7 R7 R7 R7 R7 R7 R7 R7 R7 R7 R7 R7 R7 R7 R7 R7 R7 R7 R7 R7 R7 R7 R7 R7 R7 R7 R7 R7 R7 R7 R7 R7 R7 R7 R7 R7 R7 R7 R7 R7 R7 R7 R7 R7 R7 R7 R7 R7 R7 R7 R7 R7 R7 R7 R7 R7 R7 R7 R7 R7 R7 R7 R7 R7 R7 R7 R7 R7 R7 R7 R7 R7 R7 R7 R7 R7 R7 R7 R7 R7 R7 R7 R7 R7 R7 R7 R7 R7 R7 R7 R7 R7 R7 R7 R7 R7 R7 R7 R7 R7 R7 R7 R7 R7 R7 R7 R7 R7 R7 R7 R7 R7 R7 R7 R7 R7 R7 R7   O: O: O: O: O: O: O: O: O: O: O: O: O: O: O: O: O: O: O: O: O: O: O: O: O: O: O: O: O: O: O: O: O: O: O: O: O: O: O: O: O: O: O: O: O: O: O: O: O: O: O: O: O: O: O: O: O: O: O: O: O: O: O: O: O: O: O: O: O: O: O: O: O: O: O: O: O: O: O: O: O: O: O: O: O: O: O: O: O: O: O: O: O: O: O: O: O: O: O: O: O: O: O: O: O: O: O: O: O: O: O: O: O: O: O: O: O: O: O: O: O: O: O: O: O: O: O: O: O: O: O: O: O: O: O: O: O: O: O: O: O: O: O: O: O: O: O: O: O: O: O: O: O: O: O: O: O: O: O: O: O: O: O: O: O: O: O: O: O: O: O: O: O: O: O: O: O: O: : : J: J: J: J: J: J: J: J: J: J: J: J: J: J: J: J: J: J: J: J: J: J: J: J: J: J: J: J: J: J: J: J: J: J: J: J: J: J: J: J: J: J: J: J: J: J: J: J: J: J: J: J: J: J: J: J: J: J: J: J: J: J: J: J: J: J: J: J: J: J: J: J: J: J: J: J: J: J: J: J: J: J: J: J: J: J: J: J: J: J: J: J: J: J: J: J: J: J: J: J: J: J: J: J: J: J: J: J: J: J: J: J: J: J: J: J: J: J: J: J: J: J: J: J: J: J: J: J: J: J: J: J: J: J: J: J: J: J: J: J: J: J: J: J: J: J: J: J: J: J: J: J: J: J: J: J: J: J: J: J: J: J: J: J: J: J: J: J: J: J: J: J: J: J: J: J: J: J:  Q< Q< Q< Q< Q< Q< Q< Q< Q< Q< Q< Q< Q< Q< Q< Q< Q< Q< Q< Q< Q< Q< Q< Q< Q< Q< Q< Q< Q< Q< Q< Q< Q< Q< Q< Q< Q< Q< Q< Q< Q< Q< Q< Q< Q< Q< Q< Q< Q< Q< Q< Q< Q< Q< Q< Q< Q< Q< Q< Q< Q< Q< Q< Q< Q< Q< Q< Q< Q< Q< Q< Q< Q< Q< Q< Q< Q< Q< Q< Q< Q< Q< Q< Q< Q< Q< Q< Q< Q< Q< Q< Q< Q< Q< Q< Q< Q< Q< Q< Q< Q< Q< Q< Q< Q< Q< Q< Q< Q< Q< Q< Q< Q< Q< Q< Q< Q< Q< Q< Q< Q< Q< Q< Q< Q< Q< Q< Q< Q< Q< Q< Q< Q< Q< Q< Q< Q< Q< Q< Q< Q< Q< Q< Q< Q< Q< Q< Q< Q< Q< Q< Q< Q< Q< Q< Q< Q< Q< Q< Q< Q< Q< Q< Q< Q< Q< Q< Q< Q< Q< Q< Q< Q< Q< Q< Q< Q< Q< Q< Q< Q< Q< Q< Q< Q< Q< Q< Q< Q< Q< Q< Q< Q< Q< Q< Q< Q< Q< Q< Q< Q< Q< Q< Q< Q< Q< Q< Q< Q< Q< Q< Q< Q< Q< Q< Q< Q< Q< Q< Q< Q< Q< Q< Q< Q< Q< Q< Q< Q< Q< Q< Q< Q< Q< Q< Q< Q< Q< Q< Q< Q< Q< Q< Q< Q< Q< Q< Q< Q< Q< Q< Q< Q< Q< Q< Q< Q< Q< Q< Q< Q< Q< Q< Q< Q< Q< Q< Q< Q< Q< Q< Q< Q< Q< Q< Q< Q< Q< Q< Q< Q< Q< Q< Q< Q< Q< Q< Q< Q< Q< Q< Q< Q< Q< Q< Q< Q< Q< Q< Q< Q< Q< Q< Q< Q< Q< Q< Q< Q< Q< Q< Q< Q< Q< Q< Q< Q< Q< Q< Q< Q< Q< Q< Q< Q< Q< Q< Q< Q< Q< Q< Q< Q< Q< Q< Q< Q< Q< Q< Q< Q< Q< Q< Q< Q< Q< Q< Q< Q< Q< Q< Q< Q< Q< Q< Q< Q< Q<   N> N> N> N> N> N> N> N> N> N> N> N> N> N> N> N> N> N> N> N> N> N> N> N> N> N> N> N> N> N> N> N> N> N> N> N> N> N> N> N> N> N> N> N> N> N> N> N> N> N> N> N> N> N> N> N> N> N> N> N> N> N> N> N> N> N> N> N> N> N> N> N> N> N> N> N> N> N> N> N> N> N> N> N> N> N> N> N> N> N> N> N> N> N> N> N> N> N> N> N> N> N> N> N> N> N> N> N> N> N> N> N> N> N> N> N> N> N> N> N> N> N> N> N> N> N> N> N> N> N> N> N> N> N> N> N> N> N> N> N> N> N> N> N> N> N> N> N> N> N> N> N> N> N> N> N> N> N> N> N> N> N> N> N> N> N> N> N> N> N> N> N> N> N> N> N> N> N> > > J> J> J> J> J> J> J> J> J> J> J> J> J> J> J> J> J> J> J> J> J> J> J> J> J> J> J> J> J> J> J> J> J> J> J> J> J> J> J> J> J> J> J> J> J> J> J> J> J> J> J> J> J> J> J> J> J> J> J> J> J> J> J> J> J> J> J> J> J> J> J> J> J> J> J> J> J> J> J> J> J> J> J> J> J> J> J> J> J> J> J> J> J> J> J> J> J> J> J> J> J> J> J> J> J> J> J> J> J> J> J> J> J> J> J> J> J> J> J> J> J> J> J> J> J> J> J> J> J> J> J> J> J> J> J> J> J> J> J> J> J> J> J> J> J> J> J> J> J> J> J> J> J> J> J> J> J> J> J> J> J> J> J> J> J> J> J> J> J> J> J> J> J> J> J> J> J> J>   ?O ?O ?O ?O ?O ?O ?O ?O ?O ?O ?O ?O ?O ?O ?O ?O ?O ?O ?O ?O ?O ?O ?O ?O ?O ?O ?O ?O ?O ?O ?O ?O ?O ?O ?O ?O ?O ?O ?O ?O ?O ?O ?O ?O ?O ?O ?O ?O ?O ?O ?O ?O ?O ?O ?O ?O ?O ?O ?O ?O ?O ?O ?O ?O ?O ?O ?O ?O ?O ?O ?O ?O ?O ?O ?O ?O ?O ?O ?O ?O ?O ?O ?O ?O ?O ?O ?O ?O ?O ?O ?O ?O ?O ?O ?O ?O ?O ?O ?O ?O ?O ?O ?O ?O ?O ?O ?O ?O ?O ?O ?O ?O ?O ?O ?O ?O ?O ?O ?O ?O ?O ?O ?O ?O ?O ?O ?O ?O ?O ?O ?O ?O ?O ?O ?O ?O ?O ?O ?O ?O ?O ?O ?O ?O ?O ?O ?O ?O ?O ?O ?O ?O ?O ?O ?O ?O ?O ?O ?O ?O ?O ?O ?O ?O ?O ?O ?O ?O ?O ?O ?O ?O ?O ?O ?O ?O ?O ?O O O AO AO AO AO AO AO AO AO AO AO AO AO AO AO AO AO AO AO AO AO AO AO AO AO AO AO AO AO AO AO AO AO AO AO AO AO AO AO AO AO AO AO AO AO AO AO AO AO AO AO AO AO AO AO AO AO AO AO AO AO AO AO AO AO AO AO AO AO AO AO AO AO AO AO AO AO AO AO AO AO AO AO AO AO AO AO AO AO AO AO AO AO AO AO AO AO AO AO AO AO AO AO AO AO AO AO AO AO AO AO AO AO AO AO AO AO AO AO AO AO AO AO AO AO AO AO AO AO AO AO AO AO AO AO AO AO AO AO AO AO AO AO AO AO AO AO AO AO AO AO AO AO AO AO AO AO AO AO AO AO AO AO AO AO AO AO AO AO AO AO AO AO AO AO AO AO AO AO O ?O ?O ?O ?O ?O ?O ?O ?O ?O ?O ?O ?O ?O ?O ?O ?O ?O ?O ?O ?O ?O ?O ?O ?O ?O ?O ?O ?O ?O ?O ?O ?O ?O ?O ?O ?O ?O ?O ?O ?O ?O ?O ?O ?O ?O ?O ?O ?O ?O ?O ?O ?O ?O ?O ?O ?O ?O ?O ?O ?O ?O ?O ?O ?O ?O ?O ?O ?O ?O ?O ?O ?O ?O ?O ?O ?O ?O ?O ?O ?O ?O ?O ?O ?O ?O ?O ?O ?O ?O ?O ?O ?O ?O ?O ?O ?O ?O ?O ?O ?O ?O ?O ?O ?O ?O ?O ?O ?O ?O ?O ?O ?O ?O ?O ?O ?O ?O ?O ?O ?O ?O ?O ?O ?O ?O ?O ?O ?O ?O ?O ?O ?O ?O ?O ?O ?O ?O ?O ?O ?O ?O ?O ?O ?O ?O ?O ?O ?O ?O ?O ?O ?O ?O ?O ?O ?O ?O ?O ?O ?O ?O ?O ?O ?O ?O ?O ?O ?O ?O ?O ?O ?O ?O ?O ?O ?O ?O ?O O O >O >O >O >O >O >O >O >O >O >O >O >O >O >O >O >O >O >O >O >O >O >O >O >O >O >O >O >O >O >O >O >O >O >O >O >O >O >O >O >O >O >O >O >O >O >O >O >O >O >O >O >O >O >O >O >O >O >O >O >O >O >O >O >O >O >O >O >O >O >O >O >O >O >O >O >O >O >O >O >O >O >O >O >O >O >O >O >O >O >O >O >O >O >O >O >O >O >O >O >O >O >O >O >O >O >O >O >O >O >O >O >O >O >O >O >O >O >O >O >O >O >O >O >O >O >O >O >O >O >O >O >O >O >O >O >O >O >O >O >O >O >O >O >O >O >O >O >O >O >O >O >O >O >O >O >O >O >O >O >O >O >O >O >O >O >O >O >O >O >O >O >O >O >O >O >O >O >O   <K <K <K <K <K <K <K <K <K <K <K <K <K <K <K <K <K <K <K <K <K <K <K <K <K <K <K <K <K <K <K <K <K <K <K <K <K <K <K <K <K <K <K <K <K <K <K <K <K <K <K <K <K <K <K <K <K <K <K <K <K <K <K <K <K <K <K <K <K <K <K <K <K <K <K <K <K <K <K <K <K <K <K <K <K <K <K <K <K <K <K <K <K <K <K <K <K <K <K <K <K <K <K <K <K <K <K <K <K <K <K <K <K <K <K <K <K <K <K <K <K <K <K <K <K <K <K <K <K <K <K <K <K <K <K <K <K <K <K <K <K <K <K <K <K <K <K <K <K <K <K <K <K <K <K <K <K <K <K <K <K <K <K <K <K <K <K <K <K <K <K <K <K <K <K <K <K <K K K :K :K :K :K :K :K :K :K :K :K :K :K :K :K :K :K :K :K :K :K :K :K :K :K :K :K :K :K :K :K :K :K :K :K :K :K :K :K :K :K :K :K :K :K :K :K :K :K :K :K :K :K :K :K :K :K :K :K :K :K :K :K :K :K :K :K :K :K :K :K :K :K :K :K :K :K :K :K :K :K :K :K :K :K :K :K :K :K :K :K :K :K :K :K :K :K :K :K :K :K :K :K :K :K :K :K :K :K :K :K :K :K :K :K :K :K :K :K :K :K :K :K :K :K :K :K :K :K :K :K :K :K :K :K :K :K :K :K :K :K :K :K :K :K :K :K :K :K :K :K :K :K :K :K :K :K :K :K :K :K :K :K :K :K :K :K :K :K :K :K :K :K :K :K :K :K :K :K   H9 H9 H9 H9 H9 H9 H9 H9 H9 H9 H9 H9 H9 H9 H9 H9 H9 H9 H9 H9 H9 H9 H9 H9 H9 H9 H9 H9 H9 H9 H9 H9 H9 H9 H9 H9 H9 H9 H9 H9 H9 H9 H9 H9 H9 H9 H9 H9 H9 H9 H9 H9 H9 H9 H9 H9 H9 H9 H9 H9 H9 H9 H9 H9 H9 H9 H9 H9 H9 H9 H9 H9 H9 H9 H9 H9 H9 H9 H9 H9 H9 H9 H9 H9 H9 H9 H9 H9 H9 H9 H9 H9 H9 H9 H9 H9 H9 H9 H9 H9 H9 H9 H9 H9 H9 H9 H9 H9 H9 H9 H9 H9 H9 H9 H9 H9 H9 H9 H9 H9 H9 H9 H9 H9 H9 H9 H9 H9 H9 H9 H9 H9 H9 H9 H9 H9 H9 H9 H9 H9 H9 H9 H9 H9 H9 H9 H9 H9 H9 H9 H9 H9 H9 H9 H9 H9 H9 H9 H9 H9 H9 H9 H9 H9 H9 H9 H9 H9 H9 H9 H9 H9 H9 H9 H9 H9 H9 H9  E< E< E< E< E< E< E< E< E< E< E< E< E< E< E< E< E< E< E< E< E< E< E< E< E< E< E< E< E< E< E< E< E< E< E< E< E< E< E< E< E< E< E< E< E< E< E< E< E< E< E< E< E< E< E< E< E< E< E< E< E< E< E< E< E< E< E< E< E< E< E< E< E< E< E< E< E< E< E< E< E< E< E< E< E< E< E< E< E< E< E< E< E< E< E< E< E< E< E< E< E< E< E< E< E< E< E< E< E< E< E< E< E< E< E< E< E< E< E< E< E< E< E< E< E< E< E< E< E< E< E< E< E< E< E< E< E< E< E< E< E< E< E< E< E< E< E< E< E< E< E< E< E< E< E< E< E< E< E< E< E< E< E< E< E< E< E< E< E< E< E< E< E< E< E< E< E< E<   :J :J :J :J :J :J :J :J :J :J :J :J :J :J :J :J :J :J :J :J :J :J :J :J :J :J :J :J :J :J :J :J :J :J :J :J :J :J :J :J :J :J :J :J :J :J :J :J :J :J :J :J :J :J :J :J :J :J :J :J :J :J :J :J :J :J :J :J :J :J :J :J :J :J :J :J :J :J :J :J :J :J :J :J :J :J :J :J :J :J :J :J :J :J :J :J :J :J :J :J :J :J :J :J :J :J :J :J :J :J :J :J :J :J :J :J :J :J :J :J :J :J :J :J :J :J :J :J :J :J :J :J :J :J :J :J :J :J :J :J :J :J :J :J :J :J :J :J :J :J :J :J :J :J :J :J :J :J :J :J :J :J :J :J :J :J :J :J :J :J :J :J :J :J :J :J :J :J J J 9J 9J 9J 9J 9J 9J 9J 9J 9J 9J 9J 9J 9J 9J 9J 9J 9J 9J 9J 9J 9J 9J 9J 9J 9J 9J 9J 9J 9J 9J 9J 9J 9J 9J 9J 9J 9J 9J 9J 9J 9J 9J 9J 9J 9J 9J 9J 9J 9J 9J 9J 9J 9J 9J 9J 9J 9J 9J 9J 9J 9J 9J 9J 9J 9J 9J 9J 9J 9J 9J 9J 9J 9J 9J 9J 9J 9J 9J 9J 9J 9J 9J 9J 9J 9J 9J 9J 9J 9J 9J 9J 9J 9J 9J 9J 9J 9J 9J 9J 9J 9J 9J 9J 9J 9J 9J 9J 9J 9J 9J 9J 9J 9J 9J 9J 9J 9J 9J 9J 9J 9J 9J 9J 9J 9J 9J 9J 9J 9J 9J 9J 9J 9J 9J 9J 9J 9J 9J 9J 9J 9J 9J 9J 9J 9J 9J 9J 9J 9J 9J 9J 9J 9J 9J 9J 9J 9J 9J 9J 9J 9J 9J 9J 9J 9J 9J 9J 9J 9J 9J 9J 9J 9J 9J 9J 9J 9J 9J   F7 F7 F7 F7 F7 F7 F7 F7 F7 F7 F7 F7 F7 F7 F7 F7 F7 F7 F7 F7 F7 F7 F7 F7 F7 F7 F7 F7 F7 F7 F7 F7 F7 F7 F7 F7 F7 F7 F7 F7 F7 F7 F7 F7 F7 F7 F7 F7 F7 F7 F7 F7 F7 F7 F7 F7 F7 F7 F7 F7 F7 F7 F7 F7 F7 F7 F7 F7 F7 F7 F7 F7 F7 F7 F7 F7 F7 F7 F7 F7 F7 F7 F7 F7 F7 F7 F7 F7 F7 F7 F7 F7 F7 F7 F7 F7 F7 F7 F7 F7 F7 F7 F7 F7 F7 F7 F7 F7 F7 F7 F7 F7 F7 F7 F7 F7 F7 F7 F7 F7 F7 F7 F7 F7 F7 F7 F7 F7 F7 F7 F7 F7 F7 F7 F7 F7 F7 F7 F7 F7 F7 F7 F7 F7 F7 F7 F7 F7 F7 F7 F7 F7 F7 F7 F7 F7 F7 F7 F7 F7 F7 F7 F7 F7 F7 F7 F7 F7 F7 F7 F7 F7 F7 F7 F7 F7 F7 F7   C: C: C: C: C: C: C: C: C: C: C: C: C: C: C: C: C: C: C: C: C: C: C: C: C: C: C: C: C: C: C: C: C: C: C: C: C: C: C: C: C: C: C: C: C: C: C: C: C: C: C: C: C: C: C: C: C: C: C: C: C: C: C: C: C: C: C: C: C: C: C: C: C: C: C: C: C: C: C: C: C: C: C: C: C: C: C: C: C: C: C: C: C: C: C: C: C: C: C: C: C: C: C: C: C: C: C: C: C: C: C: C: C: C: C: C: C: C: C: C: C: C: C: C: C: C: C: C: C: C: C: C: C: C: C: C: C: C: C: C: C: C: C: C: C: C: C: C: C: C: C: C: C: C: C: C: C: C: C: C: C: C: C: C: C: C: C: C: C: C: C: C: C: C: C: C: C: C:   H9 H9 H9 H9 H9 H9 H9 H9 H9 H9 H9 H9 H9 H9 H9 H9 H9 H9 H9 H9 H9 H9 H9 H9 H9 H9 H9 H9 H9 H9 H9 H9 H9 H9 H9 H9 H9 H9 H9 H9 H9 H9 H9 H9 H9 H9 H9 H9 H9 H9 H9 H9 H9 H9 H9 H9 H9 H9 H9 H9 H9 H9 H9 H9 H9 H9 H9 H9 H9 H9 H9 H9 H9 H9 H9 H9 H9 H9 H9 H9 H9 H9 H9 H9 H9 H9 H9 H9 H9 H9 H9 H9 H9 H9 H9 H9 H9 H9 H9 H9 H9 H9 H9 H9 H9 H9 H9 H9 H9 H9 H9 H9 H9 H9 H9 H9 H9 H9 H9 H9 H9 H9 H9 H9 H9 H9 H9 H9 H9 H9 H9 H9 H9 H9 H9 H9 H9 H9 H9 H9 H9 H9 H9 H9 H9 H9 H9 H9 H9 H9 H9 H9 H9 H9 H9 H9 H9 H9 H9 H9 H9 H9 H9 H9 H9 H9 H9 H9 H9 H9 H9 H9 H9 H9 H9 H9 H9 H9  E7 E7 E7 E7 E7 E7 E7 E7 E7 E7 E7 E7 E7 E7 E7 E7 E7 E7 E7 E7 E7 E7 E7 E7 E7 E7 E7 E7 E7 E7 E7 E7 E7 E7 E7 E7 E7 E7 E7 E7 E7 E7 E7 E7 E7 E7 E7 E7 E7 E7 E7 E7 E7 E7 E7 E7 E7 E7 E7 E7 E7 E7 E7 E7 E7 E7 E7 E7 E7 E7 E7 E7 E7 E7 E7 E7 E7 E7 E7 E7 E7 E7 E7 E7 E7 E7 E7 E7 E7 E7 E7 E7 E7 E7 E7 E7 E7 E7 E7 E7 E7 E7 E7 E7 E7 E7 E7 E7 E7 E7 E7 E7 E7 E7 E7 E7 E7 E7 E7 E7 E7 E7 E7 E7 E7 E7 E7 E7 E7 E7 E7 E7 E7 E7 E7 E7 E7 E7 E7 E7 E7 E7 E7 E7 E7 E7 E7 E7 E7 E7 E7 E7 E7 E7 E7 E7 E7 E7 E7 E7 E7 E7 E7 E7 E7 E7 E7 E7 E7 E7 E7 E7 E7 E7 E7 E7 E7 E7   6J 6J 6J 6J 6J 6J 6J 6J 6J 6J 6J 6J 6J 6J 6J 6J 6J 6J 6J 6J 6J 6J 6J 6J 6J 6J 6J 6J 6J 6J 6J 6J 6J 6J 6J 6J 6J 6J 6J 6J 6J 6J 6J 6J 6J 6J 6J 6J 6J 6J 6J 6J 6J 6J 6J 6J 6J 6J 6J 6J 6J 6J 6J 6J 6J 6J 6J 6J 6J 6J 6J 6J 6J 6J 6J 6J 6J 6J 6J 6J 6J 6J 6J 6J 6J 6J 6J 6J 6J 6J 6J 6J 6J 6J 6J 6J 6J 6J 6J 6J 6J 6J 6J 6J 6J 6J 6J 6J 6J 6J 6J 6J 6J 6J 6J 6J 6J 6J 6J 6J 6J 6J 6J 6J 6J 6J 6J 6J 6J 6J 6J 6J 6J 6J 6J 6J 6J 6J 6J 6J 6J 6J 6J 6J 6J 6J 6J 6J 6J 6J 6J 6J 6J 6J 6J 6J 6J 6J 6J 6J 6J 6J 6J 6J 6J 6J 6J 6J 6J 6J 6J 6J 6J 6J 6J 6J 6J 6J J J 2J 2J 2J 2J 2J 2J 2J 2J 2J 2J 2J 2J 2J 2J 2J 2J 2J 2J 2J 2J 2J 2J 2J 2J 2J 2J 2J 2J 2J 2J 2J 2J 2J 2J 2J 2J 2J 2J 2J 2J 2J 2J 2J 2J 2J 2J 2J 2J 2J 2J 2J 2J 2J 2J 2J 2J 2J 2J 2J 2J 2J 2J 2J 2J 2J 2J 2J 2J 2J 2J 2J 2J 2J 2J 2J 2J 2J 2J 2J 2J 2J 2J 2J 2J 2J 2J 2J 2J 2J 2J 2J 2J 2J 2J 2J 2J 2J 2J 2J 2J 2J 2J 2J 2J 2J 2J 2J 2J 2J 2J 2J 2J 2J 2J 2J 2J 2J 2J 2J 2J 2J 2J 2J 2J 2J 2J 2J 2J 2J 2J 2J 2J 2J 2J 2J 2J 2J 2J 2J 2J 2J 2J 2J 2J 2J 2J 2J 2J 2J 2J 2J 2J 2J 2J 2J 2J 2J 2J 2J 2J 2J 2J 2J 2J 2J 2J 2J 2J 2J 2J 2J 2J 2J 2J 2J 2J 2J 2J   F7 F7 F7 F7 F7 F7 F7 F7 F7 F7 F7 F7 F7 F7 F7 F7 F7 F7 F7 F7 F7 F7 F7 F7 F7 F7 F7 F7 F7 F7 F7 F7 F7 F7 F7 F7 F7 F7 F7 F7 F7 F7 F7 F7 F7 F7 F7 F7 F7 F7 F7 F7 F7 F7 F7 F7 F7 F7 F7 F7 F7 F7 F7 F7 F7 F7 F7 F7 F7 F7 F7 F7 F7 F7 F7 F7 F7 F7 F7 F7 F7 F7 F7 F7 F7 F7 F7 F7 F7 F7 F7 F7 F7 F7 F7 F7 F7 F7 F7 F7 F7 F7 F7 F7 F7 F7 F7 F7 F7 F7 F7 F7 F7 F7 F7 F7 F7 F7 F7 F7 F7 F7 F7 F7 F7 F7 F7 F7 F7 F7 F7 F7 F7 F7 F7 F7 F7 F7 F7 F7 F7 F7 F7 F7 F7 F7 F7 F7 F7 F7 F7 F7 F7 F7 F7 F7 F7 F7 F7 F7 F7 F7 F7 F7 F7 F7 F7 F7 F7 F7 F7 F7 F7 F7 F7 F7 F7 F7 F7 F7 F7 F7 F7 F7 F7 F7 F7 F7 F7 F7 F7 F7 F7 F7 F7 F7 F7 F7 F7 F7 F7 F7 F7 F7 F7 F7 F7 F7 F7 F7 F7 F7 F7 F7 F7 F7 F7 F7 F7 F7 F7 F7 F7 F7 F7 F7 F7 F7 F7 F7 F7 F7 F7 F7 F7 F7 F7 F7 F7 F7 F7 F7 F7 F7 F7 F7 F7 F7 F7 F7 F7 F7 F7 F7 F7 F7 F7 F7 F7 F7 F7 F7 F7 F7 F7 F7 F7 F7 F7 F7 F7 F7 F7 F7 F7 F7 F7 F7 F7 F7 F7 F7 F7 F7 F7 F7 F7 F7 F7 F7 F7 F7 F7 F7 F7 F7 F7 F7 F7 F7 F7 F7 F7 F7 F7 F7 F7 F7 F7 F7 F7 F7 F7 F7 F7 F7 F7 F7 F7 F7 F7 F7 F7 F7 F7 F7 F7 F7 F7 F7 F7 F7 F7 F7 F7 F7 F7 F7 F7 F7 F7 F7 F7 F7 F7 F7 F7 F7 F7 F7 F7 F7 F7 F7 F7 F7 F7 F7  E2 E2 E2 E2 E2 E2 E2 E2 E2 E2 E2 E2 E2 E2 E2 E2 E2 E2 E2 E2 E2 E2 E2 E2 E2 E2 E2 E2 E2 E2 E2 E2 E2 E2 E2 E2 E2 E2 E2 E2 E2 E2 E2 E2 E2 E2 E2 E2 E2 E2 E2 E2 E2 E2 E2 E2 E2 E2 E2 E2 E2 E2 E2 E2 E2 E2 E2 E2 E2 E2 E2 E2 E2 E2 E2 E2 E2 E2 E2 E2 E2 E2 E2 E2 E2 E2 E2 E2 E2 E2 E2 E2 E2 E2 E2 E2 E2 E2 E2 E2 E2 E2 E2 E2 E2 E2 E2 E2 E2 E2 E2 E2 E2 E2 E2 E2 E2 E2 E2 E2 E2 E2 E2 E2 E2 E2 E2 E2 E2 E2 E2 E2 E2 E2 E2 E2 E2 E2 E2 E2 E2 E2 E2 E2 E2 E2 E2 E2 E2 E2 E2 E2 E2 E2 E2 E2 E2 E2 E2 E2 E2 E2 E2 E2 E2 E2 E2 E2 E2 E2 E2 E2 E2 E2 E2 E2 E2 E2 2 2 C2 C2 C2 C2 C2 C2 C2 C2 C2 C2 C2 C2 C2 C2 C2 C2 C2 C2 C2 C2 C2 C2 C2 C2 C2 C2 C2 C2 C2 C2 C2 C2 C2 C2 C2 C2 C2 C2 C2 C2 C2 C2 C2 C2 C2 C2 C2 C2 C2 C2 C2 C2 C2 C2 C2 C2 C2 C2 C2 C2 C2 C2 C2 C2 C2 C2 C2 C2 C2 C2 C2 C2 C2 C2 C2 C2 C2 C2 C2 C2 C2 C2 C2 C2 C2 C2 C2 C2 C2 C2 C2 C2 C2 C2 C2 C2 C2 C2 C2 C2 C2 C2 C2 C2 C2 C2 C2 C2 C2 C2 C2 C2 C2 C2 C2 C2 C2 C2 C2 C2 C2 C2 C2 C2 C2 C2 C2 C2 C2 C2 C2 C2 C2 C2 C2 C2 C2 C2 C2 C2 C2 C2 C2 C2 C2 C2 C2 C2 C2 C2 C2 C2 C2 C2 C2 C2 C2 C2 C2 C2 C2 C2 C2 C2 C2 C2 C2 C2 C2 C2 C2 C2 C2 C2 C2 C2 C2 C2   O. O. O. O. O. O. O. O. O. O. O. O. O. O. O. O. O. O. O. O. O. O. O. O. O. O. O. O. O. O. O. O. O. O. O. O. O. O. O. O. O. O. O. O. O. O. O. O. O. O. O. O. O. O. O. O. O. O. O. O. O. O. O. O. O. O. O. O. O. O. O. O. O. O. O. O. O. O. O. O. O. O. O. O. O. O. O. O. O. O. O. O. O. O. O. O. O. O. O. O. O. O. O. O. O. O. O. O. O. O. O. O. O. O. O. O. O. O. O. O. O. O. O. O. O. O. O. O. O. O. O. O. O. O. O. O. O. O. O. O. O. O. O. O. O. O. O. O. O. O. O. O. O. O. O. O. O. O. O. O. O. O. O. O. O. O. O. O. O. O. O. O. O. O. O. O. O. O. O. O. O. O. O. O. O. O. O. O. O. O. O. O. O. O. O. O. O. O. O. O. O. O. O. O. O. O. O. O. O. O. O. O. O. O. O. O. O. O. O. O. O. O. O. O. O. O. O. O. O. O. O. O. O. O. O. O. O. O. O. O. O. O. O. O. O. O. O. O. O. O. O. O. O. O. O. O. O. O. O. O. O. O. O. O. O. O. O. O. O. O. O. O. O. O. O. O. O. O. O. O. O. O. O. O. O. O. O. O. O. O. O. O. O. O. O. O. O. O. O. O. O. O. O. O. O. O. O. O. O. O. O. O. O. O. O. O. O. O. O. O. O. O. O. O. O. O. O. O. O. O. O. O. O. O. O. O. O. O. O. O. O. O. O. O. O. O. O. O. O. O. O. O. O. O. O. O. O. O.   R2 R2 R2 R2 R2 R2 R2 R2 R2 R2 R2 R2 R2 R2 R2 R2 R2 R2 R2 R2 R2 R2 R2 R2 R2 R2 R2 R2 R2 R2 R2 R2 R2 R2 R2 R2 R2 R2 R2 R2 R2 R2 R2 R2 R2 R2 R2 R2 R2 R2 R2 R2 R2 R2 R2 R2 R2 R2 R2 R2 R2 R2 R2 R2 R2 R2 R2 R2 R2 R2 R2 R2 R2 R2 R2 R2 R2 R2 R2 R2 R2 R2 R2 R2 R2 R2 R2 R2 R2 R2 R2 R2 R2 R2 R2 R2 R2 R2 R2 R2 R2 R2 R2 R2 R2 R2 R2 R2 R2 R2 R2 R2 R2 R2 R2 R2 R2 R2 R2 R2 R2 R2 R2 R2 R2 R2 R2 R2 R2 R2 R2 R2 R2 R2 R2 R2 R2 R2 R2 R2 R2 R2 R2 R2 R2 R2 R2 R2 R2 R2 R2 R2 R2 R2 R2 R2 R2 R2 R2 R2 R2 R2 R2 R2 R2 R2 R2 R2 R2 R2 R2 R2 R2 R2 R2 R2 R2 R2 2 2 Q2 Q2 Q2 Q2 Q2 Q2 Q2 Q2 Q2 Q2 Q2 Q2 Q2 Q2 Q2 Q2 Q2 Q2 Q2 Q2 Q2 Q2 Q2 Q2 Q2 Q2 Q2 Q2 Q2 Q2 Q2 Q2 Q2 Q2 Q2 Q2 Q2 Q2 Q2 Q2 Q2 Q2 Q2 Q2 Q2 Q2 Q2 Q2 Q2 Q2 Q2 Q2 Q2 Q2 Q2 Q2 Q2 Q2 Q2 Q2 Q2 Q2 Q2 Q2 Q2 Q2 Q2 Q2 Q2 Q2 Q2 Q2 Q2 Q2 Q2 Q2 Q2 Q2 Q2 Q2 Q2 Q2 Q2 Q2 Q2 Q2 Q2 Q2 Q2 Q2 Q2 Q2 Q2 Q2 Q2 Q2 Q2 Q2 Q2 Q2 Q2 Q2 Q2 Q2 Q2 Q2 Q2 Q2 Q2 Q2 Q2 Q2 Q2 Q2 Q2 Q2 Q2 Q2 Q2 Q2 Q2 Q2 Q2 Q2 Q2 Q2 Q2 Q2 Q2 Q2 Q2 Q2 Q2 Q2 Q2 Q2 Q2 Q2 Q2 Q2 Q2 Q2 Q2 Q2 Q2 Q2 Q2 Q2 Q2 Q2 Q2 Q2 Q2 Q2 Q2 Q2 Q2 Q2 Q2 Q2 Q2 Q2 Q2 Q2 Q2 Q2 Q2 Q2 Q2 Q2 Q2 Q2 Q2 Q2 Q2 Q2 Q2 Q2  R7 R7 R7 R7 R7 R7 R7 R7 R7 R7 R7 R7 R7 R7 R7 R7 R7 R7 R7 R7 R7 R7 R7 R7 R7 R7 R7 R7 R7 R7 R7 R7 R7 R7 R7 R7 R7 R7 R7 R7 R7 R7 R7 R7 R7 R7 R7 R7 R7 R7 R7 R7 R7 R7 R7 R7 R7 R7 R7 R7 R7 R7 R7 R7 R7 R7 R7 R7 R7 R7 R7 R7 R7 R7 R7 R7 R7 R7 R7 R7 R7 R7 R7 R7 R7 R7 R7 R7 R7 R7 R7 R7 R7 R7 R7 R7 R7 R7 R7 R7 R7 R7 R7 R7 R7 R7 R7 R7 R7 R7 R7 R7 R7 R7 R7 R7 R7 R7 R7 R7 R7 R7 R7 R7 R7 R7 R7 R7 R7 R7 R7 R7 R7 R7 R7 R7 R7 R7 R7 R7 R7 R7 R7 R7 R7 R7 R7 R7 R7 R7 R7 R7 R7 R7 R7 R7 R7 R7 R7 R7 R7 R7 R7 R7 R7 R7 R7 R7 R7 R7 R7 R7 R7 R7 R7 R7 R7 R7 R7 R7 R7 R7 R7 R7 R7 R7 R7 R7 R7 R7 R7 R7 R7 R7 R7 R7 R7 R7 R7 R7 R7 R7 R7 R7 R7 R7 R7 R7 R7 R7 R7 R7 R7 R7 R7 R7 R7 R7 R7 R7 R7 R7 R7 R7 R7 R7 R7 R7 R7 R7 R7 R7 R7 R7 R7 R7 R7 R7 R7 R7 R7 R7 R7 R7 R7 R7 R7 R7 R7 R7 R7 R7 R7 R7 R7 R7 R7 R7 R7 R7 R7 R7 R7 R7 R7 R7 R7 R7 R7 R7 R7 R7 R7 R7 R7 R7 R7 R7 R7 R7 R7 R7 R7 R7 R7 R7 R7 R7 R7 R7 R7 R7 R7 R7 R7 R7 R7 R7 R7 R7 R7 R7 R7 R7 R7 R7 R7 R7 R7 R7 R7 R7 R7 R7 R7 R7 R7 R7 R7 R7 R7 R7 R7 R7 R7 R7 R7 R7 R7 R7 R7 R7 R7 R7 R7 R7 R7 R7 R7 R7 R7 R7 R7 R7 R7 R7 R7 R7 R7 R7 R7 R7 R7 R7 R7 R7 R7 R7   O: O: O: O: O: O: O: O: O: O: O: O: O: O: O: O: O: O: O: O: O: O: O: O: O: O: O: O: O: O: O: O: O: O: O: O: O: O: O: O: O: O: O: O: O: O: O: O: O: O: O: O: O: O: O: O: O: O: O: O: O: O: O: O: O: O: O: O: O: O: O: O: O: O: O: O: O: O: O: O: O: O: O: O: O: O: O: O: O: O: O: O: O: O: O: O: O: O: O: O: O: O: O: O: O: O: O: O: O: O: O: O: O: O: O: O: O: O: O: O: O: O: O: O: O: O: O: O: O: O: O: O: O: O: O: O: O: O: O: O: O: O: O: O: O: O: O: O: O: O: O: O: O: O: O: O: O: O: O: O: O: O: O: O: O: O: O: O: O: O: O: O: O: O: O: O: O: O: : : J: J: J: J: J: J: J: J: J: J: J: J: J: J: J: J: J: J: J: J: J: J: J: J: J: J: J: J: J: J: J: J: J: J: J: J: J: J: J: J: J: J: J: J: J: J: J: J: J: J: J: J: J: J: J: J: J: J: J: J: J: J: J: J: J: J: J: J: J: J: J: J: J: J: J: J: J: J: J: J: J: J: J: J: J: J: J: J: J: J: J: J: J: J: J: J: J: J: J: J: J: J: J: J: J: J: J: J: J: J: J: J: J: J: J: J: J: J: J: J: J: J: J: J: J: J: J: J: J: J: J: J: J: J: J: J: J: J: J: J: J: J: J: J: J: J: J: J: J: J: J: J: J: J: J: J: J: J: J: J: J: J: J: J: J: J: J: J: J: J: J: J: J: J: J: J: J: J:   Q< Q< Q< Q< Q< Q< Q< Q< Q< Q< Q< Q< Q< Q< Q< Q< Q< Q< Q< Q< Q< Q< Q< Q< Q< Q< Q< Q< Q< Q< Q< Q< Q< Q< Q< Q< Q< Q< Q< Q< Q< Q< Q< Q< Q< Q< Q< Q< Q< Q< Q< Q< Q< Q< Q< Q< Q< Q< Q< Q< Q< Q< Q< Q< Q< Q< Q< Q< Q< Q< Q< Q< Q< Q< Q< Q< Q< Q< Q< Q< Q< Q< Q< Q< Q< Q< Q< Q< Q< Q< Q< Q< Q< Q< Q< Q< Q< Q< Q< Q< Q< Q< Q< Q< Q< Q< Q< Q< Q< Q< Q< Q< Q< Q< Q< Q< Q< Q< Q< Q< Q< Q< Q< Q< Q< Q< Q< Q< Q< Q< Q< Q< Q< Q< Q< Q< Q< Q< Q< Q< Q< Q< Q< Q< Q< Q< Q< Q< Q< Q< Q< Q< Q< Q< Q< Q< Q< Q< Q< Q< Q< Q< Q< Q< Q< Q< Q< Q< Q< Q< Q< Q< Q< Q< Q< Q< Q< Q< Q< Q< Q< Q< Q< Q< Q< Q< Q< Q< Q< Q< Q< Q< Q< Q< Q< Q< Q< Q< Q< Q< Q< Q< Q< Q< Q< Q< Q< Q< Q< Q< Q< Q< Q< Q< Q< Q< Q< Q< Q< Q< Q< Q< Q< Q< Q< Q< Q< Q< Q< Q< Q< Q< Q< Q< Q< Q< Q< Q< Q< Q< Q< Q< Q< Q< Q< Q< Q< Q< Q< Q< Q< Q< Q< Q< Q< Q< Q< Q< Q< Q< Q< Q< Q< Q< Q< Q< Q< Q< Q< Q< Q< Q< Q< Q< Q< Q< Q< Q< Q< Q< Q< Q< Q< Q< Q< Q< Q< Q< Q< Q< Q< Q< Q< Q< Q< Q< Q< Q< Q< Q< Q< Q< Q< Q< Q< Q< Q< Q< Q< Q< Q< Q< Q< Q< Q< Q< Q< Q< Q< Q< Q< Q< Q< Q< Q< Q< Q< Q< Q< Q< Q< Q< Q< Q< Q< Q< Q< Q< Q< Q< Q< Q< Q< Q< Q< Q< Q< Q< Q< Q< Q< Q< Q< Q< Q< Q< Q< Q<  N> N> N> N> N> N> N> N> N> N> N> N> N> N> N> N> N> N> N> N> N> N> N> N> N> N> N> N> N> N> N> N> N> N> N> N> N> N> N> N> N> N> N> N> N> N> N> N> N> N> N> N> N> N> N> N> N> N> N> N> N> N> N> N> N> N> N> N> N> N> N> N> N> N> N> N> N> N> N> N> N> N> N> N> N> N> N> N> N> N> N> N> N> N> N> N> N> N> N> N> N> N> N> N> N> N> N> N> N> N> N> N> N> N> N> N> N> N> N> N> N> N> N> N> N> N> N> N> N> N> N> N> N> N> N> N> N> N> N> N> N> N> N> N> N> N> N> N> N> N> N> N> N> N> N> N> N> N> N> N> N> N> N> N> N> N> N> N> N> N> N> N> N> N> N> N> N> N> > > J> J> J> J> J> J> J> J> J> J> J> J> J> J> J> J> J> J> J> J> J> J> J> J> J> J> J> J> J> J> J> J> J> J> J> J> J> J> J> J> J> J> J> J> J> J> J> J> J> J> J> J> J> J> J> J> J> J> J> J> J> J> J> J> J> J> J> J> J> J> J> J> J> J> J> J> J> J> J> J> J> J> J> J> J> J> J> J> J> J> J> J> J> J> J> J> J> J> J> J> J> J> J> J> J> J> J> J> J> J> J> J> J> J> J> J> J> J> J> J> J> J> J> J> J> J> J> J> J> J> J> J> J> J> J> J> J> J> J> J> J> J> J> J> J> J> J> J> J> J> J> J> J> J> J> J> J> J> J> J> J> J> J> J> J> J> J> J> J> J> J> J> J> J> J> J> J> J>   ?O ?O ?O ?O ?O ?O ?O ?O ?O ?O ?O ?O ?O ?O ?O ?O ?O ?O ?O ?O ?O ?O ?O ?O ?O ?O ?O ?O ?O ?O ?O ?O ?O ?O ?O ?O ?O ?O ?O ?O ?O ?O ?O ?O ?O ?O ?O ?O ?O ?O ?O ?O ?O ?O ?O ?O ?O ?O ?O ?O ?O ?O ?O ?O ?O ?O ?O ?O ?O ?O ?O ?O ?O ?O ?O ?O ?O ?O ?O ?O ?O ?O ?O ?O ?O ?O ?O ?O ?O ?O ?O ?O ?O ?O ?O ?O ?O ?O ?O ?O ?O ?O ?O ?O ?O ?O ?O ?O ?O ?O ?O ?O ?O ?O ?O ?O ?O ?O ?O ?O ?O ?O ?O ?O ?O ?O ?O ?O ?O ?O ?O ?O ?O ?O ?O ?O ?O ?O ?O ?O ?O ?O ?O ?O ?O ?O ?O ?O ?O ?O ?O ?O ?O ?O ?O ?O ?O ?O ?O ?O ?O ?O ?O ?O ?O ?O ?O ?O ?O ?O ?O ?O ?O ?O ?O ?O ?O ?O O O AO AO AO AO AO AO AO AO AO AO AO AO AO AO AO AO AO AO AO AO AO AO AO AO AO AO AO AO AO AO AO AO AO AO AO AO AO AO AO AO AO AO AO AO AO AO AO AO AO AO AO AO AO AO AO AO AO AO AO AO AO AO AO AO AO AO AO AO AO AO AO AO AO AO AO AO AO AO AO AO AO AO AO AO AO AO AO AO AO AO AO AO AO AO AO AO AO AO AO AO AO AO AO AO AO AO AO AO AO AO AO AO AO AO AO AO AO AO AO AO AO AO AO AO AO AO AO AO AO AO AO AO AO AO AO AO AO AO AO AO AO AO AO AO AO AO AO AO AO AO AO AO AO AO AO AO AO AO AO AO AO AO AO AO AO AO AO AO AO AO AO AO AO AO AO AO AO AO O O O? O? O? O? O? O? O? O? O? O? O? O? O? O? O? O? O? O? O? O? O? O? O? O? O? O? O? O? O? O? O? O? O? O? O? O? O? O? O? O? O? O? O? O? O? O? O? O? O? O? O? O? O? O? O? O? O? O? O? O? O? O? O? O? O? O? O? O? O? O? O? O? O? O? O? O? O? O? O? O? O? O? O? O? O? O? O? O? O? O? O? O? O? O? O? O? O? O? O? O? O? O? O? O? O? O? O? O? O? O? O? O? O? O? O? O? O? O? O? O? O? O? O? O? O? O? O? O? O? O? O? O? O? O? O? O? O? O? O? O? O? O? O? O? O? O? O? O? O? O? O? O? O? O? O? O? O? O? O? O? O? O? O? O? O? O? O? O? O? O? O? O? O? O? O? O? O? ?  M> M> M> M> M> M> M> M> M> M> M> M> M> M> M> M> M> M> M> M> M> M> M> M> M> M> M> M> M> M> M> M> M> M> M> M> M> M> M> M> M> M> M> M> M> M> M> M> M> M> M> M> M> M> M> M> M> M> M> M> M> M> M> M> M> M> M> M> M> M> M> M> M> M> M> M> M> M> M> M> M> M> M> M> M> M> M> M> M> M> M> M> M> M> M> M> M> M> M> M> M> M> M> M> M> M> M> M> M> M> M> M> M> M> M> M> M> M> M> M> M> M> M> M> M> M> M> M> M> M> M> M> M> M> M> M> M> M> M> M> M> M> M> M> M> M> M> M> M> M> M> M> M> M> M> M> M> M> M> M> M> M> M> M> M> M> M> M> M> M> M> M> M> M> M> M> M> M>   K< K< K< K< K< K< K< K< K< K< K< K< K< K< K< K< K< K< K< K< K< K< K< K< K< K< K< K< K< K< K< K< K< K< K< K< K< K< K< K< K< K< K< K< K< K< K< K< K< K< K< K< K< K< K< K< K< K< K< K< K< K< K< K< K< K< K< K< K< K< K< K< K< K< K< K< K< K< K< K< K< K< K< K< K< K< K< K< K< K< K< K< K< K< K< K< K< K< K< K< K< K< K< K< K< K< K< K< K< K< K< K< K< K< K< K< K< K< K< K< K< K< K< K< K< K< K< K< K< K< K< K< K< K< K< K< K< K< K< K< K< K< K< K< K< K< K< K< K< K< K< K< K< K< K< K< K< K< K< K< K< K< K< K< K< K< K< K< K< K< K< K< K< K< K< K< K< K<   J: J: J: J: J: J: J: J: J: J: J: J: J: J: J: J: J: J: J: J: J: J: J: J: J: J: J: J: J: J: J: J: J: J: J: J: J: J: J: J: J: J: J: J: J: J: J: J: J: J: J: J: J: J: J: J: J: J: J: J: J: J: J: J: J: J: J: J: J: J: J: J: J: J: J: J: J: J: J: J: J: J: J: J: J: J: J: J: J: J: J: J: J: J: J: J: J: J: J: J: J: J: J: J: J: J: J: J: J: J: J: J: J: J: J: J: J: J: J: J: J: J: J: J: J: J: J: J: J: J: J: J: J: J: J: J: J: J: J: J: J: J: J: J: J: J: J: J: J: J: J: J: J: J: J: J: J: J: J: J: J: J: J: J: J: J: J: J: J: J: J: J: J: J: J: J: J: J:   H9 H9 H9 H9 H9 H9 H9 H9 H9 H9 H9 H9 H9 H9 H9 H9 H9 H9 H9 H9 H9 H9 H9 H9 H9 H9 H9 H9 H9 H9 H9 H9 H9 H9 H9 H9 H9 H9 H9 H9 H9 H9 H9 H9 H9 H9 H9 H9 H9 H9 H9 H9 H9 H9 H9 H9 H9 H9 H9 H9 H9 H9 H9 H9 H9 H9 H9 H9 H9 H9 H9 H9 H9 H9 H9 H9 H9 H9 H9 H9 H9 H9 H9 H9 H9 H9 H9 H9 H9 H9 H9 H9 H9 H9 H9 H9 H9 H9 H9 H9 H9 H9 H9 H9 H9 H9 H9 H9 H9 H9 H9 H9 H9 H9 H9 H9 H9 H9 H9 H9 H9 H9 H9 H9 H9 H9 H9 H9 H9 H9 H9 H9 H9 H9 H9 H9 H9 H9 H9 H9 H9 H9 H9 H9 H9 H9 H9 H9 H9 H9 H9 H9 H9 H9 H9 H9 H9 H9 H9 H9 H9 H9 H9 H9 H9 H9 H9 H9 H9 H9 H9 H9 H9 H9 H9 H9 H9 H9   F7 F7 F7 F7 F7 F7 F7 F7 F7 F7 F7 F7 F7 F7 F7 F7 F7 F7 F7 F7 F7 F7 F7 F7 F7 F7 F7 F7 F7 F7 F7 F7 F7 F7 F7 F7 F7 F7 F7 F7 F7 F7 F7 F7 F7 F7 F7 F7 F7 F7 F7 F7 F7 F7 F7 F7 F7 F7 F7 F7 F7 F7 F7 F7 F7 F7 F7 F7 F7 F7 F7 F7 F7 F7 F7 F7 F7 F7 F7 F7 F7 F7 F7 F7 F7 F7 F7 F7 F7 F7 F7 F7 F7 F7 F7 F7 F7 F7 F7 F7 F7 F7 F7 F7 F7 F7 F7 F7 F7 F7 F7 F7 F7 F7 F7 F7 F7 F7 F7 F7 F7 F7 F7 F7 F7 F7 F7 F7 F7 F7 F7 F7 F7 F7 F7 F7 F7 F7 F7 F7 F7 F7 F7 F7 F7 F7 F7 F7 F7 F7 F7 F7 F7 F7 F7 F7 F7 F7 F7 F7 F7 F7 F7 F7 F7 F7 F7 F7 F7 F7 F7 F7 F7 F7 F7 F7 F7 F7  Q5 Q5 Q5 Q5 Q5 Q5 Q5 Q5 Q5 Q5 Q5 Q5 Q5 Q5 Q5 Q5 Q5 Q5 Q5 Q5 Q5 Q5 Q5 Q5 Q5 Q5 Q5 Q5 Q5 Q5 Q5 Q5 Q5 Q5 Q5 Q5 Q5 Q5 Q5 Q5 Q5 Q5 Q5 Q5 Q5 Q5 Q5 Q5 Q5 Q5 Q5 Q5 Q5 Q5 Q5 Q5 Q5 Q5 Q5 Q5 Q5 Q5 Q5 Q5 Q5 Q5 Q5 Q5 Q5 Q5 Q5 Q5 Q5 Q5 Q5 Q5 Q5 Q5 Q5 Q5 Q5 Q5 Q5 Q5 Q5 Q5 Q5 Q5 Q5 Q5 Q5 Q5 Q5 Q5 Q5 Q5 Q5 Q5 Q5 Q5 Q5 Q5 Q5 Q5 Q5 Q5 Q5 Q5 Q5 Q5 Q5 Q5 Q5 Q5 Q5 Q5 Q5 Q5 Q5 Q5 Q5 Q5 Q5 Q5 Q5 Q5 Q5 Q5 Q5 Q5 Q5 Q5 Q5 Q5 Q5 Q5 Q5 Q5 Q5 Q5 Q5 Q5 Q5 Q5 Q5 Q5 Q5 Q5 Q5 Q5 Q5 Q5 Q5 Q5 Q5 Q5 Q5 Q5 Q5 Q5 Q5 Q5 Q5 Q5 Q5 Q5 Q5 Q5 Q5 Q5 Q5 Q5 Q5 Q5 Q5 Q5 Q5 Q5 5 5 R5 R5 R5 R5 R5 R5 R5 R5 R5 R5 R5 R5 R5 R5 R5 R5 R5 R5 R5 R5 R5 R5 R5 R5 R5 R5 R5 R5 R5 R5 R5 R5 R5 R5 R5 R5 R5 R5 R5 R5 R5 R5 R5 R5 R5 R5 R5 R5 R5 R5 R5 R5 R5 R5 R5 R5 R5 R5 R5 R5 R5 R5 R5 R5 R5 R5 R5 R5 R5 R5 R5 R5 R5 R5 R5 R5 R5 R5 R5 R5 R5 R5 R5 R5 R5 R5 R5 R5 R5 R5 R5 R5 R5 R5 R5 R5 R5 R5 R5 R5 R5 R5 R5 R5 R5 R5 R5 R5 R5 R5 R5 R5 R5 R5 R5 R5 R5 R5 R5 R5 R5 R5 R5 R5 R5 R5 R5 R5 R5 R5 R5 R5 R5 R5 R5 R5 R5 R5 R5 R5 R5 R5 R5 R5 R5 R5 R5 R5 R5 R5 R5 R5 R5 R5 R5 R5 R5 R5 R5 R5 R5 R5 R5 R5 R5 R5 R5 R5 R5 R5 R5 R5 R5 R5 R5 R5 R5 R5   J7 J7 J7 J7 J7 J7 J7 J7 J7 J7 J7 J7 J7 J7 J7 J7 J7 J7 J7 J7 J7 J7 J7 J7 J7 J7 J7 J7 J7 J7 J7 J7 J7 J7 J7 J7 J7 J7 J7 J7 J7 J7 J7 J7 J7 J7 J7 J7 J7 J7 J7 J7 J7 J7 J7 J7 J7 J7 J7 J7 J7 J7 J7 J7 J7 J7 J7 J7 J7 J7 J7 J7 J7 J7 J7 J7 J7 J7 J7 J7 J7 J7 J7 J7 J7 J7 J7 J7 J7 J7 J7 J7 J7 J7 J7 J7 J7 J7 J7 J7 J7 J7 J7 J7 J7 J7 J7 J7 J7 J7 J7 J7 J7 J7 J7 J7 J7 J7 J7 J7 J7 J7 J7 J7 J7 J7 J7 J7 J7 J7 J7 J7 J7 J7 J7 J7 J7 J7 J7 J7 J7 J7 J7 J7 J7 J7 J7 J7 J7 J7 J7 J7 J7 J7 J7 J7 J7 J7 J7 J7 J7 J7 J7 J7 J7 J7 J7 J7 J7 J7 J7 J7 J7 J7 J7 J7 J7 J7 7 7 K7 K7 K7 K7 K7 K7 K7 K7 K7 K7 K7 K7 K7 K7 K7 K7 K7 K7 K7 K7 K7 K7 K7 K7 K7 K7 K7 K7 K7 K7 K7 K7 K7 K7 K7 K7 K7 K7 K7 K7 K7 K7 K7 K7 K7 K7 K7 K7 K7 K7 K7 K7 K7 K7 K7 K7 K7 K7 K7 K7 K7 K7 K7 K7 K7 K7 K7 K7 K7 K7 K7 K7 K7 K7 K7 K7 K7 K7 K7 K7 K7 K7 K7 K7 K7 K7 K7 K7 K7 K7 K7 K7 K7 K7 K7 K7 K7 K7 K7 K7 K7 K7 K7 K7 K7 K7 K7 K7 K7 K7 K7 K7 K7 K7 K7 K7 K7 K7 K7 K7 K7 K7 K7 K7 K7 K7 K7 K7 K7 K7 K7 K7 K7 K7 K7 K7 K7 K7 K7 K7 K7 K7 K7 K7 K7 K7 K7 K7 K7 K7 K7 K7 K7 K7 K7 K7 K7 K7 K7 K7 K7 K7 K7 K7 K7 K7 K7 K7 K7 K7 K7 K7 K7 K7 K7 K7 K7 K7   M3 M3 M3 M3 M3 M3 M3 M3 M3 M3 M3 M3 M3 M3 M3 M3 M3 M3 M3 M3 M3 M3 M3 M3 M3 M3 M3 M3 M3 M3 M3 M3 M3 M3 M3 M3 M3 M3 M3 M3 M3 M3 M3 M3 M3 M3 M3 M3 M3 M3 M3 M3 M3 M3 M3 M3 M3 M3 M3 M3 M3 M3 M3 M3 M3 M3 M3 M3 M3 M3 M3 M3 M3 M3 M3 M3 M3 M3 M3 M3 M3 M3 M3 M3 M3 M3 M3 M3 M3 M3 M3 M3 M3 M3 M3 M3 M3 M3 M3 M3 M3 M3 M3 M3 M3 M3 M3 M3 M3 M3 M3 M3 M3 M3 M3 M3 M3 M3 M3 M3 M3 M3 M3 M3 M3 M3 M3 M3 M3 M3 M3 M3 M3 M3 M3 M3 M3 M3 M3 M3 M3 M3 M3 M3 M3 M3 M3 M3 M3 M3 M3 M3 M3 M3 M3 M3 M3 M3 M3 M3 M3 M3 M3 M3 M3 M3 M3 M3 M3 M3 M3 M3 M3 M3 M3 M3 M3 M3 3 3 H3 H3 H3 H3 H3 H3 H3 H3 H3 H3 H3 H3 H3 H3 H3 H3 H3 H3 H3 H3 H3 H3 H3 H3 H3 H3 H3 H3 H3 H3 H3 H3 H3 H3 H3 H3 H3 H3 H3 H3 H3 H3 H3 H3 H3 H3 H3 H3 H3 H3 H3 H3 H3 H3 H3 H3 H3 H3 H3 H3 H3 H3 H3 H3 H3 H3 H3 H3 H3 H3 H3 H3 H3 H3 H3 H3 H3 H3 H3 H3 H3 H3 H3 H3 H3 H3 H3 H3 H3 H3 H3 H3 H3 H3 H3 H3 H3 H3 H3 H3 H3 H3 H3 H3 H3 H3 H3 H3 H3 H3 H3 H3 H3 H3 H3 H3 H3 H3 H3 H3 H3 H3 H3 H3 H3 H3 H3 H3 H3 H3 H3 H3 H3 H3 H3 H3 H3 H3 H3 H3 H3 H3 H3 H3 H3 H3 H3 H3 H3 H3 H3 H3 H3 H3 H3 H3 H3 H3 H3 H3 H3 H3 H3 H3 H3 H3 H3 H3 H3 H3 H3 H3 H3 H3 H3 H3 H3 H3  J5 J5 J5 J5 J5 J5 J5 J5 J5 J5 J5 J5 J5 J5 J5 J5 J5 J5 J5 J5 J5 J5 J5 J5 J5 J5 J5 J5 J5 J5 J5 J5 J5 J5 J5 J5 J5 J5 J5 J5 J5 J5 J5 J5 J5 J5 J5 J5 J5 J5 J5 J5 J5 J5 J5 J5 J5 J5 J5 J5 J5 J5 J5 J5 J5 J5 J5 J5 J5 J5 J5 J5 J5 J5 J5 J5 J5 J5 J5 J5 J5 J5 J5 J5 J5 J5 J5 J5 J5 J5 J5 J5 J5 J5 J5 J5 J5 J5 J5 J5 J5 J5 J5 J5 J5 J5 J5 J5 J5 J5 J5 J5 J5 J5 J5 J5 J5 J5 J5 J5 J5 J5 J5 J5 J5 J5 J5 J5 J5 J5 J5 J5 J5 J5 J5 J5 J5 J5 J5 J5 J5 J5 J5 J5 J5 J5 J5 J5 J5 J5 J5 J5 J5 J5 J5 J5 J5 J5 J5 J5 J5 J5 J5 J5 J5 J5 J5 J5 J5 J5 J5 J5 J5 J5 J5 J5 J5 J5 J5 J5 J5 J5 J5 J5 J5 J5 J5 J5 J5 J5 J5 J5 J5 J5 J5 J5 J5 J5 J5 J5 J5 J5 J5 J5 J5 J5 J5 J5 J5 J5 J5 J5 J5 J5 J5 J5 J5 J5 J5 J5 J5 J5 J5 J5 J5 J5 J5 J5 J5 J5 J5 J5 J5 J5 J5 J5 J5 J5 J5 J5 J5 J5 J5 J5 J5 J5 J5 J5 J5 J5 J5 J5 J5 J5 J5 J5 J5 J5 J5 J5 J5 J5 J5 J5 J5 J5 J5 J5 J5 J5 J5 J5 J5 J5 J5 J5 J5 J5 J5 J5 J5 J5 J5 J5 J5 J5 J5 J5 J5 J5 J5 J5 J5 J5 J5 J5 J5 J5 J5 J5 J5 J5 J5 J5 J5 J5 J5 J5 J5 J5 J5 J5 J5 J5 J5 J5 J5 J5 J5 J5 J5 J5 J5 J5 J5 J5 J5 J5 J5 J5 J5 J5 J5 J5 J5 J5 J5 J5 J5 J5 J5 J5 J5 J5 J5 J5 J5 J5 J5 J5 J5 J5 J5 J5 J5 J5 J5 J5   .H .H .H .H .H .H .H .H .H .H .H .H .H .H .H .H .H .H .H .H .H .H .H .H .H .H .H .H .H .H .H .H .H .H .H .H .H .H .H .H .H .H .H .H .H .H .H .H .H .H .H .H .H .H .H .H .H .H .H .H .H .H .H .H .H .H .H .H .H .H .H .H .H .H .H .H .H .H .H .H .H .H .H .H .H .H .H .H .H .H .H .H .H .H .H .H .H .H .H .H .H .H .H .H .H .H .H .H .H .H .H .H .H .H .H .H .H .H .H .H .H .H .H .H .H .H .H .H .H .H .H .H .H .H .H .H .H .H .H .H .H .H .H .H .H .H .H .H .H .H .H .H .H .H .H .H .H .H .H .H .H .H .H .H .H .H .H .H .H .H .H .H .H .H .H .H .H .H H H 5H 5H 5H 5H 5H 5H 5H 5H 5H 5H 5H 5H 5H 5H 5H 5H 5H 5H 5H 5H 5H 5H 5H 5H 5H 5H 5H 5H 5H 5H 5H 5H 5H 5H 5H 5H 5H 5H 5H 5H 5H 5H 5H 5H 5H 5H 5H 5H 5H 5H 5H 5H 5H 5H 5H 5H 5H 5H 5H 5H 5H 5H 5H 5H 5H 5H 5H 5H 5H 5H 5H 5H 5H 5H 5H 5H 5H 5H 5H 5H 5H 5H 5H 5H 5H 5H 5H 5H 5H 5H 5H 5H 5H 5H 5H 5H 5H 5H 5H 5H 5H 5H 5H 5H 5H 5H 5H 5H 5H 5H 5H 5H 5H 5H 5H 5H 5H 5H 5H 5H 5H 5H 5H 5H 5H 5H 5H 5H 5H 5H 5H 5H 5H 5H 5H 5H 5H 5H 5H 5H 5H 5H 5H 5H 5H 5H 5H 5H 5H 5H 5H 5H 5H 5H 5H 5H 5H 5H 5H 5H 5H 5H 5H 5H 5H 5H 5H 5H 5H 5H 5H 5H 5H 5H 5H 5H 5H 5H   7F 7F 7F 7F 7F 7F 7F 7F 7F 7F 7F 7F 7F 7F 7F 7F 7F 7F 7F 7F 7F 7F 7F 7F 7F 7F 7F 7F 7F 7F 7F 7F 7F 7F 7F 7F 7F 7F 7F 7F 7F 7F 7F 7F 7F 7F 7F 7F 7F 7F 7F 7F 7F 7F 7F 7F 7F 7F 7F 7F 7F 7F 7F 7F 7F 7F 7F 7F 7F 7F 7F 7F 7F 7F 7F 7F 7F 7F 7F 7F 7F 7F 7F 7F 7F 7F 7F 7F 7F 7F 7F 7F 7F 7F 7F 7F 7F 7F 7F 7F 7F 7F 7F 7F 7F 7F 7F 7F 7F 7F 7F 7F 7F 7F 7F 7F 7F 7F 7F 7F 7F 7F 7F 7F 7F 7F 7F 7F 7F 7F 7F 7F 7F 7F 7F 7F 7F 7F 7F 7F 7F 7F 7F 7F 7F 7F 7F 7F 7F 7F 7F 7F 7F 7F 7F 7F 7F 7F 7F 7F 7F 7F 7F 7F 7F 7F 7F 7F 7F 7F 7F 7F 7F 7F 7F 7F 7F 7F F F 9F 9F 9F 9F 9F 9F 9F 9F 9F 9F 9F 9F 9F 9F 9F 9F 9F 9F 9F 9F 9F 9F 9F 9F 9F 9F 9F 9F 9F 9F 9F 9F 9F 9F 9F 9F 9F 9F 9F 9F 9F 9F 9F 9F 9F 9F 9F 9F 9F 9F 9F 9F 9F 9F 9F 9F 9F 9F 9F 9F 9F 9F 9F 9F 9F 9F 9F 9F 9F 9F 9F 9F 9F 9F 9F 9F 9F 9F 9F 9F 9F 9F 9F 9F 9F 9F 9F 9F 9F 9F 9F 9F 9F 9F 9F 9F 9F 9F 9F 9F 9F 9F 9F 9F 9F 9F 9F 9F 9F 9F 9F 9F 9F 9F 9F 9F 9F 9F 9F 9F 9F 9F 9F 9F 9F 9F 9F 9F 9F 9F 9F 9F 9F 9F 9F 9F 9F 9F 9F 9F 9F 9F 9F 9F 9F 9F 9F 9F 9F 9F 9F 9F 9F 9F 9F 9F 9F 9F 9F 9F 9F 9F 9F 9F 9F 9F 9F 9F 9F 9F 9F 9F 9F 9F 9F 9F 9F 9F  J: J: J: J: J: J: J: J: J: J: J: J: J: J: J: J: J: J: J: J: J: J: J: J: J: J: J: J: J: J: J: J: J: J: J: J: J: J: J: J: J: J: J: J: J: J: J: J: J: J: J: J: J: J: J: J: J: J: J: J: J: J: J: J: J: J: J: J: J: J: J: J: J: J: J: J: J: J: J: J: J: J: J: J: J: J: J: J: J: J: J: J: J: J: J: J: J: J: J: J: J: J: J: J: J: J: J: J: J: J: J: J: J: J: J: J: J: J: J: J: J: J: J: J: J: J: J: J: J: J: J: J: J: J: J: J: J: J: J: J: J: J: J: J: J: J: J: J: J: J: J: J: J: J: J: J: J: J: J: J: J: J: J: J: J: J: J: J: J: J: J: J: J: J: J: J: J: J: J: J: J: J: J: J: J: J: J: J: J: J: J: J: J: J: J: J: J: J: J: J: J: J: J: J: J: J: J: J: J: J: J: J: J: J: J: J: J: J: J: J: J: J: J: J: J: J: J: J: J: J: J: J: J: J: J: J: J: J: J: J: J: J: J: J: J: J: J: J: J: J: J: J: J: J: J: J: J: J: J: J: J: J: J: J: J: J: J: J: J: J: J: J: J: J: J: J: J: J: J: J: J: J: J: J: J: J: J: J: J: J: J: J: J: J: J: J: J: J: J: J: J: J: J: J: J: J: J: J: J: J: J: J: J: J: J: J: J: J: J: J: J: J: J: J: J: J: J: J: J: J: J: J: J: J: J: J: J: J: J: J: J: J: J: J: J: J: J: J: J: J: J: J: J: J: J: J: J: J:   M< M< M< M< M< M< M< M< M< M< M< M< M< M< M< M< M< M< M< M< M< M< M< M< M< M< M< M< M< M< M< M< M< M< M< M< M< M< M< M< M< M< M< M< M< M< M< M< M< M< M< M< M< M< M< M< M< M< M< M< M< M< M< M< M< M< M< M< M< M< M< M< M< M< M< M< M< M< M< M< M< M< M< M< M< M< M< M< M< M< M< M< M< M< M< M< M< M< M< M< M< M< M< M< M< M< M< M< M< M< M< M< M< M< M< M< M< M< M< M< M< M< M< M< M< M< M< M< M< M< M< M< M< M< M< M< M< M< M< M< M< M< M< M< M< M< M< M< M< M< M< M< M< M< M< M< M< M< M< M< M< M< M< M< M< M< M< M< M< M< M< M< M< M< M< M< M< M< < < K< K< K< K< K< K< K< K< K< K< K< K< K< K< K< K< K< K< K< K< K< K< K< K< K< K< K< K< K< K< K< K< K< K< K< K< K< K< K< K< K< K< K< K< K< K< K< K< K< K< K< K< K< K< K< K< K< K< K< K< K< K< K< K< K< K< K< K< K< K< K< K< K< K< K< K< K< K< K< K< K< K< K< K< K< K< K< K< K< K< K< K< K< K< K< K< K< K< K< K< K< K< K< K< K< K< K< K< K< K< K< K< K< K< K< K< K< K< K< K< K< K< K< K< K< K< K< K< K< K< K< K< K< K< K< K< K< K< K< K< K< K< K< K< K< K< K< K< K< K< K< K< K< K< K< K< K< K< K< K< K< K< K< K< K< K< K< K< K< K< K< K< K< K< K< K< K< K<   M> M> M> M> M> M> M> M> M> M> M> M> M> M> M> M> M> M> M> M> M> M> M> M> M> M> M> M> M> M> M> M> M> M> M> M> M> M> M> M> M> M> M> M> M> M> M> M> M> M> M> M> M> M> M> M> M> M> M> M> M> M> M> M> M> M> M> M> M> M> M> M> M> M> M> M> M> M> M> M> M> M> M> M> M> M> M> M> M> M> M> M> M> M> M> M> M> M> M> M> M> M> M> M> M> M> M> M> M> M> M> M> M> M> M> M> M> M> M> M> M> M> M> M> M> M> M> M> M> M> M> M> M> M> M> M> M> M> M> M> M> M> M> M> M> M> M> M> M> M> M> M> M> M> M> M> M> M> M> M> M> M> M> M> M> M> M> M> M> M> M> M> M> M> M> M> M> M> M> M> M> M> M> M> M> M> M> M> M> M> M> M> M> M> M> M> M> M> M> M> M> M> M> M> M> M> M> M> M> M> M> M> M> M> M> M> M> M> M> M> M> M> M> M> M> M> M> M> M> M> M> M> M> M> M> M> M> M> M> M> M> M> M> M> M> M> M> M> M> M> M> M> M> M> M> M> M> M> M> M> M> M> M> M> M> M> M> M> M> M> M> M> M> M> M> M> M> M> M> M> M> M> M> M> M> M> M> M> M> M> M> M> M> M> M> M> M> M> M> M> M> M> M> M> M> M> M> M> M> M> M> M> M> M> M> M> M> M> M> M> M> M> M> M> M> M> M> M> M> M> M> M> M> M> M> M> M> M> M> M> M> M> M> M> M> M> M> M> M> M> M> M> M> M> M> M> M> M>  J: J: J: J: J: J: J: J: J: J: J: J: J: J: J: J: J: J: J: J: J: J: J: J: J: J: J: J: J: J: J: J: J: J: J: J: J: J: J: J: J: J: J: J: J: J: J: J: J: J: J: J: J: J: J: J: J: J: J: J: J: J: J: J: J: J: J: J: J: J: J: J: J: J: J: J: J: J: J: J: J: J: J: J: J: J: J: J: J: J: J: J: J: J: J: J: J: J: J: J: J: J: J: J: J: J: J: J: J: J: J: J: J: J: J: J: J: J: J: J: J: J: J: J: J: J: J: J: J: J: J: J: J: J: J: J: J: J: J: J: J: J: J: J: J: J: J: J: J: J: J: J: J: J: J: J: J: J: J: J: J: J: J: J: J: J: J: J: J: J: J: J: J: J: J: J: J: J: : : F: F: F: F: F: F: F: F: F: F: F: F: F: F: F: F: F: F: F: F: F: F: F: F: F: F: F: F: F: F: F: F: F: F: F: F: F: F: F: F: F: F: F: F: F: F: F: F: F: F: F: F: F: F: F: F: F: F: F: F: F: F: F: F: F: F: F: F: F: F: F: F: F: F: F: F: F: F: F: F: F: F: F: F: F: F: F: F: F: F: F: F: F: F: F: F: F: F: F: F: F: F: F: F: F: F: F: F: F: F: F: F: F: F: F: F: F: F: F: F: F: F: F: F: F: F: F: F: F: F: F: F: F: F: F: F: F: F: F: F: F: F: F: F: F: F: F: F: F: F: F: F: F: F: F: F: F: F: F: F: F: F: F: F: F: F: F: F: F: F: F: F: F: F: F: F: F: F:   O? O? O? O? O? O? O? O? O? O? O? O? O? O? O? O? O? O? O? O? O? O? O? O? O? O? O? O? O? O? O? O? O? O? O? O? O? O? O? O? O? O? O? O? O? O? O? O? O? O? O? O? O? O? O? O? O? O? O? O? O? O? O? O? O? O? O? O? O? O? O? O? O? O? O? O? O? O? O? O? O? O? O? O? O? O? O? O? O? O? O? O? O? O? O? O? O? O? O? O? O? O? O? O? O? O? O? O? O? O? O? O? O? O? O? O? O? O? O? O? O? O? O? O? O? O? O? O? O? O? O? O? O? O? O? O? O? O? O? O? O? O? O? O? O? O? O? O? O? O? O? O? O? O? O? O? O? O? O? O? O? O? O? O? O? O? O? O? O? O? O? O? O? O? O? O? O? O? O? O? O? O? O? O? O? O? O? O? O? O? O? O? O? O? O? O? O? O? O? O? O? O? O? O? O? O? O? O? O? O? O? O? O? O? O? O? O? O? O? O? O? O? O? O? O? O? O? O? O? O? O? O? O? O? O? O? O? O? O? O? O? O? O? O? O? O? O? O? O? O? O? O? O? O? O? O? O? O? O? O? O? O? O? O? O? O? O? O? O? O? O? O? O? O? O? O? O? O? O? O? O? O? O? O? O? O? O? O? O? O? O? O? O? O? O? O? O? O? O? O? O? O? O? O? O? O? O? O? O? O? O? O? O? O? O? O? O? O? O? O? O? O? O? O? O? O? O? O? O? O? O? O? O? O? O? O? O? O? O? O? O? O? O? O? O? O? O? O? O? O? O? O? O? O? O? O? O? O?   K< K< K< K< K< K< K< K< K< K< K< K< K< K< K< K< K< K< K< K< K< K< K< K< K< K< K< K< K< K< K< K< K< K< K< K< K< K< K< K< K< K< K< K< K< K< K< K< K< K< K< K< K< K< K< K< K< K< K< K< K< K< K< K< K< K< K< K< K< K< K< K< K< K< K< K< K< K< K< K< K< K< K< K< K< K< K< K< K< K< K< K< K< K< K< K< K< K< K< K< K< K< K< K< K< K< K< K< K< K< K< K< K< K< K< K< K< K< K< K< K< K< K< K< K< K< K< K< K< K< K< K< K< K< K< K< K< K< K< K< K< K< K< K< K< K< K< K< K< K< K< K< K< K< K< K< K< K< K< K< K< K< K< K< K< K< K< K< K< K< K< K< K< K< K< K< K< K< < F< F< F< F< F< F< F< F< F< F< F< F< F< F< F< F< F< F< F< F< F< F< F< F< F< F< F< F< F< F< F< F< F< F< F< F< F< F< F< F< F< F< F< F< F< F< F< F< F< F< F< F< F< F< F< F< F< F< F< F< F< F< F< F< F< F< F< F< F< F< F< F< F< F< F< F< F< F< F< F< F< F< F< F< F< F< F< F< F< F< F< F< F< F< F< F< F< F< F< F< F< F< F< F< F< F< F< F< F< F< F< F< F< F< F< F< F< F< F< F< F< F< F< F< F< F< F< F< F< F< F< F< F< F< F< F< F< F< F< F< F< F< F< F< F< F< F< F< F< F< F< F< F< F< F< F< F< F< F< F< F< F< F< F< F< F< F< F< F< F< F< F< F< F< F< F< F< F< <  >M >M >M >M >M >M >M >M >M >M >M >M >M >M >M >M >M >M >M >M >M >M >M >M >M >M >M >M >M >M >M >M >M >M >M >M >M >M >M >M >M >M >M >M >M >M >M >M >M >M >M >M >M >M >M >M >M >M >M >M >M >M >M >M >M >M >M >M >M >M >M >M >M >M >M >M >M >M >M >M >M >M >M >M >M >M >M >M >M >M >M >M >M >M >M >M >M >M >M >M >M >M >M >M >M >M >M >M >M >M >M >M >M >M >M >M >M >M >M >M >M >M >M >M >M >M >M >M >M >M >M >M >M >M >M >M >M >M >M >M >M >M >M >M >M >M >M >M >M >M >M >M >M >M >M >M >M >M >M >M >M >M >M >M >M >M >M >M >M >M >M >M >M >M >M >M >M >M M M <M <M <M <M <M <M <M <M <M <M <M <M <M <M <M <M <M <M <M <M <M <M <M <M <M <M <M <M <M <M <M <M <M <M <M <M <M <M <M <M <M <M <M <M <M <M <M <M <M <M <M <M <M <M <M <M <M <M <M <M <M <M <M <M <M <M <M <M <M <M <M <M <M <M <M <M <M <M <M <M <M <M <M <M <M <M <M <M <M <M <M <M <M <M <M <M <M <M <M <M <M <M <M <M <M <M <M <M <M <M <M <M <M <M <M <M <M <M <M <M <M <M <M <M <M <M <M <M <M <M <M <M <M <M <M <M <M <M <M <M <M <M <M <M <M <M <M <M <M <M <M <M <M <M <M <M <M <M <M <M <M <M <M <M <M <M <M <M <M <M <M <M <M <M <M <M <M <M M M :M :M :M :M :M :M :M :M :M :M :M :M :M :M :M :M :M :M :M :M :M :M :M :M :M :M :M :M :M :M :M :M :M :M :M :M :M :M :M :M :M :M :M :M :M :M :M :M :M :M :M :M :M :M :M :M :M :M :M :M :M :M :M :M :M :M :M :M :M :M :M :M :M :M :M :M :M :M :M :M :M :M :M :M :M :M :M :M :M :M :M :M :M :M :M :M :M :M :M :M :M :M :M :M :M :M :M :M :M :M :M :M :M :M :M :M :M :M :M :M :M :M :M :M :M :M :M :M :M :M :M :M :M :M :M :M :M :M :M :M :M :M :M :M :M :M :M :M :M :M :M :M :M :M :M :M :M :M :M :M :M :M :M :M :M :M :M :M :M :M :M :M :M :M :M :M :M :M M M M9 M9 M9 M9 M9 M9 M9 M9 M9 M9 M9 M9 M9 M9 M9 M9 M9 M9 M9 M9 M9 M9 M9 M9 M9 M9 M9 M9 M9 M9 M9 M9 M9 M9 M9 M9 M9 M9 M9 M9 M9 M9 M9 M9 M9 M9 M9 M9 M9 M9 M9 M9 M9 M9 M9 M9 M9 M9 M9 M9 M9 M9 M9 M9 M9 M9 M9 M9 M9 M9 M9 M9 M9 M9 M9 M9 M9 M9 M9 M9 M9 M9 M9 M9 M9 M9 M9 M9 M9 M9 M9 M9 M9 M9 M9 M9 M9 M9 M9 M9 M9 M9 M9 M9 M9 M9 M9 M9 M9 M9 M9 M9 M9 M9 M9 M9 M9 M9 M9 M9 M9 M9 M9 M9 M9 M9 M9 M9 M9 M9 M9 M9 M9 M9 M9 M9 M9 M9 M9 M9 M9 M9 M9 M9 M9 M9 M9 M9 M9 M9 M9 M9 M9 M9 M9 M9 M9 M9 M9 M9 M9 M9 M9 M9 M9 M9 M9 M9 M9 M9 M9 M9 M9 M9 M9 M9 M9 9  R7 R7 R7 R7 R7 R7 R7 R7 R7 R7 R7 R7 R7 R7 R7 R7 R7 R7 R7 R7 R7 R7 R7 R7 R7 R7 R7 R7 R7 R7 R7 R7 R7 R7 R7 R7 R7 R7 R7 R7 R7 R7 R7 R7 R7 R7 R7 R7 R7 R7 R7 R7 R7 R7 R7 R7 R7 R7 R7 R7 R7 R7 R7 R7 R7 R7 R7 R7 R7 R7 R7 R7 R7 R7 R7 R7 R7 R7 R7 R7 R7 R7 R7 R7 R7 R7 R7 R7 R7 R7 R7 R7 R7 R7 R7 R7 R7 R7 R7 R7 R7 R7 R7 R7 R7 R7 R7 R7 R7 R7 R7 R7 R7 R7 R7 R7 R7 R7 R7 R7 R7 R7 R7 R7 R7 R7 R7 R7 R7 R7 R7 R7 R7 R7 R7 R7 R7 R7 R7 R7 R7 R7 R7 R7 R7 R7 R7 R7 R7 R7 R7 R7 R7 R7 R7 R7 R7 R7 R7 R7 R7 R7 R7 R7 R7 R7 R7 R7 R7 R7 R7 R7 R7 R7 R7 R7 R7 R7 7 7 Q7 Q7 Q7 Q7 Q7 Q7 Q7 Q7 Q7 Q7 Q7 Q7 Q7 Q7 Q7 Q7 Q7 Q7 Q7 Q7 Q7 Q7 Q7 Q7 Q7 Q7 Q7 Q7 Q7 Q7 Q7 Q7 Q7 Q7 Q7 Q7 Q7 Q7 Q7 Q7 Q7 Q7 Q7 Q7 Q7 Q7 Q7 Q7 Q7 Q7 Q7 Q7 Q7 Q7 Q7 Q7 Q7 Q7 Q7 Q7 Q7 Q7 Q7 Q7 Q7 Q7 Q7 Q7 Q7 Q7 Q7 Q7 Q7 Q7 Q7 Q7 Q7 Q7 Q7 Q7 Q7 Q7 Q7 Q7 Q7 Q7 Q7 Q7 Q7 Q7 Q7 Q7 Q7 Q7 Q7 Q7 Q7 Q7 Q7 Q7 Q7 Q7 Q7 Q7 Q7 Q7 Q7 Q7 Q7 Q7 Q7 Q7 Q7 Q7 Q7 Q7 Q7 Q7 Q7 Q7 Q7 Q7 Q7 Q7 Q7 Q7 Q7 Q7 Q7 Q7 Q7 Q7 Q7 Q7 Q7 Q7 Q7 Q7 Q7 Q7 Q7 Q7 Q7 Q7 Q7 Q7 Q7 Q7 Q7 Q7 Q7 Q7 Q7 Q7 Q7 Q7 Q7 Q7 Q7 Q7 Q7 Q7 Q7 Q7 Q7 Q7 Q7 Q7 Q7 Q7 Q7 Q7 Q7 Q7 Q7 Q7 Q7 Q7   O5 O5 O5 O5 O5 O5 O5 O5 O5 O5 O5 O5 O5 O5 O5 O5 O5 O5 O5 O5 O5 O5 O5 O5 O5 O5 O5 O5 O5 O5 O5 O5 O5 O5 O5 O5 O5 O5 O5 O5 O5 O5 O5 O5 O5 O5 O5 O5 O5 O5 O5 O5 O5 O5 O5 O5 O5 O5 O5 O5 O5 O5 O5 O5 O5 O5 O5 O5 O5 O5 O5 O5 O5 O5 O5 O5 O5 O5 O5 O5 O5 O5 O5 O5 O5 O5 O5 O5 O5 O5 O5 O5 O5 O5 O5 O5 O5 O5 O5 O5 O5 O5 O5 O5 O5 O5 O5 O5 O5 O5 O5 O5 O5 O5 O5 O5 O5 O5 O5 O5 O5 O5 O5 O5 O5 O5 O5 O5 O5 O5 O5 O5 O5 O5 O5 O5 O5 O5 O5 O5 O5 O5 O5 O5 O5 O5 O5 O5 O5 O5 O5 O5 O5 O5 O5 O5 O5 O5 O5 O5 O5 O5 O5 O5 O5 O5 O5 O5 O5 O5 O5 O5 O5 O5 O5 O5 O5 O5 5 5 Q5 Q5 Q5 Q5 Q5 Q5 Q5 Q5 Q5 Q5 Q5 Q5 Q5 Q5 Q5 Q5 Q5 Q5 Q5 Q5 Q5 Q5 Q5 Q5 Q5 Q5 Q5 Q5 Q5 Q5 Q5 Q5 Q5 Q5 Q5 Q5 Q5 Q5 Q5 Q5 Q5 Q5 Q5 Q5 Q5 Q5 Q5 Q5 Q5 Q5 Q5 Q5 Q5 Q5 Q5 Q5 Q5 Q5 Q5 Q5 Q5 Q5 Q5 Q5 Q5 Q5 Q5 Q5 Q5 Q5 Q5 Q5 Q5 Q5 Q5 Q5 Q5 Q5 Q5 Q5 Q5 Q5 Q5 Q5 Q5 Q5 Q5 Q5 Q5 Q5 Q5 Q5 Q5 Q5 Q5 Q5 Q5 Q5 Q5 Q5 Q5 Q5 Q5 Q5 Q5 Q5 Q5 Q5 Q5 Q5 Q5 Q5 Q5 Q5 Q5 Q5 Q5 Q5 Q5 Q5 Q5 Q5 Q5 Q5 Q5 Q5 Q5 Q5 Q5 Q5 Q5 Q5 Q5 Q5 Q5 Q5 Q5 Q5 Q5 Q5 Q5 Q5 Q5 Q5 Q5 Q5 Q5 Q5 Q5 Q5 Q5 Q5 Q5 Q5 Q5 Q5 Q5 Q5 Q5 Q5 Q5 Q5 Q5 Q5 Q5 Q5 Q5 Q5 Q5 Q5 Q5 Q5 Q5 Q5 Q5 Q5 Q5 Q5   R4 R4 R4 R4 R4 R4 R4 R4 R4 R4 R4 R4 R4 R4 R4 R4 R4 R4 R4 R4 R4 R4 R4 R4 R4 R4 R4 R4 R4 R4 R4 R4 R4 R4 R4 R4 R4 R4 R4 R4 R4 R4 R4 R4 R4 R4 R4 R4 R4 R4 R4 R4 R4 R4 R4 R4 R4 R4 R4 R4 R4 R4 R4 R4 R4 R4 R4 R4 R4 R4 R4 R4 R4 R4 R4 R4 R4 R4 R4 R4 R4 R4 R4 R4 R4 R4 R4 R4 R4 R4 R4 R4 R4 R4 R4 R4 R4 R4 R4 R4 R4 R4 R4 R4 R4 R4 R4 R4 R4 R4 R4 R4 R4 R4 R4 R4 R4 R4 R4 R4 R4 R4 R4 R4 R4 R4 R4 R4 R4 R4 R4 R4 R4 R4 R4 R4 R4 R4 R4 R4 R4 R4 R4 R4 R4 R4 R4 R4 R4 R4 R4 R4 R4 R4 R4 R4 R4 R4 R4 R4 R4 R4 R4 R4 R4 R4 R4 R4 R4 R4 R4 R4 R4 R4 R4 R4 R4 R4 4 4 O4 O4 O4 O4 O4 O4 O4 O4 O4 O4 O4 O4 O4 O4 O4 O4 O4 O4 O4 O4 O4 O4 O4 O4 O4 O4 O4 O4 O4 O4 O4 O4 O4 O4 O4 O4 O4 O4 O4 O4 O4 O4 O4 O4 O4 O4 O4 O4 O4 O4 O4 O4 O4 O4 O4 O4 O4 O4 O4 O4 O4 O4 O4 O4 O4 O4 O4 O4 O4 O4 O4 O4 O4 O4 O4 O4 O4 O4 O4 O4 O4 O4 O4 O4 O4 O4 O4 O4 O4 O4 O4 O4 O4 O4 O4 O4 O4 O4 O4 O4 O4 O4 O4 O4 O4 O4 O4 O4 O4 O4 O4 O4 O4 O4 O4 O4 O4 O4 O4 O4 O4 O4 O4 O4 O4 O4 O4 O4 O4 O4 O4 O4 O4 O4 O4 O4 O4 O4 O4 O4 O4 O4 O4 O4 O4 O4 O4 O4 O4 O4 O4 O4 O4 O4 O4 O4 O4 O4 O4 O4 O4 O4 O4 O4 O4 O4 O4 O4 O4 O4 O4 O4 O4 O4 O4 O4 O4 O4  L0 L0 L0 L0 L0 L0 L0 L0 L0 L0 L0 L0 L0 L0 L0 L0 L0 L0 L0 L0 L0 L0 L0 L0 L0 L0 L0 L0 L0 L0 L0 L0 L0 L0 L0 L0 L0 L0 L0 L0 L0 L0 L0 L0 L0 L0 L0 L0 L0 L0 L0 L0 L0 L0 L0 L0 L0 L0 L0 L0 L0 L0 L0 L0 L0 L0 L0 L0 L0 L0 L0 L0 L0 L0 L0 L0 L0 L0 L0 L0 L0 L0 L0 L0 L0 L0 L0 L0 L0 L0 L0 L0 L0 L0 L0 L0 L0 L0 L0 L0 L0 L0 L0 L0 L0 L0 L0 L0 L0 L0 L0 L0 L0 L0 L0 L0 L0 L0 L0 L0 L0 L0 L0 L0 L0 L0 L0 L0 L0 L0 L0 L0 L0 L0 L0 L0 L0 L0 L0 L0 L0 L0 L0 L0 L0 L0 L0 L0 L0 L0 L0 L0 L0 L0 L0 L0 L0 L0 L0 L0 L0 L0 L0 L0 L0 L0 L0 L0 L0 L0 L0 L0 L0 L0 L0 L0 L0 L0 0 0 H0 H0 H0 H0 H0 H0 H0 H0 H0 H0 H0 H0 H0 H0 H0 H0 H0 H0 H0 H0 H0 H0 H0 H0 H0 H0 H0 H0 H0 H0 H0 H0 H0 H0 H0 H0 H0 H0 H0 H0 H0 H0 H0 H0 H0 H0 H0 H0 H0 H0 H0 H0 H0 H0 H0 H0 H0 H0 H0 H0 H0 H0 H0 H0 H0 H0 H0 H0 H0 H0 H0 H0 H0 H0 H0 H0 H0 H0 H0 H0 H0 H0 H0 H0 H0 H0 H0 H0 H0 H0 H0 H0 H0 H0 H0 H0 H0 H0 H0 H0 H0 H0 H0 H0 H0 H0 H0 H0 H0 H0 H0 H0 H0 H0 H0 H0 H0 H0 H0 H0 H0 H0 H0 H0 H0 H0 H0 H0 H0 H0 H0 H0 H0 H0 H0 H0 H0 H0 H0 H0 H0 H0 H0 H0 H0 H0 H0 H0 H0 H0 H0 H0 H0 H0 H0 H0 H0 H0 H0 H0 H0 H0 H0 H0 H0 H0 H0 H0 H0 H0 H0 H0 H0 H0 H0 H0 H0 H0   R2 R2 R2 R2 R2 R2 R2 R2 R2 R2 R2 R2 R2 R2 R2 R2 R2 R2 R2 R2 R2 R2 R2 R2 R2 R2 R2 R2 R2 R2 R2 R2 R2 R2 R2 R2 R2 R2 R2 R2 R2 R2 R2 R2 R2 R2 R2 R2 R2 R2 R2 R2 R2 R2 R2 R2 R2 R2 R2 R2 R2 R2 R2 R2 R2 R2 R2 R2 R2 R2 R2 R2 R2 R2 R2 R2 R2 R2 R2 R2 R2 R2 R2 R2 R2 R2 R2 R2 R2 R2 R2 R2 R2 R2 R2 R2 R2 R2 R2 R2 R2 R2 R2 R2 R2 R2 R2 R2 R2 R2 R2 R2 R2 R2 R2 R2 R2 R2 R2 R2 R2 R2 R2 R2 R2 R2 R2 R2 R2 R2 R2 R2 R2 R2 R2 R2 R2 R2 R2 R2 R2 R2 R2 R2 R2 R2 R2 R2 R2 R2 R2 R2 R2 R2 R2 R2 R2 R2 R2 R2 R2 R2 R2 R2 R2 R2 R2 R2 R2 R2 R2 R2 R2 R2 R2 R2 R2 R2 2 2 Q2 Q2 Q2 Q2 Q2 Q2 Q2 Q2 Q2 Q2 Q2 Q2 Q2 Q2 Q2 Q2 Q2 Q2 Q2 Q2 Q2 Q2 Q2 Q2 Q2 Q2 Q2 Q2 Q2 Q2 Q2 Q2 Q2 Q2 Q2 Q2 Q2 Q2 Q2 Q2 Q2 Q2 Q2 Q2 Q2 Q2 Q2 Q2 Q2 Q2 Q2 Q2 Q2 Q2 Q2 Q2 Q2 Q2 Q2 Q2 Q2 Q2 Q2 Q2 Q2 Q2 Q2 Q2 Q2 Q2 Q2 Q2 Q2 Q2 Q2 Q2 Q2 Q2 Q2 Q2 Q2 Q2 Q2 Q2 Q2 Q2 Q2 Q2 Q2 Q2 Q2 Q2 Q2 Q2 Q2 Q2 Q2 Q2 Q2 Q2 Q2 Q2 Q2 Q2 Q2 Q2 Q2 Q2 Q2 Q2 Q2 Q2 Q2 Q2 Q2 Q2 Q2 Q2 Q2 Q2 Q2 Q2 Q2 Q2 Q2 Q2 Q2 Q2 Q2 Q2 Q2 Q2 Q2 Q2 Q2 Q2 Q2 Q2 Q2 Q2 Q2 Q2 Q2 Q2 Q2 Q2 Q2 Q2 Q2 Q2 Q2 Q2 Q2 Q2 Q2 Q2 Q2 Q2 Q2 Q2 Q2 Q2 Q2 Q2 Q2 Q2 Q2 Q2 Q2 Q2 Q2 Q2 Q2 Q2 Q2 Q2 Q2 Q2   O4 O4 O4 O4 O4 O4 O4 O4 O4 O4 O4 O4 O4 O4 O4 O4 O4 O4 O4 O4 O4 O4 O4 O4 O4 O4 O4 O4 O4 O4 O4 O4 O4 O4 O4 O4 O4 O4 O4 O4 O4 O4 O4 O4 O4 O4 O4 O4 O4 O4 O4 O4 O4 O4 O4 O4 O4 O4 O4 O4 O4 O4 O4 O4 O4 O4 O4 O4 O4 O4 O4 O4 O4 O4 O4 O4 O4 O4 O4 O4 O4 O4 O4 O4 O4 O4 O4 O4 O4 O4 O4 O4 O4 O4 O4 O4 O4 O4 O4 O4 O4 O4 O4 O4 O4 O4 O4 O4 O4 O4 O4 O4 O4 O4 O4 O4 O4 O4 O4 O4 O4 O4 O4 O4 O4 O4 O4 O4 O4 O4 O4 O4 O4 O4 O4 O4 O4 O4 O4 O4 O4 O4 O4 O4 O4 O4 O4 O4 O4 O4 O4 O4 O4 O4 O4 O4 O4 O4 O4 O4 O4 O4 O4 O4 O4 O4 O4 O4 O4 O4 O4 O4 O4 O4 O4 O4 O4 O4 4 Q4 Q4 Q4 Q4 Q4 Q4 Q4 Q4 Q4 Q4 Q4 Q4 Q4 Q4 Q4 Q4 Q4 Q4 Q4 Q4 Q4 Q4 Q4 Q4 Q4 Q4 Q4 Q4 Q4 Q4 Q4 Q4 Q4 Q4 Q4 Q4 Q4 Q4 Q4 Q4 Q4 Q4 Q4 Q4 Q4 Q4 Q4 Q4 Q4 Q4 Q4 Q4 Q4 Q4 Q4 Q4 Q4 Q4 Q4 Q4 Q4 Q4 Q4 Q4 Q4 Q4 Q4 Q4 Q4 Q4 Q4 Q4 Q4 Q4 Q4 Q4 Q4 Q4 Q4 Q4 Q4 Q4 Q4 Q4 Q4 Q4 Q4 Q4 Q4 Q4 Q4 Q4 Q4 Q4 Q4 Q4 Q4 Q4 Q4 Q4 Q4 Q4 Q4 Q4 Q4 Q4 Q4 Q4 Q4 Q4 Q4 Q4 Q4 Q4 Q4 Q4 Q4 Q4 Q4 Q4 Q4 Q4 Q4 Q4 Q4 Q4 Q4 Q4 Q4 Q4 Q4 Q4 Q4 Q4 Q4 Q4 Q4 Q4 Q4 Q4 Q4 Q4 Q4 Q4 Q4 Q4 Q4 Q4 Q4 Q4 Q4 Q4 Q4 Q4 Q4 Q4 Q4 Q4 Q4 Q4 Q4 Q4 Q4 Q4 Q4 Q4 Q4 Q4 Q4 Q4 Q4 Q4 Q4 Q4 Q4 Q4 Q4 Q4 4  R5 R5 R5 R5 R5 R5 R5 R5 R5 R5 R5 R5 R5 R5 R5 R5 R5 R5 R5 R5 R5 R5 R5 R5 R5 R5 R5 R5 R5 R5 R5 R5 R5 R5 R5 R5 R5 R5 R5 R5 R5 R5 R5 R5 R5 R5 R5 R5 R5 R5 R5 R5 R5 R5 R5 R5 R5 R5 R5 R5 R5 R5 R5 R5 R5 R5 R5 R5 R5 R5 R5 R5 R5 R5 R5 R5 R5 R5 R5 R5 R5 R5 R5 R5 R5 R5 R5 R5 R5 R5 R5 R5 R5 R5 R5 R5 R5 R5 R5 R5 R5 R5 R5 R5 R5 R5 R5 R5 R5 R5 R5 R5 R5 R5 R5 R5 R5 R5 R5 R5 R5 R5 R5 R5 R5 R5 R5 R5 R5 R5 R5 R5 R5 R5 R5 R5 R5 R5 R5 R5 R5 R5 R5 R5 R5 R5 R5 R5 R5 R5 R5 R5 R5 R5 R5 R5 R5 R5 R5 R5 R5 R5 R5 R5 R5 R5 R5 R5 R5 R5 R5 R5 R5 R5 R5 R5 R5 R5 5 5 Q5 Q5 Q5 Q5 Q5 Q5 Q5 Q5 Q5 Q5 Q5 Q5 Q5 Q5 Q5 Q5 Q5 Q5 Q5 Q5 Q5 Q5 Q5 Q5 Q5 Q5 Q5 Q5 Q5 Q5 Q5 Q5 Q5 Q5 Q5 Q5 Q5 Q5 Q5 Q5 Q5 Q5 Q5 Q5 Q5 Q5 Q5 Q5 Q5 Q5 Q5 Q5 Q5 Q5 Q5 Q5 Q5 Q5 Q5 Q5 Q5 Q5 Q5 Q5 Q5 Q5 Q5 Q5 Q5 Q5 Q5 Q5 Q5 Q5 Q5 Q5 Q5 Q5 Q5 Q5 Q5 Q5 Q5 Q5 Q5 Q5 Q5 Q5 Q5 Q5 Q5 Q5 Q5 Q5 Q5 Q5 Q5 Q5 Q5 Q5 Q5 Q5 Q5 Q5 Q5 Q5 Q5 Q5 Q5 Q5 Q5 Q5 Q5 Q5 Q5 Q5 Q5 Q5 Q5 Q5 Q5 Q5 Q5 Q5 Q5 Q5 Q5 Q5 Q5 Q5 Q5 Q5 Q5 Q5 Q5 Q5 Q5 Q5 Q5 Q5 Q5 Q5 Q5 Q5 Q5 Q5 Q5 Q5 Q5 Q5 Q5 Q5 Q5 Q5 Q5 Q5 Q5 Q5 Q5 Q5 Q5 Q5 Q5 Q5 Q5 Q5 Q5 Q5 Q5 Q5 Q5 Q5 Q5 Q5 Q5 Q5 Q5 Q5   O7 O7 O7 O7 O7 O7 O7 O7 O7 O7 O7 O7 O7 O7 O7 O7 O7 O7 O7 O7 O7 O7 O7 O7 O7 O7 O7 O7 O7 O7 O7 O7 O7 O7 O7 O7 O7 O7 O7 O7 O7 O7 O7 O7 O7 O7 O7 O7 O7 O7 O7 O7 O7 O7 O7 O7 O7 O7 O7 O7 O7 O7 O7 O7 O7 O7 O7 O7 O7 O7 O7 O7 O7 O7 O7 O7 O7 O7 O7 O7 O7 O7 O7 O7 O7 O7 O7 O7 O7 O7 O7 O7 O7 O7 O7 O7 O7 O7 O7 O7 O7 O7 O7 O7 O7 O7 O7 O7 O7 O7 O7 O7 O7 O7 O7 O7 O7 O7 O7 O7 O7 O7 O7 O7 O7 O7 O7 O7 O7 O7 O7 O7 O7 O7 O7 O7 O7 O7 O7 O7 O7 O7 O7 O7 O7 O7 O7 O7 O7 O7 O7 O7 O7 O7 O7 O7 O7 O7 O7 O7 O7 O7 O7 O7 O7 O7 O7 O7 O7 O7 O7 O7 O7 O7 O7 O7 O7 O7   M9 M9 M9 M9 M9 M9 M9 M9 M9 M9 M9 M9 M9 M9 M9 M9 M9 M9 M9 M9 M9 M9 M9 M9 M9 M9 M9 M9 M9 M9 M9 M9 M9 M9 M9 M9 M9 M9 M9 M9 M9 M9 M9 M9 M9 M9 M9 M9 M9 M9 M9 M9 M9 M9 M9 M9 M9 M9 M9 M9 M9 M9 M9 M9 M9 M9 M9 M9 M9 M9 M9 M9 M9 M9 M9 M9 M9 M9 M9 M9 M9 M9 M9 M9 M9 M9 M9 M9 M9 M9 M9 M9 M9 M9 M9 M9 M9 M9 M9 M9 M9 M9 M9 M9 M9 M9 M9 M9 M9 M9 M9 M9 M9 M9 M9 M9 M9 M9 M9 M9 M9 M9 M9 M9 M9 M9 M9 M9 M9 M9 M9 M9 M9 M9 M9 M9 M9 M9 M9 M9 M9 M9 M9 M9 M9 M9 M9 M9 M9 M9 M9 M9 M9 M9 M9 M9 M9 M9 M9 M9 M9 M9 M9 M9 M9 M9 M9 M9 M9 M9 M9 M9 M9 M9 M9 M9 M9 M9   O: O: O: O: O: O: O: O: O: O: O: O: O: O: O: O: O: O: O: O: O: O: O: O: O: O: O: O: O: O: O: O: O: O: O: O: O: O: O: O: O: O: O: O: O: O: O: O: O: O: O: O: O: O: O: O: O: O: O: O: O: O: O: O: O: O: O: O: O: O: O: O: O: O: O: O: O: O: O: O: O: O: O: O: O: O: O: O: O: O: O: O: O: O: O: O: O: O: O: O: O: O: O: O: O: O: O: O: O: O: O: O: O: O: O: O: O: O: O: O: O: O: O: O: O: O: O: O: O: O: O: O: O: O: O: O: O: O: O: O: O: O: O: O: O: O: O: O: O: O: O: O: O: O: O: O: O: O: O: O: O: O: O: O: O: O: O: O: O: O: O: O: O: O: O: O: O: O: : M: M: M: M: M: M: M: M: M: M: M: M: M: M: M: M: M: M: M: M: M: M: M: M: M: M: M: M: M: M: M: M: M: M: M: M: M: M: M: M: M: M: M: M: M: M: M: M: M: M: M: M: M: M: M: M: M: M: M: M: M: M: M: M: M: M: M: M: M: M: M: M: M: M: M: M: M: M: M: M: M: M: M: M: M: M: M: M: M: M: M: M: M: M: M: M: M: M: M: M: M: M: M: M: M: M: M: M: M: M: M: M: M: M: M: M: M: M: M: M: M: M: M: M: M: M: M: M: M: M: M: M: M: M: M: M: M: M: M: M: M: M: M: M: M: M: M: M: M: M: M: M: M: M: M: M: M: M: M: M: M: M: M: M: M: M: M: M: M: M: M: M: M: M: M: M: M: M: :  L7 L7 L7 L7 L7 L7 L7 L7 L7 L7 L7 L7 L7 L7 L7 L7 L7 L7 L7 L7 L7 L7 L7 L7 L7 L7 L7 L7 L7 L7 L7 L7 L7 L7 L7 L7 L7 L7 L7 L7 L7 L7 L7 L7 L7 L7 L7 L7 L7 L7 L7 L7 L7 L7 L7 L7 L7 L7 L7 L7 L7 L7 L7 L7 L7 L7 L7 L7 L7 L7 L7 L7 L7 L7 L7 L7 L7 L7 L7 L7 L7 L7 L7 L7 L7 L7 L7 L7 L7 L7 L7 L7 L7 L7 L7 L7 L7 L7 L7 L7 L7 L7 L7 L7 L7 L7 L7 L7 L7 L7 L7 L7 L7 L7 L7 L7 L7 L7 L7 L7 L7 L7 L7 L7 L7 L7 L7 L7 L7 L7 L7 L7 L7 L7 L7 L7 L7 L7 L7 L7 L7 L7 L7 L7 L7 L7 L7 L7 L7 L7 L7 L7 L7 L7 L7 L7 L7 L7 L7 L7 L7 L7 L7 L7 L7 L7 L7 L7 L7 L7 L7 L7 L7 L7 L7 L7 L7 L7 7 7 M7 M7 M7 M7 M7 M7 M7 M7 M7 M7 M7 M7 M7 M7 M7 M7 M7 M7 M7 M7 M7 M7 M7 M7 M7 M7 M7 M7 M7 M7 M7 M7 M7 M7 M7 M7 M7 M7 M7 M7 M7 M7 M7 M7 M7 M7 M7 M7 M7 M7 M7 M7 M7 M7 M7 M7 M7 M7 M7 M7 M7 M7 M7 M7 M7 M7 M7 M7 M7 M7 M7 M7 M7 M7 M7 M7 M7 M7 M7 M7 M7 M7 M7 M7 M7 M7 M7 M7 M7 M7 M7 M7 M7 M7 M7 M7 M7 M7 M7 M7 M7 M7 M7 M7 M7 M7 M7 M7 M7 M7 M7 M7 M7 M7 M7 M7 M7 M7 M7 M7 M7 M7 M7 M7 M7 M7 M7 M7 M7 M7 M7 M7 M7 M7 M7 M7 M7 M7 M7 M7 M7 M7 M7 M7 M7 M7 M7 M7 M7 M7 M7 M7 M7 M7 M7 M7 M7 M7 M7 M7 M7 M7 M7 M7 M7 M7 M7 M7 M7 M7 M7 M7 M7 M7 M7 M7 M7 M7   O4 O4 O4 O4 O4 O4 O4 O4 O4 O4 O4 O4 O4 O4 O4 O4 O4 O4 O4 O4 O4 O4 O4 O4 O4 O4 O4 O4 O4 O4 O4 O4 O4 O4 O4 O4 O4 O4 O4 O4 O4 O4 O4 O4 O4 O4 O4 O4 O4 O4 O4 O4 O4 O4 O4 O4 O4 O4 O4 O4 O4 O4 O4 O4 O4 O4 O4 O4 O4 O4 O4 O4 O4 O4 O4 O4 O4 O4 O4 O4 O4 O4 O4 O4 O4 O4 O4 O4 O4 O4 O4 O4 O4 O4 O4 O4 O4 O4 O4 O4 O4 O4 O4 O4 O4 O4 O4 O4 O4 O4 O4 O4 O4 O4 O4 O4 O4 O4 O4 O4 O4 O4 O4 O4 O4 O4 O4 O4 O4 O4 O4 O4 O4 O4 O4 O4 O4 O4 O4 O4 O4 O4 O4 O4 O4 O4 O4 O4 O4 O4 O4 O4 O4 O4 O4 O4 O4 O4 O4 O4 O4 O4 O4 O4 O4 O4 O4 O4 O4 O4 O4 O4 O4 O4 O4 O4 O4 O4 4 4 L4 L4 L4 L4 L4 L4 L4 L4 L4 L4 L4 L4 L4 L4 L4 L4 L4 L4 L4 L4 L4 L4 L4 L4 L4 L4 L4 L4 L4 L4 L4 L4 L4 L4 L4 L4 L4 L4 L4 L4 L4 L4 L4 L4 L4 L4 L4 L4 L4 L4 L4 L4 L4 L4 L4 L4 L4 L4 L4 L4 L4 L4 L4 L4 L4 L4 L4 L4 L4 L4 L4 L4 L4 L4 L4 L4 L4 L4 L4 L4 L4 L4 L4 L4 L4 L4 L4 L4 L4 L4 L4 L4 L4 L4 L4 L4 L4 L4 L4 L4 L4 L4 L4 L4 L4 L4 L4 L4 L4 L4 L4 L4 L4 L4 L4 L4 L4 L4 L4 L4 L4 L4 L4 L4 L4 L4 L4 L4 L4 L4 L4 L4 L4 L4 L4 L4 L4 L4 L4 L4 L4 L4 L4 L4 L4 L4 L4 L4 L4 L4 L4 L4 L4 L4 L4 L4 L4 L4 L4 L4 L4 L4 L4 L4 L4 L4 L4 L4 L4 L4 L4 L4 L4 L4 L4 L4 L4 L4  I- I- I- I- I- I- I- I- I- I- I- I- I- I- I- I- I- I- I- I- I- I- I- I- I- I- I- I- I- I- I- I- I- I- I- I- I- I- I- I- I- I- I- I- I- I- I- I- I- I- I- I- I- I- I- I- I- I- I- I- I- I- I- I- I- I- I- I- I- I- I- I- I- I- I- I- I- I- I- I- I- I- I- I- I- I- I- I- I- I- I- I- I- I- I- I- I- I- I- I- I- I- I- I- I- I- I- I- I- I- I- I- I- I- I- I- I- I- I- I- I- I- I- I- I- I- I- I- I- I- I- I- I- I- I- I- I- I- I- I- I- I- I- I- I- I- I- I- I- I- I- I- I- I- I- I- I- I- I- I- I- I- I- I- I- I- I- I- I- I- I- I- I- I- I- I- I- I- - - E- E- E- E- E- E- E- E- E- E- E- E- E- E- E- E- E- E- E- E- E- E- E- E- E- E- E- E- E- E- E- E- E- E- E- E- E- E- E- E- E- E- E- E- E- E- E- E- E- E- E- E- E- E- E- E- E- E- E- E- E- E- E- E- E- E- E- E- E- E- E- E- E- E- E- E- E- E- E- E- E- E- E- E- E- E- E- E- E- E- E- E- E- E- E- E- E- E- E- E- E- E- E- E- E- E- E- E- E- E- E- E- E- E- E- E- E- E- E- E- E- E- E- E- E- E- E- E- E- E- E- E- E- E- E- E- E- E- E- E- E- E- E- E- E- E- E- E- E- E- E- E- E- E- E- E- E- E- E- E- E- E- E- E- E- E- E- E- E- E- E- E- E- E- E- E- E- E-   O/ O/ O/ O/ O/ O/ O/ O/ O/ O/ O/ O/ O/ O/ O/ O/ O/ O/ O/ O/ O/ O/ O/ O/ O/ O/ O/ O/ O/ O/ O/ O/ O/ O/ O/ O/ O/ O/ O/ O/ O/ O/ O/ O/ O/ O/ O/ O/ O/ O/ O/ O/ O/ O/ O/ O/ O/ O/ O/ O/ O/ O/ O/ O/ O/ O/ O/ O/ O/ O/ O/ O/ O/ O/ O/ O/ O/ O/ O/ O/ O/ O/ O/ O/ O/ O/ O/ O/ O/ O/ O/ O/ O/ O/ O/ O/ O/ O/ O/ O/ O/ O/ O/ O/ O/ O/ O/ O/ O/ O/ O/ O/ O/ O/ O/ O/ O/ O/ O/ O/ O/ O/ O/ O/ O/ O/ O/ O/ O/ O/ O/ O/ O/ O/ O/ O/ O/ O/ O/ O/ O/ O/ O/ O/ O/ O/ O/ O/ O/ O/ O/ O/ O/ O/ O/ O/ O/ O/ O/ O/ O/ O/ O/ O/ O/ O/ O/ O/ O/ O/ O/ O/ O/ O/ O/ O/ O/ O/ / / M/ M/ M/ M/ M/ M/ M/ M/ M/ M/ M/ M/ M/ M/ M/ M/ M/ M/ M/ M/ M/ M/ M/ M/ M/ M/ M/ M/ M/ M/ M/ M/ M/ M/ M/ M/ M/ M/ M/ M/ M/ M/ M/ M/ M/ M/ M/ M/ M/ M/ M/ M/ M/ M/ M/ M/ M/ M/ M/ M/ M/ M/ M/ M/ M/ M/ M/ M/ M/ M/ M/ M/ M/ M/ M/ M/ M/ M/ M/ M/ M/ M/ M/ M/ M/ M/ M/ M/ M/ M/ M/ M/ M/ M/ M/ M/ M/ M/ M/ M/ M/ M/ M/ M/ M/ M/ M/ M/ M/ M/ M/ M/ M/ M/ M/ M/ M/ M/ M/ M/ M/ M/ M/ M/ M/ M/ M/ M/ M/ M/ M/ M/ M/ M/ M/ M/ M/ M/ M/ M/ M/ M/ M/ M/ M/ M/ M/ M/ M/ M/ M/ M/ M/ M/ M/ M/ M/ M/ M/ M/ M/ M/ M/ M/ M/ M/ M/ M/ M/ M/ M/ M/ M/ M/ M/ M/ M/ M/   L1 L1 L1 L1 L1 L1 L1 L1 L1 L1 L1 L1 L1 L1 L1 L1 L1 L1 L1 L1 L1 L1 L1 L1 L1 L1 L1 L1 L1 L1 L1 L1 L1 L1 L1 L1 L1 L1 L1 L1 L1 L1 L1 L1 L1 L1 L1 L1 L1 L1 L1 L1 L1 L1 L1 L1 L1 L1 L1 L1 L1 L1 L1 L1 L1 L1 L1 L1 L1 L1 L1 L1 L1 L1 L1 L1 L1 L1 L1 L1 L1 L1 L1 L1 L1 L1 L1 L1 L1 L1 L1 L1 L1 L1 L1 L1 L1 L1 L1 L1 L1 L1 L1 L1 L1 L1 L1 L1 L1 L1 L1 L1 L1 L1 L1 L1 L1 L1 L1 L1 L1 L1 L1 L1 L1 L1 L1 L1 L1 L1 L1 L1 L1 L1 L1 L1 L1 L1 L1 L1 L1 L1 L1 L1 L1 L1 L1 L1 L1 L1 L1 L1 L1 L1 L1 L1 L1 L1 L1 L1 L1 L1 L1 L1 L1 L1 L1 L1 L1 L1 L1 L1 L1 L1 L1 L1 L1 L1 1 1 M1 M1 M1 M1 M1 M1 M1 M1 M1 M1 M1 M1 M1 M1 M1 M1 M1 M1 M1 M1 M1 M1 M1 M1 M1 M1 M1 M1 M1 M1 M1 M1 M1 M1 M1 M1 M1 M1 M1 M1 M1 M1 M1 M1 M1 M1 M1 M1 M1 M1 M1 M1 M1 M1 M1 M1 M1 M1 M1 M1 M1 M1 M1 M1 M1 M1 M1 M1 M1 M1 M1 M1 M1 M1 M1 M1 M1 M1 M1 M1 M1 M1 M1 M1 M1 M1 M1 M1 M1 M1 M1 M1 M1 M1 M1 M1 M1 M1 M1 M1 M1 M1 M1 M1 M1 M1 M1 M1 M1 M1 M1 M1 M1 M1 M1 M1 M1 M1 M1 M1 M1 M1 M1 M1 M1 M1 M1 M1 M1 M1 M1 M1 M1 M1 M1 M1 M1 M1 M1 M1 M1 M1 M1 M1 M1 M1 M1 M1 M1 M1 M1 M1 M1 M1 M1 M1 M1 M1 M1 M1 M1 M1 M1 M1 M1 M1 M1 M1 M1 M1 M1 M1 M1 M1 M1 M1 M1 M1  O2 O2 O2 O2 O2 O2 O2 O2 O2 O2 O2 O2 O2 O2 O2 O2 O2 O2 O2 O2 O2 O2 O2 O2 O2 O2 O2 O2 O2 O2 O2 O2 O2 O2 O2 O2 O2 O2 O2 O2 O2 O2 O2 O2 O2 O2 O2 O2 O2 O2 O2 O2 O2 O2 O2 O2 O2 O2 O2 O2 O2 O2 O2 O2 O2 O2 O2 O2 O2 O2 O2 O2 O2 O2 O2 O2 O2 O2 O2 O2 O2 O2 O2 O2 O2 O2 O2 O2 O2 O2 O2 O2 O2 O2 O2 O2 O2 O2 O2 O2 O2 O2 O2 O2 O2 O2 O2 O2 O2 O2 O2 O2 O2 O2 O2 O2 O2 O2 O2 O2 O2 O2 O2 O2 O2 O2 O2 O2 O2 O2 O2 O2 O2 O2 O2 O2 O2 O2 O2 O2 O2 O2 O2 O2 O2 O2 O2 O2 O2 O2 O2 O2 O2 O2 O2 O2 O2 O2 O2 O2 O2 O2 O2 O2 O2 O2 O2 O2 O2 O2 O2 O2 O2 O2 O2 O2 O2 O2 2 2 M2 M2 M2 M2 M2 M2 M2 M2 M2 M2 M2 M2 M2 M2 M2 M2 M2 M2 M2 M2 M2 M2 M2 M2 M2 M2 M2 M2 M2 M2 M2 M2 M2 M2 M2 M2 M2 M2 M2 M2 M2 M2 M2 M2 M2 M2 M2 M2 M2 M2 M2 M2 M2 M2 M2 M2 M2 M2 M2 M2 M2 M2 M2 M2 M2 M2 M2 M2 M2 M2 M2 M2 M2 M2 M2 M2 M2 M2 M2 M2 M2 M2 M2 M2 M2 M2 M2 M2 M2 M2 M2 M2 M2 M2 M2 M2 M2 M2 M2 M2 M2 M2 M2 M2 M2 M2 M2 M2 M2 M2 M2 M2 M2 M2 M2 M2 M2 M2 M2 M2 M2 M2 M2 M2 M2 M2 M2 M2 M2 M2 M2 M2 M2 M2 M2 M2 M2 M2 M2 M2 M2 M2 M2 M2 M2 M2 M2 M2 M2 M2 M2 M2 M2 M2 M2 M2 M2 M2 M2 M2 M2 M2 M2 M2 M2 M2 M2 M2 M2 M2 M2 M2 M2 M2 M2 M2 M2 M2   L& L& L& L& L& L& L& L& L& L& L& L& L& L& L& L& L& L& L& L& L& L& L& L& L& L& L& L& L& L& L& L& L& L& L& L& L& L& L& L& L& L& L& L& L& L& L& L& L& L& L& L& L& L& L& L& L& L& L& L& L& L& L& L& L& L& L& L& L& L& L& L& L& L& L& L& L& L& L& L& L& L& L& L& L& L& L& L& L& L& L& L& L& L& L& L& L& L& L& L& L& L& L& L& L& L& L& L& L& L& L& L& L& L& L& L& L& L& L& L& L& L& L& L& L& L& L& L& L& L& L& L& L& L& L& L& L& L& L& L& L& L& L& L& L& L& L& L& L& L& L& L& L& L& L& L& L& L& L& L& L& L& L& L& L& L& L& L& L& L& L& L& L& L& L& L& L& L& & & J& J& J& J& J& J& J& J& J& J& J& J& J& J& J& J& J& J& J& J& J& J& J& J& J& J& J& J& J& J& J& J& J& J& J& J& J& J& J& J& J& J& J& J& J& J& J& J& J& J& J& J& J& J& J& J& J& J& J& J& J& J& J& J& J& J& J& J& J& J& J& J& J& J& J& J& J& J& J& J& J& J& J& J& J& J& J& J& J& J& J& J& J& J& J& J& J& J& J& J& J& J& J& J& J& J& J& J& J& J& J& J& J& J& J& J& J& J& J& J& J& J& J& J& J& J& J& J& J& J& J& J& J& J& J& J& J& J& J& J& J& J& J& J& J& J& J& J& J& J& J& J& J& J& J& J& J& J& J& J& J& J& J& J& J& J& J& J& J& J& J& J& J& J& J& J& J& J&   Q> Q> Q> Q> Q> Q> Q> Q> Q> Q> Q> Q> Q> Q> Q> Q> Q> Q> Q> Q> Q> Q> Q> Q> Q> Q> Q> Q> Q> Q> Q> Q> Q> Q> Q> Q> Q> Q> Q> Q> Q> Q> Q> Q> Q> Q> Q> Q> Q> Q> Q> Q> Q> Q> Q> Q> Q> Q> Q> Q> Q> Q> Q> Q> Q> Q> Q> Q> Q> Q> Q> Q> Q> Q> Q> Q> Q> Q> Q> Q> Q> Q> Q> Q> Q> Q> Q> Q> Q> Q> Q> Q> Q> Q> Q> Q> Q> Q> Q> Q> Q> Q> Q> Q> Q> Q> Q> Q> Q> Q> Q> Q> Q> Q> Q> Q> Q> Q> Q> Q> Q> Q> Q> Q> Q> Q> Q> Q> Q> Q> Q> Q> Q> Q> Q> Q> Q> Q> Q> Q> Q> Q> Q> Q> Q> Q> Q> Q> Q> Q> Q> Q> Q> Q> Q> Q> Q> Q> Q> Q> Q> Q> Q> Q> Q> Q> Q> Q> Q> Q> Q> Q> Q> Q> Q> Q> Q> Q> Q> Q> Q> Q> Q> Q> Q> Q> Q> Q> Q> Q> Q> Q> Q> Q> Q> Q> Q> Q> Q> Q> Q> Q> Q> Q> Q> Q> Q> Q> Q> Q> Q> Q> Q> Q> Q> Q> Q> Q> Q> Q> Q> Q> Q> Q> Q> Q> Q> Q> Q> Q> Q> Q> Q> Q> Q> Q> Q> Q> Q> Q> Q> Q> Q> Q> Q> Q> Q> Q> Q> Q> Q> Q> Q> Q> Q> Q> Q> Q> Q> Q> Q> Q> Q> Q> Q> Q> Q> Q> Q> Q> Q> Q> Q> Q> Q> Q> Q> Q> Q> Q> Q> Q> Q> Q> Q> Q> Q> Q> Q> Q> Q> Q> Q> Q> Q> Q> Q> Q> Q> Q> Q> Q> Q> Q> Q> Q> Q> Q> Q> Q> Q> Q> Q> Q> Q> Q> Q> Q> Q> Q> Q> Q> Q> Q> Q> Q> Q> Q> Q> Q> Q> Q> Q> Q> Q> Q> Q> Q> Q> Q> Q> Q> Q> Q> Q> Q> Q> Q> Q> Q> Q> Q> Q> Q> Q> Q> Q> Q>  AQ AQ AQ AQ AQ AQ AQ AQ AQ AQ AQ AQ AQ AQ AQ AQ AQ AQ AQ AQ AQ AQ AQ AQ AQ AQ AQ AQ AQ AQ AQ AQ AQ AQ AQ AQ AQ AQ AQ AQ AQ AQ AQ AQ AQ AQ AQ AQ AQ AQ AQ AQ AQ AQ AQ AQ AQ AQ AQ AQ AQ AQ AQ AQ AQ AQ AQ AQ AQ AQ AQ AQ AQ AQ AQ AQ AQ AQ AQ AQ AQ AQ AQ AQ AQ AQ AQ AQ AQ AQ AQ AQ AQ AQ AQ AQ AQ AQ AQ AQ AQ AQ AQ AQ AQ AQ AQ AQ AQ AQ AQ AQ AQ AQ AQ AQ AQ AQ AQ AQ AQ AQ AQ AQ AQ AQ AQ AQ AQ AQ AQ AQ AQ AQ AQ AQ AQ AQ AQ AQ AQ AQ AQ AQ AQ AQ AQ AQ AQ AQ AQ AQ AQ AQ AQ AQ AQ AQ AQ AQ AQ AQ AQ AQ AQ AQ AQ AQ AQ AQ AQ AQ AQ AQ AQ AQ AQ AQ Q Q @Q @Q @Q @Q @Q @Q @Q @Q @Q @Q @Q @Q @Q @Q @Q @Q @Q @Q @Q @Q @Q @Q @Q @Q @Q @Q @Q @Q @Q @Q @Q @Q @Q @Q @Q @Q @Q @Q @Q @Q @Q @Q @Q @Q @Q @Q @Q @Q @Q @Q @Q @Q @Q @Q @Q @Q @Q @Q @Q @Q @Q @Q @Q @Q @Q @Q @Q @Q @Q @Q @Q @Q @Q @Q @Q @Q @Q @Q @Q @Q @Q @Q @Q @Q @Q @Q @Q @Q @Q @Q @Q @Q @Q @Q @Q @Q @Q @Q @Q @Q @Q @Q @Q @Q @Q @Q @Q @Q @Q @Q @Q @Q @Q @Q @Q @Q @Q @Q @Q @Q @Q @Q @Q @Q @Q @Q @Q @Q @Q @Q @Q @Q @Q @Q @Q @Q @Q @Q @Q @Q @Q @Q @Q @Q @Q @Q @Q @Q @Q @Q @Q @Q @Q @Q @Q @Q @Q @Q @Q @Q @Q @Q @Q @Q @Q @Q @Q @Q @Q @Q @Q @Q @Q @Q @Q @Q @Q @Q   RA RA RA RA RA RA RA RA RA RA RA RA RA RA RA RA RA RA RA RA RA RA RA RA RA RA RA RA RA RA RA RA RA RA RA RA RA RA RA RA RA RA RA RA RA RA RA RA RA RA RA RA RA RA RA RA RA RA RA RA RA RA RA RA RA RA RA RA RA RA RA RA RA RA RA RA RA RA RA RA RA RA RA RA RA RA RQA QA QA QA QA QA QA QA QA QA QA QA QA QA QA QA QA QA QA QA QA QA QA QA QA QA QA QA QA QA QA QA QA QA QA QA QA QA QA QA QA QA QA QA QA QA QA QA QA QA QA QA QA QA QA QA QA QA QA QA QA QA QA QA QA QA QA QA QA QA QA QA QRA QRA QRA QRA QRA QRA QRA QRA QRA QRA QRA QRA QRA QRA QRA RA RA RA RA RA RA RA RA RA RA RA RA RA RA RA RA RA RA RA RA RA RA RA RA RA RA RA RA RA RA RA RA RA RA RA RA RA RA RA RA RA RA RA RA RA RA RA RA RA RA RA RA RA RA RA RA RA RQA RQA RQA RQA RQA RQA RQA RQA RQA RQA RQA RQA RQA RQA RQA QA QA QA QA QA QA QA QA QA QA QA QA QA QA QA QA QA QA QA QA QA QA QA QA QA QA QA QA QA QA QA QA QA QA QA QA QA QA QA QA QA QA QA QA QA QA QA QA QA QA QA QA QA QA QA QA QA QAR QAR QAR QAR QAR QAR QAR QAR QAR QAR QAR QAR QAR QAR QAR AR AR AR AR AR AR AR AR AR AR AR AR AR AR AR AR AR AR AR AR AR AR AR AR AR AR AR AR AR AR AR AR AR AR AR AR AR R R R> R> R> R> R> R> R> R> R> R> R> R> R> R> R> R> R> R> R> R> RQ> RQ> RQ> RQ> RQ> RQ> RQ> RQ> RQ> RQ> RQ> RQ> RQ> Q> Q> Q> Q> Q> Q> Q> Q> Q> Q> Q> Q> Q> Q> Q> Q> Q> Q> Q> Q> Q> Q> Q> Q> Q> Q> Q> Q> Q> Q> Q> Q> Q> Q> Q> Q> Q> Q> Q> Q> Q> Q> Q> Q> Q> Q> Q> Q> Q> Q> Q> Q> Q> Q> Q> Q> Q> Q> Q> Q> Q>R Q>R Q>R Q>R Q>R Q>R Q>R Q>R Q>R Q>R Q>R Q>R Q>R Q>R >R >R >R >R >R >R >R >R >R >R >R >R >R >R >R >R >R >R >R >R >R >R >R >R >R >R >R >R >R >R >R >R >R >R >R >R >R >R >R >R >R >R >R >R >R >R >R >R >R >R >R >R >R >R >R >R >R >R >R >R >RQ >RQ >RQ >RQ >RQ >RQ >RQ >RQ >RQ RQ RQ RQ RQ9 Q9 Q9 Q9 Q9 Q9 Q9 Q9 Q9 Q9 Q9 Q9 Q9 Q9 Q9 Q9 Q9 Q9 Q9 Q9 Q9 Q9 Q9 Q9 Q9 Q9 Q9 Q9 Q9 Q9 Q9 Q9 Q9 Q9 Q9 Q9 Q9 Q9 Q9 Q9 Q9 Q9 Q9 Q9 Q9 Q9 Q9 Q9 Q9 Q9 Q9 Q9 Q9 Q9 Q9 Q9 Q9 Q9 Q9 Q9 Q9 Q9 QR9 QR9 QR9 QR9 QR9 QR9 QR9 QR9 QR9 QR9 QR9 QR9 QR9 R9 R9 R9 R9 R9 R9 R9 R9 R9 R9 R9 R9 R9 R9 R9 R9 R9 R9 R9 R9 R9 R9 R9 R9 R9 R9 R9 R9 R9 R9 R9 R9 R9 R9 R9 R9 R9 R9 R9 R9 R9 R9 R9 R9 R9 R9 R9 R9 R9 R9 R9 R9 R9 R9 R9 R9 R9 R9 R9 R9Q R9Q R9Q R9Q R9Q R9Q R9Q R9Q R9Q R9Q R9Q R9Q R9Q R9Q R9Q 9Q 9Q 9Q 9Q 9Q 9Q 9Q 9Q 9Q 9Q 9Q 9Q 9Q 9Q 9Q 9Q 9Q 9Q 9Q 9Q 9Q 9Q 9Q 9Q 9Q 9Q 9Q Q Q Q@ Q@ Q@ Q@ Q@ Q@ Q@ Q@ Q@ Q@ Q@ Q@ Q@ Q@ Q@ Q@ Q@ Q@ Q@ Q@ Q@ Q@ Q@ Q@ Q@ Q@ Q@ Q@ Q@ Q@ QR@ QR@ QR@ QR@ QR@ QR@ QR@ QR@ QR@ QR@ QR@ QR@ QR@ R@ R@ R@ R@ R@ R@ R@ R@ R@ R@ R@ R@ R@ R@ R@ R@ R@ R@ R@ R@ R@ R@ R@ R@ R@ R@ R@ R@ R@ R@ R@ R@ R@ R@ R@ R@ R@ R@ R@ R@ R@ R@ R@ R@ R@ R@ R@ R@ R@ R@ R@ R@ R@ R@ R@ R@ R@ R@ R@ R@ RQ@ RQ@ RQ@ RQ@ RQ@ RQ@ RQ@ RQ@ RQ@ RQ@ RQ@ RQ@ RQ@ RQ@ Q@ Q@ Q@ Q@ Q@ Q@ Q@ Q@ Q@ Q@ Q@ Q@ Q@ Q@ Q@ Q@ Q@ Q@ Q@ Q@ Q@ Q@ Q@ Q@ Q@ Q@ Q@ Q@ Q@ Q@ Q@ Q@ Q@ Q@ Q@ Q@ Q@ Q@ Q@ Q@ Q@ Q@ Q@ Q@ Q@ Q@ Q@ Q@ Q@ Q@ Q@ Q@ Q@ Q@ Q@ Q@ Q@ Q@ Q@ Q@ QR@ QR@ QR@ QR@ QR@ QR@ QR@ QR@ QR@ QR@ QR@ QR@ QR@ R@ R@ R@ R@ R@ R@ R@ R@ R@ R@ R@ R@ R@ R@ R@ R@ R@ R@ R@ R@ R@ R@ R@ R@ R@ R@ R@ R@ R@ R@ R@ R@ R@ R@ R@ R@ R@ R@ R@ R@ R@ R@ R@ R@ R@ R@ R@ R@ R@ R@ R@ R@ R@ R@ R@ R@ R@ R@ R@ R@ RQ@ RQ@ RQ@ RQ@ RQ@ RQ@ RQ@ RQ@ RQ@ RQ@ RQ@ RQ@ RQ@ RQ@ Q@ Q@ Q@ Q@ Q@ Q@ Q@ Q@ Q@ Q@ Q@ Q@ Q@ Q@ Q@ Q@ Q@ Q@ Q@ Q@ Q@ Q@ Q@ Q@ Q@ Q@ Q@ Q@ Q@ Q@ Q@ Q@ Q@ Q@ Q@ Q@ Q@ Q@ Q@ Q@ Q@ Q@ Q@ Q@ Q@ Q@ Q@ Q@ Q@ Q@ Q@ Q@ Q@ Q@ Q@ Q@ Q@ Q@ Q@R Q@R Q@R Q@R Q@R Q@R Q@R Q@R Q@R Q@R Q@R Q@R Q@R Q@R Q@R @R @R @R @R @R @R @R @R @R @R @R @R @R @R @R @R @R R R R= R= R= R= R= R= R= R= R= R= R= R= R= R= R= R= R= R= R= R= R= R= R= R= R= R= R= R= R= R= R= R= R= R= R= R= R= R= R= R= RQ= RQ= RQ= RQ= RQ= RQ= RQ= RQ= RQ= RQ= RQ= RQ= RQ= Q= Q= Q= Q= Q= Q= Q= Q= Q= Q= Q= Q= Q= Q= Q= Q= Q= Q= Q= Q= Q= Q= Q= Q= Q= Q= Q= Q= Q= Q= Q= Q= Q= Q= Q= Q= Q= Q= Q= Q= Q= Q= Q= Q= Q= Q= Q= Q= Q= Q= Q= Q= Q= Q= Q= Q= Q= Q= Q= Q= Q=R Q=R Q=R Q=R Q=R Q=R Q=R Q=R Q=R Q=R Q=R Q=R Q=R Q=R =R =R =R =R =R =R =R =R =R =R =R =R =R =R =R =R =R =R =R =R =R =R =R =R =R =R =R =R =R =R =R =R =R =R =R =R =R =R =R =R =R =R =R =R =R =R =R =R =R R R R9 R9 R9 R9 R9 R9 R9 R9 R9 R9 R9Q R9Q R9Q R9Q R9Q R9Q R9Q R9Q R9Q R9Q R9Q R9Q 9Q 9Q 9Q 9Q 9Q 9Q 9Q 9Q 9Q 9Q 9Q 9Q 9Q 9Q 9Q 9Q 9Q 9Q 9Q 9Q 9Q 9Q 9Q 9Q 9Q 9Q 9Q 9Q 9Q 9Q 9Q 9Q 9Q 9Q 9Q 9Q 9Q 9Q 9Q 9Q 9Q 9Q 9Q 9Q 9Q 9Q 9Q 9Q 9Q 9Q 9Q 9Q 9Q 9Q 9Q 9Q 9Q 9Q 9Q 9Q 9Q 9Q 9Q 9Q 9Q 9Q 9Q 9Q 9Q 9Q 9Q 9Q 9Q 9Q 9Q 9Q 9Q 9Q 9Q 9Q 9Q 9Q 9Q 9Q 9Q 9Q 9Q 9Q 9Q 9Q 9Q 9Q 9Q 9Q 9Q 9Q 9Q 9Q 9Q 9Q 9Q 9Q 9Q 9Q 9Q 9Q 9Q 9Q 9Q 9Q 9Q 9Q 9Q 9Q 9Q 9Q 9Q 9Q 9Q 9Q 9Q 9Q 9Q 9Q 9Q 9Q 9Q 9Q 9Q 9Q 9Q 9Q 9Q 9Q 9Q 9Q 9Q 9Q 9Q 9Q 9Q 9Q 9Q 9Q 9Q 9Q 9Q 9Q 9Q 9Q 9Q 9Q 9Q 9Q Q Q Q Q> Q> Q> Q> Q> Q> Q> Q> Q> Q> Q> Q> Q> Q> Q> Q> Q> Q> Q> Q> Q> Q> Q> Q> Q> Q> Q> Q> Q> Q> Q> Q> Q> Q> Q> Q> Q> Q> Q> Q> Q> Q> Q> Q> Q> Q> Q> Q> Q> Q> Q> Q> Q> Q> Q> Q> Q> Q> Q> Q> Q> Q> Q> Q> Q> Q> Q> Q> Q> Q> Q> Q> Q> Q> Q> Q> Q> Q> Q> Q> Q> Q> Q> Q> Q> Q> Q> Q> Q> Q> Q> Q> Q> Q> Q> Q> Q> Q> > > > > > > > > > > > > > > > > > > > > > > > > > > > > > > > > > > > > > > > > > > > > > > > > > > > > > > > > > > > > > > > > > > > > > > > > > > > > > > > > > M> M> M> M> M> M> M> M> M> M> M> M> M> M> M> M> M> M> M> M> M> M> M> M> M> M> M> M> M> M> M> M> M> M> M> M> M> M> M> M> M> M> M> M> M> M> M> M> M> M> M> M> M> M> M> M> M> M> M> M> M> M> M> M> M> M> M> M> M> M> M> M> M> M> M> M> M> M> M> M> M> M> M> M> M> M> M> M> M> M> M> M> M> M> M> M> M> M> M> M> M> M> M> M> M> M> M> M> M> M> M> M> M> M> M> M> M> M> M> M> M> M> M> M> M> M> M> M> M> M> M> M> M> M> M> M> M> M> M> M> M> M> M> M> M> M> M> M> M> M> M> M> M> M> M> M> M> M> M> M> M> M> M> M> M> M> M> M> M> M> M> M> M> M> M> M> M> M> > > O> O> O> O> O> O> O> O> O> O> O> O> O> O> O> O> O> O> O> O> O> O> O> O> O> O> O> O> O> O> O> O> O> O> O> O> O> O> O> O> O> O> O> O> O> O> O> O> O> O> O> O> O> O> O> O> O> O> O> O> O> O> O> O> O> O> O> O> O> O> O> O> O> O> O> O> O> O> O> O> O> O> O> O> O> O> O> O> O> O> O> O> O> O> O> O> O> O> O> O> O> O> O> O> O> O> O> O> O> O> O> O> O> O> O> O> O> O> O> O> O> O> O> O> O> O> O> O> O> O> O> O> O> O> O> O> O> O> O> O> O> O> O> O> O> O> O> O> O> O> O> O> O> O> O> O> O> O> O> O> O> O> O> O> O> O> O> O> O> O> O> O> O> O> O> O> O> O> > > Q> Q> Q> Q> Q> Q> Q> Q> Q> Q> Q> Q> Q> Q> Q> Q> Q> Q> Q> Q> Q> Q> Q> Q> Q> Q> Q> Q> Q> Q> Q> Q> Q> Q> Q> Q> Q> Q> Q> Q> Q> Q> Q> Q> Q> Q> Q> Q> Q> Q> Q> Q> Q> Q> Q> Q> Q> Q> Q> Q> Q> Q> Q> Q> Q> Q> Q> Q> Q> Q> Q> Q> Q> Q> Q> Q> Q> Q> Q> Q> Q> Q> Q> Q> Q> Q> Q> Q> Q> Q> Q> Q> Q> Q> Q> Q> Q> Q> Q> Q> Q> Q> Q> Q> Q> Q> Q> Q> Q> Q> Q> Q> Q> Q> Q> Q> Q> Q> Q> Q> Q> Q> Q> Q> Q> Q> Q> Q> Q> Q> Q> Q> Q> Q> Q> Q> Q> Q> Q> Q> Q> Q> Q> Q> Q> Q> Q> Q> Q> Q> Q> Q> Q> Q> Q> Q> Q> Q> Q> Q> Q> Q> Q> Q> Q> Q> Q> Q> Q> Q> Q> Q> Q> Q> Q> Q> Q> Q>   R7 R7 R7 R7 R7 R7 R7 R7 R7 R7 R7 R7 R7 R7 R7 R7 R7 R7 R7 R7 R7 R7 R7 R7 R7 R7 R7 R7 R7 R7 R7 R7 R7 R7 R7 R7 R7 R7 R7 R7 R7 R7 R7 R7 R7 R7 R7 R7 R7 R7 R7 R7 R7 R7 R7 R7 R7 R7 R7 R7 R7 R7 R7 R7 R7 R7 R7 R7 R7 R7 R7 R7 R7 R7 R7 R7 R7 R7 R7 R7 R7 R7 R7 R7 R7 R7 R7 R7 R7 R7 R7 R7 R7 R7 R7 R7 R7 R7 R7 R7 R7 R7 R7 R7 R7 R7 R7 R7 R7 R7 R7 R7 R7 R7 R7 R7 R7 R7 R7 R7 R7 R7 R7 R7 R7 R7 R7 R7 R7 R7 R7 R7 R7 R7 R7 R7 R7 R7 R7 R7 R7 R7 R7 R7 R7 R7 R7 R7 R7 R7 R7 R7 R7 R7 R7 R7 R7 R7 R7 R7 R7 R7 R7 R7 R7 R7 R7 R7 R7 R7 R7 R7 R7 R7 R7 R7 R7 R7 7 7 Q7 Q7 Q7 Q7 Q7 Q7 Q7 Q7 Q7 Q7 Q7 Q7 Q7 Q7 Q7 Q7 Q7 Q7 Q7 Q7 Q7 Q7 Q7 Q7 Q7 Q7 Q7 Q7 Q7 Q7 Q7 Q7 Q7 Q7 Q7 Q7 Q7 Q7 Q7 Q7 Q7 Q7 Q7 Q7 Q7 Q7 Q7 Q7 Q7 Q7 Q7 Q7 Q7 Q7 Q7 Q7 Q7 Q7 Q7 Q7 Q7 Q7 Q7 Q7 Q7 Q7 Q7 Q7 Q7 Q7 Q7 Q7 Q7 Q7 Q7 Q7 Q7 Q7 Q7 Q7 Q7 Q7 Q7 Q7 Q7 Q7 Q7 Q7 Q7 Q7 Q7 Q7 Q7 Q7 Q7 Q7 Q7 Q7 Q7 Q7 Q7 Q7 Q7 Q7 Q7 Q7 Q7 Q7 Q7 Q7 Q7 Q7 Q7 Q7 Q7 Q7 Q7 Q7 Q7 Q7 Q7 Q7 Q7 Q7 Q7 Q7 Q7 Q7 Q7 Q7 Q7 Q7 Q7 Q7 Q7 Q7 Q7 Q7 Q7 Q7 Q7 Q7 Q7 Q7 Q7 Q7 Q7 Q7 Q7 Q7 Q7 Q7 Q7 Q7 Q7 Q7 Q7 Q7 Q7 Q7 Q7 Q7 Q7 Q7 Q7 Q7 Q7 Q7 Q7 Q7 Q7 Q7 Q7 Q7 Q7 Q7 Q7 Q7  O9 O9 O9 O9 O9 O9 O9 O9 O9 O9 O9 O9 O9 O9 O9 O9 O9 O9 O9 O9 O9 O9 O9 O9 O9 O9 O9 O9 O9 O9 O9 O9 O9 O9 O9 O9 O9 O9 O9 O9 O9 O9 O9 O9 O9 O9 O9 O9 O9 O9 O9 O9 O9 O9 O9 O9 O9 O9 O9 O9 O9 O9 O9 O9 O9 O9 O9 O9 O9 O9 O9 O9 O9 O9 O9 O9 O9 O9 O9 O9 O9 O9 O9 O9 O9 O9 O9 O9 O9 O9 O9 O9 O9 O9 O9 O9 O9 O9 O9 O9 O9 O9 O9 O9 O9 O9 O9 O9 O9 O9 O9 O9 O9 O9 O9 O9 O9 O9 O9 O9 O9 O9 O9 O9 O9 O9 O9 O9 O9 O9 O9 O9 O9 O9 O9 O9 O9 O9 O9 O9 O9 O9 O9 O9 O9 O9 O9 O9 O9 O9 O9 O9 O9 O9 O9 O9 O9 O9 O9 O9 O9 O9 O9 O9 O9 O9 O9 O9 O9 O9 O9 O9 O9 O9 O9 O9 O9 O9 9 9 M9 M9 M9 M9 M9 M9 M9 M9 M9 M9 M9 M9 M9 M9 M9 M9 M9 M9 M9 M9 M9 M9 M9 M9 M9 M9 M9 M9 M9 M9 M9 M9 M9 M9 M9 M9 M9 M9 M9 M9 M9 M9 M9 M9 M9 M9 M9 M9 M9 M9 M9 M9 M9 M9 M9 M9 M9 M9 M9 M9 M9 M9 M9 M9 M9 M9 M9 M9 M9 M9 M9 M9 M9 M9 M9 M9 M9 M9 M9 M9 M9 M9 M9 M9 M9 M9 M9 M9 M9 M9 M9 M9 M9 M9 M9 M9 M9 M9 M9 M9 M9 M9 M9 M9 M9 M9 M9 M9 M9 M9 M9 M9 M9 M9 M9 M9 M9 M9 M9 M9 M9 M9 M9 M9 M9 M9 M9 M9 M9 M9 M9 M9 M9 M9 M9 M9 M9 M9 M9 M9 M9 M9 M9 M9 M9 M9 M9 M9 M9 M9 M9 M9 M9 M9 M9 M9 M9 M9 M9 M9 M9 M9 M9 M9 M9 M9 M9 M9 M9 M9 M9 M9 M9 M9 M9 M9 M9 M9   L: L: L: L: L: L: L: L: L: L: L: L: L: L: L: L: L: L: L: L: L: L: L: L: L: L: L: L: L: L: L: L: L: L: L: L: L: L: L: L: L: L: L: L: L: L: L: L: L: L: L: L: L: L: L: L: L: L: L: L: L: L: L: L: L: L: L: L: L: L: L: L: L: L: L: L: L: L: L: L: L: L: L: L: L: L: L: L: L: L: L: L: L: L: L: L: L: L: L: L: L: L: L: L: L: L: L: L: L: L: L: L: L: L: L: L: L: L: L: L: L: L: L: L: L: L: L: L: L: L: L: L: L: L: L: L: L: L: L: L: L: L: L: L: L: L: L: L: L: L: L: L: L: L: L: L: L: L: L: L: L: L: L: L: L: L: L: L: L: L: L: L: L: L: L: L: L: L: : : J: J: J: J: J: J: J: J: J: J: J: J: J: J: J: J: J: J: J: J: J: J: J: J: J: J: J: J: J: J: J: J: J: J: J: J: J: J: J: J: J: J: J: J: J: J: J: J: J: J: J: J: J: J: J: J: J: J: J: J: J: J: J: J: J: J: J: J: J: J: J: J: J: J: J: J: J: J: J: J: J: J: J: J: J: J: J: J: J: J: J: J: J: J: J: J: J: J: J: J: J: J: J: J: J: J: J: J: J: J: J: J: J: J: J: J: J: J: J: J: J: J: J: J: J: J: J: J: J: J: J: J: J: J: J: J: J: J: J: J: J: J: J: J: J: J: J: J: J: J: J: J: J: J: J: J: J: J: J: J: J: J: J: J: J: J: J: J: J: J: J: J: J: J: J: J: J: J:   I7 I7 I7 I7 I7 I7 I7 I7 I7 I7 I7 I7 I7 I7 I7 I7 I7 I7 I7 I7 I7 I7 I7 I7 I7 I7 I7 I7 I7 I7 I7 I7 I7 I7 I7 I7 I7 I7 I7 I7 I7 I7 I7 I7 I7 I7 I7 I7 I7 I7 I7 I7 I7 I7 I7 I7 I7 I7 I7 I7 I7 I7 I7 I7 I7 I7 I7 I7 I7 I7 I7 I7 I7 I7 I7 I7 I7 I7 I7 I7 I7 I7 I7 I7 I7 I7 I7 I7 I7 I7 I7 I7 I7 I7 I7 I7 I7 I7 I7 I7 I7 I7 I7 I7 I7 I7 I7 I7 I7 I7 I7 I7 I7 I7 I7 I7 I7 I7 I7 I7 I7 I7 I7 I7 I7 I7 I7 I7 I7 I7 I7 I7 I7 I7 I7 I7 I7 I7 I7 I7 I7 I7 I7 I7 I7 I7 I7 I7 I7 I7 I7 I7 I7 I7 I7 I7 I7 I7 I7 I7 I7 I7 I7 I7 I7 I7 I7 I7 I7 I7 I7 I7 I7 I7 I7 I7 I7 I7 7 7 J7 J7 J7 J7 J7 J7 J7 J7 J7 J7 J7 J7 J7 J7 J7 J7 J7 J7 J7 J7 J7 J7 J7 J7 J7 J7 J7 J7 J7 J7 J7 J7 J7 J7 J7 J7 J7 J7 J7 J7 J7 J7 J7 J7 J7 J7 J7 J7 J7 J7 J7 J7 J7 J7 J7 J7 J7 J7 J7 J7 J7 J7 J7 J7 J7 J7 J7 J7 J7 J7 J7 J7 J7 J7 J7 J7 J7 J7 J7 J7 J7 J7 J7 J7 J7 J7 J7 J7 J7 J7 J7 J7 J7 J7 J7 J7 J7 J7 J7 J7 J7 J7 J7 J7 J7 J7 J7 J7 J7 J7 J7 J7 J7 J7 J7 J7 J7 J7 J7 J7 J7 J7 J7 J7 J7 J7 J7 J7 J7 J7 J7 J7 J7 J7 J7 J7 J7 J7 J7 J7 J7 J7 J7 J7 J7 J7 J7 J7 J7 J7 J7 J7 J7 J7 J7 J7 J7 J7 J7 J7 J7 J7 J7 J7 J7 J7 J7 J7 J7 J7 J7 J7 J7 J7 J7 J7 J7 J7  O9 O9 O9 O9 O9 O9 O9 O9 O9 O9 O9 O9 O9 O9 O9 O9 O9 O9 O9 O9 O9 O9 O9 O9 O9 O9 O9 O9 O9 O9 O9 O9 O9 O9 O9 O9 O9 O9 O9 O9 O9 O9 O9 O9 O9 O9 O9 O9 O9 O9 O9 O9 O9 O9 O9 O9 O9 O9 O9 O9 O9 O9 O9 O9 O9 O9 O9 O9 O9 O9 O9 O9 O9 O9 O9 O9 O9 O9 O9 O9 O9 O9 O9 O9 O9 O9 O9 O9 O9 O9 O9 O9 O9 O9 O9 O9 O9 O9 O9 O9 O9 O9 O9 O9 O9 O9 O9 O9 O9 O9 O9 O9 O9 O9 O9 O9 O9 O9 O9 O9 O9 O9 O9 O9 O9 O9 O9 O9 O9 O9 O9 O9 O9 O9 O9 O9 O9 O9 O9 O9 O9 O9 O9 O9 O9 O9 O9 O9 O9 O9 O9 O9 O9 O9 O9 O9 O9 O9 O9 O9 O9 O9 O9 O9 O9 O9 O9 O9 O9 O9 O9 O9 O9 O9 O9 O9 O9 O9 9 9 M9 M9 M9 M9 M9 M9 M9 M9 M9 M9 M9 M9 M9 M9 M9 M9 M9 M9 M9 M9 M9 M9 M9 M9 M9 M9 M9 M9 M9 M9 M9 M9 M9 M9 M9 M9 M9 M9 M9 M9 M9 M9 M9 M9 M9 M9 M9 M9 M9 M9 M9 M9 M9 M9 M9 M9 M9 M9 M9 M9 M9 M9 M9 M9 M9 M9 M9 M9 M9 M9 M9 M9 M9 M9 M9 M9 M9 M9 M9 M9 M9 M9 M9 M9 M9 M9 M9 M9 M9 M9 M9 M9 M9 M9 M9 M9 M9 M9 M9 M9 M9 M9 M9 M9 M9 M9 M9 M9 M9 M9 M9 M9 M9 M9 M9 M9 M9 M9 M9 M9 M9 M9 M9 M9 M9 M9 M9 M9 M9 M9 M9 M9 M9 M9 M9 M9 M9 M9 M9 M9 M9 M9 M9 M9 M9 M9 M9 M9 M9 M9 M9 M9 M9 M9 M9 M9 M9 M9 M9 M9 M9 M9 M9 M9 M9 M9 M9 M9 M9 M9 M9 M9 M9 M9 M9 M9 M9 M9   L- L- L- L- L- L- L- L- L- L- L- L- L- L- L- L- L- L- L- L- L- L- L- L- L- L- L- L- L- L- L- L- L- L- L- L- L- L- L- L- L- L- L- L- L- L- L- L- L- L- L- L- L- L- L- L- L- L- L- L- L- L- L- L- L- L- L- L- L- L- L- L- L- L- L- L- L- L- L- L- L- L- L- L- L- L- L- L- L- L- L- L- L- L- L- L- L- L- L- L- L- L- L- L- L- L- L- L- L- L- L- L- L- L- L- L- L- L- L- L- L- L- L- L- L- L- L- L- L- L- L- L- L- L- L- L- L- L- L- L- L- L- L- L- L- L- L- L- L- L- L- L- L- L- L- L- L- L- L- L- L- L- L- L- L- L- L- L- L- L- L- L- L- L- L- L- L- L- - - M- M- M- M- M- M- M- M- M- M- M- M- M- M- M- M- M- M- M- M- M- M- M- M- M- M- M- M- M- M- M- M- M- M- M- M- M- M- M- M- M- M- M- M- M- M- M- M- M- M- M- M- M- M- M- M- M- M- M- M- M- M- M- M- M- M- M- M- M- M- M- M- M- M- M- M- M- M- M- M- M- M- M- M- M- M- M- M- M- M- M- M- M- M- M- M- M- M- M- M- M- M- M- M- M- M- M- M- M- M- M- M- M- M- M- M- M- M- M- M- M- M- M- M- M- M- M- M- M- M- M- M- M- M- M- M- M- M- M- M- M- M- M- M- M- M- M- M- M- M- M- M- M- M- M- M- M- M- M- M- M- M- M- M- M- M- M- M- M- M- M- M- M- M- M- M- M- M-   &J &J &J &J &J &J &J &J &J &J &J &J &J &J &J &J &J &J &J &J &J &J &J &J &J &J &J &J &J &J &J &J &J &J &J &J &J &J &J &J &J &J &J &J &J &J &J &J &J &J &J &J &J &J &J &J &J &J &J &J &J &J &J &J &J &J &J &J &J &J &J &J &J &J &J &J &J &J &J &J &J &J &J &J &J &J &J &J &J &J &J &J &J &J &J &J &J &J &J &J &J &J &J &J &J &J &J &J &J &J &J &J &J &J &J &J &J &J &J &J &J &J &J &J &J &J &J &J &J &J &J &J &J &J &J &J &J &J &J &J &J &J &J &J &J &J &J &J &J &J &J &J &J &J &J &J &J &J &J &J &J &J &J &J &J &J &J &J &J &J &J &J &J &J &J &J &J &J J J 2J 2J 2J 2J 2J 2J 2J 2J 2J 2J 2J 2J 2J 2J 2J 2J 2J 2J 2J 2J 2J 2J 2J 2J 2J 2J 2J 2J 2J 2J 2J 2J 2J 2J 2J 2J 2J 2J 2J 2J 2J 2J 2J 2J 2J 2J 2J 2J 2J 2J 2J 2J 2J 2J 2J 2J 2J 2J 2J 2J 2J 2J 2J 2J 2J 2J 2J 2J 2J 2J 2J 2J 2J 2J 2J 2J 2J 2J 2J 2J 2J 2J 2J 2J 2J 2J 2J 2J 2J 2J 2J 2J 2J 2J 2J 2J 2J 2J 2J 2J 2J 2J 2J 2J 2J 2J 2J 2J 2J 2J 2J 2J 2J 2J 2J 2J 2J 2J 2J 2J 2J 2J 2J 2J 2J 2J 2J 2J 2J 2J 2J 2J 2J 2J 2J 2J 2J 2J 2J 2J 2J 2J 2J 2J 2J 2J 2J 2J 2J 2J 2J 2J 2J 2J 2J 2J 2J 2J 2J 2J 2J 2J 2J 2J 2J 2J 2J 2J 2J 2J 2J 2J 2J 2J 2J 2J 2J 2J J 3J 3J 3J 3J 3J 3J 3J 3J 3J 3J 3J 3J 3J 3J 3J 3J 3J 3J 3J 3J 3J 3J 3J 3J 3J 3J 3J 3J 3J 3J 3J 3J 3J 3J 3J 3J 3J 3J 3J 3J 3J 3J 3J 3J 3J 3J 3J 3J 3J 3J 3J 3J 3J 3J 3J 3J 3J 3J 3J 3J 3J 3J 3J 3J 3J 3J 3J 3J 3J 3J 3J 3J 3J 3J 3J 3J 3J 3J 3J 3J 3J 3J 3J 3J 3J 3J 3J 3J 3J 3J 3J 3J 3J 3J 3J 3J 3J 3J 3J 3J 3J 3J 3J 3J 3J 3J 3J 3J 3J 3J 3J 3J 3J 3J 3J 3J 3J 3J 3J 3J 3J 3J 3J 3J 3J 3J 3J 3J 3J 3J 3J 3J 3J 3J 3J 3J 3J 3J 3J 3J 3J 3J 3J 3J 3J 3J 3J 3J 3J 3J 3J 3J 3J 3J 3J 3J 3J 3J 3J 3J 3J 3J 3J 3J 3J 3J 3J 3J 3J 3J 3J 3J 3J 3J 3J 3J 3J 3J J J 5J 5J 5J 5J 5J 5J 5J 5J 5J 5J 5J 5J 5J 5J 5J 5J 5J 5J 5J 5J 5J 5J 5J 5J 5J 5J 5J 5J 5J 5J 5J 5J 5J 5J 5J 5J 5J 5J 5J 5J 5J 5J 5J 5J 5J 5J 5J 5J 5J 5J 5J 5J 5J 5J 5J 5J 5J 5J 5J 5J 5J 5J 5J 5J 5J 5J 5J 5J 5J 5J 5J 5J 5J 5J 5J 5J 5J 5J 5J 5J 5J 5J 5J 5J 5J 5J 5J 5J 5J 5J 5J 5J 5J 5J 5J 5J 5J 5J 5J 5J 5J 5J 5J 5J 5J 5J 5J 5J 5J 5J 5J 5J 5J 5J 5J 5J 5J 5J 5J 5J 5J 5J 5J 5J 5J 5J 5J 5J 5J 5J 5J 5J 5J 5J 5J 5J 5J 5J 5J 5J 5J 5J 5J 5J 5J 5J 5J 5J 5J 5J 5J 5J 5J 5J 5J 5J 5J 5J 5J 5J 5J 5J 5J 5J 5J 5J 5J 5J 5J 5J 5J 5J 5J 5J 5J 5J 5J 5J   7J 7J 7J 7J 7J 7J 7J 7J 7J 7J 7J 7J 7J 7J 7J 7J 7J 7J 7J 7J 7J 7J 7J 7J 7J 7J 7J 7J 7J 7J 7J 7J 7J 7J 7J 7J 7J 7J 7J 7J 7J 7J 7J 7J 7J 7J 7J 7J 7J 7J 7J 7J 7J 7J 7J 7J 7J 7J 7J 7J 7J 7J 7J 7J 7J 7J 7J 7J 7J 7J 7J 7J 7J 7J 7J 7J 7J 7J 7J 7J 7J 7J 7J 7J 7J 7J 7J J J 6J 6J 6J 6J 6J 6J 6J 6J 6J 6J 6J 6J 6J 6J 6J 6J 6J 6J 6J 6J 6J 6J 6J 6J 6J 6J 6J 6J 6J 6J 6J 6J 6J 6J 6J 6J 6J 6J 6J 6J 6J 6J 6J 6J 6J 6J 6J 6J 6J 6J 6J 6J 6J 6J 6J 6J 6J 6J 6J 6J 6J 6J 6J 6J 6J 6J 6J 6J 6J 6J 6J 6J 6J 6J 6J 6J 6J 6J 6J 6J 6J 6J 6J 6J 6J 6J 6J J J 7J 7J 7J 7J 7J 7J 7J 7J 7J 7J 7J 7J 7J 7J 7J 7J 7J 7J 7J 7J 7J 7J 7J 7J 7J 7J 7J 7J 7J 7J 7J 7J 7J 7J 7J 7J 7J 7J 7J 7J 7J 7J 7J 7J 7J 7J 7J 7J 7J 7J 7J 7J 7J 7J 7J 7J 7J 7J 7J 7J 7J 7J 7J 7J 7J 7J 7J 7J 7J 7J 7J 7J 7J 7J 7J 7J 7J 7J 7J 7J 7J 7J 7J 7J 7J 7J 7J 7J 7J 7J 7J 7J 7J 7J 7J 7J 7J 7J 7J 7J 7J 7J 7J 7J 7J 7J 7J 7J 7J 7J 7J 7J 7J 7J 7J 7J 7J 7J 7J 7J 7J 7J 7J 7J 7J 7J 7J 7J 7J 7J 7J 7J 7J 7J 7J 7J 7J 7J 7J 7J 7J 7J 7J 7J 7J 7J 7J 7J 7J 7J 7J 7J 7J 7J 7J 7J 7J 7J 7J 7J 7J 7J 7J 7J 7J 7J 7J 7J 7J 7J 7J 7J 7J 7J 7J 7J 7J 7J   7M 7M 7M 7M 7M 7M 7M 7M 7M 7M 7M 7M 7M 7M 7M 7M 7M 7M 7M 7M 7M 7M 7M 7M 7M 7M 7M 7M 7M 7M 7M 7M 7M 7M 7M 7M 7M 7M 7M 7M 7M 7M 7M 7M 7M 7M 7M 7M 7M 7M 7M 7M 7M 7M 7M 7M 7M 7M 7M 7M 7M 7M 7M 7M 7M 7M 7M 7M 7M 7M 7M 7M 7M 7M 7M 7M 7M 7M 7M 7M 7M 7M 7M 7M 7M 7M 7M M M 6M 6M 6M 6M 6M 6M 6M 6M 6M 6M 6M 6M 6M 6M 6M 6M 6M 6M 6M 6M 6M 6M 6M 6M 6M 6M 6M 6M 6M 6M 6M 6M 6M 6M 6M 6M 6M 6M 6M 6M 6M 6M 6M 6M 6M 6M 6M 6M 6M 6M 6M 6M 6M 6M 6M 6M 6M 6M 6M 6M 6M 6M 6M 6M 6M 6M 6M 6M 6M 6M 6M 6M 6M 6M 6M 6M 6M 6M 6M 6M 6M 6M 6M 6M 6M 6M 6M   K7 K7 K7 K7 K7 K7 K7 K7 K7 K7 K7 K7 K7 K7 K7 K7 K7 K7 K7 K7 K7 K7 K7 K7 K7 K7 K7 K7 K7 K7 K7 K7 K7 K7 K7 K7 K7 K7 K7 K7 K7 K7 K7 K7 K7 K7 K7 K7 K7 K7 K7 K7 K7 K7 K7 K7 K7 K7 K7 K7 K7 K7 K7 K7 K7 K7 K7 K7 K7 K7 K7 K7 K7 K7 K7 K7 K7 K7 K7 K7 K7 K7 K7 K7 K7 K7 K7 K7 K7 K7 K7 K7 K7 K7 K7 K7 K7 K7 K7 K7 K7 K7 K7 K7 K7 K7 K7 K7 K7 K7 K7 K7 K7 K7 K7 K7 K7 K7 K7 K7 K7 K7 K7 K7 K7 K7 K7 K7 K7 K7 K7 K7 K7 K7 K7 K7 K7 K7 K7 K7 K7 K7 K7 K7 K7 K7 K7 K7 K7 K7 K7 K7 K7 K7 K7 K7 K7 K7 K7 K7 K7 K7 K7 K7 K7 K7 K7 K7 K7 K7 K7 K7 K7 K7 K7 K7 K7 K7   7M 7M 7M 7M 7M 7M 7M 7M 7M 7M 7M 7M 7M 7M 7M 7M 7M 7M 7M 7M 7M 7M 7M 7M 7M 7M 7M 7M 7M 7M 7M 7M 7M 7M 7M 7M 7M 7M 7M 7M 7M 7M 7M 7M 7M 7M 7M 7M 7M 7M 7M 7M 7M 7M 7M 7M 7M 7M 7M 7M 7M 7M 7M 7M 7M 7M 7M 7M 7M 7M 7M 7M 7M 7M 7M 7M 7M 7M 7M 7M 7M 7M 7M 7M 7M 7M 7M M M 6M 6M 6M 6M 6M 6M 6M 6M 6M 6M 6M 6M 6M 6M 6M 6M 6M 6M 6M 6M 6M 6M 6M 6M 6M 6M 6M 6M 6M 6M 6M 6M 6M 6M 6M 6M 6M 6M 6M 6M 6M 6M 6M 6M 6M 6M 6M 6M 6M 6M 6M 6M 6M 6M 6M 6M 6M 6M 6M 6M 6M 6M 6M 6M 6M 6M 6M 6M 6M 6M 6M 6M 6M 6M 6M 6M 6M 6M 6M 6M 6M 6M 6M 6M 6M 6M 6M M M M7 M7 M7 M7 M7 M7 M7 M7 M7 M7 M7 M7 M7 M7 M7 M7 M7 M7 M7 M7 M7 M7 M7 M7 M7 M7 M7 M7 M7 M7 M7 M7 M7 M7 M7 M7 M7 M7 M7 M7 M7 M7 M7 M7 M7 M7 M7 M7 M7 M7 M7 M7 M7 M7 M7 M7 M7 M7 M7 M7 M7 M7 M7 M7 M7 M7 M7 M7 M7 M7 M7 M7 M7 M7 M7 M7 M7 M7 M7 M7 M7 M7 M7 M7 M7 M7 M7 M7 M7 M7 M7 M7 M7 M7 M7 M7 M7 M7 M7 M7 M7 M7 M7 M7 M7 M7 M7 M7 M7 M7 M7 M7 M7 M7 M7 M7 M7 M7 M7 M7 M7 M7 M7 M7 M7 M7 M7 M7 M7 M7 M7 M7 M7 M7 M7 M7 M7 M7 M7 M7 M7 M7 M7 M7 M7 M7 M7 M7 M7 M7 M7 M7 M7 M7 M7 M7 M7 M7 M7 M7 M7 M7 M7 M7 M7 M7 M7 M7 M7 M7 M7 M7 M7 M7 M7 M7 M7 M7 7 7 J7 J7 J7 J7 J7 J7 J7 J7 J7 J7 J7 J7 J7 J7 J7 J7 J7 J7 J7 J7 J7 J7 J7 J7 J7 J7 J7 J7 J7 J7 J7 J7 J7 J7 J7 J7 J7 J7 J7 J7 J7 J7 J7 J7 J7 J7 J7 J7 J7 J7 J7 J7 J7 J7 J7 J7 J7 J7 J7 J7 J7 J7 J7 J7 J7 J7 J7 J7 J7 J7 J7 J7 J7 J7 J7 J7 J7 J7 J7 J7 J7 J7 J7 J7 J7 J7 J7 J7 J7 J7 J7 J7 J7 J7 J7 J7 J7 J7 J7 J7 J7 J7 J7 J7 J7 J7 J7 J7 J7 J7 J7 J7 J7 J7 J7 J7 J7 J7 J7 J7 J7 J7 J7 J7 J7 J7 J7 J7 J7 J7 J7 J7 J7 J7 J7 J7 J7 J7 J7 J7 J7 J7 J7 J7 J7 J7 J7 J7 J7 J7 J7 J7 J7 J7 J7 J7 J7 J7 J7 J7 J7 J7 J7 J7 J7 J7 J7 J7 J7 J7 J7 J7 J7 J7 J7 J7 J7 J7 7 7 G7 G7 G7 G7 G7 G7 G7 G7 G7 G7 G7 G7 G7 G7 G7 G7 G7 G7 G7 G7 G7 G7 G7 G7 G7 G7 G7 G7 G7 G7 G7 G7 G7 G7 G7 G7 G7 G7 G7 G7 G7 G7 G7 G7 G7 G7 G7 G7 G7 G7 G7 G7 G7 G7 G7 G7 G7 G7 G7 G7 G7 G7 G7 G7 G7 G7 G7 G7 G7 G7 G7 G7 G7 G7 G7 G7 G7 G7 G7 G7 G7 G7 G7 G7 G7 G7 G7 G7 G7 G7 G7 G7 G7 G7 G7 G7 G7 G7 G7 G7 G7 G7 G7 G7 G7 G7 G7 G7 G7 G7 G7 G7 G7 G7 G7 G7 G7 G7 G7 G7 G7 G7 G7 G7 G7 G7 G7 G7 G7 G7 G7 G7 G7 G7 G7 G7 G7 G7 G7 G7 G7 G7 G7 G7 G7 G7 G7 G7 G7 G7 G7 G7 G7 G7 G7 G7 G7 G7 G7 G7 G7 G7 G7 G7 G7 G7 G7 G7 G7 G7 G7 G7 G7 G7 G7 G7 G7 G7 7 7 P7 P7 P7 P7 P7 P7 P7 P7 P7 P7 P7 P7 P7 P7 P7 P7 P7 P7 P7 P7 P7 P7 P7 P7 P7 P7 P7 P7 P7 P7 P7 P7 P7 P7 P7 P7 P7 P7 P7 P7 P7 P7 P7 P7 P7 P7 P7 P7 P7 P7 P7 P7 P7 P7 P7 P7 P7 P7 P7 P7 P7 P7 P7 P7 P7 P7 P7 P7 P7 P7 P7 P7 P7 P7 P7 P7 P7 P7 P7 P7 P7 P7 P7 P7 P7 P7 P7 P7 P7 P7 P7 P7 P7 P7 P7 P7 P7 P7 P7 P7 P7 P7 P7 P7 P7 P7 P7 P7 P7 P7 P7 P7 P7 P7 P7 P7 P7 P7 P7 P7 P7 P7 P7 P7 P7 P7 P7 P7 P7 P7 P7 P7 P7 P7 P7 P7 P7 P7 P7 P7 P7 P7 P7 P7 P7 P7 P7 P7 P7 P7 P7 P7 P7 P7 P7 P7 P7 P7 P7 P7 P7 P7 P7 P7 P7 P7 P7 P7 P7 P7 P7 P7 P7 P7 P7 P7 P7 P7 P7 P7 P7 P7 P7 P7 P7 P7 P7 P7 P7 P7 P7 P7 P7 P7 P7 P7 P7 P7 P7 P7 P7 P7 P7 P7 P7 P7 P7 P7 P7 P7 P7 P7 P7 P7 P7 P7 P7 P7 P7 P7 P7 P7 P7 P7 P7 P7 P7 P7 P7 P7 P7 P7 P7 P7 P7 P7 P7 P7 P7 P7 P7 P7 P7 P7 P7 P7 P7 P7 P7 P7 P7 P7 P7 P7 P7 P7 P7 P7 P7 P7 P7 P7 P7 P7 P7 P7 P7 P7 P7 P7 P7 P7 P7 P7 P7 P7 P7 P7 P7 P7 P7 P7 P7 P7 P7 P7 P7 P7 P7 P7 P7 P7 P7 P7 P7 P7 P7 P7 P7 P7 P7 P7 P7 P7 P7 P7 P7 P7 P7 P7 P7 P7 P7 P7 P7 P7 P7 P7 P7 P7 P7 P7 P7 P7 P7 P7 P7 P7 P7 P7 P7 P7 P7 P7 P7 P7 P7 P7 P7 P7 P7 P7 P7 P7 P7 P7 P7 P7 P7 P7 P7 P7 P7 P7 P7 P7 P7 P7 7 M7 M7 M7 M7 M7 M7 M7 M7 M7 M7 M7 M7 M7 M7 M7 M7 M7 M7 M7 M7 M7 M7 M7 M7 M7 M7 M7 M7 M7 M7 M7 M7 M7 M7 M7 M7 M7 M7 M7 M7 M7 M7 M7 M7 M7 M7 M7 M7 M7 M7 M7 M7 M7 M7 M7 M7 M7 M7 M7 M7 M7 M7 M7 M7 M7 M7 M7 M7 M7 M7 M7 M7 M7 M7 M7 M7 M7 M7 M7 M7 M7 M7 M7 M7 M7 M7 M7 M7 M7 M7 M7 M7 M7 M7 M7 M7 M7 M7 M7 M7 M7 M7 M7 M7 M7 M7 M7 M7 M7 M7 M7 M7 M7 M7 M7 M7 M7 M7 M7 M7 M7 M7 M7 M7 M7 M7 M7 M7 M7 M7 M7 M7 M7 M7 M7 M7 M7 M7 M7 M7 M7 M7 M7 M7 M7 M7 M7 M7 M7 M7 M7 M7 M7 M7 M7 M7 M7 M7 M7 M7 M7 M7 M7 M7 M7 M7 M7 M7 M7 M7 M7 M7 M7 M7 M7 M7 M7 M7 7 7 J7 J7 J7 J7 J7 J7 J7 J7 J7 J7 J7 J7 J7 J7 J7 J7 J7 J7 J7 J7 J7 J7 J7 J7 J7 J7 J7 J7 J7 J7 J7 J7 J7 J7 J7 J7 J7 J7 J7 J7 J7 J7 J7 J7 J7 J7 J7 J7 J7 J7 J7 J7 J7 J7 J7 J7 J7 J7 J7 J7 J7 J7 J7 J7 J7 J7 J7 J7 J7 J7 J7 J7 J7 J7 J7 J7 J7 J7 J7 J7 J7 J7 J7 J7 J7 J7 J7 J7 J7 J7 J7 J7 J7 J7 J7 J7 J7 J7 J7 J7 J7 J7 J7 J7 J7 J7 J7 J7 J7 J7 J7 J7 J7 J7 J7 J7 J7 J7 J7 J7 J7 J7 J7 J7 J7 J7 J7 J7 J7 J7 J7 J7 J7 J7 J7 J7 J7 J7 J7 J7 J7 J7 J7 J7 J7 J7 J7 J7 J7 J7 J7 J7 J7 J7 J7 J7 J7 J7 J7 J7 J7 J7 J7 J7 J7 J7 J7 J7 J7 J7 J7 J7 J7 J7 J7 J7 J7 J7 7 7 K7 K7 K7 K7 K7 K7 K7 K7 K7 K7 K7 K7 K7 K7 K7 K7 K7 K7 K7 K7 K7 K7 K7 K7 K7 K7 K7 K7 K7 K7 K7 K7 K7 K7 K7 K7 K7 K7 K7 K7 K7 K7 K7 K7 K7 K7 K7 K7 K7 K7 K7 K7 K7 K7 K7 K7 K7 K7 K7 K7 K7 K7 K7 K7 K7 K7 K7 K7 K7 K7 K7 K7 K7 K7 K7 K7 K7 K7 K7 K7 K7 K7 K7 K7 K7 K7 K7 K7 K7 K7 K7 K7 K7 K7 K7 K7 K7 K7 K7 K7 K7 K7 K7 K7 K7 K7 K7 K7 K7 K7 K7 K7 K7 K7 K7 K7 K7 K7 K7 K7 K7 K7 K7 K7 K7 K7 K7 K7 K7 K7 K7 K7 K7 K7 K7 K7 K7 K7 K7 K7 K7 K7 K7 K7 K7 K7 K7 K7 K7 K7 K7 K7 K7 K7 K7 K7 K7 K7 K7 K7 K7 K7 K7 K7 K7 K7 K7 K7 K7 K7 K7 K7 K7 K7 K7 K7 K7 K7 K7 K7 K7 K7 K7 K7 K7 K7 K7 K7 K7 K7 K7 K7 K7 K7 K7 K7 K7 K7 K7 K7 K7 K7 K7 K7 K7 K7 K7 K7 K7 K7 K7 K7 K7 K7 K7 K7 K7 K7 K7 K7 K7 K7 K7 K7 K7 K7 K7 K7 K7 K7 K7 K7 K7 K7 K7 K7 K7 K7 K7 K7 K7 K7 K7 K7 K7 K7 K7 K7 K7 K7 K7 K7 K7 K7 K7 K7 K7 K7 K7 K7 K7 K7 K7 K7 K7 K7 K7 K7 K7 K7 K7 K7 K7 K7 K7 K7 K7 K7 K7 K7 K7 K7 K7 K7 K7 K7 K7 K7 K7 K7 K7 K7 K7 K7 K7 K7 K7 K7 K7 K7 K7 K7 K7 K7 K7 K7 K7 K7 K7 K7 K7 K7 K7 K7 K7 K7 K7 K7 K7 K7 K7 K7 K7 K7 K7 K7 K7 K7 K7 K7 K7 K7 K7 K7 K7 K7 K7 K7 K7 K7 K7 K7 K7 K7 K7 K7 K7 K7 K7 K7 K7 K7 K7 K7 K7 K7 K7 K7 7 7 H7 H7 H7 H7 H7 H7 H7 H7 H7 H7 H7 H7 H7 H7 H7 H7 H7 H7 H7 H7 H7 H7 H7 H7 H7 H7 H7 H7 H7 H7 H7 H7 H7 H7 H7 H7 H7 H7 H7 H7 H7 H7 H7 H7 H7 H7 H7 H7 H7 H7 H7 H7 H7 H7 H7 H7 H7 H7 H7 H7 H7 H7 H7 H7 H7 H7 H7 H7 H7 H7 H7 H7 H7 H7 H7 H7 H7 H7 H7 H7 H7 H7 H7 H7 H7 H7 H7 H7 H7 H7 H7 H7 H7 H7 H7 H7 H7 H7 H7 H7 H7 H7 H7 H7 H7 H7 H7 H7 H7 H7 H7 H7 H7 H7 H7 H7 H7 H7 H7 H7 H7 H7 H7 H7 H7 H7 H7 H7 H7 H7 H7 H7 H7 H7 H7 H7 H7 H7 H7 H7 H7 H7 H7 H7 H7 H7 H7 H7 H7 H7 H7 H7 H7 H7 H7 H7 H7 H7 H7 H7 H7 H7 H7 H7 H7 H7 H7 H7 H7 H7 H7 H7 H7 H7 H7 H7 H7 H7 7 C7 C7 C7 C7 C7 C7 C7 C7 C7 C7 C7 C7 C7 C7 C7 C7 C7 C7 C7 C7 C7 C7 C7 C7 C7 C7 C7 C7 C7 C7 C7 C7 C7 C7 C7 C7 C7 C7 C7 C7 C7 C7 C7 C7 C7 C7 C7 C7 C7 C7 C7 C7 C7 C7 C7 C7 C7 C7 C7 C7 C7 C7 C7 C7 C7 C7 C7 C7 C7 C7 C7 C7 C7 C7 C7 C7 C7 C7 C7 C7 C7 C7 C7 C7 C7 C7 C7 C7 C7 C7 C7 C7 C7 C7 C7 C7 C7 C7 C7 C7 C7 C7 C7 C7 C7 C7 C7 C7 C7 C7 C7 C7 C7 C7 C7 C7 C7 C7 C7 C7 C7 C7 C7 C7 C7 C7 C7 C7 C7 C7 C7 C7 C7 C7 C7 C7 C7 C7 C7 C7 C7 C7 C7 C7 C7 C7 C7 C7 C7 C7 C7 C7 C7 C7 C7 C7 C7 C7 C7 C7 C7 C7 C7 C7 C7 C7 C7 C7 C7 C7 C7 C7 C7 C7 C7 C7 C7 C7   7O 7O 7O 7O 7O 7O 7O 7O 7O 7O 7O 7O 7O 7O 7O 7O 7O 7O 7O 7O 7O 7O 7O 7O 7O 7O 7O 7O 7O 7O 7O 7O 7O 7O 7O 7O 7O 7O 7O 7O 7O 7O 7O 7O 7O 7O 7O 7O 7O 7O 7O 7O 7O 7O 7O 7O 7O 7O 7O 7O 7O 7O 7O 7O 7O 7O 7O 7O 7O 7O 7O 7O 7O 7O 7O 7O 7O 7O 7O 7O 7O 7O 7O 7O 7O 7O 7O O O 6O 6O 6O 6O 6O 6O 6O 6O 6O 6O 6O 6O 6O 6O 6O 6O 6O 6O 6O 6O 6O 6O 6O 6O 6O 6O 6O 6O 6O 6O 6O 6O 6O 6O 6O 6O 6O 6O 6O 6O 6O 6O 6O 6O 6O 6O 6O 6O 6O 6O 6O 6O 6O 6O 6O 6O 6O 6O 6O 6O 6O 6O 6O 6O 6O 6O 6O 6O 6O 6O 6O 6O 6O 6O 6O 6O 6O 6O 6O 6O 6O 6O 6O 6O 6O 6O 6O O O 7O 7O 7O 7O 7O 7O 7O 7O 7O 7O 7O 7O 7O 7O 7O 7O 7O 7O 7O 7O 7O 7O 7O 7O 7O 7O 7O 7O 7O 7O 7O 7O 7O 7O 7O 7O 7O 7O 7O 7O 7O 7O 7O 7O 7O 7O 7O 7O 7O 7O 7O 7O 7O 7O 7O 7O 7O 7O 7O 7O 7O 7O 7O 7O 7O 7O 7O 7O 7O 7O 7O 7O 7O 7O 7O 7O 7O 7O 7O 7O 7O 7O 7O 7O 7O 7O 7O 7O 7O 7O 7O 7O 7O 7O 7O 7O 7O 7O 7O 7O 7O 7O 7O 7O 7O 7O 7O 7O 7O 7O 7O 7O 7O 7O 7O 7O 7O 7O 7O 7O 7O 7O 7O 7O 7O 7O 7O 7O 7O 7O 7O 7O 7O 7O 7O 7O 7O 7O 7O 7O 7O 7O 7O 7O 7O 7O 7O 7O 7O 7O 7O 7O 7O 7O 7O 7O 7O 7O 7O 7O 7O 7O 7O 7O 7O 7O 7O 7O 7O 7O 7O 7O 7O 7O 7O 7O 7O 7O   7K 7K 7K 7K 7K 7K 7K 7K 7K 7K 7K 7K 7K 7K 7K 7K 7K 7K 7K 7K 7K 7K 7K 7K 7K 7K 7K 7K 7K 7K 7K 7K 7K 7K 7K 7K 7K 7K 7K 7K 7K 7K 7K 7K 7K 7K 7K 7K 7K 7K 7K 7K 7K 7K 7K 7K 7K 7K 7K 7K 7K 7K 7K 7K 7K 7K 7K 7K 7K 7K 7K 7K 7K 7K 7K 7K 7K 7K 7K 7K 7K 7K 7K 7K 7K 7K 7K K K 6K 6K 6K 6K 6K 6K 6K 6K 6K 6K 6K 6K 6K 6K 6K 6K 6K 6K 6K 6K 6K 6K 6K 6K 6K 6K 6K 6K 6K 6K 6K 6K 6K 6K 6K 6K 6K 6K 6K 6K 6K 6K 6K 6K 6K 6K 6K 6K 6K 6K 6K 6K 6K 6K 6K 6K 6K 6K 6K 6K 6K 6K 6K 6K 6K 6K 6K 6K 6K 6K 6K 6K 6K 6K 6K 6K 6K 6K 6K 6K 6K 6K 6K 6K 6K 6K 6K   H7 H7 H7 H7 H7 H7 H7 H7 H7 H7 H7 H7 H7 H7 H7 H7 H7 H7 H7 H7 H7 H7 H7 H7 H7 H7 H7 H7 H7 H7 H7 H7 H7 H7 H7 H7 H7 H7 H7 H7 H7 H7 H7 H7 H7 H7 H7 H7 H7 H7 H7 H7 H7 H7 H7 H7 H7 H7 H7 H7 H7 H7 H7 H7 H7 H7 H7 H7 H7 H7 H7 H7 H7 H7 H7 H7 H7 H7 H7 H7 H7 H7 H7 H7 H7 H7 H7 H7 H7 H7 H7 H7 H7 H7 H7 H7 H7 H7 H7 H7 H7 H7 H7 H7 H7 H7 H7 H7 H7 H7 H7 H7 H7 H7 H7 H7 H7 H7 H7 H7 H7 H7 H7 H7 H7 H7 H7 H7 H7 H7 H7 H7 H7 H7 H7 H7 H7 H7 H7 H7 H7 H7 H7 H7 H7 H7 H7 H7 H7 H7 H7 H7 H7 H7 H7 H7 H7 H7 H7 H7 H7 H7 H7 H7 H7 H7 H7 H7 H7 H7 H7 H7 H7 H7 H7 H7 H7 H7   J7 J7 J7 J7 J7 J7 J7 J7 J7 J7 J7 J7 J7 J7 J7 J7 J7 J7 J7 J7 J7 J7 J7 J7 J7 J7 J7 J7 J7 J7 J7 J7 J7 J7 J7 J7 J7 J7 J7 J7 J7 J7 J7 J7 J7 J7 J7 J7 J7 J7 J7 J7 J7 J7 J7 J7 J7 J7 J7 J7 J7 J7 J7 J7 J7 J7 J7 J7 J7 J7 J7 J7 J7 J7 J7 J7 J7 J7 J7 J7 J7 J7 J7 J7 J7 J7 J7 J7 J7 J7 J7 J7 J7 J7 J7 J7 J7 J7 J7 J7 J7 J7 J7 J7 J7 J7 J7 J7 J7 J7 J7 J7 J7 J7 J7 J7 J7 J7 J7 J7 J7 J7 J7 J7 J7 J7 J7 J7 J7 J7 J7 J7 J7 J7 J7 J7 J7 J7 J7 J7 J7 J7 J7 J7 J7 J7 J7 J7 J7 J7 J7 J7 J7 J7 J7 J7 J7 J7 J7 J7 J7 J7 J7 J7 J7 J7 J7 J7 J7 J7 J7 J7 J7 J7 J7 J7 J7 J7 J7 J7 J7 J7 J7 J7 J7 J7 J7 J7 J7 J7 J7 J7 J7 J7 J7 J7 J7 J7 J7 J7 J7 J7 J7 J7 J7 J7 J7 J7 J7 J7 J7 J7 J7 J7 J7 J7 J7 J7 J7 J7 J7 J7 J7 J7 J7 J7 J7 J7 J7 J7 J7 J7 J7 J7 J7 J7 J7 J7 J7 J7 J7 J7 J7 J7 J7 J7 J7 J7 J7 J7 J7 J7 J7 J7 J7 J7 J7 J7 J7 J7 J7 J7 J7 J7 J7 J7 J7 J7 J7 J7 J7 J7 J7 J7 J7 J7 J7 J7 J7 J7 J7 J7 J7 J7 J7 J7 J7 J7 J7 J7 J7 J7 J7 J7 J7 J7 J7 J7 J7 J7 J7 J7 J7 J7 J7 J7 J7 J7 J7 J7 J7 J7 J7 J7 J7 J7 J7 J7 J7 J7 J7 J7 J7 J7 J7 J7 J7 J7 J7 J7 J7 J7 J7 J7 J7 J7 J7 J7 J7 J7 J7 J7 J7 J7 J7 J7 J7 J7 J7 J7 J7 J7 J7 J7 J7 J7 J7 J7 7 7 F7 F7 F7 F7 F7 F7 F7 F7 F7 F7 F7 F7 F7 F7 F7 F7 F7 F7 F7 F7 F7 F7 F7 F7 F7 F7 F7 F7 F7 F7 F7 F7 F7 F7 F7 F7 F7 F7 F7 F7 F7 F7 F7 F7 F7 F7 F7 F7 F7 F7 F7 F7 F7 F7 F7 F7 F7 F7 F7 F7 F7 F7 F7 F7 F7 F7 F7 F7 F7 F7 F7 F7 F7 F7 F7 F7 F7 F7 F7 F7 F7 F7 F7 F7 F7 F7 F7 F7 F7 F7 F7 F7 F7 F7 F7 F7 F7 F7 F7 F7 F7 F7 F7 F7 F7 F7 F7 F7 F7 F7 F7 F7 F7 F7 F7 F7 F7 F7 F7 F7 F7 F7 F7 F7 F7 F7 F7 F7 F7 F7 F7 F7 F7 F7 F7 F7 F7 F7 F7 F7 F7 F7 F7 F7 F7 F7 F7 F7 F7 F7 F7 F7 F7 F7 F7 F7 F7 F7 F7 F7 F7 F7 F7 F7 F7 F7 F7 F7 F7 F7 F7 F7 F7 F7 F7 F7 F7 F7 7 7 7C 7C 7C 7C 7C 7C 7C 7C 7C 7C 7C 7C 7C 7C 7C 7C 7C 7C 7C 7C 7C 7C 7C 7C 7C 7C 7C 7C 7C 7C 7C 7C 7C 7C 7C 7C 7C 7C 7C 7C 7C 7C 7C 7C 7C 7C 7C 7C 7C 7C 7C 7C 7C 7C 7C 7C 7C 7C 7C 7C 7C 7C 7C 7C 7C 7C 7C 7C 7C 7C 7C 7C 7C 7C 7C 7C 7C 7C 7C 7C 7C 7C 7C 7C 7C 7C 7C 7C 7C 7C 7C 7C 7C 7C 7C 7C 7C 7C 7C 7C 7C 7C 7C 7C 7C 7C 7C 7C 7C 7C 7C 7C 7C 7C 7C 7C 7C 7C 7C 7C 7C 7C 7C 7C 7C 7C 7C 7C 7C 7C 7C 7C 7C 7C 7C 7C 7C 7C 7C 7C 7C 7C 7C 7C 7C 7C 7C 7C 7C 7C 7C 7C 7C 7C 7C 7C 7C 7C 7C 7C 7C 7C 7C 7C 7C 7C 7C 7C 7C 7C 7C 7C 7C 7C 7C 7C 7C C   7O 7O 7O 7O 7O 7O 7O 7O 7O 7O 7O 7O 7O 7O 7O 7O 7O 7O 7O 7O 7O 7O 7O 7O 7O 7O 7O 7O 7O 7O 7O 7O 7O 7O 7O 7O 7O 7O 7O 7O 7O 7O 7O 7O 7O 7O 7O 7O 7O 7O 7O 7O 7O 7O 7O 7O 7O 7O 7O 7O 7O 7O 7O 7O 7O 7O 7O 7O 7O 7O 7O 7O 7O 7O 7O 7O 7O 7O 7O 7O 7O 7O 7O 7O 7O 7O 7O O O 6O 6O 6O 6O 6O 6O 6O 6O 6O 6O 6O 6O 6O 6O 6O 6O 6O 6O 6O 6O 6O 6O 6O 6O 6O 6O 6O 6O 6O 6O 6O 6O 6O 6O 6O 6O 6O 6O 6O 6O 6O 6O 6O 6O 6O 6O 6O 6O 6O 6O 6O 6O 6O 6O 6O 6O 6O 6O 6O 6O 6O 6O 6O 6O 6O 6O 6O 6O 6O 6O 6O 6O 6O 6O 6O 6O 6O 6O 6O 6O 6O 6O 6O 6O 6O 6O 6O O O 7O 7O 7O 7O 7O 7O 7O 7O 7O 7O 7O 7O 7O 7O 7O 7O 7O 7O 7O 7O 7O 7O 7O 7O 7O 7O 7O 7O 7O 7O 7O 7O 7O 7O 7O 7O 7O 7O 7O 7O 7O 7O 7O 7O 7O 7O 7O 7O 7O 7O 7O 7O 7O 7O 7O 7O 7O 7O 7O 7O 7O 7O 7O 7O 7O 7O 7O 7O 7O 7O 7O 7O 7O 7O 7O 7O 7O 7O 7O 7O 7O 7O 7O 7O 7O 7O 7O 7O 7O 7O 7O 7O 7O 7O 7O 7O 7O 7O 7O 7O 7O 7O 7O 7O 7O 7O 7O 7O 7O 7O 7O 7O 7O 7O 7O 7O 7O 7O 7O 7O 7O 7O 7O 7O 7O 7O 7O 7O 7O 7O 7O 7O 7O 7O 7O 7O 7O 7O 7O 7O 7O 7O 7O 7O 7O 7O 7O 7O 7O 7O 7O 7O 7O 7O 7O 7O 7O 7O 7O 7O 7O 7O 7O 7O 7O 7O 7O 7O 7O 7O 7O 7O 7O 7O 7O 7O 7O 7O   J7 J7 J7 J7 J7 J7 J7 J7 J7 J7 J7 J7 J7 J7 J7 J7 J7 J7 J7 J7 J7 J7 J7 J7 J7 J7 J7 J7 J7 J7 J7 J7 J7 J7 J7 J7 J7 J7 J7 J7 J7 J7 J7 J7 J7 J7 J7 J7 J7 J7 J7 J7 J7 J7 J7 J7 J7 J7 J7 J7 J7 J7 J7 J7 J7 J7 J7 J7 J7 J7 J7 J7 J7 J7 J7 J7 J7 J7 J7 J7 J7 J7 J7 J7 J7 J7 J7 J7 J7 J7 J7 J7 J7 J7 J7 J7 J7 J7 J7 J7 J7 J7 J7 J7 J7 J7 J7 J7 J7 J7 J7 J7 J7 J7 J7 J7 J7 J7 J7 J7 J7 J7 J7 J7 J7 J7 J7 J7 J7 J7 J7 J7 J7 J7 J7 J7 J7 J7 J7 J7 J7 J7 J7 J7 J7 J7 J7 J7 J7 J7 J7 J7 J7 J7 J7 J7 J7 J7 J7 J7 J7 J7 J7 J7 J7 J7 J7 J7 J7 J7 J7 J7 J7 J7 J7 J7 J7 J7 7 F7 F7 F7 F7 F7 F7 F7 F7 F7 F7 F7 F7 F7 F7 F7 F7 F7 F7 F7 F7 F7 F7 F7 F7 F7 F7 F7 F7 F7 F7 F7 F7 F7 F7 F7 F7 F7 F7 F7 F7 F7 F7 F7 F7 F7 F7 F7 F7 F7 F7 F7 F7 F7 F7 F7 F7 F7 F7 F7 F7 F7 F7 F7 F7 F7 F7 F7 F7 F7 F7 F7 F7 F7 F7 F7 F7 F7 F7 F7 F7 F7 F7 F7 F7 F7 F7 F7 F7 F7 F7 F7 F7 F7 F7 F7 F7 F7 F7 F7 F7 F7 F7 F7 F7 F7 F7 F7 F7 F7 F7 F7 F7 F7 F7 F7 F7 F7 F7 F7 F7 F7 F7 F7 F7 F7 F7 F7 F7 F7 F7 F7 F7 F7 F7 F7 F7 F7 F7 F7 F7 F7 F7 F7 F7 F7 F7 F7 F7 F7 F7 F7 F7 F7 F7 F7 F7 F7 F7 F7 F7 F7 F7 F7 F7 F7 F7 F7 F7 F7 F7 F7 F7 F7 F7 F7 F7 F7 F7 7  H7 H7 H7 H7 H7 H7 H7 H7 H7 H7 H7 H7 H7 H7 H7 H7 H7 H7 H7 H7 H7 H7 H7 H7 H7 H7 H7 H7 H7 H7 H7 H7 H7 H7 H7 H7 H7 H7 H7 H7 H7 H7 H7 H7 H7 H7 H7 H7 H7 H7 H7 H7 H7 H7 H7 H7 H7 H7 H7 H7 H7 H7 H7 H7 H7 H7 H7 H7 H7 H7 H7 H7 H7 H7 H7 H7 H7 H7 H7 H7 H7 H7 H7 H7 H7 H7 H7 H7 H7 H7 H7 H7 H7 H7 H7 H7 H7 H7 H7 H7 H7 H7 H7 H7 H7 H7 H7 H7 H7 H7 H7 H7 H7 H7 H7 H7 H7 H7 H7 H7 H7 H7 H7 H7 H7 H7 H7 H7 H7 H7 H7 H7 H7 H7 H7 H7 H7 H7 H7 H7 H7 H7 H7 H7 H7 H7 H7 H7 H7 H7 H7 H7 H7 H7 H7 H7 H7 H7 H7 H7 H7 H7 H7 H7 H7 H7 H7 H7 H7 H7 H7 H7 H7 H7 H7 H7 H7 H7 H7 H7 H7 H7 H7 H7 H7 H7 H7 H7 H7 H7 H7 H7 H7 H7 H7 H7 H7 H7 H7 H7 H7 H7 H7 H7 H7 H7 H7 H7 H7 H7 H7 H7 H7 H7 H7 H7 H7 H7 H7 H7 H7 H7 H7 H7 H7 H7 H7 H7 H7 H7 H7 H7 H7 H7 H7 H7 H7 H7 H7 H7 H7 H7 H7 H7 H7 H7 H7 H7 H7 H7 H7 H7 H7 H7 H7 H7 H7 H7 H7 H7 H7 H7 H7 H7 H7 H7 H7 H7 H7 H7 H7 H7 H7 H7 H7 H7 H7 H7 H7 H7 H7 H7 H7 H7 H7 H7 H7 H7 H7 H7 H7 H7 H7 H7 H7 H7 H7 H7 H7 H7 H7 H7 H7 H7 H7 H7 H7 H7 H7 H7 H7 H7 H7 H7 H7 H7 H7 H7 H7 H7 H7 H7 H7 H7 H7 H7 H7 H7 H7 H7 H7 H7 H7 H7 H7 H7 H7 H7 H7 H7 H7 H7 H7 H7 H7 H7 H7 H7 H7 H7 H7 H7 H7 H7 H7 H7 H7 H7 7 7 E7 E7 E7 E7 E7 E7 E7 E7 E7 E7 E7 E7 E7 E7 E7 E7 E7 E7 E7 E7 E7 E7 E7 E7 E7 E7 E7 E7 E7 E7 E7 E7 E7 E7 E7 E7 E7 E7 E7 E7 E7 E7 E7 E7 E7 E7 E7 E7 E7 E7 E7 E7 E7 E7 E7 E7 E7 E7 E7 E7 E7 E7 E7 E7 E7 E7 E7 E7 E7 E7 E7 E7 E7 E7 E7 E7 E7 E7 E7 E7 E7 E7 E7 E7 E7 E7 E7 E7 E7 E7 E7 E7 E7 E7 E7 E7 E7 E7 E7 E7 E7 E7 E7 E7 E7 E7 E7 E7 E7 E7 E7 E7 E7 E7 E7 E7 E7 E7 E7 E7 E7 E7 E7 E7 E7 E7 E7 E7 E7 E7 E7 E7 E7 E7 E7 E7 E7 E7 E7 E7 E7 E7 E7 E7 E7 E7 E7 E7 E7 E7 E7 E7 E7 E7 E7 E7 E7 E7 E7 E7 E7 E7 E7 E7 E7 E7 E7 E7 E7 E7 E7 E7 E7 E7 E7 E7 E7 E7 7 7 7B 7B 7B 7B 7B 7B 7B 7B 7B 7B 7B 7B 7B 7B 7B 7B 7B 7B 7B 7B 7B 7B 7B 7B 7B 7B 7B 7B 7B 7B 7B 7B 7B 7B 7B 7B 7B 7B 7B 7B 7B 7B 7B 7B 7B 7B 7B 7B 7B 7B 7B 7B 7B 7B 7B 7B 7B 7B 7B 7B 7B 7B 7B 7B 7B 7B 7B 7B 7B 7B 7B 7B 7B 7B 7B 7B 7B 7B 7B 7B 7B 7B 7B 7B 7B 7B 7B 7B 7B 7B 7B 7B 7B 7B 7B 7B 7B 7B 7B 7B 7B 7B 7B 7B 7B 7B 7B 7B 7B 7B 7B 7B 7B 7B 7B 7B 7B 7B 7B 7B 7B 7B 7B 7B 7B 7B 7B 7B 7B 7B 7B 7B 7B 7B 7B 7B 7B 7B 7B 7B 7B 7B 7B 7B 7B 7B 7B 7B 7B 7B 7B 7B 7B 7B 7B 7B 7B 7B 7B 7B 7B 7B 7B 7B 7B 7B 7B 7B 7B 7B 7B 7B 7B 7B 7B 7B 7B B  7K 7K 7K 7K 7K 7K 7K 7K 7K 7K 7K 7K 7K 7K 7K 7K 7K 7K 7K 7K 7K 7K 7K 7K 7K 7K 7K 7K 7K 7K 7K 7K 7K 7K 7K 7K 7K 7K 7K 7K 7K 7K 7K 7K 7K 7K 7K 7K 7K 7K 7K 7K 7K 7K 7K 7K 7K 7K 7K 7K 7K 7K 7K 7K 7K 7K 7K 7K 7K 7K 7K 7K 7K 7K 7K 7K 7K 7K 7K 7K 7K 7K 7K 7K 7K 7K 7K 7K 7K 7K 7K 7K 7K 7K 7K 7K 7K 7K 7K 7K 7K 7K 7K 7K 7K 7K 7K 7K 7K 7K 7K 7K 7K 7K 7K 7K 7K 7K 7K 7K 7K 7K 7K 7K 7K 7K 7K 7K 7K 7K 7K 7K 7K 7K 7K 7K 7K 7K 7K 7K 7K 7K 7K 7K 7K 7K 7K 7K 7K 7K 7K 7K 7K 7K 7K 7K 7K 7K 7K 7K 7K 7K 7K 7K 7K 7K 7K 7K 7K 7K 7K 7K 7K 7K 7K 7K 7K 7K K K 7K 7K 7K 7K 7K 7K 7K 7K 7K 7K 7K 7K 7K 7K 7K 7K 7K 7K 7K 7K 7K 7K 7K 7K 7K 7K 7K 7K 7K 7K 7K 7K 7K 7K 7K 7K 7K 7K 7K 7K 7K 7K 7K 7K 7K 7K 7K 7K 7K 7K 7K 7K 7K 7K 7K 7K 7K 7K 7K 7K 7K 7K 7K 7K 7K 7K 7K 7K 7K 7K 7K 7K 7K 7K 7K 7K 7K 7K 7K 7K 7K 7K 7K 7K 7K 7K 7K 7K 7K 7K 7K 7K 7K 7K 7K 7K 7K 7K 7K 7K 7K 7K 7K 7K 7K 7K 7K 7K 7K 7K 7K 7K 7K 7K 7K 7K 7K 7K 7K 7K 7K 7K 7K 7K 7K 7K 7K 7K 7K 7K 7K 7K 7K 7K 7K 7K 7K 7K 7K 7K 7K 7K 7K 7K 7K 7K 7K 7K 7K 7K 7K 7K 7K 7K 7K 7K 7K 7K 7K 7K 7K 7K 7K 7K 7K 7K 7K 7K 7K 7K 7K 7K 7K 7K 7K 7K 7K 7K   H7 H7 H7 H7 H7 H7 H7 H7 H7 H7 H7 H7 H7 H7 H7 H7 H7 H7 H7 H7 H7 H7 H7 H7 H7 H7 H7 H7 H7 H7 H7 H7 H7 H7 H7 H7 H7 H7 H7 H7 H7 H7 H7 H7 H7 H7 H7 H7 H7 H7 H7 H7 H7 H7 H7 H7 H7 H7 H7 H7 H7 H7 H7 H7 H7 H7 H7 H7 H7 H7 H7 H7 H7 H7 H7 H7 H7 H7 H7 H7 H7 H7 H7 H7 H7 H7 H7 H7 H7 H7 H7 H7 H7 H7 H7 H7 H7 H7 H7 H7 H7 H7 H7 H7 H7 H7 H7 H7 H7 H7 H7 H7 H7 H7 H7 H7 H7 H7 H7 H7 H7 H7 H7 H7 H7 H7 H7 H7 H7 H7 H7 H7 H7 H7 H7 H7 H7 H7 H7 H7 H7 H7 H7 H7 H7 H7 H7 H7 H7 H7 H7 H7 H7 H7 H7 H7 H7 H7 H7 H7 H7 H7 H7 H7 H7 H7 H7 H7 H7 H7 H7 H7 H7 H7 H7 H7 H7 H7   E7 E7 E7 E7 E7 E7 E7 E7 E7 E7 E7 E7 E7 E7 E7 E7 E7 E7 E7 E7 E7 E7 E7 E7 E7 E7 E7 E7 E7 E7 E7 E7 E7 E7 E7 E7 E7 E7 E7 E7 E7 E7 E7 E7 E7 E7 E7 E7 E7 E7 E7 E7 E7 E7 E7 E7 E7 E7 E7 E7 E7 E7 E7 E7 E7 E7 E7 E7 E7 E7 E7 E7 E7 E7 E7 E7 E7 E7 E7 E7 E7 E7 E7 E7 E7 E7 E7 E7 E7 E7 E7 E7 E7 E7 E7 E7 E7 E7 E7 E7 E7 E7 E7 E7 E7 E7 E7 E7 E7 E7 E7 E7 E7 E7 E7 E7 E7 E7 E7 E7 E7 E7 E7 E7 E7 E7 E7 E7 E7 E7 E7 E7 E7 E7 E7 E7 E7 E7 E7 E7 E7 E7 E7 E7 E7 E7 E7 E7 E7 E7 E7 E7 E7 E7 E7 E7 E7 E7 E7 E7 E7 E7 E7 E7 E7 E7 E7 E7 E7 E7 E7 E7 E7 E7 E7 E7 E7 E7   7J 7J 7J 7J 7J 7J 7J 7J 7J 7J 7J 7J 7J 7J 7J 7J 7J 7J 7J 7J 7J 7J 7J 7J 7J 7J 7J 7J 7J 7J 7J 7J 7J 7J 7J 7J 7J 7J 7J 7J 7J 7J 7J 7J 7J 7J 7J 7J 7J 7J 7J 7J 7J 7J 7J 7J 7J 7J 7J 7J 7J 7J 7J 7J 7J 7J 7J 7J 7J 7J 7J 7J 7J 7J 7J 7J 7J 7J 7J 7J 7J 7J 7J 7J 7J 7J 7J 7J 7J 7J 7J 7J 7J 7J 7J 7J 7J 7J 7J 7J 7J 7J 7J 7J 7J 7J 7J 7J 7J 7J 7J 7J 7J 7J 7J 7J 7J 7J 7J 7J 7J 7J 7J 7J 7J 7J 7J 7J 7J 7J 7J 7J 7J 7J 7J 7J 7J 7J 7J 7J 7J 7J 7J 7J 7J 7J 7J 7J 7J 7J 7J 7J 7J 7J 7J 7J 7J 7J 7J 7J 7J 7J 7J 7J 7J 7J 7J 7J 7J 7J 7J 7J 7J 7J 7J 7J 7J 7J J J 7J 7J 7J 7J 7J 7J 7J 7J 7J 7J 7J 7J 7J 7J 7J 7J 7J 7J 7J 7J 7J 7J 7J 7J 7J 7J 7J 7J 7J 7J 7J 7J 7J 7J 7J 7J 7J 7J 7J 7J 7J 7J 7J 7J 7J 7J 7J 7J 7J 7J 7J 7J 7J 7J 7J 7J 7J 7J 7J 7J 7J 7J 7J 7J 7J 7J 7J 7J 7J 7J 7J 7J 7J 7J 7J 7J 7J 7J 7J 7J 7J 7J 7J 7J 7J 7J 7J 7J 7J 7J 7J 7J 7J 7J 7J 7J 7J 7J 7J 7J 7J 7J 7J 7J 7J 7J 7J 7J 7J 7J 7J 7J 7J 7J 7J 7J 7J 7J 7J 7J 7J 7J 7J 7J 7J 7J 7J 7J 7J 7J 7J 7J 7J 7J 7J 7J 7J 7J 7J 7J 7J 7J 7J 7J 7J 7J 7J 7J 7J 7J 7J 7J 7J 7J 7J 7J 7J 7J 7J 7J 7J 7J 7J 7J 7J 7J 7J 7J 7J 7J 7J 7J 7J 7J 7J 7J 7J 7J  F7 F7 F7 F7 F7 F7 F7 F7 F7 F7 F7 F7 F7 F7 F7 F7 F7 F7 F7 F7 F7 F7 F7 F7 F7 F7 F7 F7 F7 F7 F7 F7 F7 F7 F7 F7 F7 F7 F7 F7 F7 F7 F7 F7 F7 F7 F7 F7 F7 F7 F7 F7 F7 F7 F7 F7 F7 F7 F7 F7 F7 F7 F7 F7 F7 F7 F7 F7 F7 F7 F7 F7 F7 F7 F7 F7 F7 F7 F7 F7 F7 F7 F7 F7 F7 F7 F7 F7 F7 F7 F7 F7 F7 F7 F7 F7 F7 F7 F7 F7 F7 F7 F7 F7 F7 F7 F7 F7 F7 F7 F7 F7 F7 F7 F7 F7 F7 F7 F7 F7 F7 F7 F7 F7 F7 F7 F7 F7 F7 F7 F7 F7 F7 F7 F7 F7 F7 F7 F7 F7 F7 F7 F7 F7 F7 F7 F7 F7 F7 F7 F7 F7 F7 F7 F7 F7 F7 F7 F7 F7 F7 F7 F7 F7 F7 F7 F7 F7 F7 F7 F7 F7 F7 F7 F7 F7 F7 F7   C7 C7 C7 C7 C7 C7 C7 C7 C7 C7 C7 C7 C7 C7 C7 C7 C7 C7 C7 C7 C7 C7 C7 C7 C7 C7 C7 C7 C7 C7 C7 C7 C7 C7 C7 C7 C7 C7 C7 C7 C7 C7 C7 C7 C7 C7 C7 C7 C7 C7 C7 C7 C7 C7 C7 C7 C7 C7 C7 C7 C7 C7 C7 C7 C7 C7 C7 C7 C7 C7 C7 C7 C7 C7 C7 C7 C7 C7 C7 C7 C7 C7 C7 C7 C7 C7 C7 C7 C7 C7 C7 C7 C7 C7 C7 C7 C7 C7 C7 C7 C7 C7 C7 C7 C7 C7 C7 C7 C7 C7 C7 C7 C7 C7 C7 C7 C7 C7 C7 C7 C7 C7 C7 C7 C7 C7 C7 C7 C7 C7 C7 C7 C7 C7 C7 C7 C7 C7 C7 C7 C7 C7 C7 C7 C7 C7 C7 C7 C7 C7 C7 C7 C7 C7 C7 C7 C7 C7 C7 C7 C7 C7 C7 C7 C7 C7 C7 C7 C7 C7 C7 C7 C7 C7 C7 C7 C7 C7   H7 H7 H7 H7 H7 H7 H7 H7 H7 H7 H7 H7 H7 H7 H7 H7 H7 H7 H7 H7 H7 H7 H7 H7 H7 H7 H7 H7 H7 H7 H7 H7 H7 H7 H7 H7 H7 H7 H7 H7 H7 H7 H7 H7 H7 H7 H7 H7 H7 H7 H7 H7 H7 H7 H7 H7 H7 H7 H7 H7 H7 H7 H7 H7 H7 H7 H7 H7 H7 H7 H7 H7 H7 H7 H7 H7 H7 H7 H7 H7 H7 H7 H7 H7 H7 H7 H7 H7 H7 H7 H7 H7 H7 H7 H7 H7 H7 H7 H7 H7 H7 H7 H7 H7 H7 H7 H7 H7 H7 H7 H7 H7 H7 H7 H7 H7 H7 H7 H7 H7 H7 H7 H7 H7 H7 H7 H7 H7 H7 H7 H7 H7 H7 H7 H7 H7 H7 H7 H7 H7 H7 H7 H7 H7 H7 H7 H7 H7 H7 H7 H7 H7 H7 H7 H7 H7 H7 H7 H7 H7 H7 H7 H7 H7 H7 H7 H7 H7 H7 H7 H7 H7 H7 H7 H7 H7 H7 H7   E6 E6 E6 E6 E6 E6 E6 E6 E6 E6 E6 E6 E6 E6 E6 E6 E6 E6 E6 E6 E6 E6 E6 E6 E6 E6 E6 E6 E6 E6 E6 E6 E6 E6 E6 E6 E6 E6 E6 E6 E6 E6 E6 E6 E6 E6 E6 E6 E6 E6 E6 E6 E6 E6 E6 E6 E6 E6 E6 E6 E6 E6 E6 E6 E6 E6 E6 E6 E6 E6 E6 E6 E6 E6 E6 E6 E6 E6 E6 E6 E6 E6 E6 E6 E6 E6 E6 E6 E6 E6 E6 E6 E6 E6 E6 E6 E6 E6 E6 E6 E6 E6 E6 E6 E6 E6 E6 E6 E6 E6 E6 E6 E6 E6 E6 E6 E6 E6 E6 E6 E6 E6 E6 E6 E6 E6 E6 E6 E6 E6 E6 E6 E6 E6 E6 E6 E6 E6 E6 E6 E6 E6 E6 E6 E6 E6 E6 E6 E6 E6 E6 E6 E6 E6 E6 E6 E6 E6 E6 E6 E6 E6 E6 E6 E6 E6 E6 E6 E6 E6 E6 E6 E6 E6 E6 E6 E6 E6   F7 F7 F7 F7 F7 F7 F7 F7 F7 F7 F7 F7 F7 F7 F7 F7 F7 F7 F7 F7 F7 F7 F7 F7 F7 F7 F7 F7 F7 F7 F7 F7 F7 F7 F7 F7 F7 F7 F7 F7 F7 F7 F7 F7 F7 F7 F7 F7 F7 F7 F7 F7 F7 F7 F7 F7 F7 F7 F7 F7 F7 F7 F7 F7 F7 F7 F7 F7 F7 F7 F7 F7 F7 F7 F7 F7 F7 F7 F7 F7 F7 F7 F7 F7 F7 F7 F7 F7 F7 F7 F7 F7 F7 F7 F7 F7 F7 F7 F7 F7 F7 F7 F7 F7 F7 F7 F7 F7 F7 F7 F7 F7 F7 F7 F7 F7 F7 F7 F7 F7 F7 F7 F7 F7 F7 F7 F7 F7 F7 F7 F7 F7 F7 F7 F7 F7 F7 F7 F7 F7 F7 F7 F7 F7 F7 F7 F7 F7 F7 F7 F7 F7 F7 F7 F7 F7 F7 F7 F7 F7 F7 F7 F7 F7 F7 F7 F7 F7 F7 F7 F7 F7 F7 F7 F7 F7 F7 F7 7 7 C7 C7 C7 C7 C7 C7 C7 C7 C7 C7 C7 C7 C7 C7 C7 C7 C7 C7 C7 C7 C7 C7 C7 C7 C7 C7 C7 C7 C7 C7 C7 C7 C7 C7 C7 C7 C7 C7 C7 C7 C7 C7 C7 C7 C7 C7 C7 C7 C7 C7 C7 C7 C7 C7 C7 C7 C7 C7 C7 C7 C7 C7 C7 C7 C7 C7 C7 C7 C7 C7 C7 C7 C7 C7 C7 C7 C7 C7 C7 C7 C7 C7 C7 C7 C7 C7 C7 C7 C7 C7 C7 C7 C7 C7 C7 C7 C7 C7 C7 C7 C7 C7 C7 C7 C7 C7 C7 C7 C7 C7 C7 C7 C7 C7 C7 C7 C7 C7 C7 C7 C7 C7 C7 C7 C7 C7 C7 C7 C7 C7 C7 C7 C7 C7 C7 C7 C7 C7 C7 C7 C7 C7 C7 C7 C7 C7 C7 C7 C7 C7 C7 C7 C7 C7 C7 C7 C7 C7 C7 C7 C7 C7 C7 C7 C7 C7 C7 C7 C7 C7 C7 C7 C7 C7 C7 C7 C7 C7  E2 E2 E2 E2 E2 E2 E2 E2 E2 E2 E2 E2 E2 E2 E2 E2 E2 E2 E2 E2 E2 E2 E2 E2 E2 E2 E2 E2 E2 E2 E2 E2 E2 E2 E2 E2 E2 E2 E2 E2 E2 E2 E2 E2 E2 E2 E2 E2 E2 E2 E2 E2 E2 E2 E2 E2 E2 E2 E2 E2 E2 E2 E2 E2 E2 E2 E2 E2 E2 E2 E2 E2 E2 E2 E2 E2 E2 E2 E2 E2 E2 E2 E2 E2 E2 E2 E2 E2 E2 E2 E2 E2 E2 E2 E2 E2 E2 E2 E2 E2 E2 E2 E2 E2 E2 E2 E2 E2 E2 E2 E2 E2 E2 E2 E2 E2 E2 E2 E2 E2 E2 E2 E2 E2 E2 E2 E2 E2 E2 E2 E2 E2 E2 E2 E2 E2 E2 E2 E2 E2 E2 E2 E2 E2 E2 E2 E2 E2 E2 E2 E2 E2 E2 E2 E2 E2 E2 E2 E2 E2 E2 E2 E2 E2 E2 E2 E2 E2 E2 E2 E2 E2 E2 E2 E2 E2 E2 E2 2 2 >2 >2 >2 >2 >2 >2 >2 >2 >2 >2 >2 >2 >2 >2 >2 >2 >2 >2 >2 >2 >2 >2 >2 >2 >2 >2 >2 >2 >2 >2 >2 >2 >2 >2 >2 >2 >2 >2 >2 >2 >2 >2 >2 >2 >2 >2 >2 >2 >2 >2 >2 >2 >2 >2 >2 >2 >2 >2 >2 >2 >2 >2 >2 >2 >2 >2 >2 >2 >2 >2 >2 >2 >2 >2 >2 >2 >2 >2 >2 >2 >2 >2 >2 >2 >2 >2 >2 >2 >2 >2 >2 >2 >2 >2 >2 >2 >2 >2 >2 >2 >2 >2 >2 >2 >2 >2 >2 >2 >2 >2 >2 >2 >2 >2 >2 >2 >2 >2 >2 >2 >2 >2 >2 >2 >2 >2 >2 >2 >2 >2 >2 >2 >2 >2 >2 >2 >2 >2 >2 >2 >2 >2 >2 >2 >2 >2 >2 >2 >2 >2 >2 >2 >2 >2 >2 >2 >2 >2 >2 >2 >2 >2 >2 >2 >2 >2 >2 >2 >2 >2 >2 >2 >2 >2 >2 >2 >2 >2   @0 @0 @0 @0 @0 @0 @0 @0 @0 @0 @0 @0 @0 @0 @0 @0 @0 @0 @0 @0 @0 @0 @0 @0 @0 @0 @0 @0 @0 @0 @0 @0 @0 @0 @0 @0 @0 @0 @0 @0 @0 @0 @0 @0 @0 @0 @0 @0 @0 @0 @0 @0 @0 @0 @0 @0 @0 @0 @0 @0 @0 @0 @0 @0 @0 @0 @0 @0 @0 @0 @0 @0 @0 @0 @0 @0 @0 @0 @0 @0 @0 @0 @0 @0 @0 @0 @0 @0 @0 @0 @0 @0 @0 @0 @0 @0 @0 @0 @0 @0 @0 @0 @0 @0 @0 @0 @0 @0 @0 @0 @0 @0 @0 @0 @0 @0 @0 @0 @0 @0 @0 @0 @0 @0 @0 @0 @0 @0 @0 @0 @0 @0 @0 @0 @0 @0 @0 @0 @0 @0 @0 @0 @0 @0 @0 @0 @0 @0 @0 @0 @0 @0 @0 @0 @0 @0 @0 @0 @0 @0 @0 @0 @0 @0 @0 @0 @0 @0 @0 @0 @0 @0 @0 @0 @0 @0 @0 @0 0 0 B0 B0 B0 B0 B0 B0 B0 B0 B0 B0 B0 B0 B0 B0 B0 B0 B0 B0 B0 B0 B0 B0 B0 B0 B0 B0 B0 B0 B0 B0 B0 B0 B0 B0 B0 B0 B0 B0 B0 B0 B0 B0 B0 B0 B0 B0 B0 B0 B0 B0 B0 B0 B0 B0 B0 B0 B0 B0 B0 B0 B0 B0 B0 B0 B0 B0 B0 B0 B0 B0 B0 B0 B0 B0 B0 B0 B0 B0 B0 B0 B0 B0 B0 B0 B0 B0 B0 B0 B0 B0 B0 B0 B0 B0 B0 B0 B0 B0 B0 B0 B0 B0 B0 B0 B0 B0 B0 B0 B0 B0 B0 B0 B0 B0 B0 B0 B0 B0 B0 B0 B0 B0 B0 B0 B0 B0 B0 B0 B0 B0 B0 B0 B0 B0 B0 B0 B0 B0 B0 B0 B0 B0 B0 B0 B0 B0 B0 B0 B0 B0 B0 B0 B0 B0 B0 B0 B0 B0 B0 B0 B0 B0 B0 B0 B0 B0 B0 B0 B0 B0 B0 B0 B0 B0 B0 B0 B0 B0   C. C. C. C. C. C. C. C. C. C. C. C. C. C. C. C. C. C. C. C. C. C. C. C. C. C. C. C. C. C. C. C. C. C. C. C. C. C. C. C. C. C. C. C. C. C. C. C. C. C. C. C. C. C. C. C. C. C. C. C. C. C. C. C. C. C. C. C. C. C. C. C. C. C. C. C. C. C. C. C. C. C. C. C. C. C. C. C. C. C. C. C. C. C. C. C. C. C. C. C. C. C. C. C. C. C. C. C. C. C. C. C. C. C. C. C. C. C. C. C. C. C. C. C. C. C. C. C. C. C. C. C. C. C. C. C. C. C. C. C. C. C. C. C. C. C. C. C. C. C. C. C. C. C. C. C. C. C. C. C. C. C. C. C. C. C. C. C. C. C. C. C. C. C. C. C. C. C. . E. E. E. E. E. E. E. E. E. E. E. E. E. E. E. E. E. E. E. E. E. E. E. E. E. E. E. E. E. E. E. E. E. E. E. E. E. E. E. E. E. E. E. E. E. E. E. E. E. E. E. E. E. E. E. E. E. E. E. E. E. E. E. E. E. E. E. E. E. E. E. E. E. E. E. E. E. E. E. E. E. E. E. E. E. E. E. E. E. E. E. E. E. E. E. E. E. E. E. E. E. E. E. E. E. E. E. E. E. E. E. E. E. E. E. E. E. E. E. E. E. E. E. E. E. E. E. E. E. E. E. E. E. E. E. E. E. E. E. E. E. E. E. E. E. E. E. E. E. E. E. E. E. E. E. E. E. E. E. E. E. E. E. E. E. E. E. E. E. E. E. E. E. E. E. E. E. E. .  F2 F2 F2 F2 F2 F2 F2 F2 F2 F2 F2 F2 F2 F2 F2 F2 F2 F2 F2 F2 F2 F2 F2 F2 F2 F2 F2 F2 F2 F2 F2 F2 F2 F2 F2 F2 F2 F2 F2 F2 F2 F2 F2 F2 F2 F2 F2 F2 F2 F2 F2 F2 F2 F2 F2 F2 F2 F2 F2 F2 F2 F2 F2 F2 F2 F2 F2 F2 F2 F2 F2 F2 F2 F2 F2 F2 F2 F2 F2 F2 F2 F2 F2 F2 F2 F2 F2 F2 F2 F2 F2 F2 F2 F2 F2 F2 F2 F2 F2 F2 F2 F2 F2 F2 F2 F2 F2 F2 F2 F2 F2 F2 F2 F2 F2 F2 F2 F2 F2 F2 F2 F2 F2 F2 F2 F2 F2 F2 F2 F2 F2 F2 F2 F2 F2 F2 F2 F2 F2 F2 F2 F2 F2 F2 F2 F2 F2 F2 F2 F2 F2 F2 F2 F2 F2 F2 F2 F2 F2 F2 F2 F2 F2 F2 F2 F2 F2 F2 F2 F2 F2 F2 F2 F2 F2 F2 F2 F2 2 2 C2 C2 C2 C2 C2 C2 C2 C2 C2 C2 C2 C2 C2 C2 C2 C2 C2 C2 C2 C2 C2 C2 C2 C2 C2 C2 C2 C2 C2 C2 C2 C2 C2 C2 C2 C2 C2 C2 C2 C2 C2 C2 C2 C2 C2 C2 C2 C2 C2 C2 C2 C2 C2 C2 C2 C2 C2 C2 C2 C2 C2 C2 C2 C2 C2 C2 C2 C2 C2 C2 C2 C2 C2 C2 C2 C2 C2 C2 C2 C2 C2 C2 C2 C2 C2 C2 C2 C2 C2 C2 C2 C2 C2 C2 C2 C2 C2 C2 C2 C2 C2 C2 C2 C2 C2 C2 C2 C2 C2 C2 C2 C2 C2 C2 C2 C2 C2 C2 C2 C2 C2 C2 C2 C2 C2 C2 C2 C2 C2 C2 C2 C2 C2 C2 C2 C2 C2 C2 C2 C2 C2 C2 C2 C2 C2 C2 C2 C2 C2 C2 C2 C2 C2 C2 C2 C2 C2 C2 C2 C2 C2 C2 C2 C2 C2 C2 C2 C2 C2 C2 C2 C2 C2 C2 C2 C2 C2 C2   K* K* K* K* K* K* K* K* K* K* K* K* K* K* K* K* K* K* K* K* K* K* K* K* K* K* K* K* K* K* K* K* K* K* K* K* K* K* K* K* K* K* K* K* K* K* K* K* K* K* K* K* K* K* K* K* K* K* K* K* K* K* K* K* K* K* K* K* K* K* K* K* K* K* K* K* K* K* K* K* K* K* K* K* K* K* K* K* K* K* K* K* K* K* K* K* K* K* K* K* K* K* K* K* K* K* K* K* K* K* K* K* K* K* K* K* K* K* K* K* K* K* K* K* K* K* K* K* K* K* K* K* K* K* K* K* K* K* K* K* K* K* K* K* K* K* K* K* K* K* K* K* K* K* K* K* K* K* K* K* K* K* K* K* K* K* K* K* K* K* K* K* K* K* K* K* K* K* * * H* H* H* H* H* H* H* H* H* H* H* H* H* H* H* H* H* H* H* H* H* H* H* H* H* H* H* H* H* H* H* H* H* H* H* H* H* H* H* H* H* H* H* H* H* H* H* H* H* H* H* H* H* H* H* H* H* H* H* H* H* H* H* H* H* H* H* H* H* H* H* H* H* H* H* H* H* H* H* H* H* H* H* H* H* H* H* H* H* H* H* H* H* H* H* H* H* H* H* H* H* H* H* H* H* H* H* H* H* H* H* H* H* H* H* H* H* H* H* H* H* H* H* H* H* H* H* H* H* H* H* H* H* H* H* H* H* H* H* H* H* H* H* H* H* H* H* H* H* H* H* H* H* H* H* H* H* H* H* H* H* H* H* H* H* H* H* H* H* H* H* H* H* H* H* H* H* H*   J2 J2 J2 J2 J2 J2 J2 J2 J2 J2 J2 J2 J2 J2 J2 J2 J2 J2 J2 J2 J2 J2 J2 J2 J2 J2 J2 J2 J2 J2 J2 J2 J2 J2 J2 J2 J2 J2 J2 J2 J2 J2 J2 J2 J2 J2 J2 J2 J2 J2 J2 J2 J2 J2 J2 J2 J2 J2 J2 J2 J2 J2 J2 J2 J2 J2 J2 J2 J2 J2 J2 J2 J2 J2 J2 J2 J2 J2 J2 J2 J2 J2 J2 J2 J2 J2 J2 J2 J2 J2 J2 J2 J2 J2 J2 J2 J2 J2 J2 J2 J2 J2 J2 J2 J2 J2 J2 J2 J2 J2 J2 J2 J2 J2 J2 J2 J2 J2 J2 J2 J2 J2 J2 J2 J2 J2 J2 J2 J2 J2 J2 J2 J2 J2 J2 J2 J2 J2 J2 J2 J2 J2 J2 J2 J2 J2 J2 J2 J2 J2 J2 J2 J2 J2 J2 J2 J2 J2 J2 J2 J2 J2 J2 J2 J2 J2 J2 J2 J2 J2 J2 J2 J2 J2 J2 J2 J2 J2 2 F2 F2 F2 F2 F2 F2 F2 F2 F2 F2 F2 F2 F2 F2 F2 F2 F2 F2 F2 F2 F2 F2 F2 F2 F2 F2 F2 F2 F2 F2 F2 F2 F2 F2 F2 F2 F2 F2 F2 F2 F2 F2 F2 F2 F2 F2 F2 F2 F2 F2 F2 F2 F2 F2 F2 F2 F2 F2 F2 F2 F2 F2 F2 F2 F2 F2 F2 F2 F2 F2 F2 F2 F2 F2 F2 F2 F2 F2 F2 F2 F2 F2 F2 F2 F2 F2 F2 F2 F2 F2 F2 F2 F2 F2 F2 F2 F2 F2 F2 F2 F2 F2 F2 F2 F2 F2 F2 F2 F2 F2 F2 F2 F2 F2 F2 F2 F2 F2 F2 F2 F2 F2 F2 F2 F2 F2 F2 F2 F2 F2 F2 F2 F2 F2 F2 F2 F2 F2 F2 F2 F2 F2 F2 F2 F2 F2 F2 F2 F2 F2 F2 F2 F2 F2 F2 F2 F2 F2 F2 F2 F2 F2 F2 F2 F2 F2 F2 F2 F2 F2 F2 F2 F2 F2 F2 F2 F2 F2 2  H+ H+ H+ H+ H+ H+ H+ H+ H+ H+ H+ H+ H+ H+ H+ H+ H+ H+ H+ H+ H+ H+ H+ H+ H+ H+ H+ H+ H+ H+ H+ H+ H+ H+ H+ H+ H+ H+ H+ H+ H+ H+ H+ H+ H+ H+ H+ H+ H+ H+ H+ H+ H+ H+ H+ H+ H+ H+ H+ H+ H+ H+ H+ H+ H+ H+ H+ H+ H+ H+ H+ H+ H+ H+ H+ H+ H+ H+ H+ H+ H+ H+ H+ H+ H+ H+ H+ H+ H+ H+ H+ H+ H+ H+ H+ H+ H+ H+ H+ H+ H+ H+ H+ H+ H+ H+ H+ H+ H+ H+ H+ H+ H+ H+ H+ H+ H+ H+ H+ H+ H+ H+ H+ H+ H+ H+ H+ H+ H+ H+ H+ H+ H+ H+ H+ H+ H+ H+ H+ H+ H+ H+ H+ H+ H+ H+ H+ H+ H+ H+ H+ H+ H+ H+ H+ H+ H+ H+ H+ H+ H+ H+ H+ H+ H+ H+ H+ H+ H+ H+ H+ H+ H+ H+ H+ H+ H+ H+ + + E+ E+ E+ E+ E+ E+ E+ E+ E+ E+ E+ E+ E+ E+ E+ E+ E+ E+ E+ E+ E+ E+ E+ E+ E+ E+ E+ E+ E+ E+ E+ E+ E+ E+ E+ E+ E+ E+ E+ E+ E+ E+ E+ E+ E+ E+ E+ E+ E+ E+ E+ E+ E+ E+ E+ E+ E+ E+ E+ E+ E+ E+ E+ E+ E+ E+ E+ E+ E+ E+ E+ E+ E+ E+ E+ E+ E+ E+ E+ E+ E+ E+ E+ E+ E+ E+ E+ E+ E+ E+ E+ E+ E+ E+ E+ E+ E+ E+ E+ E+ E+ E+ E+ E+ E+ E+ E+ E+ E+ E+ E+ E+ E+ E+ E+ E+ E+ E+ E+ E+ E+ E+ E+ E+ E+ E+ E+ E+ E+ E+ E+ E+ E+ E+ E+ E+ E+ E+ E+ E+ E+ E+ E+ E+ E+ E+ E+ E+ E+ E+ E+ E+ E+ E+ E+ E+ E+ E+ E+ E+ E+ E+ E+ E+ E+ E+ E+ E+ E+ E+ E+ E+ E+ E+ E+ E+ E+ E+   F2 F2 F2 F2 F2 F2 F2 F2 F2 F2 F2 F2 F2 F2 F2 F2 F2 F2 F2 F2 F2 F2 F2 F2 F2 F2 F2 F2 F2 F2 F2 F2 F2 F2 F2 F2 F2 F2 F2 F2 F2 F2 F2 F2 F2 F2 F2 F2 F2 F2 F2 F2 F2 F2 F2 F2 F2 F2 F2 F2 F2 F2 F2 F2 F2 F2 F2 F2 F2 F2 F2 F2 F2 F2 F2 F2 F2 F2 F2 F2 F2 F2 F2 F2 F2 F2 F2 F2 F2 F2 F2 F2 F2 F2 F2 F2 F2 F2 F2 F2 F2 F2 F2 F2 F2 F2 F2 F2 F2 F2 F2 F2 F2 F2 F2 F2 F2 F2 F2 F2 F2 F2 F2 F2 F2 F2 F2 F2 F2 F2 F2 F2 F2 F2 F2 F2 F2 F2 F2 F2 F2 F2 F2 F2 F2 F2 F2 F2 F2 F2 F2 F2 F2 F2 F2 F2 F2 F2 F2 F2 F2 F2 F2 F2 F2 F2 F2 F2 F2 F2 F2 F2 F2 F2 F2 F2 F2 F2 2 2 C2 C2 C2 C2 C2 C2 C2 C2 C2 C2 C2 C2 C2 C2 C2 C2 C2 C2 C2 C2 C2 C2 C2 C2 C2 C2 C2 C2 C2 C2 C2 C2 C2 C2 C2 C2 C2 C2 C2 C2 C2 C2 C2 C2 C2 C2 C2 C2 C2 C2 C2 C2 C2 C2 C2 C2 C2 C2 C2 C2 C2 C2 C2 C2 C2 C2 C2 C2 C2 C2 C2 C2 C2 C2 C2 C2 C2 C2 C2 C2 C2 C2 C2 C2 C2 C2 C2 C2 C2 C2 C2 C2 C2 C2 C2 C2 C2 C2 C2 C2 C2 C2 C2 C2 C2 C2 C2 C2 C2 C2 C2 C2 C2 C2 C2 C2 C2 C2 C2 C2 C2 C2 C2 C2 C2 C2 C2 C2 C2 C2 C2 C2 C2 C2 C2 C2 C2 C2 C2 C2 C2 C2 C2 C2 C2 C2 C2 C2 C2 C2 C2 C2 C2 C2 C2 C2 C2 C2 C2 C2 C2 C2 C2 C2 C2 C2 C2 C2 C2 C2 C2 C2 C2 C2 C2 C2 C2 C2  &E &E &E &E &E &E &E &E &E &E &E &E &E &E &E &E &E &E &E &E &E &E &E &E &E &E &E &E &E &E &E &E &E &E &E &E &E &E &E &E &E &E &E &E &E &E &E &E &E &E &E &E &E &E &E &E &E &E &E &E &E &E &E &E &E &E &E &E &E &E &E &E &E &E &E &E &E &E &E &E &E &E &E &E &E &E &E &E &E &E &E &E &E &E &E &E &E &E &E &E &E &E &E &E &E &E &E &E &E &E &E &E &E &E &E &E &E &E &E &E &E &E &E &E &E &E &E &E &E &E &E &E &E &E &E &E &E &E &E &E &E &E &E &E &E &E &E &E &E &E &E &E &E &E &E &E &E &E &E &E &E &E &E &E &E &E &E &E &E &E &E &E &E &E &E &E &E &E &E &E &E &E &E &E &E &E &E &E &E &E &E &E &E &E &E &E &E &E &E &E &E &E &E &E &E &E &E &E &E &E &E &E &E &E &E &E &E &E &E &E &E &E &E &E &E &E &E &E &E &E &E &E &E &E &E &E &E &E &E &E &E &E &E &E &E &E &E &E &E &E &E &E &E &E &E &E &E &E &E &E &E &E &E &E &E &E &E &E &E &E &E &E &E &E &E &E &E &E &E &E &E &E &E &E &E &E &E &E &E &E &E &E &E &E &E &E &E &E &E &E &E &E &E &E &E &E &E &E &E &E &E &E &E &E &E &E &E &E &E &E &E &E &E &E &E &E &E &E &E &E &E &E &E &E &E &E &E &E &E &E &E &E &E &E &E &E &E &E &E &E &E &E &E &E &E &E &E &E E E E2> E2> E2> E2> E2> E2> E2> E2> E2> E2> E2> E2> E2> E2> E2> E2> E2> E2> E2> E2> E2> E2> E2> E2> E2> E2> E2> E2> E2> E2> E2> E2> E2> E2> E2> E2> E2> E2> E2> E2> 2> 2> 2> 2> 2> 2> 2> 2> 2> 2> 2> 2> 2> 2> 2> 2> 2> 2> 2> 2> 2> 2> 2> 2> 2> 2> 2> 2> 2> 2> 2> 2> 2> 2> 2> 2> 2> 2> 2> 2> 2> 2> 2> 2> 2> 2> 2> 2> 2> 2> 2> 2> 2> 2> 2> 2> 2> 2> 2> 2> 2> 2> 2> 2> 2> 2> 2> 2> 2> 2> 2> 2> 2> 2> 2> 2> 2> 2> 2> 2> 2> 2> 2> 2> 2> 2> 2> 2> 2> 2> 2> 2> 2> 2> 2> 2> 2> 2> 2> 2> 2> 2> 2> 2> 2> 2> 2> 2> 2> 2> 2> 2> 2> 2> 2> 2> 2> 2> 2> 2> 2> 2> 2> 2> 2> 2> 2> 2> 2> 2> 2> 2> 2> 2> 2> 2> 2> 2> > > >0 >0 >0 >0 >0 >0 >0 >0 >0 >0 >0 >0 >0 >0 >0 >0 >0 >0 >0 >0 >0 >0 >0 >0 >0 >0 >0 >0 >0 >0 >0 >0 >0 >0 >0 >0 >0 >0 >0 >0 >0 >0 >0 >0 >0 >0 >0 >0 >0 >0 >0 >0 >0 >0 >0 >0 >0 >0 >0 >0 >0 >0 >0 >0 >0 >0 >0 >0 >0 >0 >0 >0 >0 >0 >0 >0 >0 >0 >0 >0 >0 >0 >0 >0 >0 >0 >0 >0 >0 >0 >0 >0 >0 >0 >0 >0 >0 >0 >0 >0 0 0 0 0 0 0 0 0 0 0 0 0 0 0 0 0 0 0 0 0 0 0 0 0 0 0 0 0 0 0 0 0 0 0 0 0 0 0 0 0 0 0 0 0 0 0 0 0 0 0 0 0 0 0 0 0 0 0 0 0 0 0 0 0 0 0 0 0 0 0 0 0 0 0 0 0 0 0   C. C. C. C. C. C. C. C. C. C. C. C. C. C. C. C. C. C. C. C. C. C. C. C. C. C. C. C. C. C. C. C. C. C. C. C. C. C. C. C. C. C. C. C. C. C. C. C. C. C. C. C. C. C. C. C. C. C. C. C. C. C. C. C. C. C. C. C. C. C. C. C. C. C. C. C. C. C. C. C. C. C. C. C. C. C. C. C. C. C. C. C. C. C. C. C. C. C. C. C. C. C. C. C. C. C. C. C. C. C. C. C. C. C. C. C. C. C. C. C. C. C. C. C. C. C. C. C. C. C. C. C. C. C. C. C. C. C. C. C. C. C. C. C. C. C. C. C. C. C. C. C. C. C. C. C. C. C. C. C. C. C. C. C. C. C. C. C. C. C. C. C. C. C. C. C. C. C. C. C. C. C. C. C. C. C. C. C. C. C. C. C. C. C. C. C. C. C. C. C. C. C. C. C. C. C. C. C. C. C. C. C. C. C. C. C. C. C. C. C. C. C. C. C. C. C. C. C. C. C. C. C. C. C. C. C. C. C. C. C. C. C. C. C. C. C. C. C. C. C. C. C. C. C. C. C. C. C. C. C. C. C. C. C. C. C. C. C. C. C. C. C. C. C. C. C. C. C. C. C. C. C. C. C. C. C. C. C. C. C. C. C. C. C. C. C. C. C. C. C. C. C. C. C. C. C. C. C. C. C. C. C. C. C. C. C. C. C. C. C. C. C. C. C. C. C. C. C. C. C. C. C. C. C. C. C. C. C. C. C. C. C. C. C. C. C. C. C. C. C. C. C. C. C. C. C. C. C.  F- F- F- F- F- F- F- F- F- F- F- F- F- F- F- F- F- F- F- F- F- F- F- F- F- F- F- F- F- F- F- F- F- F- F- F- F- F- F- F- F- F- F- F- F- F- F- F- F- F- F- F- F- F- F- F- F- F- F- F- F- F- F- F- F- F- F- F- F- F- F- F- F- F- F- F- F- F- F- F- F- F- F- F- F- F- F- F- F- F- F- F- F- F- F- F- F- F- F- F- F- F- F- F- F- F- F- F- F- F- F- F- F- F- F- F- F- F- F- F- F- F- F- F- F- F- F- F- F- F- F- F- F- F- F- F- F- F- F- F- F- F- F- F- F- F- F- F- F- F- F- F- F- F- F- F- F- F- F- F- F- F- F- F- F- F- F- F- F- F- F- F- F- F- F- F- F- F- - - E- E- E- E- E- E- E- E- E- E- E- E- E- E- E- E- E- E- E- E- E- E- E- E- E- E- E- E- E- E- E- E- E- E- E- E- E- E- E- E- E- E- E- E- E- E- E- E- E- E- E- E- E- E- E- E- E- E- E- E- E- E- E- E- E- E- E- E- E- E- E- E- E- E- E- E- E- E- E- E- E- E- E- E- E- E- E- E- E- E- E- E- E- E- E- E- E- E- E- E- E- E- E- E- E- E- E- E- E- E- E- E- E- E- E- E- E- E- E- E- E- E- E- E- E- E- E- E- E- E- E- E- E- E- E- E- E- E- E- E- E- E- E- E- E- E- E- E- E- E- E- E- E- E- E- E- E- E- E- E- E- E- E- E- E- E- E- E- E- E- E- E- E- E- E- E- E- E-   F+ F+ F+ F+ F+ F+ F+ F+ F+ F+ F+ F+ F+ F+ F+ F+ F+ F+ F+ F+ F+ F+ F+ F+ F+ F+ F+ F+ F+ F+ F+ F+ F+ F+ F+ F+ F+ F+ F+ F+ F+ F+ F+ F+ F+ F+ F+ F+ F+ F+ F+ F+ F+ F+ F+ F+ F+ F+ F+ F+ F+ F+ F+ F+ F+ F+ F+ F+ F+ F+ F+ F+ F+ F+ F+ F+ F+ F+ F+ F+ F+ F+ F+ F+ F+ F+ F+ F+ F+ F+ F+ F+ F+ F+ F+ F+ F+ F+ F+ F+ F+ F+ F+ F+ F+ F+ F+ F+ F+ F+ F+ F+ F+ F+ F+ F+ F+ F+ F+ F+ F+ F+ F+ F+ F+ F+ F+ F+ F+ F+ F+ F+ F+ F+ F+ F+ F+ F+ F+ F+ F+ F+ F+ F+ F+ F+ F+ F+ F+ F+ F+ F+ F+ F+ F+ F+ F+ F+ F+ F+ F+ F+ F+ F+ F+ F+ F+ F+ F+ F+ F+ F+ F+ F+ F+ F+ F+ F+ F+ F+ FB+ FB+ FB+ FB+ FB+ FB+ FB+ FB+ FB+ FB+ FB+ FB+ FB+ FB+ FB+ FB+ FB+ FB+ FB+ FB+ FB+ FB+ FB+ FB+ FB+ FB+ FB+ FB+ FB+ FB+ FB+ FB+ FB+ FB+ FB+ FB+ FB+ FB+ FB+ FB+ B+ B+ B+ B+ B+ B+ B+ B+ B+ B+ B+ B+ B+ B+ B+ B+ B+ B+ B+ B+ B+ B+ B+ B+ B+ B+ B+ B+ B+ B+ B+ B+ B+ B+ B+ B+ B+ B+ B+ B+ B+ B+ B+ B+ B+ B+ B+ B+ B+ B+ B+ B+ B+ B+ B+ B+ B+ B+ B+ B+ B+ B+ B+ B+ B+ B+ B+ B+ B+ B+ B+ B+ B+ B+ B+ B+ B+ B+ B+ B+ B+ B+ B+ B+ B+ B+ B+ B+ B+ B+ B+ B+ B+ B+ B+ B+ B+ B+ B+ B+ B+ B+ B+ B+ B+ B+ B+ B+ B+ B+ B+ B+ B+ B+ B+ B+ B+ B+ B+ B+ B+ B+ B+ B+ B+ B+ B+ B+ B+ B+ B+ B+ B+ B+ B+ B+ B+ B+ + + +C +C +C +C +C +C +C +C +C +C +C +C +C +C +C +C +C +C +C +C +C +C +C +C +C +C +C +C +C +C +C +C +C +C +C +C +C +C +C +C +C +C +C +C +C +C +C +C +C +C +C +C +C +C +C +C +C +C +C +C +C +C +C +C +C +C +C +C +C +C +C +C +C +C +C +C +C +C +C +C +C +C +C +C +C +C +C +C +C +C C C C C C C C C C C C C C C C C C C C C C C C C C C C C C C C C C C C C C C C C C C C C C C C C C C C C C C C C C C C C C C C C C C C C C C C C C C C C C C C C C C C C C C C C  > > > > > > > > > > > > > > > > > > > > > > > > > > > > > > > > > > > > > > > > > > > > > > > > > > > > > > > > > > > > > > > > > > > > > > > > > > > > > > > > > > > > > > > > > > > > > > > > > > > > > > > > > > > > > > > > > > > > > > > > > > > > > > > > > > > > > > > > > > > > > > > > > > > > > > > > > > > > > > > > > > > > > > > > > > > > > > > > > >   G) G) G) G) G) G) G) G) G) G) G) G) G) G) G) G) G) G) G) G) G) G) G) G) G) G) G) G) G) G) G) G) G) G) G) G) G) G) G) G) G) G) G) G) G) G) G) G) G) G) G) G) G) G) G) G) G) G) G) G) G) G) G) G) G) G) G) G) G) G) G) G) G) G) G) G) G) G) G) G) G) G) G) G) G) G) G) G) G) G) G) G) G) G) G) G) G) G) G) G) G) G) G) G) G) G) G) G) G) G) G) G) G) G) G) G) G) G) G) G) G) G) G) G) G) G) G) G) G) G) G) G) G) G) G) G) G) G) G) G) G) G) G) G) G) G) G) G) G) G) G) G) G) G) G) G) G) G) G) G) G) G) G) G) G) G) G) G) G) G) G) G) G) G) G) G) G) G) G) G) GA) GA) GA) GA) GA) GA) GA) GA) GA) GA) GA) GA) GA) GA) GA) GA) GA) GA) GA) GA) GA) GA) GA) GA) GA) GA) GA) GA) GA) GA) GA) GA) GA) GA) GA) GA) GA) GA) GA) GA) A) A) A) A) A) A) A) A) A) A) A) A) A) A) A) A) A) A) A) A) A) A) A) A) A) A) A) A) A) A) A) A) A) A) A) A) A) A) A) A) A) A) A) A) A) A) A) A) A) A) A) A) A) A) A) A) A) A) A) A) A) A) A) A) A) A) A) A) A) A) A) A) A) A) A) A) A) A) A) A) A) A) A) A) A) A) A) A) A) A) A) A) A) A) A) A) A) A) A) A) A) A) A) A) A) A) A) A) A) A) A) A) A) A) A) A) A) A) A) A) A) A) A) A) A) A) A) A) A) A) A) A) A) A) A) A) A) A) ) ) )C )C )C )C )C )C )C )C )C )C )C )C )C )C )C )C )C )C )C )C )C )C )C )C )C )C )C )C )C )C )C )C )C )C )C )C )C )C )C )C )C )C )C )C )C )C )C )C )C )C )C )C )C )C )C )C )C )C )C )C )C )C )C )C )C )C )C )C )C )C )C )C )C )C )C )C )C )C )C )C )C )C )C )C )C )C )C )C )C )C C C C C C C C C C C C C C C C C C C C C C C C C C C C C C C C C C C C C C C C C C C C C C C C C C C C C C C C C C C C C C C C C C C C C C C C C C C C C C C C C C C C C C C C C   > > > > > > > > > > > > > > > > > > > > > > > > > > > > > > > > > > > > > > > > > > > > > > > > > > > > > > > > > > > > > > > > > > > > > > > > > > > > > > > > > > > > > > > > > > > > > > > > > > > > > > > > > > > > > > > > > > > > > > > > > > > > > > > > > > > > > > > > > > > > > > > > > > > > > > > > > > > > > > > > > > > > > > > > > > > > > > > > > >   H' H' H' H' H' H' H' H' H' H' H' H' H' H' H' H' H' H' H' H' H' H' H' H' H' H' H' H' H' H' H' H' H' H' H' H' H' H' H' H' H' H' H' H' H' H' H' H' H' H' H' H' H' H' H' H' H' H' H' H' H' H' H' H' H' H' H' H' H' H' H' H' H' H' H' H' H' H' H' H' H' H' H' H' H' H' H' H' H' H' H' H' H' H' H' H' H' H' H' H' H' H' H' H' H' H' H' H' H' H' H' H' H' H' H' H' H' H' H' H' H' H' H' H' H' H' H' H' H' H' H' H' H' H' H' H' H' H' H' H' H' H' H' H' H' H' H' H' H' H' H' H' H' H' H' H' H' H' H' H' H' H' H' H' H' H' H' H' H' H' H' H' H' H' H' H' H' H' H' H>' H>' H>' H>' H>' H>' H>' H>' H>' H>' H>' H>' H>' H>' H>' H>' H>' H>' H>' H>' H>' H>' H>' H>' H>' H>' H>' H>' H>' H>' H>' H>' H>' H>' H>' H>' H>' H>' H>' H>' H>' >' >' >' >' >' >' >' >' >' >' >' >' >' >' >' >' >' >' >' >' >' >' >' >' >' >' >' >' >' >' >' >' >' >' >' >' >' >' >' >' >' >' >' >' >' >' >' >' >' >' >' >' >' >' >' >' >' >' >' >' >' >' >' >' >' >' >' >' >' >' >' >' >' >' >' >' >' >' >' >' >' >' >' >' >' >' >' >' >' >' >' >' >' >' >' >' >' >' >' >' >' >' >' >' >' >' >' >' >' >' >' >' >' >' >' >' >' >' >' >' >' >' >' >' >' >' >' >' >' >' >' >' >' >' >' >' >' '  ?7 ?7 ?7 ?7 ?7 ?7 ?7 ?7 ?7 ?7 ?7 ?7 ?7 ?7 ?7 ?7 ?7 ?7 ?7 ?7 ?7 ?7 ?7 ?7 ?7 ?7 ?7 ?7 ?7 ?7 ?7 ?7 ?7 ?7 ?7 ?7 ?7 ?7 ?7 ?7 ?7 ?7 ?7 ?7 ?7 ?7 ?7 ?7 ?7 ?7 ?7 ?7 ?7 ?7 ?7 ?7 ?7 ?7 ?7 ?7 ?7 ?7 ?7 ?7 ?7 ?7 ?7 ?7 ?7 ?7 ?7 ?7 ?7 ?7 ?7 ?7 ?7 ?7 ?7 ?7 ?7 ?7 ?7 ?7 ?7 ?7 ?7 ?7 ?7 ?7 ?7 ?7 ?7 ?7 ?7 ?7 ?7 ?7 ?7 ?7 ?7 ?7 ?7 ?7 ?7 ?7 ?7 ?7 ?7 ?7 ?7 ?7 ?7 ?7 ?7 ?7 ?7 ?7 ?7 ?7 ?7 ?7 ?7 ?7 ?7 ?7 ?7 ?7 ?7 ?7 ?7 ?7 ?7 ?7 ?7 ?7 ?7 ?7 ?7 ?7 ?7 ?7 ?7 ?7 ?7 ?7 ?7 ?7 ?7 ?7 ?7 ?7 ?7 ?7 ?7 ?7 ?7 ?7 ?7 ?7 ?7 ?7 ?7 ?7 ?7 ?7 ?7 ?7 ?7 ?7 ?7 ?7 ?7 ?7 ?7 ?7 ?7 ?7   C5 C5 C5 C5 C5 C5 C5 C5 C5 C5 C5 C5 C5 C5 C5 C5 C5 C5 C5 C5 C5 C5 C5 C5 C5 C5 C5 C5 C5 C5 C5 C5 C5 C5 C5 C5 C5 C5 C5 C5 C5 C5 C5 C5 C5 C5 C5 C5 C5 C5 C5 C5 C5 C5 C5 C5 C5 C5 C5 C5 C5 C5 C5 C5 C5 C5 C5 C5 C5 C5 C5 C5 C5 C5 C5 C5 C5 C5 C5 C5 C5 C5 C5 C5 C5 C5 C5 C5 C5 C5 C5 C5 C5 C5 C5 C5 C5 C5 C5 C5 C5 C5 C5 C5 C5 C5 C5 C5 C5 C5 C5 C5 C5 C5 C5 C5 C5 C5 C5 C5 C5 C5 C5 C5 C5 C5 C5 C5 C5 C5 C5 C5 C5 C5 C5 C5 C5 C5 C5 C5 C5 C5 C5 C5 C5 C5 C5 C5 C5 C5 C5 C5 C5 C5 C5 C5 C5 C5 C5 C5 C5 C5 C5 C5 C5 C5 C5 C5 C5 C5 C5 C5 C5 C5 C5 C5 C5 C5   H3 H3 H3 H3 H3 H3 H3 H3 H3 H3 H3 H3 H3 H3 H3 H3 H3 H3 H3 H3 H3 H3 H3 H3 H3 H3 H3 H3 H3 H3 H3 H3 H3 H3 H3 H3 H3 H3 H3 H3 H3 H3 H3 H3 H3 H3 H3 H3 H3 H3 H3 H3 H3 H3 H3 H3 H3 H3 H3 H3 H3 H3 H3 H3 H3 H3 H3 H3 H3 H3 H3 H3 H3 H3 H3 H3 H3 H3 H3 H3 H3 H3 H3 H3 H3 H3 H3 H3 H3 H3 H3 H3 H3 H3 H3 H3 H3 H3 H3 H3 H3 H3 H3 H3 H3 H3 H3 H3 H3 H3 H3 H3 H3 H3 H3 H3 H3 H3 H3 H3 H3 H3 H3 H3 H3 H3 H3 H3 H3 H3 H3 H3 H3 H3 H3 H3 H3 H3 H3 H3 H3 H3 H3 H3 H3 H3 H3 H3 H3 H3 H3 H3 H3 H3 H3 H3 H3 H3 H3 H3 H3 H3 H3 H3 H3 H3 H3 H3 H3 H3 H3 H3 H3 H3 H3 H3 H3 H3 3 3 C3 C3 C3 C3 C3 C3 C3 C3 C3 C3 C3 C3 C3 C3 C3 C3 C3 C3 C3 C3 C3 C3 C3 C3 C3 C3 C3 C3 C3 C3 C3 C3 C3 C3 C3 C3 C3 C3 C3 C3 C3 C3 C3 C3 C3 C3 C3 C3 C3 C3 C3 C3 C3 C3 C3 C3 C3 C3 C3 C3 C3 C3 C3 C3 C3 C3 C3 C3 C3 C3 C3 C3 C3 C3 C3 C3 C3 C3 C3 C3 C3 C3 C3 C3 C3 C3 C3 C3 C3 C3 C3 C3 C3 C3 C3 C3 C3 C3 C3 C3 C3 C3 C3 C3 C3 C3 C3 C3 C3 C3 C3 C3 C3 C3 C3 C3 C3 C3 C3 C3 C3 C3 C3 C3 C3 C3 C3 C3 C3 C3 C3 C3 C3 C3 C3 C3 C3 C3 C3 C3 C3 C3 C3 C3 C3 C3 C3 C3 C3 C3 C3 C3 C3 C3 C3 C3 C3 C3 C3 C3 C3 C3 C3 C3 C3 C3 C3 C3 C3 C3 C3 C3 C3 C3 C3 C3 C3 C3  J2 J2 J2 J2 J2 J2 J2 J2 J2 J2 J2 J2 J2 J2 J2 J2 J2 J2 J2 J2 J2 J2 J2 J2 J2 J2 J2 J2 J2 J2 J2 J2 J2 J2 J2 J2 J2 J2 J2 J2 J2 J2 J2 J2 J2 J2 J2 J2 J2 J2 J2 J2 J2 J2 J2 J2 J2 J2 J2 J2 J2 J2 J2 J2 J2 J2 J2 J2 J2 J2 J2 J2 J2 J2 J2 J2 J2 J2 J2 J2 J2 J2 J2 J2 J2 J2 J2 J2 J2 J2 J2 J2 J2 J2 J2 J2 J2 J2 J2 J2 J2 J2 J2 J2 J2 J2 J2 J2 J2 J2 J2 J2 J2 J2 J2 J2 J2 J2 J2 J2 J2 J2 J2 J2 J2 J2 J2 J2 J2 J2 J2 J2 J2 J2 J2 J2 J2 J2 J2 J2 J2 J2 J2 J2 J2 J2 J2 J2 J2 J2 J2 J2 J2 J2 J2 J2 J2 J2 J2 J2 J2 J2 J2 J2 J2 J2 J2 J2 J2 J2 J2 J2 J2 J2 J2 J2 J2 J2 2 2 C2 C2 C2 C2 C2 C2 C2 C2 C2 C2 C2 C2 C2 C2 C2 C2 C2 C2 C2 C2 C2 C2 C2 C2 C2 C2 C2 C2 C2 C2 C2 C2 C2 C2 C2 C2 C2 C2 C2 C2 C2 C2 C2 C2 C2 C2 C2 C2 C2 C2 C2 C2 C2 C2 C2 C2 C2 C2 C2 C2 C2 C2 C2 C2 C2 C2 C2 C2 C2 C2 C2 C2 C2 C2 C2 C2 C2 C2 C2 C2 C2 C2 C2 C2 C2 C2 C2 C2 C2 C2 C2 C2 C2 C2 C2 C2 C2 C2 C2 C2 C2 C2 C2 C2 C2 C2 C2 C2 C2 C2 C2 C2 C2 C2 C2 C2 C2 C2 C2 C2 C2 C2 C2 C2 C2 C2 C2 C2 C2 C2 C2 C2 C2 C2 C2 C2 C2 C2 C2 C2 C2 C2 C2 C2 C2 C2 C2 C2 C2 C2 C2 C2 C2 C2 C2 C2 C2 C2 C2 C2 C2 C2 C2 C2 C2 C2 C2 C2 C2 C2 C2 C2 C2 C2 C2 C2 C2 C2   K0 K0 K0 K0 K0 K0 K0 K0 K0 K0 K0 K0 K0 K0 K0 K0 K0 K0 K0 K0 K0 K0 K0 K0 K0 K0 K0 K0 K0 K0 K0 K0 K0 K0 K0 K0 K0 K0 K0 K0 K0 K0 K0 K0 K0 K0 K0 K0 K0 K0 K0 K0 K0 K0 K0 K0 K0 K0 K0 K0 K0 K0 K0 K0 K0 K0 K0 K0 K0 K0 K0 K0 K0 K0 K0 K0 K0 K0 K0 K0 K0 K0 K0 K0 K0 K0 K0 K0 K0 K0 K0 K0 K0 K0 K0 K0 K0 K0 K0 K0 K0 K0 K0 K0 K0 K0 K0 K0 K0 K0 K0 K0 K0 K0 K0 K0 K0 K0 K0 K0 K0 K0 K0 K0 K0 K0 K0 K0 K0 K0 K0 K0 K0 K0 K0 K0 K0 K0 K0 K0 K0 K0 K0 K0 K0 K0 K0 K0 K0 K0 K0 K0 K0 K0 K0 K0 K0 K0 K0 K0 K0 K0 K0 K0 K0 K0 K0 K0 K0 K0 K0 K0 K0 K0 K0 K0 K0 K0 K0 K0 KG0 KG0 KG0 KG0 KG0 KG0 KG0 KG0 KG0 KG0 KG0 KG0 KG0 KG0 KG0 KG0 KG0 KG0 KG0 KG0 KG0 KG0 KG0 KG0 KG0 KG0 KG0 KG0 KG0 KG0 KG0 KG0 KG0 KG0 KG0 KG0 KG0 KG0 KG0 KG0 G0 G0 G0 G0 G0 G0 G0 G0 G0 G0 G0 G0 G0 G0 G0 G0 G0 G0 G0 G0 G0 G0 G0 G0 G0 G0 G0 G0 G0 G0 G0 G0 G0 G0 G0 G0 G0 G0 G0 G0 G0 G0 G0 G0 G0 G0 G0 G0 G0 G0 G0 G0 G0 G0 G0 G0 G0 G0 G0 G0 G0 G0 G0 G0 G0 G0 G0 G0 G0 G0 G0 G0 G0 G0 G0 G0 G0 G0 G0 G0 G0 G0 G0 G0 G0 G0 G0 G0 G0 G0 G0 G0 G0 G0 G0 G0 G0 G0 G0 G0 G0 G0 G0 G0 G0 G0 G0 G0 G0 G0 G0 G0 G0 G0 G0 G0 G0 G0 G0 G0 G0 G0 G0 G0 G0 G0 G0 G0 G0 G0 G0 G0 G0 G0 G0 G0 G0 G0 0 0 0H 0H 0H 0H 0H 0H 0H 0H 0H 0H 0H 0H 0H 0H 0H 0H 0H 0H 0H 0H 0H 0H 0H 0H 0H 0H 0H 0H 0H 0H 0H 0H 0H 0H 0H 0H 0H 0H 0H 0H 0H 0H 0H 0H 0H 0H 0H 0H 0H 0H 0H 0H 0H 0H 0H 0H 0H 0H 0H 0H 0H 0H 0H 0H 0H 0H 0H 0H 0H 0H 0H 0H 0H 0H 0H 0H 0H 0H 0H 0H 0H 0H 0H 0H 0H 0H 0H 0H 0H 0H H H H H H H H H H H H H H H H H H H H H H H H H H H H H H H H H H H H H H H H H H H H H H H H H H H H H H H H H H H H H H H H H H H H H H H H H H H H H H H H H H H H H H H H H   C C C C C C C C C C C C C C C C C C C C C C C C C C C C C C C C C C C C C C C C C C C C C C C C C C C C C C C C C C C C C C C C C C C C C C C C C C C C C C C C C C C C C C C C C C C C C C C C C C C C C C C C C C C C C C C C C C C C C C C C C C C C C C C C C C C C C C C C C C C C C C C C C C C C C C C C C C C C C C C C C C C C C C C C C C C C C C C C C C  L. L. L. L. L. L. L. L. L. L. L. L. L. L. L. L. L. L. L. L. L. L. L. L. L. L. L. L. L. L. L. L. L. L. L. L. L. L. L. L. L. L. L. L. L. L. L. L. L. L. L. L. L. L. L. L. L. L. L. L. L. L. L. L. L. L. L. L. L. L. L. L. L. L. L. L. L. L. L. L. L. L. L. L. L. L. L. L. L. L. L. L. L. L. L. L. L. L. L. L. L. L. L. L. L. L. L. L. L. L. L. L. L. L. L. L. L. L. L. L. L. L. L. L. L. L. L. L. L. L. L. L. L. L. L. L. L. L. L. L. L. L. L. L. L. L. L. L. L. L. L. L. L. L. L. L. L. L. L. L. L. L. L. L. L. L. L. L. L. L. L. L. L. L. L. L. L. L. L. L. LF. LF. LF. LF. LF. LF. LF. LF. LF. LF. LF. LF. LF. LF. LF. LF. LF. LF. LF. LF. LF. LF. LF. LF. LF. LF. LF. LF. LF. LF. LF. LF. LF. LF. LF. LF. LF. LF. LF. LF. F. F. F. F. F. F. F. F. F. F. F. F. F. F. F. F. F. F. F. F. F. F. F. F. F. F. F. F. F. F. F. F. F. F. F. F. F. F. F. F. F. F. F. F. F. F. F. F. F. F. F. F. F. F. F. F. F. F. F. F. F. F. F. F. F. F. F. F. F. F. F. F. F. F. F. F. F. F. F. F. F. F. F. F. F. F. F. F. F. F. F. F. F. F. F. F. F. F. F. F. F. F. F. F. F. F. F. F. F. F. F. F. F. F. F. F. F. F. F. F. F. F. F. F. F. F. F. F. F. F. F. F. F. F. F. F. F. F. . . .H .H .H .H .H .H .H .H .H .H .H .H .H .H .H .H .H .H .H .H .H .H .H .H .H .H .H .H .H .H .H .H .H .H .H .H .H .H .H .H .H .H .H .H .H .H .H .H .H .H .H .H .H .H .H .H .H .H .H .H .H .H .H .H .H .H .H .H .H .H .H .H .H .H .H .H .H .H .H .H .H .H .H .H .H .H .H .H .H .H H H H H H H H H H H H H H H H H H H H H H H H H H H H H H H H H H H H H H H H H H H H H H H H H H H H H H H H H H H H H H H H H H H H H H H H H H H H H H H H H H H H H H H H H   C C C C C C C C C C C C C C C C C C C C C C C C C C C C C C C C C C C C C C C C C C C C C C C C C C C C C C C C C C C C C C C C C C C C C C C C C C C C C C C C C C C C C C C C C C C C C C C C C C C C C C C C C C C C C C C C C C C C C C C C C C C C C C C C C C C C C C C C C C C C C C C C C C C C C C C C C C C C C C C C C C C C C C C C C C C C C C C C C C   M- M- M- M- M- M- M- M- M- M- M- M- M- M- M- M- M- M- M- M- M- M- M- M- M- M- M- M- M- M- M- M- M- M- M- M- M- M- M- M- M- M- M- M- M- M- M- M- M- M- M- M- M- M- M- M- M- M- M- M- M- M- M- M- M- M- M- M- M- M- M- M- M- M- M- M- M- M- M- M- M- M- M- M- M- M- M- M- M- M- M- M- M- M- M- M- M- M- M- M- M- M- M- M- M- M- M- M- M- M- M- M- M- M- M- M- M- M- M- M- M- M- M- M- M- M- M- M- M- M- M- M- M- M- M- M- M- M- M- M- M- M- M- M- M- M- M- M- M- M- M- M- M- M- M- M- M- M- M- M- M- M- M- M- M- M- M- M- M- M- M- M- M- M- M- M- M- M- M- M- MC- MC- MC- MC- MC- MC- MC- MC- MC- MC- MC- MC- MC- MC- MC- MC- MC- MC- MC- MC- MC- MC- MC- MC- MC- MC- MC- MC- MC- MC- MC- MC- MC- MC- MC- MC- MC- MC- MC- MC- C- C- C- C- C- C- C- C- C- C- C- C- C- C- C- C- C- C- C- C- C- C- C- C- C- C- C- C- C- C- C- C- C- C- C- C- C- C- C- C- C- C- C- C- C- C- C- C- C- C- C- C- C- C- C- C- C- C- C- C- C- C- C- C- C- C- C- C- C- C- C- C- C- C- C- C- C- C- C- C- C- C- C- C- C- C- C- C- C- C- C- C- C- C- C- C- C- C- C- C- C- C- C- C- C- C- C- C- C- C- C- C- C- C- C- C- C- C- C- C- C- C- C- C- C- C- C- C- C- C- C- C- C- C- C- C- C- C-  E< E< E< E< E< E< E< E< E< E< E< E< E< E< E< E< E< E< E< E< E< E< E< E< E< E< E< E< E< E< E< E< E< E< E< E< E< E< E< E< E< E< E< E< E< E< E< E< E< E< E< E< E< E< E< E< E< E< E< E< E< E< E< E< E< E< E< E< E< E< E< E< E< E< E< E< E< E< E< E< E< E< E< E< E< E< E< E< E< E< E< E< E< E< E< E< E< E< E< E< E< E< E< E< E< E< E< E< E< E< E< E< E< E< E< E< E< E< E< E< E< E< E< E< E< E< E< E< E< E< E< E< E< E< E< E< E< E< E< E< E< E< E< E< E< E< E< E< E< E< E< E< E< E< E< E< E< E< E< E< E< E< E< E< E< E< E< E< E< E< E< E< E< E< E< E< E< E<   H: H: H: H: H: H: H: H: H: H: H: H: H: H: H: H: H: H: H: H: H: H: H: H: H: H: H: H: H: H: H: H: H: H: H: H: H: H: H: H: H: H: H: H: H: H: H: H: H: H: H: H: H: H: H: H: H: H: H: H: H: H: H: H: H: H: H: H: H: H: H: H: H: H: H: H: H: H: H: H: H: H: H: H: H: H: H: H: H: H: H: H: H: H: H: H: H: H: H: H: H: H: H: H: H: H: H: H: H: H: H: H: H: H: H: H: H: H: H: H: H: H: H: H: H: H: H: H: H: H: H: H: H: H: H: H: H: H: H: H: H: H: H: H: H: H: H: H: H: H: H: H: H: H: H: H: H: H: H: H: H: H: H: H: H: H: H: H: H: H: H: H: H: H: H: H: H: H:   N9 N9 N9 N9 N9 N9 N9 N9 N9 N9 N9 N9 N9 N9 N9 N9 N9 N9 N9 N9 N9 N9 N9 N9 N9 N9 N9 N9 N9 N9 N9 N9 N9 N9 N9 N9 N9 N9 N9 N9 N9 N9 N9 N9 N9 N9 N9 N9 N9 N9 N9 N9 N9 N9 N9 N9 N9 N9 N9 N9 N9 N9 N9 N9 N9 N9 N9 N9 N9 N9 N9 N9 N9 N9 N9 N9 N9 N9 N9 N9 N9 N9 N9 N9 N9 N9 N9 N9 N9 N9 N9 N9 N9 N9 N9 N9 N9 N9 N9 N9 N9 N9 N9 N9 N9 N9 N9 N9 N9 N9 N9 N9 N9 N9 N9 N9 N9 N9 N9 N9 N9 N9 N9 N9 N9 N9 N9 N9 N9 N9 N9 N9 N9 N9 N9 N9 N9 N9 N9 N9 N9 N9 N9 N9 N9 N9 N9 N9 N9 N9 N9 N9 N9 N9 N9 N9 N9 N9 N9 N9 N9 N9 N9 N9 N9 N9 N9 N9 N9 N9 N9 N9 N9 N9 N9 N9 N9 N9 N9 N9 NH9 NH9 NH9 NH9 NH9 NH9 NH9 NH9 NH9 NH9 NH9 NH9 NH9 NH9 NH9 NH9 NH9 NH9 NH9 NH9 NH9 NH9 NH9 NH9 NH9 NH9 NH9 NH9 NH9 NH9 NH9 NH9 NH9 NH9 NH9 NH9 NH9 NH9 NH9 NH9 H9 H9 H9 H9 H9 H9 H9 H9 H9 H9 H9 H9 H9 H9 H9 H9 H9 H9 H9 H9 H9 H9 H9 H9 H9 H9 H9 H9 H9 H9 H9 H9 H9 H9 H9 H9 H9 H9 H9 H9 H9 H9 H9 H9 H9 H9 H9 H9 H9 H9 H9 H9 H9 H9 H9 H9 H9 H9 H9 H9 H9 H9 H9 H9 H9 H9 H9 H9 H9 H9 H9 H9 H9 H9 H9 H9 H9 H9 H9 H9 H9 H9 H9 H9 H9 H9 H9 H9 H9 H9 H9 H9 H9 H9 H9 H9 H9 H9 H9 H9 H9 H9 H9 H9 H9 H9 H9 H9 H9 H9 H9 H9 H9 H9 H9 H9 H9 H9 H9 H9 H9 H9 H9 H9 H9 H9 H9 H9 H9 H9 H9 H9 H9 H9 H9 H9 H9 H9   O7 O7 O7 O7 O7 O7 O7 O7 O7 O7 O7 O7 O7 O7 O7 O7 O7 O7 O7 O7 O7 O7 O7 O7 O7 O7 O7 O7 O7 O7 O7 O7 O7 O7 O7 O7 O7 O7 O7 O7 O7 O7 O7 O7 O7 O7 O7 O7 O7 O7 O7 O7 O7 O7 O7 O7 O7 O7 O7 O7 O7 O7 O7 O7 O7 O7 O7 O7 O7 O7 O7 O7 O7 O7 O7 O7 O7 O7 O7 O7 O7 O7 O7 O7 O7 O7 O7 O7 O7 O7 O7 O7 O7 O7 O7 O7 O7 O7 O7 O7 O7 O7 O7 O7 O7 O7 O7 O7 O7 O7 O7 O7 O7 O7 O7 O7 O7 O7 O7 O7 O7 O7 O7 O7 O7 O7 O7 O7 O7 O7 O7 O7 O7 O7 O7 O7 O7 O7 O7 O7 O7 O7 O7 O7 O7 O7 O7 O7 O7 O7 O7 O7 O7 O7 O7 O7 O7 O7 O7 O7 O7 O7 O7 O7 O7 O7 O7 O7 O7 O7 O7 O7 O7 O7 O7 O7 O7 O7 O7 OH7 OH7 OH7 OH7 OH7 OH7 OH7 OH7 OH7 OH7 OH7 OH7 OH7 OH7 OH7 OH7 OH7 OH7 OH7 OH7 OH7 OH7 OH7 OH7 OH7 OH7 OH7 OH7 OH7 OH7 OH7 OH7 OH7 OH7 OH7 OH7 OH7 OH7 OH7 OH7 OH7 H7 H7 H7 H7 H7 H7 H7 H7 H7 H7 H7 H7 H7 H7 H7 H7 H7 H7 H7 H7 H7 H7 H7 H7 H7 H7 H7 H7 H7 H7 H7 H7 H7 H7 H7 H7 H7 H7 H7 H7 H7 H7 H7 H7 H7 H7 H7 H7 H7 H7 H7 H7 H7 H7 H7 H7 H7 H7 H7 H7 H7 H7 H7 H7 H7 H7 H7 H7 H7 H7 H7 H7 H7 H7 H7 H7 H7 H7 H7 H7 H7 H7 H7 H7 H7 H7 H7 H7 H7 H7 H7 H7 H7 H7 H7 H7 H7 H7 H7 H7 H7 H7 H7 H7 H7 H7 H7 H7 H7 H7 H7 H7 H7 H7 H7 H7 H7 H7 H7 H7 H7 H7 H7 H7 H7 H7 H7 H7 H7 H7 H7 H7 H7 H7 H7 H7 H7 7  Q6 Q6 Q6 Q6 Q6 Q6 Q6 Q6 Q6 Q6 Q6 Q6 Q6 Q6 Q6 Q6 Q6 Q6 Q6 Q6 Q6 Q6 Q6 Q6 Q6 Q6 Q6 Q6 Q6 Q6 Q6 Q6 Q6 Q6 Q6 Q6 Q6 Q6 Q6 Q6 Q6 Q6 Q6 Q6 Q6 Q6 Q6 Q6 Q6 Q6 Q6 Q6 Q6 Q6 Q6 Q6 Q6 Q6 Q6 Q6 Q6 Q6 Q6 Q6 Q6 Q6 Q6 Q6 Q6 Q6 Q6 Q6 Q6 Q6 Q6 Q6 Q6 Q6 Q6 Q6 Q6 Q6 Q6 Q6 Q6 Q6 Q6 Q6 Q6 Q6 Q6 Q6 Q6 Q6 Q6 Q6 Q6 Q6 Q6 Q6 Q6 Q6 Q6 Q6 Q6 Q6 Q6 Q6 Q6 Q6 Q6 Q6 Q6 Q6 Q6 Q6 Q6 Q6 Q6 Q6 Q6 Q6 Q6 Q6 Q6 Q6 Q6 Q6 Q6 Q6 Q6 Q6 Q6 Q6 Q6 Q6 Q6 Q6 Q6 Q6 Q6 Q6 Q6 Q6 Q6 Q6 Q6 Q6 Q6 Q6 Q6 Q6 Q6 Q6 Q6 Q6 Q6 Q6 Q6 Q6 Q6 Q6 Q6 Q6 Q6 Q6 Q6 Q6 Q6 Q6 Q6 Q6 Q6 Q6 Q6 Q6 Q6 Q6 Q6 Q6 QL6 QL6 QL6 QL6 QL6 QL6 QL6 QL6 QL6 QL6 QL6 QL6 QL6 QL6 QL6 QL6 QL6 QL6 QL6 QL6 QL6 QL6 QL6 QL6 QL6 QL6 QL6 QL6 QL6 QL6 QL6 QL6 QL6 QL6 QL6 QL6 QL6 QL6 QL6 QL6 L6 L6 L6 L6 L6 L6 L6 L6 L6 L6 L6 L6 L6 L6 L6 L6 L6 L6 L6 L6 L6 L6 L6 L6 L6 L6 L6 L6 L6 L6 L6 L6 L6 L6 L6 L6 L6 L6 L6 L6 L6 L6 L6 L6 L6 L6 L6 L6 L6 L6 L6 L6 L6 L6 L6 L6 L6 L6 L6 L6 L6 L6 L6 L6 L6 L6 L6 L6 L6 L6 L6 L6 L6 L6 L6 L6 L6 L6 L6 L6 L6 L6 L6 L6 L6 L6 L6 L6 L6 L6 L6 L6 L6 L6 L6 L6 L6 L6 L6 L6 L6 L6 L6 L6 L6 L6 L6 L6 L6 L6 L6 L6 L6 L6 L6 L6 L6 L6 L6 L6 L6 L6 L6 L6 L6 L6 L6 L6 L6 L6 L6 L6 L6 L6 L6 L6 L6 L6 6 6 6N 6N 6N 6N 6N 6N 6N 6N 6N 6N 6N 6N 6N 6N 6N 6N 6N 6N 6N 6N 6N 6N 6N 6N 6N 6N 6N 6N 6N 6N 6N 6N 6N 6N 6N 6N 6N 6N 6N 6N 6N 6N 6N 6N 6N 6N 6N 6N 6N 6N 6N 6N 6N 6N 6N 6N 6N 6N 6N 6N 6N 6N 6N 6N 6N 6N 6N 6N 6N 6N 6N 6N 6N 6N 6N 6N 6N 6N 6N 6N 6N 6N 6N 6N 6N 6N 6N 6N 6N 6N N N N N N N N N N N N N N N N N N N N N N N N N N N N N N N N N N N N N N N N N N N N N N N N N N N N N N N N N N N N N N N N N N N N N N N N N N N N N N N N N N N N N N N N N N N NJ NJ NJ NJ NJ NJ NJ NJ NJ NJ NJ NJ NJ NJ NJ NJ NJ NJ NJ NJ NJ NJ NJ NJ NJ NJ NJ NJ NJ NJ NJ NJ NJ NJ NJ NJ NJ NJ NJ NJ J J J J J J J J J J J J J J J J J J J J J J J J J J J J J J J J J J J J J J J J J J J J J J J J J J J J J J J J J J J J J J J J J J J J J J J J J J J J J J J J J J J J J J J J J J J J J J J J J J J J J J J J J J J J J J J J J J J J J J J J J J J J J J J J J J J J J J J J J J   R4 R4 R4 R4 R4 R4 R4 R4 R4 R4 R4 R4 R4 R4 R4 R4 R4 R4 R4 R4 R4 R4 R4 R4 R4 R4 R4 R4 R4 R4 R4 R4 R4 R4 R4 R4 R4 R4 R4 R4 R4 R4 R4 R4 R4 R4 R4 R4 R4 R4 R4 R4 R4 R4 R4 R4 R4 R4 R4 R4 R4 R4 R4 R4 R4 R4 R4 R4 R4 R4 R4 R4 R4 R4 R4 R4 R4 R4 R4 R4 R4 R4 R4 R4 R4 R4 R4 R4 R4 R4 R4 R4 R4 R4 R4 R4 R4 R4 R4 R4 R4 R4 R4 R4 R4 R4 R4 R4 R4 R4 R4 R4 R4 R4 R4 R4 R4 R4 R4 R4 R4 R4 R4 R4 R4 R4 R4 R4 R4 R4 R4 R4 R4 R4 R4 R4 R4 R4 R4 R4 R4 R4 R4 R4 R4 R4 R4 R4 R4 R4 R4 R4 R4 R4 R4 R4 R4 R4 R4 R4 R4 R4 R4 R4 R4 R4 R4 R4 R4 R4 R4 R4 R4 R4 R4 R4 R4 R4 4 N4 N4 N4 N4 N4 N4 N4 N4 N4 N4 N4 N4 N4 N4 N4 N4 N4 N4 N4 N4 N4 N4 N4 N4 N4 N4 N4 N4 N4 N4 N4 N4 N4 N4 N4 N4 N4 N4 N4 N4 N4 N4 N4 N4 N4 N4 N4 N4 N4 N4 N4 N4 N4 N4 N4 N4 N4 N4 N4 N4 N4 N4 N4 N4 N4 N4 N4 N4 N4 N4 N4 N4 N4 N4 N4 N4 N4 N4 N4 N4 N4 N4 N4 N4 N4 N4 N4 N4 N4 N4 N4 N4 N4 N4 N4 N4 N4 N4 N4 N4 N4 N4 N4 N4 N4 N4 N4 N4 N4 N4 N4 N4 N4 N4 N4 N4 N4 N4 N4 N4 N4 N4 N4 N4 N4 N4 N4 N4 N4 N4 N4 N4 N4 N4 N4 N4 N4 N4 N4 N4 N4 N4 N4 N4 N4 N4 N4 N4 N4 N4 N4 N4 N4 N4 N4 N4 N4 N4 N4 N4 N4 N4 N4 N4 N4 N4 N4 N4 N4 N4 N4 N4 N4 N4 N4 N4 N4 N4 4 4 4O 4O 4O 4O 4O 4O 4O 4O 4O 4O 4O 4O 4O 4O 4O 4O 4O 4O 4O 4O 4O 4O 4O 4O 4O 4O 4O 4O 4O 4O 4O 4O 4O 4O 4O 4O 4O 4O 4O 4O 4O 4O 4O 4O 4O 4O 4O 4O 4O 4O 4O 4O 4O 4O 4O 4O 4O 4O 4O 4O 4O 4O 4O 4O 4O 4O 4O 4O 4O 4O 4O 4O 4O 4O 4O 4O 4O 4O 4O 4O 4O 4O 4O 4O 4O 4O 4O 4O 4O 4O 4O O O O O O O O O O O O O O O O O O O O O O O O O O O O O O O O O O O O O O O O O O O O O O O O O O O O O O O O O O O O O O O O O O O O O O O O O O O O O O O O O O O O O O O O   J J J J J J J J J J J J J J J J J J J J J J J J J J J J J J J J J J J J J J J J J J J J J J J J J J J J J J J J J J J J J J J J J J J J J J J J J J J J J J J J J J J J J J J J J J J J J J J J J J J J J J J J J J J J J J J J J J J J J J J J J J J J J J J J J J J J J J J J J J J J J J J J J J J J J J J J J J J J J J J J J J J J J J J J J J J J J J J J J J   T2 T2 T2 T2 T2 T2 T2 T2 T2 T2 T2 T2 T2 T2 T2 T2 T2 T2 T2 T2 T2 T2 T2 T2 T2 T2 T2 T2 T2 T2 T2 T2 T2 T2 T2 T2 T2 T2 T2 T2 T2 T2 T2 T2 T2 T2 T2 T2 T2 T2 T2 T2 T2 T2 T2 T2 T2 T2 T2 T2 T2 T2 T2 T2 T2 T2 T2 T2 T2 T2 T2 T2 T2 T2 T2 T2 T2 T2 T2 T2 T2 T2 T2 T2 T2 T2 T2 T2 T2 T2 T2 T2 T2 T2 T2 T2 T2 T2 T2 T2 T2 T2 T2 T2 T2 T2 T2 T2 T2 T2 T2 T2 T2 T2 T2 T2 T2 T2 T2 T2 T2 T2 T2 T2 T2 T2 T2 T2 T2 T2 T2 T2 T2 T2 T2 T2 T2 T2 T2 T2 T2 T2 T2 T2 T2 T2 T2 T2 T2 T2 T2 T2 T2 T2 T2 T2 T2 T2 T2 T2 T2 T2 T2 T2 T2 T2 T2 T2 T2 T2 T2 T2 T2 T2 T2 T2 T2 T2 2 2 Q2 Q2 Q2 Q2 Q2 Q2 Q2 Q2 Q2 Q2 Q2 Q2 Q2 Q2 Q2 Q2 Q2 Q2 Q2 Q2 Q2 Q2 Q2 Q2 Q2 Q2 Q2 Q2 Q2 Q2 Q2 Q2 Q2 Q2 Q2 Q2 Q2 Q2 Q2 Q2 Q2 Q2 Q2 Q2 Q2 Q2 Q2 Q2 Q2 Q2 Q2 Q2 Q2 Q2 Q2 Q2 Q2 Q2 Q2 Q2 Q2 Q2 Q2 Q2 Q2 Q2 Q2 Q2 Q2 Q2 Q2 Q2 Q2 Q2 Q2 Q2 Q2 Q2 Q2 Q2 Q2 Q2 Q2 Q2 Q2 Q2 Q2 Q2 Q2 Q2 Q2 Q2 Q2 Q2 Q2 Q2 Q2 Q2 Q2 Q2 Q2 Q2 Q2 Q2 Q2 Q2 Q2 Q2 Q2 Q2 Q2 Q2 Q2 Q2 Q2 Q2 Q2 Q2 Q2 Q2 Q2 Q2 Q2 Q2 Q2 Q2 Q2 Q2 Q2 Q2 Q2 Q2 Q2 Q2 Q2 Q2 Q2 Q2 Q2 Q2 Q2 Q2 Q2 Q2 Q2 Q2 Q2 Q2 Q2 Q2 Q2 Q2 Q2 Q2 Q2 Q2 Q2 Q2 Q2 Q2 Q2 Q2 Q2 Q2 Q2 Q2 Q2 Q2 Q2 Q2 Q2 Q2 Q2 Q2 Q2 Q2 Q2 Q2  J6 J6 J6 J6 J6 J6 J6 J6 J6 J6 J6 J6 J6 J6 J6 J6 J6 J6 J6 J6 J6 J6 J6 J6 J6 J6 J6 J6 J6 J6 J6 J6 J6 J6 J6 J6 J6 J6 J6 J6 J6 J6 J6 J6 J6 J6 J6 J6 J6 J6 J6 J6 J6 J6 J6 J6 J6 J6 J6 J6 J6 J6 J6 J6 J6 J6 J6 J6 J6 J6 J6 J6 J6 J6 J6 J6 J6 J6 J6 J6 J6 J6 J6 J6 J6 J6 J6 J6 J6 J6 J6 J6 J6 J6 J6 J6 J6 J6 J6 J6 J6 J6 J6 J6 J6 J6 J6 J6 J6 J6 J6 J6 J6 J6 J6 J6 J6 J6 J6 J6 J6 J6 J6 J6 J6 J6 J6 J6 J6 J6 J6 J6 J6 J6 J6 J6 J6 J6 J6 J6 J6 J6 J6 J6 J6 J6 J6 J6 J6 J6 J6 J6 J6 J6 J6 J6 J6 J6 J6 J6 J6 J6 J6 J6 J6 J6 J6 J6 J6 J6 J6 J6 J6 J6 J6 J6 J6 J6 6 6 T6 T6 T6 T6 T6 T6 T6 T6 T6 T6 T6 T6 T6 T6 T6 T6 T6 T6 T6 T6 T6 T6 T6 T6 T6 T6 T6 T6 T6 T6 T6 T6 T6 T6 T6 T6 T6 T6 T6 T6 T6 T6 T6 T6 T6 T6 T6 T6 T6 T6 T6 T6 T6 T6 T6 T6 T6 T6 T6 T6 T6 T6 T6 T6 T6 T6 T6 T6 T6 T6 T6 T6 T6 T6 T6 T6 T6 T6 T6 T6 T6 T6 T6 T6 T6 T6 T6 T6 T6 T6 T6 T6 T6 T6 T6 T6 T6 T6 T6 T6 T6 T6 T6 T6 T6 T6 T6 T6 T6 T6 T6 T6 T6 T6 T6 T6 T6 T6 T6 T6 T6 T6 T6 T6 T6 T6 T6 T6 T6 T6 T6 T6 T6 T6 T6 T6 T6 T6 T6 T6 T6 T6 T6 T6 T6 T6 T6 T6 T6 T6 T6 T6 T6 T6 T6 T6 T6 T6 T6 T6 T6 T6 T6 T6 T6 T6 T6 T6 T6 T6 T6 T6 T6 T6 T6 T6 T6 T6   R7 R7 R7 R7 R7 R7 R7 R7 R7 R7 R7 R7 R7 R7 R7 R7 R7 R7 R7 R7 R7 R7 R7 R7 R7 R7 R7 R7 R7 R7 R7 R7 R7 R7 R7 R7 R7 R7 R7 R7 R7 R7 R7 R7 R7 R7 R7 R7 R7 R7 R7 R7 R7 R7 R7 R7 R7 R7 R7 R7 R7 R7 R7 R7 R7 R7 R7 R7 R7 R7 R7 R7 R7 R7 R7 R7 R7 R7 R7 R7 R7 R7 R7 R7 R7 R7 R7 R7 R7 R7 R7 R7 R7 R7 R7 R7 R7 R7 R7 R7 R7 R7 R7 R7 R7 R7 R7 R7 R7 R7 R7 R7 R7 R7 R7 R7 R7 R7 R7 R7 R7 R7 R7 R7 R7 R7 R7 R7 R7 R7 R7 R7 R7 R7 R7 R7 R7 R7 R7 R7 R7 R7 R7 R7 R7 R7 R7 R7 R7 R7 R7 R7 R7 R7 R7 R7 R7 R7 R7 R7 R7 R7 R7 R7 R7 R7 R7 R7 R7 R7 R7 R7 R7 R7 R7 R7 R7 R7 7 7 Q7 Q7 Q7 Q7 Q7 Q7 Q7 Q7 Q7 Q7 Q7 Q7 Q7 Q7 Q7 Q7 Q7 Q7 Q7 Q7 Q7 Q7 Q7 Q7 Q7 Q7 Q7 Q7 Q7 Q7 Q7 Q7 Q7 Q7 Q7 Q7 Q7 Q7 Q7 Q7 Q7 Q7 Q7 Q7 Q7 Q7 Q7 Q7 Q7 Q7 Q7 Q7 Q7 Q7 Q7 Q7 Q7 Q7 Q7 Q7 Q7 Q7 Q7 Q7 Q7 Q7 Q7 Q7 Q7 Q7 Q7 Q7 Q7 Q7 Q7 Q7 Q7 Q7 Q7 Q7 Q7 Q7 Q7 Q7 Q7 Q7 Q7 Q7 Q7 Q7 Q7 Q7 Q7 Q7 Q7 Q7 Q7 Q7 Q7 Q7 Q7 Q7 Q7 Q7 Q7 Q7 Q7 Q7 Q7 Q7 Q7 Q7 Q7 Q7 Q7 Q7 Q7 Q7 Q7 Q7 Q7 Q7 Q7 Q7 Q7 Q7 Q7 Q7 Q7 Q7 Q7 Q7 Q7 Q7 Q7 Q7 Q7 Q7 Q7 Q7 Q7 Q7 Q7 Q7 Q7 Q7 Q7 Q7 Q7 Q7 Q7 Q7 Q7 Q7 Q7 Q7 Q7 Q7 Q7 Q7 Q7 Q7 Q7 Q7 Q7 Q7 Q7 Q7 Q7 Q7 Q7 Q7 Q7 Q7 Q7 Q7 Q7 Q7   O9 O9 O9 O9 O9 O9 O9 O9 O9 O9 O9 O9 O9 O9 O9 O9 O9 O9 O9 O9 O9 O9 O9 O9 O9 O9 O9 O9 O9 O9 O9 O9 O9 O9 O9 O9 O9 O9 O9 O9 O9 O9 O9 O9 O9 O9 O9 O9 O9 O9 O9 O9 O9 O9 O9 O9 O9 O9 O9 O9 O9 O9 O9 O9 O9 O9 O9 O9 O9 O9 O9 O9 O9 O9 O9 O9 O9 O9 O9 O9 O9 O9 O9 O9 O9 O9 O9 O9 O9 O9 O9 O9 O9 O9 O9 O9 O9 O9 O9 O9 O9 O9 O9 O9 O9 O9 O9 O9 O9 O9 O9 O9 O9 O9 O9 O9 O9 O9 O9 O9 O9 O9 O9 O9 O9 O9 O9 O9 O9 O9 O9 O9 O9 O9 O9 O9 O9 O9 O9 O9 O9 O9 O9 O9 O9 O9 O9 O9 O9 O9 O9 O9 O9 O9 O9 O9 O9 O9 O9 O9 O9 O9 O9 O9 O9 O9 O9 O9 O9 O9 O9 O9 O9 O9 O9 O9 O9 O9 9 9 N9 N9 N9 N9 N9 N9 N9 N9 N9 N9 N9 N9 N9 N9 N9 N9 N9 N9 N9 N9 N9 N9 N9 N9 N9 N9 N9 N9 N9 N9 N9 N9 N9 N9 N9 N9 N9 N9 N9 N9 N9 N9 N9 N9 N9 N9 N9 N9 N9 N9 N9 N9 N9 N9 N9 N9 N9 N9 N9 N9 N9 N9 N9 N9 N9 N9 N9 N9 N9 N9 N9 N9 N9 N9 N9 N9 N9 N9 N9 N9 N9 N9 N9 N9 N9 N9 N9 N9 N9 N9 N9 N9 N9 N9 N9 N9 N9 N9 N9 N9 N9 N9 N9 N9 N9 N9 N9 N9 N9 N9 N9 N9 N9 N9 N9 N9 N9 N9 N9 N9 N9 N9 N9 N9 N9 N9 N9 N9 N9 N9 N9 N9 N9 N9 N9 N9 N9 N9 N9 N9 N9 N9 N9 N9 N9 N9 N9 N9 N9 N9 N9 N9 N9 N9 N9 N9 N9 N9 N9 N9 N9 N9 N9 N9 N9 N9 N9 N9 N9 N9 N9 N9 N9 N9 N9 N9 N9 N9  O: O: O: O: O: O: O: O: O: O: O: O: O: O: O: O: O: O: O: O: O: O: O: O: O: O: O: O: O: O: O: O: O: O: O: O: O: O: O: O: O: O: O: O: O: O: O: O: O: O: O: O: O: O: O: O: O: O: O: O: O: O: O: O: O: O: O: O: O: O: O: O: O: O: O: O: O: O: O: O: O: O: O: O: O: O: O: O: O: O: O: O: O: O: O: O: O: O: O: O: O: O: O: O: O: O: O: O: O: O: O: O: O: O: O: O: O: O: O: O: O: O: O: O: O: O: O: O: O: O: O: O: O: O: O: O: O: O: O: O: O: O: O: O: O: O: O: O: O: O: O: O: O: O: O: O: O: O: O: O: O: O: O: O: O: O: O: O: O: O: O: O: O: O: O: O: O: O: : : J: J: J: J: J: J: J: J: J: J: J: J: J: J: J: J: J: J: J: J: J: J: J: J: J: J: J: J: J: J: J: J: J: J: J: J: J: J: J: J: J: J: J: J: J: J: J: J: J: J: J: J: J: J: J: J: J: J: J: J: J: J: J: J: J: J: J: J: J: J: J: J: J: J: J: J: J: J: J: J: J: J: J: J: J: J: J: J: J: J: J: J: J: J: J: J: J: J: J: J: J: J: J: J: J: J: J: J: J: J: J: J: J: J: J: J: J: J: J: J: J: J: J: J: J: J: J: J: J: J: J: J: J: J: J: J: J: J: J: J: J: J: J: J: J: J: J: J: J: J: J: J: J: J: J: J: J: J: J: J: J: J: J: J: J: J: J: J: J: J: J: J: J: J: J: J: J: J:   K< K< K< K< K< K< K< K< K< K< K< K< K< K< K< K< K< K< K< K< K< K< K< K< K< K< K< K< K< K< K< K< K< K< K< K< K< K< K< K< K< K< K< K< K< K< K< K< K< K< K< K< K< K< K< K< K< K< K< K< K< K< K< K< K< K< K< K< K< K< K< K< K< K< K< K< K< K< K< K< K< K< K< K< K< K< K< K< K< K< K< K< K< K< K< K< K< K< K< K< K< K< K< K< K< K< K< K< K< K< K< K< K< K< K< K< K< K< K< K< K< K< K< K< K< K< K< K< K< K< K< K< K< K< K< K< K< K< K< K< K< K< K< K< K< K< K< K< K< K< K< K< K< K< K< K< K< K< K< K< K< K< K< K< K< K< K< K< K< K< K< K< K< K< K< K< K< K< < < H< H< H< H< H< H< H< H< H< H< H< H< H< H< H< H< H< H< H< H< H< H< H< H< H< H< H< H< H< H< H< H< H< H< H< H< H< H< H< H< H< H< H< H< H< H< H< H< H< H< H< H< H< H< H< H< H< H< H< H< H< H< H< H< H< H< H< H< H< H< H< H< H< H< H< H< H< H< H< H< H< H< H< H< H< H< H< H< H< H< H< H< H< H< H< H< H< H< H< H< H< H< H< H< H< H< H< H< H< H< H< H< H< H< H< H< H< H< H< H< H< H< H< H< H< H< H< H< H< H< H< H< H< H< H< H< H< H< H< H< H< H< H< H< H< H< H< H< H< H< H< H< H< H< H< H< H< H< H< H< H< H< H< H< H< H< H< H< H< H< H< H< H< H< H< H< H< H<   H> H> H> H> H> H> H> H> H> H> H> H> H> H> H> H> H> H> H> H> H> H> H> H> H> H> H> H> H> H> H> H> H> H> H> H> H> H> H> H> H> H> H> H> H> H> H> H> H> H> H> H> H> H> H> H> H> H> H> H> H> H> H> H> H> H> H> H> H> H> H> H> H> H> H> H> H> H> H> H> H> H> H> H> H> H> H> > > F> F> F> F> F> F> F> F> F> F> F> F> F> F> F> F> F> F> F> F> F> F> F> F> F> F> F> F> F> F> F> F> F> F> F> F> F> F> F> F> F> F> F> F> F> F> F> F> F> F> F> F> F> F> F> F> F> F> F> F> F> F> F> F> F> F> F> F> F> F> F> F> F> F> F> F> F> F> F> F> F> F> F> F> F> F> F> > > H> H> H> H> H> H> H> H> H> H> H> H> H> H> H> H> H> H> H> H> H> H> H> H> H> H> H> H> H> H> H> H> H> H> H> H> H> H> H> H> H> H> H> H> H> H> H> H> H> H> H> H> H> H> H> H> H> H> H> H> H> H> H> H> H> H> H> H> H> H> H> H> H> H> H> H> H> H> H> H> H> H> H> H> H> H> H> > > F> F> F> F> F> F> F> F> F> F> F> F> F> F> F> F> F> F> F> F> F> F> F> F> F> F> F> F> F> F> F> F> F> F> F> F> F> F> F> F> F> F> F> F> F> F> F> F> F> F> F> F> F> F> F> F> F> F> F> F> F> F> F> F> F> F> F> F> F> F> F> F> F> F> F> F> F> F> F> F> F> F> F> F> F> F> F>   E2 E2 E2 E2 E2 E2 E2 E2 E2 E2 E2 E2 E2 E2 E2 E2 E2 E2 E2 E2 E2 E2 E2 E2 E2 E2 E2 E2 E2 E2 E2 E2 E2 E2 E2 E2 E2 E2 E2 E2 E2 E2 E2 E2 E2 E2 E2 E2 E2 E2 E2 E2 E2 E2 E2 E2 E2 E2 E2 E2 E2 E2 E2 E2 E2 E2 E2 E2 E2 E2 E2 E2 E2 E2 E2 E2 E2 E2 E2 E2 E2 E2 E2 E2 E2 E2 E2 E2 E2 E2 E2 E2 E2 E2 E2 E2 E2 E2 E2 E2 E2 E2 E2 E2 E2 E2 E2 E2 E2 E2 E2 E2 E2 E2 E2 E2 E2 E2 E2 E2 E2 E2 E2 E2 E2 E2 E2 E2 E2 E2 E2 E2 E2 E2 E2 E2 E2 E2 E2 E2 E2 E2 E2 E2 E2 E2 E2 E2 E2 E2 E2 E2 E2 E2 E2 E2 E2 E2 E2 E2 E2 E2 E2 E2 E2 E2 E2 E2 E2 E2 E2 E2 E2 E2 E2 E2 E2 E2 2 2 C2 C2 C2 C2 C2 C2 C2 C2 C2 C2 C2 C2 C2 C2 C2 C2 C2 C2 C2 C2 C2 C2 C2 C2 C2 C2 C2 C2 C2 C2 C2 C2 C2 C2 C2 C2 C2 C2 C2 C2 C2 C2 C2 C2 C2 C2 C2 C2 C2 C2 C2 C2 C2 C2 C2 C2 C2 C2 C2 C2 C2 C2 C2 C2 C2 C2 C2 C2 C2 C2 C2 C2 C2 C2 C2 C2 C2 C2 C2 C2 C2 C2 C2 C2 C2 C2 C2 C2 C2 C2 C2 C2 C2 C2 C2 C2 C2 C2 C2 C2 C2 C2 C2 C2 C2 C2 C2 C2 C2 C2 C2 C2 C2 C2 C2 C2 C2 C2 C2 C2 C2 C2 C2 C2 C2 C2 C2 C2 C2 C2 C2 C2 C2 C2 C2 C2 C2 C2 C2 C2 C2 C2 C2 C2 C2 C2 C2 C2 C2 C2 C2 C2 C2 C2 C2 C2 C2 C2 C2 C2 C2 C2 C2 C2 C2 C2 C2 C2 C2 C2 C2 C2 C2 C2 C2 C2 C2 C2   C+ C+ C+ C+ C+ C+ C+ C+ C+ C+ C+ C+ C+ C+ C+ C+ C+ C+ C+ C+ C+ C+ C+ C+ C+ C+ C+ C+ C+ C+ C+ C+ C+ C+ C+ C+ C+ C+ C+ C+ C+ C+ C+ C+ C+ C+ C+ C+ C+ C+ C+ C+ C+ C+ C+ C+ C+ C+ C+ C+ C+ C+ C+ C+ C+ C+ C+ C+ C+ C+ C+ C+ C+ C+ C+ C+ C+ C+ C+ C+ C+ C+ C+ C+ C+ C+ C+ C+ C+ C+ C+ C+ C+ C+ C+ C+ C+ C+ C+ C+ C+ C+ C+ C+ C+ C+ C+ C+ C+ C+ C+ C+ C+ C+ C+ C+ C+ C+ C+ C+ C+ C+ C+ C+ C+ C+ C+ C+ C+ C+ C+ C+ C+ C+ C+ C+ C+ C+ C+ C+ C+ C+ C+ C+ C+ C+ C+ C+ C+ C+ C+ C+ C+ C+ C+ C+ C+ C+ C+ C+ C+ C+ C+ C+ C+ C+ C+ C+ C+ C+ C+ C+ C+ C+ C+ C+ C+ C+ C+ C+ C+ C+ C+ C+ C+ C+ C+ C+ C+ C+ C+ C+ C+ C+ C+ C+ C+ C+ C+ C+ C+ C+ C+ C+ C+ C+ C+ C+ C+ C+ C+ C+ C+ C+ C+ C+ C+ C+ C+ C+ C+ C+ C+ C+ C+ C+ C+ C+ C+ C+ C+ C+ C+ C+ C+ C+ C+ C+ C+ C+ C+ C+ C+ C+ C+ C+ C+ C+ C+ C+ C+ C+ C+ C+ C+ C+ C+ C+ C+ C+ C+ C+ C+ C+ C+ C+ C+ C+ C+ C+ C+ C+ C+ C+ C+ C+ C+ C+ C+ C+ C+ C+ C+ C+ C+ C+ C+ C+ C+ C+ C+ C+ C+ C+ C+ C+ C+ C+ C+ C+ C+ C+ C+ C+ C+ C+ C+ C+ C+ C+ C+ C+ C+ C+ C+ C+ C+ C+ C+ C+ C+ C+ C+ C+ C+ C+ C+ C+ C+ C+ C+ C+ C+ C+ C+ C+ C+ C+ C+ C+ C+ C+ C+ C+ C+ C+ C+ C+ C+ C+ C+ C+ C+ C+ C+ C+ C+ C+ C+ C+ C+ C+ C+ C+ C+ C+ C+ C+ C+ C+ C+ C+ C+ C+ C+ C+ C+ C+ C+ C+ C+ C+ C+ C+ C+ C+ C+ C+ C+ C+ C+ C+ C+ C+ C+ C+ C+ C+ C+ C+ C+ C+ C+ C+ C+ C+ C+ C+ C+ C+ C+ C+ C+ C+ C+ C+ C+ C+ C+ C+ C+ C+ C+ C+ C+ C+ C+ C+ C+ C+ C+ C+ C+ C+ C+ C+ C+ C+ C+ C+ C+ C+ C+ C+ C+ C+ C+ C+ C+ C+ C+ C+ C+ C+ C+ C+ C+ C+ C+ C+ C+ C+ C+ C+ C+ C+ C+ C+ C+ C+ C+ C+ C+ C+ C+ C+ C+ C+ C+ C+ C+ C+ C+ C+ C+ C+ C+ C+ C+ C+ C+ C+ C+ C+ C+ C+ C+ C+ C+ C+ C+ C+ C+ C+ C+ C+ C+ C+ C+ C+ C+ C+ C+ C+ C+ C+ C+ C+ C+ C+ C+ C+ C+ C+ C+ C+ C+ C+ C+ C+ C+ C+ C+ C+ C+ C+ C+ C+ C+ C+ C+ C+ C+ C+ C+ C+ C+ C+ C+ C+ C+ C+ C+ C+ C+ C+ C+ C+ C+ C+ C+ C+ C+ C+ C+ C+ C+ C+ C+ C+ C+ C+ C+ C+ C+ C+ C+ C+ C+ C+ C+ C+ C+ C+ C+ C+ C+ C+ C+ C+ C+ C+ C+ C+ C+ C+ C+ C+ C+ C+ C+ C+ C+ C+ C+ C+ C+ C+ C+ C+ C+ C+ C+ C+ C+ C+ C+ C+ C+ C+ C+ C+ C+ C+ C+ C+ C+ C+ C+ C+ C+ C+ C+ C+ C+ C+ C+ C+ C+ C+ C+ C+ C+ C+ C+ C+ C+ C+ C+ C+ C+ C+ C+ C+ C+ C+ C+ C+ C+ C+ C+ C+ C+ C+ C+ C+ C+ C+ C+ C+ C+ C+ C+ C+ C+ C+ C+ C+ C+ C+ C+ C+ C+ C+ C+ C+ C+ C+ C+ C+ C+ C+ C+ C+ C+ C+ C+ C+ C+ C+ C+ C+ C+ C+ C+ C+ C+ C+ C+ C+ C+ C+ C+ C+ C+ C+ C+   >;7 >;7 >;7 >;7 >;7 >;7 >;7 >;7 >;7 >;7 >;7 >;7 >;7 >;7 >;7 >;7 >;7 >;7 >;7 >;7 >;7 >;7 >;7 >;7 >;7 >;7 >;7 >;7 >;7 >;7 >;7 >;7 >;7 >;7 >;7 >;7 >;7 >;7 >;7 >;7 >;7 >;7 >;7 >;7 >;7 >;7 >;7 >;7 >;7 >;7 >;7 >;7 >;7 >;7 >;7 >;7 >;7 >;7 >;7 >;7 >;7 >;7 >;7 >;7 >;7 >;7 >;7 >;7 >;7 >;7 >;7 >;7 >;7 >;7 >;7 >;7 >;7 >;7 >;7 >;7 >;7 >;7 >;7 >;7 >;7 >;7 >;7 >;7 >;7 >;7 >;7 >;7 >;7 >;7 >;7 >;7 >;7 >;7 >;7 >;7 >;7 >;7 >;7 >;7 >;7 >;7 >;7 >;7 >;7 >;7 >;7 >;7 >;7 >;7 >;7 >;7 >;7 >;7 >;7 >;7 >;7 >;7 >;7 >;7 >;7 >;7 >;7 >;7 >;7 >;7 >;7 >;7 >;7 >;7 >;7 >;7 >;7 >;7 >;7 >;7 >;7 >;7 >;7 >;7 >;7 >;7 >;7 >;7 >;7 >;7 >;7 >;7 >;7 >;7 >;7 >;7 >;7 >;7 >;7 >;7 >;7 >;7 >;7 >;7 >;7 >;7 >;7 >;7 >;7 >;7 >;7 >;7 >;7 >;7 >;7 >;7 >;7 >;7 >;7 >;7 >;7 >;7 >;7 >;7 >;7 >;7 >;7 >;7 >;7 >;7 >;7 >;7 >;7 >;7 >;7 >;7 >;7 >;7 >;7 >;7 >;7 >;7 >;7 >;7 >;7 >;7 >;7 >;7 >;7 >;7 >;7 >;7 >;7 >;7 >;7 >;7 >;7 >;7 >;7 >;7 >;7 >;7 >;7 >;7 >;7 >;7 >;7 >;7 >;7 >;7 >;7 >;7 >;7 >;7 >;7 >;7 >;7 >;7 >;7 >;7 >;7 >;7 >;7 >;7 >;7 >;7 >;7 >;7 >;7 >;7 >;7 >;7 >;7 >;7 >;7 >;7 >;7 >;7 >;7 >;7 >;7 >;7 >;7 >;7 >;7 >;7 >;7 >;7 >;7 >;7 >;7 >;7 >;7 >;7 >;7 >;7 >;7 >;7 >;7 >;7 >;7 >;7 >;7 >;7 >;7 >;7 >;7 >;7 >;7 >;7 >;7 >;7 >;7 >;7 >;7 >;7 >;7 >;7 >;7 >;7 >;7 >;7 >;7 >;7 >;7 >;7 >;7 >;7 >;7 >;7 >;7 >;7 >;7 >;7 >;7 >;7 >;7 >;7 >;7 >;7 >;7 >;7 >;7 >;7 >;7 >;7 >;7 >;7 >;7 >;7 >;7 >;7 >;7 >;7 >;7 >;7 >;7 >;7 >;7 >;7 >;7 >;7 >;7 >;7 >;7 >;7 >;7 >;7 >;7 >;7 >;7 >;7 >;7 >;7 >;7 >;7 >;7 >;7 7 7 @97 @97 @97 @97 @97 @97 @97 @97 @97 @97 @97 @97 @97 @97 @97 @97 @97 @97 @97 @97 @97 @97 @97 @97 @97 @97 @97 @97 @97 @97 @97 @97 @97 @97 @97 @97 @97 @97 @97 @97 @97 @97 @97 @97 @97 @97 @97 @97 @97 @97 @97 @97 @97 @97 @97 @97 @97 @97 @97 @97 @97 @97 @97 @97 @97 @97 @97 @97 @97 @97 @97 @97 @97 @97 @97 @97 @97 @97 @97 @97 @97 @97 @97 @97 @97 @97 @97 @97 @97 @97 @97 @97 @97 @97 @97 @97 @97 @97 @97 @97 @97 @97 @97 @97 @97 @97 @97 @97 @97 @97 @97 @97 @97 @97 @97 @97 @97 @97 @97 @97 @97 @97 @97 @97 @97 @97 @97 @97 @97 @97 @97 @97 @97 @97 @97 @97 @97 @97 @97 @97 @97 @97 @97 @97 @97 @97 @97 @97 @97 @97 @97 @97 @97 @97 @97 @97 @97 @97 @97 @97 @97 @97 @97 @97 @97 @97 @97 @97 @97 @97 @97 @97 @97 @97 @97 @97 @97 @97 97 <97 <97 <97 <97 <97 <97 <97 <97 <97 <97 <97 <97 <97 <97 <97 <97 <97 <97 <97 <97 <97 <97 <97 <97 <97 <97 <97 <97 <97 <97 <97 <97 <97 <97 <97 <97 <97 <97 <97 <97 <97 <97 <97 <97 <97 <97 <97 <97 <97 <97 <97 <97 <97 <97 <97 <97 <97 <97 <97 <97 <97 <97 <97 <97 <97 <97 <97 <97 <97 <97 <97 <97 <97 <97 <97 <97 <97 <97 <97 <97 <97 <97 <97 <97 <97 <97 <97 <97 <97 <97 <97 <97 <97 <97 <97 <97 <97 <97 <97 <97 <97 <97 <97 <97 <97 <97 <97 <97 <97 <97 <97 <97 <97 <97 <97 <97 <97 <97 <97 <97 <97 <97 <97 <97 <97 <97 <97 <97 <97 <97 <97 <97 <97 <97 <97 <97 <97 <97 <97 <97 <97 <97 <97 <97 <97 <97 <97 <97 <97 <97 <97 <97 <97 <97 <97 <97 <97 <97 <97 <97 <97 <97 <97 <97 <97 <97 <97 <97 <97 <97 <97 <97 <97 <97 <97 <97 <97 <97 97 7 >;7 >;7 >;7 >;7 >;7 >;7 >;7 >;7 >;7 >;7 >;7 >;7 >;7 >;7 >;7 >;7 >;7 >;7 >;7 >;7 >;7 >;7 >;7 >;7 >;7 >;7 >;7 >;7 >;7 >;7 >;7 >;7 >;7 >;7 >;7 >;7 >;7 >;7 >;7 >;7 >;7 >;7 >;7 >;7 >;7 >;7 >;7 >;7 >;7 >;7 >;7 >;7 >;7 >;7 >;7 >;7 >;7 >;7 >;7 >;7 >;7 >;7 >;7 >;7 >;7 >;7 >;7 >;7 >;7 >;7 >;7 >;7 >;7 >;7 >;7 >;7 >;7 >;7 >;7 >;7 >;7 >;7 >;7 >;7 >;7 >;7 >;7 >;7 >;7 >;7 >;7 >;7 >;7 >;7 >;7 >;7 >;7 >;7 >;7 >;7 >;7 >;7 >;7 >;7 >;7 >;7 >;7 >;7 >;7 >;7 >;7 >;7 >;7 >;7 >;7 >;7 >;7 >;7 >;7 >;7 >;7 >;7 >;7 >;7 >;7 >;7 >;7 >;7 >;7 >;7 >;7 >;7 >;7 >;7 >;7 >;7 >;7 >;7 >;7 >;7 >;7 >;7 >;7 >;7 >;7 >;7 >;7 >;7 >;7 >;7 >;7 >;7 >;7 >;7 >;7 >;7 >;7 >;7 >;7 >;7 >;7 >;7 >;7 >;7 >;7 >;7 >;7 >;7 >;7 >;7 >;7 >;7 >;7 >;7 >;7 >;7 >;7 >;7 >;7 >;7 >;7 >;7 >;7 >;7 >;7 >;7 >;7 >;7 >;7 >;7 >;7 >;7 >;7 >;7 >;7 >;7 >;7 >;7 >;7 >;7 >;7 >;7 >;7 >;7 >;7 >;7 >;7 >;7 >;7 >;7 >;7 >;7 >;7 >;7 >;7 >;7 >;7 >;7 >;7 >;7 >;7 >;7 >;7 >;7 >;7 >;7 >;7 >;7 >;7 >;7 >;7 >;7 >;7 >;7 >;7 >;7 >;7 >;7 >;7 >;7 >;7 >;7 >;7 >;7 >;7 >;7 >;7 >;7 >;7 >;7 >;7 >;7 >;7 >;7 >;7 >;7 >;7 >;7 >;7 >;7 >;7 >;7 >;7 >;7 >;7 >;7 >;7 >;7 >;7 >;7 >;7 >;7 >;7 >;7 >;7 >;7 >;7 >;7 >;7 >;7 >;7 >;7 >;7 >;7 >;7 >;7 >;7 >;7 >;7 >;7 >;7 >;7 >;7 >;7 >;7 >;7 >;7 >;7 >;7 >;7 >;7 >;7 >;7 >;7 >;7 >;7 >;7 >;7 >;7 >;7 >;7 >;7 >;7 >;7 >;7 >;7 >;7 >;7 >;7 >;7 >;7 >;7 >;7 >;7 >;7 >;7 >;7 >;7 >;7 >;7 >;7 >;7 >;7 >;7 >;7 >;7 >;7 >;7 >;7 >;7 >;7 >;7 >;7 >;7 >;7 >;7 >;7 >;7 >;7 >;7 >;7 >;7 >;7 >;7 >;7 >;7 >;7 >;7 7 7 C<7 C<7 C<7 C<7 C<7 C<7 C<7 C<7 C<7 C<7 C<7 C<7 C<7 C<7 C<7 C<7 C<7 C<7 C<7 C<7 C<7 C<7 C<7 C<7 C<7 C<7 C<7 C<7 C<7 C<7 C<7 C<7 C<7 C<7 C<7 C<7 C<7 C<7 C<7 C<7 C<7 C<7 C<7 C<7 C<7 C<7 C<7 C<7 C<7 C<7 C<7 C<7 C<7 C<7 C<7 C<7 C<7 C<7 C<7 C<7 C<7 C<7 C<7 C<7 C<7 C<7 C<7 C<7 C<7 C<7 C<7 C<7 C<7 C<7 C<7 C<7 C<7 C<7 C<7 C<7 C<7 C<7 C<7 C<7 C<7 C<7 C<7 C<7 C<7 C<7 C<7 C<7 C<7 C<7 C<7 C<7 C<7 C<7 C<7 C<7 C<7 C<7 C<7 C<7 C<7 C<7 C<7 C<7 C<7 C<7 C<7 C<7 C<7 C<7 C<7 C<7 C<7 C<7 C<7 C<7 C<7 C<7 C<7 C<7 C<7 C<7 C<7 C<7 C<7 C<7 C<7 C<7 C<7 C<7 C<7 C<7 C<7 C<7 C<7 C<7 C<7 C<7 C<7 C<7 C<7 C<7 C<7 C<7 C<7 C<7 C<7 C<7 C<7 C<7 C<7 C<7 C<7 C<7 C<7 C<7 C<7 C<7 C<7 C<7 C<7 C<7 C<7 C<7 C<7 C<7 C<7 C<7 C<7 C<7 C<7 C<7 C<7 C<7 <7 <7 E<7 E<7 E<7 E<7 E<7 E<7 E<7 E<7 E<7 E<7 E<7 E<7 E<7 E<7 E<7 E<7 E<7 E<7 E<7 E<7 E<7 E<7 E<7 E<7 E<7 E<7 E<7 E<7 E<7 E<7 E<7 E<7 E<7 E<7 E<7 E<7 E<7 E<7 E<7 E<7 E<7 E<7 E<7 E<7 E<7 E<7 E<7 E<7 E<7 E<7 E<7 E<7 E<7 E<7 E<7 E<7 E<7 E<7 E<7 E<7 E<7 E<7 E<7 E<7 E<7 E<7 E<7 E<7 E<7 E<7 E<7 E<7 E<7 E<7 E<7 E<7 E<7 E<7 E<7 E<7 E<7 E<7 E<7 E<7 E<7 E<7 E<7 E<7 E<7 E<7 E<7 E<7 E<7 E<7 E<7 E<7 E<7 E<7 E<7 E<7 E<7 E<7 E<7 E<7 E<7 E<7 E<7 E<7 E<7 E<7 E<7 E<7 E<7 E<7 E<7 E<7 E<7 E<7 E<7 E<7 E<7 E<7 E<7 E<7 E<7 E<7 E<7 E<7 E<7 E<7 E<7 E<7 E<7 E<7 E<7 E<7 E<7 E<7 E<7 E<7 E<7 E<7 E<7 E<7 E<7 E<7 E<7 E<7 E<7 E<7 E<7 E<7 E<7 E<7 E<7 E<7 E<7 E<7 E<7 E<7 E<7 E<7 E<7 E<7 E<7 E<7 E<7 E<7 E<7 E<7 E<7 E<7 E<7 E<7 E<7 E<7 E<7 E<7 7 7 G>7 G>7 G>7 G>7 G>7 G>7 G>7 G>7 G>7 G>7 G>7 G>7 G>7 G>7 G>7 G>7 G>7 G>7 G>7 G>7 G>7 G>7 G>7 G>7 G>7 G>7 G>7 G>7 G>7 G>7 G>7 G>7 G>7 G>7 G>7 G>7 G>7 G>7 G>7 G>7 G>7 G>7 G>7 G>7 G>7 G>7 G>7 G>7 G>7 G>7 G>7 G>7 G>7 G>7 G>7 G>7 G>7 G>7 G>7 G>7 G>7 G>7 G>7 G>7 G>7 G>7 G>7 G>7 G>7 G>7 G>7 G>7 G>7 G>7 G>7 G>7 G>7 G>7 G>7 G>7 G>7 G>7 G>7 G>7 G>7 G>7 G>7 G>7 G>7 G>7 G>7 G>7 G>7 G>7 G>7 G>7 G>7 G>7 G>7 G>7 G>7 G>7 G>7 G>7 G>7 G>7 G>7 G>7 G>7 G>7 G>7 G>7 G>7 G>7 G>7 G>7 G>7 G>7 G>7 G>7 G>7 G>7 G>7 G>7 G>7 G>7 G>7 G>7 G>7 G>7 G>7 G>7 G>7 G>7 G>7 G>7 G>7 G>7 G>7 G>7 G>7 G>7 G>7 G>7 G>7 G>7 G>7 G>7 G>7 G>7 G>7 G>7 G>7 G>7 G>7 G>7 G>7 G>7 G>7 G>7 G>7 G>7 G>7 G>7 G>7 G>7 G>7 G>7 G>7 G>7 G>7 G>7 G>7 G>7 G>7 G>7 G>7 G>7 G>7 G>7 G>7 G>7 G>7 G>7 G>7 G>7 G>7 G>7 G>7 G>7 G>7 G>7 G>7 G>7 G>7 G>7 G>7 G>7 G>7 G>7 G>7 G>7 G>7 G>7 G>7 G>7 G>7 G>7 G>7 G>7 G>7 G>7 G>7 G>7 G>7 G>7 G>7 G>7 G>7 G>7 G>7 G>7 G>7 G>7 G>7 G>7 G>7 G>7 G>7 G>7 G>7 G>7 G>7 G>7 G>7 G>7 G>7 G>7 G>7 G>7 G>7 G>7 G>7 G>7 G>7 G>7 G>7 G>7 G>7 G>7 G>7 G>7 G>7 G>7 G>7 G>7 G>7 G>7 G>7 G>7 G>7 G>7 G>7 G>7 G>7 G>7 G>7 G>7 G>7 G>7 G>7 G>7 G>7 G>7 G>7 G>7 G>7 G>7 G>7 G>7 G>7 G>7 G>7 G>7 G>7 G>7 G>7 G>7 G>7 G>7 G>7 G>7 G>7 G>7 G>7 G>7 G>7 G>7 G>7 G>7 G>7 G>7 G>7 G>7 G>7 G>7 G>7 G>7 G>7 G>7 G>7 G>7 G>7 G>7 G>7 G>7 G>7 G>7 G>7 G>7 G>7 G>7 G>7 G>7 G>7 G>7 G>7 G>7 G>7 G>7 G>7 G>7 G>7 G>7 G>7 G>7 G>7 G>7 G>7 G>7 G>7 G>7 G>7 G>7 G>7 G>7 G>7 G>7 G>7 G>7 G>7 G>7 G>7 G>7 G>7 G>7 G>7 G>7 7 E<7 E<7 E<7 E<7 E<7 E<7 E<7 E<7 E<7 E<7 E<7 E<7 E<7 E<7 E<7 E<7 E<7 E<7 E<7 E<7 E<7 E<7 E<7 E<7 E<7 E<7 E<7 E<7 E<7 E<7 E<7 E<7 E<7 E<7 E<7 E<7 E<7 E<7 E<7 E<7 E<7 E<7 E<7 E<7 E<7 E<7 E<7 E<7 E<7 E<7 E<7 E<7 E<7 E<7 E<7 E<7 E<7 E<7 E<7 E<7 E<7 E<7 E<7 E<7 E<7 E<7 E<7 E<7 E<7 E<7 E<7 E<7 E<7 E<7 E<7 E<7 E<7 E<7 E<7 E<7 E<7 E<7 E<7 E<7 E<7 E<7 E<7 E<7 E<7 E<7 E<7 E<7 E<7 E<7 E<7 E<7 E<7 E<7 E<7 E<7 E<7 E<7 E<7 E<7 E<7 E<7 E<7 E<7 E<7 E<7 E<7 E<7 E<7 E<7 E<7 E<7 E<7 E<7 E<7 E<7 E<7 E<7 E<7 E<7 E<7 E<7 E<7 E<7 E<7 E<7 E<7 E<7 E<7 E<7 E<7 E<7 E<7 E<7 E<7 E<7 E<7 E<7 E<7 E<7 E<7 E<7 E<7 E<7 E<7 E<7 E<7 E<7 E<7 E<7 E<7 E<7 E<7 E<7 E<7 E<7 E<7 E<7 E<7 E<7 E<7 E<7 E<7 E<7 E<7 E<7 E<7 E<7 E<7 E<7 E<7 E<7 E<7 E<7 <7 <7 B<7 B<7 B<7 B<7 B<7 B<7 B<7 B<7 B<7 B<7 B<7 B<7 B<7 B<7 B<7 B<7 B<7 B<7 B<7 B<7 B<7 B<7 B<7 B<7 B<7 B<7 B<7 B<7 B<7 B<7 B<7 B<7 B<7 B<7 B<7 B<7 B<7 B<7 B<7 B<7 B<7 B<7 B<7 B<7 B<7 B<7 B<7 B<7 B<7 B<7 B<7 B<7 B<7 B<7 B<7 B<7 B<7 B<7 B<7 B<7 B<7 B<7 B<7 B<7 B<7 B<7 B<7 B<7 B<7 B<7 B<7 B<7 B<7 B<7 B<7 B<7 B<7 B<7 B<7 B<7 B<7 B<7 B<7 B<7 B<7 B<7 B<7 B<7 B<7 B<7 B<7 B<7 B<7 B<7 B<7 B<7 B<7 B<7 B<7 B<7 B<7 B<7 B<7 B<7 B<7 B<7 B<7 B<7 B<7 B<7 B<7 B<7 B<7 B<7 B<7 B<7 B<7 B<7 B<7 B<7 B<7 B<7 B<7 B<7 B<7 B<7 B<7 B<7 B<7 B<7 B<7 B<7 B<7 B<7 B<7 B<7 B<7 B<7 B<7 B<7 B<7 B<7 B<7 B<7 B<7 B<7 B<7 B<7 B<7 B<7 B<7 B<7 B<7 B<7 B<7 B<7 B<7 B<7 B<7 B<7 B<7 B<7 B<7 B<7 B<7 B<7 B<7 B<7 B<7 B<7 B<7 B<7 B<7 B<7 B<7 B<7 B<7 B<7 7 7 C;7 C;7 C;7 C;7 C;7 C;7 C;7 C;7 C;7 C;7 C;7 C;7 C;7 C;7 C;7 C;7 C;7 C;7 C;7 C;7 C;7 C;7 C;7 C;7 C;7 C;7 C;7 C;7 C;7 C;7 C;7 C;7 C;7 C;7 C;7 C;7 C;7 C;7 C;7 C;7 C;7 C;7 C;7 C;7 C;7 C;7 C;7 C;7 C;7 C;7 C;7 C;7 C;7 C;7 C;7 C;7 C;7 C;7 C;7 C;7 C;7 C;7 C;7 C;7 C;7 C;7 C;7 C;7 C;7 C;7 C;7 C;7 C;7 C;7 C;7 C;7 C;7 C;7 C;7 C;7 C;7 C;7 C;7 C;7 C;7 C;7 C;7 C;7 C;7 C;7 C;7 C;7 C;7 C;7 C;7 C;7 C;7 C;7 C;7 C;7 C;7 C;7 C;7 C;7 C;7 C;7 C;7 C;7 C;7 C;7 C;7 C;7 C;7 C;7 C;7 C;7 C;7 C;7 C;7 C;7 C;7 C;7 C;7 C;7 C;7 C;7 C;7 C;7 C;7 C;7 C;7 C;7 C;7 C;7 C;7 C;7 C;7 C;7 C;7 C;7 C;7 C;7 C;7 C;7 C;7 C;7 C;7 C;7 C;7 C;7 C;7 C;7 C;7 C;7 C;7 C;7 C;7 C;7 C;7 C;7 C;7 C;7 C;7 C;7 C;7 C;7 C;7 C;7 C;7 C;7 C;7 C;7 C;7 C;7 C;7 C;7 C;7 C;7 C;7 C;7 C;7 C;7 C;7 C;7 C;7 C;7 C;7 C;7 C;7 C;7 C;7 C;7 C;7 C;7 C;7 C;7 C;7 C;7 C;7 C;7 C;7 C;7 C;7 C;7 C;7 C;7 C;7 C;7 C;7 C;7 C;7 C;7 C;7 C;7 C;7 C;7 C;7 C;7 C;7 C;7 C;7 C;7 C;7 C;7 C;7 C;7 C;7 C;7 C;7 C;7 C;7 C;7 C;7 C;7 C;7 C;7 C;7 C;7 C;7 C;7 C;7 C;7 C;7 C;7 C;7 C;7 C;7 C;7 C;7 C;7 C;7 C;7 C;7 C;7 C;7 C;7 C;7 C;7 C;7 C;7 C;7 C;7 C;7 C;7 C;7 C;7 C;7 C;7 C;7 C;7 C;7 C;7 C;7 C;7 C;7 C;7 C;7 C;7 C;7 C;7 C;7 C;7 C;7 C;7 C;7 C;7 C;7 C;7 C;7 C;7 C;7 C;7 C;7 C;7 C;7 C;7 C;7 C;7 C;7 C;7 C;7 C;7 C;7 C;7 C;7 C;7 C;7 C;7 C;7 C;7 C;7 C;7 C;7 C;7 C;7 C;7 C;7 C;7 C;7 C;7 C;7 C;7 C;7 C;7 C;7 C;7 C;7 C;7 C;7 C;7 C;7 C;7 C;7 C;7 C;7 C;7 C;7 C;7 C;7 C;7 C;7 C;7 C;7 C;7 C;7 C;7 C;7 C;7 C;7 C;7 C;7 C;7 C;7 C;7 C;7 C;7 C;7 C;7 7 7>< 7>< 7>< 7>< 7>< 7>< 7>< 7>< 7>< 7>< 7>< 7>< 7>< 7>< 7>< 7>< 7>< 7>< 7>< 7>< 7>< 7>< 7>< 7>< 7>< 7>< 7>< 7>< 7>< 7>< 7>< 7>< 7>< 7>< 7>< 7>< 7>< 7>< 7>< 7>< 7>< 7>< 7>< 7>< 7>< 7>< 7>< 7>< 7>< 7>< 7>< 7>< 7>< 7>< 7>< 7>< 7>< 7>< 7>< 7>< 7>< 7>< 7>< 7>< 7>< 7>< 7>< 7>< 7>< 7>< 7>< 7>< 7>< 7>< 7>< 7>< 7>< 7>< 7>< 7>< 7>< 7>< 7>< 7>< 7>< 7>< 7>< 7>< 7>< 7>< 7>< 7>< 7>< 7>< 7>< 7>< 7>< 7>< 7>< 7>< 7>< 7>< 7>< 7>< 7>< 7>< 7>< 7>< 7>< 7>< 7>< 7>< 7>< 7>< 7>< 7>< 7>< 7>< 7>< 7>< 7>< 7>< 7>< 7>< 7>< 7>< 7>< 7>< 7>< 7>< 7>< 7>< 7>< 7>< 7>< 7>< 7>< 7>< 7>< 7>< 7>< 7>< 7>< 7>< 7>< 7>< 7>< 7>< 7>< 7>< 7>< 7>< 7>< 7>< 7>< 7>< 7>< 7>< 7>< 7>< 7>< 7>< 7>< 7>< 7>< 7>< 7>< 7>< 7>< 7>< 7>< 7>< 7>< 7>< 7>< 7>< 7>< 7>< 7>< 7>< 7>< 7>< 7>< 7>< 7>< 7>< 7>< 7>< 7>< 7>< 7>< 7>< 7>< 7>< 7>< 7>< 7>< 7>< 7>< 7>< 7>< 7>< 7>< 7>< 7>< 7>< 7>< 7>< 7>< 7>< 7>< 7>< 7>< 7>< 7>< 7>< 7>< 7>< 7>< 7>< 7>< 7>< 7>< 7>< 7>< 7>< 7>< 7>< 7>< 7>< 7>< 7>< 7>< 7>< 7>< 7>< 7>< 7>< 7>< 7>< 7>< 7>< 7>< 7>< 7>< 7>< 7>< 7>< 7>< 7>< 7>< 7>< 7>< 7>< 7>< 7>< 7>< 7>< 7>< 7>< 7>< 7>< 7>< 7>< 7>< 7>< 7>< 7>< 7>< 7>< 7>< 7>< 7>< 7>< 7>< 7>< 7>< 7>< 7>< 7>< 7>< 7>< 7>< 7>< 7>< 7>< 7>< 7>< 7>< 7>< 7>< 7>< 7>< 7>< 7>< 7>< 7>< 7>< 7>< 7>< 7>< 7>< 7>< 7>< 7>< 7>< 7>< 7>< 7>< 7>< 7>< 7>< 7>< 7>< 7>< 7>< 7>< 7>< 7>< 7>< 7>< 7>< 7>< 7>< 7>< 7>< 7>< 7>< 7>< 7>< 7>< 7>< 7>< 7>< 7>< 7>< 7>< 7>< 7>< 7>< 7>< 7>< 7>< 7>< 7>< 7>< 7>< 7>< 7>< 7>< 7>< 7>< >< >< >< ><   C;7 C;7 C;7 C;7 C;7 C;7 C;7 C;7 C;7 C;7 C;7 C;7 C;7 C;7 C;7 C;7 C;7 C;7 C;7 C;7 C;7 C;7 C;7 C;7 C;7 C;7 C;7 C;7 C;7 C;7 C;7 C;7 C;7 C;7 C;7 C;7 C;7 C;7 C;7 C;7 C;7 C;7 C;7 C;7 C;7 C;7 C;7 C;7 C;7 C;7 C;7 C;7 C;7 C;7 C;7 C;7 C;7 C;7 C;7 C;7 C;7 C;7 C;7 C;7 C;7 C;7 C;7 C;7 C;7 C;7 C;7 C;7 C;7 C;7 C;7 C;7 C;7 C;7 C;7 C;7 C;7 C;7 C;7 C;7 C;7 C;7 C;7 C;7 C;7 C;7 C;7 C;7 C;7 C;7 C;7 C;7 C;7 C;7 C;7 C;7 C;7 C;7 C;7 C;7 C;7 C;7 C;7 C;7 C;7 C;7 C;7 C;7 C;7 C;7 C;7 C;7 C;7 C;7 C;7 C;7 C;7 C;7 C;7 C;7 C;7 C;7 C;7 C;7 C;7 C;7 C;7 C;7 C;7 C;7 C;7 C;7 C;7 C;7 C;7 C;7 C;7 C;7 C;7 C;7 C;7 C;7 C;7 C;7 C;7 C;7 C;7 C;7 C;7 C;7 C;7 C;7 C;7 C;7 C;7 C;7 C;7 C;7 C;7 C;7 C;7 C;7 C;7 C;7 C;7 C;7 C;7 C;7 C;7 C;7 C;7 C;7 C;7 C;7 C;7 C;7 C;7 C;7 C;7 C;7 C;7 C;7 C;7 C;7 C;7 C;7 C;7 C;7 C;7 C;7 C;7 C;7 C;7 C;7 C;7 C;7 C;7 C;7 C;7 C;7 C;7 C;7 C;7 C;7 C;7 C;7 C;7 C;7 C;7 C;7 C;7 C;7 C;7 C;7 C;7 C;7 C;7 C;7 C;7 C;7 C;7 C;7 C;7 C;7 C;7 C;7 C;7 C;7 C;7 C;7 C;7 C;7 C;7 C;7 C;7 C;7 C;7 C;7 C;7 C;7 C;7 C;7 C;7 C;7 C;7 C;7 C;7 C;7 C;7 C;7 C;7 C;7 C;7 C;7 C;7 C;7 C;7 C;7 C;7 C;7 C;7 C;7 C;7 C;7 C;7 C;7 C;7 C;7 C;7 C;7 C;7 C;7 C;7 C;7 C;7 C;7 C;7 C;7 C;7 C;7 C;7 C;7 C;7 C;7 C;7 C;7 C;7 C;7 C;7 C;7 C;7 C;7 C;7 C;7 C;7 C;7 C;7 C;7 C;7 C;7 C;7 C;7 C;7 C;7 C;7 C;7 C;7 C;7 C;7 C;7 C;7 C;7 C;7 C;7 C;7 C;7 C;7 C;7 C;7 C;7 C;7 C;7 C;7 C;7 C;7 C;7 C;7 C;7 C;7 C;7 C;7 C;7 C;7 C;7 C;7 C;7 C;7 C;7 C;7 C;7 C;7 C;7 C;7 C;7 C;7 C;7 C;7 C;7 C;7 C;7 C;7 C;7 C;7 C;7 7 7 E97 E97 E97 E97 E97 E97 E97 E97 E97 E97 E97 E97 E97 E97 E97 E97 E97 E97 E97 E97 E97 E97 E97 E97 E97 E97 E97 E97 E97 E97 E97 E97 E97 E97 E97 E97 E97 E97 E97 E97 E97 E97 E97 E97 E97 E97 E97 E97 E97 E97 E97 E97 E97 E97 E97 E97 E97 E97 E97 E97 E97 E97 E97 E97 E97 E97 E97 E97 E97 E97 E97 E97 E97 E97 E97 E97 E97 E97 E97 E97 E97 E97 E97 E97 E97 E97 E97 E97 E97 E97 E97 E97 E97 E97 E97 E97 E97 E97 E97 E97 E97 E97 E97 E97 E97 E97 E97 E97 E97 E97 E97 E97 E97 E97 E97 E97 E97 E97 E97 E97 E97 E97 E97 E97 E97 E97 E97 E97 E97 E97 E97 E97 E97 E97 E97 E97 E97 E97 E97 E97 E97 E97 E97 E97 E97 E97 E97 E97 E97 E97 E97 E97 E97 E97 E97 E97 E97 E97 E97 E97 E97 E97 E97 E97 E97 E97 E97 E97 E97 E97 E97 E97 E97 E97 E97 E97 E97 E97 97 97 B97 B97 B97 B97 B97 B97 B97 B97 B97 B97 B97 B97 B97 B97 B97 B97 B97 B97 B97 B97 B97 B97 B97 B97 B97 B97 B97 B97 B97 B97 B97 B97 B97 B97 B97 B97 B97 B97 B97 B97 B97 B97 B97 B97 B97 B97 B97 B97 B97 B97 B97 B97 B97 B97 B97 B97 B97 B97 B97 B97 B97 B97 B97 B97 B97 B97 B97 B97 B97 B97 B97 B97 B97 B97 B97 B97 B97 B97 B97 B97 B97 B97 B97 B97 B97 B97 B97 B97 B97 B97 B97 B97 B97 B97 B97 B97 B97 B97 B97 B97 B97 B97 B97 B97 B97 B97 B97 B97 B97 B97 B97 B97 B97 B97 B97 B97 B97 B97 B97 B97 B97 B97 B97 B97 B97 B97 B97 B97 B97 B97 B97 B97 B97 B97 B97 B97 B97 B97 B97 B97 B97 B97 B97 B97 B97 B97 B97 B97 B97 B97 B97 B97 B97 B97 B97 B97 B97 B97 B97 B97 B97 B97 B97 B97 B97 B97 B97 B97 B97 B97 B97 B97 B97 B97 B97 B97 B97 B97 7 7 C;7 C;7 C;7 C;7 C;7 C;7 C;7 C;7 C;7 C;7 C;7 C;7 C;7 C;7 C;7 C;7 C;7 C;7 C;7 C;7 C;7 C;7 C;7 C;7 C;7 C;7 C;7 C;7 C;7 C;7 C;7 C;7 C;7 C;7 C;7 C;7 C;7 C;7 C;7 C;7 C;7 C;7 C;7 C;7 C;7 C;7 C;7 C;7 C;7 C;7 C;7 C;7 C;7 C;7 C;7 C;7 C;7 C;7 C;7 C;7 C;7 C;7 C;7 C;7 C;7 C;7 C;7 C;7 C;7 C;7 C;7 C;7 C;7 C;7 C;7 C;7 C;7 C;7 C;7 C;7 C;7 C;7 C;7 C;7 C;7 C;7 C;7 C;7 C;7 C;7 C;7 C;7 C;7 C;7 C;7 C;7 C;7 C;7 C;7 C;7 C;7 C;7 C;7 C;7 C;7 C;7 C;7 C;7 C;7 C;7 C;7 C;7 C;7 C;7 C;7 C;7 C;7 C;7 C;7 C;7 C;7 C;7 C;7 C;7 C;7 C;7 C;7 C;7 C;7 C;7 C;7 C;7 C;7 C;7 C;7 C;7 C;7 C;7 C;7 C;7 C;7 C;7 C;7 C;7 C;7 C;7 C;7 C;7 C;7 C;7 C;7 C;7 C;7 C;7 C;7 C;7 C;7 C;7 C;7 C;7 C;7 C;7 C;7 C;7 C;7 C;7 C;7 C;7 C;7 C;7 C;7 C;7 C;7 C;7 C;7 C;7 C;7 C;7 ;7 ;7 E;7 E;7 E;7 E;7 E;7 E;7 E;7 E;7 E;7 E;7 E;7 E;7 E;7 E;7 E;7 E;7 E;7 E;7 E;7 E;7 E;7 E;7 E;7 E;7 E;7 E;7 E;7 E;7 E;7 E;7 E;7 E;7 E;7 E;7 E;7 E;7 E;7 E;7 E;7 E;7 E;7 E;7 E;7 E;7 E;7 E;7 E;7 E;7 E;7 E;7 E;7 E;7 E;7 E;7 E;7 E;7 E;7 E;7 E;7 E;7 E;7 E;7 E;7 E;7 E;7 E;7 E;7 E;7 E;7 E;7 E;7 E;7 E;7 E;7 E;7 E;7 E;7 E;7 E;7 E;7 E;7 E;7 E;7 E;7 E;7 E;7 E;7 E;7 E;7 E;7 E;7 E;7 E;7 E;7 E;7 E;7 E;7 E;7 E;7 E;7 E;7 E;7 E;7 E;7 E;7 E;7 E;7 E;7 E;7 E;7 E;7 E;7 E;7 E;7 E;7 E;7 E;7 E;7 E;7 E;7 E;7 E;7 E;7 E;7 E;7 E;7 E;7 E;7 E;7 E;7 E;7 E;7 E;7 E;7 E;7 E;7 E;7 E;7 E;7 E;7 E;7 E;7 E;7 E;7 E;7 E;7 E;7 E;7 E;7 E;7 E;7 E;7 E;7 E;7 E;7 E;7 E;7 E;7 E;7 E;7 E;7 E;7 E;7 E;7 E;7 E;7 E;7 E;7 E;7 E;7 E;7 E;7 E;7 E;7 E;7 E;7 E;7 E;7 7 G<7 G<7 G<7 G<7 G<7 G<7 G<7 G<7 G<7 G<7 G<7 G<7 G<7 G<7 G<7 G<7 G<7 G<7 G<7 G<7 G<7 G<7 G<7 G<7 G<7 G<7 G<7 G<7 G<7 G<7 G<7 G<7 G<7 G<7 G<7 G<7 G<7 G<7 G<7 G<7 G<7 G<7 G<7 G<7 G<7 G<7 G<7 G<7 G<7 G<7 G<7 G<7 G<7 G<7 G<7 G<7 G<7 G<7 G<7 G<7 G<7 G<7 G<7 G<7 G<7 G<7 G<7 G<7 G<7 G<7 G<7 G<7 G<7 G<7 G<7 G<7 G<7 G<7 G<7 G<7 G<7 G<7 G<7 G<7 G<7 G<7 G<7 G<7 G<7 G<7 G<7 G<7 G<7 G<7 G<7 G<7 G<7 G<7 G<7 G<7 G<7 G<7 G<7 G<7 G<7 G<7 G<7 G<7 G<7 G<7 G<7 G<7 G<7 G<7 G<7 G<7 G<7 G<7 G<7 G<7 G<7 G<7 G<7 G<7 G<7 G<7 G<7 G<7 G<7 G<7 G<7 G<7 G<7 G<7 G<7 G<7 G<7 G<7 G<7 G<7 G<7 G<7 G<7 G<7 G<7 G<7 G<7 G<7 G<7 G<7 G<7 G<7 G<7 G<7 G<7 G<7 G<7 G<7 G<7 G<7 G<7 G<7 G<7 G<7 G<7 G<7 G<7 G<7 G<7 G<7 G<7 G<7 G<7 G<7 G<7 G<7 G<7 G<7 <7 <7 H<7 H<7 H<7 H<7 H<7 H<7 H<7 H<7 H<7 H<7 H<7 H<7 H<7 H<7 H<7 H<7 H<7 H<7 H<7 H<7 H<7 H<7 H<7 H<7 H<7 H<7 H<7 H<7 H<7 H<7 H<7 H<7 H<7 H<7 H<7 H<7 H<7 H<7 H<7 H<7 H<7 H<7 H<7 H<7 H<7 H<7 H<7 H<7 H<7 H<7 H<7 H<7 H<7 H<7 H<7 H<7 H<7 H<7 H<7 H<7 H<7 H<7 H<7 H<7 H<7 H<7 H<7 H<7 H<7 H<7 H<7 H<7 H<7 H<7 H<7 H<7 H<7 H<7 H<7 H<7 H<7 H<7 H<7 H<7 H<7 H<7 H<7 H<7 H<7 H<7 H<7 H<7 H<7 H<7 H<7 H<7 H<7 H<7 H<7 H<7 H<7 H<7 H<7 H<7 H<7 H<7 H<7 H<7 H<7 H<7 H<7 H<7 H<7 H<7 H<7 H<7 H<7 H<7 H<7 H<7 H<7 H<7 H<7 H<7 H<7 H<7 H<7 H<7 H<7 H<7 H<7 H<7 H<7 H<7 H<7 H<7 H<7 H<7 H<7 H<7 H<7 H<7 H<7 H<7 H<7 H<7 H<7 H<7 H<7 H<7 H<7 H<7 H<7 H<7 H<7 H<7 H<7 H<7 H<7 H<7 H<7 H<7 H<7 H<7 H<7 H<7 H<7 H<7 H<7 H<7 H<7 H<7 H<7 H<7 H<7 H<7 H<7 H<7 7 7 J;7 J;7 J;7 J;7 J;7 J;7 J;7 J;7 J;7 J;7 J;7 J;7 J;7 J;7 J;7 J;7 J;7 J;7 J;7 J;7 J;7 J;7 J;7 J;7 J;7 J;7 J;7 J;7 J;7 J;7 J;7 J;7 J;7 J;7 J;7 J;7 J;7 J;7 J;7 J;7 J;7 J;7 J;7 J;7 J;7 J;7 J;7 J;7 J;7 J;7 J;7 J;7 J;7 J;7 J;7 J;7 J;7 J;7 J;7 J;7 J;7 J;7 J;7 J;7 J;7 J;7 J;7 J;7 J;7 J;7 J;7 J;7 J;7 J;7 J;7 J;7 J;7 J;7 J;7 J;7 J;7 J;7 J;7 J;7 J;7 J;7 J;7 J;7 J;7 J;7 J;7 J;7 J;7 J;7 J;7 J;7 J;7 J;7 J;7 J;7 J;7 J;7 J;7 J;7 J;7 J;7 J;7 J;7 J;7 J;7 J;7 J;7 J;7 J;7 J;7 J;7 J;7 J;7 J;7 J;7 J;7 J;7 J;7 J;7 J;7 J;7 J;7 J;7 J;7 J;7 J;7 J;7 J;7 J;7 J;7 J;7 J;7 J;7 J;7 J;7 J;7 J;7 J;7 J;7 J;7 J;7 J;7 J;7 J;7 J;7 J;7 J;7 J;7 J;7 J;7 J;7 J;7 J;7 J;7 J;7 J;7 J;7 J;7 J;7 J;7 J;7 J;7 J;7 J;7 J;7 J;7 J;7 J;7 J;7 J;7 J;7 J;7 J;7 ;7 ;7 G;7 G;7 G;7 G;7 G;7 G;7 G;7 G;7 G;7 G;7 G;7 G;7 G;7 G;7 G;7 G;7 G;7 G;7 G;7 G;7 G;7 G;7 G;7 G;7 G;7 G;7 G;7 G;7 G;7 G;7 G;7 G;7 G;7 G;7 G;7 G;7 G;7 G;7 G;7 G;7 G;7 G;7 G;7 G;7 G;7 G;7 G;7 G;7 G;7 G;7 G;7 G;7 G;7 G;7 G;7 G;7 G;7 G;7 G;7 G;7 G;7 G;7 G;7 G;7 G;7 G;7 G;7 G;7 G;7 G;7 G;7 G;7 G;7 G;7 G;7 G;7 G;7 G;7 G;7 G;7 G;7 G;7 G;7 G;7 G;7 G;7 G;7 G;7 G;7 G;7 G;7 G;7 G;7 G;7 G;7 G;7 G;7 G;7 G;7 G;7 G;7 G;7 G;7 G;7 G;7 G;7 G;7 G;7 G;7 G;7 G;7 G;7 G;7 G;7 G;7 G;7 G;7 G;7 G;7 G;7 G;7 G;7 G;7 G;7 G;7 G;7 G;7 G;7 G;7 G;7 G;7 G;7 G;7 G;7 G;7 G;7 G;7 G;7 G;7 G;7 G;7 G;7 G;7 G;7 G;7 G;7 G;7 G;7 G;7 G;7 G;7 G;7 G;7 G;7 G;7 G;7 G;7 G;7 G;7 G;7 G;7 G;7 G;7 G;7 G;7 G;7 G;7 G;7 G;7 G;7 G;7 G;7 G;7 G;7 G;7 G;7 G;7 G;7 7 7 H79 H79 H79 H79 H79 H79 H79 H79 H79 H79 H79 H79 H79 H79 H79 H79 H79 H79 H79 H79 H79 H79 H79 H79 H79 H79 H79 H79 H79 H79 H79 H79 H79 H79 H79 H79 H79 H79 H79 H79 H79 H79 H79 H79 H79 H79 H79 H79 H79 H79 H79 H79 H79 H79 H79 H79 H79 H79 H79 H79 H79 H79 H79 H79 H79 H79 H79 H79 H79 H79 H79 H79 H79 H79 H79 H79 H79 H79 H79 H79 H79 H79 H79 H79 H79 H79 H79 H79 H79 H79 H79 H79 H79 H79 H79 H79 H79 H79 H79 H79 H79 H79 H79 H79 H79 H79 H79 H79 H79 H79 H79 H79 H79 H79 H79 H79 H79 H79 H79 H79 H79 H79 H79 H79 H79 H79 H79 H79 H79 H79 H79 H79 H79 H79 H79 H79 H79 H79 H79 H79 H79 H79 H79 H79 H79 H79 H79 H79 H79 H79 H79 H79 H79 H79 H79 H79 H79 H79 H79 H79 H79 H79 H79 H79 H79 H79 H79 H79 H79 H79 H79 H79 H79 H79 H79 H79 H79 H79 79 7E9 7E9 7E9 7E9 7E9 7E9 7E9 7E9 7E9 7E9 7E9 7E9 7E9 7E9 7E9 7E9 7E9 7E9 7E9 7E9 7E9 7E9 7E9 7E9 7E9 7E9 7E9 7E9 7E9 7E9 7E9 7E9 7E9 7E9 7E9 7E9 7E9 7E9 7E9 7E9 7E9 7E9 7E9 7E9 7E9 7E9 7E9 7E9 7E9 7E9 7E9 7E9 7E9 7E9 7E9 7E9 7E9 7E9 7E9 7E9 7E9 7E9 7E9 7E9 7E9 7E9 7E9 7E9 7E9 7E9 7E9 7E9 7E9 7E9 7E9 7E9 7E9 7E9 7E9 7E9 7E9 7E9 7E9 7E9 7E9 7E9 7E9 7E9 7E9 7E9 7E9 7E9 7E9 7E9 7E9 7E9 7E9 7E9 7E9 7E9 7E9 7E9 7E9 7E9 7E9 7E9 7E9 7E9 7E9 7E9 7E9 7E9 7E9 7E9 7E9 7E9 7E9 7E9 7E9 7E9 7E9 7E9 7E9 7E9 7E9 7E9 7E9 7E9 7E9 7E9 7E9 7E9 7E9 7E9 7E9 7E9 7E9 7E9 7E9 7E9 7E9 7E9 7E9 7E9 7E9 7E9 7E9 7E9 7E9 7E9 7E9 7E9 7E9 7E9 7E9 7E9 7E9 7E9 7E9 7E9 7E9 7E9 7E9 7E9 7E9 7E9 7E9 7E9 7E9 7E9 7E9 7E9 7E9 7E9 7E9 7E9 E9 E9 9  G7 G7 G7 G7 G7 G7 G7 G7 G7 G7 G7 G7 G7 G7 G7 G7 G7 G7 G7 G7 G7 G7 G7 G7 G7 G7 G7 G7 G7 G7 G7 G7 G7 G7 G7 G7 G7 G7 G7 G7 G7 G7 G7 G7 G7 G7 G7 G7 G7 G7 G7 G7 G7 G7 G7 G7 G7 G7 G7 G7 G7 G7 G7 G7 G7 G7 G7 G7 G7 G7 G7 G7 G7 G7 G7 G7 G7 G7 G7 G7 G7 G7 G7 G7 G7 G7 G7 G7 G7 G7 G7 G7 G7 G7 G7 G7 G7 G7 G7 G7 G7 G7 G7 G7 G7 G7 G7 G7 G7 G7 G7 G7 G7 G7 G7 G7 G7 G7 G7 G7 G7 G7 G7 G7 G7 G7 G7 G7 G7 G7 G7 G7 G7 G7 G7 G7 G7 G7 G7 G7 G7 G7 G7 G7 G7 G7 G7 G7 G7 G7 G7 G7 G7 G7 G7 G7 G7 G7 G7 G7 G7 G7 G7 G7 G7 G7 G7 G7 G7 G7 G7 G7 G7 G7 G7 G7 G7 G7 G7 G7 G7 G7 G7 G7 G7 G7 G7 G7 G7 G7 G7 G7 G7 G7 G7 G7 G7 G7 G7 G7 G7 G7 G7 G7 G7 G7 G7 G7 G7 G7 G7 G7 G7 G7 G7 G7 G7 G7 G7 G7 G7 G7 G7 G7 G7 G7 G7 G7 G7 G7 G7 G7 G7 G7 G7 G7 G7 G7 G7 G7 G7 G7 G7 G7 G7 G7 G7 G7 G7 G7 G7 G7 G7 G7 G7 G7 G7 G7 G7 G7 G7 G7 G7 G7 G7 G7 G7 G7 G7 G7 G7 G7 G7 G7 G7 G7 G7 G7 G7 G7 G7 G7 G7 G7 G7 G7 G7 G7 G7 G7 G7 G7 G7 G7 G7 G7 G7 G7 G7 G7 G7 G7 G7 G7 G7 G7 G7 G7 G7 G7 G7 G7 G7 G7 G7 G7 G7 G7 G7 G7 G7 G7 G7 G7 G7 G7 G7 G7 G7 G7 G7 G7 G7 G7 G7 G7 G7 G7 G7 G7 G7 G7 G7 G7 G7 G7 G7 G7 G7 G7 G7 G7 G7 G7 G7 G7 G7 G7 G7 G7 G7 G7 G7 G7 G7 G7 G7 G7 G7 G7 G7 G7 G7 G7 G7 G7 G7 G7 G7 G7 G7 G7 G7 G7 G7 G7 G7 G7 G7 G7 G7 G7 G7 G7 G7 G7 G7 G7 G7 G7 G7 G7 G7 G7 G7 G7 G7 G7 G7 G7 G7 G7 G7 G7 G7 G7 G7 G7 G7 G7 G7 G7 G7 G7 G7 G7 G7 G7 G7 G7 G7 G7 G7 G7 G7 G7 G7 G7 G7 G7 G7 G7 G7 G7 G7 G7 G7 G7 G7 G7 G7 G7 G7 G7 G7 G7 G7 G7 G7 G7 G7 G7 G7 G7 G7 G7 G7 G7 G7 G7 G7 G7 G7 G7 G7 G7 G7 G7 G7 G7 G7 G7 G7 G7 G7 G7 G7 G7 G7 G7 G7 G7 G7 G7 G7 G7 G7 G7 G7 G7 G7 G7 G7 G7 G7 G7 G7 G7 G7 G7 G7 G7 G7 G7 G7 G7 G7 G7 G7 G7 G7 G7 G7 G7 G7 G7 G7 G7 G7 G7 G7 G7 G7 G7 G7 G7 G7 G7 G7 G7 G7 G7 G7 G7 G7 G7 G7 G7 G7 G7 G7 G7 G7 G7 G7 G7 G7 G7 G7 G7 G7 G7 G7 G7 G7 G7 G7 G7 G7 G7 G7 G7 G7 G7 G7 G7 G7 G7 G7 G7 G7 G7 G7 G7 G7 G7 G7 G7 G7 G7 G7 G7 G7 G7 G7 G7 G7 G7 G7 G7 G7 G7 G7 G7 G7 G7 G7 G7 G7 G7 G7 G7 G7 G7 G7 G7 G7 G7 G7 G7 G7 G7 G7 G7 G7 G7 G7 G7 G7 G7 G7 G7 G7 G7 G7 G7 G7 G7 G7 G7 G7 G7 G7 G7 G7 G7 G7 G7 G7 G7 G7 G7 G7 G7 G7 G7 G7 G7 G7 G7 G7 G7 G7 G7 G7 G7 G7 G7 G7 G7 G7 G7 G7 G7 G7 G7 G7 G7 G7 G7 G7 G7 G7 G7 G7 G7 G7 G7 G7 G7 G7 G7 G7 G7 G7 G7 G7 G7 G7 G7 G7 G7 G7 G7 G7 G7 G7 G7 G7 G7 G7 G7 G7 G7 G7 G7 G7    J;7 J;7 J;7 J;7 J;7 J;7 J;7 J;7 J;7 J;7 J;7 J;7 J;7 J;7 J;7 J;7 J;7 J;7 J;7 J;7 J;7 J;7 J;7 J;7 J;7 J;7 J;7 J;7 J;7 J;7 J;7 J;7 J;7 J;7 J;7 J;7 J;7 J;7 J;7 J;7 J;7 J;7 J;7 J;7 J;7 J;7 J;7 J;7 J;7 J;7 J;7 J;7 J;7 J;7 J;7 J;7 J;7 J;7 J;7 J;7 J;7 J;7 J;7 J;7 J;7 J;7 J;7 J;7 J;7 J;7 J;7 J;7 J;7 J;7 J;7 J;7 J;7 J;7 J;7 J;7 J;7 J;7 J;7 J;7 J;7 J;7 J;7 J;7 J;7 J;7 J;7 J;7 J;7 J;7 J;7 J;7 J;7 J;7 J;7 J;7 J;7 J;7 J;7 J;7 J;7 J;7 J;7 J;7 J;7 J;7 J;7 J;7 J;7 J;7 J;7 J;7 J;7 J;7 J;7 J;7 J;7 J;7 J;7 J;7 J;7 J;7 J;7 J;7 J;7 J;7 J;7 J;7 J;7 J;7 J;7 J;7 J;7 J;7 J;7 J;7 J;7 J;7 J;7 J;7 J;7 J;7 J;7 J;7 J;7 J;7 J;7 J;7 J;7 J;7 J;7 J;7 J;7 J;7 J;7 J;7 J;7 J;7 J;7 J;7 J;7 J;7 J;7 J;7 J;7 J;7 J;7 J;7 J;7 J;7 J;7 J;7 J;7 J;7 J;7 J;7 J;7 J;7 J;7 J;7 J;7 J;7 J;7 J;7 J;7 J;7 J;7 J;7 J;7 J;7 J;7 J;7 J;7 J;7 J;7 J;7 J;7 J;7 J;7 J;7 J;7 J;7 J;7 J;7 J;7 J;7 J;7 J;7 J;7 J;7 J;7 J;7 J;7 J;7 J;7 J;7 J;7 J;7 J;7 J;7 J;7 J;7 J;7 J;7 J;7 J;7 J;7 J;7 J;7 J;7 J;7 J;7 J;7 J;7 J;7 J;7 J;7 J;7 J;7 J;7 J;7 J;7 J;7 J;7 J;7 J;7 J;7 J;7 J;7 J;7 J;7 J;7 J;7 J;7 J;7 J;7 J;7 J;7 J;7 J;7 J;7 J;7 J;7 J;7 J;7 J;7 J;7 J;7 J;7 J;7 J;7 J;7 J;7 J;7 J;7 J;7 J;7 J;7 J;7 J;7 J;7 J;7 J;7 J;7 J;7 J;7 J;7 J;7 J;7 J;7 J;7 J;7 J;7 J;7 J;7 J;7 J;7 J;7 J;7 J;7 J;7 J;7 J;7 J;7 J;7 J;7 J;7 J;7 J;7 J;7 J;7 J;7 J;7 J;7 J;7 J;7 J;7 J;7 J;7 J;7 J;7 J;7 J;7 J;7 J;7 J;7 J;7 J;7 J;7 J;7 J;7 J;7 J;7 J;7 J;7 J;7 J;7 J;7 J;7 J;7 J;7 J;7 J;7 J;7 J;7 J;7 J;7 J;7 J;7 J;7 J;7 J;7 J;7 J;7 7 L97 L97 L97 L97 L97 L97 L97 L97 L97 L97 L97 L97 L97 L97 L97 L97 L97 L97 L97 L97 L97 L97 L97 L97 L97 L97 L97 L97 L97 L97 L97 L97 L97 L97 L97 L97 L97 L97 L97 L97 L97 L97 L97 L97 L97 L97 L97 L97 L97 L97 L97 L97 L97 L97 L97 L97 L97 L97 L97 L97 L97 L97 L97 L97 L97 L97 L97 L97 L97 L97 L97 L97 L97 L97 L97 L97 L97 L97 L97 L97 L97 L97 L97 L97 L97 L97 L97 L97 L97 L97 L97 L97 L97 L97 L97 L97 L97 L97 L97 L97 L97 L97 L97 L97 L97 L97 L97 L97 L97 L97 L97 L97 L97 L97 L97 L97 L97 L97 L97 L97 L97 L97 L97 L97 L97 L97 L97 L97 L97 L97 L97 L97 L97 L97 L97 L97 L97 L97 L97 L97 L97 L97 L97 L97 L97 L97 L97 L97 L97 L97 L97 L97 L97 L97 L97 L97 L97 L97 L97 L97 L97 L97 L97 L97 L97 L97 L97 L97 L97 L97 L97 L97 L97 L97 L97 L97 L97 L97 97 97 H97 H97 H97 H97 H97 H97 H97 H97 H97 H97 H97 H97 H97 H97 H97 H97 H97 H97 H97 H97 H97 H97 H97 H97 H97 H97 H97 H97 H97 H97 H97 H97 H97 H97 H97 H97 H97 H97 H97 H97 H97 H97 H97 H97 H97 H97 H97 H97 H97 H97 H97 H97 H97 H97 H97 H97 H97 H97 H97 H97 H97 H97 H97 H97 H97 H97 H97 H97 H97 H97 H97 H97 H97 H97 H97 H97 H97 H97 H97 H97 H97 H97 H97 H97 H97 H97 H97 H97 H97 H97 H97 H97 H97 H97 H97 H97 H97 H97 H97 H97 H97 H97 H97 H97 H97 H97 H97 H97 H97 H97 H97 H97 H97 H97 H97 H97 H97 H97 H97 H97 H97 H97 H97 H97 H97 H97 H97 H97 H97 H97 H97 H97 H97 H97 H97 H97 H97 H97 H97 H97 H97 H97 H97 H97 H97 H97 H97 H97 H97 H97 H97 H97 H97 H97 H97 H97 H97 H97 H97 H97 H97 H97 H97 H97 H97 H97 H97 H97 H97 H97 H97 H97 H97 H97 H97 H97 H97 H97 7 7 J;7 J;7 J;7 J;7 J;7 J;7 J;7 J;7 J;7 J;7 J;7 J;7 J;7 J;7 J;7 J;7 J;7 J;7 J;7 J;7 J;7 J;7 J;7 J;7 J;7 J;7 J;7 J;7 J;7 J;7 J;7 J;7 J;7 J;7 J;7 J;7 J;7 J;7 J;7 J;7 J;7 J;7 J;7 J;7 J;7 J;7 J;7 J;7 J;7 J;7 J;7 J;7 J;7 J;7 J;7 J;7 J;7 J;7 J;7 J;7 J;7 J;7 J;7 J;7 J;7 J;7 J;7 J;7 J;7 J;7 J;7 J;7 J;7 J;7 J;7 J;7 J;7 J;7 J;7 J;7 J;7 J;7 J;7 J;7 J;7 J;7 J;7 J;7 J;7 J;7 J;7 J;7 J;7 J;7 J;7 J;7 J;7 J;7 J;7 J;7 J;7 J;7 J;7 J;7 J;7 J;7 J;7 J;7 J;7 J;7 J;7 J;7 J;7 J;7 J;7 J;7 J;7 J;7 J;7 J;7 J;7 J;7 J;7 J;7 J;7 J;7 J;7 J;7 J;7 J;7 J;7 J;7 J;7 J;7 J;7 J;7 J;7 J;7 J;7 J;7 J;7 J;7 J;7 J;7 J;7 J;7 J;7 J;7 J;7 J;7 J;7 J;7 J;7 J;7 J;7 J;7 J;7 J;7 J;7 J;7 J;7 J;7 J;7 J;7 J;7 J;7 J;7 J;7 J;7 J;7 J;7 J;7 J;7 J;7 J;7 J;7 J;7 J;7 J;7 J;7 J;7 J;7 J;7 J;7 J;7 J;7 J;7 J;7 J;7 J;7 J;7 J;7 J;7 J;7 J;7 J;7 J;7 J;7 J;7 J;7 J;7 J;7 J;7 J;7 J;7 J;7 J;7 J;7 J;7 J;7 J;7 J;7 J;7 J;7 J;7 J;7 J;7 J;7 J;7 J;7 J;7 J;7 J;7 J;7 J;7 J;7 J;7 J;7 J;7 J;7 J;7 J;7 J;7 J;7 J;7 J;7 J;7 J;7 J;7 J;7 J;7 J;7 J;7 J;7 J;7 J;7 J;7 J;7 J;7 J;7 J;7 J;7 J;7 J;7 J;7 J;7 J;7 J;7 J;7 J;7 J;7 J;7 J;7 J;7 J;7 J;7 J;7 J;7 J;7 J;7 J;7 J;7 J;7 J;7 J;7 J;7 J;7 J;7 J;7 J;7 J;7 J;7 J;7 J;7 J;7 J;7 J;7 J;7 J;7 J;7 J;7 J;7 J;7 J;7 J;7 J;7 J;7 J;7 J;7 J;7 J;7 J;7 J;7 J;7 J;7 J;7 J;7 J;7 J;7 J;7 J;7 J;7 J;7 J;7 J;7 J;7 J;7 J;7 J;7 J;7 J;7 J;7 J;7 J;7 J;7 J;7 J;7 J;7 J;7 J;7 J;7 J;7 J;7 J;7 J;7 J;7 J;7 J;7 J;7 J;7 J;7 J;7 J;7 J;7 J;7 J;7 J;7 J;7 J;7 J;7 J;7 J;7 J;7 J;7 J;7 J;7 J;7 J;7 7 7 H@7 H@7 H@7 H@7 H@7 H@7 H@7 H@7 H@7 H@7 H@7 H@7 H@7 H@7 H@7 H@7 H@7 H@7 H@7 H@7 H@7 H@7 H@7 H@7 H@7 H@7 H@7 H@7 H@7 H@7 H@7 H@7 H@7 H@7 H@7 H@7 H@7 H@7 H@7 H@7 H@7 H@7 H@7 H@7 H@7 H@7 H@7 H@7 H@7 H@7 H@7 H@7 H@7 H@7 H@7 H@7 H@7 H@7 H@7 H@7 H@7 H@7 H@7 H@7 H@7 H@7 H@7 H@7 H@7 H@7 H@7 H@7 H@7 H@7 H@7 H@7 H@7 H@7 H@7 H@7 H@7 H@7 H@7 H@7 H@7 H@7 H@7 H@7 H@7 H@7 H@7 H@7 H@7 H@7 H@7 H@7 H@7 H@7 H@7 H@7 H@7 H@7 H@7 H@7 H@7 H@7 H@7 H@7 H@7 H@7 H@7 H@7 H@7 H@7 H@7 H@7 H@7 H@7 H@7 H@7 H@7 H@7 H@7 H@7 H@7 H@7 H@7 H@7 H@7 H@7 H@7 H@7 H@7 H@7 H@7 H@7 H@7 H@7 H@7 H@7 H@7 H@7 H@7 H@7 H@7 H@7 H@7 H@7 H@7 H@7 H@7 H@7 H@7 H@7 H@7 H@7 H@7 H@7 H@7 H@7 H@7 H@7 H@7 H@7 H@7 H@7 H@7 H@7 H@7 H@7 H@7 H@7 H@7 H@7 H@7 H@7 H@7 H@7 @7 E@7 E@7 E@7 E@7 E@7 E@7 E@7 E@7 E@7 E@7 E@7 E@7 E@7 E@7 E@7 E@7 E@7 E@7 E@7 E@7 E@7 E@7 E@7 E@7 E@7 E@7 E@7 E@7 E@7 E@7 E@7 E@7 E@7 E@7 E@7 E@7 E@7 E@7 E@7 E@7 E@7 E@7 E@7 E@7 E@7 E@7 E@7 E@7 E@7 E@7 E@7 E@7 E@7 E@7 E@7 E@7 E@7 E@7 E@7 E@7 E@7 E@7 E@7 E@7 E@7 E@7 E@7 E@7 E@7 E@7 E@7 E@7 E@7 E@7 E@7 E@7 E@7 E@7 E@7 E@7 E@7 E@7 E@7 E@7 E@7 E@7 E@7 E@7 E@7 E@7 E@7 E@7 E@7 E@7 E@7 E@7 E@7 E@7 E@7 E@7 E@7 E@7 E@7 E@7 E@7 E@7 E@7 E@7 E@7 E@7 E@7 E@7 E@7 E@7 E@7 E@7 E@7 E@7 E@7 E@7 E@7 E@7 E@7 E@7 E@7 E@7 E@7 E@7 E@7 E@7 E@7 E@7 E@7 E@7 E@7 E@7 E@7 E@7 E@7 E@7 E@7 E@7 E@7 E@7 E@7 E@7 E@7 E@7 E@7 E@7 E@7 E@7 E@7 E@7 E@7 E@7 E@7 E@7 E@7 E@7 E@7 E@7 E@7 E@7 E@7 E@7 E@7 E@7 E@7 E@7 E@7 E@7 E@7 E@7 E@7 E@7 E@7 E@7 @7 7 G>7 G>7 G>7 G>7 G>7 G>7 G>7 G>7 G>7 G>7 G>7 G>7 G>7 G>7 G>7 G>7 G>7 G>7 G>7 G>7 G>7 G>7 G>7 G>7 G>7 G>7 G>7 G>7 G>7 G>7 G>7 G>7 G>7 G>7 G>7 G>7 G>7 G>7 G>7 G>7 G>7 G>7 G>7 G>7 G>7 G>7 G>7 G>7 G>7 G>7 G>7 G>7 G>7 G>7 G>7 G>7 G>7 G>7 G>7 G>7 G>7 G>7 G>7 G>7 G>7 G>7 G>7 G>7 G>7 G>7 G>7 G>7 G>7 G>7 G>7 G>7 G>7 G>7 G>7 G>7 G>7 G>7 G>7 G>7 G>7 G>7 G>7 G>7 G>7 G>7 G>7 G>7 G>7 G>7 G>7 G>7 G>7 G>7 G>7 G>7 G>7 G>7 G>7 G>7 G>7 G>7 G>7 G>7 G>7 G>7 G>7 G>7 G>7 G>7 G>7 G>7 G>7 G>7 G>7 G>7 G>7 G>7 G>7 G>7 G>7 G>7 G>7 G>7 G>7 G>7 G>7 G>7 G>7 G>7 G>7 G>7 G>7 G>7 G>7 G>7 G>7 G>7 G>7 G>7 G>7 G>7 G>7 G>7 G>7 G>7 G>7 G>7 G>7 G>7 G>7 G>7 G>7 G>7 G>7 G>7 G>7 G>7 G>7 G>7 G>7 G>7 G>7 G>7 G>7 G>7 G>7 G>7 G>7 G>7 G>7 G>7 G>7 G>7 >7 >7 C>7 C>7 C>7 C>7 C>7 C>7 C>7 C>7 C>7 C>7 C>7 C>7 C>7 C>7 C>7 C>7 C>7 C>7 C>7 C>7 C>7 C>7 C>7 C>7 C>7 C>7 C>7 C>7 C>7 C>7 C>7 C>7 C>7 C>7 C>7 C>7 C>7 C>7 C>7 C>7 C>7 C>7 C>7 C>7 C>7 C>7 C>7 C>7 C>7 C>7 C>7 C>7 C>7 C>7 C>7 C>7 C>7 C>7 C>7 C>7 C>7 C>7 C>7 C>7 C>7 C>7 C>7 C>7 C>7 C>7 C>7 C>7 C>7 C>7 C>7 C>7 C>7 C>7 C>7 C>7 C>7 C>7 C>7 C>7 C>7 C>7 C>7 C>7 C>7 C>7 C>7 C>7 C>7 C>7 C>7 C>7 C>7 C>7 C>7 C>7 C>7 C>7 C>7 C>7 C>7 C>7 C>7 C>7 C>7 C>7 C>7 C>7 C>7 C>7 C>7 C>7 C>7 C>7 C>7 C>7 C>7 C>7 C>7 C>7 C>7 C>7 C>7 C>7 C>7 C>7 C>7 C>7 C>7 C>7 C>7 C>7 C>7 C>7 C>7 C>7 C>7 C>7 C>7 C>7 C>7 C>7 C>7 C>7 C>7 C>7 C>7 C>7 C>7 C>7 C>7 C>7 C>7 C>7 C>7 C>7 C>7 C>7 C>7 C>7 C>7 C>7 C>7 C>7 C>7 C>7 C>7 C>7 C>7 C>7 C>7 C>7 C>7 C>7 7 7 E<7 E<7 E<7 E<7 E<7 E<7 E<7 E<7 E<7 E<7 E<7 E<7 E<7 E<7 E<7 E<7 E<7 E<7 E<7 E<7 E<7 E<7 E<7 E<7 E<7 E<7 E<7 E<7 E<7 E<7 E<7 E<7 E<7 E<7 E<7 E<7 E<7 E<7 E<7 E<7 E<7 E<7 E<7 E<7 E<7 E<7 E<7 E<7 E<7 E<7 E<7 E<7 E<7 E<7 E<7 E<7 E<7 E<7 E<7 E<7 E<7 E<7 E<7 E<7 E<7 E<7 E<7 E<7 E<7 E<7 E<7 E<7 E<7 E<7 E<7 E<7 E<7 E<7 E<7 E<7 E<7 E<7 E<7 E<7 E<7 E<7 E<7 E<7 E<7 E<7 E<7 E<7 E<7 E<7 E<7 E<7 E<7 E<7 E<7 E<7 E<7 E<7 E<7 E<7 E<7 E<7 E<7 E<7 E<7 E<7 E<7 E<7 E<7 E<7 E<7 E<7 E<7 E<7 E<7 E<7 E<7 E<7 E<7 E<7 E<7 E<7 E<7 E<7 E<7 E<7 E<7 E<7 E<7 E<7 E<7 E<7 E<7 E<7 E<7 E<7 E<7 E<7 E<7 E<7 E<7 E<7 E<7 E<7 E<7 E<7 E<7 E<7 E<7 E<7 E<7 E<7 E<7 E<7 E<7 E<7 E<7 E<7 E<7 E<7 E<7 E<7 E<7 E<7 E<7 E<7 E<7 E<7 E<7 E<7 E<7 E<7 E<7 E<7 <7 <7 B<7 B<7 B<7 B<7 B<7 B<7 B<7 B<7 B<7 B<7 B<7 B<7 B<7 B<7 B<7 B<7 B<7 B<7 B<7 B<7 B<7 B<7 B<7 B<7 B<7 B<7 B<7 B<7 B<7 B<7 B<7 B<7 B<7 B<7 B<7 B<7 B<7 B<7 B<7 B<7 B<7 B<7 B<7 B<7 B<7 B<7 B<7 B<7 B<7 B<7 B<7 B<7 B<7 B<7 B<7 B<7 B<7 B<7 B<7 B<7 B<7 B<7 B<7 B<7 B<7 B<7 B<7 B<7 B<7 B<7 B<7 B<7 B<7 B<7 B<7 B<7 B<7 B<7 B<7 B<7 B<7 B<7 B<7 B<7 B<7 B<7 B<7 B<7 B<7 B<7 B<7 B<7 B<7 B<7 B<7 B<7 B<7 B<7 B<7 B<7 B<7 B<7 B<7 B<7 B<7 B<7 B<7 B<7 B<7 B<7 B<7 B<7 B<7 B<7 B<7 B<7 B<7 B<7 B<7 B<7 B<7 B<7 B<7 B<7 B<7 B<7 B<7 B<7 B<7 B<7 B<7 B<7 B<7 B<7 B<7 B<7 B<7 B<7 B<7 B<7 B<7 B<7 B<7 B<7 B<7 B<7 B<7 B<7 B<7 B<7 B<7 B<7 B<7 B<7 B<7 B<7 B<7 B<7 B<7 B<7 B<7 B<7 B<7 B<7 B<7 B<7 B<7 B<7 B<7 B<7 B<7 B<7 B<7 B<7 B<7 B<7 B<7 B<7 7 <C7 <C7 <C7 <C7 <C7 <C7 <C7 <C7 <C7 <C7 <C7 <C7 <C7 <C7 <C7 <C7 <C7 <C7 <C7 <C7 <C7 <C7 <C7 <C7 <C7 <C7 <C7 <C7 <C7 <C7 <C7 <C7 <C7 <C7 <C7 <C7 <C7 <C7 <C7 <C7 <C7 <C7 <C7 <C7 <C7 <C7 <C7 <C7 <C7 <C7 <C7 <C7 <C7 <C7 <C7 <C7 <C7 <C7 <C7 <C7 <C7 <C7 <C7 <C7 <C7 <C7 <C7 <C7 <C7 <C7 <C7 <C7 <C7 <C7 <C7 <C7 <C7 <C7 <C7 <C7 <C7 <C7 <C7 <C7 <C7 <C7 <C7 <C7 <C7 <C7 <C7 <C7 <C7 <C7 <C7 <C7 <C7 <C7 <C7 <C7 <C7 <C7 <C7 <C7 <C7 <C7 <C7 <C7 <C7 <C7 <C7 <C7 <C7 <C7 <C7 <C7 <C7 <C7 <C7 <C7 <C7 <C7 <C7 <C7 <C7 <C7 <C7 <C7 <C7 <C7 <C7 <C7 <C7 <C7 <C7 <C7 <C7 <C7 <C7 <C7 <C7 <C7 <C7 <C7 <C7 <C7 <C7 <C7 <C7 <C7 <C7 <C7 <C7 <C7 <C7 <C7 <C7 <C7 <C7 <C7 <C7 <C7 <C7 <C7 <C7 <C7 <C7 <C7 <C7 <C7 <C7 <C7 <C7 <C7 <C7 <C7 <C7 <C7 C7 C7 ;C7 ;C7 ;C7 ;C7 ;C7 ;C7 ;C7 ;C7 ;C7 ;C7 ;C7 ;C7 ;C7 ;C7 ;C7 ;C7 ;C7 ;C7 ;C7 ;C7 ;C7 ;C7 ;C7 ;C7 ;C7 ;C7 ;C7 ;C7 ;C7 ;C7 ;C7 ;C7 ;C7 ;C7 ;C7 ;C7 ;C7 ;C7 ;C7 ;C7 ;C7 ;C7 ;C7 ;C7 ;C7 ;C7 ;C7 ;C7 ;C7 ;C7 ;C7 ;C7 ;C7 ;C7 ;C7 ;C7 ;C7 ;C7 ;C7 ;C7 ;C7 ;C7 ;C7 ;C7 ;C7 ;C7 ;C7 ;C7 ;C7 ;C7 ;C7 ;C7 ;C7 ;C7 ;C7 ;C7 ;C7 ;C7 ;C7 ;C7 ;C7 ;C7 ;C7 ;C7 ;C7 ;C7 ;C7 ;C7 ;C7 ;C7 ;C7 ;C7 ;C7 ;C7 ;C7 ;C7 ;C7 ;C7 ;C7 ;C7 ;C7 ;C7 ;C7 ;C7 ;C7 ;C7 ;C7 ;C7 ;C7 ;C7 ;C7 ;C7 ;C7 ;C7 ;C7 ;C7 ;C7 ;C7 ;C7 ;C7 ;C7 ;C7 ;C7 ;C7 ;C7 ;C7 ;C7 ;C7 ;C7 ;C7 ;C7 ;C7 ;C7 ;C7 ;C7 ;C7 ;C7 ;C7 ;C7 ;C7 ;C7 ;C7 ;C7 ;C7 ;C7 ;C7 ;C7 ;C7 ;C7 ;C7 ;C7 ;C7 ;C7 ;C7 ;C7 ;C7 ;C7 ;C7 ;C7 ;C7 ;C7 ;C7 ;C7 ;C7 ;C7 ;C7 ;C7 ;C7 ;C7 ;C7 ;C7 ;C7 ;C7 ;C7 ;C7 ;C7 ;C7 ;C7 7 7 97> 97> 97> 97> 97> 97> 97> 97> 97> 97> 97> 97> 97> 97> 97> 97> 97> 97> 97> 97> 97> 97> 97> 97> 97> 97> 97> 97> 97> 97> 97> 97> 97> 97> 97> 97> 97> 97> 97> 97> 97> 97> 97> 97> 97> 97> 97> 97> 97> 97> 97> 97> 97> 97> 97> 97> 97> 97> 97> 97> 97> 97> 97> 97> 97> 97> 97> 97> 97> 97> 97> 97> 97> 97> 97> 97> 97> 97> 97> 97> 97> 97> 97> 97> 97> 97> 97> 97> 97> 97> 97> 97> 97> 97> 97> 97> 97> 97> 97> 97> 97> 97> 97> 97> 97> 97> 97> 97> 97> 97> 97> 97> 97> 97> 97> 97> 97> 97> 97> 97> 97> 97> 97> 97> 97> 97> 97> 97> 97> 97> 97> 97> 97> 97> 97> 97> 97> 97> 97> 97> 97> 97> 97> 97> 97> 97> 97> 97> 97> 97> 97> 97> 97> 97> 97> 97> 97> 97> 97> 97> 97> 97> 97> 97> 97> 97> 97> 97> 97> 97> 97> 97> 97> 97> 97> 97> 97> 97> 7> 7> 7;> 7;> 7;> 7;> 7;> 7;> 7;> 7;> 7;> 7;> 7;> 7;> 7;> 7;> 7;> 7;> 7;> 7;> 7;> 7;> 7;> 7;> 7;> 7;> 7;> 7;> 7;> 7;> 7;> 7;> 7;> 7;> 7;> 7;> 7;> 7;> 7;> 7;> 7;> 7;> 7;> 7;> 7;> 7;> 7;> 7;> 7;> 7;> 7;> 7;> 7;> 7;> 7;> 7;> 7;> 7;> 7;> 7;> 7;> 7;> 7;> 7;> 7;> 7;> 7;> 7;> 7;> 7;> 7;> 7;> 7;> 7;> 7;> 7;> 7;> 7;> 7;> 7;> 7;> 7;> 7;> 7;> 7;> 7;> 7;> 7;> 7;> 7;> 7;> 7;> 7;> 7;> 7;> 7;> 7;> 7;> 7;> 7;> 7;> 7;> 7;> 7;> 7;> 7;> 7;> 7;> 7;> 7;> 7;> 7;> 7;> 7;> 7;> 7;> 7;> 7;> 7;> 7;> 7;> 7;> 7;> 7;> 7;> 7;> 7;> 7;> 7;> 7;> 7;> 7;> 7;> 7;> 7;> 7;> 7;> 7;> 7;> 7;> 7;> 7;> 7;> 7;> 7;> 7;> 7;> 7;> 7;> 7;> 7;> 7;> 7;> 7;> 7;> 7;> 7;> 7;> 7;> 7;> 7;> 7;> 7;> 7;> 7;> 7;> 7;> 7;> 7;> 7;> 7;> 7;> 7;> 7;> ;> ;> ;> ;>   @<7 @<7 @<7 @<7 @<7 @<7 @<7 @<7 @<7 @<7 @<7 @<7 @<7 @<7 @<7 @<7 @<7 @<7 @<7 @<7 @<7 @<7 @<7 @<7 @<7 @<7 @<7 @<7 @<7 @<7 @<7 @<7 @<7 @<7 @<7 @<7 @<7 @<7 @<7 @<7 @<7 @<7 @<7 @<7 @<7 @<7 @<7 @<7 @<7 @<7 @<7 @<7 @<7 @<7 @<7 @<7 @<7 @<7 @<7 @<7 @<7 @<7 @<7 @<7 @<7 @<7 @<7 @<7 @<7 @<7 @<7 @<7 @<7 @<7 @<7 @<7 @<7 @<7 @<7 @<7 @<7 @<7 @<7 @<7 @<7 @<7 @<7 @<7 @<7 @<7 @<7 @<7 @<7 @<7 @<7 @<7 @<7 @<7 @<7 @<7 @<7 @<7 @<7 @<7 @<7 @<7 @<7 @<7 @<7 @<7 @<7 @<7 @<7 @<7 @<7 @<7 @<7 @<7 @<7 @<7 @<7 @<7 @<7 @<7 @<7 @<7 @<7 @<7 @<7 @<7 @<7 @<7 @<7 @<7 @<7 @<7 @<7 @<7 @<7 @<7 @<7 @<7 @<7 @<7 @<7 @<7 @<7 @<7 @<7 @<7 @<7 @<7 @<7 @<7 @<7 @<7 @<7 @<7 @<7 @<7 @<7 @<7 @<7 @<7 @<7 @<7 @<7 @<7 @<7 @<7 @<7 @<7 @<7 @<7 @<7 @<7 @<7 @<7 <7 <7 ><7 ><7 ><7 ><7 ><7 ><7 ><7 ><7 ><7 ><7 ><7 ><7 ><7 ><7 ><7 ><7 ><7 ><7 ><7 ><7 ><7 ><7 ><7 ><7 ><7 ><7 ><7 ><7 ><7 ><7 ><7 ><7 ><7 ><7 ><7 ><7 ><7 ><7 ><7 ><7 ><7 ><7 ><7 ><7 ><7 ><7 ><7 ><7 ><7 ><7 ><7 ><7 ><7 ><7 ><7 ><7 ><7 ><7 ><7 ><7 ><7 ><7 ><7 ><7 ><7 ><7 ><7 ><7 ><7 ><7 ><7 ><7 ><7 ><7 ><7 ><7 ><7 ><7 ><7 ><7 ><7 ><7 ><7 ><7 ><7 ><7 ><7 ><7 ><7 ><7 ><7 ><7 ><7 ><7 ><7 ><7 ><7 ><7 ><7 ><7 ><7 ><7 ><7 ><7 ><7 ><7 ><7 ><7 ><7 ><7 ><7 ><7 ><7 ><7 ><7 ><7 ><7 ><7 ><7 ><7 ><7 ><7 ><7 ><7 ><7 ><7 ><7 ><7 ><7 ><7 ><7 ><7 ><7 ><7 ><7 ><7 ><7 ><7 ><7 ><7 ><7 ><7 ><7 ><7 ><7 ><7 ><7 ><7 ><7 ><7 ><7 ><7 ><7 ><7 ><7 ><7 ><7 ><7 ><7 ><7 ><7 ><7 ><7 ><7 ><7 ><7 ><7 ><7 ><7 ><7 ><7 ><7 ><7 ><7 ><7 ><7 ><7 ><7 7 7 C;7 C;7 C;7 C;7 C;7 C;7 C;7 C;7 C;7 C;7 C;7 C;7 C;7 C;7 C;7 C;7 C;7 C;7 C;7 C;7 C;7 C;7 C;7 C;7 C;7 C;7 C;7 C;7 C;7 C;7 C;7 C;7 C;7 C;7 C;7 C;7 C;7 C;7 C;7 C;7 C;7 C;7 C;7 C;7 C;7 C;7 C;7 C;7 C;7 C;7 C;7 C;7 C;7 C;7 C;7 C;7 C;7 C;7 C;7 C;7 C;7 C;7 C;7 C;7 C;7 C;7 C;7 C;7 C;7 C;7 C;7 C;7 C;7 C;7 C;7 C;7 C;7 C;7 C;7 C;7 C;7 C;7 C;7 C;7 C;7 C;7 C;7 C;7 C;7 C;7 C;7 C;7 C;7 C;7 C;7 C;7 C;7 C;7 C;7 C;7 C;7 C;7 C;7 C;7 C;7 C;7 C;7 C;7 C;7 C;7 C;7 C;7 C;7 C;7 C;7 C;7 C;7 C;7 C;7 C;7 C;7 C;7 C;7 C;7 C;7 C;7 C;7 C;7 C;7 C;7 C;7 C;7 C;7 C;7 C;7 C;7 C;7 C;7 C;7 C;7 C;7 C;7 C;7 C;7 C;7 C;7 C;7 C;7 C;7 C;7 C;7 C;7 C;7 C;7 C;7 C;7 C;7 C;7 C;7 C;7 C;7 C;7 C;7 C;7 C;7 C;7 C;7 C;7 C;7 C;7 C;7 C;7 C;7 C;7 C;7 C;7 C;7 C;7 ;7 ;7 >;7 >;7 >;7 >;7 >;7 >;7 >;7 >;7 >;7 >;7 >;7 >;7 >;7 >;7 >;7 >;7 >;7 >;7 >;7 >;7 >;7 >;7 >;7 >;7 >;7 >;7 >;7 >;7 >;7 >;7 >;7 >;7 >;7 >;7 >;7 >;7 >;7 >;7 >;7 >;7 >;7 >;7 >;7 >;7 >;7 >;7 >;7 >;7 >;7 >;7 >;7 >;7 >;7 >;7 >;7 >;7 >;7 >;7 >;7 >;7 >;7 >;7 >;7 >;7 >;7 >;7 >;7 >;7 >;7 >;7 >;7 >;7 >;7 >;7 >;7 >;7 >;7 >;7 >;7 >;7 >;7 >;7 >;7 >;7 >;7 >;7 >;7 >;7 >;7 >;7 >;7 >;7 >;7 >;7 >;7 >;7 >;7 >;7 >;7 >;7 >;7 >;7 >;7 >;7 >;7 >;7 >;7 >;7 >;7 >;7 >;7 >;7 >;7 >;7 >;7 >;7 >;7 >;7 >;7 >;7 >;7 >;7 >;7 >;7 >;7 >;7 >;7 >;7 >;7 >;7 >;7 >;7 >;7 >;7 >;7 >;7 >;7 >;7 >;7 >;7 >;7 >;7 >;7 >;7 >;7 >;7 >;7 >;7 >;7 >;7 >;7 >;7 >;7 >;7 >;7 >;7 >;7 >;7 >;7 >;7 >;7 >;7 >;7 >;7 >;7 >;7 >;7 >;7 >;7 >;7 >;7 >;7 >;7 >;7 >;7 >;7 >;7 >;7 7 @<7 @<7 @<7 @<7 @<7 @<7 @<7 @<7 @<7 @<7 @<7 @<7 @<7 @<7 @<7 @<7 @<7 @<7 @<7 @<7 @<7 @<7 @<7 @<7 @<7 @<7 @<7 @<7 @<7 @<7 @<7 @<7 @<7 @<7 @<7 @<7 @<7 @<7 @<7 @<7 @<7 @<7 @<7 @<7 @<7 @<7 @<7 @<7 @<7 @<7 @<7 @<7 @<7 @<7 @<7 @<7 @<7 @<7 @<7 @<7 @<7 @<7 @<7 @<7 @<7 @<7 @<7 @<7 @<7 @<7 @<7 @<7 @<7 @<7 @<7 @<7 @<7 @<7 @<7 @<7 @<7 @<7 @<7 @<7 @<7 @<7 @<7 @<7 @<7 @<7 @<7 @<7 @<7 @<7 @<7 @<7 @<7 @<7 @<7 @<7 @<7 @<7 @<7 @<7 @<7 @<7 @<7 @<7 @<7 @<7 @<7 @<7 @<7 @<7 @<7 @<7 @<7 @<7 @<7 @<7 @<7 @<7 @<7 @<7 @<7 @<7 @<7 @<7 @<7 @<7 @<7 @<7 @<7 @<7 @<7 @<7 @<7 @<7 @<7 @<7 @<7 @<7 @<7 @<7 @<7 @<7 @<7 @<7 @<7 @<7 @<7 @<7 @<7 @<7 @<7 @<7 @<7 @<7 @<7 @<7 @<7 @<7 @<7 @<7 @<7 @<7 @<7 @<7 @<7 @<7 @<7 @<7 @<7 @<7 @<7 @<7 @<7 @<7 <7 <7 ><7 ><7 ><7 ><7 ><7 ><7 ><7 ><7 ><7 ><7 ><7 ><7 ><7 ><7 ><7 ><7 ><7 ><7 ><7 ><7 ><7 ><7 ><7 ><7 ><7 ><7 ><7 ><7 ><7 ><7 ><7 ><7 ><7 ><7 ><7 ><7 ><7 ><7 ><7 ><7 ><7 ><7 ><7 ><7 ><7 ><7 ><7 ><7 ><7 ><7 ><7 ><7 ><7 ><7 ><7 ><7 ><7 ><7 ><7 ><7 ><7 ><7 ><7 ><7 ><7 ><7 ><7 ><7 ><7 ><7 ><7 ><7 ><7 ><7 ><7 ><7 ><7 ><7 ><7 ><7 ><7 ><7 ><7 ><7 ><7 ><7 ><7 ><7 ><7 ><7 ><7 ><7 ><7 ><7 ><7 ><7 ><7 ><7 ><7 ><7 ><7 ><7 ><7 ><7 ><7 ><7 ><7 ><7 ><7 ><7 ><7 ><7 ><7 ><7 ><7 ><7 ><7 ><7 ><7 ><7 ><7 ><7 ><7 ><7 ><7 ><7 ><7 ><7 ><7 ><7 ><7 ><7 ><7 ><7 ><7 ><7 ><7 ><7 ><7 ><7 ><7 ><7 ><7 ><7 ><7 ><7 ><7 ><7 ><7 ><7 ><7 ><7 ><7 ><7 ><7 ><7 ><7 ><7 ><7 ><7 ><7 ><7 ><7 ><7 ><7 ><7 ><7 ><7 ><7 ><7 ><7 ><7 ><7 ><7 ><7 ><7 ><7 ><7 7 7 C;7 C;7 C;7 C;7 C;7 C;7 C;7 C;7 C;7 C;7 C;7 C;7 C;7 C;7 C;7 C;7 C;7 C;7 C;7 C;7 C;7 C;7 C;7 C;7 C;7 C;7 C;7 C;7 C;7 C;7 C;7 C;7 C;7 C;7 C;7 C;7 C;7 C;7 C;7 C;7 C;7 C;7 C;7 C;7 C;7 C;7 C;7 C;7 C;7 C;7 C;7 C;7 C;7 C;7 C;7 C;7 C;7 C;7 C;7 C;7 C;7 C;7 C;7 C;7 C;7 C;7 C;7 C;7 C;7 C;7 C;7 C;7 C;7 C;7 C;7 C;7 C;7 C;7 C;7 C;7 C;7 C;7 C;7 C;7 C;7 C;7 C;7 C;7 C;7 C;7 C;7 C;7 C;7 C;7 C;7 C;7 C;7 C;7 C;7 C;7 C;7 C;7 C;7 C;7 C;7 C;7 C;7 C;7 C;7 C;7 C;7 C;7 C;7 C;7 C;7 C;7 C;7 C;7 C;7 C;7 C;7 C;7 C;7 C;7 C;7 C;7 C;7 C;7 C;7 C;7 C;7 C;7 C;7 C;7 C;7 C;7 C;7 C;7 C;7 C;7 C;7 C;7 C;7 C;7 C;7 C;7 C;7 C;7 C;7 C;7 C;7 C;7 C;7 C;7 C;7 C;7 C;7 C;7 C;7 C;7 C;7 C;7 C;7 C;7 C;7 C;7 C;7 C;7 C;7 C;7 C;7 C;7 C;7 C;7 C;7 C;7 C;7 C;7 ;7 ;7 >;7 >;7 >;7 >;7 >;7 >;7 >;7 >;7 >;7 >;7 >;7 >;7 >;7 >;7 >;7 >;7 >;7 >;7 >;7 >;7 >;7 >;7 >;7 >;7 >;7 >;7 >;7 >;7 >;7 >;7 >;7 >;7 >;7 >;7 >;7 >;7 >;7 >;7 >;7 >;7 >;7 >;7 >;7 >;7 >;7 >;7 >;7 >;7 >;7 >;7 >;7 >;7 >;7 >;7 >;7 >;7 >;7 >;7 >;7 >;7 >;7 >;7 >;7 >;7 >;7 >;7 >;7 >;7 >;7 >;7 >;7 >;7 >;7 >;7 >;7 >;7 >;7 >;7 >;7 >;7 >;7 >;7 >;7 >;7 >;7 >;7 >;7 >;7 >;7 >;7 >;7 >;7 >;7 >;7 >;7 >;7 >;7 >;7 >;7 >;7 >;7 >;7 >;7 >;7 >;7 >;7 >;7 >;7 >;7 >;7 >;7 >;7 >;7 >;7 >;7 >;7 >;7 >;7 >;7 >;7 >;7 >;7 >;7 >;7 >;7 >;7 >;7 >;7 >;7 >;7 >;7 >;7 >;7 >;7 >;7 >;7 >;7 >;7 >;7 >;7 >;7 >;7 >;7 >;7 >;7 >;7 >;7 >;7 >;7 >;7 >;7 >;7 >;7 >;7 >;7 >;7 >;7 >;7 >;7 >;7 >;7 >;7 >;7 >;7 >;7 >;7 >;7 >;7 >;7 >;7 >;7 >;7 >;7 >;7 >;7 >;7 >;7 >;7 7 7 @<7 @<7 @<7 @<7 @<7 @<7 @<7 @<7 @<7 @<7 @<7 @<7 @<7 @<7 @<7 @<7 @<7 @<7 @<7 @<7 @<7 @<7 @<7 @<7 @<7 @<7 @<7 @<7 @<7 @<7 @<7 @<7 @<7 @<7 @<7 @<7 @<7 @<7 @<7 @<7 @<7 @<7 @<7 @<7 @<7 @<7 @<7 @<7 @<7 @<7 @<7 @<7 @<7 @<7 @<7 @<7 @<7 @<7 @<7 @<7 @<7 @<7 @<7 @<7 @<7 @<7 @<7 @<7 @<7 @<7 @<7 @<7 @<7 @<7 @<7 @<7 @<7 @<7 @<7 @<7 @<7 @<7 @<7 @<7 @<7 @<7 @<7 @<7 @<7 @<7 @<7 @<7 @<7 @<7 @<7 @<7 @<7 @<7 @<7 @<7 @<7 @<7 @<7 @<7 @<7 @<7 @<7 @<7 @<7 @<7 @<7 @<7 @<7 @<7 @<7 @<7 @<7 @<7 @<7 @<7 @<7 @<7 @<7 @<7 @<7 @<7 @<7 @<7 @<7 @<7 @<7 @<7 @<7 @<7 @<7 @<7 @<7 @<7 @<7 @<7 @<7 @<7 @<7 @<7 @<7 @<7 @<7 @<7 @<7 @<7 @<7 @<7 @<7 @<7 @<7 @<7 @<7 @<7 @<7 @<7 @<7 @<7 @<7 @<7 @<7 @<7 @<7 @<7 @<7 @<7 @<7 @<7 @<7 @<7 @<7 @<7 @<7 @<7 <7 ><7 ><7 ><7 ><7 ><7 ><7 ><7 ><7 ><7 ><7 ><7 ><7 ><7 ><7 ><7 ><7 ><7 ><7 ><7 ><7 ><7 ><7 ><7 ><7 ><7 ><7 ><7 ><7 ><7 ><7 ><7 ><7 ><7 ><7 ><7 ><7 ><7 ><7 ><7 ><7 ><7 ><7 ><7 ><7 ><7 ><7 ><7 ><7 ><7 ><7 ><7 ><7 ><7 ><7 ><7 ><7 ><7 ><7 ><7 ><7 ><7 ><7 ><7 ><7 ><7 ><7 ><7 ><7 ><7 ><7 ><7 ><7 ><7 ><7 ><7 ><7 ><7 ><7 ><7 ><7 ><7 ><7 ><7 ><7 ><7 ><7 ><7 ><7 ><7 ><7 ><7 ><7 ><7 ><7 ><7 ><7 ><7 ><7 ><7 ><7 ><7 ><7 ><7 ><7 ><7 ><7 ><7 ><7 ><7 ><7 ><7 ><7 ><7 ><7 ><7 ><7 ><7 ><7 ><7 ><7 ><7 ><7 ><7 ><7 ><7 ><7 ><7 ><7 ><7 ><7 ><7 ><7 ><7 ><7 ><7 ><7 ><7 ><7 ><7 ><7 ><7 ><7 ><7 ><7 ><7 ><7 ><7 ><7 ><7 ><7 ><7 ><7 ><7 ><7 ><7 ><7 ><7 ><7 ><7 ><7 ><7 ><7 ><7 ><7 ><7 ><7 ><7 ><7 ><7 ><7 ><7 ><7 ><7 ><7 ><7 ><7 ><7 ><7 <7 7 <E7 <E7 <E7 <E7 <E7 <E7 <E7 <E7 <E7 <E7 <E7 <E7 <E7 <E7 <E7 <E7 <E7 <E7 <E7 <E7 <E7 <E7 <E7 <E7 <E7 <E7 <E7 <E7 <E7 <E7 <E7 <E7 <E7 <E7 <E7 <E7 <E7 <E7 <E7 <E7 <E7 <E7 <E7 <E7 <E7 <E7 <E7 <E7 <E7 <E7 <E7 <E7 <E7 <E7 <E7 <E7 <E7 <E7 <E7 <E7 <E7 <E7 <E7 <E7 <E7 <E7 <E7 <E7 <E7 <E7 <E7 <E7 <E7 <E7 <E7 <E7 <E7 <E7 <E7 <E7 <E7 <E7 <E7 <E7 <E7 <E7 <E7 <E7 <E7 <E7 <E7 <E7 <E7 <E7 <E7 <E7 <E7 <E7 <E7 <E7 <E7 <E7 <E7 <E7 <E7 <E7 <E7 <E7 <E7 <E7 <E7 <E7 <E7 <E7 <E7 <E7 <E7 <E7 <E7 <E7 <E7 <E7 <E7 <E7 <E7 <E7 <E7 <E7 <E7 <E7 <E7 <E7 <E7 <E7 <E7 <E7 <E7 <E7 <E7 <E7 <E7 <E7 <E7 <E7 <E7 <E7 <E7 <E7 <E7 <E7 <E7 <E7 <E7 <E7 <E7 <E7 <E7 <E7 <E7 <E7 <E7 <E7 <E7 <E7 <E7 <E7 <E7 <E7 <E7 <E7 <E7 <E7 <E7 <E7 <E7 <E7 <E7 <E7 E7 E7 9E7 9E7 9E7 9E7 9E7 9E7 9E7 9E7 9E7 9E7 9E7 9E7 9E7 9E7 9E7 9E7 9E7 9E7 9E7 9E7 9E7 9E7 9E7 9E7 9E7 9E7 9E7 9E7 9E7 9E7 9E7 9E7 9E7 9E7 9E7 9E7 9E7 9E7 9E7 9E7 9E7 9E7 9E7 9E7 9E7 9E7 9E7 9E7 9E7 9E7 9E7 9E7 9E7 9E7 9E7 9E7 9E7 9E7 9E7 9E7 9E7 9E7 9E7 9E7 9E7 9E7 9E7 9E7 9E7 9E7 9E7 9E7 9E7 9E7 9E7 9E7 9E7 9E7 9E7 9E7 9E7 9E7 9E7 9E7 9E7 9E7 9E7 9E7 9E7 9E7 9E7 9E7 9E7 9E7 9E7 9E7 9E7 9E7 9E7 9E7 9E7 9E7 9E7 9E7 9E7 9E7 9E7 9E7 9E7 9E7 9E7 9E7 9E7 9E7 9E7 9E7 9E7 9E7 9E7 9E7 9E7 9E7 9E7 9E7 9E7 9E7 9E7 9E7 9E7 9E7 9E7 9E7 9E7 9E7 9E7 9E7 9E7 9E7 9E7 9E7 9E7 9E7 9E7 9E7 9E7 9E7 9E7 9E7 9E7 9E7 9E7 9E7 9E7 9E7 9E7 9E7 9E7 9E7 9E7 9E7 9E7 9E7 9E7 9E7 9E7 9E7 9E7 9E7 9E7 9E7 9E7 9E7 9E7 9E7 9E7 9E7 9E7 9E7 7 7 7BE< 7BE< 7BE< 7BE< 7BE< 7BE< 7BE< 7BE< 7BE< 7BE< 7BE< 7BE< 7BE< 7BE< 7BE< 7BE< 7BE< 7BE< 7BE< 7BE< 7BE< 7BE< 7BE< 7BE< 7BE< 7BE< 7BE< 7BE< 7BE< 7BE< 7BE< 7BE< 7BE< 7BE< 7BE< 7BE< 7BE< 7BE< 7BE< 7BE< 7BE< 7BE< 7BE< 7BE< 7BE< 7BE< 7BE< 7BE< 7BE< 7BE< 7BE< 7BE< 7BE< 7BE< 7BE< 7BE< 7BE< 7BE< 7BE< 7BE< 7BE< 7BE< 7BE< 7BE< 7BE< 7BE< 7BE< 7BE< 7BE< 7BE< 7BE< 7BE< 7BE< 7BE< 7BE< 7BE< 7BE< 7BE< 7BE< 7BE< 7BE< 7BE< 7BE< 7BE< 7BE< 7BE< 7BE< 7BE< 7BE< 7BE< 7BE< 7BE< 7BE< 7BE< 7BE< 7BE< 7BE< 7BE< 7BE< 7BE< 7BE< 7BE< 7BE< 7BE< 7BE< 7BE< 7BE< 7BE< 7BE< 7BE< 7BE< 7BE< 7BE< 7BE< 7BE< 7BE< 7BE< 7BE< 7BE< 7BE< 7BE< 7BE< 7BE< 7BE< 7BE< 7BE< 7BE< 7BE< 7BE< 7BE< 7BE< 7BE< 7BE< 7BE< 7BE< 7BE< 7BE< 7BE< 7BE< 7BE< 7BE< 7BE< 7BE< 7BE< 7BE< 7BE< 7BE< 7BE< 7BE< 7BE< 7BE< 7BE< 7BE< 7BE< 7BE< 7BE< 7BE< 7BE< 7BE< 7BE< 7BE< 7BE< 7BE< 7BE< 7BE< 7BE< 7BE< 7BE< 7BE< 7BE< 7BE< 7BE< 7BE< 7BE< 7BE< 7BE< 7BE< 7BE< 7BE< 7BE< 7BE< 7BE< 7BE< 7BE< 7BE< 7BE< 7BE< 7BE< 7BE< 7BE< 7BE< 7BE< 7BE< 7BE< 7BE< 7BE< 7BE< 7BE< 7BE< 7BE< 7BE< 7BE< 7BE< 7BE< 7BE< 7BE< 7BE< 7BE< 7BE< 7BE< 7BE< 7BE< 7BE< 7BE< 7BE< 7BE< 7BE< 7BE< 7BE< 7BE< 7BE< 7BE< 7BE< 7BE< 7BE< 7BE< 7BE< 7BE< 7BE< 7BE< 7BE< 7BE< 7BE< 7BE< 7BE< 7BE< 7BE< 7BE< 7BE< 7BE< 7BE< 7BE< 7BE< 7BE< 7BE< 7BE< 7BE< 7BE< 7BE< 7BE< 7BE< 7BE< 7BE< 7BE< 7BE< 7BE< 7BE< 7BE< 7BE< 7BE< 7BE< 7BE< 7BE< 7BE< 7BE< 7BE< 7BE< 7BE< 7BE< 7BE< 7BE< 7BE< 7BE< 7BE< 7BE< 7BE< 7BE< 7BE< 7BE< 7BE< 7BE< 7BE< 7BE< 7BE< 7BE< 7BE< 7BE< 7BE< 7BE< 7BE< 7BE< 7BE< 7BE< 7BE< 7BE< 7BE< 7BE< 7BE< 7BE< 7BE< 7BE< 7BE< 7BE< 7BE< 7BE< 7BE< 7BE< 7BE< 7BE< 7BE< 7BE< 7BE< 7BE< 7BE< 7BE< 7BE< 7BE< 7BE< 7BE< 7BE< 7BE< 7BE< 7BE< 7BE< 7BE< 7BE< 7BE< 7BE< 7BE< 7BE< 7BE< 7BE< 7BE< 7BE< 7BE< 7BE< 7BE< 7BE< 7BE< 7BE< 7BE< 7BE< 7BE< 7BE< 7BE< 7BE< 7BE< 7BE< 7BE< 7BE< 7BE< 7BE< 7BE< 7BE< 7BE< 7BE< 7BE< 7BE< 7BE< 7BE< 7BE< 7BE< 7BE< 7BE< 7BE< 7BE< 7BE< 7BE< 7BE< 7BE< 7BE< 7BE< 7BE< 7BE< 7BE< 7BE< 7BE< 7BE< 7BE< 7BE< 7BE< 7BE< 7BE< 7BE< 7BE< 7BE< 7BE< 7BE< 7BE< 7BE< 7BE< 7BE< 7BE< 7BE< 7BE< 7BE< 7BE< 7BE< 7BE< 7BE< 7BE< 7BE< 7BE< 7BE< 7BE< 7BE< 7BE< 7BE< 7BE< 7BE< 7BE< 7BE< 7BE< 7BE< 7BE< 7BE< 7BE< 7BE< 7BE< 7BE< 7BE< 7BE< 7BE< 7BE< 7BE< 7BE< 7BE< 7BE< 7BE< 7BE< 7BE< 7BE< 7BE< 7BE< 7BE< 7BE< 7BE< 7BE< 7BE< 7BE< 7BE< 7BE< 7BE< 7BE< 7BE< 7BE< 7BE< 7BE< 7BE< 7BE< 7BE< 7BE< 7BE< 7BE< 7BE< 7BE< 7BE< 7BE< 7BE< 7BE< 7BE< 7BE< 7BE< 7BE< 7BE< 7BE< 7BE< 7BE< 7BE< 7BE< 7BE< 7BE< 7BE< 7BE< 7BE< 7BE< 7BE< 7BE< 7BE< 7BE< 7BE< 7BE< 7BE< 7BE< 7BE< 7BE< 7BE< 7BE< 7BE< 7BE< 7BE< 7BE< 7BE< 7BE< 7BE< 7BE< 7BE< 7BE< 7BE< 7BE< 7BE< 7BE< 7BE< 7BE< 7BE< 7BE< 7BE< 7BE< 7BE< 7BE< 7BE< 7BE< 7BE< 7BE< 7BE< 7BE< 7BE< 7BE< 7BE< 7BE< 7BE< 7BE< 7BE< 7BE< 7BE< 7BE< 7BE< 7BE< 7BE< 7BE< 7BE< 7BE< 7BE< 7BE< 7BE< 7BE< 7BE< 7BE< 7BE< 7BE< 7BE< 7BE< 7BE< 7BE< 7BE< 7BE< 7BE< 7BE< 7BE< 7BE< 7BE< 7BE< 7BE< 7BE< 7BE< 7BE< 7BE< 7BE< 7BE< 7BE< 7BE< 7BE< 7BE< 7BE< 7BE< 7BE< 7BE< 7BE< 7BE< 7BE< 7BE< 7BE< 7BE< 7BE< 7BE< 7BE< 7BE< 7BE< 7BE< 7BE< 7BE< 7BE< 7BE< 7BE< 7BE< 7BE< 7BE< 7BE< 7BE< 7BE< 7BE< 7BE< 7BE< 7BE< 7BE< 7BE< 7BE< 7BE< 7BE< 7BE< 7BE< 7BE< 7BE< 7BE< 7BE< 7BE< 7BE< 7BE< 7BE< 7BE< 7BE< 7BE< 7BE< 7BE< 7BE< 7BE< 7BE< 7BE< 7BE< 7BE< 7BE< 7BE< 7BE< 7BE< 7BE< 7BE< 7BE< 7BE< 7BE< 7BE< 7BE< 7BE< 7BE< 7BE< 7BE< 7BE< 7BE< 7BE< 7BE< 7BE< 7BE< 7BE< 7BE< 7BE< 7BE< 7BE< 7BE< 7BE< 7BE< 7BE< 7BE< 7BE< 7BE< 7BE< 7BE< 7BE< 7BE< 7BE< 7BE< 7BE< 7BE< 7BE< 7BE< 7BE< 7BE< 7BE< 7BE< 7BE< 7BE< 7BE< 7BE< 7BE< 7BE< 7BE< 7BE< 7BE< 7BE< 7BE< 7BE< 7BE< 7BE< 7BE< 7BE< 7BE< 7BE< 7BE< 7BE< 7BE< 7BE< 7BE< 7BE< 7BE< 7BE< 7BE< 7BE< 7BE< 7BE< 7BE< 7BE< 7BE< 7BE< 7BE< 7BE< 7BE< 7BE< 7BE< 7BE< 7BE< 7BE< 7BE< 7BE< BE< BE< BE< BE< BE<   E<7 E<7 E<7 E<7 E<7 E<7 E<7 E<7 E<7 E<7 E<7 E<7 E<7 E<7 E<7 E<7 E<7 E<7 E<7 E<7 E<7 E<7 E<7 E<7 E<7 E<7 E<7 E<7 E<7 E<7 E<7 E<7 E<7 E<7 E<7 E<7 E<7 E<7 E<7 E<7 E<7 E<7 E<7 E<7 E<7 E<7 E<7 E<7 E<7 E<7 E<7 E<7 E<7 E<7 E<7 E<7 E<7 E<7 E<7 E<7 E<7 E<7 E<7 E<7 E<7 E<7 E<7 E<7 E<7 E<7 E<7 E<7 E<7 E<7 E<7 E<7 E<7 E<7 E<7 E<7 E<7 E<7 E<7 E<7 E<7 E<7 E<7 E<7 E<7 E<7 E<7 E<7 E<7 E<7 E<7 E<7 E<7 E<7 E<7 E<7 E<7 E<7 E<7 E<7 E<7 E<7 E<7 E<7 E<7 E<7 E<7 E<7 E<7 E<7 E<7 E<7 E<7 E<7 E<7 E<7 E<7 E<7 E<7 E<7 E<7 E<7 E<7 E<7 E<7 E<7 E<7 E<7 E<7 E<7 E<7 E<7 E<7 E<7 E<7 E<7 E<7 E<7 E<7 E<7 E<7 E<7 E<7 E<7 E<7 E<7 E<7 E<7 E<7 E<7 E<7 E<7 E<7 E<7 E<7 E<7 E<7 E<7 E<7 E<7 E<7 E<7 E<7 E<7 E<7 E<7 E<7 E<7 E<7 E<7 E<7 E<7 E<7 E<7 E<7 E<7 E<7 E<7 E<7 E<7 E<7 E<7 E<7 E<7 E<7 E<7 E<7 E<7 E<7 E<7 E<7 E<7 E<7 E<7 E<7 E<7 E<7 E<7 E<7 E<7 E<7 E<7 E<7 E<7 E<7 E<7 E<7 E<7 E<7 E<7 E<7 E<7 E<7 E<7 E<7 E<7 E<7 E<7 E<7 E<7 E<7 E<7 E<7 E<7 E<7 E<7 E<7 E<7 E<7 E<7 E<7 E<7 E<7 E<7 E<7 E<7 E<7 E<7 E<7 E<7 E<7 E<7 E<7 E<7 E<7 E<7 E<7 E<7 E<7 E<7 E<7 E<7 E<7 E<7 E<7 E<7 E<7 E<7 E<7 E<7 E<7 E<7 E<7 E<7 E<7 E<7 E<7 E<7 E<7 E<7 E<7 E<7 E<7 E<7 E<7 E<7 E<7 E<7 E<7 E<7 E<7 E<7 E<7 E<7 E<7 E<7 E<7 E<7 E<7 E<7 E<7 E<7 E<7 E<7 E<7 E<7 E<7 E<7 E<7 E<7 E<7 E<7 E<7 E<7 E<7 E<7 E<7 E<7 E<7 E<7 E<7 E<7 E<7 E<7 E<7 E<7 E<7 E<7 E<7 E<7 E<7 E<7 E<7 E<7 E<7 E<7 E<7 E<7 E<7 E<7 E<7 E<7 E<7 E<7 E<7 E<7 E<7 E<7 E<7 E<7 E<7 E<7 E<7 E<7 E<7 E<7 E<7 E<7 E<7 E<7 E<7 E<7 E<7 E<7 7 G>7 G>7 G>7 G>7 G>7 G>7 G>7 G>7 G>7 G>7 G>7 G>7 G>7 G>7 G>7 G>7 G>7 G>7 G>7 G>7 G>7 G>7 G>7 G>7 G>7 G>7 G>7 G>7 G>7 G>7 G>7 G>7 G>7 G>7 G>7 G>7 G>7 G>7 G>7 G>7 G>7 G>7 G>7 G>7 G>7 G>7 G>7 G>7 G>7 G>7 G>7 G>7 G>7 G>7 G>7 G>7 G>7 G>7 G>7 G>7 G>7 G>7 G>7 G>7 G>7 G>7 G>7 G>7 G>7 G>7 G>7 G>7 G>7 G>7 G>7 G>7 G>7 G>7 G>7 G>7 G>7 G>7 G>7 G>7 G>7 G>7 G>7 G>7 G>7 G>7 G>7 G>7 G>7 G>7 G>7 G>7 G>7 G>7 G>7 G>7 G>7 G>7 G>7 G>7 G>7 G>7 G>7 G>7 G>7 G>7 G>7 G>7 G>7 G>7 G>7 G>7 G>7 G>7 G>7 G>7 G>7 G>7 G>7 G>7 G>7 G>7 G>7 G>7 G>7 G>7 G>7 G>7 G>7 G>7 G>7 G>7 G>7 G>7 G>7 G>7 G>7 G>7 G>7 G>7 G>7 G>7 G>7 G>7 G>7 G>7 G>7 G>7 G>7 G>7 G>7 G>7 G>7 G>7 G>7 G>7 G>7 G>7 G>7 G>7 G>7 G>7 G>7 G>7 G>7 G>7 G>7 G>7 G>7 G>7 G>7 G>7 G>7 G>7 >7 >7 C>7 C>7 C>7 C>7 C>7 C>7 C>7 C>7 C>7 C>7 C>7 C>7 C>7 C>7 C>7 C>7 C>7 C>7 C>7 C>7 C>7 C>7 C>7 C>7 C>7 C>7 C>7 C>7 C>7 C>7 C>7 C>7 C>7 C>7 C>7 C>7 C>7 C>7 C>7 C>7 C>7 C>7 C>7 C>7 C>7 C>7 C>7 C>7 C>7 C>7 C>7 C>7 C>7 C>7 C>7 C>7 C>7 C>7 C>7 C>7 C>7 C>7 C>7 C>7 C>7 C>7 C>7 C>7 C>7 C>7 C>7 C>7 C>7 C>7 C>7 C>7 C>7 C>7 C>7 C>7 C>7 C>7 C>7 C>7 C>7 C>7 C>7 C>7 C>7 C>7 C>7 C>7 C>7 C>7 C>7 C>7 C>7 C>7 C>7 C>7 C>7 C>7 C>7 C>7 C>7 C>7 C>7 C>7 C>7 C>7 C>7 C>7 C>7 C>7 C>7 C>7 C>7 C>7 C>7 C>7 C>7 C>7 C>7 C>7 C>7 C>7 C>7 C>7 C>7 C>7 C>7 C>7 C>7 C>7 C>7 C>7 C>7 C>7 C>7 C>7 C>7 C>7 C>7 C>7 C>7 C>7 C>7 C>7 C>7 C>7 C>7 C>7 C>7 C>7 C>7 C>7 C>7 C>7 C>7 C>7 C>7 C>7 C>7 C>7 C>7 C>7 C>7 C>7 C>7 C>7 C>7 C>7 C>7 C>7 C>7 C>7 C>7 C>7 7 7 H@7 H@7 H@7 H@7 H@7 H@7 H@7 H@7 H@7 H@7 H@7 H@7 H@7 H@7 H@7 H@7 H@7 H@7 H@7 H@7 H@7 H@7 H@7 H@7 H@7 H@7 H@7 H@7 H@7 H@7 H@7 H@7 H@7 H@7 H@7 H@7 H@7 H@7 H@7 H@7 H@7 H@7 H@7 H@7 H@7 H@7 H@7 H@7 H@7 H@7 H@7 H@7 H@7 H@7 H@7 H@7 H@7 H@7 H@7 H@7 H@7 H@7 H@7 H@7 H@7 H@7 H@7 H@7 H@7 H@7 H@7 H@7 H@7 H@7 H@7 H@7 H@7 H@7 H@7 H@7 H@7 H@7 H@7 H@7 H@7 H@7 H@7 H@7 H@7 H@7 H@7 H@7 H@7 H@7 H@7 H@7 H@7 H@7 H@7 H@7 H@7 H@7 H@7 H@7 H@7 H@7 H@7 H@7 H@7 H@7 H@7 H@7 H@7 H@7 H@7 H@7 H@7 H@7 H@7 H@7 H@7 H@7 H@7 H@7 H@7 H@7 H@7 H@7 H@7 H@7 H@7 H@7 H@7 H@7 H@7 H@7 H@7 H@7 H@7 H@7 H@7 H@7 H@7 H@7 H@7 H@7 H@7 H@7 H@7 H@7 H@7 H@7 H@7 H@7 H@7 H@7 H@7 H@7 H@7 H@7 H@7 H@7 H@7 H@7 H@7 H@7 H@7 H@7 H@7 H@7 H@7 H@7 H@7 H@7 H@7 H@7 H@7 H@7 H@7 H@7 H@7 H@7 H@7 H@7 H@7 H@7 H@7 H@7 H@7 H@7 H@7 H@7 H@7 H@7 H@7 H@7 H@7 H@7 H@7 H@7 H@7 H@7 H@7 H@7 H@7 H@7 H@7 H@7 H@7 H@7 H@7 H@7 H@7 H@7 H@7 H@7 H@7 H@7 H@7 H@7 H@7 H@7 H@7 H@7 H@7 H@7 H@7 H@7 H@7 H@7 H@7 H@7 H@7 H@7 H@7 H@7 H@7 H@7 H@7 H@7 H@7 H@7 H@7 H@7 H@7 H@7 H@7 H@7 H@7 H@7 H@7 H@7 H@7 H@7 H@7 H@7 H@7 H@7 H@7 H@7 H@7 H@7 H@7 H@7 H@7 H@7 H@7 H@7 H@7 H@7 H@7 H@7 H@7 H@7 H@7 H@7 H@7 H@7 H@7 H@7 H@7 H@7 H@7 H@7 H@7 H@7 H@7 H@7 H@7 H@7 H@7 H@7 H@7 H@7 H@7 H@7 H@7 H@7 H@7 H@7 H@7 H@7 H@7 H@7 H@7 H@7 H@7 H@7 H@7 H@7 H@7 H@7 H@7 H@7 H@7 H@7 H@7 H@7 H@7 H@7 H@7 H@7 H@7 H@7 H@7 H@7 H@7 H@7 H@7 H@7 H@7 H@7 H@7 H@7 H@7 H@7 H@7 H@7 H@7 H@7 H@7 H@7 H@7 H@7 H@7 H@7 H@7 H@7 H@7 H@7 H@7 H@7 H@7 H@7 H@7 H@7 H@7 H@7 7 7 G>7 G>7 G>7 G>7 G>7 G>7 G>7 G>7 G>7 G>7 G>7 G>7 G>7 G>7 G>7 G>7 G>7 G>7 G>7 G>7 G>7 G>7 G>7 G>7 G>7 G>7 G>7 G>7 G>7 G>7 G>7 G>7 G>7 G>7 G>7 G>7 G>7 G>7 G>7 G>7 G>7 G>7 G>7 G>7 G>7 G>7 G>7 G>7 G>7 G>7 G>7 G>7 G>7 G>7 G>7 G>7 G>7 G>7 G>7 G>7 G>7 G>7 G>7 G>7 G>7 G>7 G>7 G>7 G>7 G>7 G>7 G>7 G>7 G>7 G>7 G>7 G>7 G>7 G>7 G>7 G>7 G>7 G>7 G>7 G>7 G>7 G>7 G>7 G>7 G>7 G>7 G>7 G>7 G>7 G>7 G>7 G>7 G>7 G>7 G>7 G>7 G>7 G>7 G>7 G>7 G>7 G>7 G>7 G>7 G>7 G>7 G>7 G>7 G>7 G>7 G>7 G>7 G>7 G>7 G>7 G>7 G>7 G>7 G>7 G>7 G>7 G>7 G>7 G>7 G>7 G>7 G>7 G>7 G>7 G>7 G>7 G>7 G>7 G>7 G>7 G>7 G>7 G>7 G>7 G>7 G>7 G>7 G>7 G>7 G>7 G>7 G>7 G>7 G>7 G>7 G>7 G>7 G>7 G>7 G>7 G>7 G>7 G>7 G>7 G>7 G>7 G>7 G>7 G>7 G>7 G>7 G>7 G>7 G>7 G>7 G>7 G>7 G>7 >7 C>7 C>7 C>7 C>7 C>7 C>7 C>7 C>7 C>7 C>7 C>7 C>7 C>7 C>7 C>7 C>7 C>7 C>7 C>7 C>7 C>7 C>7 C>7 C>7 C>7 C>7 C>7 C>7 C>7 C>7 C>7 C>7 C>7 C>7 C>7 C>7 C>7 C>7 C>7 C>7 C>7 C>7 C>7 C>7 C>7 C>7 C>7 C>7 C>7 C>7 C>7 C>7 C>7 C>7 C>7 C>7 C>7 C>7 C>7 C>7 C>7 C>7 C>7 C>7 C>7 C>7 C>7 C>7 C>7 C>7 C>7 C>7 C>7 C>7 C>7 C>7 C>7 C>7 C>7 C>7 C>7 C>7 C>7 C>7 C>7 C>7 C>7 C>7 C>7 C>7 C>7 C>7 C>7 C>7 C>7 C>7 C>7 C>7 C>7 C>7 C>7 C>7 C>7 C>7 C>7 C>7 C>7 C>7 C>7 C>7 C>7 C>7 C>7 C>7 C>7 C>7 C>7 C>7 C>7 C>7 C>7 C>7 C>7 C>7 C>7 C>7 C>7 C>7 C>7 C>7 C>7 C>7 C>7 C>7 C>7 C>7 C>7 C>7 C>7 C>7 C>7 C>7 C>7 C>7 C>7 C>7 C>7 C>7 C>7 C>7 C>7 C>7 C>7 C>7 C>7 C>7 C>7 C>7 C>7 C>7 C>7 C>7 C>7 C>7 C>7 C>7 C>7 C>7 C>7 C>7 C>7 C>7 C>7 C>7 C>7 C>7 C>7 C>7 >7 7 L<7 L<7 L<7 L<7 L<7 L<7 L<7 L<7 L<7 L<7 L<7 L<7 L<7 L<7 L<7 L<7 L<7 L<7 L<7 L<7 L<7 L<7 L<7 L<7 L<7 L<7 L<7 L<7 L<7 L<7 L<7 L<7 L<7 L<7 L<7 L<7 L<7 L<7 L<7 L<7 L<7 L<7 L<7 L<7 L<7 L<7 L<7 L<7 L<7 L<7 L<7 L<7 L<7 L<7 L<7 L<7 L<7 L<7 L<7 L<7 L<7 L<7 L<7 L<7 L<7 L<7 L<7 L<7 L<7 L<7 L<7 L<7 L<7 L<7 L<7 L<7 L<7 L<7 L<7 L<7 L<7 L<7 L<7 L<7 L<7 L<7 L<7 L<7 L<7 L<7 L<7 L<7 L<7 L<7 L<7 L<7 L<7 L<7 L<7 L<7 L<7 L<7 L<7 L<7 L<7 L<7 L<7 L<7 L<7 L<7 L<7 L<7 L<7 L<7 L<7 L<7 L<7 L<7 L<7 L<7 L<7 L<7 L<7 L<7 L<7 L<7 L<7 L<7 L<7 L<7 L<7 L<7 L<7 L<7 L<7 L<7 L<7 L<7 L<7 L<7 L<7 L<7 L<7 L<7 L<7 L<7 L<7 L<7 L<7 L<7 L<7 L<7 L<7 L<7 L<7 L<7 L<7 L<7 L<7 L<7 L<7 L<7 L<7 L<7 L<7 L<7 L<7 L<7 L<7 L<7 L<7 L<7 L<7 L<7 L<7 L<7 L<7 L<7 <7 <7 H<7 H<7 H<7 H<7 H<7 H<7 H<7 H<7 H<7 H<7 H<7 H<7 H<7 H<7 H<7 H<7 H<7 H<7 H<7 H<7 H<7 H<7 H<7 H<7 H<7 H<7 H<7 H<7 H<7 H<7 H<7 H<7 H<7 H<7 H<7 H<7 H<7 H<7 H<7 H<7 H<7 H<7 H<7 H<7 H<7 H<7 H<7 H<7 H<7 H<7 H<7 H<7 H<7 H<7 H<7 H<7 H<7 H<7 H<7 H<7 H<7 H<7 H<7 H<7 H<7 H<7 H<7 H<7 H<7 H<7 H<7 H<7 H<7 H<7 H<7 H<7 H<7 H<7 H<7 H<7 H<7 H<7 H<7 H<7 H<7 H<7 H<7 H<7 H<7 H<7 H<7 H<7 H<7 H<7 H<7 H<7 H<7 H<7 H<7 H<7 H<7 H<7 H<7 H<7 H<7 H<7 H<7 H<7 H<7 H<7 H<7 H<7 H<7 H<7 H<7 H<7 H<7 H<7 H<7 H<7 H<7 H<7 H<7 H<7 H<7 H<7 H<7 H<7 H<7 H<7 H<7 H<7 H<7 H<7 H<7 H<7 H<7 H<7 H<7 H<7 H<7 H<7 H<7 H<7 H<7 H<7 H<7 H<7 H<7 H<7 H<7 H<7 H<7 H<7 H<7 H<7 H<7 H<7 H<7 H<7 H<7 H<7 H<7 H<7 H<7 H<7 H<7 H<7 H<7 H<7 H<7 H<7 H<7 H<7 H<7 H<7 H<7 H<7 7 7 J;7 J;7 J;7 J;7 J;7 J;7 J;7 J;7 J;7 J;7 J;7 J;7 J;7 J;7 J;7 J;7 J;7 J;7 J;7 J;7 J;7 J;7 J;7 J;7 J;7 J;7 J;7 J;7 J;7 J;7 J;7 J;7 J;7 J;7 J;7 J;7 J;7 J;7 J;7 J;7 J;7 J;7 J;7 J;7 J;7 J;7 J;7 J;7 J;7 J;7 J;7 J;7 J;7 J;7 J;7 J;7 J;7 J;7 J;7 J;7 J;7 J;7 J;7 J;7 J;7 J;7 J;7 J;7 J;7 J;7 J;7 J;7 J;7 J;7 J;7 J;7 J;7 J;7 J;7 J;7 J;7 J;7 J;7 J;7 J;7 J;7 J;7 J;7 J;7 J;7 J;7 J;7 J;7 J;7 J;7 J;7 J;7 J;7 J;7 J;7 J;7 J;7 J;7 J;7 J;7 J;7 J;7 J;7 J;7 J;7 J;7 J;7 J;7 J;7 J;7 J;7 J;7 J;7 J;7 J;7 J;7 J;7 J;7 J;7 J;7 J;7 J;7 J;7 J;7 J;7 J;7 J;7 J;7 J;7 J;7 J;7 J;7 J;7 J;7 J;7 J;7 J;7 J;7 J;7 J;7 J;7 J;7 J;7 J;7 J;7 J;7 J;7 J;7 J;7 J;7 J;7 J;7 J;7 J;7 J;7 J;7 J;7 J;7 J;7 J;7 J;7 J;7 J;7 J;7 J;7 J;7 J;7 J;7 J;7 J;7 J;7 J;7 J;7 ;7 ;7 G;7 G;7 G;7 G;7 G;7 G;7 G;7 G;7 G;7 G;7 G;7 G;7 G;7 G;7 G;7 G;7 G;7 G;7 G;7 G;7 G;7 G;7 G;7 G;7 G;7 G;7 G;7 G;7 G;7 G;7 G;7 G;7 G;7 G;7 G;7 G;7 G;7 G;7 G;7 G;7 G;7 G;7 G;7 G;7 G;7 G;7 G;7 G;7 G;7 G;7 G;7 G;7 G;7 G;7 G;7 G;7 G;7 G;7 G;7 G;7 G;7 G;7 G;7 G;7 G;7 G;7 G;7 G;7 G;7 G;7 G;7 G;7 G;7 G;7 G;7 G;7 G;7 G;7 G;7 G;7 G;7 G;7 G;7 G;7 G;7 G;7 G;7 G;7 G;7 G;7 G;7 G;7 G;7 G;7 G;7 G;7 G;7 G;7 G;7 G;7 G;7 G;7 G;7 G;7 G;7 G;7 G;7 G;7 G;7 G;7 G;7 G;7 G;7 G;7 G;7 G;7 G;7 G;7 G;7 G;7 G;7 G;7 G;7 G;7 G;7 G;7 G;7 G;7 G;7 G;7 G;7 G;7 G;7 G;7 G;7 G;7 G;7 G;7 G;7 G;7 G;7 G;7 G;7 G;7 G;7 G;7 G;7 G;7 G;7 G;7 G;7 G;7 G;7 G;7 G;7 G;7 G;7 G;7 G;7 G;7 G;7 G;7 G;7 G;7 G;7 G;7 G;7 G;7 G;7 G;7 G;7 G;7 G;7 G;7 G;7 G;7 G;7 G;7 7 H97 H97 H97 H97 H97 H97 H97 H97 H97 H97 H97 H97 H97 H97 H97 H97 H97 H97 H97 H97 H97 H97 H97 H97 H97 H97 H97 H97 H97 H97 H97 H97 H97 H97 H97 H97 H97 H97 H97 H97 H97 H97 H97 H97 H97 H97 H97 H97 H97 H97 H97 H97 H97 H97 H97 H97 H97 H97 H97 H97 H97 H97 H97 H97 H97 H97 H97 H97 H97 H97 H97 H97 H97 H97 H97 H97 H97 H97 H97 H97 H97 H97 H97 H97 H97 H97 H97 H97 H97 H97 H97 H97 H97 H97 H97 H97 H97 H97 H97 H97 H97 H97 H97 H97 H97 H97 H97 H97 H97 H97 H97 H97 H97 H97 H97 H97 H97 H97 H97 H97 H97 H97 H97 H97 H97 H97 H97 H97 H97 H97 H97 H97 H97 H97 H97 H97 H97 H97 H97 H97 H97 H97 H97 H97 H97 H97 H97 H97 H97 H97 H97 H97 H97 H97 H97 H97 H97 H97 H97 H97 H97 H97 H97 H97 H97 H97 H97 H97 H97 H97 H97 H97 H97 H97 H97 H97 H97 H97 97 97 G97 G97 G97 G97 G97 G97 G97 G97 G97 G97 G97 G97 G97 G97 G97 G97 G97 G97 G97 G97 G97 G97 G97 G97 G97 G97 G97 G97 G97 G97 G97 G97 G97 G97 G97 G97 G97 G97 G97 G97 G97 G97 G97 G97 G97 G97 G97 G97 G97 G97 G97 G97 G97 G97 G97 G97 G97 G97 G97 G97 G97 G97 G97 G97 G97 G97 G97 G97 G97 G97 G97 G97 G97 G97 G97 G97 G97 G97 G97 G97 G97 G97 G97 G97 G97 G97 G97 G97 G97 G97 G97 G97 G97 G97 G97 G97 G97 G97 G97 G97 G97 G97 G97 G97 G97 G97 G97 G97 G97 G97 G97 G97 G97 G97 G97 G97 G97 G97 G97 G97 G97 G97 G97 G97 G97 G97 G97 G97 G97 G97 G97 G97 G97 G97 G97 G97 G97 G97 G97 G97 G97 G97 G97 G97 G97 G97 G97 G97 G97 G97 G97 G97 G97 G97 G97 G97 G97 G97 G97 G97 G97 G97 G97 G97 G97 G97 G97 G97 G97 G97 G97 G97 G97 G97 G97 G97 G97 G97 7 7 E7; E7; E7; E7; E7; E7; E7; E7; E7; E7; E7; E7; E7; E7; E7; E7; E7; E7; E7; E7; E7; E7; E7; E7; E7; E7; E7; E7; E7; E7; E7; E7; E7; E7; E7; E7; E7; E7; E7; E7; E7; E7; E7; E7; E7; E7; E7; E7; E7; E7; E7; E7; E7; E7; E7; E7; E7; E7; E7; E7; E7; E7; E7; E7; E7; E7; E7; E7; E7; E7; E7; E7; E7; E7; E7; E7; E7; E7; E7; E7; E7; E7; E7; E7; E7; E7; E7; E7; E7; E7; E7; E7; E7; E7; E7; E7; E7; E7; E7; E7; E7; E7; E7; E7; E7; E7; E7; E7; E7; E7; E7; E7; E7; E7; E7; E7; E7; E7; E7; E7; E7; E7; E7; E7; E7; E7; E7; E7; E7; E7; E7; E7; E7; E7; E7; E7; E7; E7; E7; E7; E7; E7; E7; E7; E7; E7; E7; E7; E7; E7; E7; E7; E7; E7; E7; E7; E7; E7; E7; E7; E7; E7; E7; E7; E7; E7; E7; E7; E7; E7; E7; E7; E7; E7; E7; E7; E7; E7; 7; 7; 7C; 7C; 7C; 7C; 7C; 7C; 7C; 7C; 7C; 7C; 7C; 7C; 7C; 7C; 7C; 7C; 7C; 7C; 7C; 7C; 7C; 7C; 7C; 7C; 7C; 7C; 7C; 7C; 7C; 7C; 7C; 7C; 7C; 7C; 7C; 7C; 7C; 7C; 7C; 7C; 7C; 7C; 7C; 7C; 7C; 7C; 7C; 7C; 7C; 7C; 7C; 7C; 7C; 7C; 7C; 7C; 7C; 7C; 7C; 7C; 7C; 7C; 7C; 7C; 7C; 7C; 7C; 7C; 7C; 7C; 7C; 7C; 7C; 7C; 7C; 7C; 7C; 7C; 7C; 7C; 7C; 7C; 7C; 7C; 7C; 7C; 7C; 7C; 7C; 7C; 7C; 7C; 7C; 7C; 7C; 7C; 7C; 7C; 7C; 7C; 7C; 7C; 7C; 7C; 7C; 7C; 7C; 7C; 7C; 7C; 7C; 7C; 7C; 7C; 7C; 7C; 7C; 7C; 7C; 7C; 7C; 7C; 7C; 7C; 7C; 7C; 7C; 7C; 7C; 7C; 7C; 7C; 7C; 7C; 7C; 7C; 7C; 7C; 7C; 7C; 7C; 7C; 7C; 7C; 7C; 7C; 7C; 7C; 7C; 7C; 7C; 7C; 7C; 7C; 7C; 7C; 7C; 7C; 7C; 7C; 7C; 7C; 7C; 7C; 7C; 7C; 7C; 7C; 7C; 7C; 7C; 7C; C; C; C; C;   E<7 E<7 E<7 E<7 E<7 E<7 E<7 E<7 E<7 E<7 E<7 E<7 E<7 E<7 E<7 E<7 E<7 E<7 E<7 E<7 E<7 E<7 E<7 E<7 E<7 E<7 E<7 E<7 E<7 E<7 E<7 E<7 E<7 E<7 E<7 E<7 E<7 E<7 E<7 E<7 E<7 E<7 E<7 E<7 E<7 E<7 E<7 E<7 E<7 E<7 E<7 E<7 E<7 E<7 E<7 E<7 E<7 E<7 E<7 E<7 E<7 E<7 E<7 E<7 E<7 E<7 E<7 E<7 E<7 E<7 E<7 E<7 E<7 E<7 E<7 E<7 E<7 E<7 E<7 E<7 E<7 E<7 E<7 E<7 E<7 E<7 E<7 E<7 E<7 E<7 E<7 E<7 E<7 E<7 E<7 E<7 E<7 E<7 E<7 E<7 E<7 E<7 E<7 E<7 E<7 E<7 E<7 E<7 E<7 E<7 E<7 E<7 E<7 E<7 E<7 E<7 E<7 E<7 E<7 E<7 E<7 E<7 E<7 E<7 E<7 E<7 E<7 E<7 E<7 E<7 E<7 E<7 E<7 E<7 E<7 E<7 E<7 E<7 E<7 E<7 E<7 E<7 E<7 E<7 E<7 E<7 E<7 E<7 E<7 E<7 E<7 E<7 E<7 E<7 E<7 E<7 E<7 E<7 E<7 E<7 E<7 E<7 E<7 E<7 E<7 E<7 E<7 E<7 E<7 E<7 E<7 E<7 E<7 E<7 E<7 E<7 E<7 E<7 <7 <7 G<7 G<7 G<7 G<7 G<7 G<7 G<7 G<7 G<7 G<7 G<7 G<7 G<7 G<7 G<7 G<7 G<7 G<7 G<7 G<7 G<7 G<7 G<7 G<7 G<7 G<7 G<7 G<7 G<7 G<7 G<7 G<7 G<7 G<7 G<7 G<7 G<7 G<7 G<7 G<7 G<7 G<7 G<7 G<7 G<7 G<7 G<7 G<7 G<7 G<7 G<7 G<7 G<7 G<7 G<7 G<7 G<7 G<7 G<7 G<7 G<7 G<7 G<7 G<7 G<7 G<7 G<7 G<7 G<7 G<7 G<7 G<7 G<7 G<7 G<7 G<7 G<7 G<7 G<7 G<7 G<7 G<7 G<7 G<7 G<7 G<7 G<7 G<7 G<7 G<7 G<7 G<7 G<7 G<7 G<7 G<7 G<7 G<7 G<7 G<7 G<7 G<7 G<7 G<7 G<7 G<7 G<7 G<7 G<7 G<7 G<7 G<7 G<7 G<7 G<7 G<7 G<7 G<7 G<7 G<7 G<7 G<7 G<7 G<7 G<7 G<7 G<7 G<7 G<7 G<7 G<7 G<7 G<7 G<7 G<7 G<7 G<7 G<7 G<7 G<7 G<7 G<7 G<7 G<7 G<7 G<7 G<7 G<7 G<7 G<7 G<7 G<7 G<7 G<7 G<7 G<7 G<7 G<7 G<7 G<7 G<7 G<7 G<7 G<7 G<7 G<7 G<7 G<7 G<7 G<7 G<7 G<7 G<7 G<7 G<7 G<7 G<7 G<7 7 7 H>7 H>7 H>7 H>7 H>7 H>7 H>7 H>7 H>7 H>7 H>7 H>7 H>7 H>7 H>7 H>7 H>7 H>7 H>7 H>7 H>7 H>7 H>7 H>7 H>7 H>7 H>7 H>7 H>7 H>7 H>7 H>7 H>7 H>7 H>7 H>7 H>7 H>7 H>7 H>7 H>7 H>7 H>7 H>7 H>7 H>7 H>7 H>7 H>7 H>7 H>7 H>7 H>7 H>7 H>7 H>7 H>7 H>7 H>7 H>7 H>7 H>7 H>7 H>7 H>7 H>7 H>7 H>7 H>7 H>7 H>7 H>7 H>7 H>7 H>7 H>7 H>7 H>7 H>7 H>7 H>7 H>7 H>7 H>7 H>7 H>7 H>7 H>7 H>7 H>7 H>7 H>7 H>7 H>7 H>7 H>7 H>7 H>7 H>7 H>7 H>7 H>7 H>7 H>7 H>7 H>7 H>7 H>7 H>7 H>7 H>7 H>7 H>7 H>7 H>7 H>7 H>7 H>7 H>7 H>7 H>7 H>7 H>7 H>7 H>7 H>7 H>7 H>7 H>7 H>7 H>7 H>7 H>7 H>7 H>7 H>7 H>7 H>7 H>7 H>7 H>7 H>7 H>7 H>7 H>7 H>7 H>7 H>7 H>7 H>7 H>7 H>7 H>7 H>7 H>7 H>7 H>7 H>7 H>7 H>7 H>7 H>7 H>7 H>7 H>7 H>7 H>7 H>7 H>7 H>7 H>7 H>7 H>7 H>7 H>7 H>7 H>7 H>7 >7 >7 G>7 G>7 G>7 G>7 G>7 G>7 G>7 G>7 G>7 G>7 G>7 G>7 G>7 G>7 G>7 G>7 G>7 G>7 G>7 G>7 G>7 G>7 G>7 G>7 G>7 G>7 G>7 G>7 G>7 G>7 G>7 G>7 G>7 G>7 G>7 G>7 G>7 G>7 G>7 G>7 G>7 G>7 G>7 G>7 G>7 G>7 G>7 G>7 G>7 G>7 G>7 G>7 G>7 G>7 G>7 G>7 G>7 G>7 G>7 G>7 G>7 G>7 G>7 G>7 G>7 G>7 G>7 G>7 G>7 G>7 G>7 G>7 G>7 G>7 G>7 G>7 G>7 G>7 G>7 G>7 G>7 G>7 G>7 G>7 G>7 G>7 G>7 G>7 G>7 G>7 G>7 G>7 G>7 G>7 G>7 G>7 G>7 G>7 G>7 G>7 G>7 G>7 G>7 G>7 G>7 G>7 G>7 G>7 G>7 G>7 G>7 G>7 G>7 G>7 G>7 G>7 G>7 G>7 G>7 G>7 G>7 G>7 G>7 G>7 G>7 G>7 G>7 G>7 G>7 G>7 G>7 G>7 G>7 G>7 G>7 G>7 G>7 G>7 G>7 G>7 G>7 G>7 G>7 G>7 G>7 G>7 G>7 G>7 G>7 G>7 G>7 G>7 G>7 G>7 G>7 G>7 G>7 G>7 G>7 G>7 G>7 G>7 G>7 G>7 G>7 G>7 G>7 G>7 G>7 G>7 G>7 G>7 G>7 G>7 G>7 G>7 G>7 G>7 7 E<7 E<7 E<7 E<7 E<7 E<7 E<7 E<7 E<7 E<7 E<7 E<7 E<7 E<7 E<7 E<7 E<7 E<7 E<7 E<7 E<7 E<7 E<7 E<7 E<7 E<7 E<7 E<7 E<7 E<7 E<7 E<7 E<7 E<7 E<7 E<7 E<7 E<7 E<7 E<7 E<7 E<7 E<7 E<7 E<7 E<7 E<7 E<7 E<7 E<7 E<7 E<7 E<7 E<7 E<7 E<7 E<7 E<7 E<7 E<7 E<7 E<7 E<7 E<7 E<7 E<7 E<7 E<7 E<7 E<7 E<7 E<7 E<7 E<7 E<7 E<7 E<7 E<7 E<7 E<7 E<7 E<7 E<7 E<7 E<7 E<7 E<7 E<7 E<7 E<7 E<7 E<7 E<7 E<7 E<7 E<7 E<7 E<7 E<7 E<7 E<7 E<7 E<7 E<7 E<7 E<7 E<7 E<7 E<7 E<7 E<7 E<7 E<7 E<7 E<7 E<7 E<7 E<7 E<7 E<7 E<7 E<7 E<7 E<7 E<7 E<7 E<7 E<7 E<7 E<7 E<7 E<7 E<7 E<7 E<7 E<7 E<7 E<7 E<7 E<7 E<7 E<7 E<7 E<7 E<7 E<7 E<7 E<7 E<7 E<7 E<7 E<7 E<7 E<7 E<7 E<7 E<7 E<7 E<7 E<7 E<7 E<7 E<7 E<7 E<7 E<7 E<7 E<7 E<7 E<7 E<7 E<7 E<7 E<7 E<7 E<7 E<7 E<7 <7 <7 C<7 C<7 C<7 C<7 C<7 C<7 C<7 C<7 C<7 C<7 C<7 C<7 C<7 C<7 C<7 C<7 C<7 C<7 C<7 C<7 C<7 C<7 C<7 C<7 C<7 C<7 C<7 C<7 C<7 C<7 C<7 C<7 C<7 C<7 C<7 C<7 C<7 C<7 C<7 C<7 C<7 C<7 C<7 C<7 C<7 C<7 C<7 C<7 C<7 C<7 C<7 C<7 C<7 C<7 C<7 C<7 C<7 C<7 C<7 C<7 C<7 C<7 C<7 C<7 C<7 C<7 C<7 C<7 C<7 C<7 C<7 C<7 C<7 C<7 C<7 C<7 C<7 C<7 C<7 C<7 C<7 C<7 C<7 C<7 C<7 C<7 C<7 C<7 C<7 C<7 C<7 C<7 C<7 C<7 C<7 C<7 C<7 C<7 C<7 C<7 C<7 C<7 C<7 C<7 C<7 C<7 C<7 C<7 C<7 C<7 C<7 C<7 C<7 C<7 C<7 C<7 C<7 C<7 C<7 C<7 C<7 C<7 C<7 C<7 C<7 C<7 C<7 C<7 C<7 C<7 C<7 C<7 C<7 C<7 C<7 C<7 C<7 C<7 C<7 C<7 C<7 C<7 C<7 C<7 C<7 C<7 C<7 C<7 C<7 C<7 C<7 C<7 C<7 C<7 C<7 C<7 C<7 C<7 C<7 C<7 C<7 C<7 C<7 C<7 C<7 C<7 C<7 C<7 C<7 C<7 C<7 C<7 C<7 C<7 C<7 C<7 C<7 C<7 7 7 B@7 B@7 B@7 B@7 B@7 B@7 B@7 B@7 B@7 B@7 B@7 B@7 B@7 B@7 B@7 B@7 B@7 B@7 B@7 B@7 B@7 B@7 B@7 B@7 B@7 B@7 B@7 B@7 B@7 B@7 B@7 B@7 B@7 B@7 B@7 B@7 B@7 B@7 B@7 B@7 B@7 B@7 B@7 B@7 B@7 B@7 B@7 B@7 B@7 B@7 B@7 B@7 B@7 B@7 B@7 B@7 B@7 B@7 B@7 B@7 B@7 B@7 B@7 B@7 B@7 B@7 B@7 B@7 B@7 B@7 B@7 B@7 B@7 B@7 B@7 B@7 B@7 B@7 B@7 B@7 B@7 B@7 B@7 B@7 B@7 B@7 B@7 B@7 B@7 B@7 B@7 B@7 B@7 B@7 B@7 B@7 B@7 B@7 B@7 B@7 B@7 B@7 B@7 B@7 B@7 B@7 B@7 B@7 B@7 B@7 B@7 B@7 B@7 B@7 B@7 B@7 B@7 B@7 B@7 B@7 B@7 B@7 B@7 B@7 B@7 B@7 B@7 B@7 B@7 B@7 B@7 B@7 B@7 B@7 B@7 B@7 B@7 B@7 B@7 B@7 B@7 B@7 B@7 B@7 B@7 B@7 B@7 B@7 B@7 B@7 B@7 B@7 B@7 B@7 B@7 B@7 B@7 B@7 B@7 B@7 B@7 B@7 B@7 B@7 B@7 B@7 B@7 B@7 B@7 B@7 B@7 B@7 B@7 B@7 B@7 B@7 B@7 B@7 @7 @7 C@7 C@7 C@7 C@7 C@7 C@7 C@7 C@7 C@7 C@7 C@7 C@7 C@7 C@7 C@7 C@7 C@7 C@7 C@7 C@7 C@7 C@7 C@7 C@7 C@7 C@7 C@7 C@7 C@7 C@7 C@7 C@7 C@7 C@7 C@7 C@7 C@7 C@7 C@7 C@7 C@7 C@7 C@7 C@7 C@7 C@7 C@7 C@7 C@7 C@7 C@7 C@7 C@7 C@7 C@7 C@7 C@7 C@7 C@7 C@7 C@7 C@7 C@7 C@7 C@7 C@7 C@7 C@7 C@7 C@7 C@7 C@7 C@7 C@7 C@7 C@7 C@7 C@7 C@7 C@7 C@7 C@7 C@7 C@7 C@7 C@7 C@7 C@7 C@7 C@7 C@7 C@7 C@7 C@7 C@7 C@7 C@7 C@7 C@7 C@7 C@7 C@7 C@7 C@7 C@7 C@7 C@7 C@7 C@7 C@7 C@7 C@7 C@7 C@7 C@7 C@7 C@7 C@7 C@7 C@7 C@7 C@7 C@7 C@7 C@7 C@7 C@7 C@7 C@7 C@7 C@7 C@7 C@7 C@7 C@7 C@7 C@7 C@7 C@7 C@7 C@7 C@7 C@7 C@7 C@7 C@7 C@7 C@7 C@7 C@7 C@7 C@7 C@7 C@7 C@7 C@7 C@7 C@7 C@7 C@7 C@7 C@7 C@7 C@7 C@7 C@7 C@7 C@7 C@7 C@7 C@7 C@7 C@7 C@7 C@7 C@7 C@7 C@7 7 7 E>7 E>7 E>7 E>7 E>7 E>7 E>7 E>7 E>7 E>7 E>7 E>7 E>7 E>7 E>7 E>7 E>7 E>7 E>7 E>7 E>7 E>7 E>7 E>7 E>7 E>7 E>7 E>7 E>7 E>7 E>7 E>7 E>7 E>7 E>7 E>7 E>7 E>7 E>7 E>7 E>7 E>7 E>7 E>7 E>7 E>7 E>7 E>7 E>7 E>7 E>7 E>7 E>7 E>7 E>7 E>7 E>7 E>7 E>7 E>7 E>7 E>7 E>7 E>7 E>7 E>7 E>7 E>7 E>7 E>7 E>7 E>7 E>7 E>7 E>7 E>7 E>7 E>7 E>7 E>7 E>7 E>7 E>7 E>7 E>7 E>7 E>7 E>7 E>7 E>7 E>7 E>7 E>7 E>7 E>7 E>7 E>7 E>7 E>7 E>7 E>7 E>7 E>7 E>7 E>7 E>7 E>7 E>7 E>7 E>7 E>7 E>7 E>7 E>7 E>7 E>7 E>7 E>7 E>7 E>7 E>7 E>7 E>7 E>7 E>7 E>7 E>7 E>7 E>7 E>7 E>7 E>7 E>7 E>7 E>7 E>7 E>7 E>7 E>7 E>7 E>7 E>7 E>7 E>7 E>7 E>7 E>7 E>7 E>7 E>7 E>7 E>7 E>7 E>7 E>7 E>7 E>7 E>7 E>7 E>7 E>7 E>7 E>7 E>7 E>7 E>7 E>7 E>7 E>7 E>7 E>7 E>7 E>7 E>7 E>7 E>7 E>7 E>7 >7 C>7 C>7 C>7 C>7 C>7 C>7 C>7 C>7 C>7 C>7 C>7 C>7 C>7 C>7 C>7 C>7 C>7 C>7 C>7 C>7 C>7 C>7 C>7 C>7 C>7 C>7 C>7 C>7 C>7 C>7 C>7 C>7 C>7 C>7 C>7 C>7 C>7 C>7 C>7 C>7 C>7 C>7 C>7 C>7 C>7 C>7 C>7 C>7 C>7 C>7 C>7 C>7 C>7 C>7 C>7 C>7 C>7 C>7 C>7 C>7 C>7 C>7 C>7 C>7 C>7 C>7 C>7 C>7 C>7 C>7 C>7 C>7 C>7 C>7 C>7 C>7 C>7 C>7 C>7 C>7 C>7 C>7 C>7 C>7 C>7 C>7 C>7 C>7 C>7 C>7 C>7 C>7 C>7 C>7 C>7 C>7 C>7 C>7 C>7 C>7 C>7 C>7 C>7 C>7 C>7 C>7 C>7 C>7 C>7 C>7 C>7 C>7 C>7 C>7 C>7 C>7 C>7 C>7 C>7 C>7 C>7 C>7 C>7 C>7 C>7 C>7 C>7 C>7 C>7 C>7 C>7 C>7 C>7 C>7 C>7 C>7 C>7 C>7 C>7 C>7 C>7 C>7 C>7 C>7 C>7 C>7 C>7 C>7 C>7 C>7 C>7 C>7 C>7 C>7 C>7 C>7 C>7 C>7 C>7 C>7 C>7 C>7 C>7 C>7 C>7 C>7 C>7 C>7 C>7 C>7 C>7 C>7 C>7 C>7 C>7 C>7 C>7 C>7 >7 7 B<7 B<7 B<7 B<7 B<7 B<7 B<7 B<7 B<7 B<7 B<7 B<7 B<7 B<7 B<7 B<7 B<7 B<7 B<7 B<7 B<7 B<7 B<7 B<7 B<7 B<7 B<7 B<7 B<7 B<7 B<7 B<7 B<7 B<7 B<7 B<7 B<7 B<7 B<7 B<7 B<7 B<7 B<7 B<7 B<7 B<7 B<7 B<7 B<7 B<7 B<7 B<7 B<7 B<7 B<7 B<7 B<7 B<7 B<7 B<7 B<7 B<7 B<7 B<7 B<7 B<7 B<7 B<7 B<7 B<7 B<7 B<7 B<7 B<7 B<7 B<7 B<7 B<7 B<7 B<7 B<7 B<7 B<7 B<7 B<7 B<7 B<7 B<7 B<7 B<7 B<7 B<7 B<7 B<7 B<7 B<7 B<7 B<7 B<7 B<7 B<7 B<7 B<7 B<7 B<7 B<7 B<7 B<7 B<7 B<7 B<7 B<7 B<7 B<7 B<7 B<7 B<7 B<7 B<7 B<7 B<7 B<7 B<7 B<7 B<7 B<7 B<7 B<7 B<7 B<7 B<7 B<7 B<7 B<7 B<7 B<7 B<7 B<7 B<7 B<7 B<7 B<7 B<7 B<7 B<7 B<7 B<7 B<7 B<7 B<7 B<7 B<7 B<7 B<7 B<7 B<7 B<7 B<7 B<7 B<7 B<7 B<7 B<7 B<7 B<7 B<7 B<7 B<7 B<7 B<7 B<7 B<7 B<7 B<7 B<7 B<7 B<7 B<7 <7 <7 @<7 @<7 @<7 @<7 @<7 @<7 @<7 @<7 @<7 @<7 @<7 @<7 @<7 @<7 @<7 @<7 @<7 @<7 @<7 @<7 @<7 @<7 @<7 @<7 @<7 @<7 @<7 @<7 @<7 @<7 @<7 @<7 @<7 @<7 @<7 @<7 @<7 @<7 @<7 @<7 @<7 @<7 @<7 @<7 @<7 @<7 @<7 @<7 @<7 @<7 @<7 @<7 @<7 @<7 @<7 @<7 @<7 @<7 @<7 @<7 @<7 @<7 @<7 @<7 @<7 @<7 @<7 @<7 @<7 @<7 @<7 @<7 @<7 @<7 @<7 @<7 @<7 @<7 @<7 @<7 @<7 @<7 @<7 @<7 @<7 @<7 @<7 @<7 @<7 @<7 @<7 @<7 @<7 @<7 @<7 @<7 @<7 @<7 @<7 @<7 @<7 @<7 @<7 @<7 @<7 @<7 @<7 @<7 @<7 @<7 @<7 @<7 @<7 @<7 @<7 @<7 @<7 @<7 @<7 @<7 @<7 @<7 @<7 @<7 @<7 @<7 @<7 @<7 @<7 @<7 @<7 @<7 @<7 @<7 @<7 @<7 @<7 @<7 @<7 @<7 @<7 @<7 @<7 @<7 @<7 @<7 @<7 @<7 @<7 @<7 @<7 @<7 @<7 @<7 @<7 @<7 @<7 @<7 @<7 @<7 @<7 @<7 @<7 @<7 @<7 @<7 @<7 @<7 @<7 @<7 @<7 @<7 @<7 @<7 @<7 @<7 @<7 @<7 7 7 ;7> ;7> ;7> ;7> ;7> ;7> ;7> ;7> ;7> ;7> ;7> ;7> ;7> ;7> ;7> ;7> ;7> ;7> ;7> ;7> ;7> ;7> ;7> ;7> ;7> ;7> ;7> ;7> ;7> ;7> ;7> ;7> ;7> ;7> ;7> ;7> ;7> ;7> ;7> ;7> ;7> ;7> ;7> ;7> ;7> ;7> ;7> ;7> ;7> ;7> ;7> ;7> ;7> ;7> ;7> ;7> ;7> ;7> ;7> ;7> ;7> ;7> ;7> ;7> ;7> ;7> ;7> ;7> ;7> ;7> ;7> ;7> ;7> ;7> ;7> ;7> ;7> ;7> ;7> ;7> ;7> ;7> ;7> ;7> ;7> ;7> ;7> ;7> ;7> ;7> ;7> ;7> ;7> ;7> ;7> ;7> ;7> ;7> ;7> ;7> ;7> ;7> ;7> ;7> ;7> ;7> ;7> ;7> ;7> ;7> ;7> ;7> ;7> ;7> ;7> ;7> ;7> ;7> ;7> ;7> ;7> ;7> ;7> ;7> ;7> ;7> ;7> ;7> ;7> ;7> ;7> ;7> ;7> ;7> ;7> ;7> ;7> ;7> ;7> ;7> ;7> ;7> ;7> ;7> ;7> ;7> ;7> ;7> ;7> ;7> ;7> ;7> ;7> ;7> ;7> ;7> ;7> ;7> ;7> ;7> ;7> ;7> ;7> ;7> ;7> ;7> ;7> ;7> ;7> ;7> ;7> ;7> ;7> ;7> ;7> ;7> ;7> ;7> ;7> ;7> ;7> ;7> ;7> ;7> ;7> ;7> ;7> ;7> ;7> ;7> ;7> ;7> ;7> ;7> ;7> ;7> ;7> ;7> ;7> ;7> ;7> ;7> ;7> ;7> ;7> ;7> ;7> ;7> ;7> ;7> ;7> ;7> ;7> ;7> ;7> ;7> ;7> ;7> ;7> ;7> ;7> ;7> ;7> ;7> ;7> ;7> ;7> ;7> ;7> ;7> ;7> ;7> ;7> ;7> ;7> ;7> ;7> ;7> ;7> ;7> ;7> ;7> ;7> ;7> ;7> ;7> ;7> ;7> ;7> ;7> ;7> ;7> ;7> ;7> ;7> ;7> ;7> ;7> ;7> ;7> ;7> ;7> ;7> ;7> ;7> ;7> ;7> ;7> ;7> ;7> ;7> ;7> ;7> ;7> ;7> ;7> ;7> ;7> ;7> ;7> ;7> ;7> ;7> ;7> ;7> ;7> ;7> ;7> ;7> ;7> ;7> ;7> ;7> ;7> ;7> ;7> ;7> ;7> ;7> ;7> ;7> ;7> ;7> ;7> ;7> ;7> ;7> ;7> ;7> ;7> ;7> ;7> ;7> ;7> ;7> ;7> ;7> ;7> ;7> ;7> ;7> ;7> ;7> ;7> ;7> ;7> ;7> ;7> ;7> ;7> ;7> ;7> ;7> ;7> ;7> ;7> ;7> ;7> ;7> ;7> ;7> ;7> ;7> ;7> ;7> ;7> ;7> ;7> ;7> ;7> ;7> ;7> ;7> ;7> ;7> ;7> ;7> ;7> 7> 7> 7<> 7<> 7<> 7<> 7<> 7<> 7<> 7<> 7<> 7<> 7<> 7<> 7<> 7<> 7<> 7<> 7<> 7<> 7<> 7<> 7<> 7<> 7<> 7<> 7<> 7<> 7<> 7<> 7<> 7<> 7<> 7<> 7<> 7<> 7<> 7<> 7<> 7<> 7<> 7<> 7<> 7<> 7<> 7<> 7<> 7<> 7<> 7<> 7<> 7<> 7<> 7<> 7<> 7<> 7<> 7<> 7<> 7<> 7<> 7<> 7<> 7<> 7<> 7<> 7<> 7<> 7<> 7<> 7<> 7<> 7<> 7<> 7<> 7<> 7<> 7<> 7<> 7<> 7<> 7<> 7<> 7<> 7<> 7<> 7<> 7<> 7<> 7<> 7<> 7<> 7<> 7<> 7<> 7<> 7<> 7<> 7<> 7<> 7<> 7<> 7<> 7<> 7<> 7<> 7<> 7<> 7<> 7<> 7<> 7<> 7<> 7<> 7<> 7<> 7<> 7<> 7<> 7<> 7<> 7<> 7<> 7<> 7<> 7<> 7<> 7<> 7<> 7<> 7<> 7<> 7<> 7<> 7<> 7<> 7<> 7<> 7<> 7<> 7<> 7<> 7<> 7<> 7<> 7<> 7<> 7<> 7<> 7<> 7<> 7<> 7<> 7<> 7<> 7<> 7<> 7<> 7<> 7<> 7<> 7<> 7<> 7<> 7<> 7<> 7<> 7<> 7<> 7<> 7<> 7<> 7<> 7<> 7<> 7<> 7<> 7<> 7<> 7<> 7<> 7<> 7<> 7<> 7<> 7<> 7<> 7<> 7<> 7<> 7<> 7<> 7<> 7<> 7<> 7<> 7<> 7<> 7<> 7<> 7<> 7<> 7<> 7<> 7<> 7<> 7<> 7<> 7<> 7<> 7<> 7<> 7<> 7<> 7<> 7<> 7<> 7<> 7<> 7<> 7<> 7<> 7<> 7<> 7<> 7<> 7<> 7<> 7<> 7<> 7<> 7<> 7<> 7<> 7<> 7<> 7<> 7<> 7<> 7<> 7<> 7<> 7<> 7<> 7<> 7<> 7<> 7<> 7<> 7<> 7<> 7<> 7<> 7<> 7<> 7<> 7<> 7<> 7<> 7<> 7<> 7<> 7<> 7<> 7<> 7<> 7<> 7<> 7<> 7<> 7<> 7<> 7<> 7<> 7<> 7<> 7<> 7<> 7<> 7<> 7<> 7<> 7<> 7<> 7<> 7<> 7<> 7<> 7<> 7<> 7<> 7<> 7<> 7<> 7<> 7<> 7<> 7<> 7<> 7<> 7<> 7<> 7<> 7<> 7<> 7<> 7<> 7<> 7<> 7<> 7<> 7<> 7<> 7<> 7<> 7<> 7<> 7<> 7<> 7<> 7<> 7<> 7<> 7<> 7<> 7<> 7<> 7<> 7<> 7<> 7<> 7<> 7<> 7<> 7<> 7<> 7<> 7<> 7<> 7<> 7<> 7<> 7<> 7<> 7<> 7<> 7<> 7<> 7<> 7<> 7<> 7<> 7<> <> <> <> <> <> > > >;7 >;7 >;7 >;7 >;7 >;7 >;7 >;7 >;7 >;7 >;7 >;7 >;7 >;7 >;7 >;7 >;7 >;7 >;7 >;7 >;7 >;7 >;7 >;7 >;7 >;7 >;7 >;7 >;7 >;7 >;7 >;7 >;7 >;7 >;7 >;7 >;7 >;7 >;7 >;7 >;7 >;7 >;7 >;7 >;7 >;7 >;7 >;7 >;7 >;7 >;7 >;7 >;7 >;7 >;7 >;7 >;7 >;7 >;7 >;7 >;7 >;7 >;7 >;7 >;7 >;7 >;7 >;7 >;7 >;7 >;7 >;7 >;7 >;7 >;7 >;7 >;7 >;7 >;7 >;7 >;7 >;7 >;7 >;7 >;7 >;7 >;7 >;7 >;7 >;7 >;7 >;7 >;7 >;7 >;7 >;7 >;7 >;7 >;7 >;7 >;7 >;7 >;7 >;7 >;7 >;7 >;7 >;7 >;7 >;7 >;7 >;7 >;7 >;7 >;7 >;7 >;7 >;7 >;7 >;7 >;7 >;7 >;7 >;7 >;7 >;7 >;7 >;7 >;7 >;7 >;7 >;7 >;7 >;7 >;7 >;7 >;7 >;7 >;7 >;7 >;7 >;7 >;7 >;7 >;7 >;7 >;7 >;7 >;7 >;7 >;7 >;7 >;7 >;7 >;7 >;7 >;7 >;7 >;7 >;7 >;7 >;7 >;7 >;7 >;7 >;7 >;7 >;7 >;7 >;7 >;7 >;7 >;7 >;7 >;7 >;7 >;7 >;7 >;7 >;7 >;7 >;7 >;7 >;7 >;7 >;7 >;7 >;7 >;7 >;7 >;7 >;7 >;7 >;7 >;7 >;7 >;7 >;7 >;7 >;7 >;7 >;7 >;7 >;7 >;7 >;7 >;7 >;7 >;7 >;7 >;7 >;7 >;7 >;7 >;7 >;7 >;7 >;7 >;7 >;7 >;7 >;7 >;7 >;7 >;7 >;7 >;7 >;7 >;7 >;7 >;7 >;7 >;7 >;7 >;7 >;7 >;7 >;7 >;7 >;7 >;7 >;7 >;7 >;7 >;7 >;7 >;7 >;7 >;7 >;7 >;7 >;7 >;7 >;7 >;7 >;7 >;7 >;7 >;7 >;7 >;7 >;7 >;7 >;7 >;7 >;7 >;7 >;7 >;7 >;7 >;7 >;7 >;7 >;7 >;7 >;7 >;7 >;7 >;7 >;7 >;7 >;7 >;7 >;7 >;7 >;7 >;7 >;7 >;7 >;7 >;7 >;7 >;7 >;7 >;7 >;7 >;7 >;7 >;7 >;7 >;7 >;7 >;7 >;7 >;7 >;7 >;7 >;7 >;7 >;7 >;7 >;7 >;7 >;7 >;7 >;7 >;7 >;7 >;7 >;7 >;7 >;7 >;7 >;7 >;7 >;7 >;7 >;7 >;7 >;7 >;7 >;7 >;7 >;7 >;7 >;7 >;7 >;7 >;7 >;7 >;7 >;7 >;7 >;7 >;7 >;7 >;7 >;7 >;7 >;7 >;7 >;7 >;7 >;7 >;7 >;7 >;7 ;7 7 @97 @97 @97 @97 @97 @97 @97 @97 @97 @97 @97 @97 @97 @97 @97 @97 @97 @97 @97 @97 @97 @97 @97 @97 @97 @97 @97 @97 @97 @97 @97 @97 @97 @97 @97 @97 @97 @97 @97 @97 @97 @97 @97 @97 @97 @97 @97 @97 @97 @97 @97 @97 @97 @97 @97 @97 @97 @97 @97 @97 @97 @97 @97 @97 @97 @97 @97 @97 @97 @97 @97 @97 @97 @97 @97 @97 @97 @97 @97 @97 @97 @97 @97 @97 @97 @97 @97 @97 @97 @97 @97 @97 @97 @97 @97 @97 @97 @97 @97 @97 @97 @97 @97 @97 @97 @97 @97 @97 @97 @97 @97 @97 @97 @97 @97 @97 @97 @97 @97 @97 @97 @97 @97 @97 @97 @97 @97 @97 @97 @97 @97 @97 @97 @97 @97 @97 @97 @97 @97 @97 @97 @97 @97 @97 @97 @97 @97 @97 @97 @97 @97 @97 @97 @97 @97 @97 @97 @97 @97 @97 @97 @97 @97 @97 @97 @97 @97 @97 @97 @97 @97 @97 @97 @97 @97 @97 @97 @97 97 97 <97 <97 <97 <97 <97 <97 <97 <97 <97 <97 <97 <97 <97 <97 <97 <97 <97 <97 <97 <97 <97 <97 <97 <97 <97 <97 <97 <97 <97 <97 <97 <97 <97 <97 <97 <97 <97 <97 <97 <97 <97 <97 <97 <97 <97 <97 <97 <97 <97 <97 <97 <97 <97 <97 <97 <97 <97 <97 <97 <97 <97 <97 <97 <97 <97 <97 <97 <97 <97 <97 <97 <97 <97 <97 <97 <97 <97 <97 <97 <97 <97 <97 <97 <97 <97 <97 <97 <97 <97 <97 <97 <97 <97 <97 <97 <97 <97 <97 <97 <97 <97 <97 <97 <97 <97 <97 <97 <97 <97 <97 <97 <97 <97 <97 <97 <97 <97 <97 <97 <97 <97 <97 <97 <97 <97 <97 <97 <97 <97 <97 <97 <97 <97 <97 <97 <97 <97 <97 <97 <97 <97 <97 <97 <97 <97 <97 <97 <97 <97 <97 <97 <97 <97 <97 <97 <97 <97 <97 <97 <97 <97 <97 <97 <97 <97 <97 <97 <97 <97 <97 <97 <97 <97 <97 <97 <97 <97 <97 7 7 >;7 >;7 >;7 >;7 >;7 >;7 >;7 >;7 >;7 >;7 >;7 >;7 >;7 >;7 >;7 >;7 >;7 >;7 >;7 >;7 >;7 >;7 >;7 >;7 >;7 >;7 >;7 >;7 >;7 >;7 >;7 >;7 >;7 >;7 >;7 >;7 >;7 >;7 >;7 >;7 >;7 >;7 >;7 >;7 >;7 >;7 >;7 >;7 >;7 >;7 >;7 >;7 >;7 >;7 >;7 >;7 >;7 >;7 >;7 >;7 >;7 >;7 >;7 >;7 >;7 >;7 >;7 >;7 >;7 >;7 >;7 >;7 >;7 >;7 >;7 >;7 >;7 >;7 >;7 >;7 >;7 >;7 >;7 >;7 >;7 >;7 >;7 >;7 >;7 >;7 >;7 >;7 >;7 >;7 >;7 >;7 >;7 >;7 >;7 >;7 >;7 >;7 >;7 >;7 >;7 >;7 >;7 >;7 >;7 >;7 >;7 >;7 >;7 >;7 >;7 >;7 >;7 >;7 >;7 >;7 >;7 >;7 >;7 >;7 >;7 >;7 >;7 >;7 >;7 >;7 >;7 >;7 >;7 >;7 >;7 >;7 >;7 >;7 >;7 >;7 >;7 >;7 >;7 >;7 >;7 >;7 >;7 >;7 >;7 >;7 >;7 >;7 >;7 >;7 >;7 >;7 >;7 >;7 >;7 >;7 >;7 >;7 >;7 >;7 >;7 >;7 >;7 >;7 >;7 >;7 >;7 >;7 >;7 >;7 >;7 >;7 >;7 >;7 >;7 >;7 >;7 >;7 >;7 >;7 >;7 >;7 >;7 >;7 >;7 >;7 >;7 >;7 >;7 >;7 >;7 >;7 >;7 >;7 >;7 >;7 >;7 >;7 >;7 >;7 >;7 >;7 >;7 >;7 >;7 >;7 >;7 >;7 >;7 >;7 >;7 >;7 >;7 >;7 >;7 >;7 >;7 >;7 >;7 >;7 >;7 >;7 >;7 >;7 >;7 >;7 >;7 >;7 >;7 >;7 >;7 >;7 >;7 >;7 >;7 >;7 >;7 >;7 >;7 >;7 >;7 >;7 >;7 >;7 >;7 >;7 >;7 >;7 >;7 >;7 >;7 >;7 >;7 >;7 >;7 >;7 >;7 >;7 >;7 >;7 >;7 >;7 >;7 >;7 >;7 >;7 >;7 >;7 >;7 >;7 >;7 >;7 >;7 >;7 >;7 >;7 >;7 >;7 >;7 >;7 >;7 >;7 >;7 >;7 >;7 >;7 >;7 >;7 >;7 >;7 >;7 >;7 >;7 >;7 >;7 >;7 >;7 >;7 >;7 >;7 >;7 >;7 >;7 >;7 >;7 >;7 >;7 >;7 >;7 >;7 >;7 >;7 >;7 >;7 >;7 >;7 >;7 >;7 >;7 >;7 >;7 >;7 >;7 >;7 >;7 >;7 >;7 >;7 >;7 >;7 >;7 >;7 >;7 >;7 >;7 >;7 >;7 >;7 >;7 >;7 >;7 >;7 >;7 >;7 >;7 >;7 >;7 >;7 >;7 >;7 >;7 >;7 >;7 >;7 7 7 C<7 C<7 C<7 C<7 C<7 C<7 C<7 C<7 C<7 C<7 C<7 C<7 C<7 C<7 C<7 C<7 C<7 C<7 C<7 C<7 C<7 C<7 C<7 C<7 C<7 C<7 C<7 C<7 C<7 C<7 C<7 C<7 C<7 C<7 C<7 C<7 C<7 C<7 C<7 C<7 C<7 C<7 C<7 C<7 C<7 C<7 C<7 C<7 C<7 C<7 C<7 C<7 C<7 C<7 C<7 C<7 C<7 C<7 C<7 C<7 C<7 C<7 C<7 C<7 C<7 C<7 C<7 C<7 C<7 C<7 C<7 C<7 C<7 C<7 C<7 C<7 C<7 C<7 C<7 C<7 C<7 C<7 C<7 C<7 C<7 C<7 C<7 C<7 C<7 C<7 C<7 C<7 C<7 C<7 C<7 C<7 C<7 C<7 C<7 C<7 C<7 C<7 C<7 C<7 C<7 C<7 C<7 C<7 C<7 C<7 C<7 C<7 C<7 C<7 C<7 C<7 C<7 C<7 C<7 C<7 C<7 C<7 C<7 C<7 C<7 C<7 C<7 C<7 C<7 C<7 C<7 C<7 C<7 C<7 C<7 C<7 C<7 C<7 C<7 C<7 C<7 C<7 C<7 C<7 C<7 C<7 C<7 C<7 C<7 C<7 C<7 C<7 C<7 C<7 C<7 C<7 C<7 C<7 C<7 C<7 C<7 C<7 C<7 C<7 C<7 C<7 C<7 C<7 C<7 C<7 C<7 C<7 C<7 C<7 C<7 C<7 C<7 C<7 <7 E<7 E<7 E<7 E<7 E<7 E<7 E<7 E<7 E<7 E<7 E<7 E<7 E<7 E<7 E<7 E<7 E<7 E<7 E<7 E<7 E<7 E<7 E<7 E<7 E<7 E<7 E<7 E<7 E<7 E<7 E<7 E<7 E<7 E<7 E<7 E<7 E<7 E<7 E<7 E<7 E<7 E<7 E<7 E<7 E<7 E<7 E<7 E<7 E<7 E<7 E<7 E<7 E<7 E<7 E<7 E<7 E<7 E<7 E<7 E<7 E<7 E<7 E<7 E<7 E<7 E<7 E<7 E<7 E<7 E<7 E<7 E<7 E<7 E<7 E<7 E<7 E<7 E<7 E<7 E<7 E<7 E<7 E<7 E<7 E<7 E<7 E<7 E<7 E<7 E<7 E<7 E<7 E<7 E<7 E<7 E<7 E<7 E<7 E<7 E<7 E<7 E<7 E<7 E<7 E<7 E<7 E<7 E<7 E<7 E<7 E<7 E<7 E<7 E<7 E<7 E<7 E<7 E<7 E<7 E<7 E<7 E<7 E<7 E<7 E<7 E<7 E<7 E<7 E<7 E<7 E<7 E<7 E<7 E<7 E<7 E<7 E<7 E<7 E<7 E<7 E<7 E<7 E<7 E<7 E<7 E<7 E<7 E<7 E<7 E<7 E<7 E<7 E<7 E<7 E<7 E<7 E<7 E<7 E<7 E<7 E<7 E<7 E<7 E<7 E<7 E<7 E<7 E<7 E<7 E<7 E<7 E<7 E<7 E<7 E<7 E<7 E<7 E<7 <7 7 G>7 G>7 G>7 G>7 G>7 G>7 G>7 G>7 G>7 G>7 G>7 G>7 G>7 G>7 G>7 G>7 G>7 G>7 G>7 G>7 G>7 G>7 G>7 G>7 G>7 G>7 G>7 G>7 G>7 G>7 G>7 G>7 G>7 G>7 G>7 G>7 G>7 G>7 G>7 G>7 G>7 G>7 G>7 G>7 G>7 G>7 G>7 G>7 G>7 G>7 G>7 G>7 G>7 G>7 G>7 G>7 G>7 G>7 G>7 G>7 G>7 G>7 G>7 G>7 G>7 G>7 G>7 G>7 G>7 G>7 G>7 G>7 G>7 G>7 G>7 G>7 G>7 G>7 G>7 G>7 G>7 G>7 G>7 G>7 G>7 G>7 G>7 G>7 G>7 G>7 G>7 G>7 G>7 G>7 G>7 G>7 G>7 G>7 G>7 G>7 G>7 G>7 G>7 G>7 G>7 G>7 G>7 G>7 G>7 G>7 G>7 G>7 G>7 G>7 G>7 G>7 G>7 G>7 G>7 G>7 G>7 G>7 G>7 G>7 G>7 G>7 G>7 G>7 G>7 G>7 G>7 G>7 G>7 G>7 G>7 G>7 G>7 G>7 G>7 G>7 G>7 G>7 G>7 G>7 G>7 G>7 G>7 G>7 G>7 G>7 G>7 G>7 G>7 G>7 G>7 G>7 G>7 G>7 G>7 G>7 G>7 G>7 G>7 G>7 G>7 G>7 G>7 G>7 G>7 G>7 G>7 G>7 G>7 G>7 G>7 G>7 G>7 G>7 G>7 G>7 G>7 G>7 G>7 G>7 G>7 G>7 G>7 G>7 G>7 G>7 G>7 G>7 G>7 G>7 G>7 G>7 G>7 G>7 G>7 G>7 G>7 G>7 G>7 G>7 G>7 G>7 G>7 G>7 G>7 G>7 G>7 G>7 G>7 G>7 G>7 G>7 G>7 G>7 G>7 G>7 G>7 G>7 G>7 G>7 G>7 G>7 G>7 G>7 G>7 G>7 G>7 G>7 G>7 G>7 G>7 G>7 G>7 G>7 G>7 G>7 G>7 G>7 G>7 G>7 G>7 G>7 G>7 G>7 G>7 G>7 G>7 G>7 G>7 G>7 G>7 G>7 G>7 G>7 G>7 G>7 G>7 G>7 G>7 G>7 G>7 G>7 G>7 G>7 G>7 G>7 G>7 G>7 G>7 G>7 G>7 G>7 G>7 G>7 G>7 G>7 G>7 G>7 G>7 G>7 G>7 G>7 G>7 G>7 G>7 G>7 G>7 G>7 G>7 G>7 G>7 G>7 G>7 G>7 G>7 G>7 G>7 G>7 G>7 G>7 G>7 G>7 G>7 G>7 G>7 G>7 G>7 G>7 G>7 G>7 G>7 G>7 G>7 G>7 G>7 G>7 G>7 G>7 G>7 G>7 G>7 G>7 G>7 G>7 G>7 G>7 G>7 G>7 G>7 G>7 G>7 G>7 G>7 G>7 G>7 G>7 G>7 G>7 G>7 G>7 G>7 G>7 G>7 G>7 G>7 G>7 G>7 G>7 G>7 G>7 G>7 G>7 G>7 G>7 7 7 E<7 E<7 E<7 E<7 E<7 E<7 E<7 E<7 E<7 E<7 E<7 E<7 E<7 E<7 E<7 E<7 E<7 E<7 E<7 E<7 E<7 E<7 E<7 E<7 E<7 E<7 E<7 E<7 E<7 E<7 E<7 E<7 E<7 E<7 E<7 E<7 E<7 E<7 E<7 E<7 E<7 E<7 E<7 E<7 E<7 E<7 E<7 E<7 E<7 E<7 E<7 E<7 E<7 E<7 E<7 E<7 E<7 E<7 E<7 E<7 E<7 E<7 E<7 E<7 E<7 E<7 E<7 E<7 E<7 E<7 E<7 E<7 E<7 E<7 E<7 E<7 E<7 E<7 E<7 E<7 E<7 E<7 E<7 E<7 E<7 E<7 E<7 E<7 E<7 E<7 E<7 E<7 E<7 E<7 E<7 E<7 E<7 E<7 E<7 E<7 E<7 E<7 E<7 E<7 E<7 E<7 E<7 E<7 E<7 E<7 E<7 E<7 E<7 E<7 E<7 E<7 E<7 E<7 E<7 E<7 E<7 E<7 E<7 E<7 E<7 E<7 E<7 E<7 E<7 E<7 E<7 E<7 E<7 E<7 E<7 E<7 E<7 E<7 E<7 E<7 E<7 E<7 E<7 E<7 E<7 E<7 E<7 E<7 E<7 E<7 E<7 E<7 E<7 E<7 E<7 E<7 E<7 E<7 E<7 E<7 E<7 E<7 E<7 E<7 E<7 E<7 E<7 E<7 E<7 E<7 E<7 E<7 E<7 E<7 E<7 E<7 E<7 E<7 <7 <7 B<7 B<7 B<7 B<7 B<7 B<7 B<7 B<7 B<7 B<7 B<7 B<7 B<7 B<7 B<7 B<7 B<7 B<7 B<7 B<7 B<7 B<7 B<7 B<7 B<7 B<7 B<7 B<7 B<7 B<7 B<7 B<7 B<7 B<7 B<7 B<7 B<7 B<7 B<7 B<7 B<7 B<7 B<7 B<7 B<7 B<7 B<7 B<7 B<7 B<7 B<7 B<7 B<7 B<7 B<7 B<7 B<7 B<7 B<7 B<7 B<7 B<7 B<7 B<7 B<7 B<7 B<7 B<7 B<7 B<7 B<7 B<7 B<7 B<7 B<7 B<7 B<7 B<7 B<7 B<7 B<7 B<7 B<7 B<7 B<7 B<7 B<7 B<7 B<7 B<7 B<7 B<7 B<7 B<7 B<7 B<7 B<7 B<7 B<7 B<7 B<7 B<7 B<7 B<7 B<7 B<7 B<7 B<7 B<7 B<7 B<7 B<7 B<7 B<7 B<7 B<7 B<7 B<7 B<7 B<7 B<7 B<7 B<7 B<7 B<7 B<7 B<7 B<7 B<7 B<7 B<7 B<7 B<7 B<7 B<7 B<7 B<7 B<7 B<7 B<7 B<7 B<7 B<7 B<7 B<7 B<7 B<7 B<7 B<7 B<7 B<7 B<7 B<7 B<7 B<7 B<7 B<7 B<7 B<7 B<7 B<7 B<7 B<7 B<7 B<7 B<7 B<7 B<7 B<7 B<7 B<7 B<7 B<7 B<7 B<7 B<7 B<7 B<7 7 C7; C7; C7; C7; C7; C7; C7; C7; C7; C7; C7; C7; C7; C7; C7; C7; C7; C7; C7; C7; C7; C7; C7; C7; C7; C7; C7; C7; C7; C7; C7; C7; C7; C7; C7; C7; C7; C7; C7; C7; C7; C7; C7; C7; C7; C7; C7; C7; C7; C7; C7; C7; C7; C7; C7; C7; C7; C7; C7; C7; C7; C7; C7; C7; C7; C7; C7; C7; C7; C7; C7; C7; C7; C7; C7; C7; C7; C7; C7; C7; C7; C7; C7; C7; C7; C7; C7; C7; C7; C7; C7; C7; C7; C7; C7; C7; C7; C7; C7; C7; C7; C7; C7; C7; C7; C7; C7; C7; C7; C7; C7; C7; C7; C7; C7; C7; C7; C7; C7; C7; C7; C7; C7; C7; C7; C7; C7; C7; C7; C7; C7; C7; C7; C7; C7; C7; C7; C7; C7; C7; C7; C7; C7; C7; C7; C7; C7; C7; C7; C7; C7; C7; C7; C7; C7; C7; C7; C7; C7; C7; C7; C7; C7; C7; C7; C7; C7; C7; C7; C7; C7; C7; C7; C7; C7; C7; C7; C7; C7; C7; C7; C7; C7; C7; C7; C7; C7; C7; C7; C7; C7; C7; C7; C7; C7; C7; C7; C7; C7; C7; C7; C7; C7; C7; C7; C7; C7; C7; C7; C7; C7; C7; C7; C7; C7; C7; C7; C7; C7; C7; C7; C7; C7; C7; C7; C7; C7; C7; C7; C7; C7; C7; C7; C7; C7; C7; C7; C7; C7; C7; C7; C7; C7; C7; C7; C7; C7; C7; C7; C7; C7; C7; C7; C7; C7; C7; C7; C7; C7; C7; C7; C7; C7; C7; C7; C7; C7; C7; C7; C7; C7; C7; C7; C7; C7; C7; C7; C7; C7; C7; C7; C7; C7; C7; C7; C7; C7; C7; C7; C7; C7; C7; C7; C7; C7; C7; C7; C7; C7; C7; C7; C7; C7; C7; C7; C7; C7; C7; C7; C7; C7; C7; C7; C7; C7; C7; C7; C7; C7; C7; C7; C7; C7; C7; C7; C7; C7; C7; C7; C7; C7; C7; C7; C7; C7; C7; C7; C7; C7; C7; C7; C7; C7; C7; C7; C7; C7; C7; C7; C7; C7; C7; C7; C7; C7; C7; C7; C7; 7; 7; 7;> 7;> 7;> 7;> 7;> 7;> 7;> 7;> 7;> 7;> 7;> 7;> 7;> 7;> 7;> 7;> 7;> 7;> 7;> 7;> 7;> 7;> 7;> 7;> 7;> 7;> 7;> 7;> 7;> 7;> 7;> 7;> 7;> 7;> 7;> 7;> 7;> 7;> 7;> 7;> 7;> 7;> 7;> 7;> 7;> 7;> 7;> 7;> 7;> 7;> 7;> 7;> 7;> 7;> 7;> 7;> 7;> 7;> 7;> 7;> 7;> 7;> 7;> 7;> 7;> 7;> 7;> 7;> 7;> 7;> 7;> 7;> 7;> 7;> 7;> 7;> 7;> 7;> 7;> 7;> 7;> 7;> 7;> 7;> 7;> 7;> 7;> 7;> 7;> 7;> 7;> 7;> 7;> 7;> 7;> 7;> 7;> 7;> 7;> 7;> 7;> 7;> 7;> 7;> 7;> 7;> 7;> 7;> 7;> 7;> 7;> 7;> 7;> 7;> 7;> 7;> 7;> 7;> 7;> 7;> 7;> 7;> 7;> 7;> 7;> 7;> 7;> 7;> 7;> 7;> 7;> 7;> 7;> 7;> 7;> 7;> 7;> 7;> 7;> 7;> 7;> 7;> 7;> 7;> 7;> 7;> 7;> 7;> 7;> 7;> 7;> 7;> 7;> 7;> 7;> 7;> 7;> 7;> 7;> 7;> 7;> 7;> 7;> 7;> 7;> 7;> 7;> 7;> 7;> 7;> 7;> 7;> 7;> 7;> 7;> 7;> 7;> 7;> 7;> 7;> 7;> 7;> 7;> 7;> 7;> 7;> 7;> 7;> 7;> 7;> 7;> 7;> 7;> 7;> 7;> 7;> 7;> 7;> 7;> 7;> 7;> 7;> 7;> 7;> 7;> 7;> 7;> 7;> 7;> 7;> 7;> 7;> 7;> 7;> 7;> 7;> 7;> 7;> 7;> 7;> 7;> 7;> 7;> 7;> 7;> 7;> 7;> 7;> 7;> 7;> 7;> 7;> 7;> 7;> 7;> 7;> 7;> 7;> 7;> 7;> 7;> 7;> 7;> 7;> 7;> 7;> 7;> 7;> 7;> 7;> 7;> 7;> 7;> 7;> 7;> 7;> 7;> 7;> 7;> 7;> 7;> 7;> 7;> 7;> 7;> 7;> 7;> 7;> 7;> 7;> 7;> 7;> 7;> 7;> 7;> 7;> 7;> 7;> 7;> 7;> 7;> 7;> 7;> 7;> 7;> 7;> 7;> 7;> 7;> 7;> 7;> 7;> 7;> 7;> 7;> 7;> 7;> 7;> 7;> 7;> 7;> 7;> 7;> 7;> 7;> 7;> 7;> 7;> 7;> 7;> 7;> 7;> 7;> 7;> 7;> 7;> 7;> 7;> 7;> 7;> 7;> 7;> 7;> 7;> 7;> 7;> 7;> 7;> 7;> 7;> 7;> 7;> 7;> 7;> 7;> 7;> 7;> 7;> 7;> 7;> 7;> 7;> 7;> 7;> 7;> 7;> 7;> 7;> 7;> 7;> 7;> 7;> ;> ;> ;> ;> > > > > > > > > > > >        G>7 G>7 G>7 G>7 G>7 G>7 G>7 G>7 G>7 G>7 G>7 G>7 G>7 G>7 G>7 G>7 G>7 G>7 G>7 G>7 G>7 G>7 G>7 G>7 G>7 G>7 G>7 G>7 G>7 G>7 G>7 G>7 G>7 G>7 G>7 G>7 G>7 G>7 G>7 G>7 G>7 G>7 G>7 G>7 G>7 G>7 G>7 G>7 G>7 G>7 G>7 G>7 G>7 G>7 G>7 G>7 G>7 G>7 G>7 G>7 G>7 G>7 G>7 G>7 G>7 G>7 G>7 G>7 G>7 G>7 G>7 G>7 G>7 G>7 G>7 G>7 G>7 G>7 G>7 G>7 G>7 G>7 G>7 G>7 G>7 G>7 G>7 G>7 G>7 G>7 G>7 G>7 G>7 G>7 G>7 G>7 G>7 G>7 G>7 G>7 G>7 G>7 G>7 G>7 G>7 G>7 G>7 G>7 G>7 G>7 G>7 G>7 G>7 G>7 G>7 G>7 G>7 G>7 G>7 G>7 G>7 G>7 G>7 G>7 G>7 G>7 G>7 G>7 G>7 G>7 G>7 G>7 G>7 G>7 G>7 G>7 G>7 G>7 G>7 G>7 G>7 G>7 G>7 G>7 G>7 G>7 G>7 G>7 G>7 G>7 G>7 G>7 G>7 G>7 G>7 G>7 G>7 G>7 G>7 G>7 G>7 G>7 G>7 G>7 G>7 G>7 G>7 G>7 G>7 G>7 G>7 G>7 G>7 G>7 G>7 G>7 G>7 G>7 >7 >7 B>7 B>7 B>7 B>7 B>7 B>7 B>7 B>7 B>7 B>7 B>7 B>7 B>7 B>7 B>7 B>7 B>7 B>7 B>7 B>7 B>7 B>7 B>7 B>7 B>7 B>7 B>7 B>7 B>7 B>7 B>7 B>7 B>7 B>7 B>7 B>7 B>7 B>7 B>7 B>7 B>7 B>7 B>7 B>7 B>7 B>7 B>7 B>7 B>7 B>7 B>7 B>7 B>7 B>7 B>7 B>7 B>7 B>7 B>7 B>7 B>7 B>7 B>7 B>7 B>7 B>7 B>7 B>7 B>7 B>7 B>7 B>7 B>7 B>7 B>7 B>7 B>7 B>7 B>7 B>7 B>7 B>7 B>7 B>7 B>7 B>7 B>7 B>7 B>7 B>7 B>7 B>7 B>7 B>7 B>7 B>7 B>7 B>7 B>7 B>7 B>7 B>7 B>7 B>7 B>7 B>7 B>7 B>7 B>7 B>7 B>7 B>7 B>7 B>7 B>7 B>7 B>7 B>7 B>7 B>7 B>7 B>7 B>7 B>7 B>7 B>7 B>7 B>7 B>7 B>7 B>7 B>7 B>7 B>7 B>7 B>7 B>7 B>7 B>7 B>7 B>7 B>7 B>7 B>7 B>7 B>7 B>7 B>7 B>7 B>7 B>7 B>7 B>7 B>7 B>7 B>7 B>7 B>7 B>7 B>7 B>7 B>7 B>7 B>7 B>7 B>7 B>7 B>7 B>7 B>7 B>7 B>7 B>7 B>7 B>7 B>7 B>7 B>7 >7 >7 >C7 >C7 >C7 >C7 >C7 >C7 >C7 >C7 >C7 >C7 >C7 >C7 >C7 >C7 >C7 >C7 >C7 >C7 >C7 >C7 >C7 >C7 >C7 >C7 >C7 >C7 >C7 >C7 >C7 >C7 >C7 >C7 >C7 >C7 >C7 >C7 >C7 >C7 >C7 >C7 >C7 >C7 >C7 >C7 >C7 >C7 >C7 >C7 >C7 >C7 >C7 >C7 >C7 >C7 >C7 >C7 >C7 >C7 >C7 >C7 >C7 >C7 >C7 >C7 >C7 >C7 >C7 >C7 >C7 >C7 >C7 >C7 >C7 >C7 >C7 >C7 >C7 >C7 >C7 >C7 >C7 >C7 >C7 >C7 >C7 >C7 >C7 >C7 >C7 >C7 >C7 >C7 >C7 >C7 >C7 >C7 >C7 >C7 >C7 >C7 >C7 >C7 >C7 >C7 >C7 >C7 >C7 >C7 >C7 >C7 >C7 >C7 >C7 >C7 >C7 >C7 >C7 >C7 >C7 >C7 >C7 >C7 >C7 >C7 >C7 >C7 >C7 >C7 >C7 >C7 >C7 >C7 >C7 >C7 >C7 >C7 >C7 >C7 >C7 >C7 >C7 >C7 >C7 >C7 >C7 >C7 >C7 >C7 >C7 >C7 >C7 >C7 >C7 >C7 >C7 >C7 >C7 >C7 >C7 >C7 >C7 >C7 >C7 >C7 >C7 >C7 >C7 >C7 >C7 >C7 >C7 >C7 >C7 >C7 >C7 >C7 >C7 >C7 >C7 C7 C7 C>7 C>7 C>7 C>7 C>7 C>7 C>7 C>7 C>7 C>7 C>7 C>7 C>7 C>7 C>7 C>7 C>7 C>7 C>7 C>7 C>7 C>7 C>7 C>7 C>7 C>7 C>7 C>7 C>7 C>7 C>7 C>7 C>7 C>7 C>7 C>7 C>7 C>7 C>7 >7 >7 >7 >7 >7 >7 >7 >7 >7 >7 >7 >7 >7 >7 >7 >7 >7 >7 >7 >7 >7 >7 >7 >7 >7 >7 >7 >7 >7 >7 >7 >7 >7 >7 >7 >7 >7 >7 >7 >7 >7 >7 >7 >7 >7 >7 >7 >7 >7 >7 >7 >7 >7 >7 >7 >7 >7 >7 >7 >7 >7 >7 >7 >7 >7 >7 >7 >7 >7 >7 >7 >7 >7 >7 >7 >7 >7 >7 >7 >7 >7 >7 >7 >7 >7 >7 >7 >7 >7 >7 >7 >7 >7 >7 >7 >7 >7 >7 >7 >7 >7 >7 >7 >7 >7 >7 >7 >7 >7 >7 >7 >7 >7 >7 >7 >7 >7 >7 >7 >7 >7 >7 >7 >7 >7 >7 >7 >7 >7 >7 >7 >7 >7 >7 >7 >7 >7 >7 >7 >7 >7 >7 >7 >7 >7 >7 >7 >7 >7 7 7 7 7 7 7 7 7 J;7 J;7 J;7 J;7 J;7 J;7 J;7 J;7 J;7 J;7 J;7 J;7 J;7 J;7 J;7 J;7 J;7 J;7 J;7 J;7 J;7 J;7 J;7 J;7 J;7 J;7 J;7 J;7 J;7 J;7 J;7 J;7 J;7 J;7 J;7 J;7 J;7 J;7 J;7 J;7 J;7 J;7 J;7 J;7 J;7 J;7 J;7 J;7 J;7 J;7 J;7 J;7 J;7 J;7 J;7 J;7 J;7 J;7 J;7 J;7 J;7 J;7 J;7 J;7 J;7 J;7 J;7 J;7 J;7 J;7 J;7 J;7 J;7 J;7 J;7 J;7 J;7 J;7 J;7 J;7 J;7 J;7 J;7 J;7 J;7 J;7 J;7 J;7 J;7 J;7 J;7 J;7 J;7 J;7 J;7 J;7 J;7 J;7 J;7 J;7 J;7 J;7 J;7 J;7 J;7 J;7 J;7 J;7 J;7 J;7 J;7 J;7 J;7 J;7 J;7 J;7 J;7 J;7 J;7 J;7 J;7 J;7 J;7 J;7 J;7 J;7 J;7 J;7 J;7 J;7 J;7 J;7 J;7 J;7 J;7 J;7 J;7 J;7 J;7 J;7 J;7 J;7 J;7 J;7 J;7 J;7 J;7 J;7 J;7 J;7 J;7 J;7 J;7 J;7 J;7 J;7 J;7 J;7 J;7 J;7 J;7 J;7 J;7 J;7 J;7 J;7 J;7 J;7 J;7 J;7 J;7 J;7 J;7 J;7 J;7 J;7 J;7 J;7 ;7 ;7 B;7 B;7 B;7 B;7 B;7 B;7 B;7 B;7 B;7 B;7 B;7 B;7 B;7 B;7 B;7 B;7 B;7 B;7 B;7 B;7 B;7 B;7 B;7 B;7 B;7 B;7 B;7 B;7 B;7 B;7 B;7 B;7 B;7 B;7 B;7 B;7 B;7 B;7 B;7 B;7 B;7 B;7 B;7 B;7 B;7 B;7 B;7 B;7 B;7 B;7 B;7 B;7 B;7 B;7 B;7 B;7 B;7 B;7 B;7 B;7 B;7 B;7 B;7 B;7 B;7 B;7 B;7 B;7 B;7 B;7 B;7 B;7 B;7 B;7 B;7 B;7 B;7 B;7 B;7 B;7 B;7 B;7 B;7 B;7 B;7 B;7 B;7 B;7 B;7 B;7 B;7 B;7 B;7 B;7 B;7 B;7 B;7 B;7 B;7 B;7 B;7 B;7 B;7 B;7 B;7 B;7 B;7 B;7 B;7 B;7 B;7 B;7 B;7 B;7 B;7 B;7 B;7 B;7 B;7 B;7 B;7 B;7 B;7 B;7 B;7 B;7 B;7 B;7 B;7 B;7 B;7 B;7 B;7 B;7 B;7 B;7 B;7 B;7 B;7 B;7 B;7 B;7 B;7 B;7 B;7 B;7 B;7 B;7 B;7 B;7 B;7 B;7 B;7 B;7 B;7 B;7 B;7 B;7 B;7 B;7 B;7 B;7 B;7 B;7 B;7 B;7 B;7 B;7 B;7 B;7 B;7 B;7 B;7 B;7 B;7 B;7 B;7 B;7 ;7 ;7 C;7 C;7 C;7 C;7 C;7 C;7 C;7 C;7 C;7 C;7 C;7 C;7 C;7 C;7 C;7 C;7 C;7 C;7 C;7 C;7 C;7 C;7 C;7 C;7 C;7 C;7 C;7 C;7 C;7 C;7 C;7 C;7 C;7 C;7 C;7 C;7 C;7 C;7 C;7 C;7 C;7 C;7 C;7 C;7 C;7 C;7 C;7 C;7 C;7 C;7 C;7 C;7 C;7 C;7 C;7 C;7 C;7 C;7 C;7 C;7 C;7 C;7 C;7 C;7 C;7 C;7 C;7 C;7 C;7 C;7 C;7 C;7 C;7 C;7 C;7 C;7 C;7 C;7 C;7 C;7 C;7 C;7 C;7 C;7 C;7 C;7 C;7 C;7 C;7 C;7 C;7 C;7 C;7 C;7 C;7 C;7 C;7 C;7 C;7 C;7 C;7 C;7 C;7 C;7 C;7 C;7 C;7 C;7 C;7 C;7 C;7 C;7 C;7 C;7 C;7 C;7 C;7 C;7 C;7 C;7 C;7 C;7 C;7 C;7 C;7 C;7 C;7 C;7 C;7 C;7 C;7 C;7 C;7 C;7 C;7 C;7 C;7 C;7 C;7 C;7 C;7 C;7 C;7 C;7 C;7 C;7 C;7 C;7 C;7 C;7 C;7 C;7 C;7 C;7 C;7 C;7 C;7 C;7 C;7 C;7 C;7 C;7 C;7 C;7 C;7 C;7 C;7 C;7 C;7 C;7 C;7 C;7 C;7 C;7 C;7 C;7 C;7 C;7 C;7 C;>7 C;>7 C;>7 C;>7 C;>7 C;>7 C;>7 C;>7 C;>7 C;>7 C;>7 C;>7 C;>7 C;>7 C;>7 C;>7 C;>7 C;>7 C;>7 C;>7 C;>7 C;>7 C;>7 C;>7 C;>7 C;>7 C;>7 C;>7 C;>7 C;>7 C;>7 C;>7 C;>7 C;>7 C;>7 C;>7 C;>7 C;>7 C;>7 C;>7 C;>7 ;>7 ;>7 ;>7 ;>7 ;>7 ;>7 ;>7 ;>7 ;>7 ;>7 ;>7 ;>7 ;>7 ;>7 ;>7 ;>7 ;>7 ;>7 ;>7 ;>7 ;>7 ;>7 ;>7 ;>7 ;>7 ;>7 ;>7 ;>7 ;>7 ;>7 ;>7 ;>7 ;>7 ;>7 ;>7 ;>7 ;>7 ;>7 ;>7 ;>7 ;>7 ;>7 ;>7 ;>7 ;>7 ;>7 ;>7 ;>7 ;>7 ;>7 ;>7 ;>7 ;>7 ;>7 ;>7 ;>7 ;>7 ;>7 ;>7 ;>7 ;>7 ;>7 ;>7 ;>7 ;>7 ;>7 ;>7 ;>7 ;>7 ;>7 ;>7 ;>7 ;>7 ;>7 ;>7 ;>7 ;>7 ;>7 ;>7 ;>7 ;>7 ;>7 ;>7 ;>7 ;>7 ;>7 ;>7 ;>7 ;>7 ;>7 ;>7 ;>7 ;>7 ;>7 ;>7 ;>7 ;>7 ;>7 ;>7 ;>7 ;>7 ;>7 ;>7 ;>7 ;>7 ;>7 ;>7 ;>7 ;>7 ;>7 ;>7 ;>7 ;>7 ;>7 ;>7 ;>7 ;>7 ;>7 ;>7 ;>7 ;>7 ;>7 ;>7 ;>7 ;>7 ;>7 ;>7 ;>7 ;>7 ;>7 ;>7 ;>7 ;>7 ;>7 ;>7 ;>7 ;>7 >7 >7 >7 >7 >7 >7 >7 >7 >7 >7 7 7 7 7 7 7 7 7 G>7 G>7 G>7 G>7 G>7 G>7 G>7 G>7 G>7 G>7 G>7 G>7 G>7 G>7 G>7 G>7 G>7 G>7 G>7 G>7 G>7 G>7 G>7 G>7 G>7 G>7 G>7 G>7 G>7 G>7 G>7 G>7 G>7 G>7 G>7 G>7 G>7 G>7 G>7 G>7 G>7 G>7 G>7 G>7 G>7 G>7 G>7 G>7 G>7 G>7 G>7 G>7 G>7 G>7 G>7 G>7 G>7 G>7 G>7 G>7 G>7 G>7 G>7 G>7 G>7 G>7 G>7 G>7 G>7 G>7 G>7 G>7 G>7 G>7 G>7 G>7 G>7 G>7 G>7 G>7 G>7 G>7 G>7 G>7 G>7 G>7 G>7 G>7 G>7 G>7 G>7 G>7 G>7 G>7 G>7 G>7 G>7 G>7 G>7 G>7 G>7 G>7 G>7 G>7 G>7 G>7 G>7 G>7 G>7 G>7 G>7 G>7 G>7 G>7 G>7 G>7 G>7 G>7 G>7 G>7 G>7 G>7 G>7 G>7 G>7 G>7 G>7 G>7 G>7 G>7 G>7 G>7 G>7 G>7 G>7 G>7 G>7 G>7 G>7 G>7 G>7 G>7 G>7 G>7 G>7 G>7 G>7 G>7 G>7 G>7 G>7 G>7 G>7 G>7 G>7 G>7 G>7 G>7 G>7 G>7 G>7 G>7 G>7 G>7 G>7 G>7 G>7 G>7 G>7 G>7 G>7 G>7 G>7 G>7 G>7 G>7 G>7 G>7 >7 >7 B>7 B>7 B>7 B>7 B>7 B>7 B>7 B>7 B>7 B>7 B>7 B>7 B>7 B>7 B>7 B>7 B>7 B>7 B>7 B>7 B>7 B>7 B>7 B>7 B>7 B>7 B>7 B>7 B>7 B>7 B>7 B>7 B>7 B>7 B>7 B>7 B>7 B>7 B>7 B>7 B>7 B>7 B>7 B>7 B>7 B>7 B>7 B>7 B>7 B>7 B>7 B>7 B>7 B>7 B>7 B>7 B>7 B>7 B>7 B>7 B>7 B>7 B>7 B>7 B>7 B>7 B>7 B>7 B>7 B>7 B>7 B>7 B>7 B>7 B>7 B>7 B>7 B>7 B>7 B>7 B>7 B>7 B>7 B>7 B>7 B>7 B>7 B>7 B>7 B>7 B>7 B>7 B>7 B>7 B>7 B>7 B>7 B>7 B>7 B>7 B>7 B>7 B>7 B>7 B>7 B>7 B>7 B>7 B>7 B>7 B>7 B>7 B>7 B>7 B>7 B>7 B>7 B>7 B>7 B>7 B>7 B>7 B>7 B>7 B>7 B>7 B>7 B>7 B>7 B>7 B>7 B>7 B>7 B>7 B>7 B>7 B>7 B>7 B>7 B>7 B>7 B>7 B>7 B>7 B>7 B>7 B>7 B>7 B>7 B>7 B>7 B>7 B>7 B>7 B>7 B>7 B>7 B>7 B>7 B>7 B>7 B>7 B>7 B>7 B>7 B>7 B>7 B>7 B>7 B>7 B>7 B>7 B>7 B>7 B>7 B>7 B>7 B>7 >7 >7 >C7 >C7 >C7 >C7 >C7 >C7 >C7 >C7 >C7 >C7 >C7 >C7 >C7 >C7 >C7 >C7 >C7 >C7 >C7 >C7 >C7 >C7 >C7 >C7 >C7 >C7 >C7 >C7 >C7 >C7 >C7 >C7 >C7 >C7 >C7 >C7 >C7 >C7 >C7 >C7 >C7 >C7 >C7 >C7 >C7 >C7 >C7 >C7 >C7 >C7 >C7 >C7 >C7 >C7 >C7 >C7 >C7 >C7 >C7 >C7 >C7 >C7 >C7 >C7 >C7 >C7 >C7 >C7 >C7 >C7 >C7 >C7 >C7 >C7 >C7 >C7 >C7 >C7 >C7 >C7 >C7 >C7 >C7 >C7 >C7 >C7 >C7 >C7 >C7 >C7 >C7 >C7 >C7 >C7 >C7 >C7 >C7 >C7 >C7 >C7 >C7 >C7 >C7 >C7 >C7 >C7 >C7 >C7 >C7 >C7 >C7 >C7 >C7 >C7 >C7 >C7 >C7 >C7 >C7 >C7 >C7 >C7 >C7 >C7 >C7 >C7 >C7 >C7 >C7 >C7 >C7 >C7 >C7 >C7 >C7 >C7 >C7 >C7 >C7 >C7 >C7 >C7 >C7 >C7 >C7 >C7 >C7 >C7 >C7 >C7 >C7 >C7 >C7 >C7 >C7 >C7 >C7 >C7 >C7 >C7 >C7 >C7 >C7 >C7 >C7 >C7 >C7 >C7 >C7 >C7 >C7 >C7 >C7 >C7 >C7 C7 C7 C7 C7 C7 C7 C7 C7 C7 C7 C7 C7 C7 C7 C7 C7 C7 C7 C7 C7 C7 C7 C>7 C>7 C>7 C>7 C>7 C>7 C>7 C>7 C>7 C>7 C>7 C>7 C>7 C>7 C>7 C>7 C>7 C>7 C>7 C>7 C>7 C>7 C>7 C>7 C>7 C>7 C>7 C>7 C>7 C>7 C>7 C>7 C>7 C>7 C>7 C>7 C>7 C>7 C>7 C>7 C>7 C>7 C>7 C>7 C>7 C>7 C>7 C>7 C>7 C>7 C>7 C>7 C>7 C>7 C>7 C>7 C>7 C>7 C>7 C>7 C>7 C>7 C>7 >7 >7 >7 >7 >7 >7 >7 >7 >7 >7 >7 >7 >7 >7 >7 >7 >7 >7 >7 >7 >7 >7 >7 >7 >7 >7 >7 >7 >7 >7 >7 >7 >7 >7 >7 >7 >7 >7 >7 >7 >7 >7 >7 >7 >7 >7 >7 >7 >7 >7 >7 >7 >7 >7 >7 >7 >7 >7 >7 >7 >7 >7 >7 >7 >7 >7 >7 >7 >7 >7 >7 >7 >7 >7 >7 >7 >7 >7 >7 >7 >7 >7 >7 >7 >7 >7 >7 >7 >7 >7 >7 >7 >7 >7 >7 >7 >7 >7 >7 >7 >7 >7 >7 >7 >7 >7 >7 >7 >7 >7 >7 >7 >7 >7 >7 >7 >7 >7 >7 >7 >7 >7 >7 >7 >7 7 7 7 7 7 7 7 7 7 7 7 7 7 7 7 7 7 7 7 7 7 7 7 7 7C>; 7C>; 7C>; 7C>; 7C>; 7C>; 7C>; 7C>; 7C>; 7C>; 7C>; 7C>; 7C>; 7C>; 7C>; 7C>; 7C>; 7C>; 7C>; 7C>; 7C>; 7C>; 7C>; 7C>; 7C>; 7C>; 7C>; 7C>; 7C>; 7C>; 7C>; 7C>; 7C>; 7C>; 7C>; 7C>; 7C>; 7C>; 7C>; 7C>; 7C>; 7C>; 7C>; 7C>; 7C>; 7C>; 7C>; 7C>; 7C>; 7C>; 7C>; 7C>; 7C>; 7C>; 7C>; 7C>; 7C>; 7C>; 7C>; 7C>; 7C>; 7C>; 7C>; 7C>; 7C>; 7C>; 7C>; 7C>; 7C>; 7C>; 7C>; 7C>; 7C>; 7C>; 7C>; 7C>; 7C>; 7C>; 7C>; 7C>; 7C>; 7C>; 7C>; 7C>; 7C>; 7C>; 7C>; 7C>; 7C>; 7C>; 7C>; 7C>; 7C>; 7C>; 7C>; 7C>; 7C>; 7C>; 7C>; 7C>; 7C>; 7C>; 7C>; 7C>; 7C>; 7C>; 7C>; 7C>; 7C>; 7C>; 7C>; 7C>; 7C>; 7C>; 7C>; 7C>; 7C>; 7C>; 7C>; 7C>; 7C>; 7C>; 7C>; 7C>; 7C>; 7C>; 7C>; 7C>; 7C>; 7C>; 7C>; 7C>; 7C>; 7C>; 7C>; 7C>; 7C>; 7C>; 7C>; 7C>; 7C>; 7C>; 7C>; 7C>; 7C>; 7C>; 7C>; 7C>; 7C>; 7C>; 7C>; 7C>; 7C>; 7C>; 7C>; 7C>; 7C>; 7C>; 7C>; 7C>; 7C>; 7C>; 7C>; 7C>; 7C>; 7C>; 7C>; 7C>; 7C>; 7C>; 7C>; 7C>; 7C>; 7C>; 7C>; 7C>; 7C>; 7C>; 7C>; 7C>; 7C>; 7C>; 7C>; 7C>; 7C>; 7C>; 7C>; 7C>; 7C>; 7C>; 7C>; 7C>; 7C>; 7C>; 7C>; 7C>; 7C>; 7C>; 7C>; 7C>; 7C>; 7C>; 7C>; 7C>; 7C>; 7C>; 7C>; 7C>; 7C>; 7C>; 7C>; 7C>; 7C>; 7C>; 7C>; 7C>; 7C>; 7C>; 7C>; 7C>; 7C>; 7C>; 7C>; 7C>; 7C>; 7C>; 7C>; 7C>; 7C>; 7C>; 7C>; 7C>; 7C>; 7C>; 7C>; 7C>; 7C>; 7C>; 7C>; 7C>; 7C>; 7C>; 7C>; 7C>; 7C>; 7C>; 7C>; 7C>; 7C>; 7C>; 7C>; 7C>; 7C>; 7C>; 7C>; 7C>; 7C>; 7C>; 7C>; 7C>; 7C>; 7C>; 7C>; 7C>; 7C>; 7C>; 7C>; 7C>; 7C>; 7C>; 7C>; 7C>; 7C>; 7C>; 7C>; 7C>; 7C>; 7C>; 7C>; 7C>; 7C>; 7C>; 7C>; 7C>; 7C>; 7C>; 7C>; 7C>; 7C>; 7C>; 7C>; 7C>; 7C>; 7C>; 7C>; 7C>; 7C>; 7C>; 7C>; 7C>; 7C>; 7C>; 7C>; 7C>; 7C>; 7C>; 7C>; 7C>; 7C>; 7C>; 7C>; 7C>; 7C>; 7C>; 7C>; 7C>; 7C>; 7C>; 7C>; 7C>; 7C>; 7C>; 7C>; 7C>; 7C>; 7C>; 7C>; 7C>; 7C>; 7C>; 7C>; 7C>; 7C>; 7C>; 7C>; 7C>; 7C>; 7C>; 7C>; 7C>; 7C>; 7C>; 7C>; 7C>; 7C>; 7C>; 7C>; 7C>; 7C>; 7C>; 7C>; 7C>; 7C>; 7C>; 7C>; 7C>; 7C>; 7C>; 7C>; 7C>; 7C>; 7C>; 7C>; 7C>; 7C>; 7C>; 7C>; 7C>; 7C>; 7C>; 7C>; 7C>; 7C>; 7C>; 7C>; 7C>; 7C>; 7C>; 7C>; 7C>; 7C>; 7C>; 7C>; 7C>; 7C>; 7C>; 7C>; 7C>; 7C>; 7C>; 7C>; 7C>; 7C>; 7C>; 7C>; 7C>; 7C>; 7C>; 7C>; 7C>; 7C>; 7C>; 7C>; 7C>; 7C>; 7C>; 7C>; 7C>; 7C>; 7C>; 7C>; 7C>; 7C>; 7C>; 7C>; 7C>; 7C>; 7C>; 7C>; 7C>; 7C>; 7C>; 7C>; 7C>; 7C>; 7C>; 7C>; 7C>; 7C>; 7C>; 7C>; 7C>; 7C>; 7C>; 7C>; 7C>; 7C>; 7C>; 7C>; 7C>; 7C>; 7C>; 7C>; 7C>; 7C>; 7C>; 7C>; 7C>; 7C>; 7C>; 7C>; 7C>; 7C>; 7C>; 7C>; 7C>; 7C>; 7C>; 7C>; 7C>; 7C>; 7C>; 7C>; 7C>; 7C>; 7C>; 7C>; 7C>; 7C>; 7C>; 7C>; 7C>; 7C>; 7C>; 7C>; 7C>; 7C>; 7C>; 7C>; 7C>; 7C>; 7C>; 7C>; 7C>; 7C>; 7C>; 7C>; 7C>; 7C>; 7C>; 7C>; 7C>; 7C>; 7C>; 7C>; 7C>; 7C>; 7C>; 7C>; 7C>; 7C>; 7C>; 7C>; 7C>; 7C>; 7C>; 7C>; 7C>; 7C>; 7C>; 7C>; 7C>; 7C>; 7C>; 7C>; 7C>; 7C>; 7C>; 7C>; 7C>; 7C>; 7C>; 7C>; 7C>; 7C>; 7C>; 7C>; 7C>; 7C>; 7C>; 7C>; 7C>; 7C>; 7C>; 7C>; 7C>; 7C>; 7C>; 7C>; 7C>; 7C>; 7C>; 7C>; 7C>; 7C>; 7C>; 7C>; 7C>; 7C>; 7C>; 7C>; 7C>; 7C>; 7C>; 7C>; 7C>; 7C>; 7C>; 7C>; 7C>; 7C>; 7C>; 7C>; 7C>; 7C>; 7C>; 7C>; 7C>; 7C>; 7C>; 7C>; 7C>; 7C>; 7C>; 7C>; 7C>; 7C>; 7C>; 7C>; 7C>; 7C>; 7C>; 7C>; 7C>; 7C>; 7C>; 7C>; 7C>; 7C>; 7C>; 7C>; 7C>; 7C>; 7C>; 7C>; 7C>; 7C>; 7C>; 7C>; 7C>; 7C>; 7C>; 7C>; 7C>; 7C>; 7C>; 7C>; 7C>; 7C>; 7C>; 7C>; 7C>; 7C>; 7C>; 7C>; 7C>; 7C>; 7C>; 7C>; 7C>; 7C>; 7C>; 7C>; 7C>; 7C>; 7C>; 7C>; 7C>; 7C>; 7C>; 7C>; 7C>; 7C>; 7C>; 7C>; 7C>; 7C>; 7C>; 7C>; 7C>; 7C>; 7C>; 7C>; 7C>; 7C>; 7C>; 7C>; 7C>; 7C>; 7C>; 7C>; 7C>; 7C>; 7C>; 7C>; 7C>; 7C>; 7C>; 7C>; 7C>; 7C>; 7C>; 7C>; 7C>; 7C>; 7C>; 7C>; 7C>; 7C>; 7C>; 7C>; 7C>; 7C>; 7C>; 7C>; 7C>; 7C>; 7C>; 7C>; 7C>; 7C>; 7C>; 7C>; 7C>; 7C>; 7C>; 7C>; 7C>; 7C>; 7C>; 7C>; 7C>; 7C>; 7C>; 7C>; 7C>; 7C>; 7C>; 7C>; 7C>; 7C>; 7C>; 7C>; 7C>; 7C>; 7C>; 7C>; 7C>; 7C>; 7C>; 7C>; 7C>; 7C>; 7C>; 7C>; 7C>; 7C>; 7C>; 7C>; 7C>; 7C>; 7C>; 7C>; 7C>; 7C>; 7C>; 7C>; 7C>; 7C>; 7C>; 7C>; 7C>; 7C>; 7C>; 7C>; 7C>; 7C>; 7C>; 7C>; 7C>; 7C>; 7C>; 7C>; 7C>; 7C>; 7C>; 7C>; 7C>; 7C>; 7C>; 7C>; 7C>; 7C>; 7C>; 7C>; 7C>; 7C>; 7C>; 7C>; 7C>; 7C>; 7C>; 7C>; 7C>; 7C>; 7C>; 7C>; 7C>; 7C>; 7C>; 7C>; 7C>; 7C>; 7C>; 7C>; 7C>; 7C>; 7C>; 7C>; 7C>; 7C>; 7C>; 7C>; 7C>; 7C>; 7C>; 7C>; 7C>; 7C>; 7C>; 7C>; 7C>; 7C>; 7C>; 7C>; 7C>; 7C>; 7C>; 7C>; 7C>; 7C>; 7C>; 7C>; 7C>; 7C>; 7C>; 7C>; 7C>; 7C>; 7C>; 7C>; 7C>; 7C>; 7C>; 7C>; 7C>; 7C>; 7C>; 7C>; 7C>; 7C>; 7C>; 7C>; 7C>; 7C>; 7C>; 7C>; 7C>; 7C>; 7C>; 7C>; 7C>; 7C>; 7C>; 7C>; 7C>; 7C>; 7C>; 7C>; 7C>; 7C>; 7C>; 7C>; 7C>; 7C>; 7C>; 7C>; 7C>; 7C>; 7C>; 7C>; 7C>; 7C>; 7C>; 7C>; 7C>; 7C>; 7C>; 7C>; 7C>; 7C>; 7C>; 7C>; 7C>; 7C>; 7C>; 7C>; 7C>; 7C>; 7C>; 7C>; 7C>; 7C>; 7C>; 7C>; 7C>; 7C>; 7C>; 7C>; 7C>; 7C>; 7C>; 7C>; 7C>; 7C>; 7C>; 7C>; 7C>; 7C>; 7C>; 7C>; 7C>; 7C>; 7C>; 7C>; 7C>; 7C>; 7C>; 7C>; 7C>; 7C>; 7C>; 7C>; 7C>; 7C>; 7C>; 7C>; 7C>; 7C>; 7C>; 7C>; 7C>; 7C>; 7C>; 7C>; 7C>; 7C>; 7C>; 7C>; 7C>; 7C>; 7C>; 7C>; 7C>; 7C>; 7C>; 7C>; 7C>; 7C>; 7C>; 7C>; 7C>; 7C>; 7C>; 7C>; 7C>; 7C>; 7C>; 7C>; 7C>; 7C>; 7C>; 7C>; 7C>; 7C>; 7C>; 7C>; 7C>; 7C>; 7C>; 7C>; 7C>; 7C>; 7C>; 7C>; 7C>; 7C>; 7C>; 7C>; 7C>; 7C>; 7C>; 7C>; 7C>; 7C>; 7C>; 7C>; 7C>; 7C>; 7C>; 7C>; 7C>; 7C>; 7C>; 7C>; 7C>; 7C>; 7C>; 7C>; 7C>; 7C>; 7C>; 7C>; 7C>; 7C>; 7C>; 7C>; 7C>; 7C>; 7C>; 7C>; 7C>; 7C>; 7C>; 7C>; 7C>; 7C>; 7C>; 7C>; 7C>; 7C>; 7C>; 7C>; 7C>; 7C>; 7C>; 7C>; 7C>; 7C>; 7C>; 7C>; 7C>; 7C>; 7C>; 7C>; 7C>; 7C>; 7C>; 7C>; 7C>; 7C>; 7C>; 7C>; 7C>; 7C>; 7C>; 7C>; 7C>; 7C>; 7C>; 7C>; 7C>; 7C>; 7C>; 7C>; 7C>; 7C>; 7C>; 7C>; 7C>; 7C>; 7C>; 7C>; 7C>; 7C>; 7C>; 7C>; 7C>; 7C>; 7C>; 7C>; 7C>; 7C>; 7C>; 7C>; 7C>; 7C>; 7C>; 7C>; 7C>; 7C>; 7C>; 7C>; 7C>; 7C>; 7C>; 7C>; 7C>; 7C>; 7C>; 7C>; 7C>; 7C>; 7C>; 7C>; 7C>; 7C>; 7C>; 7C>; 7C>; 7C>; 7C>; 7C>; 7C>; 7C>; 7C>; 7C>; 7C>; 7C>; 7C>; 7C>; 7C>; 7C>; 7C>; 7C>; 7C>; 7C>; 7C>; 7C>; 7C>; 7C>; 7C>; 7C>; 7C>; 7C>; 7C>; 7C>; 7C>; 7C>; 7C>; 7C>; 7C>; 7C>; 7C>; 7C>; 7C>; 7C>; 7C>; 7C>; 7C>; 7C>; 7C>; 7C>; 7C>; 7C>; 7C>; 7C>; 7C>; 7C>; 7C>; 7C>; 7C>; 7C>; 7C>; 7C>; 7C>; 7C>; 7C>; 7C>; 7C>; 7C>; 7C>; 7C>; 7C>; 7C>; 7C>; 7C>; 7C>; 7C>; 7C>; 7C>; 7C>; 7C>; 7C>; 7C>; 7C>; 7C>; 7C>; 7C>; 7C>; 7C>; 7C>; 7C>; 7C>; 7C>; 7C>; 7C>; 7C>; 7C>; 7C>; 7C>; 7C>; 7C>; 7C>; 7C>; 7C>; 7C>; 7C>; 7C>; 7C>; 7C>; 7C>; 7C>; 7C>; 7C>; 7C>; 7C>; 7C>; 7C>; 7C>; 7C>; 7C>; 7C>; 7C>; 7C>; 7C>; 7C>; 7C>; 7C>; 7C>; 7C>; 7C>; 7C>; 7C>; 7C>; 7C>; 7C>; 7C>; 7C>; 7C>; 7C>; 7C>; 7C>; 7C>; 7C>; 7C>; 7C>; 7C>; 7C>; 7C>; 7C>; 7C>; 7C>; 7C>; 7C>; 7C>; 7C>; 7C>; 7C>; 7C>; 7C>; 7C>; 7C>; 7C>; 7C>; 7C>; 7C>; 7C>; 7C>; 7C>; 7C>; 7C>; 7C>; 7C>; 7C>; 7C>; 7C>; 7C>; 7C>; 7C>; 7C>; 7C>; 7C>; 7C>; 7C>; 7C>; 7C>; 7C>; 7C>; 7C>; 7C>; 7C>; 7C>; 7C>; 7C>; 7C>; 7C>; 7C>; 7C>; 7C>; 7C>; 7C>; 7C>; 7C>; 7C>; 7C>; 7C>; 7C>; 7C>; 7C>; 7C>; 7C>; 7C>; 7C>; 7C>; 7C>; 7C>; 7C>; 7C>; 7C>; 7C>; 7C>; 7C>; 7C>; 7C>; 7C>; 7C>; 7C>; 7C>; 7C>; 7C>; 7C>; 7C>; 7C>; 7C>; 7C>; 7C>; 7C>; 7C>; 7C>; 7C>; 7C>; 7C>; 7C>; 7C>; 7C>; 7C>; 7C>; 7C>; 7C>; 7C>; 7C>; 7C>; 7C>; 7C>; 7C>; 7C>; 7C>; 7C>; 7C>; 7C>; 7C>; 7C>; 7C>; 7C>; 7C>; 7C>; 7C>; 7C>; 7C>; 7C>; 7C>; 7C>; 7C>; 7C>; 7C>; 7C>; 7C>; 7C>; 7C>; 7C>; 7C>; 7C>; 7C>; 7C>; 7C>; 7C>; 7C>; 7C>; 7C>; 7C>; 7C>; 7C>; 7C>; 7C>; 7C>; 7C>; 7C>; 7C>; 7C>; 7C>; 7C>; 7C>; 7C>; 7C>; 7C>; 7C>; 7C>; 7C>; 7C>; 7C>; 7C>; 7C>; 7C>; 7C>; 7C>; 7C>; 7C>; 7C>; 7C>; 7C>; 7C>; 7C>; 7C>; 7C>; 7C>; 7C>; 7C>; 7C>; 7C>; 7C>; 7C>; 7C>; 7C>; 7C>; 7C>; 7C>; 7C>; 7C>; 7C>; 7C>; 7C>; 7C>; 7C>; 7C>; 7C>; 7C>; 7C>; 7C>; 7C>; 7C>; 7C>; 7C>; 7C>; 7C>; 7C>; 7C>; 7C>; 7C>; 7C>; 7C>; 7C>; 7C>; 7C>; 7C>; 7C>; 7C>; 7C>; 7C>; 7C>; 7C>; 7C>; 7C>; 7C>; 7C>; 7C>; 7C>; 7C>; 7C>; 7C>; 7C>; 7C>; 7C>; 7C>; 7C>; 7C>; 7C>; 7C>; 7C>; 7C>; 7C>; 7C>; 7C>; 7C>; 7C>; 7C>; 7C>; 7C>; 7C>; 7C>; 7C>; 7C>; 7C>; 7C>; 7C>; 7C>; 7C>; 7C>; 7C>; 7C>; 7C>; 7C>; 7C>; 7C>; 7C>; 7C>; 7C>; 7C>; 7C>; 7C>; 7C>; 7C>; 7C>; 7C>; 7C>; 7C>; 7C>; 7C>; 7C>; 7C>; 7C>; 7C>; 7C>; 7C>; 7C>; 7C>; 7C>; 7C>; 7C>; 7C>; 7C>; 7C>; 7C>; 7C>; 7C>; 7C>; 7C>; 7C>; 7C>; 7C>; 7C>; 7C>; 7C>; 7C>; 7C>; 7C>; 7C>; 7C>; 7C>; 7C>; 7C>; 7C>; 7C>; 7C>; 7C>; 7C>; 7C>; 7C>; 7C>; 7C>; 7C>; 7C>; 7C>; 7C>; 7C>; 7C>; 7C>; 7C>; 7C>; 7C>; 7C>; 7C>; 7C>; 7C>; 7C>; 7C>; 7C>; 7C>; 7C>; 7C>; 7C>; 7C>; 7C>; 7C>; 7C>; 7C>; 7C>; 7C>; 7C>; 7C>; 7C>; 7C>; 7C>; 7C>; 7C>; 7C>; 7C>; 7C>; 7C>; 7C>; 7C>; 7C>; 7C>; 7C>; 7C>; 7C>; 7C>; 7C>; 7C>; 7C>; 7C>; 7C>; 7C>; 7C>; 7C>; 7C>; 7C>; 7C>; 7C>; 7C>; 7C>; 7C>; 7C>; 7C>; 7C>; 7C>; 7C>; 7C>; 7C>; 7C>; 7C>; 7C>; 7C>; 7C>; 7C>; 7C>; 7C>; 7C>; 7C>; 7C>; 7C>; 7C>; 7C>; 7C>; 7C>; 7C>; 7C>; 7C>; 7C>; 7C>; 7C>; 7C>; 7C>; 7C>; 7C>; 7C>; 7C>; 7C>; 7C>; 7C>; 7C>; 7C>; 7C>; 7C>; 7C>; 7C>; 7C>; 7C>; 7C>; 7C>; 7C>; 7C>; 7C>; 7C>; 7C>; 7C>; 7C>; 7C>; 7C>; 7C>; 7C>; 7C>; 7C>; 7C>; 7C>; 7C>; 7C>; 7C>; 7C>; 7C>; 7C>; 7C>; 7C>; 7C>; 7C>; 7C>; 7C>; 7C>; 7C>; 7C>; 7C>; 7C>; 7C>; 7C>; 7C>; 7C>; 7C>; 7C>; 7C>; 7C>; 7C>; 7C>; 7C>; 7C>; 7C>; 7C>; 7C>; 7C>; 7C>; 7C>; 7C>; 7C>; 7C>; 7C>; 7C>; 7C>; 7C>; 7C>; 7C>; 7C>; 7C>; 7C>; 7C>; 7C>; 7C>; 7C>; 7C>; 7C>; 7C>; 7C>; 7C>; 7C>; 7C>; 7C>; 7C>; 7C>; 7C>; 7C>; 7C>; 7C>; 7C>; 7C>; 7C>; 7C>; 7C>; 7C>; 7C>; 7C>; 7C>; 7C>; 7C>; 7C>; 7C>; 7C>; 7C>; 7C>; 7C>; 7C>; 7C>; 7C>; 7C>; 7C>; 7C>; 7C>; 7C>; 7C>; 7C>; 7C>; 7C>; 7C>; 7C>; 7C>; 7C>; 7C>; 7C>; 7C>; 7C>; 7C>; 7C>; 7C>; 7C>; 7C>; 7C>; 7C>; 7C>; 7C>; 7C>; 7C>; 7C>; 7C>; 7C>; 7C>; 7C>; 7C>; 7C>; 7C>; 7C>; 7C>; 7C>; 7C>; 7C>; 7C>; 7C>; 7C>; 7C>; 7C>; 7C>; 7C>; 7C>; 7C>; 7C>; 7C>; 7C>; 7C>; 7C>; 7C>; 7C>; 7C>; 7C>; 7C>; 7C>; 7C>; 7C>; 7C>; 7C>; 7C>; 7C>; 7C>; 7C>; 7C>; 7C>; 7C>; 7C>; 7C>; 7C>; 7C>; 7C>; 7C>; 7C>; 7C>; 7C>; 7C>; 7C>; 7C>; 7C>; 7C>; 7C>; 7C>; 7C>; 7C>; 7C>; 7C>; 7C>; 7C>; 7C>; 7C>; 7C>; 7C>; 7C>; 7C>; 7C>; 7C>; 7C>; 7C>; 7C>; 7C>; 7C>; 7C>; 7C>; 7C>; 7C>; 7C>; 7C>; 7C>; 7C>; 7C>; 7C>; 7C>; 7C>; 7C>; 7C>; 7C>; 7C>; 7C>; 7C>; 7C>; 7C>; 7C>; 7C>; 7C>; 7C>; 7C>; 7C>; 7C>; 7C>; 7C>; 7C>; 7C>; 7C>; 7C>; 7C>; 7C>; 7C>; 7C>; 7C>; 7C>; 7C>; 7C>; 7C>; 7C>; 7C>; 7C>; 7C>; 7C>; 7C>; 7C>; 7C>; 7C>; 7C>; 7C>; 7C>; 7C>; 7C>; 7C>; 7C>; 7C>; 7C>; 7C>; 7C>; 7C>; 7C>; 7C>; 7C>; 7C>; 7C>; 7C>; 7C>; 7C>; 7C>; 7C>; 7C>; 7C>; 7C>; 7C>; 7C>; 7C>; 7C>; 7C>; 7C>; 7C>; 7C>; 7C>; 7C>; 7C>; 7C>; 7C>; 7C>; 7C>; 7C>; 7C>; 7C>; 7C>; 7C>; 7C>; 7C>; 7C>; 7C>; 7C>; 7C>; 7C>; 7C>; 7C>; 7C>; 7C>; 7C>; 7C>; 7C>; 7C>; 7C>; 7C>; 7C>; 7C>; 7C>; 7C>; 7C>; 7C>; 7C>; 7C>; 7C>; 7C>; 7C>; 7C>; 7C>; 7C>; 7C>; 7C>; 7C>; 7C>; 7C>; 7C>; 7C>; 7C>; 7C>; 7C>; 7C>; 7C>; 7C>; 7C>; 7C>; 7C>; 7C>; 7C>; 7C>; 7C>; 7C>; 7C>; 7C>; 7C>; 7C>; 7C>; 7C>; 7C>; 7C>; 7C>; 7C>; 7C>; 7C>; 7C>; 7C>; 7C>; 7C>; 7C>; 7C>; 7C>; 7C>; 7C>; 7C>; 7C>; 7C>; 7C>; 7C>; 7C>; 7C>; 7C>; 7C>; 7C>; 7C>; 7C>; 7C>; 7C>; 7C>; 7C>; 7C>; 7C>; 7C>; 7C>; 7C>; 7C>; 7C>; 7C>; 7C>; 7C>; 7C>; 7C>; 7C>; 7C>; 7C>; 7C>; 7C>; 7C>; 7C>; 7C>; 7C>; 7C>; 7C>; 7C>; 7C>; 7C>; 7C>; 7C>; 7C>; 7C>; 7C>; 7C>; 7C>; 7C>; 7C>; 7C>; 7C>; 7C>; 7C>; 7C>; 7C>; 7C>; 7C>; 7C>; 7C>; 7C>; 7C>; 7C>; 7C>; 7C>; 7C>; 7C>; 7C>; 7C>; 7C>; 7C>; 7C>; 7C>; 7C>; 7C>; 7C>; 7C>; 7C>; 7C>; 7C>; 7C>; 7C>; 7C>; 7C>; 7C>; 7C>; 7C>; 7C>; 7C>; 7C>; 7C>; 7C>; 7C>; 7C>; 7C>; 7C>; 7C>; 7C>; 7C>; 7C>; 7C>; 7C>; 7C>; 7C>; 7C>; 7C>; 7C>; 7C>; 7C>; 7C>; 7C>; 7C>; 7C>; 7C>; 7C>; 7C>; 7C>; 7C>; 7C>; 7C>; 7C>; 7C>; 7C>; 7C>; 7C>; 7C>; 7C>; 7C>; 7C>; 7C>; 7C>; 7C>; 7C>; 7C>; 7C>; 7C>; 7C>; 7C>; 7C>; 7C>; 7C>; 7C>; 7C>; 7C>; 7C>; 7C>; 7C>; 7C>; 7C>; 7C>; 7C>; 7C>; 7C>; 7C>; 7C>; 7C>; 7C>; 7C>; 7C>; 7C>; 7C>; 7C>; 7C>; 7C>; 7C>; 7C>; 7C>; 7C>; 7C>; 7C>; 7C>; 7C>; 7C>; 7C>; 7C>; 7C>; 7C>; 7C>; 7C>; 7C>; 7C>; 7C>; 7C>; 7C>; 7C>; 7C>; 7C>; 7C>; 7C>; 7C>; 7C>; 7C>; 7C>; 7C>; 7C>; 7C>; 7C>; 7C>; 7C>; 7C>; 7C>; 7C>; 7C>; 7C>; 7C>; 7C>; 7C>; 7C>; 7C>; 7C>; 7C>; 7C>; 7C>; 7C>; 7C>; 7C>; 7C>; 7C>; 7C>; 7C>; 7C>; 7C>; 7C>; 7C>; 7C>; 7C>; 7C>; 7C>; 7C>; 7C>; 7C>; 7C>; 7C>; 7C>; 7C>; 7C>; 7C>; C>; C>; C>; C>; C>; C>; C>; C>; C>; C>; C>; C>; C>; C>; C>; C>; C>; C>; C>; C>; C>; C>; C>; C>; C>; C>; C>; C>; C>; C>; C>; C>; C>; C>; C>; C>; C>; C>; C>; C>; C>; C>; C>; C>; C>; C>; C>; C>; C>; C>; C>; C>; C>; C>; C>; C>; C>; C>; C>; C>; C>; C>; C>; C>; C>; C>; C>; C>; C>; C>; C>; C>; C>; C>; C>; C>; C>; C>; C>; C>; C>; C>; C>; C>; C>;                                                                                                                                                                                                                                                                                                                                                                                                                                                                                                                                                                                                                                                                                                                                                                                                                                                                                                                                                                                                                                                                                                                                                                                                                                                                                                                                                                                                                                                                                                                                                                                                                                     J J J J J J J J J J J J J J J J J J J J J J J J J J J J J J J J J J J J J J J J J J J J J J J J J J J J J J J J J J J J J J J J J J J J J J J J J J J J J J J J J J J J J J J J J J J J J J J J J J J J J J J J J J J J J J J J J J J J J J J J J J J J J J J J J J J J J J J J J J J J J J J J J J J J J J J J J                   K K K K K K K K K K K K K K K K K K K K K K K K K K K K K K K K K K K K K K K K K K K K K K K K K K K K K K K K K K K K K K K K K K K K K K K K K K K K K K K K K K K K K K K K K K K K K K K K K K K K K K K K K K K K K K K K K K K K K K K K K K K K K K K K K K K K K K K K K K K K K K K K K K K K K K K K K K K K K K K K K K K K K K K K     J J J J J J J J J J J J J J J J J J J J J J J J J J J J J J J J J J J J J J J J J J J J J J J J J J J J J J J J J J J J J J J J J J J J J J J J J J J J J J J J J J J J J J J J J J J J J J J J J J J J J J J J J J J J J J J J J J J J J J J J J J J J J J J J J J J J J J J J J J J J J J J J J J J J J J J J J J J J J J J J           H H H H H H H H H H H H H H H H H H H H H H H H H H H H H H H H H H H H H H H H H H H H H H H H H H H H H H H H H H H H H H H H H H H H H H H H H H H H H H H H H H H H H H H H H H H H H H H H H H H H H H H H H H H H H H H H H H H H H H H H H H H H H H H H H H H H H H H H H H H H H H H H H H H H H H H H H                    F F F F F F F F F F F F F F F F F F F F F F F F F F F F F F F F F F F F F F F F F F F F F F F F F F F F F F F F F F F F F F F F F F F F F F F F F F F F F F F F F F F F F F F F F F F F F F F F F F F F F F F F F F F F F F F F F F F F F F F F F F F F F F F F F F F F F F F F F F F F F F F F F F F F F F F F F F F F F F F F F F F F F F F F     E E E E E E E E E E E E E E E E E E E E E E E E E E E E E E E E E E E E E E E E E E E E E E E E E E E E E E E E E E E E E E E E E E E E E E E E E E E E E E E E E E E E E E E E E E E E E E E E E E E E E E E E E E E E E E E E E E E E E E E E E E E E E E E E E E E E E E E E E E E E E E E E E E E E E E E E E E E E E E E E           C C C C C C C C C C C C C C C C C C C C C C C C C C C C C C C C C C C C C C C C C C C C C C C C C C C C C C C C C C C C C C C C C C C C C C C C C C C C C C C C C C C C C C C C C C C C C C C C C C C C C C C C C C C C C C C C C C C C C C C C C C C C C C C C C C C C C C C C C C C C C C C C C C C C C C C C C                   B B B B B B B B B B B B B B B B B B B B B B B B B B B B B B B B B B B B B B B B B B B B B B B B B B B B B B B B B B B B B B B B B B B B B B B B B B B B B B B B B B B B B B B B B B B B B B B B B B B B B B B B B B B B B B B B B B B B B B B B B B B B B B B B B B B B B B B B B B B B B B B B B B B B B B B B B B B B B B B B B B B B B B B B     E E E E E E E E E E E E E E E E E E E E E E E E E E E E E E E E E E E E E E E E E E E E E E E E E E E E E E E E E E E E E E E E E E E E E E E E E E E E E E E E E E E E E E E E E E E E E E E E E E E E E E E E E E E E E E E E E E E E E E E E E E E E E E E E E E E E E E E E E E E E E E E E E E E E E E E E E E E E E E E E           > > > > > > > > > > > > > > > > > > > > > > > > > > > > > > > > > > > > > > > > > > > > > > > > > > > > > > > > > > > > > > > > > > > > > > > > > > > > > > > > > > > > > > > > > > > > > > > > > > > > > > > > > > > > > > > > > > > > > > > > > > > > > > > > > > > > > > > > > > > > > > > > > > > > > > > > >                    < < < < < < < < < < < < < < < < < < < < < < < < < < < < < < < < < < < < < < < < < < < < < < < < < < < < < < < < < < < < < < < < < < < < < < < < < < < < < < < < < < < < < < < < < < < < < < < < < < < < < < < < < < < < < < < < < < < < < < < < < < < < < < < < < < < < < < < < < < < < < < < < < < < < < < < < < < < < < < < < < < < < < < < <     : : : : : : : : : : : : : : : : : : : : : : : : : : : : : : : : : : : : : : : : : : : : : : : : : : : : : : : : : : : : : : : : : : : : : : : : : : : : : : : : : : : : : : : : : : : : : : : : : : : : : : : : : : : : : : : : : : : : : : : : : : : : : : : : : : : : : : : : : : : : : : : : : : : : : : : : : : : : : : : :           9 9 9 9 9 9 9 9 9 9 9 9 9 9 9 9 9 9 9 9 9 9 9 9 9 9 9 9 9 9 9 9 9 9 9 9 9 9 9 9 9 9 9 9 9 9 9 9 9 9 9 9 9 9 9 9 9 9 9 9 9 9 9 9 9 9 9 9 9 9 9 9 9 9 9 9 9 9 9 9 9 9 9 9 9 9 9 9 9 9 9 9 9 9 9 9 9 9 9 9 9 9 9 9 9 9 9 9 9 9 9 9 9 9 9 9 9 9 9 9 9 9 9 9 9 9 9 9 9 9 9 9 9 9 9 9 9 9 9 9 9 9 9 9 9 9 9 9 9 9 9 9 9                   : : : : : : : : : : : : : : : : : : : : : : : : : : : : : : : : : : : : : : : : : : : : : : : : : : : : : : : : : : : : : : : : : : : : : : : : : : : : : : : : : : : : : : : : : : : : : : : : : : : : : : : : : : : : : : : : : : : : : : : : : : : : : : : : : : : : : : : : : : : : : : : : : : : : : : : : : : : : : : : : : : : : : : : :     > > > > > > > > > > > > > > > > > > > > > > > > > > > > > > > > > > > > > > > > > > > > > > > > > > > > > > > > > > > > > > > > > > > > > > > > > > > > > > > > > > > > > > > > > > > > > > > > > > > > > > > > > > > > > > > > > > > > > > > > > > > > > > > > > > > > > > > > > > > > > > > > > > > > > > > > > > > > > > > >           C C C C C C C C C C C C C C C C C C C C C C C C C C C C C C C C C C C C C C C C C C C C C C C C C C C C C C C C C C C C C C C C C C C C C C C C C C C C C C C C C C C C C C C C C C C C C C C C C C C C C C C C C C C C C C C C C C C C C C C C C C C C C C C C C C C C C C C C C C C C C C C C C C C C C C C C C                    9 9 9 9 9 9 9 9 9 9 9 9 9 9 9 9 9 9 9 9 9 9 9 9 9 9 9 9 9 9 9 9 9 9 9 9 9 9 9 9 9 9 9 9 9 9 9 9 9 9 9 9 9 9 9 9 9 9 9 9 9 9 9 9 9 9 9 9 9 9 9 9 9 9 9 9 9 9 9 9 9 9 9 9 9 9 9 9 9 9 9 9 9 9 9 9 9 9 9 9 9 9 9 9 9 9 9 9 9 9 9 9 9 9 9 9 9 9 9 9 9 9 9 9 9 9 9 9 9 9 9 9 9 9 9 9 9 9 9 9 9 9 9 9 9 9 9 9 9 9 9 9 9 9 9 9 9 9 9 9 9 9 9 9 9 9 9 9     C C C C C C C C C C C C C C C C C C C C C C C C C C C C C C C C C C C C C C C C C C C C C C C C C C C C C C C C C C C C C C C C C C C C C C C C C C C C C C C C C C C C C C C C C C C C C C C C C C C C C C C C C C C C C C C C C C C C C C C C C C C C C C C C C C C C C C C C C C C C C C C C C C C C C C C C C C C C C C C C           B B B B B B B B B B B B B B B B B B B B B B B B B B B B B B B B B B B B B B B B B B B B B B B B B B B B B B B B B B B B B B B B B B B B B B B B B B B B B B B B B B B B B B B B B B B B B B B B B B B B B B B B B B B B B B B B B B B B B B B B B B B B B B B B B B B B B B B B B B B B B B B B B B B B B B B B B                    C C C C C C C C C C C C C C C C C C C C C C C C C C C C C C C C C C C C C C C C C C C C C C C C C C C C C C C C C C C C C C C C C C C C C C C C C C C C C C C C C C C C C C C C C C C C C C C C C C C C C C C C C C C C C C C C C C C C C C C C C C C C C C C C C C C C C C C C C C C C C C C C C C C C C C C C C C C C C C C C C C C C C C C C    F F F F F F F F F F F F F F F F F F F F F F F F F F F F F F F F F F F F F F F F F F F F F F F F F F F F F F F F F F F F F F F F F F F F F F F F F F F F F F F F F F F F F F F F F F F F F F F F F F F F F F F F F F F F F F F F F F F F F F F F F F F F F F F F F F F F F F F F F F F F F F F F F F F F F F F F F F F F F F F F           E E E E E E E E E E E E E E E E E E E E E E E E E E E E E E E E E E E E E E E E E E E E E E E E E E E E E E E E E E E E E E E E E E E E E E E E E E E E E E E E E E E E E E E E E E E E E E E E E E E E E E E E E E E E E E E E E E E E E E E E E E E E E E E E E E E E E E E E E E E E E E E E E E E E E E E E E                    F F F F F F F F F F F F F F F F F F F F F F F F F F F F F F F F F F F F F F F F F F F F F F F F F F F F F F F F F F F F F F F F F F F F F F F F F F F F F F F F F F F F F F F F F F F F F F F F F F F F F F F F F F F F F F F F F F F F F F F F F F F F F F F F F F F F F F F F F F F F F F F F F F F F F F F F F F F F F F F F F F F F F F F F     J J J J J J J J J J J J J J J J J J J J J J J J J J J J J J J J J J J J J J J J J J J J J J J J J J J J J J J J J J J J J J J J J J J J J J J J J J J J J J J J J J J J J J J J J J J J J J J J J J J J J J J J J J J J J J J J J J J J J J J J J J J J J J J J J J J J J J J J J J J J J J J J J J J J J J J J J J J J J J J J           HC HC HC HC HC HC HC HC HC HC HC HC HC HC HC HC HC HC HC HC HC HC HC HC HC HC HC HC HC HC HC HC HC HC HC HC HC HC HC HC HC HC HC HC HC HC HC HC HC HC HC HC HC HC HC HC HC HC HC HC HC HC HC HC HC HC HC HC HC HC HC HC HC HC HC HC HC HC HC HC HC HC HC HC HC HC HC HC HC HC HC HC HC HC HC HC HC HC HC HC HC HC HC HC HC HC HC HC HC HC HC HC HC HC HC HC HC HC HC HC HC HC HC HC HC HC HC HC HC HC HC HC HC HC HC HC HC HC HC HC HC HC HC HC HC HC HC HC HC HC HC HC HC                    FJ FJ FJ FJ FJ FJ FJ FJ FJ FJ FJ FJ FJ FJ FJ FJ FJ FJ FJ FJ FJ FJ FJ FJ FJ FJ FJ FJ FJ FJ FJ FJ FJ FJ FJ FJ FJ FJ FJ FJ FJ FJ FJ FJ FJ FJ FJ FJ FJ FJ FJ FJ FJ FJ FJ FJ FJ FJ FJ FJ FJ FJ FJ FJ FJ FJ FJ FJ FJ FJ FJ FJ FJ FJ FJ FJ FJ FJ FJ FJ FJ FJ FJ FJ FJ FJ FJ FJ FJ FJ FJ FJ FJ FJ FJ FJ FJ FJ FJ FJ FJ FJ FJ FJ FJ FJ FJ FJ FJ FJ FJ FJ FJ FJ FJ FJ FJ FJ FJ FJ FJ FJ FJ FJ FJ FJ FJ FJ FJ FJ FJ FJ FJ FJ FJ FJ FJ FJ FJ FJ FJ FJ FJ FJ FJ FJ FJ FJ FJ FJ FJ FJ FJ FJ FJ FJ FJ FJ FJ FJ FJ FJ FJ FJ FJ FJ FJ FJ J J J EJ EJ EJ EJ EJ EJ EJ EJ EJ EJ EJ EJ EJ EJ EJ EJ EJ EJ EJ EJ EJ EJ EJ EJ EJ EJ EJ EJ EJ EJ EJ EJ EJ EJ EJ EJ EJ EJ EJ EJ EJ EJ EJ EJ EJ EJ EJ EJ EJ EJ EJ EJ EJ EJ EJ EJ EJ EJ EJ EJ EJ EJ EJ EJ EJ EJ EJ EJ EJ EJ EJ EJ EJ EJ EJ EJ EJ EJ EJ EJ EJ EJ EJ EJ EJ EJ EJ EJ EJ EJ EJ EJ EJ EJ EJ EJ EJ EJ EJ EJ EJ EJ EJ EJ EJ EJ EJ EJ EJ EJ EJ EJ EJ EJ EJ EJ EJ EJ EJ EJ EJ EJ EJ EJ EJ EJ EJ EJ EJ EJ EJ EJ EJ EJ EJ EJ EJ EJ EJ EJ EJ EJ EJ EJ EJ EJ EJ EJ EJ EJ EJ EJ EJ EJ EJ EJ EJ EJ EJ EJ J J J J J J J J J J CJ CJ CJ CJ CJ CJ CJ CJ CJ CJ CJ CJ CJ CJ CJ CJ CJ CJ CJ CJ CJ CJ CJ CJ CJ CJ CJ CJ CJ CJ CJ CJ CJ CJ CJ CJ CJ CJ CJ CJ CJ CJ CJ CJ CJ CJ CJ CJ CJ CJ CJ CJ CJ CJ CJ CJ CJ CJ CJ CJ CJ CJ CJ CJ CJ CJ CJ CJ CJ CJ CJ CJ CJ CJ CJ CJ CJ CJ CJ CJ CJ CJ CJ CJ CJ CJ CJ CJ CJ CJ CJ CJ CJ CJ CJ CJ CJ CJ CJ CJ CJ CJ CJ CJ CJ CJ CJ CJ CJ CJ CJ CJ CJ CJ CJ CJ CJ CJ CJ CJ CJ CJ CJ CJ CJ CJ CJ CJ CJ CJ CJ CJ CJ CJ CJ CJ CJ CJ CJ CJ CJ CJ CJ CJ CJ CJ CJ CJ CJ CJ CJ CJ CJ J J J J J J J J J J J J J J J J J J J AJ AJ AJ AJ AJ AJ AJ AJ AJ AJ AJ AJ AJ AJ AJ AJ AJ AJ AJ AJ AJ AJ AJ AJ AJ AJ AJ AJ AJ AJ AJ AJ AJ AJ AJ AJ AJ AJ AJ AJ AJ AJ AJ AJ AJ AJ AJ AJ AJ AJ AJ AJ AJ AJ AJ AJ AJ AJ AJ AJ AJ AJ AJ AJ AJ AJ AJ AJ AJ AJ AJ AJ AJ AJ AJ AJ AJ AJ AJ AJ AJ AJ AJ AJ AJ AJ AJ AJ AJ AJ AJ AJ AJ AJ AJ AJ AJ AJ AJ AJ AJ AJ AJ AJ AJ AJ AJ AJ AJ AJ AJ AJ AJ AJ AJ AJ AJ AJ AJ AJ AJ AJ AJ AJ AJ AJ AJ AJ AJ AJ AJ AJ AJ AJ AJ AJ AJ AJ AJ AJ AJ AJ AJ AJ AJ AJ AJ AJ AJ AJ AJ AJ AJ AJ AJ AJ AJ AJ AJ AJ AJ AJ AJ AJ AJ AJ AJ AJ J    L@ L@ L@ L@ L@ L@ L@ L@ L@ L@ L@ L@ L@ L@ L@ L@ L@ L@ L@ L@ L@ L@ L@ L@ L@ L@ L@ L@ L@ L@ L@ L@ L@ L@ L@ L@ L@ L@ L@ L@ L@ L@ L@ L@ L@ L@ L@ L@ L@ L@ L@ L@ L@ L@ L@ L@ L@ L@ L@ L@ L@ L@ L@ L@ L@ L@ L@ L@ L@ L@ L@ L@ L@ L@ L@ L@ L@ L@ L@ L@ L@ L@ L@ L@ L@ L@ L@ L@ L@ L@ L@ L@ L@ L@ L@ L@ L@ L@ L@ L@ L@ L@ L@ L@ L@ L@ L@ L@ L@ L@ L@ L@ L@ L@ L@ L@ L@ L@ L@ L@ L@ L@ L@ L@ L@ L@ L@ L@ L@ L@ L@ L@ L@ L@ L@ L@ L@ L@ L@ L@ L@ L@ L@ L@ L@ L@ L@ L@ L@ L@ L@ L@ L@ L@ L@ L@ L@ L@ L@ L@           M> M> M> M> M> M> M> M> M> M> M> M> M> M> M> M> M> M> M> M> M> M> M> M> M> M> M> M> M> M> M> M> M> M> M> M> M> M> M> M> M> M> M> M> M> M> M> M> M> M> M> M> M> M> M> M> M> M> M> M> M> M> M> M> M> M> M> M> M> M> M> M> M> M> M> M> M> M> M> M> M> M> M> M> M> M> M> M> M> M> M> M> M> M> M> M> M> M> M> M> M> M> M> M> M> M> M> M> M> M> M> M> M> M> M> M> M> M> M> M> M> M> M> M> M> M> M> M> M> M> M> M> M> M> M> M> M> M> M> M> M> M> M> M> M> M> M> M> M> M> M> M> M>                    =L =L =L =L =L =L =L =L =L =L =L =L =L =L =L =L =L =L =L =L =L =L =L =L =L =L =L =L =L =L =L =L =L =L =L =L =L =L =L =L =L =L =L =L =L =L =L =L =L =L =L =L =L =L =L =L =L =L =L =L =L =L =L =L =L =L =L =L =L =L =L =L =L =L =L =L =L =L =L =L =L =L =L =L =L =L =L =L =L =L =L =L =L =L =L =L =L =L =L =L =L =L =L =L =L =L =L =L =L =L =L =L =L =L =L =L =L =L =L =L =L =L =L =L =L =L =L =L =L =L =L =L =L =L =L =L =L =L =L =L =L =L =L =L =L =L =L =L =L =L =L =L =L =L =L =L =L =L =L =L =L =L =L =L =L =L =L =L L L L @L @L @L @L @L @L @L @L @L @L @L @L @L @L @L @L @L @L @L @L @L @L @L @L @L @L @L @L @L @L @L @L @L @L @L @L @L @L @L @L @L @L @L @L @L @L @L @L @L @L @L @L @L @L @L @L @L @L @L @L @L @L @L @L @L @L @L @L @L @L @L @L @L @L @L @L @L @L @L @L @L @L @L @L @L @L @L @L @L @L @L @L @L @L @L @L @L @L @L @L @L @L @L @L @L @L @L @L @L @L @L @L @L @L @L @L @L @L @L @L @L @L @L @L @L @L @L @L @L @L @L @L @L @L @L @L @L @L @L @L @L @L @L @L @L @L @L @L @L @L @L @L @L @L @L @L @L @L @L @L L L L L L L L L L L L 9L 9L 9L 9L 9L 9L 9L 9L 9L 9L 9L 9L 9L 9L 9L 9L 9L 9L 9L 9L 9L 9L 9L 9L 9L 9L 9L 9L 9L 9L 9L 9L 9L 9L 9L 9L 9L 9L 9L 9L 9L 9L 9L 9L 9L 9L 9L 9L 9L 9L 9L 9L 9L 9L 9L 9L 9L 9L 9L 9L 9L 9L 9L 9L 9L 9L 9L 9L 9L 9L 9L 9L 9L 9L 9L 9L 9L 9L 9L 9L 9L 9L 9L 9L 9L 9L 9L 9L 9L 9L 9L 9L 9L 9L 9L 9L 9L 9L 9L 9L 9L 9L 9L 9L 9L 9L 9L 9L 9L 9L 9L 9L 9L 9L 9L 9L 9L 9L 9L 9L 9L 9L 9L 9L 9L 9L 9L 9L 9L 9L 9L 9L 9L 9L 9L 9L 9L 9L 9L 9L 9L 9L 9L 9L 9L 9L 9L 9L 9L 9L 9L 9L 9L L L L L L L L L L L L L L L L L L L 7L 7L 7L 7L 7L 7L 7L 7L 7L 7L 7L 7L 7L 7L 7L 7L 7L 7L 7L 7L 7L 7L 7L 7L 7L 7L 7L 7L 7L 7L 7L 7L 7L 7L 7L 7L 7L 7L 7L 7L 7L 7L 7L 7L 7L 7L 7L 7L 7L 7L 7L 7L 7L 7L 7L 7L 7L 7L 7L 7L 7L 7L 7L 7L 7L 7L 7L 7L 7L 7L 7L 7L 7L 7L 7L 7L 7L 7L 7L 7L 7L 7L 7L 7L 7L 7L 7L 7L 7L 7L 7L 7L 7L 7L 7L 7L 7L 7L 7L 7L 7L 7L 7L 7L 7L 7L 7L 7L 7L 7L 7L 7L 7L 7L 7L 7L 7L 7L 7L 7L 7L 7L 7L 7L 7L 7L 7L 7L 7L 7L 7L 7L 7L 7L 7L 7L 7L 7L 7L 7L 7L 7L 7L 7L 7L 7L 7L 7L 7L 7L 7L 7L 7L 7L 7L 7L 7L 7L 7L 7L 7L 7L 7L 7L 7L 7L 7L 7L L    M5 M5 M5 M5 M5 M5 M5 M5 M5 M5 M5 M5 M5 M5 M5 M5 M5 M5 M5 M5 M5 M5 M5 M5 M5 M5 M5 M5 M5 M5 M5 M5 M5 M5 M5 M5 M5 M5 M5 M5 M5 M5 M5 M5 M5 M5 M5 M5 M5 M5 M5 M5 M5 M5 M5 M5 M5 M5 M5 M5 M5 M5 M5 M5 M5 M5 M5 M5 M5 M5 M5 M5 M5 M5 M5 M5 M5 M5 M5 M5 M5 M5 M5 M5 M5 M5 M5 M5 M5 M5 M5 M5 M5 M5 M5 M5 M5 M5 M5 M5 M5 M5 M5 M5 M5 M5 M5 M5 M5 M5 M5 M5 M5 M5 M5 M5 M5 M5 M5 M5 M5 M5 M5 M5 M5 M5 M5 M5 M5 M5 M5 M5 M5 M5 M5 M5 M5 M5 M5 M5 M5 M5 M5 M5 M5 M5 M5 M5 M5 M5 M5 M5 M5 M5 M5 M5 M5 M5 M5 M5           O4 O4 O4 O4 O4 O4 O4 O4 O4 O4 O4 O4 O4 O4 O4 O4 O4 O4 O4 O4 O4 O4 O4 O4 O4 O4 O4 O4 O4 O4 O4 O4 O4 O4 O4 O4 O4 O4 O4 O4 O4 O4 O4 O4 O4 O4 O4 O4 O4 O4 O4 O4 O4 O4 O4 O4 O4 O4 O4 O4 O4 O4 O4 O4 O4 O4 O4 O4 O4 O4 O4 O4 O4 O4 O4 O4 O4 O4 O4 O4 O4 O4 O4 O4 O4 O4 O4 O4 O4 O4 O4 O4 O4 O4 O4 O4 O4 O4 O4 O4 O4 O4 O4 O4 O4 O4 O4 O4 O4 O4 O4 O4 O4 O4 O4 O4 O4 O4 O4 O4 O4 O4 O4 O4 O4 O4 O4 O4 O4 O4 O4 O4 O4 O4 O4 O4 O4 O4 O4 O4 O4 O4 O4 O4 O4 O4 O4 O4 O4 O4 O4 O4 O4                    Q5 Q5 Q5 Q5 Q5 Q5 Q5 Q5 Q5 Q5 Q5 Q5 Q5 Q5 Q5 Q5 Q5 Q5 Q5 Q5 Q5 Q5 Q5 Q5 Q5 Q5 Q5 Q5 Q5 Q5 Q5 Q5 Q5 Q5 Q5 Q5 Q5 Q5 Q5 Q5 Q5 Q5 Q5 Q5 Q5 Q5 Q5 Q5 Q5 Q5 Q5 Q5 Q5 Q5 Q5 Q5 Q5 Q5 Q5 Q5 Q5 Q5 Q5 Q5 Q5 Q5 Q5 Q5 Q5 Q5 Q5 Q5 Q5 Q5 Q5 Q5 Q5 Q5 Q5 Q5 Q5 Q5 Q5 Q5 Q5 Q5 Q5 Q5 Q5 Q5 Q5 Q5 Q5 Q5 Q5 Q5 Q5 Q5 Q5 Q5 Q5 Q5 Q5 Q5 Q5 Q5 Q5 Q5 Q5 Q5 Q5 Q5 Q5 Q5 Q5 Q5 Q5 Q5 Q5 Q5 Q5 Q5 Q5 Q5 Q5 Q5 Q5 Q5 Q5 Q5 Q5 Q5 Q5 Q5 Q5 Q5 Q5 Q5 Q5 Q5 Q5 Q5 Q5 Q5 Q5 Q5 Q5 Q5 Q5 Q5 Q5 Q5 Q5 Q5 Q5 Q5 Q5 Q5 Q5 Q5 Q5 Q5 Q5 Q5 Q5 Q5 Q5 Q5    O9 O9 O9 O9 O9 O9 O9 O9 O9 O9 O9 O9 O9 O9 O9 O9 O9 O9 O9 O9 O9 O9 O9 O9 O9 O9 O9 O9 O9 O9 O9 O9 O9 O9 O9 O9 O9 O9 O9 O9 O9 O9 O9 O9 O9 O9 O9 O9 O9 O9 O9 O9 O9 O9 O9 O9 O9 O9 O9 O9 O9 O9 O9 O9 O9 O9 O9 O9 O9 O9 O9 O9 O9 O9 O9 O9 O9 O9 O9 O9 O9 O9 O9 O9 O9 O9 O9 O9 O9 O9 O9 O9 O9 O9 O9 O9 O9 O9 O9 O9 O9 O9 O9 O9 O9 O9 O9 O9 O9 O9 O9 O9 O9 O9 O9 O9 O9 O9 O9 O9 O9 O9 O9 O9 O9 O9 O9 O9 O9 O9 O9 O9 O9 O9 O9 O9 O9 O9 O9 O9 O9 O9 O9 O9 O9 O9 O9 O9 O9 O9 O9 O9 O9 O9 O9 O9 O9 O9 O9 O9            M> M> M> M> M> M> M> M> M> M> M> M> M> M> M> M> M> M> M> M> M> M> M> M> M> M> M> M> M> M> M> M> M> M> M> M> M> M> M> M> M> M> M> M> M> M> M> M> M> M> M> M> M> M> M> M> M> M> M> M> M> M> M> M> M> M> M> M> M> M> M> M> M> M> M> M> M> M> M> M> M> M> M> M> M> M> M> M> M> M> M> M> M> M> M> M> M> M> M> M> M> M> M> M> M> M> M> M> M> M> M> M> M> M> M> M> M> M> M> M> M> M> M> M> M> M> M> M> M> M> M> M> M> M> M> M> M> M> M> M> M> M> M> M> M> M> M> M> M> M> M> M> M>                   O4 O4 O4 O4 O4 O4 O4 O4 O4 O4 O4 O4 O4 O4 O4 O4 O4 O4 O4 O4 O4 O4 O4 O4 O4 O4 O4 O4 O4 O4 O4 O4 O4 O4 O4 O4 O4 O4 O4 O4 O4 O4 O4 O4 O4 O4 O4 O4 O4 O4 O4 O4 O4 O4 O4 O4 O4 O4 O4 O4 O4 O4 O4 O4 O4 O4 O4 O4 O4 O4 O4 O4 O4 O4 O4 O4 O4 O4 O4 O4 O4 O4 O4 O4 O4 O4 O4 O4 O4 O4 O4 O4 O4 O4 O4 O4 O4 O4 O4 O4 O4 O4 O4 O4 O4 O4 O4 O4 O4 O4 O4 O4 O4 O4 O4 O4 O4 O4 O4 O4 O4 O4 O4 O4 O4 O4 O4 O4 O4 O4 O4 O4 O4 O4 O4 O4 O4 O4 O4 O4 O4 O4 O4 O4 O4 O4 O4 O4 O4 O4 O4 O4 O4 O4 O4 O4 O4 O4 O4 O4 O4 O4 O4 O4 O4 O4 O4 O4     M> M> M> M> M> M> M> M> M> M> M> M> M> M> M> M> M> M> M> M> M> M> M> M> M> M> M> M> M> M> M> M> M> M> M> M> M> M> M> M> M> M> M> M> M> M> M> M> M> M> M> M> M> M> M> M> M> M> M> M> M> M> M> M> M> M> M> M> M> M> M> M> M> M> M> M> M> M> M> M> M> M> M> M> M> M> M> M> M> M> M> M> M> M> M> M> M> M> M> M> M> M> M> M> M> M> M> M> M> M> M> M> M> M> M> M> M> M> M> M> M> M> M> M> M> M> M> M> M> M> M> M> M> M> M> M> M> M> M> M> M> M> M> M> M> M> M> M> M> M> M> M> M> M> M> M> M> M> M> M>           L= L= L= L= L= L= L= L= L= L= L= L= L= L= L= L= L= L= L= L= L= L= L= L= L= L= L= L= L= L= L= L= L= L= L= L= L= L= L= L= L= L= L= L= L= L= L= L= L= L= L= L= L= L= L= L= L= L= L= L= L= L= L= L= L= L= L= L= L= L= L= L= L= L= L= L= L= L= L= L= L= L= L= L= L= L= L= L= L= L= L= L= L= L= L= L= L= L= L= L= L= L= L= L= L= L= L= L= L= L= L= L= L= L= L= L= L= L= L= L= L= L= L= L= L= L= L= L= L= L= L= L= L= L= L= L= L= L= L= L= L= L= L= L= L= L= L= L= L= L= L= L= L=                    M> M> M> M> M> M> M> M> M> M> M> M> M> M> M> M> M> M> M> M> M> M> M> M> M> M> M> M> M> M> M> M> M> M> M> M> M> M> M> M> M> M> M> M> M> M> M> M> M> M> M> M> M> M> M> M> M> M> M> M> M> M> M> M> M> M> M> M> M> M> M> M> M> M> M> M> M> M> M> M> M> M> M> M> M> M> M> M> M> M> M> M> M> M> M> M> M> M> M> M> M> M> M> M> M> M> M> M> M> M> M> M> M> M> M> M> M> M> M> M> M> M> M> M> M> M> M> M> M> M> M> M> M> M> M> M> M> M> M> M> M> M> M> M> M> M> M> M> M> M> M> M> M> M> M> M> M> M> M> M> M> M> M> M> M> M> M> M> > > > > O> O> O> O> O> O> O> O> O> O> O> O> O> O> O> O> O> O> O> O> O> O> O> O> O> O> O> O> O> O> O> O> O> O> O> O> O> O> O> O> O> O> O> O> O> O> O> O> O> O> O> O> O> O> O> O> O> O> O> O> O> O> O> O> O> O> O> O> O> O> O> O> O> O> O> O> O> O> O> O> O> O> O> O> O> O> O> O> O> O> O> O> O> O> O> O> O> O> O> O> O> O> O> O> O> O> O> O> O> O> O> O> O> O> O> O> O> O> O> O> O> O> O> O> O> O> O> O> O> O> O> O> O> O> O> O> O> O> O> O> O> O> O> O> O> O> O> O> O> O> O> O> O> O> O> O> O> O> O> O> > > > > > > > > > > Q> Q> Q> Q> Q> Q> Q> Q> Q> Q> Q> Q> Q> Q> Q> Q> Q> Q> Q> Q> Q> Q> Q> Q> Q> Q> Q> Q> Q> Q> Q> Q> Q> Q> Q> Q> Q> Q> Q> Q> Q> Q> Q> Q> Q> Q> Q> Q> Q> Q> Q> Q> Q> Q> Q> Q> Q> Q> Q> Q> Q> Q> Q> Q> Q> Q> Q> Q> Q> Q> Q> Q> Q> Q> Q> Q> Q> Q> Q> Q> Q> Q> Q> Q> Q> Q> Q> Q> Q> Q> Q> Q> Q> Q> Q> Q> Q> Q> Q> Q> Q> Q> Q> Q> Q> Q> Q> Q> Q> Q> Q> Q> Q> Q> Q> Q> Q> Q> Q> Q> Q> Q> Q> Q> Q> Q> Q> Q> Q> Q> Q> Q> Q> Q> Q> Q> Q> Q> Q> Q> Q> Q> Q> Q> Q> Q> Q> Q> Q> Q> Q> Q> Q> > > > > > > > > > > > > > > > > > > >J >J >J >J >J >J >J >J >J >J >J >J >J >J >J >J >J >J >J >J >J >J >J >J >J >J >J >J >J >J >J >J >J >J >J >J >J >J >J >J >J >J >J >J >J >J >J >J >J >J >J >J >J >J >J >J >J >J >J >J >J >J >J >J >J >J >J >J >J >J >J >J >J >J >J >J >J >J >J >J >J >J >J >J >J >J >J >J >J >J >J >J >J >J >J >J >J >J >J >J >J >J >J >J >J >J >J >J >J >J >J >J >J >J >J >J >J >J >J >J >J >J >J >J >J >J >J >J >J >J >J >J >J >J >J >J >J >J >J >J >J >J >J >J >J >J >J >J >J >J >J >J >J >J >J >J >J >J >J >J >J >J >J >J >J >J >J >J >J J J J @J @J @J @J @J @J @J @J @J @J @J @J @J @J @J @J @J @J @J @J @J @J @J @J @J @J @J @J @J @J @J @J @J @J @J @J @J @J @J @J @J @J @J @J @J @J @J @J @J @J @J @J @J @J @J @J @J @J @J @J @J @J @J @J @J @J @J @J @J @J @J @J @J @J @J @J @J @J @J @J @J @J @J @J @J @J @J @J @J @J @J @J @J @J @J @J @J @J @J @J @J @J @J @J @J @J @J @J @J @J @J @J @J @J @J @J @J @J @J @J @J @J @J @J @J @J @J @J @J @J @J @J @J @J @J @J @J @J @J @J @J @J @J @J @J @J @J @J @J @J @J @J @J @J @J @J @J @J @J @J J J J J J J J J J J AJ AJ AJ AJ AJ AJ AJ AJ AJ AJ AJ AJ AJ AJ AJ AJ AJ AJ AJ AJ AJ AJ AJ AJ AJ AJ AJ AJ AJ AJ AJ AJ AJ AJ AJ AJ AJ AJ AJ AJ AJ AJ AJ AJ AJ AJ AJ AJ AJ AJ AJ AJ AJ AJ AJ AJ AJ AJ AJ AJ AJ AJ AJ AJ AJ AJ AJ AJ AJ AJ AJ AJ AJ AJ AJ AJ AJ AJ AJ AJ AJ AJ AJ AJ AJ AJ AJ AJ AJ AJ AJ AJ AJ AJ AJ AJ AJ AJ AJ AJ AJ AJ AJ AJ AJ AJ AJ AJ AJ AJ AJ AJ AJ AJ AJ AJ AJ AJ AJ AJ AJ AJ AJ AJ AJ AJ AJ AJ AJ AJ AJ AJ AJ AJ AJ AJ AJ AJ AJ AJ AJ AJ AJ AJ AJ AJ AJ AJ AJ AJ AJ AJ AJ J J J J J J J J J J J J J J J J J J J J@ J@ J@ J@ J@ J@ J@ J@ J@ J@ J@ J@ J@ J@ J@ J@ J@ J@ J@ J@ J@ J@ J@ J@ J@ J@ J@ J@ J@ J@ J@ J@ J@ J@ J@ J@ J@ J@ J@ J@ J@ J@ J@ J@ J@ J@ J@ J@ J@ J@ J@ J@ J@ J@ J@ J@ J@ J@ J@ J@ J@ J@ J@ J@ J@ J@ J@ J@ J@ J@ J@ J@ J@ J@ J@ J@ J@ J@ J@ J@ J@ J@ J@ J@ J@ J@ J@ J@ J@ J@ J@ J@ J@ J@ J@ J@ J@ J@ J@ J@ J@ J@ J@ J@ J@ J@ J@ J@ J@ J@ J@ J@ J@ J@ J@ J@ J@ J@ J@ J@ J@ J@ J@ J@ J@ J@ J@ J@ J@ J@ J@ J@ J@ J@ J@ J@ J@ J@ J@ J@ J@ J@ J@ J@ J@ J@ J@ J@ J@ J@ J@ J@ J@ J@ J@ J@ J@ J@ J@ J@ J@ J@ J@ J@ J@ J@ J@ J@ @ @ @ @ H@ H@ H@ H@ H@ H@ H@ H@ H@ H@ H@ H@ H@ H@ H@ H@ H@ H@ H@ H@ H@ H@ H@ H@ H@ H@ H@ H@ H@ H@ H@ H@ H@ H@ H@ H@ H@ H@ H@ H@ H@ H@ H@ H@ H@ H@ H@ H@ H@ H@ H@ H@ H@ H@ H@ H@ H@ H@ H@ H@ H@ H@ H@ H@ H@ H@ H@ H@ H@ H@ H@ H@ H@ H@ H@ H@ H@ H@ H@ H@ H@ H@ H@ H@ H@ H@ H@ H@ H@ H@ H@ H@ H@ H@ H@ H@ H@ H@ H@ H@ H@ H@ H@ H@ H@ H@ H@ H@ H@ H@ H@ H@ H@ H@ H@ H@ H@ H@ H@ H@ H@ H@ H@ H@ H@ H@ H@ H@ H@ H@ H@ H@ H@ H@ H@ H@ H@ H@ H@ H@ H@ H@ H@ H@ H@ H@ H@ H@ H@ H@ H@ H@ H@ H@ H@ H@ H@ H@ H@ H@ @ @ @ @ @ @ @ @ @ @ F@ F@ F@ F@ F@ F@ F@ F@ F@ F@ F@ F@ F@ F@ F@ F@ F@ F@ F@ F@ F@ F@ F@ F@ F@ F@ F@ F@ F@ F@ F@ F@ F@ F@ F@ F@ F@ F@ F@ F@ F@ F@ F@ F@ F@ F@ F@ F@ F@ F@ F@ F@ F@ F@ F@ F@ F@ F@ F@ F@ F@ F@ F@ F@ F@ F@ F@ F@ F@ F@ F@ F@ F@ F@ F@ F@ F@ F@ F@ F@ F@ F@ F@ F@ F@ F@ F@ F@ F@ F@ F@ F@ F@ F@ F@ F@ F@ F@ F@ F@ F@ F@ F@ F@ F@ F@ F@ F@ F@ F@ F@ F@ F@ F@ F@ F@ F@ F@ F@ F@ F@ F@ F@ F@ F@ F@ F@ F@ F@ F@ F@ F@ F@ F@ F@ F@ F@ F@ F@ F@ F@ F@ F@ F@ F@ F@ F@ F@ F@ F@ F@ F@ F@ @ @ @ @ @ @ @ @ @ @ @ @ @ @ @ @ @ @ @H @H @H @H @H @H @H @H @H @H @H @H @H @H @H @H @H @H @H @H @H @H @H @H @H @H @H @H @H @H @H @H @H @H @H @H @H @H @H @H @H @H @H @H @H @H @H @H @H @H @H @H @H @H @H @H @H @H @H @H @H @H @H @H @H @H @H @H @H @H @H @H @H @H @H @H @H @H @H @H @H @H @H @H @H @H @H @H @H @H @H @H @H @H @H @H @H @H @H @H @H @H @H @H @H @H @H @H @H @H @H @H @H @H @H @H @H @H @H @H @H @H @H @H @H @H @H @H @H @H @H @H @H @H @H @H @H @H @H @H @H @H @H @H @H @H @H @H @H @H @H @H @H @H @H @H @H @H @H @H @H @H @H @H @H @H @H @H @H H H H BH BH BH BH BH BH BH BH BH BH BH BH BH BH BH BH BH BH BH BH BH BH BH BH BH BH BH BH BH BH BH BH BH BH BH BH BH BH BH BH BH BH BH BH BH BH BH BH BH BH BH BH BH BH BH BH BH BH BH BH BH BH BH BH BH BH BH BH BH BH BH BH BH BH BH BH BH BH BH BH BH BH BH BH BH BH BH BH BH BH BH BH BH BH BH BH BH BH BH BH BH BH BH BH BH BH BH BH BH BH BH BH BH BH BH BH BH BH BH BH BH BH BH BH BH BH BH BH BH BH BH BH BH BH BH BH BH BH BH BH BH BH BH BH BH BH BH BH BH BH BH BH BH BH BH BH BH BH BH BH H H H H H H H H H H CH CH CH CH CH CH CH CH CH CH CH CH CH CH CH CH CH CH CH CH CH CH CH CH CH CH CH CH CH CH CH CH CH CH CH CH CH CH CH CH CH CH CH CH CH CH CH CH CH CH CH CH CH CH CH CH CH CH CH CH CH CH CH CH CH CH CH CH CH CH CH CH CH CH CH CH CH CH CH CH CH CH CH CH CH CH CH CH CH CH CH CH CH CH CH CH CH CH CH CH CH CH CH CH CH CH CH CH CH CH CH CH CH CH CH CH CH CH CH CH CH CH CH CH CH CH CH CH CH CH CH CH CH CH CH CH CH CH CH CH CH CH CH CH CH CH CH CH CH CH CH CH CH H H H H H H H H H H H H H H H H H H H EH EH EH EH EH EH EH EH EH EH EH EH EH EH EH EH EH EH EH EH EH EH EH EH EH EH EH EH EH EH EH EH EH EH EH EH EH EH EH EH EH EH EH EH EH EH EH EH EH EH EH EH EH EH EH EH EH EH EH EH EH EH EH EH EH EH EH EH EH EH EH EH EH EH EH EH EH EH EH EH EH EH EH EH EH EH EH EH EH EH EH EH EH EH EH EH EH EH EH EH EH EH EH EH EH EH EH EH EH EH EH EH EH EH EH EH EH EH EH EH EH EH EH EH EH EH EH EH EH EH EH EH EH EH EH EH EH EH EH EH EH EH EH EH EH EH EH EH EH EH EH EH EH EH EH EH EH EH EH EH EH EH EH EH EH EH EH EH H H H H CH CH CH CH CH CH CH CH CH CH CH CH CH CH CH CH CH CH CH CH CH CH CH CH CH CH CH CH CH CH CH CH CH CH CH CH CH CH CH CH CH CH CH CH CH CH CH CH CH CH CH CH CH CH CH CH CH CH CH CH CH CH CH CH CH CH CH CH CH CH CH CH CH CH CH CH CH CH CH CH CH CH CH CH CH CH CH CH CH CH CH CH CH CH CH CH CH CH CH CH CH CH CH CH CH CH CH CH CH CH CH CH CH CH CH CH CH CH CH CH CH CH CH CH CH CH CH CH CH CH CH CH CH CH CH CH CH CH CH CH CH CH CH CH CH CH CH CH CH CH CH CH CH CH CH CH CH CH CH CH H H H H H H     JB JB JB JB JB JB JB JB JB JB JB JB JB JB JB JB JB JB JB JB JB JB JB JB JB JB JB JB JB JB JB JB JB JB JB JB JB JB JB JB JB JB JB JB JB JB JB JB JB JB JB JB JB JB JB JB JB JB JB JB JB JB JB JB JB JB JB JB JB JB JB JB JB JB JB JB JB JB JB JB JB JB JB JB JB JB JB JB JB JB JB JB JB JB JB JB JB JB JB JB JB JB JB JB JB JB JB JB JB JB JB JB JB JB JB JB JB JB JB JB JB JB JB JB JB JB JB JB JB JB JB JB JB JB JB JB JB JB JB JB JB JB JB JB JB JB JB JB JB JB JB JB JB                    CF CF CF CF CF CF CF CF CF CF CF CF CF CF CF CF CF CF CF CF CF CF CF CF CF CF CF CF CF CF CF CF CF CF CF CF CF CF CF CF CF CF CF CF CF CF CF CF CF CF CF CF CF CF CF CF CF CF CF CF CF CF CF CF CF CF CF CF CF CF CF CF CF CF CF CF CF CF CF CF CF CF CF CF CF CF CF CF CF CF CF CF CF CF CF CF CF CF CF CF CF CF CF CF CF CF CF CF CF CF CF CF CF CF CF CF CF CF CF CF CF CF CF CF CF CF CF CF CF CF CF CF CF CF CF CF CF CF CF CF CF CF CF CF CF CF CF CF CF CF CF CF CF CF CF CF CF CF CF CF CF CF CF CF CF CF CF CF F F F BF BF BF BF BF BF BF BF BF BF BF BF BF BF BF BF BF BF BF BF BF BF BF BF BF BF BF BF BF BF BF BF BF BF BF BF BF BF BF BF BF BF BF BF BF BF BF BF BF BF BF BF BF BF BF BF BF BF BF BF BF BF BF BF BF BF BF BF BF BF BF BF BF BF BF BF BF BF BF BF BF BF BF BF BF BF BF BF BF BF BF BF BF BF BF BF BF BF BF BF BF BF BF BF BF BF BF BF BF BF BF BF BF BF BF BF BF BF BF BF BF BF BF BF BF BF BF BF BF BF BF BF BF BF BF BF BF BF BF BF BF BF BF BF BF BF BF BF BF BF BF BF BF BF BF BF BF BF BF BF F F F F F F F    H@ H@ H@ H@ H@ H@ H@ H@ H@ H@ H@ H@ H@ H@ H@ H@ H@ H@ H@ H@ H@ H@ H@ H@ H@ H@ H@ H@ H@ H@ H@ H@ H@ H@ H@ H@ H@ H@ H@ H@ H@ H@ H@ H@ H@ H@ H@ H@ H@ H@ H@ H@ H@ H@ H@ H@ H@ H@ H@ H@ H@ H@ H@ H@ H@ H@ H@ H@ H@ H@ H@ H@ H@ H@ H@ H@ H@ H@ H@ H@ H@ H@ H@ H@ H@ H@ H@ H@ H@ H@ H@ H@ H@ H@ H@ H@ H@ H@ H@ H@ H@ H@ H@ H@ H@ H@ H@ H@ H@ H@ H@ H@ H@ H@ H@ H@ H@ H@ H@ H@ H@ H@ H@ H@ H@ H@ H@ H@ H@ H@ H@ H@ H@ H@ H@ H@ H@ H@ H@ H@ H@ H@ H@ H@ H@ H@ H@ H@ H@ H@ H@ H@ H@                    BE BE BE BE BE BE BE BE BE BE BE BE BE BE BE BE BE BE BE BE BE BE BE BE BE BE BE BE BE BE BE BE BE BE BE BE BE BE BE BE BE BE BE BE BE BE BE BE BE BE BE BE BE BE BE BE BE BE BE BE BE BE BE BE BE BE BE BE BE BE BE BE BE BE BE BE BE BE BE BE BE BE BE BE BE BE BE BE BE BE BE BE BE BE BE BE BE BE BE BE BE BE BE BE BE BE BE BE BE BE BE BE BE BE BE BE BE BE BE BE BE BE BE BE BE BE BE BE BE BE BE BE BE BE BE BE BE BE BE BE BE BE BE BE BE BE BE BE BE BE BE BE BE BE BE BE BE BE BE BE BE BE BE BE BE BE BE BE E E E E @E @E @E @E @E @E @E @E @E @E @E @E @E @E @E @E @E @E @E @E @E @E @E @E @E @E @E @E @E @E @E @E @E @E @E @E @E @E @E @E @E @E @E @E @E @E @E @E @E @E @E @E @E @E @E @E @E @E @E @E @E @E @E @E @E @E @E @E @E @E @E @E @E @E @E @E @E @E @E @E @E @E @E @E @E @E @E @E @E @E @E @E @E @E @E @E @E @E @E @E @E @E @E @E @E @E @E @E @E @E @E @E @E @E @E @E @E @E @E @E @E @E @E @E @E @E @E @E @E @E @E @E @E @E @E @E @E @E @E @E @E @E @E @E @E @E @E @E @E @E @E @E @E @E @E @E @E @E @E @E E E E E E E     F> F> F> F> F> F> F> F> F> F> F> F> F> F> F> F> F> F> F> F> F> F> F> F> F> F> F> F> F> F> F> F> F> F> F> F> F> F> F> F> F> F> F> F> F> F> F> F> F> F> F> F> F> F> F> F> F> F> F> F> F> F> F> F> F> F> F> F> F> F> F> F> F> F> F> F> F> F> F> F> F> F> F> F> F> F> F> F> F> F> F> F> F> F> F> F> F> F> F> F> F> F> F> F> F> F> F> F> F> F> F> F> F> F> F> F> F> F> F> F> F> F> F> F> F> F> F> F> F> F> F> F> F> F> F> F> F> F> F> F> F> F> F> F> F> F> F> F> F> F> F> F> F>                    @H @H @H @H @H @H @H @H @H @H @H @H @H @H @H @H @H @H @H @H @H @H @H @H @H @H @H @H @H @H @H @H @H @H @H @H @H @H @H @H @H @H @H @H @H @H @H @H @H @H @H @H @H @H @H @H @H @H @H @H @H @H @H @H @H @H @H @H @H @H @H @H @H @H @H @H @H @H @H @H @H @H @H @H @H @H @H @H @H @H @H @H @H @H @H @H @H @H @H @H @H @H @H @H @H @H @H @H @H @H @H @H @H @H @H @H @H @H @H @H @H @H @H @H @H @H @H @H @H @H @H @H @H @H @H @H @H @H @H @H @H @H @H @H @H @H @H @H @H @H @H @H @H @H @H @H @H @H @H @H @H @H @H @H @H @H @H @H H H H CH CH CH CH CH CH CH CH CH CH CH CH CH CH CH CH CH CH CH CH CH CH CH CH CH CH CH CH CH CH CH CH CH CH CH CH CH CH CH CH CH CH CH CH CH CH CH CH CH CH CH CH CH CH CH CH CH CH CH CH CH CH CH CH CH CH CH CH CH CH CH CH CH CH CH CH CH CH CH CH CH CH CH CH CH CH CH CH CH CH CH CH CH CH CH CH CH CH CH CH CH CH CH CH CH CH CH CH CH CH CH CH CH CH CH CH CH CH CH CH CH CH CH CH CH CH CH CH CH CH CH CH CH CH CH CH CH CH CH CH CH CH CH CH CH CH CH CH CH CH CH CH CH CH CH CH CH CH CH CH H H H H H H H    J>B J>B J>B J>B J>B J>B J>B J>B J>B J>B J>B J>B J>B J>B J>B J>B J>B J>B J>B J>B J>B J>B J>B J>B J>B J>B J>B J>B J>B J>B J>B J>B J>B J>B J>B J>B J>B J>B J>B J>B J>B J>B J>B J>B J>B J>B J>B J>B J>B J>B J>B J>B J>B J>B J>B J>B J>B J>B J>B J>B J>B J>B J>B J>B J>B J>B J>B J>B J>B J>B J>B J>B J>B J>B J>B J>B J>B J>B J>B J>B J>B J>B J>B J>B J>B J>B J>B J>B J>B J>B J>B J>B J>B J>B J>B J>B J>B J>B J>B J>B J>B J>B J>B J>B J>B J>B J>B J>B J>B J>B J>B J>B J>B J>B J>B J>B J>B J>B J>B J>B J>B J>B J>B J>B J>B J>B J>B J>B J>B J>B J>B J>B J>B J>B J>B J>B J>B J>B J>B J>B J>B J>B J>B J>B J>B J>B J>B J>B J>B J>B J>B J>B J>B                    ?FC ?FC ?FC ?FC ?FC ?FC ?FC ?FC ?FC ?FC ?FC ?FC ?FC ?FC ?FC ?FC ?FC ?FC ?FC ?FC ?FC ?FC ?FC ?FC ?FC ?FC ?FC ?FC ?FC ?FC ?FC ?FC ?FC ?FC ?FC ?FC ?FC ?FC ?FC ?FC ?FC ?FC ?FC ?FC ?FC ?FC ?FC ?FC ?FC ?FC ?FC ?FC ?FC ?FC ?FC ?FC ?FC ?FC ?FC ?FC ?FC ?FC ?FC ?FC ?FC ?FC ?FC ?FC ?FC ?FC ?FC ?FC ?FC ?FC ?FC ?FC ?FC ?FC ?FC ?FC ?FC ?FC ?FC ?FC ?FC ?FC ?FC ?FC ?FC ?FC ?FC ?FC ?FC ?FC ?FC ?FC ?FC ?FC ?FC ?FC ?FC ?FC ?FC ?FC ?FC ?FC ?FC ?FC ?FC ?FC ?FC ?FC ?FC ?FC ?FC ?FC ?FC ?FC ?FC ?FC ?FC ?FC ?FC ?FC ?FC ?FC ?FC ?FC ?FC ?FC ?FC ?FC ?FC ?FC ?FC ?FC ?FC ?FC ?FC ?FC ?FC ?FC ?FC ?FC ?FC ?FC ?FC ?FC ?FC ?FC ?FC ?FC ?FC ?FC ?FC ?FC ?FC ?FC ?FC ?FC ?FC ?FC ?FC ?FC ?FC ?FC ?FC ?FC FC FC FC FC >FC >FC >FC >FC >FC >FC >FC >FC >FC >FC >FC >FC >FC >FC >FC >FC >FC >FC >FC >FC >FC >FC >FC >FC >FC >FC >FC >FC >FC >FC >FC >FC >FC >FC >FC >FC >FC >FC >FC >FC >FC >FC >FC >FC >FC >FC >FC >FC >FC >FC >FC >FC >FC >FC >FC >FC >FC >FC >FC >FC >FC >FC >FC >FC >FC >FC >FC >FC >FC >FC >FC >FC >FC >FC >FC >FC >FC >FC >FC >FC >FC >FC >FC >FC >FC >FC >FC >FC >FC >FC >FC >FC >FC >FC >FC >FC >FC >FC >FC >FC >FC >FC >FC >FC >FC >FC >FC >FC >FC >FC >FC >FC >FC >FC >FC >FC >FC >FC >FC >FC >FC >FC >FC >FC >FC >FC >FC >FC >FC >FC >FC >FC >FC >FC >FC >FC >FC >FC >FC >FC >FC >FC >FC >FC >FC >FC >FC >FC >FC >FC >FC >FC >FC >FC >FC >FC >FC >FC >FC >FC FC FC FC FC FC FC C C C C H<C H<C H<C H<C H<C H<C H<C H<C H<C H<C H<C H<C H<C H<C H<C H<C H<C H<C H<C H<C H<C H<C H<C H<C H<C H<C H<C H<C H<C H<C H<C H<C H<C H<C H<C H<C H<C H<C H<C H<C H<C H<C H<C H<C H<C H<C H<C H<C H<C H<C H<C H<C H<C H<C H<C H<C H<C H<C H<C H<C H<C H<C H<C H<C H<C H<C H<C H<C H<C H<C H<C H<C H<C H<C H<C H<C H<C H<C H<C H<C H<C H<C H<C H<C H<C H<C H<C H<C H<C H<C H<C H<C H<C H<C H<C H<C H<C H<C H<C H<C H<C H<C H<C H<C H<C H<C H<C H<C H<C H<C H<C H<C H<C H<C H<C H<C H<C H<C H<C H<C H<C H<C H<C H<C H<C H<C H<C H<C H<C H<C H<C H<C H<C H<C H<C H<C H<C H<C H<C H<C H<C H<C H<C H<C H<C H<C H<C H<C H<C H<C H<C H<C H<C C C C C C C C C C C C C C C C C C C C :CJ :CJ :CJ :CJ :CJ :CJ :CJ :CJ :CJ :CJ :CJ :CJ :CJ :CJ :CJ :CJ :CJ :CJ :CJ :CJ :CJ :CJ :CJ :CJ :CJ :CJ :CJ :CJ :CJ :CJ :CJ :CJ :CJ :CJ :CJ :CJ :CJ :CJ :CJ :CJ :CJ :CJ :CJ :CJ :CJ :CJ :CJ :CJ :CJ :CJ :CJ :CJ :CJ :CJ :CJ :CJ :CJ :CJ :CJ :CJ :CJ :CJ :CJ :CJ :CJ :CJ :CJ :CJ :CJ :CJ :CJ :CJ :CJ :CJ :CJ :CJ :CJ :CJ :CJ :CJ :CJ :CJ :CJ :CJ :CJ :CJ :CJ :CJ :CJ :CJ :CJ :CJ :CJ :CJ :CJ :CJ :CJ :CJ :CJ :CJ :CJ :CJ :CJ :CJ :CJ :CJ :CJ :CJ :CJ :CJ :CJ :CJ :CJ :CJ :CJ :CJ :CJ :CJ :CJ :CJ :CJ :CJ :CJ :CJ :CJ :CJ :CJ :CJ :CJ :CJ :CJ :CJ :CJ :CJ :CJ :CJ :CJ :CJ :CJ :CJ :CJ :CJ :CJ :CJ :CJ :CJ :CJ :CJ :CJ :CJ :CJ :CJ :CJ :CJ :CJ :CJ :CJ :CJ :CJ :CJ :CJ :CJ :CJ :CJ :CJ :CJ :CJ :CJ J J J E9J E9J E9J E9J E9J E9J E9J E9J E9J E9J E9J E9J E9J E9J E9J E9J E9J E9J E9J E9J E9J E9J E9J E9J E9J E9J E9J E9J E9J E9J E9J E9J E9J E9J E9J E9J E9J E9J E9J E9J E9J E9J E9J E9J E9J E9J E9J E9J E9J E9J E9J E9J E9J E9J E9J E9J E9J E9J E9J E9J E9J E9J E9J E9J E9J E9J E9J E9J E9J E9J E9J E9J E9J E9J E9J E9J E9J E9J E9J E9J E9J E9J E9J E9J E9J E9J E9J E9J E9J E9J E9J E9J E9J E9J E9J E9J E9J E9J E9J E9J E9J E9J E9J E9J E9J E9J E9J E9J E9J E9J E9J E9J E9J E9J E9J E9J E9J E9J E9J E9J E9J E9J E9J E9J E9J E9J E9J E9J E9J E9J E9J E9J E9J E9J E9J E9J E9J E9J E9J E9J E9J E9J E9J E9J E9J E9J E9J E9J E9J E9J E9J E9J E9J E9J E9J E9J E9J E9J E9J E9J J J J J J J J J J J J 7FJ 7FJ 7FJ 7FJ 7FJ 7FJ 7FJ 7FJ 7FJ 7FJ 7FJ 7FJ 7FJ 7FJ 7FJ 7FJ 7FJ 7FJ 7FJ 7FJ 7FJ 7FJ 7FJ 7FJ 7FJ 7FJ 7FJ 7FJ 7FJ 7FJ 7FJ 7FJ 7FJ 7FJ 7FJ 7FJ 7FJ 7FJ 7FJ 7FJ 7FJ 7FJ 7FJ 7FJ 7FJ 7FJ 7FJ 7FJ 7FJ 7FJ 7FJ 7FJ 7FJ 7FJ 7FJ 7FJ 7FJ 7FJ 7FJ 7FJ 7FJ 7FJ 7FJ 7FJ 7FJ 7FJ 7FJ 7FJ 7FJ 7FJ 7FJ 7FJ 7FJ 7FJ 7FJ 7FJ 7FJ 7FJ 7FJ 7FJ 7FJ 7FJ 7FJ 7FJ 7FJ 7FJ 7FJ 7FJ 7FJ 7FJ 7FJ 7FJ 7FJ 7FJ 7FJ 7FJ 7FJ 7FJ 7FJ 7FJ 7FJ 7FJ 7FJ 7FJ 7FJ 7FJ 7FJ 7FJ 7FJ 7FJ 7FJ 7FJ 7FJ 7FJ 7FJ 7FJ 7FJ 7FJ 7FJ 7FJ 7FJ 7FJ 7FJ 7FJ 7FJ 7FJ 7FJ 7FJ 7FJ 7FJ 7FJ 7FJ 7FJ 7FJ 7FJ 7FJ 7FJ 7FJ 7FJ 7FJ 7FJ 7FJ 7FJ 7FJ 7FJ 7FJ 7FJ 7FJ 7FJ 7FJ 7FJ 7FJ 7FJ J J J J J J J J J J J J J J J J J J 6JE 6JE 6JE 6JE 6JE 6JE 6JE 6JE 6JE 6JE 6JE 6JE 6JE 6JE 6JE 6JE 6JE 6JE 6JE 6JE 6JE 6JE 6JE 6JE 6JE 6JE 6JE 6JE 6JE 6JE 6JE 6JE 6JE 6JE 6JE 6JE 6JE 6JE 6JE 6JE 6JE 6JE 6JE 6JE 6JE 6JE 6JE 6JE 6JE 6JE 6JE 6JE 6JE 6JE 6JE 6JE 6JE 6JE 6JE 6JE 6JE 6JE 6JE 6JE 6JE 6JE 6JE 6JE 6JE 6JE 6JE 6JE 6JE 6JE 6JE 6JE 6JE 6JE 6JE 6JE 6JE 6JE 6JE 6JE 6JE 6JE 6JE 6JE 6JE 6JE 6JE 6JE 6JE 6JE 6JE 6JE 6JE 6JE 6JE 6JE 6JE 6JE 6JE 6JE 6JE 6JE 6JE 6JE 6JE 6JE 6JE 6JE 6JE 6JE 6JE 6JE 6JE 6JE 6JE 6JE 6JE 6JE 6JE 6JE 6JE 6JE 6JE 6JE 6JE 6JE 6JE 6JE 6JE 6JE 6JE 6JE 6JE 6JE 6JE 6JE 6JE 6JE 6JE 6JE 6JE 6JE 6JE 6JE 6JE 6JE 6JE 6JE 6JE 6JE 6JE 6JE 6JE 6JE 6JE 6JE 6JE 6JE 6JE 6JE 6JE 6JE 6JE 6JE JE JE JE JE 9JE 9JE 9JE 9JE 9JE 9JE 9JE 9JE 9JE 9JE 9JE 9JE 9JE 9JE 9JE 9JE 9JE 9JE 9JE 9JE 9JE 9JE 9JE 9JE 9JE 9JE 9JE 9JE 9JE 9JE 9JE 9JE 9JE 9JE 9JE 9JE 9JE 9JE 9JE 9JE 9JE 9JE 9JE 9JE 9JE 9JE 9JE 9JE 9JE 9JE 9JE 9JE 9JE 9JE 9JE 9JE 9JE 9JE 9JE 9JE 9JE 9JE 9JE 9JE 9JE 9JE 9JE 9JE 9JE 9JE 9JE 9JE 9JE 9JE 9JE 9JE 9JE 9JE 9JE 9JE 9JE 9JE 9JE 9JE 9JE 9JE 9JE 9JE 9JE 9JE 9JE 9JE 9JE 9JE 9JE 9JE 9JE 9JE 9JE 9JE 9JE 9JE 9JE 9JE 9JE 9JE 9JE 9JE 9JE 9JE 9JE 9JE 9JE 9JE 9JE 9JE 9JE 9JE 9JE 9JE 9JE 9JE 9JE 9JE 9JE 9JE 9JE 9JE 9JE 9JE 9JE 9JE 9JE 9JE 9JE 9JE 9JE 9JE 9JE 9JE 9JE 9JE 9JE 9JE 9JE 9JE 9JE 9JE 9JE 9JE 9JE 9JE 9JE 9JE 9JE 9JE 9JE 9JE 9JE 9JE JE JE JE JE JE JE JE E E E L2E L2E L2E L2E L2E L2E L2E L2E L2E L2E L2E L2E L2E L2E L2E L2E L2E L2E L2E L2E L2E L2E L2E L2E L2E L2E L2E L2E L2E L2E L2E L2E L2E L2E L2E L2E L2E L2E L2E L2E L2E L2E L2E L2E L2E L2E L2E L2E L2E L2E L2E L2E L2E L2E L2E L2E L2E L2E L2E L2E L2E L2E L2E L2E L2E L2E L2E L2E L2E L2E L2E L2E L2E L2E L2E L2E L2E L2E L2E L2E L2E L2E L2E L2E L2E L2E L2E L2E L2E L2E L2E L2E L2E L2E L2E L2E L2E L2E L2E L2E L2E L2E L2E L2E L2E L2E L2E L2E L2E L2E L2E L2E L2E L2E L2E L2E L2E L2E L2E L2E L2E L2E L2E L2E L2E L2E L2E L2E L2E L2E L2E L2E L2E L2E L2E L2E L2E L2E L2E L2E L2E L2E L2E L2E L2E L2E L2E L2E L2E L2E L2E L2E L2E E E E E E E E E E E E E E E E E E E E 0EN 0EN 0EN 0EN 0EN 0EN 0EN 0EN 0EN 0EN 0EN 0EN 0EN 0EN 0EN 0EN 0EN 0EN 0EN 0EN 0EN 0EN 0EN 0EN 0EN 0EN 0EN 0EN 0EN 0EN 0EN 0EN 0EN 0EN 0EN 0EN 0EN 0EN 0EN 0EN 0EN 0EN 0EN 0EN 0EN 0EN 0EN 0EN 0EN 0EN 0EN 0EN 0EN 0EN 0EN 0EN 0EN 0EN 0EN 0EN 0EN 0EN 0EN 0EN 0EN 0EN 0EN 0EN 0EN 0EN 0EN 0EN 0EN 0EN 0EN 0EN 0EN 0EN 0EN 0EN 0EN 0EN 0EN 0EN 0EN 0EN 0EN 0EN 0EN 0EN 0EN 0EN 0EN 0EN 0EN 0EN 0EN 0EN 0EN 0EN 0EN 0EN 0EN 0EN 0EN 0EN 0EN 0EN 0EN 0EN 0EN 0EN 0EN 0EN 0EN 0EN 0EN 0EN 0EN 0EN 0EN 0EN 0EN 0EN 0EN 0EN 0EN 0EN 0EN 0EN 0EN 0EN 0EN 0EN 0EN 0EN 0EN 0EN 0EN 0EN 0EN 0EN 0EN 0EN 0EN 0EN 0EN 0EN 0EN 0EN 0EN 0EN 0EN 0EN 0EN 0EN 0EN 0EN 0EN 0EN 0EN 0EN 0EN 0EN 0EN 0EN 0EN 0EN N N N N .FN .FN .FN .FN .FN .FN .FN .FN .FN .FN .FN .FN .FN .FN .FN .FN .FN .FN .FN .FN .FN .FN .FN .FN .FN .FN .FN .FN .FN .FN .FN .FN .FN .FN .FN .FN .FN .FN .FN .FN .FN .FN .FN .FN .FN .FN .FN .FN .FN .FN .FN .FN .FN .FN .FN .FN .FN .FN .FN .FN .FN .FN .FN .FN .FN .FN .FN .FN .FN .FN .FN .FN .FN .FN .FN .FN .FN .FN .FN .FN .FN .FN .FN .FN .FN .FN .FN .FN .FN .FN .FN .FN .FN .FN .FN .FN .FN .FN .FN .FN .FN .FN .FN .FN .FN .FN .FN .FN .FN .FN .FN .FN .FN .FN .FN .FN .FN .FN .FN .FN .FN .FN .FN .FN .FN .FN .FN .FN .FN .FN .FN .FN .FN .FN .FN .FN .FN .FN .FN .FN .FN .FN .FN .FN .FN .FN .FN .FN .FN .FN .FN .FN .FN .FN .FN .FN .FN .FN .FN .FN N N N N N N N N N N H-N H-N H-N H-N H-N H-N H-N H-N H-N H-N H-N H-N H-N H-N H-N H-N H-N H-N H-N H-N H-N H-N H-N H-N H-N H-N H-N H-N H-N H-N H-N H-N H-N H-N H-N H-N H-N H-N H-N H-N H-N H-N H-N H-N H-N H-N H-N H-N H-N H-N H-N H-N H-N H-N H-N H-N H-N H-N H-N H-N H-N H-N H-N H-N H-N H-N H-N H-N H-N H-N H-N H-N H-N H-N H-N H-N H-N H-N H-N H-N H-N H-N H-N H-N H-N H-N H-N H-N H-N H-N H-N H-N H-N H-N H-N H-N H-N H-N H-N H-N H-N H-N H-N H-N H-N H-N H-N H-N H-N H-N H-N H-N H-N H-N H-N H-N H-N H-N H-N H-N H-N H-N H-N H-N H-N H-N H-N H-N H-N H-N H-N H-N H-N H-N H-N H-N H-N H-N H-N H-N H-N H-N H-N H-N H-N H-N H-N H-N H-N H-N H-N H-N H-N N N N N N N N N N N N N N N N    .JO .JO .JO .JO .JO .JO .JO .JO .JO .JO .JO .JO .JO .JO .JO .JO .JO .JO .JO .JO .JO .JO .JO .JO .JO .JO .JO .JO .JO .JO .JO .JO .JO .JO .JO .JO .JO .JO .JO .JO .JO .JO .JO .JO .JO .JO .JO .JO .JO .JO .JO .JO .JO .JO .JO .JO .JO .JO .JO .JO .JO .JO .JO .JO .JO .JO .JO .JO .JO .JO .JO .JO .JO .JO .JO .JO .JO .JO .JO .JO .JO .JO .JO .JO .JO .JO .JO .JO .JO .JO .JO .JO .JO .JO .JO .JO .JO .JO .JO .JO .JO .JO .JO .JO .JO .JO .JO .JO .JO .JO .JO .JO .JO .JO .JO .JO .JO .JO .JO .JO .JO .JO .JO .JO .JO .JO .JO .JO .JO .JO .JO .JO .JO .JO .JO .JO .JO .JO .JO .JO .JO .JO .JO .JO .JO .JO .JO .JO .JO .JO .JO .JO .JO .JO .JO .JO .JO .JO .JO .JO .JO .JO .JO .JO .JO .JO .JO .JO O O O O 2HO 2HO 2HO 2HO 2HO 2HO 2HO 2HO 2HO 2HO 2HO 2HO 2HO 2HO 2HO 2HO 2HO 2HO 2HO 2HO 2HO 2HO 2HO 2HO 2HO 2HO 2HO 2HO 2HO 2HO 2HO 2HO 2HO 2HO 2HO 2HO 2HO 2HO 2HO 2HO 2HO 2HO 2HO 2HO 2HO 2HO 2HO 2HO 2HO 2HO 2HO 2HO 2HO 2HO 2HO 2HO 2HO 2HO 2HO 2HO 2HO 2HO 2HO 2HO 2HO 2HO 2HO 2HO 2HO 2HO 2HO 2HO 2HO 2HO 2HO 2HO 2HO 2HO 2HO 2HO 2HO 2HO 2HO 2HO 2HO 2HO 2HO 2HO 2HO 2HO 2HO 2HO 2HO 2HO 2HO 2HO 2HO 2HO 2HO 2HO 2HO 2HO 2HO 2HO 2HO 2HO 2HO 2HO 2HO 2HO 2HO 2HO 2HO 2HO 2HO 2HO 2HO 2HO 2HO 2HO 2HO 2HO 2HO 2HO 2HO 2HO 2HO 2HO 2HO 2HO 2HO 2HO 2HO 2HO 2HO 2HO 2HO 2HO 2HO 2HO 2HO 2HO 2HO 2HO 2HO 2HO 2HO 2HO 2HO 2HO 2HO 2HO 2HO 2HO 2HO 2HO 2HO 2HO 2HO 2HO O O O O O O O O O O 7FO 7FO 7FO 7FO 7FO 7FO 7FO 7FO 7FO 7FO 7FO 7FO 7FO 7FO 7FO 7FO 7FO 7FO 7FO 7FO 7FO 7FO 7FO 7FO 7FO 7FO 7FO 7FO 7FO 7FO 7FO 7FO 7FO 7FO 7FO 7FO 7FO 7FO 7FO 7FO 7FO 7FO 7FO 7FO 7FO 7FO 7FO 7FO 7FO 7FO 7FO 7FO 7FO 7FO 7FO 7FO 7FO 7FO 7FO 7FO 7FO 7FO 7FO 7FO 7FO 7FO 7FO 7FO 7FO 7FO 7FO 7FO 7FO 7FO 7FO 7FO 7FO 7FO 7FO 7FO 7FO 7FO 7FO 7FO 7FO 7FO 7FO 7FO 7FO 7FO 7FO 7FO 7FO 7FO 7FO 7FO 7FO 7FO 7FO 7FO 7FO 7FO 7FO 7FO 7FO 7FO 7FO 7FO 7FO 7FO 7FO 7FO 7FO 7FO 7FO 7FO 7FO 7FO 7FO 7FO 7FO 7FO 7FO 7FO 7FO 7FO 7FO 7FO 7FO 7FO 7FO 7FO 7FO 7FO 7FO 7FO 7FO 7FO 7FO 7FO 7FO 7FO 7FO 7FO 7FO 7FO 7FO 7FO 7FO 7FO 7FO 7FO 7FO O O O O O O O O O O O O O O O     -HQ -HQ -HQ -HQ -HQ -HQ -HQ -HQ -HQ -HQ -HQ -HQ -HQ -HQ -HQ -HQ -HQ -HQ -HQ -HQ -HQ -HQ -HQ -HQ -HQ -HQ -HQ -HQ -HQ -HQ -HQ -HQ -HQ -HQ -HQ -HQ -HQ -HQ -HQ -HQ -HQ -HQ -HQ -HQ -HQ -HQ -HQ -HQ -HQ -HQ -HQ -HQ -HQ -HQ -HQ -HQ -HQ -HQ -HQ -HQ -HQ -HQ -HQ -HQ -HQ -HQ -HQ -HQ -HQ -HQ -HQ -HQ -HQ -HQ -HQ -HQ -HQ -HQ -HQ -HQ -HQ -HQ -HQ -HQ -HQ -HQ -HQ -HQ -HQ -HQ -HQ -HQ -HQ -HQ -HQ -HQ -HQ -HQ -HQ -HQ -HQ -HQ -HQ -HQ -HQ -HQ -HQ -HQ -HQ -HQ -HQ -HQ -HQ -HQ -HQ -HQ -HQ -HQ -HQ -HQ -HQ -HQ -HQ -HQ -HQ -HQ -HQ -HQ -HQ -HQ -HQ -HQ -HQ -HQ -HQ -HQ -HQ -HQ -HQ -HQ -HQ -HQ -HQ -HQ -HQ -HQ -HQ -HQ -HQ -HQ -HQ -HQ -HQ -HQ -HQ -HQ -HQ -HQ -HQ -HQ -HQ -HQ -HQ -HQ -HQ -HQ -HQ -HQ Q Q Q Q 7FQ 7FQ 7FQ 7FQ 7FQ 7FQ 7FQ 7FQ 7FQ 7FQ 7FQ 7FQ 7FQ 7FQ 7FQ 7FQ 7FQ 7FQ 7FQ 7FQ 7FQ 7FQ 7FQ 7FQ 7FQ 7FQ 7FQ 7FQ 7FQ 7FQ 7FQ 7FQ 7FQ 7FQ 7FQ 7FQ 7FQ 7FQ 7FQ 7FQ 7FQ 7FQ 7FQ 7FQ 7FQ 7FQ 7FQ 7FQ 7FQ 7FQ 7FQ 7FQ 7FQ 7FQ 7FQ 7FQ 7FQ 7FQ 7FQ 7FQ 7FQ 7FQ 7FQ 7FQ 7FQ 7FQ 7FQ 7FQ 7FQ 7FQ 7FQ 7FQ 7FQ 7FQ 7FQ 7FQ 7FQ 7FQ 7FQ 7FQ 7FQ 7FQ 7FQ 7FQ 7FQ 7FQ 7FQ 7FQ 7FQ 7FQ 7FQ 7FQ 7FQ 7FQ 7FQ 7FQ 7FQ 7FQ 7FQ 7FQ 7FQ 7FQ 7FQ 7FQ 7FQ 7FQ 7FQ 7FQ 7FQ 7FQ 7FQ 7FQ 7FQ 7FQ 7FQ 7FQ 7FQ 7FQ 7FQ 7FQ 7FQ 7FQ 7FQ 7FQ 7FQ 7FQ 7FQ 7FQ 7FQ 7FQ 7FQ 7FQ 7FQ 7FQ 7FQ 7FQ 7FQ 7FQ 7FQ 7FQ 7FQ 7FQ 7FQ 7FQ 7FQ 7FQ 7FQ 7FQ 7FQ 7FQ 7FQ 7FQ 7FQ 7FQ 7FQ 7FQ 7FQ 7FQ 7FQ 7FQ Q Q Q Q Q Q Q Q Q Q E6Q E6Q E6Q E6Q E6Q E6Q E6Q E6Q E6Q E6Q E6Q E6Q E6Q E6Q E6Q E6Q E6Q E6Q E6Q E6Q E6Q E6Q E6Q E6Q E6Q E6Q E6Q E6Q E6Q E6Q E6Q E6Q E6Q E6Q E6Q E6Q E6Q E6Q E6Q E6Q E6Q E6Q E6Q E6Q E6Q E6Q E6Q E6Q E6Q E6Q E6Q E6Q E6Q E6Q E6Q E6Q E6Q E6Q E6Q E6Q E6Q E6Q E6Q E6Q E6Q E6Q E6Q E6Q E6Q E6Q E6Q E6Q E6Q E6Q E6Q E6Q E6Q E6Q E6Q E6Q E6Q E6Q E6Q E6Q E6Q E6Q E6Q E6Q E6Q E6Q E6Q E6Q E6Q E6Q E6Q E6Q E6Q E6Q E6Q E6Q E6Q E6Q E6Q E6Q E6Q E6Q E6Q E6Q E6Q E6Q E6Q E6Q E6Q E6Q E6Q E6Q E6Q E6Q E6Q E6Q E6Q E6Q E6Q E6Q E6Q E6Q E6Q E6Q E6Q E6Q E6Q E6Q E6Q E6Q E6Q E6Q E6Q E6Q E6Q E6Q E6Q E6Q E6Q E6Q E6Q E6Q E6Q E6Q E6Q E6Q E6Q E6Q E6Q Q Q Q Q Q Q Q Q Q Q Q Q Q Q Q Q Q Q 7QF 7QF 7QF 7QF 7QF 7QF 7QF 7QF 7QF 7QF 7QF 7QF 7QF 7QF 7QF 7QF 7QF 7QF 7QF 7QF 7QF 7QF 7QF 7QF 7QF 7QF 7QF 7QF 7QF 7QF 7QF 7QF 7QF 7QF 7QF 7QF 7QF 7QF 7QF 7QF 7QF 7QF 7QF 7QF 7QF 7QF 7QF 7QF 7QF 7QF 7QF 7QF 7QF 7QF 7QF 7QF 7QF 7QF 7QF 7QF 7QF 7QF 7QF 7QF 7QF 7QF 7QF 7QF 7QF 7QF 7QF 7QF 7QF 7QF 7QF 7QF 7QF 7QF 7QF 7QF 7QF 7QF 7QF 7QF 7QF 7QF 7QF 7QF 7QF 7QF 7QF 7QF 7QF 7QF 7QF 7QF 7QF 7QF 7QF 7QF 7QF 7QF 7QF 7QF 7QF 7QF 7QF 7QF 7QF 7QF 7QF 7QF 7QF 7QF 7QF 7QF 7QF 7QF 7QF 7QF 7QF 7QF 7QF 7QF 7QF 7QF 7QF 7QF 7QF 7QF 7QF 7QF 7QF 7QF 7QF 7QF 7QF 7QF 7QF 7QF 7QF 7QF 7QF 7QF 7QF 7QF 7QF 7QF 7QF 7QF 7QF 7QF 7QF 7QF 7QF 7QF 7QF 7QF 7QF 7QF 7QF 7QF 7QF 7QF 7QF 7QF 7QF 7QF QF QF QF QF :QF :QF :QF :QF :QF :QF :QF :QF :QF :QF :QF :QF :QF :QF :QF :QF :QF :QF :QF :QF :QF :QF :QF :QF :QF :QF :QF :QF :QF :QF :QF :QF :QF :QF :QF :QF :QF :QF :QF :QF :QF :QF :QF :QF :QF :QF :QF :QF :QF :QF :QF :QF :QF :QF :QF :QF :QF :QF :QF :QF :QF :QF :QF :QF :QF :QF :QF :QF :QF :QF :QF :QF :QF :QF :QF :QF :QF :QF :QF :QF :QF :QF :QF :QF :QF :QF :QF :QF :QF :QF :QF :QF :QF :QF :QF :QF :QF :QF :QF :QF :QF :QF :QF :QF :QF :QF :QF :QF :QF :QF :QF :QF :QF :QF :QF :QF :QF :QF :QF :QF :QF :QF :QF :QF :QF :QF :QF :QF :QF :QF :QF :QF :QF :QF :QF :QF :QF :QF :QF :QF :QF :QF :QF :QF :QF :QF :QF :QF :QF :QF :QF :QF :QF :QF :QF :QF :QF :QF :QF :QF QF QF QF QF QF QF QF QF QF QF 9QF 9QF 9QF 9QF 9QF 9QF 9QF 9QF 9QF 9QF 9QF 9QF 9QF 9QF 9QF 9QF 9QF 9QF 9QF 9QF 9QF 9QF 9QF 9QF 9QF 9QF 9QF 9QF 9QF 9QF 9QF 9QF 9QF 9QF 9QF 9QF 9QF 9QF 9QF 9QF 9QF 9QF 9QF 9QF 9QF 9QF 9QF 9QF 9QF 9QF 9QF 9QF 9QF 9QF 9QF 9QF 9QF 9QF 9QF 9QF 9QF 9QF 9QF 9QF 9QF 9QF 9QF 9QF 9QF 9QF 9QF 9QF 9QF 9QF 9QF 9QF 9QF 9QF 9QF 9QF 9QF 9QF 9QF 9QF 9QF 9QF 9QF 9QF 9QF 9QF 9QF 9QF 9QF 9QF 9QF 9QF 9QF 9QF 9QF 9QF 9QF 9QF 9QF 9QF 9QF 9QF 9QF 9QF 9QF 9QF 9QF 9QF 9QF 9QF 9QF 9QF 9QF 9QF 9QF 9QF 9QF 9QF 9QF 9QF 9QF 9QF 9QF 9QF 9QF 9QF 9QF 9QF 9QF 9QF 9QF 9QF 9QF 9QF 9QF 9QF 9QF 9QF 9QF 9QF 9QF 9QF 9QF 9QF 9QF 9QF 9QF 9QF 9QF QF QF QF QF QF QF QF QF QF QF QF QF QF QF QF F F F F :FO :FO :FO :FO :FO :FO :FO :FO :FO :FO :FO :FO :FO :FO :FO :FO :FO :FO :FO :FO :FO :FO :FO :FO :FO :FO :FO :FO :FO :FO :FO :FO :FO :FO :FO :FO :FO :FO :FO :FO :FO :FO :FO :FO :FO :FO :FO :FO :FO :FO :FO :FO :FO :FO :FO :FO :FO :FO :FO :FO :FO :FO :FO :FO :FO :FO :FO :FO :FO :FO :FO :FO :FO :FO :FO :FO :FO :FO :FO :FO :FO :FO :FO :FO :FO :FO :FO :FO :FO :FO :FO :FO :FO :FO :FO :FO :FO :FO :FO :FO :FO :FO :FO :FO :FO :FO :FO :FO :FO :FO :FO :FO :FO :FO :FO :FO :FO :FO :FO :FO :FO :FO :FO :FO :FO :FO :FO :FO :FO :FO :FO :FO :FO :FO :FO :FO :FO :FO :FO :FO :FO :FO :FO :FO :FO :FO :FO :FO :FO :FO :FO :FO :FO :FO :FO :FO :FO :FO :FO :FO :FO :FO :FO :FO :FO :FO :FO :FO FO FO FO FO >FO >FO >FO >FO >FO >FO >FO >FO >FO >FO >FO >FO >FO >FO >FO >FO >FO >FO >FO >FO >FO >FO >FO >FO >FO >FO >FO >FO >FO >FO >FO >FO >FO >FO >FO >FO >FO >FO >FO >FO >FO >FO >FO >FO >FO >FO >FO >FO >FO >FO >FO >FO >FO >FO >FO >FO >FO >FO >FO >FO >FO >FO >FO >FO >FO >FO >FO >FO >FO >FO >FO >FO >FO >FO >FO >FO >FO >FO >FO >FO >FO >FO >FO >FO >FO >FO >FO >FO >FO >FO >FO >FO >FO >FO >FO >FO >FO >FO >FO >FO >FO >FO >FO >FO >FO >FO >FO >FO >FO >FO >FO >FO >FO >FO >FO >FO >FO >FO >FO >FO >FO >FO >FO >FO >FO >FO >FO >FO >FO >FO >FO >FO >FO >FO >FO >FO >FO >FO >FO >FO >FO >FO >FO >FO >FO >FO >FO >FO >FO >FO >FO >FO >FO >FO >FO >FO >FO >FO >FO >FO FO FO FO FO FO FO FO FO FO FO <FO <FO <FO <FO <FO <FO <FO <FO <FO <FO <FO <FO <FO <FO <FO <FO <FO <FO <FO <FO <FO <FO <FO <FO <FO <FO <FO <FO <FO <FO <FO <FO <FO <FO <FO <FO <FO <FO <FO <FO <FO <FO <FO <FO <FO <FO <FO <FO <FO <FO <FO <FO <FO <FO <FO <FO <FO <FO <FO <FO <FO <FO <FO <FO <FO <FO <FO <FO <FO <FO <FO <FO <FO <FO <FO <FO <FO <FO <FO <FO <FO <FO <FO <FO <FO <FO <FO <FO <FO <FO <FO <FO <FO <FO <FO <FO <FO <FO <FO <FO <FO <FO <FO <FO <FO <FO <FO <FO <FO <FO <FO <FO <FO <FO <FO <FO <FO <FO <FO <FO <FO <FO <FO <FO <FO <FO <FO <FO <FO <FO <FO <FO <FO <FO <FO <FO <FO <FO <FO <FO <FO <FO <FO <FO <FO <FO <FO <FO <FO <FO <FO <FO <FO FO FO FO FO FO FO FO FO FO FO FO FO FO FO FO FO O O O>E O>E O>E O>E O>E O>E O>E O>E O>E O>E O>E O>E O>E O>E O>E O>E O>E O>E O>E O>E O>E O>E O>E O>E O>E O>E O>E O>E O>E O>E O>E O>E O>E O>E O>E O>E O>E O>E O>E O>E O>E O>E O>E O>E O>E O>E O>E O>E O>E O>E O>E O>E O>E O>E O>E O>E O>E O>E O>E O>E O>E O>E O>E O>E O>E O>E O>E O>E O>E O>E O>E O>E O>E O>E O>E O>E O>E O>E O>E O>E O>E O>E O>E O>E O>E O>E O>E O>E O>E O>E O>E O>E O>E O>E O>E O>E O>E O>E O>E O>E O>E O>E O>E O>E O>E O>E O>E O>E O>E O>E O>E O>E O>E O>E O>E O>E O>E O>E O>E O>E O>E O>E O>E O>E O>E O>E O>E O>E O>E O>E O>E O>E O>E O>E O>E O>E O>E O>E O>E O>E O>E O>E O>E O>E O>E O>E O>E O>E O>E O>E O>E O>E O>E O>E O>E O>E O>E O>E O>E O>E O>E O>E O>E O>E O>E O>E O>E O>E O>E >E >E >E M>E M>E M>E M>E M>E M>E M>E M>E M>E M>E M>E M>E M>E M>E M>E M>E M>E M>E M>E M>E M>E M>E M>E M>E M>E M>E M>E M>E M>E M>E M>E M>E M>E M>E M>E M>E M>E M>E M>E M>E M>E M>E M>E M>E M>E M>E M>E M>E M>E M>E M>E M>E M>E M>E M>E M>E M>E M>E M>E M>E M>E M>E M>E M>E M>E M>E M>E M>E M>E M>E M>E M>E M>E M>E M>E M>E M>E M>E M>E M>E M>E M>E M>E M>E M>E M>E M>E M>E M>E M>E M>E M>E M>E M>E M>E M>E M>E M>E M>E M>E M>E M>E M>E M>E M>E M>E M>E M>E M>E M>E M>E M>E M>E M>E M>E M>E M>E M>E M>E M>E M>E M>E M>E M>E M>E M>E M>E M>E M>E M>E M>E M>E M>E M>E M>E M>E M>E M>E M>E M>E M>E M>E M>E M>E M>E M>E M>E M>E M>E M>E M>E M>E M>E M>E M>E M>E M>E M>E M>E M>E >E >E >E >E >E >E >E >E >E >E L>E L>E L>E L>E L>E L>E L>E L>E L>E L>E L>E L>E L>E L>E L>E L>E L>E L>E L>E L>E L>E L>E L>E L>E L>E L>E L>E L>E L>E L>E L>E L>E L>E L>E L>E L>E L>E L>E L>E L>E L>E L>E L>E L>E L>E L>E L>E L>E L>E L>E L>E L>E L>E L>E L>E L>E L>E L>E L>E L>E L>E L>E L>E L>E L>E L>E L>E L>E L>E L>E L>E L>E L>E L>E L>E L>E L>E L>E L>E L>E L>E L>E L>E L>E L>E L>E L>E L>E L>E L>E L>E L>E L>E L>E L>E L>E L>E L>E L>E L>E L>E L>E L>E L>E L>E L>E L>E L>E L>E L>E L>E L>E L>E L>E L>E L>E L>E L>E L>E L>E L>E L>E L>E L>E L>E L>E L>E L>E L>E L>E L>E L>E L>E L>E L>E L>E L>E L>E L>E L>E L>E L>E L>E L>E L>E L>E L>E L>E L>E L>E L>E L>E L>E >E >E >E >E >E >E >E >E >E >E >E >E >E >E >E >E >E >E >E >EM >EM >EM >EM >EM >EM >EM >EM >EM >EM >EM >EM >EM >EM >EM >EM >EM >EM >EM >EM >EM >EM >EM >EM >EM >EM >EM >EM >EM >EM >EM >EM >EM >EM >EM >EM >EM >EM >EM >EM >EM >EM >EM >EM >EM >EM >EM >EM >EM >EM >EM >EM >EM >EM >EM >EM >EM >EM >EM >EM >EM >EM >EM >EM >EM >EM >EM >EM >EM >EM >EM >EM >EM >EM >EM >EM >EM >EM >EM >EM >EM >EM >EM >EM >EM >EM >EM >EM >EM >EM >EM >EM >EM >EM >EM >EM >EM >EM >EM >EM >EM >EM >EM >EM >EM >EM >EM >EM >EM >EM >EM >EM >EM >EM >EM >EM >EM >EM >EM >EM >EM >EM >EM >EM >EM >EM >EM >EM >EM >EM >EM >EM >EM >EM >EM >EM >EM >EM >EM >EM >EM >EM >EM >EM >EM >EM >EM >EM >EM >EM >EM >EM >EM >EM >EM >EM >EM >EM >EM >EM >EM >EM >EM >EM >EM >EM >EM >EM EM EM EM EM 9EM 9EM 9EM 9EM 9EM 9EM 9EM 9EM 9EM 9EM 9EM 9EM 9EM 9EM 9EM 9EM 9EM 9EM 9EM 9EM 9EM 9EM 9EM 9EM 9EM 9EM 9EM 9EM 9EM 9EM 9EM 9EM 9EM 9EM 9EM 9EM 9EM 9EM 9EM 9EM 9EM 9EM 9EM 9EM 9EM 9EM 9EM 9EM 9EM 9EM 9EM 9EM 9EM 9EM 9EM 9EM 9EM 9EM 9EM 9EM 9EM 9EM 9EM 9EM 9EM 9EM 9EM 9EM 9EM 9EM 9EM 9EM 9EM 9EM 9EM 9EM 9EM 9EM 9EM 9EM 9EM 9EM 9EM 9EM 9EM 9EM 9EM 9EM 9EM 9EM 9EM 9EM 9EM 9EM 9EM 9EM 9EM 9EM 9EM 9EM 9EM 9EM 9EM 9EM 9EM 9EM 9EM 9EM 9EM 9EM 9EM 9EM 9EM 9EM 9EM 9EM 9EM 9EM 9EM 9EM 9EM 9EM 9EM 9EM 9EM 9EM 9EM 9EM 9EM 9EM 9EM 9EM 9EM 9EM 9EM 9EM 9EM 9EM 9EM 9EM 9EM 9EM 9EM 9EM 9EM 9EM 9EM 9EM 9EM 9EM 9EM 9EM 9EM 9EM 9EM 9EM 9EM 9EM 9EM 9EM EM EM EM EM EM EM EM EM EM EM 2EM 2EM 2EM 2EM 2EM 2EM 2EM 2EM 2EM 2EM 2EM 2EM 2EM 2EM 2EM 2EM 2EM 2EM 2EM 2EM 2EM 2EM 2EM 2EM 2EM 2EM 2EM 2EM 2EM 2EM 2EM 2EM 2EM 2EM 2EM 2EM 2EM 2EM 2EM 2EM 2EM 2EM 2EM 2EM 2EM 2EM 2EM 2EM 2EM 2EM 2EM 2EM 2EM 2EM 2EM 2EM 2EM 2EM 2EM 2EM 2EM 2EM 2EM 2EM 2EM 2EM 2EM 2EM 2EM 2EM 2EM 2EM 2EM 2EM 2EM 2EM 2EM 2EM 2EM 2EM 2EM 2EM 2EM 2EM 2EM 2EM 2EM 2EM 2EM 2EM 2EM 2EM 2EM 2EM 2EM 2EM 2EM 2EM 2EM 2EM 2EM 2EM 2EM 2EM 2EM 2EM 2EM 2EM 2EM 2EM 2EM 2EM 2EM 2EM 2EM 2EM 2EM 2EM 2EM 2EM 2EM 2EM 2EM 2EM 2EM 2EM 2EM 2EM 2EM 2EM 2EM 2EM 2EM 2EM 2EM 2EM 2EM 2EM 2EM 2EM 2EM 2EM 2EM 2EM 2EM 2EM 2EM 2EM 2EM 2EM 2EM 2EM 2EM EM EM EM EM EM EM EM EM EM EM EM EM EM EM EM EM M M M 3MC 3MC 3MC 3MC 3MC 3MC 3MC 3MC 3MC 3MC 3MC 3MC 3MC 3MC 3MC 3MC 3MC 3MC 3MC 3MC 3MC 3MC 3MC 3MC 3MC 3MC 3MC 3MC 3MC 3MC 3MC 3MC 3MC 3MC 3MC 3MC 3MC 3MC 3MC 3MC 3MC 3MC 3MC 3MC 3MC 3MC 3MC 3MC 3MC 3MC 3MC 3MC 3MC 3MC 3MC 3MC 3MC 3MC 3MC 3MC 3MC 3MC 3MC 3MC 3MC 3MC 3MC 3MC 3MC 3MC 3MC 3MC 3MC 3MC 3MC 3MC 3MC 3MC 3MC 3MC 3MC 3MC 3MC 3MC 3MC 3MC 3MC 3MC 3MC 3MC 3MC 3MC 3MC 3MC 3MC 3MC 3MC 3MC 3MC 3MC 3MC 3MC 3MC 3MC 3MC 3MC 3MC 3MC 3MC 3MC 3MC 3MC 3MC 3MC 3MC 3MC 3MC 3MC 3MC 3MC 3MC 3MC 3MC 3MC 3MC 3MC 3MC 3MC 3MC 3MC 3MC 3MC 3MC 3MC 3MC 3MC 3MC 3MC 3MC 3MC 3MC 3MC 3MC 3MC 3MC 3MC 3MC 3MC 3MC 3MC 3MC 3MC 3MC 3MC 3MC 3MC 3MC 3MC 3MC 3MC 3MC 3MC 3MC 3MC 3MC 3MC 3MC 3MC MC MC MC 7MC 7MC 7MC 7MC 7MC 7MC 7MC 7MC 7MC 7MC 7MC 7MC 7MC 7MC 7MC 7MC 7MC 7MC 7MC 7MC 7MC 7MC 7MC 7MC 7MC 7MC 7MC 7MC 7MC 7MC 7MC 7MC 7MC 7MC 7MC 7MC 7MC 7MC 7MC 7MC 7MC 7MC 7MC 7MC 7MC 7MC 7MC 7MC 7MC 7MC 7MC 7MC 7MC 7MC 7MC 7MC 7MC 7MC 7MC 7MC 7MC 7MC 7MC 7MC 7MC 7MC 7MC 7MC 7MC 7MC 7MC 7MC 7MC 7MC 7MC 7MC 7MC 7MC 7MC 7MC 7MC 7MC 7MC 7MC 7MC 7MC 7MC 7MC 7MC 7MC 7MC 7MC 7MC 7MC 7MC 7MC 7MC 7MC 7MC 7MC 7MC 7MC 7MC 7MC 7MC 7MC 7MC 7MC 7MC 7MC 7MC 7MC 7MC 7MC 7MC 7MC 7MC 7MC 7MC 7MC 7MC 7MC 7MC 7MC 7MC 7MC 7MC 7MC 7MC 7MC 7MC 7MC 7MC 7MC 7MC 7MC 7MC 7MC 7MC 7MC 7MC 7MC 7MC 7MC 7MC 7MC 7MC 7MC 7MC 7MC 7MC 7MC 7MC 7MC 7MC 7MC 7MC 7MC 7MC 7MC MC MC MC MC MC MC MC MC MC MC 5MC 5MC 5MC 5MC 5MC 5MC 5MC 5MC 5MC 5MC 5MC 5MC 5MC 5MC 5MC 5MC 5MC 5MC 5MC 5MC 5MC 5MC 5MC 5MC 5MC 5MC 5MC 5MC 5MC 5MC 5MC 5MC 5MC 5MC 5MC 5MC 5MC 5MC 5MC 5MC 5MC 5MC 5MC 5MC 5MC 5MC 5MC 5MC 5MC 5MC 5MC 5MC 5MC 5MC 5MC 5MC 5MC 5MC 5MC 5MC 5MC 5MC 5MC 5MC 5MC 5MC 5MC 5MC 5MC 5MC 5MC 5MC 5MC 5MC 5MC 5MC 5MC 5MC 5MC 5MC 5MC 5MC 5MC 5MC 5MC 5MC 5MC 5MC 5MC 5MC 5MC 5MC 5MC 5MC 5MC 5MC 5MC 5MC 5MC 5MC 5MC 5MC 5MC 5MC 5MC 5MC 5MC 5MC 5MC 5MC 5MC 5MC 5MC 5MC 5MC 5MC 5MC 5MC 5MC 5MC 5MC 5MC 5MC 5MC 5MC 5MC 5MC 5MC 5MC 5MC 5MC 5MC 5MC 5MC 5MC 5MC 5MC 5MC 5MC 5MC 5MC 5MC 5MC 5MC 5MC 5MC 5MC 5MC 5MC 5MC 5MC 5MC 5MC MC MC MC MC MC MC MC MC MC MC MC MC MC MC MC C C C C 7CK 7CK 7CK 7CK 7CK 7CK 7CK 7CK 7CK 7CK 7CK 7CK 7CK 7CK 7CK 7CK 7CK 7CK 7CK 7CK 7CK 7CK 7CK 7CK 7CK 7CK 7CK 7CK 7CK 7CK 7CK 7CK 7CK 7CK 7CK 7CK 7CK 7CK 7CK 7CK 7CK 7CK 7CK 7CK 7CK 7CK 7CK 7CK 7CK 7CK 7CK 7CK 7CK 7CK 7CK 7CK 7CK 7CK 7CK 7CK 7CK 7CK 7CK 7CK 7CK 7CK 7CK 7CK 7CK 7CK 7CK 7CK 7CK 7CK 7CK 7CK 7CK 7CK 7CK 7CK 7CK 7CK 7CK 7CK 7CK 7CK 7CK 7CK 7CK 7CK 7CK 7CK 7CK 7CK 7CK 7CK 7CK 7CK 7CK 7CK 7CK 7CK 7CK 7CK 7CK 7CK 7CK 7CK 7CK 7CK 7CK 7CK 7CK 7CK 7CK 7CK 7CK 7CK 7CK 7CK 7CK 7CK 7CK 7CK 7CK 7CK 7CK 7CK 7CK 7CK 7CK 7CK 7CK 7CK 7CK 7CK 7CK 7CK 7CK 7CK 7CK 7CK 7CK 7CK 7CK 7CK 7CK 7CK 7CK 7CK 7CK 7CK 7CK 7CK 7CK 7CK 7CK 7CK 7CK 7CK 7CK 7CK 7CK 7CK 7CK 7CK 7CK 7CK CK CK CK CK :CK :CK :CK :CK :CK :CK :CK :CK :CK :CK :CK :CK :CK :CK :CK :CK :CK :CK :CK :CK :CK :CK :CK :CK :CK :CK :CK :CK :CK :CK :CK :CK :CK :CK :CK :CK :CK :CK :CK :CK :CK :CK :CK :CK :CK :CK :CK :CK :CK :CK :CK :CK :CK :CK :CK :CK :CK :CK :CK :CK :CK :CK :CK :CK :CK :CK :CK :CK :CK :CK :CK :CK :CK :CK :CK :CK :CK :CK :CK :CK :CK :CK :CK :CK :CK :CK :CK :CK :CK :CK :CK :CK :CK :CK :CK :CK :CK :CK :CK :CK :CK :CK :CK :CK :CK :CK :CK :CK :CK :CK :CK :CK :CK :CK :CK :CK :CK :CK :CK :CK :CK :CK :CK :CK :CK :CK :CK :CK :CK :CK :CK :CK :CK :CK :CK :CK :CK :CK :CK :CK :CK :CK :CK :CK :CK :CK :CK :CK :CK :CK :CK :CK :CK :CK :CK :CK :CK :CK :CK :CK CK CK CK CK CK CK CK CK CK CK 9CK 9CK 9CK 9CK 9CK 9CK 9CK 9CK 9CK 9CK 9CK 9CK 9CK 9CK 9CK 9CK 9CK 9CK 9CK 9CK 9CK 9CK 9CK 9CK 9CK 9CK 9CK 9CK 9CK 9CK 9CK 9CK 9CK 9CK 9CK 9CK 9CK 9CK 9CK 9CK 9CK 9CK 9CK 9CK 9CK 9CK 9CK 9CK 9CK 9CK 9CK 9CK 9CK 9CK 9CK 9CK 9CK 9CK 9CK 9CK 9CK 9CK 9CK 9CK 9CK 9CK 9CK 9CK 9CK 9CK 9CK 9CK 9CK 9CK 9CK 9CK 9CK 9CK 9CK 9CK 9CK 9CK 9CK 9CK 9CK 9CK 9CK 9CK 9CK 9CK 9CK 9CK 9CK 9CK 9CK 9CK 9CK 9CK 9CK 9CK 9CK 9CK 9CK 9CK 9CK 9CK 9CK 9CK 9CK 9CK 9CK 9CK 9CK 9CK 9CK 9CK 9CK 9CK 9CK 9CK 9CK 9CK 9CK 9CK 9CK 9CK 9CK 9CK 9CK 9CK 9CK 9CK 9CK 9CK 9CK 9CK 9CK 9CK 9CK 9CK 9CK 9CK 9CK 9CK 9CK 9CK 9CK 9CK 9CK 9CK 9CK 9CK 9CK CK CK CK CK CK CK CK CK CK CK CK CK CK CK CK CK CK K K K:A K:A K:A K:A K:A K:A K:A K:A K:A K:A K:A K:A K:A K:A K:A K:A K:A K:A K:A K:A K:A K:A K:A K:A K:A K:A K:A K:A K:A K:A K:A K:A K:A K:A K:A K:A K:A K:A K:A K:A K:A K:A K:A K:A K:A K:A K:A K:A K:A K:A K:A K:A K:A K:A K:A K:A K:A K:A K:A K:A K:A K:A K:A K:A K:A K:A K:A K:A K:A K:A K:A K:A K:A K:A K:A K:A K:A K:A K:A K:A K:A K:A K:A K:A K:A K:A K:A K:A K:A K:A K:A K:A K:A K:A K:A K:A K:A K:A K:A K:A K:A K:A K:A K:A K:A K:A K:A K:A K:A K:A K:A K:A K:A K:A K:A K:A K:A K:A K:A K:A K:A K:A K:A K:A K:A K:A K:A K:A K:A K:A K:A K:A K:A K:A K:A K:A K:A K:A K:A K:A K:A K:A K:A K:A K:A K:A K:A K:A K:A K:A K:A K:A K:A K:A K:A K:A K:A K:A K:A K:A K:A K:A K:A K:A K:A K:A K:A K:A :A :A :A J:A J:A J:A J:A J:A J:A J:A J:A J:A J:A J:A J:A J:A J:A J:A J:A J:A J:A J:A J:A J:A J:A J:A J:A J:A J:A J:A J:A J:A J:A J:A J:A J:A J:A J:A J:A J:A J:A J:A J:A J:A J:A J:A J:A J:A J:A J:A J:A J:A J:A J:A J:A J:A J:A J:A J:A J:A J:A J:A J:A J:A J:A J:A J:A J:A J:A J:A J:A J:A J:A J:A J:A J:A J:A J:A J:A J:A J:A J:A J:A J:A J:A J:A J:A J:A J:A J:A J:A J:A J:A J:A J:A J:A J:A J:A J:A J:A J:A J:A J:A J:A J:A J:A J:A J:A J:A J:A J:A J:A J:A J:A J:A J:A J:A J:A J:A J:A J:A J:A J:A J:A J:A J:A J:A J:A J:A J:A J:A J:A J:A J:A J:A J:A J:A J:A J:A J:A J:A J:A J:A J:A J:A J:A J:A J:A J:A J:A J:A J:A J:A J:A J:A J:A J:A J:A J:A J:A J:A J:A J:A :A :A :A :A :A :A :A :A :A :A H:A H:A H:A H:A H:A H:A H:A H:A H:A H:A H:A H:A H:A H:A H:A H:A H:A H:A H:A H:A H:A H:A H:A H:A H:A H:A H:A H:A H:A H:A H:A H:A H:A H:A H:A H:A H:A H:A H:A H:A H:A H:A H:A H:A H:A H:A H:A H:A H:A H:A H:A H:A H:A H:A H:A H:A H:A H:A H:A H:A H:A H:A H:A H:A H:A H:A H:A H:A H:A H:A H:A H:A H:A H:A H:A H:A H:A H:A H:A H:A H:A H:A H:A H:A H:A H:A H:A H:A H:A H:A H:A H:A H:A H:A H:A H:A H:A H:A H:A H:A H:A H:A H:A H:A H:A H:A H:A H:A H:A H:A H:A H:A H:A H:A H:A H:A H:A H:A H:A H:A H:A H:A H:A H:A H:A H:A H:A H:A H:A H:A H:A H:A H:A H:A H:A H:A H:A H:A H:A H:A H:A H:A H:A H:A H:A H:A H:A H:A H:A H:A H:A H:A H:A :A :A :A :A :A :A :A :A :A :A :A :A :A :A :A :A :A :A :A :AJ :AJ :AJ :AJ :AJ :AJ :AJ :AJ :AJ :AJ :AJ :AJ :AJ :AJ :AJ :AJ :AJ :AJ :AJ :AJ :AJ :AJ :AJ :AJ :AJ :AJ :AJ :AJ :AJ :AJ :AJ :AJ :AJ :AJ :AJ :AJ :AJ :AJ :AJ :AJ :AJ :AJ :AJ :AJ :AJ :AJ :AJ :AJ :AJ :AJ :AJ :AJ :AJ :AJ :AJ :AJ :AJ :AJ :AJ :AJ :AJ :AJ :AJ :AJ :AJ :AJ :AJ :AJ :AJ :AJ :AJ :AJ :AJ :AJ :AJ :AJ :AJ :AJ :AJ :AJ :AJ :AJ :AJ :AJ :AJ :AJ :AJ :AJ :AJ :AJ :AJ :AJ :AJ :AJ :AJ :AJ :AJ :AJ :AJ :AJ :AJ :AJ :AJ :AJ :AJ :AJ :AJ :AJ :AJ :AJ :AJ :AJ :AJ :AJ :AJ :AJ :AJ :AJ :AJ :AJ :AJ :AJ :AJ :AJ :AJ :AJ :AJ :AJ :AJ :AJ :AJ :AJ :AJ :AJ :AJ :AJ :AJ :AJ :AJ :AJ :AJ :AJ :AJ :AJ :AJ :AJ :AJ :AJ :AJ :AJ :AJ :AJ :AJ :AJ :AJ :AJ :AJ :AJ :AJ :AJ :AJ :AJ :AJ :AJ :AJ :AJ :AJ :AJ :AJ AJ AJ AJ 5AJ 5AJ 5AJ 5AJ 5AJ 5AJ 5AJ 5AJ 5AJ 5AJ 5AJ 5AJ 5AJ 5AJ 5AJ 5AJ 5AJ 5AJ 5AJ 5AJ 5AJ 5AJ 5AJ 5AJ 5AJ 5AJ 5AJ 5AJ 5AJ 5AJ 5AJ 5AJ 5AJ 5AJ 5AJ 5AJ 5AJ 5AJ 5AJ 5AJ 5AJ 5AJ 5AJ 5AJ 5AJ 5AJ 5AJ 5AJ 5AJ 5AJ 5AJ 5AJ 5AJ 5AJ 5AJ 5AJ 5AJ 5AJ 5AJ 5AJ 5AJ 5AJ 5AJ 5AJ 5AJ 5AJ 5AJ 5AJ 5AJ 5AJ 5AJ 5AJ 5AJ 5AJ 5AJ 5AJ 5AJ 5AJ 5AJ 5AJ 5AJ 5AJ 5AJ 5AJ 5AJ 5AJ 5AJ 5AJ 5AJ 5AJ 5AJ 5AJ 5AJ 5AJ 5AJ 5AJ 5AJ 5AJ 5AJ 5AJ 5AJ 5AJ 5AJ 5AJ 5AJ 5AJ 5AJ 5AJ 5AJ 5AJ 5AJ 5AJ 5AJ 5AJ 5AJ 5AJ 5AJ 5AJ 5AJ 5AJ 5AJ 5AJ 5AJ 5AJ 5AJ 5AJ 5AJ 5AJ 5AJ 5AJ 5AJ 5AJ 5AJ 5AJ 5AJ 5AJ 5AJ 5AJ 5AJ 5AJ 5AJ 5AJ 5AJ 5AJ 5AJ 5AJ 5AJ 5AJ 5AJ 5AJ 5AJ 5AJ 5AJ 5AJ 5AJ 5AJ 5AJ 5AJ 5AJ 5AJ AJ AJ AJ AJ AJ AJ AJ AJ AJ AJ .AJ .AJ .AJ .AJ .AJ .AJ .AJ .AJ .AJ .AJ .AJ .AJ .AJ .AJ .AJ .AJ .AJ .AJ .AJ .AJ .AJ .AJ .AJ .AJ .AJ .AJ .AJ .AJ .AJ .AJ .AJ .AJ .AJ .AJ .AJ .AJ .AJ .AJ .AJ .AJ .AJ .AJ .AJ .AJ .AJ .AJ .AJ .AJ .AJ .AJ .AJ .AJ .AJ .AJ .AJ .AJ .AJ .AJ .AJ .AJ .AJ .AJ .AJ .AJ .AJ .AJ .AJ .AJ .AJ .AJ .AJ .AJ .AJ .AJ .AJ .AJ .AJ .AJ .AJ .AJ .AJ .AJ .AJ .AJ .AJ .AJ .AJ .AJ .AJ .AJ .AJ .AJ .AJ .AJ .AJ .AJ .AJ .AJ .AJ .AJ .AJ .AJ .AJ .AJ .AJ .AJ .AJ .AJ .AJ .AJ .AJ .AJ .AJ .AJ .AJ .AJ .AJ .AJ .AJ .AJ .AJ .AJ .AJ .AJ .AJ .AJ .AJ .AJ .AJ .AJ .AJ .AJ .AJ .AJ .AJ .AJ .AJ .AJ .AJ .AJ .AJ .AJ .AJ .AJ .AJ .AJ .AJ .AJ .AJ .AJ .AJ .AJ .AJ AJ AJ AJ AJ AJ AJ AJ AJ AJ AJ AJ AJ AJ AJ AJ AJ AJ J J 0J? 0J? 0J? 0J? 0J? 0J? 0J? 0J? 0J? 0J? 0J? 0J? 0J? 0J? 0J? 0J? 0J? 0J? 0J? 0J? 0J? 0J? 0J? 0J? 0J? 0J? 0J? 0J? 0J? 0J? 0J? 0J? 0J? 0J? 0J? 0J? 0J? 0J? 0J? 0J? 0J? 0J? 0J? 0J? 0J? 0J? 0J? 0J? 0J? 0J? 0J? 0J? 0J? 0J? 0J? 0J? 0J? 0J? 0J? 0J? 0J? 0J? 0J? 0J? 0J? 0J? 0J? 0J? 0J? 0J? 0J? 0J? 0J? 0J? 0J? 0J? 0J? 0J? 0J? 0J? 0J? 0J? 0J? 0J? 0J? 0J? 0J? 0J? 0J? 0J? 0J? 0J? 0J? 0J? 0J? 0J? 0J? 0J? 0J? 0J? 0J? 0J? 0J? 0J? 0J? 0J? 0J? 0J? 0J? 0J? 0J? 0J? 0J? 0J? 0J? 0J? 0J? 0J? 0J? 0J? 0J? 0J? 0J? 0J? 0J? 0J? 0J? 0J? 0J? 0J? 0J? 0J? 0J? 0J? 0J? 0J? 0J? 0J? 0J? 0J? 0J? 0J? 0J? 0J? 0J? 0J? 0J? 0J? 0J? 0J? 0J? 0J? 0J? 0J? 0J? 0J? 0J? 0J? 0J? 0J? 0J? 0J? 0J? 0J? 0J? 0J? 0J? 0J? J? J? J? 3J? 3J? 3J? 3J? 3J? 3J? 3J? 3J? 3J? 3J? 3J? 3J? 3J? 3J? 3J? 3J? 3J? 3J? 3J? 3J? 3J? 3J? 3J? 3J? 3J? 3J? 3J? 3J? 3J? 3J? 3J? 3J? 3J? 3J? 3J? 3J? 3J? 3J? 3J? 3J? 3J? 3J? 3J? 3J? 3J? 3J? 3J? 3J? 3J? 3J? 3J? 3J? 3J? 3J? 3J? 3J? 3J? 3J? 3J? 3J? 3J? 3J? 3J? 3J? 3J? 3J? 3J? 3J? 3J? 3J? 3J? 3J? 3J? 3J? 3J? 3J? 3J? 3J? 3J? 3J? 3J? 3J? 3J? 3J? 3J? 3J? 3J? 3J? 3J? 3J? 3J? 3J? 3J? 3J? 3J? 3J? 3J? 3J? 3J? 3J? 3J? 3J? 3J? 3J? 3J? 3J? 3J? 3J? 3J? 3J? 3J? 3J? 3J? 3J? 3J? 3J? 3J? 3J? 3J? 3J? 3J? 3J? 3J? 3J? 3J? 3J? 3J? 3J? 3J? 3J? 3J? 3J? 3J? 3J? 3J? 3J? 3J? 3J? 3J? 3J? 3J? 3J? 3J? 3J? 3J? 3J? 3J? 3J? 3J? 3J? 3J? 3J? 3J? 3J? 3J? 3J? 3J? 3J? 3J? 3J? J? J? J? J? J? J? J? J? J? J? J? 2J? 2J? 2J? 2J? 2J? 2J? 2J? 2J? 2J? 2J? 2J? 2J? 2J? 2J? 2J? 2J? 2J? 2J? 2J? 2J? 2J? 2J? 2J? 2J? 2J? 2J? 2J? 2J? 2J? 2J? 2J? 2J? 2J? 2J? 2J? 2J? 2J? 2J? 2J? 2J? 2J? 2J? 2J? 2J? 2J? 2J? 2J? 2J? 2J? 2J? 2J? 2J? 2J? 2J? 2J? 2J? 2J? 2J? 2J? 2J? 2J? 2J? 2J? 2J? 2J? 2J? 2J? 2J? 2J? 2J? 2J? 2J? 2J? 2J? 2J? 2J? 2J? 2J? 2J? 2J? 2J? 2J? 2J? 2J? 2J? 2J? 2J? 2J? 2J? 2J? 2J? 2J? 2J? 2J? 2J? 2J? 2J? 2J? 2J? 2J? 2J? 2J? 2J? 2J? 2J? 2J? 2J? 2J? 2J? 2J? 2J? 2J? 2J? 2J? 2J? 2J? 2J? 2J? 2J? 2J? 2J? 2J? 2J? 2J? 2J? 2J? 2J? 2J? 2J? 2J? 2J? 2J? 2J? 2J? 2J? 2J? 2J? 2J? 2J? 2J? 2J? 2J? 2J? 2J? 2J? 2J? 2J? 2J? 2J? 2J? 2J? 2J? 2J? J? J? J? J? J? J? J? J? J? J? J? J? J? J? ? ? ? ? 3?H 3?H 3?H 3?H 3?H 3?H 3?H 3?H 3?H 3?H 3?H 3?H 3?H 3?H 3?H 3?H 3?H 3?H 3?H 3?H 3?H 3?H 3?H 3?H 3?H 3?H 3?H 3?H 3?H 3?H 3?H 3?H 3?H 3?H 3?H 3?H 3?H 3?H 3?H 3?H 3?H 3?H 3?H 3?H 3?H 3?H 3?H 3?H 3?H 3?H 3?H 3?H 3?H 3?H 3?H 3?H 3?H 3?H 3?H 3?H 3?H 3?H 3?H 3?H 3?H 3?H 3?H 3?H 3?H 3?H 3?H 3?H 3?H 3?H 3?H 3?H 3?H 3?H 3?H 3?H 3?H 3?H 3?H 3?H 3?H 3?H 3?H 3?H 3?H 3?H 3?H 3?H 3?H 3?H 3?H 3?H 3?H 3?H 3?H 3?H 3?H 3?H 3?H 3?H 3?H 3?H 3?H 3?H 3?H 3?H 3?H 3?H 3?H 3?H 3?H 3?H 3?H 3?H 3?H 3?H 3?H 3?H 3?H 3?H 3?H 3?H 3?H 3?H 3?H 3?H 3?H 3?H 3?H 3?H 3?H 3?H 3?H 3?H 3?H 3?H 3?H 3?H 3?H 3?H 3?H 3?H 3?H 3?H 3?H 3?H 3?H 3?H 3?H 3?H 3?H 3?H 3?H 3?H 3?H 3?H 3?H 3?H 3?H 3?H 3?H 3?H 3?H 3?H ?H ?H ?H ?H 7?H 7?H 7?H 7?H 7?H 7?H 7?H 7?H 7?H 7?H 7?H 7?H 7?H 7?H 7?H 7?H 7?H 7?H 7?H 7?H 7?H 7?H 7?H 7?H 7?H 7?H 7?H 7?H 7?H 7?H 7?H 7?H 7?H 7?H 7?H 7?H 7?H 7?H 7?H 7?H 7?H 7?H 7?H 7?H 7?H 7?H 7?H 7?H 7?H 7?H 7?H 7?H 7?H 7?H 7?H 7?H 7?H 7?H 7?H 7?H 7?H 7?H 7?H 7?H 7?H 7?H 7?H 7?H 7?H 7?H 7?H 7?H 7?H 7?H 7?H 7?H 7?H 7?H 7?H 7?H 7?H 7?H 7?H 7?H 7?H 7?H 7?H 7?H 7?H 7?H 7?H 7?H 7?H 7?H 7?H 7?H 7?H 7?H 7?H 7?H 7?H 7?H 7?H 7?H 7?H 7?H 7?H 7?H 7?H 7?H 7?H 7?H 7?H 7?H 7?H 7?H 7?H 7?H 7?H 7?H 7?H 7?H 7?H 7?H 7?H 7?H 7?H 7?H 7?H 7?H 7?H 7?H 7?H 7?H 7?H 7?H 7?H 7?H 7?H 7?H 7?H 7?H 7?H 7?H 7?H 7?H 7?H 7?H 7?H 7?H 7?H 7?H 7?H 7?H 7?H 7?H 7?H 7?H 7?H 7?H ?H ?H ?H ?H ?H ?H ?H ?H ?H ?H 5?H 5?H 5?H 5?H 5?H 5?H 5?H 5?H 5?H 5?H 5?H 5?H 5?H 5?H 5?H 5?H 5?H 5?H 5?H 5?H 5?H 5?H 5?H 5?H 5?H 5?H 5?H 5?H 5?H 5?H 5?H 5?H 5?H 5?H 5?H 5?H 5?H 5?H 5?H 5?H 5?H 5?H 5?H 5?H 5?H 5?H 5?H 5?H 5?H 5?H 5?H 5?H 5?H 5?H 5?H 5?H 5?H 5?H 5?H 5?H 5?H 5?H 5?H 5?H 5?H 5?H 5?H 5?H 5?H 5?H 5?H 5?H 5?H 5?H 5?H 5?H 5?H 5?H 5?H 5?H 5?H 5?H 5?H 5?H 5?H 5?H 5?H 5?H 5?H 5?H 5?H 5?H 5?H 5?H 5?H 5?H 5?H 5?H 5?H 5?H 5?H 5?H 5?H 5?H 5?H 5?H 5?H 5?H 5?H 5?H 5?H 5?H 5?H 5?H 5?H 5?H 5?H 5?H 5?H 5?H 5?H 5?H 5?H 5?H 5?H 5?H 5?H 5?H 5?H 5?H 5?H 5?H 5?H 5?H 5?H 5?H 5?H 5?H 5?H 5?H 5?H 5?H 5?H 5?H 5?H 5?H 5?H 5?H 5?H 5?H 5?H 5?H 5?H ?H ?H ?H ?H ?H ?H ?H ?H ?H ?H ?H ?H ?H ?H ?H ?H ?H H H H>7 H>7 H>7 H>7 H>7 H>7 H>7 H>7 H>7 H>7 H>7 H>7 H>7 H>7 H>7 H>7 H>7 H>7 H>7 H>7 H>7 H>7 H>7 H>7 H>7 H>7 H>7 H>7 H>7 H>7 H>7 H>7 H>7 H>7 H>7 H>7 H>7 H>7 H>7 H>7 H>7 H>7 H>7 H>7 H>7 H>7 H>7 H>7 H>7 H>7 H>7 H>7 H>7 H>7 H>7 H>7 H>7 H>7 H>7 H>7 H>7 H>7 H>7 H>7 H>7 H>7 H>7 H>7 H>7 H>7 H>7 H>7 H>7 H>7 H>7 H>7 H>7 H>7 H>7 H>7 H>7 H>7 H>7 H>7 H>7 H>7 H>7 H>7 H>7 H>7 H>7 H>7 H>7 H>7 H>7 H>7 H>7 H>7 H>7 H>7 H>7 H>7 H>7 H>7 H>7 H>7 H>7 H>7 H>7 H>7 H>7 H>7 H>7 H>7 H>7 H>7 H>7 H>7 H>7 H>7 H>7 H>7 H>7 H>7 H>7 H>7 H>7 H>7 H>7 H>7 H>7 H>7 H>7 H>7 H>7 H>7 H>7 H>7 H>7 H>7 H>7 H>7 H>7 H>7 H>7 H>7 H>7 H>7 H>7 H>7 H>7 H>7 H>7 H>7 H>7 H>7 H>7 H>7 H>7 H>7 H>7 H>7 H>7 H>7 H>7 H>7 H>7 H>7 >7 >7 >7 >7 F>7 F>7 F>7 F>7 F>7 F>7 F>7 F>7 F>7 F>7 F>7 F>7 F>7 F>7 F>7 F>7 F>7 F>7 F>7 F>7 F>7 F>7 F>7 F>7 F>7 F>7 F>7 F>7 F>7 F>7 F>7 F>7 F>7 F>7 F>7 F>7 F>7 F>7 F>7 F>7 F>7 F>7 F>7 F>7 F>7 F>7 F>7 F>7 F>7 F>7 F>7 F>7 F>7 F>7 F>7 F>7 F>7 F>7 F>7 F>7 F>7 F>7 F>7 F>7 F>7 F>7 F>7 F>7 F>7 F>7 F>7 F>7 F>7 F>7 F>7 F>7 F>7 F>7 F>7 F>7 F>7 F>7 F>7 F>7 F>7 F>7 F>7 F>7 F>7 F>7 F>7 F>7 F>7 F>7 F>7 F>7 F>7 F>7 F>7 F>7 F>7 F>7 F>7 F>7 F>7 F>7 F>7 F>7 F>7 F>7 F>7 F>7 F>7 F>7 F>7 F>7 F>7 F>7 F>7 F>7 F>7 F>7 F>7 F>7 F>7 F>7 F>7 F>7 F>7 F>7 F>7 F>7 F>7 F>7 F>7 F>7 F>7 F>7 F>7 F>7 F>7 F>7 F>7 F>7 F>7 F>7 F>7 F>7 F>7 F>7 F>7 F>7 F>7 F>7 F>7 F>7 F>7 F>7 F>7 F>7 >7 >7 >7 >7 >7 >7 >7 >7 >7 >7 E>7 E>7 E>7 E>7 E>7 E>7 E>7 E>7 E>7 E>7 E>7 E>7 E>7 E>7 E>7 E>7 E>7 E>7 E>7 E>7 E>7 E>7 E>7 E>7 E>7 E>7 E>7 E>7 E>7 E>7 E>7 E>7 E>7 E>7 E>7 E>7 E>7 E>7 E>7 E>7 E>7 E>7 E>7 E>7 E>7 E>7 E>7 E>7 E>7 E>7 E>7 E>7 E>7 E>7 E>7 E>7 E>7 E>7 E>7 E>7 E>7 E>7 E>7 E>7 E>7 E>7 E>7 E>7 E>7 E>7 E>7 E>7 E>7 E>7 E>7 E>7 E>7 E>7 E>7 E>7 E>7 E>7 E>7 E>7 E>7 E>7 E>7 E>7 E>7 E>7 E>7 E>7 E>7 E>7 E>7 E>7 E>7 E>7 E>7 E>7 E>7 E>7 E>7 E>7 E>7 E>7 E>7 E>7 E>7 E>7 E>7 E>7 E>7 E>7 E>7 E>7 E>7 E>7 E>7 E>7 E>7 E>7 E>7 E>7 E>7 E>7 E>7 E>7 E>7 E>7 E>7 E>7 E>7 E>7 E>7 E>7 E>7 E>7 E>7 E>7 E>7 E>7 E>7 E>7 E>7 E>7 E>7 E>7 E>7 E>7 E>7 E>7 E>7 >7 >7 >7 >7 >7 >7 >7 >7 >7 >7 >7 >7 >7 >7 >7 >7 >7 >7 >7F >7F >7F >7F >7F >7F >7F >7F >7F >7F >7F >7F >7F >7F >7F >7F >7F >7F >7F >7F >7F >7F >7F >7F >7F >7F >7F >7F >7F >7F >7F >7F >7F >7F >7F >7F >7F >7F >7F >7F >7F >7F >7F >7F >7F >7F >7F >7F >7F >7F >7F >7F >7F >7F >7F >7F >7F >7F >7F >7F >7F >7F >7F >7F >7F >7F >7F >7F >7F >7F >7F >7F >7F >7F >7F >7F >7F >7F >7F >7F >7F >7F >7F >7F >7F >7F >7F >7F >7F >7F >7F >7F >7F >7F >7F >7F >7F >7F >7F >7F >7F >7F >7F >7F >7F >7F >7F >7F >7F >7F >7F >7F >7F >7F >7F >7F >7F >7F >7F >7F >7F >7F >7F >7F >7F >7F >7F >7F >7F >7F >7F >7F >7F >7F >7F >7F >7F >7F >7F >7F >7F >7F >7F >7F >7F >7F >7F >7F >7F >7F >7F >7F >7F >7F >7F >7F >7F >7F >7F >7F >7F >7F >7F >7F >7F >7F >7F >7F >7F 7F 7F 7F A7F A7F A7F A7F A7F A7F A7F A7F A7F A7F A7F A7F A7F A7F A7F A7F A7F A7F A7F A7F A7F A7F A7F A7F A7F A7F A7F A7F A7F A7F A7F A7F A7F A7F A7F A7F A7F A7F A7F A7F A7F A7F A7F A7F A7F A7F A7F A7F A7F A7F A7F A7F A7F A7F A7F A7F A7F A7F A7F A7F A7F A7F A7F A7F A7F A7F A7F A7F A7F A7F A7F A7F A7F A7F A7F A7F A7F A7F A7F A7F A7F A7F A7F A7F A7F A7F A7F A7F A7F A7F A7F A7F A7F A7F A7F A7F A7F A7F A7F A7F A7F A7F A7F A7F A7F A7F A7F A7F A7F A7F A7F A7F A7F A7F A7F A7F A7F A7F A7F A7F A7F A7F A7F A7F A7F A7F A7F A7F A7F A7F A7F A7F A7F A7F A7F A7F A7F A7F A7F A7F A7F A7F A7F A7F A7F A7F A7F A7F A7F A7F A7F A7F A7F A7F A7F A7F A7F A7F A7F A7F F F F F F F F F F F 1@F 1@F 1@F 1@F 1@F 1@F 1@F 1@F 1@F 1@F 1@F 1@F 1@F 1@F 1@F 1@F 1@F 1@F 1@F 1@F 1@F 1@F 1@F 1@F 1@F 1@F 1@F 1@F 1@F 1@F 1@F 1@F 1@F 1@F 1@F 1@F 1@F 1@F 1@F 1@F 1@F 1@F 1@F 1@F 1@F 1@F 1@F 1@F 1@F 1@F 1@F 1@F 1@F 1@F 1@F 1@F 1@F 1@F 1@F 1@F 1@F 1@F 1@F 1@F 1@F 1@F 1@F 1@F 1@F 1@F 1@F 1@F 1@F 1@F 1@F 1@F 1@F 1@F 1@F 1@F 1@F 1@F 1@F 1@F 1@F 1@F 1@F 1@F 1@F 1@F 1@F 1@F 1@F 1@F 1@F 1@F 1@F 1@F 1@F 1@F 1@F 1@F 1@F 1@F 1@F 1@F 1@F 1@F 1@F 1@F 1@F 1@F 1@F 1@F 1@F 1@F 1@F 1@F 1@F 1@F 1@F 1@F 1@F 1@F 1@F 1@F 1@F 1@F 1@F 1@F 1@F 1@F 1@F 1@F 1@F 1@F 1@F 1@F 1@F 1@F 1@F 1@F 1@F 1@F 1@F 1@F 1@F 1@F 1@F 1@F 1@F 1@F 1@F F F F F F F F F F F F F F F F F F F F F2A F2A F2A F2A F2A F2A F2A F2A F2A F2A F2A F2A F2A F2A F2A F2A F2A F2A F2A F2A F2A F2A F2A F2A F2A F2A F2A F2A F2A F2A F2A F2A F2A F2A F2A F2A F2A F2A F2A F2A F2A F2A F2A F2A F2A F2A F2A F2A F2A F2A F2A F2A F2A F2A F2A F2A F2A F2A F2A F2A F2A F2A F2A F2A F2A F2A F2A F2A F2A F2A F2A F2A F2A F2A F2A F2A F2A F2A F2A F2A F2A F2A F2A F2A F2A F2A F2A F2A F2A F2A F2A F2A F2A F2A F2A F2A F2A F2A F2A F2A F2A F2A F2A F2A F2A F2A F2A F2A F2A F2A F2A F2A F2A F2A F2A F2A F2A F2A F2A F2A F2A F2A F2A F2A F2A F2A F2A F2A F2A F2A F2A F2A F2A F2A F2A F2A F2A F2A F2A F2A F2A F2A F2A F2A F2A F2A F2A F2A F2A F2A F2A F2A F2A F2A F2A F2A F2A F2A F2A F2A F2A F2A F2A F2A F2A F2A F2A F2A 2A 2A 2A 2A 2AE 2AE 2AE 2AE 2AE 2AE 2AE 2AE 2AE 2AE 2AE 2AE 2AE 2AE 2AE 2AE 2AE 2AE 2AE 2AE 2AE 2AE 2AE 2AE 2AE 2AE 2AE 2AE 2AE 2AE 2AE 2AE 2AE 2AE 2AE 2AE 2AE 2AE 2AE 2AE 2AE 2AE 2AE 2AE 2AE 2AE 2AE 2AE 2AE 2AE 2AE 2AE 2AE 2AE 2AE 2AE 2AE 2AE 2AE 2AE 2AE 2AE 2AE 2AE 2AE 2AE 2AE 2AE 2AE 2AE 2AE 2AE 2AE 2AE 2AE 2AE 2AE 2AE 2AE 2AE 2AE 2AE 2AE 2AE 2AE 2AE 2AE 2AE 2AE 2AE 2AE 2AE 2AE 2AE 2AE 2AE 2AE 2AE 2AE 2AE 2AE 2AE 2AE 2AE 2AE 2AE 2AE 2AE 2AE 2AE 2AE 2AE 2AE 2AE 2AE 2AE 2AE 2AE 2AE 2AE 2AE 2AE 2AE 2AE 2AE 2AE 2AE 2AE 2AE 2AE 2AE 2AE 2AE 2AE 2AE 2AE 2AE 2AE 2AE 2AE 2AE 2AE 2AE 2AE 2AE 2AE 2AE 2AE 2AE 2AE 2AE 2AE 2AE 2AE 2AE 2AE 2AE 2AE 2AE 2AE 2AE 2AE 2AE 2AE 2AE 2AE 2AE 2AE E E E @0E @0E @0E @0E @0E @0E @0E @0E @0E @0E @0E @0E @0E @0E @0E @0E @0E @0E @0E @0E @0E @0E @0E @0E @0E @0E @0E @0E @0E @0E @0E @0E @0E @0E @0E @0E @0E @0E @0E @0E @0E @0E @0E @0E @0E @0E @0E @0E @0E @0E @0E @0E @0E @0E @0E @0E @0E @0E @0E @0E @0E @0E @0E @0E @0E @0E @0E @0E @0E @0E @0E @0E @0E @0E @0E @0E @0E @0E @0E @0E @0E @0E @0E @0E @0E @0E @0E @0E @0E @0E @0E @0E @0E @0E @0E @0E @0E @0E @0E @0E @0E @0E @0E @0E @0E @0E @0E @0E @0E @0E @0E @0E @0E @0E @0E @0E @0E @0E @0E @0E @0E @0E @0E @0E @0E @0E @0E @0E @0E @0E @0E @0E @0E @0E @0E @0E @0E @0E @0E @0E @0E @0E @0E @0E @0E @0E @0E @0E @0E @0E @0E @0E @0E E E E E E E E E E E E E E E E E E E E 0E> 0E> 0E> 0E> 0E> 0E> 0E> 0E> 0E> 0E> 0E> 0E> 0E> 0E> 0E> 0E> 0E> 0E> 0E> 0E> 0E> 0E> 0E> 0E> 0E> 0E> 0E> 0E> 0E> 0E> 0E> 0E> 0E> 0E> 0E> 0E> 0E> 0E> 0E> 0E> 0E> 0E> 0E> 0E> 0E> 0E> 0E> 0E> 0E> 0E> 0E> 0E> 0E> 0E> 0E> 0E> 0E> 0E> 0E> 0E> 0E> 0E> 0E> 0E> 0E> 0E> 0E> 0E> 0E> 0E> 0E> 0E> 0E> 0E> 0E> 0E> 0E> 0E> 0E> 0E> 0E> 0E> E> E> E> E> .E> .E> .E> .E> .E> .E> .E> .E> .E> .E> .E> .E> .E> .E> .E> .E> .E> .E> .E> .E> .E> .E> .E> .E> .E> .E> .E> .E> .E> .E> .E> .E> .E> .E> .E> .E> .E> .E> .E> .E> .E> .E> .E> .E> .E> .E> .E> .E> .E> .E> .E> .E> .E> .E> .E> .E> .E> .E> .E> .E> .E> .E> .E> .E> .E> .E> .E> .E> .E> .E> .E> .E> .E> .E> .E> .E> .E> .E> .E> .E> .E> .E> > > > > 0E> 0E> 0E> 0E> 0E> 0E> 0E> 0E> 0E> 0E> 0E> 0E> 0E> 0E> 0E> 0E> 0E> 0E> 0E> 0E> 0E> 0E> 0E> 0E> 0E> 0E> 0E> 0E> 0E> 0E> 0E> 0E> 0E> 0E> 0E> 0E> 0E> 0E> 0E> 0E> 0E> 0E> 0E> 0E> 0E> 0E> 0E> 0E> 0E> 0E> 0E> 0E> 0E> 0E> 0E> 0E> 0E> 0E> 0E> 0E> 0E> 0E> 0E> 0E> 0E> 0E> 0E> 0E> 0E> 0E> 0E> 0E> 0E> 0E> 0E> 0E> 0E> 0E> 0E> 0E> 0E> 0E> E> E> E> E> E.> E.> E.> E.> E.> E.> E.> E.> E.> E.> E.> E.> E.> E.> E.> E.> E.> E.> E.> E.> E.> E.> E.> E.> E.> E.> E.> E.> E.> E.> E.> E.> E.> E.> E.> E.> E.> E.> E.> E.> E.> E.> E.> E.> E.> E.> E.> E.> E.> E.> E.> E.> E.> E.> E.> E.> E.> E.> E.> E.> E.> E.> E.> E.> E.> E.> E.> E.> E.> E.> E.> E.> E.> E.> E.> E.> .> .> .> .> .> .> > > > 0C> 0C> 0C> 0C> 0C> 0C> 0C> 0C> 0C> 0C> 0C> 0C> 0C> 0C> 0C> 0C> 0C> 0C> 0C> 0C> 0C> 0C> 0C> 0C> 0C> 0C> 0C> 0C> 0C> 0C> 0C> 0C> 0C> 0C> 0C> 0C> 0C> 0C> 0C> 0C> 0C> 0C> 0C> 0C> 0C> 0C> 0C> 0C> 0C> 0C> 0C> 0C> 0C> 0C> 0C> 0C> 0C> 0C> 0C> 0C> 0C> 0C> 0C> 0C> 0C> 0C> 0C> 0C> 0C> 0C> 0C> 0C> 0C> 0C> 0C> 0C> 0C> 0C> 0C> 0C> 0C> 0C> C> C> C> C> C.> C.> C.> C.> C.> C.> C.> C.> C.> C.> C.> C.> C.> C.> C.> C.> C.> C.> C.> C.> C.> C.> C.> C.> C.> C.> C.> C.> C.> C.> C.> C.> C.> C.> C.> C.> C.> C.> C.> C.> C.> C.> C.> C.> C.> C.> C.> C.> C.> C.> C.> C.> C.> C.> C.> C.> C.> C.> C.> C.> C.> C.> C.> C.> C.> C.> C.> .> .> .> .> .> .> .> .> .> .> .> .> .> .> .> > > > > >E- >E- >E- >E- >E- >E- >E- >E- >E- >E- >E- >E- >E- >E- >E- >E- >E- >E- >E- >E- >E- >E- >E- >E- >E- >E- >E- >E- >E- >E- >E- >E- >E- >E- >E- >E- >E- >E- >E- >E- >E- >E- >E- >E- >E- >E- >E- >E- >E- >E- >E- >E- >E- >E- >E- >E- >E- >E- >E- >E- >E- >E- >E- >E- >E- >E- >E- >E- >E- >E- >E- >E- >E- >E- >E- >E- >E- >E- >E- >E- >E- >E- >E- >E- >E- >E- >E- >E- >E- >E- >E- >E- >E- >E- >E- >E- >E- >E- >E- >E- >E- >E- >E- >E- >E- >E- >E- >E- >E- >E- >E- >E- >E- >E- >E- >E- >E- >E- >E- >E- >E- >E- >E- >E- >E- >E- >E- >E- >E- >E- >E- >E- >E- >E- >E- >E- >E- >E- >E- >E- >E- >E- >E- >E- >E- >E- >E- >E- >E- >E- >E- >E- >E- >E- >E- >E- >E- >E- >E- >E- >E- >E- >E- >E- >E- >E- >E- >E- E- E- E- E- =E- =E- =E- =E- =E- =E- =E- =E- =E- =E- =E- =E- =E- =E- =E- =E- =E- =E- =E- =E- =E- =E- =E- =E- =E- =E- =E- =E- =E- =E- =E- =E- =E- =E- =E- =E- =E- =E- =E- =E- =E- =E- =E- =E- =E- =E- =E- =E- =E- =E- =E- =E- =E- =E- =E- =E- =E- =E- =E- =E- =E- =E- =E- =E- =E- =E- =E- =E- =E- =E- =E- =E- =E- =E- =E- =E- =E- =E- =E- =E- =E- =E- =E- =E- =E- =E- =E- =E- =E- =E- =E- =E- =E- =E- =E- =E- =E- =E- =E- =E- =E- =E- =E- =E- =E- =E- =E- =E- =E- =E- =E- =E- =E- =E- =E- =E- =E- =E- =E- =E- =E- =E- =E- =E- =E- =E- =E- =E- =E- =E- =E- =E- =E- =E- =E- =E- =E- =E- =E- =E- =E- =E- =E- =E- =E- =E- =E- =E- =E- =E- =E- =E- =E- =E- =E- =E- =E- =E- =E- =E- E- E- E- E- E- E- E- E- E- E- ;E- ;E- ;E- ;E- ;E- ;E- ;E- ;E- ;E- ;E- ;E- ;E- ;E- ;E- ;E- ;E- ;E- ;E- ;E- ;E- ;E- ;E- ;E- ;E- ;E- ;E- ;E- ;E- ;E- ;E- ;E- ;E- ;E- ;E- ;E- ;E- ;E- ;E- ;E- ;E- ;E- ;E- ;E- ;E- ;E- ;E- ;E- ;E- ;E- ;E- ;E- ;E- ;E- ;E- ;E- ;E- ;E- ;E- ;E- ;E- ;E- ;E- ;E- ;E- ;E- ;E- ;E- ;E- ;E- ;E- ;E- ;E- ;E- ;E- ;E- ;E- ;E- ;E- ;E- ;E- ;E- ;E- ;E- ;E- ;E- ;E- ;E- ;E- ;E- ;E- ;E- ;E- ;E- ;E- ;E- ;E- ;E- ;E- ;E- ;E- ;E- ;E- ;E- ;E- ;E- ;E- ;E- ;E- ;E- ;E- ;E- ;E- ;E- ;E- ;E- ;E- ;E- ;E- ;E- ;E- ;E- ;E- ;E- ;E- ;E- ;E- ;E- ;E- ;E- ;E- ;E- ;E- ;E- ;E- ;E- ;E- ;E- ;E- ;E- ;E- ;E- ;E- ;E- ;E- ;E- ;E- ;E- ;E- ;E- ;E- ;E- ;E- ;E- E- E- E- E- E- E- E- E- E- E- E- E-      = = = = = = = = = = = = = = = = = = = = = = = = = = = = = = = = = = = = = = = = = = = = = = = = = = = = = = = = = = = = = = = = = = = = = = = = = = = = = = = = = = = = = = = = = = = = = = = = = = = = = = = = = = = = = = = = = = = = = = = = = = = = = = = = = = = = = = = = = = = = = = = = = = = = = = = = = = = = = = = = = = = = = = = = = = @= @= @= @= @= @= @= @= @= @= @= @= @= @= @= @= @= @= @= @= @= @= @= @= @= @= @= @= @= @= @= @= @= @= @= @= @= @= @= @= @= @= @= @= @= @= @= @= @= @= @= @= @= @= @= @= @= @= @= @= @= @= @= @= @= @= @= @= @= @= @= @= @= @= @= @= @= @= @= @= @= @= @= @= @= @= @= @= @= @= @= @= @= @= @= @= @= @= @= @= @= @= @= @= @= @= @= @= @= @= @= @= @= @= @= @= @= @= @= @= @= @= @= @= @= @= @= @= @= @= @= @= @= @= @= @= @= @= @= @= @= @= @= @= @= @= @= @= @= @= @= @= @= @= @= @= @= @= @= @= = = = = = = = = = = C9= C9= C9= C9= C9= C9= C9= C9= C9= C9= C9= C9= C9= C9= C9= C9= C9= C9= C9= C9= C9= C9= C9= C9= C9= C9= C9= C9= C9= C9= C9= C9= C9= C9= C9= C9= C9= C9= C9= C9= C9= C9= C9= C9= C9= C9= C9= C9= C9= C9= C9= C9= C9= C9= C9= C9= C9= C9= C9= C9= C9= C9= C9= C9= C9= C9= C9= C9= C9= C9= C9= C9= C9= C9= C9= C9= C9= C9= C9= C9= C9= C9= C9= C9= C9= C9= C9= C9= C9= C9= C9= C9= C9= C9= C9= C9= C9= C9= C9= C9= C9= C9= C9= C9= C9= C9= C9= C9= C9= C9= C9= C9= C9= C9= C9= C9= C9= C9= C9= C9= C9= C9= C9= C9= C9= C9= C9= C9= C9= C9= C9= C9= C9= C9= C9= C9= C9= C9= C9= C9= C9= C9= C9= C9= C9= C9= C9= C9= C9= C9= C9= C9= C9= = = = = = = = = = = = =      :A> :A> :A> :A> :A> :A> :A> :A> :A> :A> :A> :A> :A> :A> :A> :A> :A> :A> :A> :A> :A> :A> :A> :A> :A> :A> :A> :A> :A> :A> :A> :A> :A> :A> :A> :A> :A> :A> :A> :A> :A> :A> :A> :A> :A> :A> :A> :A> :A> :A> :A> :A> :A> :A> :A> :A> :A> :A> :A> :A> :A> :A> :A> :A> :A> :A> :A> :A> :A> :A> :A> :A> :A> :A> :A> :A> :A> :A> :A> :A> :A> :A> :A> :A> :A> :A> :A> :A> :A> :A> :A> :A> :A> :A> :A> :A> :A> :A> :A> :A> :A> :A> :A> :A> :A> :A> :A> :A> :A> :A> :A> :A> :A> :A> :A> :A> :A> :A> :A> :A> :A> :A> :A> :A> :A> :A> :A> :A> :A> :A> :A> :A> :A> :A> :A> :A> :A> :A> :A> :A> :A> :A> :A> :A> :A> :A> :A> :A> :A> :A> :A> :A> :A> :A> :A> :A> :A> :A> :A> :A> :A> :A> :A> :A> :A> :A> :A> :A> A> A> A> A> 9A> 9A> 9A> 9A> 9A> 9A> 9A> 9A> 9A> 9A> 9A> 9A> 9A> 9A> 9A> 9A> 9A> 9A> 9A> 9A> 9A> 9A> 9A> 9A> 9A> 9A> 9A> 9A> 9A> 9A> 9A> 9A> 9A> 9A> 9A> 9A> 9A> 9A> 9A> 9A> 9A> 9A> 9A> 9A> 9A> 9A> 9A> 9A> 9A> 9A> 9A> 9A> 9A> 9A> 9A> 9A> 9A> 9A> 9A> 9A> 9A> 9A> 9A> 9A> 9A> 9A> 9A> 9A> 9A> 9A> 9A> 9A> 9A> 9A> 9A> 9A> 9A> 9A> 9A> 9A> 9A> 9A> 9A> 9A> 9A> 9A> 9A> 9A> 9A> 9A> 9A> 9A> 9A> 9A> 9A> 9A> 9A> 9A> 9A> 9A> 9A> 9A> 9A> 9A> 9A> 9A> 9A> 9A> 9A> 9A> 9A> 9A> 9A> 9A> 9A> 9A> 9A> 9A> 9A> 9A> 9A> 9A> 9A> 9A> 9A> 9A> 9A> 9A> 9A> 9A> 9A> 9A> 9A> 9A> 9A> 9A> 9A> 9A> 9A> 9A> 9A> 9A> 9A> 9A> 9A> 9A> 9A> 9A> 9A> 9A> 9A> 9A> 9A> 9A> 9A> 9A> 9A> 9A> 9A> 9A> A> A> A> A> A> A> A> A> A> A> 7A> 7A> 7A> 7A> 7A> 7A> 7A> 7A> 7A> 7A> 7A> 7A> 7A> 7A> 7A> 7A> 7A> 7A> 7A> 7A> 7A> 7A> 7A> 7A> 7A> 7A> 7A> 7A> 7A> 7A> 7A> 7A> 7A> 7A> 7A> 7A> 7A> 7A> 7A> 7A> 7A> 7A> 7A> 7A> 7A> 7A> 7A> 7A> 7A> 7A> 7A> 7A> 7A> 7A> 7A> 7A> 7A> 7A> 7A> 7A> 7A> 7A> 7A> 7A> 7A> 7A> 7A> 7A> 7A> 7A> 7A> 7A> 7A> 7A> 7A> 7A> 7A> 7A> 7A> 7A> 7A> 7A> 7A> 7A> 7A> 7A> 7A> 7A> 7A> 7A> 7A> 7A> 7A> 7A> 7A> 7A> 7A> 7A> 7A> 7A> 7A> 7A> 7A> 7A> 7A> 7A> 7A> 7A> 7A> 7A> 7A> 7A> 7A> 7A> 7A> 7A> 7A> 7A> 7A> 7A> 7A> 7A> 7A> 7A> 7A> 7A> 7A> 7A> 7A> 7A> 7A> 7A> 7A> 7A> 7A> 7A> 7A> 7A> 7A> 7A> 7A> 7A> 7A> 7A> 7A> 7A> 7A> 7A> 7A> 7A> 7A> 7A> 7A> A> A> A> A> A> A> A> A> A> A> A> A> A> A> A> A> A> A> A> 5A> 5A> 5A> 5A> 5A> 5A> 5A> 5A> 5A> 5A> 5A> 5A> 5A> 5A> 5A> 5A> 5A> 5A> 5A> 5A> 5A> 5A> 5A> 5A> 5A> 5A> 5A> 5A> 5A> 5A> 5A> 5A> 5A> 5A> 5A> 5A> 5A> 5A> 5A> 5A> 5A> 5A> 5A> 5A> 5A> 5A> 5A> 5A> 5A> 5A> 5A> 5A> 5A> 5A> 5A> 5A> 5A> 5A> 5A> 5A> 5A> 5A> 5A> 5A> 5A> 5A> 5A> 5A> 5A> 5A> 5A> 5A> 5A> 5A> 5A> 5A> 5A> 5A> 5A> 5A> 5A> 5A> 5A> 5A> 5A> 5A> 5A> 5A> 5A> 5A> 5A> 5A> 5A> 5A> 5A> 5A> 5A> 5A> 5A> 5A> 5A> 5A> 5A> 5A> 5A> 5A> 5A> 5A> 5A> 5A> 5A> 5A> 5A> 5A> 5A> 5A> 5A> 5A> 5A> 5A> 5A> 5A> 5A> 5A> 5A> 5A> 5A> 5A> 5A> 5A> 5A> 5A> 5A> 5A> 5A> 5A> 5A> 5A> 5A> 5A> 5A> 5A> 5A> 5A> 5A> 5A> 5A> 5A> 5A> 5A> 5A> 5A> 5A> 5A> 5A> 5A> 5A> 5A> 5A> 5A> 5A> 5A> 5A> 5A> 5A> 5A> 5A> 5A>     C4@ C4@ C4@ C4@ C4@ C4@ C4@ C4@ C4@ C4@ C4@ C4@ C4@ C4@ C4@ C4@ C4@ C4@ C4@ C4@ C4@ C4@ C4@ C4@ C4@ C4@ C4@ C4@ C4@ C4@ C4@ C4@ C4@ C4@ C4@ C4@ C4@ C4@ C4@ C4@ C4@ C4@ C4@ C4@ C4@ C4@ C4@ C4@ C4@ C4@ C4@ C4@ C4@ C4@ C4@ C4@ C4@ C4@ C4@ C4@ C4@ C4@ C4@ C4@ C4@ C4@ C4@ C4@ C4@ C4@ C4@ C4@ C4@ C4@ C4@ C4@ C4@ C4@ C4@ C4@ C4@ C4@ C4@ C4@ C4@ C4@ C4@ C4@ C4@ C4@ C4@ C4@ C4@ C4@ C4@ C4@ C4@ C4@ C4@ C4@ C4@ C4@ C4@ C4@ C4@ C4@ C4@ C4@ C4@ C4@ C4@ C4@ C4@ C4@ C4@ C4@ C4@ C4@ C4@ C4@ C4@ C4@ C4@ C4@ C4@ C4@ C4@ C4@ C4@ C4@ C4@ C4@ C4@ C4@ C4@ C4@ C4@ C4@ C4@ C4@ C4@ C4@ C4@ C4@ C4@ C4@ C4@ C4@ C4@ C4@ C4@ C4@ C4@ C4@ C4@ C4@ C4@ C4@ C4@ C4@           EA2 EA2 EA2 EA2 EA2 EA2 EA2 EA2 EA2 EA2 EA2 EA2 EA2 EA2 EA2 EA2 EA2 EA2 EA2 EA2 EA2 EA2 EA2 EA2 EA2 EA2 EA2 EA2 EA2 EA2 EA2 EA2 EA2 EA2 EA2 EA2 EA2 EA2 EA2 EA2 EA2 EA2 EA2 EA2 EA2 EA2 EA2 EA2 EA2 EA2 EA2 EA2 EA2 EA2 EA2 EA2 EA2 EA2 EA2 EA2 EA2 EA2 EA2 EA2 EA2 EA2 EA2 EA2 EA2 EA2 EA2 EA2 EA2 EA2 EA2 EA2 EA2 EA2 EA2 EA2 EA2 EA2 EA2 EA2 EA2 EA2 EA2 EA2 EA2 EA2 EA2 EA2 EA2 EA2 EA2 EA2 EA2 EA2 EA2 EA2 EA2 EA2 EA2 EA2 EA2 EA2 EA2 EA2 EA2 EA2 EA2 EA2 EA2 EA2 EA2 EA2 EA2 EA2 EA2 EA2 EA2 EA2 EA2 EA2 EA2 EA2 EA2 EA2 EA2 EA2 EA2 EA2 EA2 EA2 EA2 EA2 EA2 EA2 EA2 EA2 EA2 EA2 EA2 EA2 EA2 EA2 EA2 EA2 EA2 EA2 EA2 EA2 EA2                    1C@ 1C@ 1C@ 1C@ 1C@ 1C@ 1C@ 1C@ 1C@ 1C@ 1C@ 1C@ 1C@ 1C@ 1C@ 1C@ 1C@ 1C@ 1C@ 1C@ 1C@ 1C@ 1C@ 1C@ 1C@ 1C@ 1C@ 1C@ 1C@ 1C@ 1C@ 1C@ 1C@ 1C@ 1C@ 1C@ 1C@ 1C@ 1C@ 1C@ 1C@ 1C@ 1C@ 1C@ 1C@ 1C@ 1C@ 1C@ 1C@ 1C@ 1C@ 1C@ 1C@ 1C@ 1C@ 1C@ 1C@ 1C@ 1C@ 1C@ 1C@ 1C@ 1C@ 1C@ 1C@ 1C@ 1C@ 1C@ 1C@ 1C@ 1C@ 1C@ 1C@ 1C@ 1C@ 1C@ 1C@ 1C@ 1C@ 1C@ 1C@ 1C@ 1C@ 1C@ 1C@ 1C@ 1C@ 1C@ 1C@ 1C@ 1C@ 1C@ 1C@ 1C@ 1C@ 1C@ 1C@ 1C@ 1C@ 1C@ 1C@ 1C@ 1C@ 1C@ 1C@ 1C@ 1C@ 1C@ 1C@ 1C@ 1C@ 1C@ 1C@ 1C@ 1C@ 1C@ 1C@ 1C@ 1C@ 1C@ 1C@ 1C@ 1C@ 1C@ 1C@ 1C@ 1C@ 1C@ 1C@ 1C@ 1C@ 1C@ 1C@ 1C@ 1C@ 1C@ 1C@ 1C@ 1C@ 1C@ 1C@ 1C@ 1C@ 1C@ 1C@ 1C@ 1C@ 1C@ 1C@ 1C@ 1C@ 1C@ 1C@ 1C@ 1C@ 1C@ 1C@ 1C@ 1C@ 1C@ 1C@ 1C@ 1C@ 1C@ 1C@ 1C@ 1C@ 1C@ C@ C@ C@ 4C@ 4C@ 4C@ 4C@ 4C@ 4C@ 4C@ 4C@ 4C@ 4C@ 4C@ 4C@ 4C@ 4C@ 4C@ 4C@ 4C@ 4C@ 4C@ 4C@ 4C@ 4C@ 4C@ 4C@ 4C@ 4C@ 4C@ 4C@ 4C@ 4C@ 4C@ 4C@ 4C@ 4C@ 4C@ 4C@ 4C@ 4C@ 4C@ 4C@ 4C@ 4C@ 4C@ 4C@ 4C@ 4C@ 4C@ 4C@ 4C@ 4C@ 4C@ 4C@ 4C@ 4C@ 4C@ 4C@ 4C@ 4C@ 4C@ 4C@ 4C@ 4C@ 4C@ 4C@ 4C@ 4C@ 4C@ 4C@ 4C@ 4C@ 4C@ 4C@ 4C@ 4C@ 4C@ 4C@ 4C@ 4C@ 4C@ 4C@ 4C@ 4C@ 4C@ 4C@ 4C@ 4C@ 4C@ 4C@ 4C@ 4C@ 4C@ 4C@ 4C@ 4C@ 4C@ 4C@ 4C@ 4C@ 4C@ 4C@ 4C@ 4C@ 4C@ 4C@ 4C@ 4C@ 4C@ 4C@ 4C@ 4C@ 4C@ 4C@ 4C@ 4C@ 4C@ 4C@ 4C@ 4C@ 4C@ 4C@ 4C@ 4C@ 4C@ 4C@ 4C@ 4C@ 4C@ 4C@ 4C@ 4C@ 4C@ 4C@ 4C@ 4C@ 4C@ 4C@ 4C@ 4C@ 4C@ 4C@ 4C@ 4C@ 4C@ 4C@ 4C@ 4C@ 4C@ 4C@ 4C@ 4C@ 4C@ 4C@ 4C@ 4C@ 4C@ 4C@ 4C@ 4C@ 4C@ 4C@ C@ C@ C@ C@ C@ C@ C@ C@ C@ C@ -C@ -C@ -C@ -C@ -C@ -C@ -C@ -C@ -C@ -C@ -C@ -C@ -C@ -C@ -C@ -C@ -C@ -C@ -C@ -C@ -C@ -C@ -C@ -C@ -C@ -C@ -C@ -C@ -C@ -C@ -C@ -C@ -C@ -C@ -C@ -C@ -C@ -C@ -C@ -C@ -C@ -C@ -C@ -C@ -C@ -C@ -C@ -C@ -C@ -C@ -C@ -C@ -C@ -C@ -C@ -C@ -C@ -C@ -C@ -C@ -C@ -C@ -C@ -C@ -C@ -C@ -C@ -C@ -C@ -C@ -C@ -C@ -C@ -C@ -C@ -C@ -C@ -C@ -C@ -C@ -C@ -C@ -C@ -C@ -C@ -C@ -C@ -C@ -C@ -C@ -C@ -C@ -C@ -C@ -C@ -C@ -C@ -C@ -C@ -C@ -C@ -C@ -C@ -C@ -C@ -C@ -C@ -C@ -C@ -C@ -C@ -C@ -C@ -C@ -C@ -C@ -C@ -C@ -C@ -C@ -C@ -C@ -C@ -C@ -C@ -C@ -C@ -C@ -C@ -C@ -C@ -C@ -C@ -C@ -C@ -C@ -C@ -C@ -C@ -C@ -C@ -C@ -C@ -C@ -C@ -C@ -C@ -C@ -C@ -C@ -C@ -C@ -C@ C@ C@ C@ C@ C@ C@ C@ C@ C@ C@ C@ C@ C@ C@ C@ C@ C@ C@ C@ +C@ +C@ +C@ +C@ +C@ +C@ +C@ +C@ +C@ +C@ +C@ +C@ +C@ +C@ +C@ +C@ +C@ +C@ +C@ +C@ +C@ +C@ +C@ +C@ +C@ +C@ +C@ +C@ +C@ +C@ +C@ +C@ +C@ +C@ +C@ +C@ +C@ +C@ +C@ +C@ +C@ +C@ +C@ +C@ +C@ +C@ +C@ +C@ +C@ +C@ +C@ +C@ +C@ +C@ +C@ +C@ +C@ +C@ +C@ +C@ +C@ +C@ +C@ +C@ +C@ +C@ +C@ +C@ +C@ +C@ +C@ +C@ +C@ +C@ +C@ +C@ +C@ +C@ +C@ +C@ +C@ +C@ +C@ +C@ +C@ +C@ +C@ +C@ +C@ +C@ +C@ +C@ +C@ +C@ +C@ +C@ +C@ +C@ +C@ +C@ +C@ +C@ +C@ +C@ +C@ +C@ +C@ +C@ +C@ +C@ +C@ +C@ +C@ +C@ +C@ +C@ +C@ +C@ +C@ +C@ +C@ +C@ +C@ +C@ +C@ +C@ +C@ +C@ +C@ +C@ +C@ +C@ +C@ +C@ +C@ +C@ +C@ +C@ +C@ +C@ +C@ +C@ +C@ +C@ +C@ +C@ +C@ +C@ +C@ +C@ +C@ +C@ +C@ +C@ +C@ +C@ +C@ +C@ +C@ +C@ +C@ +C@ +C@ +C@ +C@ +C@ +C@ +C@ C@    EA) EA) EA) EA) EA) EA) EA) EA) EA) EA) EA) EA) EA) EA) EA) EA) EA) EA) EA) EA) EA) EA) EA) EA) EA) EA) EA) EA) EA) EA) EA) EA) EA) EA) EA) EA) EA) EA) EA) EA) EA) EA) EA) EA) EA) EA) EA) EA) EA) EA) EA) EA) EA) EA) EA) EA) EA) EA) EA) EA) EA) EA) EA) EA) EA) EA) EA) EA) EA) EA) EA) EA) EA) EA) EA) EA) EA) EA) EA) EA) EA) EA) EA) EA) EA) EA) EA) EA) EA) EA) EA) EA) EA) EA) EA) EA) EA) EA) EA) EA) EA) EA) EA) EA) EA) EA) EA) EA) EA) EA) EA) EA) EA) EA) EA) EA) EA) EA) EA) EA) EA) EA) EA) EA) EA) EA) EA) EA) EA) EA) EA) EA) EA) EA) EA) EA) EA) EA) EA) EA) EA) EA) EA) EA) EA) EA) EA) EA) EA) EA) EA) EA) EA) EA) EA) EA) EA) EA) EA) EA)           F(C F(C F(C F(C F(C F(C F(C F(C F(C F(C F(C F(C F(C F(C F(C F(C F(C F(C F(C F(C F(C F(C F(C F(C F(C F(C F(C F(C F(C F(C F(C F(C F(C F(C F(C F(C F(C F(C F(C F(C F(C F(C F(C F(C F(C F(C F(C F(C F(C F(C F(C F(C F(C F(C F(C F(C F(C F(C F(C F(C F(C F(C F(C F(C F(C F(C F(C F(C F(C F(C F(C F(C F(C F(C F(C F(C F(C F(C F(C F(C F(C F(C F(C F(C F(C F(C F(C F(C F(C F(C F(C F(C F(C F(C F(C F(C F(C F(C F(C F(C F(C F(C F(C F(C F(C F(C F(C F(C F(C F(C F(C F(C F(C F(C F(C F(C F(C F(C F(C F(C F(C F(C F(C F(C F(C F(C F(C F(C F(C F(C F(C F(C F(C F(C F(C F(C F(C F(C F(C F(C F(C F(C F(C F(C F(C F(C F(C F(C F(C F(C F(C F(C F(C                    )E )E )E )E )E )E )E )E )E )E )E )E )E )E )E )E )E )E )E )E )E )E )E )E )E )E )E )E )E )E )E )E )E )E )E )E )E )E )E )E )E )E )E )E )E )E )E )E )E )E )E )E )E )E )E )E )E )E )E )E )E )E )E )E )E )E )E )E )E )E )E )E )E )E )E )E )E )E )E )E )E )E )E )E )E )E )E )E )E )E )E )E )E )E )E )E )E )E )E )E )E )E )E )E )E )E )E )E )E )E )E )E )E )E )E )E )E )E )E )E )E )E )E )E )E )E )E )E )E )E )E )E )E )E )E )E )E )E )E )E )E )E )E )E )E )E )E )E )E )E )E )E )E )E )E )E )E )E )E )E )E )E )E )E )E )E )E )E E E E J-E J-E J-E J-E J-E J-E J-E J-E J-E J-E J-E J-E J-E J-E J-E J-E J-E J-E J-E J-E J-E J-E J-E J-E J-E J-E J-E J-E J-E J-E J-E J-E J-E J-E J-E J-E J-E J-E J-E J-E J-E J-E J-E J-E J-E J-E J-E J-E J-E J-E J-E J-E J-E J-E J-E J-E J-E J-E J-E J-E J-E J-E J-E J-E J-E J-E J-E J-E J-E J-E J-E J-E J-E J-E J-E J-E J-E J-E J-E J-E J-E J-E J-E J-E J-E J-E J-E J-E J-E J-E J-E J-E J-E J-E J-E J-E J-E J-E J-E J-E J-E J-E J-E J-E J-E J-E J-E J-E J-E J-E J-E J-E J-E J-E J-E J-E J-E J-E J-E J-E J-E J-E J-E J-E J-E J-E J-E J-E J-E J-E J-E J-E J-E J-E J-E J-E J-E J-E J-E J-E J-E J-E J-E J-E J-E J-E J-E J-E J-E J-E J-E J-E J-E J-E J-E J-E J-E J-E J-E J-E E E E E E E E E E E 2EM 2EM 2EM 2EM 2EM 2EM 2EM 2EM 2EM 2EM 2EM 2EM 2EM 2EM 2EM 2EM 2EM 2EM 2EM 2EM 2EM 2EM 2EM 2EM 2EM 2EM 2EM 2EM 2EM 2EM 2EM 2EM 2EM 2EM 2EM 2EM 2EM 2EM 2EM 2EM 2EM 2EM 2EM 2EM 2EM 2EM 2EM 2EM 2EM 2EM 2EM 2EM 2EM 2EM 2EM 2EM 2EM 2EM 2EM 2EM 2EM 2EM 2EM 2EM 2EM 2EM 2EM 2EM 2EM 2EM 2EM 2EM 2EM 2EM 2EM 2EM 2EM 2EM 2EM 2EM 2EM 2EM 2EM 2EM 2EM 2EM 2EM 2EM 2EM 2EM 2EM 2EM 2EM 2EM 2EM 2EM 2EM 2EM 2EM 2EM 2EM 2EM 2EM 2EM 2EM 2EM 2EM 2EM 2EM 2EM 2EM 2EM 2EM 2EM 2EM 2EM 2EM 2EM 2EM 2EM 2EM 2EM 2EM 2EM 2EM 2EM 2EM 2EM 2EM 2EM 2EM 2EM 2EM 2EM 2EM 2EM 2EM 2EM 2EM 2EM 2EM 2EM 2EM 2EM 2EM 2EM 2EM 2EM 2EM 2EM 2EM 2EM 2EM EM EM EM EM EM EM EM EM EM EM EM EM EM M M M M M M(C M(C M(C M(C M(C M(C M(C M(C M(C M(C M(C M(C M(C M(C M(C M(C M(C M(C M(C M(C M(C M(C M(C M(C M(C M(C M(C M(C M(C M(C M(C M(C M(C M(C M(C M(C M(C M(C M(C M(C M(C M(C M(C M(C M(C M(C M(C M(C M(C M(C M(C M(C M(C M(C M(C M(C M(C M(C M(C M(C M(C M(C M(C M(C M(C M(C M(C M(C M(C M(C M(C M(C M(C M(C M(C M(C M(C M(C M(C M(C M(C M(C M(C M(C M(C M(C M(C M(C M(C M(C M(C M(C M(C M(C M(C M(C M(C M(C M(C M(C M(C M(C M(C M(C M(C M(C M(C M(C M(C M(C M(C M(C M(C M(C M(C M(C M(C M(C M(C M(C M(C M(C M(C M(C M(C M(C M(C M(C M(C M(C M(C M(C M(C M(C M(C M(C M(C M(C M(C M(C M(C M(C M(C M(C M(C M(C M(C M(C M(C M(C M(C M(C M(C M(C M(C M(C M(C M(C M(C M(C M(C M(C M(C M(C M(C M(C M(C (C C C C O2C O2C O2C O2C O2C O2C O2C O2C O2C O2C O2C O2C O2C O2C O2C O2C O2C O2C O2C O2C O2C O2C O2C O2C O2C O2C O2C O2C O2C O2C O2C O2C O2C O2C O2C O2C O2C O2C O2C O2C O2C O2C O2C O2C O2C O2C O2C O2C O2C O2C O2C O2C O2C O2C O2C O2C O2C O2C O2C O2C O2C O2C O2C O2C O2C O2C O2C O2C O2C O2C O2C O2C O2C O2C O2C O2C O2C O2C O2C O2C O2C O2C O2C O2C O2C O2C O2C O2C O2C O2C O2C O2C O2C O2C O2C O2C O2C O2C O2C O2C O2C O2C O2C O2C O2C O2C O2C O2C O2C O2C O2C O2C O2C O2C O2C O2C O2C O2C O2C O2C O2C O2C O2C O2C O2C O2C O2C O2C O2C O2C O2C O2C O2C O2C O2C O2C O2C O2C O2C O2C O2C O2C O2C O2C O2C O2C O2C O2C O2C O2C O2C O2C O2C O2C O2C O2C O2C O2C O2C O2C C C C C C C C C C C L1C L1C L1C L1C L1C L1C L1C L1C L1C L1C L1C L1C L1C L1C L1C L1C L1C L1C L1C L1C L1C L1C L1C L1C L1C L1C L1C L1C L1C L1C L1C L1C L1C L1C L1C L1C L1C L1C L1C L1C L1C L1C L1C L1C L1C L1C L1C L1C L1C L1C L1C L1C L1C L1C L1C L1C L1C L1C L1C L1C L1C L1C L1C L1C L1C L1C L1C L1C L1C L1C L1C L1C L1C L1C L1C L1C L1C L1C L1C L1C L1C L1C L1C L1C L1C L1C L1C L1C L1C L1C L1C L1C L1C L1C L1C L1C L1C L1C L1C L1C L1C L1C L1C L1C L1C L1C L1C L1C L1C L1C L1C L1C L1C L1C L1C L1C L1C L1C L1C L1C L1C L1C L1C L1C L1C L1C L1C L1C L1C L1C L1C L1C L1C L1C L1C L1C L1C L1C L1C L1C L1C L1C L1C L1C L1C L1C L1C L1C L1C L1C L1C L1C L1C C C C C C C C C C C C C C     M2 M2 M2 M2 M2 M2 M2 M2 M2 M2 M2 M2 M2 M2 M2 M2 M2 M2 M2 M2 M2 M2 M2 M2 M2 M2 M2 M2 M2 M2 M2 M2 M2 M2 M2 M2 M2 M2 M2 M2 M2 M2 M2 M2 M2 M2 M2 M2 M2 M2 M2 M2 M2 M2 M2 M2 M2 M2 M2 M2 M2 M2 M2 M2 M2 M2 M2 M2 M2 M2 M2 M2 M2 M2 M2 M2 M2 M2 M2 M2 M2 M2 M2 M2 M2 M2 M2 M2 M2 M2 M2 M2 M2 M2 M2 M2 M2 M2 M2 M2 M2 M2 M2 M2 M2 M2 M2 M2 M2 M2 M2 M2 M2 M2 M2 M2 M2 M2 M2 M2 M2 M2 M2 M2 M2 M2 M2 M2 M2 M2 M2 M2 M2 M2 M2 M2 M2 M2 M2 M2 M2 M2 M2 M2 M2 M2 M2 M2 M2 M2 M2 M2 M2 M2 M2 M2 M2 M2 M2 M2 M2 M2 M2 M2 M2 M2 M2 M2 2 2 2 2 Q2 Q2 Q2 Q2 Q2 Q2 Q2 Q2 Q2 Q2 Q2 Q2 Q2 Q2 Q2 Q2 Q2 Q2 Q2 Q2 Q2 Q2 Q2 Q2 Q2 Q2 Q2 Q2 Q2 Q2 Q2 Q2 Q2 Q2 Q2 Q2 Q2 Q2 Q2 Q2 Q2 Q2 Q2 Q2 Q2 Q2 Q2 Q2 Q2 Q2 Q2 Q2 Q2 Q2 Q2 Q2 Q2 Q2 Q2 Q2 Q2 Q2 Q2 Q2 Q2 Q2 Q2 Q2 Q2 Q2 Q2 Q2 Q2 Q2 Q2 Q2 Q2 Q2 Q2 Q2 Q2 Q2 Q2 Q2 Q2 Q2 Q2 Q2 Q2 Q2 Q2 Q2 Q2 Q2 Q2 Q2 Q2 Q2 Q2 Q2 Q2 Q2 Q2 Q2 Q2 Q2 Q2 Q2 Q2 Q2 Q2 Q2 Q2 Q2 Q2 Q2 Q2 Q2 Q2 Q2 Q2 Q2 Q2 Q2 Q2 Q2 Q2 Q2 Q2 Q2 Q2 Q2 Q2 Q2 Q2 Q2 Q2 Q2 Q2 Q2 Q2 Q2 Q2 Q2 Q2 Q2 Q2 Q2 Q2 Q2 Q2 Q2 Q2 Q2 Q2 Q2 Q2 Q2 Q2 Q2 2 2 2 2 2 2 2 2 2 2 O2 O2 O2 O2 O2 O2 O2 O2 O2 O2 O2 O2 O2 O2 O2 O2 O2 O2 O2 O2 O2 O2 O2 O2 O2 O2 O2 O2 O2 O2 O2 O2 O2 O2 O2 O2 O2 O2 O2 O2 O2 O2 O2 O2 O2 O2 O2 O2 O2 O2 O2 O2 O2 O2 O2 O2 O2 O2 O2 O2 O2 O2 O2 O2 O2 O2 O2 O2 O2 O2 O2 O2 O2 O2 O2 O2 O2 O2 O2 O2 O2 O2 O2 O2 O2 O2 O2 O2 O2 O2 O2 O2 O2 O2 O2 O2 O2 O2 O2 O2 O2 O2 O2 O2 O2 O2 O2 O2 O2 O2 O2 O2 O2 O2 O2 O2 O2 O2 O2 O2 O2 O2 O2 O2 O2 O2 O2 O2 O2 O2 O2 O2 O2 O2 O2 O2 O2 O2 O2 O2 O2 O2 O2 O2 O2 O2 O2 O2 O2 O2 O2 O2 O2 2 2 2 2 2 2 2 2 2 2 2 2 2 2 2 2 2 2 2 2Q 2Q 2Q 2Q 2Q 2Q 2Q 2Q 2Q 2Q 2Q 2Q 2Q 2Q 2Q 2Q 2Q 2Q 2Q 2Q 2Q 2Q 2Q 2Q 2Q 2Q 2Q 2Q 2Q 2Q 2Q 2Q 2Q 2Q 2Q 2Q 2Q 2Q 2Q 2Q 2Q 2Q 2Q 2Q 2Q 2Q 2Q 2Q 2Q 2Q 2Q 2Q 2Q 2Q 2Q 2Q 2Q 2Q 2Q 2Q 2Q 2Q 2Q 2Q 2Q 2Q 2Q 2Q 2Q 2Q 2Q 2Q 2Q 2Q 2Q 2Q 2Q 2Q 2Q 2Q 2Q 2Q 2Q 2Q 2Q 2Q 2Q 2Q 2Q 2Q 2Q 2Q 2Q 2Q 2Q 2Q 2Q 2Q 2Q 2Q 2Q 2Q 2Q 2Q 2Q 2Q 2Q 2Q 2Q 2Q 2Q 2Q 2Q 2Q 2Q 2Q 2Q 2Q 2Q 2Q 2Q 2Q 2Q 2Q 2Q 2Q 2Q 2Q 2Q 2Q 2Q 2Q 2Q 2Q 2Q 2Q 2Q 2Q 2Q 2Q 2Q 2Q 2Q 2Q 2Q 2Q 2Q 2Q 2Q 2Q 2Q 2Q 2Q 2Q 2Q 2Q 2Q 2Q 2Q 2Q 2Q 2Q 2Q 2Q 2Q 2Q 2Q 2Q Q Q Q Q 5Q 5Q 5Q 5Q 5Q 5Q 5Q 5Q 5Q 5Q 5Q 5Q 5Q 5Q 5Q 5Q 5Q 5Q 5Q 5Q 5Q 5Q 5Q 5Q 5Q 5Q 5Q 5Q 5Q 5Q 5Q 5Q 5Q 5Q 5Q 5Q 5Q 5Q 5Q 5Q 5Q 5Q 5Q 5Q 5Q 5Q 5Q 5Q 5Q 5Q 5Q 5Q 5Q 5Q 5Q 5Q 5Q 5Q 5Q 5Q 5Q 5Q 5Q 5Q 5Q 5Q 5Q 5Q 5Q 5Q 5Q 5Q 5Q 5Q 5Q 5Q 5Q 5Q 5Q 5Q 5Q 5Q 5Q 5Q 5Q 5Q 5Q 5Q 5Q 5Q 5Q 5Q 5Q 5Q 5Q 5Q 5Q 5Q 5Q 5Q 5Q 5Q 5Q 5Q 5Q 5Q 5Q 5Q 5Q 5Q 5Q 5Q 5Q 5Q 5Q 5Q 5Q 5Q 5Q 5Q 5Q 5Q 5Q 5Q 5Q 5Q 5Q 5Q 5Q 5Q 5Q 5Q 5Q 5Q 5Q 5Q 5Q 5Q 5Q 5Q 5Q 5Q 5Q 5Q 5Q 5Q 5Q 5Q 5Q 5Q 5Q 5Q 5Q 5Q 5Q 5Q 5Q 5Q 5Q 5Q Q Q Q Q Q Q Q Q Q Q 4Q 4Q 4Q 4Q 4Q 4Q 4Q 4Q 4Q 4Q 4Q 4Q 4Q 4Q 4Q 4Q 4Q 4Q 4Q 4Q 4Q 4Q 4Q 4Q 4Q 4Q 4Q 4Q 4Q 4Q 4Q 4Q 4Q 4Q 4Q 4Q 4Q 4Q 4Q 4Q 4Q 4Q 4Q 4Q 4Q 4Q 4Q 4Q 4Q 4Q 4Q 4Q 4Q 4Q 4Q 4Q 4Q 4Q 4Q 4Q 4Q 4Q 4Q 4Q 4Q 4Q 4Q 4Q 4Q 4Q 4Q 4Q 4Q 4Q 4Q 4Q 4Q 4Q 4Q 4Q 4Q 4Q 4Q 4Q 4Q 4Q 4Q 4Q 4Q 4Q 4Q 4Q 4Q 4Q 4Q 4Q 4Q 4Q 4Q 4Q 4Q 4Q 4Q 4Q 4Q 4Q 4Q 4Q 4Q 4Q 4Q 4Q 4Q 4Q 4Q 4Q 4Q 4Q 4Q 4Q 4Q 4Q 4Q 4Q 4Q 4Q 4Q 4Q 4Q 4Q 4Q 4Q 4Q 4Q 4Q 4Q 4Q 4Q 4Q 4Q 4Q 4Q 4Q 4Q 4Q 4Q 4Q 4Q 4Q 4Q 4Q 4Q 4Q Q Q Q Q Q Q Q Q Q Q Q Q Q Q Q     E5 E5 E5 E5 E5 E5 E5 E5 E5 E5 E5 E5 E5 E5 E5 E5 E5 E5 E5 E5 E5 E5 E5 E5 E5 E5 E5 E5 E5 E5 E5 E5 E5 E5 E5 E5 E5 E5 E5 E5 E5 E5 E5 E5 E5 E5 E5 E5 E5 E5 E5 E5 E5 E5 E5 E5 E5 E5 E5 E5 E5 E5 E5 E5 E5 E5 E5 E5 E5 E5 E5 E5 E5 E5 E5 E5 E5 E5 E5 E5 E5 E5 E5 E5 E5 E5 E5 E5 E5 E5 E5 E5 E5 E5 E5 E5 E5 E5 E5 E5 E5 E5 E5 E5 E5 E5 E5 E5 E5 E5 E5 E5 E5 E5 E5 E5 E5 E5 E5 E5 E5 E5 E5 E5 E5 E5 E5 E5 E5 E5 E5 E5 E5 E5 E5 E5 E5 E5 E5 E5 E5 E5 E5 E5 E5 E5 E5 E5 E5 E5 E5 E5 E5 E5 E5 E5 E5 E5 E5 E5 E5 E5 E5 E5 E5 E5 E5 E5    I9 I9 I9 I9 I9 I9 I9 I9 I9 I9 I9 I9 I9 I9 I9 I9 I9 I9 I9 I9 I9 I9 I9 I9 I9 I9 I9 I9 I9 I9 I9 I9 I9 I9 I9 I9 I9 I9 I9 I9 I9 I9 I9 I9 I9 I9 I9 I9 I9 I9 I9 I9 I9 I9 I9 I9 I9 I9 I9 I9 I9 I9 I9 I9 I9 I9 I9 I9 I9 I9 I9 I9 I9 I9 I9 I9 I9 I9 I9 I9 I9 I9 I9 I9 I9 I9 I9 I9 I9 I9 I9 I9 I9 I9 I9 I9 I9 I9 I9 I9 I9 I9 I9 I9 I9 I9 I9 I9 I9 I9 I9 I9 I9 I9 I9 I9 I9 I9 I9 I9 I9 I9 I9 I9 I9 I9 I9 I9 I9 I9 I9 I9 I9 I9 I9 I9 I9 I9 I9 I9 I9 I9 I9 I9 I9 I9 I9 I9 I9 I9 I9 I9 I9 I9 I9 I9 I9 I9 I9 I9           G7 G7 G7 G7 G7 G7 G7 G7 G7 G7 G7 G7 G7 G7 G7 G7 G7 G7 G7 G7 G7 G7 G7 G7 G7 G7 G7 G7 G7 G7 G7 G7 G7 G7 G7 G7 G7 G7 G7 G7 G7 G7 G7 G7 G7 G7 G7 G7 G7 G7 G7 G7 G7 G7 G7 G7 G7 G7 G7 G7 G7 G7 G7 G7 G7 G7 G7 G7 G7 G7 G7 G7 G7 G7 G7 G7 G7 G7 G7 G7 G7 G7 G7 G7 G7 G7 G7 G7 G7 G7 G7 G7 G7 G7 G7 G7 G7 G7 G7 G7 G7 G7 G7 G7 G7 G7 G7 G7 G7 G7 G7 G7 G7 G7 G7 G7 G7 G7 G7 G7 G7 G7 G7 G7 G7 G7 G7 G7 G7 G7 G7 G7 G7 G7 G7 G7 G7 G7 G7 G7 G7 G7 G7 G7 G7 G7 G7 G7 G7 G7 G7 G7 G7                    I9 I9 I9 I9 I9 I9 I9 I9 I9 I9 I9 I9 I9 I9 I9 I9 I9 I9 I9 I9 I9 I9 I9 I9 I9 I9 I9 I9 I9 I9 I9 I9 I9 I9 I9 I9 I9 I9 I9 I9 I9 I9 I9 I9 I9 I9 I9 I9 I9 I9 I9 I9 I9 I9 I9 I9 I9 I9 I9 I9 I9 I9 I9 I9 I9 I9 I9 I9 I9 I9 I9 I9 I9 I9 I9 I9 I9 I9 I9 I9 I9 I9 I9 I9 I9 I9 I9 I9 I9 I9 I9 I9 I9 I9 I9 I9 I9 I9 I9 I9 I9 I9 I9 I9 I9 I9 I9 I9 I9 I9 I9 I9 I9 I9 I9 I9 I9 I9 I9 I9 I9 I9 I9 I9 I9 I9 I9 I9 I9 I9 I9 I9 I9 I9 I9 I9 I9 I9 I9 I9 I9 I9 I9 I9 I9 I9 I9 I9 I9 I9 I9 I9 I9 I9 I9 I9 I9 I9 I9 I9 I9 I9 I9 I9 I9 I9 I9 I9 9 9 9 9 L9 L9 L9 L9 L9 L9 L9 L9 L9 L9 L9 L9 L9 L9 L9 L9 L9 L9 L9 L9 L9 L9 L9 L9 L9 L9 L9 L9 L9 L9 L9 L9 L9 L9 L9 L9 L9 L9 L9 L9 L9 L9 L9 L9 L9 L9 L9 L9 L9 L9 L9 L9 L9 L9 L9 L9 L9 L9 L9 L9 L9 L9 L9 L9 L9 L9 L9 L9 L9 L9 L9 L9 L9 L9 L9 L9 L9 L9 L9 L9 L9 L9 L9 L9 L9 L9 L9 L9 L9 L9 L9 L9 L9 L9 L9 L9 L9 L9 L9 L9 L9 L9 L9 L9 L9 L9 L9 L9 L9 L9 L9 L9 L9 L9 L9 L9 L9 L9 L9 L9 L9 L9 L9 L9 L9 L9 L9 L9 L9 L9 L9 L9 L9 L9 L9 L9 L9 L9 L9 L9 L9 L9 L9 L9 L9 L9 L9 L9 L9 L9 L9 L9 L9 L9 L9 L9 L9 L9 L9 L9 9 9 9 9 9 9 9 9 9 9 J9 J9 J9 J9 J9 J9 J9 J9 J9 J9 J9 J9 J9 J9 J9 J9 J9 J9 J9 J9 J9 J9 J9 J9 J9 J9 J9 J9 J9 J9 J9 J9 J9 J9 J9 J9 J9 J9 J9 J9 J9 J9 J9 J9 J9 J9 J9 J9 J9 J9 J9 J9 J9 J9 J9 J9 J9 J9 J9 J9 J9 J9 J9 J9 J9 J9 J9 J9 J9 J9 J9 J9 J9 J9 J9 J9 J9 J9 J9 J9 J9 J9 J9 J9 J9 J9 J9 J9 J9 J9 J9 J9 J9 J9 J9 J9 J9 J9 J9 J9 J9 J9 J9 J9 J9 J9 J9 J9 J9 J9 J9 J9 J9 J9 J9 J9 J9 J9 J9 J9 J9 J9 J9 J9 J9 J9 J9 J9 J9 J9 J9 J9 J9 J9 J9 J9 J9 J9 J9 J9 J9 J9 J9 J9 J9 J9 J9 J9 J9 J9 J9 J9 J9 9 9 9 9 9 9 9 9 9 9 9 9 9 9 9     -L -L -L -L -L -L -L -L -L -L -L -L -L -L -L -L -L -L -L -L -L -L -L -L -L -L -L -L -L -L -L -L -L -L -L -L -L -L -L -L -L -L -L -L -L -L -L -L -L -L -L -L -L -L -L -L -L -L -L -L -L -L -L -L -L -L -L -L -L -L -L -L -L -L -L -L -L -L -L -L -L -L -L -L -L -L -L -L -L -L -L -L -L -L -L -L -L -L -L -L -L -L -L -L -L -L -L -L -L -L -L -L -L -L -L -L -L -L -L -L -L -L -L -L -L -L -L -L -L -L -L -L -L -L -L -L -L -L -L -L -L -L -L -L -L -L -L -L -L -L -L -L -L -L -L -L -L -L -L -L -L -L -L -L -L -L -L -L L L L 1L 1L 1L 1L 1L 1L 1L 1L 1L 1L 1L 1L 1L 1L 1L 1L 1L 1L 1L 1L 1L 1L 1L 1L 1L 1L 1L 1L 1L 1L 1L 1L 1L 1L 1L 1L 1L 1L 1L 1L 1L 1L 1L 1L 1L 1L 1L 1L 1L 1L 1L 1L 1L 1L 1L 1L 1L 1L 1L 1L 1L 1L 1L 1L 1L 1L 1L 1L 1L 1L 1L 1L 1L 1L 1L 1L 1L 1L 1L 1L 1L 1L 1L 1L 1L 1L 1L 1L 1L 1L 1L 1L 1L 1L 1L 1L 1L 1L 1L 1L 1L 1L 1L 1L 1L 1L 1L 1L 1L 1L 1L 1L 1L 1L 1L 1L 1L 1L 1L 1L 1L 1L 1L 1L 1L 1L 1L 1L 1L 1L 1L 1L 1L 1L 1L 1L 1L 1L 1L 1L 1L 1L 1L 1L 1L 1L 1L 1L 1L 1L 1L 1L 1L 1L 1L 1L 1L 1L 1L 1L L L L L L L L L L L /L /L /L /L /L /L /L /L /L /L /L /L /L /L /L /L /L /L /L /L /L /L /L /L /L /L /L /L /L /L /L /L /L /L /L /L /L /L /L /L /L /L /L /L /L /L /L /L /L /L /L /L /L /L /L /L /L /L /L /L /L /L /L /L /L /L /L /L /L /L /L /L /L /L /L /L /L /L /L /L /L /L /L /L /L /L /L /L /L /L /L /L /L /L /L /L /L /L /L /L /L /L /L /L /L /L /L /L /L /L /L /L /L /L /L /L /L /L /L /L /L /L /L /L /L /L /L /L /L /L /L /L /L /L /L /L /L /L /L /L /L /L /L /L /L /L /L /L /L /L /L /L /L L L L L L L L L L L L L L L L L    @1 @1 @1 @1 @1 @1 @1 @1 @1 @1 @1 @1 @1 @1 @1 @1 @1 @1 @1 @1 @1 @1 @1 @1 @1 @1 @1 @1 @1 @1 @1 @1 @1 @1 @1 @1 @1 @1 @1 @1 @1 @1 @1 @1 @1 @1 @1 @1 @1 @1 @1 @1 @1 @1 @1 @1 @1 @1 @1 @1 @1 @1 @1 @1 @1 @1 @1 @1 @1 @1 @1 @1 @1 @1 @1 @1 @1 @1 @1 @1 @1 @1 @1 @1 @1 @1 @1 @1 @1 @1 @1 @1 @1 @1 @1 @1 @1 @1 @1 @1 @1 @1 @1 @1 @1 @1 @1 @1 @1 @1 @1 @1 @1 @1 @1 @1 @1 @1 @1 @1 @1 @1 @1 @1 @1 @1 @1 @1 @1 @1 @1 @1 @1 @1 @1 @1 @1 @1 @1 @1 @1 @1 @1 @1 @1 @1 @1 @1 @1 @1 @1 @1 @1 @1 @1 @1 @1 @1 @1 @1 @1 @1 @1 @1 @1 @1 @1 @1     C4 C4 C4 C4 C4 C4 C4 C4 C4 C4 C4 C4 C4 C4 C4 C4 C4 C4 C4 C4 C4 C4 C4 C4 C4 C4 C4 C4 C4 C4 C4 C4 C4 C4 C4 C4 C4 C4 C4 C4 C4 C4 C4 C4 C4 C4 C4 C4 C4 C4 C4 C4 C4 C4 C4 C4 C4 C4 C4 C4 C4 C4 C4 C4 C4 C4 C4 C4 C4 C4 C4 C4 C4 C4 C4 C4 C4 C4 C4 C4 C4 C4 C4 C4 C4 C4 C4 C4 C4 C4 C4 C4 C4 C4 C4 C4 C4 C4 C4 C4 C4 C4 C4 C4 C4 C4 C4 C4 C4 C4 C4 C4 C4 C4 C4 C4 C4 C4 C4 C4 C4 C4 C4 C4 C4 C4 C4 C4 C4 C4 C4 C4 C4 C4 C4 C4 C4 C4 C4 C4 C4 C4 C4 C4 C4 C4 C4 C4 C4 C4 C4 C4 C4 C4 C4 C4 C4 C4 C4 C4           A2 A2 A2 A2 A2 A2 A2 A2 A2 A2 A2 A2 A2 A2 A2 A2 A2 A2 A2 A2 A2 A2 A2 A2 A2 A2 A2 A2 A2 A2 A2 A2 A2 A2 A2 A2 A2 A2 A2 A2 A2 A2 A2 A2 A2 A2 A2 A2 A2 A2 A2 A2 A2 A2 A2 A2 A2 A2 A2 A2 A2 A2 A2 A2 A2 A2 A2 A2 A2 A2 A2 A2 A2 A2 A2 A2 A2 A2 A2 A2 A2 A2 A2 A2 A2 A2 A2 A2 A2 A2 A2 A2 A2 A2 A2 A2 A2 A2 A2 A2 A2 A2 A2 A2 A2 A2 A2 A2 A2 A2 A2 A2 A2 A2 A2 A2 A2 A2 A2 A2 A2 A2 A2 A2 A2 A2 A2 A2 A2 A2 A2 A2 A2 A2 A2 A2 A2 A2 A2 A2 A2 A2 A2 A2 A2 A2 A2 A2 A2 A2 A2 A2 A2                    C4 C4 C4 C4 C4 C4 C4 C4 C4 C4 C4 C4 C4 C4 C4 C4 C4 C4 C4 C4 C4 C4 C4 C4 C4 C4 C4 C4 C4 C4 C4 C4 C4 C4 C4 C4 C4 C4 C4 C4 C4 C4 C4 C4 C4 C4 C4 C4 C4 C4 C4 C4 C4 C4 C4 C4 C4 C4 C4 C4 C4 C4 C4 C4 C4 C4 C4 C4 C4 C4 C4 C4 C4 C4 C4 C4 C4 C4 C4 C4 C4 C4 C4 C4 C4 C4 C4 C4 C4 C4 C4 C4 C4 C4 C4 C4 C4 C4 C4 C4 C4 C4 C4 C4 C4 C4 C4 C4 C4 C4 C4 C4 C4 C4 C4 C4 C4 C4 C4 C4 C4 C4 C4 C4 C4 C4 C4 C4 C4 C4 C4 C4 C4 C4 C4 C4 C4 C4 C4 C4 C4 C4 C4 C4 C4 C4 C4 C4 C4 C4 C4 C4 C4 C4 C4 C4 C4 C4 C4 C4 C4 C4 C4 C4 C4 C4 C4 C4 4 4 4 F4 F4 F4 F4 F4 F4 F4 F4 F4 F4 F4 F4 F4 F4 F4 F4 F4 F4 F4 F4 F4 F4 F4 F4 F4 F4 F4 F4 F4 F4 F4 F4 F4 F4 F4 F4 F4 F4 F4 F4 F4 F4 F4 F4 F4 F4 F4 F4 F4 F4 F4 F4 F4 F4 F4 F4 F4 F4 F4 F4 F4 F4 F4 F4 F4 F4 F4 F4 F4 F4 F4 F4 F4 F4 F4 F4 F4 F4 F4 F4 F4 F4 F4 F4 F4 F4 F4 F4 F4 F4 F4 F4 F4 F4 F4 F4 F4 F4 F4 F4 F4 F4 F4 F4 F4 F4 F4 F4 F4 F4 F4 F4 F4 F4 F4 F4 F4 F4 F4 F4 F4 F4 F4 F4 F4 F4 F4 F4 F4 F4 F4 F4 F4 F4 F4 F4 F4 F4 F4 F4 F4 F4 F4 F4 F4 F4 F4 F4 F4 F4 F4 F4 F4 F4 F4 F4 F4 F4 F4 F4 4 4 4 4 4 4 4 4 4 4 E4 E4 E4 E4 E4 E4 E4 E4 E4 E4 E4 E4 E4 E4 E4 E4 E4 E4 E4 E4 E4 E4 E4 E4 E4 E4 E4 E4 E4 E4 E4 E4 E4 E4 E4 E4 E4 E4 E4 E4 E4 E4 E4 E4 E4 E4 E4 E4 E4 E4 E4 E4 E4 E4 E4 E4 E4 E4 E4 E4 E4 E4 E4 E4 E4 E4 E4 E4 E4 E4 E4 E4 E4 E4 E4 E4 E4 E4 E4 E4 E4 E4 E4 E4 E4 E4 E4 E4 E4 E4 E4 E4 E4 E4 E4 E4 E4 E4 E4 E4 E4 E4 E4 E4 E4 E4 E4 E4 E4 E4 E4 E4 E4 E4 E4 E4 E4 E4 E4 E4 E4 E4 E4 E4 E4 E4 E4 E4 E4 E4 E4 E4 E4 E4 E4 E4 E4 E4 E4 E4 E4 E4 E4 E4 E4 E4 E4 E4 E4 E4 E4 E4 E4 4 4 4 4 4 4 4 4 4 4 4 4 4 4 4 4 4 4 4 4F 4F 4F 4F 4F 4F 4F 4F 4F 4F 4F 4F 4F 4F 4F 4F 4F 4F 4F 4F 4F 4F 4F 4F 4F 4F 4F 4F 4F 4F 4F 4F 4F 4F 4F 4F 4F 4F 4F 4F 4F 4F 4F 4F 4F 4F 4F 4F 4F 4F 4F 4F 4F 4F 4F 4F 4F 4F 4F 4F 4F 4F 4F 4F 4F 4F 4F 4F 4F 4F 4F 4F 4F 4F 4F 4F 4F 4F 4F 4F 4F 4F 4F 4F 4F 4F 4F 4F 4F 4F 4F 4F 4F 4F 4F 4F 4F 4F 4F 4F 4F 4F 4F 4F 4F 4F 4F 4F 4F 4F 4F 4F 4F 4F 4F 4F 4F 4F 4F 4F 4F 4F 4F 4F 4F 4F 4F 4F 4F 4F 4F 4F 4F 4F 4F 4F 4F 4F 4F 4F 4F 4F 4F 4F 4F 4F 4F 4F 4F 4F 4F 4F 4F 4F 4F 4F 4F 4F 4F 4F 4F 4F 4F 4F 4F 4F 4F 4F 4F F F F 7F 7F 7F 7F 7F 7F 7F 7F 7F 7F 7F 7F 7F 7F 7F 7F 7F 7F 7F 7F 7F 7F 7F 7F 7F 7F 7F 7F 7F 7F 7F 7F 7F 7F 7F 7F 7F 7F 7F 7F 7F 7F 7F 7F 7F 7F 7F 7F 7F 7F 7F 7F 7F 7F 7F 7F 7F 7F 7F 7F 7F 7F 7F 7F 7F 7F 7F 7F 7F 7F 7F 7F 7F 7F 7F 7F 7F 7F 7F 7F 7F 7F 7F 7F 7F 7F 7F 7F 7F 7F 7F 7F 7F 7F 7F 7F 7F 7F 7F 7F 7F 7F 7F 7F 7F 7F 7F 7F 7F 7F 7F 7F 7F 7F 7F 7F 7F 7F 7F 7F 7F 7F 7F 7F 7F 7F 7F 7F 7F 7F 7F 7F 7F 7F 7F 7F 7F 7F 7F 7F 7F 7F 7F 7F 7F 7F 7F 7F 7F 7F 7F 7F 7F 7F 7F 7F 7F 7F 7F 7F F F F F F F F F F F 5F 5F 5F 5F 5F 5F 5F 5F 5F 5F 5F 5F 5F 5F 5F 5F 5F 5F 5F 5F 5F 5F 5F 5F 5F 5F 5F 5F 5F 5F 5F 5F 5F 5F 5F 5F 5F 5F 5F 5F 5F 5F 5F 5F 5F 5F 5F 5F 5F 5F 5F 5F 5F 5F 5F 5F 5F 5F 5F 5F 5F 5F 5F 5F 5F 5F 5F 5F 5F 5F 5F 5F 5F 5F 5F 5F 5F 5F 5F 5F 5F 5F 5F 5F 5F 5F 5F 5F 5F 5F 5F 5F 5F 5F 5F 5F 5F 5F 5F 5F 5F 5F 5F 5F 5F 5F 5F 5F 5F 5F 5F 5F 5F 5F 5F 5F 5F 5F 5F 5F 5F 5F 5F 5F 5F 5F 5F 5F 5F 5F 5F 5F 5F 5F 5F 5F 5F 5F 5F 5F 5F 5F 5F 5F 5F 5F 5F 5F 5F 5F 5F 5F 5F F F F F F F F F F F F F F F F     =7 =7 =7 =7 =7 =7 =7 =7 =7 =7 =7 =7 =7 =7 =7 =7 =7 =7 =7 =7 =7 =7 =7 =7 =7 =7 =7 =7 =7 =7 =7 =7 =7 =7 =7 =7 =7 =7 =7 =7 =7 =7 =7 =7 =7 =7 =7 =7 =7 =7 =7 =7 =7 =7 =7 =7 =7 =7 =7 =7 =7 =7 =7 =7 =7 =7 =7 =7 =7 =7 =7 =7 =7 =7 =7 =7 =7 =7 =7 =7 =7 =7 =7 =7 =7 =7 =7 =7 =7 =7 =7 =7 =7 =7 =7 =7 =7 =7 =7 =7 =7 =7 =7 =7 =7 =7 =7 =7 =7 =7 =7 =7 =7 =7 =7 =7 =7 =7 =7 =7 =7 =7 =7 =7 =7 =7 =7 =7 =7 =7 =7 =7 =7 =7 =7 =7 =7 =7 =7 =7 =7 =7 =7 =7 =7 =7 =7 =7 =7 =7 =7 =7 =7 =7 =7 =7 =7 =7 =7 =7 =7 =7 =7 =7 =7 =7 =7 =7 7 7 7 @7 @7 @7 @7 @7 @7 @7 @7 @7 @7 @7 @7 @7 @7 @7 @7 @7 @7 @7 @7 @7 @7 @7 @7 @7 @7 @7 @7 @7 @7 @7 @7 @7 @7 @7 @7 @7 @7 @7 @7 @7 @7 @7 @7 @7 @7 @7 @7 @7 @7 @7 @7 @7 @7 @7 @7 @7 @7 @7 @7 @7 @7 @7 @7 @7 @7 @7 @7 @7 @7 @7 @7 @7 @7 @7 @7 @7 @7 @7 @7 @7 @7 @7 @7 @7 @7 @7 @7 @7 @7 @7 @7 @7 @7 @7 @7 @7 @7 @7 @7 @7 @7 @7 @7 @7 @7 @7 @7 @7 @7 @7 @7 @7 @7 @7 @7 @7 @7 @7 @7 @7 @7 @7 @7 @7 @7 @7 @7 @7 @7 @7 @7 @7 @7 @7 @7 @7 @7 @7 @7 @7 @7 @7 @7 @7 @7 @7 @7 @7 @7 @7 @7 @7 @7 @7 @7 @7 @7 @7 @7 7 7 7 7 7 7 7 7 7 7 7 >7 >7 >7 >7 >7 >7 >7 >7 >7 >7 >7 >7 >7 >7 >7 >7 >7 >7 >7 >7 >7 >7 >7 >7 >7 >7 >7 >7 >7 >7 >7 >7 >7 >7 >7 >7 >7 >7 >7 >7 >7 >7 >7 >7 >7 >7 >7 >7 >7 >7 >7 >7 >7 >7 >7 >7 >7 >7 >7 >7 >7 >7 >7 >7 >7 >7 >7 >7 >7 >7 >7 >7 >7 >7 >7 >7 >7 >7 >7 >7 >7 >7 >7 >7 >7 >7 >7 >7 >7 >7 >7 >7 >7 >7 >7 >7 >7 >7 >7 >7 >7 >7 >7 >7 >7 >7 >7 >7 >7 >7 >7 >7 >7 >7 >7 >7 >7 >7 >7 >7 >7 >7 >7 >7 >7 >7 >7 >7 >7 >7 >7 >7 >7 >7 >7 >7 >7 >7 >7 >7 >7 >7 >7 >7 >7 >7 >7 >7 >7 >7 >7 >7 >7 7 7 7 7 7 7 7 7 7 7 7 7 7 7 7 7 7 7 @7 @7 @7 @7 @7 @7 @7 @7 @7 @7 @7 @7 @7 @7 @7 @7 @7 @7 @7 @7 @7 @7 @7 @7 @7 @7 @7 @7 @7 @7 @7 @7 @7 @7 @7 @7 @7 @7 @7 @7 @7 @7 @7 @7 @7 @7 @7 @7 @7 @7 @7 @7 @7 @7 @7 @7 @7 @7 @7 @7 @7 @7 @7 @7 @7 @7 @7 @7 @7 @7 @7 @7 @7 @7 @7 @7 @7 @7 @7 @7 @7 @7 @7 @7 @7 @7 @7 @7 @7 @7 @7 @7 @7 @7 @7 @7 @7 @7 @7 @7 @7 @7 @7 @7 @7 @7 @7 @7 @7 @7 @7 @7 @7 @7 @7 @7 @7 @7 @7 @7 @7 @7 @7 @7 @7 @7 @7 @7 @7 @7 @7 @7 @7 @7 @7 @7 @7 @7 @7 @7 @7 @7 @7 @7 @7 @7 @7 @7 @7 @7 @7 @7 @7 @7 @7 @7 @7 @7 @7 @7 @7 @7 @7 @7 @7 @7 @7 @7 7    C: C: C: C: C: C: C: C: C: C: C: C: C: C: C: C: C: C: C: C: C: C: C: C: C: C: C: C: C: C: C: C: C: C: C: C: C: C: C: C: C: C: C: C: C: C: C: C: C: C: C: C: C: C: C: C: C: C: C: C: C: C: C: C: C: C: C: C: C: C: C: C: C: C: C: C: C: C: C: C: C: C: C: C: C: C: C: C: C: C: C: C: C: C: C: C: C: C: C: C: C: C: C: C: C: C: C: C: C: C: C: C: C: C: C: C: C: C: C: C: C: C: C: C: C: C: C: C: C: C: C: C: C: C: C: C: C: C: C: C: C: C: C: C: C: C: C: C: C: C: C: C: C: C: C: C: C: C: C: C:           A9 A9 A9 A9 A9 A9 A9 A9 A9 A9 A9 A9 A9 A9 A9 A9 A9 A9 A9 A9 A9 A9 A9 A9 A9 A9 A9 A9 A9 A9 A9 A9 A9 A9 A9 A9 A9 A9 A9 A9 A9 A9 A9 A9 A9 A9 A9 A9 A9 A9 A9 A9 A9 A9 A9 A9 A9 A9 A9 A9 A9 A9 A9 A9 A9 A9 A9 A9 A9 A9 A9 A9 A9 A9 A9 A9 A9 A9 A9 A9 A9 A9 A9 A9 A9 A9 A9 A9 A9 A9 A9 A9 A9 A9 A9 A9 A9 A9 A9 A9 A9 A9 A9 A9 A9 A9 A9 A9 A9 A9 A9 A9 A9 A9 A9 A9 A9 A9 A9 A9 A9 A9 A9 A9 A9 A9 A9 A9 A9 A9 A9 A9 A9 A9 A9 A9 A9 A9 A9 A9 A9 A9 A9 A9 A9 A9 A9 A9 A9 A9 A9 A9 A9                    C: C: C: C: C: C: C: C: C: C: C: C: C: C: C: C: C: C: C: C: C: C: C: C: C: C: C: C: C: C: C: C: C: C: C: C: C: C: C: C: C: C: C: C: C: C: C: C: C: C: C: C: C: C: C: C: C: C: C: C: C: C: C: C: C: C: C: C: C: C: C: C: C: C: C: C: C: C: C: C: C: C: C: C: C: C: C: C: C: C: C: C: C: C: C: C: C: C: C: C: C: C: C: C: C: C: C: C: C: C: C: C: C: C: C: C: C: C: C: C: C: C: C: C: C: C: C: C: C: C: C: C: C: C: C: C: C: C: C: C: C: C: C: C: C: C: C: C: C: C: C: C: C: C: C: C: C: C: C: C: C: C: C: C: C: C: C: C:     F7 F7 F7 F7 F7 F7 F7 F7 F7 F7 F7 F7 F7 F7 F7 F7 F7 F7 F7 F7 F7 F7 F7 F7 F7 F7 F7 F7 F7 F7 F7 F7 F7 F7 F7 F7 F7 F7 F7 F7 F7 F7 F7 F7 F7 F7 F7 F7 F7 F7 F7 F7 F7 F7 F7 F7 F7 F7 F7 F7 F7 F7 F7 F7 F7 F7 F7 F7 F7 F7 F7 F7 F7 F7 F7 F7 F7 F7 F7 F7 F7 F7 F7 F7 F7 F7 F7 F7 F7 F7 F7 F7 F7 F7 F7 F7 F7 F7 F7 F7 F7 F7 F7 F7 F7 F7 F7 F7 F7 F7 F7 F7 F7 F7 F7 F7 F7 F7 F7 F7 F7 F7 F7 F7 F7 F7 F7 F7 F7 F7 F7 F7 F7 F7 F7 F7 F7 F7 F7 F7 F7 F7 F7 F7 F7 F7 F7 F7 F7 F7 F7 F7 F7 F7 F7 F7 F7 F7 F7 F7           E5 E5 E5 E5 E5 E5 E5 E5 E5 E5 E5 E5 E5 E5 E5 E5 E5 E5 E5 E5 E5 E5 E5 E5 E5 E5 E5 E5 E5 E5 E5 E5 E5 E5 E5 E5 E5 E5 E5 E5 E5 E5 E5 E5 E5 E5 E5 E5 E5 E5 E5 E5 E5 E5 E5 E5 E5 E5 E5 E5 E5 E5 E5 E5 E5 E5 E5 E5 E5 E5 E5 E5 E5 E5 E5 E5 E5 E5 E5 E5 E5 E5 E5 E5 E5 E5 E5 E5 E5 E5 E5 E5 E5 E5 E5 E5 E5 E5 E5 E5 E5 E5 E5 E5 E5 E5 E5 E5 E5 E5 E5 E5 E5 E5 E5 E5 E5 E5 E5 E5 E5 E5 E5 E5 E5 E5 E5 E5 E5 E5 E5 E5 E5 E5 E5 E5 E5 E5 E5 E5 E5 E5 E5 E5 E5 E5 E5 E5 E5 E5 E5 E5 E5                   F4 F4 F4 F4 F4 F4 F4 F4 F4 F4 F4 F4 F4 F4 F4 F4 F4 F4 F4 F4 F4 F4 F4 F4 F4 F4 F4 F4 F4 F4 F4 F4 F4 F4 F4 F4 F4 F4 F4 F4 F4 F4 F4 F4 F4 F4 F4 F4 F4 F4 F4 F4 F4 F4 F4 F4 F4 F4 F4 F4 F4 F4 F4 F4 F4 F4 F4 F4 F4 F4 F4 F4 F4 F4 F4 F4 F4 F4 F4 F4 F4 F4 F4 F4 F4 F4 F4 F4 F4 F4 F4 F4 F4 F4 F4 F4 F4 F4 F4 F4 F4 F4 F4 F4 F4 F4 F4 F4 F4 F4 F4 F4 F4 F4 F4 F4 F4 F4 F4 F4 F4 F4 F4 F4 F4 F4 F4 F4 F4 F4 F4 F4 F4 F4 F4 F4 F4 F4 F4 F4 F4 F4 F4 F4 F4 F4 F4 F4 F4 F4 F4 F4 F4 F4 F4 F4 F4 F4 F4 F4 F4 F4 F4 F4 F4 F4 F4 F4     E5 E5 E5 E5 E5 E5 E5 E5 E5 E5 E5 E5 E5 E5 E5 E5 E5 E5 E5 E5 E5 E5 E5 E5 E5 E5 E5 E5 E5 E5 E5 E5 E5 E5 E5 E5 E5 E5 E5 E5 E5 E5 E5 E5 E5 E5 E5 E5 E5 E5 E5 E5 E5 E5 E5 E5 E5 E5 E5 E5 E5 E5 E5 E5 E5 E5 E5 E5 E5 E5 E5 E5 E5 E5 E5 E5 E5 E5 E5 E5 E5 E5 E5 E5 E5 E5 E5 E5 E5 E5 E5 E5 E5 E5 E5 E5 E5 E5 E5 E5 E5 E5 E5 E5 E5 E5 E5 E5 E5 E5 E5 E5 E5 E5 E5 E5 E5 E5 E5 E5 E5 E5 E5 E5 E5 E5 E5 E5 E5 E5 E5 E5 E5 E5 E5 E5 E5 E5 E5 E5 E5 E5 E5 E5 E5 E5 E5 E5 E5 E5 E5 E5 E5 E5 E5 E5 E5 E5 E5 E5           C7 C7 C7 C7 C7 C7 C7 C7 C7 C7 C7 C7 C7 C7 C7 C7 C7 C7 C7 C7 C7 C7 C7 C7 C7 C7 C7 C7 C7 C7 C7 C7 C7 C7 C7 C7 C7 C7 C7 C7 C7 C7 C7 C7 C7 C7 C7 C7 C7 C7 C7 C7 C7 C7 C7 C7 C7 C7 C7 C7 C7 C7 C7 C7 C7 C7 C7 C7 C7 C7 C7 C7 C7 C7 C7 C7 C7 C7 C7 C7 C7 C7 C7 C7 C7 C7 C7 C7 C7 C7 C7 C7 C7 C7 C7 C7 C7 C7 C7 C7 C7 C7 C7 C7 C7 C7 C7 C7 C7 C7 C7 C7 C7 C7 C7 C7 C7 C7 C7 C7 C7 C7 C7 C7 C7 C7 C7 C7 C7 C7 C7 C7 C7 C7 C7 C7 C7 C7 C7 C7 C7 C7 C7 C7 C7 C7 C7 C7 C7 C7 C7 C7 C7                    I- I- I- I- I- I- I- I- I- I- I- I- I- I- I- I- I- I- I- I- I- I- I- I- I- I- I- I- I- I- I- I- I- I- I- I- I- I- I- I- I- I- I- I- I- I- I- I- I- I- I- I- I- I- I- I- I- I- I- I- I- I- I- I- I- I- I- I- I- I- I- I- I- I- I- I- I- I- I- I- I- I- I- I- I- I- I- I- I- I- I- I- I- I- I- I- I- I- I- I- I- I- I- I- I- I- I- I- I- I- I- I- I- I- I- I- I- I- I- I- I- I- I- I- I- I- I- I- I- I- I- I- I- I- I- I- I- I- I- I- I- I- I- I- I- I- I- I- I- I- I- I- I- I- I- I- I- I- I- I- I- I- I- I- I- I- I- I- - - - - F- F- F- F- F- F- F- F- F- F- F- F- F- F- F- F- F- F- F- F- F- F- F- F- F- F- F- F- F- F- F- F- F- F- F- F- F- F- F- F- F- F- F- F- F- F- F- F- F- F- F- F- F- F- F- F- F- F- F- F- F- F- F- F- F- F- F- F- F- F- F- F- F- F- F- F- F- F- F- F- F- F- F- F- F- F- F- F- F- F- F- F- F- F- F- F- F- F- F- F- F- F- F- F- F- F- F- F- F- F- F- F- F- F- F- F- F- F- F- F- F- F- F- F- F- F- F- F- F- F- F- F- F- F- F- F- F- F- F- F- F- F- F- F- F- F- F- F- F- F- F- F- F- F- F- F- F- F- F- F- - - - - - - - - - - -E -E -E -E -E -E -E -E -E -E -E -E -E -E -E -E -E -E -E -E -E -E -E -E -E -E -E -E -E -E -E -E E E E E E E E E E E E E E E E E E E E E E E E E E E E E E E E E E E E E E E E E E E E E E E E E E E E E E E E E E E E E E E E E E E E E E E E E E E E E E E E E E E E E E E E E E E E E E E E E E E E E E E E E E E E E E E E E E E E E E E E E E                   J/ J/ J/ J/ J/ J/ J/ J/ J/ J/ J/ J/ J/ J/ J/ J/ J/ J/ J/ J/ J/ J/ J/ J/ J/ J/ J/ J/ J/ J/ J/ J/ J/ J/ J/ J/ J/ J/ J/ J/ J/ J/ J/ J/ J/ J/ J/ J/ J/ J/ J/ J/ J/ J/ J/ J/ J/ J/ J/ J/ J/ J/ J/ J/ J/ J/ J/ J/ J/ J/ J/ J/ J/ J/ J/ J/ J/ J/ J/ J/ J/ J/ J/ J/ J/ J/ J/ J/ J/ J/ J/ J/ J/ J/ J/ J/ J/ J/ J/ J/ J/ J/ J/ J/ J/ J/ J/ J/ J/ J/ J/ J/ J/ J/ J/ J/ J/ J/ J/ J/ J/ J/ J/ J/ J/ J/ J/ J/ J/ J/ J/ J/ J/ J/ J/ J/ J/ J/ J/ J/ J/ J/ J/ J/ J/ J/ J/ J/ J/ J/ J/ J/ J/ J/ J/ J/ J/ J/ J/ J/ J/ J/ J/ J/ J/ J/ J/ J/ / / / / E/ E/ E/ E/ E/ E/ E/ E/ E/ E/ E/ E/ E/ E/ E/ E/ E/ E/ E/ E/ E/ E/ E/ E/ E/ E/ E/ E/ E/ E/ E/ E/ E/ E/ E/ E/ E/ E/ E/ E/ E/ E/ E/ E/ E/ E/ E/ E/ E/ E/ E/ E/ E/ E/ E/ E/ E/ E/ E/ E/ E/ E/ E/ E/ E/ E/ E/ E/ E/ E/ E/ E/ E/ E/ E/ E/ E/ E/ E/ E/ E/ E/ E/ E/ E/ E/ E/ E/ E/ E/ E/ E/ E/ E/ E/ E/ E/ E/ E/ E/ E/ E/ E/ E/ E/ E/ E/ E/ E/ E/ E/ E/ E/ E/ E/ E/ E/ E/ E/ E/ E/ E/ E/ E/ E/ E/ E/ E/ E/ E/ E/ E/ E/ E/ E/ E/ E/ E/ E/ E/ E/ E/ E/ E/ E/ E/ E/ E/ E/ E/ E/ E/ E/ E/ E/ E/ E/ E/ E/ E/ / / / / / / / / / / /C /C /C /C /C /C /C /C /C /C /C /C /C /C /C /C /C /C /C /C /C /C /C /C /C /C /C /C /C /C /C /C C C C C C C C C C C C C C C C C C C C C C C C C C C C C C C C C C C C C C C C C C C C C C C C C C C C C C C C C C C C C C C C C C C C C C C C C C C C C C C C C C C C C C C C C C C C C C C C C C C C C C C C C C C C C C C C C C C C C C C C C C                    L1 L1 L1 L1 L1 L1 L1 L1 L1 L1 L1 L1 L1 L1 L1 L1 L1 L1 L1 L1 L1 L1 L1 L1 L1 L1 L1 L1 L1 L1 L1 L1 L1 L1 L1 L1 L1 L1 L1 L1 L1 L1 L1 L1 L1 L1 L1 L1 L1 L1 L1 L1 L1 L1 L1 L1 L1 L1 L1 L1 L1 L1 L1 L1 L1 L1 L1 L1 L1 L1 L1 L1 L1 L1 L1 L1 L1 L1 L1 L1 L1 L1 L1 L1 L1 L1 L1 L1 L1 L1 L1 L1 L1 L1 L1 L1 L1 L1 L1 L1 L1 L1 L1 L1 L1 L1 L1 L1 L1 L1 L1 L1 L1 L1 L1 L1 L1 L1 L1 L1 L1 L1 L1 L1 L1 L1 L1 L1 L1 L1 L1 L1 L1 L1 L1 L1 L1 L1 L1 L1 L1 L1 L1 L1 L1 L1 L1 L1 L1 L1 L1 L1 L1 L1 L1 L1 L1 L1 L1 L1 L1 L1 L1 L1 L1 L1 L1 L1 1 1 1 1 E1 E1 E1 E1 E1 E1 E1 E1 E1 E1 E1 E1 E1 E1 E1 E1 E1 E1 E1 E1 E1 E1 E1 E1 E1 E1 E1 E1 E1 E1 E1 E1 E1 E1 E1 E1 E1 E1 E1 E1 E1 E1 E1 E1 E1 E1 E1 E1 E1 E1 E1 E1 E1 E1 E1 E1 E1 E1 E1 E1 E1 E1 E1 E1 E1 E1 E1 E1 E1 E1 E1 E1 E1 E1 E1 E1 E1 E1 E1 E1 E1 E1 E1 E1 E1 E1 E1 E1 E1 E1 E1 E1 E1 E1 E1 E1 E1 E1 E1 E1 E1 E1 E1 E1 E1 E1 E1 E1 E1 E1 E1 E1 E1 E1 E1 E1 E1 E1 E1 E1 E1 E1 E1 E1 E1 E1 E1 E1 E1 E1 E1 E1 E1 E1 E1 E1 E1 E1 E1 E1 E1 E1 E1 E1 E1 E1 E1 E1 E1 E1 E1 E1 E1 E1 E1 E1 E1 E1 E1 E1 1 1 1 1 1 1     C- C- C- C- C- C- C- C- C- C- C- C- C- C- C- C- C- C- C- C- C- C- C- C- C- C- C- C- C- C- C- C- C- C- C- C- C- C- C- C- C- C- C- C- C- C- C- C- C- C- C- C- C- C- C- C- C- C- C- C- C- C- C- C- C- C- C- C- C- C- C- C- C- C- C- C- C- C- C- C- C- C- C- C- C- C- C- C- C- C- C- C- C- C- C- C- C- C- C- C- C- C- C- C- C- C- C- C- C- C- C- C- C- C- C- C- C- C- C- C- C- C- C- C- C- C- C- C- C- C- C- C- C- C- C- C- C- C- C- C- C- C- C- C- C- C- C- C- C- C- C- C- C-                    A/ A/ A/ A/ A/ A/ A/ A/ A/ A/ A/ A/ A/ A/ A/ A/ A/ A/ A/ A/ A/ A/ A/ A/ A/ A/ A/ A/ A/ A/ A/ A/ A/ A/ A/ A/ A/ A/ A/ A/ A/ A/ A/ A/ A/ A/ A/ A/ A/ A/ A/ A/ A/ A/ A/ A/ A/ A/ A/ A/ A/ A/ A/ A/ A/ A/ A/ A/ A/ A/ A/ A/ A/ A/ A/ A/ A/ A/ A/ A/ A/ A/ A/ A/ A/ A/ A/ A/ A/ A/ A/ A/ A/ A/ A/ A/ A/ A/ A/ A/ A/ A/ A/ A/ A/ A/ A/ A/ A/ A/ A/ A/ A/ A/ A/ A/ A/ A/ A/ A/ A/ A/ A/ A/ A/ A/ A/ A/ A/ A/ A/ A/ A/ A/ A/ A/ A/ A/ A/ A/ A/ A/ A/ A/ A/ A/ A/ A/ A/ A/ A/ A/ A/ A/ A/ A/ A/ A/ A/ A/ A/ A/ A/ A/ A/ A/ A/ A/ / / / C/ C/ C/ C/ C/ C/ C/ C/ C/ C/ C/ C/ C/ C/ C/ C/ C/ C/ C/ C/ C/ C/ C/ C/ C/ C/ C/ C/ C/ C/ C/ C/ C/ C/ C/ C/ C/ C/ C/ C/ C/ C/ C/ C/ C/ C/ C/ C/ C/ C/ C/ C/ C/ C/ C/ C/ C/ C/ C/ C/ C/ C/ C/ C/ C/ C/ C/ C/ C/ C/ C/ C/ C/ C/ C/ C/ C/ C/ C/ C/ C/ C/ C/ C/ C/ C/ C/ C/ C/ C/ C/ C/ C/ C/ C/ C/ C/ C/ C/ C/ C/ C/ C/ C/ C/ C/ C/ C/ C/ C/ C/ C/ C/ C/ C/ C/ C/ C/ C/ C/ C/ C/ C/ C/ C/ C/ C/ C/ C/ C/ C/ C/ C/ C/ C/ C/ C/ C/ C/ C/ C/ C/ C/ C/ C/ C/ C/ C/ C/ C/ C/ C/ C/ C/ C/ C/ C/ C/ C/ C/ / / / / / / /    @1 @1 @1 @1 @1 @1 @1 @1 @1 @1 @1 @1 @1 @1 @1 @1 @1 @1 @1 @1 @1 @1 @1 @1 @1 @1 @1 @1 @1 @1 @1 @1 @1 @1 @1 @1 @1 @1 @1 @1 @1 @1 @1 @1 @1 @1 @1 @1 @1 @1 @1 @1 @1 @1 @1 @1 @1 @1 @1 @1 @1 @1 @1 @1 @1 @1 @1 @1 @1 @1 @1 @1 @1 @1 @1 @1 @1 @1 @1 @1 @1 @1 @1 @1 @1 @1 @1 @1 @1 @1 @1 @1 @1 @1 @1 @1 @1 @1 @1 @1 @1 @1 @1 @1 @1 @1 @1 @1 @1 @1 @1 @1 @1 @1 @1 @1 @1 @1 @1 @1 @1 @1 @1 @1 @1 @1 @1 @1 @1 @1 @1 @1 @1 @1 @1 @1 @1 @1 @1 @1 @1 @1 @1 @1 @1 @1 @1 @1 @1 @1 @1 @1 @1                    A2 A2 A2 A2 A2 A2 A2 A2 A2 A2 A2 A2 A2 A2 A2 A2 A2 A2 A2 A2 A2 A2 A2 A2 A2 A2 A2 A2 A2 A2 A2 A2 A2 A2 A2 A2 A2 A2 A2 A2 A2 A2 A2 A2 A2 A2 A2 A2 A2 A2 A2 A2 A2 A2 A2 A2 A2 A2 A2 A2 A2 A2 A2 A2 A2 A2 A2 A2 A2 A2 A2 A2 A2 A2 A2 A2 A2 A2 A2 A2 A2 A2 A2 A2 A2 A2 A2 A2 A2 A2 A2 A2 A2 A2 A2 A2 A2 A2 A2 A2 A2 A2 A2 A2 A2 A2 A2 A2 A2 A2 A2 A2 A2 A2 A2 A2 A2 A2 A2 A2 A2 A2 A2 A2 A2 A2 A2 A2 A2 A2 A2 A2 A2 A2 A2 A2 A2 A2 A2 A2 A2 A2 A2 A2 A2 A2 A2 A2 A2 A2 A2 A2 A2 A2 A2 A2 A2 A2 A2 A2 A2 A2 A2 A2 A2 A2 A2 A2 2 2 2 2 @2 @2 @2 @2 @2 @2 @2 @2 @2 @2 @2 @2 @2 @2 @2 @2 @2 @2 @2 @2 @2 @2 @2 @2 @2 @2 @2 @2 @2 @2 @2 @2 @2 @2 @2 @2 @2 @2 @2 @2 @2 @2 @2 @2 @2 @2 @2 @2 @2 @2 @2 @2 @2 @2 @2 @2 @2 @2 @2 @2 @2 @2 @2 @2 @2 @2 @2 @2 @2 @2 @2 @2 @2 @2 @2 @2 @2 @2 @2 @2 @2 @2 @2 @2 @2 @2 @2 @2 @2 @2 @2 @2 @2 @2 @2 @2 @2 @2 @2 @2 @2 @2 @2 @2 @2 @2 @2 @2 @2 @2 @2 @2 @2 @2 @2 @2 @2 @2 @2 @2 @2 @2 @2 @2 @2 @2 @2 @2 @2 @2 @2 @2 @2 @2 @2 @2 @2 @2 @2 @2 @2 @2 @2 @2 @2 @2 @2 @2 @2 @2 @2 @2 @2 @2 @2 @2 @2 @2 @2 @2 2 2 2 2 2 2 2 2 2 2 2> 2> 2> 2> 2> 2> 2> 2> 2> 2> 2> 2> 2> 2> 2> 2> 2> 2> 2> 2> 2> 2> 2> 2> 2> 2> 2> 2> 2> 2> 2> 2> > > > > > > > > > > > > > > > > > > > > > > > > > > > > > > > > > > > > > > > > > > > > > > > > > > > > > > > > > > > > > > > > > > > > > > > > > > > > > > > > > > > > > > > > > > > > > > > > > > > > > > > > > > > > > > > > > > > > > > > > >                    C4 C4 C4 C4 C4 C4 C4 C4 C4 C4 C4 C4 C4 C4 C4 C4 C4 C4 C4 C4 C4 C4 C4 C4 C4 C4 C4 C4 C4 C4 C4 C4 C4 C4 C4 C4 C4 C4 C4 C4 C4 C4 C4 C4 C4 C4 C4 C4 C4 C4 C4 C4 C4 C4 C4 C4 C4 C4 C4 C4 C4 C4 C4 C4 C4 C4 C4 C4 C4 C4 C4 C4 C4 C4 C4 C4 C4 C4 C4 C4 C4 C4 C4 C4 C4 C4 C4 C4 C4 C4 C4 C4 C4 C4 C4 C4 C4 C4 C4 C4 C4 C4 C4 C4 C4 C4 C4 C4 C4 C4 C4 C4 C4 C4 C4 C4 C4 C4 C4 C4 C4 C4 C4 C4 C4 C4 C4 C4 C4 C4 C4 C4 C4 C4 C4 C4 C4 C4 C4 C4 C4 C4 C4 C4 C4 C4 C4 C4 C4 C4 C4 C4 C4 C4 C4 C4 C4 C4 C4 C4 C4 C4 C4 C4 C4 C4 C4 C4 4 4 4 @4 @4 @4 @4 @4 @4 @4 @4 @4 @4 @4 @4 @4 @4 @4 @4 @4 @4 @4 @4 @4 @4 @4 @4 @4 @4 @4 @4 @4 @4 @4 @4 @4 @4 @4 @4 @4 @4 @4 @4 @4 @4 @4 @4 @4 @4 @4 @4 @4 @4 @4 @4 @4 @4 @4 @4 @4 @4 @4 @4 @4 @4 @4 @4 @4 @4 @4 @4 @4 @4 @4 @4 @4 @4 @4 @4 @4 @4 @4 @4 @4 @4 @4 @4 @4 @4 @4 @4 @4 @4 @4 @4 @4 @4 @4 @4 @4 @4 @4 @4 @4 @4 @4 @4 @4 @4 @4 @4 @4 @4 @4 @4 @4 @4 @4 @4 @4 @4 @4 @4 @4 @4 @4 @4 @4 @4 @4 @4 @4 @4 @4 @4 @4 @4 @4 @4 @4 @4 @4 @4 @4 @4 @4 @4 @4 @4 @4 @4 @4 @4 @4 @4 @4 @4 @4 @4 @4 @4 @4 @4 4 4 4 4 4 4 4 4 4 4 4> 4> 4> 4> 4> 4> 4> 4> 4> 4> 4> 4> 4> 4> 4> 4> 4> 4> 4> 4> 4> 4> 4> 4> 4> 4> 4> 4> 4> 4> 4> 4> 4> > > > > > > > > > > > > > > > > > > > > > > > > > > > > > > > > > > > > > > > > > > > > > > > > > > > > > > > > > > > > > > > > > > > > > > > > > > > > > > > > > > > > > > > > > > > > > > > > > > > > > > > > > > > > > > > > > > > > > > > >                    E5 E5 E5 E5 E5 E5 E5 E5 E5 E5 E5 E5 E5 E5 E5 E5 E5 E5 E5 E5 E5 E5 E5 E5 E5 E5 E5 E5 E5 E5 E5 E5 E5 E5 E5 E5 E5 E5 E5 E5 E5 E5 E5 E5 E5 E5 E5 E5 E5 E5 E5 E5 E5 E5 E5 E5 E5 E5 E5 E5 E5 E5 E5 E5 E5 E5 E5 E5 E5 E5 E5 E5 E5 E5 E5 E5 E5 E5 E5 E5 E5 E5 E5 E5 E5 E5 E5 E5 E5 E5 E5 E5 E5 E5 E5 E5 E5 E5 E5 E5 E5 E5 E5 E5 E5 E5 E5 E5 E5 E5 E5 E5 E5 E5 E5 E5 E5 E5 E5 E5 E5 E5 E5 E5 E5 E5 E5 E5 E5 E5 E5 E5 E5 E5 E5 E5 E5 E5 E5 E5 E5 E5 E5 E5 E5 E5 E5 E5 E5 E5 E5 E5 E5 E5 E5 E5 E5 E5 E5 E5 E5 E5 E5 E5 E5 E5 E5 E5 5 5 5 5 @5 @5 @5 @5 @5 @5 @5 @5 @5 @5 @5 @5 @5 @5 @5 @5 @5 @5 @5 @5 @5 @5 @5 @5 @5 @5 @5 @5 @5 @5 @5 @5 @5 @5 @5 @5 @5 @5 @5 @5 @5 @5 @5 @5 @5 @5 @5 @5 @5 @5 @5 @5 @5 @5 @5 @5 @5 @5 @5 @5 @5 @5 @5 @5 @5 @5 @5 @5 @5 @5 @5 @5 @5 @5 @5 @5 @5 @5 @5 @5 @5 @5 @5 @5 @5 @5 @5 @5 @5 @5 @5 @5 @5 @5 @5 @5 @5 @5 @5 @5 @5 @5 @5 @5 @5 @5 @5 @5 @5 @5 @5 @5 @5 @5 @5 @5 @5 @5 @5 @5 @5 @5 @5 @5 @5 @5 @5 @5 @5 @5 @5 @5 @5 @5 @5 @5 @5 @5 @5 @5 @5 @5 @5 @5 @5 @5 @5 @5 @5 @5 @5 @5 @5 @5 @5 @5 @5 @5 @5 @5 5 5 5 5 5 5 5 5 5 5 5> 5> 5> 5> 5> 5> 5> 5> 5> 5> 5> 5> 5> 5> 5> 5> 5> 5> 5> 5> 5> 5> 5> 5> 5> 5> 5> 5> 5> 5> 5> 5> > > > > > > > > > > > > > > > > > > > > > > > > > > > > > > > > > > > > > > > > > > > > > > > > > > > > > > > > > > > > > > > > > > > > > > > > > > > > > > > > > > > > > > > > > > > > > > > > > > > > > > > > > > > > > > > > > > > > > > > > >                    F7 F7 F7 F7 F7 F7 F7 F7 F7 F7 F7 F7 F7 F7 F7 F7 F7 F7 F7 F7 F7 F7 F7 F7 F7 F7 F7 F7 F7 F7 F7 F7 F7 F7 F7 F7 F7 F7 F7 F7 F7 F7 F7 F7 F7 F7 F7 F7 F7 F7 F7 F7 F7 F7 F7 F7 F7 F7 F7 F7 F7 F7 F7 F7 F7 F7 F7 F7 F7 F7 F7 F7 F7 F7 F7 F7 F7 F7 F7 F7 F7 F7 F7 F7 F7 F7 F7 F7 F7 F7 F7 F7 F7 F7 F7 F7 F7 F7 F7 F7 F7 F7 F7 F7 F7 F7 F7 F7 F7 F7 F7 F7 F7 F7 F7 F7 F7 F7 F7 F7 F7 F7 F7 F7 F7 F7 F7 F7 F7 F7 F7 F7 F7 F7 F7 F7 F7 F7 F7 F7 F7 F7 F7 F7 F7 F7 F7 F7 F7 F7 F7 F7 F7 F7 F7 F7 F7 F7 F7 F7 F7 F7 F7 F7 F7 F7 F7 F7 7 7 7 @7 @7 @7 @7 @7 @7 @7 @7 @7 @7 @7 @7 @7 @7 @7 @7 @7 @7 @7 @7 @7 @7 @7 @7 @7 @7 @7 @7 @7 @7 @7 @7 @7 @7 @7 @7 @7 @7 @7 @7 @7 @7 @7 @7 @7 @7 @7 @7 @7 @7 @7 @7 @7 @7 @7 @7 @7 @7 @7 @7 @7 @7 @7 @7 @7 @7 @7 @7 @7 @7 @7 @7 @7 @7 @7 @7 @7 @7 @7 @7 @7 @7 @7 @7 @7 @7 @7 @7 @7 @7 @7 @7 @7 @7 @7 @7 @7 @7 @7 @7 @7 @7 @7 @7 @7 @7 @7 @7 @7 @7 @7 @7 @7 @7 @7 @7 @7 @7 @7 @7 @7 @7 @7 @7 @7 @7 @7 @7 @7 @7 @7 @7 @7 @7 @7 @7 @7 @7 @7 @7 @7 @7 @7 @7 @7 @7 @7 @7 @7 @7 @7 @7 @7 @7 @7 @7 @7 @7 @7 @7 7 7 7 7 7 7 7 7 7 7 7 >7 >7 >7 >7 >7 >7 >7 >7 >7 >7 >7 >7 >7 >7 >7 >7 >7 >7 >7 >7 >7 >7 >7 >7 >7 >7 >7 >7 >7 >7 >7 >7 >7 >7 >7 >7 >7 >7 >7 >7 >7 >7 >7 >7 >7 >7 >7 >7 >7 >7 >7 >7 >7 >7 >7 >7 >7 >7 >7 >7 >7 >7 >7 >7 >7 >7 >7 >7 >7 >7 >7 >7 >7 >7 >7 >7 >7 >7 >7 >7 >7 >7 >7 >7 >7 >7 >7 >7 >7 >7 >7 >7 >7 >7 >7 >7 >7 >7 >7 >7 >7 >7 >7 >7 >7 >7 >7 >7 >7 >7 >7 >7 >7 >7 >7 >7 >7 >7 >7 >7 >7 >7 >7 >7 >7 >7 >7 >7 >7 >7 >7 >7 >7 >7 >7 >7 >7 >7 >7 >7 >7 >7 >7 >7 >7 >7 >7 >7 >7 >7 >7 >7 >7 7 7 7 7 7 7 7 7 7 7 7 7 7 7 7 7 7 7 7= 7= 7= 7= 7= 7= 7= 7= 7= 7= 7= 7= 7= 7= 7= 7= 7= 7= 7= 7= 7= 7= 7= 7= 7= 7= 7= 7= 7= 7= 7= 7= 7= 7= 7= 7= 7= 7= 7= 7= 7= 7= 7= 7= 7= 7= 7= 7= 7= 7= 7= 7= 7= 7= 7= 7= 7= 7= 7= 7= 7= 7= 7= 7= 7= 7= 7= 7= 7= 7= 7= 7= 7= 7= 7= 7= 7= 7= 7= 7= 7= 7= 7= 7= 7= 7= 7= 7= 7= 7= 7= 7= 7= 7= 7= 7= 7= 7= 7= 7= 7= 7= 7= 7= 7= 7= 7= 7= 7= 7= 7= 7= 7= 7= 7= 7= 7= 7= 7= 7= = = = = = = = = = = = = = = = = = = = = = = = = = = = = = = = = = = = = = = = = = = = = = = = =     >5 >5 >5 >5 >5 >5 >5 >5 >5 >5 >5 >5 >5 >5 >5 >5 >5 >5 >5 >5 >5 >5 >5 >5 >5 >5 >5 >5 >5 >5 >5 >5 >5 >5 >5 >5 >5 >5 >5 >5 >5 >5 >5 >5 >5 >5 >5 >5 >5 >5 >5 >5 >5 >5 >5 >5 >5 >5 >5 >5 >5 >5 >5 >5 >5 >5 >5 >5 >5 >5 >5 >5 >5 >5 >5 >5 >5 >5 >5 >5 >5 >5 >5 >5 >5 >5 >5 >5 >5 >5 >5 >5 >5 >5 >5 >5 >5 >5 >5 >5 >5 >5 >5 >5 >5 >5 >5 >5 >5 >5 >5 >5 >5 >5 >5 >5 >5 >5 >5 >5 >5 >5 >5 >5 >5 >5 >5 >5 >5 >5 >5 >5 >5 >5 >5 >5 >5 >5 >5 >5 >5 >5 >5 >5 >5 >5 >5 >5 >5 >5 >5 >5 >5 >5 >5 >5 >5 >5 >5 >5           @4 @4 @4 @4 @4 @4 @4 @4 @4 @4 @4 @4 @4 @4 @4 @4 @4 @4 @4 @4 @4 @4 @4 @4 @4 @4 @4 @4 @4 @4 @4 @4 @4 @4 @4 @4 @4 @4 @4 @4 @4 @4 @4 @4 @4 @4 @4 @4 @4 @4 @4 @4 @4 @4 @4 @4 @4 @4 @4 @4 @4 @4 @4 @4 @4 @4 @4 @4 @4 @4 @4 @4 @4 @4 @4 @4 @4 @4 @4 @4 @4 @4 @4 @4 @4 @4 @4 @4 @4 @4 @4 @4 @4 @4 @4 @4 @4 @4 @4 @4 @4 @4 @4 @4 @4 @4 @4 @4 @4 @4 @4 @4 @4 @4 @4 @4 @4 @4 @4 @4 @4 @4 @4 @4 @4 @4 @4 @4 @4 @4 @4 @4 @4 @4 @4 @4 @4 @4 @4 @4 @4 @4 @4 @4 @4 @4 @4 @4 @4 @4 @4 @4 @4                    59 59 59 59 59 59 59 59 59 59 59 59 59 59 59 59 59 59 59 59 59 59 59 59 59 59 59 59 59 59 59 59 59 59 59 59 59 59 59 59 59 59 59 59 59 59 59 59 59 59 59 59 59 59 59 59 59 59 59 59 59 59 59 59 59 59 59 59 59 59 59 59 59 59 59 59 59 59 59 59 59 59 59 59 59 59 59 59 59 59 59 59 59 59 59 59 59 59 59 59 59 59 59 59 59 59 59 59 59 59 59 59 59 59 59 59 59 59 59 59 59 59 59 59 59 59 59 59 59 59 59 59 59 59 59 59 59 59 59 59 59 59 59 59 59 59 59 59 59 59 59 59 59 59 59 59 59 59 59 59 59 59 59 59 59 59 59 59 9 9 9 =9 =9 =9 =9 =9 =9 =9 =9 =9 =9 =9 =9 =9 =9 =9 =9 =9 =9 =9 =9 =9 =9 =9 =9 =9 =9 =9 =9 =9 =9 =9 =9 =9 =9 =9 =9 =9 =9 =9 =9 =9 =9 =9 =9 =9 =9 =9 =9 =9 =9 =9 =9 =9 =9 =9 =9 =9 =9 =9 =9 =9 =9 =9 =9 =9 =9 =9 =9 =9 =9 =9 =9 =9 =9 =9 =9 =9 =9 =9 =9 =9 =9 =9 =9 =9 =9 =9 =9 =9 =9 =9 =9 =9 =9 =9 =9 =9 =9 =9 =9 =9 =9 =9 =9 =9 =9 =9 =9 =9 =9 =9 =9 =9 =9 =9 =9 =9 =9 =9 =9 =9 =9 =9 =9 =9 =9 =9 =9 =9 =9 =9 =9 =9 =9 =9 =9 =9 =9 =9 =9 =9 =9 =9 =9 =9 =9 =9 =9 =9 =9 =9 =9 =9 =9 =9 =9 =9 =9 =9 =9 9 9 9 9 9 9 9     Q> Q> Q> Q> Q> Q> Q> Q> Q> Q> Q> Q> Q> Q> Q> Q> Q> Q> Q> Q> Q> Q> Q> Q> Q> Q> Q> Q> Q> Q> Q> Q> Q> Q> Q> Q> Q> Q> Q> Q> Q> Q> Q> Q> Q> Q> Q> Q> Q> Q> Q> Q> Q> Q> Q> Q> Q> Q> Q> Q> Q> Q> Q> Q> Q> Q> Q> Q> Q> Q> Q> Q> Q> Q> Q> Q> Q> Q> Q> Q> Q> Q> Q> Q> Q> Q> Q> Q> Q> Q> Q> Q> Q> Q> Q> Q> Q> Q> Q> Q> Q> Q> Q> Q> Q> Q> Q> Q> Q> Q> Q> Q> Q> Q> Q> Q> Q> Q> Q> Q> Q> Q> Q> Q> Q> Q> Q> Q> Q> Q> Q> Q> Q> Q> Q> Q> Q> Q> Q> Q> Q> Q> Q> Q> Q> Q> Q> Q> Q> Q> Q> Q> Q>                   R7 R7 R7 R7 R7 R7 R7 R7 R7 R7 R7 R7 R7 R7 R7 R7 R7 R7 R7 R7 R7 R7 R7 R7 R7 R7 R7 R7 R7 R7 R7 R7 R7 R7 R7 R7 R7 R7 R7 R7 R7 R7 R7 R7 R7 R7 R7 R7 R7 R7 R7 R7 R7 R7 R7 R7 R7 R7 R7 R7 R7 R7 R7 R7 R7 R7 R7 R7 R7 R7 R7 R7 R7 R7 R7 R7 R7 R7 R7 R7 R7 R7 R7 R7 R7 R7 R7 R7 R7 R7 R7 R7 R7 R7 R7 R7 R7 R7 R7 R7 R7 R7 R7 R7 R7 R7 R7 R7 R7 R7 R7 R7 R7 R7 R7 R7 R7 R7 R7 R7 R7 R7 R7 R7 R7 R7 R7 R7 R7 R7 R7 R7 R7 R7 R7 R7 R7 R7 R7 R7 R7 R7 R7 R7 R7 R7 R7 R7 R7 R7 R7 R7 R7 R7 R7 R7 R7 R7 R7 R7 R7 R7 R7 R7 R7 R7 R7 R7     Q= Q= Q= Q= Q= Q= Q= Q= Q= Q= Q= Q= Q= Q= Q= Q= Q= Q= Q= Q= Q= Q= Q= Q= Q= Q= Q= Q= Q= Q= Q= Q= Q= Q= Q= Q= Q= Q= Q= Q= Q= Q= Q= Q= Q= Q= Q= Q= Q= Q= Q= Q= Q= Q= Q= Q= Q= Q= Q= Q= Q= Q= Q= Q= Q= Q= Q= Q= Q= Q= Q= Q= Q= Q= Q= Q= Q= Q= Q= Q= Q= Q= Q= Q= Q= Q= Q= Q= Q= Q= Q= Q= Q= Q= Q= Q= Q= Q= Q= Q= Q= Q= Q= Q= Q= Q= Q= Q= Q= Q= Q= Q= Q= Q= Q= Q= Q= Q= Q= Q= Q= Q= Q= Q= Q= Q= Q= Q= Q= Q= Q= Q= Q= Q= Q= Q= Q= Q= Q= Q= Q= Q= Q= Q= Q= Q= Q= Q= Q= Q= Q= Q= Q= Q= Q= Q= Q= Q= Q= Q=           O> O> O> O> O> O> O> O> O> O> O> O> O> O> O> O> O> O> O> O> O> O> O> O> O> O> O> O> O> O> O> O> O> O> O> O> O> O> O> O> O> O> O> O> O> O> O> O> O> O> O> O> O> O> O> O> O> O> O> O> O> O> O> O> O> O> O> O> O> O> O> O> O> O> O> O> O> O> O> O> O> O> O> O> O> O> O> O> O> O> O> O> O> O> O> O> O> O> O> O> O> O> O> O> O> O> O> O> O> O> O> O> O> O> O> O> O> O> O> O> O> O> O> O> O> O> O> O> O> O> O> O> O> O> O> O> O> O> O> O> O> O> O> O> O> O> O> O> O> O> O> O> O>                    M8 M8 M8 M8 M8 M8 M8 M8 M8 M8 M8 M8 M8 M8 M8 M8 M8 M8 M8 M8 M8 M8 M8 M8 M8 M8 M8 M8 M8 M8 M8 M8 M8 M8 M8 M8 M8 M8 M8 M8 M8 M8 M8 M8 M8 M8 M8 M8 M8 M8 M8 M8 M8 M8 M8 M8 M8 M8 M8 M8 M8 M8 M8 M8 M8 M8 M8 M8 M8 M8 M8 M8 M8 M8 M8 M8 M8 M8 M8 M8 M8 M8 M8 M8 M8 M8 M8 M8 M8 M8 M8 M8 M8 M8 M8 M8 M8 M8 M8 M8 M8 M8 M8 M8 M8 M8 M8 M8 M8 M8 M8 M8 M8 M8 M8 M8 M8 M8 M8 M8 M8 M8 M8 M8 M8 M8 M8 M8 M8 M8 M8 M8 M8 M8 M8 M8 M8 M8 M8 M8 M8 M8 M8 M8 M8 M8 M8 M8 M8 M8 M8 M8 M8 M8 M8 M8 M8 M8 M8 M8 M8 M8 M8 M8 M8 M8 M8 M8     L= L= L= L= L= L= L= L= L= L= L= L= L= L= L= L= L= L= L= L= L= L= L= L= L= L= L= L= L= L= L= L= L= L= L= L= L= L= L= L= L= L= L= L= L= L= L= L= L= L= L= L= L= L= L= L= L= L= L= L= L= L= L= L= L= L= L= L= L= L= L= L= L= L= L= L= L= L= L= L= L= L= L= L= L= L= L= L= L= L= L= L= L= L= L= L= L= L= L= L= L= L= L= L= L= L= L= L= L= L= L= L= L= L= L= L= L= L= L= L= L= L= L= L= L= L= L= L= L= L= L= L= L= L= L= L= L= L= L= L= L= L= L= L= L= L= L= L= L= L= L= L= L= L= L= L= L= L= L= L=           J> J> J> J> J> J> J> J> J> J> J> J> J> J> J> J> J> J> J> J> J> J> J> J> J> J> J> J> J> J> J> J> J> J> J> J> J> J> J> J> J> J> J> J> J> J> J> J> J> J> J> J> J> J> J> J> J> J> J> J> J> J> J> J> J> J> J> J> J> J> J> J> J> J> J> J> J> J> J> J> J> J> J> J> J> J> J> J> J> J> J> J> J> J> J> J> J> J> J> J> J> J> J> J> J> J> J> J> J> J> J> J> J> J> J> J> J> J> J> J> J> J> J> J> J> J> J> J> J> J> J> J> J> J> J> J> J> J> J> J> J> J> J> J> J> J> J> J> J> J> J> J> J>                   I9 I9 I9 I9 I9 I9 I9 I9 I9 I9 I9 I9 I9 I9 I9 I9 I9 I9 I9 I9 I9 I9 I9 I9 I9 I9 I9 I9 I9 I9 I9 I9 I9 I9 I9 I9 I9 I9 I9 I9 I9 I9 I9 I9 I9 I9 I9 I9 I9 I9 I9 I9 I9 I9 I9 I9 I9 I9 I9 I9 I9 I9 I9 I9 I9 I9 I9 I9 I9 I9 I9 I9 I9 I9 I9 I9 I9 I9 I9 I9 I9 I9 I9 I9 I9 I9 I9 I9 I9 I9 I9 I9 I9 I9 I9 I9 I9 I9 I9 I9 I9 I9 I9 I9 I9 I9 I9 I9 I9 I9 I9 I9 I9 I9 I9 I9 I9 I9 I9 I9 I9 I9 I9 I9 I9 I9 I9 I9 I9 I9 I9 I9 I9 I9 I9 I9 I9 I9 I9 I9 I9 I9 I9 I9 I9 I9 I9 I9 I9 I9 I9 I9 I9 I9 I9 I9 I9 I9 I9 I9 I9 I9 I9 I9 I9 I9 I9 I9     L= L= L= L= L= L= L= L= L= L= L= L= L= L= L= L= L= L= L= L= L= L= L= L= L= L= L= L= L= L= L= L= L= L= L= L= L= L= L= L= L= L= L= L= L= L= L= L= L= L= L= L= L= L= L= L= L= L= L= L= L= L= L= L= L= L= L= L= L= L= L= L= L= L= L= L= L= L= L= L= L= L= L= L= L= L= L= L= L= L= L= L= L= L= L= L= L= L= L= L= L= L= L= L= L= L= L= L= L= L= L= L= L= L= L= L= L= L= L= L= L= L= L= L= L= L= L= L= L= L= L= L= L= L= L= L= L= L= L= L= L= L= L= L= L= L= L= L= L= L= L= L= L= L= L= L= L= L= L= L=           E> E> E> E> E> E> E> E> E> E> E> E> E> E> E> E> E> E> E> E> E> E> E> E> E> E> E> E> E> E> E> E> E> E> E> E> E> E> E> E> E> E> E> E> E> E> E> E> E> E> E> E> E> E> E> E> E> E> E> E> E> E> E> E> E> E> E> E> E> E> E> E> E> E> E> E> E> E> E> E> E> E> E> E> E> E> E> E> E> E> E> E> E> E> E> E> E> E> E> E> E> E> E> E> E> E> E> E> E> E> E> E> E> E> E> E> E> E> E> E> E> E> E> E> E> E> E> E> E> E> E> E> E> E> E> E> E> E> E> E> E> E> E> E> E> E> E> E> E> E> E> E> E>                    C@ C@ C@ C@ C@ C@ C@ C@ C@ C@ C@ C@ C@ C@ C@ C@ C@ C@ C@ C@ C@ C@ C@ C@ C@ C@ C@ C@ C@ C@ C@ C@ C@ C@ C@ C@ C@ C@ C@ C@ C@ C@ C@ C@ C@ C@ C@ C@ C@ C@ C@ C@ C@ C@ C@ C@ C@ C@ C@ C@ C@ C@ C@ C@ C@ C@ C@ C@ C@ C@ C@ C@ C@ C@ C@ C@ C@ C@ C@ C@ C@ C@ C@ C@ C@ C@ C@ C@ C@ C@ C@ C@ C@ C@ C@ C@ C@ C@ C@ C@ C@ C@ C@ C@ C@ C@ C@ C@ C@ C@ C@ C@ C@ C@ C@ C@ C@ C@ C@ C@ C@ C@ C@ C@ C@ C@ C@ C@ C@ C@ C@ C@ C@ C@ C@ C@ C@ C@ C@ C@ C@ C@ C@ C@ C@ C@ C@ C@ C@ C@ C@ C@ C@ C@ C@ C@ C@ C@ C@ C@ C@ C@ C@ C@ C@ C@ C@ C@     A> A> A> A> A> A> A> A> A> A> A> A> A> A> A> A> A> A> A> A> A> A> A> A> A> A> A> A> A> A> A> A> A> A> A> A> A> A> A> A> A> A> A> A> A> A> A> A> A> A> A> A> A> A> A> A> A> A> A> A> A> A> A> A> A> A> A> A> A> A> A> A> A> A> A> A> A> A> A> A> A> A> A> A> A> A> A> A> A> A> A> A> A> A> A> A> A> A> A> A> A> A> A> A> A> A> A> A> A> A> A> A> A> A> A> A> A> A> A> A> A> A> A> A> A> A> A> A> A> A> A> A> A> A> A> A> A> A> A> A> A> A> A> A> A> A> A> A> A> A> A> A> A> A> A> A> A> A> A> A>           @= @= @= @= @= @= @= @= @= @= @= @= @= @= @= @= @= @= @= @= @= @= @= @= @= @= @= @= @= @= @= @= @= @= @= @= @= @= @= @= @= @= @= @= @= @= @= @= @= @= @= @= @= @= @= @= @= @= @= @= @= @= @= @= @= @= @= @= @= @= @= @= @= @= @= @= @= @= @= @= @= @= @= @= @= @= @= @= @= @= @= @= @= @= @= @= @= @= @= @= @= @= @= @= @= @= @= @= @= @= @= @= @= @= @= @= @= @= @= @= @= @= @= @= @= @= @= @= @= @= @= @= @= @= @= @= @= @= @= @= @= @= @= @= @= @= @= @= @= @= @= @= @=                   A> A> A> A> A> A> A> A> A> A> A> A> A> A> A> A> A> A> A> A> A> A> A> A> A> A> A> A> A> A> A> A> A> A> A> A> A> A> A> A> A> A> A> A> A> A> A> A> A> A> A> A> A> A> A> A> A> A> A> A> A> A> A> A> A> A> A> A> A> A> A> A> A> A> A> A> A> A> A> A> A> A> A> A> A> A> A> A> A> A> A> A> A> A> A> A> A> A> A> A> A> A> A> A> A> A> A> A> A> A> A> A> A> A> A> A> A> A> A> A> A> A> A> A> A> A> A> A> A> A> A> A> A> A> A> A> A> A> A> A> A> A> A> A> A> A> A> A> A> A> A> A> A> A> A> A> A> A> A> A> A> A> A> A> A> A> A> A>     E5 E5 E5 E5 E5 E5 E5 E5 E5 E5 E5 E5 E5 E5 E5 E5 E5 E5 E5 E5 E5 E5 E5 E5 E5 E5 E5 E5 E5 E5 E5 E5 E5 E5 E5 E5 E5 E5 E5 E5 E5 E5 E5 E5 E5 E5 E5 E5 E5 E5 E5 E5 E5 E5 E5 E5 E5 E5 E5 E5 E5 E5 E5 E5 E5 E5 E5 E5 E5 E5 E5 E5 E5 E5 E5 E5 E5 E5 E5 E5 E5 E5 E5 E5 E5 E5 E5 E5 E5 E5 E5 E5 E5 E5 E5 E5 E5 E5 E5 E5 E5 E5 E5 E5 E5 E5 E5 E5 E5 E5 E5 E5 E5 E5 E5 E5 E5 E5 E5 E5 E5 E5 E5 E5 E5 E5 E5 E5 E5 E5 E5 E5 E5 E5 E5 E5 E5 E5 E5 E5 E5 E5 E5 E5 E5 E5 E5 E5 E5 E5 E5 E5 E5 E5 E5 E5 E5 E5 E5 E5           J7 J7 J7 J7 J7 J7 J7 J7 J7 J7 J7 J7 J7 J7 J7 J7 J7 J7 J7 J7 J7 J7 J7 J7 J7 J7 J7 J7 J7 J7 J7 J7 J7 J7 J7 J7 J7 J7 J7 J7 J7 J7 J7 J7 J7 J7 J7 J7 J7 J7 J7 J7 J7 J7 J7 J7 J7 J7 J7 J7 J7 J7 J7 J7 J7 J7 J7 J7 J7 J7 J7 J7 J7 J7 J7 J7 J7 J7 J7 J7 J7 J7 J7 J7 J7 J7 J7 J7 J7 J7 J7 J7 J7 J7 J7 J7 J7 J7 J7 J7 J7 J7 J7 J7 J7 J7 J7 J7 J7 J7 J7 J7 J7 J7 J7 J7 J7 J7 J7 J7 J7 J7 J7 J7 J7 J7 J7 J7 J7 J7 J7 J7 J7 J7 J7 J7 J7 J7 J7 J7 J7 J7 J7 J7 J7 J7 J7 J7 J7 J7 J7 J7 J7                    @9 @9 @9 @9 @9 @9 @9 @9 @9 @9 @9 @9 @9 @9 @9 @9 @9 @9 @9 @9 @9 @9 @9 @9 @9 @9 @9 @9 @9 @9 @9 @9 @9 @9 @9 @9 @9 @9 @9 @9 @9 @9 @9 @9 @9 @9 @9 @9 @9 @9 @9 @9 @9 @9 @9 @9 @9 @9 @9 @9 @9 @9 @9 @9 @9 @9 @9 @9 @9 @9 @9 @9 @9 @9 @9 @9 @9 @9 @9 @9 @9 @9 @9 @9 @9 @9 @9 @9 @9 @9 @9 @9 @9 @9 @9 @9 @9 @9 @9 @9 @9 @9 @9 @9 @9 @9 @9 @9 @9 @9 @9 @9 @9 @9 @9 @9 @9 @9 @9 @9 @9 @9 @9 @9 @9 @9 @9 @9 @9 @9 @9 @9 @9 @9 @9 @9 @9 @9 @9 @9 @9 @9 @9 @9 @9 @9 @9 @9 @9 @9 @9 @9 @9 @9 @9 @9 @9 @9 @9 @9 @9 @9 @9 @9 @9 @9 @9 @9     J7 J7 J7 J7 J7 J7 J7 J7 J7 J7 J7 J7 J7 J7 J7 J7 J7 J7 J7 J7 J7 J7 J7 J7 J7 J7 J7 J7 J7 J7 J7 J7 J7 J7 J7 J7 J7 J7 J7 J7 J7 J7 J7 J7 J7 J7 J7 J7 J7 J7 J7 J7 J7 J7 J7 J7 J7 J7 J7 J7 J7 J7 J7 J7 J7 J7 J7 J7 J7 J7 J7 J7 J7 J7 J7 J7 J7 J7 J7 J7 J7 J7 J7 J7 J7 J7 J7 J7 J7 J7 J7 J7 J7 J7 J7 J7 J7 J7 J7 J7 J7 J7 J7 J7 J7 J7 J7 J7 J7 J7 J7 J7 J7 J7 J7 J7 J7 J7 J7 J7 J7 J7 J7 J7 J7 J7 J7 J7 J7 J7 J7 J7 J7 J7 J7 J7 J7 J7 J7 J7 J7 J7 J7 J7 J7 J7 J7 J7 J7 J7 J7 J7 J7 J7 J7 J7 J7 J7 J7 J7           I9 I9 I9 I9 I9 I9 I9 I9 I9 I9 I9 I9 I9 I9 I9 I9 I9 I9 I9 I9 I9 I9 I9 I9 I9 I9 I9 I9 I9 I9 I9 I9 I9 I9 I9 I9 I9 I9 I9 I9 I9 I9 I9 I9 I9 I9 I9 I9 I9 I9 I9 I9 I9 I9 I9 I9 I9 I9 I9 I9 I9 I9 I9 I9 I9 I9 I9 I9 I9 I9 I9 I9 I9 I9 I9 I9 I9 I9 I9 I9 I9 I9 I9 I9 I9 I9 I9 I9 I9 I9 I9 I9 I9 I9 I9 I9 I9 I9 I9 I9 I9 I9 I9 I9 I9 I9 I9 I9 I9 I9 I9 I9 I9 I9 I9 I9 I9 I9 I9 I9 I9 I9 I9 I9 I9 I9 I9 I9 I9 I9 I9 I9 I9 I9 I9 I9 I9 I9 I9 I9 I9 I9 I9 I9 I9 I9 I9 I9 I9 I9 I9 I9 I9                    J2 J2 J2 J2 J2 J2 J2 J2 J2 J2 J2 J2 J2 J2 J2 J2 J2 J2 J2 J2 J2 J2 J2 J2 J2 J2 J2 J2 J2 J2 J2 J2 J2 J2 J2 J2 J2 J2 J2 J2 J2 J2 J2 J2 J2 J2 J2 J2 J2 J2 J2 J2 J2 J2 J2 J2 J2 J2 J2 J2 J2 J2 J2 J2 J2 J2 J2 J2 J2 J2 J2 J2 J2 J2 J2 J2 J2 J2 J2 J2 J2 J2 J2 J2 J2 J2 J2 J2 J2 J2 J2 J2 J2 J2 J2 J2 J2 J2 J2 J2 J2 J2 J2 J2 J2 J2 J2 J2 J2 J2 J2 J2 J2 J2 J2 J2 J2 J2 J2 J2 J2 J2 J2 J2 J2 J2 J2 J2 J2 J2 J2 J2 J2 J2 J2 J2 J2 J2 J2 J2 J2 J2 J2 J2 J2 J2 J2 J2 J2 J2 J2 J2 J2 J2 J2 J2 J2 J2 J2 J2 J2 J2 J2 J2 J2 J2 J2 J2    E6 E6 E6 E6 E6 E6 E6 E6 E6 E6 E6 E6 E6 E6 E6 E6 E6 E6 E6 E6 E6 E6 E6 E6 E6 E6 E6 E6 E6 E6 E6 E6 E6 E6 E6 E6 E6 E6 E6 E6 E6 E6 E6 E6 E6 E6 E6 E6 E6 E6 E6 E6 E6 E6 E6 E6 E6 E6 E6 E6 E6 E6 E6 E6 E6 E6 E6 E6 E6 E6 E6 E6 E6 E6 E6 E6 E6 E6 E6 E6 E6 E6 E6 E6 E6 E6 E6 E6 E6 E6 E6 E6 E6 E6 E6 E6 E6 E6 E6 E6 E6 E6 E6 E6 E6 E6 E6 E6 E6 E6 E6 E6 E6 E6 E6 E6 E6 E6 E6 E6 E6 E6 E6 E6 E6 E6 E6 E6 E6 E6 E6 E6 E6 E6 E6 E6 E6 E6 E6 E6 E6 E6 E6 E6 E6 E6 E6 E6 E6 E6 E6 E6 E6 E6 E6 E6 E6 E6 E6 E6           B9 B9 B9 B9 B9 B9 B9 B9 B9 B9 B9 B9 B9 B9 B9 B9 B9 B9 B9 B9 B9 B9 B9 B9 B9 B9 B9 B9 B9 B9 B9 B9 B9 B9 B9 B9 B9 B9 B9 B9 B9 B9 B9 B9 B9 B9 B9 B9 B9 B9 B9 B9 B9 B9 B9 B9 B9 B9 B9 B9 B9 B9 B9 B9 B9 B9 B9 B9 B9 B9 B9 B9 B9 B9 B9 B9 B9 B9 B9 B9 B9 B9 B9 B9 B9 B9 B9 B9 B9 B9 B9 B9 B9 B9 B9 B9 B9 B9 B9 B9 B9 B9 B9 B9 B9 B9 B9 B9 B9 B9 B9 B9 B9 B9 B9 B9 B9 B9 B9 B9 B9 B9 B9 B9 B9 B9 B9 B9 B9 B9 B9 B9 B9 B9 B9 B9 B9 B9 B9 B9 B9 B9 B9 B9 B9 B9 B9 B9 B9 B9 B9 B9 B9                    > > > > > > > > > > > > > > > > > > > > > > > > > > > > > > > > > > > > > > > > > > > > > > > > > > > > > > > > > > > > > > > > > > > > > > > > > > > > > > > > > > > > > > > > > > > > > > > > > > > > > > > > > > > > > > > > > > > > > > > > > > > > > > > > > > > > > > > > > > > > > > > > > > > > > > > > > > > > > > > > > > > > > > > > > > > > > > > > > > > > > > > > > > > > > > > > > > > > > > > > > > > > > > > > > > > > > > > > > > > > > > > > > > > > > > > > > > > > > > > > > > > > > > > > > > > > > > > > > > > > > > > > > > > > > > > > > > > > > > > > > > > > > > > > > > > > > > > > > > > > > > > > > > > > > > > > > > > > > > > > > > > > > > > > > > > > > > > > > >     9 9 9 9 9 9 9 9 9 9 9 9 9 9 9 9 9 9 9 9 9 9 9 9 9 9 9 9 9 9 9 9 9 9 9 9 9 9 9 9 9 9 9 9 9 9 9 9 9 9 9 9 9 9 9 9 9 9 9 9 9 9 9 9 9 9 9 9 9 9 9 9 9 9 9 9 9 9 9 9 9 9 9 9 9 9 9 9 9 9 9 9 9 9 9 9 9 9 9 9 9 9 9 9 9 9 9 9 9 9 9 9 9 9 9 9 9 9 9 9 9 9 9 9 9 9 9 9 9 9 9 9 9 9 9 9 9 9 9 9 9 9 9 9 9 9 9 9 9 9 9 9 9                    6 6 6 6 6 6 6 6 6 6 6 6 6 6 6 6 6 6 6 6 6 6 6 6 6 6 6 6 6 6 6 6 6 6 6 6 6 6 6 6 6 6 6 6 6 6 6 6 6 6 6 6 6 6 6 6 6 6 6 6 6 6 6 6 6 6 6 6 6 6 6 6 6 6 6 6 6 6 6 6 6 6 6 6 6 6 6 6 6 6 6 6 6 6 6 6 6 6 6 6 6 6 6 6 6 6 6 6 6 6 6 6 6 6 6 6 6 6 6 6 6 6 6 6 6 6 6 6 6 6 6 6 6 6 6 6 6 6 6 6 6 6 6 6 6 6 6 6 6 6 6 6 6 6 6 6 6 6 6 6 6 6 6 6 6 6 6 6    7 7 7 7 7 7 7 7 7 7 7 7 7 7 7 7 7 7 7 7 7 7 7 7 7 7 7 7 7 7 7 7 7 7 7 7 7 7 7 7 7 7 7 7 7 7 7 7 7 7 7 7 7 7 7 7 7 7 7 7 7 7 7 7 7 7 7 7 7 7 7 7 7 7 7 7 7 7 7 7 7 7 7 7 7 7 7 7 7 7 7 7 7 7 7 7 7 7 7 7 7 7 7 7 7 7 7 7 7 7 7 7 7 7 7 7 7 7 7 7 7 7 7 7 7 7 7 7 7 7 7 7 7 7 7 7 7 7 7 7 7 7 7 7 7 7 7 7 7 7 7 7 7 7 7 7 7 7 7 7           9 9 9 9 9 9 9 9 9 9 9 9 9 9 9 9 9 9 9 9 9 9 9 9 9 9 9 9 9 9 9 9 9 9 9 9 9 9 9 9 9 9 9 9 9 9 9 9 9 9 9 9 9 9 9 9 9 9 9 9 9 9 9 9 9 9 9 9 9 9 9 9 9 9 9 9 9 9 9 9 9 9 9 9 9 9 9 9 9 9 9 9 9 9 9 9 9 9 9 9 9 9 9 9 9 9 9 9 9 9 9 9 9 9 9 9 9 9 9 9 9 9 9 9 9 9 9 9 9 9 9 9 9 9 9 9 9 9 9 9 9 9 9 9 9 9 9 9 9 9 9 9 9                    : : : : : : : : : : : : : : : : : : : : : : : : : : : : : : : : : : : : : : : : : : : : : : : : : : : : : : : : : : : : : : : : : : : : : : : : : : : : : : : : : : : : : : : : : : : : : : : : : : : : : : : : : : : : : : : : : : : : : : : : : : : : : : : : : : : : : : : : : : : : : : : : : : : : : : : : : : : : : : : : : : : : : : : :     < < < < < < < < < < < < < < < < < < < < < < < < < < < < < < < < < < < < < < < < < < < < < < < < < < < < < < < < < < < < < < < < < < < < < < < < < < < < < < < < < < < < < < < < < < < < < < < < < < < < < < < < < < < < < < < < < < < < < < < < < < < < < < < < < < < < < < < < < < < < < < < < < < < < < < < < < < < < < < < <           > > > > > > > > > > > > > > > > > > > > > > > > > > > > > > > > > > > > > > > > > > > > > > > > > > > > > > > > > > > > > > > > > > > > > > > > > > > > > > > > > > > > > > > > > > > > > > > > > > > > > > > > > > > > > > > > > > > > > > > > > > > > > > > > > > > > > > > > > > > > > > > > > > > > > > > > >                    ? ? ? ? ? ? ? ? ? ? ? ? ? ? ? ? ? ? ? ? ? ? ? ? ? ? ? ? ? ? ? ? ? ? ? ? ? ? ? ? ? ? ? ? ? ? ? ? ? ? ? ? ? ? ? ? ? ? ? ? ? ? ? ? ? ? ? ? ? ? ? ? ? ? ? ? ? ? ? ? ? ? ? ? ? ? ? ? ? ? ? ? ? ? ? ? ? ? ? ? ? ? ? ? ? ? ? ? ? ? ? ? ? ? ? ? ? ? ? ? ? ? ? ? ? ? ? ? ? ? ? ? ? ? ? ? ? ? ? ? ? ? ? ? ? ? ? ? ? ? ? ? ? ? ? ? ? ? ? ? ? ? ? ? ? ? ? ?    < < < < < < < < < < < < < < < < < < < < < < < < < < < < < < < < < < < < < < < < < < < < < < < < < < < < < < < < < < < < < < < < < < < < < < < < < < < < < < < < < < < < < < < < < < < < < < < < < < < < < < < < < < < < < < < < < < < < < < < < < < < < < < < < < < < < < < < < < < < < < < < < < < < < < < < < < < < < < < < <            C C C C C C C C C C C C C C C C C C C C C C C C C C C C C C C C C C C C C C C C C C C C C C C C C C C C C C C C C C C C C C C C C C C C C C C C C C C C C C C C C C C C C C C C C C C C C C C C C C C C C C C C C C C C C C C C C C C C C C C C C C C C C C C C C C C C C C C C C C C C C C C C C C C C C C C C C                   E E E E E E E E E E E E E E E E E E E E E E E E E E E E E E E E E E E E E E E E E E E E E E E E E E E E E E E E E E E E E E E E E E E E E E E E E E E E E E E E E E E E E E E E E E E E E E E E E E E E E E E E E E E E E E E E E E E E E E E E E E E E E E E E E E E E E E E E E E E E E E E E E E E E E E E E E E E E E E E E E E E E E E E E     F F F F F F F F F F F F F F F F F F F F F F F F F F F F F F F F F F F F F F F F F F F F F F F F F F F F F F F F F F F F F F F F F F F F F F F F F F F F F F F F F F F F F F F F F F F F F F F F F F F F F F F F F F F F F F F F F F F F F F F F F F F F F F F F F F F F F F F F F F F F F F F F F F F F F F F F F F F F F F F F           H H H H H H H H H H H H H H H H H H H H H H H H H H H H H H H H H H H H H H H H H H H H H H H H H H H H H H H H H H H H H H H H H H H H H H H H H H H H H H H H H H H H H H H H H H H H H H H H H H H H H H H H H H H H H H H H H H H H H H H H H H H H H H H H H H H H H H H H H H H H H H H H H H H H H H H H H                    F F F F F F F F F F F F F F F F F F F F F F F F F F F F F F F F F F F F F F F F F F F F F F F F F F F F F F F F F F F F F F F F F F F F F F F F F F F F F F F F F F F F F F F F F F F F F F F F F F F F F F F F F F F F F F F F F F F F F F F F F F F F F F F F F F F F F F F F F F F F F F F F F F F F F F F F F F F F F F F F F F F F F F F F     C C C C C C C C C C C C C C C C C C C C C C C C C C C C C C C C C C C C C C C C C C C C C C C C C C C C C C C C C C C C C C C C C C C C C C C C C C C C C C C C C C C C C C C C C C C C C C C C C C C C C C C C C C C C C C C C C C C C C C C C C C C C C C C C C C C C C C C C C C C C C C C C C C C C C C C C C C C C C C C C           > > > > > > > > > > > > > > > > > > > > > > > > > > > > > > > > > > > > > > > > > > > > > > > > > > > > > > > > > > > > > > > > > > > > > > > > > > > > > > > > > > > > > > > > > > > > > > > > > > > > > > > > > > > > > > > > > > > > > > > > > > > > > > > > > > > > > > > > > > > > > > > > > > > > > > > > >                   H H H H H H H H H H H H H H H H H H H H H H H H H H H H H H H H H H H H H H H H H H H H H H H H H H H H H H H H H H H H H H H H H H H H H H H H H H H H H H H H H H H H H H H H H H H H H H H H H H H H H H H H H H H H H H H H H H H H H H H H H H H H H H H H H H H H H H H H H H H H H H H H H H H H H H H H H H H H H H H H H H H H H H H H     @ @ @ @ @ @ @ @ @ @ @ @ @ @ @ @ @ @ @ @ @ @ @ @ @ @ @ @ @ @ @ @ @ @ @ @ @ @ @ @ @ @ @ @ @ @ @ @ @ @ @ @ @ @ @ @ @ @ @ @ @ @ @ @ @ @ @ @ @ @ @ @ @ @ @ @ @ @ @ @ @ @ @ @ @ @ @ @ @ @ @ @ @ @ @ @ @ @ @ @ @ @ @ @ @ @ @ @ @ @ @ @ @ @ @ @ @ @ @ @ @ @ @ @ @ @ @ @ @ @ @ @ @ @ @ @ @ @ @ @ @ @ @ @ @ @ @ @ @ @ @ @ @ @ @ @ @ @ @ @           B B B B B B B B B B B B B B B B B B B B B B B B B B B B B B B B B B B B B B B B B B B B B B B B B B B B B B B B B B B B B B B B B B B B B B B B B B B B B B B B B B B B B B B B B B B B B B B B B B B B B B B B B B B B B B B B B B B B B B B B B B B B B B B B B B B B B B B B B B B B B B B B B B B B B B B B B                    C C C C C C C C C C C C C C C C C C C C C C C C C C C C C C C C C C C C C C C C C C C C C C C C C C C C C C C C C C C C C C C C C C C C C C C C C C C C C C C C C C C C C C C C C C C C C C C C C C C C C C C C C C C C C C C C C C C C C C C C C C C C C C C C C C C C C C C C C C C C C C C C C C C C C C C C C C C C C C C C C C C C C C C C     @ @ @ @ @ @ @ @ @ @ @ @ @ @ @ @ @ @ @ @ @ @ @ @ @ @ @ @ @ @ @ @ @ @ @ @ @ @ @ @ @ @ @ @ @ @ @ @ @ @ @ @ @ @ @ @ @ @ @ @ @ @ @ @ @ @ @ @ @ @ @ @ @ @ @ @ @ @ @ @ @ @ @ @ @ @ @ @ @ @ @ @ @ @ @ @ @ @ @ @ @ @ @ @ @ @ @ @ @ @ @ @ @ @ @ @ @ @ @ @ @ @ @ @ @ @ @ @ @ @ @ @ @ @ @ @ @ @ @ @ @ @ @ @ @ @ @ @ @ @ @ @ @ @ @ @ @ @ @ @           A A A A A A A A A A A A A A A A A A A A A A A A A A A A A A A A A A A A A A A A A A A A A A A A A A A A A A A A A A A A A A A A A A A A A A A A A A A A A A A A A A A A A A A A A A A A A A A A A A A A A A A A A A A A A A A A A A A A A A A A A A A A A A A A A A A A A A A A A A A A A A A A A A A A A A A A A                   @ @ @ @ @ @ @ @ @ @ @ @ @ @ @ @ @ @ @ @ @ @ @ @ @ @ @ @ @ @ @ @ @ @ @ @ @ @ @ @ @ @ @ @ @ @ @ @ @ @ @ @ @ @ @ @ @ @ @ @ @ @ @ @ @ @ @ @ @ @ @ @ @ @ @ @ @ @ @ @ @ @ @ @ @ @ @ @ @ @ @ @ @ @ @ @ @ @ @ @ @ @ @ @ @ @ @ @ @ @ @ @ @ @ @ @ @ @ @ @ @ @ @ @ @ @ @ @ @ @ @ @ @ @ @ @ @ @ @ @ @ @ @ @ @ @ @ @ @ @ @ @ @ @ @ @ @ @ @ @ @ @ @ @ @ @ @ @     = = = = = = = = = = = = = = = = = = = = = = = = = = = = = = = = = = = = = = = = = = = = = = = = = = = = = = = = = = = = = = = = = = = = = = = = = = = = = = = = = = = = = = = = = = = = = = = = = = = = = = = = = = = = = = = = = = = = = = = = = = = = = = = = = = = = = = = = = = = = = = = = = = = = = = = = = = = = = = = =           >& >& >& >& >& >& >& >& >& >& >& >& >& >& >& >& >& >& >& >& >& >& >& >& >& >& >& >& >& >& >& >& >& >& >& >& >& >& >& >& >& >& >& >& >& >& >& >& >& >& >& >& >& >& >& >& >& >& >& >& >& >& >& >& >& >& >& >& >& >& >& >& >& >& >& >& >& >& >& >& >& >& >& >& >& >& >& >& >& >& >& >& >& >& >& >& >& >& >& >& >& >& >& >& >& >& >& >& >& >& >& >& >& >& >& >& >& >& >& >& >& >& >& >& >& >& >& >& >& >& >& >& >& >& >& >& >& >& >& >& >& >& >& >& >& >& >& >& >& >& >& >& >&                    %E %E %E %E %E %E %E %E %E %E %E %E %E %E %E %E %E %E %E %E %E %E %E %E %E %E %E %E %E %E %E %E %E %E %E %E %E %E %E %E %E %E %E %E %E %E %E %E %E %E %E %E %E %E %E %E %E %E %E %E %E %E %E %E %E %E %E %E %E %E %E %E %E %E %E %E %E %E %E %E %E %E %E %E %E %E %E %E %E %E %E %E %E %E %E %E %E %E %E %E %E %E %E %E %E %E %E %E %E %E %E %E %E %E %E %E %E %E %E %E %E %E %E %E %E %E %E %E %E %E %E %E %E %E %E %E %E %E %E %E %E %E %E %E %E %E %E %E %E %E %E %E %E %E %E %E %E %E %E %E %E %E %E %E %E %E %E %E E E E E &E &E &E &E &E &E &E &E &E &E &E &E &E &E &E &E &E &E &E &E &E &E &E &E &E &E &E &E &E &E &E &E &E &E &E &E &E &E &E &E &E &E &E &E &E &E &E &E &E &E &E &E &E &E &E &E &E &E &E &E &E &E &E &E &E &E &E &E &E &E &E &E &E &E &E &E &E &E &E &E &E &E &E &E &E &E &E &E &E &E &E &E &E &E &E &E &E &E &E &E &E &E &E &E &E &E &E &E &E &E &E &E &E &E &E &E &E &E &E &E &E &E &E &E &E &E &E &E &E &E &E &E &E &E &E &E &E &E &E &E &E &E &E &E &E &E &E &E &E &E &E &E &E &E &E &E &E &E &E &E E E E E E E E E E E (E (E (E (E (E (E (E (E (E (E (E (E (E (E (E (E (E (E (E (E (E (E (E (E (E (E (E (E (E (E (E (E (E (E (E (E (E (E (E (E (E (E (E (E (E (E (E (E (E (E (E (E (E (E (E (E (E (E (E (E (E (E (E (E (E (E (E (E (E (E (E (E (E (E (E (E (E (E (E (E (E (E (E (E (E (E (E (E (E (E (E (E (E (E (E (E (E (E (E (E (E (E (E (E (E (E (E (E (E (E (E (E (E (E (E (E (E (E (E (E (E (E (E (E (E (E (E (E (E (E (E (E (E (E (E (E (E (E (E (E (E (E (E (E (E (E (E (E (E (E (E (E (E E E E E E E E E E E E E E E E E E E )E )E )E )E )E )E )E )E )E )E )E )E )E )E )E )E )E )E )E )E )E )E )E )E )E )E )E )E )E )E )E )E )E )E )E )E )E )E )E )E )E )E )E )E )E )E )E )E )E )E )E )E )E )E )E )E )E )E )E )E )E )E )E )E )E )E )E )E )E )E )E )E )E )E )E )E )E )E )E )E )E )E )E )E )E )E )E )E )E )E )E )E )E )E )E )E )E )E )E )E )E )E )E )E )E )E )E )E )E )E )E )E )E )E )E )E )E )E )E )E )E )E )E )E )E )E )E )E )E )E )E )E )E )E )E )E )E )E )E )E )E )E )E )E )E )E )E )E )E )E )E )E )E )E )E )E )E )E )E )E )E )E )E )E )E )E )E )E E    C+ C+ C+ C+ C+ C+ C+ C+ C+ C+ C+ C+ C+ C+ C+ C+ C+ C+ C+ C+ C+ C+ C+ C+ C+ C+ C+ C+ C+ C+ C+ C+ C+ C+ C+ C+ C+ C+ C+ C+ C+ C+ C+ C+ C+ C+ C+ C+ C+ C+ C+ C+ C+ C+ C+ C+ C+ C+ C+ C+ C+ C+ C+ C+ C+ C+ C+ C+ C+ C+ C+ C+ C+ C+ C+ C+ C+ C+ C+ C+ C+ C+ C+ C+ C+ C+ C+ C+ C+ C+ C+ C+ C+ C+ C+ C+ C+ C+ C+ C+ C+ C+ C+ C+ C+ C+ C+ C+ C+ C+ C+ C+ C+ C+ C+ C+ C+ C+ C+ C+ C+ C+ C+ C+ C+ C+ C+ C+ C+ C+ C+ C+ C+ C+ C+ C+ C+ C+ C+ C+ C+ C+ C+ C+ C+ C+ C+ C+ C+ C+ C+ C+ C+ C+ C+ C+ C+ C+ C+ C+           A- A- A- A- A- A- A- A- A- A- A- A- A- A- A- A- A- A- A- A- A- A- A- A- A- A- A- A- A- A- A- A- A- A- A- A- A- A- A- A- A- A- A- A- A- A- A- A- A- A- A- A- A- A- A- A- A- A- A- A- A- A- A- A- A- A- A- A- A- A- A- A- A- A- A- A- A- A- A- A- A- A- A- A- A- A- A- A- A- A- A- A- A- A- A- A- A- A- A- A- A- A- A- A- A- A- A- A- A- A- A- A- A- A- A- A- A- A- A- A- A- A- A- A- A- A- A- A- A- A- A- A- A- A- A- A- A- A- A- A- A- A- A- A- A- A- A- A- A- A- A- A- A-                    .C .C .C .C .C .C .C .C .C .C .C .C .C .C .C .C .C .C .C .C .C .C .C .C .C .C .C .C .C .C .C .C .C .C .C .C .C .C .C .C .C .C .C .C .C .C .C .C .C .C .C .C .C .C .C .C .C .C .C .C .C .C .C .C .C .C .C .C .C .C .C .C .C .C .C .C .C .C .C .C .C .C .C .C .C .C .C .C .C .C .C .C .C .C .C .C .C .C .C .C .C .C .C .C .C .C .C .C .C .C .C .C .C .C .C .C .C .C .C .C .C .C .C .C .C .C .C .C .C .C .C .C .C .C .C .C .C .C .C .C .C .C .C .C .C .C .C .C .C .C .C .C .C .C .C .C .C .C .C .C .C .C .C .C .C .C .C .C C C C C +C +C +C +C +C +C +C +C +C +C +C +C +C +C +C +C +C +C +C +C +C +C +C +C +C +C +C +C +C +C +C +C +C +C +C +C +C +C +C +C +C +C +C +C +C +C +C +C +C +C +C +C +C +C +C +C +C +C +C +C +C +C +C +C +C +C +C +C +C +C +C +C +C +C +C +C +C +C +C +C +C +C +C +C +C +C +C +C +C +C +C +C +C +C +C +C +C +C +C +C +C +C +C +C +C +C +C +C +C +C +C +C +C +C +C +C +C +C +C +C +C +C +C +C +C +C +C +C +C +C +C +C +C +C +C +C +C +C +C +C +C +C +C +C +C +C +C +C +C +C +C +C +C +C +C +C +C +C +C +C C C C C C C C C C C 2C 2C 2C 2C 2C 2C 2C 2C 2C 2C 2C 2C 2C 2C 2C 2C 2C 2C 2C 2C 2C 2C 2C 2C 2C 2C 2C 2C 2C 2C 2C 2C 2C 2C 2C 2C 2C 2C 2C 2C 2C 2C 2C 2C 2C 2C 2C 2C 2C 2C 2C 2C 2C 2C 2C 2C 2C 2C 2C 2C 2C 2C 2C 2C 2C 2C 2C 2C 2C 2C 2C 2C 2C 2C 2C 2C 2C 2C 2C 2C 2C 2C 2C 2C 2C 2C 2C 2C 2C 2C 2C 2C 2C 2C 2C 2C 2C 2C 2C 2C 2C 2C 2C 2C 2C 2C 2C 2C 2C 2C 2C 2C 2C 2C 2C 2C 2C 2C 2C 2C 2C 2C 2C 2C 2C 2C 2C 2C 2C 2C 2C 2C 2C 2C 2C 2C 2C 2C 2C 2C 2C 2C 2C 2C 2C 2C 2C 2C 2C 2C 2C 2C 2C C C C C C C C C C C C C C C C C C C C 4C 4C 4C 4C 4C 4C 4C 4C 4C 4C 4C 4C 4C 4C 4C 4C 4C 4C 4C 4C 4C 4C 4C 4C 4C 4C 4C 4C 4C 4C 4C 4C 4C 4C 4C 4C 4C 4C 4C 4C 4C 4C 4C 4C 4C 4C 4C 4C 4C 4C 4C 4C 4C 4C 4C 4C 4C 4C 4C 4C 4C 4C 4C 4C 4C 4C 4C 4C 4C 4C 4C 4C 4C 4C 4C 4C 4C 4C 4C 4C 4C 4C 4C 4C 4C 4C 4C 4C 4C 4C 4C 4C 4C 4C 4C 4C 4C 4C 4C 4C 4C 4C 4C 4C 4C 4C 4C 4C 4C 4C 4C 4C 4C 4C 4C 4C 4C 4C 4C 4C 4C 4C 4C 4C 4C 4C 4C 4C 4C 4C 4C 4C 4C 4C 4C 4C 4C 4C 4C 4C 4C 4C 4C 4C 4C 4C 4C 4C 4C 4C 4C 4C 4C 4C 4C 4C 4C 4C 4C 4C 4C 4C 4C 4C 4C 4C 4C 4C    A5 A5 A5 A5 A5 A5 A5 A5 A5 A5 A5 A5 A5 A5 A5 A5 A5 A5 A5 A5 A5 A5 A5 A5 A5 A5 A5 A5 A5 A5 A5 A5 A5 A5 A5 A5 A5 A5 A5 A5 A5 A5 A5 A5 A5 A5 A5 A5 A5 A5 A5 A5 A5 A5 A5 A5 A5 A5 A5 A5 A5 A5 A5 A5 A5 A5 A5 A5 A5 A5 A5 A5 A5 A5 A5 A5 A5 A5 A5 A5 A5 A5 A5 A5 A5 A5 A5 A5 A5 A5 A5 A5 A5 A5 A5 A5 A5 A5 A5 A5 A5 A5 A5 A5 A5 A5 A5 A5 A5 A5 A5 A5 A5 A5 A5 A5 A5 A5 A5 A5 A5 A5 A5 A5 A5 A5 A5 A5 A5 A5 A5 A5 A5 A5 A5 A5 A5 A5 A5 A5 A5 A5 A5 A5 A5 A5 A5 A5 A5 A5 A5 A5 A5 A5 A5 A5 A5 A5 A5 A5           @7 @7 @7 @7 @7 @7 @7 @7 @7 @7 @7 @7 @7 @7 @7 @7 @7 @7 @7 @7 @7 @7 @7 @7 @7 @7 @7 @7 @7 @7 @7 @7 @7 @7 @7 @7 @7 @7 @7 @7 @7 @7 @7 @7 @7 @7 @7 @7 @7 @7 @7 @7 @7 @7 @7 @7 @7 @7 @7 @7 @7 @7 @7 @7 @7 @7 @7 @7 @7 @7 @7 @7 @7 @7 @7 @7 @7 @7 @7 @7 @7 @7 @7 @7 @7 @7 @7 @7 @7 @7 @7 @7 @7 @7 @7 @7 @7 @7 @7 @7 @7 @7 @7 @7 @7 @7 @7 @7 @7 @7 @7 @7 @7 @7 @7 @7 @7 @7 @7 @7 @7 @7 @7 @7 @7 @7 @7 @7 @7 @7 @7 @7 @7 @7 @7 @7 @7 @7 @7 @7 @7 @7 @7 @7 @7 @7 @7 @7 @7 @7 @7 @7 @7                    >5 >5 >5 >5 >5 >5 >5 >5 >5 >5 >5 >5 >5 >5 >5 >5 >5 >5 >5 >5 >5 >5 >5 >5 >5 >5 >5 >5 >5 >5 >5 >5 >5 >5 >5 >5 >5 >5 >5 >5 >5 >5 >5 >5 >5 >5 >5 >5 >5 >5 >5 >5 >5 >5 >5 >5 >5 >5 >5 >5 >5 >5 >5 >5 >5 >5 >5 >5 >5 >5 >5 >5 >5 >5 >5 >5 >5 >5 >5 >5 >5 >5 >5 >5 >5 >5 >5 >5 >5 >5 >5 >5 >5 >5 >5 >5 >5 >5 >5 >5 >5 >5 >5 >5 >5 >5 >5 >5 >5 >5 >5 >5 >5 >5 >5 >5 >5 >5 >5 >5 >5 >5 >5 >5 >5 >5 >5 >5 >5 >5 >5 >5 >5 >5 >5 >5 >5 >5 >5 >5 >5 >5 >5 >5 >5 >5 >5 >5 >5 >5 >5 >5 >5 >5 >5 >5 >5 >5 >5 >5 >5 >5 >5 >5 >5 >5 >5 >5     @2 @2 @2 @2 @2 @2 @2 @2 @2 @2 @2 @2 @2 @2 @2 @2 @2 @2 @2 @2 @2 @2 @2 @2 @2 @2 @2 @2 @2 @2 @2 @2 @2 @2 @2 @2 @2 @2 @2 @2 @2 @2 @2 @2 @2 @2 @2 @2 @2 @2 @2 @2 @2 @2 @2 @2 @2 @2 @2 @2 @2 @2 @2 @2 @2 @2 @2 @2 @2 @2 @2 @2 @2 @2 @2 @2 @2 @2 @2 @2 @2 @2 @2 @2 @2 @2 @2 @2 @2 @2 @2 @2 @2 @2 @2 @2 @2 @2 @2 @2 @2 @2 @2 @2 @2 @2 @2 @2 @2 @2 @2 @2 @2 @2 @2 @2 @2 @2 @2 @2 @2 @2 @2 @2 @2 @2 @2 @2 @2 @2 @2 @2 @2 @2 @2 @2 @2 @2 @2 @2 @2 @2 @2 @2 @2 @2 @2 @2 @2 @2 @2 @2 @2 @2 @2 @2 @2 @2 @2 @2           A- A- A- A- A- A- A- A- A- A- A- A- A- A- A- A- A- A- A- A- A- A- A- A- A- A- A- A- A- A- A- A- A- A- A- A- A- A- A- A- A- A- A- A- A- A- A- A- A- A- A- A- A- A- A- A- A- A- A- A- A- A- A- A- A- A- A- A- A- A- A- A- A- A- A- A- A- A- A- A- A- A- A- A- A- A- A- A- A- A- A- A- A- A- A- A- A- A- A- A- A- A- A- A- A- A- A- A- A- A- A- A- A- A- A- A- A- A- A- A- A- A- A- A- A- A- A- A- A- A- A- A- A- A- A- A- A- A- A- A- A- A- A- A- A- A- A- A- A- A- A- A- A-                    @7 @7 @7 @7 @7 @7 @7 @7 @7 @7 @7 @7 @7 @7 @7 @7 @7 @7 @7 @7 @7 @7 @7 @7 @7 @7 @7 @7 @7 @7 @7 @7 @7 @7 @7 @7 @7 @7 @7 @7 @7 @7 @7 @7 @7 @7 @7 @7 @7 @7 @7 @7 @7 @7 @7 @7 @7 @7 @7 @7 @7 @7 @7 @7 @7 @7 @7 @7 @7 @7 @7 @7 @7 @7 @7 @7 @7 @7 @7 @7 @7 @7 @7 @7 @7 @7 @7 @7 @7 @7 @7 @7 @7 @7 @7 @7 @7 @7 @7 @7 @7 @7 @7 @7 @7 @7 @7 @7 @7 @7 @7 @7 @7 @7 @7 @7 @7 @7 @7 @7 @7 @7 @7 @7 @7 @7 @7 @7 @7 @7 @7 @7 @7 @7 @7 @7 @7 @7 @7 @7 @7 @7 @7 @7 @7 @7 @7 @7 @7 @7 @7 @7 @7 @7 @7 @7 @7 @7 @7 @7 @7 @7 @7 @7 @7 @7 @7 @7    E/ E/ E/ E/ E/ E/ E/ E/ E/ E/ E/ E/ E/ E/ E/ E/ E/ E/ E/ E/ E/ E/ E/ E/ E/ E/ E/ E/ E/ E/ E/ E/ E/ E/ E/ E/ E/ E/ E/ E/ E/ E/ E/ E/ E/ E/ E/ E/ E/ E/ E/ E/ E/ E/ E/ E/ E/ E/ E/ E/ E/ E/ E/ E/ E/ E/ E/ E/ E/ E/ E/ E/ E/ E/ E/ E/ E/ E/ E/ E/ E/ E/ E/ E/ E/ E/ E/ E/ E/ E/ E/ E/ E/ E/ E/ E/ E/ E/ E/ E/ E/ E/ E/ E/ E/ E/ E/ E/ E/ E/ E/ E/ E/ E/ E/ E/ E/ E/ E/ E/ E/ E/ E/ E/ E/ E/ E/ E/ E/ E/ E/ E/ E/ E/ E/ E/ E/ E/ E/ E/ E/ E/ E/ E/ E/ E/ E/ E/ E/ E/ E/ E/ E/ E/ E/ E/ E/ E/ E/ E/           C1 C1 C1 C1 C1 C1 C1 C1 C1 C1 C1 C1 C1 C1 C1 C1 C1 C1 C1 C1 C1 C1 C1 C1 C1 C1 C1 C1 C1 C1 C1 C1 C1 C1 C1 C1 C1 C1 C1 C1 C1 C1 C1 C1 C1 C1 C1 C1 C1 C1 C1 C1 C1 C1 C1 C1 C1 C1 C1 C1 C1 C1 C1 C1 C1 C1 C1 C1 C1 C1 C1 C1 C1 C1 C1 C1 C1 C1 C1 C1 C1 C1 C1 C1 C1 C1 C1 C1 C1 C1 C1 C1 C1 C1 C1 C1 C1 C1 C1 C1 C1 C1 C1 C1 C1 C1 C1 C1 C1 C1 C1 C1 C1 C1 C1 C1 C1 C1 C1 C1 C1 C1 C1 C1 C1 C1 C1 C1 C1 C1 C1 C1 C1 C1 C1 C1 C1 C1 C1 C1 C1 C1 C1 C1 C1 C1 C1 C1 C1 C1 C1 C1 C1                    A2 A2 A2 A2 A2 A2 A2 A2 A2 A2 A2 A2 A2 A2 A2 A2 A2 A2 A2 A2 A2 A2 A2 A2 A2 A2 A2 A2 A2 A2 A2 A2 A2 A2 A2 A2 A2 A2 A2 A2 A2 A2 A2 A2 A2 A2 A2 A2 A2 A2 A2 A2 A2 A2 A2 A2 A2 A2 A2 A2 A2 A2 A2 A2 A2 A2 A2 A2 A2 A2 A2 A2 A2 A2 A2 A2 A2 A2 A2 A2 A2 A2 A2 A2 A2 A2 A2 A2 A2 A2 A2 A2 A2 A2 A2 A2 A2 A2 A2 A2 A2 A2 A2 A2 A2 A2 A2 A2 A2 A2 A2 A2 A2 A2 A2 A2 A2 A2 A2 A2 A2 A2 A2 A2 A2 A2 A2 A2 A2 A2 A2 A2 A2 A2 A2 A2 A2 A2 A2 A2 A2 A2 A2 A2 A2 A2 A2 A2 A2 A2 A2 A2 A2 A2 A2 A2 A2 A2 A2 A2 A2 A2 A2 A2 A2 A2 A2 A2 2 2 2 2 @2 @2 @2 @2 @2 @2 @2 @2 @2 @2 @2 @2 @2 @2 @2 @2 @2 @2 @2 @2 @2 @2 @2 @2 @2 @2 @2 @2 @2 @2 @2 @2 @2 @2 @2 @2 @2 @2 @2 @2 @2 @2 @2 @2 @2 @2 @2 @2 @2 @2 @2 @2 @2 @2 @2 @2 @2 @2 @2 @2 @2 @2 @2 @2 @2 @2 @2 @2 @2 @2 @2 @2 @2 @2 @2 @2 @2 @2 @2 @2 @2 @2 @2 @2 @2 @2 @2 @2 @2 @2 @2 @2 @2 @2 @2 @2 @2 @2 @2 @2 @2 @2 @2 @2 @2 @2 @2 @2 @2 @2 @2 @2 @2 @2 @2 @2 @2 @2 @2 @2 @2 @2 @2 @2 @2 @2 @2 @2 @2 @2 @2 @2 @2 @2 @2 @2 @2 @2 @2 @2 @2 @2 @2 @2 @2 @2 @2 @2 @2 @2 @2 @2 @2 @2 @2 @2 @2 @2 @2 @2 2 2 2 2 2 2 2 2 2 2 >2 >2 >2 >2 >2 >2 >2 >2 >2 >2 >2 >2 >2 >2 >2 >2 >2 >2 >2 >2 >2 >2 >2 >2 >2 >2 >2 >2 >2 >2 >2 >2 >2 >2 >2 >2 >2 >2 >2 >2 >2 >2 >2 >2 >2 >2 >2 >2 >2 >2 >2 >2 >2 >2 >2 >2 >2 >2 >2 >2 >2 >2 >2 >2 >2 >2 >2 >2 >2 >2 >2 >2 >2 >2 >2 >2 >2 >2 >2 >2 >2 >2 >2 >2 >2 >2 >2 >2 >2 >2 >2 >2 >2 >2 >2 >2 >2 >2 >2 >2 >2 >2 >2 >2 >2 >2 >2 >2 >2 >2 >2 >2 >2 >2 >2 >2 >2 >2 >2 >2 >2 >2 >2 >2 >2 >2 >2 >2 >2 >2 >2 >2 >2 >2 >2 >2 >2 >2 >2 >2 >2 >2 >2 >2 >2 >2 >2 >2 >2 >2 >2 >2 >2 2 2 2 2 2 2 2 2 2 2 2 2 2 2 2 2 2 2 2 2F 2F 2F 2F 2F 2F 2F 2F 2F 2F 2F 2F 2F 2F 2F 2F 2F 2F 2F 2F 2F 2F 2F 2F 2F 2F 2F 2F 2F 2F 2F 2F 2F 2F 2F 2F 2F 2F 2F 2F 2F 2F 2F 2F 2F 2F 2F 2F 2F 2F 2F 2F 2F 2F 2F 2F 2F 2F 2F 2F 2F 2F 2F 2F 2F 2F 2F 2F 2F 2F 2F 2F 2F 2F 2F 2F 2F 2F 2F 2F 2F 2F 2F 2F 2F 2F 2F 2F 2F 2F 2F 2F 2F 2F 2F 2F 2F 2F 2F 2F 2F 2F 2F 2F 2F 2F 2F 2F 2F 2F 2F 2F 2F 2F 2F 2F 2F 2F 2F 2F 2F 2F 2F 2F 2F 2F 2F 2F 2F 2F 2F 2F 2F 2F 2F 2F 2F 2F 2F 2F 2F 2F 2F 2F 2F 2F 2F 2F 2F 2F 2F 2F 2F 2F 2F 2F 2F 2F 2F 2F 2F 2F 2F 2F 2F 2F 2F 2F F F F 0F 0F 0F 0F 0F 0F 0F 0F 0F 0F 0F 0F 0F 0F 0F 0F 0F 0F 0F 0F 0F 0F 0F 0F 0F 0F 0F 0F 0F 0F 0F 0F 0F 0F 0F 0F 0F 0F 0F 0F 0F 0F 0F 0F 0F 0F 0F 0F 0F 0F 0F 0F 0F 0F 0F 0F 0F 0F 0F 0F 0F 0F 0F 0F 0F 0F 0F 0F 0F 0F 0F 0F 0F 0F 0F 0F 0F 0F 0F 0F 0F 0F 0F 0F 0F 0F 0F 0F 0F 0F 0F 0F 0F 0F 0F 0F 0F 0F 0F 0F 0F 0F 0F 0F 0F 0F 0F 0F 0F 0F 0F 0F 0F 0F 0F 0F 0F 0F 0F 0F 0F 0F 0F 0F 0F 0F 0F 0F 0F 0F 0F 0F 0F 0F 0F 0F 0F 0F 0F 0F 0F 0F 0F 0F 0F 0F 0F 0F 0F 0F 0F 0F 0F 0F 0F 0F 0F 0F 0F 0F F F F F F F F F F F F .F .F .F .F .F .F .F .F .F .F .F .F .F .F .F .F .F .F .F .F .F .F .F .F .F .F .F .F .F .F .F .F .F .F .F .F .F .F .F .F .F .F .F .F .F .F .F .F .F .F .F .F .F .F .F .F .F .F .F .F .F .F .F .F .F .F .F .F .F .F .F .F .F .F .F .F .F .F .F .F .F .F .F .F .F .F .F .F .F .F .F .F .F .F .F .F .F .F .F .F .F .F .F .F .F .F .F .F .F .F .F .F .F .F .F .F .F .F .F .F .F .F .F .F .F .F .F .F .F .F .F .F .F .F .F .F .F .F .F .F .F .F .F .F .F .F .F .F .F .F .F .F .F F F F F F F F F F F F F F F F F F F F0 F0 F0 F0 F0 F0 F0 F0 F0 F0 F0 F0 F0 F0 F0 F0 F0 F0 F0 F0 F0 F0 F0 F0 F0 F0 F0 F0 F0 F0 F0 F0 F0 F0 F0 F0 F0 F0 F0 F0 F0 F0 F0 F0 F0 F0 F0 F0 F0 F0 F0 F0 F0 F0 F0 F0 F0 F0 F0 F0 F0 F0 F0 F0 F0 F0 F0 F0 F0 F0 F0 F0 F0 F0 F0 F0 F0 F0 F0 F0 F0 F0 F0 F0 F0 F0 F0 F0 F0 F0 F0 F0 F0 F0 F0 F0 F0 F0 F0 F0 F0 F0 F0 F0 F0 F0 F0 F0 F0 F0 F0 F0 F0 F0 F0 F0 F0 F0 F0 F0 F0 F0 F0 F0 F0 F0 F0 F0 F0 F0 F0 F0 F0 F0 F0 F0 F0 F0 F0 F0 F0 F0 F0 F0 F0 F0 F0 F0 F0 F0 F0 F0 F0 F0 F0 F0 F0 F0 F0 F0 F0 F0 F0 F0 F0 F0 F0 F0 F0 0 0 0 E0 E0 E0 E0 E0 E0 E0 E0 E0 E0 E0 E0 E0 E0 E0 E0 E0 E0 E0 E0 E0 E0 E0 E0 E0 E0 E0 E0 E0 E0 E0 E0 E0 E0 E0 E0 E0 E0 E0 E0 E0 E0 E0 E0 E0 E0 E0 E0 E0 E0 E0 E0 E0 E0 E0 E0 E0 E0 E0 E0 E0 E0 E0 E0 E0 E0 E0 E0 E0 E0 E0 E0 E0 E0 E0 E0 E0 E0 E0 E0 E0 E0 E0 E0 E0 E0 E0 E0 E0 E0 E0 E0 E0 E0 E0 E0 E0 E0 E0 E0 E0 E0 E0 E0 E0 E0 E0 E0 E0 E0 E0 E0 E0 E0 E0 E0 E0 E0 E0 E0 E0 E0 E0 E0 E0 E0 E0 E0 E0 E0 E0 E0 E0 E0 E0 E0 E0 E0 E0 E0 E0 E0 E0 E0 E0 E0 E0 E0 E0 E0 E0 E0 E0 E0 E0 E0 E0 E0 E0 E0 0 0 0 0 0 0 0 0 0 0 C0 C0 C0 C0 C0 C0 C0 C0 C0 C0 C0 C0 C0 C0 C0 C0 C0 C0 C0 C0 C0 C0 C0 C0 C0 C0 C0 C0 C0 C0 C0 C0 C0 C0 C0 C0 C0 C0 C0 C0 C0 C0 C0 C0 C0 C0 C0 C0 C0 C0 C0 C0 C0 C0 C0 C0 C0 C0 C0 C0 C0 C0 C0 C0 C0 C0 C0 C0 C0 C0 C0 C0 C0 C0 C0 C0 C0 C0 C0 C0 C0 C0 C0 C0 C0 C0 C0 C0 C0 C0 C0 C0 C0 C0 C0 C0 C0 C0 C0 C0 C0 C0 C0 C0 C0 C0 C0 C0 C0 C0 C0 C0 C0 C0 C0 C0 C0 C0 C0 C0 C0 C0 C0 C0 C0 C0 C0 C0 C0 C0 C0 C0 C0 C0 C0 C0 C0 C0 C0 C0 C0 C0 C0 C0 C0 C0 C0 C0 C0 C0 C0 C0 C0 0 0 0 0 0 0 0 0 0 0 0 0 0 0 0 0 0 0 0 E0 E0 E0 E0 E0 E0 E0 E0 E0 E0 E0 E0 E0 E0 E0 E0 E0 E0 E0 E0 E0 E0 E0 E0 E0 E0 E0 E0 E0 E0 E0 E0 E0 E0 E0 E0 E0 E0 E0 E0 E0 E0 E0 E0 E0 E0 E0 E0 E0 E0 E0 E0 E0 E0 E0 E0 E0 E0 E0 E0 E0 E0 E0 E0 E0 E0 E0 E0 E0 E0 E0 E0 E0 E0 E0 E0 E0 E0 E0 E0 E0 E0 E0 E0 E0 E0 E0 E0 E0 E0 E0 E0 E0 E0 E0 E0 E0 E0 E0 E0 E0 E0 E0 E0 E0 E0 E0 E0 E0 E0 E0 E0 E0 E0 E0 E0 E0 E0 E0 E0 E0 E0 E0 E0 E0 E0 E0 E0 E0 E0 E0 E0 E0 E0 E0 E0 E0 E0 E0 E0 E0 E0 E0 E0 E0 E0 E0 E0 E0 E0 E0 E0 E0 E0 E0 E0 E0 E0 E0 E0 E0 E0 E0 E0 E0 E0 E0 E0 0 0 0 0 C0 C0 C0 C0 C0 C0 C0 C0 C0 C0 C0 C0 C0 C0 C0 C0 C0 C0 C0 C0 C0 C0 C0 C0 C0 C0 C0 C0 C0 C0 C0 C0 C0 C0 C0 C0 C0 C0 C0 C0 C0 C0 C0 C0 C0 C0 C0 C0 C0 C0 C0 C0 C0 C0 C0 C0 C0 C0 C0 C0 C0 C0 C0 C0 C0 C0 C0 C0 C0 C0 C0 C0 C0 C0 C0 C0 C0 C0 C0 C0 C0 C0 C0 C0 C0 C0 C0 C0 C0 C0 C0 C0 C0 C0 C0 C0 C0 C0 C0 C0 C0 C0 C0 C0 C0 C0 C0 C0 C0 C0 C0 C0 C0 C0 C0 C0 C0 C0 C0 C0 C0 C0 C0 C0 C0 C0 C0 C0 C0 C0 C0 C0 C0 C0 C0 C0 C0 C0 C0 C0 C0 C0 C0 C0 C0 C0 C0 C0 C0 C0 C0 C0 C0 C0 C0 C0 C0 C0 C0 C0 0 0 0 0 0 0     B2 B2 B2 B2 B2 B2 B2 B2 B2 B2 B2 B2 B2 B2 B2 B2 B2 B2 B2 B2 B2 B2 B2 B2 B2 B2 B2 B2 B2 B2 B2 B2 B2 B2 B2 B2 B2 B2 B2 B2 B2 B2 B2 B2 B2 B2 B2 B2 B2 B2 B2 B2 B2 B2 B2 B2 B2 B2 B2 B2 B2 B2 B2 B2 B2 B2 B2 B2 B2 B2 B2 B2 B2 B2 B2 B2 B2 B2 B2 B2 B2 B2 B2 B2 B2 B2 B2 B2 B2 B2 B2 B2 B2 B2 B2 B2 B2 B2 B2 B2 B2 B2 B2 B2 B2 B2 B2 B2 B2 B2 B2 B2 B2 B2 B2 B2 B2 B2 B2 B2 B2 B2 B2 B2 B2 B2 B2 B2 B2 B2 B2 B2 B2 B2 B2 B2 B2 B2 B2 B2 B2 B2 B2 B2 B2 B2 B2 B2 B2 B2 B2 B2 B2                   3C 3C 3C 3C 3C 3C 3C 3C 3C 3C 3C 3C 3C 3C 3C 3C 3C 3C 3C 3C 3C 3C 3C 3C 3C 3C 3C 3C 3C 3C 3C 3C 3C 3C 3C 3C 3C 3C 3C 3C 3C 3C 3C 3C 3C 3C 3C 3C 3C 3C 3C 3C 3C 3C 3C 3C 3C 3C 3C 3C 3C 3C 3C 3C 3C 3C 3C 3C 3C 3C 3C 3C 3C 3C 3C 3C 3C 3C 3C 3C 3C 3C 3C 3C 3C 3C 3C 3C 3C 3C 3C 3C 3C 3C 3C 3C 3C 3C 3C 3C 3C 3C 3C 3C 3C 3C 3C 3C 3C 3C 3C 3C 3C 3C 3C 3C 3C 3C 3C 3C 3C 3C 3C 3C 3C 3C 3C 3C 3C 3C 3C 3C 3C 3C 3C 3C 3C 3C 3C 3C 3C 3C 3C 3C 3C 3C 3C 3C 3C 3C 3C 3C 3C 3C 3C 3C 3C 3C 3C 3C 3C 3C 3C 3C 3C 3C 3C 3C C C C C 2C 2C 2C 2C 2C 2C 2C 2C 2C 2C 2C 2C 2C 2C 2C 2C 2C 2C 2C 2C 2C 2C 2C 2C 2C 2C 2C 2C 2C 2C 2C 2C 2C 2C 2C 2C 2C 2C 2C 2C 2C 2C 2C 2C 2C 2C 2C 2C 2C 2C 2C 2C 2C 2C 2C 2C 2C 2C 2C 2C 2C 2C 2C 2C 2C 2C 2C 2C 2C 2C 2C 2C 2C 2C 2C 2C 2C 2C 2C 2C 2C 2C 2C 2C 2C 2C 2C 2C 2C 2C 2C 2C 2C 2C 2C 2C 2C 2C 2C 2C 2C 2C 2C 2C 2C 2C 2C 2C 2C 2C 2C 2C 2C 2C 2C 2C 2C 2C 2C 2C 2C 2C 2C 2C 2C 2C 2C 2C 2C 2C 2C 2C 2C 2C 2C 2C 2C 2C 2C 2C 2C 2C 2C 2C 2C 2C 2C 2C 2C 2C 2C 2C 2C 2C 2C 2C 2C 2C 2C 2C C C C C C C     K0 K0 K0 K0 K0 K0 K0 K0 K0 K0 K0 K0 K0 K0 K0 K0 K0 K0 K0 K0 K0 K0 K0 K0 K0 K0 K0 K0 K0 K0 K0 K0 K0 K0 K0 K0 K0 K0 K0 K0 K0 K0 K0 K0 K0 K0 K0 K0 K0 K0 K0 K0 K0 K0 K0 K0 K0 K0 K0 K0 K0 K0 K0 K0 K0 K0 K0 K0 K0 K0 K0 K0 K0 K0 K0 K0 K0 K0 K0 K0 K0 K0 K0 K0 K0 K0 K0 K0 K0 K0 K0 K0 K0 K0 K0 K0 K0 K0 K0 K0 K0 K0 K0 K0 K0 K0 K0 K0 K0 K0 K0 K0 K0 K0 K0 K0 K0 K0 K0 K0 K0 K0 K0 K0 K0 K0 K0 K0 K0 K0 K0 K0 K0 K0 K0 K0 K0 K0 K0 K0 K0 K0 K0 K0 K0 K0 K0 K0 K0 K0 K0 K0 K0                    2A 2A 2A 2A 2A 2A 2A 2A 2A 2A 2A 2A 2A 2A 2A 2A 2A 2A 2A 2A 2A 2A 2A 2A 2A 2A 2A 2A 2A 2A 2A 2A 2A 2A 2A 2A 2A 2A 2A 2A 2A 2A 2A 2A 2A 2A 2A 2A 2A 2A 2A 2A 2A 2A 2A 2A 2A 2A 2A 2A 2A 2A 2A 2A 2A 2A 2A 2A 2A 2A 2A 2A 2A 2A 2A 2A 2A 2A 2A 2A 2A 2A 2A 2A 2A 2A 2A 2A 2A 2A 2A 2A 2A 2A 2A 2A 2A 2A 2A 2A 2A 2A 2A 2A 2A 2A 2A 2A 2A 2A 2A 2A 2A 2A 2A 2A 2A 2A 2A 2A 2A 2A 2A 2A 2A 2A 2A 2A 2A 2A 2A 2A 2A 2A 2A 2A 2A 2A 2A 2A 2A 2A 2A 2A 2A 2A 2A 2A 2A 2A 2A 2A 2A 2A 2A 2A 2A 2A 2A 2A 2A 2A 2A 2A 2A 2A 2A 2A A A A A 0A 0A 0A 0A 0A 0A 0A 0A 0A 0A 0A 0A 0A 0A 0A 0A 0A 0A 0A 0A 0A 0A 0A 0A 0A 0A 0A 0A 0A 0A 0A 0A 0A 0A 0A 0A 0A 0A 0A 0A 0A 0A 0A 0A 0A 0A 0A 0A 0A 0A 0A 0A 0A 0A 0A 0A 0A 0A 0A 0A 0A 0A 0A 0A 0A 0A 0A 0A 0A 0A 0A 0A 0A 0A 0A 0A 0A 0A 0A 0A 0A 0A 0A 0A 0A 0A 0A 0A 0A 0A 0A 0A 0A 0A 0A 0A 0A 0A 0A 0A 0A 0A 0A 0A 0A 0A 0A 0A 0A 0A 0A 0A 0A 0A 0A 0A 0A 0A 0A 0A 0A 0A 0A 0A 0A 0A 0A 0A 0A 0A 0A 0A 0A 0A 0A 0A 0A 0A 0A 0A 0A 0A 0A 0A 0A 0A 0A 0A 0A 0A 0A 0A 0A 0A 0A 0A 0A 0A 0A 0A A A A A A A     J/ J/ J/ J/ J/ J/ J/ J/ J/ J/ J/ J/ J/ J/ J/ J/ J/ J/ J/ J/ J/ J/ J/ J/ J/ J/ J/ J/ J/ J/ J/ J/ J/ J/ J/ J/ J/ J/ J/ J/ J/ J/ J/ J/ J/ J/ J/ J/ J/ J/ J/ J/ J/ J/ J/ J/ J/ J/ J/ J/ J/ J/ J/ J/ J/ J/ J/ J/ J/ J/ J/ J/ J/ J/ J/ J/ J/ J/ J/ J/ J/ J/ J/ J/ J/ J/ J/ J/ J/ J/ J/ J/ J/ J/ J/ J/ J/ J/ J/ J/ J/ J/ J/ J/ J/ J/ J/ J/ J/ J/ J/ J/ J/ J/ J/ J/ J/ J/ J/ J/ J/ J/ J/ J/ J/ J/ J/ J/ J/ J/ J/ J/ J/ J/ J/ J/ J/ J/ J/ J/ J/ J/ J/ J/ J/ J/ J/ J/ J/ J/ J/ J/ J/                   ?0 ?0 ?0 ?0 ?0 ?0 ?0 ?0 ?0 ?0 ?0 ?0 ?0 ?0 ?0 ?0 ?0 ?0 ?0 ?0 ?0 ?0 ?0 ?0 ?0 ?0 ?0 ?0 ?0 ?0 ?0 ?0 ?0 ?0 ?0 ?0 ?0 ?0 ?0 ?0 ?0 ?0 ?0 ?0 ?0 ?0 ?0 ?0 ?0 ?0 ?0 ?0 ?0 ?0 ?0 ?0 ?0 ?0 ?0 ?0 ?0 ?0 ?0 ?0 ?0 ?0 ?0 ?0 ?0 ?0 ?0 ?0 ?0 ?0 ?0 ?0 ?0 ?0 ?0 ?0 ?0 ?0 ?0 ?0 ?0 ?0 ?0 ?0 ?0 ?0 ?0 ?0 ?0 ?0 ?0 ?0 ?0 ?0 ?0 ?0 ?0 ?0 ?0 ?0 ?0 ?0 ?0 ?0 ?0 ?0 ?0 ?0 ?0 ?0 ?0 ?0 ?0 ?0 ?0 ?0 ?0 ?0 ?0 ?0 ?0 ?0 ?0 ?0 ?0 ?0 ?0 ?0 ?0 ?0 ?0 ?0 ?0 ?0 ?0 ?0 ?0 ?0 ?0 ?0 ?0 ?0 ?0 ?0 ?0 ?0 ?0 ?0 ?0 ?0 ?0 ?0 ?0 ?0 ?0 ?0 ?0 ?0 ?0 ?0 ?0 ?0 ?0 ?0 0 0 0 0 >0 >0 >0 >0 >0 >0 >0 >0 >0 >0 >0 >0 >0 >0 >0 >0 >0 >0 >0 >0 >0 >0 >0 >0 >0 >0 >0 >0 >0 >0 >0 >0 >0 >0 >0 >0 >0 >0 >0 >0 >0 >0 >0 >0 >0 >0 >0 >0 >0 >0 >0 >0 >0 >0 >0 >0 >0 >0 >0 >0 >0 >0 >0 >0 >0 >0 >0 >0 >0 >0 >0 >0 >0 >0 >0 >0 >0 >0 >0 >0 >0 >0 >0 >0 >0 >0 >0 >0 >0 >0 >0 >0 >0 >0 >0 >0 >0 >0 >0 >0 >0 >0 >0 >0 >0 >0 >0 >0 >0 >0 >0 >0 >0 >0 >0 >0 >0 >0 >0 >0 >0 >0 >0 >0 >0 >0 >0 >0 >0 >0 >0 >0 >0 >0 >0 >0 >0 >0 >0 >0 >0 >0 >0 >0 >0 >0 >0 >0 >0 >0 >0 >0 >0 >0 >0 >0 >0 >0 >0 >0 0 0 0 0 0 0     <9 <9 <9 <9 <9 <9 <9 <9 <9 <9 <9 <9 <9 <9 <9 <9 <9 <9 <9 <9 <9 <9 <9 <9 <9 <9 <9 <9 <9 <9 <9 <9 <9 <9 <9 <9 <9 <9 <9 <9 <9 <9 <9 <9 <9 <9 <9 <9 <9 <9 <9 <9 <9 <9 <9 <9 <9 <9 <9 <9 <9 <9 <9 <9 <9 <9 <9 <9 <9 <9 <9 <9 <9 <9 <9 <9 <9 <9 <9 <9 <9 <9 <9 <9 <9 <9 <9 <9 <9 <9 <9 <9 <9 <9 <9 <9 <9 <9 <9 <9 <9 <9 <9 <9 <9 <9 <9 <9 <9 <9 <9 <9 <9 <9 <9 <9 <9 <9 <9 <9 <9 <9 <9 <9 <9 <9 <9 <9 <9 <9 <9 <9 <9 <9 <9 <9 <9 <9 <9 <9 <9 <9 <9 <9 <9 <9 <9 <9 <9 <9 <9 <9 <9                    >. >. >. >. >. >. >. >. >. >. >. >. >. >. >. >. >. >. >. >. >. >. >. >. >. >. >. >. >. >. >. >. >. >. >. >. >. >. >. >. >. >. >. >. >. >. >. >. >. >. >. >. >. >. >. >. >. >. >. >. >. >. >. >. >. >. >. >. >. >. >. >. >. >. >. >. >. >. >. >. >. >. >. >. >. >. >. >. >. >. >. >. >. >. >. >. >. >. >. >. >. >. >. >. >. >. >. >. >. >. >. >. >. >. >. >. >. >. >. >. >. >. >. >. >. >. >. >. >. >. >. >. >. >. >. >. >. >. >. >. >. >. >. >. >. >. >. >. >. >. >. >. >. >. >. >. >. >. >. >. >. >. >. >. >. >. >. >. . . . . <. <. <. <. <. <. <. <. <. <. <. <. <. <. <. <. <. <. <. <. <. <. <. <. <. <. <. <. <. <. <. <. <. <. <. <. <. <. <. <. <. <. <. <. <. <. <. <. <. <. <. <. <. <. <. <. <. <. <. <. <. <. <. <. <. <. <. <. <. <. <. <. <. <. <. <. <. <. <. <. <. <. <. <. <. <. <. <. <. <. <. <. <. <. <. <. <. <. <. <. <. <. <. <. <. <. <. <. <. <. <. <. <. <. <. <. <. <. <. <. <. <. <. <. <. <. <. <. <. <. <. <. <. <. <. <. <. <. <. <. <. <. <. <. <. <. <. <. <. <. <. <. <. <. <. <. <. <. <. <. . . . . . .     :7 :7 :7 :7 :7 :7 :7 :7 :7 :7 :7 :7 :7 :7 :7 :7 :7 :7 :7 :7 :7 :7 :7 :7 :7 :7 :7 :7 :7 :7 :7 :7 :7 :7 :7 :7 :7 :7 :7 :7 :7 :7 :7 :7 :7 :7 :7 :7 :7 :7 :7 :7 :7 :7 :7 :7 :7 :7 :7 :7 :7 :7 :7 :7 :7 :7 :7 :7 :7 :7 :7 :7 :7 :7 :7 :7 :7 :7 :7 :7 :7 :7 :7 :7 :7 :7 :7 :7 :7 :7 :7 :7 :7 :7 :7 :7 :7 :7 :7 :7 :7 :7 :7 :7 :7 :7 :7 :7 :7 :7 :7 :7 :7 :7 :7 :7 :7 :7 :7 :7 :7 :7 :7 :7 :7 :7 :7 :7 :7 :7 :7 :7 :7 :7 :7 :7 :7 :7 :7 :7 :7 :7 :7 :7 :7 :7 :7 :7 :7 :7 :7 :7 :7                    9< 9< 9< 9< 9< 9< 9< 9< 9< 9< 9< 9< 9< 9< 9< 9< 9< 9< 9< 9< 9< 9< 9< 9< 9< 9< 9< 9< 9< 9< 9< 9< 9< 9< 9< 9< 9< 9< 9< 9< 9< 9< 9< 9< 9< 9< 9< 9< 9< 9< 9< 9< 9< 9< 9< 9< 9< 9< 9< 9< 9< 9< 9< 9< 9< 9< 9< 9< 9< 9< 9< 9< 9< 9< 9< 9< 9< 9< 9< 9< 9< 9< 9< 9< 9< 9< 9< 9< 9< 9< 9< 9< 9< 9< 9< 9< 9< 9< 9< 9< 9< 9< 9< 9< 9< 9< 9< 9< 9< 9< 9< 9< 9< 9< 9< 9< 9< 9< 9< 9< 9< 9< 9< 9< 9< 9< 9< 9< 9< 9< 9< 9< 9< 9< 9< 9< 9< 9< 9< 9< 9< 9< 9< 9< 9< 9< 9< 9< 9< 9< 9< 9< 9< 9< 9< 9< 9< 9< 9< 9< 9< 9< 9< 9< 9< 9< 9< 9< < < < 7< 7< 7< 7< 7< 7< 7< 7< 7< 7< 7< 7< 7< 7< 7< 7< 7< 7< 7< 7< 7< 7< 7< 7< 7< 7< 7< 7< 7< 7< 7< 7< 7< 7< 7< 7< 7< 7< 7< 7< 7< 7< 7< 7< 7< 7< 7< 7< 7< 7< 7< 7< 7< 7< 7< 7< 7< 7< 7< 7< 7< 7< 7< 7< 7< 7< 7< 7< 7< 7< 7< 7< 7< 7< 7< 7< 7< 7< 7< 7< 7< 7< 7< 7< 7< 7< 7< 7< 7< 7< 7< 7< 7< 7< 7< 7< 7< 7< 7< 7< 7< 7< 7< 7< 7< 7< 7< 7< 7< 7< 7< 7< 7< 7< 7< 7< 7< 7< 7< 7< 7< 7< 7< 7< 7< 7< 7< 7< 7< 7< 7< 7< 7< 7< 7< 7< 7< 7< 7< 7< 7< 7< 7< 7< 7< 7< 7< 7< 7< 7< 7< 7< 7< 7< 7< 7< 7< 7< 7< 7< < < < < < < <    E6 E6 E6 E6 E6 E6 E6 E6 E6 E6 E6 E6 E6 E6 E6 E6 E6 E6 E6 E6 E6 E6 E6 E6 E6 E6 E6 E6 E6 E6 E6 E6 E6 E6 E6 E6 E6 E6 E6 E6 E6 E6 E6 E6 E6 E6 E6 E6 E6 E6 E6 E6 E6 E6 E6 E6 E6 E6 E6 E6 E6 E6 E6 E6 E6 E6 E6 E6 E6 E6 E6 E6 E6 E6 E6 E6 E6 E6 E6 E6 E6 E6 E6 E6 E6 E6 E6 E6 E6 E6 E6 E6 E6 E6 E6 E6 E6 E6 E6 E6 E6 E6 E6 E6 E6 E6 E6 E6 E6 E6 E6 E6 E6 E6 E6 E6 E6 E6 E6 E6 E6 E6 E6 E6 E6 E6 E6 E6 E6 E6 E6 E6 E6 E6 E6 E6 E6 E6 E6 E6 E6 E6 E6 E6 E6 E6 E6 E6 E6 E6 E6 E6 E6                    7: 7: 7: 7: 7: 7: 7: 7: 7: 7: 7: 7: 7: 7: 7: 7: 7: 7: 7: 7: 7: 7: 7: 7: 7: 7: 7: 7: 7: 7: 7: 7: 7: 7: 7: 7: 7: 7: 7: 7: 7: 7: 7: 7: 7: 7: 7: 7: 7: 7: 7: 7: 7: 7: 7: 7: 7: 7: 7: 7: 7: 7: 7: 7: 7: 7: 7: 7: 7: 7: 7: 7: 7: 7: 7: 7: 7: 7: 7: 7: 7: 7: 7: 7: 7: 7: 7: 7: 7: 7: 7: 7: 7: 7: 7: 7: 7: 7: 7: 7: 7: 7: 7: 7: 7: 7: 7: 7: 7: 7: 7: 7: 7: 7: 7: 7: 7: 7: 7: 7: 7: 7: 7: 7: 7: 7: 7: 7: 7: 7: 7: 7: 7: 7: 7: 7: 7: 7: 7: 7: 7: 7: 7: 7: 7: 7: 7: 7: 7: 7: 7: 7: 7: 7: 7: 7: 7: 7: 7: 7: 7: 7: 7: 7: 7: 7: 7: 7: : : : : 5: 5: 5: 5: 5: 5: 5: 5: 5: 5: 5: 5: 5: 5: 5: 5: 5: 5: 5: 5: 5: 5: 5: 5: 5: 5: 5: 5: 5: 5: 5: 5: 5: 5: 5: 5: 5: 5: 5: 5: 5: 5: 5: 5: 5: 5: 5: 5: 5: 5: 5: 5: 5: 5: 5: 5: 5: 5: 5: 5: 5: 5: 5: 5: 5: 5: 5: 5: 5: 5: 5: 5: 5: 5: 5: 5: 5: 5: 5: 5: 5: 5: 5: 5: 5: 5: 5: 5: 5: 5: 5: 5: 5: 5: 5: 5: 5: 5: 5: 5: 5: 5: 5: 5: 5: 5: 5: 5: 5: 5: 5: 5: 5: 5: 5: 5: 5: 5: 5: 5: 5: 5: 5: 5: 5: 5: 5: 5: 5: 5: 5: 5: 5: 5: 5: 5: 5: 5: 5: 5: 5: 5: 5: 5: 5: 5: 5: 5: 5: 5: 5: 5: 5: 5: 5: 5: 5: 5: 5: 5: : : : : : :     C<3 C<3 C<3 C<3 C<3 C<3 C<3 C<3 C<3 C<3 C<3 C<3 C<3 C<3 C<3 C<3 C<3 C<3 C<3 C<3 C<3 C<3 C<3 C<3 C<3 C<3 C<3 C<3 C<3 C<3 C<3 C<3 C<3 C<3 C<3 C<3 C<3 C<3 C<3 C<3 C<3 C<3 C<3 C<3 C<3 C<3 C<3 C<3 C<3 C<3 C<3 C<3 C<3 C<3 C<3 C<3 C<3 C<3 C<3 C<3 C<3 C<3 C<3 C<3 C<3 C<3 C<3 C<3 C<3 C<3 C<3 C<3 C<3 C<3 C<3 C<3 C<3 C<3 C<3 C<3 C<3 C<3 C<3 C<3 C<3 C<3 C<3 C<3 C<3 C<3 C<3 C<3 C<3 C<3 C<3 C<3 C<3 C<3 C<3 C<3 C<3 C<3 C<3 C<3 C<3 C<3 C<3 C<3 C<3 C<3 C<3 C<3 C<3 C<3 C<3 C<3 C<3 C<3 C<3 C<3 C<3 C<3 C<3 C<3 C<3 C<3 C<3 C<3 C<3 C<3 C<3 C<3 C<3 C<3 C<3 C<3 C<3 C<3 C<3 C<3 C<3 C<3 C<3 C<3 C<3 C<3 C<3 C<3 C<3 C<3 C<3 C<3 C<3                    B2> B2> B2> B2> B2> B2> B2> B2> B2> B2> B2> B2> B2> B2> B2> B2> B2> B2> B2> B2> B2> B2> B2> B2> B2> B2> B2> B2> B2> B2> B2> B2> B2> B2> B2> B2> B2> B2> B2> B2> B2> B2> B2> B2> B2> B2> B2> B2> B2> B2> B2> B2> B2> B2> B2> B2> B2> B2> B2> B2> B2> B2> B2> B2> B2> B2> B2> B2> B2> B2> B2> B2> B2> B2> B2> B2> B2> B2> B2> B2> B2> B2> B2> B2> B2> B2> B2> B2> B2> B2> B2> B2> B2> B2> B2> B2> B2> B2> B2> B2> B2> B2> B2> B2> B2> B2> B2> B2> B2> B2> B2> B2> B2> B2> B2> B2> B2> B2> B2> B2> B2> B2> B2> B2> B2> B2> B2> B2> B2> B2> B2> B2> B2> B2> B2> B2> B2> B2> B2> B2> B2> B2> B2> B2> B2> B2> B2> B2> B2> B2> B2> B2> B2> B2> B2> B2> B2> B2> B2> B2> B2> B2> B2> B2> B2> B2> B2> B2> > > > C4> C4> C4> C4> C4> C4> C4> C4> C4> C4> C4> C4> C4> C4> C4> C4> C4> C4> C4> C4> C4> C4> C4> C4> C4> C4> C4> C4> C4> C4> C4> C4> C4> C4> C4> C4> C4> C4> C4> C4> C4> C4> C4> C4> C4> C4> C4> C4> C4> C4> C4> C4> C4> C4> C4> C4> C4> C4> C4> C4> C4> C4> C4> C4> C4> C4> C4> C4> C4> C4> C4> C4> C4> C4> C4> C4> C4> C4> C4> C4> C4> C4> C4> C4> C4> C4> C4> C4> C4> C4> C4> C4> C4> C4> C4> C4> C4> C4> C4> C4> C4> C4> C4> C4> C4> C4> C4> C4> C4> C4> C4> C4> C4> C4> C4> C4> C4> C4> C4> C4> C4> C4> C4> C4> C4> C4> C4> C4> C4> C4> C4> C4> C4> C4> C4> C4> C4> C4> C4> C4> C4> C4> C4> C4> C4> C4> C4> C4> C4> C4> C4> C4> C4> C4> C4> C4> C4> C4> C4> C4> > > > > > > > > > > E6> E6> E6> E6> E6> E6> E6> E6> E6> E6> E6> E6> E6> E6> E6> E6> E6> E6> E6> E6> E6> E6> E6> E6> E6> E6> E6> E6> E6> E6> E6> E6> E6> E6> E6> E6> E6> E6> E6> E6> E6> E6> E6> E6> E6> E6> E6> E6> E6> E6> E6> E6> E6> E6> E6> E6> E6> E6> E6> E6> E6> E6> E6> E6> E6> E6> E6> E6> E6> E6> E6> E6> E6> E6> E6> E6> E6> E6> E6> E6> E6> E6> E6> E6> E6> E6> E6> E6> E6> E6> E6> E6> E6> E6> E6> E6> E6> E6> E6> E6> E6> E6> E6> E6> E6> E6> E6> E6> E6> E6> E6> E6> E6> E6> E6> E6> E6> E6> E6> E6> E6> E6> E6> E6> E6> E6> E6> E6> E6> E6> E6> E6> E6> E6> E6> E6> E6> E6> E6> E6> E6> E6> E6> E6> E6> E6> E6> E6> E6> E6> E6> E6> E6> > > > > > > > > > > > > > > > > > > > F>7 F>7 F>7 F>7 F>7 F>7 F>7 F>7 F>7 F>7 F>7 F>7 F>7 F>7 F>7 F>7 F>7 F>7 F>7 F>7 F>7 F>7 F>7 F>7 F>7 F>7 F>7 F>7 F>7 F>7 F>7 F>7 F>7 F>7 F>7 F>7 F>7 F>7 F>7 F>7 F>7 F>7 F>7 F>7 F>7 F>7 F>7 F>7 F>7 F>7 F>7 F>7 F>7 F>7 F>7 F>7 F>7 F>7 F>7 F>7 F>7 F>7 F>7 F>7 F>7 F>7 F>7 F>7 F>7 F>7 F>7 F>7 F>7 F>7 F>7 F>7 F>7 F>7 F>7 F>7 F>7 F>7 F>7 F>7 F>7 F>7 F>7 F>7 F>7 F>7 F>7 F>7 F>7 F>7 F>7 F>7 F>7 F>7 F>7 F>7 F>7 F>7 F>7 F>7 F>7 F>7 F>7 F>7 F>7 F>7 F>7 F>7 F>7 F>7 F>7 F>7 F>7 F>7 F>7 F>7 F>7 F>7 F>7 F>7 F>7 F>7 F>7 F>7 F>7 F>7 F>7 F>7 F>7 F>7 F>7 F>7 F>7 F>7 F>7 F>7 F>7 F>7 F>7 F>7 F>7 F>7 F>7 F>7 F>7 F>7 F>7 F>7 F>7 F>7 F>7 F>7 F>7 F>7 F>7 F>7 F>7 F>7 F>7 F>7 F>7 F>7 F>7 F>7 >7 7 7 7 H<7 H<7 H<7 H<7 H<7 H<7 H<7 H<7 H<7 H<7 H<7 H<7 H<7 H<7 H<7 H<7 H<7 H<7 H<7 H<7 H<7 H<7 H<7 H<7 H<7 H<7 H<7 H<7 H<7 H<7 H<7 H<7 H<7 H<7 H<7 H<7 H<7 H<7 H<7 H<7 H<7 H<7 H<7 H<7 H<7 H<7 H<7 H<7 H<7 H<7 H<7 H<7 H<7 H<7 H<7 H<7 H<7 H<7 H<7 H<7 H<7 H<7 H<7 H<7 H<7 H<7 H<7 H<7 H<7 H<7 H<7 H<7 H<7 H<7 H<7 H<7 H<7 H<7 H<7 H<7 H<7 H<7 H<7 H<7 H<7 H<7 H<7 H<7 H<7 H<7 H<7 H<7 H<7 H<7 H<7 H<7 H<7 H<7 H<7 H<7 H<7 H<7 H<7 H<7 H<7 H<7 H<7 H<7 H<7 H<7 H<7 H<7 H<7 H<7 H<7 H<7 H<7 H<7 H<7 H<7 H<7 H<7 H<7 H<7 H<7 H<7 H<7 H<7 H<7 H<7 H<7 H<7 H<7 H<7 H<7 H<7 H<7 H<7 H<7 H<7 H<7 H<7 H<7 H<7 H<7 H<7 H<7 H<7 H<7 H<7 H<7 H<7 H<7 H<7 H<7 H<7 H<7 H<7 H<7 H<7 7 7 7 7 7 7 7 7 7 7 J:7 J:7 J:7 J:7 J:7 J:7 J:7 J:7 J:7 J:7 J:7 J:7 J:7 J:7 J:7 J:7 J:7 J:7 J:7 J:7 J:7 J:7 J:7 J:7 J:7 J:7 J:7 J:7 J:7 J:7 J:7 J:7 J:7 J:7 J:7 J:7 J:7 J:7 J:7 J:7 J:7 J:7 J:7 J:7 J:7 J:7 J:7 J:7 J:7 J:7 J:7 J:7 J:7 J:7 J:7 J:7 J:7 J:7 J:7 J:7 J:7 J:7 J:7 J:7 J:7 J:7 J:7 J:7 J:7 J:7 J:7 J:7 J:7 J:7 J:7 J:7 J:7 J:7 J:7 J:7 J:7 J:7 J:7 J:7 J:7 J:7 J:7 J:7 J:7 J:7 J:7 J:7 J:7 J:7 J:7 J:7 J:7 J:7 J:7 J:7 J:7 J:7 J:7 J:7 J:7 J:7 J:7 J:7 J:7 J:7 J:7 J:7 J:7 J:7 J:7 J:7 J:7 J:7 J:7 J:7 J:7 J:7 J:7 J:7 J:7 J:7 J:7 J:7 J:7 J:7 J:7 J:7 J:7 J:7 J:7 J:7 J:7 J:7 J:7 J:7 J:7 J:7 J:7 J:7 J:7 J:7 J:7 J:7 J:7 J:7 J:7 J:7 J:7 7 7 7 7 7 7 7 7 7 7 7 7 7 7 7 7 7 7 7 K7< K7< K7< K7< K7< K7< K7< K7< K7< K7< K7< K7< K7< K7< K7< K7< K7< K7< K7< K7< K7< K7< K7< K7< K7< K7< K7< K7< K7< K7< K7< K7< K7< K7< K7< K7< K7< K7< K7< K7< K7< K7< K7< K7< K7< K7< K7< K7< K7< K7< K7< K7< K7< K7< K7< K7< K7< K7< K7< K7< K7< K7< K7< K7< K7< K7< K7< K7< K7< K7< K7< K7< K7< K7< K7< K7< K7< K7< K7< K7< K7< K7< K7< K7< K7< K7< K7< K7< K7< K7< K7< K7< K7< K7< K7< K7< K7< K7< K7< K7< K7< K7< K7< K7< K7< K7< K7< K7< K7< K7< K7< K7< K7< K7< K7< K7< K7< K7< K7< K7< K7< K7< K7< K7< K7< K7< K7< K7< K7< K7< K7< K7< K7< K7< K7< K7< K7< K7< K7< K7< K7< K7< K7< K7< K7< K7< K7< K7< K7< K7< K7< K7< K7< K7< K7< K7< K7< K7< K7< K7< K7< K7< K7< K7< K7< K7< K7< K7< < < < H9< H9< H9< H9< H9< H9< H9< H9< H9< H9< H9< H9< H9< H9< H9< H9< H9< H9< H9< H9< H9< H9< H9< H9< H9< H9< H9< H9< H9< H9< H9< H9< H9< H9< H9< H9< H9< H9< H9< H9< H9< H9< H9< H9< H9< H9< H9< H9< H9< H9< H9< H9< H9< H9< H9< H9< H9< H9< H9< H9< H9< H9< H9< H9< H9< H9< H9< H9< H9< H9< H9< H9< H9< H9< H9< H9< H9< H9< H9< H9< H9< H9< H9< H9< H9< H9< H9< H9< H9< H9< H9< H9< H9< H9< H9< H9< H9< H9< H9< H9< H9< H9< H9< H9< H9< H9< H9< H9< H9< H9< H9< H9< H9< H9< H9< H9< H9< H9< H9< H9< H9< H9< H9< H9< H9< H9< H9< H9< H9< H9< H9< H9< H9< H9< H9< H9< H9< H9< H9< H9< H9< H9< H9< H9< H9< H9< H9< H9< H9< H9< H9< H9< H9< H9< H9< H9< H9< H9< H9< H9< < < < < < < < < < < O:< O:< O:< O:< O:< O:< O:< O:< O:< O:< O:< O:< O:< O:< O:< O:< O:< O:< O:< O:< O:< O:< O:< O:< O:< O:< O:< O:< O:< O:< O:< O:< O:< O:< O:< O:< O:< O:< O:< O:< O:< O:< O:< O:< O:< O:< O:< O:< O:< O:< O:< O:< O:< O:< O:< O:< O:< O:< O:< O:< O:< O:< O:< O:< O:< O:< O:< O:< O:< O:< O:< O:< O:< O:< O:< O:< O:< O:< O:< O:< O:< O:< O:< O:< O:< O:< O:< O:< O:< O:< O:< O:< O:< O:< O:< O:< O:< O:< O:< O:< O:< O:< O:< O:< O:< O:< O:< O:< O:< O:< O:< O:< O:< O:< O:< O:< O:< O:< O:< O:< O:< O:< O:< O:< O:< O:< O:< O:< O:< O:< O:< O:< O:< O:< O:< O:< O:< O:< O:< O:< O:< O:< O:< O:< O:< O:< O:< O:< O:< O:< O:< O:< O:< < < < < < < < < < < < < < < < < < < < Q<6 Q<6 Q<6 Q<6 Q<6 Q<6 Q<6 Q<6 Q<6 Q<6 Q<6 Q<6 Q<6 Q<6 Q<6 Q<6 Q<6 Q<6 Q<6 Q<6 Q<6 Q<6 Q<6 Q<6 Q<6 Q<6 Q<6 Q<6 Q<6 Q<6 Q<6 Q<6 Q<6 Q<6 Q<6 Q<6 Q<6 Q<6 Q<6 Q<6 Q<6 Q<6 Q<6 Q<6 Q<6 Q<6 Q<6 Q<6 Q<6 Q<6 Q<6 Q<6 Q<6 Q<6 Q<6 Q<6 Q<6 Q<6 Q<6 Q<6 Q<6 Q<6 Q<6 Q<6 Q<6 Q<6 Q<6 Q<6 Q<6 Q<6 Q<6 Q<6 Q<6 Q<6 Q<6 Q<6 Q<6 Q<6 Q<6 Q<6 Q<6 Q<6 Q<6 Q<6 Q<6 Q<6 Q<6 Q<6 Q<6 Q<6 Q<6 Q<6 Q<6 Q<6 Q<6 Q<6 Q<6 Q<6 Q<6 Q<6 Q<6 Q<6 Q<6 Q<6 Q<6 Q<6 Q<6 Q<6 Q<6 Q<6 Q<6 Q<6 Q<6 Q<6 Q<6 Q<6 Q<6 Q<6 Q<6 Q<6 Q<6 Q<6 Q<6 Q<6 Q<6 Q<6 Q<6 Q<6 Q<6 Q<6 Q<6 Q<6 Q<6 Q<6 Q<6 Q<6 Q<6 Q<6 Q<6 Q<6 Q<6 Q<6 Q<6 Q<6 Q<6 Q<6 Q<6 Q<6 Q<6 Q<6 Q<6 Q<6 Q<6 Q<6 Q<6 Q<6 Q<6 Q<6 Q<6 Q<6 Q<6 Q<6 Q<6 Q<6 Q<6 Q<6 Q<6 Q<6 <6 6 6 6 R:6 R:6 R:6 R:6 R:6 R:6 R:6 R:6 R:6 R:6 R:6 R:6 R:6 R:6 R:6 R:6 R:6 R:6 R:6 R:6 R:6 R:6 R:6 R:6 R:6 R:6 R:6 R:6 R:6 R:6 R:6 R:6 R:6 R:6 R:6 R:6 R:6 R:6 R:6 R:6 R:6 R:6 R:6 R:6 R:6 R:6 R:6 R:6 R:6 R:6 R:6 R:6 R:6 R:6 R:6 R:6 R:6 R:6 R:6 R:6 R:6 R:6 R:6 R:6 R:6 R:6 R:6 R:6 R:6 R:6 R:6 R:6 R:6 R:6 R:6 R:6 R:6 R:6 R:6 R:6 R:6 R:6 R:6 R:6 R:6 R:6 R:6 R:6 R:6 R:6 R:6 R:6 R:6 R:6 R:6 R:6 R:6 R:6 R:6 R:6 R:6 R:6 R:6 R:6 R:6 R:6 R:6 R:6 R:6 R:6 R:6 R:6 R:6 R:6 R:6 R:6 R:6 R:6 R:6 R:6 R:6 R:6 R:6 R:6 R:6 R:6 R:6 R:6 R:6 R:6 R:6 R:6 R:6 R:6 R:6 R:6 R:6 R:6 R:6 R:6 R:6 R:6 R:6 R:6 R:6 R:6 R:6 R:6 R:6 R:6 R:6 R:6 R:6 R:6 R:6 R:6 R:6 R:6 R:6 R:6 6 6 6 6 6 6 6 6 6 6 T96 T96 T96 T96 T96 T96 T96 T96 T96 T96 T96 T96 T96 T96 T96 T96 T96 T96 T96 T96 T96 T96 T96 T96 T96 T96 T96 T96 T96 T96 T96 T96 T96 T96 T96 T96 T96 T96 T96 T96 T96 T96 T96 T96 T96 T96 T96 T96 T96 T96 T96 T96 T96 T96 T96 T96 T96 T96 T96 T96 T96 T96 T96 T96 T96 T96 T96 T96 T96 T96 T96 T96 T96 T96 T96 T96 T96 T96 T96 T96 T96 T96 T96 T96 T96 T96 T96 T96 T96 T96 T96 T96 T96 T96 T96 T96 T96 T96 T96 T96 T96 T96 T96 T96 T96 T96 T96 T96 T96 T96 T96 T96 T96 T96 T96 T96 T96 T96 T96 T96 T96 T96 T96 T96 T96 T96 T96 T96 T96 T96 T96 T96 T96 T96 T96 T96 T96 T96 T96 T96 T96 T96 T96 T96 T96 T96 T96 T96 T96 T96 T96 T96 T96 6 6 6 6 6 6 6 6 6 6 6 6      R7 R7 R7 R7 R7 R7 R7 R7 R7 R7 R7 R7 R7 R7 R7 R7 R7 R7 R7 R7 R7 R7 R7 R7 R7 R7 R7 R7 R7 R7 R7 R7 R7 R7 R7 R7 R7 R7 R7 R7 R7 R7 R7 R7 R7 R7 R7 R7 R7 R7 R7 R7 R7 R7 R7 R7 R7 R7 R7 R7 R7 R7 R7 R7 R7 R7 R7 R7 R7 R7 R7 R7 R7 R7 R7 R7 R7 R7 R7 R7 R7 R7 R7 R7 R7 R7 R7 R7 R7 R7 R7 R7 R7 R7 R7 R7 R7 R7 R7 R7 R7 R7 R7 R7 R7 R7 R7 R7 R7 R7 R7 R7 R7 R7 R7 R7 R7 R7 R7 R7 R7 R7 R7 R7 R7 R7 R7 R7 R7 R7 R7 R7 R7 R7 R7 R7 R7 R7 R7 R7 R7 R7 R7 R7 R7 R7 R7 R7 R7 R7 R7 R7 R7 R7 R7 R7 R7 R7 R7 R7 R7 R7 R7 R7 R7 R7 R7 R7 7 7 7 7 O7 O7 O7 O7 O7 O7 O7 O7 O7 O7 O7 O7 O7 O7 O7 O7 O7 O7 O7 O7 O7 O7 O7 O7 O7 O7 O7 O7 O7 O7 O7 O7 O7 O7 O7 O7 O7 O7 O7 O7 O7 O7 O7 O7 O7 O7 O7 O7 O7 O7 O7 O7 O7 O7 O7 O7 O7 O7 O7 O7 O7 O7 O7 O7 O7 O7 O7 O7 O7 O7 O7 O7 O7 O7 O7 O7 O7 O7 O7 O7 O7 O7 O7 O7 O7 O7 O7 O7 O7 O7 O7 O7 O7 O7 O7 O7 O7 O7 O7 O7 O7 O7 O7 O7 O7 O7 O7 O7 O7 O7 O7 O7 O7 O7 O7 O7 O7 O7 O7 O7 O7 O7 O7 O7 O7 O7 O7 O7 O7 O7 O7 O7 O7 O7 O7 O7 O7 O7 O7 O7 O7 O7 O7 O7 O7 O7 O7 O7 O7 O7 O7 O7 O7 O7 O7 O7 O7 O7 O7 O7 7 7 7 7 7 7 7 7 7 7 J37 J37 J37 J37 J37 J37 J37 J37 J37 J37 J37 J37 J37 J37 J37 J37 J37 J37 J37 J37 J37 J37 J37 J37 J37 J37 J37 J37 J37 J37 J37 J37 J37 J37 J37 J37 J37 J37 J37 J37 J37 J37 J37 J37 J37 J37 J37 J37 J37 J37 J37 J37 J37 J37 J37 J37 J37 J37 J37 J37 J37 J37 J37 J37 J37 J37 J37 J37 J37 J37 J37 J37 J37 J37 J37 J37 J37 J37 J37 J37 J37 J37 J37 J37 J37 J37 J37 J37 J37 J37 J37 J37 J37 J37 J37 J37 J37 J37 J37 J37 J37 J37 J37 J37 J37 J37 J37 J37 J37 J37 J37 J37 J37 J37 J37 J37 J37 J37 J37 J37 J37 J37 J37 J37 J37 J37 J37 J37 J37 J37 J37 J37 J37 J37 J37 J37 J37 J37 J37 J37 J37 J37 J37 J37 J37 J37 J37 J37 J37 J37 J37 J37 J37 7 7 7 7 7 7 7 7 7 7 7 7      T90 T90 T90 T90 T90 T90 T90 T90 T90 T90 T90 T90 T90 T90 T90 T90 T90 T90 T90 T90 T90 T90 T90 T90 T90 T90 T90 T90 T90 T90 T90 T90 T90 T90 T90 T90 T90 T90 T90 T90 T90 T90 T90 T90 T90 T90 T90 T90 T90 T90 T90 T90 T90 T90 T90 T90 T90 T90 T90 T90 T90 T90 T90 T90 T90 T90 T90 T90 T90 T90 T90 T90 T90 T90 T90 T90 T90 T90 T90 T90 T90 T90 T90 T90 T90 T90 T90 T90 T90 T90 T90 T90 T90 T90 T90 T90 T90 T90 T90 T90 T90 T90 T90 T90 T90 T90 T90 T90 T90 T90 T90 T90 T90 T90 T90 T90 T90 T90 T90 T90 T90 T90 T90 T90 T90 T90 T90 T90 T90 T90 T90 T90 T90 T90 T90 T90 T90 T90 T90 T90 T90 T90 T90 T90 T90 T90 T90 T90 T90 T90 T90 T90 T90 T90 T90 T90 T90 T90 T90 T90 T90 T90 T90 T90 T90 T90 T90 T90 0 0 0 0 L:0 L:0 L:0 L:0 L:0 L:0 L:0 L:0 L:0 L:0 L:0 L:0 L:0 L:0 L:0 L:0 L:0 L:0 L:0 L:0 L:0 L:0 L:0 L:0 L:0 L:0 L:0 L:0 L:0 L:0 L:0 L:0 L:0 L:0 L:0 L:0 L:0 L:0 L:0 L:0 L:0 L:0 L:0 L:0 L:0 L:0 L:0 L:0 L:0 L:0 L:0 L:0 L:0 L:0 L:0 L:0 L:0 L:0 L:0 L:0 L:0 L:0 L:0 L:0 L:0 L:0 L:0 L:0 L:0 L:0 L:0 L:0 L:0 L:0 L:0 L:0 L:0 L:0 L:0 L:0 L:0 L:0 L:0 L:0 L:0 L:0 L:0 L:0 L:0 L:0 L:0 L:0 L:0 L:0 L:0 L:0 L:0 L:0 L:0 L:0 L:0 L:0 L:0 L:0 L:0 L:0 L:0 L:0 L:0 L:0 L:0 L:0 L:0 L:0 L:0 L:0 L:0 L:0 L:0 L:0 L:0 L:0 L:0 L:0 L:0 L:0 L:0 L:0 L:0 L:0 L:0 L:0 L:0 L:0 L:0 L:0 L:0 L:0 L:0 L:0 L:0 L:0 L:0 L:0 L:0 L:0 L:0 L:0 L:0 L:0 L:0 L:0 L:0 L:0 L:0 L:0 L:0 L:0 L:0 L:0 0 0 0 0 0 0 0 0   N<2 N<2 N<2 N<2 N<2 N<2 N<2 N<2 N<2 N<2 N<2 N<2 N<2 N<2 N<2 N<2 N<2 N<2 N<2 N<2 N<2 N<2 N<2 N<2 N<2 N<2 N<2 N<2 N<2 N<2 N<2 N<2 N<2 N<2 N<2 N<2 N<2 N<2 N<2 N<2 N<2 N<2 N<2 N<2 N<2 N<2 N<2 N<2 N<2 N<2 N<2 N<2 N<2 N<2 N<2 N<2 N<2 N<2 N<2 N<2 N<2 N<2 N<2 N<2 N<2 N<2 N<2 N<2 N<2 N<2 N<2 N<2 N<2 N<2 N<2 N<2 N<2 N<2 N<2 N<2 N<2 N<2 N<2 N<2 N<2 N<2 N<2 N<2 N<2 N<2 N<2 N<2 N<2 N<2 N<2 N<2 N<2 N<2 N<2 N<2 N<2 N<2 N<2 N<2 N<2 N<2 N<2 N<2 N<2 N<2 N<2 N<2 N<2 N<2 N<2 N<2 N<2 N<2 N<2 N<2 N<2 N<2 N<2 N<2 N<2 N<2 N<2 N<2 N<2 N<2 N<2 N<2 N<2 N<2 N<2 N<2 N<2 N<2 N<2 N<2 N<2 N<2 N<2 N<2 N<2 N<2 N<2 N<2 N<2 N<2 N<2 N<2 N<2                    O:7 O:7 O:7 O:7 O:7 O:7 O:7 O:7 O:7 O:7 O:7 O:7 O:7 O:7 O:7 O:7 O:7 O:7 O:7 O:7 O:7 O:7 O:7 O:7 O:7 O:7 O:7 O:7 O:7 O:7 O:7 O:7 O:7 O:7 O:7 O:7 O:7 O:7 O:7 O:7 O:7 O:7 O:7 O:7 O:7 O:7 O:7 O:7 O:7 O:7 O:7 O:7 O:7 O:7 O:7 O:7 O:7 O:7 O:7 O:7 O:7 O:7 O:7 O:7 O:7 O:7 O:7 O:7 O:7 O:7 O:7 O:7 O:7 O:7 O:7 O:7 O:7 O:7 O:7 O:7 O:7 O:7 O:7 O:7 O:7 O:7 O:7 O:7 O:7 O:7 O:7 O:7 O:7 O:7 O:7 O:7 O:7 O:7 O:7 O:7 O:7 O:7 O:7 O:7 O:7 O:7 O:7 O:7 O:7 O:7 O:7 O:7 O:7 O:7 O:7 O:7 O:7 O:7 O:7 O:7 O:7 O:7 O:7 O:7 O:7 O:7 O:7 O:7 O:7 O:7 O:7 O:7 O:7 O:7 O:7 O:7 O:7 O:7 O:7 O:7 O:7 O:7 O:7 O:7 O:7 O:7 O:7 O:7 O:7 O:7 O:7 O:7 O:7 O:7 O:7 O:7 O:7 O:7 O:7 O:7 O:7 O:7 O:7 O:7 O:7 O:7 O:7 O:7 :7 :7 :7 J:7 J:7 J:7 J:7 J:7 J:7 J:7 J:7 J:7 J:7 J:7 J:7 J:7 J:7 J:7 J:7 J:7 J:7 J:7 J:7 J:7 J:7 J:7 J:7 J:7 J:7 J:7 J:7 J:7 J:7 J:7 J:7 J:7 J:7 J:7 J:7 J:7 J:7 J:7 J:7 J:7 J:7 J:7 J:7 J:7 J:7 J:7 J:7 J:7 J:7 J:7 J:7 J:7 J:7 J:7 J:7 J:7 J:7 J:7 J:7 J:7 J:7 J:7 J:7 J:7 J:7 J:7 J:7 J:7 J:7 J:7 J:7 J:7 J:7 J:7 J:7 J:7 J:7 J:7 J:7 J:7 J:7 J:7 J:7 J:7 J:7 J:7 J:7 J:7 J:7 J:7 J:7 J:7 J:7 J:7 J:7 J:7 J:7 J:7 J:7 J:7 J:7 J:7 J:7 J:7 J:7 J:7 J:7 J:7 J:7 J:7 J:7 J:7 J:7 J:7 J:7 J:7 J:7 J:7 J:7 J:7 J:7 J:7 J:7 J:7 J:7 J:7 J:7 J:7 J:7 J:7 J:7 J:7 J:7 J:7 J:7 J:7 J:7 J:7 J:7 J:7 J:7 J:7 J:7 J:7 J:7 J:7 J:7 J:7 J:7 J:7 J:7 J:7 J:7 J:7 J:7 J:7 J:7 J:7 J:7 :7 :7 :7 :7 :7 :7 :7 :7 :7 :7 K:7 K:7 K:7 K:7 K:7 K:7 K:7 K:7 K:7 K:7 K:7 K:7 K:7 K:7 K:7 K:7 K:7 K:7 K:7 K:7 K:7 K:7 K:7 K:7 K:7 K:7 K:7 K:7 K:7 K:7 K:7 K:7 K:7 K:7 K:7 K:7 K:7 K:7 K:7 K:7 K:7 K:7 K:7 K:7 K:7 K:7 K:7 K:7 K:7 K:7 K:7 K:7 K:7 K:7 K:7 K:7 K:7 K:7 K:7 K:7 K:7 K:7 K:7 K:7 K:7 K:7 K:7 K:7 K:7 K:7 K:7 K:7 K:7 K:7 K:7 K:7 K:7 K:7 K:7 K:7 K:7 K:7 K:7 K:7 K:7 K:7 K:7 K:7 K:7 K:7 K:7 K:7 K:7 K:7 K:7 K:7 K:7 K:7 K:7 K:7 K:7 K:7 K:7 K:7 K:7 K:7 K:7 K:7 K:7 K:7 K:7 K:7 K:7 K:7 K:7 K:7 K:7 K:7 K:7 K:7 K:7 K:7 K:7 K:7 K:7 K:7 K:7 K:7 K:7 K:7 K:7 K:7 K:7 K:7 K:7 K:7 K:7 K:7 K:7 K:7 K:7 K:7 K:7 K:7 K:7 K:7 K:7 K:7 K:7 K:7 K:7 K:7 K:7 :7 :7 :7 :7 :7 :7 :7 :7 :7 :7 :7 :7 :7 :7 :7 :7 7 7 7 <M7 <M7 <M7 <M7 <M7 <M7 <M7 <M7 <M7 <M7 <M7 <M7 <M7 <M7 <M7 <M7 <M7 <M7 <M7 <M7 <M7 <M7 <M7 <M7 <M7 <M7 <M7 <M7 <M7 <M7 <M7 <M7 <M7 <M7 <M7 <M7 <M7 <M7 <M7 <M7 <M7 <M7 <M7 <M7 <M7 <M7 <M7 <M7 <M7 <M7 <M7 <M7 <M7 <M7 <M7 <M7 <M7 <M7 <M7 <M7 <M7 <M7 <M7 <M7 <M7 <M7 <M7 <M7 <M7 <M7 <M7 <M7 <M7 <M7 <M7 <M7 <M7 <M7 <M7 <M7 <M7 <M7 M7 M7 M7 M7 ;M7 ;M7 ;M7 ;M7 ;M7 ;M7 ;M7 ;M7 ;M7 ;M7 ;M7 ;M7 ;M7 ;M7 ;M7 ;M7 ;M7 ;M7 ;M7 ;M7 ;M7 ;M7 ;M7 ;M7 ;M7 ;M7 ;M7 ;M7 ;M7 ;M7 ;M7 ;M7 ;M7 ;M7 ;M7 ;M7 ;M7 ;M7 ;M7 ;M7 ;M7 ;M7 ;M7 ;M7 ;M7 ;M7 ;M7 ;M7 ;M7 ;M7 ;M7 ;M7 ;M7 ;M7 ;M7 ;M7 ;M7 ;M7 ;M7 ;M7 ;M7 ;M7 ;M7 ;M7 ;M7 ;M7 ;M7 ;M7 ;M7 ;M7 ;M7 ;M7 ;M7 ;M7 ;M7 ;M7 ;M7 ;M7 ;M7 ;M7 ;M7 ;M7 7 7 7 7 <H7 <H7 <H7 <H7 <H7 <H7 <H7 <H7 <H7 <H7 <H7 <H7 <H7 <H7 <H7 <H7 <H7 <H7 <H7 <H7 <H7 <H7 <H7 <H7 <H7 <H7 <H7 <H7 <H7 <H7 <H7 <H7 <H7 <H7 <H7 <H7 <H7 <H7 <H7 <H7 <H7 <H7 <H7 <H7 <H7 <H7 <H7 <H7 <H7 <H7 <H7 <H7 <H7 <H7 <H7 <H7 <H7 <H7 <H7 <H7 <H7 <H7 <H7 <H7 <H7 <H7 <H7 <H7 <H7 <H7 <H7 <H7 <H7 <H7 <H7 <H7 <H7 <H7 <H7 <H7 <H7 <H7 H7 H7 H7 H7 H;7 H;7 H;7 H;7 H;7 H;7 H;7 H;7 H;7 H;7 H;7 H;7 H;7 H;7 H;7 H;7 H;7 H;7 H;7 H;7 H;7 H;7 H;7 H;7 H;7 H;7 H;7 H;7 H;7 H;7 H;7 H;7 H;7 H;7 H;7 H;7 H;7 H;7 H;7 H;7 H;7 H;7 H;7 H;7 H;7 H;7 H;7 H;7 H;7 H;7 H;7 H;7 H;7 H;7 H;7 H;7 H;7 H;7 H;7 H;7 H;7 H;7 H;7 H;7 H;7 H;7 H;7 H;7 H;7 H;7 H;7 H;7 H;7 H;7 H;7 H;7 ;7 ;7 ;7 ;7 ;7 ;7 7 7 7 7 9J7 9J7 9J7 9J7 9J7 9J7 9J7 9J7 9J7 9J7 9J7 9J7 9J7 9J7 9J7 9J7 9J7 9J7 9J7 9J7 9J7 9J7 9J7 9J7 9J7 9J7 9J7 9J7 9J7 9J7 9J7 9J7 9J7 9J7 9J7 9J7 9J7 9J7 9J7 9J7 9J7 9J7 9J7 9J7 9J7 9J7 9J7 9J7 9J7 9J7 9J7 9J7 9J7 9J7 9J7 9J7 9J7 9J7 9J7 9J7 9J7 9J7 9J7 9J7 9J7 9J7 9J7 9J7 9J7 9J7 9J7 9J7 9J7 9J7 9J7 9J7 9J7 9J7 9J7 9J7 9J7 9J7 J7 J7 J7 J;7 J;7 J;7 J;7 J;7 J;7 J;7 J;7 J;7 J;7 J;7 J;7 J;7 J;7 J;7 J;7 J;7 J;7 J;7 J;7 J;7 J;7 J;7 J;7 J;7 J;7 J;7 J;7 J;7 J;7 J;7 J;7 J;7 J;7 J;7 J;7 J;7 J;7 J;7 J;7 J;7 J;7 J;7 J;7 J;7 J;7 J;7 J;7 J;7 J;7 J;7 J;7 J;7 J;7 J;7 J;7 J;7 J;7 J;7 J;7 J;7 J;7 J;7 J;7 J;7 J;7 J;7 J;7 ;7 ;7 ;7 ;7 ;7 ;7 ;7 ;7 ;7 ;7 ;7 ;7 ;7 ;7 7 7 7  <K <K <K <K <K <K <K <K <K <K <K <K <K <K <K <K <K <K <K <K <K <K <K <K <K <K <K <K <K <K <K <K <K <K <K <K <K <K <K <K <K <K <K <K <K <K <K <K <K <K <K <K <K <K <K <K <K <K <K <K <K <K <K <K <K <K <K <K <K <K <K <K <K <K <K <K <K <K <K <K <K <K <K <K <K <K <K <K <K <K <K <K <K <K <K <K <K <K <K <K <K <K <K <K <K <K <K <K <K <K <K <K <K <K <K <K <K <K <K <K <K <K <K <K <K <K <K <K <K <K <K <K <K <K <K <K <K <K <K <K <K <K <K <K <K <K <K <K <K <K <K <K <K <K <K <K <K <K <K <K <K <K <K <K <K <K <K <K K K K K 7K 7K 7K 7K 7K 7K 7K 7K 7K 7K 7K 7K 7K 7K 7K 7K 7K 7K 7K 7K 7K 7K 7K 7K 7K 7K 7K 7K 7K 7K 7K 7K 7K 7K 7K 7K 7K 7K 7K 7K 7K 7K 7K 7K 7K 7K 7K 7K 7K 7K 7K 7K 7K 7K 7K 7K 7K 7K 7K 7K 7K 7K 7K 7K 7K 7K 7K 7K 7K 7K 7K 7K 7K 7K 7K 7K 7K 7K 7K 7K 7K 7K 7K 7K 7K 7K 7K 7K 7K 7K 7K 7K 7K 7K 7K 7K 7K 7K 7K 7K 7K 7K 7K 7K 7K 7K 7K 7K 7K 7K 7K 7K 7K 7K 7K 7K 7K 7K 7K 7K 7K 7K 7K 7K 7K 7K 7K 7K 7K 7K 7K 7K 7K 7K 7K 7K 7K 7K 7K 7K 7K 7K 7K 7K 7K 7K 7K 7K 7K 7K 7K 7K 7K 7K 7K 7K 7K 7K 7K 7K K K K K K K K K K K 9K 9K 9K 9K 9K 9K 9K 9K 9K 9K 9K 9K 9K 9K 9K 9K 9K 9K 9K 9K 9K 9K 9K 9K 9K 9K 9K 9K 9K 9K 9K 9K 9K 9K 9K 9K 9K 9K 9K 9K 9K 9K 9K 9K 9K 9K 9K 9K 9K 9K 9K 9K 9K 9K 9K 9K 9K 9K 9K 9K 9K 9K 9K 9K 9K 9K 9K 9K 9K 9K 9K 9K 9K 9K 9K 9K 9K 9K 9K 9K 9K 9K 9K 9K 9K 9K 9K 9K 9K 9K 9K 9K 9K 9K 9K 9K 9K 9K 9K 9K 9K 9K 9K 9K 9K 9K 9K 9K 9K 9K 9K 9K 9K 9K 9K 9K 9K 9K 9K 9K 9K 9K 9K 9K 9K 9K 9K 9K 9K 9K 9K 9K 9K 9K 9K 9K 9K 9K 9K 9K 9K 9K 9K 9K 9K 9K 9K 9K 9K 9K 9K 9K 9K K K K K K K K K K K K K K K K     M: M: M: M: M: M: M: M: M: M: M: M: M: M: M: M: M: M: M: M: M: M: M: M: M: M: M: M: M: M: M: M: M: M: M: M: M: M: M: M: M: M: M: M: M: M: M: M: M: M: M: M: M: M: M: M: M: M: M: M: M: M: M: M: M: M: M: M: M: M: M: M: M: M: M: M: M: M: M: M: M: M: : : : : L: L: L: L: L: L: L: L: L: L: L: L: L: L: L: L: L: L: L: L: L: L: L: L: L: L: L: L: L: L: L: L: L: L: L: L: L: L: L: L: L: L: L: L: L: L: L: L: L: L: L: L: L: L: L: L: L: L: L: L: L: L: L: L: L: L: L: L: L: L: L: L: L: L: L: L: L: L: L: L: L: L:     M5 M5 M5 M5 M5 M5 M5 M5 M5 M5 M5 M5 M5 M5 M5 M5 M5 M5 M5 M5 M5 M5 M5 M5 M5 M5 M5 M5 M5 M5 M5 M5 M5 M5 M5 M5 M5 M5 M5 M5 M5 M5 M5 M5 M5 M5 M5 M5 M5 M5 M5 M5 M5 M5 M5 M5 M5 M5 M5 M5 M5 M5 M5 M5 M5 M5 M5 M5 M5 M5 M5 M5 M5 M5 M5 M5 M5 M5 M5 M5 M5 M5 5 5 5 5L 5L 5L 5L 5L 5L 5L 5L 5L 5L 5L 5L 5L 5L 5L 5L 5L 5L 5L 5L 5L 5L 5L 5L 5L 5L 5L 5L 5L 5L 5L 5L 5L 5L 5L 5L 5L 5L 5L 5L 5L 5L 5L 5L 5L 5L 5L 5L 5L 5L 5L 5L 5L 5L 5L 5L 5L 5L 5L 5L 5L 5L 5L 5L 5L 5L 5L 5L 5L 5L 5L 5L 5L 5L 5L 5L 5L L L L L L     J7 J7 J7 J7 J7 J7 J7 J7 J7 J7 J7 J7 J7 J7 J7 J7 J7 J7 J7 J7 J7 J7 J7 J7 J7 J7 J7 J7 J7 J7 J7 J7 J7 J7 J7 J7 J7 J7 J7 J7 J7 J7 J7 J7 J7 J7 J7 J7 J7 J7 J7 J7 J7 J7 J7 J7 J7 J7 J7 J7 J7 J7 J7 J7 J7 J7 J7 J7 J7 J7 J7 J7 J7 J7 J7 J7 J7 J7 J7 J7 J7 J7 7 7 7 7 7L 7L 7L 7L 7L 7L 7L 7L 7L 7L 7L 7L 7L 7L 7L 7L 7L 7L 7L 7L 7L 7L 7L 7L 7L 7L 7L 7L 7L 7L 7L 7L 7L 7L 7L 7L 7L 7L 7L 7L 7L 7L 7L 7L 7L 7L 7L 7L 7L 7L 7L 7L 7L 7L 7L 7L 7L 7L 7L 7L 7L 7L 7L 7L 7L 7L 7L L L L L L L L L L L L L L L L     M9 M9 M9 M9 M9 M9 M9 M9 M9 M9 M9 M9 M9 M9 M9 M9 M9 M9 M9 M9 M9 M9 M9 M9 M9 M9 M9 M9 M9 M9 M9 M9 M9 M9 M9 M9 M9 M9 M9 M9 M9 M9 M9 M9 M9 M9 M9 M9 M9 M9 M9 M9 M9 M9 M9 M9 M9 M9 M9 M9 M9 M9 M9 M9 M9 M9 M9 M9 M9 M9 M9 M9 M9 M9 M9 M9 M9 M9 M9 M9 M9 M9 M9 M9 M9 M9 M9 M9 M9 M9 M9 M9 M9 M9 M9 M9 M9 M9 M9 M9 M9 M9 M9 M9 M9 M9 M9 M9 M9 M9 M9 M9 M9 M9 M9 M9 M9 M9 M9 M9 M9 M9 M9 M9 M9 M9 M9 M9 M9 M9 M9 M9 M9 M9 M9 M9 M9 M9 M9 M9 M9 M9 M9 M9 M9 M9 M9 M9 M9 M9 M9 M9 M9 M9 M9 M9 M9 M9 M9 M9 M9 M9 M9 M9 M9 M9 M9 M9 9 9 9 9 H9 H9 H9 H9 H9 H9 H9 H9 H9 H9 H9 H9 H9 H9 H9 H9 H9 H9 H9 H9 H9 H9 H9 H9 H9 H9 H9 H9 H9 H9 H9 H9 H9 H9 H9 H9 H9 H9 H9 H9 H9 H9 H9 H9 H9 H9 H9 H9 H9 H9 H9 H9 H9 H9 H9 H9 H9 H9 H9 H9 H9 H9 H9 H9 H9 H9 H9 H9 H9 H9 H9 H9 H9 H9 H9 H9 H9 H9 H9 H9 H9 H9 H9 H9 H9 H9 H9 H9 H9 H9 H9 H9 H9 H9 H9 H9 H9 H9 H9 H9 H9 H9 H9 H9 H9 H9 H9 H9 H9 H9 H9 H9 H9 H9 H9 H9 H9 H9 H9 H9 H9 H9 H9 H9 H9 H9 H9 H9 H9 H9 H9 H9 H9 H9 H9 H9 H9 H9 H9 H9 H9 H9 H9 H9 H9 H9 H9 H9 H9 H9 H9 H9 H9 H9 H9 H9 H9 H9 H9 H9 9 9 9 9 9 9     J5 J5 J5 J5 J5 J5 J5 J5 J5 J5 J5 J5 J5 J5 J5 J5 J5 J5 J5 J5 J5 J5 J5 J5 J5 J5 J5 J5 J5 J5 J5 J5 J5 J5 J5 J5 J5 J5 J5 J5 J5 J5 J5 J5 J5 J5 J5 J5 J5 J5 J5 J5 J5 J5 J5 J5 J5 J5 J5 J5 J5 J5 J5 J5 J5 J5 J5 J5 J5 J5 J5 J5 J5 J5 J5 J5 J5 J5 J5 J5 J5 J5 J5 J5 J5 J5 J5 J5 J5 J5 J5 J5 J5 J5 J5 J5 J5 J5 J5 J5 J5 J5 J5 J5 J5 J5 J5 J5 J5 J5 J5 J5 J5 J5 J5 J5 J5 J5 J5 J5 J5 J5 J5 J5 J5 J5 J5 J5 J5 J5 J5 J5 J5 J5 J5 J5 J5 J5 J5 J5 J5 J5 J5 J5 J5 J5 J5 J5 J5 J5 J5 J5 J5                    K7 K7 K7 K7 K7 K7 K7 K7 K7 K7 K7 K7 K7 K7 K7 K7 K7 K7 K7 K7 K7 K7 K7 K7 K7 K7 K7 K7 K7 K7 K7 K7 K7 K7 K7 K7 K7 K7 K7 K7 K7 K7 K7 K7 K7 K7 K7 K7 K7 K7 K7 K7 K7 K7 K7 K7 K7 K7 K7 K7 K7 K7 K7 K7 K7 K7 K7 K7 K7 K7 K7 K7 K7 K7 K7 K7 K7 K7 K7 K7 K7 K7 K7 K7 K7 K7 K7 K7 K7 K7 K7 K7 K7 K7 K7 K7 K7 K7 K7 K7 K7 K7 K7 K7 K7 K7 K7 K7 K7 K7 K7 K7 K7 K7 K7 K7 K7 K7 K7 K7 K7 K7 K7 K7 K7 K7 K7 K7 K7 K7 K7 K7 K7 K7 K7 K7 K7 K7 K7 K7 K7 K7 K7 K7 K7 K7 K7 K7 K7 K7 K7 K7 K7 K7 K7 K7 K7 K7 K7 K7 K7 K7 K7 K7 K7 K7 K7 K7 7 7 7 F7 F7 F7 F7 F7 F7 F7 F7 F7 F7 F7 F7 F7 F7 F7 F7 F7 F7 F7 F7 F7 F7 F7 F7 F7 F7 F7 F7 F7 F7 F7 F7 F7 F7 F7 F7 F7 F7 F7 F7 F7 F7 F7 F7 F7 F7 F7 F7 F7 F7 F7 F7 F7 F7 F7 F7 F7 F7 F7 F7 F7 F7 F7 F7 F7 F7 F7 F7 F7 F7 F7 F7 F7 F7 F7 F7 F7 F7 F7 F7 F7 F7 F7 F7 F7 F7 F7 F7 F7 F7 F7 F7 F7 F7 F7 F7 F7 F7 F7 F7 F7 F7 F7 F7 F7 F7 F7 F7 F7 F7 F7 F7 F7 F7 F7 F7 F7 F7 F7 F7 F7 F7 F7 F7 F7 F7 F7 F7 F7 F7 F7 F7 F7 F7 F7 F7 F7 F7 F7 F7 F7 F7 F7 F7 F7 F7 F7 F7 F7 F7 F7 F7 F7 F7 F7 F7 F7 F7 F7 F7 7 7 7 7 7 7 7    H9 H9 H9 H9 H9 H9 H9 H9 H9 H9 H9 H9 H9 H9 H9 H9 H9 H9 H9 H9 H9 H9 H9 H9 H9 H9 H9 H9 H9 H9 H9 H9 H9 H9 H9 H9 H9 H9 H9 H9 H9 H9 H9 H9 H9 H9 H9 H9 H9 H9 H9 H9 H9 H9 H9 H9 H9 H9 H9 H9 H9 H9 H9 H9 H9 H9 H9 H9 H9 H9 H9 H9 H9 H9 H9 H9 H9 H9 H9 H9 H9 H9 H9 H9 H9 H9 H9 H9 H9 H9 H9 H9 H9 H9 H9 H9 H9 H9 H9 H9 H9 H9 H9 H9 H9 H9 H9 H9 H9 H9 H9 H9 H9 H9 H9 H9 H9 H9 H9 H9 H9 H9 H9 H9 H9 H9 H9 H9 H9 H9 H9 H9 H9 H9 H9 H9 H9 H9 H9 H9 H9 H9 H9 H9 H9 H9 H9 H9 H9 H9 H9 H9 H9                    J: J: J: J: J: J: J: J: J: J: J: J: J: J: J: J: J: J: J: J: J: J: J: J: J: J: J: J: J: J: J: J: J: J: J: J: J: J: J: J: J: J: J: J: J: J: J: J: J: J: J: J: J: J: J: J: J: J: J: J: J: J: J: J: J: J: J: J: J: J: J: J: J: J: J: J: J: J: J: J: J: J: J: J: J: J: J: J: J: J: J: J: J: J: J: J: J: J: J: J: J: J: J: J: J: J: J: J: J: J: J: J: J: J: J: J: J: J: J: J: J: J: J: J: J: J: J: J: J: J: J: J: J: J: J: J: J: J: J: J: J: J: J: J: J: J: J: J: J: J: J: J: J: J: J: J: J: J: J: J: J: J: J: J: J: J: J: J:     E6 E6 E6 E6 E6 E6 E6 E6 E6 E6 E6 E6 E6 E6 E6 E6 E6 E6 E6 E6 E6 E6 E6 E6 E6 E6 E6 E6 E6 E6 E6 E6 E6 E6 E6 E6 E6 E6 E6 E6 E6 E6 E6 E6 E6 E6 E6 E6 E6 E6 E6 E6 E6 E6 E6 E6 E6 E6 E6 E6 E6 E6 E6 E6 E6 E6 E6 E6 E6 E6 E6 E6 E6 E6 E6 E6 E6 E6 E6 E6 E6 E6 E6 E6 E6 E6 E6 E6 E6 E6 E6 E6 E6 E6 E6 E6 E6 E6 E6 E6 E6 E6 E6 E6 E6 E6 E6 E6 E6 E6 E6 E6 E6 E6 E6 E6 E6 E6 E6 E6 E6 E6 E6 E6 E6 E6 E6 E6 E6 E6 E6 E6 E6 E6 E6 E6 E6 E6 E6 E6 E6 E6 E6 E6 E6 E6 E6 E6 E6 E6 E6 E6 E6 E6 E6 E6 E6 E6 E6 E6           F7 F7 F7 F7 F7 F7 F7 F7 F7 F7 F7 F7 F7 F7 F7 F7 F7 F7 F7 F7 F7 F7 F7 F7 F7 F7 F7 F7 F7 F7 F7 F7 F7 F7 F7 F7 F7 F7 F7 F7 F7 F7 F7 F7 F7 F7 F7 F7 F7 F7 F7 F7 F7 F7 F7 F7 F7 F7 F7 F7 F7 F7 F7 F7 F7 F7 F7 F7 F7 F7 F7 F7 F7 F7 F7 F7 F7 F7 F7 F7 F7 F7 F7 F7 F7 F7 F7 F7 F7 F7 F7 F7 F7 F7 F7 F7 F7 F7 F7 F7 F7 F7 F7 F7 F7 F7 F7 F7 F7 F7 F7 F7 F7 F7 F7 F7 F7 F7 F7 F7 F7 F7 F7 F7 F7 F7 F7 F7 F7 F7 F7 F7 F7 F7 F7 F7 F7 F7 F7 F7 F7 F7 F7 F7 F7 F7 F7 F7 F7 F7 F7 F7 F7                    H9 H9 H9 H9 H9 H9 H9 H9 H9 H9 H9 H9 H9 H9 H9 H9 H9 H9 H9 H9 H9 H9 H9 H9 H9 H9 H9 H9 H9 H9 H9 H9 H9 H9 H9 H9 H9 H9 H9 H9 H9 H9 H9 H9 H9 H9 H9 H9 H9 H9 H9 H9 H9 H9 H9 H9 H9 H9 H9 H9 H9 H9 H9 H9 H9 H9 H9 H9 H9 H9 H9 H9 H9 H9 H9 H9 H9 H9 H9 H9 H9 H9 H9 H9 H9 H9 H9 H9 H9 H9 H9 H9 H9 H9 H9 H9 H9 H9 H9 H9 H9 H9 H9 H9 H9 H9 H9 H9 H9 H9 H9 H9 H9 H9 H9 H9 H9 H9 H9 H9 H9 H9 H9 H9 H9 H9 H9 H9 H9 H9 H9 H9 H9 H9 H9 H9 H9 H9 H9 H9 H9 H9 H9 H9 H9 H9 H9 H9 H9 H9 H9 H9 H9 H9 H9 H9 H9 H9 H9 H9 H9 H9 H9 H9 H9 H9 H9 H9    C4 C4 C4 C4 C4 C4 C4 C4 C4 C4 C4 C4 C4 C4 C4 C4 C4 C4 C4 C4 C4 C4 C4 C4 C4 C4 C4 C4 C4 C4 C4 C4 C4 C4 C4 C4 C4 C4 C4 C4 C4 C4 C4 C4 C4 C4 C4 C4 C4 C4 C4 C4 C4 C4 C4 C4 C4 C4 C4 C4 C4 C4 C4 C4 C4 C4 C4 C4 C4 C4 C4 C4 C4 C4 C4 C4 C4 C4 C4 C4 C4 C4 C4 C4 C4 C4 C4 C4 C4 C4 C4 C4 C4 C4 C4 C4 C4 C4 C4 C4 C4 C4 C4 C4 C4 C4 C4 C4 C4 C4 C4 C4 C4 C4 C4 C4 C4 C4 C4 C4 C4 C4 C4 C4 C4 C4 C4 C4 C4 C4 C4 C4 C4 C4 C4 C4 C4 C4 C4 C4 C4 C4 C4 C4 C4 C4 C4 C4 C4 C4 C4 C4 C4 C4 C4 C4 C4 C4 C4 C4           E6 E6 E6 E6 E6 E6 E6 E6 E6 E6 E6 E6 E6 E6 E6 E6 E6 E6 E6 E6 E6 E6 E6 E6 E6 E6 E6 E6 E6 E6 E6 E6 E6 E6 E6 E6 E6 E6 E6 E6 E6 E6 E6 E6 E6 E6 E6 E6 E6 E6 E6 E6 E6 E6 E6 E6 E6 E6 E6 E6 E6 E6 E6 E6 E6 E6 E6 E6 E6 E6 E6 E6 E6 E6 E6 E6 E6 E6 E6 E6 E6 E6 E6 E6 E6 E6 E6 E6 E6 E6 E6 E6 E6 E6 E6 E6 E6 E6 E6 E6 E6 E6 E6 E6 E6 E6 E6 E6 E6 E6 E6 E6 E6 E6 E6 E6 E6 E6 E6 E6 E6 E6 E6 E6 E6 E6 E6 E6 E6 E6 E6 E6 E6 E6 E6 E6 E6 E6 E6 E6 E6 E6 E6 E6 E6 E6 E6 E6 E6 E6 E6 E6 E6                    7F 7F 7F 7F 7F 7F 7F 7F 7F 7F 7F 7F 7F 7F 7F 7F 7F 7F 7F 7F 7F 7F 7F 7F 7F 7F 7F 7F 7F 7F 7F 7F 7F 7F 7F 7F 7F 7F 7F 7F 7F 7F 7F 7F 7F 7F 7F 7F 7F 7F 7F 7F 7F 7F 7F 7F 7F 7F 7F 7F 7F 7F 7F 7F 7F 7F 7F 7F 7F 7F 7F 7F 7F 7F 7F 7F 7F 7F 7F 7F 7F 7F 7F 7F 7F 7F 7F 7F 7F 7F 7F 7F 7F 7F 7F 7F 7F 7F 7F 7F 7F 7F 7F 7F 7F 7F 7F 7F 7F 7F 7F 7F 7F 7F 7F 7F 7F 7F 7F 7F 7F 7F 7F 7F 7F 7F 7F 7F 7F 7F 7F 7F 7F 7F 7F 7F 7F 7F 7F 7F 7F 7F 7F 7F 7F 7F 7F 7F 7F 7F 7F 7F 7F 7F 7F 7F 7F 7F 7F 7F 7F 7F 7F 7F 7F 7F 7F 7F F F F F 2F 2F 2F 2F 2F 2F 2F 2F 2F 2F 2F 2F 2F 2F 2F 2F 2F 2F 2F 2F 2F 2F 2F 2F 2F 2F 2F 2F 2F 2F 2F 2F 2F 2F 2F 2F 2F 2F 2F 2F 2F 2F 2F 2F 2F 2F 2F 2F 2F 2F 2F 2F 2F 2F 2F 2F 2F 2F 2F 2F 2F 2F 2F 2F 2F 2F 2F 2F 2F 2F 2F 2F 2F 2F 2F 2F 2F 2F 2F 2F 2F 2F 2F 2F 2F 2F 2F 2F 2F 2F 2F 2F 2F 2F 2F 2F 2F 2F 2F 2F 2F 2F 2F 2F 2F 2F 2F 2F 2F 2F 2F 2F 2F 2F 2F 2F 2F 2F 2F 2F 2F 2F 2F 2F 2F 2F 2F 2F 2F 2F 2F 2F 2F 2F 2F 2F 2F 2F 2F 2F 2F 2F 2F 2F 2F 2F 2F 2F 2F 2F 2F 2F 2F 2F 2F 2F 2F 2F 2F 2F F F F F F F     O3 O3 O3 O3 O3 O3 O3 O3 O3 O3 O3 O3 O3 O3 O3 O3 O3 O3 O3 O3 O3 O3 O3 O3 O3 O3 O3 O3 O3 O3 O3 O3 O3 O3 O3 O3 O3 O3 O3 O3 O3 O3 O3 O3 O3 O3 O3 O3 O3 O3 O3 O3 O3 O3 O3 O3 O3 O3 O3 O3 O3 O3 O3 O3 O3 O3 O3 O3 O3 O3 O3 O3 O3 O3 O3 O3 O3 O3 O3 O3 O3 O3 O3 O3 O3 O3 O3 O3 O3 O3 O3 O3 O3 O3 O3 O3 O3 O3 O3 O3 O3 O3 O3 O3 O3 O3 O3 O3 O3 O3 O3 O3 O3 O3 O3 O3 O3 O3 O3 O3 O3 O3 O3 O3 O3 O3 O3 O3 O3 O3 O3 O3 O3 O3 O3 O3 O3 O3 O3 O3 O3 O3 O3 O3 O3 O3 O3 O3 O3 O3 O3 O3 O3                    5D 5D 5D 5D 5D 5D 5D 5D 5D 5D 5D 5D 5D 5D 5D 5D 5D 5D 5D 5D 5D 5D 5D 5D 5D 5D 5D 5D 5D 5D 5D 5D 5D 5D 5D 5D 5D 5D 5D 5D 5D 5D 5D 5D 5D 5D 5D 5D 5D 5D 5D 5D 5D 5D 5D 5D 5D 5D 5D 5D 5D 5D 5D 5D 5D 5D 5D 5D 5D 5D 5D 5D 5D 5D 5D 5D 5D 5D 5D 5D 5D 5D 5D 5D 5D 5D 5D 5D 5D 5D 5D 5D 5D 5D 5D 5D 5D 5D 5D 5D 5D 5D 5D 5D 5D 5D 5D 5D 5D 5D 5D 5D 5D 5D 5D 5D 5D 5D 5D 5D 5D 5D 5D 5D 5D 5D 5D 5D 5D 5D 5D 5D 5D 5D 5D 5D 5D 5D 5D 5D 5D 5D 5D 5D 5D 5D 5D 5D 5D 5D 5D 5D 5D 5D 5D 5D 5D 5D 5D 5D 5D 5D 5D 5D 5D 5D 5D 5D D D D 0D 0D 0D 0D 0D 0D 0D 0D 0D 0D 0D 0D 0D 0D 0D 0D 0D 0D 0D 0D 0D 0D 0D 0D 0D 0D 0D 0D 0D 0D 0D 0D 0D 0D 0D 0D 0D 0D 0D 0D 0D 0D 0D 0D 0D 0D 0D 0D 0D 0D 0D 0D 0D 0D 0D 0D 0D 0D 0D 0D 0D 0D 0D 0D 0D 0D 0D 0D 0D 0D 0D 0D 0D 0D 0D 0D 0D 0D 0D 0D 0D 0D 0D 0D 0D 0D 0D 0D 0D 0D 0D 0D 0D 0D 0D 0D 0D 0D 0D 0D 0D 0D 0D 0D 0D 0D 0D 0D 0D 0D 0D 0D 0D 0D 0D 0D 0D 0D 0D 0D 0D 0D 0D 0D 0D 0D 0D 0D 0D 0D 0D 0D 0D 0D 0D 0D 0D 0D 0D 0D 0D 0D 0D 0D 0D 0D 0D 0D 0D 0D 0D 0D 0D 0D 0D 0D 0D 0D 0D 0D D D D D D D D     M2 M2 M2 M2 M2 M2 M2 M2 M2 M2 M2 M2 M2 M2 M2 M2 M2 M2 M2 M2 M2 M2 M2 M2 M2 M2 M2 M2 M2 M2 M2 M2 M2 M2 M2 M2 M2 M2 M2 M2 M2 M2 M2 M2 M2 M2 M2 M2 M2 M2 M2 M2 M2 M2 M2 M2 M2 M2 M2 M2 M2 M2 M2 M2 M2 M2 M2 M2 M2 M2 M2 M2 M2 M2 M2 M2 M2 M2 M2 M2 M2 M2 M2 M2 M2 M2 M2 M2 M2 M2 M2 M2 M2 M2 M2 M2 M2 M2 M2 M2 M2 M2 M2 M2 M2 M2 M2 M2 M2 M2 M2 M2 M2 M2 M2 M2 M2 M2 M2 M2 M2 M2 M2 M2 M2 M2 M2 M2 M2 M2 M2 M2 M2 M2 M2 M2 M2 M2 M2 M2 M2 M2 M2 M2 M2 M2 M2 M2 M2 M2 M2 M2 M2                   3C 3C 3C 3C 3C 3C 3C 3C 3C 3C 3C 3C 3C 3C 3C 3C 3C 3C 3C 3C 3C 3C 3C 3C 3C 3C 3C 3C 3C 3C 3C 3C 3C 3C 3C 3C 3C 3C 3C 3C 3C 3C 3C 3C 3C 3C 3C 3C 3C 3C 3C 3C 3C 3C 3C 3C 3C 3C 3C 3C 3C 3C 3C 3C 3C 3C 3C 3C 3C 3C 3C 3C 3C 3C 3C 3C 3C 3C 3C 3C 3C 3C 3C 3C 3C 3C 3C 3C 3C 3C 3C 3C 3C 3C 3C 3C 3C 3C 3C 3C 3C 3C 3C 3C 3C 3C 3C 3C 3C 3C 3C 3C 3C 3C 3C 3C 3C 3C 3C 3C 3C 3C 3C 3C 3C 3C 3C 3C 3C 3C 3C 3C 3C 3C 3C 3C 3C 3C 3C 3C 3C 3C 3C 3C 3C 3C 3C 3C 3C 3C 3C 3C 3C 3C 3C 3C 3C 3C 3C 3C 3C 3C 3C 3C 3C 3C 3C 3C C C C C /C /C /C /C /C /C /C /C /C /C /C /C /C /C /C /C /C /C /C /C /C /C /C /C /C /C /C /C /C /C /C /C /C /C /C /C /C /C /C /C /C /C /C /C /C /C /C /C /C /C /C /C /C /C /C /C /C /C /C /C /C /C /C /C /C /C /C /C /C /C /C /C /C /C /C /C /C /C /C /C /C /C /C /C /C /C /C /C /C /C /C /C /C /C /C /C /C /C /C /C /C /C /C /C /C /C /C /C /C /C /C /C /C /C /C /C /C /C /C /C /C /C /C /C /C /C /C /C /C /C /C /C /C /C /C /C /C /C /C /C /C /C /C /C /C /C /C /C /C /C /C /C /C /C /C /C /C /C /C /C C C C C C C     K0 K0 K0 K0 K0 K0 K0 K0 K0 K0 K0 K0 K0 K0 K0 K0 K0 K0 K0 K0 K0 K0 K0 K0 K0 K0 K0 K0 K0 K0 K0 K0 K0 K0 K0 K0 K0 K0 K0 K0 K0 K0 K0 K0 K0 K0 K0 K0 K0 K0 K0 K0 K0 K0 K0 K0 K0 K0 K0 K0 K0 K0 K0 K0 K0 K0 K0 K0 K0 K0 K0 K0 K0 K0 K0 K0 K0 K0 K0 K0 K0 K0 K0 K0 K0 K0 K0 K0 K0 K0 K0 K0 K0 K0 K0 K0 K0 K0 K0 K0 K0 K0 K0 K0 K0 K0 K0 K0 K0 K0 K0 K0 K0 K0 K0 K0 K0 K0 K0 K0 K0 K0 K0 K0 K0 K0 K0 K0 K0 K0 K0 K0 K0 K0 K0 K0 K0 K0 K0 K0 K0 K0 K0 K0 K0 K0 K0 K0 K0 K0 K0 K0 K0                    2A 2A 2A 2A 2A 2A 2A 2A 2A 2A 2A 2A 2A 2A 2A 2A 2A 2A 2A 2A 2A 2A 2A 2A 2A 2A 2A 2A 2A 2A 2A 2A 2A 2A 2A 2A 2A 2A 2A 2A 2A 2A 2A 2A 2A 2A 2A 2A 2A 2A 2A 2A 2A 2A 2A 2A 2A 2A 2A 2A 2A 2A 2A 2A 2A 2A 2A 2A 2A 2A 2A 2A 2A 2A 2A 2A 2A 2A 2A 2A 2A 2A 2A 2A 2A 2A 2A 2A 2A 2A 2A 2A 2A 2A 2A 2A 2A 2A 2A 2A 2A 2A 2A 2A 2A 2A 2A 2A 2A 2A 2A 2A 2A 2A 2A 2A 2A 2A 2A 2A 2A 2A 2A 2A 2A 2A 2A 2A 2A 2A 2A 2A 2A 2A 2A 2A 2A 2A 2A 2A 2A 2A 2A 2A 2A 2A 2A 2A 2A 2A 2A 2A 2A 2A 2A 2A 2A 2A 2A 2A 2A 2A 2A 2A 2A 2A 2A 2A A A A -A -A -A -A -A -A -A -A -A -A -A -A -A -A -A -A -A -A -A -A -A -A -A -A -A -A -A -A -A -A -A -A -A -A -A -A -A -A -A -A -A -A -A -A -A -A -A -A -A -A -A -A -A -A -A -A -A -A -A -A -A -A -A -A -A -A -A -A -A -A -A -A -A -A -A -A -A -A -A -A -A -A -A -A -A -A -A -A -A -A -A -A -A -A -A -A -A -A -A -A -A -A -A -A -A -A -A -A -A -A -A -A -A -A -A -A -A -A -A -A -A -A -A -A -A -A -A -A -A -A -A -A -A -A -A -A -A -A -A -A -A -A -A -A -A -A -A -A -A -A -A -A -A -A -A -A -A -A -A -A A A A A A A A     J/ J/ J/ J/ J/ J/ J/ J/ J/ J/ J/ J/ J/ J/ J/ J/ J/ J/ J/ J/ J/ J/ J/ J/ J/ J/ J/ J/ J/ J/ J/ J/ J/ J/ J/ J/ J/ J/ J/ J/ J/ J/ J/ J/ J/ J/ J/ J/ J/ J/ J/ J/ J/ J/ J/ J/ J/ J/ J/ J/ J/ J/ J/ J/ J/ J/ J/ J/ J/ J/ J/ J/ J/ J/ J/ J/ J/ J/ J/ J/ J/ J/ J/ J/ J/ J/ J/ J/ J/ J/ J/ J/ J/ J/ J/ J/ J/ J/ J/ J/ J/ J/ J/ J/ J/ J/ J/ J/ J/ J/ J/ J/ J/ J/ J/ J/ J/ J/ J/ J/ J/ J/ J/ J/ J/ J/ J/ J/ J/ J/ J/ J/ J/ J/ J/ J/ J/ J/ J/ J/ J/ J/ J/ J/ J/ J/ J/ J/ J/ J/ J/ J/ J/                   ?0 ?0 ?0 ?0 ?0 ?0 ?0 ?0 ?0 ?0 ?0 ?0 ?0 ?0 ?0 ?0 ?0 ?0 ?0 ?0 ?0 ?0 ?0 ?0 ?0 ?0 ?0 ?0 ?0 ?0 ?0 ?0 ?0 ?0 ?0 ?0 ?0 ?0 ?0 ?0 ?0 ?0 ?0 ?0 ?0 ?0 ?0 ?0 ?0 ?0 ?0 ?0 ?0 ?0 ?0 ?0 ?0 ?0 ?0 ?0 ?0 ?0 ?0 ?0 ?0 ?0 ?0 ?0 ?0 ?0 ?0 ?0 ?0 ?0 ?0 ?0 ?0 ?0 ?0 ?0 ?0 ?0 ?0 ?0 ?0 ?0 ?0 ?0 ?0 ?0 ?0 ?0 ?0 ?0 ?0 ?0 ?0 ?0 ?0 ?0 ?0 ?0 ?0 ?0 ?0 ?0 ?0 ?0 ?0 ?0 ?0 ?0 ?0 ?0 ?0 ?0 ?0 ?0 ?0 ?0 ?0 ?0 ?0 ?0 ?0 ?0 ?0 ?0 ?0 ?0 ?0 ?0 ?0 ?0 ?0 ?0 ?0 ?0 ?0 ?0 ?0 ?0 ?0 ?0 ?0 ?0 ?0 ?0 ?0 ?0 ?0 ?0 ?0 ?0 ?0 ?0 ?0 ?0 ?0 ?0 ?0 ?0 ?0 ?0 ?0 ?0 ?0 ?0     A2 A2 A2 A2 A2 A2 A2 A2 A2 A2 A2 A2 A2 A2 A2 A2 A2 A2 A2 A2 A2 A2 A2 A2 A2 A2 A2 A2 A2 A2 A2 A2 A2 A2 A2 A2 A2 A2 A2 A2 A2 A2 A2 A2 A2 A2 A2 A2 A2 A2 A2 A2 A2 A2 A2 A2 A2 A2 A2 A2 A2 A2 A2 A2 A2 A2 A2 A2 A2 A2 A2 A2 A2 A2 A2 A2 A2 A2 A2 A2 A2 A2 A2 A2 A2 A2 A2 A2 A2 A2 A2 A2 A2 A2 A2 A2 A2 A2 A2 A2 A2 A2 A2 A2 A2 A2 A2 A2 A2 A2 A2 A2 A2 A2 A2 A2 A2 A2 A2 A2 A2 A2 A2 A2 A2 A2 A2 A2 A2 A2 A2 A2 A2 A2 A2 A2 A2 A2 A2 A2 A2 A2 A2 A2 A2 A2 A2 A2 A2 A2 A2 A2 A2 A2 A2 A2 A2 A2 A2 A2           C3 C3 C3 C3 C3 C3 C3 C3 C3 C3 C3 C3 C3 C3 C3 C3 C3 C3 C3 C3 C3 C3 C3 C3 C3 C3 C3 C3 C3 C3 C3 C3 C3 C3 C3 C3 C3 C3 C3 C3 C3 C3 C3 C3 C3 C3 C3 C3 C3 C3 C3 C3 C3 C3 C3 C3 C3 C3 C3 C3 C3 C3 C3 C3 C3 C3 C3 C3 C3 C3 C3 C3 C3 C3 C3 C3 C3 C3 C3 C3 C3 C3 C3 C3 C3 C3 C3 C3 C3 C3 C3 C3 C3 C3 C3 C3 C3 C3 C3 C3 C3 C3 C3 C3 C3 C3 C3 C3 C3 C3 C3 C3 C3 C3 C3 C3 C3 C3 C3 C3 C3 C3 C3 C3 C3 C3 C3 C3 C3 C3 C3 C3 C3 C3 C3 C3 C3 C3 C3 C3 C3 C3 C3 C3 C3 C3 C3 C3 C3 C3 C3 C3 C3                    >5 >5 >5 >5 >5 >5 >5 >5 >5 >5 >5 >5 >5 >5 >5 >5 >5 >5 >5 >5 >5 >5 >5 >5 >5 >5 >5 >5 >5 >5 >5 >5 >5 >5 >5 >5 >5 >5 >5 >5 >5 >5 >5 >5 >5 >5 >5 >5 >5 >5 >5 >5 >5 >5 >5 >5 >5 >5 >5 >5 >5 >5 >5 >5 >5 >5 >5 >5 >5 >5 >5 >5 >5 >5 >5 >5 >5 >5 >5 >5 >5 >5 >5 >5 >5 >5 >5 >5 >5 >5 >5 >5 >5 >5 >5 >5 >5 >5 >5 >5 >5 >5 >5 >5 >5 >5 >5 >5 >5 >5 >5 >5 >5 >5 >5 >5 >5 >5 >5 >5 >5 >5 >5 >5 >5 >5 >5 >5 >5 >5 >5 >5 >5 >5 >5 >5 >5 >5 >5 >5 >5 >5 >5 >5 >5 >5 >5 >5 >5 >5 >5 >5 >5 >5 >5 >5 >5 >5 >5 >5 >5 >5 >5 >5 >5 >5 >5 >5     ?7 ?7 ?7 ?7 ?7 ?7 ?7 ?7 ?7 ?7 ?7 ?7 ?7 ?7 ?7 ?7 ?7 ?7 ?7 ?7 ?7 ?7 ?7 ?7 ?7 ?7 ?7 ?7 ?7 ?7 ?7 ?7 ?7 ?7 ?7 ?7 ?7 ?7 ?7 ?7 ?7 ?7 ?7 ?7 ?7 ?7 ?7 ?7 ?7 ?7 ?7 ?7 ?7 ?7 ?7 ?7 ?7 ?7 ?7 ?7 ?7 ?7 ?7 ?7 ?7 ?7 ?7 ?7 ?7 ?7 ?7 ?7 ?7 ?7 ?7 ?7 ?7 ?7 ?7 ?7 ?7 ?7 ?7 ?7 ?7 ?7 ?7 ?7 ?7 ?7 ?7 ?7 ?7 ?7 ?7 ?7 ?7 ?7 ?7 ?7 ?7 ?7 ?7 ?7 ?7 ?7 ?7 ?7 ?7 ?7 ?7 ?7 ?7 ?7 ?7 ?7 ?7 ?7 ?7 ?7 ?7 ?7 ?7 ?7 ?7 ?7 ?7 ?7 ?7 ?7 ?7 ?7 ?7 ?7 ?7 ?7 ?7 ?7 ?7 ?7 ?7 ?7 ?7 ?7 ?7 ?7 ?7 ?7 ?7 ?7 ?7 ?7 ?7 ?7 ?7 ?7 ?7 ?7 ?7 ?7           <8 <8 <8 <8 <8 <8 <8 <8 <8 <8 <8 <8 <8 <8 <8 <8 <8 <8 <8 <8 <8 <8 <8 <8 <8 <8 <8 <8 <8 <8 <8 <8 <8 <8 <8 <8 <8 <8 <8 <8 <8 <8 <8 <8 <8 <8 <8 <8 <8 <8 <8 <8 <8 <8 <8 <8 <8 <8 <8 <8 <8 <8 <8 <8 <8 <8 <8 <8 <8 <8 <8 <8 <8 <8 <8 <8 <8 <8 <8 <8 <8 <8 <8 <8 <8 <8 <8 <8 <8 <8 <8 <8 <8 <8 <8 <8 <8 <8 <8 <8 <8 <8 <8 <8 <8 <8 <8 <8 <8 <8 <8 <8 <8 <8 <8 <8 <8 <8 <8 <8 <8 <8 <8 <8 <8 <8 <8 <8 <8 <8 <8 <8 <8 <8 <8 <8 <8 <8 <8 <8 <8 <8 <8 <8 <8 <8 <8 <8 <8 <8 <8 <8 <8                   ;7 ;7 ;7 ;7 ;7 ;7 ;7 ;7 ;7 ;7 ;7 ;7 ;7 ;7 ;7 ;7 ;7 ;7 ;7 ;7 ;7 ;7 ;7 ;7 ;7 ;7 ;7 ;7 ;7 ;7 ;7 ;7 ;7 ;7 ;7 ;7 ;7 ;7 ;7 ;7 ;7 ;7 ;7 ;7 ;7 ;7 ;7 ;7 ;7 ;7 ;7 ;7 ;7 ;7 ;7 ;7 ;7 ;7 ;7 ;7 ;7 ;7 ;7 ;7 ;7 ;7 ;7 ;7 ;7 ;7 ;7 ;7 ;7 ;7 ;7 ;7 ;7 ;7 ;7 ;7 ;7 ;7 ;7 ;7 ;7 ;7 ;7 ;7 ;7 ;7 ;7 ;7 ;7 ;7 ;7 ;7 ;7 ;7 ;7 ;7 ;7 ;7 ;7 ;7 ;7 ;7 ;7 ;7 ;7 ;7 ;7 ;7 ;7 ;7 ;7 ;7 ;7 ;7 ;7 ;7 ;7 ;7 ;7 ;7 ;7 ;7 ;7 ;7 ;7 ;7 ;7 ;7 ;7 ;7 ;7 ;7 ;7 ;7 ;7 ;7 ;7 ;7 ;7 ;7 ;7 ;7 ;7 ;7 ;7 ;7 ;7 ;7 ;7 ;7 ;7 ;7 ;7 ;7 ;7 ;7 ;7 ;7 ;7 ;7 ;7 ;7 ;7 ;7     <9 <9 <9 <9 <9 <9 <9 <9 <9 <9 <9 <9 <9 <9 <9 <9 <9 <9 <9 <9 <9 <9 <9 <9 <9 <9 <9 <9 <9 <9 <9 <9 <9 <9 <9 <9 <9 <9 <9 <9 <9 <9 <9 <9 <9 <9 <9 <9 <9 <9 <9 <9 <9 <9 <9 <9 <9 <9 <9 <9 <9 <9 <9 <9 <9 <9 <9 <9 <9 <9 <9 <9 <9 <9 <9 <9 <9 <9 <9 <9 <9 <9 <9 <9 <9 <9 <9 <9 <9 <9 <9 <9 <9 <9 <9 <9 <9 <9 <9 <9 <9 <9 <9 <9 <9 <9 <9 <9 <9 <9 <9 <9 <9 <9 <9 <9 <9 <9 <9 <9 <9 <9 <9 <9 <9 <9 <9 <9 <9 <9 <9 <9 <9 <9 <9 <9 <9 <9 <9 <9 <9 <9 <9 <9 <9 <9 <9 <9 <9 <9 <9 <9 <9 <9 <9 <9 <9 <9 <9 <9           >; >; >; >; >; >; >; >; >; >; >; >; >; >; >; >; >; >; >; >; >; >; >; >; >; >; >; >; >; >; >; >; >; >; >; >; >; >; >; >; >; >; >; >; >; >; >; >; >; >; >; >; >; >; >; >; >; >; >; >; >; >; >; >; >; >; >; >; >; >; >; >; >; >; >; >; >; >; >; >; >; >; >; >; >; >; >; >; >; >; >; >; >; >; >; >; >; >; >; >; >; >; >; >; >; >; >; >; >; >; >; >; >; >; >; >; >; >; >; >; >; >; >; >; >; >; >; >; >; >; >; >; >; >; >; >; >; >; >; >; >; >; >; >; >; >; >; >; >; >; >; >; >;                    ?0 ?0 ?0 ?0 ?0 ?0 ?0 ?0 ?0 ?0 ?0 ?0 ?0 ?0 ?0 ?0 ?0 ?0 ?0 ?0 ?0 ?0 ?0 ?0 ?0 ?0 ?0 ?0 ?0 ?0 ?0 ?0 ?0 ?0 ?0 ?0 ?0 ?0 ?0 ?0 ?0 ?0 ?0 ?0 ?0 ?0 ?0 ?0 ?0 ?0 ?0 ?0 ?0 ?0 ?0 ?0 ?0 ?0 ?0 ?0 ?0 ?0 ?0 ?0 ?0 ?0 ?0 ?0 ?0 ?0 ?0 ?0 ?0 ?0 ?0 ?0 ?0 ?0 ?0 ?0 ?0 ?0 ?0 ?0 ?0 ?0 ?0 ?0 ?0 ?0 ?0 ?0 ?0 ?0 ?0 ?0 ?0 ?0 ?0 ?0 ?0 ?0 ?0 ?0 ?0 ?0 ?0 ?0 ?0 ?0 ?0 ?0 ?0 ?0 ?0 ?0 ?0 ?0 ?0 ?0 ?0 ?0 ?0 ?0 ?0 ?0 ?0 ?0 ?0 ?0 ?0 ?0 ?0 ?0 ?0 ?0 ?0 ?0 ?0 ?0 ?0 ?0 ?0 ?0 ?0 ?0 ?0 ?0 ?0 ?0 ?0 ?0 ?0 ?0 ?0 ?0 ?0 ?0 ?0 ?0 ?0 ?0 ?0 ?0 ?0 ?0 ?0 ?0     A2 A2 A2 A2 A2 A2 A2 A2 A2 A2 A2 A2 A2 A2 A2 A2 A2 A2 A2 A2 A2 A2 A2 A2 A2 A2 A2 A2 A2 A2 A2 A2 A2 A2 A2 A2 A2 A2 A2 A2 A2 A2 A2 A2 A2 A2 A2 A2 A2 A2 A2 A2 A2 A2 A2 A2 A2 A2 A2 A2 A2 A2 A2 A2 A2 A2 A2 A2 A2 A2 A2 A2 A2 A2 A2 A2 A2 A2 A2 A2 A2 A2 A2 A2 A2 A2 A2 A2 A2 A2 A2 A2 A2 A2 A2 A2 A2 A2 A2 A2 A2 A2 A2 A2 A2 A2 A2 A2 A2 A2 A2 A2 A2 A2 A2 A2 A2 A2 A2 A2 A2 A2 A2 A2 A2 A2 A2 A2 A2 A2 A2 A2 A2 A2 A2 A2 A2 A2 A2 A2 A2 A2 A2 A2 A2 A2 A2 A2 A2 A2 A2 A2 A2 A2 A2 A2 A2 A2 A2 A2           C3 C3 C3 C3 C3 C3 C3 C3 C3 C3 C3 C3 C3 C3 C3 C3 C3 C3 C3 C3 C3 C3 C3 C3 C3 C3 C3 C3 C3 C3 C3 C3 C3 C3 C3 C3 C3 C3 C3 C3 C3 C3 C3 C3 C3 C3 C3 C3 C3 C3 C3 C3 C3 C3 C3 C3 C3 C3 C3 C3 C3 C3 C3 C3 C3 C3 C3 C3 C3 C3 C3 C3 C3 C3 C3 C3 C3 C3 C3 C3 C3 C3 C3 C3 C3 C3 C3 C3 C3 C3 C3 C3 C3 C3 C3 C3 C3 C3 C3 C3 C3 C3 C3 C3 C3 C3 C3 C3 C3 C3 C3 C3 C3 C3 C3 C3 C3 C3 C3 C3 C3 C3 C3 C3 C3 C3 C3 C3 C3 C3 C3 C3 C3 C3 C3 C3 C3 C3 C3 C3 C3 C3 C3 C3 C3 C3 C3 C3 C3 C3 C3 C3 C3                   D5 D5 D5 D5 D5 D5 D5 D5 D5 D5 D5 D5 D5 D5 D5 D5 D5 D5 D5 D5 D5 D5 D5 D5 D5 D5 D5 D5 D5 D5 D5 D5 D5 D5 D5 D5 D5 D5 D5 D5 D5 D5 D5 D5 D5 D5 D5 D5 D5 D5 D5 D5 D5 D5 D5 D5 D5 D5 D5 D5 D5 D5 D5 D5 D5 D5 D5 D5 D5 D5 D5 D5 D5 D5 D5 D5 D5 D5 D5 D5 D5 D5 D5 D5 D5 D5 D5 D5 D5 D5 D5 D5 D5 D5 D5 D5 D5 D5 D5 D5 D5 D5 D5 D5 D5 D5 D5 D5 D5 D5 D5 D5 D5 D5 D5 D5 D5 D5 D5 D5 D5 D5 D5 D5 D5 D5 D5 D5 D5 D5 D5 D5 D5 D5 D5 D5 D5 D5 D5 D5 D5 D5 D5 D5 D5 D5 D5 D5 D5 D5 D5 D5 D5 D5 D5 D5 D5 D5 D5 D5 D5 D5 D5 D5 D5 D5 D5 D5     A7 A7 A7 A7 A7 A7 A7 A7 A7 A7 A7 A7 A7 A7 A7 A7 A7 A7 A7 A7 A7 A7 A7 A7 A7 A7 A7 A7 A7 A7 A7 A7 A7 A7 A7 A7 A7 A7 A7 A7 A7 A7 A7 A7 A7 A7 A7 A7 A7 A7 A7 A7 A7 A7 A7 A7 A7 A7 A7 A7 A7 A7 A7 A7 A7 A7 A7 A7 A7 A7 A7 A7 A7 A7 A7 A7 A7 A7 A7 A7 A7 A7 A7 A7 A7 A7 A7 A7 A7 A7 A7 A7 A7 A7 A7 A7 A7 A7 A7 A7 A7 A7 A7 A7 A7 A7 A7 A7 A7 A7 A7 A7 A7 A7 A7 A7 A7 A7 A7 A7 A7 A7 A7 A7 A7 A7 A7 A7 A7 A7 A7 A7 A7 A7 A7 A7 A7 A7 A7 A7 A7 A7 A7 A7 A7 A7 A7 A7 A7 A7 A7 A7 A7 A7 A7 A7 A7 A7 A7 A7           H8 H8 H8 H8 H8 H8 H8 H8 H8 H8 H8 H8 H8 H8 H8 H8 H8 H8 H8 H8 H8 H8 H8 H8 H8 H8 H8 H8 H8 H8 H8 H8 H8 H8 H8 H8 H8 H8 H8 H8 H8 H8 H8 H8 H8 H8 H8 H8 H8 H8 H8 H8 H8 H8 H8 H8 H8 H8 H8 H8 H8 H8 H8 H8 H8 H8 H8 H8 H8 H8 H8 H8 H8 H8 H8 H8 H8 H8 H8 H8 H8 H8 H8 H8 H8 H8 H8 H8 H8 H8 H8 H8 H8 H8 H8 H8 H8 H8 H8 H8 H8 H8 H8 H8 H8 H8 H8 H8 H8 H8 H8 H8 H8 H8 H8 H8 H8 H8 H8 H8 H8 H8 H8 H8 H8 H8 H8 H8 H8 H8 H8 H8 H8 H8 H8 H8 H8 H8 H8 H8 H8 H8 H8 H8 H8 H8 H8 H8 H8 H8 H8 H8 H8                    J/ J/ J/ J/ J/ J/ J/ J/ J/ J/ J/ J/ J/ J/ J/ J/ J/ J/ J/ J/ J/ J/ J/ J/ J/ J/ J/ J/ J/ J/ J/ J/ J/ J/ J/ J/ J/ J/ J/ J/ J/ J/ J/ J/ J/ J/ J/ J/ J/ J/ J/ J/ J/ J/ J/ J/ J/ J/ J/ J/ J/ J/ J/ J/ J/ J/ J/ J/ J/ J/ J/ J/ J/ J/ J/ J/ J/ J/ J/ J/ J/ J/ J/ J/ J/ J/ J/ J/ J/ J/ J/ J/ J/ J/ J/ J/ J/ J/ J/ J/ J/ J/ J/ J/ J/ J/ J/ J/ J/ J/ J/ J/ J/ J/ J/ J/ J/ J/ J/ J/ J/ J/ J/ J/ J/ J/ J/ J/ J/ J/ J/ J/ J/ J/ J/ J/ J/ J/ J/ J/ J/ J/ J/ J/ J/ J/ J/ J/ J/ J/ J/ J/ J/ J/ J/ J/ J/ J/ J/ J/ J/ J/ J/ J/ J/ J/ J/ J/     K0 K0 K0 K0 K0 K0 K0 K0 K0 K0 K0 K0 K0 K0 K0 K0 K0 K0 K0 K0 K0 K0 K0 K0 K0 K0 K0 K0 K0 K0 K0 K0 K0 K0 K0 K0 K0 K0 K0 K0 K0 K0 K0 K0 K0 K0 K0 K0 K0 K0 K0 K0 K0 K0 K0 K0 K0 K0 K0 K0 K0 K0 K0 K0 K0 K0 K0 K0 K0 K0 K0 K0 K0 K0 K0 K0 K0 K0 K0 K0 K0 K0 K0 K0 K0 K0 K0 K0 K0 K0 K0 K0 K0 K0 K0 K0 K0 K0 K0 K0 K0 K0 K0 K0 K0 K0 K0 K0 K0 K0 K0 K0 K0 K0 K0 K0 K0 K0 K0 K0 K0 K0 K0 K0 K0 K0 K0 K0 K0 K0 K0 K0 K0 K0 K0 K0 K0 K0 K0 K0 K0 K0 K0 K0 K0 K0 K0 K0 K0 K0 K0 K0 K0 K0 K0 K0 K0 K0 K0 K0           M2 M2 M2 M2 M2 M2 M2 M2 M2 M2 M2 M2 M2 M2 M2 M2 M2 M2 M2 M2 M2 M2 M2 M2 M2 M2 M2 M2 M2 M2 M2 M2 M2 M2 M2 M2 M2 M2 M2 M2 M2 M2 M2 M2 M2 M2 M2 M2 M2 M2 M2 M2 M2 M2 M2 M2 M2 M2 M2 M2 M2 M2 M2 M2 M2 M2 M2 M2 M2 M2 M2 M2 M2 M2 M2 M2 M2 M2 M2 M2 M2 M2 M2 M2 M2 M2 M2 M2 M2 M2 M2 M2 M2 M2 M2 M2 M2 M2 M2 M2 M2 M2 M2 M2 M2 M2 M2 M2 M2 M2 M2 M2 M2 M2 M2 M2 M2 M2 M2 M2 M2 M2 M2 M2 M2 M2 M2 M2 M2 M2 M2 M2 M2 M2 M2 M2 M2 M2 M2 M2 M2 M2 M2 M2 M2 M2 M2 M2 M2 M2 M2 M2 M2                    O3 O3 O3 O3 O3 O3 O3 O3 O3 O3 O3 O3 O3 O3 O3 O3 O3 O3 O3 O3 O3 O3 O3 O3 O3 O3 O3 O3 O3 O3 O3 O3 O3 O3 O3 O3 O3 O3 O3 O3 O3 O3 O3 O3 O3 O3 O3 O3 O3 O3 O3 O3 O3 O3 O3 O3 O3 O3 O3 O3 O3 O3 O3 O3 O3 O3 O3 O3 O3 O3 O3 O3 O3 O3 O3 O3 O3 O3 O3 O3 O3 O3 O3 O3 O3 O3 O3 O3 O3 O3 O3 O3 O3 O3 O3 O3 O3 O3 O3 O3 O3 O3 O3 O3 O3 O3 O3 O3 O3 O3 O3 O3 O3 O3 O3 O3 O3 O3 O3 O3 O3 O3 O3 O3 O3 O3 O3 O3 O3 O3 O3 O3 O3 O3 O3 O3 O3 O3 O3 O3 O3 O3 O3 O3 O3 O3 O3 O3 O3 O3 O3 O3 O3 O3 O3 O3 O3 O3 O3 O3 O3 O3 O3 O3 O3 O3 O3 O3 3 3 3 K3 K3 K3 K3 K3 K3 K3 K3 K3 K3 K3 K3 K3 K3 K3 K3 K3 K3 K3 K3 K3 K3 K3 K3 K3 K3 K3 K3 K3 K3 K3 K3 K3 K3 K3 K3 K3 K3 K3 K3 K3 K3 K3 K3 K3 K3 K3 K3 K3 K3 K3 K3 K3 K3 K3 K3 K3 K3 K3 K3 K3 K3 K3 K3 K3 K3 K3 K3 K3 K3 K3 K3 K3 K3 K3 K3 K3 K3 K3 K3 K3 K3 K3 K3 K3 K3 K3 K3 K3 K3 K3 K3 K3 K3 K3 K3 K3 K3 K3 K3 K3 K3 K3 K3 K3 K3 K3 K3 K3 K3 K3 K3 K3 K3 K3 K3 K3 K3 K3 K3 K3 K3 K3 K3 K3 K3 K3 K3 K3 K3 K3 K3 K3 K3 K3 K3 K3 K3 K3 K3 K3 K3 K3 K3 K3 K3 K3 K3 K3 K3 K3 K3 K3 K3 K3 K3 K3 K3 K3 K3 3 3 3 3 3 3 3    H8 H8 H8 H8 H8 H8 H8 H8 H8 H8 H8 H8 H8 H8 H8 H8 H8 H8 H8 H8 H8 H8 H8 H8 H8 H8 H8 H8 H8 H8 H8 H8 H8 H8 H8 H8 H8 H8 H8 H8 H8 H8 H8 H8 H8 H8 H8 H8 H8 H8 H8 H8 H8 H8 H8 H8 H8 H8 H8 H8 H8 H8 H8 H8 H8 H8 H8 H8 H8 H8 H8 H8 H8 H8 H8 H8 H8 H8 H8 H8 H8 H8 H8 H8 H8 H8 H8 H8 H8 H8 H8 H8 H8 H8 H8 H8 H8 H8 H8 H8 H8 H8 H8 H8 H8 H8 H8 H8 H8 H8 H8 H8 H8 H8 H8 H8 H8 H8 H8 H8 H8 H8 H8 H8 H8 H8 H8 H8 H8 H8 H8 H8 H8 H8 H8 H8 H8 H8 H8 H8 H8 H8 H8 H8 H8 H8 H8 H8 H8 H8 H8 H8 H8                    M2 M2 M2 M2 M2 M2 M2 M2 M2 M2 M2 M2 M2 M2 M2 M2 M2 M2 M2 M2 M2 M2 M2 M2 M2 M2 M2 M2 M2 M2 M2 M2 M2 M2 M2 M2 M2 M2 M2 M2 M2 M2 M2 M2 M2 M2 M2 M2 M2 M2 M2 M2 M2 M2 M2 M2 M2 M2 M2 M2 M2 M2 M2 M2 M2 M2 M2 M2 M2 M2 M2 M2 M2 M2 M2 M2 M2 M2 M2 M2 M2 M2 M2 M2 M2 M2 M2 M2 M2 M2 M2 M2 M2 M2 M2 M2 M2 M2 M2 M2 M2 M2 M2 M2 M2 M2 M2 M2 M2 M2 M2 M2 M2 M2 M2 M2 M2 M2 M2 M2 M2 M2 M2 M2 M2 M2 M2 M2 M2 M2 M2 M2 M2 M2 M2 M2 M2 M2 M2 M2 M2 M2 M2 M2 M2 M2 M2 M2 M2 M2 M2 M2 M2 M2 M2 M2 M2 M2 M2 M2 M2 M2 M2 M2 M2 M2 M2 M2 2 2 2 2 E2 E2 E2 E2 E2 E2 E2 E2 E2 E2 E2 E2 E2 E2 E2 E2 E2 E2 E2 E2 E2 E2 E2 E2 E2 E2 E2 E2 E2 E2 E2 E2 E2 E2 E2 E2 E2 E2 E2 E2 E2 E2 E2 E2 E2 E2 E2 E2 E2 E2 E2 E2 E2 E2 E2 E2 E2 E2 E2 E2 E2 E2 E2 E2 E2 E2 E2 E2 E2 E2 E2 E2 E2 E2 E2 E2 E2 E2 E2 E2 E2 E2 E2 E2 E2 E2 E2 E2 E2 E2 E2 E2 E2 E2 E2 E2 E2 E2 E2 E2 E2 E2 E2 E2 E2 E2 E2 E2 E2 E2 E2 E2 E2 E2 E2 E2 E2 E2 E2 E2 E2 E2 E2 E2 E2 E2 E2 E2 E2 E2 E2 E2 E2 E2 E2 E2 E2 E2 E2 E2 E2 E2 E2 E2 E2 E2 E2 E2 E2 E2 E2 E2 E2 E2 E2 E2 E2 E2 E2 E2 2 2 2 2 2 2     G7 G7 G7 G7 G7 G7 G7 G7 G7 G7 G7 G7 G7 G7 G7 G7 G7 G7 G7 G7 G7 G7 G7 G7 G7 G7 G7 G7 G7 G7 G7 G7 G7 G7 G7 G7 G7 G7 G7 G7 G7 G7 G7 G7 G7 G7 G7 G7 G7 G7 G7 G7 G7 G7 G7 G7 G7 G7 G7 G7 G7 G7 G7 G7 G7 G7 G7 G7 G7 G7 G7 G7 G7 G7 G7 G7 G7 G7 G7 G7 G7 G7 G7 G7 G7 G7 G7 G7 G7 G7 G7 G7 G7 G7 G7 G7 G7 G7 G7 G7 G7 G7 G7 G7 G7 G7 G7 G7 G7 G7 G7 G7 G7 G7 G7 G7 G7 G7 G7 G7 G7 G7 G7 G7 G7 G7 G7 G7 G7 G7 G7 G7 G7 G7 G7 G7 G7 G7 G7 G7 G7 G7 G7 G7 G7 G7 G7 G7 G7 G7 G7 G7 G7                    K0 K0 K0 K0 K0 K0 K0 K0 K0 K0 K0 K0 K0 K0 K0 K0 K0 K0 K0 K0 K0 K0 K0 K0 K0 K0 K0 K0 K0 K0 K0 K0 K0 K0 K0 K0 K0 K0 K0 K0 K0 K0 K0 K0 K0 K0 K0 K0 K0 K0 K0 K0 K0 K0 K0 K0 K0 K0 K0 K0 K0 K0 K0 K0 K0 K0 K0 K0 K0 K0 K0 K0 K0 K0 K0 K0 K0 K0 K0 K0 K0 K0 K0 K0 K0 K0 K0 K0 K0 K0 K0 K0 K0 K0 K0 K0 K0 K0 K0 K0 K0 K0 K0 K0 K0 K0 K0 K0 K0 K0 K0 K0 K0 K0 K0 K0 K0 K0 K0 K0 K0 K0 K0 K0 K0 K0 K0 K0 K0 K0 K0 K0 K0 K0 K0 K0 K0 K0 K0 K0 K0 K0 K0 K0 K0 K0 K0 K0 K0 K0 K0 K0 K0 K0 K0 K0 K0 K0 K0 K0 K0 K0 K0 K0 K0 K0 K0 K0 0 0 0 H0 H0 H0 H0 H0 H0 H0 H0 H0 H0 H0 H0 H0 H0 H0 H0 H0 H0 H0 H0 H0 H0 H0 H0 H0 H0 H0 H0 H0 H0 H0 H0 H0 H0 H0 H0 H0 H0 H0 H0 H0 H0 H0 H0 H0 H0 H0 H0 H0 H0 H0 H0 H0 H0 H0 H0 H0 H0 H0 H0 H0 H0 H0 H0 H0 H0 H0 H0 H0 H0 H0 H0 H0 H0 H0 H0 H0 H0 H0 H0 H0 H0 H0 H0 H0 H0 H0 H0 H0 H0 H0 H0 H0 H0 H0 H0 H0 H0 H0 H0 H0 H0 H0 H0 H0 H0 H0 H0 H0 H0 H0 H0 H0 H0 H0 H0 H0 H0 H0 H0 H0 H0 H0 H0 H0 H0 H0 H0 H0 H0 H0 H0 H0 H0 H0 H0 H0 H0 H0 H0 H0 H0 H0 H0 H0 H0 H0 H0 H0 H0 H0 H0 H0 H0 H0 H0 H0 H0 H0 H0 0 0 0 0 0 0 0 0 0 0 E0 E0 E0 E0 E0 E0 E0 E0 E0 E0 E0 E0 E0 E0 E0 E0 E0 E0 E0 E0 E0 E0 E0 E0 E0 E0 E0 E0 E0 E0 E0 E0 E0 E0 E0 E0 E0 E0 E0 E0 E0 E0 E0 E0 E0 E0 E0 E0 E0 E0 E0 E0 E0 E0 E0 E0 E0 E0 E0 E0 E0 E0 E0 E0 E0 E0 E0 E0 E0 E0 E0 E0 E0 E0 E0 E0 E0 E0 E0 E0 E0 E0 E0 E0 E0 E0 E0 E0 E0 E0 E0 E0 E0 E0 E0 E0 E0 E0 E0 E0 E0 E0 E0 E0 E0 E0 E0 E0 E0 E0 E0 E0 E0 E0 E0 E0 E0 E0 E0 E0 E0 E0 E0 E0 E0 E0 E0 E0 E0 E0 E0 E0 E0 E0 E0 E0 E0 E0 E0 E0 E0 E0 E0 E0 E0 E0 E0 E0 E0 E0 E0 E0 E0 0 0 0 0 0 0 0 0 0 0 0 0 0 0 0 0 0 0 0 0J 0J 0J 0J 0J 0J 0J 0J 0J 0J 0J 0J 0J 0J 0J 0J 0J 0J 0J 0J 0J 0J 0J 0J 0J 0J 0J 0J 0J 0J 0J 0J 0J 0J 0J 0J 0J 0J 0J 0J 0J 0J 0J 0J 0J 0J 0J 0J 0J 0J 0J 0J 0J 0J 0J 0J 0J 0J 0J 0J 0J 0J 0J 0J 0J 0J 0J 0J 0J 0J 0J 0J 0J 0J 0J 0J 0J 0J 0J 0J 0J 0J 0J 0J 0J 0J 0J 0J 0J 0J 0J 0J 0J 0J 0J 0J 0J 0J 0J 0J 0J 0J 0J 0J 0J 0J 0J 0J 0J 0J 0J 0J 0J 0J 0J 0J 0J 0J 0J 0J 0J 0J 0J 0J 0J 0J 0J 0J J J J J J J J J J J J J J J J J J J J J J J J J J J J J J J J J J J J J J J J J     B B B B B B B B B B B B B B B B B B B B B B B B B B B B B B B B B B B B B B B B B B B B B B B B B B B B B B B B B B B B B B B B B B B B B B B B B B B B B B B B B B B B B B B B B B B B B B B B B B B B B B B B B B B B B B B B B B B B B B B B B B B B B B B B B B B B B B B B B B B B B B B B B B B B B B B B B B B B B B B B           C: C: C: C: C: C: C: C: C: C: C: C: C: C: C: C: C: C: C: C: C: C: C: C: C: C: C: C: C: C: C: C: C: C: C: C: C: C: C: C: C: C: C: C: C: C: C: C: C: C: C: C: C: C: C: C: C: C: C: C: C: C: C: C: C: C: C: C: C: C: C: C: C: C: C: C: C: C: C: C: C: C: C: C: C: C: C: C: C: C: C: C: C: C: C: C: C: C: C: C: C: C: C: C: C: C: C: C: C: C: C: C: C: C: C: C: C: C: C: C: C: C: C: C: C: C: C: C: C: C: C: C: C: C: C: C: C: C: C: C: C: C: C: C: C: C: C: C: C: C: C: C: C:                    H9 H9 H9 H9 H9 H9 H9 H9 H9 H9 H9 H9 H9 H9 H9 H9 H9 H9 H9 H9 H9 H9 H9 H9 H9 H9 H9 H9 H9 H9 H9 H9 H9 H9 H9 H9 H9 H9 H9 H9 H9 H9 H9 H9 H9 H9 H9 H9 H9 H9 H9 H9 H9 H9 H9 H9 H9 H9 H9 H9 H9 H9 H9 H9 H9 H9 H9 H9 H9 H9 H9 H9 H9 H9 H9 H9 H9 H9 H9 H9 H9 H9 H9 H9 H9 H9 H9 H9 H9 H9 H9 H9 H9 H9 H9 H9 H9 H9 H9 H9 H9 H9 H9 H9 H9 H9 H9 H9 H9 H9 H9 H9 H9 H9 H9 H9 H9 H9 H9 H9 H9 H9 H9 H9 H9 H9 H9 H9 H9 H9 H9 H9 H9 H9 H9 H9 H9 H9 H9 H9 H9 H9 H9 H9 H9 H9 H9 H9 H9 H9 H9 H9 H9 H9 H9 H9 H9 H9 H9 H9 H9 H9 H9 H9 H9 H9 H9 H9 9 9 9 E9 E9 E9 E9 E9 E9 E9 E9 E9 E9 E9 E9 E9 E9 E9 E9 E9 E9 E9 E9 E9 E9 E9 E9 E9 E9 E9 E9 E9 E9 E9 E9 E9 E9 E9 E9 E9 E9 E9 E9 E9 E9 E9 E9 E9 E9 E9 E9 E9 E9 E9 E9 E9 E9 E9 E9 E9 E9 E9 E9 E9 E9 E9 E9 E9 E9 E9 E9 E9 E9 E9 E9 E9 E9 E9 E9 E9 E9 E9 E9 E9 E9 E9 E9 E9 E9 E9 E9 E9 E9 E9 E9 E9 E9 E9 E9 E9 E9 E9 E9 E9 E9 E9 E9 E9 E9 E9 E9 E9 E9 E9 E9 E9 E9 E9 E9 E9 E9 E9 E9 E9 E9 E9 E9 E9 E9 E9 E9 E9 E9 E9 E9 E9 E9 E9 E9 E9 E9 E9 E9 E9 E9 E9 E9 E9 E9 E9 E9 E9 E9 E9 E9 E9 E9 E9 E9 E9 E9 E9 E9 9 9 9 9 9 9 9 9 9 9 9 B9 B9 B9 B9 B9 B9 B9 B9 B9 B9 B9 B9 B9 B9 B9 B9 B9 B9 B9 B9 B9 B9 B9 B9 B9 B9 B9 B9 B9 B9 B9 B9 B9 B9 B9 B9 B9 B9 B9 B9 B9 B9 B9 B9 B9 B9 B9 B9 B9 B9 B9 B9 B9 B9 B9 B9 B9 B9 B9 B9 B9 B9 B9 B9 B9 B9 B9 B9 B9 B9 B9 B9 B9 B9 B9 B9 B9 B9 B9 B9 B9 B9 B9 B9 B9 B9 B9 B9 B9 B9 B9 B9 B9 B9 B9 B9 B9 B9 B9 B9 B9 B9 B9 B9 B9 B9 B9 B9 B9 B9 B9 B9 B9 B9 B9 B9 B9 B9 B9 B9 B9 B9 B9 B9 B9 B9 B9 B9 B9 B9 B9 B9 B9 B9 B9 B9 B9 B9 B9 B9 B9 B9 B9 B9 B9 B9 B9 B9 B9 B9 B9 B9 B9 9 9 9 9 9 9 9 9 9 9 9 9 9 9 9 9 9 9 F9 F9 F9 F9 F9 F9 F9 F9 F9 F9 F9 F9 F9 F9 F9 F9 F9 F9 F9 F9 F9 F9 F9 F9 F9 F9 F9 F9 F9 F9 F9 F9 F9 F9 F9 F9 F9 F9 F9 F9 F9 F9 F9 F9 F9 F9 F9 F9 F9 F9 F9 F9 F9 F9 F9 F9 F9 F9 F9 F9 F9 F9 F9 F9 F9 F9 F9 F9 F9 F9 F9 F9 F9 F9 F9 F9 F9 F9 F9 F9 F9 F9 F9 F9 F9 F9 F9 F9 F9 F9 F9 F9 F9 F9 F9 F9 F9 F9 F9 F9 F9 F9 F9 F9 F9 F9 F9 F9 F9 F9 F9 F9 F9 F9 F9 F9 F9 F9 F9 F9 F9 F9 F9 F9 F9 F9 F9 F9 F9 F9 F9 F9 F9 F9 F9 F9 F9 F9 F9 F9 F9 F9 F9 F9 F9 F9 F9 F9 F9 F9 F9 F9 F9 F9 F9 F9 F9 F9 F9 F9 F9 F9 F9 F9 F9 F9 F9 F9 9 9 9 9 9> 9> 9> 9> 9> 9> 9> 9> 9> 9> 9> 9> 9> 9> 9> 9> 9> 9> 9> 9> 9> 9> 9> 9> 9> 9> 9> 9> 9> 9> 9> 9> 9> 9> 9> 9> 9> 9> 9> 9> 9> 9> 9> 9> 9> 9> 9> 9> 9> 9> 9> 9> 9> 9> 9> 9> 9> 9> 9> 9> 9> 9> 9> 9> 9> 9> 9> 9> 9> 9> 9> 9> 9> 9> 9> 9> 9> 9> 9> 9> 9> 9> 9> 9> > > > > > > > > > > > > > > > > > > > > > > > > > > > > > > > > > > > > > > > > > > > > > > > > > > > > > > > > > > > > > > > > > > > > > > > > > > > > > >           ?7 ?7 ?7 ?7 ?7 ?7 ?7 ?7 ?7 ?7 ?7 ?7 ?7 ?7 ?7 ?7 ?7 ?7 ?7 ?7 ?7 ?7 ?7 ?7 ?7 ?7 ?7 ?7 ?7 ?7 ?7 ?7 ?7 ?7 ?7 ?7 ?7 ?7 ?7 ?7 ?7 ?7 ?7 ?7 ?7 ?7 ?7 ?7 ?7 ?7 ?7 ?7 ?7 ?7 ?7 ?7 ?7 ?7 ?7 ?7 ?7 ?7 ?7 ?7 ?7 ?7 ?7 ?7 ?7 ?7 ?7 ?7 ?7 ?7 ?7 ?7 ?7 ?7 ?7 ?7 ?7 ?7 ?7 ?7 ?7 ?7 ?7 ?7 ?7 ?7 ?7 ?7 ?7 ?7 ?7 ?7 ?7 ?7 ?7 ?7 ?7 ?7 ?7 ?7 ?7 ?7 ?7 ?7 ?7 ?7 ?7 ?7 ?7 ?7 ?7 ?7 ?7 ?7 ?7 ?7 ?7 ?7 ?7 ?7 ?7 ?7 ?7 ?7 ?7 ?7 ?7 ?7 ?7 ?7 ?7 ?7 ?7 ?7 ?7 ?7 ?7 ?7 ?7 ?7 ?7 ?7 ?7 ?7 ?7 ?7 ?7 ?7 ?7                   E5 E5 E5 E5 E5 E5 E5 E5 E5 E5 E5 E5 E5 E5 E5 E5 E5 E5 E5 E5 E5 E5 E5 E5 E5 E5 E5 E5 E5 E5 E5 E5 E5 E5 E5 E5 E5 E5 E5 E5 E5 E5 E5 E5 E5 E5 E5 E5 E5 E5 E5 E5 E5 E5 E5 E5 E5 E5 E5 E5 E5 E5 E5 E5 E5 E5 E5 E5 E5 E5 E5 E5 E5 E5 E5 E5 E5 E5 E5 E5 E5 E5 E5 E5 E5 E5 E5 E5 E5 E5 E5 E5 E5 E5 E5 E5 E5 E5 E5 E5 E5 E5 E5 E5 E5 E5 E5 E5 E5 E5 E5 E5 E5 E5 E5 E5 E5 E5 E5 E5 E5 E5 E5 E5 E5 E5 E5 E5 E5 E5 E5 E5 E5 E5 E5 E5 E5 E5 E5 E5 E5 E5 E5 E5 E5 E5 E5 E5 E5 E5 E5 E5 E5 E5 E5 E5 E5 E5 E5 E5 E5 E5 E5 E5 E5 E5 E5 E5 5 5 5 5 A5 A5 A5 A5 A5 A5 A5 A5 A5 A5 A5 A5 A5 A5 A5 A5 A5 A5 A5 A5 A5 A5 A5 A5 A5 A5 A5 A5 A5 A5 A5 A5 A5 A5 A5 A5 A5 A5 A5 A5 A5 A5 A5 A5 A5 A5 A5 A5 A5 A5 A5 A5 A5 A5 A5 A5 A5 A5 A5 A5 A5 A5 A5 A5 A5 A5 A5 A5 A5 A5 A5 A5 A5 A5 A5 A5 A5 A5 A5 A5 A5 A5 A5 A5 A5 A5 A5 A5 A5 A5 A5 A5 A5 A5 A5 A5 A5 A5 A5 A5 A5 A5 A5 A5 A5 A5 A5 A5 A5 A5 A5 A5 A5 A5 A5 A5 A5 A5 A5 A5 A5 A5 A5 A5 A5 A5 A5 A5 A5 A5 A5 A5 A5 A5 A5 A5 A5 A5 A5 A5 A5 A5 A5 A5 A5 A5 A5 A5 A5 A5 A5 A5 A5 A5 A5 A5 A5 A5 A5 A5 5 5 5 5 5 5 5 5 5 5 >5 >5 >5 >5 >5 >5 >5 >5 >5 >5 >5 >5 >5 >5 >5 >5 >5 >5 >5 >5 >5 >5 >5 >5 >5 >5 >5 >5 >5 >5 >5 >5 >5 >5 >5 >5 >5 >5 >5 >5 >5 >5 >5 >5 >5 >5 >5 >5 >5 >5 >5 >5 >5 >5 >5 >5 >5 >5 >5 >5 >5 >5 >5 >5 >5 >5 >5 >5 >5 >5 >5 >5 >5 >5 >5 >5 >5 >5 >5 >5 >5 >5 >5 >5 >5 >5 >5 >5 >5 >5 >5 >5 >5 >5 >5 >5 >5 >5 >5 >5 >5 >5 >5 >5 >5 >5 >5 >5 >5 >5 >5 >5 >5 >5 >5 >5 >5 >5 >5 >5 >5 >5 >5 >5 >5 >5 >5 >5 >5 >5 >5 >5 >5 >5 >5 >5 >5 >5 >5 >5 >5 >5 >5 >5 >5 >5 >5 >5 >5 >5 >5 >5 >5 5 5 5 5 5 5 5 5 5 5 5 5 5 5 5 5 5 5 5 C5 C5 C5 C5 C5 C5 C5 C5 C5 C5 C5 C5 C5 C5 C5 C5 C5 C5 C5 C5 C5 C5 C5 C5 C5 C5 C5 C5 C5 C5 C5 C5 C5 C5 C5 C5 C5 C5 C5 C5 C5 C5 C5 C5 C5 C5 C5 C5 C5 C5 C5 C5 C5 C5 C5 C5 C5 C5 C5 C5 C5 C5 C5 C5 C5 C5 C5 C5 C5 C5 C5 C5 C5 C5 C5 C5 C5 C5 C5 C5 C5 C5 C5 C5 C5 C5 C5 C5 C5 C5 C5 C5 C5 C5 C5 C5 C5 C5 C5 C5 C5 C5 C5 C5 C5 C5 C5 C5 C5 C5 C5 C5 C5 C5 C5 C5 C5 C5 C5 C5 C5 C5 C5 C5 C5 C5 C5 C5 C5 C5 C5 C5 C5 C5 C5 C5 C5 C5 C5 C5 C5 C5 C5 C5 C5 C5 C5 C5 C5 C5 C5 C5 C5 C5 C5 C5 C5 C5 C5 C5 C5 C5 C5 C5 C5 C5 C5 C5 5 5 5 5 5: 5: 5: 5: 5: 5: 5: 5: 5: 5: 5: 5: 5: 5: 5: 5: 5: 5: 5: 5: 5: 5: 5: 5: 5: 5: 5: 5: 5: 5: 5: 5: 5: 5: 5: 5: 5: 5: 5: 5: 5: 5: 5: 5: 5: 5: 5: 5: 5: 5: 5: 5: 5: 5: 5: 5: 5: 5: 5: 5: 5: 5: 5: 5: 5: 5: 5: 5: 5: 5: 5: 5: 5: 5: 5: 5: 5: 5: 5: 5: 5: 5: 5: : : : : : : : : : : : : : : : : : : : : : : : : : : : : : : : : : : : : : : : : : : : : : : : : : : : : : : : : : : : : : : : : : : : : : : : : : : : : : : :          <3 <3 <3 <3 <3 <3 <3 <3 <3 <3 <3 <3 <3 <3 <3 <3 <3 <3 <3 <3 <3 <3 <3 <3 <3 <3 <3 <3 <3 <3 <3 <3 <3 <3 <3 <3 <3 <3 <3 <3 <3 <3 <3 <3 <3 <3 <3 <3 <3 <3 <3 <3 <3 <3 <3 <3 <3 <3 <3 <3 <3 <3 <3 <3 <3 <3 <3 <3 <3 <3 <3 <3 <3 <3 <3 <3 <3 <3 <3 <3 <3 <3 <3 <3 <3 <3 <3 <3 <3 <3 <3 <3 <3 <3 <3 <3 <3 <3 <3 <3 <3 <3 <3 <3 <3 <3 <3 <3 <3 <3 <3 <3 <3 <3 <3 <3 <3 <3 <3 <3 <3 <3 <3 <3 <3 <3 <3 <3 <3 <3 <3 <3 <3 <3 <3 <3 <3 <3 <3 <3 <3 <3 <3 <3 <3 <3 <3 <3 <3 <3 <3 <3 <3                    *> *> *> *> *> *> *> *> *> *> *> *> *> *> *> *> *> *> *> *> *> *> *> *> *> *> *> *> *> *> *> *> *> *> *> *> *> *> *> *> *> *> *> *> *> *> *> *> *> *> *> *> *> *> *> *> *> *> *> *> *> *> *> *> *> *> *> *> *> *> *> *> *> *> *> *> *> *> *> *> *> *> *> *> *> *> *> *> *> *> *> *> *> *> *> *> *> *> *> *> *> *> *> *> *> *> *> *> *> *> *> *> *> *> *> *> *> *> *> *> *> *> *> *> *> *> *> *> *> *> *> *> *> *> *> *> *> *> *> *> *> *> *> *> *> *> *> *> *> *> *> *> *> *> *> *> *> *> *> *> *> *> *> *> *> *> *> *> > > > > +> +> +> +> +> +> +> +> +> +> +> +> +> +> +> +> +> +> +> +> +> +> +> +> +> +> +> +> +> +> +> +> +> +> +> +> +> +> +> +> +> +> +> +> +> +> +> +> +> +> +> +> +> +> +> +> +> +> +> +> +> +> +> +> +> +> +> +> +> +> +> +> +> +> +> +> +> +> +> +> +> +> +> +> +> +> +> +> +> +> +> +> +> +> +> +> +> +> +> +> +> +> +> +> +> +> +> +> +> +> +> +> +> +> +> +> +> +> +> +> +> +> +> +> +> +> +> +> +> +> +> +> +> +> +> +> +> +> +> +> +> +> +> +> +> +> +> +> +> +> +> +> +> +> +> +> +> +> +> +> > > > > > > > > > > -> -> -> -> -> -> -> -> -> -> -> -> -> -> -> -> -> -> -> -> -> -> -> -> -> -> -> -> -> -> -> -> -> -> -> -> -> -> -> -> -> -> -> -> -> -> -> -> -> -> -> -> -> -> -> -> -> -> -> -> -> -> -> -> -> -> -> -> -> -> -> -> -> -> -> -> -> -> -> -> -> -> -> -> -> -> -> -> -> -> -> -> -> -> -> -> -> -> -> -> -> -> -> -> -> -> -> -> -> -> -> -> -> -> -> -> -> -> -> -> -> -> -> -> -> -> -> -> -> -> -> -> -> -> -> -> -> -> -> -> -> -> -> -> -> -> -> -> -> -> -> -> -> > > > > > > > > > > > > > > > > > > > .> .> .> .> .> .> .> .> .> .> .> .> .> .> .> .> .> .> .> .> .> .> .> .> .> .> .> .> .> .> .> .> .> .> .> .> .> .> .> .> .> .> .> .> .> .> .> .> .> .> .> .> .> .> .> .> .> .> .> .> .> .> .> .> .> .> .> .> .> .> .> .> .> .> .> .> .> .> .> .> .> .> .> .> .> .> .> .> .> .> .> .> .> .> .> .> .> .> .> .> .> .> .> .> .> .> .> .> .> .> .> .> .> .> .> .> .> .> .> .> .> .> .> .> .> .> .> .> .> .> .> .> .> .> .> .> .> .> .> .> .> .> .> .> .> .> .> .> .> .> .> .> .> .> .> .> .> .> .> .> .> .> .> .> .> .> .> .>    @0 @0 @0 @0 @0 @0 @0 @0 @0 @0 @0 @0 @0 @0 @0 @0 @0 @0 @0 @0 @0 @0 @0 @0 @0 @0 @0 @0 @0 @0 @0 @0 @0 @0 @0 @0 @0 @0 @0 @0 @0 @0 @0 @0 @0 @0 @0 @0 @0 @0 @0 @0 @0 @0 @0 @0 @0 @0 @0 @0 @0 @0 @0 @0 @0 @0 @0 @0 @0 @0 @0 @0 @0 @0 @0 @0 @0 @0 @0 @0 @0 @0 @0 @0 @0 @0 @0 @0 @0 @0 @0 @0 @0 @0 @0 @0 @0 @0 @0 @0 @0 @0 @0 @0 @0 @0 @0 @0 @0 @0 @0 @0 @0 @0 @0 @0 @0 @0 @0 @0 @0 @0 @0 @0 @0 @0 @0 @0 @0 @0 @0 @0 @0 @0 @0 @0 @0 @0 @0 @0 @0 @0 @0 @0 @0 @0 @0 @0 @0 @0 @0 @0 @0 @0 @0 @0 @0 @0 @0 @0           B2 B2 B2 B2 B2 B2 B2 B2 B2 B2 B2 B2 B2 B2 B2 B2 B2 B2 B2 B2 B2 B2 B2 B2 B2 B2 B2 B2 B2 B2 B2 B2 B2 B2 B2 B2 B2 B2 B2 B2 B2 B2 B2 B2 B2 B2 B2 B2 B2 B2 B2 B2 B2 B2 B2 B2 B2 B2 B2 B2 B2 B2 B2 B2 B2 B2 B2 B2 B2 B2 B2 B2 B2 B2 B2 B2 B2 B2 B2 B2 B2 B2 B2 B2 B2 B2 B2 B2 B2 B2 B2 B2 B2 B2 B2 B2 B2 B2 B2 B2 B2 B2 B2 B2 B2 B2 B2 B2 B2 B2 B2 B2 B2 B2 B2 B2 B2 B2 B2 B2 B2 B2 B2 B2 B2 B2 B2 B2 B2 B2 B2 B2 B2 B2 B2 B2 B2 B2 B2 B2 B2 B2 B2 B2 B2 B2 B2 B2 B2 B2 B2 B2 B2                    C3 C3 C3 C3 C3 C3 C3 C3 C3 C3 C3 C3 C3 C3 C3 C3 C3 C3 C3 C3 C3 C3 C3 C3 C3 C3 C3 C3 C3 C3 C3 C3 C3 C3 C3 C3 C3 C3 C3 C3 C3 C3 C3 C3 C3 C3 C3 C3 C3 C3 C3 C3 C3 C3 C3 C3 C3 C3 C3 C3 C3 C3 C3 C3 C3 C3 C3 C3 C3 C3 C3 C3 C3 C3 C3 C3 C3 C3 C3 C3 C3 C3 C3 C3 C3 C3 C3 C3 C3 C3 C3 C3 C3 C3 C3 C3 C3 C3 C3 C3 C3 C3 C3 C3 C3 C3 C3 C3 C3 C3 C3 C3 C3 C3 C3 C3 C3 C3 C3 C3 C3 C3 C3 C3 C3 C3 C3 C3 C3 C3 C3 C3 C3 C3 C3 C3 C3 C3 C3 C3 C3 C3 C3 C3 C3 C3 C3 C3 C3 C3 C3 C3 C3 C3 C3 C3 C3 C3 C3 C3 C3 C3 C3 C3 C3 C3 C3 C3     E0 E0 E0 E0 E0 E0 E0 E0 E0 E0 E0 E0 E0 E0 E0 E0 E0 E0 E0 E0 E0 E0 E0 E0 E0 E0 E0 E0 E0 E0 E0 E0 E0 E0 E0 E0 E0 E0 E0 E0 E0 E0 E0 E0 E0 E0 E0 E0 E0 E0 E0 E0 E0 E0 E0 E0 E0 E0 E0 E0 E0 E0 E0 E0 E0 E0 E0 E0 E0 E0 E0 E0 E0 E0 E0 E0 E0 E0 E0 E0 E0 E0 E0 E0 E0 E0 E0 E0 E0 E0 E0 E0 E0 E0 E0 E0 E0 E0 E0 E0 E0 E0 E0 E0 E0 E0 E0 E0 E0 E0 E0 E0 E0 E0 E0 E0 E0 E0 E0 E0 E0 E0 E0 E0 E0 E0 E0 E0 E0 E0 E0 E0 E0 E0 E0 E0 E0 E0 E0 E0 E0 E0 E0 E0 E0 E0 E0 E0 E0 E0 E0 E0 E0 E0 E0 E0 E0 E0 E0 E0           F7 F7 F7 F7 F7 F7 F7 F7 F7 F7 F7 F7 F7 F7 F7 F7 F7 F7 F7 F7 F7 F7 F7 F7 F7 F7 F7 F7 F7 F7 F7 F7 F7 F7 F7 F7 F7 F7 F7 F7 F7 F7 F7 F7 F7 F7 F7 F7 F7 F7 F7 F7 F7 F7 F7 F7 F7 F7 F7 F7 F7 F7 F7 F7 F7 F7 F7 F7 F7 F7 F7 F7 F7 F7 F7 F7 F7 F7 F7 F7 F7 F7 F7 F7 F7 F7 F7 F7 F7 F7 F7 F7 F7 F7 F7 F7 F7 F7 F7 F7 F7 F7 F7 F7 F7 F7 F7 F7 F7 F7 F7 F7 F7 F7 F7 F7 F7 F7 F7 F7 F7 F7 F7 F7 F7 F7 F7 F7 F7 F7 F7 F7 F7 F7 F7 F7 F7 F7 F7 F7 F7 F7 F7 F7 F7 F7 F7 F7 F7 F7 F7 F7 F7                    H9 H9 H9 H9 H9 H9 H9 H9 H9 H9 H9 H9 H9 H9 H9 H9 H9 H9 H9 H9 H9 H9 H9 H9 H9 H9 H9 H9 H9 H9 H9 H9 H9 H9 H9 H9 H9 H9 H9 H9 H9 H9 H9 H9 H9 H9 H9 H9 H9 H9 H9 H9 H9 H9 H9 H9 H9 H9 H9 H9 H9 H9 H9 H9 H9 H9 H9 H9 H9 H9 H9 H9 H9 H9 H9 H9 H9 H9 H9 H9 H9 H9 H9 H9 H9 H9 H9 H9 H9 H9 H9 H9 H9 H9 H9 H9 H9 H9 H9 H9 H9 H9 H9 H9 H9 H9 H9 H9 H9 H9 H9 H9 H9 H9 H9 H9 H9 H9 H9 H9 H9 H9 H9 H9 H9 H9 H9 H9 H9 H9 H9 H9 H9 H9 H9 H9 H9 H9 H9 H9 H9 H9 H9 H9 H9 H9 H9 H9 H9 H9 H9 H9 H9 H9 H9 H9 H9 H9 H9 H9 H9 H9 H9 H9 H9 H9 H9 H9    J: J: J: J: J: J: J: J: J: J: J: J: J: J: J: J: J: J: J: J: J: J: J: J: J: J: J: J: J: J: J: J: J: J: J: J: J: J: J: J: J: J: J: J: J: J: J: J: J: J: J: J: J: J: J: J: J: J: J: J: J: J: J: J: J: J: J: J: J: J: J: J: J: J: J: J: J: J: J: J: J: J: J: J: J: J: J: J: J: J: J: J: J: J: J: J: J: J: J: J: J: J: J: J: J: J: J: J: J: J: J: J: J: J: J: J: J: J: J: J: J: J: J: J: J: J: J: J: J: J: J: J: J: J: J: J: J: J: J: J: J: J: J: J: J: J: J: J: J: J: J: J: J: J: J: J: J: J: J: J:            K< K< K< K< K< K< K< K< K< K< K< K< K< K< K< K< K< K< K< K< K< K< K< K< K< K< K< K< K< K< K< K< K< K< K< K< K< K< K< K< K< K< K< K< K< K< K< K< K< K< K< K< K< K< K< K< K< K< K< K< K< K< K< K< K< K< K< K< K< K< K< K< K< K< K< K< K< K< K< K< K< K< K< K< K< K< K< K< K< K< K< K< K< K< K< K< K< K< K< K< K< K< K< K< K< K< K< K< K< K< K< K< K< K< K< K< K< K< K< K< K< K< K< K< K< K< K< K< K< K< K< K< K< K< K< K< K< K< K< K< K< K< K< K< K< K< K< K< K< K< K< K< K<                   :J :J :J :J :J :J :J :J :J :J :J :J :J :J :J :J :J :J :J :J :J :J :J :J :J :J :J :J :J :J :J :J :J :J :J :J :J :J :J :J :J :J :J :J :J :J :J :J :J :J :J :J :J :J :J :J :J :J :J :J :J :J :J :J :J :J :J :J :J :J :J :J :J :J :J :J :J :J :J :J :J :J :J :J :J :J :J :J :J :J :J :J :J :J :J :J :J :J :J :J :J :J :J :J :J :J :J :J :J :J :J :J :J :J :J :J :J :J :J :J :J :J :J :J :J :J :J :J :J :J :J :J :J :J :J :J :J :J :J :J :J :J :J :J :J :J :J :J :J :J :J :J :J :J :J :J :J :J :J :J :J :J :J :J :J :J :J :J J J J J 7J 7J 7J 7J 7J 7J 7J 7J 7J 7J 7J 7J 7J 7J 7J 7J 7J 7J 7J 7J 7J 7J 7J 7J 7J 7J 7J 7J 7J 7J 7J 7J 7J 7J 7J 7J 7J 7J 7J 7J 7J 7J 7J 7J 7J 7J 7J 7J 7J 7J 7J 7J 7J 7J 7J 7J 7J 7J 7J 7J 7J 7J 7J 7J 7J 7J 7J 7J 7J 7J 7J 7J 7J 7J 7J 7J 7J 7J 7J 7J 7J 7J 7J 7J 7J 7J 7J 7J 7J 7J 7J 7J 7J 7J 7J 7J 7J 7J 7J 7J 7J 7J 7J 7J 7J 7J 7J 7J 7J 7J 7J 7J 7J 7J 7J 7J 7J 7J 7J 7J 7J 7J 7J 7J 7J 7J 7J 7J 7J 7J 7J 7J 7J 7J 7J 7J 7J 7J 7J 7J 7J 7J 7J 7J 7J 7J 7J 7J 7J 7J 7J 7J 7J 7J 7J 7J 7J 7J 7J 7J J J J J J J     R2 R2 R2 R2 R2 R2 R2 R2 R2 R2 R2 R2 R2 R2 R2 R2 R2 R2 R2 R2 R2 R2 R2 R2 R2 R2 R2 R2 R2 R2 R2 R2 R2 R2 R2 R2 R2 R2 R2 R2 R2 R2 R2 R2 R2 R2 R2 R2 R2 R2 R2 R2 R2 R2 R2 R2 R2 R2 R2 R2 R2 R2 R2 R2 R2 R2 R2 R2 R2 R2 R2 R2 R2 R2 R2 R2 R2 R2 R2 R2 R2 R2 R2 R2 R2 R2 R2 R2 R2 R2 R2 R2 R2 R2 R2 R2 R2 R2 R2 R2 R2 R2 R2 R2 R2 R2 R2 R2 R2 R2 R2 R2 R2 R2 R2 R2 R2 R2 R2 R2 R2 R2 R2 R2 R2 R2 R2 R2 R2 R2 R2 R2 R2 R2 R2 R2 R2 R2 R2 R2 R2 R2 R2 R2 R2 R2 R2 R2 R2 R2 R2 R2 R2                    K< K< K< K< K< K< K< K< K< K< K< K< K< K< K< K< K< K< K< K< K< K< K< K< K< K< K< K< K< K< K< K< K< K< K< K< K< K< K< K< K< K< K< K< K< K< K< K< K< K< K< K< K< K< K< K< K< K< K< K< K< K< K< K< K< K< K< K< K< K< K< K< K< K< K< K< K< K< K< K< K< K< K< K< K< K< K< K< K< K< K< K< K< K< K< K< K< K< K< K< K< K< K< K< K< K< K< K< K< K< K< K< K< K< K< K< K< K< K< K< K< K< K< K< K< K< K< K< K< K< K< K< K< K< K< K< K< K< K< K< K< K< K< K< K< K< K< K< K< K< K< K< K< K< K< K< K< K< K< K< K< K< K< K< K< K< K< K<     J4 J4 J4 J4 J4 J4 J4 J4 J4 J4 J4 J4 J4 J4 J4 J4 J4 J4 J4 J4 J4 J4 J4 J4 J4 J4 J4 J4 J4 J4 J4 J4 J4 J4 J4 J4 J4 J4 J4 J4 J4 J4 J4 J4 J4 J4 J4 J4 J4 J4 J4 J4 J4 J4 J4 J4 J4 J4 J4 J4 J4 J4 J4 J4 J4 J4 J4 J4 J4 J4 J4 J4 J4 J4 J4 J4 J4 J4 J4 J4 J4 J4 J4 J4 J4 J4 J4 J4 J4 J4 J4 J4 J4 J4 J4 J4 J4 J4 J4 J4 J4 J4 J4 J4 J4 J4 J4 J4 J4 J4 J4 J4 J4 J4 J4 J4 J4 J4 J4 J4 J4 J4 J4 J4 J4 J4 J4 J4 J4 J4 J4 J4 J4 J4 J4 J4 J4 J4 J4 J4 J4 J4 J4 J4 J4 J4 J4 J4 J4 J4 J4 J4 J4 J4 J4 J4 J4 J4 J4 J4           H6 H6 H6 H6 H6 H6 H6 H6 H6 H6 H6 H6 H6 H6 H6 H6 H6 H6 H6 H6 H6 H6 H6 H6 H6 H6 H6 H6 H6 H6 H6 H6 H6 H6 H6 H6 H6 H6 H6 H6 H6 H6 H6 H6 H6 H6 H6 H6 H6 H6 H6 H6 H6 H6 H6 H6 H6 H6 H6 H6 H6 H6 H6 H6 H6 H6 H6 H6 H6 H6 H6 H6 H6 H6 H6 H6 H6 H6 H6 H6 H6 H6 H6 H6 H6 H6 H6 H6 H6 H6 H6 H6 H6 H6 H6 H6 H6 H6 H6 H6 H6 H6 H6 H6 H6 H6 H6 H6 H6 H6 H6 H6 H6 H6 H6 H6 H6 H6 H6 H6 H6 H6 H6 H6 H6 H6 H6 H6 H6 H6 H6 H6 H6 H6 H6 H6 H6 H6 H6 H6 H6 H6 H6 H6 H6 H6 H6 H6 H6 H6 H6 H6 H6                   7F 7F 7F 7F 7F 7F 7F 7F 7F 7F 7F 7F 7F 7F 7F 7F 7F 7F 7F 7F 7F 7F 7F 7F 7F 7F 7F 7F 7F 7F 7F 7F 7F 7F 7F 7F 7F 7F 7F 7F 7F 7F 7F 7F 7F 7F 7F 7F 7F 7F 7F 7F 7F 7F 7F 7F 7F 7F 7F 7F 7F 7F 7F 7F 7F 7F 7F 7F 7F 7F 7F 7F 7F 7F 7F 7F 7F 7F 7F 7F 7F 7F 7F 7F 7F 7F 7F 7F 7F 7F 7F 7F 7F 7F 7F 7F 7F 7F 7F 7F 7F 7F 7F 7F 7F 7F 7F 7F 7F 7F 7F 7F 7F 7F 7F 7F 7F 7F 7F 7F 7F 7F 7F 7F 7F 7F 7F 7F 7F 7F 7F 7F 7F 7F 7F 7F 7F 7F 7F 7F 7F 7F 7F 7F 7F 7F 7F 7F 7F 7F 7F 7F 7F 7F 7F 7F 7F 7F 7F 7F 7F 7F 7F 7F 7F 7F 7F 7F F F F F 2F 2F 2F 2F 2F 2F 2F 2F 2F 2F 2F 2F 2F 2F 2F 2F 2F 2F 2F 2F 2F 2F 2F 2F 2F 2F 2F 2F 2F 2F 2F 2F 2F 2F 2F 2F 2F 2F 2F 2F 2F 2F 2F 2F 2F 2F 2F 2F 2F 2F 2F 2F 2F 2F 2F 2F 2F 2F 2F 2F 2F 2F 2F 2F 2F 2F 2F 2F 2F 2F 2F 2F 2F 2F 2F 2F 2F 2F 2F 2F 2F 2F 2F 2F 2F 2F 2F 2F 2F 2F 2F 2F 2F 2F 2F 2F 2F 2F 2F 2F 2F 2F 2F 2F 2F 2F 2F 2F 2F 2F 2F 2F 2F 2F 2F 2F 2F 2F 2F 2F 2F 2F 2F 2F 2F 2F 2F 2F 2F 2F 2F 2F 2F 2F 2F 2F 2F 2F 2F 2F 2F 2F 2F 2F 2F 2F 2F 2F 2F 2F 2F 2F 2F 2F 2F 2F 2F 2F 2F 2F F F F F F F     O. O. O. O. O. O. O. O. O. O. O. O. O. O. O. O. O. O. O. O. O. O. O. O. O. O. O. O. O. O. O. O. O. O. O. O. O. O. O. O. O. O. O. O. O. O. O. O. O. O. O. O. O. O. O. O. O. O. O. O. O. O. O. O. O. O. O. O. O. O. O. O. O. O. O. O. O. O. O. O. O. O. O. O. O. O. O. O. O. O. O. O. O. O. O. O. O. O. O. O. O. O. O. O. O. O. O. O. O. O. O. O. O. O. O. O. O. O. O. O. O. O. O. O. O. O. O. O. O. O. O. O. O. O. O. O. O. O. O. O. O. O. O. O. O. O. O. O. O. O. O. O. O.                    H8 H8 H8 H8 H8 H8 H8 H8 H8 H8 H8 H8 H8 H8 H8 H8 H8 H8 H8 H8 H8 H8 H8 H8 H8 H8 H8 H8 H8 H8 H8 H8 H8 H8 H8 H8 H8 H8 H8 H8 H8 H8 H8 H8 H8 H8 H8 H8 H8 H8 H8 H8 H8 H8 H8 H8 H8 H8 H8 H8 H8 H8 H8 H8 H8 H8 H8 H8 H8 H8 H8 H8 H8 H8 H8 H8 H8 H8 H8 H8 H8 H8 H8 H8 H8 H8 H8 H8 H8 H8 H8 H8 H8 H8 H8 H8 H8 H8 H8 H8 H8 H8 H8 H8 H8 H8 H8 H8 H8 H8 H8 H8 H8 H8 H8 H8 H8 H8 H8 H8 H8 H8 H8 H8 H8 H8 H8 H8 H8 H8 H8 H8 H8 H8 H8 H8 H8 H8 H8 H8 H8 H8 H8 H8 H8 H8 H8 H8 H8 H8 H8 H8 H8 H8 H8 H8 H8 H8 H8 H8 H8 H8 H8 H8 H8 H8 H8 H8     F0 F0 F0 F0 F0 F0 F0 F0 F0 F0 F0 F0 F0 F0 F0 F0 F0 F0 F0 F0 F0 F0 F0 F0 F0 F0 F0 F0 F0 F0 F0 F0 F0 F0 F0 F0 F0 F0 F0 F0 F0 F0 F0 F0 F0 F0 F0 F0 F0 F0 F0 F0 F0 F0 F0 F0 F0 F0 F0 F0 F0 F0 F0 F0 F0 F0 F0 F0 F0 F0 F0 F0 F0 F0 F0 F0 F0 F0 F0 F0 F0 F0 F0 F0 F0 F0 F0 F0 F0 F0 F0 F0 F0 F0 F0 F0 F0 F0 F0 F0 F0 F0 F0 F0 F0 F0 F0 F0 F0 F0 F0 F0 F0 F0 F0 F0 F0 F0 F0 F0 F0 F0 F0 F0 F0 F0 F0 F0 F0 F0 F0 F0 F0 F0 F0 F0 F0 F0 F0 F0 F0 F0 F0 F0 F0 F0 F0 F0 F0 F0 F0 F0 F0 F0 F0 F0 F0 F0 F0 F0           D2 D2 D2 D2 D2 D2 D2 D2 D2 D2 D2 D2 D2 D2 D2 D2 D2 D2 D2 D2 D2 D2 D2 D2 D2 D2 D2 D2 D2 D2 D2 D2 D2 D2 D2 D2 D2 D2 D2 D2 D2 D2 D2 D2 D2 D2 D2 D2 D2 D2 D2 D2 D2 D2 D2 D2 D2 D2 D2 D2 D2 D2 D2 D2 D2 D2 D2 D2 D2 D2 D2 D2 D2 D2 D2 D2 D2 D2 D2 D2 D2 D2 D2 D2 D2 D2 D2 D2 D2 D2 D2 D2 D2 D2 D2 D2 D2 D2 D2 D2 D2 D2 D2 D2 D2 D2 D2 D2 D2 D2 D2 D2 D2 D2 D2 D2 D2 D2 D2 D2 D2 D2 D2 D2 D2 D2 D2 D2 D2 D2 D2 D2 D2 D2 D2 D2 D2 D2 D2 D2 D2 D2 D2 D2 D2 D2 D2 D2 D2 D2 D2 D2 D2                   3C 3C 3C 3C 3C 3C 3C 3C 3C 3C 3C 3C 3C 3C 3C 3C 3C 3C 3C 3C 3C 3C 3C 3C 3C 3C 3C 3C 3C 3C 3C 3C 3C 3C 3C 3C 3C 3C 3C 3C 3C 3C 3C 3C 3C 3C 3C 3C 3C 3C 3C 3C 3C 3C 3C 3C 3C 3C 3C 3C 3C 3C 3C 3C 3C 3C 3C 3C 3C 3C 3C 3C 3C 3C 3C 3C 3C 3C 3C 3C 3C 3C 3C 3C 3C 3C 3C 3C 3C 3C 3C 3C 3C 3C 3C 3C 3C 3C 3C 3C 3C 3C 3C 3C 3C 3C 3C 3C 3C 3C 3C 3C 3C 3C 3C 3C 3C 3C 3C 3C 3C 3C 3C 3C 3C 3C 3C 3C 3C 3C 3C 3C 3C 3C 3C 3C 3C 3C 3C 3C 3C 3C 3C 3C 3C 3C 3C 3C 3C 3C 3C 3C 3C 3C 3C 3C 3C 3C 3C 3C 3C 3C 3C 3C 3C 3C 3C 3C C C C C .C .C .C .C .C .C .C .C .C .C .C .C .C .C .C .C .C .C .C .C .C .C .C .C .C .C .C .C .C .C .C .C .C .C .C .C .C .C .C .C .C .C .C .C .C .C .C .C .C .C .C .C .C .C .C .C .C .C .C .C .C .C .C .C .C .C .C .C .C .C .C .C .C .C .C .C .C .C .C .C .C .C .C .C .C .C .C .C .C .C .C .C .C .C .C .C .C .C .C .C .C .C .C .C .C .C .C .C .C .C .C .C .C .C .C .C .C .C .C .C .C .C .C .C .C .C .C .C .C .C .C .C .C .C .C .C .C .C .C .C .C .C .C .C .C .C .C .C .C .C .C .C .C .C .C .C .C .C .C .C C C C C C C     K+ K+ K+ K+ K+ K+ K+ K+ K+ K+ K+ K+ K+ K+ K+ K+ K+ K+ K+ K+ K+ K+ K+ K+ K+ K+ K+ K+ K+ K+ K+ K+ K+ K+ K+ K+ K+ K+ K+ K+ K+ K+ K+ K+ K+ K+ K+ K+ K+ K+ K+ K+ K+ K+ K+ K+ K+ K+ K+ K+ K+ K+ K+ K+ K+ K+ K+ K+ K+ K+ K+ K+ K+ K+ K+ K+ K+ K+ K+ K+ K+ K+ K+ K+ K+ K+ K+ K+ K+ K+ K+ K+ K+ K+ K+ K+ K+ K+ K+ K+ K+ K+ K+ K+ K+ K+ K+ K+ K+ K+ K+ K+ K+ K+ K+ K+ K+ K+ K+ K+ K+ K+ K+ K+ K+ K+ K+ K+ K+ K+ K+ K+ K+ K+ K+ K+ K+ K+ K+ K+ K+ K+ K+ K+ K+ K+ K+ K+ K+ K+ K+ K+ K+                    D5 D5 D5 D5 D5 D5 D5 D5 D5 D5 D5 D5 D5 D5 D5 D5 D5 D5 D5 D5 D5 D5 D5 D5 D5 D5 D5 D5 D5 D5 D5 D5 D5 D5 D5 D5 D5 D5 D5 D5 D5 D5 D5 D5 D5 D5 D5 D5 D5 D5 D5 D5 D5 D5 D5 D5 D5 D5 D5 D5 D5 D5 D5 D5 D5 D5 D5 D5 D5 D5 D5 D5 D5 D5 D5 D5 D5 D5 D5 D5 D5 D5 D5 D5 D5 D5 D5 D5 D5 D5 D5 D5 D5 D5 D5 D5 D5 D5 D5 D5 D5 D5 D5 D5 D5 D5 D5 D5 D5 D5 D5 D5 D5 D5 D5 D5 D5 D5 D5 D5 D5 D5 D5 D5 D5 D5 D5 D5 D5 D5 D5 D5 D5 D5 D5 D5 D5 D5 D5 D5 D5 D5 D5 D5 D5 D5 D5 D5 D5 D5 D5 D5 D5 D5 D5 D5 D5 D5 D5 D5 D5 D5 D5 D5 D5 D5 D5 D5     C- C- C- C- C- C- C- C- C- C- C- C- C- C- C- C- C- C- C- C- C- C- C- C- C- C- C- C- C- C- C- C- C- C- C- C- C- C- C- C- C- C- C- C- C- C- C- C- C- C- C- C- C- C- C- C- C- C- C- C- C- C- C- C- C- C- C- C- C- C- C- C- C- C- C- C- C- C- C- C- C- C- C- C- C- C- C- C- C- C- C- C- C- C- C- C- C- C- C- C- C- C- C- C- C- C- C- C- C- C- C- C- C- C- C- C- C- C- C- C- C- C- C- C- C- C- C- C- C- C- C- C- C- C- C- C- C- C- C- C- C- C- C- C- C- C- C- C- C- C- C- C- C- C- C- C- C- C- C- C-           A/ A/ A/ A/ A/ A/ A/ A/ A/ A/ A/ A/ A/ A/ A/ A/ A/ A/ A/ A/ A/ A/ A/ A/ A/ A/ A/ A/ A/ A/ A/ A/ A/ A/ A/ A/ A/ A/ A/ A/ A/ A/ A/ A/ A/ A/ A/ A/ A/ A/ A/ A/ A/ A/ A/ A/ A/ A/ A/ A/ A/ A/ A/ A/ A/ A/ A/ A/ A/ A/ A/ A/ A/ A/ A/ A/ A/ A/ A/ A/ A/ A/ A/ A/ A/ A/ A/ A/ A/ A/ A/ A/ A/ A/ A/ A/ A/ A/ A/ A/ A/ A/ A/ A/ A/ A/ A/ A/ A/ A/ A/ A/ A/ A/ A/ A/ A/ A/ A/ A/ A/ A/ A/ A/ A/ A/ A/ A/ A/ A/ A/ A/ A/ A/ A/ A/ A/ A/ A/ A/ A/ A/ A/ A/ A/ A/ A/ A/ A/ A/ A/ A/ A/                    ?0 ?0 ?0 ?0 ?0 ?0 ?0 ?0 ?0 ?0 ?0 ?0 ?0 ?0 ?0 ?0 ?0 ?0 ?0 ?0 ?0 ?0 ?0 ?0 ?0 ?0 ?0 ?0 ?0 ?0 ?0 ?0 ?0 ?0 ?0 ?0 ?0 ?0 ?0 ?0 ?0 ?0 ?0 ?0 ?0 ?0 ?0 ?0 ?0 ?0 ?0 ?0 ?0 ?0 ?0 ?0 ?0 ?0 ?0 ?0 ?0 ?0 ?0 ?0 ?0 ?0 ?0 ?0 ?0 ?0 ?0 ?0 ?0 ?0 ?0 ?0 ?0 ?0 ?0 ?0 ?0 ?0 ?0 ?0 ?0 ?0 ?0 ?0 ?0 ?0 ?0 ?0 ?0 ?0 ?0 ?0 ?0 ?0 ?0 ?0 ?0 ?0 ?0 ?0 ?0 ?0 ?0 ?0 ?0 ?0 ?0 ?0 ?0 ?0 ?0 ?0 ?0 ?0 ?0 ?0 ?0 ?0 ?0 ?0 ?0 ?0 ?0 ?0 ?0 ?0 ?0 ?0 ?0 ?0 ?0 ?0 ?0 ?0 ?0 ?0 ?0 ?0 ?0 ?0 ?0 ?0 ?0 ?0 ?0 ?0 ?0 ?0 ?0 ?0 ?0 ?0 ?0 ?0 ?0 ?0 ?0 ?0 ?0 ?0 ?0 ?0 ?0 ?0 0 0 0 H0 H0 H0 H0 H0 H0 H0 H0 H0 H0 H0 H0 H0 H0 H0 H0 H0 H0 H0 H0 H0 H0 H0 H0 H0 H0 H0 H0 H0 H0 H0 H0 H0 H0 H0 H0 H0 H0 H0 H0 H0 H0 H0 H0 H0 H0 H0 H0 H0 H0 H0 H0 H0 H0 H0 H0 H0 H0 H0 H0 H0 H0 H0 H0 H0 H0 H0 H0 H0 H0 H0 H0 H0 H0 H0 H0 H0 H0 H0 H0 H0 H0 H0 H0 H0 H0 H0 H0 H0 H0 H0 H0 H0 H0 H0 H0 H0 H0 H0 H0 H0 H0 H0 H0 H0 H0 H0 H0 H0 H0 H0 H0 H0 H0 H0 H0 H0 H0 H0 H0 H0 H0 H0 H0 H0 H0 H0 H0 H0 H0 H0 H0 H0 H0 H0 H0 H0 H0 H0 H0 H0 H0 H0 H0 H0 H0 H0 H0 H0 H0 H0 H0 H0 H0 H0 H0 H0 H0 H0 H0 0 0 0 0 0 0 0 0 0 0 0? 0? 0? 0? 0? 0? 0? 0? 0? 0? 0? 0? 0? 0? 0? 0? 0? 0? 0? 0? 0? 0? 0? 0? 0? 0? 0? 0? 0? 0? 0? 0? 0? ? ? ? ? ? ? ? ? ? ? ? ? ? ? ? ? ? ? ? ? ? ? ? ? ? ? ? ? ? ? ? ? ? ? ? ? ? ? ? ? ? ? ? ? ? ? ? ? ? ? ? ? ? ? ? ? ? ? ? ? ? ? ? ? ? ? ? ? ? ? ? ? ? ? ? ? ? ? ? ? ? ? ? ? ? ? ? ? ? ? ? ? ? ? ? ? ? ? ? ? ? ? ? ? ? ? ? ? ? ? ? ? ? ? ? ? ? ? ? ?                    >+ >+ >+ >+ >+ >+ >+ >+ >+ >+ >+ >+ >+ >+ >+ >+ >+ >+ >+ >+ >+ >+ >+ >+ >+ >+ >+ >+ >+ >+ >+ >+ >+ >+ >+ >+ >+ >+ >+ >+ >+ >+ >+ >+ >+ >+ >+ >+ >+ >+ >+ >+ >+ >+ >+ >+ >+ >+ >+ >+ >+ >+ >+ >+ >+ >+ >+ >+ >+ >+ >+ >+ >+ >+ >+ >+ >+ >+ >+ >+ >+ >+ >+ >+ >+ >+ >+ >+ >+ >+ >+ >+ >+ >+ >+ >+ >+ >+ >+ >+ >+ >+ >+ >+ >+ >+ >+ >+ >+ >+ >+ >+ >+ >+ >+ >+ >+ >+ >+ >+ >+ >+ >+ >+ >+ >+ >+ >+ >+ >+ >+ >+ >+ >+ >+ >+ >+ >+ >+ >+ >+ >+ >+ >+ >+ >+ >+ >+ >+ >+ >+ >+ >+ >+ >+ >+ >+ >+ >+ >+ >+ >+ >+ >+ >+ >+ >+ >+ + + + + H+ H+ H+ H+ H+ H+ H+ H+ H+ H+ H+ H+ H+ H+ H+ H+ H+ H+ H+ H+ H+ H+ H+ H+ H+ H+ H+ H+ H+ H+ H+ H+ H+ H+ H+ H+ H+ H+ H+ H+ H+ H+ H+ H+ H+ H+ H+ H+ H+ H+ H+ H+ H+ H+ H+ H+ H+ H+ H+ H+ H+ H+ H+ H+ H+ H+ H+ H+ H+ H+ H+ H+ H+ H+ H+ H+ H+ H+ H+ H+ H+ H+ H+ H+ H+ H+ H+ H+ H+ H+ H+ H+ H+ H+ H+ H+ H+ H+ H+ H+ H+ H+ H+ H+ H+ H+ H+ H+ H+ H+ H+ H+ H+ H+ H+ H+ H+ H+ H+ H+ H+ H+ H+ H+ H+ H+ H+ H+ H+ H+ H+ H+ H+ H+ H+ H+ H+ H+ H+ H+ H+ H+ H+ H+ H+ H+ H+ H+ H+ H+ H+ H+ H+ H+ H+ H+ H+ H+ H+ H+ + + + + + + + + + + +F +F +F +F +F +F +F +F +F +F +F +F +F +F +F +F +F +F +F +F +F +F +F +F +F +F +F +F +F +F +F +F F F F F F F F F F F F F F F F F F F F F F F F F F F F F F F F F F F F F F F F F F F F F F F F F F F F F F F F F F F F F F F F F F F F F F F F F F F F F F F F F F F F F F F F F F F F F F F F F F F F F F F F F F F F F F F F F F F F F F F F F F                    <( <( <( <( <( <( <( <( <( <( <( <( <( <( <( <( <( <( <( <( <( <( <( <( <( <( <( <( <( <( <( <( <( <( <( <( <( <( <( <( <( <( <( <( <( <( <( <( <( <( <( <( <( <( <( <( <( <( <( <( <( <( <( <( <( <( <( <( <( <( <( <( <( <( <( <( <( <( <( <( <( <( <( <( <( <( <( <( <( <( <( <( <( <( <( <( <( <( <( <( <( <( <( <( <( <( <( <( <( <( <( <( <( <( <( <( <( <( <( <( <( <( <( <( <( <( <( <( <( <( <( <( <( <( <( <( <( <( <( <( <( <( <( <( <( <( <( <( <( <( <( <( <( <( <( <( <( <( <( <( <( <( <( <( <( <( <( <( ( ( ( F( F( F( F( F( F( F( F( F( F( F( F( F( F( F( F( F( F( F( F( F( F( F( F( F( F( F( F( F( F( F( F( F( F( F( F( F( F( F( F( F( F( F( F( F( F( F( F( F( F( F( F( F( F( F( F( F( F( F( F( F( F( F( F( F( F( F( F( F( F( F( F( F( F( F( F( F( F( F( F( F( F( F( F( F( F( F( F( F( F( F( F( F( F( F( F( F( F( F( F( F( F( F( F( F( F( F( F( F( F( F( F( F( F( F( F( F( F( F( F( F( F( F( F( F( F( F( F( F( F( F( F( F( F( F( F( F( F( F( F( F( F( F( F( F( F( F( F( F( F( F( F( F( F( F( F( F( F( F( F( ( ( ( ( ( ( ( ( ( ( (E (E (E (E (E (E (E (E (E (E (E (E (E (E (E (E (E (E (E (E (E (E (E (E (E (E (E (E (E (E (E (E (E E E E E E E E E E E E E E E E E E E E E E E E E E E E E E E E E E E E E E E E E E E E E E E E E E E E E E E E E E E E E E E E E E E E E E E E E E E E E E E E E E E E E E E E E E E E E E E E E E E E E E E E E E E E E E E E E E E E E E E E E                    >* >* >* >* >* >* >* >* >* >* >* >* >* >* >* >* >* >* >* >* >* >* >* >* >* >* >* >* >* >* >* >* >* >* >* >* >* >* >* >* >* >* >* >* >* >* >* >* >* >* >* >* >* >* >* >* >* >* >* >* >* >* >* >* >* >* >* >* >* >* >* >* >* >* >* >* >* >* >* >* >* >* >* >* >* >* >* >* >* >* >* >* >* >* >* >* >* >* >* >* >* >* >* >* >* >* >* >* >* >* >* >* >* >* >* >* >* >* >* >* >* >* >* >* >* >* >* >* >* >* >* >* >* >* >* >* >* >* >* >* >* >* >* >* >* >* >* >* >* >* >* >* >* >* >* >* >* >* >* >* >* >* >* >* >* >* >* >* * * * * H* H* H* H* H* H* H* H* H* H* H* H* H* H* H* H* H* H* H* H* H* H* H* H* H* H* H* H* H* H* H* H* H* H* H* H* H* H* H* H* H* H* H* H* H* H* H* H* H* H* H* H* H* H* H* H* H* H* H* H* H* H* H* H* H* H* H* H* H* H* H* H* H* H* H* H* H* H* H* H* H* H* H* H* H* H* H* H* H* H* H* H* H* H* H* H* H* H* H* H* H* H* H* H* H* H* H* H* H* H* H* H* H* H* H* H* H* H* H* H* H* H* H* H* H* H* H* H* H* H* H* H* H* H* H* H* H* H* H* H* H* H* H* H* H* H* H* H* H* H* H* H* H* H* H* H* H* H* H* H* * * * * * * * * * * *F *F *F *F *F *F *F *F *F *F *F *F *F *F *F *F *F *F *F *F *F *F *F *F *F *F *F *F *F *F *F *F F F F F F F F F F F F F F F F F F F F F F F F F F F F F F F F F F F F F F F F F F F F F F F F F F F F F F F F F F F F F F F F F F F F F F F F F F F F F F F F F F F F F F F F F F F F F F F F F F F F F F F F F F F F F F F F F F F F F F F F F F                    @+ @+ @+ @+ @+ @+ @+ @+ @+ @+ @+ @+ @+ @+ @+ @+ @+ @+ @+ @+ @+ @+ @+ @+ @+ @+ @+ @+ @+ @+ @+ @+ @+ @+ @+ @+ @+ @+ @+ @+ @+ @+ @+ @+ @+ @+ @+ @+ @+ @+ @+ @+ @+ @+ @+ @+ @+ @+ @+ @+ @+ @+ @+ @+ @+ @+ @+ @+ @+ @+ @+ @+ @+ @+ @+ @+ @+ @+ @+ @+ @+ @+ @+ @+ @+ @+ @+ @+ @+ @+ @+ @+ @+ @+ @+ @+ @+ @+ @+ @+ @+ @+ @+ @+ @+ @+ @+ @+ @+ @+ @+ @+ @+ @+ @+ @+ @+ @+ @+ @+ @+ @+ @+ @+ @+ @+ @+ @+ @+ @+ @+ @+ @+ @+ @+ @+ @+ @+ @+ @+ @+ @+ @+ @+ @+ @+ @+ @+ @+ @+ @+ @+ @+ @+ @+ @+ @+ @+ @+ @+ @+ @+ @+ @+ @+ @+ @+ @+ + + + J+ J+ J+ J+ J+ J+ J+ J+ J+ J+ J+ J+ J+ J+ J+ J+ J+ J+ J+ J+ J+ J+ J+ J+ J+ J+ J+ J+ J+ J+ J+ J+ J+ J+ J+ J+ J+ J+ J+ J+ J+ J+ J+ J+ J+ J+ J+ J+ J+ J+ J+ J+ J+ J+ J+ J+ J+ J+ J+ J+ J+ J+ J+ J+ J+ J+ J+ J+ J+ J+ J+ J+ J+ J+ J+ J+ J+ J+ J+ J+ J+ J+ J+ J+ J+ J+ J+ J+ J+ J+ J+ J+ J+ J+ J+ J+ J+ J+ J+ J+ J+ J+ J+ J+ J+ J+ J+ J+ J+ J+ J+ J+ J+ J+ J+ J+ J+ J+ J+ J+ J+ J+ J+ J+ J+ J+ J+ J+ J+ J+ J+ J+ J+ J+ J+ J+ J+ J+ J+ J+ J+ J+ J+ J+ J+ J+ J+ J+ J+ J+ J+ J+ J+ J+ J+ J+ J+ J+ J+ J+ + + + + + + + + + + +H +H +H +H +H +H +H +H +H +H +H +H +H +H +H +H +H +H +H +H +H +H +H +H +H +H +H +H +H +H +H +H +H H H H H H H H H H H H H H H H H H H H H H H H H H H H H H H H H H H H H H H H H H H H H H H H H H H H H H H H H H H H H H H H H H H H H H H H H H H H H H H H H H H H H H H H H H H H H H H H H H H H H H H H H H H H H H H H H H H H H H H H H                    B- B- B- B- B- B- B- B- B- B- B- B- B- B- B- B- B- B- B- B- B- B- B- B- B- B- B- B- B- B- B- B- B- B- B- B- B- B- B- B- B- B- B- B- B- B- B- B- B- B- B- B- B- B- B- B- B- B- B- B- B- B- B- B- B- B- B- B- B- B- B- B- B- B- B- B- B- B- B- B- B- B- B- B- B- B- B- B- B- B- B- B- B- B- B- B- B- B- B- B- B- B- B- B- B- B- B- B- B- B- B- B- B- B- B- B- B- B- B- B- B- B- B- B- B- B- B- B- B- B- B- B- B- B- B- B- B- B- B- B- B- B- B- B- B- B- B- B- B- B- B- B- B- B- B- B- B- B- B- B- B- B- B- B- B- B- B- B- - - - - K- K- K- K- K- K- K- K- K- K- K- K- K- K- K- K- K- K- K- K- K- K- K- K- K- K- K- K- K- K- K- K- K- K- K- K- K- K- K- K- K- K- K- K- K- K- K- K- K- K- K- K- K- K- K- K- K- K- K- K- K- K- K- K- K- K- K- K- K- K- K- K- K- K- K- K- K- K- K- K- K- K- K- K- K- K- K- K- K- K- K- K- K- K- K- K- K- K- K- K- K- K- K- K- K- K- K- K- K- K- K- K- K- K- K- K- K- K- K- K- K- K- K- K- K- K- K- K- K- K- K- K- K- K- K- K- K- K- K- K- K- K- K- K- K- K- K- K- K- K- K- K- K- K- K- K- K- K- K- K- - - - - - - - - - - -J -J -J -J -J -J -J -J -J -J -J -J -J -J -J -J -J -J -J -J -J -J -J -J -J -J -J -J -J -J -J -J J J J J J J J J J J J J J J J J J J J J J J J J J J J J J J J J J J J J J J J J J J J J J J J J J J J J J J J J J J J J J J J J J J J J J J J J J J J J J J J J J J J J J J J J J J J J J J J J J J J J J J J J J J J J J J J J J J J J J J J J J                    C. C. C. C. C. C. C. C. C. C. C. C. C. C. C. C. C. C. C. C. C. C. C. C. C. C. C. C. C. C. C. C. C. C. C. C. C. C. C. C. C. C. C. C. C. C. C. C. C. C. C. C. C. C. C. C. C. C. C. C. C. C. C. C. C. C. C. C. C. C. C. C. C. C. C. C. C. C. C. C. C. C. C. C. C. C. C. C. C. C. C. C. C. C. C. C. C. C. C. C. C. C. C. C. C. C. C. C. C. C. C. C. C. C. C. C. C. C. C. C. C. C. C. C. C. C. C. C. C. C. C. C. C. C. C. C. C. C. C. C. C. C. C. C. C. C. C. C. C. C. C. C. C. C. C. C. C. C. C. C. C. C. C. C. C. C. C. C. . . . H. H. H. H. H. H. H. H. H. H. H. H. H. H. H. H. H. H. H. H. H. H. H. H. H. H. H. H. H. H. H. H. H. H. H. H. H. H. H. H. H. H. H. H. H. H. H. H. H. H. H. H. H. H. H. H. H. H. H. H. H. H. H. H. H. H. H. H. H. H. H. H. H. H. H. H. H. H. H. H. H. H. H. H. H. H. H. H. H. H. H. H. H. H. H. H. H. H. H. H. H. H. H. H. H. H. H. H. H. H. H. H. H. H. H. H. H. H. H. H. H. H. H. H. H. H. H. H. H. H. H. H. H. H. H. H. H. H. H. H. H. H. H. H. H. H. H. H. H. H. H. H. H. H. H. H. H. H. H. H. . . . . . . . . . . . .F .F .F .F .F .F .F .F .F .F .F .F .F .F .F .F .F .F .F .F .F .F .F .F .F .F .F .F .F .F .F .F F F F F F F F F F F F F F F F F F F F F F F F F F F F F F F F F F F F F F F F F F F F F F F F F F F F F F F F F F F F F F F F F F F F F F F F F F F F F F F F F F F F F F F F F F F F F F F F F F F F F F F F F F F F F F F F F F F F F F F F F F                   E0 E0 E0 E0 E0 E0 E0 E0 E0 E0 E0 E0 E0 E0 E0 E0 E0 E0 E0 E0 E0 E0 E0 E0 E0 E0 E0 E0 E0 E0 E0 E0 E0 E0 E0 E0 E0 E0 E0 E0 E0 E0 E0 E0 E0 E0 E0 E0 E0 E0 E0 E0 E0 E0 E0 E0 E0 E0 E0 E0 E0 E0 E0 E0 E0 E0 E0 E0 E0 E0 E0 E0 E0 E0 E0 E0 E0 E0 E0 E0 E0 E0 E0 E0 E0 E0 E0 E0 E0 E0 E0 E0 E0 E0 E0 E0 E0 E0 E0 E0 E0 E0 E0 E0 E0 E0 E0 E0 E0 E0 E0 E0 E0 E0 E0 E0 E0 E0 E0 E0 E0 E0 E0 E0 E0 E0 E0 E0 E0 E0 E0 E0 E0 E0 E0 E0 E0 E0 E0 E0 E0 E0 E0 E0 E0 E0 E0 E0 E0 E0 E0 E0 E0 E0 E0 E0 E0 E0 E0 E0 E0 E0 E0 E0 E0 E0 E0 E0 0 0 0 0 F0 F0 F0 F0 F0 F0 F0 F0 F0 F0 F0 F0 F0 F0 F0 F0 F0 F0 F0 F0 F0 F0 F0 F0 F0 F0 F0 F0 F0 F0 F0 F0 F0 F0 F0 F0 F0 F0 F0 F0 F0 F0 F0 F0 F0 F0 F0 F0 F0 F0 F0 F0 F0 F0 F0 F0 F0 F0 F0 F0 F0 F0 F0 F0 F0 F0 F0 F0 F0 F0 F0 F0 F0 F0 F0 F0 F0 F0 F0 F0 F0 F0 F0 F0 F0 F0 F0 F0 F0 F0 F0 F0 F0 F0 F0 F0 F0 F0 F0 F0 F0 F0 F0 F0 F0 F0 F0 F0 F0 F0 F0 F0 F0 F0 F0 F0 F0 F0 F0 F0 F0 F0 F0 F0 F0 F0 F0 F0 F0 F0 F0 F0 F0 F0 F0 F0 F0 F0 F0 F0 F0 F0 F0 F0 F0 F0 F0 F0 F0 F0 F0 F0 F0 F0 F0 F0 F0 F0 F0 F0 0 0 0 0 0 0 0 0 0 0 0C 0C 0C 0C 0C 0C 0C 0C 0C 0C 0C 0C 0C 0C 0C 0C 0C 0C 0C 0C 0C 0C 0C 0C 0C 0C 0C 0C 0C 0C 0C 0C C C C C C C C C C C C C C C C C C C C C C C C C C C C C C C C C C C C C C C C C C C C C C C C C C C C C C C C C C C C C C C C C C C C C C C C C C C C C C C C C C C C C C C C C C C C C C C C C C C C C C C C C C C C C C C C C C C C C C C C C C                    B2 B2 B2 B2 B2 B2 B2 B2 B2 B2 B2 B2 B2 B2 B2 B2 B2 B2 B2 B2 B2 B2 B2 B2 B2 B2 B2 B2 B2 B2 B2 B2 B2 B2 B2 B2 B2 B2 B2 B2 B2 B2 B2 B2 B2 B2 B2 B2 B2 B2 B2 B2 B2 B2 B2 B2 B2 B2 B2 B2 B2 B2 B2 B2 B2 B2 B2 B2 B2 B2 B2 B2 B2 B2 B2 B2 B2 B2 B2 B2 B2 B2 B2 B2 B2 B2 B2 B2 B2 B2 B2 B2 B2 B2 B2 B2 B2 B2 B2 B2 B2 B2 B2 B2 B2 B2 B2 B2 B2 B2 B2 B2 B2 B2 B2 B2 B2 B2 B2 B2 B2 B2 B2 B2 B2 B2 B2 B2 B2 B2 B2 B2 B2 B2 B2 B2 B2 B2 B2 B2 B2 B2 B2 B2 B2 B2 B2 B2 B2 B2 B2 B2 B2 B2 B2 B2 B2 B2 B2 B2 B2 B2 B2 B2 B2 B2 B2 B2 B2 B2 ?B2 ?B2 ?B2 ?B2 ?B2 ?B2 ?B2 ?B2 ?B2 ?B2 ?B2 ?B2 ?B2 ?B2 ?B2 ?B2 ?B2 ?B2 ?B2 ?B2 ?B2 ?B2 ?B2 ?B2 ?B2 ?B2 ?B2 ?B2 ?B2 ?B2 ?B2 ?B2 ?B2 ?B2 ?B2 ?B2 ?B2 ?B2 ?B2 ?B2 ?B2 ?B2 ?B2 ?B2 ?B2 ?B2 ?B2 ?B2 ?B2 ?B2 ?B2 ?B2 ?B2 ?B2 ?B2 ?B2 ?B2 ?B2 ?B2 ?B2 ?B2 ?B2 ?B2 ?B2 ?B2 ?B2 ?B2 ?B2 ?B2 ?B2 ?B2 ?B2 ?B2 ?B2 ?B2 ?B2 ?B2 ?B2 ?B2 ?B2 ?B2 ?B2 ?B2 ?B2 ?B2 ?B2 ?B2 ?B2 ?B2 ?B2 ?B2 ?B2 ?B2 ?B2 ?B2 ?B2 ?B2 ?B2 ?B2 ?B2 ?B2 ?B2 ?B2 ?B2 ?B2 ?B2 ?B2 ?B2 ?B2 ?B2 ?B2 ?B2 ?B2 ?B2 ?B2 ?B2 ?B2 ?B2 ?B2 ?B2 ?B2 ?B2 ?B2 ?B2 ?B2 ?B2 ?B2 ?B2 ?B2 ?B2 ?B2 ?B2 ?B2 ?B2 ?B2 ?B2 ?B2 ?B2 ?B2 ?B2 ?B2 ?B2 ?B2 ?B2 ?B2 ?B2 ?B2 ?B2 ?B2 ?B2 ?B2 ?B2 ?B2 ?B2 ?B2 ?B2 ?B2 ?B2 ?B2 ?B2 B2 B2 B2 B2 B2 B2 B2 B2 2 2 2> 2> 2> 2> 2> 2> 2> 2> 2> 2> 2> 2> 2> 2> 2> 2> 2> 2> 2> 2> 2> 2> 2> 2> 2> 2> 2> 2> 2> 2> 2> 2> > > > > > > > > > > > > > > > > > > > > > > > > > > > > > > > > > > > > > > > > > > > > > > > > > > > > > > > > > > > > > > > > > > > > > > > > > > > > > > > > > > > > > > > > > > > > > > > > > > > > > > > > > > > > > > > > > > > > > > > > >                    C4 C4 C4 C4 C4 C4 C4 C4 C4 C4 C4 C4 C4 C4 C4 C4 C4 C4 C4 C4 C4 C4 C4 C4 C4 C4 C4 C4 C4 C4 C4 C4 C4 C4 C4 C4 C4 C4 C4 C4 C4 C4 C4 C4 C4 C4 C4 C4 C4 C4 C4 C4 C4 C4 C4 C4 C4 C4 C4 C4 C4 C4 C4 C4 C4 C4 C4 C4 C4 C4 C4 C4 C4 C4 C4 C4 C4 C4 C4 C4 C4 C4 C4 C4 C4 C4 C4 C4 C4 C4 C4 C4 C4 C4 C4 C4 C4 C4 C4 C4 C4 C4 C4 C4 C4 C4 C4 C4 C4 C4 C4 C4 C4 C4 C4 C4 C4 C4 C4 C4 C4 C4 C4 C4 C4 C4 C4 C4 C4 C4 C4 C4 C4 C4 C4 C4 C4 C4 C4 C4 C4 C4 C4 C4 C4 C4 C4 C4 C4 C4 C4 C4 C4 C4 C4 C4 C4 C4 C4 C4 C4 C4 C4 C4 C4 C4 C4 C4 C4 C4 >C4 >C4 >C4 >C4 >C4 >C4 >C4 >C4 >C4 >C4 >C4 >C4 >C4 >C4 >C4 >C4 >C4 >C4 >C4 >C4 >C4 >C4 >C4 >C4 >C4 >C4 >C4 >C4 >C4 >C4 >C4 >C4 >C4 >C4 >C4 >C4 >C4 >C4 >C4 >C4 >C4 >C4 >C4 >C4 >C4 >C4 >C4 >C4 >C4 >C4 >C4 >C4 >C4 >C4 >C4 >C4 >C4 >C4 >C4 >C4 >C4 >C4 >C4 >C4 >C4 >C4 >C4 >C4 >C4 >C4 >C4 >C4 >C4 >C4 >C4 >C4 >C4 >C4 >C4 >C4 >C4 >C4 >C4 >C4 >C4 >C4 >C4 >C4 >C4 >C4 >C4 >C4 >C4 >C4 >C4 >C4 >C4 >C4 >C4 >C4 >C4 >C4 >C4 >C4 >C4 >C4 >C4 >C4 >C4 >C4 >C4 >C4 >C4 >C4 >C4 >C4 >C4 >C4 >C4 >C4 >C4 >C4 >C4 >C4 >C4 >C4 >C4 >C4 >C4 >C4 >C4 >C4 >C4 >C4 >C4 >C4 >C4 >C4 >C4 >C4 >C4 >C4 >C4 >C4 >C4 >C4 >C4 >C4 >C4 >C4 >C4 >C4 >C4 >C4 >C4 >C4 >C4 >C4 >C4 >C4 C4 C4 C4 C4 C4 C4 C4 C4 4 4 4< 4< 4< 4< 4< 4< 4< 4< 4< 4< 4< 4< 4< 4< 4< 4< 4< 4< 4< 4< 4< 4< 4< 4< 4< 4< 4< 4< 4< 4< 4< 4< < < < < < < < < < < < < < < < < < < < < < < < < < < < < < < < < < < < < < < < < < < < < < < < < < < < < < < < < < < < < < < < < < < < < < < < < < < < < < < < < < < < < < < < < < < < < < < < < < < < < < < < < < < < < < < < < < < < < < < < < <                    E6 E6 E6 E6 E6 E6 E6 E6 E6 E6 E6 E6 E6 E6 E6 E6 E6 E6 E6 E6 E6 E6 E6 E6 E6 E6 E6 E6 E6 E6 E6 E6 E6 E6 E6 E6 E6 E6 E6 E6 E6 E6 E6 E6 E6 E6 E6 E6 E6 E6 E6 E6 E6 E6 E6 E6 E6 E6 E6 E6 E6 E6 E6 E6 E6 E6 E6 E6 E6 E6 E6 E6 E6 E6 E6 E6 E6 E6 E6 E6 E6 E6 E6 E6 E6 E6 E6 E6 E6 E6 E6 E6 E6 E6 E6 E6 E6 E6 E6 E6 E6 E6 E6 E6 E6 E6 E6 E6 E6 E6 E6 E6 E6 E6 E6 E6 E6 E6 E6 E6 E6 E6 E6 E6 E6 E6 E6 E6 E6 E6 E6 E6 E6 E6 E6 E6 E6 E6 E6 E6 E6 E6 E6 E6 E6 E6 E6 E6 E6 E6 E6 E6 E6 E6 E6 E6 E6 E6 E6 E6 E6 E6 E6 E6 E6 E6 E6 E6 E6 E6 E>6 E>6 E>6 E>6 E>6 E>6 E>6 E>6 E>6 E>6 E>6 E>6 E>6 E>6 E>6 E>6 E>6 E>6 E>6 E>6 E>6 E>6 E>6 E>6 E>6 E>6 E>6 E>6 E>6 E>6 E>6 E>6 E>6 E>6 E>6 E>6 E>6 E>6 E>6 E>6 E>6 E>6 E>6 E>6 E>6 E>6 E>6 E>6 E>6 E>6 E>6 E>6 E>6 E>6 E>6 E>6 E>6 E>6 E>6 E>6 E>6 E>6 E>6 E>6 E>6 E>6 E>6 E>6 E>6 E>6 E>6 E>6 E>6 E>6 E>6 E>6 E>6 E>6 E>6 E>6 E>6 E>6 E>6 E>6 E>6 E>6 E>6 E>6 E>6 E>6 E>6 E>6 E>6 E>6 E>6 E>6 E>6 E>6 E>6 E>6 E>6 E>6 E>6 E>6 E>6 E>6 E>6 E>6 E>6 E>6 E>6 E>6 E>6 E>6 E>6 E>6 E>6 E>6 E>6 E>6 E>6 E>6 E>6 E>6 E>6 E>6 E>6 E>6 E>6 E>6 E>6 E>6 E>6 E>6 E>6 E>6 E>6 E>6 E>6 E>6 E>6 E>6 E>6 E>6 E>6 E>6 E>6 E>6 E>6 >6 >6 >6 >6 >6 >6 >6 >6 >6 >6 >6 6 6 6 6 6 6     <& <& <& <& <& <& <& <& <& <& <& <& <& <& <& <& <& <& <& <& <& <& <& <& <& <& <& <& <& <& <& <& <& <& <& <& <& <& <& <& <& <& <& <& <& <& <& <& <& <& <& <& <& <& <& <& <& <& <& <& <& <& <& <& <& <& <& <& <& <& <& <& <& <& <& <& <& <& <& <& <& <& <& <& <& <& <& <& <& <& <& <& <& <& <& <& <& <& <& <& <& <& <& <& <& <& <& <& <& <& <& <& <& <& <& <& <& <& <& <& <& <& <& <& <& <& <& <& <& <& <& <& <& <& <& <& <& <& <& <& <& <& <& <& <& <& <& <& <& <& <& <& <&                    :( :( :( :( :( :( :( :( :( :( :( :( :( :( :( :( :( :( :( :( :( :( :( :( :( :( :( :( :( :( :( :( :( :( :( :( :( :( :( :( :( :( :( :( :( :( :( :( :( :( :( :( :( :( :( :( :( :( :( :( :( :( :( :( :( :( :( :( :( :( :( :( :( :( :( :( :( :( :( :( :( :( :( :( :( :( :( :( :( :( :( :( :( :( :( :( :( :( :( :( :( :( :( :( :( :( :( :( :( :( :( :( :( :( :( :( :( :( :( :( :( :( :( :( :( :( :( :( :( :( :( :( :( :( :( :( :( :( :( :( :( :( :( :( :( :( :( :( :( :( :( :( :( :( :( :( :( :( :( :( :( :( :( :( :( :( :( :( ( ( ( <( <( <( <( <( <( <( <( <( <( <( <( <( <( <( <( <( <( <( <( <( <( <( <( <( <( <( <( <( <( <( <( <( <( <( <( <( <( <( <( <( <( <( <( <( <( <( <( <( <( <( <( <( <( <( <( <( <( <( <( <( <( <( <( <( <( <( <( <( <( <( <( <( <( <( <( <( <( <( <( <( <( <( <( <( <( <( <( <( <( <( <( <( <( <( <( <( <( <( <( <( <( <( <( <( <( <( <( <( <( <( <( <( <( <( <( <( <( <( <( <( <( <( <( <( <( <( <( <( <( <( <( <( <( <( <( <( <( <( <( <( <( <( <( <( <( <( <( <( <( <( <( <( <( <( <( <( <( <( <( ( ( ( ( ( ( (    9* 9* 9* 9* 9* 9* 9* 9* 9* 9* 9* 9* 9* 9* 9* 9* 9* 9* 9* 9* 9* 9* 9* 9* 9* 9* 9* 9* 9* 9* 9* 9* 9* 9* 9* 9* 9* 9* 9* 9* 9* 9* 9* 9* 9* 9* 9* 9* 9* 9* 9* 9* 9* 9* 9* 9* 9* 9* 9* 9* 9* 9* 9* 9* 9* 9* 9* 9* 9* 9* 9* 9* 9* 9* 9* 9* 9* 9* 9* 9* 9* 9* 9* 9* 9* 9* 9* 9* 9* 9* 9* 9* 9* 9* 9* 9* 9* 9* 9* 9* 9* 9* 9* 9* 9* 9* 9* 9* 9* 9* 9* 9* 9* 9* 9* 9* 9* 9* 9* 9* 9* 9* 9* 9* 9* 9* 9* 9* 9* 9* 9* 9* 9* 9* 9* 9* 9* 9* 9* 9* 9* 9* 9* 9* 9* 9* 9* 9* 9* 9* 9* 9* 9*                    :+ :+ :+ :+ :+ :+ :+ :+ :+ :+ :+ :+ :+ :+ :+ :+ :+ :+ :+ :+ :+ :+ :+ :+ :+ :+ :+ :+ :+ :+ :+ :+ :+ :+ :+ :+ :+ :+ :+ :+ :+ :+ :+ :+ :+ :+ :+ :+ :+ :+ :+ :+ :+ :+ :+ :+ :+ :+ :+ :+ :+ :+ :+ :+ :+ :+ :+ :+ :+ :+ :+ :+ :+ :+ :+ :+ :+ :+ :+ :+ :+ :+ :+ :+ :+ :+ :+ :+ :+ :+ :+ :+ :+ :+ :+ :+ :+ :+ :+ :+ :+ :+ :+ :+ :+ :+ :+ :+ :+ :+ :+ :+ :+ :+ :+ :+ :+ :+ :+ :+ :+ :+ :+ :+ :+ :+ :+ :+ :+ :+ :+ :+ :+ :+ :+ :+ :+ :+ :+ :+ :+ :+ :+ :+ :+ :+ :+ :+ :+ :+ :+ :+ :+ :+ :+ :+ :+ :+ :+ :+ :+ :+ :+ :+ :+ :+ :+ :+ :+ :+ :9+ :9+ :9+ :9+ :9+ :9+ :9+ :9+ :9+ :9+ :9+ :9+ :9+ :9+ :9+ :9+ :9+ :9+ :9+ :9+ :9+ :9+ :9+ :9+ :9+ :9+ :9+ :9+ :9+ :9+ :9+ :9+ :9+ :9+ :9+ :9+ :9+ :9+ :9+ :9+ :9+ :9+ :9+ :9+ :9+ :9+ :9+ :9+ :9+ :9+ :9+ :9+ :9+ :9+ :9+ :9+ :9+ :9+ :9+ :9+ :9+ :9+ :9+ :9+ :9+ :9+ :9+ :9+ :9+ 9+ 9+ 9+ 9+ 9+ 9+ 9+ 9+ 9+ 9+ 9+ 9+ 9+ 9+ 9+ 9+ 9+ 9+ 9+ 9+ 9+ 9+ 9+ 9+ 9+ 9+ 9+ 9+ 9+ 9+ 9+ 9+ 9+ 9+ 9+ 9+ 9+ 9+ 9+ 9+ 9+ 9+ 9+ 9+ 9+ 9+ 9+ 9+ 9+ 9+ 9+ 9+ 9+ 9+ 9+ 9+ 9+ 9+ 9+ 9+ 9+ 9+ 9+ 9+ 9+ 9+ 9+ 9+ 9+ 9+ 9+ 9+ 9+ 9+ 9+ 9+ 9+ 9+ 9+ 9+ 9+ 9+ 9+ 9+ 9+ 9+ 9+ 9+ 9+ 9+ 9+ 9+ 9+ + + + + + + + + + + +7 +7 +7 +7 +7 +7 +7 +7 +7 +7 +7 +7 +7 +7 +7 +7 +7 +7 +7 +7 +7 +7 +7 +7 +7 +7 +7 +7 +7 +7 +7 +7 7 7 7 7 7 7 7 7 7 7 7 7 7 7 7 7 7 7 7 7 7 7 7 7 7 7 7 7 7 7 7 7 7 7 7 7 7 7 7 7 7 7 7 7 7 7 7 7 7 7 7 7 7 7 7 7 7 7 7 7 7 7 7 7 7 7 7 7 7 7 7 7 7 7 7 7 7 7 7 7 7 7 7 7 7 7 7 7 7 7 7 7 7 7 7 7 7 7 7 7 7 7 7 7 7 7 7 7 7 7 7 7 7 7 7 7 7 7 7 7 7                    <- <- <- <- <- <- <- <- <- <- <- <- <- <- <- <- <- <- <- <- <- <- <- <- <- <- <- <- <- <- <- <- <- <- <- <- <- <- <- <- <- <- <- <- <- <- <- <- <- <- <- <- <- <- <- <- <- <- <- <- <- <- <- <- <- <- <- <- <- <- <- <- <- <- <- <- <- <- <- <- <- <- <- <- <- <- <- <- <- <- <- <- <- <- <- <- <- <- <- <- <- <- <- <- <- <- <- <- <- <- <- <- <- <- <- <- <- <- <- <- <- <- <- <- <- <- <- <- <- <- <- <- <- <- <- <- <- <- <- <- <- <- <- <- <- <- <- <- <- <- <- <- <- <- <- <- <- <- <- <- <- <- <- <- <- <- <- <- <- <- <9- <9- <9- <9- <9- <9- <9- <9- <9- <9- <9- <9- <9- <9- <9- <9- <9- <9- <9- <9- <9- <9- <9- <9- <9- <9- <9- <9- <9- <9- <9- <9- <9- <9- <9- <9- <9- <9- <9- <9- <9- <9- <9- <9- <9- <9- <9- <9- <9- <9- <9- <9- <9- <9- <9- <9- <9- <9- <9- <9- <9- <9- <9- <9- <9- <9- <9- <9- <9- 9- 9- 9- 9- 9- 9- 9- 9- 9- 9- 9- 9- 9- 9- 9- 9- 9- 9- 9- 9- 9- 9- 9- 9- 9- 9- 9- 9- 9- 9- 9- 9- 9- 9- 9- 9- 9- 9- 9- 9- 9- 9- 9- 9- 9- 9- 9- 9- 9- 9- 9- 9- 9- 9- 9- 9- 9- 9- 9- 9- 9- 9- 9- 9- 9- 9- 9- 9- 9- 9- 9- 9- 9- 9- 9- 9- 9- 9- 9- 9- 9- 9- 9- 9- 9- 9- 9- 9- 9- 9- 9- 9- 9- - - - - - - - - - -7 -7 -7 -7 -7 -7 -7 -7 -7 -7 -7 -7 -7 -7 -7 -7 -7 -7 -7 -7 -7 -7 -7 -7 -7 -7 -7 -7 -7 -7 -7 -7 -7 7 7 7 7 7 7 7 7 7 7 7 7 7 7 7 7 7 7 7 7 7 7 7 7 7 7 7 7 7 7 7 7 7 7 7 7 7 7 7 7 7 7 7 7 7 7 7 7 7 7 7 7 7 7 7 7 7 7 7 7 7 7 7 7 7 7 7 7 7 7 7 7 7 7 7 7 7 7 7 7 7 7 7 7 7 7 7 7 7 7 7 7 7 7 7 7 7 7 7 7 7 7 7 7 7 7 7 7 7 7 7 7 7 7 7 7 7 7 7 7                    >. >. >. >. >. >. >. >. >. >. >. >. >. >. >. >. >. >. >. >. >. >. >. >. >. >. >. >. >. >. >. >. >. >. >. >. >. >. >. >. >. >. >. >. >. >. >. >. >. >. >. >. >. >. >. >. >. >. >. >. >. >. >. >. >. >. >. >. >. >. >. >. >. >. >. >. >. >. >. >. >. >. >. >. >. >. >. >. >. >. >. >. >. >. >. >. >. >. >. >. >. >. >. >. >. >. >. >. >. >. >. >. >. >. >. >. >. >. >. >. >. >. >. >. >. >. >. >. >. >. >. >. >. >. >. >. >. >. >. >. >. >. >. >. >. >. >. >. >. >. >. >. >. >. >. >. >. >. >. >. >. >. >. >. >. >. >. >. >. >. >9. >9. >9. >9. >9. >9. >9. >9. >9. >9. >9. >9. >9. >9. >9. >9. >9. >9. >9. >9. >9. >9. >9. >9. >9. >9. >9. >9. >9. >9. >9. >9. >9. >9. >9. >9. >9. >9. >9. >9. >9. >9. >9. >9. >9. >9. >9. >9. >9. >9. >9. >9. >9. >9. >9. >9. >9. >9. >9. >9. >9. >9. >9. >9. >9. >9. >9. >9. >9. 9. 9. 9. 9. 9. 9. 9. 9. 9. 9. 9. 9. 9. 9. 9. 9. 9. 9. 9. 9. 9. 9. 9. 9. 9. 9. 9. 9. 9. 9. 9. 9. 9. 9. 9. 9. 9. 9. 9. 9. 9. 9. 9. 9. 9. 9. 9. 9. 9. 9. 9. 9. 9. 9. 9. 9. 9. 9. 9. 9. 9. 9. 9. 9. 9. 9. 9. 9. 9. 9. 9. 9. 9. 9. 9. 9. 9. 9. 9. 9. 9. 9. 9. 9. 9. 9. 9. 9. 9. 9. 9. 9. 9. . . . . . . . . . . .7 .7 .7 .7 .7 .7 .7 .7 .7 .7 .7 .7 .7 .7 .7 .7 .7 .7 .7 .7 .7 .7 .7 .7 .7 .7 .7 .7 .7 .7 .7 .7 7 7 7 7 7 7 7 7 7 7 7 7 7 7 7 7 7 7 7 7 7 7 7 7 7 7 7 7 7 7 7 7 7 7 7 7 7 7 7 7 7 7 7 7 7 7 7 7 7 7 7 7 7 7 7 7 7 7 7 7 7 7 7 7 7 7 7 7 7 7 7 7 7 7 7 7 7 7 7 7 7 7 7 7 7 7 7 7 7 7 7 7 7 7 7 7 7 7 7 7 7 7 7 7 7 7 7 7 7 7 7 7 7 7 7 7 7 7 7 7 7                    ?0 ?0 ?0 ?0 ?0 ?0 ?0 ?0 ?0 ?0 ?0 ?0 ?0 ?0 ?0 ?0 ?0 ?0 ?0 ?0 ?0 ?0 ?0 ?0 ?0 ?0 ?0 ?0 ?0 ?0 ?0 ?0 ?0 ?0 ?0 ?0 ?0 ?0 ?0 ?0 ?0 ?0 ?0 ?0 ?0 ?0 ?0 ?0 ?0 ?0 ?0 ?0 ?0 ?0 ?0 ?0 ?0 ?0 ?0 ?0 ?0 ?0 ?0 ?0 ?0 ?0 ?0 ?0 ?0 ?0 ?0 ?0 ?0 ?0 ?0 ?0 ?0 ?0 ?0 ?0 ?0 ?0 ?0 ?0 ?0 ?0 ?0 ?0 ?0 ?0 ?0 ?0 ?0 ?0 ?0 ?0 ?0 ?0 ?0 ?0 ?0 ?0 ?0 ?0 ?0 ?0 ?0 ?0 ?0 ?0 ?0 ?0 ?0 ?0 ?0 ?0 ?0 ?0 ?0 ?0 ?0 ?0 ?0 ?0 ?0 ?0 ?0 ?0 ?0 ?0 ?0 ?0 ?0 ?0 ?0 ?0 ?0 ?0 ?0 ?0 ?0 ?0 ?0 ?0 ?0 ?0 ?0 ?0 ?0 ?0 ?0 ?0 ?0 ?0 ?0 ?0 ?0 ?0 ?0 ?0 ?0 ?0 ?0 ?0 ?0 ?0 ?0 ?0 ?0 ?0 ?90 ?90 ?90 ?90 ?90 ?90 ?90 ?90 ?90 ?90 ?90 ?90 ?90 ?90 ?90 ?90 ?90 ?90 ?90 ?90 ?90 ?90 ?90 ?90 ?90 ?90 ?90 ?90 ?90 ?90 90 90 90 90 90 90 90 90 90 90 90 90 90 90 90 90 90 90 90 90 90 90 90 90 90 90 90 90 90 90 90 90 90 90 90 90 90 90 90 90 90 90 90 90 90 90 90 90 90 90 90 90 90 90 90 90 90 90 90 90 90 90 90 90 90 90 90 90 90 90 90 90 90 90 90 90 90 90 90 90 90 90 90 90 90 90 90 90 90 90 90 90 90 90 90 90 90 90 90 90 90 90 90 90 90 90 90 90 90 90 90 90 90 90 90 90 90 90 90 90 90 90 90 90 90 90 90 90 90 90 90 90 0 0 0 0 0 0 0 0 0 0 07 07 07 07 07 07 07 07 07 07 07 07 07 07 07 07 07 07 07 07 07 07 07 07 07 07 07 07 07 07 07 07 7 7 7 7 7 7 7 7 7 7 7 7 7 7 7 7 7 7 7 7 7 7 7 7 7 7 7 7 7 7 7 7 7 7 7 7 7 7 7 7 7 7 7 7 7 7 7 7 7 7 7 7 7 7 7 7 7 7 7 7 7 7 7 7 7 7 7 7 7 7 7 7 7 7 7 7 7 7 7 7 7 7 7 7 7 7 7 7 7 7 7 7 7 7 7 7 7 7 7 7 7 7 7 7 7 7 7 7 7 7 7 7 7 7 7 7 7 7 7 7 7                   62 62 62 62 62 62 62 62 62 62 62 62 62 62 62 62 62 62 62 62 62 62 62 62 62 62 62 62 62 62 62 62 62 62 62 62 62 62 62 62 62 62 62 62 62 62 62 62 62 62 62 62 62 62 62 62 62 62 62 62 62 62 62 62 62 62 62 62 62 62 62 62 62 62 62 62 62 62 62 62 62 62 62 62 62 62 62 62 62 62 62 62 62 62 62 62 62 62 62 62 62 62 62 62 62 62 62 62 62 62 62 62 62 62 62 62 62 62 62 62 62 62 62 62 62 62 62 62 62 62 62 62 62 62 62 62 62 62 62 62 62 62 62 62 62 62 62 62 62 62 62 62 62 62 62 62 62 62 62 62 62 62 62 62 62 62 62 62     74 74 74 74 74 74 74 74 74 74 74 74 74 74 74 74 74 74 74 74 74 74 74 74 74 74 74 74 74 74 74 74 74 74 74 74 74 74 74 74 74 74 74 74 74 74 74 74 74 74 74 74 74 74 74 74 74 74 74 74 74 74 74 74 74 74 74 74 74 74 74 74 74 74 74 74 74 74 74 74 74 74 74 74 74 74 74 74 74 74 74 74 74 74 74 74 74 74 74 74 74 74 74 74 74 74 74 74 74 74 74 74 74 74 74 74 74 74 74 74 74 74 74 74 74 74 74 74 74 74 74 74 74 74 74 74 74 74 74 74 74 74 74 74 74 74 74 74 74 74 74 74 74 74 74 74 74 74 74 74           96 96 96 96 96 96 96 96 96 96 96 96 96 96 96 96 96 96 96 96 96 96 96 96 96 96 96 96 96 96 96 96 96 96 96 96 96 96 96 96 96 96 96 96 96 96 96 96 96 96 96 96 96 96 96 96 96 96 96 96 96 96 96 96 96 96 96 96 96 96 96 96 96 96 96 96 96 96 96 96 96 96 96 96 96 96 96 96 96 96 96 96 96 96 96 96 96 96 96 96 96 96 96 96 96 96 96 96 96 96 96 96 96 96 96 96 96 96 96 96 96 96 96 96 96 96 96 96 96 96 96 96 96 96 96 96 96 96 96 96 96 96 96 96 96 96 96 96 96 96 96 96 96                    :+ :+ :+ :+ :+ :+ :+ :+ :+ :+ :+ :+ :+ :+ :+ :+ :+ :+ :+ :+ :+ :+ :+ :+ :+ :+ :+ :+ :+ :+ :+ :+ :+ :+ :+ :+ :+ :+ :+ :+ :+ :+ :+ :+ :+ :+ :+ :+ :+ :+ :+ :+ :+ :+ :+ :+ :+ :+ :+ :+ :+ :+ :+ :+ :+ :+ :+ :+ :+ :+ :+ :+ :+ :+ :+ :+ :+ :+ :+ :+ :+ :+ :+ :+ :+ :+ :+ :+ :+ :+ :+ :+ :+ :+ :+ :+ :+ :+ :+ :+ :+ :+ :+ :+ :+ :+ :+ :+ :+ :+ :+ :+ :+ :+ :+ :+ :+ :+ :+ :+ :+ :+ :+ :+ :+ :+ :+ :+ :+ :+ :+ :+ :+ :+ :+ :+ :+ :+ :+ :+ :+ :+ :+ :+ :+ :+ :+ :+ :+ :+ :+ :+ :+ :+ :+ :+ :+ :+ :+ :+ :+ :+ :+ :+ :+ :+ :+ :+     <- <- <- <- <- <- <- <- <- <- <- <- <- <- <- <- <- <- <- <- <- <- <- <- <- <- <- <- <- <- <- <- <- <- <- <- <- <- <- <- <- <- <- <- <- <- <- <- <- <- <- <- <- <- <- <- <- <- <- <- <- <- <- <- <- <- <- <- <- <- <- <- <- <- <- <- <- <- <- <- <- <- <- <- <- <- <- <- <- <- <- <- <- <- <- <- <- <- <- <- <- <- <- <- <- <- <- <- <- <- <- <- <- <- <- <- <- <- <- <- <- <- <- <- <- <- <- <- <- <- <- <- <- <- <- <- <- <- <- <- <- <- <- <- <- <- <- <- <- <- <- <- <- <- <- <- <- <- <- <-           >. >. >. >. >. >. >. >. >. >. >. >. >. >. >. >. >. >. >. >. >. >. >. >. >. >. >. >. >. >. >. >. >. >. >. >. >. >. >. >. >. >. >. >. >. >. >. >. >. >. >. >. >. >. >. >. >. >. >. >. >. >. >. >. >. >. >. >. >. >. >. >. >. >. >. >. >. >. >. >. >. >. >. >. >. >. >. >. >. >. >. >. >. >. >. >. >. >. >. >. >. >. >. >. >. >. >. >. >. >. >. >. >. >. >. >. >. >. >. >. >. >. >. >. >. >. >. >. >. >. >. >. >. >. >. >. >. >. >. >. >. >. >. >. >. >. >. >. >. >. >. >. >.                   0? 0? 0? 0? 0? 0? 0? 0? 0? 0? 0? 0? 0? 0? 0? 0? 0? 0? 0? 0? 0? 0? 0? 0? 0? 0? 0? 0? 0? 0? 0? 0? 0? 0? 0? 0? 0? 0? 0? 0? 0? 0? 0? 0? 0? 0? 0? 0? 0? 0? 0? 0? 0? 0? 0? 0? 0? 0? 0? 0? 0? 0? 0? 0? 0? 0? 0? 0? 0? 0? 0? 0? 0? 0? 0? 0? 0? 0? 0? 0? 0? 0? 0? 0? 0? 0? 0? 0? 0? 0? 0? 0? 0? 0? 0? 0? 0? 0? 0? 0? 0? 0? 0? 0? 0? 0? 0? 0? 0? 0? 0? 0? 0? 0? 0? 0? 0? 0? 0? 0? 0? 0? 0? 0? 0? 0? 0? 0? 0? 0? 0? 0? 0? 0? 0? 0? 0? 0? 0? 0? 0? 0? 0? 0? 0? 0? 0? 0? 0? 0? 0? 0? 0? 0? 0? 0? 0? 0? 0? 0? 0? 0? 0? 0? 0? 0? 0? 0? ? ? ? ? ?<2 ?<2 ?<2 ?<2 ?<2 ?<2 ?<2 ?<2 ?<2 ?<2 ?<2 ?<2 ?<2 ?<2 ?<2 ?<2 ?<2 ?<2 ?<2 ?<2 ?<2 ?<2 ?<2 ?<2 ?<2 ?<2 ?<2 ?<2 ?<2 ?<2 ?<2 ?<2 ?<2 ?<2 ?<2 ?<2 ?<2 ?<2 ?<2 ?<2 ?<2 ?<2 ?<2 ?<2 ?<2 ?<2 ?<2 ?<2 <2 <2 <2 <2 <2 <2 <2 <2 <2 <2 <2 <2 <2 <2 <2 <2 <2 <2 <2 <2 <2 <2 <2 <2 <2 <2 <2 <2 <2 <2 <2 <2 <2 <2 <2 <2 <2 <2 <2 <2 <2 <2 <2 <2 <2 <2 <2 <2 <2 <2 <2 <2 <2 <2 <2 <2 <2 <2 <2 <2 <2 <2 <2 <2 <2 <2 <2 <2 <2 <2 <2 <2 <2 <2 <2 <2 <2 <2 <2 <2 <2 <2 <2 <2 <2 <2 <2 <2 <2 <2 <2 <2 <2 <2 <2 <2 <2 <2 <2 <2 <2 <2 <2 <2 <2 <2 <2 <2 <2 <2 <2 <2           C3 C3 C3 C3 C3 C3 C3 C3 C3 C3 C3 C3 C3 C3 C3 C3 C3 C3 C3 C3 C3 C3 C3 C3 C3 C3 C3 C3 C3 C3 C3 C3 C3 C3 C3 C3 C3 C3 C3 C3 C3 C3 C3 C3 C3 C3 C3 C3 C3 C3 C3 C3 C3 C3 C3 C3 C3 C3 C3 C3 C3 C3 C3 C3 C3 C3 C3 C3 C3 C3 C3 C3 C3 C3 C3 C3 C3 C3 C3 C3 C3 C3 C3 C3 C3 C3 C3 C3 C3 C3 C3 C3 C3 C3 C3 C3 C3 C3 C3 C3 C3 C3 C3 C3 C3 C3 C3 C3 C3 C3 C3 C3 C3 C3 C3 C3 C3 C3 C3 C3 C3 C3 C3 C3 C3 C3 C3 C3 C3 C3 C3 C3 C3 C3 C3 C3 C3 C3 C3 C3 C3 C3 C3 C3 C3 C3 C3 C3 C3 C3 C3 C3 C3                    E* E* E* E* E* E* E* E* E* E* E* E* E* E* E* E* E* E* E* E* E* E* E* E* E* E* E* E* E* E* E* E* E* E* E* E* E* E* E* E* E* E* E* E* E* E* E* E* E* E* E* E* E* E* E* E* E* E* E* E* E* E* E* E* E* E* E* E* E* E* E* E* E* E* E* E* E* E* E* E* E* E* E* E* E* E* E* E* E* E* E* E* E* E* E* E* E* E* E* E* E* E* E* E* E* E* E* E* E* E* E* E* E* E* E* E* E* E* E* E* E* E* E* E* E* E* E* E* E* E* E* E* E* E* E* E* E* E* E* E* E* E* E* E* E* E* E* E* E* E* E* E* E* E* E* E* E* E* E* E* E* E* E* E* E* E* E* E*     F+ F+ F+ F+ F+ F+ F+ F+ F+ F+ F+ F+ F+ F+ F+ F+ F+ F+ F+ F+ F+ F+ F+ F+ F+ F+ F+ F+ F+ F+ F+ F+ F+ F+ F+ F+ F+ F+ F+ F+ F+ F+ F+ F+ F+ F+ F+ F+ F+ F+ F+ F+ F+ F+ F+ F+ F+ F+ F+ F+ F+ F+ F+ F+ F+ F+ F+ F+ F+ F+ F+ F+ F+ F+ F+ F+ F+ F+ F+ F+ F+ F+ F+ F+ F+ F+ F+ F+ F+ F+ F+ F+ F+ F+ F+ F+ F+ F+ F+ F+ F+ F+ F+ F+ F+ F+ F+ F+ F+ F+ F+ F+ F+ F+ F+ F+ F+ F+ F+ F+ F+ F+ F+ F+ F+ F+ F+ F+ F+ F+ F+ F+ F+ F+ F+ F+ F+ F+ F+ F+ F+ F+ F+ F+ F+ F+ F+ F+ F+ F+ F+ F+ F+ F+ F+ F+ F+ F+ F+ F+           H- H- H- H- H- H- H- H- H- H- H- H- H- H- H- H- H- H- H- H- H- H- H- H- H- H- H- H- H- H- H- H- H- H- H- H- H- H- H- H- H- H- H- H- H- H- H- H- H- H- H- H- H- H- H- H- H- H- H- H- H- H- H- H- H- H- H- H- H- H- H- H- H- H- H- H- H- H- H- H- H- H- H- H- H- H- H- H- H- H- H- H- H- H- H- H- H- H- H- H- H- H- H- H- H- H- H- H- H- H- H- H- H- H- H- H- H- H- H- H- H- H- H- H- H- H- H- H- H- H- H- H- H- H- H- H- H- H- H- H- H- H- H- H- H- H- H- H- H- H- H- H- H-                   J. J. J. J. J. J. J. J. J. J. J. J. J. J. J. J. J. J. J. J. J. J. J. J. J. J. J. J. J. J. J. J. J. J. J. J. J. J. J. J. J. J. J. J. J. J. J. J. J. J. J. J. J. J. J. J. J. J. J. J. J. J. J. J. J. J. J. J. J. J. J. J. J. J. J. J. J. J. J. J. J. J. J. J. J. J. J. J. J. J. J. J. J. J. J. J. J. J. J. J. J. J. J. J. J. J. J. J. J. J. J. J. J. J. J. J. J. J. J. J. J. J. J. J. J. J. J. J. J. J. J. J. J. J. J. J. J. J. J. J. J. J. J. J. J. J. J. J. J. J. J. J. J. J. J. J. J. J. J. J. J. J. J. J. J. J. J. J. J. J. J. J. JF. JF. JF. JF. JF. JF. JF. JF. JF. JF. JF. JF. JF. JF. JF. JF. JF. JF. JF. JF. JF. JF. JF. JF. JF. JF. JF. JF. JF. JF. JF. JF. JF. JF. JF. JF. JF. JF. F. F. F. F. F. F. F. F. F. F. F. F. F. F. F. F. F. F. F. F. F. F. F. F. F. F. F. F. F. F. F. F. F. F. F. F. F. F. F. F. F. F. F. F. F. F. F. F. F. F. F. F. F. F. F. F. F. F. F. F. F. F. F. F. F. F. F. F. F. F. F. F. F. F. F. F. F. F. F. F. F. F. F. F. F. F. F. F. F. F. F. F. F. F. F. F. F. F. F. F. F. F. F. F. F. F. F. F. F. F. F. F. F. F. F. F. F. F. F. F. F. F. . . . . . .     C3 C3 C3 C3 C3 C3 C3 C3 C3 C3 C3 C3 C3 C3 C3 C3 C3 C3 C3 C3 C3 C3 C3 C3 C3 C3 C3 C3 C3 C3 C3 C3 C3 C3 C3 C3 C3 C3 C3 C3 C3 C3 C3 C3 C3 C3 C3 C3 C3 C3 C3 C3 C3 C3 C3 C3 C3 C3 C3 C3 C3 C3 C3 C3 C3 C3 C3 C3 C3 C3 C3 C3 C3 C3 C3 C3 C3 C3 C3 C3 C3 C3 C3 C3 C3 C3 C3 C3 C3 C3 C3 C3 C3 C3 C3 C3 C3 C3 C3 C3 C3 C3 C3 C3 C3 C3 C3 C3 C3 C3 C3 C3 C3 C3 C3 C3 C3 C3 C3 C3 C3 C3 C3 C3 C3 C3 C3 C3 C3 C3 C3 C3 C3 C3 C3 C3 C3 C3 C3 C3 C3 C3 C3 C3 C3 C3 C3 C3 C3 C3 C3 C3 C3                    H- H- H- H- H- H- H- H- H- H- H- H- H- H- H- H- H- H- H- H- H- H- H- H- H- H- H- H- H- H- H- H- H- H- H- H- H- H- H- H- H- H- H- H- H- H- H- H- H- H- H- H- H- H- H- H- H- H- H- H- H- H- H- H- H- H- H- H- H- H- H- H- H- H- H- H- H- H- H- H- H- H- H- H- H- H- H- H- H- H- H- H- H- H- H- H- H- H- H- H- H- H- H- H- H- H- H- H- H- H- H- H- H- H- H- H- H- H- H- H- H- H- H- H- H- H- H- H- H- H- H- H- H- H- H- H- H- H- H- H- H- H- H- H- H- H- H- H- H- H- H- H- H- H- H- H- H- H- H- H- H- H- H- H- H- H- H- H- - - - - @- @- @- @- @- @- @- @- @- @- @- @- @- @- @- @- @- @- @- @- @- @- @- @- @- @- @- @- @- @- @- @- @- @- @- @- @- @- @- @- @- @- @- @- @- @- @- @- @- @- @- @- @- @- @- @- @- @- @- @- @- @- @- @- @- @- @- @- @- @- @- @- @- @- @- @- @- @- @- @- @- @- @- @- @- @- @- @- @- @- @- @- @- @- @- @- @- @- @- @- @- @- @- @- @- @- @- @- @- @- @- @- @- @- @- @- @- @- @- @- @- @- @- @- @- @- @- @- @- @- @- @- @- @- @- @- @- @- @- @- @- @- @- @- @- @- @- @- @- @- @- @- @- @- @- @- @- @- @- @- - - - - - -     B> B> B> B> B> B> B> B> B> B> B> B> B> B> B> B> B> B> B> B> B> B> B> B> B> B> B> B> B> B> B> B> B> B> B> B> B> B> B> B> B> B> B> B> B> B> B> B> B> B> B> B> B> B> B> B> B> B> B> B> B> B> B> B> B> B> B> B> B> B> B> B> B> B> B> B> B> B> B> B> B> B> B> B> B> B> B> B> B> B> B> B> B> B> B> B> B> B> B> B> B> B> B> B> B> B> B> B> B> B> B> B> B> B> B> B> B> B> B> B> B> B> B> B> B> B> B> B> B> B> B> B> B> B> B> B> B> B> B> B> B> B> B> B> B> B> B> B> B> B> B> B> B>                    ?C ?C ?C ?C ?C ?C ?C ?C ?C ?C ?C ?C ?C ?C ?C ?C ?C ?C ?C ?C ?C ?C ?C ?C ?C ?C ?C ?C ?C ?C ?C ?C ?C ?C ?C ?C ?C ?C ?C ?C ?C ?C ?C ?C ?C ?C ?C ?C ?C ?C ?C ?C ?C ?C ?C ?C ?C ?C ?C ?C ?C ?C ?C ?C ?C ?C ?C ?C ?C ?C ?C ?C ?C ?C ?C ?C ?C ?C ?C ?C ?C ?C ?C ?C ?C ?C ?C ?C ?C ?C ?C ?C ?C ?C ?C ?C ?C ?C ?C ?C ?C ?C ?C ?C ?C ?C ?C ?C ?C ?C ?C ?C ?C ?C ?C ?C ?C ?C ?C ?C ?C ?C ?C ?C ?C ?C ?C ?C ?C ?C ?C ?C ?C ?C ?C ?C ?C ?C ?C ?C ?C ?C ?C ?C ?C ?C ?C ?C ?C ?C ?C ?C ?C ?C ?C ?C ?C ?C ?C ?C ?C ?C ?C ?C ?C ?C ?C ?C C C C >C >C >C >C >C >C >C >C >C >C >C >C >C >C >C >C >C >C >C >C >C >C >C >C >C >C >C >C >C >C >C >C >C >C >C >C >C >C >C >C >C >C >C >C >C >C >C >C >C >C >C >C >C >C >C >C >C >C >C >C >C >C >C >C >C >C >C >C >C >C >C >C >C >C >C >C >C >C >C >C >C >C >C >C >C >C >C >C >C >C >C >C >C >C >C >C >C >C >C >C >C >C >C >C >C >C >C >C >C >C >C >C >C >C >C >C >C >C >C >C >C >C >C >C >C >C >C >C >C >C >C >C >C >C >C >C >C >C >C >C >C >C >C >C >C >C >C >C >C >C >C >C >C >C >C >C >C >C >C >C C C C C C C C C C C J<C J<C J<C J<C J<C J<C J<C J<C J<C J<C J<C J<C J<C J<C J<C J<C J<C J<C J<C J<C J<C J<C J<C J<C J<C J<C J<C J<C J<C J<C J<C J<C J<C J<C J<C J<C J<C J<C J<C J<C J<C J<C J<C J<C J<C J<C J<C J<C J<C J<C J<C J<C J<C J<C J<C J<C J<C J<C J<C J<C J<C J<C J<C J<C J<C J<C J<C J<C J<C J<C J<C J<C J<C J<C J<C J<C J<C J<C J<C J<C J<C J<C J<C J<C J<C J<C J<C J<C J<C J<C J<C J<C J<C J<C J<C J<C J<C J<C J<C J<C J<C J<C J<C J<C J<C J<C J<C J<C J<C J<C J<C J<C J<C J<C J<C J<C J<C J<C J<C J<C J<C J<C J<C J<C J<C J<C J<C J<C J<C J<C J<C J<C J<C J<C J<C J<C J<C J<C J<C J<C J<C J<C J<C J<C J<C J<C J<C J<C J<C J<C J<C J<C J<C C C C C C C C C C C C C C C C C C C C CO: CO: CO: CO: CO: CO: CO: CO: CO: CO: CO: CO: CO: CO: CO: CO: CO: CO: CO: CO: CO: CO: CO: CO: CO: CO: CO: CO: CO: CO: CO: CO: CO: CO: CO: CO: CO: CO: CO: CO: CO: CO: CO: CO: CO: CO: CO: CO: CO: CO: CO: CO: CO: CO: CO: CO: CO: CO: CO: CO: CO: CO: CO: CO: CO: CO: CO: CO: CO: CO: CO: CO: CO: CO: CO: CO: CO: CO: CO: CO: CO: CO: CO: CO: CO: CO: CO: O: O: O: O: O: O: O: O: O: O: O: O: O: O: O: O: O: O: O: O: O: O: O: O: O: O: O: O: O: O: O: O: O: O: O: O: O: O: O: O: O: O: O: O: O: O: O: O: O: O: O: O: O: O: O: O: O: O: O: O: O: O: O: O: O: O: O: O: O: O: O: O: O: O: O: O: O: O: O: O: O:     M9 M9 M9 M9 M9 M9 M9 M9 M9 M9 M9 M9 M9 M9 M9 M9 M9 M9 M9 M9 M9 M9 M9 M9 M9 M9 M9 M9 M9 M9 M9 M9 M9 M9 M9 M9 M9 M9 M9 M9 M9 M9 M9 M9 M9 M9 M9 M9 M9 M9 M9 M9 M9 M9 M9 M9 M9 M9 M9 M9 M9 M9 M9 M9 M9 M9 M9 M9 M9 M9 M9 M9 M9 M9 M9 M9 M9 M9 M9 M9 M9 M9 M9 M9 M9 M9 M9 M9 M9 M9 M9 M9 M9 M9 M9 M9 M9 M9 M9 M9 M9 M9 M9 M9 M9 M9 M9 M9 M9 M9 M9 M9 M9 M9 M9 M9 M9 M9 M9 M9 M9 M9 M9 M9 M9 M9 M9 M9 M9 M9 M9 M9 M9 M9 M9 M9 M9 M9 M9 M9 M9 M9 M9 M9 M9 M9 M9 M9 M9 M9 M9 M9 M9 M9 M9 M9 M9 M9 M9 M9           K7 K7 K7 K7 K7 K7 K7 K7 K7 K7 K7 K7 K7 K7 K7 K7 K7 K7 K7 K7 K7 K7 K7 K7 K7 K7 K7 K7 K7 K7 K7 K7 K7 K7 K7 K7 K7 K7 K7 K7 K7 K7 K7 K7 K7 K7 K7 K7 K7 K7 K7 K7 K7 K7 K7 K7 K7 K7 K7 K7 K7 K7 K7 K7 K7 K7 K7 K7 K7 K7 K7 K7 K7 K7 K7 K7 K7 K7 K7 K7 K7 K7 K7 K7 K7 K7 K7 K7 K7 K7 K7 K7 K7 K7 K7 K7 K7 K7 K7 K7 K7 K7 K7 K7 K7 K7 K7 K7 K7 K7 K7 K7 K7 K7 K7 K7 K7 K7 K7 K7 K7 K7 K7 K7 K7 K7 K7 K7 K7 K7 K7 K7 K7 K7 K7 K7 K7 K7 K7 K7 K7 K7 K7 K7 K7 K7 K7 K7 K7 K7 K7 K7 K7                    J6 J6 J6 J6 J6 J6 J6 J6 J6 J6 J6 J6 J6 J6 J6 J6 J6 J6 J6 J6 J6 J6 J6 J6 J6 J6 J6 J6 J6 J6 J6 J6 J6 J6 J6 J6 J6 J6 J6 J6 J6 J6 J6 J6 J6 J6 J6 J6 J6 J6 J6 J6 J6 J6 J6 J6 J6 J6 J6 J6 J6 J6 J6 J6 J6 J6 J6 J6 J6 J6 J6 J6 J6 J6 J6 J6 J6 J6 J6 J6 J6 J6 J6 J6 J6 J6 J6 J6 J6 J6 J6 J6 J6 J6 J6 J6 J6 J6 J6 J6 J6 J6 J6 J6 J6 J6 J6 J6 J6 J6 J6 J6 J6 J6 J6 J6 J6 J6 J6 J6 J6 J6 J6 J6 J6 J6 J6 J6 J6 J6 J6 J6 J6 J6 J6 J6 J6 J6 J6 J6 J6 J6 J6 J6 J6 J6 J6 J6 J6 J6 J6 J6 J6 J6 J6 J6 J6 J6 J6 J6 J6 J6 J6 J6 J6 J6 J6 J6    H9 H9 H9 H9 H9 H9 H9 H9 H9 H9 H9 H9 H9 H9 H9 H9 H9 H9 H9 H9 H9 H9 H9 H9 H9 H9 H9 H9 H9 H9 H9 H9 H9 H9 H9 H9 H9 H9 H9 H9 H9 H9 H9 H9 H9 H9 H9 H9 H9 H9 H9 H9 H9 H9 H9 H9 H9 H9 H9 H9 H9 H9 H9 H9 H9 H9 H9 H9 H9 H9 H9 H9 H9 H9 H9 H9 H9 H9 H9 H9 H9 H9 H9 H9 H9 H9 H9 H9 H9 H9 H9 H9 H9 H9 H9 H9 H9 H9 H9 H9 H9 H9 H9 H9 H9 H9 H9 H9 H9 H9 H9 H9 H9 H9 H9 H9 H9 H9 H9 H9 H9 H9 H9 H9 H9 H9 H9 H9 H9 H9 H9 H9 H9 H9 H9 H9 H9 H9 H9 H9 H9 H9 H9 H9 H9 H9 H9 H9 H9 H9 H9 H9 H9 H9 H9 H9 H9 H9 H9 H9           F2 F2 F2 F2 F2 F2 F2 F2 F2 F2 F2 F2 F2 F2 F2 F2 F2 F2 F2 F2 F2 F2 F2 F2 F2 F2 F2 F2 F2 F2 F2 F2 F2 F2 F2 F2 F2 F2 F2 F2 F2 F2 F2 F2 F2 F2 F2 F2 F2 F2 F2 F2 F2 F2 F2 F2 F2 F2 F2 F2 F2 F2 F2 F2 F2 F2 F2 F2 F2 F2 F2 F2 F2 F2 F2 F2 F2 F2 F2 F2 F2 F2 F2 F2 F2 F2 F2 F2 F2 F2 F2 F2 F2 F2 F2 F2 F2 F2 F2 F2 F2 F2 F2 F2 F2 F2 F2 F2 F2 F2 F2 F2 F2 F2 F2 F2 F2 F2 F2 F2 F2 F2 F2 F2 F2 F2 F2 F2 F2 F2 F2 F2 F2 F2 F2 F2 F2 F2 F2 F2 F2 F2 F2 F2 F2 F2 F2 F2 F2 F2 F2 F2 F2                    E0 E0 E0 E0 E0 E0 E0 E0 E0 E0 E0 E0 E0 E0 E0 E0 E0 E0 E0 E0 E0 E0 E0 E0 E0 E0 E0 E0 E0 E0 E0 E0 E0 E0 E0 E0 E0 E0 E0 E0 E0 E0 E0 E0 E0 E0 E0 E0 E0 E0 E0 E0 E0 E0 E0 E0 E0 E0 E0 E0 E0 E0 E0 E0 E0 E0 E0 E0 E0 E0 E0 E0 E0 E0 E0 E0 E0 E0 E0 E0 E0 E0 E0 E0 E0 E0 E0 E0 E0 E0 E0 E0 E0 E0 E0 E0 E0 E0 E0 E0 E0 E0 E0 E0 E0 E0 E0 E0 E0 E0 E0 E0 E0 E0 E0 E0 E0 E0 E0 E0 E0 E0 E0 E0 E0 E0 E0 E0 E0 E0 E0 E0 E0 E0 E0 E0 E0 E0 E0 E0 E0 E0 E0 E0 E0 E0 E0 E0 E0 E0 E0 E0 E0 E0 E0 E0 E0 E0 E0 E0 E0 E0 E0 E0 E0 E0 E0 E0     C. C. C. C. C. C. C. C. C. C. C. C. C. C. C. C. C. C. C. C. C. C. C. C. C. C. C. C. C. C. C. C. C. C. C. C. C. C. C. C. C. C. C. C. C. C. C. C. C. C. C. C. C. C. C. C. C. C. C. C. C. C. C. C. C. C. C. C. C. C. C. C. C. C. C. C. C. C. C. C. C. C. C. C. C. C. C. C. C. C. C. C. C. C. C. C. C. C. C. C. C. C. C. C. C. C. C. C. C. C. C. C. C. C. C. C. C. C. C. C. C. C. C. C. C. C. C. C. C. C. C. C. C. C. C. C. C. C. C. C. C. C. C. C. C. C. C. C. C. C. C. C. C. C. C. C. C. C. C. C.           B- B- B- B- B- B- B- B- B- B- B- B- B- B- B- B- B- B- B- B- B- B- B- B- B- B- B- B- B- B- B- B- B- B- B- B- B- B- B- B- B- B- B- B- B- B- B- B- B- B- B- B- B- B- B- B- B- B- B- B- B- B- B- B- B- B- B- B- B- B- B- B- B- B- B- B- B- B- B- B- B- B- B- B- B- B- B- B- B- B- B- B- B- B- B- B- B- B- B- B- B- B- B- B- B- B- B- B- B- B- B- B- B- B- B- B- B- B- B- B- B- B- B- B- B- B- B- B- B- B- B- B- B- B- B- B- B- B- B- B- B- B- B- B- B- B- B- B- B- B- B- B- B-                    C. C. C. C. C. C. C. C. C. C. C. C. C. C. C. C. C. C. C. C. C. C. C. C. C. C. C. C. C. C. C. C. C. C. C. C. C. C. C. C. C. C. C. C. C. C. C. C. C. C. C. C. C. C. C. C. C. C. C. C. C. C. C. C. C. C. C. C. C. C. C. C. C. C. C. C. C. C. C. C. C. C. C. C. C. C. C. C. C. C. C. C. C. C. C. C. C. C. C. C. C. C. C. C. C. C. C. C. C. C. C. C. C. C. C. C. C. C. C. C. C. C. C. C. C. C. C. C. C. C. C. C. C. C. C. C. C. C. C. C. C. C. C. C. C. C. C. C. C. C. C. C. C. C. C. C. C. C. C. C. C. C. C. C. C. C. C. C.    K7 K7 K7 K7 K7 K7 K7 K7 K7 K7 K7 K7 K7 K7 K7 K7 K7 K7 K7 K7 K7 K7 K7 K7 K7 K7 K7 K7 K7 K7 K7 K7 K7 K7 K7 K7 K7 K7 K7 K7 K7 K7 K7 K7 K7 K7 K7 K7 K7 K7 K7 K7 K7 K7 K7 K7 K7 K7 K7 K7 K7 K7 K7 K7 K7 K7 K7 K7 K7 K7 K7 K7 K7 K7 K7 K7 K7 K7 K7 K7 K7 K7 K7 K7 K7 K7 K7 K7 K7 K7 K7 K7 K7 K7 K7 K7 K7 K7 K7 K7 K7 K7 K7 K7 K7 K7 K7 K7 K7 K7 K7 K7 K7 K7 K7 K7 K7 K7 K7 K7 K7 K7 K7 K7 K7 K7 K7 K7 K7 K7 K7 K7 K7 K7 K7 K7 K7 K7 K7 K7 K7 K7 K7 K7 K7 K7 K7 K7 K7 K7 K7 K7 K7 K7 K7 K7 K7 K7 K7 K7            J0 J0 J0 J0 J0 J0 J0 J0 J0 J0 J0 J0 J0 J0 J0 J0 J0 J0 J0 J0 J0 J0 J0 J0 J0 J0 J0 J0 J0 J0 J0 J0 J0 J0 J0 J0 J0 J0 J0 J0 J0 J0 J0 J0 J0 J0 J0 J0 J0 J0 J0 J0 J0 J0 J0 J0 J0 J0 J0 J0 J0 J0 J0 J0 J0 J0 J0 J0 J0 J0 J0 J0 J0 J0 J0 J0 J0 J0 J0 J0 J0 J0 J0 J0 J0 J0 J0 J0 J0 J0 J0 J0 J0 J0 J0 J0 J0 J0 J0 J0 J0 J0 J0 J0 J0 J0 J0 J0 J0 J0 J0 J0 J0 J0 J0 J0 J0 J0 J0 J0 J0 J0 J0 J0 J0 J0 J0 J0 J0 J0 J0 J0 J0 J0 J0 J0 J0 J0 J0 J0 J0 J0 J0 J0 J0 J0 J0 J0 J0 J0 J0 J0 J0                   H2 H2 H2 H2 H2 H2 H2 H2 H2 H2 H2 H2 H2 H2 H2 H2 H2 H2 H2 H2 H2 H2 H2 H2 H2 H2 H2 H2 H2 H2 H2 H2 H2 H2 H2 H2 H2 H2 H2 H2 H2 H2 H2 H2 H2 H2 H2 H2 H2 H2 H2 H2 H2 H2 H2 H2 H2 H2 H2 H2 H2 H2 H2 H2 H2 H2 H2 H2 H2 H2 H2 H2 H2 H2 H2 H2 H2 H2 H2 H2 H2 H2 2 2 2 2 F2 F2 F2 F2 F2 F2 F2 F2 F2 F2 F2 F2 F2 F2 F2 F2 F2 F2 F2 F2 F2 F2 F2 F2 F2 F2 F2 F2 F2 F2 F2 F2 F2 F2 F2 F2 F2 F2 F2 F2 F2 F2 F2 F2 F2 F2 F2 F2 F2 F2 F2 F2 F2 F2 F2 F2 F2 F2 F2 F2 F2 F2 F2 F2 F2 F2 F2 F2 F2 F2 F2 F2 F2 F2 F2 F2 F2 F2 F2 F2 F2 F2     E0 E0 E0 E0 E0 E0 E0 E0 E0 E0 E0 E0 E0 E0 E0 E0 E0 E0 E0 E0 E0 E0 E0 E0 E0 E0 E0 E0 E0 E0 E0 E0 E0 E0 E0 E0 E0 E0 E0 E0 E0 E0 E0 E0 E0 E0 E0 E0 E0 E0 E0 E0 E0 E0 E0 E0 E0 E0 E0 E0 E0 E0 E0 E0 E0 E0 E0 E0 E0 E0 E0 E0 E0 E0 E0 E0 E0 E0 E0 E0 E0 E0 E0 E0 E0 E0 E0 E0 E0 E0 E0 E0 E0 E0 E0 E0 E0 E0 E0 E0 E0 E0 E0 E0 E0 E0 E0 E0 E0 E0 E0 E0 E0 E0 E0 E0 E0 E0 E0 E0 E0 E0 E0 E0 E0 E0 E0 E0 E0 E0 E0 E0 E0 E0 E0 E0 E0 E0 E0 E0 E0 E0 E0 E0 E0 E0 E0 E0 E0 E0 E0 E0 E0 E0 E0 E0 E0 E0 E0 E0           C2 C2 C2 C2 C2 C2 C2 C2 C2 C2 C2 C2 C2 C2 C2 C2 C2 C2 C2 C2 C2 C2 C2 C2 C2 C2 C2 C2 C2 C2 C2 C2 C2 C2 C2 C2 C2 C2 C2 C2 C2 C2 C2 C2 C2 C2 C2 C2 C2 C2 C2 C2 C2 C2 C2 C2 C2 C2 C2 C2 C2 C2 C2 C2 C2 C2 C2 C2 C2 C2 C2 C2 C2 C2 C2 C2 C2 C2 C2 C2 C2 C2 C2 C2 C2 C2 C2 C2 C2 C2 C2 C2 C2 C2 C2 C2 C2 C2 C2 C2 C2 C2 C2 C2 C2 C2 C2 C2 C2 C2 C2 C2 C2 C2 C2 C2 C2 C2 C2 C2 C2 C2 C2 C2 C2 C2 C2 C2 C2 C2 C2 C2 C2 C2 C2 C2 C2 C2 C2 C2 C2 C2 C2 C2 C2 C2 C2 C2 C2 C2 C2 C2 C2                    C+ C+ C+ C+ C+ C+ C+ C+ C+ C+ C+ C+ C+ C+ C+ C+ C+ C+ C+ C+ C+ C+ C+ C+ C+ C+ C+ C+ C+ C+ C+ C+ C+ C+ C+ C+ C+ C+ C+ C+ C+ C+ C+ C+ C+ C+ C+ C+ C+ C+ C+ C+ C+ C+ C+ C+ C+ C+ C+ C+ C+ C+ C+ C+ C+ C+ C+ C+ C+ C+ C+ C+ C+ C+ C+ C+ C+ C+ C+ C+ C+ C+ C+ C+ C+ C+ C+ C+ C+ C+ C+ C+ C+ C+ C+ C+ C+ C+ C+ C+ C+ C+ C+ C+ C+ C+ C+ C+ C+ C+ C+ C+ C+ C+ C+ C+ C+ C+ C+ C+ C+ C+ C+ C+ C+ C+ C+ C+ C+ C+ C+ C+ C+ C+ C+ C+ C+ C+ C+ C+ C+ C+ C+ C+ C+ C+ C+ C+ C+ C+ C+ C+ C+ C+ C+ C+ C+ C+ C+ C+ C+ C+ C+ C+ C+ C+ C+ C+ C+ C+ C+ C+ C+ C+ C+ C+ C+ C+ C+ C+ C+ C+ C+ C+ C+ C+ C+ C+ C+ C+ C+ C+ C+ C+ C+ C+ C+ C+ C+ C+     >. >. >. >. >. >. >. >. >. >. >. >. >. >. >. >. >. >. >. >. >. >. >. >. >. >. >. >. >. >. >. >. >. >. >. >. >. >. >. >. >. >. >. >. >. >. >. >. >. >. >. >. >. >. >. >. >. >. >. >. >. >. >. >. >. >. >. >. >. >. >. >. >. >. >. >. >. >. >. >. >. >. >. >. >. >. >. >. >. >. >. >. >. >. >. >. >. >. >. >. >. >. >. >. >. >. >. >. >. >. >. >. >. >. >. >. >. >. >. >. >. >. >. >. >. >. >. >. >. >. >. >. >. >. >. >. >. >. >. >. >. >. >. >. >. >. >. >. >. >. >. >. >. >. >. >. >. >. >. >. >. >. >. >. >. >. >. >. >. >. >. >. >. >. >. >. >. >. >. >. >. >. >. >. >. >. >. >. >. >. >. >.                             2: 2: 2: 2: 2: 2: 2: 2: 2: 2: 2: 2: 2: 2: 2: 2: 2: 2: 2: 2: 2: 2: 2: 2: 2: 2: 2: 2: 2: 2: 2: 2: 2: 2: 2: 2: 2: 2: 2: 2: 2: 2: 2: 2: 2: 2: 2: 2: 2: 2: 2: 2: 2: 2: 2: 2: 2: 2: 2: 2: 2: 2: 2: 2: 2: 2: 2: 2: 2: 2: 2: 2: 2: 2: 2: 2: 2: 2: 2: 2: 2: 2: 2: 2: 2: 2: 2: 2: 2: 2: 2: 2: 2: 2: 2: 2: 2: 2: 2: 2: 2: 2: 2: 2: 2: 2: 2: 2: 2: 2: 2: 2: 2: 2: 2: 2: 2: 2: 2: 2: 2: 2: 2: 2: 2: 2: 2: 2: 2: 2: 2: 2: 2: 2: 2: 2: 2: 2: 2: 2: 2: 2: 2: 2: 2: 2: 2: 2: 2: 2: 2: 2: 2: 2: 2: 2: 2: 2: 2: 2: 2: 2: 2: 2: 2: 2: 2: 2: 2: 2: 2: 2: 2: 2: 2: 2: 2: 2: 2: 2: 2: 2: 2: 2: 2: 2: 2: 2: 2: 2: 2: 2: 2: 2: 2: 2: 2: 2: 2: 2: 2: 2: 2: 2:                                                 7 7 7 7 7 7 7 7 7 7 7 7 7 7 7 7 7 7 7 7 7 7 7 7 7 7 7 7 7 7 7 7 7 7 7 7 7 7 7 7 7 7 7 7 7 7 7 7 7 7 7 7 7 7 7 7 7 7 7 7 7 7 7 7 7 7 7 7 7 7 7 7 7 7 7 7 7 7 7 7 7 7 7 7 7 7 7 7 7 7 7 7 7 7 7 7 7 7 7 7 7 7 7 7 7 7 7 7 7 7 7 7 7 7 7 7 7 7 7 7 7 7 7 7 7 7 7 7 7 7 7 7 7 7 7 7 7 7 7 7 7 7 7 7 7 7 7 7 7 7 7 7 7 7 7 7 7 7 7 7 7 7 7 7 7 7 7 7 7 7 7 7 7 7 7 7 7 7 7 7 7 7 7 7 7 7 7 7 7 7 7 7 7 7 7 7 7 7 7 7 7 7 7 7 7 7 7 7 7 7 7 7 7 7 7 7 7 7 7 7 7 7 7 7 7 7 7 7 7 7 7 7 7 7 7 7 7 7 7 7 7 7 7 7 7 7 7 7 7 7 7 7 7 7 7 7 7 7 7 7 7 7 7 7 7 7 7 7 7 7 7 7 7 7 7 7 7 7 7 7 7 7 7 7 7 7 7 7 7 7 7 7 7 7 7 7 7 7 7 7 7 7 7 7 7 7 7 7 7 7 7 7 7 7 7 7 7 7 7 7 7 7 7 7 7 7 7 7 7 7 7 7 7 7 7 7 7 7 7 7 7 7 7 7 7 7 7 7 7 7 7 7 7 7 7 7 7 7 7 7 7 7 7 7 7 7 7 7 7 7 7 7 7 7 7 7 7 7 7 7 7 7 7 7 7 7 7 7 7 7 7 7 7 7 7 7 7 7 7 7 7 7 7 7 7 7 7 7 7 7 7 7 7 7 7 7 7 7 7 7 7 7 7 7 7 7 7 7 7 7 7 7 7 7 7 7 7 7 7 7 7 7 7 7 7 7 7 7 7 7 7 7 7 7 7 7 7 7 7 7 7 7 7 7 7 7 7 7 7 7 7 7 7 7 7 7 7 7 7 7 7 7 7 7 7 7 7 7 7 7 7 7 7 7 7 7 7 7 7 7 7 7 7 7 7 7 7 7 7 7 7 7 7 7 7 7 7 7 7 7 7 7 7 7 7 7 7 7 7 7 7 7 7 7 7 7 7 7 7 7 7 7 7 7 7 7 7 7 7 7 7 7 7 7 7 7 7 7 7 7 7 7 7 7 7 7 7 7 7 7 7 7 7 7 7 7 7 7 7 7 7 7 7 7 7 7 7 7 7 7 7 7 7 7 7 7 7 7 7 7 7 7 7 7 7 7 7 7 7 7 7 7 7 7 7 7 7 7 7 7 7 7 7 7 7 7 7 7 7 7 7 7 7 7 7 7 7 7 7 7 7 7 7 7 7 7 7 7 7 7 7 7 7 7 7 7 7 7 7 7 7 7 7 7 7 7 7 7 7 7 7 7 7 7 7 7 7 7 7 7 7 7 7 7 7 7 7 7 7 7 7 7 7 7 7 7 7 7 7 7 7 7 7 7 7 7 7 7 7 7 7 7 7 7 7 7 7 7 7 7 7 7 7 7 7 7 7 7 7 7 7 7 7 7 7 7 7 7 7 7 7 7 7 7 7 7 7 7 7 7 7 7 7 7 7 7 7 7 7 7 7 7 7 7 7 7 7 7 7 7 7 7 7 7 7 7 7 7 7 7 7 7 7 7 7 7 7 7 7 7 7 7 7 7 7 7 7 7 7 7 7 7 7 7 7 7 7 7 7 7 7 7 7 7 7 7 7 7 7 7 7 7 7 7 7 7 7 7 7 7 7 7 7 7 7 7 7 7 7 7 7 7 7 7 7 7 7 7 7 7 7 7 7 7 7 7 7 7 7 7 7 7 7 7 7 7 7 7 7 7 7 7 7 7 7 7 7 7 7 7 7 7 7 7 7 7 7 7 7 7 7 7 7 7 7 7 7 7 7 7 7 7 7 7 7 7 7 7 7 7 7 7 7 7 7 7 7 7 7 7 7 7 7 7 7 7 7 7 7 7 7 7 7 7 7 7 7 7 7 7 7 7 7 7 7 7 7 7 7 7 7 7 7 7 7 7 7 7 7 7 7 7 7 7 7 7 7 7 7 7 7 7 7 7 7 7 7 7 7 7 7 7 7 7 7 7 7 7 7 7 7 7 7 7 7 7 7 7 7 7 7 7 7 7 7 7 7 7 7 7 7 7 7 7 7 7 7 7 7 7 7 7 7 7 7 7 7 7 7 7 7 7 7 7 7 7 7 7 7 7 7 7 7 7 7 7 7 7 7 7 7 7 7 7 7 7 7 7 7 7 7 7 7 7 7 7 7 7 7 7 7 7 7 7 7 7 7 7 7 7 7 7 7 7 7 7 7 7 7 7 7 7 7 7 7 7 7 7 7 7 7 7 7 7 7 7 7 7 7 7 7 7 7 7 7 7 7 7 7 7 7 7 7 7 7 7 7 7 7 7 7 7 7 7 7 7 7 7 7 7 7 7 7 7 7 7 7 7 7 7 7 7 7 7 7 7 7 7 7 7 7 7 7 7 7 7 7 7 7 7 7 7 7 7 7 7 7 7 7 7 7 7 7 7 7 7 7 7 7 7 7 7 7 7 7 7 7 7 7 7 7 7 7 7 7 7 7 7 7 7 7 7 7 7 7 7 7 7 7 7 7 7 7 7 7 7 7 7 7 7 7 7 7 7 7 7 7 7 7 7 7 7 7 7 7 7 7 7 7 7 7 7 7 7 7 7 7 7 7 7 7 7 7 7 7 7 7 7 7 7 7 7 7 7 7 7 7 7 7 7 7 7 7 7 7 7 7 7 7 7 7 7 7 7 7 7 7 7 7 7 7 7 7 7 7 7 7 7 7 7 7 7 7 7 7 7 7 7 7 7 7 7 7 7 7 7 7 7 7 7 7 7 7 7 7 7 7 7 7 7 7 7 7 7 7 7 7 7 7 7 7 7 7 7 7 7 7 7 7 7 7 7 7 7 7 7 7 7 7 7 7 7 7 7 7 7 7 7 7 7 7 7 7 7 7 7 7 7 7 7 7 7 7 7 7 7 7 7 7 7 7 7 7 7 7 7 7 7 7 7 7 7 7 7 7 7 7 7 7 7 7 7 7 7 7 7 7 7 7 7 7 7 7 7 7 7 7 7 7 7 7 7 7 7 7 7 7 7 7 7 7 7 7 7 7 7 7 7 7 7 7 7 7 7 7 7 7 7 7 7 7 7 7 7 7 7 7 7 7 7 7 7 7 7 7 7 7 7 7 7 7 7 7 7 7 7 7 7 7 7 7 7 7 7 7 7 7 7 7 7 7 7 7 7 7 7 7 7 7 7 7 7 7 7 7 7 7 7 7 7 7 7 7 7 7 7 7 7 7 7 7 7 7 7 7 7 7 7 7 7 7 7 7 7 7 7 7 7 7 7 7 7 7 7 7 7 7 7 7 7 7 7 7 7 7 7 7 7 7 7 7 7 7 7 7 7 7 7 7 7 7 7 7 7 7 7 7 7 7 7 7 7 7 7 7 7 7 7 7 7 7 7 7 7 7 7 7 7 7 7 7 7 7 7 7 7 7 7 7 7 7 7 7 7 7 7 7 7 7 7 7 7 7 7 7 7 7 7 7 7 7 7 7 7 7 7 7 7 7 7 7 7 7 7 7 7 7 7 7 7 7 7 7 7 7 7 7 7 7 7 7 7 7 7 7 7 7 7 7 7 7 7 7 7 7 7 7 7 7 7 7 7 7 7 7 7 7 7 7 7 7 7 7 7 7 7 7 7 7 7 7 7 7 7 7 7 7 7 7 7 7 7 7 7 7 7 7 7 7 7 7 7 7 7 7 7 7 7 7 7 7 7 7 7 7 7 7 7 7 7 7 7 7 7 7 7 7 7 7 7 7 7 7 7 7 7 7 7 7 7 7 7 7 7 7 7 7 7 7 7 7 7 7 7 7 7 7 7 7 7 7 7 7 7 7 7 7 7 7 7 7 7 7 7 7 7 7 7 7 7 7 7 7 7 7 7 7 7 7 7 7 7 7 7 7 7 7 7 7 7 7 7 7 7 7 7 7 7 7 7 7 7 7 7 7 7 7 7 7 7 7 7 7 7 7 7 7 7 7 7 7 7 7 7 7 7 7 7 7 7 7 7 7 7 7 7 7 7 7 7 7 7 7 7 7 7 7 7 7 7 7 7 7 7 7 7 7 7 7 7 7 7 7 7 7 7 7 7 7 7 7 7 7 7 7 7 7 7 7 7 7 7 7 7 7 7 7 7 7 7 7 7 7 7 7 7 7 7 7 7 7 7 7 7 7 7 7 7 7 7 7 7 7 7 7 7 7 7 7 7 7 7 7 7 7 7 7 7 7 7 7 7 7 7 7 7 7 7 7 7 7 7 7 7 7 7 7 7 7 7 7 7 7 7 7 7 7 7 7 7 7 7 7 7 7 7 7 7 7 7 7 7 7 7 7 7 7 7 7 7 7 7 7 7 7 7 7 7 7 7 7 7 7 7 7 7 7 7 7 7 7 7 7 7 7 7 7 7 7 7 7 7 7 7 7 7 7 7 7 7 7 7 7 7 7 7 7 7 7 7 7 7 7 7 7 7 7 7 7 7 7 7 7 7 7 7 7 7 7 7  