G G G G G G G G G G G G G G G G G G G G G G G G G G G G G G G G G G G G G G G G G G G G G G G G G G G G G G G G G G G G G G G G G G G G G G G G G G G G G G G G G G G G G G G G G G G G G G G G                         CG@4 CG@4 CG@4 CG@4 CG@4 CG@4 CG@4 CG@4 CG@4 CG@4 CG@4 CG@4 CG@4 CG@4 CG@4 CG@4 CG@4 CG@4 CG@4 CG@4 CG@4 CG@4 CG@4 CG@4 CG@4 CG@4 CG@4 CG@4 CG@4 CG@4 CG@4 CG@4 CG@4 CG@4 CG@4 CG@4 CG@4 CG@4 CG@4 CG@4 CG@4 CG@4 CG@4 CG@4 CG@4 CG@4 CG@4 CG@4 CG@4 CG@4 CG@4 CG@4 CG@4 CG@4 CG@4 CG@4 CG@4 CG@4 CG@4 CG@4 CG@4 CG@4 CG@4 CG@4 CG@4 CG@4 CG@4 CG@4 CG@4 CG@4 CG@4 CG@4 CG@4 CG@4 CG@4 CG@4 CG@4 CG@4 CG@4 CG@4 CG@4 CG@4 CG@4 CG@4 CG@4 CG@4 CG@4 CG@4 CG@4 CG@4 CG@4 CG@4 CG@4 CG@4 CG@4 CG@4 CG@4 CG@4 CG@4 CG@4 CG@4 CG@4 CG@4 CG@4 CG@4 CG@4 CG@4 CG@4 CG@4 CG@4 CG@4 CG@4 CG@4 CG@4 CG@4 CG@4 CG@4 CG@4 CG@4 CG@4 CG@4 CG@4 CG@4 CG@4 CG@4 CG@4 CG@4 CG@4 CG@4 CG@4 CG@4 CG@4 CG@4 CG@4 CG@4 CG@4 CG@4 CG@4 CG@4 CG@4 CG@4 CG@4 CG@4 CG@4 CG@4 CG@4 CG@4 CG@4 CG@4 CG@4 CG@4 CG@4 CG@4 CG@4 CG@4 CG@4 CG@4 CG@4 CG@4 CG@4 CG@4 CG@4 CG@4 CG@4 CG@4 CG@4 CG@4 CG@4 CG@4 CG@4 CG@4 CG@4 CG@4 CG@4 CG@4 CG@4 CG@4 CG@4 CG@4 CG@4 CG@4 CG@4 CG@4 CG@4 CG@4 CG@4 CG@4 CG@4 CG@4 CG@4 CG@4 CG@4 CG@4 CG@4 CG@4 CG@4 CG@4 CG@4 CG@4 CG@4 CG@4 CG@4 CG@4 CG@4 CG@4 CG@4 CG@4 CG@4 CG@4 CG@4 CG@4 CG@4 CG@4 CG@4 CG@4 CG@4 CG@4 CG@4 CG@4 CG@4 CG@4 CG@4 CG@4 CG@4 CG@4 CG@4 CG@4 CG@4 CG@4 CG@4 CG@4 CG@4 CG@4 CG@4 CG@4 CG@4 CG@4 CG@4 CG@4 CG@4 CG@( CG@( CG@( CG@( CG@( CG@( CG@( CG@( CG@( CG@( CG@( CG@( CG@( CG@( CG@( CG@( CG@( CG@( CG@( CG@( CG@( CG@( CG@( CG@( CG@( CG@( CG@( CG@( CG@( CG@( CG@( CG@( CG@( CG@( CG@( CG@( CG@( CG@( CG@( CG@( CG@( CG@( CG@( CG@( CG@( CG@( CG@( CG@( ( ( ( ( ( ( ( ( ( ( ( ( ( ( ( ( ( ( ( ( ( ( ( ( ( ( ( ( ( ( ( ( ( ( ( ( ( ( ( ( ( ( ( ( ( ( ( ( ( ( ( ( ( ( ( ( ( ( ( ( ( ( ( ( ( ( ( ( ( ( ( ( H( H( H( H( H( H( H( H( H( H( H( H( H( H( H( H( H( H( H( H( H( H( H( H( H( H( H( H( H( H( H( H( H( H( H( H( H( H( H( H( H( H( H( H( H( H( H( H( H( H( H( H( H( H( H( H( H( H( H( H( H( H( H( H( H( H( H( H( H( H( H( H( H( H( H( H( H( H( H( H( H( H( H( H( H( H( H( H( H( H( H( H( H( H( H( H( ( ( ( ( ( ( ( ( ( ( ( ( ( ( ( ( ( ( ( ( ( ( ( ( G G G G G G G G G G G G G G G G G G G G G G G G G G G G G G G G G G G G G G G G G G G G G G G G G G G G G G G G G G G G G G G G G G G G G G G G G G G G G G G G G G G G G G G G G G G G G G G G                         E E E E E E E E E E E E E E E E E E E E E E E E E E E E E E E E E E E E E E E E E E E E E E E E E E E E E E E E E E E E E E E E E E E E E E E E E E E E E E E E E E E E E E E E E E E E E E E E                         C C C C C C C C C C C C C C C C C C C C C C C C C C C C C C C C C C C C C C C C C C C C C C C C C C C C C C C C C C C C C C C C C C C C C C C C C C C C C C C C C C C C C C C C C C C C C C C C                         B B B B B B B B B B B B B B B B B B B B B B B B B B B B B B B B B B B B B B B B B B B B B B B B B B B B B B B B B B B B B B B B B B B B B B B B B B B B B B B B B B B B B B B B B B B B B B B B                         @ @ @ @ @ @ @ @ @ @ @ @ @ @ @ @ @ @ @ @ @ @ @ @ @ @ @ @ @ @ @ @ @ @ @ @ @ @ @ @ @ @ @ @ @ @ @ @ @ @ @ @ @ @ @ @ @ @ @ @ @ @ @ @ @ @ @ @ @ @ @ @ @ @ @ @ @ @ @ @ @ @ @ @ @ @ @ @ @ @ @ @ @ @ @ @                         ? ? ? ? ? ? ? ? ? ? ? ? ? ? ? ? ? ? ? ? ? ? ? ? ? ? ? ? ? ? ? ? ? ? ? ? ? ? ? ? ? ? ? ? ? ? ? ? ? ? ? ? ? ? ? ? ? ? ? ? ? ? ? ? ? ? ? ? ? ? ? ? ? ? ? ? ? ? ? ? ? ? ? ? ? ? ? ? ? ? ? ? ? ? ? ? ? ? ? ? ? ? ? ? ? ? ? ? ? ? ? ? ? ? ? ? ? ? ? ? E?H E?H E?H E?H E?H E?H E?H E?H E?H E?H E?H E?H E?H E?H E?H E?H E?H E?H E?H E?H E?H E?H E?H E?H E?H E?H E?H E?H E?H E?H E?H E?H E?H E?H E?H E?H E?H E?H E?H E?H E?H E?H E?H E?H E?H E?H E?H E?H E?H E?H E?H E?H E?H E?H E?H E?H E?H E?H E?H E?H E?H E?H E?H E?H E?H E?H E?H E?H E?H E?H E?H E?H E?H E?H E?H E?H E?H E?H E?H E?H E?H E?H E?H E?H E?H E?H E?H E?H E?H E?H E?H E?H E?H E?H E?H E?H E?H E?H E?H E?H E?H E?H E?H E?H E?H E?H E?H E?H E?H E?H E?H E?H E?H E?H E?H E?H E?H E?H E?H E?H E?H E?H E?H E?H E?H E?H E?H E?H E?H E?H E?H E?H E?H E?H E?H E?H E?H E?H E?H E?H E?H E?H E?H E?H E?H E?H E?H E?H E?H E?H E?H E?H E?H E?H E?H E?H E?H E?H E?H E?H E?H E?H E?H E?H E?H E?H E?H E?H E?H E?H E?H E?H E?H E?H E?H E?H E?H E?H E?H E?H E?H E?H E?H E?H E?H E?H E?H E?H E?H E?H E?H E?H                                                 @ @ @ @ @ @ @ @ @ @ @ @ @ @ @ @ @ @ @ @ @ @ @ @ @ @ @ @ @ @ @C @C @C @C @C @C @C @C @C @C @C @C @C @C @C @C @C @C @C @C @C @C @C @C @C @C @C @C @C @C @LC @LC @LC @LC @LC @LC @LC @LC @LC @LC @LC @LC @LC @LC @LC @LC @LC @LC @LC @LC @LC @LC @LC @LC @LC @LC @LC @LC @LC @LC @LC @LC @LC @LC @LC @LC @LC @LC @LC @LC @LC @LC @LC @LC @LC @LC @LC @LC @LC @LC @LC @LC @LC @LC @LC @LC @LC @LC @LC @LC @LC4 @LC4 @LC4 @LC4 @LC4 @LC4 @LC4 @LC4 @LC4 @LC4 @LC4 @LC4 @LC4 @LC4 @LC4 @LC4 @LC4 @LC4 @LC4 @LC4 @LC4 @LC4 @LC4 @LC4 @LC4 @LC4 @LC4 @LC4 @LC4 @LC4 @LC4 @LC4 @LC4 @LC4 @LC4 @LC4 @LC4 @LC4 @LC4 @LC4 @LC4 @LC4 @LC4 @LC4 @LC4 @LC4 @LC4 @LC4 @LC4 @LC4 @LC4 @LC4 @LC4 @LC4 @LC4 @LC4 @LC4 @LC4 @LC4 @LC4 @LC4 @LC4 @LC4 @LC4 @LC4 @LC4 @LC4 @LC4 @LC4 @LC4 @LC4 @LC4 @LC4 @LC4 @LC4 @LC4 @LC4 @LC4 @LC4 @LC4 @LC4 @LC4 @LC4 @LC4 @LC4 @LC4 @LC4 @LC4 @LC4 @LC4 @LC4 @LC4 @LC4 @LC4 @LC4 @LC4 @LC @LC @LC @LC @LC @LC @LC @LC @LC @LC @LC @LC @LC @LC @LC @LC @LC @LC @LC @LC @LC @LC @LC @LC @LC6 @LC6 @LC6 @LC6 @LC6 @LC6 @LC6 @LC6 @LC6 @LC6 @LC6 @LC6 @LC6 @LC6 @LC6 @LC6 @LC6 @LC6 @LC6 @LC6 @LC6 @LC6 @LC6 @LC6 @LC6 @LC6 @LC6 @LC6 @LC6 @LC6 @LC6 @LC6 @LC6 @LC6 @LC6 @LC6 @LC6 @LC6 @LC6 @LC6 @LC6 @LC6 @LC6 @LC6 @LC6 @LC6 @LC6 @LC6 LC6 LC6 LC6 LC6 LC6 LC6 LC6 LC6 LC6 LC6 LC6 LC6 LC6 LC6 LC6 LC6 LC6 LC6 LC6 LC6 LC6 LC6 LC6 LC6 6 6 6 6 6 6 6 6 6 6 6 6 6 6 6 6 6 6 6 6 6 6 6 6                         O7 O7 O7 O7 O7 O7 O7 O7 O7 O7 O7 O7 O7 O7 O7 O7 O7 O7 O7 O7 O7 O7 O7 O7 O7 O7 O7 O7 O7 O7 O7 O7 O7 O7 O7 O7 O7 O7 O7 O7 O7 O7 O7 O7 O7 O7 O7 O7 O7 O7 O7 O7 O7 O7 O7 O7 O7 O7 O7 O7 O7 O7 O7 O7 O7 O7 O7 O7 O7 O7 O7 O7 O7 O7 O7 O7 O7 O7 O7 O7 O7 O7 O7 O7 O7 O7 O7 O7 O7 O7 O7 O7 O7 O7 O7 O7                         N9 N9 N9 N9 N9 N9 N9 N9 N9 N9 N9 N9 N9 N9 N9 N9 N9 N9 N9 N9 N9 N9 N9 N9 N9 N9 N9 N9 N9 N9 N9 N9 N9 N9 N9 N9 N9 N9 N9 N9 N9 N9 N9 N9 N9 N9 N9 N9 N9 N9 N9 N9 N9 N9 N9 N9 N9 N9 N9 N9 N9 N9 N9 N9 N9 N9 N9 N9 N9 N9 N9 N9 N9 N9 N9 N9 N9 N9 N9 N9 N9 N9 N9 N9 N9 N9 N9 N9 N9 N9 N9 N9 N9 N9 N9 N9                         L; L; L; L; L; L; L; L; L; L; L; L; L; L; L; L; L; L; L; L; L; L; L; L; L; L; L; L; L; L; L; L; L; L; L; L; L; L; L; L; L; L; L; L; L; L; L; L; L; L; L; L; L; L; L; L; L; L; L; L; L; L; L; L; L; L; L; L; L; L; L; L; L; L; L; L; L; L; L; L; L; L; L; L; L; L; L; L; L; L; L; L; L; L; L; L;                         K< K< K< K< K< K< K< K< K< K< K< K< K< K< K< K< K< K< K< K< K< K< K< K< K< K< K< K< K< K< K< K< K< K< K< K< K< K< K< K< K< K< K< K< K< K< K< K< K< K< K< K< K< K< K< K< K< K< K< K< K< K< K< K< K< K< K< K< K< K< K< K< K< K< K< K< K< K< K< K< K< K< K< K< K< K< K< K< K< K< K< K< K< K< K< K<                         L; L; L; L; L; L; L; L; L; L; L; L; L; L; L; L; L; L; L; L; L; L; L; L; L; L; L; L; L; L; L; L; L; L; L; L; L; L; L; L; L; L; L; L; L; L; L; L; L; L; L; L; L; L; L; L; L; L; L; L; L; L; L; L; L; L; L; L; L; L; L; L; L; L; L; L; L; L; L; L; L; L; L; L; L; L; L; L; L; L; L; L; L; L; L; L;                         N9 N9 N9 N9 N9 N9 N9 N9 N9 N9 N9 N9 N9 N9 N9 N9 N9 N9 N9 N9 N9 N9 N9 N9 9 9 9 9 9 9 L9 L9 L9 L9 L9 L9 L9 L9 L9 L9 L9 L9 L9 L9 L9 L9 L9 L9 L9 L9 L9 L9 L9 L9 9 9 9 9 9 9 N9 N9 N9 N9 N9 N9 N9 N9 N9 N9 N9 N9 N9 N9 N9 N9 N9 N9 N9 N9 N9 N9 N9 N9 9 9 9 9 9 9 L9 L9 L9 L9 L9 L9 L L L L L L L L L L L L L L L L L L       N7 N7 N7 N7 N7 N7 N7 N7 N7 N7 N7 N7 N7 N7 N7 N7 N7 N7 N7 N7 N7 N7 N7 N7 7 7 7 7 7 7 L7 L7 L7 L7 L7 L7 L7 L7 L7 L7 L7 L7 L7 L7 L7 L7 L7 L7 L7 L7 L7 L7 L7 L7 7 7 7 7 7 7 N7 N7 N7 N7 N7 N7 N7 N7 N7 N7 N7 N7 N7 N7 N7 N7 N7 N7 N7 N7 N7 N7 N7 N7 7 7 7 7 7 7 L7 L7 L7 L7 L7 L7 L L L L L L L L L L L L L L L L L L       N6 N6 N6 N6 N6 N6 N6 N6 N6 N6 N6 N6 N6 N6 N6 N6 N6 N6 N6 N6 N6 N6 N6 N6 6 6 6 6 6 6 L6 L6 L6 L6 L6 L6 L6 L6 L6 L6 L6 L6 L6 L6 L6 L6 L6 L6 L6 L6 L6 L6 L6 L6 6 6 6 6 6 6 N6 N6 N6 N6 N6 N6 N6 N6 N6 N6 N6 N6 N6 N6 N6 N6 N6 N6 N6 N6 N6 N6 N6 N6 6 6 6 6 6 6 L6 L6 L6 L6 L6 L6 L L L L L L L L L L L L L L L L L L       K4 K4 K4 K4 K4 K4 K4 K4 K4 K4 K4 K4 K4 K4 K4 K4 K4 K4 K4 K4 K4 K4 K4 K4 K4 K4 K4 K4 K4 K4 K4 K4 K4 K4 K4 K4 K4 K4 K4 K4 K4 K4 K4 K4 K4 K4 K4 K4 4 4 4 4 4 4 4 4 4 4 4 4 L4 L4 L4 L4 L4 L4 L4 L4 L4 L4 L4 L4 L4 L4 L4 L4 L4 L4 L4 L4 L4 L4 L4 L4 L4 L4 L4 L4 L4 L4 L4 L4 L4 L4 L4 L4 L L L L L L L L L L L L             N; N; N; N; N; N; N; N; N; N; N; N; N; N; N; N; N; N; N; N; N; N; N; N; N; N; N; N; N; N; N; N; N; N; N; N; N; N; N; N; N; N; N; N; N; N; N; N; N; N; N; N; N; N; N; N; N; N; N; N; N; N; N; N; N; N; N; N; N; N; N; N; N; N; N; N; N; N; N; N; N; N; N; N; N; N; N; N; N; N; N; N; N; N; N; N; N; N; N; N; N; N; N; N; N; N; N; N; N; N; N; N; N; N; N; N; N; N; N; N; N; N; N; N; N; N; N; N; N; N; N; N; N; N; N; N; N; N; N; N; N; N; N; N; N; N; N; N; N; N; N; N; N; N; N; N; N; N; N; N; N; N; N; N; N; N; N; N; N; N; N; N; N; N; N; N; N; N; N; N; N; N; N; N; N; N; N; N; N; N; N; N; ; ; ; ; ; ; ; ; ; ; ; ; ; ; ; ; ; ; ; ; ; ; ; ; ; ; ; ; ; ; ; ; ; ; ; ; ; ; ; ; ; ; ; ; ; ; ; ; G; G; G; G; G; G; G; G; G; G; G; G; G; G; G; G; G; G; G; G; G; G; G; G; G; G; G; G; G; G; G; G; G; G; G; G; G; G; G; G; G; G; G; G; G; G; G; G; G G G G G G G G G G G G G G G G G G G G G G G G G G G G G G G G G G G G G G G G G G G G G G G G G G G G G G G G G G G G G G G G G G G G G G G G G< G< G< G< G< G< G< G< G< G< G< G< G< G< G< G< G< G< G< G< G< G< G< G< G< G< G< G< G< G< G< G< G< G< G< G< G< G< G< G< G< G< G< G< G< G< G< G< G< G< G< G< G< G< G< G< G< G< G< G< G< G< G< G< G< G< G< G< G< G< G< G< < < < < < < < < < < < < < < < < < < < < < < < <                         C; C; C; C; C; C; C; C; C; C; C; C; C; C; C; C; C; C; C; C; C; C; C; C; C; C; C; C; C; C; CG; CG; CG; CG; CG; CG; CG; CG; CG; CG; CG; CG; CG; CG; CG; CG; CG; CG; CG; CG; CG; CG; CG; CG; CG; CG; CG; CG; CG; CG; CGL; CGL; CGL; CGL; CGL; CGL; CGL; CGL; CGL; CGL; CGL; CGL; CGL; CGL; CGL; CGL; CGL; CGL; CGL; CGL; CGL; CGL; CGL; CGL; CGL; CGL; CGL; CGL; CGL; CGL; CGL; CGL; CGL; CGL; CGL; CGL; CGL CGL CGL CGL CGL CGL CGL CGL CGL CGL CGL CGL CGL CGL CGL CGL CGL CGL CGL CGL CGL CGL CGL CGL CGL9 CGL9 CGL9 CGL9 CGL9 CGL9 CGL9 CGL9 CGL9 CGL9 CGL9 CGL9 CGL9 CGL9 CGL9 CGL9 CGL9 CGL9 CGL9 CGL9 CGL9 CGL9 CGL9 CGL9 CGL9 CGL9 CGL9 CGL9 CGL9 CGL9 CGL9 CGL9 CGL9 CGL9 CGL9 CGL9 CGL9 CGL9 CGL9 CGL9 CGL9 CGL9 CGL9 CGL9 CGL9 CGL9 CGL9 CGL9 CGL9 CGL9 CGL9 CGL9 CGL9 CGL9 CGL9 CGL9 CGL9 CGL9 CGL9 CGL9 CGL9 CGL9 CGL9 CGL9 CGL9 CGL9 CGL9 CGL9 CGL9 CGL9 CGL9 CGL9 CGL9 CGL9 CGL9 CGL9 CGL9 CGL9 CGL9 CGL9 CGL9 CGL9 CGL9 CGL9 CGL9 CGL9 CGL9 CGL9 CGL9 CGL9 CGL9 CGL9 CGL9 CGL9 CGL9 CGL9 CGL CGL CGL CGL CGL CGL CGL CGL CGL CGL CGL CGL CGL CGL CGL CGL CGL CGL CGL CGL CGL CGL CGL CGL CGL7 CGL7 CGL7 CGL7 CGL7 CGL7 CGL7 CGL7 CGL7 CGL7 CGL7 CGL7 CGL7 CGL7 CGL7 CGL7 CGL7 CGL7 CGL7 CGL7 CGL7 CGL7 CGL7 CGL7 CGL7 CGL7 CGL7 CGL7 CGL7 CGL7 CGL7 CGL7 CGL7 CGL7 CGL7 CGL7 CGL7 CGL7 CGL7 CGL7 CGL7 CGL7 CGL7 CGL7 CGL7 CGL7 CGL7 CGL7 GL7 GL7 GL7 GL7 GL7 GL7 GL7 GL7 GL7 GL7 GL7 GL7 GL7 GL7 GL7 GL7 GL7 GL7 GL7 GL7 GL7 GL7 GL7 GL7 7 7 7 7 7 7 7 7 7 7 7 7 7 7 7 7 7 7 7 7 7 7 7 7                         N6 N6 N6 N6 N6 N6 N6 N6 N6 N6 N6 N6 N6 N6 N6 N6 N6 N6 N6 N6 N6 N6 N6 N6 N6 N6 N6 N6 N6 N6 N6 N6 N6 N6 N6 N6 N6 N6 N6 N6 N6 N6 N6 N6 N6 N6 N6 N6 N6 N6 N6 N6 N6 N6 N6 N6 N6 N6 N6 N6 N6 N6 N6 N6 N6 N6 N6 N6 N6 N6 N6 N6 N6 N6 N6 N6 N6 N6 N6 N6 N6 N6 N6 N6 N6 N6 N6 N6 N6 N6 N6 N6 N6 N6 N6 N6                         O4 O4 O4 O4 O4 O4 O4 O4 O4 O4 O4 O4 O4 O4 O4 O4 O4 O4 O4 O4 O4 O4 O4 O4 4 4 4 4 4 4 N4 N4 N4 N4 N4 N4 N4 N4 N4 N4 N4 N4 N4 N4 N4 N4 N4 N4 N4 N4 N4 N4 N4 N4 4 4 4 4 4 4 O4 O4 O4 O4 O4 O4 O4 O4 O4 O4 O4 O4 O4 O4 O4 O4 O4 O4 O4 O4 O4 O4 O4 O4 4 4 4 4 4 4 N4 N4 N4 N4 N4 N4 N N N N N N N N N N N N N N N N N N       O3 O3 O3 O3 O3 O3 O3 O3 O3 O3 O3 O3 O3 O3 O3 O3 O3 O3 O3 O3 O3 O3 O3 O3 3 3 3 3 3 3 N3 N3 N3 N3 N3 N3 N3 N3 N3 N3 N3 N3 N3 N3 N3 N3 N3 N3 N3 N3 N3 N3 N3 N3 3 3 3 3 3 3 O3 O3 O3 O3 O3 O3 O3 O3 O3 O3 O3 O3 O3 O3 O3 O3 O3 O3 O3 O3 O3 O3 O3 O3 3 3 3 3 3 3 N3 N3 N3 N3 N3 N3 N3 N3 N3 N3 N3 N3 N3 N3 N3 N3 N3 N3 N3 N3 N3 N3 N3 N3 3 3 3 3 3 3 O<3 O<3 O<3 O<3 O<3 O<3 O<3 O<3 O<3 O<3 O<3 O<3 O<3 O<3 O<3 O<3 O<3 O<3 O<3 O<3 O<3 O<3 O<3 O<3 <3 <3 <3 <3 <3 <3 NN<3 NN<3 NN<3 NN<3 NN<3 NN<3 NN<3 NN<3 NN<3 NN<3 NN<3 NN<3 NN<3 NN<3 NN<3 NN<3 NN<3 NN<3 NN<3 NN<3 NN<3 NN<3 NN<3 NN<3 <3 <3 <3 <3 <3 <3 O<3 O<3 O<3 O<3 O<3 O<3 O<3 O<3 O<3 O<3 O<3 O<3 O<3 O<3 O<3 O<3 O<3 O<3 O<3 O<3 O<3 O<3 O<3 O<3 <3 <3 <3 <3 <3 <3 NN<3 NN<3 NN<3 NN<3 NN<3 NN<3 NN<3 NN<3 NN<3 NN<3 NN<3 NN<3 NN<3 NN<3 NN<3 NN<3 NN<3 NN<3 NN<3 NN<3 NN<3 NN<3 NN<3 NN<3 <3 <3 <3 <3 <3 <3 L<3 L<3 L<3 L<3 L<3 L<3 L<3 L<3 L<3 L<3 L<3 L<3 L<3 L<3 L<3 L<3 L<3 L<3 L<3 L<3 L<3 L<3 L<3 L<3 L<3 L<3 L<3 L<3 L<3 L<3 L<3 L<3 L<3 L<3 L<3 L<3 L<3 L<3 L<3 L<3 L<3 L<3 L<3 L<3 L<3 L<3 L<3 L<3 <3 <3 <3 <3 <3 <3 <3 <3 <3 <3 <3 <3 N<3 N<3 N<3 N<3 N<3 N<3 N<3 N<3 N<3 N<3 N<3 N<3 N N N N N N N N N N N N N N N N N N N N N N N N N N N N N N N N N N N N             O;4 O;4 O;4 O;4 O;4 O;4 O;4 O;4 O;4 O;4 O;4 O;4 O;4 O;4 O;4 O;4 O;4 O;4 O;4 O;4 O;4 O;4 O;4 O;4 O;4 O;4 O;4 O;4 O;4 O;4 O;4 O;4 O;4 O;4 O;4 O;4 O;4 O;4 O;4 O;4 O;4 O;4 O;4 O;4 O;4 O;4 O;4 O;4 O;4 O;4 O;4 O;4 O;4 O;4 O;4 O;4 O;4 O;4 O;4 O;4 O;4 O;4 O;4 O;4 O;4 O;4 O;4 O;4 O;4 O;4 O;4 O;4 O;4 O;4 O;4 O;4 O;4 O;4 O;4 O;4 O;4 O;4 O;4 O;4 O;4 O;4 O;4 O;4 O;4 O;4 O;4 O;4 O;4 O;4 O;4 O;4 O;4 O;4 O;4 O;4 O;4 O;4 O;4 O;4 O;4 O;4 O;4 O;4 O;4 O;4 O;4 O;4 O;4 O;4 O;4 O;4 O;4 O;4 O;4 O;4 O;4 O;4 O;4 O;4 O;4 O;4 O;4 O;4 O;4 O;4 O;4 O;4 O;4 O;4 O;4 O;4 O;4 O;4 O;4 O;4 O;4 O;4 O;4 O;4 O;4 O;4 O;4 O;4 O;4 O;4 O;4 O;4 O;4 O;4 O;4 O;4 O;4 O;4 O;4 O;4 O;4 O;4 O;4 O;4 O;4 O;4 O;4 O;4 O;4 O;4 O;4 O;4 O;4 O;4 O;4 O;4 O;4 O;4 O;4 O;4 O;4 O;4 O;4 O;4 O;4 O;4 O;4 O;4 O;4 O;4 O;4 O;4 ;4 ;4 ;4 ;4 ;4 ;4 ;4 ;4 ;4 ;4 ;4 ;4 ;4 ;4 ;4 ;4 ;4 ;4 ;4 ;4 ;4 ;4 ;4 ;4 ;4 ;4 ;4 ;4 ;4 ;4 ;4 ;4 ;4 ;4 ;4 ;4 ;4 ;4 ;4 ;4 ;4 ;4 ;4 ;4 ;4 ;4 ;4 ;4 G;4 G;4 G;4 G;4 G;4 G;4 G;4 G;4 G;4 G;4 G;4 G;4 G;4 G;4 G;4 G;4 G;4 G;4 G;4 G;4 G;4 G;4 G;4 G;4 G;4 G;4 G;4 G;4 G;4 G;4 G;4 G;4 G;4 G;4 G;4 G;4 G;4 G;4 G;4 G;4 G;4 G;4 G;4 G;4 G;4 G;4 G;4 G;4 G G G G G G G G G G G G G G G G G G G G G G G G G G G G G G G G G G G G G G G G G G G G G G G G G G G G G G G G G G G G G G G G G G G G G G G G G5 G5 G5 G5 G5 G5 G5 G5 G5 G5 G5 G5 G5 G5 G5 G5 G5 G5 G5 G5 G5 G5 G5 G5 G5 G5 G5 G5 G5 G5 G5 G5 G5 G5 G5 G5 G5 G5 G5 G5 G5 G5 G5 G5 G5 G5 G5 G5 G5 G5 G5 G5 G5 G5 G5 G5 G5 G5 G5 G5 G5 G5 G5 G5 G5 G5 G5 G5 G5 G5 G5 G5 5 5 5 5 5 5 5 5 5 5 5 5 5 5 5 5 5 5 5 5 5 5 5 5                         @4 @4 @4 @4 @4 @4 @4 @4 @4 @4 @4 @4 @4 @4 @4 @4 @4 @4 @4 @4 @4 @4 @4 @4 @4 @4 @4 @4 @4 @4 @D4 @D4 @D4 @D4 @D4 @D4 @D4 @D4 @D4 @D4 @D4 @D4 @D4 @D4 @D4 @LD4 @LD4 @LD4 @LD4 @LD4 @LD4 @LD4 @LD4 @LD4 @LD4 @LD4 @LD4 @LD4 @LD4 @LD4 @LGD4 @LGD4 @LGD4 @LGD4 @LGD4 @LGD4 @LGD4 @LGD4 @LGD4 @LGD4 @LGD4 @LGD4 @LGD4 @LGD4 @LGD4 @LGD4 @LGD4 @LGD4 @LGD4 @LGD4 @LGD4 @LGD4 @LGD4 @LGD4 @LGD4 @LGD4 @LGD4 @LGD4 @LGD4 @LGD4 @LGD4 @LGD4 @LGD4 @LGD4 @LGD4 @LGD4 @LGD @LGD @LGD @LGD @LGD @LGD @LGD @LGD @LGD @LGD @LGD @LGD @LGD @LGD @LGD @LGD @LGD @LGD @LGD @LGD @LGD @LGD @LGD @LGD @LGD2 @LGD2 @LGD2 @LGD2 @LGD2 @LGD2 @LGD2 @LGD2 @LGD2 @LGD2 @LGD2 @LGD2 @LGD2 @LGD2 @LGD2 @LGD2 @LGD2 @LGD2 @LGD2 @LGD2 @LGD2 @LGD2 @LGD2 @LGD2 @LGD2 @LGD2 @LGD2 @LGD2 @LGD2 @LGD2 @LGD2 @LGD2 @LGD2 @LGD2 @LGD2 @LGD2 @LGD2 @LGD2 @LGD2 @LGD2 @LGD2 @LGD2 @LGD2 @LGD2 @LGD2 @LGD2 @LGD2 @LGD2 @LGD2 @LGD2 @LGD2 @LGD2 @LGD2 @LGD2 @LGD2 @LGD2 @LGD2 @LGD2 @LGD2 @LGD2 @LGD2 @LGD2 @LGD2 @LGD2 @LGD2 @LGD2 @LGD2 @LGD2 @LGD2 @LGD2 @LGD2 @LGD2 @LGD2 @LGD2 @LGD2 @LGD2 @LGD2 @LGD2 @LGD2 @LGD2 @LGD2 @LGD2 @LGD2 @LGD2 @LGD2 @LGD2 @LGD2 @LGD2 @LGD2 @LGD2 @LGD2 @LGD2 @LGD2 @LGD2 @LGD2 @LGD2 @LGD @LGD @LGD @LGD @LGD @LGD @LGD @LGD @LGD @LGD @LGD @LGD @LGD @LGD @LGD @LGD @LGD @LGD @LGD @LGD @LGD @LGD @LGD @LGD @LGD0 @LGD0 @LGD0 @LGD0 @LGD0 @LGD0 @LGD0 @LGD0 @LGD0 @LGD0 @LGD0 @LGD0 @LGD0 @LGD0 @LGD0 @LGD0 @LGD0 @LGD0 @LGD0 @LGD0 @LGD0 @LGD0 @LGD0 @LGD0 @LGD0 @LGD0 @LGD0 @LGD0 @LGD0 @LGD0 @LGD0 @LGD0 @LGD0 @LGD0 @LGD0 @LGD0 @LGD0 @LGD0 @LGD0 @LGD0 @LGD0 @LGD0 @LGD0 @LGD0 @LGD0 @LGD0 @LGD0 @LGD0 LGD0 LGD0 LGD0 LGD0 LGD0 LGD0 LGD0 LGD0 LGD0 GD0 GD0 GD0 GD0 GD0 GD0 GD0 GD0 GD0 GD0 GD0 GD0 GD0 GD0 GD0 0 0 0 0 0 0 0 0 0 0 0 0 0 0 0 0 0 0 0 0 0 0 0 0          J J J J J J J J J J J J J J J J/ J/ J/ J/ J/ J/ J/ J/ J/ J/ J/ J/ J/ J/ J/ J/ J/ J/ J/ J/ J/ J/ J/ J/ J/ J/ J/ J/ J/ J/ J/ J/ J/ J/ J/ J/ J/ J/ J/ J/ J/ J/ J/ J/ J/ J/ J/ J/ J/ J/ J/ J/ J/ J/ J/ J/ J/ J/ J/ J/ J/ J/ J/ J/ J/ J/ J/ J/ J/ J/ J/ J/ J/ J/ J/ J/ J/ J/ J/ J/ J/ / / / / / / / / / / / / / / /          J J J J J J J J J J J J J J J J- J- J- J- J- J- J- J- J- - - - - - - H- H- H- H- H- H- H- H- H- H- H- H- H- H- H- H- H- H- H- H- H- H- H- H- - - - - - - J- J- J- J- J- J- J- J- J- J- J- J- J- J- J- J- J- J- J- J- J- J- J- J- - - - - - - H- H- H- H- H- H- H- H- H- H- H- H- H- H- H- H- H- H- H- H- H- H H H       J J J J J J J J J J J J J J J J, J, J, J, J, J, J, J, J, , , , , , , H, H, H, H, H, H, H, H, H, H, H, H, H, H, H, H, H, H, H, H, H, H, H, H, , , , , , , J, J, J, J, J, J, J, J, J, J, J, J, J, J, J, J, J, J, J, J, J, J, J, J, , , , , , , H, H, H, H, H, H, H, H, H, H, H, H, H, H, H, H, H, H, H, H, H, H, H, H, , , , , , , J, J, J, J, J, J, J, J, J, J, J, J, J, J, J, J,5 J,5 J,5 J,5 J,5 J,5 J,5 J,5 J,5 ,5 ,5 ,5 ,5 ,5 ,5 H,5 H,5 H,5 H,5 H,5 H,5 H,5 H,5 H,5 H,5 H,5 H,5 H,5 H,5 H,5 H,5 H,5 H,5 H,5 H,5 H,5 H,5 H,5 H,5 ,5 ,5 ,5 ,5 ,5 ,5 J,5 J,5 J,5 J,5 J,5 J,5 J,5 J,5 J,5 J,5 J,5 J,5 J,5 J,5 J,5 J,5 J,5 J,5 J,5 J,5 J,5 J,5 J,5 J,5 ,5 ,5 ,5 ,5 ,5 ,5 H,5 H,5 H,5 H,5 H,5 H,5 H,5 H,5 H,5 H,5 H,5 H,5 H,5 H,5 H,5 H,5 H,5 H,5 H,5 H,5 H,5 H,5 H,5 H,5 ,5 ,5 ,5 ,5 ,5 ,5 G,5 G,5 G,5 G,5 G,5 G,5 G,5 G,5 G,5 G,5 G,5 G,5 G,5 G,5 G,5 G,5 G,5 G,5 G,5 G,5 G,5 G,5 G,5 G,5 G,5 G,5 G,5 G,5 G,5 G,5 G,5 G,5 G,5 G,5 G,5 G,5 G,5 G,5 G,5 G,5 G,5 G,5 G,5 G,5 G,5 G,5 G,5 G,5 G,5 G,5 G,5 G,5 G,5 G,5 G,5 G,5 G,5 G,5 G,5 G,5 G,5 G,5 G,5 G,5 G,5 G,5 G,5 G,5 G,5 G,5 G,5 G,5 G,5 G,5 G,5 G,5 G,5 G,5 G,5 G,5 G,5 G,5 G,5 G,5 G,5 G,5 G,5 G G G G G G G G G                                        H- H- H- H- H- H- H- H- H- H- H- H- H- H- H- H- H- H- H- H- H- H- H- H- H- H- H- H- H- H- H- H- H- H- H- H- H- H- H- H- H- H- H- H- H- H- H- H- H- H- H- H- H- H- H- H- H- H- H- H- H- H- H- H- H- H- H- H- H- H- H- H- H- H- H- H- H- H- H- H- H- H- H- H- H- H- H- H- H- H- H- H- H- H- H- H- H- H- H- H- H- H- H- H- H- H- H- H- H- H- H- H- H- H- H- H- H- H- H- H- H-4 H-4 H-4 H-4 H-4 H-4 H-4 H-4 H-4 H-4 H-4 H-4 H-4 H-4 H-4 H-4 H-4 H-4 H-4 H-4 H-4 H-4 H-4 H-4 H-4 H-4 H-4 H-4 H-4 H-4 H-4 H-4 H-4 H-4 H-4 H-4 H-4 H-4 H-4 H-4 H-4 H-4 H-4 H-4 H-4 H-4 H-4 H-4 H-4 H-4 H-4 H-4 H-4 H-4 H-4 H-4 H-4 H-4 H-4 H-4 H-4 H-4 H-4 H-4 H-4 H-4 H-4 H-4 H-4 H-4 H-4 H-4 H4 H4 H4 H4 H4 H4 H4 H4 H4 H4 H4 H4 H4 H4 H4 H4 H4 H4 H4 H4 H4 H4 H4 H4 H H H H H H H H H H H H H H H H H H H H H H H H H9 H9 H9 H9 H9 H9 H9 H9 H9 H9 H9 H9 H9 H9 H9 H9 H9 H9 H9 H9 H9 H9 H9 H9 H9 H9 H9 H9 H9 H9 H9 H9 H9 H9 H9 H9 H9 H9 H9 H9 H9 H9 H9 H9 H9 H9 H9 H9 9 9 9 9 9 9 9 9 9 9 9 9 9 9 9 9 9 9 9 9 9 9 9 9 9 9 9 9 9 9 9 9 9 9 9 9 9 9 9 9 9 9 9 9 9 9 9 9                         G; G; G; G; G; G; G; G; G; G; G; G; G; G; G; G; G; G; G; G; G; G; G; G; G; G; G; G; G; G; G; G; G; G; G; G; G; G; G; G; G; G; G; G; G; G; G; G; G; G; G; G; G; G; G; G; G; G; G; G; G; G; G; G; G; G; G; G; G; G; G; G; G; G; G; G; G; G; G; G; G; G; G; G; G; G; G; G; G; G; G; G; G; G; G; G;                         E< E< E< E< E< E< E< E< E< E< E< E< E< E< E< E< E< E< E< E< E< E< E< E< E< E< E< E< E< E< E< E< E< E< E< E< E< E< E< E< E< E< E< E< E< E< E< E< E< E< E< E< E< E< E< E< E< E< E< E< E< E< E< E< E< E< E< E< E< E< E< E< E< E< E< E< E< E< E< E< E< E< E< E< E< E< E< E< E< E< E< E< E< E< E< E<                         C> C> C> C> C> C> C> C> C> C> C> C> C> C> C> C> C> C> C> C> C> C> C> C> C> C> C> C> C> C> C> C> C> C> C> C> C> C> C> C> C> C> C> C> C> C> C> C> C> C> C> C> C> C> C> C> C> C> C> C> C> C> C> C> C> C> C> C> C> C> C> C> C> C> C> C> C> C> C> C> C> C> C> C> C> C> C> C> C> C> C> C> C> C> C> C>                         B@ B@ B@ B@ B@ B@ B@ B@ B@ B@ B@ B@ B@ B@ B@ B@ B@ B@ B@ B@ B@ B@ B@ B@ B@ B@ B@ B@ B@ B@ B@ B@ B@ B@ B@ B@ B@ B@ B@ B@ B@ B@ B@ B@ B@ B@ B@ B@ B@ B@ B@ B@ B@ B@ B@ B@ B@ B@ B@ B@ B@ B@ B@ B@ B@ B@ B@ B@ B@ B@ B@ B@ B@ B@ B@ B@ B@ B@ B@ B@ B@ B@ B@ B@ B@ B@ B@ B@ B@ B@ B@ B@ B@ B@ B@ B@                         C> C> C> C> C> C> C> C> C> C> C> C> C> C> C> C> C> C> C> C> C> C> C> C> C> C> C> C> C> C> C> C> C> C> C> C> C> C> C> C> C> C> C> C> C> C> C> C> C> C> C> C> C> C> C> C> C> C> C> C> C> C> C> C> C> C> C> C> C> C> C> C> C> C> C> C> C> C> C> C> C> C> C> C> C> C> C> C> C> C> C> C> C> C> C> C>                         E< E< E< E< E< E< E< E< E< E< E< E< E< E< E< E< E< E< E< E< E< E< E< E< < < < < < < C< C< C< C< C< C< C< C< C< C< C< C< C< C< C< C< C< C< C< C< C< C< C< C< < < < < < < E< E< E< E< E< E< E< E< E< E< E< E< E< E< E< E< E< E< E< E< E< E< E< E< < < < < < < C< C< C< C< C< C< C C C C C C C C C C C C C C C C C C       E; E; E; E; E; E; E; E; E; E; E; E; E; E; E; E; E; E; E; E; E; E; E; E; ; ; ; ; ; ; C; C; C; C; C; C; C; C; C; C; C; C; C; C; C; C; C; C; C; C; C; C; C; C; ; ; ; ; ; ; E; E; E; E; E; E; E; E; E; E; E; E; E; E; E; E; E; E; E; E; E; E; E; E; ; ; ; ; ; ; C; C; C; C; C; C; C C C C C C C C C C C C C C C C C C       E9 E9 E9 E9 E9 E9 E9 E9 E9 E9 E9 E9 E9 E9 E9 E9 E9 E9 E9 E9 E9 E9 E9 E9 9 9 9 9 9 9 C9 C9 C9 C9 C9 C9 C9 C9 C9 C9 C9 C9 C9 C9 C9 C9 C9 C9 C9 C9 C9 C9 C9 C9 9 9 9 9 9 9 E9 E9 E9 E9 E9 E9 E9 E9 E9 E9 E9 E9 E9 E9 E9 E9 E9 E9 E9 E9 E9 E9 E9 E9 9 9 9 9 9 9 C9 C9 C9 C9 C9 C9 C C C C C C C C C C C C C C C C C C       B7 B7 B7 B7 B7 B7 B7 B7 B7 B7 B7 B7 B7 B7 B7 B7 B7 B7 B7 B7 B7 B7 B7 B7 B7 B7 B7 B7 B7 B7 B7 B7 B7 B7 B7 B7 B7 B7 B7 B7 B7 B7 B7 B7 B7 B7 B7 B7 7 7 7 7 7 7 7 7 7 7 7 7 C7 C7 C7 C7 C7 C7 C7 C7 C7 C7 C7 C7 C7 C7 C7 C7 C7 C7 C7 C7 C7 C7 C7 C7 C7 C7 C7 C7 C7 C7 C7 C7 C7 C7 C7 C7 C C C C C C C C C C C C             EB> EB> EB> EB> EB> EB> EB> EB> EB> EB> EB> EB> EB> EB> EB> EB> EB> EB> EB> EB> EB> EB> EB> EB> EB> EB> EB> EB> EB> EB> EB> EB> EB> EB> EB> EB> EB> EB> EB> EB> EB> EB> EB> EB> EB> EB> EB> EB> EB> EB> EB> EB> EB> EB> EB> EB> EB> EB> EB> EB> EB> EB> EB> EB> EB> EB> EB> EB> EB> EB> EB> EB> EB> EB> EB> EB> EB> EB> EB> EB> EB> EB> EB> EB> EB> EB> EB> EB> EB> EB> EB> EB> EB> EB> EB> EB> EB> EB> EB> EB> EB> EB> EB> EB> EB> EB> EB> EB> EB> EB> EB> EB> EB> EB> EB> EB> EB> EB> EB> EB> EB> EB> EB> EB> EB> EB> EB> EB> EB> EB> EB> EB> EB> EB> EB> EB> EB> EB> EB> EB> EB> EB> EB> EB> EB> EB> EB> EB> EB> EB> EB> EB> EB> EB> EB> EB> EB> EB> EB> EB> EB> EB> EB> EB> EB> EB> EB> EB> EB> EB> EB> EB> EB> EB> EB> EB> EB> EB> EB> EB> EB> EB> EB> EB> EB> EB> EB> EB> EB> EB> EB> EB> EB EB EB EB EB EB EB EB EB EB EB EB EB EB EB EB EB EB EB EB EB EB EB EB EB EB EB EB EB EB EB EB EB EB EB EB EB EB EB EB EB EB EB EB EB EB EB EB EB2 EB2 EB2 EB2 EB2 EB2 EB2 EB2 EB2 EB2 EB2 EB2 EB2 EB2 EB2 EB2 EB2 EB2 EB2 EB2 EB2 EB2 EB2 EB2 EB2 EB2 EB2 EB2 EB2 EB2 EB2 EB2 EB2 EB2 EB2 EB2 EB2 EB2 EB2 EB2 EB2 EB2 EB2 EB2 EB2 EB2 EB2 EB2 2 2 2 2 2 2 2 2 2 2 2 2 2 2 2 2 2 2 2 2 2 2 2 2 2 2 2 2 2 2 2 2 2 2 2 2 2 2 2 2 2 2 2 2 2 2 2 2 2 2 2 2 2 2 2 2 2 2 2 2 2 2 2 2 2 2 2 2 2 2 2 2 Q2 Q2 Q2 Q2 Q2 Q2 Q2 Q2 Q2 Q2 Q2 Q2 Q2 Q2 Q2 Q2 Q2 Q2 Q2 Q2 Q2 Q2 Q2 Q2 Q2 Q2 Q2 Q2 Q2 Q2 Q2 Q2 Q2 Q2 Q2 Q2 Q2 Q2 Q2 Q2 Q2 Q2 Q2 Q2 Q2 Q2 Q2 Q2 Q2 Q2 Q2 Q2 Q2 Q2 Q2 Q2 Q2 Q2 Q2 Q2 Q2 Q2 Q2 Q2 Q2 Q2 Q2 Q2 Q2 Q2 Q2 Q2 Q Q Q Q Q Q Q Q Q Q Q Q Q Q Q Q Q Q Q Q Q Q Q Q                         O O O O O O O O O O O O O O O O O O O O O O O O O O O O O O O O O O O O O O O O O O O O O O O O O O O O O O O O O O O O O O O O O O O O O O O O O O O O O O O O O O O O O O O O O O O O O O O O                         N N N N N N N N N N N N N N N N N N N N N N N N N N N N N N N N N N N N N N N N N N N N N N N N N N N N N N N N N N N N N N N N N N N N N N N N N N N N N N N N N N N N N N N N N N N N N N N N                         L L L L L L L L L L L L L L L L L L L L L L L L L L L L L L L L L L L L L L L L L L L L L L L L L L L L L L L L L L L L L L L L L L L L L L L L L L L L L L L L L L L L L L L L L L L L L L L L                         J J J J J J J J J J J J J J J J J J J J J J J J J J J J J J J J J J J J J J J J J J J J J J J J J J J J J J J J J J J J J J J J J J J J J J J J J J J J J J J J J J J J J J J J J J J J J J J J                         H H H H H H H H H H H H H H H H H H H H H H H H H H H H H H H H H H H H H H H H H H H H H H H H H H H H H H H H H H H H H H H H H H H H H H H H H H H H H H H H H H H H H H H H H H H H H H H H                         G G G G G G G G G G G G G G G G G G G G G G G G G G G G G G G G G G G G G G G G G G G G G G G G G G G G G G G G G G G G G G G G G G G G G G G G G G G G G G G G G G G G G G G G G G G G G G G G                         HQ>BE HQ>BE HQ>BE HQ>BE HQ>BE HQ>BE HQ>BE HQ>BE HQ>BE HQ>BE HQ>BE HQ>BE HQ>BE HQ>BE HQ>BE HQ>BE HQ>BE HQ>BE HQ>BE HQ>BE HQ>BE HQ>BE HQ>BE HQ>BE HQ>BE HQ>BE HQ>BE HQ>BE HQ>BE HQ>BE HQ>BE HQ>BE HQ>BE HQ>BE HQ>BE HQ>BE HQ>BE HQ>BE HQ>BE HQ>BE HQ>BE HQ>BE HQ>BE HQ>BE HQ>BE HQ>BE HQ>BE HQ>BE HQ>BE HQ>BE HQ>BE HQ>BE HQ>BE HQ>BE HQ>BE HQ>BE HQ>BE HQ>BE HQ>BE HQ>BE HQ>BE HQ>BE HQ>BE HQ>BE HQ>BE HQ>BE HQ>BE HQ>BE HQ>BE HQ>BE HQ>BE HQ>BE HQ>BE HQ>BE HQ>BE HQ>BE HQ>BE HQ>BE HQ>BE HQ>BE HQ>BE HQ>BE HQ>BE HQ>BE HQ>BE HQ>BE HQ>BE HQ>BE HQ>BE HQ>BE HQ>BE HQ>BE HQ>BE HQ>BE HQ>BE HQ>BE HQ>BE HQ>BE HQ>BE HQ>BE HQ>BE HQ>BE HQ>BE HQ>BE HQ>BE HQ>BE HQ>BE HQ>BE HQ>BE HQ>BE HQ>BE HQ>BE HQ>BE HQ>BE HQ>BE HQ>BE HQ>BE HQ>BE HQ>BE HQ>BE HQ>BE HQ>BE HQ>BE HQ>BE HQ>BE HQ>BE HQ>BE HQ>BE HQ>BE HQ>BE HQ>BE HQ>BE HQ>BE HQ>BE HQ>BE HQ>BE HQ>BE HQ>BE HQ>BE HQ>BE HQ>BE HQ>BE HQ>BE HQ>BE HQ>BE HQ>BE HQ>BE HQ>BE HQ>BE HQ>BE HQ>BE HQ>BE HQ>BE HQ>BE HQ>BE HQ>BE HQ>BE HQ>BE HQ>BE HQ>BE HQ>BE HQ>BE HQ>BE HQ>BE HQ>BE HQ>BE HQ>BE HQ>BE HQ>BE HQ>BE HQ>BE HQ>BE HQ>BE HQ>BE HQ>BE HQ>BE HQ>BE HQ>BE HQ>BE HQ>BE HQ>BE HQ>BE HQ>BE HQ>BE HQ>BE HQ>BE HQ>BE HQ>BE HQ>BE HQ>BE HQ>BE HQ>BE                                                 HC> HC> HC> HC> HC> HC> HC> HC> HC> HC> HC> HC> HC> HC> HC> HC> HC> HC> HC> HC> HC> HC> HC> HC> HC> HC> HC> HC> HC> HC> HC> HC> HC> HC> HC> HC> HC> HC> HC> HC> HC> HC> HC> HC> HC> HC> HC> HC> HC> HC> HC> HC> HC> HC> HC> HC> HC> HC> HC> HC> C> C> C> C> C> C> C> C> C> C> C> C> C> C> C> C> C> C> C> C> C> C> C> C> C> C> C> C> C> C> C> C> C> C> C> C> C> C> C> C> C> C> C> C> C> C> C> C> C> C> C> C> C> C> C> C> C> C> C> C> C> C> C> C> C> C> C> C> C> C> C> C> C> C> C> C> C> C> C> C> C> C> C> C> C> C> C> C> C> C> C> C> C> C> C> C> C> C> C> C> C> C> C> C> C> C> C> C> C> C> C> C> C> C> C> C> C> C> C> C> GC> GC> GC> GC> GC> GC> GC> GC> GC> GC> GC> GC> GC GC GC GC GC GC GC GC GC GC GC GC GC GC GC GC GC GC GC GC GC GC GC GC GC GC GC GC GC GC GC GC GC GC GC GC GC GC GC GC GC GC GC GC GC GC GC GC GC2 GC2 GC2 GC2 GC2 GC2 GC2 GC2 GC2 GC2 GC2 GC2 GC2 GC2 GC2 GC2 GC2 GC2 GC2 GC2 GC2 GC2 GC2 GC2 GC2 GC2 GC2 GC2 GC2 GC2 GC2 GC2 GC2 GC2 GC2 GC2 GC2 GC2 GC2 GC2 GC2 GC2 GC2 GC2 GC2 GC2 GC2 GC2 GC2 GC2 GC2 GC2 GC2 C2 C2 C2 C2 C2 C2 C2 C2 C2 C2 C2 C2 C2 C2 C2 C2 C2 C2 C2 C2 C2 C2 C2 C2 C2 C2 C2 C2 C2 C2 C2 C2 C2 C2 C2 C2 C2 C2 C2 C2 C2 C2 C2 C2 C2 C2 C2 C2 C2 C2 C2 C2 C2 C2 C2 C2 C2 C2 C2 C2 C2 C2 C2 C2 C2 C2 C2 CO2 CO2 CO2 CO2 CO2 CO2 CO2 CO2 CO2 CO2 CO2 CO2 CO2 CO2 CO2 CO2 CO2 CO2 CO2 CO2 CO2 CO2 CO2 CO2 O2 O2 O2 O2 O2 O2 O2 O2 O2 O2 O2 O2 O2 O2 O2 O2 O2 O2 O2 O2 O2 O2 O2 O2 O2 O2 O2 O2 O2 O2 O2 O2 O2 O2 O2 O2 O2 O2 O2 O2 O2 O2 O2 O2 O2 O2 O2 O2 O O O O O O O O O O O O O O O O O O O O O O O O                         N N N N N N N N N N N N N N N N N N N N N N N N N N N N N N N N N N N N N N N N N N N N N N N N N N N N N N N N N N N N N N N N N N N N N N N N N N N N N N N N N N N N N N N N N N N N N N N N                         L L L L L L L L L L L L L L L L L L L L L L L L L L L L L L L L L L L L L L L L L L L L L L L L L L L L L L L L L L L L L L L L L L L L L L L L L L L L L L L L L L L L L L L L L L L L L L L L                         J J J J J J J J J J J J J J J J J J J J J J J J J J J J J J J J J J J J J J J J J J J J J J J J J J J J J J J J J J J J J J J J J J J J J J J J J J J J J J J J J J J J J J J J J J J J J J J J                         H H H H H H H H H H H H H H H H H H H H H H H H H H H H H H H H H H H H H H H H H H H H H H H H H H H H H H H H H H H H H H H H H H H H H H H H H H H H H H H H H H H H H H H H H H H H H H H H                         G G G G G G G G G G G G G G G G G G G G G G G G G G G G G G G G G G G G G G G G G G G G G G G G G G G G G G G G G G G G G G G G G G G G G G G G G G G G G G G G G G G G G G G G G G G G G G G G                         E E E E E E E E E E E E E E E E E E E E E E E E E E E E E E E E E E E E E E E E E E E E E E E E E E E E E E E E E E E E E E E E E E E E E E E E E E E E E E E E E E E E E E E E E E E E E E E E                         OGC> OGC> OGC> OGC> OGC> OGC> OGC> OGC> OGC> OGC> OGC> OGC> OGC> OGC> OGC> OGC> OGC> OGC> OGC> OGC> OGC> OGC> OGC> OGC> OGC> OGC> OGC> OGC> OGC> OGC> OGC> OGC> OGC> OGC> OGC> OGC> OGC> OGC> OGC> OGC> OGC> OGC> OGC> OGC> OGC> OGC> OGC> OGC> OGC> OGC> OGC> OGC> OGC> OGC> OGC> OGC> OGC> OGC> OGC> OGC> OGC> OGC> OGC> OGC> OGC> OGC> OGC> OGC> OGC> OGC> OGC> OGC> OGC> OGC> OGC> OGC> OGC> OGC> OGC> OGC> OGC> OGC> OGC> OGC> OGC> OGC> OGC> OGC> OGC> OGC> OGC> OGC> OGC> OGC> OGC> OGC> OGC> OGC> OGC> OGC> OGC> OGC> OGC> OGC> OGC> OGC> OGC> OGC> OGC> OGC> OGC> OGC> OGC> OGC> OGC> OGC> OGC> OGC> OGC> OGC> OGC> OGC> OGC> OGC> OGC> OGC> OGC> OGC> OGC> OGC> OGC> OGC> OGC> OGC> OGC> OGC> OGC> OGC> OGC> OGC> OGC> OGC> OGC> OGC> OGC> OGC> OGC> OGC> OGC> OGC> OGC> OGC> OGC> OGC> OGC> OGC> OGC> OGC> OGC> OGC> OGC> OGC> OGC> OGC> OGC> OGC> OGC> OGC> OGC> OGC> OGC> OGC> OGC> OGC> OGC> OGC> OGC> OGC> OGC> OGC> OGC> OGC> OGC> OGC> OGC> OGC> OGC> OGC> OGC> OGC> OGC> OGC>                                                 GB> GB> GB> GB> GB> GB> GB> GB> GB> GB> GB> GB> GB> GB> GB> GB> GB> GB> GB> GB> GB> GB> GB> GB> GB> GB> GB> GB> GB> GB> GB> GB> GB> GB> GB> GB> GB> GB> GB> GB> GB> GB> GB> GB> GB> GB> GB> GB> GB> GB> GB> GB> GB> GB> GB> GB> GB> GB> GB> GB> GB> GB> GB> GB> GB> GB> GB> GB> GB> GB> GB> GB> GB> GB> GB> GB> GB> GB> GB> GB> GB> GB> GB> GB> GB> GB> GB> GB> GB> GB> GB> GB> GB> GB> GB> GB> B> B> B> B> B> B> B> B> B> B> B> B> B> B> B> B> B> B> B> B> B> B> B> B> B> B> B> B> B> B> B> B> B> B> B> B> B> B> B> B> B> B> B> B> B> B> B> B> B> B> B> B> B> B> B> B> B> B> B> B> B> B> B> B> B> B> B> B> B> B> B> B> B> B> B> B> B> B> B> B> B> B> B> B> BE> BE> BE> BE> BE> BE> BE> BE> BE> BE> BE> BE> BE BE BE BE BE BE BE BE BE BE BE BE BE BE BE BE BE BE BE BE BE BE BE BE BE BE BE BE BE BE BE BE BE BE BE BE BE BE BE BE BE BE BE BE BE BE BE BE BE2 BE2 BE2 BE2 BE2 BE2 BE2 BE2 BE2 BE2 BE2 BE2 BE2 BE2 BE2 BE2 BE2 BE2 BE2 BE2 BE2 BE2 BE2 BE2 BE2 BE2 BE2 BE2 BE2 BE2 BE2 BE2 BE2 BE2 BE2 BE2 BE2 BE2 BE2 BE2 BE2 BE2 BE2 BE2 BE2 BE2 BE2 BE2 E2 E2 E2 E2 E2 2 2 2 2 2 2 2 2 2 2 2 2 2 2 2 2 2 2 2 2 2 2 2 2 2 2 2 2 2 2 2 2 2 2 2 2 2 2 2 2 2 2 2 2 2 2 2 2 2 2 2 2 2 2 2 2 2 2 2 2 2 2 2 2 2 2 2 H2 H2 H2 H2 H2 H2 H2 H2 H2 H2 H2 H2 H2 H2 H2 H2 H2 H2 H2 H2 H2 H2 H2 H2 H2 H2 H2 H2 H2 H2 H2 H2 H2 H2 H2 H2 H2 H2 H2 H2 H2 H2 H2 H2 H2 H2 H2 H2 H2 H2 H2 H2 H2 H2 H2 H2 H2 H2 H2 H2 H2 H2 H2 H2 H2 H2 H2 H2 H2 H2 H2 H2 H H H H H H H H H H H H H H H H H H H H H H H H                         G G G G G G G G G G G G G G G G G G G G G G G G G G G G G G G G G G G G G G G G G G G G G G G G G G G G G G G G G G G G G G G G G G G G G G G G G G G G G G G G G G G G G G G G G G G G G G G G                         E E E E E E E E E E E E E E E E E E E E E E E E E E E E E E E E E E E E E E E E E E E E E E E E E E E E E E E E E E E E E E E E E E E E E E E E E E E E E E E E E E E E E E E E E E E E E E E E                         C C C C C C C C C C C C C C C C C C C C C C C C C C C C C C C C C C C C C C C C C C C C C C C C C C C C C C C C C C C C C C C C C C C C C C C C C C C C C C C C C C C C C C C C C C C C C C C C                         B B B B B B B B B B B B B B B B B B B B B B B B B B B B B B B B B B B B B B B B B B B B B B B B B B B B B B B B B B B B B B B B B B B B B B B B B B B B B B B B B B B B B B B B B B B B B B B B                         @ @ @ @ @ @ @ @ @ @ @ @ @ @ @ @ @ @ @ @ @ @ @ @ @ @ @ @ @ @ @ @ @ @ @ @ @ @ @ @ @ @ @ @ @ @ @ @ @ @ @ @ @ @ @ @ @ @ @ @ @ @ @ @ @ @ @ @ @ @ @ @ @ @ @ @ @ @ @ @ @ @ @ @ @ @ @ @ @ @ @ @ @ @ @ @                         >2 >2 >2 >2 >2 >2 >2 >2 >2 >2 >2 >2 >2 >2 >2 >2 >2 >2 >2 >2 >2 >2 >2 >2 >2 >2 >2 >2 >2 >2 >2 >2 >2 >2 >2 >2 >2 >2 >2 >2 >2 >2 >2 >2 >2 >2 >2 >2 >2 >2 >2 >2 >2 >2 >2 >2 >2 >2 >2 >2 >2 >2 >2 >2 >2 >2 >2 >2 >2 >2 >2 >2 >2 >2 >2 >2 >2 >2 >2 >2 >2 >2 >2 >2 >2 >2 >2 >2 >2 >2 >2 >2 >2 >2 >2 >2                         H4 H4 H4 H4 H4 H4 H4 H4 H4 H4 H4 H4 H4 H4 H4 H4 H4 H4 H4 H4 H4 H4 H4 H4 H4 H4 H4 H4 H4 H4 H4 H4 H4 H4 H4 H4 H4 H4 H4 H4 H4 H4 H4 H4 H4 H4 H4 H4 H4 H4 H4 H4 H4 H4 H4 H4 H4 H4 H4 H4 H4 H4 H4 H4 H4 H4 H4 H4 H4 H4 H4 H4 H4 H4 H4 H4 H4 H4 H4 H4 H4 H4 H4 H4 H4 H4 H4 H4 H4 H4 H4 H4 H4 H4 H4 H4 H H H H H H H H H H H H H H H H H H H H H H H H H6 H6 H6 H6 H6 H6 H6 H6 H6 H6 H6 H6 H6 H6 H6 H6 H6 H6 H6 H6 H6 H6 H6 H6 H6 H6 H6 H6 H6 H6 H6 H6 H6 H6 H6 H6 H6 H6 H6 H6 H6 H6 H6 H6 H6 H6 H6 H6 H6 H6 H6 H6 H6 H6 H6 H6 H6 H6 H6 H6 H6 H6 H6 H6 H6 H6 H6 H6 H6 H6 H6 H6 6 6 6 6 6 6 6 6 6 6 6 6 6 6 6 6 6 6 6 6 6 6 6 6                         H7 H7 H7 H7 H7 H7 H7 H7 H7 H7 H7 H7 H7 H7 H7 H7 H7 H7 H7 H7 H7 H7 H7 H7 7 7 7 7 7 7 G7 G7 G7 G7 G7 G7 G7 G7 G7 G7 G7 G7 G7 G7 G7 G7 G7 G7 G7 G7 G7 G7 G7 G7 7 7 7 7 7 7 H7 H7 H7 H7 H7 H7 H7 H7 H7 H7 H7 H7 H7 H7 H7 H7 H7 H7 H7 H7 H7 H7 H7 H7 7 7 7 7 7 7 G7 G7 G7 G7 G7 G7 G G G G G G G G G G G G G G G G G G       H9 H9 H9 H9 H9 H9 H9 H9 H9 H9 H9 H9 H9 H9 H9 H9 H9 H9 H9 H9 H9 H9 H9 H9 9 9 9 9 9 9 G9 G9 G9 G9 G9 G9 G9 G9 G9 G9 G9 G9 G9 G9 G9 G9 G9 G9 G9 G9 G9 G9 G9 G9 9 9 9 9 9 9 H9 H9 H9 H9 H9 H9 H9 H9 H9 H9 H9 H9 H9 H9 H9 H9 H9 H9 H9 H9 H9 H9 H9 H9 9 9 9 9 9 9 G9 G9 G9 G9 G9 G9 G G G G G G G G G G G G G G G G G G       H7 H7 H7 H7 H7 H7 H7 H7 H7 H7 H7 H7 H7 H7 H7 H7 H7 H7 H7 H7 H7 H7 H7 H7 7 7 7 7 7 7 G7 G7 G7 G7 G7 G7 G7 G7 G7 G7 G7 G7 G7 G7 G7 G7 G7 G7 G7 G7 G7 G7 G7 G7 7 7 7 7 7 7 H7 H7 H7 H7 H7 H7 H7 H7 H7 H7 H7 H7 H7 H7 H7 H7 H7 H7 H7 H7 H7 H7 H7 H7 7 7 7 7 7 7 G7 G7 G7 G7 G7 G7 G G G G G G G G G G G G G G G G G G       E6 E6 E6 E6 E6 E6 E6 E6 E6 E6 E6 E6 E6 E6 E6 E6 E6 E6 E6 E6 E6 E6 E6 E6 E6 E6 E6 E6 E6 E6 E6 E6 E6 E6 E6 E6 E6 E6 E6 E6 E6 E6 E6 E6 E6 E6 E6 E6 E6 E6 E6 E6 E6 E6 E6 E6 E6 E6 E6 E6 E6 E6 E6 E6 E6 E6 E6 E6 E6 E6 E6 E6 E6 E6 E6 E6 E6 E6 E6 E6 E6 E6 E6 E6 E6 E6 E6 E6 E6 E6 E6 E6 E6 E6 E6 E6                         C4 C4 C4 C4 C4 C4 C4 C4 C4 C4 C4 C4 C4 C4 C4 C4 C4 C4 C4 C4 C4 C4 C4 C4 C4 C4 C4 C4 C4 C4 C4 C4 C4 C4 C4 C4 C4 C4 C4 C4 C4 C4 C4 C4 C4 C4 C4 C4 C4 C4 C4 C4 C4 C4 C4 C4 C4 C4 C4 C4 C4 C4 C4 C4 C4 C4 C4 C4 C4 C4 C4 C4 C4 C4 C4 C4 C4 C4 C4 C4 C4 C4 C4 C4 C4 C4 C4 C4 C4 C4 C4 C4 C4 C4 C4 C4                         B2 B2 B2 B2 B2 B2 B2 B2 B2 B2 B2 B2 B2 B2 B2 B2 B2 B2 B2 B2 B2 B2 B2 B2 B2 B2 B2 B2 B2 B2 B2 B2 B2 B2 B2 B2 B2 B2 B2 B2 B2 B2 B2 B2 B2 B2 B2 B2 B2 B2 B2 B2 B2 B2 B2 B2 B2 B2 B2 B2 B2 B2 B2 B2 B2 B2 B2 B2 B2 B2 B2 B2 B2 B2 B2 B2 B2 B2 B2 B2 B2 B2 B2 B2 B2 B2 B2 B2 B2 B2 B2 B2 B2 B2 B2 B2                         C4 C4 C4 C4 C4 C4 C4 C4 C4 C4 C4 C4 C4 C4 C4 C4 C4 C4 C4 C4 C4 C4 C4 C4 C4 C4 C4 C4 C4 C4 C4 C4 C4 C4 C4 C4 C4 C4 C4 C4 C4 C4 C4 C4 C4 C4 C4 C4 C4 C4 C4 C4 C4 C4 C4 C4 C4 C4 C4 C4 C4 C4 C4 C4 C4 C4 C4 C4 C4 C4 C4 C4 C4 C4 C4 C4 C4 C4 C4 C4 C4 C4 C4 C4 C4 C4 C4 C4 C4 C4 C4 C4 C4 C4 C4 C4                         E0 E0 E0 E0 E0 E0 E0 E0 E0 E0 E0 E0 E0 E0 E0 E0 E0 E0 E0 E0 E0 E0 E0 E0 E0 E0 E0 E0 E0 E0 E0 E0 E0 E0 E0 E0 E0 E0 E0 E0 E0 E0 E0 E0 E0 E0 E0 E0 E0 E0 E0 E0 E0 E0 E0 E0 E0 E0 E0 E0 E0 E0 E0 E0 E0 E0 E0 E0 E0 E0 E0 E0 E0 E0 E0 E0 E0 E0 E0 E0 E0 E0 E0 E0 E0 E0 E0 E0 E0 E0 E0 E0 E0 E0 E0 E0                         GB2 GB2 GB2 GB2 GB2 GB2 GB2 GB2 GB2 GB2 GB2 GB2 GB2 GB2 GB2 GB2 GB2 GB2 GB2 GB2 GB2 GB2 GB2 GB2 B2 B2 B2 B2 B2 B2 EB2 EB2 EB2 EB2 EB2 EB2 EB2 EB2 EB2 EB2 EB2 EB2 EB2 EB2 EB2 EB2 EB2 EB2 EB2 EB2 EB2 EB2 EB2 EB2 B2 B2 B2 B2 B2 B2 GB2 GB2 GB2 GB2 GB2 GB2 GB2 GB2 GB2 GB2 GB2 GB2 GB2 GB2 GB2 GB2 GB2 GB2 GB2 GB2 GB2 GB2 GB2 GB2 B2 B2 B2 B2 B2 B2 EB2 EB2 EB2 EB2 EB2 EB2 EB2 EB2 EB2 EB2 EB2 EB2 EB2 EB2 EB2 EB2 EB2 EB2 EB2 EB2 EB2 EB2 EB2 EB2 B2 B2 B2 B2 B2 B2 GB2 GB2 GB2 GB2 GB2 GB2 GB2 GB2 GB2 GB2 GB2 GB2 GB2 GB2 GB2 GB2 GB2 GB2 GB2 GB2 GB2 GB2 GB2 GB2 B2 B2 B2 B2 B2 B2 EB2 EB2 EB2 EB2 EB2 EB2 EB2 EB2 EB2 EB2 EB2 EB2 EB2 EB2 EB2 EB2 EB2 EB2 EB2 EB2 EB2 EB2 EB2 EB2 B2 B2 B2 B2 B2 B2 GB2 GB2 GB2 GB2 GB2 GB2 GB2 GB2 GB2 GB2 GB2 GB2 GB GB GB GB GB GB GB GB GB GB GB GB B B B B B B EB EB EB EB EB EB EB EB EB EB EB EB EB EB EB EB EB EB EB EB EB EB EB EB B B B B B B GB& GB& GB& GB& GB& GB& GB& GB& GB& GB& GB& GB& GB& GB& GB& GB& GB& GB& GB& GB& GB& GB& GB& GB& B& B& B& B& B& B& EB& EB& EB& EB& EB& EB& EB& EB& EB& EB& EB& EB& EB& EB& EB& EB& EB& EB& EB& EB& EB& EB& EB& EB& B& B& B& B& B& B& GB& GB& GB& GB& GB& GB& GB& GB& GB& GB& GB& GB& GB& GB& GB& GB& GB& GB& GB& GB& GB& GB& GB& GB& B& B& B& B& B& B& EB& EB& EB& EB& EB& EB& EB& EB& EB& EB& EB& EB& EB& EB& EB& EB& EB& EB& EB& EB& EB& EB& EB& EB& B& B& B& B& B& B& BC& BC& BC& BC& BC& BC& BC& BC& BC& BC& BC& BC& BC& BC& BC& BC& BC& BC& BC& BC& BC& BC& BC& BC& C& C& C& C& C& C& C& C& C& C& C& C& C& C& C& C& C& C& C& C& C& C& C& C& & & & & & & & & & & & & E& E& E& E& E& E& E& E& E& E& E& E& E E E E E E E E E E E E E E E E E E E E E E E E E E E E E E E E E E E E             C+ C+ C+ C+ C+ C+ C+ C+ C+ C+ C+ C+ C+ C+ C+ C+ C+ C+ C+ C+ C+ C+ C+ C+ C+ C+ C+ C+ C+ C+ C+ C+ C+ C+ C+ C+ C+ C+ C+ C+ C+ C+ C+ C+ C+ C+ C+ C+ C+ C+ C+ C+ C+ C+ C+ C+ C+ C+ C+ C+ C+ C+ C+ C+ C+ C+ C+ C+ C+ C+ C+ C+ C+ C+ C+ C+ C+ C+ C+ C+ C+ C+ C+ C+ C+ C+ C+ C+ C+ C+ C+ C+ C+ C+ C+ C+ C+ C+ C+ C+ C+ C+ C+ C+ C+ C+ C+ C+ C+ C+ C+ C+ C+ C+ C+ C+ C+ C+ C+ C+ C+ C+ C+ C+ C+ C+ C+ C+ C+ C+ C+ C+ C+ C+ C+ C+ C+ C+ C+ C+ C+ C+ C+ C+ C+ C+ C+ C+ C+ C+ C+ C+ C+ C+ C+ C+ C+ C+ C+ C+ C+ C+ C+ C+ C+ C+ C+ C+ C+ C+ C+ C+ C+ C+ C+ C+ C+ C+ C+ C+ C+ C+ C+ C+ C+ C+ C+ C+ C+ C+ C+ C+                                                 G7 G7 G7 G7 G7 G7 G7 G7 G7 G7 G7 G7 G7 G7 G7 G7 G7 G7 G7 G7 G7 G7 G7 G7 G7 G7 G7 G7 G7 G7 G7 G7 G7 G7 G7 G7 G7 G7 G7 G7 G7 G7 G7 G7 G7 G7 G7 G7 G7 G7 G7 G7 G7 G7 G7 G7 G7 G7 G7 G7 G7 G7 G7 G7 G7 G7 G7 G7 G7 G7 G7 G7 G7 G7 G7 G7 G7 G7 G7 G7 G7 G7 G7 G7 G7 G7 G7 G7 G7 G7 G7 G7 G7 G7 G7 G7 G G G G G G G G G G G G G G G G G G G G G G G G G9 G9 G9 G9 G9 G9 G9 G9 G9 G9 G9 G9 G9 G9 G9 G9 G9 G9 G9 G9 G9 G9 G9 G9 G9 G9 G9 G9 G9 G9 G9 G9 G9 G9 G9 G9 G9 G9 G9 G9 G9 G9 G9 G9 G9 G9 G9 G9 G9 G9 G9 G9 G9 G9 G9 G9 G9 G9 G9 G9 G9 G9 G9 G9 G9 G9 G9 G9 G9 G9 G9 G9 9 9 9 9 9 9 9 9 9 9 9 9 9 9 9 9 9 9 9 9 9 9 9 9                         L7 L7 L7 L7 L7 L7 L7 L7 L7 L7 L7 L7 L7 L7 L7 L7 L7 L7 L7 L7 L7 L7 L7 L7 7 7 7 7 7 7 K7 K7 K7 K7 K7 K7 K7 K7 K7 K7 K7 K7 K7 K7 K7 K7 K7 K7 K7 K7 K7 K7 K7 K7 7 7 7 7 7 7 L7 L7 L7 L7 L7 L7 L7 L7 L7 L7 L7 L7 L7 L7 L7 L7 L7 L7 L7 L7 L7 L7 L7 L7 L7 L7 L7 L7 L7 L7 L7 L7 L7 L7 L7 L7 L L L L L L L L L L L L L L L L L L L L L L L L L6 L6 L6 L6 L6 L6 L6 L6 L6 L6 L6 L6 L6 L6 L6 L6 L6 L6 L6 L6 L6 L6 L6 L6 L6 L6 L6 L6 L6 L6 L6 L6 L6 L6 L6 L6 L6 L6 L6 L6 L6 L6 L6 L6 L6 L6 L6 L6 L6 L6 L6 L6 L6 L6 L6 L6 L6 L6 L6 L6 L6 L6 L6 L6 L6 L6 L6 L6 L6 L6 L6 L6 L6 L6 L6 L6 L6 L6 L6 L6 L6 L6 L6 L6 L6 L6 L6 L6 L6 L6 L6 L6 L6 L6 L6 L6 L L L L L L L L L L L L L L L L L L L L L L L L L4 L4 L4 L4 L4 L4 L4 L4 L4 L4 L4 L4 L4 L4 L4 L4 L4 L4 L4 L4 L4 L4 L4 L4 L4 L4 L4 L4 L4 L4 L4 L4 L4 L4 L4 L4 L4 L4 L4 L4 L4 L4 L4 L4 L4 L4 L4 L4 L4 L4 L4 L4 L4 L4 L4 L4 L4 L4 L4 L4 L4 L4 L4 L4 L4 L4 L4 L4 L4 L4 L4 L4 4 4 4 4 4 4 4 4 4 4 4 4 4 4 4 4 4 4 4 4 4 4 4 4                         N2 N2 N2 N2 N2 N2 N2 N2 N2 N2 N2 N2 N2 N2 N2 N2 N2 N2 N2 N2 N2 N2 N2 N2 N2 N2 N2 N2 N2 N2 N2 N2 N2 N2 N2 N2 N2 N2 N2 N2 N2 N2 N2 N2 N2 N2 N2 N2 N2 N2 N2 N2 N2 N2 N2 N2 N2 N2 N2 N2 N2 N2 N2 N2 N2 N2 N2 N2 N2 N2 N2 N2 N2 N2 N2 N2 N2 N2 N2 N2 N2 N2 N2 N2 N2 N2 N2 N2 N2 N2 N2 N2 N2 N2 N2 N2                         O1 O1 O1 O1 O1 O1 O1 O1 O1 O1 O1 O1 O1 O1 O1 O1 O1 O1 O1 O1 O1 O1 O1 O1 O1 O1 O1 O1 O1 O1 O1 O1 O1 O1 O1 O1 O1 O1 O1 O1 O1 O1 O1 O1 O1 O1 O1 O1 O1 O1 O1 O1 O1 O1 O1 O1 O1 O1 O1 O1 O1 O1 O1 O1 O1 O1 O1 O1 O1 O1 O1 O1 O1 O1 O1 O1 O1 O1 O1 O1 O1 O1 O1 O1 O1 O1 O1 O1 O1 O1 O1 O1 O1 O1 O1 O1                         L/ L/ L/ L/ L/ L/ L/ L/ L/ L/ L/ L/ L/ L/ L/ L/ L/ L/ L/ L/ L/ L/ L/ L/ L/ L/ L/ L/ L/ L/ L/ L/ L/ L/ L/ L/ L/ L/ L/ L/ L/ L/ L/ L/ L/ L/ L/ L/ L/ L/ L/ L/ L/ L/ L/ L/ L/ L/ L/ L/ L/ L/ L/ L/ L/ L/ L/ L/ L/ L/ L/ L/ L/ L/ L/ L/ L/ L/ L/ L/ L/ L/ L/ L/ L/ L/ L/ L/ L/ L/ L/ L/ L/ L/ L/ L/ / / / / / / / / / / / / / / / / / / / / / / / / I7/ I7/ I7/ I7/ I7/ I7/ I7/ I7/ I7/ I7/ I7/ I7/ I7/ I7/ I7/ I7/ I7/ I7/ I7/ I7/ I7/ I7/ I7/ I7/ I7/ I7/ I7/ I7/ I7/ I7/ I7/ I7/ I7/ I7/ I7/ I7/ I7/ I7/ I7/ I7/ I7/ I7/ I7/ I7/ I7/ I7/ I7/ I7/ I7/ I7/ I7/ I7/ I7/ I7/ I7/ I7/ I7/ I7/ I7/ I7/ I7/ I7/ I7/ I7/ I7/ I7/ I7/ I7/ I7/ I7/ I7/ I7/ I7/ I7/ I7/ I7/ I7/ I7/ I7/ I7/ I7/ I7/ I7/ I7/ I7/ I7/ I7/ I7/ I7/ I7/ I7/ I7/ I7/ I7/ I7/ I7/ 7/ 7/ 7/ 7/ 7/ 7/ 7/ 7/ 7/ 7/ 7/ 7/ 7/ 7/ 7/ 7/ 7/ 7/ 7/ 7/ 7/ 7/ 7/ 7/ J7/ J7/ J7/ J7/ J7/ J7/ J7/ J7/ J7/ J7/ J7/ J7/ J7/ J7/ J7/ J7/ J7/ J7/ J7/ J7/ J7/ J7/ J7/ J7/ J7/ J7/ J7/ J7/ J7/ J7/ J7/ J7/ J7/ J7/ J7/ J7/ J7/ J7/ J7/ J7/ J7/ J7/ J7/ J7/ J7/ J7/ J7/ J7/ J7/ J7/ J7/ J7/ J7/ J7/ J7/ J7/ J7/ J7/ J7/ J7/ J7/ J7/ J7/ J7/ J7/ J7/ J7/ J7/ J7/ J7/ J7/ J7/ J J J J J J J J J J J J J J J J J J J J J J J J                         L.6 L.6 L.6 L.6 L.6 L.6 L.6 L.6 L.6 L.6 L.6 L.6 L.6 L.6 L.6 L.6 L.6 L.6 L.6 L.6 L.6 L.6 L.6 L.6 L.6 L.6 L.6 L.6 L.6 L.6 L.6 L.6 L.6 L.6 L.6 L.6 L.6 L.6 L.6 L.6 L.6 L.6 L.6 L.6 L.6 L.6 L.6 L.6 L.6 L.6 L.6 L.6 L.6 L.6 L.6 L.6 L.6 L.6 L.6 L.6 L.6 L.6 L.6 L.6 L.6 L.6 L.6 L.6 L.6 L.6 L.6 L.6 L.6 L.6 L.6 L.6 L.6 L.6 L.6 L.6 L.6 L.6 L.6 L.6 L.6 L.6 L.6 L.6 L.6 L.6 L.6 L.6 L.6 L.6 L.6 L.6 .6 .6 .6 .6 .6 .6 .6 .6 .6 .6 .6 .6 .6 .6 .6 .6 .6 .6 .6 .6 .6 .6 .6 .6 O.6 O.6 O.6 O.6 O.6 O.6 O.6 O.6 O.6 O.6 O.6 O.6 O.6 O.6 O.6 O.6 O.6 O.6 O.6 O.6 O.6 O.6 O.6 O.6 O.6 O.6 O.6 O.6 O.6 O.6 O.6 O.6 O.6 O.6 O.6 O.6 O.6 O.6 O.6 O.6 O.6 O.6 O.6 O.6 O.6 O.6 O.6 O.6 O.6 O.6 O.6 O.6 O.6 O.6 O.6 O.6 O.6 O.6 O.6 O.6 O.6 O.6 O.6 O.6 O.6 O.6 O.6 O.6 O.6 O.6 O.6 O.6 O6 O6 O6 O6 O6 O6 O6 O6 O6 O6 O6 O6 O6 O6 O6 O6 O6 O6 O6 O6 O6 O6 O6 O6 6 6 6 6 6 6 6 6 6 6 6 6 6 6 6 6 6 6 6 6 6 6 6 6 N*6 N*6 N*6 N*6 N*6 N*6 N*6 N*6 N*6 N*6 N*6 N*6 N*6 N*6 N*6 N*6 N*6 N*6 N*6 N*6 N*6 N*6 N*6 N*6 N*6 N*6 N*6 N*6 N*6 N*6 N*6 N*6 N*6 N*6 N*6 N*6 N*6 N*6 N*6 N*6 N*6 N*6 N*6 N*6 N*6 N*6 N*6 N*6 N*6 N*6 N*6 N*6 N*6 N*6 N*6 N*6 N*6 N*6 N*6 N*6 N*6 N*6 N*6 N*6 N*6 N*6 N*6 N*6 N*6 N*6 N*6 N*6 N*6 N*6 N*6 N*6 N*6 N*6 N*6 N*6 N*6 N*6 N*6 N*6 N*6 N*6 N*6 N*6 N*6 N*6 N*6 N*6 N*6 N*6 N*6 N*6 *6 *6 *6 *6 *6 *6 *6 *6 *6 *6 *6 *6 *6 *6 *6 *6 *6 *6 *6 *6 *6 *6 *6 *6 L*6 L*6 L*6 L*6 L*6 L*6 L*6 L*6 L*6 L*6 L*6 L*6 L*6 L*6 L*6 L*6 L*6 L*6 L*6 L*6 L*6 L*6 L*6 L*6 L*6 L*6 L*6 L*6 L*6 L*6 L*6 L*6 L*6 L*6 L*6 L*6 L*6 L*6 L*6 L*6 L*6 L*6 L*6 L*6 L*6 L*6 L*6 L*6 L*6 L*6 L*6 L*6 L*6 L*6 L*6 L*6 L*6 L*6 L*6 L*6 L*6 L*6 L*6 L*6 L*6 L*6 L*6 L*6 L*6 L*6 L*6 L*6 L6 L6 L6 L6 L6 L6 L6 L6 L6 L6 L6 L6 L6 L6 L6 L6 L6 L6 L6 L6 L6 L6 L6 L6 6 6 6 6 6 6 6 6 6 6 6 6 6 6 6 6 6 6 6 6 6 6 6 6 J6/ J6/ J6/ J6/ J6/ J6/ J6/ J6/ J6/ J6/ J6/ J6/ J6/ J6/ J6/ J6/ J6/ J6/ J6/ J6/ J6/ J6/ J6/ J6/ J6/ J6/ J6/ J6/ J6/ J6/ J6/ J6/ J6/ J6/ J6/ J6/ J6/ J6/ J6/ J6/ J6/ J6/ J6/ J6/ J6/ J6/ J6/ J6/ J6/ J6/ J6/ J6/ J6/ J6/ J6/ J6/ J6/ J6/ J6/ J6/ J6/ J6/ J6/ J6/ J6/ J6/ J6/ J6/ J6/ J6/ J6/ J6/ J6/ J6/ J6/ J6/ J6/ J6/ J6/ J6/ J6/ J6/ J6/ J6/ J6/ J6/ J6/ J6/ J6/ J6/ J6/ J6/ J6/ J6/ J6/ J6/ / / / / / / / / / / / / / / / / / / / / / / / / I/ I/ I/ I/ I/ I/ I/ I/ I/ I/ I/ I/ I/ I/ I/ I/ I/ I/ I/ I/ I/ I/ I/ I/ I/ I/ I/ I/ I/ I/ I/ I/ I/ I/ I/ I/ I/ I/ I/ I/ I/ I/ I/ I/ I/ I/ I/ I/ I/ I/ I/ I/ I/ I/ I/ I/ I/ I/ I/ I/ I/ I/ I/ I/ I/ I/ I/ I/ I/ I/ I/ I/ I I I I I I I I I I I I I I I I I I I I I I I I I I I I I I I I I I I I I I I I I I I I I I I I SI47 SI47 SI47 SI47 SI47 SI47 SI47 SI47 SI47 SI47 SI47 SI47 SI47 SI47 SI47 SI47 SI47 SI47 SI47 SI47 SI47 SI47 SI47 SI47 SI47 SI47 SI47 SI47 SI47 SI47 SI47 SI47 SI47 SI47 SI47 SI47 SI47 SI47 SI47 SI47 SI47 SI47 SI47 SI47 SI47 SI47 SI47 SI47 SI47 SI47 SI47 SI47 SI47 SI47 SI47 SI47 SI47 SI47 SI47 SI47 SI47 SI47 SI47 SI47 SI47 SI47 SI47 SI47 SI47 SI47 SI47 SI47 SI47 SI47 SI47 SI47 SI47 SI47 SI47 SI47 SI47 SI47 SI47 SI47 SI47 SI47 SI47 SI47 SI47 SI47 SI47 SI47 SI47 SI47 SI47 SI47 SI47 SI47 SI47 SI47 SI47 SI47 SI47 SI47 SI47 SI47 SI47 SI47 SI47 SI47 SI47 SI47 SI47 SI47 SI47 SI47 SI47 SI47 SI47 SI47 SI47 SI47 SI47 SI47 SI47 SI47 SI47 SI47 SI47 SI47 SI47 SI47 SI47 SI47 SI47 SI47 SI47 SI47 SI47 SI47 SI47 SI47 SI47 SI47 SI47 SI47 SI47 SI47 SI47 SI47 SI47 SI47 SI47 SI47 SI47 SI47 SI47 SI47 SI47 SI47 SI47 SI47 SI47 SI47 SI47 SI47 SI47 SI47 SI47 SI47 SI47 SI47 SI47 SI47 SI47 SI47 SI47 SI47 SI47 SI47 SI47 SI47 SI47 SI47 SI47 SI47 SI47 SI47 SI47 SI47 SI47 SI47                                                 IF66 IF66 IF66 IF66 IF66 IF66 IF66 IF66 IF66 IF66 IF66 IF66 IF66 IF66 IF66 IF66 IF66 IF66 IF66 IF66 IF66 IF66 IF66 IF66 F66 F66 F66 F66 F66 F66 GF66 GF66 GF66 GF66 GF66 GF66 GF66 GF66 GF66 GF66 GF66 GF66 GF66 GF66 GF66 GF66 GF66 GF66 GF66 GF66 GF66 GF66 GF66 GF66 F66 F66 F66 F66 F66 F66 IF66 IF66 IF66 IF66 IF66 IF66 IF66 IF66 IF66 IF66 IF66 IF66 IF66 IF66 IF66 IF66 IF66 IF66 IF66 IF66 IF66 IF66 IF66 IF66 F66 F66 F66 F66 F66 F66 GF66 GF66 GF66 GF66 GF66 GF66 GF66 GF66 GF66 GF66 GF66 GF66 GF66 GF66 GF66 GF66 GF66 GF66 GF66 GF66 GF66 GF66 GF66 GF66 F66 F66 F66 F66 F66 F66 IF66 IF66 IF66 IF66 IF66 IF66 IF66 IF66 IF66 IF66 IF66 IF66 IF66 IF66 IF66 IF66 IF66 IF66 IF66 IF66 IF66 IF66 IF66 IF66 F66 F66 F66 F66 F66 F66 GF66 GF66 GF66 GF66 GF66 GF66 GF66 GF66 GF66 GF66 GF66 GF66 GF66 GF66 GF66 GF66 GF66 GF66 GF66 GF66 GF66 GF66 GF66 GF66 F66 F66 F66 F66 F66 F66 IF66 IF66 IF66 IF66 IF66 IF66 IF66 IF66 IF66 IF66 IF66 IF66 IF6 IF6 IF6 IF6 IF6 IF6 IF6 IF6 IF6 IF6 IF6 IF6 F6 F6 F6 F6 F6 F6 GF6 GF6 GF6 GF6 GF6 GF6 GF6 GF6 GF6 GF6 GF6 GF6 GF6 GF6 GF6 GF6 GF6 GF6 GF6 GF6 GF6 GF6 GF6 GF6 F6 F6 F6 F6 F6 F6 IF6* IF6* IF6* IF6* IF6* IF6* IF6* IF6* IF6* IF6* IF6* IF6* IF6* IF6* IF6* IF6* IF6* IF6* IF6* IF6* IF6* IF6* IF6* IF6* F6* F6* F6* F6* F6* F6* GF6* GF6* GF6* GF6* GF6* GF6* GF6* GF6* GF6* GF6* GF6* GF6* GF6* GF6* GF6* GF6* GF6* GF6* GF6* GF6* GF6* GF6* GF6* GF6* F6* F6* F6* F6* F6* F6* IF6* IF6* IF6* IF6* IF6* IF6* IF6* IF6* IF6* IF6* IF6* IF6* IF6* IF6* IF6* IF6* IF6* IF6* IF6* IF6* IF6* IF6* IF6* IF6* F6* F6* F6* F6* F6* F6* GF6* GF6* GF6* GF6* GF6* GF6* GF6* GF6* GF6* GF6* GF6* GF6* GF6* GF6* GF6* GF6* GF6* GF6* GF6* GF6* GF6* GF6* GF6* GF6* F6* F6* F6* F6* F6* F6* FG6* FG6* FG6* FG6* FG6* FG6* FG6* FG6* FG6* FG6* FG6* FG6* FG6* FG6* FG6* FG6* FG6* FG6* FG6* FG6* FG6* FG6* FG6* FG6* G* G* G* G* G* G* G* G* G* G* G* G* G* G* G* G* G* G* G* G* G* G* G* G* G* G* G* G* G* G* G* G* G* G* G* G* G* G* G* G* G* G* G* G* G* G* G* G* G G G G G G G G G G G G G G G G G G G G G G G G                         G/ G/ G/ G/ G/ G/ G/ G/ G/ G/ G/ G/ G/ G/ G/ G/ G/ G/ G/ G/ G/ G/ G/ G/ G/ G/ G/ G/ G/ G/ G/ G/ G/ G/ G/ G/ G/ G/ G/ G/ G/ G/ G/ G/ G/ G/ G/ G/ G/ G/ G/ G/ G/ G/ G/ G/ G/ G/ G/ G/ G/ G/ G/ G/ G/ G/ G/ G/ G/ G/ G/ G/ G/ G/ G/ G/ G/ G/ G/ G/ G/ G/ G/ G/ G/ G/ G/ G/ G/ G/ G/ G/ G/ G/ G/ G/ G/ G/ G/ G/ G/ G/ G/ G/ G/ G/ G/ G/ G/ G/ G/ G/ G/ G/ G/ G/ G/ G/ G/ G/ G/ G/ G/ G/ G/ G/ G/ G/ G/ G/ G/ G/ G/ G/ G/ G/ G/ G/ G/ G/ G/ G/ G/ G/ G/ G/ G/ G/ G/ G/ G/ G/ G/ G/ G/ G/ G/ G/ G/ G/ G/ G/ G/ G/ G/ G/ G/ G/ G/ G/ G/ G/ G/ G/ G/ G/ G/ G/ G/ G/ G/ G/ G/ G/ G/ G/ G/ G/ G/ G/ G/ G/ G/ G/ G/ G/ G/ G/ G/ G/ G/ G/ G/ G/ G/ G/ G/ G/ G/ G/ G/ G/ G/ G/ G/ G/ G/ G/ G/ G/ G/ G/ G/ G/ G/ G/ G/ G/ G/ G/ G/ G/ G/ G/ G/ G/ G/ G/ G/ G/ G3/ G3/ G3/ G3/ G3/ G3/ G3/ G3/ G3/ G3/ G3/ G3/ G3/ G3/ G3/ G3/ G3/ G3/ G3/ G3/ G3/ G3/ G3/ G3/ G3/ G3/ G3/ G3/ G3/ G3/ G3/ G3/ G3/ G3/ G3/ G3/ G3/ G3/ G3/ G3/ G3/ G3/ G3/ G3/ G3/ G3/ G3/ G3/ G3/ G3/ G3/ G3/ G3/ G3/ G3/ G3/ G3/ G3/ G3/ G3/ G3/ G3/ G3/ G3/ G3/ G3/ G3/ G3/ G3/ G3/ G3/ G3/ G3/ G3/ G3/ G3/ G3/ G3/ G3/ G3/ G3/ G3/ G3/ G3/ G3/ G3/ G3/ G3/ G3/ G3/ G3/ G3/ G3/ G3/ G3/ G3/ G3/ G3/ G3/ G3/ G3/ G3/ G3/ G3/ G3/ G3/ G3/ G3/ G3/ G3/ G3/ G3/ G3/ G3/ G3/ G3/ G3/ G3/ G3/ G3/ G3/ G3/ G3/ G3/ G3/ G3/ G3/ G3/ G3/ G3/ G3/ G3/ G3/ G3/ G3/ G3/ G3/ G3/ G3/ G3/ G3/ G3/ G3/ G3/ G3/ G3/ G3/ G3/ G3/ G3/ G3/ G3/ G3/ G3/ G3/ G3/ G3/ G3/ G3/ G3/ G3/ G3/ G3/ G3/ G3/ G3/ G3/ G3/ G3/ G3/ G3/ G3/ G3/ G3/ G3/ G3/ G3/ G3/ G3/ G3/ G3/ G3/ G3/ G3/ G3/ G3/ G3/ G3/ G3/ G3/ G3/ G3/ G/ G/ G/ G/ G/ G/ G/ G/ G/ G/ G/ G/ G/ G/ G/ G/ G/ G/ G/ G/ G/ G/ G/ G/ G/ G/ G/ G/ G/ G/ G/ G/ G/ G/ G/ G/ G/ G/ G/ G/ G/ G/ G/ G/ G/ G/ G/ G/ G/6 G/6 G/6 G/6 G/6 G/6 G/6 G/6 G/6 G/6 G/6 G/6 G/6 G/6 G/6 G/6 G/6 G/6 G/6 G/6 G/6 G/6 G/6 G/6 G/6 G/6 G/6 G/6 G/6 G/6 G/6 G/6 G/6 G/6 G/6 G/6 G/6 G/6 G/6 G/6 G/6 G/6 G/6 G/6 G/6 G/6 G/6 G/6 G/6 G/6 G/6 G/6 G/6 G/6 G/6 G/6 G/6 G/6 G/6 G/6 G/6 G/6 G/6 G/6 G/6 G/6 G/6 G/6 G/6 G/6 G/6 G/6 G/6 G/6 G/6 G/6 G/6 G/6 G/6 G/6 G/6 G/6 G/6 G/6 G/6 G/6 G/6 G/6 G/6 G/6 G/6 G/6 G/6 G/6 G/6 G/6 G6 G6 G6 G6 G6 G6 G6 G6 G6 G6 G6 G6 G6 G6 G6 G6 G6 G6 G6 G6 G6 G6 G6 G6 G6 G6 G6 G6 G6 G6 G6 G6 G6 G6 G6 G6 G6 G6 G6 G6 G6 G6 G6 G6 G6 G6 G6 G6 G6 G6 G6 G6 G6 G6 G6 G6 G6 G6 G6 G6 G6 G6 G6 G6 G6 G6 G6 G6 G6 G6 G6 G6 G6 G6 G6 G6 G6 G6 G6 G6 G6 G6 G6 G6 G6 G6 G6 G6 G6 G6 G6 G6 G6 G6 G6 G6 G G G G G G G G G G G G G G G G G G G G G G G G G G G G G G G G G G G G G G G G G G G G G G G G ?GB/; ?GB/; ?GB/; ?GB/; ?GB/; ?GB/; ?GB/; ?GB/; ?GB/; ?GB/; ?GB/; ?GB/; ?GB/; ?GB/; ?GB/; ?GB/; ?GB/; ?GB/; ?GB/; ?GB/; ?GB/; ?GB/; ?GB/; ?GB/; ?GB/; ?GB/; ?GB/; ?GB/; ?GB/; ?GB/; ?GB/; ?GB/; ?GB/; ?GB/; ?GB/; ?GB/; ?GB/; ?GB/; ?GB/; ?GB/; ?GB/; ?GB/; ?GB/; ?GB/; ?GB/; ?GB/; ?GB/; ?GB/; ?GB/; ?GB/; ?GB/; ?GB/; ?GB/; ?GB/; ?GB/; ?GB/; ?GB/; ?GB/; ?GB/; ?GB/; ?GB/; ?GB/; ?GB/; ?GB/; ?GB/; ?GB/; ?GB/; ?GB/; ?GB/; ?GB/; ?GB/; ?GB/; ?GB/; ?GB/; ?GB/; ?GB/; ?GB/; ?GB/; ?GB/; ?GB/; ?GB/; ?GB/; ?GB/; ?GB/; ?GB/; ?GB/; ?GB/; ?GB/; ?GB/; ?GB/; ?GB/; ?GB/; ?GB/; ?GB/; ?GB/; ?GB/; ?GB/; ?GB/; ?GB/; ?GB/; ?GB/; ?GB/; ?GB/; ?GB/; ?GB/; ?GB/; ?GB/; ?GB/; ?GB/; ?GB/; ?GB/; ?GB/; ?GB/; ?GB/; ?GB/; ?GB/; ?GB/; ?GB/; ?GB/; ?GB/; ?GB/; ?GB/; ?GB/; ?GB/; ?GB/; ?GB/; ?GB/; ?GB/; ?GB/; ?GB/; ?GB/; ?GB/; ?GB/; ?GB/; ?GB/; ?GB/; ?GB/; ?GB/; ?GB/; ?GB/; ?GB/; ?GB/; ?GB/; ?GB/; ?GB/; ?GB/; ?GB/; ?GB/; ?GB/; ?GB/; ?GB/; ?GB/; ?GB/; ?GB/; ?GB/; ?GB/; ?GB/; ?GB/; ?GB/; ?GB/; ?GB/; ?GB/; ?GB/; ?GB/; ?GB/; ?GB/; ?GB/; ?GB/; ?GB/; ?GB/; ?GB/; ?GB/; ?GB/; ?GB/; ?GB/; ?GB/; ?GB/; ?GB/; ?GB/; ?GB/; ?GB/; ?GB/; ?GB/; ?GB/; ?GB/; ?GB/; ?GB/; ?GB/; ?GB/; ?GB/; ?GB/; ?GB/; ?GB/; ?GB/; ?GB/; ?GB/; ?GB/; ?GB/; ?GB/; ?GB/; ?GB/; ?GB/; ?GB/; ?GB/; ?GB/; ?GB/; ?GB/; ?GB/; ?GB/; ?GB/; ?GB/; ?GB/; ?GB/; ?GB/; ?GB/; ?GB/; ?GB/; ?GB/; ?GB/; ?GB/; ?GB/; ?GB/; ?GB/; ?GB/; ?GB/; ?GB/; ?GB/; ?GB/; ?GB/; ?GB/; ?GB/; ?GB/; ?GB/; ?GB/; ?GB/; ?GB/; ?GB/; ?GB/; ?GB/; ?GB/; ?GB/; ?GB/; ?GB/; ?GB/; ?GB/; ?GB/; ?GB/; ?GB/; ?GB/; ?GB/; ?GB/; ?GB/; ?GB/; ?GB/; ?GB/; ?GB/; ?GB/; ?GB/; ?GB/; ?GB/; ?GB/; ?GB/; ?GB/; ?GB/; ?GB/; ?GB/; ?GB/; ?GB/; ?GB/; ?GB/; ?GB/; ?GB/; ?GB/; ?GB/; ?GB/; ?GB/; ?GB/; ?GB/; ?GB/; ?GB/; ?GB/; ?GB/; ?GB/; ?GB/; ?GB/; ?GB/; ?GB/; ?GB/; ?GB/; ?GB/; ?GB/; ?GB/; ?GB/; ?GB/; ?GB/; ?GB/; ?GB/; ?GB/; ?GB/; ?GB/; ?GB/; ?GB/; ?GB/; ?GB/; ?GB/; ?GB/; ?GB/; ?GB/; ?GB/; ?GB/; ?GB/; ?GB/; ?GB/; ?GB/; ?GB/; ?GB/; ?GB/; ?GB/; ?GB/; ?GB/; ?GB/; ?GB/; ?GB/; ?GB/; ?GB/; ?GB/; ?GB/; ?GB/; ?GB/; ?GB/; ?GB/; ?GB/; ?GB/; ?GB/; ?GB/; ?GB/; ?GB/; ?GB/; ?GB/; ?GB/; ?GB/; ?GB/; ?GB/; ?GB/; ?GB/; ?GB/; ?GB/; ?GB/; ?GB/; ?GB/; ?GB/; ?GB/; ?GB/; ?GB/; ?GB/; ?GB/; ?GB/; ?GB/; ?GB/; ?GB/; ?GB/; ?GB/; ?GB/; ?GB/; ?GB/; ?GB/; ?GB/; ?GB/; ?GB/; ?GB/; ?GB/; ?GB/; ?GB/; ?GB/; ?GB/; ?GB/; ?GB/; ?GB/; ?GB/; ?GB/; ?GB/; ?GB/; ?GB/; ?GB/;                                                                                                                                                                                                                         G G G G G G G G G G G G G G G G G G G G G G G G G G G G G G G G G G G G G G G G G G G G G G G G G G G G G G G G G G G G G G G G G G G G G G G G G G G G G G G G G G G G G G G G G G G G G G G G                         CG@4 CG@4 CG@4 CG@4 CG@4 CG@4 CG@4 CG@4 CG@4 CG@4 CG@4 CG@4 CG@4 CG@4 CG@4 CG@4 CG@4 CG@4 CG@4 CG@4 CG@4 CG@4 CG@4 CG@4 CG@4 CG@4 CG@4 CG@4 CG@4 CG@4 CG@4 CG@4 CG@4 CG@4 CG@4 CG@4 CG@4 CG@4 CG@4 CG@4 CG@4 CG@4 CG@4 CG@4 CG@4 CG@4 CG@4 CG@4 CG@4 CG@4 CG@4 CG@4 CG@4 CG@4 CG@4 CG@4 CG@4 CG@4 CG@4 CG@4 CG@4 CG@4 CG@4 CG@4 CG@4 CG@4 CG@4 CG@4 CG@4 CG@4 CG@4 CG@4 CG@4 CG@4 CG@4 CG@4 CG@4 CG@4 CG@4 CG@4 CG@4 CG@4 CG@4 CG@4 CG@4 CG@4 CG@4 CG@4 CG@4 CG@4 CG@4 CG@4 CG@4 CG@4 CG@4 CG@4 CG@4 CG@4 CG@4 CG@4 CG@4 CG@4 CG@4 CG@4 CG@4 CG@4 CG@4 CG@4 CG@4 CG@4 CG@4 CG@4 CG@4 CG@4 CG@4 CG@4 CG@4 CG@4 CG@4 CG@4 CG@4 CG@4 CG@4 CG@4 CG@4 CG@4 CG@4 CG@4 CG@4 CG@4 CG@4 CG@4 CG@4 CG@4 CG@4 CG@4 CG@4 CG@4 CG@4 CG@4 CG@4 CG@4 CG@4 CG@4 CG@4 CG@4 CG@4 CG@4 CG@4 CG@4 CG@4 CG@4 CG@4 CG@4 CG@4 CG@4 CG@4 CG@4 CG@4 CG@4 CG@4 CG@4 CG@4 CG@4 CG@4 CG@4 CG@4 CG@4 CG@4 CG@4 CG@4 CG@4 CG@4 CG@4 CG@4 CG@4 CG@4 CG@4 CG@4 CG@4 CG@4 CG@4 CG@4 CG@4 CG@4 CG@4 CG@4 CG@4 CG@4 CG@4 CG@4 CG@4 CG@4 CG@4 CG@4 CG@4 CG@4 CG@4 CG@4 CG@4 CG@4 CG@4 CG@4 CG@4 CG@4 CG@4 CG@4 CG@4 CG@4 CG@4 CG@4 CG@4 CG@4 CG@4 CG@4 CG@4 CG@4 CG@4 CG@4 CG@4 CG@4 CG@4 CG@4 CG@4 CG@4 CG@4 CG@4 CG@4 CG@4 CG@4 CG@4 CG@4 CG@4 CG@4 CG@4 CG@4 CG@4 CG@4 CG@4 CG@4 CG@( CG@( CG@( CG@( CG@( CG@( CG@( CG@( CG@( CG@( CG@( CG@( CG@( CG@( CG@( CG@( CG@( CG@( CG@( CG@( CG@( CG@( CG@( CG@( CG@( CG@( CG@( CG@( CG@( CG@( CG@( CG@( CG@( CG@( CG@( CG@( CG@( CG@( CG@( CG@( CG@( CG@( CG@( CG@( CG@( CG@( CG@( CG@( ( ( ( ( ( ( ( ( ( ( ( ( ( ( ( ( ( ( ( ( ( ( ( ( ( ( ( ( ( ( ( ( ( ( ( ( ( ( ( ( ( ( ( ( ( ( ( ( ( ( ( ( ( ( ( ( ( ( ( ( ( ( ( ( ( ( ( ( ( ( ( ( H( H( H( H( H( H( H( H( H( H( H( H( H( H( H( H( H( H( H( H( H( H( H( H( H( H( H( H( H( H( H( H( H( H( H( H( H( H( H( H( H( H( H( H( H( H( H( H( H( H( H( H( H( H( H( H( H( H( H( H( H( H( H( H( H( H( H( H( H( H( H( H( H( H( H( H( H( H( H( H( H( H( H( H( H( H( H( H( H( H( H( H( H( H( H( H( ( ( ( ( ( ( ( ( ( ( ( ( ( ( ( ( ( ( ( ( ( ( ( ( G G G G G G G G G G G G G G G G G G G G G G G G G G G G G G G G G G G G G G G G G G G G G G G G G G G G G G G G G G G G G G G G G G G G G G G G G G G G G G G G G G G G G G G G G G G G G G G G                         E E E E E E E E E E E E E E E E E E E E E E E E E E E E E E E E E E E E E E E E E E E E E E E E E E E E E E E E E E E E E E E E E E E E E E E E E E E E E E E E E E E E E E E E E E E E E E E E                         C C C C C C C C C C C C C C C C C C C C C C C C C C C C C C C C C C C C C C C C C C C C C C C C C C C C C C C C C C C C C C C C C C C C C C C C C C C C C C C C C C C C C C C C C C C C C C C C                         B B B B B B B B B B B B B B B B B B B B B B B B B B B B B B B B B B B B B B B B B B B B B B B B B B B B B B B B B B B B B B B B B B B B B B B B B B B B B B B B B B B B B B B B B B B B B B B B                         @ @ @ @ @ @ @ @ @ @ @ @ @ @ @ @ @ @ @ @ @ @ @ @ @ @ @ @ @ @ @ @ @ @ @ @ @ @ @ @ @ @ @ @ @ @ @ @ @ @ @ @ @ @ @ @ @ @ @ @ @ @ @ @ @ @ @ @ @ @ @ @ @ @ @ @ @ @ @ @ @ @ @ @ @ @ @ @ @ @ @ @ @ @ @ @                         ? ? ? ? ? ? ? ? ? ? ? ? ? ? ? ? ? ? ? ? ? ? ? ? ? ? ? ? ? ? ? ? ? ? ? ? ? ? ? ? ? ? ? ? ? ? ? ? ? ? ? ? ? ? ? ? ? ? ? ? ? ? ? ? ? ? ? ? ? ? ? ? ? ? ? ? ? ? ? ? ? ? ? ? ? ? ? ? ? ? ? ? ? ? ? ? ? ? ? ? ? ? ? ? ? ? ? ? ? ? ? ? ? ? ? ? ? ? ? ? E?H E?H E?H E?H E?H E?H E?H E?H E?H E?H E?H E?H E?H E?H E?H E?H E?H E?H E?H E?H E?H E?H E?H E?H E?H E?H E?H E?H E?H E?H E?H E?H E?H E?H E?H E?H E?H E?H E?H E?H E?H E?H E?H E?H E?H E?H E?H E?H E?H E?H E?H E?H E?H E?H E?H E?H E?H E?H E?H E?H E?H E?H E?H E?H E?H E?H E?H E?H E?H E?H E?H E?H E?H E?H E?H E?H E?H E?H E?H E?H E?H E?H E?H E?H E?H E?H E?H E?H E?H E?H E?H E?H E?H E?H E?H E?H E?H E?H E?H E?H E?H E?H E?H E?H E?H E?H E?H E?H E?H E?H E?H E?H E?H E?H E?H E?H E?H E?H E?H E?H E?H E?H E?H E?H E?H E?H E?H E?H E?H E?H E?H E?H E?H E?H E?H E?H E?H E?H E?H E?H E?H E?H E?H E?H E?H E?H E?H E?H E?H E?H E?H E?H E?H E?H E?H E?H E?H E?H E?H E?H E?H E?H E?H E?H E?H E?H E?H E?H E?H E?H E?H E?H E?H E?H E?H E?H E?H E?H E?H E?H E?H E?H E?H E?H E?H E?H E?H E?H E?H E?H E?H E?H                                                 @ @ @ @ @ @ @ @ @ @ @ @ @ @ @ @ @ @ @ @ @ @ @ @ @ @ @ @ @ @ @C @C @C @C @C @C @C @C @C @C @C @C @C @C @C @C @C @C @C @C @C @C @C @C @C @C @C @C @C @C @LC @LC @LC @LC @LC @LC @LC @LC @LC @LC @LC @LC @LC @LC @LC @LC @LC @LC @LC @LC @LC @LC @LC @LC @LC @LC @LC @LC @LC @LC @LC @LC @LC @LC @LC @LC @LC @LC @LC @LC @LC @LC @LC @LC @LC @LC @LC @LC @LC @LC @LC @LC @LC @LC @LC @LC @LC @LC @LC @LC @LC4 @LC4 @LC4 @LC4 @LC4 @LC4 @LC4 @LC4 @LC4 @LC4 @LC4 @LC4 @LC4 @LC4 @LC4 @LC4 @LC4 @LC4 @LC4 @LC4 @LC4 @LC4 @LC4 @LC4 @LC4 @LC4 @LC4 @LC4 @LC4 @LC4 @LC4 @LC4 @LC4 @LC4 @LC4 @LC4 @LC4 @LC4 @LC4 @LC4 @LC4 @LC4 @LC4 @LC4 @LC4 @LC4 @LC4 @LC4 @LC4 @LC4 @LC4 @LC4 @LC4 @LC4 @LC4 @LC4 @LC4 @LC4 @LC4 @LC4 @LC4 @LC4 @LC4 @LC4 @LC4 @LC4 @LC4 @LC4 @LC4 @LC4 @LC4 @LC4 @LC4 @LC4 @LC4 @LC4 @LC4 @LC4 @LC4 @LC4 @LC4 @LC4 @LC4 @LC4 @LC4 @LC4 @LC4 @LC4 @LC4 @LC4 @LC4 @LC4 @LC4 @LC4 @LC4 @LC4 @LC @LC @LC @LC @LC @LC @LC @LC @LC @LC @LC @LC @LC @LC @LC @LC @LC @LC @LC @LC @LC @LC @LC @LC @LC6 @LC6 @LC6 @LC6 @LC6 @LC6 @LC6 @LC6 @LC6 @LC6 @LC6 @LC6 @LC6 @LC6 @LC6 @LC6 @LC6 @LC6 @LC6 @LC6 @LC6 @LC6 @LC6 @LC6 @LC6 @LC6 @LC6 @LC6 @LC6 @LC6 @LC6 @LC6 @LC6 @LC6 @LC6 @LC6 @LC6 @LC6 @LC6 @LC6 @LC6 @LC6 @LC6 @LC6 @LC6 @LC6 @LC6 @LC6 LC6 LC6 LC6 LC6 LC6 LC6 LC6 LC6 LC6 LC6 LC6 LC6 LC6 LC6 LC6 LC6 LC6 LC6 LC6 LC6 LC6 LC6 LC6 LC6 6 6 6 6 6 6 6 6 6 6 6 6 6 6 6 6 6 6 6 6 6 6 6 6                         O7 O7 O7 O7 O7 O7 O7 O7 O7 O7 O7 O7 O7 O7 O7 O7 O7 O7 O7 O7 O7 O7 O7 O7 O7 O7 O7 O7 O7 O7 O7 O7 O7 O7 O7 O7 O7 O7 O7 O7 O7 O7 O7 O7 O7 O7 O7 O7 O7 O7 O7 O7 O7 O7 O7 O7 O7 O7 O7 O7 O7 O7 O7 O7 O7 O7 O7 O7 O7 O7 O7 O7 O7 O7 O7 O7 O7 O7 O7 O7 O7 O7 O7 O7 O7 O7 O7 O7 O7 O7 O7 O7 O7 O7 O7 O7                         N9 N9 N9 N9 N9 N9 N9 N9 N9 N9 N9 N9 N9 N9 N9 N9 N9 N9 N9 N9 N9 N9 N9 N9 N9 N9 N9 N9 N9 N9 N9 N9 N9 N9 N9 N9 N9 N9 N9 N9 N9 N9 N9 N9 N9 N9 N9 N9 N9 N9 N9 N9 N9 N9 N9 N9 N9 N9 N9 N9 N9 N9 N9 N9 N9 N9 N9 N9 N9 N9 N9 N9 N9 N9 N9 N9 N9 N9 N9 N9 N9 N9 N9 N9 N9 N9 N9 N9 N9 N9 N9 N9 N9 N9 N9 N9                         L; L; L; L; L; L; L; L; L; L; L; L; L; L; L; L; L; L; L; L; L; L; L; L; L; L; L; L; L; L; L; L; L; L; L; L; L; L; L; L; L; L; L; L; L; L; L; L; L; L; L; L; L; L; L; L; L; L; L; L; L; L; L; L; L; L; L; L; L; L; L; L; L; L; L; L; L; L; L; L; L; L; L; L; L; L; L; L; L; L; L; L; L; L; L; L;                         K< K< K< K< K< K< K< K< K< K< K< K< K< K< K< K< K< K< K< K< K< K< K< K< K< K< K< K< K< K< K< K< K< K< K< K< K< K< K< K< K< K< K< K< K< K< K< K< K< K< K< K< K< K< K< K< K< K< K< K< K< K< K< K< K< K< K< K< K< K< K< K< K< K< K< K< K< K< K< K< K< K< K< K< K< K< K< K< K< K< K< K< K< K< K< K<                         L; L; L; L; L; L; L; L; L; L; L; L; L; L; L; L; L; L; L; L; L; L; L; L; L; L; L; L; L; L; L; L; L; L; L; L; L; L; L; L; L; L; L; L; L; L; L; L; L; L; L; L; L; L; L; L; L; L; L; L; L; L; L; L; L; L; L; L; L; L; L; L; L; L; L; L; L; L; L; L; L; L; L; L; L; L; L; L; L; L; L; L; L; L; L; L;                         N9 N9 N9 N9 N9 N9 N9 N9 N9 N9 N9 N9 N9 N9 N9 N9 N9 N9 N9 N9 N9 N9 N9 N9 9 9 9 9 9 9 L9 L9 L9 L9 L9 L9 L9 L9 L9 L9 L9 L9 L9 L9 L9 L9 L9 L9 L9 L9 L9 L9 L9 L9 9 9 9 9 9 9 N9 N9 N9 N9 N9 N9 N9 N9 N9 N9 N9 N9 N9 N9 N9 N9 N9 N9 N9 N9 N9 N9 N9 N9 9 9 9 9 9 9 L9 L9 L9 L9 L9 L9 L L L L L L L L L L L L L L L L L L       N7 N7 N7 N7 N7 N7 N7 N7 N7 N7 N7 N7 N7 N7 N7 N7 N7 N7 N7 N7 N7 N7 N7 N7 7 7 7 7 7 7 L7 L7 L7 L7 L7 L7 L7 L7 L7 L7 L7 L7 L7 L7 L7 L7 L7 L7 L7 L7 L7 L7 L7 L7 7 7 7 7 7 7 N7 N7 N7 N7 N7 N7 N7 N7 N7 N7 N7 N7 N7 N7 N7 N7 N7 N7 N7 N7 N7 N7 N7 N7 7 7 7 7 7 7 L7 L7 L7 L7 L7 L7 L L L L L L L L L L L L L L L L L L       N6 N6 N6 N6 N6 N6 N6 N6 N6 N6 N6 N6 N6 N6 N6 N6 N6 N6 N6 N6 N6 N6 N6 N6 6 6 6 6 6 6 L6 L6 L6 L6 L6 L6 L6 L6 L6 L6 L6 L6 L6 L6 L6 L6 L6 L6 L6 L6 L6 L6 L6 L6 6 6 6 6 6 6 N6 N6 N6 N6 N6 N6 N6 N6 N6 N6 N6 N6 N6 N6 N6 N6 N6 N6 N6 N6 N6 N6 N6 N6 6 6 6 6 6 6 L6 L6 L6 L6 L6 L6 L L L L L L L L L L L L L L L L L L       K4 K4 K4 K4 K4 K4 K4 K4 K4 K4 K4 K4 K4 K4 K4 K4 K4 K4 K4 K4 K4 K4 K4 K4 K4 K4 K4 K4 K4 K4 K4 K4 K4 K4 K4 K4 K4 K4 K4 K4 K4 K4 K4 K4 K4 K4 K4 K4 4 4 4 4 4 4 4 4 4 4 4 4 L4 L4 L4 L4 L4 L4 L4 L4 L4 L4 L4 L4 L4 L4 L4 L4 L4 L4 L4 L4 L4 L4 L4 L4 L4 L4 L4 L4 L4 L4 L4 L4 L4 L4 L4 L4 L L L L L L L L L L L L             N; N; N; N; N; N; N; N; N; N; N; N; N; N; N; N; N; N; N; N; N; N; N; N; N; N; N; N; N; N; N; N; N; N; N; N; N; N; N; N; N; N; N; N; N; N; N; N; N; N; N; N; N; N; N; N; N; N; N; N; N; N; N; N; N; N; N; N; N; N; N; N; N; N; N; N; N; N; N; N; N; N; N; N; N; N; N; N; N; N; N; N; N; N; N; N; N; N; N; N; N; N; N; N; N; N; N; N; N; N; N; N; N; N; N; N; N; N; N; N; N; N; N; N; N; N; N; N; N; N; N; N; N; N; N; N; N; N; N; N; N; N; N; N; N; N; N; N; N; N; N; N; N; N; N; N; N; N; N; N; N; N; N; N; N; N; N; N; N; N; N; N; N; N; N; N; N; N; N; N; N; N; N; N; N; N; N; N; N; N; N; N; ; ; ; ; ; ; ; ; ; ; ; ; ; ; ; ; ; ; ; ; ; ; ; ; ; ; ; ; ; ; ; ; ; ; ; ; ; ; ; ; ; ; ; ; ; ; ; ; G; G; G; G; G; G; G; G; G; G; G; G; G; G; G; G; G; G; G; G; G; G; G; G; G; G; G; G; G; G; G; G; G; G; G; G; G; G; G; G; G; G; G; G; G; G; G; G; G G G G G G G G G G G G G G G G G G G G G G G G G G G G G G G G G G G G G G G G G G G G G G G G G G G G G G G G G G G G G G G G G G G G G G G G G< G< G< G< G< G< G< G< G< G< G< G< G< G< G< G< G< G< G< G< G< G< G< G< G< G< G< G< G< G< G< G< G< G< G< G< G< G< G< G< G< G< G< G< G< G< G< G< G< G< G< G< G< G< G< G< G< G< G< G< G< G< G< G< G< G< G< G< G< G< G< G< < < < < < < < < < < < < < < < < < < < < < < < <                         C; C; C; C; C; C; C; C; C; C; C; C; C; C; C; C; C; C; C; C; C; C; C; C; C; C; C; C; C; C; CG; CG; CG; CG; CG; CG; CG; CG; CG; CG; CG; CG; CG; CG; CG; CG; CG; CG; CG; CG; CG; CG; CG; CG; CG; CG; CG; CG; CG; CG; CGL; CGL; CGL; CGL; CGL; CGL; CGL; CGL; CGL; CGL; CGL; CGL; CGL; CGL; CGL; CGL; CGL; CGL; CGL; CGL; CGL; CGL; CGL; CGL; CGL; CGL; CGL; CGL; CGL; CGL; CGL; CGL; CGL; CGL; CGL; CGL; CGL CGL CGL CGL CGL CGL CGL CGL CGL CGL CGL CGL CGL CGL CGL CGL CGL CGL CGL CGL CGL CGL CGL CGL CGL9 CGL9 CGL9 CGL9 CGL9 CGL9 CGL9 CGL9 CGL9 CGL9 CGL9 CGL9 CGL9 CGL9 CGL9 CGL9 CGL9 CGL9 CGL9 CGL9 CGL9 CGL9 CGL9 CGL9 CGL9 CGL9 CGL9 CGL9 CGL9 CGL9 CGL9 CGL9 CGL9 CGL9 CGL9 CGL9 CGL9 CGL9 CGL9 CGL9 CGL9 CGL9 CGL9 CGL9 CGL9 CGL9 CGL9 CGL9 CGL9 CGL9 CGL9 CGL9 CGL9 CGL9 CGL9 CGL9 CGL9 CGL9 CGL9 CGL9 CGL9 CGL9 CGL9 CGL9 CGL9 CGL9 CGL9 CGL9 CGL9 CGL9 CGL9 CGL9 CGL9 CGL9 CGL9 CGL9 CGL9 CGL9 CGL9 CGL9 CGL9 CGL9 CGL9 CGL9 CGL9 CGL9 CGL9 CGL9 CGL9 CGL9 CGL9 CGL9 CGL9 CGL9 CGL9 CGL9 CGL CGL CGL CGL CGL CGL CGL CGL CGL CGL CGL CGL CGL CGL CGL CGL CGL CGL CGL CGL CGL CGL CGL CGL CGL7 CGL7 CGL7 CGL7 CGL7 CGL7 CGL7 CGL7 CGL7 CGL7 CGL7 CGL7 CGL7 CGL7 CGL7 CGL7 CGL7 CGL7 CGL7 CGL7 CGL7 CGL7 CGL7 CGL7 CGL7 CGL7 CGL7 CGL7 CGL7 CGL7 CGL7 CGL7 CGL7 CGL7 CGL7 CGL7 CGL7 CGL7 CGL7 CGL7 CGL7 CGL7 CGL7 CGL7 CGL7 CGL7 CGL7 CGL7 GL7 GL7 GL7 GL7 GL7 GL7 GL7 GL7 GL7 GL7 GL7 GL7 GL7 GL7 GL7 GL7 GL7 GL7 GL7 GL7 GL7 GL7 GL7 GL7 7 7 7 7 7 7 7 7 7 7 7 7 7 7 7 7 7 7 7 7 7 7 7 7                         N6 N6 N6 N6 N6 N6 N6 N6 N6 N6 N6 N6 N6 N6 N6 N6 N6 N6 N6 N6 N6 N6 N6 N6 N6 N6 N6 N6 N6 N6 N6 N6 N6 N6 N6 N6 N6 N6 N6 N6 N6 N6 N6 N6 N6 N6 N6 N6 N6 N6 N6 N6 N6 N6 N6 N6 N6 N6 N6 N6 N6 N6 N6 N6 N6 N6 N6 N6 N6 N6 N6 N6 N6 N6 N6 N6 N6 N6 N6 N6 N6 N6 N6 N6 N6 N6 N6 N6 N6 N6 N6 N6 N6 N6 N6 N6                         O4 O4 O4 O4 O4 O4 O4 O4 O4 O4 O4 O4 O4 O4 O4 O4 O4 O4 O4 O4 O4 O4 O4 O4 4 4 4 4 4 4 N4 N4 N4 N4 N4 N4 N4 N4 N4 N4 N4 N4 N4 N4 N4 N4 N4 N4 N4 N4 N4 N4 N4 N4 4 4 4 4 4 4 O4 O4 O4 O4 O4 O4 O4 O4 O4 O4 O4 O4 O4 O4 O4 O4 O4 O4 O4 O4 O4 O4 O4 O4 4 4 4 4 4 4 N4 N4 N4 N4 N4 N4 N N N N N N N N N N N N N N N N N N       O3 O3 O3 O3 O3 O3 O3 O3 O3 O3 O3 O3 O3 O3 O3 O3 O3 O3 O3 O3 O3 O3 O3 O3 3 3 3 3 3 3 N3 N3 N3 N3 N3 N3 N3 N3 N3 N3 N3 N3 N3 N3 N3 N3 N3 N3 N3 N3 N3 N3 N3 N3 3 3 3 3 3 3 O3 O3 O3 O3 O3 O3 O3 O3 O3 O3 O3 O3 O3 O3 O3 O3 O3 O3 O3 O3 O3 O3 O3 O3 3 3 3 3 3 3 N3 N3 N3 N3 N3 N3 N3 N3 N3 N3 N3 N3 N3 N3 N3 N3 N3 N3 N3 N3 N3 N3 N3 N3 3 3 3 3 3 3 O<3 O<3 O<3 O<3 O<3 O<3 O<3 O<3 O<3 O<3 O<3 O<3 O<3 O<3 O<3 O<3 O<3 O<3 O<3 O<3 O<3 O<3 O<3 O<3 <3 <3 <3 <3 <3 <3 NN<3 NN<3 NN<3 NN<3 NN<3 NN<3 NN<3 NN<3 NN<3 NN<3 NN<3 NN<3 NN<3 NN<3 NN<3 NN<3 NN<3 NN<3 NN<3 NN<3 NN<3 NN<3 NN<3 NN<3 <3 <3 <3 <3 <3 <3 O<3 O<3 O<3 O<3 O<3 O<3 O<3 O<3 O<3 O<3 O<3 O<3 O<3 O<3 O<3 O<3 O<3 O<3 O<3 O<3 O<3 O<3 O<3 O<3 <3 <3 <3 <3 <3 <3 NN<3 NN<3 NN<3 NN<3 NN<3 NN<3 NN<3 NN<3 NN<3 NN<3 NN<3 NN<3 NN<3 NN<3 NN<3 NN<3 NN<3 NN<3 NN<3 NN<3 NN<3 NN<3 NN<3 NN<3 <3 <3 <3 <3 <3 <3 L<3 L<3 L<3 L<3 L<3 L<3 L<3 L<3 L<3 L<3 L<3 L<3 L<3 L<3 L<3 L<3 L<3 L<3 L<3 L<3 L<3 L<3 L<3 L<3 L<3 L<3 L<3 L<3 L<3 L<3 L<3 L<3 L<3 L<3 L<3 L<3 L<3 L<3 L<3 L<3 L<3 L<3 L<3 L<3 L<3 L<3 L<3 L<3 <3 <3 <3 <3 <3 <3 <3 <3 <3 <3 <3 <3 N<3 N<3 N<3 N<3 N<3 N<3 N<3 N<3 N<3 N<3 N<3 N<3 N N N N N N N N N N N N N N N N N N N N N N N N N N N N N N N N N N N N             O;4 O;4 O;4 O;4 O;4 O;4 O;4 O;4 O;4 O;4 O;4 O;4 O;4 O;4 O;4 O;4 O;4 O;4 O;4 O;4 O;4 O;4 O;4 O;4 O;4 O;4 O;4 O;4 O;4 O;4 O;4 O;4 O;4 O;4 O;4 O;4 O;4 O;4 O;4 O;4 O;4 O;4 O;4 O;4 O;4 O;4 O;4 O;4 O;4 O;4 O;4 O;4 O;4 O;4 O;4 O;4 O;4 O;4 O;4 O;4 O;4 O;4 O;4 O;4 O;4 O;4 O;4 O;4 O;4 O;4 O;4 O;4 O;4 O;4 O;4 O;4 O;4 O;4 O;4 O;4 O;4 O;4 O;4 O;4 O;4 O;4 O;4 O;4 O;4 O;4 O;4 O;4 O;4 O;4 O;4 O;4 O;4 O;4 O;4 O;4 O;4 O;4 O;4 O;4 O;4 O;4 O;4 O;4 O;4 O;4 O;4 O;4 O;4 O;4 O;4 O;4 O;4 O;4 O;4 O;4 O;4 O;4 O;4 O;4 O;4 O;4 O;4 O;4 O;4 O;4 O;4 O;4 O;4 O;4 O;4 O;4 O;4 O;4 O;4 O;4 O;4 O;4 O;4 O;4 O;4 O;4 O;4 O;4 O;4 O;4 O;4 O;4 O;4 O;4 O;4 O;4 O;4 O;4 O;4 O;4 O;4 O;4 O;4 O;4 O;4 O;4 O;4 O;4 O;4 O;4 O;4 O;4 O;4 O;4 O;4 O;4 O;4 O;4 O;4 O;4 O;4 O;4 O;4 O;4 O;4 O;4 O;4 O;4 O;4 O;4 O;4 O;4 ;4 ;4 ;4 ;4 ;4 ;4 ;4 ;4 ;4 ;4 ;4 ;4 ;4 ;4 ;4 ;4 ;4 ;4 ;4 ;4 ;4 ;4 ;4 ;4 ;4 ;4 ;4 ;4 ;4 ;4 ;4 ;4 ;4 ;4 ;4 ;4 ;4 ;4 ;4 ;4 ;4 ;4 ;4 ;4 ;4 ;4 ;4 ;4 G;4 G;4 G;4 G;4 G;4 G;4 G;4 G;4 G;4 G;4 G;4 G;4 G;4 G;4 G;4 G;4 G;4 G;4 G;4 G;4 G;4 G;4 G;4 G;4 G;4 G;4 G;4 G;4 G;4 G;4 G;4 G;4 G;4 G;4 G;4 G;4 G;4 G;4 G;4 G;4 G;4 G;4 G;4 G;4 G;4 G;4 G;4 G;4 G G G G G G G G G G G G G G G G G G G G G G G G G G G G G G G G G G G G G G G G G G G G G G G G G G G G G G G G G G G G G G G G G G G G G G G G G5 G5 G5 G5 G5 G5 G5 G5 G5 G5 G5 G5 G5 G5 G5 G5 G5 G5 G5 G5 G5 G5 G5 G5 G5 G5 G5 G5 G5 G5 G5 G5 G5 G5 G5 G5 G5 G5 G5 G5 G5 G5 G5 G5 G5 G5 G5 G5 G5 G5 G5 G5 G5 G5 G5 G5 G5 G5 G5 G5 G5 G5 G5 G5 G5 G5 G5 G5 G5 G5 G5 G5 5 5 5 5 5 5 5 5 5 5 5 5 5 5 5 5 5 5 5 5 5 5 5 5                         @4 @4 @4 @4 @4 @4 @4 @4 @4 @4 @4 @4 @4 @4 @4 @4 @4 @4 @4 @4 @4 @4 @4 @4 @4 @4 @4 @4 @4 @4 @D4 @D4 @D4 @D4 @D4 @D4 @D4 @D4 @D4 @D4 @D4 @D4 @D4 @D4 @D4 @LD4 @LD4 @LD4 @LD4 @LD4 @LD4 @LD4 @LD4 @LD4 @LD4 @LD4 @LD4 @LD4 @LD4 @LD4 @LGD4 @LGD4 @LGD4 @LGD4 @LGD4 @LGD4 @LGD4 @LGD4 @LGD4 @LGD4 @LGD4 @LGD4 @LGD4 @LGD4 @LGD4 @LGD4 @LGD4 @LGD4 @LGD4 @LGD4 @LGD4 @LGD4 @LGD4 @LGD4 @LGD4 @LGD4 @LGD4 @LGD4 @LGD4 @LGD4 @LGD4 @LGD4 @LGD4 @LGD4 @LGD4 @LGD4 @LGD @LGD @LGD @LGD @LGD @LGD @LGD @LGD @LGD @LGD @LGD @LGD @LGD @LGD @LGD @LGD @LGD @LGD @LGD @LGD @LGD @LGD @LGD @LGD @LGD2 @LGD2 @LGD2 @LGD2 @LGD2 @LGD2 @LGD2 @LGD2 @LGD2 @LGD2 @LGD2 @LGD2 @LGD2 @LGD2 @LGD2 @LGD2 @LGD2 @LGD2 @LGD2 @LGD2 @LGD2 @LGD2 @LGD2 @LGD2 @LGD2 @LGD2 @LGD2 @LGD2 @LGD2 @LGD2 @LGD2 @LGD2 @LGD2 @LGD2 @LGD2 @LGD2 @LGD2 @LGD2 @LGD2 @LGD2 @LGD2 @LGD2 @LGD2 @LGD2 @LGD2 @LGD2 @LGD2 @LGD2 @LGD2 @LGD2 @LGD2 @LGD2 @LGD2 @LGD2 @LGD2 @LGD2 @LGD2 @LGD2 @LGD2 @LGD2 @LGD2 @LGD2 @LGD2 @LGD2 @LGD2 @LGD2 @LGD2 @LGD2 @LGD2 @LGD2 @LGD2 @LGD2 @LGD2 @LGD2 @LGD2 @LGD2 @LGD2 @LGD2 @LGD2 @LGD2 @LGD2 @LGD2 @LGD2 @LGD2 @LGD2 @LGD2 @LGD2 @LGD2 @LGD2 @LGD2 @LGD2 @LGD2 @LGD2 @LGD2 @LGD2 @LGD2 @LGD @LGD @LGD @LGD @LGD @LGD @LGD @LGD @LGD @LGD @LGD @LGD @LGD @LGD @LGD @LGD @LGD @LGD @LGD @LGD @LGD @LGD @LGD @LGD @LGD0 @LGD0 @LGD0 @LGD0 @LGD0 @LGD0 @LGD0 @LGD0 @LGD0 @LGD0 @LGD0 @LGD0 @LGD0 @LGD0 @LGD0 @LGD0 @LGD0 @LGD0 @LGD0 @LGD0 @LGD0 @LGD0 @LGD0 @LGD0 @LGD0 @LGD0 @LGD0 @LGD0 @LGD0 @LGD0 @LGD0 @LGD0 @LGD0 @LGD0 @LGD0 @LGD0 @LGD0 @LGD0 @LGD0 @LGD0 @LGD0 @LGD0 @LGD0 @LGD0 @LGD0 @LGD0 @LGD0 @LGD0 LGD0 LGD0 LGD0 LGD0 LGD0 LGD0 LGD0 LGD0 LGD0 GD0 GD0 GD0 GD0 GD0 GD0 GD0 GD0 GD0 GD0 GD0 GD0 GD0 GD0 GD0 0 0 0 0 0 0 0 0 0 0 0 0 0 0 0 0 0 0 0 0 0 0 0 0          J J J J J J J J J J J J J J J J/ J/ J/ J/ J/ J/ J/ J/ J/ J/ J/ J/ J/ J/ J/ J/ J/ J/ J/ J/ J/ J/ J/ J/ J/ J/ J/ J/ J/ J/ J/ J/ J/ J/ J/ J/ J/ J/ J/ J/ J/ J/ J/ J/ J/ J/ J/ J/ J/ J/ J/ J/ J/ J/ J/ J/ J/ J/ J/ J/ J/ J/ J/ J/ J/ J/ J/ J/ J/ J/ J/ J/ J/ J/ J/ J/ J/ J/ J/ J/ J/ / / / / / / / / / / / / / / /          J J J J J J J J J J J J J J J J- J- J- J- J- J- J- J- J- - - - - - - H- H- H- H- H- H- H- H- H- H- H- H- H- H- H- H- H- H- H- H- H- H- H- H- - - - - - - J- J- J- J- J- J- J- J- J- J- J- J- J- J- J- J- J- J- J- J- J- J- J- J- - - - - - - H- H- H- H- H- H- H- H- H- H- H- H- H- H- H- H- H- H- H- H- H- H H H       J J J J J J J J J J J J J J J J, J, J, J, J, J, J, J, J, , , , , , , H, H, H, H, H, H, H, H, H, H, H, H, H, H, H, H, H, H, H, H, H, H, H, H, , , , , , , J, J, J, J, J, J, J, J, J, J, J, J, J, J, J, J, J, J, J, J, J, J, J, J, , , , , , , H, H, H, H, H, H, H, H, H, H, H, H, H, H, H, H, H, H, H, H, H, H, H, H, , , , , , , J, J, J, J, J, J, J, J, J, J, J, J, J, J, J, J,5 J,5 J,5 J,5 J,5 J,5 J,5 J,5 J,5 ,5 ,5 ,5 ,5 ,5 ,5 H,5 H,5 H,5 H,5 H,5 H,5 H,5 H,5 H,5 H,5 H,5 H,5 H,5 H,5 H,5 H,5 H,5 H,5 H,5 H,5 H,5 H,5 H,5 H,5 ,5 ,5 ,5 ,5 ,5 ,5 J,5 J,5 J,5 J,5 J,5 J,5 J,5 J,5 J,5 J,5 J,5 J,5 J,5 J,5 J,5 J,5 J,5 J,5 J,5 J,5 J,5 J,5 J,5 J,5 ,5 ,5 ,5 ,5 ,5 ,5 H,5 H,5 H,5 H,5 H,5 H,5 H,5 H,5 H,5 H,5 H,5 H,5 H,5 H,5 H,5 H,5 H,5 H,5 H,5 H,5 H,5 H,5 H,5 H,5 ,5 ,5 ,5 ,5 ,5 ,5 G,5 G,5 G,5 G,5 G,5 G,5 G,5 G,5 G,5 G,5 G,5 G,5 G,5 G,5 G,5 G,5 G,5 G,5 G,5 G,5 G,5 G,5 G,5 G,5 G,5 G,5 G,5 G,5 G,5 G,5 G,5 G,5 G,5 G,5 G,5 G,5 G,5 G,5 G,5 G,5 G,5 G,5 G,5 G,5 G,5 G,5 G,5 G,5 G,5 G,5 G,5 G,5 G,5 G,5 G,5 G,5 G,5 G,5 G,5 G,5 G,5 G,5 G,5 G,5 G,5 G,5 G,5 G,5 G,5 G,5 G,5 G,5 G,5 G,5 G,5 G,5 G,5 G,5 G,5 G,5 G,5 G,5 G,5 G,5 G,5 G,5 G,5 G G G G G G G G G                                        H- H- H- H- H- H- H- H- H- H- H- H- H- H- H- H- H- H- H- H- H- H- H- H- H- H- H- H- H- H- H- H- H- H- H- H- H- H- H- H- H- H- H- H- H- H- H- H- H- H- H- H- H- H- H- H- H- H- H- H- H- H- H- H- H- H- H- H- H- H- H- H- H- H- H- H- H- H- H- H- H- H- H- H- H- H- H- H- H- H- H- H- H- H- H- H- H- H- H- H- H- H- H- H- H- H- H- H- H- H- H- H- H- H- H- H- H- H- H- H- H-4 H-4 H-4 H-4 H-4 H-4 H-4 H-4 H-4 H-4 H-4 H-4 H-4 H-4 H-4 H-4 H-4 H-4 H-4 H-4 H-4 H-4 H-4 H-4 H-4 H-4 H-4 H-4 H-4 H-4 H-4 H-4 H-4 H-4 H-4 H-4 H-4 H-4 H-4 H-4 H-4 H-4 H-4 H-4 H-4 H-4 H-4 H-4 H-4 H-4 H-4 H-4 H-4 H-4 H-4 H-4 H-4 H-4 H-4 H-4 H-4 H-4 H-4 H-4 H-4 H-4 H-4 H-4 H-4 H-4 H-4 H-4 H4 H4 H4 H4 H4 H4 H4 H4 H4 H4 H4 H4 H4 H4 H4 H4 H4 H4 H4 H4 H4 H4 H4 H4 H H H H H H H H H H H H H H H H H H H H H H H H H9 H9 H9 H9 H9 H9 H9 H9 H9 H9 H9 H9 H9 H9 H9 H9 H9 H9 H9 H9 H9 H9 H9 H9 H9 H9 H9 H9 H9 H9 H9 H9 H9 H9 H9 H9 H9 H9 H9 H9 H9 H9 H9 H9 H9 H9 H9 H9 9 9 9 9 9 9 9 9 9 9 9 9 9 9 9 9 9 9 9 9 9 9 9 9 9 9 9 9 9 9 9 9 9 9 9 9 9 9 9 9 9 9 9 9 9 9 9 9                         G; G; G; G; G; G; G; G; G; G; G; G; G; G; G; G; G; G; G; G; G; G; G; G; G; G; G; G; G; G; G; G; G; G; G; G; G; G; G; G; G; G; G; G; G; G; G; G; G; G; G; G; G; G; G; G; G; G; G; G; G; G; G; G; G; G; G; G; G; G; G; G; G; G; G; G; G; G; G; G; G; G; G; G; G; G; G; G; G; G; G; G; G; G; G; G;                         E< E< E< E< E< E< E< E< E< E< E< E< E< E< E< E< E< E< E< E< E< E< E< E< E< E< E< E< E< E< E< E< E< E< E< E< E< E< E< E< E< E< E< E< E< E< E< E< E< E< E< E< E< E< E< E< E< E< E< E< E< E< E< E< E< E< E< E< E< E< E< E< E< E< E< E< E< E< E< E< E< E< E< E< E< E< E< E< E< E< E< E< E< E< E< E<                         C> C> C> C> C> C> C> C> C> C> C> C> C> C> C> C> C> C> C> C> C> C> C> C> C> C> C> C> C> C> C> C> C> C> C> C> C> C> C> C> C> C> C> C> C> C> C> C> C> C> C> C> C> C> C> C> C> C> C> C> C> C> C> C> C> C> C> C> C> C> C> C> C> C> C> C> C> C> C> C> C> C> C> C> C> C> C> C> C> C> C> C> C> C> C> C>                         B@ B@ B@ B@ B@ B@ B@ B@ B@ B@ B@ B@ B@ B@ B@ B@ B@ B@ B@ B@ B@ B@ B@ B@ B@ B@ B@ B@ B@ B@ B@ B@ B@ B@ B@ B@ B@ B@ B@ B@ B@ B@ B@ B@ B@ B@ B@ B@ B@ B@ B@ B@ B@ B@ B@ B@ B@ B@ B@ B@ B@ B@ B@ B@ B@ B@ B@ B@ B@ B@ B@ B@ B@ B@ B@ B@ B@ B@ B@ B@ B@ B@ B@ B@ B@ B@ B@ B@ B@ B@ B@ B@ B@ B@ B@ B@                         C> C> C> C> C> C> C> C> C> C> C> C> C> C> C> C> C> C> C> C> C> C> C> C> C> C> C> C> C> C> C> C> C> C> C> C> C> C> C> C> C> C> C> C> C> C> C> C> C> C> C> C> C> C> C> C> C> C> C> C> C> C> C> C> C> C> C> C> C> C> C> C> C> C> C> C> C> C> C> C> C> C> C> C> C> C> C> C> C> C> C> C> C> C> C> C>                         E< E< E< E< E< E< E< E< E< E< E< E< E< E< E< E< E< E< E< E< E< E< E< E< < < < < < < C< C< C< C< C< C< C< C< C< C< C< C< C< C< C< C< C< C< C< C< C< C< C< C< < < < < < < E< E< E< E< E< E< E< E< E< E< E< E< E< E< E< E< E< E< E< E< E< E< E< E< < < < < < < C< C< C< C< C< C< C C C C C C C C C C C C C C C C C C       E; E; E; E; E; E; E; E; E; E; E; E; E; E; E; E; E; E; E; E; E; E; E; E; ; ; ; ; ; ; C; C; C; C; C; C; C; C; C; C; C; C; C; C; C; C; C; C; C; C; C; C; C; C; ; ; ; ; ; ; E; E; E; E; E; E; E; E; E; E; E; E; E; E; E; E; E; E; E; E; E; E; E; E; ; ; ; ; ; ; C; C; C; C; C; C; C C C C C C C C C C C C C C C C C C       E9 E9 E9 E9 E9 E9 E9 E9 E9 E9 E9 E9 E9 E9 E9 E9 E9 E9 E9 E9 E9 E9 E9 E9 9 9 9 9 9 9 C9 C9 C9 C9 C9 C9 C9 C9 C9 C9 C9 C9 C9 C9 C9 C9 C9 C9 C9 C9 C9 C9 C9 C9 9 9 9 9 9 9 E9 E9 E9 E9 E9 E9 E9 E9 E9 E9 E9 E9 E9 E9 E9 E9 E9 E9 E9 E9 E9 E9 E9 E9 9 9 9 9 9 9 C9 C9 C9 C9 C9 C9 C C C C C C C C C C C C C C C C C C       B7 B7 B7 B7 B7 B7 B7 B7 B7 B7 B7 B7 B7 B7 B7 B7 B7 B7 B7 B7 B7 B7 B7 B7 B7 B7 B7 B7 B7 B7 B7 B7 B7 B7 B7 B7 B7 B7 B7 B7 B7 B7 B7 B7 B7 B7 B7 B7 7 7 7 7 7 7 7 7 7 7 7 7 C7 C7 C7 C7 C7 C7 C7 C7 C7 C7 C7 C7 C7 C7 C7 C7 C7 C7 C7 C7 C7 C7 C7 C7 C7 C7 C7 C7 C7 C7 C7 C7 C7 C7 C7 C7 C C C C C C C C C C C C             EB> EB> EB> EB> EB> EB> EB> EB> EB> EB> EB> EB> EB> EB> EB> EB> EB> EB> EB> EB> EB> EB> EB> EB> EB> EB> EB> EB> EB> EB> EB> EB> EB> EB> EB> EB> EB> EB> EB> EB> EB> EB> EB> EB> EB> EB> EB> EB> EB> EB> EB> EB> EB> EB> EB> EB> EB> EB> EB> EB> EB> EB> EB> EB> EB> EB> EB> EB> EB> EB> EB> EB> EB> EB> EB> EB> EB> EB> EB> EB> EB> EB> EB> EB> EB> EB> EB> EB> EB> EB> EB> EB> EB> EB> EB> EB> EB> EB> EB> EB> EB> EB> EB> EB> EB> EB> EB> EB> EB> EB> EB> EB> EB> EB> EB> EB> EB> EB> EB> EB> EB> EB> EB> EB> EB> EB> EB> EB> EB> EB> EB> EB> EB> EB> EB> EB> EB> EB> EB> EB> EB> EB> EB> EB> EB> EB> EB> EB> EB> EB> EB> EB> EB> EB> EB> EB> EB> EB> EB> EB> EB> EB> EB> EB> EB> EB> EB> EB> EB> EB> EB> EB> EB> EB> EB> EB> EB> EB> EB> EB> EB> EB> EB> EB> EB> EB> EB> EB> EB> EB> EB> EB> EB EB EB EB EB EB EB EB EB EB EB EB EB EB EB EB EB EB EB EB EB EB EB EB EB EB EB EB EB EB EB EB EB EB EB EB EB EB EB EB EB EB EB EB EB EB EB EB EB2 EB2 EB2 EB2 EB2 EB2 EB2 EB2 EB2 EB2 EB2 EB2 EB2 EB2 EB2 EB2 EB2 EB2 EB2 EB2 EB2 EB2 EB2 EB2 EB2 EB2 EB2 EB2 EB2 EB2 EB2 EB2 EB2 EB2 EB2 EB2 EB2 EB2 EB2 EB2 EB2 EB2 EB2 EB2 EB2 EB2 EB2 EB2 2 2 2 2 2 2 2 2 2 2 2 2 2 2 2 2 2 2 2 2 2 2 2 2 2 2 2 2 2 2 2 2 2 2 2 2 2 2 2 2 2 2 2 2 2 2 2 2 2 2 2 2 2 2 2 2 2 2 2 2 2 2 2 2 2 2 2 2 2 2 2 2 Q2 Q2 Q2 Q2 Q2 Q2 Q2 Q2 Q2 Q2 Q2 Q2 Q2 Q2 Q2 Q2 Q2 Q2 Q2 Q2 Q2 Q2 Q2 Q2 Q2 Q2 Q2 Q2 Q2 Q2 Q2 Q2 Q2 Q2 Q2 Q2 Q2 Q2 Q2 Q2 Q2 Q2 Q2 Q2 Q2 Q2 Q2 Q2 Q2 Q2 Q2 Q2 Q2 Q2 Q2 Q2 Q2 Q2 Q2 Q2 Q2 Q2 Q2 Q2 Q2 Q2 Q2 Q2 Q2 Q2 Q2 Q2 Q Q Q Q Q Q Q Q Q Q Q Q Q Q Q Q Q Q Q Q Q Q Q Q                         O O O O O O O O O O O O O O O O O O O O O O O O O O O O O O O O O O O O O O O O O O O O O O O O O O O O O O O O O O O O O O O O O O O O O O O O O O O O O O O O O O O O O O O O O O O O O O O O                         N N N N N N N N N N N N N N N N N N N N N N N N N N N N N N N N N N N N N N N N N N N N N N N N N N N N N N N N N N N N N N N N N N N N N N N N N N N N N N N N N N N N N N N N N N N N N N N N                         L L L L L L L L L L L L L L L L L L L L L L L L L L L L L L L L L L L L L L L L L L L L L L L L L L L L L L L L L L L L L L L L L L L L L L L L L L L L L L L L L L L L L L L L L L L L L L L L                         J J J J J J J J J J J J J J J J J J J J J J J J J J J J J J J J J J J J J J J J J J J J J J J J J J J J J J J J J J J J J J J J J J J J J J J J J J J J J J J J J J J J J J J J J J J J J J J J                         H H H H H H H H H H H H H H H H H H H H H H H H H H H H H H H H H H H H H H H H H H H H H H H H H H H H H H H H H H H H H H H H H H H H H H H H H H H H H H H H H H H H H H H H H H H H H H H H                         G G G G G G G G G G G G G G G G G G G G G G G G G G G G G G G G G G G G G G G G G G G G G G G G G G G G G G G G G G G G G G G G G G G G G G G G G G G G G G G G G G G G G G G G G G G G G G G G                         HQ>BE HQ>BE HQ>BE HQ>BE HQ>BE HQ>BE HQ>BE HQ>BE HQ>BE HQ>BE HQ>BE HQ>BE HQ>BE HQ>BE HQ>BE HQ>BE HQ>BE HQ>BE HQ>BE HQ>BE HQ>BE HQ>BE HQ>BE HQ>BE HQ>BE HQ>BE HQ>BE HQ>BE HQ>BE HQ>BE HQ>BE HQ>BE HQ>BE HQ>BE HQ>BE HQ>BE HQ>BE HQ>BE HQ>BE HQ>BE HQ>BE HQ>BE HQ>BE HQ>BE HQ>BE HQ>BE HQ>BE HQ>BE HQ>BE HQ>BE HQ>BE HQ>BE HQ>BE HQ>BE HQ>BE HQ>BE HQ>BE HQ>BE HQ>BE HQ>BE HQ>BE HQ>BE HQ>BE HQ>BE HQ>BE HQ>BE HQ>BE HQ>BE HQ>BE HQ>BE HQ>BE HQ>BE HQ>BE HQ>BE HQ>BE HQ>BE HQ>BE HQ>BE HQ>BE HQ>BE HQ>BE HQ>BE HQ>BE HQ>BE HQ>BE HQ>BE HQ>BE HQ>BE HQ>BE HQ>BE HQ>BE HQ>BE HQ>BE HQ>BE HQ>BE HQ>BE HQ>BE HQ>BE HQ>BE HQ>BE HQ>BE HQ>BE HQ>BE HQ>BE HQ>BE HQ>BE HQ>BE HQ>BE HQ>BE HQ>BE HQ>BE HQ>BE HQ>BE HQ>BE HQ>BE HQ>BE HQ>BE HQ>BE HQ>BE HQ>BE HQ>BE HQ>BE HQ>BE HQ>BE HQ>BE HQ>BE HQ>BE HQ>BE HQ>BE HQ>BE HQ>BE HQ>BE HQ>BE HQ>BE HQ>BE HQ>BE HQ>BE HQ>BE HQ>BE HQ>BE HQ>BE HQ>BE HQ>BE HQ>BE HQ>BE HQ>BE HQ>BE HQ>BE HQ>BE HQ>BE HQ>BE HQ>BE HQ>BE HQ>BE HQ>BE HQ>BE HQ>BE HQ>BE HQ>BE HQ>BE HQ>BE HQ>BE HQ>BE HQ>BE HQ>BE HQ>BE HQ>BE HQ>BE HQ>BE HQ>BE HQ>BE HQ>BE HQ>BE HQ>BE HQ>BE HQ>BE HQ>BE HQ>BE HQ>BE HQ>BE HQ>BE HQ>BE HQ>BE HQ>BE HQ>BE HQ>BE HQ>BE HQ>BE HQ>BE HQ>BE HQ>BE HQ>BE                                                 HC> HC> HC> HC> HC> HC> HC> HC> HC> HC> HC> HC> HC> HC> HC> HC> HC> HC> HC> HC> HC> HC> HC> HC> HC> HC> HC> HC> HC> HC> HC> HC> HC> HC> HC> HC> HC> HC> HC> HC> HC> HC> HC> HC> HC> HC> HC> HC> HC> HC> HC> HC> HC> HC> HC> HC> HC> HC> HC> HC> C> C> C> C> C> C> C> C> C> C> C> C> C> C> C> C> C> C> C> C> C> C> C> C> C> C> C> C> C> C> C> C> C> C> C> C> C> C> C> C> C> C> C> C> C> C> C> C> C> C> C> C> C> C> C> C> C> C> C> C> C> C> C> C> C> C> C> C> C> C> C> C> C> C> C> C> C> C> C> C> C> C> C> C> C> C> C> C> C> C> C> C> C> C> C> C> C> C> C> C> C> C> C> C> C> C> C> C> C> C> C> C> C> C> C> C> C> C> C> C> GC> GC> GC> GC> GC> GC> GC> GC> GC> GC> GC> GC> GC GC GC GC GC GC GC GC GC GC GC GC GC GC GC GC GC GC GC GC GC GC GC GC GC GC GC GC GC GC GC GC GC GC GC GC GC GC GC GC GC GC GC GC GC GC GC GC GC2 GC2 GC2 GC2 GC2 GC2 GC2 GC2 GC2 GC2 GC2 GC2 GC2 GC2 GC2 GC2 GC2 GC2 GC2 GC2 GC2 GC2 GC2 GC2 GC2 GC2 GC2 GC2 GC2 GC2 GC2 GC2 GC2 GC2 GC2 GC2 GC2 GC2 GC2 GC2 GC2 GC2 GC2 GC2 GC2 GC2 GC2 GC2 GC2 GC2 GC2 GC2 GC2 C2 C2 C2 C2 C2 C2 C2 C2 C2 C2 C2 C2 C2 C2 C2 C2 C2 C2 C2 C2 C2 C2 C2 C2 C2 C2 C2 C2 C2 C2 C2 C2 C2 C2 C2 C2 C2 C2 C2 C2 C2 C2 C2 C2 C2 C2 C2 C2 C2 C2 C2 C2 C2 C2 C2 C2 C2 C2 C2 C2 C2 C2 C2 C2 C2 C2 C2 CO2 CO2 CO2 CO2 CO2 CO2 CO2 CO2 CO2 CO2 CO2 CO2 CO2 CO2 CO2 CO2 CO2 CO2 CO2 CO2 CO2 CO2 CO2 CO2 O2 O2 O2 O2 O2 O2 O2 O2 O2 O2 O2 O2 O2 O2 O2 O2 O2 O2 O2 O2 O2 O2 O2 O2 O2 O2 O2 O2 O2 O2 O2 O2 O2 O2 O2 O2 O2 O2 O2 O2 O2 O2 O2 O2 O2 O2 O2 O2 O O O O O O O O O O O O O O O O O O O O O O O O                         N N N N N N N N N N N N N N N N N N N N N N N N N N N N N N N N N N N N N N N N N N N N N N N N N N N N N N N N N N N N N N N N N N N N N N N N N N N N N N N N N N N N N N N N N N N N N N N N                         L L L L L L L L L L L L L L L L L L L L L L L L L L L L L L L L L L L L L L L L L L L L L L L L L L L L L L L L L L L L L L L L L L L L L L L L L L L L L L L L L L L L L L L L L L L L L L L L                         J J J J J J J J J J J J J J J J J J J J J J J J J J J J J J J J J J J J J J J J J J J J J J J J J J J J J J J J J J J J J J J J J J J J J J J J J J J J J J J J J J J J J J J J J J J J J J J J                         H H H H H H H H H H H H H H H H H H H H H H H H H H H H H H H H H H H H H H H H H H H H H H H H H H H H H H H H H H H H H H H H H H H H H H H H H H H H H H H H H H H H H H H H H H H H H H H H                         G G G G G G G G G G G G G G G G G G G G G G G G G G G G G G G G G G G G G G G G G G G G G G G G G G G G G G G G G G G G G G G G G G G G G G G G G G G G G G G G G G G G G G G G G G G G G G G G                         E E E E E E E E E E E E E E E E E E E E E E E E E E E E E E E E E E E E E E E E E E E E E E E E E E E E E E E E E E E E E E E E E E E E E E E E E E E E E E E E E E E E E E E E E E E E E E E E                         OGC> OGC> OGC> OGC> OGC> OGC> OGC> OGC> OGC> OGC> OGC> OGC> OGC> OGC> OGC> OGC> OGC> OGC> OGC> OGC> OGC> OGC> OGC> OGC> OGC> OGC> OGC> OGC> OGC> OGC> OGC> OGC> OGC> OGC> OGC> OGC> OGC> OGC> OGC> OGC> OGC> OGC> OGC> OGC> OGC> OGC> OGC> OGC> OGC> OGC> OGC> OGC> OGC> OGC> OGC> OGC> OGC> OGC> OGC> OGC> OGC> OGC> OGC> OGC> OGC> OGC> OGC> OGC> OGC> OGC> OGC> OGC> OGC> OGC> OGC> OGC> OGC> OGC> OGC> OGC> OGC> OGC> OGC> OGC> OGC> OGC> OGC> OGC> OGC> OGC> OGC> OGC> OGC> OGC> OGC> OGC> OGC> OGC> OGC> OGC> OGC> OGC> OGC> OGC> OGC> OGC> OGC> OGC> OGC> OGC> OGC> OGC> OGC> OGC> OGC> OGC> OGC> OGC> OGC> OGC> OGC> OGC> OGC> OGC> OGC> OGC> OGC> OGC> OGC> OGC> OGC> OGC> OGC> OGC> OGC> OGC> OGC> OGC> OGC> OGC> OGC> OGC> OGC> OGC> OGC> OGC> OGC> OGC> OGC> OGC> OGC> OGC> OGC> OGC> OGC> OGC> OGC> OGC> OGC> OGC> OGC> OGC> OGC> OGC> OGC> OGC> OGC> OGC> OGC> OGC> OGC> OGC> OGC> OGC> OGC> OGC> OGC> OGC> OGC> OGC> OGC> OGC> OGC> OGC> OGC> OGC> OGC> OGC> OGC> OGC> OGC> OGC>                                                 GB> GB> GB> GB> GB> GB> GB> GB> GB> GB> GB> GB> GB> GB> GB> GB> GB> GB> GB> GB> GB> GB> GB> GB> GB> GB> GB> GB> GB> GB> GB> GB> GB> GB> GB> GB> GB> GB> GB> GB> GB> GB> GB> GB> GB> GB> GB> GB> GB> GB> GB> GB> GB> GB> GB> GB> GB> GB> GB> GB> GB> GB> GB> GB> GB> GB> GB> GB> GB> GB> GB> GB> GB> GB> GB> GB> GB> GB> GB> GB> GB> GB> GB> GB> GB> GB> GB> GB> GB> GB> GB> GB> GB> GB> GB> GB> B> B> B> B> B> B> B> B> B> B> B> B> B> B> B> B> B> B> B> B> B> B> B> B> B> B> B> B> B> B> B> B> B> B> B> B> B> B> B> B> B> B> B> B> B> B> B> B> B> B> B> B> B> B> B> B> B> B> B> B> B> B> B> B> B> B> B> B> B> B> B> B> B> B> B> B> B> B> B> B> B> B> B> B> BE> BE> BE> BE> BE> BE> BE> BE> BE> BE> BE> BE> BE BE BE BE BE BE BE BE BE BE BE BE BE BE BE BE BE BE BE BE BE BE BE BE BE BE BE BE BE BE BE BE BE BE BE BE BE BE BE BE BE BE BE BE BE BE BE BE BE2 BE2 BE2 BE2 BE2 BE2 BE2 BE2 BE2 BE2 BE2 BE2 BE2 BE2 BE2 BE2 BE2 BE2 BE2 BE2 BE2 BE2 BE2 BE2 BE2 BE2 BE2 BE2 BE2 BE2 BE2 BE2 BE2 BE2 BE2 BE2 BE2 BE2 BE2 BE2 BE2 BE2 BE2 BE2 BE2 BE2 BE2 BE2 E2 E2 E2 E2 E2 2 2 2 2 2 2 2 2 2 2 2 2 2 2 2 2 2 2 2 2 2 2 2 2 2 2 2 2 2 2 2 2 2 2 2 2 2 2 2 2 2 2 2 2 2 2 2 2 2 2 2 2 2 2 2 2 2 2 2 2 2 2 2 2 2 2 2 H2 H2 H2 H2 H2 H2 H2 H2 H2 H2 H2 H2 H2 H2 H2 H2 H2 H2 H2 H2 H2 H2 H2 H2 H2 H2 H2 H2 H2 H2 H2 H2 H2 H2 H2 H2 H2 H2 H2 H2 H2 H2 H2 H2 H2 H2 H2 H2 H2 H2 H2 H2 H2 H2 H2 H2 H2 H2 H2 H2 H2 H2 H2 H2 H2 H2 H2 H2 H2 H2 H2 H2 H H H H H H H H H H H H H H H H H H H H H H H H                         G G G G G G G G G G G G G G G G G G G G G G G G G G G G G G G G G G G G G G G G G G G G G G G G G G G G G G G G G G G G G G G G G G G G G G G G G G G G G G G G G G G G G G G G G G G G G G G G                         E E E E E E E E E E E E E E E E E E E E E E E E E E E E E E E E E E E E E E E E E E E E E E E E E E E E E E E E E E E E E E E E E E E E E E E E E E E E E E E E E E E E E E E E E E E E E E E E                         C C C C C C C C C C C C C C C C C C C C C C C C C C C C C C C C C C C C C C C C C C C C C C C C C C C C C C C C C C C C C C C C C C C C C C C C C C C C C C C C C C C C C C C C C C C C C C C C                         B B B B B B B B B B B B B B B B B B B B B B B B B B B B B B B B B B B B B B B B B B B B B B B B B B B B B B B B B B B B B B B B B B B B B B B B B B B B B B B B B B B B B B B B B B B B B B B B                         @ @ @ @ @ @ @ @ @ @ @ @ @ @ @ @ @ @ @ @ @ @ @ @ @ @ @ @ @ @ @ @ @ @ @ @ @ @ @ @ @ @ @ @ @ @ @ @ @ @ @ @ @ @ @ @ @ @ @ @ @ @ @ @ @ @ @ @ @ @ @ @ @ @ @ @ @ @ @ @ @ @ @ @ @ @ @ @ @ @ @ @ @ @ @ @                         >2 >2 >2 >2 >2 >2 >2 >2 >2 >2 >2 >2 >2 >2 >2 >2 >2 >2 >2 >2 >2 >2 >2 >2 >2 >2 >2 >2 >2 >2 >2 >2 >2 >2 >2 >2 >2 >2 >2 >2 >2 >2 >2 >2 >2 >2 >2 >2 >2 >2 >2 >2 >2 >2 >2 >2 >2 >2 >2 >2 >2 >2 >2 >2 >2 >2 >2 >2 >2 >2 >2 >2 >2 >2 >2 >2 >2 >2 >2 >2 >2 >2 >2 >2 >2 >2 >2 >2 >2 >2 >2 >2 >2 >2 >2 >2                         H4 H4 H4 H4 H4 H4 H4 H4 H4 H4 H4 H4 H4 H4 H4 H4 H4 H4 H4 H4 H4 H4 H4 H4 H4 H4 H4 H4 H4 H4 H4 H4 H4 H4 H4 H4 H4 H4 H4 H4 H4 H4 H4 H4 H4 H4 H4 H4 H4 H4 H4 H4 H4 H4 H4 H4 H4 H4 H4 H4 H4 H4 H4 H4 H4 H4 H4 H4 H4 H4 H4 H4 H4 H4 H4 H4 H4 H4 H4 H4 H4 H4 H4 H4 H4 H4 H4 H4 H4 H4 H4 H4 H4 H4 H4 H4 H H H H H H H H H H H H H H H H H H H H H H H H H6 H6 H6 H6 H6 H6 H6 H6 H6 H6 H6 H6 H6 H6 H6 H6 H6 H6 H6 H6 H6 H6 H6 H6 H6 H6 H6 H6 H6 H6 H6 H6 H6 H6 H6 H6 H6 H6 H6 H6 H6 H6 H6 H6 H6 H6 H6 H6 H6 H6 H6 H6 H6 H6 H6 H6 H6 H6 H6 H6 H6 H6 H6 H6 H6 H6 H6 H6 H6 H6 H6 H6 6 6 6 6 6 6 6 6 6 6 6 6 6 6 6 6 6 6 6 6 6 6 6 6                         H7 H7 H7 H7 H7 H7 H7 H7 H7 H7 H7 H7 H7 H7 H7 H7 H7 H7 H7 H7 H7 H7 H7 H7 7 7 7 7 7 7 G7 G7 G7 G7 G7 G7 G7 G7 G7 G7 G7 G7 G7 G7 G7 G7 G7 G7 G7 G7 G7 G7 G7 G7 7 7 7 7 7 7 H7 H7 H7 H7 H7 H7 H7 H7 H7 H7 H7 H7 H7 H7 H7 H7 H7 H7 H7 H7 H7 H7 H7 H7 7 7 7 7 7 7 G7 G7 G7 G7 G7 G7 G G G G G G G G G G G G G G G G G G       H9 H9 H9 H9 H9 H9 H9 H9 H9 H9 H9 H9 H9 H9 H9 H9 H9 H9 H9 H9 H9 H9 H9 H9 9 9 9 9 9 9 G9 G9 G9 G9 G9 G9 G9 G9 G9 G9 G9 G9 G9 G9 G9 G9 G9 G9 G9 G9 G9 G9 G9 G9 9 9 9 9 9 9 H9 H9 H9 H9 H9 H9 H9 H9 H9 H9 H9 H9 H9 H9 H9 H9 H9 H9 H9 H9 H9 H9 H9 H9 9 9 9 9 9 9 G9 G9 G9 G9 G9 G9 G G G G G G G G G G G G G G G G G G       H7 H7 H7 H7 H7 H7 H7 H7 H7 H7 H7 H7 H7 H7 H7 H7 H7 H7 H7 H7 H7 H7 H7 H7 7 7 7 7 7 7 G7 G7 G7 G7 G7 G7 G7 G7 G7 G7 G7 G7 G7 G7 G7 G7 G7 G7 G7 G7 G7 G7 G7 G7 7 7 7 7 7 7 H7 H7 H7 H7 H7 H7 H7 H7 H7 H7 H7 H7 H7 H7 H7 H7 H7 H7 H7 H7 H7 H7 H7 H7 7 7 7 7 7 7 G7 G7 G7 G7 G7 G7 G G G G G G G G G G G G G G G G G G       E6 E6 E6 E6 E6 E6 E6 E6 E6 E6 E6 E6 E6 E6 E6 E6 E6 E6 E6 E6 E6 E6 E6 E6 E6 E6 E6 E6 E6 E6 E6 E6 E6 E6 E6 E6 E6 E6 E6 E6 E6 E6 E6 E6 E6 E6 E6 E6 E6 E6 E6 E6 E6 E6 E6 E6 E6 E6 E6 E6 E6 E6 E6 E6 E6 E6 E6 E6 E6 E6 E6 E6 E6 E6 E6 E6 E6 E6 E6 E6 E6 E6 E6 E6 E6 E6 E6 E6 E6 E6 E6 E6 E6 E6 E6 E6                         C4 C4 C4 C4 C4 C4 C4 C4 C4 C4 C4 C4 C4 C4 C4 C4 C4 C4 C4 C4 C4 C4 C4 C4 C4 C4 C4 C4 C4 C4 C4 C4 C4 C4 C4 C4 C4 C4 C4 C4 C4 C4 C4 C4 C4 C4 C4 C4 C4 C4 C4 C4 C4 C4 C4 C4 C4 C4 C4 C4 C4 C4 C4 C4 C4 C4 C4 C4 C4 C4 C4 C4 C4 C4 C4 C4 C4 C4 C4 C4 C4 C4 C4 C4 C4 C4 C4 C4 C4 C4 C4 C4 C4 C4 C4 C4                         B2 B2 B2 B2 B2 B2 B2 B2 B2 B2 B2 B2 B2 B2 B2 B2 B2 B2 B2 B2 B2 B2 B2 B2 B2 B2 B2 B2 B2 B2 B2 B2 B2 B2 B2 B2 B2 B2 B2 B2 B2 B2 B2 B2 B2 B2 B2 B2 B2 B2 B2 B2 B2 B2 B2 B2 B2 B2 B2 B2 B2 B2 B2 B2 B2 B2 B2 B2 B2 B2 B2 B2 B2 B2 B2 B2 B2 B2 B2 B2 B2 B2 B2 B2 B2 B2 B2 B2 B2 B2 B2 B2 B2 B2 B2 B2                         C4 C4 C4 C4 C4 C4 C4 C4 C4 C4 C4 C4 C4 C4 C4 C4 C4 C4 C4 C4 C4 C4 C4 C4 C4 C4 C4 C4 C4 C4 C4 C4 C4 C4 C4 C4 C4 C4 C4 C4 C4 C4 C4 C4 C4 C4 C4 C4 C4 C4 C4 C4 C4 C4 C4 C4 C4 C4 C4 C4 C4 C4 C4 C4 C4 C4 C4 C4 C4 C4 C4 C4 C4 C4 C4 C4 C4 C4 C4 C4 C4 C4 C4 C4 C4 C4 C4 C4 C4 C4 C4 C4 C4 C4 C4 C4                         E0 E0 E0 E0 E0 E0 E0 E0 E0 E0 E0 E0 E0 E0 E0 E0 E0 E0 E0 E0 E0 E0 E0 E0 E0 E0 E0 E0 E0 E0 E0 E0 E0 E0 E0 E0 E0 E0 E0 E0 E0 E0 E0 E0 E0 E0 E0 E0 E0 E0 E0 E0 E0 E0 E0 E0 E0 E0 E0 E0 E0 E0 E0 E0 E0 E0 E0 E0 E0 E0 E0 E0 E0 E0 E0 E0 E0 E0 E0 E0 E0 E0 E0 E0 E0 E0 E0 E0 E0 E0 E0 E0 E0 E0 E0 E0                         GB2 GB2 GB2 GB2 GB2 GB2 GB2 GB2 GB2 GB2 GB2 GB2 GB2 GB2 GB2 GB2 GB2 GB2 GB2 GB2 GB2 GB2 GB2 GB2 B2 B2 B2 B2 B2 B2 EB2 EB2 EB2 EB2 EB2 EB2 EB2 EB2 EB2 EB2 EB2 EB2 EB2 EB2 EB2 EB2 EB2 EB2 EB2 EB2 EB2 EB2 EB2 EB2 B2 B2 B2 B2 B2 B2 GB2 GB2 GB2 GB2 GB2 GB2 GB2 GB2 GB2 GB2 GB2 GB2 GB2 GB2 GB2 GB2 GB2 GB2 GB2 GB2 GB2 GB2 GB2 GB2 B2 B2 B2 B2 B2 B2 EB2 EB2 EB2 EB2 EB2 EB2 EB2 EB2 EB2 EB2 EB2 EB2 EB2 EB2 EB2 EB2 EB2 EB2 EB2 EB2 EB2 EB2 EB2 EB2 B2 B2 B2 B2 B2 B2 GB2 GB2 GB2 GB2 GB2 GB2 GB2 GB2 GB2 GB2 GB2 GB2 GB2 GB2 GB2 GB2 GB2 GB2 GB2 GB2 GB2 GB2 GB2 GB2 B2 B2 B2 B2 B2 B2 EB2 EB2 EB2 EB2 EB2 EB2 EB2 EB2 EB2 EB2 EB2 EB2 EB2 EB2 EB2 EB2 EB2 EB2 EB2 EB2 EB2 EB2 EB2 EB2 B2 B2 B2 B2 B2 B2 GB2 GB2 GB2 GB2 GB2 GB2 GB2 GB2 GB2 GB2 GB2 GB2 GB GB GB GB GB GB GB GB GB GB GB GB B B B B B B EB EB EB EB EB EB EB EB EB EB EB EB EB EB EB EB EB EB EB EB EB EB EB EB B B B B B B GB& GB& GB& GB& GB& GB& GB& GB& GB& GB& GB& GB& GB& GB& GB& GB& GB& GB& GB& GB& GB& GB& GB& GB& B& B& B& B& B& B& EB& EB& EB& EB& EB& EB& EB& EB& EB& EB& EB& EB& EB& EB& EB& EB& EB& EB& EB& EB& EB& EB& EB& EB& B& B& B& B& B& B& GB& GB& GB& GB& GB& GB& GB& GB& GB& GB& GB& GB& GB& GB& GB& GB& GB& GB& GB& GB& GB& GB& GB& GB& B& B& B& B& B& B& EB& EB& EB& EB& EB& EB& EB& EB& EB& EB& EB& EB& EB& EB& EB& EB& EB& EB& EB& EB& EB& EB& EB& EB& B& B& B& B& B& B& BC& BC& BC& BC& BC& BC& BC& BC& BC& BC& BC& BC& BC& BC& BC& BC& BC& BC& BC& BC& BC& BC& BC& BC& C& C& C& C& C& C& C& C& C& C& C& C& C& C& C& C& C& C& C& C& C& C& C& C& & & & & & & & & & & & & E& E& E& E& E& E& E& E& E& E& E& E& E E E E E E E E E E E E E E E E E E E E E E E E E E E E E E E E E E E E             C+ C+ C+ C+ C+ C+ C+ C+ C+ C+ C+ C+ C+ C+ C+ C+ C+ C+ C+ C+ C+ C+ C+ C+ C+ C+ C+ C+ C+ C+ C+ C+ C+ C+ C+ C+ C+ C+ C+ C+ C+ C+ C+ C+ C+ C+ C+ C+ C+ C+ C+ C+ C+ C+ C+ C+ C+ C+ C+ C+ C+ C+ C+ C+ C+ C+ C+ C+ C+ C+ C+ C+ C+ C+ C+ C+ C+ C+ C+ C+ C+ C+ C+ C+ C+ C+ C+ C+ C+ C+ C+ C+ C+ C+ C+ C+ C+ C+ C+ C+ C+ C+ C+ C+ C+ C+ C+ C+ C+ C+ C+ C+ C+ C+ C+ C+ C+ C+ C+ C+ C+ C+ C+ C+ C+ C+ C+ C+ C+ C+ C+ C+ C+ C+ C+ C+ C+ C+ C+ C+ C+ C+ C+ C+ C+ C+ C+ C+ C+ C+ C+ C+ C+ C+ C+ C+ C+ C+ C+ C+ C+ C+ C+ C+ C+ C+ C+ C+ C+ C+ C+ C+ C+ C+ C+ C+ C+ C+ C+ C+ C+ C+ C+ C+ C+ C+ C+ C+ C+ C+ C+ C+                                                 G7 G7 G7 G7 G7 G7 G7 G7 G7 G7 G7 G7 G7 G7 G7 G7 G7 G7 G7 G7 G7 G7 G7 G7 G7 G7 G7 G7 G7 G7 G7 G7 G7 G7 G7 G7 G7 G7 G7 G7 G7 G7 G7 G7 G7 G7 G7 G7 G7 G7 G7 G7 G7 G7 G7 G7 G7 G7 G7 G7 G7 G7 G7 G7 G7 G7 G7 G7 G7 G7 G7 G7 G7 G7 G7 G7 G7 G7 G7 G7 G7 G7 G7 G7 G7 G7 G7 G7 G7 G7 G7 G7 G7 G7 G7 G7 G G G G G G G G G G G G G G G G G G G G G G G G G9 G9 G9 G9 G9 G9 G9 G9 G9 G9 G9 G9 G9 G9 G9 G9 G9 G9 G9 G9 G9 G9 G9 G9 G9 G9 G9 G9 G9 G9 G9 G9 G9 G9 G9 G9 G9 G9 G9 G9 G9 G9 G9 G9 G9 G9 G9 G9 G9 G9 G9 G9 G9 G9 G9 G9 G9 G9 G9 G9 G9 G9 G9 G9 G9 G9 G9 G9 G9 G9 G9 G9 9 9 9 9 9 9 9 9 9 9 9 9 9 9 9 9 9 9 9 9 9 9 9 9                         L7 L7 L7 L7 L7 L7 L7 L7 L7 L7 L7 L7 L7 L7 L7 L7 L7 L7 L7 L7 L7 L7 L7 L7 7 7 7 7 7 7 K7 K7 K7 K7 K7 K7 K7 K7 K7 K7 K7 K7 K7 K7 K7 K7 K7 K7 K7 K7 K7 K7 K7 K7 7 7 7 7 7 7 L7 L7 L7 L7 L7 L7 L7 L7 L7 L7 L7 L7 L7 L7 L7 L7 L7 L7 L7 L7 L7 L7 L7 L7 L7 L7 L7 L7 L7 L7 L7 L7 L7 L7 L7 L7 L L L L L L L L L L L L L L L L L L L L L L L L L6 L6 L6 L6 L6 L6 L6 L6 L6 L6 L6 L6 L6 L6 L6 L6 L6 L6 L6 L6 L6 L6 L6 L6 L6 L6 L6 L6 L6 L6 L6 L6 L6 L6 L6 L6 L6 L6 L6 L6 L6 L6 L6 L6 L6 L6 L6 L6 L6 L6 L6 L6 L6 L6 L6 L6 L6 L6 L6 L6 L6 L6 L6 L6 L6 L6 L6 L6 L6 L6 L6 L6 L6 L6 L6 L6 L6 L6 L6 L6 L6 L6 L6 L6 L6 L6 L6 L6 L6 L6 L6 L6 L6 L6 L6 L6 L L L L L L L L L L L L L L L L L L L L L L L L L4 L4 L4 L4 L4 L4 L4 L4 L4 L4 L4 L4 L4 L4 L4 L4 L4 L4 L4 L4 L4 L4 L4 L4 L4 L4 L4 L4 L4 L4 L4 L4 L4 L4 L4 L4 L4 L4 L4 L4 L4 L4 L4 L4 L4 L4 L4 L4 L4 L4 L4 L4 L4 L4 L4 L4 L4 L4 L4 L4 L4 L4 L4 L4 L4 L4 L4 L4 L4 L4 L4 L4 4 4 4 4 4 4 4 4 4 4 4 4 4 4 4 4 4 4 4 4 4 4 4 4                         N2 N2 N2 N2 N2 N2 N2 N2 N2 N2 N2 N2 N2 N2 N2 N2 N2 N2 N2 N2 N2 N2 N2 N2 N2 N2 N2 N2 N2 N2 N2 N2 N2 N2 N2 N2 N2 N2 N2 N2 N2 N2 N2 N2 N2 N2 N2 N2 N2 N2 N2 N2 N2 N2 N2 N2 N2 N2 N2 N2 N2 N2 N2 N2 N2 N2 N2 N2 N2 N2 N2 N2 N2 N2 N2 N2 N2 N2 N2 N2 N2 N2 N2 N2 N2 N2 N2 N2 N2 N2 N2 N2 N2 N2 N2 N2                         O1 O1 O1 O1 O1 O1 O1 O1 O1 O1 O1 O1 O1 O1 O1 O1 O1 O1 O1 O1 O1 O1 O1 O1 O1 O1 O1 O1 O1 O1 O1 O1 O1 O1 O1 O1 O1 O1 O1 O1 O1 O1 O1 O1 O1 O1 O1 O1 O1 O1 O1 O1 O1 O1 O1 O1 O1 O1 O1 O1 O1 O1 O1 O1 O1 O1 O1 O1 O1 O1 O1 O1 O1 O1 O1 O1 O1 O1 O1 O1 O1 O1 O1 O1 O1 O1 O1 O1 O1 O1 O1 O1 O1 O1 O1 O1                         L/ L/ L/ L/ L/ L/ L/ L/ L/ L/ L/ L/ L/ L/ L/ L/ L/ L/ L/ L/ L/ L/ L/ L/ L/ L/ L/ L/ L/ L/ L/ L/ L/ L/ L/ L/ L/ L/ L/ L/ L/ L/ L/ L/ L/ L/ L/ L/ L/ L/ L/ L/ L/ L/ L/ L/ L/ L/ L/ L/ L/ L/ L/ L/ L/ L/ L/ L/ L/ L/ L/ L/ L/ L/ L/ L/ L/ L/ L/ L/ L/ L/ L/ L/ L/ L/ L/ L/ L/ L/ L/ L/ L/ L/ L/ L/ / / / / / / / / / / / / / / / / / / / / / / / / I7/ I7/ I7/ I7/ I7/ I7/ I7/ I7/ I7/ I7/ I7/ I7/ I7/ I7/ I7/ I7/ I7/ I7/ I7/ I7/ I7/ I7/ I7/ I7/ I7/ I7/ I7/ I7/ I7/ I7/ I7/ I7/ I7/ I7/ I7/ I7/ I7/ I7/ I7/ I7/ I7/ I7/ I7/ I7/ I7/ I7/ I7/ I7/ I7/ I7/ I7/ I7/ I7/ I7/ I7/ I7/ I7/ I7/ I7/ I7/ I7/ I7/ I7/ I7/ I7/ I7/ I7/ I7/ I7/ I7/ I7/ I7/ I7/ I7/ I7/ I7/ I7/ I7/ I7/ I7/ I7/ I7/ I7/ I7/ I7/ I7/ I7/ I7/ I7/ I7/ I7/ I7/ I7/ I7/ I7/ I7/ 7/ 7/ 7/ 7/ 7/ 7/ 7/ 7/ 7/ 7/ 7/ 7/ 7/ 7/ 7/ 7/ 7/ 7/ 7/ 7/ 7/ 7/ 7/ 7/ J7/ J7/ J7/ J7/ J7/ J7/ J7/ J7/ J7/ J7/ J7/ J7/ J7/ J7/ J7/ J7/ J7/ J7/ J7/ J7/ J7/ J7/ J7/ J7/ J7/ J7/ J7/ J7/ J7/ J7/ J7/ J7/ J7/ J7/ J7/ J7/ J7/ J7/ J7/ J7/ J7/ J7/ J7/ J7/ J7/ J7/ J7/ J7/ J7/ J7/ J7/ J7/ J7/ J7/ J7/ J7/ J7/ J7/ J7/ J7/ J7/ J7/ J7/ J7/ J7/ J7/ J7/ J7/ J7/ J7/ J7/ J7/ J J J J J J J J J J J J J J J J J J J J J J J J                         L.6 L.6 L.6 L.6 L.6 L.6 L.6 L.6 L.6 L.6 L.6 L.6 L.6 L.6 L.6 L.6 L.6 L.6 L.6 L.6 L.6 L.6 L.6 L.6 L.6 L.6 L.6 L.6 L.6 L.6 L.6 L.6 L.6 L.6 L.6 L.6 L.6 L.6 L.6 L.6 L.6 L.6 L.6 L.6 L.6 L.6 L.6 L.6 L.6 L.6 L.6 L.6 L.6 L.6 L.6 L.6 L.6 L.6 L.6 L.6 L.6 L.6 L.6 L.6 L.6 L.6 L.6 L.6 L.6 L.6 L.6 L.6 L.6 L.6 L.6 L.6 L.6 L.6 L.6 L.6 L.6 L.6 L.6 L.6 L.6 L.6 L.6 L.6 L.6 L.6 L.6 L.6 L.6 L.6 L.6 L.6 .6 .6 .6 .6 .6 .6 .6 .6 .6 .6 .6 .6 .6 .6 .6 .6 .6 .6 .6 .6 .6 .6 .6 .6 O.6 O.6 O.6 O.6 O.6 O.6 O.6 O.6 O.6 O.6 O.6 O.6 O.6 O.6 O.6 O.6 O.6 O.6 O.6 O.6 O.6 O.6 O.6 O.6 O.6 O.6 O.6 O.6 O.6 O.6 O.6 O.6 O.6 O.6 O.6 O.6 O.6 O.6 O.6 O.6 O.6 O.6 O.6 O.6 O.6 O.6 O.6 O.6 O.6 O.6 O.6 O.6 O.6 O.6 O.6 O.6 O.6 O.6 O.6 O.6 O.6 O.6 O.6 O.6 O.6 O.6 O.6 O.6 O.6 O.6 O.6 O.6 O6 O6 O6 O6 O6 O6 O6 O6 O6 O6 O6 O6 O6 O6 O6 O6 O6 O6 O6 O6 O6 O6 O6 O6 6 6 6 6 6 6 6 6 6 6 6 6 6 6 6 6 6 6 6 6 6 6 6 6 N*6 N*6 N*6 N*6 N*6 N*6 N*6 N*6 N*6 N*6 N*6 N*6 N*6 N*6 N*6 N*6 N*6 N*6 N*6 N*6 N*6 N*6 N*6 N*6 N*6 N*6 N*6 N*6 N*6 N*6 N*6 N*6 N*6 N*6 N*6 N*6 N*6 N*6 N*6 N*6 N*6 N*6 N*6 N*6 N*6 N*6 N*6 N*6 N*6 N*6 N*6 N*6 N*6 N*6 N*6 N*6 N*6 N*6 N*6 N*6 N*6 N*6 N*6 N*6 N*6 N*6 N*6 N*6 N*6 N*6 N*6 N*6 N*6 N*6 N*6 N*6 N*6 N*6 N*6 N*6 N*6 N*6 N*6 N*6 N*6 N*6 N*6 N*6 N*6 N*6 N*6 N*6 N*6 N*6 N*6 N*6 *6 *6 *6 *6 *6 *6 *6 *6 *6 *6 *6 *6 *6 *6 *6 *6 *6 *6 *6 *6 *6 *6 *6 *6 L*6 L*6 L*6 L*6 L*6 L*6 L*6 L*6 L*6 L*6 L*6 L*6 L*6 L*6 L*6 L*6 L*6 L*6 L*6 L*6 L*6 L*6 L*6 L*6 L*6 L*6 L*6 L*6 L*6 L*6 L*6 L*6 L*6 L*6 L*6 L*6 L*6 L*6 L*6 L*6 L*6 L*6 L*6 L*6 L*6 L*6 L*6 L*6 L*6 L*6 L*6 L*6 L*6 L*6 L*6 L*6 L*6 L*6 L*6 L*6 L*6 L*6 L*6 L*6 L*6 L*6 L*6 L*6 L*6 L*6 L*6 L*6 L6 L6 L6 L6 L6 L6 L6 L6 L6 L6 L6 L6 L6 L6 L6 L6 L6 L6 L6 L6 L6 L6 L6 L6 6 6 6 6 6 6 6 6 6 6 6 6 6 6 6 6 6 6 6 6 6 6 6 6 J6/ J6/ J6/ J6/ J6/ J6/ J6/ J6/ J6/ J6/ J6/ J6/ J6/ J6/ J6/ J6/ J6/ J6/ J6/ J6/ J6/ J6/ J6/ J6/ J6/ J6/ J6/ J6/ J6/ J6/ J6/ J6/ J6/ J6/ J6/ J6/ J6/ J6/ J6/ J6/ J6/ J6/ J6/ J6/ J6/ J6/ J6/ J6/ J6/ J6/ J6/ J6/ J6/ J6/ J6/ J6/ J6/ J6/ J6/ J6/ J6/ J6/ J6/ J6/ J6/ J6/ J6/ J6/ J6/ J6/ J6/ J6/ J6/ J6/ J6/ J6/ J6/ J6/ J6/ J6/ J6/ J6/ J6/ J6/ J6/ J6/ J6/ J6/ J6/ J6/ J6/ J6/ J6/ J6/ J6/ J6/ / / / / / / / / / / / / / / / / / / / / / / / / I/ I/ I/ I/ I/ I/ I/ I/ I/ I/ I/ I/ I/ I/ I/ I/ I/ I/ I/ I/ I/ I/ I/ I/ I/ I/ I/ I/ I/ I/ I/ I/ I/ I/ I/ I/ I/ I/ I/ I/ I/ I/ I/ I/ I/ I/ I/ I/ I/ I/ I/ I/ I/ I/ I/ I/ I/ I/ I/ I/ I/ I/ I/ I/ I/ I/ I/ I/ I/ I/ I/ I/ I I I I I I I I I I I I I I I I I I I I I I I I I I I I I I I I I I I I I I I I I I I I I I I I SI47 SI47 SI47 SI47 SI47 SI47 SI47 SI47 SI47 SI47 SI47 SI47 SI47 SI47 SI47 SI47 SI47 SI47 SI47 SI47 SI47 SI47 SI47 SI47 SI47 SI47 SI47 SI47 SI47 SI47 SI47 SI47 SI47 SI47 SI47 SI47 SI47 SI47 SI47 SI47 SI47 SI47 SI47 SI47 SI47 SI47 SI47 SI47 SI47 SI47 SI47 SI47 SI47 SI47 SI47 SI47 SI47 SI47 SI47 SI47 SI47 SI47 SI47 SI47 SI47 SI47 SI47 SI47 SI47 SI47 SI47 SI47 SI47 SI47 SI47 SI47 SI47 SI47 SI47 SI47 SI47 SI47 SI47 SI47 SI47 SI47 SI47 SI47 SI47 SI47 SI47 SI47 SI47 SI47 SI47 SI47 SI47 SI47 SI47 SI47 SI47 SI47 SI47 SI47 SI47 SI47 SI47 SI47 SI47 SI47 SI47 SI47 SI47 SI47 SI47 SI47 SI47 SI47 SI47 SI47 SI47 SI47 SI47 SI47 SI47 SI47 SI47 SI47 SI47 SI47 SI47 SI47 SI47 SI47 SI47 SI47 SI47 SI47 SI47 SI47 SI47 SI47 SI47 SI47 SI47 SI47 SI47 SI47 SI47 SI47 SI47 SI47 SI47 SI47 SI47 SI47 SI47 SI47 SI47 SI47 SI47 SI47 SI47 SI47 SI47 SI47 SI47 SI47 SI47 SI47 SI47 SI47 SI47 SI47 SI47 SI47 SI47 SI47 SI47 SI47 SI47 SI47 SI47 SI47 SI47 SI47 SI47 SI47 SI47 SI47 SI47 SI47                                                 IF66 IF66 IF66 IF66 IF66 IF66 IF66 IF66 IF66 IF66 IF66 IF66 IF66 IF66 IF66 IF66 IF66 IF66 IF66 IF66 IF66 IF66 IF66 IF66 F66 F66 F66 F66 F66 F66 GF66 GF66 GF66 GF66 GF66 GF66 GF66 GF66 GF66 GF66 GF66 GF66 GF66 GF66 GF66 GF66 GF66 GF66 GF66 GF66 GF66 GF66 GF66 GF66 F66 F66 F66 F66 F66 F66 IF66 IF66 IF66 IF66 IF66 IF66 IF66 IF66 IF66 IF66 IF66 IF66 IF66 IF66 IF66 IF66 IF66 IF66 IF66 IF66 IF66 IF66 IF66 IF66 F66 F66 F66 F66 F66 F66 GF66 GF66 GF66 GF66 GF66 GF66 GF66 GF66 GF66 GF66 GF66 GF66 GF66 GF66 GF66 GF66 GF66 GF66 GF66 GF66 GF66 GF66 GF66 GF66 F66 F66 F66 F66 F66 F66 IF66 IF66 IF66 IF66 IF66 IF66 IF66 IF66 IF66 IF66 IF66 IF66 IF66 IF66 IF66 IF66 IF66 IF66 IF66 IF66 IF66 IF66 IF66 IF66 F66 F66 F66 F66 F66 F66 GF66 GF66 GF66 GF66 GF66 GF66 GF66 GF66 GF66 GF66 GF66 GF66 GF66 GF66 GF66 GF66 GF66 GF66 GF66 GF66 GF66 GF66 GF66 GF66 F66 F66 F66 F66 F66 F66 IF66 IF66 IF66 IF66 IF66 IF66 IF66 IF66 IF66 IF66 IF66 IF66 IF6 IF6 IF6 IF6 IF6 IF6 IF6 IF6 IF6 IF6 IF6 IF6 F6 F6 F6 F6 F6 F6 GF6 GF6 GF6 GF6 GF6 GF6 GF6 GF6 GF6 GF6 GF6 GF6 GF6 GF6 GF6 GF6 GF6 GF6 GF6 GF6 GF6 GF6 GF6 GF6 F6 F6 F6 F6 F6 F6 IF6* IF6* IF6* IF6* IF6* IF6* IF6* IF6* IF6* IF6* IF6* IF6* IF6* IF6* IF6* IF6* IF6* IF6* IF6* IF6* IF6* IF6* IF6* IF6* F6* F6* F6* F6* F6* F6* GF6* GF6* GF6* GF6* GF6* GF6* GF6* GF6* GF6* GF6* GF6* GF6* GF6* GF6* GF6* GF6* GF6* GF6* GF6* GF6* GF6* GF6* GF6* GF6* F6* F6* F6* F6* F6* F6* IF6* IF6* IF6* IF6* IF6* IF6* IF6* IF6* IF6* IF6* IF6* IF6* IF6* IF6* IF6* IF6* IF6* IF6* IF6* IF6* IF6* IF6* IF6* IF6* F6* F6* F6* F6* F6* F6* GF6* GF6* GF6* GF6* GF6* GF6* GF6* GF6* GF6* GF6* GF6* GF6* GF6* GF6* GF6* GF6* GF6* GF6* GF6* GF6* GF6* GF6* GF6* GF6* F6* F6* F6* F6* F6* F6* FG6* FG6* FG6* FG6* FG6* FG6* FG6* FG6* FG6* FG6* FG6* FG6* FG6* FG6* FG6* FG6* FG6* FG6* FG6* FG6* FG6* FG6* FG6* FG6* G* G* G* G* G* G* G* G* G* G* G* G* G* G* G* G* G* G* G* G* G* G* G* G* G* G* G* G* G* G* G* G* G* G* G* G* G* G* G* G* G* G* G* G* G* G* G* G* G G G G G G G G G G G G G G G G G G G G G G G G                         G/ G/ G/ G/ G/ G/ G/ G/ G/ G/ G/ G/ G/ G/ G/ G/ G/ G/ G/ G/ G/ G/ G/ G/ G/ G/ G/ G/ G/ G/ G/ G/ G/ G/ G/ G/ G/ G/ G/ G/ G/ G/ G/ G/ G/ G/ G/ G/ G/ G/ G/ G/ G/ G/ G/ G/ G/ G/ G/ G/ G/ G/ G/ G/ G/ G/ G/ G/ G/ G/ G/ G/ G/ G/ G/ G/ G/ G/ G/ G/ G/ G/ G/ G/ G/ G/ G/ G/ G/ G/ G/ G/ G/ G/ G/ G/ G/ G/ G/ G/ G/ G/ G/ G/ G/ G/ G/ G/ G/ G/ G/ G/ G/ G/ G/ G/ G/ G/ G/ G/ G/ G/ G/ G/ G/ G/ G/ G/ G/ G/ G/ G/ G/ G/ G/ G/ G/ G/ G/ G/ G/ G/ G/ G/ G/ G/ G/ G/ G/ G/ G/ G/ G/ G/ G/ G/ G/ G/ G/ G/ G/ G/ G/ G/ G/ G/ G/ G/ G/ G/ G/ G/ G/ G/ G/ G/ G/ G/ G/ G/ G/ G/ G/ G/ G/ G/ G/ G/ G/ G/ G/ G/ G/ G/ G/ G/ G/ G/ G/ G/ G/ G/ G/ G/ G/ G/ G/ G/ G/ G/ G/ G/ G/ G/ G/ G/ G/ G/ G/ G/ G/ G/ G/ G/ G/ G/ G/ G/ G/ G/ G/ G/ G/ G/ G/ G/ G/ G/ G/ G/ G3/ G3/ G3/ G3/ G3/ G3/ G3/ G3/ G3/ G3/ G3/ G3/ G3/ G3/ G3/ G3/ G3/ G3/ G3/ G3/ G3/ G3/ G3/ G3/ G3/ G3/ G3/ G3/ G3/ G3/ G3/ G3/ G3/ G3/ G3/ G3/ G3/ G3/ G3/ G3/ G3/ G3/ G3/ G3/ G3/ G3/ G3/ G3/ G3/ G3/ G3/ G3/ G3/ G3/ G3/ G3/ G3/ G3/ G3/ G3/ G3/ G3/ G3/ G3/ G3/ G3/ G3/ G3/ G3/ G3/ G3/ G3/ G3/ G3/ G3/ G3/ G3/ G3/ G3/ G3/ G3/ G3/ G3/ G3/ G3/ G3/ G3/ G3/ G3/ G3/ G3/ G3/ G3/ G3/ G3/ G3/ G3/ G3/ G3/ G3/ G3/ G3/ G3/ G3/ G3/ G3/ G3/ G3/ G3/ G3/ G3/ G3/ G3/ G3/ G3/ G3/ G3/ G3/ G3/ G3/ G3/ G3/ G3/ G3/ G3/ G3/ G3/ G3/ G3/ G3/ G3/ G3/ G3/ G3/ G3/ G3/ G3/ G3/ G3/ G3/ G3/ G3/ G3/ G3/ G3/ G3/ G3/ G3/ G3/ G3/ G3/ G3/ G3/ G3/ G3/ G3/ G3/ G3/ G3/ G3/ G3/ G3/ G3/ G3/ G3/ G3/ G3/ G3/ G3/ G3/ G3/ G3/ G3/ G3/ G3/ G3/ G3/ G3/ G3/ G3/ G3/ G3/ G3/ G3/ G3/ G3/ G3/ G3/ G3/ G3/ G3/ G3/ G/ G/ G/ G/ G/ G/ G/ G/ G/ G/ G/ G/ G/ G/ G/ G/ G/ G/ G/ G/ G/ G/ G/ G/ G/ G/ G/ G/ G/ G/ G/ G/ G/ G/ G/ G/ G/ G/ G/ G/ G/ G/ G/ G/ G/ G/ G/ G/ G/6 G/6 G/6 G/6 G/6 G/6 G/6 G/6 G/6 G/6 G/6 G/6 G/6 G/6 G/6 G/6 G/6 G/6 G/6 G/6 G/6 G/6 G/6 G/6 G/6 G/6 G/6 G/6 G/6 G/6 G/6 G/6 G/6 G/6 G/6 G/6 G/6 G/6 G/6 G/6 G/6 G/6 G/6 G/6 G/6 G/6 G/6 G/6 G/6 G/6 G/6 G/6 G/6 G/6 G/6 G/6 G/6 G/6 G/6 G/6 G/6 G/6 G/6 G/6 G/6 G/6 G/6 G/6 G/6 G/6 G/6 G/6 G/6 G/6 G/6 G/6 G/6 G/6 G/6 G/6 G/6 G/6 G/6 G/6 G/6 G/6 G/6 G/6 G/6 G/6 G/6 G/6 G/6 G/6 G/6 G/6 G6 G6 G6 G6 G6 G6 G6 G6 G6 G6 G6 G6 G6 G6 G6 G6 G6 G6 G6 G6 G6 G6 G6 G6 G6 G6 G6 G6 G6 G6 G6 G6 G6 G6 G6 G6 G6 G6 G6 G6 G6 G6 G6 G6 G6 G6 G6 G6 G6 G6 G6 G6 G6 G6 G6 G6 G6 G6 G6 G6 G6 G6 G6 G6 G6 G6 G6 G6 G6 G6 G6 G6 G6 G6 G6 G6 G6 G6 G6 G6 G6 G6 G6 G6 G6 G6 G6 G6 G6 G6 G6 G6 G6 G6 G6 G6 G G G G G G G G G G G G G G G G G G G G G G G G G G G G G G G G G G G G G G G G G G G G G G G G ?GB/; ?GB/; ?GB/; ?GB/; ?GB/; ?GB/; ?GB/; ?GB/; ?GB/; ?GB/; ?GB/; ?GB/; ?GB/; ?GB/; ?GB/; ?GB/; ?GB/; ?GB/; ?GB/; ?GB/; ?GB/; ?GB/; ?GB/; ?GB/; ?GB/; ?GB/; ?GB/; ?GB/; ?GB/; ?GB/; ?GB/; ?GB/; ?GB/; ?GB/; ?GB/; ?GB/; ?GB/; ?GB/; ?GB/; ?GB/; ?GB/; ?GB/; ?GB/; ?GB/; ?GB/; ?GB/; ?GB/; ?GB/; ?GB/; ?GB/; ?GB/; ?GB/; ?GB/; ?GB/; ?GB/; ?GB/; ?GB/; ?GB/; ?GB/; ?GB/; ?GB/; ?GB/; ?GB/; ?GB/; ?GB/; ?GB/; ?GB/; ?GB/; ?GB/; ?GB/; ?GB/; ?GB/; ?GB/; ?GB/; ?GB/; ?GB/; ?GB/; ?GB/; ?GB/; ?GB/; ?GB/; ?GB/; ?GB/; ?GB/; ?GB/; ?GB/; ?GB/; ?GB/; ?GB/; ?GB/; ?GB/; ?GB/; ?GB/; ?GB/; ?GB/; ?GB/; ?GB/; ?GB/; ?GB/; ?GB/; ?GB/; ?GB/; ?GB/; ?GB/; ?GB/; ?GB/; ?GB/; ?GB/; ?GB/; ?GB/; ?GB/; ?GB/; ?GB/; ?GB/; ?GB/; ?GB/; ?GB/; ?GB/; ?GB/; ?GB/; ?GB/; ?GB/; ?GB/; ?GB/; ?GB/; ?GB/; ?GB/; ?GB/; ?GB/; ?GB/; ?GB/; ?GB/; ?GB/; ?GB/; ?GB/; ?GB/; ?GB/; ?GB/; ?GB/; ?GB/; ?GB/; ?GB/; ?GB/; ?GB/; ?GB/; ?GB/; ?GB/; ?GB/; ?GB/; ?GB/; ?GB/; ?GB/; ?GB/; ?GB/; ?GB/; ?GB/; ?GB/; ?GB/; ?GB/; ?GB/; ?GB/; ?GB/; ?GB/; ?GB/; ?GB/; ?GB/; ?GB/; ?GB/; ?GB/; ?GB/; ?GB/; ?GB/; ?GB/; ?GB/; ?GB/; ?GB/; ?GB/; ?GB/; ?GB/; ?GB/; ?GB/; ?GB/; ?GB/; ?GB/; ?GB/; ?GB/; ?GB/; ?GB/; ?GB/; ?GB/; ?GB/; ?GB/; ?GB/; ?GB/; ?GB/; ?GB/; ?GB/; ?GB/; ?GB/; ?GB/; ?GB/; ?GB/; ?GB/; ?GB/; ?GB/; ?GB/; ?GB/; ?GB/; ?GB/; ?GB/; ?GB/; ?GB/; ?GB/; ?GB/; ?GB/; ?GB/; ?GB/; ?GB/; ?GB/; ?GB/; ?GB/; ?GB/; ?GB/; ?GB/; ?GB/; ?GB/; ?GB/; ?GB/; ?GB/; ?GB/; ?GB/; ?GB/; ?GB/; ?GB/; ?GB/; ?GB/; ?GB/; ?GB/; ?GB/; ?GB/; ?GB/; ?GB/; ?GB/; ?GB/; ?GB/; ?GB/; ?GB/; ?GB/; ?GB/; ?GB/; ?GB/; ?GB/; ?GB/; ?GB/; ?GB/; ?GB/; ?GB/; ?GB/; ?GB/; ?GB/; ?GB/; ?GB/; ?GB/; ?GB/; ?GB/; ?GB/; ?GB/; ?GB/; ?GB/; ?GB/; ?GB/; ?GB/; ?GB/; ?GB/; ?GB/; ?GB/; ?GB/; ?GB/; ?GB/; ?GB/; ?GB/; ?GB/; ?GB/; ?GB/; ?GB/; ?GB/; ?GB/; ?GB/; ?GB/; ?GB/; ?GB/; ?GB/; ?GB/; ?GB/; ?GB/; ?GB/; ?GB/; ?GB/; ?GB/; ?GB/; ?GB/; ?GB/; ?GB/; ?GB/; ?GB/; ?GB/; ?GB/; ?GB/; ?GB/; ?GB/; ?GB/; ?GB/; ?GB/; ?GB/; ?GB/; ?GB/; ?GB/; ?GB/; ?GB/; ?GB/; ?GB/; ?GB/; ?GB/; ?GB/; ?GB/; ?GB/; ?GB/; ?GB/; ?GB/; ?GB/; ?GB/; ?GB/; ?GB/; ?GB/; ?GB/; ?GB/; ?GB/; ?GB/; ?GB/; ?GB/; ?GB/; ?GB/; ?GB/; ?GB/; ?GB/; ?GB/; ?GB/; ?GB/; ?GB/; ?GB/; ?GB/; ?GB/; ?GB/; ?GB/; ?GB/; ?GB/; ?GB/; ?GB/; ?GB/; ?GB/; ?GB/; ?GB/; ?GB/; ?GB/; ?GB/; ?GB/; ?GB/; ?GB/; ?GB/; ?GB/; ?GB/; ?GB/; ?GB/; ?GB/; ?GB/; ?GB/; ?GB/; ?GB/; ?GB/; ?GB/; ?GB/; ?GB/; ?GB/; ?GB/;                                                                                                                                                                                                                         N N N N N N N N N N N N N N N N N N N N N N N N N N N N N N N N N N N N N N N N N N N N N N N N N N N N N N N N N N N N N N N N N N N N N N N N N N N N N N N N N N N N N N N N N N N N N N N N                         KNG; KNG; KNG; KNG; KNG; KNG; KNG; KNG; KNG; KNG; KNG; KNG; KNG; KNG; KNG; KNG; KNG; KNG; KNG; KNG; KNG; KNG; KNG; KNG; KNG; KNG; KNG; KNG; KNG; KNG; KNG; KNG; KNG; KNG; KNG; KNG; KNG; KNG; KNG; KNG; KNG; KNG; KNG; KNG; KNG; KNG; KNG; KNG; KNG; KNG; KNG; KNG; KNG; KNG; KNG; KNG; KNG; KNG; KNG; KNG; KNG; KNG; KNG; KNG; KNG; KNG; KNG; KNG; KNG; KNG; KNG; KNG; KNG; KNG; KNG; KNG; KNG; KNG; KNG; KNG; KNG; KNG; KNG; KNG; KNG; KNG; KNG; KNG; KNG; KNG; KNG; KNG; KNG; KNG; KNG; KNG; KNG; KNG; KNG; KNG; KNG; KNG; KNG; KNG; KNG; KNG; KNG; KNG; KNG; KNG; KNG; KNG; KNG; KNG; KNG; KNG; KNG; KNG; KNG; KNG; KNG; KNG; KNG; KNG; KNG; KNG; KNG; KNG; KNG; KNG; KNG; KNG; KNG; KNG; KNG; KNG; KNG; KNG; KNG; KNG; KNG; KNG; KNG; KNG; KNG; KNG; KNG; KNG; KNG; KNG; KNG; KNG; KNG; KNG; KNG; KNG; KNG; KNG; KNG; KNG; KNG; KNG; KNG; KNG; KNG; KNG; KNG; KNG; KNG; KNG; KNG; KNG; KNG; KNG; KNG; KNG; KNG; KNG; KNG; KNG; KNG; KNG; KNG; KNG; KNG; KNG; KNG; KNG; KNG; KNG; KNG; KNG; ; ; ; ; ; ; ; ; ; ; ; ; ; ; ; ; ; ; ; ; ; ; ; ; ; ; ; ; ; ; ; ; ; ; ; ; ; ; ; ; ; ; ; ; ; ; ; ; L; L; L; L; L; L; L; L; L; L; L; L; L; L; L; L; L; L; L; L; L; L; L; L; L; L; L; L; L; L; L; L; L; L; L; L; L; L; L; L; L; L; L; L; L; L; L; L; L L L L L L L L L L L L L L L L L L L L L L L L L L L L L L L L L L L L L L L L L L L L L L L L                         K/ K/ K/ K/ K/ K/ K/ K/ K/ K/ K/ K/ K/ K/ K/ K/ K/ K/ K/ K/ K/ K/ K/ K/ K/ K/ K/ K/ K/ K/ K/ K/ K/ K/ K/ K/ K/ K/ K/ K/ K/ K/ K/ K/ K/ K/ K/ K/ K/ K/ K/ K/ K/ K/ K/ K/ K/ K/ K/ K/ K/ K/ K/ K/ K/ K/ K/ K/ K/ K/ K/ K/ K/ K/ K/ K/ K/ K/ K/ K/ K/ K/ K/ K/ K/ K/ K/ K/ K/ K/ K/ K/ K/ K/ K/ K/                         I1 I1 I1 I1 I1 I1 I1 I1 I1 I1 I1 I1 I1 I1 I1 I1 I1 I1 I1 I1 I1 I1 I1 I1 I1 I1 I1 I1 I1 I1 I1 I1 I1 I1 I1 I1 I1 I1 I1 I1 I1 I1 I1 I1 I1 I1 I1 I1 I1 I1 I1 I1 I1 I1 I1 I1 I1 I1 I1 I1 I1 I1 I1 I1 I1 I1 I1 I1 I1 I1 I1 I1 I1 I1 I1 I1 I1 I1 I1 I1 I1 I1 I1 I1 I1 I1 I1 I1 I1 I1 I1 I1 I1 I1 I1 I1                         G3 G3 G3 G3 G3 G3 G3 G3 G3 G3 G3 G3 G3 G3 G3 G3 G3 G3 G3 G3 G3 G3 G3 G3 G3 G3 G3 G3 G3 G3 G3 G3 G3 G3 G3 G3 G3 G3 G3 G3 G3 G3 G3 G3 G3 G3 G3 G3 G3 G3 G3 G3 G3 G3 G3 G3 G3 G3 G3 G3 G3 G3 G3 G3 G3 G3 G3 G3 G3 G3 G3 G3 G3 G3 G3 G3 G3 G3 G3 G3 G3 G3 G3 G3 G3 G3 G3 G3 G3 G3 G3 G3 G3 G3 G3 G3                         I4 I4 I4 I4 I4 I4 I4 I4 I4 I4 I4 I4 I4 I4 I4 I4 I4 I4 I4 I4 I4 I4 I4 I4 I4 I4 I4 I4 I4 I4 I4 I4 I4 I4 I4 I4 I4 I4 I4 I4 I4 I4 I4 I4 I4 I4 I4 I4 I4 I4 I4 I4 I4 I4 I4 I4 I4 I4 I4 I4 I4 I4 I4 I4 I4 I4 I4 I4 I4 I4 I4 I4 I4 I4 I4 I4 I4 I4 I4 I4 I4 I4 I4 I4 I4 I4 I4 I4 I4 I4 I4 I4 I4 I4 I4 I4                         K6 K6 K6 K6 K6 K6 K6 K6 K6 K6 K6 K6 K6 K6 K6 K6 K6 K6 K6 K6 K6 K6 K6 K6 K6 K6 K6 K6 K6 K6 K6 K6 K6 K6 K6 K6 K6 K6 K6 K6 K6 K6 K6 K6 K6 K6 K6 K6 K6 K6 K6 K6 K6 K6 K6 K6 K6 K6 K6 K6 K6 K6 K6 K6 K6 K6 K6 K6 K6 K6 K6 K6 K6 K6 K6 K6 K6 K6 K6 K6 K6 K6 K6 K6 K6 K6 K6 K6 K6 K6 K6 K6 K6 K6 K6 K6                         L7 L7 L7 L7 L7 L7 L7 L7 L7 L7 L7 L7 L7 L7 L7 L7 L7 L7 L7 L7 L7 L7 L7 L7 L7 L7 L7 L7 L7 L7 L7 L7 L7 L7 L7 L7 L7 L7 L7 L7 L7 L7 L7 L7 L7 L7 L7 L7 L7 L7 L7 L7 L7 L7 L7 L7 L7 L7 L7 L7 L7 L7 L7 L7 L7 L7 L7 L7 L7 L7 L7 L7 L7 L7 L7 L7 L7 L7 L7 L7 L7 L7 L7 L7 L7 L7 L7 L7 L7 L7 L7 L7 L7 L7 L7 L7                         N9 N9 N9 N9 N9 N9 N9 N9 N9 N9 N9 N9 N9 N9 N9 N9 N9 N9 N9 N9 N9 N9 N9 N9 N9 N9 N9 N9 N9 N9 N9 N9 N9 N9 N9 N9 N9 N9 N9 N9 N9 N9 N9 N9 N9 N9 N9 N9 N9 N9 N9 N9 N9 N9 N9 N9 N9 N9 N9 N9 N9 N9 N9 N9 N9 N9 N9 N9 N9 N9 N9 N9 N9 N9 N9 N9 N9 N9 N9 N9 N9 N9 N9 N9 N9 N9 N9 N9 N9 N9 N9 N9 N9 N9 N9 N9 9 9 9 9 9 9 9 9 9 9 9 9 9 9 9 9 9 9 9 9 9 9 9 9 O93 O93 O93 O93 O93 O93 O93 O93 O93 O93 O93 O93 O93 O93 O93 O93 O93 O93 O93 O93 O93 O93 O93 O93 93 93 93 93 93 93 N93 N93 N93 N93 N93 N93 N93 N93 N93 N93 N93 N93 N93 N93 N93 N93 N93 N93 N93 N93 N93 N93 N93 N93 93 93 93 93 93 93 O93 O93 O93 O93 O93 O93 O93 O93 O93 O93 O93 O93 O93 O93 O93 O93 O93 O93 O93 O93 O93 O93 O93 O93 93 93 93 93 93 93 N93 N93 N93 N93 N93 N93 N93 N93 N93 N93 N93 N93 N93 N93 N93 N93 N93 N93 N93 N93 N93 N93 N93 N93 93 93 93 93 93 93 O93 O93 O93 O93 O93 O93 O93 O93 O93 O93 O93 O93 O93 O93 O93 O93 O93 O93 O93 O93 O93 O93 O93 O93 93 93 93 93 93 93 N93 N93 N93 N93 N93 N93 N93 N93 N93 N93 N93 N93 N93 N93 N93 N93 N93 N93 N93 N93 N93 N93 N93 N93 93 93 93 93 93 93 L93 L93 L93 L93 L93 L93 L93 L93 L93 L93 L93 L93 L L L L L L L L L L L L       N N N N N N N N N N N N N N N N N N N N N N N N       G4 G4 G4 G4 G4 G4 G4 G4 G4 G4 G4 G4 G4 G4 G4 G4 G4 G4 G4 G4 G4 G4 G4 G4 G4 G4 G4 G4 G4 G4 LG4 LG4 LG4 LG4 LG4 LG4 LG4 LG4 LG4 LG4 LG4 LG4 LG4 LG4 LG4 LG4 LG4 LG4 LG4 LG4 LG4 LG4 LG4 LG4 LG4 LG4 LG4 LG4 LG4 LG4 OLG4 OLG4 OLG4 OLG4 OLG4 OLG4 OLG4 OLG4 OLG4 OLG4 OLG4 OLG4 OLG4 OLG4 OLG4 OLG4 OLG4 OLG4 OLG4 OLG4 OLG4 OLG4 OLG4 OLG4 OLG4 OLG4 OLG4 OLG4 OLG4 OLG4 OLG4 OLG4 OLG4 OLG4 OLG4 OLG4 OLG OLG OLG OLG OLG OLG OLG OLG OLG OLG OLG OLG OLG OLG OLG OLG OLG OLG OLG OLG OLG OLG OLG OLG OLG6 OLG6 OLG6 OLG6 OLG6 OLG6 OLG6 OLG6 OLG6 OLG6 OLG6 OLG6 OLG6 OLG6 OLG6 OLG6 OLG6 OLG6 OLG6 OLG6 OLG6 OLG6 OLG6 OLG6 OLG6 OLG6 OLG6 OLG6 OLG6 OLG6 OLG6 OLG6 OLG6 OLG6 OLG6 OLG6 OLG6 OLG6 OLG6 OLG6 OLG6 OLG6 OLG6 OLG6 OLG6 OLG6 OLG6 OLG6 OLG6 OLG6 OLG6 OLG6 OLG6 OLG6 OLG6 OLG6 OLG6 OLG6 OLG6 OLG6 OLG6 OLG6 OLG6 OLG6 OLG6 OLG6 OLG6 OLG6 OLG6 OLG6 OLG6 OLG6 OLG6 OLG6 OLG6 OLG6 OLG6 OLG6 OLG6 OLG6 OLG6 OLG6 OLG6 OLG6 OLG6 OLG6 OLG6 OLG6 OLG6 OLG6 OLG6 OLG6 OLG6 OLG6 OLG6 OLG6 OLG OLG OLG OLG OLG OLG OLG OLG OLG OLG OLG OLG OLG OLG OLG OLG OLG OLG OLG OLG OLG OLG OLG OLG OLG4 OLG4 OLG4 OLG4 OLG4 OLG4 OLG4 OLG4 OLG4 OLG4 OLG4 OLG4 OLG4 OLG4 OLG4 OLG4 OLG4 OLG4 OLG4 OLG4 OLG4 OLG4 OLG4 OLG4 OLG4 OLG4 OLG4 OLG4 OLG4 OLG4 OLG4 OLG4 OLG4 OLG4 OLG4 OLG4 OLG4 OLG4 OLG4 OLG4 OLG4 OLG4 OLG4 OLG4 OLG4 OLG4 OLG4 OLG4 OLG4 OLG4 OLG4 OLG4 OLG4 OLG4 OLG4 OLG4 OLG4 OLG4 OLG4 OLG4 OLG4 OLG4 OLG4 OLG4 OLG4 OLG4 OLG4 OLG4 OLG4 OLG4 OLG4 OLG4 G4 G4 G4 G4 G4 G4 G4 G4 G4 G4 G4 G4 G4 G4 G4 G4 G4 G4 G4 G4 G4 G4 G4 G4 G G G G G G G G G G G G G G G G G G G G G G G G G@2 G@2 G@2 G@2 G@2 G@2 G@2 G@2 G@2 G@2 G@2 G@2 G@2 G@2 G@2 G@2 G@2 G@2 G@2 G@2 G@2 G@2 G@2 G@2 G@2 G@2 G@2 G@2 G@2 G@2 G@2 G@2 G@2 G@2 G@2 G@2 G@2 G@2 G@2 G@2 G@2 G@2 G@2 G@2 G@2 G@2 G@2 G@2 G@2 G@2 G@2 G@2 G@2 G@2 G@2 G@2 G@2 G@2 G@2 G@2 G@2 G@2 G@2 G@2 G@2 G@2 G@2 G@2 G@2 G@2 G@2 G@2 G@2 G@2 G@2 G@2 G@2 G@2 G@2 G@2 G@2 G@2 G@2 G@2 G@2 G@2 G@2 G@2 G@2 G@2 @2 @2 @2 @2 @2 @2                         B0 B0 B0 B0 B0 B0 B0 B0 B0 B0 B0 B0 B0 B0 B0 B0 B0 B0 B0 B0 B0 B0 B0 B0 B0 B0 B0 B0 B0 B0 B0 B0 B0 B0 B0 B0 B0 B0 B0 B0 B0 B0 B0 B0 B0 B0 B0 B0 B0 B0 B0 B0 B0 B0 B0 B0 B0 B0 B0 B0 B0 B0 B0 B0 B0 B0 B0 B0 B0 B0 B0 B0 B0 B0 B0 B0 B0 B0 B0 B0 B0 B0 B0 B0 B0 B0 B0 B0 B0 B0 B0 B0 B0 B0 B0 B0                         D/ D/ D/ D/ D/ D/ D/ D/ D/ D/ D/ D/ D/ D/ D/ D/ D/ D/ D/ D/ D/ D/ D/ D/ D/ D/ D/ D/ D/ D/ D/ D/ D/ D/ D/ D/ D/ D/ D/ D/ D/ D/ D/ D/ D/ D/ D/ D/ D/ D/ D/ D/ D/ D/ D/ D/ D/ D/ D/ D/ D/ D/ D/ D/ D/ D/ D/ D/ D/ D/ D/ D/ D/ D/ D/ D/ D/ D/ D/ D/ D/ D/ D/ D/ D/ D/ D/ D/ D/ D/ D/ D/ D/ D/ D/ D/                         E- E- E- E- E- E- E- E- E- E- E- E- E- E- E- E- E- E- E- E- E- E- E- E- E- E- E- E- E- E- E- E- E- E- E- E- E- E- E- E- E- E- E- E- E- E- E- E- E- E- E- E- E- E- E- E- E- E- E- E- E- E- E- E- E- E- E- E- E- E- E- E- E- E- E- E- E- E- E- E- E- E- E- E- E- E- E- E- E- E- E- E- E- E- E- E-                         G, G, G, G, G, G, G, G, G, G, G, G, G, G, G, G, G, G, G, G, G, G, G, G, G, G, G, G, G, G, G, G, G, G, G, G, G, G, G, G, G, G, G, G, G, G, G, G, G, G, G, G, G, G, G, G, G, G, G, G, G, G, G, G, G, G, G, G, G, G, G, G, G, G, G, G, G, G, G, G, G, G, G, G, G, G, G, G, G, G, G, G, G, G, G, G,                         H* H* H* H* H* H* H* H* H* H* H* H* H* H* H* H* H* H* H* H* H* H* H* H* H* H* H* H* H* H* H* H* H* H* H* H* H* H* H* H* H* H* H* H* H* H* H* H* H* H* H* H* H* H* H* H* H* H* H* H* H* H* H* H* H* H* H* H* H* H* H* H* H* H* H* H* H* H* H* H* H* H* H* H* H* H* H* H* H* H* H* H* H* H* H* H*                         J( J( J( J( J( J( J( J( J( J( J( J( J( J( J( J( J( J( J( J( J( J( J( J( J( J( J( J( J( J( J( J( J( J( J( J( J( J( J( J( J( J( J( J( J( J( J( J( J( J( J( J( J( J( J( J( J( J( J( J( J( J( J( J( J( J( J( J( J( J( J( J( J( J( J( J( J( J( J( J( J( J( J( J( J( J( J( J( J( J( J( J( J( J( J( J( J( J( J( J( J( J( J( J( J( J( J( J( J( J( J( J( J( J( J( J( J( J( J( J( JD(4 JD(4 JD(4 JD(4 JD(4 JD(4 JD(4 JD(4 JD(4 JD(4 JD(4 JD(4 JD(4 JD(4 JD(4 JD(4 JD(4 JD(4 JD(4 JD(4 JD(4 JD(4 JD(4 JD(4 JD(4 JD(4 JD(4 JD(4 JD(4 JD(4 JD(4 JD(4 JD(4 JD(4 JD(4 JD(4 JD(4 JD(4 JD(4 JD(4 JD(4 JD(4 JD(4 JD(4 JD(4 JD(4 JD(4 JD(4 JD(4 JD(4 JD(4 JD(4 JD(4 JD(4 JD(4 JD(4 JD(4 JD(4 JD(4 JD(4 JD(4 JD(4 JD(4 JD(4 JD(4 JD(4 JD(4 JD(4 JD(4 JD(4 JD(4 JD(4 JD(4 JD(4 JD(4 JD(4 JD(4 JD(4 JD(4 JD(4 JD(4 JD(4 JD(4 JD(4 JD(4 JD(4 JD(4 JD(4 JD(4 JD(4 JD(4 JD(4 JD(4 JD(4 JD(4 JD(4 D(4 D(4 D(4 D(4 D(4 D(4 D(4 D(4 D(4 D(4 D(4 D(4 D(4 D(4 D(4 D(4 D(4 D(4 D(4 D(4 D(4 D(4 D(4 D(4 DJ(4 DJ(4 DJ(4 DJ(4 DJ(4 DJ(4 DJ(4 DJ(4 DJ(4 DJ(4 DJ(4 DJ(4 DJ(4 DJ(4 DJ(4 DJ(4 DJ(4 DJ(4 DJ(4 DJ(4 DJ(4 DJ(4 DJ(4 DJ(4 DJ(4 DJ(4 DJ(4 DJ(4 DJ(4 DJ(4 DJ(4 DJ(4 DJ(4 DJ(4 DJ(4 DJ(4 DJ(4 DJ(4 DJ(4 DJ(4 DJ(4 DJ(4 DJ(4 DJ(4 DJ(4 DJ(4 DJ(4 DJ(4 DJ(4 DJ(4 DJ(4 DJ(4 DJ(4 DJ(4 DJ(4 DJ(4 DJ(4 DJ(4 DJ(4 DJ(4 DJ(4 DJ(4 DJ(4 DJ(4 DJ(4 DJ(4 DJ(4 DJ(4 DJ(4 DJ(4 DJ(4 DJ(4 J4 J4 J4 J4 J4 J4 J4 J4 J4 J4 J4 J4 J4 J4 J4 J4 J4 J4 J4 J4 J4 J4 J4 J4 4 4 4 4 4 4 4 4 4 4 4 4 4 4 4 4 4 4 4 4 4 4 4 4 HE4- HE4- HE4- HE4- HE4- HE4- HE4- HE4- HE4- HE4- HE4- HE4- HE4- HE4- HE4- HE4- HE4- HE4- HE4- HE4- HE4- HE4- HE4- HE4- HE4- HE4- HE4- HE4- HE4- HE4- HE4- HE4- HE4- HE4- HE4- HE4- HE4- HE4- HE4- HE4- HE4- HE4- HE4- HE4- HE4- HE4- HE4- HE4- HE4- HE4- HE4- HE4- HE4- HE4- HE4- HE4- HE4- HE4- HE4- HE4- HE4- HE4- HE4- HE4- HE4- HE4- HE4- HE4- HE4- HE4- HE4- HE4- HE4- HE4- HE4- HE4- HE4- HE4- HE4- HE4- HE4- HE4- HE4- HE4- HE4- HE4- HE4- HE4- HE4- HE4- HE4- HE4- HE4- HE4- HE4- HE4- HE- HE- HE- HE- HE- HE- HE- HE- HE- HE- HE- HE- HE- HE- HE- HE- HE- HE- HE- HE- HE- HE- HE- HE- HE8- HE8- HE8- HE8- HE8- HE8- HE8- HE8- HE8- HE8- HE8- HE8- HE8- HE8- HE8- HE8- HE8- HE8- HE8- HE8- HE8- HE8- HE8- HE8- HE8- HE8- HE8- HE8- HE8- HE8- HE8- HE8- HE8- HE8- HE8- HE8- HE8- HE8- HE8- HE8- HE8- HE8- HE8- HE8- HE8- HE8- HE8- HE8- HE8- HE8- HE8- HE8- HE8- HE8- HE8- HE8- HE8- HE8- HE8- HE8- HE8- HE8- HE8- HE8- HE8- HE8- HE8- HE8- HE8- HE8- HE8- HE8- HE8- HE8- HE8- HE8- HE8- HE8- HE8- HE8- HE8- HE8- HE8- HE8- HE8- HE8- HE8- HE8- HE8- HE8- HE8- HE8- HE8- HE8- HE8- HE8- HE- HE- HE- HE- HE- HE- HE- HE- HE- HE- HE- HE- HE- HE- HE- HE- HE- HE- HE- HE- HE- HE- HE- HE- HE-9 HE-9 HE-9 HE-9 HE-9 HE-9 HE-9 HE-9 HE-9 HE-9 HE-9 HE-9 HE-9 HE-9 HE-9 HE-9 HE-9 HE-9 HE-9 HE-9 HE-9 HE-9 HE-9 HE-9 HE-9 HE-9 HE-9 HE-9 HE-9 HE-9 HE-9 HE-9 HE-9 HE-9 HE-9 HE-9 HE-9 HE-9 HE-9 HE-9 HE-9 HE-9 HE-9 HE-9 HE-9 HE-9 HE-9 HE-9 E9 E9 E9 E9 E9 E9 E9 E9 E9 E9 E9 E9 E9 E9 E9 E9 E9 E9 E9 E9 E9 E9 E9 E9 E9 E9 E9 E9 E9 E9 E9 E9 E9 E9 E9 E9 E9 E9 E9 E9 E9 E9 E9 E9 E9 E9 E9 E9 E9 E9 E9 E9 E9 E9 E9 E9 E9 E9 E9 E9 E9 E9 E9 E9 E9 E9 E9 E9 E9 E9 E9 E9 JE9/ JE9/ JE9/ JE9/ JE9/ JE9/ JE9/ JE9/ JE9/ JE9/ JE9/ JE9/ JE9/ JE9/ JE9/ JE9/ JE9/ JE9/ JE9/ JE9/ JE9/ JE9/ JE9/ JE9/ JE9/ JE9/ JE9/ JE9/ JE9/ JE9/ JE9/ JE9/ JE9/ JE9/ JE9/ JE9/ JE9/ JE9/ JE9/ JE9/ JE9/ JE9/ JE9/ JE9/ JE9/ JE9/ JE9/ JE9/ JE9/ JE9/ JE9/ JE9/ JE9/ JE9/ JE9/ JE9/ JE9/ JE9/ JE9/ JE9/ JE9/ JE9/ JE9/ JE9/ JE9/ JE9/ JE9/ JE9/ JE9/ JE9/ JE9/ JE9/ JE/ JE/ JE/ JE/ JE/ JE/ JE/ JE/ JE/ JE/ JE/ JE/ JE/ JE/ JE/ JE/ JE/ JE/ JE/ JE/ JE/ JE/ JE/ JE/ E E E E E E E E E E E E E E E E E E E E E E E E LE09 LE09 LE09 LE09 LE09 LE09 LE09 LE09 LE09 LE09 LE09 LE09 LE09 LE09 LE09 LE09 LE09 LE09 LE09 LE09 LE09 LE09 LE09 LE09 LE09 LE09 LE09 LE09 LE09 LE09 LE09 LE09 LE09 LE09 LE09 LE09 LE09 LE09 LE09 LE09 LE09 LE09 LE09 LE09 LE09 LE09 LE09 LE09 LE09 LE09 LE09 LE09 LE09 LE09 LE09 LE09 LE09 LE09 LE09 LE09 LE09 LE09 LE09 LE09 LE09 LE09 LE09 LE09 LE09 LE09 LE09 LE09 LE09 LE09 LE09 LE09 LE09 LE09 LE09 LE09 LE09 LE09 LE09 LE09 LE09 LE09 LE09 LE09 LE09 LE09 LE09 LE09 LE09 LE09 LE09 LE09 E09 E09 E09 E09 E09 E09 E09 E09 E09 E09 E09 E09 E09 E09 E09 E09 E09 E09 E09 E09 E09 E09 E09 E09 JE09 JE09 JE09 JE09 JE09 JE09 JE09 JE09 JE09 JE09 JE09 JE09 JE09 JE09 JE09 JE09 JE09 JE09 JE09 JE09 JE09 JE09 JE09 JE09 JE09 JE09 JE09 JE09 JE09 JE09 JE09 JE09 JE09 JE09 JE09 JE09 JE09 JE09 JE09 JE09 JE09 JE09 JE09 JE09 JE09 JE09 JE09 JE09 JE09 JE09 JE09 JE09 JE09 JE09 JE09 JE09 JE09 JE09 JE09 JE09 JE09 JE09 JE09 JE09 JE09 JE09 JE09 JE09 JE09 JE09 JE09 JE09 JE9 JE9 JE9 JE9 JE9 JE9 JE9 JE9 JE9 JE9 JE9 JE9 JE9 JE9 JE9 JE9 JE9 JE9 JE9 JE9 JE9 JE9 JE9 JE9 E9 E9 E9 E9 E9 E9 E9 E9 E9 E9 E9 E9 E9 E9 E9 E9 E9 E9 E9 E9 E9 E9 E9 E9 EL92 EL92 EL92 EL92 EL92 EL92 EL92 EL92 EL92 EL92 EL92 EL92 EL92 EL92 EL92 EL92 EL92 EL92 EL92 EL92 EL92 EL92 EL92 EL92 EL92 EL92 EL92 EL92 EL92 EL92 EL92 EL92 EL92 EL92 EL92 EL92 EL92 EL92 EL92 EL92 EL92 EL92 EL92 EL92 EL92 EL92 EL92 EL92 L92 L92 L92 L92 L92 L92 L92 L92 L92 L92 L92 L92 L92 L92 L92 L92 L92 L92 L92 L92 L92 L92 L92 L92 L92 L92 L92 L92 L92 L92 L92 L92 L92 L92 L92 L92 L92 L92 L92 L92 L92 L92 L92 L92 L92 L92 L92 L92 92 92 92 92 92 92 92 92 92 92 92 92 92 92 92 92 92 92 92 92 92 92 92 92 M92 M92 M92 M92 M92 M92 M92 M92 M92 M92 M92 M92 M92 M92 M92 M92 M92 M92 M92 M92 M92 M92 M92 M92 M2 M2 M2 M2 M2 M2 M2 M2 M2 M2 M2 M2 M2 M2 M2 M2 M2 M2 M2 M2 M2 M2 M2 M2 M2 M2 M2 M2 M2 M2 M2 M2 M2 M2 M2 M2 M2 M2 M2 M2 M2 M2 M2 M2 M2 M2 M2 M2 M M M M M M M M M M M M M M M M M M M M M M M M                         HD44 HD44 HD44 HD44 HD44 HD44 HD44 HD44 HD44 HD44 HD44 HD44 HD44 HD44 HD44 HD44 HD44 HD44 HD44 HD44 HD44 HD44 HD44 HD44 D44 D44 D44 D44 D44 D44 GD44 GD44 GD44 GD44 GD44 GD44 GD44 GD44 GD44 GD44 GD44 GD44 GD44 GD44 GD44 GD44 GD44 GD44 GD44 GD44 GD44 GD44 GD44 GD44 D44 D44 D44 D44 D44 D44 HD44 HD44 HD44 HD44 HD44 HD44 HD44 HD44 HD44 HD44 HD44 HD44 HD44 HD44 HD44 HD44 HD44 HD44 HD44 HD44 HD44 HD44 HD44 HD44 D44 D44 D44 D44 D44 D44 GD44 GD44 GD44 GD44 GD44 GD44 GD44 GD44 GD44 GD44 GD44 GD44 GD44 GD44 GD44 GD44 GD44 GD44 GD44 GD44 GD44 GD44 GD44 GD44 D44 D44 D44 D44 D44 D44 HD44 HD44 HD44 HD44 HD44 HD44 HD44 HD44 HD44 HD44 HD44 HD44 HD44 HD44 HD44 HD44 HD44 HD44 HD44 HD44 HD44 HD44 HD44 HD44 D44 D44 D44 D44 D44 D44 GD44 GD44 GD44 GD44 GD44 GD44 GD44 GD44 GD44 GD44 GD44 GD44 GD44 GD44 GD44 GD44 GD44 GD44 GD44 GD44 GD44 GD44 GD44 GD44 D44 D44 D44 D44 D44 D44 HD44 HD44 HD44 HD44 HD44 HD44 HD44 HD44 HD44 HD44 HD44 HD44 HD4 HD4 HD4 HD4 HD4 HD4 HD4 HD4 HD4 HD4 HD4 HD4 D4 D4 D4 D4 D4 D4 GD4 GD4 GD4 GD4 GD4 GD4 GD4 GD4 GD4 GD4 GD4 GD4 GD4 GD4 GD4 GD4 GD4 GD4 GD4 GD4 GD4 GD4 GD4 GD4 D4 D4 D4 D4 D4 D4 HD4( HD4( HD4( HD4( HD4( HD4( HD4( HD4( HD4( HD4( HD4( HD4( HD4( HD4( HD4( HD4( HD4( HD4( HD4( HD4( HD4( HD4( HD4( HD4( D4( D4( D4( D4( D4( D4( GD4( GD4( GD4( GD4( GD4( GD4( GD4( GD4( GD4( GD4( GD4( GD4( GD4( GD4( GD4( GD4( GD4( GD4( GD4( GD4( GD4( GD4( GD4( GD4( D4( D4( D4( D4( D4( D4( HD4( HD4( HD4( HD4( HD4( HD4( HD4( HD4( HD4( HD4( HD4( HD4( HD4( HD4( HD4( HD4( HD4( HD4( HD4( HD4( HD4( HD4( HD4( HD4( D4( D4( D4( D4( D4( D4( GD4( GD4( GD4( GD4( GD4( GD4( GD4( GD4( GD4( GD4( GD4( GD4( GD4( GD4( GD4( GD4( GD4( GD4( GD4( GD4( GD4( GD4( GD4( GD4( D4( D4( D4( D4( D4( D4( DE4( DE4( DE4( DE4( DE4( DE4( DE4( DE4( DE4( DE4( DE4( DE4( DE4( DE4( DE4( DE4( DE4( DE4( DE4( DE4( DE4( DE4( DE4( DE4( E( E( E( E( E( E( E( E( E( E( E( E( E( E( E( E( E( E( E( E( E( E( E( E( E( E( E( E( E( E( E( E( E( E( E( E( E( E( E( E( E( E( E( E( E( E( E( E( E E E E E E E E E E E E E E E E E E E E E E E E                         E<@- E<@- E<@- E<@- E<@- E<@- E<@- E<@- E<@- E<@- E<@- E<@- E<@- E<@- E<@- E<@- E<@- E<@- E<@- E<@- E<@- E<@- E<@- E<@- E<@- E<@- E<@- E<@- E<@- E<@- E<@- E<@- E<@- E<@- E<@- E<@- E<@- E<@- E<@- E<@- E<@- E<@- E<@- E<@- E<@- E<@- E<@- E<@- E<@- E<@- E<@- E<@- E<@- E<@- E<@- E<@- E<@- E<@- E<@- E<@- E<@- E<@- E<@- E<@- E<@- E<@- E<@- E<@- E<@- E<@- E<@- E<@- E<@- E<@- E<@- E<@- E<@- E<@- E<@- E<@- E<@- E<@- E<@- E<@- E<@- E<@- E<@- E<@- E<@- E<@- E<@- E<@- E<@- E<@- E<@- E<@- E<@- E<@- E<@- E<@- E<@- E<@- E<@- E<@- E<@- E<@- E<@- E<@- E<@- E<@- E<@- E<@- E<@- E<@- E<@- E<@- E<@- E<@- E<@- E<@- E<@- E<@- E<@- E<@- E<@- E<@- E<@- E<@- E<@- E<@- E<@- E<@- E<@- E<@- E<@- E<@- E<@- E<@- E<@- E<@- E<@- E<@- E<@- E<@- E<@- E<@- E<@- E<@- E<@- E<@- E<@- E<@- E<@- E<@- E<@- E<@- E<@- E<@- E<@- E<@- E<@- E<@- E<@- E<@- E<@- E<@- E<@- E<@- E<@- E<@- E<@- E<@- E<@- E<@- E<@- E<@- E<@- E<@- E<@- E<@- E<@- E<@- E<@- E<@- E<@- E<@- E<@- E<@- E<@- E<@- E<@- E<@- E<@ E<@ E<@ E<@ E<@ E<@ E<@ E<@ E<@ E<@ E<@ E<@ E<@ E<@ E<@ E<@ E<@ E<@ E<@ E<@ E<@ E<@ E<@ E<@ E<@ E<@ E<@ E<@ E<@ E<@ E<@ E<@ E<@ E<@ E<@ E<@ E<@ E<@ E<@ E<@ E<@ E<@ E<@ E<@ E<@ E<@ E<@ E<@ E<@9 E<@9 E<@9 E<@9 E<@9 E<@9 E<@9 E<@9 E<@9 E<@9 E<@9 E<@9 E<@9 E<@9 E<@9 E<@9 E<@9 E<@9 E<@9 E<@9 E<@9 E<@9 E<@9 E<@9 E<@9 E<@9 E<@9 E<@9 E<@9 E<@9 E<@9 E<@9 E<@9 E<@9 E<@9 E<@9 E<@9 E<@9 E<@9 E<@9 E<@9 E<@9 E<@9 E<@9 E<@9 E<@9 E<@9 E<@9 9 9 9 9 9 9 9 9 9 9 9 9 9 9 9 9 9 9 9 9 9 9 9 9 9 9 9 9 9 9 9 9 9 9 9 9 9 9 9 9 9 9 9 9 9 9 9 9 9 9 9 9 9 9 9 9 9 9 9 9 9 9 9 9 9 9 9 9 9 9 9 9 G9 G9 G9 G9 G9 G9 G9 G9 G9 G9 G9 G9 G9 G9 G9 G9 G9 G9 G9 G9 G9 G9 G9 G9 G9 G9 G9 G9 G9 G9 G9 G9 G9 G9 G9 G9 G9 G9 G9 G9 G9 G9 G9 G9 G9 G9 G9 G9 G9 G9 G9 G9 G9 G9 G9 G9 G9 G9 G9 G9 G9 G9 G9 G9 G9 G9 G9 G9 G9 G9 G9 G9 G G G G G G G G G G G G G G G G G G G G G G G G                         I7 I7 I7 I7 I7 I7 I7 I7 I7 I7 I7 I7 I7 I7 I7 I7 I7 I7 I7 I7 I7 I7 I7 I7 I7 I7 I7 I7 I7 I7 I7 I7 I7 I7 I7 I7 I7 I7 I7 I7 I7 I7 I7 I7 I7 I7 I7 I7 I7 I7 I7 I7 I7 I7 I7 I7 I7 I7 I7 I7 I7 I7 I7 I7 I7 I7 I7 I7 I7 I7 I7 I7 I7 I7 I7 I7 I7 I7 I7 I7 I7 I7 I7 I7 I7 I7 I7 I7 I7 I7 I7 I7 I7 I7 I7 I7 7 7 7 7 7 7 7 7 7 7 7 7 7 7 7 7 7 7 7 7 7 7 7 7 J7 J7 J7 J7 J7 J7 J7 J7 J7 J7 J7 J7 J7 J7 J7 J7 J7 J7 J7 J7 J7 J7 J7 J7 J7 J7 J7 J7 J7 J7 J7 J7 J7 J7 J7 J7 J7 J7 J7 J7 J7 J7 J7 J7 J7 J7 J7 J7 J7 J7 J7 J7 J7 J7 J7 J7 J7 J7 J7 J7 J7 J7 J7 J7 J7 J7 J7 J7 J7 J7 J7 J7 J J J J J J J J J J J J J J J J J J J J J J J J                         L6 L6 L6 L6 L6 L6 L6 L6 L6 L6 L6 L6 L6 L6 L6 L6 L6 L6 L6 L6 L6 L6 L6 L6 L6 L6 L6 L6 L6 L6 L6 L6 L6 L6 L6 L6 L6 L6 L6 L6 L6 L6 L6 L6 L6 L6 L6 L6 L6 L6 L6 L6 L6 L6 L6 L6 L6 L6 L6 L6 L6 L6 L6 L6 L6 L6 L6 L6 L6 L6 L6 L6 L6 L6 L6 L6 L6 L6 L6 L6 L6 L6 L6 L6 L6 L6 L6 L6 L6 L6 L6 L6 L6 L6 L6 L6 6 6 6 6 6 6 6 6 6 6 6 6 6 6 6 6 6 6 6 6 6 6 6 6 N6 N6 N6 N6 N6 N6 N6 N6 N6 N6 N6 N6 N6 N6 N6 N6 N6 N6 N6 N6 N6 N6 N6 N6 N6 N6 N6 N6 N6 N6 N6 N6 N6 N6 N6 N6 N6 N6 N6 N6 N6 N6 N6 N6 N6 N6 N6 N6 N6 N6 N6 N6 N6 N6 N6 N6 N6 N6 N6 N6 N6 N6 N6 N6 N6 N6 N6 N6 N6 N6 N6 N6 N N N N N N N N N N N N N N N N N N N N N N N N                         O4 O4 O4 O4 O4 O4 O4 O4 O4 O4 O4 O4 O4 O4 O4 O4 O4 O4 O4 O4 O4 O4 O4 O4 O4 O4 O4 O4 O4 O4 O4 O4 O4 O4 O4 O4 O4 O4 O4 O4 O4 O4 O4 O4 O4 O4 O4 O4 O4 O4 O4 O4 O4 O4 O4 O4 O4 O4 O4 O4 O4 O4 O4 O4 O4 O4 O4 O4 O4 O4 O4 O4 O4 O4 O4 O4 O4 O4 O4 O4 O4 O4 O4 O4 O4 O4 O4 O4 O4 O4 O4 O4 O4 O4 O4 O4 4 4 4 4 4 4 4 4 4 4 4 4 4 4 4 4 4 4 4 4 4 4 4 4 Q4 Q4 Q4 Q4 Q4 Q4 Q4 Q4 Q4 Q4 Q4 Q4 Q4 Q4 Q4 Q4 Q4 Q4 Q4 Q4 Q4 Q4 Q4 Q4 Q4 Q4 Q4 Q4 Q4 Q4 Q4 Q4 Q4 Q4 Q4 Q4 Q4 Q4 Q4 Q4 Q4 Q4 Q4 Q4 Q4 Q4 Q4 Q4 Q4 Q4 Q4 Q4 Q4 Q4 Q4 Q4 Q4 Q4 Q4 Q4 Q4 Q4 Q4 Q4 Q4 Q4 Q4 Q4 Q4 Q4 Q4 Q4 Q Q Q Q Q Q Q Q Q Q Q Q Q Q Q Q Q Q Q Q Q Q Q Q Q Q Q Q Q Q Q Q Q Q Q Q Q Q Q Q Q Q Q Q Q Q Q Q QJH6 QJH6 QJH6 QJH6 QJH6 QJH6 QJH6 QJH6 QJH6 QJH6 QJH6 QJH6 QJH6 QJH6 QJH6 QJH6 QJH6 QJH6 QJH6 QJH6 QJH6 QJH6 QJH6 QJH6 QJH6 QJH6 QJH6 QJH6 QJH6 QJH6 QJH6 QJH6 QJH6 QJH6 QJH6 QJH6 QJH6 QJH6 QJH6 QJH6 QJH6 QJH6 QJH6 QJH6 QJH6 QJH6 QJH6 QJH6 QJH6 QJH6 QJH6 QJH6 QJH6 QJH6 QJH6 QJH6 QJH6 QJH6 QJH6 QJH6 QJH6 QJH6 QJH6 QJH6 QJH6 QJH6 QJH6 QJH6 QJH6 QJH6 QJH6 QJH6 QJH6 QJH6 QJH6 QJH6 QJH6 QJH6 QJH6 QJH6 QJH6 QJH6 QJH6 QJH6 QJH6 QJH6 QJH6 QJH6 QJH6 QJH6 QJH6 QJH6 QJH6 QJH6 QJH6 QJH6 JH6 JH6 JH6 JH6 JH6 JH6 JH6 JH6 JH6 JH6 JH6 JH6 JH6 JH6 JH6 JH6 JH6 JH6 JH6 JH6 JH6 JH6 JH6 JH6 JHQ6 JHQ6 JHQ6 JHQ6 JHQ6 JHQ6 JHQ6 JHQ6 JHQ6 JHQ6 JHQ6 JHQ6 JHQ6 JHQ6 JHQ6 JHQ6 JHQ6 JHQ6 JHQ6 JHQ6 JHQ6 JHQ6 JHQ6 JHQ6 JHQ6 JHQ6 JHQ6 JHQ6 JHQ6 JHQ6 JHQ6 JHQ6 JHQ6 JHQ6 JHQ6 JHQ6 JHQ6 JHQ6 JHQ6 JHQ6 JHQ6 JHQ6 JHQ6 JHQ6 JHQ6 JHQ6 JHQ6 JHQ6 JHQ6 JHQ6 JHQ6 JHQ6 JHQ6 JHQ6 JHQ6 JHQ6 JHQ6 JHQ6 JHQ6 JHQ6 JHQ6 JHQ6 JHQ6 JHQ6 JHQ6 JHQ6 JHQ6 JHQ6 JHQ6 JHQ6 JHQ6 JHQ6 Q Q Q Q Q Q Q Q Q Q Q Q Q Q Q Q Q Q Q Q Q Q Q Q                         S7 S7 S7 S7 S7 S7 S7 S7 S7 S7 S7 S7 S7 S7 S7 S7 S7 S7 S7 S7 S7 S7 S7 S7 S7 S7 S7 S7 S7 S7 S7 S7 S7 S7 S7 S7 S7 S7 S7 S7 S7 S7 S7 S7 S7 S7 S7 S7 S7 S7 S7 S7 S7 S7 S7 S7 S7 S7 S7 S7 S7 S7 S7 S7 S7 S7 S7 S7 S7 S7 S7 S7 S7 S7 S7 S7 S7 S7 S7 S7 S7 S7 S7 S7 S7 S7 S7 S7 S7 S7 S7 S7 S7 S7 S7 S7 7 7 7 7 7 7 7 7 7 7 7 7 7 7 7 7 7 7 7 7 7 7 7 7 T7 T7 T7 T7 T7 T7 T7 T7 T7 T7 T7 T7 T7 T7 T7 T7 T7 T7 T7 T7 T7 T7 T7 T7 T7 T7 T7 T7 T7 T7 T7 T7 T7 T7 T7 T7 T7 T7 T7 T7 T7 T7 T7 T7 T7 T7 T7 T7 T7 T7 T7 T7 T7 T7 T7 T7 T7 T7 T7 T7 T7 T7 T7 T7 T7 T7 T7 T7 T7 T7 T7 T7 T7 T7 T7 T7 T7 T7 T7 T7 T7 T7 T7 T7 T7 T7 T7 T7 T7 T7 T7 T7 T7 T7 T7 T7 7 7 7 7 7 7 7 7 7 7 7 7 7 7 7 7 7 7 7 7 7 7 7 7 S7 S7 S7 S7 S7 S7 S7 S7 S7 S7 S7 S7 S7 S7 S7 S7 S7 S7 S7 S7 S7 S7 S7 S7 S7 S7 S7 S7 S7 S7 S7 S7 S7 S7 S7 S7 S7 S7 S7 S7 S7 S7 S7 S7 S7 S7 S7 S7 S S S S S S S S S S S S S S S S S S S S S S S S S S S S S S S S S S S S S S S S S S S S S S S S                         Q9 Q9 Q9 Q9 Q9 Q9 Q9 Q9 Q9 Q9 Q9 Q9 Q9 Q9 Q9 Q9 Q9 Q9 Q9 Q9 Q9 Q9 Q9 Q9 Q9 Q9 Q9 Q9 Q9 Q9 Q9 Q9 Q9 Q9 Q9 Q9 Q9 Q9 Q9 Q9 Q9 Q9 Q9 Q9 Q9 Q9 Q9 Q9 Q9 Q9 Q9 Q9 Q9 Q9 Q9 Q9 Q9 Q9 Q9 Q9 Q9 Q9 Q9 Q9 Q9 Q9 Q9 Q9 Q9 Q9 Q9 Q9 Q9 Q9 Q9 Q9 Q9 Q9 Q9 Q9 Q9 Q9 Q9 Q9 Q9 Q9 Q9 Q9 Q9 Q9 Q9 Q9 Q9 Q9 Q9 Q9                         O; O; O; O; O; O; O; O; O; O; O; O; O; O; O; O; O; O; O; O; O; O; O; O; O; O; O; O; O; O; O; O; O; O; O; O; O; O; O; O; O; O; O; O; O; O; O; O; O; O; O; O; O; O; O; O; O; O; O; O; O; O; O; O; O; O; O; O; O; O; O; O; O; O; O; O; O; O; O; O; O; O; O; O; O; O; O; O; O; O; O; O; O; O; O; O;                         N9 N9 N9 N9 N9 N9 N9 N9 N9 N9 N9 N9 N9 N9 N9 N9 N9 N9 N9 N9 N9 N9 N9 N9 N9 N9 N9 N9 N9 N9 N9 N9 N9 N9 N9 N9 N9 N9 N9 N9 N9 N9 N9 N9 N9 N9 N9 N9 N9 N9 N9 N9 N9 N9 N9 N9 N9 N9 N9 N9 N9 N9 N9 N9 N9 N9 N9 N9 N9 N9 N9 N9 N9 N9 N9 N9 N9 N9 N9 N9 N9 N9 N9 N9 N9 N9 N9 N9 N9 N9 N9 N9 N9 N9 N9 N9                         L7 L7 L7 L7 L7 L7 L7 L7 L7 L7 L7 L7 L7 L7 L7 L7 L7 L7 L7 L7 L7 L7 L7 L7 L7 L7 L7 L7 L7 L7 L7 L7 L7 L7 L7 L7 L7 L7 L7 L7 L7 L7 L7 L7 L7 L7 L7 L7 L7 L7 L7 L7 L7 L7 L7 L7 L7 L7 L7 L7 L7 L7 L7 L7 L7 L7 L7 L7 L7 L7 L7 L7 L7 L7 L7 L7 L7 L7 L7 L7 L7 L7 L7 L7 L7 L7 L7 L7 L7 L7 L7 L7 L7 L7 L7 L7                         J6 J6 J6 J6 J6 J6 J6 J6 J6 J6 J6 J6 J6 J6 J6 J6 J6 J6 J6 J6 J6 J6 J6 J6 J6 J6 J6 J6 J6 J6 J6 J6 J6 J6 J6 J6 J6 J6 J6 J6 J6 J6 J6 J6 J6 J6 J6 J6 J6 J6 J6 J6 J6 J6 J6 J6 J6 J6 J6 J6 J6 J6 J6 J6 J6 J6 J6 J6 J6 J6 J6 J6 J6 J6 J6 J6 J6 J6 J6 J6 J6 J6 J6 J6 J6 J6 J6 J6 J6 J6 J6 J6 J6 J6 J6 J6                         I4 I4 I4 I4 I4 I4 I4 I4 I4 I4 I4 I4 I4 I4 I4 I4 I4 I4 I4 I4 I4 I4 I4 I4 I4 I4 I4 I4 I4 I4 I4 I4 I4 I4 I4 I4 I4 I4 I4 I4 I4 I4 I4 I4 I4 I4 I4 I4 I4 I4 I4 I4 I4 I4 I4 I4 I4 I4 I4 I4 I4 I4 I4 I4 I4 I4 I4 I4 I4 I4 I4 I4 I4 I4 I4 I4 I4 I4 I4 I4 I4 I4 I4 I4 I4 I4 I4 I4 I4 I4 I4 I4 I4 I4 I4 I4                         J6 J6 J6 J6 J6 J6 J6 J6 J6 J6 J6 J6 J6 J6 J6 J6 J6 J6 J6 J6 J6 J6 J6 J6 J6 J6 J6 J6 J6 J6 J6 J6 J6 J6 J6 J6 J6 J6 J6 J6 J6 J6 J6 J6 J6 J6 J6 J6 J6 J6 J6 J6 J6 J6 J6 J6 J6 J6 J6 J6 J6 J6 J6 J6 J6 J6 J6 J6 J6 J6 J6 J6 J6 J6 J6 J6 J6 J6 J6 J6 J6 J6 J6 J6 J6 J6 J6 J6 J6 J6 J6 J6 J6 J6 J6 J6                         L4 L4 L4 L4 L4 L4 L4 L4 L4 L4 L4 L4 L4 L4 L4 L4 L4 L4 L4 L4 L4 L4 L4 L4 4 4 4 4 4 4 J4 J4 J4 J4 J4 J4 J4 J4 J4 J4 J4 J4 J4 J4 J4 J4 J4 J4 J4 J4 J4 J4 J4 J4 4 4 4 4 4 4 L4 L4 L4 L4 L4 L4 L4 L4 L4 L4 L4 L4 L4 L4 L4 L4 L4 L4 L4 L4 L4 L4 L4 L4 4 4 4 4 4 4 J4 J4 J4 J4 J4 J4 J J J J J J J J J J J J J J J J J J       L2 L2 L2 L2 L2 L2 L2 L2 L2 L2 L2 L2 L2 L2 L2 L2 L2 L2 L2 L2 L2 L2 L2 L2 2 2 2 2 2 2 J2 J2 J2 J2 J2 J2 J2 J2 J2 J2 J2 J2 J2 J2 J2 J2 J2 J2 J2 J2 J2 J2 J2 J2 2 2 2 2 2 2 I2 I2 I2 I2 I2 I2 I2 I2 I2 I2 I2 I2 I2 I2 I2 I2 I2 I2 I2 I2 I2 I2 I2 I2 2 2 2 2 2 2 J2 J2 J2 J2 J2 J2 J J J J J J J J J J J J J J J J J J       L9 L9 L9 L9 L9 L9 L9 L9 L9 L9 L9 L9 L9 L9 L9 L9 L9 L9 L9 L9 L9 L9 L9 L9 L9 L9 L9 L9 L9 L9 L9 L9 L9 L9 L9 L9 L9 L9 L9 L9 L9 L9 L9 L9 L9 L9 L9 L9 L9 L9 L9 L9 L9 L9 L9 L9 L9 L9 L9 L9 L9 L9 L9 L9 L9 L9 L9 L9 L9 L9 L9 L9 L9 L9 L9 L9 L9 L9 L9 L9 L9 L9 L9 L9 L9 L9 L9 L9 L9 L9 L9 L9 L9 L9 L9 L9 L9 L9 L9 L9 L9 L9 L9 L9 L9 L9 L9 L9 L9 L9 L9 L9 L9 L9 L9 L9 L9 L9 L9 L9 L9 L9 L9 L9 L9 L9 L9 L9 L9 L9 L9 L9 L9 L9 L9 L9 L9 L9 L9 L9 L9 L9 L9 L9 L9 L9 L9 L9 L9 L9 L9 L9 L9 L9 L9 L9 L9 L9 L9 L9 L9 L9 L9 L9 L9 L9 L9 L9 L9 L9 L9 L9 L9 L9 L9 L9 L9 L9 L9 L9 L9 L9 L9 L9 L9 L9 L9 L9 L9 L9 L9 L9 9 9 9 9 9 9 9 9 9 9 9 9 9 9 9 9 9 9 9 9 9 9 9 9 9 9 9 9 9 9 9 9 9 9 9 9 9 9 9 9 9 9 9 9 9 9 9 9 EE9 EE9 EE9 EE9 EE9 EE9 EE9 EE9 EE9 EE9 EE9 EE9 EE9 EE9 EE9 EE9 EE9 EE9 EE9 EE9 EE9 EE9 EE9 EE9 EE9 EE9 EE9 EE9 EE9 EE9 EE9 EE9 EE9 EE9 EE9 EE9 EE9 EE9 EE9 EE9 EE9 EE9 EE9 EE9 EE9 EE9 EE9 EE9 EE EE EE EE EE EE EE EE EE EE EE EE EE EE EE EE EE EE EE EE EE EE EE EE EE EE EE EE EE EE EE EE EE EE EE EE EE EE EE EE EE EE EE EE EE EE EE EE E E E E E E E E E E E E E E E E E E E E E E E E GE- GE- GE- GE- GE- GE- GE- GE- GE- GE- GE- GE- GE- GE- GE- GE- GE- GE- GE- GE- GE- GE- GE- GE- GE- GE- GE- GE- GE- GE- GE- GE- GE- GE- GE- GE- GE- GE- GE- GE- GE- GE- GE- GE- GE- GE- GE- GE- E- E- E- E- E- E- E- E- E- E- E- E- IE- IE- IE- IE- IE- IE- IE- IE- IE- IE- IE- IE- IE- IE- IE- IE- IE- IE- IE- IE- IE- IE- IE- IE- IE- IE- IE- IE- IE- IE- IE- IE- IE- IE- IE- IE- IE IE IE IE IE IE IE IE IE IE IE IE E E E E E E E E E E E E JE/ JE/ JE/ JE/ JE/ JE/ JE/ JE/ JE/ JE/ JE/ JE/ JE/ JE/ JE/ JE/ JE/ JE/ JE/ JE/ JE/ JE/ JE/ JE/ E/ E/ E/ E/ E/ E/ IE/ IE/ IE/ IE/ IE/ IE/ IE/ IE/ IE/ IE/ IE/ IE/ IE/ IE/ IE/ IE/ IE/ IE/ IE/ IE/ IE/ IE/ IE/ IE/ E/ E/ E/ E/ E/ E/ JE/ JE/ JE/ JE/ JE/ JE/ JE/ JE/ JE/ JE/ JE/ JE/ JE/ JE/ JE/ JE/ JE/ JE/ JE/ JE/ JE/ JE/ JE/ JE/ E/ E/ E/ E/ E/ E/ IE/ IE/ IE/ IE/ IE/ IE/ IE IE IE IE IE IE IE IE IE IE IE IE IE IE IE IE IE IE E E E E E E JE1 JE1 JE1 JE1 JE1 JE1 JE1 JE1 JE1 JE1 JE1 JE1 JE1 JE1 JE1 JE1 JE1 JE1 JE1 JE1 JE1 JE1 JE1 JE1 E1 E1 E1 E1 E1 E1 IE1 IE1 IE1 IE1 IE1 IE1 IE1 IE1 IE1 IE1 IE1 IE1 IE1 IE1 IE1 IE1 IE1 IE1 IE1 IE1 IE1 IE1 IE1 IE1 E1 E1 E1 E1 E1 E1 JE1 JE1 JE1 JE1 JE1 JE1 JE1 JE1 JE1 JE1 JE1 JE1 JE1 JE1 JE1 JE1 JE1 JE1 JE1 JE1 JE1 JE1 JE1 JE1 E1 E1 E1 E1 E1 E1 IE1 IE1 IE1 IE1 IE1 IE1 IE IE IE IE IE IE IE IE IE IE IE IE IE IE IE IE IE IE E E E E E E JE2 JE2 JE2 JE2 JE2 JE2 JE2 JE2 JE2 JE2 JE2 JE2 JE2 JE2 JE2 JE2 JE2 JE2 JE2 JE2 JE2 JE2 JE2 JE2 E2 E2 E2 E2 E2 E2 IE2 IE2 IE2 IE2 IE2 IE2 IE2 IE2 IE2 IE2 IE2 IE2 IE2 IE2 IE2 IE2 IE2 IE2 IE2 IE2 IE2 IE2 IE2 IE2 E2 E2 E2 E2 E2 E2 JE2 JE2 JE2 JE2 JE2 JE2 JE2 JE2 JE2 JE2 JE2 JE2 JE2 JE2 JE2 JE2 JE2 JE2 JE2 JE2 JE2 JE2 JE2 JE2 E2 E2 E2 E2 E2 E2 IE2 IE2 IE2 IE2 IE2 IE2 IE IE IE IE IE IE IE IE IE IE IE IE IE IE IE IE IE IE E E E E E E JE4 JE4 JE4 JE4 JE4 JE4 JE4 JE4 JE4 JE4 JE4 JE4 JE4 JE4 JE4 JE4 JE4 JE4 JE4 JE4 JE4 JE4 JE4 JE4 E4 E4 E4 E4 E4 E4 IE4 IE4 IE4 IE4 IE4 IE4 IE4 IE4 IE4 IE4 IE4 IE4 IE4 IE4 IE4 IE4 IE4 IE4 IE4 IE4 IE4 IE4 IE4 IE4 E4 E4 E4 E4 E4 E4 JE4 JE4 JE4 JE4 JE4 JE4 JE4 JE4 JE4 JE4 JE4 JE4 JE4 JE4 JE4 JE4 JE4 JE4 JE4 JE4 JE4 JE4 JE4 JE4 E4 E4 E4 E4 E4 E4 IE4 IE4 IE4 IE4 IE4 IE4 IE IE IE IE IE IE IE IE IE IE IE IE IE IE IE IE IE IE E E E E E E JE6 JE6 JE6 JE6 JE6 JE6 JE6 JE6 JE6 JE6 JE6 JE6 JE6 JE6 JE6 JE6 JE6 JE6 JE6 JE6 JE6 JE6 JE6 JE6 E6 E6 E6 E6 E6 E6 IE6 IE6 IE6 IE6 IE6 IE6 IE6 IE6 IE6 IE6 IE6 IE6 IE6 IE6 IE6 IE6 IE6 IE6 IE6 IE6 IE6 IE6 IE6 IE6 E6 E6 E6 E6 E6 E6 JE6 JE6 JE6 JE6 JE6 JE6 JE6 JE6 JE6 JE6 JE6 JE6 JE6 JE6 JE6 JE6 JE6 JE6 JE6 JE6 JE6 JE6 JE6 JE6 E6 E6 E6 E6 E6 E6 IE6 IE6 IE6 IE6 IE6 IE6 IE IE IE IE IE IE IE IE IE IE IE IE IE IE IE IE IE IE E E E E E E JE7 JE7 JE7 JE7 JE7 JE7 JE7 JE7 JE7 JE7 JE7 JE7 JE7 JE7 JE7 JE7 JE7 JE7 JE7 JE7 JE7 JE7 JE7 JE7 E7 E7 E7 E7 E7 E7 IE7 IE7 IE7 IE7 IE7 IE7 IE7 IE7 IE7 IE7 IE7 IE7 IE7 IE7 IE7 IE7 IE7 IE7 IE7 IE7 IE7 IE7 IE7 IE7 E7 E7 E7 E7 E7 E7 JE7 JE7 JE7 JE7 JE7 JE7 JE7 JE7 JE7 JE7 JE7 JE7 JE7 JE7 JE7 JE7 JE7 JE7 JE7 JE7 JE7 JE7 JE7 JE7 E7 E7 E7 E7 E7 E7 IE7 IE7 IE7 IE7 IE7 IE7 IE7 IE7 IE7 IE7 IE7 IE7 IE7 IE7 IE7 IE7 IE7 IE7 IE7 IE7 IE7 IE7 IE7 IE7 E7 E7 E7 E7 E7 E7 JE7- JE7- JE7- JE7- JE7- JE7- JE7- JE7- JE7- JE7- JE7- JE7- JE7- JE7- JE7- JE7- JE7- JE7- JE7- JE7- JE7- JE7- JE7- JE7- E7- E7- E7- E7- E7- E7- EI7- EI7- EI7- EI7- EI7- EI7- EI7- EI7- EI7- EI7- EI7- EI7- EI7- EI7- EI7- EI7- EI7- EI7- I7- I7- I7- I7- I7- I7- 7- 7- 7- 7- 7- 7- J7- J7- J7- J7- J7- J7- J7- J7- J7- J7- J7- J7- J7- J7- J7- J7- J7- J7- J7- J7- J7- J7- J7- J7- 7- 7- 7- 7- 7- 7- I7- I7- I7- I7- I7- I7- I7- I7- I7- I7- I7- I7- I7- I7- I7- I7- I7- I7- I7- I7- I7- I7- I7- I7- 7- 7- 7- 7- 7- 7- G7- G7- G7- G7- G7- G7- G7- G7- G7- G7- G7- G7- G7- G7- G7- G7- G7- G7- G7- G7- G7- G7- G7- G7- G7- G7- G7- G7- G7- G7- G7- G7- G7- G7- G7- G7- G7- G7- G7- G7- G7- G7- G7- G7- G7- G7- G7- G7- 7- 7- 7- 7- 7- 7- 7- 7- 7- 7- 7- 7- I7- I7- I7- I7- I7- I7- I7- I7- I7- I7- I7- I7- I- I- I- I- I- I- I- I- I- I- I- I- I- I- I- I- I- I- I- I- I- I- I- I- I- I- I- I- I- I- I- I- I- I- I- I- - - - - - - - - - - - - LE7- LE7- LE7- LE7- LE7- LE7- LE7- LE7- LE7- LE7- LE7- LE7- LE7- LE7- LE7- LE7- LE7- LE7- LE7- LE7- LE7- LE7- LE7- LE7- E7- E7- E7- E7- E7- E7- JE7- JE7- JE7- JE7- JE7- JE7- JE7- JE7- JE7- JE7- JE7- JE7- JE7- JE7- JE7- JE7- JE7- JE7- JE7- JE7- JE7- JE7- JE7- JE7- E7- E7- E7- E7- E7- E7- LE7- LE7- LE7- LE7- LE7- LE7- LE7- LE7- LE7- LE7- LE7- LE7- LE7- LE7- LE7- LE7- LE7- LE7- LE7- LE7- LE7- LE7- LE7- LE7- E7- E7- E7- E7- E7- E7- JE7- JE7- JE7- JE7- JE7- JE7- JE7- JE7- JE7- JE7- JE7- JE7- JE7- JE7- JE7- JE7- JE7- JE7- JE7- JE7- JE7- JE7- JE7- JE7- E7- E7- E7- E7- E7- E7- LE7- LE7- LE7- LE7- LE7- LE7- LE7- LE7- LE7- LE7- LE7- LE7- LE7- LE7- LE7- LE7- LE7- LE7- LE7- LE7- LE7- LE7- LE7- LE7- E- E- E- E- E- E- JE- JE- JE- JE- JE- JE- JE- JE- JE- JE- JE- JE- JE- JE- JE- JE- JE- JE- JE- JE- JE- JE- JE- JE- E- E- E- E- E- E- LE-6 LE-6 LE-6 LE-6 LE-6 LE-6 LE-6 LE-6 LE-6 LE-6 LE-6 LE-6 LE-6 LE-6 LE-6 LE-6 LE-6 LE-6 LE-6 LE-6 LE-6 LE-6 LE-6 LE-6 E-6 E-6 E-6 E-6 E-6 E-6 JE-6 JE-6 JE-6 JE-6 JE-6 JE-6 JE-6 JE-6 JE-6 JE-6 JE-6 JE-6 JE-6 JE-6 JE-6 JE-6 JE-6 JE-6 JE-6 JE-6 JE-6 JE-6 JE-6 JE-6 E-6 E-6 E-6 E-6 E-6 E-6 LE-6 LE-6 LE-6 LE-6 LE-6 LE-6 LE-6 LE-6 LE-6 LE-6 LE-6 LE-6 LE-6 LE-6 LE-6 LE-6 LE-6 LE-6 LE-6 LE-6 LE-6 LE-6 LE-6 LE-6 E-6 E-6 E-6 E-6 E-6 E-6 JE-6 JE-6 JE-6 JE-6 JE-6 JE-6 JE-6 JE-6 JE-6 JE-6 JE-6 JE-6 JE-6 JE-6 JE-6 JE-6 JE-6 JE-6 JE6 JE6 JE6 JE6 JE6 JE E E E E E E LE LE LE LE LE LE LE LE LE LE LE LE LE LE LE LE LE LE LE LE LE LE LE LE E E E E E E JE JE JE JE JE JE JE JE JE JE JE JE JE JE JE JE JE JE JE JE JE JE JE JE E E E E E E LE/ LE/ LE/ LE/ LE/ LE/ LE/ LE/ LE/ LE/ LE/ LE/ LE/ LE/ LE/ LE/ LE/ LE/ LE/ LE/ LE/ LE/ LE/ LE/ E/ E/ E/ E/ E/ E/ JE/ JE/ JE/ JE/ JE/ JE/ JE/ JE/ JE/ JE/ JE/ JE/ JE/ JE/ JE/ JE/ JE/ JE/ JE/ JE/ JE/ JE/ JE/ JE/ E/ E/ E/ E/ E/ E/ LE/ LE/ LE/ LE/ LE/ LE/ LE/ LE/ LE/ LE/ LE/ LE/ LE/ LE/ LE/ LE/ LE/ LE/ LE/ LE/ LE/ LE/ LE/ LE/ E/ E/ E/ E/ E/ E/ JE/ JE/ JE/ JE/ JE/ JE/ JE JE JE JE JE JE JE JE JE JE JE JE JE JE JE JE JE JE E E E E E E LE1 LE1 LE1 LE1 LE1 LE1 LE1 LE1 LE1 LE1 LE1 LE1 LE1 LE1 LE1 LE1 LE1 LE1 LE1 LE1 LE1 LE1 LE1 LE1 E1 E1 E1 E1 E1 E1 JE1 JE1 JE1 JE1 JE1 JE1 JE1 JE1 JE1 JE1 JE1 JE1 JE1 JE1 JE1 JE1 JE1 JE1 JE1 JE1 JE1 JE1 JE1 JE1 E1 E1 E1 E1 E1 E1 LE1 LE1 LE1 LE1 LE1 LE1 LE1 LE1 LE1 LE1 LE1 LE1 LE1 LE1 LE1 LE1 LE1 LE1 LE1 LE1 LE1 LE1 LE1 LE1 E1 E1 E1 E1 E1 E1 JE1 JE1 JE1 JE1 JE1 JE1 JE JE JE JE JE JE JE JE JE JE JE JE JE JE JE JE JE JE E E E E E E LE2 LE2 LE2 LE2 LE2 LE2 LE2 LE2 LE2 LE2 LE2 LE2 LE2 LE2 LE2 LE2 LE2 LE2 LE2 LE2 LE2 LE2 LE2 LE2 E2 E2 E2 E2 E2 E2 JE2 JE2 JE2 JE2 JE2 JE2 JE2 JE2 JE2 JE2 JE2 JE2 JE2 JE2 JE2 JE2 JE2 JE2 JE2 JE2 JE2 JE2 JE2 JE2 E2 E2 E2 E2 E2 E2 LE2 LE2 LE2 LE2 LE2 LE2 LE2 LE2 LE2 LE2 LE2 LE2 LE2 LE2 LE2 LE2 LE2 LE2 LE2 LE2 LE2 LE2 LE2 LE2 E2 E2 E2 E2 E2 E2 JE2 JE2 JE2 JE2 JE2 JE2 JE JE JE JE JE JE JE JE JE JE JE JE JE JE JE JE JE JE E E E E E E LE4 LE4 LE4 LE4 LE4 LE4 LE4 LE4 LE4 LE4 LE4 LE4 LE4 LE4 LE4 LE4 LE4 LE4 LE4 LE4 LE4 LE4 LE4 LE4 E4 E4 E4 E4 E4 E4 JE4 JE4 JE4 JE4 JE4 JE4 JE4 JE4 JE4 JE4 JE4 JE4 JE4 JE4 JE4 JE4 JE4 JE4 JE4 JE4 JE4 JE4 JE4 JE4 E4 E4 E4 E4 E4 E4 LE4 LE4 LE4 LE4 LE4 LE4 LE4 LE4 LE4 LE4 LE4 LE4 LE4 LE4 LE4 LE4 LE4 LE4 LE4 LE4 LE4 LE4 LE4 LE4 E4 E4 E4 E4 E4 E4 JE4 JE4 JE4 JE4 JE4 JE4 JE JE JE JE JE JE JE JE JE JE JE JE JE JE JE JE JE JE E E E E E E LE6 LE6 LE6 LE6 LE6 LE6 LE6 LE6 LE6 LE6 LE6 LE6 LE6 LE6 LE6 LE6 LE6 LE6 LE6 LE6 LE6 LE6 LE6 LE6 E6 E6 E6 E6 E6 E6 JE6 JE6 JE6 JE6 JE6 JE6 JE6 JE6 JE6 JE6 JE6 JE6 JE6 JE6 JE6 JE6 JE6 JE6 JE6 JE6 JE6 JE6 JE6 JE6 E6 E6 E6 E6 E6 E6 LE6 LE6 LE6 LE6 LE6 LE6 LE6 LE6 LE6 LE6 LE6 LE6 LE6 LE6 LE6 LE6 LE6 LE6 LE6 LE6 LE6 LE6 LE6 LE6 E6 E6 E6 E6 E6 E6 JE6 JE6 JE6 JE6 JE6 JE6 JE JE JE JE JE JE JE JE JE JE JE JE JE JE JE JE JE JE E E E E E E LE7 LE7 LE7 LE7 LE7 LE7 LE7 LE7 LE7 LE7 LE7 LE7 LE7 LE7 LE7 LE7 LE7 LE7 LE7 LE7 LE7 LE7 LE7 LE7 E7 E7 E7 E7 E7 E7 JE7 JE7 JE7 JE7 JE7 JE7 JE7 JE7 JE7 JE7 JE7 JE7 JE7 JE7 JE7 JE7 JE7 JE7 JE7 JE7 JE7 JE7 JE7 JE7 E7 E7 E7 E7 E7 E7 LE7 LE7 LE7 LE7 LE7 LE7 LE7 LE7 LE7 LE7 LE7 LE7 LE7 LE7 LE7 LE7 LE7 LE7 LE7 LE7 LE7 LE7 LE7 LE7 E7 E7 E7 E7 E7 E7 JE7 JE7 JE7 JE7 JE7 JE7 JE JE JE JE JE JE JE JE JE JE JE JE JE JE JE JE JE JE E E E E E E LE9 LE9 LE9 LE9 LE9 LE9 LE9 LE9 LE9 LE9 LE9 LE9 LE9 LE9 LE9 LE9 LE9 LE9 LE9 LE9 LE9 LE9 LE9 LE9 E9 E9 E9 E9 E9 E9 JE9 JE9 JE9 JE9 JE9 JE9 JE9 JE9 JE9 JE9 JE9 JE9 JE9 JE9 JE9 JE9 JE9 JE9 JE9 JE9 JE9 JE9 JE9 JE9 E9 E9 E9 E9 E9 E9 LE9 LE9 LE9 LE9 LE9 LE9 LE9 LE9 LE9 LE9 LE9 LE9 LE9 LE9 LE9 LE9 LE9 LE9 LE9 LE9 LE9 LE9 LE9 LE9 E9 E9 E9 E9 E9 E9 JE9 JE9 JE9 JE9 JE9 JE9 JE9 JE9 JE9 JE9 JE9 JE9 JE9 JE9 JE9 JE9 JE9 JE9 JE9 JE9 JE9 JE9 JE9 JE9 E9 E9 E9 E9 E9 E9 LE/9 LE/9 LE/9 LE/9 LE/9 LE/9 LE/9 LE/9 LE/9 LE/9 LE/9 LE/9 LE/9 LE/9 LE/9 LE/9 LE/9 LE/9 LE/9 LE/9 LE/9 LE/9 LE/9 LE/9 E/9 E/9 E/9 E/9 E/9 E/9 JE/9 JE/9 JE/9 JE/9 JE/9 JE/9 JE/9 JE/9 JE/9 JE/9 JE/9 JE/9 JE/9 JE/9 JE/9 JE/9 JE/9 JE/9 JE/9 JE/9 JE/9 JE/9 JE/9 JE/9 E/9 E/9 E/9 E/9 E/9 E/9 LE/9 LE/9 LE/9 LE/9 LE/9 LE/9 LE/9 LE/9 LE/9 LE/9 LE/9 LE/9 LE/9 LE/9 LE/9 LE/9 LE/9 LE/9 LE/9 LE/9 LE/9 LE/9 LE/9 LE/9 E/9 E/9 E/9 E/9 E/9 E/9 JE/9 JE/9 JE/9 JE/9 JE/9 JE/9 JE/9 JE/9 JE/9 JE/9 JE/9 JE/9 JE/9 JE/9 JE/9 JE/9 JE/9 JE/9 JE/9 JE/9 JE/9 JE/9 JE/9 JE/9 E/9 E/9 E/9 E/9 E/9 E/9 IE/9 IE/9 IE/9 IE/9 IE/9 IE/9 IE/9 IE/9 IE/9 IE/9 IE/9 IE/9 IE/9 IE/9 IE/9 IE/9 IE/9 IE/9 IE/9 IE/9 IE/9 IE/9 IE/9 IE/9 IE/9 IE/9 IE/9 IE/9 IE/9 IE/9 IE/9 IE/9 IE/9 IE/9 IE/9 IE/9 IE/9 IE/9 IE/9 IE/9 IE/9 IE/9 IE/9 IE/9 IE/9 IE/9 IE/9 IE/9 E/9 E/9 E/9 E/9 E/9 E/9 E/9 E/9 E/9 E/9 E/9 E/9 JE/9 JE/9 JE/9 JE/9 JE/9 JE/9 JE/9 JE/9 JE/9 JE/9 JE/9 JE/9 JE JE JE JE JE JE JE JE JE JE JE JE JE JE JE JE JE JE JE JE JE JE JE JE JE JE JE JE JE JE JE JE JE JE JE JE E E E E E E E E E E E E LE91 LE91 LE91 LE91 LE91 LE91 LE91 LE91 LE91 LE91 LE91 LE91 LE91 LE91 LE91 LE91 LE91 LE91 LE91 LE91 LE91 LE91 LE91 LE91 LE91 LE91 LE91 LE91 LE91 LE91 LE91 LE91 LE91 LE91 LE91 LE91 LE91 LE91 LE91 LE91 LE91 LE91 LE91 LE91 LE91 LE91 LE91 LE91 LE91 LE91 LE91 LE91 LE91 LE91 LE91 LE91 LE91 LE91 LE91 LE91 LE91 LE91 LE91 LE91 LE91 LE91 LE91 LE91 LE91 LE91 LE91 LE91 LE91 LE91 LE91 LE91 LE91 LE91 LE91 LE91 LE91 LE91 LE91 LE91 LE91 LE91 LE91 LE91 LE91 LE91 LE91 LE91 LE91 LE91 LE91 LE91 LE1 LE1 LE1 LE1 LE1 LE1 LE1 LE1 LE1 LE1 LE1 LE1 LE1 LE1 LE1 LE1 LE1 LE1 LE1 LE1 LE1 LE1 LE1 LE1 LE61 LE61 LE61 LE61 LE61 LE61 LE61 LE61 LE61 LE61 LE61 LE61 LE61 LE61 LE61 LE61 LE61 LE61 LE61 LE61 LE61 LE61 LE61 LE61 LE61 LE61 LE61 LE61 LE61 LE61 LE61 LE61 LE61 LE61 LE61 LE61 LE61 LE61 LE61 LE61 LE61 LE61 LE61 LE61 LE61 LE61 LE61 LE61 LE61 LE61 LE61 LE61 LE61 LE61 LE61 LE61 LE61 LE61 LE61 LE61 LE61 LE61 LE61 LE61 LE61 LE61 LE61 LE61 LE61 LE61 LE61 LE61 LE61 LE61 LE61 LE61 LE61 LE61 LE61 LE61 LE61 LE61 LE61 LE61 LE61 LE61 LE61 LE61 LE61 LE61 LE61 LE61 LE61 LE61 LE61 LE61 LE1 LE1 LE1 LE1 LE1 LE1 LE1 LE1 LE1 LE1 LE1 LE1 LE1 LE1 LE1 LE1 LE1 LE1 LE1 LE1 LE1 LE1 LE1 LE1 LE71 LE71 LE71 LE71 LE71 LE71 LE71 LE71 LE71 LE71 LE71 LE71 LE71 LE71 LE71 LE71 LE71 LE71 LE71 LE71 LE71 LE71 LE71 LE71 LE71 LE71 LE71 LE71 LE71 LE71 LE71 LE71 LE71 LE71 LE71 LE71 LE71 LE71 LE71 LE71 LE71 LE71 LE71 LE71 LE71 LE71 LE71 LE71 E71 E71 E71 E71 E71 E71 E71 E71 E71 E71 E71 E71 E71 E71 E71 E71 E71 E71 E71 E71 E71 E71 E71 E71 E71 E71 E71 E71 E71 E71 E71 E71 E71 E71 E71 E71 E71 E71 E71 E71 E71 E71 E71 E71 E71 E71 E71 E71 E1 E1 E1 E1 E1 E1 E1 E1 E1 E1 E1 E1 E1 E1 E1 E1 E1 E1 E1 E1 E1 E1 E1 E1 NE14 NE14 NE14 NE14 NE14 NE14 NE14 NE14 NE14 NE14 NE14 NE14 NE14 NE14 NE14 NE14 NE14 NE14 NE14 NE14 NE14 NE14 NE14 NE14 NE4 NE4 NE4 NE4 NE4 NE4 NE4 NE4 NE4 NE4 NE4 NE4 NE4 NE4 NE4 NE4 NE4 NE4 NE4 NE4 NE4 NE4 NE4 NE4 NE4 NE4 NE4 NE4 NE4 NE4 NE4 NE4 NE4 NE4 NE4 NE4 NE4 NE4 NE4 NE4 NE4 NE4 NE4 NE4 NE4 NE4 NE4 NE4 NE4 NE4 NE4 NE4 NE4 NE4 NE4 NE4 NE4 NE4 NE4 NE4 NE4 NE4 NE4 NE4 NE4 NE4 NE4 NE4 NE4 NE4 NE4 NE4 E E E E E E E E E E E E E E E E E E E E E E E E JE26 JE26 JE26 JE26 JE26 JE26 JE26 JE26 JE26 JE26 JE26 JE26 JE26 JE26 JE26 JE26 JE26 JE26 JE26 JE26 JE26 JE26 JE26 JE26 JE26 JE26 JE26 JE26 JE26 JE26 JE26 JE26 JE26 JE26 JE26 JE26 JE26 JE26 JE26 JE26 JE26 JE26 JE26 JE26 JE26 JE26 JE26 JE26 JE26 JE26 JE26 JE26 JE26 JE26 JE26 JE26 JE26 JE26 JE26 JE26 JE26 JE26 JE26 JE26 JE26 JE26 JE26 JE26 JE26 JE26 JE26 JE26 JE26 JE26 JE26 JE26 JE26 JE26 JE26 JE26 JE26 JE26 JE26 JE26 JE26 JE26 JE26 JE26 JE26 JE26 JE26 JE26 JE26 JE26 JE26 JE26 E26 E26 E26 E26 E26 E26 E26 E26 E26 E26 E26 E26 E26 E26 E26 E26 E26 E26 E26 E26 E26 E26 E26 E26 IE26 IE26 IE26 IE26 IE26 IE26 IE26 IE26 IE26 IE26 IE26 IE26 IE26 IE26 IE26 IE26 IE26 IE26 IE26 IE26 IE26 IE26 IE26 IE26 IE26 IE26 IE26 IE26 IE26 IE26 IE26 IE26 IE26 IE26 IE26 IE26 IE26 IE26 IE26 IE26 IE26 IE26 IE26 IE26 IE26 IE26 IE26 IE26 IE26 IE26 IE26 IE26 IE26 IE26 IE26 IE26 IE26 IE26 IE26 IE26 IE26 IE26 IE26 IE26 IE26 IE26 IE26 IE26 IE26 IE26 IE26 IE26 IE6 IE6 IE6 IE6 IE6 IE6 IE6 IE6 IE6 IE6 IE6 IE6 IE6 IE6 IE6 IE6 IE6 IE6 IE6 IE6 IE6 IE6 IE6 IE6 E6 E6 E6 E6 E6 E6 E6 E6 E6 E6 E6 E6 E6 E6 E6 E6 E6 E6 E6 E6 E6 E6 E6 E6 EJ6+ EJ6+ EJ6+ EJ6+ EJ6+ EJ6+ EJ6+ EJ6+ EJ6+ EJ6+ EJ6+ EJ6+ EJ6+ EJ6+ EJ6+ EJ6+ EJ6+ EJ6+ EJ6+ EJ6+ EJ6+ EJ6+ EJ6+ EJ6+ EJ6+ EJ6+ EJ6+ EJ6+ EJ6+ EJ6+ EJ6+ EJ6+ EJ6+ EJ6+ EJ6+ EJ6+ EJ6+ EJ6+ EJ6+ EJ6+ EJ6+ EJ6+ EJ6+ EJ6+ EJ6+ EJ6+ EJ6+ EJ6+ J+ J+ J+ J+ J+ J+ J+ J+ J+ J+ J+ J+ J+ J+ J+ J+ J+ J+ J+ J+ J+ J+ J+ J+ J+ J+ J+ J+ J+ J+ J+ J+ J+ J+ J+ J+ J+ J+ J+ J+ J+ J+ J+ J+ J+ J+ J+ J+ + + + + + + + + + + + + + + + + + + + + + + + + L+4 L+4 L+4 L+4 L+4 L+4 L+4 L+4 L+4 L+4 L+4 L+4 L+4 L+4 L+4 L+4 L+4 L+4 L+4 L+4 L+4 L+4 L+4 L+4 L+4 L+4 L+4 L+4 L+4 L+4 L+4 L+4 L+4 L+4 L+4 L+4 L+4 L+4 L+4 L+4 L+4 L+4 L+4 L+4 L+4 L+4 L+4 L+4 L+4 L+4 L+4 L+4 L+4 L+4 L+4 L+4 L+4 L+4 L+4 L+4 L+4 L+4 L+4 L+4 L+4 L+4 L+4 L+4 L+4 L+4 L+4 L+4 L4 L4 L4 L4 L4 L4 L4 L4 L4 L4 L4 L4 L4 L4 L4 L4 L4 L4 L4 L4 L4 L4 L4 L4                         JC6- JC6- JC6- JC6- JC6- JC6- JC6- JC6- JC6- JC6- JC6- JC6- JC6- JC6- JC6- JC6- JC6- JC6- JC6- JC6- JC6- JC6- JC6- JC6- C- C- C- C- C- C- IC4- IC4- IC4- IC4- IC4- IC4- IC4- IC4- IC4- IC4- IC4- IC4- IC4- IC4- IC4- IC4- IC4- IC4- IC4- IC4- IC4- IC4- IC4- IC4- C- C- C- C- C- C- JC6- JC6- JC6- JC6- JC6- JC6- JC6- JC6- JC6- JC6- JC6- JC6- JC6- JC6- JC6- JC6- JC6- JC6- JC6- JC6- JC6- JC6- JC6- JC6- C- C- C- C- C- C- IC4- IC4- IC4- IC4- IC4- IC4- IC4- IC4- IC4- IC4- IC4- IC4- IC4- IC4- IC4- IC4- IC4- IC4- IC4- IC4- IC4- IC4- IC4- IC4- C- C- C- C- C- C- JC6- JC6- JC6- JC6- JC6- JC6- JC6- JC6- JC6- JC6- JC6- JC6- JC6- JC6- JC6- JC6- JC6- JC6- JC6- JC6- JC6- JC6- JC6- JC6- C- C- C- C- C- C- IC4- IC4- IC4- IC4- IC4- IC4- IC4- IC4- IC4- IC4- IC4- IC4- IC4- IC4- IC4- IC4- IC4- IC4- IC4- IC4- IC4- IC4- IC4- IC4- C- C- C- C- C- C- JC6- JC6- JC6- JC6- JC6- JC6- JC6- JC6- JC6- JC6- JC6- JC6- JC6- JC6- JC6- JC6- JC6- JC6- JC6- JC6- JC6- JC6- JC6- JC6- C- C- C- C- C- C- IC4- IC4- IC4- IC4- IC4- IC4- IC4- IC4- IC4- IC4- IC4- IC4- IC4- IC4- IC4- IC4- IC4- IC4- IC4- IC4- IC4- IC4- IC4- IC4- C- C- C- C- C- C- JC6- JC6- JC6- JC6- JC6- JC6- JC6- JC6- JC6- JC6- JC6- JC6- JC6- JC6- JC6- JC6- JC6- JC6- JC6- JC6- JC6- JC6- JC6- JC6- C- C- C- C- C- C- IC4- IC4- IC4- IC4- IC4- IC4- IC4- IC4- IC4- IC4- IC4- IC4- IC4- IC4- IC4- IC4- IC4- IC4- IC4- IC4- IC4- IC4- IC4- IC4- C- C- C- C- C- C- JC6- JC6- JC6- JC6- JC6- JC6- JC6- JC6- JC6- JC6- JC6- JC6- JC6- JC6- JC6- JC6- JC6- JC6- JC6- JC6- JC6- JC6- JC6- JC6- C- C- C- C- C- C- IC4- IC4- IC4- IC4- IC4- IC4- IC4- IC4- IC4- IC4- IC4- IC4- IC4- IC4- IC4- IC4- IC4- IC4- IC4- IC4- IC4- IC4- IC4- IC4- C- C- C- C- C- C- CJ-2 CJ-2 CJ-2 CJ-2 CJ-2 CJ-2 CJ-2 CJ-2 CJ-2 CJ-2 CJ-2 CJ-2 CJ-2 CJ-2 CJ-2 CJ-2 CJ-2 CJ-2 CJ-2 CJ-2 CJ-2 CJ-2 CJ-2 CJ-2 J2 J2 J2 J2 J2 J2 J2 J2 J2 J2 J2 J2 J2 J2 J2 J2 J2 J2 J2 J2 J2 J2 J2 J2 J2 J2 J2 J2 J2 J2 J2 J2 J2 J2 J2 J2 J2 J2 J2 J2 J2 J2 J2 J2 J2 J2 J2 J2 J2 J2 J2 J2 J2 J2 J2 J2 J2 J2 J2 J2 J2 J2 J2 J2 J2 J2 J2 J2 J2 J2 J2 J2                         BEJ&2 BEJ&2 BEJ&2 BEJ&2 BEJ&2 BEJ&2 BEJ&2 BEJ&2 BEJ&2 BEJ&2 BEJ&2 BEJ&2 BEJ&2 BEJ&2 BEJ&2 BEJ&2 BEJ&2 BEJ&2 BEJ&2 BEJ&2 BEJ&2 BEJ&2 BEJ&2 BEJ&2 BEJ&2 BEJ&2 BEJ&2 BEJ&2 BEJ&2 BEJ&2 BEJ&2 BEJ&2 BEJ&2 BEJ&2 BEJ&2 BEJ&2 BEJ&2 BEJ&2 BEJ&2 BEJ&2 BEJ&2 BEJ&2 BEJ&2 BEJ&2 BEJ&2 BEJ&2 BEJ&2 BEJ&2 BEJ&2 BEJ&2 BEJ&2 BEJ&2 BEJ&2 BEJ&2 BEJ&2 BEJ&2 BEJ&2 BEJ&2 BEJ&2 BEJ&2 BEJ&2 BEJ&2 BEJ&2 BEJ&2 BEJ&2 BEJ&2 BEJ&2 BEJ&2 BEJ&2 BEJ&2 BEJ&2 BEJ&2 BEJ&2 BEJ&2 BEJ&2 BEJ&2 BEJ&2 BEJ&2 BEJ&2 BEJ&2 BEJ&2 BEJ&2 BEJ&2 BEJ&2 BEJ&2 BEJ&2 BEJ&2 BEJ&2 BEJ&2 BEJ&2 BEJ&2 BEJ&2 BEJ&2 BEJ&2 BEJ&2 BEJ&2 BEJ&2 BEJ&2 BEJ&2 BEJ&2 BEJ&2 BEJ&2 BEJ&2 BEJ&2 BEJ&2 BEJ&2 BEJ&2 BEJ&2 BEJ&2 BEJ&2 BEJ&2 BEJ&2 BEJ&2 BEJ&2 BEJ&2 BEJ&2 BEJ&2 BEJ&2 BEJ&2 BEJ&2 BEJ&2 BEJ&2 BEJ&2 BEJ&2 BEJ&2 BEJ&2 BEJ&2 BEJ&2 BEJ&2 BEJ&2 BEJ&2 BEJ&2 BEJ&2 BEJ&2 BEJ&2 BEJ&2 BEJ&2 BEJ&2 BEJ&2 BEJ&2 BEJ&2 BEJ&2 BEJ&2 BEJ&2 BEJ&2 BEJ&2 BEJ&2 BEJ&2 BEJ&2 BEJ&2 BEJ&2 BEJ&2 BEJ&2 BEJ&2 BEJ&2 BEJ&2 BEJ&2 BEJ&2 BEJ&2 BEJ&2 BEJ&2 BEJ&2 BEJ&2 BEJ&2 BEJ&2 BEJ&2 BEJ&2 BEJ&2 BEJ&2 BEJ&2 BEJ&2 BEJ&2 BEJ&2 BEJ&2 BEJ&2 BEJ&2 BEJ&2 BEJ&2 BEJ&2 BEJ&2 EJ&2 EJ&2 EJ&2 EJ&2 EJ&2 EJ&2 EJ&2 EJ&2 EJ&2 EJ&2 EJ&2 EJ&2 &2 &2 &2 &2 &2 &2 &2 &2 &2 &2 &2 &2 &2 &2 &2 &2 &2 &2 &2 &2 &2 &2 &2 &2 &2 &2 &2 &2 &2 &2 &2 &2 &2 &2 &2 &2 &2 &2 &2 &2 &2 &2 &2 &2 &2 &2 &2 &2 N&2 N&2 N&2 N&2 N&2 N&2 N&2 N&2 N&2 N&2 N&2 N&2 N&2 N&2 N&2 N&2 N&2 N&2 N&2 N&2 N&2 N&2 N&2 N&2 N&2 N&2 N&2 N&2 N&2 N&2 N&2 N&2 N&2 N&2 N&2 N&2 N&2 N&2 N&2 N&2 N&2 N&2 N&2 N&2 N&2 N&2 N&2 N&2 N N N N N N N N N N N N N N N N N N N N N N N N N N N N N N N N N N N N N N N N N N N N N N N N N N N N N N N N N N N N N N N N N N N N N N N N N> N> N> N> N> N> N> N> N> N> N> N> N> N> N> N> N> N> N> N> N> N> N> N> N> N> N> N> N> N> N> N> N> N> N> N> N> N> N> N> N> N> N> N> N> N> N> N> N> N> N> N> N> N> N> N> N> N> N> N> > > > > > > > > > > > > > > > > > > > > > > > > > > > > > > > > > > > >                         Q< Q< Q< Q< Q< Q< Q< Q< Q< Q< Q< Q< Q< Q< Q< Q< Q< Q< Q< Q< Q< Q< Q< Q< Q< Q< Q< Q< Q< Q< Q< Q< Q< Q< Q< Q< Q< Q< Q< Q< Q< Q< Q< Q< Q< Q< Q< Q< Q< Q< Q< Q< Q< Q< Q< Q< Q< Q< Q< Q< Q< Q< Q< Q< Q< Q< Q< Q< Q< Q< Q< Q< Q< Q< Q< Q< Q< Q< Q< Q< Q< Q< Q< Q< Q< Q< Q< Q< Q< Q< Q< Q< Q< Q< Q< Q< Q Q Q Q Q Q Q Q Q Q Q Q Q Q Q Q Q Q Q Q Q Q Q Q Q; Q; Q; Q; Q; Q; Q; Q; Q; Q; Q; Q; Q; Q; Q; Q; Q; Q; Q; Q; Q; Q; Q; Q; Q; Q; Q; Q; Q; Q; Q; Q; Q; Q; Q; Q; Q; Q; Q; Q; Q; Q; Q; Q; Q; Q; Q; Q; Q; Q; Q; Q; Q; Q; Q; Q; Q; Q; Q; Q; Q; Q; Q; Q; Q; Q; Q; Q; Q; Q; Q; Q; Q; Q; Q; Q; Q; Q; Q; Q; Q; Q; Q; Q; Q; Q; Q; Q; Q; Q; Q; Q; Q; Q; Q; Q; Q Q Q Q Q Q Q Q Q Q Q Q Q Q Q Q Q Q Q Q Q Q Q Q Q9 Q9 Q9 Q9 Q9 Q9 Q9 Q9 Q9 Q9 Q9 Q9 Q9 Q9 Q9 Q9 Q9 Q9 Q9 Q9 Q9 Q9 Q9 Q9 Q9 Q9 Q9 Q9 Q9 Q9 Q9 Q9 Q9 Q9 Q9 Q9 Q9 Q9 Q9 Q9 Q9 Q9 Q9 Q9 Q9 Q9 Q9 Q9 9 9 9 9 9 9 9 9 9 9 9 9 9 9 9 9 9 9 9 9 9 9 9 9 9 9 9 9 9 9 9 9 9 9 9 9 9 9 9 9 9 9 9 9 9 9 9 9                         S7 S7 S7 S7 S7 S7 S7 S7 S7 S7 S7 S7 S7 S7 S7 S7 S7 S7 S7 S7 S7 S7 S7 S7 S7 S7 S7 S7 S7 S7 S7 S7 S7 S7 S7 S7 S7 S7 S7 S7 S7 S7 S7 S7 S7 S7 S7 S7 S7 S7 S7 S7 S7 S7 S7 S7 S7 S7 S7 S7 S7 S7 S7 S7 S7 S7 S7 S7 S7 S7 S7 S7 S7 S7 S7 S7 S7 S7 S7 S7 S7 S7 S7 S7 S7 S7 S7 S7 S7 S7 S7 S7 S7 S7 S7 S7                         Q6 Q6 Q6 Q6 Q6 Q6 Q6 Q6 Q6 Q6 Q6 Q6 Q6 Q6 Q6 Q6 Q6 Q6 Q6 Q6 Q6 Q6 Q6 Q6 Q6 Q6 Q6 Q6 Q6 Q6 Q6 Q6 Q6 Q6 Q6 Q6 Q6 Q6 Q6 Q6 Q6 Q6 Q6 Q6 Q6 Q6 Q6 Q6 Q6 Q6 Q6 Q6 Q6 Q6 Q6 Q6 Q6 Q6 Q6 Q6 Q6 Q6 Q6 Q6 Q6 Q6 Q6 Q6 Q6 Q6 Q6 Q6 Q6 Q6 Q6 Q6 Q6 Q6 Q6 Q6 Q6 Q6 Q6 Q6 Q6 Q6 Q6 Q6 Q6 Q6 Q6 Q6 Q6 Q6 Q6 Q6                         O7 O7 O7 O7 O7 O7 O7 O7 O7 O7 O7 O7 O7 O7 O7 O7 O7 O7 O7 O7 O7 O7 O7 O7 O7 O7 O7 O7 O7 O7 O7 O7 O7 O7 O7 O7 O7 O7 O7 O7 O7 O7 O7 O7 O7 O7 O7 O7 O7 O7 O7 O7 O7 O7 O7 O7 O7 O7 O7 O7 O7 O7 O7 O7 O7 O7 O7 O7 O7 O7 O7 O7 O7 O7 O7 O7 O7 O7 O7 O7 O7 O7 O7 O7 O7 O7 O7 O7 O7 O7 O7 O7 O7 O7 O7 O7                         N9 N9 N9 N9 N9 N9 N9 N9 N9 N9 N9 N9 N9 N9 N9 N9 N9 N9 N9 N9 N9 N9 N9 N9 N9 N9 N9 N9 N9 N9 N9 N9 N9 N9 N9 N9 N9 N9 N9 N9 N9 N9 N9 N9 N9 N9 N9 N9 N9 N9 N9 N9 N9 N9 N9 N9 N9 N9 N9 N9 N9 N9 N9 N9 N9 N9 N9 N9 N9 N9 N9 N9 N9 N9 N9 N9 N9 N9 N9 N9 N9 N9 N9 N9 N9 N9 N9 N9 N9 N9 N9 N9 N9 N9 N9 N9                         L6 L6 L6 L6 L6 L6 L6 L6 L6 L6 L6 L6 L6 L6 L6 L6 L6 L6 L6 L6 L6 L6 L6 L6 L6 L6 L6 L6 L6 L6 L6 L6 L6 L6 L6 L6 L6 L6 L6 L6 L6 L6 L6 L6 L6 L6 L6 L6 L6 L6 L6 L6 L6 L6 L6 L6 L6 L6 L6 L6 L6 L6 L6 L6 L6 L6 L6 L6 L6 L6 L6 L6 L6 L6 L6 L6 L6 L6 L6 L6 L6 L6 L6 L6 L6 L6 L6 L6 L6 L6 L6 L6 L6 L6 L6 L6                         K; K; K; K; K; K; K; K; K; K; K; K; K; K; K; K; K; K; K; K; K; K; K; K; K; K; K; K; K; K; K; K; K; K; K; K; K; K; K; K; K; K; K; K; K; K; K; K; K; K; K; K; K; K; K; K; K; K; K; K; K; K; K; K; K; K; K; K; K; K; K; K; K; K; K; K; K; K; K; K; K; K; K; K; K; K; K; K; K; K; K; K; K; K; K; K; ; ; ; ; ; ; ; ; ; ; ; ; ; ; ; ; ; ; ; ; ; ; ; ; G; G; G; G; G; G; G; G; G; G; G; G; G; G; G; G; G; G; G; G; G; G; G; G; G; G; G; G; G; G; G; G; G; G; G; G; G; G; G; G; G; G; G; G; G; G; G; G; G; G; G; G; G; G; G; G; G; G; G; G; G; G; G; G; G; G; G; G; G; G; G; G; G; G; G; G; G; G; G; G; G; G; G; G; G; G; G; G; G; G; G; G; G; G; G; G; ; ; ; ; ; ; ; ; ; ; ; ; ; ; ; ; ; ; ; ; ; ; ; ; I; I; I; I; I; I; I; I; I; I; I; I; I; I; I; I; I; I; I; I; I; I; I; I; I; I; I; I; I; I; I; I; I; I; I; I; I; I; I; I; I; I; I; I; I; I; I; I; I I I I I I I I I I I I I I I I I I I I I I I I I I I I I I I I I I I I I I I I I I I I I I I I                         K9 K9 K9 K9 K9 K9 K9 K9 K9 K9 K9 K9 K9 K9 K9 K9 K9 K9 K9 K9 K9 K9 K9 K9 K9 K9 K9 K9 K9 K9 K9 K9 K9 K9 K9 K9 K9 K9 K9 K9 K9 K9 K9 K9 K9 K9 K9 K9 K9 K9 K9 K9 K9 K9 K9 K9 K9 K9 K9 K9 K9 K9 K9 K9 K9 K9 K9 K9 K9 K9 K9 K9 K9 K9 K9 K9 K9 K9 K9 K9 K9 K9 K9 K9 K9 K9 K9 K9 K9 K9 K9 K9 K9 K9 K9 K9                         L7 L7 L7 L7 L7 L7 L7 L7 L7 L7 L7 L7 L7 L7 L7 L7 L7 L7 L7 L7 L7 L7 L7 L7 L7 L7 L7 L7 L7 L7 L7 L7 L7 L7 L7 L7 L7 L7 L7 L7 L7 L7 L7 L7 L7 L7 L7 L7 L7 L7 L7 L7 L7 L7 L7 L7 L7 L7 L7 L7 L7 L7 L7 L7 L7 L7 L7 L7 L7 L7 L7 L7 L7 L7 L7 L7 L7 L7 L7 L7 L7 L7 L7 L7 L7 L7 L7 L7 L7 L7 L7 L7 L7 L7 L7 L7                         N6 N6 N6 N6 N6 N6 N6 N6 N6 N6 N6 N6 N6 N6 N6 N6 N6 N6 N6 N6 N6 N6 N6 N6 N6 N6 N6 N6 N6 N6 N6 N6 N6 N6 N6 N6 N6 N6 N6 N6 N6 N6 N6 N6 N6 N6 N6 N6 N6 N6 N6 N6 N6 N6 N6 N6 N6 N6 N6 N6 N6 N6 N6 N6 N6 N6 N6 N6 N6 N6 N6 N6 N6 N6 N6 N6 N6 N6 N6 N6 N6 N6 N6 N6 N6 N6 N6 N6 N6 N6 N6 N6 N6 N6 N6 N6                         O4 O4 O4 O4 O4 O4 O4 O4 O4 O4 O4 O4 O4 O4 O4 O4 O4 O4 O4 O4 O4 O4 O4 O4 O4 O4 O4 O4 O4 O4 O4 O4 O4 O4 O4 O4 O4 O4 O4 O4 O4 O4 O4 O4 O4 O4 O4 O4 O4 O4 O4 O4 O4 O4 O4 O4 O4 O4 O4 O4 O4 O4 O4 O4 O4 O4 O4 O4 O4 O4 O4 O4 O4 O4 O4 O4 O4 O4 O4 O4 O4 O4 O4 O4 O4 O4 O4 O4 O4 O4 O4 O4 O4 O4 O4 O4                         Q3 Q3 Q3 Q3 Q3 Q3 Q3 Q3 Q3 Q3 Q3 Q3 Q3 Q3 Q3 Q3 Q3 Q3 Q3 Q3 Q3 Q3 Q3 Q3 Q3 Q3 Q3 Q3 Q3 Q3 Q3 Q3 Q3 Q3 Q3 Q3 Q3 Q3 Q3 Q3 Q3 Q3 Q3 Q3 Q3 Q3 Q3 Q3 Q3 Q3 Q3 Q3 Q3 Q3 Q3 Q3 Q3 Q3 Q3 Q3 Q3 Q3 Q3 Q3 Q3 Q3 Q3 Q3 Q3 Q3 Q3 Q3 Q3 Q3 Q3 Q3 Q3 Q3 Q3 Q3 Q3 Q3 Q3 Q3 Q3 Q3 Q3 Q3 Q3 Q3 Q3 Q3 Q3 Q3 Q3 Q3                         O4 O4 O4 O4 O4 O4 O4 O4 O4 O4 O4 O4 O4 O4 O4 O4 O4 O4 O4 O4 O4 O4 O4 O4 O4 O4 O4 O4 O4 O4 O4 O4 O4 O4 O4 O4 O4 O4 O4 O4 O4 O4 O4 O4 O4 O4 O4 O4 O4 O4 O4 O4 O4 O4 O4 O4 O4 O4 O4 O4 O4 O4 O4 O4 O4 O4 O4 O4 O4 O4 O4 O4 O4 O4 O4 O4 O4 O4 O4 O4 O4 O4 O4 O4 O4 O4 O4 O4 O4 O4 O4 O4 O4 O4 O4 O4                         N6 N6 N6 N6 N6 N6 N6 N6 N6 N6 N6 N6 N6 N6 N6 N6 N6 N6 N6 N6 N6 N6 N6 N6 N6 N6 N6 N6 N6 N6 N6 N6 N6 N6 N6 N6 N6 N6 N6 N6 N6 N6 N6 N6 N6 N6 N6 N6 N6 N6 N6 N6 N6 N6 N6 N6 N6 N6 N6 N6 N6 N6 N6 N6 N6 N6 N6 N6 N6 N6 N6 N6 N6 N6 N6 N6 N6 N6 N6 N6 N6 N6 N6 N6 N6 N6 N6 N6 N6 N6 N6 N6 N6 N6 N6 N6                         L7 L7 L7 L7 L7 L7 L7 L7 L7 L7 L7 L7 L7 L7 L7 L7 L7 L7 L7 L7 L7 L7 L7 L7 L7 L7 L7 L7 L7 L7 L7 L7 L7 L7 L7 L7 L7 L7 L7 L7 L7 L7 L7 L7 L7 L7 L7 L7 L7 L7 L7 L7 L7 L7 L7 L7 L7 L7 L7 L7 L7 L7 L7 L7 L7 L7 L7 L7 L7 L7 L7 L7 L7 L7 L7 L7 L7 L7 L7 L7 L7 L7 L7 L7 L7 L7 L7 L7 L7 L7 L7 L7 L7 L7 L7 L7                         J4 J4 J4 J4 J4 J4 J4 J4 J4 J4 J4 J4 J4 J4 J4 J4 J4 J4 J4 J4 J4 J4 J4 J4 J4 J4 J4 J4 J4 J4 J4 J4 J4 J4 J4 J4 J4 J4 J4 J4 J4 J4 J4 J4 J4 J4 J4 J4 J4 J4 J4 J4 J4 J4 J4 J4 J4 J4 J4 J4 J4 J4 J4 J4 J4 J4 J4 J4 J4 J4 J4 J4 J4 J4 J4 J4 J4 J4 J4 J4 J4 J4 J4 J4 J4 J4 J4 J4 J4 J4 J4 J4 J4 J4 J4 J4                         H9 H9 H9 H9 H9 H9 H9 H9 H9 H9 H9 H9 H9 H9 H9 H9 H9 H9 H9 H9 H9 H9 H9 H9 H9 H9 H9 H9 H9 H9 H9 H9 H9 H9 H9 H9 H9 H9 H9 H9 H9 H9 H9 H9 H9 H9 H9 H9 H9 H9 H9 H9 H9 H9 H9 H9 H9 H9 H9 H9 H9 H9 H9 H9 H9 H9 H9 H9 H9 H9 H9 H9 H9 H9 H9 H9 H9 H9 H9 H9 H9 H9 H9 H9 H9 H9 H9 H9 H9 H9 H9 H9 H9 H9 H9 H9 H H H H H H H H H H H H H H H H H H H H H H H H H; H; H; H; H; H; H; H; H; H; H; H; H; H; H; H; H; H; H; H; H; H; H; H; H; H; H; H; H; H; H; H; H; H; H; H; H; H; H; H; H; H; H; H; H; H; H; H; H; H; H; H; H; H; H; H; H; H; H; H; H; H; H; H; H; H; H; H; H; H; H; H; H; H; H; H; H; H; H; H; H; H; H; H; H; H; H; H; H; H; H; H; H; H; H; H; H H H H H H H H H H H H H H H H H H H H H H H H H9 H9 H9 H9 H9 H9 H9 H9 H9 H9 H9 H9 H9 H9 H9 H9 H9 H9 H9 H9 H9 H9 H9 H9 H9 H9 H9 H9 H9 H9 H9 H9 H9 H9 H9 H9 H9 H9 H9 H9 H9 H9 H9 H9 H9 H9 H9 H9 9 9 9 9 9 9 9 9 9 9 9 9 9 9 9 9 9 9 9 9 9 9 9 9 9 9 9 9 9 9 9 9 9 9 9 9 9 9 9 9 9 9 9 9 9 9 9 9                         G7 G7 G7 G7 G7 G7 G7 G7 G7 G7 G7 G7 G7 G7 G7 G7 G7 G7 G7 G7 G7 G7 G7 G7 G7 G7 G7 G7 G7 G7 G7 G7 G7 G7 G7 G7 G7 G7 G7 G7 G7 G7 G7 G7 G7 G7 G7 G7 G7 G7 G7 G7 G7 G7 G7 G7 G7 G7 G7 G7 G7 G7 G7 G7 G7 G7 G7 G7 G7 G7 G7 G7 G7 G7 G7 G7 G7 G7 G7 G7 G7 G7 G7 G7 G7 G7 G7 G7 G7 G7 G7 G7 G7 G7 G7 G7                         E6 E6 E6 E6 E6 E6 E6 E6 E6 E6 E6 E6 E6 E6 E6 E6 E6 E6 E6 E6 E6 E6 E6 E6 E6 E6 E6 E6 E6 E6 E6 E6 E6 E6 E6 E6 E6 E6 E6 E6 E6 E6 E6 E6 E6 E6 E6 E6 E6 E6 E6 E6 E6 E6 E6 E6 E6 E6 E6 E6 E6 E6 E6 E6 E6 E6 E6 E6 E6 E6 E6 E6 E6 E6 E6 E6 E6 E6 E6 E6 E6 E6 E6 E6 E6 E6 E6 E6 E6 E6 E6 E6 E6 E6 E6 E6                         H@ H@ H@ H@ H@ H@ H@ H@ H@ H@ H@ H@ H@ H@ H@ H@ H@ H@ H@ H@ H@ H@ H@ H@ H@ H@ H@ H@ H@ H@ H@ H@ H@ H@ H@ H@ H@ H@ H@ H@ H@ H@ H@ H@ H@ H@ H@ H@ H@ H@ H@ H@ H@ H@ H@ H@ H@ H@ H@ H@ H@ H@ H@ H@ H@ H@ H@ H@ H@ H@ H@ H@ H@ H@ H@ H@ H@ H@ H@ H@ H@ H@ H@ H@ H@ H@ H@ H@ H@ H@ H@ H@ H@ H@ H@ H@                         G? G? G? G? G? G? G? G? G? G? G? G? G? G? G? G? G? G? G? G? G? G? G? G? G? G? G? G? G? G? G? G? G? G? G? G? G? G? G? G? G? G? G? G? G? G? G? G? G? G? G? G? G? G? G? G? G? G? G? G? G? G? G? G? G? G? G? G? G? G? G? G? G? G? G? G? G? G? G? G? G? G? G? G? G? G? G? G? G? G? G? G? G? G? G? G?                         E; E; E; E; E; E; E; E; E; E; E; E; E; E; E; E; E; E; E; E; E; E; E; E; E; E; E; E; E; E; E; E; E; E; E; E; E; E; E; E; E; E; E; E; E; E; E; E; E; E; E; E; E; E; E; E; E; E; E; E; E; E; E; E; E; E; E; E; E; E; E; E; E; E; E; E; E; E; E; E; E; E; E; E; E; E; E; E; E; E; E; E; E; E; E; E;                         C@@ C@@ C@@ C@@ C@@ C@@ C@@ C@@ C@@ C@@ C@@ C@@ C@@ C@@ C@@ C@@ C@@ C@@ C@@ C@@ C@@ C@@ C@@ C@@ C@@ C@@ C@@ C@@ C@@ C@@ C@@ C@@ C@@ C@@ C@@ C@@ C@@ C@@ C@@ C@@ C@@ C@@ C@@ C@@ C@@ C@@ C@@ C@@ C@@ C@@ C@@ C@@ C@@ C@@ C@@ C@@ C@@ C@@ C@@ C@@ C@@ C@@ C@@ C@@ C@@ C@@ C@@ C@@ C@@ C@@ C@@ C@@ C@@ C@@ C@@ C@@ C@@ C@@ C@@ C@@ C@@ C@@ C@@ C@@ C@@ C@@ C@@ C@@ C@@ C@@ C@@ C@@ C@@ C@@ C@@ C@@ C@ C@ C@ C@ C@ C@ C@ C@ C@ C@ C@ C@ C@ C@ C@ C@ C@ C@ C@ C@ C@ C@ C@ C@ C@; C@; C@; C@; C@; C@; C@; C@; C@; C@; C@; C@; C@; C@; C@; C@; C@; C@; C@; C@; C@; C@; C@; C@; C@; C@; C@; C@; C@; C@; C@; C@; C@; C@; C@; C@; C@; C@; C@; C@; C@; C@; C@; C@; C@; C@; C@; C@; C@; C@; C@; C@; C@; C@; C@; C@; C@; C@; C@; C@; C@; C@; C@; C@; C@; C@; C@; C@; C@; C@; C@; C@; C@; C@; C@; C@; C@; C@; C@; C@; C@; C@; C@; C@; C@; C@; C@; C@; C@; C@; C@; C@; C@; C@; C@; C@; C@ C@ C@ C@ C@ C@ C@ C@ C@ C@ C@ C@ C@ C@ C@ C@ C@ C@ C@ C@ C@ C@ C@ C@ C@= C@= C@= C@= C@= C@= C@= C@= C@= C@= C@= C@= C@= C@= C@= C@= C@= C@= C@= C@= C@= C@= C@= C@= C@= C@= C@= C@= C@= C@= C@= C@= C@= C@= C@= C@= C@= C@= C@= C@= C@= C@= C@= C@= C@= C@= C@= C@= @= @= @= @= @= @= @= @= @= @= @= @= @= @= @= @= @= @= @= @= @= @= @= @= @= @= @= @= @= @= @= @= @= @= @= @= @= @= @= @= @= @= @= @= @= @= @= @= @ @ @ @ @ @ @ @ @ @ @ @ @ @ @ @ @ @ @ @ @ @ @ @ @B9 @B9 @B9 @B9 @B9 @B9 @B9 @B9 @B9 @B9 @B9 @B9 @B9 @B9 @B9 @B9 @B9 @B9 @B9 @B9 @B9 @B9 @B9 @B9 B9 B9 B9 B9 B9 B9 B9 B9 B9 B9 B9 B9 B9 B9 B9 B9 B9 B9 B9 B9 B9 B9 B9 B9 B9 B9 B9 B9 B9 B9 B9 B9 B9 B9 B9 B9 B9 B9 B9 B9 B9 B9 B9 B9 B9 B9 B9 B9 B9 B9 B9 B9 B9 B9 B9 B9 B9 B9 B9 B9 B9 B9 B9 B9 B9 B9 B9 B9 B9 B9 B9 B9                         ?B; ?B; ?B; ?B; ?B; ?B; ?B; ?B; ?B; ?B; ?B; ?B; ?B; ?B; ?B; ?B; ?B; ?B; ?B; ?B; ?B; ?B; ?B; ?B; ?B; ?B; ?B; ?B; ?B; ?B; ?B; ?B; ?B; ?B; ?B; ?B; ?B; ?B; ?B; ?B; ?B; ?B; ?B; ?B; ?B; ?B; ?B; ?B; ?B; ?B; ?B; ?B; ?B; ?B; ?B; ?B; ?B; ?B; ?B; ?B; ?B; ?B; ?B; ?B; ?B; ?B; ?B; ?B; ?B; ?B; ?B; ?B; ?B; ?B; ?B; ?B; ?B; ?B; ?B; ?B; ?B; ?B; ?B; ?B; ?B; ?B; ?B; ?B; ?B; ?B; ?B; ?B; ?B; ?B; ?B; ?B; ?B; ?B; ?B; ?B; ?B; ?B; ?B; ?B; ?B; ?B; ?B; ?B; ?B; ?B; ?B; ?B; ?B; ?B; ?B; ?B; ?B; ?B; ?B; ?B; ?B; ?B; ?B; ?B; ?B; ?B; ?B; ?B; ?B; ?B; ?B; ?B; ?B; ?B; ?B; ?B; ?B; ?B; ?B; ?B; ?B; ?B; ?B; ?B; ?B; ?B; ?B; ?B; ?B; ?B; ?B; ?B; ?B; ?B; ?B; ?B; ?B; ?B; ?B; ?B; ?B; ?B; ?B; ?B; ?B; ?B; ?B; ?B; ?B; ?B; ?B; ?B; ?B; ?B; ?B; ?B; ?B; ?B; ?B; ?B; ?B ?B ?B ?B ?B ?B ?B ?B ?B ?B ?B ?B ?B ?B ?B ?B ?B ?B ?B ?B ?B ?B ?B ?B ?B ?B ?B ?B ?B ?B ?B ?B ?B ?B ?B ?B ?B ?B ?B ?B ?B ?B ?B ?B ?B ?B ?B ?B ?B ?B ?B ?B ?B ?B ?B ?B ?B ?B ?B ?B ?B/ ?B/ ?B/ ?B/ ?B/ ?B/ ?B/ ?B/ ?B/ ?B/ ?B/ ?B/ ?B/ ?B/ ?B/ ?B/ ?B/ ?B/ ?B/ ?B/ ?B/ ?B/ ?B/ ?B/ ?B/ ?B/ ?B/ ?B/ ?B/ ?B/ ?B/ ?B/ ?B/ ?B/ ?B/ ?B/ ?B/ ?B/ ?B/ ?B/ ?B/ ?B/ ?B/ ?B/ ?B/ ?B/ ?B/ ?B/ / / / / / / / / / / / / / / / / / / / / / / / / / / / / / / / / / / / / / / / / / / / / / / / / / / / / / / / / / / / / / / / / / / / / / / / / Q/ Q/ Q/ Q/ Q/ Q/ Q/ Q/ Q/ Q/ Q/ Q/ Q/ Q/ Q/ Q/ Q/ Q/ Q/ Q/ Q/ Q/ Q/ Q/ Q/ Q/ Q/ Q/ Q/ Q/ Q/ Q/ Q/ Q/ Q/ Q/ Q/ Q/ Q/ Q/ Q/ Q/ Q/ Q/ Q/ Q/ Q/ Q/ Q/ Q/ Q/ Q/ Q/ Q/ Q/ Q/ Q/ Q/ Q/ Q/ Q Q Q Q Q Q Q Q Q Q Q Q Q Q Q Q Q Q Q Q Q Q Q Q Q Q Q Q Q Q Q Q Q Q Q Q                         O O O O O O O O O O O O O O O O O O O O O O O O O O O O O O O O O O O O O O O O O O O O O O O O O O O O O O O O O O O O O O O O O O O O O O O O O O O O O O O O O O O O O O O O O O O O O O O O                         N N N N N N N N N N N N N N N N N N N N N N N N N N N N N N N N N N N N N N N N N N N N N N N N N N N N N N N N N N N N N N N N N N N N N N N N N N N N N N N N N N N N N N N N N N N N N N N N                         L L L L L L L L L L L L L L L L L L L L L L L L L L L L L L L L L L L L L L L L L L L L L L L L L L L L L L L L L L L L L L L L L L L L L L L L L L L L L L L L L L L L L L L L L L L L L L L L                         K K K K K K K K K K K K K K K K K K K K K K K K K K K K K K K K K K K K K K K K K K K K K K K K K K K K K K K K K K K K K K K K K K K K K K K K K K K K K K K K K K K K K K K K K K K K K K K K                         I I I I I I I I I I I I I I I I I I I I I I I I I I I I I I I I I I I I I I I I I I I I I I I I I I I I I I I I I I I I I I I I I I I I I I I I I I I I I I I I I I I I I I I I I I I I I I I I                         G G G G G G G G G G G G G G G G G G G G G G G G G G G G G G G G G G G G G G G G G G G G G G G G G G G G G G G G G G G G G G G G G G G G G G G G G G G G G G G G G G G G G G G G G G G G G G G G G G G G G G G G G G G G G G G G G G G G G G G G GO@; GO@; GO@; GO@; GO@; GO@; GO@; GO@; GO@; GO@; GO@; GO@; GO@; GO@; GO@; GO@; GO@; GO@; GO@; GO@; GO@; GO@; GO@; GO@; GO@; GO@; GO@; GO@; GO@; GO@; GO@; GO@; GO@; GO@; GO@; GO@; GO@; GO@; GO@; GO@; GO@; GO@; GO@; GO@; GO@; GO@; GO@; GO@; GO@; GO@; GO@; GO@; GO@; GO@; GO@; GO@; GO@; GO@; GO@; GO@; GO@; GO@; GO@; GO@; GO@; GO@; GO@; GO@; GO@; GO@; GO@; GO@; GO@; GO@; GO@; GO@; GO@; GO@; GO@; GO@; GO@; GO@; GO@; GO@; GO@; GO@; GO@; GO@; GO@; GO@; GO@; GO@; GO@; GO@; GO@; GO@; GO@; GO@; GO@; GO@; GO@; GO@; GO@; GO@; GO@; GO@; GO@; GO@; GO@; GO@; GO@; GO@; GO@; GO@; GO@; GO@; GO@; GO@; GO@; GO@; GO@; GO@; GO@; GO@; GO@; GO@; GO@; GO@; GO@; GO@; GO@; GO@; GO@; GO@; GO@; GO@; GO@; GO@; GO@; GO@; GO@; GO@; GO@; GO@; GO@; GO@; GO@; GO@; GO@; GO@; GO@; GO@; GO@; GO@; GO@; GO@; GO@; GO@; GO@; GO@; GO@; GO@; GO@; GO@; GO@; GO@; GO@; GO@; GO@; GO@; GO@; GO@; GO@; GO@; GO@; GO@; GO@; GO@; GO@; GO@; GO; GO; GO; GO; GO; GO; GO; GO; GO; GO; GO; GO;                                                 G?B; G?B; G?B; G?B; G?B; G?B; G?B; G?B; G?B; G?B; G?B; G?B; G?B; G?B; G?B; G?B; G?B; G?B; G?B; G?B; G?B; G?B; G?B; G?B; ?B; ?B; ?B; ?B; ?B; ?B; E?B; E?B; E?B; E?B; E?B; E?B; E?B; E?B; E?B; E?B; E?B; E?B; E?B; E?B; E?B; E?B; E?B; E?B; E?B; E?B; E?B; E?B; E?B; E?B; ?B; ?B; ?B; ?B; ?B; ?B; G?B; G?B; G?B; G?B; G?B; G?B; G?B; G?B; G?B; G?B; G?B; G?B; G?B; G?B; G?B; G?B; G?B; G?B; G?B; G?B; G?B; G?B; G?B; G?B; ?B; ?B; ?B; ?B; ?B; ?B; E?B; E?B; E?B; E?B; E?B; E?B; E?B; E?B; E?B; E?B; E?B; E?B; E?B; E?B; E?B; E?B; E?B; E?B; E?B; E?B; E?B; E?B; E?B; E?B; ?B; ?B; ?B; ?B; ?B; ?B; ?BE; ?BE; ?BE; ?BE; ?BE; ?BE; ?BE; ?BE; ?BE; ?BE; ?BE; ?BE; ?BE; ?BE; ?BE; ?BE; ?BE; ?BE; ?BE; ?BE; ?BE; ?BE; ?BE; ?BE; ?BE; ?BE; ?BE; ?BE; ?BE; ?BE; ?BE; ?BE; ?BE; ?BE; ?BE; ?BE; ?BE; ?BE; ?BE; ?BE; ?BE; ?BE; ?BE; ?BE; ?BE; ?BE; ?BE; ?BE; ?BE; ?BE; ?BE; ?BE; ?BE; ?BE; ?BE; ?BE; ?BE; ?BE; ?BE; ?BE; ?BE ?BE ?BE ?BE ?BE ?BE ?BE ?BE ?BE ?BE ?BE ?BE ?BE ?BE ?BE ?BE ?BE ?BE ?BE ?BE ?BE ?BE ?BE ?BE ?BE ?BE ?BE ?BE ?BE ?BE ?BE ?BE ?BE ?BE ?BE ?BE ?BE ?BE ?BE ?BE ?BE ?BE ?BE ?BE ?BE ?BE ?BE ?BE ?BE ?BE ?BE ?BE ?BE ?BE ?BE ?BE ?BE ?BE ?BE ?BE ?BE/ ?BE/ ?BE/ ?BE/ ?BE/ ?BE/ ?BE/ ?BE/ ?BE/ ?BE/ ?BE/ ?BE/ ?BE/ ?BE/ ?BE/ ?BE/ ?BE/ ?BE/ ?BE/ ?BE/ ?BE/ ?BE/ ?BE/ ?BE/ ?BE/ ?BE/ ?BE/ ?BE/ ?BE/ ?BE/ ?BE/ ?BE/ ?BE/ ?BE/ ?BE/ ?BE/ ?BE/ ?BE/ ?BE/ ?BE/ ?BE/ ?BE/ ?BE/ ?BE/ ?BE/ ?BE/ ?BE/ ?BE/ E/ E/ E/ E/ E/ E/ E/ E/ E/ E/ E/ E/ E/ E/ E/ E/ E/ E/ E/ E/ E/ E/ E/ E/ / / / / / / / / / / / / / / / / / / / / / / / / / / / / / / / / / / / / / / / / / / / / / / / / O/ O/ O/ O/ O/ O/ O/ O/ O/ O/ O/ O/ O/ O/ O/ O/ O/ O/ O/ O/ O/ O/ O/ O/ O/ O/ O/ O/ O/ O/ O/ O/ O/ O/ O/ O/ O/ O/ O/ O/ O/ O/ O/ O/ O/ O/ O/ O/ O/ O/ O/ O/ O/ O/ O/ O/ O/ O/ O/ O/ O O O O O O O O O O O O O O O O O O O O O O O O O O O O O O O O O O O O                         N N N N N N N N N N N N N N N N N N N N N N N N N N N N N N N N N N N N N N N N N N N N N N N N N N N N N N N N N N N N N N N N N N N N N N N N N N N N N N N N N N N N N N N N N N N N N N N N                         L L L L L L L L L L L L L L L L L L L L L L L L L L L L L L L L L L L L L L L L L L L L L L L L L L L L L L L L L L L L L L L L L L L L L L L L L L L L L L L L L L L L L L L L L L L L L L L L                         K K K K K K K K K K K K K K K K K K K K K K K K K K K K K K K K K K K K K K K K K K K K K K K K K K K K K K K K K K K K K K K K K K K K K K K K K K K K K K K K K K K K K K K K K K K K K K K K                         I I I I I I I I I I I I I I I I I I I I I I I I I I I I I I I I I I I I I I I I I I I I I I I I I I I I I I I I I I I I I I I I I I I I I I I I I I I I I I I I I I I I I I I I I I I I I I I I                         G G G G G G G G G G G G G G G G G G G G G G G G G G G G G G G G G G G G G G G G G G G G G G G G G G G G G G G G G G G G G G G G G G G G G G G G G G G G G G G G G G G G G G G G G G G G G G G G                         E E E E E E E E E E E E E E E E E E E E E E E E E E E E E E E E E E E E E E E E E E E E E E E E E E E E E E E E E E E E E E E E E E E E E E E E E E E E E E E E E E E E E E E E E E E E E E E E E E E E E E E E E E E E E E E E E E E E E E E E NEB?; NEB?; NEB?; NEB?; NEB?; NEB?; NEB?; NEB?; NEB?; NEB?; NEB?; NEB?; NEB?; NEB?; NEB?; NEB?; NEB?; NEB?; NEB?; NEB?; NEB?; NEB?; NEB?; NEB?; NEB?; NEB?; NEB?; NEB?; NEB?; NEB?; NEB?; NEB?; NEB?; NEB?; NEB?; NEB?; NEB?; NEB?; NEB?; NEB?; NEB?; NEB?; NEB?; NEB?; NEB?; NEB?; NEB?; NEB?; NEB?; NEB?; NEB?; NEB?; NEB?; NEB?; NEB?; NEB?; NEB?; NEB?; NEB?; NEB?; NEB?; NEB?; NEB?; NEB?; NEB?; NEB?; NEB?; NEB?; NEB?; NEB?; NEB?; NEB?; NEB?; NEB?; NEB?; NEB?; NEB?; NEB?; NEB?; NEB?; NEB?; NEB?; NEB?; NEB?; NEB?; NEB?; NEB?; NEB?; NEB?; NEB?; NEB?; NEB?; NEB?; NEB?; NEB?; NEB?; NEB?; NEB?; NEB?; NEB?; NEB?; NEB?; NEB?; NEB?; NEB?; NEB?; NEB?; NEB?; NEB?; NEB?; NEB?; NEB?; NEB?; NEB?; NEB?; NEB?; NEB?; NEB?; NEB?; NEB?; NEB?; NEB?; NEB?; NEB?; NEB?; NEB?; NEB?; NEB?; NEB?; NEB?; NEB?; NEB?; NEB?; NEB?; NEB?; NEB?; NEB?; NEB?; NEB?; NEB?; NEB?; NEB?; NEB?; NEB?; NEB?; NEB?; NEB?; NEB?; NEB?; NEB?; NEB?; NEB?; NEB?; NEB?; NEB?; NEB?; NEB?; NEB?; NEB?; NEB?; NEB?; NEB?; NEB?; NEB?; NEB?; NEB?; NEB?; NEB?; NEB?; NEB?; NEB?; NEB?; NEB?; NEB?; NEB?; NEB?; NEB?; NEB?; NEB?; NEB?; NE?; NE?; NE?; NE?; NE?; NE?; NE?; NE?; NE?; NE?; NE?; NE?;                                                 C@; C@; C@; C@; C@; C@; C@; C@; C@; C@; C@; C@; C@; C@; C@; C@; C@; C@; C@; C@; C@; C@; C@; C@; C@; C@; C@; C@; C@; C@; C@; C@; C@; C@; C@; C@; C@; C@; C@; C@; C@; C@; C@; C@; C@; C@; C@; C@; C@; C@; C@; C@; C@; C@; C@; C@; C@; C@; C@; C@; C@; C@; C@; C@; C@; C@; C@; C@; C@; C@; C@; C@; C@; C@; C@; C@; C@; C@; C@; C@; C@; C@; C@; C@; C@; C@; C@; C@; C@; C@; C@; C@; C@; C@; C@; C@; C@; C@; C@; C@; C@; C@; C@; C@; C@; C@; C@; C@; C@; C@; C@; C@; C@; C@; C@; C@; C@; C@; C@; C@; C@; C@; C@; C@; C@; C@; C@; C@; C@; C@; C@; C@; C@; C@; C@; C@; C@; C@; C@; C@; C@; C@; C@; C@; C@; C@; C@; C@; C@; C@; C@; C@; C@; C@; C@; C@; C@; C@; C@; C@; C@; C@; C@; C@; C@; C@; C@; C@; C@; C@; C@; C@; C@; C@; C@; C@; C@; C@; C@; C@; C@ C@ C@ C@ C@ C@ C@ C@ C@ C@ C@ C@ C@ C@ C@ C@ C@ C@ C@ C@ C@ C@ C@ C@ C@ C@ C@ C@ C@ C@ C@ C@ C@ C@ C@ C@ C@ C@ C@ C@ C@ C@ C@ C@ C@ C@ C@ C@ C@ C@ C@ C@ C@ C@ C@ C@ C@ C@ C@ C@ C@/ C@/ C@/ C@/ C@/ C@/ C@/ C@/ C@/ C@/ C@/ C@/ C@/ C@/ C@/ C@/ C@/ C@/ C@/ C@/ C@/ C@/ C@/ C@/ C@/ C@/ C@/ C@/ C@/ C@/ C@/ C@/ C@/ C@/ C@/ C@/ C@/ C@/ C@/ C@/ C@/ C@/ C@/ C@/ C@/ C@/ C@/ C@/ @/ @/ @/ @/ @/ @/ @/ @/ @/ @/ @/ @/ @/ @/ @/ @/ @/ @/ @/ @/ @/ @/ @/ @/ @/ @/ @/ @/ @/ @/ @/ @/ @/ @/ @/ @/ @/ @/ @/ @/ @/ @/ @/ @/ @/ @/ @/ @/ @/ @/ @/ @/ @/ @/ @/ @/ @/ @/ @/ @/ @/ @/ @/ @/ @/ @/ @/ @/ @/ @/ @/ @/ @G/ @G/ @G/ @G/ @G/ @G/ @G/ @G/ @G/ @G/ @G/ @G/ @G/ @G/ @G/ @G/ @G/ @G/ @G/ @G/ @G/ @G/ @G/ @G/ G/ G/ G/ G/ G/ G/ G/ G/ G/ G/ G/ G/ G/ G/ G/ G/ G/ G/ G/ G/ G/ G/ G/ G/ G/ G/ G/ G/ G/ G/ G/ G/ G/ G/ G/ G/ G/ G/ G/ G/ G/ G/ G/ G/ G/ G/ G/ G/ G/ G/ G/ G/ G/ G/ G/ G/ G/ G/ G/ G/ G/ G/ G/ G/ G/ G/ G/ G/ G/ G/ G/ G/ / / / / / / / / / / / / / / / / / / / / / / / / I/ I/ I/ I/ I/ I/ I/ I/ I/ I/ I/ I/ I/ I/ I/ I/ I/ I/ I/ I/ I/ I/ I/ I/ I/ I/ I/ I/ I/ I/ I/ I/ I/ I/ I/ I/ I/ I/ I/ I/ I/ I/ I/ I/ I/ I/ I/ I/ I/ I/ I/ I/ I/ I/ I/ I/ I/ I/ I/ I/ I/ I/ I/ I/ I/ I/ I/ I/ I/ I/ I/ I/ I/ I/ I/ I/ I/ I/ I/ I/ I/ I/ I/ I/ I/ I/ I/ I/ I/ I/ I/ I/ I/ I/ I/ I/                         K/ K/ K/ K/ K/ K/ K/ K/ K/ K/ K/ K/ K/ K/ K/ K/ K/ K/ K/ K/ K/ K/ K/ K/ K/ K/ K/ K/ K/ K/ K/ K/ K/ K/ K/ K/ K/ K/ K/ K/ K/ K/ K/ K/ K/ K/ K/ K/ K/ K/ K/ K/ K/ K/ K/ K/ K/ K/ K/ K/ K/ K/ K/ K/ K/ K/ K/ K/ K/ K/ K/ K/ K/ K/ K/ K/ K/ K/ K/ K/ K/ K/ K/ K/ K/ K/ K/ K/ K/ K/ K/ K/ K/ K/ K/ K/                         L1 L1 L1 L1 L1 L1 L1 L1 L1 L1 L1 L1 L1 L1 L1 L1 L1 L1 L1 L1 L1 L1 L1 L1 L1 L1 L1 L1 L1 L1 L1 L1 L1 L1 L1 L1 L1 L1 L1 L1 L1 L1 L1 L1 L1 L1 L1 L1 L1 L1 L1 L1 L1 L1 L1 L1 L1 L1 L1 L1 L1 L1 L1 L1 L1 L1 L1 L1 L1 L1 L1 L1 L1 L1 L1 L1 L1 L1 L1 L1 L1 L1 L1 L1 L1 L1 L1 L1 L1 L1 L1 L1 L1 L1 L1 L1                         N3 N3 N3 N3 N3 N3 N3 N3 N3 N3 N3 N3 N3 N3 N3 N3 N3 N3 N3 N3 N3 N3 N3 N3 N3 N3 N3 N3 N3 N3 N3 N3 N3 N3 N3 N3 N3 N3 N3 N3 N3 N3 N3 N3 N3 N3 N3 N3 N3 N3 N3 N3 N3 N3 N3 N3 N3 N3 N3 N3 N3 N3 N3 N3 N3 N3 N3 N3 N3 N3 N3 N3 N3 N3 N3 N3 N3 N3 N3 N3 N3 N3 N3 N3 N3 N3 N3 N3 N3 N3 N3 N3 N3 N3 N3 N3                         O4 O4 O4 O4 O4 O4 O4 O4 O4 O4 O4 O4 O4 O4 O4 O4 O4 O4 O4 O4 O4 O4 O4 O4 O4 O4 O4 O4 O4 O4 O4 O4 O4 O4 O4 O4 O4 O4 O4 O4 O4 O4 O4 O4 O4 O4 O4 O4 O4 O4 O4 O4 O4 O4 O4 O4 O4 O4 O4 O4 O4 O4 O4 O4 O4 O4 O4 O4 O4 O4 O4 O4 O4 O4 O4 O4 O4 O4 O4 O4 O4 O4 O4 O4 O4 O4 O4 O4 O4 O4 O4 O4 O4 O4 O4 O4                         Q6 Q6 Q6 Q6 Q6 Q6 Q6 Q6 Q6 Q6 Q6 Q6 Q6 Q6 Q6 Q6 Q6 Q6 Q6 Q6 Q6 Q6 Q6 Q6 Q6 Q6 Q6 Q6 Q6 Q6 Q6 Q6 Q6 Q6 Q6 Q6 Q6 Q6 Q6 Q6 Q6 Q6 Q6 Q6 Q6 Q6 Q6 Q6 Q6 Q6 Q6 Q6 Q6 Q6 Q6 Q6 Q6 Q6 Q6 Q6 Q6 Q6 Q6 Q6 Q6 Q6 Q6 Q6 Q6 Q6 Q6 Q6 Q6 Q6 Q6 Q6 Q6 Q6 Q6 Q6 Q6 Q6 Q6 Q6 Q6 Q6 Q6 Q6 Q6 Q6 Q6 Q6 Q6 Q6 Q6 Q6 Q Q Q Q Q Q Q Q Q Q Q Q Q Q Q Q Q Q Q Q Q Q Q Q IQ7 IQ7 IQ7 IQ7 IQ7 IQ7 IQ7 IQ7 IQ7 IQ7 IQ7 IQ7 IQ7 IQ7 IQ7 IQ7 IQ7 IQ7 IQ7 IQ7 IQ7 IQ7 IQ7 IQ7 IQ7 IQ7 IQ7 IQ7 IQ7 IQ7 IQ7 IQ7 IQ7 IQ7 IQ7 IQ7 IQ7 IQ7 IQ7 IQ7 IQ7 IQ7 IQ7 IQ7 IQ7 IQ7 IQ7 IQ7 IQ7 IQ7 IQ7 IQ7 IQ7 IQ7 IQ7 IQ7 IQ7 IQ7 IQ7 IQ7 IQ7 IQ7 IQ7 IQ7 IQ7 IQ7 IQ7 IQ7 IQ7 IQ7 IQ7 IQ7 IQ7 IQ7 IQ7 IQ7 IQ7 IQ7 IQ7 IQ7 IQ7 IQ7 IQ7 IQ7 IQ7 IQ7 IQ7 IQ7 IQ7 IQ7 IQ7 IQ7 IQ7 IQ7 IQ7 IQ7 IQ IQ IQ IQ IQ IQ IQ IQ IQ IQ IQ IQ IQ IQ IQ IQ IQ IQ IQ IQ IQ IQ IQ IQ IQ9 IQ9 IQ9 IQ9 IQ9 IQ9 IQ9 IQ9 IQ9 IQ9 IQ9 IQ9 IQ9 IQ9 IQ9 IQ9 IQ9 IQ9 IQ9 IQ9 IQ9 IQ9 IQ9 IQ9 IQ9 IQ9 IQ9 IQ9 IQ9 IQ9 IQ9 IQ9 IQ9 IQ9 IQ9 IQ9 IQ9 IQ9 IQ9 IQ9 IQ9 IQ9 IQ9 IQ9 IQ9 IQ9 IQ9 IQ9 IQ9 IQ9 IQ9 IQ9 IQ9 IQ9 IQ9 IQ9 IQ9 IQ9 IQ9 IQ9 IQ9 IQ9 IQ9 IQ9 IQ9 IQ9 IQ9 IQ9 IQ9 IQ9 IQ9 IQ9 Q9 Q9 Q9 Q9 Q9 Q9 Q9 Q9 Q9 Q9 Q9 Q9 Q9 Q9 Q9 Q9 Q9 Q9 Q9 Q9 Q9 Q9 Q9 Q9 Q Q Q Q Q Q Q Q Q Q Q Q Q Q Q Q Q Q Q Q Q Q Q Q IQ; IQ; IQ; IQ; IQ; IQ; IQ; IQ; IQ; IQ; IQ; IQ; IQ; IQ; IQ; IQ; IQ; IQ; IQ; IQ; IQ; IQ; IQ; IQ; IQ; IQ; IQ; IQ; IQ; IQ; IQ; IQ; IQ; IQ; IQ; IQ; IQ; IQ; IQ; IQ; IQ; IQ; IQ; IQ; IQ; IQ; IQ; IQ; IQ; IQ; IQ; IQ; IQ; IQ; IQ; IQ; IQ; IQ; IQ; IQ; IQ; IQ; IQ; IQ; IQ; IQ; IQ; IQ; IQ; IQ; IQ; IQ; IQ; IQ; IQ; IQ; IQ; IQ; IQ; IQ; IQ; IQ; IQ; IQ; IQ; IQ; IQ; IQ; IQ; IQ; IQ; IQ; IQ; IQ; IQ; IQ; Q Q Q Q Q Q Q Q Q Q Q Q Q Q Q Q Q Q Q Q Q Q Q Q QK= QK= QK= QK= QK= QK= QK= QK= QK= QK= QK= QK= QK= QK= QK= QK= QK= QK= QK= QK= QK= QK= QK= QK= QK= QK= QK= QK= QK= QK= QK= QK= QK= QK= QK= QK= QK= QK= QK= QK= QK= QK= QK= QK= QK= QK= QK= QK= QK= QK= QK= QK= QK= QK= QK= QK= QK= QK= QK= QK= QK= QK= QK= QK= QK= QK= QK= QK= QK= QK= QK= QK= QK= QK= QK= QK= QK= QK= QK= QK= QK= QK= QK= QK= QK= QK= QK= QK= QK= QK= QK= QK= QK= QK= QK= QK= QK QK QK QK QK QK QK QK QK QK QK QK QK QK QK QK QK QK QK QK QK QK QK QK QK? QK? QK? QK? QK? QK? QK? QK? QK? QK? QK? QK? QK? QK? QK? QK? QK? QK? QK? QK? QK? QK? QK? QK? QK? QK? QK? QK? QK? QK? QK? QK? QK? QK? QK? QK? QK? QK? QK? QK? QK? QK? QK? QK? QK? QK? QK? QK? K? K? K? K? K? K? K? K? K? K? K? K? K? K? K? K? K? K? K? K? K? K? K? K? K? K? K? K? K? K? K? K? K? K? K? K? K? K? K? K? K? K? K? K? K? K? K? K? K K K K K K K K K                S; S; S; S; S; S; S; S; S; S; S; S; S; S; S; S; S; S; S; S; S; S; S; S; S; S; S; S; S; S; S; S; S; S; S; S; S; S; S; S; S; S; S; S; S; S; S; S; S; S; S; S; S; S; S; S; S; S; S; S; S; S; S; S; S; S; S; S; S; S; S; S; S; S; S; S; S; S; S; S; S; S; S; S; S; S; S; S; S; S; S; S; S; S; S; S;                         OL@ OL@ OL@ OL@ OL@ OL@ OL@ OL@ OL@ OL@ OL@ OL@ OL@ OL@ OL@ OL@ OL@ OL@ OL@ OL@ OL@ OL@ OL@ OL@ OL@ OL@ OL@ OL@ OL@ OL@ OL@ OL@ OL@ OL@ OL@ OL@ OL@ OL@ OL@ OL@ OL@ OL@ OL@ OL@ OL@ OL@ OL@ OL@ OL@ OL@ OL@ OL@ OL@ OL@ OL@ OL@ OL@ OL@ OL@ OL@ OL@ OL@ OL@ OL@ OL@ OL@ OL@ OL@ OL@ OL@ OL@ OL@ OL@ OL@ OL@ OL@ OL@ OL@ OL@ OL@ OL@ OL@ OL@ OL@ OL@ OL@ OL@ OL@ OL@ OL@ OL@ OL@ OL@ OL@ OL@ OL@ OL@ OL@ OL@ OL@ OL@ OL@ OL@ OL@ OL@ OL@ OL@ OL@ OL@ OL@ OL@ OL@ OL@ OL@ OL@ OL@ OL@ OL@ OL@ OL@ OL@ OL@ OL@ OL@ OL@ OL@ OL@ OL@ OL@ OL@ OL@ OL@ OL@ OL@ OL@ OL@ OL@ OL@ OL@ OL@ OL@ OL@ OL@ OL@ OL@ OL@ OL@ OL@ OL@ OL@ OL@ OL@ OL@ OL@ OL@ OL@ OL@ OL@ OL@ OL@ OL@ OL@ OL@ OL@ OL@ OL@ OL@ OL@ OL@ OL@ OL@ OL@ OL@ OL@ OL@ OL@ OL@ OL@ OL@ OL@ OL OL OL OL OL OL OL OL OL OL OL OL OL OL OL OL OL OL OL OL OL OL OL OL OL OL OL OL OL OL OL OL OL OL OL OL OL OL OL OL OL OL OL OL OL OL OL OL OL OL OL OL OL OL OL OL OL OL OL OL OL9 OL9 OL9 OL9 OL9 OL9 OL9 OL9 OL9 OL9 OL9 OL9 OL9 OL9 OL9 OL9 OL9 OL9 OL9 OL9 OL9 OL9 OL9 OL9 OL9 OL9 OL9 OL9 OL9 OL9 OL9 OL9 OL9 OL9 OL9 OL9 OL9 OL9 OL9 OL9 OL9 OL9 OL9 OL9 OL9 OL9 OL9 OL9 L9 L9 L9 L9 L9 L9 L9 L9 L9 L9 L9 L9 L9 L9 L9 L9 L9 L9 L9 L9 L9 L9 L9 L9 L9 L9 L9 L9 L9 L9 L9 L9 L9 L9 L9 L9 L9 L9 L9 L9 L9 L9 L9 L9 L9 L9 L9 L9 L9 L9 L9 L9 L9 L9 L9 L9 L9 L9 L9 L9 L9 L9 L9 L9 L9 L9 L9 L9 L9 L9 L9 L9 LN9 LN9 LN9 LN9 LN9 LN9 LN9 LN9 LN9 LN9 LN9 LN9 LN9 LN9 LN9 LN9 LN9 LN9 LN9 LN9 LN9 LN9 LN9 LN9 N9 N9 N9 N9 N9 N9 N9 N9 N9 N9 N9 N9 N9 N9 N9 N9 N9 N9 N9 N9 N9 N9 N9 N9 N9 N9 N9 N9 N9 N9 N9 N9 N9 N9 N9 N9 N N N N N N N N N N N N N N N N N N N N N N N N N N N N N N N N N N N N                         OK; OK; OK; OK; OK; OK; OK; OK; OK; OK; OK; OK; OK; OK; OK; OK; OK; OK; OK; OK; OK; OK; OK; OK; K; K; K; K; K; K; NK; NK; NK; NK; NK; NK; NK; NK; NK; NK; NK; NK; NK; NK; NK; NK; NK; NK; NK; NK; NK; NK; NK; NK; K; K; K; K; K; K; OK; OK; OK; OK; OK; OK; OK; OK; OK; OK; OK; OK; OK; OK; OK; OK; OK; OK; OK; OK; OK; OK; OK; OK; K; K; K; K; K; K; NK; NK; NK; NK; NK; NK; NK; NK; NK; NK; NK; NK; NK; NK; NK; NK; NK; NK; NK; NK; NK; NK; NK; NK; K; K; K; K; K; K; OK; OK; OK; OK; OK; OK; OK; OK; OK; OK; OK; OK; OK; OK; OK; OK; OK; OK; OK; OK; OK; OK; OK; OK; K; K; K; K; K; K; NK; NK; NK; NK; NK; NK; NK; NK; NK; NK; NK; NK; NK; NK; NK; NK; NK; NK; NK; NK; NK; NK; NK; NK; K; K; K; K; K; K; OK OK OK OK OK OK OK OK OK OK OK OK OK OK OK OK OK OK OK OK OK OK OK OK K K K K K K NK NK NK NK NK NK NK NK NK NK NK NK NK NK NK NK NK NK NK NK NK NK NK NK K K K K K K OK/ OK/ OK/ OK/ OK/ OK/ OK/ OK/ OK/ OK/ OK/ OK/ OK/ OK/ OK/ OK/ OK/ OK/ OK/ OK/ OK/ OK/ OK/ OK/ K/ K/ K/ K/ K/ K/ NK/ NK/ NK/ NK/ NK/ NK/ NK/ NK/ NK/ NK/ NK/ NK/ NK/ NK/ NK/ NK/ NK/ NK/ NK/ NK/ NK/ NK/ NK/ NK/ K/ K/ K/ K/ K/ K/ OK/ OK/ OK/ OK/ OK/ OK/ OK/ OK/ OK/ OK/ OK/ OK/ OK/ OK/ OK/ OK/ OK/ OK/ OK/ OK/ OK/ OK/ OK/ OK/ K/ K/ K/ K/ K/ K/ NK/ NK/ NK/ NK/ NK/ NK/ NK/ NK/ NK/ NK/ NK/ NK/ NK/ NK/ NK/ NK/ NK/ NK/ NK/ NK/ NK/ NK/ NK/ NK/ K/ K/ K/ K/ K/ K/ KL/ KL/ KL/ KL/ KL/ KL/ KL/ KL/ KL/ KL/ KL/ KL/ KL/ KL/ KL/ KL/ KL/ KL/ KL/ KL/ KL/ KL/ KL/ KL/ L/ L/ L/ L/ L/ L/ L/ L/ L/ L/ L/ L/ L/ L/ L/ L/ L/ L/ L/ L/ L/ L/ L/ L/ L/ L/ L/ L/ L/ L/ L/ L/ L/ L/ L/ L/ L L L L L L L L L L L L L L L L L L L L L L L L L L L L L L L L L L L L                         L4 L4 L4 L4 L4 L4 L4 L4 L4 L4 L4 L4 L4 L4 L4 L4 L4 L4 L4 L4 L4 L4 L4 L4 L4 L4 L4 L4 L4 L4 L4 L4 L4 L4 L4 L4 L4 L4 L4 L4 L4 L4 L4 L4 L4 L4 L4 L4 L4 L4 L4 L4 L4 L4 L4 L4 L4 L4 L4 L4 L4 L4 L4 L4 L4 L4 L4 L4 L4 L4 L4 L4 L4 L4 L4 L4 L4 L4 L4 L4 L4 L4 L4 L4 L4 L4 L4 L4 L4 L4 L4 L4 L4 L4 L4 L4 L4 L4 L4 L4 L4 L4 L4 L4 L4 L4 L4 L4 L4 L4 L4 L4 L4 L4 L4 L4 L4 L4 L4 L4 L4 L4 L4 L4 L4 L4 L4 L4 L4 L4 L4 L4 L4 L4 L4 L4 L4 L4 L4 L4 L4 L4 L4 L4 L4 L4 L4 L4 L4 L4 L4 L4 L4 L4 L4 L4 L4 L4 L4 L4 L4 L4 L4 L4 L4 L4 L4 L4 L4 L4 L4 L4 L4 L4 L4 L4 L4 L4 L4 L4 L4 L4 L4 L4 L4 L4 L4 L4 L4 L4 L4 L4 L4 L4 L4 L4 L4 L4 L4 L4 L4 L4 L4 L4 L4 L4 L4 L4 L4 L4 L4 L4 L4 L4 L4 L4 L4 L4 L4 L4 L4 L4 L4 L4 L4 L4 L4 L4 L4 L4 L4 L4 L4 L4 L4 L4 L4 L4 L4 L4 L4( L4( L4( L4( L4( L4( L4( L4( L4( L4( L4( L4( L4( L4( L4( L4( L4( L4( L4( L4( L4( L4( L4( L4( L4( L4( L4( L4( L4( L4( L4( L4( L4( L4( L4( L4( L4( L4( L4( L4( L4( L4( L4( L4( L4( L4( L4( L4( L4( L4( L4( L4( L4( L4( L4( L4( L4( L4( L4( L4( L4( L4( L4( L4( L4( L4( L4( L4( L4( L4( L4( L4( L4( L4( L4( L4( L4( L4( L4( L4( L4( L4( L4( L4( L4( L4( L4( L4( L4( L4( L4( L4( L4( L4( L4( L4( L4( L4( L4( L4( L4( L4( L4( L4( L4( L4( L4( L4( L4( L4( L4( L4( L4( L4( L4( L4( L4( L4( L4( L4( L4( L4( L4( L4( L4( L4( L4( L4( L4( L4( L4( L4( L4( L4( L4( L4( L4( L4( L4( L4( L4( L4( L4( L4( L4( L4( L4( L4( L4( L4( L4( L4( L4( L4( L4( L4( L4( L4( L4( L4( L4( L4( L4( L4( L4( L4( L4( L4( L4( L4( L4( L4( L4( L4( L4( L4( L4( L4( L4( L4( L4( L4( L4( L4( L4( L4( L4( L4( L4( L4( L4( L4( L4( L4( L4( L4( L4( L4( L4( L4( L4( L4( L4( L4( L4( L4( L4( L4( L4( L4( L4( L4( L4( L4( L4( L4( L4( L4( L4( L4( L4( L4( L4( L4( L4( L4( L4( L4( L4( L4( L4( L4( L4( L4( L4( L4( L4( L4( L4( L4( L4/( L4/( L4/( L4/( L4/( L4/( L4/( L4/( L4/( L4/( L4/( L4/( L4/( L4/( L4/( L4/( L4/( L4/( L4/( L4/( L4/( L4/( L4/( L4/( L4/( L4/( L4/( L4/( L4/( L4/( L4/( L4/( L4/( L4/( L4/( L4/( L4/( L4/( L4/( L4/( L4/( L4/( L4/( L4/( L4/( L4/( L4/( L4/( L4/( L4/( L4/( L4/( L4/( L4/( L4/( L4/( L4/( L4/( L4/( L4/( L4/( L4/( L4/( L4/( L4/( L4/( L4/( L4/( L4/( L4/( L4/( L4/( L4/( L4/( L4/( L4/( L4/( L4/( L4/( L4/( L4/( L4/( L4/( L4/( L4/( L4/( L4/( L4/( L4/( L4/( L4/( L4/( L4/( L4/( L4/( L4/( L/( L/( L/( L/( L/( L/( L/( L/( L/( L/( L/( L/( L/( L/( L/( L/( L/( L/( L/( L/( L/( L/( L/( L/( L/( L/( L/( L/( L/( L/( L/( L/( L/( L/( L/( L/( L/( L/( L/( L/( L/( L/( L/( L/( L/( L/( L/( L/( L/( L/( L/( L/( L/( L/( L/( L/( L/( L/( L/( L/( L/( L/( L/( L/( L/( L/( L/( L/( L/( L/( L/( L/( L/( L/( L/( L/( L/( L/( L/( L/( L/( L/( L/( L/( L/( L/( L/( L/( L/( L/( L/( L/( L/( L/( L/( L/( L( L( L( L( L( L( L( L( L( L( L( L( L( L( L( L( L( L( L( L( L( L( L( L( L( L( L( L( L( L( L( L( L( L( L( L( L( L( L( L( L( L( L( L( L( L( L( L( CGL(4 CGL(4 CGL(4 CGL(4 CGL(4 CGL(4 CGL(4 CGL(4 CGL(4 CGL(4 CGL(4 CGL(4 CGL(4 CGL(4 CGL(4 CGL(4 CGL(4 CGL(4 CGL(4 CGL(4 CGL(4 CGL(4 CGL(4 CGL(4 CGL(4 CGL(4 CGL(4 CGL(4 CGL(4 CGL(4 CGL(4 CGL(4 CGL(4 CGL(4 CGL(4 CGL(4 CGL(4 CGL(4 CGL(4 CGL(4 CGL(4 CGL(4 CGL(4 CGL(4 CGL(4 CGL(4 CGL(4 CGL(4 CGL(4 CGL(4 CGL(4 CGL(4 CGL(4 CGL(4 CGL(4 CGL(4 CGL(4 CGL(4 CGL(4 CGL(4 CGL(4 CGL(4 CGL(4 CGL(4 CGL(4 CGL(4 CGL(4 CGL(4 CGL(4 CGL(4 CGL(4 CGL(4 CGL(4 CGL(4 CGL(4 CGL(4 CGL(4 CGL(4 CGL(4 CGL(4 CGL(4 CGL(4 CGL(4 CGL(4 CGL(4 CGL(4 CGL(4 CGL(4 CGL(4 CGL(4 CGL(4 CGL(4 CGL(4 CGL(4 CGL(4 CGL(4 CGL(4 CGL(4 CGL(4 CGL(4 CGL(4 CGL(4 CGL(4 CGL(4 CGL(4 CGL(4 CGL(4 CGL(4 CGL(4 CGL(4 CGL(4 CGL(4 CGL(4 CGL(4 CGL(4 CGL(4 CGL(4 CGL(4 CGL(4 CGL(4 CGL(4 CGL(4 CGL(4 CGL(4 CGL(4 CGL(4 CGL(4 CGL(4 CGL(4 CGL(4 CGL(4 CGL(4 CGL(4 CGL(4 CGL(4 CGL(4 CGL(4 CGL(4 CGL(4 CGL(4 CGL(4 CGL(4 CGL(4 CGL(4 CGL(4 CGL(4 CGL(4 CGL(4 CGL(4 CGL(4 CGL(4 CGL(4 CGL(4 CGL(4 CGL(4 CGL(4 CGL(4 CGL(4 CGL(4 CGL(4 CGL(4 CGL(4 CGL(4 CGL(4 CGL(4 CGL(4 CGL(4 CGL(4 CGL(4 CGL(4 CGL(4 CGL(4 CGL(4 CGL(4 CGL(4 CGL(4 CGL(4 CGL(4 CGL(4 CGL(4 CGL(4 CGL(4 CGL(4 CGL(4 CGL(4 CGL(4 CGL(4 CGL(4 CGL(4 CGL(4 CGL(4 CGL(4 CGL(4 CGL(4 CGL(4 CGL(4 CGL(4 CGL(4 CGL(4 CGL(4 CGL(4 CGL(4 CGL(4 CGL(4 CGL(4 CGL(4 CGL(4 CGL(4 CGL(4 CGL(4 CGL(4 CGL(4 CGL(4 CGL(4 CGL(4 CGL(4 CGL(4 CGL(4 CGL(4 CGL(4 CGL(4 CGL(4 CGL(4 CGL(4 CGL(4 CGL(4 CGL(4 CGL(4 CGL(4 CGL(4 CGL(4 CGL(4 CGL(4 CGL(4 CGL(4 CGL(4 CGL(4 CGL(4 CGL(4 CGL(4 CGL(4 CGL(4 CGL(4 CGL(4 CGL(4 CGL(4 CGL(4 CGL(4 CGL(4 CGL(4 CGL(4 CGL(4 CGL(4 CGL(4 CGL(4 CGL(4 CGL(4 CGL(4 CGL(4 CGL(4 CGL(4 CGL(4 CGL(4 CGL(4 CGL(4 CGL(4 CGL(4 CGL(4 CGL(4 CGL(4 CGL(4 CGL(4 CGL(4 CGL(4 CGL(4 CGL(4 CGL(4 CGL(4 CGL(4 CGL(4 CGL(4 CGL(4 CGL(4 CGL(4 CGL(4 CGL(4 CGL(4 CGL(4 CGL(4 CGL(4 CGL(4 CGL(4 CGL(4 CGL(4 CGL(4 CGL(4 CGL(4 CGL(4 CGL(4 CGL(4 CGL(4 CGL(4 CGL(4 CGL(4 CGL(4 CGL(4 CGL(4 CGL(4 CGL(4 CGL(4 CGL(4 CGL(4 CGL(4 CGL(4 CGL(4 CGL(4 CGL(4 CGL(4 CGL(4 CGL(4 CGL(4 CGL(4 CGL(4 CGL(4 CGL(4 CGL(4 CGL(4 CGL(4 CGL(4 CGL(4 CGL(4 CGL(4 CGL(4 CGL(4 CGL(4 CGL(4 CGL(4 CGL(4 CGL(4 CGL(4 CGL(4 CGL(4 CGL(4 CGL(4 CGL(4 CGL(4 CGL(4 CGL(4 CGL(4 CGL(4 CGL(4 CGL(4 CGL(4 CGL(4 CGL(4 CGL(4 CGL(4 CGL(4 CGL(4 CGL(4 CGL(4 CGL(4 CGL(4 CGL(4 CGL(4 CGL(4 CGL(4 CGL(4 CGL(4 CGL(4 CGL(4 CGL(4 CGL(4 CGL(4 CGL(4 CGL(4 CGL(4 CGL(4 CGL(4 CGL(4 CGL(4 CGL(4 CGL(4 CGL(4                                                                                                                                                                                                                         N N N N N N N N N N N N N N N N N N N N N N N N N N N N N N N N N N N N N N N N N N N N N N N N N N N N N N N N N N N N N N N N N N N N N N N N N N N N N N N N N N N N N N N N N N N N N N N N                         KNG; KNG; KNG; KNG; KNG; KNG; KNG; KNG; KNG; KNG; KNG; KNG; KNG; KNG; KNG; KNG; KNG; KNG; KNG; KNG; KNG; KNG; KNG; KNG; KNG; KNG; KNG; KNG; KNG; KNG; KNG; KNG; KNG; KNG; KNG; KNG; KNG; KNG; KNG; KNG; KNG; KNG; KNG; KNG; KNG; KNG; KNG; KNG; KNG; KNG; KNG; KNG; KNG; KNG; KNG; KNG; KNG; KNG; KNG; KNG; KNG; KNG; KNG; KNG; KNG; KNG; KNG; KNG; KNG; KNG; KNG; KNG; KNG; KNG; KNG; KNG; KNG; KNG; KNG; KNG; KNG; KNG; KNG; KNG; KNG; KNG; KNG; KNG; KNG; KNG; KNG; KNG; KNG; KNG; KNG; KNG; KNG; KNG; KNG; KNG; KNG; KNG; KNG; KNG; KNG; KNG; KNG; KNG; KNG; KNG; KNG; KNG; KNG; KNG; KNG; KNG; KNG; KNG; KNG; KNG; KNG; KNG; KNG; KNG; KNG; KNG; KNG; KNG; KNG; KNG; KNG; KNG; KNG; KNG; KNG; KNG; KNG; KNG; KNG; KNG; KNG; KNG; KNG; KNG; KNG; KNG; KNG; KNG; KNG; KNG; KNG; KNG; KNG; KNG; KNG; KNG; KNG; KNG; KNG; KNG; KNG; KNG; KNG; KNG; KNG; KNG; KNG; KNG; KNG; KNG; KNG; KNG; KNG; KNG; KNG; KNG; KNG; KNG; KNG; KNG; KNG; KNG; KNG; KNG; KNG; KNG; KNG; KNG; KNG; KNG; KNG; KNG; ; ; ; ; ; ; ; ; ; ; ; ; ; ; ; ; ; ; ; ; ; ; ; ; ; ; ; ; ; ; ; ; ; ; ; ; ; ; ; ; ; ; ; ; ; ; ; ; L; L; L; L; L; L; L; L; L; L; L; L; L; L; L; L; L; L; L; L; L; L; L; L; L; L; L; L; L; L; L; L; L; L; L; L; L; L; L; L; L; L; L; L; L; L; L; L; L L L L L L L L L L L L L L L L L L L L L L L L L L L L L L L L L L L L L L L L L L L L L L L L                         K/ K/ K/ K/ K/ K/ K/ K/ K/ K/ K/ K/ K/ K/ K/ K/ K/ K/ K/ K/ K/ K/ K/ K/ K/ K/ K/ K/ K/ K/ K/ K/ K/ K/ K/ K/ K/ K/ K/ K/ K/ K/ K/ K/ K/ K/ K/ K/ K/ K/ K/ K/ K/ K/ K/ K/ K/ K/ K/ K/ K/ K/ K/ K/ K/ K/ K/ K/ K/ K/ K/ K/ K/ K/ K/ K/ K/ K/ K/ K/ K/ K/ K/ K/ K/ K/ K/ K/ K/ K/ K/ K/ K/ K/ K/ K/                         I1 I1 I1 I1 I1 I1 I1 I1 I1 I1 I1 I1 I1 I1 I1 I1 I1 I1 I1 I1 I1 I1 I1 I1 I1 I1 I1 I1 I1 I1 I1 I1 I1 I1 I1 I1 I1 I1 I1 I1 I1 I1 I1 I1 I1 I1 I1 I1 I1 I1 I1 I1 I1 I1 I1 I1 I1 I1 I1 I1 I1 I1 I1 I1 I1 I1 I1 I1 I1 I1 I1 I1 I1 I1 I1 I1 I1 I1 I1 I1 I1 I1 I1 I1 I1 I1 I1 I1 I1 I1 I1 I1 I1 I1 I1 I1                         G3 G3 G3 G3 G3 G3 G3 G3 G3 G3 G3 G3 G3 G3 G3 G3 G3 G3 G3 G3 G3 G3 G3 G3 G3 G3 G3 G3 G3 G3 G3 G3 G3 G3 G3 G3 G3 G3 G3 G3 G3 G3 G3 G3 G3 G3 G3 G3 G3 G3 G3 G3 G3 G3 G3 G3 G3 G3 G3 G3 G3 G3 G3 G3 G3 G3 G3 G3 G3 G3 G3 G3 G3 G3 G3 G3 G3 G3 G3 G3 G3 G3 G3 G3 G3 G3 G3 G3 G3 G3 G3 G3 G3 G3 G3 G3                         I4 I4 I4 I4 I4 I4 I4 I4 I4 I4 I4 I4 I4 I4 I4 I4 I4 I4 I4 I4 I4 I4 I4 I4 I4 I4 I4 I4 I4 I4 I4 I4 I4 I4 I4 I4 I4 I4 I4 I4 I4 I4 I4 I4 I4 I4 I4 I4 I4 I4 I4 I4 I4 I4 I4 I4 I4 I4 I4 I4 I4 I4 I4 I4 I4 I4 I4 I4 I4 I4 I4 I4 I4 I4 I4 I4 I4 I4 I4 I4 I4 I4 I4 I4 I4 I4 I4 I4 I4 I4 I4 I4 I4 I4 I4 I4                         K6 K6 K6 K6 K6 K6 K6 K6 K6 K6 K6 K6 K6 K6 K6 K6 K6 K6 K6 K6 K6 K6 K6 K6 K6 K6 K6 K6 K6 K6 K6 K6 K6 K6 K6 K6 K6 K6 K6 K6 K6 K6 K6 K6 K6 K6 K6 K6 K6 K6 K6 K6 K6 K6 K6 K6 K6 K6 K6 K6 K6 K6 K6 K6 K6 K6 K6 K6 K6 K6 K6 K6 K6 K6 K6 K6 K6 K6 K6 K6 K6 K6 K6 K6 K6 K6 K6 K6 K6 K6 K6 K6 K6 K6 K6 K6                         L7 L7 L7 L7 L7 L7 L7 L7 L7 L7 L7 L7 L7 L7 L7 L7 L7 L7 L7 L7 L7 L7 L7 L7 L7 L7 L7 L7 L7 L7 L7 L7 L7 L7 L7 L7 L7 L7 L7 L7 L7 L7 L7 L7 L7 L7 L7 L7 L7 L7 L7 L7 L7 L7 L7 L7 L7 L7 L7 L7 L7 L7 L7 L7 L7 L7 L7 L7 L7 L7 L7 L7 L7 L7 L7 L7 L7 L7 L7 L7 L7 L7 L7 L7 L7 L7 L7 L7 L7 L7 L7 L7 L7 L7 L7 L7                         N9 N9 N9 N9 N9 N9 N9 N9 N9 N9 N9 N9 N9 N9 N9 N9 N9 N9 N9 N9 N9 N9 N9 N9 N9 N9 N9 N9 N9 N9 N9 N9 N9 N9 N9 N9 N9 N9 N9 N9 N9 N9 N9 N9 N9 N9 N9 N9 N9 N9 N9 N9 N9 N9 N9 N9 N9 N9 N9 N9 N9 N9 N9 N9 N9 N9 N9 N9 N9 N9 N9 N9 N9 N9 N9 N9 N9 N9 N9 N9 N9 N9 N9 N9 N9 N9 N9 N9 N9 N9 N9 N9 N9 N9 N9 N9 9 9 9 9 9 9 9 9 9 9 9 9 9 9 9 9 9 9 9 9 9 9 9 9 O93 O93 O93 O93 O93 O93 O93 O93 O93 O93 O93 O93 O93 O93 O93 O93 O93 O93 O93 O93 O93 O93 O93 O93 93 93 93 93 93 93 N93 N93 N93 N93 N93 N93 N93 N93 N93 N93 N93 N93 N93 N93 N93 N93 N93 N93 N93 N93 N93 N93 N93 N93 93 93 93 93 93 93 O93 O93 O93 O93 O93 O93 O93 O93 O93 O93 O93 O93 O93 O93 O93 O93 O93 O93 O93 O93 O93 O93 O93 O93 93 93 93 93 93 93 N93 N93 N93 N93 N93 N93 N93 N93 N93 N93 N93 N93 N93 N93 N93 N93 N93 N93 N93 N93 N93 N93 N93 N93 93 93 93 93 93 93 O93 O93 O93 O93 O93 O93 O93 O93 O93 O93 O93 O93 O93 O93 O93 O93 O93 O93 O93 O93 O93 O93 O93 O93 93 93 93 93 93 93 N93 N93 N93 N93 N93 N93 N93 N93 N93 N93 N93 N93 N93 N93 N93 N93 N93 N93 N93 N93 N93 N93 N93 N93 93 93 93 93 93 93 L93 L93 L93 L93 L93 L93 L93 L93 L93 L93 L93 L93 L L L L L L L L L L L L       N N N N N N N N N N N N N N N N N N N N N N N N       G4 G4 G4 G4 G4 G4 G4 G4 G4 G4 G4 G4 G4 G4 G4 G4 G4 G4 G4 G4 G4 G4 G4 G4 G4 G4 G4 G4 G4 G4 LG4 LG4 LG4 LG4 LG4 LG4 LG4 LG4 LG4 LG4 LG4 LG4 LG4 LG4 LG4 LG4 LG4 LG4 LG4 LG4 LG4 LG4 LG4 LG4 LG4 LG4 LG4 LG4 LG4 LG4 OLG4 OLG4 OLG4 OLG4 OLG4 OLG4 OLG4 OLG4 OLG4 OLG4 OLG4 OLG4 OLG4 OLG4 OLG4 OLG4 OLG4 OLG4 OLG4 OLG4 OLG4 OLG4 OLG4 OLG4 OLG4 OLG4 OLG4 OLG4 OLG4 OLG4 OLG4 OLG4 OLG4 OLG4 OLG4 OLG4 OLG OLG OLG OLG OLG OLG OLG OLG OLG OLG OLG OLG OLG OLG OLG OLG OLG OLG OLG OLG OLG OLG OLG OLG OLG6 OLG6 OLG6 OLG6 OLG6 OLG6 OLG6 OLG6 OLG6 OLG6 OLG6 OLG6 OLG6 OLG6 OLG6 OLG6 OLG6 OLG6 OLG6 OLG6 OLG6 OLG6 OLG6 OLG6 OLG6 OLG6 OLG6 OLG6 OLG6 OLG6 OLG6 OLG6 OLG6 OLG6 OLG6 OLG6 OLG6 OLG6 OLG6 OLG6 OLG6 OLG6 OLG6 OLG6 OLG6 OLG6 OLG6 OLG6 OLG6 OLG6 OLG6 OLG6 OLG6 OLG6 OLG6 OLG6 OLG6 OLG6 OLG6 OLG6 OLG6 OLG6 OLG6 OLG6 OLG6 OLG6 OLG6 OLG6 OLG6 OLG6 OLG6 OLG6 OLG6 OLG6 OLG6 OLG6 OLG6 OLG6 OLG6 OLG6 OLG6 OLG6 OLG6 OLG6 OLG6 OLG6 OLG6 OLG6 OLG6 OLG6 OLG6 OLG6 OLG6 OLG6 OLG6 OLG6 OLG OLG OLG OLG OLG OLG OLG OLG OLG OLG OLG OLG OLG OLG OLG OLG OLG OLG OLG OLG OLG OLG OLG OLG OLG4 OLG4 OLG4 OLG4 OLG4 OLG4 OLG4 OLG4 OLG4 OLG4 OLG4 OLG4 OLG4 OLG4 OLG4 OLG4 OLG4 OLG4 OLG4 OLG4 OLG4 OLG4 OLG4 OLG4 OLG4 OLG4 OLG4 OLG4 OLG4 OLG4 OLG4 OLG4 OLG4 OLG4 OLG4 OLG4 OLG4 OLG4 OLG4 OLG4 OLG4 OLG4 OLG4 OLG4 OLG4 OLG4 OLG4 OLG4 OLG4 OLG4 OLG4 OLG4 OLG4 OLG4 OLG4 OLG4 OLG4 OLG4 OLG4 OLG4 OLG4 OLG4 OLG4 OLG4 OLG4 OLG4 OLG4 OLG4 OLG4 OLG4 OLG4 OLG4 G4 G4 G4 G4 G4 G4 G4 G4 G4 G4 G4 G4 G4 G4 G4 G4 G4 G4 G4 G4 G4 G4 G4 G4 G G G G G G G G G G G G G G G G G G G G G G G G G@2 G@2 G@2 G@2 G@2 G@2 G@2 G@2 G@2 G@2 G@2 G@2 G@2 G@2 G@2 G@2 G@2 G@2 G@2 G@2 G@2 G@2 G@2 G@2 G@2 G@2 G@2 G@2 G@2 G@2 G@2 G@2 G@2 G@2 G@2 G@2 G@2 G@2 G@2 G@2 G@2 G@2 G@2 G@2 G@2 G@2 G@2 G@2 G@2 G@2 G@2 G@2 G@2 G@2 G@2 G@2 G@2 G@2 G@2 G@2 G@2 G@2 G@2 G@2 G@2 G@2 G@2 G@2 G@2 G@2 G@2 G@2 G@2 G@2 G@2 G@2 G@2 G@2 G@2 G@2 G@2 G@2 G@2 G@2 G@2 G@2 G@2 G@2 G@2 G@2 @2 @2 @2 @2 @2 @2                         B0 B0 B0 B0 B0 B0 B0 B0 B0 B0 B0 B0 B0 B0 B0 B0 B0 B0 B0 B0 B0 B0 B0 B0 B0 B0 B0 B0 B0 B0 B0 B0 B0 B0 B0 B0 B0 B0 B0 B0 B0 B0 B0 B0 B0 B0 B0 B0 B0 B0 B0 B0 B0 B0 B0 B0 B0 B0 B0 B0 B0 B0 B0 B0 B0 B0 B0 B0 B0 B0 B0 B0 B0 B0 B0 B0 B0 B0 B0 B0 B0 B0 B0 B0 B0 B0 B0 B0 B0 B0 B0 B0 B0 B0 B0 B0                         D/ D/ D/ D/ D/ D/ D/ D/ D/ D/ D/ D/ D/ D/ D/ D/ D/ D/ D/ D/ D/ D/ D/ D/ D/ D/ D/ D/ D/ D/ D/ D/ D/ D/ D/ D/ D/ D/ D/ D/ D/ D/ D/ D/ D/ D/ D/ D/ D/ D/ D/ D/ D/ D/ D/ D/ D/ D/ D/ D/ D/ D/ D/ D/ D/ D/ D/ D/ D/ D/ D/ D/ D/ D/ D/ D/ D/ D/ D/ D/ D/ D/ D/ D/ D/ D/ D/ D/ D/ D/ D/ D/ D/ D/ D/ D/                         E- E- E- E- E- E- E- E- E- E- E- E- E- E- E- E- E- E- E- E- E- E- E- E- E- E- E- E- E- E- E- E- E- E- E- E- E- E- E- E- E- E- E- E- E- E- E- E- E- E- E- E- E- E- E- E- E- E- E- E- E- E- E- E- E- E- E- E- E- E- E- E- E- E- E- E- E- E- E- E- E- E- E- E- E- E- E- E- E- E- E- E- E- E- E- E-                         G, G, G, G, G, G, G, G, G, G, G, G, G, G, G, G, G, G, G, G, G, G, G, G, G, G, G, G, G, G, G, G, G, G, G, G, G, G, G, G, G, G, G, G, G, G, G, G, G, G, G, G, G, G, G, G, G, G, G, G, G, G, G, G, G, G, G, G, G, G, G, G, G, G, G, G, G, G, G, G, G, G, G, G, G, G, G, G, G, G, G, G, G, G, G, G,                         H* H* H* H* H* H* H* H* H* H* H* H* H* H* H* H* H* H* H* H* H* H* H* H* H* H* H* H* H* H* H* H* H* H* H* H* H* H* H* H* H* H* H* H* H* H* H* H* H* H* H* H* H* H* H* H* H* H* H* H* H* H* H* H* H* H* H* H* H* H* H* H* H* H* H* H* H* H* H* H* H* H* H* H* H* H* H* H* H* H* H* H* H* H* H* H*                         J( J( J( J( J( J( J( J( J( J( J( J( J( J( J( J( J( J( J( J( J( J( J( J( J( J( J( J( J( J( J( J( J( J( J( J( J( J( J( J( J( J( J( J( J( J( J( J( J( J( J( J( J( J( J( J( J( J( J( J( J( J( J( J( J( J( J( J( J( J( J( J( J( J( J( J( J( J( J( J( J( J( J( J( J( J( J( J( J( J( J( J( J( J( J( J( J( J( J( J( J( J( J( J( J( J( J( J( J( J( J( J( J( J( J( J( J( J( J( J( JD(4 JD(4 JD(4 JD(4 JD(4 JD(4 JD(4 JD(4 JD(4 JD(4 JD(4 JD(4 JD(4 JD(4 JD(4 JD(4 JD(4 JD(4 JD(4 JD(4 JD(4 JD(4 JD(4 JD(4 JD(4 JD(4 JD(4 JD(4 JD(4 JD(4 JD(4 JD(4 JD(4 JD(4 JD(4 JD(4 JD(4 JD(4 JD(4 JD(4 JD(4 JD(4 JD(4 JD(4 JD(4 JD(4 JD(4 JD(4 JD(4 JD(4 JD(4 JD(4 JD(4 JD(4 JD(4 JD(4 JD(4 JD(4 JD(4 JD(4 JD(4 JD(4 JD(4 JD(4 JD(4 JD(4 JD(4 JD(4 JD(4 JD(4 JD(4 JD(4 JD(4 JD(4 JD(4 JD(4 JD(4 JD(4 JD(4 JD(4 JD(4 JD(4 JD(4 JD(4 JD(4 JD(4 JD(4 JD(4 JD(4 JD(4 JD(4 JD(4 JD(4 JD(4 JD(4 JD(4 D(4 D(4 D(4 D(4 D(4 D(4 D(4 D(4 D(4 D(4 D(4 D(4 D(4 D(4 D(4 D(4 D(4 D(4 D(4 D(4 D(4 D(4 D(4 D(4 DJ(4 DJ(4 DJ(4 DJ(4 DJ(4 DJ(4 DJ(4 DJ(4 DJ(4 DJ(4 DJ(4 DJ(4 DJ(4 DJ(4 DJ(4 DJ(4 DJ(4 DJ(4 DJ(4 DJ(4 DJ(4 DJ(4 DJ(4 DJ(4 DJ(4 DJ(4 DJ(4 DJ(4 DJ(4 DJ(4 DJ(4 DJ(4 DJ(4 DJ(4 DJ(4 DJ(4 DJ(4 DJ(4 DJ(4 DJ(4 DJ(4 DJ(4 DJ(4 DJ(4 DJ(4 DJ(4 DJ(4 DJ(4 DJ(4 DJ(4 DJ(4 DJ(4 DJ(4 DJ(4 DJ(4 DJ(4 DJ(4 DJ(4 DJ(4 DJ(4 DJ(4 DJ(4 DJ(4 DJ(4 DJ(4 DJ(4 DJ(4 DJ(4 DJ(4 DJ(4 DJ(4 DJ(4 J4 J4 J4 J4 J4 J4 J4 J4 J4 J4 J4 J4 J4 J4 J4 J4 J4 J4 J4 J4 J4 J4 J4 J4 4 4 4 4 4 4 4 4 4 4 4 4 4 4 4 4 4 4 4 4 4 4 4 4 HE4- HE4- HE4- HE4- HE4- HE4- HE4- HE4- HE4- HE4- HE4- HE4- HE4- HE4- HE4- HE4- HE4- HE4- HE4- HE4- HE4- HE4- HE4- HE4- HE4- HE4- HE4- HE4- HE4- HE4- HE4- HE4- HE4- HE4- HE4- HE4- HE4- HE4- HE4- HE4- HE4- HE4- HE4- HE4- HE4- HE4- HE4- HE4- HE4- HE4- HE4- HE4- HE4- HE4- HE4- HE4- HE4- HE4- HE4- HE4- HE4- HE4- HE4- HE4- HE4- HE4- HE4- HE4- HE4- HE4- HE4- HE4- HE4- HE4- HE4- HE4- HE4- HE4- HE4- HE4- HE4- HE4- HE4- HE4- HE4- HE4- HE4- HE4- HE4- HE4- HE4- HE4- HE4- HE4- HE4- HE4- HE- HE- HE- HE- HE- HE- HE- HE- HE- HE- HE- HE- HE- HE- HE- HE- HE- HE- HE- HE- HE- HE- HE- HE- HE8- HE8- HE8- HE8- HE8- HE8- HE8- HE8- HE8- HE8- HE8- HE8- HE8- HE8- HE8- HE8- HE8- HE8- HE8- HE8- HE8- HE8- HE8- HE8- HE8- HE8- HE8- HE8- HE8- HE8- HE8- HE8- HE8- HE8- HE8- HE8- HE8- HE8- HE8- HE8- HE8- HE8- HE8- HE8- HE8- HE8- HE8- HE8- HE8- HE8- HE8- HE8- HE8- HE8- HE8- HE8- HE8- HE8- HE8- HE8- HE8- HE8- HE8- HE8- HE8- HE8- HE8- HE8- HE8- HE8- HE8- HE8- HE8- HE8- HE8- HE8- HE8- HE8- HE8- HE8- HE8- HE8- HE8- HE8- HE8- HE8- HE8- HE8- HE8- HE8- HE8- HE8- HE8- HE8- HE8- HE8- HE- HE- HE- HE- HE- HE- HE- HE- HE- HE- HE- HE- HE- HE- HE- HE- HE- HE- HE- HE- HE- HE- HE- HE- HE-9 HE-9 HE-9 HE-9 HE-9 HE-9 HE-9 HE-9 HE-9 HE-9 HE-9 HE-9 HE-9 HE-9 HE-9 HE-9 HE-9 HE-9 HE-9 HE-9 HE-9 HE-9 HE-9 HE-9 HE-9 HE-9 HE-9 HE-9 HE-9 HE-9 HE-9 HE-9 HE-9 HE-9 HE-9 HE-9 HE-9 HE-9 HE-9 HE-9 HE-9 HE-9 HE-9 HE-9 HE-9 HE-9 HE-9 HE-9 E9 E9 E9 E9 E9 E9 E9 E9 E9 E9 E9 E9 E9 E9 E9 E9 E9 E9 E9 E9 E9 E9 E9 E9 E9 E9 E9 E9 E9 E9 E9 E9 E9 E9 E9 E9 E9 E9 E9 E9 E9 E9 E9 E9 E9 E9 E9 E9 E9 E9 E9 E9 E9 E9 E9 E9 E9 E9 E9 E9 E9 E9 E9 E9 E9 E9 E9 E9 E9 E9 E9 E9 JE9/ JE9/ JE9/ JE9/ JE9/ JE9/ JE9/ JE9/ JE9/ JE9/ JE9/ JE9/ JE9/ JE9/ JE9/ JE9/ JE9/ JE9/ JE9/ JE9/ JE9/ JE9/ JE9/ JE9/ JE9/ JE9/ JE9/ JE9/ JE9/ JE9/ JE9/ JE9/ JE9/ JE9/ JE9/ JE9/ JE9/ JE9/ JE9/ JE9/ JE9/ JE9/ JE9/ JE9/ JE9/ JE9/ JE9/ JE9/ JE9/ JE9/ JE9/ JE9/ JE9/ JE9/ JE9/ JE9/ JE9/ JE9/ JE9/ JE9/ JE9/ JE9/ JE9/ JE9/ JE9/ JE9/ JE9/ JE9/ JE9/ JE9/ JE9/ JE9/ JE/ JE/ JE/ JE/ JE/ JE/ JE/ JE/ JE/ JE/ JE/ JE/ JE/ JE/ JE/ JE/ JE/ JE/ JE/ JE/ JE/ JE/ JE/ JE/ E E E E E E E E E E E E E E E E E E E E E E E E LE09 LE09 LE09 LE09 LE09 LE09 LE09 LE09 LE09 LE09 LE09 LE09 LE09 LE09 LE09 LE09 LE09 LE09 LE09 LE09 LE09 LE09 LE09 LE09 LE09 LE09 LE09 LE09 LE09 LE09 LE09 LE09 LE09 LE09 LE09 LE09 LE09 LE09 LE09 LE09 LE09 LE09 LE09 LE09 LE09 LE09 LE09 LE09 LE09 LE09 LE09 LE09 LE09 LE09 LE09 LE09 LE09 LE09 LE09 LE09 LE09 LE09 LE09 LE09 LE09 LE09 LE09 LE09 LE09 LE09 LE09 LE09 LE09 LE09 LE09 LE09 LE09 LE09 LE09 LE09 LE09 LE09 LE09 LE09 LE09 LE09 LE09 LE09 LE09 LE09 LE09 LE09 LE09 LE09 LE09 LE09 E09 E09 E09 E09 E09 E09 E09 E09 E09 E09 E09 E09 E09 E09 E09 E09 E09 E09 E09 E09 E09 E09 E09 E09 JE09 JE09 JE09 JE09 JE09 JE09 JE09 JE09 JE09 JE09 JE09 JE09 JE09 JE09 JE09 JE09 JE09 JE09 JE09 JE09 JE09 JE09 JE09 JE09 JE09 JE09 JE09 JE09 JE09 JE09 JE09 JE09 JE09 JE09 JE09 JE09 JE09 JE09 JE09 JE09 JE09 JE09 JE09 JE09 JE09 JE09 JE09 JE09 JE09 JE09 JE09 JE09 JE09 JE09 JE09 JE09 JE09 JE09 JE09 JE09 JE09 JE09 JE09 JE09 JE09 JE09 JE09 JE09 JE09 JE09 JE09 JE09 JE9 JE9 JE9 JE9 JE9 JE9 JE9 JE9 JE9 JE9 JE9 JE9 JE9 JE9 JE9 JE9 JE9 JE9 JE9 JE9 JE9 JE9 JE9 JE9 E9 E9 E9 E9 E9 E9 E9 E9 E9 E9 E9 E9 E9 E9 E9 E9 E9 E9 E9 E9 E9 E9 E9 E9 EL92 EL92 EL92 EL92 EL92 EL92 EL92 EL92 EL92 EL92 EL92 EL92 EL92 EL92 EL92 EL92 EL92 EL92 EL92 EL92 EL92 EL92 EL92 EL92 EL92 EL92 EL92 EL92 EL92 EL92 EL92 EL92 EL92 EL92 EL92 EL92 EL92 EL92 EL92 EL92 EL92 EL92 EL92 EL92 EL92 EL92 EL92 EL92 L92 L92 L92 L92 L92 L92 L92 L92 L92 L92 L92 L92 L92 L92 L92 L92 L92 L92 L92 L92 L92 L92 L92 L92 L92 L92 L92 L92 L92 L92 L92 L92 L92 L92 L92 L92 L92 L92 L92 L92 L92 L92 L92 L92 L92 L92 L92 L92 92 92 92 92 92 92 92 92 92 92 92 92 92 92 92 92 92 92 92 92 92 92 92 92 M92 M92 M92 M92 M92 M92 M92 M92 M92 M92 M92 M92 M92 M92 M92 M92 M92 M92 M92 M92 M92 M92 M92 M92 M2 M2 M2 M2 M2 M2 M2 M2 M2 M2 M2 M2 M2 M2 M2 M2 M2 M2 M2 M2 M2 M2 M2 M2 M2 M2 M2 M2 M2 M2 M2 M2 M2 M2 M2 M2 M2 M2 M2 M2 M2 M2 M2 M2 M2 M2 M2 M2 M M M M M M M M M M M M M M M M M M M M M M M M                         HD44 HD44 HD44 HD44 HD44 HD44 HD44 HD44 HD44 HD44 HD44 HD44 HD44 HD44 HD44 HD44 HD44 HD44 HD44 HD44 HD44 HD44 HD44 HD44 D44 D44 D44 D44 D44 D44 GD44 GD44 GD44 GD44 GD44 GD44 GD44 GD44 GD44 GD44 GD44 GD44 GD44 GD44 GD44 GD44 GD44 GD44 GD44 GD44 GD44 GD44 GD44 GD44 D44 D44 D44 D44 D44 D44 HD44 HD44 HD44 HD44 HD44 HD44 HD44 HD44 HD44 HD44 HD44 HD44 HD44 HD44 HD44 HD44 HD44 HD44 HD44 HD44 HD44 HD44 HD44 HD44 D44 D44 D44 D44 D44 D44 GD44 GD44 GD44 GD44 GD44 GD44 GD44 GD44 GD44 GD44 GD44 GD44 GD44 GD44 GD44 GD44 GD44 GD44 GD44 GD44 GD44 GD44 GD44 GD44 D44 D44 D44 D44 D44 D44 HD44 HD44 HD44 HD44 HD44 HD44 HD44 HD44 HD44 HD44 HD44 HD44 HD44 HD44 HD44 HD44 HD44 HD44 HD44 HD44 HD44 HD44 HD44 HD44 D44 D44 D44 D44 D44 D44 GD44 GD44 GD44 GD44 GD44 GD44 GD44 GD44 GD44 GD44 GD44 GD44 GD44 GD44 GD44 GD44 GD44 GD44 GD44 GD44 GD44 GD44 GD44 GD44 D44 D44 D44 D44 D44 D44 HD44 HD44 HD44 HD44 HD44 HD44 HD44 HD44 HD44 HD44 HD44 HD44 HD4 HD4 HD4 HD4 HD4 HD4 HD4 HD4 HD4 HD4 HD4 HD4 D4 D4 D4 D4 D4 D4 GD4 GD4 GD4 GD4 GD4 GD4 GD4 GD4 GD4 GD4 GD4 GD4 GD4 GD4 GD4 GD4 GD4 GD4 GD4 GD4 GD4 GD4 GD4 GD4 D4 D4 D4 D4 D4 D4 HD4( HD4( HD4( HD4( HD4( HD4( HD4( HD4( HD4( HD4( HD4( HD4( HD4( HD4( HD4( HD4( HD4( HD4( HD4( HD4( HD4( HD4( HD4( HD4( D4( D4( D4( D4( D4( D4( GD4( GD4( GD4( GD4( GD4( GD4( GD4( GD4( GD4( GD4( GD4( GD4( GD4( GD4( GD4( GD4( GD4( GD4( GD4( GD4( GD4( GD4( GD4( GD4( D4( D4( D4( D4( D4( D4( HD4( HD4( HD4( HD4( HD4( HD4( HD4( HD4( HD4( HD4( HD4( HD4( HD4( HD4( HD4( HD4( HD4( HD4( HD4( HD4( HD4( HD4( HD4( HD4( D4( D4( D4( D4( D4( D4( GD4( GD4( GD4( GD4( GD4( GD4( GD4( GD4( GD4( GD4( GD4( GD4( GD4( GD4( GD4( GD4( GD4( GD4( GD4( GD4( GD4( GD4( GD4( GD4( D4( D4( D4( D4( D4( D4( DE4( DE4( DE4( DE4( DE4( DE4( DE4( DE4( DE4( DE4( DE4( DE4( DE4( DE4( DE4( DE4( DE4( DE4( DE4( DE4( DE4( DE4( DE4( DE4( E( E( E( E( E( E( E( E( E( E( E( E( E( E( E( E( E( E( E( E( E( E( E( E( E( E( E( E( E( E( E( E( E( E( E( E( E( E( E( E( E( E( E( E( E( E( E( E( E E E E E E E E E E E E E E E E E E E E E E E E                         E<@- E<@- E<@- E<@- E<@- E<@- E<@- E<@- E<@- E<@- E<@- E<@- E<@- E<@- E<@- E<@- E<@- E<@- E<@- E<@- E<@- E<@- E<@- E<@- E<@- E<@- E<@- E<@- E<@- E<@- E<@- E<@- E<@- E<@- E<@- E<@- E<@- E<@- E<@- E<@- E<@- E<@- E<@- E<@- E<@- E<@- E<@- E<@- E<@- E<@- E<@- E<@- E<@- E<@- E<@- E<@- E<@- E<@- E<@- E<@- E<@- E<@- E<@- E<@- E<@- E<@- E<@- E<@- E<@- E<@- E<@- E<@- E<@- E<@- E<@- E<@- E<@- E<@- E<@- E<@- E<@- E<@- E<@- E<@- E<@- E<@- E<@- E<@- E<@- E<@- E<@- E<@- E<@- E<@- E<@- E<@- E<@- E<@- E<@- E<@- E<@- E<@- E<@- E<@- E<@- E<@- E<@- E<@- E<@- E<@- E<@- E<@- E<@- E<@- E<@- E<@- E<@- E<@- E<@- E<@- E<@- E<@- E<@- E<@- E<@- E<@- E<@- E<@- E<@- E<@- E<@- E<@- E<@- E<@- E<@- E<@- E<@- E<@- E<@- E<@- E<@- E<@- E<@- E<@- E<@- E<@- E<@- E<@- E<@- E<@- E<@- E<@- E<@- E<@- E<@- E<@- E<@- E<@- E<@- E<@- E<@- E<@- E<@- E<@- E<@- E<@- E<@- E<@- E<@- E<@- E<@- E<@- E<@- E<@- E<@- E<@- E<@- E<@- E<@- E<@- E<@- E<@- E<@- E<@- E<@- E<@- E<@- E<@- E<@- E<@- E<@- E<@- E<@ E<@ E<@ E<@ E<@ E<@ E<@ E<@ E<@ E<@ E<@ E<@ E<@ E<@ E<@ E<@ E<@ E<@ E<@ E<@ E<@ E<@ E<@ E<@ E<@ E<@ E<@ E<@ E<@ E<@ E<@ E<@ E<@ E<@ E<@ E<@ E<@ E<@ E<@ E<@ E<@ E<@ E<@ E<@ E<@ E<@ E<@ E<@ E<@9 E<@9 E<@9 E<@9 E<@9 E<@9 E<@9 E<@9 E<@9 E<@9 E<@9 E<@9 E<@9 E<@9 E<@9 E<@9 E<@9 E<@9 E<@9 E<@9 E<@9 E<@9 E<@9 E<@9 E<@9 E<@9 E<@9 E<@9 E<@9 E<@9 E<@9 E<@9 E<@9 E<@9 E<@9 E<@9 E<@9 E<@9 E<@9 E<@9 E<@9 E<@9 E<@9 E<@9 E<@9 E<@9 E<@9 E<@9 9 9 9 9 9 9 9 9 9 9 9 9 9 9 9 9 9 9 9 9 9 9 9 9 9 9 9 9 9 9 9 9 9 9 9 9 9 9 9 9 9 9 9 9 9 9 9 9 9 9 9 9 9 9 9 9 9 9 9 9 9 9 9 9 9 9 9 9 9 9 9 9 G9 G9 G9 G9 G9 G9 G9 G9 G9 G9 G9 G9 G9 G9 G9 G9 G9 G9 G9 G9 G9 G9 G9 G9 G9 G9 G9 G9 G9 G9 G9 G9 G9 G9 G9 G9 G9 G9 G9 G9 G9 G9 G9 G9 G9 G9 G9 G9 G9 G9 G9 G9 G9 G9 G9 G9 G9 G9 G9 G9 G9 G9 G9 G9 G9 G9 G9 G9 G9 G9 G9 G9 G G G G G G G G G G G G G G G G G G G G G G G G                         I7 I7 I7 I7 I7 I7 I7 I7 I7 I7 I7 I7 I7 I7 I7 I7 I7 I7 I7 I7 I7 I7 I7 I7 I7 I7 I7 I7 I7 I7 I7 I7 I7 I7 I7 I7 I7 I7 I7 I7 I7 I7 I7 I7 I7 I7 I7 I7 I7 I7 I7 I7 I7 I7 I7 I7 I7 I7 I7 I7 I7 I7 I7 I7 I7 I7 I7 I7 I7 I7 I7 I7 I7 I7 I7 I7 I7 I7 I7 I7 I7 I7 I7 I7 I7 I7 I7 I7 I7 I7 I7 I7 I7 I7 I7 I7 7 7 7 7 7 7 7 7 7 7 7 7 7 7 7 7 7 7 7 7 7 7 7 7 J7 J7 J7 J7 J7 J7 J7 J7 J7 J7 J7 J7 J7 J7 J7 J7 J7 J7 J7 J7 J7 J7 J7 J7 J7 J7 J7 J7 J7 J7 J7 J7 J7 J7 J7 J7 J7 J7 J7 J7 J7 J7 J7 J7 J7 J7 J7 J7 J7 J7 J7 J7 J7 J7 J7 J7 J7 J7 J7 J7 J7 J7 J7 J7 J7 J7 J7 J7 J7 J7 J7 J7 J J J J J J J J J J J J J J J J J J J J J J J J                         L6 L6 L6 L6 L6 L6 L6 L6 L6 L6 L6 L6 L6 L6 L6 L6 L6 L6 L6 L6 L6 L6 L6 L6 L6 L6 L6 L6 L6 L6 L6 L6 L6 L6 L6 L6 L6 L6 L6 L6 L6 L6 L6 L6 L6 L6 L6 L6 L6 L6 L6 L6 L6 L6 L6 L6 L6 L6 L6 L6 L6 L6 L6 L6 L6 L6 L6 L6 L6 L6 L6 L6 L6 L6 L6 L6 L6 L6 L6 L6 L6 L6 L6 L6 L6 L6 L6 L6 L6 L6 L6 L6 L6 L6 L6 L6 6 6 6 6 6 6 6 6 6 6 6 6 6 6 6 6 6 6 6 6 6 6 6 6 N6 N6 N6 N6 N6 N6 N6 N6 N6 N6 N6 N6 N6 N6 N6 N6 N6 N6 N6 N6 N6 N6 N6 N6 N6 N6 N6 N6 N6 N6 N6 N6 N6 N6 N6 N6 N6 N6 N6 N6 N6 N6 N6 N6 N6 N6 N6 N6 N6 N6 N6 N6 N6 N6 N6 N6 N6 N6 N6 N6 N6 N6 N6 N6 N6 N6 N6 N6 N6 N6 N6 N6 N N N N N N N N N N N N N N N N N N N N N N N N                         O4 O4 O4 O4 O4 O4 O4 O4 O4 O4 O4 O4 O4 O4 O4 O4 O4 O4 O4 O4 O4 O4 O4 O4 O4 O4 O4 O4 O4 O4 O4 O4 O4 O4 O4 O4 O4 O4 O4 O4 O4 O4 O4 O4 O4 O4 O4 O4 O4 O4 O4 O4 O4 O4 O4 O4 O4 O4 O4 O4 O4 O4 O4 O4 O4 O4 O4 O4 O4 O4 O4 O4 O4 O4 O4 O4 O4 O4 O4 O4 O4 O4 O4 O4 O4 O4 O4 O4 O4 O4 O4 O4 O4 O4 O4 O4 4 4 4 4 4 4 4 4 4 4 4 4 4 4 4 4 4 4 4 4 4 4 4 4 Q4 Q4 Q4 Q4 Q4 Q4 Q4 Q4 Q4 Q4 Q4 Q4 Q4 Q4 Q4 Q4 Q4 Q4 Q4 Q4 Q4 Q4 Q4 Q4 Q4 Q4 Q4 Q4 Q4 Q4 Q4 Q4 Q4 Q4 Q4 Q4 Q4 Q4 Q4 Q4 Q4 Q4 Q4 Q4 Q4 Q4 Q4 Q4 Q4 Q4 Q4 Q4 Q4 Q4 Q4 Q4 Q4 Q4 Q4 Q4 Q4 Q4 Q4 Q4 Q4 Q4 Q4 Q4 Q4 Q4 Q4 Q4 Q Q Q Q Q Q Q Q Q Q Q Q Q Q Q Q Q Q Q Q Q Q Q Q Q Q Q Q Q Q Q Q Q Q Q Q Q Q Q Q Q Q Q Q Q Q Q Q QJH6 QJH6 QJH6 QJH6 QJH6 QJH6 QJH6 QJH6 QJH6 QJH6 QJH6 QJH6 QJH6 QJH6 QJH6 QJH6 QJH6 QJH6 QJH6 QJH6 QJH6 QJH6 QJH6 QJH6 QJH6 QJH6 QJH6 QJH6 QJH6 QJH6 QJH6 QJH6 QJH6 QJH6 QJH6 QJH6 QJH6 QJH6 QJH6 QJH6 QJH6 QJH6 QJH6 QJH6 QJH6 QJH6 QJH6 QJH6 QJH6 QJH6 QJH6 QJH6 QJH6 QJH6 QJH6 QJH6 QJH6 QJH6 QJH6 QJH6 QJH6 QJH6 QJH6 QJH6 QJH6 QJH6 QJH6 QJH6 QJH6 QJH6 QJH6 QJH6 QJH6 QJH6 QJH6 QJH6 QJH6 QJH6 QJH6 QJH6 QJH6 QJH6 QJH6 QJH6 QJH6 QJH6 QJH6 QJH6 QJH6 QJH6 QJH6 QJH6 QJH6 QJH6 QJH6 QJH6 JH6 JH6 JH6 JH6 JH6 JH6 JH6 JH6 JH6 JH6 JH6 JH6 JH6 JH6 JH6 JH6 JH6 JH6 JH6 JH6 JH6 JH6 JH6 JH6 JHQ6 JHQ6 JHQ6 JHQ6 JHQ6 JHQ6 JHQ6 JHQ6 JHQ6 JHQ6 JHQ6 JHQ6 JHQ6 JHQ6 JHQ6 JHQ6 JHQ6 JHQ6 JHQ6 JHQ6 JHQ6 JHQ6 JHQ6 JHQ6 JHQ6 JHQ6 JHQ6 JHQ6 JHQ6 JHQ6 JHQ6 JHQ6 JHQ6 JHQ6 JHQ6 JHQ6 JHQ6 JHQ6 JHQ6 JHQ6 JHQ6 JHQ6 JHQ6 JHQ6 JHQ6 JHQ6 JHQ6 JHQ6 JHQ6 JHQ6 JHQ6 JHQ6 JHQ6 JHQ6 JHQ6 JHQ6 JHQ6 JHQ6 JHQ6 JHQ6 JHQ6 JHQ6 JHQ6 JHQ6 JHQ6 JHQ6 JHQ6 JHQ6 JHQ6 JHQ6 JHQ6 JHQ6 Q Q Q Q Q Q Q Q Q Q Q Q Q Q Q Q Q Q Q Q Q Q Q Q                         S7 S7 S7 S7 S7 S7 S7 S7 S7 S7 S7 S7 S7 S7 S7 S7 S7 S7 S7 S7 S7 S7 S7 S7 S7 S7 S7 S7 S7 S7 S7 S7 S7 S7 S7 S7 S7 S7 S7 S7 S7 S7 S7 S7 S7 S7 S7 S7 S7 S7 S7 S7 S7 S7 S7 S7 S7 S7 S7 S7 S7 S7 S7 S7 S7 S7 S7 S7 S7 S7 S7 S7 S7 S7 S7 S7 S7 S7 S7 S7 S7 S7 S7 S7 S7 S7 S7 S7 S7 S7 S7 S7 S7 S7 S7 S7 7 7 7 7 7 7 7 7 7 7 7 7 7 7 7 7 7 7 7 7 7 7 7 7 T7 T7 T7 T7 T7 T7 T7 T7 T7 T7 T7 T7 T7 T7 T7 T7 T7 T7 T7 T7 T7 T7 T7 T7 T7 T7 T7 T7 T7 T7 T7 T7 T7 T7 T7 T7 T7 T7 T7 T7 T7 T7 T7 T7 T7 T7 T7 T7 T7 T7 T7 T7 T7 T7 T7 T7 T7 T7 T7 T7 T7 T7 T7 T7 T7 T7 T7 T7 T7 T7 T7 T7 T7 T7 T7 T7 T7 T7 T7 T7 T7 T7 T7 T7 T7 T7 T7 T7 T7 T7 T7 T7 T7 T7 T7 T7 7 7 7 7 7 7 7 7 7 7 7 7 7 7 7 7 7 7 7 7 7 7 7 7 S7 S7 S7 S7 S7 S7 S7 S7 S7 S7 S7 S7 S7 S7 S7 S7 S7 S7 S7 S7 S7 S7 S7 S7 S7 S7 S7 S7 S7 S7 S7 S7 S7 S7 S7 S7 S7 S7 S7 S7 S7 S7 S7 S7 S7 S7 S7 S7 S S S S S S S S S S S S S S S S S S S S S S S S S S S S S S S S S S S S S S S S S S S S S S S S                         Q9 Q9 Q9 Q9 Q9 Q9 Q9 Q9 Q9 Q9 Q9 Q9 Q9 Q9 Q9 Q9 Q9 Q9 Q9 Q9 Q9 Q9 Q9 Q9 Q9 Q9 Q9 Q9 Q9 Q9 Q9 Q9 Q9 Q9 Q9 Q9 Q9 Q9 Q9 Q9 Q9 Q9 Q9 Q9 Q9 Q9 Q9 Q9 Q9 Q9 Q9 Q9 Q9 Q9 Q9 Q9 Q9 Q9 Q9 Q9 Q9 Q9 Q9 Q9 Q9 Q9 Q9 Q9 Q9 Q9 Q9 Q9 Q9 Q9 Q9 Q9 Q9 Q9 Q9 Q9 Q9 Q9 Q9 Q9 Q9 Q9 Q9 Q9 Q9 Q9 Q9 Q9 Q9 Q9 Q9 Q9                         O; O; O; O; O; O; O; O; O; O; O; O; O; O; O; O; O; O; O; O; O; O; O; O; O; O; O; O; O; O; O; O; O; O; O; O; O; O; O; O; O; O; O; O; O; O; O; O; O; O; O; O; O; O; O; O; O; O; O; O; O; O; O; O; O; O; O; O; O; O; O; O; O; O; O; O; O; O; O; O; O; O; O; O; O; O; O; O; O; O; O; O; O; O; O; O;                         N9 N9 N9 N9 N9 N9 N9 N9 N9 N9 N9 N9 N9 N9 N9 N9 N9 N9 N9 N9 N9 N9 N9 N9 N9 N9 N9 N9 N9 N9 N9 N9 N9 N9 N9 N9 N9 N9 N9 N9 N9 N9 N9 N9 N9 N9 N9 N9 N9 N9 N9 N9 N9 N9 N9 N9 N9 N9 N9 N9 N9 N9 N9 N9 N9 N9 N9 N9 N9 N9 N9 N9 N9 N9 N9 N9 N9 N9 N9 N9 N9 N9 N9 N9 N9 N9 N9 N9 N9 N9 N9 N9 N9 N9 N9 N9                         L7 L7 L7 L7 L7 L7 L7 L7 L7 L7 L7 L7 L7 L7 L7 L7 L7 L7 L7 L7 L7 L7 L7 L7 L7 L7 L7 L7 L7 L7 L7 L7 L7 L7 L7 L7 L7 L7 L7 L7 L7 L7 L7 L7 L7 L7 L7 L7 L7 L7 L7 L7 L7 L7 L7 L7 L7 L7 L7 L7 L7 L7 L7 L7 L7 L7 L7 L7 L7 L7 L7 L7 L7 L7 L7 L7 L7 L7 L7 L7 L7 L7 L7 L7 L7 L7 L7 L7 L7 L7 L7 L7 L7 L7 L7 L7                         J6 J6 J6 J6 J6 J6 J6 J6 J6 J6 J6 J6 J6 J6 J6 J6 J6 J6 J6 J6 J6 J6 J6 J6 J6 J6 J6 J6 J6 J6 J6 J6 J6 J6 J6 J6 J6 J6 J6 J6 J6 J6 J6 J6 J6 J6 J6 J6 J6 J6 J6 J6 J6 J6 J6 J6 J6 J6 J6 J6 J6 J6 J6 J6 J6 J6 J6 J6 J6 J6 J6 J6 J6 J6 J6 J6 J6 J6 J6 J6 J6 J6 J6 J6 J6 J6 J6 J6 J6 J6 J6 J6 J6 J6 J6 J6                         I4 I4 I4 I4 I4 I4 I4 I4 I4 I4 I4 I4 I4 I4 I4 I4 I4 I4 I4 I4 I4 I4 I4 I4 I4 I4 I4 I4 I4 I4 I4 I4 I4 I4 I4 I4 I4 I4 I4 I4 I4 I4 I4 I4 I4 I4 I4 I4 I4 I4 I4 I4 I4 I4 I4 I4 I4 I4 I4 I4 I4 I4 I4 I4 I4 I4 I4 I4 I4 I4 I4 I4 I4 I4 I4 I4 I4 I4 I4 I4 I4 I4 I4 I4 I4 I4 I4 I4 I4 I4 I4 I4 I4 I4 I4 I4                         J6 J6 J6 J6 J6 J6 J6 J6 J6 J6 J6 J6 J6 J6 J6 J6 J6 J6 J6 J6 J6 J6 J6 J6 J6 J6 J6 J6 J6 J6 J6 J6 J6 J6 J6 J6 J6 J6 J6 J6 J6 J6 J6 J6 J6 J6 J6 J6 J6 J6 J6 J6 J6 J6 J6 J6 J6 J6 J6 J6 J6 J6 J6 J6 J6 J6 J6 J6 J6 J6 J6 J6 J6 J6 J6 J6 J6 J6 J6 J6 J6 J6 J6 J6 J6 J6 J6 J6 J6 J6 J6 J6 J6 J6 J6 J6                         L4 L4 L4 L4 L4 L4 L4 L4 L4 L4 L4 L4 L4 L4 L4 L4 L4 L4 L4 L4 L4 L4 L4 L4 4 4 4 4 4 4 J4 J4 J4 J4 J4 J4 J4 J4 J4 J4 J4 J4 J4 J4 J4 J4 J4 J4 J4 J4 J4 J4 J4 J4 4 4 4 4 4 4 L4 L4 L4 L4 L4 L4 L4 L4 L4 L4 L4 L4 L4 L4 L4 L4 L4 L4 L4 L4 L4 L4 L4 L4 4 4 4 4 4 4 J4 J4 J4 J4 J4 J4 J J J J J J J J J J J J J J J J J J       L2 L2 L2 L2 L2 L2 L2 L2 L2 L2 L2 L2 L2 L2 L2 L2 L2 L2 L2 L2 L2 L2 L2 L2 2 2 2 2 2 2 J2 J2 J2 J2 J2 J2 J2 J2 J2 J2 J2 J2 J2 J2 J2 J2 J2 J2 J2 J2 J2 J2 J2 J2 2 2 2 2 2 2 I2 I2 I2 I2 I2 I2 I2 I2 I2 I2 I2 I2 I2 I2 I2 I2 I2 I2 I2 I2 I2 I2 I2 I2 2 2 2 2 2 2 J2 J2 J2 J2 J2 J2 J J J J J J J J J J J J J J J J J J       L9 L9 L9 L9 L9 L9 L9 L9 L9 L9 L9 L9 L9 L9 L9 L9 L9 L9 L9 L9 L9 L9 L9 L9 L9 L9 L9 L9 L9 L9 L9 L9 L9 L9 L9 L9 L9 L9 L9 L9 L9 L9 L9 L9 L9 L9 L9 L9 L9 L9 L9 L9 L9 L9 L9 L9 L9 L9 L9 L9 L9 L9 L9 L9 L9 L9 L9 L9 L9 L9 L9 L9 L9 L9 L9 L9 L9 L9 L9 L9 L9 L9 L9 L9 L9 L9 L9 L9 L9 L9 L9 L9 L9 L9 L9 L9 L9 L9 L9 L9 L9 L9 L9 L9 L9 L9 L9 L9 L9 L9 L9 L9 L9 L9 L9 L9 L9 L9 L9 L9 L9 L9 L9 L9 L9 L9 L9 L9 L9 L9 L9 L9 L9 L9 L9 L9 L9 L9 L9 L9 L9 L9 L9 L9 L9 L9 L9 L9 L9 L9 L9 L9 L9 L9 L9 L9 L9 L9 L9 L9 L9 L9 L9 L9 L9 L9 L9 L9 L9 L9 L9 L9 L9 L9 L9 L9 L9 L9 L9 L9 L9 L9 L9 L9 L9 L9 L9 L9 L9 L9 L9 L9 9 9 9 9 9 9 9 9 9 9 9 9 9 9 9 9 9 9 9 9 9 9 9 9 9 9 9 9 9 9 9 9 9 9 9 9 9 9 9 9 9 9 9 9 9 9 9 9 EE9 EE9 EE9 EE9 EE9 EE9 EE9 EE9 EE9 EE9 EE9 EE9 EE9 EE9 EE9 EE9 EE9 EE9 EE9 EE9 EE9 EE9 EE9 EE9 EE9 EE9 EE9 EE9 EE9 EE9 EE9 EE9 EE9 EE9 EE9 EE9 EE9 EE9 EE9 EE9 EE9 EE9 EE9 EE9 EE9 EE9 EE9 EE9 EE EE EE EE EE EE EE EE EE EE EE EE EE EE EE EE EE EE EE EE EE EE EE EE EE EE EE EE EE EE EE EE EE EE EE EE EE EE EE EE EE EE EE EE EE EE EE EE E E E E E E E E E E E E E E E E E E E E E E E E GE- GE- GE- GE- GE- GE- GE- GE- GE- GE- GE- GE- GE- GE- GE- GE- GE- GE- GE- GE- GE- GE- GE- GE- GE- GE- GE- GE- GE- GE- GE- GE- GE- GE- GE- GE- GE- GE- GE- GE- GE- GE- GE- GE- GE- GE- GE- GE- E- E- E- E- E- E- E- E- E- E- E- E- IE- IE- IE- IE- IE- IE- IE- IE- IE- IE- IE- IE- IE- IE- IE- IE- IE- IE- IE- IE- IE- IE- IE- IE- IE- IE- IE- IE- IE- IE- IE- IE- IE- IE- IE- IE- IE IE IE IE IE IE IE IE IE IE IE IE E E E E E E E E E E E E JE/ JE/ JE/ JE/ JE/ JE/ JE/ JE/ JE/ JE/ JE/ JE/ JE/ JE/ JE/ JE/ JE/ JE/ JE/ JE/ JE/ JE/ JE/ JE/ E/ E/ E/ E/ E/ E/ IE/ IE/ IE/ IE/ IE/ IE/ IE/ IE/ IE/ IE/ IE/ IE/ IE/ IE/ IE/ IE/ IE/ IE/ IE/ IE/ IE/ IE/ IE/ IE/ E/ E/ E/ E/ E/ E/ JE/ JE/ JE/ JE/ JE/ JE/ JE/ JE/ JE/ JE/ JE/ JE/ JE/ JE/ JE/ JE/ JE/ JE/ JE/ JE/ JE/ JE/ JE/ JE/ E/ E/ E/ E/ E/ E/ IE/ IE/ IE/ IE/ IE/ IE/ IE IE IE IE IE IE IE IE IE IE IE IE IE IE IE IE IE IE E E E E E E JE1 JE1 JE1 JE1 JE1 JE1 JE1 JE1 JE1 JE1 JE1 JE1 JE1 JE1 JE1 JE1 JE1 JE1 JE1 JE1 JE1 JE1 JE1 JE1 E1 E1 E1 E1 E1 E1 IE1 IE1 IE1 IE1 IE1 IE1 IE1 IE1 IE1 IE1 IE1 IE1 IE1 IE1 IE1 IE1 IE1 IE1 IE1 IE1 IE1 IE1 IE1 IE1 E1 E1 E1 E1 E1 E1 JE1 JE1 JE1 JE1 JE1 JE1 JE1 JE1 JE1 JE1 JE1 JE1 JE1 JE1 JE1 JE1 JE1 JE1 JE1 JE1 JE1 JE1 JE1 JE1 E1 E1 E1 E1 E1 E1 IE1 IE1 IE1 IE1 IE1 IE1 IE IE IE IE IE IE IE IE IE IE IE IE IE IE IE IE IE IE E E E E E E JE2 JE2 JE2 JE2 JE2 JE2 JE2 JE2 JE2 JE2 JE2 JE2 JE2 JE2 JE2 JE2 JE2 JE2 JE2 JE2 JE2 JE2 JE2 JE2 E2 E2 E2 E2 E2 E2 IE2 IE2 IE2 IE2 IE2 IE2 IE2 IE2 IE2 IE2 IE2 IE2 IE2 IE2 IE2 IE2 IE2 IE2 IE2 IE2 IE2 IE2 IE2 IE2 E2 E2 E2 E2 E2 E2 JE2 JE2 JE2 JE2 JE2 JE2 JE2 JE2 JE2 JE2 JE2 JE2 JE2 JE2 JE2 JE2 JE2 JE2 JE2 JE2 JE2 JE2 JE2 JE2 E2 E2 E2 E2 E2 E2 IE2 IE2 IE2 IE2 IE2 IE2 IE IE IE IE IE IE IE IE IE IE IE IE IE IE IE IE IE IE E E E E E E JE4 JE4 JE4 JE4 JE4 JE4 JE4 JE4 JE4 JE4 JE4 JE4 JE4 JE4 JE4 JE4 JE4 JE4 JE4 JE4 JE4 JE4 JE4 JE4 E4 E4 E4 E4 E4 E4 IE4 IE4 IE4 IE4 IE4 IE4 IE4 IE4 IE4 IE4 IE4 IE4 IE4 IE4 IE4 IE4 IE4 IE4 IE4 IE4 IE4 IE4 IE4 IE4 E4 E4 E4 E4 E4 E4 JE4 JE4 JE4 JE4 JE4 JE4 JE4 JE4 JE4 JE4 JE4 JE4 JE4 JE4 JE4 JE4 JE4 JE4 JE4 JE4 JE4 JE4 JE4 JE4 E4 E4 E4 E4 E4 E4 IE4 IE4 IE4 IE4 IE4 IE4 IE IE IE IE IE IE IE IE IE IE IE IE IE IE IE IE IE IE E E E E E E JE6 JE6 JE6 JE6 JE6 JE6 JE6 JE6 JE6 JE6 JE6 JE6 JE6 JE6 JE6 JE6 JE6 JE6 JE6 JE6 JE6 JE6 JE6 JE6 E6 E6 E6 E6 E6 E6 IE6 IE6 IE6 IE6 IE6 IE6 IE6 IE6 IE6 IE6 IE6 IE6 IE6 IE6 IE6 IE6 IE6 IE6 IE6 IE6 IE6 IE6 IE6 IE6 E6 E6 E6 E6 E6 E6 JE6 JE6 JE6 JE6 JE6 JE6 JE6 JE6 JE6 JE6 JE6 JE6 JE6 JE6 JE6 JE6 JE6 JE6 JE6 JE6 JE6 JE6 JE6 JE6 E6 E6 E6 E6 E6 E6 IE6 IE6 IE6 IE6 IE6 IE6 IE IE IE IE IE IE IE IE IE IE IE IE IE IE IE IE IE IE E E E E E E JE7 JE7 JE7 JE7 JE7 JE7 JE7 JE7 JE7 JE7 JE7 JE7 JE7 JE7 JE7 JE7 JE7 JE7 JE7 JE7 JE7 JE7 JE7 JE7 E7 E7 E7 E7 E7 E7 IE7 IE7 IE7 IE7 IE7 IE7 IE7 IE7 IE7 IE7 IE7 IE7 IE7 IE7 IE7 IE7 IE7 IE7 IE7 IE7 IE7 IE7 IE7 IE7 E7 E7 E7 E7 E7 E7 JE7 JE7 JE7 JE7 JE7 JE7 JE7 JE7 JE7 JE7 JE7 JE7 JE7 JE7 JE7 JE7 JE7 JE7 JE7 JE7 JE7 JE7 JE7 JE7 E7 E7 E7 E7 E7 E7 IE7 IE7 IE7 IE7 IE7 IE7 IE7 IE7 IE7 IE7 IE7 IE7 IE7 IE7 IE7 IE7 IE7 IE7 IE7 IE7 IE7 IE7 IE7 IE7 E7 E7 E7 E7 E7 E7 JE7- JE7- JE7- JE7- JE7- JE7- JE7- JE7- JE7- JE7- JE7- JE7- JE7- JE7- JE7- JE7- JE7- JE7- JE7- JE7- JE7- JE7- JE7- JE7- E7- E7- E7- E7- E7- E7- EI7- EI7- EI7- EI7- EI7- EI7- EI7- EI7- EI7- EI7- EI7- EI7- EI7- EI7- EI7- EI7- EI7- EI7- I7- I7- I7- I7- I7- I7- 7- 7- 7- 7- 7- 7- J7- J7- J7- J7- J7- J7- J7- J7- J7- J7- J7- J7- J7- J7- J7- J7- J7- J7- J7- J7- J7- J7- J7- J7- 7- 7- 7- 7- 7- 7- I7- I7- I7- I7- I7- I7- I7- I7- I7- I7- I7- I7- I7- I7- I7- I7- I7- I7- I7- I7- I7- I7- I7- I7- 7- 7- 7- 7- 7- 7- G7- G7- G7- G7- G7- G7- G7- G7- G7- G7- G7- G7- G7- G7- G7- G7- G7- G7- G7- G7- G7- G7- G7- G7- G7- G7- G7- G7- G7- G7- G7- G7- G7- G7- G7- G7- G7- G7- G7- G7- G7- G7- G7- G7- G7- G7- G7- G7- 7- 7- 7- 7- 7- 7- 7- 7- 7- 7- 7- 7- I7- I7- I7- I7- I7- I7- I7- I7- I7- I7- I7- I7- I- I- I- I- I- I- I- I- I- I- I- I- I- I- I- I- I- I- I- I- I- I- I- I- I- I- I- I- I- I- I- I- I- I- I- I- - - - - - - - - - - - - LE7- LE7- LE7- LE7- LE7- LE7- LE7- LE7- LE7- LE7- LE7- LE7- LE7- LE7- LE7- LE7- LE7- LE7- LE7- LE7- LE7- LE7- LE7- LE7- E7- E7- E7- E7- E7- E7- JE7- JE7- JE7- JE7- JE7- JE7- JE7- JE7- JE7- JE7- JE7- JE7- JE7- JE7- JE7- JE7- JE7- JE7- JE7- JE7- JE7- JE7- JE7- JE7- E7- E7- E7- E7- E7- E7- LE7- LE7- LE7- LE7- LE7- LE7- LE7- LE7- LE7- LE7- LE7- LE7- LE7- LE7- LE7- LE7- LE7- LE7- LE7- LE7- LE7- LE7- LE7- LE7- E7- E7- E7- E7- E7- E7- JE7- JE7- JE7- JE7- JE7- JE7- JE7- JE7- JE7- JE7- JE7- JE7- JE7- JE7- JE7- JE7- JE7- JE7- JE7- JE7- JE7- JE7- JE7- JE7- E7- E7- E7- E7- E7- E7- LE7- LE7- LE7- LE7- LE7- LE7- LE7- LE7- LE7- LE7- LE7- LE7- LE7- LE7- LE7- LE7- LE7- LE7- LE7- LE7- LE7- LE7- LE7- LE7- E- E- E- E- E- E- JE- JE- JE- JE- JE- JE- JE- JE- JE- JE- JE- JE- JE- JE- JE- JE- JE- JE- JE- JE- JE- JE- JE- JE- E- E- E- E- E- E- LE-6 LE-6 LE-6 LE-6 LE-6 LE-6 LE-6 LE-6 LE-6 LE-6 LE-6 LE-6 LE-6 LE-6 LE-6 LE-6 LE-6 LE-6 LE-6 LE-6 LE-6 LE-6 LE-6 LE-6 E-6 E-6 E-6 E-6 E-6 E-6 JE-6 JE-6 JE-6 JE-6 JE-6 JE-6 JE-6 JE-6 JE-6 JE-6 JE-6 JE-6 JE-6 JE-6 JE-6 JE-6 JE-6 JE-6 JE-6 JE-6 JE-6 JE-6 JE-6 JE-6 E-6 E-6 E-6 E-6 E-6 E-6 LE-6 LE-6 LE-6 LE-6 LE-6 LE-6 LE-6 LE-6 LE-6 LE-6 LE-6 LE-6 LE-6 LE-6 LE-6 LE-6 LE-6 LE-6 LE-6 LE-6 LE-6 LE-6 LE-6 LE-6 E-6 E-6 E-6 E-6 E-6 E-6 JE-6 JE-6 JE-6 JE-6 JE-6 JE-6 JE-6 JE-6 JE-6 JE-6 JE-6 JE-6 JE-6 JE-6 JE-6 JE-6 JE-6 JE-6 JE6 JE6 JE6 JE6 JE6 JE E E E E E E LE LE LE LE LE LE LE LE LE LE LE LE LE LE LE LE LE LE LE LE LE LE LE LE E E E E E E JE JE JE JE JE JE JE JE JE JE JE JE JE JE JE JE JE JE JE JE JE JE JE JE E E E E E E LE/ LE/ LE/ LE/ LE/ LE/ LE/ LE/ LE/ LE/ LE/ LE/ LE/ LE/ LE/ LE/ LE/ LE/ LE/ LE/ LE/ LE/ LE/ LE/ E/ E/ E/ E/ E/ E/ JE/ JE/ JE/ JE/ JE/ JE/ JE/ JE/ JE/ JE/ JE/ JE/ JE/ JE/ JE/ JE/ JE/ JE/ JE/ JE/ JE/ JE/ JE/ JE/ E/ E/ E/ E/ E/ E/ LE/ LE/ LE/ LE/ LE/ LE/ LE/ LE/ LE/ LE/ LE/ LE/ LE/ LE/ LE/ LE/ LE/ LE/ LE/ LE/ LE/ LE/ LE/ LE/ E/ E/ E/ E/ E/ E/ JE/ JE/ JE/ JE/ JE/ JE/ JE JE JE JE JE JE JE JE JE JE JE JE JE JE JE JE JE JE E E E E E E LE1 LE1 LE1 LE1 LE1 LE1 LE1 LE1 LE1 LE1 LE1 LE1 LE1 LE1 LE1 LE1 LE1 LE1 LE1 LE1 LE1 LE1 LE1 LE1 E1 E1 E1 E1 E1 E1 JE1 JE1 JE1 JE1 JE1 JE1 JE1 JE1 JE1 JE1 JE1 JE1 JE1 JE1 JE1 JE1 JE1 JE1 JE1 JE1 JE1 JE1 JE1 JE1 E1 E1 E1 E1 E1 E1 LE1 LE1 LE1 LE1 LE1 LE1 LE1 LE1 LE1 LE1 LE1 LE1 LE1 LE1 LE1 LE1 LE1 LE1 LE1 LE1 LE1 LE1 LE1 LE1 E1 E1 E1 E1 E1 E1 JE1 JE1 JE1 JE1 JE1 JE1 JE JE JE JE JE JE JE JE JE JE JE JE JE JE JE JE JE JE E E E E E E LE2 LE2 LE2 LE2 LE2 LE2 LE2 LE2 LE2 LE2 LE2 LE2 LE2 LE2 LE2 LE2 LE2 LE2 LE2 LE2 LE2 LE2 LE2 LE2 E2 E2 E2 E2 E2 E2 JE2 JE2 JE2 JE2 JE2 JE2 JE2 JE2 JE2 JE2 JE2 JE2 JE2 JE2 JE2 JE2 JE2 JE2 JE2 JE2 JE2 JE2 JE2 JE2 E2 E2 E2 E2 E2 E2 LE2 LE2 LE2 LE2 LE2 LE2 LE2 LE2 LE2 LE2 LE2 LE2 LE2 LE2 LE2 LE2 LE2 LE2 LE2 LE2 LE2 LE2 LE2 LE2 E2 E2 E2 E2 E2 E2 JE2 JE2 JE2 JE2 JE2 JE2 JE JE JE JE JE JE JE JE JE JE JE JE JE JE JE JE JE JE E E E E E E LE4 LE4 LE4 LE4 LE4 LE4 LE4 LE4 LE4 LE4 LE4 LE4 LE4 LE4 LE4 LE4 LE4 LE4 LE4 LE4 LE4 LE4 LE4 LE4 E4 E4 E4 E4 E4 E4 JE4 JE4 JE4 JE4 JE4 JE4 JE4 JE4 JE4 JE4 JE4 JE4 JE4 JE4 JE4 JE4 JE4 JE4 JE4 JE4 JE4 JE4 JE4 JE4 E4 E4 E4 E4 E4 E4 LE4 LE4 LE4 LE4 LE4 LE4 LE4 LE4 LE4 LE4 LE4 LE4 LE4 LE4 LE4 LE4 LE4 LE4 LE4 LE4 LE4 LE4 LE4 LE4 E4 E4 E4 E4 E4 E4 JE4 JE4 JE4 JE4 JE4 JE4 JE JE JE JE JE JE JE JE JE JE JE JE JE JE JE JE JE JE E E E E E E LE6 LE6 LE6 LE6 LE6 LE6 LE6 LE6 LE6 LE6 LE6 LE6 LE6 LE6 LE6 LE6 LE6 LE6 LE6 LE6 LE6 LE6 LE6 LE6 E6 E6 E6 E6 E6 E6 JE6 JE6 JE6 JE6 JE6 JE6 JE6 JE6 JE6 JE6 JE6 JE6 JE6 JE6 JE6 JE6 JE6 JE6 JE6 JE6 JE6 JE6 JE6 JE6 E6 E6 E6 E6 E6 E6 LE6 LE6 LE6 LE6 LE6 LE6 LE6 LE6 LE6 LE6 LE6 LE6 LE6 LE6 LE6 LE6 LE6 LE6 LE6 LE6 LE6 LE6 LE6 LE6 E6 E6 E6 E6 E6 E6 JE6 JE6 JE6 JE6 JE6 JE6 JE JE JE JE JE JE JE JE JE JE JE JE JE JE JE JE JE JE E E E E E E LE7 LE7 LE7 LE7 LE7 LE7 LE7 LE7 LE7 LE7 LE7 LE7 LE7 LE7 LE7 LE7 LE7 LE7 LE7 LE7 LE7 LE7 LE7 LE7 E7 E7 E7 E7 E7 E7 JE7 JE7 JE7 JE7 JE7 JE7 JE7 JE7 JE7 JE7 JE7 JE7 JE7 JE7 JE7 JE7 JE7 JE7 JE7 JE7 JE7 JE7 JE7 JE7 E7 E7 E7 E7 E7 E7 LE7 LE7 LE7 LE7 LE7 LE7 LE7 LE7 LE7 LE7 LE7 LE7 LE7 LE7 LE7 LE7 LE7 LE7 LE7 LE7 LE7 LE7 LE7 LE7 E7 E7 E7 E7 E7 E7 JE7 JE7 JE7 JE7 JE7 JE7 JE JE JE JE JE JE JE JE JE JE JE JE JE JE JE JE JE JE E E E E E E LE9 LE9 LE9 LE9 LE9 LE9 LE9 LE9 LE9 LE9 LE9 LE9 LE9 LE9 LE9 LE9 LE9 LE9 LE9 LE9 LE9 LE9 LE9 LE9 E9 E9 E9 E9 E9 E9 JE9 JE9 JE9 JE9 JE9 JE9 JE9 JE9 JE9 JE9 JE9 JE9 JE9 JE9 JE9 JE9 JE9 JE9 JE9 JE9 JE9 JE9 JE9 JE9 E9 E9 E9 E9 E9 E9 LE9 LE9 LE9 LE9 LE9 LE9 LE9 LE9 LE9 LE9 LE9 LE9 LE9 LE9 LE9 LE9 LE9 LE9 LE9 LE9 LE9 LE9 LE9 LE9 E9 E9 E9 E9 E9 E9 JE9 JE9 JE9 JE9 JE9 JE9 JE9 JE9 JE9 JE9 JE9 JE9 JE9 JE9 JE9 JE9 JE9 JE9 JE9 JE9 JE9 JE9 JE9 JE9 E9 E9 E9 E9 E9 E9 LE/9 LE/9 LE/9 LE/9 LE/9 LE/9 LE/9 LE/9 LE/9 LE/9 LE/9 LE/9 LE/9 LE/9 LE/9 LE/9 LE/9 LE/9 LE/9 LE/9 LE/9 LE/9 LE/9 LE/9 E/9 E/9 E/9 E/9 E/9 E/9 JE/9 JE/9 JE/9 JE/9 JE/9 JE/9 JE/9 JE/9 JE/9 JE/9 JE/9 JE/9 JE/9 JE/9 JE/9 JE/9 JE/9 JE/9 JE/9 JE/9 JE/9 JE/9 JE/9 JE/9 E/9 E/9 E/9 E/9 E/9 E/9 LE/9 LE/9 LE/9 LE/9 LE/9 LE/9 LE/9 LE/9 LE/9 LE/9 LE/9 LE/9 LE/9 LE/9 LE/9 LE/9 LE/9 LE/9 LE/9 LE/9 LE/9 LE/9 LE/9 LE/9 E/9 E/9 E/9 E/9 E/9 E/9 JE/9 JE/9 JE/9 JE/9 JE/9 JE/9 JE/9 JE/9 JE/9 JE/9 JE/9 JE/9 JE/9 JE/9 JE/9 JE/9 JE/9 JE/9 JE/9 JE/9 JE/9 JE/9 JE/9 JE/9 E/9 E/9 E/9 E/9 E/9 E/9 IE/9 IE/9 IE/9 IE/9 IE/9 IE/9 IE/9 IE/9 IE/9 IE/9 IE/9 IE/9 IE/9 IE/9 IE/9 IE/9 IE/9 IE/9 IE/9 IE/9 IE/9 IE/9 IE/9 IE/9 IE/9 IE/9 IE/9 IE/9 IE/9 IE/9 IE/9 IE/9 IE/9 IE/9 IE/9 IE/9 IE/9 IE/9 IE/9 IE/9 IE/9 IE/9 IE/9 IE/9 IE/9 IE/9 IE/9 IE/9 E/9 E/9 E/9 E/9 E/9 E/9 E/9 E/9 E/9 E/9 E/9 E/9 JE/9 JE/9 JE/9 JE/9 JE/9 JE/9 JE/9 JE/9 JE/9 JE/9 JE/9 JE/9 JE JE JE JE JE JE JE JE JE JE JE JE JE JE JE JE JE JE JE JE JE JE JE JE JE JE JE JE JE JE JE JE JE JE JE JE E E E E E E E E E E E E LE91 LE91 LE91 LE91 LE91 LE91 LE91 LE91 LE91 LE91 LE91 LE91 LE91 LE91 LE91 LE91 LE91 LE91 LE91 LE91 LE91 LE91 LE91 LE91 LE91 LE91 LE91 LE91 LE91 LE91 LE91 LE91 LE91 LE91 LE91 LE91 LE91 LE91 LE91 LE91 LE91 LE91 LE91 LE91 LE91 LE91 LE91 LE91 LE91 LE91 LE91 LE91 LE91 LE91 LE91 LE91 LE91 LE91 LE91 LE91 LE91 LE91 LE91 LE91 LE91 LE91 LE91 LE91 LE91 LE91 LE91 LE91 LE91 LE91 LE91 LE91 LE91 LE91 LE91 LE91 LE91 LE91 LE91 LE91 LE91 LE91 LE91 LE91 LE91 LE91 LE91 LE91 LE91 LE91 LE91 LE91 LE1 LE1 LE1 LE1 LE1 LE1 LE1 LE1 LE1 LE1 LE1 LE1 LE1 LE1 LE1 LE1 LE1 LE1 LE1 LE1 LE1 LE1 LE1 LE1 LE61 LE61 LE61 LE61 LE61 LE61 LE61 LE61 LE61 LE61 LE61 LE61 LE61 LE61 LE61 LE61 LE61 LE61 LE61 LE61 LE61 LE61 LE61 LE61 LE61 LE61 LE61 LE61 LE61 LE61 LE61 LE61 LE61 LE61 LE61 LE61 LE61 LE61 LE61 LE61 LE61 LE61 LE61 LE61 LE61 LE61 LE61 LE61 LE61 LE61 LE61 LE61 LE61 LE61 LE61 LE61 LE61 LE61 LE61 LE61 LE61 LE61 LE61 LE61 LE61 LE61 LE61 LE61 LE61 LE61 LE61 LE61 LE61 LE61 LE61 LE61 LE61 LE61 LE61 LE61 LE61 LE61 LE61 LE61 LE61 LE61 LE61 LE61 LE61 LE61 LE61 LE61 LE61 LE61 LE61 LE61 LE1 LE1 LE1 LE1 LE1 LE1 LE1 LE1 LE1 LE1 LE1 LE1 LE1 LE1 LE1 LE1 LE1 LE1 LE1 LE1 LE1 LE1 LE1 LE1 LE71 LE71 LE71 LE71 LE71 LE71 LE71 LE71 LE71 LE71 LE71 LE71 LE71 LE71 LE71 LE71 LE71 LE71 LE71 LE71 LE71 LE71 LE71 LE71 LE71 LE71 LE71 LE71 LE71 LE71 LE71 LE71 LE71 LE71 LE71 LE71 LE71 LE71 LE71 LE71 LE71 LE71 LE71 LE71 LE71 LE71 LE71 LE71 E71 E71 E71 E71 E71 E71 E71 E71 E71 E71 E71 E71 E71 E71 E71 E71 E71 E71 E71 E71 E71 E71 E71 E71 E71 E71 E71 E71 E71 E71 E71 E71 E71 E71 E71 E71 E71 E71 E71 E71 E71 E71 E71 E71 E71 E71 E71 E71 E1 E1 E1 E1 E1 E1 E1 E1 E1 E1 E1 E1 E1 E1 E1 E1 E1 E1 E1 E1 E1 E1 E1 E1 NE14 NE14 NE14 NE14 NE14 NE14 NE14 NE14 NE14 NE14 NE14 NE14 NE14 NE14 NE14 NE14 NE14 NE14 NE14 NE14 NE14 NE14 NE14 NE14 NE4 NE4 NE4 NE4 NE4 NE4 NE4 NE4 NE4 NE4 NE4 NE4 NE4 NE4 NE4 NE4 NE4 NE4 NE4 NE4 NE4 NE4 NE4 NE4 NE4 NE4 NE4 NE4 NE4 NE4 NE4 NE4 NE4 NE4 NE4 NE4 NE4 NE4 NE4 NE4 NE4 NE4 NE4 NE4 NE4 NE4 NE4 NE4 NE4 NE4 NE4 NE4 NE4 NE4 NE4 NE4 NE4 NE4 NE4 NE4 NE4 NE4 NE4 NE4 NE4 NE4 NE4 NE4 NE4 NE4 NE4 NE4 E E E E E E E E E E E E E E E E E E E E E E E E JE26 JE26 JE26 JE26 JE26 JE26 JE26 JE26 JE26 JE26 JE26 JE26 JE26 JE26 JE26 JE26 JE26 JE26 JE26 JE26 JE26 JE26 JE26 JE26 JE26 JE26 JE26 JE26 JE26 JE26 JE26 JE26 JE26 JE26 JE26 JE26 JE26 JE26 JE26 JE26 JE26 JE26 JE26 JE26 JE26 JE26 JE26 JE26 JE26 JE26 JE26 JE26 JE26 JE26 JE26 JE26 JE26 JE26 JE26 JE26 JE26 JE26 JE26 JE26 JE26 JE26 JE26 JE26 JE26 JE26 JE26 JE26 JE26 JE26 JE26 JE26 JE26 JE26 JE26 JE26 JE26 JE26 JE26 JE26 JE26 JE26 JE26 JE26 JE26 JE26 JE26 JE26 JE26 JE26 JE26 JE26 E26 E26 E26 E26 E26 E26 E26 E26 E26 E26 E26 E26 E26 E26 E26 E26 E26 E26 E26 E26 E26 E26 E26 E26 IE26 IE26 IE26 IE26 IE26 IE26 IE26 IE26 IE26 IE26 IE26 IE26 IE26 IE26 IE26 IE26 IE26 IE26 IE26 IE26 IE26 IE26 IE26 IE26 IE26 IE26 IE26 IE26 IE26 IE26 IE26 IE26 IE26 IE26 IE26 IE26 IE26 IE26 IE26 IE26 IE26 IE26 IE26 IE26 IE26 IE26 IE26 IE26 IE26 IE26 IE26 IE26 IE26 IE26 IE26 IE26 IE26 IE26 IE26 IE26 IE26 IE26 IE26 IE26 IE26 IE26 IE26 IE26 IE26 IE26 IE26 IE26 IE6 IE6 IE6 IE6 IE6 IE6 IE6 IE6 IE6 IE6 IE6 IE6 IE6 IE6 IE6 IE6 IE6 IE6 IE6 IE6 IE6 IE6 IE6 IE6 E6 E6 E6 E6 E6 E6 E6 E6 E6 E6 E6 E6 E6 E6 E6 E6 E6 E6 E6 E6 E6 E6 E6 E6 EJ6+ EJ6+ EJ6+ EJ6+ EJ6+ EJ6+ EJ6+ EJ6+ EJ6+ EJ6+ EJ6+ EJ6+ EJ6+ EJ6+ EJ6+ EJ6+ EJ6+ EJ6+ EJ6+ EJ6+ EJ6+ EJ6+ EJ6+ EJ6+ EJ6+ EJ6+ EJ6+ EJ6+ EJ6+ EJ6+ EJ6+ EJ6+ EJ6+ EJ6+ EJ6+ EJ6+ EJ6+ EJ6+ EJ6+ EJ6+ EJ6+ EJ6+ EJ6+ EJ6+ EJ6+ EJ6+ EJ6+ EJ6+ J+ J+ J+ J+ J+ J+ J+ J+ J+ J+ J+ J+ J+ J+ J+ J+ J+ J+ J+ J+ J+ J+ J+ J+ J+ J+ J+ J+ J+ J+ J+ J+ J+ J+ J+ J+ J+ J+ J+ J+ J+ J+ J+ J+ J+ J+ J+ J+ + + + + + + + + + + + + + + + + + + + + + + + + L+4 L+4 L+4 L+4 L+4 L+4 L+4 L+4 L+4 L+4 L+4 L+4 L+4 L+4 L+4 L+4 L+4 L+4 L+4 L+4 L+4 L+4 L+4 L+4 L+4 L+4 L+4 L+4 L+4 L+4 L+4 L+4 L+4 L+4 L+4 L+4 L+4 L+4 L+4 L+4 L+4 L+4 L+4 L+4 L+4 L+4 L+4 L+4 L+4 L+4 L+4 L+4 L+4 L+4 L+4 L+4 L+4 L+4 L+4 L+4 L+4 L+4 L+4 L+4 L+4 L+4 L+4 L+4 L+4 L+4 L+4 L+4 L4 L4 L4 L4 L4 L4 L4 L4 L4 L4 L4 L4 L4 L4 L4 L4 L4 L4 L4 L4 L4 L4 L4 L4                         JC6- JC6- JC6- JC6- JC6- JC6- JC6- JC6- JC6- JC6- JC6- JC6- JC6- JC6- JC6- JC6- JC6- JC6- JC6- JC6- JC6- JC6- JC6- JC6- C- C- C- C- C- C- IC4- IC4- IC4- IC4- IC4- IC4- IC4- IC4- IC4- IC4- IC4- IC4- IC4- IC4- IC4- IC4- IC4- IC4- IC4- IC4- IC4- IC4- IC4- IC4- C- C- C- C- C- C- JC6- JC6- JC6- JC6- JC6- JC6- JC6- JC6- JC6- JC6- JC6- JC6- JC6- JC6- JC6- JC6- JC6- JC6- JC6- JC6- JC6- JC6- JC6- JC6- C- C- C- C- C- C- IC4- IC4- IC4- IC4- IC4- IC4- IC4- IC4- IC4- IC4- IC4- IC4- IC4- IC4- IC4- IC4- IC4- IC4- IC4- IC4- IC4- IC4- IC4- IC4- C- C- C- C- C- C- JC6- JC6- JC6- JC6- JC6- JC6- JC6- JC6- JC6- JC6- JC6- JC6- JC6- JC6- JC6- JC6- JC6- JC6- JC6- JC6- JC6- JC6- JC6- JC6- C- C- C- C- C- C- IC4- IC4- IC4- IC4- IC4- IC4- IC4- IC4- IC4- IC4- IC4- IC4- IC4- IC4- IC4- IC4- IC4- IC4- IC4- IC4- IC4- IC4- IC4- IC4- C- C- C- C- C- C- JC6- JC6- JC6- JC6- JC6- JC6- JC6- JC6- JC6- JC6- JC6- JC6- JC6- JC6- JC6- JC6- JC6- JC6- JC6- JC6- JC6- JC6- JC6- JC6- C- C- C- C- C- C- IC4- IC4- IC4- IC4- IC4- IC4- IC4- IC4- IC4- IC4- IC4- IC4- IC4- IC4- IC4- IC4- IC4- IC4- IC4- IC4- IC4- IC4- IC4- IC4- C- C- C- C- C- C- JC6- JC6- JC6- JC6- JC6- JC6- JC6- JC6- JC6- JC6- JC6- JC6- JC6- JC6- JC6- JC6- JC6- JC6- JC6- JC6- JC6- JC6- JC6- JC6- C- C- C- C- C- C- IC4- IC4- IC4- IC4- IC4- IC4- IC4- IC4- IC4- IC4- IC4- IC4- IC4- IC4- IC4- IC4- IC4- IC4- IC4- IC4- IC4- IC4- IC4- IC4- C- C- C- C- C- C- JC6- JC6- JC6- JC6- JC6- JC6- JC6- JC6- JC6- JC6- JC6- JC6- JC6- JC6- JC6- JC6- JC6- JC6- JC6- JC6- JC6- JC6- JC6- JC6- C- C- C- C- C- C- IC4- IC4- IC4- IC4- IC4- IC4- IC4- IC4- IC4- IC4- IC4- IC4- IC4- IC4- IC4- IC4- IC4- IC4- IC4- IC4- IC4- IC4- IC4- IC4- C- C- C- C- C- C- CJ-2 CJ-2 CJ-2 CJ-2 CJ-2 CJ-2 CJ-2 CJ-2 CJ-2 CJ-2 CJ-2 CJ-2 CJ-2 CJ-2 CJ-2 CJ-2 CJ-2 CJ-2 CJ-2 CJ-2 CJ-2 CJ-2 CJ-2 CJ-2 J2 J2 J2 J2 J2 J2 J2 J2 J2 J2 J2 J2 J2 J2 J2 J2 J2 J2 J2 J2 J2 J2 J2 J2 J2 J2 J2 J2 J2 J2 J2 J2 J2 J2 J2 J2 J2 J2 J2 J2 J2 J2 J2 J2 J2 J2 J2 J2 J2 J2 J2 J2 J2 J2 J2 J2 J2 J2 J2 J2 J2 J2 J2 J2 J2 J2 J2 J2 J2 J2 J2 J2                         BEJ&2 BEJ&2 BEJ&2 BEJ&2 BEJ&2 BEJ&2 BEJ&2 BEJ&2 BEJ&2 BEJ&2 BEJ&2 BEJ&2 BEJ&2 BEJ&2 BEJ&2 BEJ&2 BEJ&2 BEJ&2 BEJ&2 BEJ&2 BEJ&2 BEJ&2 BEJ&2 BEJ&2 BEJ&2 BEJ&2 BEJ&2 BEJ&2 BEJ&2 BEJ&2 BEJ&2 BEJ&2 BEJ&2 BEJ&2 BEJ&2 BEJ&2 BEJ&2 BEJ&2 BEJ&2 BEJ&2 BEJ&2 BEJ&2 BEJ&2 BEJ&2 BEJ&2 BEJ&2 BEJ&2 BEJ&2 BEJ&2 BEJ&2 BEJ&2 BEJ&2 BEJ&2 BEJ&2 BEJ&2 BEJ&2 BEJ&2 BEJ&2 BEJ&2 BEJ&2 BEJ&2 BEJ&2 BEJ&2 BEJ&2 BEJ&2 BEJ&2 BEJ&2 BEJ&2 BEJ&2 BEJ&2 BEJ&2 BEJ&2 BEJ&2 BEJ&2 BEJ&2 BEJ&2 BEJ&2 BEJ&2 BEJ&2 BEJ&2 BEJ&2 BEJ&2 BEJ&2 BEJ&2 BEJ&2 BEJ&2 BEJ&2 BEJ&2 BEJ&2 BEJ&2 BEJ&2 BEJ&2 BEJ&2 BEJ&2 BEJ&2 BEJ&2 BEJ&2 BEJ&2 BEJ&2 BEJ&2 BEJ&2 BEJ&2 BEJ&2 BEJ&2 BEJ&2 BEJ&2 BEJ&2 BEJ&2 BEJ&2 BEJ&2 BEJ&2 BEJ&2 BEJ&2 BEJ&2 BEJ&2 BEJ&2 BEJ&2 BEJ&2 BEJ&2 BEJ&2 BEJ&2 BEJ&2 BEJ&2 BEJ&2 BEJ&2 BEJ&2 BEJ&2 BEJ&2 BEJ&2 BEJ&2 BEJ&2 BEJ&2 BEJ&2 BEJ&2 BEJ&2 BEJ&2 BEJ&2 BEJ&2 BEJ&2 BEJ&2 BEJ&2 BEJ&2 BEJ&2 BEJ&2 BEJ&2 BEJ&2 BEJ&2 BEJ&2 BEJ&2 BEJ&2 BEJ&2 BEJ&2 BEJ&2 BEJ&2 BEJ&2 BEJ&2 BEJ&2 BEJ&2 BEJ&2 BEJ&2 BEJ&2 BEJ&2 BEJ&2 BEJ&2 BEJ&2 BEJ&2 BEJ&2 BEJ&2 BEJ&2 BEJ&2 BEJ&2 BEJ&2 BEJ&2 BEJ&2 BEJ&2 BEJ&2 BEJ&2 BEJ&2 BEJ&2 BEJ&2 EJ&2 EJ&2 EJ&2 EJ&2 EJ&2 EJ&2 EJ&2 EJ&2 EJ&2 EJ&2 EJ&2 EJ&2 &2 &2 &2 &2 &2 &2 &2 &2 &2 &2 &2 &2 &2 &2 &2 &2 &2 &2 &2 &2 &2 &2 &2 &2 &2 &2 &2 &2 &2 &2 &2 &2 &2 &2 &2 &2 &2 &2 &2 &2 &2 &2 &2 &2 &2 &2 &2 &2 N&2 N&2 N&2 N&2 N&2 N&2 N&2 N&2 N&2 N&2 N&2 N&2 N&2 N&2 N&2 N&2 N&2 N&2 N&2 N&2 N&2 N&2 N&2 N&2 N&2 N&2 N&2 N&2 N&2 N&2 N&2 N&2 N&2 N&2 N&2 N&2 N&2 N&2 N&2 N&2 N&2 N&2 N&2 N&2 N&2 N&2 N&2 N&2 N N N N N N N N N N N N N N N N N N N N N N N N N N N N N N N N N N N N N N N N N N N N N N N N N N N N N N N N N N N N N N N N N N N N N N N N N> N> N> N> N> N> N> N> N> N> N> N> N> N> N> N> N> N> N> N> N> N> N> N> N> N> N> N> N> N> N> N> N> N> N> N> N> N> N> N> N> N> N> N> N> N> N> N> N> N> N> N> N> N> N> N> N> N> N> N> > > > > > > > > > > > > > > > > > > > > > > > > > > > > > > > > > > > >                         Q< Q< Q< Q< Q< Q< Q< Q< Q< Q< Q< Q< Q< Q< Q< Q< Q< Q< Q< Q< Q< Q< Q< Q< Q< Q< Q< Q< Q< Q< Q< Q< Q< Q< Q< Q< Q< Q< Q< Q< Q< Q< Q< Q< Q< Q< Q< Q< Q< Q< Q< Q< Q< Q< Q< Q< Q< Q< Q< Q< Q< Q< Q< Q< Q< Q< Q< Q< Q< Q< Q< Q< Q< Q< Q< Q< Q< Q< Q< Q< Q< Q< Q< Q< Q< Q< Q< Q< Q< Q< Q< Q< Q< Q< Q< Q< Q Q Q Q Q Q Q Q Q Q Q Q Q Q Q Q Q Q Q Q Q Q Q Q Q; Q; Q; Q; Q; Q; Q; Q; Q; Q; Q; Q; Q; Q; Q; Q; Q; Q; Q; Q; Q; Q; Q; Q; Q; Q; Q; Q; Q; Q; Q; Q; Q; Q; Q; Q; Q; Q; Q; Q; Q; Q; Q; Q; Q; Q; Q; Q; Q; Q; Q; Q; Q; Q; Q; Q; Q; Q; Q; Q; Q; Q; Q; Q; Q; Q; Q; Q; Q; Q; Q; Q; Q; Q; Q; Q; Q; Q; Q; Q; Q; Q; Q; Q; Q; Q; Q; Q; Q; Q; Q; Q; Q; Q; Q; Q; Q Q Q Q Q Q Q Q Q Q Q Q Q Q Q Q Q Q Q Q Q Q Q Q Q9 Q9 Q9 Q9 Q9 Q9 Q9 Q9 Q9 Q9 Q9 Q9 Q9 Q9 Q9 Q9 Q9 Q9 Q9 Q9 Q9 Q9 Q9 Q9 Q9 Q9 Q9 Q9 Q9 Q9 Q9 Q9 Q9 Q9 Q9 Q9 Q9 Q9 Q9 Q9 Q9 Q9 Q9 Q9 Q9 Q9 Q9 Q9 9 9 9 9 9 9 9 9 9 9 9 9 9 9 9 9 9 9 9 9 9 9 9 9 9 9 9 9 9 9 9 9 9 9 9 9 9 9 9 9 9 9 9 9 9 9 9 9                         S7 S7 S7 S7 S7 S7 S7 S7 S7 S7 S7 S7 S7 S7 S7 S7 S7 S7 S7 S7 S7 S7 S7 S7 S7 S7 S7 S7 S7 S7 S7 S7 S7 S7 S7 S7 S7 S7 S7 S7 S7 S7 S7 S7 S7 S7 S7 S7 S7 S7 S7 S7 S7 S7 S7 S7 S7 S7 S7 S7 S7 S7 S7 S7 S7 S7 S7 S7 S7 S7 S7 S7 S7 S7 S7 S7 S7 S7 S7 S7 S7 S7 S7 S7 S7 S7 S7 S7 S7 S7 S7 S7 S7 S7 S7 S7                         Q6 Q6 Q6 Q6 Q6 Q6 Q6 Q6 Q6 Q6 Q6 Q6 Q6 Q6 Q6 Q6 Q6 Q6 Q6 Q6 Q6 Q6 Q6 Q6 Q6 Q6 Q6 Q6 Q6 Q6 Q6 Q6 Q6 Q6 Q6 Q6 Q6 Q6 Q6 Q6 Q6 Q6 Q6 Q6 Q6 Q6 Q6 Q6 Q6 Q6 Q6 Q6 Q6 Q6 Q6 Q6 Q6 Q6 Q6 Q6 Q6 Q6 Q6 Q6 Q6 Q6 Q6 Q6 Q6 Q6 Q6 Q6 Q6 Q6 Q6 Q6 Q6 Q6 Q6 Q6 Q6 Q6 Q6 Q6 Q6 Q6 Q6 Q6 Q6 Q6 Q6 Q6 Q6 Q6 Q6 Q6                         O7 O7 O7 O7 O7 O7 O7 O7 O7 O7 O7 O7 O7 O7 O7 O7 O7 O7 O7 O7 O7 O7 O7 O7 O7 O7 O7 O7 O7 O7 O7 O7 O7 O7 O7 O7 O7 O7 O7 O7 O7 O7 O7 O7 O7 O7 O7 O7 O7 O7 O7 O7 O7 O7 O7 O7 O7 O7 O7 O7 O7 O7 O7 O7 O7 O7 O7 O7 O7 O7 O7 O7 O7 O7 O7 O7 O7 O7 O7 O7 O7 O7 O7 O7 O7 O7 O7 O7 O7 O7 O7 O7 O7 O7 O7 O7                         N9 N9 N9 N9 N9 N9 N9 N9 N9 N9 N9 N9 N9 N9 N9 N9 N9 N9 N9 N9 N9 N9 N9 N9 N9 N9 N9 N9 N9 N9 N9 N9 N9 N9 N9 N9 N9 N9 N9 N9 N9 N9 N9 N9 N9 N9 N9 N9 N9 N9 N9 N9 N9 N9 N9 N9 N9 N9 N9 N9 N9 N9 N9 N9 N9 N9 N9 N9 N9 N9 N9 N9 N9 N9 N9 N9 N9 N9 N9 N9 N9 N9 N9 N9 N9 N9 N9 N9 N9 N9 N9 N9 N9 N9 N9 N9                         L6 L6 L6 L6 L6 L6 L6 L6 L6 L6 L6 L6 L6 L6 L6 L6 L6 L6 L6 L6 L6 L6 L6 L6 L6 L6 L6 L6 L6 L6 L6 L6 L6 L6 L6 L6 L6 L6 L6 L6 L6 L6 L6 L6 L6 L6 L6 L6 L6 L6 L6 L6 L6 L6 L6 L6 L6 L6 L6 L6 L6 L6 L6 L6 L6 L6 L6 L6 L6 L6 L6 L6 L6 L6 L6 L6 L6 L6 L6 L6 L6 L6 L6 L6 L6 L6 L6 L6 L6 L6 L6 L6 L6 L6 L6 L6                         K; K; K; K; K; K; K; K; K; K; K; K; K; K; K; K; K; K; K; K; K; K; K; K; K; K; K; K; K; K; K; K; K; K; K; K; K; K; K; K; K; K; K; K; K; K; K; K; K; K; K; K; K; K; K; K; K; K; K; K; K; K; K; K; K; K; K; K; K; K; K; K; K; K; K; K; K; K; K; K; K; K; K; K; K; K; K; K; K; K; K; K; K; K; K; K; ; ; ; ; ; ; ; ; ; ; ; ; ; ; ; ; ; ; ; ; ; ; ; ; G; G; G; G; G; G; G; G; G; G; G; G; G; G; G; G; G; G; G; G; G; G; G; G; G; G; G; G; G; G; G; G; G; G; G; G; G; G; G; G; G; G; G; G; G; G; G; G; G; G; G; G; G; G; G; G; G; G; G; G; G; G; G; G; G; G; G; G; G; G; G; G; G; G; G; G; G; G; G; G; G; G; G; G; G; G; G; G; G; G; G; G; G; G; G; G; ; ; ; ; ; ; ; ; ; ; ; ; ; ; ; ; ; ; ; ; ; ; ; ; I; I; I; I; I; I; I; I; I; I; I; I; I; I; I; I; I; I; I; I; I; I; I; I; I; I; I; I; I; I; I; I; I; I; I; I; I; I; I; I; I; I; I; I; I; I; I; I; I I I I I I I I I I I I I I I I I I I I I I I I I I I I I I I I I I I I I I I I I I I I I I I I                         K9 K9 K9 K9 K9 K9 K9 K9 K9 K9 K9 K9 K9 K9 K9 K9 K9 K9 K9 K9 K9 K9 K9 K9 K9 K9 K9 K9 K9 K9 K9 K9 K9 K9 K9 K9 K9 K9 K9 K9 K9 K9 K9 K9 K9 K9 K9 K9 K9 K9 K9 K9 K9 K9 K9 K9 K9 K9 K9 K9 K9 K9 K9 K9 K9 K9 K9 K9 K9 K9 K9 K9 K9 K9 K9 K9 K9 K9 K9 K9 K9 K9 K9 K9 K9 K9 K9 K9 K9 K9 K9 K9 K9 K9 K9 K9                         L7 L7 L7 L7 L7 L7 L7 L7 L7 L7 L7 L7 L7 L7 L7 L7 L7 L7 L7 L7 L7 L7 L7 L7 L7 L7 L7 L7 L7 L7 L7 L7 L7 L7 L7 L7 L7 L7 L7 L7 L7 L7 L7 L7 L7 L7 L7 L7 L7 L7 L7 L7 L7 L7 L7 L7 L7 L7 L7 L7 L7 L7 L7 L7 L7 L7 L7 L7 L7 L7 L7 L7 L7 L7 L7 L7 L7 L7 L7 L7 L7 L7 L7 L7 L7 L7 L7 L7 L7 L7 L7 L7 L7 L7 L7 L7                         N6 N6 N6 N6 N6 N6 N6 N6 N6 N6 N6 N6 N6 N6 N6 N6 N6 N6 N6 N6 N6 N6 N6 N6 N6 N6 N6 N6 N6 N6 N6 N6 N6 N6 N6 N6 N6 N6 N6 N6 N6 N6 N6 N6 N6 N6 N6 N6 N6 N6 N6 N6 N6 N6 N6 N6 N6 N6 N6 N6 N6 N6 N6 N6 N6 N6 N6 N6 N6 N6 N6 N6 N6 N6 N6 N6 N6 N6 N6 N6 N6 N6 N6 N6 N6 N6 N6 N6 N6 N6 N6 N6 N6 N6 N6 N6                         O4 O4 O4 O4 O4 O4 O4 O4 O4 O4 O4 O4 O4 O4 O4 O4 O4 O4 O4 O4 O4 O4 O4 O4 O4 O4 O4 O4 O4 O4 O4 O4 O4 O4 O4 O4 O4 O4 O4 O4 O4 O4 O4 O4 O4 O4 O4 O4 O4 O4 O4 O4 O4 O4 O4 O4 O4 O4 O4 O4 O4 O4 O4 O4 O4 O4 O4 O4 O4 O4 O4 O4 O4 O4 O4 O4 O4 O4 O4 O4 O4 O4 O4 O4 O4 O4 O4 O4 O4 O4 O4 O4 O4 O4 O4 O4                         Q3 Q3 Q3 Q3 Q3 Q3 Q3 Q3 Q3 Q3 Q3 Q3 Q3 Q3 Q3 Q3 Q3 Q3 Q3 Q3 Q3 Q3 Q3 Q3 Q3 Q3 Q3 Q3 Q3 Q3 Q3 Q3 Q3 Q3 Q3 Q3 Q3 Q3 Q3 Q3 Q3 Q3 Q3 Q3 Q3 Q3 Q3 Q3 Q3 Q3 Q3 Q3 Q3 Q3 Q3 Q3 Q3 Q3 Q3 Q3 Q3 Q3 Q3 Q3 Q3 Q3 Q3 Q3 Q3 Q3 Q3 Q3 Q3 Q3 Q3 Q3 Q3 Q3 Q3 Q3 Q3 Q3 Q3 Q3 Q3 Q3 Q3 Q3 Q3 Q3 Q3 Q3 Q3 Q3 Q3 Q3                         O4 O4 O4 O4 O4 O4 O4 O4 O4 O4 O4 O4 O4 O4 O4 O4 O4 O4 O4 O4 O4 O4 O4 O4 O4 O4 O4 O4 O4 O4 O4 O4 O4 O4 O4 O4 O4 O4 O4 O4 O4 O4 O4 O4 O4 O4 O4 O4 O4 O4 O4 O4 O4 O4 O4 O4 O4 O4 O4 O4 O4 O4 O4 O4 O4 O4 O4 O4 O4 O4 O4 O4 O4 O4 O4 O4 O4 O4 O4 O4 O4 O4 O4 O4 O4 O4 O4 O4 O4 O4 O4 O4 O4 O4 O4 O4                         N6 N6 N6 N6 N6 N6 N6 N6 N6 N6 N6 N6 N6 N6 N6 N6 N6 N6 N6 N6 N6 N6 N6 N6 N6 N6 N6 N6 N6 N6 N6 N6 N6 N6 N6 N6 N6 N6 N6 N6 N6 N6 N6 N6 N6 N6 N6 N6 N6 N6 N6 N6 N6 N6 N6 N6 N6 N6 N6 N6 N6 N6 N6 N6 N6 N6 N6 N6 N6 N6 N6 N6 N6 N6 N6 N6 N6 N6 N6 N6 N6 N6 N6 N6 N6 N6 N6 N6 N6 N6 N6 N6 N6 N6 N6 N6                         L7 L7 L7 L7 L7 L7 L7 L7 L7 L7 L7 L7 L7 L7 L7 L7 L7 L7 L7 L7 L7 L7 L7 L7 L7 L7 L7 L7 L7 L7 L7 L7 L7 L7 L7 L7 L7 L7 L7 L7 L7 L7 L7 L7 L7 L7 L7 L7 L7 L7 L7 L7 L7 L7 L7 L7 L7 L7 L7 L7 L7 L7 L7 L7 L7 L7 L7 L7 L7 L7 L7 L7 L7 L7 L7 L7 L7 L7 L7 L7 L7 L7 L7 L7 L7 L7 L7 L7 L7 L7 L7 L7 L7 L7 L7 L7                         J4 J4 J4 J4 J4 J4 J4 J4 J4 J4 J4 J4 J4 J4 J4 J4 J4 J4 J4 J4 J4 J4 J4 J4 J4 J4 J4 J4 J4 J4 J4 J4 J4 J4 J4 J4 J4 J4 J4 J4 J4 J4 J4 J4 J4 J4 J4 J4 J4 J4 J4 J4 J4 J4 J4 J4 J4 J4 J4 J4 J4 J4 J4 J4 J4 J4 J4 J4 J4 J4 J4 J4 J4 J4 J4 J4 J4 J4 J4 J4 J4 J4 J4 J4 J4 J4 J4 J4 J4 J4 J4 J4 J4 J4 J4 J4                         H9 H9 H9 H9 H9 H9 H9 H9 H9 H9 H9 H9 H9 H9 H9 H9 H9 H9 H9 H9 H9 H9 H9 H9 H9 H9 H9 H9 H9 H9 H9 H9 H9 H9 H9 H9 H9 H9 H9 H9 H9 H9 H9 H9 H9 H9 H9 H9 H9 H9 H9 H9 H9 H9 H9 H9 H9 H9 H9 H9 H9 H9 H9 H9 H9 H9 H9 H9 H9 H9 H9 H9 H9 H9 H9 H9 H9 H9 H9 H9 H9 H9 H9 H9 H9 H9 H9 H9 H9 H9 H9 H9 H9 H9 H9 H9 H H H H H H H H H H H H H H H H H H H H H H H H H; H; H; H; H; H; H; H; H; H; H; H; H; H; H; H; H; H; H; H; H; H; H; H; H; H; H; H; H; H; H; H; H; H; H; H; H; H; H; H; H; H; H; H; H; H; H; H; H; H; H; H; H; H; H; H; H; H; H; H; H; H; H; H; H; H; H; H; H; H; H; H; H; H; H; H; H; H; H; H; H; H; H; H; H; H; H; H; H; H; H; H; H; H; H; H; H H H H H H H H H H H H H H H H H H H H H H H H H9 H9 H9 H9 H9 H9 H9 H9 H9 H9 H9 H9 H9 H9 H9 H9 H9 H9 H9 H9 H9 H9 H9 H9 H9 H9 H9 H9 H9 H9 H9 H9 H9 H9 H9 H9 H9 H9 H9 H9 H9 H9 H9 H9 H9 H9 H9 H9 9 9 9 9 9 9 9 9 9 9 9 9 9 9 9 9 9 9 9 9 9 9 9 9 9 9 9 9 9 9 9 9 9 9 9 9 9 9 9 9 9 9 9 9 9 9 9 9                         G7 G7 G7 G7 G7 G7 G7 G7 G7 G7 G7 G7 G7 G7 G7 G7 G7 G7 G7 G7 G7 G7 G7 G7 G7 G7 G7 G7 G7 G7 G7 G7 G7 G7 G7 G7 G7 G7 G7 G7 G7 G7 G7 G7 G7 G7 G7 G7 G7 G7 G7 G7 G7 G7 G7 G7 G7 G7 G7 G7 G7 G7 G7 G7 G7 G7 G7 G7 G7 G7 G7 G7 G7 G7 G7 G7 G7 G7 G7 G7 G7 G7 G7 G7 G7 G7 G7 G7 G7 G7 G7 G7 G7 G7 G7 G7                         E6 E6 E6 E6 E6 E6 E6 E6 E6 E6 E6 E6 E6 E6 E6 E6 E6 E6 E6 E6 E6 E6 E6 E6 E6 E6 E6 E6 E6 E6 E6 E6 E6 E6 E6 E6 E6 E6 E6 E6 E6 E6 E6 E6 E6 E6 E6 E6 E6 E6 E6 E6 E6 E6 E6 E6 E6 E6 E6 E6 E6 E6 E6 E6 E6 E6 E6 E6 E6 E6 E6 E6 E6 E6 E6 E6 E6 E6 E6 E6 E6 E6 E6 E6 E6 E6 E6 E6 E6 E6 E6 E6 E6 E6 E6 E6                         H@ H@ H@ H@ H@ H@ H@ H@ H@ H@ H@ H@ H@ H@ H@ H@ H@ H@ H@ H@ H@ H@ H@ H@ H@ H@ H@ H@ H@ H@ H@ H@ H@ H@ H@ H@ H@ H@ H@ H@ H@ H@ H@ H@ H@ H@ H@ H@ H@ H@ H@ H@ H@ H@ H@ H@ H@ H@ H@ H@ H@ H@ H@ H@ H@ H@ H@ H@ H@ H@ H@ H@ H@ H@ H@ H@ H@ H@ H@ H@ H@ H@ H@ H@ H@ H@ H@ H@ H@ H@ H@ H@ H@ H@ H@ H@                         G? G? G? G? G? G? G? G? G? G? G? G? G? G? G? G? G? G? G? G? G? G? G? G? G? G? G? G? G? G? G? G? G? G? G? G? G? G? G? G? G? G? G? G? G? G? G? G? G? G? G? G? G? G? G? G? G? G? G? G? G? G? G? G? G? G? G? G? G? G? G? G? G? G? G? G? G? G? G? G? G? G? G? G? G? G? G? G? G? G? G? G? G? G? G? G?                         E; E; E; E; E; E; E; E; E; E; E; E; E; E; E; E; E; E; E; E; E; E; E; E; E; E; E; E; E; E; E; E; E; E; E; E; E; E; E; E; E; E; E; E; E; E; E; E; E; E; E; E; E; E; E; E; E; E; E; E; E; E; E; E; E; E; E; E; E; E; E; E; E; E; E; E; E; E; E; E; E; E; E; E; E; E; E; E; E; E; E; E; E; E; E; E;                         C@@ C@@ C@@ C@@ C@@ C@@ C@@ C@@ C@@ C@@ C@@ C@@ C@@ C@@ C@@ C@@ C@@ C@@ C@@ C@@ C@@ C@@ C@@ C@@ C@@ C@@ C@@ C@@ C@@ C@@ C@@ C@@ C@@ C@@ C@@ C@@ C@@ C@@ C@@ C@@ C@@ C@@ C@@ C@@ C@@ C@@ C@@ C@@ C@@ C@@ C@@ C@@ C@@ C@@ C@@ C@@ C@@ C@@ C@@ C@@ C@@ C@@ C@@ C@@ C@@ C@@ C@@ C@@ C@@ C@@ C@@ C@@ C@@ C@@ C@@ C@@ C@@ C@@ C@@ C@@ C@@ C@@ C@@ C@@ C@@ C@@ C@@ C@@ C@@ C@@ C@@ C@@ C@@ C@@ C@@ C@@ C@ C@ C@ C@ C@ C@ C@ C@ C@ C@ C@ C@ C@ C@ C@ C@ C@ C@ C@ C@ C@ C@ C@ C@ C@; C@; C@; C@; C@; C@; C@; C@; C@; C@; C@; C@; C@; C@; C@; C@; C@; C@; C@; C@; C@; C@; C@; C@; C@; C@; C@; C@; C@; C@; C@; C@; C@; C@; C@; C@; C@; C@; C@; C@; C@; C@; C@; C@; C@; C@; C@; C@; C@; C@; C@; C@; C@; C@; C@; C@; C@; C@; C@; C@; C@; C@; C@; C@; C@; C@; C@; C@; C@; C@; C@; C@; C@; C@; C@; C@; C@; C@; C@; C@; C@; C@; C@; C@; C@; C@; C@; C@; C@; C@; C@; C@; C@; C@; C@; C@; C@ C@ C@ C@ C@ C@ C@ C@ C@ C@ C@ C@ C@ C@ C@ C@ C@ C@ C@ C@ C@ C@ C@ C@ C@= C@= C@= C@= C@= C@= C@= C@= C@= C@= C@= C@= C@= C@= C@= C@= C@= C@= C@= C@= C@= C@= C@= C@= C@= C@= C@= C@= C@= C@= C@= C@= C@= C@= C@= C@= C@= C@= C@= C@= C@= C@= C@= C@= C@= C@= C@= C@= @= @= @= @= @= @= @= @= @= @= @= @= @= @= @= @= @= @= @= @= @= @= @= @= @= @= @= @= @= @= @= @= @= @= @= @= @= @= @= @= @= @= @= @= @= @= @= @= @ @ @ @ @ @ @ @ @ @ @ @ @ @ @ @ @ @ @ @ @ @ @ @ @B9 @B9 @B9 @B9 @B9 @B9 @B9 @B9 @B9 @B9 @B9 @B9 @B9 @B9 @B9 @B9 @B9 @B9 @B9 @B9 @B9 @B9 @B9 @B9 B9 B9 B9 B9 B9 B9 B9 B9 B9 B9 B9 B9 B9 B9 B9 B9 B9 B9 B9 B9 B9 B9 B9 B9 B9 B9 B9 B9 B9 B9 B9 B9 B9 B9 B9 B9 B9 B9 B9 B9 B9 B9 B9 B9 B9 B9 B9 B9 B9 B9 B9 B9 B9 B9 B9 B9 B9 B9 B9 B9 B9 B9 B9 B9 B9 B9 B9 B9 B9 B9 B9 B9                         ?B; ?B; ?B; ?B; ?B; ?B; ?B; ?B; ?B; ?B; ?B; ?B; ?B; ?B; ?B; ?B; ?B; ?B; ?B; ?B; ?B; ?B; ?B; ?B; ?B; ?B; ?B; ?B; ?B; ?B; ?B; ?B; ?B; ?B; ?B; ?B; ?B; ?B; ?B; ?B; ?B; ?B; ?B; ?B; ?B; ?B; ?B; ?B; ?B; ?B; ?B; ?B; ?B; ?B; ?B; ?B; ?B; ?B; ?B; ?B; ?B; ?B; ?B; ?B; ?B; ?B; ?B; ?B; ?B; ?B; ?B; ?B; ?B; ?B; ?B; ?B; ?B; ?B; ?B; ?B; ?B; ?B; ?B; ?B; ?B; ?B; ?B; ?B; ?B; ?B; ?B; ?B; ?B; ?B; ?B; ?B; ?B; ?B; ?B; ?B; ?B; ?B; ?B; ?B; ?B; ?B; ?B; ?B; ?B; ?B; ?B; ?B; ?B; ?B; ?B; ?B; ?B; ?B; ?B; ?B; ?B; ?B; ?B; ?B; ?B; ?B; ?B; ?B; ?B; ?B; ?B; ?B; ?B; ?B; ?B; ?B; ?B; ?B; ?B; ?B; ?B; ?B; ?B; ?B; ?B; ?B; ?B; ?B; ?B; ?B; ?B; ?B; ?B; ?B; ?B; ?B; ?B; ?B; ?B; ?B; ?B; ?B; ?B; ?B; ?B; ?B; ?B; ?B; ?B; ?B; ?B; ?B; ?B; ?B; ?B; ?B; ?B; ?B; ?B; ?B; ?B ?B ?B ?B ?B ?B ?B ?B ?B ?B ?B ?B ?B ?B ?B ?B ?B ?B ?B ?B ?B ?B ?B ?B ?B ?B ?B ?B ?B ?B ?B ?B ?B ?B ?B ?B ?B ?B ?B ?B ?B ?B ?B ?B ?B ?B ?B ?B ?B ?B ?B ?B ?B ?B ?B ?B ?B ?B ?B ?B ?B/ ?B/ ?B/ ?B/ ?B/ ?B/ ?B/ ?B/ ?B/ ?B/ ?B/ ?B/ ?B/ ?B/ ?B/ ?B/ ?B/ ?B/ ?B/ ?B/ ?B/ ?B/ ?B/ ?B/ ?B/ ?B/ ?B/ ?B/ ?B/ ?B/ ?B/ ?B/ ?B/ ?B/ ?B/ ?B/ ?B/ ?B/ ?B/ ?B/ ?B/ ?B/ ?B/ ?B/ ?B/ ?B/ ?B/ ?B/ / / / / / / / / / / / / / / / / / / / / / / / / / / / / / / / / / / / / / / / / / / / / / / / / / / / / / / / / / / / / / / / / / / / / / / / / Q/ Q/ Q/ Q/ Q/ Q/ Q/ Q/ Q/ Q/ Q/ Q/ Q/ Q/ Q/ Q/ Q/ Q/ Q/ Q/ Q/ Q/ Q/ Q/ Q/ Q/ Q/ Q/ Q/ Q/ Q/ Q/ Q/ Q/ Q/ Q/ Q/ Q/ Q/ Q/ Q/ Q/ Q/ Q/ Q/ Q/ Q/ Q/ Q/ Q/ Q/ Q/ Q/ Q/ Q/ Q/ Q/ Q/ Q/ Q/ Q Q Q Q Q Q Q Q Q Q Q Q Q Q Q Q Q Q Q Q Q Q Q Q Q Q Q Q Q Q Q Q Q Q Q Q                         O O O O O O O O O O O O O O O O O O O O O O O O O O O O O O O O O O O O O O O O O O O O O O O O O O O O O O O O O O O O O O O O O O O O O O O O O O O O O O O O O O O O O O O O O O O O O O O O                         N N N N N N N N N N N N N N N N N N N N N N N N N N N N N N N N N N N N N N N N N N N N N N N N N N N N N N N N N N N N N N N N N N N N N N N N N N N N N N N N N N N N N N N N N N N N N N N N                         L L L L L L L L L L L L L L L L L L L L L L L L L L L L L L L L L L L L L L L L L L L L L L L L L L L L L L L L L L L L L L L L L L L L L L L L L L L L L L L L L L L L L L L L L L L L L L L L                         K K K K K K K K K K K K K K K K K K K K K K K K K K K K K K K K K K K K K K K K K K K K K K K K K K K K K K K K K K K K K K K K K K K K K K K K K K K K K K K K K K K K K K K K K K K K K K K K                         I I I I I I I I I I I I I I I I I I I I I I I I I I I I I I I I I I I I I I I I I I I I I I I I I I I I I I I I I I I I I I I I I I I I I I I I I I I I I I I I I I I I I I I I I I I I I I I I                         G G G G G G G G G G G G G G G G G G G G G G G G G G G G G G G G G G G G G G G G G G G G G G G G G G G G G G G G G G G G G G G G G G G G G G G G G G G G G G G G G G G G G G G G G G G G G G G G G G G G G G G G G G G G G G G G G G G G G G G G GO@; GO@; GO@; GO@; GO@; GO@; GO@; GO@; GO@; GO@; GO@; GO@; GO@; GO@; GO@; GO@; GO@; GO@; GO@; GO@; GO@; GO@; GO@; GO@; GO@; GO@; GO@; GO@; GO@; GO@; GO@; GO@; GO@; GO@; GO@; GO@; GO@; GO@; GO@; GO@; GO@; GO@; GO@; GO@; GO@; GO@; GO@; GO@; GO@; GO@; GO@; GO@; GO@; GO@; GO@; GO@; GO@; GO@; GO@; GO@; GO@; GO@; GO@; GO@; GO@; GO@; GO@; GO@; GO@; GO@; GO@; GO@; GO@; GO@; GO@; GO@; GO@; GO@; GO@; GO@; GO@; GO@; GO@; GO@; GO@; GO@; GO@; GO@; GO@; GO@; GO@; GO@; GO@; GO@; GO@; GO@; GO@; GO@; GO@; GO@; GO@; GO@; GO@; GO@; GO@; GO@; GO@; GO@; GO@; GO@; GO@; GO@; GO@; GO@; GO@; GO@; GO@; GO@; GO@; GO@; GO@; GO@; GO@; GO@; GO@; GO@; GO@; GO@; GO@; GO@; GO@; GO@; GO@; GO@; GO@; GO@; GO@; GO@; GO@; GO@; GO@; GO@; GO@; GO@; GO@; GO@; GO@; GO@; GO@; GO@; GO@; GO@; GO@; GO@; GO@; GO@; GO@; GO@; GO@; GO@; GO@; GO@; GO@; GO@; GO@; GO@; GO@; GO@; GO@; GO@; GO@; GO@; GO@; GO@; GO@; GO@; GO@; GO@; GO@; GO@; GO; GO; GO; GO; GO; GO; GO; GO; GO; GO; GO; GO;                                                 G?B; G?B; G?B; G?B; G?B; G?B; G?B; G?B; G?B; G?B; G?B; G?B; G?B; G?B; G?B; G?B; G?B; G?B; G?B; G?B; G?B; G?B; G?B; G?B; ?B; ?B; ?B; ?B; ?B; ?B; E?B; E?B; E?B; E?B; E?B; E?B; E?B; E?B; E?B; E?B; E?B; E?B; E?B; E?B; E?B; E?B; E?B; E?B; E?B; E?B; E?B; E?B; E?B; E?B; ?B; ?B; ?B; ?B; ?B; ?B; G?B; G?B; G?B; G?B; G?B; G?B; G?B; G?B; G?B; G?B; G?B; G?B; G?B; G?B; G?B; G?B; G?B; G?B; G?B; G?B; G?B; G?B; G?B; G?B; ?B; ?B; ?B; ?B; ?B; ?B; E?B; E?B; E?B; E?B; E?B; E?B; E?B; E?B; E?B; E?B; E?B; E?B; E?B; E?B; E?B; E?B; E?B; E?B; E?B; E?B; E?B; E?B; E?B; E?B; ?B; ?B; ?B; ?B; ?B; ?B; ?BE; ?BE; ?BE; ?BE; ?BE; ?BE; ?BE; ?BE; ?BE; ?BE; ?BE; ?BE; ?BE; ?BE; ?BE; ?BE; ?BE; ?BE; ?BE; ?BE; ?BE; ?BE; ?BE; ?BE; ?BE; ?BE; ?BE; ?BE; ?BE; ?BE; ?BE; ?BE; ?BE; ?BE; ?BE; ?BE; ?BE; ?BE; ?BE; ?BE; ?BE; ?BE; ?BE; ?BE; ?BE; ?BE; ?BE; ?BE; ?BE; ?BE; ?BE; ?BE; ?BE; ?BE; ?BE; ?BE; ?BE; ?BE; ?BE; ?BE; ?BE ?BE ?BE ?BE ?BE ?BE ?BE ?BE ?BE ?BE ?BE ?BE ?BE ?BE ?BE ?BE ?BE ?BE ?BE ?BE ?BE ?BE ?BE ?BE ?BE ?BE ?BE ?BE ?BE ?BE ?BE ?BE ?BE ?BE ?BE ?BE ?BE ?BE ?BE ?BE ?BE ?BE ?BE ?BE ?BE ?BE ?BE ?BE ?BE ?BE ?BE ?BE ?BE ?BE ?BE ?BE ?BE ?BE ?BE ?BE ?BE/ ?BE/ ?BE/ ?BE/ ?BE/ ?BE/ ?BE/ ?BE/ ?BE/ ?BE/ ?BE/ ?BE/ ?BE/ ?BE/ ?BE/ ?BE/ ?BE/ ?BE/ ?BE/ ?BE/ ?BE/ ?BE/ ?BE/ ?BE/ ?BE/ ?BE/ ?BE/ ?BE/ ?BE/ ?BE/ ?BE/ ?BE/ ?BE/ ?BE/ ?BE/ ?BE/ ?BE/ ?BE/ ?BE/ ?BE/ ?BE/ ?BE/ ?BE/ ?BE/ ?BE/ ?BE/ ?BE/ ?BE/ E/ E/ E/ E/ E/ E/ E/ E/ E/ E/ E/ E/ E/ E/ E/ E/ E/ E/ E/ E/ E/ E/ E/ E/ / / / / / / / / / / / / / / / / / / / / / / / / / / / / / / / / / / / / / / / / / / / / / / / / O/ O/ O/ O/ O/ O/ O/ O/ O/ O/ O/ O/ O/ O/ O/ O/ O/ O/ O/ O/ O/ O/ O/ O/ O/ O/ O/ O/ O/ O/ O/ O/ O/ O/ O/ O/ O/ O/ O/ O/ O/ O/ O/ O/ O/ O/ O/ O/ O/ O/ O/ O/ O/ O/ O/ O/ O/ O/ O/ O/ O O O O O O O O O O O O O O O O O O O O O O O O O O O O O O O O O O O O                         N N N N N N N N N N N N N N N N N N N N N N N N N N N N N N N N N N N N N N N N N N N N N N N N N N N N N N N N N N N N N N N N N N N N N N N N N N N N N N N N N N N N N N N N N N N N N N N N                         L L L L L L L L L L L L L L L L L L L L L L L L L L L L L L L L L L L L L L L L L L L L L L L L L L L L L L L L L L L L L L L L L L L L L L L L L L L L L L L L L L L L L L L L L L L L L L L L                         K K K K K K K K K K K K K K K K K K K K K K K K K K K K K K K K K K K K K K K K K K K K K K K K K K K K K K K K K K K K K K K K K K K K K K K K K K K K K K K K K K K K K K K K K K K K K K K K                         I I I I I I I I I I I I I I I I I I I I I I I I I I I I I I I I I I I I I I I I I I I I I I I I I I I I I I I I I I I I I I I I I I I I I I I I I I I I I I I I I I I I I I I I I I I I I I I I                         G G G G G G G G G G G G G G G G G G G G G G G G G G G G G G G G G G G G G G G G G G G G G G G G G G G G G G G G G G G G G G G G G G G G G G G G G G G G G G G G G G G G G G G G G G G G G G G G                         E E E E E E E E E E E E E E E E E E E E E E E E E E E E E E E E E E E E E E E E E E E E E E E E E E E E E E E E E E E E E E E E E E E E E E E E E E E E E E E E E E E E E E E E E E E E E E E E E E E E E E E E E E E E E E E E E E E E E E E E NEB?; NEB?; NEB?; NEB?; NEB?; NEB?; NEB?; NEB?; NEB?; NEB?; NEB?; NEB?; NEB?; NEB?; NEB?; NEB?; NEB?; NEB?; NEB?; NEB?; NEB?; NEB?; NEB?; NEB?; NEB?; NEB?; NEB?; NEB?; NEB?; NEB?; NEB?; NEB?; NEB?; NEB?; NEB?; NEB?; NEB?; NEB?; NEB?; NEB?; NEB?; NEB?; NEB?; NEB?; NEB?; NEB?; NEB?; NEB?; NEB?; NEB?; NEB?; NEB?; NEB?; NEB?; NEB?; NEB?; NEB?; NEB?; NEB?; NEB?; NEB?; NEB?; NEB?; NEB?; NEB?; NEB?; NEB?; NEB?; NEB?; NEB?; NEB?; NEB?; NEB?; NEB?; NEB?; NEB?; NEB?; NEB?; NEB?; NEB?; NEB?; NEB?; NEB?; NEB?; NEB?; NEB?; NEB?; NEB?; NEB?; NEB?; NEB?; NEB?; NEB?; NEB?; NEB?; NEB?; NEB?; NEB?; NEB?; NEB?; NEB?; NEB?; NEB?; NEB?; NEB?; NEB?; NEB?; NEB?; NEB?; NEB?; NEB?; NEB?; NEB?; NEB?; NEB?; NEB?; NEB?; NEB?; NEB?; NEB?; NEB?; NEB?; NEB?; NEB?; NEB?; NEB?; NEB?; NEB?; NEB?; NEB?; NEB?; NEB?; NEB?; NEB?; NEB?; NEB?; NEB?; NEB?; NEB?; NEB?; NEB?; NEB?; NEB?; NEB?; NEB?; NEB?; NEB?; NEB?; NEB?; NEB?; NEB?; NEB?; NEB?; NEB?; NEB?; NEB?; NEB?; NEB?; NEB?; NEB?; NEB?; NEB?; NEB?; NEB?; NEB?; NEB?; NEB?; NEB?; NEB?; NEB?; NEB?; NEB?; NEB?; NEB?; NEB?; NEB?; NEB?; NEB?; NEB?; NEB?; NE?; NE?; NE?; NE?; NE?; NE?; NE?; NE?; NE?; NE?; NE?; NE?;                                                 C@; C@; C@; C@; C@; C@; C@; C@; C@; C@; C@; C@; C@; C@; C@; C@; C@; C@; C@; C@; C@; C@; C@; C@; C@; C@; C@; C@; C@; C@; C@; C@; C@; C@; C@; C@; C@; C@; C@; C@; C@; C@; C@; C@; C@; C@; C@; C@; C@; C@; C@; C@; C@; C@; C@; C@; C@; C@; C@; C@; C@; C@; C@; C@; C@; C@; C@; C@; C@; C@; C@; C@; C@; C@; C@; C@; C@; C@; C@; C@; C@; C@; C@; C@; C@; C@; C@; C@; C@; C@; C@; C@; C@; C@; C@; C@; C@; C@; C@; C@; C@; C@; C@; C@; C@; C@; C@; C@; C@; C@; C@; C@; C@; C@; C@; C@; C@; C@; C@; C@; C@; C@; C@; C@; C@; C@; C@; C@; C@; C@; C@; C@; C@; C@; C@; C@; C@; C@; C@; C@; C@; C@; C@; C@; C@; C@; C@; C@; C@; C@; C@; C@; C@; C@; C@; C@; C@; C@; C@; C@; C@; C@; C@; C@; C@; C@; C@; C@; C@; C@; C@; C@; C@; C@; C@; C@; C@; C@; C@; C@; C@ C@ C@ C@ C@ C@ C@ C@ C@ C@ C@ C@ C@ C@ C@ C@ C@ C@ C@ C@ C@ C@ C@ C@ C@ C@ C@ C@ C@ C@ C@ C@ C@ C@ C@ C@ C@ C@ C@ C@ C@ C@ C@ C@ C@ C@ C@ C@ C@ C@ C@ C@ C@ C@ C@ C@ C@ C@ C@ C@ C@/ C@/ C@/ C@/ C@/ C@/ C@/ C@/ C@/ C@/ C@/ C@/ C@/ C@/ C@/ C@/ C@/ C@/ C@/ C@/ C@/ C@/ C@/ C@/ C@/ C@/ C@/ C@/ C@/ C@/ C@/ C@/ C@/ C@/ C@/ C@/ C@/ C@/ C@/ C@/ C@/ C@/ C@/ C@/ C@/ C@/ C@/ C@/ @/ @/ @/ @/ @/ @/ @/ @/ @/ @/ @/ @/ @/ @/ @/ @/ @/ @/ @/ @/ @/ @/ @/ @/ @/ @/ @/ @/ @/ @/ @/ @/ @/ @/ @/ @/ @/ @/ @/ @/ @/ @/ @/ @/ @/ @/ @/ @/ @/ @/ @/ @/ @/ @/ @/ @/ @/ @/ @/ @/ @/ @/ @/ @/ @/ @/ @/ @/ @/ @/ @/ @/ @G/ @G/ @G/ @G/ @G/ @G/ @G/ @G/ @G/ @G/ @G/ @G/ @G/ @G/ @G/ @G/ @G/ @G/ @G/ @G/ @G/ @G/ @G/ @G/ G/ G/ G/ G/ G/ G/ G/ G/ G/ G/ G/ G/ G/ G/ G/ G/ G/ G/ G/ G/ G/ G/ G/ G/ G/ G/ G/ G/ G/ G/ G/ G/ G/ G/ G/ G/ G/ G/ G/ G/ G/ G/ G/ G/ G/ G/ G/ G/ G/ G/ G/ G/ G/ G/ G/ G/ G/ G/ G/ G/ G/ G/ G/ G/ G/ G/ G/ G/ G/ G/ G/ G/ / / / / / / / / / / / / / / / / / / / / / / / / I/ I/ I/ I/ I/ I/ I/ I/ I/ I/ I/ I/ I/ I/ I/ I/ I/ I/ I/ I/ I/ I/ I/ I/ I/ I/ I/ I/ I/ I/ I/ I/ I/ I/ I/ I/ I/ I/ I/ I/ I/ I/ I/ I/ I/ I/ I/ I/ I/ I/ I/ I/ I/ I/ I/ I/ I/ I/ I/ I/ I/ I/ I/ I/ I/ I/ I/ I/ I/ I/ I/ I/ I/ I/ I/ I/ I/ I/ I/ I/ I/ I/ I/ I/ I/ I/ I/ I/ I/ I/ I/ I/ I/ I/ I/ I/                         K/ K/ K/ K/ K/ K/ K/ K/ K/ K/ K/ K/ K/ K/ K/ K/ K/ K/ K/ K/ K/ K/ K/ K/ K/ K/ K/ K/ K/ K/ K/ K/ K/ K/ K/ K/ K/ K/ K/ K/ K/ K/ K/ K/ K/ K/ K/ K/ K/ K/ K/ K/ K/ K/ K/ K/ K/ K/ K/ K/ K/ K/ K/ K/ K/ K/ K/ K/ K/ K/ K/ K/ K/ K/ K/ K/ K/ K/ K/ K/ K/ K/ K/ K/ K/ K/ K/ K/ K/ K/ K/ K/ K/ K/ K/ K/                         L1 L1 L1 L1 L1 L1 L1 L1 L1 L1 L1 L1 L1 L1 L1 L1 L1 L1 L1 L1 L1 L1 L1 L1 L1 L1 L1 L1 L1 L1 L1 L1 L1 L1 L1 L1 L1 L1 L1 L1 L1 L1 L1 L1 L1 L1 L1 L1 L1 L1 L1 L1 L1 L1 L1 L1 L1 L1 L1 L1 L1 L1 L1 L1 L1 L1 L1 L1 L1 L1 L1 L1 L1 L1 L1 L1 L1 L1 L1 L1 L1 L1 L1 L1 L1 L1 L1 L1 L1 L1 L1 L1 L1 L1 L1 L1                         N3 N3 N3 N3 N3 N3 N3 N3 N3 N3 N3 N3 N3 N3 N3 N3 N3 N3 N3 N3 N3 N3 N3 N3 N3 N3 N3 N3 N3 N3 N3 N3 N3 N3 N3 N3 N3 N3 N3 N3 N3 N3 N3 N3 N3 N3 N3 N3 N3 N3 N3 N3 N3 N3 N3 N3 N3 N3 N3 N3 N3 N3 N3 N3 N3 N3 N3 N3 N3 N3 N3 N3 N3 N3 N3 N3 N3 N3 N3 N3 N3 N3 N3 N3 N3 N3 N3 N3 N3 N3 N3 N3 N3 N3 N3 N3                         O4 O4 O4 O4 O4 O4 O4 O4 O4 O4 O4 O4 O4 O4 O4 O4 O4 O4 O4 O4 O4 O4 O4 O4 O4 O4 O4 O4 O4 O4 O4 O4 O4 O4 O4 O4 O4 O4 O4 O4 O4 O4 O4 O4 O4 O4 O4 O4 O4 O4 O4 O4 O4 O4 O4 O4 O4 O4 O4 O4 O4 O4 O4 O4 O4 O4 O4 O4 O4 O4 O4 O4 O4 O4 O4 O4 O4 O4 O4 O4 O4 O4 O4 O4 O4 O4 O4 O4 O4 O4 O4 O4 O4 O4 O4 O4                         Q6 Q6 Q6 Q6 Q6 Q6 Q6 Q6 Q6 Q6 Q6 Q6 Q6 Q6 Q6 Q6 Q6 Q6 Q6 Q6 Q6 Q6 Q6 Q6 Q6 Q6 Q6 Q6 Q6 Q6 Q6 Q6 Q6 Q6 Q6 Q6 Q6 Q6 Q6 Q6 Q6 Q6 Q6 Q6 Q6 Q6 Q6 Q6 Q6 Q6 Q6 Q6 Q6 Q6 Q6 Q6 Q6 Q6 Q6 Q6 Q6 Q6 Q6 Q6 Q6 Q6 Q6 Q6 Q6 Q6 Q6 Q6 Q6 Q6 Q6 Q6 Q6 Q6 Q6 Q6 Q6 Q6 Q6 Q6 Q6 Q6 Q6 Q6 Q6 Q6 Q6 Q6 Q6 Q6 Q6 Q6 Q Q Q Q Q Q Q Q Q Q Q Q Q Q Q Q Q Q Q Q Q Q Q Q IQ7 IQ7 IQ7 IQ7 IQ7 IQ7 IQ7 IQ7 IQ7 IQ7 IQ7 IQ7 IQ7 IQ7 IQ7 IQ7 IQ7 IQ7 IQ7 IQ7 IQ7 IQ7 IQ7 IQ7 IQ7 IQ7 IQ7 IQ7 IQ7 IQ7 IQ7 IQ7 IQ7 IQ7 IQ7 IQ7 IQ7 IQ7 IQ7 IQ7 IQ7 IQ7 IQ7 IQ7 IQ7 IQ7 IQ7 IQ7 IQ7 IQ7 IQ7 IQ7 IQ7 IQ7 IQ7 IQ7 IQ7 IQ7 IQ7 IQ7 IQ7 IQ7 IQ7 IQ7 IQ7 IQ7 IQ7 IQ7 IQ7 IQ7 IQ7 IQ7 IQ7 IQ7 IQ7 IQ7 IQ7 IQ7 IQ7 IQ7 IQ7 IQ7 IQ7 IQ7 IQ7 IQ7 IQ7 IQ7 IQ7 IQ7 IQ7 IQ7 IQ7 IQ7 IQ7 IQ7 IQ IQ IQ IQ IQ IQ IQ IQ IQ IQ IQ IQ IQ IQ IQ IQ IQ IQ IQ IQ IQ IQ IQ IQ IQ9 IQ9 IQ9 IQ9 IQ9 IQ9 IQ9 IQ9 IQ9 IQ9 IQ9 IQ9 IQ9 IQ9 IQ9 IQ9 IQ9 IQ9 IQ9 IQ9 IQ9 IQ9 IQ9 IQ9 IQ9 IQ9 IQ9 IQ9 IQ9 IQ9 IQ9 IQ9 IQ9 IQ9 IQ9 IQ9 IQ9 IQ9 IQ9 IQ9 IQ9 IQ9 IQ9 IQ9 IQ9 IQ9 IQ9 IQ9 IQ9 IQ9 IQ9 IQ9 IQ9 IQ9 IQ9 IQ9 IQ9 IQ9 IQ9 IQ9 IQ9 IQ9 IQ9 IQ9 IQ9 IQ9 IQ9 IQ9 IQ9 IQ9 IQ9 IQ9 Q9 Q9 Q9 Q9 Q9 Q9 Q9 Q9 Q9 Q9 Q9 Q9 Q9 Q9 Q9 Q9 Q9 Q9 Q9 Q9 Q9 Q9 Q9 Q9 Q Q Q Q Q Q Q Q Q Q Q Q Q Q Q Q Q Q Q Q Q Q Q Q IQ; IQ; IQ; IQ; IQ; IQ; IQ; IQ; IQ; IQ; IQ; IQ; IQ; IQ; IQ; IQ; IQ; IQ; IQ; IQ; IQ; IQ; IQ; IQ; IQ; IQ; IQ; IQ; IQ; IQ; IQ; IQ; IQ; IQ; IQ; IQ; IQ; IQ; IQ; IQ; IQ; IQ; IQ; IQ; IQ; IQ; IQ; IQ; IQ; IQ; IQ; IQ; IQ; IQ; IQ; IQ; IQ; IQ; IQ; IQ; IQ; IQ; IQ; IQ; IQ; IQ; IQ; IQ; IQ; IQ; IQ; IQ; IQ; IQ; IQ; IQ; IQ; IQ; IQ; IQ; IQ; IQ; IQ; IQ; IQ; IQ; IQ; IQ; IQ; IQ; IQ; IQ; IQ; IQ; IQ; IQ; Q Q Q Q Q Q Q Q Q Q Q Q Q Q Q Q Q Q Q Q Q Q Q Q QK= QK= QK= QK= QK= QK= QK= QK= QK= QK= QK= QK= QK= QK= QK= QK= QK= QK= QK= QK= QK= QK= QK= QK= QK= QK= QK= QK= QK= QK= QK= QK= QK= QK= QK= QK= QK= QK= QK= QK= QK= QK= QK= QK= QK= QK= QK= QK= QK= QK= QK= QK= QK= QK= QK= QK= QK= QK= QK= QK= QK= QK= QK= QK= QK= QK= QK= QK= QK= QK= QK= QK= QK= QK= QK= QK= QK= QK= QK= QK= QK= QK= QK= QK= QK= QK= QK= QK= QK= QK= QK= QK= QK= QK= QK= QK= QK QK QK QK QK QK QK QK QK QK QK QK QK QK QK QK QK QK QK QK QK QK QK QK QK? QK? QK? QK? QK? QK? QK? QK? QK? QK? QK? QK? QK? QK? QK? QK? QK? QK? QK? QK? QK? QK? QK? QK? QK? QK? QK? QK? QK? QK? QK? QK? QK? QK? QK? QK? QK? QK? QK? QK? QK? QK? QK? QK? QK? QK? QK? QK? K? K? K? K? K? K? K? K? K? K? K? K? K? K? K? K? K? K? K? K? K? K? K? K? K? K? K? K? K? K? K? K? K? K? K? K? K? K? K? K? K? K? K? K? K? K? K? K? K K K K K K K K K                S; S; S; S; S; S; S; S; S; S; S; S; S; S; S; S; S; S; S; S; S; S; S; S; S; S; S; S; S; S; S; S; S; S; S; S; S; S; S; S; S; S; S; S; S; S; S; S; S; S; S; S; S; S; S; S; S; S; S; S; S; S; S; S; S; S; S; S; S; S; S; S; S; S; S; S; S; S; S; S; S; S; S; S; S; S; S; S; S; S; S; S; S; S; S; S;                         OL@ OL@ OL@ OL@ OL@ OL@ OL@ OL@ OL@ OL@ OL@ OL@ OL@ OL@ OL@ OL@ OL@ OL@ OL@ OL@ OL@ OL@ OL@ OL@ OL@ OL@ OL@ OL@ OL@ OL@ OL@ OL@ OL@ OL@ OL@ OL@ OL@ OL@ OL@ OL@ OL@ OL@ OL@ OL@ OL@ OL@ OL@ OL@ OL@ OL@ OL@ OL@ OL@ OL@ OL@ OL@ OL@ OL@ OL@ OL@ OL@ OL@ OL@ OL@ OL@ OL@ OL@ OL@ OL@ OL@ OL@ OL@ OL@ OL@ OL@ OL@ OL@ OL@ OL@ OL@ OL@ OL@ OL@ OL@ OL@ OL@ OL@ OL@ OL@ OL@ OL@ OL@ OL@ OL@ OL@ OL@ OL@ OL@ OL@ OL@ OL@ OL@ OL@ OL@ OL@ OL@ OL@ OL@ OL@ OL@ OL@ OL@ OL@ OL@ OL@ OL@ OL@ OL@ OL@ OL@ OL@ OL@ OL@ OL@ OL@ OL@ OL@ OL@ OL@ OL@ OL@ OL@ OL@ OL@ OL@ OL@ OL@ OL@ OL@ OL@ OL@ OL@ OL@ OL@ OL@ OL@ OL@ OL@ OL@ OL@ OL@ OL@ OL@ OL@ OL@ OL@ OL@ OL@ OL@ OL@ OL@ OL@ OL@ OL@ OL@ OL@ OL@ OL@ OL@ OL@ OL@ OL@ OL@ OL@ OL@ OL@ OL@ OL@ OL@ OL@ OL OL OL OL OL OL OL OL OL OL OL OL OL OL OL OL OL OL OL OL OL OL OL OL OL OL OL OL OL OL OL OL OL OL OL OL OL OL OL OL OL OL OL OL OL OL OL OL OL OL OL OL OL OL OL OL OL OL OL OL OL9 OL9 OL9 OL9 OL9 OL9 OL9 OL9 OL9 OL9 OL9 OL9 OL9 OL9 OL9 OL9 OL9 OL9 OL9 OL9 OL9 OL9 OL9 OL9 OL9 OL9 OL9 OL9 OL9 OL9 OL9 OL9 OL9 OL9 OL9 OL9 OL9 OL9 OL9 OL9 OL9 OL9 OL9 OL9 OL9 OL9 OL9 OL9 L9 L9 L9 L9 L9 L9 L9 L9 L9 L9 L9 L9 L9 L9 L9 L9 L9 L9 L9 L9 L9 L9 L9 L9 L9 L9 L9 L9 L9 L9 L9 L9 L9 L9 L9 L9 L9 L9 L9 L9 L9 L9 L9 L9 L9 L9 L9 L9 L9 L9 L9 L9 L9 L9 L9 L9 L9 L9 L9 L9 L9 L9 L9 L9 L9 L9 L9 L9 L9 L9 L9 L9 LN9 LN9 LN9 LN9 LN9 LN9 LN9 LN9 LN9 LN9 LN9 LN9 LN9 LN9 LN9 LN9 LN9 LN9 LN9 LN9 LN9 LN9 LN9 LN9 N9 N9 N9 N9 N9 N9 N9 N9 N9 N9 N9 N9 N9 N9 N9 N9 N9 N9 N9 N9 N9 N9 N9 N9 N9 N9 N9 N9 N9 N9 N9 N9 N9 N9 N9 N9 N N N N N N N N N N N N N N N N N N N N N N N N N N N N N N N N N N N N                         OK; OK; OK; OK; OK; OK; OK; OK; OK; OK; OK; OK; OK; OK; OK; OK; OK; OK; OK; OK; OK; OK; OK; OK; K; K; K; K; K; K; NK; NK; NK; NK; NK; NK; NK; NK; NK; NK; NK; NK; NK; NK; NK; NK; NK; NK; NK; NK; NK; NK; NK; NK; K; K; K; K; K; K; OK; OK; OK; OK; OK; OK; OK; OK; OK; OK; OK; OK; OK; OK; OK; OK; OK; OK; OK; OK; OK; OK; OK; OK; K; K; K; K; K; K; NK; NK; NK; NK; NK; NK; NK; NK; NK; NK; NK; NK; NK; NK; NK; NK; NK; NK; NK; NK; NK; NK; NK; NK; K; K; K; K; K; K; OK; OK; OK; OK; OK; OK; OK; OK; OK; OK; OK; OK; OK; OK; OK; OK; OK; OK; OK; OK; OK; OK; OK; OK; K; K; K; K; K; K; NK; NK; NK; NK; NK; NK; NK; NK; NK; NK; NK; NK; NK; NK; NK; NK; NK; NK; NK; NK; NK; NK; NK; NK; K; K; K; K; K; K; OK OK OK OK OK OK OK OK OK OK OK OK OK OK OK OK OK OK OK OK OK OK OK OK K K K K K K NK NK NK NK NK NK NK NK NK NK NK NK NK NK NK NK NK NK NK NK NK NK NK NK K K K K K K OK/ OK/ OK/ OK/ OK/ OK/ OK/ OK/ OK/ OK/ OK/ OK/ OK/ OK/ OK/ OK/ OK/ OK/ OK/ OK/ OK/ OK/ OK/ OK/ K/ K/ K/ K/ K/ K/ NK/ NK/ NK/ NK/ NK/ NK/ NK/ NK/ NK/ NK/ NK/ NK/ NK/ NK/ NK/ NK/ NK/ NK/ NK/ NK/ NK/ NK/ NK/ NK/ K/ K/ K/ K/ K/ K/ OK/ OK/ OK/ OK/ OK/ OK/ OK/ OK/ OK/ OK/ OK/ OK/ OK/ OK/ OK/ OK/ OK/ OK/ OK/ OK/ OK/ OK/ OK/ OK/ K/ K/ K/ K/ K/ K/ NK/ NK/ NK/ NK/ NK/ NK/ NK/ NK/ NK/ NK/ NK/ NK/ NK/ NK/ NK/ NK/ NK/ NK/ NK/ NK/ NK/ NK/ NK/ NK/ K/ K/ K/ K/ K/ K/ KL/ KL/ KL/ KL/ KL/ KL/ KL/ KL/ KL/ KL/ KL/ KL/ KL/ KL/ KL/ KL/ KL/ KL/ KL/ KL/ KL/ KL/ KL/ KL/ L/ L/ L/ L/ L/ L/ L/ L/ L/ L/ L/ L/ L/ L/ L/ L/ L/ L/ L/ L/ L/ L/ L/ L/ L/ L/ L/ L/ L/ L/ L/ L/ L/ L/ L/ L/ L L L L L L L L L L L L L L L L L L L L L L L L L L L L L L L L L L L L                         L4 L4 L4 L4 L4 L4 L4 L4 L4 L4 L4 L4 L4 L4 L4 L4 L4 L4 L4 L4 L4 L4 L4 L4 L4 L4 L4 L4 L4 L4 L4 L4 L4 L4 L4 L4 L4 L4 L4 L4 L4 L4 L4 L4 L4 L4 L4 L4 L4 L4 L4 L4 L4 L4 L4 L4 L4 L4 L4 L4 L4 L4 L4 L4 L4 L4 L4 L4 L4 L4 L4 L4 L4 L4 L4 L4 L4 L4 L4 L4 L4 L4 L4 L4 L4 L4 L4 L4 L4 L4 L4 L4 L4 L4 L4 L4 L4 L4 L4 L4 L4 L4 L4 L4 L4 L4 L4 L4 L4 L4 L4 L4 L4 L4 L4 L4 L4 L4 L4 L4 L4 L4 L4 L4 L4 L4 L4 L4 L4 L4 L4 L4 L4 L4 L4 L4 L4 L4 L4 L4 L4 L4 L4 L4 L4 L4 L4 L4 L4 L4 L4 L4 L4 L4 L4 L4 L4 L4 L4 L4 L4 L4 L4 L4 L4 L4 L4 L4 L4 L4 L4 L4 L4 L4 L4 L4 L4 L4 L4 L4 L4 L4 L4 L4 L4 L4 L4 L4 L4 L4 L4 L4 L4 L4 L4 L4 L4 L4 L4 L4 L4 L4 L4 L4 L4 L4 L4 L4 L4 L4 L4 L4 L4 L4 L4 L4 L4 L4 L4 L4 L4 L4 L4 L4 L4 L4 L4 L4 L4 L4 L4 L4 L4 L4 L4 L4 L4 L4 L4 L4 L4( L4( L4( L4( L4( L4( L4( L4( L4( L4( L4( L4( L4( L4( L4( L4( L4( L4( L4( L4( L4( L4( L4( L4( L4( L4( L4( L4( L4( L4( L4( L4( L4( L4( L4( L4( L4( L4( L4( L4( L4( L4( L4( L4( L4( L4( L4( L4( L4( L4( L4( L4( L4( L4( L4( L4( L4( L4( L4( L4( L4( L4( L4( L4( L4( L4( L4( L4( L4( L4( L4( L4( L4( L4( L4( L4( L4( L4( L4( L4( L4( L4( L4( L4( L4( L4( L4( L4( L4( L4( L4( L4( L4( L4( L4( L4( L4( L4( L4( L4( L4( L4( L4( L4( L4( L4( L4( L4( L4( L4( L4( L4( L4( L4( L4( L4( L4( L4( L4( L4( L4( L4( L4( L4( L4( L4( L4( L4( L4( L4( L4( L4( L4( L4( L4( L4( L4( L4( L4( L4( L4( L4( L4( L4( L4( L4( L4( L4( L4( L4( L4( L4( L4( L4( L4( L4( L4( L4( L4( L4( L4( L4( L4( L4( L4( L4( L4( L4( L4( L4( L4( L4( L4( L4( L4( L4( L4( L4( L4( L4( L4( L4( L4( L4( L4( L4( L4( L4( L4( L4( L4( L4( L4( L4( L4( L4( L4( L4( L4( L4( L4( L4( L4( L4( L4( L4( L4( L4( L4( L4( L4( L4( L4( L4( L4( L4( L4( L4( L4( L4( L4( L4( L4( L4( L4( L4( L4( L4( L4( L4( L4( L4( L4( L4( L4( L4( L4( L4( L4( L4( L4/( L4/( L4/( L4/( L4/( L4/( L4/( L4/( L4/( L4/( L4/( L4/( L4/( L4/( L4/( L4/( L4/( L4/( L4/( L4/( L4/( L4/( L4/( L4/( L4/( L4/( L4/( L4/( L4/( L4/( L4/( L4/( L4/( L4/( L4/( L4/( L4/( L4/( L4/( L4/( L4/( L4/( L4/( L4/( L4/( L4/( L4/( L4/( L4/( L4/( L4/( L4/( L4/( L4/( L4/( L4/( L4/( L4/( L4/( L4/( L4/( L4/( L4/( L4/( L4/( L4/( L4/( L4/( L4/( L4/( L4/( L4/( L4/( L4/( L4/( L4/( L4/( L4/( L4/( L4/( L4/( L4/( L4/( L4/( L4/( L4/( L4/( L4/( L4/( L4/( L4/( L4/( L4/( L4/( L4/( L4/( L/( L/( L/( L/( L/( L/( L/( L/( L/( L/( L/( L/( L/( L/( L/( L/( L/( L/( L/( L/( L/( L/( L/( L/( L/( L/( L/( L/( L/( L/( L/( L/( L/( L/( L/( L/( L/( L/( L/( L/( L/( L/( L/( L/( L/( L/( L/( L/( L/( L/( L/( L/( L/( L/( L/( L/( L/( L/( L/( L/( L/( L/( L/( L/( L/( L/( L/( L/( L/( L/( L/( L/( L/( L/( L/( L/( L/( L/( L/( L/( L/( L/( L/( L/( L/( L/( L/( L/( L/( L/( L/( L/( L/( L/( L/( L/( L( L( L( L( L( L( L( L( L( L( L( L( L( L( L( L( L( L( L( L( L( L( L( L( L( L( L( L( L( L( L( L( L( L( L( L( L( L( L( L( L( L( L( L( L( L( L( L( CGL(4 CGL(4 CGL(4 CGL(4 CGL(4 CGL(4 CGL(4 CGL(4 CGL(4 CGL(4 CGL(4 CGL(4 CGL(4 CGL(4 CGL(4 CGL(4 CGL(4 CGL(4 CGL(4 CGL(4 CGL(4 CGL(4 CGL(4 CGL(4 CGL(4 CGL(4 CGL(4 CGL(4 CGL(4 CGL(4 CGL(4 CGL(4 CGL(4 CGL(4 CGL(4 CGL(4 CGL(4 CGL(4 CGL(4 CGL(4 CGL(4 CGL(4 CGL(4 CGL(4 CGL(4 CGL(4 CGL(4 CGL(4 CGL(4 CGL(4 CGL(4 CGL(4 CGL(4 CGL(4 CGL(4 CGL(4 CGL(4 CGL(4 CGL(4 CGL(4 CGL(4 CGL(4 CGL(4 CGL(4 CGL(4 CGL(4 CGL(4 CGL(4 CGL(4 CGL(4 CGL(4 CGL(4 CGL(4 CGL(4 CGL(4 CGL(4 CGL(4 CGL(4 CGL(4 CGL(4 CGL(4 CGL(4 CGL(4 CGL(4 CGL(4 CGL(4 CGL(4 CGL(4 CGL(4 CGL(4 CGL(4 CGL(4 CGL(4 CGL(4 CGL(4 CGL(4 CGL(4 CGL(4 CGL(4 CGL(4 CGL(4 CGL(4 CGL(4 CGL(4 CGL(4 CGL(4 CGL(4 CGL(4 CGL(4 CGL(4 CGL(4 CGL(4 CGL(4 CGL(4 CGL(4 CGL(4 CGL(4 CGL(4 CGL(4 CGL(4 CGL(4 CGL(4 CGL(4 CGL(4 CGL(4 CGL(4 CGL(4 CGL(4 CGL(4 CGL(4 CGL(4 CGL(4 CGL(4 CGL(4 CGL(4 CGL(4 CGL(4 CGL(4 CGL(4 CGL(4 CGL(4 CGL(4 CGL(4 CGL(4 CGL(4 CGL(4 CGL(4 CGL(4 CGL(4 CGL(4 CGL(4 CGL(4 CGL(4 CGL(4 CGL(4 CGL(4 CGL(4 CGL(4 CGL(4 CGL(4 CGL(4 CGL(4 CGL(4 CGL(4 CGL(4 CGL(4 CGL(4 CGL(4 CGL(4 CGL(4 CGL(4 CGL(4 CGL(4 CGL(4 CGL(4 CGL(4 CGL(4 CGL(4 CGL(4 CGL(4 CGL(4 CGL(4 CGL(4 CGL(4 CGL(4 CGL(4 CGL(4 CGL(4 CGL(4 CGL(4 CGL(4 CGL(4 CGL(4 CGL(4 CGL(4 CGL(4 CGL(4 CGL(4 CGL(4 CGL(4 CGL(4 CGL(4 CGL(4 CGL(4 CGL(4 CGL(4 CGL(4 CGL(4 CGL(4 CGL(4 CGL(4 CGL(4 CGL(4 CGL(4 CGL(4 CGL(4 CGL(4 CGL(4 CGL(4 CGL(4 CGL(4 CGL(4 CGL(4 CGL(4 CGL(4 CGL(4 CGL(4 CGL(4 CGL(4 CGL(4 CGL(4 CGL(4 CGL(4 CGL(4 CGL(4 CGL(4 CGL(4 CGL(4 CGL(4 CGL(4 CGL(4 CGL(4 CGL(4 CGL(4 CGL(4 CGL(4 CGL(4 CGL(4 CGL(4 CGL(4 CGL(4 CGL(4 CGL(4 CGL(4 CGL(4 CGL(4 CGL(4 CGL(4 CGL(4 CGL(4 CGL(4 CGL(4 CGL(4 CGL(4 CGL(4 CGL(4 CGL(4 CGL(4 CGL(4 CGL(4 CGL(4 CGL(4 CGL(4 CGL(4 CGL(4 CGL(4 CGL(4 CGL(4 CGL(4 CGL(4 CGL(4 CGL(4 CGL(4 CGL(4 CGL(4 CGL(4 CGL(4 CGL(4 CGL(4 CGL(4 CGL(4 CGL(4 CGL(4 CGL(4 CGL(4 CGL(4 CGL(4 CGL(4 CGL(4 CGL(4 CGL(4 CGL(4 CGL(4 CGL(4 CGL(4 CGL(4 CGL(4 CGL(4 CGL(4 CGL(4 CGL(4 CGL(4 CGL(4 CGL(4 CGL(4 CGL(4 CGL(4 CGL(4 CGL(4 CGL(4 CGL(4 CGL(4 CGL(4 CGL(4 CGL(4 CGL(4 CGL(4 CGL(4 CGL(4 CGL(4 CGL(4 CGL(4 CGL(4 CGL(4 CGL(4 CGL(4 CGL(4 CGL(4 CGL(4 CGL(4 CGL(4 CGL(4 CGL(4 CGL(4 CGL(4 CGL(4 CGL(4 CGL(4 CGL(4 CGL(4 CGL(4 CGL(4 CGL(4 CGL(4 CGL(4 CGL(4 CGL(4 CGL(4 CGL(4 CGL(4 CGL(4 CGL(4 CGL(4 CGL(4 CGL(4 CGL(4 CGL(4 CGL(4 CGL(4 CGL(4 CGL(4 CGL(4 CGL(4 CGL(4 CGL(4 CGL(4 CGL(4 CGL(4 CGL(4 CGL(4 CGL(4 CGL(4 CGL(4 CGL(4  