E E E E E E E E E E E E E E E E E E E E E E E E E E E E E E E E E E E E E E E E E E E E E E E E E E E E E E E E E E E E E E E E E E E E E E E E E E E E E E E E E E E E E E E E E E E E E E E E                         @<E9 @<E9 @<E9 @<E9 @<E9 @<E9 @<E9 @<E9 @<E9 @<E9 @<E9 @<E9 @<E9 @<E9 @<E9 @<E9 @<E9 @<E9 @<E9 @<E9 @<E9 @<E9 @<E9 @<E9 @<E9 @<E9 @<E9 @<E9 @<E9 @<E9 @<E9 @<E9 @<E9 @<E9 @<E9 @<E9 @<E9 @<E9 @<E9 @<E9 @<E9 @<E9 @<E9 @<E9 @<E9 @<E9 @<E9 @<E9 @<E9 @<E9 @<E9 @<E9 @<E9 @<E9 @<E9 @<E9 @<E9 @<E9 @<E9 @<E9 @<E9 @<E9 @<E9 @<E9 @<E9 @<E9 @<E9 @<E9 @<E9 @<E9 @<E9 @<E9 @<E9 @<E9 @<E9 @<E9 @<E9 @<E9 @<E9 @<E9 @<E9 @<E9 @<E9 @<E9 @<E9 @<E9 @<E9 @<E9 @<E9 @<E9 @<E9 @<E9 @<E9 @<E9 @<E9 @<E9 @<E9 @<E9 @<E9 @<E9 @<E9 @<E9 @<E9 @<E9 @<E9 @<E9 @<E9 @<E9 @<E9 @<E9 @<E9 @<E9 @<E9 @<E9 @<E9 @<E9 @<E9 @<E9 @<E9 @<E9 @<E9 @<E9 @<E9 @<E9 @<E9 @<E9 @<E9 @<E9 @<E9 @<E9 @<E9 @<E9 @<E9 @<E9 @<E9 @<E9 @<E9 @<E9 @<E9 @<E9 @<E9 @<E9 @<E9 @<E9 @<E9 @<E9 @<E9 @<E9 @<E9 @<E9 @<E9 @<E9 @<E9 @<E9 @<E9 @<E9 @<E9 @<E9 @<E9 @<E9 @<E9 @<E9 @<E9 @<E9 @<E9 @<E9 @<E9 @<E9 @<E9 @<E9 @<E9 @<E9 @<E9 @<E9 @<E9 @<E9 @<E9 @<E9 @<E9 @<E9 @<E9 @<E9 @<E9 @<E9 @<E9 @<E9 @<E9 @<E9 @<E9 @<E9 @<E9 @<E9 @<E @<E @<E @<E @<E @<E @<E @<E @<E @<E @<E @<E @<E @<E @<E @<E @<E @<E @<E @<E @<E @<E @<E @<E @<E @<E @<E @<E @<E @<E @<E @<E @<E @<E @<E @<E @<E @<E @<E @<E @<E @<E @<E @<E @<E @<E @<E @<E @<E4 @<E4 @<E4 @<E4 @<E4 @<E4 @<E4 @<E4 @<E4 @<E4 @<E4 @<E4 @<E4 @<E4 @<E4 @<E4 @<E4 @<E4 @<E4 @<E4 @<E4 @<E4 @<E4 @<E4 @<E4 @<E4 @<E4 @<E4 @<E4 @<E4 @<E4 @<E4 @<E4 @<E4 @<E4 @<E4 @<E4 @<E4 @<E4 @<E4 @<E4 @<E4 @<E4 @<E4 @<E4 @<E4 @<E4 @<E4 4 4 4 4 4 4 4 4 4 4 4 4 4 4 4 4 4 4 4 4 4 4 4 4 4 4 4 4 4 4 4 4 4 4 4 4 4 4 4 4 4 4 4 4 4 4 4 4 4 4 4 4 4 4 4 4 4 4 4 4 4 4 4 4 4 4 4 4 4 4 4 4 G4 G4 G4 G4 G4 G4 G4 G4 G4 G4 G4 G4 G4 G4 G4 G4 G4 G4 G4 G4 G4 G4 G4 G4 G4 G4 G4 G4 G4 G4 G4 G4 G4 G4 G4 G4 G4 G4 G4 G4 G4 G4 G4 G4 G4 G4 G4 G4 G4 G4 G4 G4 G4 G4 G4 G4 G4 G4 G4 G4 G4 G4 G4 G4 G4 G4 G4 G4 G4 G4 G4 G4 G G G G G G G G G G G G G G G G G G G G G G G G                         H- H- H- H- H- H- H- H- H- H- H- H- H- H- H- H- H- H- H- H- H- H- H- H- H- H- H- H- H- H- H- H- H- H- H- H- H- H- H- H- H- H- H- H- H- H- H- H- H- H- H- H- H- H- H- H- H- H- H- H- H- H- H- H- H- H- H- H- H- H- H- H- H- H- H- H- H- H- H- H- H- H- H- H- H- H- H- H- H- H- H- H- H- H- H- H- - - - - - - - - - - - - - - - - - - - - - - - - J- J- J- J- J- J- J- J- J- J- J- J- J- J- J- J- J- J- J- J- J- J- J- J- J- J- J- J- J- J- J- J- J- J- J- J- J- J- J- J- J- J- J- J- J- J- J- J- J- J- J- J- J- J- J- J- J- J- J- J- J- J- J- J- J- J- J- J- J- J- J- J- J J J J J J J J J J J J J J J J J J J J J J J J                         L9 L9 L9 L9 L9 L9 L9 L9 L9 L9 L9 L9 L9 L9 L9 L9 L9 L9 L9 L9 L9 L9 L9 L9 L9 L9 L9 L9 L9 L9 L9 L9 L9 L9 L9 L9 L9 L9 L9 L9 L9 L9 L9 L9 L9 L9 L9 L9 L9 L9 L9 L9 L9 L9 L9 L9 L9 L9 L9 L9 L9 L9 L9 L9 L9 L9 L9 L9 L9 L9 L9 L9 L9 L9 L9 L9 L9 L9 L9 L9 L9 L9 L9 L9 L9 L9 L9 L9 L9 L9 L9 L9 L9 L9 L9 L9 9 9 9 9 9 9 9 9 9 9 9 9 9 9 9 9 9 9 9 9 9 9 9 9 M9 M9 M9 M9 M9 M9 M9 M9 M9 M9 M9 M9 M9 M9 M9 M9 M9 M9 M9 M9 M9 M9 M9 M9 M9 M9 M9 M9 M9 M9 M9 M9 M9 M9 M9 M9 M9 M9 M9 M9 M9 M9 M9 M9 M9 M9 M9 M9 M9 M9 M9 M9 M9 M9 M9 M9 M9 M9 M9 M9 M9 M9 M9 M9 M9 M9 M9 M9 M9 M9 M9 M9 M M M M M M M M M M M M M M M M M M M M M M M M                         L8 L8 L8 L8 L8 L8 L8 L8 L8 L8 L8 L8 L8 L8 L8 L8 L8 L8 L8 L8 L8 L8 L8 L8 L8 L8 L8 L8 L8 L8 L8 L8 L8 L8 L8 L8 L8 L8 L8 L8 L8 L8 L8 L8 L8 L8 L8 L8 L8 L8 L8 L8 L8 L8 L8 L8 L8 L8 L8 L8 L8 L8 L8 L8 L8 L8 L8 L8 L8 L8 L8 L8 L8 L8 L8 L8 L8 L8 L8 L8 L8 L8 L8 L8 L8 L8 L8 L8 L8 L8 L8 L8 L8 L8 L8 L8 8 8 8 8 8 8 8 8 8 8 8 8 8 8 8 8 8 8 8 8 8 8 8 8 J8 J8 J8 J8 J8 J8 J8 J8 J8 J8 J8 J8 J8 J8 J8 J8 J8 J8 J8 J8 J8 J8 J8 J8 J8 J8 J8 J8 J8 J8 J8 J8 J8 J8 J8 J8 J8 J8 J8 J8 J8 J8 J8 J8 J8 J8 J8 J8 J8 J8 J8 J8 J8 J8 J8 J8 J8 J8 J8 J8 J8 J8 J8 J8 J8 J8 J8 J8 J8 J8 J8 J8 J J J J J J J J J J J J J J J J J J J J J J J J                         H4 H4 H4 H4 H4 H4 H4 H4 H4 H4 H4 H4 H4 H4 H4 H4 H4 H4 H4 H4 H4 H4 H4 H4 H4 H4 H4 H4 H4 H4 H4 H4 H4 H4 H4 H4 H4 H4 H4 H4 H4 H4 H4 H4 H4 H4 H4 H4 H4 H4 H4 H4 H4 H4 H4 H4 H4 H4 H4 H4 H4 H4 H4 H4 H4 H4 H4 H4 H4 H4 H4 H4 H4 H4 H4 H4 H4 H4 H4 H4 H4 H4 H4 H4 H4 H4 H4 H4 H4 H4 H4 H4 H4 H4 H4 H4 4 4 4 4 4 4 4 4 4 4 4 4 4 4 4 4 4 4 4 4 4 4 4 4 G4 G4 G4 G4 G4 G4 G4 G4 G4 G4 G4 G4 G4 G4 G4 G4 G4 G4 G4 G4 G4 G4 G4 G4 G4 G4 G4 G4 G4 G4 G4 G4 G4 G4 G4 G4 G4 G4 G4 G4 G4 G4 G4 G4 G4 G4 G4 G4 G4 G4 G4 G4 G4 G4 G4 G4 G4 G4 G4 G4 G4 G4 G4 G4 G4 G4 G4 G4 G4 G4 G4 G4 G G G G G G G G G G G G G G G G G G G G G G G G                         H9 H9 H9 H9 H9 H9 H9 H9 H9 H9 H9 H9 H9 H9 H9 H9 H9 H9 H9 H9 H9 H9 H9 H9 9 9 9 9 9 9 J9 J9 J9 J9 J9 J9 J9 J9 J9 J9 J9 J9 J9 J9 J9 J9 J9 J9 J9 J9 J9 J9 J9 J9 9 9 9 9 9 9 H9 H9 H9 H9 H9 H9 H9 H9 H9 H9 H9 H9 H9 H9 H9 H9 H9 H9 H9 H9 H9 H9 H9 H9 H9 H9 H9 H9 H9 H9 H9 H9 H9 H9 H9 H9 H H H H H H H H H H H H H H H H H H H H H H H H H- H- H- H- H- H- H- H- H- H- H- H- H- H- H- H- H- H- H- H- H- H- H- H- H- H- H- H- H- H- H- H- H- H- H- H- H- H- H- H- H- H- H- H- H- H- H- H- H- H- H- H- H- H- H- H- H- H- H- H- H- H- H- H- H- H- H- H- H- H- H- H- H- H- H- H- H- H- H- H- H- H- H- H- H- H- H- H- H- H- H- H- H- H- H- H- H H H H H H H H H H H H H H H H H H H H H H H H H9 H9 H9 H9 H9 H9 H9 H9 H9 H9 H9 H9 H9 H9 H9 H9 H9 H9 H9 H9 H9 H9 H9 H9 H9 H9 H9 H9 H9 H9 H9 H9 H9 H9 H9 H9 H9 H9 H9 H9 H9 H9 H9 H9 H9 H9 H9 H9 H9 H9 H9 H9 H9 H9 H9 H9 H9 H9 H9 H9 H9 H9 H9 H9 H9 H9 H9 H9 H9 H9 H9 H9 9 9 9 9 9 9 9 9 9 9 9 9 9 9 9 9 9 9 9 9 9 9 9 9                         G; G; G; G; G; G; G; G; G; G; G; G; G; G; G; G; G; G; G; G; G; G; G; G; G; G; G; G; G; G; G; G; G; G; G; G; G; G; G; G; G; G; G; G; G; G; G; G; G; G; G; G; G; G; G; G; G; G; G; G; G; G; G; G; G; G; G; G; G; G; G; G; G; G; G; G; G; G; G; G; G; G; G; G; G; G; G; G; G; G; G; G; G; G; G; G;                         E< E< E< E< E< E< E< E< E< E< E< E< E< E< E< E< E< E< E< E< E< E< E< E< E< E< E< E< E< E< E< E< E< E< E< E< E< E< E< E< E< E< E< E< E< E< E< E< E< E< E< E< E< E< E< E< E< E< E< E< E< E< E< E< E< E< E< E< E< E< E< E< E< E< E< E< E< E< E< E< E< E< E< E< E< E< E< E< E< E< E< E< E< E< E< E< E E E E E E E E E E E E E E E E E E E E E E E E E> E> E> E> E> E> E> E> E> E> E> E> E> E> E> E> E> E> E> E> E> E> E> E> E> E> E> E> E> E> E> E> E> E> E> E> E> E> E> E> E> E> E> E> E> E> E> E> E> E> E> E> E> E> E> E> E> E> E> E> E> E> E> E> E> E> E> E> E> E> E> E> > > > > > > > > > > > > > > > > > > > > > > > >                         Q@ Q@ Q@ Q@ Q@ Q@ Q@ Q@ Q@ Q@ Q@ Q@ Q@ Q@ Q@ Q@ Q@ Q@ Q@ Q@ Q@ Q@ Q@ Q@ Q@ Q@ Q@ Q@ Q@ Q@ Q@ Q@ Q@ Q@ Q@ Q@ Q@ Q@ Q@ Q@ Q@ Q@ Q@ Q@ Q@ Q@ Q@ Q@ Q@ Q@ Q@ Q@ Q@ Q@ Q@ Q@ Q@ Q@ Q@ Q@ Q@ Q@ Q@ Q@ Q@ Q@ Q@ Q@ Q@ Q@ Q@ Q@ Q@ Q@ Q@ Q@ Q@ Q@ Q@ Q@ Q@ Q@ Q@ Q@ Q@ Q@ Q@ Q@ Q@ Q@ Q@ Q@ Q@ Q@ Q@ Q@ Q Q Q Q Q Q Q Q Q Q Q Q Q Q Q Q Q Q Q Q Q Q Q Q QA QA QA QA QA QA QA QA QA QA QA QA QA QA QA QA QA QA QA QA QA QA QA QA QA QA QA QA QA QA QA QA QA QA QA QA QA QA QA QA QA QA QA QA QA QA QA QA QA QA QA QA QA QA QA QA QA QA QA QA QA QA QA QA QA QA QA QA QA QA QA QA A A A A A A A A A A A A A A A A A A A A A A A A                         P@ P@ P@ P@ P@ P@ P@ P@ P@ P@ P@ P@ P@ P@ P@ P@ P@ P@ P@ P@ P@ P@ P@ P@ @ @ @ @ @ @ N@ N@ N@ N@ N@ N@ N@ N@ N@ N@ N@ N@ N@ N@ N@ N@ N@ N@ N@ N@ N@ N@ N@ N@ @ @ @ @ @ @ P@ P@ P@ P@ P@ P@ P@ P@ P@ P@ P@ P@ P@ P@ P@ P@ P@ P@ P@ P@ P@ P@ P@ P@ P@ P@ P@ P@ P@ P@ P@ P@ P@ P@ P@ P@ P P P P P P P P P P P P P P P P P P P P P P P P P> P> P> P> P> P> P> P> P> P> P> P> P> P> P> P> P> P> P> P> P> P> P> P> P> P> P> P> P> P> P> P> P> P> P> P> P> P> P> P> P> P> P> P> P> P> P> P> P> P> P> P> P> P> P> P> P> P> P> P> P> P> P> P> P> P> P> P> P> P> P> P> P> P> P> P> P> P> P> P> P> P> P> P> P> P> P> P> P> P> P> P> P> P> P> P> P P P P P P P P P P P P P P P P P P P P P P P P P< P< P< P< P< P< P< P< P< P< P< P< P< P< P< P< P< P< P< P< P< P< P< P< P< P< P< P< P< P< P< P< P< P< P< P< P< P< P< P< P< P< P< P< P< P< P< P< P< P< P< P< P< P< P< P< P< P< P< P< P< P< P< P< P< P< P< P< P< P< P< P< P< P< P< P< P< P< P< P< P< P< P< P< P< P< P< P< P< P< P< P< P< P< P< P< P P P P P P P P P                Q; Q; Q; Q; Q; Q; Q; Q; Q; Q; Q; Q; Q; Q; Q; Q; Q; Q; Q; Q; Q; Q; Q; Q; Q; Q; Q; Q; Q; Q; Q; Q; Q; Q; Q; Q; Q; Q; Q; Q; Q; Q; Q; Q; Q; Q; Q; Q; Q; Q; Q; Q; Q; Q; Q; Q; Q; Q; Q; Q; Q; Q; Q; Q; Q; Q; Q; Q; Q; Q; Q; Q; Q; Q; Q; Q; Q; Q; Q; Q; Q; Q; Q; Q; Q; Q; Q; Q; Q; Q; Q; Q; Q; Q; Q; Q;                         L< L< L< L< L< L< L< L< L< L< L< L< L< L< L< L< L< L< L< L< L< L< L< L< L< L< L< L< L< L< L< L< L< L< L< L< L< L< L< L< L< L< L< L< L< L< L< L< L< L< L< L< L< L< L< L< L< L< L< L< L< L< L< L< L< L< L< L< L< L< L< L< L< L< L< L< L< L< L< L< L< L< L< L< L< L< L< L< L< L< L< L< L< L< L< L< L< L< L< L< L< L< L< L< L< L< L< L< L< L< L< L< L< L< L< L< L< L< L< L< @L< @L< @L< @L< @L< @L< @L< @L< @L< @L< @L< @L< @L< @L< @L< @L< @L< @L< @L< @L< @L< @L< @L< @L< @L< @L< @L< @L< @L< @L< @L< @L< @L< @L< @L< @L< @L< @L< @L< @L< @L< @L< @L< @L< @L< @L< @L< @L< @L< @L< @L< @L< @L< @L< @L< @L< @L< @L< @L< @L< @L< @L< @L< @L< @L< @L< @L< @L< @L< @L< @L< @L< @L< @L< @L< @L< @L< @L< @L< @L< @L< @L< @L< @L< @L< @L< @L< @L< @L< @L< @L< @L< @L< @L< @L< @L< L< L< L< L< L< L< L< L< L< L< L< L< L< L< L< L< L< L< L< L< L< L< L< L< LE< LE< LE< LE< LE< LE< LE< LE< LE< LE< LE< LE< LE< LE< LE< LE< LE< LE< LE< LE< LE< LE< LE< LE< LE< LE< LE< LE< LE< LE< LE< LE< LE< LE< LE< LE< LE< LE< LE< LE< LE< LE< LE< LE< LE< LE< LE< LE< E E E E E E E E E E E E E E E E E E E E E E E E E E E E E E E E E E E E E E E E E E E E E E E E E E E E E E E E E E E E E E E E E E E E E E E E OE= OE= OE= OE= OE= OE= OE= OE= OE= OE= OE= OE= OE= OE= OE= OE= OE= OE= OE= OE= OE= OE= OE= OE= OE= OE= OE= OE= OE= OE= OE= OE= OE= OE= OE= OE= OE= OE= OE= OE= OE= OE= OE= OE= OE= OE= OE= OE= OE= OE= OE= OE= OE= OE= OE= OE= OE= OE= OE= OE= OE= OE= OE= OE= OE= OE= OE= OE= OE= OE= OE= OE= OE= OE= OE= OE= OE= OE= OE= OE= OE= OE= OE= OE= OE= OE= OE= OE= OE= OE= OE= OE= OE= OE= OE= OE= E E E E E E E E E E E E E E E E E E E E E E E E ME> ME> ME> ME> ME> ME> ME> ME> ME> ME> ME> ME> ME> ME> ME> ME> ME> ME> ME> ME> ME> ME> ME> ME> ME> ME> ME> ME> ME> ME> ME> ME> ME> ME> ME> ME> ME> ME> ME> ME> ME> ME> ME> ME> ME> ME> ME> ME> ME> ME> ME> ME> ME> ME> ME> ME> ME> ME> ME> ME> ME> ME> ME> ME> ME> ME> ME> ME> ME> ME> ME> ME> ME> ME> ME> ME> ME> ME> ME> ME> ME> ME> ME> ME> ME> ME> ME> ME> ME> ME> ME> ME> ME> ME> ME> ME> E> E> E> E> E> E> E> E> E> E> E> E> E> E> E> E> E> E> E> E> E> E> E> E> EL> EL> EL> EL> EL> EL> EL> EL> EL> EL> EL> EL> EL> EL> EL> EL> EL> EL> EL> EL> EL> EL> EL> EL> L> L> L> L> L> L> L> L> L> L> L> L> L> L> L> L> L> L> L> L> L> L> L> L> L> L> L> L> L> L> L> L> L> L> L> L> L> L> L> L> L> L> L> L> L> L> L> L> L L L L L L L L L L L L L L L L L L L L L L L L                         JD; JD; JD; JD; JD; JD; JD; JD; JD; JD; JD; JD; JD; JD; JD; JD; JD; JD; JD; JD; JD; JD; JD; JD; JD; JD; JD; JD; JD; JD; JD; JD; JD; JD; JD; JD; JD; JD; JD; JD; JD; JD; JD; JD; JD; JD; JD; JD; JD; JD; JD; JD; JD; JD; JD; JD; JD; JD; JD; JD; JD; JD; JD; JD; JD; JD; JD; JD; JD; JD; JD; JD; JD; JD; JD; JD; JD; JD; JD; JD; JD; JD; JD; JD; JD; JD; JD; JD; JD; JD; JD; JD; JD; JD; JD; JD; D; D; D; D; D; D; D; D; D; D; D; D; D; D; D; D; D; D; D; D; D; D; D; D; DM; DM; DM; DM; DM; DM; DM; DM; DM; DM; DM; DM; DM; DM; DM; DM; DM; DM; DM; DM; DM; DM; DM; DM; DM; DM; DM; DM; DM; DM; DM; DM; DM; DM; DM; DM; DM; DM; DM; DM; DM; DM; DM; DM; DM; DM; DM; DM; DM; DM; DM; DM; DM; DM; DM; DM; DM; DM; DM; DM; DM DM DM DM DM DM DM DM DM DM DM DM M M M M M M M M M M M M M M M M M M M M M M M M                         LE< LE< LE< LE< LE< LE< LE< LE< LE< LE< LE< LE< LE< LE< LE< LE< LE< LE< LE< LE< LE< LE< LE< LE< LE< LE< LE< LE< LE< LE< LE< LE< LE< LE< LE< LE< LE< LE< LE< LE< LE< LE< LE< LE< LE< LE< LE< LE< LE< LE< LE< LE< LE< LE< LE< LE< LE< LE< LE< LE< LE< LE< LE< LE< LE< LE< LE< LE< LE< LE< LE< LE< LE< LE< LE< LE< LE< LE< LE< LE< LE< LE< LE< LE< LE< LE< LE< LE< LE< LE< LE< LE< LE< LE< LE< LE< E< E< E< E< E< E< E< E< E< E< E< E< E< E< E< E< E< E< E< E< E< E< E< E< JE< JE< JE< JE< JE< JE< JE< JE< JE< JE< JE< JE< JE< JE< JE< JE< JE< JE< JE< JE< JE< JE< JE< JE< JE< JE< JE< JE< JE< JE< JE< JE< JE< JE< JE< JE< JE< JE< JE< JE< JE< JE< JE< JE< JE< JE< JE< JE< JE< JE< JE< JE< JE< JE< JE< JE< JE< JE< JE< JE< JE JE JE JE JE JE JE JE JE JE JE JE JE JE JE JE JE JE JE JE JE JE JE JE JE JE JE JE JE JE JE JE JE JE JE JE E E E E E E E E E E E E E E E E E E E E E E E E LE> LE> LE> LE> LE> LE> LE> LE> LE> LE> LE> LE> LE> LE> LE> LE> LE> LE> LE> LE> LE> LE> LE> LE> LE> LE> LE> LE> LE> LE> LE> LE> LE> LE> LE> LE> LE> LE> LE> LE> LE> LE> LE> LE> LE> LE> LE> LE> LE> LE> LE> LE> LE> LE> LE> LE> LE> LE> LE> LE> LE> LE> LE> LE> LE> LE> LE> LE> LE> LE> LE> LE> LE> LE> LE> LE> LE> LE> LE> LE> LE> LE> LE> LE> LE> LE> LE> LE> LE> LE> LE> LE> LE> LE> LE> LE> E> E> E> E> E> E> E> E> E> E> E> E> E> E> E> E> E> E> E> E> E> E> E> E> EM> EM> EM> EM> EM> EM> EM> EM> EM> EM> EM> EM> EM> EM> EM> EM> EM> EM> EM> EM> EM> EM> EM> EM> M> M> M> M> M> M> M> M> M> M> M> M> M> M> M> M> M> M> M> M> M> M> M> M> M> M> M> M> M> M> M> M> M> M> M> M> M M M M M M M M M M M M M M M M M M M M M M M M M M M M M M M M M M M M                         H@ H@ H@ H@ H@ H@ H@ H@ H@ H@ H@ H@ H@ H@ H@ H@ H@ H@ H@ H@ H@ H@ H@ H@ H@ H@ H@ H@ H@ H@ H@ H@ H@ H@ H@ H@ H@ H@ H@ H@ H@ H@ H@ H@ H@ H@ H@ H@ @ @ @ @ @ @ @ @ @ @ @ @ G@ G@ G@ G@ G@ G@ G@ G@ G@ G@ G@ G@ G@ G@ G@ G@ G@ G@ G@ G@ G@ G@ G@ G@ G@ G@ G@ G@ G@ G@ G@ G@ G@ G@ G@ G@ G@ G@ G@ G@ G@ G@ G@ G@ G@ G@ G@ G@ G@ G@ G@ G@ G@ G@ G@ G@ G@ G@ G@ G@ EG@ EG@ EG@ EG@ EG@ EG@ EG@ EG@ EG@ EG@ EG@ EG@ EG@ EG@ EG@ EG@ EG@ EG@ EG@ EG@ EG@ EG@ EG@ EG@ EG@ EG@ EG@ EG@ EG@ EG@ EG@ EG@ EG@ EG@ EG@ EG@ EG@ EG@ EG@ EG@ EG@ EG@ EG@ EG@ EG@ EG@ EG@ EG@ EG@ EG@ EG@ EG@ EG@ EG@ EG@ EG@ EG@ EG@ EG@ EG@ EG@ EG@ EG@ EG@ EG@ EG@ EG@ EG@ EG@ EG@ EG@ EG@ EG@ EG@ EG@ EG@ EG@ EG@ EG@ EG@ EG@ EG@ EG@ EG@ EG@ EG@ EG@ EG@ EG@ EG@ EG@ EG@ EG@ EG@ EG@ EG@ G@ G@ G@ G@ G@ G@ G@ G@ G@ G@ G@ G@ G@ G@ G@ G@ G@ G@ G@ G@ G@ G@ G@ G@ DG@ DG@ DG@ DG@ DG@ DG@ DG@ DG@ DG@ DG@ DG@ DG@ DG@ DG@ DG@ DG@ DG@ DG@ DG@ DG@ DG@ DG@ DG@ DG@ DG@ DG@ DG@ DG@ DG@ DG@ DG@ DG@ DG@ DG@ DG@ DG@ DG@ DG@ DG@ DG@ DG@ DG@ DG@ DG@ DG@ DG@ DG@ DG@ DG DG DG DG DG DG DG DG DG DG DG DG DG DG DG DG DG DG DG DG DG DG DG DG DG DG DG DG DG DG DG DG DG DG DG DG DG DG DG DG DG DG DG DG DG DG DG DG DG DG DG DG DG DG DG DG DG DG DG DG DG DG DG DG DG DG DG DG DG DG DG DG DG@ DG@ DG@ DG@ DG@ DG@ DG@ DG@ DG@ DG@ DG@ DG@ DG@ DG@ DG@ DG@ DG@ DG@ DG@ DG@ DG@ DG@ DG@ DG@ DG@ DG@ DG@ DG@ DG@ DG@ DG@ DG@ DG@ DG@ DG@ DG@ DG@ DG@ DG@ DG@ DG@ DG@ DG@ DG@ DG@ DG@ DG@ DG@ DG@ DG@ DG@ DG@ DG@ DG@ DG@ DG@ DG@ DG@ DG@ DG@ DG@ DG@ DG@ DG@ DG@ DG@ DG@ DG@ DG@ DG@ DG@ DG@ @ @ @ @ @ @ @ @ @ @ @ @ @ @ @ @ @ @ @ @ @ @ @ @                         > > > > > > > > > > > > > > > > > > > > > > > > > > > > > > > > > > > > > > > > > > > > > > > > > > > > > > > > > > > > > > > > > > > > > > > > > > > > > > > > > > > > > > > > > > > > > > > >                         < < < < < < < < < < < < < < < < < < < < < < < < < < < < < < < < < < < < < < < < < < < < < < < < < < < < < < < < < < < < < < < < < < < < < < < < < < < < < < < < < < < < < < < < < < < < < < < <                         D; D; D; D; D; D; D; D; D; D; D; D; D; D; D; D; D; D; D; D; D; D; D; D; D; D; D; D; D; D; D; D; D; D; D; D; D; D; D; D; D; D; D; D; D; D; D; D; D; D; D; D; D; D; D; D; D; D; D; D; D; D; D; D; D; D; D; D; D; D; D; D; D; D; D; D; D; D; D; D; D; D; D; D; D; D; D; D; D; D; D; D; D; D; D; D;                         E> E> E> E> E> E> E> E> E> E> E> E> E> E> E> E> E> E> E> E> E> E> E> E> E> E> E> E> E> E> E> E> E> E> E> E> E> E> E> E> E> E> E> E> E> E> E> E> E> E> E> E> E> E> E> E> E> E> E> E> E> E> E> E> E> E> E> E> E> E> E> E> E> E> E> E> E> E> E> E> E> E> E> E> E> E> E> E> E> E> E> E> E> E> E> E>                         G< G< G< G< G< G< G< G< G< G< G< G< G< G< G< G< G< G< G< G< G< G< G< G< < < < < < < E< E< E< E< E< E< E< E< E< E< E< E< E< E< E< E< E< E< E< E< E< E< E< E< < < < < < < G< G< G< G< G< G< G< G< G< G< G< G< G< G< G< G< G< G< G< G< G< G< G< G< G< G< G< G< G< < E< E< E< E< E< E< E E E E E E E E E E E E E E E E E E       G; G; G; G; G; G; G; G; G; G; G; G; G; G; G; G; G; G; G; G; G; G; G; G; ; ; ; ; ; ; E; E; E; E; E; E; E; E; E; E; E; E; E; E; E; E; E; E; E; E; E; E; E; E; ; ; ; ; ; ; G; G; G; G; G; G; G; G; G; G; G; G; G; G; G; G; G; G; G; G; G; G; G; G; ; ; ; ; ; ; E; E; E; E; E; E; E E E E E E E E E E E E E E E E E E       G< G< G< G< G< G< G< G< G< G< G< G< G< G< G< G< G< G< G< G< G< G< G< G< < < < < < < E< E< E< E< E< E< E< E< E< E< E< E< E< E< E< E< E< E< E< E< E< E< E< E< < < < < < < G< G< G< G< G< G< G< G< G< G< G< G< G< G< G< G< G< G< G< G< G< G< G< G< < < < < < < E< E< E< E< E< E< E E E E E E E E E E E E E E E E E E       D> D> D> D> D> D> D> D> D> D> D> D> D> D> D> D> D> D> D> D> D> D> D> D> D> D> D> D> D> D> D> D> D> D> D> D> D> D> D> D> D> D> D> D> D> D> D> D> > > > > > > > > > > > > E> E> E> E> E> E> E> E> E> E> E> E> E> E> E> E> E> E> E> E> E> E> E> E> E> E> E> E> E> E> E> E> E> E> E> E> E E E E E E E E E E E E             G8 G8 G8 G8 G8 G8 G8 G8 G8 G8 G8 G8 G8 G8 G8 G8 G8 G8 G8 G8 G8 G8 G8 G8 G8 G8 G8 G8 G8 G8 G8 G8 G8 G8 G8 G8 G8 G8 G8 G8 G8 G8 G8 G8 G8 G8 G8 G8 G8 G8 G8 G8 G8 G8 G8 G8 G8 G8 G8 G8 G8 G8 G8 G8 G8 G8 G8 G8 G8 G8 G8 G8 G8 G8 G8 G8 G8 G8 G8 G8 G8 G8 G8 G8 G8 G8 G8 G8 G8 G8 G8 G8 G8 G8 G8 G8 G G G G G G G G G G G G G G G G G G G G G G G G G; G; G; G; G; G; G; G; G; G; G; G; G; G; G; G; G; G; G; G; G; G; G; G; G; G; G; G; G; G; G; G; G; G; G; G; G; G; G; G; G; G; G; G; G; G; G; G; G; G; G; G; G; G; G; G; G; G; G; G; G; G; G; G; G; G; G; G; G; G; G; G; G; G; G; G; G; G; G; G; G; G; G; G; G; G; G; G; G; G; G; G; G; G; G; G; G G G G G G G G G G G G G G G G G G G G G G G G G9 G9 G9 G9 G9 G9 G9 G9 G9 G9 G9 G9 G9 G9 G9 G9 G9 G9 G9 G9 G9 G9 G9 G9 G9 G9 G9 G9 G9 G9 G9 G9 G9 G9 G9 G9 G9 G9 G9 G9 G9 G9 G9 G9 G9 G9 G9 G9 9 9 9 9 9 9 9 9 9 9 9 9 9 9 9 9 9 9 9 9 9 9 9 9 9 9 9 9 9 9 9 9 9 9 9 9 9 9 9 9 9 9 9 9 9 9 9 9                         H8 H8 H8 H8 H8 H8 H8 H8 H8 H8 H8 H8 H8 H8 H8 H8 H8 H8 H8 H8 H8 H8 H8 H8 H8 H8 H8 H8 H8 H8 H8 H8 H8 H8 H8 H8 H8 H8 H8 H8 H8 H8 H8 H8 H8 H8 H8 H8 H8 H8 H8 H8 H8 H8 H8 H8 H8 H8 H8 H8 H8 H8 H8 H8 H8 H8 H8 H8 H8 H8 H8 H8 H8 H8 H8 H8 H8 H8 H8 H8 H8 H8 H8 H8 H8 H8 H8 H8 H8 H8 H8 H8 H8 H8 H8 H8                         J6 J6 J6 J6 J6 J6 J6 J6 J6 J6 J6 J6 J6 J6 J6 J6 J6 J6 J6 J6 J6 J6 J6 J6 J6 J6 J6 J6 J6 J6 J6 J6 J6 J6 J6 J6 J6 J6 J6 J6 J6 J6 J6 J6 J6 J6 J6 J6 J6 J6 J6 J6 J6 J6 J6 J6 J6 J6 J6 J6 J6 J6 J6 J6 J6 J6 J6 J6 J6 J6 J6 J6 J6 J6 J6 J6 J6 J6 J6 J6 J6 J6 J6 J6 J6 J6 J6 J6 J6 J6 J6 J6 J6 J6 J6 J6                         G4 G4 G4 G4 G4 G4 G4 G4 G4 G4 G4 G4 G4 G4 G4 G4 G4 G4 G4 G4 G4 G4 G4 G4 G4 G4 G4 G4 G4 G4 G4 G4 G4 G4 G4 G4 G4 G4 G4 G4 G4 G4 G4 G4 G4 G4 G4 G4 G4 G4 G4 G4 G4 G4 G4 G4 G4 G4 G4 G4 G4 G4 G4 G4 G4 G4 G4 G4 G4 G4 G4 G4 G4 G4 G4 G4 G4 G4 G4 G4 G4 G4 G4 G4 G4 G4 G4 G4 G4 G4 G4 G4 G4 G4 G4 G4                         H9 H9 H9 H9 H9 H9 H9 H9 H9 H9 H9 H9 H9 H9 H9 H9 H9 H9 H9 H9 H9 H9 H9 H9 H9 H9 H9 H9 H9 H9 H9 H9 H9 H9 H9 H9 H9 H9 H9 H9 H9 H9 H9 H9 H9 H9 H9 H9 H9 H9 H9 H9 H9 H9 H9 H9 H9 H9 H9 H9 H9 H9 H9 H9 H9 H9 H9 H9 H9 H9 H9 H9 H9 H9 H9 H9 H9 H9 H9 H9 H9 H9 H9 H9 H9 H9 H9 H9 H9 H9 H9 H9 H9 H9 H9 H9                         J7 J7 J7 J7 J7 J7 J7 J7 J7 J7 J7 J7 J7 J7 J7 J7 J7 J7 J7 J7 J7 J7 J7 J7 J7 J7 J7 J7 J7 J7 J7 J7 J7 J7 J7 J7 J7 J7 J7 J7 J7 J7 J7 J7 J7 J7 J7 J7 J7 J7 J7 J7 J7 J7 J7 J7 J7 J7 J7 J7 J7 J7 J7 J7 J7 J7 J7 J7 J7 J7 J7 J7 J7 J7 J7 J7 J7 J7 J7 J7 J7 J7 J7 J7 J7 J7 J7 J7 J7 J7 J7 J7 J7 J7 J7 J7                         L5 L5 L5 L5 L5 L5 L5 L5 L5 L5 L5 L5 L5 L5 L5 L5 L5 L5 L5 L5 L5 L5 L5 L5 L5 L5 L5 L5 L5 5 J5 J5 J5 J5 J5 J5 J5 J5 J5 J5 J5 J5 J5 J5 J5 J5 J5 J5 J5 J5 J5 J5 J5 J5 J5 J5 J5 J5 J5 5 L5 L5 L5 L5 L5 L5 L5 L5 L5 L5 L5 L5 L5 L5 L5 L5 L5 L5 L5 L5 L5 L5 L5 L5 L5 L5 L5 L5 L5 5 J5 J5 J5 J5 J5 J5 J J J J J J J J J J J J J J J J J J J J J J J  L4 L4 L4 L4 L4 L4 L4 L4 L4 L4 L4 L4 L4 L4 L4 L4 L4 L4 L4 L4 L4 L4 L4 L4 4 4 4 4 4 4 J4 J4 J4 J4 J4 J4 J4 J4 J4 J4 J4 J4 J4 J4 J4 J4 J4 J4 J4 J4 J4 J4 J4 J4 4 4 4 4 4 4 L4 L4 L4 L4 L4 L4 L4 L4 L4 L4 L4 L4 L4 L4 L4 L4 L4 L4 L4 L4 L4 L4 L4 L4 4 4 4 4 4 4 J4 J4 J4 J4 J4 J4 J J J J J J J J J J J J J J J J J J       L5 L5 L5 L5 L5 L5 L5 L5 L5 L5 L5 L5 L5 L5 L5 L5 L5 L5 L5 L5 L5 L5 L5 L5 5 5 5 5 5 5 J5 J5 J5 J5 J5 J5 J5 J5 J5 J5 J5 J5 J5 J5 J5 J5 J5 J5 J5 J5 J5 J5 J5 J5 5 5 5 5 5 5 L5 L5 L5 L5 L5 L5 L5 L5 L5 L5 L5 L5 L5 L5 L5 L5 L5 L5 L5 L5 L5 L5 L5 L5 5 5 5 5 5 5 J5 J5 J5 J5 J5 J5 J J J J J J J J J J J J J J J J J J       H7 H7 H7 H7 H7 H7 H7 H7 H7 H7 H7 H7 H7 H7 H7 H7 H7 H7 H7 H7 H7 H7 H7 H7 H7 H7 H7 H7 H7 H7 H7 H7 H7 H7 H7 H7 H7 H7 H7 H7 H7 H7 H7 H7 H7 H7 H7 H7 7 7 7 7 7 7 7 7 7 7 7 7 J7 J7 J7 J7 J7 J7 J7 J7 J7 J7 J7 J7 J7 J7 J7 J7 J7 J7 J7 J7 J7 J7 J7 J7 J7 J7 J7 J7 J7 J7 J7 J7 J7 J7 J7 J7 J J J J J J J J J J J J             L0 L0 L0 L0 L0 L0 L0 L0 L0 L0 L0 L0 L0 L0 L0 L0 L0 L0 L0 L0 L0 L0 L0 L0 L0 L0 L0 L0 L0 L0 L0 L0 L0 L0 L0 L0 L0 L0 L0 L0 L0 L0 L0 L0 L0 L0 L0 L0 L0 L0 L0 L0 L0 L0 L0 L0 L0 L0 L0 L0 L0 L0 L0 L0 L0 L0 L0 L0 L0 L0 L0 L0 L0 L0 L0 L0 L0 L0 L0 L0 L0 L0 L0 L0 L0 L0 L0 L0 L0 L0 L0 L0 L0 L0 L0 L0 L L L L L L L L L L L L L L L L L L L L L L L L L5 L5 L5 L5 L5 L5 L5 L5 L5 L5 L5 L5 L5 L5 L5 L5 L5 L5 L5 L5 L5 L5 L5 L5 L5 L5 L5 L5 L5 L5 L5 L5 L5 L5 L5 L5 L5 L5 L5 L5 L5 L5 L5 L5 L5 L5 L5 L5 L5 L5 L5 L5 L5 L5 L5 L5 L5 L5 L5 L5 L5 L5 L5 L5 L5 L5 L5 L5 L5 L5 L5 L5 L5 L5 L5 L5 L5 L5 L5 L5 L5 L5 L5 L5 L5 L5 L5 L5 L5 L5 L5 L5 L5 L5 L5 L5 L L L L L L L L L L L L L L L L L L L L L L L L L4 L4 L4 L4 L4 L4 L4 L4 L4 L4 L4 L4 L4 L4 L4 L4 L4 L4 L4 L4 L4 L4 L4 L4 L4 L4 L4 L4 L4 L4 L4 L4 L4 L4 L4 L4 L4 L4 L4 L4 L4 L4 L4 L4 L4 L4 L4 L4 4 4 4 4 4 4 4 4 4 4 4 4 4 4 4 4 4 4 4 4 4 4 4 4 4 4 4 4 4 4 4 4 4 4 4 4 4 4 4 4 4 4 4 4 4 4 4 4                         M2 M2 M2 M2 M2 M2 M2 M2 M2 M2 M2 M2 M2 M2 M2 M2 M2 M2 M2 M2 M2 M2 M2 M2 M2 M2 M2 M2 M2 M2 M2 M2 M2 M2 M2 M2 M2 M2 M2 M2 M2 M2 M2 M2 M2 M2 M2 M2 M2 M2 M2 M2 M2 M2 M2 M2 M2 M2 M2 M2 M2 M2 M2 M2 M2 M2 M2 M2 M2 M2 M2 M2 M2 M2 M2 M2 M2 M2 M2 M2 M2 M2 M2 M2 M2 M2 M2 M2 M2 M2 M2 M2 M2 M2 M2 M2                         O0 O0 O0 O0 O0 O0 O0 O0 O0 O0 O0 O0 O0 O0 O0 O0 O0 O0 O0 O0 O0 O0 O0 O0 O0 O0 O0 O0 O0 O0 O0 O0 O0 O0 O0 O0 O0 O0 O0 O0 O0 O0 O0 O0 O0 O0 O0 O0 O0 O0 O0 O0 O0 O0 O0 O0 O0 O0 O0 O0 O0 O0 O0 O0 O0 O0 O0 O0 O0 O0 O0 O0 O0 O0 O0 O0 O0 O0 O0 O0 O0 O0 O0 O0 O0 O0 O0 O0 O0 O0 O0 O0 O0 O0 O0 O0                         L. L. L. L. L. L. L. L. L. L. L. L. L. L. L. L. L. L. L. L. L. L. L. L. L. L. L. L. L. L. L. L. L. L. L. L. L. L. L. L. L. L. L. L. L. L. L. L. L. L. L. L. L. L. L. L. L. L. L. L. L. L. L. L. L. L. L. L. L. L. L. L. L. L. L. L. L. L. L. L. L. L. L. L. L. L. L. L. L. L. L. L. L. L. L. L.                         M- M- M- M- M- M- M- M- M- M- M- M- M- M- M- M- M- M- M- M- M- M- M- M- M- M- M- M- M- M- M- M- M- M- M- M- M- M- M- M- M- M- M- M- M- M- M- M- M- M- M- M- M- M- M- M- M- M- M- M- M- M- M- M- M- M- M- M- M- M- M- M- M- M- M- M- M- M- M- M- M- M- M- M- M- M- M- M- M- M- M- M- M- M- M- M-                         O0 O0 O0 O0 O0 O0 O0 O0 O0 O0 O0 O0 O0 O0 O0 O0 O0 O0 O0 O0 O0 O0 O0 O0 O0 O0 O0 O0 O0 O0 O0 O0 O0 O0 O0 O0 O0 O0 O0 O0 O0 O0 O0 O0 O0 O0 O0 O0 O0 O0 O0 O0 O0 O0 O0 O0 O0 O0 O0 O0 O0 O0 O0 O0 O0 O0 O0 O0 O0 O0 O0 O0 O0 O0 O0 O0 O0 O0 O0 O0 O0 O0 O0 O0 O0 O0 O0 O0 O0 O0 O0 O0 O0 O0 O0 O0                         Q. Q. Q. Q. Q. Q. Q. Q. Q. Q. Q. Q. Q. Q. Q. Q. Q. Q. Q. Q. Q. Q. Q. Q. Q. Q. Q. Q. Q. . O. O. O. O. O. O. O. O. O. O. O. O. O. O. O. O. O. O. O. O. O. O. O. O. O. O. O. O. O. . Q. Q. Q. Q. Q. Q. Q. Q. Q. Q. Q. Q. Q. Q. Q. Q. Q. Q. Q. Q. Q. Q. Q. Q. Q. Q. Q. Q. Q. . O. O. O. O. O. O. O O O O O O O O O O O O O O O O O O O O O O O  Q- Q- Q- Q- Q- Q- Q- Q- Q- Q- Q- Q- Q- Q- Q- Q- Q- Q- Q- Q- Q- Q- Q- Q- - - - - - - O- O- O- O- O- O- O- O- O- O- O- O- O- O- O- O- O- O- O- O- O- O- O- O- - - - - - - Q- Q- Q- Q- Q- Q- Q- Q- Q- Q- Q- Q- Q- Q- Q- Q- Q- Q- Q- Q- Q- Q- Q- Q- - - - - - - O- O- O- O- O- O- O O O O O O O O O O O O O O O O O O       Q. Q. Q. Q. Q. Q. Q. Q. Q. Q. Q. Q. Q. Q. Q. Q. Q. Q. Q. Q. Q. Q. Q. Q. . . . . . . O. O. O. O. O. O. O. O. O. O. O. O. O. O. O. O. O. O. O. O. O. O. O. O. . . . . . . Q. Q. Q. Q. Q. Q. Q. Q. Q. Q. Q. Q. Q. Q. Q. Q. Q. Q. Q. Q. Q. Q. Q. Q. . . . . . . O. O. O. O. O. O. O O O O O O O O O O O O O O O O O O       M0 M0 M0 M0 M0 M0 M0 M0 M0 M0 M0 M0 M0 M0 M0 M0 M0 M0 M0 M0 M0 M0 M0 M0 M0 M0 M0 M0 M0 M0 M0 M0 M0 M0 M0 M0 M0 M0 M0 M0 M0 M0 M0 M0 M0 M0 M0 M0 0 0 0 0 0 0 0 0 0 0 0 0 O0 O0 O0 O0 O0 O0 O0 O0 O0 O0 O0 O0 O0 O0 O0 O0 O0 O0 O0 O0 O0 O0 O0 O0 O0 O0 O0 O0 O0 O0 O0 O0 O0 O0 O0 O0 O O O O O O O O O O O O             Q) Q) Q) Q) Q) Q) Q) Q) Q) Q) Q) Q) Q) Q) Q) Q) Q) Q) Q) Q) Q) Q) Q) Q) Q) Q) Q) Q) Q) Q) Q) Q) Q) Q) Q) Q) Q) Q) Q) Q) Q) Q) Q) Q) Q) Q) Q) Q) Q) Q) Q) Q) Q) Q) Q) Q) Q) Q) Q) Q) Q) Q) Q) Q) Q) Q) Q) Q) Q) Q) Q) Q) Q) Q) Q) Q) Q) Q) Q) Q) Q) Q) Q) Q) Q) Q) Q) Q) Q) Q) Q) Q) Q) Q) Q) Q) ) ) ) ) ) ) ) ) ) ) ) ) ) ) ) ) ) ) ) ) ) ) ) ) R) R) R) R) R) R) R) R) R) R) R) R) R) R) R) R) R) R) R) R) R) R) R) R) R) R) R) R) R) R) R) R) R) R) R) R) R) R) R) R) R) R) R) R) R) R) R) R) R) R) R) R) R) R) R) R) R) R) R) R) R) R) R) R) R) R) R) R) R) R) R) R) R R R R R R R R R R R R R R R R R R R R R R R R                         Q5 Q5 Q5 Q5 Q5 Q5 Q5 Q5 Q5 Q5 Q5 Q5 Q5 Q5 Q5 Q5 Q5 Q5 Q5 Q5 Q5 Q5 Q5 Q5 Q5 Q5 Q5 Q5 Q5 Q5 Q5 Q5 Q5 Q5 Q5 Q5 Q5 Q5 Q5 Q5 Q5 Q5 Q5 Q5 Q5 Q5 Q5 Q5 Q5 Q5 Q5 Q5 Q5 Q5 Q5 Q5 Q5 Q5 Q5 Q5 Q5 Q5 Q5 Q5 Q5 Q5 Q5 Q5 Q5 Q5 Q5 Q5 Q5 Q5 Q5 Q5 Q5 Q5 Q5 Q5 Q5 Q5 Q5 Q5 Q5 Q5 Q5 Q5 Q5 Q5 Q5 Q5 Q5 Q5 Q5 Q5                         O7 O7 O7 O7 O7 O7 O7 O7 O7 O7 O7 O7 O7 O7 O7 O7 O7 O7 O7 O7 O7 O7 O7 O7 O7 O7 O7 O7 O7 O7 O7 O7 O7 O7 O7 O7 O7 O7 O7 O7 O7 O7 O7 O7 O7 O7 O7 O7 O7 O7 O7 O7 O7 O7 O7 O7 O7 O7 O7 O7 O7 O7 O7 O7 O7 O7 O7 O7 O7 O7 O7 O7 O7 O7 O7 O7 O7 O7 O7 O7 O7 O7 O7 O7 O7 O7 O7 O7 O7 O7 O7 O7 O7 O7 O7 O7                         M9 M9 M9 M9 M9 M9 M9 M9 M9 M9 M9 M9 M9 M9 M9 M9 M9 M9 M9 M9 M9 M9 M9 M9 M9 M9 M9 M9 M9 M9 M9 M9 M9 M9 M9 M9 M9 M9 M9 M9 M9 M9 M9 M9 M9 M9 M9 M9 M9 M9 M9 M9 M9 M9 M9 M9 M9 M9 M9 M9 M9 M9 M9 M9 M9 M9 M9 M9 M9 M9 M9 M9 M9 M9 M9 M9 M9 M9 M9 M9 M9 M9 M9 M9 M9 M9 M9 M9 M9 M9 M9 M9 M9 M9 M9 M9                         L7 L7 L7 L7 L7 L7 L7 L7 L7 L7 L7 L7 L7 L7 L7 L7 L7 L7 L7 L7 L7 L7 L7 L7 L7 L7 L7 L7 L7 L7 L7 L7 L7 L7 L7 L7 L7 L7 L7 L7 L7 L7 L7 L7 L7 L7 L7 L7 L7 L7 L7 L7 L7 L7 L7 L7 L7 L7 L7 L7 L7 L7 L7 L7 L7 L7 L7 L7 L7 L7 L7 L7 L7 L7 L7 L7 L7 L7 L7 L7 L7 L7 L7 L7 L7 L7 L7 L7 L7 L7 L7 L7 L7 L7 L7 L7                         J5 J5 J5 J5 J5 J5 J5 J5 J5 J5 J5 J5 J5 J5 J5 J5 J5 J5 J5 J5 J5 J5 J5 J5 J5 J5 J5 J5 J5 J5 J5 J5 J5 J5 J5 J5 J5 J5 J5 J5 J5 J5 J5 J5 J5 J5 J5 J5 J5 J5 J5 J5 J5 J5 J5 J5 J5 J5 J5 J5 J5 J5 J5 J5 J5 J5 J5 J5 J5 J5 J5 J5 J5 J5 J5 J5 J5 J5 J5 J5 J5 J5 J5 J5 J5 J5 J5 J5 J5 J5 J5 J5 J5 J5 J5 J5                         H4 H4 H4 H4 H4 H4 H4 H4 H4 H4 H4 H4 H4 H4 H4 H4 H4 H4 H4 H4 H4 H4 H4 H4 H4 H4 H4 H4 H4 H4 H4 H4 H4 H4 H4 H4 H4 H4 H4 H4 H4 H4 H4 H4 H4 H4 H4 H4 H4 H4 H4 H4 H4 H4 H4 H4 H4 H4 H4 H4 H4 H4 H4 H4 H4 H4 H4 H4 H4 H4 H4 H4 H4 H4 H4 H4 H4 H4 H4 H4 H4 H4 H4 H4 H4 H4 H4 H4 H4 H4 H4 H4 H4 H4 H4 H4                         M2 M2 M2 M2 M2 M2 M2 M2 M2 M2 M2 M2 M2 M2 M2 M2 M2 M2 M2 M2 M2 M2 M2 M2 2 2 2 2 2 2 L2 L2 L2 L2 L2 L2 L2 L2 L2 L2 L2 L2 L2 L2 L2 L2 L2 L2 L2 L2 L2 L2 L2 L2 2 2 2 2 2 2 M2 M2 M2 M2 M2 M2 M2 M2 M2 M2 M2 M2 M2 M2 M2 M2 M2 M2 M2 M2 M2 M2 M2 M2 M2 M2 M2 M2 M2 M2 M2 M2 M2 M2 M2 M2 M M M M M M M M M M M M M M M M M M M M M M M M M0 M0 M0 M0 M0 M0 M0 M0 M0 M0 M0 M0 M0 M0 M0 M0 M0 M0 M0 M0 M0 M0 M0 M0 M0 M0 M0 M0 M0 M0 M0 M0 M0 M0 M0 M0 M0 M0 M0 M0 M0 M0 M0 M0 M0 M0 M0 M0 M0 M0 M0 M0 M0 M0 M0 M0 M0 M0 M0 M0 M0 M0 M0 M0 M0 M0 M0 M0 M0 M0 M0 M0 M0 M0 M0 M0 M0 M0 M0 M0 M0 M0 M0 M0 M0 M0 M0 M0 M0 M0 M0 M0 M0 M0 M0 M0 M M M M M M M M M M M M M M M M M M M M M M M M M/ M/ M/ M/ M/ M/ M/ M/ M/ M/ M/ M/ M/ M/ M/ M/ M/ M/ M/ M/ M/ M/ M/ M/ M/ M/ M/ M/ M/ M/ M/ M/ M/ M/ M/ M/ M/ M/ M/ M/ M/ M/ M/ M/ M/ M/ M/ M/ M/ M/ M/ M/ M/ M/ M/ M/ M/ M/ M/ M/ M/ M/ M/ M/ M/ M/ M/ M/ M/ M/ M/ M/ / / / / / / / / / / / / / / / / / / / / / / / /                         M- M- M- M- M- M- M- M- M- M- M- M- M- M- M- M- M- M- M- M- M- M- M- M- M- M- M- M- M- M- M- M- M- M- M- M- M- M- M- M- M- M- M- M- M- M- M- M- M- M- M- M- M- M- M- M- M- M- M- M- M- M- M- M- M- M- M- M- M- M- M- M- M- M- M- M- M- M- M- M- M- M- M- M- M- M- M- M- M- M- M- M- M- M- M- M-                         C/ C/ C/ C/ C/ C/ C/ C/ C/ C/ C/ C/ C/ C/ C/ C/ C/ C/ C/ C/ C/ C/ C/ C/ C/ C/ C/ C/ C/ C/ CJ/ CJ/ CJ/ CJ/ CJ/ CJ/ CJ/ CJ/ CJ/ CJ/ CJ/ CJ/ CJ/ CJ/ CJ/ CJ/ CJ/ CJ/ CJ/ CJ/ CJ/ CJ/ CJ/ CJ/ CJ/ CJ/ CJ/ CJ/ CJ/ CJ/ CMJ/ CMJ/ CMJ/ CMJ/ CMJ/ CMJ/ CMJ/ CMJ/ CMJ/ CMJ/ CMJ/ CMJ/ CMJ/ CMJ/ CMJ/ CMJ/ CMJ/ CMJ/ CMJ/ CMJ/ CMJ/ CMJ/ CMJ/ CMJ/ CMJ/ CMJ/ CMJ/ CMJ/ CMJ/ CMJ/ CMJ/ CMJ/ CMJ/ CMJ/ CMJ/ CMJ/ CMJ CMJ CMJ CMJ CMJ CMJ CMJ CMJ CMJ CMJ CMJ CMJ CMJ CMJ CMJ CMJ CMJ CMJ CMJ CMJ CMJ CMJ CMJ CMJ CMJ+ CMJ+ CMJ+ CMJ+ CMJ+ CMJ+ CMJ+ CMJ+ CMJ+ CMJ+ CMJ+ CMJ+ CMJ+ CMJ+ CMJ+ CMJ+ CMJ+ CMJ+ CMJ+ CMJ+ CMJ+ CMJ+ CMJ+ CMJ+ CMJ+ CMJ+ CMJ+ CMJ+ CMJ+ CMJ+ CMJ+ CMJ+ CMJ+ CMJ+ CMJ+ CMJ+ CMJ+ CMJ+ CMJ+ CMJ+ CMJ+ CMJ+ CMJ+ CMJ+ CMJ+ CMJ+ CMJ+ CMJ+ CMJ+ CMJ+ CMJ+ CMJ+ CMJ+ CMJ+ CMJ+ CMJ+ CMJ+ CMJ+ CMJ+ CMJ+ CMJ+ CMJ+ CMJ+ CMJ+ CMJ+ CMJ+ CMJ+ CMJ+ CMJ+ CMJ+ CMJ+ CMJ+ CMJ+ CMJ+ CMJ+ CMJ+ CMJ+ CMJ+ CMJ+ CMJ+ CMJ+ CMJ+ CMJ+ CMJ+ CMJ+ CMJ+ CMJ+ CMJ+ CMJ+ CMJ+ CMJ+ CMJ+ CMJ+ CMJ+ CMJ+ CMJ+ CMJ CMJ CMJ CMJ CMJ CMJ CMJ CMJ CMJ CMJ CMJ CMJ CMJ CMJ CMJ CMJ CMJ CMJ CMJ CMJ CMJ CMJ CMJ CMJ CMJ- CMJ- CMJ- CMJ- CMJ- CMJ- CMJ- CMJ- CMJ- CMJ- CMJ- CMJ- CMJ- CMJ- CMJ- CMJ- CMJ- CMJ- CMJ- CMJ- CMJ- CMJ- CMJ- CMJ- CMJ- CMJ- CMJ- CMJ- CMJ- CMJ- CMJ- CMJ- CMJ- CMJ- CMJ- CMJ- CMJ- CMJ- CMJ- CMJ- CMJ- CMJ- CMJ- CMJ- CMJ- CMJ- CMJ- CMJ- MJ- MJ- MJ- MJ- MJ- MJ- MJ- MJ- MJ- MJ- MJ- MJ- MJ- MJ- MJ- MJ- MJ- MJ- MJ- MJ- MJ- MJ- MJ- MJ- - - - - - - - - - - - - - - - - - - - - - - - -                         J/ J/ J/ J/ J/ J/ J/ J/ J/ J/ J/ J/ J/ J/ J/ J/ J/ J/ J/ J/ J/ J/ J/ J/ J/ J/ J/ J/ J/ J/ J/ J/ J/ J/ J/ J/ J/ J/ J/ J/ J/ J/ J/ J/ J/ J/ J/ J/ J/ J/ J/ J/ J/ J/ J/ J/ J/ J/ J/ J/ J/ J/ J/ J/ J/ J/ J/ J/ J/ J/ J/ J/ J/ J/ J/ J/ J/ J/ J/ J/ J/ J/ J/ J/ J/ J/ J/ J/ J/ J/ J/ J/ J/ J/ J/ J/                         L0 L0 L0 L0 L0 L0 L0 L0 L0 L0 L0 L0 L0 L0 L0 L0 L0 L0 L0 L0 L0 L0 L0 L0 L0 L0 L0 L0 L0 L0 L0 L0 L0 L0 L0 L0 L0 L0 L0 L0 L0 L0 L0 L0 L0 L0 L0 L0 L0 L0 L0 L0 L0 L0 L0 L0 L0 L0 L0 L0 L0 L0 L0 L0 L0 L0 L0 L0 L0 L0 L0 L0 L0 L0 L0 L0 L0 L0 L0 L0 L0 L0 L0 L0 L0 L0 L0 L0 L0 L0 L0 L0 L0 L0 L0 L0                         M2 M2 M2 M2 M2 M2 M2 M2 M2 M2 M2 M2 M2 M2 M2 M2 M2 M2 M2 M2 M2 M2 M2 M2 M2 M2 M2 M2 M2 M2 M2 M2 M2 M2 M2 M2 M2 M2 M2 M2 M2 M2 M2 M2 M2 M2 M2 M2 M2 M2 M2 M2 M2 M2 M2 M2 M2 M2 M2 M2 M2 M2 M2 M2 M2 M2 M2 M2 M2 M2 M2 M2 M2 M2 M2 M2 M2 M2 M2 M2 M2 M2 M2 M2 M2 M2 M2 M2 M2 M2 M2 M2 M2 M2 M2 M2                         O4 O4 O4 O4 O4 O4 O4 O4 O4 O4 O4 O4 O4 O4 O4 O4 O4 O4 O4 O4 O4 O4 O4 O4 O4 O4 O4 O4 O4 O4 O4 O4 O4 O4 O4 O4 O4 O4 O4 O4 O4 O4 O4 O4 O4 O4 O4 O4 O4 O4 O4 O4 O4 O4 O4 O4 O4 O4 O4 O4 O4 O4 O4 O4 O4 O4 O4 O4 O4 O4 O4 O4 O4 O4 O4 O4 O4 O4 O4 O4 O4 O4 O4 O4 O4 O4 O4 O4 O4 O4 O4 O4 O4 O4 O4 O4                         Q5 Q5 Q5 Q5 Q5 Q5 Q5 Q5 Q5 Q5 Q5 Q5 Q5 Q5 Q5 Q5 Q5 Q5 Q5 Q5 Q5 Q5 Q5 Q5 Q5 Q5 Q5 Q5 Q5 Q5 Q5 Q5 Q5 Q5 Q5 Q5 Q5 Q5 Q5 Q5 Q5 Q5 Q5 Q5 Q5 Q5 Q5 Q5 Q5 Q5 Q5 Q5 Q5 Q5 Q5 Q5 Q5 Q5 Q5 Q5 Q5 Q5 Q5 Q5 Q5 Q5 Q5 Q5 Q5 Q5 Q5 Q5 Q5 Q5 Q5 Q5 Q5 Q5 Q5 Q5 Q5 Q5 Q5 Q5 Q5 Q5 Q5 Q5 Q5 Q5 Q5 Q5 Q5 Q5 Q5 Q5                         O7 O7 O7 O7 O7 O7 O7 O7 O7 O7 O7 O7 O7 O7 O7 O7 O7 O7 O7 O7 O7 O7 O7 O7 O7 O7 O7 O7 O7 O7 O7 O7 O7 O7 O7 O7 O7 O7 O7 O7 O7 O7 O7 O7 O7 O7 O7 O7 O7 O7 O7 O7 O7 O7 O7 O7 O7 O7 O7 O7 O7 O7 O7 O7 O7 O7 O7 O7 O7 O7 O7 O7 O7 O7 O7 O7 O7 O7 O7 O7 O7 O7 O7 O7 O7 O7 O7 O7 O7 O7 O7 O7 O7 O7 O7 O7 7 7 7 7 7 7 7 7 7 7 7 7 7 7 7 7 7 7 7 7 7 7 7 7 M7 M7 M7 M7 M7 M7 M7 M7 M7 M7 M7 M7 M7 M7 M7 M7 M7 M7 M7 M7 M7 M7 M7 M7 M7 M7 M7 M7 M7 M7 M7 M7 M7 M7 M7 M7 M7 M7 M7 M7 M7 M7 M7 M7 M7 M7 M7 M7 M7 M7 M7 M7 M7 M7 M7 M7 M7 M7 M7 M7 M M M M M M M M M M M M M M M M M M M M M M M M M M M M M M M M M M M M                         L+ L+ L+ L+ L+ L+ L+ L+ L+ L+ L+ L+ L+ L+ L+ L+ L+ L+ L+ L+ L+ L+ L+ L+ L+ L+ L+ L+ L+ L+ L+ L+ L+ L+ L+ L+ L+ L+ L+ L+ L+ L+ L+ L+ L+ L+ L+ L+ L+ L+ L+ L+ L+ L+ L+ L+ L+ L+ L+ L+ L+ L+ L+ L+ L+ L+ L+ L+ L+ L+ L+ L+ L+ L+ L+ L+ L+ L+ L+ L+ L+ L+ L+ L+ L+ L+ L+ L+ L+ L+ L+ L+ L+ L+ L+ L+ + + + + + + + + + + + + + + + + + + + + + + + + J+ J+ J+ J+ J+ J+ J+ J+ J+ J+ J+ J+ J+ J+ J+ J+ J+ J+ J+ J+ J+ J+ J+ J+ J+ J+ J+ J+ J+ J+ J+ J+ J+ J+ J+ J+ J+ J+ J+ J+ J+ J+ J+ J+ J+ J+ J+ J+ J+ J+ J+ J+ J+ J+ J+ J+ J+ J+ J+ J+ J J J J J J J J J J J J J J J J J J J J J J J J J J J J J J J J J J J J                         L0 L0 L0 L0 L0 L0 L0 L0 L0 L0 L0 L0 L0 L0 L0 L0 L0 L0 L0 L0 L0 L0 L0 L0 0 0 0 0 0 0 M0 M0 M0 M0 M0 M0 M0 M0 M0 M0 M0 M0 M0 M0 M0 M0 M0 M0 M0 M0 M0 M0 M0 M0 0 0 0 0 0 0 L0 L0 L0 L0 L0 L0 L0 L0 L0 L0 L0 L0 L0 L0 L0 L0 L0 L0 L0 L0 L0 L0 L0 L0 L0 L0 L0 L0 L0 L0 L0 L0 L0 L0 L0 L0 L0 L0 L0 L0 L0 L0 L0 L0 L0 L0 L0 L0 L0 L0 L0 L0 L0 L0 L0 L0 L0 L0 L0 L0 L70 L70 L70 L70 L70 L70 L70 L70 L70 L70 L70 L70 L70 L70 L70 L70 L70 L70 L70 L70 L70 L70 L70 L70 L70 L70 L70 L70 L70 L70 L70 L70 L70 L70 L70 L70 L70 L70 L70 L70 L70 L70 L70 L70 L70 L70 L70 L70 L70 L70 L70 L70 L70 L70 L70 L70 L70 L70 L70 L70 L70 L70 L70 L70 L70 L70 L70 L70 L70 L70 L70 L70 L70 L70 L70 L70 L70 L70 L70 L70 L70 L70 L70 L70 L70 L70 L70 L70 L70 L70 L70 L70 L70 L70 L70 L70 L0 L0 L0 L0 L0 L0 L0 L0 L0 L0 L0 L0 L0 L0 L0 L0 L0 L0 L0 L0 L0 L0 L0 L0 L0< L0< L0< L0< L0< L0< L0< L0< L0< L0< L0< L0< L0< L0< L0< L0< L0< L0< L0< L0< L0< L0< L0< L0< L0< L0< L0< L0< L0< L0< L0< L0< L0< L0< L0< L0< L0< L0< L0< L0< L0< L0< L0< L0< L0< L0< L0< L0< L0< L0< L0< L0< L0< L0< L0< L0< L0< L0< L0< L0< L0< L0< L0< L0< L0< L0< L0< L0< L0< L0< L0< L0< 0< 0< 0< 0< 0< 0< 0< 0< 0< 0< 0< 0< 0< 0< 0< 0< 0< 0< 0< 0< 0< 0< 0< 0< 0< 0< 0< 0< 0< 0< 0< 0< 0< 0< 0< 0< 0< 0< 0< 0< 0< 0< 0< 0< 0< 0< 0< 0< J<2 J<2 J<2 J<2 J<2 J<2 J<2 J<2 J<2 J<2 J<2 J<2 J<2 J<2 J<2 J<2 J<2 J<2 J<2 J<2 J<2 J<2 J<2 J<2 J<2 J<2 J<2 J<2 J<2 J<2 J<2 J<2 J<2 J<2 J<2 J<2 J<2 J<2 J<2 J<2 J<2 J<2 J<2 J<2 J<2 J<2 J<2 J<2 J<2 J<2 J<2 J<2 J<2 J<2 J<2 J<2 J<2 J<2 J<2 J<2 J<2 J<2 J<2 J<2 J<2 J<2 J<2 J<2 J<2 J<2 J<2 J<2 J2 J2 J2 J2 J2 J2 J2 J2 J2 J2 J2 J2 J2 J2 J2 J2 J2 J2 J2 J2 J2 J2 J2 J2 2 2 2 2 2 2 2 2 2 2 2 2 2 2 2 2 2 2 2 2 2 2 2 2 H4 H4 H4 H4 H4 H4 H4 H4 H4 H4 H4 H4 H4 H4 H4 H4 H4 H4 H4 H4 H4 H4 H4 H4 H4 H4 H4 H4 H4 H4 H4 H4 H4 H4 H4 H4 H4 H4 H4 H4 H4 H4 H4 H4 H4 H4 H4 H4 H4 H4 H4 H4 H4 H4 H4 H4 H4 H4 H4 H4 H4 H4 H4 H4 H4 H4 H4 H4 H4 H4 H4 H4 H4 H4 H4 H4 H4 H4 H4 H4 H4 H4 H4 H4 H4 H4 H4 H4 H4 H4 H4 H4 H4 H4 H4 H4 4 4 4 4 4 4 4 4 4 4 4 4 4 4 4 4 4 4 4 4 4 4 4 4 L4 L4 L4 L4 L4 L4 L4 L4 L4 L4 L4 L4 L4 L4 L4 L4 L4 L4 L4 L4 L4 L4 L4 L4 L4 L4 L4 L4 L4 L4 L4 L4 L4 L4 L4 L4 L4 L4 L4 L4 L4 L4 L4 L4 L4 L4 L4 L4 L4 L4 L4 L4 L4 L4 L4 L4 L4 L4 L4 L4 L4 L4 L4 L4 L4 L4 L4 L4 L4 L4 L4 L4 L4 L4 L4 L4 L4 L4 L4 L4 L4 L4 L4 L4 L4 L4 L4 L4 L4 L4 L4 L4 L4 L4 L4 L4 4 4 4 4 4 4 4 4 4 4 4 4 4 4 4 4 4 4 4 4 4 4 4 4 J5 J5 J5 J5 J5 J5 J5 J5 J5 J5 J5 J5 J5 J5 J5 J5 J5 J5 J5 J5 J5 J5 J5 J5 J5 J5 J5 J5 J5 J5 J5 J5 J5 J5 J5 J5 J5 J5 J5 J5 J5 J5 J5 J5 J5 J5 J5 J5 J5 J5 J5 J5 J5 J5 J5 J5 J5 J5 J5 J5 J5 J5 J5 J5 J5 J5 J5 J5 J5 J5 J5 J5 J5 J5 J5 J5 J5 J5 J5 J5 J5 J5 J5 J5 J5 J5 J5 J5 J5 J5 J5 J5 J5 J5 J5 J5 5 5 5 5 5 5 5 5 5 5 5 5 5 5 5 5 5 5 5 5 5 5 5 5 H5 H5 H5 H5 H5 H5 H5 H5 H5 H5 H5 H5 H5 H5 H5 H5 H5 H5 H5 H5 H5 H5 H5 H5 H5 H5 H5 H5 H5 H5 H5 H5 H5 H5 H5 H5 H5 H5 H5 H5 H5 H5 H5 H5 H5 H5 H5 H5 H5 H5 H5 H5 H5 H5 H5 H5 H5 H5 H5 H5 H H H H H H H H H H H H H H H H H H H H H H H H H H H H H H H H H H H H                         G7 G7 G7 G7 G7 G7 G7 G7 G7 G7 G7 G7 G7 G7 G7 G7 G7 G7 G7 G7 G7 G7 G7 G7 G7 G7 G7 G7 G7 G7 G7 G7 G7 G7 G7 G7 G7 G7 G7 G7 G7 G7 G7 G7 G7 G7 G7 G7 G7 G7 G7 G7 G7 G7 G7 G7 G7 G7 G7 G7 G7 G7 G7 G7 G7 G7 G7 G7 G7 G7 G7 G7 G7 G7 G7 G7 G7 G7 G7 G7 G7 G7 G7 G7 G7 G7 G7 G7 G7 G7 G7 G7 G7 G7 G7 G7 7 7 7 7 7 7 7 7 7 7 7 7 7 7 7 7 7 7 7 7 7 7 7 7 E7 E7 E7 E7 E7 E7 E7 E7 E7 E7 E7 E7 E7 E7 E7 E7 E7 E7 E7 E7 E7 E7 E7 E7 E7 E7 E7 E7 E7 E7 E7 E7 E7 E7 E7 E7 E7 E7 E7 E7 E7 E7 E7 E7 E7 E7 E7 E7 E7 E7 E7 E7 E7 E7 E7 E7 E7 E7 E7 E7 E E E E E E E E E E E E E E E E E E E E E E E E E E E E E E E E E E E E                         G9 G9 G9 G9 G9 G9 G9 G9 G9 G9 G9 G9 G9 G9 G9 G9 G9 G9 G9 G9 G9 G9 G9 G9 G9 G9 G9 G9 G9 G9 G9 G9 G9 G9 G9 G9 G9 G9 G9 G9 G9 G9 G9 G9 G9 G9 G9 G9 G9 G9 G9 G9 G9 G9 G9 G9 G9 G9 G9 G9 G9 G9 G9 G9 G9 G9 G9 G9 G9 G9 G9 G9 G9 G9 G9 G9 G9 G9 G9 G9 G9 G9 G9 G9 G9 G9 G9 G9 G9 G9 G9 G9 G9 G9 G9 G9 9 9 9 9 9 9 9 9 9 9 9 9 9 9 9 9 9 9 9 9 9 9 9 9 H9 H9 H9 H9 H9 H9 H9 H9 H9 H9 H9 H9 H9 H9 H9 H9 H9 H9 H9 H9 H9 H9 H9 H9 H9 H9 H9 H9 H9 H9 H9 H9 H9 H9 H9 H9 H9 H9 H9 H9 H9 H9 H9 H9 H9 H9 H9 H9 H9 H9 H9 H9 H9 H9 H9 H9 H9 H9 H9 H9 H H H H H H H H H H H H H H H H H H H H H H H H H H H H H H H H H H H H                         A; A; A; A; A; A; A; A; A; A; A; A; A; A; A; A; A; A; A; A; A; A; A; A; A; A; A; A; A; A; A; A; A; A; A; A; A; A; A; A; A; A; A; A; A; A; A; A; A; A; A; A; A; A; A; A; A; A; A; A; A; A; A; A; A; A; A; A; A; A; A; A; A; A; A; A; A; A; A; A; A; A; A; A; A; A; A; A; A; A; A; A; A; A; A; A; A A A A A A A A A A A A A A A A A A A A A A A A A< A< A< A< A< A< A< A< A< A< A< A< A< A< A< A< A< A< A< A< A< A< A< A< A< A< A< A< A< A< A< A< A< A< A< A< A< A< A< A< A< A< A< A< A< A< A< A< A< A< A< A< A< A< A< A< A< A< A< A< A< A< A< A< A< A< A< A< A< A< A< A< A< A< A< A< A< A< A< A< A< A< A< A< A< A< A< A< A< A< A< A< A< A< A< A< A A A A A A A A A A A A A A A A A A A A A A A A A> A> A> A> A> A> A> A> A> A> A> A> A> A> A> A> A> A> A> A> A> A> A> A> A> A> A> A> A> A> A> A> A> A> A> A> A> A> A> A> A> A> A> A> A> A> A> A> > > > > > > > > > > > > > > > > > > > > > > > > > > > > > > > > > > > > > > > > > > > > > > > >                         @< @< @< @< @< @< @< @< @< @< @< @< @< @< @< @< @< @< @< @< @< @< @< @< @< @< @< @< @< @< @< @< @< @< @< @< @< @< @< @< @< @< @< @< @< @< @< @< @< @< @< @< @< @< @< @< @< @< @< @< @< @< @< @< @< @< @< @< @< @< @< @< @< @< @< @< @< @< @< @< @< @< @< @< @< @< @< @< @< @< @< @< @< @< @< @<                         A; A; A; A; A; A; A; A; A; A; A; A; A; A; A; A; A; A; A; A; A; A; A; A; A; A; A; A; A; A; A; A; A; A; A; A; A; A; A; A; A; A; A; A; A; A; A; A; A; A; A; A; A; A; A; A; A; A; A; A; A; A; A; A; A; A; A; A; A; A; A; A; A; A; A; A; A; A; A; A; A; A; A; A; A; A; A; A; A; A; A; A; A; A; A; A;                         >9 >9 >9 >9 >9 >9 >9 >9 >9 >9 >9 >9 >9 >9 >9 >9 >9 >9 >9 >9 >9 >9 >9 >9 >9 >9 >9 >9 >9 >9 >9 >9 >9 >9 >9 >9 >9 >9 >9 >9 >9 >9 >9 >9 >9 >9 >9 >9 >9 >9 >9 >9 >9 >9 >9 >9 >9 >9 >9 >9 >9 >9 >9 >9 >9 >9 >9 >9 >9 >9 >9 >9 >9 >9 >9 >9 >9 >9 >9 >9 >9 >9 >9 >9 >9 >9 >9 >9 >9 >9 >9 >9 >9 >9 >9 >9                         @7 @7 @7 @7 @7 @7 @7 @7 @7 @7 @7 @7 @7 @7 @7 @7 @7 @7 @7 @7 @7 @7 @7 @7 @7 @7 @7 @7 @7 @7 @7 @7 @7 @7 @7 @7 @7 @7 @7 @7 @7 @7 @7 @7 @7 @7 @7 @7 @7 @7 @7 @7 @7 @7 @7 @7 @7 @7 @7 @7 @7 @7 @7 @7 @7 @7 @7 @7 @7 @7 @7 @7 @7 @7 @7 @7 @7 @7 @7 @7 @7 @7 @7 @7 @7 @7 @7 @7 @7 @7 @7 @7 @7 @7 @7 @7                         A5 A5 A5 A5 A5 A5 A5 A5 A5 A5 A5 A5 A5 A5 A5 A5 A5 A5 A5 A5 A5 A5 A5 A5 A5 A5 A5 A5 A5 A5 A5 A5 A5 A5 A5 A5 A5 A5 A5 A5 A5 A5 A5 A5 A5 A5 A5 A5 A5 A5 A5 A5 A5 A5 A5 A5 A5 A5 A5 A5 A5 A5 A5 A5 A5 A5 A5 A5 A5 A5 A5 A5 A5 A5 A5 A5 A5 A5 A5 A5 A5 A5 A5 A5 A5 A5 A5 A5 A5 A5 A5 A5 A5 A5 A5 A5                         C4 C4 C4 C4 C4 C4 C4 C4 C4 C4 C4 C4 C4 C4 C4 C4 C4 C4 C4 C4 C4 C4 C4 C4 C4 C4 C4 C4 C4 C4 C4 C4 C4 C4 C4 C4 C4 C4 C4 C4 C4 C4 C4 C4 C4 C4 C4 C4 C4 C4 C4 C4 C4 C4 C4 C4 C4 C4 C4 C4 C4 C4 C4 C4 C4 C4 C4 C4 C4 C4 C4 C4 C4 C4 C4 C4 C4 C4 C4 C4 C4 C4 C4 C4 C4 C4 C4 C4 C4 C4 C4 C4 C4 C4 C4 C4                         E0 E0 E0 E0 E0 E0 E0 E0 E0 E0 E0 E0 E0 E0 E0 E0 E0 E0 E0 E0 E0 E0 E0 E0 E0 E0 E0 E0 E0 E0 E0 E0 E0 E0 E0 E0 E0 E0 E0 E0 E0 E0 E0 E0 E0 E0 E0 E0 E0 E0 E0 E0 E0 E0 E0 E0 E0 E0 E0 E0 E0 E0 E0 E0 E0 E0 E0 E0 E0 E0 E0 E0 E0 E0 E0 E0 E0 E0 E0 E0 E0 E0 E0 E0 E0 E0 E0 E0 E0 E0 E0 E0 E0 E0 E0 E0                         F2 F2 F2 F2 F2 F2 F2 F2 F2 F2 F2 F2 F2 F2 F2 F2 F2 F2 F2 F2 F2 F2 F2 F2 F2 F2 F2 F2 F2 F2 F2 F2 F2 F2 F2 F2 F2 F2 F2 F2 F2 F2 F2 F2 F2 F2 F2 F2 F2 F2 F2 F2 F2 F2 F2 F2 F2 F2 F2 F2 F2 F2 F2 F2 F2 F2 F2 F2 F2 F2 F2 F2 F2 F2 F2 F2 F2 F2 F2 F2 F2 F2 F2 F2 F2 F2 F2 F2 F2 F2 F2 F2 F2 F2 F2 F2                         C4 C4 C4 C4 C4 C4 C4 C4 C4 C4 C4 C4 C4 C4 C4 C4 C4 C4 C4 C4 C4 C4 C4 C4 C4 C4 C4 C4 C4 C4 C4 C4 C4 C4 C4 C4 C4 C4 C4 C4 C4 C4 C4 C4 C4 C4 C4 C4 C4 C4 C4 C4 C4 C4 C4 C4 C4 C4 C4 C4 C4 C4 C4 C4 C4 C4 C4 C4 C4 C4 C4 C4 C4 C4 C4 C4 C4 C4 C4 C4 C4 C4 C4 C4 C4 C4 C4 C4 C4 C4 C4 C4 C4 C4 C4 C4                         E5 E5 E5 E5 E5 E5 E5 E5 E5 E5 E5 E5 E5 E5 E5 E5 E5 E5 E5 E5 E5 E5 E5 E5 E5 E5 E5 E5 E5 E5 E5 E5 E5 E5 E5 E5 E5 E5 E5 E5 E5 E5 E5 E5 E5 E5 E5 E5 E5 E5 E5 E5 E5 E5 E5 E5 E5 E5 E5 E5 E5 E5 E5 E5 E5 E5 E5 E5 E5 E5 E5 E5 E5 E5 E5 E5 E5 E5 E5 E5 E5 E5 E5 E5 E5 E5 E5 E5 E5 E5 E5 E5 E5 E5 E5 E5 E E E E E E E E E E E E E E E E E E E E E E E E E4 E4 E4 E4 E4 E4 E4 E4 E4 E4 E4 E4 E4 E4 E4 E4 E4 E4 E4 E4 E4 E4 E4 E4 E4 E4 E4 E4 E4 E4 E4 E4 E4 E4 E4 E4 E4 E4 E4 E4 E4 E4 E4 E4 E4 E4 E4 E4 E4 E4 E4 E4 E4 E4 E4 E4 E4 E4 E4 E4 E4 E4 E4 E4 E4 E4 E4 E4 E4 E4 E4 E4 E4 E4 E4 E4 E4 E4 E4 E4 E4 E4 E4 E4 E4 E4 E4 E4 E4 E4 E4 E4 E4 E4 E4 E4 E E E E E E E E E E E E E E E E E E E E E E E E E5 E5 E5 E5 E5 E5 E5 E5 E5 E5 E5 E5 E5 E5 E5 E5 E5 E5 E5 E5 E5 E5 E5 E5 E5 E5 E5 E5 E5 E5 E5 E5 E5 E5 E5 E5 E5 E5 E5 E5 E5 E5 E5 E5 E5 E5 E5 E5 5 5 5 5 5 5 5 5 5 5 5 5 5 5 5 5 5 5 5 5 5 5 5 5 5 5 5 5 5 5 5 5 5 5 5 5 5 5 5 5 5 5 5 5 5 5 5 5                         C7 C7 C7 C7 C7 C7 C7 C7 C7 C7 C7 C7 C7 C7 C7 C7 C7 C7 C7 C7 C7 C7 C7 C7 C7 C7 C7 C7 C7 C7 C7 C7 C7 C7 C7 C7 C7 C7 C7 C7 C7 C7 C7 C7 C7 C7 C7 C7 C7 C7 C7 C7 C7 C7 C7 C7 C7 C7 C7 C7 C7 C7 C7 C7 C7 C7 C7 C7 C7 C7 C7 C7 C7 C7 C7 C7 C7 C7 C7 C7 C7 C7 C7 C7 C7 C7 C7 C7 C7 C7 C7 C7 C7 C7 C7 C7                         A9 A9 A9 A9 A9 A9 A9 A9 A9 A9 A9 A9 A9 A9 A9 A9 A9 A9 A9 A9 A9 A9 A9 A9 A9 A9 A9 A9 A9 A9 A9 A9 A9 A9 A9 A9 A9 A9 A9 A9 A9 A9 A9 A9 A9 A9 A9 A9 A9 A9 A9 A9 A9 A9 A9 A9 A9 A9 A9 A9 A9 A9 A9 A9 A9 A9 A9 A9 A9 A9 A9 A9 A9 A9 A9 A9 A9 A9 A9 A9 A9 A9 A9 A9 A9 A9 A9 A9 A9 A9 A9 A9 A9 A9 A9 A9 9 9 9 9 9 9 9 9 9 9 9 9 9 9 9 9 9 9 9 9 9 9 9 9 @9 @9 @9 @9 @9 @9 @9 @9 @9 @9 @9 @9 @9 @9 @9 @9 @9 @9 @9 @9 @9 @9 @9 @9 @9 @9 @9 @9 @9 @9 @9 @9 @9 @9 @9 @9 @9 @9 @9 @9 @9 @9 @9 @9 @9 @9 @9 @9 @9 @9 @9 @9 @9 @9 @9 @9 @9 @9 @9 @9 @9 @9 @9 @9 @9 @9 @9 @9 @9 @9 @9 @9 @ @ @ @ @ @ @ @ @ @ @ @ @ @ @ @ @ @ @ @ @ @ @ @                         >5 >5 >5 >5 >5 >5 >5 >5 >5 >5 >5 >5 >5 >5 >5 >5 >5 >5 >5 >5 >5 >5 >5 >5 >5 >5 >5 >5 >5 >5 >5 >5 >5 >5 >5 >5 >5 >5 >5 >5 >5 >5 >5 >5 >5 >5 >5 >5 >5 >5 >5 >5 >5 >5 >5 >5 >5 >5 >5 >5 >5 >5 >5 >5 >5 >5 >5 >5 >5 >5 >5 >5 >5 >5 >5 >5 >5 >5 >5 >5 >5 >5 >5 >5 >5 >5 >5 >5 >5 >5 >5 >5 >5 >5 >5 >5 5 5 5 5 5 5 5 5 5 5 5 5 5 5 5 5 5 5 5 5 5 5 5 5 J5 J5 J5 J5 J5 J5 J5 J5 J5 J5 J5 J5 J5 J5 J5 J5 J5 J5 J5 J5 J5 J5 J5 J5 J5 J5 J5 J5 J5 J5 J5 J5 J5 J5 J5 J5 J5 J5 J5 J5 J5 J5 J5 J5 J5 J5 J5 J5 J5 J5 J5 J5 J5 J5 J5 J5 J5 J5 J5 J5 J J J J J J J J J J J J J J J J J J J J J J J J J J J J J J J J J J J J                         H7 H7 H7 H7 H7 H7 H7 H7 H7 H7 H7 H7 H7 H7 H7 H7 H7 H7 H7 H7 H7 H7 H7 H7 7 7 7 7 7 7 G7 G7 G7 G7 G7 G7 G7 G7 G7 G7 G7 G7 G7 G7 G7 G7 G7 G7 G7 G7 G7 G7 G7 G7 7 7 7 7 7 7 E7 E7 E7 E7 E7 E7 E7 E7 E7 E7 E7 E7 E7 E7 E7 E7 E7 E7 E7 E7 E7 E7 E7 E7 7 7 7 7 7 7 G7 G7 G7 G7 G7 G7 G7 G7 G7 G7 G7 G7 G7 G7 G7 G7 G7 G7 G7 G7 G7 G7 G7 G7 7 7 7 7 7 7 H7 H7 H7 H7 H7 H7 H7 H7 H7 H7 H7 H7 H7 H7 H7 H7 H7 H7 H7 H7 H7 H7 H7 H7 7 7 7 7 7 7 G7 G7 G7 G7 G7 G7 G7 G7 G7 G7 G7 G7 G7 G7 G7 G7 G7 G7 G7 G7 G7 G7 G7 G7 7 7 7 7 7 7 H H H H H H H H H H H H H H H H H H H H H H H H       G G G G G G G G G G G G G G G G G G G G G G G G       H+ H+ H+ H+ H+ H+ H+ H+ H+ H+ H+ H+ H+ H+ H+ H+ H+ H+ H+ H+ H+ H+ H+ H+ + + + + + + G+ G+ G+ G+ G+ G+ G+ G+ G+ G+ G+ G+ G+ G+ G+ G+ G+ G+ G+ G+ G+ G+ G+ G+ + + + + + + E+ E+ E+ E+ E+ E+ E+ E+ E+ E+ E+ E+ E+ E+ E+ E+ E+ E+ E+ E+ E+ E+ E+ E+ + + + + + + G+ G+ G+ G+ G+ G+ G+ G+ G+ G+ G+ G+ G+ G+ G+ G+ G+ G+ G+ G+ G+ G+ G+ G+ + + + + + + H+ H+ H+ H+ H+ H+ H+ H+ H+ H+ H+ H+ H+ H+ H+ H+ H+ H+ H+ H+ H+ H+ H+ H+ H+ H+ H+ H+ H+ H+ H+ H+ H+ H+ H+ H+ H+ H+ H+ H+ H+ H+ H+ H+ H+ H+ H+ H+ H+ H+ H+ H+ H+ H+ H+ H+ H+ H+ H+ H+ H H H H H H H H H H H H H H H H H H H H H H H H H H H H H H H H H H H H                         H0 H0 H0 H0 H0 H0 H0 H0 H0 H0 H0 H0 H0 H0 H0 H0 H0 H0 H0 H0 H0 H0 H0 H0 H0 H0 H0 H0 H0 H0 H0 H0 H0 H0 H0 H0 H0 H0 H0 H0 H0 H0 H0 H0 H0 H0 H0 H0 H0 H0 H0 H0 H0 H0 H0 H0 H0 H0 H0 H0 H0 H0 H0 H0 H0 H0 H0 H0 H0 H0 H0 H0 H0 H0 H0 H0 H0 H0 H0 H0 H0 H0 H0 H0 H0 H0 H0 H0 H0 H0 H0 H0 H0 H0 H0 H0 H0 H0 H0 H0 H0 H0 H0 H0 H0 H0 H0 H0 H0 H0 H0 H0 H0 H0 H0 H0 H0 H0 H0 H0 H0 H0 H0 H0 H0 H0 H0 H0 H0 H0 H0 H0 H0 H0 H0 H0 H0 H0 H0 H0 H0 H0 H0 H0 H0 H0 H0 H0 H0 H0 H0 H0 H0 H0 H0 H0 H0 H0 H0 H0 H0 H0 H0 H0 H0 H0 H0 H0 H0 H0 H0 H0 H0 H0 H0 H0 H0 H0 H0 H0 H0 H0 H0 H0 H0 H0 H0 H0 H0 H0 H0 H0 H0 H0 H0 H0 H0 H0 H0 H0 H0 H0 H0 H0 H0 H0 H0 H0 H0 H0 H0 H0 H0 H0 H0 H0 H0 H0 H0 H0 H0 H0 H0 H0 H0 H0 H0 H0 H0 H0 H0 H0 H0 H0 H0 H0 H0 H0 H0 H0 H0$ H0$ H0$ H0$ H0$ H0$ H0$ H0$ H0$ H0$ H0$ H0$ H0$ H0$ H0$ H0$ H0$ H0$ H0$ H0$ H0$ H0$ H0$ H0$ H0$ H0$ H0$ H0$ H0$ H0$ H0$ H0$ H0$ H0$ H0$ H0$ H0$ H0$ H0$ H0$ H0$ H0$ H0$ H0$ H0$ H0$ H0$ H0$ H0$ H0$ H0$ H0$ H0$ H0$ H0$ H0$ H0$ H0$ H0$ H0$ H0$ H0$ H0$ H0$ H0$ H0$ H0$ H0$ H0$ H0$ H0$ H0$ H0$ H0$ H0$ H0$ H0$ H0$ H0$ H0$ H0$ H0$ H0$ H0$ H0$ H0$ H0$ H0$ H0$ H0$ H0$ H0$ H0$ H0$ H0$ H0$ H0$ H0$ H0$ H0$ H0$ H0$ H0$ H0$ H0$ H0$ H0$ H0$ H0$ H0$ H0$ H0$ H0$ H0$ H0$ H0$ H0$ H0$ H0$ H0$ H0$ H0$ H0$ H0$ H0$ H0$ H0$ H0$ H0$ H0$ H0$ H0$ H0$ H0$ H0$ H0$ H0$ H0$ H0$ H0$ H0$ H0$ H0$ H0$ H$ H$ H$ H$ H$ H$ H$ H$ H$ H$ H$ H$ H$ H$ H$ H$ H$ H$ H$ H$ H$ H$ H$ H$ H$ H$ H$ H$ H$ H$ H$ H$ H$ H$ H$ H$ H$ H$ H$ H$ H$ H$ H$ H$ H$ H$ H$ H$ H$ H$ H$ H$ H$ H$ H$ H$ H$ H$ H$ H$ H$ H$ H$ H$ H$ H$ H$ H$ H$ H$ H$ H$ H$ H$ H$ H$ H$ H$ H$ H$ H$ H$ H$ H$ H$ H$ H$ H$ H$ H$ H$ H$ H$ H$ H$ H$ H+$ H+$ H+$ H+$ H+$ H+$ H+$ H+$ H+$ H+$ H+$ H+$ H+$ H+$ H+$ H+$ H+$ H+$ H+$ H+$ H+$ H+$ H+$ H+$ H+$ H+$ H+$ H+$ H+$ H+$ H+$ H+$ H+$ H+$ H+$ H+$ H+$ H+$ H+$ H+$ H+$ H+$ H+$ H+$ H+$ H+$ H+$ H+$ H+$ H+$ H+$ H+$ H+$ H+$ H+$ H+$ H+$ H+$ H+$ H+$ H+$ H+$ H+$ H+$ H+$ H+$ H+$ H+$ H+$ H+$ H+$ H+$ H+$ H+$ H+$ H+$ H+$ H+$ H+$ H+$ H+$ H+$ H+$ H+$ H+$ H+$ H+$ H+$ H+$ H+$ H+$ H+$ H+$ H+$ H+$ H+$ H+$ H+$ H+$ H+$ H+$ H+$ H+$ H+$ H+$ H+$ H+$ H+$ H+$ H+$ H+$ H+$ H+$ H+$ H+$ H+$ H+$ H+$ H+$ H+$ H+$ H+$ H+$ H+$ H+$ H+$ H+$ H+$ H+$ H+$ H+$ H+$ H+$ H+$ H+$ H+$ H+$ H+$ H+$ H+$ H+$ H+$ H+$ H+$ H+$ H+$ H+$ H+$ H+$ H+$ H+$ H+$ H+$ H+$ H+$ H+$ H+$ H+$ H+$ H+$ H+$ H+$ H+$ H+$ H+$ H+$ H+$ H+$ H+$ H+$ H+$ H+$ H+$ H+$ H+$ H+$ H+$ H+$ H+$ H+$ H+$ H+$ H+$ H+$ H+$ H+$ H+$ H+$ H+$ H+$ H+$ H+$ H$ H$ H$ H$ H$ H$ H$ H$ H$ H$ H$ H$ H$ H$ H$ H$ H$ H$ H$ H$ H$ H$ H$ H$ H$ H$ H$ H$ H$ H$ H$ H$ H$ H$ H$ H$ H$ H$ H$ H$ H$ H$ H$ H$ H$ H$ H$ H$ C@H0$ C@H0$ C@H0$ C@H0$ C@H0$ C@H0$ C@H0$ C@H0$ C@H0$ C@H0$ C@H0$ C@H0$ C@H0$ C@H0$ C@H0$ C@H0$ C@H0$ C@H0$ C@H0$ C@H0$ C@H0$ C@H0$ C@H0$ C@H0$ C@H0$ C@H0$ C@H0$ C@H0$ C@H0$ C@H0$ C@H0$ C@H0$ C@H0$ C@H0$ C@H0$ C@H0$ C@H0$ C@H0$ C@H0$ C@H0$ C@H0$ C@H0$ C@H0$ C@H0$ C@H0$ C@H0$ C@H0$ C@H0$ C@H0$ C@H0$ C@H0$ C@H0$ C@H0$ C@H0$ C@H0$ C@H0$ C@H0$ C@H0$ C@H0$ C@H0$ C@H0$ C@H0$ C@H0$ C@H0$ C@H0$ C@H0$ C@H0$ C@H0$ C@H0$ C@H0$ C@H0$ C@H0$ C@H0$ C@H0$ C@H0$ C@H0$ C@H0$ C@H0$ C@H0$ C@H0$ C@H0$ C@H0$ C@H0$ C@H0$ C@H0$ C@H0$ C@H0$ C@H0$ C@H0$ C@H0$ C@H0$ C@H0$ C@H0$ C@H0$ C@H0$ C@H0$ C@H0$ C@H0$ C@H0$ C@H0$ C@H0$ C@H0$ C@H0$ C@H0$ C@H0$ C@H0$ C@H0$ C@H0$ C@H0$ C@H0$ C@H0$ C@H0$ C@H0$ C@H0$ C@H0$ C@H0$ C@H0$ C@H0$ C@H0$ C@H0$ C@H0$ C@H0$ C@H0$ C@H0$ C@H0$ C@H0$ C@H0$ C@H0$ C@H0$ C@H0$ C@H0$ C@H0$ C@H0$ C@H0$ C@H0$ C@H0$ C@H0$ C@H0$ C@H0$ C@H0$ C@H0$ C@H0$ C@H0$ C@H0$ C@H0$ C@H0$ C@H0$ C@H0$ C@H0$ C@H0$ C@H0$ C@H0$ C@H0$ C@H0$ C@H0$ C@H0$ C@H0$ C@H0$ C@H0$ C@H0$ C@H0$ C@H0$ C@H0$ C@H0$ C@H0$ C@H0$ C@H0$ C@H0$ C@H0$ C@H0$ C@H0$ C@H0$ C@H0$ C@H0$ C@H0$ C@H0$ C@H0$ C@H0$ C@H0$ C@H0$ C@H0$ C@H0$ C@H0$ C@H0$ C@H0$ C@H0$ C@H0$ C@H0$ C@H0$ C@H0$ C@H0$ C@H0$ C@H0$ C@H0$ C@H0$ C@H0$ C@H0$ C@H0$ C@H0$ C@H0$ C@H0$ C@H0$ C@H0$ C@H0$ C@H0$ C@H0$ C@H0$ C@H0$ C@H0$ C@H0$ C@H0$ C@H0$ C@H0$ C@H0$ C@H0$ C@H0$ C@H0$ C@H0$ C@H0$ C@H0$ C@H0$ C@H0$ C@H0$ C@H0$ C@H0$ C@H0$ C@H0$ C@H0$ C@H0$ C@H0$ C@H0$ C@H0$ C@H0$ C@H0$ C@H0$ C@H0$ C@H0$ C@H0$ C@H0$ C@H0$ C@H0$ C@H0$ C@H0$ C@H0$ C@H0$ C@H0$ C@H0$ C@H0$ C@H0$ C@H0$ C@H0$ C@H0$ C@H0$ C@H0$ C@H0$ C@H0$ C@H0$ C@H0$ C@H0$ C@H0$ C@H0$ C@H0$ C@H0$ C@H0$ C@H0$ C@H0$ C@H0$ C@H0$ C@H0$ C@H0$ C@H0$ C@H0$ C@H0$ C@H0$ C@H0$ C@H0$ C@H0$ C@H0$ C@H0$ C@H0$ C@H0$ C@H0$ C@H0$ C@H0$ C@H0$ C@H0$ C@H0$ C@H0$ C@H0$ C@H0$ C@H0$ C@H0$ C@H0$ C@H0$ C@H0$ C@H0$ C@H0$ C@H0$ C@H0$ C@H0$ C@H0$ C@H0$ C@H0$ C@H0$ C@H0$ C@H0$ C@H0$ C@H0$ C@H0$ C@H0$ C@H0$ C@H0$ C@H0$ C@H0$ C@H0$ C@H0$ C@H0$ C@H0$ C@H0$ C@H0$ C@H0$ C@H0$ C@H0$ C@H0$ C@H0$ C@H0$ C@H0$ C@H0$ C@H0$ C@H0$ C@H0$ C@H0$ C@H0$ C@H0$ C@H0$ C@H0$ C@H0$ C@H0$ C@H0$ C@H0$ C@H0$ C@H0$ C@H0$ C@H0$ C@H0$ C@H0$ C@H0$ C@H0$ C@H0$ C@H0$ C@H0$ C@H0$ C@H0$ C@H0$ C@H0$ C@H0$ C@H0$ C@H0$ C@H0$ C@H0$ C@H0$ C@H0$ C@H0$ C@H0$ C@H0$ C@H0$ C@H0$ C@H0$ C@H0$ C@H0$ C@H0$ C@H0$ C@H0$ C@H0$ C@H0$ C@H0$ C@H0$ C@H0$ C@H0$ C@H0$ C@H0$ C@H0$ C@H0$ C@H0$                                                                                                                                                                                                                         E E E E E E E E E E E E E E E E E E E E E E E E E E E E E E E E E E E E E E E E E E E E E E E E E E E E E E E E E E E E E E E E E E E E E E E E E E E E E E E E E E E E E E E E E E E E E E E E                         @<E9 @<E9 @<E9 @<E9 @<E9 @<E9 @<E9 @<E9 @<E9 @<E9 @<E9 @<E9 @<E9 @<E9 @<E9 @<E9 @<E9 @<E9 @<E9 @<E9 @<E9 @<E9 @<E9 @<E9 @<E9 @<E9 @<E9 @<E9 @<E9 @<E9 @<E9 @<E9 @<E9 @<E9 @<E9 @<E9 @<E9 @<E9 @<E9 @<E9 @<E9 @<E9 @<E9 @<E9 @<E9 @<E9 @<E9 @<E9 @<E9 @<E9 @<E9 @<E9 @<E9 @<E9 @<E9 @<E9 @<E9 @<E9 @<E9 @<E9 @<E9 @<E9 @<E9 @<E9 @<E9 @<E9 @<E9 @<E9 @<E9 @<E9 @<E9 @<E9 @<E9 @<E9 @<E9 @<E9 @<E9 @<E9 @<E9 @<E9 @<E9 @<E9 @<E9 @<E9 @<E9 @<E9 @<E9 @<E9 @<E9 @<E9 @<E9 @<E9 @<E9 @<E9 @<E9 @<E9 @<E9 @<E9 @<E9 @<E9 @<E9 @<E9 @<E9 @<E9 @<E9 @<E9 @<E9 @<E9 @<E9 @<E9 @<E9 @<E9 @<E9 @<E9 @<E9 @<E9 @<E9 @<E9 @<E9 @<E9 @<E9 @<E9 @<E9 @<E9 @<E9 @<E9 @<E9 @<E9 @<E9 @<E9 @<E9 @<E9 @<E9 @<E9 @<E9 @<E9 @<E9 @<E9 @<E9 @<E9 @<E9 @<E9 @<E9 @<E9 @<E9 @<E9 @<E9 @<E9 @<E9 @<E9 @<E9 @<E9 @<E9 @<E9 @<E9 @<E9 @<E9 @<E9 @<E9 @<E9 @<E9 @<E9 @<E9 @<E9 @<E9 @<E9 @<E9 @<E9 @<E9 @<E9 @<E9 @<E9 @<E9 @<E9 @<E9 @<E9 @<E9 @<E9 @<E9 @<E9 @<E9 @<E9 @<E9 @<E9 @<E9 @<E9 @<E9 @<E9 @<E9 @<E9 @<E9 @<E9 @<E @<E @<E @<E @<E @<E @<E @<E @<E @<E @<E @<E @<E @<E @<E @<E @<E @<E @<E @<E @<E @<E @<E @<E @<E @<E @<E @<E @<E @<E @<E @<E @<E @<E @<E @<E @<E @<E @<E @<E @<E @<E @<E @<E @<E @<E @<E @<E @<E4 @<E4 @<E4 @<E4 @<E4 @<E4 @<E4 @<E4 @<E4 @<E4 @<E4 @<E4 @<E4 @<E4 @<E4 @<E4 @<E4 @<E4 @<E4 @<E4 @<E4 @<E4 @<E4 @<E4 @<E4 @<E4 @<E4 @<E4 @<E4 @<E4 @<E4 @<E4 @<E4 @<E4 @<E4 @<E4 @<E4 @<E4 @<E4 @<E4 @<E4 @<E4 @<E4 @<E4 @<E4 @<E4 @<E4 @<E4 4 4 4 4 4 4 4 4 4 4 4 4 4 4 4 4 4 4 4 4 4 4 4 4 4 4 4 4 4 4 4 4 4 4 4 4 4 4 4 4 4 4 4 4 4 4 4 4 4 4 4 4 4 4 4 4 4 4 4 4 4 4 4 4 4 4 4 4 4 4 4 4 G4 G4 G4 G4 G4 G4 G4 G4 G4 G4 G4 G4 G4 G4 G4 G4 G4 G4 G4 G4 G4 G4 G4 G4 G4 G4 G4 G4 G4 G4 G4 G4 G4 G4 G4 G4 G4 G4 G4 G4 G4 G4 G4 G4 G4 G4 G4 G4 G4 G4 G4 G4 G4 G4 G4 G4 G4 G4 G4 G4 G4 G4 G4 G4 G4 G4 G4 G4 G4 G4 G4 G4 G G G G G G G G G G G G G G G G G G G G G G G G                         H- H- H- H- H- H- H- H- H- H- H- H- H- H- H- H- H- H- H- H- H- H- H- H- H- H- H- H- H- H- H- H- H- H- H- H- H- H- H- H- H- H- H- H- H- H- H- H- H- H- H- H- H- H- H- H- H- H- H- H- H- H- H- H- H- H- H- H- H- H- H- H- H- H- H- H- H- H- H- H- H- H- H- H- H- H- H- H- H- H- H- H- H- H- H- H- - - - - - - - - - - - - - - - - - - - - - - - - J- J- J- J- J- J- J- J- J- J- J- J- J- J- J- J- J- J- J- J- J- J- J- J- J- J- J- J- J- J- J- J- J- J- J- J- J- J- J- J- J- J- J- J- J- J- J- J- J- J- J- J- J- J- J- J- J- J- J- J- J- J- J- J- J- J- J- J- J- J- J- J- J J J J J J J J J J J J J J J J J J J J J J J J                         L9 L9 L9 L9 L9 L9 L9 L9 L9 L9 L9 L9 L9 L9 L9 L9 L9 L9 L9 L9 L9 L9 L9 L9 L9 L9 L9 L9 L9 L9 L9 L9 L9 L9 L9 L9 L9 L9 L9 L9 L9 L9 L9 L9 L9 L9 L9 L9 L9 L9 L9 L9 L9 L9 L9 L9 L9 L9 L9 L9 L9 L9 L9 L9 L9 L9 L9 L9 L9 L9 L9 L9 L9 L9 L9 L9 L9 L9 L9 L9 L9 L9 L9 L9 L9 L9 L9 L9 L9 L9 L9 L9 L9 L9 L9 L9 9 9 9 9 9 9 9 9 9 9 9 9 9 9 9 9 9 9 9 9 9 9 9 9 M9 M9 M9 M9 M9 M9 M9 M9 M9 M9 M9 M9 M9 M9 M9 M9 M9 M9 M9 M9 M9 M9 M9 M9 M9 M9 M9 M9 M9 M9 M9 M9 M9 M9 M9 M9 M9 M9 M9 M9 M9 M9 M9 M9 M9 M9 M9 M9 M9 M9 M9 M9 M9 M9 M9 M9 M9 M9 M9 M9 M9 M9 M9 M9 M9 M9 M9 M9 M9 M9 M9 M9 M M M M M M M M M M M M M M M M M M M M M M M M                         L8 L8 L8 L8 L8 L8 L8 L8 L8 L8 L8 L8 L8 L8 L8 L8 L8 L8 L8 L8 L8 L8 L8 L8 L8 L8 L8 L8 L8 L8 L8 L8 L8 L8 L8 L8 L8 L8 L8 L8 L8 L8 L8 L8 L8 L8 L8 L8 L8 L8 L8 L8 L8 L8 L8 L8 L8 L8 L8 L8 L8 L8 L8 L8 L8 L8 L8 L8 L8 L8 L8 L8 L8 L8 L8 L8 L8 L8 L8 L8 L8 L8 L8 L8 L8 L8 L8 L8 L8 L8 L8 L8 L8 L8 L8 L8 8 8 8 8 8 8 8 8 8 8 8 8 8 8 8 8 8 8 8 8 8 8 8 8 J8 J8 J8 J8 J8 J8 J8 J8 J8 J8 J8 J8 J8 J8 J8 J8 J8 J8 J8 J8 J8 J8 J8 J8 J8 J8 J8 J8 J8 J8 J8 J8 J8 J8 J8 J8 J8 J8 J8 J8 J8 J8 J8 J8 J8 J8 J8 J8 J8 J8 J8 J8 J8 J8 J8 J8 J8 J8 J8 J8 J8 J8 J8 J8 J8 J8 J8 J8 J8 J8 J8 J8 J J J J J J J J J J J J J J J J J J J J J J J J                         H4 H4 H4 H4 H4 H4 H4 H4 H4 H4 H4 H4 H4 H4 H4 H4 H4 H4 H4 H4 H4 H4 H4 H4 H4 H4 H4 H4 H4 H4 H4 H4 H4 H4 H4 H4 H4 H4 H4 H4 H4 H4 H4 H4 H4 H4 H4 H4 H4 H4 H4 H4 H4 H4 H4 H4 H4 H4 H4 H4 H4 H4 H4 H4 H4 H4 H4 H4 H4 H4 H4 H4 H4 H4 H4 H4 H4 H4 H4 H4 H4 H4 H4 H4 H4 H4 H4 H4 H4 H4 H4 H4 H4 H4 H4 H4 4 4 4 4 4 4 4 4 4 4 4 4 4 4 4 4 4 4 4 4 4 4 4 4 G4 G4 G4 G4 G4 G4 G4 G4 G4 G4 G4 G4 G4 G4 G4 G4 G4 G4 G4 G4 G4 G4 G4 G4 G4 G4 G4 G4 G4 G4 G4 G4 G4 G4 G4 G4 G4 G4 G4 G4 G4 G4 G4 G4 G4 G4 G4 G4 G4 G4 G4 G4 G4 G4 G4 G4 G4 G4 G4 G4 G4 G4 G4 G4 G4 G4 G4 G4 G4 G4 G4 G4 G G G G G G G G G G G G G G G G G G G G G G G G                         H9 H9 H9 H9 H9 H9 H9 H9 H9 H9 H9 H9 H9 H9 H9 H9 H9 H9 H9 H9 H9 H9 H9 H9 9 9 9 9 9 9 J9 J9 J9 J9 J9 J9 J9 J9 J9 J9 J9 J9 J9 J9 J9 J9 J9 J9 J9 J9 J9 J9 J9 J9 9 9 9 9 9 9 H9 H9 H9 H9 H9 H9 H9 H9 H9 H9 H9 H9 H9 H9 H9 H9 H9 H9 H9 H9 H9 H9 H9 H9 H9 H9 H9 H9 H9 H9 H9 H9 H9 H9 H9 H9 H H H H H H H H H H H H H H H H H H H H H H H H H- H- H- H- H- H- H- H- H- H- H- H- H- H- H- H- H- H- H- H- H- H- H- H- H- H- H- H- H- H- H- H- H- H- H- H- H- H- H- H- H- H- H- H- H- H- H- H- H- H- H- H- H- H- H- H- H- H- H- H- H- H- H- H- H- H- H- H- H- H- H- H- H- H- H- H- H- H- H- H- H- H- H- H- H- H- H- H- H- H- H- H- H- H- H- H- H H H H H H H H H H H H H H H H H H H H H H H H H9 H9 H9 H9 H9 H9 H9 H9 H9 H9 H9 H9 H9 H9 H9 H9 H9 H9 H9 H9 H9 H9 H9 H9 H9 H9 H9 H9 H9 H9 H9 H9 H9 H9 H9 H9 H9 H9 H9 H9 H9 H9 H9 H9 H9 H9 H9 H9 H9 H9 H9 H9 H9 H9 H9 H9 H9 H9 H9 H9 H9 H9 H9 H9 H9 H9 H9 H9 H9 H9 H9 H9 9 9 9 9 9 9 9 9 9 9 9 9 9 9 9 9 9 9 9 9 9 9 9 9                         G; G; G; G; G; G; G; G; G; G; G; G; G; G; G; G; G; G; G; G; G; G; G; G; G; G; G; G; G; G; G; G; G; G; G; G; G; G; G; G; G; G; G; G; G; G; G; G; G; G; G; G; G; G; G; G; G; G; G; G; G; G; G; G; G; G; G; G; G; G; G; G; G; G; G; G; G; G; G; G; G; G; G; G; G; G; G; G; G; G; G; G; G; G; G; G;                         E< E< E< E< E< E< E< E< E< E< E< E< E< E< E< E< E< E< E< E< E< E< E< E< E< E< E< E< E< E< E< E< E< E< E< E< E< E< E< E< E< E< E< E< E< E< E< E< E< E< E< E< E< E< E< E< E< E< E< E< E< E< E< E< E< E< E< E< E< E< E< E< E< E< E< E< E< E< E< E< E< E< E< E< E< E< E< E< E< E< E< E< E< E< E< E< E E E E E E E E E E E E E E E E E E E E E E E E E> E> E> E> E> E> E> E> E> E> E> E> E> E> E> E> E> E> E> E> E> E> E> E> E> E> E> E> E> E> E> E> E> E> E> E> E> E> E> E> E> E> E> E> E> E> E> E> E> E> E> E> E> E> E> E> E> E> E> E> E> E> E> E> E> E> E> E> E> E> E> E> > > > > > > > > > > > > > > > > > > > > > > > >                         Q@ Q@ Q@ Q@ Q@ Q@ Q@ Q@ Q@ Q@ Q@ Q@ Q@ Q@ Q@ Q@ Q@ Q@ Q@ Q@ Q@ Q@ Q@ Q@ Q@ Q@ Q@ Q@ Q@ Q@ Q@ Q@ Q@ Q@ Q@ Q@ Q@ Q@ Q@ Q@ Q@ Q@ Q@ Q@ Q@ Q@ Q@ Q@ Q@ Q@ Q@ Q@ Q@ Q@ Q@ Q@ Q@ Q@ Q@ Q@ Q@ Q@ Q@ Q@ Q@ Q@ Q@ Q@ Q@ Q@ Q@ Q@ Q@ Q@ Q@ Q@ Q@ Q@ Q@ Q@ Q@ Q@ Q@ Q@ Q@ Q@ Q@ Q@ Q@ Q@ Q@ Q@ Q@ Q@ Q@ Q@ Q Q Q Q Q Q Q Q Q Q Q Q Q Q Q Q Q Q Q Q Q Q Q Q QA QA QA QA QA QA QA QA QA QA QA QA QA QA QA QA QA QA QA QA QA QA QA QA QA QA QA QA QA QA QA QA QA QA QA QA QA QA QA QA QA QA QA QA QA QA QA QA QA QA QA QA QA QA QA QA QA QA QA QA QA QA QA QA QA QA QA QA QA QA QA QA A A A A A A A A A A A A A A A A A A A A A A A A                         P@ P@ P@ P@ P@ P@ P@ P@ P@ P@ P@ P@ P@ P@ P@ P@ P@ P@ P@ P@ P@ P@ P@ P@ @ @ @ @ @ @ N@ N@ N@ N@ N@ N@ N@ N@ N@ N@ N@ N@ N@ N@ N@ N@ N@ N@ N@ N@ N@ N@ N@ N@ @ @ @ @ @ @ P@ P@ P@ P@ P@ P@ P@ P@ P@ P@ P@ P@ P@ P@ P@ P@ P@ P@ P@ P@ P@ P@ P@ P@ P@ P@ P@ P@ P@ P@ P@ P@ P@ P@ P@ P@ P P P P P P P P P P P P P P P P P P P P P P P P P> P> P> P> P> P> P> P> P> P> P> P> P> P> P> P> P> P> P> P> P> P> P> P> P> P> P> P> P> P> P> P> P> P> P> P> P> P> P> P> P> P> P> P> P> P> P> P> P> P> P> P> P> P> P> P> P> P> P> P> P> P> P> P> P> P> P> P> P> P> P> P> P> P> P> P> P> P> P> P> P> P> P> P> P> P> P> P> P> P> P> P> P> P> P> P> P P P P P P P P P P P P P P P P P P P P P P P P P< P< P< P< P< P< P< P< P< P< P< P< P< P< P< P< P< P< P< P< P< P< P< P< P< P< P< P< P< P< P< P< P< P< P< P< P< P< P< P< P< P< P< P< P< P< P< P< P< P< P< P< P< P< P< P< P< P< P< P< P< P< P< P< P< P< P< P< P< P< P< P< P< P< P< P< P< P< P< P< P< P< P< P< P< P< P< P< P< P< P< P< P< P< P< P< P P P P P P P P P                Q; Q; Q; Q; Q; Q; Q; Q; Q; Q; Q; Q; Q; Q; Q; Q; Q; Q; Q; Q; Q; Q; Q; Q; Q; Q; Q; Q; Q; Q; Q; Q; Q; Q; Q; Q; Q; Q; Q; Q; Q; Q; Q; Q; Q; Q; Q; Q; Q; Q; Q; Q; Q; Q; Q; Q; Q; Q; Q; Q; Q; Q; Q; Q; Q; Q; Q; Q; Q; Q; Q; Q; Q; Q; Q; Q; Q; Q; Q; Q; Q; Q; Q; Q; Q; Q; Q; Q; Q; Q; Q; Q; Q; Q; Q; Q;                         L< L< L< L< L< L< L< L< L< L< L< L< L< L< L< L< L< L< L< L< L< L< L< L< L< L< L< L< L< L< L< L< L< L< L< L< L< L< L< L< L< L< L< L< L< L< L< L< L< L< L< L< L< L< L< L< L< L< L< L< L< L< L< L< L< L< L< L< L< L< L< L< L< L< L< L< L< L< L< L< L< L< L< L< L< L< L< L< L< L< L< L< L< L< L< L< L< L< L< L< L< L< L< L< L< L< L< L< L< L< L< L< L< L< L< L< L< L< L< L< @L< @L< @L< @L< @L< @L< @L< @L< @L< @L< @L< @L< @L< @L< @L< @L< @L< @L< @L< @L< @L< @L< @L< @L< @L< @L< @L< @L< @L< @L< @L< @L< @L< @L< @L< @L< @L< @L< @L< @L< @L< @L< @L< @L< @L< @L< @L< @L< @L< @L< @L< @L< @L< @L< @L< @L< @L< @L< @L< @L< @L< @L< @L< @L< @L< @L< @L< @L< @L< @L< @L< @L< @L< @L< @L< @L< @L< @L< @L< @L< @L< @L< @L< @L< @L< @L< @L< @L< @L< @L< @L< @L< @L< @L< @L< @L< L< L< L< L< L< L< L< L< L< L< L< L< L< L< L< L< L< L< L< L< L< L< L< L< LE< LE< LE< LE< LE< LE< LE< LE< LE< LE< LE< LE< LE< LE< LE< LE< LE< LE< LE< LE< LE< LE< LE< LE< LE< LE< LE< LE< LE< LE< LE< LE< LE< LE< LE< LE< LE< LE< LE< LE< LE< LE< LE< LE< LE< LE< LE< LE< E E E E E E E E E E E E E E E E E E E E E E E E E E E E E E E E E E E E E E E E E E E E E E E E E E E E E E E E E E E E E E E E E E E E E E E E OE= OE= OE= OE= OE= OE= OE= OE= OE= OE= OE= OE= OE= OE= OE= OE= OE= OE= OE= OE= OE= OE= OE= OE= OE= OE= OE= OE= OE= OE= OE= OE= OE= OE= OE= OE= OE= OE= OE= OE= OE= OE= OE= OE= OE= OE= OE= OE= OE= OE= OE= OE= OE= OE= OE= OE= OE= OE= OE= OE= OE= OE= OE= OE= OE= OE= OE= OE= OE= OE= OE= OE= OE= OE= OE= OE= OE= OE= OE= OE= OE= OE= OE= OE= OE= OE= OE= OE= OE= OE= OE= OE= OE= OE= OE= OE= E E E E E E E E E E E E E E E E E E E E E E E E ME> ME> ME> ME> ME> ME> ME> ME> ME> ME> ME> ME> ME> ME> ME> ME> ME> ME> ME> ME> ME> ME> ME> ME> ME> ME> ME> ME> ME> ME> ME> ME> ME> ME> ME> ME> ME> ME> ME> ME> ME> ME> ME> ME> ME> ME> ME> ME> ME> ME> ME> ME> ME> ME> ME> ME> ME> ME> ME> ME> ME> ME> ME> ME> ME> ME> ME> ME> ME> ME> ME> ME> ME> ME> ME> ME> ME> ME> ME> ME> ME> ME> ME> ME> ME> ME> ME> ME> ME> ME> ME> ME> ME> ME> ME> ME> E> E> E> E> E> E> E> E> E> E> E> E> E> E> E> E> E> E> E> E> E> E> E> E> EL> EL> EL> EL> EL> EL> EL> EL> EL> EL> EL> EL> EL> EL> EL> EL> EL> EL> EL> EL> EL> EL> EL> EL> L> L> L> L> L> L> L> L> L> L> L> L> L> L> L> L> L> L> L> L> L> L> L> L> L> L> L> L> L> L> L> L> L> L> L> L> L> L> L> L> L> L> L> L> L> L> L> L> L L L L L L L L L L L L L L L L L L L L L L L L                         JD; JD; JD; JD; JD; JD; JD; JD; JD; JD; JD; JD; JD; JD; JD; JD; JD; JD; JD; JD; JD; JD; JD; JD; JD; JD; JD; JD; JD; JD; JD; JD; JD; JD; JD; JD; JD; JD; JD; JD; JD; JD; JD; JD; JD; JD; JD; JD; JD; JD; JD; JD; JD; JD; JD; JD; JD; JD; JD; JD; JD; JD; JD; JD; JD; JD; JD; JD; JD; JD; JD; JD; JD; JD; JD; JD; JD; JD; JD; JD; JD; JD; JD; JD; JD; JD; JD; JD; JD; JD; JD; JD; JD; JD; JD; JD; D; D; D; D; D; D; D; D; D; D; D; D; D; D; D; D; D; D; D; D; D; D; D; D; DM; DM; DM; DM; DM; DM; DM; DM; DM; DM; DM; DM; DM; DM; DM; DM; DM; DM; DM; DM; DM; DM; DM; DM; DM; DM; DM; DM; DM; DM; DM; DM; DM; DM; DM; DM; DM; DM; DM; DM; DM; DM; DM; DM; DM; DM; DM; DM; DM; DM; DM; DM; DM; DM; DM; DM; DM; DM; DM; DM; DM DM DM DM DM DM DM DM DM DM DM DM M M M M M M M M M M M M M M M M M M M M M M M M                         LE< LE< LE< LE< LE< LE< LE< LE< LE< LE< LE< LE< LE< LE< LE< LE< LE< LE< LE< LE< LE< LE< LE< LE< LE< LE< LE< LE< LE< LE< LE< LE< LE< LE< LE< LE< LE< LE< LE< LE< LE< LE< LE< LE< LE< LE< LE< LE< LE< LE< LE< LE< LE< LE< LE< LE< LE< LE< LE< LE< LE< LE< LE< LE< LE< LE< LE< LE< LE< LE< LE< LE< LE< LE< LE< LE< LE< LE< LE< LE< LE< LE< LE< LE< LE< LE< LE< LE< LE< LE< LE< LE< LE< LE< LE< LE< E< E< E< E< E< E< E< E< E< E< E< E< E< E< E< E< E< E< E< E< E< E< E< E< JE< JE< JE< JE< JE< JE< JE< JE< JE< JE< JE< JE< JE< JE< JE< JE< JE< JE< JE< JE< JE< JE< JE< JE< JE< JE< JE< JE< JE< JE< JE< JE< JE< JE< JE< JE< JE< JE< JE< JE< JE< JE< JE< JE< JE< JE< JE< JE< JE< JE< JE< JE< JE< JE< JE< JE< JE< JE< JE< JE< JE JE JE JE JE JE JE JE JE JE JE JE JE JE JE JE JE JE JE JE JE JE JE JE JE JE JE JE JE JE JE JE JE JE JE JE E E E E E E E E E E E E E E E E E E E E E E E E LE> LE> LE> LE> LE> LE> LE> LE> LE> LE> LE> LE> LE> LE> LE> LE> LE> LE> LE> LE> LE> LE> LE> LE> LE> LE> LE> LE> LE> LE> LE> LE> LE> LE> LE> LE> LE> LE> LE> LE> LE> LE> LE> LE> LE> LE> LE> LE> LE> LE> LE> LE> LE> LE> LE> LE> LE> LE> LE> LE> LE> LE> LE> LE> LE> LE> LE> LE> LE> LE> LE> LE> LE> LE> LE> LE> LE> LE> LE> LE> LE> LE> LE> LE> LE> LE> LE> LE> LE> LE> LE> LE> LE> LE> LE> LE> E> E> E> E> E> E> E> E> E> E> E> E> E> E> E> E> E> E> E> E> E> E> E> E> EM> EM> EM> EM> EM> EM> EM> EM> EM> EM> EM> EM> EM> EM> EM> EM> EM> EM> EM> EM> EM> EM> EM> EM> M> M> M> M> M> M> M> M> M> M> M> M> M> M> M> M> M> M> M> M> M> M> M> M> M> M> M> M> M> M> M> M> M> M> M> M> M M M M M M M M M M M M M M M M M M M M M M M M M M M M M M M M M M M M                         H@ H@ H@ H@ H@ H@ H@ H@ H@ H@ H@ H@ H@ H@ H@ H@ H@ H@ H@ H@ H@ H@ H@ H@ H@ H@ H@ H@ H@ H@ H@ H@ H@ H@ H@ H@ H@ H@ H@ H@ H@ H@ H@ H@ H@ H@ H@ H@ @ @ @ @ @ @ @ @ @ @ @ @ G@ G@ G@ G@ G@ G@ G@ G@ G@ G@ G@ G@ G@ G@ G@ G@ G@ G@ G@ G@ G@ G@ G@ G@ G@ G@ G@ G@ G@ G@ G@ G@ G@ G@ G@ G@ G@ G@ G@ G@ G@ G@ G@ G@ G@ G@ G@ G@ G@ G@ G@ G@ G@ G@ G@ G@ G@ G@ G@ G@ EG@ EG@ EG@ EG@ EG@ EG@ EG@ EG@ EG@ EG@ EG@ EG@ EG@ EG@ EG@ EG@ EG@ EG@ EG@ EG@ EG@ EG@ EG@ EG@ EG@ EG@ EG@ EG@ EG@ EG@ EG@ EG@ EG@ EG@ EG@ EG@ EG@ EG@ EG@ EG@ EG@ EG@ EG@ EG@ EG@ EG@ EG@ EG@ EG@ EG@ EG@ EG@ EG@ EG@ EG@ EG@ EG@ EG@ EG@ EG@ EG@ EG@ EG@ EG@ EG@ EG@ EG@ EG@ EG@ EG@ EG@ EG@ EG@ EG@ EG@ EG@ EG@ EG@ EG@ EG@ EG@ EG@ EG@ EG@ EG@ EG@ EG@ EG@ EG@ EG@ EG@ EG@ EG@ EG@ EG@ EG@ G@ G@ G@ G@ G@ G@ G@ G@ G@ G@ G@ G@ G@ G@ G@ G@ G@ G@ G@ G@ G@ G@ G@ G@ DG@ DG@ DG@ DG@ DG@ DG@ DG@ DG@ DG@ DG@ DG@ DG@ DG@ DG@ DG@ DG@ DG@ DG@ DG@ DG@ DG@ DG@ DG@ DG@ DG@ DG@ DG@ DG@ DG@ DG@ DG@ DG@ DG@ DG@ DG@ DG@ DG@ DG@ DG@ DG@ DG@ DG@ DG@ DG@ DG@ DG@ DG@ DG@ DG DG DG DG DG DG DG DG DG DG DG DG DG DG DG DG DG DG DG DG DG DG DG DG DG DG DG DG DG DG DG DG DG DG DG DG DG DG DG DG DG DG DG DG DG DG DG DG DG DG DG DG DG DG DG DG DG DG DG DG DG DG DG DG DG DG DG DG DG DG DG DG DG@ DG@ DG@ DG@ DG@ DG@ DG@ DG@ DG@ DG@ DG@ DG@ DG@ DG@ DG@ DG@ DG@ DG@ DG@ DG@ DG@ DG@ DG@ DG@ DG@ DG@ DG@ DG@ DG@ DG@ DG@ DG@ DG@ DG@ DG@ DG@ DG@ DG@ DG@ DG@ DG@ DG@ DG@ DG@ DG@ DG@ DG@ DG@ DG@ DG@ DG@ DG@ DG@ DG@ DG@ DG@ DG@ DG@ DG@ DG@ DG@ DG@ DG@ DG@ DG@ DG@ DG@ DG@ DG@ DG@ DG@ DG@ @ @ @ @ @ @ @ @ @ @ @ @ @ @ @ @ @ @ @ @ @ @ @ @                         > > > > > > > > > > > > > > > > > > > > > > > > > > > > > > > > > > > > > > > > > > > > > > > > > > > > > > > > > > > > > > > > > > > > > > > > > > > > > > > > > > > > > > > > > > > > > > > >                         < < < < < < < < < < < < < < < < < < < < < < < < < < < < < < < < < < < < < < < < < < < < < < < < < < < < < < < < < < < < < < < < < < < < < < < < < < < < < < < < < < < < < < < < < < < < < < < <                         D; D; D; D; D; D; D; D; D; D; D; D; D; D; D; D; D; D; D; D; D; D; D; D; D; D; D; D; D; D; D; D; D; D; D; D; D; D; D; D; D; D; D; D; D; D; D; D; D; D; D; D; D; D; D; D; D; D; D; D; D; D; D; D; D; D; D; D; D; D; D; D; D; D; D; D; D; D; D; D; D; D; D; D; D; D; D; D; D; D; D; D; D; D; D; D;                         E> E> E> E> E> E> E> E> E> E> E> E> E> E> E> E> E> E> E> E> E> E> E> E> E> E> E> E> E> E> E> E> E> E> E> E> E> E> E> E> E> E> E> E> E> E> E> E> E> E> E> E> E> E> E> E> E> E> E> E> E> E> E> E> E> E> E> E> E> E> E> E> E> E> E> E> E> E> E> E> E> E> E> E> E> E> E> E> E> E> E> E> E> E> E> E>                         G< G< G< G< G< G< G< G< G< G< G< G< G< G< G< G< G< G< G< G< G< G< G< G< < < < < < < E< E< E< E< E< E< E< E< E< E< E< E< E< E< E< E< E< E< E< E< E< E< E< E< < < < < < < G< G< G< G< G< G< G< G< G< G< G< G< G< G< G< G< G< G< G< G< G< G< G< G< G< G< G< G< G< < E< E< E< E< E< E< E E E E E E E E E E E E E E E E E E       G; G; G; G; G; G; G; G; G; G; G; G; G; G; G; G; G; G; G; G; G; G; G; G; ; ; ; ; ; ; E; E; E; E; E; E; E; E; E; E; E; E; E; E; E; E; E; E; E; E; E; E; E; E; ; ; ; ; ; ; G; G; G; G; G; G; G; G; G; G; G; G; G; G; G; G; G; G; G; G; G; G; G; G; ; ; ; ; ; ; E; E; E; E; E; E; E E E E E E E E E E E E E E E E E E       G< G< G< G< G< G< G< G< G< G< G< G< G< G< G< G< G< G< G< G< G< G< G< G< < < < < < < E< E< E< E< E< E< E< E< E< E< E< E< E< E< E< E< E< E< E< E< E< E< E< E< < < < < < < G< G< G< G< G< G< G< G< G< G< G< G< G< G< G< G< G< G< G< G< G< G< G< G< < < < < < < E< E< E< E< E< E< E E E E E E E E E E E E E E E E E E       D> D> D> D> D> D> D> D> D> D> D> D> D> D> D> D> D> D> D> D> D> D> D> D> D> D> D> D> D> D> D> D> D> D> D> D> D> D> D> D> D> D> D> D> D> D> D> D> > > > > > > > > > > > > E> E> E> E> E> E> E> E> E> E> E> E> E> E> E> E> E> E> E> E> E> E> E> E> E> E> E> E> E> E> E> E> E> E> E> E> E E E E E E E E E E E E             G8 G8 G8 G8 G8 G8 G8 G8 G8 G8 G8 G8 G8 G8 G8 G8 G8 G8 G8 G8 G8 G8 G8 G8 G8 G8 G8 G8 G8 G8 G8 G8 G8 G8 G8 G8 G8 G8 G8 G8 G8 G8 G8 G8 G8 G8 G8 G8 G8 G8 G8 G8 G8 G8 G8 G8 G8 G8 G8 G8 G8 G8 G8 G8 G8 G8 G8 G8 G8 G8 G8 G8 G8 G8 G8 G8 G8 G8 G8 G8 G8 G8 G8 G8 G8 G8 G8 G8 G8 G8 G8 G8 G8 G8 G8 G8 G G G G G G G G G G G G G G G G G G G G G G G G G; G; G; G; G; G; G; G; G; G; G; G; G; G; G; G; G; G; G; G; G; G; G; G; G; G; G; G; G; G; G; G; G; G; G; G; G; G; G; G; G; G; G; G; G; G; G; G; G; G; G; G; G; G; G; G; G; G; G; G; G; G; G; G; G; G; G; G; G; G; G; G; G; G; G; G; G; G; G; G; G; G; G; G; G; G; G; G; G; G; G; G; G; G; G; G; G G G G G G G G G G G G G G G G G G G G G G G G G9 G9 G9 G9 G9 G9 G9 G9 G9 G9 G9 G9 G9 G9 G9 G9 G9 G9 G9 G9 G9 G9 G9 G9 G9 G9 G9 G9 G9 G9 G9 G9 G9 G9 G9 G9 G9 G9 G9 G9 G9 G9 G9 G9 G9 G9 G9 G9 9 9 9 9 9 9 9 9 9 9 9 9 9 9 9 9 9 9 9 9 9 9 9 9 9 9 9 9 9 9 9 9 9 9 9 9 9 9 9 9 9 9 9 9 9 9 9 9                         H8 H8 H8 H8 H8 H8 H8 H8 H8 H8 H8 H8 H8 H8 H8 H8 H8 H8 H8 H8 H8 H8 H8 H8 H8 H8 H8 H8 H8 H8 H8 H8 H8 H8 H8 H8 H8 H8 H8 H8 H8 H8 H8 H8 H8 H8 H8 H8 H8 H8 H8 H8 H8 H8 H8 H8 H8 H8 H8 H8 H8 H8 H8 H8 H8 H8 H8 H8 H8 H8 H8 H8 H8 H8 H8 H8 H8 H8 H8 H8 H8 H8 H8 H8 H8 H8 H8 H8 H8 H8 H8 H8 H8 H8 H8 H8                         J6 J6 J6 J6 J6 J6 J6 J6 J6 J6 J6 J6 J6 J6 J6 J6 J6 J6 J6 J6 J6 J6 J6 J6 J6 J6 J6 J6 J6 J6 J6 J6 J6 J6 J6 J6 J6 J6 J6 J6 J6 J6 J6 J6 J6 J6 J6 J6 J6 J6 J6 J6 J6 J6 J6 J6 J6 J6 J6 J6 J6 J6 J6 J6 J6 J6 J6 J6 J6 J6 J6 J6 J6 J6 J6 J6 J6 J6 J6 J6 J6 J6 J6 J6 J6 J6 J6 J6 J6 J6 J6 J6 J6 J6 J6 J6                         G4 G4 G4 G4 G4 G4 G4 G4 G4 G4 G4 G4 G4 G4 G4 G4 G4 G4 G4 G4 G4 G4 G4 G4 G4 G4 G4 G4 G4 G4 G4 G4 G4 G4 G4 G4 G4 G4 G4 G4 G4 G4 G4 G4 G4 G4 G4 G4 G4 G4 G4 G4 G4 G4 G4 G4 G4 G4 G4 G4 G4 G4 G4 G4 G4 G4 G4 G4 G4 G4 G4 G4 G4 G4 G4 G4 G4 G4 G4 G4 G4 G4 G4 G4 G4 G4 G4 G4 G4 G4 G4 G4 G4 G4 G4 G4                         H9 H9 H9 H9 H9 H9 H9 H9 H9 H9 H9 H9 H9 H9 H9 H9 H9 H9 H9 H9 H9 H9 H9 H9 H9 H9 H9 H9 H9 H9 H9 H9 H9 H9 H9 H9 H9 H9 H9 H9 H9 H9 H9 H9 H9 H9 H9 H9 H9 H9 H9 H9 H9 H9 H9 H9 H9 H9 H9 H9 H9 H9 H9 H9 H9 H9 H9 H9 H9 H9 H9 H9 H9 H9 H9 H9 H9 H9 H9 H9 H9 H9 H9 H9 H9 H9 H9 H9 H9 H9 H9 H9 H9 H9 H9 H9                         J7 J7 J7 J7 J7 J7 J7 J7 J7 J7 J7 J7 J7 J7 J7 J7 J7 J7 J7 J7 J7 J7 J7 J7 J7 J7 J7 J7 J7 J7 J7 J7 J7 J7 J7 J7 J7 J7 J7 J7 J7 J7 J7 J7 J7 J7 J7 J7 J7 J7 J7 J7 J7 J7 J7 J7 J7 J7 J7 J7 J7 J7 J7 J7 J7 J7 J7 J7 J7 J7 J7 J7 J7 J7 J7 J7 J7 J7 J7 J7 J7 J7 J7 J7 J7 J7 J7 J7 J7 J7 J7 J7 J7 J7 J7 J7                         L5 L5 L5 L5 L5 L5 L5 L5 L5 L5 L5 L5 L5 L5 L5 L5 L5 L5 L5 L5 L5 L5 L5 L5 L5 L5 L5 L5 L5 5 J5 J5 J5 J5 J5 J5 J5 J5 J5 J5 J5 J5 J5 J5 J5 J5 J5 J5 J5 J5 J5 J5 J5 J5 J5 J5 J5 J5 J5 5 L5 L5 L5 L5 L5 L5 L5 L5 L5 L5 L5 L5 L5 L5 L5 L5 L5 L5 L5 L5 L5 L5 L5 L5 L5 L5 L5 L5 L5 5 J5 J5 J5 J5 J5 J5 J J J J J J J J J J J J J J J J J J J J J J J  L4 L4 L4 L4 L4 L4 L4 L4 L4 L4 L4 L4 L4 L4 L4 L4 L4 L4 L4 L4 L4 L4 L4 L4 4 4 4 4 4 4 J4 J4 J4 J4 J4 J4 J4 J4 J4 J4 J4 J4 J4 J4 J4 J4 J4 J4 J4 J4 J4 J4 J4 J4 4 4 4 4 4 4 L4 L4 L4 L4 L4 L4 L4 L4 L4 L4 L4 L4 L4 L4 L4 L4 L4 L4 L4 L4 L4 L4 L4 L4 4 4 4 4 4 4 J4 J4 J4 J4 J4 J4 J J J J J J J J J J J J J J J J J J       L5 L5 L5 L5 L5 L5 L5 L5 L5 L5 L5 L5 L5 L5 L5 L5 L5 L5 L5 L5 L5 L5 L5 L5 5 5 5 5 5 5 J5 J5 J5 J5 J5 J5 J5 J5 J5 J5 J5 J5 J5 J5 J5 J5 J5 J5 J5 J5 J5 J5 J5 J5 5 5 5 5 5 5 L5 L5 L5 L5 L5 L5 L5 L5 L5 L5 L5 L5 L5 L5 L5 L5 L5 L5 L5 L5 L5 L5 L5 L5 5 5 5 5 5 5 J5 J5 J5 J5 J5 J5 J J J J J J J J J J J J J J J J J J       H7 H7 H7 H7 H7 H7 H7 H7 H7 H7 H7 H7 H7 H7 H7 H7 H7 H7 H7 H7 H7 H7 H7 H7 H7 H7 H7 H7 H7 H7 H7 H7 H7 H7 H7 H7 H7 H7 H7 H7 H7 H7 H7 H7 H7 H7 H7 H7 7 7 7 7 7 7 7 7 7 7 7 7 J7 J7 J7 J7 J7 J7 J7 J7 J7 J7 J7 J7 J7 J7 J7 J7 J7 J7 J7 J7 J7 J7 J7 J7 J7 J7 J7 J7 J7 J7 J7 J7 J7 J7 J7 J7 J J J J J J J J J J J J             L0 L0 L0 L0 L0 L0 L0 L0 L0 L0 L0 L0 L0 L0 L0 L0 L0 L0 L0 L0 L0 L0 L0 L0 L0 L0 L0 L0 L0 L0 L0 L0 L0 L0 L0 L0 L0 L0 L0 L0 L0 L0 L0 L0 L0 L0 L0 L0 L0 L0 L0 L0 L0 L0 L0 L0 L0 L0 L0 L0 L0 L0 L0 L0 L0 L0 L0 L0 L0 L0 L0 L0 L0 L0 L0 L0 L0 L0 L0 L0 L0 L0 L0 L0 L0 L0 L0 L0 L0 L0 L0 L0 L0 L0 L0 L0 L L L L L L L L L L L L L L L L L L L L L L L L L5 L5 L5 L5 L5 L5 L5 L5 L5 L5 L5 L5 L5 L5 L5 L5 L5 L5 L5 L5 L5 L5 L5 L5 L5 L5 L5 L5 L5 L5 L5 L5 L5 L5 L5 L5 L5 L5 L5 L5 L5 L5 L5 L5 L5 L5 L5 L5 L5 L5 L5 L5 L5 L5 L5 L5 L5 L5 L5 L5 L5 L5 L5 L5 L5 L5 L5 L5 L5 L5 L5 L5 L5 L5 L5 L5 L5 L5 L5 L5 L5 L5 L5 L5 L5 L5 L5 L5 L5 L5 L5 L5 L5 L5 L5 L5 L L L L L L L L L L L L L L L L L L L L L L L L L4 L4 L4 L4 L4 L4 L4 L4 L4 L4 L4 L4 L4 L4 L4 L4 L4 L4 L4 L4 L4 L4 L4 L4 L4 L4 L4 L4 L4 L4 L4 L4 L4 L4 L4 L4 L4 L4 L4 L4 L4 L4 L4 L4 L4 L4 L4 L4 4 4 4 4 4 4 4 4 4 4 4 4 4 4 4 4 4 4 4 4 4 4 4 4 4 4 4 4 4 4 4 4 4 4 4 4 4 4 4 4 4 4 4 4 4 4 4 4                         M2 M2 M2 M2 M2 M2 M2 M2 M2 M2 M2 M2 M2 M2 M2 M2 M2 M2 M2 M2 M2 M2 M2 M2 M2 M2 M2 M2 M2 M2 M2 M2 M2 M2 M2 M2 M2 M2 M2 M2 M2 M2 M2 M2 M2 M2 M2 M2 M2 M2 M2 M2 M2 M2 M2 M2 M2 M2 M2 M2 M2 M2 M2 M2 M2 M2 M2 M2 M2 M2 M2 M2 M2 M2 M2 M2 M2 M2 M2 M2 M2 M2 M2 M2 M2 M2 M2 M2 M2 M2 M2 M2 M2 M2 M2 M2                         O0 O0 O0 O0 O0 O0 O0 O0 O0 O0 O0 O0 O0 O0 O0 O0 O0 O0 O0 O0 O0 O0 O0 O0 O0 O0 O0 O0 O0 O0 O0 O0 O0 O0 O0 O0 O0 O0 O0 O0 O0 O0 O0 O0 O0 O0 O0 O0 O0 O0 O0 O0 O0 O0 O0 O0 O0 O0 O0 O0 O0 O0 O0 O0 O0 O0 O0 O0 O0 O0 O0 O0 O0 O0 O0 O0 O0 O0 O0 O0 O0 O0 O0 O0 O0 O0 O0 O0 O0 O0 O0 O0 O0 O0 O0 O0                         L. L. L. L. L. L. L. L. L. L. L. L. L. L. L. L. L. L. L. L. L. L. L. L. L. L. L. L. L. L. L. L. L. L. L. L. L. L. L. L. L. L. L. L. L. L. L. L. L. L. L. L. L. L. L. L. L. L. L. L. L. L. L. L. L. L. L. L. L. L. L. L. L. L. L. L. L. L. L. L. L. L. L. L. L. L. L. L. L. L. L. L. L. L. L. L.                         M- M- M- M- M- M- M- M- M- M- M- M- M- M- M- M- M- M- M- M- M- M- M- M- M- M- M- M- M- M- M- M- M- M- M- M- M- M- M- M- M- M- M- M- M- M- M- M- M- M- M- M- M- M- M- M- M- M- M- M- M- M- M- M- M- M- M- M- M- M- M- M- M- M- M- M- M- M- M- M- M- M- M- M- M- M- M- M- M- M- M- M- M- M- M- M-                         O0 O0 O0 O0 O0 O0 O0 O0 O0 O0 O0 O0 O0 O0 O0 O0 O0 O0 O0 O0 O0 O0 O0 O0 O0 O0 O0 O0 O0 O0 O0 O0 O0 O0 O0 O0 O0 O0 O0 O0 O0 O0 O0 O0 O0 O0 O0 O0 O0 O0 O0 O0 O0 O0 O0 O0 O0 O0 O0 O0 O0 O0 O0 O0 O0 O0 O0 O0 O0 O0 O0 O0 O0 O0 O0 O0 O0 O0 O0 O0 O0 O0 O0 O0 O0 O0 O0 O0 O0 O0 O0 O0 O0 O0 O0 O0                         Q. Q. Q. Q. Q. Q. Q. Q. Q. Q. Q. Q. Q. Q. Q. Q. Q. Q. Q. Q. Q. Q. Q. Q. Q. Q. Q. Q. Q. . O. O. O. O. O. O. O. O. O. O. O. O. O. O. O. O. O. O. O. O. O. O. O. O. O. O. O. O. O. . Q. Q. Q. Q. Q. Q. Q. Q. Q. Q. Q. Q. Q. Q. Q. Q. Q. Q. Q. Q. Q. Q. Q. Q. Q. Q. Q. Q. Q. . O. O. O. O. O. O. O O O O O O O O O O O O O O O O O O O O O O O  Q- Q- Q- Q- Q- Q- Q- Q- Q- Q- Q- Q- Q- Q- Q- Q- Q- Q- Q- Q- Q- Q- Q- Q- - - - - - - O- O- O- O- O- O- O- O- O- O- O- O- O- O- O- O- O- O- O- O- O- O- O- O- - - - - - - Q- Q- Q- Q- Q- Q- Q- Q- Q- Q- Q- Q- Q- Q- Q- Q- Q- Q- Q- Q- Q- Q- Q- Q- - - - - - - O- O- O- O- O- O- O O O O O O O O O O O O O O O O O O       Q. Q. Q. Q. Q. Q. Q. Q. Q. Q. Q. Q. Q. Q. Q. Q. Q. Q. Q. Q. Q. Q. Q. Q. . . . . . . O. O. O. O. O. O. O. O. O. O. O. O. O. O. O. O. O. O. O. O. O. O. O. O. . . . . . . Q. Q. Q. Q. Q. Q. Q. Q. Q. Q. Q. Q. Q. Q. Q. Q. Q. Q. Q. Q. Q. Q. Q. Q. . . . . . . O. O. O. O. O. O. O O O O O O O O O O O O O O O O O O       M0 M0 M0 M0 M0 M0 M0 M0 M0 M0 M0 M0 M0 M0 M0 M0 M0 M0 M0 M0 M0 M0 M0 M0 M0 M0 M0 M0 M0 M0 M0 M0 M0 M0 M0 M0 M0 M0 M0 M0 M0 M0 M0 M0 M0 M0 M0 M0 0 0 0 0 0 0 0 0 0 0 0 0 O0 O0 O0 O0 O0 O0 O0 O0 O0 O0 O0 O0 O0 O0 O0 O0 O0 O0 O0 O0 O0 O0 O0 O0 O0 O0 O0 O0 O0 O0 O0 O0 O0 O0 O0 O0 O O O O O O O O O O O O             Q) Q) Q) Q) Q) Q) Q) Q) Q) Q) Q) Q) Q) Q) Q) Q) Q) Q) Q) Q) Q) Q) Q) Q) Q) Q) Q) Q) Q) Q) Q) Q) Q) Q) Q) Q) Q) Q) Q) Q) Q) Q) Q) Q) Q) Q) Q) Q) Q) Q) Q) Q) Q) Q) Q) Q) Q) Q) Q) Q) Q) Q) Q) Q) Q) Q) Q) Q) Q) Q) Q) Q) Q) Q) Q) Q) Q) Q) Q) Q) Q) Q) Q) Q) Q) Q) Q) Q) Q) Q) Q) Q) Q) Q) Q) Q) ) ) ) ) ) ) ) ) ) ) ) ) ) ) ) ) ) ) ) ) ) ) ) ) R) R) R) R) R) R) R) R) R) R) R) R) R) R) R) R) R) R) R) R) R) R) R) R) R) R) R) R) R) R) R) R) R) R) R) R) R) R) R) R) R) R) R) R) R) R) R) R) R) R) R) R) R) R) R) R) R) R) R) R) R) R) R) R) R) R) R) R) R) R) R) R) R R R R R R R R R R R R R R R R R R R R R R R R                         Q5 Q5 Q5 Q5 Q5 Q5 Q5 Q5 Q5 Q5 Q5 Q5 Q5 Q5 Q5 Q5 Q5 Q5 Q5 Q5 Q5 Q5 Q5 Q5 Q5 Q5 Q5 Q5 Q5 Q5 Q5 Q5 Q5 Q5 Q5 Q5 Q5 Q5 Q5 Q5 Q5 Q5 Q5 Q5 Q5 Q5 Q5 Q5 Q5 Q5 Q5 Q5 Q5 Q5 Q5 Q5 Q5 Q5 Q5 Q5 Q5 Q5 Q5 Q5 Q5 Q5 Q5 Q5 Q5 Q5 Q5 Q5 Q5 Q5 Q5 Q5 Q5 Q5 Q5 Q5 Q5 Q5 Q5 Q5 Q5 Q5 Q5 Q5 Q5 Q5 Q5 Q5 Q5 Q5 Q5 Q5                         O7 O7 O7 O7 O7 O7 O7 O7 O7 O7 O7 O7 O7 O7 O7 O7 O7 O7 O7 O7 O7 O7 O7 O7 O7 O7 O7 O7 O7 O7 O7 O7 O7 O7 O7 O7 O7 O7 O7 O7 O7 O7 O7 O7 O7 O7 O7 O7 O7 O7 O7 O7 O7 O7 O7 O7 O7 O7 O7 O7 O7 O7 O7 O7 O7 O7 O7 O7 O7 O7 O7 O7 O7 O7 O7 O7 O7 O7 O7 O7 O7 O7 O7 O7 O7 O7 O7 O7 O7 O7 O7 O7 O7 O7 O7 O7                         M9 M9 M9 M9 M9 M9 M9 M9 M9 M9 M9 M9 M9 M9 M9 M9 M9 M9 M9 M9 M9 M9 M9 M9 M9 M9 M9 M9 M9 M9 M9 M9 M9 M9 M9 M9 M9 M9 M9 M9 M9 M9 M9 M9 M9 M9 M9 M9 M9 M9 M9 M9 M9 M9 M9 M9 M9 M9 M9 M9 M9 M9 M9 M9 M9 M9 M9 M9 M9 M9 M9 M9 M9 M9 M9 M9 M9 M9 M9 M9 M9 M9 M9 M9 M9 M9 M9 M9 M9 M9 M9 M9 M9 M9 M9 M9                         L7 L7 L7 L7 L7 L7 L7 L7 L7 L7 L7 L7 L7 L7 L7 L7 L7 L7 L7 L7 L7 L7 L7 L7 L7 L7 L7 L7 L7 L7 L7 L7 L7 L7 L7 L7 L7 L7 L7 L7 L7 L7 L7 L7 L7 L7 L7 L7 L7 L7 L7 L7 L7 L7 L7 L7 L7 L7 L7 L7 L7 L7 L7 L7 L7 L7 L7 L7 L7 L7 L7 L7 L7 L7 L7 L7 L7 L7 L7 L7 L7 L7 L7 L7 L7 L7 L7 L7 L7 L7 L7 L7 L7 L7 L7 L7                         J5 J5 J5 J5 J5 J5 J5 J5 J5 J5 J5 J5 J5 J5 J5 J5 J5 J5 J5 J5 J5 J5 J5 J5 J5 J5 J5 J5 J5 J5 J5 J5 J5 J5 J5 J5 J5 J5 J5 J5 J5 J5 J5 J5 J5 J5 J5 J5 J5 J5 J5 J5 J5 J5 J5 J5 J5 J5 J5 J5 J5 J5 J5 J5 J5 J5 J5 J5 J5 J5 J5 J5 J5 J5 J5 J5 J5 J5 J5 J5 J5 J5 J5 J5 J5 J5 J5 J5 J5 J5 J5 J5 J5 J5 J5 J5                         H4 H4 H4 H4 H4 H4 H4 H4 H4 H4 H4 H4 H4 H4 H4 H4 H4 H4 H4 H4 H4 H4 H4 H4 H4 H4 H4 H4 H4 H4 H4 H4 H4 H4 H4 H4 H4 H4 H4 H4 H4 H4 H4 H4 H4 H4 H4 H4 H4 H4 H4 H4 H4 H4 H4 H4 H4 H4 H4 H4 H4 H4 H4 H4 H4 H4 H4 H4 H4 H4 H4 H4 H4 H4 H4 H4 H4 H4 H4 H4 H4 H4 H4 H4 H4 H4 H4 H4 H4 H4 H4 H4 H4 H4 H4 H4                         M2 M2 M2 M2 M2 M2 M2 M2 M2 M2 M2 M2 M2 M2 M2 M2 M2 M2 M2 M2 M2 M2 M2 M2 2 2 2 2 2 2 L2 L2 L2 L2 L2 L2 L2 L2 L2 L2 L2 L2 L2 L2 L2 L2 L2 L2 L2 L2 L2 L2 L2 L2 2 2 2 2 2 2 M2 M2 M2 M2 M2 M2 M2 M2 M2 M2 M2 M2 M2 M2 M2 M2 M2 M2 M2 M2 M2 M2 M2 M2 M2 M2 M2 M2 M2 M2 M2 M2 M2 M2 M2 M2 M M M M M M M M M M M M M M M M M M M M M M M M M0 M0 M0 M0 M0 M0 M0 M0 M0 M0 M0 M0 M0 M0 M0 M0 M0 M0 M0 M0 M0 M0 M0 M0 M0 M0 M0 M0 M0 M0 M0 M0 M0 M0 M0 M0 M0 M0 M0 M0 M0 M0 M0 M0 M0 M0 M0 M0 M0 M0 M0 M0 M0 M0 M0 M0 M0 M0 M0 M0 M0 M0 M0 M0 M0 M0 M0 M0 M0 M0 M0 M0 M0 M0 M0 M0 M0 M0 M0 M0 M0 M0 M0 M0 M0 M0 M0 M0 M0 M0 M0 M0 M0 M0 M0 M0 M M M M M M M M M M M M M M M M M M M M M M M M M/ M/ M/ M/ M/ M/ M/ M/ M/ M/ M/ M/ M/ M/ M/ M/ M/ M/ M/ M/ M/ M/ M/ M/ M/ M/ M/ M/ M/ M/ M/ M/ M/ M/ M/ M/ M/ M/ M/ M/ M/ M/ M/ M/ M/ M/ M/ M/ M/ M/ M/ M/ M/ M/ M/ M/ M/ M/ M/ M/ M/ M/ M/ M/ M/ M/ M/ M/ M/ M/ M/ M/ / / / / / / / / / / / / / / / / / / / / / / / /                         M- M- M- M- M- M- M- M- M- M- M- M- M- M- M- M- M- M- M- M- M- M- M- M- M- M- M- M- M- M- M- M- M- M- M- M- M- M- M- M- M- M- M- M- M- M- M- M- M- M- M- M- M- M- M- M- M- M- M- M- M- M- M- M- M- M- M- M- M- M- M- M- M- M- M- M- M- M- M- M- M- M- M- M- M- M- M- M- M- M- M- M- M- M- M- M-                         C/ C/ C/ C/ C/ C/ C/ C/ C/ C/ C/ C/ C/ C/ C/ C/ C/ C/ C/ C/ C/ C/ C/ C/ C/ C/ C/ C/ C/ C/ CJ/ CJ/ CJ/ CJ/ CJ/ CJ/ CJ/ CJ/ CJ/ CJ/ CJ/ CJ/ CJ/ CJ/ CJ/ CJ/ CJ/ CJ/ CJ/ CJ/ CJ/ CJ/ CJ/ CJ/ CJ/ CJ/ CJ/ CJ/ CJ/ CJ/ CMJ/ CMJ/ CMJ/ CMJ/ CMJ/ CMJ/ CMJ/ CMJ/ CMJ/ CMJ/ CMJ/ CMJ/ CMJ/ CMJ/ CMJ/ CMJ/ CMJ/ CMJ/ CMJ/ CMJ/ CMJ/ CMJ/ CMJ/ CMJ/ CMJ/ CMJ/ CMJ/ CMJ/ CMJ/ CMJ/ CMJ/ CMJ/ CMJ/ CMJ/ CMJ/ CMJ/ CMJ CMJ CMJ CMJ CMJ CMJ CMJ CMJ CMJ CMJ CMJ CMJ CMJ CMJ CMJ CMJ CMJ CMJ CMJ CMJ CMJ CMJ CMJ CMJ CMJ+ CMJ+ CMJ+ CMJ+ CMJ+ CMJ+ CMJ+ CMJ+ CMJ+ CMJ+ CMJ+ CMJ+ CMJ+ CMJ+ CMJ+ CMJ+ CMJ+ CMJ+ CMJ+ CMJ+ CMJ+ CMJ+ CMJ+ CMJ+ CMJ+ CMJ+ CMJ+ CMJ+ CMJ+ CMJ+ CMJ+ CMJ+ CMJ+ CMJ+ CMJ+ CMJ+ CMJ+ CMJ+ CMJ+ CMJ+ CMJ+ CMJ+ CMJ+ CMJ+ CMJ+ CMJ+ CMJ+ CMJ+ CMJ+ CMJ+ CMJ+ CMJ+ CMJ+ CMJ+ CMJ+ CMJ+ CMJ+ CMJ+ CMJ+ CMJ+ CMJ+ CMJ+ CMJ+ CMJ+ CMJ+ CMJ+ CMJ+ CMJ+ CMJ+ CMJ+ CMJ+ CMJ+ CMJ+ CMJ+ CMJ+ CMJ+ CMJ+ CMJ+ CMJ+ CMJ+ CMJ+ CMJ+ CMJ+ CMJ+ CMJ+ CMJ+ CMJ+ CMJ+ CMJ+ CMJ+ CMJ+ CMJ+ CMJ+ CMJ+ CMJ+ CMJ+ CMJ CMJ CMJ CMJ CMJ CMJ CMJ CMJ CMJ CMJ CMJ CMJ CMJ CMJ CMJ CMJ CMJ CMJ CMJ CMJ CMJ CMJ CMJ CMJ CMJ- CMJ- CMJ- CMJ- CMJ- CMJ- CMJ- CMJ- CMJ- CMJ- CMJ- CMJ- CMJ- CMJ- CMJ- CMJ- CMJ- CMJ- CMJ- CMJ- CMJ- CMJ- CMJ- CMJ- CMJ- CMJ- CMJ- CMJ- CMJ- CMJ- CMJ- CMJ- CMJ- CMJ- CMJ- CMJ- CMJ- CMJ- CMJ- CMJ- CMJ- CMJ- CMJ- CMJ- CMJ- CMJ- CMJ- CMJ- MJ- MJ- MJ- MJ- MJ- MJ- MJ- MJ- MJ- MJ- MJ- MJ- MJ- MJ- MJ- MJ- MJ- MJ- MJ- MJ- MJ- MJ- MJ- MJ- - - - - - - - - - - - - - - - - - - - - - - - -                         J/ J/ J/ J/ J/ J/ J/ J/ J/ J/ J/ J/ J/ J/ J/ J/ J/ J/ J/ J/ J/ J/ J/ J/ J/ J/ J/ J/ J/ J/ J/ J/ J/ J/ J/ J/ J/ J/ J/ J/ J/ J/ J/ J/ J/ J/ J/ J/ J/ J/ J/ J/ J/ J/ J/ J/ J/ J/ J/ J/ J/ J/ J/ J/ J/ J/ J/ J/ J/ J/ J/ J/ J/ J/ J/ J/ J/ J/ J/ J/ J/ J/ J/ J/ J/ J/ J/ J/ J/ J/ J/ J/ J/ J/ J/ J/                         L0 L0 L0 L0 L0 L0 L0 L0 L0 L0 L0 L0 L0 L0 L0 L0 L0 L0 L0 L0 L0 L0 L0 L0 L0 L0 L0 L0 L0 L0 L0 L0 L0 L0 L0 L0 L0 L0 L0 L0 L0 L0 L0 L0 L0 L0 L0 L0 L0 L0 L0 L0 L0 L0 L0 L0 L0 L0 L0 L0 L0 L0 L0 L0 L0 L0 L0 L0 L0 L0 L0 L0 L0 L0 L0 L0 L0 L0 L0 L0 L0 L0 L0 L0 L0 L0 L0 L0 L0 L0 L0 L0 L0 L0 L0 L0                         M2 M2 M2 M2 M2 M2 M2 M2 M2 M2 M2 M2 M2 M2 M2 M2 M2 M2 M2 M2 M2 M2 M2 M2 M2 M2 M2 M2 M2 M2 M2 M2 M2 M2 M2 M2 M2 M2 M2 M2 M2 M2 M2 M2 M2 M2 M2 M2 M2 M2 M2 M2 M2 M2 M2 M2 M2 M2 M2 M2 M2 M2 M2 M2 M2 M2 M2 M2 M2 M2 M2 M2 M2 M2 M2 M2 M2 M2 M2 M2 M2 M2 M2 M2 M2 M2 M2 M2 M2 M2 M2 M2 M2 M2 M2 M2                         O4 O4 O4 O4 O4 O4 O4 O4 O4 O4 O4 O4 O4 O4 O4 O4 O4 O4 O4 O4 O4 O4 O4 O4 O4 O4 O4 O4 O4 O4 O4 O4 O4 O4 O4 O4 O4 O4 O4 O4 O4 O4 O4 O4 O4 O4 O4 O4 O4 O4 O4 O4 O4 O4 O4 O4 O4 O4 O4 O4 O4 O4 O4 O4 O4 O4 O4 O4 O4 O4 O4 O4 O4 O4 O4 O4 O4 O4 O4 O4 O4 O4 O4 O4 O4 O4 O4 O4 O4 O4 O4 O4 O4 O4 O4 O4                         Q5 Q5 Q5 Q5 Q5 Q5 Q5 Q5 Q5 Q5 Q5 Q5 Q5 Q5 Q5 Q5 Q5 Q5 Q5 Q5 Q5 Q5 Q5 Q5 Q5 Q5 Q5 Q5 Q5 Q5 Q5 Q5 Q5 Q5 Q5 Q5 Q5 Q5 Q5 Q5 Q5 Q5 Q5 Q5 Q5 Q5 Q5 Q5 Q5 Q5 Q5 Q5 Q5 Q5 Q5 Q5 Q5 Q5 Q5 Q5 Q5 Q5 Q5 Q5 Q5 Q5 Q5 Q5 Q5 Q5 Q5 Q5 Q5 Q5 Q5 Q5 Q5 Q5 Q5 Q5 Q5 Q5 Q5 Q5 Q5 Q5 Q5 Q5 Q5 Q5 Q5 Q5 Q5 Q5 Q5 Q5                         O7 O7 O7 O7 O7 O7 O7 O7 O7 O7 O7 O7 O7 O7 O7 O7 O7 O7 O7 O7 O7 O7 O7 O7 O7 O7 O7 O7 O7 O7 O7 O7 O7 O7 O7 O7 O7 O7 O7 O7 O7 O7 O7 O7 O7 O7 O7 O7 O7 O7 O7 O7 O7 O7 O7 O7 O7 O7 O7 O7 O7 O7 O7 O7 O7 O7 O7 O7 O7 O7 O7 O7 O7 O7 O7 O7 O7 O7 O7 O7 O7 O7 O7 O7 O7 O7 O7 O7 O7 O7 O7 O7 O7 O7 O7 O7 7 7 7 7 7 7 7 7 7 7 7 7 7 7 7 7 7 7 7 7 7 7 7 7 M7 M7 M7 M7 M7 M7 M7 M7 M7 M7 M7 M7 M7 M7 M7 M7 M7 M7 M7 M7 M7 M7 M7 M7 M7 M7 M7 M7 M7 M7 M7 M7 M7 M7 M7 M7 M7 M7 M7 M7 M7 M7 M7 M7 M7 M7 M7 M7 M7 M7 M7 M7 M7 M7 M7 M7 M7 M7 M7 M7 M M M M M M M M M M M M M M M M M M M M M M M M M M M M M M M M M M M M                         L+ L+ L+ L+ L+ L+ L+ L+ L+ L+ L+ L+ L+ L+ L+ L+ L+ L+ L+ L+ L+ L+ L+ L+ L+ L+ L+ L+ L+ L+ L+ L+ L+ L+ L+ L+ L+ L+ L+ L+ L+ L+ L+ L+ L+ L+ L+ L+ L+ L+ L+ L+ L+ L+ L+ L+ L+ L+ L+ L+ L+ L+ L+ L+ L+ L+ L+ L+ L+ L+ L+ L+ L+ L+ L+ L+ L+ L+ L+ L+ L+ L+ L+ L+ L+ L+ L+ L+ L+ L+ L+ L+ L+ L+ L+ L+ + + + + + + + + + + + + + + + + + + + + + + + + J+ J+ J+ J+ J+ J+ J+ J+ J+ J+ J+ J+ J+ J+ J+ J+ J+ J+ J+ J+ J+ J+ J+ J+ J+ J+ J+ J+ J+ J+ J+ J+ J+ J+ J+ J+ J+ J+ J+ J+ J+ J+ J+ J+ J+ J+ J+ J+ J+ J+ J+ J+ J+ J+ J+ J+ J+ J+ J+ J+ J J J J J J J J J J J J J J J J J J J J J J J J J J J J J J J J J J J J                         L0 L0 L0 L0 L0 L0 L0 L0 L0 L0 L0 L0 L0 L0 L0 L0 L0 L0 L0 L0 L0 L0 L0 L0 0 0 0 0 0 0 M0 M0 M0 M0 M0 M0 M0 M0 M0 M0 M0 M0 M0 M0 M0 M0 M0 M0 M0 M0 M0 M0 M0 M0 0 0 0 0 0 0 L0 L0 L0 L0 L0 L0 L0 L0 L0 L0 L0 L0 L0 L0 L0 L0 L0 L0 L0 L0 L0 L0 L0 L0 L0 L0 L0 L0 L0 L0 L0 L0 L0 L0 L0 L0 L0 L0 L0 L0 L0 L0 L0 L0 L0 L0 L0 L0 L0 L0 L0 L0 L0 L0 L0 L0 L0 L0 L0 L0 L70 L70 L70 L70 L70 L70 L70 L70 L70 L70 L70 L70 L70 L70 L70 L70 L70 L70 L70 L70 L70 L70 L70 L70 L70 L70 L70 L70 L70 L70 L70 L70 L70 L70 L70 L70 L70 L70 L70 L70 L70 L70 L70 L70 L70 L70 L70 L70 L70 L70 L70 L70 L70 L70 L70 L70 L70 L70 L70 L70 L70 L70 L70 L70 L70 L70 L70 L70 L70 L70 L70 L70 L70 L70 L70 L70 L70 L70 L70 L70 L70 L70 L70 L70 L70 L70 L70 L70 L70 L70 L70 L70 L70 L70 L70 L70 L0 L0 L0 L0 L0 L0 L0 L0 L0 L0 L0 L0 L0 L0 L0 L0 L0 L0 L0 L0 L0 L0 L0 L0 L0< L0< L0< L0< L0< L0< L0< L0< L0< L0< L0< L0< L0< L0< L0< L0< L0< L0< L0< L0< L0< L0< L0< L0< L0< L0< L0< L0< L0< L0< L0< L0< L0< L0< L0< L0< L0< L0< L0< L0< L0< L0< L0< L0< L0< L0< L0< L0< L0< L0< L0< L0< L0< L0< L0< L0< L0< L0< L0< L0< L0< L0< L0< L0< L0< L0< L0< L0< L0< L0< L0< L0< 0< 0< 0< 0< 0< 0< 0< 0< 0< 0< 0< 0< 0< 0< 0< 0< 0< 0< 0< 0< 0< 0< 0< 0< 0< 0< 0< 0< 0< 0< 0< 0< 0< 0< 0< 0< 0< 0< 0< 0< 0< 0< 0< 0< 0< 0< 0< 0< J<2 J<2 J<2 J<2 J<2 J<2 J<2 J<2 J<2 J<2 J<2 J<2 J<2 J<2 J<2 J<2 J<2 J<2 J<2 J<2 J<2 J<2 J<2 J<2 J<2 J<2 J<2 J<2 J<2 J<2 J<2 J<2 J<2 J<2 J<2 J<2 J<2 J<2 J<2 J<2 J<2 J<2 J<2 J<2 J<2 J<2 J<2 J<2 J<2 J<2 J<2 J<2 J<2 J<2 J<2 J<2 J<2 J<2 J<2 J<2 J<2 J<2 J<2 J<2 J<2 J<2 J<2 J<2 J<2 J<2 J<2 J<2 J2 J2 J2 J2 J2 J2 J2 J2 J2 J2 J2 J2 J2 J2 J2 J2 J2 J2 J2 J2 J2 J2 J2 J2 2 2 2 2 2 2 2 2 2 2 2 2 2 2 2 2 2 2 2 2 2 2 2 2 H4 H4 H4 H4 H4 H4 H4 H4 H4 H4 H4 H4 H4 H4 H4 H4 H4 H4 H4 H4 H4 H4 H4 H4 H4 H4 H4 H4 H4 H4 H4 H4 H4 H4 H4 H4 H4 H4 H4 H4 H4 H4 H4 H4 H4 H4 H4 H4 H4 H4 H4 H4 H4 H4 H4 H4 H4 H4 H4 H4 H4 H4 H4 H4 H4 H4 H4 H4 H4 H4 H4 H4 H4 H4 H4 H4 H4 H4 H4 H4 H4 H4 H4 H4 H4 H4 H4 H4 H4 H4 H4 H4 H4 H4 H4 H4 4 4 4 4 4 4 4 4 4 4 4 4 4 4 4 4 4 4 4 4 4 4 4 4 L4 L4 L4 L4 L4 L4 L4 L4 L4 L4 L4 L4 L4 L4 L4 L4 L4 L4 L4 L4 L4 L4 L4 L4 L4 L4 L4 L4 L4 L4 L4 L4 L4 L4 L4 L4 L4 L4 L4 L4 L4 L4 L4 L4 L4 L4 L4 L4 L4 L4 L4 L4 L4 L4 L4 L4 L4 L4 L4 L4 L4 L4 L4 L4 L4 L4 L4 L4 L4 L4 L4 L4 L4 L4 L4 L4 L4 L4 L4 L4 L4 L4 L4 L4 L4 L4 L4 L4 L4 L4 L4 L4 L4 L4 L4 L4 4 4 4 4 4 4 4 4 4 4 4 4 4 4 4 4 4 4 4 4 4 4 4 4 J5 J5 J5 J5 J5 J5 J5 J5 J5 J5 J5 J5 J5 J5 J5 J5 J5 J5 J5 J5 J5 J5 J5 J5 J5 J5 J5 J5 J5 J5 J5 J5 J5 J5 J5 J5 J5 J5 J5 J5 J5 J5 J5 J5 J5 J5 J5 J5 J5 J5 J5 J5 J5 J5 J5 J5 J5 J5 J5 J5 J5 J5 J5 J5 J5 J5 J5 J5 J5 J5 J5 J5 J5 J5 J5 J5 J5 J5 J5 J5 J5 J5 J5 J5 J5 J5 J5 J5 J5 J5 J5 J5 J5 J5 J5 J5 5 5 5 5 5 5 5 5 5 5 5 5 5 5 5 5 5 5 5 5 5 5 5 5 H5 H5 H5 H5 H5 H5 H5 H5 H5 H5 H5 H5 H5 H5 H5 H5 H5 H5 H5 H5 H5 H5 H5 H5 H5 H5 H5 H5 H5 H5 H5 H5 H5 H5 H5 H5 H5 H5 H5 H5 H5 H5 H5 H5 H5 H5 H5 H5 H5 H5 H5 H5 H5 H5 H5 H5 H5 H5 H5 H5 H H H H H H H H H H H H H H H H H H H H H H H H H H H H H H H H H H H H                         G7 G7 G7 G7 G7 G7 G7 G7 G7 G7 G7 G7 G7 G7 G7 G7 G7 G7 G7 G7 G7 G7 G7 G7 G7 G7 G7 G7 G7 G7 G7 G7 G7 G7 G7 G7 G7 G7 G7 G7 G7 G7 G7 G7 G7 G7 G7 G7 G7 G7 G7 G7 G7 G7 G7 G7 G7 G7 G7 G7 G7 G7 G7 G7 G7 G7 G7 G7 G7 G7 G7 G7 G7 G7 G7 G7 G7 G7 G7 G7 G7 G7 G7 G7 G7 G7 G7 G7 G7 G7 G7 G7 G7 G7 G7 G7 7 7 7 7 7 7 7 7 7 7 7 7 7 7 7 7 7 7 7 7 7 7 7 7 E7 E7 E7 E7 E7 E7 E7 E7 E7 E7 E7 E7 E7 E7 E7 E7 E7 E7 E7 E7 E7 E7 E7 E7 E7 E7 E7 E7 E7 E7 E7 E7 E7 E7 E7 E7 E7 E7 E7 E7 E7 E7 E7 E7 E7 E7 E7 E7 E7 E7 E7 E7 E7 E7 E7 E7 E7 E7 E7 E7 E E E E E E E E E E E E E E E E E E E E E E E E E E E E E E E E E E E E                         G9 G9 G9 G9 G9 G9 G9 G9 G9 G9 G9 G9 G9 G9 G9 G9 G9 G9 G9 G9 G9 G9 G9 G9 G9 G9 G9 G9 G9 G9 G9 G9 G9 G9 G9 G9 G9 G9 G9 G9 G9 G9 G9 G9 G9 G9 G9 G9 G9 G9 G9 G9 G9 G9 G9 G9 G9 G9 G9 G9 G9 G9 G9 G9 G9 G9 G9 G9 G9 G9 G9 G9 G9 G9 G9 G9 G9 G9 G9 G9 G9 G9 G9 G9 G9 G9 G9 G9 G9 G9 G9 G9 G9 G9 G9 G9 9 9 9 9 9 9 9 9 9 9 9 9 9 9 9 9 9 9 9 9 9 9 9 9 H9 H9 H9 H9 H9 H9 H9 H9 H9 H9 H9 H9 H9 H9 H9 H9 H9 H9 H9 H9 H9 H9 H9 H9 H9 H9 H9 H9 H9 H9 H9 H9 H9 H9 H9 H9 H9 H9 H9 H9 H9 H9 H9 H9 H9 H9 H9 H9 H9 H9 H9 H9 H9 H9 H9 H9 H9 H9 H9 H9 H H H H H H H H H H H H H H H H H H H H H H H H H H H H H H H H H H H H                         A; A; A; A; A; A; A; A; A; A; A; A; A; A; A; A; A; A; A; A; A; A; A; A; A; A; A; A; A; A; A; A; A; A; A; A; A; A; A; A; A; A; A; A; A; A; A; A; A; A; A; A; A; A; A; A; A; A; A; A; A; A; A; A; A; A; A; A; A; A; A; A; A; A; A; A; A; A; A; A; A; A; A; A; A; A; A; A; A; A; A; A; A; A; A; A; A A A A A A A A A A A A A A A A A A A A A A A A A< A< A< A< A< A< A< A< A< A< A< A< A< A< A< A< A< A< A< A< A< A< A< A< A< A< A< A< A< A< A< A< A< A< A< A< A< A< A< A< A< A< A< A< A< A< A< A< A< A< A< A< A< A< A< A< A< A< A< A< A< A< A< A< A< A< A< A< A< A< A< A< A< A< A< A< A< A< A< A< A< A< A< A< A< A< A< A< A< A< A< A< A< A< A< A< A A A A A A A A A A A A A A A A A A A A A A A A A> A> A> A> A> A> A> A> A> A> A> A> A> A> A> A> A> A> A> A> A> A> A> A> A> A> A> A> A> A> A> A> A> A> A> A> A> A> A> A> A> A> A> A> A> A> A> A> > > > > > > > > > > > > > > > > > > > > > > > > > > > > > > > > > > > > > > > > > > > > > > > >                         @< @< @< @< @< @< @< @< @< @< @< @< @< @< @< @< @< @< @< @< @< @< @< @< @< @< @< @< @< @< @< @< @< @< @< @< @< @< @< @< @< @< @< @< @< @< @< @< @< @< @< @< @< @< @< @< @< @< @< @< @< @< @< @< @< @< @< @< @< @< @< @< @< @< @< @< @< @< @< @< @< @< @< @< @< @< @< @< @< @< @< @< @< @< @< @<                         A; A; A; A; A; A; A; A; A; A; A; A; A; A; A; A; A; A; A; A; A; A; A; A; A; A; A; A; A; A; A; A; A; A; A; A; A; A; A; A; A; A; A; A; A; A; A; A; A; A; A; A; A; A; A; A; A; A; A; A; A; A; A; A; A; A; A; A; A; A; A; A; A; A; A; A; A; A; A; A; A; A; A; A; A; A; A; A; A; A; A; A; A; A; A; A;                         >9 >9 >9 >9 >9 >9 >9 >9 >9 >9 >9 >9 >9 >9 >9 >9 >9 >9 >9 >9 >9 >9 >9 >9 >9 >9 >9 >9 >9 >9 >9 >9 >9 >9 >9 >9 >9 >9 >9 >9 >9 >9 >9 >9 >9 >9 >9 >9 >9 >9 >9 >9 >9 >9 >9 >9 >9 >9 >9 >9 >9 >9 >9 >9 >9 >9 >9 >9 >9 >9 >9 >9 >9 >9 >9 >9 >9 >9 >9 >9 >9 >9 >9 >9 >9 >9 >9 >9 >9 >9 >9 >9 >9 >9 >9 >9                         @7 @7 @7 @7 @7 @7 @7 @7 @7 @7 @7 @7 @7 @7 @7 @7 @7 @7 @7 @7 @7 @7 @7 @7 @7 @7 @7 @7 @7 @7 @7 @7 @7 @7 @7 @7 @7 @7 @7 @7 @7 @7 @7 @7 @7 @7 @7 @7 @7 @7 @7 @7 @7 @7 @7 @7 @7 @7 @7 @7 @7 @7 @7 @7 @7 @7 @7 @7 @7 @7 @7 @7 @7 @7 @7 @7 @7 @7 @7 @7 @7 @7 @7 @7 @7 @7 @7 @7 @7 @7 @7 @7 @7 @7 @7 @7                         A5 A5 A5 A5 A5 A5 A5 A5 A5 A5 A5 A5 A5 A5 A5 A5 A5 A5 A5 A5 A5 A5 A5 A5 A5 A5 A5 A5 A5 A5 A5 A5 A5 A5 A5 A5 A5 A5 A5 A5 A5 A5 A5 A5 A5 A5 A5 A5 A5 A5 A5 A5 A5 A5 A5 A5 A5 A5 A5 A5 A5 A5 A5 A5 A5 A5 A5 A5 A5 A5 A5 A5 A5 A5 A5 A5 A5 A5 A5 A5 A5 A5 A5 A5 A5 A5 A5 A5 A5 A5 A5 A5 A5 A5 A5 A5                         C4 C4 C4 C4 C4 C4 C4 C4 C4 C4 C4 C4 C4 C4 C4 C4 C4 C4 C4 C4 C4 C4 C4 C4 C4 C4 C4 C4 C4 C4 C4 C4 C4 C4 C4 C4 C4 C4 C4 C4 C4 C4 C4 C4 C4 C4 C4 C4 C4 C4 C4 C4 C4 C4 C4 C4 C4 C4 C4 C4 C4 C4 C4 C4 C4 C4 C4 C4 C4 C4 C4 C4 C4 C4 C4 C4 C4 C4 C4 C4 C4 C4 C4 C4 C4 C4 C4 C4 C4 C4 C4 C4 C4 C4 C4 C4                         E0 E0 E0 E0 E0 E0 E0 E0 E0 E0 E0 E0 E0 E0 E0 E0 E0 E0 E0 E0 E0 E0 E0 E0 E0 E0 E0 E0 E0 E0 E0 E0 E0 E0 E0 E0 E0 E0 E0 E0 E0 E0 E0 E0 E0 E0 E0 E0 E0 E0 E0 E0 E0 E0 E0 E0 E0 E0 E0 E0 E0 E0 E0 E0 E0 E0 E0 E0 E0 E0 E0 E0 E0 E0 E0 E0 E0 E0 E0 E0 E0 E0 E0 E0 E0 E0 E0 E0 E0 E0 E0 E0 E0 E0 E0 E0                         F2 F2 F2 F2 F2 F2 F2 F2 F2 F2 F2 F2 F2 F2 F2 F2 F2 F2 F2 F2 F2 F2 F2 F2 F2 F2 F2 F2 F2 F2 F2 F2 F2 F2 F2 F2 F2 F2 F2 F2 F2 F2 F2 F2 F2 F2 F2 F2 F2 F2 F2 F2 F2 F2 F2 F2 F2 F2 F2 F2 F2 F2 F2 F2 F2 F2 F2 F2 F2 F2 F2 F2 F2 F2 F2 F2 F2 F2 F2 F2 F2 F2 F2 F2 F2 F2 F2 F2 F2 F2 F2 F2 F2 F2 F2 F2                         C4 C4 C4 C4 C4 C4 C4 C4 C4 C4 C4 C4 C4 C4 C4 C4 C4 C4 C4 C4 C4 C4 C4 C4 C4 C4 C4 C4 C4 C4 C4 C4 C4 C4 C4 C4 C4 C4 C4 C4 C4 C4 C4 C4 C4 C4 C4 C4 C4 C4 C4 C4 C4 C4 C4 C4 C4 C4 C4 C4 C4 C4 C4 C4 C4 C4 C4 C4 C4 C4 C4 C4 C4 C4 C4 C4 C4 C4 C4 C4 C4 C4 C4 C4 C4 C4 C4 C4 C4 C4 C4 C4 C4 C4 C4 C4                         E5 E5 E5 E5 E5 E5 E5 E5 E5 E5 E5 E5 E5 E5 E5 E5 E5 E5 E5 E5 E5 E5 E5 E5 E5 E5 E5 E5 E5 E5 E5 E5 E5 E5 E5 E5 E5 E5 E5 E5 E5 E5 E5 E5 E5 E5 E5 E5 E5 E5 E5 E5 E5 E5 E5 E5 E5 E5 E5 E5 E5 E5 E5 E5 E5 E5 E5 E5 E5 E5 E5 E5 E5 E5 E5 E5 E5 E5 E5 E5 E5 E5 E5 E5 E5 E5 E5 E5 E5 E5 E5 E5 E5 E5 E5 E5 E E E E E E E E E E E E E E E E E E E E E E E E E4 E4 E4 E4 E4 E4 E4 E4 E4 E4 E4 E4 E4 E4 E4 E4 E4 E4 E4 E4 E4 E4 E4 E4 E4 E4 E4 E4 E4 E4 E4 E4 E4 E4 E4 E4 E4 E4 E4 E4 E4 E4 E4 E4 E4 E4 E4 E4 E4 E4 E4 E4 E4 E4 E4 E4 E4 E4 E4 E4 E4 E4 E4 E4 E4 E4 E4 E4 E4 E4 E4 E4 E4 E4 E4 E4 E4 E4 E4 E4 E4 E4 E4 E4 E4 E4 E4 E4 E4 E4 E4 E4 E4 E4 E4 E4 E E E E E E E E E E E E E E E E E E E E E E E E E5 E5 E5 E5 E5 E5 E5 E5 E5 E5 E5 E5 E5 E5 E5 E5 E5 E5 E5 E5 E5 E5 E5 E5 E5 E5 E5 E5 E5 E5 E5 E5 E5 E5 E5 E5 E5 E5 E5 E5 E5 E5 E5 E5 E5 E5 E5 E5 5 5 5 5 5 5 5 5 5 5 5 5 5 5 5 5 5 5 5 5 5 5 5 5 5 5 5 5 5 5 5 5 5 5 5 5 5 5 5 5 5 5 5 5 5 5 5 5                         C7 C7 C7 C7 C7 C7 C7 C7 C7 C7 C7 C7 C7 C7 C7 C7 C7 C7 C7 C7 C7 C7 C7 C7 C7 C7 C7 C7 C7 C7 C7 C7 C7 C7 C7 C7 C7 C7 C7 C7 C7 C7 C7 C7 C7 C7 C7 C7 C7 C7 C7 C7 C7 C7 C7 C7 C7 C7 C7 C7 C7 C7 C7 C7 C7 C7 C7 C7 C7 C7 C7 C7 C7 C7 C7 C7 C7 C7 C7 C7 C7 C7 C7 C7 C7 C7 C7 C7 C7 C7 C7 C7 C7 C7 C7 C7                         A9 A9 A9 A9 A9 A9 A9 A9 A9 A9 A9 A9 A9 A9 A9 A9 A9 A9 A9 A9 A9 A9 A9 A9 A9 A9 A9 A9 A9 A9 A9 A9 A9 A9 A9 A9 A9 A9 A9 A9 A9 A9 A9 A9 A9 A9 A9 A9 A9 A9 A9 A9 A9 A9 A9 A9 A9 A9 A9 A9 A9 A9 A9 A9 A9 A9 A9 A9 A9 A9 A9 A9 A9 A9 A9 A9 A9 A9 A9 A9 A9 A9 A9 A9 A9 A9 A9 A9 A9 A9 A9 A9 A9 A9 A9 A9 9 9 9 9 9 9 9 9 9 9 9 9 9 9 9 9 9 9 9 9 9 9 9 9 @9 @9 @9 @9 @9 @9 @9 @9 @9 @9 @9 @9 @9 @9 @9 @9 @9 @9 @9 @9 @9 @9 @9 @9 @9 @9 @9 @9 @9 @9 @9 @9 @9 @9 @9 @9 @9 @9 @9 @9 @9 @9 @9 @9 @9 @9 @9 @9 @9 @9 @9 @9 @9 @9 @9 @9 @9 @9 @9 @9 @9 @9 @9 @9 @9 @9 @9 @9 @9 @9 @9 @9 @ @ @ @ @ @ @ @ @ @ @ @ @ @ @ @ @ @ @ @ @ @ @ @                         >5 >5 >5 >5 >5 >5 >5 >5 >5 >5 >5 >5 >5 >5 >5 >5 >5 >5 >5 >5 >5 >5 >5 >5 >5 >5 >5 >5 >5 >5 >5 >5 >5 >5 >5 >5 >5 >5 >5 >5 >5 >5 >5 >5 >5 >5 >5 >5 >5 >5 >5 >5 >5 >5 >5 >5 >5 >5 >5 >5 >5 >5 >5 >5 >5 >5 >5 >5 >5 >5 >5 >5 >5 >5 >5 >5 >5 >5 >5 >5 >5 >5 >5 >5 >5 >5 >5 >5 >5 >5 >5 >5 >5 >5 >5 >5 5 5 5 5 5 5 5 5 5 5 5 5 5 5 5 5 5 5 5 5 5 5 5 5 J5 J5 J5 J5 J5 J5 J5 J5 J5 J5 J5 J5 J5 J5 J5 J5 J5 J5 J5 J5 J5 J5 J5 J5 J5 J5 J5 J5 J5 J5 J5 J5 J5 J5 J5 J5 J5 J5 J5 J5 J5 J5 J5 J5 J5 J5 J5 J5 J5 J5 J5 J5 J5 J5 J5 J5 J5 J5 J5 J5 J J J J J J J J J J J J J J J J J J J J J J J J J J J J J J J J J J J J                         H7 H7 H7 H7 H7 H7 H7 H7 H7 H7 H7 H7 H7 H7 H7 H7 H7 H7 H7 H7 H7 H7 H7 H7 7 7 7 7 7 7 G7 G7 G7 G7 G7 G7 G7 G7 G7 G7 G7 G7 G7 G7 G7 G7 G7 G7 G7 G7 G7 G7 G7 G7 7 7 7 7 7 7 E7 E7 E7 E7 E7 E7 E7 E7 E7 E7 E7 E7 E7 E7 E7 E7 E7 E7 E7 E7 E7 E7 E7 E7 7 7 7 7 7 7 G7 G7 G7 G7 G7 G7 G7 G7 G7 G7 G7 G7 G7 G7 G7 G7 G7 G7 G7 G7 G7 G7 G7 G7 7 7 7 7 7 7 H7 H7 H7 H7 H7 H7 H7 H7 H7 H7 H7 H7 H7 H7 H7 H7 H7 H7 H7 H7 H7 H7 H7 H7 7 7 7 7 7 7 G7 G7 G7 G7 G7 G7 G7 G7 G7 G7 G7 G7 G7 G7 G7 G7 G7 G7 G7 G7 G7 G7 G7 G7 7 7 7 7 7 7 H H H H H H H H H H H H H H H H H H H H H H H H       G G G G G G G G G G G G G G G G G G G G G G G G       H+ H+ H+ H+ H+ H+ H+ H+ H+ H+ H+ H+ H+ H+ H+ H+ H+ H+ H+ H+ H+ H+ H+ H+ + + + + + + G+ G+ G+ G+ G+ G+ G+ G+ G+ G+ G+ G+ G+ G+ G+ G+ G+ G+ G+ G+ G+ G+ G+ G+ + + + + + + E+ E+ E+ E+ E+ E+ E+ E+ E+ E+ E+ E+ E+ E+ E+ E+ E+ E+ E+ E+ E+ E+ E+ E+ + + + + + + G+ G+ G+ G+ G+ G+ G+ G+ G+ G+ G+ G+ G+ G+ G+ G+ G+ G+ G+ G+ G+ G+ G+ G+ + + + + + + H+ H+ H+ H+ H+ H+ H+ H+ H+ H+ H+ H+ H+ H+ H+ H+ H+ H+ H+ H+ H+ H+ H+ H+ H+ H+ H+ H+ H+ H+ H+ H+ H+ H+ H+ H+ H+ H+ H+ H+ H+ H+ H+ H+ H+ H+ H+ H+ H+ H+ H+ H+ H+ H+ H+ H+ H+ H+ H+ H+ H H H H H H H H H H H H H H H H H H H H H H H H H H H H H H H H H H H H                         H0 H0 H0 H0 H0 H0 H0 H0 H0 H0 H0 H0 H0 H0 H0 H0 H0 H0 H0 H0 H0 H0 H0 H0 H0 H0 H0 H0 H0 H0 H0 H0 H0 H0 H0 H0 H0 H0 H0 H0 H0 H0 H0 H0 H0 H0 H0 H0 H0 H0 H0 H0 H0 H0 H0 H0 H0 H0 H0 H0 H0 H0 H0 H0 H0 H0 H0 H0 H0 H0 H0 H0 H0 H0 H0 H0 H0 H0 H0 H0 H0 H0 H0 H0 H0 H0 H0 H0 H0 H0 H0 H0 H0 H0 H0 H0 H0 H0 H0 H0 H0 H0 H0 H0 H0 H0 H0 H0 H0 H0 H0 H0 H0 H0 H0 H0 H0 H0 H0 H0 H0 H0 H0 H0 H0 H0 H0 H0 H0 H0 H0 H0 H0 H0 H0 H0 H0 H0 H0 H0 H0 H0 H0 H0 H0 H0 H0 H0 H0 H0 H0 H0 H0 H0 H0 H0 H0 H0 H0 H0 H0 H0 H0 H0 H0 H0 H0 H0 H0 H0 H0 H0 H0 H0 H0 H0 H0 H0 H0 H0 H0 H0 H0 H0 H0 H0 H0 H0 H0 H0 H0 H0 H0 H0 H0 H0 H0 H0 H0 H0 H0 H0 H0 H0 H0 H0 H0 H0 H0 H0 H0 H0 H0 H0 H0 H0 H0 H0 H0 H0 H0 H0 H0 H0 H0 H0 H0 H0 H0 H0 H0 H0 H0 H0 H0 H0 H0 H0 H0 H0 H0$ H0$ H0$ H0$ H0$ H0$ H0$ H0$ H0$ H0$ H0$ H0$ H0$ H0$ H0$ H0$ H0$ H0$ H0$ H0$ H0$ H0$ H0$ H0$ H0$ H0$ H0$ H0$ H0$ H0$ H0$ H0$ H0$ H0$ H0$ H0$ H0$ H0$ H0$ H0$ H0$ H0$ H0$ H0$ H0$ H0$ H0$ H0$ H0$ H0$ H0$ H0$ H0$ H0$ H0$ H0$ H0$ H0$ H0$ H0$ H0$ H0$ H0$ H0$ H0$ H0$ H0$ H0$ H0$ H0$ H0$ H0$ H0$ H0$ H0$ H0$ H0$ H0$ H0$ H0$ H0$ H0$ H0$ H0$ H0$ H0$ H0$ H0$ H0$ H0$ H0$ H0$ H0$ H0$ H0$ H0$ H0$ H0$ H0$ H0$ H0$ H0$ H0$ H0$ H0$ H0$ H0$ H0$ H0$ H0$ H0$ H0$ H0$ H0$ H0$ H0$ H0$ H0$ H0$ H0$ H0$ H0$ H0$ H0$ H0$ H0$ H0$ H0$ H0$ H0$ H0$ H0$ H0$ H0$ H0$ H0$ H0$ H0$ H0$ H0$ H0$ H0$ H0$ H0$ H$ H$ H$ H$ H$ H$ H$ H$ H$ H$ H$ H$ H$ H$ H$ H$ H$ H$ H$ H$ H$ H$ H$ H$ H$ H$ H$ H$ H$ H$ H$ H$ H$ H$ H$ H$ H$ H$ H$ H$ H$ H$ H$ H$ H$ H$ H$ H$ H$ H$ H$ H$ H$ H$ H$ H$ H$ H$ H$ H$ H$ H$ H$ H$ H$ H$ H$ H$ H$ H$ H$ H$ H$ H$ H$ H$ H$ H$ H$ H$ H$ H$ H$ H$ H$ H$ H$ H$ H$ H$ H$ H$ H$ H$ H$ H$ H+$ H+$ H+$ H+$ H+$ H+$ H+$ H+$ H+$ H+$ H+$ H+$ H+$ H+$ H+$ H+$ H+$ H+$ H+$ H+$ H+$ H+$ H+$ H+$ H+$ H+$ H+$ H+$ H+$ H+$ H+$ H+$ H+$ H+$ H+$ H+$ H+$ H+$ H+$ H+$ H+$ H+$ H+$ H+$ H+$ H+$ H+$ H+$ H+$ H+$ H+$ H+$ H+$ H+$ H+$ H+$ H+$ H+$ H+$ H+$ H+$ H+$ H+$ H+$ H+$ H+$ H+$ H+$ H+$ H+$ H+$ H+$ H+$ H+$ H+$ H+$ H+$ H+$ H+$ H+$ H+$ H+$ H+$ H+$ H+$ H+$ H+$ H+$ H+$ H+$ H+$ H+$ H+$ H+$ H+$ H+$ H+$ H+$ H+$ H+$ H+$ H+$ H+$ H+$ H+$ H+$ H+$ H+$ H+$ H+$ H+$ H+$ H+$ H+$ H+$ H+$ H+$ H+$ H+$ H+$ H+$ H+$ H+$ H+$ H+$ H+$ H+$ H+$ H+$ H+$ H+$ H+$ H+$ H+$ H+$ H+$ H+$ H+$ H+$ H+$ H+$ H+$ H+$ H+$ H+$ H+$ H+$ H+$ H+$ H+$ H+$ H+$ H+$ H+$ H+$ H+$ H+$ H+$ H+$ H+$ H+$ H+$ H+$ H+$ H+$ H+$ H+$ H+$ H+$ H+$ H+$ H+$ H+$ H+$ H+$ H+$ H+$ H+$ H+$ H+$ H+$ H+$ H+$ H+$ H+$ H+$ H+$ H+$ H+$ H+$ H+$ H+$ H$ H$ H$ H$ H$ H$ H$ H$ H$ H$ H$ H$ H$ H$ H$ H$ H$ H$ H$ H$ H$ H$ H$ H$ H$ H$ H$ H$ H$ H$ H$ H$ H$ H$ H$ H$ H$ H$ H$ H$ H$ H$ H$ H$ H$ H$ H$ H$ C@H0$ C@H0$ C@H0$ C@H0$ C@H0$ C@H0$ C@H0$ C@H0$ C@H0$ C@H0$ C@H0$ C@H0$ C@H0$ C@H0$ C@H0$ C@H0$ C@H0$ C@H0$ C@H0$ C@H0$ C@H0$ C@H0$ C@H0$ C@H0$ C@H0$ C@H0$ C@H0$ C@H0$ C@H0$ C@H0$ C@H0$ C@H0$ C@H0$ C@H0$ C@H0$ C@H0$ C@H0$ C@H0$ C@H0$ C@H0$ C@H0$ C@H0$ C@H0$ C@H0$ C@H0$ C@H0$ C@H0$ C@H0$ C@H0$ C@H0$ C@H0$ C@H0$ C@H0$ C@H0$ C@H0$ C@H0$ C@H0$ C@H0$ C@H0$ C@H0$ C@H0$ C@H0$ C@H0$ C@H0$ C@H0$ C@H0$ C@H0$ C@H0$ C@H0$ C@H0$ C@H0$ C@H0$ C@H0$ C@H0$ C@H0$ C@H0$ C@H0$ C@H0$ C@H0$ C@H0$ C@H0$ C@H0$ C@H0$ C@H0$ C@H0$ C@H0$ C@H0$ C@H0$ C@H0$ C@H0$ C@H0$ C@H0$ C@H0$ C@H0$ C@H0$ C@H0$ C@H0$ C@H0$ C@H0$ C@H0$ C@H0$ C@H0$ C@H0$ C@H0$ C@H0$ C@H0$ C@H0$ C@H0$ C@H0$ C@H0$ C@H0$ C@H0$ C@H0$ C@H0$ C@H0$ C@H0$ C@H0$ C@H0$ C@H0$ C@H0$ C@H0$ C@H0$ C@H0$ C@H0$ C@H0$ C@H0$ C@H0$ C@H0$ C@H0$ C@H0$ C@H0$ C@H0$ C@H0$ C@H0$ C@H0$ C@H0$ C@H0$ C@H0$ C@H0$ C@H0$ C@H0$ C@H0$ C@H0$ C@H0$ C@H0$ C@H0$ C@H0$ C@H0$ C@H0$ C@H0$ C@H0$ C@H0$ C@H0$ C@H0$ C@H0$ C@H0$ C@H0$ C@H0$ C@H0$ C@H0$ C@H0$ C@H0$ C@H0$ C@H0$ C@H0$ C@H0$ C@H0$ C@H0$ C@H0$ C@H0$ C@H0$ C@H0$ C@H0$ C@H0$ C@H0$ C@H0$ C@H0$ C@H0$ C@H0$ C@H0$ C@H0$ C@H0$ C@H0$ C@H0$ C@H0$ C@H0$ C@H0$ C@H0$ C@H0$ C@H0$ C@H0$ C@H0$ C@H0$ C@H0$ C@H0$ C@H0$ C@H0$ C@H0$ C@H0$ C@H0$ C@H0$ C@H0$ C@H0$ C@H0$ C@H0$ C@H0$ C@H0$ C@H0$ C@H0$ C@H0$ C@H0$ C@H0$ C@H0$ C@H0$ C@H0$ C@H0$ C@H0$ C@H0$ C@H0$ C@H0$ C@H0$ C@H0$ C@H0$ C@H0$ C@H0$ C@H0$ C@H0$ C@H0$ C@H0$ C@H0$ C@H0$ C@H0$ C@H0$ C@H0$ C@H0$ C@H0$ C@H0$ C@H0$ C@H0$ C@H0$ C@H0$ C@H0$ C@H0$ C@H0$ C@H0$ C@H0$ C@H0$ C@H0$ C@H0$ C@H0$ C@H0$ C@H0$ C@H0$ C@H0$ C@H0$ C@H0$ C@H0$ C@H0$ C@H0$ C@H0$ C@H0$ C@H0$ C@H0$ C@H0$ C@H0$ C@H0$ C@H0$ C@H0$ C@H0$ C@H0$ C@H0$ C@H0$ C@H0$ C@H0$ C@H0$ C@H0$ C@H0$ C@H0$ C@H0$ C@H0$ C@H0$ C@H0$ C@H0$ C@H0$ C@H0$ C@H0$ C@H0$ C@H0$ C@H0$ C@H0$ C@H0$ C@H0$ C@H0$ C@H0$ C@H0$ C@H0$ C@H0$ C@H0$ C@H0$ C@H0$ C@H0$ C@H0$ C@H0$ C@H0$ C@H0$ C@H0$ C@H0$ C@H0$ C@H0$ C@H0$ C@H0$ C@H0$ C@H0$ C@H0$ C@H0$ C@H0$ C@H0$ C@H0$ C@H0$ C@H0$ C@H0$ C@H0$ C@H0$ C@H0$ C@H0$ C@H0$ C@H0$ C@H0$ C@H0$ C@H0$ C@H0$ C@H0$ C@H0$ C@H0$ C@H0$ C@H0$ C@H0$ C@H0$ C@H0$ C@H0$ C@H0$ C@H0$ C@H0$ C@H0$ C@H0$ C@H0$ C@H0$ C@H0$ C@H0$ C@H0$ C@H0$ C@H0$ C@H0$ C@H0$ C@H0$ C@H0$ C@H0$ C@H0$ C@H0$ C@H0$ C@H0$ C@H0$ C@H0$ C@H0$ C@H0$ C@H0$ C@H0$ C@H0$ C@H0$ C@H0$ C@H0$ C@H0$ C@H0$ C@H0$ C@H0$ C@H0$ C@H0$ C@H0$ C@H0$ C@H0$ C@H0$ C@H0$ C@H0$ C@H0$                                                                                                                                                                                                                         L L L L L L L L L L L L L L L L L L L L L L L L L L L L L L L L L L L L L L L L L L L L L L L L L L L L L L L L L L L L L L L L L L L L L L L L L L L L L L L L L L L L L L L L L L L L L L L L                         CLH0 CLH0 CLH0 CLH0 CLH0 CLH0 CLH0 CLH0 CLH0 CLH0 CLH0 CLH0 CLH0 CLH0 CLH0 CLH0 CLH0 CLH0 CLH0 CLH0 CLH0 CLH0 CLH0 CLH0 CLH0 CLH0 CLH0 CLH0 CLH0 CLH0 CLH0 CLH0 CLH0 CLH0 CLH0 CLH0 CLH0 CLH0 CLH0 CLH0 CLH0 CLH0 CLH0 CLH0 CLH0 CLH0 CLH0 CLH0 CLH0 CLH0 CLH0 CLH0 CLH0 CLH0 CLH0 CLH0 CLH0 CLH0 CLH0 CLH0 CLH0 CLH0 CLH0 CLH0 CLH0 CLH0 CLH0 CLH0 CLH0 CLH0 CLH0 CLH0 CLH0 CLH0 CLH0 CLH0 CLH0 CLH0 CLH0 CLH0 CLH0 CLH0 CLH0 CLH0 CLH0 CLH0 CLH0 CLH0 CLH0 CLH0 CLH0 CLH0 CLH0 CLH0 CLH0 CLH0 CLH0 CLH0 CLH0 CLH0 CLH0 CLH0 CLH0 CLH0 CLH0 CLH0 CLH0 CLH0 CLH0 CLH0 CLH0 CLH0 CLH0 CLH0 CLH0 CLH0 CLH0 CLH0 CLH0 CLH0 CLH0 CLH0 CLH0 CLH0 CLH0 CLH0 CLH0 CLH0 CLH0 CLH0 CLH0 CLH0 CLH0 CLH0 CLH0 CLH0 CLH0 CLH0 CLH0 CLH0 CLH0 CLH0 CLH0 CLH0 CLH0 CLH0 CLH0 CLH0 CLH0 CLH0 CLH0 CLH0 CLH0 CLH0 CLH0 CLH0 CLH0 CLH0 CLH0 CLH0 CLH0 CLH0 CLH0 CLH0 CLH0 CLH0 CLH0 CLH0 CLH0 CLH0 CLH0 CLH0 CLH0 CLH0 CLH0 CLH0 CLH0 CLH0 CLH0 CLH0 CLH0 CLH0 CLH0 CLH0 CLH0 CLH0 CLH0 CLH0 CLH0 CLH0 CLH0 CLH0 CLH CLH CLH CLH CLH CLH CLH CLH CLH CLH CLH CLH CLH CLH CLH CLH CLH CLH CLH CLH CLH CLH CLH CLH CLH CLH CLH CLH CLH CLH CLH CLH CLH CLH CLH CLH CLH CLH CLH CLH CLH CLH CLH CLH CLH CLH CLH CLH CLH2 CLH2 CLH2 CLH2 CLH2 CLH2 CLH2 CLH2 CLH2 CLH2 CLH2 CLH2 CLH2 CLH2 CLH2 CLH2 CLH2 CLH2 CLH2 CLH2 CLH2 CLH2 CLH2 CLH2 CLH2 CLH2 CLH2 CLH2 CLH2 CLH2 CLH2 CLH2 CLH2 CLH2 CLH2 CLH2 CLH2 CLH2 CLH2 CLH2 CLH2 CLH2 CLH2 CLH2 CLH2 CLH2 CLH2 CLH2 2 2 2 2 2 2 2 2 2 2 2 2 2 2 2 2 2 2 2 2 2 2 2 2 2 2 2 2 2 2 2 2 2 2 2 2 2 2 2 2 2 2 2 2 2 2 2 2 2 2 2 2 2 2 2 2 2 2 2 2 2 2 2 2 2 2 2 2 2 2 2 2 J2 J2 J2 J2 J2 J2 J2 J2 J2 J2 J2 J2 J2 J2 J2 J2 J2 J2 J2 J2 J2 J2 J2 J2 J2 J2 J2 J2 J2 J2 J2 J2 J2 J2 J2 J2 J2 J2 J2 J2 J2 J2 J2 J2 J2 J2 J2 J2 J2 J2 J2 J2 J2 J2 J2 J2 J2 J2 J2 J2 J2 J2 J2 J2 J2 J2 J2 J2 J2 J2 J2 J2 J J J J J J J J J J J J J J J J J J J J J J J J                         H4 H4 H4 H4 H4 H4 H4 H4 H4 H4 H4 H4 H4 H4 H4 H4 H4 H4 H4 H4 H4 H4 H4 H4 H4 H4 H4 H4 H4 H4 H4 H4 H4 H4 H4 H4 H4 H4 H4 H4 H4 H4 H4 H4 H4 H4 H4 H4 H4 H4 H4 H4 H4 H4 H4 H4 H4 H4 H4 H4 H4 H4 H4 H4 H4 H4 H4 H4 H4 H4 H4 H4 H4 H4 H4 H4 H4 H4 H4 H4 H4 H4 H4 H4 H4 H4 H4 H4 H4 H4 H4 H4 H4 H4 H4 H4 4 4 4 4 4 4 4 4 4 4 4 4 4 4 4 4 4 4 4 4 4 4 4 4 G4 G4 G4 G4 G4 G4 G4 G4 G4 G4 G4 G4 G4 G4 G4 G4 G4 G4 G4 G4 G4 G4 G4 G4 G4 G4 G4 G4 G4 G4 G4 G4 G4 G4 G4 G4 G4 G4 G4 G4 G4 G4 G4 G4 G4 G4 G4 G4 G4 G4 G4 G4 G4 G4 G4 G4 G4 G4 G4 G4 G4 G4 G4 G4 G4 G4 G4 G4 G4 G4 G4 G4 G G G G G G G G G G G G G G G G G G G G G G G G                         E0 E0 E0 E0 E0 E0 E0 E0 E0 E0 E0 E0 E0 E0 E0 E0 E0 E0 E0 E0 E0 E0 E0 E0 E0 E0 E0 E0 E0 E0 E0 E0 E0 E0 E0 E0 E0 E0 E0 E0 E0 E0 E0 E0 E0 E0 E0 E0 E0 E0 E0 E0 E0 E0 E0 E0 E0 E0 E0 E0 E0 E0 E0 E0 E0 E0 E0 E0 E0 E0 E0 E0 E0 E0 E0 E0 E0 E0 E0 E0 E0 E0 E0 E0 E0 E0 E0 E0 E0 E0 E0 E0 E0 E0 E0 E0 0 0 0 0 0 0 0 0 0 0 0 0 0 0 0 0 0 0 0 0 0 0 0 0 C0 C0 C0 C0 C0 C0 C0 C0 C0 C0 C0 C0 C0 C0 C0 C0 C0 C0 C0 C0 C0 C0 C0 C0 C0 C0 C0 C0 C0 C0 C0 C0 C0 C0 C0 C0 C0 C0 C0 C0 C0 C0 C0 C0 C0 C0 C0 C0 C0 C0 C0 C0 C0 C0 C0 C0 C0 C0 C0 C0 C0 C0 C0 C0 C0 C0 C0 C0 C0 C0 C0 C0 C C C C C C C C C C C C C C C C C C C C C C C C                         B2 B2 B2 B2 B2 B2 B2 B2 B2 B2 B2 B2 B2 B2 B2 B2 B2 B2 B2 B2 B2 B2 B2 B2 B2 B2 B2 B2 B2 B2 B2 B2 B2 B2 B2 B2 B2 B2 B2 B2 B2 B2 B2 B2 B2 B2 B2 B2 B2 B2 B2 B2 B2 B2 B2 B2 B2 B2 B2 B2 B2 B2 B2 B2 B2 B2 B2 B2 B2 B2 B2 B2 B2 B2 B2 B2 B2 B2 B2 B2 B2 B2 B2 B2 B2 B2 B2 B2 B2 B2 B2 B2 B2 B2 B2 B2 2 2 2 2 2 2 2 2 2 2 2 2 2 2 2 2 2 2 2 2 2 2 2 2 D2 D2 D2 D2 D2 D2 D2 D2 D2 D2 D2 D2 D2 D2 D2 D2 D2 D2 D2 D2 D2 D2 D2 D2 D2 D2 D2 D2 D2 D2 D2 D2 D2 D2 D2 D2 D2 D2 D2 D2 D2 D2 D2 D2 D2 D2 D2 D2 D2 D2 D2 D2 D2 D2 D2 D2 D2 D2 D2 D2 D2 D2 D2 D2 D2 D2 D2 D2 D2 D2 D2 D2 D D D D D D D D D D D D D D D D D D D D D D D D                         E/ E/ E/ E/ E/ E/ E/ E/ E/ E/ E/ E/ E/ E/ E/ E/ E/ E/ E/ E/ E/ E/ E/ E/ E/ E/ E/ E/ E/ E/ E/ E/ E/ E/ E/ E/ E/ E/ E/ E/ E/ E/ E/ E/ E/ E/ E/ E/ E/ E/ E/ E/ E/ E/ E/ E/ E/ E/ E/ E/ E/ E/ E/ E/ E/ E/ E/ E/ E/ E/ E/ E/ E/ E/ E/ E/ E/ E/ E/ E/ E/ E/ E/ E/ E/ E/ E/ E/ E/ E/ E/ E/ E/ E/ E/ E/ / / / / / / / / / / / / / / / / / / / / / / / / G/ G/ G/ G/ G/ G/ G/ G/ G/ G/ G/ G/ G/ G/ G/ G/ G/ G/ G/ G/ G/ G/ G/ G/ G/ G/ G/ G/ G/ G/ G/ G/ G/ G/ G/ G/ G/ G/ G/ G/ G/ G/ G/ G/ G/ G/ G/ G/ G/ G/ G/ G/ G/ G/ G/ G/ G/ G/ G/ G/ G/ G/ G/ G/ G/ G/ G/ G/ G/ G/ G/ G/ G G G G G G G G G G G G G G G G G G G G G G G G                         D4 D4 D4 D4 D4 D4 D4 D4 D4 D4 D4 D4 D4 D4 D4 D4 D4 D4 D4 D4 D4 D4 D4 D4 4 4 4 4 4 4 E4 E4 E4 E4 E4 E4 E4 E4 E4 E4 E4 E4 E4 E4 E4 E4 E4 E4 E4 E4 E4 E4 E4 E4 4 4 4 4 4 4 D4 D4 D4 D4 D4 D4 D4 D4 D4 D4 D4 D4 D4 D4 D4 D4 D4 D4 D4 D4 D4 D4 D4 D4 D4 D4 D4 D4 D4 D4 D4 D4 D4 D4 D4 D4 D D D D D D D D D D D D D D D D D D D D D D D D D2 D2 D2 D2 D2 D2 D2 D2 D2 D2 D2 D2 D2 D2 D2 D2 D2 D2 D2 D2 D2 D2 D2 D2 D2 D2 D2 D2 D2 D2 D2 D2 D2 D2 D2 D2 D2 D2 D2 D2 D2 D2 D2 D2 D2 D2 D2 D2 D2 D2 D2 D2 D2 D2 D2 D2 D2 D2 D2 D2 D2 D2 D2 D2 D2 D2 D2 D2 D2 D2 D2 D2 D2 D2 D2 D2 D2 D2 D2 D2 D2 D2 D2 D2 D2 D2 D2 D2 D2 D2 D2 D2 D2 D2 D2 D2 D D D D D D D D D D D D D D D D D D D D D D D D D5 D5 D5 D5 D5 D5 D5 D5 D5 D5 D5 D5 D5 D5 D5 D5 D5 D5 D5 D5 D5 D5 D5 D5 D5 D5 D5 D5 D5 D5 D5 D5 D5 D5 D5 D5 D5 D5 D5 D5 D5 D5 D5 D5 D5 D5 D5 D5 D5 D5 D5 D5 D5 D5 D5 D5 D5 D5 D5 D5 D5 D5 D5 D5 D5 D5 D5 D5 D5 D5 D5 D5 5 5 5 5 5 5 5 5 5 5 5 5 5 5 5 5 5 5 5 5 5 5 5 5                         E4 E4 E4 E4 E4 E4 E4 E4 E4 E4 E4 E4 E4 E4 E4 E4 E4 E4 E4 E4 E4 E4 E4 E4 E4 E4 E4 E4 E4 E4 E4 E4 E4 E4 E4 E4 E4 E4 E4 E4 E4 E4 E4 E4 E4 E4 E4 E4 E4 E4 E4 E4 E4 E4 E4 E4 E4 E4 E4 E4 E4 E4 E4 E4 E4 E4 E4 E4 E4 E4 E4 E4 E4 E4 E4 E4 E4 E4 E4 E4 E4 E4 E4 E4 E4 E4 E4 E4 E4 E4 E4 E4 E4 E4 E4 E4                         G2 G2 G2 G2 G2 G2 G2 G2 G2 G2 G2 G2 G2 G2 G2 G2 G2 G2 G2 G2 G2 G2 G2 G2 G2 G2 G2 G2 G2 G2 G2 G2 G2 G2 G2 G2 G2 G2 G2 G2 G2 G2 G2 G2 G2 G2 G2 G2 G2 G2 G2 G2 G2 G2 G2 G2 G2 G2 G2 G2 G2 G2 G2 G2 G2 G2 G2 G2 G2 G2 G2 G2 G2 G2 G2 G2 G2 G2 G2 G2 G2 G2 G2 G2 G2 G2 G2 G2 G2 G2 G2 G2 G2 G2 G2 G2 G G G G G G G G G G G G G G G G G G G G G G G G G0 G0 G0 G0 G0 G0 G0 G0 G0 G0 G0 G0 G0 G0 G0 G0 G0 G0 G0 G0 G0 G0 G0 G0 G0 G0 G0 G0 G0 G0 G0 G0 G0 G0 G0 G0 G0 G0 G0 G0 G0 G0 G0 G0 G0 G0 G0 G0 G0 G0 G0 G0 G0 G0 G0 G0 G0 G0 G0 G0 G0 G0 G0 G0 G0 G0 G0 G0 G0 G0 G0 G0 0 0 0 0 0 0 0 0 0 0 0 0 0 0 0 0 0 0 0 0 0 0 0 0                         @/ @/ @/ @/ @/ @/ @/ @/ @/ @/ @/ @/ @/ @/ @/ @/ @/ @/ @/ @/ @/ @/ @/ @/ @/ @/ @/ @/ @/ @/ @/ @/ @/ @/ @/ @/ @/ @/ @/ @/ @/ @/ @/ @/ @/ @/ @/ @/ @/ @/ @/ @/ @/ @/ @/ @/ @/ @/ @/ @/ @/ @/ @/ @/ @/ @/ @/ @/ @/ @/ @/ @/ @/ @/ @/ @/ @/ @/ @/ @/ @/ @/ @/ @/ @/ @/ @/ @/ @/ @/ @/ @/ @/ @/ @/ @/ @ @ @ @ @ @ @ @ @ @ @ @ @ @ @ @ @ @ @ @ @ @ @ @ @- @- @- @- @- @- @- @- @- @- @- @- @- @- @- @- @- @- @- @- @- @- @- @- @- @- @- @- @- @- @- @- @- @- @- @- @- @- @- @- @- @- @- @- @- @- @- @- @- @- @- @- @- @- @- @- @- @- @- @- @- @- @- @- @- @- @- @- @- @- @- @- - - - - - - - - - - - - - - - - - - - - - - - -                         J, J, J, J, J, J, J, J, J, J, J, J, J, J, J, J, J, J, J, J, J, J, J, J, J, J, J, J, J, J, J, J, J, J, J, J, J, J, J, J, J, J, J, J, J, J, J, J, J, J, J, J, J, J, J, J, J, J, J, J, J, J, J, J, J, J, J, J, J, J, J, J, J, J, J, J, J, J, J, J, J, J, J, J, J, J, J, J, J, J, J, J, J, J, J, J, J J J J J J J J J J J J J J J J J J J J J J J J J* J* J* J* J* J* J* J* J* J* J* J* J* J* J* J* J* J* J* J* J* J* J* J* J* J* J* J* J* J* J* J* J* J* J* J* J* J* J* J* J* J* J* J* J* J* J* J* J* J* J* J* J* J* J* J* J* J* J* J* J* J* J* J* J* J* J* J* J* J* J* J* * * * * * * * * * * * * * * * * * * * * * * * *                         H, H, H, H, H, H, H, H, H, H, H, H, H, H, H, H, H, H, H, H, H, H, H, H, H, H, H, H, H, H, H, H, H, H, H, H, H, H, H, H, H, H, H, H, H, H, H, H, H, H, H, H, H, H, H, H, H, H, H, H, H, H, H, H, H, H, H, H, H, H, H, H, H, H, H, H, H, H, H, H, H, H, H, H, H, H, H, H, H, H, H, H, H, H, H, H,                         G( G( G( G( G( G( G( G( G( G( G( G( G( G( G( G( G( G( G( G( G( G( G( G( G( G( G( G( G( G( G( G( G( G( G( G( G( G( G( G( G( G( G( G( G( G( G( G( G( G( G( G( G( G( G( G( G( G( G( G( G( G( G( G( G( G( G( G( G( G( G( G( G( G( G( G( G( G( G( G( G( G( G( G( G( G( G( G( G( G( G( G( G( G( G( G(                         H- H- H- H- H- H- H- H- H- H- H- H- H- H- H- H- H- H- H- H- H- H- H- H- H- H- H- H- H- H- H- H- H- H- H- H- H- H- H- H- H- H- H- H- H- H- H- H- H- H- H- H- H- H- H- H- H- H- H- H- H- H- H- H- H- H- H- H- H- H- H- H- H- H- H- H- H- H- H- H- H- H- H- H- H- H- H- H- H- H- H- H- H- H- H- H- H H H H H H H H H H H H H H H H H H H H H H H H H, H, H, H, H, H, H, H, H, H, H, H, H, H, H, H, H, H, H, H, H, H, H, H, H, H, H, H, H, H, H, H, H, H, H, H, H, H, H, H, H, H, H, H, H, H, H, H, H, H, H, H, H, H, H, H, H, H, H, H, H, H, H, H, H, H, H, H, H, H, H, H, H, H, H, H, H, H, H, H, H, H, H, H, H, H, H, H, H, H, H, H, H, H, H, H, H H H H H H H H H H H H H H H H H H H H H H H H H- H- H- H- H- H- H- H- H- H- H- H- H- H- H- H- H- H- H- H- H- H- H- H- H- H- H- H- H- H- H- H- H- H- H- H- H- H- H- H- H- H- H- H- H- H- H- H- - - - - - - - - - - - - - - - - - - - - - - - - - - - - - - - - - - - - - - - - - - - - - - - -                         G/ G/ G/ G/ G/ G/ G/ G/ G/ G/ G/ G/ G/ G/ G/ G/ G/ G/ G/ G/ G/ G/ G/ G/ G/ G/ G/ G/ G/ G/ G/ G/ G/ G/ G/ G/ G/ G/ G/ G/ G/ G/ G/ G/ G/ G/ G/ G/ G/ G/ G/ G/ G/ G/ G/ G/ G/ G/ G/ G/ G/ G/ G/ G/ G/ G/ G/ G/ G/ G/ G/ G/ G/ G/ G/ G/ G/ G/ G/ G/ G/ G/ G/ G/ G/ G/ G/ G/ G/ G/ G/ G/ G/ G/ G/ G/                         E0 E0 E0 E0 E0 E0 E0 E0 E0 E0 E0 E0 E0 E0 E0 E0 E0 E0 E0 E0 E0 E0 E0 E0 E0 E0 E0 E0 E0 E0 E0 E0 E0 E0 E0 E0 E0 E0 E0 E0 E0 E0 E0 E0 E0 E0 E0 E0 E0 E0 E0 E0 E0 E0 E0 E0 E0 E0 E0 E0 E0 E0 E0 E0 E0 E0 E0 E0 E0 E0 E0 E0 E0 E0 E0 E0 E0 E0 E0 E0 E0 E0 E0 E0 E0 E0 E0 E0 E0 E0 E0 E0 E0 E0 E0 E0                         G2 G2 G2 G2 G2 G2 G2 G2 G2 G2 G2 G2 G2 G2 G2 G2 G2 G2 G2 G2 G2 G2 G2 G2 G2 G2 G2 G2 G2 G2 G2 G2 G2 G2 G2 G2 G2 G2 G2 G2 G2 G2 G2 G2 G2 G2 G2 G2 G2 G2 G2 G2 G2 G2 G2 G2 G2 G2 G2 G2 G2 G2 G2 G2 G2 G2 G2 G2 G2 G2 G2 G2 G2 G2 G2 G2 G2 G2 G2 G2 G2 G2 G2 G2 G2 G2 G2 G2 G2 G2 G2 G2 G2 G2 G2 G2                         H4 H4 H4 H4 H4 H4 H4 H4 H4 H4 H4 H4 H4 H4 H4 H4 H4 H4 H4 H4 H4 H4 H4 H4 H4 H4 H4 H4 H4 H4 H4 H4 H4 H4 H4 H4 H4 H4 H4 H4 H4 H4 H4 H4 H4 H4 H4 H4 H4 H4 H4 H4 H4 H4 H4 H4 H4 H4 H4 H4 H4 H4 H4 H4 H4 H4 H4 H4 H4 H4 H4 H4 H4 H4 H4 H4 H4 H4 H4 H4 H4 H4 H4 H4 H4 H4 H4 H4 H4 H4 H4 H4 H4 H4 H4 H4                         J5 J5 J5 J5 J5 J5 J5 J5 J5 J5 J5 J5 J5 J5 J5 J5 J5 J5 J5 J5 J5 J5 J5 J5 J5 J5 J5 J5 J5 J5 J5 J5 J5 J5 J5 J5 J5 J5 J5 J5 J5 J5 J5 J5 J5 J5 J5 J5 J5 J5 J5 J5 J5 J5 J5 J5 J5 J5 J5 J5 J5 J5 J5 J5 J5 J5 J5 J5 J5 J5 J5 J5 J5 J5 J5 J5 J5 J5 J5 J5 J5 J5 J5 J5 J5 J5 J5 J5 J5 J5 J5 J5 J5 J5 J5 J5                         L7 L7 L7 L7 L7 L7 L7 L7 L7 L7 L7 L7 L7 L7 L7 L7 L7 L7 L7 L7 L7 L7 L7 L7 L7 L7 L7 L7 L7 L7 L7 L7 L7 L7 L7 L7 L7 L7 L7 L7 L7 L7 L7 L7 L7 L7 L7 L7 L7 L7 L7 L7 L7 L7 L7 L7 L7 L7 L7 L7 L7 L7 L7 L7 L7 L7 L7 L7 L7 L7 L7 L7 L7 L7 L7 L7 L7 L7 L7 L7 L7 L7 L7 L7 L7 L7 L7 L7 L7 L7 L7 L7 L7 L7 L7 L7                         M9 M9 M9 M9 M9 M9 M9 M9 M9 M9 M9 M9 M9 M9 M9 M9 M9 M9 M9 M9 M9 M9 M9 M9 M9 M9 M9 M9 M9 M9 M9 M9 M9 M9 M9 M9 M9 M9 M9 M9 M9 M9 M9 M9 M9 M9 M9 M9 M9 M9 M9 M9 M9 M9 M9 M9 M9 M9 M9 M9 M9 M9 M9 M9 M9 M9 M9 M9 M9 M9 M9 M9 M9 M9 M9 M9 M9 M9 M9 M9 M9 M9 M9 M9 M9 M9 M9 M9 M9 M9 M9 M9 M9 M9 M9 M9                         O: O: O: O: O: O: O: O: O: O: O: O: O: O: O: O: O: O: O: O: O: O: O: O: O: O: O: O: O: O: O: O: O: O: O: O: O: O: O: O: O: O: O: O: O: O: O: O: O: O: O: O: O: O: O: O: O: O: O: O: O: O: O: O: O: O: O: O: O: O: O: O: O: O: O: O: O: O: O: O: O: O: O: O: O: O: O: O: O: O: O: O: O: O: O: O:                         L7 L7 L7 L7 L7 L7 L7 L7 L7 L7 L7 L7 L7 L7 L7 L7 L7 L7 L7 L7 L7 L7 L7 L7 L7 L7 L7 L7 L7 L7 L7 L7 L7 L7 L7 L7 L7 L7 L7 L7 L7 L7 L7 L7 L7 L7 L7 L7 L7 L7 L7 L7 L7 L7 L7 L7 L7 L7 L7 L7 L7 L7 L7 L7 L7 L7 L7 L7 L7 L7 L7 L7 L7 L7 L7 L7 L7 L7 L7 L7 L7 L7 L7 L7 L7 L7 L7 L7 L7 L7 L7 L7 L7 L7 L7 L7                         I9 I9 I9 I9 I9 I9 I9 I9 I9 I9 I9 I9 I9 I9 I9 I9 I9 I9 I9 I9 I9 I9 I9 I9 9 9 9 9 9 9 J9 J9 J9 J9 J9 J9 J9 J9 J9 J9 J9 J9 J9 J9 J9 J9 J9 J9 J9 J9 J9 J9 J9 J9 9 9 9 9 9 9 I9 I9 I9 I9 I9 I9 I9 I9 I9 I9 I9 I9 I9 I9 I9 I9 I9 I9 I9 I9 I9 I9 I9 I9 I9 I9 I9 I9 I9 I9 I9 I9 I9 I9 I9 I9 I I I I I I I I I I I I I I I I I I I I I I I I I7 I7 I7 I7 I7 I7 I7 I7 I7 I7 I7 I7 I7 I7 I7 I7 I7 I7 I7 I7 I7 I7 I7 I7 I7 I7 I7 I7 I7 I7 I7 I7 I7 I7 I7 I7 I7 I7 I7 I7 I7 I7 I7 I7 I7 I7 I7 I7 I7 I7 I7 I7 I7 I7 I7 I7 I7 I7 I7 I7 I7 I7 I7 I7 I7 I7 I7 I7 I7 I7 I7 I7 I7 I7 I7 I7 I7 I7 I7 I7 I7 I7 I7 I7 I7 I7 I7 I7 I7 I7 I7 I7 I7 I7 I7 I7 I I I I I I I I I I I I I I I I I I I I I I I I I: I: I: I: I: I: I: I: I: I: I: I: I: I: I: I: I: I: I: I: I: I: I: I: I: I: I: I: I: I: I: I: I: I: I: I: I: I: I: I: I: I: I: I: I: I: I: I: I: I: I: I: I: I: I: I: I: I: I: I: I: I: I: I: I: I: I: I: I: I: I: I: : : : : : : : : : : : : : : : : : : : : : : : :                         J9 J9 J9 J9 J9 J9 J9 J9 J9 J9 J9 J9 J9 J9 J9 J9 J9 J9 J9 J9 J9 J9 J9 J9 J9 J9 J9 J9 J9 J9 J9 J9 J9 J9 J9 J9 J9 J9 J9 J9 J9 J9 J9 J9 J9 J9 J9 J9 J9 J9 J9 J9 J9 J9 J9 J9 J9 J9 J9 J9 J9 J9 J9 J9 J9 J9 J9 J9 J9 J9 J9 J9 J9 J9 J9 J9 J9 J9 J9 J9 J9 J9 J9 J9 J9 J9 J9 J9 J9 J9 J9 J9 J9 J9 J9 J9                         L7 L7 L7 L7 L7 L7 L7 L7 L7 L7 L7 L7 L7 L7 L7 L7 L7 L7 L7 L7 L7 L7 L7 L7 L7 L7 L7 L7 L7 L7 L7 L7 L7 L7 L7 L7 L7 L7 L7 L7 L7 L7 L7 L7 L7 L7 L7 L7 L7 L7 L7 L7 L7 L7 L7 L7 L7 L7 L7 L7 L7 L7 L7 L7 L7 L7 L7 L7 L7 L7 L7 L7 L7 L7 L7 L7 L7 L7 L7 L7 L7 L7 L7 L7 L7 L7 L7 L7 L7 L7 L7 L7 L7 L7 L7 L7 L L L L L L L L L L L L L L L L L L L L L L L L L5 L5 L5 L5 L5 L5 L5 L5 L5 L5 L5 L5 L5 L5 L5 L5 L5 L5 L5 L5 L5 L5 L5 L5 L5 L5 L5 L5 L5 L5 L5 L5 L5 L5 L5 L5 L5 L5 L5 L5 L5 L5 L5 L5 L5 L5 L5 L5 L5 L5 L5 L5 L5 L5 L5 L5 L5 L5 L5 L5 L5 L5 L5 L5 L5 L5 L5 L5 L5 L5 L5 L5 5 5 5 5 5 5 5 5 5 5 5 5 5 5 5 5 5 5 5 5 5 5 5 5                         Q4 Q4 Q4 Q4 Q4 Q4 Q4 Q4 Q4 Q4 Q4 Q4 Q4 Q4 Q4 Q4 Q4 Q4 Q4 Q4 Q4 Q4 Q4 Q4 Q4 Q4 Q4 Q4 Q4 Q4 Q4 Q4 Q4 Q4 Q4 Q4 Q4 Q4 Q4 Q4 Q4 Q4 Q4 Q4 Q4 Q4 Q4 Q4 Q4 Q4 Q4 Q4 Q4 Q4 Q4 Q4 Q4 Q4 Q4 Q4 Q4 Q4 Q4 Q4 Q4 Q4 Q4 Q4 Q4 Q4 Q4 Q4 Q4 Q4 Q4 Q4 Q4 Q4 Q4 Q4 Q4 Q4 Q4 Q4 Q4 Q4 Q4 Q4 Q4 Q4 Q4 Q4 Q4 Q4 Q4 Q4 Q Q Q Q Q Q Q Q Q Q Q Q Q Q Q Q Q Q Q Q Q Q Q Q Q2 Q2 Q2 Q2 Q2 Q2 Q2 Q2 Q2 Q2 Q2 Q2 Q2 Q2 Q2 Q2 Q2 Q2 Q2 Q2 Q2 Q2 Q2 Q2 Q2 Q2 Q2 Q2 Q2 Q2 Q2 Q2 Q2 Q2 Q2 Q2 Q2 Q2 Q2 Q2 Q2 Q2 Q2 Q2 Q2 Q2 Q2 Q2 Q2 Q2 Q2 Q2 Q2 Q2 Q2 Q2 Q2 Q2 Q2 Q2 Q2 Q2 Q2 Q2 Q2 Q2 Q2 Q2 Q2 Q2 Q2 Q2 2 2 2 2 2 2 2 2 2 2 2 2 2 2 2 2 2 2 2 2 2 2 2 2                         Q1 Q1 Q1 Q1 Q1 Q1 Q1 Q1 Q1 Q1 Q1 Q1 Q1 Q1 Q1 Q1 Q1 Q1 Q1 Q1 Q1 Q1 Q1 Q1 Q1 Q1 Q1 Q1 Q1 Q1 Q1 Q1 Q1 Q1 Q1 Q1 Q1 Q1 Q1 Q1 Q1 Q1 Q1 Q1 Q1 Q1 Q1 Q1 Q1 Q1 Q1 Q1 Q1 Q1 Q1 Q1 Q1 Q1 Q1 Q1 Q1 Q1 Q1 Q1 Q1 Q1 Q1 Q1 Q1 Q1 Q1 Q1 Q1 Q1 Q1 Q1 Q1 Q1 Q1 Q1 Q1 Q1 Q1 Q1 Q1 Q1 Q1 Q1 Q1 Q1 Q1 Q1 Q1 Q1 Q1 Q1                         O/ O/ O/ O/ O/ O/ O/ O/ O/ O/ O/ O/ O/ O/ O/ O/ O/ O/ O/ O/ O/ O/ O/ O/ O/ O/ O/ O/ O/ O/ O/ O/ O/ O/ O/ O/ O/ O/ O/ O/ O/ O/ O/ O/ O/ O/ O/ O/ O/ O/ O/ O/ O/ O/ O/ O/ O/ O/ O/ O/ O/ O/ O/ O/ O/ O/ O/ O/ O/ O/ O/ O/ O/ O/ O/ O/ O/ O/ O/ O/ O/ O/ O/ O/ O/ O/ O/ O/ O/ O/ O/ O/ O/ O/ O/ O/                         M1 M1 M1 M1 M1 M1 M1 M1 M1 M1 M1 M1 M1 M1 M1 M1 M1 M1 M1 M1 M1 M1 M1 M1 M1 M1 M1 M1 M1 M1 M1 M1 M1 M1 M1 M1 M1 M1 M1 M1 M1 M1 M1 M1 M1 M1 M1 M1 M1 M1 M1 M1 M1 M1 M1 M1 M1 M1 M1 M1 M1 M1 M1 M1 M1 M1 M1 M1 M1 M1 M1 M1 M1 M1 M1 M1 M1 M1 M1 M1 M1 M1 M1 M1 M1 M1 M1 M1 M1 M1 M1 M1 M1 M1 M1 M1                         L- L- L- L- L- L- L- L- L- L- L- L- L- L- L- L- L- L- L- L- L- L- L- L- L- L- L- L- L- L- L- L- L- L- L- L- L- L- L- L- L- L- L- L- L- L- L- L- L- L- L- L- L- L- L- L- L- L- L- L- L- L- L- L- L- L- L- L- L- L- L- L- L- L- L- L- L- L- L- L- L- L- L- L- L- L- L- L- L- L- L- L- L- L- L- L-                         M2 M2 M2 M2 M2 M2 M2 M2 M2 M2 M2 M2 M2 M2 M2 M2 M2 M2 M2 M2 M2 M2 M2 M2 2 2 2 2 2 2 L2 L2 L2 L2 L2 L2 L2 L2 L2 L2 L2 L2 L2 L2 L2 L2 L2 L2 L2 L2 L2 L2 L2 L2 2 2 2 2 2 2 J2 J2 J2 J2 J2 J2 J2 J2 J2 J2 J2 J2 J2 J2 J2 J2 J2 J2 J2 J2 J2 J2 J2 J2 2 2 2 2 2 2 L2 L2 L2 L2 L2 L2 L2 L2 L2 L2 L2 L2 L2 L2 L2 L2 L2 L2 L2 L2 L2 L2 L2 L2 2 2 2 2 2 2 M2 M2 M2 M2 M2 M2 M2 M2 M2 M2 M2 M2 M2 M2 M2 M2 M2 M2 M2 M2 M2 M2 M2 M2 M2 M2 M2 M2 M2 M2 M2 M2 M2 M2 M2 M2 M2 M2 M2 M2 M2 M2 M2 M2 M2 M2 M2 M2 M2 M2 M2 M2 M2 M2 M2 M2 M2 M2 M2 M2 M2 M2 M2 M2 M2 M2 M2 M2 M2 M2 M2 M2 M M M M M M M M M M M M M M M M M M M M M M M M M M M M M M M M M M M M M M M M M M M M M M M M M: M: M: M: M: M: M: M: M: M: M: M: M: M: M: M: M: M: M: M: M: M: M: M: M: M: M: M: M: M: M: M: M: M: M: M: M: M: M: M: M: M: M: M: M: M: M: M: M: M: M: M: M: M: M: M: M: M: M: M: M: M: M: M: M: M: M: M: M: M: M: M: : : : : : : : : : : : : : : : : : : : : : : : : : : : : : : : : : : : : : : : : : : : : : : : : O: O: O: O: O: O: O: O: O: O: O: O: O: O: O: O: O: O: O: O: O: O: O: O: O: O: O: O: O: O: O: O: O: O: O: O: O: O: O: O: O: O: O: O: O: O: O: O: O: O: O: O: O: O: O: O: O: O: O: O: O: O: O: O: O: O: O: O: O: O: O: O: O O O O O O O O O O O O O O O O O O O O O O O O                         Q5 Q5 Q5 Q5 Q5 Q5 Q5 Q5 Q5 Q5 Q5 Q5 Q5 Q5 Q5 Q5 Q5 Q5 Q5 Q5 Q5 Q5 Q5 Q5 Q5 Q5 Q5 Q5 Q5 Q5 Q5 Q5 Q5 Q5 Q5 Q5 Q5 Q5 Q5 Q5 Q5 Q5 Q5 Q5 Q5 Q5 Q5 Q5 Q5 Q5 Q5 Q5 Q5 Q5 Q5 Q5 Q5 Q5 Q5 Q5 Q5 Q5 Q5 Q5 Q5 Q5 Q5 Q5 Q5 Q5 Q5 Q5 Q5 Q5 Q5 Q5 Q5 Q5 Q5 Q5 Q5 Q5 Q5 Q5 Q5 Q5 Q5 Q5 Q5 Q5 Q5 Q5 Q5 Q5 Q5 Q5 Q5 Q5 Q5 Q5 Q5 Q5 Q5 Q5 Q5 Q5 Q5 Q5 Q5 Q5 Q5 Q5 Q5 Q5 Q5 Q5 Q5 Q5 Q5 Q5 Q5 Q5 Q5 Q5 Q5 Q5 Q5 Q5 Q5 Q5 Q5 Q5 Q5 Q5 Q5 Q5 Q5 Q5 Q5 Q5 Q5 Q5 Q5 Q5 Q5 Q5 Q5 Q5 Q5 Q5 Q5 Q5 Q5 Q5 Q5 Q5 Q5 Q5 Q5 Q5 Q5 Q5 Q5 Q5 Q5 Q5 Q5 Q5 Q5 Q5 Q5 Q5 Q5 Q5 Q5 Q5 Q5 Q5 Q5 Q5 Q5 Q5 Q5 Q5 Q5 Q5 Q5 Q5 Q5 Q5 Q5 Q5                                                 J7 J7 J7 J7 J7 J7 J7 J7 J7 J7 J7 J7 J7 J7 J7 J7 J7 J7 J7 J7 J7 J7 J7 J7 J7 J7 J7 J7 J7 J7 J7 J7 J7 J7 J7 J7 J7 J7 J7 J7 J7 J7 J7 J7 J7 J7 J7 J7 J7 J7 J7 J7 J7 J7 J7 J7 J7 J7 J7 J7 J7 J7 J7 J7 J7 J7 J7 J7 J7 J7 J7 J7 J7 J7 J7 J7 J7 J7 J7 J7 J7 J7 J7 J7 J7 J7 J7 J7 J7 J7 J7 J7 J7 J7 J7 J7 7 7 7 7 7 7 7 7 7 7 7 7 7 7 7 7 7 7 7 7 7 7 7 7 L7 L7 L7 L7 L7 L7 L7 L7 L7 L7 L7 L7 L7 L7 L7 L7 L7 L7 L7 L7 L7 L7 L7 L7 L7 L7 L7 L7 L7 L7 L7 L7 L7 L7 L7 L7 L7 L7 L7 L7 L7 L7 L7 L7 L7 L7 L7 L7 L7 L7 L7 L7 L7 L7 L7 L7 L7 L7 L7 L7 L7 L7 L7 L7 L7 L7 L7 L7 L7 L7 L7 L7 L L L L L L L L L L L L L L L L L L L L L L L L                         O9 O9 O9 O9 O9 O9 O9 O9 O9 O9 O9 O9 O9 O9 O9 O9 O9 O9 O9 O9 O9 O9 O9 O9 O9 O9 O9 O9 O9 O9 O9 O9 O9 O9 O9 O9 O9 O9 O9 O9 O9 O9 O9 O9 O9 O9 O9 O9 O9 O9 O9 O9 O9 O9 O9 O9 O9 O9 O9 O9 O9 O9 O9 O9 O9 O9 O9 O9 O9 O9 O9 O9 O9 O9 O9 O9 O9 O9 O9 O9 O9 O9 O9 O9 O9 O9 O9 O9 O9 O9 O9 O9 O9 O9 O9 O9 9 9 9 9 9 9 9 9 9 9 9 9 9 9 9 9 9 9 9 9 9 9 9 9 M9 M9 M9 M9 M9 M9 M9 M9 M9 M9 M9 M9 M9 M9 M9 M9 M9 M9 M9 M9 M9 M9 M9 M9 M9 M9 M9 M9 M9 M9 M9 M9 M9 M9 M9 M9 M9 M9 M9 M9 M9 M9 M9 M9 M9 M9 M9 M9 M9 M9 M9 M9 M9 M9 M9 M9 M9 M9 M9 M9 M9 M9 M9 M9 M9 M9 M9 M9 M9 M9 M9 M9 M M M M M M M M M M M M M M M M M M M M M M M M                         L- L- L- L- L- L- L- L- L- L- L- L- L- L- L- L- L- L- L- L- L- L- L- L- L- L- L- L- L- L- L- L- L- L- L- L- L- L- L- L- L- L- L- L- L- L- L- L- L- L- L- L- L- L- L- L- L- L- L- L- L- L- L- L- L- L- L- L- L- L- L- L- L- L- L- L- L- L- L- L- L- L- L- L- L- L- L- L- L- L- L- L- L- L- L- L- - - - - - - - - - - - - - - - - - - - - - - - - J- J- J- J- J- J- J- J- J- J- J- J- J- J- J- J- J- J- J- J- J- J- J- J- J- J- J- J- J- J- J- J- J- J- J- J- J- J- J- J- J- J- J- J- J- J- J- J- J- J- J- J- J- J- J- J- J- J- J- J- J- J- J- J- J- J- J- J- J- J- J- J- J J J J J J J J J J J J J J J J J J J J J J J J                         J& J& J& J& J& J& J& J& J& J& J& J& J& J& J& J& J& J& J& J& J& J& J& J& & & & & & & I& I& I& I& I& I& I& I& I& I& I& I& I& I& I& I& I& I& I& I& I& I& I& I& & & & & & & J& J& J& J& J& J& J& J& J& J& J& J& J& J& J& J& J& J& J& J& J& J& J& J& J& J& J& J& J& J& J& J& J& J& J& J& J& J& J& J& J& J& J& J& J& J& J& J& J& J& J& J& J& J& J& J& J& J& J& J& J& J& J& J& J& J& J& J& J& J& J& J& J& J& J& J& J& J& J& J& J& J& J& J& J& J& J& J& J& J& J& J& J& J& J& J& J& J& J& J& J& J& J& J& J& J& J& J& J& J& J& J& J& J& J& J& J& J& J& J& J& J& J& J& J& J& J& J& J& J& J& J& J J J J J J J J J J J J J J J J J J J J J J J J J J J J J J J J J J J J J J J J J J J J J J J J J9 J9 J9 J9 J9 J9 J9 J9 J9 J9 J9 J9 J9 J9 J9 J9 J9 J9 J9 J9 J9 J9 J9 J9 J9 J9 J9 J9 J9 J9 J9 J9 J9 J9 J9 J9 J9 J9 J9 J9 J9 J9 J9 J9 J9 J9 J9 J9 J9 J9 J9 J9 J9 J9 J9 J9 J9 J9 J9 J9 J9 J9 J9 J9 J9 J9 J9 J9 J9 J9 J9 J9 J9 J9 J9 J9 J9 J9 J9 J9 J9 J9 J9 J9 J9 J9 J9 J9 J9 J9 J9 J9 J9 J9 J9 J9 J J J J J J J J J J J J J J J J J J J J J J J J J7 J7 J7 J7 J7 J7 J7 J7 J7 J7 J7 J7 J7 J7 J7 J7 J7 J7 J7 J7 J7 J7 J7 J7 J7 J7 J7 J7 J7 J7 J7 J7 J7 J7 J7 J7 J7 J7 J7 J7 J7 J7 J7 J7 J7 J7 J7 J7 J7 J7 J7 J7 J7 J7 J7 J7 J7 J7 J7 J7 J7 J7 J7 J7 J7 J7 J7 J7 J7 J7 J7 J7 J7 J7 J7 J7 J7 J7 J7 J7 J7 J7 J7 J7 J7 J7 J7 J7 J7 J7 J7 J7 J7 J7 J7 J7 J J J J J J J J J J J J J J J J J J J J J J J J J5 J5 J5 J5 J5 J5 J5 J5 J5 J5 J5 J5 J5 J5 J5 J5 J5 J5 J5 J5 J5 J5 J5 J5 J5 J5 J5 J5 J5 J5 J5 J5 J5 J5 J5 J5 J5 J5 J5 J5 J5 J5 J5 J5 J5 J5 J5 J5 J5 J5 J5 J5 J5 J5 J5 J5 J5 J5 J5 J5 J5 J5 J5 J5 J5 J5 J5 J5 J5 J5 J5 J5 J5 J5 J5 J5 J5 J5 J5 J5 J5 J5 J5 J5 J5 J5 J5 J5 J5 J5 J5 J5 J5 J5 J5 J5 J J J J J J J J J J J J J J J J J J J J J J J J J4 J4 J4 J4 J4 J4 J4 J4 J4 J4 J4 J4 J4 J4 J4 J4 J4 J4 J4 J4 J4 J4 J4 J4 J4 J4 J4 J4 J4 J4 J4 J4 J4 J4 J4 J4 J4 J4 J4 J4 J4 J4 J4 J4 J4 J4 J4 J4 J4 J4 J4 J4 J4 J4 J4 J4 J4 J4 J4 J4 J4 J4 J4 J4 J4 J4 J4 J4 J4 J4 J4 J4 J4 J4 J4 J4 J4 J4 J4 J4 J4 J4 J4 J4 J4 J4 J4 J4 J4 J4 4 4 4 4 4 4                         M2 M2 M2 M2 M2 M2 M2 M2 M2 M2 M2 M2 M2 M2 M2 M2 M2 M2 M2 M2 M2 M2 M2 M2 M2 M2 M2 M2 M2 M2 M2 M2 M2 M2 M2 M2 M2 M2 M2 M2 M2 M2 M2 M2 M2 M2 M2 M2 M2 M2 M2 M2 M2 M2 M2 M2 M2 M2 M2 M2 M2 M2 M2 M2 M2 M2 M2 M2 M2 M2 M2 M2 M2 M2 M2 M2 M2 M2 M2 M2 M2 M2 M2 M2 M2 M2 M2 M2 M2 M2 M2 M2 M2 M2 M2 M2                         L0 L0 L0 L0 L0 L0 L0 L0 L0 L0 L0 L0 L0 L0 L0 L0 L0 L0 L0 L0 L0 L0 L0 L0 L0 L0 L0 L0 L0 L0 L0 L0 L0 L0 L0 L0 L0 L0 L0 L0 L0 L0 L0 L0 L0 L0 L0 L0 L0 L0 L0 L0 L0 L0 L0 L0 L0 L0 L0 L0 L0 L0 L0 L0 L0 L0 L0 L0 L0 L0 L0 L0 L0 L0 L0 L0 L0 L0 L0 L0 L0 L0 L0 L0 L0 L0 L0 L0 L0 L0 L0 L0 L0 L0 L0 L0                         J/ J/ J/ J/ J/ J/ J/ J/ J/ J/ J/ J/ J/ J/ J/ J/ J/ J/ J/ J/ J/ J/ J/ J/ J/ J/ J/ J/ J/ J/ J/ J/ J/ J/ J/ J/ J/ J/ J/ J/ J/ J/ J/ J/ J/ J/ J/ J/ J/ J/ J/ J/ J/ J/ J/ J/ J/ J/ J/ J/ J/ J/ J/ J/ J/ J/ J/ J/ J/ J/ J/ J/ J/ J/ J/ J/ J/ J/ J/ J/ J/ J/ J/ J/ J/ J/ J/ J/ J/ J/ J/ J/ J/ J/ J/ J/                         H- H- H- H- H- H- H- H- H- H- H- H- H- H- H- H- H- H- H- H- H- H- H- H- H- H- H- H- H- H- H- H- H- H- H- H- H- H- H- H- H- H- H- H- H- H- H- H- H- H- H- H- H- H- H- H- H- H- H- H- H- H- H- H- H- H- H- H- H- H- H- H- H- H- H- H- H- H- H- H- H- H- H- H- H- H- H- H- H- H- H- H- H- H- H- H-                         J+ J+ J+ J+ J+ J+ J+ J+ J+ J+ J+ J+ J+ J+ J+ J+ J+ J+ J+ J+ J+ J+ J+ J+ J+ J+ J+ J+ J+ J+ J+ J+ J+ J+ J+ J+ J+ J+ J+ J+ J+ J+ J+ J+ J+ J+ J+ J+ J+ J+ J+ J+ J+ J+ J+ J+ J+ J+ J+ J+ J+ J+ J+ J+ J+ J+ J+ J+ J+ J+ J+ J+ J+ J+ J+ J+ J+ J+ J+ J+ J+ J+ J+ J+ J+ J+ J+ J+ J+ J+ J+ J+ J+ J+ J+ J+                         G) G) G) G) G) G) G) G) G) G) G) G) G) G) G) G) G) G) G) G) G) G) G) G) G) G) G) G) G) G) G) G) G) G) G) G) G) G) G) G) G) G) G) G) G) G) G) G) G) G) G) G) G) G) G) G) G) G) G) G) G) G) G) G) G) G) G) G) G) G) G) G) G) G) G) G) G) G) G) G) G) G) G) G) G) G) G) G) G) G) G) G) G) G) G) G)                         O( O( O( O( O( O( O( O( O( O( O( O( O( O( O( O( O( O( O( O( O( O( O( O( O( O( O( O( O( O( O( O( O( O( O( O( O( O( O( O( O( O( O( O( O( O( O( O( O( O( O( O( O( O( O( O( O( O( O( O( O( O( O( O( O( O( O( O( O( O( O( O( O( O( O( O( O( O( O( O( O( O( O( O( O( O( O( O( O( O( O( O( O( O( O( O( O O O O O O O O O O O O O O O O O O O O O O O O O+ O+ O+ O+ O+ O+ O+ O+ O+ O+ O+ O+ O+ O+ O+ O+ O+ O+ O+ O+ O+ O+ O+ O+ O+ O+ O+ O+ O+ O+ O+ O+ O+ O+ O+ O+ O+ O+ O+ O+ O+ O+ O+ O+ O+ O+ O+ O+ O+ O+ O+ O+ O+ O+ O+ O+ O+ O+ O+ O+ O+ O+ O+ O+ O+ O+ O+ O+ O+ O+ O+ O+ O+ O+ O+ O+ O+ O+ O+ O+ O+ O+ O+ O+ O+ O+ O+ O+ O+ O+ O+ O+ O+ O+ O+ O+ O O O O O O O O O O O O O O O O O O O O O O O O O- O- O- O- O- O- O- O- O- O- O- O- O- O- O- O- O- O- O- O- O- O- O- O- O- O- O- O- O- O- O- O- O- O- O- O- O- O- O- O- O- O- O- O- O- O- O- O- - - - - - - - - - - - - - - - - - - - - - - - - - - - - - - - - - - - - - - - - - - - - - - - -                         M/ M/ M/ M/ M/ M/ M/ M/ M/ M/ M/ M/ M/ M/ M/ M/ M/ M/ M/ M/ M/ M/ M/ M/ M/ M/ M/ M/ M/ M/ M/ M/ M/ M/ M/ M/ M/ M/ M/ M/ M/ M/ M/ M/ M/ M/ M/ M/ M/ M/ M/ M/ M/ M/ M/ M/ M/ M/ M/ M/ M/ M/ M/ M/ M/ M/ M/ M/ M/ M/ M/ M/ M/ M/ M/ M/ M/ M/ M/ M/ M/ M/ M/ M/ M/ M/ M/ M/ M/ M/ M/ M/ M/ M/ M/ M/                         L0 L0 L0 L0 L0 L0 L0 L0 L0 L0 L0 L0 L0 L0 L0 L0 L0 L0 L0 L0 L0 L0 L0 L0 L0 L0 L0 L0 L0 L0 L0 L0 L0 L0 L0 L0 L0 L0 L0 L0 L0 L0 L0 L0 L0 L0 L0 L0 L0 L0 L0 L0 L0 L0 L0 L0 L0 L0 L0 L0 L0 L0 L0 L0 L0 L0 L0 L0 L0 L0 L0 L0 L0 L0 L0 L0 L0 L0 L0 L0 L0 L0 L0 L0 L0 L0 L0 L0 L0 L0 L0 L0 L0 L0 L0 L0                         J2 J2 J2 J2 J2 J2 J2 J2 J2 J2 J2 J2 J2 J2 J2 J2 J2 J2 J2 J2 J2 J2 J2 J2 J2 J2 J2 J2 J2 J2 J2 J2 J2 J2 J2 J2 J2 J2 J2 J2 J2 J2 J2 J2 J2 J2 J2 J2 J2 J2 J2 J2 J2 J2 J2 J2 J2 J2 J2 J2 J2 J2 J2 J2 J2 J2 J2 J2 J2 J2 J2 J2 J2 J2 J2 J2 J2 J2 J2 J2 J2 J2 J2 J2 J2 J2 J2 J2 J2 J2 J2 J2 J2 J2 J2 J2                         H4 H4 H4 H4 H4 H4 H4 H4 H4 H4 H4 H4 H4 H4 H4 H4 H4 H4 H4 H4 H4 H4 H4 H4 H4 H4 H4 H4 H4 H4 H4 H4 H4 H4 H4 H4 H4 H4 H4 H4 H4 H4 H4 H4 H4 H4 H4 H4 H4 H4 H4 H4 H4 H4 H4 H4 H4 H4 H4 H4 H4 H4 H4 H4 H4 H4 H4 H4 H4 H4 H4 H4 H4 H4 H4 H4 H4 H4 H4 H4 H4 H4 H4 H4 H4 H4 H4 H4 H4 H4 H4 H4 H4 H4 H4 H4                         G6 G6 G6 G6 G6 G6 G6 G6 G6 G6 G6 G6 G6 G6 G6 G6 G6 G6 G6 G6 G6 G6 G6 G6 G6 G6 G6 G6 G6 G6 G6 G6 G6 G6 G6 G6 G6 G6 G6 G6 G6 G6 G6 G6 G6 G6 G6 G6 G6 G6 G6 G6 G6 G6 G6 G6 G6 G6 G6 G6 G6 G6 G6 G6 G6 G6 G6 G6 G6 G6 G6 G6 G6 G6 G6 G6 G6 G6 G6 G6 G6 G6 G6 G6 G6 G6 G6 G6 G6 G6 G6 G6 G6 G6 G6 G6                         H7 H7 H7 H7 H7 H7 H7 H7 H7 H7 H7 H7 H7 H7 H7 H7 H7 H7 H7 H7 H7 H7 H7 H7 H7 H7 H7 H7 H7 H7 H7 H7 H7 H7 H7 H7 H7 H7 H7 H7 H7 H7 H7 H7 H7 H7 H7 H7 H7 H7 H7 H7 H7 H7 H7 H7 H7 H7 H7 H7 H7 H7 H7 H7 H7 H7 H7 H7 H7 H7 H7 H7 H7 H7 H7 H7 H7 H7 H7 H7 H7 H7 H7 H7 H7 H7 H7 H7 H7 H7 H7 H7 H7 H7 H7 H7                         E6 E6 E6 E6 E6 E6 E6 E6 E6 E6 E6 E6 E6 E6 E6 E6 E6 E6 E6 E6 E6 E6 E6 E6 E6 E6 E6 E6 E6 E6 E6 E6 E6 E6 E6 E6 E6 E6 E6 E6 E6 E6 E6 E6 E6 E6 E6 E6 E6 E6 E6 E6 E6 E6 E6 E6 E6 E6 E6 E6 E6 E6 E6 E6 E6 E6 E6 E6 E6 E6 E6 E6 E6 E6 E6 E6 E6 E6 E6 E6 E6 E6 E6 E6 E6 E6 E6 E6 E6 E6 E6 E6 E6 E6 E6 E6                         J4 J4 J4 J4 J4 J4 J4 J4 J4 J4 J4 J4 J4 J4 J4 J4 J4 J4 J4 J4 J4 J4 J4 J4 J4 J4 J4 J4 J4 J4 J4 J4 J4 J4 J4 J4 J4 J4 J4 J4 J4 J4 J4 J4 J4 J4 J4 J4 J4 J4 J4 J4 J4 J4 J4 J4 J4 J4 J4 J4 J4 J4 J4 J4 J4 J4 J4 J4 J4 J4 J4 J4 J4 J4 J4 J4 J4 J4 J4 J4 J4 J4 J4 J4 J4 J4 J4 J4 J4 J4 J4 J4 J4 J4 J4 J4 J J J J J J J J J J J J J J J J J J J J J J J J J2 J2 J2 J2 J2 J2 J2 J2 J2 J2 J2 J2 J2 J2 J2 J2 J2 J2 J2 J2 J2 J2 J2 J2 J2 J2 J2 J2 J2 J2 J2 J2 J2 J2 J2 J2 J2 J2 J2 J2 J2 J2 J2 J2 J2 J2 J2 J2 J2 J2 J2 J2 J2 J2 J2 J2 J2 J2 J2 J2 J2 J2 J2 J2 J2 J2 J2 J2 J2 J2 J2 J2 2 2 2 2 2 2 2 2 2 2 2 2 2 2 2 2 2 2 2 2 2 2 2 2                         H7 H7 H7 H7 H7 H7 H7 H7 H7 H7 H7 H7 H7 H7 H7 H7 H7 H7 H7 H7 H7 H7 H7 H7 7 7 7 7 7 7 J7 J7 J7 J7 J7 J7 J7 J7 J7 J7 J7 J7 J7 J7 J7 J7 J7 J7 J7 J7 J7 J7 J7 J7 7 7 7 7 7 7 H7 H7 H7 H7 H7 H7 H7 H7 H7 H7 H7 H7 H7 H7 H7 H7 H7 H7 H7 H7 H7 H7 H7 H7 H7 H7 H7 H7 H7 H7 H7 H7 H7 H7 H7 H7 H7 H7 H7 H7 H7 H7 H7 H7 H7 H7 H7 H7 7 7 7 7 7 7 7 7 7 7 7 7 G7 G7 G7 G7 G7 G7 G7 G7 G7 G7 G7 G7 G7 G7 G7 G7 G7 G7 G7 G7 G7 G7 G7 G7 G7 G7 G7 G7 G7 G7 G7 G7 G7 G7 G7 G7 G7 G7 G7 G7 G7 G7 G7 G7 G7 G7 G7 G7 G7 G7 G7 G7 G7 G7 G7 G7 G7 G7 G7 G7 G7 G7 G7 G7 G7 G7 G7 G7 G7 G7 G7 G7 G G G G G G G G G G G G G G G G G G G G G G G G                         E5 E5 E5 E5 E5 E5 E5 E5 E5 E5 E5 E5 E5 E5 E5 E5 E5 E5 E5 E5 E5 E5 E5 E5 E5 E5 E5 E5 E5 E5 E5 E5 E5 E5 E5 E5 E5 E5 E5 E5 E5 E5 E5 E5 E5 E5 E5 E5 E5 E5 E5 E5 E5 E5 E5 E5 E5 E5 E5 E5 E5 E5 E5 E5 E5 E5 E5 E5 E5 E5 E5 E5 E5 E5 E5 E5 E5 E5 E5 E5 E5 E5 E5 E5 E5 E5 E5 E5 E5 E5 E5 E5 E5 E5 E5 E5 5 5 5 5 5 5 5 5 5 5 5 5 5 5 5 5 5 5 5 5 5 5 5 5 C5 C5 C5 C5 C5 C5 C5 C5 C5 C5 C5 C5 C5 C5 C5 C5 C5 C5 C5 C5 C5 C5 C5 C5 C5 C5 C5 C5 C5 C5 C5 C5 C5 C5 C5 C5 C5 C5 C5 C5 C5 C5 C5 C5 C5 C5 C5 C5 C5 C5 C5 C5 C5 C5 C5 C5 C5 C5 C5 C5 C5 C5 C5 C5 C5 C5 C5 C5 C5 C5 C5 C5 C C C C C C C C C C C C C C C C C C C C C C C C                         E4 E4 E4 E4 E4 E4 E4 E4 E4 E4 E4 E4 E4 E4 E4 E4 E4 E4 E4 E4 E4 E4 E4 E4 E4 E4 E4 E4 E4 E4 E4 E4 E4 E4 E4 E4 E4 E4 E4 E4 E4 E4 E4 E4 E4 E4 E4 E4 E4 E4 E4 E4 E4 E4 E4 E4 E4 E4 E4 E4 E4 E4 E4 E4 E4 E4 E4 E4 E4 E4 E4 E4 E4 E4 E4 E4 E4 E4 E4 E4 E4 E4 E4 E4 E4 E4 E4 E4 E4 E4 E4 E4 E4 E4 E4 E4 4 4 4 4 4 4 4 4 4 4 4 4 4 4 4 4 4 4 4 4 4 4 4 4 G4 G4 G4 G4 G4 G4 G4 G4 G4 G4 G4 G4 G4 G4 G4 G4 G4 G4 G4 G4 G4 G4 G4 G4 G4 G4 G4 G4 G4 G4 G4 G4 G4 G4 G4 G4 G4 G4 G4 G4 G4 G4 G4 G4 G4 G4 G4 G4 G4 G4 G4 G4 G4 G4 G4 G4 G4 G4 G4 G4 G4 G4 G4 G4 G4 G4 G4 G4 G4 G4 G4 G4 G G G G G G G G G G G G G G G G G G G G G G G G                         H2 H2 H2 H2 H2 H2 H2 H2 H2 H2 H2 H2 H2 H2 H2 H2 H2 H2 H2 H2 H2 H2 H2 H2 H2 H2 H2 H2 H2 H2 H2 H2 H2 H2 H2 H2 H2 H2 H2 H2 H2 H2 H2 H2 H2 H2 H2 H2 H2 H2 H2 H2 H2 H2 H2 H2 H2 H2 H2 H2 H2 H2 H2 H2 H2 H2 H2 H2 H2 H2 H2 H2 H2 H2 H2 H2 H2 H2 H2 H2 H2 H2 H2 H2 H2 H2 H2 H2 H2 H2 H2 H2 H2 H2 H2 H2 2 2 2 2 2 2 2 2 2 2 2 2 2 2 2 2 2 2 2 2 2 2 2 2 J2 J2 J2 J2 J2 J2 J2 J2 J2 J2 J2 J2 J2 J2 J2 J2 J2 J2 J2 J2 J2 J2 J2 J2 J2 J2 J2 J2 J2 J2 J2 J2 J2 J2 J2 J2 J2 J2 J2 J2 J2 J2 J2 J2 J2 J2 J2 J2 J2 J2 J2 J2 J2 J2 J2 J2 J2 J2 J2 J2 J2 J2 J2 J2 J2 J2 J2 J2 J2 J2 J2 J2 J J J J J J J J J J J J J J J J J J J J J J J J                         L0 L0 L0 L0 L0 L0 L0 L0 L0 L0 L0 L0 L0 L0 L0 L0 L0 L0 L0 L0 L0 L0 L0 L0 L0 L0 L0 L0 L0 L0 L0 L0 L0 L0 L0 L0 L0 L0 L0 L0 L0 L0 L0 L0 L0 L0 L0 L0 L0 L0 L0 L0 L0 L0 L0 L0 L0 L0 L0 L0 L0 L0 L0 L0 L0 L0 L0 L0 L0 L0 L0 L0 L0 L0 L0 L0 L0 L0 L0 L0 L0 L0 L0 L0 L0 L0 L0 L0 L0 L0 L0 L0 L0 L0 L0 L0 0 0 0 0 0 0 0 0 0 0 0 0 0 0 0 0 0 0 0 0 0 0 0 0 G0 G0 G0 G0 G0 G0 G0 G0 G0 G0 G0 G0 G0 G0 G0 G0 G0 G0 G0 G0 G0 G0 G0 G0 G0 G0 G0 G0 G0 G0 G0 G0 G0 G0 G0 G0 G0 G0 G0 G0 G0 G0 G0 G0 G0 G0 G0 G0 G0 G0 G0 G0 G0 G0 G0 G0 G0 G0 G0 G0 G0 G0 G0 G0 G0 G0 G0 G0 G0 G0 G0 G0 G G G G G G G G G G G G G G G G G G G G G G G G                         H- H- H- H- H- H- H- H- H- H- H- H- H- H- H- H- H- H- H- H- H- H- H- H- H- H- H- H- H- H- H- H- H- H- H- H- H- H- H- H- H- H- H- H- H- H- H- H- H- H- H- H- H- H- H- H- H- H- H- H- H- H- H- H- H- H- H- H- H- H- H- H- H- H- H- H- H- H- H- H- H- H- H- H- H- H- H- H- H- H- H- H- H- H- H- H- - - - - - - - - - - - - - - - - - - - - - - - - E- E- E- E- E- E- E- E- E- E- E- E- E- E- E- E- E- E- E- E- E- E- E- E- E- E- E- E- E- E- E- E- E- E- E- E- E- E- E- E- E- E- E- E- E- E- E- E- E- E- E- E- E- E- E- E- E- E- E- E- E- E- E- E- E- E- E- E- E- E- E- E- E E E E E E E E E E E E E E E E E E E E E E E E                         B2 B2 B2 B2 B2 B2 B2 B2 B2 B2 B2 B2 B2 B2 B2 B2 B2 B2 B2 B2 B2 B2 B2 B2 2 2 2 2 2 2 C2 C2 C2 C2 C2 C2 C2 C2 C2 C2 C2 C2 C2 C2 C2 C2 C2 C2 C2 C2 C2 C2 C2 C2 2 2 2 2 2 2 B2 B2 B2 B2 B2 B2 B2 B2 B2 B2 B2 B2 B2 B2 B2 B2 B2 B2 B2 B2 B2 B2 B2 B2 B2 B2 B2 B2 B2 B2 B2 B2 B2 B2 B2 B2 B2 B2 B2 B2 B2 B2 B2 B2 B2 B2 B2 B2 2 2 2 2 2 2 2 2 2 2 2 2 @2 @2 @2 @2 @2 @2 @2 @2 @2 @2 @2 @2 @2 @2 @2 @2 @2 @2 @2 @2 @2 @2 @2 @2 @2 @2 @2 @2 @2 @2 @2 @2 @2 @2 @2 @2 @2 @2 @2 @2 @2 @2 @2 @2 @2 @2 @2 @2 @2 @2 @2 @2 @2 @2 @2 @2 @2 @2 @2 @2 @2 @2 @2 @2 @2 @2 @2 @2 @2 @2 @2 @2 @ @ @ @ @ @ @ @ @ @ @ @ @ @ @ @ @ @ @ @ @ @ @ @                         B4 B4 B4 B4 B4 B4 B4 B4 B4 B4 B4 B4 B4 B4 B4 B4 B4 B4 B4 B4 B4 B4 B4 B4 B4 B4 B4 B4 B4 B4 B4 B4 B4 B4 B4 B4 B4 B4 B4 B4 B4 B4 B4 B4 B4 B4 B4 B4 B4 B4 B4 B4 B4 B4 B4 B4 B4 B4 B4 B4 B4 B4 B4 B4 B4 B4 B4 B4 B4 B4 B4 B4 B4 B4 B4 B4 B4 B4 B4 B4 B4 B4 B4 B4 B4 B4 B4 B4 B4 B4 B4 B4 B4 B4 B4 B4 4 4 4 4 4 4 4 4 4 4 4 4 4 4 4 4 4 4 4 4 4 4 4 4 E4 E4 E4 E4 E4 E4 E4 E4 E4 E4 E4 E4 E4 E4 E4 E4 E4 E4 E4 E4 E4 E4 E4 E4 E4 E4 E4 E4 E4 E4 E4 E4 E4 E4 E4 E4 E4 E4 E4 E4 E4 E4 E4 E4 E4 E4 E4 E4 E4 E4 E4 E4 E4 E4 E4 E4 E4 E4 E4 E4 E4 E4 E4 E4 E4 E4 E4 E4 E4 E4 E4 E4 E E E E E E E E E E E E E E E E E E E E E E E E                         G2 G2 G2 G2 G2 G2 G2 G2 G2 G2 G2 G2 G2 G2 G2 G2 G2 G2 G2 G2 G2 G2 G2 G2 G2 G2 G2 G2 G2 G2 G2 G2 G2 G2 G2 G2 G2 G2 G2 G2 G2 G2 G2 G2 G2 G2 G2 G2 G2 G2 G2 G2 G2 G2 G2 G2 G2 G2 G2 G2 G2 G2 G2 G2 G2 G2 G2 G2 G2 G2 G2 G2 G2 G2 G2 G2 G2 G2 G2 G2 G2 G2 G2 G2 G2 G2 G2 G2 G2 G2 G2 G2 G2 G2 G2 G2 2 2 2 2 2 2 2 2 2 2 2 2 2 2 2 2 2 2 2 2 2 2 2 2 H2 H2 H2 H2 H2 H2 H2 H2 H2 H2 H2 H2 H2 H2 H2 H2 H2 H2 H2 H2 H2 H2 H2 H2 H2 H2 H2 H2 H2 H2 H2 H2 H2 H2 H2 H2 H2 H2 H2 H2 H2 H2 H2 H2 H2 H2 H2 H2 H2 H2 H2 H2 H2 H2 H2 H2 H2 H2 H2 H2 H2 H2 H2 H2 H2 H2 H2 H2 H2 H2 H2 H2 H H H H H H H H H H H H H H H H H H H H H H H H                         J0 J0 J0 J0 J0 J0 J0 J0 J0 J0 J0 J0 J0 J0 J0 J0 J0 J0 J0 J0 J0 J0 J0 J0 J0 J0 J0 J0 J0 J0 J0 J0 J0 J0 J0 J0 J0 J0 J0 J0 J0 J0 J0 J0 J0 J0 J0 J0 J0 J0 J0 J0 J0 J0 J0 J0 J0 J0 J0 J0 J0 J0 J0 J0 J0 J0 J0 J0 J0 J0 J0 J0 J0 J0 J0 J0 J0 J0 J0 J0 J0 J0 J0 J0 J0 J0 J0 J0 J0 J0 J0 J0 J0 J0 J0 J0 0 0 0 0 0 0 0 0 0 0 0 0 0 0 0 0 0 0 0 0 0 0 0 0 L0 L0 L0 L0 L0 L0 L0 L0 L0 L0 L0 L0 L0 L0 L0 L0 L0 L0 L0 L0 L0 L0 L0 L0 L0 L0 L0 L0 L0 L0 L0 L0 L0 L0 L0 L0 L0 L0 L0 L0 L0 L0 L0 L0 L0 L0 L0 L0 L0 L0 L0 L0 L0 L0 L0 L0 L0 L0 L0 L0 L0 L0 L0 L0 L0 L0 L0 L0 L0 L0 L0 L0 L L L L L L L L L L L L L L L L L L L L L L L L                         M/ M/ M/ M/ M/ M/ M/ M/ M/ M/ M/ M/ M/ M/ M/ M/ M/ M/ M/ M/ M/ M/ M/ M/ M/ M/ M/ M/ M/ M/ M/ M/ M/ M/ M/ M/ M/ M/ M/ M/ M/ M/ M/ M/ M/ M/ M/ M/ M/ M/ M/ M/ M/ M/ M/ M/ M/ M/ M/ M/ M/ M/ M/ M/ M/ M/ M/ M/ M/ M/ M/ M/ M/ M/ M/ M/ M/ M/ M/ M/ M/ M/ M/ M/ M/ M/ M/ M/ M/ M/ M/ M/ M/ M/ M/ M/ / / / / / / / / / / / / / / / / / / / / / / / / L/ L/ L/ L/ L/ L/ L/ L/ L/ L/ L/ L/ L/ L/ L/ L/ L/ L/ L/ L/ L/ L/ L/ L/ L/ L/ L/ L/ L/ L/ L/ L/ L/ L/ L/ L/ L/ L/ L/ L/ L/ L/ L/ L/ L/ L/ L/ L/ L/ L/ L/ L/ L/ L/ L/ L/ L/ L/ L/ L/ L/ L/ L/ L/ L/ L/ L/ L/ L/ L/ L/ L/ L L L L L L L L L L L L L L L L L L L L L L L L                         Q0 Q0 Q0 Q0 Q0 Q0 Q0 Q0 Q0 Q0 Q0 Q0 Q0 Q0 Q0 Q0 Q0 Q0 Q0 Q0 Q0 Q0 Q0 Q0 Q0 Q0 Q0 Q0 Q0 Q0 Q0 Q0 Q0 Q0 Q0 Q0 Q0 Q0 Q0 Q0 Q0 Q0 Q0 Q0 Q0 Q0 Q0 Q0 Q0 Q0 Q0 Q0 Q0 Q0 Q0 Q0 Q0 Q0 Q0 Q0 Q0 Q0 Q0 Q0 Q0 Q0 Q0 Q0 Q0 Q0 Q0 Q0 Q0 Q0 Q0 Q0 Q0 Q0 Q0 Q0 Q0 Q0 Q0 Q0 Q0 Q0 Q0 Q0 Q0 Q0 Q0 Q0 Q0 Q0 Q0 Q0 Q Q Q Q Q Q Q Q Q Q Q Q Q Q Q Q Q Q Q Q Q Q Q Q Q2 Q2 Q2 Q2 Q2 Q2 Q2 Q2 Q2 Q2 Q2 Q2 Q2 Q2 Q2 Q2 Q2 Q2 Q2 Q2 Q2 Q2 Q2 Q2 Q2 Q2 Q2 Q2 Q2 Q2 Q2 Q2 Q2 Q2 Q2 Q2 Q2 Q2 Q2 Q2 Q2 Q2 Q2 Q2 Q2 Q2 Q2 Q2 Q2 Q2 Q2 Q2 Q2 Q2 Q2 Q2 Q2 Q2 Q2 Q2 Q2 Q2 Q2 Q2 Q2 Q2 Q2 Q2 Q2 Q2 Q2 Q2 2 2 2 2 2 2 2 2 2 2 2 2 2 2 2 2 2 2 2 2 2 2 2 2                         P4 P4 P4 P4 P4 P4 P4 P4 P4 P4 P4 P4 P4 P4 P4 P4 P4 P4 P4 P4 P4 P4 P4 P4 4 4 4 4 4 4 N4 N4 N4 N4 N4 N4 N4 N4 N4 N4 N4 N4 N4 N4 N4 N4 N4 N4 N4 N4 N4 N4 N4 N4 4 4 4 4 4 4 P4 P4 P4 P4 P4 P4 P4 P4 P4 P4 P4 P4 P4 P4 P4 P4 P4 P4 P4 P4 P4 P4 P4 P4 P4 P4 P4 P4 P4 P4 P4 P4 P4 P4 P4 P4 P P P P P P P P P P P P P P P P P P P P P P P P P2 P2 P2 P2 P2 P2 P2 P2 P2 P2 P2 P2 P2 P2 P2 P2 P2 P2 P2 P2 P2 P2 P2 P2 P2 P2 P2 P2 P2 P2 P2 P2 P2 P2 P2 P2 P2 P2 P2 P2 P2 P2 P2 P2 P2 P2 P2 P2 P2 P2 P2 P2 P2 P2 P2 P2 P2 P2 P2 P2 P2 P2 P2 P2 P2 P2 P2 P2 P2 P2 P2 P2 P2 P2 P2 P2 P2 P2 P2 P2 P2 P2 P2 P2 P2 P2 P2 P2 P2 P2 P2 P2 P2 P2 P2 P2 P P P P P P P P P P P P P P P P P P P P P P P P P5 P5 P5 P5 P5 P5 P5 P5 P5 P5 P5 P5 P5 P5 P5 P5 P5 P5 P5 P5 P5 P5 P5 P5 P5 P5 P5 P5 P5 P5 P5 P5 P5 P5 P5 P5 P5 P5 P5 P5 P5 P5 P5 P5 P5 P5 P5 P5 P5 P5 P5 P5 P5 P5 P5 P5 P5 P5 P5 P5 P5 P5 P5 P5 P5 P5 P5 P5 P5 P5 P5 P5 5 5 5 5 5 5 5 5 5 5 5 5 5 5 5 5 5 5 5 5 5 5 5 5                         Q4 Q4 Q4 Q4 Q4 Q4 Q4 Q4 Q4 Q4 Q4 Q4 Q4 Q4 Q4 Q4 Q4 Q4 Q4 Q4 Q4 Q4 Q4 Q4 Q4 Q4 Q4 Q4 Q4 Q4 Q4 Q4 Q4 Q4 Q4 Q4 Q4 Q4 Q4 Q4 Q4 Q4 Q4 Q4 Q4 Q4 Q4 Q4 Q4 Q4 Q4 Q4 Q4 Q4 Q4 Q4 Q4 Q4 Q4 Q4 Q4 Q4 Q4 Q4 Q4 Q4 Q4 Q4 Q4 Q4 Q4 Q4 Q4 Q4 Q4 Q4 Q4 Q4 Q4 Q4 Q4 Q4 Q4 Q4 Q4 Q4 Q4 Q4 Q4 Q4 Q4 Q4 Q4 Q4 Q4 Q4                         S2 S2 S2 S2 S2 S2 S2 S2 S2 S2 S2 S2 S2 S2 S2 S2 S2 S2 S2 S2 S2 S2 S2 S2 S2 S2 S2 S2 S2 S2 S2 S2 S2 S2 S2 S2 S2 S2 S2 S2 S2 S2 S2 S2 S2 S2 S2 S2 S2 S2 S2 S2 S2 S2 S2 S2 S2 S2 S2 S2 S2 S2 S2 S2 S2 S2 S2 S2 S2 S2 S2 S2 S2 S2 S2 S2 S2 S2 S2 S2 S2 S2 S2 S2 S2 S2 S2 S2 S2 S2 S2 S2 S2 S2 S2 S2                         L0 L0 L0 L0 L0 L0 L0 L0 L0 L0 L0 L0 L0 L0 L0 L0 L0 L0 L0 L0 L0 L0 L0 L0 L0 L0 L0 L0 L0 L0 L0 L0 L0 L0 L0 L0 L0 L0 L0 L0 L0 L0 L0 L0 L0 L0 L0 L0 L0 L0 L0 L0 L0 L0 L0 L0 L0 L0 L0 L0 L0 L0 L0 L0 L0 L0 L0 L0 L0 L0 L0 L0 L0 L0 L0 L0 L0 L0 L0 L0 L0 L0 L0 L0 L0 L0 L0 L0 L0 L0 L0 L0 L0 L0 L0 L0                         T/ T/ T/ T/ T/ T/ T/ T/ T/ T/ T/ T/ T/ T/ T/ T/ T/ T/ T/ T/ T/ T/ T/ T/ T/ T/ T/ T/ T/ T/ T/ T/ T/ T/ T/ T/ T/ T/ T/ T/ T/ T/ T/ T/ T/ T/ T/ T/ T/ T/ T/ T/ T/ T/ T/ T/ T/ T/ T/ T/ T/ T/ T/ T/ T/ T/ T/ T/ T/ T/ T/ T/ T/ T/ T/ T/ T/ T/ T/ T/ T/ T/ T/ T/ T/ T/ T/ T/ T/ T/ T/ T/ T/ T/ T/ T/ T T T T T T T T T T T T T T T T T T T T T T T T T- T- T- T- T- T- T- T- T- T- T- T- T- T- T- T- T- T- T- T- T- T- T- T- T- T- T- T- T- T- T- T- T- T- T- T- T- T- T- T- T- T- T- T- T- T- T- T- T- T- T- T- T- T- T- T- T- T- T- T- T- T- T- T- T- T- T- T- T- T- T- T- - - - - - - - - - - - - - - - - - - - - - - - -                         T2 T2 T2 T2 T2 T2 T2 T2 T2 T2 T2 T2 T2 T2 T2 T2 T2 T2 T2 T2 T2 T2 T2 T2 T2 T2 T2 T2 T2 T2 T2 T2 T2 T2 T2 T2 T2 T2 T2 T2 T2 T2 T2 T2 T2 T2 T2 T2 T2 T2 T2 T2 T2 T2 T2 T2 T2 T2 T2 T2 T2 T2 T2 T2 T2 T2 T2 T2 T2 T2 T2 T2 T2 T2 T2 T2 T2 T2 T2 T2 T2 T2 T2 T2 T2 T2 T2 T2 T2 T2 T2 T2 T2 T2 T2 T2 2 2 2 2 2 2 2 2 2 2 2 2 2 2 2 2 2 2 2 2 2 2 2 2 S2 S2 S2 S2 S2 S2 S2 S2 S2 S2 S2 S2 S2 S2 S2 S2 S2 S2 S2 S2 S2 S2 S2 S2 S2 S2 S2 S2 S2 S2 S2 S2 S2 S2 S2 S2 S2 S2 S2 S2 S2 S2 S2 S2 S2 S2 S2 S2 S2 S2 S2 S2 S2 S2 S2 S2 S2 S2 S2 S2 S2 S2 S2 S2 S2 S2 S2 S2 S2 S2 S2 S2 S S S S S S S S S S S S S S S S S S S S S S S S                         Q4 Q4 Q4 Q4 Q4 Q4 Q4 Q4 Q4 Q4 Q4 Q4 Q4 Q4 Q4 Q4 Q4 Q4 Q4 Q4 Q4 Q4 Q4 Q4 Q4 Q4 Q4 Q4 Q4 Q4 Q4 Q4 Q4 Q4 Q4 Q4 Q4 Q4 Q4 Q4 Q4 Q4 Q4 Q4 Q4 Q4 Q4 Q4 Q4 Q4 Q4 Q4 Q4 Q4 Q4 Q4 Q4 Q4 Q4 Q4 Q4 Q4 Q4 Q4 Q4 Q4 Q4 Q4 Q4 Q4 Q4 Q4 Q4 Q4 Q4 Q4 Q4 Q4 Q4 Q4 Q4 Q4 Q4 Q4 Q4 Q4 Q4 Q4 Q4 Q4 Q4 Q4 Q4 Q4 Q4 Q4 4 4 4 4 4 4 4 4 4 4 4 4 4 4 4 4 4 4 4 4 4 4 4 4 P4 P4 P4 P4 P4 P4 P4 P4 P4 P4 P4 P4 P4 P4 P4 P4 P4 P4 P4 P4 P4 P4 P4 P4 P4 P4 P4 P4 P4 P4 P4 P4 P4 P4 P4 P4 P4 P4 P4 P4 P4 P4 P4 P4 P4 P4 P4 P4 P4 P4 P4 P4 P4 P4 P4 P4 P4 P4 P4 P4 P4 P4 P4 P4 P4 P4 P4 P4 P4 P4 P4 P4 P P P P P P P P P P P P P P P P P P P P P P P P                         Q5 Q5 Q5 Q5 Q5 Q5 Q5 Q5 Q5 Q5 Q5 Q5 Q5 Q5 Q5 Q5 Q5 Q5 Q5 Q5 Q5 Q5 Q5 Q5 Q5 Q5 Q5 Q5 Q5 Q5 Q5 Q5 Q5 Q5 Q5 Q5 Q5 Q5 Q5 Q5 Q5 Q5 Q5 Q5 Q5 Q5 Q5 Q5 Q5 Q5 Q5 Q5 Q5 Q5 Q5 Q5 Q5 Q5 Q5 Q5 Q5 Q5 Q5 Q5 Q5 Q5 Q5 Q5 Q5 Q5 Q5 Q5 Q5 Q5 Q5 Q5 Q5 Q5 Q5 Q5 Q5 Q5 Q5 Q5 Q5 Q5 Q5 Q5 Q5 Q5 Q5 Q5 Q5 Q5 Q5 Q5                         L1 L1 L1 L1 L1 L1 L1 L1 L1 L1 L1 L1 L1 L1 L1 L1 L1 L1 L1 L1 L1 L1 L1 L1 L1 L1 L1 L1 L1 L1 L1 L1 L1 L1 L1 L1 L1 L1 L1 L1 L1 L1 L1 L1 L1 L1 L1 L1 L1 L1 L1 L1 L1 L1 L1 L1 L1 L1 L1 L1 L1 L1 L1 L1 L1 L1 L1 L1 L1 L1 L1 L1 L1 L1 L1 L1 L1 L1 L1 L1 L1 L1 L1 L1 L1 L1 L1 L1 L1 L1 L1 L1 L1 L1 L1 L1                         M2 M2 M2 M2 M2 M2 M2 M2 M2 M2 M2 M2 M2 M2 M2 M2 M2 M2 M2 M2 M2 M2 M2 M2 M2 M2 M2 M2 M2 M2 M2 M2 M2 M2 M2 M2 M2 M2 M2 M2 M2 M2 M2 M2 M2 M2 M2 M2 M2 M2 M2 M2 M2 M2 M2 M2 M2 M2 M2 M2 M2 M2 M2 M2 M2 M2 M2 M2 M2 M2 M2 M2 M2 M2 M2 M2 M2 M2 M2 M2 M2 M2 M2 M2 M2 M2 M2 M2 M2 M2 M2 M2 M2 M2 M2 M2                         J9 J9 J9 J9 J9 J9 J9 J9 J9 J9 J9 J9 J9 J9 J9 J9 J9 J9 J9 J9 J9 J9 J9 J9 J9 J9 J9 J9 J9 J9 J9 J9 J9 J9 J9 J9 J9 J9 J9 J9 J9 J9 J9 J9 J9 J9 J9 J9 J9 J9 J9 J9 J9 J9 J9 J9 J9 J9 J9 J9 J9 J9 J9 J9 J9 J9 J9 J9 J9 J9 J9 J9 J9 J9 J9 J9 J9 J9 J9 J9 J9 J9 J9 J9 J9 J9 J9 J9 J9 J9 J9 J9 J9 J9 J9 J9                         L8 L8 L8 L8 L8 L8 L8 L8 L8 L8 L8 L8 L8 L8 L8 L8 L8 L8 L8 L8 L8 L8 L8 L8 8 8 8 8 8 8 J8 J8 J8 J8 J8 J8 J8 J8 J8 J8 J8 J8 J8 J8 J8 J8 J8 J8 J8 J8 J8 J8 J8 J8 8 8 8 8 8 8 L8 L8 L8 L8 L8 L8 L8 L8 L8 L8 L8 L8 L8 L8 L8 L8 L8 L8 L8 L8 L8 L8 L8 L8 L8 L8 L8 L8 L8 L8 L8 L8 L8 L8 L8 L8 L L L L L L L L L L L L L L L L L L L L L L L L L4 L4 L4 L4 L4 L4 L4 L4 L4 L4 L4 L4 L4 L4 L4 L4 L4 L4 L4 L4 L4 L4 L4 L4 L4 L4 L4 L4 L4 L4 L4 L4 L4 L4 L4 L4 L4 L4 L4 L4 L4 L4 L4 L4 L4 L4 L4 L4 L4 L4 L4 L4 L4 L4 L4 L4 L4 L4 L4 L4 L4 L4 L4 L4 L4 L4 L4 L4 L4 L4 L4 L4 L4 L4 L4 L4 L4 L4 L4 L4 L4 L4 L4 L4 L4 L4 L4 L4 L4 L4 L4 L4 L4 L4 L4 L4 L L L L L L L L L L L L L L L L L L L L L L L L L9 L9 L9 L9 L9 L9 L9 L9 L9 L9 L9 L9 L9 L9 L9 L9 L9 L9 L9 L9 L9 L9 L9 L9 L9 L9 L9 L9 L9 L9 L9 L9 L9 L9 L9 L9 L9 L9 L9 L9 L9 L9 L9 L9 L9 L9 L9 L9 L9 L9 L9 L9 L9 L9 L9 L9 L9 L9 L9 L9 L9 L9 L9 L9 L9 L9 L9 L9 L9 L9 L9 L9 9 9 9 9 9 9 9 9 9 9 9 9 9 9 9 9 9 9 9 9 9 9 9 9                         M2 M2 M2 M2 M2 M2 M2 M2 M2 M2 M2 M2 M2 M2 M2 M2 M2 M2 M2 M2 M2 M2 M2 M2 M2 M2 M2 M2 M2 M2 M2 M2 M2 M2 M2 M2 M2 M2 M2 M2 M2 M2 M2 M2 M2 M2 M2 M2 M2 M2 M2 M2 M2 M2 M2 M2 M2 M2 M2 M2 M2 M2 M2 M2 M2 M2 M2 M2 M2 M2 M2 M2 M2 M2 M2 M2 M2 M2 M2 M2 M2 M2 M2 M2 M2 M2 M2 M2 M2 M2 M2 M2 M2 M2 M2 M2                         GD4 GD4 GD4 GD4 GD4 GD4 GD4 GD4 GD4 GD4 GD4 GD4 GD4 GD4 GD4 GD4 GD4 GD4 GD4 GD4 GD4 GD4 GD4 GD4 D4 D4 D4 D4 D4 D4 HD4 HD4 HD4 HD4 HD4 HD4 HD4 HD4 HD4 HD4 HD4 HD4 HD4 HD4 HD4 HD4 HD4 HD4 HD4 HD4 HD4 HD4 HD4 HD4 D4 D4 D4 D4 D4 D4 GD4 GD4 GD4 GD4 GD4 GD4 GD4 GD4 GD4 GD4 GD4 GD4 GD4 GD4 GD4 GD4 GD4 GD4 GD4 GD4 GD4 GD4 GD4 GD4 GD4 GD4 GD4 GD4 GD4 GD4 GD4 GD4 GD4 GD4 GD4 GD4 GD4 GD4 GD4 GD4 GD4 GD4 GD4 GD4 GD4 GD4 GD4 GD4 GD4 GD4 GD4 GD4 GD4 GD4 GD4 GD4 GD4 GD4 GD4 GD4 GD4 GD4 GD4 GD4 GD4 GD4 GD4 GD4 GD4 GD4 GD4 GD4 GD4 GD4 GD4 GD4 GD4 GD4 GD4 GD4 GD4 GD4 GD4 GD4 GD4 GD4 GD4 GD4 GD4 GD4 GD4 GD4 GD4 GD4 GD4 GD4 GD4 GD4 GD4 GD4 GD4 GD4 GD4 GD4 GD4 GD4 GD4 GD4 GD4 GD4 GD4 GD4 GD4 GD4 GD4 GD4 GD4 GD4 GD4 GD4 GD4 GD4 GD4 GD4 GD4 GD4 GD4 GD4 GD4 GD4 GD4 GD4 GD GD GD GD GD GD GD GD GD GD GD GD GD GD GD GD GD GD GD GD GD GD GD GD GD GD GD GD GD GD GD GD GD GD GD GD GD GD GD GD GD GD GD GD GD GD GD GD GD( GD( GD( GD( GD( GD( GD( GD( GD( GD( GD( GD( GD( GD( GD( GD( GD( GD( GD( GD( GD( GD( GD( GD( GD( GD( GD( GD( GD( GD( GD( GD( GD( GD( GD( GD( GD( GD( GD( GD( GD( GD( GD( GD( GD( GD( GD( GD( GD( GD( GD( GD( GD( GD( GD( GD( GD( GD( GD( GD( GD( GD( GD( GD( GD( GD( GD( GD( GD( GD( GD( GD( D( D( D( D( D( D( D( D( D( D( D( D( D( D( D( D( D( D( D( D( D( D( D( D( D( D( D( D( D( D( D( D( D( D( D( D( D( D( D( D( D( D( D( D( D( D( D( D( DE( DE( DE( DE( DE( DE( DE( DE( DE( DE( DE( DE( DE( DE( DE( DE( DE( DE( DE( DE( DE( DE( DE( DE( E( E( E( E( E( E( E( E( E( E( E( E( E( E( E( E( E( E( E( E( E( E( E( E( E( E( E( E( E( E( E( E( E( E( E( E( E( E( E( E( E( E( E( E( E( E( E( E( E E E E E E E E E E E E E E E E E E E E E E E E                         E- E- E- E- E- E- E- E- E- E- E- E- E- E- E- E- E- E- E- E- E- E- E- E- E- E- E- E- E- E- E- E- E- E- E- E- E- E- E- E- E- E- E- E- E- E- E- E- E- E- E- E- E- E- E- E- E- E- E- E- E- E- E- E- E- E- E- E- E- E- E- E- E- E- E- E- E- E- E- E- E- E- E- E- E- E- E- E- E- E- E- E- E- E- E- E- E- E- E- E- E- E- E- E- E- E- E- E- E- E- E- E- E- E- E- E- E- E- E- E- E- E- E- E- E- E- E- E- E- E- E- E- E- E- E- E- E- E- E- E- E- E- E- E- E- E- E- E- E- E- E- E- E- E- E- E- E- E- E- E- E- E- E- E- E- E- E- E- E- E- E- E- E- E- E- E- E- E- E- E- E- E- E- E- E- E- E- E- E- E- E- E- E- E- E- E- E- E- E- E- E- E- E- E- E- E- E- E- E- E- E- E- E- E- E- E- E- E- E- E- E- E- E- E- E- E- E- E- E- E- E- E- E- E- E- E- E- E- E- E- E0- E0- E0- E0- E0- E0- E0- E0- E0- E0- E0- E0- E0- E0- E0- E0- E0- E0- E0- E0- E0- E0- E0- E0- E0- E0- E0- E0- E0- E0- E0- E0- E0- E0- E0- E0- E0- E0- E0- E0- E0- E0- E0- E0- E0- E0- E0- E0- E0- E0- E0- E0- E0- E0- E0- E0- E0- E0- E0- E0- E0- E0- E0- E0- E0- E0- E0- E0- E0- E0- E0- E0- E0- E0- E0- E0- E0- E0- E0- E0- E0- E0- E0- E0- E0- E0- E0- E0- E0- E0- E0- E0- E0- E0- E0- E0- E0- E0- E0- E0- E0- E0- E0- E0- E0- E0- E0- E0- E0- E0- E0- E0- E0- E0- E0- E0- E0- E0- E0- E0- E0- E0- E0- E0- E0- E0- E0- E0- E0- E0- E0- E0- E0- E0- E0- E0- E0- E0- E0- E0- E0- E0- E0- E0- E0- E0- E0- E0- E0- E0- E0- E0- E0- E0- E0- E0- E0- E0- E0- E0- E0- E0- E0- E0- E0- E0- E0- E0- E0- E0- E0- E0- E0- E0- E0- E0- E0- E0- E0- E0- E0- E0- E0- E0- E0- E0- E0- E0- E0- E0- E0- E0- E- E- E- E- E- E- E- E- E- E- E- E- E- E- E- E- E- E- E- E- E- E- E- E- E- E- E- E- E- E- E- E- E- E- E- E- E- E- E- E- E- E- E- E- E- E- E- E- @<E4- @<E4- @<E4- @<E4- @<E4- @<E4- @<E4- @<E4- @<E4- @<E4- @<E4- @<E4- @<E4- @<E4- @<E4- @<E4- @<E4- @<E4- @<E4- @<E4- @<E4- @<E4- @<E4- @<E4- @<E4- @<E4- @<E4- @<E4- @<E4- @<E4- @<E4- @<E4- @<E4- @<E4- @<E4- @<E4- @<E4- @<E4- @<E4- @<E4- @<E4- @<E4- @<E4- @<E4- @<E4- @<E4- @<E4- @<E4- @<E4- @<E4- @<E4- @<E4- @<E4- @<E4- @<E4- @<E4- @<E4- @<E4- @<E4- @<E4- @<E4- @<E4- @<E4- @<E4- @<E4- @<E4- @<E4- @<E4- @<E4- @<E4- @<E4- @<E4- @<E4- @<E4- @<E4- @<E4- @<E4- @<E4- @<E4- @<E4- @<E4- @<E4- @<E4- @<E4- @<E4- @<E4- @<E4- @<E4- @<E4- @<E4- @<E4- @<E4- @<E4- @<E4- @<E4- @<E4- @<E4- @<E4- @<E4- @<E4- @<E4- @<E4- @<E4- @<E4- @<E4- @<E4- @<E4- @<E4- @<E4- @<E4- @<E4- @<E4- @<E4- @<E4- @<E4- @<E4- @<E4- @<E4- @<E4- @<E4- @<E4- @<E4- @<E4- @<E4- @<E4- @<E4- @<E4- @<E4- @<E4- @<E4- @<E4- @<E4- @<E4- @<E4- @<E4- @<E4- @<E4- @<E4- @<E4- @<E4- @<E4- @<E4- @<E4- @<E4- @<E4- @<E4- @<E4- @<E4- @<E4- @<E4- @<E4- @<E4- @<E4- @<E4- @<E4- @<E4- @<E4- @<E4- @<E4- @<E4- @<E4- @<E4- @<E4- @<E4- @<E4- @<E4- @<E4- @<E4- @<E4- @<E4- @<E4- @<E4- @<E4- @<E4- @<E4- @<E4- @<E4- @<E4- @<E4- @<E4- @<E4- @<E4- @<E4- @<E4- @<E4- @<E4- @<E4- @<E4- @<E4- @<E4- @<E4- @<E4- @<E- @<E- @<E- @<E- @<E- @<E- @<E- @<E- @<E- @<E- @<E- @<E- @<E- @<E- @<E- @<E- @<E- @<E- @<E- @<E- @<E- @<E- @<E- @<E- @<E- @<E- @<E- @<E- @<E- @<E- @<E- @<E- @<E- @<E- @<E- @<E- @<E- @<E- @<E- @<E- @<E- @<E- @<E- @<E- @<E- @<E- @<E- @<E- @<E9- @<E9- @<E9- @<E9- @<E9- @<E9- @<E9- @<E9- @<E9- @<E9- @<E9- @<E9- @<E9- @<E9- @<E9- @<E9- @<E9- @<E9- @<E9- @<E9- @<E9- @<E9- @<E9- @<E9- @<E9- @<E9- @<E9- @<E9- @<E9- @<E9- @<E9- @<E9- @<E9- @<E9- @<E9- @<E9- @<E9- @<E9- @<E9- @<E9- @<E9- @<E9- @<E9- @<E9- @<E9- @<E9- @<E9- @<E9- @<E9- @<E9- @<E9- @<E9- @<E9- @<E9- @<E9- @<E9- @<E9- @<E9- @<E9- @<E9- @<E9- @<E9- @<E9- @<E9- @<E9- @<E9- @<E9- @<E9- @<E9- @<E9- @<E9- @<E9- @<E9- @<E9- @<E9- @<E9- @<E9- @<E9- @<E9- @<E9- @<E9- @<E9- @<E9- @<E9- @<E9- @<E9- @<E9- @<E9- @<E9- @<E9- @<E9- @<E9- @<E9- @<E9- @<E9- @<E9- @<E9- @<E9- @<E9- @<E9- @<E9- @<E9- @<E9- @<E9- @<E9- @<E9- @<E9- @<E9- @<E9- @<E9- @<E9- @<E9- @<E9- @<E9- @<E9- @<E9- @<E9- @<E9- @<E9- @<E9- @<E9- @<E9- @<E9- @<E9- @<E9- @<E9- @<E9- @<E9- @<E9- @<E9- @<E9- @<E9- @<E9- @<E9- @<E9- @<E9- @<E9- @<E9- @<E9- @<E9- @<E9- @<E9- @<E9- @<E9- E9- E9- E9- E9- E9- E9- E9- E9- E9- E9- E9- E9- E9- E9- E9- E9- E9- E9- E9- E9- E9- E9- E9- E9- E9- E9- E9- E9- E9- E9- E9- E9- E9- E9- E9- E9- E9- E9- E9- E9- E9- E9- E9- E9- E9- E9- E9- E9- E9- E9- E9- E9- E9- E9- E9- E9- E9- E9- E9- E9- E9- E9- E9- E9- E9- E9- E9- E9- E9- E9- E9- E9- E9- E9- E9- E9- E9- E9- E9- E9- E9- E9- E9- E9- E9- E9- E9- E9- E9- E9- E9- E9- E9- E9- E9- E9- E9- E9- E9- E9- E9- E9- E9- E9- E9- E9- E9- E9- E9- E9- E9- E9- E9- E9- E9- E9- E9- E9- E9- E9- E9- E9- E9- E9- E9- E9- E9- E9- E9- E9- E9- E9- E9- E9- E9- E9- E9- E9- E9- E9- E9- E9- E9- E9- E9- E9- E9- E9- E9- E9- E9- E9- E9- E9- E9- E9- E9- E9- E9- E9- E9- E9- E9- E9- E9- E9- E9- E9- E9- E9- E9- E9- E9- E9- E9- E9- E9- E9- E9- E9- E9- E9- E9- E9- E9- E9- E9- E9- E9- E9- E9- E9- E9- E9- E9- E9- E9- E9- E9- E9- E9- E9- E9- E9- E9- E9- E9- E9- E9- E9- E9- E9- E9- E9- E9- E9- E9- E9- E9- E9- E9- E9- E9- E9- E9- E9- E9- E9- E9- E9- E9- E9- E9- E9- E9- E9- E9- E9- E9- E9-                                                                                                                                                                                                                         L L L L L L L L L L L L L L L L L L L L L L L L L L L L L L L L L L L L L L L L L L L L L L L L L L L L L L L L L L L L L L L L L L L L L L L L L L L L L L L L L L L L L L L L L L L L L L L L                         CLH0 CLH0 CLH0 CLH0 CLH0 CLH0 CLH0 CLH0 CLH0 CLH0 CLH0 CLH0 CLH0 CLH0 CLH0 CLH0 CLH0 CLH0 CLH0 CLH0 CLH0 CLH0 CLH0 CLH0 CLH0 CLH0 CLH0 CLH0 CLH0 CLH0 CLH0 CLH0 CLH0 CLH0 CLH0 CLH0 CLH0 CLH0 CLH0 CLH0 CLH0 CLH0 CLH0 CLH0 CLH0 CLH0 CLH0 CLH0 CLH0 CLH0 CLH0 CLH0 CLH0 CLH0 CLH0 CLH0 CLH0 CLH0 CLH0 CLH0 CLH0 CLH0 CLH0 CLH0 CLH0 CLH0 CLH0 CLH0 CLH0 CLH0 CLH0 CLH0 CLH0 CLH0 CLH0 CLH0 CLH0 CLH0 CLH0 CLH0 CLH0 CLH0 CLH0 CLH0 CLH0 CLH0 CLH0 CLH0 CLH0 CLH0 CLH0 CLH0 CLH0 CLH0 CLH0 CLH0 CLH0 CLH0 CLH0 CLH0 CLH0 CLH0 CLH0 CLH0 CLH0 CLH0 CLH0 CLH0 CLH0 CLH0 CLH0 CLH0 CLH0 CLH0 CLH0 CLH0 CLH0 CLH0 CLH0 CLH0 CLH0 CLH0 CLH0 CLH0 CLH0 CLH0 CLH0 CLH0 CLH0 CLH0 CLH0 CLH0 CLH0 CLH0 CLH0 CLH0 CLH0 CLH0 CLH0 CLH0 CLH0 CLH0 CLH0 CLH0 CLH0 CLH0 CLH0 CLH0 CLH0 CLH0 CLH0 CLH0 CLH0 CLH0 CLH0 CLH0 CLH0 CLH0 CLH0 CLH0 CLH0 CLH0 CLH0 CLH0 CLH0 CLH0 CLH0 CLH0 CLH0 CLH0 CLH0 CLH0 CLH0 CLH0 CLH0 CLH0 CLH0 CLH0 CLH0 CLH0 CLH0 CLH0 CLH0 CLH0 CLH0 CLH0 CLH0 CLH0 CLH0 CLH0 CLH0 CLH0 CLH CLH CLH CLH CLH CLH CLH CLH CLH CLH CLH CLH CLH CLH CLH CLH CLH CLH CLH CLH CLH CLH CLH CLH CLH CLH CLH CLH CLH CLH CLH CLH CLH CLH CLH CLH CLH CLH CLH CLH CLH CLH CLH CLH CLH CLH CLH CLH CLH2 CLH2 CLH2 CLH2 CLH2 CLH2 CLH2 CLH2 CLH2 CLH2 CLH2 CLH2 CLH2 CLH2 CLH2 CLH2 CLH2 CLH2 CLH2 CLH2 CLH2 CLH2 CLH2 CLH2 CLH2 CLH2 CLH2 CLH2 CLH2 CLH2 CLH2 CLH2 CLH2 CLH2 CLH2 CLH2 CLH2 CLH2 CLH2 CLH2 CLH2 CLH2 CLH2 CLH2 CLH2 CLH2 CLH2 CLH2 2 2 2 2 2 2 2 2 2 2 2 2 2 2 2 2 2 2 2 2 2 2 2 2 2 2 2 2 2 2 2 2 2 2 2 2 2 2 2 2 2 2 2 2 2 2 2 2 2 2 2 2 2 2 2 2 2 2 2 2 2 2 2 2 2 2 2 2 2 2 2 2 J2 J2 J2 J2 J2 J2 J2 J2 J2 J2 J2 J2 J2 J2 J2 J2 J2 J2 J2 J2 J2 J2 J2 J2 J2 J2 J2 J2 J2 J2 J2 J2 J2 J2 J2 J2 J2 J2 J2 J2 J2 J2 J2 J2 J2 J2 J2 J2 J2 J2 J2 J2 J2 J2 J2 J2 J2 J2 J2 J2 J2 J2 J2 J2 J2 J2 J2 J2 J2 J2 J2 J2 J J J J J J J J J J J J J J J J J J J J J J J J                         H4 H4 H4 H4 H4 H4 H4 H4 H4 H4 H4 H4 H4 H4 H4 H4 H4 H4 H4 H4 H4 H4 H4 H4 H4 H4 H4 H4 H4 H4 H4 H4 H4 H4 H4 H4 H4 H4 H4 H4 H4 H4 H4 H4 H4 H4 H4 H4 H4 H4 H4 H4 H4 H4 H4 H4 H4 H4 H4 H4 H4 H4 H4 H4 H4 H4 H4 H4 H4 H4 H4 H4 H4 H4 H4 H4 H4 H4 H4 H4 H4 H4 H4 H4 H4 H4 H4 H4 H4 H4 H4 H4 H4 H4 H4 H4 4 4 4 4 4 4 4 4 4 4 4 4 4 4 4 4 4 4 4 4 4 4 4 4 G4 G4 G4 G4 G4 G4 G4 G4 G4 G4 G4 G4 G4 G4 G4 G4 G4 G4 G4 G4 G4 G4 G4 G4 G4 G4 G4 G4 G4 G4 G4 G4 G4 G4 G4 G4 G4 G4 G4 G4 G4 G4 G4 G4 G4 G4 G4 G4 G4 G4 G4 G4 G4 G4 G4 G4 G4 G4 G4 G4 G4 G4 G4 G4 G4 G4 G4 G4 G4 G4 G4 G4 G G G G G G G G G G G G G G G G G G G G G G G G                         E0 E0 E0 E0 E0 E0 E0 E0 E0 E0 E0 E0 E0 E0 E0 E0 E0 E0 E0 E0 E0 E0 E0 E0 E0 E0 E0 E0 E0 E0 E0 E0 E0 E0 E0 E0 E0 E0 E0 E0 E0 E0 E0 E0 E0 E0 E0 E0 E0 E0 E0 E0 E0 E0 E0 E0 E0 E0 E0 E0 E0 E0 E0 E0 E0 E0 E0 E0 E0 E0 E0 E0 E0 E0 E0 E0 E0 E0 E0 E0 E0 E0 E0 E0 E0 E0 E0 E0 E0 E0 E0 E0 E0 E0 E0 E0 0 0 0 0 0 0 0 0 0 0 0 0 0 0 0 0 0 0 0 0 0 0 0 0 C0 C0 C0 C0 C0 C0 C0 C0 C0 C0 C0 C0 C0 C0 C0 C0 C0 C0 C0 C0 C0 C0 C0 C0 C0 C0 C0 C0 C0 C0 C0 C0 C0 C0 C0 C0 C0 C0 C0 C0 C0 C0 C0 C0 C0 C0 C0 C0 C0 C0 C0 C0 C0 C0 C0 C0 C0 C0 C0 C0 C0 C0 C0 C0 C0 C0 C0 C0 C0 C0 C0 C0 C C C C C C C C C C C C C C C C C C C C C C C C                         B2 B2 B2 B2 B2 B2 B2 B2 B2 B2 B2 B2 B2 B2 B2 B2 B2 B2 B2 B2 B2 B2 B2 B2 B2 B2 B2 B2 B2 B2 B2 B2 B2 B2 B2 B2 B2 B2 B2 B2 B2 B2 B2 B2 B2 B2 B2 B2 B2 B2 B2 B2 B2 B2 B2 B2 B2 B2 B2 B2 B2 B2 B2 B2 B2 B2 B2 B2 B2 B2 B2 B2 B2 B2 B2 B2 B2 B2 B2 B2 B2 B2 B2 B2 B2 B2 B2 B2 B2 B2 B2 B2 B2 B2 B2 B2 2 2 2 2 2 2 2 2 2 2 2 2 2 2 2 2 2 2 2 2 2 2 2 2 D2 D2 D2 D2 D2 D2 D2 D2 D2 D2 D2 D2 D2 D2 D2 D2 D2 D2 D2 D2 D2 D2 D2 D2 D2 D2 D2 D2 D2 D2 D2 D2 D2 D2 D2 D2 D2 D2 D2 D2 D2 D2 D2 D2 D2 D2 D2 D2 D2 D2 D2 D2 D2 D2 D2 D2 D2 D2 D2 D2 D2 D2 D2 D2 D2 D2 D2 D2 D2 D2 D2 D2 D D D D D D D D D D D D D D D D D D D D D D D D                         E/ E/ E/ E/ E/ E/ E/ E/ E/ E/ E/ E/ E/ E/ E/ E/ E/ E/ E/ E/ E/ E/ E/ E/ E/ E/ E/ E/ E/ E/ E/ E/ E/ E/ E/ E/ E/ E/ E/ E/ E/ E/ E/ E/ E/ E/ E/ E/ E/ E/ E/ E/ E/ E/ E/ E/ E/ E/ E/ E/ E/ E/ E/ E/ E/ E/ E/ E/ E/ E/ E/ E/ E/ E/ E/ E/ E/ E/ E/ E/ E/ E/ E/ E/ E/ E/ E/ E/ E/ E/ E/ E/ E/ E/ E/ E/ / / / / / / / / / / / / / / / / / / / / / / / / G/ G/ G/ G/ G/ G/ G/ G/ G/ G/ G/ G/ G/ G/ G/ G/ G/ G/ G/ G/ G/ G/ G/ G/ G/ G/ G/ G/ G/ G/ G/ G/ G/ G/ G/ G/ G/ G/ G/ G/ G/ G/ G/ G/ G/ G/ G/ G/ G/ G/ G/ G/ G/ G/ G/ G/ G/ G/ G/ G/ G/ G/ G/ G/ G/ G/ G/ G/ G/ G/ G/ G/ G G G G G G G G G G G G G G G G G G G G G G G G                         D4 D4 D4 D4 D4 D4 D4 D4 D4 D4 D4 D4 D4 D4 D4 D4 D4 D4 D4 D4 D4 D4 D4 D4 4 4 4 4 4 4 E4 E4 E4 E4 E4 E4 E4 E4 E4 E4 E4 E4 E4 E4 E4 E4 E4 E4 E4 E4 E4 E4 E4 E4 4 4 4 4 4 4 D4 D4 D4 D4 D4 D4 D4 D4 D4 D4 D4 D4 D4 D4 D4 D4 D4 D4 D4 D4 D4 D4 D4 D4 D4 D4 D4 D4 D4 D4 D4 D4 D4 D4 D4 D4 D D D D D D D D D D D D D D D D D D D D D D D D D2 D2 D2 D2 D2 D2 D2 D2 D2 D2 D2 D2 D2 D2 D2 D2 D2 D2 D2 D2 D2 D2 D2 D2 D2 D2 D2 D2 D2 D2 D2 D2 D2 D2 D2 D2 D2 D2 D2 D2 D2 D2 D2 D2 D2 D2 D2 D2 D2 D2 D2 D2 D2 D2 D2 D2 D2 D2 D2 D2 D2 D2 D2 D2 D2 D2 D2 D2 D2 D2 D2 D2 D2 D2 D2 D2 D2 D2 D2 D2 D2 D2 D2 D2 D2 D2 D2 D2 D2 D2 D2 D2 D2 D2 D2 D2 D D D D D D D D D D D D D D D D D D D D D D D D D5 D5 D5 D5 D5 D5 D5 D5 D5 D5 D5 D5 D5 D5 D5 D5 D5 D5 D5 D5 D5 D5 D5 D5 D5 D5 D5 D5 D5 D5 D5 D5 D5 D5 D5 D5 D5 D5 D5 D5 D5 D5 D5 D5 D5 D5 D5 D5 D5 D5 D5 D5 D5 D5 D5 D5 D5 D5 D5 D5 D5 D5 D5 D5 D5 D5 D5 D5 D5 D5 D5 D5 5 5 5 5 5 5 5 5 5 5 5 5 5 5 5 5 5 5 5 5 5 5 5 5                         E4 E4 E4 E4 E4 E4 E4 E4 E4 E4 E4 E4 E4 E4 E4 E4 E4 E4 E4 E4 E4 E4 E4 E4 E4 E4 E4 E4 E4 E4 E4 E4 E4 E4 E4 E4 E4 E4 E4 E4 E4 E4 E4 E4 E4 E4 E4 E4 E4 E4 E4 E4 E4 E4 E4 E4 E4 E4 E4 E4 E4 E4 E4 E4 E4 E4 E4 E4 E4 E4 E4 E4 E4 E4 E4 E4 E4 E4 E4 E4 E4 E4 E4 E4 E4 E4 E4 E4 E4 E4 E4 E4 E4 E4 E4 E4                         G2 G2 G2 G2 G2 G2 G2 G2 G2 G2 G2 G2 G2 G2 G2 G2 G2 G2 G2 G2 G2 G2 G2 G2 G2 G2 G2 G2 G2 G2 G2 G2 G2 G2 G2 G2 G2 G2 G2 G2 G2 G2 G2 G2 G2 G2 G2 G2 G2 G2 G2 G2 G2 G2 G2 G2 G2 G2 G2 G2 G2 G2 G2 G2 G2 G2 G2 G2 G2 G2 G2 G2 G2 G2 G2 G2 G2 G2 G2 G2 G2 G2 G2 G2 G2 G2 G2 G2 G2 G2 G2 G2 G2 G2 G2 G2 G G G G G G G G G G G G G G G G G G G G G G G G G0 G0 G0 G0 G0 G0 G0 G0 G0 G0 G0 G0 G0 G0 G0 G0 G0 G0 G0 G0 G0 G0 G0 G0 G0 G0 G0 G0 G0 G0 G0 G0 G0 G0 G0 G0 G0 G0 G0 G0 G0 G0 G0 G0 G0 G0 G0 G0 G0 G0 G0 G0 G0 G0 G0 G0 G0 G0 G0 G0 G0 G0 G0 G0 G0 G0 G0 G0 G0 G0 G0 G0 0 0 0 0 0 0 0 0 0 0 0 0 0 0 0 0 0 0 0 0 0 0 0 0                         @/ @/ @/ @/ @/ @/ @/ @/ @/ @/ @/ @/ @/ @/ @/ @/ @/ @/ @/ @/ @/ @/ @/ @/ @/ @/ @/ @/ @/ @/ @/ @/ @/ @/ @/ @/ @/ @/ @/ @/ @/ @/ @/ @/ @/ @/ @/ @/ @/ @/ @/ @/ @/ @/ @/ @/ @/ @/ @/ @/ @/ @/ @/ @/ @/ @/ @/ @/ @/ @/ @/ @/ @/ @/ @/ @/ @/ @/ @/ @/ @/ @/ @/ @/ @/ @/ @/ @/ @/ @/ @/ @/ @/ @/ @/ @/ @ @ @ @ @ @ @ @ @ @ @ @ @ @ @ @ @ @ @ @ @ @ @ @ @- @- @- @- @- @- @- @- @- @- @- @- @- @- @- @- @- @- @- @- @- @- @- @- @- @- @- @- @- @- @- @- @- @- @- @- @- @- @- @- @- @- @- @- @- @- @- @- @- @- @- @- @- @- @- @- @- @- @- @- @- @- @- @- @- @- @- @- @- @- @- @- - - - - - - - - - - - - - - - - - - - - - - - -                         J, J, J, J, J, J, J, J, J, J, J, J, J, J, J, J, J, J, J, J, J, J, J, J, J, J, J, J, J, J, J, J, J, J, J, J, J, J, J, J, J, J, J, J, J, J, J, J, J, J, J, J, J, J, J, J, J, J, J, J, J, J, J, J, J, J, J, J, J, J, J, J, J, J, J, J, J, J, J, J, J, J, J, J, J, J, J, J, J, J, J, J, J, J, J, J, J J J J J J J J J J J J J J J J J J J J J J J J J* J* J* J* J* J* J* J* J* J* J* J* J* J* J* J* J* J* J* J* J* J* J* J* J* J* J* J* J* J* J* J* J* J* J* J* J* J* J* J* J* J* J* J* J* J* J* J* J* J* J* J* J* J* J* J* J* J* J* J* J* J* J* J* J* J* J* J* J* J* J* J* * * * * * * * * * * * * * * * * * * * * * * * *                         H, H, H, H, H, H, H, H, H, H, H, H, H, H, H, H, H, H, H, H, H, H, H, H, H, H, H, H, H, H, H, H, H, H, H, H, H, H, H, H, H, H, H, H, H, H, H, H, H, H, H, H, H, H, H, H, H, H, H, H, H, H, H, H, H, H, H, H, H, H, H, H, H, H, H, H, H, H, H, H, H, H, H, H, H, H, H, H, H, H, H, H, H, H, H, H,                         G( G( G( G( G( G( G( G( G( G( G( G( G( G( G( G( G( G( G( G( G( G( G( G( G( G( G( G( G( G( G( G( G( G( G( G( G( G( G( G( G( G( G( G( G( G( G( G( G( G( G( G( G( G( G( G( G( G( G( G( G( G( G( G( G( G( G( G( G( G( G( G( G( G( G( G( G( G( G( G( G( G( G( G( G( G( G( G( G( G( G( G( G( G( G( G(                         H- H- H- H- H- H- H- H- H- H- H- H- H- H- H- H- H- H- H- H- H- H- H- H- H- H- H- H- H- H- H- H- H- H- H- H- H- H- H- H- H- H- H- H- H- H- H- H- H- H- H- H- H- H- H- H- H- H- H- H- H- H- H- H- H- H- H- H- H- H- H- H- H- H- H- H- H- H- H- H- H- H- H- H- H- H- H- H- H- H- H- H- H- H- H- H- H H H H H H H H H H H H H H H H H H H H H H H H H, H, H, H, H, H, H, H, H, H, H, H, H, H, H, H, H, H, H, H, H, H, H, H, H, H, H, H, H, H, H, H, H, H, H, H, H, H, H, H, H, H, H, H, H, H, H, H, H, H, H, H, H, H, H, H, H, H, H, H, H, H, H, H, H, H, H, H, H, H, H, H, H, H, H, H, H, H, H, H, H, H, H, H, H, H, H, H, H, H, H, H, H, H, H, H, H H H H H H H H H H H H H H H H H H H H H H H H H- H- H- H- H- H- H- H- H- H- H- H- H- H- H- H- H- H- H- H- H- H- H- H- H- H- H- H- H- H- H- H- H- H- H- H- H- H- H- H- H- H- H- H- H- H- H- H- - - - - - - - - - - - - - - - - - - - - - - - - - - - - - - - - - - - - - - - - - - - - - - - -                         G/ G/ G/ G/ G/ G/ G/ G/ G/ G/ G/ G/ G/ G/ G/ G/ G/ G/ G/ G/ G/ G/ G/ G/ G/ G/ G/ G/ G/ G/ G/ G/ G/ G/ G/ G/ G/ G/ G/ G/ G/ G/ G/ G/ G/ G/ G/ G/ G/ G/ G/ G/ G/ G/ G/ G/ G/ G/ G/ G/ G/ G/ G/ G/ G/ G/ G/ G/ G/ G/ G/ G/ G/ G/ G/ G/ G/ G/ G/ G/ G/ G/ G/ G/ G/ G/ G/ G/ G/ G/ G/ G/ G/ G/ G/ G/                         E0 E0 E0 E0 E0 E0 E0 E0 E0 E0 E0 E0 E0 E0 E0 E0 E0 E0 E0 E0 E0 E0 E0 E0 E0 E0 E0 E0 E0 E0 E0 E0 E0 E0 E0 E0 E0 E0 E0 E0 E0 E0 E0 E0 E0 E0 E0 E0 E0 E0 E0 E0 E0 E0 E0 E0 E0 E0 E0 E0 E0 E0 E0 E0 E0 E0 E0 E0 E0 E0 E0 E0 E0 E0 E0 E0 E0 E0 E0 E0 E0 E0 E0 E0 E0 E0 E0 E0 E0 E0 E0 E0 E0 E0 E0 E0                         G2 G2 G2 G2 G2 G2 G2 G2 G2 G2 G2 G2 G2 G2 G2 G2 G2 G2 G2 G2 G2 G2 G2 G2 G2 G2 G2 G2 G2 G2 G2 G2 G2 G2 G2 G2 G2 G2 G2 G2 G2 G2 G2 G2 G2 G2 G2 G2 G2 G2 G2 G2 G2 G2 G2 G2 G2 G2 G2 G2 G2 G2 G2 G2 G2 G2 G2 G2 G2 G2 G2 G2 G2 G2 G2 G2 G2 G2 G2 G2 G2 G2 G2 G2 G2 G2 G2 G2 G2 G2 G2 G2 G2 G2 G2 G2                         H4 H4 H4 H4 H4 H4 H4 H4 H4 H4 H4 H4 H4 H4 H4 H4 H4 H4 H4 H4 H4 H4 H4 H4 H4 H4 H4 H4 H4 H4 H4 H4 H4 H4 H4 H4 H4 H4 H4 H4 H4 H4 H4 H4 H4 H4 H4 H4 H4 H4 H4 H4 H4 H4 H4 H4 H4 H4 H4 H4 H4 H4 H4 H4 H4 H4 H4 H4 H4 H4 H4 H4 H4 H4 H4 H4 H4 H4 H4 H4 H4 H4 H4 H4 H4 H4 H4 H4 H4 H4 H4 H4 H4 H4 H4 H4                         J5 J5 J5 J5 J5 J5 J5 J5 J5 J5 J5 J5 J5 J5 J5 J5 J5 J5 J5 J5 J5 J5 J5 J5 J5 J5 J5 J5 J5 J5 J5 J5 J5 J5 J5 J5 J5 J5 J5 J5 J5 J5 J5 J5 J5 J5 J5 J5 J5 J5 J5 J5 J5 J5 J5 J5 J5 J5 J5 J5 J5 J5 J5 J5 J5 J5 J5 J5 J5 J5 J5 J5 J5 J5 J5 J5 J5 J5 J5 J5 J5 J5 J5 J5 J5 J5 J5 J5 J5 J5 J5 J5 J5 J5 J5 J5                         L7 L7 L7 L7 L7 L7 L7 L7 L7 L7 L7 L7 L7 L7 L7 L7 L7 L7 L7 L7 L7 L7 L7 L7 L7 L7 L7 L7 L7 L7 L7 L7 L7 L7 L7 L7 L7 L7 L7 L7 L7 L7 L7 L7 L7 L7 L7 L7 L7 L7 L7 L7 L7 L7 L7 L7 L7 L7 L7 L7 L7 L7 L7 L7 L7 L7 L7 L7 L7 L7 L7 L7 L7 L7 L7 L7 L7 L7 L7 L7 L7 L7 L7 L7 L7 L7 L7 L7 L7 L7 L7 L7 L7 L7 L7 L7                         M9 M9 M9 M9 M9 M9 M9 M9 M9 M9 M9 M9 M9 M9 M9 M9 M9 M9 M9 M9 M9 M9 M9 M9 M9 M9 M9 M9 M9 M9 M9 M9 M9 M9 M9 M9 M9 M9 M9 M9 M9 M9 M9 M9 M9 M9 M9 M9 M9 M9 M9 M9 M9 M9 M9 M9 M9 M9 M9 M9 M9 M9 M9 M9 M9 M9 M9 M9 M9 M9 M9 M9 M9 M9 M9 M9 M9 M9 M9 M9 M9 M9 M9 M9 M9 M9 M9 M9 M9 M9 M9 M9 M9 M9 M9 M9                         O: O: O: O: O: O: O: O: O: O: O: O: O: O: O: O: O: O: O: O: O: O: O: O: O: O: O: O: O: O: O: O: O: O: O: O: O: O: O: O: O: O: O: O: O: O: O: O: O: O: O: O: O: O: O: O: O: O: O: O: O: O: O: O: O: O: O: O: O: O: O: O: O: O: O: O: O: O: O: O: O: O: O: O: O: O: O: O: O: O: O: O: O: O: O: O:                         L7 L7 L7 L7 L7 L7 L7 L7 L7 L7 L7 L7 L7 L7 L7 L7 L7 L7 L7 L7 L7 L7 L7 L7 L7 L7 L7 L7 L7 L7 L7 L7 L7 L7 L7 L7 L7 L7 L7 L7 L7 L7 L7 L7 L7 L7 L7 L7 L7 L7 L7 L7 L7 L7 L7 L7 L7 L7 L7 L7 L7 L7 L7 L7 L7 L7 L7 L7 L7 L7 L7 L7 L7 L7 L7 L7 L7 L7 L7 L7 L7 L7 L7 L7 L7 L7 L7 L7 L7 L7 L7 L7 L7 L7 L7 L7                         I9 I9 I9 I9 I9 I9 I9 I9 I9 I9 I9 I9 I9 I9 I9 I9 I9 I9 I9 I9 I9 I9 I9 I9 9 9 9 9 9 9 J9 J9 J9 J9 J9 J9 J9 J9 J9 J9 J9 J9 J9 J9 J9 J9 J9 J9 J9 J9 J9 J9 J9 J9 9 9 9 9 9 9 I9 I9 I9 I9 I9 I9 I9 I9 I9 I9 I9 I9 I9 I9 I9 I9 I9 I9 I9 I9 I9 I9 I9 I9 I9 I9 I9 I9 I9 I9 I9 I9 I9 I9 I9 I9 I I I I I I I I I I I I I I I I I I I I I I I I I7 I7 I7 I7 I7 I7 I7 I7 I7 I7 I7 I7 I7 I7 I7 I7 I7 I7 I7 I7 I7 I7 I7 I7 I7 I7 I7 I7 I7 I7 I7 I7 I7 I7 I7 I7 I7 I7 I7 I7 I7 I7 I7 I7 I7 I7 I7 I7 I7 I7 I7 I7 I7 I7 I7 I7 I7 I7 I7 I7 I7 I7 I7 I7 I7 I7 I7 I7 I7 I7 I7 I7 I7 I7 I7 I7 I7 I7 I7 I7 I7 I7 I7 I7 I7 I7 I7 I7 I7 I7 I7 I7 I7 I7 I7 I7 I I I I I I I I I I I I I I I I I I I I I I I I I: I: I: I: I: I: I: I: I: I: I: I: I: I: I: I: I: I: I: I: I: I: I: I: I: I: I: I: I: I: I: I: I: I: I: I: I: I: I: I: I: I: I: I: I: I: I: I: I: I: I: I: I: I: I: I: I: I: I: I: I: I: I: I: I: I: I: I: I: I: I: I: : : : : : : : : : : : : : : : : : : : : : : : :                         J9 J9 J9 J9 J9 J9 J9 J9 J9 J9 J9 J9 J9 J9 J9 J9 J9 J9 J9 J9 J9 J9 J9 J9 J9 J9 J9 J9 J9 J9 J9 J9 J9 J9 J9 J9 J9 J9 J9 J9 J9 J9 J9 J9 J9 J9 J9 J9 J9 J9 J9 J9 J9 J9 J9 J9 J9 J9 J9 J9 J9 J9 J9 J9 J9 J9 J9 J9 J9 J9 J9 J9 J9 J9 J9 J9 J9 J9 J9 J9 J9 J9 J9 J9 J9 J9 J9 J9 J9 J9 J9 J9 J9 J9 J9 J9                         L7 L7 L7 L7 L7 L7 L7 L7 L7 L7 L7 L7 L7 L7 L7 L7 L7 L7 L7 L7 L7 L7 L7 L7 L7 L7 L7 L7 L7 L7 L7 L7 L7 L7 L7 L7 L7 L7 L7 L7 L7 L7 L7 L7 L7 L7 L7 L7 L7 L7 L7 L7 L7 L7 L7 L7 L7 L7 L7 L7 L7 L7 L7 L7 L7 L7 L7 L7 L7 L7 L7 L7 L7 L7 L7 L7 L7 L7 L7 L7 L7 L7 L7 L7 L7 L7 L7 L7 L7 L7 L7 L7 L7 L7 L7 L7 L L L L L L L L L L L L L L L L L L L L L L L L L5 L5 L5 L5 L5 L5 L5 L5 L5 L5 L5 L5 L5 L5 L5 L5 L5 L5 L5 L5 L5 L5 L5 L5 L5 L5 L5 L5 L5 L5 L5 L5 L5 L5 L5 L5 L5 L5 L5 L5 L5 L5 L5 L5 L5 L5 L5 L5 L5 L5 L5 L5 L5 L5 L5 L5 L5 L5 L5 L5 L5 L5 L5 L5 L5 L5 L5 L5 L5 L5 L5 L5 5 5 5 5 5 5 5 5 5 5 5 5 5 5 5 5 5 5 5 5 5 5 5 5                         Q4 Q4 Q4 Q4 Q4 Q4 Q4 Q4 Q4 Q4 Q4 Q4 Q4 Q4 Q4 Q4 Q4 Q4 Q4 Q4 Q4 Q4 Q4 Q4 Q4 Q4 Q4 Q4 Q4 Q4 Q4 Q4 Q4 Q4 Q4 Q4 Q4 Q4 Q4 Q4 Q4 Q4 Q4 Q4 Q4 Q4 Q4 Q4 Q4 Q4 Q4 Q4 Q4 Q4 Q4 Q4 Q4 Q4 Q4 Q4 Q4 Q4 Q4 Q4 Q4 Q4 Q4 Q4 Q4 Q4 Q4 Q4 Q4 Q4 Q4 Q4 Q4 Q4 Q4 Q4 Q4 Q4 Q4 Q4 Q4 Q4 Q4 Q4 Q4 Q4 Q4 Q4 Q4 Q4 Q4 Q4 Q Q Q Q Q Q Q Q Q Q Q Q Q Q Q Q Q Q Q Q Q Q Q Q Q2 Q2 Q2 Q2 Q2 Q2 Q2 Q2 Q2 Q2 Q2 Q2 Q2 Q2 Q2 Q2 Q2 Q2 Q2 Q2 Q2 Q2 Q2 Q2 Q2 Q2 Q2 Q2 Q2 Q2 Q2 Q2 Q2 Q2 Q2 Q2 Q2 Q2 Q2 Q2 Q2 Q2 Q2 Q2 Q2 Q2 Q2 Q2 Q2 Q2 Q2 Q2 Q2 Q2 Q2 Q2 Q2 Q2 Q2 Q2 Q2 Q2 Q2 Q2 Q2 Q2 Q2 Q2 Q2 Q2 Q2 Q2 2 2 2 2 2 2 2 2 2 2 2 2 2 2 2 2 2 2 2 2 2 2 2 2                         Q1 Q1 Q1 Q1 Q1 Q1 Q1 Q1 Q1 Q1 Q1 Q1 Q1 Q1 Q1 Q1 Q1 Q1 Q1 Q1 Q1 Q1 Q1 Q1 Q1 Q1 Q1 Q1 Q1 Q1 Q1 Q1 Q1 Q1 Q1 Q1 Q1 Q1 Q1 Q1 Q1 Q1 Q1 Q1 Q1 Q1 Q1 Q1 Q1 Q1 Q1 Q1 Q1 Q1 Q1 Q1 Q1 Q1 Q1 Q1 Q1 Q1 Q1 Q1 Q1 Q1 Q1 Q1 Q1 Q1 Q1 Q1 Q1 Q1 Q1 Q1 Q1 Q1 Q1 Q1 Q1 Q1 Q1 Q1 Q1 Q1 Q1 Q1 Q1 Q1 Q1 Q1 Q1 Q1 Q1 Q1                         O/ O/ O/ O/ O/ O/ O/ O/ O/ O/ O/ O/ O/ O/ O/ O/ O/ O/ O/ O/ O/ O/ O/ O/ O/ O/ O/ O/ O/ O/ O/ O/ O/ O/ O/ O/ O/ O/ O/ O/ O/ O/ O/ O/ O/ O/ O/ O/ O/ O/ O/ O/ O/ O/ O/ O/ O/ O/ O/ O/ O/ O/ O/ O/ O/ O/ O/ O/ O/ O/ O/ O/ O/ O/ O/ O/ O/ O/ O/ O/ O/ O/ O/ O/ O/ O/ O/ O/ O/ O/ O/ O/ O/ O/ O/ O/                         M1 M1 M1 M1 M1 M1 M1 M1 M1 M1 M1 M1 M1 M1 M1 M1 M1 M1 M1 M1 M1 M1 M1 M1 M1 M1 M1 M1 M1 M1 M1 M1 M1 M1 M1 M1 M1 M1 M1 M1 M1 M1 M1 M1 M1 M1 M1 M1 M1 M1 M1 M1 M1 M1 M1 M1 M1 M1 M1 M1 M1 M1 M1 M1 M1 M1 M1 M1 M1 M1 M1 M1 M1 M1 M1 M1 M1 M1 M1 M1 M1 M1 M1 M1 M1 M1 M1 M1 M1 M1 M1 M1 M1 M1 M1 M1                         L- L- L- L- L- L- L- L- L- L- L- L- L- L- L- L- L- L- L- L- L- L- L- L- L- L- L- L- L- L- L- L- L- L- L- L- L- L- L- L- L- L- L- L- L- L- L- L- L- L- L- L- L- L- L- L- L- L- L- L- L- L- L- L- L- L- L- L- L- L- L- L- L- L- L- L- L- L- L- L- L- L- L- L- L- L- L- L- L- L- L- L- L- L- L- L-                         M2 M2 M2 M2 M2 M2 M2 M2 M2 M2 M2 M2 M2 M2 M2 M2 M2 M2 M2 M2 M2 M2 M2 M2 2 2 2 2 2 2 L2 L2 L2 L2 L2 L2 L2 L2 L2 L2 L2 L2 L2 L2 L2 L2 L2 L2 L2 L2 L2 L2 L2 L2 2 2 2 2 2 2 J2 J2 J2 J2 J2 J2 J2 J2 J2 J2 J2 J2 J2 J2 J2 J2 J2 J2 J2 J2 J2 J2 J2 J2 2 2 2 2 2 2 L2 L2 L2 L2 L2 L2 L2 L2 L2 L2 L2 L2 L2 L2 L2 L2 L2 L2 L2 L2 L2 L2 L2 L2 2 2 2 2 2 2 M2 M2 M2 M2 M2 M2 M2 M2 M2 M2 M2 M2 M2 M2 M2 M2 M2 M2 M2 M2 M2 M2 M2 M2 M2 M2 M2 M2 M2 M2 M2 M2 M2 M2 M2 M2 M2 M2 M2 M2 M2 M2 M2 M2 M2 M2 M2 M2 M2 M2 M2 M2 M2 M2 M2 M2 M2 M2 M2 M2 M2 M2 M2 M2 M2 M2 M2 M2 M2 M2 M2 M2 M M M M M M M M M M M M M M M M M M M M M M M M M M M M M M M M M M M M M M M M M M M M M M M M M: M: M: M: M: M: M: M: M: M: M: M: M: M: M: M: M: M: M: M: M: M: M: M: M: M: M: M: M: M: M: M: M: M: M: M: M: M: M: M: M: M: M: M: M: M: M: M: M: M: M: M: M: M: M: M: M: M: M: M: M: M: M: M: M: M: M: M: M: M: M: M: : : : : : : : : : : : : : : : : : : : : : : : : : : : : : : : : : : : : : : : : : : : : : : : : O: O: O: O: O: O: O: O: O: O: O: O: O: O: O: O: O: O: O: O: O: O: O: O: O: O: O: O: O: O: O: O: O: O: O: O: O: O: O: O: O: O: O: O: O: O: O: O: O: O: O: O: O: O: O: O: O: O: O: O: O: O: O: O: O: O: O: O: O: O: O: O: O O O O O O O O O O O O O O O O O O O O O O O O                         Q5 Q5 Q5 Q5 Q5 Q5 Q5 Q5 Q5 Q5 Q5 Q5 Q5 Q5 Q5 Q5 Q5 Q5 Q5 Q5 Q5 Q5 Q5 Q5 Q5 Q5 Q5 Q5 Q5 Q5 Q5 Q5 Q5 Q5 Q5 Q5 Q5 Q5 Q5 Q5 Q5 Q5 Q5 Q5 Q5 Q5 Q5 Q5 Q5 Q5 Q5 Q5 Q5 Q5 Q5 Q5 Q5 Q5 Q5 Q5 Q5 Q5 Q5 Q5 Q5 Q5 Q5 Q5 Q5 Q5 Q5 Q5 Q5 Q5 Q5 Q5 Q5 Q5 Q5 Q5 Q5 Q5 Q5 Q5 Q5 Q5 Q5 Q5 Q5 Q5 Q5 Q5 Q5 Q5 Q5 Q5 Q5 Q5 Q5 Q5 Q5 Q5 Q5 Q5 Q5 Q5 Q5 Q5 Q5 Q5 Q5 Q5 Q5 Q5 Q5 Q5 Q5 Q5 Q5 Q5 Q5 Q5 Q5 Q5 Q5 Q5 Q5 Q5 Q5 Q5 Q5 Q5 Q5 Q5 Q5 Q5 Q5 Q5 Q5 Q5 Q5 Q5 Q5 Q5 Q5 Q5 Q5 Q5 Q5 Q5 Q5 Q5 Q5 Q5 Q5 Q5 Q5 Q5 Q5 Q5 Q5 Q5 Q5 Q5 Q5 Q5 Q5 Q5 Q5 Q5 Q5 Q5 Q5 Q5 Q5 Q5 Q5 Q5 Q5 Q5 Q5 Q5 Q5 Q5 Q5 Q5 Q5 Q5 Q5 Q5 Q5 Q5                                                 J7 J7 J7 J7 J7 J7 J7 J7 J7 J7 J7 J7 J7 J7 J7 J7 J7 J7 J7 J7 J7 J7 J7 J7 J7 J7 J7 J7 J7 J7 J7 J7 J7 J7 J7 J7 J7 J7 J7 J7 J7 J7 J7 J7 J7 J7 J7 J7 J7 J7 J7 J7 J7 J7 J7 J7 J7 J7 J7 J7 J7 J7 J7 J7 J7 J7 J7 J7 J7 J7 J7 J7 J7 J7 J7 J7 J7 J7 J7 J7 J7 J7 J7 J7 J7 J7 J7 J7 J7 J7 J7 J7 J7 J7 J7 J7 7 7 7 7 7 7 7 7 7 7 7 7 7 7 7 7 7 7 7 7 7 7 7 7 L7 L7 L7 L7 L7 L7 L7 L7 L7 L7 L7 L7 L7 L7 L7 L7 L7 L7 L7 L7 L7 L7 L7 L7 L7 L7 L7 L7 L7 L7 L7 L7 L7 L7 L7 L7 L7 L7 L7 L7 L7 L7 L7 L7 L7 L7 L7 L7 L7 L7 L7 L7 L7 L7 L7 L7 L7 L7 L7 L7 L7 L7 L7 L7 L7 L7 L7 L7 L7 L7 L7 L7 L L L L L L L L L L L L L L L L L L L L L L L L                         O9 O9 O9 O9 O9 O9 O9 O9 O9 O9 O9 O9 O9 O9 O9 O9 O9 O9 O9 O9 O9 O9 O9 O9 O9 O9 O9 O9 O9 O9 O9 O9 O9 O9 O9 O9 O9 O9 O9 O9 O9 O9 O9 O9 O9 O9 O9 O9 O9 O9 O9 O9 O9 O9 O9 O9 O9 O9 O9 O9 O9 O9 O9 O9 O9 O9 O9 O9 O9 O9 O9 O9 O9 O9 O9 O9 O9 O9 O9 O9 O9 O9 O9 O9 O9 O9 O9 O9 O9 O9 O9 O9 O9 O9 O9 O9 9 9 9 9 9 9 9 9 9 9 9 9 9 9 9 9 9 9 9 9 9 9 9 9 M9 M9 M9 M9 M9 M9 M9 M9 M9 M9 M9 M9 M9 M9 M9 M9 M9 M9 M9 M9 M9 M9 M9 M9 M9 M9 M9 M9 M9 M9 M9 M9 M9 M9 M9 M9 M9 M9 M9 M9 M9 M9 M9 M9 M9 M9 M9 M9 M9 M9 M9 M9 M9 M9 M9 M9 M9 M9 M9 M9 M9 M9 M9 M9 M9 M9 M9 M9 M9 M9 M9 M9 M M M M M M M M M M M M M M M M M M M M M M M M                         L- L- L- L- L- L- L- L- L- L- L- L- L- L- L- L- L- L- L- L- L- L- L- L- L- L- L- L- L- L- L- L- L- L- L- L- L- L- L- L- L- L- L- L- L- L- L- L- L- L- L- L- L- L- L- L- L- L- L- L- L- L- L- L- L- L- L- L- L- L- L- L- L- L- L- L- L- L- L- L- L- L- L- L- L- L- L- L- L- L- L- L- L- L- L- L- - - - - - - - - - - - - - - - - - - - - - - - - J- J- J- J- J- J- J- J- J- J- J- J- J- J- J- J- J- J- J- J- J- J- J- J- J- J- J- J- J- J- J- J- J- J- J- J- J- J- J- J- J- J- J- J- J- J- J- J- J- J- J- J- J- J- J- J- J- J- J- J- J- J- J- J- J- J- J- J- J- J- J- J- J J J J J J J J J J J J J J J J J J J J J J J J                         J& J& J& J& J& J& J& J& J& J& J& J& J& J& J& J& J& J& J& J& J& J& J& J& & & & & & & I& I& I& I& I& I& I& I& I& I& I& I& I& I& I& I& I& I& I& I& I& I& I& I& & & & & & & J& J& J& J& J& J& J& J& J& J& J& J& J& J& J& J& J& J& J& J& J& J& J& J& J& J& J& J& J& J& J& J& J& J& J& J& J& J& J& J& J& J& J& J& J& J& J& J& J& J& J& J& J& J& J& J& J& J& J& J& J& J& J& J& J& J& J& J& J& J& J& J& J& J& J& J& J& J& J& J& J& J& J& J& J& J& J& J& J& J& J& J& J& J& J& J& J& J& J& J& J& J& J& J& J& J& J& J& J& J& J& J& J& J& J& J& J& J& J& J& J& J& J& J& J& J& J& J& J& J& J& J& J J J J J J J J J J J J J J J J J J J J J J J J J J J J J J J J J J J J J J J J J J J J J J J J J9 J9 J9 J9 J9 J9 J9 J9 J9 J9 J9 J9 J9 J9 J9 J9 J9 J9 J9 J9 J9 J9 J9 J9 J9 J9 J9 J9 J9 J9 J9 J9 J9 J9 J9 J9 J9 J9 J9 J9 J9 J9 J9 J9 J9 J9 J9 J9 J9 J9 J9 J9 J9 J9 J9 J9 J9 J9 J9 J9 J9 J9 J9 J9 J9 J9 J9 J9 J9 J9 J9 J9 J9 J9 J9 J9 J9 J9 J9 J9 J9 J9 J9 J9 J9 J9 J9 J9 J9 J9 J9 J9 J9 J9 J9 J9 J J J J J J J J J J J J J J J J J J J J J J J J J7 J7 J7 J7 J7 J7 J7 J7 J7 J7 J7 J7 J7 J7 J7 J7 J7 J7 J7 J7 J7 J7 J7 J7 J7 J7 J7 J7 J7 J7 J7 J7 J7 J7 J7 J7 J7 J7 J7 J7 J7 J7 J7 J7 J7 J7 J7 J7 J7 J7 J7 J7 J7 J7 J7 J7 J7 J7 J7 J7 J7 J7 J7 J7 J7 J7 J7 J7 J7 J7 J7 J7 J7 J7 J7 J7 J7 J7 J7 J7 J7 J7 J7 J7 J7 J7 J7 J7 J7 J7 J7 J7 J7 J7 J7 J7 J J J J J J J J J J J J J J J J J J J J J J J J J5 J5 J5 J5 J5 J5 J5 J5 J5 J5 J5 J5 J5 J5 J5 J5 J5 J5 J5 J5 J5 J5 J5 J5 J5 J5 J5 J5 J5 J5 J5 J5 J5 J5 J5 J5 J5 J5 J5 J5 J5 J5 J5 J5 J5 J5 J5 J5 J5 J5 J5 J5 J5 J5 J5 J5 J5 J5 J5 J5 J5 J5 J5 J5 J5 J5 J5 J5 J5 J5 J5 J5 J5 J5 J5 J5 J5 J5 J5 J5 J5 J5 J5 J5 J5 J5 J5 J5 J5 J5 J5 J5 J5 J5 J5 J5 J J J J J J J J J J J J J J J J J J J J J J J J J4 J4 J4 J4 J4 J4 J4 J4 J4 J4 J4 J4 J4 J4 J4 J4 J4 J4 J4 J4 J4 J4 J4 J4 J4 J4 J4 J4 J4 J4 J4 J4 J4 J4 J4 J4 J4 J4 J4 J4 J4 J4 J4 J4 J4 J4 J4 J4 J4 J4 J4 J4 J4 J4 J4 J4 J4 J4 J4 J4 J4 J4 J4 J4 J4 J4 J4 J4 J4 J4 J4 J4 J4 J4 J4 J4 J4 J4 J4 J4 J4 J4 J4 J4 J4 J4 J4 J4 J4 J4 4 4 4 4 4 4                         M2 M2 M2 M2 M2 M2 M2 M2 M2 M2 M2 M2 M2 M2 M2 M2 M2 M2 M2 M2 M2 M2 M2 M2 M2 M2 M2 M2 M2 M2 M2 M2 M2 M2 M2 M2 M2 M2 M2 M2 M2 M2 M2 M2 M2 M2 M2 M2 M2 M2 M2 M2 M2 M2 M2 M2 M2 M2 M2 M2 M2 M2 M2 M2 M2 M2 M2 M2 M2 M2 M2 M2 M2 M2 M2 M2 M2 M2 M2 M2 M2 M2 M2 M2 M2 M2 M2 M2 M2 M2 M2 M2 M2 M2 M2 M2                         L0 L0 L0 L0 L0 L0 L0 L0 L0 L0 L0 L0 L0 L0 L0 L0 L0 L0 L0 L0 L0 L0 L0 L0 L0 L0 L0 L0 L0 L0 L0 L0 L0 L0 L0 L0 L0 L0 L0 L0 L0 L0 L0 L0 L0 L0 L0 L0 L0 L0 L0 L0 L0 L0 L0 L0 L0 L0 L0 L0 L0 L0 L0 L0 L0 L0 L0 L0 L0 L0 L0 L0 L0 L0 L0 L0 L0 L0 L0 L0 L0 L0 L0 L0 L0 L0 L0 L0 L0 L0 L0 L0 L0 L0 L0 L0                         J/ J/ J/ J/ J/ J/ J/ J/ J/ J/ J/ J/ J/ J/ J/ J/ J/ J/ J/ J/ J/ J/ J/ J/ J/ J/ J/ J/ J/ J/ J/ J/ J/ J/ J/ J/ J/ J/ J/ J/ J/ J/ J/ J/ J/ J/ J/ J/ J/ J/ J/ J/ J/ J/ J/ J/ J/ J/ J/ J/ J/ J/ J/ J/ J/ J/ J/ J/ J/ J/ J/ J/ J/ J/ J/ J/ J/ J/ J/ J/ J/ J/ J/ J/ J/ J/ J/ J/ J/ J/ J/ J/ J/ J/ J/ J/                         H- H- H- H- H- H- H- H- H- H- H- H- H- H- H- H- H- H- H- H- H- H- H- H- H- H- H- H- H- H- H- H- H- H- H- H- H- H- H- H- H- H- H- H- H- H- H- H- H- H- H- H- H- H- H- H- H- H- H- H- H- H- H- H- H- H- H- H- H- H- H- H- H- H- H- H- H- H- H- H- H- H- H- H- H- H- H- H- H- H- H- H- H- H- H- H-                         J+ J+ J+ J+ J+ J+ J+ J+ J+ J+ J+ J+ J+ J+ J+ J+ J+ J+ J+ J+ J+ J+ J+ J+ J+ J+ J+ J+ J+ J+ J+ J+ J+ J+ J+ J+ J+ J+ J+ J+ J+ J+ J+ J+ J+ J+ J+ J+ J+ J+ J+ J+ J+ J+ J+ J+ J+ J+ J+ J+ J+ J+ J+ J+ J+ J+ J+ J+ J+ J+ J+ J+ J+ J+ J+ J+ J+ J+ J+ J+ J+ J+ J+ J+ J+ J+ J+ J+ J+ J+ J+ J+ J+ J+ J+ J+                         G) G) G) G) G) G) G) G) G) G) G) G) G) G) G) G) G) G) G) G) G) G) G) G) G) G) G) G) G) G) G) G) G) G) G) G) G) G) G) G) G) G) G) G) G) G) G) G) G) G) G) G) G) G) G) G) G) G) G) G) G) G) G) G) G) G) G) G) G) G) G) G) G) G) G) G) G) G) G) G) G) G) G) G) G) G) G) G) G) G) G) G) G) G) G) G)                         O( O( O( O( O( O( O( O( O( O( O( O( O( O( O( O( O( O( O( O( O( O( O( O( O( O( O( O( O( O( O( O( O( O( O( O( O( O( O( O( O( O( O( O( O( O( O( O( O( O( O( O( O( O( O( O( O( O( O( O( O( O( O( O( O( O( O( O( O( O( O( O( O( O( O( O( O( O( O( O( O( O( O( O( O( O( O( O( O( O( O( O( O( O( O( O( O O O O O O O O O O O O O O O O O O O O O O O O O+ O+ O+ O+ O+ O+ O+ O+ O+ O+ O+ O+ O+ O+ O+ O+ O+ O+ O+ O+ O+ O+ O+ O+ O+ O+ O+ O+ O+ O+ O+ O+ O+ O+ O+ O+ O+ O+ O+ O+ O+ O+ O+ O+ O+ O+ O+ O+ O+ O+ O+ O+ O+ O+ O+ O+ O+ O+ O+ O+ O+ O+ O+ O+ O+ O+ O+ O+ O+ O+ O+ O+ O+ O+ O+ O+ O+ O+ O+ O+ O+ O+ O+ O+ O+ O+ O+ O+ O+ O+ O+ O+ O+ O+ O+ O+ O O O O O O O O O O O O O O O O O O O O O O O O O- O- O- O- O- O- O- O- O- O- O- O- O- O- O- O- O- O- O- O- O- O- O- O- O- O- O- O- O- O- O- O- O- O- O- O- O- O- O- O- O- O- O- O- O- O- O- O- - - - - - - - - - - - - - - - - - - - - - - - - - - - - - - - - - - - - - - - - - - - - - - - -                         M/ M/ M/ M/ M/ M/ M/ M/ M/ M/ M/ M/ M/ M/ M/ M/ M/ M/ M/ M/ M/ M/ M/ M/ M/ M/ M/ M/ M/ M/ M/ M/ M/ M/ M/ M/ M/ M/ M/ M/ M/ M/ M/ M/ M/ M/ M/ M/ M/ M/ M/ M/ M/ M/ M/ M/ M/ M/ M/ M/ M/ M/ M/ M/ M/ M/ M/ M/ M/ M/ M/ M/ M/ M/ M/ M/ M/ M/ M/ M/ M/ M/ M/ M/ M/ M/ M/ M/ M/ M/ M/ M/ M/ M/ M/ M/                         L0 L0 L0 L0 L0 L0 L0 L0 L0 L0 L0 L0 L0 L0 L0 L0 L0 L0 L0 L0 L0 L0 L0 L0 L0 L0 L0 L0 L0 L0 L0 L0 L0 L0 L0 L0 L0 L0 L0 L0 L0 L0 L0 L0 L0 L0 L0 L0 L0 L0 L0 L0 L0 L0 L0 L0 L0 L0 L0 L0 L0 L0 L0 L0 L0 L0 L0 L0 L0 L0 L0 L0 L0 L0 L0 L0 L0 L0 L0 L0 L0 L0 L0 L0 L0 L0 L0 L0 L0 L0 L0 L0 L0 L0 L0 L0                         J2 J2 J2 J2 J2 J2 J2 J2 J2 J2 J2 J2 J2 J2 J2 J2 J2 J2 J2 J2 J2 J2 J2 J2 J2 J2 J2 J2 J2 J2 J2 J2 J2 J2 J2 J2 J2 J2 J2 J2 J2 J2 J2 J2 J2 J2 J2 J2 J2 J2 J2 J2 J2 J2 J2 J2 J2 J2 J2 J2 J2 J2 J2 J2 J2 J2 J2 J2 J2 J2 J2 J2 J2 J2 J2 J2 J2 J2 J2 J2 J2 J2 J2 J2 J2 J2 J2 J2 J2 J2 J2 J2 J2 J2 J2 J2                         H4 H4 H4 H4 H4 H4 H4 H4 H4 H4 H4 H4 H4 H4 H4 H4 H4 H4 H4 H4 H4 H4 H4 H4 H4 H4 H4 H4 H4 H4 H4 H4 H4 H4 H4 H4 H4 H4 H4 H4 H4 H4 H4 H4 H4 H4 H4 H4 H4 H4 H4 H4 H4 H4 H4 H4 H4 H4 H4 H4 H4 H4 H4 H4 H4 H4 H4 H4 H4 H4 H4 H4 H4 H4 H4 H4 H4 H4 H4 H4 H4 H4 H4 H4 H4 H4 H4 H4 H4 H4 H4 H4 H4 H4 H4 H4                         G6 G6 G6 G6 G6 G6 G6 G6 G6 G6 G6 G6 G6 G6 G6 G6 G6 G6 G6 G6 G6 G6 G6 G6 G6 G6 G6 G6 G6 G6 G6 G6 G6 G6 G6 G6 G6 G6 G6 G6 G6 G6 G6 G6 G6 G6 G6 G6 G6 G6 G6 G6 G6 G6 G6 G6 G6 G6 G6 G6 G6 G6 G6 G6 G6 G6 G6 G6 G6 G6 G6 G6 G6 G6 G6 G6 G6 G6 G6 G6 G6 G6 G6 G6 G6 G6 G6 G6 G6 G6 G6 G6 G6 G6 G6 G6                         H7 H7 H7 H7 H7 H7 H7 H7 H7 H7 H7 H7 H7 H7 H7 H7 H7 H7 H7 H7 H7 H7 H7 H7 H7 H7 H7 H7 H7 H7 H7 H7 H7 H7 H7 H7 H7 H7 H7 H7 H7 H7 H7 H7 H7 H7 H7 H7 H7 H7 H7 H7 H7 H7 H7 H7 H7 H7 H7 H7 H7 H7 H7 H7 H7 H7 H7 H7 H7 H7 H7 H7 H7 H7 H7 H7 H7 H7 H7 H7 H7 H7 H7 H7 H7 H7 H7 H7 H7 H7 H7 H7 H7 H7 H7 H7                         E6 E6 E6 E6 E6 E6 E6 E6 E6 E6 E6 E6 E6 E6 E6 E6 E6 E6 E6 E6 E6 E6 E6 E6 E6 E6 E6 E6 E6 E6 E6 E6 E6 E6 E6 E6 E6 E6 E6 E6 E6 E6 E6 E6 E6 E6 E6 E6 E6 E6 E6 E6 E6 E6 E6 E6 E6 E6 E6 E6 E6 E6 E6 E6 E6 E6 E6 E6 E6 E6 E6 E6 E6 E6 E6 E6 E6 E6 E6 E6 E6 E6 E6 E6 E6 E6 E6 E6 E6 E6 E6 E6 E6 E6 E6 E6                         J4 J4 J4 J4 J4 J4 J4 J4 J4 J4 J4 J4 J4 J4 J4 J4 J4 J4 J4 J4 J4 J4 J4 J4 J4 J4 J4 J4 J4 J4 J4 J4 J4 J4 J4 J4 J4 J4 J4 J4 J4 J4 J4 J4 J4 J4 J4 J4 J4 J4 J4 J4 J4 J4 J4 J4 J4 J4 J4 J4 J4 J4 J4 J4 J4 J4 J4 J4 J4 J4 J4 J4 J4 J4 J4 J4 J4 J4 J4 J4 J4 J4 J4 J4 J4 J4 J4 J4 J4 J4 J4 J4 J4 J4 J4 J4 J J J J J J J J J J J J J J J J J J J J J J J J J2 J2 J2 J2 J2 J2 J2 J2 J2 J2 J2 J2 J2 J2 J2 J2 J2 J2 J2 J2 J2 J2 J2 J2 J2 J2 J2 J2 J2 J2 J2 J2 J2 J2 J2 J2 J2 J2 J2 J2 J2 J2 J2 J2 J2 J2 J2 J2 J2 J2 J2 J2 J2 J2 J2 J2 J2 J2 J2 J2 J2 J2 J2 J2 J2 J2 J2 J2 J2 J2 J2 J2 2 2 2 2 2 2 2 2 2 2 2 2 2 2 2 2 2 2 2 2 2 2 2 2                         H7 H7 H7 H7 H7 H7 H7 H7 H7 H7 H7 H7 H7 H7 H7 H7 H7 H7 H7 H7 H7 H7 H7 H7 7 7 7 7 7 7 J7 J7 J7 J7 J7 J7 J7 J7 J7 J7 J7 J7 J7 J7 J7 J7 J7 J7 J7 J7 J7 J7 J7 J7 7 7 7 7 7 7 H7 H7 H7 H7 H7 H7 H7 H7 H7 H7 H7 H7 H7 H7 H7 H7 H7 H7 H7 H7 H7 H7 H7 H7 H7 H7 H7 H7 H7 H7 H7 H7 H7 H7 H7 H7 H7 H7 H7 H7 H7 H7 H7 H7 H7 H7 H7 H7 7 7 7 7 7 7 7 7 7 7 7 7 G7 G7 G7 G7 G7 G7 G7 G7 G7 G7 G7 G7 G7 G7 G7 G7 G7 G7 G7 G7 G7 G7 G7 G7 G7 G7 G7 G7 G7 G7 G7 G7 G7 G7 G7 G7 G7 G7 G7 G7 G7 G7 G7 G7 G7 G7 G7 G7 G7 G7 G7 G7 G7 G7 G7 G7 G7 G7 G7 G7 G7 G7 G7 G7 G7 G7 G7 G7 G7 G7 G7 G7 G G G G G G G G G G G G G G G G G G G G G G G G                         E5 E5 E5 E5 E5 E5 E5 E5 E5 E5 E5 E5 E5 E5 E5 E5 E5 E5 E5 E5 E5 E5 E5 E5 E5 E5 E5 E5 E5 E5 E5 E5 E5 E5 E5 E5 E5 E5 E5 E5 E5 E5 E5 E5 E5 E5 E5 E5 E5 E5 E5 E5 E5 E5 E5 E5 E5 E5 E5 E5 E5 E5 E5 E5 E5 E5 E5 E5 E5 E5 E5 E5 E5 E5 E5 E5 E5 E5 E5 E5 E5 E5 E5 E5 E5 E5 E5 E5 E5 E5 E5 E5 E5 E5 E5 E5 5 5 5 5 5 5 5 5 5 5 5 5 5 5 5 5 5 5 5 5 5 5 5 5 C5 C5 C5 C5 C5 C5 C5 C5 C5 C5 C5 C5 C5 C5 C5 C5 C5 C5 C5 C5 C5 C5 C5 C5 C5 C5 C5 C5 C5 C5 C5 C5 C5 C5 C5 C5 C5 C5 C5 C5 C5 C5 C5 C5 C5 C5 C5 C5 C5 C5 C5 C5 C5 C5 C5 C5 C5 C5 C5 C5 C5 C5 C5 C5 C5 C5 C5 C5 C5 C5 C5 C5 C C C C C C C C C C C C C C C C C C C C C C C C                         E4 E4 E4 E4 E4 E4 E4 E4 E4 E4 E4 E4 E4 E4 E4 E4 E4 E4 E4 E4 E4 E4 E4 E4 E4 E4 E4 E4 E4 E4 E4 E4 E4 E4 E4 E4 E4 E4 E4 E4 E4 E4 E4 E4 E4 E4 E4 E4 E4 E4 E4 E4 E4 E4 E4 E4 E4 E4 E4 E4 E4 E4 E4 E4 E4 E4 E4 E4 E4 E4 E4 E4 E4 E4 E4 E4 E4 E4 E4 E4 E4 E4 E4 E4 E4 E4 E4 E4 E4 E4 E4 E4 E4 E4 E4 E4 4 4 4 4 4 4 4 4 4 4 4 4 4 4 4 4 4 4 4 4 4 4 4 4 G4 G4 G4 G4 G4 G4 G4 G4 G4 G4 G4 G4 G4 G4 G4 G4 G4 G4 G4 G4 G4 G4 G4 G4 G4 G4 G4 G4 G4 G4 G4 G4 G4 G4 G4 G4 G4 G4 G4 G4 G4 G4 G4 G4 G4 G4 G4 G4 G4 G4 G4 G4 G4 G4 G4 G4 G4 G4 G4 G4 G4 G4 G4 G4 G4 G4 G4 G4 G4 G4 G4 G4 G G G G G G G G G G G G G G G G G G G G G G G G                         H2 H2 H2 H2 H2 H2 H2 H2 H2 H2 H2 H2 H2 H2 H2 H2 H2 H2 H2 H2 H2 H2 H2 H2 H2 H2 H2 H2 H2 H2 H2 H2 H2 H2 H2 H2 H2 H2 H2 H2 H2 H2 H2 H2 H2 H2 H2 H2 H2 H2 H2 H2 H2 H2 H2 H2 H2 H2 H2 H2 H2 H2 H2 H2 H2 H2 H2 H2 H2 H2 H2 H2 H2 H2 H2 H2 H2 H2 H2 H2 H2 H2 H2 H2 H2 H2 H2 H2 H2 H2 H2 H2 H2 H2 H2 H2 2 2 2 2 2 2 2 2 2 2 2 2 2 2 2 2 2 2 2 2 2 2 2 2 J2 J2 J2 J2 J2 J2 J2 J2 J2 J2 J2 J2 J2 J2 J2 J2 J2 J2 J2 J2 J2 J2 J2 J2 J2 J2 J2 J2 J2 J2 J2 J2 J2 J2 J2 J2 J2 J2 J2 J2 J2 J2 J2 J2 J2 J2 J2 J2 J2 J2 J2 J2 J2 J2 J2 J2 J2 J2 J2 J2 J2 J2 J2 J2 J2 J2 J2 J2 J2 J2 J2 J2 J J J J J J J J J J J J J J J J J J J J J J J J                         L0 L0 L0 L0 L0 L0 L0 L0 L0 L0 L0 L0 L0 L0 L0 L0 L0 L0 L0 L0 L0 L0 L0 L0 L0 L0 L0 L0 L0 L0 L0 L0 L0 L0 L0 L0 L0 L0 L0 L0 L0 L0 L0 L0 L0 L0 L0 L0 L0 L0 L0 L0 L0 L0 L0 L0 L0 L0 L0 L0 L0 L0 L0 L0 L0 L0 L0 L0 L0 L0 L0 L0 L0 L0 L0 L0 L0 L0 L0 L0 L0 L0 L0 L0 L0 L0 L0 L0 L0 L0 L0 L0 L0 L0 L0 L0 0 0 0 0 0 0 0 0 0 0 0 0 0 0 0 0 0 0 0 0 0 0 0 0 G0 G0 G0 G0 G0 G0 G0 G0 G0 G0 G0 G0 G0 G0 G0 G0 G0 G0 G0 G0 G0 G0 G0 G0 G0 G0 G0 G0 G0 G0 G0 G0 G0 G0 G0 G0 G0 G0 G0 G0 G0 G0 G0 G0 G0 G0 G0 G0 G0 G0 G0 G0 G0 G0 G0 G0 G0 G0 G0 G0 G0 G0 G0 G0 G0 G0 G0 G0 G0 G0 G0 G0 G G G G G G G G G G G G G G G G G G G G G G G G                         H- H- H- H- H- H- H- H- H- H- H- H- H- H- H- H- H- H- H- H- H- H- H- H- H- H- H- H- H- H- H- H- H- H- H- H- H- H- H- H- H- H- H- H- H- H- H- H- H- H- H- H- H- H- H- H- H- H- H- H- H- H- H- H- H- H- H- H- H- H- H- H- H- H- H- H- H- H- H- H- H- H- H- H- H- H- H- H- H- H- H- H- H- H- H- H- - - - - - - - - - - - - - - - - - - - - - - - - E- E- E- E- E- E- E- E- E- E- E- E- E- E- E- E- E- E- E- E- E- E- E- E- E- E- E- E- E- E- E- E- E- E- E- E- E- E- E- E- E- E- E- E- E- E- E- E- E- E- E- E- E- E- E- E- E- E- E- E- E- E- E- E- E- E- E- E- E- E- E- E- E E E E E E E E E E E E E E E E E E E E E E E E                         B2 B2 B2 B2 B2 B2 B2 B2 B2 B2 B2 B2 B2 B2 B2 B2 B2 B2 B2 B2 B2 B2 B2 B2 2 2 2 2 2 2 C2 C2 C2 C2 C2 C2 C2 C2 C2 C2 C2 C2 C2 C2 C2 C2 C2 C2 C2 C2 C2 C2 C2 C2 2 2 2 2 2 2 B2 B2 B2 B2 B2 B2 B2 B2 B2 B2 B2 B2 B2 B2 B2 B2 B2 B2 B2 B2 B2 B2 B2 B2 B2 B2 B2 B2 B2 B2 B2 B2 B2 B2 B2 B2 B2 B2 B2 B2 B2 B2 B2 B2 B2 B2 B2 B2 2 2 2 2 2 2 2 2 2 2 2 2 @2 @2 @2 @2 @2 @2 @2 @2 @2 @2 @2 @2 @2 @2 @2 @2 @2 @2 @2 @2 @2 @2 @2 @2 @2 @2 @2 @2 @2 @2 @2 @2 @2 @2 @2 @2 @2 @2 @2 @2 @2 @2 @2 @2 @2 @2 @2 @2 @2 @2 @2 @2 @2 @2 @2 @2 @2 @2 @2 @2 @2 @2 @2 @2 @2 @2 @2 @2 @2 @2 @2 @2 @ @ @ @ @ @ @ @ @ @ @ @ @ @ @ @ @ @ @ @ @ @ @ @                         B4 B4 B4 B4 B4 B4 B4 B4 B4 B4 B4 B4 B4 B4 B4 B4 B4 B4 B4 B4 B4 B4 B4 B4 B4 B4 B4 B4 B4 B4 B4 B4 B4 B4 B4 B4 B4 B4 B4 B4 B4 B4 B4 B4 B4 B4 B4 B4 B4 B4 B4 B4 B4 B4 B4 B4 B4 B4 B4 B4 B4 B4 B4 B4 B4 B4 B4 B4 B4 B4 B4 B4 B4 B4 B4 B4 B4 B4 B4 B4 B4 B4 B4 B4 B4 B4 B4 B4 B4 B4 B4 B4 B4 B4 B4 B4 4 4 4 4 4 4 4 4 4 4 4 4 4 4 4 4 4 4 4 4 4 4 4 4 E4 E4 E4 E4 E4 E4 E4 E4 E4 E4 E4 E4 E4 E4 E4 E4 E4 E4 E4 E4 E4 E4 E4 E4 E4 E4 E4 E4 E4 E4 E4 E4 E4 E4 E4 E4 E4 E4 E4 E4 E4 E4 E4 E4 E4 E4 E4 E4 E4 E4 E4 E4 E4 E4 E4 E4 E4 E4 E4 E4 E4 E4 E4 E4 E4 E4 E4 E4 E4 E4 E4 E4 E E E E E E E E E E E E E E E E E E E E E E E E                         G2 G2 G2 G2 G2 G2 G2 G2 G2 G2 G2 G2 G2 G2 G2 G2 G2 G2 G2 G2 G2 G2 G2 G2 G2 G2 G2 G2 G2 G2 G2 G2 G2 G2 G2 G2 G2 G2 G2 G2 G2 G2 G2 G2 G2 G2 G2 G2 G2 G2 G2 G2 G2 G2 G2 G2 G2 G2 G2 G2 G2 G2 G2 G2 G2 G2 G2 G2 G2 G2 G2 G2 G2 G2 G2 G2 G2 G2 G2 G2 G2 G2 G2 G2 G2 G2 G2 G2 G2 G2 G2 G2 G2 G2 G2 G2 2 2 2 2 2 2 2 2 2 2 2 2 2 2 2 2 2 2 2 2 2 2 2 2 H2 H2 H2 H2 H2 H2 H2 H2 H2 H2 H2 H2 H2 H2 H2 H2 H2 H2 H2 H2 H2 H2 H2 H2 H2 H2 H2 H2 H2 H2 H2 H2 H2 H2 H2 H2 H2 H2 H2 H2 H2 H2 H2 H2 H2 H2 H2 H2 H2 H2 H2 H2 H2 H2 H2 H2 H2 H2 H2 H2 H2 H2 H2 H2 H2 H2 H2 H2 H2 H2 H2 H2 H H H H H H H H H H H H H H H H H H H H H H H H                         J0 J0 J0 J0 J0 J0 J0 J0 J0 J0 J0 J0 J0 J0 J0 J0 J0 J0 J0 J0 J0 J0 J0 J0 J0 J0 J0 J0 J0 J0 J0 J0 J0 J0 J0 J0 J0 J0 J0 J0 J0 J0 J0 J0 J0 J0 J0 J0 J0 J0 J0 J0 J0 J0 J0 J0 J0 J0 J0 J0 J0 J0 J0 J0 J0 J0 J0 J0 J0 J0 J0 J0 J0 J0 J0 J0 J0 J0 J0 J0 J0 J0 J0 J0 J0 J0 J0 J0 J0 J0 J0 J0 J0 J0 J0 J0 0 0 0 0 0 0 0 0 0 0 0 0 0 0 0 0 0 0 0 0 0 0 0 0 L0 L0 L0 L0 L0 L0 L0 L0 L0 L0 L0 L0 L0 L0 L0 L0 L0 L0 L0 L0 L0 L0 L0 L0 L0 L0 L0 L0 L0 L0 L0 L0 L0 L0 L0 L0 L0 L0 L0 L0 L0 L0 L0 L0 L0 L0 L0 L0 L0 L0 L0 L0 L0 L0 L0 L0 L0 L0 L0 L0 L0 L0 L0 L0 L0 L0 L0 L0 L0 L0 L0 L0 L L L L L L L L L L L L L L L L L L L L L L L L                         M/ M/ M/ M/ M/ M/ M/ M/ M/ M/ M/ M/ M/ M/ M/ M/ M/ M/ M/ M/ M/ M/ M/ M/ M/ M/ M/ M/ M/ M/ M/ M/ M/ M/ M/ M/ M/ M/ M/ M/ M/ M/ M/ M/ M/ M/ M/ M/ M/ M/ M/ M/ M/ M/ M/ M/ M/ M/ M/ M/ M/ M/ M/ M/ M/ M/ M/ M/ M/ M/ M/ M/ M/ M/ M/ M/ M/ M/ M/ M/ M/ M/ M/ M/ M/ M/ M/ M/ M/ M/ M/ M/ M/ M/ M/ M/ / / / / / / / / / / / / / / / / / / / / / / / / L/ L/ L/ L/ L/ L/ L/ L/ L/ L/ L/ L/ L/ L/ L/ L/ L/ L/ L/ L/ L/ L/ L/ L/ L/ L/ L/ L/ L/ L/ L/ L/ L/ L/ L/ L/ L/ L/ L/ L/ L/ L/ L/ L/ L/ L/ L/ L/ L/ L/ L/ L/ L/ L/ L/ L/ L/ L/ L/ L/ L/ L/ L/ L/ L/ L/ L/ L/ L/ L/ L/ L/ L L L L L L L L L L L L L L L L L L L L L L L L                         Q0 Q0 Q0 Q0 Q0 Q0 Q0 Q0 Q0 Q0 Q0 Q0 Q0 Q0 Q0 Q0 Q0 Q0 Q0 Q0 Q0 Q0 Q0 Q0 Q0 Q0 Q0 Q0 Q0 Q0 Q0 Q0 Q0 Q0 Q0 Q0 Q0 Q0 Q0 Q0 Q0 Q0 Q0 Q0 Q0 Q0 Q0 Q0 Q0 Q0 Q0 Q0 Q0 Q0 Q0 Q0 Q0 Q0 Q0 Q0 Q0 Q0 Q0 Q0 Q0 Q0 Q0 Q0 Q0 Q0 Q0 Q0 Q0 Q0 Q0 Q0 Q0 Q0 Q0 Q0 Q0 Q0 Q0 Q0 Q0 Q0 Q0 Q0 Q0 Q0 Q0 Q0 Q0 Q0 Q0 Q0 Q Q Q Q Q Q Q Q Q Q Q Q Q Q Q Q Q Q Q Q Q Q Q Q Q2 Q2 Q2 Q2 Q2 Q2 Q2 Q2 Q2 Q2 Q2 Q2 Q2 Q2 Q2 Q2 Q2 Q2 Q2 Q2 Q2 Q2 Q2 Q2 Q2 Q2 Q2 Q2 Q2 Q2 Q2 Q2 Q2 Q2 Q2 Q2 Q2 Q2 Q2 Q2 Q2 Q2 Q2 Q2 Q2 Q2 Q2 Q2 Q2 Q2 Q2 Q2 Q2 Q2 Q2 Q2 Q2 Q2 Q2 Q2 Q2 Q2 Q2 Q2 Q2 Q2 Q2 Q2 Q2 Q2 Q2 Q2 2 2 2 2 2 2 2 2 2 2 2 2 2 2 2 2 2 2 2 2 2 2 2 2                         P4 P4 P4 P4 P4 P4 P4 P4 P4 P4 P4 P4 P4 P4 P4 P4 P4 P4 P4 P4 P4 P4 P4 P4 4 4 4 4 4 4 N4 N4 N4 N4 N4 N4 N4 N4 N4 N4 N4 N4 N4 N4 N4 N4 N4 N4 N4 N4 N4 N4 N4 N4 4 4 4 4 4 4 P4 P4 P4 P4 P4 P4 P4 P4 P4 P4 P4 P4 P4 P4 P4 P4 P4 P4 P4 P4 P4 P4 P4 P4 P4 P4 P4 P4 P4 P4 P4 P4 P4 P4 P4 P4 P P P P P P P P P P P P P P P P P P P P P P P P P2 P2 P2 P2 P2 P2 P2 P2 P2 P2 P2 P2 P2 P2 P2 P2 P2 P2 P2 P2 P2 P2 P2 P2 P2 P2 P2 P2 P2 P2 P2 P2 P2 P2 P2 P2 P2 P2 P2 P2 P2 P2 P2 P2 P2 P2 P2 P2 P2 P2 P2 P2 P2 P2 P2 P2 P2 P2 P2 P2 P2 P2 P2 P2 P2 P2 P2 P2 P2 P2 P2 P2 P2 P2 P2 P2 P2 P2 P2 P2 P2 P2 P2 P2 P2 P2 P2 P2 P2 P2 P2 P2 P2 P2 P2 P2 P P P P P P P P P P P P P P P P P P P P P P P P P5 P5 P5 P5 P5 P5 P5 P5 P5 P5 P5 P5 P5 P5 P5 P5 P5 P5 P5 P5 P5 P5 P5 P5 P5 P5 P5 P5 P5 P5 P5 P5 P5 P5 P5 P5 P5 P5 P5 P5 P5 P5 P5 P5 P5 P5 P5 P5 P5 P5 P5 P5 P5 P5 P5 P5 P5 P5 P5 P5 P5 P5 P5 P5 P5 P5 P5 P5 P5 P5 P5 P5 5 5 5 5 5 5 5 5 5 5 5 5 5 5 5 5 5 5 5 5 5 5 5 5                         Q4 Q4 Q4 Q4 Q4 Q4 Q4 Q4 Q4 Q4 Q4 Q4 Q4 Q4 Q4 Q4 Q4 Q4 Q4 Q4 Q4 Q4 Q4 Q4 Q4 Q4 Q4 Q4 Q4 Q4 Q4 Q4 Q4 Q4 Q4 Q4 Q4 Q4 Q4 Q4 Q4 Q4 Q4 Q4 Q4 Q4 Q4 Q4 Q4 Q4 Q4 Q4 Q4 Q4 Q4 Q4 Q4 Q4 Q4 Q4 Q4 Q4 Q4 Q4 Q4 Q4 Q4 Q4 Q4 Q4 Q4 Q4 Q4 Q4 Q4 Q4 Q4 Q4 Q4 Q4 Q4 Q4 Q4 Q4 Q4 Q4 Q4 Q4 Q4 Q4 Q4 Q4 Q4 Q4 Q4 Q4                         S2 S2 S2 S2 S2 S2 S2 S2 S2 S2 S2 S2 S2 S2 S2 S2 S2 S2 S2 S2 S2 S2 S2 S2 S2 S2 S2 S2 S2 S2 S2 S2 S2 S2 S2 S2 S2 S2 S2 S2 S2 S2 S2 S2 S2 S2 S2 S2 S2 S2 S2 S2 S2 S2 S2 S2 S2 S2 S2 S2 S2 S2 S2 S2 S2 S2 S2 S2 S2 S2 S2 S2 S2 S2 S2 S2 S2 S2 S2 S2 S2 S2 S2 S2 S2 S2 S2 S2 S2 S2 S2 S2 S2 S2 S2 S2                         L0 L0 L0 L0 L0 L0 L0 L0 L0 L0 L0 L0 L0 L0 L0 L0 L0 L0 L0 L0 L0 L0 L0 L0 L0 L0 L0 L0 L0 L0 L0 L0 L0 L0 L0 L0 L0 L0 L0 L0 L0 L0 L0 L0 L0 L0 L0 L0 L0 L0 L0 L0 L0 L0 L0 L0 L0 L0 L0 L0 L0 L0 L0 L0 L0 L0 L0 L0 L0 L0 L0 L0 L0 L0 L0 L0 L0 L0 L0 L0 L0 L0 L0 L0 L0 L0 L0 L0 L0 L0 L0 L0 L0 L0 L0 L0                         T/ T/ T/ T/ T/ T/ T/ T/ T/ T/ T/ T/ T/ T/ T/ T/ T/ T/ T/ T/ T/ T/ T/ T/ T/ T/ T/ T/ T/ T/ T/ T/ T/ T/ T/ T/ T/ T/ T/ T/ T/ T/ T/ T/ T/ T/ T/ T/ T/ T/ T/ T/ T/ T/ T/ T/ T/ T/ T/ T/ T/ T/ T/ T/ T/ T/ T/ T/ T/ T/ T/ T/ T/ T/ T/ T/ T/ T/ T/ T/ T/ T/ T/ T/ T/ T/ T/ T/ T/ T/ T/ T/ T/ T/ T/ T/ T T T T T T T T T T T T T T T T T T T T T T T T T- T- T- T- T- T- T- T- T- T- T- T- T- T- T- T- T- T- T- T- T- T- T- T- T- T- T- T- T- T- T- T- T- T- T- T- T- T- T- T- T- T- T- T- T- T- T- T- T- T- T- T- T- T- T- T- T- T- T- T- T- T- T- T- T- T- T- T- T- T- T- T- - - - - - - - - - - - - - - - - - - - - - - - -                         T2 T2 T2 T2 T2 T2 T2 T2 T2 T2 T2 T2 T2 T2 T2 T2 T2 T2 T2 T2 T2 T2 T2 T2 T2 T2 T2 T2 T2 T2 T2 T2 T2 T2 T2 T2 T2 T2 T2 T2 T2 T2 T2 T2 T2 T2 T2 T2 T2 T2 T2 T2 T2 T2 T2 T2 T2 T2 T2 T2 T2 T2 T2 T2 T2 T2 T2 T2 T2 T2 T2 T2 T2 T2 T2 T2 T2 T2 T2 T2 T2 T2 T2 T2 T2 T2 T2 T2 T2 T2 T2 T2 T2 T2 T2 T2 2 2 2 2 2 2 2 2 2 2 2 2 2 2 2 2 2 2 2 2 2 2 2 2 S2 S2 S2 S2 S2 S2 S2 S2 S2 S2 S2 S2 S2 S2 S2 S2 S2 S2 S2 S2 S2 S2 S2 S2 S2 S2 S2 S2 S2 S2 S2 S2 S2 S2 S2 S2 S2 S2 S2 S2 S2 S2 S2 S2 S2 S2 S2 S2 S2 S2 S2 S2 S2 S2 S2 S2 S2 S2 S2 S2 S2 S2 S2 S2 S2 S2 S2 S2 S2 S2 S2 S2 S S S S S S S S S S S S S S S S S S S S S S S S                         Q4 Q4 Q4 Q4 Q4 Q4 Q4 Q4 Q4 Q4 Q4 Q4 Q4 Q4 Q4 Q4 Q4 Q4 Q4 Q4 Q4 Q4 Q4 Q4 Q4 Q4 Q4 Q4 Q4 Q4 Q4 Q4 Q4 Q4 Q4 Q4 Q4 Q4 Q4 Q4 Q4 Q4 Q4 Q4 Q4 Q4 Q4 Q4 Q4 Q4 Q4 Q4 Q4 Q4 Q4 Q4 Q4 Q4 Q4 Q4 Q4 Q4 Q4 Q4 Q4 Q4 Q4 Q4 Q4 Q4 Q4 Q4 Q4 Q4 Q4 Q4 Q4 Q4 Q4 Q4 Q4 Q4 Q4 Q4 Q4 Q4 Q4 Q4 Q4 Q4 Q4 Q4 Q4 Q4 Q4 Q4 4 4 4 4 4 4 4 4 4 4 4 4 4 4 4 4 4 4 4 4 4 4 4 4 P4 P4 P4 P4 P4 P4 P4 P4 P4 P4 P4 P4 P4 P4 P4 P4 P4 P4 P4 P4 P4 P4 P4 P4 P4 P4 P4 P4 P4 P4 P4 P4 P4 P4 P4 P4 P4 P4 P4 P4 P4 P4 P4 P4 P4 P4 P4 P4 P4 P4 P4 P4 P4 P4 P4 P4 P4 P4 P4 P4 P4 P4 P4 P4 P4 P4 P4 P4 P4 P4 P4 P4 P P P P P P P P P P P P P P P P P P P P P P P P                         Q5 Q5 Q5 Q5 Q5 Q5 Q5 Q5 Q5 Q5 Q5 Q5 Q5 Q5 Q5 Q5 Q5 Q5 Q5 Q5 Q5 Q5 Q5 Q5 Q5 Q5 Q5 Q5 Q5 Q5 Q5 Q5 Q5 Q5 Q5 Q5 Q5 Q5 Q5 Q5 Q5 Q5 Q5 Q5 Q5 Q5 Q5 Q5 Q5 Q5 Q5 Q5 Q5 Q5 Q5 Q5 Q5 Q5 Q5 Q5 Q5 Q5 Q5 Q5 Q5 Q5 Q5 Q5 Q5 Q5 Q5 Q5 Q5 Q5 Q5 Q5 Q5 Q5 Q5 Q5 Q5 Q5 Q5 Q5 Q5 Q5 Q5 Q5 Q5 Q5 Q5 Q5 Q5 Q5 Q5 Q5                         L1 L1 L1 L1 L1 L1 L1 L1 L1 L1 L1 L1 L1 L1 L1 L1 L1 L1 L1 L1 L1 L1 L1 L1 L1 L1 L1 L1 L1 L1 L1 L1 L1 L1 L1 L1 L1 L1 L1 L1 L1 L1 L1 L1 L1 L1 L1 L1 L1 L1 L1 L1 L1 L1 L1 L1 L1 L1 L1 L1 L1 L1 L1 L1 L1 L1 L1 L1 L1 L1 L1 L1 L1 L1 L1 L1 L1 L1 L1 L1 L1 L1 L1 L1 L1 L1 L1 L1 L1 L1 L1 L1 L1 L1 L1 L1                         M2 M2 M2 M2 M2 M2 M2 M2 M2 M2 M2 M2 M2 M2 M2 M2 M2 M2 M2 M2 M2 M2 M2 M2 M2 M2 M2 M2 M2 M2 M2 M2 M2 M2 M2 M2 M2 M2 M2 M2 M2 M2 M2 M2 M2 M2 M2 M2 M2 M2 M2 M2 M2 M2 M2 M2 M2 M2 M2 M2 M2 M2 M2 M2 M2 M2 M2 M2 M2 M2 M2 M2 M2 M2 M2 M2 M2 M2 M2 M2 M2 M2 M2 M2 M2 M2 M2 M2 M2 M2 M2 M2 M2 M2 M2 M2                         J9 J9 J9 J9 J9 J9 J9 J9 J9 J9 J9 J9 J9 J9 J9 J9 J9 J9 J9 J9 J9 J9 J9 J9 J9 J9 J9 J9 J9 J9 J9 J9 J9 J9 J9 J9 J9 J9 J9 J9 J9 J9 J9 J9 J9 J9 J9 J9 J9 J9 J9 J9 J9 J9 J9 J9 J9 J9 J9 J9 J9 J9 J9 J9 J9 J9 J9 J9 J9 J9 J9 J9 J9 J9 J9 J9 J9 J9 J9 J9 J9 J9 J9 J9 J9 J9 J9 J9 J9 J9 J9 J9 J9 J9 J9 J9                         L8 L8 L8 L8 L8 L8 L8 L8 L8 L8 L8 L8 L8 L8 L8 L8 L8 L8 L8 L8 L8 L8 L8 L8 8 8 8 8 8 8 J8 J8 J8 J8 J8 J8 J8 J8 J8 J8 J8 J8 J8 J8 J8 J8 J8 J8 J8 J8 J8 J8 J8 J8 8 8 8 8 8 8 L8 L8 L8 L8 L8 L8 L8 L8 L8 L8 L8 L8 L8 L8 L8 L8 L8 L8 L8 L8 L8 L8 L8 L8 L8 L8 L8 L8 L8 L8 L8 L8 L8 L8 L8 L8 L L L L L L L L L L L L L L L L L L L L L L L L L4 L4 L4 L4 L4 L4 L4 L4 L4 L4 L4 L4 L4 L4 L4 L4 L4 L4 L4 L4 L4 L4 L4 L4 L4 L4 L4 L4 L4 L4 L4 L4 L4 L4 L4 L4 L4 L4 L4 L4 L4 L4 L4 L4 L4 L4 L4 L4 L4 L4 L4 L4 L4 L4 L4 L4 L4 L4 L4 L4 L4 L4 L4 L4 L4 L4 L4 L4 L4 L4 L4 L4 L4 L4 L4 L4 L4 L4 L4 L4 L4 L4 L4 L4 L4 L4 L4 L4 L4 L4 L4 L4 L4 L4 L4 L4 L L L L L L L L L L L L L L L L L L L L L L L L L9 L9 L9 L9 L9 L9 L9 L9 L9 L9 L9 L9 L9 L9 L9 L9 L9 L9 L9 L9 L9 L9 L9 L9 L9 L9 L9 L9 L9 L9 L9 L9 L9 L9 L9 L9 L9 L9 L9 L9 L9 L9 L9 L9 L9 L9 L9 L9 L9 L9 L9 L9 L9 L9 L9 L9 L9 L9 L9 L9 L9 L9 L9 L9 L9 L9 L9 L9 L9 L9 L9 L9 9 9 9 9 9 9 9 9 9 9 9 9 9 9 9 9 9 9 9 9 9 9 9 9                         M2 M2 M2 M2 M2 M2 M2 M2 M2 M2 M2 M2 M2 M2 M2 M2 M2 M2 M2 M2 M2 M2 M2 M2 M2 M2 M2 M2 M2 M2 M2 M2 M2 M2 M2 M2 M2 M2 M2 M2 M2 M2 M2 M2 M2 M2 M2 M2 M2 M2 M2 M2 M2 M2 M2 M2 M2 M2 M2 M2 M2 M2 M2 M2 M2 M2 M2 M2 M2 M2 M2 M2 M2 M2 M2 M2 M2 M2 M2 M2 M2 M2 M2 M2 M2 M2 M2 M2 M2 M2 M2 M2 M2 M2 M2 M2                         GD4 GD4 GD4 GD4 GD4 GD4 GD4 GD4 GD4 GD4 GD4 GD4 GD4 GD4 GD4 GD4 GD4 GD4 GD4 GD4 GD4 GD4 GD4 GD4 D4 D4 D4 D4 D4 D4 HD4 HD4 HD4 HD4 HD4 HD4 HD4 HD4 HD4 HD4 HD4 HD4 HD4 HD4 HD4 HD4 HD4 HD4 HD4 HD4 HD4 HD4 HD4 HD4 D4 D4 D4 D4 D4 D4 GD4 GD4 GD4 GD4 GD4 GD4 GD4 GD4 GD4 GD4 GD4 GD4 GD4 GD4 GD4 GD4 GD4 GD4 GD4 GD4 GD4 GD4 GD4 GD4 GD4 GD4 GD4 GD4 GD4 GD4 GD4 GD4 GD4 GD4 GD4 GD4 GD4 GD4 GD4 GD4 GD4 GD4 GD4 GD4 GD4 GD4 GD4 GD4 GD4 GD4 GD4 GD4 GD4 GD4 GD4 GD4 GD4 GD4 GD4 GD4 GD4 GD4 GD4 GD4 GD4 GD4 GD4 GD4 GD4 GD4 GD4 GD4 GD4 GD4 GD4 GD4 GD4 GD4 GD4 GD4 GD4 GD4 GD4 GD4 GD4 GD4 GD4 GD4 GD4 GD4 GD4 GD4 GD4 GD4 GD4 GD4 GD4 GD4 GD4 GD4 GD4 GD4 GD4 GD4 GD4 GD4 GD4 GD4 GD4 GD4 GD4 GD4 GD4 GD4 GD4 GD4 GD4 GD4 GD4 GD4 GD4 GD4 GD4 GD4 GD4 GD4 GD4 GD4 GD4 GD4 GD4 GD4 GD GD GD GD GD GD GD GD GD GD GD GD GD GD GD GD GD GD GD GD GD GD GD GD GD GD GD GD GD GD GD GD GD GD GD GD GD GD GD GD GD GD GD GD GD GD GD GD GD( GD( GD( GD( GD( GD( GD( GD( GD( GD( GD( GD( GD( GD( GD( GD( GD( GD( GD( GD( GD( GD( GD( GD( GD( GD( GD( GD( GD( GD( GD( GD( GD( GD( GD( GD( GD( GD( GD( GD( GD( GD( GD( GD( GD( GD( GD( GD( GD( GD( GD( GD( GD( GD( GD( GD( GD( GD( GD( GD( GD( GD( GD( GD( GD( GD( GD( GD( GD( GD( GD( GD( D( D( D( D( D( D( D( D( D( D( D( D( D( D( D( D( D( D( D( D( D( D( D( D( D( D( D( D( D( D( D( D( D( D( D( D( D( D( D( D( D( D( D( D( D( D( D( D( DE( DE( DE( DE( DE( DE( DE( DE( DE( DE( DE( DE( DE( DE( DE( DE( DE( DE( DE( DE( DE( DE( DE( DE( E( E( E( E( E( E( E( E( E( E( E( E( E( E( E( E( E( E( E( E( E( E( E( E( E( E( E( E( E( E( E( E( E( E( E( E( E( E( E( E( E( E( E( E( E( E( E( E( E E E E E E E E E E E E E E E E E E E E E E E E                         E- E- E- E- E- E- E- E- E- E- E- E- E- E- E- E- E- E- E- E- E- E- E- E- E- E- E- E- E- E- E- E- E- E- E- E- E- E- E- E- E- E- E- E- E- E- E- E- E- E- E- E- E- E- E- E- E- E- E- E- E- E- E- E- E- E- E- E- E- E- E- E- E- E- E- E- E- E- E- E- E- E- E- E- E- E- E- E- E- E- E- E- E- E- E- E- E- E- E- E- E- E- E- E- E- E- E- E- E- E- E- E- E- E- E- E- E- E- E- E- E- E- E- E- E- E- E- E- E- E- E- E- E- E- E- E- E- E- E- E- E- E- E- E- E- E- E- E- E- E- E- E- E- E- E- E- E- E- E- E- E- E- E- E- E- E- E- E- E- E- E- E- E- E- E- E- E- E- E- E- E- E- E- E- E- E- E- E- E- E- E- E- E- E- E- E- E- E- E- E- E- E- E- E- E- E- E- E- E- E- E- E- E- E- E- E- E- E- E- E- E- E- E- E- E- E- E- E- E- E- E- E- E- E- E- E- E- E- E- E- E0- E0- E0- E0- E0- E0- E0- E0- E0- E0- E0- E0- E0- E0- E0- E0- E0- E0- E0- E0- E0- E0- E0- E0- E0- E0- E0- E0- E0- E0- E0- E0- E0- E0- E0- E0- E0- E0- E0- E0- E0- E0- E0- E0- E0- E0- E0- E0- E0- E0- E0- E0- E0- E0- E0- E0- E0- E0- E0- E0- E0- E0- E0- E0- E0- E0- E0- E0- E0- E0- E0- E0- E0- E0- E0- E0- E0- E0- E0- E0- E0- E0- E0- E0- E0- E0- E0- E0- E0- E0- E0- E0- E0- E0- E0- E0- E0- E0- E0- E0- E0- E0- E0- E0- E0- E0- E0- E0- E0- E0- E0- E0- E0- E0- E0- E0- E0- E0- E0- E0- E0- E0- E0- E0- E0- E0- E0- E0- E0- E0- E0- E0- E0- E0- E0- E0- E0- E0- E0- E0- E0- E0- E0- E0- E0- E0- E0- E0- E0- E0- E0- E0- E0- E0- E0- E0- E0- E0- E0- E0- E0- E0- E0- E0- E0- E0- E0- E0- E0- E0- E0- E0- E0- E0- E0- E0- E0- E0- E0- E0- E0- E0- E0- E0- E0- E0- E0- E0- E0- E0- E0- E0- E- E- E- E- E- E- E- E- E- E- E- E- E- E- E- E- E- E- E- E- E- E- E- E- E- E- E- E- E- E- E- E- E- E- E- E- E- E- E- E- E- E- E- E- E- E- E- E- @<E4- @<E4- @<E4- @<E4- @<E4- @<E4- @<E4- @<E4- @<E4- @<E4- @<E4- @<E4- @<E4- @<E4- @<E4- @<E4- @<E4- @<E4- @<E4- @<E4- @<E4- @<E4- @<E4- @<E4- @<E4- @<E4- @<E4- @<E4- @<E4- @<E4- @<E4- @<E4- @<E4- @<E4- @<E4- @<E4- @<E4- @<E4- @<E4- @<E4- @<E4- @<E4- @<E4- @<E4- @<E4- @<E4- @<E4- @<E4- @<E4- @<E4- @<E4- @<E4- @<E4- @<E4- @<E4- @<E4- @<E4- @<E4- @<E4- @<E4- @<E4- @<E4- @<E4- @<E4- @<E4- @<E4- @<E4- @<E4- @<E4- @<E4- @<E4- @<E4- @<E4- @<E4- @<E4- @<E4- @<E4- @<E4- @<E4- @<E4- @<E4- @<E4- @<E4- @<E4- @<E4- @<E4- @<E4- @<E4- @<E4- @<E4- @<E4- @<E4- @<E4- @<E4- @<E4- @<E4- @<E4- @<E4- @<E4- @<E4- @<E4- @<E4- @<E4- @<E4- @<E4- @<E4- @<E4- @<E4- @<E4- @<E4- @<E4- @<E4- @<E4- @<E4- @<E4- @<E4- @<E4- @<E4- @<E4- @<E4- @<E4- @<E4- @<E4- @<E4- @<E4- @<E4- @<E4- @<E4- @<E4- @<E4- @<E4- @<E4- @<E4- @<E4- @<E4- @<E4- @<E4- @<E4- @<E4- @<E4- @<E4- @<E4- @<E4- @<E4- @<E4- @<E4- @<E4- @<E4- @<E4- @<E4- @<E4- @<E4- @<E4- @<E4- @<E4- @<E4- @<E4- @<E4- @<E4- @<E4- @<E4- @<E4- @<E4- @<E4- @<E4- @<E4- @<E4- @<E4- @<E4- @<E4- @<E4- @<E4- @<E4- @<E4- @<E4- @<E4- @<E4- @<E4- @<E4- @<E4- @<E4- @<E4- @<E4- @<E4- @<E4- @<E4- @<E4- @<E4- @<E4- @<E4- @<E4- @<E4- @<E- @<E- @<E- @<E- @<E- @<E- @<E- @<E- @<E- @<E- @<E- @<E- @<E- @<E- @<E- @<E- @<E- @<E- @<E- @<E- @<E- @<E- @<E- @<E- @<E- @<E- @<E- @<E- @<E- @<E- @<E- @<E- @<E- @<E- @<E- @<E- @<E- @<E- @<E- @<E- @<E- @<E- @<E- @<E- @<E- @<E- @<E- @<E- @<E9- @<E9- @<E9- @<E9- @<E9- @<E9- @<E9- @<E9- @<E9- @<E9- @<E9- @<E9- @<E9- @<E9- @<E9- @<E9- @<E9- @<E9- @<E9- @<E9- @<E9- @<E9- @<E9- @<E9- @<E9- @<E9- @<E9- @<E9- @<E9- @<E9- @<E9- @<E9- @<E9- @<E9- @<E9- @<E9- @<E9- @<E9- @<E9- @<E9- @<E9- @<E9- @<E9- @<E9- @<E9- @<E9- @<E9- @<E9- @<E9- @<E9- @<E9- @<E9- @<E9- @<E9- @<E9- @<E9- @<E9- @<E9- @<E9- @<E9- @<E9- @<E9- @<E9- @<E9- @<E9- @<E9- @<E9- @<E9- @<E9- @<E9- @<E9- @<E9- @<E9- @<E9- @<E9- @<E9- @<E9- @<E9- @<E9- @<E9- @<E9- @<E9- @<E9- @<E9- @<E9- @<E9- @<E9- @<E9- @<E9- @<E9- @<E9- @<E9- @<E9- @<E9- @<E9- @<E9- @<E9- @<E9- @<E9- @<E9- @<E9- @<E9- @<E9- @<E9- @<E9- @<E9- @<E9- @<E9- @<E9- @<E9- @<E9- @<E9- @<E9- @<E9- @<E9- @<E9- @<E9- @<E9- @<E9- @<E9- @<E9- @<E9- @<E9- @<E9- @<E9- @<E9- @<E9- @<E9- @<E9- @<E9- @<E9- @<E9- @<E9- @<E9- @<E9- @<E9- @<E9- @<E9- @<E9- @<E9- @<E9- @<E9- @<E9- @<E9- E9- E9- E9- E9- E9- E9- E9- E9- E9- E9- E9- E9- E9- E9- E9- E9- E9- E9- E9- E9- E9- E9- E9- E9- E9- E9- E9- E9- E9- E9- E9- E9- E9- E9- E9- E9- E9- E9- E9- E9- E9- E9- E9- E9- E9- E9- E9- E9- E9- E9- E9- E9- E9- E9- E9- E9- E9- E9- E9- E9- E9- E9- E9- E9- E9- E9- E9- E9- E9- E9- E9- E9- E9- E9- E9- E9- E9- E9- E9- E9- E9- E9- E9- E9- E9- E9- E9- E9- E9- E9- E9- E9- E9- E9- E9- E9- E9- E9- E9- E9- E9- E9- E9- E9- E9- E9- E9- E9- E9- E9- E9- E9- E9- E9- E9- E9- E9- E9- E9- E9- E9- E9- E9- E9- E9- E9- E9- E9- E9- E9- E9- E9- E9- E9- E9- E9- E9- E9- E9- E9- E9- E9- E9- E9- E9- E9- E9- E9- E9- E9- E9- E9- E9- E9- E9- E9- E9- E9- E9- E9- E9- E9- E9- E9- E9- E9- E9- E9- E9- E9- E9- E9- E9- E9- E9- E9- E9- E9- E9- E9- E9- E9- E9- E9- E9- E9- E9- E9- E9- E9- E9- E9- E9- E9- E9- E9- E9- E9- E9- E9- E9- E9- E9- E9- E9- E9- E9- E9- E9- E9- E9- E9- E9- E9- E9- E9- E9- E9- E9- E9- E9- E9- E9- E9- E9- E9- E9- E9- E9- E9- E9- E9- E9- E9- E9- E9- E9- E9- E9- E9-  