@HE9 @HE9 @HE9 @HE9 @HE9 @HE9 @HE9 @HE9 @HE9 @HE9 @HE9 @HE9 @HE9 @HE9 @HE9 @HE9 @HE9 @HE9 @HE9 @HE9 @HE9 @HE9 @HE9 @HE9 @HE9 @HE9 @HE9 @HE9 @HE9 @HE9 @HE9 @HE9 @HE9 @HE9 @HE9 @HE9 @HE9 @HE9 @HE9 @HE9 @HE9 @HE9 @HE9 @HE9 @HE9 @HE9 @HE9 @HE9 @HE9 @HE9 @HE9 @HE9 @HE9 @HE9 @HE9 @HE9 @HE9 @HE9 @HE9 @HE9 @HE9 @HE9 @HE9 @HE9 @HE9 @HE9 @HE9 @HE9 @HE9 @HE9 @HE9 @HE9 @HE9 @HE9 @HE9 @HE9 @HE9 @HE9 @HE9 @HE9 @HE9 @HE9 @HE9 @HE9 @HE9 @HE9 @HE9 @HE9 @HE9 @HE9 @HE9 @HE9 @HE9 @HE9 @HE9 @HE9 @HE9 @HE9 @HE9 @HE9 @HE9 @HE9 @HE9 @HE9 @HE9 @HE9 @HE9 @HE9 @HE9 @HE9 @HE9 @HE9 @HE9 @HE9 @HE9 @HE9 @HE9 @HE9 @HE9 @HE9 @HE9 @HE9 @HE9 @HE9 @HE9 @HE9 @HE9 @HE9 @HE9 @HE9 @HE9 @HE9 @HE9 @HE9 @HE9 @HE9 @HE9 @HE9 @HE9 @HE9 @HE9 @HE9 @HE9 @HE9 @HE9 @HE9 @HE9 @HE9 @HE9 @HE9 @HE9 @HE9 @HE9 @HE9 @HE9 @HE9 @HE9 @HE9 @HE9 @HE9 @HE9 @HE9 @HE9 @HE9 @HE9 @HE9 @HE9 @HE9 @HE9 @HE9 @HE9 @HE9 @HE9 @HE9 @HE9 @HE9 @HE9 @HE9 @HE9 @HE9 @HE9 @HE9 @HE9 @HE9 @HE9 @HE9 @HE9 @HE9 @HE9 @HE9 @HE9 @HE9                                                 @HA2 @HA2 @HA2 @HA2 @HA2 @HA2 @HA2 @HA2 @HA2 @HA2 @HA2 @HA2 @HA2 @HA2 @HA2 @HA2 @HA2 @HA2 @HA2 @HA2 @HA2 @HA2 @HA2 @HA2 @HA2 @HA2 @HA2 @HA2 @HA2 @HA2 @HA2 @HA2 @HA2 @HA2 @HA2 @HA2 @HA2 @HA2 @HA2 @HA2 @HA2 @HA2 @HA2 @HA2 @HA2 @HA2 @HA2 @HA2 @HA2 @HA2 @HA2 @HA2 @HA2 @HA2 @HA2 @HA2 @HA2 @HA2 @HA2 @HA2 @HA2 @HA2 @HA2 @HA2 @HA2 @HA2 @HA2 @HA2 @HA2 @HA2 @HA2 @HA2 @HA2 @HA2 @HA2 @HA2 @HA2 @HA2 @HA2 @HA2 @HA2 @HA2 @HA2 @HA2 @HA2 @HA2 @HA2 @HA2 @HA2 @HA2 @HA2 @HA2 @HA2 @HA2 @HA2 @HA2 A2 A2 A2 A2 A2 A2 A2 A2 A2 A2 A2 A2 A2 A2 A2 A2 A2 A2 A2 A2 A2 A2 A2 A2 AG>2 AG>2 AG>2 AG>2 AG>2 AG>2 AG>2 AG>2 AG>2 AG>2 AG>2 AG>2 AG>2 AG>2 AG>2 AG>2 AG>2 AG>2 AG>2 AG>2 AG>2 AG>2 AG>2 AG>2 AG>2 AG>2 AG>2 AG>2 AG>2 AG>2 AG>2 AG>2 AG>2 AG>2 AG>2 AG>2 AG>2 AG>2 AG>2 AG>2 AG>2 AG>2 AG>2 AG>2 AG>2 AG>2 AG>2 AG>2 AG>2 AG>2 AG>2 AG>2 AG>2 AG>2 AG>2 AG>2 AG>2 AG>2 AG>2 AG>2 AG>2 AG>2 AG>2 AG>2 AG>2 AG>2 AG>2 AG>2 AG>2 AG>2 AG>2 AG>2 G> G> G> G> G> G> G> G> G> G> G> G> G> G> G> G> G> G> G> G> G> G> G> G>                         E<@4 E<@4 E<@4 E<@4 E<@4 E<@4 E<@4 E<@4 E<@4 E<@4 E<@4 E<@4 E<@4 E<@4 E<@4 E<@4 E<@4 E<@4 E<@4 E<@4 E<@4 E<@4 E<@4 E<@4 E<@4 E<@4 E<@4 E<@4 E<@4 E<@4 E<@4 E<@4 E<@4 E<@4 E<@4 E<@4 E<@4 E<@4 E<@4 E<@4 E<@4 E<@4 E<@4 E<@4 E<@4 E<@4 E<@4 E<@4 E<@4 E<@4 E<@4 E<@4 E<@4 E<@4 E<@4 E<@4 E<@4 E<@4 E<@4 E<@4 E<@4 E<@4 E<@4 E<@4 E<@4 E<@4 E<@4 E<@4 E<@4 E<@4 E<@4 E<@4 E<@4 E<@4 E<@4 E<@4 E<@4 E<@4 E<@4 E<@4 E<@4 E<@4 E<@4 E<@4 E<@4 E<@4 E<@4 E<@4 E<@4 E<@4 E<@4 E<@4 E<@4 E<@4 E<@4 E<@4 @4 @4 @4 @4 @4 @4 @4 @4 @4 @4 @4 @4 @4 @4 @4 @4 @4 @4 @4 @4 @4 @4 @4 @4 D;@4 D;@4 D;@4 D;@4 D;@4 D;@4 D;@4 D;@4 D;@4 D;@4 D;@4 D;@4 D;@4 D;@4 D;@4 E;@4 E;@4 E;@4 E;@4 E;@4 E;@4 E;@4 E;@4 E;@4 E;@4 E;@4 E;@4 E;@4 E;@4 E;@4 D;@4 D;@4 D;@4 D;@4 D;@4 D;@4 D;@4 D;@4 D;@4 D;@4 D;@4 D;@4 D;@4 D;@4 D;@4 D;@4 D;@4 D;@4 D;@4 D;@4 D;@4 D;@4 D;@4 D;@4 D;@4 D;@4 D;@4 D;@4 D;@4 D;@4 D;@4 D;@4 D;@4 D;@4 D;@4 D;@4 D;@4 D;@4 D;@4 D;@4 D;@4 D;@4 D;@ D;@ D;@ D;@ D;@ D;@ ;@ ;@ ;@ ;@ ;@ ;@ ;@ ;@ ;@ ;@ ;@ ;@ ;@ ;@ ;@ ;@ ;@ ;@ @ @ @ @ @ @ @ @ @                E<95 E<95 E<95 E<95 E<95 E<95 E<95 E<95 E<95 E<95 E<95 E<95 E<95 E<95 E<95 E<95 E<95 E<95 E<95 E<95 E<95 E<95 E<95 E<95 E<95 E<95 E<95 E<95 E<95 E<95 E<95 E<95 E<95 E<95 E<95 E<95 E<95 E<95 E<95 E<95 E<95 E<95 E<95 E<95 E<95 E<95 E<95 E<95 E<95 E<95 E<95 E<95 E<95 E<95 E<95 E<95 E<95 <95 <95 <95 D<95 D<95 D<95 D<95 D<95 D<95 D<95 D<95 D<95 D<95 D<95 D<95 D<95 D<95 D<95 D<95 D<95 D<95 D<95 D<95 D<95 D<95 D<95 D<95 D<95 D<95 D<95 D<95 D<95 D<95 D<95 D<95 D<95 D<95 D<95 D<95 D<95 D<95 D<95 D<95 D<95 D<95 D<95 D<95 D<95 D<95 D<95 D<95 <95 <95 <95 <95 <95 <95 <95 <95 <95 <95 <95 <95 G<95 G<95 G<95 G<95 G<95 G<95 G<95 G<95 G<95 G<95 G<95 G<95 G<95 G<95 G<95 G<95 G<95 G<95 G<95 G<95 G<95 G<95 G<95 G<95 G<95 G<95 G<95 G<95 G<95 G<95 G<95 G<95 G<95 G<95 G<95 G<95 G<95 G<95 G<95 G<95 G<95 G<95 G<95 G<95 G<95 G<95 G<95 G<95 <95 <95 <95 <95 <95 <95 <95 <95 <95 <95 <95 <95 <E95 <E95 <E95 <E95 <E95 <E95 <E95 <E95 <E95 <E95 <E95 <E95 E E E E E E E E E E E E E E E E E E E E E E E E E E E E E E E E E E E E             <E49 <E49 <E49 <E49 <E49 <E49 <E49 <E49 <E49 <E49 <E49 <E49 <E49 <E49 <E49 <E49 <E49 <E49 <E49 <E49 <E49 <E49 <E49 <E49 <E49 <E49 <E49 <E49 <E49 <E49 <E49 <E49 <E49 <E49 <E49 <E49 <E49 <E49 <E49 <E49 <E49 <E49 <E49 <E49 <E49 <E49 <E49 <E49 <E49 <E49 <E49 <E49 <E49 <E49 <E49 <E49 <E49 <E49 <E49 <E49 <E49 <E49 <E49 <E49 <E49 <E49 <E49 <E49 <E49 <E49 <E49 <E49 <E49 <E49 <E49 <E49 <E49 <E49 <E49 <E49 <E49 <E49 <E49 <E49 <E49 <E49 <E49 <E49 <E49 <E49 <E49 <E49 <E49 <E49 <E49 <E49 <E9 <E9 <E9 <E9 <E9 <E9 <E9 <E9 <E9 <E9 <E9 <E9 <E9 <E9 <E9 <E9 <E9 <E9 <E9 <E9 <E9 <E9 <E9 <E9 <E29 <E29 <E29 <E29 <E29 <E29 <E29 <E29 <E29 <E29 <E29 <E29 <E29 <E29 <E29 <E29 <E29 <E29 <E29 <E29 <E29 <E29 <E29 <E29 <E29 <E29 <E29 <E29 <E29 <E29 <E29 <E29 <E29 <E29 <E29 <E29 <E29 <E29 <E29 <E29 <E29 <E29 <E29 <E29 <E29 <E29 <E29 <E29 <E29 <E29 <E29 <E29 <E29 <E29 <E29 <E29 <E29 <E29 <E29 <E29 <E29 <E29 <E29 <E29 <E29 <E29 <E29 <E29 <E29 <E29 <E29 <E29 <E29 <E29 <E29 <E29 <E29 <E29 <E29 <E29 <E29 <E29 <E29 <E29 <E29 <E29 <E29 <E29 <E29 <E29 <E29 <E29 <E29 <E29 <E29 <E29 <E9 <E9 <E9 <E9 <E9 <E9 <E9 <E9 <E9 <E9 <E9 <E9 <E9 <E9 <E9 <E9 <E9 <E9 <E9 <E9 <E9 <E9 <E9 <E9 <E09 <E09 <E09 <E09 <E09 <E09 <E09 <E09 <E09 <E09 <E09 <E09 <E09 <E09 <E09 <E09 <E09 <E09 <E09 <E09 <E09 <E09 <E09 <E09 <E09 <E09 <E09 <E09 <E09 <E09 <E09 <E09 <E09 <E09 <E09 <E09 <E09 <E09 <E09 <E09 <E09 <E09 <E09 <E09 <E09 <E09 <E09 <E09 <E09 <E09 <E09 <E09 <E09 <E09 <E09 <E09 <E09 <E09 <E09 <E09 <E09 <E09 <E09 <E09 <E09 <E09 <E09 <E09 <E09 <E09 <E09 <E09 <E09 <E09 <E09 <E09 <E09 <E09 <E09 <E09 <E09 <E09 <E09 <E09 <E09 <E09 <E09 <E09 <E09 <E09 <E09 <E09 <E09 <E09 <E09 <E09 <E9 <E9 <E9 <E9 <E9 <E9 <E9 <E9 <E9 <E9 <E9 <E9 <E9 <E9 <E9 <E9 <E9 <E9 <E9 <E9 <E9 <E9 <E9 <E9 <E9/ <E9/ <E9/ <E9/ <E9/ <E9/ <E9/ <E9/ <E9/ <E9/ <E9/ <E9/ <E9/ <E9/ <E9/ <E9/ <E9/ <E9/ <E9/ <E9/ <E9/ <E9/ <E9/ <E9/ E/ E/ E/ E/ E/ E/ E/ E/ E/ E/ E/ E/ E/ E/ E/ E/ E/ E/ E/ E/ E/ E/ E/ E/ E/ E/ E/ E/ E/ E/ E/ E/ E/ E/ E/ E/ E/ E/ E/ E/ E/ E/ E/ E/ E/ E/ E/ E/ E/ E/ E/ E/ E/ E/ E/ E/ E/ E/ E/ E/ E/ E/ E/ E/ E/ E/ / / / / / /                         0 0 0 0 0 0 0 0 0 0 0 0 0 0 0 40 40 40 40 40 40 40 40 40 40 40 40 40 40 40 940 940 940 940 940 940 940 940 940 940 940 940 940 940 940 @940 @940 @940 @940 @940 @940 @940 @940 @940 @940 @940 @940 @940 @940 @940 E@940 E@940 E@940 E@940 E@940 E@940 E@940 E@940 E@940 E@940 E@940 E@940 E@940 E@940 E@940 E@H940 E@H940 E@H940 E@H940 E@H940 E@H940 E@H940 E@H940 E@H940 E@H940 E@H940 E@H940 E@H940 E@H940 E@H940 E@HL940 E@HL940 E@HL940 E@HL940 E@HL940 E@HL940 E@HL940 E@HL940 E@HL940 E@HL940 E@HL940 E@HL940 E@HL940 E@HL940 E@HL940 E@HL940 E@HL940 E@HL940 E@HL940 E@HL940 E@HL940 E@HL940 E@HL940 E@HL940 E@HL940 E@HL940 E@HL940 E@HL940 E@HL940 E@HL940 E@HL940 E@HL940 E@HL940 E@HL940 E@HL940 E@HL940 E@HL940 E@HL940 E@HL940 E@HL940 E@HL940 E@HL940 E@HL940 E@HL940 E@HL940 E@HL940 E@HL940 E@HL940 E@HL940 E@HL940 E@HL940 E@HL940 E@HL940 E@HL940 E@HL940 E@HL940 E@HL940 E@HL940 E@HL940 E@HL940 E@HL940 E@HL940 E@HL940 E@HL940 E@HL940 E@HL940 E@HL940 E@HL940 E@HL940 E@HL940 E@HL940 E@HL940 E@HL940 E@HL940 E@HL940 E@HL940 E@HL940 E@HL940 E@HL940 E@HL940 E@HL940 E@HL940 E@HL940 HL940 HL940 HL940 HL940 HL940 HL940 HL940 HL940 HL940 HL940 HL940 HL940 HL940 L940 L940 L940 L940 L940 L940 L940 L940 L940 L940 L940 L940 L940 L940 L940 L940 L940 L940 L0 L0 L0 L0 L0 L0 L0 L0 L0 L0 L0 L0 L0 L0 L0 L0 L0 L0 L0 L0 L0 L L L L L L L L        LHA92 LHA92 LHA92 LHA92 LHA92 LHA92 LHA92 LHA92 LHA92 LHA92 LHA92 LHA92 LHA92 LHA92 LHA92 LHA92 LHA92 LHA92 LHA92 LHA92 LHA92 LHA92 LHA92 LHA92 LHA92 LHA92 LHA92 LHA92 LHA92 LHA92 LHA92 LHA92 LHA92 LHA92 LHA92 LHA92 LHA92 LHA92 LHA92 LHA92 LHA92 LHA92 LHA92 LHA92 LHA92 LHA92 LHA92 LHA92 LHA92 LHA92 LHA92 LHA92 LHA92 LHA92 LHA92 LHA92 LHA92 LHA92 LHA92 LHA92 LHA92 LHA92 LHA92 LHA92 LHA92 LHA92 LHA92 LHA92 LHA92 LHA92 LHA92 LHA92 LHA92 LHA92 LHA92 LHA92 LHA92 LHA92 LHA92 LHA92 LHA92 LHA92 LHA92 LHA92 LHA92 LHA92 LHA92 LHA92 LHA92 LHA92 LHA92 LHA92 LHA92 LHA92 LHA92 LHA92 A92 A92 A92 A92 A92 A92 A92 A92 A92 A92 A92 A92 A92 A92 A92 A92 A92 A92 A92 A92 A92 A92 A92 A92 JGA92 JGA92 JGA92 JGA92 JGA92 JGA92 JGA92 JGA92 JGA92 JGA92 JGA92 JGA92 JGA92 JGA92 JGA92 JGA92 JGA92 JGA92 JGA92 JGA92 JGA92 JGA92 JGA92 JGA92 JGA92 JGA92 JGA92 JGA92 JGA92 JGA92 JGA92 JGA92 JGA92 JGA92 JGA92 JGA92 JGA92 JGA92 JGA92 JGA92 JGA92 JGA92 JGA92 JGA92 JGA92 JGA92 JGA92 JGA92 JGA92 JGA92 JGA92 JGA92 JGA92 JGA92 JGA92 JGA92 JGA92 JGA92 JGA92 JGA92 JGA92 JGA92 JGA92 JGA92 JGA92 JGA92 JGA92 JGA92 JGA92 JGA92 JGA92 JGA92 JGA JGA JGA JGA JGA JGA JGA JGA JGA JGA JGA JGA JGA JGA JGA JGA JGA JGA JGA JGA JGA JGA JGA JGA                         EH@4 EH@4 EH@4 EH@4 EH@4 EH@4 EH@4 EH@4 EH@4 EH@4 EH@4 EH@4 EH@4 EH@4 EH@4 EH@4 EH@4 EH@4 EH@4 EH@4 EH@4 EH@4 EH@4 EH@4 EH@4 EH@4 EH@4 EH@4 EH@4 EH@4 EH@4 EH@4 EH@4 EH@4 EH@4 EH@4 EH@4 EH@4 EH@4 EH@4 EH@4 EH@4 EH@4 EH@4 EH@4 EH@4 EH@4 EH@4 EH@4 EH@4 EH@4 EH@4 EH@4 EH@4 EH@4 EH@4 EH@4 EH@4 EH@4 EH@4 EH@4 EH@4 EH@4 EH@4 EH@4 EH@4 EH@4 EH@4 EH@4 EH@4 EH@4 EH@4 EH@4 EH@4 EH@4 EH@4 EH@4 EH@4 EH@4 EH@4 EH@4 EH@4 EH@4 EH@4 EH@4 EH@4 EH@4 EH@4 EH@4 EH@4 EH@4 EH@4 EH@4 EH@4 EH@4 EH@4 @4 @4 @4 @4 @4 @4 @4 @4 @4 @4 @4 @4 @4 @4 @4 @4 @4 @4 @4 @4 @4 @4 @4 @4 DG@4 DG@4 DG@4 DG@4 DG@4 DG@4 DG@4 DG@4 DG@4 DG@4 DG@4 DG@4 DG@4 DG@4 DG@4 DG@4 DG@4 DG@4 DG@4 DG@4 DG@4 DG@4 DG@4 DG@4 DG@4 DG@4 DG@4 DG@4 DG@4 DG@4 DG@4 DG@4 DG@4 DG@4 DG@4 DG@4 DG@4 DG@4 DG@4 DG@4 DG@4 DG@4 DG@4 DG@4 DG@4 DG@4 DG@4 DG@4 DG@4 DG@4 DG@4 DG@4 DG@4 DG@4 DG@4 DG@4 DG@4 DG@4 DG@4 DG@4 DG@4 DG@4 DG@4 DG@4 DG@4 DG@4 DG@4 DG@4 DG@4 DG@4 DG@4 DG@4 DG@ DG@ DG@ DG@ DG@ DG@ DG@ DG@ DG@ DG@ DG@ DG@ DG@ DG@ DG@ DG@ DG@ DG@ DG@ DG@ DG@ DG@ DG@ DG@                         DG@- DG@- DG@- DG@- DG@- DG@- DG@- DG@- DG@- DG@- DG@- DG@- DG@- DG@- DG@- DG@- DG@- DG@- DG@- DG@- DG@- DG@- DG@- DG@- DG@- DG@- DG@- DG@- DG@- DG@- DG@- DG@- DG@- DG@- DG@- DG@- DG@- DG@- DG@- DG@- DG@- DG@- DG@- DG@- DG@- DG@- DG@- DG@- DG@- DG@- DG@- DG@- DG@- DG@- DG@- DG@- DG@- DG@- DG@- DG@- DG@- DG@- DG@- DG@- DG@- DG@- DG@- DG@- DG@- DG@- DG@- DG@- DG@- DG@- DG@- DG@- DG@- DG@- DG@- DG@- DG@- DG@- DG@- DG@- DG@- DG@- DG@- DG@- DG@- DG@- DG@- DG@- DG@- DG@- DG@- DG@- DG@- DG@- DG@- DG@- DG@- DG@- DG@- DG@- DG@- DG@- DG@- DG@- DG@- DG@- DG@- DG@- DG@- DG@- DG@- DG@- DG@- DG@- DG@- DG@- DG@- DG@- DG@- DG@- DG@- DG@- DG@- DG@- DG@- DG@- DG@- DG@- DG@- DG@- DG@- DG@- DG@- DG@- DG@- DG@- DG@- DG@- DG@- DG@- DG@- DG@- DG@- DG@- DG@- DG@- DG@- DG@- DG@- DG@- DG@- DG@- DG@- DG@- DG@- DG@- DG@- DG@- DG@- DG@- DG@- DG@- DG@- DG@- DG@- DG@- DG@- DG@- DG@- DG@- DG@- DG@- DG@- DG@- DG@- DG@- DG@- DG@- DG@- DG@- DG@- DG@- DG@- DG@- DG@- DG@- DG@- DG@- @ @ @ @ @ @ @ @ @ @ @ @ @ @ @ @ @ @ @ @ @ @ @ @ @ @ @ @ @ @ @ @ @ @ @ @ @ @ @ @ @ @ @ @ @ @ @ @ H@E0 H@E0 H@E0 H@E0 H@E0 H@E0 H@E0 H@E0 H@E0 H@E0 H@E0 H@E0 H@E0 H@E0 H@E0 G@E0 G@E0 G@E0 G@E0 G@E0 G@E0 G@E0 G@E0 G@E0 G@E0 G@E0 G@E0 @E0 @E0 @E0 @HE0 @HE0 @HE0 @HE0 @HE0 @HE0 @HE0 @HE0 @HE0 @HE0 @HE0 @HE0 @HE0 @HE0 @HE0 @HE0 @HE0 @HE0 HE0 HE0 HE0 HE0 HE0 HE0 HE0 HE0 HE0 HE0 HE0 HE0 HE0 HE0 HE0 HE0 HE0 HE0 HE0 HE0 HE0 HE0 HE0 HE0 HE0 HE0 HE0 HE0 HE0 HE0 HE0 HE0 HE0 HE0 HE0 HE0 HE0 HE0 HE0 HE0 HE0 HE0 HE0 HE0 HE0 HE0 HE0 HE0 HE0 HE0 HE0 HE0 HE0 HE0 HE0 HE0 HE0 HE0 HE0 HE0 HE0 HE0 HE0 HE0 HE0 HE0 HE0 HE0 HE0 HE0 HE0 HE0 HE>0 HE>0 HE>0 HE>0 HE>0 HE>0 HE>0 HE>0 HE>0 HE>0 HE>0 HE>0 HE>0 HE>0 HE>0 HE>0 HE>0 HE>0 HE>0 HE>0 HE>0 HE>0 HE>0 HE>0 HE>0 HE>0 HE>0 HE>0 HE>0 HE>0 HE>0 HE>0 HE>0 HE>0 HE>0 HE>0 E>0 E>0 E>0 E>0 E>0 E>0 E>0 E>0 E>0 E>0 E>0 E>0 E>0 E>0 E>0 E>0 E>0 E>0 E>0 E>0 E>0 E>0 E>0 E>0 E>G0 E>G0 E>G0 E>G0 E>G0 E>G0 E>G0 E>G0 E>G0 E>G0 E>G0 E>G0 >G >G >G >G >G >G >G >G >G >G >G >G >G >G >G >G >G >G >G >G >G >G >G >G G G G G G G G G G G G G             <E@4 <E@4 <E@4 <E@4 <E@4 <E@4 <E@4 <E@4 <E@4 <E@4 <E@4 <E@4 <E@4 <E@4 <E@4 <E@4 <E@4 <E@4 <E@4 <E@4 <E@4 <E@4 <E@4 <E@4 <E@4 <E@4 <E@4 <E@4 <E@4 <E@4 <E@4 <E@4 <E@4 <E@4 <E@4 <E@4 <E@4 <E@4 <E@4 <E@4 <E@4 <E@4 <E@4 <E@4 <E@4 <E@4 <E@4 <E@4 <E@4 <E@4 <E@4 <E@4 <E@4 <E@4 <E@4 <E@4 <E@4 <E@4 <E@4 <E@4 <E@4 <E@4 <E@4 <E@4 <E@4 <E@4 <E@4 <E@4 <E@4 <E@4 <E@4 <E@4 <E@4 <E@4 <E@4 <E@4 <E@4 <E@4 <E@4 <E@4 <E@4 <E@4 <E@4 <E@4 <E@4 <E@4 <E@4 <E@4 <E@4 <E@4 <E@4 <E@4 <E@4 <E@4 <E@4 <E@4 E@4 E@4 E@4 E@4 E@4 E@4 E@4 E@4 E@4 E@4 E@4 E@4 E@4 E@4 E@4 E@4 E@4 E@4 E@4 E@4 E@4 E@4 E@4 E@4 E@;4 E@;4 E@;4 E@;4 E@;4 E@;4 E@;4 E@;4 E@;4 E@;4 E@;4 E@;4 E@;4 E@;4 E@;4 E@;4 E@;4 E@;4 E@;4 E@;4 E@;4 E@;4 E@;4 E@;4 E@;4 E@;4 E@;4 E@;4 E@;4 E@;4 E@;4 E@;4 E@;4 E@;4 E@;4 E@;4 E@;4 E@;4 E@;4 E@;4 E@;4 E@;4 E@;4 E@;4 E@;4 E@;4 E@;4 E@;4 E@;4 E@;4 E@;4 E@;4 E@;4 E@;4 E@;4 E@;4 E@;4 E@;4 E@;4 E@;4 E@;4 E@;4 E@;4 E@;4 E@;4 E@;4 E@;4 E@;4 E@;4 E@;4 E@;4 E@;4 ;4 ;4 ;4 ;4 ;4 ;4 ;4 ;4 ;4 ;4 ;4 ;4 ;4 ;4 ;4 ;4 ;4 ;4 ;4 ;4 ;4 ;4 ;4 ;4 4 4 4 4 4 4 4 4 4 4 4 4 4 4 4 4 4 4 4 4 4 4 4 4 H9 H9 H9 H9 H9 H9 H9 H9 H9 H9 H9 H9 H9 H9 H9 H9 H9 H9 H9 H9 H9 H9 H9 H9 H9 H9 H9 H9 H9 H9 H9 H9 H9 H9 H9 H9 H9 H9 H9 H9 H9 H9 H9 H9 H9 H9 H9 H9 H9 H9 H9 H9 H9 H9 H9 H9 H9 H9 H9 H9 H9 H9 H9 H9 H9 H9 H9 H9 H9 H9 H9 H9 H9 H9 H9 H9 H9 H9 H9 H9 H9 H9 H9 H9 H9 H9 H9 H9 H9 H9 H9 H9 H9 H9 H9 H9 9 9 9 9 9 9 9 9 9 9 9 9 9 9 9 9 9 9 9 9 9 9 9 9 F9 F9 F9 F9 F9 F9 F9 F9 F9 F9 F9 F9 F9 F9 F9 F9 F9 F9 F9 F9 F9 F9 F9 F9 F9 F9 F9 F9 F9 F9 F9 F9 F9 F9 F9 F9 F9 F9 F9 F9 F9 F9 F9 F9 F9 F9 F9 F9 9 9 9 9 9 9 9 9 9 9 9 9 E9 E9 E9 E9 E9 E9 E9 E9 E9 E9 E9 E9 E E E E E E E E E E E E E E E E E E E E E E E E E E E E E E E E E E E E             C- C- C- C- C- C- C- C- C- C- C- C- C- C- C- C- C- C- C- C- C- C- C- C- C- C- C- C- C- C- C- C- C- C- C- C- C- C- C- C- C- C- C- C- C- C- C- C- - - - - - - - - - - - - A- A- A- A- A- A- A- A- A- A- A- A- A- A- A- A- A- A- A- A- A- A- A- A- A- A- A- A- A- A- A- A- A- A- A- A- A- A- A- A- A- A- A- A- A- A- A- A- A- A- A- A- A- A- A- A- A- A- A- A- A- A- A- A- A- A- A- A- A- A- A- A- A- A- A- A- A- A- A- A- A- A- A- A- A- A- A- A- A- A- A- A- A- A- A- A- - - - - - - - - - - - - - - - - - - - - - - - - C- C- C- C- C- C- C- C- C- C- C- C- C C C C C C C C C C C C       @ @ @ @ @ @ @ @ @ @ @ @ @ @ @ @ @ @ @ @ @ @ @ @       A A A A A A A A A A A A A A A A A A A A A A A A A A A A A A A A A A A A A A A A A A A A A A A A             E E E E E E E E E E E E E E E E E E E E E E E E E E E E E E E E E E E E E E E E E E E E E E E E             G G G G G G G G G G G G G G G G G G G G G G G G G G G G G G G G G G G G G G G G G G G G G G G G             J J J J J J J J J J J J J J J J J J J J J J J J       H H H H H H H H H H H H H H H H H H H H H H H H       J; J; J; J; J; J; J; J; J; J; J; J; J; J; J; J; J; J; J; J; J; J; J; J; J; J; J; J; J; J; J; J; J; J; J; J; J; J; J; J; J; J; J; J; J; J; J; J; J; J; J; J; J; J; J; J; J; J; J; J; J; J; J; J; J; J; J; J; J; J; J; J; J; J; J; J; J; J; J; J; J; J; J; J; J; J; J; J; J; J; J; J; J; J; J; J; ; ; ; ; ; ; ; ; ; ; ; ; ; ; ; ; ; ; ; ; ; ; ; ; H; H; H; H; H; H; H; H; H; H; H; H; H; H; H; H; H; H; H; H; H; H; H; H; H; H; H; H; H; H; H; H; H; H; H; H; H; H; H; H; H; H; H; H; H; H; H; H; ; ; ; ; ; ; ; ; ; ; ; ; G; G; G; G; G; G; G; G; G; G; G; G; G G G G G G G G G G G G G G G G G G G G G G G G G G G G G G G G G G G G             E/ E/ E/ E/ E/ E/ E/ E/ E/ E/ E/ E/ E/ E/ E/ E/ E/ E/ E/ E/ E/ E/ E/ E/ E/ E/ E/ E/ E/ E/ E/ E/ E/ E/ E/ E/ E/ E/ E/ E/ E/ E/ E/ E/ E/ E/ E/ E/ / / / / / / / / / / / / C/ C/ C/ C/ C/ C/ C/ C/ C/ C/ C/ C/ C/ C/ C/ C/ C/ C/ C/ C/ C/ C/ C/ C/ C/ C/ C/ C/ C/ C/ C/ C/ C/ C/ C/ C/ C/ C/ C/ C/ C/ C/ C/ C/ C/ C/ C/ C/ / / / / / / / / / / / / A/ A/ A/ A/ A/ A/ A/ A/ A/ A/ A/ A/ A/ A/ A/ A/ A/ A/ A/ A/ A/ A/ A/ A/ A/ A/ A/ A/ A/ A/ A/ A/ A/ A/ A/ A/ A/ A/ A/ A/ A/ A/ A/ A/ A/ A/ A/ A/ / / / / / / / / / / / / C/ C/ C/ C/ C/ C/ C/ C/ C/ C/ C/ C/ C C C C C C C C C C C C       @ @ @ @ @ @ @ @ @ @ @ @ @ @ @ @ @ @ @ @ @ @ @ @       A A A A A A A A A A A A A A A A A A A A A A A A A A A A A A A A A A A A A A A A A A A A A A A A A A A A A A A A A A A A A A A A A A A A A A A A                   C C C C C C C C C C C C C C C C C C C C C C C C       E E E E E E E E E E E E E E E E E E E E E E E E       G G G G G G G G G G G G G G G G G G G G G G G G       H H H H H H H H H H H H H H H H H H H H H H H H       J J J J J J J J J J J J J J J J J J J J J J J J       LCH< LCH< LCH< LCH< LCH< LCH< LCH< LCH< LCH< LCH< LCH< LCH< LCH< LCH< LCH< LCH< LCH< LCH< LCH< LCH< LCH< LCH< LCH< LCH< LCH< LCH< LCH< LCH< LCH< LCH< LCH< LCH< LCH< LCH< LCH< LCH< LCH< LCH< LCH< LCH< LCH< LCH< LCH< LCH< LCH< LCH< LCH< LCH< LCH< LCH< LCH< LCH< LCH< LCH< LCH< LCH< LCH< LCH< LCH< LCH< LCH< LCH< LCH< LCH< LCH< LCH< LCH< LCH< LCH< LCH< LCH< LCH< LCH< LCH< LCH< LCH< LCH< LCH< LCH< LCH< LCH< LCH< LCH< LCH< LCH< LCH< LCH< LCH< LCH< LCH< LCH< LCH< LCH< LCH< LCH< LCH< CH CH CH CH CH CH CH CH CH CH CH CH CH CH CH CH CH CH CH CH CH CH CH CH CHJ; CHJ; CHJ; CHJ; CHJ; CHJ; CHJ; CHJ; CHJ; CHJ; CHJ; CHJ; CHJ; CHJ; CHJ; CHJ; CHJ; CHJ; CHJ; CHJ; CHJ; CHJ; CHJ; CHJ; CHJ; CHJ; CHJ; CHJ; CHJ; CHJ; CHJ; CHJ; CHJ; CHJ; CHJ; CHJ; CHJ; CHJ; CHJ; CHJ; CHJ; CHJ; CHJ; CHJ; CHJ; CHJ; CHJ; CHJ; CHJ; CHJ; CHJ; CHJ; CHJ; CHJ; CHJ; CHJ; CHJ; CHJ; CHJ; CHJ; CHJ; CHJ; CHJ; CHJ; CHJ; CHJ; CHJ; CHJ; CHJ; CHJ; CHJ; CHJ; J; J; J; J; J; J; J; J; J; J; J; J; J; J; J; J; J; J; J; J; J; J; J; J;                         J<H9 J<H9 J<H9 J<H9 J<H9 J<H9 J<H9 J<H9 J<H9 J<H9 J<H9 J<H9 J<H9 J<H9 J<H9 J<H9 J<H9 J<H9 J<H9 J<H9 J<H9 J<H9 J<H9 J<H9 <H9 <H9 <H9 <H9 <H9 <H9 L<H9 L<H9 L<H9 L<H9 L<H9 L<H9 L<H9 L<H9 L<H9 L<H9 L<H9 L<H9 L<H9 L<H9 L<H9 L<H9 L<H9 L<H9 L<H9 L<H9 L<H9 L<H9 L<H9 L<H9 <H9 <H9 <H9 <H9 <H9 <H9 M<H9 M<H9 M<H9 M<H9 M<H9 M<H9 M<H9 M<H9 M<H9 M<H9 M<H9 M<H9 M<H9 M<H9 M<H9 M<H9 M<H9 M<H9 M<H9 M<H9 M<H9 M<H9 M<H9 M<H9 M<H9 M<H9 M<H9 M<H9 M<H9 M<H9 M<H9 M<H9 M<H9 M<H9 M<H9 M<H9 M<H M<H M<H M<H M<H M<H M<H M<H M<H M<H M<H M<H <H <H <H <H <H <H <H <H <H <H <H <H <HL7 <HL7 <HL7 <HL7 <HL7 <HL7 <HL7 <HL7 <HL7 <HL7 <HL7 <HL7 <HL7 <HL7 <HL7 <HL7 <HL7 <HL7 <HL7 <HL7 <HL7 <HL7 <HL7 <HL7 <HL7 <HL7 <HL7 <HL7 <HL7 <HL7 <HL7 <HL7 <HL7 <HL7 <HL7 <HL7 <HL7 <HL7 <HL7 <HL7 <HL7 <HL7 <HL7 <HL7 <HL7 <HL7 <HL7 <HL7 <HL7 <HL7 <HL7 <HL7 <HL7 <HL7 <HL7 <HL7 <HL7 <HL7 <HL7 <HL7 <HL7 <HL7 <HL7 <HL7 <HL7 <HL7 <HL7 <HL7 <HL7 <HL7 <HL7 <HL7 L7 L7 L7 L7 L7 L7 L7 L7 L7 L7 L7 L7 L7 L7 L7 L7 L7 L7 L7 L7 L7 L7 L7 L7                         JAE5 JAE5 JAE5 JAE5 JAE5 JAE5 JAE5 JAE5 JAE5 JAE5 JAE5 JAE5 JAE5 JAE5 JAE5 JAE5 JAE5 JAE5 JAE5 JAE5 JAE5 JAE5 JAE5 JAE5 JAE5 JAE5 JAE5 JAE5 JAE5 JAE5 JAE5 JAE5 JAE5 JAE5 JAE5 JAE5 JAE5 JAE5 JAE5 JAE5 JAE5 JAE5 JAE5 JAE5 JAE5 JAE5 JAE5 JAE5 AE5 AE5 AE5 AE5 AE5 AE5 AE5 AE5 AE5 AE5 AE5 AE5 MAE5 MAE5 MAE5 MAE5 MAE5 MAE5 MAE5 MAE5 MAE5 MAE5 MAE5 MAE5 MAE5 MAE5 MAE5 MAE5 MAE5 MAE5 MAE5 MAE5 MAE5 MAE5 MAE5 MAE5 AE5 AE5 AE5 AE5 AE5 AE5 ALE5 ALE5 ALE5 ALE5 ALE5 ALE5 LE5 LE5 LE5 LE5 LE5 LE5 LE5 LE5 LE5 LE5 LE5 LE5 LE5 LE5 LE5 LE5 LE5 LE E E E E E E JE@ JE@ JE@ JE@ JE@ JE@ JE@ JE@ JE@ JE@ JE@ JE@ JE@ JE@ JE@ JE@ JE@ JE@ JE@ JE@ JE@ JE@ JE@ JE@ JE@ JE@ JE@ JE@ JE@ JE@ JE@ JE@ JE@ JE@ JE@ JE@ JE@ JE@ JE@ JE@ JE@ JE@ JE@ JE@ JE@ JE@ JE@ JE@ E@ E@ E@ E@ E@ E@ E@ E@ E@ E@ E@ E@ EL@ EL@ EL@ EL@ EL@ EL@ EL@ EL@ EL@ EL@ EL@ EL@ L@ L@ L@ L@ L@ L@ L@ L@ L@ L@ L@ L@ @ @ @ @ @ @ @H @H @H @H @H @H H H H H H H H H H H H H H H H H H H       HG>5 HG>5 HG>5 HG>5 HG>5 HG>5 HG>5 HG>5 HG>5 HG>5 HG>5 HG>5 HG>5 HG>5 HG>5 HG>5 HG>5 HG>5 HG>5 HG>5 HG>5 HG>5 HG>5 HG>5 HG>5 HG>5 HG>5 HG>5 HG>5 HG>5 HG>5 HG>5 HG>5 HG>5 HG>5 HG>5 HG>5 HG>5 HG>5 HG>5 HG>5 HG>5 HG>5 HG>5 HG>5 HG>5 HG>5 HG>5 G>5 G>5 G>5 G>5 G>5 G>5 G>5 G>5 G>5 G>5 G>5 G>5 GO>5 GO>5 GO>5 GO>5 GO>5 GO>5 GO>5 GO>5 GO>5 GO>5 GO>5 GO>5 GO>5 GO>5 GO>5 GO>5 GO>5 GO>5 GO>5 GO>5 GO>5 GO>5 GO>5 GO>5 GO>5 GO>5 GO>5 GO>5 GO>5 GO>5 GO>5 GO>5 GO>5 GO>5 GO>5 GO>5 GO> GO> GO> GO> GO> GO> GO> GO> GO> GO> GO> GO> GO> GO> GO> GO> GO> GO> GO> GO> GO> GO> GO> GO> GO>4 GO>4 GO>4 GO>4 GO>4 GO>4 GO>4 GO>4 GO>4 GO>4 GO>4 GO>4 GO>4 GO>4 GO>4 GO>4 GO>4 GO>4 GO>4 GO>4 GO>4 GO>4 GO>4 GO>4 GO>4 GO>4 GO>4 GO>4 GO>4 GO>4 GO>4 GO>4 GO>4 GO>4 GO>4 GO>4 GO>4 GO>4 GO>4 GO>4 GO>4 GO>4 GO>4 GO>4 GO>4 GO>4 GO>4 GO>4 GO>4 GO>4 GO>4 GO>4 GO>4 GO>4 GO>4 GO>4 GO>4 GO>4 GO>4 GO>4 GO>4 GO>4 GO>4 GO>4 GO>4 GO>4 GO>4 GO>4 GO>4 GO>4 GO>4 GO>4 O>4 O>4 O>4 O>4 O>4 O>4 O>4 O>4 O>4 O>4 O>4 O>4 >4 >4 >4 >4 >4 >4 >4 >4 >4 >4 >4 >4 > > > > > > > > >                OG>7 OG>7 OG>7 OG>7 OG>7 OG>7 OG>7 OG>7 OG>7 OG>7 OG>7 OG>7 OG>7 OG>7 OG>7 OG>7 OG>7 OG>7 OG>7 OG>7 OG>7 OG>7 OG>7 OG>7 OG>7 OG>7 OG>7 OG>7 OG>7 OG>7 OG>7 OG>7 OG>7 OG>7 OG>7 OG>7 OG>7 OG>7 OG>7 OG>7 OG>7 OG>7 OG>7 OG>7 OG>7 OG>7 OG>7 OG>7 OG>7 OG>7 OG>7 OG>7 OG>7 OG>7 OG>7 OG>7 OG>7 OG>7 OG>7 OG>7 OG>7 OG>7 OG>7 OG>7 OG>7 OG>7 OG>7 OG>7 OG>7 OG>7 OG>7 OG>7 OG>7 OG>7 OG>7 OG>7 OG>7 OG>7 OG>7 OG>7 OG>7 OG>7 OG>7 OG>7 OG>7 OG>7 OG>7 OG>7 OG>7 OG>7 OG>7 OG>7 OG>7 OG>7 OG>7 OG>7 OG> OG> OG> OG> OG> OG> OG> OG> OG> OG> OG> OG> OG> OG> OG> OG> OG> OG> OG> OG> OG> OG> OG> OG> OG>5 OG>5 OG>5 OG>5 OG>5 OG>5 OG>5 OG>5 OG>5 OG>5 OG>5 OG>5 OG>5 OG>5 OG>5 OG>5 OG>5 OG>5 OG>5 OG>5 OG>5 OG>5 OG>5 OG>5 OG>5 OG>5 OG>5 OG>5 OG>5 OG>5 OG>5 OG>5 OG>5 OG>5 OG>5 OG>5 OG>5 OG>5 OG>5 OG>5 OG>5 OG>5 OG>5 OG>5 OG>5 OG>5 OG>5 OG>5 OG>5 OG>5 OG>5 OG>5 OG>5 OG>5 OG>5 OG>5 OG>5 OG>5 OG>5 OG>5 OG>5 OG>5 OG>5 OG>5 OG>5 OG>5 OG>5 OG>5 OG>5 OG>5 OG>5 OG>5 OG>5 OG>5 OG>5 OG>5 OG>5 OG>5 OG>5 OG>5 OG>5 OG>5 OG>5 OG>5 OG>5 OG>5 OG>5 OG>5 OG>5 OG>5 OG>5 OG>5 OG>5 OG>5 OG>5 OG>5 OG> OG> OG> OG> OG> OG> OG> OG> OG> OG> OG> OG> OG> OG> OG> OG> OG> OG> OG> OG> OG> OG> OG> OG> OG>4 OG>4 OG>4 OG>4 OG>4 OG>4 OG>4 OG>4 OG>4 OG>4 OG>4 OG>4 OG>4 OG>4 OG>4 OG>4 OG>4 OG>4 OG>4 OG>4 OG>4 OG>4 OG>4 OG>4 OG>4 OG>4 OG>4 OG>4 OG>4 OG>4 OG>4 OG>4 OG>4 OG>4 OG>4 OG>4 OG>4 OG>4 OG>4 OG>4 OG>4 OG>4 OG>4 OG>4 OG>4 OG>4 OG>4 OG>4 OG>4 OG>4 OG>4 OG>4 OG>4 OG>4 OG>4 OG>4 OG>4 OG>4 OG>4 OG>4 OG>4 OG>4 OG>4 OG>4 OG>4 OG>4 OG>4 OG>4 OG>4 OG>4 OG>4 OG>4 OG>4 OG>4 OG>4 OG>4 OG>4 OG>4 OG>4 OG>4 OG>4 OG>4 OG>4 OG>4 OG>4 OG>4 OG>4 OG>4 OG>4 OG>4 OG>4 OG>4 OG>4 OG>4 OG>4 OG>4 OG> OG> OG> OG> OG> OG> OG> OG> OG> OG> OG> OG> OG> OG> OG> OG> OG> OG> OG> OG> OG> OG> OG> OG> OG>2 OG>2 OG>2 OG>2 OG>2 OG>2 OG>2 OG>2 OG>2 OG>2 OG>2 OG>2 OG>2 OG>2 OG>2 OG>2 OG>2 OG>2 OG>2 OG>2 OG>2 OG>2 OG>2 OG>2 >2 >2 >2 >2 >2 >2 >2 >2 >2 >2 >2 >2 >2 >2 >2 >2 >2 >2 >2 >2 >2 >2 >2 >2 >2 >2 >2 >2 >2 >2 >2 >2 >2 >2 >2 >2 >2 >2 >2 >2 >2 >2 >2 >2 >2 >2 >2 >2 >2 >2 >2 >2 >2 >2 >2 >2 >2 >2 >2 >2 >2 >2 >2 >2 >2 >2 2 2 2 2 2 2                         F4 F4 F4 F4 F4 F4 F4 F4 F4 F4 F4 F4 F4 F4 F4 F4 F4 F4 F4 F4 F4 F4 F4 F4 F4 F4 F4 F4 F4 F4 F4 F4 F4 F4 F4 F4 F4 F4 F4 F4 F4 F4 F4 F4 F4 F4 F4 F4 4 4 4 4 4 4 4 4 4 4 4 4 E4 E4 E4 E4 E4 E4 E4 E4 E4 E4 E4 E4 E4 E4 E4 E4 E4 E4 E4 E4 E4 E4 E4 E4 E4 E4 E4 E4 E4 E4 E4 E4 E4 E4 E4 E4 E4 E4 E4 E4 E4 E4 E4 E4 E4 E4 E4 E4 4 4 4 4 4 4 4 4 4 4 4 4 F4 F4 F4 F4 F4 F4 F4 F4 F4 F4 F4 F4 F4 F4 F4 F4 F4 F4 F4 F4 F4 F4 F4 F4 F4 F4 F4 F4 F4 F4 F4 F4 F4 F4 F4 F4 F4 F4 F4 F4 F4 F4 F4 F4 F4 F4 F4 F4 4 4 4 4 4 4 4 4 4 4 4 4 O4 O4 O4 O4 O4 O4 O4 O4 O4 O4 O4 O4 O4 O4 O4 O4 O4 O4 O4 O4 O4 O4 O4 O4 O4 O4 O4 O4 O4 O4 O4 O4 O4 O4 O4 O4 O4 O4 O4 O4 O4 O4 O4 O4 O4 O4 O4 O4 4 4 4 4 4 4 4 4 4 4 4 4 L4 L4 L4 L4 L4 L4 L4 L4 L4 L4 L4 L4 L4 L4 L4 L4 L4 L4 L4 L4 L4 L4 L4 L4 L4 L4 L4 L4 L4 L4 L4 L4 L4 L4 L4 L4 L4 L4 L4 L4 L4 L4 L4 L4 L4 L4 L4 L4 4 4 4 4 4 4 4 4 4 4 4 4 H4 H4 H4 H4 H4 H4 H4 H4 H4 H4 H4 H4 H4 H4 H4 H4 H4 H4 H4 H4 H4 H4 H4 H4 H4 H4 H4 H4 H4 H4 H4 H4 H4 H4 H4 H4 H4 H4 H4 H4 H4 H4 H4 H4 H4 H4 H4 H4 4 4 4 4 4 4 4 4 4 4 4 4 F4 F4 F4 F4 F4 F4 F4 F4 F4 F4 F4 F4 F4 F4 F4 F4 F4 F4 F4 F4 F4 F4 F4 F4 F F F F F F F F F F F F F F F F F F F F F F F F             E E E E E E E E E E E E E E E E E E E E E E E E E E E E E E E E E E E E E E E E E E E E E E E E             F F F F F F F F F F F F F F F F F F F F F F F F F F F F F F F F F F F F F F F F F F F F F F F F             E E E E E E E E E E E E E E E E E E E E E E E E E E E E E E E E E E E E E E E E E E E E E E E E             F F F F F F F F F F F F F F F F F F F F F F F F F F F F F F F F F F F F F F F F F F F F F F F F             O O O O O O O O O O O O O O O O O O O O O O O O O O O O O O O O O O O O O O O O O O O O O O O O             E5 E5 E5 E5 E5 E5 E5 E5 E5 E5 E5 E5 E5 E5 E5 E5 E5 E5 E5 E5 E5 E5 E5 E5 E5 E5 E5 E5 E5 E5 E5 E5 E5 E5 E5 E5 E5 E5 E5 E5 E5 E5 E5 E5 E5 E5 E5 E5 5 5 5 5 5 5 5 5 5 5 5 5 C5 C5 C5 C5 C5 C5 C5 C5 C5 C5 C5 C5 C5 C5 C5 C5 C5 C5 C5 C5 C5 C5 C5 C5 C5 C5 C5 C5 C5 C5 C5 C5 C5 C5 C5 C5 C5 C5 C5 C5 C5 C5 C5 C5 C5 C5 C5 C5 5 5 5 5 5 5 5 5 5 5 5 5 E5 E5 E5 E5 E5 E5 E5 E5 E5 E5 E5 E5 E5 E5 E5 E5 E5 E5 E5 E5 E5 E5 E5 E5 E5 E5 E5 E5 E5 E5 E5 E5 E5 E5 E5 E5 E5 E5 E5 E5 E5 E5 E5 E5 E5 E5 E5 E5 5 5 5 5 5 5 5 5 5 5 5 5 H5 H5 H5 H5 H5 H5 H5 H5 H5 H5 H5 H5 H5 H5 H5 H5 H5 H5 H5 H5 H5 H5 H5 H5 H5 H5 H5 H5 H5 H5 H5 H5 H5 H5 H5 H5 H5 H5 H5 H5 H5 H5 H5 H5 H5 H5 H5 H5 5 5 5 5 5 5 5 5 5 5 5 5 J5 J5 J5 J5 J5 J5 J5 J5 J5 J5 J5 J5 J5 J5 J5 J5 J5 J5 J5 J5 J5 J5 J5 J5 J5 J5 J5 J5 J5 J5 J5 J5 J5 J5 J5 J5 J5 J5 J5 J5 J5 J5 J5 J5 J5 J5 J5 J5 5 5 5 5 5 5 5 5 5 5 5 5 L5 L5 L5 L5 L5 L5 L5 L5 L5 L5 L5 L5 L5 L5 L5 L5 L5 L5 L5 L5 L5 L5 L5 L5 L5 L5 L5 L5 L5 L5 L5 L5 L5 L5 L5 L5 L5 L5 L5 L5 L5 L5 L5 L5 L5 L5 L5 L5 5 5 5 5 5 5 5 5 5 5 5 5 M5 M5 M5 M5 M5 M5 M5 M5 M5 M5 M5 M5 M5 M5 M5 M5 M5 M5 M5 M5 M5 M5 M5 M5 M M M M M M M M M M M M M M M M M M M M M M M M             O O O O O O O O O O O O O O O O O O O O O O O O O O O O O O O O O O O O O O O O O O O O O O O O             Q6 Q6 Q6 Q6 Q6 Q6 Q6 Q6 Q6 Q6 Q6 Q6 Q6 Q6 Q6 Q6 Q6 Q6 Q6 Q6 Q6 Q6 Q6 Q6 Q6 Q6 Q6 Q6 Q6 Q6 Q6 Q6 Q6 Q6 Q6 Q6 Q6 Q6 Q6 Q6 Q6 Q6 Q6 Q6 Q6 Q6 Q6 Q6 6 6 6 6 6 6 6 6 6 6 6 6 K6 K6 K6 K6 K6 K6 K6 K6 K6 K6 K6 K6 K6 K6 K6 K6 K6 K6 K6 K6 K6 K6 K6 K6 K6 K6 K6 K6 K6 K6 K6 K6 K6 K6 K6 K6 K6 K6 K6 K6 K6 K6 K6 K6 K6 K6 K6 K6 6 6 6 6 6 6 6 6 6 6 6 6 J6 J6 J6 J6 J6 J6 J6 J6 J6 J6 J6 J6 J6 J6 J6 J6 J6 J6 J6 J6 J6 J6 J6 J6 J6 J6 J6 J6 J6 J6 J6 J6 J6 J6 J6 J6 J6 J6 J6 J6 J6 J6 J6 J6 J6 J6 J6 J6 6 6 6 6 6 6 6 6 6 6 6 6 H6 H6 H6 H6 H6 H6 H6 H6 H6 H6 H6 H6 H H H H H H H H H H H H H H H H H H H H H H H H H H H H H H H H H H H H             S S S S S S S S S S S S S S S Q Q Q Q Q Q Q Q Q Q Q Q    O O O O O O O O O O O O    Q Q Q Q Q Q Q Q Q Q Q Q    S S S S S S S S S S S S S S S S S S S S S S S S S S S S S S S S S S S S S S S S S S S S S S S S             T T T T T T T T T T T T T T T T T T T T T T T T T T T T T T T T T T T T T T T T T T T T T T T T T T T T T T T T T T T T T T T T T T T T T T T T T T T T T T T T T T T T T T T T T T T T T T T T                         MCH7 MCH7 MCH7 MCH7 MCH7 MCH7 MCH7 MCH7 MCH7 MCH7 MCH7 MCH7 MCH7 MCH7 MCH7 MCH7 MCH7 MCH7 MCH7 MCH7 MCH7 MCH7 MCH7 MCH7 MCH7 MCH7 MCH7 MCH7 MCH7 MCH7 MCH7 MCH7 MCH7 MCH7 MCH7 MCH7 MCH7 MCH7 MCH7 MCH7 MCH7 MCH7 MCH7 MCH7 MCH7 MCH7 MCH7 MCH7 MCH7 MCH7 MCH7 MCH7 MCH7 MCH7 MCH7 MCH7 MCH7 MCH7 MCH7 MCH7 MCH7 MCH7 MCH7 MCH7 MCH7 MCH7 MCH7 MCH7 MCH7 MCH7 MCH7 MCH7 MCH7 MCH7 MCH7 MCH7 MCH7 MCH7 MCH7 MCH7 MCH7 MCH7 MCH7 MCH7 MCH7 MCH7 MCH7 MCH7 MCH7 MCH7 MCH7 MCH7 MCH7 MCH7 MCH7 MCH7 CH7 CH7 CH7 CH7 CH7 CH7 CH7 CH7 CH7 CH7 CH7 CH7 CH7 CH7 CH7 CH7 CH7 CH7 CH7 CH7 CH7 CH7 CH7 CH7 CHL7 CHL7 CHL7 CHL7 CHL7 CHL7 CHL7 CHL7 CHL7 CHL7 CHL7 CHL7 CHL7 CHL7 CHL7 CHL7 CHL7 CHL7 CHL7 CHL7 CHL7 CHL7 CHL7 CHL7 CHL7 CHL7 CHL7 CHL7 CHL7 CHL7 CHL7 CHL7 CHL7 CHL7 CHL7 CHL7 CHL7 CHL7 CHL7 CHL7 CHL7 CHL7 CHL7 CHL7 CHL7 CHL7 CHL7 CHL7 CHL7 CHL7 CHL7 CHL7 CHL7 CHL7 CHL7 CHL7 CHL7 CHL7 CHL7 CHL7 CHL7 CHL7 CHL7 CHL7 CHL7 CHL7 CHL7 CHL7 CHL7 CHL7 CHL7 CHL7 L L L L L L L L L L L L L L L L L L L L L L L L                         JGA+ JGA+ JGA+ JGA+ JGA+ JGA+ JGA+ JGA+ JGA+ JGA+ JGA+ JGA+ JGA+ JGA+ JGA+ JGA+ JGA+ JGA+ JGA+ JGA+ JGA+ JGA+ JGA+ JGA+ JGA+ JGA+ JGA+ JGA+ JGA+ JGA+ JGA+ JGA+ JGA+ JGA+ JGA+ JGA+ JGA+ JGA+ JGA+ JGA+ JGA+ JGA+ JGA+ JGA+ JGA+ JGA+ JGA+ JGA+ JGA+ JGA+ JGA+ JGA+ JGA+ JGA+ JGA+ JGA+ JGA+ JGA+ JGA+ JGA+ JGA+ JGA+ JGA+ JGA+ JGA+ JGA+ JGA+ JGA+ JGA+ JGA+ JGA+ JGA+ JGA+ JGA+ JGA+ JGA+ JGA+ JGA+ JGA+ JGA+ JGA+ JGA+ JGA+ JGA+ JGA+ JGA+ JGA+ JGA+ JGA+ JGA+ JGA+ JGA+ JGA+ JGA+ JGA+ JGA+ GA+ GA+ GA+ GA+ GA+ GA+ GA+ GA+ GA+ GA+ GA+ GA+ GA+ GA+ GA+ GA+ GA+ GA+ GA+ GA+ GA+ GA+ GA+ GA+ GAH+ GAH+ GAH+ GAH+ GAH+ GAH+ GAH+ GAH+ GAH+ GAH+ GAH+ GAH+ GAH+ GAH+ GAH+ GAH+ GAH+ GAH+ GAH+ GAH+ GAH+ GAH+ GAH+ GAH+ GAH+ GAH+ GAH+ GAH+ GAH+ GAH+ GAH+ GAH+ GAH+ GAH+ GAH+ GAH+ GAH+ GAH+ GAH+ GAH+ GAH+ GAH+ GAH+ GAH+ GAH+ GAH+ GAH+ GAH+ GAH+ GAH+ GAH+ GAH+ GAH+ GAH+ GAH+ GAH+ GAH+ GAH+ GAH+ GAH+ GAH+ GAH+ GAH+ GAH+ GAH+ GAH+ GAH+ GAH+ GAH+ GAH+ GAH+ GAH+ H H H H H H H H H H H H H H H H H H H H H H H H                         ACH0 ACH0 ACH0 ACH0 ACH0 ACH0 ACH0 ACH0 ACH0 ACH0 ACH0 ACH0 ACH0 ACH0 ACH0 ACH0 ACH0 ACH0 ACH0 ACH0 ACH0 ACH0 ACH0 ACH0 ACH0 ACH0 ACH0 ACH0 ACH0 ACH0 ACH0 ACH0 ACH0 ACH0 ACH0 ACH0 ACH0 ACH0 ACH0 ACH0 ACH0 ACH0 ACH0 ACH0 ACH0 ACH0 ACH0 ACH0 ACH0 ACH0 ACH0 ACH0 ACH0 ACH0 ACH0 ACH0 ACH0 ACH0 ACH0 ACH0 ACH0 ACH0 ACH0 ACH0 ACH0 ACH0 ACH0 ACH0 ACH0 ACH0 ACH0 ACH0 ACH0 ACH0 ACH0 ACH0 ACH0 ACH0 ACH0 ACH0 ACH0 ACH0 ACH0 ACH0 ACH0 ACH0 ACH0 ACH0 ACH0 ACH0 ACH0 ACH0 ACH0 ACH0 ACH0 ACH0 CH0 CH0 CH0 CH0 CH0 CH0 CH0 CH0 CH0 CH0 CH0 CH0 CH0 CH0 CH0 CH0 CH0 CH0 CH0 CH0 CH0 CH0 CH0 CH0 CH>0 CH>0 CH>0 CH>0 CH>0 CH>0 CH>0 CH>0 CH>0 CH>0 CH>0 CH>0 CH>0 CH>0 CH>0 CH>0 CH>0 CH>0 CH>0 CH>0 CH>0 CH>0 CH>0 CH>0 CH>0 CH>0 CH>0 CH>0 CH>0 CH>0 CH>0 CH>0 CH>0 CH>0 CH>0 CH>0 CH>0 CH>0 CH>0 CH>0 CH>0 CH>0 CH>0 CH>0 CH>0 CH>0 CH>0 CH>0 CH>0 CH>0 CH>0 CH>0 CH>0 CH>0 CH>0 CH>0 CH>0 CH>0 CH>0 CH>0 CH>0 CH>0 CH>0 CH>0 CH>0 CH>0 CH>0 CH>0 CH>0 CH>0 CH>0 CH>0 > > > > > > > > > > > > > > > > > > > > > > > >                         @HC$ @HC$ @HC$ @HC$ @HC$ @HC$ @HC$ @HC$ @HC$ @HC$ @HC$ @HC$ @HC$ @HC$ @HC$ @HC$ @HC$ @HC$ @HC$ @HC$ @HC$ @HC$ @HC$ @HC$ @HC$ @HC$ @HC$ @HC$ @HC$ @HC$ @HC$ @HC$ @HC$ @HC$ @HC$ @HC$ @HC$ @HC$ @HC$ @HC$ @HC$ @HC$ @HC$ @HC$ @HC$ @HC$ @HC$ @HC$ @HC$ @HC$ @HC$ @HC$ @HC$ @HC$ @HC$ @HC$ @HC$ @HC$ @HC$ @HC$ @HC$ @HC$ @HC$ @HC$ @HC$ @HC$ @HC$ @HC$ @HC$ @HC$ @HC$ @HC$ @HC$ @HC$ @HC$ @HC$ @HC$ @HC$ @HC$ @HC$ @HC$ @HC$ @HC$ @HC$ @HC$ @HC$ @HC$ @HC$ @HC$ @HC$ @HC$ @HC$ @HC$ @HC$ @HC$ @HC$ @HC$ @HC$ @HC$ @HC$ @HC$ @HC$ @HC$ @HC$ @HC$ @HC$ @HC$ @HC$ @HC$ @HC$ @HC$ @HC$ @HC$ @HC$ @HC$ @HC$ @HC$ @HC$ @HC$ @HC$ @HC$ @HC$ @HC$ @HC$ @HC$ @HC$ @HC$ @HC$ @HC$ @HC$ @HC$ @HC$ @HC$ @HC$ @HC$ @HC$ @HC$ @HC$ @HC$ @HC$ @HC$ @HC$ @HC$ @HC$ @HC$ @HC$ @HC$ @HC$ @HC$ @HC$ @HC$ @HC$ @HC$ @HC$ @HC$ @HC$ @HC$ @HC$ @HC$ @HC$ @HC$ @HC$ @HC$ @HC$ @HC$ @HC$ @HC$ @HC$ @HC$ @HC$ @HC$ @HC$ @HC$ @HC$ @HC$ @HC$ @HC$ @HC$ @HC$ @HC$ @HC$ @HC$ @HC$ @HC$ @HC$ @HC$ @HC$ @HC$ @HC$ @HC$ @HC$ @HC$ @HC$ @HC$ @HC$ @HC$ @HC$ @HC$ @HC$ @HC$ @HC$ @HC$ @HC$ @HC$ @HC$ @HC$ @HC$ @HC$ @HC$ @HC$ @HC$ @HC$ @HC$ @HC$ @HC$ @HC$ @HC$ @HC$ @HC$ @HC$ @HC$ @HC$ @HC$ @HC$ @HC$ @HC$ @HC$ @HC$ @HC$ @HC$ @HC$ @HC$ @HC$ @HC$ @HC$ @HC$ @HC$ @HC$ @HC$ @HC$ @HC$ @HC$ @HC$ @HC$ @HC$ @HC$ @HC$ @HC$ @HC$ @HC$ @HC$ @HC$ @HC$ @HC$ @HC$ @HC$ @HC$ @HC$ @HC$ @HC$ @HC$ @HC$ @HC$ @HC$ @HC$ @HC$ @HC$ @HC$ @HC$ @HC$ @HC$ @HC$ @HC$ @HC$ @HC$ @HC$ @HC$ @HC$ @HC$ @HC$ @HC$ @HC$ @HC$ @HC$ @HC$ @HC$ @HC$ @HC$ @HC$ @HC$ @HC$ @HC$ @HC$ @HC$ @HC$ @HC$ @HC$ @HC$ @HC$ @HC$ @HC$ @HC$ @HC$ @HC$ @HC$ @HC$ @HC$ @HC$ @HC$ @HC$ @HC$ @HC$ @HC$ @HC$ @HC$ @HC$ @HC$ @HC$ @HC$ @HC$ @HC$ @HC$ @HC$ @HC$ @HC$ @HC$ @HC$ @HC$ @HC$ @HC$ @HC$ @HC$ @HC$ @HC$ @HC$ @HC$ @HC$ @HC$ @HC$ @HC$ @HC$ @HC$ @HC$ @HC$ @HC$ @HC$ @HC$ @HC$ @HC$ @HC$ @HC$ @HC$ @HC$ @HC$ @HC$ @HC$ @HC$ @HC$ @HC$ @HC$ @HC$ @HC$ @HC$ @HC$ @HC$ @HC$ @HC$ @HC$ @HC$ @HC$ @HC$ @HC$ @HC$ @HC$ @HC$ @HC$ @HC$ @HC$ @HC$ @HC$ @HC$ @HC$ @HC$ @HC$                                                                                                 @HE9 @HE9 @HE9 @HE9 @HE9 @HE9 @HE9 @HE9 @HE9 @HE9 @HE9 @HE9 @HE9 @HE9 @HE9 @HE9 @HE9 @HE9 @HE9 @HE9 @HE9 @HE9 @HE9 @HE9 @HE9 @HE9 @HE9 @HE9 @HE9 @HE9 @HE9 @HE9 @HE9 @HE9 @HE9 @HE9 @HE9 @HE9 @HE9 @HE9 @HE9 @HE9 @HE9 @HE9 @HE9 @HE9 @HE9 @HE9 @HE9 @HE9 @HE9 @HE9 @HE9 @HE9 @HE9 @HE9 @HE9 @HE9 @HE9 @HE9 @HE9 @HE9 @HE9 @HE9 @HE9 @HE9 @HE9 @HE9 @HE9 @HE9 @HE9 @HE9 @HE9 @HE9 @HE9 @HE9 @HE9 @HE9 @HE9 @HE9 @HE9 @HE9 @HE9 @HE9 @HE9 @HE9 @HE9 @HE9 @HE9 @HE9 @HE9 @HE9 @HE9 @HE9 @HE9 @HE9 @HE9 @HE9 @HE9 @HE9 @HE9 @HE9 @HE9 @HE9 @HE9 @HE9 @HE9 @HE9 @HE9 @HE9 @HE9 @HE9 @HE9 @HE9 @HE9 @HE9 @HE9 @HE9 @HE9 @HE9 @HE9 @HE9 @HE9 @HE9 @HE9 @HE9 @HE9 @HE9 @HE9 @HE9 @HE9 @HE9 @HE9 @HE9 @HE9 @HE9 @HE9 @HE9 @HE9 @HE9 @HE9 @HE9 @HE9 @HE9 @HE9 @HE9 @HE9 @HE9 @HE9 @HE9 @HE9 @HE9 @HE9 @HE9 @HE9 @HE9 @HE9 @HE9 @HE9 @HE9 @HE9 @HE9 @HE9 @HE9 @HE9 @HE9 @HE9 @HE9 @HE9 @HE9 @HE9 @HE9 @HE9 @HE9 @HE9 @HE9 @HE9 @HE9 @HE9 @HE9 @HE9 @HE9 @HE9 @HE9 @HE9 @HE9 @HE9 @HE9 @HE9 @HE9 @HE9 @HE9                                                 @HA2 @HA2 @HA2 @HA2 @HA2 @HA2 @HA2 @HA2 @HA2 @HA2 @HA2 @HA2 @HA2 @HA2 @HA2 @HA2 @HA2 @HA2 @HA2 @HA2 @HA2 @HA2 @HA2 @HA2 @HA2 @HA2 @HA2 @HA2 @HA2 @HA2 @HA2 @HA2 @HA2 @HA2 @HA2 @HA2 @HA2 @HA2 @HA2 @HA2 @HA2 @HA2 @HA2 @HA2 @HA2 @HA2 @HA2 @HA2 @HA2 @HA2 @HA2 @HA2 @HA2 @HA2 @HA2 @HA2 @HA2 @HA2 @HA2 @HA2 @HA2 @HA2 @HA2 @HA2 @HA2 @HA2 @HA2 @HA2 @HA2 @HA2 @HA2 @HA2 @HA2 @HA2 @HA2 @HA2 @HA2 @HA2 @HA2 @HA2 @HA2 @HA2 @HA2 @HA2 @HA2 @HA2 @HA2 @HA2 @HA2 @HA2 @HA2 @HA2 @HA2 @HA2 @HA2 @HA2 A2 A2 A2 A2 A2 A2 A2 A2 A2 A2 A2 A2 A2 A2 A2 A2 A2 A2 A2 A2 A2 A2 A2 A2 AG>2 AG>2 AG>2 AG>2 AG>2 AG>2 AG>2 AG>2 AG>2 AG>2 AG>2 AG>2 AG>2 AG>2 AG>2 AG>2 AG>2 AG>2 AG>2 AG>2 AG>2 AG>2 AG>2 AG>2 AG>2 AG>2 AG>2 AG>2 AG>2 AG>2 AG>2 AG>2 AG>2 AG>2 AG>2 AG>2 AG>2 AG>2 AG>2 AG>2 AG>2 AG>2 AG>2 AG>2 AG>2 AG>2 AG>2 AG>2 AG>2 AG>2 AG>2 AG>2 AG>2 AG>2 AG>2 AG>2 AG>2 AG>2 AG>2 AG>2 AG>2 AG>2 AG>2 AG>2 AG>2 AG>2 AG>2 AG>2 AG>2 AG>2 AG>2 AG>2 G> G> G> G> G> G> G> G> G> G> G> G> G> G> G> G> G> G> G> G> G> G> G> G>                         E<@4 E<@4 E<@4 E<@4 E<@4 E<@4 E<@4 E<@4 E<@4 E<@4 E<@4 E<@4 E<@4 E<@4 E<@4 E<@4 E<@4 E<@4 E<@4 E<@4 E<@4 E<@4 E<@4 E<@4 E<@4 E<@4 E<@4 E<@4 E<@4 E<@4 E<@4 E<@4 E<@4 E<@4 E<@4 E<@4 E<@4 E<@4 E<@4 E<@4 E<@4 E<@4 E<@4 E<@4 E<@4 E<@4 E<@4 E<@4 E<@4 E<@4 E<@4 E<@4 E<@4 E<@4 E<@4 E<@4 E<@4 E<@4 E<@4 E<@4 E<@4 E<@4 E<@4 E<@4 E<@4 E<@4 E<@4 E<@4 E<@4 E<@4 E<@4 E<@4 E<@4 E<@4 E<@4 E<@4 E<@4 E<@4 E<@4 E<@4 E<@4 E<@4 E<@4 E<@4 E<@4 E<@4 E<@4 E<@4 E<@4 E<@4 E<@4 E<@4 E<@4 E<@4 E<@4 E<@4 @4 @4 @4 @4 @4 @4 @4 @4 @4 @4 @4 @4 @4 @4 @4 @4 @4 @4 @4 @4 @4 @4 @4 @4 D;@4 D;@4 D;@4 D;@4 D;@4 D;@4 D;@4 D;@4 D;@4 D;@4 D;@4 D;@4 D;@4 D;@4 D;@4 E;@4 E;@4 E;@4 E;@4 E;@4 E;@4 E;@4 E;@4 E;@4 E;@4 E;@4 E;@4 E;@4 E;@4 E;@4 D;@4 D;@4 D;@4 D;@4 D;@4 D;@4 D;@4 D;@4 D;@4 D;@4 D;@4 D;@4 D;@4 D;@4 D;@4 D;@4 D;@4 D;@4 D;@4 D;@4 D;@4 D;@4 D;@4 D;@4 D;@4 D;@4 D;@4 D;@4 D;@4 D;@4 D;@4 D;@4 D;@4 D;@4 D;@4 D;@4 D;@4 D;@4 D;@4 D;@4 D;@4 D;@4 D;@ D;@ D;@ D;@ D;@ D;@ ;@ ;@ ;@ ;@ ;@ ;@ ;@ ;@ ;@ ;@ ;@ ;@ ;@ ;@ ;@ ;@ ;@ ;@ @ @ @ @ @ @ @ @ @                E<95 E<95 E<95 E<95 E<95 E<95 E<95 E<95 E<95 E<95 E<95 E<95 E<95 E<95 E<95 E<95 E<95 E<95 E<95 E<95 E<95 E<95 E<95 E<95 E<95 E<95 E<95 E<95 E<95 E<95 E<95 E<95 E<95 E<95 E<95 E<95 E<95 E<95 E<95 E<95 E<95 E<95 E<95 E<95 E<95 E<95 E<95 E<95 E<95 E<95 E<95 E<95 E<95 E<95 E<95 E<95 E<95 <95 <95 <95 D<95 D<95 D<95 D<95 D<95 D<95 D<95 D<95 D<95 D<95 D<95 D<95 D<95 D<95 D<95 D<95 D<95 D<95 D<95 D<95 D<95 D<95 D<95 D<95 D<95 D<95 D<95 D<95 D<95 D<95 D<95 D<95 D<95 D<95 D<95 D<95 D<95 D<95 D<95 D<95 D<95 D<95 D<95 D<95 D<95 D<95 D<95 D<95 <95 <95 <95 <95 <95 <95 <95 <95 <95 <95 <95 <95 G<95 G<95 G<95 G<95 G<95 G<95 G<95 G<95 G<95 G<95 G<95 G<95 G<95 G<95 G<95 G<95 G<95 G<95 G<95 G<95 G<95 G<95 G<95 G<95 G<95 G<95 G<95 G<95 G<95 G<95 G<95 G<95 G<95 G<95 G<95 G<95 G<95 G<95 G<95 G<95 G<95 G<95 G<95 G<95 G<95 G<95 G<95 G<95 <95 <95 <95 <95 <95 <95 <95 <95 <95 <95 <95 <95 <E95 <E95 <E95 <E95 <E95 <E95 <E95 <E95 <E95 <E95 <E95 <E95 E E E E E E E E E E E E E E E E E E E E E E E E E E E E E E E E E E E E             <E49 <E49 <E49 <E49 <E49 <E49 <E49 <E49 <E49 <E49 <E49 <E49 <E49 <E49 <E49 <E49 <E49 <E49 <E49 <E49 <E49 <E49 <E49 <E49 <E49 <E49 <E49 <E49 <E49 <E49 <E49 <E49 <E49 <E49 <E49 <E49 <E49 <E49 <E49 <E49 <E49 <E49 <E49 <E49 <E49 <E49 <E49 <E49 <E49 <E49 <E49 <E49 <E49 <E49 <E49 <E49 <E49 <E49 <E49 <E49 <E49 <E49 <E49 <E49 <E49 <E49 <E49 <E49 <E49 <E49 <E49 <E49 <E49 <E49 <E49 <E49 <E49 <E49 <E49 <E49 <E49 <E49 <E49 <E49 <E49 <E49 <E49 <E49 <E49 <E49 <E49 <E49 <E49 <E49 <E49 <E49 <E9 <E9 <E9 <E9 <E9 <E9 <E9 <E9 <E9 <E9 <E9 <E9 <E9 <E9 <E9 <E9 <E9 <E9 <E9 <E9 <E9 <E9 <E9 <E9 <E29 <E29 <E29 <E29 <E29 <E29 <E29 <E29 <E29 <E29 <E29 <E29 <E29 <E29 <E29 <E29 <E29 <E29 <E29 <E29 <E29 <E29 <E29 <E29 <E29 <E29 <E29 <E29 <E29 <E29 <E29 <E29 <E29 <E29 <E29 <E29 <E29 <E29 <E29 <E29 <E29 <E29 <E29 <E29 <E29 <E29 <E29 <E29 <E29 <E29 <E29 <E29 <E29 <E29 <E29 <E29 <E29 <E29 <E29 <E29 <E29 <E29 <E29 <E29 <E29 <E29 <E29 <E29 <E29 <E29 <E29 <E29 <E29 <E29 <E29 <E29 <E29 <E29 <E29 <E29 <E29 <E29 <E29 <E29 <E29 <E29 <E29 <E29 <E29 <E29 <E29 <E29 <E29 <E29 <E29 <E29 <E9 <E9 <E9 <E9 <E9 <E9 <E9 <E9 <E9 <E9 <E9 <E9 <E9 <E9 <E9 <E9 <E9 <E9 <E9 <E9 <E9 <E9 <E9 <E9 <E09 <E09 <E09 <E09 <E09 <E09 <E09 <E09 <E09 <E09 <E09 <E09 <E09 <E09 <E09 <E09 <E09 <E09 <E09 <E09 <E09 <E09 <E09 <E09 <E09 <E09 <E09 <E09 <E09 <E09 <E09 <E09 <E09 <E09 <E09 <E09 <E09 <E09 <E09 <E09 <E09 <E09 <E09 <E09 <E09 <E09 <E09 <E09 <E09 <E09 <E09 <E09 <E09 <E09 <E09 <E09 <E09 <E09 <E09 <E09 <E09 <E09 <E09 <E09 <E09 <E09 <E09 <E09 <E09 <E09 <E09 <E09 <E09 <E09 <E09 <E09 <E09 <E09 <E09 <E09 <E09 <E09 <E09 <E09 <E09 <E09 <E09 <E09 <E09 <E09 <E09 <E09 <E09 <E09 <E09 <E09 <E9 <E9 <E9 <E9 <E9 <E9 <E9 <E9 <E9 <E9 <E9 <E9 <E9 <E9 <E9 <E9 <E9 <E9 <E9 <E9 <E9 <E9 <E9 <E9 <E9/ <E9/ <E9/ <E9/ <E9/ <E9/ <E9/ <E9/ <E9/ <E9/ <E9/ <E9/ <E9/ <E9/ <E9/ <E9/ <E9/ <E9/ <E9/ <E9/ <E9/ <E9/ <E9/ <E9/ E/ E/ E/ E/ E/ E/ E/ E/ E/ E/ E/ E/ E/ E/ E/ E/ E/ E/ E/ E/ E/ E/ E/ E/ E/ E/ E/ E/ E/ E/ E/ E/ E/ E/ E/ E/ E/ E/ E/ E/ E/ E/ E/ E/ E/ E/ E/ E/ E/ E/ E/ E/ E/ E/ E/ E/ E/ E/ E/ E/ E/ E/ E/ E/ E/ E/ / / / / / /                         0 0 0 0 0 0 0 0 0 0 0 0 0 0 0 40 40 40 40 40 40 40 40 40 40 40 40 40 40 40 940 940 940 940 940 940 940 940 940 940 940 940 940 940 940 @940 @940 @940 @940 @940 @940 @940 @940 @940 @940 @940 @940 @940 @940 @940 E@940 E@940 E@940 E@940 E@940 E@940 E@940 E@940 E@940 E@940 E@940 E@940 E@940 E@940 E@940 E@H940 E@H940 E@H940 E@H940 E@H940 E@H940 E@H940 E@H940 E@H940 E@H940 E@H940 E@H940 E@H940 E@H940 E@H940 E@HL940 E@HL940 E@HL940 E@HL940 E@HL940 E@HL940 E@HL940 E@HL940 E@HL940 E@HL940 E@HL940 E@HL940 E@HL940 E@HL940 E@HL940 E@HL940 E@HL940 E@HL940 E@HL940 E@HL940 E@HL940 E@HL940 E@HL940 E@HL940 E@HL940 E@HL940 E@HL940 E@HL940 E@HL940 E@HL940 E@HL940 E@HL940 E@HL940 E@HL940 E@HL940 E@HL940 E@HL940 E@HL940 E@HL940 E@HL940 E@HL940 E@HL940 E@HL940 E@HL940 E@HL940 E@HL940 E@HL940 E@HL940 E@HL940 E@HL940 E@HL940 E@HL940 E@HL940 E@HL940 E@HL940 E@HL940 E@HL940 E@HL940 E@HL940 E@HL940 E@HL940 E@HL940 E@HL940 E@HL940 E@HL940 E@HL940 E@HL940 E@HL940 E@HL940 E@HL940 E@HL940 E@HL940 E@HL940 E@HL940 E@HL940 E@HL940 E@HL940 E@HL940 E@HL940 E@HL940 E@HL940 E@HL940 E@HL940 HL940 HL940 HL940 HL940 HL940 HL940 HL940 HL940 HL940 HL940 HL940 HL940 HL940 L940 L940 L940 L940 L940 L940 L940 L940 L940 L940 L940 L940 L940 L940 L940 L940 L940 L940 L0 L0 L0 L0 L0 L0 L0 L0 L0 L0 L0 L0 L0 L0 L0 L0 L0 L0 L0 L0 L0 L L L L L L L L        LHA92 LHA92 LHA92 LHA92 LHA92 LHA92 LHA92 LHA92 LHA92 LHA92 LHA92 LHA92 LHA92 LHA92 LHA92 LHA92 LHA92 LHA92 LHA92 LHA92 LHA92 LHA92 LHA92 LHA92 LHA92 LHA92 LHA92 LHA92 LHA92 LHA92 LHA92 LHA92 LHA92 LHA92 LHA92 LHA92 LHA92 LHA92 LHA92 LHA92 LHA92 LHA92 LHA92 LHA92 LHA92 LHA92 LHA92 LHA92 LHA92 LHA92 LHA92 LHA92 LHA92 LHA92 LHA92 LHA92 LHA92 LHA92 LHA92 LHA92 LHA92 LHA92 LHA92 LHA92 LHA92 LHA92 LHA92 LHA92 LHA92 LHA92 LHA92 LHA92 LHA92 LHA92 LHA92 LHA92 LHA92 LHA92 LHA92 LHA92 LHA92 LHA92 LHA92 LHA92 LHA92 LHA92 LHA92 LHA92 LHA92 LHA92 LHA92 LHA92 LHA92 LHA92 LHA92 LHA92 A92 A92 A92 A92 A92 A92 A92 A92 A92 A92 A92 A92 A92 A92 A92 A92 A92 A92 A92 A92 A92 A92 A92 A92 JGA92 JGA92 JGA92 JGA92 JGA92 JGA92 JGA92 JGA92 JGA92 JGA92 JGA92 JGA92 JGA92 JGA92 JGA92 JGA92 JGA92 JGA92 JGA92 JGA92 JGA92 JGA92 JGA92 JGA92 JGA92 JGA92 JGA92 JGA92 JGA92 JGA92 JGA92 JGA92 JGA92 JGA92 JGA92 JGA92 JGA92 JGA92 JGA92 JGA92 JGA92 JGA92 JGA92 JGA92 JGA92 JGA92 JGA92 JGA92 JGA92 JGA92 JGA92 JGA92 JGA92 JGA92 JGA92 JGA92 JGA92 JGA92 JGA92 JGA92 JGA92 JGA92 JGA92 JGA92 JGA92 JGA92 JGA92 JGA92 JGA92 JGA92 JGA92 JGA92 JGA JGA JGA JGA JGA JGA JGA JGA JGA JGA JGA JGA JGA JGA JGA JGA JGA JGA JGA JGA JGA JGA JGA JGA                         EH@4 EH@4 EH@4 EH@4 EH@4 EH@4 EH@4 EH@4 EH@4 EH@4 EH@4 EH@4 EH@4 EH@4 EH@4 EH@4 EH@4 EH@4 EH@4 EH@4 EH@4 EH@4 EH@4 EH@4 EH@4 EH@4 EH@4 EH@4 EH@4 EH@4 EH@4 EH@4 EH@4 EH@4 EH@4 EH@4 EH@4 EH@4 EH@4 EH@4 EH@4 EH@4 EH@4 EH@4 EH@4 EH@4 EH@4 EH@4 EH@4 EH@4 EH@4 EH@4 EH@4 EH@4 EH@4 EH@4 EH@4 EH@4 EH@4 EH@4 EH@4 EH@4 EH@4 EH@4 EH@4 EH@4 EH@4 EH@4 EH@4 EH@4 EH@4 EH@4 EH@4 EH@4 EH@4 EH@4 EH@4 EH@4 EH@4 EH@4 EH@4 EH@4 EH@4 EH@4 EH@4 EH@4 EH@4 EH@4 EH@4 EH@4 EH@4 EH@4 EH@4 EH@4 EH@4 EH@4 @4 @4 @4 @4 @4 @4 @4 @4 @4 @4 @4 @4 @4 @4 @4 @4 @4 @4 @4 @4 @4 @4 @4 @4 DG@4 DG@4 DG@4 DG@4 DG@4 DG@4 DG@4 DG@4 DG@4 DG@4 DG@4 DG@4 DG@4 DG@4 DG@4 DG@4 DG@4 DG@4 DG@4 DG@4 DG@4 DG@4 DG@4 DG@4 DG@4 DG@4 DG@4 DG@4 DG@4 DG@4 DG@4 DG@4 DG@4 DG@4 DG@4 DG@4 DG@4 DG@4 DG@4 DG@4 DG@4 DG@4 DG@4 DG@4 DG@4 DG@4 DG@4 DG@4 DG@4 DG@4 DG@4 DG@4 DG@4 DG@4 DG@4 DG@4 DG@4 DG@4 DG@4 DG@4 DG@4 DG@4 DG@4 DG@4 DG@4 DG@4 DG@4 DG@4 DG@4 DG@4 DG@4 DG@4 DG@ DG@ DG@ DG@ DG@ DG@ DG@ DG@ DG@ DG@ DG@ DG@ DG@ DG@ DG@ DG@ DG@ DG@ DG@ DG@ DG@ DG@ DG@ DG@                         DG@- DG@- DG@- DG@- DG@- DG@- DG@- DG@- DG@- DG@- DG@- DG@- DG@- DG@- DG@- DG@- DG@- DG@- DG@- DG@- DG@- DG@- DG@- DG@- DG@- DG@- DG@- DG@- DG@- DG@- DG@- DG@- DG@- DG@- DG@- DG@- DG@- DG@- DG@- DG@- DG@- DG@- DG@- DG@- DG@- DG@- DG@- DG@- DG@- DG@- DG@- DG@- DG@- DG@- DG@- DG@- DG@- DG@- DG@- DG@- DG@- DG@- DG@- DG@- DG@- DG@- DG@- DG@- DG@- DG@- DG@- DG@- DG@- DG@- DG@- DG@- DG@- DG@- DG@- DG@- DG@- DG@- DG@- DG@- DG@- DG@- DG@- DG@- DG@- DG@- DG@- DG@- DG@- DG@- DG@- DG@- DG@- DG@- DG@- DG@- DG@- DG@- DG@- DG@- DG@- DG@- DG@- DG@- DG@- DG@- DG@- DG@- DG@- DG@- DG@- DG@- DG@- DG@- DG@- DG@- DG@- DG@- DG@- DG@- DG@- DG@- DG@- DG@- DG@- DG@- DG@- DG@- DG@- DG@- DG@- DG@- DG@- DG@- DG@- DG@- DG@- DG@- DG@- DG@- DG@- DG@- DG@- DG@- DG@- DG@- DG@- DG@- DG@- DG@- DG@- DG@- DG@- DG@- DG@- DG@- DG@- DG@- DG@- DG@- DG@- DG@- DG@- DG@- DG@- DG@- DG@- DG@- DG@- DG@- DG@- DG@- DG@- DG@- DG@- DG@- DG@- DG@- DG@- DG@- DG@- DG@- DG@- DG@- DG@- DG@- DG@- DG@- @ @ @ @ @ @ @ @ @ @ @ @ @ @ @ @ @ @ @ @ @ @ @ @ @ @ @ @ @ @ @ @ @ @ @ @ @ @ @ @ @ @ @ @ @ @ @ @ H@E0 H@E0 H@E0 H@E0 H@E0 H@E0 H@E0 H@E0 H@E0 H@E0 H@E0 H@E0 H@E0 H@E0 H@E0 G@E0 G@E0 G@E0 G@E0 G@E0 G@E0 G@E0 G@E0 G@E0 G@E0 G@E0 G@E0 @E0 @E0 @E0 @HE0 @HE0 @HE0 @HE0 @HE0 @HE0 @HE0 @HE0 @HE0 @HE0 @HE0 @HE0 @HE0 @HE0 @HE0 @HE0 @HE0 @HE0 HE0 HE0 HE0 HE0 HE0 HE0 HE0 HE0 HE0 HE0 HE0 HE0 HE0 HE0 HE0 HE0 HE0 HE0 HE0 HE0 HE0 HE0 HE0 HE0 HE0 HE0 HE0 HE0 HE0 HE0 HE0 HE0 HE0 HE0 HE0 HE0 HE0 HE0 HE0 HE0 HE0 HE0 HE0 HE0 HE0 HE0 HE0 HE0 HE0 HE0 HE0 HE0 HE0 HE0 HE0 HE0 HE0 HE0 HE0 HE0 HE0 HE0 HE0 HE0 HE0 HE0 HE0 HE0 HE0 HE0 HE0 HE0 HE>0 HE>0 HE>0 HE>0 HE>0 HE>0 HE>0 HE>0 HE>0 HE>0 HE>0 HE>0 HE>0 HE>0 HE>0 HE>0 HE>0 HE>0 HE>0 HE>0 HE>0 HE>0 HE>0 HE>0 HE>0 HE>0 HE>0 HE>0 HE>0 HE>0 HE>0 HE>0 HE>0 HE>0 HE>0 HE>0 E>0 E>0 E>0 E>0 E>0 E>0 E>0 E>0 E>0 E>0 E>0 E>0 E>0 E>0 E>0 E>0 E>0 E>0 E>0 E>0 E>0 E>0 E>0 E>0 E>G0 E>G0 E>G0 E>G0 E>G0 E>G0 E>G0 E>G0 E>G0 E>G0 E>G0 E>G0 >G >G >G >G >G >G >G >G >G >G >G >G >G >G >G >G >G >G >G >G >G >G >G >G G G G G G G G G G G G G             <E@4 <E@4 <E@4 <E@4 <E@4 <E@4 <E@4 <E@4 <E@4 <E@4 <E@4 <E@4 <E@4 <E@4 <E@4 <E@4 <E@4 <E@4 <E@4 <E@4 <E@4 <E@4 <E@4 <E@4 <E@4 <E@4 <E@4 <E@4 <E@4 <E@4 <E@4 <E@4 <E@4 <E@4 <E@4 <E@4 <E@4 <E@4 <E@4 <E@4 <E@4 <E@4 <E@4 <E@4 <E@4 <E@4 <E@4 <E@4 <E@4 <E@4 <E@4 <E@4 <E@4 <E@4 <E@4 <E@4 <E@4 <E@4 <E@4 <E@4 <E@4 <E@4 <E@4 <E@4 <E@4 <E@4 <E@4 <E@4 <E@4 <E@4 <E@4 <E@4 <E@4 <E@4 <E@4 <E@4 <E@4 <E@4 <E@4 <E@4 <E@4 <E@4 <E@4 <E@4 <E@4 <E@4 <E@4 <E@4 <E@4 <E@4 <E@4 <E@4 <E@4 <E@4 <E@4 <E@4 E@4 E@4 E@4 E@4 E@4 E@4 E@4 E@4 E@4 E@4 E@4 E@4 E@4 E@4 E@4 E@4 E@4 E@4 E@4 E@4 E@4 E@4 E@4 E@4 E@;4 E@;4 E@;4 E@;4 E@;4 E@;4 E@;4 E@;4 E@;4 E@;4 E@;4 E@;4 E@;4 E@;4 E@;4 E@;4 E@;4 E@;4 E@;4 E@;4 E@;4 E@;4 E@;4 E@;4 E@;4 E@;4 E@;4 E@;4 E@;4 E@;4 E@;4 E@;4 E@;4 E@;4 E@;4 E@;4 E@;4 E@;4 E@;4 E@;4 E@;4 E@;4 E@;4 E@;4 E@;4 E@;4 E@;4 E@;4 E@;4 E@;4 E@;4 E@;4 E@;4 E@;4 E@;4 E@;4 E@;4 E@;4 E@;4 E@;4 E@;4 E@;4 E@;4 E@;4 E@;4 E@;4 E@;4 E@;4 E@;4 E@;4 E@;4 E@;4 ;4 ;4 ;4 ;4 ;4 ;4 ;4 ;4 ;4 ;4 ;4 ;4 ;4 ;4 ;4 ;4 ;4 ;4 ;4 ;4 ;4 ;4 ;4 ;4 4 4 4 4 4 4 4 4 4 4 4 4 4 4 4 4 4 4 4 4 4 4 4 4 H9 H9 H9 H9 H9 H9 H9 H9 H9 H9 H9 H9 H9 H9 H9 H9 H9 H9 H9 H9 H9 H9 H9 H9 H9 H9 H9 H9 H9 H9 H9 H9 H9 H9 H9 H9 H9 H9 H9 H9 H9 H9 H9 H9 H9 H9 H9 H9 H9 H9 H9 H9 H9 H9 H9 H9 H9 H9 H9 H9 H9 H9 H9 H9 H9 H9 H9 H9 H9 H9 H9 H9 H9 H9 H9 H9 H9 H9 H9 H9 H9 H9 H9 H9 H9 H9 H9 H9 H9 H9 H9 H9 H9 H9 H9 H9 9 9 9 9 9 9 9 9 9 9 9 9 9 9 9 9 9 9 9 9 9 9 9 9 F9 F9 F9 F9 F9 F9 F9 F9 F9 F9 F9 F9 F9 F9 F9 F9 F9 F9 F9 F9 F9 F9 F9 F9 F9 F9 F9 F9 F9 F9 F9 F9 F9 F9 F9 F9 F9 F9 F9 F9 F9 F9 F9 F9 F9 F9 F9 F9 9 9 9 9 9 9 9 9 9 9 9 9 E9 E9 E9 E9 E9 E9 E9 E9 E9 E9 E9 E9 E E E E E E E E E E E E E E E E E E E E E E E E E E E E E E E E E E E E             C- C- C- C- C- C- C- C- C- C- C- C- C- C- C- C- C- C- C- C- C- C- C- C- C- C- C- C- C- C- C- C- C- C- C- C- C- C- C- C- C- C- C- C- C- C- C- C- - - - - - - - - - - - - A- A- A- A- A- A- A- A- A- A- A- A- A- A- A- A- A- A- A- A- A- A- A- A- A- A- A- A- A- A- A- A- A- A- A- A- A- A- A- A- A- A- A- A- A- A- A- A- A- A- A- A- A- A- A- A- A- A- A- A- A- A- A- A- A- A- A- A- A- A- A- A- A- A- A- A- A- A- A- A- A- A- A- A- A- A- A- A- A- A- A- A- A- A- A- A- - - - - - - - - - - - - - - - - - - - - - - - - C- C- C- C- C- C- C- C- C- C- C- C- C C C C C C C C C C C C       @ @ @ @ @ @ @ @ @ @ @ @ @ @ @ @ @ @ @ @ @ @ @ @       A A A A A A A A A A A A A A A A A A A A A A A A A A A A A A A A A A A A A A A A A A A A A A A A             E E E E E E E E E E E E E E E E E E E E E E E E E E E E E E E E E E E E E E E E E E E E E E E E             G G G G G G G G G G G G G G G G G G G G G G G G G G G G G G G G G G G G G G G G G G G G G G G G             J J J J J J J J J J J J J J J J J J J J J J J J       H H H H H H H H H H H H H H H H H H H H H H H H       J; J; J; J; J; J; J; J; J; J; J; J; J; J; J; J; J; J; J; J; J; J; J; J; J; J; J; J; J; J; J; J; J; J; J; J; J; J; J; J; J; J; J; J; J; J; J; J; J; J; J; J; J; J; J; J; J; J; J; J; J; J; J; J; J; J; J; J; J; J; J; J; J; J; J; J; J; J; J; J; J; J; J; J; J; J; J; J; J; J; J; J; J; J; J; J; ; ; ; ; ; ; ; ; ; ; ; ; ; ; ; ; ; ; ; ; ; ; ; ; H; H; H; H; H; H; H; H; H; H; H; H; H; H; H; H; H; H; H; H; H; H; H; H; H; H; H; H; H; H; H; H; H; H; H; H; H; H; H; H; H; H; H; H; H; H; H; H; ; ; ; ; ; ; ; ; ; ; ; ; G; G; G; G; G; G; G; G; G; G; G; G; G G G G G G G G G G G G G G G G G G G G G G G G G G G G G G G G G G G G             E/ E/ E/ E/ E/ E/ E/ E/ E/ E/ E/ E/ E/ E/ E/ E/ E/ E/ E/ E/ E/ E/ E/ E/ E/ E/ E/ E/ E/ E/ E/ E/ E/ E/ E/ E/ E/ E/ E/ E/ E/ E/ E/ E/ E/ E/ E/ E/ / / / / / / / / / / / / C/ C/ C/ C/ C/ C/ C/ C/ C/ C/ C/ C/ C/ C/ C/ C/ C/ C/ C/ C/ C/ C/ C/ C/ C/ C/ C/ C/ C/ C/ C/ C/ C/ C/ C/ C/ C/ C/ C/ C/ C/ C/ C/ C/ C/ C/ C/ C/ / / / / / / / / / / / / A/ A/ A/ A/ A/ A/ A/ A/ A/ A/ A/ A/ A/ A/ A/ A/ A/ A/ A/ A/ A/ A/ A/ A/ A/ A/ A/ A/ A/ A/ A/ A/ A/ A/ A/ A/ A/ A/ A/ A/ A/ A/ A/ A/ A/ A/ A/ A/ / / / / / / / / / / / / C/ C/ C/ C/ C/ C/ C/ C/ C/ C/ C/ C/ C C C C C C C C C C C C       @ @ @ @ @ @ @ @ @ @ @ @ @ @ @ @ @ @ @ @ @ @ @ @       A A A A A A A A A A A A A A A A A A A A A A A A A A A A A A A A A A A A A A A A A A A A A A A A A A A A A A A A A A A A A A A A A A A A A A A A                   C C C C C C C C C C C C C C C C C C C C C C C C       E E E E E E E E E E E E E E E E E E E E E E E E       G G G G G G G G G G G G G G G G G G G G G G G G       H H H H H H H H H H H H H H H H H H H H H H H H       J J J J J J J J J J J J J J J J J J J J J J J J       LCH< LCH< LCH< LCH< LCH< LCH< LCH< LCH< LCH< LCH< LCH< LCH< LCH< LCH< LCH< LCH< LCH< LCH< LCH< LCH< LCH< LCH< LCH< LCH< LCH< LCH< LCH< LCH< LCH< LCH< LCH< LCH< LCH< LCH< LCH< LCH< LCH< LCH< LCH< LCH< LCH< LCH< LCH< LCH< LCH< LCH< LCH< LCH< LCH< LCH< LCH< LCH< LCH< LCH< LCH< LCH< LCH< LCH< LCH< LCH< LCH< LCH< LCH< LCH< LCH< LCH< LCH< LCH< LCH< LCH< LCH< LCH< LCH< LCH< LCH< LCH< LCH< LCH< LCH< LCH< LCH< LCH< LCH< LCH< LCH< LCH< LCH< LCH< LCH< LCH< LCH< LCH< LCH< LCH< LCH< LCH< CH CH CH CH CH CH CH CH CH CH CH CH CH CH CH CH CH CH CH CH CH CH CH CH CHJ; CHJ; CHJ; CHJ; CHJ; CHJ; CHJ; CHJ; CHJ; CHJ; CHJ; CHJ; CHJ; CHJ; CHJ; CHJ; CHJ; CHJ; CHJ; CHJ; CHJ; CHJ; CHJ; CHJ; CHJ; CHJ; CHJ; CHJ; CHJ; CHJ; CHJ; CHJ; CHJ; CHJ; CHJ; CHJ; CHJ; CHJ; CHJ; CHJ; CHJ; CHJ; CHJ; CHJ; CHJ; CHJ; CHJ; CHJ; CHJ; CHJ; CHJ; CHJ; CHJ; CHJ; CHJ; CHJ; CHJ; CHJ; CHJ; CHJ; CHJ; CHJ; CHJ; CHJ; CHJ; CHJ; CHJ; CHJ; CHJ; CHJ; CHJ; CHJ; J; J; J; J; J; J; J; J; J; J; J; J; J; J; J; J; J; J; J; J; J; J; J; J;                         J<H9 J<H9 J<H9 J<H9 J<H9 J<H9 J<H9 J<H9 J<H9 J<H9 J<H9 J<H9 J<H9 J<H9 J<H9 J<H9 J<H9 J<H9 J<H9 J<H9 J<H9 J<H9 J<H9 J<H9 <H9 <H9 <H9 <H9 <H9 <H9 L<H9 L<H9 L<H9 L<H9 L<H9 L<H9 L<H9 L<H9 L<H9 L<H9 L<H9 L<H9 L<H9 L<H9 L<H9 L<H9 L<H9 L<H9 L<H9 L<H9 L<H9 L<H9 L<H9 L<H9 <H9 <H9 <H9 <H9 <H9 <H9 M<H9 M<H9 M<H9 M<H9 M<H9 M<H9 M<H9 M<H9 M<H9 M<H9 M<H9 M<H9 M<H9 M<H9 M<H9 M<H9 M<H9 M<H9 M<H9 M<H9 M<H9 M<H9 M<H9 M<H9 M<H9 M<H9 M<H9 M<H9 M<H9 M<H9 M<H9 M<H9 M<H9 M<H9 M<H9 M<H9 M<H M<H M<H M<H M<H M<H M<H M<H M<H M<H M<H M<H <H <H <H <H <H <H <H <H <H <H <H <H <HL7 <HL7 <HL7 <HL7 <HL7 <HL7 <HL7 <HL7 <HL7 <HL7 <HL7 <HL7 <HL7 <HL7 <HL7 <HL7 <HL7 <HL7 <HL7 <HL7 <HL7 <HL7 <HL7 <HL7 <HL7 <HL7 <HL7 <HL7 <HL7 <HL7 <HL7 <HL7 <HL7 <HL7 <HL7 <HL7 <HL7 <HL7 <HL7 <HL7 <HL7 <HL7 <HL7 <HL7 <HL7 <HL7 <HL7 <HL7 <HL7 <HL7 <HL7 <HL7 <HL7 <HL7 <HL7 <HL7 <HL7 <HL7 <HL7 <HL7 <HL7 <HL7 <HL7 <HL7 <HL7 <HL7 <HL7 <HL7 <HL7 <HL7 <HL7 <HL7 L7 L7 L7 L7 L7 L7 L7 L7 L7 L7 L7 L7 L7 L7 L7 L7 L7 L7 L7 L7 L7 L7 L7 L7                         JAE5 JAE5 JAE5 JAE5 JAE5 JAE5 JAE5 JAE5 JAE5 JAE5 JAE5 JAE5 JAE5 JAE5 JAE5 JAE5 JAE5 JAE5 JAE5 JAE5 JAE5 JAE5 JAE5 JAE5 JAE5 JAE5 JAE5 JAE5 JAE5 JAE5 JAE5 JAE5 JAE5 JAE5 JAE5 JAE5 JAE5 JAE5 JAE5 JAE5 JAE5 JAE5 JAE5 JAE5 JAE5 JAE5 JAE5 JAE5 AE5 AE5 AE5 AE5 AE5 AE5 AE5 AE5 AE5 AE5 AE5 AE5 MAE5 MAE5 MAE5 MAE5 MAE5 MAE5 MAE5 MAE5 MAE5 MAE5 MAE5 MAE5 MAE5 MAE5 MAE5 MAE5 MAE5 MAE5 MAE5 MAE5 MAE5 MAE5 MAE5 MAE5 AE5 AE5 AE5 AE5 AE5 AE5 ALE5 ALE5 ALE5 ALE5 ALE5 ALE5 LE5 LE5 LE5 LE5 LE5 LE5 LE5 LE5 LE5 LE5 LE5 LE5 LE5 LE5 LE5 LE5 LE5 LE E E E E E E JE@ JE@ JE@ JE@ JE@ JE@ JE@ JE@ JE@ JE@ JE@ JE@ JE@ JE@ JE@ JE@ JE@ JE@ JE@ JE@ JE@ JE@ JE@ JE@ JE@ JE@ JE@ JE@ JE@ JE@ JE@ JE@ JE@ JE@ JE@ JE@ JE@ JE@ JE@ JE@ JE@ JE@ JE@ JE@ JE@ JE@ JE@ JE@ E@ E@ E@ E@ E@ E@ E@ E@ E@ E@ E@ E@ EL@ EL@ EL@ EL@ EL@ EL@ EL@ EL@ EL@ EL@ EL@ EL@ L@ L@ L@ L@ L@ L@ L@ L@ L@ L@ L@ L@ @ @ @ @ @ @ @H @H @H @H @H @H H H H H H H H H H H H H H H H H H H       HG>5 HG>5 HG>5 HG>5 HG>5 HG>5 HG>5 HG>5 HG>5 HG>5 HG>5 HG>5 HG>5 HG>5 HG>5 HG>5 HG>5 HG>5 HG>5 HG>5 HG>5 HG>5 HG>5 HG>5 HG>5 HG>5 HG>5 HG>5 HG>5 HG>5 HG>5 HG>5 HG>5 HG>5 HG>5 HG>5 HG>5 HG>5 HG>5 HG>5 HG>5 HG>5 HG>5 HG>5 HG>5 HG>5 HG>5 HG>5 G>5 G>5 G>5 G>5 G>5 G>5 G>5 G>5 G>5 G>5 G>5 G>5 GO>5 GO>5 GO>5 GO>5 GO>5 GO>5 GO>5 GO>5 GO>5 GO>5 GO>5 GO>5 GO>5 GO>5 GO>5 GO>5 GO>5 GO>5 GO>5 GO>5 GO>5 GO>5 GO>5 GO>5 GO>5 GO>5 GO>5 GO>5 GO>5 GO>5 GO>5 GO>5 GO>5 GO>5 GO>5 GO>5 GO> GO> GO> GO> GO> GO> GO> GO> GO> GO> GO> GO> GO> GO> GO> GO> GO> GO> GO> GO> GO> GO> GO> GO> GO>4 GO>4 GO>4 GO>4 GO>4 GO>4 GO>4 GO>4 GO>4 GO>4 GO>4 GO>4 GO>4 GO>4 GO>4 GO>4 GO>4 GO>4 GO>4 GO>4 GO>4 GO>4 GO>4 GO>4 GO>4 GO>4 GO>4 GO>4 GO>4 GO>4 GO>4 GO>4 GO>4 GO>4 GO>4 GO>4 GO>4 GO>4 GO>4 GO>4 GO>4 GO>4 GO>4 GO>4 GO>4 GO>4 GO>4 GO>4 GO>4 GO>4 GO>4 GO>4 GO>4 GO>4 GO>4 GO>4 GO>4 GO>4 GO>4 GO>4 GO>4 GO>4 GO>4 GO>4 GO>4 GO>4 GO>4 GO>4 GO>4 GO>4 GO>4 GO>4 O>4 O>4 O>4 O>4 O>4 O>4 O>4 O>4 O>4 O>4 O>4 O>4 >4 >4 >4 >4 >4 >4 >4 >4 >4 >4 >4 >4 > > > > > > > > >                OG>7 OG>7 OG>7 OG>7 OG>7 OG>7 OG>7 OG>7 OG>7 OG>7 OG>7 OG>7 OG>7 OG>7 OG>7 OG>7 OG>7 OG>7 OG>7 OG>7 OG>7 OG>7 OG>7 OG>7 OG>7 OG>7 OG>7 OG>7 OG>7 OG>7 OG>7 OG>7 OG>7 OG>7 OG>7 OG>7 OG>7 OG>7 OG>7 OG>7 OG>7 OG>7 OG>7 OG>7 OG>7 OG>7 OG>7 OG>7 OG>7 OG>7 OG>7 OG>7 OG>7 OG>7 OG>7 OG>7 OG>7 OG>7 OG>7 OG>7 OG>7 OG>7 OG>7 OG>7 OG>7 OG>7 OG>7 OG>7 OG>7 OG>7 OG>7 OG>7 OG>7 OG>7 OG>7 OG>7 OG>7 OG>7 OG>7 OG>7 OG>7 OG>7 OG>7 OG>7 OG>7 OG>7 OG>7 OG>7 OG>7 OG>7 OG>7 OG>7 OG>7 OG>7 OG>7 OG>7 OG> OG> OG> OG> OG> OG> OG> OG> OG> OG> OG> OG> OG> OG> OG> OG> OG> OG> OG> OG> OG> OG> OG> OG> OG>5 OG>5 OG>5 OG>5 OG>5 OG>5 OG>5 OG>5 OG>5 OG>5 OG>5 OG>5 OG>5 OG>5 OG>5 OG>5 OG>5 OG>5 OG>5 OG>5 OG>5 OG>5 OG>5 OG>5 OG>5 OG>5 OG>5 OG>5 OG>5 OG>5 OG>5 OG>5 OG>5 OG>5 OG>5 OG>5 OG>5 OG>5 OG>5 OG>5 OG>5 OG>5 OG>5 OG>5 OG>5 OG>5 OG>5 OG>5 OG>5 OG>5 OG>5 OG>5 OG>5 OG>5 OG>5 OG>5 OG>5 OG>5 OG>5 OG>5 OG>5 OG>5 OG>5 OG>5 OG>5 OG>5 OG>5 OG>5 OG>5 OG>5 OG>5 OG>5 OG>5 OG>5 OG>5 OG>5 OG>5 OG>5 OG>5 OG>5 OG>5 OG>5 OG>5 OG>5 OG>5 OG>5 OG>5 OG>5 OG>5 OG>5 OG>5 OG>5 OG>5 OG>5 OG>5 OG>5 OG> OG> OG> OG> OG> OG> OG> OG> OG> OG> OG> OG> OG> OG> OG> OG> OG> OG> OG> OG> OG> OG> OG> OG> OG>4 OG>4 OG>4 OG>4 OG>4 OG>4 OG>4 OG>4 OG>4 OG>4 OG>4 OG>4 OG>4 OG>4 OG>4 OG>4 OG>4 OG>4 OG>4 OG>4 OG>4 OG>4 OG>4 OG>4 OG>4 OG>4 OG>4 OG>4 OG>4 OG>4 OG>4 OG>4 OG>4 OG>4 OG>4 OG>4 OG>4 OG>4 OG>4 OG>4 OG>4 OG>4 OG>4 OG>4 OG>4 OG>4 OG>4 OG>4 OG>4 OG>4 OG>4 OG>4 OG>4 OG>4 OG>4 OG>4 OG>4 OG>4 OG>4 OG>4 OG>4 OG>4 OG>4 OG>4 OG>4 OG>4 OG>4 OG>4 OG>4 OG>4 OG>4 OG>4 OG>4 OG>4 OG>4 OG>4 OG>4 OG>4 OG>4 OG>4 OG>4 OG>4 OG>4 OG>4 OG>4 OG>4 OG>4 OG>4 OG>4 OG>4 OG>4 OG>4 OG>4 OG>4 OG>4 OG>4 OG> OG> OG> OG> OG> OG> OG> OG> OG> OG> OG> OG> OG> OG> OG> OG> OG> OG> OG> OG> OG> OG> OG> OG> OG>2 OG>2 OG>2 OG>2 OG>2 OG>2 OG>2 OG>2 OG>2 OG>2 OG>2 OG>2 OG>2 OG>2 OG>2 OG>2 OG>2 OG>2 OG>2 OG>2 OG>2 OG>2 OG>2 OG>2 >2 >2 >2 >2 >2 >2 >2 >2 >2 >2 >2 >2 >2 >2 >2 >2 >2 >2 >2 >2 >2 >2 >2 >2 >2 >2 >2 >2 >2 >2 >2 >2 >2 >2 >2 >2 >2 >2 >2 >2 >2 >2 >2 >2 >2 >2 >2 >2 >2 >2 >2 >2 >2 >2 >2 >2 >2 >2 >2 >2 >2 >2 >2 >2 >2 >2 2 2 2 2 2 2                         F4 F4 F4 F4 F4 F4 F4 F4 F4 F4 F4 F4 F4 F4 F4 F4 F4 F4 F4 F4 F4 F4 F4 F4 F4 F4 F4 F4 F4 F4 F4 F4 F4 F4 F4 F4 F4 F4 F4 F4 F4 F4 F4 F4 F4 F4 F4 F4 4 4 4 4 4 4 4 4 4 4 4 4 E4 E4 E4 E4 E4 E4 E4 E4 E4 E4 E4 E4 E4 E4 E4 E4 E4 E4 E4 E4 E4 E4 E4 E4 E4 E4 E4 E4 E4 E4 E4 E4 E4 E4 E4 E4 E4 E4 E4 E4 E4 E4 E4 E4 E4 E4 E4 E4 4 4 4 4 4 4 4 4 4 4 4 4 F4 F4 F4 F4 F4 F4 F4 F4 F4 F4 F4 F4 F4 F4 F4 F4 F4 F4 F4 F4 F4 F4 F4 F4 F4 F4 F4 F4 F4 F4 F4 F4 F4 F4 F4 F4 F4 F4 F4 F4 F4 F4 F4 F4 F4 F4 F4 F4 4 4 4 4 4 4 4 4 4 4 4 4 O4 O4 O4 O4 O4 O4 O4 O4 O4 O4 O4 O4 O4 O4 O4 O4 O4 O4 O4 O4 O4 O4 O4 O4 O4 O4 O4 O4 O4 O4 O4 O4 O4 O4 O4 O4 O4 O4 O4 O4 O4 O4 O4 O4 O4 O4 O4 O4 4 4 4 4 4 4 4 4 4 4 4 4 L4 L4 L4 L4 L4 L4 L4 L4 L4 L4 L4 L4 L4 L4 L4 L4 L4 L4 L4 L4 L4 L4 L4 L4 L4 L4 L4 L4 L4 L4 L4 L4 L4 L4 L4 L4 L4 L4 L4 L4 L4 L4 L4 L4 L4 L4 L4 L4 4 4 4 4 4 4 4 4 4 4 4 4 H4 H4 H4 H4 H4 H4 H4 H4 H4 H4 H4 H4 H4 H4 H4 H4 H4 H4 H4 H4 H4 H4 H4 H4 H4 H4 H4 H4 H4 H4 H4 H4 H4 H4 H4 H4 H4 H4 H4 H4 H4 H4 H4 H4 H4 H4 H4 H4 4 4 4 4 4 4 4 4 4 4 4 4 F4 F4 F4 F4 F4 F4 F4 F4 F4 F4 F4 F4 F4 F4 F4 F4 F4 F4 F4 F4 F4 F4 F4 F4 F F F F F F F F F F F F F F F F F F F F F F F F             E E E E E E E E E E E E E E E E E E E E E E E E E E E E E E E E E E E E E E E E E E E E E E E E             F F F F F F F F F F F F F F F F F F F F F F F F F F F F F F F F F F F F F F F F F F F F F F F F             E E E E E E E E E E E E E E E E E E E E E E E E E E E E E E E E E E E E E E E E E E E E E E E E             F F F F F F F F F F F F F F F F F F F F F F F F F F F F F F F F F F F F F F F F F F F F F F F F             O O O O O O O O O O O O O O O O O O O O O O O O O O O O O O O O O O O O O O O O O O O O O O O O             E5 E5 E5 E5 E5 E5 E5 E5 E5 E5 E5 E5 E5 E5 E5 E5 E5 E5 E5 E5 E5 E5 E5 E5 E5 E5 E5 E5 E5 E5 E5 E5 E5 E5 E5 E5 E5 E5 E5 E5 E5 E5 E5 E5 E5 E5 E5 E5 5 5 5 5 5 5 5 5 5 5 5 5 C5 C5 C5 C5 C5 C5 C5 C5 C5 C5 C5 C5 C5 C5 C5 C5 C5 C5 C5 C5 C5 C5 C5 C5 C5 C5 C5 C5 C5 C5 C5 C5 C5 C5 C5 C5 C5 C5 C5 C5 C5 C5 C5 C5 C5 C5 C5 C5 5 5 5 5 5 5 5 5 5 5 5 5 E5 E5 E5 E5 E5 E5 E5 E5 E5 E5 E5 E5 E5 E5 E5 E5 E5 E5 E5 E5 E5 E5 E5 E5 E5 E5 E5 E5 E5 E5 E5 E5 E5 E5 E5 E5 E5 E5 E5 E5 E5 E5 E5 E5 E5 E5 E5 E5 5 5 5 5 5 5 5 5 5 5 5 5 H5 H5 H5 H5 H5 H5 H5 H5 H5 H5 H5 H5 H5 H5 H5 H5 H5 H5 H5 H5 H5 H5 H5 H5 H5 H5 H5 H5 H5 H5 H5 H5 H5 H5 H5 H5 H5 H5 H5 H5 H5 H5 H5 H5 H5 H5 H5 H5 5 5 5 5 5 5 5 5 5 5 5 5 J5 J5 J5 J5 J5 J5 J5 J5 J5 J5 J5 J5 J5 J5 J5 J5 J5 J5 J5 J5 J5 J5 J5 J5 J5 J5 J5 J5 J5 J5 J5 J5 J5 J5 J5 J5 J5 J5 J5 J5 J5 J5 J5 J5 J5 J5 J5 J5 5 5 5 5 5 5 5 5 5 5 5 5 L5 L5 L5 L5 L5 L5 L5 L5 L5 L5 L5 L5 L5 L5 L5 L5 L5 L5 L5 L5 L5 L5 L5 L5 L5 L5 L5 L5 L5 L5 L5 L5 L5 L5 L5 L5 L5 L5 L5 L5 L5 L5 L5 L5 L5 L5 L5 L5 5 5 5 5 5 5 5 5 5 5 5 5 M5 M5 M5 M5 M5 M5 M5 M5 M5 M5 M5 M5 M5 M5 M5 M5 M5 M5 M5 M5 M5 M5 M5 M5 M M M M M M M M M M M M M M M M M M M M M M M M             O O O O O O O O O O O O O O O O O O O O O O O O O O O O O O O O O O O O O O O O O O O O O O O O             Q6 Q6 Q6 Q6 Q6 Q6 Q6 Q6 Q6 Q6 Q6 Q6 Q6 Q6 Q6 Q6 Q6 Q6 Q6 Q6 Q6 Q6 Q6 Q6 Q6 Q6 Q6 Q6 Q6 Q6 Q6 Q6 Q6 Q6 Q6 Q6 Q6 Q6 Q6 Q6 Q6 Q6 Q6 Q6 Q6 Q6 Q6 Q6 6 6 6 6 6 6 6 6 6 6 6 6 K6 K6 K6 K6 K6 K6 K6 K6 K6 K6 K6 K6 K6 K6 K6 K6 K6 K6 K6 K6 K6 K6 K6 K6 K6 K6 K6 K6 K6 K6 K6 K6 K6 K6 K6 K6 K6 K6 K6 K6 K6 K6 K6 K6 K6 K6 K6 K6 6 6 6 6 6 6 6 6 6 6 6 6 J6 J6 J6 J6 J6 J6 J6 J6 J6 J6 J6 J6 J6 J6 J6 J6 J6 J6 J6 J6 J6 J6 J6 J6 J6 J6 J6 J6 J6 J6 J6 J6 J6 J6 J6 J6 J6 J6 J6 J6 J6 J6 J6 J6 J6 J6 J6 J6 6 6 6 6 6 6 6 6 6 6 6 6 H6 H6 H6 H6 H6 H6 H6 H6 H6 H6 H6 H6 H H H H H H H H H H H H H H H H H H H H H H H H H H H H H H H H H H H H             S S S S S S S S S S S S S S S Q Q Q Q Q Q Q Q Q Q Q Q    O O O O O O O O O O O O    Q Q Q Q Q Q Q Q Q Q Q Q    S S S S S S S S S S S S S S S S S S S S S S S S S S S S S S S S S S S S S S S S S S S S S S S S             T T T T T T T T T T T T T T T T T T T T T T T T T T T T T T T T T T T T T T T T T T T T T T T T T T T T T T T T T T T T T T T T T T T T T T T T T T T T T T T T T T T T T T T T T T T T T T T T                         MCH7 MCH7 MCH7 MCH7 MCH7 MCH7 MCH7 MCH7 MCH7 MCH7 MCH7 MCH7 MCH7 MCH7 MCH7 MCH7 MCH7 MCH7 MCH7 MCH7 MCH7 MCH7 MCH7 MCH7 MCH7 MCH7 MCH7 MCH7 MCH7 MCH7 MCH7 MCH7 MCH7 MCH7 MCH7 MCH7 MCH7 MCH7 MCH7 MCH7 MCH7 MCH7 MCH7 MCH7 MCH7 MCH7 MCH7 MCH7 MCH7 MCH7 MCH7 MCH7 MCH7 MCH7 MCH7 MCH7 MCH7 MCH7 MCH7 MCH7 MCH7 MCH7 MCH7 MCH7 MCH7 MCH7 MCH7 MCH7 MCH7 MCH7 MCH7 MCH7 MCH7 MCH7 MCH7 MCH7 MCH7 MCH7 MCH7 MCH7 MCH7 MCH7 MCH7 MCH7 MCH7 MCH7 MCH7 MCH7 MCH7 MCH7 MCH7 MCH7 MCH7 MCH7 MCH7 MCH7 CH7 CH7 CH7 CH7 CH7 CH7 CH7 CH7 CH7 CH7 CH7 CH7 CH7 CH7 CH7 CH7 CH7 CH7 CH7 CH7 CH7 CH7 CH7 CH7 CHL7 CHL7 CHL7 CHL7 CHL7 CHL7 CHL7 CHL7 CHL7 CHL7 CHL7 CHL7 CHL7 CHL7 CHL7 CHL7 CHL7 CHL7 CHL7 CHL7 CHL7 CHL7 CHL7 CHL7 CHL7 CHL7 CHL7 CHL7 CHL7 CHL7 CHL7 CHL7 CHL7 CHL7 CHL7 CHL7 CHL7 CHL7 CHL7 CHL7 CHL7 CHL7 CHL7 CHL7 CHL7 CHL7 CHL7 CHL7 CHL7 CHL7 CHL7 CHL7 CHL7 CHL7 CHL7 CHL7 CHL7 CHL7 CHL7 CHL7 CHL7 CHL7 CHL7 CHL7 CHL7 CHL7 CHL7 CHL7 CHL7 CHL7 CHL7 CHL7 L L L L L L L L L L L L L L L L L L L L L L L L                         JGA+ JGA+ JGA+ JGA+ JGA+ JGA+ JGA+ JGA+ JGA+ JGA+ JGA+ JGA+ JGA+ JGA+ JGA+ JGA+ JGA+ JGA+ JGA+ JGA+ JGA+ JGA+ JGA+ JGA+ JGA+ JGA+ JGA+ JGA+ JGA+ JGA+ JGA+ JGA+ JGA+ JGA+ JGA+ JGA+ JGA+ JGA+ JGA+ JGA+ JGA+ JGA+ JGA+ JGA+ JGA+ JGA+ JGA+ JGA+ JGA+ JGA+ JGA+ JGA+ JGA+ JGA+ JGA+ JGA+ JGA+ JGA+ JGA+ JGA+ JGA+ JGA+ JGA+ JGA+ JGA+ JGA+ JGA+ JGA+ JGA+ JGA+ JGA+ JGA+ JGA+ JGA+ JGA+ JGA+ JGA+ JGA+ JGA+ JGA+ JGA+ JGA+ JGA+ JGA+ JGA+ JGA+ JGA+ JGA+ JGA+ JGA+ JGA+ JGA+ JGA+ JGA+ JGA+ JGA+ GA+ GA+ GA+ GA+ GA+ GA+ GA+ GA+ GA+ GA+ GA+ GA+ GA+ GA+ GA+ GA+ GA+ GA+ GA+ GA+ GA+ GA+ GA+ GA+ GAH+ GAH+ GAH+ GAH+ GAH+ GAH+ GAH+ GAH+ GAH+ GAH+ GAH+ GAH+ GAH+ GAH+ GAH+ GAH+ GAH+ GAH+ GAH+ GAH+ GAH+ GAH+ GAH+ GAH+ GAH+ GAH+ GAH+ GAH+ GAH+ GAH+ GAH+ GAH+ GAH+ GAH+ GAH+ GAH+ GAH+ GAH+ GAH+ GAH+ GAH+ GAH+ GAH+ GAH+ GAH+ GAH+ GAH+ GAH+ GAH+ GAH+ GAH+ GAH+ GAH+ GAH+ GAH+ GAH+ GAH+ GAH+ GAH+ GAH+ GAH+ GAH+ GAH+ GAH+ GAH+ GAH+ GAH+ GAH+ GAH+ GAH+ GAH+ GAH+ H H H H H H H H H H H H H H H H H H H H H H H H                         ACH0 ACH0 ACH0 ACH0 ACH0 ACH0 ACH0 ACH0 ACH0 ACH0 ACH0 ACH0 ACH0 ACH0 ACH0 ACH0 ACH0 ACH0 ACH0 ACH0 ACH0 ACH0 ACH0 ACH0 ACH0 ACH0 ACH0 ACH0 ACH0 ACH0 ACH0 ACH0 ACH0 ACH0 ACH0 ACH0 ACH0 ACH0 ACH0 ACH0 ACH0 ACH0 ACH0 ACH0 ACH0 ACH0 ACH0 ACH0 ACH0 ACH0 ACH0 ACH0 ACH0 ACH0 ACH0 ACH0 ACH0 ACH0 ACH0 ACH0 ACH0 ACH0 ACH0 ACH0 ACH0 ACH0 ACH0 ACH0 ACH0 ACH0 ACH0 ACH0 ACH0 ACH0 ACH0 ACH0 ACH0 ACH0 ACH0 ACH0 ACH0 ACH0 ACH0 ACH0 ACH0 ACH0 ACH0 ACH0 ACH0 ACH0 ACH0 ACH0 ACH0 ACH0 ACH0 ACH0 CH0 CH0 CH0 CH0 CH0 CH0 CH0 CH0 CH0 CH0 CH0 CH0 CH0 CH0 CH0 CH0 CH0 CH0 CH0 CH0 CH0 CH0 CH0 CH0 CH>0 CH>0 CH>0 CH>0 CH>0 CH>0 CH>0 CH>0 CH>0 CH>0 CH>0 CH>0 CH>0 CH>0 CH>0 CH>0 CH>0 CH>0 CH>0 CH>0 CH>0 CH>0 CH>0 CH>0 CH>0 CH>0 CH>0 CH>0 CH>0 CH>0 CH>0 CH>0 CH>0 CH>0 CH>0 CH>0 CH>0 CH>0 CH>0 CH>0 CH>0 CH>0 CH>0 CH>0 CH>0 CH>0 CH>0 CH>0 CH>0 CH>0 CH>0 CH>0 CH>0 CH>0 CH>0 CH>0 CH>0 CH>0 CH>0 CH>0 CH>0 CH>0 CH>0 CH>0 CH>0 CH>0 CH>0 CH>0 CH>0 CH>0 CH>0 CH>0 > > > > > > > > > > > > > > > > > > > > > > > >                         @HC$ @HC$ @HC$ @HC$ @HC$ @HC$ @HC$ @HC$ @HC$ @HC$ @HC$ @HC$ @HC$ @HC$ @HC$ @HC$ @HC$ @HC$ @HC$ @HC$ @HC$ @HC$ @HC$ @HC$ @HC$ @HC$ @HC$ @HC$ @HC$ @HC$ @HC$ @HC$ @HC$ @HC$ @HC$ @HC$ @HC$ @HC$ @HC$ @HC$ @HC$ @HC$ @HC$ @HC$ @HC$ @HC$ @HC$ @HC$ @HC$ @HC$ @HC$ @HC$ @HC$ @HC$ @HC$ @HC$ @HC$ @HC$ @HC$ @HC$ @HC$ @HC$ @HC$ @HC$ @HC$ @HC$ @HC$ @HC$ @HC$ @HC$ @HC$ @HC$ @HC$ @HC$ @HC$ @HC$ @HC$ @HC$ @HC$ @HC$ @HC$ @HC$ @HC$ @HC$ @HC$ @HC$ @HC$ @HC$ @HC$ @HC$ @HC$ @HC$ @HC$ @HC$ @HC$ @HC$ @HC$ @HC$ @HC$ @HC$ @HC$ @HC$ @HC$ @HC$ @HC$ @HC$ @HC$ @HC$ @HC$ @HC$ @HC$ @HC$ @HC$ @HC$ @HC$ @HC$ @HC$ @HC$ @HC$ @HC$ @HC$ @HC$ @HC$ @HC$ @HC$ @HC$ @HC$ @HC$ @HC$ @HC$ @HC$ @HC$ @HC$ @HC$ @HC$ @HC$ @HC$ @HC$ @HC$ @HC$ @HC$ @HC$ @HC$ @HC$ @HC$ @HC$ @HC$ @HC$ @HC$ @HC$ @HC$ @HC$ @HC$ @HC$ @HC$ @HC$ @HC$ @HC$ @HC$ @HC$ @HC$ @HC$ @HC$ @HC$ @HC$ @HC$ @HC$ @HC$ @HC$ @HC$ @HC$ @HC$ @HC$ @HC$ @HC$ @HC$ @HC$ @HC$ @HC$ @HC$ @HC$ @HC$ @HC$ @HC$ @HC$ @HC$ @HC$ @HC$ @HC$ @HC$ @HC$ @HC$ @HC$ @HC$ @HC$ @HC$ @HC$ @HC$ @HC$ @HC$ @HC$ @HC$ @HC$ @HC$ @HC$ @HC$ @HC$ @HC$ @HC$ @HC$ @HC$ @HC$ @HC$ @HC$ @HC$ @HC$ @HC$ @HC$ @HC$ @HC$ @HC$ @HC$ @HC$ @HC$ @HC$ @HC$ @HC$ @HC$ @HC$ @HC$ @HC$ @HC$ @HC$ @HC$ @HC$ @HC$ @HC$ @HC$ @HC$ @HC$ @HC$ @HC$ @HC$ @HC$ @HC$ @HC$ @HC$ @HC$ @HC$ @HC$ @HC$ @HC$ @HC$ @HC$ @HC$ @HC$ @HC$ @HC$ @HC$ @HC$ @HC$ @HC$ @HC$ @HC$ @HC$ @HC$ @HC$ @HC$ @HC$ @HC$ @HC$ @HC$ @HC$ @HC$ @HC$ @HC$ @HC$ @HC$ @HC$ @HC$ @HC$ @HC$ @HC$ @HC$ @HC$ @HC$ @HC$ @HC$ @HC$ @HC$ @HC$ @HC$ @HC$ @HC$ @HC$ @HC$ @HC$ @HC$ @HC$ @HC$ @HC$ @HC$ @HC$ @HC$ @HC$ @HC$ @HC$ @HC$ @HC$ @HC$ @HC$ @HC$ @HC$ @HC$ @HC$ @HC$ @HC$ @HC$ @HC$ @HC$ @HC$ @HC$ @HC$ @HC$ @HC$ @HC$ @HC$ @HC$ @HC$ @HC$ @HC$ @HC$ @HC$ @HC$ @HC$ @HC$ @HC$ @HC$ @HC$ @HC$ @HC$ @HC$ @HC$ @HC$ @HC$ @HC$ @HC$ @HC$ @HC$ @HC$ @HC$ @HC$ @HC$ @HC$ @HC$ @HC$ @HC$ @HC$ @HC$ @HC$ @HC$ @HC$ @HC$ @HC$ @HC$ @HC$ @HC$ @HC$ @HC$ @HC$ @HC$ @HC$ @HC$ @HC$ @HC$ @HC$ @HC$ @HC$ @HC$ @HC$ @HC$ @HC$ @HC$ @HC$                                                                                                 C@0< C@0< C@0< C@0< C@0< C@0< C@0< C@0< C@0< C@0< C@0< C@0< C@0< C@0< C@0< C@0< C@0< C@0< C@0< C@0< C@0< C@0< C@0< C@0< C@0< C@0< C@0< C@0< C@0< C@0< C@0< C@0< C@0< C@0< C@0< C@0< C@0< C@0< C@0< C@0< C@0< C@0< C@0< C@0< C@0< C@0< C@0< C@0< C@0< C@0< C@0< C@0< C@0< C@0< C@0< C@0< C@0< C@0< C@0< C@0< C@0< C@0< C@0< C@0< C@0< C@0< C@0< C@0< C@0< C@0< C@0< C@0< C@0< C@0< C@0< C@0< C@0< C@0< C@0< C@0< C@0< C@0< C@0< C@0< C@0< C@0< C@0< C@0< C@0< C@0< C@0< C@0< C@0< C@0< C@0< C@0< C@< C@< C@< C@< C@< C@< C@< C@< C@< C@< C@< C@< C@< C@< C@< C@< C@< C@< C@< C@< C@< C@< C@< C@< C@<4 C@<4 C@<4 C@<4 C@<4 C@<4 C@<4 C@<4 C@<4 C@<4 C@<4 C@<4 C@<4 C@<4 C@<4 C@<4 C@<4 C@<4 C@<4 C@<4 C@<4 C@<4 C@<4 C@<4 C@<4 C@<4 C@<4 C@<4 C@<4 C@<4 C@<4 C@<4 C@<4 C@<4 C@<4 C@<4 C@<4 C@<4 C@<4 C@<4 C@<4 C@<4 C@<4 C@<4 C@<4 C@<4 C@<4 C@<4 C@<4 C@<4 C@<4 C@<4 C@<4 C@<4 C@<4 C@<4 C@<4 C@<4 C@<4 C@<4 C@<4 C@<4 C@<4 C@<4 C@<4 C@<4 C@<4 C@<4 C@<4 C@<4 C@<4 C@<4 4 4 4 4 4 4 4 4 4 4 4 4 4 4 4 4 4 4 4 4 4 4 4 4                         @C<7 @C<7 @C<7 @C<7 @C<7 @C<7 @C<7 @C<7 @C<7 @C<7 @C<7 @C<7 @C<7 @C<7 @C<7 @C<7 @C<7 @C<7 @C<7 @C<7 @C<7 @C<7 @C<7 @C<7 @C<7 @C<7 @C<7 @C<7 @C<7 @C<7 @C<7 @C<7 @C<7 @C<7 @C<7 @C<7 @C<7 @C<7 @C<7 @C<7 @C<7 @C<7 @C<7 @C<7 @C<7 @C<7 @C<7 @C<7 @C<7 @C<7 @C<7 @C<7 @C<7 @C<7 @C<7 @C<7 @C<7 @C<7 @C<7 @C<7 @C<7 @C<7 @C<7 @C<7 @C<7 @C<7 @C<7 @C<7 @C<7 @C<7 @C<7 @C<7 @C<7 @C<7 @C<7 @C<7 @C<7 @C<7 @C<7 @C<7 @C<7 @C<7 @C<7 @C<7 @C<7 @C<7 @C<7 @C<7 @C<7 @C<7 @C<7 @C<7 @C<7 @C<7 @C<7 @C<7 <7 <7 <7 <7 <7 <7 <7 <7 <7 <7 <7 <7 <7 <7 <7 <7 <7 <7 <7 <7 <7 <7 <7 <7 A><7 A><7 A><7 A><7 A><7 A><7 A><7 A><7 A><7 A><7 A><7 A><7 A><7 A><7 A><7 A><7 A><7 A><7 A><7 A><7 A><7 A><7 A><7 A><7 A><7 A><7 A><7 A><7 A><7 A><7 A><7 A><7 A><7 A><7 A><7 A><7 A><7 A><7 A><7 A><7 A><7 A><7 A><7 A><7 A><7 A><7 A><7 A><7 A><7 A><7 A><7 A><7 A><7 A><7 A><7 A><7 A><7 A><7 A><7 A><7 A><7 A><7 A><7 A><7 A><7 A><7 A><7 A><7 A><7 A><7 A><7 A><7 A> A> A> A> A> A> A> A> A> A> A> A> A> A> A> A> A> A> A> A> A> A> A> A>                         <@+7 <@+7 <@+7 <@+7 <@+7 <@+7 <@+7 <@+7 <@+7 <@+7 <@+7 <@+7 <@+7 <@+7 <@+7 <@+7 <@+7 <@+7 <@+7 <@+7 <@+7 <@+7 <@+7 <@+7 <@+7 <@+7 <@+7 <@+7 <@+7 <@+7 <@+7 <@+7 <@+7 <@+7 <@+7 <@+7 <@+7 <@+7 <@+7 <@+7 <@+7 <@+7 <@+7 <@+7 <@+7 <@+7 <@+7 <@+7 <@+7 <@+7 <@+7 <@+7 <@+7 <@+7 <@+7 <@+7 <@+7 <@+7 <@+7 <@+7 <@+7 <@+7 <@+7 <@+7 <@+7 <@+7 <@+7 <@+7 <@+7 <@+7 <@+7 <@+7 <@+7 <@+7 <@+7 <@+7 <@+7 <@+7 <@+7 <@+7 <@+7 <@+7 <@+7 <@+7 <@+7 <@+7 <@+7 <@+7 <@+7 <@+7 <@+7 <@+7 <@+7 <@+7 <@+7 <@+7 +7 +7 +7 +7 +7 +7 +7 +7 +7 +7 +7 +7 +7 +7 +7 +7 +7 +7 +7 +7 +7 +7 +7 +7 ;>+7 ;>+7 ;>+7 ;>+7 ;>+7 ;>+7 ;>+7 ;>+7 ;>+7 ;>+7 ;>+7 ;>+7 ;>+7 ;>+7 ;>+7 ;>+7 ;>+7 ;>+7 ;>+7 ;>+7 ;>+7 ;>+7 ;>+7 ;>+7 ;>+7 ;>+7 ;>+7 ;>+7 ;>+7 ;>+7 ;>+7 ;>+7 ;>+7 ;>+7 ;>+7 ;>+7 ;>+7 ;>+7 ;>+7 ;>+7 ;>+7 ;>+7 ;>+7 ;>+7 ;>+7 ;>+7 ;>+7 ;>+7 ;>+7 ;>+7 ;>+7 ;>+7 ;>+7 ;>+7 ;>+7 ;>+7 ;>+7 ;>+7 ;>+7 ;>+7 ;>+7 ;>+7 ;>+7 ;>+7 ;>+7 ;>+7 ;>+7 ;>+7 ;>+7 ;>+7 ;>+7 ;>+7 ;> ;> ;> ;> ;> ;> ;> ;> ;> ;> ;> ;> ;> ;> ;> ;> ;> ;> ;> ;> ;> ;> ;> ;>                         ><07 ><07 ><07 ><07 ><07 ><07 ><07 ><07 ><07 ><07 ><07 ><07 ><07 ><07 ><07 ><07 ><07 ><07 ><07 ><07 ><07 ><07 ><07 ><07 ><07 ><07 ><07 ><07 ><07 ><07 ><07 ><07 ><07 ><07 ><07 ><07 ><07 ><07 ><07 ><07 ><07 ><07 ><07 ><07 ><07 ><07 ><07 ><07 ><07 ><07 ><07 ><07 ><07 ><07 ><07 ><07 ><07 ><07 ><07 ><07 ><07 ><07 ><07 ><07 ><07 ><07 ><07 ><07 ><07 ><07 ><07 ><07 ><07 ><07 ><07 ><07 ><07 ><07 ><07 ><07 ><07 ><07 ><07 ><07 ><07 ><07 ><07 ><07 ><07 ><07 ><07 ><07 ><07 ><07 ><07 ><07 ><07 ><07 ><07 ><07 ><07 ><07 ><07 ><07 ><07 ><07 ><07 ><07 ><07 ><07 ><07 ><07 ><07 <07 <07 <07 <07 <07 <07 <07 <07 <07 <07 <07 <07 <07 <07 <07 <07 <07 <07 <07 <07 <07 <07 <07 <07 <07 <07 <07 <07 <07 <07 <07 <07 <07 <07 <07 <07 <07 <07 <07 <07 <07 <07 <07 <07 <07 <07 <07 <07 <07 <07 <07 <07 <07 <07 <07 <07 <07 <07 <07 <07 <07 <07 <07 <07 <07 <07 <07 <@07 <@07 <@07 <@07 <@07 <@07 <@07 <@07 <@07 <@07 <@07 <@07 @ @ @ @ @ @ @ @ @ @ @ @       A A A A A A A A A A A A A A A A A A A A A A A A       @<07 @<07 @<07 @<07 @<07 @<07 @<07 @<07 @<07 @<07 @<07 @<07 @<07 @<07 @<07 @<07 @<07 @<07 @<07 @<07 @<07 @<07 @<07 @<07 @<07 @<07 @<07 @<07 @<07 @<07 @<07 @<07 @<07 @<07 @<07 @<07 @<07 @<07 @<07 @<07 @<07 @<07 @<07 @<07 @<07 @<07 @<07 @<07 @<07 @<07 @<07 @<07 @<07 @<07 @<07 @<07 @<07 @<07 @<07 @<07 @<07 @<07 @<07 @<07 @<07 @<07 @<07 @<07 @<07 @<07 @<07 @<07 @<07 @<07 @<07 @<07 @<07 @<07 @<07 @<07 @<07 @<07 @<07 @<07 @<07 @<07 @<07 @<07 @<07 @<07 @<07 @<07 @<07 @<07 @<07 @<07 @<7 @<7 @<7 @<7 @<7 @<7 @<7 @<7 @<7 @<7 @<7 @<7 @<7 @<7 @<7 @<7 @<7 @<7 @<7 @<7 @<7 @<7 @<7 @<7 @</7 @</7 @</7 @</7 @</7 @</7 @</7 @</7 @</7 @</7 @</7 @</7 @</7 @</7 @</7 @</7 @</7 @</7 @</7 @</7 @</7 @</7 @</7 @</7 @</7 @</7 @</7 @</7 @</7 @</7 @</7 @</7 @</7 @</7 @</7 @</7 @</7 @</7 @</7 @</7 @</7 @</7 @</7 @</7 @</7 @</7 @</7 @</7 @</7 @</7 @</7 @</7 @</7 @</7 @</7 @</7 @</7 @</7 @</7 @</7 @</7 @</7 @</7 @</7 @</7 @</7 @</7 @</7 @</7 @</7 @</7 @</7 @</7 @</7 @</7 @</7 @</7 @</7 @</7 @</7 @</7 @</7 @</7 @</7 @</7 @</7 @</7 @</7 @</7 @</7 @</7 @</7 @</7 @</7 @</7 @</7 @<7 @<7 @<7 @<7 @<7 @<7 @<7 @<7 @<7 @<7 @<7 @<7 @<7 @<7 @<7 @<7 @<7 @<7 @<7 @<7 @<7 @<7 @<7 @<7 @<-7 @<-7 @<-7 @<-7 @<-7 @<-7 @<-7 @<-7 @<-7 @<-7 @<-7 @<-7 @<-7 @<-7 @<-7 @<-7 @<-7 @<-7 @<-7 @<-7 @<-7 @<-7 @<-7 @<-7 @<-7 @<-7 @<-7 @<-7 @<-7 @<-7 @<-7 @<-7 @<-7 @<-7 @<-7 @<-7 @<-7 @<-7 @<-7 @<-7 @<-7 @<-7 @<-7 @<-7 @<-7 @<-7 @<-7 @<-7 @<-7 @<-7 @<-7 @<-7 @<-7 @<-7 @<-7 @<-7 @<-7 @<-7 @<-7 @<-7 @<-7 @<-7 @<-7 @<-7 @<-7 @<-7 @<-7 @<-7 @<-7 @<-7 @<-7 @<-7 @<-7 @<-7 @<-7 @<-7 @<-7 @<-7 @<-7 @<-7 @<-7 @<-7 @<-7 @<-7 @<-7 @<-7 @<-7 @<-7 @<-7 @<-7 @<-7 @<-7 @<-7 @<-7 @<-7 @<-7 @<7 @<7 @<7 @<7 @<7 @<7 @<7 @<7 @<7 @<7 @<7 @<7 @<7 @<7 @<7 @<7 @<7 @<7 @<7 @<7 @<7 @<7 @<7 @<7 @<7+ @<7+ @<7+ @<7+ @<7+ @<7+ @<7+ @<7+ @<7+ @<7+ @<7+ @<7+ @<7+ @<7+ @<7+ @<7+ @<7+ @<7+ @<7+ @<7+ @<7+ @<7+ @<7+ @<7+ + + + + + + + + + + + + + + + + + + + + + + + + + + + + + + + + + + + + + + + + + + + + + + + + + + + + + + + + + + + + + + + + + + + + + + + +                         ?* ?* ?* ?* ?* ?* ?* ?* ?* ?* ?* ?* ?* ?* ?* ?* ?* ?* ?* ?* ?* ?* ?* ?* ?* ?* ?* ?* ?* ?* ?* ?* ?* ?* ?* ?* ?* ?* ?* ?* ?* ?* ?* ?* ?* ?* ?* ?* * * * * * * * * * * * * B* B* B* B* B* B* B* B* B* B* B* B* B* B* B* B* B* B* B* B* B* B* B* B* B* B* B* B* B* B* B* B* B* B* B* B* B* B* B* B* B* B* B* B* B* B* B* B* * * * * * * * * * * * * E* E* E* E* E* E* E* E* E* E* E* E* E* E* E* E* E* E* E* E* E* E* E* E* E* E* E* E* E* E* E* E* E* E* E* E* E* E* E* E* E* E* E* E* E* E* E* E* * * * * * * * * * * * * H* H* H* H* H* H* H* H* H* H* H* H* H H H H H H H H H H H H H H H H H H H H H H H H H H H H H H H H H H H H             G+ G+ G+ G+ G+ G+ G+ G+ G+ G+ G+ G+ G+ G+ G+ G+ G+ G+ G+ G+ G+ G+ G+ G+ G+ G+ G+ G+ G+ G+ G+ G+ G+ G+ G+ G+ G+ G+ G+ G+ G+ G+ G+ G+ G+ G+ G+ G+ + + + + + + + + + + + + B+ B+ B+ B+ B+ B+ B+ B+ B+ B+ B+ B+ B+ B+ B+ B+ B+ B+ B+ B+ B+ B+ B+ B+ B+ B+ B+ B+ B+ B+ B+ B+ B+ B+ B+ B+ B+ B+ B+ B+ B+ B+ B+ B+ B+ B+ B+ B+ + + + + + + + + + + + + C+ C+ C+ C+ C+ C+ C+ C+ C+ C+ C+ C+ C+ C+ C+ C+ C+ C+ C+ C+ C+ C+ C+ C+ C+ C+ C+ C+ C+ C+ C+ C+ C+ C+ C+ C+ C+ C+ C+ C+ C+ C+ C+ C+ C+ C+ C+ C+ + + + + + + + + + + + + ?+ ?+ ?+ ?+ ?+ ?+ ?+ ?+ ?+ ?+ ?+ ?+ ? ? ? ? ? ? ? ? ? ? ? ? ? ? ? ? ? ? ? ? ? ? ? ? ? ? ? ? ? ? ? ? ? ? ? ?             @@4 @@4 @@4 @@4 @@4 @@4 @@4 @@4 @@4 @@4 @@4 @@4 @@4 @@4 @@4 @@4 @@4 @@4 @@4 @@4 @@4 @@4 @@4 @@4 @@4 @@4 @@4 @@4 @@4 @@4 @@4 @@4 @@4 @@4 @@4 @@4 @@4 @@4 @@4 @@4 @@4 @@4 @@4 @@4 @@4 @@4 @@4 @@4 @4 @4 @4 @4 @4 @4 @4 @4 @4 @4 @4 @4 C@4 C@4 C@4 C@4 C@4 C@4 C@4 C@4 C@4 C@4 C@4 C@4 C@4 C@4 C@4 C@4 C@4 C@4 C@4 C@4 C@4 C@4 C@4 C@4 C@4 C@4 C@4 C@4 C@4 C@4 C@4 C@4 C@4 C@4 C@4 C@4 C@4 C@4 C@4 C@4 C@4 C@4 C@4 C@4 C@4 C@4 C@4 C@4 @4 @4 @4 @4 @4 @4 @4 @4 @4 @4 @4 @4 F@4 F@4 F@4 F@4 F@4 F@4 F@4 F@4 F@4 F@4 F@4 F@4 F@4 F@4 F@4 F@4 F@4 F@4 F@4 F@4 F@4 F@4 F@4 F@4 F@4 F@4 F@4 F@4 F@4 F@4 F@4 F@4 F@4 F@4 F@4 F@4 F@4 F@4 F@4 F@4 F@4 F@4 F@4 F@4 F@4 F@4 F@4 F@4 @4 @4 @4 @4 @4 @4 @4 @4 @4 @4 @4 @4 @I4 @I4 @I4 @I4 @I4 @I4 @I4 @I4 @I4 @I4 @I4 @I4 I I I I I I I I I I I I I I I I I I I I I I I I I I I I I I I I I I I I             LB;/ LB;/ LB;/ LB;/ LB;/ LB;/ LB;/ LB;/ LB;/ LB;/ LB;/ LB;/ LB;/ LB;/ LB;/ LB;/ LB;/ LB;/ LB;/ LB;/ LB;/ LB;/ LB;/ LB;/ LB;/ LB;/ LB;/ LB;/ LB;/ LB;/ LB;/ LB;/ LB;/ LB;/ LB;/ LB;/ LB;/ LB;/ LB;/ LB;/ LB;/ LB;/ LB;/ LB;/ LB;/ LB;/ LB;/ LB;/ B;/ B;/ B;/ B;/ B;/ B;/ B;/ B;/ B;/ B;/ B;/ B;/ KB;/ KB;/ KB;/ KB;/ KB;/ KB;/ KB;/ KB;/ KB;/ KB;/ KB;/ KB;/ KB;/ KB;/ KB;/ KB;/ KB;/ KB;/ KB;/ KB;/ KB;/ KB;/ KB;/ KB;/ KB;/ KB;/ KB;/ KB;/ KB;/ KB;/ KB;/ KB;/ KB;/ KB;/ KB;/ KB;/ KB/ KB/ KB/ KB/ KB/ KB/ KB/ KB/ KB/ KB/ KB/ KB/ B/ B/ B/ B/ B/ B/ B/ B/ B/ B/ B/ B/ NB/= NB/= NB/= NB/= NB/= NB/= NB/= NB/= NB/= NB/= NB/= NB/= NB/= NB/= NB/= NB/= NB/= NB/= NB/= NB/= NB/= NB/= NB/= NB/= NB/= NB/= NB/= NB/= NB/= NB/= NB/= NB/= NB/= NB/= NB/= NB/= NB/= NB/= NB/= NB/= NB/= NB/= NB/= NB/= NB/= NB/= NB/= NB/= B/= B/= B/= B/= B/= B/= B/= B/= B/= B/= B/= B/= BL/= BL/= BL/= BL/= BL/= BL/= BL/= BL/= BL/= BL/= BL/= BL/= L= L= L= L= L= L= L= L= L= L= L= L= L= L= L= L= L= L= L= L= L= L= L= L= L L L L L L L L L L L L             NG;? NG;? NG;? NG;? NG;? NG;? NG;? NG;? NG;? NG;? NG;? NG;? NG;? NG;? NG;? NG;? NG;? NG;? NG;? NG;? NG;? NG;? NG;? NG;? NG;? NG;? NG;? NG;? NG;? NG;? NG;? NG;? NG;? NG;? NG;? NG;? NG;? NG;? NG;? NG;? NG;? NG;? NG;? NG;? NG;? NG;? NG;? NG;? G;? G;? G;? G;? G;? G;? G;? G;? G;? G;? G;? G;? LG;? LG;? LG;? LG;? LG;? LG;? LG;? LG;? LG;? LG;? LG;? LG;? LG;? LG;? LG;? LG;? LG;? LG;? LG;? LG;? LG;? LG;? LG;? LG;? LG;? LG;? LG;? LG;? LG;? LG;? LG;? LG;? LG;? LG;? LG;? LG;? LG? LG? LG? LG? LG? LG? LG? LG? LG? LG? LG? LG? G? G? G? G? G? G? G? G? G? G? G? G? KG?9 KG?9 KG?9 KG?9 KG?9 KG?9 KG?9 KG?9 KG?9 KG?9 KG?9 KG?9 KG?9 KG?9 KG?9 KG?9 KG?9 KG?9 KG?9 KG?9 KG?9 KG?9 KG?9 KG?9 KG?9 KG?9 KG?9 KG?9 KG?9 KG?9 KG?9 KG?9 KG?9 KG?9 KG?9 KG?9 KG?9 KG?9 KG?9 KG?9 KG?9 KG?9 KG?9 KG?9 KG?9 KG?9 KG?9 KG?9 G?9 G?9 G?9 G?9 G?9 G?9 G?9 G?9 G?9 G?9 G?9 G?9 GI?9 GI?9 GI?9 GI?9 GI?9 GI?9 GI?9 GI?9 GI?9 GI?9 GI?9 GI?9 I9 I9 I9 I9 I9 I9 I9 I9 I9 I9 I9 I9 I9 I9 I9 I9 I9 I9 I9 I9 I9 I9 I9 I9 I I I I I I I I I I I I             G7 G7 G7 G7 G7 G7 G7 G7 G7 G7 G7 G7 G7 G7 G7 G7 G7 G7 G7 G7 G7 G7 G7 G7 G7 G7 G7 G7 G7 G7 G7 G7 G7 G7 G7 G7 G7 G7 G7 G7 G7 G7 G7 G7 G7 G7 G7 G7 G7 G7 G7 G7 G7 G7 G7 G7 G7 G7 G7 G7 G7 G7 G7 G7 G7 G7 G7 G7 G7 G7 G7 G7 G7 G7 G7 G7 G7 G7 G7 G7 G7 G7 G7 G7 G7 G7 G7 G7 G7 G7 G7 G7 G7 G7 G7 G7 G G G G G G G G G G G G G G G G G G G G G G G G G6 G6 G6 G6 G6 G6 G6 G6 G6 G6 G6 G6 G6 G6 G6 G6 G6 G6 G6 G6 G6 G6 G6 G6 G6 G6 G6 G6 G6 G6 G6 G6 G6 G6 G6 G6 G6 G6 G6 G6 G6 G6 G6 G6 G6 G6 G6 G6 G6 G6 G6 G6 G6 G6 G6 G6 G6 G6 G6 G6 G6 G6 G6 G6 G6 G6 G6 G6 G6 G6 G6 G6 6 6 6 6 6 6 6 6 6 6 6 6 6 6 6 6 6 6 6 6 6 6 6 6                         O4 O4 O4 O4 O4 O4 O4 O4 O4 O4 O4 O4 O4 O4 O4 O4 O4 O4 O4 O4 O4 O4 O4 O4 O4 O4 O4 O4 O4 O4 O4 O4 O4 O4 O4 O4 O4 O4 O4 O4 O4 O4 O4 O4 O4 O4 O4 O4 4 4 4 4 4 4 4 4 4 4 4 4 N4 N4 N4 N4 N4 N4 N4 N4 N4 N4 N4 N4 N4 N4 N4 N4 N4 N4 N4 N4 N4 N4 N4 N4 N4 N4 N4 N4 N4 N4 N4 N4 N4 N4 N4 N4 N4 N4 N4 N4 N4 N4 N4 N4 N4 N4 N4 N4 4 4 4 4 4 4 4 4 4 4 4 4 L4 L4 L4 L4 L4 L4 L4 L4 L4 L4 L4 L4 L4 L4 L4 L4 L4 L4 L4 L4 L4 L4 L4 L4 L4 L4 L4 L4 L4 L4 L4 L4 L4 L4 L4 L4 L4 L4 L4 L4 L4 L4 L4 L4 L4 L4 L4 L4 4 4 4 4 4 4 4 4 4 4 4 4 J4 J4 J4 J4 J4 J4 J4 J4 J4 J4 J4 J4 J J J J J J J J J J J J J J J J J J J J J J J J J J J J J J J J J J J J             H@ H@ H@ H@ H@ H@ H@ H@ H@ H@ H@ H@ H@ H@ H@ H@ H@ H@ H@ H@ H@ H@ H@ H@ H@ H@ H@ H@ H@ H@ H@ H@ H@ H@ H@ H@ H@ H@ H@ H@ H@ H@ H@ H@ H@ H@ H@ H@ @ @ @ @ @ @ @ @ @ @ @ @ G@ G@ G@ G@ G@ G@ G@ G@ G@ G@ G@ G@ G@ G@ G@ G@ G@ G@ G@ G@ G@ G@ G@ G@ G@ G@ G@ G@ G@ G@ G@ G@ G@ G@ G@ G@ G@ G@ G@ G@ G@ G@ G@ G@ G@ G@ G@ G@ @ @ @ @ @ @ @ @ @ @ @ @ F@ F@ F@ F@ F@ F@ F@ F@ F@ F@ F@ F@ F@ F@ F@ F@ F@ F@ F@ F@ F@ F@ F@ F@ F@ F@ F@ F@ F@ F@ F@ F@ F@ F@ F@ F@ F@ F@ F@ F@ F@ F@ F@ F@ F@ F@ F@ F@ @ @ @ @ @ @ @ @ @ @ @ @ G@ G@ G@ G@ G@ G@ G@ G@ G@ G@ G@ G@ G G G G G G G G G G G G G G G G G G G G G G G G G G G G G G G G G G G G             F F F F F F F F F F F F F F F F F F F F F F F F F F F F F F F F F F F F F F F F F F F F F F F F             I I I I I I I I I I I I I I I I I I I I I I I I I I I I I I I I I I I I I I I I I I I I I I I I             L4 L4 L4 L4 L4 L4 L4 L4 L4 L4 L4 L4 L4 L4 L4 L4 L4 L4 L4 L4 L4 L4 L4 L4 L4 L4 L4 L4 L4 L4 L4 L4 L4 L4 L4 L4 L4 L4 L4 L4 L4 L4 L4 L4 L4 L4 L4 L4 4 4 4 4 4 4 4 4 4 4 4 4 O4 O4 O4 O4 O4 O4 O4 O4 O4 O4 O4 O4 O4 O4 O4 O4 O4 O4 O4 O4 O4 O4 O4 O4 O4 O4 O4 O4 O4 O4 O4 O4 O4 O4 O4 O4 O O O O O O O O O O O O             N3 N3 N3 N3 N3 N3 N3 N3 N3 N3 N3 N3 N3 N3 N3 N3 N3 N3 N3 N3 N3 N3 N3 N3 N3 N3 N3 N3 N3 N3 N3 N3 N3 N3 N3 N3 N3 N3 N3 N3 N3 N3 N3 N3 N3 N3 N3 N3 3 3 3 3 3 3 3 3 3 3 3 3 L3 L3 L3 L3 L3 L3 L3 L3 L3 L3 L3 L3 L3 L3 L3 L3 L3 L3 L3 L3 L3 L3 L3 L3 L3 L3 L3 L3 L3 L3 L3 L3 L3 L3 L3 L3 L3 L3 L3 L3 L3 L3 L3 L3 L3 L3 L3 L3 3 3 3 3 3 3 3 3 3 3 3 3 K3 K3 K3 K3 K3 K3 K3 K3 K3 K3 K3 K3 K3 K3 K3 K3 K3 K3 K3 K3 K3 K3 K3 K3 K3 K3 K3 K3 K3 K3 K3 K3 K3 K3 K3 K3 K3 K3 K3 K3 K3 K3 K3 K3 K3 K3 K3 K3 3 3 3 3 3 3 3 3 3 3 3 3 I3 I3 I3 I3 I3 I3 I3 I3 I3 I3 I3 I3 I I I I I I I I I I I I I I I I I I I I I I I I I I I I I I I I I I I I             G? G? G? G? G? G? G? G? G? G? G? G? G? G? G? G? G? G? G? G? G? G? G? G? G? G? G? G? G? G? G? G? G? G? G? G? G? G? G? G? G? G? G? G? G? G? G? G? ? ? ? ? ? ? ? ? ? ? ? ? E? E? E? E? E? E? E? E? E? E? E? E? E? E? E? E? E? E? E? E? E? E? E? E? E? E? E? E? E? E? E? E? E? E? E? E? E? E? E? E? E? E? E? E? E? E? E? E? ? ? ? ? ? ? ? ? ? ? ? ? D? D? D? D? D? D? D? D? D? D? D? D? D? D? D? D? D? D? D? D? D? D? D? D? D? D? D? D? D? D? D? D? D? D? D? D? D? D? D? D? D? D? D? D? D? D? D? D? ? ? ? ? ? ? ? ? ? ? ? ? E? E? E? E? E? E? E? E? E? E? E? E? E E E E E E E E E E E E E E E E E E E E E E E E E E E E E E E E E E E E             D D D D D D D D D D D D D D D D D D D D D D D D D D D D D D D D D D D D D D D D D D D D D D D D             G G G G G G G G G G G G G G G G G G G G G G G G G G G G G G G G G G G G G G G G G G G G G G G G             J2 J2 J2 J2 J2 J2 J2 J2 J2 J2 J2 J2 J2 J2 J2 J2 J2 J2 J2 J2 J2 J2 J2 J2 J2 J2 J2 J2 J2 J2 J2 J2 J2 J2 J2 J2 J2 J2 J2 J2 J2 J2 J2 J2 J2 J2 J2 J2 2 2 2 2 2 2 2 2 2 2 2 2 M2 M2 M2 M2 M2 M2 M2 M2 M2 M2 M2 M2 M2 M2 M2 M2 M2 M2 M2 M2 M2 M2 M2 M2 M2 M2 M2 M2 M2 M2 M2 M2 M2 M2 M2 M2 M M M M M M M M M M M M             L0 L0 L0 L0 L0 L0 L0 L0 L0 L0 L0 L0 L0 L0 L0 L0 L0 L0 L0 L0 L0 L0 L0 L0 L0 L0 L0 L0 L0 L0 L0 L0 L0 L0 L0 L0 L0 L0 L0 L0 L0 L0 L0 L0 L0 L0 L0 L0 0 0 0 0 0 0 0 0 0 0 0 0 Q0 Q0 Q0 Q0 Q0 Q0 Q0 Q0 Q0 Q0 Q0 Q0 Q0 Q0 Q0 Q0 Q0 Q0 Q0 Q0 Q0 Q0 Q0 Q0 Q0 Q0 Q0 Q0 Q0 Q0 Q0 Q0 Q0 Q0 Q0 Q0 Q0 Q0 Q0 Q0 Q0 Q0 Q0 Q0 Q0 Q0 Q0 Q0 0 0 0 0 0 0 0 0 0 0 0 0 S0 S0 S0 S0 S0 S0 S0 S0 S0 S0 S0 S0 S0 S0 S0 S0 S0 S0 S0 S0 S0 S0 S0 S0 S0 S0 S0 S0 S0 S0 S0 S0 S0 S0 S0 S0 S0 S0 S0 S0 S0 S0 S0 S0 S0 S0 S0 S0 0 0 0 0 0 0 0 0 0 0 0 0 T0 T0 T0 T0 T0 T0 T0 T0 T0 T0 T0 T0 T T T T T T T T T T T T T T T T T T T T T T T T T T T T T T T T T T T T             S+ S+ S+ S+ S+ S+ S+ S+ S+ S+ S+ S+ S+ S+ S+ S+ S+ S+ S+ S+ S+ S+ S+ S+ S+ S+ S+ S+ S+ S+ S+ S+ S+ S+ S+ S+ S+ S+ S+ S+ S+ S+ S+ S+ S+ S+ S+ S+ + + + + + + + + + + + + Q+ Q+ Q+ Q+ Q+ Q+ Q+ Q+ Q+ Q+ Q+ Q+ Q+ Q+ Q+ Q+ Q+ Q+ Q+ Q+ Q+ Q+ Q+ Q+ Q+ Q+ Q+ Q+ Q+ Q+ Q+ Q+ Q+ Q+ Q+ Q+ Q+ Q+ Q+ Q+ Q+ Q+ Q+ Q+ Q+ Q+ Q+ Q+ + + + + + + + + + + + + T+ T+ T+ T+ T+ T+ T+ T+ T+ T+ T+ T+ T+ T+ T+ T+ T+ T+ T+ T+ T+ T+ T+ T+ T+ T+ T+ T+ T+ T+ T+ T+ T+ T+ T+ T+ T+ T+ T+ T+ T+ T+ T+ T+ T+ T+ T+ T+ + + + + + + + + + + + + S+ S+ S+ S+ S+ S+ S+ S+ S+ S+ S+ S+ S S S S S S S S S S S S S S S S S S S S S S S S S S S S S S S S S S S S             Q/ Q/ Q/ Q/ Q/ Q/ Q/ Q/ Q/ Q/ Q/ Q/ Q/ Q/ Q/ Q/ Q/ Q/ Q/ Q/ Q/ Q/ Q/ Q/ Q/ Q/ Q/ Q/ Q/ Q/ Q/ Q/ Q/ Q/ Q/ Q/ Q/ Q/ Q/ Q/ Q/ Q/ Q/ Q/ Q/ Q/ Q/ Q/ / / / / / / / / / / / / O/ O/ O/ O/ O/ O/ O/ O/ O/ O/ O/ O/ O/ O/ O/ O/ O/ O/ O/ O/ O/ O/ O/ O/ O/ O/ O/ O/ O/ O/ O/ O/ O/ O/ O/ O/ O/ O/ O/ O/ O/ O/ O/ O/ O/ O/ O/ O/ / / / / / / / / / / / / QGK/ QGK/ QGK/ QGK/ QGK/ QGK/ QGK/ QGK/ QGK/ QGK/ QGK/ QGK/ QGK/ QGK/ QGK/ QGK/ QGK/ QGK/ QGK/ QGK/ QGK/ QGK/ QGK/ QGK/ QGK/ QGK/ QGK/ QGK/ QGK/ QGK/ QGK/ QGK/ QGK/ QGK/ QGK/ QGK/ QGK/ QGK/ QGK/ QGK/ QGK/ QGK/ QGK/ QGK/ QGK/ QGK/ QGK/ QGK/ GK/ GK/ GK/ GK/ GK/ GK/ GK/ GK/ GK/ GK/ GK/ GK/ GKN/ GKN/ GKN/ GKN/ GKN/ GKN/ GKN/ GKN/ GKN/ GKN/ GKN/ GKN/ GKN GKN GKN GKN GKN GKN GKN GKN GKN GKN GKN GKN GKN GKN GKN GKN GKN GKN GKN GKN GKN GKN GKN GKN N N N N N N N N N N N N             NKG( NKG( NKG( NKG( NKG( NKG( NKG( NKG( NKG( NKG( NKG( NKG( NKG( NKG( NKG( NKG( NKG( NKG( NKG( NKG( NKG( NKG( NKG( NKG( NKG( NKG( NKG( NKG( NKG( NKG( NKG( NKG( NKG( NKG( NKG( NKG( NKG( NKG( NKG( NKG( NKG( NKG( NKG( NKG( NKG( NKG( NKG( NKG( NKG( NKG( NKG( NKG( NKG( NKG( NKG( NKG( NKG( NKG( NKG( NKG( G( G( G( G( G( G( G( G( G( G( G( G( G( G( G( G( G( G( G( G( G( G( G( G( G( G( G( G( G( G( G( G( G( G( G( G( G( G( G( G( G( G( G( G( G( G( G( G( G( G( G( G( G( G( G( G( G( G( G( G( GLO( GLO( GLO( GLO( GLO( GLO( GLO( GLO( GLO( GLO( GLO( GLO( GLO( GLO( GLO( GLO( GLO( GLO( GLO( GLO( GLO( GLO( GLO( GLO( GLO( GLO( GLO( GLO( GLO( GLO( GLO( GLO( GLO( GLO( GLO( GLO( GLO( GLO( GLO( GLO( GLO( GLO( GLO( GLO( GLO( GLO( GLO( GLO( GLO( GLO( GLO( GLO( GLO( GLO( GLO( GLO( GLO( GLO( GLO( GLO( GLO( GLO( GLO( GLO( GLO( GLO( GLO( GLO( GLO( GLO( GLO( GLO( LO LO LO LO LO LO LO LO LO LO LO LO LO LO LO LO LO LO LO LO LO LO LO LO LO LO LO LO LO LO LO LO LO LO LO LO LO LO LO LO LO        NCG+ NCG+ NCG+ NCG+ NCG+ NCG+ NCG+ NCG+ NCG+ NCG+ NCG+ NCG+ NCG+ NCG+ NCG+ NCG+ NCG+ NCG+ NCG+ NCG+ NCG+ NCG+ NCG+ NCG+ NCG+ NCG+ NCG+ NCG+ NCG+ NCG+ NCG+ NCG+ NCG+ NCG+ NCG+ NCG+ NCG+ NCG+ NCG+ NCG+ NCG+ NCG+ NCG+ NCG+ NCG+ NCG+ NCG+ NCG+ NCG+ NCG+ NCG+ NCG+ NCG+ NCG+ NCG+ NCG+ NCG+ CG+ CG+ CG+ CLG+ CLG+ CLG+ CLG+ CLG+ CLG+ CLG+ CLG+ CLG+ CLG+ CLG+ CLG+ CLG+ CLG+ CLG+ CLG+ CLG+ CLG+ CLG+ CLG+ CLG+ CLG+ CLG+ CLG+ CLG+ CLG+ CLG+ CLG+ CLG+ CLG+ CLG+ CLG+ CLG+ CLG+ CLG+ CLG+ CLG+ CLG+ CLG+ CLG+ CLG+ CLG+ CLG+ CLG+ CLG+ CLG+ CLG+ CLG+ CLG+ CLG+ CLG+ CLG+ CLG+ CLG+ CLG+ CLG+ CLG+ CLG+ CLG+ CLG+ CLG+ CLG+ CLG+ CLG+ CLG+ CLG+ CLG+ CLG+ CLG+ CLG+ CLG+ CLG+ CLG+ CLG+ CLG+ CLG+ CLG+ CLG+ CLG+ CLG+ CLG+ CLG+ CLG+ CLG+ CLG+ CLG+ CLG+ CLG+ CLG+ CLG+ CLG+ CLG+ CLG+ CLG+ CLG+ CLG+ CLG+ CLG+ CLG+ CLG+ CLG+ CLG+ CLG+ CLG+ CLG+ CLG+ CLG+ CLG+ CLG+ CLG+ CLG+ CLG+ CLG+ CLG+ CLG+ CLG+ CLG+ CLG+ CLG+ CLG+ CLG+ CLG+ CLG+ CLG+ CLG+ CLG+ CLG+ CLG+ CLG+ CLG+ CLG+ CLG+ CLG CLG CLG CLG CLG CLG CLG CLG CLG CLG CLG CLG CLG CLG CLG CLG CLG CLG CLG CLG CLG CLG CLG CLG CLG CLG CLG CLG CLG CLG CLG CLG CLG CLG CLG CLG CLG CLG CLG CLG CLG CLG CLG CLG CLG CLG CLG CLG CLG/ CLG/ CLG/ CLG/ CLG/ CLG/ CLG/ CLG/ CLG/ CLG/ CLG/ CLG/ CLG/ CLG/ CLG/ CLG/ CLG/ CLG/ CLG/ CLG/ CLG/ CLG/ CLG/ CLG/ CLG/ CLG/ CLG/ CLG/ CLG/ CLG/ CLG/ CLG/ CLG/ CLG/ CLG/ CLG/ CLG/ CLG/ CLG/ CLG/ CLG/ CLG/ CLG/ CLG/ CLG/ CLG/ CLG/ CLG/ CLG/ CLG/ CLG/ CLG/ CLG/ CLG/ CLG/ CLG/ CLG/ CLG/ CLG/ CLG/ CLG/ CLG/ CLG/ CLG/ CLG/ CLG/ CLG/ CLG/ CLG/ CLG/ CLG/ CLG/ CLG/ CLG/ CLG/ CLG/ CLG/ CLG/ CLG/ CLG/ CLG/ CLG/ CLG/ CLG/ CLG/ CLG/ CLG/ CLG/ CLG/ CLG/ CLG/ CLG/ CLG/ CLG/ CLG/ CLG/ CLG/ CLG/ CLG/ CLG/ CLG/ CLG/ CLG/ CLG/ CLG/ CLG/ CLG/ CLG/ CLG/ CLG/ CLG/ CLG/ CLG/ CLG/ CLG/ CLG/ CLG/ CLG/ CLG/ CLG/ CLG/ CLG/ CLG/ CLG/ CLG/ CLG/ CLG/ CLG/ CLG/ CLG/ CLG/ CLG/ CLG/ CLG/ CLG/ CLG/ CLG/ CLG/ CLG/ CLG/ CLG/ CLG/ CLG/ CLG/ LG/ LG/ LG/ LG/ LG/ LG/ LG/ LG/ LG/ LG/ LG/ LG/ G/ G/ G/ G/ G/ G/ G/ G/ G/ G/ G/ G/ G/ G/ G/ G/ G/ G/ G/ G/ G/ G/ G/ G/ G/ G/ G/ G/ G/ G/ G/ G/ G/ G/ G/ G/ G G G G G G G G G G G G G G G G G G                               O4 O4 O4 O4 O4 O4 O4 O4 O4 O4 O4 O4 O4 O4 O4 O4 O4 O4 O4 O4 O4 O4 O4 O4 O4 O4 O4 O4 O4 O4 O4 O4 O4 O4 O4 O4 O4 O4 O4 O4 O4 O4 O4 O4 O4 O4 O4 O4 O4 O4 O4 O4 O4 O4 O4 O4 O4 O4 O4 O4 O4 O4 O4 O4 O4 O4 O4 O4 O4 O4 O4 O4 O4 O4 O4 O4 O4 O4 O4 O4 O4 O4 O4 O4 O4 O4 O4 O4 O4 O4 O4 O4 O4 O4 O4 O4 4 4 4 4 4 4 4 4 4 4 4 4 4 4 4 4 4 4 4 4 4 4 4 4 4 4 4 4 4 4 4 4 4 4 4 4 4 4 4 4 4 4 4 4 4 4 4 4 4 4 4 4 4 4 4 4 4 4 4 4 4 4 4 4 4 4 4 4 4 4 4 4 4 4 4 4 4 4 4 4 4 4 4 4 Q4 Q4 Q4 Q4 Q4 Q4 Q4 Q4 Q4 Q4 Q4 Q4 Q Q Q Q Q Q Q Q Q Q Q Q Q Q Q Q Q  R R R R R R R R R R R R R R R R R R R R R R R R       Q5 Q5 Q5 Q5 Q5 Q5 Q5 Q5 Q5 Q5 Q5 Q5 Q5 Q5 Q5 Q5 Q5 Q5 Q5 Q5 Q5 Q5 Q5 Q5 Q5 Q5 Q5 Q5 Q5 Q5 Q5 Q5 Q5 Q5 Q5 Q5 Q5 Q5 Q5 Q5 Q5 Q5 Q5 Q5 Q5 Q5 Q5 Q5 5 5 5 5 5 5 5 5 5 5 5 5 O5 O5 O5 O5 O5 O5 O5 O5 O5 O5 O5 O5 O5 O5 O5 O5 O5 O5 O5 O5 O5 O5 O5 O5 O5 O5 O5 O5 O5 O5 O5 O5 O5 O5 O5 O5 O5 O5 O5 O5 O5 O5 O5 O5 O5 O5 O5 O5 O5 O5 O5 O5 O5 O5 O5 O5 O5 O5 O5 O5 MO5 MO5 MO5 MO5 MO5 MO5 MO5 MO5 MO5 MO5 MO5 MO5 MO5 MO5 MO5 MO5 MO5 MO5 MO5 MO5 MO5 MO5 MO5 MO5 MO5 MO5 MO5 MO5 MO5 MO5 MO5 MO5 MO5 MO5 MO5 MO5 MO5 MO5 MO5 MO5 MO5 MO5 MO5 MO5 MO5 MO5 MO5 MO5 MO5 MO5 MO5 MO5 MO5 MO5 MO5 MO5 MO5 MO5 MO5 MO5 MO5 MO5 MO5 MO5 MO5 MO5 MO5 MO5 MO5 MO5 MO5 MO5 MO MO MO MO MO MO MO MO MO MO MO MO MO MO MO MO MO MO MO MO MO MO MO MO O O O O O O O O O O O O O O O O O O O O O O O O LO7 LO7 LO7 LO7 LO7 LO7 LO7 LO7 LO7 LO7 LO7 LO7 LO7 LO7 LO7 LO7 LO7 LO7 LO7 LO7 LO7 LO7 LO7 LO7 LO7 LO7 LO7 LO7 LO7 LO7 LO7 LO7 LO7 LO7 LO7 LO7 LO7 LO7 LO7 LO7 LO7 LO7 LO7 LO7 LO7 LO7 LO7 LO7 LO7 LO7 LO7 LO7 LO7 LO7 LO7 LO7 LO7 LO7 LO7 LO7 LO7 LO7 LO7 LO7 LO7 LO7 LO7 LO7 LO7 LO7 LO7 LO7 LO7 LO7 LO7 LO7 LO7 LO7 LO7 LO7 LO7 LO7 LO7 LO7 LO7 LO7 LO7 LO7 LO7 LO7 LO7 LO7 LO7 LO7 LO7 LO7 O7 O7 O7 O7 O7 O7 O7 O7 O7 O7 O7 O7 O7 O7 O7 O7 O7 O7 O7 O7 O7 O7 O7 O7 OJ7 OJ7 OJ7 OJ7 OJ7 OJ7 OJ7 OJ7 OJ7 OJ7 OJ7 OJ7 OJ7 OJ7 OJ7 OJ7 OJ7 OJ7 OJ7 OJ7 OJ7 OJ7 OJ7 OJ7 OJ7 OJ7 OJ7 OJ7 OJ7 OJ7 OJ7 OJ7 OJ7 OJ7 OJ7 OJ7 J7 J7 J7 J7 J7 J7 J7 J7 J7 J7 J7 J7 J7 J7 J7 J7 J7 J7 J7 J7 J7 J7 J7 J7 J7 J7 J7 J7 J7 J7 J7 J7 J7 J7 J7 J7 J J J J J J J J J J J J J J J J J J J J J J J J                         OI9 OI9 OI9 OI9 OI9 OI9 OI9 OI9 OI9 OI9 OI9 OI9 OI9 OI9 OI9 OI9 OI9 OI9 OI9 OI9 OI9 OI9 OI9 OI9 OI9 OI9 OI9 OI9 OI9 OI9 OI9 OI9 OI9 OI9 OI9 OI9 OI9 OI9 OI9 OI9 OI9 OI9 OI9 OI9 OI9 OI9 OI9 OI9 I9 I9 I9 I9 I9 I9 I9 I9 I9 I9 I9 I9 LI9 LI9 LI9 LI9 LI9 LI9 LI9 LI9 LI9 LI9 LI9 LI9 LI9 LI9 LI9 LI9 LI9 LI9 LI9 LI9 LI9 LI9 LI9 LI9 LI9 LI9 LI9 LI9 LI9 LI9 LI9 LI9 LI9 LI9 LI9 LI9 LI9 LI9 LI9 LI9 LI9 LI9 LI9 LI9 LI9 LI9 LI9 LI9 I9 I9 I9 I9 I9 I9 I9 I9 I9 I9 I9 I9 OIF9 OIF9 OIF9 OIF9 OIF9 OIF9 OIF9 OIF9 OIF9 OIF9 OIF9 OIF9 OIF9 OIF9 OIF9 OIF9 OIF9 OIF9 OIF9 OIF9 OIF9 OIF9 OIF9 OIF9 OIF9 OIF9 OIF9 OIF9 OIF9 OIF9 OIF9 OIF9 OIF9 OIF9 OIF9 OIF9 OIF9 OIF9 OIF9 OIF9 OIF9 OIF9 OIF9 OIF9 OIF9 OIF9 OIF9 OIF9 IF9 IF9 IF9 IF9 IF9 IF9 IF9 IF9 IF9 IF9 IF9 IF9 IFM9 IFM9 IFM9 IFM9 IFM9 IFM9 IFM9 IFM9 IFM9 IFM9 IFM9 IFM9 FM FM FM FM FM FM FM FM FM FM FM FM FM FM FM FM FM FM FM FM FM FM FM FM M M M M M M M M M M M M             MEI MEI MEI MEI MEI MEI MEI MEI MEI MEI MEI MEI MEI MEI MEI MEI MEI MEI MEI MEI MEI MEI MEI MEI MEI MEI MEI MEI MEI MEI MEI MEI MEI MEI MEI MEI MEI MEI MEI MEI MEI MEI MEI MEI MEI MEI MEI MEI EI EI EI EI EI EI EI EI EI EI EI EI EIO EIO EIO EIO EIO EIO EIO EIO EIO EIO EIO EIO EIO EIO EIO EIO EIO EIO EIO EIO EIO EIO EIO EIO EIO EIO EIO EIO EIO EIO EIO EIO EIO EIO EIO EIO IO IO IO IO IO IO IO IO IO IO IO IO IO IO IO IO IO IO IO IO IO IO IO IO CIO CIO CIO CIO CIO CIO CIO CIO CIO CIO CIO CIO CIO CIO CIO CIO CIO CIO CIO CIO CIO CIO CIO CIO CIO CIO CIO CIO CIO CIO CIO CIO CIO CIO CIO CIO CIO CIO CIO CIO CIO CIO CIO CIO CIO CIO CIO CIO CIO CIO CIO CIO CIO CIO CIO CIO CIO CIO CIO CIO CIO CIO CIO CIO CIO CIO CIO CIO CIO CIO CIO CIO CIO CIO CIO CIO CIO CIO CIO CIO CIO CIO CIO CIO CIO CIO CIO CIO CIO CIO CIO CIO CIO CIO CIO CIO IO IO IO IO IO IO IO IO IO IO IO IO IO IO IO IO IO IO IO IO IO IO IO IO AIO AIO AIO AIO AIO AIO AIO AIO AIO AIO AIO AIO AIO AIO AIO AIO AIO AIO AIO AIO AIO AIO AIO AIO AIO AIO AIO AIO AIO AIO AIO AIO AIO AIO AIO AIO AIO AIO AIO AIO AIO AIO AIO AIO AIO AIO AIO AIO AIO AIO AIO AIO AIO AIO AIO AIO AIO AIO AIO AIO AIO AIO AIO AIO AIO AIO AIO AIO AIO AIO AIO AIO AIO AIO AIO AIO AIO AIO AIO AIO AIO AIO AIO AIO AIO AIO AIO AIO AIO AIO AIO AIO AIO AIO AIO AIO IO IO IO IO IO IO IO IO IO IO IO IO IO IO IO IO IO IO IO IO IO IO IO IO IO@ IO@ IO@ IO@ IO@ IO@ IO@ IO@ IO@ IO@ IO@ IO@ IO@ IO@ IO@ IO@ IO@ IO@ IO@ IO@ IO@ IO@ IO@ IO@ O@ O@ O@ O@ O@ O@ O@ O@ O@ O@ O@ O@ @ @ @ @ @ @ @ @ @ @ @ @ @ @ @ @ @ @ @ @ @ @ @ @ @ @ @ @ @ @ @ @ @ @ @ @ @ @ @ @ @ @ @ @ @ @ @ @ @ @ @ @ @ @ @ @ @ @ @ @                         M>2 M>2 M>2 M>2 M>2 M>2 M>2 M>2 M>2 M>2 M>2 M>2 M>2 M>2 M>2 M>2 M>2 M>2 M>2 M>2 M>2 M>2 M>2 M>2 M>2 M>2 M>2 M>2 M>2 M>2 M>2 M>2 M>2 M>2 M>2 M>2 M>2 M>2 M>2 M>2 M>2 M>2 M>2 M>2 M>2 M>2 M>2 M>2 M>2 M>2 M>2 M>2 M>2 M>2 M>2 M>2 M>2 M>2 M>2 M>2 M>2 M>2 M>2 M>2 M>2 M>2 M>2 M>2 M>2 M>2 M>2 M>2 M>2 M>2 M>2 M>2 M>2 M>2 M>2 M>2 M>2 M>2 M>2 M>2 M>2 M>2 M>2 M>2 M>2 M>2 M>2 M>2 M>2 M>2 M>2 M>2 >2 >2 >2 >2 >2 >2 >2 >2 >2 >2 >2 >2 >2 >2 >2 >2 >2 >2 >2 >2 >2 >2 >2 >2 >2 >2 >2 >2 >2 >2 >2 >2 >2 >2 >2 >2 >2 >2 >2 >2 >2 >2 >2 >2 >2 >2 >2 >2 >2 >2 >2 >2 >2 >2 >2 >2 >2 >2 >2 >2 >2 >2 >2 >2 >2 >2 >2 >2 >2 >2 >2 >2 >2 >2 >2 >2 >2 >2 >2 >2 >2 >2 >2 >2 O>2 O>2 O>2 O>2 O>2 O>2 O>2 O>2 O>2 O>2 O>2 O>2 O O O O O O O O O O O O O O O O O  Q Q Q Q Q Q Q Q Q Q Q Q Q Q Q Q Q Q Q Q Q Q Q Q       O4 O4 O4 O4 O4 O4 O4 O4 O4 O4 O4 O4 O4 O4 O4 4 4 4 4 4 4 4 4 4 4 4 4 4 4 4 4 4 4 4 4 4 4 4 4 4 4 4 4 4 4 4 4 4 4 4 4 4 4 4 4 4 4 4 4 4 M4 M4 M4 M4 M4 M4 M4 M4 M4 M4 M4 M4 M4 M4 M4 M4 M4 M4 M4 M4 M4 M4 M4 M4 M4 M4 M4 M4 M4 M4 M4 M4 M4 M4 M4 M4 M4 M4 M4 M4 M4 M4 M4 M4 M4 M4 M4 M4 M4 M4 M4 M4 M4 M4 M4 M4 M4 M4 M4 M4 LM4 LM4 LM4 LM4 LM4 LM4 LM4 LM4 LM4 LM4 LM4 LM4 LM4 LM4 LM4 LM4 LM4 LM4 LM4 LM4 LM4 LM4 LM4 LM4 LM4 LM4 LM4 LM4 LM4 LM4 LM4 LM4 LM4 LM4 LM4 LM4 LM4 LM4 LM4 LM4 LM4 LM4 LM4 LM4 LM4 LM4 LM4 LM4 LM4 LM4 LM4 LM4 LM4 LM4 LM4 LM4 LM4 LM4 LM4 LM4 LM4 LM4 LM4 LM4 LM4 LM4 LM4 LM4 LM4 LM4 LM4 LM4 LM LM LM LM LM LM LM LM LM LM LM LM LM LM LM LM LM LM LM LM LM LM LM LM M M M M M M M M M M M M M M M M M M M M M M M M JM5 JM5 JM5 JM5 JM5 JM5 JM5 JM5 JM5 JM5 JM5 JM5 JM5 JM5 JM5 JM5 JM5 JM5 JM5 JM5 JM5 JM5 JM5 JM5 JM5 JM5 JM5 JM5 JM5 JM5 JM5 JM5 JM5 JM5 JM5 JM5 JM5 JM5 JM5 JM5 JM5 JM5 JM5 JM5 JM5 JM5 JM5 JM5 JM5 JM5 JM5 JM5 JM5 JM5 JM5 JM5 JM5 JM5 JM5 JM5 JM5 JM5 JM5 JM5 JM5 JM5 JM5 JM5 JM5 JM5 JM5 JM5 JM5 JM5 JM5 JM5 JM5 JM5 JM5 JM5 JM5 JM5 JM5 JM5 JM5 JM5 JM5 JM5 JM5 JM5 JM5 JM5 JM5 JM5 JM5 JM5 M5 M5 M5 M5 M5 M5 M5 M5 M5 M5 M5 M5 M5 M5 M5 M5 M5 M5 M5 M5 M5 M5 M5 M5 MH5 MH5 MH5 MH5 MH5 MH5 MH5 MH5 MH5 MH5 MH5 MH5 MH5 MH5 MH5 MH5 MH5 MH5 MH5 MH5 MH5 MH5 MH5 MH5 MH5 MH5 MH5 MH5 MH5 MH5 MH5 MH5 MH5 MH5 MH5 MH5 H5 H5 H5 H5 H5 H5 H5 H5 H5 H5 H5 H5 H5 H5 H5 H5 H5 H5 H5 H5 H5 H5 H5 H5 H5 H5 H5 H5 H5 H5 H5 H5 H5 H5 H5 H5 H H H H H H H H H H H H H H H H H H H H H H H H                         MG7 MG7 MG7 MG7 MG7 MG7 MG7 MG7 MG7 MG7 MG7 MG7 MG7 MG7 MG7 MG7 MG7 MG7 MG7 MG7 MG7 MG7 MG7 MG7 MG7 MG7 MG7 MG7 MG7 MG7 MG7 MG7 MG7 MG7 MG7 MG7 MG7 MG7 MG7 MG7 MG7 MG7 MG7 MG7 MG7 MG7 MG7 MG7 G7 G7 G7 G7 G7 G7 G7 G7 G7 G7 G7 G7 LG7 LG7 LG7 LG7 LG7 LG7 LG7 LG7 LG7 LG7 LG7 LG7 LG7 LG7 LG7 LG7 LG7 LG7 LG7 LG7 LG7 LG7 LG7 LG7 LG7 LG7 LG7 LG7 LG7 LG7 LG7 LG7 LG7 LG7 LG7 LG7 LG7 LG7 LG7 LG7 LG7 LG7 LG7 LG7 LG7 LG7 LG7 LG7 G7 G7 G7 G7 G7 G7 G7 G7 G7 G7 G7 G7 JGE7 JGE7 JGE7 JGE7 JGE7 JGE7 JGE7 JGE7 JGE7 JGE7 JGE7 JGE7 JGE7 JGE7 JGE7 JGE7 JGE7 JGE7 JGE7 JGE7 JGE7 JGE7 JGE7 JGE7 JGE7 JGE7 JGE7 JGE7 JGE7 JGE7 JGE7 JGE7 JGE7 JGE7 JGE7 JGE7 JGE7 JGE7 JGE7 JGE7 JGE7 JGE7 JGE7 JGE7 JGE7 JGE7 JGE7 JGE7 GE7 GE7 GE7 GE7 GE7 GE7 GE7 GE7 GE7 GE7 GE7 GE7 GME7 GME7 GME7 GME7 GME7 GME7 GME7 GME7 GME7 GME7 GME7 GME7 ME ME ME ME ME ME ME ME ME ME ME ME E E E E E E EL EL EL EL EL EL L L L L L L L L L L L L L L L L L L       LCG LCG LCG LCG LCG LCG LCG LCG LCG LCG LCG LCG LCG LCG LCG LCG LCG LCG LCG LCG LCG LCG LCG LCG LCG LCG LCG LCG LCG LCG LCG LCG LCG LCG LCG LCG LCG LCG LCG LCG LCG LCG LCG LCG LCG LCG LCG LCG CG CG CG CG CG CG CG CG CG CG CG CG CGM CGM CGM CGM CGM CGM CGM CGM CGM CGM CGM CGM CGM CGM CGM CGM CGM CGM CGM CGM CGM CGM CGM CGM CGM CGM CGM CGM CGM CGM CGM CGM CGM CGM CGM CGM GM GM GM GM GM GM GM GM GM GM GM GM GM GM GM GM GM GM GM GM GM GM GM GM AGM AGM AGM AGM AGM AGM AGM AGM AGM AGM AGM AGM AGM AGM AGM AGM AGM AGM AGM AGM AGM AGM AGM AGM AGM AGM AGM AGM AGM AGM AGM AGM AGM AGM AGM AGM AGM AGM AGM AGM AGM AGM AGM AGM AGM AGM AGM AGM AGM AGM AGM AGM AGM AGM AGM AGM AGM AGM AGM AGM AGM AGM AGM AGM AGM AGM AGM AGM AGM AGM AGM AGM AGM AGM AGM AGM AGM AGM AGM AGM AGM AGM AGM AGM AGM AGM AGM AGM AGM AGM AGM AGM AGM AGM AGM AGM GM GM GM GM GM GM GM GM GM GM GM GM GM GM GM GM GM GM GM GM GM GM GM GM @GM @GM @GM @GM @GM @GM @GM @GM @GM @GM @GM @GM @GM @GM @GM @GM @GM @GM @GM @GM @GM @GM @GM @GM @GM @GM @GM @GM @GM @GM @GM @GM @GM @GM @GM @GM @GM @GM @GM @GM @GM @GM @GM @GM @GM @GM @GM @GM @GM @GM @GM @GM @GM @GM @GM @GM @GM @GM @GM @GM @GM @GM @GM @GM @GM @GM @GM @GM @GM @GM @GM @GM @GM @GM @GM @GM @GM @GM @GM @GM @GM @GM @GM @GM @GM @GM @GM @GM @GM @GM @GM @GM @GM @GM @GM @GM GM GM GM GM GM GM GM GM GM GM GM GM GM GM GM GM GM GM GM GM GM GM GM GM GM> GM> GM> GM> GM> GM> GM> GM> GM> GM> GM> GM> GM> GM> GM> GM> GM> GM> GM> GM> GM> GM> GM> GM> M> M> M> M> M> M> M> M> M> M> M> M> > > > > > > > > > > > > > > > > > > > > > > > > > > > > > > > > > > > > > > > > > > > > > > > > > > > > > > > > > > > >                         L< L< L< L< L< L< L< L< L< L< L< L< L< L< L< L< L< L< L< L< L< L< L< L< L< L< L< L< L< L< L< L< L< L< L< L< L< L< L< L< L< L< L< L< L< L< L< L< < < < < < < < < < < < < J< J< J< J< J< J< J< J< J< J< J< J< J< J< J< J< J< J< J< J< J< J< J< J< J< J< J< J< J< J< J< J< J< J< J< J< J J J J J J J J J J J J             J; J; J; J; J; J; J; J; J; J; J; J; J; J; J; J; J; J; J; J; J; J; J; J; J; J; J; J; J; J; J; J; J; J; J; J; J; J; J; J; J; J; J; J; J; J; J; J; ; ; ; ; ; ; ; ; ; ; ; ; H; H; H; H; H; H; H; H; H; H; H; H; H; H; H; H; H; H; H; H; H; H; H; H; H; H; H; H; H; H; H; H; H; H; H; H; H H H H H H H H H H H H             H9 H9 H9 H9 H9 H9 H9 H9 H9 H9 H9 H9 H9 H9 H9 H9 H9 H9 H9 H9 H9 H9 H9 H9 H9 H9 H9 H9 H9 H9 H9 H9 H9 H9 H9 H9 H9 H9 H9 H9 H9 H9 H9 H9 H9 H9 H9 H9 9 9 9 9 9 9 9 9 9 9 9 9 M9 M9 M9 M9 M9 M9 M9 M9 M9 M9 M9 M9 M9 M9 M9 M9 M9 M9 M9 M9 M9 M9 M9 M9 M9 M9 M9 M9 M9 M9 M9 M9 M9 M9 M9 M9 M M M M M M M M M M M M             M7 M7 M7 M7 M7 M7 M7 M7 M7 M7 M7 M7 M7 M7 M7 M7 M7 M7 M7 M7 M7 M7 M7 M7 M7 M7 M7 M7 M7 M7 M7 M7 M7 M7 M7 M7 M7 M7 M7 M7 M7 M7 M7 M7 M7 M7 M7 M7 7 7 7 7 7 7 7 7 7 7 7 7 L7 L7 L7 L7 L7 L7 L7 L7 L7 L7 L7 L7 L7 L7 L7 L7 L7 L7 L7 L7 L7 L7 L7 L7 L7 L7 L7 L7 L7 L7 L7 L7 L7 L7 L7 L7 L L L L L L L L L L L L             L5 L5 L5 L5 L5 L5 L5 L5 L5 L5 L5 L5 L5 L5 L5 L5 L5 L5 L5 L5 L5 L5 L5 L5 L5 L5 L5 L5 L5 L5 L5 L5 L5 L5 L5 L5 L5 L5 L5 L5 L5 L5 L5 L5 L5 L5 L5 L5 5 5 5 5 5 5 5 5 5 5 5 5 Q5 Q5 Q5 Q5 Q5 Q5 Q5 Q5 Q5 Q5 Q5 Q5 Q5 Q5 Q5 Q5 Q5 Q5 Q5 Q5 Q5 Q5 Q5 Q5 Q5 Q5 Q5 Q5 Q5 Q5 Q5 Q5 Q5 Q5 Q5 Q5 Q Q Q Q Q Q Q Q Q Q Q Q             QH4 QH4 QH4 QH4 QH4 QH4 QH4 QH4 QH4 QH4 QH4 QH4 QH4 QH4 QH4 QH4 QH4 QH4 QH4 QH4 QH4 QH4 QH4 QH4 QH4 QH4 QH4 QH4 QH4 QH4 QH4 QH4 QH4 QH4 QH4 QH4 QH4 QH4 QH4 QH4 QH4 QH4 QH4 QH4 QH4 QH4 QH4 QH4 H4 H4 H4 H4 H4 H4 H4 H4 H4 H4 H4 H4 HO4 HO4 HO4 HO4 HO4 HO4 HO4 HO4 HO4 HO4 HO4 HO4 HO4 HO4 HO4 HO4 HO4 HO4 HO4 HO4 HO4 HO4 HO4 HO4 HO4 HO4 HO4 HO4 HO4 HO4 HO4 HO4 HO4 HO4 HO4 HO4 O O O O O O O O O O O O             OM2 OM2 OM2 OM2 OM2 OM2 OM2 OM2 OM2 OM2 OM2 OM2 OM2 OM2 OM2 OM2 OM2 OM2 OM2 OM2 OM2 OM2 OM2 OM2 OM2 OM2 OM2 OM2 OM2 OM2 OM2 OM2 OM2 OM2 OM2 OM2 OM2 OM2 OM2 OM2 OM2 OM2 OM2 OM2 OM2 OM2 OM2 OM2 M2 M2 M2 M2 M2 M2 M2 M2 M2 M2 M2 M2 MR2 MR2 MR2 MR2 MR2 MR2 MR2 MR2 MR2 MR2 MR2 MR2 MR2 MR2 MR2 MR2 MR2 MR2 MR2 MR2 MR2 MR2 MR2 MR2 MR2 MR2 MR2 MR2 MR2 MR2 MR2 MR2 MR2 MR2 MR2 MR2 R R R R R R R R R R R R             RL0 RL0 RL0 RL0 RL0 RL0 RL0 RL0 RL0 RL0 RL0 RL0 RL0 RL0 RL0 RL0 RL0 RL0 RL0 RL0 RL0 RL0 RL0 RL0 RL0 RL0 RL0 RL0 RL0 RL0 RL0 RL0 RL0 RL0 RL0 RL0 RL0 RL0 RL0 RL0 RL0 RL0 RL0 RL0 RL0 RL0 RL0 RL0 L0 L0 L0 L0 L0 L0 L0 L0 L0 L0 L0 L0 LQ0 LQ0 LQ0 LQ0 LQ0 LQ0 LQ0 LQ0 LQ0 LQ0 LQ0 LQ0 LQ0 LQ0 LQ0 LQ0 LQ0 LQ0 LQ0 LQ0 LQ0 LQ0 LQ0 LQ0 LQ0 LQ0 LQ0 LQ0 LQ0 LQ0 LQ0 LQ0 LQ0 LQ0 LQ0 LQ0 Q Q Q Q Q Q Q Q Q Q Q Q             QJ/ QJ/ QJ/ QJ/ QJ/ QJ/ QJ/ QJ/ QJ/ QJ/ QJ/ QJ/ QJ/ QJ/ QJ/ QJ/ QJ/ QJ/ QJ/ QJ/ QJ/ QJ/ QJ/ QJ/ QJ/ QJ/ QJ/ QJ/ QJ/ QJ/ QJ/ QJ/ QJ/ QJ/ QJ/ QJ/ QJ/ QJ/ QJ/ QJ/ QJ/ QJ/ QJ/ QJ/ QJ/ QJ/ QJ/ QJ/ J/ J/ J/ J/ J/ J/ J/ J/ J/ J/ J/ J/ JP/ JP/ JP/ JP/ JP/ JP/ JP/ JP/ JP/ JP/ JP/ JP/ JP/ JP/ JP/ JP/ JP/ JP/ JP/ JP/ JP/ JP/ JP/ JP/ JP/ JP/ JP/ JP/ JP/ JP/ JP/ JP/ JP/ JP/ JP/ JP/ P P P P P P P P P P P P             PH- PH- PH- PH- PH- PH- PH- PH- PH- PH- PH- PH- PH- PH- PH- PH- PH- PH- PH- PH- PH- PH- PH- PH- PH- PH- PH- PH- PH- PH- PH- PH- PH- PH- PH- PH- PH- PH- PH- PH- PH- PH- PH- PH- PH- PH- PH- PH- H- H- H- H- H- H- H- H- H- H- H- H- HQ- HQ- HQ- HQ- HQ- HQ- HQ- HQ- HQ- HQ- HQ- HQ- HQ- HQ- HQ- HQ- HQ- HQ- HQ- HQ- HQ- HQ- HQ- HQ- HQ- HQ- HQ- HQ- HQ- HQ- HQ- HQ- HQ- HQ- HQ- HQ- Q Q Q Q Q Q Q Q Q Q Q Q             QG, QG, QG, QG, QG, QG, QG, QG, QG, QG, QG, QG, QG, QG, QG, QG, QG, QG, QG, QG, QG, QG, QG, QG, QG, QG, QG, QG, QG, QG, QG, QG, QG, QG, QG, QG, QG, QG, QG, QG, QG, QG, QG, QG, QG, QG, QG, QG, G, G, G, G, G, G, G, G, G, G, G, G, GM, GM, GM, GM, GM, GM, GM, GM, GM, GM, GM, GM, GM, GM, GM, GM, GM, GM, GM, GM, GM, GM, GM, GM, GM, GM, GM, GM, GM, GM, GM, GM, GM, GM, GM, GM, M M M M M M M M M M M M             MH- MH- MH- MH- MH- MH- MH- MH- MH- MH- MH- MH- MH- MH- MH- MH- MH- MH- MH- MH- MH- MH- MH- MH- MH- MH- MH- MH- MH- MH- MH- MH- MH- MH- MH- MH- MH- MH- MH- MH- MH- MH- MH- MH- MH- MH- MH- MH- H- H- H- H- H- H- H- H- H- H- H- H- HL- HL- HL- HL- HL- HL- HL- HL- HL- HL- HL- HL- HL- HL- HL- HL- HL- HL- HL- HL- HL- HL- HL- HL- HL- HL- HL- HL- HL- HL- HL- HL- HL- HL- HL- HL- L L L L L L L L L L L L             LE* LE* LE* LE* LE* LE* LE* LE* LE* LE* LE* LE* LE* LE* LE* LE* LE* LE* LE* LE* LE* LE* LE* LE* LE* LE* LE* LE* LE* LE* LE* LE* LE* LE* LE* LE* LE* LE* LE* LE* LE* LE* LE* LE* LE* LE* LE* LE* E* E* E* E* E* E* E* E* E* E* E* E* KE* KE* KE* KE* KE* KE* KE* KE* KE* KE* KE* KE* KE* KE* KE* KE* KE* KE* KE* KE* KE* KE* KE* KE* KE* KE* KE* KE* KE* KE* KE* KE* KE* KE* KE* KE* KE* KE* KE* KE* KE* KE* KE* KE* KE* KE* KE* KE* E* E* E* E* E* E* E* E* E* E* E* E* KE* KE* KE* KE* KE* KE* KE* KE* KE* KE* KE* KE* KE* KE* KE* KE* KE* KE* KE* KE* KE* KE* KE* KE* KE* KE* KE* KE* KE* KE* KE* KE* KE* KE* KE* KE* KE* KE* KE* KE* KE* KE* KE* KE* KE* KE* KE* KE* E* E* E* E* E* E* E* E* E* E* E* E* EL* EL* EL* EL* EL* EL* EL* EL* EL* EL* EL* EL* L L L L L L L L L L L L L L L L L L L L L L L L L L L L L L L L L L L L             L( L( L( L( L( L( L( L( L( L( L( L( L( L( L( L( L( L( L( L( L( L( L( L( ( ( ( ( ( ( J( J( J( J( J( J( J( J( J( J( J( J( J( J( J( J( J( J( J( J( J( J( J( J( J( J( J( J( J( J( J( J( J( J( J( J( J( J( J( J( J( J( J( J( J( J( J( J( J( J( J( J( J( J( J( J( J( J( J( J( J( J( J( J( J( J( J( J( J( J( J( J( ( ( ( ( ( ( ( ( ( ( ( ( ( ( ( ( ( ( H( H( H( H( H( H( H( H( H( H( H( H( H( H( H( H( H( H( H( H( H( H( H( H( H( H( H( H( H( H( H( H( H( H( H( H( H( H( H( H( H( H( H( H( H( H( H( H( H( H( H( H( H( H( H( H( H( H( H( H( H( H( H( H( H( H( H( H( H( H( H( H( H H H H H H H H H H H H H H H H H H H H H H H H                         GD>4 GD>4 GD>4 GD>4 GD>4 GD>4 GD>4 GD>4 GD>4 GD>4 GD>4 GD>4 D>4 D>4 D>4 HD>4 HD>4 HD>4 HD>4 HD>4 HD>4 HD>4 HD>4 HD>4 HD>4 HD>4 HD>4 D>4 D>4 D>4 GD>4 GD>4 GD>4 GD>4 GD>4 GD>4 GD>4 GD>4 GD>4 GD>4 GD>4 GD>4 GD>4 GD>4 GD>4 GD>4 GD>4 GD>4 GD>4 GD>4 GD>4 GD>4 GD>4 GD>4 GD>4 GD>4 GD>4 GD>4 GD>4 GD>4 GD>4 GD>4 GD>4 GD>4 GD>4 GD>4 GD>4 GD>4 GD>4 GD>4 GD>4 GD>4 GD>4 GD>4 GD>4 GD>4 GD>4 GD>4 GD>4 GD>4 GD>4 GD>4 GD>4 GD>4 GD>4 GD>4 GD>4 GD>4 GD>4 GD>4 GD>4 GD>4 GD>4 GD>4 GD>4 GD>4 GD>4 GD>4 GD>4 GD>4 GD>4 GD>4 GD>4 GD>4 GD>4 GD>4 GD>4 GD>4 D>4 D>4 D>4 D>4 D>4 D>4 D>4 D>4 D>4 D>4 D>4 D>4 D>E4 D>E4 D>E4 D>E4 D>E4 D>E4 D>E4 D>E4 D>E4 D>E4 D>E4 D>E4 D>E4 D>E4 D>E4 D>E4 D>E4 D>E4 D>E4 D>E4 D>E4 D>E4 D>E4 D>E4 D>E4 D>E4 D>E4 D>E4 D>E4 D>E4 D>E4 D>E4 D>E4 D>E4 D>E4 D>E4 D>E4 D>E4 D>E4 D>E4 D>E4 D>E4 D>E4 D>E4 D>E4 D>E4 D>E4 D>E4 D>E4 D>E4 D>E4 D>E4 D>E4 D>E4 D>E4 D>E4 D>E4 D>E4 D>E4 D>E4 D>E4 D>E4 D>E4 D>E4 D>E4 D>E4 D>E4 D>E4 D>E4 D>E4 D>E4 D>E4 E E E E E E E E E E E E E E E E E E E E E E E E                         <@E- <@E- <@E- <@E- <@E- <@E- <@E- <@E- <@E- <@E- <@E- <@E- <@E- <@E- <@E- <@E- <@E- <@E- <@E- <@E- <@E- <@E- <@E- <@E- <@E- <@E- <@E- <@E- <@E- <@E- <@E- <@E- <@E- <@E- <@E- <@E- <@E- <@E- <@E- <@E- <@E- <@E- <@E- <@E- <@E- <@E- <@E- <@E- <@E- <@E- <@E- <@E- <@E- <@E- <@E- <@E- <@E- <@E- <@E- <@E- <@E- <@E- <@E- <@E- <@E- <@E- <@E- <@E- <@E- <@E- <@E- <@E- <@E- <@E- <@E- <@E- <@E- <@E- <@E- <@E- <@E- <@E- <@E- <@E- <@E- <@E- <@E- <@E- <@E- <@E- <@E- <@E- <@E- <@E- <@E- <@E- <@E <@E <@E <@E <@E <@E <@E <@E <@E <@E <@E <@E <@E <@E <@E <@E <@E <@E <@E <@E <@E <@E <@E <@E <@E0 <@E0 <@E0 <@E0 <@E0 <@E0 <@E0 <@E0 <@E0 <@E0 <@E0 <@E0 <@E0 <@E0 <@E0 <@E0 <@E0 <@E0 <@E0 <@E0 <@E0 <@E0 <@E0 <@E0 <@E0 <@E0 <@E0 <@E0 <@E0 <@E0 <@E0 <@E0 <@E0 <@E0 <@E0 <@E0 <@E0 <@E0 <@E0 <@E0 <@E0 <@E0 <@E0 <@E0 <@E0 <@E0 <@E0 <@E0 <@E <@E <@E <@E <@E <@E <@E <@E <@E <@E <@E <@E <@E4 <@E4 <@E4 <@E4 <@E4 <@E4 <@E4 <@E4 <@E4 <@E4 <@E4 <@E4 4 4 4 4 4 4 4 4 4 4 4 4 4 4 4 4 4 4 4 4 4 4 4 4 4 4 4 4 4 4 4 4 4 4 4 4             E@<9 E@<9 E@<9 E@<9 E@<9 E@<9 E@<9 E@<9 E@<9 E@<9 E@<9 E@<9 E@<9 E@<9 E@<9 E@<9 E@<9 E@<9 E@<9 E@<9 E@<9 E@<9 E@<9 E@<9 E@<9 E@<9 E@<9 E@<9 E@<9 E@<9 E@<9 E@<9 E@<9 E@<9 E@<9 E@<9 E@<9 E@<9 E@<9 E@<9 E@<9 E@<9 E@<9 E@<9 E@<9 E@<9 E@<9 E@<9 E@<9 E@<9 E@<9 E@<9 E@<9 E@<9 E@<9 E@<9 E@<9 E@<9 E@<9 E@<9 E@<9 E@<9 E@<9 E@<9 E@<9 E@<9 E@<9 E@<9 E@<9 E@<9 E@<9 E@<9 E@<9 E@<9 E@<9 E@<9 E@<9 E@<9 E@<9 E@<9 E@<9 E@<9 E@<9 E@<9 E@<9 E@<9 E@<9 E@<9 E@<9 E@<9 E@<9 E@<9 E@<9 E@<9 E@<9 E@<9 E@<9 E@<9 E@<9 E@<9 E@<9 E@<9 E@<9 E@<9 E@<9 E@<9 E@<9 E@<9 E@<9 E@<9 E@<9 E@<9 E@<9 E@<9 E@<9 E@<9 E@<9 E@<9 E@<9 E@<9 E@<9 E@<9 E@<9 E@<9 E@<9 E@<9 E@<9 E@<9 E@<9 E@<9 E@<9 E@<9 E@<9 E@<9 E@<9 E@<9 E@<9 E@<9 E@<9 E@<9 E@<9 E@<9 E@<9 E@<9 E@<9 E@<9 E@<9 E@<9 E@<9 E@<9 E@<9 E@<9 E@<9 E@<9 E@<9 E@<9 E@<9 E@<9 E@<9 E@<9 E@<9 E@<9 E@<9 E@<9 E@<9 E@<9 E@<9 E@<9 E@<9 E@<9 E@<9 E@<9 E@<9 E@<9 E@<9 E@<9 E@<9 E@<9 E@<9 E@<9 E@<9 E@<9 E@<9 E@<9 E@<9 E@<9 E@<9 E@<9 E@<9 E@<9 E@<9 E@<9 E@<9 E@<9 E@<9 E@<9 E@<9 E@<9 E@<9 E@<9 E@<9 E@<9 E@<9 E@<9 E@<9 E@<9 E@<9 E@<9 E@<9 E@<9 E@<9 E@<9 E@<9 E@<9 E@<9 E@<9 E@<9 E@<9 E@<9 E@<9 E@<9 E@<9 E@<9 E@<9 E@<9 E@<9 E@<9 E@<9 E@<9 E@<9 E@<9 E@<9 E@<9 E@<9 E@<9 E@<9 E@<9 E@<9 E@<9 E@<9 E@<9 E@<9 E@<9 E@<9 E@<9 E@<9 E@<9 E@<9 E@<9 E@<9 E@<9 E@<9 E@<9 E@<9 E@<9 E@<9 E@<9 E@<9 E@<9 E@<9 E@<9 E@<9 E@<9 E@<9 E@<9 E@<9 E@<9 E@<9 E@<9 E@<9 E@<9 E@<9 E@<9 E@<9 E@<9 E@<9 E@<9 E@<9 E@<9 E@<9 E@<9 E@<9 E@<9 E@<9 E@<9 E@<9 E@<9 E@<9 E@<9 E@<9 E@<9 E@<9 E@<9 E@<9 E@<9 E@<9 E@<9 E@<9 E@<9 E@<9 E@<9 E@<9 E@<9 E@<9 E@<9 E@<9 E@<9 E@<9 E@<9 E@<9 E@<9 E@<9 E@<9 E@<9 E@<9 E@<9 E@<9 E@<9 E@<9 E@<9 E@<9 E@<9 E@<9 E@<9 E@<9 E@<9 E@<9 E@<9 E@<9 E@<9 E@<9 E@<9 E@<9 E@<9 E@<9 E@<9 E@<9 E@<9 E@<9 E@<9 E@<9 E@<9 E@<9 E@<9 E@<9 E@<9 E@<9 E@<9 E@<9 E@<9 E@<9 E@<9 E@<9 E@<9 E@<9 E@<9 E@<9 E@<9 E@<9 E@<9 E@<9 E@<9 E@<9 E@<9 E@<9 E@<9 E@<9 E@<9 E@<9 E@<9 E@<9 E@<9 E@<9 E@<9 E@<9 E@<9 E@<9 E@<9 E@<9 E@<9 E@<9 E@<9 E@<9 E@<9                                                                                                 C@0< C@0< C@0< C@0< C@0< C@0< C@0< C@0< C@0< C@0< C@0< C@0< C@0< C@0< C@0< C@0< C@0< C@0< C@0< C@0< C@0< C@0< C@0< C@0< C@0< C@0< C@0< C@0< C@0< C@0< C@0< C@0< C@0< C@0< C@0< C@0< C@0< C@0< C@0< C@0< C@0< C@0< C@0< C@0< C@0< C@0< C@0< C@0< C@0< C@0< C@0< C@0< C@0< C@0< C@0< C@0< C@0< C@0< C@0< C@0< C@0< C@0< C@0< C@0< C@0< C@0< C@0< C@0< C@0< C@0< C@0< C@0< C@0< C@0< C@0< C@0< C@0< C@0< C@0< C@0< C@0< C@0< C@0< C@0< C@0< C@0< C@0< C@0< C@0< C@0< C@0< C@0< C@0< C@0< C@0< C@0< C@< C@< C@< C@< C@< C@< C@< C@< C@< C@< C@< C@< C@< C@< C@< C@< C@< C@< C@< C@< C@< C@< C@< C@< C@<4 C@<4 C@<4 C@<4 C@<4 C@<4 C@<4 C@<4 C@<4 C@<4 C@<4 C@<4 C@<4 C@<4 C@<4 C@<4 C@<4 C@<4 C@<4 C@<4 C@<4 C@<4 C@<4 C@<4 C@<4 C@<4 C@<4 C@<4 C@<4 C@<4 C@<4 C@<4 C@<4 C@<4 C@<4 C@<4 C@<4 C@<4 C@<4 C@<4 C@<4 C@<4 C@<4 C@<4 C@<4 C@<4 C@<4 C@<4 C@<4 C@<4 C@<4 C@<4 C@<4 C@<4 C@<4 C@<4 C@<4 C@<4 C@<4 C@<4 C@<4 C@<4 C@<4 C@<4 C@<4 C@<4 C@<4 C@<4 C@<4 C@<4 C@<4 C@<4 4 4 4 4 4 4 4 4 4 4 4 4 4 4 4 4 4 4 4 4 4 4 4 4                         @C<7 @C<7 @C<7 @C<7 @C<7 @C<7 @C<7 @C<7 @C<7 @C<7 @C<7 @C<7 @C<7 @C<7 @C<7 @C<7 @C<7 @C<7 @C<7 @C<7 @C<7 @C<7 @C<7 @C<7 @C<7 @C<7 @C<7 @C<7 @C<7 @C<7 @C<7 @C<7 @C<7 @C<7 @C<7 @C<7 @C<7 @C<7 @C<7 @C<7 @C<7 @C<7 @C<7 @C<7 @C<7 @C<7 @C<7 @C<7 @C<7 @C<7 @C<7 @C<7 @C<7 @C<7 @C<7 @C<7 @C<7 @C<7 @C<7 @C<7 @C<7 @C<7 @C<7 @C<7 @C<7 @C<7 @C<7 @C<7 @C<7 @C<7 @C<7 @C<7 @C<7 @C<7 @C<7 @C<7 @C<7 @C<7 @C<7 @C<7 @C<7 @C<7 @C<7 @C<7 @C<7 @C<7 @C<7 @C<7 @C<7 @C<7 @C<7 @C<7 @C<7 @C<7 @C<7 @C<7 <7 <7 <7 <7 <7 <7 <7 <7 <7 <7 <7 <7 <7 <7 <7 <7 <7 <7 <7 <7 <7 <7 <7 <7 A><7 A><7 A><7 A><7 A><7 A><7 A><7 A><7 A><7 A><7 A><7 A><7 A><7 A><7 A><7 A><7 A><7 A><7 A><7 A><7 A><7 A><7 A><7 A><7 A><7 A><7 A><7 A><7 A><7 A><7 A><7 A><7 A><7 A><7 A><7 A><7 A><7 A><7 A><7 A><7 A><7 A><7 A><7 A><7 A><7 A><7 A><7 A><7 A><7 A><7 A><7 A><7 A><7 A><7 A><7 A><7 A><7 A><7 A><7 A><7 A><7 A><7 A><7 A><7 A><7 A><7 A><7 A><7 A><7 A><7 A><7 A><7 A> A> A> A> A> A> A> A> A> A> A> A> A> A> A> A> A> A> A> A> A> A> A> A>                         <@+7 <@+7 <@+7 <@+7 <@+7 <@+7 <@+7 <@+7 <@+7 <@+7 <@+7 <@+7 <@+7 <@+7 <@+7 <@+7 <@+7 <@+7 <@+7 <@+7 <@+7 <@+7 <@+7 <@+7 <@+7 <@+7 <@+7 <@+7 <@+7 <@+7 <@+7 <@+7 <@+7 <@+7 <@+7 <@+7 <@+7 <@+7 <@+7 <@+7 <@+7 <@+7 <@+7 <@+7 <@+7 <@+7 <@+7 <@+7 <@+7 <@+7 <@+7 <@+7 <@+7 <@+7 <@+7 <@+7 <@+7 <@+7 <@+7 <@+7 <@+7 <@+7 <@+7 <@+7 <@+7 <@+7 <@+7 <@+7 <@+7 <@+7 <@+7 <@+7 <@+7 <@+7 <@+7 <@+7 <@+7 <@+7 <@+7 <@+7 <@+7 <@+7 <@+7 <@+7 <@+7 <@+7 <@+7 <@+7 <@+7 <@+7 <@+7 <@+7 <@+7 <@+7 <@+7 <@+7 +7 +7 +7 +7 +7 +7 +7 +7 +7 +7 +7 +7 +7 +7 +7 +7 +7 +7 +7 +7 +7 +7 +7 +7 ;>+7 ;>+7 ;>+7 ;>+7 ;>+7 ;>+7 ;>+7 ;>+7 ;>+7 ;>+7 ;>+7 ;>+7 ;>+7 ;>+7 ;>+7 ;>+7 ;>+7 ;>+7 ;>+7 ;>+7 ;>+7 ;>+7 ;>+7 ;>+7 ;>+7 ;>+7 ;>+7 ;>+7 ;>+7 ;>+7 ;>+7 ;>+7 ;>+7 ;>+7 ;>+7 ;>+7 ;>+7 ;>+7 ;>+7 ;>+7 ;>+7 ;>+7 ;>+7 ;>+7 ;>+7 ;>+7 ;>+7 ;>+7 ;>+7 ;>+7 ;>+7 ;>+7 ;>+7 ;>+7 ;>+7 ;>+7 ;>+7 ;>+7 ;>+7 ;>+7 ;>+7 ;>+7 ;>+7 ;>+7 ;>+7 ;>+7 ;>+7 ;>+7 ;>+7 ;>+7 ;>+7 ;>+7 ;> ;> ;> ;> ;> ;> ;> ;> ;> ;> ;> ;> ;> ;> ;> ;> ;> ;> ;> ;> ;> ;> ;> ;>                         ><07 ><07 ><07 ><07 ><07 ><07 ><07 ><07 ><07 ><07 ><07 ><07 ><07 ><07 ><07 ><07 ><07 ><07 ><07 ><07 ><07 ><07 ><07 ><07 ><07 ><07 ><07 ><07 ><07 ><07 ><07 ><07 ><07 ><07 ><07 ><07 ><07 ><07 ><07 ><07 ><07 ><07 ><07 ><07 ><07 ><07 ><07 ><07 ><07 ><07 ><07 ><07 ><07 ><07 ><07 ><07 ><07 ><07 ><07 ><07 ><07 ><07 ><07 ><07 ><07 ><07 ><07 ><07 ><07 ><07 ><07 ><07 ><07 ><07 ><07 ><07 ><07 ><07 ><07 ><07 ><07 ><07 ><07 ><07 ><07 ><07 ><07 ><07 ><07 ><07 ><07 ><07 ><07 ><07 ><07 ><07 ><07 ><07 ><07 ><07 ><07 ><07 ><07 ><07 ><07 ><07 ><07 ><07 ><07 ><07 ><07 ><07 ><07 <07 <07 <07 <07 <07 <07 <07 <07 <07 <07 <07 <07 <07 <07 <07 <07 <07 <07 <07 <07 <07 <07 <07 <07 <07 <07 <07 <07 <07 <07 <07 <07 <07 <07 <07 <07 <07 <07 <07 <07 <07 <07 <07 <07 <07 <07 <07 <07 <07 <07 <07 <07 <07 <07 <07 <07 <07 <07 <07 <07 <07 <07 <07 <07 <07 <07 <07 <@07 <@07 <@07 <@07 <@07 <@07 <@07 <@07 <@07 <@07 <@07 <@07 @ @ @ @ @ @ @ @ @ @ @ @       A A A A A A A A A A A A A A A A A A A A A A A A       @<07 @<07 @<07 @<07 @<07 @<07 @<07 @<07 @<07 @<07 @<07 @<07 @<07 @<07 @<07 @<07 @<07 @<07 @<07 @<07 @<07 @<07 @<07 @<07 @<07 @<07 @<07 @<07 @<07 @<07 @<07 @<07 @<07 @<07 @<07 @<07 @<07 @<07 @<07 @<07 @<07 @<07 @<07 @<07 @<07 @<07 @<07 @<07 @<07 @<07 @<07 @<07 @<07 @<07 @<07 @<07 @<07 @<07 @<07 @<07 @<07 @<07 @<07 @<07 @<07 @<07 @<07 @<07 @<07 @<07 @<07 @<07 @<07 @<07 @<07 @<07 @<07 @<07 @<07 @<07 @<07 @<07 @<07 @<07 @<07 @<07 @<07 @<07 @<07 @<07 @<07 @<07 @<07 @<07 @<07 @<07 @<7 @<7 @<7 @<7 @<7 @<7 @<7 @<7 @<7 @<7 @<7 @<7 @<7 @<7 @<7 @<7 @<7 @<7 @<7 @<7 @<7 @<7 @<7 @<7 @</7 @</7 @</7 @</7 @</7 @</7 @</7 @</7 @</7 @</7 @</7 @</7 @</7 @</7 @</7 @</7 @</7 @</7 @</7 @</7 @</7 @</7 @</7 @</7 @</7 @</7 @</7 @</7 @</7 @</7 @</7 @</7 @</7 @</7 @</7 @</7 @</7 @</7 @</7 @</7 @</7 @</7 @</7 @</7 @</7 @</7 @</7 @</7 @</7 @</7 @</7 @</7 @</7 @</7 @</7 @</7 @</7 @</7 @</7 @</7 @</7 @</7 @</7 @</7 @</7 @</7 @</7 @</7 @</7 @</7 @</7 @</7 @</7 @</7 @</7 @</7 @</7 @</7 @</7 @</7 @</7 @</7 @</7 @</7 @</7 @</7 @</7 @</7 @</7 @</7 @</7 @</7 @</7 @</7 @</7 @</7 @<7 @<7 @<7 @<7 @<7 @<7 @<7 @<7 @<7 @<7 @<7 @<7 @<7 @<7 @<7 @<7 @<7 @<7 @<7 @<7 @<7 @<7 @<7 @<7 @<-7 @<-7 @<-7 @<-7 @<-7 @<-7 @<-7 @<-7 @<-7 @<-7 @<-7 @<-7 @<-7 @<-7 @<-7 @<-7 @<-7 @<-7 @<-7 @<-7 @<-7 @<-7 @<-7 @<-7 @<-7 @<-7 @<-7 @<-7 @<-7 @<-7 @<-7 @<-7 @<-7 @<-7 @<-7 @<-7 @<-7 @<-7 @<-7 @<-7 @<-7 @<-7 @<-7 @<-7 @<-7 @<-7 @<-7 @<-7 @<-7 @<-7 @<-7 @<-7 @<-7 @<-7 @<-7 @<-7 @<-7 @<-7 @<-7 @<-7 @<-7 @<-7 @<-7 @<-7 @<-7 @<-7 @<-7 @<-7 @<-7 @<-7 @<-7 @<-7 @<-7 @<-7 @<-7 @<-7 @<-7 @<-7 @<-7 @<-7 @<-7 @<-7 @<-7 @<-7 @<-7 @<-7 @<-7 @<-7 @<-7 @<-7 @<-7 @<-7 @<-7 @<-7 @<-7 @<-7 @<7 @<7 @<7 @<7 @<7 @<7 @<7 @<7 @<7 @<7 @<7 @<7 @<7 @<7 @<7 @<7 @<7 @<7 @<7 @<7 @<7 @<7 @<7 @<7 @<7+ @<7+ @<7+ @<7+ @<7+ @<7+ @<7+ @<7+ @<7+ @<7+ @<7+ @<7+ @<7+ @<7+ @<7+ @<7+ @<7+ @<7+ @<7+ @<7+ @<7+ @<7+ @<7+ @<7+ + + + + + + + + + + + + + + + + + + + + + + + + + + + + + + + + + + + + + + + + + + + + + + + + + + + + + + + + + + + + + + + + + + + + + + + +                         ?* ?* ?* ?* ?* ?* ?* ?* ?* ?* ?* ?* ?* ?* ?* ?* ?* ?* ?* ?* ?* ?* ?* ?* ?* ?* ?* ?* ?* ?* ?* ?* ?* ?* ?* ?* ?* ?* ?* ?* ?* ?* ?* ?* ?* ?* ?* ?* * * * * * * * * * * * * B* B* B* B* B* B* B* B* B* B* B* B* B* B* B* B* B* B* B* B* B* B* B* B* B* B* B* B* B* B* B* B* B* B* B* B* B* B* B* B* B* B* B* B* B* B* B* B* * * * * * * * * * * * * E* E* E* E* E* E* E* E* E* E* E* E* E* E* E* E* E* E* E* E* E* E* E* E* E* E* E* E* E* E* E* E* E* E* E* E* E* E* E* E* E* E* E* E* E* E* E* E* * * * * * * * * * * * * H* H* H* H* H* H* H* H* H* H* H* H* H H H H H H H H H H H H H H H H H H H H H H H H H H H H H H H H H H H H             G+ G+ G+ G+ G+ G+ G+ G+ G+ G+ G+ G+ G+ G+ G+ G+ G+ G+ G+ G+ G+ G+ G+ G+ G+ G+ G+ G+ G+ G+ G+ G+ G+ G+ G+ G+ G+ G+ G+ G+ G+ G+ G+ G+ G+ G+ G+ G+ + + + + + + + + + + + + B+ B+ B+ B+ B+ B+ B+ B+ B+ B+ B+ B+ B+ B+ B+ B+ B+ B+ B+ B+ B+ B+ B+ B+ B+ B+ B+ B+ B+ B+ B+ B+ B+ B+ B+ B+ B+ B+ B+ B+ B+ B+ B+ B+ B+ B+ B+ B+ + + + + + + + + + + + + C+ C+ C+ C+ C+ C+ C+ C+ C+ C+ C+ C+ C+ C+ C+ C+ C+ C+ C+ C+ C+ C+ C+ C+ C+ C+ C+ C+ C+ C+ C+ C+ C+ C+ C+ C+ C+ C+ C+ C+ C+ C+ C+ C+ C+ C+ C+ C+ + + + + + + + + + + + + ?+ ?+ ?+ ?+ ?+ ?+ ?+ ?+ ?+ ?+ ?+ ?+ ? ? ? ? ? ? ? ? ? ? ? ? ? ? ? ? ? ? ? ? ? ? ? ? ? ? ? ? ? ? ? ? ? ? ? ?             @@4 @@4 @@4 @@4 @@4 @@4 @@4 @@4 @@4 @@4 @@4 @@4 @@4 @@4 @@4 @@4 @@4 @@4 @@4 @@4 @@4 @@4 @@4 @@4 @@4 @@4 @@4 @@4 @@4 @@4 @@4 @@4 @@4 @@4 @@4 @@4 @@4 @@4 @@4 @@4 @@4 @@4 @@4 @@4 @@4 @@4 @@4 @@4 @4 @4 @4 @4 @4 @4 @4 @4 @4 @4 @4 @4 C@4 C@4 C@4 C@4 C@4 C@4 C@4 C@4 C@4 C@4 C@4 C@4 C@4 C@4 C@4 C@4 C@4 C@4 C@4 C@4 C@4 C@4 C@4 C@4 C@4 C@4 C@4 C@4 C@4 C@4 C@4 C@4 C@4 C@4 C@4 C@4 C@4 C@4 C@4 C@4 C@4 C@4 C@4 C@4 C@4 C@4 C@4 C@4 @4 @4 @4 @4 @4 @4 @4 @4 @4 @4 @4 @4 F@4 F@4 F@4 F@4 F@4 F@4 F@4 F@4 F@4 F@4 F@4 F@4 F@4 F@4 F@4 F@4 F@4 F@4 F@4 F@4 F@4 F@4 F@4 F@4 F@4 F@4 F@4 F@4 F@4 F@4 F@4 F@4 F@4 F@4 F@4 F@4 F@4 F@4 F@4 F@4 F@4 F@4 F@4 F@4 F@4 F@4 F@4 F@4 @4 @4 @4 @4 @4 @4 @4 @4 @4 @4 @4 @4 @I4 @I4 @I4 @I4 @I4 @I4 @I4 @I4 @I4 @I4 @I4 @I4 I I I I I I I I I I I I I I I I I I I I I I I I I I I I I I I I I I I I             LB;/ LB;/ LB;/ LB;/ LB;/ LB;/ LB;/ LB;/ LB;/ LB;/ LB;/ LB;/ LB;/ LB;/ LB;/ LB;/ LB;/ LB;/ LB;/ LB;/ LB;/ LB;/ LB;/ LB;/ LB;/ LB;/ LB;/ LB;/ LB;/ LB;/ LB;/ LB;/ LB;/ LB;/ LB;/ LB;/ LB;/ LB;/ LB;/ LB;/ LB;/ LB;/ LB;/ LB;/ LB;/ LB;/ LB;/ LB;/ B;/ B;/ B;/ B;/ B;/ B;/ B;/ B;/ B;/ B;/ B;/ B;/ KB;/ KB;/ KB;/ KB;/ KB;/ KB;/ KB;/ KB;/ KB;/ KB;/ KB;/ KB;/ KB;/ KB;/ KB;/ KB;/ KB;/ KB;/ KB;/ KB;/ KB;/ KB;/ KB;/ KB;/ KB;/ KB;/ KB;/ KB;/ KB;/ KB;/ KB;/ KB;/ KB;/ KB;/ KB;/ KB;/ KB/ KB/ KB/ KB/ KB/ KB/ KB/ KB/ KB/ KB/ KB/ KB/ B/ B/ B/ B/ B/ B/ B/ B/ B/ B/ B/ B/ NB/= NB/= NB/= NB/= NB/= NB/= NB/= NB/= NB/= NB/= NB/= NB/= NB/= NB/= NB/= NB/= NB/= NB/= NB/= NB/= NB/= NB/= NB/= NB/= NB/= NB/= NB/= NB/= NB/= NB/= NB/= NB/= NB/= NB/= NB/= NB/= NB/= NB/= NB/= NB/= NB/= NB/= NB/= NB/= NB/= NB/= NB/= NB/= B/= B/= B/= B/= B/= B/= B/= B/= B/= B/= B/= B/= BL/= BL/= BL/= BL/= BL/= BL/= BL/= BL/= BL/= BL/= BL/= BL/= L= L= L= L= L= L= L= L= L= L= L= L= L= L= L= L= L= L= L= L= L= L= L= L= L L L L L L L L L L L L             NG;? NG;? NG;? NG;? NG;? NG;? NG;? NG;? NG;? NG;? NG;? NG;? NG;? NG;? NG;? NG;? NG;? NG;? NG;? NG;? NG;? NG;? NG;? NG;? NG;? NG;? NG;? NG;? NG;? NG;? NG;? NG;? NG;? NG;? NG;? NG;? NG;? NG;? NG;? NG;? NG;? NG;? NG;? NG;? NG;? NG;? NG;? NG;? G;? G;? G;? G;? G;? G;? G;? G;? G;? G;? G;? G;? LG;? LG;? LG;? LG;? LG;? LG;? LG;? LG;? LG;? LG;? LG;? LG;? LG;? LG;? LG;? LG;? LG;? LG;? LG;? LG;? LG;? LG;? LG;? LG;? LG;? LG;? LG;? LG;? LG;? LG;? LG;? LG;? LG;? LG;? LG;? LG;? LG? LG? LG? LG? LG? LG? LG? LG? LG? LG? LG? LG? G? G? G? G? G? G? G? G? G? G? G? G? KG?9 KG?9 KG?9 KG?9 KG?9 KG?9 KG?9 KG?9 KG?9 KG?9 KG?9 KG?9 KG?9 KG?9 KG?9 KG?9 KG?9 KG?9 KG?9 KG?9 KG?9 KG?9 KG?9 KG?9 KG?9 KG?9 KG?9 KG?9 KG?9 KG?9 KG?9 KG?9 KG?9 KG?9 KG?9 KG?9 KG?9 KG?9 KG?9 KG?9 KG?9 KG?9 KG?9 KG?9 KG?9 KG?9 KG?9 KG?9 G?9 G?9 G?9 G?9 G?9 G?9 G?9 G?9 G?9 G?9 G?9 G?9 GI?9 GI?9 GI?9 GI?9 GI?9 GI?9 GI?9 GI?9 GI?9 GI?9 GI?9 GI?9 I9 I9 I9 I9 I9 I9 I9 I9 I9 I9 I9 I9 I9 I9 I9 I9 I9 I9 I9 I9 I9 I9 I9 I9 I I I I I I I I I I I I             G7 G7 G7 G7 G7 G7 G7 G7 G7 G7 G7 G7 G7 G7 G7 G7 G7 G7 G7 G7 G7 G7 G7 G7 G7 G7 G7 G7 G7 G7 G7 G7 G7 G7 G7 G7 G7 G7 G7 G7 G7 G7 G7 G7 G7 G7 G7 G7 G7 G7 G7 G7 G7 G7 G7 G7 G7 G7 G7 G7 G7 G7 G7 G7 G7 G7 G7 G7 G7 G7 G7 G7 G7 G7 G7 G7 G7 G7 G7 G7 G7 G7 G7 G7 G7 G7 G7 G7 G7 G7 G7 G7 G7 G7 G7 G7 G G G G G G G G G G G G G G G G G G G G G G G G G6 G6 G6 G6 G6 G6 G6 G6 G6 G6 G6 G6 G6 G6 G6 G6 G6 G6 G6 G6 G6 G6 G6 G6 G6 G6 G6 G6 G6 G6 G6 G6 G6 G6 G6 G6 G6 G6 G6 G6 G6 G6 G6 G6 G6 G6 G6 G6 G6 G6 G6 G6 G6 G6 G6 G6 G6 G6 G6 G6 G6 G6 G6 G6 G6 G6 G6 G6 G6 G6 G6 G6 6 6 6 6 6 6 6 6 6 6 6 6 6 6 6 6 6 6 6 6 6 6 6 6                         O4 O4 O4 O4 O4 O4 O4 O4 O4 O4 O4 O4 O4 O4 O4 O4 O4 O4 O4 O4 O4 O4 O4 O4 O4 O4 O4 O4 O4 O4 O4 O4 O4 O4 O4 O4 O4 O4 O4 O4 O4 O4 O4 O4 O4 O4 O4 O4 4 4 4 4 4 4 4 4 4 4 4 4 N4 N4 N4 N4 N4 N4 N4 N4 N4 N4 N4 N4 N4 N4 N4 N4 N4 N4 N4 N4 N4 N4 N4 N4 N4 N4 N4 N4 N4 N4 N4 N4 N4 N4 N4 N4 N4 N4 N4 N4 N4 N4 N4 N4 N4 N4 N4 N4 4 4 4 4 4 4 4 4 4 4 4 4 L4 L4 L4 L4 L4 L4 L4 L4 L4 L4 L4 L4 L4 L4 L4 L4 L4 L4 L4 L4 L4 L4 L4 L4 L4 L4 L4 L4 L4 L4 L4 L4 L4 L4 L4 L4 L4 L4 L4 L4 L4 L4 L4 L4 L4 L4 L4 L4 4 4 4 4 4 4 4 4 4 4 4 4 J4 J4 J4 J4 J4 J4 J4 J4 J4 J4 J4 J4 J J J J J J J J J J J J J J J J J J J J J J J J J J J J J J J J J J J J             H@ H@ H@ H@ H@ H@ H@ H@ H@ H@ H@ H@ H@ H@ H@ H@ H@ H@ H@ H@ H@ H@ H@ H@ H@ H@ H@ H@ H@ H@ H@ H@ H@ H@ H@ H@ H@ H@ H@ H@ H@ H@ H@ H@ H@ H@ H@ H@ @ @ @ @ @ @ @ @ @ @ @ @ G@ G@ G@ G@ G@ G@ G@ G@ G@ G@ G@ G@ G@ G@ G@ G@ G@ G@ G@ G@ G@ G@ G@ G@ G@ G@ G@ G@ G@ G@ G@ G@ G@ G@ G@ G@ G@ G@ G@ G@ G@ G@ G@ G@ G@ G@ G@ G@ @ @ @ @ @ @ @ @ @ @ @ @ F@ F@ F@ F@ F@ F@ F@ F@ F@ F@ F@ F@ F@ F@ F@ F@ F@ F@ F@ F@ F@ F@ F@ F@ F@ F@ F@ F@ F@ F@ F@ F@ F@ F@ F@ F@ F@ F@ F@ F@ F@ F@ F@ F@ F@ F@ F@ F@ @ @ @ @ @ @ @ @ @ @ @ @ G@ G@ G@ G@ G@ G@ G@ G@ G@ G@ G@ G@ G G G G G G G G G G G G G G G G G G G G G G G G G G G G G G G G G G G G             F F F F F F F F F F F F F F F F F F F F F F F F F F F F F F F F F F F F F F F F F F F F F F F F             I I I I I I I I I I I I I I I I I I I I I I I I I I I I I I I I I I I I I I I I I I I I I I I I             L4 L4 L4 L4 L4 L4 L4 L4 L4 L4 L4 L4 L4 L4 L4 L4 L4 L4 L4 L4 L4 L4 L4 L4 L4 L4 L4 L4 L4 L4 L4 L4 L4 L4 L4 L4 L4 L4 L4 L4 L4 L4 L4 L4 L4 L4 L4 L4 4 4 4 4 4 4 4 4 4 4 4 4 O4 O4 O4 O4 O4 O4 O4 O4 O4 O4 O4 O4 O4 O4 O4 O4 O4 O4 O4 O4 O4 O4 O4 O4 O4 O4 O4 O4 O4 O4 O4 O4 O4 O4 O4 O4 O O O O O O O O O O O O             N3 N3 N3 N3 N3 N3 N3 N3 N3 N3 N3 N3 N3 N3 N3 N3 N3 N3 N3 N3 N3 N3 N3 N3 N3 N3 N3 N3 N3 N3 N3 N3 N3 N3 N3 N3 N3 N3 N3 N3 N3 N3 N3 N3 N3 N3 N3 N3 3 3 3 3 3 3 3 3 3 3 3 3 L3 L3 L3 L3 L3 L3 L3 L3 L3 L3 L3 L3 L3 L3 L3 L3 L3 L3 L3 L3 L3 L3 L3 L3 L3 L3 L3 L3 L3 L3 L3 L3 L3 L3 L3 L3 L3 L3 L3 L3 L3 L3 L3 L3 L3 L3 L3 L3 3 3 3 3 3 3 3 3 3 3 3 3 K3 K3 K3 K3 K3 K3 K3 K3 K3 K3 K3 K3 K3 K3 K3 K3 K3 K3 K3 K3 K3 K3 K3 K3 K3 K3 K3 K3 K3 K3 K3 K3 K3 K3 K3 K3 K3 K3 K3 K3 K3 K3 K3 K3 K3 K3 K3 K3 3 3 3 3 3 3 3 3 3 3 3 3 I3 I3 I3 I3 I3 I3 I3 I3 I3 I3 I3 I3 I I I I I I I I I I I I I I I I I I I I I I I I I I I I I I I I I I I I             G? G? G? G? G? G? G? G? G? G? G? G? G? G? G? G? G? G? G? G? G? G? G? G? G? G? G? G? G? G? G? G? G? G? G? G? G? G? G? G? G? G? G? G? G? G? G? G? ? ? ? ? ? ? ? ? ? ? ? ? E? E? E? E? E? E? E? E? E? E? E? E? E? E? E? E? E? E? E? E? E? E? E? E? E? E? E? E? E? E? E? E? E? E? E? E? E? E? E? E? E? E? E? E? E? E? E? E? ? ? ? ? ? ? ? ? ? ? ? ? D? D? D? D? D? D? D? D? D? D? D? D? D? D? D? D? D? D? D? D? D? D? D? D? D? D? D? D? D? D? D? D? D? D? D? D? D? D? D? D? D? D? D? D? D? D? D? D? ? ? ? ? ? ? ? ? ? ? ? ? E? E? E? E? E? E? E? E? E? E? E? E? E E E E E E E E E E E E E E E E E E E E E E E E E E E E E E E E E E E E             D D D D D D D D D D D D D D D D D D D D D D D D D D D D D D D D D D D D D D D D D D D D D D D D             G G G G G G G G G G G G G G G G G G G G G G G G G G G G G G G G G G G G G G G G G G G G G G G G             J2 J2 J2 J2 J2 J2 J2 J2 J2 J2 J2 J2 J2 J2 J2 J2 J2 J2 J2 J2 J2 J2 J2 J2 J2 J2 J2 J2 J2 J2 J2 J2 J2 J2 J2 J2 J2 J2 J2 J2 J2 J2 J2 J2 J2 J2 J2 J2 2 2 2 2 2 2 2 2 2 2 2 2 M2 M2 M2 M2 M2 M2 M2 M2 M2 M2 M2 M2 M2 M2 M2 M2 M2 M2 M2 M2 M2 M2 M2 M2 M2 M2 M2 M2 M2 M2 M2 M2 M2 M2 M2 M2 M M M M M M M M M M M M             L0 L0 L0 L0 L0 L0 L0 L0 L0 L0 L0 L0 L0 L0 L0 L0 L0 L0 L0 L0 L0 L0 L0 L0 L0 L0 L0 L0 L0 L0 L0 L0 L0 L0 L0 L0 L0 L0 L0 L0 L0 L0 L0 L0 L0 L0 L0 L0 0 0 0 0 0 0 0 0 0 0 0 0 Q0 Q0 Q0 Q0 Q0 Q0 Q0 Q0 Q0 Q0 Q0 Q0 Q0 Q0 Q0 Q0 Q0 Q0 Q0 Q0 Q0 Q0 Q0 Q0 Q0 Q0 Q0 Q0 Q0 Q0 Q0 Q0 Q0 Q0 Q0 Q0 Q0 Q0 Q0 Q0 Q0 Q0 Q0 Q0 Q0 Q0 Q0 Q0 0 0 0 0 0 0 0 0 0 0 0 0 S0 S0 S0 S0 S0 S0 S0 S0 S0 S0 S0 S0 S0 S0 S0 S0 S0 S0 S0 S0 S0 S0 S0 S0 S0 S0 S0 S0 S0 S0 S0 S0 S0 S0 S0 S0 S0 S0 S0 S0 S0 S0 S0 S0 S0 S0 S0 S0 0 0 0 0 0 0 0 0 0 0 0 0 T0 T0 T0 T0 T0 T0 T0 T0 T0 T0 T0 T0 T T T T T T T T T T T T T T T T T T T T T T T T T T T T T T T T T T T T             S+ S+ S+ S+ S+ S+ S+ S+ S+ S+ S+ S+ S+ S+ S+ S+ S+ S+ S+ S+ S+ S+ S+ S+ S+ S+ S+ S+ S+ S+ S+ S+ S+ S+ S+ S+ S+ S+ S+ S+ S+ S+ S+ S+ S+ S+ S+ S+ + + + + + + + + + + + + Q+ Q+ Q+ Q+ Q+ Q+ Q+ Q+ Q+ Q+ Q+ Q+ Q+ Q+ Q+ Q+ Q+ Q+ Q+ Q+ Q+ Q+ Q+ Q+ Q+ Q+ Q+ Q+ Q+ Q+ Q+ Q+ Q+ Q+ Q+ Q+ Q+ Q+ Q+ Q+ Q+ Q+ Q+ Q+ Q+ Q+ Q+ Q+ + + + + + + + + + + + + T+ T+ T+ T+ T+ T+ T+ T+ T+ T+ T+ T+ T+ T+ T+ T+ T+ T+ T+ T+ T+ T+ T+ T+ T+ T+ T+ T+ T+ T+ T+ T+ T+ T+ T+ T+ T+ T+ T+ T+ T+ T+ T+ T+ T+ T+ T+ T+ + + + + + + + + + + + + S+ S+ S+ S+ S+ S+ S+ S+ S+ S+ S+ S+ S S S S S S S S S S S S S S S S S S S S S S S S S S S S S S S S S S S S             Q/ Q/ Q/ Q/ Q/ Q/ Q/ Q/ Q/ Q/ Q/ Q/ Q/ Q/ Q/ Q/ Q/ Q/ Q/ Q/ Q/ Q/ Q/ Q/ Q/ Q/ Q/ Q/ Q/ Q/ Q/ Q/ Q/ Q/ Q/ Q/ Q/ Q/ Q/ Q/ Q/ Q/ Q/ Q/ Q/ Q/ Q/ Q/ / / / / / / / / / / / / O/ O/ O/ O/ O/ O/ O/ O/ O/ O/ O/ O/ O/ O/ O/ O/ O/ O/ O/ O/ O/ O/ O/ O/ O/ O/ O/ O/ O/ O/ O/ O/ O/ O/ O/ O/ O/ O/ O/ O/ O/ O/ O/ O/ O/ O/ O/ O/ / / / / / / / / / / / / QGK/ QGK/ QGK/ QGK/ QGK/ QGK/ QGK/ QGK/ QGK/ QGK/ QGK/ QGK/ QGK/ QGK/ QGK/ QGK/ QGK/ QGK/ QGK/ QGK/ QGK/ QGK/ QGK/ QGK/ QGK/ QGK/ QGK/ QGK/ QGK/ QGK/ QGK/ QGK/ QGK/ QGK/ QGK/ QGK/ QGK/ QGK/ QGK/ QGK/ QGK/ QGK/ QGK/ QGK/ QGK/ QGK/ QGK/ QGK/ GK/ GK/ GK/ GK/ GK/ GK/ GK/ GK/ GK/ GK/ GK/ GK/ GKN/ GKN/ GKN/ GKN/ GKN/ GKN/ GKN/ GKN/ GKN/ GKN/ GKN/ GKN/ GKN GKN GKN GKN GKN GKN GKN GKN GKN GKN GKN GKN GKN GKN GKN GKN GKN GKN GKN GKN GKN GKN GKN GKN N N N N N N N N N N N N             NKG( NKG( NKG( NKG( NKG( NKG( NKG( NKG( NKG( NKG( NKG( NKG( NKG( NKG( NKG( NKG( NKG( NKG( NKG( NKG( NKG( NKG( NKG( NKG( NKG( NKG( NKG( NKG( NKG( NKG( NKG( NKG( NKG( NKG( NKG( NKG( NKG( NKG( NKG( NKG( NKG( NKG( NKG( NKG( NKG( NKG( NKG( NKG( NKG( NKG( NKG( NKG( NKG( NKG( NKG( NKG( NKG( NKG( NKG( NKG( G( G( G( G( G( G( G( G( G( G( G( G( G( G( G( G( G( G( G( G( G( G( G( G( G( G( G( G( G( G( G( G( G( G( G( G( G( G( G( G( G( G( G( G( G( G( G( G( G( G( G( G( G( G( G( G( G( G( G( G( GLO( GLO( GLO( GLO( GLO( GLO( GLO( GLO( GLO( GLO( GLO( GLO( GLO( GLO( GLO( GLO( GLO( GLO( GLO( GLO( GLO( GLO( GLO( GLO( GLO( GLO( GLO( GLO( GLO( GLO( GLO( GLO( GLO( GLO( GLO( GLO( GLO( GLO( GLO( GLO( GLO( GLO( GLO( GLO( GLO( GLO( GLO( GLO( GLO( GLO( GLO( GLO( GLO( GLO( GLO( GLO( GLO( GLO( GLO( GLO( GLO( GLO( GLO( GLO( GLO( GLO( GLO( GLO( GLO( GLO( GLO( GLO( LO LO LO LO LO LO LO LO LO LO LO LO LO LO LO LO LO LO LO LO LO LO LO LO LO LO LO LO LO LO LO LO LO LO LO LO LO LO LO LO LO        NCG+ NCG+ NCG+ NCG+ NCG+ NCG+ NCG+ NCG+ NCG+ NCG+ NCG+ NCG+ NCG+ NCG+ NCG+ NCG+ NCG+ NCG+ NCG+ NCG+ NCG+ NCG+ NCG+ NCG+ NCG+ NCG+ NCG+ NCG+ NCG+ NCG+ NCG+ NCG+ NCG+ NCG+ NCG+ NCG+ NCG+ NCG+ NCG+ NCG+ NCG+ NCG+ NCG+ NCG+ NCG+ NCG+ NCG+ NCG+ NCG+ NCG+ NCG+ NCG+ NCG+ NCG+ NCG+ NCG+ NCG+ CG+ CG+ CG+ CLG+ CLG+ CLG+ CLG+ CLG+ CLG+ CLG+ CLG+ CLG+ CLG+ CLG+ CLG+ CLG+ CLG+ CLG+ CLG+ CLG+ CLG+ CLG+ CLG+ CLG+ CLG+ CLG+ CLG+ CLG+ CLG+ CLG+ CLG+ CLG+ CLG+ CLG+ CLG+ CLG+ CLG+ CLG+ CLG+ CLG+ CLG+ CLG+ CLG+ CLG+ CLG+ CLG+ CLG+ CLG+ CLG+ CLG+ CLG+ CLG+ CLG+ CLG+ CLG+ CLG+ CLG+ CLG+ CLG+ CLG+ CLG+ CLG+ CLG+ CLG+ CLG+ CLG+ CLG+ CLG+ CLG+ CLG+ CLG+ CLG+ CLG+ CLG+ CLG+ CLG+ CLG+ CLG+ CLG+ CLG+ CLG+ CLG+ CLG+ CLG+ CLG+ CLG+ CLG+ CLG+ CLG+ CLG+ CLG+ CLG+ CLG+ CLG+ CLG+ CLG+ CLG+ CLG+ CLG+ CLG+ CLG+ CLG+ CLG+ CLG+ CLG+ CLG+ CLG+ CLG+ CLG+ CLG+ CLG+ CLG+ CLG+ CLG+ CLG+ CLG+ CLG+ CLG+ CLG+ CLG+ CLG+ CLG+ CLG+ CLG+ CLG+ CLG+ CLG+ CLG+ CLG+ CLG+ CLG+ CLG+ CLG+ CLG+ CLG+ CLG CLG CLG CLG CLG CLG CLG CLG CLG CLG CLG CLG CLG CLG CLG CLG CLG CLG CLG CLG CLG CLG CLG CLG CLG CLG CLG CLG CLG CLG CLG CLG CLG CLG CLG CLG CLG CLG CLG CLG CLG CLG CLG CLG CLG CLG CLG CLG CLG/ CLG/ CLG/ CLG/ CLG/ CLG/ CLG/ CLG/ CLG/ CLG/ CLG/ CLG/ CLG/ CLG/ CLG/ CLG/ CLG/ CLG/ CLG/ CLG/ CLG/ CLG/ CLG/ CLG/ CLG/ CLG/ CLG/ CLG/ CLG/ CLG/ CLG/ CLG/ CLG/ CLG/ CLG/ CLG/ CLG/ CLG/ CLG/ CLG/ CLG/ CLG/ CLG/ CLG/ CLG/ CLG/ CLG/ CLG/ CLG/ CLG/ CLG/ CLG/ CLG/ CLG/ CLG/ CLG/ CLG/ CLG/ CLG/ CLG/ CLG/ CLG/ CLG/ CLG/ CLG/ CLG/ CLG/ CLG/ CLG/ CLG/ CLG/ CLG/ CLG/ CLG/ CLG/ CLG/ CLG/ CLG/ CLG/ CLG/ CLG/ CLG/ CLG/ CLG/ CLG/ CLG/ CLG/ CLG/ CLG/ CLG/ CLG/ CLG/ CLG/ CLG/ CLG/ CLG/ CLG/ CLG/ CLG/ CLG/ CLG/ CLG/ CLG/ CLG/ CLG/ CLG/ CLG/ CLG/ CLG/ CLG/ CLG/ CLG/ CLG/ CLG/ CLG/ CLG/ CLG/ CLG/ CLG/ CLG/ CLG/ CLG/ CLG/ CLG/ CLG/ CLG/ CLG/ CLG/ CLG/ CLG/ CLG/ CLG/ CLG/ CLG/ CLG/ CLG/ CLG/ CLG/ CLG/ CLG/ CLG/ CLG/ CLG/ CLG/ LG/ LG/ LG/ LG/ LG/ LG/ LG/ LG/ LG/ LG/ LG/ LG/ G/ G/ G/ G/ G/ G/ G/ G/ G/ G/ G/ G/ G/ G/ G/ G/ G/ G/ G/ G/ G/ G/ G/ G/ G/ G/ G/ G/ G/ G/ G/ G/ G/ G/ G/ G/ G G G G G G G G G G G G G G G G G G                               O4 O4 O4 O4 O4 O4 O4 O4 O4 O4 O4 O4 O4 O4 O4 O4 O4 O4 O4 O4 O4 O4 O4 O4 O4 O4 O4 O4 O4 O4 O4 O4 O4 O4 O4 O4 O4 O4 O4 O4 O4 O4 O4 O4 O4 O4 O4 O4 O4 O4 O4 O4 O4 O4 O4 O4 O4 O4 O4 O4 O4 O4 O4 O4 O4 O4 O4 O4 O4 O4 O4 O4 O4 O4 O4 O4 O4 O4 O4 O4 O4 O4 O4 O4 O4 O4 O4 O4 O4 O4 O4 O4 O4 O4 O4 O4 4 4 4 4 4 4 4 4 4 4 4 4 4 4 4 4 4 4 4 4 4 4 4 4 4 4 4 4 4 4 4 4 4 4 4 4 4 4 4 4 4 4 4 4 4 4 4 4 4 4 4 4 4 4 4 4 4 4 4 4 4 4 4 4 4 4 4 4 4 4 4 4 4 4 4 4 4 4 4 4 4 4 4 4 Q4 Q4 Q4 Q4 Q4 Q4 Q4 Q4 Q4 Q4 Q4 Q4 Q Q Q Q Q Q Q Q Q Q Q Q Q Q Q Q Q  R R R R R R R R R R R R R R R R R R R R R R R R       Q5 Q5 Q5 Q5 Q5 Q5 Q5 Q5 Q5 Q5 Q5 Q5 Q5 Q5 Q5 Q5 Q5 Q5 Q5 Q5 Q5 Q5 Q5 Q5 Q5 Q5 Q5 Q5 Q5 Q5 Q5 Q5 Q5 Q5 Q5 Q5 Q5 Q5 Q5 Q5 Q5 Q5 Q5 Q5 Q5 Q5 Q5 Q5 5 5 5 5 5 5 5 5 5 5 5 5 O5 O5 O5 O5 O5 O5 O5 O5 O5 O5 O5 O5 O5 O5 O5 O5 O5 O5 O5 O5 O5 O5 O5 O5 O5 O5 O5 O5 O5 O5 O5 O5 O5 O5 O5 O5 O5 O5 O5 O5 O5 O5 O5 O5 O5 O5 O5 O5 O5 O5 O5 O5 O5 O5 O5 O5 O5 O5 O5 O5 MO5 MO5 MO5 MO5 MO5 MO5 MO5 MO5 MO5 MO5 MO5 MO5 MO5 MO5 MO5 MO5 MO5 MO5 MO5 MO5 MO5 MO5 MO5 MO5 MO5 MO5 MO5 MO5 MO5 MO5 MO5 MO5 MO5 MO5 MO5 MO5 MO5 MO5 MO5 MO5 MO5 MO5 MO5 MO5 MO5 MO5 MO5 MO5 MO5 MO5 MO5 MO5 MO5 MO5 MO5 MO5 MO5 MO5 MO5 MO5 MO5 MO5 MO5 MO5 MO5 MO5 MO5 MO5 MO5 MO5 MO5 MO5 MO MO MO MO MO MO MO MO MO MO MO MO MO MO MO MO MO MO MO MO MO MO MO MO O O O O O O O O O O O O O O O O O O O O O O O O LO7 LO7 LO7 LO7 LO7 LO7 LO7 LO7 LO7 LO7 LO7 LO7 LO7 LO7 LO7 LO7 LO7 LO7 LO7 LO7 LO7 LO7 LO7 LO7 LO7 LO7 LO7 LO7 LO7 LO7 LO7 LO7 LO7 LO7 LO7 LO7 LO7 LO7 LO7 LO7 LO7 LO7 LO7 LO7 LO7 LO7 LO7 LO7 LO7 LO7 LO7 LO7 LO7 LO7 LO7 LO7 LO7 LO7 LO7 LO7 LO7 LO7 LO7 LO7 LO7 LO7 LO7 LO7 LO7 LO7 LO7 LO7 LO7 LO7 LO7 LO7 LO7 LO7 LO7 LO7 LO7 LO7 LO7 LO7 LO7 LO7 LO7 LO7 LO7 LO7 LO7 LO7 LO7 LO7 LO7 LO7 O7 O7 O7 O7 O7 O7 O7 O7 O7 O7 O7 O7 O7 O7 O7 O7 O7 O7 O7 O7 O7 O7 O7 O7 OJ7 OJ7 OJ7 OJ7 OJ7 OJ7 OJ7 OJ7 OJ7 OJ7 OJ7 OJ7 OJ7 OJ7 OJ7 OJ7 OJ7 OJ7 OJ7 OJ7 OJ7 OJ7 OJ7 OJ7 OJ7 OJ7 OJ7 OJ7 OJ7 OJ7 OJ7 OJ7 OJ7 OJ7 OJ7 OJ7 J7 J7 J7 J7 J7 J7 J7 J7 J7 J7 J7 J7 J7 J7 J7 J7 J7 J7 J7 J7 J7 J7 J7 J7 J7 J7 J7 J7 J7 J7 J7 J7 J7 J7 J7 J7 J J J J J J J J J J J J J J J J J J J J J J J J                         OI9 OI9 OI9 OI9 OI9 OI9 OI9 OI9 OI9 OI9 OI9 OI9 OI9 OI9 OI9 OI9 OI9 OI9 OI9 OI9 OI9 OI9 OI9 OI9 OI9 OI9 OI9 OI9 OI9 OI9 OI9 OI9 OI9 OI9 OI9 OI9 OI9 OI9 OI9 OI9 OI9 OI9 OI9 OI9 OI9 OI9 OI9 OI9 I9 I9 I9 I9 I9 I9 I9 I9 I9 I9 I9 I9 LI9 LI9 LI9 LI9 LI9 LI9 LI9 LI9 LI9 LI9 LI9 LI9 LI9 LI9 LI9 LI9 LI9 LI9 LI9 LI9 LI9 LI9 LI9 LI9 LI9 LI9 LI9 LI9 LI9 LI9 LI9 LI9 LI9 LI9 LI9 LI9 LI9 LI9 LI9 LI9 LI9 LI9 LI9 LI9 LI9 LI9 LI9 LI9 I9 I9 I9 I9 I9 I9 I9 I9 I9 I9 I9 I9 OIF9 OIF9 OIF9 OIF9 OIF9 OIF9 OIF9 OIF9 OIF9 OIF9 OIF9 OIF9 OIF9 OIF9 OIF9 OIF9 OIF9 OIF9 OIF9 OIF9 OIF9 OIF9 OIF9 OIF9 OIF9 OIF9 OIF9 OIF9 OIF9 OIF9 OIF9 OIF9 OIF9 OIF9 OIF9 OIF9 OIF9 OIF9 OIF9 OIF9 OIF9 OIF9 OIF9 OIF9 OIF9 OIF9 OIF9 OIF9 IF9 IF9 IF9 IF9 IF9 IF9 IF9 IF9 IF9 IF9 IF9 IF9 IFM9 IFM9 IFM9 IFM9 IFM9 IFM9 IFM9 IFM9 IFM9 IFM9 IFM9 IFM9 FM FM FM FM FM FM FM FM FM FM FM FM FM FM FM FM FM FM FM FM FM FM FM FM M M M M M M M M M M M M             MEI MEI MEI MEI MEI MEI MEI MEI MEI MEI MEI MEI MEI MEI MEI MEI MEI MEI MEI MEI MEI MEI MEI MEI MEI MEI MEI MEI MEI MEI MEI MEI MEI MEI MEI MEI MEI MEI MEI MEI MEI MEI MEI MEI MEI MEI MEI MEI EI EI EI EI EI EI EI EI EI EI EI EI EIO EIO EIO EIO EIO EIO EIO EIO EIO EIO EIO EIO EIO EIO EIO EIO EIO EIO EIO EIO EIO EIO EIO EIO EIO EIO EIO EIO EIO EIO EIO EIO EIO EIO EIO EIO IO IO IO IO IO IO IO IO IO IO IO IO IO IO IO IO IO IO IO IO IO IO IO IO CIO CIO CIO CIO CIO CIO CIO CIO CIO CIO CIO CIO CIO CIO CIO CIO CIO CIO CIO CIO CIO CIO CIO CIO CIO CIO CIO CIO CIO CIO CIO CIO CIO CIO CIO CIO CIO CIO CIO CIO CIO CIO CIO CIO CIO CIO CIO CIO CIO CIO CIO CIO CIO CIO CIO CIO CIO CIO CIO CIO CIO CIO CIO CIO CIO CIO CIO CIO CIO CIO CIO CIO CIO CIO CIO CIO CIO CIO CIO CIO CIO CIO CIO CIO CIO CIO CIO CIO CIO CIO CIO CIO CIO CIO CIO CIO IO IO IO IO IO IO IO IO IO IO IO IO IO IO IO IO IO IO IO IO IO IO IO IO AIO AIO AIO AIO AIO AIO AIO AIO AIO AIO AIO AIO AIO AIO AIO AIO AIO AIO AIO AIO AIO AIO AIO AIO AIO AIO AIO AIO AIO AIO AIO AIO AIO AIO AIO AIO AIO AIO AIO AIO AIO AIO AIO AIO AIO AIO AIO AIO AIO AIO AIO AIO AIO AIO AIO AIO AIO AIO AIO AIO AIO AIO AIO AIO AIO AIO AIO AIO AIO AIO AIO AIO AIO AIO AIO AIO AIO AIO AIO AIO AIO AIO AIO AIO AIO AIO AIO AIO AIO AIO AIO AIO AIO AIO AIO AIO IO IO IO IO IO IO IO IO IO IO IO IO IO IO IO IO IO IO IO IO IO IO IO IO IO@ IO@ IO@ IO@ IO@ IO@ IO@ IO@ IO@ IO@ IO@ IO@ IO@ IO@ IO@ IO@ IO@ IO@ IO@ IO@ IO@ IO@ IO@ IO@ O@ O@ O@ O@ O@ O@ O@ O@ O@ O@ O@ O@ @ @ @ @ @ @ @ @ @ @ @ @ @ @ @ @ @ @ @ @ @ @ @ @ @ @ @ @ @ @ @ @ @ @ @ @ @ @ @ @ @ @ @ @ @ @ @ @ @ @ @ @ @ @ @ @ @ @ @ @                         M>2 M>2 M>2 M>2 M>2 M>2 M>2 M>2 M>2 M>2 M>2 M>2 M>2 M>2 M>2 M>2 M>2 M>2 M>2 M>2 M>2 M>2 M>2 M>2 M>2 M>2 M>2 M>2 M>2 M>2 M>2 M>2 M>2 M>2 M>2 M>2 M>2 M>2 M>2 M>2 M>2 M>2 M>2 M>2 M>2 M>2 M>2 M>2 M>2 M>2 M>2 M>2 M>2 M>2 M>2 M>2 M>2 M>2 M>2 M>2 M>2 M>2 M>2 M>2 M>2 M>2 M>2 M>2 M>2 M>2 M>2 M>2 M>2 M>2 M>2 M>2 M>2 M>2 M>2 M>2 M>2 M>2 M>2 M>2 M>2 M>2 M>2 M>2 M>2 M>2 M>2 M>2 M>2 M>2 M>2 M>2 >2 >2 >2 >2 >2 >2 >2 >2 >2 >2 >2 >2 >2 >2 >2 >2 >2 >2 >2 >2 >2 >2 >2 >2 >2 >2 >2 >2 >2 >2 >2 >2 >2 >2 >2 >2 >2 >2 >2 >2 >2 >2 >2 >2 >2 >2 >2 >2 >2 >2 >2 >2 >2 >2 >2 >2 >2 >2 >2 >2 >2 >2 >2 >2 >2 >2 >2 >2 >2 >2 >2 >2 >2 >2 >2 >2 >2 >2 >2 >2 >2 >2 >2 >2 O>2 O>2 O>2 O>2 O>2 O>2 O>2 O>2 O>2 O>2 O>2 O>2 O O O O O O O O O O O O O O O O O  Q Q Q Q Q Q Q Q Q Q Q Q Q Q Q Q Q Q Q Q Q Q Q Q       O4 O4 O4 O4 O4 O4 O4 O4 O4 O4 O4 O4 O4 O4 O4 4 4 4 4 4 4 4 4 4 4 4 4 4 4 4 4 4 4 4 4 4 4 4 4 4 4 4 4 4 4 4 4 4 4 4 4 4 4 4 4 4 4 4 4 4 M4 M4 M4 M4 M4 M4 M4 M4 M4 M4 M4 M4 M4 M4 M4 M4 M4 M4 M4 M4 M4 M4 M4 M4 M4 M4 M4 M4 M4 M4 M4 M4 M4 M4 M4 M4 M4 M4 M4 M4 M4 M4 M4 M4 M4 M4 M4 M4 M4 M4 M4 M4 M4 M4 M4 M4 M4 M4 M4 M4 LM4 LM4 LM4 LM4 LM4 LM4 LM4 LM4 LM4 LM4 LM4 LM4 LM4 LM4 LM4 LM4 LM4 LM4 LM4 LM4 LM4 LM4 LM4 LM4 LM4 LM4 LM4 LM4 LM4 LM4 LM4 LM4 LM4 LM4 LM4 LM4 LM4 LM4 LM4 LM4 LM4 LM4 LM4 LM4 LM4 LM4 LM4 LM4 LM4 LM4 LM4 LM4 LM4 LM4 LM4 LM4 LM4 LM4 LM4 LM4 LM4 LM4 LM4 LM4 LM4 LM4 LM4 LM4 LM4 LM4 LM4 LM4 LM LM LM LM LM LM LM LM LM LM LM LM LM LM LM LM LM LM LM LM LM LM LM LM M M M M M M M M M M M M M M M M M M M M M M M M JM5 JM5 JM5 JM5 JM5 JM5 JM5 JM5 JM5 JM5 JM5 JM5 JM5 JM5 JM5 JM5 JM5 JM5 JM5 JM5 JM5 JM5 JM5 JM5 JM5 JM5 JM5 JM5 JM5 JM5 JM5 JM5 JM5 JM5 JM5 JM5 JM5 JM5 JM5 JM5 JM5 JM5 JM5 JM5 JM5 JM5 JM5 JM5 JM5 JM5 JM5 JM5 JM5 JM5 JM5 JM5 JM5 JM5 JM5 JM5 JM5 JM5 JM5 JM5 JM5 JM5 JM5 JM5 JM5 JM5 JM5 JM5 JM5 JM5 JM5 JM5 JM5 JM5 JM5 JM5 JM5 JM5 JM5 JM5 JM5 JM5 JM5 JM5 JM5 JM5 JM5 JM5 JM5 JM5 JM5 JM5 M5 M5 M5 M5 M5 M5 M5 M5 M5 M5 M5 M5 M5 M5 M5 M5 M5 M5 M5 M5 M5 M5 M5 M5 MH5 MH5 MH5 MH5 MH5 MH5 MH5 MH5 MH5 MH5 MH5 MH5 MH5 MH5 MH5 MH5 MH5 MH5 MH5 MH5 MH5 MH5 MH5 MH5 MH5 MH5 MH5 MH5 MH5 MH5 MH5 MH5 MH5 MH5 MH5 MH5 H5 H5 H5 H5 H5 H5 H5 H5 H5 H5 H5 H5 H5 H5 H5 H5 H5 H5 H5 H5 H5 H5 H5 H5 H5 H5 H5 H5 H5 H5 H5 H5 H5 H5 H5 H5 H H H H H H H H H H H H H H H H H H H H H H H H                         MG7 MG7 MG7 MG7 MG7 MG7 MG7 MG7 MG7 MG7 MG7 MG7 MG7 MG7 MG7 MG7 MG7 MG7 MG7 MG7 MG7 MG7 MG7 MG7 MG7 MG7 MG7 MG7 MG7 MG7 MG7 MG7 MG7 MG7 MG7 MG7 MG7 MG7 MG7 MG7 MG7 MG7 MG7 MG7 MG7 MG7 MG7 MG7 G7 G7 G7 G7 G7 G7 G7 G7 G7 G7 G7 G7 LG7 LG7 LG7 LG7 LG7 LG7 LG7 LG7 LG7 LG7 LG7 LG7 LG7 LG7 LG7 LG7 LG7 LG7 LG7 LG7 LG7 LG7 LG7 LG7 LG7 LG7 LG7 LG7 LG7 LG7 LG7 LG7 LG7 LG7 LG7 LG7 LG7 LG7 LG7 LG7 LG7 LG7 LG7 LG7 LG7 LG7 LG7 LG7 G7 G7 G7 G7 G7 G7 G7 G7 G7 G7 G7 G7 JGE7 JGE7 JGE7 JGE7 JGE7 JGE7 JGE7 JGE7 JGE7 JGE7 JGE7 JGE7 JGE7 JGE7 JGE7 JGE7 JGE7 JGE7 JGE7 JGE7 JGE7 JGE7 JGE7 JGE7 JGE7 JGE7 JGE7 JGE7 JGE7 JGE7 JGE7 JGE7 JGE7 JGE7 JGE7 JGE7 JGE7 JGE7 JGE7 JGE7 JGE7 JGE7 JGE7 JGE7 JGE7 JGE7 JGE7 JGE7 GE7 GE7 GE7 GE7 GE7 GE7 GE7 GE7 GE7 GE7 GE7 GE7 GME7 GME7 GME7 GME7 GME7 GME7 GME7 GME7 GME7 GME7 GME7 GME7 ME ME ME ME ME ME ME ME ME ME ME ME E E E E E E EL EL EL EL EL EL L L L L L L L L L L L L L L L L L L       LCG LCG LCG LCG LCG LCG LCG LCG LCG LCG LCG LCG LCG LCG LCG LCG LCG LCG LCG LCG LCG LCG LCG LCG LCG LCG LCG LCG LCG LCG LCG LCG LCG LCG LCG LCG LCG LCG LCG LCG LCG LCG LCG LCG LCG LCG LCG LCG CG CG CG CG CG CG CG CG CG CG CG CG CGM CGM CGM CGM CGM CGM CGM CGM CGM CGM CGM CGM CGM CGM CGM CGM CGM CGM CGM CGM CGM CGM CGM CGM CGM CGM CGM CGM CGM CGM CGM CGM CGM CGM CGM CGM GM GM GM GM GM GM GM GM GM GM GM GM GM GM GM GM GM GM GM GM GM GM GM GM AGM AGM AGM AGM AGM AGM AGM AGM AGM AGM AGM AGM AGM AGM AGM AGM AGM AGM AGM AGM AGM AGM AGM AGM AGM AGM AGM AGM AGM AGM AGM AGM AGM AGM AGM AGM AGM AGM AGM AGM AGM AGM AGM AGM AGM AGM AGM AGM AGM AGM AGM AGM AGM AGM AGM AGM AGM AGM AGM AGM AGM AGM AGM AGM AGM AGM AGM AGM AGM AGM AGM AGM AGM AGM AGM AGM AGM AGM AGM AGM AGM AGM AGM AGM AGM AGM AGM AGM AGM AGM AGM AGM AGM AGM AGM AGM GM GM GM GM GM GM GM GM GM GM GM GM GM GM GM GM GM GM GM GM GM GM GM GM @GM @GM @GM @GM @GM @GM @GM @GM @GM @GM @GM @GM @GM @GM @GM @GM @GM @GM @GM @GM @GM @GM @GM @GM @GM @GM @GM @GM @GM @GM @GM @GM @GM @GM @GM @GM @GM @GM @GM @GM @GM @GM @GM @GM @GM @GM @GM @GM @GM @GM @GM @GM @GM @GM @GM @GM @GM @GM @GM @GM @GM @GM @GM @GM @GM @GM @GM @GM @GM @GM @GM @GM @GM @GM @GM @GM @GM @GM @GM @GM @GM @GM @GM @GM @GM @GM @GM @GM @GM @GM @GM @GM @GM @GM @GM @GM GM GM GM GM GM GM GM GM GM GM GM GM GM GM GM GM GM GM GM GM GM GM GM GM GM> GM> GM> GM> GM> GM> GM> GM> GM> GM> GM> GM> GM> GM> GM> GM> GM> GM> GM> GM> GM> GM> GM> GM> M> M> M> M> M> M> M> M> M> M> M> M> > > > > > > > > > > > > > > > > > > > > > > > > > > > > > > > > > > > > > > > > > > > > > > > > > > > > > > > > > > > >                         L< L< L< L< L< L< L< L< L< L< L< L< L< L< L< L< L< L< L< L< L< L< L< L< L< L< L< L< L< L< L< L< L< L< L< L< L< L< L< L< L< L< L< L< L< L< L< L< < < < < < < < < < < < < J< J< J< J< J< J< J< J< J< J< J< J< J< J< J< J< J< J< J< J< J< J< J< J< J< J< J< J< J< J< J< J< J< J< J< J< J J J J J J J J J J J J             J; J; J; J; J; J; J; J; J; J; J; J; J; J; J; J; J; J; J; J; J; J; J; J; J; J; J; J; J; J; J; J; J; J; J; J; J; J; J; J; J; J; J; J; J; J; J; J; ; ; ; ; ; ; ; ; ; ; ; ; H; H; H; H; H; H; H; H; H; H; H; H; H; H; H; H; H; H; H; H; H; H; H; H; H; H; H; H; H; H; H; H; H; H; H; H; H H H H H H H H H H H H             H9 H9 H9 H9 H9 H9 H9 H9 H9 H9 H9 H9 H9 H9 H9 H9 H9 H9 H9 H9 H9 H9 H9 H9 H9 H9 H9 H9 H9 H9 H9 H9 H9 H9 H9 H9 H9 H9 H9 H9 H9 H9 H9 H9 H9 H9 H9 H9 9 9 9 9 9 9 9 9 9 9 9 9 M9 M9 M9 M9 M9 M9 M9 M9 M9 M9 M9 M9 M9 M9 M9 M9 M9 M9 M9 M9 M9 M9 M9 M9 M9 M9 M9 M9 M9 M9 M9 M9 M9 M9 M9 M9 M M M M M M M M M M M M             M7 M7 M7 M7 M7 M7 M7 M7 M7 M7 M7 M7 M7 M7 M7 M7 M7 M7 M7 M7 M7 M7 M7 M7 M7 M7 M7 M7 M7 M7 M7 M7 M7 M7 M7 M7 M7 M7 M7 M7 M7 M7 M7 M7 M7 M7 M7 M7 7 7 7 7 7 7 7 7 7 7 7 7 L7 L7 L7 L7 L7 L7 L7 L7 L7 L7 L7 L7 L7 L7 L7 L7 L7 L7 L7 L7 L7 L7 L7 L7 L7 L7 L7 L7 L7 L7 L7 L7 L7 L7 L7 L7 L L L L L L L L L L L L             L5 L5 L5 L5 L5 L5 L5 L5 L5 L5 L5 L5 L5 L5 L5 L5 L5 L5 L5 L5 L5 L5 L5 L5 L5 L5 L5 L5 L5 L5 L5 L5 L5 L5 L5 L5 L5 L5 L5 L5 L5 L5 L5 L5 L5 L5 L5 L5 5 5 5 5 5 5 5 5 5 5 5 5 Q5 Q5 Q5 Q5 Q5 Q5 Q5 Q5 Q5 Q5 Q5 Q5 Q5 Q5 Q5 Q5 Q5 Q5 Q5 Q5 Q5 Q5 Q5 Q5 Q5 Q5 Q5 Q5 Q5 Q5 Q5 Q5 Q5 Q5 Q5 Q5 Q Q Q Q Q Q Q Q Q Q Q Q             QH4 QH4 QH4 QH4 QH4 QH4 QH4 QH4 QH4 QH4 QH4 QH4 QH4 QH4 QH4 QH4 QH4 QH4 QH4 QH4 QH4 QH4 QH4 QH4 QH4 QH4 QH4 QH4 QH4 QH4 QH4 QH4 QH4 QH4 QH4 QH4 QH4 QH4 QH4 QH4 QH4 QH4 QH4 QH4 QH4 QH4 QH4 QH4 H4 H4 H4 H4 H4 H4 H4 H4 H4 H4 H4 H4 HO4 HO4 HO4 HO4 HO4 HO4 HO4 HO4 HO4 HO4 HO4 HO4 HO4 HO4 HO4 HO4 HO4 HO4 HO4 HO4 HO4 HO4 HO4 HO4 HO4 HO4 HO4 HO4 HO4 HO4 HO4 HO4 HO4 HO4 HO4 HO4 O O O O O O O O O O O O             OM2 OM2 OM2 OM2 OM2 OM2 OM2 OM2 OM2 OM2 OM2 OM2 OM2 OM2 OM2 OM2 OM2 OM2 OM2 OM2 OM2 OM2 OM2 OM2 OM2 OM2 OM2 OM2 OM2 OM2 OM2 OM2 OM2 OM2 OM2 OM2 OM2 OM2 OM2 OM2 OM2 OM2 OM2 OM2 OM2 OM2 OM2 OM2 M2 M2 M2 M2 M2 M2 M2 M2 M2 M2 M2 M2 MR2 MR2 MR2 MR2 MR2 MR2 MR2 MR2 MR2 MR2 MR2 MR2 MR2 MR2 MR2 MR2 MR2 MR2 MR2 MR2 MR2 MR2 MR2 MR2 MR2 MR2 MR2 MR2 MR2 MR2 MR2 MR2 MR2 MR2 MR2 MR2 R R R R R R R R R R R R             RL0 RL0 RL0 RL0 RL0 RL0 RL0 RL0 RL0 RL0 RL0 RL0 RL0 RL0 RL0 RL0 RL0 RL0 RL0 RL0 RL0 RL0 RL0 RL0 RL0 RL0 RL0 RL0 RL0 RL0 RL0 RL0 RL0 RL0 RL0 RL0 RL0 RL0 RL0 RL0 RL0 RL0 RL0 RL0 RL0 RL0 RL0 RL0 L0 L0 L0 L0 L0 L0 L0 L0 L0 L0 L0 L0 LQ0 LQ0 LQ0 LQ0 LQ0 LQ0 LQ0 LQ0 LQ0 LQ0 LQ0 LQ0 LQ0 LQ0 LQ0 LQ0 LQ0 LQ0 LQ0 LQ0 LQ0 LQ0 LQ0 LQ0 LQ0 LQ0 LQ0 LQ0 LQ0 LQ0 LQ0 LQ0 LQ0 LQ0 LQ0 LQ0 Q Q Q Q Q Q Q Q Q Q Q Q             QJ/ QJ/ QJ/ QJ/ QJ/ QJ/ QJ/ QJ/ QJ/ QJ/ QJ/ QJ/ QJ/ QJ/ QJ/ QJ/ QJ/ QJ/ QJ/ QJ/ QJ/ QJ/ QJ/ QJ/ QJ/ QJ/ QJ/ QJ/ QJ/ QJ/ QJ/ QJ/ QJ/ QJ/ QJ/ QJ/ QJ/ QJ/ QJ/ QJ/ QJ/ QJ/ QJ/ QJ/ QJ/ QJ/ QJ/ QJ/ J/ J/ J/ J/ J/ J/ J/ J/ J/ J/ J/ J/ JP/ JP/ JP/ JP/ JP/ JP/ JP/ JP/ JP/ JP/ JP/ JP/ JP/ JP/ JP/ JP/ JP/ JP/ JP/ JP/ JP/ JP/ JP/ JP/ JP/ JP/ JP/ JP/ JP/ JP/ JP/ JP/ JP/ JP/ JP/ JP/ P P P P P P P P P P P P             PH- PH- PH- PH- PH- PH- PH- PH- PH- PH- PH- PH- PH- PH- PH- PH- PH- PH- PH- PH- PH- PH- PH- PH- PH- PH- PH- PH- PH- PH- PH- PH- PH- PH- PH- PH- PH- PH- PH- PH- PH- PH- PH- PH- PH- PH- PH- PH- H- H- H- H- H- H- H- H- H- H- H- H- HQ- HQ- HQ- HQ- HQ- HQ- HQ- HQ- HQ- HQ- HQ- HQ- HQ- HQ- HQ- HQ- HQ- HQ- HQ- HQ- HQ- HQ- HQ- HQ- HQ- HQ- HQ- HQ- HQ- HQ- HQ- HQ- HQ- HQ- HQ- HQ- Q Q Q Q Q Q Q Q Q Q Q Q             QG, QG, QG, QG, QG, QG, QG, QG, QG, QG, QG, QG, QG, QG, QG, QG, QG, QG, QG, QG, QG, QG, QG, QG, QG, QG, QG, QG, QG, QG, QG, QG, QG, QG, QG, QG, QG, QG, QG, QG, QG, QG, QG, QG, QG, QG, QG, QG, G, G, G, G, G, G, G, G, G, G, G, G, GM, GM, GM, GM, GM, GM, GM, GM, GM, GM, GM, GM, GM, GM, GM, GM, GM, GM, GM, GM, GM, GM, GM, GM, GM, GM, GM, GM, GM, GM, GM, GM, GM, GM, GM, GM, M M M M M M M M M M M M             MH- MH- MH- MH- MH- MH- MH- MH- MH- MH- MH- MH- MH- MH- MH- MH- MH- MH- MH- MH- MH- MH- MH- MH- MH- MH- MH- MH- MH- MH- MH- MH- MH- MH- MH- MH- MH- MH- MH- MH- MH- MH- MH- MH- MH- MH- MH- MH- H- H- H- H- H- H- H- H- H- H- H- H- HL- HL- HL- HL- HL- HL- HL- HL- HL- HL- HL- HL- HL- HL- HL- HL- HL- HL- HL- HL- HL- HL- HL- HL- HL- HL- HL- HL- HL- HL- HL- HL- HL- HL- HL- HL- L L L L L L L L L L L L             LE* LE* LE* LE* LE* LE* LE* LE* LE* LE* LE* LE* LE* LE* LE* LE* LE* LE* LE* LE* LE* LE* LE* LE* LE* LE* LE* LE* LE* LE* LE* LE* LE* LE* LE* LE* LE* LE* LE* LE* LE* LE* LE* LE* LE* LE* LE* LE* E* E* E* E* E* E* E* E* E* E* E* E* KE* KE* KE* KE* KE* KE* KE* KE* KE* KE* KE* KE* KE* KE* KE* KE* KE* KE* KE* KE* KE* KE* KE* KE* KE* KE* KE* KE* KE* KE* KE* KE* KE* KE* KE* KE* KE* KE* KE* KE* KE* KE* KE* KE* KE* KE* KE* KE* E* E* E* E* E* E* E* E* E* E* E* E* KE* KE* KE* KE* KE* KE* KE* KE* KE* KE* KE* KE* KE* KE* KE* KE* KE* KE* KE* KE* KE* KE* KE* KE* KE* KE* KE* KE* KE* KE* KE* KE* KE* KE* KE* KE* KE* KE* KE* KE* KE* KE* KE* KE* KE* KE* KE* KE* E* E* E* E* E* E* E* E* E* E* E* E* EL* EL* EL* EL* EL* EL* EL* EL* EL* EL* EL* EL* L L L L L L L L L L L L L L L L L L L L L L L L L L L L L L L L L L L L             L( L( L( L( L( L( L( L( L( L( L( L( L( L( L( L( L( L( L( L( L( L( L( L( ( ( ( ( ( ( J( J( J( J( J( J( J( J( J( J( J( J( J( J( J( J( J( J( J( J( J( J( J( J( J( J( J( J( J( J( J( J( J( J( J( J( J( J( J( J( J( J( J( J( J( J( J( J( J( J( J( J( J( J( J( J( J( J( J( J( J( J( J( J( J( J( J( J( J( J( J( J( ( ( ( ( ( ( ( ( ( ( ( ( ( ( ( ( ( ( H( H( H( H( H( H( H( H( H( H( H( H( H( H( H( H( H( H( H( H( H( H( H( H( H( H( H( H( H( H( H( H( H( H( H( H( H( H( H( H( H( H( H( H( H( H( H( H( H( H( H( H( H( H( H( H( H( H( H( H( H( H( H( H( H( H( H( H( H( H( H( H( H H H H H H H H H H H H H H H H H H H H H H H H                         GD>4 GD>4 GD>4 GD>4 GD>4 GD>4 GD>4 GD>4 GD>4 GD>4 GD>4 GD>4 D>4 D>4 D>4 HD>4 HD>4 HD>4 HD>4 HD>4 HD>4 HD>4 HD>4 HD>4 HD>4 HD>4 HD>4 D>4 D>4 D>4 GD>4 GD>4 GD>4 GD>4 GD>4 GD>4 GD>4 GD>4 GD>4 GD>4 GD>4 GD>4 GD>4 GD>4 GD>4 GD>4 GD>4 GD>4 GD>4 GD>4 GD>4 GD>4 GD>4 GD>4 GD>4 GD>4 GD>4 GD>4 GD>4 GD>4 GD>4 GD>4 GD>4 GD>4 GD>4 GD>4 GD>4 GD>4 GD>4 GD>4 GD>4 GD>4 GD>4 GD>4 GD>4 GD>4 GD>4 GD>4 GD>4 GD>4 GD>4 GD>4 GD>4 GD>4 GD>4 GD>4 GD>4 GD>4 GD>4 GD>4 GD>4 GD>4 GD>4 GD>4 GD>4 GD>4 GD>4 GD>4 GD>4 GD>4 GD>4 GD>4 GD>4 GD>4 GD>4 GD>4 GD>4 GD>4 D>4 D>4 D>4 D>4 D>4 D>4 D>4 D>4 D>4 D>4 D>4 D>4 D>E4 D>E4 D>E4 D>E4 D>E4 D>E4 D>E4 D>E4 D>E4 D>E4 D>E4 D>E4 D>E4 D>E4 D>E4 D>E4 D>E4 D>E4 D>E4 D>E4 D>E4 D>E4 D>E4 D>E4 D>E4 D>E4 D>E4 D>E4 D>E4 D>E4 D>E4 D>E4 D>E4 D>E4 D>E4 D>E4 D>E4 D>E4 D>E4 D>E4 D>E4 D>E4 D>E4 D>E4 D>E4 D>E4 D>E4 D>E4 D>E4 D>E4 D>E4 D>E4 D>E4 D>E4 D>E4 D>E4 D>E4 D>E4 D>E4 D>E4 D>E4 D>E4 D>E4 D>E4 D>E4 D>E4 D>E4 D>E4 D>E4 D>E4 D>E4 D>E4 E E E E E E E E E E E E E E E E E E E E E E E E                         <@E- <@E- <@E- <@E- <@E- <@E- <@E- <@E- <@E- <@E- <@E- <@E- <@E- <@E- <@E- <@E- <@E- <@E- <@E- <@E- <@E- <@E- <@E- <@E- <@E- <@E- <@E- <@E- <@E- <@E- <@E- <@E- <@E- <@E- <@E- <@E- <@E- <@E- <@E- <@E- <@E- <@E- <@E- <@E- <@E- <@E- <@E- <@E- <@E- <@E- <@E- <@E- <@E- <@E- <@E- <@E- <@E- <@E- <@E- <@E- <@E- <@E- <@E- <@E- <@E- <@E- <@E- <@E- <@E- <@E- <@E- <@E- <@E- <@E- <@E- <@E- <@E- <@E- <@E- <@E- <@E- <@E- <@E- <@E- <@E- <@E- <@E- <@E- <@E- <@E- <@E- <@E- <@E- <@E- <@E- <@E- <@E <@E <@E <@E <@E <@E <@E <@E <@E <@E <@E <@E <@E <@E <@E <@E <@E <@E <@E <@E <@E <@E <@E <@E <@E0 <@E0 <@E0 <@E0 <@E0 <@E0 <@E0 <@E0 <@E0 <@E0 <@E0 <@E0 <@E0 <@E0 <@E0 <@E0 <@E0 <@E0 <@E0 <@E0 <@E0 <@E0 <@E0 <@E0 <@E0 <@E0 <@E0 <@E0 <@E0 <@E0 <@E0 <@E0 <@E0 <@E0 <@E0 <@E0 <@E0 <@E0 <@E0 <@E0 <@E0 <@E0 <@E0 <@E0 <@E0 <@E0 <@E0 <@E0 <@E <@E <@E <@E <@E <@E <@E <@E <@E <@E <@E <@E <@E4 <@E4 <@E4 <@E4 <@E4 <@E4 <@E4 <@E4 <@E4 <@E4 <@E4 <@E4 4 4 4 4 4 4 4 4 4 4 4 4 4 4 4 4 4 4 4 4 4 4 4 4 4 4 4 4 4 4 4 4 4 4 4 4             E@<9 E@<9 E@<9 E@<9 E@<9 E@<9 E@<9 E@<9 E@<9 E@<9 E@<9 E@<9 E@<9 E@<9 E@<9 E@<9 E@<9 E@<9 E@<9 E@<9 E@<9 E@<9 E@<9 E@<9 E@<9 E@<9 E@<9 E@<9 E@<9 E@<9 E@<9 E@<9 E@<9 E@<9 E@<9 E@<9 E@<9 E@<9 E@<9 E@<9 E@<9 E@<9 E@<9 E@<9 E@<9 E@<9 E@<9 E@<9 E@<9 E@<9 E@<9 E@<9 E@<9 E@<9 E@<9 E@<9 E@<9 E@<9 E@<9 E@<9 E@<9 E@<9 E@<9 E@<9 E@<9 E@<9 E@<9 E@<9 E@<9 E@<9 E@<9 E@<9 E@<9 E@<9 E@<9 E@<9 E@<9 E@<9 E@<9 E@<9 E@<9 E@<9 E@<9 E@<9 E@<9 E@<9 E@<9 E@<9 E@<9 E@<9 E@<9 E@<9 E@<9 E@<9 E@<9 E@<9 E@<9 E@<9 E@<9 E@<9 E@<9 E@<9 E@<9 E@<9 E@<9 E@<9 E@<9 E@<9 E@<9 E@<9 E@<9 E@<9 E@<9 E@<9 E@<9 E@<9 E@<9 E@<9 E@<9 E@<9 E@<9 E@<9 E@<9 E@<9 E@<9 E@<9 E@<9 E@<9 E@<9 E@<9 E@<9 E@<9 E@<9 E@<9 E@<9 E@<9 E@<9 E@<9 E@<9 E@<9 E@<9 E@<9 E@<9 E@<9 E@<9 E@<9 E@<9 E@<9 E@<9 E@<9 E@<9 E@<9 E@<9 E@<9 E@<9 E@<9 E@<9 E@<9 E@<9 E@<9 E@<9 E@<9 E@<9 E@<9 E@<9 E@<9 E@<9 E@<9 E@<9 E@<9 E@<9 E@<9 E@<9 E@<9 E@<9 E@<9 E@<9 E@<9 E@<9 E@<9 E@<9 E@<9 E@<9 E@<9 E@<9 E@<9 E@<9 E@<9 E@<9 E@<9 E@<9 E@<9 E@<9 E@<9 E@<9 E@<9 E@<9 E@<9 E@<9 E@<9 E@<9 E@<9 E@<9 E@<9 E@<9 E@<9 E@<9 E@<9 E@<9 E@<9 E@<9 E@<9 E@<9 E@<9 E@<9 E@<9 E@<9 E@<9 E@<9 E@<9 E@<9 E@<9 E@<9 E@<9 E@<9 E@<9 E@<9 E@<9 E@<9 E@<9 E@<9 E@<9 E@<9 E@<9 E@<9 E@<9 E@<9 E@<9 E@<9 E@<9 E@<9 E@<9 E@<9 E@<9 E@<9 E@<9 E@<9 E@<9 E@<9 E@<9 E@<9 E@<9 E@<9 E@<9 E@<9 E@<9 E@<9 E@<9 E@<9 E@<9 E@<9 E@<9 E@<9 E@<9 E@<9 E@<9 E@<9 E@<9 E@<9 E@<9 E@<9 E@<9 E@<9 E@<9 E@<9 E@<9 E@<9 E@<9 E@<9 E@<9 E@<9 E@<9 E@<9 E@<9 E@<9 E@<9 E@<9 E@<9 E@<9 E@<9 E@<9 E@<9 E@<9 E@<9 E@<9 E@<9 E@<9 E@<9 E@<9 E@<9 E@<9 E@<9 E@<9 E@<9 E@<9 E@<9 E@<9 E@<9 E@<9 E@<9 E@<9 E@<9 E@<9 E@<9 E@<9 E@<9 E@<9 E@<9 E@<9 E@<9 E@<9 E@<9 E@<9 E@<9 E@<9 E@<9 E@<9 E@<9 E@<9 E@<9 E@<9 E@<9 E@<9 E@<9 E@<9 E@<9 E@<9 E@<9 E@<9 E@<9 E@<9 E@<9 E@<9 E@<9 E@<9 E@<9 E@<9 E@<9 E@<9 E@<9 E@<9 E@<9 E@<9 E@<9 E@<9 E@<9 E@<9 E@<9 E@<9 E@<9 E@<9 E@<9 E@<9 E@<9 E@<9 E@<9 E@<9 E@<9 E@<9 E@<9 E@<9 E@<9 E@<9 E@<9 E@<9 E@<9 E@<9 E@<9 E@<9 E@<9 E@<9 E@<9 E@<9 E@<9  