                                                                                                                                                                                                                                                                                                                                                                                                                                                                                                                                                                                                                                                                                                                                                                                                                                                                                                                                                                                                                                                                                                                                                                                                                                                                                                                                                0 0 H0 H0 @H0 H@H0 H@H0 HC@H0 HC@H0 HC@0H0 HC@0H0 HC@0H0 HC@0H0 HC@0H0 HC@0H0 HC@0H0 HC@0H0 HC@0H0 HC@0HH0 HC@0HH0 HC@0HH0 HC@0HH0 HC@0HH0 HC@0HH0 HC@0HH0 HC@0HH0 HC@0HH0 HC@0HH0 HC@0HH0 HC@0HH0 HC@0HH0 HC@0HH0 HC@0HH0 HC@0HH0 HC@0HH0 HC@0HH0 HC@0HH0 HC@0HH0 HC@0HH0 HC@0HH0 HC@0HH0 HC@0HH0 HC@0HH0 HC@0HH0 HC@0HH0 HC@0HH0 HC@0H0 HC@0H0 HC@0H0 HC@0H0 HC@0H0 HC@0H0 C@0H0 C@0H0 C0H C0H C0H C0 C0 C C C C C C C C C                                                           H H H H H H0 HH0 H@H0 H@H0 HC@H0 HC@H0 HC@H0 HC@H0 HC@HH0 HC@HH0 HC@HH0 HC@0HH0 HC@0HH0 HC@0HH0 HC@0HH0 HC@0HH0 HC@0HH0 HC@0HH0 HC@0HH0 HC@0HH0 HC@0HH0 HC@0HH0 HC@0HH0 HC@0HH0 HC@0HH0 HC@0HH0 HC@0HH0 HC@0HH0 HC@0HH0 HC@0HH0 HC@0HH0 HC@0HH0 HC@0HH0 HC@0HH0 HC@0HH0 HC@0HH0 HC@0HH0 HC@0HH0 HC@0HH0 HC@0HH0 HC@0HH0 HC@0HH0 HC@0HH0 HC@0HH0 HC@0HH0 HC@0HH0 HC@0HH0 HC@0HH0 HC@0HH0 HC@0HH0 HC@0HH0 HC@0HH0 HC@0HH0 HC@0HH0 HC@0HH0 HC@0HH0 HC@0HH0 HC@0HH0 HC@0HH0 HC@0HH0 HC@0HH0 HC@0HH0 HC@0HH0 HC@0HH0 HC@0HH0 HC@0HH0 HC@0HH0 HC@0HH0 HC@0HH0 HC@0HH0 HC@0HH0 HC@0HH0 HC@0HH0 HC@0HH0 HC@0HH0 HC@0HH0 HC@0HH0 HC@0HH0 HC@0HH0 HC@0HH0 HC@0HH0 HC@0HH0 HC@0HH0 HC@0HH0 HC@0HH0 HC@0HH0 HC@0HH0 HC@0HH0 HC@0HH0 HC@0HH0 HC@0HH0 HC@0HH0 HC@0HH0 HC@0HH0 HC@0HH0 HC@0HH0 HC@0HH0 HC@0HH0 HC@0HH0 HC@0HH0 HC@0HH0 HC@0HH0 HC@0HH0 HC@0HH0 HC@0HH0 HC@0HH0 HC@0HH0 HC@0HH0 HC@0HH0 HC@0HH0 HC@>0HH0 HC@>0HH0 HC@>0HH0 HC@>0HH0 HC@>0HGH0 HGC@>0HGH0 HGC@>0HGH0 HGC@>0HGH0 HGC@>0HGH0 HGC@>0HGH0 HGC@>0HGH0 HGC@>0GH0 HGC@>0GH0 HGC@>0GH0 HGC@>0GH0 HGC@>0GHG0 HGC@>0GHG0 HGC@>0GHG0 HGC@>0GHG0 HGC@>0GHG0 HGC@>0GHG0 HGC@>0GHG0 HGC@>0GHG0 HGC@>0GHG0 HGC@>0GHG0 HGC@>0GHG0 HGC@>0GHG0 HGC>0GHG0 HGC>0GHG0 HGC>0GHG0 HGC>0GHG0 HGC>0GHG0 GC>0GHG0 GC>0GHG0 GC>0GHG0 GC>0GG0 GC>0GG0 GC>0GG0 GC>0GG0 GC>0GG0 GC>0GG0 GC>0GG0 GC>0GG0 GC>0GG0 GC>0GG0 GC>0GG0 GC>0GG0 GC>0GG0 GC>0GG0 GC>0GG0 GC>0GG0 GC>0GG0 GC>0GG0 GC>0GG0 GC>0GG0 GC>0GG0 GC>0GG0 GC>0GG0 GC>0GG0 GC>0GG0 GC>0GG0 GC>0GG0 GC>0GG0 GC>0GG0 GC>0GG0 GC>0GG0 GC>0GG0 GC>0GG0 GC>0GG0 GC>0GG0 GC>0GG0 GC>0GG0 GC>0GG0 GC>0GG0 GC>0GG0 GC>0GG0 GC>0GG0 GC>0GG0 GC>0GG0 GC>0GG0 GC>0GG0 GC>0GG0 GC>0GG0 GC>0GG0 GC>0GG0 GC>0GG0 GC>0GG0 GC>0GG0 GC>0GG0 GC>0GG0 GC>0GG0 GC>0GG0 GC>0GG0 GC>0GG0 GC>0GG0 GC>0GG0 GC>0GG0 GC>0GG0 GC>0GG0 GC>0GG0 GC>0GG0 GC>0GG0 GC>0GG0 GC>0GG0 GC>0GG0 GC>0GG0 GC>0GG0 GC>0GG0 GC>0GG0 GC>0GG0 GC>0GG0 GC>0GG0 GC>0GG0 GC>0GG0 GC>0GG0 GC>0GG0 GC>0GG0 GC>0GG0 GC>0GG0 GC>0GG0 GC>0GG0 GC>0GG0 GC>0GHG0 GC>0GHG0 GC>0GHG0 GC>0GHG0 GC>0GHG0 GC>0GHG0 GC>0GHG0 GC>@0GHG0 GC>@0GHG0 GC>@0HG0 GC>@0HG0 GC>@0HG0 GC>@0HG0 GC@0HG0 GC@0HG0 GC@0HGH0 GHC@0HGH0 GHC@0HGH0 GHC@0HGH0 GHC@0HGH0 GHC@0HGH0 HC@0HGH0 HC@0HGH0 HC@0HGH0 HC@0HGH0 HC@0HGH0 HC@0HGH0 HC@0HGH0 HC@0HGH0 HC@0HH0 HC@0HH0 HC@0HH0 HC@0HH0 HC@0HH0 HC@0HH0 HC@0HH0 HC@0HH0 HC@0HH0 HC@0HH0 HC@0HH0 HC@0HH0 HC@0HH0 HC@0HH0 HC@0HH0 HC@0HH0 HC@0HH0 HC@0HH0 HC@0HH0 HC@0HH0 HC@0HH0 HC@0HH0 HC@0HH0 HC@0HH0 HC@0HH0 HC@0HH0 HC@0HH0 HC@0HH0 HC@0HH0 HC@0HH0 HC@0HH0 HC@0HH0 HC@0HH0 HC@0HH0 HC@0HH0 HC@0HH0 HC@0HH0 HC@0HH0 HC@0HH0 HC@0HH0 HC@0HH0 HC@0HH0 HC@0HH0 HC@0HH0 HC@0HH0 HC@0HH0 HC@0HH0 HC@0HH0 HC@0HH0 HC@0HH0 HC@0HH0 HC@0HH0 HC@0HH0 HC@0HH0 HC@0HH0 HC@0HH0 HC@0HH0 HC@0HH0 HC@0HH0 HC@0HH0 HC@0HH0 HC@0HH0 HC@0HH0 HC@0HH0 HC@0HH0 HC@0HH0 HC@0HH0 HC@0HH0 HC@0HH0 HC@0HH0 HC@0HH0 HC@0HH0 HC@0HH0 HC@0HH0 HC@0HH0 HC@0HH0 HC@0HH0 HC@0HH0 HC@0HH0 HC@0HH0 HC@0HH0 HC@0HH0 HC@A0HJH0 HC@A0HJH0 HC@A0HJH0 HC@A0HJH0 HC@A0HJH0 HC@A0HJH0 HCA0HJH0 HCA0HJH0 HCA0HJH0 HCA0HJH0 HCA0HJH0 HCA0JHJ0 HCA0JHJ0 HJCA0JHJ0 HJCA0JHJ0 HJCA0JHJ0 HJCA0JHJ0 HJCA0JHJ0 JCA0JHJ0 JCA0JHJ0 JCA0JHJ0 JCA0JHJ0 JCA0JHJ0 JCA0JHJ0 JCA0JHJ0 JCA0JHJ0 JCA0JHJ0 JCA0JHJ0 JCA0JHJ0 JCA0JHJ0 JCA0JHJ0 JCA0JJ0 JCA0JJ0 JCA0JJ0 JCA0JJ0 JA0JJ0 JA0JJ0 JA0JJ0 JA0JJ0 JA0JJ0 JA0JJ0 JA0JJ0 JA0JJ0 JA0JJ0 JA0JJ0 JA0JJ0 JA0JJ0 JA0JJ0 JA0JJ0 JA0JJ0 JA0JJ0 JA0JJ0 JA0JJ0 JA0JJ0 JA0JJ0 JA0JJ0 JA0JJ0 JA0JJ0 JA0JJ0 JA0JJ0 JA0JJ0 JA0JJ0 JA0JJ0 JA0JJ0 JA0JJ0 JA0JJ0 JA0JJ0 JA0JJ0 JA0JJ0 JA0JJ0 JA0JJ0 JA0JJ0 JA0JJ0 JA0JJ0 JA0JJ0 JA0JJ0 JA0JJ0 JA0JJ0 JA0JJ0 JA0JJ0 JA0JJ0 JA0JJ0 JA0JJ0 JA0JJ0 JA0JJ0 JA0JJ0 JA0JJ0 JA0JJ0 JA0JJ0 JA0JJ0 JA0JJ0 JA0JJ0 JA0JJ0 JA0JJ0 JA0JJ0 JA0JJ0 JA0JJ0 JA0JJ0 JA0JJ0 JA0JJ0 JA0JJ0 JA0JJ0 JA0JJ0 JA0JJ0 JA0JJ0 JA0JJ0 JA0JJ0 JA0JJ0 JA0JJ0 JA0JJ0 JA0JJ0 JA0JJ0 JA0JJ0 JA0JJ0 JA0JJ0 J0JJ0 J0JJ0 JC0JJ0 C0JJ0 C0JJ0 C0JJ0 C0JJ0 C0JJ0 C0JJ0 C0JJ0 C0JJ0 C0JJ0 C0JJ0 C0J0 C0J0 C0LJ0 LC0LJ0 LC0LJ0 LC0LJL0 LC0LL0 LC0LL0 LC0LL0 LHC0LL0 LHC0LL0 LHC0LL0 LHC0LL0 LHC0LL0 LHC0LL0 LHC0LL0 LHC0LL0 LHC0LL0 LHC0LL0 LHC0LL0 LHC0LL0 LHC0LL0 LHC0LL0 LHC0LL0 LHC0LL0 LHC0LL0 LHC0LL0 LHC0LL0 LHC0LL0 LHC0LL0 LHC0LL0 LHC0LL0 LHC0LL0 LHCLL0 LHCLL0 LHCLL0 LHCLL0 LHCLL0 LHCLL0 LHCLL0 LHCLL0 LHCLL0 LHCLL0 LHCLL0 LHCLL0 LHCLL0 LHCLL0 LHCLL0 LHCLL0 LHCLL0 LHCLL0 LHCLL0 LHCLL0 LHCLL0 LHCLL0 LHCLL0 LHCLL0 LHCLL0 LHCLL LHCLL LHCLL LHCLL LHCLL LHCLL LHCLL LHCLL LHCLL LHCLL LHCLL LHCLL LHCLL LHCLL LHCLL LHCLL LHCLL LHCLL LHCLL LHCLL LHCLL LHCLL LHCLL LHCLL LHCLL LHCLL LHCLL LHCLL LHCLL LHCLL LHCLL LHCLL LHCLL LHCLL LHCLL LHCLL LHCLL LHCLL LHCLL LHCLL LHCLL LHCLL LHCLL LHCLL LHCLL LHCLL LHCLL LHCLL LHCLL LHCLL LHCLL LHCLL LHCLL LHCLL LHCLL LHCLL LHCLL LHCLL LHCLL LHCLL LHCLL LHCLL LHCLL LHCLL LHCLL LHCLL LHCLL LHCLL LHCLL LHCLL LHCLL LHCLL LHCLL LHCLL LHCLL LHCLL LHCLL LHCLL LHCLL LHCLL LHCLL LHCLL LHCLL LHCLL LHCLL LHCLL LHCLL LHCLL LHCLL LHCLL LHCLL LHCLL LHCLL LHCLL LHCLL LHCLL LHCLL LHCLL LHCLL LHCLL LHCLL LHCLL LHCLL LHCLL LHCLL LHCLL LHCLL LHCLL LHCLL LHCLL LHCLL LHCLL LHCL LHCL LHCL LHCL LHCL LHCL LHCL LHCL LHCL LHCL LHCL LHL LHL LHL LHL LHL LHL LHL LHL HL HL HL HL HL HL HL HL HL HL HL HL HL HL HL HL HL H H H H H H H H H H H H H H H H H H H H H H H H H H H H H H H H H H< H< H< H< H<< H<< H<< H<< H<< H<< H<< H<< H<< H<< H<< H<< H<< H<< H<< H<< H<< H<< H<< H<< H<< H<< H<< H<< H<< H<< H<< H<< H<< H<< H<< H<< H<< H<< H<< H<< H<< H<< H<< H<< H<< H<< H<< H<< H<< H<< H<< H<< H<< H<< H<< H<< H<< H<< << << << << << << << << << << << << << << << << << << << << << << << << << << << << << << << << << << << << << << << < < < < < < < E< E< E< E< E E E E E E E E ME MEM MEM MEM MEM MEM MEM MEM MEMM MEMM MEMM MEMM MEMM MEMM MEMM MEMM MEMM MEMM MEMM MEMM MEMM MEMM MEMM MEMM MEMM MEMM MEMM MEMM MEMM MEMM MEMM MEMM MEMM MEMM MEMM MEMM MEMM MEMM MEMM MEMM MEMM MEMM MEMM MEMM MEMM MEMM MEMM MEMM MEMM MEMM MEMM MEMM MMM MMM MMM MMM MMM MM MM MM MM MM MM MM MM M M M M M M M                                                  H7 H7 H7 H7 H7 H7 HC7 LHC77 LHC77 LHC77 LHC77 LHC77 LHC77 LHC77 LHC77 LHC77 LHC77 LHC7L7 LHC7L7 LHC7L7 LHC7LL7 LHC7LL7 LHC7LL7 LHC7LL7 LHC7LL7 LHC7LL7 LHC7LL7 LHC7LL7 LHC7LL7 LHC7LL7 LHC7LL7 LHC7LL7 LHC7LL7 LHC7LL7 LHC7LL7 LHC7LL7 LHC7LL7 LHC7LL7 LHC7LL7 LHC7LL7 LHC7LL7 LHC7LL7 LHC7LL7 LHC7LL7 LHC7LL7 LHC7LL7 LHC7LL7 LHC7LL7 LHC7LL7 LHC7LL7 LHC7LL7 LHGC7LL7 LHGC7LL7 LHGC7LL7 LHGC7LL7 LHGCA7LL7 LHGCA7LL7 LGCA7LL7 LGCA7LL7 LGCA7LL7 LGCA7LL7 LGCA7LL7 LGCA7LL7 LJGCA7LL7 LJGCA7LL7 LJGCA7LL7 LJGCA7LL7 LJGCA7LL7 LJGA7LJL7 LJGA7LJL7 LJGA7LJL7 LJGA7LJL7 LJGA7LJL7 LJGA7LJL7 LJGA7LJL7 LJGA7LJL7 JGA7LJL7 JGA7LJL7 JGA7LJL7 JGA7JLJ7 JGA7JLJ7 JGA7JLJ7 JGA7JLJ7 JGA7JLJ7 JGA7JLJ7 JGA7JLJ7 JGA7JJ7 JGA7JJ7 JGA7JJ7 JGA7JJ7 JGA7JJ7 JGA7JJ JGA7JJ JGHA7JJ JGHA7JJ JGHA7JJ JGHA7JJ JGHA7JJ JGHA7JJ JGHAJJ JGHACJJ JGHACJJ JGHACJJ JGHACJJ JGHCJJ JGHCJJ JHCJJ JHCJJ JHCJJ JHCJJ JHCJJ JLHCJJ JLHCJJ LHCJLJ LHCJLJ LHCJLJ LHCJLJ LHCJLJ LHCJLJ LHCLJ LHCLJ LHCLJ LHCLJ LHCLJ LHCLJ LHCLJ LHCLJ LHCLJ LHCL LHCL LHCLL LHCLL LHCLL LHCLL LHCLL LHCLL LHCLL LHCLL LHCLL LHCLL LHCLL LHCLL LHCLL LHCLL LHCLL LHCLL LHCLL LHCLL LHCLL LHCLL LHGCALL LHGCALL LHGCALL LHGCALL LHGCALL LHGCALL LHGCALL LHGCALL LHGCALL LHGCALL LHGCALL LHGCALL LHGCALL LHGCALL LHGCALL LHGCALL LHGCALL LHGCALL LHGCALL LJGCALL LJGCALJL LJGCALJL LJGCALJL LJGCALJL LJGCALJL LJGALJL LJGALJL LJGALJL LJGALJL LJGALJL LJGALJL LJGALJLJ LJGALJLJ LJGAJLJ LJGAJLJ LJGAJLJ JGAJLJ JGAJLJ JGAJJ JGAJJ JGAJJ JGAJJ JGAJJ JGAJJ JGAJJ JGAJJ JGAJJ JGAJJ JGAJJ JGAJJ JGAJJ JGAJJ JGAJJ JGAJJ JGAJJ JGAJJ JGAJJ JGAJJ JGAJJ JGAJJ JGAJJ JGAJJ JGAJJ JGAJJ JGAJJ JGAJJ JGAJJ JGAJJ JGAJJ JGAJJ JGAJJ JGAJJ JGAJJ JGAJJ JGAJJ JGAJJ JGAJJ JGAJJ JGAJJ JGAJJ JGAJ JGAJ JGAJ JGAJ JGAJ JGAJ JGAJ JG9J JG9J JG9J JG9J JG9J JG9J 9J 9J 9J 9J 9J 9J9 9J9 9J9 9J9 9J9 9J9 9J9 99 99 99 99 99 99 99 99 99 99 99 99 99 99 99 99 99 99 99 99 99 99 99 99 99 99 99 99 99 99 99 99 99 99 99 99 99 99 99 99 99 99 99 99 99 99 99 99 99 99 99 99 99 99 99 99 99 99 99 99 99 9 9                                   H H H@ H@ H@ H@ H@ H@ H@ H@ H@ H@ H@ H@ H@ H@ H@ H@ H@ H@ HH@H HH@H HH@H HH@H HH@H HH@H HH@H HH@H HH@H HH@H HH@H HH@H HH@H HH@H HH@H HH@H HH@H HH@H HH@HH HH@HH HH@HH HH@HH HH@HH HH@HH HH@HH HH@HH HH@HH HH@HH HH@HH HH@HH HH@HH HH@HH HH@HH HH@HH HH@HH HH@HH HH@HH HH@HH HH@HH HH@HH HH@HH HH@HH HH@HH HH@HH HH@HH HH@HH H@HH H@HH H@HH H@HH H@HH HHH HHH HHH HHH HHH HHH HHH HHH HHH HH HH HH HH HH HH HH HH HH HH H H H H H H H                                     @4 @4 H@4 H@4 H@4 H@4 H@4 H@4 H@4 H@4 H@4 H@4O4 OH@4O4 OH@4O4 OH@4O4 OH@4O4 OH@4O4 OH@4O4 OH@4O4 OH@4O4 OH@4OO4 OH@4OO4 OH@4OO4 OH@4OO4 OH@4OO4 OH@4OO4 OH@4OO4 OH@4OO4 OH@4OO4 OH@4OO4 OH@4OO4 OH@4OO4 OH@4OO4 OH@4OO4 OH@4OO4 OH@4OO4 OH@4OO4 OH@4OO4 OH@4OO4 OH@4OO4 OH@4OO4 OH@4OO4 OH@4OO4 OH@4OO4 OH@4OO4 OH@4OO4 OH@4OO4 OH@4OO4 OH@4OO4 OH@4OO4 OH@4OO4 OH@4OO4 OH@4OO4 OH@4OO4 OH@4OO4 OH@4OO4 OH@4OO4 OH@4OO4 OH@4OO4 OH@4OO4 OH@4OO4 OH@4OO4 OH@4OO4 OH@4OO4 OH@4OO4 OH@4OO4 OH@4OO4 OH@4OO4 OH@4OO4 OH@4OO4 OH@4OO4 OH@4OO4 OH@4OO4 OH@4OO4 OH@4OO4 OH@4OO4 OH@4OO4 OH@4OO4 OH@4OO4 OH@4OO4 OH@4OO4 OH@4OO4 OH@4OO4 OH@4OO4 OH@4OO4 OH@4OO4 OH@4OO4 OH@4OO4 OH@4OO4 OH@4OO4 OH@4OO4 OH@4OO4 OH@4OO4 OH@4OO4 OH@4OO4 OH@4OO4 OH@4OO4 OH@4OO4 OH@4OO4 OH@4OO4 OH@4OO4 OH@4OO4 OH@4OO4 OH@4OO4 OH@4OO4 OH@4OO4 OH@4OO4 OH@4OO4 OH@4OO4 OH@4OO4 OH@4OO4 OH@4OO4 OH@4OO4 OH@45OO4 OH@45OO4 OH@>45OO4 OH@>45OO4 OH@>45OO4 OH@>45OO4 OH@>45OO45 OH@>45OO45 OHG@>5OO45 OHG@>5OO45 OG@>5OO45 OG@>5OO45 OG@>5OO45 OG@>5OO45 OG@>5OO45 OG@>5OO45 OG@>5OO45 OG@>5OO5 OG@>5OO5 OG@>5OO5 OG@>5OO5 OG@>5OO5 OG@>5OO5 OG@>5OO5 OG@>5OO5 OG@>5OO5 OG@>5OO5 OG@>5OO5 OG@>5OO5 OG@>5OO5 OG@>5OO5 OG@>5OO5 OG@>5OO5 OG@>5OO5 OG@>5OO5 OG@>5OO5 OG>5OO5 OG>5OO5 OG>5OO5 OG>5OO5 OG>5OO5 OG>5OO5 OG>5OO5 OG>5OO5 OG>5OO5 OG>5OO5 OG>5OO5 OG>5OO5 OG>5OO5 OG>5OO5 OG>5OO5 OG>5OO5 OG>5OO5 OG>5OO5 OG>5OO5 OG>5OO5 OG>5OO5 OG>5OO5 OG>5OO5 OG>5OO5 OG>5OO5 OG>5OO5 OG>5OO5 OG>5OO5 OG>5OO5 OG>5OO5 OG>5OO5 OG>5OO5 OG>5OO5 OG>5OO5 OG>5OO5 OG>5OO5 OG>5OO5 OG>5OO5 OG>5OO5 OG>5OO5 OG>5OO5 OG>5OO5 OG>5OO5 OG>5OO5 OG>5OO5 OG>5OO5 OG>5OO5 OG>5OO5 OG>5OO5 OG>5OO5 OG>5OO5 OG>5OO5 OG>5OO5 OG>5OO5 OG>5OO5 OG>5OO5 OG>5OO5 OG>5OO5 OG>5OO5 OG>5OO5 OG>5OO5 OG>5OO5 OG>5OO5 OG>5OO5 OG>5OO5 OG>5OO5 OG>5OO5 OG>5OO5 OG>5OO5 OG>5OO5 OG>5OO5 OG>5OO5 OG>5OO5 OG>5OO5 OG>OO5 OG>OO5 OG>OO5 OG>OO5 OG>OO5 OG>OO5 OG>OO5 OG>OO5 OG>OO5 OG>OO4 OG>OO4 OG>4OO4 OG>4OO4 OG>4OO4 OGH>@4OO4 OGH>@4OO4 OGH>@4OO4 OGH>@4OO4 OGH>@4OO4 OGH>@4OO4 OGH>@4OO4 OGH>@4OO4 OGH>@4OO4 OGH>@4OO4 OGH>@4OO4 OGH>@4OO4 OGH>@4OO4 OH>@4OO4 OH>@4OO4 OH>@4OO4 OH>@4OO4 OH>@4OO4 OH>@4OO4 OH>@4OO4 OH>@4OO4 OH>@4OO4 OH@4OO4 OH@4OO4 OH@4OO4 OH@4OO4 OH@4OO4 OH@4OO4 OH@4OO4 OH@4OO4 OH@4OO4 OH@4OO4 OH@4OO4 OH@4OO4 OH@4OO4 OH@4OO4 OH@4OO4 OH@4OO4 OH@4OO4 OH@4OO4 OH@4OO4 OH@4OO4 OH@4OO4 OH@4OO4 OH@4OO4 OH@4OO4 OH@4OO4 OH@4OO4 OH@4OO4 OH@4OO4 OH@4OO4 OH@4OO4 OH@4OO4 OH@4OO4 OH@4OO4 OH@4OO4 OH@4OO4 OH@4OO4 OH@4OO4 OH@4OO4 OH@4OO4 OH@4OO4 OH@4OO4 OH@4OO4 OH@4OO4 OH@4OO4 OH@4OO4 OH@4OO4 OH@4OO4 OH@4OO4 OH@4OO4 OH@4OO4 OH@4OO4 OH@4OO4 OH@4OO4 OH@4OO4 OH@4OO4 OH@4OO4 OH@4OO4 OH@4OO4 OH@4OO4 OH@4OO4 OH@4OO4 OH@4OO4 OH@4OO4 OH@4OO4 OH@4OO4 OH@4OO4 OH@4OO4 OH@4OO4 OH@4OO4 OH@4OO4 OH@4OO4 OH@4OO4 OH@4OO4 OH@4OO4 OH@4OO4 OH@OO4 OH@OO4 OH@OO4 OH@OO4 OH@OO4 OH@OO4 OH@AOO4 OH@AOO4 OH@AOO4 OH@AOO4 OH@AOO OH@AOO OH@AOO OHJ@A2OO OHJ@A2OO OHJ@A2OO2 OHJ@A2OO2 OHJ@A2OO2 OHJ@A2OO2 OHJ@A2OO2 OJ@A2OO2 OJ@A2OO2 OJ@A2OO2 OJ@A2OO2 OJ@A2OO2 OJ@A2OO2 OJ@A2OO2 OJ@A2OO2 OJ@A2OO2 OJ@A2OO2 OJ@A2OO2 OJ@A2OO2 OJ@A2OO2 OJ@A2OO2 OJ@A2OO2 OJA2OO2 OJA2OO2 OJA2OO2 OJA2OO2 OJA2OO2 OJA2OO2 OJA2OO2 OJA2OO2 OJA2OO2 OJA2OO2 OJA2OO2 OJA2OO2 OJA2OO2 OJA2OO2 OJA2OO2 OJA2OO2 OJA2OO2 OJA2OO2 OJA2OO2 OJA2OO2 OJA2OO2 OJA2OO2 OJA2OO2 OJA2OO2 OJA2OO2 OJA2OO2 OJA2OO2 OJA2OO2 OJA2OO2 OJA2OO2 OJA2OO2 OJA2OO2 OJA2OO2 OJA2OO2 OJA2OO2 OJA2OO2 OJA2OO2 OJA2OO2 OJA2OO2 OJA2OO2 OJA2OO2 OJA2OO2 OJA2OO2 OJA2OO2 OJA2OO2 OJA2OO2 OJA2OO2 OJA2OO2 OJA2OO2 OJA2OO2 OJA2OO2 OJA2OO2 OJA2OO2 OJA2OO2 OJA2OO2 OJA2OO2 OJA2OO2 OJA2OO2 OJA2OO2 OJA2OO2 OJA2OO2 OJA2OO2 OJA2OO2 OJA2OO2 OJA2OO2 OJA2OO2 OJA2OO2 OJA2OO2 OJA2OO2 OJA2OO2 OJA2OO2 OJA2OO2 OJA2OO2 OJA2OO2 OJA2OO2 OJA2OO2 OJA2OO2 OJA2OO2 OA2OO2 OA2OO2 OA2OO2 OA2OO2 OA2OO OA2OO OAOO OAOO OAOO OAOO OAOO OAOO OAOO OAOO OAOO OLAOO OLAOO OLAOO OLAOO OLAOO OLAOO OLAOO OLAOO OLAOO OLAOO OLAOO OLAOO OLAOO OLAOO OLACOO OLACOO OLAC0OO OLAC0OO OLAC0OO OLAC0OO OLAC0OO OLAC0OO OLAC0OO0 OLAC0OO0 OLAC0OO0 OLC0OO0 OLC0OO0 OLC0OO0 OLC0OO0 OLC0OO0 OLC0OO0 OLC0OO0 OLC0OO0 OLC0OO0 OLC0OO0 OLC0OO0 OLC0OO0 OLC0OO0 OLC0OO0 OLC0OO0 OLC0OO0 OLC0OO0 OLC0OO0 OLC0OO0 OLC0OO0 OLC0OO0 OLC0OO0 OLC0OO0 OLC0OO0 OLC0OO0 OLC0OO0 OLC0OO0 OLC0OO0 OLC0OO0 OLC0OO0 OLC0OO0 OLC0OO0 OLC0OO0 OLC0OO0 OLC0OO0 OLC0OO0 OLC0OO0 OLC0OO0 OLC0OO0 OLC0OO0 OLC0OO0 OLC0OO0 OLC0OO0 OLC0OO0 OLC0OO0 OLC0OO0 OLC0OO0 OLC0OO0 OLC0OO0 OLC0OO0 OLC0OO0 OLC0OO0 OLC0OO0 OLC0OO0 OLC0OO0 OLC0OO0 OLC0OO0 OLC0OO0 OLC0OO0 OLC0OO0 OLC0OO0 OLC0OO0 OLC0OO0 OLC0OO0 OLC0OO0 OLC0OO0 OLC0OO0 OLC0OO0 OLC0OO0 OLC0OO0 OLC0OO0 OLC0OO0 OLC0OO0 OLC0OO0 OLC0OO0 OLC0OO0 OLC0OO0 OLC0OO0 OLC0OO0 OLC0OO0 OLC0OO0 OLC0OO0 OLC0OO0 OLC0OO0 OLC0OO0 OLC0OO0 OLC0OO0 OLC0OO0 OLC0OO0 OLC0OO0 OLC0OO0 OLC0OO0 OLC0OO0 OLC0OO0 OLC0OO0 OLC0OO0 OLC0OO0 OLC0OO0 OLC0OO0 OLC0OO0 OLC0OO0 OLC0OO0 OLC0OO0 OLC0OO0 OLC0OO0 OLC0OO0 OLC0OO0 OLC0OO0 OLC0OO0 OLC0OO0 OLC0OO0 OLC0OO0 OLC0OO0 OLC0OO0 OLC0OO0 OLC0OO OLC0OO OLC0OO OLC0OO OL0OO OL0OO OL0OO OL0OO OLOO OLOO OLOO OLOO OLOO OLOO OLOO OLOO OLOO OLOO OLOO OLOO OLOO OLOO OLOO OLOO OLO OLO OLO OLO OLO OLO OLO OLO OLO OLO OLO OLO OLO OLO OLO OLO OLO OLO OLO OLO OLO OLO OLO OLO OLO OLO OLO OLO OLO OL OL OL OL OL OL OL OL OL L L L L L L L L L L L                                           C C C C JC JC JC JC:M: JC:M: JC:M: JC:M: JC:M: JC:M: JC:MM: JC:MM: JC:MM: JC:MM: JC:MM: MJC:MM: MJC:MM: MJC:MM: MJC:MM: MJC:MM: MJC:MM: MJC:MM: MJC:MM: MJC:MM: MJC:MM: MJC:MM: MJC:MM: MJC:MM: MJC:MM: MJC:MM: MJC:MM: MJC:MM: MJC:MM: MJC:MM: MJC:MM: MJC:MM: MJC:MM: MJC:MM: MJC:MM: MJC:MM: MJC:MM: MJC:MM: MJC:MM: MJC:MM: MJC:MM: MJC:MM: MJC:MM: MJC:MM: MJC:MM: MJC:MM: MJC:MM: MJC:MM: MJC:MM: MJC:MM: MJC:MM: MJC:MM: MJC:MM: MJC:MM: MJC:MM: MJC:MM: MJC:MM: MJC:MM: MJC:MM: MJC:MM: MJC:MM: MJC:MM: MJC:MM: MJC:MM: MJC:MM: MJC:MM: MJC:MM: MJC:MM: MJC:MM: MJC:MM: MJC:MM: MJC:MM: MJC:MM: MJC:MM: MJC:MM: MJC:MM: MJC:MM: MJC:MM: MJC:MM: MJC:MM: MJC:MM: MJC:MM: MJC:MM: MJC:MM: MJC:MM: MJC:MM: MC:MM: MC:MM: MCMM: MCMM: MCM: MCM: MCM: MCM: MCM: MCM: MCM: MC: HC: HC: HC: HL HL HL HL HL HL HL HL LHL LHL LHL LHL LHL LHLL LHLL LHLL LHLL LHLL LHLL LHLL LHLL LHLL LHLL LHLL LHLL LHLL LHLL LHLL LHLL LHLL LHLL LHLL LHLL LHLL LHLL LHLL LHLL LHLL LHLL LHLL LHLL LHLL LHLL LHLL LHLL LHLL LHLL LHLL LHLL LHLL LHLL LHLL LHLL LHLL LHLL LHLL LHLL LHLL LHLL LHLL LHLL LHLL LHLL LHLL LHLL LHLL LHLL LHLL LHLL LHLL LHLL LHLL LHLL LLL LLL LLL LLL LLL LLL LLL LLL LLL LLL LLL LLL LLL LLL LLL LLL LL LL LL L L L L L L                                    E E E E E JE9 JE9M JE9M9 JE9M9 JE9M9 MJE9M9 MJE9MM9 MJE9MM9 MJE9MM9 MJE9MM9 MJE9MM9 MJE9MM9 MJE9MM9 MJE9MM9 MJE9MM9 MJE9MM9 MJE9MM9 MJE9MM9 MJE9MM9 MJE9MM9 MJE9MM9 MJE9MM9 MJE9MM9 MJE9MM9 MJE9MM9 MJE9MM9 MJE9MM9 MJE9MM9 MJE9MM9 MJE9MM9 MJE9MM9 MJE9MM9 MJE9MM9 MJE9MM9 MJE9MM9 MJE9MM9 MJE9MM9 MJE9MM9 MJE9MM9 MJE9MM9 MJE9MM9 MJE9MM9 MJE9MM9 MJE9MM9 MJE9MM9 MJE9MM9 MJE9MM9 MJE9MM9 MJE9MM9 MJE9MM9 MJE9MM9 MJE9MM9 MJE9MM9 MJE9MM9 MJE9MM9 MJE9MM9 MJE9MM9 MJE9MM9 MJE9MM9 MJE9MM9 MJE9MM9 MJE9MM9 MJE9MM9 MJE9MM9 MJE9MM9 MJE9MM9 MJE9MM9 MJE9MM9 MJE9MM9 MJE9MM9 MJE9MM9 MJE9MM9 MJE9MM9 MJE9MM9 MJE9MM9 MJE9MM9 MJE9MM9 MJE9MM9 MJE9MM9 MJE9MM9 MJE9MM9 MJE9MM9 MJ9MM9 MJ9MM9 MJ9MM9 MJ9MM9 MJ9MM9 MJ9MM9 MJ9MM9 MJ9MM9 MJ9MM9 MJ9MM9 MJ9MM9 MJ9MM9 MJ9MM9 MJ9MM MJ9MM MJ9MM MJ9MM MJ9MM MJ9MM MJ9MM MJ9MM MJ9MM MJMM MJMM MJMM MJMM MJMM MJMM MJMM MJMM MJMM MJMM MJMM MJMM MJMM MJMM MJMM MJMM MJMM MJMM MJMM MJMM MJMM MJMM MJMM MJMM MJMM MJMM MJMM MJMM MJMM MJMM MJMM MJMM MJMM MJMM MJMM MJMM MJMM MJMM MJMM MJMM MJMM MJMM MJMM MJMM MJMM MJMM MJMM MJMM MJMM MJMM MJMM MJMM MJMM MJMM MJMM MJMM MJMM MJMM MJMM MJMM MJMM MJMM MJMM MJMM MJMM MJMM MJMM MJMM MJMM MJMM MJMM MJMM MJMM MJMM MJMM MJMM MJMM MJMM MJMM MJMM MJMM MJMM MJMM MJMM MJMM MJMM MJMM MJMM MJMM MJMM MJMM MJMM MJMM MJMM MJMM MJMM MJMM MJMM MJMM MJMM MJMM MJMM MJMM MJMM MJMM MJMM MJMM MJMM MJMM MJMM MJMM MJMM MJMM MJMM MJMM MJMM MJMM MJMM MJMM MJMM MJMM MJMM MJMM MJMM MJMM MJMM JMM JMM JMM JFMM JFMM JFMM JFMM JFMM JFMM JFMM JFMM JFM JFM JFM JFM7 JFM7 JFM7 JF7M7 JF7M7 JF7M7 JF7M7 JF7M7 F7M7 F7M7 F7M7 F7M7 F77 F77 F77 F77 F77 F77 F77 F77 F77 F77 F77 F77 F77 F77 F77 F77 F77 F77 F77 F77 F77 F77 F77 F77 F77 F77 F77 F77 F77 F77 F77 F77 F77 F77 F77 F77 F77 F77 F77 F77 F77 F77 F77 F77 F77 F77 F77 F77 F77 F77 F77 F77 F77 F77 77 77 77 77 77 77 77 77 77 77 77 77 77 77 77 77 77 77 77 77 77 77 7 7 7 7 7 7 7 7 7 7 7 7 7 7 7 7  L L LO LO LO LO LO LO LO LO LO LOO LOO LOO LOO LOO OLOO OLOO OLOO OLOO OLOO OLOO OLOO OLOO OLOO OLOO OLOO OLOO OLOO OLOO OLOO OLOO OLOO OLOO OLOO OLOO OLOO OLOO OLOO OLOO OLOO OLOO OLOO OLOO OLOO OLOO OLOO OLOO OLOO OLOO OLOO OLOO OLOO OLOO OLOO OLOO OLOO OLOO OLOO OLOO OLOO OLOO OLOO OLOO OLO OLO OLO LO LO LO LO LO LO L L                                            H H H H H H H H H H H H H H H5 H55 H55 MH5Q5 MH5Q5 MH5Q5 MH5Q5 MH5Q5 MH5Q5 QMH5Q5 QMH5Q5 QMH5Q5 QMH5Q5 QMH5Q5 QMH5Q5 QMH5Q5 QMH5Q5 QMH5QQ5 QMH5QQ5 QMH5QQ5 QMH5QQ5 QMH5QQ5 QMH5QQ5 QMH5QQ5 QMH5QQ5 QMH5QQ5 QMH5QQ5 QMH5QQ5 QMH5QQ5 QMH5QQ5 QMH5QQ5 QMH5QQ5 QMH5QQ5 QMH5QQ5 QMH5QQ5 QMH5QQ5 QMH5QQ5 QMH5QQ5 QMH5QQ5 QMH5QQ5 QMH5QQ5 QMH5QQ5 QMH5QQ5 QMH5QQ5 QMH5QQ5 QMH5QQ5 QMH5QQ5 QMH5QQ5 QMH5QQ5 QMH5QQ5 QMH5QQ5 QMH5QQ5 QMH5QQ5 QMH5QQ5 QMH5QQ5 QMH5QQ5 QMH5QQ5 QMH5QQ5 QMH5QQ5 QMH5QQ5 QMH5QQ5 QMH5QQ5 QMH5QQ5 QMH5QQ5 QMH5QQ5 QMH5QQ5 QMH5QQ5 QMH5QQ5 QMH5QQ5 QMH5QQ5 QMH5QQ5 QMH5QQ5 QMH5QQ5 QMH5QQ5 QMH5QQ5 QMH5QQ5 QMH5QQ5 QMH5QQ5 QMH5QQ5 QMH5QQ5 QMH5QQ5 QMH5QQ5 QMH5QQ5 QMH5QQ5 QMH5QQ5 QMH5QQ5 QMH5QQ5 QMH5QQ5 QMH5QQ5 QMH5QQ5 QMH5QQ5 QMH5QQ5 QMH5QQ5 QMH5QQ5 QMH5QQ5 QMH5QQ5 QMH5QQ QMH5QQ QMH5QQ QMH5QQ QMH5QQ QMH5QQ QMH5QQ QMH5QQ QMH5QQ QMHQQ QMHQQ QMHQQ QMHQQ QMHQQ QMHQQ QMHQQ QMHQQ QMQQ QMQQ QMQQ QMQQ QMQQ QMQQ QMQQ QMQQ QMQQ QMQQ QMQQ QMQQ QMQQ QMQQ QMQQ QMQQ QMQQ QMQQ QMQQ QMQQ QMQQ QMQQ QMQQ QMQQ QMQQ QMQQ QMQQ QMQQ QMQQ QMQQ QMQQ QMQQ QMQQ QMQQ QMQQ QMQQ QMQQ QMQQ QMQQ QMQQ QMQQ QMQQ QMQQ QMQQ QMQQ QMQQ QMQQ QMQQ QMQQ QMQQ QMQQ QMQQ QMQQ QMQQ QMQQ QMQQ QMQQ QMQQ QMQQ QMQQ QMQQ QMQQ QMQQ QMQQ QMQQ QMQQ QMQQ QMQQ QMQQ QMQQ QMQQ QMQQ QMQQ QMQQ QMQQ QMQQ QMQQ QMQQ QMQQ QMQQ QMQQ QQQ QQQ QQQ QQQ QQQ QQQ QQQ QQQ QQQ QQQ QQQ QQQ QQQ QQQ QQQ QQQ QQQ QQQ QQQ QQQ QQQ QQQ QQQ QQQ QQQ QQQ QQQ QQQ QQQ QQQ QQQ QQQ QQQ QQQ QQQ QQQ QQQ QQQ4 QQQ4 QQQ4 Q<QQ4 Q<QQ4 Q<QQ4 Q<QQ4 QE<QQ4 QE<QQ4 QE<QQ4 QE<QQ4 QE<4QQ4 QE<4QQ4 QE<4QQ4 QE<4QQ4 QE<4QQ4 QE<4QQ4 QE<4QQ4 QE<4QQ4 QE<4QQ4 QE<4QQ4 QE<4QQ4 QE<4QQ4 QE<4QQ4 QE<4QQ4 E<4QQ4 E<4QQ4 E<4QQ4 E<4QQ4 E<4QQ4 E<4QQ4 E<4QQ4 E<4QQ4 E<4QQ4 E<4QQ4 E<4QQ4 E<4QQ4 E<4QQ4 E<4QQ4 E<4QQ4 E<4QQ4 E<4QQ4 E<4QQ4 E<4QQ4 E<4QQ4 E<4QQ4 E<4QQ4 E<4QQ4 E<4QQ4 E<4Q4 E<4Q4 E<4Q4 E<4Q4 E<4Q4 E<4Q4 E<4Q4 E<4Q4 E<4Q4 E<44 E<44 E<44 E<44 E<44 E<44 E<44 E<44 E<44 E<44 E<44 E<44 E<44 E<44 E<44 E<44 E<44 E<44 E<44 E<44 E<44 E<44 E<44 E<44 E<44 E<44 E<44 E<44 E<44 E<44 E<44 E<44 E<44 E<44 E<44 E<44 E<44 E<44 E<44 E<44 E<44 E<44 E<44 E<44 E<44 E<44 E<44 E<44 E<4 OE<4 OE<4 OE<4 OE<4 OE<4 OE<4 O4O O4O O4O O4O O4O OO OO OOO OOO OOO OOO OOO OOO OOO OOO OOO OOO OOO OOO OOO OOO OOO OOO OOO OOO OOO OOO OOO OOO OOO OOO OOO OOO OOO OOO OOO OOO OOO OOO OOO OOO OOO OOO OOO OOO OOO OOO OOO OOO OOO OOO OOO OOO OOO OOO OOO OOO OOO OOO OOO OOO OO OO OO OO OO OO O O                                                      2 2 2 G2 G22 G22 G22 G22 G22 MG22 MG22 MG22 MG22 MG>2M2 MG>2M2 MG>2M2 MG>2M2 MG>2M2 MG>2M2 MG>2M2 MG>2M2 MG>2M2 MG>2MM2 MG>2MM2 MG>2MM2 MG>2MM2 MG>2MM2 MG>2MM2 MG>2MM2 MG>2MM2 MG>2MM2 MG>2MM2 MG>2MM2 MG>2MM2 MG>2MM2 MG>2MM2 MG>2MM2 MG>2MM2 MG>2MM2 MG>2MM2 MG>2MM2 MG>2MM2 MG>2MM2 MG>2MM2 MG>2MM2 MG>2MM2 MG>2MM2 MG>2MM2 MG>2MM2 MG>2MM2 MG>2MM2 MG>2MM2 MG>2MM2 MG>2MM2 MG>2MM2 MG>2MM2 MG>2MM2 MG>2MM2 MG>2MM2 MG>2MM2 MG>2MM2 MG>2MM2 MG>2MM2 MG>2MM2 MG>2MM2 MG>2MM2 MG>2MM2 MG>2MM2 MG>2MM2 MG>2MM2 MG>2MM2 MG>2MM2 MG>2MM2 MG>2MM2 MG>2MM2 MG>2MM2 MG>2MM2 MG>2MM2 MG>2MM2 MG>2MM2 MG>2MM2 MG>2MM2 MG>2MM2 MG>2MM2 MG>2MM2 MG>2MM2 MG>2MM2 MG>2MM2 MG>2MM2 MG>2MM2 MG>2MM2 MG>2MM2 MG>2MM2 MG>2MM2 MG>2MM2 M>2MM2 M>2MM2 M>2MM2 M>2MM2 M>2MM2 M>2MM2 M>2MM2 M>2MM2 M>2MM2 M>2MM M>2MM M>2MM M>2MM M>2MM M>2MM M>2MM M2MM M2MM M2MM M2MM M2MM M2MM MMM MMM MMM MMM MMM MMM MMM MMM MMM MMM MMM MMM MMM MMM MMM MMM MMM MMM MMM MMM MMM MMM MMM MMM MMM MMM MMM MMM MMM MMM MMM MMM MMM MMM MMM MMM MMM MMM MMM MMM MMM MMM MMM MMM MMM MMM MMM MMM MMM MMM MMM MMM MMM MMM MMM MMM MMM MMM MMM MMM MMM MMM MMM MMM MMM MMM MMM MMM MMM MMM MMM MMM MMM MMM MMM MMM MMM MMM MMM MMM MMM MMM MMM MMM MMM MMM MMM MMM MMM MMM MMM MMM MMM MMM MMM MMM MMM MMM MMM MM MM MM MM MM MM MM MM MM MM MM MM MM MM MM MM MM M M M M M M M M/ M/ M/ J/ J/ J/ J7// J7// J7// J7// J7// J7// J7// LJ7// LJ7// LJ7// LJ7// LJ7// LJ7// LJ7/L/ LJ7/L/ LJ7/L/ LJ7/L/ LJ7/L/ LJ7/L/ LJ7/L/ LJ7/L/ LJ7/L/ LJ7/L/ LJ7/L/ LJ7/LL/ LJ7/LL/ LJ7/LL/ LJ7/LL/ LJ7/LL/ LJ7/LL/ LJ7/LL/ LJ7/LL/ LJ7/LL/ LJ7/LL/ LJ7/LL/ LJ7/LL/ LJ7/LL/ LJ7/LL/ LJ7/LL/ LJ7/LL/ LJ7/LL/ LJ7/LL/ LJ7/LL/ LJ7/LL/ LJ7/LL/ LJ7/LL/ LJ7/LL/ LJ7/LL/ LJ7/LL/ LJ7/LL/ LJ7/LL/ LJ7/LL/ LJ7/LL/ LJ7/LL/ LJ7/LL/ LJ7/LL/ LJ7/LL/ LJ7/LL/ LJ7/LL/ LJ7/LL/ LJ7/LL/ LJ7/LL/ LJ7/LL/ LJ7/LL/ LJ7/LL/ LJ7/LL/ LJ7/LL/ LJ7/LL/ LJ7/LL/ LJ7/LL/ LJ7/LL/ LJ7/LL/ LJ7/LL/ LJ7/LL/ LJ7/LL/ LJ7/LL/ LJ7/LL/ LJ7/LL/ LJ7/LL/ LJ7/LL/ LJ7/LL/ L7/LL/ L7/LL/ L7/LL/ L7/LL/ L7/LL/ L7/LL/ L7/LL/ L7/LL L7/LL L7/LL L7/LL L7/LL 7/LL 7/LL 7/L 7/L 7/L 7/L /L /L /L / / / / / / / /    J J J J JJ JJ JJ JJ JJ JJ JJ JJ JJ JJJ JJJ JJJ JJJ JJJ JJJ JJJ JJJ JJJ JJJ JJJ JJJ JJJ JJJ JJJ JJJ JJJ JJJ JJJ JJJ JJJ JJJ JJJ JJJ JJJ JJJ JJJ JJJ JJJ JJJ JJJ JJJ JJJ JJJ JJJ JJJ JJJ JJJ JJJ JJJ JJJ JJJ JJJ JJJ JJJ JJJ JJJ JJJ JJJ JJJ JJJ JJJ JJJ JJJ JJJ JJJ JJJ JJJ JJJ JJJ JJJ JJJ JJJ JJJ JJJ JJJ JJJ JJ JJ JJ J J J J J J J J J                              0 0 C0 C0 C0 C0 C0 C0 C0 C0 C0 C0 C0 C0 LC0 LC0 LC<0 LC<0 LC<0L0 LC<0L0 LC<0L0 LC<0L0 LC<0LL0 LC<0LL0 LC<0LL0 LC<0LL0 LC<0LL0 LC<0LL0 LC<0LL0 LC<0LL0 LC<0LL0 LC<0LL0 LC<0LL0 LC<0LL0 LC<0LL0 LC<0LL0 LC<0LL0 LC<0LL0 LC<0LL0 LC<0LL0 LC<0LL0 LC<0LL0 LC<0LL0 LC<0LL0 LC<0LL0 LC<0LL0 LC<0LL0 LC<0LL0 LC<0LL0 LC<0LL0 LC<0LL0 LC<0LL0 LC<0LL0 LC<0LL0 LC<0LL0 LC<0LL0 LC<0LL0 LC<0LL0 LC<0LL0 LC<0LL0 LC<0LL0 LC<0LL0 LC<0LL0 LC<0LL0 LC<0LL0 LC<0LL0 LC<0LL0 LC<0LL0 LC<0LL0 LC<0LL0 LC<0LL0 LC<0LL0 LC<0LL0 LC<0LL0 LC<0LL0 LC<0LL0 LC<0LL0 LC<0LL0 LC<0LL0 LC<0LL0 LC<0LL0 LC<0LL0 LC<0LL LC<0LL LC<0LL LC<0LL LC<0LL LC<0LL LC<0LL L<0LL L<0LL L<0LL L<0LL L<0LL L<0LL L<0LL L<0LL L<0LL L<0LL L<0LL L<0LL L<0LL L<0LL L<0LL L<0LL L<0LL L0LL L0LL L0LL L0LL L0LL LLL LLL LLL LLL LLL LLL LLL LLL LLL LLL LLL LLL LLL LLL LLL LLL LLL LLL LLL LLL LLL LLL LLL LLL LLL LLL LLL LLL LLL LLL LLL LLL LLL LLL LLL LLL LLL LLL LLL LLL LLL LLL LLL LLL LLL LLL LLL LLL LLL LLL LLL LLL LLL LLL LLL LLL LLL LLL LLL LLL LLL LLL LLL LLL LLL LLL LLL LLL LLL LLL LLL LLL LLL LLL LLL LLL LLL LLL LLL LLL LLL LLL LLL LLL LLL LLL LLL LLL LLL LLL LLL LLL LLL LLL LLL LLL LLL LLL LLL LLL LLL LLL LLL LLL LLL LLL LLL LLL LLL LLL LLL LLL LLL LLL LLL LLL LLL LLL LLL LLL LLL LLL LLL LLL LLL) LLL) LLL) LLL) LLL) LLL) LLL) LLL) LLL) LL) LL) ELL) ELL) ELL) ELL) ELL) ELL) E)LL) E)LL) E)LL) E)LL) E)LL) E)LL) E)LL) E)LL) E)LL) E<)L) E<)L) E<)L) E<)L) E<)L) E<)L) E<)L) E<)L) E<)L) E<)L) E<)L) E<)) E<)) E<)) E<)) E<)) E<)) E<)) E<)) E<)) E<)) E<)) E<)) E<)) E<)) E<)) E<)) E<)) E<)) E<)) E<)) E<)) E<)) E<)) E<)) E<)) E<)) E<)) E<)) E<)) E<)) E<)) E<)) E<)) E<)) E<)) E<)) E<)) E<)) E<)) E<)) E<)) E<)) E<)) E<)) E<)) E<)) E<)) E<)) E<)) E<)) E<)) E<)) <)) <)) <)) <)) <)) <)) <)) <)) <)) <)) <)) <)) <)) <)) <)) <)) <)) <) <) <) <) <) < < < < < < < <         M M M M M M M M M M MM MM MM MM MM MM MM MMM MMM MMM MMM MMM MMM MMM MMM MMM MMM MMM MMM MMM MMM MMM MMM MMM MMM MMM MMM MMM MMM MMM MMM MMM MMM MMM MMM MMM MMM MMM MMM MMM MMM MMM MMM MM MM MM MM MM MM MM MM MM MM M M M                                                      + + + + + + + + ++ ++ ++ ++ ++ >++ >++ >++ >++ >++ >++ >++ >++ >++ >++ >++ >C++ >C++ >C+H+ >C+H+ >C+H+ >C+HH+ >C+HH+ >C+HH+ >C+HH+ >C+HH+ >C+HH+ >C+HH+ H>C+HH+ H>C+HH+ H>C+HH+ H>C+HH+ H>C+HH+ H>C+HH+ H>C+HH+ H>C+HH+ H>C+HH+ H>C+HH+ H>C+HH+ H>C+HH+ H>C+HH+ H>C+HH+ H>C+HH+ H>C+HH+ H>C+HH+ H>C+HH+ H>C+HH+ H>C+HH+ H>C+HH+ H>C+HH+ H>C+HH+ H>C+HH+ H>C+HH+ H>C+HH+ H>C+HH+ H>C+HH+ H>C+HH+ H>C+HH+ H>C+HH+ H>C+HH+ H>C+HH+ H>C+HH+ H>C+HH+ H>C+HH+ H>C+HH+ H>C+HH+ H>C+HH+ H>C+HH+ H>C+HH+ H>C+HH+ H>C+HH+ H>C+HH+ H>C+HH+ H>C+HH+ H>C+HH+ H>C+HH+ H>C+HH+ H>C+HH+ H>C+HH+ H>C+HH+ H>C+HH+ H>C+HH+ H>C+HH+ H>C+HH+ H>C+HH+ H>C+HH+ H>C+HH+ H>C+HH+ H>C+HH+ H>C+HH+ H>C+HH+ H>C+HH+ H>C+HH+ H>C+HH+ H>C+HH+ H>C+HH+ H>C+HH+ H>C+HH+ H>C+HH+ H>C+HH+ H>C+HH+ H>C+HH+ H>C+HH+ H>C+HH+ H>C+HH+ H>C+HH+ H>C+HH+ H>C+HH+ H>C+HH+ H>C+HH+ H>C+HH+ H>C+HH+ H>C+HH+ H>C+HH+ H>C+HH+ H>C+HH+ H>C+HH+ H>C+HH+ H>C+HH+ H>C+HH+ H>C+HH+ H>C+HH+ H>C+HH+ H>C+HH+ H>C+HH+ H>C+HHG+ H>C+HHG+ H>C+HGHG+ H>C+HGHG+ H>C+HGHG+ H>C+HGHG+ H>C+HGHG+ H>C+HGHG+ H>C+HGHG H>C+HGHG H>CHGHG H>CHGHG H>CHGHG HG>CHGHG HG>CHGHG HG>CHGHG HG>CHGHG HG>CHGHG HG>CHGHG HG>CHGHG HG>CHGHG HG>CHGHG HG>CHGHG HG>CHGHG G>CHGHG G>CHGHG G>CHGHG G>CHGHG G>CHGHG G>CHGHG G>CHGHG G>CHGHG G>CHGHG G>CHGHG G>CHGHG G>CGG G>CGG G>CGG G>CGG G>CGG G>CGG G>CGG G>CGG G>CGG G>CGG G>CGG G>CGG G>CGG G>CGG G>CGG G>CGG G>CGG G>CGG G>CGG G>CGG G>CGG G>CGG G>CGG G>CGG G>CGG G>CGG G>CGG G>CGG G>CGG G>CGG G>CGG G>CGG G>CGG G>CGG G>CGG G>CGG G>CGG G>CGG G>CGG G>CGG G>CGG G>CGG G>CGG G>CGG G>CGG G>CGG G>CGG G>CGG G>CGG G>CGG G>CGG G>CGG G>CGG G>CGG G>CGG G>CGG G>CGG G>CGG G>CGG G>CGG G>CGG G>CGG G>CGG G>CGG G>CGG G>CGG G>CGG G>CGG G>CGG G>CGG G>CGG G>CGG7 G>CGG7 G>C7GG7 G>C7GG7 G>C7GG7 G>C7GG7 G>C7GG7 G>C7GG7 G>C7GG7 G>C7GG7 G>C7GG7 G>C7GG7 G>C7GG7 G>C7GG7 G>C7GG7 G>C7GG7 G>C7GG7 G>C7GG7 G>C7GGE7 G>C7GGE7 G>C7GGE7 G>C7GGE7 G>C7GEGE7 G>C7GEGE7 G>C7EGE7 G>C7EGE7 G>C7EGE7 G>C7EGE7 G>C7EGE7 E>C7EE7 E>C7EE7 E>C7EE7 E>C7EE7 E>C7EE7 E>C7EE7 E>C7EE7 E>C7EE7 E>C7EE7 E>C7EE7 E>C7EE7 E>C7EE7 E>C7EE7 E>C7EE7 E>C7EE7 E>C7EE7 E>C7EE7 E>C7EE7 E>C7EE7 E>C7EE7 E>C7EE7 E>C7EE7 E>C7EE7 E>C7EE7 E>C7EE7 E>C7EE7 E>C7EE7 E>C7EE7 E>C7EE7 E>C7EE7 E>C7EE7 E>C7EE7 E>C7EE7 E>C7EE7 E>C7EE7 E>C7EE7 E>C7EE7 E>C7EE7 E>C7EE7 E>C7EE7 E>C7EE7 E>C7EE7 E>C7EE7 E>C7EE7 E>C7EE7 E>C7EE7 E>C7EE7 E>C7EE7 E>C7EE7 E>C7EE7 E>C7EE7 E>C7EE7 E>C7EE7 E>C7EE7 E>C7EE7 E>C7EE7 E>C7EE7 E>C7EE7 E>C7EE7 E>C7EE7 E>C7EE7 E>C7EE7 E>C7EE7 E>C7EE7 E>C7EE7 E>C7EE7 E>C7EE7 E>C7EE7 E>C7EE7 E>C7EE7 E>C7EE7 E>C7EE7 E>C7EE7 E>C7EE7 E>C7EE7 E>C7EE7 E>C7EE7 E>C7EE7 E>C7EE7 E>C7EE7 E>C7EE7 E>CEE7 E>CEE7 E>CEE7 E>CEE7 E>CEE7 E>CEE7 E>CEE7 E>CEE7 E>CEE7 E>CEE7 E>CEE7 E>CEE7 E>CEE7 E>CEE7 E>CEE E>CEE E>CEE E>CEE E>CEE E>CECE E>CECE E>CECE E>CECE E>CECE E>CECE E>CECEC E>CECEC E>CCEC E>CCEC E>CCEC E>CCEC EC>CCEC EC>CCEC EC>CCEC EC>CCEC EC>CCEC EC>CCEC EC>CCEC EC>CCEC EC>CCEC EC>CCC EC>CCC EC>CCC EC>CCC EC>CCC EC>CCC C>CCC C>CCC C>CCC C>CCC C>CCC C>CCC C>CCC C>CCC C>CCC C>CCC C>CCC C>CCC C>CCC C>CCC C>CCC C>CCC C>CCC C>CCC C>CCC C>CCC C>CCC C>CCC C>CCC C>CCC C>CCC C>CCC C>CCC C>CCC C>CCC C>CCC C>CCC C>CCC C>CCC C>CCC C>CCC C>CCC C>CCC C>CCC C>CCC C>CCC C>CCC C>CCC C>CCC C>CCC C>CCC C>CCC C>CCC C>CCC C>CCC C>CCC C>CCC C>CCC C>CCC C>CCC C>CCC C>CCC C>CCC C>CCC C>CCC C>CCC C>CCC C>CCC C>CCC C>CCC C>CCC C>CCC C>CCC C>CCC C>CCC C>CCC C>CCC C>CCC C>C5CC C>C5CC C>C5CC C>C5CC C>C5CC C>C5CC C>C5CC C>C5CC C>C5CC C>C5CC C>C5CC C>C5CC C>C5CC C>C5CC C>C5CC C>C5CC C>C5CC C>C5CC5 C>C5CC5 C>C5CC5 >C5CC5 >C5CC5 >C5CC5 >C5CC5 >C5CC5 >C5CC5 >C5C5 >C5C5 >C55 >C55 >C55 >C5E5 >C5E5 >C5EE5 >C5EE5 >C5EE5 E>C5EE5 E>C5EE5 E>C5EE5 E>C5EE5 E>C5EE5 E>C5EE5 E>C5EE5 E>C5EE5 E>C5EE5 E>C5EE5 E>C5EE5 E>C5EE5 E>C5EE5 E>C5EE5 E>C5EE5 E>C5EE5 E>C5EE5 E>C5EE5 E>C5EE5 E>C5EE5 E>C5EE5 E>C5EE5 E>C5EE5 E>C5EE5 E>C5EE5 E>C5EE5 E>C5EE5 E>C5EE5 E>C5EE5 E>C5EE5 E>C5EE5 E>C5EE5 E>C5EE5 E>C5EE5 E>C5EE5 E>C5EE5 E>C5EE5 E>C5EE5 E>C5EE5 E>C5EE5 E>C5EE5 E>C5EE5 E>C5EE5 E>C5EE5 E>C5EE5 E>C5EE5 E>C5EE5 E>C5EE5 E>C5EE5 E>C5EE5 E>C5EE5 E>C5EE5 E>C5EE5 E>C5EE5 E>C5EE5 E>C5EE5 E>C5EE5 E>C5EE5 E>C5EE5 E>C5EE5 E>C5EE5 E>C5EE5 E>C5EE5 E>C5EE5 E>C5EE5 E>C5EE5 E>C5EE5 E>C5EE5 E>C5EE5 E>C5EE5 E>C5EE5 E>C5EE5 E>C5EE5 E>C5EE5 EC5EE5 EC5EE5 EC5EE5 EC5EE5 EC5EE5 EC5EE5 EC5EE5 EC5EE5 EC5EE5 EC5EE5 EC5EE5 EC5EE5 EC5EE5 EC5EE5 ECEE5 ECEE5 ECEE5 ECEE5 ECEE5 ECEE5 ECEE5 ECEE5 ECEE5 ECEE5 ECEE5 ECEE5 ECEE5 ECEE5 ECEE5 ECEE5 ECEE5 ECEE ECEE ECEGE ECEGE ECEGE EGCEGE EGCEGE EGCEGE EGCEGEG EGCEGEG EGCEGEG EGCEGEG EGEGEG EGEGEG EGEGEG EGEGEG EGEGEG EGEGEG EGEGEG EGEGEG EGEGEG EGEGEG EGEGEG EGEGEG EGEGEG GGEG GGEG GGEG GGEG GGEG GGEG GGEG GGEG GGEG GGG GGG GGG GGG GGG GGG GGG GGG GGG GGG GGG GGG GGG GGG GGG GGG GGG GGG GGG GGG GGG GGG GGG GGG GGG GGG GGG GGG GGG GGG GGG GGG GGG GGG GGG GGG GGG GGG GGG GGG GGG GGG GGG GGG GGG GGG GGG GGG GGG GGG GGG GGG GGG GGG GGG GGG GGG GGG GGG GGG GGG G4GG G4GG G4GG G4GG G4GG G4GG G4GG G4GG G4GG G4GG G4GG G4GG G4GG G4GG G4GG4 G4GG4 G4GG4 G4GG4 G4GG4 G4GG4 G4GG4 G4GG4 G4GG4 G4GGH4 G4GGH4 G4GGH4 GH4GGH4 GH4GGH4 GH4GGH4 GH4GGH4 GH4GGH4 GH<4GGH4 GH<4GHGH4 GH<4GHGH4 GH<4GHGH4 GH<4GHGH4 GH<4GHGH4 GH<4GHGH4 GH<4GHGH4 H<4GHGH4 H<4GHGH4 H<4GHH4 H<4GHH4 H<4GHH4 H<4GHH4 HC<4GHH4 HC<4GHH4 HC<4GHH4 HC<4GHH4 HC<4GHH4 HC<4GHH4 HC<4GHH4 HC<4GHH4 HC<4GHH4 HC<4GHH4 HC<4GHH4 HC<4HH4 HC<4HH4 HC<4HH4 HC<4HH4 HC<4HH4 HC<4HH4 HC<4HH4 HC<4HH4 HC<4HH4 HC<4HH4 HC<4HH4 HC<4HH4 HC<4HH4 HC<4HH4 HC<4HH4 HC<4HH4 HC<4HH4 HC<4HH4 HC<4HH4 HC<4HH4 HC<4HH4 HC<4HH4 HC<4HH4 HC<4HH4 HC<4HH4 HC<4HH4 HC<4HH4 HC<4HH4 HC<4HH4 HC<4HH4 HC<4HH4 HC<4HH4 HC<4HH4 HC<4HH4 HC<4HH4 HC<4HH4 HC<4HH4 HC<4HH4 HC<4HH4 HC<4HH4 HC<4HH4 HC<4HH4 HC<4HH4 HC<4HH4 HC<4HH4 HC<4HH4 HC<4HH4 HC<4HH4 HC<4HH4 HC<4HH4 HC<4HH4 HC<4HH4 HC<4HH4 HC<4HH4 HC<4HH4 HC<4HH4 HC<4HH4 HC<4HH4 HC<4HH4 HC<4HH4 HC<4HH4 HC<4HH4 HC<4HH4 HC<4HH4 HC<4HH4 HC<4HH4 HC<4HH4 HC<4HH4 HC<4HH4 HC<4HH4 HC<4HH4 HC<4HH4 HC<4HH4 HC<4HH4 HC<4HH4 HC4HH4 HC4HH4 HCHH4 HCHH4 HCHH4 HCHH4 HCHH4 HCHH4 HCHH4 HJCHHJ4 HJCHHJ4 HJCHHJ4 HJCHHJ4 HJCHHJ4 HJCHJHJ4 HJCHJHJ4 HJCHJHJ4 HJCHJHJ4 HJCHJHJ4 HJCHJHJ4 HJHJHJ4 HJHJHJ4 HJHJHJ4 HJHJHJ4 HJHJHJ HJHJHJ HJHJHJ HJHJHJ HJHJHJ HJHJHJ HJHJHJ HJHJHJ HJHJHJ HJHJHJ HJHJHJ HJHJHJ HJHJHJ HJHJHJ HJHJHJ HJHJHJ HJHJHJ HJHJHJ HJHJHJ HJHJHJ HJHJJ HJHJJ HJHJJ JHJJ JHJJ JJJ JJJ JJJ JJJ JJJ JJJ JJJ JJJ JJJ JJJ JJJ JJJ JJJ JJJ JJJ JJJ JJJ JJJ JJJ JJJ JJJ JJJ JJ JJ J                                          5 5 5 5 5 5 5 5 5 5 5 5 5 5 5 5 5 5 <5L <5L <5L5 <5L5 <5L5 L<5L5 L<5L5 L<5L5 L<5LL5 L<5LL5 L<5LL5 L<5LL5 L<5LL5 L<5LL5 L<5LL5 L<5LL5 L<5LL5 L<5LL5 LE<5LL5 LE<5LL5 LE<5LL5 LE<5LL5 LE<5LL5 LE<5LL5 LE<5LL5 LE<5LL5 LE<5LL5 LE<5LL5 LE<5LL5 LE<5LL5 LE<5LL5 LE<5LL5 LE<5LL5 LE<5LL5 LE<5LL5 LE<5LL5 LE<5LL5 LE<5LL5 LE<5LL5 LE<5LL5 LE<5LL5 LE<5LL5 LE<5LL5 LE<5LL5 LE<5LL5 LE<5LL5 LE<5LL5 LE<5LL5 LE<5LL5 LE<5LL5 LE<5LL5 LE<5LL5 LE<5LL5 LE<5LL5 LE<5LL5 LE<5LL5 LE<5LL5 LE<5LL5 LE<5LL5 LE<5LL5 LE<5LL5 LE<5LL5 LE<5LL5 LE<5LL5 LE<5LL5 LE<5LL5 LE<5LL5 LE<5LL5 LE<5LL5 LE<5LL5 LE<5LL5 LE<5LL5 LE<5LL5 LE<5LL5 LE<5LL5 LE<5LL5 LE<5LL5 LE<5LL5 LE<5LL5 LE<5LL5 LE<5L5 LE<5L5 LE<5L5 LE<5L5 LE<5L5 LE<5L5 LE<5L5 LE<5L5 LE<5L5 LE<5LJ5 LE<5LJ5 LE<5LJ5 LE<5LJ5 LE<5LJ5 LE<5LJ5 LE<5LJ5 LE<5LJ5 LE<J5 LE<J5 LE<J5 LJE<JJ5 LJE<JJ5 JE<JJ5 JE<JJ5 JE<JJ5 JE<JJ5 JE<JJ5 JE<JJ5 JE<JJ5 JE<JJ5 JE<JJ5 JE<JJ5 JE<JJ5 JE<JJ JE<JJ JE<JJ JE<JJ JE<JJ JE<JJ JE<JJ JE<JJ JE<JJ JEJJ JEJJ JJJ JJJ JJJ JJJ JJJ JJJ JJ JJ JJ JJL JJL JL JL JL JL JL JLL JLL JLL JLL JLL JLL JLL JLL JLL JLL JLL LLL LLL LLL LLL LLL LLL LLL LLL LLL LLL LLL LLL LLL LLL LLL LLL LLL LLL LLL LLL LLL LLL LLL LLL LLL LLL LLL LLL LLL LLL LLL LLL LLL LLL LLL LLL LLL LL LL LL LL LL LJ LJ LJJ LJJ LJJ LJJ LJJ LJJJ LJJJ LJJJ LJJJ LJJJ LJJJ JJJ JJJ JJJ JJJ JJJ JJJ JJJ JJJ JJJ JJJ JJJ J7JJ J7JJ J7JJ J7JJ J7J J7J J7J J7 J7 J7 J7 J7L J7L J7L J7L J7L J7LL7 J7LL7 7LL7 7LL7 7LL7 7LL7 ;7LL7 ;7LL7 C;7LL7 C;7LL7 C;7LL7 C;7LL7 C;7LL7 LC;7LL7 LC;7LL7 LC;7LL7 LC;7LL7 LC;7LL7 LC;7LL7 LC;7LL7 LC;7LL7 LC;7LL7 LC;7LL7 LC;7LL7 LC;7LL7 LC;7LL7 LC;7LL7 LC;7LL7 LC;7LL7 LC;7LL7 LC;7LL7 LC;7LL7 LC;7LL7 LC;7LLJ7 LC;7LLJ7 LC;7LLJ7 LC;7LLJ7 LC;7LLJ7 LC;7LLJ7 LC;7JLJ7 LC;7JLJ7 LC;7JLJ7 LC;7JJ7 LC;7JJ7 LC;7JJ7 LC;7JJ7 LC;7JJ7 LC;7JJ7 LC;7JJ7 LC;7JJ7 LC;7JJ7 LC;7JJ7 LC;7JJ7 LC;7JJ7 LC;7JJ7 LJC;7JJ7 LJC;7JJ7 LJC;7JJ7 LJC;7JJ7 LJC;7JJ7 LJC;7JJ7 LJC;7JJ7 LJC;7JJ7 LJC;7JJ7 LJC;7JJ7 LJC;7JJ7 LJC;7JJ7 LJC;7JJ7 LJC;7JJ7 LJC;7JJ7 LJC;7JJ7 LJC;7JJ7 LJC;JJ7 LJC;JJ7 LJC;JJ7 LJC;JJ7 JC;JJ7 JC;JJ7 JC;JJ7 JC;JJ7 JC;JJ7 JC;JJ7 JC;JJ7 JC;JJ7 JC;JJ7 JC;JJ7 JC;JJ7 JC;JJ7 JC;JJ7 JC;JJ7 JC;JJ7 JC;JJ7 JC;JJ7 JC;JJ7 JC;JJ7 JC;JJH7 JC;JJH7 JC;JJH7 JC;JJH7 JC;JJH7 JC;JJH7 JC;JJH7 JC;JJH7 J;JJH7 J;JJH7 J;JJH7 J;JJH7 J;JJH7 JJJH JHJJH JHJH JHJH JHJHH JHJHH JHJHH JHJHH JHJHH HJHH HJHH HJHH HJHH HJHH HJHH HJHH HJHH HJHH HJHH HJHH HJHH HJHH HJHH HJHH HJHH HJHH HJHH HJHH HJHH HHH HHH HHH HHH HHH HHH HHH HHH HHH HHH HHH HHH HHH HHH HHH HHH HHH HHH HHH HHH HHH HHH HHH HJHH HJHH HJHH HJHH HJHH HJHH HJHH HJHH HJHHJ HJHHJ HJHHJ HJHHJ HJHHJ HJHHJ HJHHJ HJHHJ HJHHJ HJHHJ HJHHJ HJHHJ HJHHJ HJHHJ HJHHJ HJHHJ HJHHJ HJHHJ HJHHJ HJHHJ HJHJHJ HJHJHJ HJHJHJ HJHJHJ HJHJHJ HJHJHJ HJHJHJ JHJHJ JHJJ JHJJ JHJJ JHJJ JHJJ JHJJ JHJJ JHJJ JHJJ JHJJ JHJJ JHJJ JHJJ JHJJ JJJ JJJ JJJ JJJ JJJ JJJ JJJ JJJ JJJ JJJ JJJ JJJ JJJ JJJ JJJ JJJ JJJ JJJ JJ JJ JJ JJ JJ0 JJ0 JJ0 LJJ0 LJJ0 LJJ0 LCJJ0 LCJ0 LCJ0 LCJ0 LCJ0 LC0J0 LC0J0 LC0JL0 LC0JL0 LC0JL0 LC0JL0 LC0JL0 LC0JL0 LC0JL0 LC0L0 LC0L0 LC<0L0 LC<0L0 LC<0LL0 LC<0LL0 LC<0LL0 LC<0LL0 LC<0LL0 LC<0LL0 LC<0LL0 LC<0LL0 LC<0LL0 LC<0LL0 LC<0LL0 LC<0LL0 LC<0LL0 LC<0LL0 LC<0LL0 LC<0LL0 LC<0LL0 LC<0LL0 LC<0LL0 LC<0LL0 LC<0LL0 LC<0LL0 LC<0LL0 LC<0LL0 LC<0LL0 LC<0LL0 LC<0LL0 LC<0LL0 LC<0LL0 LC<0LL0 LC<0LL0 LC<0LL0 LC<0LL0 LC<0LL0 LC<0LL0 LC<0LL0 LC<0LL0 LC<0LL0 LC<0LL0 LC<0LL0 LC<0LL0 LC<0LL0 LC<0LL0 LC<0LL0 LC<0LL0 LC<0LL0 LC<0LL0 LC<0LL0 LC<0LL0 LC<0LL0 LC<0LL0 LC<0LL0 LC<0LL0 LC<0LL0 LC<0LL0 LC<0LL0 LC<0LL0 LC<0LL0 LC<0LL0 LC<0LL0 LC<0LL0 LC<0LL0 LC<0LL0 LC<0LL0 LC<0LL0 LC<0LL0 LC<0LL0 LC<0LL0 LC<0LL0 LC<0LL0 LC<0LL0 LC<0LL0 LC<0LL0 LC<0LL0 LC<0LL0 LC<0LL0 LC<0LL LC<0LL LC<0LL LC<0LL LC<0LL LC<0LL LC<0LL LC<0LL LC<0LL LC<0LL LC<0LL LC<0LL LC<0LL LC<0LL LC<0LL LC<0LL LC<0LL LC<LL LC<LL LC<LL LC<LL LC<LL LC<LL LC<LL LC<LL LC<LL LC<LL LC<LL LC<LL LC<LL LC<LL LC<LL LC<LL LC<LL LC<LL LC<LL LC<LL LC<LL LC<LL LC<LL LC<LL LC<LL LC<LL LC<LL L<LL L<LL L<LL L<LL L<LL L<LL L<LL L<LL L<LL L<LL L<LL L<LL L<LL L<LL L<LL L<LL L<LL L<LL LLL LLL LLL LLL LLL LLL LLL LLL LLL LLL LLL LLL LLL LLL LLL LLL LLL LLL LLL LLL LLL LLL LLL LLL LLL LLL LLL LLL LLL LLL LLL LLL LLL LLL LLL LLL LLL LLL LLL LLL LLL LLL LLL LLL LLL LLL LLL LLL LLL LLL LLL LLL LLL LLL LLL LLL LLL LLL LLL LLL LLL LLL LLL LLL LLL LLL LLL LLL LLL LLL LLL LLL LLL LLL LLL LLL LLL LLL LLL LLL LLL LLL LLL LLL4 LLL4 LLL4 LDLL4 LDLL4 LDLL4 LDLL4 LDLL4 LDLL4 LD;LL4 LD;LL4 LD;LL4 LD;LL4 LD;LL4 LD;4LL4 LD;4LL4 LD;4LL4 LD;4LL4 LD;4LL4 LD;4LL4 LD;4LL4 LD;4LL4 LD;4LL4 LD;4LL4 LD;4LL4 LD;4L4 LD;4L4 LD;4L4 LD;4L4 LD;4L4 LD;4L4 LD;44 LD;44 LD;44 LD;44 LD;44 LD;44 LD;44 LD;44 LD;44 LD;44 LD;44 LD;44 LD;44 LD;44 D;44 D;44 D;44 D;44 D;44 D;44 D;44 D;44 D;44 D;44 D;44 D;44 D;44 D;44 D;44 D;44 D;44 D;44 D;44 D;44 D;44 D;44 D;44 D;44 D;44 D;44 D;44 D;44 D;44 D;44 D;44 D;44 D;44 D;44 D;44 D;44 D;44 D;44 D;44 D;44 D;44 D;44 D;44 D;44 D;4 D;4 D;4 D;4 D;4 D;4 D;4 D;4 D; D; D; D; D; D; D; D; D; D; D; D; D D D D          J J J J J J J JJ JJ JJ JJ JJ JJ JJ JJ JJ JJ JJJ JJJ JJJ JJJ JJJ JJJ JJJ JJJ JJJ JJJ JJJ JJJ JJJ JJJ JJJ JJJ JJJ JJJ JJJ JJJ JJJ JJJ JJJ JJJ JJJ JJJ JJJ JJJ JJJ JJJ JJJ JJJ JJJ JJJ JJJ JJJ JJJ JJJ JJJ J J J J J J J J J J J J                                                - - - - - - - E- E- E- E- E- E- E- E- E- E- E- E- E- EH- EH- EH- EHH- EHH- E9-HH- E9-HH- E9-HH- E9-HH- E9-HH- E9-HH- E9-HH- E9-HH- E9-HH- HE9-HH- HE9-HH- HE9-HH- HE9-HH- HE9-HH- HE9-HH- HE9-HH- HE9-HH- HE9-HH- HE9-HH- HE9-HH- HE9-HH- HE9-HH- HE9-HH- HE9-HH- HE9-HH- HE9-HH- HE9-HH- HE9-HH- HE9-HH- HE9-HH- HE9-HH- HE9-HH- HE9-HH- HE9-HH- HE9-HH- HE9-HH- HE9-HH- HE9-HH- HE9-HH- HE9-HH- HE9-HH- HE9-HH- HE9-HH- HE9-HH- HE9-HH- HE9-HH- HE9-HH- HE9-HH- HE9-HH- HE9-HH- HE9-HH- HE9-HH- HE9-HH- HE9-HH- HE9-HH- HE9-HH- HE9-HH- HE9-HH- HE9-HH- HE9-HH- HE9-HH- HE9-HH- HE9-HH- HE9-HH- HE9-HH- HE9-HH- HE9-HH- HE9-HH- HE9-HH- HE9-HH- HE9-HH- HE9-HH HE9-HH HE9-HH HE9-HH HE9-HH HE9-HH HE9-HH HE9-HH HE9-HH HE9-HH HE9-HH HE9-HH HE9-HH HE9-HH HE9-HH HE9-HH HE9-HH H9-HH H9-HH H9-HH H-HH H-HH H-HH H-HH H-HH H-HH H-HH H-HH H-HH H-HH H-HH H-HH H-HH H-HH H-HH H-HH H-HH H-HH H-HH H-HH HHH HHH HHH HHH HHH HHH HHH HHH HHH HHH HHH HHH HHH HHH HHH HHH HHH HHH HHH HHH HHH HHH HHH HHH HHH HHH HHH HHH HHH HHH HHH HHH HHH HHH HHH HHH HHH HHH HHH HHH HHH HHH HHH HHH HHH HHH HHH HHH HHH HHH HHH HHH HHH HHH HHH HHH HHH HHH HHH HHH HHH HHH HHH HHH HHH HHH HHH HHH HHH HHH HHH HHH HHH HHH HHH HHH HHH HHH HHH HHH HHH HHH HHH HHH HHH HHH HHH HHH HHH HHH HHH HHH HHH HHH HHH HHH HHH HH HH HH HH H H H H H H H H H H H H H H9 H9 H9 B9 B9 B92 B92 B92 B92 B92 B92 B92 B92 B92 B9G2 B9G2 B9GG2 B9GG2 B9GG2 B9GG2 B9GG2 B9GG2 B9GG2 B9GG2 GB9GG2 GB9GG2 GB9GG2 GB9GG2 GB9GG2 GB92GG2 GB92GG2 GB92GG2 GB92GG2 GB92GG2 GB92GG2 GB92GG2 GB92GG2 GB92GG2 GB92GG2 GB92GG2 GB92GG2 GB92GG2 GB92GG2 GB92GG2 GB92GG2 GB92GG2 GB92GG2 GB92GG2 GB92GG2 GB92GG2 GB92GG2 GB92GG2 GB92GG2 GB92GG2 GB92GG2 GB92GG2 GB92GG2 GB92GG2 GB92GG2 GB92GG2 GB92GG2 GB92GG2 GB92GG2 GB92GG2 GB92GG2 GB92GG2 GB92GG2 GB92GG2 GB92GG2 GB92GG2 GB92GG2 GB92GG2 GB92GG2 GB92GG2 GB92GG2 GB92GG2 GB92GG2 GB92GG2 GB92GG2 GB92GG2 GB92GG2 GB92GG2 GB92GG2 GB92GG2 GB92GG2 GB92GG2 GB92GG2 GB92GG2 GB92GG2 GB92G2 GB92G2 GB92G2 GB92G2 GB92G2 G92G2 G92G2 G92G2 G92G2 G922 G922 G922 G922 G9224 9224 9224 9224 9224 9224 9224 9224 9224 9224 9224 9224 9224 9224 9224 9224 9224 9224 224 224 224 224 E2E24 EEE24 EEE24 EEE24 EEE24 EEE24 EEE24 E4EE24 E4EE24 E4EE4 E4EE4 E4EE4 E4EE4 E4EE4 E4EE4 E4EE4 E4EE4 E4EE4 E4EE4 E4EE4 E4EE4 E4EE4 E4EE4 E4EE4 E4EE4 E4EE4 E4EE4 E4EE4 E4EE4 E4EE4 E4EE4 E4EE4 E4EE4 E4EE4 E4EE4 E4EE4 E4EE4 E4EE4 E4EE4 E4EE4 E4EE4 E4EE4 E4EE4 E4EE4 E4EE4 E4EE4 E4EE4 E4EE4 E4EE4 E4EE4 E4EE4 E4EE4 E4EE4 E4EE4 E4EE4 E4EE4 E4EE4 E4EE4 E4EE4 E4EE4 E4EE4 E4EE4 E4EE4 E4EE4 E4EE4 E4EE E4EE E4EE E4EE E4EE E4EE E4EE E4EE E4EE 4EE 4EE 4E 4E 4E 4E 4 4 4 4 4 4 4 4 4 4 4 4 4 4                  2 2 2 C2 C2 C2 C2 C2 C2 C2 C2 C2 C2 C2 C2 C2 C>2 C>2 C>G2 C>G2 C>G2 C>G2 C>G2 GC>G2 GC>2G2 GC>2G2 GC>2G2 GC>2GG2 GC>2GG2 GC>2GG2 GC>2GG2 GC>2GG2 GC>2GG2 GC>2GG2 GC>2GG2 GC>2GG2 GC>2GG2 GC>2GG2 GC>2GG2 GC>2GG2 GC>2GG2 GC>2GG2 GC>2GG2 GC>2GG2 GC>2GG2 GC>2GG2 GC>2GG2 GC>2GG2 GC>2GG2 GC>2GG2 GC>2GG2 GC>2GG2 GC>2GG2 GC>2GG2 GC>2GG2 GC>2GG2 GC>2GG2 GC>2GG2 GC>2GG2 GC>2GG2 GC>2GG2 GC>2GG2 GC>2GG2 GC>2GG2 GC>2GG2 GC>2GG2 GC>2GG2 GC>2GG2 GC>2GG2 GC>2GG2 GC>2GG2 GC>2GG2 GC>2GG2 GC>2GG2 GC>2GG2 GC>2GG2 GC>2GG2 GC>2GG2 GC>2GG2 GC>2GG2 GC>2GG2 GC>2GG2 GC>2GG2 GC>2GG2 GC>2GG2 GC>2GG2 GC>2GG2 GC>2GG2 GC>2GG2 GC>2GG2 GC>2GG2 GC>2GG2 GC>2GG2 GC>2GG2 GC>2GG2 GC>2GG2 GC>2GG2 GC>2GG2 GC>2GG2 GC>2GG2 GC>2GG2 GC>2GG2 GC>2GG2 GC>2GG2 GC>2GG2 GC>2GG2 GC>2GG2 GC>2GG2 GC>2GG2 GC>2GG2 GC>2GG2 GC>2GG2 GC>2GG2 GC>2GG2 GC>2GG20 GC>2GG20 GC>2GG20 GC>2GG20 GC>2GG20 GC>2GG20 GC>GG20 GC>GG20 GC>GG20 GC>GG20 GC>GG20 GC>GG20 GC>GG0 GC>GG0 GC>GG0 GC>GG0 GC>GG0 GC>GG0 GC>GG0 GC>GG0 GC>GG0 GC>GG0 GC>GG0 GC>GG0 GC>GG0 GC>GG0 GC>0GG0 GC>0GG0 GC>0GG0 GC>0GG0 GC>0GG0 GC>0GG0 GC>0GG0 GC>0GG0 GC>0GG0 GC>0GG0 GC>0GG0 GC>0GG0 GC>0GG0 GC>0GG0 GC>0GG0 GC>0GG0 GC>0GG0 GC>0GG0 GC>0GG0 GC>0GG0 GC>0GG0 GC>0GG0 GC>0GG0 GC>0GG0 GC>0GG0 GC>0GG0 GC>0GG0 GC>0GG0 GC>0GG0 GC>0GG0 GC>0GG0 GC>0GG0 GC>0GG0 GC>0GG0 GC>0GG0 GC>0GG0 GC>0GG0 GC>0GG0 GC>0GG0 GC>0GG0 GC>0GG0 GC>0GG0 GC>0GG0 GC>0GG0 GC>0GG0 GC>0GG0 GC>0GG0 GC>0GG0 GC>0GG0 GC>0GG0 GC>0GG0 GC>0GG0 GC>0GG0 GC>0GG0 GC>0GG0 GC>0GG0 GC>0GG0 GC>0GG0 GC>0GG0 GC>0GG0 GC>0GG0 GC>0GG0 GC>0GG0 GC>0GG0 GC>0GG0 GC>0GG0 GC>0GG0 GC>0GG0 GC>0GG0 GC>0GG0 GC>0GG0 GC>0GG0 GC>0GG0 GC>0GG0 GC>0GG0 GC>0GG0 GC>0GG0 GC>0GG0 GC>0GG0 GC>0GG0 GC>0GG0 GC>0GG0 GC>0GG0 GC>0GG0 GC>0GG0 GC>0GG0 GC>0GG0 GC>0GG0 GC>0GG0 GC>0GG0 GC>0GG0 GC>0GG GC>0GG GC>0GG GC>0GG GC>0GG/ GC>0GG/ GC>0GG/ GC>0GG/ GC>0GG/ GC>0GG/ GC>0GG/ GC>0GG/ GC>0GG/ GC>0GG/ GC>0GG/ GC>0GG/ GC>0GG/ GC>GG/ GC>GG/ GC>GG/ GC>GG/ GC>GG/ GC>GG/ GC>GG/ GC>GG/ GC>GG/ GC>GG/ GC>GG/ GC>GG/ GC>GG/ GC>/GG/ GC>/GG/ GC>/GG/ GC>/GG/ GC>/GG/ GC>/GG/ GC>/GG/ GC>/GG/ GC>/GG/ GC>/GG/ GC>/GG/ G>/GG/ >/GG/ >/GG/ >/GG/ >/GG/ >/GG/ >/GG/ >/GG/ >/GG/ >/GG/ >/GG/ >/GG/ >/GG/ >/GG/ >/GG/ >/GG/ >/GG/ >/GG/ >/G/ >/G/ >/G/ >/G/ >/G/ >/G/ >/G/ >/G/ >/G/ >/G/ >/G/ >/G/ >/G/ >/G/ /G/ /G/ /G/ /G/ // // // // // // // // // // // // // // // // // // / / / / / / / / / / / / / / /                   - - - - - - - - - - - <- <- <- H<- H<-H- H<-H- H<-HH- H<-HH- H<-HH- H<-HH- H<-HH- HE<-HH- HE<-HH- HE<-HH- HE<-HH- HE<-HH- HE<-HH- HE<-HH- HE<-HH- HE<-HH- HE<-HH- HE<-HH- HE<-HH- HE<-HH- HE<-HH- HE<-HH- HE<-HH- HE<-HH- HE<-HH- HE<-HH- HE<-HH- HE<-HH- HE<-HH- HE<-HH- HE<-HH- HE<-HH- HE<-HH- HE<-HH- HE<-HH- HE<-HH- HE<-HH- HE<-HH- HE<-HH- HE<-HH- HE<-HH- HE<-HH- HE<-HH- HE<-HH- HE<-H- E<-H- E<-H- E<-- E<-- E<-- E<-- E<-- E<-- E<-- E<-- E<-- E<-- E<-- E<-- E<-- E<-- E<-- E<-- E<-- E<-- E<-- E<-- E<-- E<-- E<-- E<-- E<- E<- <- <- <- <- <- <- <- <- <- - - -                               / / / / / / / / / >// >// >// >// >// >// >// >C// J>C// J>C/J/ J>C/J/ J>C/J/ J>C/J/ J>C/JJ/ J>C/JJ/ J>C/JJ/ J>C/JJ/ J>C/JJ/ J>C/JJ/ J>C/JJ/ J>C/JJ/ J>C/JJ/ J>C/JJ/ J>C/JJ/ J>C/JJ/ J>C/JJ/ J>C/JJ/ J>C/JJ/ J>C/JJ/ J>C/JJ/ J>C/JJ/ J>C/JJ/ J>C/JJ/ J>C/JJ/ J>C/JJ/ J>C/JJ/ J>C/JJ/ J>C/JJ/ J>C/JJ/ J>C/JJ/ J>C/JJ/ J>C/JJ/ J>C/JJ/ J>C/JJ/ J>C/JJ/ J>C/JJ/ J>C/JJ/ J>C/JJ/ J>C/JJ/ J>C/JJ/ J>C/JJ/ J>C/JJ/ J>C/JJ/ J>C/JJ/ J>C/JJ/ J>C/JJ/ J>C/JJ/ J>C/JJ/ J>C/JJ/ J>C/JJ/ J>C/JJ/ J>C/JJ/ J>C/JJ/ J>C/JJ/ J>C/JJ/ J>C/JJ/ J>C/JJ/ J>C/JJ/ J>C/JJ/ J>C/JJ/ J>C/JJ/ J>C/JJ/ J>C/JJ/ J>C/JJ/ J>C/JJ/ J>C/JJ/ J>C/JJ/ J>C/JJ/ J>C/JJ/ J>C/JJ/ J>C/JJ/ J>C/JJ/ J>C/JJ/ J>C/JJ/ J>C/JJ/ J>C/JJ/ J>C/JJ/ J>C/JJ/ J>C/JJ/ J>C/JJ/ J>C/JJ/ J>C/JJ/ J>C/JJ/ J>C/JJ/ J>C/JJ/ J>C/JJ/ J>C/JJ/ J>C/JJ/ J>/JJ/ J>/JJ/ J>/JJ/ J>/JJ/ J>/JJ/ J>/JJ/ J>/JJ/ J>/JJ/ J>/JJ/ J>/JJ/ J>/JJ/ J>/JJ/ J>/JJ/ J>/JJ/ J>/JJ/ J>/JJ/ J>/JJ/ J>/JJ/ J>/JJ/ J>/JJ/ J>/JJ/ J>/JJ/ J>/JJ/ J>/JJ/ J>/JJ/ J>/JJ/ J>/JJ/ J>/JJ/ J>/JJ/ J>/JJ/ J>/JJ/ J>/JJ/ J>/JJ/ J>/JJ/ J>/JJ/ J>JJ/ J>JJ/ J>JJ/ J>JJ/ J>JJ J>JJ J>JJ J>JJ J>JJ JJJ JJJ JJJ JJJ JJJ JJJ JJJ JJJ JJJ JJJ JJJ JJJ JJJ JJJ JJJ JJJ JJJ JJJ JJJ JJJ JJJ JJJ JJJ JJJ JJJ JJJ JJJ JJJ JJJ JJJ JJJ JJJ JJJ JJJ JJJ JJJ JJJ JJJ JJJ JJJ JJJ JJJ JJJ JJJ JJJ JJJ JJJ JJJ JJJ JJJ JJJ JJJ JJJ JJJ JJJ JJJ JJJ JJJ JJJ JJJ JJJ JJJ JJJ JJJ JJJ JJJ JJJ JJJ JJJ JJJ JJJ JJJ JJJ JJJ JJJ JJJ JJJ JJJ JJJ JJJ JJJ JJJ JJJ JJJ JJJ JJJ JJJ JJJ JJJ JJJ0 JJJ0 JJJ0 JJJ0 JJJ0 JJJ0 JJJ0 JJJ0 JJJ0 JJJ0 JJJ0 JCJJ0 JCJJ0 JC0JJ0 JC0JJ0 JC0JJ0 JC0JJ0 JC0JJ0 JC0JJ0 JC0JJ0 JC0JJ0 JC0JJ0 JC0JJ0 JC0JJ0 JC<0JJ0 JC<0JJ0 JC<0JJ0 JC<0JJ0 JC<0JJ0 JC<0JJ0 JC<0JJ0 JC<0JJ0 JC<0JJ0 JC<0JJ0 JC<0JJ0 JC<0JJ0 JC<0JJ0 JC<0JJ0 JC<0JJ0 JC<0JJ0 JC<0JJ0 JC<0JJ0 JC<0JJ0 JC<0JJ0 JC<0JJ0 JC<0JJ0 JC<0JJ0 JC<0JJ0 JC<0JJ0 JC<0JJ0 JC<0JJ0 JC<0JJ0 JC<0JJ0 JC<0JJ0 JC<0JJ0 JC<0JJ0 JC<0JJ0 JC<0JJ0 JC<0JJ0 JC<0JJ0 JC<0JJ0 JC<0JJ0 JC<0JJ0 JC<0JJ0 JC<0JJ0 JC<0JJ0 JC<0JJ0 JC<0JJ0 JC<0JJ0 JC<0JJ0 JC<0JJ0 JC<0JJ0 JC<0JJ0 JC<0JJ0 JC<0JJ0 JC<0JJ0 JC<0JJ0 JC<0J0 JC<0J0 JC<0J0 JC<0J0 JC<0J0 JC<0J0 JC<0J0 C<0J0 C<0J0 C<0J0 C<0J0 C<00 C<00 C<00 C<00 C<00 C<00 C<00 C<00 C<00 C<00 C<00 C<00 C<00 C<00 C<00 C<00 C<00 C<00 C<00 C<00 C<00 C<00 C<00 C<00 <00 <00 <00 <00 <00 <00 <00 <LL0 L<LL0 L<LL0 L<LL0 L<LL0 L<LL0 L<LL0 L<LL0 L<LL0 L<LL L<LL L<LL L<LL L<LL L<LL L<LL L<LL L<LL L<LL L<LL L<LL L<LL L<LL L<LL L<LL L<LL L<LL L<LL L<LL L<LL L<LL L<LL L<LL L<LL L<LL L<LL L<LL L<LL L<LL L<LL L<LL L<LL L<LL L<LL L<LL L<LL L<LL L<LL L<LL L<LL L<LL L<LL L<LL L<LL L<LL L<LL L<LL L<LL L<LL L<LL L<LL L<LL L<LL L<LL L<LL L<LL L<LL L<LL L<LL L<LL L<LL L<LL L<LL L<LL L<LL L<LL L<LL L<LL L<LL L<LL L<LL L<LL L<LL L<LL L<LL L<LL L<LL L<LL L<L L<L L<L <L <L < < < < < < < < < < < < < < < < < < < < < < < < < < < < < < < N< N< N<- N<- N<- N<- N<-- N<-N- NE<-N- NE<-N- NE<-N- NE<-NN- NE<-NN- NE<-NN- NE<-NN- NE<-NN- NE<-NN- NE<-NN- NE<-NN- NE<-NN- NE<-NN- NE<-NN- NE<-NN- NE<-NN- NE<-NN- NE<-NN- NE<-NN- NE<-NN- NE<-NN- NE<-NN- NE<-NN- NE<-NN- NE<-NN- NE<-NN- NE<-NN- NE<-NN- NE<-NN- NE<-NN- NE<-NN- NE<-NN- NE<-NN- NE<-NN- NE<-NN- NE<-NN- NE<-NN- NE<-NN- NE<-NN- NE<-NN- NE<-NN- NE<-NN- NE<-NN- NE<-NN- NE<-NN- NE<-NN- NE<-NN- NE<-NN- NE<-NN- NE<-NN- NE<-NN- NE<-NN- NE<-NN- NE<-NN- NE<-NN- NE<-NN- NE<-NN- NE<-NN- NE<-NN- NE<-NN- NE<-NN- NE<-NN- NE<-NN- NE<-NN- NE<-NN- NE<-NN- NE<-NN- NE<-NN- NE<-NN- NE<-NN- NE<-NN- NE<-NN- E<-NN- E<-NN- E<-N- E<-N- E<-N- E<-N- E<-N- E<-N- E<-N- E<-N- E<-N- E<-N- E<-N- E<-N- E<-N- E<-- E<-- E<-- E<-- E<-- E<-- E<-- E<-- E<-- E<-- E<-- E<-- E<-- E<-- E<-- E<-- E<-- E<-- E<-- E<-- E<-- E<-- E<-- E<-- E<-- E<- E<- E<- E<- E<- E<- E<- E<- E<- E<- E<- E<- E<- E<- E<- E<- E<- E<- E<- <- <- <- <- <- <- <- <- <- <- <- <- <- <- < < < < < < < < < < < < < < < < < < < < < < < < < < < <                                                      + + + + G+ G+ G+ G+ G+ G++ OG+O+ OG+O+ OG+O+ OG+O+ OG+O+ OG+O+ OG+O+ OG+O+ OG>+OO+ OG>+OO+ OG>+OO+ OG>+OO+ OG>+OO+ OG>+OO+ OG>+OO+ OG>+OO+ OG>+OO+ OG>+OO+ OG>+OO+ OG>+OO+ OG>+OO+ OG>+OO+ OG>+OO+ OG>+OO+ OG>+OO+ OG>+OO+ OG>+OO+ OG>+OO+ OG>+OO+ OG>+OO+ OG>+OO+ OG>+OO+ OG>+OO+ OG>+OO+ OG>+OO+ OG>+OO+ OG>+OO+ OG>+OO+ OG>+OO+ OG>+OO+ OG>+OO+ OG>+OO+ OG>+OO+ OG>+OO+ OG>+OO+ OG>+OO+ OG>+OO+ OG>+OO+ OG>+OO+ OG>+OO+ OG>+OO+ OG>+OO+ OG>+OO+ OG>+OO+ OG>+OO+ OG>+OO+ OG>+OO+ OG>+OO+ G>+OO+ G>+OO+ G>+OO+ G>+OO+ G>+OO+ G>+OO+ G>+OO+ G>+OO+ G>+OO+ G>+OO+ G>+OO+ G>+OO+ G>+OO+ G>+OO+ G>+OO+ G>+OO+ G>+OO+ G>+O+ G>+O+ G>++ G>++ G++ G++ G++ G++ G++ G++ G++ G++ G++ G++ G++ ++ ++ ++ ++ ++ ++ ++ ++ ++ ++ ++ ++ ++ ++ ++ ++ ++ ++ ++ ++ + + + + +                                                                                                                 * * * * * * * ** ** ** ** ** *E* *E* *E* E*E* E*EE* E*EE* E*EE* E*EE* EE>*EE* EE>*EE* EE>*EE* EE>*EE* EE>*EE* EE>*EE* EE>*EE* EE>*EE* EE>*EE* EE>*EE* EE>*EE* EE>*EE* EE>*EE* EE>*EE* EE>*EE* EE>*EE* EE>*EE* EE>*EE* EE>*EE* EE>*EE* EE>*EE* EE>*EE* EE>*EE* EE>*EE* EE>*EE* EE>*EE* EE>*EE* EE>*EE* EE>*EE* EE>*EE* EE>*EE* EE>*EE* EE>*EE* EE>*EE* EE>*EE* EE>*EE* EE>*EE* EE>*EE* EE>*EE* EE>*EE* EE>*EE* EE>*EE* EE>*EE* EE>*EE* EE>*EE* EE>*EE* EE>*EE* EE>*EE* EE>*EE* EE>*EE* EE>*EE* EE>*EE* EE>*EE* EE>*EE* EE>*EE* EE>*EE* EE>*EE* EE>*EE* EE>*EE* EE>*EE* EE>*EE* EE>*EE* EE>*EE* EE>*EE* EE>*EE* EE>*EE* EE>*EE* EE>*EE* EE>*EE* EE>*EE* EE>*EE* EE>*EE* EE>*EE* EE>*EE* EE>*EE* EE>*EE* EE>*EE* EE>*EE* EE>*EE* EE>*EE* EE>*EE* EE>*EE* EE>*EE* EE>*EE* EE>*EE* EE>*EE* EE>*EE* EE>*EE* EE>*EE* EE>*EE* EE>*EE* EE>*EE* EE>*EE* EE>*EE* EE>*EE* EE>*EE* EE>*EE EE>*EE EE>*EE EE>*EE EE>*EE EE>*EE EE>*EE EE>*EE EE>*EE EE>*EE EE>*EE EE>*EE EE>*EE EE>*EE EE>*EE EE>*EE EE>*EE EE>*EE EE>*EE EE>*EE EE>*EE EE>EE EE>EE EE>EE EE>EE EE>EE EE>EE EE>EE EE>EE EE>EE EE>EE EE>EE EE>EE EE>EE EE>EE EE>EE EE>EE EE>EE EE>EE EE>EE EE>EE EE>EE EE>EE EE>EE EE>EE EE>EE EE>EE EE>EE EE>EE EE>EE EE>EE EE>EE EE>EE EE>EE EE>EE EEEE EEEE EEEE EEEE EEEE EEEE EEEE EEEE EEEE EEEE EEEE EEEE EEEE EEEE EEEE EEEE EEEE EEEE EEEE EEEE EEEE EEEE EEEE EEEE EEEE EEEE EEE EEE EEE EEE EEE EEE EEE EEE EEE EEE EEE EEE EEE EEE EEE EEE EEE EEE EEE EEE EEE EEE EEE EEE EEE EEE EEE EEE EEE EEE EEE EEE EEE EEE EEE EEE EEE+ EEE+ EEE+ EEE+ EEE+ EEE+ E>EE+ E>EE+ E>EE+ E>EE+ E>EE+ EC>EE+ EC>EE+ EC>+EE+ EC>+EE+ EC>+EE+ EC>+EE+ EC>+EE+ EC>+EE+ EC>+EE+ EC>+EE+ EC>+EE+ EC>+EE+ EC>+EE+ EC>+EE+ EC>+EE+ EC>+EE+ EC>+EE+ EC>+EE+ EC>+EE+ EC>+EE+ EC>+EE+ EC>+EE+ EC>+EE+ EC>+EE+ EC>+EE+ EC>+EE+ EC>+EE+ EC>+EE+ EC>+EE+ EC>+EE+ EC>+EE+ EC>+EE+ EC>+EE+ EC>+EE+ EC>+EE+ EC>+EE+ EC>+EE+ EC>+EE+ EC>+EE+ EC>+EE+ EC>+E+ EC>+E+ EC>+E+ EC>+E+ EC>+E+ EC>+E+ EC>+E+ EC>+E+ EC>+E+ EC>+E+ EC>+E+ EC>+E+ EC>+E+ EC>+E+ EC>+E+ EC>+E+ EC>+E+ EC>+E+ EC>+E+ EC>+E+ EC>+E+ EC>+E+ EC>+E+ EC>+E+ EC>++ EC>++ EC>++ EC>++ EC>++ EC>++ EC>++ C>++ C>++ C>++ C>++ C>++ C>++ C>++ C>++ C>++ C>++ C>++ C>++ C>++ C>++ C>++ C>++ C>++ C>++ C>++ C>++ C>++ C>++ C>++ C>++ C>++ C>++ C>+G C>+G C>+G C>+G C>+G C>+G C>+G C>+G C>+G C>+G C>+G C>+G C>+G C>+G GC>+G GC>+G GC>+G GC>+G GC>+G GC>+G GC>+G GC>+G GC>+G GC>+G GC>+G GC>G GC>G GC>G GC>G GC>GG GC>GG GCGG GCGG GCGG GCGG GCGG GCGG GCGG GGG GGG GGG GGG GGG GGG GGG GGG GGG GGG GGG GGG GGG GGG GGG GGG GGG GGG GGG GGG GGG GGG GGG GGG GGG GGG GGG GGG GGG GGG GGG GGG GGG GGG GGG GGG GGG GGG GGG GGG GGG GGG GGG GGG GG GG GG GG GG GG GG GG GG GG GG G                                    ( ( ( ( ( ( C( C( CH( CH( CH( CH( CH( HCH( HCH( HC@(H( HC@(H( HC@(H( HC@(H( HC@(H( HC@(H( HC@(H( HC@(H( HC@(H( HC@(H( HC@(H( HC@(H( HC@(H( HC@(HH( HC@(HH( HC@(HH( HC@(HH( HC@(HH( HC@(HH( HC@(HH( HC@(HH( HC@(HH( HC@(HH( HC@(HH( HC@(HH( HC@(HH( HC@(HH( HC@(HH( HC@(HH( HC@(HH( HC@(HH( HC@(HH( HC@(HH( HC@(HH( HC@(HH( HC@(HH( HC@(HH( HC@(HH( HC@(HH( HC@(HH( HC@(HH( HC@(HH( HC@(HH( HC@(HH( HC@(HH( HC@(HH( HC@(HH( HC@(HH( HC@(HH( HC@(HH( HC@(HH( HC@(HH( HC@(HH( HC@(HH( HC@(HH( HC@(HH( HC@(HH( HC@(HH( HC@(HH( HC@(HH( HC@(HH( HC@(HH( HC@(HH( HC@(HH( HC@(HH( HC@(HH( HC@(HH( HC@(HH( HC@(HH( HC@(HH( HC@(HH( HC@(HH( HC@(HH( HC@(HH( HC@(HH( HC@(HH( HC@(HH( HC@(HH( HC@(HH( HC@(HH( HC@(HH( HC@(HH( HC@(HH( HC@(HH( HC@(HH( HC@(HH( HC@(HH( HC@(HH( HC@(HH( HC@(HH( HC@(HH( HC@(HH( HC@(HH( HC@(HH( HC@(HH( HC@(HH( HC@(HH( HC@(HH( HC@(HH( HC@(HH( HC@(HH( HC@(HH( HC@(HH( HC@(HH( HC@(HH( HC@(HH( HC(HH( HC(HH( HC(HH( HC(HH( HC(HH( HC(HH( HC(HH( HC(HH( HC(HH( HC(HH( HCHH( HCHH( HCHH( HCHH( HCHH( HCHH( HCHH( HCHH( HHH HHH HHH HHH HHH HHH HHH HHH HHH HHH HHH HHH HHH HHH HHH HHH HHH HHH HHH HHH HHH HHH HHH HHH HHH HHH HHH HHH HHH HHH HHH HHH HHH HHH HHH HHH HHH HHH HHH HHH HHH HHH HHH HHH HHH HHH HHH HHH HHH HHH HHH HHH HHH HHH HHH HHH HHH HHH HHH HHH HHH HHH HHH HHH HHH HHH HHH HHH HHH HHH HHH HHH HHH HHH HHH HHH HHH HHH HHH HHH HHH HHH HHH HHH HHH HHH HHH HHH HHH HHH HHH HHH HHH HHH HHH HHH HHH HHH HHH HHH HHH HHH HHH HHH HHH HHH HHH HHH HEHH HEH HEH HEH HEH HEH HEH HE*H HE*H HE*H HE>*H* HE>*H* HE>*H* HE>*H* HE>*H* HE>*H* HE>*H* HE>*H* HE>*H* HE>*H* HE>*H* E>*H* E>*H* E>*H* E>*H* E>*H* E>*H* E>*H* E>*H* E>*H* E>*H* E>*H* E>** E>** E>** E>** E>** E>** E>** E>** E>** E>** E>** E>** E>** E>** E>** E>** E>** E>** E>** E>** E>** E>** E>** E>** E>** E>** E>** E>** E>** E>** E>** E>** E>** E>** E>** E>** E>** E>** E>** E>** E>** E>** E>** E>** E>** E>** E>** E>** E>** E>** E>** E>** E>** E>** E>** E>** E>** E>* E>* E>* E>* E>* E>* E>* E>* E>* E>* E>* E>* E>* E>* E>* E* * * J* J* J* J* J* J* J JJ JJ JJ JJ JJ JJ JJ JJ JJ JJ JJ JJ JJ JJ JJ JJJ JJJ JJJ JJJ JJJ JJJ JJJ JJJ JJJ JJJ JJJ JJJ JJJ JJJ JJJ JJJ JJJ JJJ JJJ JJJ JJJ JJJ JJJ JJJ JJJ JJJ JJJ JJJ JJJ JJJ JJJ JJJ JJJ JJJ JJJ JJJ JJJ JJJ JJ JJ JJ JJ JJ JJ JJ JJ JJ JJ JJ JJ JJ JJ JJ JJ JJ JJ JJ JJ JJ JJ JJ JJ JJ JJ JJ J J J                                     C C C C C C C C C C C C C CH CH CH CH CH CH CH CH+ HCH+ HCH+ HCH+ HC+HH+ HC+HH+ HC+HH+ HC+HH+ HC+HH+ HC>+HH+ HC>+HH+ HC>+HH+ HC>+HH+ HC>+HH+ HC>+HH+ HC>+HH+ HC>+HH+ HC>+HH+ HC>+HH+ HC>+HH+ HC>+HH+ HC>+HH+ HC>+HH+ HC>+HH+ HC>+HH+ HC>+HH+ HC>+HH+ HC>+HH+ HC>+HH+ HC>+HH+ HC>+HH+ HC>+HH+ HC>+HH+ HC>+HH+ HC>+HH+ HC>+HH+ HC>+HH+ HC>+HH+ HC>+HH+ HC>+HH+ HC>+HH+ HC>+HH+ HC>+HH+ HC>+HH+ HC>+HH+ HC>+HH+ HC>+HH+ HC>+HH+ HC>+HH+ HC>+HH+ HC>+HH+ HC>+HH+ HC>+HH+ HC>+HH+ HC>+HH+ HC>+HH+ HC>+HH+ HC>+HH+ HC>+HH+ HC>+HH+ HC>+HH+ HC>+HH+ HC>+HH+ HC>+HH+ HC>+HH+ HC>+HH+ HC>+HH+ HC>+HH+ HC>+HH+ HC>+HH+ HC>+HH+ HC>+HH+ HC>+HH+ HC>+HH+ HC>+HH+ HC>+HH+ HC>+HH+ HC>+HH+ HC>+HH+ HC>+HH+ HC>+HH+ HC>+HH+ HC>+HH+ HC>+HH+ HC>+HH+ HC>+HH+ HC>+HH+ HC>+HH+ HC>+HH+ HC>+HH+ HC>+HH+ HC>+HH+ HC>+HH+ HC>+HH+ HC>+HH+ HC>+HH+ HC>+HH+ HC>+HH+ HC>+HH+ HC>+HH+ HC>+HH+ HC>+HH+ HC>+HH+ HC>+HH+ HC>+HH+ HC>+HH+ HC>+HH+ HC>+HH+ HC>+HH+ HC>+HH+ HC>+HH+ HC>+HH+ HC>+HH+ HC>+HH+ HC>+HH+ H>+HH+ H>+HH+ H>+HHG+ H>+HHG+ H>+HHG+ HG>+HHG+ HG>+HHG+ HG>+HHG+ HG>+HHG+ HG>+HHG+ HG>+HHG+ HG>+HGHG+ HG>+HGHG+ HG>+HGHG HG>+HGHG HG>+HGHG HG>+HGHG HG>+HGHG HG>+HGHG HG>+HGHG HG>+HGHG HG>+HGHG HG>+HGHG HG>+HGHG HG>+HGHG HG>+HGHG HG>+HGHG HG>+HGHG HG>+HGHG HG>HGHG HG>HGHG HG>HGHG HG>HGHG HG>HGG HG>HGG HG>HGG HG>HGG HG>HGG HG>HGG HG>HGG HG>HGG G>HGG G>HGG G>HGG G>HGG G>HGG G>GG G>GG G>GG G>GG G>GG G>GG G>GG G>GG G>GG G>GG G>GG G>GG G>GG G>GG G>GG G>GG G>GG G>GG G>GG G>GG G>GG G>GG G>GG G>GG G>GG G>GG G>GG G>GG G>GG GGG GGG GGG GGG GGG GGG GGG GGG GGG GGG GGG GGG GGG GGG GGG GGG GGG GGG GGG GGG GGG GGG GGG GGG GGG GGG GGG GGG GGG G@GG G@GG G@GG G@GG G@GG G@GG G@GG G@GG G@GG G@GG G@GG G@GG G@GG G@GG G@GG G@GG GE@<GE GE@<GE GE@<0GE GE@<0GE GE@<0GE GE@<0GE GE@<0GE GE@<0GE GE@<0GE E@<0GE E@<0GE E@<0GE0 E@<0GE0 E@<0EE0 E@<0EE0 E@<0EE0 E@<0EE0 E@<0EE0 E@<0EE0 E@<0EE0 E@<0EE0 E@<0EE0 E@<0EE0 E@<0EE0 E@<0EE0 E@<0EE0 E@<0EE0 E@<0EE0 E@<0EE0 E@<0EE0 E@<0EE0 E@<0EE0 E@<0EE0 E@<0EE0 E@<0EE0 E@<0EE0 E@<0EE0 E@<0EE0 E@<0EE0 E@<0EE0 E@<0EE0 E@<0EE0 E@<0EE0 E@<0EE0 E@<0EE0 E@<0EE0 E@<0EE0 E@<0EE0 E@<0EE0 E@<0EE0 E@<0EE0 E@<0EE0 E@<0EE0 E@<0EE0 E@<0EE0 E@<0EE0 E@<0EE0 E@<0EE0 E@<0EE0 E@<0EE0 E@<0EE0 E@<0EE0 E@<0EE0 E@<0EE0 E@0EE0 E@0EE0 E@0EE0 E@0EE0 E@0EE0 E@0EE0 E@0EE0 E@0EE0 E@0EE0 E@0EE0 E@0EE0 E@0EE0 E@0EE0 E@0EE0 E@0EE0 E@0EE0 E@0EE0 E@0EE0 E@0EE0 E@0EE0 E@0EE0 E@0EE0 E@0EE0 E@0EE0 E@0EE0 E@0EE0 E@0EE0 E@0EE0 E@0EE0 E0EE0 E0EE0 E0EE0 E0EE0 E0EE0 E0EE0 E0EE0 E0EE0 E0EE0 E0EE0 E0EE0 E0EE0 E0EE0 E;0EE0 C;0EE0 C;0EE0 C;0EE0 C;0EEC0 C;0EEC0 C;0EEC0 C;0EEC C;0EEC C;EEC C;EEC C;EEC C;EEC C;ECC C;ECC C;ECC C;ECC C;ECC C;ECC C;ECC C;ECC C;ECC C;ECC C;ECC C;ECC C;ECC C;CC C;CC C;CC C;CC C;CC C;CC C;CC C;CC C;CC C;CC C;CC C;CC C;CC C;CC C;CC C;CC C;CC C;CC C;CC C;CC C;CC C;CC C;CC C;CC C;CC C;CC C;CC C;CC C;CC C;CC C;CC C;CC C;CC C;CC C;CC C;CC C;CC C;CC C;CC ;CC ;CC ;CC ;C ;C ;C ;C ;C ;C ;C ;C C C C C C C                                             C2 C2 2C2 2C2 2C2 2C2 2C2 C2C2 C2C2 C>2C2 C>2C2 C>2CC2 C>2CC2 C>2CC2 C>2CC2 C>2CC2 C>2CC2 C>2CC2 C>2CC2 C>2CC2 C>92CC2 C>92CC2 C>92CC2 C>92CC2 C>92CC2 C>92CC2 C>92CC2 C>92CC2 C>92CC2 C>92CC2 C>92CC2 C>92CC2 C>92CC2 C>92CC2 C>92CC2 C>92CC2 C>92CC2 C>92CC2 C>92CC2 C>92CC2 C>92CC2 C>92CC2 C>92CC2 C>92CC2 C>92CC2 C>92CC2 C>92CC2 C>92CC2 C>92CC2 C>92CC2 C>92CC2 C>92CC2 C>92CC2 C>92CC2 C>92CC2 C>92CC2 C>92CC2 C>92CC2 C>92CC2 C>92CC2 C>92CC2 C>92CC2 C>92CC2 C>92CC2 C>92CC2 C>92CC2 C>92CC2 C>92CC2 C>92CC2 C>92CC2 C>92CC2 C>92CC2 C>92CC2 C>92CC2 C>92CC2 C>92CC2 C>92CC2 C>92CC2 C>92CC2 C>92CC2 C>92CC2 C>92CC2 C>92CC2 C>92CC2 C>92CC2 C>92CC2 C>92CC2 C>92CC2 C>92CC2 C>92CC2 C>92CC2 C>92CC2 C>92CC2 C>92CC2 C>92CC2 C>92CC2 C>92CC2 C>92CC2 C>92CC2 C>92CC2 C>92CC2 C>92CC2 C>92CC2 C>92CC2 C>92CC2 C>92CC2 C>9CC2 C>9CC2 C>9CBC2 C>9CBC2 C>9CBC2 C>9CBC2 C>9CBC2 C>9BCB2 C>9BCB2 C>9BB2 C>9BB2 C>9BB C>9BB C>9BB C>9BB C>9BB C>9BB C>9BB C>9BB CB>9BB CB>9BB CB>9BB CB>9BB CB>9BB B>9BB B>9BB B>9BB B>9BB B>9BB B>9BB B>9BB B>9BB B>9BB B>9BB B>9BB B>9BB B>9BB B>9BB B>9BB B>9BB B>9BB B>9BB B>9BB B>9BB B>9BB B>9BB B>9BB B>9BB B>9BB B>9BB B>9BB B>9B B>9B B>9CB B>9CB B>9CB B>9CB B>9C B>9CC B>9CC B>9CC B>9CC B>9CC B>9CC B>9CC B>9CC B>9CC B>9CC B>9CC B>9CC B>9CC B>9CC >9CC C>9CC C>9CC C>9CC C>9CC C>9CC C>9CC C>9CC C>9CC C>9CC C>9CC C>9CC C>9CC C>9CC C>9CC C>9CC C>9CC C>9CC C>9CC C>9CC C>9CC C>9CC C>9CC C>9CC C>9CC C>9CC C>9CC C>9CC C>9CC C>9CBC C>9CBC C>9CBC C>9CBC C>9CBC C>9CBC C>9CBC C>9CBC C>9CBC C>9CBC C>9CBCB C>9CBCB C>9CBCB C>9CBCB C>9CBCB C>9CBCB C>9CBCB C>9CBCB C>9CBCB C>9CBCB CB>9CBCB CB>9CBCB CB>9CBCB CB>9BCB CB>9BCB CB>9BCB CB>9BCB CB>9BCB CB>9BCB CB>9BCB CB>9BCB CB>9BCB CB>9&BCB CB>9&BCB CB>9&BCB CB>9&BCB CB>9&BCB CB>9&BB CB>9&BB CB>9&BB CB>9&BB CB>9&BB CB>9&BB CB>9&BB& CB>9&BB& CB>9&BB& CB>9&BB& CB>9&BB& CB>9&BB& CB>9&BB& B>9&BB& B>9&BB& B>9&BB& B>9&BB& B>9&BB& B>9&BB& B>9&BB& B>9&BB& B>9&BB& B>9&BB& B>9&BB& B>9&BB& B>9&BB& B>9&BB& B>9&BB& B>9&BB& B>9&BB& B>9&BB& B>9&BB& B>9&BB& B>9&BB& B>9&BB& B>9&BB& B>9&BB& B>9&BB& B>9&BB& B>9&BB& B>9&BB& B>9&BB& B>9&BB& B>9&BB& B>9&BB& B>9&BB& B>9&BB& B>9&BB& B>9&BB& B>9&BB& B>9&BB& B>9&BB& B>9&BB& B>9&BB& B>9&BB& B>9&BB& B>9&BB& B>9&BB& B>9&BB& B>9&BB& B>9&BB& B>9&BB& B>9&BB& B>9&BB& B>9&BB& B>9&BB& B>9&BB& B>9&BB& B>9&BB& B>9&BB& B>9&BB& B>9&BB& B>9&BB& B>9&BB& B>9&BB& B>9&BB& B>9&BB& B>9&BB& B>9&BB& B>9&BB& B>9&BB& B>9&BB& B>9&BB& B>9&BB& B>9&BB& B>9&BB& B>9&BB& B>9&BB& B>9BB& B>9BB& B>9BB& B>9BB& B>9BB& B>9BB B>9BB B>9BB B>9BB B>9BB B>9BB B>9BB B>9BB B>9BB B>9BB B>9BB B>9BBC B>9BBC B>9BBC B>9BBC B>9BBC B>9BBC B>9BCBC B>9BCBC B>9BCBC B>9BCBC B>9BCBC BC>9BCBC C>9BCBC C>9CBC C>9CBC C>9CC C>9CC C>9CC C>9CC C>9CC C9CC C9CC C9CC C9CC C9CC C9CC C9CC C9CC C9CC C9CC C9CC C9CC C9CC C9CC C9CC C9CC C9CC C9CC C9CC C9CC C9CC C9CC C9CC C9CC C9CC C9CC C9CC C9CC C9CC C9CC C9CC C9CC C9CC C9CC C9CC C9CC C9CC C9CC C9CC C9CC C9CC C9CC C9CC C9CC C9CC C9CC C9C C9C C9C C9C C9 C9 C9 C9 C9                                                                      + + + + >+ >+ >CC+ C>CC+ C>CC+ C>CC+ C>CC+ C>CC+ C>CC+ C>;CC+ C>;CC+ C>;+CC+ C>;+CC+ C>;+CC+ C>;+CC+ C>;+CC+ C>;+CC+ C>;+CC+ C>;+CC+ C>;+CC+ C>;+CC+ C>;+CC+ C>;+CC+ C>;+CC+ C>;+CC+ C>;+CC+ C>;+CC+ C>;+CC+ C>;+CC+ C>;+CC+ C>;+CC+ C>;+CC+ C>;+CC+ C>;+CC+ C>;+CC+ C>;+CC+ C>;+CC+ C>;+CC+ C>;+CC+ C>;+CC+ C>;+CC+ C>;+CC+ C>;+CC+ C>;+CC+ C>;+CC+ C>;+CC+ C>;+CC+ C>;+CC+ C>;+CC+ C>;+CC+ C>;+CC+ C>;+CC+ C>;+CC+ C>;+CC+ C>;+CC+ C>;+CC+ C>;+CC+ C>;+CC+ C>;+CC+ C>;+CC+ C>;+CC+ C>;+CC+ C>;+CC+ C>;+CC+ C>;+CC+ C>;+CC+ C>;+CC+ C>;+CC+ C>;+CC+ C>;+CC+ C>;+CC+ C>;+CC+ C>;+CC+ C>;+CC+ C>;+CC+ C>;+CC+ C>;+CC+ C>;+CC+ C>;+CC+ C>;+CC+ C>;+CC+ C>;+CC+ C>;+CC+ C>;+CC+ C>;+CC+ C>;+CC+ C>;+CC+ C>;+CC+ C>;+CC+ C>;+CC+ C>;+CC+ C>;+CC+ C>;+CC+ C>;+CC+ C>;+CC+ C>;+CC+ C>;+CC+ C>;+CC+ C>;+CC+ C>;+CC+ C>;+CC+ C>;+CC+ C>;+CC+ C>;+CC+ C>;+CC+ C>;+CC+ C>;+CC+ C>;+CC+ C>;+CC+ C>;+CC+ C>;+CC+ C>;+CC+ C>;+CC+ C>;+CC+ C>;+CC+ C>;+CC+ C>;+CC+ C>;+CC+ C>;+CC+ C>;+CC+ C>;+CC+ C>;+CC+ C>;+CC+ C>;+CC+ C>;+CC+ C>;+CC+ C>;+CC+ C>;+CC+ C>;+CC+ C>;+CC+ C>;+CC+ C>;+CC+ C>;+CC+ C>;+CC+ C>;+CC+ C>;+CC+ C>;+CC+ C>;+CC+ C>;+CC+ C>;+CC+ C>;+CC+ C>;+CC+ C>;+CC+ C>;+CC+ C>;+CC+ C>;+CC+ C>;+CC+ C>;+CC+ C>;+CC+ C>;+CC+ C>;+CC+ C>;+CC+ C>;+CC+ C>;+CC+ C>;+CC+ C>;+CC+ C>;+CC+ C>;+CC+ C>;+CC+ C>;+CC+ C>;+CC+ C>;+CC+ C>;+CC+ C>;+CC+ C>;+CC+ C>;+CC+ C>;+CC+ C>;+CC+ C>;+CC+ C>;+CC+ C>;+CC+ C>;+CC+ C>;+CC+ C>;+CC+ C>;+CC+ C>;+CC+ C>;+CC+ C>;+CC+ C>;+CC+ C>;+CC+ C>;+CC+ C>;+CC+ C>;+CC+ C>;+CC+ C>;+CC+ C>;+CC+ C>;+CC+ C>;+CC+ C>;+CC+ C>;+CC+ C>;+CC+ C>;+CC+ C>;+CC+ C>;+CC+ C>;+CC+ C>;+CC+ C>;+CC+ C>;+CC+ C>;+CC+ C>;+CC+ C>;+CC+ C>;+CC+ C>;+CC+ C>;+CC+ C>;+CC+ C>;+CC+ C>;+CC+ C>;+CC+ C>;+CC+ C>;+CC+ C>;+CC+ C>;+CC+ C>;+CC+ C>;+CC+ C>;+CC+ C>;+CC+ C>;+CC+ C>;+CC+ C>;+CC+ C>;+CC+ C>;+CC+ C>;+CC+ C>;+CC+ C>;+CC+ C>;+CC+ C>;+CC+ C>;+CC+ C>;+CC+ C>;+CC+ C>;+CC+ C>;+CC+ C>;+CC+ C>;+CC+ C>;+CC+ C>;+CC+ C>;+CC+ C>;+CC+ C>;+CC+ C>;+CC+ C>;+CC+ C>;+CC+ C>;+CC+ C>;+CC+ C>;+CC+ C>;+CC+ C>;+CC+ C>;+CC+ C>;+CC+ C>;+CC+ C>;+CC+ C>;+CC+ C>;+CC+ C>;+CC+ C>;+CC+ C>;+CC+ C>;+CC+ C>;+CC+ C>;+CC+ C>;+CC+ C>;+CC+ C>;+CC+ C>;+CC+ C>;+CC+ C>;+CC+ C>;+CC+ C>;+CC+ C>;+CC+ C>;+CC+ C>;+CC+ C>;+CC+ C>;+CC+ C>;+CC+ C>;+CC+ C>;+CC+ C>;+CC+ C>;+CC+ C>;+CC+ C>;+CC+ C>;+CC+ C>;+CC+ C>;+CC+ C>;+CC+ C>;+CC+ C>;+CC+ C>;+CC+ C>;+CC+ C>;+CC+ C>;+CC+ C>;+CC+ C>;+CC+ C>;+CC+ C>;+CC+ C>;+CC+ C>;+CC+ C>;+CC+ C>;+CC+ C>;+CC+ C>;+CC+ C>;+CC+ C>;+CC+ C>;+CC+ C>;+CC+ C>;+CC+ C>;+CC+ C>;+CC+ C>;+CC+ C>;+CC+ C>;+CC+ C>;+CC+ C>;+CC+ C>;+CC+ C>;+CC+ C>;+CC+ C>;+CC+ C>;+CC+ C>;+CC+ C>;+CC+ C>;+CC+ C>;+CC+ C>;+CC+ C>;+CC+ C>;+CC+ C>;+CC+ C>;+CC+ C>;+CC+ C>;+CC+ C>;+CC+ C>;+CC+ C>;+CC+ C>;+CC+ C>;+CC+ C>;+CC+ C>;+CC+ C>;+CC+ C>;+CC+ C>;+CC+ C>;+CC+ C>;+CC+ C>;+CC+ C>;+CC+ C>;+CC+ C>;+CC+ C>;+CC+ C>;+CC+ C>;+CC+ C>;+CC+ C>;+CC+ C>;+CC+ C>;+CC+ C>;+CC+ C>;+CC+ C>;+CC+ C>;+CC+ C>;+CC+ C>;+CC+ C>;+CC+ C>;+CC+ C>;+CC+ C>;+CC+ C>;+CC+ C>;+CC+ C>;+CC+ C>;+CC+ C>;+CC+ C>;+CC+ C>;+CC+ C>;+CC+ C>;+CC+ C>;+CC+ C>;+CC+ C>;+CC+ C>;+CC+ C>;+CC+ C>;+CC+ C>;+CC+ C>;+CC+ C>;+CC+ C>;+CC+ C>;+CC+ C>;+CC+ C>;+CC+ C>;+CC+ C>;+CC+ C>;+CC+ C>;+CC+ C>;+CC+ C>;+CC+ C>;+CC+ C>;+CC+ C>;+CC+ C>;+CC+ C>;+CC+ C>;+CC+ C>;+CC+ C>;+CC+ C>;+CC+ C>;+CC+ C>;+CC+ C>;+CC+ C>;+CC+ C>;+CC+ C>;+CC+ C>;+CC+ C>;+CC+ C>;+CC+ C>;+CC+ C>;+CC+ C>;+CC+ C>;+CC+ C>;+CC+ C>;+CC+ C>;+CC+ C>;+CC+ C>;+CC+ C>;+CC+ C>;+CC+ C>;+CC+ C>;+CC+ C>;+CC+ C>;+CC+ C>;+CC+ C>;+CC+ C>;+CC+ C>;+CC+ C>;+CC+ C>;+CC+ C>;+CC+ C>;+CC+ C>;+CC+ C>;+CC+ C>;+CC+ C>;+CC+ C>;+CC+ C>;+CC+ C>;+CC+ C>;+CC+ C>;+CC+ C>;+CC+ C>;+CC+ C>;+CC+ C>;+CC+ C>;+CC+ C>;+CC+ C>;+CC+ C>;+CC+ C>;+CC+ C>;+CC+ C>;+CC+ C>;+CC+ C>;+CC+ C>;+CC+ C>;+CC+ C>;+CC+ C>;+CC+ C>;+CC+ C>;+CC+ C>;+CC+ C>;+CC+ C>;+CC+ C>;+CC+ C>;+CC+ C>;+CC+ C>;+CC+ C>;+CC+ C>;+CC+ C>;+CC+ C>;+CC+ C>;+CC+ C>;+CC+ C>;+CC+ C>;+CC+ C>;+CC+ C>;+CC+ C>;+CC+ C>;+CC+ C>;+CC+ C>;+CC+ C>;+CC+ C>;+CC+ C>;+CC+ C>;+CC+ C>;+CC+ C>;+CC+ C>;+CC+ C>;+CC+ C>;+CC+ C>;+CC+ C>;+CC+ C>;+CC+ C>;+CC+ C>;+CC+ C>;+CC+ C>;+CC+ C>;+CC+ C>;+CC+ C>;+CC+ C>;+CC+ C>;+CC+ C>;+CC+ C>;+CC+ C>;+CC+ C>;+CC+ C>;+CC+ C>;+CC+ C>;+CC+ C>;+CC+ C>;+CC+ C>;+CC+ C>;+CC+ C>;+CC+ C>;+CC+ C>;+CC+ C>;+CC+ C>;+CC+ C>;+CC+ C>;+CC+ C>;+CC+ C>;+CC+ C>;+CC+ C>;+CC+ C>;+CC+ C>;+CC+ C>;+CC+ C>;+CC+ C>;+CC+ C>;+CC+ C>;+CC+ C>;+CC+ C>;+CC+ C>;+CC+ C>;+CC+ C>;+CC+ C>;+CC+ C>;+CC+ C>;+CC+ C>;+CC+ C>;+CC+ C>;+CC+ C>;+CC+ C>;+CC+ C>;+CC+ C>;+CC+ C>;+CC+ C>;+CC+ C>;+CC+ C>;+CC+ C>;+CC+ C>;+CC+ C>;+CC+ C>;+CC+ C>;+CC+ C>;+CC+ C>;+CC+ C>;+CC+ C>;+CC+ C>;+CC+ C>;+CC+ C>;+CC+ C>;+CC+ C>;+CC+ C>;+CC+ C>;+CC+ C>;+CC+ C>;+CC+ C>;+CC+ C>;+CC+ C>;+CC+ C>;+CC+ C>;+CC+ C>;+CC+ C>;+CC+ C>;+CC+ C>;+CC+ C>;+CC+ C>;+CC+ C>;+CC+ C>;+CC+ C>;+CC+ C>;+CC+ C>;+CC+ C>;+CC+ C>;+CC+ C>;+CC+ C>;+CC+ C>;+CC+ C>;+CC+ C>;+CC+ C>;+CC+ C>;+CC+ C>;+CC+ C>;+CC+ C>;+CC+ C>;+CC+ C>;+CC+ C>;+CC+ C>;+CC+ C>;+CC+ C>;+CC+ C>;+CC+ C>;+CC+ C>;+CC+ C>;+CC+ C>;+CC+ C>;+CC+ C>;+CC+ C>;+CC+ C>;+CC+ C>;+CC+ C>;+CC+ C>;+CC+ C>;+CC+ C>;+CC+ C>;+CC+ C>;+CC+ C>;+CC+ C>;+CC+ C>;+CC+ C>;+CC+ C>;+CC+ C>;+CC+ C>;+CC+ C>;+CC+ C>;+CC+ C>;+CC+ C>;+CC+ C>;+CC+ C>;+CC+ C>;+CC+ C>;+CC+ C>;+CC+ C>;+CC+ C>;+CC+ C>;+CC+ C>;+CC+ C>;+CC+ C>;+CC+ C>;+CC+ C>;+CC+ C>;+CC+ C>;+CC+ C>;+CC+ C>;+CC+ C>;+CC+ C>;+CC+ C>;+CC+ C>;+CC+ C>;+CC+ C>;+CC+ C>;+CC+ C>;+CC+ C>;+CC+ C>;+CC+ C>;+CC+ C>;+CC+ C>;+CC+ C>;+CC+ C>;+CC+ C>;+CC+ C>;+CC+ C>;+CC+ C>;+CC+ C>;+CC+ C>;+CC+ C>;+CC+ C>;+CC+ C>;+CC+ C>;+CC+ C>;+CC+ C>;+CC+ C>;+CC+ C>;+CC+ C>;+CC+ C>;+CC+ C>;+CC+ C>;+CC+ C>;+CC+ C>;+CC+ C>;+CC+ C>;+CC+ C>;+CC+ C>;+CC+ C>;+CC+ C>;+CC+ C>;+CC+ C>;+CC+ C>;+CC+ C>;+CC+ C>;+CC+ C>;+CC+ C>;+CC+ C>;+CC+ C>;+CC+ C>;+CC+ C>;+CC+ C>;+CC+ C>;+CC+ C>;+CC+ C>;+CC+ C>;+CC+ C>;+CC+ C>;+CC+ C>;+CC+ C>;+CC+ C>;+CC+ C>;+CC+ C>;+CC+ C>;+CC+ C>;+CC+ C>;+CC+ C>;+CC+ C>;+CC+ C>;+CC+ C>;+CC+ C>;+CC+ C>;+CC+ C>;+CC+ C>;+CC+ C>;+CC+ C>;+CC+ C>;+CC+ C>;+CC+ C>;+CC+ C>;+CC+ C>;+CC+ C>;+CC+ C>;+CC+ C>;+CC+ C>;+CC+ C>;+CC+ C>;+CC+ C>;+CC+ C>;+CC+ C>;+CC+ C>;+CC+ C>;+CC+ C>;+CC+ C>;+CC+ C>;+CC+ C>;+CC+ C>;+CC+ C>;+CC+ C>;+CC+ C>;+CC+ C>;+CC+ C>;+CC+ C>;+CC+ C>;+CC+ C>;+CC+ C>;+CC+ C>;+CC+ C>;+CC+ C>;+CC+ C>;+CC+ C>;+CC+ C>;+CC+ C>;+CC+ C>;+CC+ C>;+CC+ C>;+CC+ C>;+CC+ C>;+CC+ C>;+CC+ C>;+CC+ C>;+CC+ C>;+CC+ C>;+CC+ C>;+CC+ C>;+CC+ C>;+CC+ C>;+CC+ C>;+CC+ C>;+CC+ C>;+CC+ C>;+CC+ C>;+CC+ C>;+CC+ C>;+CC+ C>;+CC+ C>;+CC+ C>;+CC+ C>;+CC+ C>;+CC+ C>;+CC+ C>;+CC+ C>;+CC+ C>;+CC+ C>;+CC+ C>;+CC+ C>;+CC+ C>;+CC+ C>;+CC+ C>;+CC+ C>;+CC+ C>;+CC+ C>;+CC+ C>;+CC+ C>;+CC+ C>;+CC+ C>;+CC+ C>;+CC+ C>;+CC+ C>;+CC+ C>;+CC+ C>;+CC+ C>;+CC+ C>;+CC+ C>;+CC+ C>;+CC+ C>;+CC+ C>;+CC+ C>;+CC+ C>;+CC+ C>;+CC+ C>;+CC+ C>;+CC+ C>;+CC+ C>;+CC+ C>;+CC+ C>;+CC+ C>;+CC+ C>;+CC+ C>;+CC+ C>;+CC+ C>;+CC+ C>;+CC+ C>;+CC+ C>;+CC+ C>;+CC+ C>;+CC+ C>;+CC+ C>;+CC+ C>;+CC+ C>;+CC+ C>;+CC+ C>;+CC+ C>;+CC+ C>;+CC+ C>;+CC+ C>;+CC+ C>;+CC+ C>;+CC+ C>;+CC+ C>;+CC+ C>;+CC+ C>;+CC+ C>;+CC+ C>;+CC+ C>;+CC+ C>;+CC+ C>;+CC+ C>;+CC+ C>;+CC+ C>;+CC+ C>;+CC+ C>;+CC+ C>;+CC+ C>;+CC+ C>;+CC+ C>;+CC+ C>;+CC+ C>;+CC+ C>;+CC+ C>;+CC+ C>;+CC+ C>;+CC+ C>;+CC+ C>;+CC+ C>;+CC+ C>;+CC+ C>;+CC+ C>;+CC+ C>;+CC+ C>;+CC+ C>;+CC+ C>;+CC+ C>;+CC+ C>;+CC+ C>;+CC+ C>;+CC+ C>;+CC+ C>;+CC+ C>;+CC+ C>;+CC+ C>;+CC+ C>;+CC+ C>;+CC+ C>;+CC+ C>;+CC+ C>;+CC+ C>;+CC+ C>;+CC+ C>;+CC+ C>;+CC+ C>;+CC+ C>;+CC+ C>;+CC+ C>;+CC+ C>;+CC+ C>;+CC+ C>;+CC+ C>;+CC+ C>;+CC+ C>;+CC+ C>;+CC+ C>;+CC+ C>;+CC+ C>;+CC+ C>;+CC+ C>;+CC+ C>;+CC+ C>;+CC+ C>;+CC+ C>;+CC+ C>;+CC+ C>;+CC+ C>;+CC+ C>;+CC+ C>;+CC+ C>;+CC+ C>;+CC+ C>;+CC+ C>;+CC+ C>;+CC+ C>;+CC+ C>;+CC+ C>;+CC+ C>;+CC+ C>;+CC+ C>;+CC+ C>;+CC+ C>;+CC+ C>;+CC+ C>;+CC+ C>;+CC+ C>;+CC+ C>;+CC+ C>;+CC+ C>;+CC+ C>;+CC+ C>;+CC+ C>;+CC+ C>;+CC+ C>;+CC+ C>;+CC+ C>;+CC+ C>;+CC+ C>;+CC+ C>;+CC+ C>;+CC+ C>;+CC+ C>;+CC+ C>;+CC+ C>;+CC+ C>;+CC+ C>;+CC+ C>;+CC+ C>;+CC+ C>;+CC+ C>;+CC+ C>;+CC+ C>;+CC+ C>;+CC+ C>;+CC+ C>;+CC+ C>;+CC+ C>;+CC+ C>;+CC+ C>;+CC+ C>;+CC+ C>;+CC+ C>;+CC+ C>;+CC+ C>;+CC+ C>;+CC+ C>;+CC+ C>;+CC+ C>;+CC+ C>;+CC+ C>;+C+ C>;+C+ C>;+C+ C>;+C+ C>;+C+ C>;+C+ C>;+C+ C>;+C+ C>;+C+ C>;+C+ C>;+C+ C>+C C>+C C>+C C>+C C>+C C>+C C>+C C>+C C>+C C>+ C>+ C>+ C>+ C>+ C>+ C>+ C>+ C>+ C>+ C>+ C>+ C>+ C>+ C>+ C>+ C>+ C>+ C>+ C>+ C>+ >+ >+ >+ >+ > >                                                                                                                                                                                                                                                                                      H H H HH HH HH HH HH HH HH HHH HHH HHH HHH HHH HCHH HCHH HCHH HCHH HCHH HC0HH0 HC0HH0 HC@0HH0 HC@0HH0 HC@0HH0 HC@0HH0 HC@0HH0 HC@0HH0 HC@0HH0 HC@0HH0 HC@0HH0 HC@0HH0 HC@0HH0 HC@0HH0 HC@0HH0 HC@0HH0 HC@0HH0 HC@0HH0 HC@0HH0 HC@0HH0 HC@0HH0 HC@0HH0 HC@0HH0 HC@0HH0 HC@0HH0 HC@0HH0 HC@0HH0 HC@0HH0 HC@0HH0 HC@0HH0 HC@0HH0 HC@0HH0 HC@0HH0 HC@0HH0 HC@0HH0 C@0HH0 C@0HH0 C@0HH0 C@0HH0 C@0HH0 C@0HH0 C@0H0 C@0H0 C@0H0 C@0H0 C@0H0 C@0H0 C@0H0 C@0H0 C@0H0 C@0H0 C@0H0 C@00 C@00 C@00 C@00 C@00 C@0 C@0 C@0 C@0 C@0 @0 @0 @0 @0                                                 CH CH CH HCHH HCHH HCHH HCHH HCHH HCHH HCHH HCHH HCHH HC@HH0 HC@HH0 HC@0HH0 HC@0HH0 HC@0HH0 HC@0HH0 HC@0HH0 HC@0HH0 HC@0HH0 HC@0HH0 HC@0HH0 HC@0HH0 HC@0HH0 HC@0HH0 HC@0HH0 HC@0HH0 HC@0HH0 HC@0HH0 HC@0HH0 HC@0HH0 HC@0HH0 HC@0HH0 HC@0HH0 HC@0HH0 HC@0HH0 HC@0HH0 HC@0HH0 HC@0HH0 HC@0HH0 HC@0HH0 HC@0HH0 HC@0HH0 HC@0HH0 HC@0HH0 HC@0HH0 HC@0HH0 HC@0HH0 HC@0HH0 HC@0HH0 HC@0HH0 HC@0HH0 HC@0HH0 HC@0HH0 HC@0HH0 HC@0HH0 HC@0HH0 HC@0HH0 HC@0HH0 HC@0HH0 HC@0HH0 HC@0HH0 HC@0HH0 HC@0HH0 HC@0HH0 HC@0HH0 HC@0HH0 HC@0HH0 HC@0HH0 HC@0HH0 HC@0HH0 HC@0HH0 HC@0HH0 HC@0HH0 HC@0HH0 HC@0HH0 HC@0HH0 HC@0HH0 HC@0HH0 HC@0HH0 HC@0HH0 HC@0HH0 HC@0HH0 HC@0HH0 HC@0HH0 HC@0HH0 HC@0HH0 HC@0HH0 HC@0HH0 HC@0HH0 HC@0HH0 HC@0HH0 HC@0HH0 HC@0HH0 HC@0HH0 HC@0HH0 HC@0HH0 HC@0HH0 HC@0HH0 HC@0HH0 HC@0HH0 HC@0HH0 HC@0HH0 HC@0HH0 HC@0HH0 HC@0HH0 HC@0HH0 HC@0HH0 HC@0HH0 HC@0HH0 HC@0HH0 HC@0HH0 HC@0HGH0 HC@0HGH0 HC@0HGH0 HC@0HGH0 HC@0HGH0 HC@0HGH0 HC@0HGHG0 HC@0HGHG0 HC@0HGHG0 HC@0HGHG0 HGC@0HGHG0 HGC@>0HGHG0 HGC@>0HGHG0 HGC@>0HGHG0 HGC@>0HGHG0 HGC@>0HGHG0 HGC@>0HGHG0 HGC@>0HGHG0 HGC@>0HGHG0 HGC@>0HGHG0 HGC@>0HGHG0 HGC@>0HGHG0 HGC@>0HGHG0 HGC@>0HGHG0 HGC@>0HGHG0 HGC@>0HGHG0 HGC@>0HGHG0 HGC@>0HGHG0 HGC@>0HGHG0 HGC@>0HGHG0 HGC@>0HGHG0 HGC@>0HGHG0 HGC@>0GHG0 HGC@>0GHG0 GC@>0GG0 GC@>0GG0 GC@>0GG0 GC@>0GG0 GC@>0GG0 GC@>0GG0 GC@>0GG0 GC@>0GG0 GC@>0GG0 GC@>0GG0 GC>0GG0 GC>0GG0 GC>0GG0 GC>0GG0 GC>0GG0 GC>0GG0 GC>0GG0 GC>0GG0 GC>0GG0 GC>0GG0 GC>0GG0 GC>0GG0 GC>0GG0 GC>0GG0 GC>0GG0 GC>0GG0 GC>0GG0 GC>0GG0 GC>0GG0 GC>0GG0 GC>0GG0 GC>0GG0 GC>0GG0 GC>0GG0 GC>0GG0 GC>0GG0 GC>0GG0 GC>0GG0 GC>0GG0 GC>0GG0 GC>0GG0 GC>0GG0 GC>0GG0 GC>0GG0 GC>0GG0 GC>0GG0 GC>0GG0 GC>0GG0 GC>0GG0 GC>0GG0 GC>0GG0 GC>0GG0 GC>0GG0 GC>0GG0 GC>0GG0 GC>0GG0 GC>0GG0 GC>0GG0 GC>0GG0 GC>0GG0 GC>0GG0 GC>0GG0 GC>0GG0 GC>0GG0 GC>0GG0 GC>0GG0 GC>0GG0 GC>0GG0 GC>0GG0 GC>0GG0 GC>0GG0 GC>0GG0 GC>0GG0 GC>0GG0 GC>0GG0 GC>0GG0 GC>0GG0 GC>0GG0 GC>0GG0 GC>0GG0 GC>0GG0 GC>0GG0 GC>0GG0 GC>0GG0 GC>0GG0 GC>0GG0 GC>0GG0 GC>0GG0 GC>0GG0 GC>0GG0 GC>@0GG0 GC>@0GG0 GC>@0GG0 GC>@0GHG0 GC>@0GHG0 GC>@0GHG0 GC>@0GHG0 GC>@0GHG0 GC>@0GHG0 GHC>@0GHGH0 GHC>@0GHGH0 GHC>@0GHGH0 GHC>@0GHGH0 GHC>@0GHGH0 GHC>@0GHGH0 GHC>@0GHGH0 HC>@0GHGH0 HC>@0GHGH0 HC>@0HGH0 HC>@0HGH0 HC>@0HGH0 HC>@0HGH0 HC>@0HGH0 HC>@0HGH0 HC>@0HGH0 HC@0HGH0 HC@0HGH0 HC@0HH0 HC@0HH0 HC@0HH0 HC@0HH0 HC@0HH0 HC@0HH0 HC@0HH0 HC@0HH0 HC@0HH0 HC@0HH0 HC@0HH0 HC@0HH0 HC@0HH0 HC@0HH0 HC@0HH0 HC@0HH0 HC@0HH0 HC@0HH0 HC@0HH0 HC@0HH0 HC@0HH0 HC@0HH0 HC@0HH0 HC@0HH0 HC@0HH0 HC@0HH0 HC@0HH0 HC@0HH0 HC@0HH0 HC@0HH0 HC@0HH0 HC@0HH0 HC@0HH0 HC@0HH0 HC@0HH0 HC@0HH0 HC@0HH0 HC@0HH0 HC@0HH0 HC@0HH0 HC@0HH0 HC@0HH0 HC@0HH0 HC@0HH0 HC@0HH0 HC@0HH0 HC@0HH0 HC@0HH0 HC@0HH0 HC@0HH0 HC@0HH0 HC@0HH0 HC@0HH0 HC@0HH0 HC@0HH0 HC@0HH0 HC@0HH0 H@0HH0 H@0HH0 H@0HH0 H@0HH0 H@0HH0 H@0HH0 H@0HH0 H@0HH0 H@0HH0 H@0HH0 H@0HH0 H@0HH0 H@0HH0 H@0HH0 H@0HH0 H@0HH0 H@A0HH0 H@A0HH0 H@A0HH0 H@A0HH0 H@A0HH0 H@A0HH0 H@A0HH0 H@A0HH0 H@A0HH0 H@A0HJH0 H@A0HJH0 H@A0HJH0 H@A0HJH0 H@A0HJH0 H@A0HJH0 H@A0HJHJ0 HJ@A0HJHJ0 HJ@A0HJHJ0 HJ@A0HJHJ0 HJ@A0HJHJ0 HJ@A0HJHJ0 J@A0HJHJ0 J@A0HJHJ0 J@A0HJHJ0 J@A0HJHJ0 J@A0HJHJ0 J@A0HJHJ0 J@A0HJHJ0 J@A0HJHJ0 J@A0HJHJ0 J@A0HJHJ0 J@A0HJHJ0 J@A0HJHJ0 J@A0JHJ0 J@A0JHJ0 J@A0JHJ0 JA0JHJ0 JA0JHJ0 JA0JJ0 JA0JJ0 JA0JJ0 JA0JJ0 JA0JJ0 JA0JJ0 JA0JJ0 JA0JJ0 JA0JJ0 JA0JJ0 JA0JJ0 JA0JJ0 JA0JJ0 JA0JJ0 JA0JJ0 JA0JJ0 JA0JJ0 JA0JJ0 JA0JJ0 JA0JJ0 JA0JJ0 JA0JJ0 JA0JJ0 JA0JJ0 JA0JJ0 JA0JJ0 JA0JJ0 JA0JJ0 JA0JJ0 JA0JJ0 JA0JJ0 JA0JJ0 JA0JJ0 JA0JJ0 JA0JJ0 JA0JJ0 JA0JJ0 JA0JJ0 JA0JJ0 JA0JJ0 JA0JJ0 JA0JJ0 JA0JJ0 JA0JJ0 JA0JJ0 JA0JJ0 JA0JJ0 JA0JJ0 JA0JJ0 JA0JJ0 JA0JJ0 JA0JJ0 JA0JJ0 JA0JJ0 JA0JJ0 JA0JJ0 JA0JJ0 JA0JJ0 JA0JJ0 JA0JJ0 JA0JJ0 JA0JJ0 JA0JJ0 JA0JJ0 JA0JJ0 JA0JJ0 JA0JJ0 JA0JJ0 JA0JJ0 JA0JJ0 JA0JJ0 JA0JJ0 JA0JJ0 JA0JJ0 JA0JJ0 JA0JJ0 JA0JJ0 JA0JJ0 JA0JJ0 JA0JJ0 JA0JJ0 JA0JJ0 JA0JJ0 JA0JJ0 JA0JJ0 JA0JJ0 JA0JJ0 JA0JJ0 JA0JJ0 JA0JJ0 JA0JJ0 JA0JJ0 JA0JJ0 J0JJ0 J0JJ0 J00 J00 J00 JH0L0 JHC0L0 JHC0L0 JHC0L0 JHC0LL0 JHC0LL0 JHC0LL0 HC0LL0 HC0LL0 HC0LL0 HC0LL0 LHC0LL0 LHC0LL0 LHC0LL0 LHC0LL0 LHC0LL0 LHC0LL0 LHC0LL0 LHC0LL0 LHC0LL0 LHC0LL0 LHC0LL0 LHC0LL0 LHC0LL0 LHC0LL0 LHC0LL0 LHC0LL0 LHC0LL0 LHC0LL0 LHC0LL0 LHC0LL0 LHC0LL0 LHC0LL0 LHC0LL0 LHC0LL0 LHC0LL0 LHC0LL0 LHC0LL0 LHC0LL0 LHC0LL0 LHC0LL0 LHC0LL0 LHC0LL0 LHC0LL0 LHC0LL0 LHC0LL0 LHC0LL0 LHC0LL0 LHC0LL0 LHC0LL0 LHC0LL0 LHC0LL0 LHC0LL0 LHC0LL0 LHC0LL0 LHC0LL0 LHC0LL0 LHCLL0 LHCLL0 LHCLL0 LHCLL0 LHCLL0 LHCLL0 LHCLL0 LHCLL0 LHCLL0 LHCLL0 LHCLL0 LHCLL0 LHCLL0 LHCLL0 LHCLL0 LHCLL0 LHCLL0 LHCLL0 LHCLL0 LHCLL0 LHCLL0 LHCLL0 LHCLL0 LHCLL0 LHCLL0 LHCLL0 LHCLL0 LHCLL0 LHCLL0 LHCLL0 LHCLL0 LHCLL0 LHCLL0 LHCLL0 LHCLL0 LHCLL0 LHCLL0 LHCLL0 LHCLL0 LHCLL0 LHCLL0 LHCLL0 LHCLL0 LHCLL0 LHCLL0 LHCLL0 LHCLL0 LHCLL0 LHCLL0 LHCLL0 LHCLL0 LHCLL0 LHCLL0 LHCLL0 LHCLL0 LHCLL0 LHCLL0 LHCLL0 LHCLL0 LHCLL0 LHCLL0 LHCLL0 LHCLL0 LHCLL0 LHCLL LHCLL LHCLL LHCLL LHCLL LHCLL LHCLL LHCLL LHCLL LHCLL LHCLL LHCLL LHCLL LHCLL LHCLL LHCLL LHCLL LHCLL LHCLL LHCLL LHCLL LHCLL LHCLL LHCLL LHCLL LHCLL LHCLL LHCLL LHCLL LHCLL LHCLL LHCLL LHCLL LHCLL LHCLL LHCLL LHCLL LHCLL LHCLL LHCLL LHCLL LHCLL LHCLL LHCLL LHCLL LHCLL LHCLL LHCLL LHCLL LHCLL LHCLL LHCLL LHCLL LHCLL LHCLL LHCLL LHCLL LHCLL LHCLL LHCLL LHCLL LHCLL LHCL LHCL LHCL LHCL LHCL LHCL LHCL LHCL LHCL LHCL LHCL LHCL LHCL LHCL LHCL LHL HL H H H H H H H H H H H H H H H H H H H H H H H H H H H H H H H H H H H H H H H H H H H<< H<< H<< << << << << << << << << << << << << << << << << << << << << << << << << << << << << << << << << << << << << << << << << << << << << << << << << << << << << << << << << << << << << << << << << << << << << << << << << << << << << << << << << << << << << E<< E<< E<< E<< E<< E<< E<< E<< E<< E<< E<< E<< E<< E<< E<< E<M E<M E<M E<M E<M E<M E<M E<M E<M E<M E<M E<M E<M E<M ME<M ME<M ME<MM ME<MM ME<MM ME<MM ME<MM ME<MM MEMM MEMM MEMM MEMM MEMM MEMM MEMM MEMM MEMM MEMM MEMM MEMM MEMM MEMM MEMM MEMM MEMM MEMM MEMM MEMM MEMM MEMM MEMM MEMM MEMM MEMM MEMM MEMM MEMM MEMM MEMM MEMM MEMM MEMM MEMM MEMM MMM MMM MMM MMM MMM MMM MM MM MM MM MM MM MM MM MM MM MM MM MM MM MM MM MM MM MM MM M M M M M M M M                                C C C C HC HC HC HC HC7 HC7 HC7 HC7 HCL7 HCL7 HCL7 HCL7 HCL7 HCL7 HCL7 HCL7 HCL7 HCL7 HCL7 HC7L7 HC7L7 HC7L7 HC7L7 HC7L7 HC7L7 HC7L7 HC7LL7 HC7LL7 HC7LL7 HC7LL7 HC7LL7 LHC7LL7 LHC7LL7 LHC7LL7 LHC7LL7 LHC7LL7 LHC7LL7 LHC7LL7 LHC7LL7 LHC7LL7 LHC7LL7 LHC7LL7 LHC7LL7 LHC7LL7 LHC7LL7 LHC7LL7 LHC7LL7 LHC7LL7 LHCA7LL7 LHCA7LL7 LHCA7LL7 LHCA7LL7 LHCA7LL7 LHGCA7LL7 LHGCA7LL7 LHGA7LL7 LHGA7LL7 LHGA7LL7 LHGA7LL7 LHGA7LL7 LHGA7LL7 LHGA7LL7 LGA7LL7 LGA7LL7 LGA7LJL7 LGA7LJL7 LGA7LJL7 LGA7LJL7 LGA7LJL7 LGA7LJL7 LGA7LJL7 LGA7LJL7 LGA7LJL7 LGA7JL7 LGA7JL7 LGA7JL7 LGA7JL7 LGA7JL7 LGA7JL7 LGA7JLJ7 LGA7JLJ7 LGA7JLJ7 LGA7JLJ7 LGA7JLJ7 LGA7JLJ7 LGA7JLJ7 LGA7JLJ7 LGA7JLJ7 LGA7JJ7 LGA7JJ7 LGA7JJ7 LGA7JJ7 LGA7JJ7 LGA7JJ7 LGA7JJ7 LJGAC7JJ7 LJGAC7JJ7 LJGAC7JJ7 LJGAC7JJ7 LJGAC7JJ7 JGAC7JJ7 JGAC7JJ7 JGAC7JJ7 JGC7JJ JGHC7JJ JGHC7JJ JGHC7JJ JGHC7JJ JGHC7JJ JGHC7JJ JGHC7J JGHC7J JHC7LJ JHC7LJ JHC7LJ JHC7LJ JHC7LJ JHC7LJ JHC7LJ JHC7LJ JHC7LJ JHC7LJ JHC7LJ JHC7LJL JHC7LJL JHC7LL JHC7LL JHC7LL JHC7LL JHC7LL JHCLL JHCLL JHCLL JHCLL JHCLL JHCLL JHCLL JHCLL JHCLL JHCLL JLHCLL JLHCLL JLHCLL JLHCLL JLHCLL JLHCLL LHCLL LHCLL LHCLL LHCLL LHCLL LHCLL LHCLL LHCLL LHCALJL LHCALJL LHCALJL LHCALJL LHCALJL LHGCALJL LHGCALJL LHGCALJL LHGCALJL LHGCALJL LHGCALJL LHGCAJL LHGCAJL LHGCAJL LHGCAJL LHGCAJL LHGCAJLJ LHGCAJLJ LHGCAJLJ LHGCAJLJ LHGCAJLJ LHGAJLJ LHGAJLJ LHGAJLJ LHGAJLJ LHGAJLJ LHGAJLJ LHGAJLJ LHGAJLJ LGAJJ LGAJJ LGAJJ LGAJJ LGAJJ LGAJJ LGAJJ LGAJJ LGAJJ LGAJJ LGAJJ LGAJJ LGAJJ LGAJJ LGAJJ LGAJJ LGAJJ LGAJJ LGAJJ LJGAJJ LJGAJJ LJGAJJ LJGAJJ LJGAJJ LJGAJJ LJGAJJ LJGAJJ LJGAJJ LJGAJJ LJGAJJ LJGAJJ LJGAJJ JGAJJ JGAJJ JGAJJ JGAJJ JGAJJ JGAJJ JGAJJ JGAJJ JGAJJ JGAJJ JGAJJ JGAJJ JGAJJ JGAJJ JGAJJ JGAJJ JGAJJ JGAJ JGAJ JGAJ JGAJ JGAJ JGAJ JGAJ JGAJ JGAJ JGJ JGJ JGJ JGJ JGJ9 JGJ9 JGJ9 JG9 JG9 JG9 JG9 JG9 JG9 JG99 JG99 JG99 JG99 JG99 JG99 JG99 JG99 JG99 JG99 JG99 JG99 JG99 J99 J99 J99 J99 J99 J99 J99 J99 J99 J99 J99 J99 J99 J99 J99 J99 J99 99 99 99 99 99 99 99 99 99 99 99 99 99 99 99 99 99 99 99 99 99 99 99 99 99 99 99 99 99 99 99 99 99 99 99 99 9 9 9 9 9 9 9 9 9 9 9                                H H H H H H@ H@ H@ H@ H@HH H@HH H@HH H@HH H@HH H@HH H@HH H@HH H@HH H@HH HH@HH HH@HH HH@HH HH@HH HH@HH HH@HH HH@HH HH@HH HH@HH HH@HH HH@HH HH@HH HH@HH HH@HH HH@HH HH@HH HH@HH HH@HH HH@HH HH@HH HH@HH HH@HH HH@HH HH@HH HH@HH HH@HH HH@HH HH@HH HH@HH HH@HH HH@HH HH@HH HH@HH HH@HH HH@HH HH@HH HH@HH HH@HH HH@HH HH@HH HH@HH HH@HH HH@HH HH@HH H@HH H@HH HHH HHH HHH HHH HHH HHH HHH HHH HHH HHH HHH HH HH H H H H H H H H H H H H                                        O O HO HO HO4 HO4 H@4O4 H@4O4 H@4O4 H@4O4 H@4O4 H@4O4 H@4O4 H@4OO4 H@4OO4 H@4OO4 H@4OO4 H@4OO4 OH@4OO4 OH@4OO4 OH@4OO4 OH@4OO4 OH@4OO4 OH@4OO4 OH@4OO4 OH@4OO4 OH@4OO4 OH@4OO4 OH@4OO4 OH@4OO4 OH@4OO4 OH@4OO4 OH@4OO4 OH@4OO4 OH@4OO4 OH@4OO4 OH@4OO4 OH@4OO4 OH@4OO4 OH@4OO4 OH@4OO4 OH@4OO4 OH@4OO4 OH@4OO4 OH@4OO4 OH@4OO4 OH@4OO4 OH@4OO4 OH@4OO4 OH@4OO4 OH@4OO4 OH@4OO4 OH@4OO4 OH@4OO4 OH@4OO4 OH@4OO4 OH@4OO4 OH@4OO4 OH@4OO4 OH@4OO4 OH@4OO4 OH@4OO4 OH@4OO4 OH@4OO4 OH@4OO4 OH@4OO4 OH@4OO4 OH@4OO4 OH@4OO4 OH@4OO4 OH@4OO4 OH@4OO4 OH@4OO4 OH@4OO4 OH@4OO4 OH@4OO4 OH@4OO4 OH@4OO4 OH@4OO4 OH@4OO4 OH@4OO4 OH@4OO4 OH@4OO4 OH@4OO4 OH@4OO4 OH@4OO4 OH@4OO4 OH@4OO4 OH@4OO4 OH@4OO4 OH@4OO4 OH@4OO4 OH@4OO4 OH@4OO4 OH@4OO4 OH@4OO4 OH@4OO4 OH@4OO4 OH@4OO4 OH@4OO4 OH@4OO4 OH@4OO4 OH@4OO4 OH@4OO4 OH@4OO4 OH@4OO4 OH@4OO4 OH@4OO4 OH@4OO4 OH@4OO4 OH@4OO4 OH@4OO45 OH@4OO45 OH@4OO45 OH@4OO45 OH@4OO45 OH@4OO45 OHG@4OO45 OHG@4OO45 OHG@45OO45 OHG@45OO45 OHG@45OO45 OG@5OO45 OG@5OO45 OG@5OO45 OG@5OO45 OG@5OO45 OG@5OO45 OG@5OO45 OG@5OO45 OG@>5OO45 OG@>5OO5 OG@>5OO5 OG@>5OO5 OG@>5OO5 OG@>5OO5 OG@>5OO5 OG@>5OO5 OG@>5OO5 OG@>5OO5 OG@>5OO5 OG@>5OO5 OG@>5OO5 OG@>5OO5 OG@>5OO5 OG@>5OO5 OG@>5OO5 OG@>5OO5 OG@>5OO5 OG@>5OO5 OG@>5OO5 OG>5OO5 OG>5OO5 OG>5OO5 OG>5OO5 OG>5OO5 OG>5OO5 OG>5OO5 OG>5OO5 OG>5OO5 OG>5OO5 OG>5OO5 OG>5OO5 OG>5OO5 OG>5OO5 OG>5OO5 OG>5OO5 OG>5OO5 OG>5OO5 OG>5OO5 OG>5OO5 OG>5OO5 OG>5OO5 OG>5OO5 OG>5OO5 OG>5OO5 OG>5OO5 OG>5OO5 OG>5OO5 OG>5OO5 OG>5OO5 OG>5OO5 OG>5OO5 OG>5OO5 OG>5OO5 OG>5OO5 OG>5OO5 OG>5OO5 OG>5OO5 OG>5OO5 OG>5OO5 OG>5OO5 OG>5OO5 OG>5OO5 OG>5OO5 OG>5OO5 OG>5OO5 OG>5OO5 OG>5OO5 OG>5OO5 OG>5OO5 OG>5OO5 OG>5OO5 OG>5OO5 OG>5OO5 OG>5OO5 OG>5OO5 OG>5OO5 OG>5OO5 OG>5OO5 OG>OO OG>OO OG>OO OG>OO OG>OO OG>OO OG>OO OG>OO OG>OO OG>OO OG>OO OG>OO OG>OO OG>OO OG>OO OG>OO OG>OO OG>OO OG>OO OG>OO OG>OO OG>OO OG>4OO4 OG>4OO4 OGH>4OO4 OGH>4OO4 OGH>4OO4 OGH>4OO4 OGH>4OO4 OGH>4OO4 OGH>4OO4 OH>4OO4 OH>4OO4 OH>4OO4 OH>@4OO4 OH>@4OO4 OH>@4OO4 OH>@4OO4 OH>@4OO4 OH>@4OO4 OH>@4OO4 OH>@4OO4 OH>@4OO4 OH>@4OO4 OH>@4OO4 OH>@4OO4 OH>@4OO4 OH>@4OO4 OH>@4OO4 OH>@4OO4 OH>@4OO4 OH@4OO4 OH@4OO4 OH@4OO4 OH@4OO4 OH@4OO4 OH@4OO4 OH@4OO4 OH@4OO4 OH@4OO4 OH@4OO4 OH@4OO4 OH@4OO4 OH@4OO4 OH@4OO4 OH@4OO4 OH@4OO4 OH@4OO4 OH@4OO4 OH@4OO4 OH@4OO4 OH@4OO4 OH@4OO4 OH@4OO4 OH@4OO4 OH@4OO4 OH@4OO4 OH@4OO4 OH@4OO4 OH@4OO4 OH@4OO4 OH@4OO4 OH@4OO4 OH@4OO4 OH@4OO4 OH@4OO4 OH@4OO4 OH@4OO4 OH@4OO4 OH@4OO4 OH@4OO4 OH@4OO4 OH@4OO4 OH@4OO4 OH@4OO4 OH@4OO4 OH@4OO4 OH@4OO4 OH@4OO4 OH@4OO4 OH@4OO4 OH@4OO4 OH@4OO4 OH@4OO4 OH@4OO4 OH@4OO4 OH@4OO4 OH@4OO4 OH@4OO4 OH@4OO4 OH@4OO4 OH@4OO4 OH@4OO4 OH@4OO4 OH@4OO4 OH@4OO4 OH@4OO4 OH@4OO4 OH@4OO4 OH@4OO4 OH@4OO OH@4OO OH@4OO OH@4OO OH@OO OH@OO OH@OO OH@OO OH@OO OH@OO OH@OO OH@AOO2 OH@AOO2 OHJ@AOO2 OHJ@AOO2 OHJ@AOO2 OHJ@AOO2 OHJ@A2OO2 OHJ@A2OO2 OHJ@A2OO2 OHJ@A2OO2 OHJ@A2OO2 OHJ@A2OO2 OHJ@A2OO2 OJ@A2OO2 OJ@A2OO2 OJ@A2OO2 OJ@A2OO2 OJ@A2OO2 OJ@A2OO2 OJ@A2OO2 OJ@A2OO2 OJ@A2OO2 OJ@A2OO2 OJ@A2OO2 OJ@A2OO2 OJ@A2OO2 OJ@A2OO2 OJ@A2OO2 OJ@A2OO2 OJ@A2OO2 OJ@A2OO2 OJA2OO2 OJA2OO2 OJA2OO2 OJA2OO2 OJA2OO2 OJA2OO2 OJA2OO2 OJA2OO2 OJA2OO2 OJA2OO2 OJA2OO2 OJA2OO2 OJA2OO2 OJA2OO2 OJA2OO2 OJA2OO2 OJA2OO2 OJA2OO2 OJA2OO2 OJA2OO2 OJA2OO2 OJA2OO2 OJA2OO2 OJA2OO2 OJA2OO2 OJA2OO2 OJA2OO2 OJA2OO2 OJA2OO2 OJA2OO2 OJA2OO2 OJA2OO2 OJA2OO2 OJA2OO2 OJA2OO2 OJA2OO2 OJA2OO2 OJA2OO2 OJA2OO2 OJA2OO2 OJA2OO2 OJA2OO2 OJA2OO2 OJA2OO2 OJA2OO2 OJA2OO2 OJA2OO2 OJA2OO2 OJA2OO2 OJA2OO2 OJA2OO2 OJA2OO2 OJA2OO2 OJA2OO2 OJA2OO2 OJA2OO2 OJA2OO2 OJA2OO2 OJA2OO2 OJA2OO2 OJA2OO2 OJA2OO2 OJAOO2 OJAOO2 OJAOO OJAOO OJAOO OJAOO OJAOO OAOO OAOO OAOO OAOO OAOO OAOO OAOO OAOO OAOO OAOO OAOO OAOO OAOO OAOO OAOO OAOO OAOO OAOO OAOO OAOO OAOO OAOO OAOO OAOO OAOO OLAOO OLAOO OLAOO OLAOO OLAOO OLAOO OLAOO0 OLAOO0 OLAC0OO0 OLAC0OO0 OLAC0OO0 OLAC0OO0 OLAC0OO0 OLAC0OO0 OLC0OO0 OLC0OO0 OLC0OO0 OLC0OO0 OLC0OO0 OLC0OO0 OLC0OO0 OLC0OO0 OLC0OO0 OLC0OO0 OLC0OO0 OLC0OO0 OLC0OO0 OLC0OO0 OLC0OO0 OLC0OO0 OLC0OO0 OLC0OO0 OLC0OO0 OLC0OO0 OLC0OO0 OLC0OO0 OLC0OO0 OLC0OO0 OLC0OO0 OLC0OO0 OLC0OO0 OLC0OO0 OLC0OO0 OLC0OO0 OLC0OO0 OLC0OO0 OLC0OO0 OLC0OO0 OLC0OO0 OLC0OO0 OLC0OO0 OLC0OO0 OLC0OO0 OLC0OO0 OLC0OO0 OLC0OO0 OLC0OO0 OLC0OO0 OLC0OO0 OLC0OO0 OLC0OO0 OLC0OO0 OLC0OO0 OLC0OO0 OLC0OO0 OLC0OO0 OLC0OO0 OLC0OO0 OLC0OO0 OLC0OO0 OLC0OO0 OLC0OO0 OLC0OO0 OLC0OO0 OLC0OO0 OLC0OO0 OLC0OO0 OLC0OO0 OLC0OO0 OLC0OO0 OLC0OO0 OLC0OO0 OLC0OO0 OLC0OO0 OLC0OO0 OLC0OO0 OLC0OO0 OLC0OO0 OLC0OO0 OLC0OO0 OLC0OO0 OLC0OO0 OLC0OO0 OLC0OO0 OLC0OO0 OLC0OO0 OLC0OO0 OLC0OO0 OLC0OO0 OLC0OO0 OLC0OO0 OLC0OO0 OLC0OO0 OLC0OO0 OLC0OO0 OLC0OO0 OLC0OO0 OLC0OO0 OLC0OO0 OLC0OO0 OLC0OO0 OLC0OO0 OLC0OO0 OLC0OO0 OLC0OO0 OLC0OO0 OLC0OO0 OLC0OO0 OLC0OO0 OLC0OO0 OLC0OO0 OLC0OO0 OLC0OO0 OLC0OO0 OLC0OO0 OLC0OO0 OLC0OO0 OLC0OO0 OLC0OO0 OLC0OO0 OLC0OO OLC0OO OLC0O OLC0O OLC0O OLC0O OLC0O OLC0O OLC0O OLC0O OLC0O OLC0O OLC0O OLCO OLCO OLCO OLCO OLCO OLCO OLCO OLCO OLCO OLCO OLCO OLCO OLCO OLCO OLCO OLO OLO OLO OLO OLO OLO OLO OLO OLO OLO OLO OLO OLO OLO OLO OLO OLO OLO OLO OLO OLO OLO OLO OLO OLO OLO OLO OLO OLO OLO OLO OLO LO LO LO LO LO LO LO LO LO LO LO LO LO LO LO LO LO LO LO LO LO L L L L L L L L L L L                              J: J: JC: JC: JC: JC: JC: JC: JC: JC: MJC: MJC: MJC: MJC: MJC: MJC: MJCM: MJCM: MJCM: MJCM: MJCM: MJCM: MJC:M: MJC:M: MJC:MM: MJC:MM: MJC:MM: MJC:MM: MJC:MM: MJC:MM: MJC:MM: MJC:MM: MJC:MM: MJC:MM: MJC:MM: MJC:MM: MJC:MM: MJC:MM: MJC:MM: MJC:MM: MJC:MM: MJC:MM: MJC:MM: MJC:MM: MJC:MM: MJC:MM: MJC:MM: MJC:MM: MJC:MM: MJC:MM: MJC:MM: MJC:MM: MJC:MM: MJC:MM: MJC:MM: MJC:MM: MJC:MM: MJC:MM: MJC:MM: MJC:MM: MJC:MM: MJC:MM: MJC:MM: MJC:MM: MJC:MM: MJC:MM: MJC:MM: MJC:MM: MJC:MM: MJC:MM: MJC:MM: MC:MM: MC:MM: MC:MM: MC:MM: MC:MM: MC:MM: MC:MM: MC:MM: MC:MM: MC:MM: MC:MM: MC:MM: MC:MM: MC:MM: MC:MM: MC:MM: MC:MM: MC:MM: MC:MM: MC:MM: MC:MM: MC:MM: MC:MM: MC:MM: MC:MM: MC:MM: MC:MM: MC:MM: MC:MM: MC:MM: MC:MM: MHC:M: HC:M: HC:M: HC:M: HC:M: LH:M: LH:M: LH:M: LH:M: LH:ML LH:ML LH:ML LH:ML LH:ML LH:ML LH:ML LH:ML LH:ML LH:ML LH:ML LH:ML LH:ML LHML LHML LHMLL LHMLL LHMLL LHMLL LHMLL LHLL LHLL LHLL LHLL LHLL LHLL LHLL LHLL LHLL LHLL LHLL LHLL LHLL LHLL LHLL LHLL LHLL LHLL LHLL LHLL LHLL LHLL LHLL LHLL LHLL LHLL LHLL LHLL LHLL LHLL LHLL LHLL LHLL LHLL LHLL LHLL LHLL LHLL LHLL LHLL LHLL LHLL LHLL LHLL LHLL LHLL LLL LLL LLL LLL LLL LLL LLL LLL LLL LLL LLL LLL LLL LLL LLL LLL LLL LLL LLL LLL LLL LLL LLL LLL LLL LLL LLL LLL LLL LLL LLL LLL LLL LLL LLL LLL LL LL LL LL LL LL L L L         E E E9 E9 E9 E9 E9 E9 E9 E9 E9 E9 E9 E9 E9 E9 E9 E9 E9 JE9 JE9 JE9 JE9 JE9 JE9 JEM9 MJEM9 MJEM9 MJEM9 MJEMM9 MJEMM9 MJEMM9 MJEMM9 MJEMM9 MJE9MM9 MJE9MM9 MJE9MM9 MJE9MM9 MJE9MM9 MJE9MM9 MJE9MM9 MJE9MM9 MJE9MM9 MJE9MM9 MJE9MM9 MJE9MM9 MJE9MM9 MJE9MM9 MJE9MM9 MJE9MM9 MJE9MM9 MJE9MM9 MJE9MM9 MJE9MM9 MJE9MM9 MJE9MM9 MJE9MM9 MJE9MM9 MJE9MM9 MJE9MM9 MJE9MM9 MJE9MM9 MJE9MM9 MJE9MM9 MJE9MM9 MJE9MM9 MJE9MM9 MJE9MM9 MJE9MM9 MJE9MM9 MJE9MM9 MJE9MM9 MJE9MM9 MJE9MM9 MJE9MM9 MJE9MM9 MJE9MM9 MJE9MM9 MJE9MM9 MJE9MM9 MJE9MM9 MJE9MM9 MJE9MM9 MJE9MM9 MJE9MM9 MJE9MM9 MJE9MM9 MJE9MM9 MJE9MM9 MJE9MM9 MJE9MM9 MJE9MM9 MJE9MM9 MJE9MM9 MJE9MM9 MJE9MM9 MJE9MM9 MJE9MM9 MJE9MM9 MJE9MM9 MJE9MM MJE9MM MJE9MM MJE9MM MJE9MM MJE9MM MJE9MM MJE9MM MJE9MM MJE9MM MJE9MM MJ9MM MJ9MM MJ9MM MJ9MM MJ9MM MJ9MM MJ9MM MJ9MM MJ9MM MJ9MM MJ9MM MJ9MM MJ9MM MJ9MM MJ9MM MJ9MM MJMM MJMM MJMM MJMM MJMM MJMM MJMM MJMM MJMM MJMM MJMM MJMM MJMM MJMM MJMM MJMM MJMM MJMM MJMM MJMM MJMM MJMM MJMM MJMM MJMM MJMM MJMM MJMM MJMM MJMM MJMM MJMM MJMM MJMM MJMM MJMM MJMM MJMM MJMM MJMM MJMM MJMM MJMM MJMM MJMM MJMM MJMM MJMM MJMM MJMM MJMM MJMM MJMM MJMM MJMM MJMM MJMM MJMM MJMM MJMM MJMM MJMM MJMM MJMM MJMM MJMM MJMM MJMM MJMM MJMM MJMM MJMM MJMM MJMM MJMM MJMM MJMM MJMM MJMM MJMM MJMM MJMM MJMM MJMM MJMM MJMM MJMM MJMM MJMM MJMM MJMM MJMM MJMM MJMM MJMM MJMM MJMM MJMM MJMM MJMM MJMM MJMM MJMM MJMM MJMM MJMM MJMM MJMM MJMM MJMM MJMM MJMM MJMM MJFMM MJFMM MJFMM MJFMM MJFMM MJFMM MJFMM7 MJFMM7 MJFMM7 MJFMM7 MJFMM7 MJFMM7 MJFMM7 MJFMM7 MJFMM7 MJFMM7 MJFMM7 MFMM7 MFMM7 MFMM7 MFMM7 MFMM7 MFMM7 MFMM7 MFMM7 MFMM7 MFM7 MFM7 MF7 MF7 MF7 MF77 MF77 MF77 MF77 MF77 MF77 MF77 MF77 MF77 MF77 MF77 MF77 MF77 MF77 MF77 MF77 MF77 MF77 MF77 MF77 MF77 MF77 F77 F77 F77 F77 F77 F77 F77 F77 F77 F77 F77 F77 F77 F77 F77 F77 F77 F77 F77 F77 F77 F77 F77 F77 F77 F77 F77 F77 F77 F77 F77 F77 F77 F77 F77 F77 F77 F77 F77 F77 F7 F7 F7 F7 F7 F7 F7 F7 F7 F7 7 7 7 7 7 7 7                L L L L L L L L L L L L LO LO LOO LOO LOO LOO LOO LOO LOO OLOO OLOO OLOO OLOO OLOO OLOO OLOO OLOO OLOO OLOO OLOO OLOO OLOO OLOO OLOO OLOO OLOO OLOO OLOO OLOO OLOO OLOO OLOO OLOO OLOO OLOO OLOO OLOO OLOO OLOO OLOO OLOO OLOO OLOO OLOO OLOO OLOO OLOO OLOO OLOO OLOO OLOO OLOO OLOO OLO OLO OLO OLO OLO OLO OLO OO OO OO OO OO OO OO OO OO OO OO O O O O O O O O O O O O O O                    5 5 5 5 5 5 5 5 H5 H5 H5 MH5 MH5 MH5 MH5 MH5 MH5 MH5 MH5 MH5 MH55 MH55 MH55 MH55 MH55 MH55 MH55 MH55 MH55 MH55 MH55 MH55 MH55 MH5Q5 MH5Q5 MH5QQ5 MH5QQ5 MH5QQ5 MH5QQ5 MH5QQ5 QMH5QQ5 QMH5QQ5 QMH5QQ5 QMH5QQ5 QMH5QQ5 QMH5QQ5 QMH5QQ5 QMH5QQ5 QMH5QQ5 QMH5QQ5 QMH5QQ5 QMH5QQ5 QMH5QQ5 QMH5QQ5 QMH5QQ5 QMH5QQ5 QMH5QQ5 QMH5QQ5 QMH5QQ5 QMH5QQ5 QMH5QQ5 QMH5QQ5 QMH5QQ5 QMH5QQ5 QMH5QQ5 QMH5QQ5 QMH5QQ5 QMH5QQ5 QMH5QQ5 QMH5QQ5 QMH5QQ5 QMH5QQ5 QMH5QQ5 QMH5QQ5 QMH5QQ5 QMH5QQ5 QMH5QQ5 QMH5QQ5 QMH5QQ5 QMH5QQ5 QMH5QQ5 QMH5QQ5 QMH5QQ5 QMH5QQ5 QMH5QQ5 QMH5QQ5 QMH5QQ5 QMH5QQ5 QMH5QQ5 QMH5QQ5 QMH5QQ5 QMH5QQ5 QMH5QQ5 QMH5QQ5 QMH5QQ5 QMH5QQ5 QMH5QQ5 QMH5QQ5 QMH5QQ5 QMH5QQ5 QMH5QQ5 QMH5QQ5 QMH5QQ5 QMH5QQ5 QMH5QQ5 QMH5QQ5 QMH5QQ5 QMH5QQ5 QMH5QQ QMH5QQ QMH5QQ QMH5QQ QMH5QQ QMH5QQ QMH5QQ QMH5QQ QMH5QQ QMH5QQ QMH5QQ QMH5QQ QMH5QQ QMH5QQ QMH5QQ QMH5QQ QMH5QQ QMH5QQ QMH5QQ QMH5QQ QM5QQ QM5QQ QM5QQ QM5QQ QMQQ QMQQ QMQQ QMQQ QMQQ QMQQ QMQQ QMQQ QMQQ QMQQ QMQQ QMQQ QMQQ QMQQ QMQQ QMQQ QMQQ QMQQ QMQQ QMQQ QMQQ QQQ QQQ QQQ QQQ QQQ QQQ QQQ QQQ QQQ QQQ QQQ QQQ QQQ QQQ QQQ QQQ QQQ QQQ QQQ QQQ QQQ QQQ QQQ QQQ QQQ QQQ QQQ QQQ QQQ QQQ QQQ QQQ QQQ QQQ QQQ QQQ QQQ QQQ QQQ QQQ QQQ QQQ QQQ QQQ QQQ QQQ QQQ QQQ QQQ QQQ QQQ QQQ QQQ QQQ QQQ QQQ QQQ QQQ QQQ QQQ QQQ QQQ QQQ QQQ QQQ QQQ QQQ QQQ QQQ QQQ QQQ QQQ QQQ QQQ QQQ QQQ QQQ QQQ QQQ QQQ QQQ QQQ QQQ QQQ QQQ QQQ QQQ QQQ QQQ QQQ QQQ QQQ QQQ4 QEQQ4 QEQQ4 QEQQ4 QEQQ4 QEQQ4 QEQQ4 QEQQ4 QEQQ4 QEQQ4 QEQQ4 QEQQ4 QEQQ4 QEQQ4 QEQQ4 QEQQ4 QEQQ4 QEQQ4 QE<QQ4 QE<QQ4 QE<QQ4 QE<QQ4 QE<QQ4 QE<4QQ4 QE<4QQ4 QE<4QQ4 QE<4QQ4 QE<4QQ4 QE<4QQ4 QE<4QQ4 QE<4QQ4 QE<4QQ4 QE<4QQ4 QE<4QQ4 QE<4QQ4 QE<4QQ4 QE<4QQ4 QE<4QQ4 QE<4QQ4 QE<4QQ4 QE<4QQ4 QE<4QQ4 QE<4QQ4 QE<4QQ4 QE<4QQ4 QE<4QQ4 QE<4QQ4 QE<4QQ4 QE<4QQ4 QE<4QQ4 QE<4QQ4 QE<4QQ4 QE<4QQ4 QE<4QQ4 QE<4Q4 QE<4Q4 QE<4Q4 QE<4Q4 QE<44 QE<44 QE<44 QE<44 QE<44 QE<44 QE<44 QE<44 QE<44 QE<44 QE<44 QE<44 QE<44 QE<44 QE<44 QE<44 QE<44 QE<44 QE<44 E<44 E<44 E<44 E<44 E<44 E<44 E<44 E<44 E<44 E<44 E<44 E<44 E<44 E<44 E<44 E<44 E<44 E<44 E<44 E<44 E<44 E<44 E<44 E<44 E<44 E<44 E<44 E<44 E<44 E<44 E<44 E<44 E<44 E<44 E<44 E<44 E<44 E<44 E<44 E<44 E<44 E<44 E<44 4OO4 4OO4 4OO4 4OO4 4OO4 4OO4 4OO4 4OO4 4OO4 OO4 OO4 OO4 OO4 OO4 OOO4 OOO4 OOO4 OOO4 OOO4 OOO4 OOO4 OOO4 OOO4 OOO4 OOO OOO OOO OOO OOO OOO OOO OOO OOO OOO OOO OOO OOO OOO OOO OOO OOO OOO OOO OOO OOO OOO OOO OOO OOO OOO OOO OOO OOO OOO OOO OOO OOO OOO OOO OOO OOO OOO OO OO OO OO O O O O O O O O O O O O O O O O O O O                             2 2 2 2 2 2 22 22 22 G22 G22 G>22 G>22 G>22 G>22 G>22 G>22 G>22 G>22 G>22 G>22 G>22 G>2M2 G>2MM2 G>2MM2 MG>2MM2 MG>2MM2 MG>2MM2 MG>2MM2 MG>2MM2 MG>2MM2 MG>2MM2 MG>2MM2 MG>2MM2 MG>2MM2 MG>2MM2 MG>2MM2 MG>2MM2 MG>2MM2 MG>2MM2 MG>2MM2 MG>2MM2 MG>2MM2 MG>2MM2 MG>2MM2 MG>2MM2 MG>2MM2 MG>2MM2 MG>2MM2 MG>2MM2 MG>2MM2 MG>2MM2 MG>2MM2 MG>2MM2 MG>2MM2 MG>2MM2 MG>2MM2 MG>2MM2 MG>2MM2 MG>2MM2 MG>2MM2 MG>2MM2 MG>2MM2 MG>2MM2 MG>2MM2 MG>2MM2 MG>2MM2 MG>2MM2 MG>2MM2 MG>2MM2 MG>2MM2 MG>2MM2 MG>2MM2 MG>2MM2 MG>2MM2 MG>2MM2 MG>2MM2 MG>2MM2 MG>2MM2 MG>2MM2 MG>2MM2 MG>2MM2 MG>2MM2 MG>2MM2 MG>2MM2 MG>2MM2 MG>2MM2 MG>2MM2 MG>2MM2 MG>2MM2 MG>2MM2 MG>2MM2 MG>2MM2 MG>2MM2 MG>2MM2 MG>2MM2 MG>2MM2 MG>2MM2 MG>2MM2 MG>2MM2 MG>2MM2 MG>2MM2 MG>2MM MG>2MM MG>2MM MG>2MM MG>2MM MG>MM MGMM MGMM MGMM MGMM MGMM MGMM MGMM MMM MMM MMM MMM MMM MMM MMM MMM MMM MMM MMM MMM MMM MMM MMM MMM MMM MMM MMM MMM MMM MMM MMM MMM MMM MMM MMM MMM MMM MMM MMM MMM MMM MMM MMM MMM MMM MMM MMM MMM MMM MMM MMM MMM MMM MMM MMM MMM MMM MMM MMM MMM MMM MMM MMM MMM MMM MMM MMM MMM MMM MMM MMM MMM MMM MMM MMM MMM MMM MMM MMM MMM MMM MMM MMM MMM MMM MMM MMM MMM MMM MMM MMM MMM MMM MMM MMM MMM MMM MMM MMM MMM MMM MMM MMM MMM MMM MMM MMM MMM MMM MMM MMM MMM MMM MMM MMM MMM MMM MMM MMM MMM MMM MM MM MM MM MM MM MM MM MM M M 7 7 7 7 7 7 7 7 7 7/ 7/ 7/ 7/ J7// J7// J7// J7// J7// J7// J7// J7// J7// J7// J7// J7// J7// J7// J7// J7// J7// J7// J7/LL/ LJ7/LL/ LJ7/LL/ LJ7/LL/ LJ7/LL/ LJ7/LL/ LJ7/LL/ LJ7/LL/ LJ7/LL/ LJ7/LL/ LJ7/LL/ LJ7/LL/ LJ7/LL/ LJ7/LL/ LJ7/LL/ LJ7/LL/ LJ7/LL/ LJ7/LL/ LJ7/LL/ LJ7/LL/ LJ7/LL/ LJ7/LL/ LJ7/LL/ LJ7/LL/ LJ7/LL/ LJ7/LL/ LJ7/LL/ LJ7/LL/ LJ7/LL/ LJ7/LL/ LJ7/LL/ LJ7/LL/ LJ7/LL/ LJ7/LL/ LJ7/LL/ LJ7/LL/ LJ7/LL/ LJ7/LL/ LJ7/LL/ LJ7/LL/ LJ7/LL/ LJ7/LL/ LJ7/LL/ LJ7/LL/ LJ7/LL/ LJ7/LL/ LJ7/LL/ LJ7/LL/ LJ7/LL/ LJ7/LL/ LJ7/LL/ LJ7/LL/ LJ7/LL/ LJ7/LL/ LJ7/LL/ LJ7/LL/ LJ7/LL/ LJ7/LL/ LJ7/LL/ LJ7/LL/ LJ7/LL/ LJ7/LL/ LJ7/LL/ LJ7/LL/ LJ7/LL/ LJ7/LL/ LJ7/LL/ LJ7/LL/ LJ7/LL/ LJ7/LL/ LJ7/LL/ LJ7/LL/ LJ7/LL/ LJ7/LL/ LJ7/LL/ LJ7/LL/ LJ7/LL/ LJ7/LL/ LJ7/LL/ LJ/L/ LJ/L/ LJ/L/ LJ/L/ LJ/L/ LJ/L/ J/L/ L/ L/ L/ L/ L/ L L L L L L L L     J J J J J J JJ JJ JJJ JJJ JJJ JJJ JJJ JJJ JJJ JJJ JJJ JJJ JJJ JJJ JJJ JJJ JJJ JJJ JJJ JJJ JJJ JJJ JJJ JJJ JJJ JJJ JJJ JJJ JJJ JJJ JJJ JJJ JJJ JJJ JJJ JJJ JJJ JJJ JJJ JJJ JJJ JJJ JJJ JJJ JJJ JJJ JJJ JJJ JJJ JJJ JJJ JJJ JJJ JJJ JJJ JJJ JJJ JJJ JJJ JJJ JJJ JJJ JJJ JJJ JJJ JJJ JJJ JJJ JJJ JJ JJ JJ J J J J J J J J J J J J J J                  C C C C C C C C0 C0 C0 C0 C0 C0 C0 C00 C00 C00 C00 C<00 C<00 C<00 C<00 C<00 C<00 C<00 C<00 C<00 C<0L0 LC<0L0 LC<0L0 LC<0L0 LC<0LL0 LC<0LL0 LC<0LL0 LC<0LL0 LC<0LL0 LC<0LL0 LC<0LL0 LC<0LL0 LC<0LL0 LC<0LL0 LC<0LL0 LC<0LL0 LC<0LL0 LC<0LL0 LC<0LL0 LC<0LL0 LC<0LL0 LC<0LL0 LC<0LL0 LC<0LL0 LC<0LL0 LC<0LL0 LC<0LL0 LC<0LL0 LC<0LL0 LC<0LL0 LC<0LL0 LC<0LL0 LC<0LL0 LC<0LL0 LC<0LL0 LC<0LL0 LC<0LL0 LC<0LL0 LC<0LL0 LC<0LL0 LC<0LL0 LC<0LL0 LC<0LL0 LC<0LL0 LC<0LL0 LC<0LL0 LC<0LL0 LC<0LL0 LC<0LL0 LC<0LL0 LC<0LL0 LC<0LL0 LC<0LL0 LC<0LL0 LC<0LL0 LC<0LL0 LC<0LL0 LC<0LL0 LC<0LL0 LC<0LL0 LC<0LL0 LC<0LL0 LC<0LL0 LC<0LL0 LC<0LL0 LC<0LL0 LC<0LL LC<0LL LC<0LL LC<0LL LC<0LL LC<0LL LC<0LL LC<LL LC<LL LC<LL LC<LL L<LL L<LL L<LL L<LL L<LL L<LL L<LL L<LL L<LL LLL LLL LLL LLL LLL LLL LLL LLL LLL LLL LLL LLL LLL LLL LLL LLL LLL LLL LLL LLL LLL LLL LLL LLL LLL LLL LLL LLL LLL LLL LLL LLL LLL LLL LLL LLL LLL LLL LLL LLL LLL LLL LLL LLL LLL LLL LLL LLL LLL LLL LLL LLL LLL LLL LLL LLL LLL LLL LLL LLL LLL LLL LLL LLL LLL LLL LLL LLL LLL LLL LLL LLL LLL LLL LLL LLL LLL LLL LLL LLL LLL LLL LLL LLL LLL LLL LLL LLL LLL LLL LLL LLL LLL LLL LLL LLL LLL LLL LLL LLL LLL LLL LLL LLL LLL LLL LLL LLL LLL LLL LLL LLL LLL LLL LLL LLL LLL LLL LLL LLL LLL LLL LLL LLL LLL LLL LLL LLL LLL LLL LLL LLL LLL LLL LLL LLL) LLL) LLL) L)LL) L)LL) L)LL) L)LL) L)LL) L)LL) LE)LL) LE)LL) LE)LL) LE)LL) LE)LL) LE<)LL) LE<)LL) LE<)LL) LE<)LL) LE<)LL) LE<)LL) LE<)LL) LE<)LL) LE<)LL) LE<)LL) LE<)LL) LE<)L) LE<)L) LE<)L) LE<)L) LE<)L) LE<)L) LE<)L) LE<)) LE<)) LE<)) LE<)) E<)) E<)) E<)) E<)) E<)) E<)) E<)) E<)) E<)) E<)) E<)) E<)) E<)) E<)) E<)) E<)) E<)) E<)) E<)) E<)) E<)) E<)) E<)) E<)) E<)) E<)) E<)) E<)) E<)) E<)) E<)) E<)) E<)) E<)) E<)) E<)) E<)) E<)) E<)) E<)) E<)) E<)) E<)) E<)) E<)) E<)) E<)) E<)) E<)) E<)) E<)) <)) <)) <)) <)) <)) <)) ) ) ) ) ) ) ) ) )                           MM MM MM MM MM MM MM MM MM MM MM MM MM MM MM MM MM MM MM MM MM MMM MMM MMM MMM MMM MMM MMM MMM MMM MMM MMM MMM MMM MMM MMM MMM MMM MMM MMM MMM MMM MMM MMM MMM MMM MMM MMM MMM MMM MMM MMM MMM MMM MMM MMM MMM MMM MMM MMM MMM MM MM MM MM M M M M M M M M M M M M M M M M M M                             + + + + + + + + + >+ >+ >+ >++ >++ >C++ >C++ >C++ >C++ >C++ >C++ >C++ >C++ >C++ >C++ >C++ >C++ >C++ >C++ >C++ >C++ >C++ >C++ >C++ >C++ >C++ >C++ >C+H+ H>C+H+ H>C+HH+ H>C+HH+ H>C+HH+ H>C+HH+ H>C+HH+ H>C+HH+ H>C+HH+ H>C+HH+ H>C+HH+ H>C+HH+ H>C+HH+ H>C+HH+ H>C+HH+ H>C+HH+ H>C+HH+ H>C+HH+ H>C+HH+ H>C+HH+ H>C+HH+ H>C+HH+ H>C+HH+ H>C+HH+ H>C+HH+ H>C+HH+ H>C+HH+ H>C+HH+ H>C+HH+ H>C+HH+ H>C+HH+ H>C+HH+ H>C+HH+ H>C+HH+ H>C+HH+ H>C+HH+ H>C+HH+ H>C+HH+ H>C+HH+ H>C+HH+ H>C+HH+ H>C+HH+ H>C+HH+ H>C+HH+ H>C+HH+ H>C+HH+ H>C+HH+ H>C+HH+ H>C+HH+ H>C+HH+ H>C+HH+ H>C+HH+ H>C+HH+ H>C+HH+ H>C+HH+ H>C+HH+ H>C+HH+ H>C+HH+ H>C+HH+ H>C+HH+ H>C+HH+ H>C+HH+ H>C+HH+ H>C+HH+ H>C+HH+ H>C+HH+ H>C+HH+ H>C+HH+ H>C+HH+ H>C+HH+ H>C+HH+ H>C+HH+ H>C+HH+ H>C+HH+ H>C+HH+ H>C+HH+ H>C+HH+ H>C+HH+ H>C+HH+ H>C+HH+ H>C+HH+ H>C+HH+ H>C+HH+ H>C+HH+ H>C+HH+ H>C+HH+ H>C+HH+ H>C+HH+ H>C+HH+ H>C+HH+ H>C+HH+ H>C+HH+ H>C+HH+ H>C+HH+ H>C+HH+ H>C+HH+ H>C+HH+ H>C+HH+ H>C+HH+ H>C+HH+ H>C+HHG+ H>C+HHG+ H>C+HHG+ H>CHHG+ H>CHHG+ HG>CHHG+ HG>CHHG+ HG>CHHG+ HG>CHHG+ HG>CHHG+ HG>CHHG+ HG>CHGHG+ HG>CHGHG+ HG>CHGHG+ HG>CHGHG+ HG>CHGHG+ HG>CHGHG+ HG>CHGHG+ HG>CHGHG+ HG>CHGHG+ HG>CHGHG+ HG>CHGHG+ HG>CHGHG+ HG>CHGHG+ HG>CHGHG+ HG>CHGHG+ HG>CHGHG HG>CHGHG HG>CHGHG HG>CHGHG HG>CHGHG HG>CHGG HG>CHGG HG>CHGG HG>CHGG HG>CHGG HG>CHGG HG>CHGG HG>CHGG HG>CHGG HG>CHGG HG>CHGG G>CHGG G>CHGG G>CGG G>CGG G>CGG G>CGG G>CGG G>CGG G>CGG G>CGG G>CGG G>CGG G>CGG G>CGG G>CGG G>CGG G>CGG G>CGG G>CGG G>CGG G>CGG G>CGG G>CGG G>CGG G>CGG G>CGG G>CGG G>CGG G>CGG G>CGG G>CGG G>CGG G>CGG G>CGG G>CGG G>CGG G>CGG G>CGG G>CGG G>CGG G>CGG G>CGG G>CGG G>CGG G>CGG G>CGG G>CGG G>CGG G>CGG G>CGG G>CGG G>CGG G>CGG G>CGG G>CGG G>CGG G>CGG G>CGG G>CGG G>CGG G>CGG G>CGG G>CGG G>CGG G>CGG G>CGG G>C7GG G>C7GG G>C7GG7 G>C7GG7 G>C7GG7 G>C7GG7 G>C7GG7 G>C7GGE7 G>C7GGE7 G>C7GGE7 G>C7GGE7 G>C7GGE7 G>C7GGE7 G>C7GEGE7 G>C7GEGE7 G>C7GEGE7 GE>C7GEGE7 GE>C7GEE7 GE>C7GEE7 GE>C7GEE7 GE>C7GEE7 GE>C7GEE7 GE>C7EE7 GE>C7EE7 GE>C7EE7 GE>C7EE7 GE>C7EE7 GE>C7EE7 GE>C7EE7 GE>C7EE7 GE>C7EE7 GE>C7EE7 GE>C7EE7 GE>C7EE7 GE>C7EE7 GE>C7EE7 E>C7EE7 E>C7EE7 E>C7EE7 E>C7EE7 E>C7EE7 E>C7EE7 E>C7EE7 E>C7EE7 E>C7EE7 E>C7EE7 E>C7EE7 E>C7EE7 E>C7EE7 E>C7EE7 E>C7EE7 E>C7EE7 E>C7EE7 E>C7EE7 E>C7EE7 E>C7EE7 E>C7EE7 E>C7EE7 E>C7EE7 E>C7EE7 E>C7EE7 E>C7EE7 E>C7EE7 E>C7EE7 E>C7EE7 E>C7EE7 E>C7EE7 E>C7EE7 E>C7EE7 E>C7EE7 E>C7EE7 E>C7EE7 E>C7EE7 E>C7EE7 E>C7EE7 E>C7EE7 E>C7EE7 E>C7EE7 E>C7EE7 E>C7EE7 E>C7EE7 E>C7EE7 E>C7EE7 E>C7EE7 E>C7EE7 E>C7EE7 E>C7EE7 E>C7EE7 E>C7EE7 E>C7EE7 E>C7EE7 E>C7EE7 E>C7EE7 E>C7EE7 E>C7EE7 E>C7EE7 E>C7EE7 E>C7EE7 E>C7EE7 E>C7EE7 E>C7EE7 E>C7EE7 E>C7EE7 E>C7EE7 E>C7EE7 E>C7EE7 E>C7EE7 E>C7EE7 E>C7EE7 E>C7EE7 E>C7EE7 E>C7EE7 E>C7EE7 E>C7EE7 E>C7EE E>C7EE E>C7EE E>C7EE E>C7EE E>C7EE E>C7EE E>C7EE E>C7EE E>C7EE E>C7EE E>C7EE E>C7ECE E>C7ECE E>C7ECEC EC>C7ECEC EC>C7ECEC EC>C7ECEC EC>C7ECEC EC>C7ECEC EC>C7ECEC EC>CECEC EC>CECEC EC>CECEC EC>CECEC EC>CECEC EC>CECEC EC>CCEC EC>CCEC EC>CCEC EC>CCEC EC>CCEC EC>CCEC EC>CCEC EC>CCC EC>CCC EC>CCC EC>CCC EC>CCC EC>CCC EC>CCC EC>CCC EC>CCC EC>CCC C>CCC C>CCC C>CCC C>CCC C>CCC C>CCC C>CCC C>CCC C>CCC C>CCC C>CCC C>CCC C>CCC C>CCC C>CCC C>CCC C>CCC C>CCC C>CCC C>CCC C>CCC C>CCC C>CCC C>CCC C>CCC C>CCC C>CCC C>CCC C>CCC C>CCC C>CCC C>CCC C>CCC C>CCC C>CCC C>CCC C>CCC C>CCC C>CCC C>CCC C>CCC C>CCC C>CCC C>CCC C>CCC C>CCC C>CCC C>CCC C>CCC C>CCC C>CCC C>CCC C>CCC C>CCC C>CCC C>CCC C>CCC C>CCC C>CCC C>CCC C>CCC C>CCC C>CCC C>CCC C>CCC C>CCC C>CCC C>CCC C>CCC C>CCC C>CCC C>CCC C>CCC C>CCC C>CCC C>CCC C>CCC C>CCC C>CCC C>CC C>CC C>CC C>CC C>CC5 C>CC5 C>CC5 C>CC5 C>C5C5 C>C5C5 C>C5C5 C>C5C5 >C5C5 >C5C5 E>C5C5 E>C5C5 E>C5C5 E>C5C5 E>C5EC5 E>C5EC5 E>C5EC5 E>C5EC5 E>C5EE5 E>C5EE5 E>C5EE5 E>C5EE5 E>C5EE5 E>C5EE5 E>C5EE5 E>C5EE5 E>C5EE5 E>C5EE5 E>C5EE5 E>C5EE5 E>C5EE5 E>C5EE5 E>C5EE5 E>C5EE5 E>C5EE5 E>C5EE5 E>C5EE5 E>C5EE5 E>C5EE5 E>C5EE5 E>C5EE5 E>C5EE5 E>C5EE5 E>C5EE5 E>C5EE5 E>C5EE5 E>C5EE5 E>C5EE5 E>C5EE5 E>C5EE5 E>C5EE5 E>C5EE5 E>C5EE5 E>C5EE5 E>C5EE5 E>C5EE5 E>C5EE5 E>C5EE5 E>C5EE5 E>C5EE5 E>C5EE5 E>C5EE5 E>C5EE5 E>C5EE5 E>C5EE5 E>C5EE5 E>C5EE5 E>C5EE5 E>C5EE5 E>C5EE5 E>C5EE5 E>C5EE5 E>C5EE5 E>C5EE5 E>C5EE5 E>C5EE5 E>C5EE5 E>C5EE5 E>C5EE5 E>C5EE5 E>C5EE5 E>C5EE5 E>C5EE5 E>C5EE5 E>C5EE5 E>C5EE5 E>C5EE5 E>C5EE5 E>C5EE5 E>C5EE5 E>C5EE5 E>C5EE5 E>C5EE5 E>C5EE5 E>C5EE5 E>C5EE5 E>C5EE5 E>C5EE5 E>C5EE5 E>C5EE5 E>C5EE5 E>C5EE5 E>C5EE5 E>C5EE5 E>C5EE5 E>C5EE5 E>C5EE5 E>C5EE5 E>C5EE5 E>C5EE5 E>C5EE5 E>C5EE5 E>C5EE5 E>CEE5 E>CEE5 E>CEE5 E>CEE5 E>CEE5 E>CEE5 E>CEE5 E>CEE5 EG>CEE5 EG>CEE5 EG>CEE5 EG>CEE5 EG>CEE5 EG>CEE5 EG>CEE5 EG>CEGE5 EG>CEGEG5 EG>CEGEG5 EG>CEGEG5 EG>CEGEG5 EG>CEGEG5 EG>CEGEG5 EG>CEGEG5 EG>CEGEG5 EG>CEGEG EG>CEGEG EG>CEGEG EG>CEGEG EG>CEGEG EG>CEGEG EG>CEGEG EGCEGEG EGCEGEG EGCEGEG EGCEGEG EGCEGEG EGCEGEG EGCEGEG EGEGEG EGEGEG EGEGEG EGEGEG EGGEG GGEG GGG GGG GGG GGG GGG GGG GGG GGG GGG GGG GGG GGG GGG GGG GGG GGG GGG GGG GGG GGG GGG GGG GGG GGG GGG GGG GGG GGG GGG GGG GGG GGG GGG GGG GGG GGG GGG GGG GGG GGG GGG GGG GGG GGG GGG GGG GGG GGG GGG GGG GGG GGG GGG GGG GGG GGG GGG GGG GGG GGG GGG GGG GGG GGG GGG GGG G4GG G4GG4 G4GG4 G4GG4 G4GG4 G4GG4 G4GG4 G4GG4 G4GG4 G4GG4 G4GG4 G4GG4 G4GG4 GC4GG4 GC4GHGH4 GC4GHGH4 GC4GHGH4 GC4GHGH4 GC4GHGH4 GHC4GHGH4 GHC4GHGH4 GHC4GHGH4 GHC4GHGH4 GHC4GHGH4 GHC4GHGH4 GHC<4GHGH4 GHC<4GHGH4 GHC<4GHGH4 GHC<4GHGH4 GHC<4GHGH4 GHC<4GHGH4 GHC<4GHGH4 GHC<4HH4 GHC<4HH4 GHC<4HH4 GHC<4HH4 GHC<4HH4 GHC<4HH4 GHC<4HH4 GHC<4HH4 GHC<4HH4 GHC<4HH4 GHC<4HH4 GHC<4HH4 GHC<4HH4 GHC<4HH4 HC<4HH4 HC<4HH4 HC<4HH4 HC<4HH4 HC<4HH4 HC<4HH4 HC<4HH4 HC<4HH4 HC<4HH4 HC<4HH4 HC<4HH4 HC<4HH4 HC<4HH4 HC<4HH4 HC<4HH4 HC<4HH4 HC<4HH4 HC<4HH4 HC<4HH4 HC<4HH4 HC<4HH4 HC<4HH4 HC<4HH4 HC<4HH4 HC<4HH4 HC<4HH4 HC<4HH4 HC<4HH4 HC<4HH4 HC<4HH4 HC<4HH4 HC<4HH4 HC<4HH4 HC<4HH4 HC<4HH4 HC<4HH4 HC<4HH4 HC<4HH4 HC<4HH4 HC<4HH4 HC<4HH4 HC<4HH4 HC<4HH4 HC<4HH4 HC<4HH4 HC<4HH4 HC<4HH4 HC<4HH4 HC<4HH4 HC<4HH4 HC<4HH4 HC<4HH4 HC<4HH4 HC<4HH4 HC<4HH4 HC<4HH4 HC<4HH4 HC<4HH4 HC<4HH4 HC<4HH4 HC<4HH4 HC<4HH4 HC<4HH4 HC<4HH4 HC<4HH4 HC<4HH4 HC<4HH4 HC<4HH4 HC<4HH4 HC<4HH4 HC<4HH4 HC<4HH4 HC<4HH4 HC<4HH4 HCHH4 HCHH4 HCHH4 HCHH4 HCHH4 HCHH4 HCHH4 HCHH4 HCHH4 HCHH4 HCHH4 HCHH4 HCHH4 HCHJH4 HCHJHJ4 HCHJHJ HCHJHJ HJCHJHJ HJCHJHJ HJCHJHJ HJCHJHJ HJCHJHJ HJCHJHJ HJCHJHJ HJCHJHJ HJCHJHJ HJCHJHJ HJCHJHJ HJCHJHJ HJCHJHJ HJCHJHJ HJCHJHJ HJCHJHJ HJCHJHJ HJHJHJ HJHJHJ HJHJHJ HJHJHJ HJHJHJ HJHJHJ HJHJHJ HJHJHJ HJHJHJ HJHJHJ HJHJHJ HJHJHJ HJHJHJ HJHJHJ HJHJHJ HJHJHJ HJHJHJ HJJJ JJJ JJJ JJJ JJJ JJJ JJJ JJJ JJJ JJJ JJJ JJJ JJJ JJJ JJJ JJJ JJJ JJJ JJJ JJJ JJJ JJJ JJJ JJJ JJJ JJJ JJJ JJJ JJJ JJJ JJJ JJJ JJJ JJ J J                                    E E E E E E E E E E EL E<L E<L E<L E<L E<L E<5L5 E<5L5 E<5LL5 E<5LL5 E<5LL5 E<5LL5 E<5LL5 E<5LL5 E<5LL5 E<5LL5 E<5LL5 LE<5LL5 LE<5LL5 LE<5LL5 LE<5LL5 LE<5LL5 LE<5LL5 LE<5LL5 LE<5LL5 LE<5LL5 LE<5LL5 LE<5LL5 LE<5LL5 LE<5LL5 LE<5LL5 LE<5LL5 LE<5LL5 LE<5LL5 LE<5LL5 LE<5LL5 LE<5LL5 LE<5LL5 LE<5LL5 LE<5LL5 LE<5LL5 LE<5LL5 LE<5LL5 LE<5LL5 LE<5LL5 LE<5LL5 LE<5LL5 LE<5LL5 LE<5LL5 LE<5LL5 LE<5LL5 LE<5LL5 LE<5LL5 LE<5LL5 LE<5LL5 LE<5LL5 LE<5LL5 LE<5LL5 LE<5LL5 LE<5LL5 LE<5LL5 LE<5LL5 LE<5LL5 LE<5LL5 LE<5LL5 LE<5LL5 LE<5LL5 LE<5LL5 LE<5LL5 LE<5LL5 LE<5LL5 LE<5LL5 LE<5LL5 LE<5LL5 LE<5LL5 LE<5LL5 LE<5LL5 LE<5LL5 LE<5LL5 LE<5LL5 LE<5LL5 LE<5LL5 LE<5LL5 LE<5LL5 LE<5LL5 LE<5LL5 LE<5LL5 LE<5LL5 LE<5LL5 LE<5LL5 LE<5LL5 LE<5LL5 LE<5L5 LE<5JL5 LE<5JL5 LE<5JL5 LE<5JL5 LE<5JL5 LE<5JL5 LE<5JL5 LE<5JL5 LE<JL5 LE<JL5 LE<JL5 LE<JL5 LE<J5 LE<J5 LE<J5 LE<J5 LE<JJ5 LE<JJ5 LE<JJ5 LJE<JJ5 LJE<JJ5 LJE<JJ5 LJE<JJ5 LJE<JJ LJE<JJ LJE<JJ JEJJ JEJJ JEJJ JEJJ JJJ JJJ JJJ JJJ JJJ JJJ JJJ JJJ JJJ JJJ JJJ JJJ JJJ JJJ JJJ JJJ JJJ JJJ JLJ JLJ JLJ JLJ JLJ JLJ JLJ JLJ JLJ JLJ JLJ JLJ JLJ JLJ JLJ JLL JLL JLL JLL JLL JLL JLL LL LLL LLL LLL LLL LLL LLL LLL LLL LLL LLL LLL LLL LLL LLL LLL LLL LLL LLL LLL LLL LLL LLL LLL LLL LLL LLL LLL LLL LLL LLL LLL LLL LLL LLL LLL LJL LJL LJL LJL LJL LJL LJL LJL LJL LJ LJ LJ LJ LJ LJJ LJJ LJJ JJJ JJJ JJJ JJJ JJJ JJJ JJJ JJJ JJJ J7JJ J7JJ J7JJ J7JJ J7JJ7 J7JJ7 J7JJ7 J7JJ7 JC7JJ7 JC7JJ7 JC7JJ7 JC7J7 JC7J7 JC7J7 JC7LJ7 JC7LJ7 JC7LJ7 JC7LJ7 JC7LJ7 JC;7LJ7 JC;7LJ7 JC;7LJ7 JC;7L7 JC;7L7 JC;7LL7 JC;7LL7 JC;7LL7 JC;7LL7 JC;7LL7 JC;7LL7 JC;7LL7 C;7LL7 C;7LL7 C;7LL7 C;7LL7 LC;7LL7 LC;7LL7 LC;7LL7 LC;7LL7 LC;7LL7 LC;7LL7 LC;7LL7 LC;7LL7 LC;7LL7 LC;7LL7 LC;7LL7 LC;7LL7 LC;7LL7 LC;7LL7 LC;7LL7 LC;7LL7 LC;7LL7 LC;7LL7 LC;7LL7 LC;7LL7 LC;7LL7 LC;7LL7 LC;7LJL7 LC;7LJL7 LC;7LJL7 LC;7LJL7 LC;7LJL7 LC;7LJL7 LC;7LJL7 LC;7LJL7 LC;7LJL7 LC;7LJL7 LC;7LJL7 LC;7LJL7 LC;7LJL7 LC;7LJL7 LC;7LJLJ7 LC;7LJLJ7 LC;7LJJ7 LC;7LJJ7 LC;7JJ7 LJC;7JJ7 LJC;7JJ7 LJC;7JJ7 LJC;7JJ7 LJC;7JJ7 LJC;7JJ7 LJC;7JJ7 LJC;7JJ7 LJC;7JJ7 LJC;7JJ7 LJC;7JJ7 LJC;7JJ7 LJC;7JJ7 LJC;7JJ7 LJC;7JJ7 LJC;7JJ7 LJC;7JJ7 LJC;JJ7 LJC;JJ7 LJC;JJ7 LJC;JJ7 LJC;JJ7 LJC;JJ7 LJC;JJ JC;JJ JC;JJ JC;JJ JC;JJ JC;JJ JC;JJ JC;JJ JC;JJ JC;JHJ JC;JHJ JC;JHJ JC;JHJ JC;JHJ JC;JHJ JC;JHJ JC;JHJ JC;JHJ JC;JHJH JC;JHJH JC;JHJH JC;JHJH JC;JHJH JC;JHJH JC;JHJH JCJHJH JCJHJH JJHJH JJHJH JHJH JHJH JHJH JHJH JHJH JHHJH JHHJH JHHJH JHHJH JHHJH JHHJH JHHJH JHHJH JHHJH JHHJH JHHJH HHJH HHJH HHJH HHJH HHJH HHJH HHJH HHJH HHJH HHJH HHJH HHJH HHJH HHJH HHJH HHJH HHJH HHH HHH HHH HHH HHH HHH HHH HHH HHH HHH HHH HHH HHH HHJH HHJH HHJH HHJH HHJH HHJH HHJH HHJH HHJH HHJH HHJH HJHJH HJHJH HJHJH HJHJH HJHJH HJHJH HJHJH HJHJH HJHJH HJHJH HJHJH HJHJH HJHJH HJHJH HJHJH HJHJH HJHJH HJHJH HJHJHJ HJHJHJ HJHJHJ HJHJHJ HJHJHJ HJJHJ HJJHJ HJJHJ HJJHJ HJJHJ HJJHJ HJJHJ JJHJ JJHJ JJHJ JJHJ JJHJ JJHJ JJHJ JJHJ JJHJ JJHJ JJHJ JJHJ JJHJ JJHJ JJHJ JJHJ JJHJ JJJ JJJ JJJ JJJ JJJ JJJ JJJ JJJ JJJ JJJ JJ JJ JJ JJ JJ JJ CJJ CJJ CJJ CJJ CJ CJ C0J LC0J LC0J LC0J LC0J LC0J0 LC0J0 LC0J0 LC0J0 LC0J0 LC0J0 LC<00 LC<00 LC<0L0 LC<0L0 LC<0L0 LC<0LL0 LC<0LL0 LC<0LL0 LC<0LL0 LC<0LL0 LC<0LL0 LC<0LL0 LC<0LL0 LC<0LL0 LC<0LL0 LC<0LL0 LC<0LL0 LC<0LL0 LC<0LL0 LC<0LL0 LC<0LL0 LC<0LL0 LC<0LL0 LC<0LL0 LC<0LL0 LC<0LL0 LC<0LL0 LC<0LL0 LC<0LL0 LC<0LL0 LC<0LL0 LC<0LL0 LC<0LL0 LC<0LL0 LC<0LL0 LC<0LL0 LC<0LL0 LC<0LL0 LC<0LL0 LC<0LL0 LC<0LL0 LC<0LL0 LC<0LL0 LC<0LL0 LC<0LL0 LC<0LL0 LC<0LL0 LC<0LL0 LC<0LL0 LC<0LL0 LC<0LL0 LC<0LL0 LC<0LL0 LC<0LL0 LC<0LL0 LC<0LL0 LC<0LL0 LC<0LL0 LC<0LL0 LC<0LL0 LC<0LL0 LC<0LL0 LC<0LL0 LC<0LL0 LC<0LL0 LC<0LL0 LC<0LL0 LC<0LL0 LC<0LL0 LC<0LL0 LC<0LL0 LC<0LL0 LC<0LL0 LC<0LL0 LC<0LL0 LC<0LL0 LC<0LL0 LC<0LL0 LC<0LL0 LC<0LL0 LC<0LL0 LC<0LL0 LC<0LL0 LC<0LL0 LC<0LL0 LC<0LL0 LC<0LL0 LC<0LL0 LC<0LL0 LC<0LL0 LC<0LL0 LC<0LL0 LC<0LL0 LC<0LL0 LC<0LL0 LC<0LL0 LC<0LL LC<0LL LC<0LL LC<0LL LC<0LL LC<0LL LC<0LL LC<0LL LC<LL LC<LL LC<LL LC<LL LC<LL LC<LL LC<LL LC<LL LC<LL LC<LL LC<LL LC<LL LC<LL LC<LL LC<LL LC<LL LC<LL LC<LL LC<LL LC<LL LC<LL LC<LL LC<LL LC<LL LC<LL LC<LL LC<LL LC<LL LC<LL LC<LL LC<LL LC<LL LC<LL LC<LL LC<LL LC<LL LC<LL LC<LL LC<LL LC<LL LC<LL LC<LL LC<LL LCLL LCLL LCLL LCLL LLL LLL LLL LLL LLL LLL LLL LLL LLL LLL LLL LLL LLL LLL LLL LLL LLL LLL LLL LLL LLL LLL LLL LLL LLL LLL LLL LLL LLL LLL LLL LLL LLL LLL LLL LLL LLL LLL LLL LLL LLL LLL LLL LLL LLL LLL LLL LLL LLL LLL LLL LLL LLL LLL LLL LLL LLL LLL LLL LLL LLL LLL LLL LLL LLL LLL LLL LLL LLL LLL LLL LLL LLL LLL LLL LDLL LDLL LDLL LDLL LDLL LDLL LDLL LDLL LDLL LDLL LDLL LD;LL LD;LL LD;LL4 LD;LL4 LD;LL4 LD;LL4 LD;LL4 LD;LL4 LD;LL4 LD;4LL4 LD;4LL4 LD;4LL4 LD;4LL4 LD;4LL4 LD;4LL4 LD;4LL4 LD;4LL4 LD;4LL4 LD;4LL4 LD;4LL4 LD;4L4 LD;4L4 LD;44 LD;44 LD;44 LD;44 LD;44 LD;44 LD;44 LD;44 LD;44 LD;44 LD;44 LD;44 LD;44 LD;44 LD;44 LD;44 D;44 D;44 D;44 D;44 D;44 D;44 D;44 D;44 D;44 D;44 D;44 D;44 D;44 D;44 D;44 D;44 D;44 D;44 D;44 D;44 D;44 D;44 D;44 D;44 D;44 D;44 D;44 D;44 D;44 D;44 D;44 D;44 D;44 D;44 D;44 D;44 D;44 D;44 D;44 D;44 D;44 D;44 D;44 D;44 D;44 D;44 D;44 D;44 D;4 D;4 D;4 D;4 D;4 D;4 D;4 D;4 D;4 D;4 D;4 D;4 D; D; D; D; D; D; D D               J JJ JJ JJ JJ JJ JJJ JJJ JJJ JJJ JJJ JJJ JJJ JJJ JJJ JJJ JJJ JJJ JJJ JJJ JJJ JJJ JJJ JJJ JJJ JJJ JJJ JJJ JJJ JJJ JJJ JJJ JJJ JJJ JJJ JJJ JJJ JJJ JJJ JJJ JJJ JJJ JJJ JJJ JJJ JJJ JJJ JJJ JJJ JJJ JJJ JJJ JJJ JJ JJ JJ J J J J J J                                                 9 9 9 9 9 E9 E9 E9 E9 E9- E9- E9- E9-- E9-- E9-- E9-- E9-- E9-- E9-- E9-- E9-H- E9-H- E9-H- HE9-H- HE9-H- HE9-H- HE9-H- HE9-H- HE9-HH- HE9-HH- HE9-HH- HE9-HH- HE9-HH- HE9-HH- HE9-HH- HE9-HH- HE9-HH- HE9-HH- HE9-HH- HE9-HH- HE9-HH- HE9-HH- HE9-HH- HE9-HH- HE9-HH- HE9-HH- HE9-HH- HE9-HH- HE9-HH- HE9-HH- HE9-HH- HE9-HH- HE9-HH- HE9-HH- HE9-HH- HE9-HH- HE9-HH- HE9-HH- HE9-HH- HE9-HH- HE9-HH- HE9-HH- HE9-HH- HE9-HH- HE9-HH- HE9-HH- HE9-HH- HE9-HH- HE9-HH- HE9-HH- HE9-HH- HE9-HH- HE9-HH- HE9-HH- HE9-HH- HE9-HH- HE9-HH- HE9-HH- HE9-HH- HE9-HH- HE9-HH- HE9-HH- HE9-HH- HE9-HH- HE9-HH- HE9-HH- HE9-HH- HE9-HH- HE9-HH- HE9-HH- HE9-HH- HE9-HH- HE9-HH- HE9-HH- HE9-HH- HE9-HH- HE9-HH- HE9-HH- HE9-HH- HE9-HH- HE9-HH- HE9-HH- HE9-HH- HE9-HH- HE9-HH- HE9-HH- HE9-HH- HE9-HH- HE9-HH- HE9-HH- HE9-HH- H9-HH- H9-HH- H9-HH- H9-HH- H9-HH- H9-HH- H9-HH- H-HH- H-HH- H-HH- H-HH- H-HH H-HH H-HH H-HH H-HH H-HH H-HH H-HH H-HH H-HH H-HH H-HH H-HH H-HH HHH HHH HHH HHH HHH HHH HHH HHH HHH HHH HHH HHH HHH HHH HHH HHH HHH HHH HHH HHH HHH HHH HHH HHH HHH HHH HHH HHH HHH HHH HHH HHH HHH HHH HHH HHH HHH HHH HHH HHH HHH HHH HHH HHH HHH HHH HHH HHH HHH HHH HHH HHH HHH HHH HHH HHH HHH HHH HHH HHH HHH HHH HHH HHH HHH HHH HHH HHH HHH HHH HHH HHH HHH HHH HHH HHH HHH HHH HHH HHH HHH HHH HHH HHH HHH HHH HHH HHH HHH HHH HHH HHH HHH HHH HHH HHH HHH HHH HHH HHH HHH HHH HHH HHH HH HH HH HH H H H H H H H H H9 H9 9 9G2 9G2 B9G2 B9G2 B9G2 B9G2 B92G2 B92GG2 B92GG2 B92GG2 GB92GG2 GB92GG2 GB92GG2 GB92GG2 GB92GG2 GB92GG2 GB92GG2 GB92GG2 GB92GG2 GB92GG2 GB92GG2 GB92GG2 GB92GG2 GB92GG2 GB92GG2 GB92GG2 GB92GG2 GB92GG2 GB92GG2 GB92GG2 GB92GG2 GB92GG2 GB92GG2 GB92GG2 GB92GG2 GB92GG2 GB92GG2 GB92GG2 GB92GG2 GB92GG2 GB92GG2 GB92GG2 GB92GG2 GB92GG2 GB92GG2 GB92GG2 GB92GG2 GB92GG2 GB92GG2 GB92GG2 GB92GG2 GB92GG2 GB92GG2 GB92GG2 GB92GG2 GB92GG2 GB92GG2 GB92GG2 GB92GG2 GB92GG2 GB92GG2 GB92GG2 GB92GG2 GB92GG2 GB92GG2 GB92GG2 GB92GG2 GB92GG2 GB92GG2 GB92GG2 GB92GG2 GB92GG2 GB92GG2 GB92GG2 GB92GG2 GB92GG2 GB92GG2 GB92GG2 GB92GG2 GB92GG2 GB92GG2 GB92GG2 GB92G2 GB92G2 GB92G2 GB92G2 GB92G2 B92G2 92G2 92G2 92G2 922 922 922 922 922 922 922 922 22 22 22 242 242 2424 2424 2424 2424 2424 2424 2424 E24E24 E24E24 E24E24 E24E24 E24E24 E24E24 E24E24 E24E24 E24E24 E24EE4 E24EE4 E24EE4 E24EE4 E24EE4 E24EE4 E24EE4 E24EE4 E24EE4 E24EE4 E24EE4 E24EE4 E24EE4 E4EE4 E4EE4 E4EE4 E4EE4 E4EE4 E4EE4 E4EE4 E4EE4 E4EE4 E4EE4 E4EE4 E4EE4 E4EE4 E4EE4 E4EE4 E4EE4 E4EE4 E4EE4 E4EE4 E4EE4 E4EE4 E4EE4 E4EE4 E4EE4 E4EE4 E4EE4 E4EE4 E4EE4 E4EE4 E4EE4 E4EE4 E4EE4 E4EE4 E4EE4 E4EE4 E4EE4 E4EE4 E4EE4 E4EE4 E4EE4 E4EE4 E4EE4 EEE4 EEE4 EEE4 EEE4 EEE4 EEE4 EEE4 EEE4 EEE4 EE4 EE4 E E E E E E E E E E E E E E E                          2 2 22 22 22 22 >22 >22 >22 >22 >22 C>22 C>22 C>22 C>22 C>22 C>22 C>22 GC>22 GC>22 GC>22 GC>22 GC>22 GC>22 GC>22 GC>22 GC>2G2 GC>2G2 GC>2G2 GC>2G2 GC>2G2 GC>2GG2 GC>2GG2 GC>2GG2 GC>2GG2 GC>2GG2 GC>2GG2 GC>2GG2 GC>2GG2 GC>2GG2 GC>2GG2 GC>2GG2 GC>2GG2 GC>2GG2 GC>2GG2 GC>2GG2 GC>2GG2 GC>2GG2 GC>2GG2 GC>2GG2 GC>2GG2 GC>2GG2 GC>2GG2 GC>2GG2 GC>2GG2 GC>2GG2 GC>2GG2 GC>2GG2 GC>2GG2 GC>2GG2 GC>2GG2 GC>2GG2 GC>2GG2 GC>2GG2 GC>2GG2 GC>2GG2 GC>2GG2 GC>2GG2 GC>2GG2 GC>2GG2 GC>2GG2 GC>2GG2 GC>2GG2 GC>2GG2 GC>2GG2 GC>2GG2 GC>2GG2 GC>2GG2 GC>2GG2 GC>2GG2 GC>2GG2 GC>2GG2 GC>2GG2 GC>2GG2 GC>2GG2 GC>2GG2 GC>2GG2 GC>2GG2 GC>2GG2 GC>2GG2 GC>2GG2 GC>2GG2 GC>2GG2 GC>2GG2 GC>2GG2 GC>2GG2 GC>2GG2 GC>2GG2 GC>2GG2 GC>GG2 GC>GG2 GC>GG2 GC>GG2 GC>GG2 GC>GG2 GC>GG2 GC>GG GC>GG GC>GG GC>GG GC>GG GC>GG GC>GG GC>GG GC>GG GC>GG GC>GG GC>GG GC>GG GC>GG GC>GG GC>0GG GC>0GG GC>0GG GC>0GG0 GC>0GG0 GC>0GG0 GC>0GG0 GC>0GG0 GC>0GG0 GC>0GG0 GC>0GG0 GC>0GG0 GC>0GG0 GC>0GG0 GC>0GG0 GC>0GG0 GC>0GG0 GC>0GG0 GC>0GG0 GC>0GG0 GC>0GG0 GC>0GG0 GC>0GG0 GC>0GG0 GC>0GG0 GC>0GG0 GC>0GG0 GC>0GG0 GC>0GG0 GC>0GG0 GC>0GG0 GC>0GG0 GC>0GG0 GC>0GG0 GC>0GG0 GC>0GG0 GC>0GG0 GC>0GG0 GC>0GG0 GC>0GG0 GC>0GG0 GC>0GG0 GC>0GG0 GC>0GG0 GC>0GG0 GC>0GG0 GC>0GG0 GC>0GG0 GC>0GG0 GC>0GG0 GC>0GG0 GC>0GG0 GC>0GG0 GC>0GG0 GC>0GG0 GC>0GG0 GC>0GG0 GC>0GG0 GC>0GG0 GC>0GG0 GC>0GG0 GC>0GG0 GC>0GG0 GC>0GG0 GC>0GG0 GC>0GG0 GC>0GG0 GC>0GG0 GC>0GG0 GC>0GG0 GC>0GG0 GC>0GG0 GC>0GG0 GC>0GG0 GC>0GG0 GC>0GG0 GC>0GG0 GC>0GG0 GC>0GG0 GC>0GG0 GC>0GG0 GC>0GG0 GC>0GG0 GC>0GG0 GC>0GG0 GC>0GG0 GC>0GG0 GC>0GG0 GC>0GG0 GC>0GG0 GC>0GG0 GC>0GG0 GC>0GG0 GC>0GG0 GC>0GG0 GC>0GG0 GC>0GG0 GC>0GG0 GC>0GG0 GC>0GG0 GC>GG0 GC>GG0 GC>GG0 GC>GG0 GC>GG0 GC>GG0 GC>GG0 GC>GG0 GC>GG0 GC>GG0 GC>GG0 GC>GG0 GC>GG0 GC>/GG0/ GC>/GG0/ GC>/GG0/ GC>/GG0/ GC>/GG0/ GC>/GG/ GC>/GG/ GC>/GG/ GC>/GG/ GC>/GG/ GC>/GG/ GC>/GG/ GC>/GG/ GC>/GG/ GC>/GG/ GC>/GG/ GC>/GG/ GC>/GG/ GC>/GG/ GC>/GG/ GC>/GG/ GC>/GG/ GC>/GG/ GC>/GG/ GC>/GG/ GC>/GG/ GC>/GG/ GC>/GG/ GC>/GG/ GC>/GG/ GC>/GG/ GC>/GG/ GC>/GG/ GC>/GG/ GC>/GG/ GC>/GG/ GC>/GG/ GC>/GG/ GC>/GG/ GC>/GG/ GC>/GG/ C>/GG/ C>/GG/ C>/GG/ C>/GG/ C>/GG/ C>/GG/ C>/GG/ C>/GG/ >/GG/ >/GG/ >/GG/ >/GG/ >/GG/ >/GG/ >/GG/ >/GG/ >/GG/ /GG/ /GG/ /GG/ /GG/ /GG/ /GG/ /GG/ /GG/ /GG/ /G/ /G/ /G/ /G/ /G/ /G/ /G/ /G/ /G/ // // // // / / / / / / / / / / / / / / / / / / / / / /                   -- -- -- -- -- -- -- -- -- -- -- -- -- <-- <-- <-- <-- <-- HE<-- HE<-- HE<-- HE<-- HE<-- HE<-- HE<-H- HE<-H- HE<-H- HE<-H- HE<-H- HE<-H- HE<-H- HE<-HH- HE<-HH- HE<-HH- HE<-HH- HE<-HH- HE<-HH- HE<-HH- HE<-HH- HE<-HH- HE<-HH- HE<-HH- HE<-HH- HE<-HH- HE<-HH- HE<-HH- HE<-HH- HE<-HH- HE<-HH- HE<-HH- HE<-HH- HE<-HH- HE<-HH- HE<-HH- HE<-HH- HE<-HH- HE<-HH- HE<-HH- HE<-HH- HE<-HH- HE<-HH- E<-HH- E<-HH- E<-HH- E<-HH- E<-HH- E<-HH- E<-HH- E<-HH- E<-H- E<-H- E<-H- E<-H- E<-H- E<-H- E<-H- E<-H- E<-H- E<-H- E<-H- E<-- E<-- E<-- E<-- E<-- E<-- E<-- E<-- E<- E<- E<- E<- E<- <- <- <- <- <- <- < < < < < < <                               / >// >// >// >// >// >// >// >/J/ J>/J/ J>C/J/ J>C/J/ J>C/J/ J>C/J/ J>C/J/ J>C/J/ J>C/J/ J>C/J/ J>C/J/ J>C/J/ J>C/J/ J>C/J/ J>C/J/ J>C/J/ J>C/J/ J>C/J/ J>C/J/ J>C/J/ J>C/J/ J>C/J/ J>C/J/ J>C/J/ J>C/JJ/ J>C/JJ/ J>C/JJ/ J>C/JJ/ J>C/JJ/ J>C/JJ/ J>C/JJ/ J>C/JJ/ J>C/JJ/ J>C/JJ/ J>C/JJ/ J>C/JJ/ J>C/JJ/ J>C/JJ/ J>C/JJ/ J>C/JJ/ J>C/JJ/ J>C/JJ/ J>C/JJ/ J>C/JJ/ J>C/JJ/ J>C/JJ/ J>C/JJ/ J>C/JJ/ J>C/JJ/ J>C/JJ/ J>C/JJ/ J>C/JJ/ J>C/JJ/ J>C/JJ/ J>C/JJ/ J>C/JJ/ J>C/JJ/ J>C/JJ/ J>C/JJ/ J>C/JJ/ J>C/JJ/ J>C/JJ/ J>C/JJ/ J>C/JJ/ J>C/JJ/ J>C/JJ/ J>C/JJ/ J>C/JJ/ J>C/JJ/ J>C/JJ/ J>C/JJ/ J>C/JJ/ J>C/JJ/ J>C/JJ/ J>C/JJ/ J>C/JJ/ J>C/JJ/ J>C/JJ/ J>C/JJ/ J>C/JJ/ J>C/JJ/ J>C/JJ/ J>C/JJ/ J>C/JJ/ J>C/JJ/ J>C/JJ/ J>C/JJ/ J>C/JJ/ J>C/JJ/ J>C/JJ/ J>C/JJ/ J>C/JJ/ J>C/JJ/ J>C/JJ/ J>C/JJ/ J>C/JJ/ J>C/JJ/ J>C/JJ/ J>C/JJ/ J>C/JJ/ J>C/JJ/ J>/JJ/ J>/JJ/ J>/JJ/ J>/JJ/ J>/JJ/ J>/JJ/ J>/JJ/ J>/JJ/ J>/JJ/ J>/JJ/ J>/JJ/ J>/JJ/ J>/JJ/ J>/JJ/ J>/JJ/ J>/JJ/ J>JJ/ J>JJ/ J>JJ/ J>JJ/ J>JJ/ J>JJ/ J>JJ/ J>JJ/ J>JJ/ J>JJ/ J>JJ/ J>JJ/ J>JJ/ J>JJ/ J>JJ/ J>JJ/ JJJ/ JJJ/ JJJ/ JJJ/ JJJ/ JJJ/ JJJ/ JJJ/ JJJ/ JJJ/ JJJ/ JJJ/ JJJ/ JJJ/ JJJ/ JJJ JJJ JJJ JJJ JJJ JJJ JJJ JJJ JJJ JJJ JJJ JJJ JJJ JJJ JJJ JJJ JJJ JJJ JJJ JJJ JJJ JJJ JJJ JJJ JJJ JJJ JJJ JJJ JJJ JJJ JJJ JJJ JJJ JJJ JJJ JJJ JJJ JJJ JJJ JJJ JJJ JJJ JJJ JJJ JJJ JJJ JJJ JJJ JJJ JJJ JJJ JJJ JJJ JJJ JJJ JJJ JJJ JJJ JJJ JJJ JJJ JJJ JJJ JJJ JJJ JJJ JJJ JJJ JJJ JJJ JJJ JJJ JJJ JJJ JJJ JJJ JJJ JJJ JJJ JJJ JCJJ JCJJ JCJJ0 JCJJ0 JCJJ0 JCJJ0 JCJJ0 JCJJ0 JCJJ0 JCJJ0 JCJJ0 JC0JJ0 JC0JJ0 JC0JJ0 JC0JJ0 JC0JJ0 JC0JJ0 JC<0JJ0 JC<0JJ0 JC<0JJ0 JC<0JJ0 JC<0JJ0 JC<0JJ0 JC<0JJ0 JC<0JJ0 JC<0JJ0 JC<0JJ0 JC<0JJ0 JC<0JJ0 JC<0JJ0 JC<0JJ0 JC<0JJ0 JC<0JJ0 JC<0JJ0 JC<0JJ0 JC<0JJ0 JC<0JJ0 JC<0JJ0 JC<0JJ0 JC<0JJ0 JC<0JJ0 JC<0JJ0 JC<0JJ0 JC<0JJ0 JC<0JJ0 JC<0JJ0 JC<0JJ0 JC<0JJ0 JC<0JJ0 JC<0JJ0 JC<0JJ0 JC<0JJ0 JC<0JJ0 JC<0JJ0 JC<0JJ0 JC<0JJ0 JC<0JJ0 JC<0JJ0 JC<0JJ0 JC<0JJ0 JC<0JJ0 JC<0JJ0 JC<0JJ0 JC<0JJ0 JC<0JJ0 JC<0JJ0 JC<0JJ0 JC<0JJ0 JC<0JJ0 JC<0JJ0 JC<0JJ0 JC<0JJ0 JC<0JJ0 JC<0J0 JC<0J0 JC<0J0 JC<0J0 JC<0J0 JC<0J0 JC<0J0 JC<0J0 JC<0J0 C<0J0 C<0J0 C<0J0 C<0J0 C<0J0 C<0J0 C<00 C<00 C<00 C<00 C<00 C<00 C<00 C<00 C<00 C<00 C<00 C<00 C<00 C<00 C<00 C<00 C<00 C<00 C<00 C<00 C<00 C<00 C<00 C<00 C<00 C<00 C<00 C<00 C<00 C<0 LC<0 LC< LC< LC< LC< LC< LC< LC< LC< LC< LC<L LC<L LC<L LC<L LC<L LC<L LC<L LC<L LC<L L<L L<L L<L L<L L<L L<LL L<LL L<LL L<LL L<LL L<LL L<LL L<LL L<LL L<LL L<LL L<LL L<LL L<LL L<LL L<LL L<LL L<LL L<LL L<LL L<LL L<LL L<LL L<LL L<LL L<LL L<LL L<LL L<LL L<LL L<LL L<LL L<LL L<LL L<LL L<LL L<LL L<LL L<LL L<LL L<LL L<LL L<LL L<LL L<LL L<LL L<LL L<LL L<LL L<LL L<LL L<LL L<LL L<LL L<LL L<LL L<LL L<LL L<LL L<LL L<LL L<LL L<LL L<LL L<LL L<LL L<LL L<LL L<LL <LL <LL <LL <LL <LL <LL <L <L <L <L <L <L <L <L <L <L <L < < < < E< E< E< E<- E<- E<- E<- E<- E<- E<- E<- E<-- E<-- E<-- E<-- E<-- NE<-- NE<-- NE<-N- NE<-N- NE<-N- NE<-N- NE<-N- NE<-N- NE<-N- NE<-N- NE<-N- NE<-N- NE<-N- NE<-N- NE<-N- NE<-N- NE<-N- NE<-N- NE<-N- NE<-N- NE<-N- NE<-N- NE<-N- NE<-N- NE<-N- NE<-N- NE<-N- NE<-N- NE<-N- NE<-NN- NE<-NN- NE<-NN- NE<-NN- NE<-NN- NE<-NN- NE<-NN- NE<-NN- NE<-NN- NE<-NN- NE<-NN- NE<-NN- NE<-NN- NE<-NN- NE<-NN- NE<-NN- NE<-NN- NE<-NN- NE<-NN- NE<-NN- NE<-NN- NE<-NN- NE<-NN- NE<-NN- NE<-NN- NE<-NN- NE<-NN- NE<-NN- NE<-NN- NE<-NN- NE<-NN- NE<-NN- NE<-NN- NE<-NN- NE<-NN- NE<-NN- NE<-NN- NE<-NN- NE<-NN- NE<-NN- NE<-NN- NE<-NN- NE<-NN- NE<-NN- NE<-NN- NE<-NN- NE<-NN- NE<-NN- NE<-NN- NE<-NN- NE<-NN- NE<-NN- NE<-NN- NE<-NN- NE<-NN- NE<-NN- NE<-NN- NE<-NN- NE<-NN- NE<-NN- NE<-NN- NE<-NN- NE<-NN- NE<-NN- NE<-NN- NE<-NN- NE<-N- NE<-N- NE<-N- NE<-N- NE<-N- NE<-N- NE<-N- E<-N- E<-N- E<-N- E<-N- E<-N- E<-N- E<-N- E<-N- E<-N- E<-N- E<-N- E<-N- E<-N- E<- E<- E<- E<- E<- E<- E<- E<- E<- E<- E<- E<- E<- <- <- <- <- <- <- <- < < < < < < < <                                                                                      + + + + + + ++ ++ ++ G++ G++ G++ G++ G++ G++ G++ G++ G++ G++ G++ OG++ OG++ OG+O+ OG+O+ OG+O+ OG+O+ OG+O+ OG+O+ OG>+O+ OG>+O+ OG>+O+ OG>+O+ OG>+O+ OG>+OO+ OG>+OO+ OG>+OO+ OG>+OO+ OG>+OO+ OG>+OO+ OG>+OO+ OG>+OO+ OG>+OO+ OG>+OO+ OG>+OO+ OG>+OO+ OG>+OO+ OG>+OO+ OG>+OO+ OG>+OO+ OG>+OO+ OG>+OO+ OG>+OO+ OG>+OO+ OG>+OO+ OG>+OO+ OG>+OO+ OG>+OO+ OG>+OO+ OG>+OO+ OG>+OO+ OG>+OO+ OG>+OO+ OG>+OO+ OG>+OO+ OG>+OO+ OG>+OO+ OG>+OO+ OG>+OO+ OG>+OO+ OG>+OO+ OG>+OO+ OG>+OO+ OG>+OO+ OG>+OO+ OG>+OO+ OG>+OO+ OG>+OO+ OG>+OO+ OG>+OO+ OG>+OO+ OG>+OO+ OG>+OO+ OG>+OO+ OG>+OO+ OG>+OO+ OG>+OO+ OG>+OO+ OG>+OO+ OG>+OO+ G>+OO+ G>+OO+ G>+O+ G>+O+ G>+O+ G>+O+ G>+O+ G>+O+ >++ >++ >++ >++ ++ ++ ++ ++ ++ ++ ++ ++ ++ ++ ++ ++ ++ + + + + + + + + + + + + + + + + + +                                                                                                                E E E E E E E E E E* E* E** E** E** E>** E>** E>** E>** E>*E* E>*E* E>*E* E>*E* E>*E* E>*E* E>*E* E>*E* E>*E* E>*EE* EE>*EE* EE>*EE* EE>*EE* EE>*EE* EE>*EE* EE>*EE* EE>*EE* EE>*EE* EE>*EE* EE>*EE* EE>*EE* EE>*EE* EE>*EE* EE>*EE* EE>*EE* EE>*EE* EE>*EE* EE>*EE* EE>*EE* EE>*EE* EE>*EE* EE>*EE* EE>*EE* EE>*EE* EE>*EE* EE>*EE* EE>*EE* EE>*EE* EE>*EE* EE>*EE* EE>*EE* EE>*EE* EE>*EE* EE>*EE* EE>*EE* EE>*EE* EE>*EE* EE>*EE* EE>*EE* EE>*EE* EE>*EE* EE>*EE* EE>*EE* EE>*EE* EE>*EE* EE>*EE* EE>*EE* EE>*EE* EE>*EE* EE>*EE* EE>*EE* EE>*EE* EE>*EE* EE>*EE* EE>*EE* EE>*EE* EE>*EE* EE>*EE* EE>*EE* EE>*EE* EE>*EE* EE>*EE* EE>*EE* EE>*EE* EE>*EE* EE>*EE* EE>*EE* EE>*EE* EE>*EE* EE>*EE* EE>*EE* EE>*EE* EE>*EE* EE>*EE* EE>*EE* EE>*EE* EE>*EE* EE>*EE* EE>*EE* EE>*EE* EE>*EE* EE>*EE* EE>*EE* EE>*EE* EE>*EE* EE>*EE* EE>*EE* EE>*EE* EE>*EE* EE>*EE* EE>*EE* EE>*EE* EE>*EE* EE>*EE* EE>*EE* EE>*EE* EE>*EE* EE>*EE* EE>*EE* EE>*EE* EE>*EE* EE>*EE* EE>*EE* EE>*EE* EE>*EE* EE>EE* EE>EE* EE>EE* EE>EE* EE>EE* EE>EE EE>EE EE>EE EE>EE EE>EE EE>EE EE>EE EE>EE EE>EE EE>EE EE>EE EEEE EEEE EEEE EEEE EEEE EEEE EEEE EEEE EEEE EEEE EEEE EEEE EEEE EEEE EEEE EEEE EEEE EEEE EEEE EEEE EEEE EEEE EEEE EEEE EEEE EEEE EEEE EEEE EEEE EEEE EEEE EEE EEE EEE EEE EEE EEE EEE EEE EEE EEE EEE EEE EEE EEE EEE EEE EEE EEE EEE EEE EEE EEE EEE EEE EEE EEE EEE EEE EEE EEE EEE EEE EEE EEE EEE EEE EEE EEE EEE EEE EEE EEE EEE EEE EEE EEE EEE EEE EEE+ EEE+ EEE+ EEE+ EEE+ EEE+ EEE+ EEE+ EEE+ EEE+ EEE+ ECEE+ ECEE+ ECEE+ ECEE+ ECEE+ ECEE+ ECEE+ ECEE+ ECEE+ EC+EE+ EC+EE+ EC+EE+ EC+EE+ EC>+EE+ EC>+EE+ EC>+EE+ EC>+EE+ EC>+EE+ EC>+EE+ EC>+EE+ EC>+EE+ EC>+EE+ EC>+EE+ EC>+EE+ EC>+EE+ EC>+EE+ EC>+EE+ EC>+EE+ EC>+EE+ EC>+EE+ EC>+EE+ EC>+EE+ EC>+EE+ EC>+EE+ EC>+EE+ EC>+EE+ EC>+EE+ EC>+EE+ EC>+EE+ EC>+EE+ EC>+EE+ EC>+EE+ EC>+EE+ EC>+EE+ EC>+EE+ EC>+EE+ EC>+EE+ EC>+EE+ EC>+EE+ EC>+EE+ EC>+EE+ EC>+EE+ EC>+EE+ EC>+EE+ EC>+EE+ EC>+EE+ EC>+EE+ EC>+EE+ EC>+EE+ EC>+EE+ EC>+EE+ EC>+EE+ EC>+EE+ EC>+EE+ EC>+EE+ EC>+EE+ EC>+EE+ EC>+EE+ EC>+EE+ EC>+EE+ EC>+EE+ EC>+EE+ EC>+EE+ EC>+EE+ EC>+EE+ EC>+EE+ C>+EE+ C>+EE+ C>+EE+ C>+EE+ C>+EE+ C>+EE+ C>+E+ C>+E+ C>+E+ C>+E+ C>++ C>++ C>++ C>++ C>++ C>++ C>++ C>++ C>++ C>++ C>++ C>++ C>++ C>++ C>++ C>++ C>++ C>++ C>++ C>++ C>+ C>+ C>+ C>+ C>+ C>+ C>+ C>+ C>+ > > > > > > > > > > > > G G G G GG GG GG GGG GGG GGG GGG GGG GGG GGG GGG GGG GGG GGG GGG GGG GGG GGG GGG GGG GGG GGG GGG GGG GGG GGG GGG GGG GGG GGG GGG GGG GGG GGG GGG GGG GGG GGG GGG GGG GGG GGG GGG GGG GGG GGG GGG GGG GGG GGG GGG GGG GGG GGG GGG GGG GGG GGG GGG GGG GGG GGG GGG GGG GGG GGG GGG GGG GGG GGG GGG GGG GGG GG GG G G G                         ( ( ( ( ( ( (( (( C(( C(( C(( C(( C(( C(( C(( C(( C(( C@(( C@(( C@(( C@(( C@(( C@(( C@(( C@(( C@(( C@(( C@(( C@(( C@(HH( C@(HH( HC@(HH( HC@(HH( HC@(HH( HC@(HH( HC@(HH( HC@(HH( HC@(HH( HC@(HH( HC@(HH( HC@(HH( HC@(HH( HC@(HH( HC@(HH( HC@(HH( HC@(HH( HC@(HH( HC@(HH( HC@(HH( HC@(HH( HC@(HH( HC@(HH( HC@(HH( HC@(HH( HC@(HH( HC@(HH( HC@(HH( HC@(HH( HC@(HH( HC@(HH( HC@(HH( HC@(HH( HC@(HH( HC@(HH( HC@(HH( HC@(HH( HC@(HH( HC@(HH( HC@(HH( HC@(HH( HC@(HH( HC@(HH( HC@(HH( HC@(HH( HC@(HH( HC@(HH( HC@(HH( HC@(HH( HC@(HH( HC@(HH( HC@(HH( HC@(HH( HC@(HH( HC@(HH( HC@(HH( HC@(HH( HC@(HH( HC@(HH( HC@(HH( HC@(HH( HC@(HH( HC@(HH( HC@(HH( HC@(HH( HC@(HH( HC@(HH( HC@(HH( HC@(HH( HC@(HH( HC@(HH( HC@(HH( HC@(HH HC@(HH HC@(HH HC@(HH HC@(HH HC@(HH HC@(HH HC@(HH HC@(HH HC@(HH HC@(HH HC@(HH HC@(HH HC@(HH HC@(HH HC@(HH HC@(HH HC@(HH HC@(HH HC@(HH HC(HH HC(HH HC(HH HC(HH HC(HH HC(HH HC(HH HC(HH HC(HH HC(HH HC(HH HC(HH HC(HH HC(HH HCHH HCHH HCHH HCHH HCHH HCHH HCHH HCHH HCHH HCHH HCHH HCHH HCHH HCHH HCHH HCHH HCHH HCHH HCHH HCHH HCHH HCHH HCHH HCHH HCHH HHH HHH HHH HHH HHH HHH HHH HHH HHH HHH HHH HHH HHH HHH HHH HHH HHH HHH HHH HHH HHH HHH HHH HHH HHH HHH HHH HHH HHH HHH HHH HHH HHH HHH HHH HHH HHH HHH HHH HHH HHH HHH HHH HHH HHH HHH HHH HHH HHH HHH HHH HHH HHH HHH HHH HHH HHH HHH HHH HHH HHH HHH HHH HHH HHH HHH HHH HHH HHH HHH HHH HHH HHH HHH HHH HHH HHH HHH HHH HHH HHH HHH HHH HHH HHH HEHH* HEHH* HEHH* HE*HH* HE*HH* HE*HH* HE*HH* HE*HH* HE*HH* HE*HH* HE*HH* HE*HH* HE*HH* HE*HH* HE*HH* HE*HH* HE*HH* HE*HH* HE*HH* HE*HH* HE>*H* HE>*H* HE>*H* HE>*H* HE>*H* HE>** HE>** HE>** E>** E>** E>** E>** E>** E>** E>** E>** E>** E>** E>** E>** E>** E>** E>** E>** E>** E>** E>** E>** E>** E>** E>** E>** E>** E>** E>** E>** E>** E>** E>** E>** E>** E>** E>** E>** E>** E>** E>** E>** E>** E>** E>** E>** E>** E>** E>** E>** E>** E>** E>* E>* E>* E>* E>* E>* E>* E>* E>* E>* E>* E>* E>* E>* E>* E>* E>* E>* E>* E>* E>* E>* E>* E>* E>* E>* E* E* E* JE JE JE JE JE JE JE JE JEJ JEJ JEJ JEJ JEJ JEJJ JEJJ JJJ JJJ JJJ JJJ JJJ JJJ JJJ JJJ JJJ JJJ JJJ JJJ JJJ JJJ JJJ JJJ JJJ JJJ JJJ JJJ JJJ JJJ JJJ JJJ JJJ JJJ JJJ JJJ JJJ JJJ JJJ JJJ JJJ JJJ JJJ JJJ JJJ JJJ JJJ JJJ JJJ JJJ JJJ JJJ JJJ JJJ JJJ JJJ JJJ JJJ JJJ JJJ JJJ JJ JJ JJ J J J J J J                                                             C C+ C++ C++ C++ HC++ HC++ HC++ HC++ HC>+H+ HC>+H+ HC>+H+ HC>+H+ HC>+HH+ HC>+HH+ HC>+HH+ HC>+HH+ HC>+HH+ HC>+HH+ HC>+HH+ HC>+HH+ HC>+HH+ HC>+HH+ HC>+HH+ HC>+HH+ HC>+HH+ HC>+HH+ HC>+HH+ HC>+HH+ HC>+HH+ HC>+HH+ HC>+HH+ HC>+HH+ HC>+HH+ HC>+HH+ HC>+HH+ HC>+HH+ HC>+HH+ HC>+HH+ HC>+HH+ HC>+HH+ HC>+HH+ HC>+HH+ HC>+HH+ HC>+HH+ HC>+HH+ HC>+HH+ HC>+HH+ HC>+HH+ HC>+HH+ HC>+HH+ HC>+HH+ HC>+HH+ HC>+HH+ HC>+HH+ HC>+HH+ HC>+HH+ HC>+HH+ HC>+HH+ HC>+HH+ HC>+HH+ HC>+HH+ HC>+HH+ HC>+HH+ HC>+HH+ HC>+HH+ HC>+HH+ HC>+HH+ HC>+HH+ HC>+HH+ HC>+HH+ HC>+HH+ HC>+HH+ HC>+HH+ HC>+HH+ HC>+HH+ HC>+HH+ HC>+HH+ HC>+HH+ HC>+HH+ HC>+HH+ HC>+HH+ HC>+HH+ HC>+HH+ HC>+HH+ HC>+HH+ HC>+HH+ HC>+HH+ HC>+HH+ HC>+HH+ HC>+HH+ HC>+HH+ HC>+HH+ HC>+HH+ HC>+HH+ HC>+HH+ HC>+HH+ HC>+HH+ HC>+HH+ HC>+HH+ HC>+HH+ HC>+HH+ HC>+HH+ HC>+HH+ HC>+HH+ HC>+HH+ HC>+HH+ HC>+HH+ HC>+HH+ HC>+HH+ HC>+HH+ HC>+HH HC>+HH HC>+HH HC>+HH HC>+HH HC>+HH HC>+HH HC>+HH HC>+HH HC>+HH HC>+HH HC>+HH HC>+HH HC>+HH HGC>+HH HGC>+HH HGC>+HH HG>+HGH HG>+HGH HG>+HGHG HG>+HGHG HG>+HGHG HG>+HGHG HG>+HGHG HG>+HGHG HG>+HGHG HG>HGHG HG>HGHG HG>HGHG HG>HGHG HG>HGHG HG>HGHG HG>HGHG HG>HGHG HG>HGHG HG>HGHG HG>HGHG HG>HGHG HG>HGHG HG>HGHG HG>HGHG HG>HGHG HG>HGHG HG>HGHG HG>HGHG HG>HGHG HG>GHG HG>GHG HG>GHG HG>GHG HG>GHG HG>GHG HG>GHG HG>GHG G>GHG G>GHG G>GHG G>GHG G>GHG G>GHG G>GHG G>GG G>GG G>GG G>GG G>GG G>GG G>GG G>GG G>GG G>GG G>GG G>GG G>GG G>GG G>GG G>GG G>GG G>GG G>GG G>GG G>GG GGG GGG GGG GGG GGG GGG GGG GGG GGG GGG GGG GGG GGG GGG GGG GGG GGG GGG GGG GGG GGG GGG GGG GGG GGG GGG GGG GGG GGG GGG GGG GGG GGG GGG GGG G@GG G@GG G@GG G@GG G@GG G@GG G@GG G@GG G@GG G@GG G@GG G@GG G@GG G@GG G@GG G@GG G@GG G@GEGE G@GEGE G@GEGE G@GEGE G@GEGE G@<EGE GE@<EGE GE@<EGE0 GE@<EGE0 GE@<0EGE0 GE@<0EGE0 GE@<0EGE0 GE@<0EGE0 GE@<0EGE0 GE@<0EGE0 GE@<0EGE0 GE@<0EE0 GE@<0EE0 GE@<0EE0 GE@<0EE0 GE@<0EE0 E@<0EE0 E@<0EE0 E@<0EE0 E@<0EE0 E@<0EE0 E@<0EE0 E@<0EE0 E@<0EE0 E@<0EE0 E@<0EE0 E@<0EE0 E@<0EE0 E@<0EE0 E@<0EE0 E@<0EE0 E@<0EE0 E@<0EE0 E@<0EE0 E@<0EE0 E@<0EE0 E@<0EE0 E@<0EE0 E@<0EE0 E@<0EE0 E@<0EE0 E@<0EE0 E@<0EE0 E@<0EE0 E@<0EE0 E@<0EE0 E@<0EE0 E@<0EE0 E@<0EE0 E@<0EE0 E@<0EE0 E@<0EE0 E@<0EE0 E@<0EE0 E@<0EE0 E@<0EE0 E@<0EE0 E@<0EE0 E@<0EE0 E@<0EE0 E@<0EE0 E@<0EE0 E@<0EE0 E@<0EE0 E@<0EE0 E@<0EE0 E@<0EE0 E@<0EE0 E@<0EE0 E@<0EE0 E@<0EE0 E<0EE0 E<0EE0 E<0EE0 E<0EE0 E<0EE0 E<0EE0 E<0EE0 E<0EE0 E<0EE0 E<0EE0 E<0EE0 E<0EE0 E<0EE0 E0EE0 E0EE0 E0EE0 E0EE0 E0EE0 E0EE E0EE E0EE E0EE E0EE E0EE E0EE E0EE E0EE E0EE E0EE E0EE E0EE E0EE E0EE E0ECEC E0ECEC E0ECC E0ECC E0ECC EC0ECC EC0ECC EC0ECC EC0ECC EC0CC EC0CC EC;CC EC;CC EC;CC EC;CC EC;CC EC;CC EC;CC C;CC C;CC C;CC C;CC C;CC C;CC C;CC C;CC C;CC C;CC C;CC C;CC C;CC C;CC C;CC C;CC C;CC C;CC C;CC C;CC C;CC C;CC C;CC C;CC C;CC C;CC C;CC C;CC C;CC C;CC C;CC C;CC C;CC C;CC C;CC C;CC C;CC C;CC C;CC C;CC C;CC C;CC C;C C;C C;C C;C C; C; C; C; C; C; C; C; ;                                                  2 2 CC2 CC2 C>C2 C>C2 C>C2 C>CC2 C>CC2 C>CC2 C>CC2 C>CC2 C>CC2 C>CC2 C>CC2 C>CC2 C>CC2 C>CC2 C>;CC2 C>;CC2 C>;2CC2 C>;2CC2 C>;2CC2 C>;2CC2 C>;2CC2 C>;2CC2 C>;2CC2 C>;2CC2 C>;2CC2 C>;2CC2 C>;2CC2 C>;2CC2 C>;2CC2 C>;2CC2 C>;2CC2 C>;2CC2 C>;2CC2 C>;2CC2 C>;2CC2 C>;2CC2 C>;2CC2 C>;2CC2 C>;2CC2 C>;2CC2 C>;2CC2 C>;2CC2 C>;2CC2 C>;2CC2 C>;2CC2 C>;2CC2 C>;2CC2 C>;2CC2 C>;2CC2 C>;2CC2 C>;2CC2 C>;2CC2 C>;2CC2 C>;2CC2 C>;2CC2 C>;2CC2 C>;2CC2 C>;2CC2 C>;2CC2 C>;2CC2 C>;2CC2 C>;2CC2 C>;2CC2 C>;2CC2 C>;2CC2 C>;2CC2 C>;2CC2 C>;2CC2 C>;2CC2 C>;2CC2 C>;2CC2 C>;2CC2 C>;2CC2 C>;2CC2 C>;2CC2 C>;2CC2 C>;2CC2 C>;2CC2 C>;2CC2 C>;2CC2 C>;2CC2 C>;2CC2 C>;2CC2 C>;2CC2 C>;2CC2 C>;2CC2 C>;2CC2 C>;2CC2 C>;2CC2 C>;2CC2 C>;2CC2 C>;2CC2 C>;2CC2 C>;2CC2 C>;2CC C>;2BC C>;2BC C>;2BC C>;2BC C>;2BC C>;2BC C>;2BC C>;2BCB C>;2BCB C>92BCB C>92BCB C>92BCB C>92BB C>92BB C>92BB C>92BB C>92BB C>92BB C>92BB C>92BB C>92BB CB>92BB CB>92BB CB>92BB CB>92BB CB>92BB CB>92BB CB>9BB B>9BB B>9BB B>9BB B>9BB B>9BB B>9BB B>9BB B>9BB B>9BB B>9BB B>9BB B>9BB B>9BB B>9BB B>9BB B>9BB B>9BB B>9BB B>9B B>9B B>9B B>9 B>9; B>9; B>9; B>9;C B>9;C B>9;C B>;CC B>;CC B>;CC B>;CC B>;CC B>;CC B>;CC B>;CC B>;CC B>;CC B>;CC B>;CC B>;CC B>;CC B>;CC B>;CC B>;CC B>;CC C>;CC C>;CC C>;CC C>;CC C>;CC C>;CC C>;CC C>;CC C>;CC C>;CC C>;CC C>;CC C>;CC C>;CC C>;CC C>;CC C>;CC C>;CC C>;CC C>;CC C>;CC C>;CC C>;CC C>;CC C>;9BCC C>;9BCC C>9BCC C>9BCC C>9BCC C>9BCC C>9BCC C>9BCC C>9BCC C>9BCC C>9BCC C>9BCC C>9BCC C>9BCCB C>9BCCB C>9BCCB C>9BCCB C>9BCCB C>9BCCB C>9BCCB C>9BCCB C>9BCCB C>9BCCB CB>9BCCB CB>9BCCB CB>9BCCB CB>9BCCB CB>9BCCB CB>9BCCB CB>9BCCB CB>9BCCB CB>9BCCB CB>9BCCB CB>9BCCB CB>9BCCB CB>9BCCB CB>9BCCB CB>9BCCB CB>9BCB CB>9BCB CB>;BCB CB>;BCB CB>;BCB CB>;BCB CB>;BCB CB>;BCB CB>;BCB CB>;BCB CB>;BCB CB>;BCB CB>;BCB& CB>;BCB& CB>;CB& CB>;CB& B>;CB& B>;CB& B>;CB& B>;&CB& B>;&CB& B>;&CB& B>;&CB& B>;&CB& B>;&CB& B>;&CB& B>;&CB& B>;&CB& B>;&CB& B>;&CB& B>;&CB& B>;&CB& B>;&CB& B>;9&CB& B>;9&CB& B>;9&CBB& B>;9&CBB& B>;9&CBB& B>;9&CBB& B>;9&CBB& B>;9&CBB& B>;9&CBB& B>;9&CBB& B>;9&CBB& B>;9&CBB& B>;9&CBB& B>;9&CBB& B>;9&CBB& B>;9&CBB& B>;9&CBB& B>;9&CBB& B>;9&CBB& B>;9&CBB& B>9&CBB& B>9&BB& B>9&BB& B>9&BB& B>9&BB& B>9&BB& B>9&BB& B>9&BB& B>9&BB& B>9&BB& B>9&BB& B>9&BB& B>9&BB& B>9&BB& B>9&BB& B>9&BB& B>9&BB& B>9&BB& B>9&BB& B>9&BB& B>9&BB& B>9&BB& B>9&BB& B>9&BB& B>9&BB& B>9&BB& B>9&BB& B>9&BB& B>9&BB& B>9&BB& B>9&BB& B>9&BB& B>9&BB& B>9&BB& B>9&BB& B>9&BB& B>9&BB& B>9&BB& B>9&BB& B>9&BB& B>9&BB& B>9&BB& B>9&BB& B>9&BB& B>9&BB B>9&BB B>9&BB B>9&BB B>9&BB B>9&BB B>9&BB B>9&BB B>9&BB B>9&BB B>9&BB B>9BB B>9BB B>9BB B>9BB B>9BB B>9BB B>9BB B>9BB B>9BB B>9BB B>9BB B>9BBC B>9BBC B>9BBC B>9BBC B>9BC B>9BC B>9BC B>9BC B>9BC B9BC B9BC B9BC BC9BC BC9BC BC9BC BC9BC BC9BC BC9BC C9BC C9BC C9BC C9BC C9BC C9BC C9BC C9BC C9BCC C9BCC C9BCC C9BCC C9BCC C9BCC C9BCC C9BCC C9BCC C9BCC C9CC C9CC C9CC C9CC C9CC C9CC C9CC C9CC C9CC C9CC C9CC C9CC C9CC C9CC C9CC C9CC C9CC C9CC C9CC C9CC C9CC C9CC C9CC C9CC C9CC C9CC C9C C9C C9C C9C C9C C9C C9C C9C C9C C9C C9C C9C C9C C9C C9C C9C C9C C9C 9C 9C 9 9 9 9 9 9 9 9 9 9 9 9 9 9 9                                         + + + + + + + + + + + >+ >+ >+ >+ >+ >;+C >;+C >;+CC >;+CC >;+CC >;+CC >;+CC C>;+CC C>;+CC C>;+CC+ C>;+CC+ C>;+CC+ C>;+CC+ C>;+CC+ C>;+CC+ C>;+CC+ C>;+CC+ C>;+CC+ C>;+CC+ C>;+CC+ C>;+CC+ C>;+CC+ C>;+CC+ C>;+CC+ C>;+CC+ C>;+CC+ C>;+CC+ C>;+CC+ C>;+CC+ C>;+CC+ C>;+CC+ C>;+CC+ C>;+CC+ C>;+CC+ C>;+CC+ C>;+CC+ C>;+CC+ C>;+CC+ C>;+CC+ C>;+CC+ C>;+CC+ C>;+CC+ C>;+CC+ C>;+CC+ C>;+CC+ C>;+CC+ C>;+CC+ C>;+CC+ C>;+CC+ C>;+CC+ C>;+CC+ C>;+CC+ C>;+CC+ C>;+CC+ C>;+CC+ C>;+CC+ C>;+CC+ C>;+CC+ C>;+CC+ C>;+CC+ C>;+CC+ C>;+CC+ C>;+CC+ C>;+CC+ C>;+CC+ C>;+CC+ C>;+CC+ C>;+CC+ C>;+CC+ C>;+CC+ C>;+CC+ C>;+CC+ C>;+CC+ C>;+CC+ C>;+CC+ C>;+CC+ C>;+CC+ C>;+CC+ C>;+CC+ C>;+CC+ C>;+CC+ C>;+CC+ C>;+CC+ C>;+CC+ C>;+CC+ C>;+CC+ C>;+CC+ C>;+CC+ C>;+CC+ C>;+CC+ C>;+CC+ C>;+CC+ C>;+CC+ C>;+CC+ C>;+CC+ C>;+CC+ C>;+CC+ C>;+CC+ C>;+CC+ C>;+CC+ C>;+CC+ C>;+CC+ C>;+CC+ C>;+CC+ C>;+CC+ C>;+CC+ C>;+CC+ C>;+CC+ C>;+CC+ C>;+CC+ C>;+CC+ C>;+CC+ C>;+CC+ C>;+CC+ C>;+CC+ C>;+CC+ C>;+CC+ C>;+CC+ C>;+CC+ C>;+CC+ C>;+CC+ C>;+CC+ C>;+CC+ C>;+CC+ C>;+CC+ C>;+CC+ C>;+CC+ C>;+CC+ C>;+CC+ C>;+CC+ C>;+CC+ C>;+CC+ C>;+CC+ C>;+CC+ C>;+CC+ C>;+CC+ C>;+CC+ C>;+CC+ C>;+CC+ C>;+CC+ C>;+CC+ C>;+CC+ C>;+CC+ C>;+CC+ C>;+CC+ C>;+CC+ C>;+CC+ C>;+CC+ C>;+CC+ C>;+CC+ C>;+CC+ C>;+CC+ C>;+CC+ C>;+CC+ C>;+CC+ C>;+CC+ C>;+CC+ C>;+CC+ C>;+CC+ C>;+CC+ C>;+CC+ C>;+CC+ C>;+CC+ C>;+CC+ C>;+CC+ C>;+CC+ C>;+CC+ C>;+CC+ C>;+CC+ C>;+CC+ C>;+CC+ C>;+CC+ C>;+CC+ C>;+CC+ C>;+CC+ C>;+CC+ C>;+CC+ C>;+CC+ C>;+CC+ C>;+CC+ C>;+CC+ C>;+CC+ C>;+CC+ C>;+CC+ C>;+CC+ C>;+CC+ C>;+CC+ C>;+CC+ C>;+CC+ C>;+CC+ C>;+CC+ C>;+CC+ C>;+CC+ C>;+CC+ C>;+CC+ C>;+CC+ C>;+CC+ C>;+CC+ C>;+CC+ C>;+CC+ C>;+CC+ C>;+CC+ C>;+CC+ C>;+CC+ C>;+CC+ C>;+CC+ C>;+CC+ C>;+CC+ C>;+CC+ C>;+CC+ C>;+CC+ C>;+CC+ C>;+CC+ C>;+CC+ C>;+CC+ C>;+CC+ C>;+CC+ C>;+CC+ C>;+CC+ C>;+CC+ C>;+CC+ C>;+CC+ C>;+CC+ C>;+CC+ C>;+CC+ C>;+CC+ C>;+CC+ C>;+CC+ C>;+CC+ C>;+CC+ C>;+CC+ C>;+CC+ C>;+CC+ C>;+CC+ C>;+CC+ C>;+CC+ C>;+CC+ C>;+CC+ C>;+CC+ C>;+CC+ C>;+CC+ C>;+CC+ C>;+CC+ C>;+CC+ C>;+CC+ C>;+CC+ C>;+CC+ C>;+CC+ C>;+CC+ C>;+CC+ C>;+CC+ C>;+CC+ C>;+CC+ C>;+CC+ C>;+CC+ C>;+CC+ C>;+CC+ C>;+CC+ C>;+CC+ C>;+CC+ C>;+CC+ C>;+CC+ C>;+CC+ C>;+CC+ C>;+CC+ C>;+CC+ C>;+CC+ C>;+CC+ C>;+CC+ C>;+CC+ C>;+CC+ C>;+CC+ C>;+CC+ C>;+CC+ C>;+CC+ C>;+CC+ C>;+CC+ C>;+CC+ C>;+CC+ C>;+CC+ C>;+CC+ C>;+CC+ C>;+CC+ C>;+CC+ C>;+CC+ C>;+CC+ C>;+CC+ C>;+CC+ C>;+CC+ C>;+CC+ C>;+CC+ C>;+CC+ C>;+CC+ C>;+CC+ C>;+CC+ C>;+CC+ C>;+CC+ C>;+CC+ C>;+CC+ C>;+CC+ C>;+CC+ C>;+CC+ C>;+CC+ C>;+CC+ C>;+CC+ C>;+CC+ C>;+CC+ C>;+CC+ C>;+CC+ C>;+CC+ C>;+CC+ C>;+CC+ C>;+CC+ C>;+CC+ C>;+CC+ C>;+CC+ C>;+CC+ C>;+CC+ C>;+CC+ C>;+CC+ C>;+CC+ C>;+CC+ C>;+CC+ C>;+CC+ C>;+CC+ C>;+CC+ C>;+CC+ C>;+CC+ C>;+CC+ C>;+CC+ C>;+CC+ C>;+CC+ C>;+CC+ C>;+CC+ C>;+CC+ C>;+CC+ C>;+CC+ C>;+CC+ C>;+CC+ C>;+CC+ C>;+CC+ C>;+CC+ C>;+CC+ C>;+CC+ C>;+CC+ C>;+CC+ C>;+CC+ C>;+CC+ C>;+CC+ C>;+CC+ C>;+CC+ C>;+CC+ C>;+CC+ C>;+CC+ C>;+CC+ C>;+CC+ C>;+CC+ C>;+CC+ C>;+CC+ C>;+CC+ C>;+CC+ C>;+CC+ C>;+CC+ C>;+CC+ C>;+CC+ C>;+CC+ C>;+CC+ C>;+CC+ C>;+CC+ C>;+CC+ C>;+CC+ C>;+CC+ C>;+CC+ C>;+CC+ C>;+CC+ C>;+CC+ C>;+CC+ C>;+CC+ C>;+CC+ C>;+CC+ C>;+CC+ C>;+CC+ C>;+CC+ C>;+CC+ C>;+CC+ C>;+CC+ C>;+CC+ C>;+CC+ C>;+CC+ C>;+CC+ C>;+CC+ C>;+CC+ C>;+CC+ C>;+CC+ C>;+CC+ C>;+CC+ C>;+CC+ C>;+CC+ C>;+CC+ C>;+CC+ C>;+CC+ C>;+CC+ C>;+CC+ C>;+CC+ C>;+CC+ C>;+CC+ C>;+CC+ C>;+CC+ C>;+CC+ C>;+CC+ C>;+CC+ C>;+CC+ C>;+CC+ C>;+CC+ C>;+CC+ C>;+CC+ C>;+CC+ C>;+CC+ C>;+CC+ C>;+CC+ C>;+CC+ C>;+CC+ C>;+CC+ C>;+CC+ C>;+CC+ C>;+CC+ C>;+CC+ C>;+CC+ C>;+CC+ C>;+CC+ C>;+CC+ C>;+CC+ C>;+CC+ C>;+CC+ C>;+CC+ C>;+CC+ C>;+CC+ C>;+CC+ C>;+CC+ C>;+CC+ C>;+CC+ C>;+CC+ C>;+CC+ C>;+CC+ C>;+CC+ C>;+CC+ C>;+CC+ C>;+CC+ C>;+CC+ C>;+CC+ C>;+CC+ C>;+CC+ C>;+CC+ C>;+CC+ C>;+CC+ C>;+CC+ C>;+CC+ C>;+CC+ C>;+CC+ C>;+CC+ C>;+CC+ C>;+CC+ C>;+CC+ C>;+CC+ C>;+CC+ C>;+CC+ C>;+CC+ C>;+CC+ C>;+CC+ C>;+CC+ C>;+CC+ C>;+CC+ C>;+CC+ C>;+CC+ C>;+CC+ C>;+CC+ C>;+CC+ C>;+CC+ C>;+CC+ C>;+CC+ C>;+CC+ C>;+CC+ C>;+CC+ C>;+CC+ C>;+CC+ C>;+CC+ C>;+CC+ C>;+CC+ C>;+CC+ C>;+CC+ C>;+CC+ C>;+CC+ C>;+CC+ C>;+CC+ C>;+CC+ C>;+CC+ C>;+CC+ C>;+CC+ C>;+CC+ C>;+CC+ C>;+CC+ C>;+CC+ C>;+CC+ C>;+CC+ C>;+CC+ C>;+CC+ C>;+CC+ C>;+CC+ C>;+CC+ C>;+CC+ C>;+CC+ C>;+CC+ C>;+CC+ C>;+CC+ C>;+CC+ C>;+CC+ C>;+CC+ C>;+CC+ C>;+CC+ C>;+CC+ C>;+CC+ C>;+CC+ C>;+CC+ C>;+CC+ C>;+CC+ C>;+CC+ C>;+CC+ C>;+CC+ C>;+CC+ C>;+CC+ C>;+CC+ C>;+CC+ C>;+CC+ C>;+CC+ C>;+CC+ C>;+CC+ C>;+CC+ C>;+CC+ C>;+CC+ C>;+CC+ C>;+CC+ C>;+CC+ C>;+CC+ C>;+CC+ C>;+CC+ C>;+CC+ C>;+CC+ C>;+CC+ C>;+CC+ C>;+CC+ C>;+CC+ C>;+CC+ C>;+CC+ C>;+CC+ C>;+CC+ C>;+CC+ C>;+CC+ C>;+CC+ C>;+CC+ C>;+CC+ C>;+CC+ C>;+CC+ C>;+CC+ C>;+CC+ C>;+CC+ C>;+CC+ C>;+CC+ C>;+CC+ C>;+CC+ C>;+CC+ C>;+CC+ C>;+CC+ C>;+CC+ C>;+CC+ C>;+CC+ C>;+CC+ C>;+CC+ C>;+CC+ C>;+CC+ C>;+CC+ C>;+CC+ C>;+CC+ C>;+CC+ C>;+CC+ C>;+CC+ C>;+CC+ C>;+CC+ C>;+CC+ C>;+CC+ C>;+CC+ C>;+CC+ C>;+CC+ C>;+CC+ C>;+CC+ C>;+CC+ C>;+CC+ C>;+CC+ C>;+CC+ C>;+CC+ C>;+CC+ C>;+CC+ C>;+CC+ C>;+CC+ C>;+CC+ C>;+CC+ C>;+CC+ C>;+CC+ C>;+CC+ C>;+CC+ C>;+CC+ C>;+CC+ C>;+CC+ C>;+CC+ C>;+CC+ C>;+CC+ C>;+CC+ C>;+CC+ C>;+CC+ C>;+CC+ C>;+CC+ C>;+CC+ C>;+CC+ C>;+CC+ C>;+CC+ C>;+CC+ C>;+CC+ C>;+CC+ C>;+CC+ C>;+CC+ C>;+CC+ C>;+CC+ C>;+CC+ C>;+CC+ C>;+CC+ C>;+CC+ C>;+CC+ C>;+CC+ C>;+CC+ C>;+CC+ C>;+CC+ C>;+CC+ C>;+CC+ C>;+CC+ C>;+CC+ C>;+CC+ C>;+CC+ C>;+CC+ C>;+CC+ C>;+CC+ C>;+CC+ C>;+CC+ C>;+CC+ C>;+CC+ C>;+CC+ C>;+CC+ C>;+CC+ C>;+CC+ C>;+CC+ C>;+CC+ C>;+CC+ C>;+CC+ C>;+CC+ C>;+CC+ C>;+CC+ C>;+CC+ C>;+CC+ C>;+CC+ C>;+CC+ C>;+CC+ C>;+CC+ C>;+CC+ C>;+CC+ C>;+CC+ C>;+CC+ C>;+CC+ C>;+CC+ C>;+CC+ C>;+CC+ C>;+CC+ C>;+CC+ C>;+CC+ C>;+CC+ C>;+CC+ C>;+CC+ C>;+CC+ C>;+CC+ C>;+CC+ C>;+CC+ C>;+CC+ C>;+CC+ C>;+CC+ C>;+CC+ C>;+CC+ C>;+CC+ C>;+CC+ C>;+CC+ C>;+CC+ C>;+CC+ C>;+CC+ C>;+CC+ C>;+CC+ C>;+CC+ C>;+CC+ C>;+CC+ C>;+CC+ C>;+CC+ C>;+CC+ C>;+CC+ C>;+CC+ C>;+CC+ C>;+CC+ C>;+CC+ C>;+CC+ C>;+CC+ C>;+CC+ C>;+CC+ C>;+CC+ C>;+CC+ C>;+CC+ C>;+CC+ C>;+CC+ C>;+CC+ C>;+CC+ C>;+CC+ C>;+CC+ C>;+CC+ C>;+CC+ C>;+CC+ C>;+CC+ C>;+CC+ C>;+CC+ C>;+CC+ C>;+CC+ C>;+CC+ C>;+CC+ C>;+CC+ C>;+CC+ C>;+CC+ C>;+CC+ C>;+CC+ C>;+CC+ C>;+CC+ C>;+CC+ C>;+CC+ C>;+CC+ C>;+CC+ C>;+CC+ C>;+CC+ C>;+CC+ C>;+CC+ C>;+CC+ C>;+CC+ C>;+CC+ C>;+CC+ C>;+CC+ C>;+CC+ C>;+CC+ C>;+CC+ C>;+CC+ C>;+CC+ C>;+CC+ C>;+CC+ C>;+CC+ C>;+CC+ C>;+CC+ C>;+CC+ C>;+CC+ C>;+CC+ C>;+CC+ C>;+CC+ C>;+CC+ C>;+CC+ C>;+CC+ C>;+CC+ C>;+CC+ C>;+CC+ C>;+CC+ C>;+CC+ C>;+CC+ C>;+CC+ C>;+CC+ C>;+CC+ C>;+CC+ C>;+CC+ C>;+CC+ C>;+CC+ C>;+CC+ C>;+CC+ C>;+CC+ C>;+CC+ C>;+CC+ C>;+CC+ C>;+CC+ C>;+CC+ C>;+CC+ C>;+CC+ C>;+CC+ C>;+CC+ C>;+CC+ C>;+CC+ C>;+CC+ C>;+CC+ C>;+CC+ C>;+CC+ C>;+CC+ C>;+CC+ C>;+CC+ C>;+CC+ C>;+CC+ C>;+CC+ C>;+CC+ C>;+CC+ C>;+CC+ C>;+CC+ C>;+CC+ C>;+CC+ C>;+CC+ C>;+CC+ C>;+CC+ C>;+CC+ C>;+CC+ C>;+CC+ C>;+CC+ C>;+CC+ C>;+CC+ C>;+CC+ C>;+CC+ C>;+CC+ C>;+CC+ C>;+CC+ C>;+CC+ C>;+CC+ C>;+CC+ C>;+CC+ C>;+CC+ C>;+CC+ C>;+CC+ C>;+CC+ C>;+CC+ C>;+CC+ C>;+CC+ C>;+CC+ C>;+CC+ C>;+CC+ C>;+CC+ C>;+CC+ C>;+CC+ C>;+CC+ C>;+CC+ C>;+CC+ C>;+CC+ C>;+CC+ C>;+CC+ C>;+CC+ C>;+CC+ C>;+CC+ C>;+CC+ C>;+CC+ C>;+CC+ C>;+CC+ C>;+CC+ C>;+CC+ C>;+CC+ C>;+CC+ C>;+CC+ C>;+CC+ C>;+CC+ C>;+CC+ C>;+CC+ C>;+CC+ C>;+CC+ C>;+CC+ C>;+CC+ C>;+CC+ C>;+CC+ C>;+CC+ C>;+CC+ C>;+CC+ C>;+CC+ C>;+CC+ C>;+CC+ C>;+CC+ C>;+CC+ C>;+CC+ C>;+CC+ C>;+CC+ C>;+CC+ C>;+CC+ C>;+CC+ C>;+CC+ C>;+CC+ C>;+CC+ C>;+CC+ C>;+CC+ C>;+CC+ C>;+CC+ C>;+CC+ C>;+CC+ C>;+CC+ C>;+CC+ C>;+CC+ C>;+CC+ C>;+CC+ C>;+CC+ C>;+CC+ C>;+CC+ C>;+CC+ C>;+CC+ C>;+CC+ C>;+CC+ C>;+CC+ C>;+CC+ C>;+CC+ C>;+CC+ C>;+CC+ C>;+CC+ C>;+CC+ C>;+CC+ C>;+CC+ C>;+CC+ C>;+CC+ C>;+CC+ C>;+CC+ C>;+CC+ C>;+CC+ C>;+CC+ C>;+CC+ C>;+CC+ C>;+CC+ C>;+CC+ C>;+CC+ C>;+CC+ C>;+CC+ C>;+CC+ C>;+CC+ C>;+CC+ C>;+CC+ C>;+CC+ C>;+CC+ C>;+CC+ C>;+CC+ C>;+CC+ C>;+CC+ C>;+CC+ C>;+CC+ C>;+CC+ C>;+CC+ C>;+CC+ C>;+CC+ C>;+CC+ C>;+CC+ C>;+CC+ C>;+CC+ C>;+CC+ C>;+CC+ C>;+CC+ C>;+CC+ C>;+CC+ C>;+CC+ C>;+CC+ C>;CC+ C>;CC+ C>;CC+ C>;CC+ C>;CC+ C>;CC+ C>;CC+ C>;CC+ C>;CC+ C>;CC+ C>;CC+ C>;CC+ C>;CC+ C>;CC+ C>;CC+ C>;CC+ C>;CC+ C>;CC+ C>;CC+ C>;CC+ C>;CC+ C>;CC+ C>;CC+ C>;CC+ C>;CC+ C>;CC+ C>;CC+ C>;CC+ C>;CC+ C>;CC+ C>;CC+ C>;CC+ C>;CC+ C>;CC+ C>;CC+ C>;CC+ C>;CC+ C>;CC+ C>;+ C>;+ C>;+ >;+ ;+ + + + + + + + + + + + + + + + + + + + + + + + + + + + + + + + + + + + + + + + + + + + + + + + +                                                                                                                                                                                                                                         7 7 7 7 7 7 7 C7J C7J C7J C7J C7JJ C7JJ C7JJ C7JJ7 C7JJ7 C7JJ7 C7JJ7 C7JJ7 C7JJ7 C7JJ7 C7JJ7 C7JJ7 C7JJ7 C7JJ7 C7JJ7 C7JJ7 C7JJ7 C7JJ7 C7JJ7 C7JJ7 JC7JJ7 JC7JJ7 JC7JJ7 JGC7JJ7 JGC7JJ7 JGC7JJ7 JGC7JJ7 JGC7JJ7 JGC7JJ7 JGC7JJ7 JGC7JJ7 JGC7JJ7 JGC7JJ7 JGC7JJ7 JGC7JJ7 JGC7JJ7 JGC7JJ7 JGC7JJ7 JGC7JJ7 JGC7JJ7 JGC7JJ7 JGC7JJ7 JGC7JJ7 JGC7JJ7 JGC7JJ7 JGC7JJ7 JGC7JJ7 JGC7JJ7 JGC7JJ7 JG7JJ7 JG7JJ7 JGJJ7 JGJJ7 JGJJ7 JGJ7 JGJ7 JG7 JG7 JG7 JG7 JG7 JG7 JG7 JG7 JG7 JG7 JG7 JG JG J J                                                       C C C CJ CJ CJ CJ CJ CJ7 CJ7 CJJ7 CJJ7 CJJ7 JCJJ7 JCJJ7 JCJJ7 JCJJ7 JC7JJ7 JC7JJ7 JC7JJ7 JC7JJ7 JGC7JJ7 JGC7JJ7 JGC7JJ7 JGC7JJ7 JGC7JJ7 JGC7JJ7 JGC7JJ7 JGC7JJ7 JGC7JJ7 JGC7JJ7 JGC7JJ7 JGC7JJ7 JGC7JJ7 JGC7JJ7 JGC7JJ7 JGC7JJ7 JGC7JJ7 JGC7JJ7 JGC7JJ7 JGC7JJ7 JGC7JJ7 JGC7JJ7 JGC7JJ7 JGC7JJ7 JGC7JJ7 JGC7JJ7 JGC7JJ7 JGC7JJ7 JGC7JJ7 JGC7JJ7 JGC7JJ7 JGC7JJ7 JGC7JJ7 JGC7JJ7 JGC7JJ7 JGC7JJ7 JGC7JJ7 JGC7JJ7 JGC7JJ7 JGC7JJ7 JGC7JJ7 JGC7JJ7 JGC7JJ7 JGC7JJ7 JGC7JJ7 JGC7JJ7 JGC7JJ7 JGC7JJ7 JGC7JJ7 JGC7JJ7 JGC7JJ7 JGC7JJ7 JGC7JJ7 JGC7JJ7 JGC7JJ7 JGC7JJ7 JGC7JJ7 JGC7JJ7 JGC7JJ7 JGC7JJ7 JGC7JJ7 JGC7JJ7 JGC7JJ7 JGC7JJ7 JGC7JJ7 JGC7JJ7 JGC7JJ7 JGC7JJ7 JGC7JJ7 JGC7JJ7 JGC7JJ7 JGC7JJ7 JGC7JJ7 JGC7JJ7 JGC7JJ7 JGC7JJ7 JGC7JJ7 JGC7JJ7 JGC7JJ7 JGC7JJ7 JGC7JJ7 JGC7JJ7 JGC7JJ7 JGC7JJ7 JGC7JJ7 JGC7JJ7 JGC7JJ7 JGC7JJ7 JGC7JJ7 JGC7JJ7 JGC7JJ7 JGC7JJ7 JGC7JJ7 JGC7JJ7 JGC7JJ7 JGC7JJ7 JGC7JHJ7 JGC7JHJ7 JGC7JHJ7 JGC7JHJ7 JGC7HJ7 JGC7HJH7 JGC7HJH7 JGC7HJH7 JGC7HJH7 JGC7HJH7 JGC7HJH7 JGC7HJH7 JGC7HJH7 JGC7HJH7 JHGC7HJH7 JHGC7HJH7 JHGC7HJH7 JHGC7HJH7 JHGC7HJH7 JHGC7HJH7 JHGEC7HJH7 JHGEC7HJH7 JHGEC7HJH7 JHGEC7HJH7 JHGEC7HJH7 JHGEC7HH7 JHGEC7HH7 JHGEC7HH7 JHGEC7HH7 JHGEC7HH7 JHGEC7HH7 JHGEC7HH7 JHGEC7HH7 JHGEC7HH7 JHGEC7HH7 JHEC7HH7 JHEC7HH7 JHEC7HH7 JHEC7HH7 HEC7HH7 HEC7HH7 HEC7HH7 HEC7HH7 HEC7HH7 HEC7HH7 HEC7HH7 HEC7HH7 HEC7HH7 HEC7HH7 HEC7HH7 HEC7HH7 HEC7HH7 HEC7HH7 HEC7HH7 HEC7HH7 HEC7HH7 HEC7HH7 HEC7HH7 HEC7HH7 HEC7HH7 HEC7HH7 HEC7HH7 HEC7HH7 HEC7HH7 HEC7HH7 HEC7HH7 HEC7HH7 HEC7HH7 HEC7HH7 HEC7HH7 HEC7HH7 HECHH7 HECHH7 HECHH7 HECHH7 HECHH7 HECHH7 HECHH7 HECHH7 HECHH7 HECHH7 HECHH7 HECHH7 HECHH7 HECHH7 HECHH7 HECHH7 HECHH7 HECHH7 HECHH7 HECHH7 HECHH7 HECHH7 HECHH7 HECHH7 HECHH7 HECHH7 HECHH7 HECHH7 HECHH7 HECHH7 HECHH7 HECHH7 HECHH7 HECHH7 HECHH7 HECHH7 HECHH7 HECHH7 HECHH7 HECHH HECHH HECHH HECHH HECHH HECHH HECHH HECHH HECHH HECHH HECHH HECHH HECH HECH HECH HECH HEC5 HEC5 HEC5 HEC5 HEC5 HEC5J HEGC5JJ HEGC5JJ5 HGC5JJ5 HGC5JJ5 HGC5JJ5 HGC5JJ5 HGC5JJ5 HGC5JJ5 HGC5JJ5 HJGC5JJ5 HJGC5JJ5 HJGC5JJ5 HJGC5JJ5 HJGC5JJ5 JGC5JJ5 JGC5JJ5 JGC5JJ5 JGC5JJ5 JGC5JJ5 JGC5JJ5 JGC5JJ5 JGC5JJ5 JGC5JJ5 JGC5JJ5 JGC5JJ5 JGC5JJ5 JGC5JJ5 JGC5JJ5 JGC5JJ5 JGC5JJ5 JGC5JJ5 JGC5JJ5 JGC5JJ5 JGC5JJ5 JGC5JJ5 JGC5JJ5 JGC5JJ5 JGC5JJ5 JGC5JJ5 JGC5JJ5 JGC5JJ5 JGC5JJ5 JGC5JJ5 JGC5JJ5 JGC5JJ5 JGC5JJ5 JGC5JJ5 JGC5JJ5 JGC5JJ5 JGC5JJ5 JGC5JJ5 JGC5JJ5 JGC5JJ5 JGC5JJ5 JGC5JJ5 JGC5JJ5 JGC5JJ5 JGC5JJ5 JGC5JJ5 JGC5JJ5 JGC5JJ5 JGC5JJ5 JGC5JJ5 JGC5JJ5 JGC5JJ5 JGC5JJ5 JGC5JJ5 JGCJJ5 JGCJJ5 JGCJJ5 JGCJJ5 JGCJJ5 JGCJJ5 JGCJJ5 JGCJJ JGCJJ JGCJJ JGCJJ JGCJJ JGCJJ JGCJJ JGCJJ JGCJJ JGCJJ JGCJJ JGCJJ JGCJJ JGC4JJ JGC4JJ JGC4JJ JGC4JJ JGC4JJ JGC4JJ JGC4JJ JGC4JJ4 JGC4JJ4 JGC4JJ4 JGC4JJ4 JGC4JJ4 JGC4JJ4 JGC4JJ4 JGC4JJ4 JGC4JJ4 JGC4JJ4 JGC4JJ4 JGC4JJ4 JGC4JJ4 JGC4JLJ4 JGC4JLJ4 JGC4JLJ4 JGC4JLJ4 JGC4JLJ4 JGC4JLJL4 JGIC4JLJL4 JGIC4JLJL4 JGIC4JLJL4 JGIC4JLJL4 JGIC4JLJL4 JLGIC4LJL4 JLGIC4LJL4 JLGIC4LJL4 JLGIC4LL4 JLIC4LL4 JLIC4LL4 LIC4LL4 LIC4LL4 LIC4LL4 LIC4LL4 LIC4LL4 LIC4LL4 LIC4LL4 LIC4LL4 LIC4LL4 LIC4LL4 LIC4LL4 LI4LL4 LI4LL4 LI4LL4 LI4LL4 LI4LL4 LI4LL4 LI4LL4 LI4LL4 LI4LL4 LI4LL4 LI4LL4 LI4LL4 LI4LL4 LI4LL4 LI4LL4 LI4LL4 LI4LL4 LI4LL4 LI4LL4 LI4LL4 LI4LL4 LI4LL4 LI4LL4 LI4LL4 LI4LL4 LI4LL4 LI4LL4 LILL4 LILL4 LILL4 LILL4 LILL4 LILL4 LILL4 LILL4 LILL4 LILL4 LILL4 LILL4 LILL4 LILL4 LILL4 LILL4 LILL4 LILL4 LILL4 LILL4 LILL4 LILL4 LILL4 LILL4 LILL4 LILL4 LILL4 LILL4 LILL4 LILL LILL LILL LILL LILL LILL LILL LILL LILL LILL LILL LILL LILL LILL LILL LILL LIL LIL LIL LIL LIL LIL LIL LIL LIL LIL LIL LIL LIL LIL LIL IL IL IL IL IL IL IL IL IL2 22 22 22 22 M22 M22 MJ2M2 MJ2M2 MJ2M2 MJ2M2 MJE2M2 MJE2M2 MJE2M2 MJE2M2 MJE2M2 MJE2M2 MJE2M2 MJE2M2 MJE2MM2 MJE2MM2 MJE2MM2 MJE2MM2 MJE2MM2 MJE2MM2 MJE2MM2 MJE2MM2 MJE2MM2 MJE2MM2 MJE2MM2 MJE2MM2 MJE2MM2 MJE2MM2 MJE2MM2 MJE2MM2 MJE2MM2 MJE2MM2 MJE2MM2 MJE2MM2 MJE2MM2 MJE2MM2 MJE2MM2 MJE2MM2 MJE2MM2 MJE2MM2 MJE2MM2 MJE2MM2 MJE2MM2 MJE2MM2 MJE2MM2 MJE2MM2 MJE2MM2 MJE2MM2 MJE2MM2 MJE2MM2 MJE2MM2 MJE2MM2 MJE2MM2 MJE2MM2 MJE2MM2 MJE2MM2 MJE2MM2 MJE2MM2 MJE2MM2 MJE2MM2 MJE2MM2 MJE2MM2 MJE2MM2 MJE2MM2 MJE2MM2 MJE2MM2 MJE2MM2 MJE2MM2 MJE2MM2 MJE2MM2 MJE2MM2 MJE2MM2 MJE2MM2 MJE2MM2 MJE2MM2 MJE2MM2 MJE2MM2 MJE2MM2 MJE2MM2 MJE2MM2 MJE2MM2 MJE2MM2 MJE2MM2 MJE2MM2 MJE2MM2 MJE2MM2 MJE2MM2 MJE2MM2 MJE2MM2 MJE2MM2 MJE2MM2 MJE2MM2 MJE2MM2 MJE2MM2 MJE2MM2 MJE2MM2 MJE2MM2 MJE2MM2 MJE2MM2 MJE2MM2 MJE2MM2 MJE2MM2 MJE2MM2 MJE2MM2 MJE2MM2 MJE2MM2 MJE2MM2 MJE2MM2 MJE2MM2 MJE2MM2 MJE2MM2 MJE2MM2 MJE2MM2 MJE2MM2 MJE2MM2 MJE2MM2 MJE2MM2 MJE2MM2 MJE2MM2 MJE2MM2 MJE2MM2 MJE2MM2 MJE2MM2 MJE2MM2 MJE2MM2 MJE2MM2 MJE2MM2 MJE2MM2 MJE2MM2 MJE2MM2 MJE2MM2 MJE2MM2 MJE2MM2 MJE2MM2 MJE2MM2 MJE2MM2 MJE2MM2 MJE2MM2 MJE2MM2 MJE2MM2 MJE2MM2 MJE2MM2 MJE2MM2 MJE2MM2 MJE2MM2 MJE2MM2 MJE2MM2 MJE2MM2 MJE2MM2 MJE2MM2 MJE2MM2 MJE2MM2 MJE2MM2 MJE2MM2 MJE2MM2 MJE2MM2 MJE2MM2 MJE2MM2 MJE2MM2 MJE2MM2 MJE2MM2 MJE2MM2 MJE2MM2 MJE2MM2 MJE2MM2 MJE2MM2 MJE2MM2 MJE2MM2 MJE2MM2 MJE2MM2 MJE2MM2 MJE2MM2 MJE2MM2 MJE2MM2 MJE2MM2 MJE2MM2 MJE2MM2 MJE2MM2 MJE2MM2 MJE2MM2 MJE2MM2 MJE2MM2 ME2MM2 ME2MM2 ME2M2 ME2M2 ME2M2 ME2M2 ME2M2 ME2M2 ME2M2 ME2M2 ME2M2 ME2M2 ME2M2 E2M2 E2M2 E2M2 E2M2 E2M2 E2M2 E2M2 E2M2 E2M2 E2M2 E2M2 E2M2 E22 E22 E22 E22 E22 E22 E22 E22 E22 E22 E22 E22 E22 E22 22 22 22 22 22 22 22 22 22 22 22 22 22 22 22 22 22 22 22 22 22 22 22 22 22 22 22 22 22 22 22 22 22 22 22 22 22 22 22 22 22 22 22 22 22 22 22 22 22 22 22 22 22 22 22 22 22 22 22 22 22 22 22 22 22 22 22 22 22 22 22 22 22 22 22 22 22 22 22 22 22 22 22 22 22 22 22 22 22 22 22 22 22 22 22 22 22 22 22 22 22 22 22 22 22 22 22 22 22 22 22 22 22 22 22 22 22 22 22 22 22 22 22 22 22 O22 O22 O22 O22 O22 O22 O2O2 O2O2 O2O2 O2O2 O2O2 O2OO2 O2OO2 O2OO2 O2OO2 OF2OO2 OF2OO2 OF2OO2 OF2OO2 OF2OO2 OF2OO2 OF2OO2 OF2OO2 OF2OO2 OF2OO2 OF2OO2 OF2OO2 OF2OO2 OF2OO2 OF2OO2 OF2OO2 OF2OO2 OF2OO2 OF2OO2 OF2OO2 OF2OO2 OF2OO2 OF2OO2 OF2OO2 OF2OO2 OF2OO2 OF2OO2 OF2OO2 OF2OO2 OF2OO2 OF2OO2 OF2OO2 OF2OO2 OF2OO2 OF2OO2 OF2OO2 OF2OO2 OF2OO2 OF2OO2 OF2OO2 OF2OO2 OF2OO2 OF2OO2 OF2OO2 OF2OO2 OF2OO2 OF2OO2 OF2OO2 OF2OO2 OF2OO2 OF2OO2 OF2O2 OF2O2 F2O2 F2O2 2O2 2O2 2O2 22 22 22 22 22 22 22 22 22 22 22 22 22 22 22 22 22 22 22 22 22 22 22 22 22 22 22 22 22 22 22 22 22 22 22 22 22 22 22 22 22 22 22 22 22 22 22 22 22 22 22 22 22 22 22 22 22 M22 M22 M22 M22 M22 M2M2 M2M2 ME2M2 ME2M2 ME2M2 ME2M2 ME2M2 ME2MM2 MFE2MM2 MFE2MM2 MFE2MM2 MFE2MM2 MFE2MM2 MFE2MM2 MFE2MM2 MFE2MM2 MFE2MM2 MFE2MM2 MFE2MM2 MFE2MM2 MFE2MM2 MFE2MM2 MFE2MM2 MFE2MM2 MFE2MM2 MFE2MM2 MFEMM2 MFEMM2 MFEMM2 MFEMM2 MFEMM2 MFEMM MFEMM MFEMM MFEMM MFEMM MFEMM MFEMM MFEMM MFEMM MFEMM MLFEMM MLFEMM MLFEMM MLFEMM MLFEMM MLFEMM MLFEMM MLFEMLM MLFEMLM MLFEMLM LFEMLM LFEMLM LFELM LFELM LFELM LFELM LFELM LFELM LFECLM LFECLML LFECLML LFCLML LFCLML LFCLML LFCLML LFCLML LFCLML LFCLML LFCLML LFCLML LFCLML LFCLML LFCLL LFCLL LFCLL LFCLL LFCLL LFCLL LFCLL LFCLL LFCLL LFCLL LFCLL LFCLL LFCLL LFCLL LFCLL LFCLL LFCLL LMFCELL LMFCELL LMFCELL LMFCELL LMFCELL LMFCELL LMFCELL LMFCELL LMFCELL1 LMFCELL1 LMFCELL1 LMFCE1LL1 LMFCE1LL1 LMFCE1LL1 LMFCE1LL1 LMFCE1LLM1 MFCE1LMLM1 MFCE1LMLM1 MFE1LMLM1 MFE1LMLM1 MFE1LMLM1 MFE1LMLM1 MFE1LMLM1 MFE1LMLM1 MFE1LMLM1 MFE1MLM1 MFE1MLM1 MFE1MLM1 MFE1MLM1 MFE1MLM1 MFE1MLM1 MFE1MM1 MFE1MM1 MFE1MM1 MFE1MM1 MFE1MM1 MFE1MM1 MFE1MM1 MFE1MM1 MFE1MM1 MFE1MM1 MFE1MM1 MFE1MM1 MFE1MM1 MFE1MM1 MFE1MM1 MFE1MM1 MFE1MM1 MFE1MM1 MFE1MM1 MFE1MM1 MFE1MM1 MFE1MM1 MFE1MM1 MFE1MM1 MFE1MM1 MFE1MM1 MFE1MM1 MLFE1MM1 MLFE1MM1 MLFE1MM1 MLFE1MM1 MLFE1MM1 MLFE1MM1 MLFE1MM1 MLFE1MM1 MLFE1MM1 MLFEC1MM1 MLFEC1MM1 MLFEC1MLM1 MLFEC1MLM1 MLFEC1MLM1 MLFEC1MLM1 MLFEC1MLM1 MLFEC1MLM1 LFC1MLM1 LFC1MLML1 LFC1MLML1 LFC1MLML1 LFC1MLML1 LFC1MLML1 LFC1MLML1 LFC1MLML1 LFC1MLML1 LFC1MLML1 LFC1MLML1 LFC1MLML1 LFC1MLML1 LFC1MLML1 LFC1LL1 LFC1LL1 LFC1LL1 LFC1LL1 LFC1LL1 LFC1LL1 LFC1LL1 LFC1LL1 LFC1LL1 LFC1LL1 LFC1LL1 LFCLL1 LFCLL1 LFCLL1 LFCLL1 LFCLL1 LFCLL1 LCLL LCLL LCLL LCLL LCLL LCLL LCLL LCLL LCLL LCLL LCLL LCLL LCLL LCLL LCLL LCLL LCLL2 LCLL2 LCLL2 LCLL2 LCLL2 LCLL2 LCLL2 LC2LL2 LC2LL2 LC2LL2 LC2LL2 LC2LL2 LC2LL2 C2LL2 C2LL2 C2LL2 C2LL2 C2LL2 C2L2 C2L2 C2L2 C2L2 C22 C22 C22 C22 C22 C22 C22 C22 C22 C22 C22 C22 C22 C22 C22 C22 C22 C22 C22 C22 C22 C22 C22 C22 C22 C22 C22 C22 C22 C22 C22 C22 C22 C22 C22 C22 C22 C22 C22 C22 C22 C22 C22 C22 C22 22 22 22 22 22 22 22 22 22 22 22 22 22 22 22 22 22 22 22 22 22 22 22 22 22 22 22 22 22 22 22 22 22 22 22 22 22 22 22 22 22 22 22 22 22 22 2 2              4 44 44 44 44 J44 J44 J44 J44 J44 J44 J44 J44 J44 J44 J44 J44 J4J4 J4J4 J4J4 J4J4 J4J4 J4J4 J4J4 J4J4 J4J4 J4J4 J4JJ4 J4JJ4 J4JJ4 J4JJ4 J4JJ4 J4JJ4 J4JJ4 J4JJ4 J4JJ4 J4JJ4 J4JJ4 J4JJ4 J4JJ4 J4JJ4 J4JJ4 J4JJ4 J4JJ4 J4JJ4 J4JJ4 J4JJ4 J4JJ4 J4JJ4 J4JJ4 J4JJ4 J4JJ4 J4JJ4 J4JJ4 J4JJ4 J4JJ4 J4JJ4 J4JJ4 J4JJ4 J4JJ4 J4JJ4 J4JJ4 J4JJ4 J4JJ4 J4JJ4 J4JJ4 J4JJ4 J4JJ4 J4JJ4 J4JJ4 J4JJ4 J4JJ4 J4JJ4 J4JJ4 J4JJ4 J4JJ4 J4JJ4 J4JJ4 J4JJ4 J4JJ4 J4JJ4 J4JJ4 J4JJ4 J4JJ4 J4JJ4 J4JJ4 J4JJ4 J4JJ4 J4JJ4 4JJ4 JJ4 JJ4 JJ4 JJ JJ JJ JJ JJ JJ JJ JJ JJ JJ JJ JJ J J J J J J                         Q5 Q5 Q5 Q55 Q55 Q55 Q55 QJ55 QJ55 QJ55 QJ55 QEJ55 QEJ55 QEJ55 QEJ55 QEJ55 QEJ55 QEJ5Q5 QEJ5Q5 QEJ5Q5 QEJ5Q5 QEJ5Q5 QEJ5Q5 QEJ5Q5 QEJ5Q5 QEJ5QQ5 QEJ5QQ5 QEJ5QQ5 QEJ5QQ5 QEJ5QQ5 QEJ5QQ5 QEJ5QQ5 QEJ5QQ5 QEJ5QQ5 QEJ5QQ5 QEJ5QQ5 QEJ5QQ5 QEJ5QQ5 QEJ5QQ5 QEJ5QQ5 QEJ5QQ5 QEJ5QQ5 QEJ5QQ5 QEJ5QQ5 QEJ5QQ5 QEJ5QQ5 QEJ5QQ5 QEJ5QQ5 QEJ5QQ5 QEJ5QQ5 QEJ5QQ5 QEJ5QQ5 QEJ5QQ5 QEJ5QQ5 QEJ5QQ5 QEJ5QQ5 QEJ5QQ5 QEJ5QQ5 QEJ5QQ5 QEJ5QQ5 QEJ5QQ5 QEJ5QQ5 QEJ5QQ5 QEJ5QQ5 QEJ5QQ5 QEJ5QQ5 QEJ5QQ5 QEJ5QQ5 QEJ5QQ5 QEJ5QQ5 QEJ5QQ5 QEJ5QQ5 QEJ5QQ5 QEJ5QQ5 QEJ5QQ5 QEJ5QQ5 QEJ5QQ5 QEJ5QQ5 QEJ5QQ5 QEJ5QQ5 QEJ5QQ5 QEJ5QQ5 QEJ5QQ5 QEJ5QQ5 QEJ5QQ5 QEJ5QQ5 QEJ5QQ5 QEJ5QQ5 QEJ5QQ5 QEJ5QQ5 QEJ5QQ5 QEJ5QQ5 QEJ5QQ5 QEJ5QQ5 QEJ5QQ5 QEJ5QQ5 QEJ5QQ5 QEJ5QQ5 QEJ5QQ5 QEJ5QQ5 QEJ5QQ5 QEJ5QQ5 QEJ5QQ5 QEJ5QQ5 QEJ5QQ5 QEJ5QQ5 QEJ5QQ5 QEJ5QQ5 QEJ5QQ5 QEJ5QQ5 QEJ5QQ5 QEJ57QQ57 QEJ57QQ57 QEJ57QQ7 QEJ57QQ7 QEJ7QQ7 QEJ7QQ7 QEJ7QQ7 QEJ7QQ7 QEJ7QQ7 QEJ7QQ7 QEJ7QQ7 QEJ7QQ7 QEJ7QQ7 QEJ7QQ7 QEJ7QQ7 QEJ7QQ7 QEJ7QQ7 QEJ7QQ7 QEJ7QQ7 QEJ7QQ7 QEJ7QQ7 QEJ7QQ7 QEJ7QQ7 QEJ7QQ7 QEJ7QQ7 QEJ7QQ7 QEJ7QQ7 QEJ7QQ7 QEJ7QQ7 QEJ7QQ7 QEJ7QQ7 QEJ7QQ7 QEJ7QQ7 QEJ7QQ7 QEJ7QQ7 QEJ7QQ7 QEJ7QQ7 QEJ7QQ7 QEJ7QQ7 QEJ7QQ7 QEJ7QQ7 QEJ7QQ7 QEJ7QQ7 QEJ7QQ7 QEJ7QQ7 QEJ7QQ7 QEJ7QQ7 QEJ7QQ7 QEJ7QQ7 QEJ7QQ7 QEJ7QQ7 QEJ7QQ7 QEJ7QQ7 QEJ7QQ7 QEJ7QQ7 QEJ7QQ7 QEJ7QQ7 QEJ7QQ7 QEJ7QQ7 QEJ7QQ7 QEJ7QQ7 QEJ7QQ7 QEJ7QQ7 QEJ7QQ7 QEJ7QQ7 QEJ7QQ7 QEJ7QQ7 QEJ7QQ7 QEJ7QQ7 QEJ7QQ7 QEJ7QQ7 QJ7QQ7 QJ7QQ7 QJ7QQ7 QJ7QQ7 QJ7QQ7 QJ7QQ7 QJ7QQ7 QJ7QQ7 QJ7QQ7 QJ7QQ7 QJ7QQ7 QJ7QQ7 QJ7QQ7 QJ7QQ7 QJ7QQ7 QJ7QQ7 QJ7QQ7 QJ7QQ7 Q7QQ7 Q7QQ7 Q7QQ7 Q7QQ7 Q7QQ7 Q7QQ7 Q7QQ7 Q7QQ7 Q7QQ7 Q7QQ7 Q7QQ7 Q7QQ7 Q7QQ7 Q7QQ7 Q7QQ7 Q7QQ7 Q7QQ7 Q7QQ7 Q7QQ7 Q7QQ7 Q7QQ7 Q7QQ7 Q7QQ7 QQQ7 QQQ7 QQQ7 QQQ7 QQQ7 QQQ7 QQQ7 QQQ7 QQQ7 QQQ7 Q5QQ75 Q5QQ75 Q5QQ75 Q5QQ75 Q5QQ75 Q5QQ75 QJ5QQ75 QJ5QQ75 QJ5QQ75 QJ5QQ75 QJ5QQ75 QJ5QQ75 QJ5QQ75 QJ5QQ75 QJ5QQ75 QJ5QQ75 QJ5QQ75 QJE5QQ75 QJE5QQ75 QJE5QQ75 QJE5QQ75 QJE5QQ75 QJE5QQ75 QJE5QQ75 QJE5QQ75 QJE5QQ75 QJE5QQ75 QJE5QQ5 QJE5QQ5 QJE5QQ5 QJE5QQ5 QJE5QQ5 QJE5QQ5 QJE5QQ5 QJE5QQ5 QJE5QQ5 QJE5QQ5 QJE5QQ5 QJE5QQ5 QJE5QQ5 QJE5QQ5 QJE5QQ5 QJE5QQ5 QJE5QQ5 QJE5QQ5 QJE5QQ5 QJE5QQ5 QJE5QQ5 QJE5QQ5 QJE5QQ5 QJE5QQ5 QJE5QQ5 QJE5QQ5 QJE5QQ5 QJE5QQ5 QJE5QQ5 QJE5QQ5 QJE5QQ5 QJE5QQ5 QJE5QQ5 QJE5QQ5 QJE5QQ5 QJE5QQ5 QJE5QQ5 QJE5QQ5 QJE5QQ5 QJE5QQ5 QJE5QQ5 QJE5QQ5 QJE5QQ5 QJE5QQ5 QJE5QQ5 QJE5QQ5 QJE5QQ5 QJE5QQ5 QJE5QQ5 QJE5QQ5 QJE5QQ5 QJE5QQ5 QJE5QQ5 QJE5QQ5 QJE5QQ5 QJE5QQ5 QJE5QQ5 QJE5QQ5 QJE5QQ5 QJE5QQ5 QJE5QQ5 QJE5QQ5 QJE5QQ5 QJE5QQ5 QJE5QQ5 QJE5QQ5 QJE5QQ5 QJE5QQ5 QJE5QQ5 QJE5QQ5 QJ5QQ5 QJ5QQ5 QJQQ5 QJQQ5 QJQQ5 QJQQ5 QJQQ5 QCQQ5 QCQQ5 QCQQ5 QCQQ5 QC4QQ5 QC4QQ5 QC4QQ5 QC4QQ QC4QQ QC4QQ QC4QQ QC4QQ4 QC4QQ4 QC4QQ4 QC4QQ4 QC4QQ4 QIC4QQ4 QIC4QQ4 QIC4QQ4 QIC4QQ4 QIC4QQ4 QIC4QQ4 QIC4QQ4 QIC4QQ4 QIC4QQ4 QIC4QQ4 QIC4QQ4 QIC4QQ4 QIC4QQ4 QIC4QQ4 QIC4QQ4 QIC4QQ4 QIC4QQ4 QIC4QQ4 QIC4QQ4 QIC4QQ4 QIC4QQ4 QIC4QQ4 QIC4QQ4 QIC4QQ4 QIC4QQ4 QIC4QQ4 QIC4QQ4 QIC4QQ4 QIC4QQ4 QIC4QQ4 QIC4QQ4 QIC4QQ4 QIC4QQ4 QIC4QQ4 QIC4QQ4 QIC4QQ4 QIC4QQ4 QIC4QQ4 QIC4QQ4 QIC4QQ4 QIC4QQ4 QIC4QQ4 QIC4QQ4 QIC4QQ4 QIC4QQ4 QIC4QQ4 QIC4QQ4 QIC4QQ4 QIC4QQ4 QIC4QQ4 QIC4QQ4 QIC4QQ4 QIC4QQ4 QIC4QQ4 QIC4QQ4 QIC4QQ4 QIC4QQ4 QIC4QQ4 QIC4QQ4 QIC4QQ4 QIC4QQ4 QIC4QQ4 QIC4QQ4 QIC4QQ4 QIC4QQ4 QIC4QQ4 QIC4QQ4 QIC4QQ4 QIC4QQ4 QIC4QQ4 QIC4QQ4 QIC4QQ4 QIC4QQ4 QC4QQ4 QC4QQ4 QC4QQ4 QC4QQ4 QC4QQ4 QC4QQ4 QC4QQ4 QC4QQ4 QC4QQ4 QC4QQ4 QC4QQ4 QCQQ4 QCQQ4 QCQQ4 QCQQ4 QCQQ4 QCQQ4 QCQQ4 QCQQ4 QCQQ4 QCQQ4 QQQ4 QQQ4 QQQ4 QQQ4 QQQ4 QQQ4 QQQ4 QQQ4 QQQ4 QQQ4 QQQ4 QQQ4 QJQQ4 QJQQ4 QJQQ4 QJQQ4 QJQQ QJQQ QJQQ QJQQ QJQQ QJQQ QJQQ QJQQ QJQQ QJQQ QJQQ QJAQQ QJAQQ QJA2QQ QJA2QQ QJA2QQ2 QJA2QQ2 QJA2QQ2 QJA2QQ2 QJA2QQ2 QJA2QQ2 QJA2QQ2 QJA2QQ2 QJA2QQ2 QJA2QQ2 QJA2QQ2 QJA2QQ2 QJA2QQ2 QJA2QQ2 QJA2QQ2 QJA2QQ2 QJA2QQ2 QJA2QQ2 QJA2QQ2 QJA2QQ2 QJA2QQ2 QJA2QQ2 QJA2QQ2 QJA2QQ2 QJA2QQ2 QJA2QQ2 QJA2QQ2 QJA2QQ2 QJA2QQ2 QJA2QQ2 QJA2QQ2 QJA2QQ2 QJA2QQ2 QJA2QQ2 QJA2QQ2 QJA2QQ2 QJA2QQ2 QJA2QQ2 QJA2QQ2 QJA2QQ2 QJA2QQ2 QJA2QQ2 QJA2QQ2 QJA2QQ2 QJA2QQ2 QJA2QQ2 QJA2QQ2 QJA2QQ2 QJA2QQ2 QJA2QQ2 QJA2QQ2 QJA2QQ2 QJA2QQ2 QJA2QQ2 QJA2QQ2 QJA2QQ2 QJA2QQ2 QJA2QQ2 QJA2QQ2 QJA2QQ2 QJA2QQ2 QJA2QQ2 QJA2QQ2 QJA2QQ2 QJA2QQ2 QJA2QQ2 QJA2QQ2 QJA2QQ2 QJA2QQ2 QJA2QQ2 QJA2QQ2 QJA2QQ2 QJA2QQ2 QJA2QQ2 QJA2QQ2 QJA2QQ2 QJA2QQ2 QJA2QQ2 QJA2QQ2 QJA2QQ2 QJA2QQ2 QJA2QQ2 QJA2QQ2 QJA2QQ2 QJA2QQ2 QJA2QQ2 QJA2QQ2 QJA2QQ2 QJA2QQ2 QJA2QQ2 QJA2QQ2 QJA2QQ2 QJA2QQ2 QJA2QQ2 QJA2QQ2 QJA2QQ2 QJA2QQ2 QJA2QQ2 QJA2QQ2 QJA2QQ2 QJA2QQ2 QJA2QQ2 QJA2QQ2 QJA2QQ2 QJA2QQ2 QJA2QQ2 QJA2QQ2 QJ2QQ2 QJ2QQ2 QJ2QQ2 QJ2QQ2 QJ2QQ2 QJ2QQ2 QJ2QQ2 QJ2QQ2 QJ2QQ2 QJ2Q2 QJ2Q2 QJ2Q2 QJ2Q2 QJ2Q2 QJ2Q2 QJ2Q2 QJ2Q2 QJ2Q2 QJ22 QJ22 QJ22 QJ22 QJ22 QJ2 QJ2 QJ2 QJ2 QJ QJ J J J J J J J J J J J J J J J J J J J J J J J J J J J J J J J J J J J J J J J J J J J J J J J J J J J J J J J J J J J J J J J J J J J J J J J J J J J J J J J J J J J J J J J J J J J J J JE JE JE JE JE JE JE JE JE JE JE JE< JE< JE< JE< JE<< JE<< JE<< JE<< JE<< JE<O< JE<O< JE<O< JE<O< JE<O< JE<OO< OJE<OO< OJE<OO< OJE<OO< OJE<OO< OJE<OO< OJE<OO< OJE<OO< OJE<OO< OJE<OO< OJE<OO< OJE<OO< OJE<OO< OJE<OO< OJE<OO< OJE<OO< OJE<OO< OJE<OO< OJE<OO< OJE<OO< OJE<OO< OJE<OO< OJE<OO< OJE<OO< OJE<OO< OJE<OO< OJE<OO< OJE<OO< OJE<OO< OJE<OO< OJE<OO< OJE<OO< OJE<OO< OJE<OO< OJE<OO< OJE<OO< OJE<OO< OJE<OO< OJE<OO< OJE<OO< OJE<OO< OJE<OO< OJE<OO< OJE<OO< OJE<OO< OJE<OO< OJ<OO< OJ<OO< OJ<OO< OJ<OO< OJ<OO< OJ<OO< OJ<OO< OJ<OO< OJ<OO< OJ<OO< OJ<OO< OJ<OO< OJ<OO< OJ<OO< OJ<OO< OJ<OO< OJ<OO< OJ<OO< OJ<OO< OJ<OO< OJ<OO< OJ<OO< OJ<OO< OJ<OO< OJ<OO< OJ<OO< OJ<OO< OJ<OO< OJ<OO< OJ<O< OJO< OJO< OJO< OJO< OJO< OJO< OJO< OJO< OJO< OJO OJO OJO OJOM OJOM OJOM OJOM OJOM OJOM OJOM OJOM OJOM OJOM OJOM JOM JOM JOM MJOM MJOM MJOM MJOM MJOM MJOM MJOMM MJMM MJMM MJMM MJMM MJMM MJMM MJMM MJMM MJMM MJMM MJMM MJMM MJMM MJMM MJMM MJMM MJMM MJMM MJMM MJMM MJMM MJMM MJMM MJMM MJMM MJMM MJMM MJMM MJMM MJMM MJMM MJMM MJMM MJMM MJMM MJMM MJMM MJMM MJMM MJMM MJMM MJMM MJMM MJMM MJMM MJMM MJMM MJMM MJMM MJMM MJMM MJMM MJMM MJMM MJMM MJMM MJMM MJMM MJMM MJMM MJMM MJMM MJMM MJMM MJMM MJMM MJMM MJMM MJMM MJMM MJMM MJMM MJMM MJMM MJMM MJMM MJM MJM MJM MJM MJM MJM JM JM JM JM J J J J J J J J J J J J J J J J J J J J J J J J> J> J> J> J>O J>O J>O J>O J>O J>O J>O OJ>O OJ>O OJ>O: OJ>O: OJ>O: OJ>:O: OJ>:O: OJ>:O: OJ>:O: OJ>:O: OJ>:O: OJ>:O: OJ>:O: OJ>:O: OJ>:O: OJ>:O: OJ>:O: OJ>:O: OJ>:OO: OJ>:OO: OJ>:OO: OJ>:OO: OJ>:OO: OJ>:OO: OJ>:OO: OJ>:OO: OJ>:OO: OJ>:OO: OJ>:OO: OJ>:OO: OJ>:OO: OJ>:OO: OJ>:OO: OJ>:OO: OJ>:OO: OJ>:OO: OJ>:OO: OJ>:OO: OJ>:OO: OJ>:OO: OJ>:OO: OJ>:OO: OJ>:OO: OJ>:OO: OJ>:OO: OJ>:OO: OJ>:OO: OJ>:OO: OJ>:OO: OJ>:OO: OJ>:OO: OJ>:OO: OJ>:OO: OJ>:OO: OJ>:OO: OJ>:OO: OJ>:OO: OJ>:OO: OJ>:OO: OJ>:OO: OJ>:OO: OJ>:OO: OJ>:OO: OJ>:OO: OJ>:OO: OJ>:OO: OJ>:OO: OJ>:OO: OJ>:OO: OJ:OO: OJ:OO: OJ:OO: OJ:OO: OJ:OO: OJ:OO: OJ:OO: OJ:OO: OJ:OO: OJ:OO: OJ:OO: OJ:OO: OJ:OO: OJ:OO: OJ:OO: OJ:OO: OJ:OO: OJ:OO: OJ:OO: OJ:OO: OJ:OO: OJ:OO: OJ:OO: OJ:OO: OJ:OO: OJ:OO: OJ:OO: OJ:OO: OJ:OO: OJ:OO: OJ:OO: OJ:OO: OJ:OO: OJ:OO: OJ:OO: OJ:OO: OJ:OO: OJ:OO: OJ:OO: OJ:OO: OJOO: OJOO: OJOO: OJOO: OJOO: OJOO: OJOO: OJOO: OJOO: OJOO: OJOO: OJOO: OJOO: OJOO OJOO OJOO OJOO OJOO OJOO OJOO OJOO OJOO OJOO OJOO OJOO OJOO OJOO OJOO OJOO OJOO OJOO OJOO OJOO OJOO OJOO OJOO OJOO OJOO OJOO OJOO OJOO OJOO OJOO OJOO OJOO OJOO OJOO OJOO OJOO OJOO OJOO OJOO OJOO OJOO OJOO OJOO OJOO OJOO OJOO OJOO OJOO OJOO OJOO OJOO OJOO OJOO OJOO OJOO OJOO OJOO OJOO OJOO OJOO OJOO OJOO OJOO OJOO OJOO OJOO OJO OJO OJO OJO OJO OJO OJO OJO OJO OJO OJO OJO OJO OJO OJO OJO OJO OJO OJO OJO OJO OJO OJO OJO OJO OJO OJO OJO OJO OJO OJO OJO OJO OJO OJO OJO OJO OJO OJO OJO OJO OJ OJ OJ OJ OJ OJ OJ OJ OJ OJ OJB OJB OJB OJB9 OJB9 OJB9 OJB9 OJB9 OJB9 OJB9 OJB9 OJB9 OJB9 OJB9 OJB99 OJB99 JB99 JB99 JB99 JB99 JB99 JB99 JB99 JB99 JB99 JB99 JB99 JB99 JB99 JB99 JB99 JB99 JB99 JB99 JB99 JB99 JB99 JB99 JB99 JB99 JB99 JB99 JB99 JB99 JB99 JB99 JB99 JB99 JB99 JB99 JB99 JB99 JB99 JB99 JB99 JB99 JB99 JB99 JB99 JB99 JB99 JB99 JB99 JB99 JB99 JB99 JB99 JB99 JB99 JB99 JB99 JB99 JB99 JB99 JB99 JB99 JB99 JB99 JB99 JB99 JB99 JB99 J99 J99 J99 J99 J99 J99 J99 J99 J99 J99 J99 J9 J9 J9 J9 J9 J9 J9 J J J J J J J J J J JQ JQ JQ JQ JQ QJQ QJQ QJQ QJQ QJQ QJQ QJQ QJQ QJQ QJQ QJQ QJQ QJQ QJQ QJQQ QJQQ QJQQ QJQQ QJQQ QJQQ QJQQ QJQQ QJQQ QJQQ QJQQ QJQQ QJQQ QJQQ QJQQ QJQQ QJQQ QJQQ QJQQ QJQQ QJQQ QJQQ QJQQ QJQQ QJQQ QJQQ QJQQ QJQ QJQ QJQ QJQ QJQ QJQ QJQ QJQ QJQ QJQ QJQ QJQ QJQ QJQ QJQ QJQ QJQ QJQ QJQ JQ JQ JQ JQ J J J J J J J J J J J J J J J J J J J J J J J J J J J J J J J J J J J J J J J J J J J J J J J J J J J J J J J J J J J J J J J J J J JR J7R J7R J7R J7R J7R J7R RJ7R7 RJ7R7 RJ7R7 RJ7R7 RJ7R7 RJ7R7 RJ7R7 RJC7RR7 RJC7RR7 RJC7RR7 RJC7RR7 RJC7RR7 RJC7RR7 RJC7RR7 RJC7RR7 RJC7RR7 RJC7RR7 RJC7RR7 RJC7RR7 RJC7RR7 RJC7RR7 RJC7RR7 RJC7RR7 RJC7RR7 RJC7RR7 RJC7RR7 RJC7RR7 RJC7RR7 RJC7RR7 RJC7RR7 RJC7RR7 RJC7RR7 RJC7RR7 RJC7RR7 RJC7RR7 RJC7RR7 RJC7RR7 RJC7RR7 RJC7RR7 RJC7RR7 RJC7RR7 RJC7RR7 RJC7RR7 RJC7RR7 RJC7RR7 RJC7RR7 RJC7RR7 RJC7RR7 RJC7RR7 RJC7RR7 RJC7RR7 RJC7RR7 RJC7RR7 RJC7RR7 RJC7RR7 RJC7RR7 RJC7RR7 RJC7RR7 RJC7RR7 RJC7RR7 RJC7RR7 RJC7RR7 RJC7RR7 RJC7RR7 RJC7RR7 RJC7RR7 RJC7RR7 RJC7RR7 RJC7RR7 RJC7RR7 RJC7RR7 RJC7RR7 RJC7RR7 RJC7RR7 RJC7RR7 RJC7RR7 RJC7RR7 RJC7RR7 RJC7RR7 RJC7RR7 RJC7RR7 RJC7RR7 RJC7RR7 RJC7RR7 RJC7RR7 RJC7RR7 RJC7RR7 RJC7RR7 RJC7RR7 RJC7RR7 RJC7RR7 RJC7RR7 RJC7RR7 RJC7RR7 RJC7RR7 RJC7RR7 RJC7RR7 RJC7RR7 RJC7RR7 RJC7RR7 RJC7RR7 RJC7RR7 RJC7RR7 RJC7RR7 RJC7RR7 RJC75RR7 RJC75RR7 RJC75RR7 RJC75RR7 RJC75RR7 RJC75RR7 RJC75RR7 RJC75RR7 RJC5RR7 RJC5RR75 RJC5RR75 RJC5RR75 RJC5RR75 RJC5RR5 RJC5RR5 RJC5RR5 RJC5RR5 RJC5RR5 RJC5RR5 RJC5RR5 RJC5RR5 RJC5RR5 RJC5RR5 RJC5RR5 RJC5RR5 RJC5RR5 RJC5RR5 RJC5RR5 RJC5RR5 RJC5RR5 RJC5RR5 RJC5RR5 RJC5RR5 RJC5RR5 RJC5RR5 RJC5RR5 RJC5RR5 RJC5RR5 RJC5RR5 RJC5RR5 RJC5RR5 RJC5RR5 RJC5RR5 RJC5RR5 RJC5RR5 RJC5RR5 RJC5RR5 RJC5RR5 RJC5RR5 RJC5RR5 RJC5RR5 RJC5RR5 RJC5RR5 RJC5RR5 RJC5RR5 RJC5RR5 RJC5RR5 RJC5RR5 RJC5RR5 RJC5RR5 RJC5RR5 RJC5RR5 RJC5RR5 RJC5RR5 RJC5RR5 RJC5RR5 RJC5RR5 RJC5RR5 RJC5RR5 RJC5RR5 RJC5RR5 RJC5RR5 RJC5RR5 RJC5RR5 RJC5RR5 RJC5RR5 RJC5RR5 RJC5RR5 RJC5RR5 RJC5RR5 RJC5RR5 RJC5RR5 RJC5RR5 RJC5RR5 RJC5RR5 RJC5RR5 RJC5RR5 RJC5RR5 RJC5RR5 RJC5RR5 RJC5RR5 RJC5RR5 RJC5RR5 RJC5RR5 RJC5RR5 RJC5RR5 RJC5RR5 RJC5RR5 RJC5RR5 RJC5RR5 RJC5RR5 RJC5RR5 RJCRR5 RJCRR5 RJCRR5 RJCRR5 RJCRR5 RJCRR5 RJCRR5 RJCRR5 RJCRR5 RJCRR5 RJCRR5 RJCRR5 RJCRR5 RJCRR5 RJCRR5 RJCRR5 RJCRR5 RJC7RR5 RJC7RR5 RJC7RR RJC7RR RJC7RR RJC7RR7 RJC7RR7 RJC7RR7 RJC7RR7 RJC7RR7 RJC7RR7 RJC7RR7 RJC7RR7 RJC7RR7 RJC7RR7 RJC7RR7 RJC7RR7 RJC7RR7 RJC7R7 RJC7R7 RJC7R7 RJC7R7 RJC7R7 RJC7R7 RJC7R7 RJC7R7 RJC7R7 RJC7R7 RJC7R7 RJC7R7 RJC7R7 RJC7R7 RJC7R7 RJC7R7 RJC77 RJC77 RJC77 RJC77 JC77 JC77 JC77 JC77 JC77 JC77 JC77 JC77 JC77 JC77 JC77 JC77 JC77 JC77 JC77 JC77 JC77 JC77 JC77 JC77 JC77 JC77 JC77 JC77 JC77 JC77 JC77 JC77 JC77 JC77 JC77 JC77 JC77 JC77 JC77 JC77 JC77 JC77 JC77 JC77 JC77 JC77 JC77 JC77 JC77 JC77 JC77 JC77 JC77 JC77 JC77 JC77 JC77 JC77 JC77 JC77 JC77 JC77 JC77 JC7 JC7 JC7 JC7 JC7 JC7 JC7 JC7 JC7 JC7 JC7 JC7 JC7 JC7 JC JC JCQ JCQ JCQ JCQQ JCQQ JCQQ JCQQ JC9QQ JC9QQ QJC9QQ9 QJC9QQ9 QJC9QQ9 QJC9QQ9 QJC9QQ9 QJC9QQ9 QJC9QQ9 QJC9QQ9 QJC9QQ9 QJC9QQ9 QJC9QQ9 QJC9QQ9 QJC9QQ9 QJC9QQ9 QJC9QQ9 QJC9QQ9 QJC9QQ9 QJC9QQ9 QJC9QQ9 QJC9QQ9 QJC9QQ9 QJC9QQ9 QJC9QQ9 QJC9QQ9 QJC9QQ9 QJC9QQ9 QJC9QQ9 QJC9QQ9 QJC9QQ9 QJC9QQ9 QJC9QQ9 QJC9QQ9 QJC9QQ9 QJC9QQ9 QJC9QQ9 QJC9QQ9 QJC9QQ9 QJC9QQ9 QJC9QQ9 QJC9QQ9 QJC9QQ9 QJC9QQ9 QJC9QQ9 QJC9QQ9 QJC9QQ9 QJC9QQ9 QJC9QQ9 QJC9QQ9 QJC9Q9 QJC9Q9 QJC9Q9 QJC9Q9 QJC99 JC99 JC99 JC99 JC99 JC99 JC99 JC99 JC99 JC99 JC99 JC99 JC99 JC99 JC99 JC99 JC99 JC99 JC99 JC99 JC99 JC99 JC99 JC99 JC99 JC99 JC99 JC99 JC99 JC99 JC99 JC99 JC99 JC99 JC99 JC99 JC99 JC99 JC99 JC99 JC99 JC99 JC99 JC99 JC99 JC99 JC99 JC99 JC99 JC99 JC99 JC99 JC99 JC99 JC99 JC99 JC99 JC99 JC99 JC99 JC99 JC99 JC99 JC9 JC9 JC9 JC9 JC JC JC JC JC JC JC JC JC JC JCO OJCO: OJC:O: OJC:OO: OJC:OO: OJC:OO: OJC:OO: OJC:OO: OJC:OO: OJC:OO: OJC:OO: OJC:OO: OJC:OO: OJC:OO: OJC:OO: OJC:OO: OJC:OO: OJC:OO: OJC:OO: OJC:OO: OJC:OO: OJC:OO: OJC:OO: OJC:OO: OJC:OO: OJC:OO: OJC:OO: OJC:OO: OJC:OO: OJC:OO: OJC:OO: OJC:OO: OJC:OO: OJ:OO: OJ:OO: OJ:OO: OJ:OO: OJ:OO: OJ:OO: OJ:OO: OJ:OO: OJ:OO: OJ:OO: OJ:OO: OJ:OO: OJ:OO: OJ:OO: OJ:OO: OJ:OO: OJ:OO: OJ:OO: OJ:OO: OJ:OO: OJ:OO: OJ:OO: OJ:OO: OJ:OO: OJ:OO: OJ:OO: OJ:OO: OJ:OO: OJ:OO: OJ:OO: OJ:OO: OJ:OO: OJ:OO: OJ:OO: OJ:OO: OJ:OO: OJ:OO: OJ:OO: OJ:OO: OJ:OO: OJ:OO: OJ:OO: OJ:OO: OJ:OO: OJ:OO: OJ:OO: OJ:OO: OJ:OO: OJ:OO: OJ:OO: OJ:OO: OJ:OO: OJ:OO: O:OO: O:OO: O:OO: O:OO: O:OO: O:OO: O:OO: O:OO: O:OO: O:OO: O:OO: O:OO: O:OO: O:OO: O:OO: O:OO: O:OO: O:OO: O:OO: O:OO: O:OO: O:OO: O:OO: O:OO: O:OO: O:OO: O:OO: O:OO: O:OO: O:OO: O:OO: O:OO O:OO O:OO O:OO O:OO O:OO O:OO O:OO OOO OOO OOO OOO OOO OOO OOO OOO OOO OOO OOO OOO OOO OOO OOO OOO OOO OOO OOO OOO OOO OOO OOO OOO OOO OOO OOO OOO OOO OOO OOO OOO OOO OOO OOO OOO OOO OOO OOO OOO OOO OOO OOO OOO OOO OOO OOO OOO OOO OOO OOO OOO OOO OOO OOO OOO OOO OOO OOO OOO OOO OOO OO                                           E E EM EM EM EM E1M E1M ME1M1 ME1M1 ME1M1 MEE1M1 MEE1M1 MEE1M1 MEE1M1 MEE1M1 MEE1MM1 MEE1MM1 MEE1MM1 MEE1MM1 MEE1MM1 MEE1MM1 MEE1MM1 MEE1MM1 MEE1MM1 MEE1MM1 MEE1MM1 MEE1MM1 MEE1MM1 MEE1MM1 MEE1MM1 MEE1MM1 MEE1MM1 MEE1MM1 MEE1MM1 MEE1MM1 MEE1MM1 MEE1MM1 MEE1MM1 MEE1MM1 MEE1MM1 MEE1MM1 MEE1MM1 MEE1MM1 MEE1MM1 MEE1MM1 MEE1MM1 MEE1MM1 MEE1MM1 MEE1MM1 MEE1MM1 MEE1MM1 MEE1MM1 MEE1MM1 MEE1MM1 MEE1MM1 MEE1MM1 MEE1MM1 MEE1MM1 MEE1MM1 MEE1MM1 MEE1MM1 MEE1MM1 MEE1MM1 MEE1MM1 MEE1MM1 MEE1MM1 MEE1MM1 MEE1MM1 MEE1MM1 MEE1MM1 MEE1MM1 MEE1MM1 MEE1MM1 MEE1MM1 MEE1M1 MEE1M1 MEE1M1 MEE1M1 MEE1M1 MEE1M1 MEE1M1 MEE1M1 MEE1M1 MEE1M1 MEE1M1 EE11 EE11 EE11 EE11 EE11 EE11 EE11 EE11 EE11 EE11 EE11 EE11 EE11 EE11 EE11 E11 E11 E11 E11 E11 LE1L1 LE1L1 LE1L1 LE1L1 LE1L1 LE1L1 LE1L1 LE1L1 LE1L1 LE1L1 LE1L1 LE1LL1 LE1LL1 L1LL1 L1LL1 L1LL1 L1LL1 L1LL1 L1LL1 L1LL1 LLL1 LLL1 LLL1 LLL1 LLL1 LLL1 LLL1 LLL1 LLL1 LLL LLL LLL LLL LLL LLL LLL LLL LLL LLL LLL LLL LLL LLL LLL LLL LLL LLL LLL LLL LLL LLL LLL LLL LLL LLL LLL LLL LLL LLL LLL LLL LLL LLL LLL LLL LLL LLL LLL LLL LLL LLL LLL LLL LLL LL LL LL L L L L L L L L L L L L                                      M2 M2 M2 M2 M2 M2 M2 M2 M2 M2 M2 M2 M2 M>2 M>2 M>2 M>2 M>2 ME>2 ME>2 ME>2M2 ME>2M2 ME>2M2 ME>2M2 ME>2M2 ME>2MM2 ME>2MM2 ME>2MM2 ME>2MM2 ME>2MM2 ME>2MM2 ME>2MM2 ME>2MM2 ME>2MM2 ME>2MM2 ME>2MM2 ME>2MM2 ME>2MM2 ME>2MM2 ME>2MM2 ME>2MM2 ME>2MM2 ME>2MM2 ME>2MM2 ME>2MM2 ME>2MM2 ME>2MM2 ME>2MM2 ME>2MM2 ME>2MM2 ME>2MM2 ME>2MM2 ME>2MM2 ME>2MM2 ME>2MM2 ME>2MM2 ME>2MM2 ME>2MM2 ME>2MM2 ME>2MM2 ME>2MM2 ME>2MM2 ME>2MM2 ME>2MM2 ME>2MM2 ME>2MM2 ME>2MM2 ME>2MM2 ME>2MM2 ME>2MM2 ME>2MM2 ME>2MM2 ME>2MM2 ME>2MM2 ME>2MM2 ME>2MM2 ME>2MM2 ME>2MM2 ME>2MM2 ME>2MM2 ME>2MM2 ME>2MM2 ME>2MM2 ME>2MM2 ME>2MM2 ME>2MM2 ME>2MM2 ME>2MM2 ME>2MM2 ME>2MM2 ME>2MM2 ME>2MM2 ME>2MM2 ME>2MM2 ME>2MM2 ME>2MM2 ME>2MM2 ME>2MM2 ME>2MM2 ME>2MM2 ME>2MM2 ME>2MM2 ME2MM2 ME2MM2 ME2MM ME2MM ME2MM ME2MM ME2MM ME2MM ME2MM ME2MM ME2MM ME2MM ME2MM ME2MM ME2MM ME2MM ME2MM MEMM MEMM MEMM MEMM MEMM MEMM MEMM MEMM MEMM MEMM MEMM MEMM MMM MMM MMM MMM MMM MMM MMM MMM MMM MMM MMM MMM MMM MMM MMM MMM MMM MMM MMM MMM MMM MMM MMM MMM MMM MMM MMM MMM MMM MMM MMM MMM MMM MMM MMM MMM MMM MMM MMM MMM MMM MMM MMM MMM MMM MMM MMM MMM MMM MMM MMM MMM MMM MMM MMM MMM MMM MMM MMM MMM MMM MMM MMM MMM MMM MMM MMM MMM MMM MMM MMM MMM MMM MMM MMM MMM MMM MMM MMM MMM MMM MMM MMM MMM MMM MMM MMM MMM MMM MMM MMM MMM MMM MMM MMM MMM MMM MMM MMM MMM MMM MMM MMM MMM MMM MMM MMM MMM MMM MMM MMM MMM MMM MMM MMM MMM MMM MM MM MM MM MM MM +MM +MM +MM :+MM :+MM :+MM :+MM :+MM :+MM :+MM :+MM :+M :+M+ :+M+ :+M+ :+M+ :+M+ :+M+ C:+M+ C:+M+ C:+M+ C:+M+ C:+M+ C:+M+ C:+M+ C:+M+ C:+M+ C:+M+ C:+M+ C:+M+ C:+M+ C:+M+ C:++ C:++ C:++ C:++ C:++ C:++ C:++ C:++ C:++ C:++ C:++ C:++ C:++ C:++ C:++ C:++ C:++ C:++ C:++ C:++ C:++ C:++ C:++ C:++ C:++ C:++ C:++ C:++ C:++ C:++ C:++ C:++ C:++ C:++ C:++ C:++ C:++ C:++ C:++ C:++ C:++ C:++ C:++ C:++ C:++ C:++ C:++ C:++ C:++ C:++ C:++ C:++ C:++ C:++ C:++ C:++ C:++ C:+ C:+ C+ C+ C+ C+ C+ C+ C+ C+ C+ C+ C+ C+ C+ + + + O+ O+ O+ O+ O O O O O O O OO OO OO OO OO OO OO OOO OOO OOO OOO OOO OOO OOO OOO OOO OOO OOO OOO OOO OOO OOO OOO OOO OOO OOO OOO OOO OOO OOO OOO OOO OOO OOO OOO OOO OOO OOO OOO OOO OOO OOO OOO OOO OOO OOO OOO OOO OOO OOO OOO OOO OOO OOO OOO OOO OOO OOO OOO OOO OOO OOO OOO OOO OOO OOO OO OO OO OO OO OO                                                   J J J J J J J9- J9- J9- J@9-- J@9-- J@9-- J@9-- J@9-J- J@9-J- J@9-J- J@9-J- J@9-J- J@9-J- J@9-J- J@9-JJ- J@9-JJ- J@9-JJ- J@9-JJ- J@9-JJ- J@9-JJ- J@9-JJ- J@9-JJ- J@9-JJ- J@9-JJ- J@9-JJ- J@9-JJ- J@9-JJ- J@9-JJ- J@9-JJ- J@9-JJ- J@9-JJ- J@9-JJ- J@9-JJ- J@9-JJ- J@9-JJ- J@9-JJ- J@9-JJ- J@9-JJ- J@9-JJ- J@9-JJ- J@9-JJ- J@9-JJ- J@9-JJ- J@9-JJ- J@9-JJ- J@9-JJ- J@9-JJ- J@9-JJ- J@9-JJ- J@9-JJ- J@9-JJ- J@9-JJ- J@9-JJ- J@9-JJ- J@9-JJ- J@9-JJ- J@9-JJ- J@9-JJ- J@9-JJ- J@9-JJ- J@9-JJ- J@9-JJ- J@9-JJ- J@9-JJ- J@9-JJ- J@9-JJ- J@9-JJ- J@9-JJ- J@9-JJ- J@9-JJ- J@9-JJ- J@9-JJ- J@9-JJ- J@9-JJ- J@9-JJ- J@9-JJ- J@9-JJ- J@9-JJ- J@9-JJ- J@9-JJ- J@9-JJ- J@9-JJ- J@9-JJ- J@9-JJ- J@9-JJ- J@9-JJ- J@9-JJ- J@9-JJ- J@9-JJ- J@9-JJ- J@9-JJ- J@9-JJ- J@9-JJ- J@9-JJ- J@9-JJ- J@9-JJ- J@9-JJ- J@9-JJ- J@9-JJ- J@9-JJ- J@9JJ- J@9JJ- J@9JJ- J@9JJ- JI@9JJ- JI@9JJ- JI@9JJ- JI@9JJ- JI@9JJ- JI@9JJ- JI@9JJ- JI@9JIJ- JI@9JIJI- JI@9JIJI- JI@9JIJI- JI@9JIJI JI@9JIJI JI@9JIJI JI@9JIJI JI@9JIJI JI@9JIJI JI@9JIJI JI@9JIJI JI@9JIJI JI@9JIJI JI@9JIJI JI@9JIJI JI@9JIJI JI@9JIJI JI@9JIJI JI@9JIJI I@9JIJI I@9JIJI I@9IJI I@9IJI I@9IJI I@9II I@9II I@9II I@9II I@9II I@9II I@9II I@9II I@9II I@9II I@9II I@9II I@9II I@9II I@9II I@9II I@9II I@9II I@9II I@9II I@9II I@9II I@9II I@9II I@9II I@9II I@9II I@9II I@9II I@9II I@9II I@9II I@9II I@9II I@9II I@9II I@9II I@9II I@9II I@9II I@9II I@9II I@9II I@9II I@9II I@9II I@9II I@9II I@9II I@9II I@9II I@9II I@9II I@9II I@9II I@9II I@9II I@9II I@9II I@9II I@9II I@9II I@9II I@9II I@9II I@9II I@9II I@9II I@9II I@9II I@9II I@9II I@9II I@9II I@9II IG@9II IG@9II IG@9II IG@9II IG@9II IG@9II IG@9II IG@9II IG@9II IG@9II IG@9II IG@9II IG@9II IG@9II IG@9II IG@9II IG@9IIG IG@9IGIG IG@9IGIG IG@99IGIG IG@99IGIG IG@99IGIG IG@99IGIG9 IG@99IGIG9 IG@99IGIG9 IG@99IGIG9 IG@99IGIG9 IG@99IGIG9 G@99IGIG9 G@99IGIG9 G@99IGIG9 G@99IGIG9 G@99IGIG9 G@99IGIG9 G@99IGIG9 G@99IGIG9 G@99IGIG9 G@99IGIG9 G@99IGIG9 G@99IGIG9 G@99IGIG9 G@99IGIG9 G@99IGG9 G@99IGG9 G@99IGG9 G@99IGG9 G@99IGG9 G@99IGG9 G@99IGG9 G@99IGG9 G@99GG9 G@99GG9 G@99GG9 G@99GG9 G@99GG9 G@99GG9 G@99GG9 G@99GG9 G@99GG9 G@99GG9 G@99GG9 G@99GG9 G@99GG9 G@99GG9 G@99GG9 G@99GG9 G@99GG9 G@99GG9 G@99GG9 G@99GG9 G@99GG9 G@99GG9 G@99GG9 G@99GG9 G@99GG9 G@99GG9 G@99GG9 G@99GG9 G@99GG9 G@99GG9 G@99GG9 G@99GG9 G@99GG9 G@99GG9 G@99GG9 G@99GG9 G@99GG9 G@99GG9 G@99GG9 G@99GG9 G@99GG9 G@99GG9 G@99GG9 G@99GG9 G@99GG9 G@99GG9 G@99GG9 G@99GG9 G@99GG9 G@99GG9 G@99GG9 G@99GG9 G@99GG9 G@99GG9 G@99GG9 G@99GG9 G@99GG9 G@99GG9 G@99GG9 G@99GG9 G@99GG9 G@99GG9 G@9GG9 G@9GG9 G@9GG9 G@9GG9 G@9GG9 G@9GG9 G@9GG9 GE@9GG9 GE@9GG9 GE@9GG9 GE@9GG9 GE@9GG9 GE@9GG9 GE@9GG9 GE@9GG9 GE@9GG9 E@9GG9 E@9GG9 E@9GG9 E@9GG9 E@9GG9 E@9GG9 E@9GG9 E@9GG9 E@9GG9 E@9GG9 E@9GG9 E@9GG E@9GG E@9GG E@9GGE E@9GEGE E@9GEGE E@9GEGE E@9GEGE E@9GEGE E@9GEGE E@9GEGE E@9GEGE E@9GEGE E@9GEGE E@9GEGE E@9GEGE E@9EE E@9EE E@9EE E@9EE E@9EE E@9EE E@9EE E@9EE E@9EE E@9EE E@9EE E@9EE E@9EE E@9EE E@9EE E@9EE E@9EE E@9EE E@9EE E@9EE E@9EE E@9EE E@9EE E@9EE E@9EE E@9EE E@9EE E@9EE E@9EE E@9EE E@9EE E@9EE E@9EE E@9EE E@9EE E@9EE E@9EE E@9EE E@9EE E@9EE E@9EE E@9EE E@9EE E@9EE E@9EE E@9EE E@9EE E@9EE E@9EE E@9EE E@9EE E@9EE E@9EE E@9EE E@9EE E@9EE E@9EE E@9EE E@9EE E@9EE E@9EE E@9EE E@9EE E@9EE E@9EE E@9EE E@9EE E@9EE E@9EE E@9EE E@9EE E@9EE E@9EE E@9EE E@9EE E@9EE E@9EE E@9EE E@9EE E@9EE E@9EE E@9EE E@9EE E@9EE E@9EE E@9EE E@9EE E@9EE E@9EE E@9EE E@9EE E@9EE E@9EE E@9EE E@9EE E@9EE E@9EE E@97EE E@97EE EG@97EE EG@97EE EG@97EE EG@97EE EG@97EE EG@97EE EG@97EE EG@97EGE7 EG@97EGE7 EG@97EGE7 EG@97EGEG7 EG@97EGEG7 EG@97EGEG7 EG@97EGEG7 EG@97EGEG7 EG@97EGEG7 EG@97EGEG7 EG@97EGEG7 EG@97EGEG7 EG@97EGEG7 EG@97EGEG7 EG@97EGEG7 EG@97EGEG7 EG@97EGEG7 EG@97GEG7 EG@7GEG7 EG@7GEG7 EG@7GEG7 EG@7GEG7 G@7GEG7 G@7GEG7 G@7GEG7 G@7GEG7 G@7GEG7 G@7GEG7 G@7GEG7 G@7GG7 G@7GG7 G@7GG7 G@7GG7 G@7GG7 G@7GG7 G@7GG7 G@7GG7 G@7GG7 G@7GG7 G@7GG7 G@7GG7 G@7GG7 G@7GG7 G@7GG7 G@7GG7 G@7GG7 G@7GG7 G@7GG7 G@7GG7 G@7GG7 G@7GG7 G@7GG7 G@7GG7 G@7GG7 G@7GG7 G@7GG7 G@7GG7 G@7GG7 G@7GG7 G@7GG7 G@7GG7 G@7GG7 G@7GG7 G@7GG7 G@7GG7 G@7GG7 G@7GG7 G@7GG7 G@7GG7 G@7GG7 G@7GG7 G@7GG7 G@7GG7 G@7GG7 G@7GG7 G@7GG7 G@7GG7 G@7GG7 G@7GG7 G@7GG7 G@7GG7 G@7GG7 G@7GG7 G@7GG7 G@7GG7 G@7GG7 G@7GG7 G@7GG7 G@7GG7 G@7GG7 G@7GG7 G@7GG7 G@7GG7 G@GG7 G@GG7 G@GG7 G@GG7 G@GG7 G@GG7 G@GG7 G@GG7 G@GG7 G@GG7 G@GG7 G@GG7 G@GG7 G@GG G@GG G@GG G@GG G@GG G@GG G@GG G@GG G@GG G@GG G@GG G@GG G@GG G@GG G@GG GI@GIG GI@GIG GI@GIG GI@GIG GI@GIG GI@GIG GI@GIG GI@GIG GI@GIGI GI@GIGI GI@GIGI GI@GIGI GI@GIGI GI@GIGI GI@GIGI GI@GIGI GI@IGI I@IGI I@IGI I@IGI I@IGI I@IGI I@IGI I@IGI I@IGI I@IGI I@II I@II I@II I@II I@II I@II I@II I@II I@II I@II I@II I@II I@II I@II I@II I@II I@II III III III III III III III III III III III III III III III III III III III III III III III III III III III III III III III III III III III III III III III III III III III III III III III III III III III III III I5II I5II I5II I5II I5I I5I I5I I5I I5I I5I I5I 5JIJ 5JIJ 5JIJ 5JIJ 5JIJ 5JIJ 5JIJ5 5JIJ5 JE5JIJ5 JE5JJ5 JE5JJ5 JE5JJ5 JE5JJ5 JE5JJ5 JE5JJ5 JE5JJ5 JE5JJ5 JE5JJ5 JE5JJ5 JE5JJ5 JJE5JJ5 JJE5JJ5 JJE5JJ5 JJE5JJ5 JJE5JJ5 JJE5JJ5 JJE5JJ5 JJE5JJ5 JJE5JJ5 JJE5JJ5 JJE5JJ5 JJE5JJ5 JJE5JJ5 JJE5JJ5 JJE5JJ5 JJE5JJ5 JJE5JJ5 JJE5JJ5 JJE5JJ5 JJE5JJ5 JJE5JJ5 JJE5JJ5 JJE5JJ5 JJE5JJ5 JJE5JJ5 JJE5JJ5 JJE5JJ5 JJE5JJ5 JJE5JJ5 JJE5JJ5 JJE5JJ5 JJE5JJ5 JJE5JJ5 JJE5JJ5 JJE5JJ5 JJE5JJ5 JJE5JJ5 JJE5JJ5 JJE5JJ5 JJE5JJ5 JJE5JJ5 JJE5JJ5 JJE5JJ5 JJE5JJ5 JJE5JJ5 JJE5JJ5 JJE5JJ5 JJE5JJ5 JJE5JJ5 JJE5JJ5 JJE5JJ5 JJE5JJ5 JJE5JJ5 JJE5JJ5 JJE5JJ5 JJE5JJ5 JJE5JJ5 JJE5JJ5 JJE5JJ5 JJE5JJ5 JJE5JJ5 JJE5JJ5 JJE5JJ5 JJE5JJ5 JJE5JJ5 JJE5JJ5 JJE5JJ5 JJE5JJ5 JJE5JJ5 JJE5JJ5 JJE5JJ5 JJE5JJ5 JJE5JJ5 JJE5JJ5 JJE5JJ5 JJE5JJ5 JJE5JJ5 JJ5JJ5 JJ5JJ5 JJ5JJ5 JJ5JJ5 JJ5JJ5 JJ5JJ5 JJ5JJ5 JJ5JJ5 JJ5JJ5 JJ5JJ5 JJ5JJ5 JJ5JLJ5 JJ5JLJ5 JJ5JLJ5 JJ5JLJ5 JLJJLJ5 JLJJLJ5 JLJJLJ5 JLJJLJ5 JLJJLJ5 JLJJLJ5 JLJJLJ5 JLJJLJL5 JLJJLJL5 JLJJLJL5 JLJLJL5 JLJLJL5 JLJLJL5 JLJLJL5 LJLJL5 LJLJL5 LLJL5 LLJL5 LLJL5 LLJL5 LLJL LLJL LLJL LLL LLL LLL LLL LLL LLL LLL LLL LLL LLL LLL LLL LLL LLL LLL LLL LLL LLL LLL LLL LLL LLL LLL LLL LLL LLL LLL LLL LLL LLL LLL LLL LLL LLL LLL LLL LLL LLL LLL LLL LLL LLL LLL LLL LLL LLL LLL LLL LLL LLL LLL LLL LLL LLL LLL LL LL LL LL LL LL LL L                                       M M M M M MM MM MM MM M7M MJ7M MJ7M MJF7M MJF7M MJF7M MJF7M MJF7M MJF7M MJF7M7 MJF7M7 MJF7M7 MJF7M7 MJF7M7 MJF7M7 MJF7MM7 MJF7MM7 MJF7MM7 MJF7MM7 MJF7MM7 MJF7MM7 MJF7MM7 MJF7MM7 MJF7MM7 MJF7MM7 MJF7MM7 MJF7MM7 MJF7MM7 MJF7MM7 MJF7MM7 MJF7MM7 MJF7MM7 MJF7MM7 MJF7MM7 MJF7MM7 MJF7MM7 MJF7MM7 MJF7MM7 MJF7MM7 MJF7MM7 MJF7MM7 MJF7MM7 MJF7MM7 MJF7MM7 MJF7MM7 MJF7MM7 MJF7MM7 MJF7MM7 MJF7MM7 MJF7MM7 MJF7MM7 MJF7MM7 MJF7MM7 MJF7MM7 MJF7MM7 MJF7MM7 MJF7MM7 MJF7MM7 MJF7MM7 MJF7MM7 MJF7MM7 MJF7MM7 MJF7MM7 MJF7MM7 MJF7MM7 MJF7MM7 MJF7MM7 MJF7MLM7 MJF7MLM7 MJF7MLM7 MJF7MLM7 MJF7MLM7 MJF7MLM7 MJF7LM7 MJF7LM7 MJF7LM7 MLJF7LM7 MLJF7LM7 MLJF7LM7 MLJF7LM7 MLJF7LM7 MLJF7LM7 MLJF7LM7 MLJF7LM7 MLJF7LM7 LJF7LM7 LJF7LM7 LJF7LM7 LJF7LM7 LJF7LM7 LJF7LM7 LJF7LM7 LJF7LM7 LJF7LM7 LJF7LM7 LJF7LM7 LJF7LM7 LJF7LM7 LJF7LM7 LJF7LM7 LJF7LM7 LJF7LML7 LJF7LML7 LJF7LML7 LJF7LML7 LJF7LML7 LJF7LML7 LJFLL7 LJFLL7 LJFLL7 LJFLL7 LJFLL7 LJFLL7 LJLL7 LJLL7 LJLL7 LJLL7 LJLL7 LJL7 LJL7 LJL7 LJL7 LJML7 LJML7 LJML7 LJML7 LJML7 LJML7 LJML7 LJML7 LJML LML LML LML LML LMML MML MML MML MML MML MML MML MML MML MML MML MML MML MML MML MML MML MML MML MML MML MML MM MM MMM MMM MMM MMM MMM MMM MMM MMLM MMLM MMLM MMLM MLM MLM MLM MLM MLM MLM MLM MLLM MLLM MLLM MLLM MLLM MLLM MLLM MLLM LLM LLM LLM LLM LLM LLM LLM LLM LLM LLM LLM LLM LLML LLML LLML LLML LLML LLML LLL LLL LLL LLL LL LL LL LL LL LL LL LL LL ML ML ML MML MML MML MML MML MML MML MML MML MML MML MML MML MML MML MML9 MM9 MEM9 MEM9 MEM9 MEM9 MEM9 ME9M9 ME9M9 ME9M9 ME9MM9 MIE9MM9 MIE9MM9 MIE9MM9 MIE9MM9 MIE9MM9 MIE9MM9 MIE9MM9 MIE9MM9 MIE9MM9 MIE9MM9 MIE9MM9 MIE9MM9 MIE9MM9 MLIE9MM9 MLIE9MM9 MLIE9MM9 MLIE9MLM9 MLIE9MLM9 MLIE9MLM9 MLIE9MLM9 MLIE9MLM9 MLIE9MLM9 MLIE9MLM9 MLIE9MLM9 MLIE9MLM9 MLIE9MLM9 MLIE9MLM9 MLIE9MLM9 MLIE9MLM9 MLIE9MLM9 MLIE9MLM9 MLIE9MLM9 MLIE9MLM9 MLIE9MLM9 MLIE9MLM9 MLIE9MLM9 LIE9LML9 LIE9LML9 LIE9LML9 LIE9LML9 LIE9LML9 LIE9LML9 LIE9LML9 LIE9LML9 LIE9LML9 LIE9LML9 LIE9LML9 LIE9LML9 LIE9LML9 LIE9LML9 LIE9LML9 LIE9LML9 LIE9LML9 LIE9LML9 LIE9LML9 LIE9LML9 LIE9LML9 LIE9LML9 LIE9LML9 LIE9LML9 LIE9LML9 LIE9LL9 LIE9LL9 LIE9LL9 LI9LL9 LI9LL9 LI9LL9 LI9LL9 LI9LL9 LI9LL9 LI9LL9 LI9LL9 LI9LL9 LI9LL9 LI9LL9 LI9LL9 LI9LL9 LI9LL9 LI9LL9 LI9LL9 JI9LL9 JI9LL9 JI9LL9 JI9LL9 JI9LL9 JI9LL9 JI9LL9 JI9LJL9 JI9LJL9 JI9LJL9 JI9LJL9 JILJL9 JILJL9 JILJL9 JILJLJ JILJLJ JILJLJ JILJLJ JILJJ JILJJ JILJJ JILJJ JLJJ JLJJ JJJ JJJ JJJ JJJ JJJ JJJ JJJ JJJ JJJ JJJ JJJ JJJ JJJ JJJ JJJ JJJ JJJ JJJ JJJ JJJ JJJ JJJ JJJ JJJ JJJ JJJ JJJ JLJJ JLJJ JLJJ JLJJ JLJJ JLJJ JLJJ JLJJ JLJJ JLJJ JLJJ JLJJ JLJJ JLJJ JLJJ JLJJ JLJJL JLJJL JLJJL JLJJL JLJLJL JLJLJL JLJLJL JLJLJL JLJLJL JLJLJL JLJLJL JLJLJL JLJLJL JLJLJL JLJLJL JLJLJL JLJLJL JLJLJL JLJLJL JLJLJL JLJLJL JLJLJL JLJLJL JLJLJL JLJLJL JLJLJL LJLJL LJLJL LJLJL LJLJL LJLJL LJLJL LJLJL LJLJL LJLJL LJLL LJLL LJLL LJLL LJLL LJLL LLL LLL LLL LLL LLL LLL LLL LLL LLL LLL LLL LLL LLL LLL LLL LLL LLL LLL LLL LLL LLL LLL LLL LLL LLL LLL LLL LMLL LMLL LMLL LMLL LMLL LML LML M M M MM MM MM MM MM MM2 MM2 MM2 MM2 M2M2 M2M2 M2M2 M2M2 M2M2 M2M2 M2M2 M2MM2 M2MM2 M2MM2 M2MM2 M2MM2 MJ2MM2 MJ2MM2 MJ2MM2 MJ2MM2 MJ2MM2 MJ2MM2 MJ2MM2 MJ2MM2 MJ2MM2 MJE2MM2 MJE2MM2 MJE2MM2 MJE2MM2 MJE2MM2 MJE2MM2 MJE2MM2 MJE2MM2 MJE2MM2 MJE2MM2 MJE2MM2 MJE2MM2 MJE2MM2 MJE2MM2 MJE2MM2 MJE2MM2 MJE2MM2 MJE2MM2 MJE2MM2 MJE2MM2 MJE2MM2 MJE2MM2 MJE2MM2 MJE2MM2 MJE2MM2 MJE2MM2 MJE2MM2 MJE2MM2 MJE2MM2 MJE2MM2 MJE2MM2 MJE2MM2 MJE2MM2 MJE2MM2 MJE2MM2 MJE2MM2 MJE2MM2 MJE2MM2 MJE2MM2 MJE2MM2 MJE2MM2 MJE2MM2 MJE2MM2 MJE2MM2 MJE2MM2 MJE2MM2 MJE2MM2 MJE2MM2 MJE2MM2 MJE2MM2 MJE2MM2 MJE2MM2 MJE2MM2 MJE2MM2 MJE2MM2 MJE2MM2 MJE2MM2 MJE2MM2 MJE2MM2 MJE2MM2 MJE2MM2 MJE2MM2 MJE2MM2 MJE2MM2 MJE2MM2 MJE2MM2 MJE2MM2 MJE2MM2 MJE2MM2 MJE2MM2 MJE2MM2 MJE2MM2 MJE2MM2 ME2MM2 ME2MM2 M2MM2 M2MM2 MMM2 MMM2 MMM2 MMM2 MMM MMM MMM MMM MMM MMM MMM MMM MMM MMM MMM MMM MMM MMM MMM MMM MMM MMM MMM MMM MMM MMM MMM MMM MMM MMM MMM MMM MMM MMM MMM MMM MMM MMM MMM MMM MMM MMM MMM MMM MMM MMM MMM MMM MMM MMM MMM MMM MMM MMM MMM MMM MMM MMM MMM MMM MMM MMM MMM MMM MMM MMM MMM MMM MMM MMM MMM MMM MMM MMM MMM MMM MMM MMM MMM MMM MMM MMM MMM MMM MMM MMM MMM MMM MMM MMM MMM MMM MMM MMM MMM MMM MMM MMM MMM MMM MMM MMM MMM MMM MMM MMM MMM MMM MMM MMM MMM MMM MMM MMM MMM MMM MMM MMM MMM MMM MMM MMM MMM MMM MMM MMM MMM MMM MMM MMM MMM MMM MMM MMM MMM MMM MMM MMM MMM M5MM M5MM M5MM M5MM M5MM M5MM5 M5MM5 M5MM5 M5MM5 M5MM5 M5MM5 M5MM5 ME5MM5 ME5MM5 ME5MM5 ME5MM5 ME5MM5 ME5MM5 E5MM5 E5MM5 E5MM5 E5MM5 E>5MM5 E>5MM5 E>5MM5 E>5M5 E>55 E>55 E>55 E>55 E>55 E>55 E>55 E>55 E>55 E>55 E>55 E>55 E>55 E>55 E>55 E>55 E>55 E>55 E>55 E>55 E>55 E>55 E>55 E>55 E>55 E>55 E>55 E>55 E>55 E>55 E>55 E>55 E>55 E>55 E>55 E>55 E>55 E>55 E>55 E>55 E>55 E>55 E>55 E>55 E>55 E>55 E>55 E>55 E>55 E>55 E>55 E>55 E>55 E>55 E>55 E>55 E>55 E>55 E>55 E>55 E>55 E>55 E>55 E>55 E>55 E>55 E>55 E>55 E>55 E>55 E>55 E>55 E>55 E>55 E>55 E>55 E>5 E> E> E> E> E> E> E> E> E> E> E> E>LL E>LL LE>LL LE>LL LE>LL LE>LL LE>LL LE>LL LE>LL LE>LL LE>LL LE>LL LE>LL LE>LL LE>LL LE>LL LE>LL LE>LL LE>LL LE>LL LE>LL LE>LL LE>LL LE>LL LE>LL LE>LL LE>LL LE>LL LE>LL LE>LL LE>LL LE>LL LE>LL LE>LL LE>LL LE>LL LE>LL LE>LL LE>LL LE>LL LE>LL LE>LL LE>LL LE>LL LE>LL LE>LL LE>LL LE>LL LE>LL LE>LL LE>LL LE>LL LE>LL LE>LL LE>LL LE>LL LE>LL LE>LL LE>LL LE>LL LE>LL LE>LL LE>LL LE>LL LE>LL LE>L LE>L LE>L LE> LE> E> E> E> E> E> E> E> E> E> E> E> E> E> E> E> E> E> E> E> E> E> E> E> E> E> E> E> E> E> E> E> E> E> E> E> E> E> E> E> E> E> E> E> E> E> E> E> E> E> E> E> E> E> E>/ E>/ E>/ E>// E>// E>// E>// E>// E>// E>// E>// JE>// JE>// JE>// JE>// JE>/J/ JE>/J/ JE>/J/ JE>/JJ/ JE>/JJ/ JE>/JJ/ JE>/JJ/ JE>/JJ/ JE>/JJ/ JE>/JJ/ JE>/JJ/ JE>/JJ/ JE>/JJ/ JE>/JJ/ JE>/JJ/ JE>/JJ/ JE>/JJ/ JE>/JJ/ JE>/JJ/ JE>/JJ/ JE>/JJ/ JE>/JJ/ JE>/JJ/ JE>/JJ/ JE>/JJ/ JE>/JJ/ JE>/JJ/ JE>/JJ/ JE>/JJ/ JE>/JJ/ JE>/JJ/ JE>/JJ/ JE>/JJ/ JE>/JJ/ JE>/JJ/ JE>/JJ/ JE>/JJ/ JE>/JJ/ JE>/JJ/ JE>/JJ/ JE>/JJ/ JE>/JJ/ JE>/JJ/ JE>/JJ/ JE>/JJ/ JE>/JJ/ JE>/JJ/ JE>/JJ/ JE>/JJ/ JE>/JJ/ JE>/JJ/ JE>/JJ/ JE>/JJ/ JE>/JJ/ JE>/JJ/ JE>/JJ/ JE>/JJ/ JE>/JJ/ JE>/JJ/ JE>/JJ/ JE>/JJ/ JE>/JJ/ JE>/JJ/ JE>/JJ/ JE>/JJ/ JE>/JJ/ JE>/JJ/ JE/JJ/ JE/JJ/ JE/JJ/ JE/JJ/ JE/JJ/ JE/JJ/ JE/JJ/ JE/JJ/ JE/JJ/ JE/JJ/ JE/JJ/ J/JJ/ J/JJ/ J/JJ/ J/JJ/ J/JJ/ J/JJ/ J/JJ/ J/JJ/ J/JJ/ J/JJ/ J/JJ/ J/JJ/ J/JJ/ J/JJ/ J/JJ/ J/JJ/ J/JJ/ J/JJ/ J/JJ/ J/JJ/ J/JJ/ J/JJ/ J/JJ/ J/JJ/ J/JJ/ J/JJ J/JJ J/JJ J/JJ J/JJ J/JJ J/JJ J/JJ J/JJ J/JJ J/JJ J/JJ J/JJ J/JJ J/JJ J/JJ J/JJ JJJ JJJ JJJ JJJ JJJ JJJ JJJ JJJ JJJ JJJ JJJ JJJ JJJ JJJ JJJ JJJ JJJ JJJ JJJ JJJ JJJ JJJ JJJ JJJ JJJ JJJ JJJ JJJ JJJ JJJ JJJ JJJ JJJ JJJ JJJ JJJ JJJ JJJ JJJ JJJ JJJ JJJ JJJ JJJ JJJ JJJ JJJ JJJ JJJ JJJ JJJ JJJ JJJ JJJ JJJ JJJ JJJ JJJ JJJ JJJ JJJ JJJ JJJ JJJ JJJ JJJ JJJ JJJ JJJ JJJ JJJ JJJ JJJ JJJ JJJ JJJ JJ JJ J J J J J J                      D D D D HD HD HD4 HD4 HD4 HD4H HD4H HD4H HD4H HD4H4 HD4H4 HD4H4 HD4H4 HD4H4 HD4H4 HD4HH4 HD4HH4 HD4HH4 HD4HH4 HD4HH4 HD4HH4 HD4HH4 HD@4HH4 HD@4HH4 HD@4HH4 HD@4HH4 HD@4HH4 HD@4HH4 HD@4HH4 HD@4HH4 HD@4HH4 HD@4HH4 HD@4HH4 HD@4HH4 HD@4HH4 HD@4HH4 HD@4HH4 HD@4HH4 HD@4HH4 HD@4HH4 HD@4HH4 HD@4HH4 HD@4HH4 HD@4HH4 HD@4HH4 HD@4HH4 HD@4HH4 HD@4HH4 HD@4HH4 HD@4HH4 HD@4HH4 HD@4HH4 HD@4HH4 HD@4HH4 HD@4HH4 HD@4HH4 HD@4HH4 HD@4HH4 HD@4HH4 HD@4HH4 HD@4HH4 HD@4HH4 HD@4HH4 HD@4HH4 HD@4HH4 HD@4HH4 HD@4HH4 HD@4HH4 HD@4HH4 HD@4HH4 HD@4HH4 HD@4HH4 HD@4HH4 HD@4HH4 HD@4HH4 HD@4HH4 HD@4HH4 HD@4HH4 HD@4HH4 HD@4HH4 D@4HH4 D@4HH4 D@4HH4 D@4HH4 D@4HH4 D@4HH4 D@4HH4 D@4H4 D@4H4 D@4H4 D@4H4 D@4H4 D@4H4 D@4H4 D@4H4 @4H4 @4H4 G@4H4 G@4H4 G@4H4 G@4H4 G@4H4 G@4H4 G@4H4 G@4H4 G@4H4 G@4H4 G@4H4 G@4H4 G@4H4 G@4HG4 G@4HG4 G@4HG4 G@4HG45 G@4HG45 G@5HG45 G@5HGG45 G@5HGG5 G@5HGG5 G@5HGG5 G@5HGG5 G@5HGG5 G@5HGG5 G@5HGG5 G@5HGG5 G@5HGG5 G@5HGG5 G@5HGG5 G@5HGG5 G@5HGG5 G@5GG5 G@5GG5 G@5GG5 G@5GG5 G@5GG5 G@5GG5 G@5GG5 G@5GG5 G@5GG5 G@5GG5 G@5GG5 G@5GG5 G@5GG5 G@5GG5 G@5GG5 G@5GG5 G5GG5 G5GG5 G5GG5 G5GG5 G5GG5 G5GG5 G5GG5 G5GG5 G5GG5 G5GG5 G5GG5 G5GG5 G5GG5 G5GG5 G5GG5 G5GG5 G5GG5 G5GG5 G5GG5 G5GG5 G5GG5 G5GG5 G5GG5 G5GG5 G5GG5 G5GG5 G5GG5 G5GG5 G5GG5 G5GG5 G5GG5 G5GG5 G5GG5 5GG5 5GG5 5GG5 5GG5 5GG5 5GG5 5G5 5G5 5G5 55 55 55 55 55 55 55 55 55 55 55 55 55 55 55 5 5 5 5 5                           44 44 44 H44 H44 HE44 HE44 HE44 HE4H4 HE4H4 HE4H4 HE4H4 HE4H4 HE4H4 HE4H4 HE4H4 HE4HH4 HE4HH4 HE4HH4 HE4HH4 HE4HH4 HE4HH4 HE4HH4 HE4HH4 HE4HH4 HE4HH4 HE4HH4 HEA4HH4 HEA4HH4 HEA4HH4 HEA4HH4 HEA4HH4 HEA4HH4 HEA4HH4 HEA4HH4 HEA4HH4 HEA4HH4 HEA4HH4 HEA4HH4 HEA4HH4 HEA4HH4 HEA4HH4 HEA4HH4 HEA4HH4 HEA4HH4 HEA4HH4 HEA4HH4 HEA4HH4 HEA4HH4 HEA4HH4 HEA4HH4 HEA4HH4 HEA4HH4 HEA4HH4 HEA4HH4 HEA4HH4 HEA4HH4 HEA4HH4 HEA4HH4 HEA4HH4 HEA4HH4 HEA4HH4 HEA4HH4 HEA4HH4 HEA4HH4 HEA4HH4 HEA4HH4 HEA4HH4 HEA4HH4 HEA4HH4 HEA4HH4 HEA@4HH4 HEA@4HH4 HEA@4HH4 HEA@4HH4 HEA@4HH4 HEA@4HH4 HEA@4HH4 HE@4HH4 HE@4HH4 HE@4HH4 HE@4HH4 HE@4HH4 HE@4HH4 HE@4HH4 HE@4HH4 HE@4HH4 HE@4HH4 HE@4HH4 HE@4HH4 HE@4HH4 HE@4HH4 HE@4HH4 HE@4HH4 HE@4HH4 HE@4HH4 HE@4HH4 HE@4HH4 HE@4HH4 HE@4HH4 HE@4HH4 HE@4HH4 HE@HH4 HE@HH4 HE@HH4 HE@HH4 HE@HH4 HE@HH4 HE@HH4 HE@HH4 HE@HH4 HE@HH4 HE@HH4 HE@2HH4 HE@2HH4 HE@2HH4 HE@2HH42 HE@2HH42 HE@2HH42 HE@2HH42 HE@2HH42 HE@2HH42 HEA2HH42 HEA2HH42 HEA2HH42 HEA2HH42 HEA2HH42 HEA2HH42 HEA2HH42 HEA2HH42 HEA2HH42 HEA2HH2 HEA2HH2 HEA2HH2 HEA2HH2 HEA2HH2 HEA2HH2 HEA2HH2 HEA2HH2 HEA2HH2 HEA2HH2 HEA2HH2 HEA2HH2 HEA2HH2 HEA2HH2 HEA2HH2 HEA2HH2 HEA2HH2 HEA2HH2 HEA2HH2 HEA2HH2 HEA2HH2 HEA2HH2 HEA2HH2 HEA2HH2 HEA2HH2 HEA2HH2 HEA2HH2 HEA2HH2 HEA2HH2 HEA2HH2 HEA2HH2 HEA2HH2 HEA2HH2 HEA@2HH2 HEA@2HH2 HEA@2HH2 HEA@2HH2 HEA@2HH2 HEA@2HH2 HEA@2HH2 HEA@2HH2 HEA@2HH2 HEA@2HH2 HEA@2HH2 HEA@2HH2 HEA@2HH2 HEA@2HH2 HEA@2HH2 HEA@2HH2 HEA@2HH2 HEA@2HH2 HEA@2HH2 HEA@2HH2 HEA@2HH2 HEA@2HH2 HEA@2HH2 HEA@2HH2 HEA@2HH2 HEA@2HH2 HEA@2HH2 HEA@2HH2 HEA@2HH2 HEA@2HH2 HEA@2HH2 HEA@2HH2 HEA@2HH2 HEA@2HH2 HE@2HH2 HE@2HH2 HE@2HH2 HE@2HH2 HE@2HH2 HE@2HH2 HE@2HH2 HE@2HH2 HE@2HH2 HE@2HH2 HE@2HH2 HE@2HH2 HE@2HH2 HE@2HH2 HE@2HH2 HE@2HH2 HE@2HH2 HE@HH2 HE@HH2 HE@HH2 HE@HH2 HE@HH2 HE@HH2 HE@HH2 HE@HH2 HE@HH2 HE@HH2 HE@HH2 HE@HH2 HE@HH2 HE@HH2 HE@HH2 HE@HH2 HE@HH2 HE@HH2 HE@HH2 HE@HH2 HE@HH2 HE@HH2 HE@HH2 HE@0HH2 HE@0HH2 HE@0HH2 HE@0HH2 HE@0HH2 HE@0HH2 HE@0HH2 HE@0HH2 HE@0HH0 HE@0HH0 HE@0HH0 HE@0HH0 HE@0HH0 HE@0HH0 HE@0HH0 H@0HH0 H@0HH0 H@0HH0 H@0HH0 H@0HH0 H@0HH0 H0HH0 H0HH0 H0HH0 H0HH0 H0HH0 H0HH0 H0HH0 H0HH0 H0HH0 H0HH0 H0HH0 H0HH0 H0HH0 H0HH0 H0HH0 H0HH0 H0HH0 H0HH0 0HH0 0HH0 0H0 0H0 0H0 0H0 0H0 0H0 0H0 0H0 0H0 0H0 0H0 0H0 0H0 0H0 00 00 00 00 00 00 00 00 00 00 00 00 00 00 00 00 00 00 00 00 00 00 00 00 00 00 00 00 00 00 00 00 00 00 00 00 00 00 00 00 00 00 0 0 0 0 0 0 0 0 0 0 0 0 0 0 0 0 0 0 0 0 J0 J0 J0/ J0/ J/ J/ J/J/ JG/J/ JG/J/ JG/J/ JG/J/ JG/J/ JG/J/ JG/J/ JG/JJ/ JG/JJ/ JG/JJ/ JG/JJ/ JG/JJ/ JG/JJ/ JG/JJ/ JG/JJ/ JG>/JJ/ JG>/JJ/ JG>/JJ/ JG>/JJ/ JG>/JJ/ JG>/JJ/ JG>/JJ/ JG>/JJ/ JG>/JJ/ JG>/JJ/ JG>/JJ/ JG>/JJ/ JG>/JJ/ JG>/JJ/ JG>/JJ/ JG>/JJ/ JG>/JJ/ JG>/JJ/ JG>/JJ/ JG>/JJ/ JG>/JJ/ JG>/JJ/ JG>/JJ/ JG>/JJ/ JG>/JJ/ JG>/JJ/ JG>/JJ/ JG>/JJ/ JG>/JJ/ JG>/JJ/ JG>/JJ/ JG>/JJ/ JG>/JJ/ JG>/JJ/ JG>/JJ/ JG>/J/ JG>/J/ JG>/J/ JG>/J/ JG>/J/ JG>/J/ JG>/J/ JG>/J/ JG>// JG>// JG>// G>// G>// G>// G>// G>// G>// G>// G>// G>// G>// G>// G>// >// >// >// >// >// >// >// >// >// >// >// >// >// >// >// >// >// // // // // /                       L L L L L L L L L@ L@ L@ L@ L@ L@0 L@L0 L@L0 L@L0 L@LL0 L@0LL0 L@0LL0 L@E0LL0 L@E0LL0 L@E0LL0 L@E0LL0 L@E0LL0 L@E0LL0 L@E0LL0 L@E0LL0 L@E0LL0 L@E0LL0 L@E0LL0 L@E0LL0 L@E0LL0 L@E0LL0 L@E0LL0 L@E0LL0 L@E0LL0 L@E0LL0 L@E0LL0 L@E0LL0 L@E0LL0 L@E0LL0 L@E0LL0 L@E0LL0 L@E0LL0 L@E0LL0 L@E0LL0 L@E0LL0 L@E0LL0 L@E0LL0 L@E0LL0 L@E0LL0 L@E0LL0 L@E0LL0 L@E0LL0 L@E0LL0 L@E0LL0 L@E0LL0 L@E0LL0 L@E0LL0 L@E0LL0 L@E0LL0 L@E0LL0 L@E0LL0 L@E0LL0 L@E0LL0 L@E0LL0 L@E0LL0 L@E0LL0 L@E0LL0 L@E0LL0 L@E0LL0 L@E0LL0 L@E0LL0 L@E0LL0 L@E0LL0 L@E0LL0 L@E0LL0 L@E0LL0 L@E0LL0 L@E0LL0 L@E0LL0 L@E0LL0 L@E0LL0 L@E0LL0 L@E0LL0 L@E0LL0 L@E0LL0 L@E0LL0 L@E0LL0 L@E0LL0 L@E0LL0 L@E0LL0 L@E0LL0 L@E0LL0 L@E0LL0 L@E0LL0 L@E0LL0 L@E0LL0 L@E0LL0 L@E0LL0 L@E0LL0 L@E0LL0 L@E0LL0 L@E0LL0 L@E0LL0 L@E0LL0 L@E0LL0 L@E0LL0 L@E0LL0 L@E0LL0 L@E0LL0 L@E0LL0 L@E0LL0 L@E0LL0 L@E0LL0 L@E0LL0 LE0LL0 LE0LL0 LELL0 LELL0 LELL0 LELL0 LELL0 LELL LELL LELL LELL LELL LELL LELL LELL LELL LELL LELL LELL LELL LELL LELL LELL LELL LELL LELL LELL LELL LELL LELL LELL LELL LELL LELL LELL LELL LELL LELL LELL LELL LELL LELL LLL LLL LLL LLL LLL LLL LLL LLL LLL LLL LLL LLL LLL LLL LLL LLL LLL LLL LLL LLL LLL LLL LLL LLL LLL LLL LLL LLL LLL LLL LLL LLL LLL LLL LLL LLL LLL LLL LLL LLL LLL LLL LLL LLL LLL LLL LLL LLL LLL LLL LLL LLL LLL LLL LLL LLL LLL LLL LLL LLL LLL LLL LLL LLL LLL LLL LLL LLL LLL LLL LLL LLL LLL LLL LLL LLL LLL LLL LLL LLL LLL LLL LLL LLL LLL LLL LLL LLL LLL LLL LLL LLL LLL LLL LLL LLL LLL LLL LLL LLL LELL2 LELL2 LELL2 LELL2 LELL2 LELL2 LELL2 LELL2 LE>LL2 E>2LL2 E>2LL2 E>2LL2 E>2LL2 E>2LL2 E>2LL2 E>2LL2 E>2LL2 E>2L2 E>2L2 E>2L2 E>2L2 E>2L2 E>2L2 E>2L2 E>2L2 E>2L2 E>2L2 E>22 E>22 E>22 E>22 E>22 E>22 E>22 E>22 E>22 E>22 E>22 E>22 E>22 E>22 E>22 E>22 E>22 E>22 E>22 E>22 E>22 E>22 E>22 E>22 E>22 E>22 E>22 E>22 E>22 E>22 E>22 E>22 E>22 E>22 E>22 E>22 E>22 E>22 E>22 E>22 E>22 E>22 E>22 E>22 E>22 E>22 E>22 E>22 E>22 E>22 E>22 E>22 E>22 E>22 E>22 E>22 E>22 E>22 E>22 E>22 E>22 E>22 E>22 E>22 NE>22 NE>22 NE>22 NE>22 NE>22 NE>22 NE>22 NE>22 NE>22 NE>22 NE>2 NE>N2 NE>N2 NE>N2 NE>N2 N>N2 N>NN2 N>NN N>NN N>NN N>NN N>NN N>NN N>NN N>NN N>NN N>NN N>NN N>NN N>NN N>NN N>NN N>NN N>NN N>NN N>NN N>NN N>NN N>NN N>NN N>NN N>NN N>NN N>NN N>NN N>NN N>NN N>NN N>NN N>NN N>NN N>NN N>NN N>NN N>NN N>NN N>NN N>NN N>NN N>NN N>NN N>NN N>NN N>NN N>NN N>NN N>NN N>NN N>NN N>NN N>NN N>NN N>NN N>NN N>NN N>NN N>NN N>NN N>NN N>NN N>NN N>NN N>NN N>NN N>NN N>NN N>NN N>NN >NN >NN >NN >NN >NN >NN >NN > > > > > > > > > > > > > > > > > > > > > > > > > > > > > > > > > P> P> P> P> P> P> P> P> P> P> P> P> P> P> P> P> P> P>/ P>/ P>/ PG>// PG>// PG>/P/ PG>/P/ PG>/P/ PG>/P/ PG>/P/ PG>/PP/ PG>/PP/ PG>/PP/ PG>/PP/ PG>/PP/ PG>/PP/ PG>/PP/ PG>/PP/ PG>/PP/ PG>/PP/ PG>/PP/ PG>/PP/ PG>/PP/ PG>/PP/ PG>/PP/ PG>/PP/ PG>/PP/ PG>/PP/ PG>/PP/ PG>/PP/ PG>/PP/ PG>/PP/ PG>/PP/ PG>/PP/ PG>/PP/ PG>/PP/ PG>/PP/ PG>/PP/ PG>/PP/ PG>/PP/ PG>/PP/ PG>/PP/ PG>/PP/ PG>/PP/ PG>/PP/ PG>/PP/ PG>/PP/ PG>/PP/ PG>/PP/ PG>/PP/ PG>/PP/ PG>/PP/ PG>/PP/ PG>/PP/ PG>/PP/ PG>/PP/ PG>/PP/ PG>/PP/ PG>/PP/ PG>/PP/ G>/PP/ G>/PP/ G>/PP/ G>/PP/ G>/PP/ G>/PP/ G>/PP/ G>/PP/ G>/PP/ G/PP/ G/PP/ G/PP/ G/PP/ G/PP/ G/PP/ G/PP/ G/PP/ G/P/ G/P/ G/P/ G// G// G// G// G// G// G// G// G// G// G// G// G// G// G// G// G// G// G// G// G// G// G// G// G// G// G// G// G// // // // //                                                                                                                  - - - QH- QH- QH- QH- QH- QH- QH- QH- QH- QH-- QH-- QH-- QH-- QH-- QH-Q- QH-Q- QH-Q- QH@-QQ- QH@-QQ- QH@-QQ- QH@-QQ- QH@-QQ- QH@-QQ- QH@-QQ- QH@-QQ- QH@-QQ- QH@-QQ- QH@-QQ- QH@-QQ- QH@-QQ- QH@-QQ- QH@-QQ- QH@-QQ- QH@-QQ- QH@-QQ- QH@-QQ- QH@-QQ- QH@-QQ- QH@-QQ- QH@-QQ- QH@-QQ- QH@-QQ- QH@-QQ- QH@-QQ- QH@-QQ- QH@-QQ- QH@-QQ- QH@-QQ- QH@-QQ- QH@-QQ- QH@-QQ- QH@-QQ- QH@-QQ- QH@-QQ- QH@-QQ- QH@-QQ- QH@-QQ- QH@-QQ- QH@-QQ- QH@-QQ- QH@-QQ- QH@-QQ- QH@-QQ- QH@-QQ- QH@-QQ- QH@-QQ- QH@-QQ- QH@-QQ- QH@-QQ- QH@-QQ- QH@-QQ- QH@-QQ- QH@-QQ- H@-QQ- H@-QQ- H@-Q- H@-Q- H@-Q- H@-Q- H@-Q- H@-Q- H@-Q- H@-Q- H@-Q- H@-Q- H@-Q- H@-- H@-- H@-- H@-- H@-- H@-- H@-- H@-- H@-- H@-- H@-- H@-- H@-- H@-- H@-- H@-- H@-- H@-- @-- @-- -- -- -- -- -- -- -- -- -- -- -- -- -- -- -- -- -- -- -- -- - - - - - - - -                                                                                                        G G G G G G G, G, G, G, GG, GG, GG, GG,G GG,GG GG,GG GG,GG GG,GG GG,GG GG,GG, GG,GG, GG,GG, GG@,GG, GG@,GG, GG@,GG, GG@,GG, GG@,GG, GG@,GG, GG@,GG, GG@,GG, GG@,GG, GG@,GG, GG@,GG, GG@,GG, GG@,GG, GG@,GG, GG@,GG, GG@,GG, GG@,GG, GG@,GG, GG@,GG, GG@,GG, GG@,GG, GG@,GG, GG@,GG, GG@,GG, GG@,GG, GG@,GG, GG@,GG, GG@,GG, GG@,GG, GG@,GG, GG@,GG, GG@,GG, GG@,GG, GG@,GG, GG@,GG, GG@,GG, GG@,GG, GG@,GG, GG@,GG, GG@,GG, GG@,GG, GG@,GG, GG@,GG, GG@,GG, GG@,GG, GG@,GG, GG@,GG, GG@,GG, GG@,GG, GG@,GG, GG@,GG, GG@,GG, GG@,GG, GG@,GG, GG@,GG, GG@,GG, GG@,GG, GG@,GG, GG@,GG, GG@,GG, GG@,GG, GG@,GG, GG@,GG, GG@,GG, GG@,GG, GG@,GG, GG@,GG, GG@,GG, GG@,GG, GG@,GG, GG@,GG, GG@,GG, GG@,GG, GG@,GG, GG@,GG, GG@,GG, GG@,GG, GG@,GG, GG@,GG, GG@,GG, GG@,GG, GG@,GG, GG@,GG, GG@,GG, GG@,GG, GG@,GG, GG@,GG, GG@,GG, GG@GG, GG@GG, GG@GG, GG@GG, GGGG, GGGG, GGGG, GGGG, GGGG, GGG GGG GGG GGG GGG GGG GGG GGG GGG GGG GGG GGG GGG GGG GGG GGG GGG GGG GGG GGG GGG GGG GGG GGG GGG GGG GGG GGG GGG GGG GGG GGG GGG GGG GGG GGG GGG GGG GGG GGG GGG GGG GGG GGG GGG GGG GGG GGG GGG GGG GGG GGG GGG GGG GGG GGG GGG GGG GGG GGG GGG GGG GGG GGG GGG GGG GGG GGG GGG GGG GGG GGG GGG GGG GGG GGG GGG GGG GGG GGG GGG GGG GGG GGG GGG GGG GGG GGG GGG GGG GGG GGG GGG GGG GGG GGG GGG GGG GGG GGG GGG GGG GGG GGG GGG GGG GGG GGG GGG GGG GGG GGG GGG GGG GGG GGG GGG GGG GGG GGG GGG GGG GGG GGG GGG GGG GGG GGG GGG GGG GGG GGG GGG GGG- GGG- GGG- GGG- G-GG- G-GG- G-GG- G-GG- GE-GG- GE-GG- GE-GG- GE@-GG- GE@-GG- GE@-GG- GE@-GG- GE@-GG- GE@-GG- GE@-GG- GE@-GG- GE@-GG- GE@-GG- GE@-GG- GE@-GG- GE@-GG- GE@-GG- GE@-GG- GE@-GG- GE@-GG- GE@-GG- GE@-G- GE@-G- GE@-G- GE@-G- GE@-G- GE@-G- GE@-G- GE@-G- GE@-G- GE@-- GE@-- E@-- E@-- E@-- E@-- E@-- E@-- E@-- E@-- E@-- E@-- E@-- E@-- E@-- E@-- E@-- E@-- E@-- E@-- E@-- E@-- E@-- E@-- E@-- E@-- E@-- E@-- E@-- E@-- E@-- E@-- E@-- E@-- E@-- E@-- E@-- E@-- E@-- E@-- E@-- E@-- E@-- E@-- E@-- E@-- E@-- E@-- E@-- E@-- @-- @-- @-- @-- @-- @-- @-- @-- @-- @-- @-- @-- @-- @-- @-- @-- @-- @-- -- -- H- H- H- H- H- H- H- HH- HH- HH- HH- HH HHH HHH HHH HHH HHH HHH HHH HHH HHH HHH HHH HHH HHH HHH HHH HHH HHH HHH HHH HHH HHH HHH HHH HHH HHH HHH HHH HHH HHH HHH HHH HHH HHH HHH HHH HHH HHH HHH HHH HHH HHH HHH HHH HHH HHH HHH HHH HHH HHH HHH HHH HHH HHH HHH HHH HH HH HH HH HH HH HH HH HH H H H H H H H                                          J J J J J J* J* J* J* J* J* J* J* J9*J* JE9*J* JE9*J* JE9*J* JE9*J* JE9*J* JE9*J* JE9*J* JE9*JJ* JE9*JJ* JE9*JJ* JE9*JJ* JE9*JJ* JE9*JJ* JE9*JJ* JE9*JJ* JE9*JJ* JE9*JJ* JE9*JJ* JE9*JJ* JE9*JJ* JE9*JJ* JE9*JJ* JE9*JJ* JE9*JJ* JE9*JJ* JE9*JJ* JE9*JJ* JE9*JJ* JE9*JJ* JE9*JJ* JE9*JJ* JE9*JJ* JE9*JJ* JE9*JJ* JE9*JJ* JE9*JJ* JE9*JJ* JE9*JJ* JE9*JJ* JE9*JJ* JE9*JJ* JE9*JJ* JE9*JJ* JE9*JJ* JE9*JJ* JE9*JJ* JE9*JJ* JE9*JJ* JE9*JJ* JE9*JJ* JE9*JJ* JE9*JJ* JE9*JJ* JE9*JJ* JE9*JJ* JE9*JJ* JE9*JJ* JE9*JJ* JE9*JJ* JE9*JJ* JE9*JJ* JE9*JJ* JE9*JJ* JE9*JJ* JE9*JJ* JE9*JJ* JE9*JJ* JE9*JJ* J9*JJ* J9*JJ* J9*JJ* J9*JJ* J9*JJ* J9*JJ* J9*JJ* J9*JJ* J9*JJ* J9*JJ* J9*JJ* J9*JJ* J9*JJ* J9*JJ* J9*JJ* J9*JJ* J9*JJ* J9*JJ* J9JJ* J9JJ* J9JJ* J9JJ* J9JJ* J9JJ* J9JJ* J9JJ* J9JJ* J9JJ* J9JJ* J9JJ* J9JJ* J9JJ* J9JJ* JJJ* JJJ* JJJ JJJ JJJ JJJ JJJ JJJ JJJ JJJ JJJ JJJ JJJ JJJ JJJ JJJ JJJ JJJ JJJ JJJ JJJ JJJ JJJ JJJ JJJ JJJ JJJ JJJ JJJ JJJ JJJ JJJ JJJ JJJ JJJ JJJ JJJ JJJ JJJ JJJ JJJ JJJ JJJ JJJ JJJ JJJ JJJ JJJ JJJ JJJ JJJ JJJ JJJ JJJ JJJ JJJ JJJ JJJ JJJ JJJ JJJ JJJ JJJ JJJ JJJ JJJ JJJ JJJ JJJ JJJ JJJ JJJ JJJ JJJ JJJ JJJ JJJ JJJ JJJ JJJ JJJ JJJ JJJ JJJ JJJ JJJ JJJ JJJ JJJ JJJ JJJ JJJ JJJ JJJ JJJ JJJ JJJ JJJ JJJ JJJ JJJ JJJ JJJ JJJ JJJ JJJ JJJ JJJ JJJ JJJ JJJ JJJ JJJ JJJ JJJ JJJ JJJ JJJ JJJ JJJ JJJ JJJ J,JJ J,JJ J,JJ J,JJ J,JJ J,JJ J,JJ J,J J,J J,J J,J J,J J,J @,J @,J G@,J G@,J G@,J G@,J G@,J G@,J, G@,J, G@,J, G@,J, G@,J, G@,J, G@,J, G@,J, G@,J, G@,J, G@,J, G@,J, G@,J, G@,J, G@,, G@,, G@,, G@,, G@,, G@,, G@,, G@,, G@,, G@,, G@,, G@,, G@,, G@,, G@,, G@,, G@,, G@,, G@,, G@,, G@,, G@,, G@,, G@,, G@,, G@,, G@,, G@,, G@,, G@,, G@,, G@,, G@,, G@,, G@,, G@,, G@,, G@,, G@,, G@,, G@,, G@,, G@,, G@,, G@,, G@,, G@,, G@,, G@,, G@,, G@,, G@,, G@,, G@,, G@,, G@,, G@,, G@,, G@,, G@,, G@,, G@,, G@,, G@,, G@,, G@,, G@,, G@,, G@, G@, G@, G@, G@, G@, G@, LG@, LG@, LG@, LG@, LG, LG, LG, LG, LG, LG, LG, LG, LG, LG, LG, LG LG LG LG LG LG LG LGL LGL LGLL LGLL LGLL LGLL LGLL LGLL LGLL LGLL LGLL LGLL LGLL LGLL LGLL LGLL LGLL LGLL LGLL LGLL LGLL LGLL LGLL LGLL LGLL LGLL LGLL LGLL LGLL LGLL LGLL LGLL LGLL LGLL LGLL LGLL LGLL LGLL LGLL LGLL LGLL LGLL LGLL LGLL LGLL LGLL LGLL LGLL LGLL LGLL LGLL GLL GLL GLL GLL GLL GLL GLL GLL GLL GLL GLL GLL GLL GLL GL GL GL GL GL G G G G G G G G G G G G G G G G G G G G G G G G G G G G G G G G G G HG HG HG HG HG HG HG HG HG- HG- HG- HG- HG- HG- HG- HG- HG- HG@-- HG@-- HG@-- HG@-- HG@-- HG@-- HG@-H- HG@-HH- HG@-HH- HG@-HH- HG@-HH- HG@-HH- HG@-HH- HG@-HH- HG@-HH- HG@-HH- HG@-HH- HG@-HH- HG@-HH- HG@-HH- HG@-HH- HG@-HH- HG@-HH- HG@-HH- HG@-HH- HG@-HH- HG@-HH- HG@-HH- HG@-HH- HG@-HH- HG@-HH- HG@-HH- HG@-HH- HG@-HH- HG@-HH- HG@-HH- HG@-HH- HG@-HH- HG@-HH- HG@-HH- HG@-HH- HG@-HH- HG@-HH- HG@-HH- HG@-HH- HG@-HH- HG@-HH- HG@-HH- HG@-HH- HG@-HH- HG@-HH- HG@-HH- HG@-HH- HG@-HH- HG@-HH- HG@-HH- HG@-HH- HG@-HH- HG@-HH- HG@-HH- HG@-HH- HG@-HH- HG@-HH- HG@-HH- HG@-HH- HG@-HH- HG@-HH- HG@-HH- HG@-HH- HG@-HH- HG@-HH- HG@-HH- HG@-HH- HG@-HH- HG@-HH- HG@-HH- HG@-HH- HG@-HH- HG@-HH- HG@-HH- HG@-HH- HG@-HH- HG@-HH- HG@-HH- HG@-HH- HG@-HH- HG@-HH- HG@-HH- HG@-HH- HG@-HH- HG@-HH- HG@-HH- HG@-HH- HG@-HH- HG@-HH- HG@-HH- HG@-HH- HG@-HH- HG@-HH- HG@-HH- HG@-HH- HG@-HH- HG@-HH- HG@-HH- HG@-HH- HG@-HH- HG@-HH- HG@-HH- HG@-HH- HG@-HH- HG@-HH- HG@-HH- HG@-HH- HG@-HH- HG@-HH- HG-HH HG-HH HG-HH HGHH HGHH HGHH HGHH HGHH HGHH HGHH HGHH HGHH HHH HHH HHH HHH HHH HHH HHH HHH HHH HHH HHH HHH HHH HHH HHH HHH HHH HHH HHH HHH HHH HHH HHH HHH HHH HHH HHH HHH HHH HHH HHH HHH HHH HHH HHH HHH HHH HHH HHH HHH HHH HHH HHH HHH HHH HHH HHH HHH HHH HHH HHH HHH HHH HHH HHH HHH HHH HHH HHH HHH HHH HHH HHH HHH HHH HHH HHH HHH HHH HHH HHH HHH HHH HHH HHH HHH HHH HHH HHH HHH HHH HHH HHH HHH HHH HHH HHH HHH HHH HHH HHH HHH HHH HHH HHH HHH HHH HHH HHH HHH HHH HHH HHH HHH HHH HHH HAHH HAHH HAHH HAHH HAHH HAHH HAHH HEAHH2 HEAHH2 HEA2HH2 HEA2HH2 HEA2HH2 HEA2HH2 HEA2HH2 HEA2HH2 HEA2HH2 HEA2HH2 EA2HH2 EA2HH2 EA2HH2 EA2HH2 EA2HH2 EA2HH2 EA2HH2 EA2HH2 EA2HH2 EA2HH2 EA2HH2 EA2HH2 EA2HH2 EA2HH2 EA2HH2 EA2HH2 EA2HH2 EA2HH2 EA2HH2 EA2HH2 EA2HH2 EA2H2 EA2H2 EA2H2 EA2H2 EA2H2 EA2H2 EA2H2 EA2H2 EA2H2 EA2H2 EA2H2 EA22 EA22 EA22 EA22 EA22 EA22 EA22 EA22 EA22 EA22 EA22 EA22 EA22 EA22 EA22 EA22 EA22 EA22 EA22 EA22 EA22 EA22 EA22 EA22 EA22 EA22 EA22 EA22 EA22 EA22 EA22 EA22 EA22 EA22 EA22 EA22 EA22 EA22 EA22 EA22 EA22 EA22 EA22 EA22 EA22 EA22 EA22 EA22 EA22 EA22 EGA22 EGA22 EGA22 EGA22 EGA22 EGA2 EGA2 EGA2 EGA2 EGA2 EGA2 EGA2 EGA2 EGA2 EGA EGA GA GA GGA GGA GGA GGA GGA GGA GGA GGA GGA GGA GGA GGA GGA GGAG GGAG GGAG GGG GGG GGG GGG GGG GGG GGG GGG GGG GGG GGG GGGG GGGG GGGG GGGG GGGG GGGG GGGG GGGG GGGG GGGG GGGG GGGG GGGG GGGG GGGG GGGG GGGG GGGG GGGG GGGG GGGG GGGG GGGG GGGG GGG GGG GGG GGG GGG GGG GGG GGG GGG GG GG GG GG GG GG GG GG GG GG GG G G G G G G G G G G                                 E E E E E E E E E E E E44 E44 E44 E44 E44 E4H4 E4H4 E4H4 E4H4 E4H4 E4H4 E4H4 E4H4 E4H4 E@4H4 E@4H4 E@4HH4 E@4HH4 E@4HH4 E@4HH4 E@4HH4 E@4HH4 E@4HH4 E@4HH4 HE@4HH4 HE@4HH4 HE@4HH4 HE@4HH4 HE@4HH4 HE@4HH4 HE@4HH4 HE@4HH4 HE@4HH4 HE@4HH4 HE@4HH4 HE@4HH4 HE@4HH4 HE@4HH4 HE@4HH4 HE@4HH4 HE@4HH4 HE@4HH4 HE@4HH4 HE@4HH4 HE@4HH4 HE@4HH4 HE@4HH4 HE@4HH4 HE@4HH4 HE@4HH4 HE@4HH4 HE@4HH4 HE@4HH4 HE@4HGH4 HE@4HGH4 HE@4HGH4 HE@4HGH4 HE@4HGH4 HE@4HGH4 HE@4HGH4 HE@4GH4 HE@4GH4 HE@4GH4 HE@4GHG4 HE@4GHG4 HE@4GG4 HE@4GG4 HE@4GG4 HE@4GG4 HE@4GG4 HE@4GG4 HE@4GG4 HE@4GG4 HE@4GG4 HE@4GG4 HE@4GG4 HE@4GG4 HE@4GG4 HE@4GG4 HE@4GG4 HE@4GG4 HE@4GG4 HE@4GG4 HE@4GG4 HE@4GG4 HE@4GG4 HE@4GG4 HE@4GG4 HE@4GG4 HE@4GG4 HE@4GG4 HED@4GG4 HED@4GG4 HED4GG HED4GG HED4GG HED4GG HD4GHG HDGHG HDGHG HDHG HDHG HDHG HDHG HDHG HDHG HDHG HDHGH HDHGH HGDHGH HGDHGH HGDHGH HGDHGH HGDHGH HGDHGH HGDHGH HGDHGH HGDHGH HGDHGH HGDHGH HGDHGH HGDHGH HGDHGH HGDHH HGDHH HGDHH HGDHH HGDHH GDHH GDHH GDHH GDHH GDHH GHH GHH GHH GHH GEHH GEHH GEHH GEHH GEHH GEHH GEHH GEHH GEHH GEHGH GEHGH GEHGH GEHGH GEHGH GEHGHG GEHGHG GEHGHG GEHGHG GEHGHG GEHGHG GEHGHG GEHGHG GEHGHG GEHGHG GEHGHG GEHGHG GEHGHG GHEHGHG GHEHGHG GHEHGHG GHEHGHG GHEGHG GHEGHG GHEGHG HEGHG HEGHG HEGHG HEGG HEGG HEGG HEGG HEGG HEGG HEGG HEGG HEDGG HEDGG HEDGG HEDGG HEDGG HEDGG HEDGG HEDGG HEDGG HEDGG HEDGG HEDGG HEDGG HEDGG HEDGG HEDGG HEDGG HEDGG HEDGG HEDGG HDGG HDGG HDGG HDGG HDGG HDGG HGDGG HGDGG HGDGG HGDGG HGDGG HGDGG HGDGG HGDGG HGDGG HGDGG HGDGG HGDGG HGDGG HGDGG HGDGG HGDGG HGDGG HGDGG HGDGG HGDGG HGDGG HGDGG HGDGG HGDGG HGD(GG GD(GG( GD(GG( GD(GG( GD(GG( GD(GG( GD(GG( GD(GG( GD(GG( GD(GG( GD(GG( GD(GG( GD>(GG( GD>(GG( GD>(GG( GD>(GG( GD>(GG( GD>(GG( GD>(GG( GD>(GG( GD>(GG( GD>(GG( GD>(GG( GD>(GG( GD>(GG( GD>(GG( GD>(GG( GD>(GG( GD>(GG( GD>(GG( GD>(GG( GD>(GG( GD>(GG( GD>(GG( GD>(GG( GD>(GG( GD>(GG( GD>(GG( GD>(GG( GD>(GG( GD>(GG( GD>(GG( GD>(GG( GD>(GG( GD>(GG( GD>(GG( GD>(GG( GD>(GG( GD>(GG( GD>(GG( GD>(GG( GD>(GG( GD>(GG( GD>(GG( GD>(GG( GD>(GG( GD>(GG( GD>(GG( GD>(GG( GD>(GG( GD>(GG( GD>(GG( GD>(GG( GD>(G( GD>(G( GD>(G( GD>(G( GD>(G( GD>(G( GD>(G( GD>(( GD>( GD>( GD>( GD>( GD>( GD>( GD>( GD( GD( GD( GD( GD( GD( GD( GD( GD( GD( GD( GD( GD( GD( GD( GD( GD( GD( GD( GD( G( G( G( G(   E@ E@ E@ E@ E@ E@ E@ E@ E@ E@ E@E E@E E@E E@E E@E E@E E@E E@E E@E E@E E@E E@EE E@EE E@EE E@EE E@EE E@EE E@EE E@EE E@EE E@EE E@EE E@EE E@EE E@EE E@EE E@EE E@EE E@EE E@EE E@EE E@EE E@EE E@EE E@EE E@EE E@EE E@EE E@EE E@EE E@EE E@EE E@EE E@EE E@EE E@EE E@EE E@EE E@EE E@EE E@EE E@EE EEE EEE EEE EEE EEE EEE EEE EEE EEE EEE EEE EEE EEE EEE EEE EEE EEE EEE E E E                                                          E E E E E- E- E- E-- E-- E-- E-- E-- E-- E@-- E@-E- E@-E- E@-E- E@-E- E@-E- E@-E- E@-E- E@-E- E@-E- E@-E- E@-E- E@-E- E@-EE- E@-EE- E@-EE- E@-EE- E@-EE- E@-EE- E@-EE- E@-EE- E@-EE- E@<-EE- E@<-EE- E@<-EE- E@<-EE- E@<-EE- E@<-EE- E@<-EE- E@<-EE- E@<-EE- E@<-EE- E@<-EE- E@<-EE- E@<-EE- E@<-EE- E@<-EE- E@<-EE- E@<-EE- E@<-EE- E@<-EE- E@<-EE- E@<-EE- E@<-EE- E@<-EE- E@<-EE- E@<-EE- E@<-EE- E@<-EE- E@<-EE- E@<-EE- E@<-EE- E@<-EE- E@<-EE- E@<-EE- E@<-EE- E@<-EE- E@<-EE- E@<-EE- E@<-EE- E@<-EE- E@<-EE- E@<-EE- E@<-EE- E@<-EE- E@<-EE- E@<-EE- E@<-EE- E@<-EE- E@<-EE- E@<-EE- E@<-EE- E@<-EE- E@<-EE- E@<-EE- E@<-EE- E@<-EE- E@<-EE- E@<-EE- E@<-EE- E@<-EE- E@<-EE- E@<-EE- E@<-EE- E@<-EE- E@<-EE- E@<-EE- E@<-EE- E@<-EE- E@<-EE- E@<-EE- E@<-EE- E@<-EE- E@<-EE- E@<-EE- E@<-EE- E@<-EE- E@<-EE- E@<-EE- E@<-EE- E@<-EE- E@<-EE- E@<-EE-, E@<-EE-, E@<-EE, E@<-EE, E@<-,EE, E@<-,EE, E@<-,EE, E@<-,EE, E@<-,EE, E@<-,EE, E@<-,EE, E@<-,EE, E@<-,EE, E@<-,EE, E@<,EE, E@<,EE, E@<,EE, E@<,EE, E@<,EE, E@<,EE, E@<,EE, E@<,EE, E@<,EE, E@<,EE, E@<,EE, E@<,EE, E@<,EE, E@<,EE, E@<,EE, E@<,EE, E@<,EE, E@<,EE, E@<,EE, E@<,EE, E@<,EE, E@<,EE, E@<,EE, E@<,EE, E@<,EE, E@<,EE, E@<,EE, E@<,EE, E@<,EE, E@<,EE, E@<,EE, E@<,EE, E@<,EE, E@<,EE, E@<,EE, E@<,EE, E@<,EE, E@<,EE, E@<,EE, E@<,EE, E@<,EE, E@<,EE, E@<,EE, E@<,EE, E@<,EE, E@<,EE, E@<,EE, E@<,EE, E@<,EE, E@<,EE, E@<,EE, E@<,EE, E@<,EE, E@<,EE, E@<,EE, E@<,EE, E@<,EE, E@<,EE, E@<,EE, E@<,EE, E@<,EE, E@<,EE, E@<,EE, E@<,EE, E@<,EE, E@<,EE, E@<,EE, E@<,EE, E@<,EE, E@<,EE, E@<,EE, E@<,EE, E@<,EE, E@<,EE, E@<,EE, E@<,EE, E@<,EE, E@<,EE, E@<,EE, E@<,EE, E@<,EE, E@<,EE, E@<,EE, E@<,EE, E@<,EE, E@<,EE, E@<,EE, E@<,EE, E@<,EE, E@<,EE, E@<,EE, E@<,EE, E@<,EE, E@<,EE, E@<,EE, E@<,EE, E@<,EE, E@<,EE, E@<,EE E@<,EE E@<,EE E@<,EE E@<,EE E@<,EE E@<EE E@<EE E@<EE E@<EE E@<EE E@<EE E@<EE E@<EE E@<EE E@<EE E@<EE- E@<EE- E@<EE- E@<EE- E@<EE- E@<EE- E@<EE- E@<EE- E@<-EE- E@<-EE- E@<-EE- E@<-EE- E@<-EE- E@<-EE- E@<-EE- E@<-EE- E@<-EE- E@<-EE- E@<-EE- E@<-EE- E@<-EE- E@<-EE- E@<-EE- E@<-EE- E@<-EE- E@<-EE- E@<-EE- E@<-EE- E@<-EE- E@<-EE- E@<-EE- E@<-EE- E@<-EE- E@<-EE- E@<-EE- E@<-EE- E@<-EE- E@<-EE- E@<-EE- E@<-EE- E@<-EE- E@<-EE- E@<-EE- E@<-EE- E@<-EE- E@<-EE- E@<-EE- E@<-EE- E@<-EE- E@<-EE- E@<-EE- E@<-EE- E@<-EE- E@<-EE- E@<-EE- E@<-EE- E@<-EE- E@<-EE- E@<-EE- E@<-EE- E@<-EE- E@<-EE- E@<-EE- E@<-EE- E@<-EE- E@<-EE- E@<-EE- E@<-EE- E@<-EE- E@<-EE- E@<-EE- E@<-EE- E@<-EE- E@<-EE- E@<-EE- E@<-EE- E@<-EE- E@<-EE- E@<-EE- E@<-EE- E@<-EE- E@<-EE- E@<-EE- E@<-EE- E@<-EE- E@<-EE- E@<-EE- E@<-EE- E@<-EE- E@<-EE- E@<-EE- E@<-EE- E@<-EE- E@<-EE- E@<-EE- E@<-EE- E@<-EE- E@<-EE- E@<-EE- E@<-EE- E@<-EE- E@<-EE- E@<-EE- E@<-EE- E@<-EE- E@<-EE- E@<-EE- E@<-EE- E@<-EE- E@<-EE- E@<-EE- E@<-EE- E@<-EE- E@<-EE-/ E@<-EE-/ E@<-EE-/ E@<-EE-/ E@<-EE-/ E@<-EE-/ E@<-EE-/ E@<-EE/ E@<-EE/ E@<-EE/ E@<-EE/ E@<-EE/ E@<-/EE/ E@<-/EE/ E@<-/EE/ E@<-/EE/ E@<-/EE/ E@<-/EE/ E@<-/EE/ E@<-/EE/ E@<-/EE/ E@<-/EE/ E@</EE/ E@</EE/ E@</EE/ E@</EE/ E@</EE/ E@</EE/ E@</EE/ E@</EE/ E@</EE/ E@</EE/ E@</EE/ E@</EE/ E@</EE/ E@</EE/ E@</EE/ E@</EE/ E@</EE/ E@</EE/ E@</EE/ E@</EE/ E@</EE/ E@</EE/ E@</EE/ E@</EE/ E@</EE/ E@</EE/ E@</EE/ E@</EE/ E@</EE/ E@</EE/ E@</EE/ E@</EE/ E@</EE/ E@</EE/ E@</EE/ E@</EE/ E@</EE/ E@</EE/ E@</EE/ E@</EE/ E@</EE/ E@</EE/ E@</EE/ E@</EE/ E@</EE/ E@</EE/ E@</EE/ E@</EE/ E@</EE/ E@</EE/ E@</EE/ E@</EE/ E@</EE/ E@</EE/ E@</EE/ E@</EE/ E@</EE/ E@</EE/ E@</EE/ E@</EE/ E@</EE/ E@</EE/ E@</EE/ E@</EE/ E@</EE/ E@</EE/ E@</EE/ E@</EE/ E@</EE/ E@</EE/ E@</EE/ E@</EE/ E@</EE/ E@</EE/ E@</EE/ E@</EE/ E@</EE/ E@</EE/ E@</EE/ E@</EE/ E@</EE/ E@</EE/ E@</EE/ E@</EE/ E@</EE/ E@</EE/ E@</EE/ E@</EE/ E@</EE/ E@</EE/ E@</EE/ E@</EE/ E@</EE/ E@</EE/ E@</EE/ E@</EE/ E@</EE/ E@</EE/ E@</EE/ E@</EE/ E@</EE/ E@</EE/ E@</EE/ E@</EE/ E@</EE/ E@</EE/ E@</EE/ E@</EE/ E@</EE/ E@</EE/ E@</EE/ E@</EE E@</EE E@</EE E@</EE E@</EE E@</EE0 E@</EE0 E@</EE0 E@</EE0 E@</EE0 E@</EE0 E@<EE0 E@<EE0 E@<EE0 E@<0EE0 E@<0EE0 E@<0EE0 E@<0EE0 E@<0EE0 E@<0EE0 E@<0EE0 E@<0EE0 E@<0EE0 E@<0EE0 E@<0EE0 E@<0EE0 E@<0EE0 E@<0EE0 E@<0EE0 E@<0EE0 E@<0EE0 E@<0EE0 E@<0EE0 E@<0EE0 E@<0EE0 E@<0EE0 E@<0EE0 E@<0EE0 E@<0EE0 E@<0EE0 E@<0EE0 E@<0EE0 E@<0EE0 E@<0EE0 E@<0EE0 E@<0EE0 E@<0EE0 E@<0EE0 E@<0EE0 E@<0EE0 E@<0EE0 E@<0EE0 E@<0EE0 E@<0EE0 E@<0EE0 E@<0E0 E@<0E0 E@<0E0 E@<0E0 E@<0E0 E@<0E0 E@<0E0 E@<0E0 E@<00 E@<00 E@<00 E@<00 E@<00 E@<00 E@<00 E@<00 E@<00 E@<00 E@<00 E@<00 E@<00 E@<00 E@<00 E<00 E<00 E<00 E<00 E<00 E<00 E<00 E<00 E<00 E<00 E<00 E<00 E<0 E0 E0 E E E E E E E E E E E E E E E E EG EG G G G GG GG GG >GG >GG >GG G>GG G>GG G>GG G>GG G>GG G>GG G>GG G>GG G>GG G>GG G>GG G>GG G>GG G>GG G>GG G>GG G>GG G>GG G>GG G>GG G>GG G>GG G>GG G>GG G>GG G>GG G>GG G>GG G>GG G>GG G>GG G>GG G>GG G>GG G>GG G>GG G>GG G>GG G>GG G>GG G>GG G>GG G>GG G>GG G>GG G>GG G>GG G>GG G>GG G>GG G>GG G>GG G>GG G>GG G>GG G>GG G>GG G>GG G>GG G>GG G>GG G>GG G>GG G>GG G>GG G>GG G>GG G>GG G>GG G>GG G>GG G>GG G>GG G>GG G>GG G>GG G>GG G>GG G>GG G>GG G>GG G>GG G>GG G>GG G>GG G>GG G>GG G>GG G>GG G>GG G>GG G>GG G>GG G>GG G>GG G><GG G><GG G><GG G><GG G><GG G><GG G><GHG G><GHG G><GHG GH><GHG GH><GHG GH<GHG GH<GHG GH<GHG GH<GHGH GH<GHGH GH<GHGH GH<GHGH GHE<GHGH GHE<GHH HE<GHH HE<GHH HE<GHH HE<GHH HE<GHH HE<GHH HE<GHH HE<HH HE<HH HE<HH HE<HH HE<HH HE<HH HE<4HH4 HE<4HH4 HE<4HH4 HE<4HH4 HE<4HH4 HE<4HH4 HE<4HH4 HE<4HH4 HE<4HH4 HE<4HH4 HE<4HH4 HE<4HH4 HE<4HH4 HE<4HH4 HE<4HH4 HE<4HH4 HE<4HH4 HE<4HH4 HE<4HH4 HE<4HH4 HE<4HH4 HE<4HH4 HE<4HH4 HE<4HH4 HE<4HH4 HE<4HH4 HE<4HH4 HE<4HH4 HE<4HH4 HE<4HH4 HE<4HH4 HE<4HH4 HE<4HH4 HE<4HH4 HE<4HH4 HE<4HH4 HE<4HH4 HE<4HH4 HE<4HH4 HE<4HH4 HE<4HH4 HE<4HH4 HE<4HH4 HE<4HH4 HE<4HH4 HE<4HH4 HE<4HH4 HE<4HH4 HE<4HH4 HE<4HH4 HE<4HH4 HE<4HH4 HE<4HH4 HE4HH4 HE4HH4 HE4HH4 HE4HH4 HE4HH4 HE4HH4 HE4HH4 HE4HH4 HE4HH4 HE4HH4 HE4HH4 HE4HH4 HE4HH4 HE4HH4 HE4HH4 HE4HH4 HE4HH4 HE4HH4 HE4HH4 HE4HH4 HE4HH4 HE4HH4 HE4HH4 HE;4HH4 HE;4HH4 HE;4HH4 HE;4HH4 HE;4HH4 HE;4HH4 HE;4H HE;4H HE;4H HE;4H HE;4H HE;4H HE;4H HJE;H HJE;H HJE;HJ HJE;HJJ HJE;HJJ HJE;HJJ HJE;HJJ HJE;HJJ HJE;HJJ HJEG;HJJ HJEG;HJJ HJG;HJJ HJG;HJJ HJG;HJJ HJG;HJJ HJG;HJJ HJG;HJJ HJG;HJJ HJG;HJJ HJG;HJJ HJG;HJJ HJG;HJJ HJG;HJJ HJG;HJJ HJG;HJJ HJG;HJJ HJG;HJJ HJG;HJJ JG;HJJ JG;HJJ JG;HJJ JG;HJJ JG;HJJ JG;HJJ JG;HJJ JG;HJJ JG;HJJ JG;HJJ JG;HJJ JG;JJ JG;JJ JG;JJ JG;JJ JG;JJ JG;JJ JG;JJ JG;JJ JG;JJ JG;JJ JG;JJ JG;JJ JG;JJ JG;JJ JG;JJ JG;JJ JG;JJ JG;JJ JG;JJ JG;JJ JG;JJ JG;JJ JG;JJ JG;JJ JG;JJ JG;JJ JG;JJ JG;JJ JG;JJ JG;JJ JG;JJ JG;JJ JGJJ JGJJ JGJJ JGJJ JGJJ JGJJ JGJJ JGJJ JGJJ JGJJ JGJJ JGJJ JGJJ JGJJ JGJJ JGJJ JGJJ JGJJ JGJJ GJJ GJJ GJJ GJJ GJJ GJJ GJJ GJ GJ GJ GJ GJ GJ GJ GJ GJ GJ GJ J J J J J J J J J J J J J L9J L9J L9J L9LJ L9LJL L9LJL L9LJL L9LJL L9LJL L9LJL L9LJL L9LJL LH9LL LH9LL LH9LL LH9LL LH9LL LH9LL LH9LL LH9LL LH9LL LH9LL LH99LL LH99LL9 LH99LL9 LH99LL9 LH99LL9 LH99LL9 LH99LL9 LH99LL9 LH99LL9 LH99LL9 LH99LL9 LH99LL9 LH99LL9 LH99LL9 LH99LL9 LH99LL9 LH99LL9 LH99LL9 LH99LL9 LH99LL9 LH99LL9 LH99LL9 LH99LL9 LH99LL9 LH99LL9 LH99LL9 LH99LL9 LH99LL9 LH99LL9 LH99LL9 LH99LL9 LH99LL9 LH99LL9 LH99LL9 LH99LL9 LH99LL9 LH99LL9 LH99LL9 LH99LL9 LH99LL9 LH99LL9 LH99LL9 LH99LL9 LH99LL9 LH99LL9 LH99LL9 LH99LL9 LH99LL9 LH99LL9 LH99LL9 LH99LL9 LH99LL9 LH99LL9 LH99LL9 LH99LL9 LH99LL9 LH99LL9 LH99LL9 LH99LL9 LH99LL9 LH99LL9 LH99LL9 LH99LL9 LH99LL9 LH99LL9 LH99LL9 LH99LL9 LH99LL9 LH99LL9 LH99LL9 LH99LL9 LH99LL9 LH99LL9 LH99LL9 LH99LL9 LH99LL9 LH99LL9 LH99LL9 LH99LL9 LH99LL9 LH99LL9 LH99LL9 LH99LL9 LH99LL9 LH99LL9 LH99LL9 LH99LL9 LH99LL9 LH99LL9 LH99LL9 LH99LLM9 LH99LLM9 LH99LLM9 LHG99LLM9 LMG99LLM9 LMG99LLM9 LMG99LMLM9 LMG99LMLM9 LMG99LMLM9 LMG99LMLM9 LMG99LMLM9 LMG99LMLM9 LMG99LMLM9 LMG9LMLM9 LMG9LMLM9 LMG9LMLM9 LMG9LMLM9 LMG9LMLM9 LMG9LMLM9 MG9MLM9 MG9MLM9 MG9MLM9 MG9MLM9 MG9MLM9 MG9MLM9 MG9MLM9 MG9MM9 MG9MM9 MG9MM9 MG9MM9 MG9MM9 MG9MM9 MG9MM9 MG9MM9 MG9MM9 MG9MM9 MG9MM9 MG9MM9 MG9MM9 MG9MM9 MG9MM9 MG9MM9 MG9MM9 MG9MM9 MG9MM9 MG9MM9 MG9MM9 MG9MM9 MG9MM9 MG9MM9 MG9MM9 MG9MM9 MG9MM9 MG9MM9 MG9MM9 MG9MM9 MG9MM9 MG9MM9 MG9MM9 MG9MM9 MG9MM9 MG9MM9 MG9MM9 MG9MM9 MG9MM9 MG9MM9 MG9MM9 MG9MM9 MG9MM9 MG9MM9 MG9MM9 MG9MM9 MG9MM9 MG9MM9 MG9MM9 MG9MM9 MG9MM9 MG9MM9 MG9MM9 MG9MM9 MG9MM9 MG9MM9 MG9MM9 MG9MM9 MG9MM9 MG9MM9 MG9MM9 MG9MM9 MG9M9 MG9M9 MG9M9 MG9M9 MG9M9 MG9M9 G9M9 G9M9 G9M9 G9M9 G9M9 G9M9 G9M9 G9M9 G9M9 GM9 GM9 GOO9 GOO9 GOO9 GOO9 GOO9 GOO9 GOO9 OGOO OGOO OGOO OGOO OGOO OGOO OGOO OGOO OGOO OGOO OGOO OGOO OGOO OGOO OGOO OGOO OGOO OGOO OGOO OGOO OGOO OGOO OOO OOO OOO OOO OHOO OHOO OHOO OHOO OHOO OHOO OHOO OHOO OHOO OH7OO OH7OO7 OH7OO7 OHE7MO7 OHE7MO7 OHE7MO7 OHE7MO7 OHE7MO7 OHE7MO7 OMHE7MO7 OMHE7MO7 OMHE7MO7 MHE7MOM7 MHE7MOM7 MHE7MOM7 MHE7MOM7 MHE7MOM7 MHE7MOM7 MHE7MOM7 MHE7MOM7 MHE7MOM7 MHE7MOM7 MHE7MOM7 MHE7MOM7 MHE7MOM7 MHE7MOM7 MHE7MOM7 MHE7MOM7 MHE7MOM7 MHE7MOM7 MHE7MOM7 MHE7MOM7 MHE7MOM7 MHE7MOM7 MHE7MOM7 MHE7MOM7 MHE7MM7 MHE7MM7 MHE7MM7 MHE7MM7 MHE7MM7 MHE7MM7 MHE7MM7 MHE7MM7 MHE7MM7 MHE7MM7 MHE7MM7 MHE7MM7 MHE7MM7 MHE7MM7 MHE7MM7 MHE7MM7 MHE7MM7 MHE7MM7 MHE7MM7 MHE7MM7 MHE7OMM7 MHE7OM7 MHE7OM7 MHE7OM7 MHE7OM7 MHE7OMO7 MHE7OMO7 MOHE7OMO7 MOHE7OMO7 MOHE7OMO7 MOHE7OMO7 MOHE7OMO7 MOHE7OMO7 MOHE7OMO7 MOHE7OMO7 OHE7OMO7 OHE7OMO7 OHE7OMO7 OHE7OMO7 OHE7OMO7 OHE7OMO7 OHE7OMO7 OHE7OMO7 OHE7OMO7 OHE7OMO7 OHE7OMO7 OHE7OMO7 OHE7OMO7 OHE7OMO7 OHE7OMO7 OHE7OMO7 OHJEOMO7 OHJEOMO7 OHJEOMO7 OHJEOMO7 OHJEOMO7 OHJEOMO7 OHJOMO7 OJOMO OJOMO OMJOMO OMJOMO OMJOMO OMJOMO OMJOMO OMJOMO OMJOMO OMJOMOM OMJOMOM OMJOMOM OMJOMOM OMJOMOM OMJOMOM OMJ5OMOM5 OMJ5OMOM5 OMJ5OMOM5 OMJ5OMOM5 OMJ5OMOM5 OMJ5OMOM5 OMJ5OMOM5 OMJ5OMOM5 OMJ5OMOM5 OMJ5OMOM5 OMJ5OMOM5 OMJ5MOM5 OMJ5MOM5 OMJ5MOM5 OMJ5MOM5 MJ5MOM5 MJ5MOM5 MJ5MOM5 MJ5MOM5 MJ5MOM5 MJ5MM5 MJ5MM5 MJ5MM5 MJ5MM5 MLJ5MLM5 MLJ5MLM5 MLJ5MLM5 MLJ5MLM5 MLJ5MLM5 MLJ5MLM5 MLJ5MLM5 MLJ5MLM5 MLJ5MLM5 MLJ5MLM5 MLJ5MLM5 MLJ5MLM5 MLJ5MLM5 MLJ5MLM5 MLJ5MLM5 MLJ5MLM5 MLJ5MLM5 MLJ5MLM5 MLJ5LM5 MLJ5LM5 LJ5LM5 LJ5LML5 LJ5LML5 LJ5LML5 LJ5LML5 LJ5LML5 LJ5LML5 LJ5LML5 LJ5LML5 LJ5LML5 LJ5LML5 LJ5LML5 LJ5LML5 LJ5LML5 LJ5LL5 LJ5LL5 LJ5LL5 LJ5LL5 LJ5LL5 LJ5LL5 L5LL5 L5LL5 L5LL5 L5LL5 L5LL5 L5LL5 L5LL5 L5LL5 L5LL5 L5LL5 L5LL5 L5LL5 L5LL5 L5LL5 L5LL5 L5LL5 LLL LLL LLML LLML LMLML LMLML LMLML LMLM LMLM LMLM LMLM LMLM LMLM LMLM LMLMO LMLMO LMLMO LMLMO LMLMO LMLMO LMLMO LMLMO LMLMO LMLMO LMLMO LMLMO LMLMO LMLMO LMLMO LMLMO LMMO LMLMO LMLMO LMLMO LMLMO LMLMO LMLMO LMLMO LMLMO LMLMO4 MLMO4 MLMO4 MLMO4 MLMO4 MLMO4 MLMO4 MLMO4 MLMO4 MLMO4 MLMO4 ML4MO4 MOL4MO4 MOL4MO4 MOLC4MO4 MOLC4MO4 MOLC4MOO4 MOLC4MOO4 MOLC4MOO4 MOLC4MOO4 MOLC4MOO4 MOLC4MOO4 MOLC4MOO4 OLC4OO4 OLC4OO4 OLC4OO4 OLC4OO4 OLC4OO4 OLC4OO4 OLC4OO4 OLC4OO4 OLC4OO4 OLC4OO4 OLC4OO4 OLC4OO4 OLC4OO4 OLC4OO4 OLC4OO4 OLC4OO4 OLC4OO4 OLC4OO4 OLC4OO4 OLC4OO4 OLC4OO4 OLC4OO4 OLC4OO4 OLC4OO4 OLC4OO4 OLC4OO4 OLC4OO4 OLC4OO4 OLC4OO4 OLC4OO4 OLC4OO4 OLC4OO4 OLC4OO4 OLC4OO4 OLC4OO4 OLC4OO4 OLC4OO4 OLC4OO4 OLC4OO4 OLC4OO4 OLC4OO4 OLC4OO4 OLC4OO4 OLC4OO4 OLC4OO4 OLC4OO4 OLC4OO4 OLC4OO4 OLC4OO4 OLC4OO4 OLC4OO4 OLC4OO4 OLC4OO4 OLC4OO4 OLC4OO4 OLC4OO4 OLC4OO4 OLC4OO4 OLC4OO4 OLC4OO4 OLC4OO4 OLC4OO4 OLC4OO4 OLC4OO4 OLC4OO4 OLC4OO4 OLC4OO4 OLC4OO4 OLC4OO4 OLC4OO4 OLC4OO4 OLC4OO4 OLC4OO4 OC4OO4 OC4OO4 OC4OO OC4OO OC4OO OC4OO OC4OO OC4OO OC4OO OC4OO2 OC4OO2 OC4OO2 OC4OO2 OC4OO2 OC4OO2 OC4OO2 OC4OO2 OCOO2 OCOO2 OC2OO2 OC2OO2 OC2OO2 OC2OO2 OC2OO2 OC2OO2 OC2OO2 OC2OO2 OC2OO2 OC2OO2 OC2OO2 OC2OO2 OC2OO2 OC2OO2 OC2OO2 OC2OO2 OC2OO2 OC2OO2 OC2OO2 OC2OO2 OC2OO2 OC2OO2 OC2OO2 OC2OO2 OC2OO2 OC2OO2 OC2OO2 OC2OO2 OC2OO2 OC2OO2 OC2OO2 OC2OO2 OC2OO2 OC2OO2 OC2OO2 OC2OO2 OC2OO2 OC2OO2 OC2OO2 OC2OO2 OC2OO2 O2OO2 O2OO2 O2OO2 O2OO2 O2OO2 O2OO2 O2OO2 O2OO2 O2OO2 O2OO2 O2OO2 O2OO2 O2OO2 O2OO2 O2OO2 O2OO2 O2OO2 O2OO2 O2OO2 O2OO2 O2OO2 O2OO2 O2OO2 O2OO2 O2OO2 O2OO2 O2OO2 O2OO2 O2OO2 O2OO2 O2OO2 O2OO2 O2OO2 O2OO2 O2OO2 O2OO2 O2OO2 O2OO2 O2OO2 O2OO2 O2OO2 O2OO2 O2OO2 O2OO2 O2OO2 O2OO2 O2OO2 O2OO2 O2OO2 O2OO2 O2OO2 O2OO2 O2OO2 O2OO2 O2OO2 O2OO2 O2OO2 O2OO2 O2OO2 O2OO2 O2OO2 O2OO2 O2OO2 O2OO2 O2OO2 O2OO2 O2OO O2OO O2OO O2OO OOO OOO OOO OOO OOO OOO OOO OOO OOO OOO OOO O4OO4 O4OO4 O4OO4 OH4OO4 OH4OO4 OH4OO4 OH4OO4 OH4OO4 OH4OO4 OH4OO4 OH4OO4 OH4OO4 OH4OO4 OH4OO4 OH4OO4 OH4OO4 OH4OO4 OH4OO4 OH4OO4 OH4OO4 OH4OO4 OH4OO4 OH4OO4 OH74OO4 OH74OO4 OH74OO4 OH74OO4 H74OO4 H74OO4 H74OO4 H74OO4 H74OO4 H74OO4 H74OO4 H74OO4 H74OO4 H74OO4 H74OO4 H74OO4 H74OO4 H74OO4 H74OO4 H74O4 H74O4 H74O4 H74O4 H74O4 H74O4 H74O4 H744 H744 H744 H744 H744 H744 H744 H744 H744 H744 H744 H744 H744 H744 H744 H744 H744 H744 H744 H744 H744 H744 H744 H744 H744 H744 H744 H744 H744 H744 H744 H744 H744 H744 H744 H744 H744 H744 H744 H744 H744 H744 H744 H744 H744 H744 H74 H74 H74 H74 H74 H74 H74 H74 H74 74 74 74 74 74 7M4 7M4 7M4 7M4 5M4 5M4 5MM4 5MM4 5MM4 5MM4 5MM4 5MM4 5MM4 M5MM M5MM M5MM5 M5MM5 M5MM5 M5MM5 M5MM5 M5MM5 M5MM5 M5MM5 M5MM5 M5MM5 M5MM5 M5MM5 M5MM5 M5MM5 M95MM5 M95MM5 M95MM5 M95MM5 M95MM5 M95MM5 M95MM5 M95MM5 M95MM5 M95MM5 M95MM5 M95MM5 M95MM5 M95MM5 M95MM5 M95MM5 M95MM5 M95MM5 M95MM5 M95MM5 M95MM5 M95MM5 M95MM5 M95MM5 M95MM5 M95MM5 M95MM5 M95MM5 M95MM5 M95MM5 M95MM5 M95MM5 M95MM5 M95MM5 M95MM5 M95MM5 M95MM5 M95MM5 M95MM5 M95MM5 M95MM5 M95MM5 M95M5 M95M5 M955 M955 955 955 955 955 955 955 955 955 955 955 955 955 955 955 955 955 955 955 955 955 955 955 955 955 95 95 95 95 95 95 95 95 95 95 95 95 9 9                   L L L L 7L 7L 7L 7L 7L 7L 7L C7L C7L C7LL C7LL LC7LL7 LC7LL7 LC7LL7 LC7LL7 LC7LL7 LC7LL7 LC7LL7 LC:7LL7 LC:7LL7 LC:7LL7 LC:7LL7 LC:7LL7 LC:7LL7 LC:7LL7 LC:7LL7 LC:7LL7 LC:7LL7 LC:7LL7 LC:7LL7 LC:7LL7 LC:7LL7 LC:7LL7 LC:7LL7 LC:7LL7 LC:7LL7 LC:7LL7 LC:7LL7 LC:7LL7 LC:7LL7 LC:7LL7 LC:7LL7 LC:7LL7 LC:7LL7 LC:7LL7 LC:7LL7 LC:7LL7 LC:7LL7 LC:7LL7 LC:7LL7 LC:7LL7 LC:7LL7 LC:7LL7 LC:7LL7 LC:7LL7 LC:7LL7 LC:7LL7 LC:7LL7 LC:7LL7 LC:7LL7 LC:7LL7 LC:7LL7 LC:7LL7 LC:7LL7 LC:7LL7 LC:7LL7 LC:7LL7 LC:7LL7 LC:7LL7 LC:7LL7 LC:7LL7 LC:7LL7 LC:7LL7 LC:7LL7 LC:7LL7 LC:7LL7 LC:7LL7 LC:7LL7 LC:7LL7 LC:7LL7 LC:7LL7 LC:7LL7 LC:7LL7 LC:7LL7 LC:7LL7 LC:7LL7 LC:7LL7 LC:7LL7 LC:7LL7 LC:7LL7 LC:7LL7 LC:7LL7 LC:7LL7 LC:7LL7 LC:7LL7 LC:7LL7 LC:7LL7 LC:7LL7 LC:7LL7 LC:7LL7 LC7LL7 LC7LL7 LC7LL7 LC7LL7 LC7LL7 LC7LL7 LC7LL7 LC7LL7 LC7LL7 LC7LL7 LC7LL7 LCLL7 LCLL7 LLL7 LLL7 LLL7 LLL7 LLL7 LLL7 LLL7 LLL7 LLL7 LLL7 LLL7 LLL LLL LLL LLL LLL LLL LLL LLL LLL LLL LLL LLL LLL LLL LLL LLL LLL LLL LLL LLL LLL LLL LLL LLL LLL LLL LLL LLL LLL LLL LLL LLL LLL LLL LLL LLL LLL LLL LLL LLL LLL LLL LLL LLL LLL LLL LLL LLL LLL LLL LLL LLL LLL LLL LLL LLL LLL LLL LLL LLL LLL LLL LLL LLL LLL LLL LLL LLL LLL LLL LLL LLL LLL LLL LLL LLL LLL LLL LLL LLL LLL LLL LL LL LL L L L L L L L L L L L L L L L L L L L L L L L L L L L L            0 0J @0J @0J @0J @0J @0J @0J J@0J0 J@0JJ0 J@0JJ0 J@0JJ0 J@0JJ0 J@70JJ0 J@70JJ0 J@70JJ0 J@70JJ0 J@70JJ0 J@70JJ0 J@70JJ0 J@70JJ0 J@70JJ0 J@70JJ0 J@70JJ0 J@70JJ0 J@70JJ0 J@70JJ0 J@70JJ0 J@70JJ0 J@70JJ0 J@70JJ0 J@70JJ0 J@70JJ0 J@70JJ0 J@70JJ0 J@70JJ0 J@70JJ0 J@70JJ0 J@70JJ0 J@70JJ0 J@70JJ0 J@70JJ0 J@70JJ0 J@70JJ0 J@70JJ0 J@70JJ0 J@70JJ0 J@70JJ0 J@70JJ0 J@70JJ0 J@70JJ0 J@70JJ0 J@70JJ0 J@70JJ0 J@70JJ0 J@70JJ0 J@70JJ0 J@70JJ0 J@70JJ0 J@70JJ0 J@70JJ0 J@70JJ0 J@70JJ0 J@70JJ0 J@70JJ0 J@70JJ0 J@70JJ0 J@70JJ0 J@70JJ0 J@70JJ0 J@70JJ0 J@70JJ0 J@70JJ0 J@70JJ0 J@70JJ0 J@70JJ0 J@70JJ0 J@70JJ0 J@70JJ0 J@70JJ0 J@70JJ0 J@70JJ0 J@70JJ0 J@70JJ0 J@70JJ0 J@70JJ0 J@70JJ0 J@70JJ0 J@70JJ0 J@70JJ0 J@70JJ0 J@70JJ0 J@70JJ0 J@70JJ0 J@70JJ0 J@70JJ0 J@70JJ0 J@70JJ0 J@70JJ0 JH@70JJ0 JH@70JJ0 JH@70JJ0 JH@70JJ0 JH@70JJ0 JH@70J0 JH@70J0 JH@70J0 JH@70JH0 JH@70JH0 JH@70JH0 JH@70JH0 JH@70JH0 JH@70JH0 JH70HJH0 JH70HJH0 JH7HJH0 JH7HJH0 JH7HJH0 JH7HJH0 JH7HJH0 JH7HJH0 JH7HJH JHHJH JHHJH JHHJH JHHJH JHHJH JHHJH JHHJH JHHJH JHHJH JHHJH JHHJH JHHJH JHHJH HHJH HHJH HHJH HHH HHH HHH HHH HHH HHH HHH HHH HHH HHH HHH HHH HHH HHH HHH HHH HHH HHH HHH HHH HHH HHH HHH HHH HHH HHH HHH HHH HHH HHH HHH HHH HHH HHH HHH HHH HHH HHH HHH HHH HHH HHH HHH HHH HHH HHH HHH HHH HHH HHH HHH HH HH HH H H H H H H H H H H H H H H H H H H H H H H H H H H H H H                     FA FA FA FA FA FAF FAF FAFF FAFF FA2FF FA2FF FA2FF FA2FF FA2FF FA2FF FA2FF FA2FF2 FA2FF2 FA2FF2 FA2FF2 FA2FF2 FA>2FF2 FA>2FF2 FA>2FF2 FA>2FF2 FA>2FF2 FA>2FF2 FA>2FF2 FA>2FF2 FA>2FF2 FA>2FF2 FA>2FF2 FA>2FF2 FA>2FF2 FA>2FF2 FA>2FF2 FA>2FF2 FA>2FF2 FA>2FF2 FA>2FF2 FA>2FF2 FA>2FF2 FA>2FF2 FA>2FF2 FA>2FF2 FA>2FF2 FA>2FF2 FA>2FF2 FA>2FF2 FA>2FF2 FA>2FF2 FA>2FF2 FA>2FF2 FA>2FF2 FA>2FF2 FA>2FF2 FA>2FF2 FA>2FF2 FA>2FF2 FA>2FF2 FA>2FF2 FA>2FF2 FA>2FF2 FA>2FF2 FA>2FF2 FA>2FF2 FA>2FF2 FA>2FF2 FA>2FF2 FA>2FF2 FA>2FF2 FA>2FF2 FA>2FF2 FA>2FF2 FA>2FF2 FA>2FF2 FA>2FF2 FA>2FF2 FA>2FF2 FA>2FF2 FA>2FF2 FA>2FF2 FA>2FF2 FA>2FF2 FA>2FF2 FA>2FF2 FA>2FF2 FA>2FF2 FA>2FF2 FA>2FF2 FA>2FF2 FA>2FF2 FA>2FF2 FA>2FF2 FA>2FF2 FA>2FF2 FA>2FF2 F>2FF2 F>2FF2 F>2FF2 F>2FF2 F>2FF2 F>2FF2 F>2FF2 E>2FF2 E>2FF2 E>2FF2 E>2FF2 E>2FF2 E2FFE2 E2FFE2 EFFE2 EFFE2 EFFE2 EFFE2 EFEFE2 EFEE2 EFEE2 EFEE2 EFEE2 EFEE2 EFEE2 EFEE2 EFEE2 EFEE2 EFEE2 EEE2 EEE2 EEE2 EEE2 EEE2 EEE EEE EEE EEE EEE EEE EEE EEE EEE EEE EEE EEE EEE EEE EEE EEE EEE EEE EEE EEE EEE EEE EEE EEE EEE EEE EEE EEE EEE EEE EEE EEE EEE EEE EEE EEE EEE EEE EEE EEE EEE EEE EEE EEE EEE EEE EEE EEE EEE EEE EEE EEE EEE EEE EEE EEE EEE EEE EEE EEE EEE EEE EEE EEE EEE EEE EEE EEE EEE EEE EEE EEE EEE EEE EEE EE EE EE EE EE EE EE EE EE EE EE EE EE EE EE E E E E E E E E E FE FE FE FEF FEF FEF FEF FEF FEF FEF FEF FFEF FFEF FFEF FFEF FFEF FFEF FFEF FFEF FFEF F4FEF F4FEF FC<4FEF FC<4FF FC<4FF4 FC<4FF4 FC<4FF4 FC<4FF4 FC<4FF4 FC<4FF4 FC<4FF4 FC<4FF4 FC<4FF4 FC<4FF4 FC<4FF4 FC<4FF4 FC<4FF4 FC<4FF4 FC<4FF4 FC<4FF4 FC<4FF4 FC<4FF4 FC<4FF4 FC<4FF4 FC<4FF4 FC<4FF4 FC<4FF4 FC<4FF4 FC<4FF4 FC<4FF4 FC<4FF4 FC<4FF4 FC<4FF4 FC<4FF4 FC<4FF4 FC<4FF4 FC<4FF4 FC<4FF4 FC<4FF4 FC<4FF4 FC<4FF4 FC<4FF4 FC<4FF4 FC<4FF4 FC<4FF4 FC<4FF4 FC<4FF4 FC<4FF4 FC<4FF4 FC<4FF4 FC<4FF4 FC<4FF4 FC<4FF4 FC<4FF4 FC<4FF4 FC<4FF4 FC<4FF4 FC<4FF4 FC<4FF4 FC<4FF4 FC<4FF4 FC<4FF4 FC<4FF4 FC<4FF4 FC<4FF4 FC<4FF4 FC<4FF4 FC<4FF4 FC<4FF4 FC<4FF FC<4FF FC<4FF FC<4FF FC<4FF FC<4FF FC<FF FC<FF FC<FF FC<FF FC<FF FC<FF FC<FF FC<FF FC<FF F<FF F<FF F<FF F<FF F<FF F<FF FC<FF FCFF FCFF FCFF FCFF FCFF FCFF FCFF FCFFC FCFFC FCFCFC FCFCFC FCFCFC FCFCC CCC CCC CCC CCC CCC CCC CCC CCC CCC CCC CCC CCC CCC CCC CCC CCC CCC CCC CCC CCC CCC CCC CCC CCC CCC CCC CCC CCC CCC CCC CCC CCC CCC CCC CCC CCC CCC CCC CCC CCC CCC CCC CCC CCC CCC CCC CCC CCC CCC CCC CCC CCC CCC CCC CCC CCC CCC CCC CCC CCC CCC CCC CCC CCC CCC CCC CCC CCC CCC CCC CCC CCC CCC CCC CCC CCC CCC CCC CCC CCC CCC CCC CCC CCC CCC CCC CC CC CC CC CC CC CC CC CC CC CC CC C C C                            E E E E EE EE EE EEE EEE EEE EAEE EAEE EAEE EAEE EAEE EAEE EA5EE EA5EE EA5EE EA5EE EA5EE EA5EE EA5EE EA<5EE5 EA<5EE5 EA<5EE5 EA<5EE5 EA<5EE5 EA<5EE5 EA<5EE5 EA<5EE5 EA<5EE5 EA<5EE5 EA<5EE5 EA<5EE5 EA<5EE5 EA<5EE5 EA<5EE5 EA<5EE5 EA<5EE5 EA<5EE5 EA<5EE5 EA<5EE5 EA<5EE5 EA<5EE5 EA<5EE5 EA<5EE5 EA<5EE5 EA<5EE5 EA<5EE5 EA<5EE5 EA<5EE5 EA<5EE5 EA<5EE5 EA<5EE5 EA<5EE5 EA<5EE5 EA<5EE5 EA<5EE5 EA<5EE5 EA<5EE5 EA<5EE5 EA<5EE5 EA<5EE5 EA<5EE5 EA<5EE5 EA<5EE5 EA<5EE5 EA<5EE5 EA<5EE5 EA<5EE5 EA<5EE5 EA<5EE5 EA<5EE5 EA<5EE5 EA<5EE5 EA<5EE5 EA<5EE5 EA<5EE5 EA<5EE5 EA<5EE5 EA<5EE5 EA<5EE5 EA<5EE5 EA<5EE5 EA<5EE5 EA<5EE5 EA<5EE5 EA<5EE5 EA<5EE5 EA<5EE5 EA<5EE5 EA<5EE5 EA<5EE5 EA<5EE5 EA<5EE5 EA<5EE5 EA<5EE5 EA<5EE5 EA<5EE5 EA<5EE5 EA<5EE5 EA<5EE5 EA<5EE5 EA<5EE5 EA<5EE5 EA<5EE5 EA<5EE5 EA<5EE5 EA<5EE5 EA<5EE5 EA<5EE5 EA<5EE5 EA<5EE5 EA<5EE5 EA<5EE5 EA<5EE5 EA<5EE5 EA<5EE5 EA<5EE5 EA<5EE5 EA<5EE5 EA<5EE5 EA<5EE5 EA<5EE5 EA<5EE5 EA<54EE5 EA<54EE5 EA<54EE5 EA<54EE5 EA<54EE5 EA<54EE5 EA<54EE5 EA<54EE5 EA<54EE5 EA<54EE5 EA<4EE5 EA<4EE5 EA<4EE5 EA<4EE54 EA<4EE54 EA<4EE54 EA<4EE54 EA<4EE54 EA<4EE54 EA<4EE54 EA<4EE54 EA<4EE4 EA<4EE4 EA<4EE4 EA<4EE4 EA<4EE4 EA<4EE4 EA<4EE4 EA<4EE4 EA<4EE4 EA<4EE4 EA<4EE4 EA<4EE4 EA<4EE4 EA<4EE4 EA<4EE4 EA<4EE4 EA<4EE4 EA<4EE4 EA<4EE4 EA<4EE4 EA<4EE4 EA<4EE4 EA<4EE4 EA<4EE4 EA<4EE4 EA<4EE4 EA<4EE4 EA<4EE4 EA<4EE4 EA<4EE4 EA<4EE4 EA<4EE4 EA<4EE4 EA<4EE4 EA<4EE4 EA<4EE4 EA<4EE4 EA<4EE4 EA<4EE4 EA<4EE4 EA<4EE4 EA<4EE4 EA<4EE4 EA<4EE4 EA<4EE4 EA<4EE4 EA<4EE4 EA<4EE4 EA<4EE4 EA<4EE4 EA<4EE4 EA<4EE4 EA<4EE4 EA<4EE4 EA<4EE4 EA<4EE4 EA<4EE4 EA<4EE4 EA<4EE4 EA<4EE4 EA<4EE4 EA<4EE4 EA<4EE4 EA<4EE4 EA<4EE4 EA<4EE4 EA<4EE4 EA<4EE4 EA<4EE4 EA<4EE4 EA<4EE4 EA<4EE4 EA<4EE4 EA<4EE4 EA<4EE4 EA<4EE4 EA<4EE4 EA<4EE4 EA<4EE4 EA<4EE4 EA<4EE4 EA<4EE4 EA<4EE4 EA<4EE4 EA<4EE4 EA<4EE4 EA<4EE4 EA<4EE4 EA<4EE4 EA<4EE4 EA<4EE4 EA<4EE4 EA<4EE4 EA<45EE4 EA<45EE4 EA<45EE4 EA<45EE4 EA<45EE4 EA<45EE4 EA<45EE4 EA<45EE4 EA<5EE EA<5EE EA<5EE EA<5EE EA<5EE EA<5EE EA<5EE EA<5EE5 EA<5EE5 EA<5EE5 EA<5EE5 EA<5EE5 EA<5EE5 EA<5EE5 EA<5EE5 EA<5EE5 EA<5EE5 EA<5EE5 EA<5EE5 EA<5EE5 EA<5EE5 EA<5EE5 EA<5EE5 EA<5EE5 EA<5EE5 EA<5EE5 EA<5EE5 EA<5EE5 EA<5EE5 EA<5EE5 EA<5EE5 EA<5EE5 EA<5EE5 EA<5EE5 EA<5EE5 EA<5EE5 EA<5EE5 EA<5EE5 EA<5EE5 EA<5EE5 EA<5EE5 EA<5EE5 EA<5EE5 EA<5EE5 EA<5EE5 EA<5EE5 EA<5EE5 A<5EE5 A<5EE5 A<5E5 A<5E5 A<5E5 A<5E5 A<5E5 A<5E5 A<5E5 A<5E5 A<5E5 A<5E5 A<5E5 A<5E5 A<5E5 A<5E5 A<5E5 A<5E5 A<55 A<55 A<55 A<55 A<55 A<55 A<55 A<55 A<55 A<55 A<55 A<55 A<55 A<55 A<55 A<55 A<55 A<55 A<55 A<55 A<55 A<55 A<55 A<55 A<55 A<55 A<55 A<55 A<55 A<55 A<55 A<55 A<55 A<55 A<55 A<55 A<55 A<55 A<55 CA<55 CA<55 CA<55 CA<5C5 CA<5C5 CA<5C5 CA<5C5 CA<5C5 CA<5C5 CA<5C5 CA<5C5 CA<57C5 CA<57C5 CA<57C5 CA<57C5 CA<57C5 CA<57C5 CA<57C5 CA<57C5 CA<57C5 CA<57C5 CA<57CC5 CA<57CC5 CA<7CC5 CA<7CC5 CA<7CC5 CA<7CC5 CA<7CC57 CA<7CC57 CA<7CC57 CA<7CC57 CA<7CC57 CA<7CC57 CA<7CC57 CA<7CC57 CA<7CC57 CA<7CC57 CA<7CC57 CA<7CC57 CA<7CC57 CA<7CC57 CA<7CC57 CA<7CC7 CA<7CC7 CA<7CC7 CA<7CC7 CA<7CC7 CA<7CC7 CA<7CC7 CA<7CC7 CA<7CC7 CA<7CC7 CA<7CC7 CA<7CC7 CA<7CC7 CA<7CC7 CA<7CC7 CA<7CC7 CA<7CC7 CA<7CC7 CA<7CC7 CA<7CC7 CA<7CC7 CA<7CC7 CA<7CC7 CA<7CC7 CA<7CC7 CA<7CC7 CA<7CC7 CA<7CC7 CA<7CC7 CA<7CC7 CA<7CC7 CA<7CC7 A<7CC7 A<7CC7 A<7CC7 A<7CC7 A<7CC7 A<7CC7 A<7CC7 A<7CC7 A<7C7 A<7C7 A<7C7 A<7C7 A<7C7 A<7C7 A<7C7 A<7C7 A<7C7 A<7C7 A<7C7 A<7C7 A<77 A<77 A<77 A<77 A<77 A<77 A<77 A<77 A<77 A<77 A<77 A<77 A<77 A<77 A<77 A<77 A<77 A<77 A<77 A<7 A<7 A<7 A<7 A<7 A<7 A<7 A<7 A<7 A<7 A<7 A<7 A<97 A<97 A<97 A<97 A<97 A<97 A<9A7 A<9A7 A<9A7 A<9A7 AA<9A AA<9A AA<9A AA<9A AA<9A AA<9A AA<9A AA<9A9 AA<9A9 AA<9A9 AA<9A9 AA<9A9 AA<9A9 AA<9A9 AA<9A9 AA<9A9 AA<9A9 AA<9AA9 AA<9AA9 AA<9AA9 AA<9AA9 AA<9AA9 AA<9AA9 AA<9AA9 AA<9AA9 AA<9AA9 AA<9AA9 AA<9AA9 AA<9AA9 AA<9AA9 AA<9AA9 AA<9AA9 AA<9AA9 AA<9AA9 AA<9AA9 AA<9AA9 AA<9AA9 AA<9AA9 AA<9AA9 AA<9AA9 AA<9AA9 AA<9AA9 AA<9AA9 AA<9AA9 AA<9AA9 AA<9AA9 AA<9AA9 AA<9AA9 AA<9AA9 AA<9AA9 AA<9AA9 AA<9AA9 AA<9AA9 AA<9AA9 AA<9AA9 AA<9AA9 AA<9AA9 AA<9AA9 AA<9AA9 AA<9AA9 AA<9AA9 AA<9AA9 AA<9AA9 AA<9AA9 AA<9AA9 AA<9AA9 AA<9AA9 AA<9AA9 AA<9AA9 AA<9AA9 AA<9AA9 AA<9AA9 AA<9AA9 AA<9AA9 AA<9AA9 AA<9AA9 AA<9AA9 AA<9AA9 AA9AA9 AA9AA9 AA9AA9 AA9AA9 AA9AA9 AA9AA9 AA9AA9 AA9AA9 A9AA9 A9AA9 A9AA9 A9AA9 A9AA9 A9AA9 A9AA9 A9AA9 A9AA9 A9AA9 A9AA9 A9AA9 9AA9 9AA9 9AA9 9AA9 9A9 99 99 99 99 99 99 99 99 9:9 9:9 9:9 9:9 9:9 9:9: 9:9: 9:9: 9:9: 9:9: 9:9: 9:9: 9:9: 9:9: :9: :9: :9: :9: :9: :9: :9: :9: :9: :9: :9: :: :: :: :: :: :: :: :: :: :: :: :: :: :: :: :: :: :: :: :: :: :: :: :: :: :: :: :: :: :: :: :: :: :: :: :: :: :: :: :: :: :: :: :: :: :: :: :: :: :: :: :: :: :: :: :: :: :: :: :: :: :: :: :: :: :: :: :: :: :: :: :: :: :: :: :: :: :: :: :: :: :: :: :: :: :: :: :: :: :: :9:9 :9:9 9:9 9:9 9:9 9:9 9:9 =9:9 =9:9 =9:9 =9:9 =9:9 @=9:9 @=9:9 @=9:9 @=9:9 @=9:9 @=9:9 @=9:9 @=9:9 @=9E:9 @=9E:9 @=9E:9 E@=9E9 E@=9E9 E@=9EE9 E@=9EE9 E@=9EE9 E@=9EE9 E@=9EE9 E@=9EE9 E@=9EE9 E@=9EE9 E@=9EE9 E@=9EE9 E@=9EE9 E@=9EE9 E@=9EE9 E@=9EE9 E@=9EE9 E@=9EE9 E@=9EE9 E@=9EE9 E@=9EE9 E@=9EE9 E@=9EE9 E@=9EE9 E@=9EE9 E@=9EE9 E@=9EE9 E@=9EE9 E@=9EE9 E@=9EE9 E@=9EE9 E@=9EE9 E@=9EE9 E@=9EE9 E@=9EE9 E@=9EE9 E@=9EE9 E@=9EE9 E@=9EE9 E@=9EE9 E@=9EE9 E@=9EE9 E@=9EE9 E@=9EE9 E@=9EE9 E@=9EE9 E@=9EE9 E@=9EE9 E@=9EE9 E@=9EE9 E@=9EE9 E@=9EE9 E@=9EE9 E@=9EE9 E@=9EE9 E@=9E9 E@=9E9 E@=9E9 E@=9E9 E@=9E9 E@=9E9 E@=9E9 E@=99 E@=99 E@=99 E@=99 E@=99 E@=99 @=99 @=99 @=99 @=99 @=99 @=99 @=99 @=99 @=99 @=99 @=99 @=99 @=99 99 99 99 99 99 99 99 99 99 99 99 979 79 79 79 79 79 79 79 79 79 79 797 797 797 797 797 797 797 797 797 797 797 797 797 797 797 797 797 797 77 77 77 77 77 77 77 77 77 77 77 77 77 77 77 77 77 77 77 77 77 77 77 77 77 77 77 77 77 77 77 77 77 77 77 77 77 77 77 77 77 77 77 77 77 77 77 77 77 77 77 77 77 77 77 77 77 77 77 77 77 77 77 77 77 77 77 77 77 77 77 77 77 77 77 77 77 77 77 77 77 77 77 77 77 77 77 77 77 77 77 77 77 757 757 757 757 757 757 757 757 757 757 757 757 757 757 7575 7575 575 55 J55 J55 J5J5 J5J5 J5J5 J5J5 J5J5 J5J5 J5J5 JE>5J5 JE>5J5 JE>5J5 JE>5JJ5 JE>5JJ5 JE>5JJ5 JE>5JJ5 JE>5JJ5 JE>5JJ5 JE>5JJ5 JE>5JJ5 JE>5JJ5 JE>5JJ5 JE>5JJ5 JE>5JJ5 JE>5JJ5 JE>5JJ5 JE>5JJ5 JE>5JJ5 JE>5JJ5 JE>5JJ5 JE>5JJ5 JE>5JJ5 JE>5JJ5 JE>5JJ5 JE>5JJ5 JE>5JJ5 JE>5JJ5 JE>5JJ5 JE>5JJ5 JE>5JJ5 JE>5JJ5 JE>5JJ5 JE>5JJ5 JE>5JJ5 JE>5JJ5 JE>5JJ5 JE>5JJ5 JE>5JJ5 JE>5JJ5 JE>5JJ5 JE>5JJ5 JE>5JJ5 JE>5JJ5 JE>5JJ5 JE>5JJ5 JE>5JJ5 JE>5JJ5 JE>5JJ5 JE>5JJ5 JE>5JJ5 JE>5JJ5 JE>5JJ5 JE>5JJ5 JE>5JJ5 JE>5JJ5 JE>5JJ5 JE>5JJ5 JE>5JJ5 JE>5JJ5 JE>5JJ5 JE>5JJ5 JE>5JJ5 JE>5JJ5 JE>5JJ5 JE>5JJ5 JE>5JJ5 JE>5JJ5 JE>5JJ5 JE>5JJ5 JE>5JJ5 JE>5JJ5 JE>5JJ5 JE>5JJ5 JE>5JJ5 JE>5JJ5 JE>5JJ5 JE>5JJ5 JE>5JJ5 JE>5JJ5 JE>5JJ5 JE>5JJ5 J>5JJ5 J>5JJ5 J5JJ5 J5JJ5 J5JJ5 J5JJ5 J5JJ54 J5JJ54 J5JJ54 J5JJ54 J5JJ54 J54JJ54 J54JJ54 J4JJ54 J4JJ54 J4JJ54 J4JJ54 J4JJ54 J4JJ54 J4JJ54 J4JJ54 J4JJ54 J4JJ54 J4JJ54 J4JJ4 J4JJ4 J4JJ4 J4JJ4 J4JJ4 J4JJ4 J4JJ4 J4JJ4 J4JJ4 J4JJ4 J4JJ4 J4JJ4 J4JJ4 J4JJ4 J4JJ4 J4JJ4 J4JJ4 J4JJ4 J4JJ4 J4JJ4 J4JJ4 J4JJ4 J4JJ4 J4JJ4 J4JJ4 J4JJ4 J4JJ4 J4JJ4 J4JJ4 J4JJ4 J4JJ4 J4JJ4 J4JJ4 J4JJ4 J4JJ4 J4JJ4 J4JJ4 J4JJ4 J4JJ4 J4JJ4 J4JJ4 J4JJ4 J4JJ4 J4JJ4 J4JJ4 J4JJ4 J4JJ4 J4JJ4 J4JJ4 J4JJ4 J4JJ4 J4JJ4 J4JJ4 J4JJ4 J4JJ4 J4JJ4 J4JJ4 J4JJ4 J4JJ4 J4JJ4 J4JJ4 J4JJ4 J4JJ4 J4JJ4 J4JJ4 J4JJ4 J4JJ4 J4JJ4 J4JJ4 J4JJ4 J4JJ4 J4JJ4 J4JJ4 J4JJ4 J4JJ4 J4JJ4 J4JJ4 J4JJ4 J4JJ4 J4JJ4 J4JJ4 J4JJ4 J4JJ4 J4JJ4 J4JJ4 J4JJ4 J4JJ4 J4JJ4 J4JJ4 J4JJ4 J4JJ4 J4JJ4 J4JJ4 JJJ4 JJJ4 JJJ4 JJJ4 JJJ4 JJJ4 JJJ4 JJJ JJJ J2JJ J2JJ J2JJ J2JJ J2JJ J2JJ J2JJ J2JJ J2JJ J2JJ2 J2JJ2 J2JJ2 J2JJ2 J2JJ2 J2JJ2 J2JJ2 J2JJ2 J2JJ2 J2JJ2 J2JJ2 J2JJ2 J2JJ2 J2JJ2 J2JJ2 J2JJ2 J2JJ2 J2JJ2 J92JJ2 J92JJ2 J92JJ2 J92JJ2 JE92JJ2 JE92JJ2 JE92JJ2 JE92JJ2 JE92JJ2 JE92JJ2 E92JJ2 E92JJ2 E92JJ2 E92JJ2 E92JJ2 E92JJ2 E92JJ2 E92JJ2 E92J2 E92J2 E92J2 E92J2 E92J2 E92J2 E92J2 E92J2 E92J2 E92J2 E92J2 E92J2 E92J2 E92J2 E92J2 E92J2 E92J2 E922 E922 E922 E922 E922 E922 E922 E922 E922 E922 E922 E922 E922 E922 E922 E922 E922 E922 E922 E922 E922 E922 E922 E922 E922 E922 E922 E922 E922 E922 E922 E922 E922 E922 E922 E922 E922 E922 E922 E922 E922 E922 922 922 922 922 922 922 922 22 22 22 22 22 22 22 22 22 22 22 22 22 L2 L2 L2 L2 L21 L21 L21 L21 L21 L1 L1 L1L1 L1L1 L1L1 L1L1 L1L1 L1L1 L1LL1 L1LL1 L1LL1 L1LL1 L1LL1 L1LL1 L1LL1 L1LL1 L1LL1 L1LL1 L1LL1 L1LL1 L1LL1 L1LL1 L1LL1 L1LL1 L1LL1 L1LL1 L1LL1 L1LL1 L1LL1 L1LL1 L1LL1 L1LL1 L1LL1 L1LL1 L1LL1 L1LL1 L1LL1 L1LL1 L1LL1 L1LL1 L1LL1 L1LL1 L1LL1 L1LL1 L1LL1 L1LL1 L1LL1 L1LL1 L1LL1 L1LL1 L1LL1 L1LL1 L1LL1 L1LL1 L1LL1 L1LL1 L1LL1 L1LL1 L1LL1 L1LL1 L1LL1 L1LL1 L1LL1 L1LL1 L1LL1 L1L1 L1L1 L1L1 1L1 1L1 1L1 1L1 1L1 1L1 1L1 1L1 1L1 11 11 11 11 11 11 11 11 11 11 11 11 11 11 11 11 11 11 11 11 11 11 11 11 11 1 1               M M M M M M M2 M2 M2 M2 ME2 ME2M ME2M ME2M ME2M2 ME2M2 ME2M2 ME2M2 ME2M2 ME2M2 ME2M2 ME2M2 ME2MM2 ME2MM2 ME2MM2 ME2MM2 ME2MM2 ME2MM2 ME2MM2 ME2MM2 ME2MM2 ME2MM2 ME>2MM2 ME>2MM2 ME>2MM2 ME>2MM2 ME>2MM2 ME>2MM2 ME>2MM2 ME>2MM2 ME>2MM2 ME>2MM2 ME>2MM2 ME>2MM2 ME>2MM2 ME>2MM2 ME>2MM2 ME>2MM2 ME>2MM2 ME>2MM2 ME>2MM2 ME>2MM2 ME>2MM2 ME>2MM2 ME>2MM2 ME>2MM2 ME>2MM2 ME>2MM2 ME>2MM2 ME>2MM2 ME>2MM2 ME>2MM2 ME>2MM2 ME>2MM2 ME>2MM2 ME>2MM2 ME>2MM2 ME>2MM2 ME>2MM2 ME>2MM2 ME>2MM2 ME>2MM2 ME>2MM2 ME>2MM2 ME>2MM2 ME>2MM2 ME>2MM2 ME>2MM2 ME>2MM2 ME>2MM2 ME>2MM2 ME>2MM2 ME>2MM2 ME>2MM2 ME>2MM2 ME>2MM2 ME>2MM2 ME>2MM2 ME>2MM2 ME>2MM2 ME>2MM2 ME>2MM2 ME>2MM2 ME>2MM2 ME>2MM2 ME>2MM2 ME>2MM2 ME>2MM2 ME>MM2 ME>MM2 ME>MM2 ME>MM2 ME>MM2 ME>MM2 ME>MM2 ME>MM2 ME>MM2 ME>MM2 ME>MM2 ME>MM2 ME>MM2 ME>MM2 ME>MM ME>MM ME>MM ME>MM ME>MM ME>MM ME>MM ME>MM ME>MM ME>MM ME>MM ME>MM ME>MM ME>MM ME>MM ME>MM ME>MM ME>MM ME>MM ME>MM ME>MM ME>MM ME>MM ME>MM ME>MM ME>MM ME>MM ME>MM ME>MM ME>MM ME>MM ME>MM ME>MM ME>MM ME>MM ME>MM ME>MM ME>MM ME>MM ME>MM ME>MM ME>MM ME>MM ME>MM ME>MM ME>MM ME>MM ME>MM ME>MM ME>MM ME>MM ME>MM ME>MM ME>MM ME>MM ME>MM ME>MM ME>MM ME>MM ME>MM ME>MM ME>MM ME>MM ME>MM ME>MM ME>MM ME>MM ME>MM ME>MM ME>MM ME>MM ME>MM ME>MM ME>MM ME>MM ME>MM ME>MM ME>MM ME>MM ME>MM ME>MM ME>MM ME>MM ME>MM ME>MM ME>MM ME>MM ME>MM ME>MM ME>MM ME>MM ME>MM ME>MM ME>MM ME>MM ME>MM ME>MM ME>MM ME>MM ME>MM ME>MM ME>MM ME>MM ME>MM ME>MM ME>MM ME>MM ME>MM ME>MM ME>MM ME>MM ME>MM ME>MM ME>MM ME>MM ME>MM ME>MM ME>MM ME>MM ME>MM ME>MM ME>MM ME>MM ME>MM ME>MM ME>MM ME>MM ME>MM ME>MM ME>MM ME>MM ME>MM ME>MM ME>MM ME>MM ME>MM ME>MM ME>MM ME>4MM ME>4MM ME>4MM ME>4MM ME>4MM ME>4MM ME>4MM ME>4MM ME>4MM ME>4MM ME>4MM4 ME>4MM4 ME>4M4 ME>4M4 ME>4M4 ME>4M4 ME>4M4 E>4M4 E>4M4 E>4M4 E>44 E>44 E>44 E>44 E>44 E>44 E>44 E>44 E>44 E>44 E>44 E>44 E>44 E>44 E>44 E>44 E>44 E>44 E>44 E>44 E>44 E>44 E>44 E>44 E>44 E>44 E>44 E>44 E>44 E>44 E>44 E>44 E>44 E>44 E>44 E>44 E>44 E>44 E>44 E>44 E>44 E>44 E>44 E>44 E>44 E>44 E>44 E>44 E>44 E>44 E>44 E>44 E>44 E>44 E>44 E>44 E>44 E>44 E>44 E>44 E>44 E>44 E>44 E>44 E>44 E>44 E>44 E>44 E>44 E>44 E>44 E>44 E>44 E>44 E>4 E>4 E>4 E>4 E>4 E>4 E>4 E>4 E>4 E>4 E>4 E>4 E>4 OE> OE> OE> OE> OE> OE>O OE>OO OE>OO OE>OO OE>OO OE>OO OE>OO OE>OO OE>OO OE>OO OE>OO OE>OO OE>OO OE>OO OE>OO OE>OO OE>OO OE>OO OE>OO OE>OO OE>OO OE>OO OE>OO OE>OO OE>OO OE>OO OE>OO OE>OO OE>OO OE>OO OE>OO OE>OO OE>OO OE>OO OE>OO OE>OO OE>OO OE>OO OE>OO OE>OO OE>OO OE>OO OE>OO OE>OO OE>OO OE>OO OE>OO OE>OO OE>OO OE>OO OE>OO OE>OO OE>OO OE>OO OE>OO OE>OO OE>OO OE>OO OE>OO OE>OO OE>OO OE>OO OE>OO OE>OO OE>OO OE>OO E>OO E>OO E>OO E>OO E>OO E>OO E>OO E>OO E>OO E>OO E>OO E>OO E>OO E>OO E>O E>O E>O E>O E>O E> E> E> E> E> E> E> E> E> E> E> E> E> E> E> E> E> E> E> E> E> E> E> E> E> E> E> E> E> E> E> E> E> E> E> E> E> E> E> E> E> QE> QE> QE> QE> QE> QE>5 QE>5 QE>5 QE>5 QE>Q5 QE>Q5 QE>5Q5 QE>5Q5 QE>5Q5 Q>5Q5 Q>5Q5 Q>5QQ5 Q>5QQ5 Q>5QQ5 Q>5QQ5 Q>5QQ5 Q>5QQ5 Q>5QQ5 Q>5QQ5 Q>5QQ5 Q>5QQ5 Q>5QQ5 Q>5QQ5 Q>5QQ5 Q>5QQ5 Q>5QQ5 Q>5QQ5 Q>5QQ5 Q5QQ5 Q5QQ5 Q5QQ5 Q5QQ5 Q5QQ5 Q5QQ5 Q5QQ5 Q5QQ5 Q5QQ5 Q5QQ5 Q5QQ5 Q5QQ5 Q5QQ5 Q5QQ5 Q5QQ5 Q5QQ5 Q5QQ5 Q5QQ5 Q5QQ5 Q5QQ5 Q5QQ5 Q5QQ5 Q5QQ5 Q5QQ5 Q5QQ5 Q5QQ5 Q5QQ5 Q5QQ5 Q5QQ5 Q5QQ5 Q5QQ5 Q5QQ5 Q5QQ5 Q5QQ5 Q5QQ5 Q5QQ5 Q5QQ5 Q5QQ5 Q5QQ5 Q5QQ5 Q5QQ5 Q5QQ5 Q5QQ5 Q5QQ5 Q5QQ5 Q5QQ5 Q5QQ5 Q5QQ5 Q5QQ5 Q5QQ5 Q5QQ5 Q5QQ5 Q5QQ5 Q5QQ5 Q5QQ5 Q5QQ5 Q5QQ5 Q5QQ5 Q5QQ5 Q5QQ5 Q5QQ5 Q5QQ5 Q5QQ5 Q5QQ5 Q5QQ5 Q5QQ5 Q5QQ5 Q5QQ5 Q5QQ5 QQQ5 QQQ5 QQQ5 QQQ5 QQQ5 QQQ5 QQQ5 QQQ5 QQQ5 QQQ5 QQQ5 QQQ5 QQQ5 QQQ QQQ QQOQ QQOQ QQOQ QOQOQ QOQOQ QOQOQ QOQOQ QOQOQ QOQOQ QOQOQ QOQOQ QOQOQ QOQOQ QOQOQ QOQOQ QOQOQO QOQOQO QOQOQO QOQOQO QOQOQO QOQOQO QOQOQO QOQOQO QOQOQO QOQOQO QOQOQO QOQOQO QOQOQO QOQOQO QOQOQO QOQOQO QOOQO OOQO OOQO OOQO OOQO OOQO OOQO OOQO OOQO OOQO OOQO OOQO OOQO OOQO OOQO OOO OOO OOO OOO OOO OOO OOO OOO OOO OOO OOO OOO OOO OOO OOO OOO OOO OOO OOO OOO OOO OOO OOO OOO OOO OOO OOO OOO OOO OOO OOO OOO OOO OOO OOO OOO OOO OOO OOO OOO OOO OOO OOO OOO OOO OOO OOO OOO OOO OOO OOO OOO OOO OOO OOO OOO OOO OOO OOO OOO OOO OOO OOO OOO OOO OOO OOO OOO OOO O>OO OE>OO OE>OO OE>OO OE>OO OE>OO OE>2OMO OME>2OMO OME>2OMO OME>2OMO2 OME>2OMO2 OME>2OMO2 OME>2OMO2 OME>2OMO2 OME>2OMO2 OME>2OMO2 OME>2OMO2 OME>2OMO2 OME>2OMO2 OME>2OMO2 OME>2OMO2 OME>2OMO2 OME>2OMO2 OME>2OMO2 OME>2OMO2 OME>2OMO2 OME>2OMO2 OME>2OMO2 OME>2OMOM2 OME>2OMOM2 OME>2OMOM2 OME>2OMOM2 OME>2OMOM2 OME>2OMOM2 OME>2OMOM2 OME>2OMOM2 OME>2OMOM2 OME>2OMOM2 ME>2OMOM2 ME>2OMOM2 ME>2OMOM2 ME>2OMOM2 ME>2OMOM2 ME>2MOM2 ME>2MOM2 ME>2MOM2 ME>2MOM2 ME>2MOM2 ME>2MOM2 ME>2MOM2 ME>2MOM2 ME>2MOM2 ME>2MOM2 ME>2MOM2 ME>2MOM2 ME>2MOM2 ME>2MOM2 ME>2MOM2 ME>2MOM2 ME>2MOM2 ME>2MOM2 ME>2MOM2 ME>2MOM2 ME>2MOM2 ME>2MOM2 ME>2MOM2 ME>2MM2 ME>2MM2 ME>2MM2 ME>2MM2 ME>2MM2 ME>2MM2 ME>2MM2 ME>2MM2 ME>2MM2 ME>2MM2 ME>2MM2 ME>2MM2 ME>2MM2 ME>2MM2 ME>2MM2 ME>2MM2 ME>2MM2 M>2MM2 M>2MM2 M2MM2 M2MM2 M2MM2 M2MM2 M2MM2 M2MM2 M2MM2 M2MM2 M2MM2 M2MM2 M2MM2 M2MM2 M2MM2 M2MM2 M2MM2 M2MM2 M2MM2 M2MM2 M2MM2 M2MM2 M2MM2 M2MM2 M2MM2 M2MM2 M2MM2 M2MM2 M2MM2 M2MM2 M2MM2 M2MM2 M2MM2 MMM2 MMM2 MMM2 MMM2 MMM2 MMM2 MMM2 MMM2 MMM2 MMM MMLM MLMLM MLMLM MLMLM MLMLM MLMLM MLMLM MLMLM MLMLM MLMLM MLMLM MLMLM MLMLM MLMLM MLMLM MLMLM MLMLM MLMLM MLMLM MLMLM MLMLM MLMLM MLMLML MLMLML MLMLML MLMLML MLMLML MLMLML MLMLML MLMLML MLMLML MLMLML MLMLML MLMLML LMLML LMLML LMLML LMLML LMLML LMLML LMLML LMLML LMLML LMLML LMLML LMLML LLML LLML LLML LLML LLML LLML LLML LLML LLML LLML LLML LLL LLL LLL LLL LLL LLL LLL LLL LLL LLL LLL LLL LLL LLL LLL LLL LLL LLL LLL LLL LLL LLL LLL LLL LLL LLL LLL LLL LLL LLL LLL LLL LLL LLL LLL LLL LLL LLL LLL LLL LLL LLL LLL LLL LLL LLL LLL LLL LLL LLL LLL LLL LLJL LLJL LLJL LLJL LLJL LLJL LLJL LLJL LLJL LJLJL LJLJL LJJL LJJL JJL JJL JJL J@JL J@JL J@JL J@4JL J@74JL J@74JL J@74JL J@74JL J@74JL J@74JLJ J@74JLJ J@74JLJ J@74JLJ J@74JLJ J@74JJ J@74JJ J@74JJ J@74JJ J@74JJ J@74JJ J@74JJ J@74JJ J@74JJ J@74JJ J@74JJ4 J@74JJ4 J@74JJ4 J@74JJ4 J@74JJ4 J@74JJ4 J@74JJ4 J@74JJ4 J@74JJ4 J@74JJ4 J@74JJ4 J@74JJ4 J@74JJ4 J@74JJ4 J@74JJ4 J@74JJ4 J@74JJ4 J@74JJ4 J@74JJ4 J@74JJ4 J@74JJ4 J@74JJ4 J@74JJ4 J@74JJ4 J@74JJ4 J@74JJ4 J@74JJ4 J@74JJ4 J@74JJ4 J@74JJ4 J@74JJ4 J@74JJ4 J@74JJ4 J@74JJ4 J@74JJ4 J@74JJ4 J@74JJ4 J@74JJ4 J@74JJ4 J@74JJ4 J@74JJ4 J@74JJ4 J@74JJ4 J@74JJ4 J@74JJ4 J@74JJ4 J@74JJ4 J@74JJ4 J@74JJ4 J@74JJ4 J@74JJ4 J@74JJ4 J@74JJ4 J@74JJ4 J@74JJ4 J@74JJ4 J@74JJ4 J@74JJ4 J@74JJ4 J@74JJ4 J@74JJ4 J@74JJ4 JH@74JHJ4 JH@74JHJ4 JH@74JHJ4 JH@74JHJ4 JH@74JHJ4 JH74JHJ4 JH74JHJ4 JH74JHJ4 JH74JHJ4 JH74JHJ4 JH74JHJ4 JH74JHJ4 JH74JHJ4 JH74JHJ4 JH74JHJ4 H4JHJ4 H4JHJ4 H4JHJ4 H4JHJ4 H4JHJ4 H4HJ4 H4HJH4 H4HJH4 H4HJH4 H4HJH4 HHJH4 HHJH4 HHJH4 HHJH4 HHJH4 HHJH4 HHJH4 HHJH4 HHJH4 HHJH4 HHJH4 HHJH4 HHJH4 HHJH4 HHH4 HHH4 HHH4 HHH4 HHH4 HHH4 HHH4 HHH4 HHH4 HHH4 HHH4 HHH4 HHH4 HHH4 HHH4 HHH4 HHH4 HHH4 HHH4 HHH4 HHH4 HHH HHH HHH HHH HHH HHH HHH HHH HHH HHH HHH HHH HHH HHH HHH HHH HHH HHH HHH HHH HHH HHH HHH HHH HHH HHH HHH HHH HHH HHH HHH HHH HHH HHH HHH HHH HHH HHH HHH HHH HHH HHH HHH HHH HHH HHH HHH HHH HHH HHH HHH HHH HHH HHH HHH HHH HHH HHH HHH HHH HHH HHH HHH HHH HHH HHH HHH HHH HHH HHH HHH HHH HHH HH HH HH HH HGH HGH GHGH GGH GGH GGH GGH GGH GGH G>GH G>GH G>5GH G>5GH G>5GH G>5GH G>5GH G>5GH G>5GH G>5GH G>5GH G>5GH G>5GH G>5GH G>5GH G>5GH G>5GHG G>5GHG G>5GHG G>5GHG G>5GHG G>5GG G>5GG5 G>5GG5 G>95GG5 G>95GG5 G>95GG5 G>95GG5 G>95GG5 G>95GG5 G>95GG5 G>95GG5 G>95GG5 G>95GG5 G>95GG5 G>95GG5 G>95GG5 G>95GG5 G>95GG5 G>95GG5 G>95GG5 G>95GG5 G>95GG5 G>95GG5 G>95GG5 G>95GG5 G>95GG5 G>95GG5 G>95GG5 G>95GG5 G>95GG5 G>95GG5 G>95GG5 G>95GG5 G>95GG5 G>95GG5 G>95GG5 G>95GG5 G>95GG5 G>95GG5 G>95GG5 G>95GG5 G>95GG5 G>95GG5 G>95GG5 G>95GG5 G>95GG5 G>95GG5 G>95GG5 G>95GG5 G>95GG5 G>95GG5 G>95GG5 G>95GG5 G>95GG5 G>95GG5 G>95GG5 G>95GG5 G>95GG5 G>95GG5 G>95GG5 G>95GG5 G>95GG5 G>95GG5 G95GG5 G95GG5 G95GG5 G95GG5 G95GG5 G95GG5 G95GG5 G95GG5 G95GG5 G95GG5 G95GG5 GH95GG5 GH95GG5 GH95GG5 GH95GG5 GH95GG5 GH95GHG5 GH95GHG5 GH95GHG5 GH95GHG5 GH95GHG5 GH95GHG5 GH95GHG5 GH95GHG5 GH95GHG5 GH95GHG5 GH95GHG5 GH95GHG5 GH95GHG5 GH95GHG5 GH95GHG5 GH5GHG5 GH5GHG5 GH5HG5 GHHG5 GHHG5 HHG5 HHG5 HHG HHG HHG HHG HHG HHG HHG HHG HHG HHG HHG HHG HH HH HH HH HH HH HHH HHH HHH HHH HHH HHH HHH HHH HHH HHH HHH HHH HHH HHH HHH HHH HHH HHH HHH HHH HH HH HH HH HH HH HH HH HH H H H H H H H H H H H H H H H H H H H H H H H H H H H H H H H H H H H H         H H H H H H H H H H H H H H H H H H H H HH HH HH HH HH HH HH HH HH HH HH HH HH HH HH HH HH H7H7 H7H7 H>7H7 H>7H7 H>7H7 H>7H7 H>7H7 H>77H7 H>77H7 H>77H7 H>77H7 H>77H7 H>77H7 H>77H7 H>77H7 H>77H7 H>77HH7 H>77HH7 H>77HH7 H>77HH7 H>77HH7 H>77HH7 H>77HH7 H>77HH7 H>77HH7 H>77HH7 H>77HH7 G>77HH7 G>77HH7 G>77HH7 G>77HH7 G>77HH7 G>77HH7 G>77HH7 G>77HH7 G>77HH7 G>77HH7 G>77HH7 G>77HH7 G>77HH7 G>77HH7 G>77HH7 G>77GH7 G>77GH7 G>77GH7 G>77GH7 G>77GH7 G>77GH7 G>77GH7 G>77GH7 G>77GH7 G>77GH7 G>77GH7 G>77GH7 G>77GH7 G>77GH7 G>77GH7 G>77GH7 G>77GH7 G>77GH7 G>77GH7 G>77GH7 G>77GH7 G>77GH7 G>77GH7 G>77GH7 G>77GH7 G>77GH7 G>77G7 G>77G7 G>77G7 G>77G7 G>77GG7 GH>77GG7 GH>77GG7 GH>77GG7 GH>77GG7 GH>77GG7 H>77GG7 H>77GG7 H>77GG7 H>77GG7 H>77GHG7 H>77GHG7 H>77GHG7 H>77GHG7 H>77GHG7 H>77GHG7 H>77GHG7 H>77GHG7 H>77GHG7 H>77HG7 H>77HG7 H>77HG7 H>77HG7 H>77HG7 H>77HG7 H>77HG7 H>77HG7 H>77HG7 H>77HG7 H>77HG7 H>7HG7 H>7HG7 H>7HG7 H>7HG7 H>7HG7 H>7HG7 H>7HG7 H>7HG H>7HG H>76HG H>76HG H>76HG H>76HG H>6HG H>6HGH H>6HGH H>6HGH H>6HGH HG>6HGH HG>6HGH HG>6HGH HG>6HGH HG>6HGH HG>6HH HG>6HH HG>6HH HG>6HH HG>6HH HG>6HH HG>6HH HG>6HH HG>6HH HG>6HH HG>6HH HG>6HH HG>6HGH HG>6HGH HG>6HGH HG>6HGH HG>6HGH HG>6HGH HG>6HGH HG>6HGH HG>6HGH HG>6HGH G>6HGH G>6HGH G>6HGH G>6HGH G>6HGH G>6HGH G>6HGH G>6HGH G>6HGH G>6HGH G>6GH G>6GH G>6GH G>6GH G>6GH G>6GH G>6GH G>6GH G>6GH G>6GH G>6GH G>6GH G>6GHG G>6GHG G>6GHG G>6GHG G>6GHG G>6GHG G>6GHG G>6GHG G>6GHG G>6GHG G>6GHG G>6GHG G>6GHG G>6GHG G>6GHG G>6GHG G>6GHG G>6GHG G>6GHG G>6GHG G>6GG G>6GG G>6GG G>6GG G>6GG G>6GG G>6GG G>6GG G>6GG G>6GG G>6GG G>6GG G>6GG G>6GG G>6GG G>6GG G>6GG G>6GG G>6GG G>6GG G>6GG G>6GG G>6GG G>6GG G>6GG G>6GG G>6GG G>6GG G>6GG G>6GG G>GG G>GG G>GG G>GG G>GG G>GG G>GG G>GG+ G>GG+ G>7+GG+ G>7+GG+ G>7+GG+ G>7+GG+ G>7+GG+ G>7+GG+ G>7+GG+ G>7+GG+ G>7+GG+ G>7+GG+ G>7+GG+ G>7+GG+ G>7+GG+ G>7+GG+ G>7+GG+ G>7+GG+ G>7+GG+ G>7+GG+ G>7+GG+ G>7+GG+ G>7+GG+ G>7+GG+ G>7+GG+ G>7+GG+ G>7+GG+ G>7+GG+ G>7+GG+ G>7+GG+ G>7+GG+ G>7+GG+ G>7+GG+ G>7+GG+ G>7+GG+ G>7+GG+ G>7+GG+ G>7+GG+ G>7+GG+ G>7+GG+ G>7+GG+ G>7+GG+ G>7+GG+ G>7+GG+ G>7+GG+ G>7+GG+ G>7+GG+ G>7+GG+ G>7+GG+ G>7+GG+ G>7+GG+ G>7+GG+ G>7+GG+ G>7+GG+ G>7+GG+ G>7+GG+ G>7+GG+ G>7+GG+ G>7+GG+ G>7+GG+ G>7+GG+ G>7+GG+ G>7+GG+ G>7+GG+ G>7+GG+ G>7+GG+ G>7+GG+ G>7+GG+ G>7+GG+ G>7+GG+ G>7+GG+ G>7+GG+ G>7+GG+ G>7+GG+ G>7+GG+ G>7+GG+ G>7+GG+ G>7+GG+ G>7+GG+ G>7+GG+ G>7+GG+ G>7+GG+ G>7+GG+ G>7+GG+ G>7+GG+ G>7+GG+ G>7+GG+ G>7+GG+ G>7+GG+ G>7+GG+ G>7+GG+ G>7+GG+ G>7+GG+ G>7+GG+ G>7+GG+ GH>7+GG+ GH>7+GG+ GH>7+GG GH>7+GG GH>7+GG GH>7+GG GH>7+GHG H>7+GHG H>7+GHG H>7+GHG H>7+GHG H>7+GHG H>7+GHGH H>7+GHH H>79+HH H>79+HH H>79+HH H>79+HH H>79+HH H>79+HH H>79+HH H>79+HH H>79HH H>79HH H>79HH H>79HH H>79HH H>9HH H>9HH H>9HH H>9HH H>9HH H>9HH H>9HH H>9HH H>9HH H>9HH H>9HH H>9HH H>9HH H>9HH H>9HH H>9HH H>9HH H>9HH H>9HH H>9HH H>9HH H>9HH H>9HH H>9HH H>9HH H>9HH H>9HH H>9HH H>9HH H>9HH H>9HH H>9HH H>9HH H>9HH H>9HH H>9HH H>9HH H>9HH H9HH H9HH H9HH H9HH H9HH H9HH H9HH H9HH H9HH H9HH 9HH 9HH 9HH 9HH 9HH 9HH 9HH 9HH 9HH 9HH 9HH 9H 9 9 9 9 9 9 9 9 9 9 9 9 9 9 9 9 9 9 9 9 9 9 9 9 9 9              J J J J J J JJ JJ JJ JJ JJ JJ JJ JJ JJ JJ JJ JJ JJ JJ J;JJ J;JJ J;JJ J;JJ7 J;JJ7 J;JJ7 J;JJ7 J;7JJ7 J;7JJ7 J;7JJ7 J;7JJ7 J;7JJ7 J;7JJ7 J;7JJ7 JC;7JJ7 JC;7JJ7 JC;7JJ7 JC;7JJ7 JC;7JJ7 JC;7JJ7 JC;7JJ7 JC;7JJ7 JC;7JJ7 JC;7JJ7 JC;7JJ7 JC;7JJ7 JC;7JJ7 JC;7JJ7 JC;7JJ7 JC;7JJ7 JC;7JJ7 JC;7JJ7 JC;7JJ7 JC;7JJ7 JC;7JJ7 JC;7JJ7 JC;7JJ7 JC;7JJ7 JC;7JJ7 JC;7JJ7 JC;7JJ7 JC;7JJ7 JC;7JJ7 JC;7JJ7 JC;7JJ7 JC;7JJ7 JC;7JJ7 JC;7JJ7 JC;7JJ7 JC;7JJ7 JC;7JJ7 JC;7JJ7 JC;7JJ7 JC;7JJ7 JC;7JJ7 JC;7JJ7 JC;7JJ7 JC;7JJ7 JC;7JJ7 JC;7JJ7 JC;7JJ7 JC;7JJ7 JC;7JJ7 JC;7JJ7 JC;7JJ7 JC;7JJ7 JC;7JJ7 JC;7JJ7 JC;7JJ7 JC;7JJ7 JC;7JJ7 JC;7JJ7 JC;7JJ7 JC;7JJ7 JC;7JJ7 JC;7JJ7 JC;7JJ7 JC;7JJ7 JC;7JJ7 JC;7JJ7 JC;7JJ7 JC;7JJ7 JC;7JJ7 JC;7JJ7 JC;7JJ7 JC;7JJ7 JC;7JJ7 JC;7JJ7 JC;7JJ7 JC;7JJ7 JC;7JJ7 JC;7JJ7 JC;7JJ7 JC;7JJ7 JC;7JJ7 JC;7JJ7 JC7JJ7 JC7JJ7 JC7JJ7 JC7JJ7 JC7JJ7 JC7JJ7 JC7JJ7 JC7JJ7 JC7JJ7 JC7JJ JC7JJ JC7JJ JC7JJ JC7JJ JC7JJ JC7JJ JC7JJ JC7JJ JC7JJ JCJJ JCJJ JCJJ JCJJ JCJJ JCJJ JCJJ JCJJ JCJJ JCJJ JCJJ JCJJ JCJJ JCJJ JCJJ JCJJ JCJJ JCJJ JCJJ JCJJ JCJJ JCJJ JCJJ JCJJ JCJJ JCJJ JCJJ JCJJ JCJJ JCJJ JCJJ JCJJ JCJJ JCJJ JCJJ JCJJ JCJJ JCJJ JCJJ JCJJ JCJJ JCJJ JCJJ JCJJ JCJJ JCJJ JCJJ JCJJ JCJJ CJJ CJJ CJJ CJJ CJJ CJJ CJJ CJJ CJJ CJJ CJJ CJJ CJJ CJJ CJJ CJJ CJJ CJJ CJJ CJJ CJJ CJJ CJJ CJJ CJJ CJJ CJJ CJJ CJJ CJJ CJJ CJ CJ CJ CJ CJ CJ CJ CJ CJ CJ CJ CJ C C C C C C C C C C C C C C C C C C C C C C C C C C C C C C C< C< C<9 C<9 C<9 C<99 C<99 HC<9H9 HC<9H9 HC<9H9 HC<9H9 HC<9H9 HC<9H9 HC<9HH9 HC<9HH9 HC<9HH9 HC<9HH9 HC<9HH9 HC<9HH9 HC<9HH9 HC<9HH9 HC<9HH9 HC<9HH9 HC<9HH9 HC<9HH9 HC<9HH9 HC<9HH9 HC<9HH9 HC<9HH9 HC<9HH9 HC<9HH9 HC<9HH9 HC<9HH9 HC<9HH9 HC<9HH9 HC<9HH9 HC<9HH9 HC<9HH9 HC<9HH9 HC<9HH9 HC<9HH9 HC<9HH9 HC<9HH9 HC<9HH9 HC<9HH9 HC<9HH9 HC<9HH9 HC<9HH9 HC<9HH9 HC<9HH9 HC<9HH9 HC<9HH9 HC<9HH9 HC<9HH9 HC<9HH9 HC<9HH9 HC<9HH9 HC<9HH9 HC<9HH9 HC<9HH9 HC<9HH9 HC<9HH9 HC<9HH9 HC<9HH9 HC<9HH9 HC<9HH9 HC<9HH9 HC<9HH9 HC<9HH9 HC<9HH9 HC<9HH9 HC<9HH9 HC<9HH9 HC<9HH9 HC<9HH9 HC<9HH9 HC9HH9 HC9HH9 HC9HH9 HC9HH9 HC9HH9 HC9HH9 HC9HH9 HC9HH9 HC9HH9 HC9HH9 HC9HH9 HC9HH9 HC9HH9 HC9HH9 HC9HH9 HC9HH9 HC9HH9 HC9HH9 HC9HH9 HC9HH9 HC9HH9 HC9HH9 HC9HH9 HC9HH9 HC9HH9 HC9HH9 HC9HH9 HC9HH9 HCHH9 HCHH9 HCHH9 HCH9 HCH9 HCH9 HCH9 HGCH9 HGCH9 HGCH9 HGCH9 HGCG9 HGCG9 HGCG9 HGCG HGCG HGCG HGCG HGCGG HGCGG HGCGG HGCGG HGCGG HGGG HGGG HGGG HGGG HGGG HGGG HGGG HGGG GGG GGG GGG GGG GGG GGG GGG GGG GGG GGG GGG GGG GGG GGG GGG GGG GGG GGG GGG GGG GGG GGG GGG GGG GGG GGG GGG GGG GGG GGG GGG GGG GGG GGG GGG GGG GGG GGG GGG GGG GGG GGG GGG GGG GGG GGG GGG GGG GGG GGG GGG GGG GGG GGG GGG GGG GGG GGG GGG GGG GGG GGG GGG GGG GGG GGG GGG GGG GGG GGG GGG GGG GGG GGG GGG GGG GG GG GG G G G                       7 7 >7 >77 >77 >77 >77 >77 >7E7 >7E7 >7E7 >7E7 >7E7 E>7E7 E>7E7 E>7E7 E>7E7 E>7E7 E>7E7 E>7EE7 E;>7EE7 E;>7EE7 E;>7EE7 E;>7EE7 E;>7EE7 E;>7EE7 E;>7EE7 E;>7EE7 E;>7EE7 E;>7EE7 E;>7EE7 E;>7EE7 E;>7EE7 E;>7EE7 E;>7EE7 E;>7EE7 E;>7EE7 E;>7EE7 E;>7EE7 E;>7EE7 E;>7EE7 E;>7EE7 E;>7EE7 E;>7EE7 E;>7EE7 E;>7EE7 E;>7EE7 E;>7EE7 E;>7EE7 E;>7EE7 E;>7EE7 E;>7EE7 E;>7EE7 E;>7EE7 E;>7EE7 E;>7EE7 E;>7EE7 E;>7EE7 E;>7EE7 E;>7EE7 E;>7EE7 E;>7EE7 E;>7EE7 E;>7EE7 E;>7EE7 E;>7EE7 E;>7EE7 E;>7EE7 E;>7EE7 E;>7EE7 E;>7EE7 E;>7EE7 E;>7EE7 E;>7EE7 E;>7EE7 E;>7EE7 E;>7EE7 E;>7EE7 E;>7EE7 E;>7EE7 E;>7EE7 E;>7EE7 E;>7EE7 E;>7EE7 E;>7EE7 E;>7EE7 E;>7EE7 E;>7EE7 E;>7EE7 E;>7EE7 E;>7EE7 E;>7EE7 E;>7EE7 E;>7EE7 E;>7EE7 E;>7EE7 E;>7EE7 E;>7EE7 E;>7EE7 E;>7EE7 E;>7EE7 E;>7EE7 E;>7EE7 E;>7EE7 E;>7EE7 E;>7EE7 E;>7EE7 E;>7EEC7 E;>7EEC7 E;>7EEC7 E;>7EEC7 E;>7EEC E;>7EEC E;>7EEC E;>7EEC E;>7EEC E;>7EEC E;>7EEC E;>7EEC E;>7EEC EC;>7EEC EC;>7EEC C;>EEC C;>EEC C;>EEC C;>EEC C;>EEC C;>ECC C;>ECC C;>ECC C;>ECC C;>ECC C;>ECC C;>ECC C;>ECC C;>CC C;>CC C;>CC C;>CC C;>CC C;>CC C;>CC C;>CC C;>CC C;>CC C;>CC C;>CC C;>CC C;>CC C;>CC C;>CC C;>CC C;>CC C;>CC C;>CC C;>CC C;>CC C;>CC C;>CC C;>CC C;>CC C;>CC C;>CC C;>CC C;>CC C;>CC C;>CC C;>CC C;>CC C;>CC C;>CC C;>CC C;>CC C;>CC C;>CC C;>CC C;>CC C;>CC C;>CC C;>CC C;>CC C;>CC C;>CC C;>CC C;>CC C;>CC C;>CC C;>CC C;>CC C;>CC C;>CC C;>CC C;>CC C;>CC C;>CC C;>CC C;>CC C;>CC C;>CC C;>CC C;>CC C;>CC C;>CC C;>CC C;>CC C;>CC C;>CC C;>CC C;>CC C;>CC C;>CC C;>CC C;>CC C;>CC C;>CC C;>CC C;>C C;>C C;>C C;>C C;>C C;>C C;>C C;>C C;>C C;>C C;>C C;>C C;>C C;>C C;>C C;>C C;>C C;>C C;>CE C;>CE C;>CE C;>CE C;>CE C;>CE C;>CE C;>CE5 C;>CE5 C;>CE5 C;>CE5 C;>CE5 C;>CE5 C;>CE5 ;>5CE5 ;>5CE5 ;>5CE5 ;>5CE5 ;>5E5 ;>5E5 ;>5E5 E;>5EE5 E;>5EE5 E;>5EE5 E;>5EE5 E;>5EE5 E;>5EE5 E;>5EE5 E;>5EE5 E;>5EE5 E;>5EE5 E;>5EE5 E;>5EE5 E;>5EE5 E;>5EE5 E;>5EE5 E;>5EE5 E;>5EE5 E;>5EE5 E;>5EE5 E;>5EE5 E;>5EE5 E;>5EE5 E;>5EE5 E;>5EE5 E;>5EE5 E;>5EE5 E;>5EE5 E;>5EE5 E;>5EE5 E;>5EE5 E;>5EE5 E;>5EE5 E;>5EE5 E;>5EE5 E;>5EE5 E;>5EE5 E;>5EE5 E;>5EE5 E;>5EE5 E;>5EE5 E;>5EE5 E;>5EE5 E;>5EE5 E;>5EE5 E;>5EE5 E;>5EE5 E;>5EE5 E;>5EE5 E;>5EE5 E;5EE5 E;5EE5 E;5EE5 E;5EE5 E;5EE5 E;5EE5 E;5EE5 E;5EE5 E;5EE5 E;5EE5 E;5EE5 E;5EE5 E;5EE5 E;5EE5 E;5EE5 E;5EE5 E;5EE5 E;5EE5 E;5EE5 E;5EE5 E;5EE5 E;5EE5 E;5EE E;5EE E5EE E5EE EEE EEE EEE EEE EEE EEE EEE EEE EEE EEE EEE EEE EEE EEE EEE EEE EEE EEE EEEG EEG EEG EEG EEG EEG EEG EEG EEG EEG EEG EEG EEG EEG EEG EEG EEG EGEGG EGEGG EGEGG EGEGG EGEGG EGEGG EGEGG EGEGG EGEGG EGEGG EGEGG EGEGG EGEGG EGEGG EGGG EGGG EGGG EGGG GGG GGG GGG GGG GGG GGG GGG GGG GGG GGG GGG GGG GGG GGG GGG GGG GGG GGG GGG GGG GGG GGG GGG GGG GGG GGG GGG GGG GGG GGG GGG GGG GGG GGG GGG GGG GGG GGG GGG GGG GGG GGG GGG GGG GGG GGG GGG GG G G G G G G G G G G G G                                     4 4 4 4 4 4 4 4 4 4 H4 4HH4 4HH4 H4HH4 H4HH4 H@4HH4 H@4HH4 GH@4HH4 GH@4HH4 GH@4HH4 GH@4HH4 GH@4HH4 GHC@4HH4 GHC@4HH4 GHC@4HH4 GHC@4HH4 GHC@4HH4 GHC@4HH4 GHC@4HH4 GHC@4HH4 GHC@4HH4 GHC@4HH4 GHC@4HH4 GHC@4HH4 GHC@4HH4 HC@4HH4 HC@4HH4 HC@4HH4 HC@4HH4 HC@4HH4 HC@4HH4 HC@4HH4 HC@4HH4 HC@4HH4 HC@4HH4 HC@4HH4 HC@4HH4 HC@4HH4 HC@4HH4 HC@4HH4 HC@4HH4 HC@4HH4 HC@4HH4 HC@4HH4 HC@4HH4 HC@4HH4 HC@4HH4 HC@4HH4 HC@4HH4 HC@4HH4 HC@4HH4 HC@4HH4 HC@4HH4 HC@4HH4 HC@4HH4 HC@4HH4 HC@4HH4 HC@4HH4 HC@4HH4 HC@4HH4 HC@4HH4 HC@4HH4 HC@4HH4 HC@4HH4 HC@4HH4 HC@4HH4 HC@4HH4 HC@4HH4 HC@4HH4 HC@4HH4 HC@4HH4 HC@4HH4 HC@4HH4 HC@4HH4 HC@4HH4 HC@4HH4 HC@4HH4 HC@4HH4 HC@4HH4 HC@4HH4 HC@4HH4 HC@4HH4 HC@4HH4 HC@4HH4 HC@4HH4 HC@4HH4 HC@4HH4 HC@4HH4 HC@4HH4 HC@4HH4 HC@4HH4 HC@4HH4 HC@4HH4 HC@4HH4 HC@4HH4 HC@4HH4 HC@4HH4 HC@4H4 HC@4H4 HC@4H4 HC@4H4 HC@4H4 HC@4H4 HC@4H4 HC@4H4 HC@4G4 HC@4G4 HC@4G4 HC@4G4 HC@4G HC@4G HC@>4G HC@>4G HGC@>GG HGC@>GG GC@>GG GC@>GG GC@>GG GC@>GG GC@>GG GC@>GG GC@>GG GC@>GG GC@>GG GC@>GG GC@>GG GC@>GG GC>GG GC>GG GC>GG GC>GG GC>GG GC>GG GC>GG GC>GG GC>GG GC>GG GC>GG GC>GG GC>GG GC>GG GC>GG GC>GG GC>GG GC>GG GC>GG GC>GG GC>GG GC>GG GC>GG GC>GG GC>GG GC>GG GC>GG GC>GG GC>GG GC>GG GC>GG GC>GG GC>GG GC>GG GC>GG GC>GG GC>GG GC>GG GC>GG GC>GG GC>GG GC>GG GC>GG GC>GG GC>GG GC>GG GC>GG GC>GG GC>GG GC>GG GC>GG GC>GG GC>GG GC>GG GC>GG GC>GG GC>GG GC>GG GC>GG GC>GG GC>GG GC>GG GC>GG GC>GG GC>GG GC>GG GC>GG GC>GG GC>GG GC>GG GC>GG GC>GG GC>GG GC>GG GC>GG GC>GG GC>GG GC>GG GC>GG GC>GG GC>GG GC>GG GC>GG GC>GG GC>GG GC>GG GC>GG GC>GG GC>GG GC>GG GC>GG GC>GG GC>GG GC>GG GC>GG GC>GG GC>GG GHC>GG GHC>GG GHC>GG GHC>GG GHC>GG GHC>@G HC>@G HC>@G HC>@G HC@G HC@G HC@HG HC@HH HC@HH HC@HH HC@HH HC@HH HC@HH HC@HH2 HC@2HH2 HC@2HH2 HC@2HH2 HC@2HH2 HC@2HH2 HC@2HH2 HC@2HH2 HC@2HH2 HC@2HH2 HC@2HH2 HC@2HH2 HC@2HH2 HC@2HH2 HC@2HH2 HC@2HH2 HC@2HH2 HC@2HH2 HC@2HH2 HC@2HH2 HC@2HH2 HC@2HH2 HC@2HH2 HC@2HH2 HC@2HH2 HC@2HH2 HC@2HH2 HC@2HH2 HC@2HH2 HC@2HH2 HC@2HH2 HC@2HH2 HC@2HH2 HC@2HH2 HC@2HH2 HC@2HH2 HC@2HH2 HC@2HH2 HC@2HH2 HC@2HH2 HC@2HH2 HC@2HH2 HC@2HH2 HC@2HH2 HC@2HH2 HC@2HH2 HC@2HH2 HC@2HH2 HC@2HH2 HC@2HH2 HC@2HH2 HC@2HH2 HC@2HH2 HC@2HH2 HC@2HH2 HC@2HH2 HC@2HH2 HC@2HH2 HC@2HH2 HC@2HH2 HC@2HH2 HC@2HH2 HC@2HH2 HC@2HH2 HC@2HH2 HC@2HH2 HC@2HH2 HC@2HH2 HC@2HH2 HC@2HH2 HC@2HH2 HC@2HH2 HC@2HH2 HC@2HH2 HC@2HH2 HC@2HH2 HC@2HH2 HC@2HH2 HC@2HH2 HC@2HH2 HC@2HH2 HC@2HH2 HC@2HH2 HC@2HH2 HC@2HH2 HC@2HH2 HC@2HH2 HC@2H2 HC@2H2 HC@2H2 HC@2H2 HC@2H2 HC@2H2 HC@2H2 HC@2H2 HC@2H2 HC@2H2 HC@2H2 HC@2H2 HC@2H2 HC@2H2 HC@A22 HC@A22 HJC@A22 HJC@A22 HJC@A2J2 HJC@A2J2 HJC@A2J2 HJC@AJJ2 HJC@AJJ2 HJC@AJJ2 JC@AJJ2 JC@AJJ2 JC@AJJ2 JC@AJJ2 JC@AJJ2 JC@AJJ2 JCAJJ2 JCAJJ2 JCAJJ2 JCAJJ2 JCAJJ2 JCAJJ2 JCAJJ2 JCAJJ JCAJJ JCAJJ JCAJJ JCAJJ JCAJJ JCAJJ JCAJJ JCAJJ JCAJJ JCAJJ JAJJ JAJJ JAJJ JAJJ JAJJ JAJJ JAJJ JAJJ JAJJ JAJJ JAJJ JAJJ JAJJ JAJJ JAJJ JAJJ JAJJ JAJJ JAJJ JAJJ JAJJ JAJJ JAJJ JAJJ JAJJ JAJJ JAJJ JAJJ JAJJ JAJJ JAJJ JAJJ JAJJ JAJJ JAJJ JAJJ JAJJ JAJJ JAJJ JAJJ JAJJ JAJJ JAJJ JAJJ JAJJ JAJJ JAJJ JAJJ JAJJ JAJJ JAJJ JAJJ JAJJ JAJJ JAJJ JAJJ JAJJ JAJJ JAJ AJ AJ AJ AJ AJ AJ AJ AJ AJ AJ AJ AJ A A A A A A A A A              LC LC LC LC LC LC LC00 LC00 LC00 LC00 LC00 LC0LL0 LC0LL0 LC0LL0 LC0LL0 LC0LL0 LC0LL0 LHC0LL0 LHC0LL0 LHC0LL0 LHC0LL0 LHC0LL0 LHC0LL0 LHC0LL0 LHC0LL0 LHC0LL0 LHC0LL0 LHC0LL0 LHC0LL0 LHC0LL0 LHC0LL0 LHC0LL0 LHC0LL0 LHC0LL0 LHC0LL0 LHC0LL0 LHC0LL0 LHC0LL0 LHC0LL0 LHC0LL0 LHC0LL0 LHC0LL0 LHC0LL0 LHC0LL0 LHC0LL0 LHC0LL0 LHC0LL0 LHC0LL0 LHC0LL0 LHC0LL0 LHC0LL0 LHC0LL0 LHC0LL0 LHC0LL0 LHC0LL0 LHC0LL0 LHC0LL0 LHC0LL0 LHC0LL0 LHC0LL0 LHC0LL0 LHC0LL0 LHC0LL0 LHC0LL0 LHC0LL0 LHC0LL0 LHC0LL0 LHC0LL0 LHC0LL0 LHC0LL0 LHC0LL0 LHC0LL0 LHC0LL0 LHC0LL0 LHC0LL0 LHC0LL0 LHC0LL0 LHC0LL0 LHC0LL0 LHC0LL0 LHC0LL0 LHC0LL0 LHC0LL0 LHC0LL0 LHC0LL0 LHC0LL0 LHC0LL0 LHC0LL0 LHC0LL0 LHC0LL0 LHC0LL0 LHC0LL0 LHC0LL0 LHC0LL0 LHC0LL0 LHC0LL0 LHC0LL0 LHC0LL0 LHC0LL0 LHC0LL0 LHC0LL0 LHC0LL0 LHC0LL0 LHC0LL0 LHC0LL0 LHC0LL0 LHC0LL0 LHC0LL0 LHC0LL0 LHC0LL0 LHC0LL0 LHC0LL0 LHC0LL0 LHC0LL0 LHC0LL0 LHC0LL0 LHC0LL0 LHC0LL0 LHC0LL0 LHC0LL0 LHC0LL0 LHC0LL0 LHC0LL0 LHC0LL0 LHC0LL0 LHC0LL0 LHC0LL0 LHC0LL0 LHC0LL0 LHC0LL0 LHC0LL0 LHC0LL0 LHC0LL0 LHC0LL0 LHC0LL0 LHC0LL0 LHC0LL0 LHC0LL0 LHC0LL0 LHC0LL0 LHC0LL0 LHC0LL0 LHC0LL0 LHC0LL0 LHC0LL0 LHC0LL0 LHC0LL0 LHC0LL0 LHC0LL LHC0LL LHC0LL LHC0LL LHC0LL LHC0LL LHC0LL LHC0LL LHCLL LHCLL LHCLL LHCLL LHCLL LHCLL LHCLL LHCLL LHCLL LHCLL LHCLL LHCLL LHCLL LHCLL LHCLL LHCLL LHCLL LHCLL LHCLL LHCLL LHCLL LHCLL LHCLL LHCLL LHCLL LHCLL LHCLL LHCLL LHCLL LHCLL LHCLL LHCLL LHCLL LHCLL LHCLL LHCL LHC LHC LHC LHC LHC LH LH LH LH LH LH LH LH LH LH LH LH LH LH LH LH LH LH LH LH H H H H H H H H H H H H H H H H H H< H< H< H< H< H< H< H< H< H<< H<< H<< H<< H<< H<< H<< H<< H<< H<< H<< H<< H<< H<< H<< H<< H<< H<< H<< H<< H<< H<< H<< H<< H<< H<< H<< H<< H<< H<< H<< H<< H<< H<< H<< H<< H<< H<< H<< H<< H<< H<< H<< H<< H<< H<< H<< H<< H<< H<< H<< H<< H<< H<< H<< H<< H<< H<< H<< H<< H<< H<< H<< H<< H<< H<< H<< H<< H<< H<< H<< << << << << << << << << << << << << << << << << << << << << << << << << << << << E< E< E< E< E E EM EM EM EM EM MEM MEM MEM MEMM MEMM MEMM MEMM MEMM MEMM MEMM MEMM MEMM MEMM MEMM MEMM MEMM MEMM MEMM MEMM MEMM MEMM MEMM MEMM MEMM MEMM MEMM MEMM MEMM MEMM MEMM MEMM MEMM MEMM MEMM MEMM MEMM MEMM MEMM MEMM MEMM MEMM MEMM MEMM MEMM MEMM MEMM MEMM MEMM MEMM MEMM MEMM MEMM MEMM MEMM MEMM MEMM MEMM MEMM MEM ME ME ME ME ME ME ME ME ME M M                                                     C C C C C HC HC HC HC7 HC7 HCL7 HCLL7 HCLL7 HC7LL7 HC7LL7 HC7LL7 HC7LL7 LHC7LL7 LHC7LL7 LHC7LL7 LHC7LL7 LHC7LL7 LHC7LL7 LHC7LL7 LHC7LL7 LHC7LL7 LHC7LL7 LHC7LL7 LHC7LL7 LHC7LL7 LHC7LL7 LHC7LL7 LHC7LL7 LHC7LL7 LHC7LL7 LHC7LL7 LHC7LL7 LHC7LL7 LHC7LL7 LHC7LL7 LHC7LL7 LHC7LL7 LHC7LL7 LHC7LL7 LHC7LL7 LHC7LL7 LHC7LL7 LHC7LL7 LHC7LL7 LHC7LL7 LHC7LL7 LHGC7LL7 LHGC7LL7 LGC7LL7 LGC7LL7 LGC7LL7 LGC7LL7 LGC7LJL7 LGC7JJ7 LGC7JJ7 LGC7JJ7 LGCA7JJ7 LGCA7JJ7 LGCA7JJ7 LGCA7JJ7 LGCA7JJ7 LGCA7JJ7 LGCA7JJ7 LJGCA7JJ7 LJGCA7JJ7 LJGCA7JJ7 LJGCA7JJ7 LJGCA7JJ7 LJGA7JJ7 LJGA7JJ7 JGA7JJ7 JGA7JJ7 JGA7JJ7 JGA7JJ7 JGA7JJ7 JGA7JJ7 JGA7JJ7 JGA7JJ7 JGA7JJ7 JGA7JJ7 JGA7JJ7 JGA7JJ7 JGA7JJ7 JGA7JJ7 JGA7JJ7 JGA7JJ7 JGA7JJ7 JGA7JJ7 JGA7JJ7 JGA7JJ7 JGA7JJ7 JGA7JJ7 JGA7JJ7 JGA7JJ7 JG7JJ7 JG7JJ7 JGHC7JJ7 JGHC7JJ7 JGHC7JLJ7 JGHC7JLJ7 JGHC7JLJ7 JGHC7JLJ7 JGHC7JLJ7 JGHC7JLJ7 JGHC7JLJ7 LJGHC7JLJ7 LJGHC7JLJL7 LJGHC7JLJL7 LJGHC7JLL7 LJHC7JLL7 LJHCLL7 LJHCLL7 LJHCLL LJHCLL LJHCLL LJHCLL LJHCLL LJHCLL LJHCLL LJHCLL LJHCLL LJHCLL LJHCLL LJHCLL LJHCLL LJHCLL LJHCLL LJHCLL LJHCLL LJHCLL LJHCLL LJHCLL LJHCLL LJHCLL LJHCLL LJHCLL LJHCLL LJHCLL LJHCLL LJHCLL LJHCALL LJHCALL LJHCALL LJHCALL LJHCALL LJHCALL LJHCALL LJHCALL LJHCALL LJHCALL LJHGCALL LJHGCALL LJHGCALL LJHGCALL LJHGCALL LJHGCALLJ LJHGCALLJ LJHGCALLJ LJHGCALJLJ LJHGCALJLJ LJHGCALJLJ LJHGCALJLJ LJHGCALJLJ LJHGCALJLJ LJHGCALJLJ LJHGCALJLJ LJHGCALJLJ LJHGCAJLJ LJHGCAJLJ JHGCAJLJ JHGCAJLJ JHGCAJLJ JHGCAJLJ JHGCAJLJ JGCAJLJ JGCAJJ JGCAJJ JGCAJJ JGCAJJ JGCAJJ JGAJJ JGAJJ JGAJJ JGAJJ JGAJJ JGAJJ JGAJJ JGAJJ JGAJJ JGAJJ JGAJJ JGAJJ JGAJJ JGAJJ JGAJJ JGAJJ JGAJJ JGAJJ JGAJJ JGAJJ JGAJJ JGAJJ JGAJJ JGAJJ JGAJJ JGAJJ JGAJJ JGAJJ JGAJJ JGAJJ JGAJJ JGAJJ JGAJJ JGAJJ JGAJJ JGAJJ JGAJJ JGAJJ JGAJJ JGAJJ JGAJJ JGAJJ JGAJJ JGAJJ JGAJJ JGAJJ JGAJJ JGAJJ JGAJJ JGAJ JGAJ JGA JGA JGA JGA JGA JGA JGA JGA JGA JGA JGA JGA JGA JGA JGA JGA JGA JGA JGA JGA JGA JGA JGA9 JGA99 JGA99 JGA99 JGA99 JGA99 JGA99 JGA99 JGA99 JGA99 JGA99 JGA99 GA99 GA99 GA99 GA99 GA99 GA99 GA99 GA99 GA99 GA99 GA99 99 99 99 99 99 99 99 99 99 99 99 99 99 99 99 99 99 99 99 99 99 99 99 99 99 99 99 99 99 99 99 99 99 99 99 99 99 99 99 9 9 9 9 9 9 9 9 9                          H H H H H H H H H H H H H H H H H H H H H H H@ H@ H@ H@ H@ H@ H@ HH@ HH@ HH@ HH@ HH@ HH@ HH@ HH@ HH@ HH@H HH@H HH@HH HH@HH HH@HH HH@HH HH@HH HH@HH HH@HH HH@HH HH@HH HH@HH HH@HH HH@HH HH@HH HH@HH HH@HH HH@HH HH@HH HH@HH HH@HH HH@HH HH@HH HH@HH HH@HH HH@HH HH@HH HH@HH HH@HH HH@HH HH@HH HH@HH HH@HH H@HH H@HH H@HH H@HH H@HH H@HH H@HH H@HH H@HH H@HH H@HH H@HH H@HH H@HH H@HH HHH HHH HHH HHH HHH HHH HH HH HH HH HH HH HH HH HH HH HH HH H H H H H H H H H H H                     4 4 4 4 @4 @4 H@4 H@4 H@4 H@4 H@4 H@4 H@4 H@4 H@4 OH@4 OH@4 OH@4 OH@4 OH@4 OH@4 OH@44 OH@4O4 OH@4O4 OH@4OO4 OH@4OO4 OH@4OO4 OH@4OO4 OH@4OO4 OH@4OO4 OH@4OO4 OH@4OO4 OH@4OO4 OH@4OO4 OH@4OO4 OH@4OO4 OH@4OO4 OH@4OO4 OH@4OO4 OH@4OO4 OH@4OO4 OH@4OO4 OH@4OO4 OH@4OO4 OH@4OO4 OH@4OO4 OH@4OO4 OH@4OO4 OH@4OO4 OH@4OO4 OH@4OO4 OH@4OO4 OH@4OO4 OH@4OO4 OH@4OO4 OH@4OO4 OH@4OO4 OH@4OO4 OH@4OO4 OH@4OO4 OH@4OO4 OH@4OO4 OH@4OO4 OH@4OO4 OH@4OO4 OH@4OO4 OH@4OO4 OH@4OO4 OH@4OO4 OH@4OO4 OH@4OO4 OH@4OO4 OH@4OO4 OH@4OO4 OH@4OO4 OH@4OO4 OH@4OO4 OH@4OO4 OH@4OO4 OH@4OO4 OH@4OO4 OH@4OO4 OH@4OO4 OH@4OO4 OH@4OO4 OH@4OO4 OH@4OO4 OH@4OO4 OH@4OO4 OH@4OO4 OH@4OO4 OH@4OO4 OH@4OO4 OH@4OO4 OH@4OO4 OH@4OO4 OH@4OO4 OH@4OO4 OH@4OO4 OH@4OO4 OH@4OO4 OH@4OO4 OH@4OO4 OH@4OO4 O@4OO4 O@4OO4 O@4OO4 O@4OO4 O@4OO4 O@4OO4 O@4OO4 O@4OO4 OG@4OO4 OG@4OO4 OG@4OO4 OG@4OO4 OG@4OO4 OG@42OO4 OG@42OO4 OG@A42OO4 OG@A42OO4 OG@A42OO4 OG@A42OO4 OG@A42OO4 OG@A42OO4 OG@A42OO4 OGA42OO42 OGA42OO42 OGA42OO42 OGA42OO42 OGA42OO42 OGA42OO42 OGA42OO42 OGA42OO42 OGA42OO42 OGA42OO42 OGA42OO42 OGA42OO42 OGA42OO42 OGA42OO42 OGA42OO42 OGA42OO42 OGA42OO42 OGA42OO2 OGA42OO2 OGA42OO2 OGA42OO2 OGA42OO2 OGA42OO2 OGA42OO2 OGA42OO2 OGA42OO2 OGA2OO2 OGA2OO2 OGA2OO2 OGA2OO2 OGA2OO2 OGA2OO2 OGA2OO2 OGA2OO2 OGA2OO2 OGA2OO2 OGA2OO2 OGA2OO2 OGA2OO2 OGA2OO2 OGA2OO2 OGA2OO2 OGA2OO2 OGA2OO2 OGA2OO2 OGA2OO2 OGA2OO2 OGA2OO2 OGA2OO2 OGA2OO2 OGA2OO2 OGA2OO2 OGA2OO2 OGA2OO2 OGA2OO2 OGA2OO2 OGA2OO2 OGA2OO2 OGA2OO2 OGA2OO2 OGA2OO2 OGA2OO2 OGA2OO2 OGA2OO2 OGA2OO2 OGA2OO2 OGA2OO2 OGA2OO2 OGA2OO2 OGA2OO2 OGA2OO2 OGA2OO2 OGA2OO2 OGA2OO2 OGA2OO2 OGA2OO2 OGA2OO2 OGA2OO2 OGA2OO2 OGA2OO2 OGA2OO2 OGA2OO2 OGA2OO2 OGA2OO2 OGA2OO2 OGA2OO2 OGA2OO2 OGA2OO2 OGA2OO2 OGA2OO2 OGA2OO2 OGA2OO2 OGA2OO2 OGA2OO2 OGA2OO2 OGA2OO2 OGA2OO2 OGA2OO2 OGA2OO2 OGA2OO2 OGA2OO2 OGA2OO2 OGA2OO2 OGA2OO2 OGAOO2 OGAOO2 OAOO2 OAOO2 OAOO2 OAOO2 OHAOO4 OHA4OO4 OHA4OO4 OHA@4OO4 OHA@4OO4 OHA@4OO4 OHA@4OO4 OHA@4OO4 OHA@4OO4 OHA@4OO4 OHA@4OO4 OHA@4OO4 OHA@4OO4 OHA@4OO4 OHA@4OO4 OHA@4OO4 OHA@4OO4 OHA@4OO4 OHA@4OO4 OHA@4OO4 OH@4OO4 OH@4OO4 OH@4OO4 OH@4OO4 OH@4OO4 OH@4OO4 OH@4OO4 OH@4OO4 OH@4OO4 OH@4OO4 OH@4OO4 OH@4OO4 OH@4OO4 OH@4OO4 OH@4OO4 OH@4OO4 OH@4OO4 OH@4OO4 OH@4OO4 OH@4OO4 OH@4OO4 OH@4OO4 OH@4OO4 OH@4OO4 OH@4OO4 OH@4OO4 OH@4OO4 OH@4OO4 OH@4OO4 OH@4OO4 OH@4OO4 OH@4OO4 OH@4OO4 OH@4OO4 OH@4OO4 OH@4OO4 OH@4OO4 OH@4OO4 OH@4OO4 OH@4OO4 OH@4OO4 OH@4OO4 OH@4OO4 OH@4OO4 OH@4OO4 OH@4OO4 OH@4OO4 OH@4OO4 OH@4OO4 OH@4OO4 OH@4OO4 OH@4OO4 OH@4OO4 OH@4OO4 OH@4OO4 OH@4OO4 OH@4OO4 OH@4OO4 OH@4OO4 OH@4OO4 OH@4OO4 OH@4OO4 OH@4OO4 OH@4OO4 OH@4OO4 OH@4OO4 OH@4OO4 OH@4OO4 OH@4OO4 OH@4OO4 OH@4OO4 OH@4OO4 OH@4OO4 OH@4OO4 OH@4OO4 OH@4OO4 OH@4OO4 OH@4OO4 OH@4OO4 OH@4OO4 OHJ@4OO4 OHJ@4OO4 OHJ@4OO4 OHJ@4OO4 OHJ@4OO4 OHJ@4OO4 OHJ@4OO4 OJ@4OO4 OJ@4OO4 OJ@4OO4 OJ@4OO4 OJ@4OO4 OJ@4OO4 OJ4OO4 OJ4OO4 OJ4OO4 OJ4OO45 OJ4OO45 OJ4OO45 OJ4OO45 OJ>4OO45 OJ>4OO45 OJ>45OO45 OJ>45OO45 OJ>45OO45 OJ>45OO45 OJ>45OO45 OJ>45OO45 OJ>45OO45 OJ>45OO45 OJ>45OO45 OJ>45OO45 OJ>45OO45 OJ>45OO5 OJ>45OO5 OJ>45OO5 OJ>5OO5 OJ>5OO5 OJ>5OO5 OJ>5OO5 OJ>5OO5 OJ>5OO5 OJ>5OO5 OJ>5OO5 OJ>5OO5 OJ>5OO5 OJ>5OO5 OJ>5OO5 OJ>5OO5 OJ>5OO5 OJ>5OO5 OJ>5OO5 OJ>5OO5 OJ>5OO5 OJ>5OO5 OJ>5OO5 OJ>5OO5 OJ>5OO5 OJ>5OO5 OJ>5OO5 OJ>5OO5 OJ>5OO5 OJ>5OO5 OJ>5OO5 OJ>5OO5 OJ>5OO5 OJ>5OO5 OJ>5OO5 OJ>5OO5 OJ>5OO5 OJ>5OO5 OJ>5OO5 OJ>5OO5 OJ>5OO5 OJ>5OO5 OJ>5OO5 OJ>5OO5 OJ>5OO5 OJ>5OO5 OJ>5OO5 OJ>5OO5 OJ>5OO5 OJ>5OO5 OJ>5OO5 OJ>5OO5 OJ>5OO5 OJ>5OO5 OJ>5OO5 OJ>5OO5 OJ5OO5 OJ5OO5 OJ5OO5 OJ5OO5 OJ5OO5 OJ5OO5 OJ5OO5 OJ5OO5 OJ5OO5 O5OO5 O5OO5 O5OO5 O5OO5 O5OO5 O5OO5 O5OO5 O5OO5 O5OO5 O5OO5 O5OO5 O5OO5 O5OO5 O5OO5 O5OO5 O5OO5 O5OO5 O5OO5 O5OO5 O5OO5 OOO5 OOO5 OOO5 OOO5 OOO OOO OOO OOO OOO OOO OOO OOO OOO OLOO OLOO OLOO OLOO OLOO OLOO OLOO OLOO OLOO OLOO OLOO OL7OO OL7OO OL7OO OL7OO OL7OO OL7OO OL7OO7 OL7OO7 OL7OO7 OL7OO7 OL7OO7 OL7OO7 OL7OO7 OL7OO7 OL7OO7 OL<7OO7 OL<7OO7 OL<7OO7 OL<7OO7 OL<7OO7 OL<7OO7 OL<7OO7 OL<7OO7 OL<7OO7 OL<7OO7 OL<7OO7 OL<7OO7 OL<7OO7 OL<7OO7 OL<7OO7 OL<7OO7 OL<7OO7 OL<7OO7 OL<7OO7 OL<7OO7 OL<7OO7 OL<7OO7 OL<7OO7 OL<7OO7 OL<7OO7 OL<7OO7 OL<7OO7 OL<7OO7 OL<7OO7 OL<7OO7 OL<7OO7 OL<7OO7 OL<7OO7 OL<7OO7 OL<7OO7 OL<7OO7 OL<7OO7 OL<7OO7 OL<7OO7 OL<7OO7 OL<7OO7 OL<7OO7 OL<7OO7 OL<7OO7 OL<7OO7 OL<7OO7 OL<7OO7 OL<7OO7 OL<7OO7 OL<7OO7 OL<7OO7 OL<7OO7 OL<7OO7 OL<7OO7 OL<7OO7 OL<7OO7 OL<7OO7 OL<7OO7 OL<7OO7 OL<7OO7 OL<7OO7 OL<7OO7 OL<7OO7 OL<7OO7 OL<7OO7 OL<7OO7 OL<7OO7 OL<7OO7 OL<7OO7 OL<7OO7 OL<7OO7 OL<7OO7 OL<7OO7 OL<7OO7 OL<7OO7 OL<7OO7 OL<7OO7 OL<7OO7 OL<7OO7 OL<7OO7 OL<7OO7 OL<7OO7 OL<7OO7 OL<7OO7 OL<7OO7 OL<7OO7 OL<7OO7 OL<7OO7 OL<7OO7 OL<7OO7 OL<7OO7 OL<7OO7 OL<7OO7 OL<7OO7 OL<7OO7 OL<7OO7 OL<7OO7 OL<7OO7 OL<7OO7 OL<7OO7 OL<7OO7 OL<7OO7 OL<79OO79 OL<79OO79 OL<79OO9 OL<79OO9 OL<79OO9 OL<79OO9 OL<79OO9 OL<9OO9 OL<9OO9 OL<9OO9 OL<9OO9 OL9OO9 OL9OO9 OL9OO9 OL9OO9 OL9OO9 OL9OO9 OL9OO9 OL9O9 OL9O9 OL9O9 OL9O9 OL9O9 OL9O9 OL9O9 OL9O9 OL9O9 OL9O9 OL9O9 OL9O9 OL9O9 OL9O9 OL9O9 OL9O9 OL9O9 OL9O9 OL9O9 OL9O9 OL9O9 OL9O9 OL9O9 OL9O9 OL9O9 OL9O9 OL9O9 OL9O9 OL9O9 OL9O9 OL9O9 OL9O9 OL9O9 OL9O9 OL9O9 OL9O9 OL99 OL99 L99 L99 L99 L99 L99 L99 L99 L99 L99 L99 L99 L99 L99 L99 L99 L99 L99 L99 L99 L99 L99 L99 L99 L99 L99 L99 L99 L99 L99 L99 L99 L99 L99 L99 L99 L99 L99 L9 L9 L9 L9 L9 L9 L9 L9 9 9 9 9 9 9 9 9 9 9            :: :: :: :: :: :: :: :: :: C:: C:: C:: C:: MC:: MC:: MJC:: MJC:: MJC:: MJC:: MJC:: MJC:: MJC:: MJC:: MJC:: MJC:: MJC:: MJC:: MJC:: MJC:: MJC:: MJC:: MJC:M: MJC:M: MJC:M: MJC:M: MJC:M: MJC:MM: MJC:MM: MJC:MM: MJC:MM: MJC:MM: MJC:MM: MJC:MM: MJC:MM: MJC:MM: MJC:MM: MJC:MM: MJC:MM: MJC:MM: MJC:MM: MJC:MM: MJC:MM: MJC:MM: MJC:MM: MJC:MM: MJC:MM: MJC:MM: MJC:MM: MJC:MM: MJC:MM: MJC:MM: MJC:MM: MJC:MM: MJC:MM: MJC:MM: MJC:MM: MJC:MM: MJC:MM: MJC:MM: MJC:MM: MJC:MM: MJC:MM: MJC:MM: MC:MM: MC:MM: MC:MM: MC:MM: MC:MM: MC:MM: MC:MM: MC:MM: MC:MM: MC:MM: MC:MM: MC:MM: MC:MM: MC:MM: MC:MM: MC:MM: MC:MM: MC:MM: MC:MM: MC:MM: MC:MM: MC:MM: MC:MM: MC:MM: MC:MM: MC:MM: MC:MM: MC:MM: MC:MM: MC:MM: MC:MM: MC:MM: MC:MM: MC:MM: MC:MM: MCMM: MCMM: LCMM: LCMM: LCMM: LCMM: LCMM: LHCMM: LHCMM: LHMM: LHMM: LHMM: LHMM: LHMM: LHMM: LHMM: LHMM: LHMM: LHMLM LHMLM LHLM LHLM LHLM LHLM LHLM LHLML LHLL LHLL LHLL LHLL LHLL LHLL LHLL LHLL LHLL LHLL LHLL LHLL LHLL LHLL LHLL LHLL LHLL LHLL LHLL LHLL LHLL LHLL LHLL LHLL LHLL LHLL LHLL LHLL LHLL LHLL LHLL LHLL LHLL LHLL LHLL LHLL LHLL LHLL LHLL LHLL LHLL LHLL LHLL LHLL LHLL LHLL LHLL LHLL LHLL LHLL LHLL LHLL LHLL LHLL LHLL LHLL LHLL LHLL LHLL LHLL LHLL LHLL LHLL LHLL LHLL HLL HLL HLL HLL HLL HLL HLL HLL HLL HLL HLL HLL HLL HLL HLL HLL HLL HLL L L L L L L L L L L           E E E E E E ME ME ME ME9 ME9 ME9 ME9 ME9 ME9 ME9 ME9 ME9 ME9 ME9 MJE99 MJE99 MJE99 MJE99 MJE9M9 MJE9M9 MJE9M9 MJE9M9 MJE9M9 MJE9MM9 MJE9MM9 MJE9MM9 MJE9MM9 MJE9MM9 MJE9MM9 MJE9MM9 MJE9MM9 MJE9MM9 MJE9MM9 MJE9MM9 MJE9MM9 MJE9MM9 MJE9MM9 MJE9MM9 MJE9MM9 MJE9MM9 MJE9MM9 MJE9MM9 MJE9MM9 MJE9MM9 MJE9MM9 MJE9MM9 MJE9MM9 MJE9MM9 MJE9MM9 MJE9MM9 MJE9MM9 MJE9MM9 MJE9MM9 MJE9MM9 MJE9MM9 MJE9MM9 MJE9MM9 MJE9MM9 MJE9MM9 MJE9MM9 MJE9MM9 MJE9MM9 MJE9MM9 MJE9MM9 MJE9MM9 MJE9MM9 MJE9MM9 MJE9MM9 MJE9MM9 MJE9MM9 MJE9MM9 MJE9MM9 MJE9MM9 MJE9MM9 MJE9MM9 MJE9MM9 MJE9MM9 MJE9MM9 MJE9MM9 MJE9MM9 MJE9MM9 MJE9MM9 MJE9MM9 MJE9MM9 MJE9MM9 MJE9MM9 MJE9MM9 MJE9MM9 MJE9MM9 MJE9MM9 MJE9MM9 MJE9MM9 MJE9MM9 MJE9MM9 MJE9MM9 MJE9MM9 MJE9MM9 MJE9MM9 MJE9MM9 MJE9MM9 MJE9MM9 MJE9MM9 MJE9MM9 MJE9MM9 MJE9MM9 MJE9MM9 MJE9MM9 MJE9MM9 MJE9MM9 MJE9MM9 MJE9MM9 MJE9MM9 MJE9MM9 MJE9MM9 MJE9MM9 MJE9MM9 MJE9MM9 MJE9MM9 MJ9MM9 MJ9MM9 MJMM9 MJMM9 MJMM9 MJMM9 MJMM9 MJMM9 MJMM9 MJMM9 MJMM9 MJMM9 MJMM9 MJMM9 MJMM9 MJMM9 MJMM9 MJMM9 MJMM MJMM MJMM MJMM MJMM MJMM MJMM MJMM MJMM MJMM MJMM MJMM MJMM MJMM MJMM MJMM MJMM MJMM MJMM MJMM MJMM MJMM MJMM MJMM MJMM MJMM MJMM MJMM MJMM MJMM MJMM MJMM MJMM MJMM MJMM MJMM MJMM MJMM MJMM MJMM MJMM MJMM MJMM MJMM MJMM MJMM MJMM MJMM MJMM MJMM MJMM MJMM MJMM MJMM MJMM MJMM MJMM MJMM MJMM MJMM MJMM MJMM MJMM MJMM MJMM MJMM MJMM MJMM MJMM MJMM MJMM MJMM MJMM MJMM MJMM MJMM MJMM MJMM MJMM MJMM MJMM MJMM MJMM MJMM MJMM MJMM MJMM MJMM MJMM MJMM MJMM MJMM MJMM MJMM MJMM MJMM MJMM MJMM MJMM MJMM MJMM MJMM MJMM MJMM MJMM MJMM MJMM MJMM JMM JMM JMM JMM JFMM JFMM JFM JFM JFM JFM JF JF JF JF7 JF7 JF7 JF7 JF7 JF77 JF77 JF77 JF77 JF77 JF77 F77 F77 F77 F77 F77 F77 F77 F77 F77 F77 F77 F77 F77 F77 F77 F77 F77 F77 F77 F77 F77 F77 F77 F77 F77 F77 F77 F77 F77 F77 F77 F77 F77 F77 F77 F77 F77 F77 F77 F77 F77 F77 F77 F77 F77 F77 F77 F77 F77 F77 F77 F77 F77 F77 F77 F77 F77 F77 F77 F77 F77 F77 F77 F77 F77 F77 F77 F77 F77 F77 F77 F77 F77 F77 F77 77 77 77 77 77 77 77 O77 O77 O77 O77 O77 O77 O77 O7O7 O7O7 OL7O7 OL7O7 OL7O7 OL7O7 OL7O OL7O OL7O OL7O OL7O OL7OO OL7OO OL7OO OL7OO OL7OO OL7OO OLOO OLOO OLOO OLOO OLOO OLOO OLOO OLOO OLOO OLOO OLOO OLOO OLOO OLOO OLOO OLOO OLOO OLOO OLOO OLOO OLOO OLOO OLOO OLOO OLOO OLOO OLOO OLOO OLOO OLOO OLOO OLOO OLOO OLOO OLOO OLOO OLOO OLOO OLOO OLOO OLOO OLOO OLOO OLOO OLOO OLOO OLOO OLOO OLOO OLOO OLOO OLOO LOO LOO LOO LOO LOO LOO LOO LO LO LO LO LO LO L L L L L L L L L L L L L L L L L L L                      Q Q Q Q Q Q QH QH QH QH QH QH QH QHQ QHQ QHQ QHQ QMHQQ QMHQQ QMH5QQ QMH5QQ QMH5QQ QMH5QQ QMH5QQ QMH5QQ QMH5QQ QMH5QQ5 QMH5QQ5 QMH5QQ5 QMH5QQ5 QMH5QQ5 QMH5QQ5 QMH5QQ5 QMH5QQ5 QMH5QQ5 QMH5QQ5 QMH5QQ5 QMH5QQ5 QMH5QQ5 QMH5QQ5 QMH5QQ5 QMH5QQ5 QMH5QQ5 QMH5QQ5 QMH5QQ5 QMH5QQ5 QMH5QQ5 QMH5QQ5 QMH5QQ5 QMH5QQ5 QMH5QQ5 QMH5QQ5 QMH5QQ5 QMH5QQ5 QMH5QQ5 QMH5QQ5 QMH5QQ5 QMH5QQ5 QMH5QQ5 QMH5QQ5 QMH5QQ5 QMH5QQ5 QMH5QQ5 QMH5QQ5 QMH5QQ5 QMH5QQ5 QMH5QQ5 QMH5QQ5 QMH5QQ5 QMH5QQ5 QMH5QQ5 QMH5QQ5 QMH5QQ5 QMH5QQ5 QMH5QQ5 QMH5QQ5 QMH5QQ5 QMH5QQ5 QMH5QQ5 QMH5QQ5 QMH5QQ5 QMH5QQ5 QMH5QQ5 QMH5QQ5 QMH5QQ5 QMH5QQ5 QMH5QQ5 QMH5QQ5 QMH5QQ5 QMH5QQ5 QMH5QQ5 QMH5QQ5 QMH5QQ5 QMH5QQ5 QMH5QQ5 QMH5QQ5 QMH5QQ5 QMH5QQ5 QMH5QQ5 QMH5QQ5 QMH5QQ5 QMH5QQ5 QMH5QQ5 QM5QQ5 Q5QQ5 Q5QQ5 Q5QQ5 Q5QQ5 Q5QQ5 Q5QQ5 Q5QQ5 Q5QQ5 Q5QQ5 Q5QQ5 Q5QQ5 Q5QQ5 Q5QQ5 Q5QQ5 Q5QQ5 Q5QQ5 Q5QQ5 Q5QQ5 Q5QQ5 Q5QQ5 Q5QQ5 Q5QQ5 Q5QQ5 Q5QQ5 Q5QQ5 Q5QQ5 Q5QQ5 Q5QQ5 Q5QQ5 Q5QQ5 Q5QQ5 Q5QQ5 Q5QQ5 Q5QQ5 Q5QQ5 Q5QQ5 Q5QQ5 QQQ QQQ QQQ QQQ QQQ QQQ QQQ QQQ QQQ QQQ QQQ QQQ QQQ QQQ QQQ QQQ QQQ QQQ QQQ QQQ QQQ QQQ QQQ QQQ QQQ QQQ QQQ QQQ QQQ QQQ QQQ QQQ QQQ QQQ QQQ QQQ QQQ QQQ QQQ QQQ QQQ QQQ QQQ QQQ QQQ QQQ QQQ QQQ QQQ QQQ QQQ QQQ QQQ QQQ QQQ QQQ QQQ QQQ QQQ QQQ QQQ QQQ QQQ QQQ QQQ QQQ QQQ QQQ QQQ QQQ QQQ QQQ QQQ QQQ QQQ QQQ QQQ QQQ QQQ QQQ QQQ QQQ QQQ QQQ QQQ QQQ QQQ QQQ QQQ QQQ QQQ QQQ QQQ QQQ QQQ QQQ QQQ QQQ QQQ QQQ QQQ QQQ QQQ QQQ Q<QQ Q<QQ Q<QQ Q<QQ Q<QQ QE<4QQ QE<4QQ QE<4QQ QE<4QQ QE<4QQ QE<4QQ E<4QQ E<4QQ E<4QQ4 E<4QQ4 E<4QQ4 E<4QQ4 E<4QQ4 E<4QQ4 E<4QQ4 E<4QQ4 E<4QQ4 E<4QQ4 E<4QQ4 E<4QQ4 E<4QQ4 E<4QQ4 E<4QQ4 E<4QQ4 E<4QQ4 E<4QQ4 E<4QQ4 E<4QQ4 E<4QQ4 E<4Q4 E<4Q4 E<4Q4 E<4Q4 E<4Q4 E<4Q4 E<4Q4 E<4Q4 E<4Q4 E<4Q4 E<4Q4 E<44 E<44 E<44 E<44 E<44 E<44 E<44 E<44 E<44 E<44 E<44 E<44 E<44 E<44 E<44 E<44 E<44 E<44 E<44 E<44 E<44 E<44 E<44 E<44 E<44 E<44 E<44 E<44 E<44 E<44 E<44 E<44 E<44 E<44 E<44 E<44 E<44 E<44 E<44 E<44 E<44 E<44 E<44 E<44 E<44 E<44 E<44 E<44 E44 E44 E44 E44 E44 E44 E44 E4 E4 OE4 OE4 OE4 OE4 OE4 OE4 OE4 OE4 OE4 OE4 OE4 OE4 OE4 OE4 OE4 OEO OEOO OEOO OEOO OEOO OEOO OEOO OEOO OEOO OEOO OEOO OEOO OEOO OEOO OEOO OEOO OEOO OEOO OEOO OEOO OEOO OEOO OEOO OEOO OEOO OEOO OEOO OEOO OEOO OEOO OEOO OEOO OEOO OEOO OEOO OEOO OEOO OEOO OEOO OEOO OEOO OEOO OEOO OEOO OEOO OEOO OEOO OEOO OEOO OEOO OEOO OEOO OEOO OEOO OEOO OEOO OEOO OEOO OEOO OEOO OEOO OEOO OEOO EOO EOO EOO EOO EOO EO EO EO EO EO EO EO EO EO EO E E E E E E E E E E E E E E E E E E E E E E E E E E E E E E E E E E E E E E E E E E ME ME ME> ME> ME> ME> ME> ME> ME> ME> ME>M ME>MM ME>MM ME>MM ME>MM ME>MM ME>2MM2 ME>2MM2 ME>2MM2 ME>2MM2 ME>2MM2 ME>2MM2 ME>2MM2 ME>2MM2 ME>2MM2 ME>2MM2 ME>2MM2 ME>2MM2 ME>2MM2 ME>2MM2 ME>2MM2 ME>2MM2 ME>2MM2 ME>2MM2 ME>2MM2 ME>2MM2 ME>2MM2 ME>2MM2 ME>2MM2 ME>2MM2 ME>2MM2 ME>2MM2 ME>2MM2 ME>2MM2 ME>2MM2 ME>2MM2 ME>2MM2 ME>2MM2 ME>2MM2 ME>2MM2 ME>2MM2 ME>2MM2 ME>2MM2 ME>2MM2 ME>2MM2 ME>2MM2 ME>2MM2 ME>2MM2 ME>2MM2 ME>2MM2 ME>2MM2 ME>2MM2 ME>2MM2 ME>2MM2 ME>2MM2 ME>2MM2 ME>2MM2 ME>2MM2 ME>2MM2 ME>2MM2 ME>2MM2 ME>2MM2 ME>2MM2 ME>2MM2 ME>2MM2 ME>2MM2 ME>2MM2 ME>2MM2 ME>2MM2 ME>2MM2 ME>2MM2 ME>2MM2 ME>2MM2 ME>2MM2 ME>2MM2 ME>2MM2 ME>2MM2 ME>2MM2 ME>2MM2 ME>2MM2 ME>2MM2 ME>2MM2 ME>2MM2 ME>2MM2 ME>2MM2 ME>2MM2 ME>2MM2 ME>2MM2 ME>2MM2 ME>2MM2 ME>2MM2 ME>2MM2 ME>2MM2 ME>2MM2 ME>2MM2 ME>2MM2 ME>2MM2 ME>2MM2 ME>2MM2 ME>2MM2 ME>2MM2 ME>2MM2 ME>2MM2 ME>2MM2 ME>2MM2 ME>2MM2 ME>2MM2 ME>2MM2 ME>2MM2 ME>2MM2 ME>2MM ME>2MM ME>2MM ME>2MM ME>2MM ME>2MM ME>2MM ME>2MM ME>2MM ME>2MM ME>2MM ME>MM ME>MM ME>MM ME>MM ME>MM ME>MM ME>MM ME>MM ME>MM ME>MM ME>MM ME>MM ME>MM ME>MM ME>MM ME>MM ME>MM ME>MM ME>MM ME>MM ME>MM ME>MM ME>MM ME>MM M>MM M>MM M>MM M>MM M>MM M>MM M>MM M>MM M>MM M>MM M>MM M>MM M>MM M>MM M>MM M>MM M>MM M>MM M>MM M>MM M>MM M>MM M>MM M>MM M>MM M>MM M>MM M>MM M>MM M>MM M>MM M>MM M>MM M>MM M>MM M>MM M>MM M>MM M>MM M>MM M>M M>M M>M M>M M>M M>M M>M M>M M>M M>M M>M M>M M>M M>M M>M M>M M>M M>M M>M M>M M>M M>M M>M M>M M>M M>M M>M >M >M >M >M >M >M >M >M >M >M >M >M >M > > > > > > > > > > > > > > > > > L>L LG>L LG>L LG>L LG>L LG>L LG>LL LG>LL LG>LL LG>LL LG>LL LG>7LL LG>7LL LG>7LL LG>7LL LG>7LL LG>7LL7 LG>7LL7 LG>7LL7 LG>7LL7 LG>7LL7 LG>7LL7 LG>7LL7 LG>7LL7 LG>7LL7 LG>7LL7 LG>7LL7 LG>7LL7 LG>7LL7 LG>7LL7 LG>7LL7 LG>7LL7 LG>7LL7 LG>7LL7 LG>7LL7 LG>7LL7 LG>7LL7 LG>7LL7 LG>7LL7 LG>7LL7 LG>7LL7 LG>7LL7 LG>7LL7 LG>7LL7 LG>7LL7 LG>7LL7 LG>7LL7 LG>7LL7 LG>7LL7 LG>7LL7 LG>7LL7 LG>7LL7 LG>7LL7 LG>7LL7 LG>7LL7 LG>7LL7 LG>7LL7 LG>7LL7 LG>7LL7 LG>7LL7 LG>7LL7 LG>7LL7 LG>7LL7 LG>7LL7 LG>7LL7 LG>7LL7 LG>7LL7 LG>7LL7 LG>7LL7 LG>7LL7 LG>7LL7 LG>7LL7 LG>7LL7 LG>7LL7 LG>7LL7 LG>7LL7 LG>7LL7 LG>7LL7 LG>7LL7 LG>7LL7 LG>7LL7 LG>7LL7 LG>7L7 LG>7L7 LG7L7 LG7L7 LG7L7 L7L7 L7L7 7L7 7L7 7L7 7L7 7L7 7L7 7L7 7L7 7L7 J7L7 J7L7 J7L7 J77 J7J7 J7J7 J7J7 J7J7 J7J7 J7JJ7 J7JJ7 J7JJ7 J7JJ7 J7JJ7 J7JJ7 J7JJ7 J7JJ7 J79JJ7 J79JJ7 J79JJ7 J79JJ7 J79JJ7 J79JJ7 J79JJ7 J79JJ7 J79JJ7 J79JJ79 J79JJ79 J79JJ79 J79JJ79 J79JJ79 J79JJ79 J79JJ79 J79JJ79 J79JJ79 J79JJ9 J79JJ9 J79JJ9 J9JJ9 J9JJ9 J9JJ9 J9JJ9 J9JJ9 J9JJ9 J9JJ9 J9JJ9 J9JJ9 J9JJ9 J9JJ9 J9JJ9 J9JJ9 J9JJ9 J9JJ9 J9JJ9 J9JJ9 J9JJ9 J9JJ9 J9JJ9 J9JJ9 J9JJ9 J9JJ9 J9JJ9 J9JJ9 J9JJ9 J9JJ9 J9JJ9 J9JJ9 J9JJ9 J9JJ9 J9JJ9 J9JJ9 J9JJ9 J9JJ9 J9JJ9 J9JJ9 J9JJ9 J9JJ9 J9JJ9 J9JJ9 J9JJ9 J9JJ9 J9JJ9 9JJ9 9JJ9 9JJ9 9JJ9 9JJ9 9JJ9 9JJ9 9JJ9 9JJ9 9JJ9 9JJ9 9JJ9 9JJ9 9JJ9 9JJ9 9JJ9 9JJ9 9J9 99 99 99 99 99 99 99 99 99 99 9 9 9 9 9 9 9 9 9 9 9 9 9 9 9 9 9 9 79 79 C79 C79 C79 C79 C79 C79 C79 LC79 LC79 LC79 LC79 LC79 LC79 LC79 LC7L9 LC7L9 LC7LL9 LC7LL9 LC7LL97 LC7LL97 LHC7LL97 LHC7LL97 LHC7LL97 LHC7LL97 LHC7LL97 LHC7LL97 LHC7LL7 LHC7LL7 LHC7LL7 LHC7LL7 LHC7LL7 LHC7LL7 LHC7LL7 LHC7LL7 LHC7LL7 LHC7LL7 LHC7LL7 LHC7LL7 LHC7LL7 LHC7LL7 LHC7LL7 LHC7LL7 LHC7LL7 LHC7LL7 LHC7LL7 LHC7LL7 LHC7LL7 LHC7LL7 LHC7LL7 LHC7LL7 LHC7LL7 LHC7LL7 LHC7LL7 LHC7LL7 LHC7LL7 LHC7LL7 LHC7LL7 LHC7LL7 LHC7LL7 LHC7LL7 LHC7LL7 LHC7LL7 LHC7LL7 LHC7LL7 LHC7LL7 LHC7LL7 LHC7LL7 LHC7LL7 LHC7LL7 LHC7LL7 LHC7LL7 LHC7LL7 LHC7LL7 LHC7LL7 LHC7LL7 LHC7LL7 LHC7LL7 LHC7LL7 LHC7LL7 LHC7LL7 LHC7LL7 LHC7LL7 LHC7LL7 LHC7LL7 LHC7LL7 LHC7LL7 LHC7LL7 LHC7LL7 LHC7LL7 LHC7LL7 LHC7LL7 LHC7LL7 LHC7LL7 LHC7LL7 LHC7LL7 LHC7LL7 LHC7LL7 LHC7LL7 LHC7LL7 LHC7LL7 LHC7LL7 LHC7LL7 LH7LL7 LH7LL7 LH7LL7 LH7LL7 LH7LL7 LH7LL7 LH7LL7 LH7LL7 LH7LL7 LH7LL7 LH7LL7 LH7LL7 LH7LL7 LH7LL7 LH7LL7 LH7LL7 LH75LL7 LH75LL7 LH75LL7 LH75LL7 LH75LL7 LH75LL7 LH75LL7 LH75LL7 LH75LL7 LH75LL7 LH75LL7 LH75LL7 LH75LL7 LH75LL7 LH75LL7 LH75LL7 LH75LL7 LH75LL7 LH75LL7 LH75LL7 LH5LL7 LH5LL7 LH5LL7 LH5LL7 LH5LL5 LH5LL5 LH5LL5 LH5LL5 LH5LL5 LH5LL5 LH5LL5 LH5LL5 LH5LL5 LH5LL5 LH5LL5 LH5LL5 LH5LL5 LH5LL5 LH5LL5 LH5LL5 LH5LL5 LH5LL5 LH5LL5 LH5LL5 LH5LL5 LH5LL5 LH5LL5 LH5LL5 LH5LL5 LH5LL5 LH5LL5 LH5LL5 LH5LL5 LH5LL5 LH5LL5 LH5LL5 LH5LL5 LH5LL5 LH5LL5 LH5LL5 LH5LL5 LH5LL5 LH5LL5 LH5LL5 LH5LL5 LH5LL5 LH5LL5 LH5LL5 LH5LL5 LH5LL5 LH5LL5 LH5LL5 LH5LL5 LH5LL5 LH5LL5 LH5LL5 LH5LL5 LH5LL5 LH5LL5 LH5LL5 LH5LL5 LH5LL5 LH5LL5 LH5LL5 LH5LL5 LH5LL5 LH5LL5 LH5LL5 LH5LL5 LH5LL5 LH5LL5 LH5LL5 LH5LL5 LH5LL5 LH5LL5 LH5LL5 LH5LL5 LH5LL5 LH5LL5 LH54LL5 LH54LL5 LH54LL5 LH54LL5 LH54LL5 LH54LL5 LH54LL5 LH54LL5 LH54LL5 LH54LL5 LH54LL5 LH4LL5 LH4LL5 LH4LL5 LH4LL5 LH4LL5 LH4LL5 LH4LL5 LH4LL5 LH4LL5 LH4LL5 LH4LL5 LH4LL5 LH4LL5 LH4LL5 LH4LL5 LH4LL5 LH4LL5 LH4LL5 LH4LL5 LH4LL5 LH4LL5 LH4LL5 LH4LL5 LH4LL5 LH4LL5 LHA4LL5 LHA4LL5 HA4LL5 HA4LL5 HA4LL5 HA4LL5 HA4LL5 HA4LL5 HA4LL5 HA4L HA4L HA4L4 HA4L4 HA4L4 HA4L4 HA44 HA44 HA44 HA44 HA44 HA44 HA44 HA44 HA44 HA44 HA44 HA44 HA44 HA44 HA44 HA44 HA44 HA44 HA44 HA44 A44 A44 A44 A44 A44 A44 A44 A44 A44 A44 A44 A44 A44 A44 A44 A44 A44 A44 A44 A44 A44 A44 A44 A44 A44 A44 A44 A44 A44 A44 A44 A44 A44 A44 A44 A44 A44 A44 A44 A44 A44 A44 A44 A44 A44 A44 A44 A4 A4 A24 A24 A24 A24 A24 A24 A24 MA24 MA24 MA2M4 MA2M4 MA2M4 MA2M4 MA2M4 MA2M4 MA2M4 MA2MM4 MA2MM4 MA2MM4 MA2MM4 MA2MM4 MA2MM4 MA2MM4 MA2MM4 MJA2MM4 MJA2MM4 MJA2MM4 MJA2MM4 MJA2MM4 MJA2MM4 MJA2MM4 MJA2MM MJA2MM MJA2MM2 MJA2MM2 MJ2MM2 MJ2MM2 MJ2MM2 MJ2MM2 MJ2MM2 MJ2MM2 MJ2MM2 MJ2MM2 MJ2MM2 MJ2MM2 MJ2MM2 MJ2MM2 MJ2MM2 MJ2MM2 MJ2MM2 MJ2MM2 MJ2MM2 MJ2MM2 MJ2MM2 MJ2MM2 MJ2MM2 MJ2MM2 MJ2MM2 MJ2MM2 MJ2MM2 MJ2MM2 MJ2MM2 MJ2MM2 MJ2MM2 MJ2MM2 MJ2MM2 MJ2MM2 MJ2MM2 MJ2MM2 MJ2MM2 MJ2MM2 MJ2MM2 MJ2MM2 MJ2MM2 MJ2MM2 MJ2MM2 MJ2MM2 MJ2MM2 MJ2MM2 MJ2MM2 MJ2MM2 MJ2MM2 J2M2 J2M2 J2M2 J2M2 J22 J22 J22 J22 J22 J22 J22 J22 J22 J22 J22 22 22 22 22 22 22 22 22 22 22 22 22 22 22 22 22 22 22 22 22 2 2 2 2 2 2 2   4 4 4 4 4 4 4 4 4 O4 O4 O@4 O@4 O@4 O@4 O@4 O@4 O@4 O@4O O@4O O@4O O@4O O@4O O@4O O@4OO O@4OO O@4OO O@4OO O@4OO O@4OO O@4OO O@4OO O@4OO O@4OO O@4OO O@4OO4 O@4OO4 O@4OO4 O@4OO4 O@4OO4 OH@4OO4 OH@4OO4 OH@4OO4 OH@4OO4 OH@4OO4 OH@4OO4 OH@4OO4 OH@4OO4 OH@4OO4 OH@4OO4 OH@4OO4 OH@4OO4 OH@4OO4 OH@4OO4 OH@4OO4 OH@4OO4 OH@4OO4 OH@4OO4 OH@4OO4 OH@4OO4 OH@4OO4 OH@4OO4 OH@4OO4 OH@4OO4 OH@4OO4 OH@4OO4 OH@4OO4 OH@4OO4 OH@4OO4 OH@4OO4 OH@4OO4 OH@4OO4 OH@4OO4 OH@4OO4 OH@4OO4 OH@4OO4 OH@4OO4 OH@4OO4 OH@4OO4 OH@4OO4 OH@4OO4 OH@4OO4 OH@4OO4 OH@4OO4 OH@4OO4 OH@4OO4 OH@4OO4 OH@4OO4 OH@4OO4 OH@4OO4 OH@4OO4 OH@4OO4 OH@4OO4 OH@4OO4 OH@4OO4 OH@4OO4 OH@4OO4 OH@4OO4 OH@OO4 OH@OO4 OH@OO4 OH@OO4 OH@OO4 OH@OO4 OH@OO4 OH@OO4 OH@OO4 OH@OO4 OHG@OO4 OHG@OO4 OHG@OO4 OHG@OO4 OHG@OO4 OG@OO4 OG@OO4 OG@OO4 OG@OO4 OG@OO4 OG@OO4 OG@OO4 OGOO4 OGOO4 OGOO4 OGOO4 OGOO4 OGOO4 OGOO4 OGOO4 OGOO4 OGOO4 OGOO4 OGOO OGOO OGOO OGOO OGOO OGOO OGOO OGOO OGOO OGOO OGOO OGOO OGOO OGOO OGOO OGOO OGOO OGOO OGOO OGOO OGOO OGOO OGOO OGOO OGOO OGOO OGOO OGOO OGHOO OGHOO OGHOO OGHOO OGHOO OGHOO OGHOO OHOO OHOO OHOO OHOO OHOO OHOO OHOO OHOO OHOO OHOO OHOO OHOO OHOO OHOO OHOO OHOO OHOO OHOO OHOO OHOO OHOO OHOO OHOO OHOO OHOO OHOO OHOO OHOO OHOO OHOO OHOO OHOO OHOO OHOO OHOO OHOO OHOO OHOO OHOO OHOO OHGOO OHGOO OHGOO OHGOO OHGOO OHGOO OHGOO OHGOO OHGOO OHGOO OHGOO OHGOO OHGOO OHGOO OHGOO OHGOO OHGOO OHGOO OHGOO OHGOO OGOO OGOO OGOO OGOO OGOO OGOO OGOO OGOO OGOO OGOO OGOO OGOO OGOO OGOO OGOO OGOO OGOO OGOO OGOO OGOO OGOO OGOO OGOO OGOO OG>7OO OG>7OO OG>7OO OG>7OO OG>7OO OG>7OO OG>7OO OG>7OO OG>7OO OG>7OO OG>7OO OG>7OO OG>7OO OG>7OO OG>7OO OG>7OO OG>7OO OG>7OO OG>7OO OG>7OO OG>7OO OG>7OO OG>7OO OG>7OO OG>7OO OG>7OO G>7OO7 G>7OO7 G>7OO7 G>7OO7 G>7OO7 G>7OO7 G>7OO7 G>7OO7 G>7OO7 G>7OO7 G>7OO7 G>7OO7 G>7OO7 G>7OO7 G>7OO7 G>7OO7 G>7OO7 G>7OO7 G>7OO7 G>7OO7 G>7OO7 G>7O7 G>77 G>77 G>77 G>77 G>77 G>77 G>77 G>77 G>77 G>77 G>77 G>77 G>77 G>77 G>77 G>77 G>77 G>77 G>77 G>77 G>77 G>77 G>77 G>77 G>77 G>77 G>77 G>77 G>77 G>77 G>77 G>77 G>77 G>77 G>77 G>77 G>77 G>77 G>77 G>77 G>77 G>77 G>77 G>77 G>77 G>77 G>77 G>77 GH>77 GH>77 GH>77 GH>77 GH7 GH7 GH GH GH GH GH GH GH GH H H H H H H H H HM HM MHM MHM MHM MHM MHM MHM MHM MHM MHM MHM MHM MHMM MHMM MHMM MHMM MHMM MHMM MHMM MHMM MHMM MHMM MHMM MHMM MHMM MHMM MHMM MHMM MHMM MHMM MHMM MHMM MHMM MHMM MHMM MHMM MHMM MHMM MHMM MHMM MHMM MHMM MHMM MHMM MHMM MHMM MHMM MMM MMM MMM MMM MMM MMM MMM MMM MMM MMM MMM MMM MMM MMM MMM MMM MMM MM MM MM MM MM MM MM MM M M                                  H H H H H H H H H H< H< H< H< H< H< H< H< H< H< H< H< H< H< H<L LH<L LH<L LH<L LH<L LH<L LH<<L LH<<L LH<<L LH<<L LH<<L LH<<L LH<<L LH<<LL LH<<LL LH<<LL LH<<LL LH<<LL LH<<LL LH<<LL LH<<LL LH<<LL LH<<LL LH<<LL LH<<LL LH<<LL LH<<LL LH<<LL LH<<LL< LH<<LL< LH<<LL< LH<<LL< LH<<LL< LH<<LL< LH<<LL< LH<<LL< LH<<LL< LH<<LL< LH<<LL< LH<<LL< LH<<LL< LH<<LL< LH<<LL< LH<<LL< LH<<LL< LH<<LL< LH<<LL< LH<<LL< LH<<LL< LH<<LL< LH<<LL< LH<<LL< LH<<LL< LH<<LL< LH<<LL< LH<<LL< LH<<LL< LH<<LL< LH<<LL< LH<<LL< LH<<LL< LH<<LL< LH<<LL< LH<<LL< LH<<LL< LH<<LL< LH<<LL< LH<<LL< LH<<LL< LH<<LL< LH<<LL< LH<<LL< LH<<LL< LH<<LL< LH<<LL< LH<<LL< LH<<LL< LH<<LL< LH<<LL< LH<<LL< LH<<LL< LH<<LL< LH<<LL< LH<<LL< LH<<LL< LH<<LL< LH<<LL< LH<<LL< LH<LL< LH<LL< LH<LL< LH<LL< LH<LL< LH<LL< LH<LL< LH<LL< LH<LL< LH<L< LH<L< LH<L< LH<L< LH<L< LH<L< LH<L< LH<L< LH<L< LH<L< LH<L< LJH<LJ< LJH<LJ< LJH<LJ< LJH<LJ< LJH<;LJ< LJH<;LJ< LJH<;LJ< LJH<;LJ< LJH<;LJ< LJH;LJ< LJH;LJ< LJH;LJ< LJH;LJ< JH;LJ< JH;LJ< JH;LJ< JH;LJ< JH;LJJ< JH;LJJ< JH;JJ< JH;JJ< JH;JJ< JH;JJ< JH;JJ< JH;JJ< JH;JJ< JH;JJ< JH;JJ< JH;JJ< JH;JJ< JH;JJ<; JH;JJ<; JH;JJ<; JH;JJ<; JH;JJ<; J;JJ<; J;JJ<; J;JJ<; J;JJ<; J;JJ<; J;JJ<; J;JJ<; J;JJ<; J;JJ<; J;JJ<; J;JJ<; J;JJ<; J;JJ<; J;JJ<; J;JJ<; J;JJ<; J;JJ<; J;JJ<; J;JJ<; J;JJ<; J;JJ<; J;JJ<; J;JJ; J;JJ; J;JJ; J;JJ; J;JJ; J;JJ; J;JJ; J;JJ; J;JJ; J;JJ; J;JJ; J;JJ; J;JJ; J;JJ; J;JJ; J;JJ; J;JJ; J;JJ; J;JJ; J;JJ; J;JJ; J;JJ; J;JJ; J;JJ; J;J; J;J; J;J; J;J; J;J; J;J; J;J; J;J; J;J; J;J; J;J; J;J; J;J; J;J; J;J; J;J; J;J; J;J; J;J; J;J; J;J; ;J; ;J; ;J; ;J; J; J; J; J; J; J; J; J; J; ; ; ; ; 9; 9; 9; 9; @9; @9; @9; @9; @9; L@9; L@9L; L@9L; L@9L; L@9L; L@9L; L@9L; L@9LL; L@9LL; L@9LL; L@9LL; L@9LL; L@9LL; L@9LL; L@9LL; LH@9LL; LH@9LL; LH@9LL; LH@9LL; LH@9LL; LH@9LL;9 LH@9LL;9 LH@9LL;9 LH@9LL;9 LH@9LL;9 LH@9LL;9 LH@9LL;9 LH@9LL9 LH@9LL9 LH@9LL9 LH@9LL9 LH@9LL9 LH@9LL9 LH@9LL9 LH@9LL9 LH@9LL9 LH@9LL9 LH@9LL9 LH@9LL9 LH@9LL9 LH@9LL9 LH@9LL9 LH@9LL9 LH@9LL9 LH@9LL9 LH@9LL9 LH@9LL9 LH@9LL9 LH@9LL9 LH@9LL9 LH@9LL9 LH@9LL9 LH@9LL9 LH@9LL9 LH@9LL9 LH@9LL9 LH@9LL9 LH@9LL9 LH@9LL9 LH@9LL9 LH@9LL9 LH@9LL9 LH@9LL9 LH@9LL9 LH@9LL9 LH@9LL9 LH@9LL9 LH@9LL9 LH@9LL9 LH@9LL9 LH@9LL9 LH@9LL9 LH@9LL9 LH@9LL9 LH@9LL9 LH@9LL9 LH@9LL9 LH@9LL9 LH@9LL9 LH@9LL9 LH@9LL9 LH@9LL9 LH9LL9 LH9LL9 LH9LL9 LH9LL9 LH9LL9 LH9LL9 LH9LL9 LH9LL9 LH9LL9 LH9LL9 LH9LL9 LH9LL9 LH9LL9 LH9LL9 LH9LL9 LH9LL9 LH9L9 LH9L9 LH9L9 LH9L9 LH9L9 LH9L9 LH9L9 LH9L9 LH9L9 LH9L9 LH979 LH979 LH979 H979 H979 H979 H97H9 H97H9 H97H9 H97HH9 H97HH9 H97HH9 H97HH9 H97HH9 H97HH9 H97HH9 H97HH9 H97HH9 H97HH9 H97HH9 H97HH9 H97HH9 H97HH9 H7HH9 H7HH9 H7HH97 H7HH97 H7HH97 H7HH97 H7HH97 H7HH97 H7HH97 H7HH97 H7HH97 H7HH97 H7HH97 H7HH97 H7HH97 H7HH97 H7HH97 H7HH97 H7HH97 H7HH97 H7HH97 H7HH97 H7HH97 H7HH97 H7HH97 H7HH97 H7HH97 H7HH97 H7HH97 H7HH97 H7HH97 H7HH97 H7HH97 H7HH7 H7HH7 H7HH7 H7HH7 H7HH7 H7HH7 H7HH7 H7HH7 H7HH7 H7HH7 H7HH7 H7HH7 H7HH7 H7HH7 H7HH7 H7HH7 H7HH7 H7HH7 H7HH7 H7HH7 H7HH7 H7HH7 H7HH7 H7HH7 H7HH7 H7HH7 H7HH7 H7HH7 H7HH7 H7HH7 H7HH7 H7HH7 H7H7 H7H7 H7H7 H7H7 H7H7 H7H7 H7H7 H7H7 H7H7 H7H7 H7H7 H7H7 H7H7 H7H7 H77 H77 H77 77 77 77 77 77 77 77 77 77 77 77 77 77 7 7 57 57 57 57 57 57 57 57 57 57 57 57 57 575 575 55 55 G55 G55 G5J5 GA5J5 GA5J5 GA5J5 GA5J5 GA5J5 GA5J5 GA5JJ5 JGA5JJ5 JGA5JJ5 JGA5JJ5 JGA5JJ5 JGA5JJ5 JGA5JJ5 JGA5JJ5 JGA5JJ5 JGA5JJ5 JGA5JJ5 JGA5JJ5 JGA5JJ5 JGA5JJ5 JGA5JJ5 JGA5JJ5 JGA5JJ5 JGA5JJ5 JGA5JJ5 JGA5JJ5 JGA5JJ5 JGA5JJ5 JGA5JJ5 JGA5JJ5 JGA5JJ5 JGA5JJ5 JGA5JJ5 JGA5JJ5 JGA5JJ5 JGA5JJ5 JGA5JJ5 JGA5JJ5 JGA5JJ5 JGA5JJ5 JGA5JJ5 JGA5JJ5 JGA5JJ5 JGA5JJ5 JGA5JJ5 JGA5JJ5 JGA5JJ5 JGA5JJ5 JGA5JJ5 JGA5JJ5 JGA5JJ5 JGA5JJ5 JGA5JJ5 JGA5JJ5 JGA5JJ5 JGA5JJ5 JGA5JJ5 JGA5JJ5 JGA5JJ5 JGA5JJ5 JGA5JJ5 JGA5JJ5 JGA5JJ5 JGA5JJ5 JGA5JJ5 JGA5JJ5 JGEA5JJ5 JGEA5JJ5 JGEA5JJ5 JGEA5JJ5 JGEA5JJ5 JGEA5JJ5 JGEA5JJ5 JEA5JJ5 JEA5JJ5 JEA5JJ5 JEA5JJ5 JEA5JJ5 JEA5JJ5 JEA5JJ5 JEA54JJ5 JEA54JJ5 JEA54JJ5 JEA54JJ5 JEA54JJ5 JEA54JJ5 JEA54JJ5 JEA54JJ5 JEA54JJ5 JEA54JJ54 JEA54JJ54 JEA54JJ54 JEA54JJ54 JEA54JJ54 JEA54JJ54 JEA54JJ54 JEA54JJ54 JEA54JJ54 JEA54JJ54 JEA4JJ54 JEA4JJ54 JEA4JJ54 JEA4JJ54 JEA4JJ54 JEA4JJ54 JEA4JJ54 JEA4JJ54 JEA4JJ54 JEA4JJ4 JEA4JJ4 JEA4JJ4 JEA4JJ4 JEA4JJ4 JEA4JJ4 JEA4JJ4 JEA4JJ4 JEA4JJ4 JEGA4JJ4 JEGA4JJ4 JEGA4JJ4 JGA4JJ4 JGA4JJ4 JGA4JJ4 JGA4JJ4 JGA4JJ4 JGA4JJ4 JGA4JJ4 JGA4JJ4 JGA4JJ4 JGA4JJ4 JGA4JJ4 JGA4JJ4 JGA4JJ4 JGA4JJ4 JGA4JJ4 JGA4JJ4 JGA4JJ4 JGA4JJ4 JGA4JJ4 JGA4JJ4 JGA4JJ4 JGA4JJ4 JGA4JJ4 JGA4JJ4 JGA4JJ4 JGA4JJ4 JGA4JJ4 JGA4JJ4 JGA4JJ4 JGA4JJ4 JGA4JJ4 JGA4JJ4 JGA4JJ4 JGA4JJ4 JGA4JJ4 JGA4JJ4 JGA4JJ4 JGA4JJ4 JGA4JJ4 JGA4JJ4 JGA4JJ4 JGA4JJ4 JGA4JJ4 JGA4JJ4 JGA4JJ4 JGA4JJ4 JGA4JJ4 JGEA4JJ4 JGEA4JJ4 JGEA4JJ4 JGEA4JJ4 JGEA4JJ4 JGEA4JJ4 JGEA4JJ4 JGEA4JJ4 JGEA4JJ4 JGEA4JJ4 JGEA4JJ4 JGEA4JJ4 JGEA4JJ4 JGEA4JJ4 JEA4JJ4 JEA4JJ4 JEA4JJ4 JEA4JJ4 JEA4JJ4 JEA4JJ4 JEA4JJ4 JEA4JJ4 JEA4JJ4 JEA4JJ4 JEA4JJ4 JEA4JJ4 JEA4JJ4 JEA4JJ4 JEA4JJ4 JEA4JJ4 JEA4JJ4 JEA4JJ4 JEA4JJ4 JEA4JJ4 JEA4JJ4 JEA4JJ4 JEA4JJ4 JEA4JJ4 JEA4JJ4 JEA4JJ4 JEA4JJ4 JEA4JJ4 JEA4JJ4 JEA2JJ4 JEA2JJ4 JEA2JJ4 JEA2JJ4 JEA2JJ4 JEA2JJ4 JEA2JJ4 JEA2JJ4 JEA2JJ4 JEA2JJ42 JEA2JJ42 JEA2JJ42 JEA2JJ42 JEA2JJ42 JEA2JJ2 JEA2JJ2 JEA2JJ2 JEA2JJ2 JEA2JJ2 JEA2JJ2 JEA2JJ2 JEA2JJ2 JEA2JJ2 JEA2JJ2 JEA2JJ2 JEA2JJ2 JEA2JJ2 JEA2JJ2 JEA2JJ2 JEA2JJ2 JEA2JJ2 JEA2JJ2 JEA2JJ2 JEA2JJ2 JEA2JJ2 JEA2JJ2 JEA2JJ2 JEA2JJ2 JEA2JJ2 JEA2JJ2 JEA2JJ2 JEA2JJ2 JEA2JJ2 JEA2JJ2 E2JJ2 E2JJ2 E2JJ2 E2J2 E2J2 E2J2 E2J2 E2J2 E22 E22 E22 E22 E22 E22 E22 E22 E22 E22 E22 E22 E22 E22 E22 E22 E22 E22 E22 E22 E22 E22 E22 E22 E22 E22 E22 E22 E22 E22 E22 E22 E22 E22 E22 22 22 22 22 22 22 22 22 22 22 22 22 22 22 22 22 22 22 22 22 22 22 22 22 22 22 22 22 22 22 22 22 22 22 02 02 02 02 02 02 02 02 00 00 00 00 00 00 00 00 00 0LL0 0LL0 L0LL0 L0LL0 L0LL0 L0LL0 LE0LL0 LE0LL0 LE0LL0 LE0LL0 LE0LL0 LE0LL0 LE0LL0 LE0LL0 LE0LL0 LE0LL0 LE0LL0 LE0LL0 LE0LL0 LE0LL0 LE0LL0 LE@0LL0 LE@0LL0 LE@0LL0 LE@0LL0 LE@0LL0 LE@0LL0 LE@0LL0 LE@0LL0 LE@0LL0 LE@0LL0 LE@0LL0 LE@0LL0 LE@0LL0 LE@0LL0 LE@0LL0 LE@0LL0 LE@0LL0 LE@0LL0 LE@0LL0 LE@0LL0 LE@0LL0 LE@0LL0 LE@0LL0 LE@0LL0 LE@0LL0 LE@0LL0 LE@0LL0 LE@0LL0 LE@0LL0 LE@0LL0 LE@0LL0 LE@0LL0 LE@0LL0 LE@0LL0 LE@0LL0 LE@0LL0 LE@0LL0 LE@0LL0 LE@0LL0 LE@0LL0 LE@0LL0 LE@0LL0 LE@0LL0 LE@0LL0 LE@0LL0 LE@0LL0 LE@0LL0 LE@0LL0 LE@0LL0 E@0LL0 E@0L0 E@0L0 0L0 0L0 0L0 0L0 0L0 0L0 00 00 00 00 00 00 00 00 00 00 00 00 00 0 0 0 0 0 0 0 0 0 0 0 0                         M M ME22 ME22 ME22 ME22 ME22 ME2M2 ME2M2 ME2MM2 ME2MM2 ME2MM2 ME2MM2 ME>2MM2 ME>2MM2 ME>2MM2 ME>2MM2 ME>2MM2 ME>2MM2 ME>2MM2 ME>2MM2 ME>2MM2 ME>2MM2 ME>2MM2 ME>2MM2 ME>2MM2 ME>2MM2 ME>2MM2 ME>2MM2 ME>2MM2 ME>2MM2 ME>2MM2 ME>2MM2 ME>2MM2 ME>2MM2 ME>2MM2 ME>2MM2 ME>2MM2 ME>2MM2 ME>2MM2 ME>2MM2 ME>2MM2 ME>2MM2 ME>2MM2 ME>2MM2 ME>2MM2 ME>2MM2 ME>2MM2 ME>2MM2 ME>2MM2 ME>2MM2 ME>2MM2 ME>2MM2 ME>2MM2 ME>2MM2 ME>2MM2 ME>2MM2 ME>2MM2 ME>2MM2 ME>2MM2 ME>2MM2 ME>2MM2 ME>2MM2 ME>2MM2 ME>2MM2 ME>2MM2 ME>2MM2 ME>2MM2 ME>2MM2 ME>2MM2 ME>2MM2 ME>2MM2 ME>2MM2 ME>2MM2 ME>2MM2 ME>2MM2 ME>2MM2 ME>2MM2 ME>2MM2 ME>2MM2 ME>2MM2 ME>2MM2 ME>2MM2 ME>2MM2 ME>2MM2 ME>2MM2 ME>2MM2 ME>2MM2 ME>2MM2 ME>2MM2 ME>2MM2 ME>2MM2 ME>2MM2 ME>2MM2 ME>2MM2 ME>2MM2 ME>2MM2 ME>2MM2 ME>2MM2 ME>2MM2 ME>2MM2 ME>2MM2 ME>2MM2 ME>2MM2 ME>2MM2 ME>2MM2 ME>2MM ME>2MM ME>2MM ME>2MM ME>2MM ME>2MM ME>2MM ME>2MM ME>2MM ME>2MM ME>2MM ME>2MM ME>2MM ME>2MM ME>2MM ME>2MM ME>2MM ME>2MM ME>2MM ME>2MM ME>MM ME>MM ME>MM ME>MM MEC>MM MEC>MM MEC>MM MEC>MM MEC>MM MEC>MM MEC>MM MEC>MM MEC>MM MEC>MM MEC>MM MEC>MM MEC>MM MEC>MM MEC>MM MEC>MM MEC>MM MEC>MM MEC>MM MEC>MM MEC>MM MEC>MM MEC>MM MEC>MM MEC>MM MEC>MM MEC>MM MC>MM MC>MM MC>MM MC>MM MC>MM MC>MM MC>MM MC>MM MC>MM MC>MM MC>MM MC>MM MC>MM MCMM MCMM MCMM MCMM MCMM MCMM MCMM MCMM MCMM MCMM MCMM MCMM MCMM MCMM MCMM MCMM MCMM MCMM MCMM MCMM MCMM MCMM MCMM MCMM MCMM MCMM MCMM MCMM MCMM MCMM MCMM MCMM MCMM MCMM MCMM MCMM MCMM MCMM MCMM MCMM MCMM MCMM MCMM MCMM MCMM MCMM MCMM MCMM MCMM MCMM MCMM MCMM MCMM MCMM MCMM MCMM MCMM MCMM MCMM MCMM MMM MMM MMM MMM MMM MMM MMM MMM MMM MMM MMM MMM MMM MM MM MM MM MM <MM <MM A<MM A<MM A<MM A<MM A<MM A<MM A<MM A<MM A<MM A<MM A<MM A<9MM A<9MM A<9MM A<9MM A<9MM A<9MM9 A<9MM9 A<9MM9 A<9M9 A<9M9 A<9M9 A<9M9 A<9M9 A<9M9 A<9M9 A<9M9 A<9M9 A<9M9 A<9M9 A<9M9 A<9M9 A<9M9 A<9M9 A<9M9 A<99 A<99 A<99 A<99 A<99 A<99 A<99 A<99 A<99 A<99 A<99 A<99 A<99 A<99 A<99 A<99 A<99 A<99 A<99 A<99 A<99 A<99 A<99 A<99 A<99 A<99 A<99 A<99 A<99 A<99 A<99 A<99 A<99 A<99 A<99 A<99 A<99 A<99 A<99 A<99 A99 A99 A99 A99 A99 A99 A99 A99 A99 A99 A99 A99 A99 A99 A99 A99 A99 A99 A99 A99 A99 A99 A99 A99 A;99 A;99 A;99 A;99 A;99 A;99 A;99 LA;99 LA;99 LA;99 LA;99 LA;99 LA;9L9 LA;9L9 LA;9L9 LA;9L9 LA;9L9 LA;9L9 LA;9L9 LA;9L9 LA;9L9 LA;9LL9 LA;9LL9 LA;9LL9 LA;9LL9 LA;97LL9 LA;97LL9 LA;97LL97 LA;97LL97 LA;97LL97 LA;97LL97 LA;97LL97 LA;97LL97 LA;97LL97 LA;97LL97 LA;97LL97 LA;97LL97 LA;97LL97 LAC;97LL97 LAC;97LL97 LAC;97LL97 LAC;97LL97 LAC;97LL97 LAC;97LL97 LAC;97LL97 LAC;97LL97 LAC;97LL97 LAC;7LL97 LAC;7LL97 LAC;7LL97 LAC;7LL97 LAC;7LL97 LAC;7LL7 LAC;7LL7 LAC;7LL7 LAC;7LL7 LAC;7LL7 LAC;7LL7 LAC;7LL7 LAC;7LL7 LAC;7LL7 LAC;7LL7 LAC;7LL7 LAC;7LL7 LAC;7LL7 LAC;7LL7 LAC;7LL7 LAC;7LL7 LAC;7LL7 LC;7LL7 LC;7LL7 LC;7LL7 LC;7LL7 LC;7LL7 LC;7LL7 LC;7LL7 C;7L7 C;7L7 C7L7 C7L7 C7L7 C7L7 C7L7 C7L7 C7L7 C77 C77 C77 C77 C77 C77 C77 C77 C77 C77 C77 C77 C77 C77 C77 C77 C77 C77 C77 C77 C77 C77 C77 C77 C77 C77 C77 C77 C77 C77 C77 C77 C77 C77 C77 C77 C77 C977 C977 C977 C977 C977 C977 C977 C977 C977 C977 C977 C977 C9757 C9757 C975J7 C975J7 C975J7 C975J7 975J7 975J7 95J7 95J7 95J7 J95J75 J95J75 J95J75 J95J75 J95J75 J95J75 J95JJ75 J95JJ75 J95JJ75 J95JJ75 J95JJ75 JE95JJ75 JE95JJ75 JE95JJ75 JE95JJ75 JE95JJ75 JE95JJ75 JE95JJ75 JE95JJ75 JE95JJ75 JE95JJ75 JE95JJ75 JE95JJ75 JE95JJ75 JE95JJ75 JE95JJ75 JE95JJ75 JE95JJ75 JE95JJ5 JE95JJ5 JE95JJ5 JE95JJ5 JE95JJ5 JE95JJ5 JE95JJ5 JE95JJ5 JE95JJ5 JE95JJ5 JE95JJ5 JE95JJ5 JE95JJ5 JE95JJ5 JE95JJ5 JE95JJ5 JE95JJ5 JE95JJ5 JE95JJ5 JE95JJ5 JE95JJ5 JE95JJ5 JE95JJ5 JE95JJ5 JE95JJ5 JE95JJ5 JE95JJ5 JE95JJ5 JE95JJ5 JE95JJ5 JE95JJ5 JE95JJ5 JE95JJ5 JE95JJ5 JE95JJ5 JE95JJ5 JE95JJ5 JE95JJ5 JE95JJ5 JE95JJ5 JE95JJ5 JE95JJ5 JE95JJ5 JE95JJ5 JE95JJ5 JE95JJ5 JE95JJ5 JE95JJ5 JE95JJ5 JE95JJ5 JE95JJ5 JE95JJ5 JE95JJ5 JE95JJ5 JE95JJ5 JE95JJ5 JE95JJ5 JE95JJ5 JE95JJ5 JE95JJ5 JE95JJ5 JE95JJ5 JE95JJ5 JE95JJ5 JE95JJ5 JE95JJ5 JE95JJ5 JE95JJ5 JE95JJ5 JE95JJ5 JE95JJ5 JE95JJ5 JE95JJ5 JE95JJ5 JE95JJ5 JE5JJ5 JE5JJ5 JE5JJ5 JHE5JJ5 JHE54JJ5 JHE54JJ5 JHE54J5 JHE54J5 JHE54J5 JHE54J5 JHE54JH5 JHE54JH5 JHE54JH5 JHE54JH5 HE54JH5 HE54JH5 HE54JH5 HE54JH5 HE54JH5 HE54JH5 HE54JH5 HE54JHH5 HE54JHH5 HE54JHH5 HE54JHH5 HE54JHH54 HE54JHH54 HE54JHH54 HE54JHH54 HE54JHH54 HE54JHH54 HE54JHH54 HE4JHH54 HE4JHH54 HE4JHH54 HE4JHH54 HE4JHH54 HE4JHH54 HE4JHH54 HE4JHH54 HE4JHH54 HE4JHH54 HE4HH54 HE4HH54 HE4HH54 HE4HH54 HE4HH54 HE4HH54 HE4HH54 HE4HH54 HE4HH54 HE4HH54 HE4HH4 HE4HH4 HE4HH4 HE4HH4 HE4HH4 HE4HH4 HE4HH4 HE4HH4 HE4HH4 HE4HH4 HE4HH4 HE4HH4 HE4HH4 HE4HH4 HE4HH4 HE4HH4 HE4HH4 HE4HH4 HE4HH4 HE4HH4 HE4HH4 HE4HH4 HE4HH4 HE4HH4 HE4HH4 HE4HH4 HE4HH4 HE4HH4 H4HH4 H4HH4 H4HH4 H4HH4 H4HH4 H4HH4 H4HH4 H4HH4 H4HH4 H4HH4 H4HH4 H4HH4 H4HH4 H4HH4 H4HH4 H4HH4 H4HH4 H4HH4 H4HH4 H4HH4 H4HH4 H4HH4 H4HH4 H4HH4 4HH4 4HH4 4HH4 4HH4 4HH4 4HH4 4HH4 G4HH4 G4HH4 G4HH4 G4HH4 G4HH4 G4HH4 G4HH4 G4H4 G4H4 G4H4 G4H4 G4H4 G4H4 G4H4 G44 G44 G2G4 G2G4 G2G4 G2G4 G>2G4 G>2G4 GA>2G4 GA>2G4 GA>2G4 GA>2G4 GA>2G4 GA>2G4 GA>2G4 GA>2G42 GA>2G42 GA>2G42 GA>2G42 GA>2G42 GA>2G42 GA>2G42 GA>2GG2 GA>2GG2 GA>2GG2 GA>2GG2 GA>2GG2 GA>2GG2 GA>2GG2 GA>2GG2 GA>2GG2 GA>2GG2 GA>2GG2 GA>2GG2 GA>2GG2 GA>2GG2 GA>2GG2 GA>2GG2 GA>2GG2 GA>2GG2 GA>2GG2 GA>2GG2 GA>2GG2 GA>2GG2 GA>2GG2 GA>2GG2 GA>2GG2 GA>2GG2 GA>2GG2 GA>2GG2 GA>2GG2 GA>2GG2 GA>2GG2 GA>2GG2 GA>2GG2 GA>2GG2 GA>2GG2 GA>2GG2 GA>2GG2 GA>2GG2 GA>2GG2 GA>2GG2 GA>2GG2 GA>2GG2 GA>2GG2 GA>2GG2 GA>2GG2 GA>2GG2 GA>2GG2 GA>2GG2 GA>2GG2 GA>2GG2 GA>2GG2 GA>2GG2 GA>2GG2 GA>2GG2 GA>2GG2 GA>2GG2 GA>2GG2 GA>2GG2 GA>2GG2 GA>2GG2 GA>2GG2 GA2GG2 GA2GG2 GA2GG2 GA2GG2 GA2GG2 GA2GG2 GA2GG2 GA2GG2 GA2GG2 GA2GG2 GA2GG2 GA2GG2 GA2GG2 GA2GG2 GA2GG2 GA2GG2 GHA20GG2 GHA20GG2 GH20GG2 GH20GG2 GH20GG2 GH@20GG2 GH@20GG2 GH@20GG2 GH@20GG2 GH@20GG2 GH@20GG2 GH@20GG2 GH@20GG2 GH@20GG2 GH@20GG2 GH@20GG2 GH@20GG2 GH@20GG2 GH@0GG20 GH@0GG20 GH@0GG0 GH@0GGH0 GH@0GGH0 GH@0GGH0 GH@0GGH0 GH@0GGH0 GH@0GGH0 GH@0GGH0 GH@0GGH0 GH@0GH0 GH@0GH0 GH@0GH0 GH@0GH0 GH@0GH0 GH@0GH0 H@0GH0 H@0GH0 H@0GH0 H@0GH0 H@0H0 H@0H0 H@0H0 H@0H0 H@0H0 H@0H0 H@0H0 H@0HH0 H@0HH0 H@0HH0 H@0HH0 H@0HH0 H@0HH0 H@0HH0 H@0HH0 H@0HH0 H@0HH0 H@0HH0 H@0HH0 H@0HH0 H@0HH0 H@0HH0 H@0HH0 H@0HH0 H@0HH0 H@0HH0 H@0HH0 H@0HH0 H@0HH0 H@0HH0 H@0HH0 H@0HH0 H@0HH0 H@0HH0 H@0HH0 H@0HH0 H@0HH0 H@0HH0 H@0HH0 H@0HH0 H@0HH0 H@0HH0 H@0HH0 H@0HH0 H@0HH0 H@0HH0 H@0HH0 H@0HH0 H@0HH0 H@0HH0 H@0HH0 H@0HH0 H@0HH0 H@0HH0 H@0HH0 H@0HH0 H@0HH0 H@0HH0 H@0HH0 H@0HH0 H@0HH0 H@0HH0 H@0HH0 H@0HH0 H@0HH0 H@0HH0 H@0HH0 H@0HH0 H@0HH0 H@0HH0 H@0HH0 H@0HH0 H@0HH0 H@0HH0 H@0HH0 H@0HH0 H@0HH0 H@0HH0 H@0HH0 H@0HH0 H@0HH0 @0/HH0 @0/HH0 0/HH0 0/HH0 0/HH0 0/HH0 0/HH0 0/HH0 0/H0 0/H0 0/H0 0/H0 0/H0 0/H0 0/H0 70/H0 70/H0 70/H0/ 70/H0/ 70/H0/ 70/0/ 70/0/ J70/0/ J70/0/ J7/0/ J7/0/ J7/0/ J7/0/ JA7/0/ JA7/0/ JA7/0/ JA7/0/ JA7/0/ JA7/0/ JA7/0/ JA7/0/ JA7/J0/ JA7/J0/ JA7/J0/ JA7/J0/ JA7/J0/ JA7/J0/ JA7/J0/ JA7/J0/ JA7/J0/ JA7/J0/ JA7/J0/ JA7/J0/ JA7/J0/ JA7/J0/ JA7/JJ0/ JA7/JJ0/ JA7/JJ0/ JA7/JJ/ JA7/JJ/ JA7/JJ/ JA7/JJ/ JA7/JJ/ JA7/JJ/ JA7/JJ/ JA7/JJ/ JA7/JJ/ JA7/JJ/ JA7/JJ/ JA7/JJ/ JA7/JJ/ JA7/JJ/ JA7/JJ/ JA7/JJ/ JA7/JJ/ JA7/JJ/ JA7/JJ/ JA7/JJ/ JA7/JJ/ JA7/JJ/ JA7/JJ/ JA7/JJ/ JA7/JJ/ JA7/JJ/ JA7/JJ/ JA7/JJ/ JA7/JJ/ JA7/JJ/ JA7/JJ/ JA7/JJ/ JA7/JJ/ JA7/JJ/ JA7/JJ/ JA7/JJ/ JA7/JJ/ JA7/JJ/ JA7/JJ/ JA7/JJ/ JA7/JJ/ JA7/JJ/ JA7/JJ/ JA7/JJ/ JA7/JJ/ JA7/JJ/ JA7/JJ/ JA7/JJ/ JA7/JJ/ JA/JJ/ JA/JJ/ JA/JJ/ JA/JJ/ JA/JJ/ JA/JJ/ JA/JJ/ JA/JJ/ JA/JJ/ JA/JJ/ JA/JJ/ JA/JJ/ JA/JJ/ JA/-JJ/ JA/-JJ/ JA/-JJ/ JA/-JJ/ JA/-JJ/ JA/-JJ/ JA/-JJ/ JA/-JJ/ JA-JJ/ J-JJ/ J-JJ/ JG-JJ/ JG-JJ/ JG-JJ/ JG-JJ/ JG-JJ/ JG-JJ/ JG-JJ/ JG-JJ/ JG-JJ/ JG-JJ/ JG-JJ/ JG-JJ/ JG-JJ/ JG-JJ/ G-JJ/ G-JJ/ G-JJG/ G-JJG/ G-JJG/- G-JJG/- G-JJG/- G-JJG/- G-JJG/- G-JJG/- G-JJG/- G-JJG/- G-JJG/- G-JJG/- G-JJG/- G-JGJG/- G-JGJG/- G-JGG/- G-JGG/- G-JGG- G-JGG- G-JGG- G-JGG- G-JGG- G-JGG- G-JGG- G-JGG- G-JGG- G-JGG- G-JGG- G-GG- G-GG- G-GG- G-GG- G-GG- G-GG- G-GG- G-GG- G-GG- G-GG- G-GG- G-GG- G-GG- G-GG- G-GG- G-GG- G-GG- G-GG- G-GG- G-GG- G-GG- G-GG- G-GG- G-GG- G-GG- G-GG- G-GG- G-GG- G-GG- G-GG- G-GG- G-GG- G-GG- G-GG- G-GG- G-GG- G-GG- G-GG- G-GG- G-GG- G-GG- G-GG- G-GG- G-GG- G-GG- G-GG- G-GG- G-GG- G-GG- G-GG- G-GG- G-GG- G-GG- G-GG- G-GG- G-GG- G-GG- G-GG- G-GG- G-GG- G-GG- G-GG- G-+GG- G-+GG- G-+GG- G-+GG- G-+GG- GH-+GG- GH-+GG- GH-+GG- GH-+GG- GH-+GG- GH-+GG- GH-+GG- GH-+GG- GH-+GG- GH-+GG- GH-+GG- GH-+GG- GH-+GG- GH-+GG- GH-+GG- GH-+GG- GH-+G- GH-+G- GH-+G- GH-+G- GH-+G- GH-+GH-+ GH-+GH-+ GH-+GH-+ H-+GH-+ H-+GH-+ H-+GH-+ H-+GH-+ H+GH-+ H+GH-+ H+H-+ H+H-+ H+H-+ H+H-+ H+H-+ H+H-+ H+H-+ H<+H-+ H<+H-+ H<+HH-+ H<+HH-+ H<+HH+ H<+HH+ H<+HH+ H<+HH+ H<+HH+ H<+HH+ H<+HH+ HE<+HH+ HE<+HH+ HE<+HH+ HE<+HH+ HE<+HH+ HE<+HH+ HE<+HH+ HE<+HH+ HE<+HH+ HE<+HH+ HE<+HH+ HE<+HH+ HE<+HH+ HE<+HH+ HE<+HH+ HE<+HH+ HE<+HH+ HE<+HH+ HE<+HH+ HE<+HH+ HE<+HH+ HE<+HH+ HE<+HH+ HE<+HH+ HE<+HH+ HE<+HH+ HE<+HH+ HE<+HH+ HE<+HH+ HE<+HH+ HE<+HH+ HE<+HH+ HE<+HH+ HE<+HH+ HE<+HH+ HE<+HH+ HE<+HH+ HE<+HH+ HE<+HH+ HE<+HH+ HE<+HH+ HE<+HH+ HE<+HH+ HE<+HH+ HE<+HH+ HE<+HH+ HE<+HH+ HE<+HH+ HE<+HH+ HE<+HH+ HE<+HH+ HE<+HH+ HE<+HH+ HE<+HH+ HE<+HH+ HE<+HH+ HE<+HH+ HE<+HH+ HE<+HH+ HE<+HH+ HE<+HH+ HE<+HH+ HE<+HH+ HE<+HH+ HE<+HH+ HE<+HH+ HE<+HH+ HE<+HH+ HE<+HH+ HEHH+ HEHH+ HJEHH+ HJEHH+ HJE)HH+ HJE)HH+ HJE)HH+ J)HH+ J)HH+ J)HH+ J)HH+ J)HH+ J)HH+ J)HH+ J)HH+ J)HH+ J)HHJ+ J)HHJ+ J)HHJ+ J)HHJ+ J)HHJ+ J)HHJ+ J)HHJ+ J)HHJ+ J)HHJ+ J)HHJ+ J)HHJ+) J)HHJ+) J)HHJ+) J)HHJ+) J)HHJ+) J)HHJ+) J)HJ+) J)HJ+) J)HJ+) J)HJJ+) J)HJJ+) J)HJJ+) J)HJJ+) J)HJJ+) J)JJ+) J)JJ+) J)JJ+) J)JJ+) J)JJ+) J)JJ+) J)JJ+) J)JJ+) J)JJ+) J)JJ+) J)JJ+) J)JJ+) J)JJ+) J)JJ+) J)JJ+) JJJ+) JJJ+) JJJ+) JJJ+) JJJ+) JJJ+) JJJ+) JJJ) JJJ) JJJ) JJJ) JJJ) JJJ) JJJ) JJJ) JJJ) JJJ) JJJ) JJJ) JJJ) JJJ) JJJ) JJJ) JJJ) JJJ) JJ JJ JJ JJ JJ JJ JJ JJ JJ JJ JJ JJ JJ JJ JJ JJ JJ JJ JJ JJ JJ JJ JJ JJ J J                              5 5 C5 C5 C5 C5 C5 C5 C5 C5 C5 C5 C5 C5 C5 C5 C5C C5C C5C C5C C5C C5C C5C C5C C5C C5C C5C C5C C5CC C5CC C5CC C5CC C5CC C5CC C5CC C5CC C5CC C5CC5 C5CC5 C5CC5 C;5CC5 C;5CC5 C;5CC5 C;5CC5 C;5CC5 C;5CC5 C;5CC5 C;5CC5 C;5CC5 C;5CC5 C;5CC5 C;5CC5 C;5CC5 C>;5CC5 C>;5CC5 C>;5CC5 C>;5CC5 C>;5CC5 C>;5CC5 C>;5CC5 C>;5CC5 C>;5CC5 C>;5CC5 C>;5CC5 C>;5CC5 C>;5CC5 C>;5CC5 C>;5CC5 C>;5CC5 C>;5CC5 C>;5CC5 C>;5CC5 C>;5CC5 C>;5CC5 C>;5CC5 C>;5CC5 C>;5CC5 C>;5CC5 C>;5CC5 C>;5CC5 C>;5CC5 C>;5CC5 C>;5CC5 C>;5CC5 C>;5CC5 C>;5CC5 C>;5CC5 C>;5CC5 C>;5CC5 C>;5CC5 C>;5CC5 C>;5CC5 C>;5CC5 C>;5CC5 C>;5CC5 C>;5CC5 C>;5CC5 C>;5CC5 C>;5CC5 C>;5CC5 C>;5CC5 C>;5CC5 C>;5CC5 C>;5CC5 C>;5CC5 C>;5CC5 C>;5CC5 C>;5CC5 C>;5CC5 C>;5CC5 C>;5CC5 C>;5CC5 C>;5CC5 C>;5CC5 C>;5CC5 C>;5CC5 C>;5CC5 C>;5CC5 C>;5CC5 C>;5CC5 C>;5CC5 C>;5CC5 C>;5CC5 C>;5CC5 C>;5CC5 C>;5CC5 C>;5CC5 C>;5CC5 C>;5CC5 C>;5CC5 C>;5CC5 C>;5CC5 C>;5CC5 C>;5CC5 C>;5CC5 C>;5CC5 C>;5CC5 C>;5CC5 C>;5CC5 C>;5CC5 C>;5CC5 C>;5CC5 C>;5CC5 C>;5CC5 C>;5CC5 C>;5CC5 C>;5CC5 C>;5CC5 C>;5CC5 C>;5CC5 C>;5CC5 C>;5CC5 C>;5CC5 C>;5CC5 C>;5CC5 C>;5CC5 C>;5CC5 C>;5CC5 C>;5CC5 C>;5CC5 C>;5CC5 C>;5CC5 C>;5CC5 C>;5CC5 C>;5CC5 C>;5CC5 C>;5CC5 C>;5CC5 C>;5CC5 C>;5CC5 C>;5CC5 C>;5CC5 C>;5CC5 C>;5CC5 C>;5CC5 C>;5CC5 C>;5CC5 C>;5CC5 C>;5CC5 C>;5CC5 C>;5CC5 C>;5CC5 C>;5CC5 C>;5CC5 C>;5CC5 C>;5CC5 C>;5CC5 C>;5CC5 C>;5CC5 C>;5CC5 C>;5CC5 C>;5CC5 C>;5CC5 C>;5CC5 C>;5CC5 C>;5CC5 C>;5CC5 C>;5CC5 C>;5CC5 C>;5CC5 C>;5CC5 C>;5CC5 C>;5CC5 C>;5CC5 C>;5CC5 C>;5CC5 C>;5CC5 C>;5CC5 C>;5CC5 C>;5CC5 C>;5CC5 C>;5CC5 C>;5CC5 C>;5CC5 C>;5CC5 C>;5CC5 C>;5CC5 C>;5CC5 C>;5CC5 C>;5CC5 C>;5CC5 C>;5CC5 C>;5CC5 C>;5CC5 C>;5CC5 C>;5CC5 C>;5CC5 C>;5CC5 C>;5CC5 C>;5CC5 C>;5CC5 C>;5CC5 C>;5CC5 C>;5CC5 C>;5CC5 C>;5CC5 C>;5CC5 C>;5CC5 C>;5CC5 C>;5CC5 C>;5CC5 C>;5CC5 C>;5CC5 C>;5CC5 C>;5CC5 C>;5CC5 C>;5CC5 C>;5CC5 C>;5CC5 C>;5CC5 C>;5CC5 C>;5CC5 C>;5CC5 C>;5CC5 C>;5CC5 C>;5CC5 C>;5CC5 C>;5CC5 C>;5CC5 C>;5CC5 C>;5CC5 C>;5CC5 C>;5CC5 C>;5CC5 C>;5CC5 C>;5CC5 C>;5CC5 C>;5CC5 C>;5CC5 C>;5CC5 C>;5CC5 C>;5CC5 C>;5CC5 C>;5CC5 C>;5CC5 C>;5CC5 C>;5CC5 C>;5CC5 C>;5CC5 C>;5CC5 C>;5CC5 C>;5CC5 C>;5CC5 C>;5CC5 C>;5CC5 C>;5CC5 C>;5CC5 C>;5CC5 C>;5CC5 C>;5CC5 C>;5CC5 C>;5CC5 C>;5CC5 C>;5CC5 C>;5CC5 C>;5CC5 C>;5CC5 C>;5CC5 C>;5CC5 >;5CC5 >;5CC5 >;5CC5 >;5CC5 >;5CC5 >;5CC5 >;5CC5 >;5CC5 >;5CC5 >;5CC5 >;5CC5 >;5CC5 >;5CC5 >;5CC5 >;5CC5 >;5CC5 >;5CC5 >;5CC5 >;5CC5 >;5CC5 >;5CC5 >;5CC5 >;5CC5 >;5CC5 >;5CC5 >;5CC5 >;5CC5 >;5CC5 >;5CC5 >;5C5 >;5C5 >;5C5 >;5C5 >;5C5 >;5C5 >;55 >;55 >;55 >;55 >;55 >;55 >;55 >;55 >;55 >;55 >;55 >;55 >;55 >;55 >;55 >;55 >;55 >;55 >;55 >;55 >;55 >;55 >;55 >;55 >;55 >;55 >;55 >;55 >;55 >;55 >;55 >;55 >;55 >;55 >;55 >;55 >;55 >;55 >;55 >;55 >;55 >;55 >;55 >;55 >;55 >;55 E>;55 E>;55 E>;55 E>;55 E>;55 E>;5E5 E>;5EE5 E>;5EE5 E>;5EE5 E>;5EE5 E>;5EE5 E>;5EE5 E>;5EE5 E>;5EE5 E>;5EE5 E>;5EE5 E>;5EE5 E>;5EE5 E>;5EE5 E>;5EE5 E>;5EE5 E>;5EE5 E>;5EE5 E>;5EE5 E>;5EE5 E>;5EE5 E>;5EE5 E>;5EE5 E>;5EE5 E>;5EE5 E>;5EE5 E>;5EE5 E>;5EE5 E>;5EE5 E>;5EE5 E>;5EE5 E>;5EE5 E>;5EE5 E>;5EE5 E>;5EE5 E>;5EE5 E>;5EE5 E>;5EE5 E>;5EE5 E>;5EE5 E>;5EE5 E>;5EE5 E>;5EE5 E>;5EE5 E>;5EE5 E>;5EE5 E>;5EE5 E>;5EE5 E>;5EE5 E>;5EE5 E>;5EE5 E>;5EE5 E>;5EE5 E>;5EE5 E>;5EE5 E>;5EE5 E>;5EE5 E>;5EE5 E>;5EE5 E>;5EE5 E>;5EE5 E>;5EE5 E>;5EE5 E>;5EE5 E>;5EE5 E>;5EE5 E>;5EE5 E>;5EE5 E>;5EE5 E>;5EE5 E>;5EE5 E>;5EE5 E>;5EE5 E>;5EE5 E>;5EE5 E>;5EE5 E>;5EE5 E>;5EE5 E>;5EE5 E>;5EE5 E>;5EE5 E>;5EE5 E>;5EE5 E>;5EE5 E>;5EE5 E>;5EE5 E>;5EE5 E>;5EE5 E>;5EE5 E>;5EE5 E>;5EE5 E>;5EE5 E>;5EE5 E>;5EE5 E>;5EE5 E>;5EE5 E>;5EE5 E>;5EE5 E>;5EE5 E>;5EE5 E>;5EE5 E>;5EE5 EG>;5EE5 EG>;5EE5 EG>;5EE5 EG>;5EE5 EG>;5EE5 EG>;5EE5 EG>;5EE5 EG>;5EE5 EG>;5EE5 EG>;5EE5 EG>;5EE5 EG>;5EE5 EG>;5EE5 EG>;5EE5 EG>;5EEG5 EG>;5EEG5 EG>;5EEG5 EG>;5EEG5 EG>;5EEG5 EG>;5EEG5 EG>;5EEG5 EG>;5EEG5 G>;5EGEG5 G>;5EGEG5 G>;5EGEG5 G>;5EGEG5 G>;5EGEG5 G>;5EGEG5 G>;5GEG5 G>;5GG5 G>;5GG5 G>;5GG5 G>;5GG5 G>;5GG5 G>;5GG5 G>;5GG5 G>;5GG5 G>;5GG5 G>;5GG5 G>;5GG5 G>;5GG5 G>;5GG5 G>;5GG5 G>;5GG5 G>;5GG5 G>;5GG5 G>;5GG5 G>;5GG5 G>5GG5 G>5GG5 G>5GG5 G>5GG5 G>5GG5 G>5GG5 G>5GG5 G>5GG5 G>5GG5 G>5GG5 G>5GG5 G>5GG5 G>5GG5 G>5GG5 G>5GG5 G>5GG5 G>5GG5 G>5GG5 G>5GG5 G>5GG5 G>5GG5 G5GG5 G5GG5 G5GG5 G5GG5 G5GG5 G5GG5 GGG5 GGG5 GGG5 GGG5 GGG5 GGG5 GGG5 GGG5 GGG5 GGG5 GGG5 GGG5 GGG5 GGG5 GGG5 GGG5 GGG5 GGG5 GGG5 GGG5 GGG5 GGG5 GGG5 GGG5 GGG5 GGG5 GGG5 GGG5 GGG5 GGG5 GGG5 GGG5 GGG5 GGG5 GGG5 GGG5 GGG5 GGG5 GGG5 GG5 GG GG GG GG GG GG GG G G G GH GH GH H H H H H H H H H H H H H HH HH HH HH HH HHH HHH HHH HHH HHH HHH HHH HHH HHH HHH HHH HHH HHH HHH HHH HHH HHH HHH HHH HHH HHH HHH HHH HHH HHH HHH HHH HHH HHH HHH HHH HHH HHH HHH HHH HHH HHH HHH HHH HHH HHH HHH HHH HHH HHH HHH HHH HHH HHH HHH HHH HHH HHH HHH HHH HHH HHH HHH HHH HHH HHH HHH HHH HHH HHH HHH HHH HHH HHH HHH HHH HHH HHH HHH HHH HHH HHH HHH HHH HHH HHH HHH HHH HHH HHH HHH HHH HHH HHH HHH HHH HHH HHH HHH HHH HHH HHH HHH HHH HHH HHH HH HH HHJ HJJHJ HJJHJ HJJHJ HJJHJ HJJHJJ HJJHJJ HJJ7/HJJ JJ7/HJJ JJ7/HJJ JJ7/HJJ JJ7/HJJ JJ7/HJJ JJ7/HJJ JJ7/HJJ/ JJ7/HJJ/ JJ7/HJJ/ JJ7/JJ/ JJ7/JJ/ JJ7/JJ/ JJ7/JJ/ JJ7/JJ/ JJ7/JJ/ JJ7/JJ/ JJ7/JJ/ JJ7/JJ/ JJ7/JJ/ JJ7/JJ/ JJ7/JJ/ JJ7/JJ/ JJ7/JJ/ JJ7/JJ/ JJ7/JJ/ JJ7/JJ/ JJ7/JJ/ JJ7/JJ/ JJ7/JJ/ JJ7/JJ/ JJ7/JJ/ JJ7/JJ/ JJ7/JJ/ JJ7/JJ/ JJ7/JJ/ JJ7/JJ/ JJ7/JJ/ JJ7/JJ/ JJ7/JJ/ JJ7/JJ/ JJ7/JJ/ JJ7/JJ/ JJ7/JJ/ JJ7/JJ/ JJ7/JJ/ JJ7/JJ/ JJ7/JJ/ JJ7/JJ/ JJ7/JJ/ JJ7/JJ/ JJ7/JJ/ JJ7/JJ/ JJ7/JJ/ JJ7/JJ/ JJ7/JJ/ JJ7/JJ/ JJ7/JJ/ JJ7/JJ/ JJ7/JJ/ JJ7/JJ/ JJ7/JJ/ JJ7/JJ/ JJ7/JJ/ JJ7/JJ/ JJ7/JJ/ JJ7/JJ/ JJ7/JJ/ JJ7/JJ/ JJ7/JJ/ JJ7/JJ/ JJ7/JJ/ JJ7/JJ/ JJ7/JJ/ JJ7/JJ/ JJ7/JJ/ JJ7/JJ/ JJ7/JJ/ JJ7/JJ/ JJ7/JJ/ J7/JJ/ J7/JJ/ J7/JJ/ J7/JJ/ J7/JJ/ J7/JJ/ J7/JJ/ J7/JJ/ J7/JJ/ J7/JJ/ J7/JJ/ J7/JJ/ J7/JJ/ J7/JJ/ J7J/ J7J/ JJ/ JJ/ JJ/ JJ/ JJ JJ JJ JJ JJ J J J J J J JL JL JLL LL LL LLL LLL LLL LLL LLL LLL LLL LLL LLL LLL LLL LLL LLL LLL LLL LLL LLL LLL LLL LLL LLL LLL LLL LLL LLL LLL LLL LLL LLL LLL LLL LLL LLL LLL LLL LLL LLL LLL LLL LLL LLL LLL LLL LLL LLL LLL LLL LLL LLL LLL LLL LLL LLL LLL LLL LLL LLL LLL LLL LLL LLL LLL LLL LLL LLL LLL LLL LLL LLL LLL LLL LLL LLL LL LL LL LL LL LL LL LL LL L L                             M MGM MGM MGM MGM MGM MGMM MGMM MGMM MGMM MGMM MGMM MGMM MGMM MGMM+ MGMM+ MG>MM+ MG>MM+ MG>MM+ MG>MM+ MG>+MM+ MG>+MM+ MG>+MM+ MG>+MM+ MG>+MM+ MG>+MM+ MG>+MM+ MG>+MM+ MG>+MM+ MG>+MM+ MG>+MM+ MG>+MM+ MG>+MM+ MG>+MM+ MG>+MM+ MG>+MM+ MG>+MM+ MG>+MM+ MG>+MM+ MG>+MM+ MG>+MM+ MG>+MM+ MG>+MM+ MG>+MM+ MG>+MM+ MG>+MM+ MG>+MM+ MG>+MM+ MG>+MM+ MG>+MM+ MG>+MM+ MG>+MM+ MG>+MM+ MG>+MM+ MG>+MM+ MG>+MM+ MG>+MM+ MG>+MM+ MG>+MM+ MG>+MM+ MG>+MM+ MG>+MM+ MG>+MM+ MG>+MM+ MG>+MM+ MG>+MM+ MG>+MM+ MG>+MM+ MG>+MM+ MG>+MM+ MG>+MM+ MG>+MM+ MG>+MM+ MG>+MM+ MG>+MM+ MG>+MM+ MG>+MM+ MG>+MM+ MG>+MM+ MG>+MM+ MG>+MM+ MG>+MM+ MG>+MM+ MG>+MM+ MG>+MM+ MG>+M+ MG>+M+ MG>+M+ MG>+M+ MG>+M+ MG>+M+ MG>+M+ MG>+M+ MG>++ MG>++ MG>++ MG>++ MG>++ M>++ M>++ M>++ M>++ M++ M++ M++ M++ M++ M++ M++ MJ++ MJ++ MJ+J+ MJ+J+ MJ+J+ J+J+ J+J+ J+J+ J+JJ+ J+JJ+ J+JJ+ J+JJ J+JJ J+JJ J+JJ JJJ JJJ JJJ JJJ JJJ JJJ JJJ JJJ JJJ JJJ JJJ JJJ JJJ JJJ JJJ JJJ JJJ JJJ JJJ JJJ JJJ JJJ JJJ JJJ JJJ JJJ JJJ JJJ JJJ JJJ JJJ JJJ JJJ JJJ JJJ JJJ JJJ JJJ JJJ JJJ JJJ JJJ JJJ JJJ JJJ JJJ JJJ JJJ JJJ JJJ JJJ JJJ JJJ JJJ JJJ JJJ JJJ JJJ JJJ JJJ JJJ JJJ JJJ JJJ JJJ JJJ JJ JJ JJ J J J J J J J J J J J J J J J J                           OJ OJ OJ OJ OJ OJ OJ OJ; OJ; OJ;O OJ;O OJ;O OJ;OO OJ;OO OJ;OO OJ;OO OJ;OO OJ;OO OJ;OO OJ;OO OJ;OO/ OJ;OO/ OJ;OO/ OJ;OO/ OJ;OO/ OJ;/OO/ OJ;/OO/ OJ;/OO/ OJ;/OO/ OJ;/OO/ OJ;/OO/ OJ;/OO/ OJ;/OO/ OJ;/OO/ OJ;/OO/ OJ;/OO/ OJ;/OO/ OJ;/OO/ OJ;/OO/ OJ;/OO/ OJ;/OO/ OJ;/OO/ OJ;/OO/ OJ;/OO/ OJ;/OO/ OJ;/OO/ OJ;/OO/ OJ;/OO/ OJ;/OO/ OJ;/OO/ OJ;/OO/ OJ;/OO/ OJ;/OO/ OJ;/OO/ OJ;/OO/ OJ;/OO/ OJ;/OO/ OJ;/OO/ OJ;/OO/ OJ;/OO/ OJ;/OO/ OJ;/OO/ OJ;/OO/ OJ;/OO/ OJ;/OO/ OJ;/OO/ OJ;/OO/ OJ;/OO/ OJ;/OO/ OJ;/OO/ OJ;/OO/ OJ;/OO/ OJ;/OO/ OJ;/OO/ OJ;/OO/ OJ;/OO/ OJ;/OO/ OJ;/OO/ OJ;/OO/ OJ;/OO/ OJ;/OO/ OJ;/OO/ OJ;/OO/ OJ;/OO/ OJ;/OO/ OJ;/OO/ OJ;/OO/ OJ;/OO/ OJ;/OO/ OJ;/OO/ OJ;/OO/ OJ/OO/ OJ/OO/ OJ/OO/ OJ/OO/ OJ/OO/ O/OO/ O/OO/ O/OO/ O/OO/ O/O/ O/O/ O/O/ O/O/ O/O/ O/O/ O/O/ O/O/ O/O/ O/O/ O/O/ O/O/ O/O/ O/O/ O/O/ O/O/ O/O/ O/O/ O/O/ O/O/ O/O/ O/O/ O/O/ O/O/ O/O/ O/O/ O/O/ /O/ /O/ /O/ /O/ O/ O/ O/ O/ O                                                                                                        7 7 L70 LH70 LH70 LH70 LH70 LH70 LH70 LH700 LH700 LH700 LH700 LH700 LH70L0 LH70L0 LH70L0 LH70L0 LH70L0 LH70L0 LH70L0 LH70L0 LH70LL0 LH70LL0 LH70LL0 LH70LL0 LH70LL0 LH70LL0 LH70LL0 LH70LL0 LH70LL0 LH70LL0 LH70LL0 LH70LL0 LH70LL0 LH70LL0 LH70LL0 LH70LL0 LH70LL0 LH70LL0 LH70LL0 LH70LL0 LH70LL0 LH70LL0 LH70LL0 LH70LL0 LH70LL0 LH70LL0 LH70LL0 LH70LL0 LH70LL0 LH70LL0 LH70LL0 LH70LL0 LH70LL0 LH70LL0 LH70LL0 LH70LL0 LH70LL0 LH70LL0 LH70LL0 LH70LL0 LH70LL0 LH70LL0 LH70LL0 LH70LL0 LH70LL0 LH70LL0 LH70LL0 LH70LL0 LH70LL0 LH70LL0 LH70LL0 LH70LL0 LH70LL0 LH70LL0 LH70LL0 LH70LL0 LH70LL0 LH70LL0 LH70LL0 LH70LL0 LH70LL0 LH70LL0 LH70LL0 LH70LL0 LH70LL0 LH70LL0 LH70LL0 LH70LL0 LH70LL0 LH70LL0 LH70LL0 LH70LL0 LH70LL0 LH70LL0 LH70LL0 LH70LL0 LH70LL0 LH70LL0 LH70LL0 LH70LL0 LH70LL0 LH70LL0 LH70LL0 LH70LL0 LH70LL0 LH70LL0 LH70LL0 LH70LL0 LH70LL0 LH70LL0 LH70LL0 LH70LL0 LH70LL0 LH70LL0 LH70LL0 LH70LL0 LH70LL0 LH70LL0 LH70LL LH70LL LH70LL LH70LL LH7LL LH7LL LH7LL LH7LL LH7LL LH7LL LH7LL LH7LL LH7LL LH7LL LH7LL LH7LL LH7LL LH7LL LH7LL LH7LL LH7LL LH7LL LH7LL LH7LL LH7LL LH7LL LH7LL LH7LL LH7LL LH7LL LH7LL LH7LL LH7LL LH7LL LH7LL LH7LL LH7LL LH7LL LH7LL LH7LL LH7LL LH7LL LH7LL LH7LL LH7LL LH7LL LH7LL LH7LL LHLL LHLL LHLL LHLL LHLL LHLL LHLL LHLL LHLL LHLL LHLL LHLL LHLL LHLL LHLL LHLL LHLL LHLL LHLL LHLL LHLL LHLL LHLL LHLL LHLL LHLL LHLL LHLL LHLL LHLL LHLL LHLL LHLL LHLL LHLL LHLL LHLL LHLL LHLL LHLL LHLL LHLL LHLL LHLL LHLL LHLL LHLL LHLL LHLL LHLL LHLL LHLL LHLL LHLL LHLL LHLL LHLL LHLL LHLL LHLL LHLL LHLL LHLL LHLL LHLL LHLL LHLL LHLL LHLL LHLL LHLL LHLL LHLL LHLL LHLL LHLL LHLL LHLL LHLL LHLL LHLL LHLL LHLL LHCLL LHCLL LHCLL LHCLL LHCLL+ LHCLL+ LHCLL+ LHCLL+ LHCLL+ LHCLL+ LCLL+ LC+LL+ LC+LL+ LC+LL+ LC+LL+ LC+LL+ LC+LL+ LC+LL+ LC+LL+ LC+LL+ LC+LL+ LC+LL+ C+LL+ C+LL+ C+LL+ C+LL+ C+LL+ C+LL+ C+LL+ C+LL+ C+LL+ C+L+ C+L+ C+L+ C+L+ C+L+ C+L+ C+L+ C+L+ C+L+ C+L+ C+L+ C+L+ C+L+ C+L+ C+L+ C+L+ C++ C++ C++ C++ C++ C++ C++ C++ C++ C++ C++ C++ C++ C++ C++ C++ C++ C++ C++ C++ C++ C++ C++ C++ C++ C++ C++ C++ C++ C++ C++ C++ C++ C++ C++ C++ C++ C++ C++ C++ C++ C++ C++ C++ C++ C++ C++ C++ C++ C++ C++ C++ GC++ GC++ GC++ GC++ GC++ GCA++ GCA++ JGCA++ JGCA++ JGCA++ JGCA++ JGCA+J JGCA+J JGA+J JGA+J JGA+J JGA+J JGA+J JGAJ JGAJ JGAJ JGAJ JGAJ JGAJ JGAJ JGAJ JGAJJ JGAJJ JGAJJ JGAJJ JGAJJ JGAJJ JGAJJ JGAJJ JGAJJ JGAJJ JGAJJ JGAJJ JGAJJ JGAJJ JGAJJ JGAJJ JGAJJ JGAJJ JGAJJ JGAJJ JGAJJ JGAJJ JGAJJ JGAJJ JGAJJ JGAJJ JGAJJ JGAJJ JGAJJ JGAJJ JGAJJ JGAJJ JGAJJ JGAJJ JGAJJ JGAJJ JGAJJ JGAJJ JGAJJ JGAJJ JGAJJ JGAJ JGAJ JGAJ JGAJ JGAJ JGAJ JGAJ JGAJ JGAJ JGAJ JGAJ JGA JGA JGA JGA JGA JGA JGA JGA JGA JGA JGA JGA JGA JGA JGA JGA JGA JGA JGA JGA JGA JGA JGA JA A                               H H H H H H H HH HH HH HH HH HH HHH HHH HHHH HHHH HHHH- HH@HH- HH@HH- HH@-HH- HH@-HH- HH@-HH- HH@-HH- HH@-HH- HH@-HH- HH@-HH- HH@-HH- HH@-HH- HH@-HH- HH@-HH- HH@-HH- HH@-HH- HH@-HH- HH@-HH- HH@-HH- HH@-HH- HH@-HH- HH@-HH- HH@-HH- HH@-HH- HH@-HH- HH@-HH- HH@-HH- HH@-HH- HH@-HH- HH@-HH- HH@-HH- HH@-HH- HH@-HH- HH@-HH- HH@-HH- HH@-HH- HH@-HH- HH@-HH- HH@-HH- HH@-HH- HH@-HH- HH@-HH- HH@-HH- HH@-HH- HH@-HH- HH@-HH- HH@-HH- HH@-HH- HH@-HH- HH@-HH- HH@-HH- HH@-HH- HH@-HH- HH@-HH- HH@-HH- HH@-HH- HH@-HH- HH@-HH- HH@-HH- HH@-HH- HH@-HH- HH@-HH- HH@-HH- HH@-HH- HH@-HH- HH@-HH- HH@-HH- HH@-HH- HH@-HH- HH@-HH- HH@-HH- HH@-HH- HH@-HH- HH@-HH- HH@-HH- HH@-HH- HH@-HH- HH@-HH- HH@-HH- HH@-HH- HH@-HH- HH@-HH- HH@-HH- HH@HH- HH@HH- HH@HH- HH@HH- HH@HH- HH@HH- H@HH- H@HH- H@HH- H@HH- H@HH- H@HH- H@HH- H@HH- H@HH- H@HH- H@HH- HG@HH- HG@HH- G@HH- G@HH- G@HH G@HH G@HH G@H G@HG G@HG G@HG G@GG G@GG G@GG G@GG G@GG G@GG G@GG G@GG G@GG GGG GGG GGG GGG GGG GGG GGG GGG GGG GGG GGG GGG GGG GGG GGG GGG GGG GGG GGG GGG GGG GGG GGG GGG GGG GGG GGG GGG GGG GGG GGG GGG GGG GGG GGG GGG GGG GGG GGG GGG GGG GGG GGG GGG GGG GGG GGG GGG GGG GGG GGG GGG GGG GGG GGG GGG GGG GGG GGG GGG GGG GGG GGG GGG GG GG GG GG GG GG G G G G G G G G G G                     H H H H HH HH HH HH HH HEH HEH HEH HEHH HEHH HEHH HEHH HEHH HEHH HEHH HEHH HE)HH) HE)HH) HE)HH) HE)HH) HE)HH) HE)HH) HE)HH) HE)HH) HE)HH) HE)HH) HE)HH) HE)HH) HE)HH) HE)HH) HE)HH) HE)HH) HE)HH) HE)HH) HE)HH) HE>)HH) HE>)HH) HE>)HH) HE>)HH) HE>)HH) HE>)HH) HE>)HH) HE>)HH) HE>)HH) HE>)HH) HE>)HH) HE>)HH) HE>)HH) HE>)HH) HE>)HH) HE>)HH) HE>)HH) HE>)HH) HE>)HH) HE>)HH) HE>)HH) HE>)HH) HE>)HH) HE>)HH) HE>)HH) HE>)HH) HE>)HH) HE>)HH) HE>)HH) HE>)HH) HE>)HH) HE>)HH) HE>)HH) HE>)HH) HE>)HH) HE>)HH) HE>)HH) HE>)HH) HE>)HH) HE>)HH) HE>)HH) HE>)HH) HE>)HH) HE>)HH) HE>)HH) HE>)HH) HE>)HH) HE>)HH) HE>)HH) HE>)HH) HE>)HH) HE>)HH) HE>)HH) HE>)HH) HE>)HH) HE>)HH) HE>)HH) HE>)HH) HE>)HH) HE>)HH) HE>)HH) HE>)HH) HE>)HH) HE>)HH) HE>)HH) HE>)H) HE>)H) HE>)H) HE>)H) H>)H H>)H HE>H HE>H HE>EH HE>EH HE>EH HE>EH HE>EH HE>EH HE>EH E>EH E>EH E>EH E>EH E>EH E>EH E>EH E>EH E>EH E>EH E>EH E>EH E>E E>E E>E E>E E>EE E>EE E>EE E>EE EEE EEE EEE EEE EEE EEE EEE EEE EEE EEE EEE EEE EEE EEE EEE EEE EEE EEE EEE EEE EEE EEE EEE EEE EEE EEE EEE EEE EEE EEE EEE EEE EEE EEE EEE EEE EEE EEE EEE EEE EEE EEE EEE EEE EEE EE EE EE EE EE EE EE EE EE EE EE EE EE EE EE EE EE EE EE E E E E E E E E E E E E E E E E E             E E E E E EH EH EH EH EH EH EH EH HEH HEH HEH HEH HEH HEH HEH HEH HEH HEH HEH HEH HEH HEH HEH HEH HE@H+ HE@H+ HE@H+ HE@H+ HE@+H+ HE@+H+ HE@+H+ HE@+H+ HE@+H+ HE@+HH+ HE@+HH+ HE@+HH+ HE@+HH+ HE@+HH+ HE@+HH+ HE@+HH+ HE@+HH+ HE@+HH+ HE@+HH+ HE@+HH+ HE@+HH+ HE@+HH+ HE@+HH+ HE@+HH+ HE@+HH+ HE@+HH+ HE@+HH+ HE@+HH+ HE@+HH+ HE@+HH+ HE@+HH+ HE@+HH+ HE@+HH+ HE@+HH+ HE@+HH+ HE@+HH+ HE@+HH+ HE@+HH+ HE@+HH+ HE@+HH+ HE@+HH+ HE@+HH+ HE@+HH+ HE@+HH+ HE@+HH+ HE@+HH+ HE@+HH+ HE@+HH+ HE@+HH+ HE@+HH+ HE@+HH+ HE@+HH+ HE@+HH+ HE@+HH+ HE@+HH+ HE@+HH+ HE@+HH+ HE@+HH+ HE@+HH+ HE@+HH+ HE@+HH+ HE@+HH+ HE@+HH+ HE@+HH+ HEC@>+HH+ HEC@>+HH+ HEC>+HH+ HEC>+HH+ HEC>+HH+ HEC>+HH+ HEC>+HH+ HC>+HH+ HC>+HH+ HC>+HH+ HC>+HH+ HC>+HH+ HC>+HH+ HC>+HH+ HC>+HH+ HGC>+HH+ HGC>+HH+ HGC>+HH+ GC>+HH+ GC>+HHG+ GC>+HHG+ GC>+HHG+ GC>+HHG+ GC>+HHG+ GC>+HHG+ GC>+HG+ GC>+HG+ GC>+HG+ GC>+HG+ GC>+HG+ GC>+HG+ GC>+HG+ GC>+HG+ GC>+HG+ GC>+HG+ GC>+HG+ GC>+HG+ GC>+HG+ GC>+HG+ GC>+HG+ GC>+HG+ GC>+GG+ GC>+GG+ GC>+GG+ GC>+GG+ GC>+GG+ GC>+GG+ GCE>+GG+ GCE>+GG+ GCE>+GG+ GCE>+GG+ GCE>@+GG+ GCE>@+GG+ GE>@+GG+ GE>@+GG+ GE>@+GG+ GE>@+GG+ GE>@+GG+ GE@+GG+ GE@+GG+ GHE@+GG+ GHE@+GG+ HE@+GG+ HE@+GG+ HE@+GG+ HE@+GGH+ HE@+GGH+ HE@+GGH+ HE@+GGH+ HE@+GGH+ HE@+GGH+ HE@+GGH+ HE@+GH+ HE@+GH+ HE@+GH+ HE@+GH+ HE@+GH+ HE@+GH+ HE@+GH+ HE@+GH+ HE@+GH+ HE@+GH+ HE@+GH+ HE@+GH+ HE@+H+ HE@+H+ HE@+HH+ HE@+HH+ HE@+HH+ HE@+HH+ HE@+HH+ HEC@+HH+ HEC@+HH+ HEC@+HH+ HEC@+HH+ HEC@+HH+ HEC@+HH+ HEC@>+HH+ HEC@>+HH+ HEC@>+HH+ HC>+HH+ HC>+HH+ HC>+HH+ HC>+HH+ HC>+HH+ HC>+HH+ HC>+HH+ HC>+HH+ HC>+HH+ HC>+HH+ HC>+HH+ HC>+HH+ HC>+HH+ HGC>+H+ HGC>+HG+ HGC>+HG+ HGC>+HG+ HGC>+HG+ HGC>+HG+ HGC>+HG+ HGC>+HG+ HGC>+HG+ HGC>+HG+ HGC>+HG+ GC>+HG+ GC>+HG+ GC>+G+ GC>+G+ GC>+G+ GCE>+GG+ GCE>+GG+ GCE>+GG+ GCE>+GG+ GCE>+GG+ GCE>+GG+ GE>@+GG+ GE>@+GG+ GE>@+GG+ GE>@+GG+ GE>@+GG+ GE>@+GG+ GE>@+GG+ GE>@+GG+ GE>@+GG+ GE>@+GG+ GE>@+GG+ GE@+GG+ GE@+GG+ GE@+GG+ GE@+GGH+ GE@+GGH+ GE@+GGH+ GE@+GGH+ GE@+GGH+ GE@+GGH+ HGE@+GGH+ HGE@+GH+ HGE@+GH+ HGE@+GH+ HGE@+GH+ HGE@+GH+ HGE@+GH+ HGE@+GH+ HGE@+GH+ HGE@+GH+ HGE@+GH+ HGE@+GH+ HGE@+GH+ HGE@+GH+ HGE@+GH+ HGE@+GH+ HGEC@+GHH+ HGEC@+GHH+ HGEC@+HH+ HGEC@+HH+ HGEC@+HH+ HGEC@+HH+ HGEC@>+HH+ HGEC@>+HH+ HGEC@>+HH+ HGEC@>+HH+ HGEC@>+HH+ HGEC@>+HH+ HGEC@>+HH+ HGEC@>+HHG+ HGEC@>+HHG+ HGEC@>+HHG+ HGEC@>+HHG+ GEC@>+HHG+ GEC@>+HHG+ GC@>+HHG+ GC@>+HHG+ GC@>+HHG+ GC>+HHG+ GC>+HHG+ GC>+HHG+ GC>+HHG+ GC>+HHG+ GC>+HHG+ GC>+HHG+ GC>+HHG+ GC>+HHG+ GC>+HHG+ GC>+HHG+ GC>+HHG+ GC>+HHG+ GC>+HHG+ GC>+HHG+ GC>+HHG+ GC>+HHG+ GC>+HHG+ GC>+HGG+ GC>+HGG+ GC>+HGG+ GC>+HGG+ GC>+HGG+ GC>+HGG+ GC>+HGG+ GC>+HGG+ GC>+HGG+ GC>+HGG+ GC>+HGG+ GC>+HGG+ GC>+HGG+ GC>+HGG+ GC>+HGG+ GC>+HGG+ GC>+HGG+ GC>+HGG+ GC>+HGG+ GC>+GG+ GC>+GG+ GC>+GG+ GC>+GG+ GC>+GG+ GC>+GG+ GC>+GG+ GC>+GG+ GC>+GG+ GC>+GG+ GC>+GG+ GC>+GG+ GC>+GG+ GC>+GG+ GC>+GG+ GC>+GG+ GC>+GG+ GC>+GG+ GC>+GG+ GC>+GG+ GC>+GG+ GC>+GG+ GC>+GG+ GC>+GG GC>+GG GC>+GG GC>+GG GC>+GG GC>+GG GC>+GG GC>+GG GC>+GG GC>+GG GC>+GG GC>+GG GC>+GG GC>+GG GC>+GG GC>+GG GC>+GG GC>+GG GC>+GG GC>+GG GC>+GG GC>+GG GC>+GG GC>+GG GC>+GG GC>+GG GC>+GG GC>+GG GC>+GG GC>+GG GC>GG GC>GG GC>GG GC>GG GC>GG GHC>GG GHC>GG GHC>GG GHC>GG GHC>GG GHC>GGH GHC>GGH GHC>GGH GHC>GGH GHC>GGH GHC>GH GHC>GH GHC>GH GHC>GH GHC>GH H>GH H>GH H>GH H>GHH H>GHH H>GHH H>GHH H>GHH H>GHH H>GHH H>GHH H>HH H>HH H>HH H>HH H>HH H>HH H>HH H>HH H>HH H>HH H>HH H>HH H>HH H>HH H>HH H>HH H>HH H>HH H>HH H>HH HHH HHH HHH HHH HHH HHH HHH HHH HHH HHH HHH HHH HHH HHH HHH HHH HHH HHH HHH HHH HHH HHH HH H H H H H H H H H H H                                                H H H HH HH HH HH HH HHH HCHH HCHH HCHH HCHH HCHH HCHH$ HCHH$ HCHH$ HCHH$ HCHH$ HCHH$ HCHH$ HCHH$ HCHH$ HC@$HH$ HC@$HH$ HC@$HH$ HC@$HH$ HC@$HH$ HC@$HH$ HC@$HH$ HC@$HH$ HC@$HH$ HC@$HH$ HC@$HH$ HC@$HH$ HC@$HH$ HC@$HH$ HC@$HH$ HC@$HH$ HC@$HH$ HC@$HH$ HC@$HH$ HC@$HH$ HC@$HH$ HC@$HH$ HC@$HH$ HC@$HH$ HC@$HH$ HC@$HH$ HC@$HH$ HC@$HH$ HC@$HH$ HC@$HH$ HC@$HH$ HC@$HH$ HC@$HH$ HC@$HH$ HC@$HH$ HC@$HH$ HC@$HH$ HC@$HH$ HC@$HH$ HC@$HH$ HC@$HH$ HC@$HH$ HC@$HH$ HC@$HH$ HC@$HH$ HC@$HH$ HC@$HH$ HC@$HH$ HC@$HH$ HC@$HH$ HC@$HH$ HC@$HH$ HC@$HH$ HC@$HH$ HC@$HH$ HC@$HH$ HC@$HH$ HC@$HH$ HC@$HH$ HC@$HH$ HC@$HH$ HC@$HH$ HC@$HH$ HC@$HH$ HC@$HH$ HC@$HH$ HC@$HH$ HC@$HH$ HC@$HH$ HC@$HH$ HC@$HH$ HC@$HH$ HC@$HH$ HC@$HH$ HC@$HH$ HC@$HH$ HC@$HH$ HC@$HH$ HC@$HH$ HC@$HH$ HC@$HH$ HC@$HH$ HC@$HH$ HC@$HH$ HC@$HH$ HC@$HH$ HC@$HH$ HC@$HH$ HC@$HH$ HC@$HH$ HC@$HH$ HC@$HH$ HC@$HH$ HC@$HH$ HC@$HH$ HC@$HH$ HC@$HH$ HC@$HH$ HC@$HH$ HC@$HH$ HC@$HH$ HC@$HH$ HC@$HH$ HC@$HH$ HC@$HH$ HC@$HH$ HC@$HH$ HC@$HH$ HC@$HH$ HC@$HH$ HC@$HH$ HC@$HH$ HC@$HH$ HC@$HH$ HC@$HH$ HC@$HH$ HC@$HH$ HC@$HH$ HC@$HH$ HC@$HH$ HC@$HH$ HC@$HH$ HC@$HH$ HC@$HH$ HC@$HH$ HC@$HH$ HC@$HH$ HC@$HH$ HC@$HH$ HC@$HH$ HC@$HH$ HC@$HH$ HC@$HH$ HC@$HH$ HC@$HH$ HC@$HH$ HC@$HH$ HC@$HH$ HC@$HH$ HC@$HH$ HC@$HH$ HC@$HH$ HC@$HH$ HC@$HH$ HC@$HH$ HC@$HH$ HC@$HH$ HC@$HH$ HC@$HH$ HC@$HH$ HC@$HH$ HC@$HH$ HC@$HH$ HC@$HH$ HC@$HH$ HC@$HH$ HC@$HH$ HC@$HH$ HC@$HH$ HC@$HH$ HC@$HH$ HC@$HH$ HC@$HH$ HC@$HH$ HC@$HH$ HC@$HH$ HC@$HH$ HC@$HH$ HC@$HH$ HC@$HH$ HC@$HH$ HC@$HH$ HC@$HH$ HC@$HH$ HC@$HH$ HC@$HH$ HC@$HH$ HC@$HH$ HC@$HH$ HC@$HH$ HC@$HH$ HC@$HH$ HC@$HH$ HC@$HH$ HC@$HH$ HC@$HH$ HC@$HH$ HC@$HH$ HC@$HH$ HC@$HH$ HC@$HH$ HC@$HH$ HC@$HH$ HC@$HH$ HC@$HH$ HC@$HH$ HC@$HH$ HC@$HH$ HC@$HH$ HC@$HH$ HC@$HH$ HC@$HH$ HC@$HH$ HC@$HH$ HC@$HH$ HC@$HH$ HC@$HH$ HC@$HH$ HC@$HH$ HC@$HH$ HC@$HH$ HC@$HH$ HC@$HH$ HC@$HH$ HC@$HH$ HC@$HH$ HC@$HH$ HC@$HH$ HC@$HH$ HC@$HH$ HC@$HH$ HC@$HH$ HC@$HH$ HC@$HH$ HC@$HH$ HC@$HH$ HC@$HH$ HC@$HH$ HC@$HH$ HC@$HH$ HC@$HH$ HC@$HH$ HC@$HH$ HC@$HH$ HC@$HH$ HC@$HH$ HC@$HH$ HC@$HH$ HC@$HH$ HC@$HH$ HC@$HH$ HC@$HH$ HC@$HH$ HC@$HH$ HC@$HH$ HC@$HH$ HC@$HH$ HC@$HH$ HC@$HH$ HC@$HH$ HC@$HH$ HC@$HH$ HC@$HH$ HC@$HH$ HC@$HH$ HC@$HH$ HC@$HH$ HC@$HH$ HC@$HH$ HC@$HH$ HC@$HH$ HC@$HH$ HC@$HH$ HC@$HH$ HC@$HH$ HC@$HH$ HC@$HH$ HC@$HH$ HC@$HH$ HC@$HH$ HC@$HH$ HC@$HH$ HC@$HH$ HC@$HH$ HC@$HH$ HC@$HH$ HC@$HH$ HC@$HH$ HC@$HH$ HC@$HH$ HC@$HH$ HC@$HH$ HC@$HH$ HC@$HH$ HC@$HH$ HC@$HH$ HC@$HH$ HC@$HH$ HC@$HH$ HC@$HH$ HC@$HH$ HC@$HH$ HC@$HH$ HC@$HH$ HC@$HH$ HC@$HH$ HC@$HH$ HC@$HH$ HC@$HH$ HC@$HH$ HC@$HH$ HC@$HH$ HC@$HH$ HC@$HH$ HC@$HH$ HC@$HH$ HC@$HH$ HC@$HH$ HC@$HH$ HC@$HH$ HC@$HH$ HC@$HH$ HC@$HH$ HC@$HH$ HC@$HH$ HC@$HH$ HC@$HH$ HC@$HH$ HC@$HH$ HC@$HH$ HC@$HH$ HC@$HH$ HC@$HH$ HC@$HH$ HC@$HH$ HC@$HH$ HC@$HH$ HC@$HH$ HC@$HH$ HC@$HH$ HC@$HH$ HC@$HH$ HC@$HH$ HC@$HH$ HC@$HH$ HC@$HH$ HC@$HH$ HC@$HH$ HC@$HH$ HC@$HH$ HC@$HH$ HC@$HH$ HC@$HH$ HC@$HH$ HC@$HH$ HC@$HH$ HC@$HH$ HC@$HH$ HC@$HH$ HC@$HH$ HC@$HH$ HC@$HH$ HC@$HH$ HC@$HH$ HC@$HH$ HC@$HH$ HC@$HH$ HC@$HH$ HC@$HH$ HC@$HH$ HC@$HH$ HC@$HH$ HC@$HH$ HC@$HH$ HC@$HH$ HC@$HH$ HC@$HH$ HC@$HH$ HC@$HH$ HC@$HH$ HC@$HH$ HC@$HH$ HC@$HH$ HC@$HH$ HC@$HH$ HC@$HH$ HC@$HH$ HC@$HH$ HC@$HH$ HC@$HH$ HC@$HH$ HC@$HH$ HC@$HH$ HC@$HH$ HC@$HH$ HC@$HH$ HC@$HH$ HC@$HH$ HC@$HH$ HC@$HH$ HC@$HH$ HC@$HH$ HC@$HH$ HC@$HH$ HC@$HH$ HC@$HH$ HC@$HH$ HC@$HH$ HC@$HH$ HC@$HH$ HC@$HH$ HC@$HH$ HC@$HH$ HC@$HH$ HC@$HH$ HC@$HH$ HC@$HH$ HC@$HH$ HC@$HH$ HC@$HH$ HC@$HH$ HC@$HH$ HC@$HH$ HC@$HH$ HC@$HH$ HC@$HH$ HC@$HH$ HC@$HH$ HC@$HH$ HC@$HH$ HC@$HH$ HC@$HH$ HC@$HH$ HC@$HH$ HC@$HH$ HC@$HH$ HC@$HH$ HC@$HH$ HC@$HH$ HC@$HH$ HC@$HH$ HC@$HH$ HC@$HH$ HC@$HH$ HC@$HH$ HC@$HH$ HC@$HH$ HC@$HH$ HC@$HH$ HC@$HH$ HC@$HH$ HC@$HH$ HC@$HH$ HC@$HH$ HC@$HH$ HC@$HH$ HC@$HH$ HC@$HH$ HC@$HH$ HC@$HH$ HC@$HH$ HC@$HH$ HC@$HH$ HC@$HH$ HC@$HH$ HC@$HH$ HC@$HH$ HC@$HH$ HC@$HH$ HC@$HH$ HC@$HH$ HC@$HH$ HC@$HH$ HC@$HH$ HC@$HH$ HC@$HH$ HC@$HH$ HC@$HH$ HC@$HH$ HC@$HH$ HC@$HH$ HC@$HH$ HC@$HH$ HC@$HH$ HC@$HH$ HC@$HH$ HC@$HH$ HC@$HH$ HC@$HH$ HC@$HH$ HC@$HH$ HC@$HH$ HC@$HH$ HC@$HH$ HC@$HH$ HC@$HH$ HC@$HH$ HC@$HH$ HC@$HH$ HC@$HH$ HC@$HH$ HC@$HH$ HC@$HH$ HC@$HH$ HC@$HH$ HC@$HH$ HC@$HH$ HC@$HH$ HC@$HH$ HC@$HH$ HC@$HH$ HC@$HH$ HC@$HH$ HC@$HH$ HC@$HH$ HC@$HH$ HC@$HH$ HC@$HH$ HC@$HH$ HC@$HH$ HC@$HH$ HC@$HH$ HC@$HH$ HC@$HH$ HC@$HH$ HC@$HH$ HC@$HH$ HC@$HH$ HC@$HH$ HC@$HH$ HC@$HH$ HC@$HH$ HC@$HH$ HC@$HH$ HC@$HH$ HC@$HH$ HC@$HH$ HC@$HH$ HC@$HH$ HC@$HH$ HC@$HH$ HC@$HH$ HC@$HH$ HC@$HH$ HC@$HH$ HC@$HH$ HC@$HH$ HC@$HH$ HC@$HH$ HC@$HH$ HC@$HH$ HC@$HH$ HC@$HH$ HC@$HH$ HC@$HH$ HC@$HH$ HC@$HH$ HC@$HH$ HC@$HH$ HC@$HH$ HC@$HH$ HC@$HH$ HC@$HH$ HC@$HH$ HC@$HH$ HC@$HH$ HC@$HH$ HC@$HH$ HC@$HH$ HC@$HH$ HC@$HH$ HC@$HH$ HC@$HH$ HC@$HH$ HC@$HH$ HC@$HH$ HC@$HH$ HC@$HH$ HC@$HH$ HC@$HH$ HC@$HH$ HC@$HH$ HC@$HH$ HC@$HH$ HC@$HH$ HC@$HH$ HC@$HH$ HC@$HH$ HC@$HH$ HC@$HH$ HC@$HH$ HC@$HH$ HC@$HH$ HC@$HH$ HC@$HH$ HC@$HH$ HC@$HH$ HC@$HH$ HC@$HH$ HC@$HH$ HC@$HH$ HC@$HH$ HC@$HH$ HC@$HH$ HC@$HH$ HC@$HH$ HC@$HH$ HC@$HH$ HC@$HH$ HC@$HH$ HC@$HH$ HC@$HH$ HC@$HH$ HC@$HH$ HC@$HH$ HC@$HH$ HC@$HH$ HC@$HH$ HC@$HH$ HC@$HH$ HC@$HH$ HC@$HH$ HC@$HH$ HC@$HH$ HC@$HH$ HC@$HH$ HC@$HH$ HC@$HH$ HC@$HH$ HC@$HH$ HC@$HH$ HC@$HH$ HC@$HH$ HC@$HH$ HC@$HH$ HC@$HH$ HC@$HH$ HC@$HH$ HC@$HH$ HC@$HH$ HC@$HH$ HC@$HH$ HC@$HH$ HC@$HH$ HC@$HH$ HC@$HH$ HC@$HH$ HC@$HH$ HC@$HH$ HC@$HH$ HC@$HH$ HC@$HH$ HC@$HH$ HC@$HH$ HC@$HH$ HC@$HH$ HC@$HH$ HC@$HH$ HC@$HH$ HC@$HH$ HC@$HH$ HC@$HH$ HC@$HH$ HC@$HH$ HC@$HH$ HC@$HH$ HC@$HH$ HC@$HH$ HC@$HH$ HC@$HH$ HC@$HH$ HC@$HH$ HC@$HH$ HC@$HH$ HC@$HH$ HC@$HH$ HC@$HH$ HC@$HH$ HC@$HH$ HC@$HH$ HC@$HH$ HC@$HH$ HC@$HH$ HC@$HH$ HC@$HH$ HC@$HH$ HC@$HH$ HC@$HH$ HC@$HH$ HC@$HH$ HC@$HH$ HC@$HH$ HC@$HH$ HC@$HH$ HC@$HH$ HC@$HH$ HC@$HH$ HC@$HH$ HC@$HH$ HC@$HH$ HC@$HH$ HC@$HH$ HC@$HH$ HC@$HH$ HC@$HH$ HC@$HH$ HC@$HH$ HC@$HH$ HC@$HH$ HC@$HH$ HC@$HH$ HC@$HH$ HC@$HH$ HC@$HH$ HC@$HH$ HC@$HH$ HC@$HH$ HC@$HH$ HC@$HH$ HC@$HH$ HC@$HH$ HC@$HH$ HC@$HH$ HC@$HH$ HC@$HH$ HC@$HH$ HC@$HH$ HC@$HH$ HC@$HH$ HC@$HH$ HC@$HH$ HC@$HH$ HC@$HH$ HC@$HH$ HC@$HH$ HC@$HH$ HC@$HH$ HC@$HH$ HC@$HH$ HC@$HH$ HC@$HH$ HC@$HH$ HC@$HH$ HC@$HH$ HC@$HH$ HC@$HH$ HC@$HH$ HC@$HH$ HC@$HH$ HC@$HH$ HC@$HH$ HC@$HH$ HC@$HH$ HC@$HH$ HC@$HH$ HC@$HH$ HC@$HH$ HC@$HH$ HC@$HH$ HC@$HH$ HC@$HH$ HC@$HH$ HC@$HH$ HC@$HH$ HC@$HH$ HC@$HH$ HC@$HH$ HC@$HH$ HC@$HH$ HC@$HH$ HC@$HH$ HC@$HH$ HC@$HH$ HC@$HH$ HC@$HH$ HC@$HH$ HC@$HH$ HC@$HH$ HC@$HH$ HC@$HH$ HC@$HH$ HC@$HH$ HC@$HH$ HC@$HH$ HC@$HH$ HC@$HH$ HC@$HH$ HC@$HH$ HC@$HH$ HC@$HH$ HC@$HH$ HC@$HH$ HC@$HH$ HC@$HH$ HC@$HH$ HC@$HH$ HC@$HH$ HC@$HH$ HC@$HH$ HC@$HH$ HC@$HH$ HC@$HH$ HC@$HH$ HC@$HH$ HC@$HH$ HC@$HH$ HC@$HH$ HC@$HH$ HC@$HH$ HC@$HH$ HC@$HH$ HC@$HH$ HC@$HH$ HC@$HH$ HC@$HH$ HC@$HH$ HC@$HH$ HC@$HH$ HC@$HH$ HC@$HH$ HC@$HH$ HC@$HH$ HC@$HH$ HC@$HH$ HC@$HH$ HC@$HH$ HC@$HH$ HC@$HH$ HC@$HH$ HC@$HH$ HC@$HH$ HC@$HH$ HC@$HH$ HC@$HH$ HC@$HH$ HC@$HH$ HC@$HH$ HC@$HH$ HC@$HH$ HC@$HH$ HC@$HH$ HC@$HH$ HC@$HH$ HC@$HH$ HC@$HH$ HC@$HH$ HC@$HH$ HC@$HH$ HC@$HH$ HC@$HH$ HC@$HH$ HC@$HH$ HC@$HH$ HC@$HH$ HC@$HH$ HC@$HH$ HC@$HH$ HC@$HH$ HC@$HH$ HC@$HH$ HC@$HH$ HC@$HH$ HC@$HH$ HC@$HH$ HC@$HH$ HC@$HH$ HC@$HH$ HC@$HH$ HC@$HH$ HC@$HH$ HC@$HH$ HC@$HH$ HC@$HH$ HC@$HH$ HC@$HH$ HC@$HH$ HC@$HH$ HC@$HH$ HC@$HH$ HC@$HH$ HC@$HH$ HC@$HH$ HC@$HH$ HC@$HH$ HC@$HH$ HC@$HH$ HC@$HH$ HC@$HH$ HC@$HH$ HC@$HH$ HC@$HH$ HC@$HH$ HC@$HH$ HC@$HH$ HC@$HH$ HC@$HH$ HC@$HH$ HC@$HH$ HC@$HH$ HC@$HH$ HC@$HH$ HC@$HH$ HC@$HH$ HC@$HH$ HC@$HH$ HC@$HH$ HC@$HH$ HC@$HH$ HC@$HH$ HC@$HH$ HC@$HH$ HC@$HH$ HC@$HH$ HC@$HH$ HC@$HH$ HC@$HH$ HC@$HH$ HC@$HH$ HC@$HH$ HC@$HH$ HC@$HH$ HC@$HH$ HC@$HH$ HC@$HH$ HC@$HH$ HC@$HH$ HC@$HH$ HC@$HH$ HC@$HH$ HC@$HH$ HC@$HH$ HC@$HH$ HC@$HH$ HC@$HH$ HC@$HH$ HC@$HH$ HC$HH$ HC$HH$ HC$HH$ HC$HH$ HC$HH$ HC$HH$ HC$HH$ HC$HH$ HC$HH$ HC$HH$ HC$HH$ HC$HH$ HC$HH$ HC$HH$ HC$HH$ HC$HH$ HC$HH$ HC$HH$ HC$HH$ HC$HH$ HC$HH$ HC$HH$ HC$HH$ HC$HH$ C$HH$ C$HH$ C$HH$ C$H$ C$H$ C$H$ C$H$ C$H$ C$H$ C$H$ C$H$ C$H$ C$H$ C$H$ C$H$ CH$ CH$ CH$ CH$ CH$ CH$ CH$ CH$ C$ C$ C$                                                                                                                                                                                                                                                                                                           7 7 7 7 7 7 7 C7J C7J C7J C7J C7JJ C7JJ C7JJ C7JJ7 C7JJ7 C7JJ7 C7JJ7 C7JJ7 C7JJ7 C7JJ7 C7JJ7 C7JJ7 C7JJ7 C7JJ7 C7JJ7 C7JJ7 C7JJ7 C7JJ7 C7JJ7 C7JJ7 JC7JJ7 JC7JJ7 JC7JJ7 JGC7JJ7 JGC7JJ7 JGC7JJ7 JGC7JJ7 JGC7JJ7 JGC7JJ7 JGC7JJ7 JGC7JJ7 JGC7JJ7 JGC7JJ7 JGC7JJ7 JGC7JJ7 JGC7JJ7 JGC7JJ7 JGC7JJ7 JGC7JJ7 JGC7JJ7 JGC7JJ7 JGC7JJ7 JGC7JJ7 JGC7JJ7 JGC7JJ7 JGC7JJ7 JGC7JJ7 JGC7JJ7 JGC7JJ7 JG7JJ7 JG7JJ7 JGJJ7 JGJJ7 JGJJ7 JGJ7 JGJ7 JG7 JG7 JG7 JG7 JG7 JG7 JG7 JG7 JG7 JG7 JG7 JG JG J J                                                       C C C CJ CJ CJ CJ CJ CJ7 CJ7 CJJ7 CJJ7 CJJ7 JCJJ7 JCJJ7 JCJJ7 JCJJ7 JC7JJ7 JC7JJ7 JC7JJ7 JC7JJ7 JGC7JJ7 JGC7JJ7 JGC7JJ7 JGC7JJ7 JGC7JJ7 JGC7JJ7 JGC7JJ7 JGC7JJ7 JGC7JJ7 JGC7JJ7 JGC7JJ7 JGC7JJ7 JGC7JJ7 JGC7JJ7 JGC7JJ7 JGC7JJ7 JGC7JJ7 JGC7JJ7 JGC7JJ7 JGC7JJ7 JGC7JJ7 JGC7JJ7 JGC7JJ7 JGC7JJ7 JGC7JJ7 JGC7JJ7 JGC7JJ7 JGC7JJ7 JGC7JJ7 JGC7JJ7 JGC7JJ7 JGC7JJ7 JGC7JJ7 JGC7JJ7 JGC7JJ7 JGC7JJ7 JGC7JJ7 JGC7JJ7 JGC7JJ7 JGC7JJ7 JGC7JJ7 JGC7JJ7 JGC7JJ7 JGC7JJ7 JGC7JJ7 JGC7JJ7 JGC7JJ7 JGC7JJ7 JGC7JJ7 JGC7JJ7 JGC7JJ7 JGC7JJ7 JGC7JJ7 JGC7JJ7 JGC7JJ7 JGC7JJ7 JGC7JJ7 JGC7JJ7 JGC7JJ7 JGC7JJ7 JGC7JJ7 JGC7JJ7 JGC7JJ7 JGC7JJ7 JGC7JJ7 JGC7JJ7 JGC7JJ7 JGC7JJ7 JGC7JJ7 JGC7JJ7 JGC7JJ7 JGC7JJ7 JGC7JJ7 JGC7JJ7 JGC7JJ7 JGC7JJ7 JGC7JJ7 JGC7JJ7 JGC7JJ7 JGC7JJ7 JGC7JJ7 JGC7JJ7 JGC7JJ7 JGC7JJ7 JGC7JJ7 JGC7JJ7 JGC7JJ7 JGC7JJ7 JGC7JJ7 JGC7JJ7 JGC7JJ7 JGC7JJ7 JGC7JJ7 JGC7JJ7 JGC7JJ7 JGC7JJ7 JGC7JHJ7 JGC7JHJ7 JGC7JHJ7 JGC7JHJ7 JGC7HJ7 JGC7HJH7 JGC7HJH7 JGC7HJH7 JGC7HJH7 JGC7HJH7 JGC7HJH7 JGC7HJH7 JGC7HJH7 JGC7HJH7 JHGC7HJH7 JHGC7HJH7 JHGC7HJH7 JHGC7HJH7 JHGC7HJH7 JHGC7HJH7 JHGEC7HJH7 JHGEC7HJH7 JHGEC7HJH7 JHGEC7HJH7 JHGEC7HJH7 JHGEC7HH7 JHGEC7HH7 JHGEC7HH7 JHGEC7HH7 JHGEC7HH7 JHGEC7HH7 JHGEC7HH7 JHGEC7HH7 JHGEC7HH7 JHGEC7HH7 JHEC7HH7 JHEC7HH7 JHEC7HH7 JHEC7HH7 HEC7HH7 HEC7HH7 HEC7HH7 HEC7HH7 HEC7HH7 HEC7HH7 HEC7HH7 HEC7HH7 HEC7HH7 HEC7HH7 HEC7HH7 HEC7HH7 HEC7HH7 HEC7HH7 HEC7HH7 HEC7HH7 HEC7HH7 HEC7HH7 HEC7HH7 HEC7HH7 HEC7HH7 HEC7HH7 HEC7HH7 HEC7HH7 HEC7HH7 HEC7HH7 HEC7HH7 HEC7HH7 HEC7HH7 HEC7HH7 HEC7HH7 HEC7HH7 HECHH7 HECHH7 HECHH7 HECHH7 HECHH7 HECHH7 HECHH7 HECHH7 HECHH7 HECHH7 HECHH7 HECHH7 HECHH7 HECHH7 HECHH7 HECHH7 HECHH7 HECHH7 HECHH7 HECHH7 HECHH7 HECHH7 HECHH7 HECHH7 HECHH7 HECHH7 HECHH7 HECHH7 HECHH7 HECHH7 HECHH7 HECHH7 HECHH7 HECHH7 HECHH7 HECHH7 HECHH7 HECHH7 HECHH7 HECHH HECHH HECHH HECHH HECHH HECHH HECHH HECHH HECHH HECHH HECHH HECHH HECH HECH HECH HECH HEC5 HEC5 HEC5 HEC5 HEC5 HEC5J HEGC5JJ HEGC5JJ5 HGC5JJ5 HGC5JJ5 HGC5JJ5 HGC5JJ5 HGC5JJ5 HGC5JJ5 HGC5JJ5 HJGC5JJ5 HJGC5JJ5 HJGC5JJ5 HJGC5JJ5 HJGC5JJ5 JGC5JJ5 JGC5JJ5 JGC5JJ5 JGC5JJ5 JGC5JJ5 JGC5JJ5 JGC5JJ5 JGC5JJ5 JGC5JJ5 JGC5JJ5 JGC5JJ5 JGC5JJ5 JGC5JJ5 JGC5JJ5 JGC5JJ5 JGC5JJ5 JGC5JJ5 JGC5JJ5 JGC5JJ5 JGC5JJ5 JGC5JJ5 JGC5JJ5 JGC5JJ5 JGC5JJ5 JGC5JJ5 JGC5JJ5 JGC5JJ5 JGC5JJ5 JGC5JJ5 JGC5JJ5 JGC5JJ5 JGC5JJ5 JGC5JJ5 JGC5JJ5 JGC5JJ5 JGC5JJ5 JGC5JJ5 JGC5JJ5 JGC5JJ5 JGC5JJ5 JGC5JJ5 JGC5JJ5 JGC5JJ5 JGC5JJ5 JGC5JJ5 JGC5JJ5 JGC5JJ5 JGC5JJ5 JGC5JJ5 JGC5JJ5 JGC5JJ5 JGC5JJ5 JGC5JJ5 JGCJJ5 JGCJJ5 JGCJJ5 JGCJJ5 JGCJJ5 JGCJJ5 JGCJJ5 JGCJJ JGCJJ JGCJJ JGCJJ JGCJJ JGCJJ JGCJJ JGCJJ JGCJJ JGCJJ JGCJJ JGCJJ JGCJJ JGC4JJ JGC4JJ JGC4JJ JGC4JJ JGC4JJ JGC4JJ JGC4JJ JGC4JJ4 JGC4JJ4 JGC4JJ4 JGC4JJ4 JGC4JJ4 JGC4JJ4 JGC4JJ4 JGC4JJ4 JGC4JJ4 JGC4JJ4 JGC4JJ4 JGC4JJ4 JGC4JJ4 JGC4JLJ4 JGC4JLJ4 JGC4JLJ4 JGC4JLJ4 JGC4JLJ4 JGC4JLJL4 JGIC4JLJL4 JGIC4JLJL4 JGIC4JLJL4 JGIC4JLJL4 JGIC4JLJL4 JLGIC4LJL4 JLGIC4LJL4 JLGIC4LJL4 JLGIC4LL4 JLIC4LL4 JLIC4LL4 LIC4LL4 LIC4LL4 LIC4LL4 LIC4LL4 LIC4LL4 LIC4LL4 LIC4LL4 LIC4LL4 LIC4LL4 LIC4LL4 LIC4LL4 LI4LL4 LI4LL4 LI4LL4 LI4LL4 LI4LL4 LI4LL4 LI4LL4 LI4LL4 LI4LL4 LI4LL4 LI4LL4 LI4LL4 LI4LL4 LI4LL4 LI4LL4 LI4LL4 LI4LL4 LI4LL4 LI4LL4 LI4LL4 LI4LL4 LI4LL4 LI4LL4 LI4LL4 LI4LL4 LI4LL4 LI4LL4 LILL4 LILL4 LILL4 LILL4 LILL4 LILL4 LILL4 LILL4 LILL4 LILL4 LILL4 LILL4 LILL4 LILL4 LILL4 LILL4 LILL4 LILL4 LILL4 LILL4 LILL4 LILL4 LILL4 LILL4 LILL4 LILL4 LILL4 LILL4 LILL4 LILL LILL LILL LILL LILL LILL LILL LILL LILL LILL LILL LILL LILL LILL LILL LILL LIL LIL LIL LIL LIL LIL LIL LIL LIL LIL LIL LIL LIL LIL LIL IL IL IL IL IL IL IL IL IL2 22 22 22 22 M22 M22 MJ2M2 MJ2M2 MJ2M2 MJ2M2 MJE2M2 MJE2M2 MJE2M2 MJE2M2 MJE2M2 MJE2M2 MJE2M2 MJE2M2 MJE2MM2 MJE2MM2 MJE2MM2 MJE2MM2 MJE2MM2 MJE2MM2 MJE2MM2 MJE2MM2 MJE2MM2 MJE2MM2 MJE2MM2 MJE2MM2 MJE2MM2 MJE2MM2 MJE2MM2 MJE2MM2 MJE2MM2 MJE2MM2 MJE2MM2 MJE2MM2 MJE2MM2 MJE2MM2 MJE2MM2 MJE2MM2 MJE2MM2 MJE2MM2 MJE2MM2 MJE2MM2 MJE2MM2 MJE2MM2 MJE2MM2 MJE2MM2 MJE2MM2 MJE2MM2 MJE2MM2 MJE2MM2 MJE2MM2 MJE2MM2 MJE2MM2 MJE2MM2 MJE2MM2 MJE2MM2 MJE2MM2 MJE2MM2 MJE2MM2 MJE2MM2 MJE2MM2 MJE2MM2 MJE2MM2 MJE2MM2 MJE2MM2 MJE2MM2 MJE2MM2 MJE2MM2 MJE2MM2 MJE2MM2 MJE2MM2 MJE2MM2 MJE2MM2 MJE2MM2 MJE2MM2 MJE2MM2 MJE2MM2 MJE2MM2 MJE2MM2 MJE2MM2 MJE2MM2 MJE2MM2 MJE2MM2 MJE2MM2 MJE2MM2 MJE2MM2 MJE2MM2 MJE2MM2 MJE2MM2 MJE2MM2 MJE2MM2 MJE2MM2 MJE2MM2 MJE2MM2 MJE2MM2 MJE2MM2 MJE2MM2 MJE2MM2 MJE2MM2 MJE2MM2 MJE2MM2 MJE2MM2 MJE2MM2 MJE2MM2 MJE2MM2 MJE2MM2 MJE2MM2 MJE2MM2 MJE2MM2 MJE2MM2 MJE2MM2 MJE2MM2 MJE2MM2 MJE2MM2 MJE2MM2 MJE2MM2 MJE2MM2 MJE2MM2 MJE2MM2 MJE2MM2 MJE2MM2 MJE2MM2 MJE2MM2 MJE2MM2 MJE2MM2 MJE2MM2 MJE2MM2 MJE2MM2 MJE2MM2 MJE2MM2 MJE2MM2 MJE2MM2 MJE2MM2 MJE2MM2 MJE2MM2 MJE2MM2 MJE2MM2 MJE2MM2 MJE2MM2 MJE2MM2 MJE2MM2 MJE2MM2 MJE2MM2 MJE2MM2 MJE2MM2 MJE2MM2 MJE2MM2 MJE2MM2 MJE2MM2 MJE2MM2 MJE2MM2 MJE2MM2 MJE2MM2 MJE2MM2 MJE2MM2 MJE2MM2 MJE2MM2 MJE2MM2 MJE2MM2 MJE2MM2 MJE2MM2 MJE2MM2 MJE2MM2 MJE2MM2 MJE2MM2 MJE2MM2 MJE2MM2 MJE2MM2 MJE2MM2 MJE2MM2 MJE2MM2 MJE2MM2 MJE2MM2 MJE2MM2 MJE2MM2 MJE2MM2 MJE2MM2 MJE2MM2 MJE2MM2 MJE2MM2 MJE2MM2 MJE2MM2 ME2MM2 ME2MM2 ME2M2 ME2M2 ME2M2 ME2M2 ME2M2 ME2M2 ME2M2 ME2M2 ME2M2 ME2M2 ME2M2 E2M2 E2M2 E2M2 E2M2 E2M2 E2M2 E2M2 E2M2 E2M2 E2M2 E2M2 E2M2 E22 E22 E22 E22 E22 E22 E22 E22 E22 E22 E22 E22 E22 E22 22 22 22 22 22 22 22 22 22 22 22 22 22 22 22 22 22 22 22 22 22 22 22 22 22 22 22 22 22 22 22 22 22 22 22 22 22 22 22 22 22 22 22 22 22 22 22 22 22 22 22 22 22 22 22 22 22 22 22 22 22 22 22 22 22 22 22 22 22 22 22 22 22 22 22 22 22 22 22 22 22 22 22 22 22 22 22 22 22 22 22 22 22 22 22 22 22 22 22 22 22 22 22 22 22 22 22 22 22 22 22 22 22 22 22 22 22 22 22 22 22 22 22 22 22 O22 O22 O22 O22 O22 O22 O2O2 O2O2 O2O2 O2O2 O2O2 O2OO2 O2OO2 O2OO2 O2OO2 OF2OO2 OF2OO2 OF2OO2 OF2OO2 OF2OO2 OF2OO2 OF2OO2 OF2OO2 OF2OO2 OF2OO2 OF2OO2 OF2OO2 OF2OO2 OF2OO2 OF2OO2 OF2OO2 OF2OO2 OF2OO2 OF2OO2 OF2OO2 OF2OO2 OF2OO2 OF2OO2 OF2OO2 OF2OO2 OF2OO2 OF2OO2 OF2OO2 OF2OO2 OF2OO2 OF2OO2 OF2OO2 OF2OO2 OF2OO2 OF2OO2 OF2OO2 OF2OO2 OF2OO2 OF2OO2 OF2OO2 OF2OO2 OF2OO2 OF2OO2 OF2OO2 OF2OO2 OF2OO2 OF2OO2 OF2OO2 OF2OO2 OF2OO2 OF2OO2 OF2O2 OF2O2 F2O2 F2O2 2O2 2O2 2O2 22 22 22 22 22 22 22 22 22 22 22 22 22 22 22 22 22 22 22 22 22 22 22 22 22 22 22 22 22 22 22 22 22 22 22 22 22 22 22 22 22 22 22 22 22 22 22 22 22 22 22 22 22 22 22 22 22 M22 M22 M22 M22 M22 M2M2 M2M2 ME2M2 ME2M2 ME2M2 ME2M2 ME2M2 ME2MM2 MFE2MM2 MFE2MM2 MFE2MM2 MFE2MM2 MFE2MM2 MFE2MM2 MFE2MM2 MFE2MM2 MFE2MM2 MFE2MM2 MFE2MM2 MFE2MM2 MFE2MM2 MFE2MM2 MFE2MM2 MFE2MM2 MFE2MM2 MFE2MM2 MFEMM2 MFEMM2 MFEMM2 MFEMM2 MFEMM2 MFEMM MFEMM MFEMM MFEMM MFEMM MFEMM MFEMM MFEMM MFEMM MFEMM MLFEMM MLFEMM MLFEMM MLFEMM MLFEMM MLFEMM MLFEMM MLFEMLM MLFEMLM MLFEMLM LFEMLM LFEMLM LFELM LFELM LFELM LFELM LFELM LFELM LFECLM LFECLML LFECLML LFCLML LFCLML LFCLML LFCLML LFCLML LFCLML LFCLML LFCLML LFCLML LFCLML LFCLML LFCLL LFCLL LFCLL LFCLL LFCLL LFCLL LFCLL LFCLL LFCLL LFCLL LFCLL LFCLL LFCLL LFCLL LFCLL LFCLL LFCLL LMFCELL LMFCELL LMFCELL LMFCELL LMFCELL LMFCELL LMFCELL LMFCELL LMFCELL1 LMFCELL1 LMFCELL1 LMFCE1LL1 LMFCE1LL1 LMFCE1LL1 LMFCE1LL1 LMFCE1LLM1 MFCE1LMLM1 MFCE1LMLM1 MFE1LMLM1 MFE1LMLM1 MFE1LMLM1 MFE1LMLM1 MFE1LMLM1 MFE1LMLM1 MFE1LMLM1 MFE1MLM1 MFE1MLM1 MFE1MLM1 MFE1MLM1 MFE1MLM1 MFE1MLM1 MFE1MM1 MFE1MM1 MFE1MM1 MFE1MM1 MFE1MM1 MFE1MM1 MFE1MM1 MFE1MM1 MFE1MM1 MFE1MM1 MFE1MM1 MFE1MM1 MFE1MM1 MFE1MM1 MFE1MM1 MFE1MM1 MFE1MM1 MFE1MM1 MFE1MM1 MFE1MM1 MFE1MM1 MFE1MM1 MFE1MM1 MFE1MM1 MFE1MM1 MFE1MM1 MFE1MM1 MLFE1MM1 MLFE1MM1 MLFE1MM1 MLFE1MM1 MLFE1MM1 MLFE1MM1 MLFE1MM1 MLFE1MM1 MLFE1MM1 MLFEC1MM1 MLFEC1MM1 MLFEC1MLM1 MLFEC1MLM1 MLFEC1MLM1 MLFEC1MLM1 MLFEC1MLM1 MLFEC1MLM1 LFC1MLM1 LFC1MLML1 LFC1MLML1 LFC1MLML1 LFC1MLML1 LFC1MLML1 LFC1MLML1 LFC1MLML1 LFC1MLML1 LFC1MLML1 LFC1MLML1 LFC1MLML1 LFC1MLML1 LFC1MLML1 LFC1LL1 LFC1LL1 LFC1LL1 LFC1LL1 LFC1LL1 LFC1LL1 LFC1LL1 LFC1LL1 LFC1LL1 LFC1LL1 LFC1LL1 LFCLL1 LFCLL1 LFCLL1 LFCLL1 LFCLL1 LFCLL1 LCLL LCLL LCLL LCLL LCLL LCLL LCLL LCLL LCLL LCLL LCLL LCLL LCLL LCLL LCLL LCLL LCLL2 LCLL2 LCLL2 LCLL2 LCLL2 LCLL2 LCLL2 LC2LL2 LC2LL2 LC2LL2 LC2LL2 LC2LL2 LC2LL2 C2LL2 C2LL2 C2LL2 C2LL2 C2LL2 C2L2 C2L2 C2L2 C2L2 C22 C22 C22 C22 C22 C22 C22 C22 C22 C22 C22 C22 C22 C22 C22 C22 C22 C22 C22 C22 C22 C22 C22 C22 C22 C22 C22 C22 C22 C22 C22 C22 C22 C22 C22 C22 C22 C22 C22 C22 C22 C22 C22 C22 C22 22 22 22 22 22 22 22 22 22 22 22 22 22 22 22 22 22 22 22 22 22 22 22 22 22 22 22 22 22 22 22 22 22 22 22 22 22 22 22 22 22 22 22 22 22 22 2 2              4 44 44 44 44 J44 J44 J44 J44 J44 J44 J44 J44 J44 J44 J44 J44 J4J4 J4J4 J4J4 J4J4 J4J4 J4J4 J4J4 J4J4 J4J4 J4J4 J4JJ4 J4JJ4 J4JJ4 J4JJ4 J4JJ4 J4JJ4 J4JJ4 J4JJ4 J4JJ4 J4JJ4 J4JJ4 J4JJ4 J4JJ4 J4JJ4 J4JJ4 J4JJ4 J4JJ4 J4JJ4 J4JJ4 J4JJ4 J4JJ4 J4JJ4 J4JJ4 J4JJ4 J4JJ4 J4JJ4 J4JJ4 J4JJ4 J4JJ4 J4JJ4 J4JJ4 J4JJ4 J4JJ4 J4JJ4 J4JJ4 J4JJ4 J4JJ4 J4JJ4 J4JJ4 J4JJ4 J4JJ4 J4JJ4 J4JJ4 J4JJ4 J4JJ4 J4JJ4 J4JJ4 J4JJ4 J4JJ4 J4JJ4 J4JJ4 J4JJ4 J4JJ4 J4JJ4 J4JJ4 J4JJ4 J4JJ4 J4JJ4 J4JJ4 J4JJ4 J4JJ4 J4JJ4 4JJ4 JJ4 JJ4 JJ4 JJ JJ JJ JJ JJ JJ JJ JJ JJ JJ JJ JJ J J J J J J                         Q5 Q5 Q5 Q55 Q55 Q55 Q55 QJ55 QJ55 QJ55 QJ55 QEJ55 QEJ55 QEJ55 QEJ55 QEJ55 QEJ55 QEJ5Q5 QEJ5Q5 QEJ5Q5 QEJ5Q5 QEJ5Q5 QEJ5Q5 QEJ5Q5 QEJ5Q5 QEJ5QQ5 QEJ5QQ5 QEJ5QQ5 QEJ5QQ5 QEJ5QQ5 QEJ5QQ5 QEJ5QQ5 QEJ5QQ5 QEJ5QQ5 QEJ5QQ5 QEJ5QQ5 QEJ5QQ5 QEJ5QQ5 QEJ5QQ5 QEJ5QQ5 QEJ5QQ5 QEJ5QQ5 QEJ5QQ5 QEJ5QQ5 QEJ5QQ5 QEJ5QQ5 QEJ5QQ5 QEJ5QQ5 QEJ5QQ5 QEJ5QQ5 QEJ5QQ5 QEJ5QQ5 QEJ5QQ5 QEJ5QQ5 QEJ5QQ5 QEJ5QQ5 QEJ5QQ5 QEJ5QQ5 QEJ5QQ5 QEJ5QQ5 QEJ5QQ5 QEJ5QQ5 QEJ5QQ5 QEJ5QQ5 QEJ5QQ5 QEJ5QQ5 QEJ5QQ5 QEJ5QQ5 QEJ5QQ5 QEJ5QQ5 QEJ5QQ5 QEJ5QQ5 QEJ5QQ5 QEJ5QQ5 QEJ5QQ5 QEJ5QQ5 QEJ5QQ5 QEJ5QQ5 QEJ5QQ5 QEJ5QQ5 QEJ5QQ5 QEJ5QQ5 QEJ5QQ5 QEJ5QQ5 QEJ5QQ5 QEJ5QQ5 QEJ5QQ5 QEJ5QQ5 QEJ5QQ5 QEJ5QQ5 QEJ5QQ5 QEJ5QQ5 QEJ5QQ5 QEJ5QQ5 QEJ5QQ5 QEJ5QQ5 QEJ5QQ5 QEJ5QQ5 QEJ5QQ5 QEJ5QQ5 QEJ5QQ5 QEJ5QQ5 QEJ5QQ5 QEJ5QQ5 QEJ5QQ5 QEJ5QQ5 QEJ5QQ5 QEJ5QQ5 QEJ5QQ5 QEJ5QQ5 QEJ5QQ5 QEJ57QQ57 QEJ57QQ57 QEJ57QQ7 QEJ57QQ7 QEJ7QQ7 QEJ7QQ7 QEJ7QQ7 QEJ7QQ7 QEJ7QQ7 QEJ7QQ7 QEJ7QQ7 QEJ7QQ7 QEJ7QQ7 QEJ7QQ7 QEJ7QQ7 QEJ7QQ7 QEJ7QQ7 QEJ7QQ7 QEJ7QQ7 QEJ7QQ7 QEJ7QQ7 QEJ7QQ7 QEJ7QQ7 QEJ7QQ7 QEJ7QQ7 QEJ7QQ7 QEJ7QQ7 QEJ7QQ7 QEJ7QQ7 QEJ7QQ7 QEJ7QQ7 QEJ7QQ7 QEJ7QQ7 QEJ7QQ7 QEJ7QQ7 QEJ7QQ7 QEJ7QQ7 QEJ7QQ7 QEJ7QQ7 QEJ7QQ7 QEJ7QQ7 QEJ7QQ7 QEJ7QQ7 QEJ7QQ7 QEJ7QQ7 QEJ7QQ7 QEJ7QQ7 QEJ7QQ7 QEJ7QQ7 QEJ7QQ7 QEJ7QQ7 QEJ7QQ7 QEJ7QQ7 QEJ7QQ7 QEJ7QQ7 QEJ7QQ7 QEJ7QQ7 QEJ7QQ7 QEJ7QQ7 QEJ7QQ7 QEJ7QQ7 QEJ7QQ7 QEJ7QQ7 QEJ7QQ7 QEJ7QQ7 QEJ7QQ7 QEJ7QQ7 QEJ7QQ7 QEJ7QQ7 QEJ7QQ7 QEJ7QQ7 QJ7QQ7 QJ7QQ7 QJ7QQ7 QJ7QQ7 QJ7QQ7 QJ7QQ7 QJ7QQ7 QJ7QQ7 QJ7QQ7 QJ7QQ7 QJ7QQ7 QJ7QQ7 QJ7QQ7 QJ7QQ7 QJ7QQ7 QJ7QQ7 QJ7QQ7 QJ7QQ7 Q7QQ7 Q7QQ7 Q7QQ7 Q7QQ7 Q7QQ7 Q7QQ7 Q7QQ7 Q7QQ7 Q7QQ7 Q7QQ7 Q7QQ7 Q7QQ7 Q7QQ7 Q7QQ7 Q7QQ7 Q7QQ7 Q7QQ7 Q7QQ7 Q7QQ7 Q7QQ7 Q7QQ7 Q7QQ7 Q7QQ7 QQQ7 QQQ7 QQQ7 QQQ7 QQQ7 QQQ7 QQQ7 QQQ7 QQQ7 QQQ7 Q5QQ75 Q5QQ75 Q5QQ75 Q5QQ75 Q5QQ75 Q5QQ75 QJ5QQ75 QJ5QQ75 QJ5QQ75 QJ5QQ75 QJ5QQ75 QJ5QQ75 QJ5QQ75 QJ5QQ75 QJ5QQ75 QJ5QQ75 QJ5QQ75 QJE5QQ75 QJE5QQ75 QJE5QQ75 QJE5QQ75 QJE5QQ75 QJE5QQ75 QJE5QQ75 QJE5QQ75 QJE5QQ75 QJE5QQ75 QJE5QQ5 QJE5QQ5 QJE5QQ5 QJE5QQ5 QJE5QQ5 QJE5QQ5 QJE5QQ5 QJE5QQ5 QJE5QQ5 QJE5QQ5 QJE5QQ5 QJE5QQ5 QJE5QQ5 QJE5QQ5 QJE5QQ5 QJE5QQ5 QJE5QQ5 QJE5QQ5 QJE5QQ5 QJE5QQ5 QJE5QQ5 QJE5QQ5 QJE5QQ5 QJE5QQ5 QJE5QQ5 QJE5QQ5 QJE5QQ5 QJE5QQ5 QJE5QQ5 QJE5QQ5 QJE5QQ5 QJE5QQ5 QJE5QQ5 QJE5QQ5 QJE5QQ5 QJE5QQ5 QJE5QQ5 QJE5QQ5 QJE5QQ5 QJE5QQ5 QJE5QQ5 QJE5QQ5 QJE5QQ5 QJE5QQ5 QJE5QQ5 QJE5QQ5 QJE5QQ5 QJE5QQ5 QJE5QQ5 QJE5QQ5 QJE5QQ5 QJE5QQ5 QJE5QQ5 QJE5QQ5 QJE5QQ5 QJE5QQ5 QJE5QQ5 QJE5QQ5 QJE5QQ5 QJE5QQ5 QJE5QQ5 QJE5QQ5 QJE5QQ5 QJE5QQ5 QJE5QQ5 QJE5QQ5 QJE5QQ5 QJE5QQ5 QJE5QQ5 QJE5QQ5 QJ5QQ5 QJ5QQ5 QJQQ5 QJQQ5 QJQQ5 QJQQ5 QJQQ5 QCQQ5 QCQQ5 QCQQ5 QCQQ5 QC4QQ5 QC4QQ5 QC4QQ5 QC4QQ QC4QQ QC4QQ QC4QQ QC4QQ4 QC4QQ4 QC4QQ4 QC4QQ4 QC4QQ4 QIC4QQ4 QIC4QQ4 QIC4QQ4 QIC4QQ4 QIC4QQ4 QIC4QQ4 QIC4QQ4 QIC4QQ4 QIC4QQ4 QIC4QQ4 QIC4QQ4 QIC4QQ4 QIC4QQ4 QIC4QQ4 QIC4QQ4 QIC4QQ4 QIC4QQ4 QIC4QQ4 QIC4QQ4 QIC4QQ4 QIC4QQ4 QIC4QQ4 QIC4QQ4 QIC4QQ4 QIC4QQ4 QIC4QQ4 QIC4QQ4 QIC4QQ4 QIC4QQ4 QIC4QQ4 QIC4QQ4 QIC4QQ4 QIC4QQ4 QIC4QQ4 QIC4QQ4 QIC4QQ4 QIC4QQ4 QIC4QQ4 QIC4QQ4 QIC4QQ4 QIC4QQ4 QIC4QQ4 QIC4QQ4 QIC4QQ4 QIC4QQ4 QIC4QQ4 QIC4QQ4 QIC4QQ4 QIC4QQ4 QIC4QQ4 QIC4QQ4 QIC4QQ4 QIC4QQ4 QIC4QQ4 QIC4QQ4 QIC4QQ4 QIC4QQ4 QIC4QQ4 QIC4QQ4 QIC4QQ4 QIC4QQ4 QIC4QQ4 QIC4QQ4 QIC4QQ4 QIC4QQ4 QIC4QQ4 QIC4QQ4 QIC4QQ4 QIC4QQ4 QIC4QQ4 QIC4QQ4 QIC4QQ4 QIC4QQ4 QC4QQ4 QC4QQ4 QC4QQ4 QC4QQ4 QC4QQ4 QC4QQ4 QC4QQ4 QC4QQ4 QC4QQ4 QC4QQ4 QC4QQ4 QCQQ4 QCQQ4 QCQQ4 QCQQ4 QCQQ4 QCQQ4 QCQQ4 QCQQ4 QCQQ4 QCQQ4 QQQ4 QQQ4 QQQ4 QQQ4 QQQ4 QQQ4 QQQ4 QQQ4 QQQ4 QQQ4 QQQ4 QQQ4 QJQQ4 QJQQ4 QJQQ4 QJQQ4 QJQQ QJQQ QJQQ QJQQ QJQQ QJQQ QJQQ QJQQ QJQQ QJQQ QJQQ QJAQQ QJAQQ QJA2QQ QJA2QQ QJA2QQ2 QJA2QQ2 QJA2QQ2 QJA2QQ2 QJA2QQ2 QJA2QQ2 QJA2QQ2 QJA2QQ2 QJA2QQ2 QJA2QQ2 QJA2QQ2 QJA2QQ2 QJA2QQ2 QJA2QQ2 QJA2QQ2 QJA2QQ2 QJA2QQ2 QJA2QQ2 QJA2QQ2 QJA2QQ2 QJA2QQ2 QJA2QQ2 QJA2QQ2 QJA2QQ2 QJA2QQ2 QJA2QQ2 QJA2QQ2 QJA2QQ2 QJA2QQ2 QJA2QQ2 QJA2QQ2 QJA2QQ2 QJA2QQ2 QJA2QQ2 QJA2QQ2 QJA2QQ2 QJA2QQ2 QJA2QQ2 QJA2QQ2 QJA2QQ2 QJA2QQ2 QJA2QQ2 QJA2QQ2 QJA2QQ2 QJA2QQ2 QJA2QQ2 QJA2QQ2 QJA2QQ2 QJA2QQ2 QJA2QQ2 QJA2QQ2 QJA2QQ2 QJA2QQ2 QJA2QQ2 QJA2QQ2 QJA2QQ2 QJA2QQ2 QJA2QQ2 QJA2QQ2 QJA2QQ2 QJA2QQ2 QJA2QQ2 QJA2QQ2 QJA2QQ2 QJA2QQ2 QJA2QQ2 QJA2QQ2 QJA2QQ2 QJA2QQ2 QJA2QQ2 QJA2QQ2 QJA2QQ2 QJA2QQ2 QJA2QQ2 QJA2QQ2 QJA2QQ2 QJA2QQ2 QJA2QQ2 QJA2QQ2 QJA2QQ2 QJA2QQ2 QJA2QQ2 QJA2QQ2 QJA2QQ2 QJA2QQ2 QJA2QQ2 QJA2QQ2 QJA2QQ2 QJA2QQ2 QJA2QQ2 QJA2QQ2 QJA2QQ2 QJA2QQ2 QJA2QQ2 QJA2QQ2 QJA2QQ2 QJA2QQ2 QJA2QQ2 QJA2QQ2 QJA2QQ2 QJA2QQ2 QJA2QQ2 QJA2QQ2 QJA2QQ2 QJA2QQ2 QJA2QQ2 QJA2QQ2 QJ2QQ2 QJ2QQ2 QJ2QQ2 QJ2QQ2 QJ2QQ2 QJ2QQ2 QJ2QQ2 QJ2QQ2 QJ2QQ2 QJ2Q2 QJ2Q2 QJ2Q2 QJ2Q2 QJ2Q2 QJ2Q2 QJ2Q2 QJ2Q2 QJ2Q2 QJ22 QJ22 QJ22 QJ22 QJ22 QJ2 QJ2 QJ2 QJ2 QJ QJ J J J J J J J J J J J J J J J J J J J J J J J J J J J J J J J J J J J J J J J J J J J J J J J J J J J J J J J J J J J J J J J J J J J J J J J J J J J J J J J J J J J J J J J J J J J J J JE JE JE JE JE JE JE JE JE JE JE JE< JE< JE< JE< JE<< JE<< JE<< JE<< JE<< JE<O< JE<O< JE<O< JE<O< JE<O< JE<OO< OJE<OO< OJE<OO< OJE<OO< OJE<OO< OJE<OO< OJE<OO< OJE<OO< OJE<OO< OJE<OO< OJE<OO< OJE<OO< OJE<OO< OJE<OO< OJE<OO< OJE<OO< OJE<OO< OJE<OO< OJE<OO< OJE<OO< OJE<OO< OJE<OO< OJE<OO< OJE<OO< OJE<OO< OJE<OO< OJE<OO< OJE<OO< OJE<OO< OJE<OO< OJE<OO< OJE<OO< OJE<OO< OJE<OO< OJE<OO< OJE<OO< OJE<OO< OJE<OO< OJE<OO< OJE<OO< OJE<OO< OJE<OO< OJE<OO< OJE<OO< OJE<OO< OJE<OO< OJ<OO< OJ<OO< OJ<OO< OJ<OO< OJ<OO< OJ<OO< OJ<OO< OJ<OO< OJ<OO< OJ<OO< OJ<OO< OJ<OO< OJ<OO< OJ<OO< OJ<OO< OJ<OO< OJ<OO< OJ<OO< OJ<OO< OJ<OO< OJ<OO< OJ<OO< OJ<OO< OJ<OO< OJ<OO< OJ<OO< OJ<OO< OJ<OO< OJ<OO< OJ<O< OJO< OJO< OJO< OJO< OJO< OJO< OJO< OJO< OJO< OJO OJO OJO OJOM OJOM OJOM OJOM OJOM OJOM OJOM OJOM OJOM OJOM OJOM JOM JOM JOM MJOM MJOM MJOM MJOM MJOM MJOM MJOMM MJMM MJMM MJMM MJMM MJMM MJMM MJMM MJMM MJMM MJMM MJMM MJMM MJMM MJMM MJMM MJMM MJMM MJMM MJMM MJMM MJMM MJMM MJMM MJMM MJMM MJMM MJMM MJMM MJMM MJMM MJMM MJMM MJMM MJMM MJMM MJMM MJMM MJMM MJMM MJMM MJMM MJMM MJMM MJMM MJMM MJMM MJMM MJMM MJMM MJMM MJMM MJMM MJMM MJMM MJMM MJMM MJMM MJMM MJMM MJMM MJMM MJMM MJMM MJMM MJMM MJMM MJMM MJMM MJMM MJMM MJMM MJMM MJMM MJMM MJMM MJMM MJM MJM MJM MJM MJM MJM JM JM JM JM J J J J J J J J J J J J J J J J J J J J J J J J> J> J> J> J>O J>O J>O J>O J>O J>O J>O OJ>O OJ>O OJ>O: OJ>O: OJ>O: OJ>:O: OJ>:O: OJ>:O: OJ>:O: OJ>:O: OJ>:O: OJ>:O: OJ>:O: OJ>:O: OJ>:O: OJ>:O: OJ>:O: OJ>:O: OJ>:OO: OJ>:OO: OJ>:OO: OJ>:OO: OJ>:OO: OJ>:OO: OJ>:OO: OJ>:OO: OJ>:OO: OJ>:OO: OJ>:OO: OJ>:OO: OJ>:OO: OJ>:OO: OJ>:OO: OJ>:OO: OJ>:OO: OJ>:OO: OJ>:OO: OJ>:OO: OJ>:OO: OJ>:OO: OJ>:OO: OJ>:OO: OJ>:OO: OJ>:OO: OJ>:OO: OJ>:OO: OJ>:OO: OJ>:OO: OJ>:OO: OJ>:OO: OJ>:OO: OJ>:OO: OJ>:OO: OJ>:OO: OJ>:OO: OJ>:OO: OJ>:OO: OJ>:OO: OJ>:OO: OJ>:OO: OJ>:OO: OJ>:OO: OJ>:OO: OJ>:OO: OJ>:OO: OJ>:OO: OJ>:OO: OJ>:OO: OJ>:OO: OJ:OO: OJ:OO: OJ:OO: OJ:OO: OJ:OO: OJ:OO: OJ:OO: OJ:OO: OJ:OO: OJ:OO: OJ:OO: OJ:OO: OJ:OO: OJ:OO: OJ:OO: OJ:OO: OJ:OO: OJ:OO: OJ:OO: OJ:OO: OJ:OO: OJ:OO: OJ:OO: OJ:OO: OJ:OO: OJ:OO: OJ:OO: OJ:OO: OJ:OO: OJ:OO: OJ:OO: OJ:OO: OJ:OO: OJ:OO: OJ:OO: OJ:OO: OJ:OO: OJ:OO: OJ:OO: OJ:OO: OJOO: OJOO: OJOO: OJOO: OJOO: OJOO: OJOO: OJOO: OJOO: OJOO: OJOO: OJOO: OJOO: OJOO OJOO OJOO OJOO OJOO OJOO OJOO OJOO OJOO OJOO OJOO OJOO OJOO OJOO OJOO OJOO OJOO OJOO OJOO OJOO OJOO OJOO OJOO OJOO OJOO OJOO OJOO OJOO OJOO OJOO OJOO OJOO OJOO OJOO OJOO OJOO OJOO OJOO OJOO OJOO OJOO OJOO OJOO OJOO OJOO OJOO OJOO OJOO OJOO OJOO OJOO OJOO OJOO OJOO OJOO OJOO OJOO OJOO OJOO OJOO OJOO OJOO OJOO OJOO OJOO OJOO OJO OJO OJO OJO OJO OJO OJO OJO OJO OJO OJO OJO OJO OJO OJO OJO OJO OJO OJO OJO OJO OJO OJO OJO OJO OJO OJO OJO OJO OJO OJO OJO OJO OJO OJO OJO OJO OJO OJO OJO OJO OJ OJ OJ OJ OJ OJ OJ OJ OJ OJ OJB OJB OJB OJB9 OJB9 OJB9 OJB9 OJB9 OJB9 OJB9 OJB9 OJB9 OJB9 OJB9 OJB99 OJB99 JB99 JB99 JB99 JB99 JB99 JB99 JB99 JB99 JB99 JB99 JB99 JB99 JB99 JB99 JB99 JB99 JB99 JB99 JB99 JB99 JB99 JB99 JB99 JB99 JB99 JB99 JB99 JB99 JB99 JB99 JB99 JB99 JB99 JB99 JB99 JB99 JB99 JB99 JB99 JB99 JB99 JB99 JB99 JB99 JB99 JB99 JB99 JB99 JB99 JB99 JB99 JB99 JB99 JB99 JB99 JB99 JB99 JB99 JB99 JB99 JB99 JB99 JB99 JB99 JB99 JB99 J99 J99 J99 J99 J99 J99 J99 J99 J99 J99 J99 J9 J9 J9 J9 J9 J9 J9 J J J J J J J J J J JQ JQ JQ JQ JQ QJQ QJQ QJQ QJQ QJQ QJQ QJQ QJQ QJQ QJQ QJQ QJQ QJQ QJQ QJQQ QJQQ QJQQ QJQQ QJQQ QJQQ QJQQ QJQQ QJQQ QJQQ QJQQ QJQQ QJQQ QJQQ QJQQ QJQQ QJQQ QJQQ QJQQ QJQQ QJQQ QJQQ QJQQ QJQQ QJQQ QJQQ QJQQ QJQ QJQ QJQ QJQ QJQ QJQ QJQ QJQ QJQ QJQ QJQ QJQ QJQ QJQ QJQ QJQ QJQ QJQ QJQ JQ JQ JQ JQ J J J J J J J J J J J J J J J J J J J J J J J J J J J J J J J J J J J J J J J J J J J J J J J J J J J J J J J J J J J J J J J J J J JR J7R J7R J7R J7R J7R J7R RJ7R7 RJ7R7 RJ7R7 RJ7R7 RJ7R7 RJ7R7 RJ7R7 RJC7RR7 RJC7RR7 RJC7RR7 RJC7RR7 RJC7RR7 RJC7RR7 RJC7RR7 RJC7RR7 RJC7RR7 RJC7RR7 RJC7RR7 RJC7RR7 RJC7RR7 RJC7RR7 RJC7RR7 RJC7RR7 RJC7RR7 RJC7RR7 RJC7RR7 RJC7RR7 RJC7RR7 RJC7RR7 RJC7RR7 RJC7RR7 RJC7RR7 RJC7RR7 RJC7RR7 RJC7RR7 RJC7RR7 RJC7RR7 RJC7RR7 RJC7RR7 RJC7RR7 RJC7RR7 RJC7RR7 RJC7RR7 RJC7RR7 RJC7RR7 RJC7RR7 RJC7RR7 RJC7RR7 RJC7RR7 RJC7RR7 RJC7RR7 RJC7RR7 RJC7RR7 RJC7RR7 RJC7RR7 RJC7RR7 RJC7RR7 RJC7RR7 RJC7RR7 RJC7RR7 RJC7RR7 RJC7RR7 RJC7RR7 RJC7RR7 RJC7RR7 RJC7RR7 RJC7RR7 RJC7RR7 RJC7RR7 RJC7RR7 RJC7RR7 RJC7RR7 RJC7RR7 RJC7RR7 RJC7RR7 RJC7RR7 RJC7RR7 RJC7RR7 RJC7RR7 RJC7RR7 RJC7RR7 RJC7RR7 RJC7RR7 RJC7RR7 RJC7RR7 RJC7RR7 RJC7RR7 RJC7RR7 RJC7RR7 RJC7RR7 RJC7RR7 RJC7RR7 RJC7RR7 RJC7RR7 RJC7RR7 RJC7RR7 RJC7RR7 RJC7RR7 RJC7RR7 RJC7RR7 RJC7RR7 RJC7RR7 RJC7RR7 RJC7RR7 RJC7RR7 RJC75RR7 RJC75RR7 RJC75RR7 RJC75RR7 RJC75RR7 RJC75RR7 RJC75RR7 RJC75RR7 RJC5RR7 RJC5RR75 RJC5RR75 RJC5RR75 RJC5RR75 RJC5RR5 RJC5RR5 RJC5RR5 RJC5RR5 RJC5RR5 RJC5RR5 RJC5RR5 RJC5RR5 RJC5RR5 RJC5RR5 RJC5RR5 RJC5RR5 RJC5RR5 RJC5RR5 RJC5RR5 RJC5RR5 RJC5RR5 RJC5RR5 RJC5RR5 RJC5RR5 RJC5RR5 RJC5RR5 RJC5RR5 RJC5RR5 RJC5RR5 RJC5RR5 RJC5RR5 RJC5RR5 RJC5RR5 RJC5RR5 RJC5RR5 RJC5RR5 RJC5RR5 RJC5RR5 RJC5RR5 RJC5RR5 RJC5RR5 RJC5RR5 RJC5RR5 RJC5RR5 RJC5RR5 RJC5RR5 RJC5RR5 RJC5RR5 RJC5RR5 RJC5RR5 RJC5RR5 RJC5RR5 RJC5RR5 RJC5RR5 RJC5RR5 RJC5RR5 RJC5RR5 RJC5RR5 RJC5RR5 RJC5RR5 RJC5RR5 RJC5RR5 RJC5RR5 RJC5RR5 RJC5RR5 RJC5RR5 RJC5RR5 RJC5RR5 RJC5RR5 RJC5RR5 RJC5RR5 RJC5RR5 RJC5RR5 RJC5RR5 RJC5RR5 RJC5RR5 RJC5RR5 RJC5RR5 RJC5RR5 RJC5RR5 RJC5RR5 RJC5RR5 RJC5RR5 RJC5RR5 RJC5RR5 RJC5RR5 RJC5RR5 RJC5RR5 RJC5RR5 RJC5RR5 RJC5RR5 RJC5RR5 RJC5RR5 RJCRR5 RJCRR5 RJCRR5 RJCRR5 RJCRR5 RJCRR5 RJCRR5 RJCRR5 RJCRR5 RJCRR5 RJCRR5 RJCRR5 RJCRR5 RJCRR5 RJCRR5 RJCRR5 RJCRR5 RJC7RR5 RJC7RR5 RJC7RR RJC7RR RJC7RR RJC7RR7 RJC7RR7 RJC7RR7 RJC7RR7 RJC7RR7 RJC7RR7 RJC7RR7 RJC7RR7 RJC7RR7 RJC7RR7 RJC7RR7 RJC7RR7 RJC7RR7 RJC7R7 RJC7R7 RJC7R7 RJC7R7 RJC7R7 RJC7R7 RJC7R7 RJC7R7 RJC7R7 RJC7R7 RJC7R7 RJC7R7 RJC7R7 RJC7R7 RJC7R7 RJC7R7 RJC77 RJC77 RJC77 RJC77 JC77 JC77 JC77 JC77 JC77 JC77 JC77 JC77 JC77 JC77 JC77 JC77 JC77 JC77 JC77 JC77 JC77 JC77 JC77 JC77 JC77 JC77 JC77 JC77 JC77 JC77 JC77 JC77 JC77 JC77 JC77 JC77 JC77 JC77 JC77 JC77 JC77 JC77 JC77 JC77 JC77 JC77 JC77 JC77 JC77 JC77 JC77 JC77 JC77 JC77 JC77 JC77 JC77 JC77 JC77 JC77 JC77 JC77 JC77 JC7 JC7 JC7 JC7 JC7 JC7 JC7 JC7 JC7 JC7 JC7 JC7 JC7 JC7 JC JC JCQ JCQ JCQ JCQQ JCQQ JCQQ JCQQ JC9QQ JC9QQ QJC9QQ9 QJC9QQ9 QJC9QQ9 QJC9QQ9 QJC9QQ9 QJC9QQ9 QJC9QQ9 QJC9QQ9 QJC9QQ9 QJC9QQ9 QJC9QQ9 QJC9QQ9 QJC9QQ9 QJC9QQ9 QJC9QQ9 QJC9QQ9 QJC9QQ9 QJC9QQ9 QJC9QQ9 QJC9QQ9 QJC9QQ9 QJC9QQ9 QJC9QQ9 QJC9QQ9 QJC9QQ9 QJC9QQ9 QJC9QQ9 QJC9QQ9 QJC9QQ9 QJC9QQ9 QJC9QQ9 QJC9QQ9 QJC9QQ9 QJC9QQ9 QJC9QQ9 QJC9QQ9 QJC9QQ9 QJC9QQ9 QJC9QQ9 QJC9QQ9 QJC9QQ9 QJC9QQ9 QJC9QQ9 QJC9QQ9 QJC9QQ9 QJC9QQ9 QJC9QQ9 QJC9QQ9 QJC9Q9 QJC9Q9 QJC9Q9 QJC9Q9 QJC99 JC99 JC99 JC99 JC99 JC99 JC99 JC99 JC99 JC99 JC99 JC99 JC99 JC99 JC99 JC99 JC99 JC99 JC99 JC99 JC99 JC99 JC99 JC99 JC99 JC99 JC99 JC99 JC99 JC99 JC99 JC99 JC99 JC99 JC99 JC99 JC99 JC99 JC99 JC99 JC99 JC99 JC99 JC99 JC99 JC99 JC99 JC99 JC99 JC99 JC99 JC99 JC99 JC99 JC99 JC99 JC99 JC99 JC99 JC99 JC99 JC99 JC99 JC9 JC9 JC9 JC9 JC JC JC JC JC JC JC JC JC JC JCO OJCO: OJC:O: OJC:OO: OJC:OO: OJC:OO: OJC:OO: OJC:OO: OJC:OO: OJC:OO: OJC:OO: OJC:OO: OJC:OO: OJC:OO: OJC:OO: OJC:OO: OJC:OO: OJC:OO: OJC:OO: OJC:OO: OJC:OO: OJC:OO: OJC:OO: OJC:OO: OJC:OO: OJC:OO: OJC:OO: OJC:OO: OJC:OO: OJC:OO: OJC:OO: OJC:OO: OJC:OO: OJ:OO: OJ:OO: OJ:OO: OJ:OO: OJ:OO: OJ:OO: OJ:OO: OJ:OO: OJ:OO: OJ:OO: OJ:OO: OJ:OO: OJ:OO: OJ:OO: OJ:OO: OJ:OO: OJ:OO: OJ:OO: OJ:OO: OJ:OO: OJ:OO: OJ:OO: OJ:OO: OJ:OO: OJ:OO: OJ:OO: OJ:OO: OJ:OO: OJ:OO: OJ:OO: OJ:OO: OJ:OO: OJ:OO: OJ:OO: OJ:OO: OJ:OO: OJ:OO: OJ:OO: OJ:OO: OJ:OO: OJ:OO: OJ:OO: OJ:OO: OJ:OO: OJ:OO: OJ:OO: OJ:OO: OJ:OO: OJ:OO: OJ:OO: OJ:OO: OJ:OO: OJ:OO: O:OO: O:OO: O:OO: O:OO: O:OO: O:OO: O:OO: O:OO: O:OO: O:OO: O:OO: O:OO: O:OO: O:OO: O:OO: O:OO: O:OO: O:OO: O:OO: O:OO: O:OO: O:OO: O:OO: O:OO: O:OO: O:OO: O:OO: O:OO: O:OO: O:OO: O:OO: O:OO O:OO O:OO O:OO O:OO O:OO O:OO O:OO OOO OOO OOO OOO OOO OOO OOO OOO OOO OOO OOO OOO OOO OOO OOO OOO OOO OOO OOO OOO OOO OOO OOO OOO OOO OOO OOO OOO OOO OOO OOO OOO OOO OOO OOO OOO OOO OOO OOO OOO OOO OOO OOO OOO OOO OOO OOO OOO OOO OOO OOO OOO OOO OOO OOO OOO OOO OOO OOO OOO OOO OOO OO                                           E E EM EM EM EM E1M E1M ME1M1 ME1M1 ME1M1 MEE1M1 MEE1M1 MEE1M1 MEE1M1 MEE1M1 MEE1MM1 MEE1MM1 MEE1MM1 MEE1MM1 MEE1MM1 MEE1MM1 MEE1MM1 MEE1MM1 MEE1MM1 MEE1MM1 MEE1MM1 MEE1MM1 MEE1MM1 MEE1MM1 MEE1MM1 MEE1MM1 MEE1MM1 MEE1MM1 MEE1MM1 MEE1MM1 MEE1MM1 MEE1MM1 MEE1MM1 MEE1MM1 MEE1MM1 MEE1MM1 MEE1MM1 MEE1MM1 MEE1MM1 MEE1MM1 MEE1MM1 MEE1MM1 MEE1MM1 MEE1MM1 MEE1MM1 MEE1MM1 MEE1MM1 MEE1MM1 MEE1MM1 MEE1MM1 MEE1MM1 MEE1MM1 MEE1MM1 MEE1MM1 MEE1MM1 MEE1MM1 MEE1MM1 MEE1MM1 MEE1MM1 MEE1MM1 MEE1MM1 MEE1MM1 MEE1MM1 MEE1MM1 MEE1MM1 MEE1MM1 MEE1MM1 MEE1MM1 MEE1MM1 MEE1M1 MEE1M1 MEE1M1 MEE1M1 MEE1M1 MEE1M1 MEE1M1 MEE1M1 MEE1M1 MEE1M1 MEE1M1 EE11 EE11 EE11 EE11 EE11 EE11 EE11 EE11 EE11 EE11 EE11 EE11 EE11 EE11 EE11 E11 E11 E11 E11 E11 LE1L1 LE1L1 LE1L1 LE1L1 LE1L1 LE1L1 LE1L1 LE1L1 LE1L1 LE1L1 LE1L1 LE1LL1 LE1LL1 L1LL1 L1LL1 L1LL1 L1LL1 L1LL1 L1LL1 L1LL1 LLL1 LLL1 LLL1 LLL1 LLL1 LLL1 LLL1 LLL1 LLL1 LLL LLL LLL LLL LLL LLL LLL LLL LLL LLL LLL LLL LLL LLL LLL LLL LLL LLL LLL LLL LLL LLL LLL LLL LLL LLL LLL LLL LLL LLL LLL LLL LLL LLL LLL LLL LLL LLL LLL LLL LLL LLL LLL LLL LLL LL LL LL L L L L L L L L L L L L                                      M2 M2 M2 M2 M2 M2 M2 M2 M2 M2 M2 M2 M2 M>2 M>2 M>2 M>2 M>2 ME>2 ME>2 ME>2M2 ME>2M2 ME>2M2 ME>2M2 ME>2M2 ME>2MM2 ME>2MM2 ME>2MM2 ME>2MM2 ME>2MM2 ME>2MM2 ME>2MM2 ME>2MM2 ME>2MM2 ME>2MM2 ME>2MM2 ME>2MM2 ME>2MM2 ME>2MM2 ME>2MM2 ME>2MM2 ME>2MM2 ME>2MM2 ME>2MM2 ME>2MM2 ME>2MM2 ME>2MM2 ME>2MM2 ME>2MM2 ME>2MM2 ME>2MM2 ME>2MM2 ME>2MM2 ME>2MM2 ME>2MM2 ME>2MM2 ME>2MM2 ME>2MM2 ME>2MM2 ME>2MM2 ME>2MM2 ME>2MM2 ME>2MM2 ME>2MM2 ME>2MM2 ME>2MM2 ME>2MM2 ME>2MM2 ME>2MM2 ME>2MM2 ME>2MM2 ME>2MM2 ME>2MM2 ME>2MM2 ME>2MM2 ME>2MM2 ME>2MM2 ME>2MM2 ME>2MM2 ME>2MM2 ME>2MM2 ME>2MM2 ME>2MM2 ME>2MM2 ME>2MM2 ME>2MM2 ME>2MM2 ME>2MM2 ME>2MM2 ME>2MM2 ME>2MM2 ME>2MM2 ME>2MM2 ME>2MM2 ME>2MM2 ME>2MM2 ME>2MM2 ME>2MM2 ME>2MM2 ME>2MM2 ME>2MM2 ME>2MM2 ME2MM2 ME2MM2 ME2MM ME2MM ME2MM ME2MM ME2MM ME2MM ME2MM ME2MM ME2MM ME2MM ME2MM ME2MM ME2MM ME2MM ME2MM MEMM MEMM MEMM MEMM MEMM MEMM MEMM MEMM MEMM MEMM MEMM MEMM MMM MMM MMM MMM MMM MMM MMM MMM MMM MMM MMM MMM MMM MMM MMM MMM MMM MMM MMM MMM MMM MMM MMM MMM MMM MMM MMM MMM MMM MMM MMM MMM MMM MMM MMM MMM MMM MMM MMM MMM MMM MMM MMM MMM MMM MMM MMM MMM MMM MMM MMM MMM MMM MMM MMM MMM MMM MMM MMM MMM MMM MMM MMM MMM MMM MMM MMM MMM MMM MMM MMM MMM MMM MMM MMM MMM MMM MMM MMM MMM MMM MMM MMM MMM MMM MMM MMM MMM MMM MMM MMM MMM MMM MMM MMM MMM MMM MMM MMM MMM MMM MMM MMM MMM MMM MMM MMM MMM MMM MMM MMM MMM MMM MMM MMM MMM MMM MM MM MM MM MM MM +MM +MM +MM :+MM :+MM :+MM :+MM :+MM :+MM :+MM :+MM :+M :+M+ :+M+ :+M+ :+M+ :+M+ :+M+ C:+M+ C:+M+ C:+M+ C:+M+ C:+M+ C:+M+ C:+M+ C:+M+ C:+M+ C:+M+ C:+M+ C:+M+ C:+M+ C:+M+ C:++ C:++ C:++ C:++ C:++ C:++ C:++ C:++ C:++ C:++ C:++ C:++ C:++ C:++ C:++ C:++ C:++ C:++ C:++ C:++ C:++ C:++ C:++ C:++ C:++ C:++ C:++ C:++ C:++ C:++ C:++ C:++ C:++ C:++ C:++ C:++ C:++ C:++ C:++ C:++ C:++ C:++ C:++ C:++ C:++ C:++ C:++ C:++ C:++ C:++ C:++ C:++ C:++ C:++ C:++ C:++ C:++ C:+ C:+ C+ C+ C+ C+ C+ C+ C+ C+ C+ C+ C+ C+ C+ + + + O+ O+ O+ O+ O O O O O O O OO OO OO OO OO OO OO OOO OOO OOO OOO OOO OOO OOO OOO OOO OOO OOO OOO OOO OOO OOO OOO OOO OOO OOO OOO OOO OOO OOO OOO OOO OOO OOO OOO OOO OOO OOO OOO OOO OOO OOO OOO OOO OOO OOO OOO OOO OOO OOO OOO OOO OOO OOO OOO OOO OOO OOO OOO OOO OOO OOO OOO OOO OOO OOO OO OO OO OO OO OO                                                   J J J J J J J9- J9- J9- J@9-- J@9-- J@9-- J@9-- J@9-J- J@9-J- J@9-J- J@9-J- J@9-J- J@9-J- J@9-J- J@9-JJ- J@9-JJ- J@9-JJ- J@9-JJ- J@9-JJ- J@9-JJ- J@9-JJ- J@9-JJ- J@9-JJ- J@9-JJ- J@9-JJ- J@9-JJ- J@9-JJ- J@9-JJ- J@9-JJ- J@9-JJ- J@9-JJ- J@9-JJ- J@9-JJ- J@9-JJ- J@9-JJ- J@9-JJ- J@9-JJ- J@9-JJ- J@9-JJ- J@9-JJ- J@9-JJ- J@9-JJ- J@9-JJ- J@9-JJ- J@9-JJ- J@9-JJ- J@9-JJ- J@9-JJ- J@9-JJ- J@9-JJ- J@9-JJ- J@9-JJ- J@9-JJ- J@9-JJ- J@9-JJ- J@9-JJ- J@9-JJ- J@9-JJ- J@9-JJ- J@9-JJ- J@9-JJ- J@9-JJ- J@9-JJ- J@9-JJ- J@9-JJ- J@9-JJ- J@9-JJ- J@9-JJ- J@9-JJ- J@9-JJ- J@9-JJ- J@9-JJ- J@9-JJ- J@9-JJ- J@9-JJ- J@9-JJ- J@9-JJ- J@9-JJ- J@9-JJ- J@9-JJ- J@9-JJ- J@9-JJ- J@9-JJ- J@9-JJ- J@9-JJ- J@9-JJ- J@9-JJ- J@9-JJ- J@9-JJ- J@9-JJ- J@9-JJ- J@9-JJ- J@9-JJ- J@9-JJ- J@9-JJ- J@9-JJ- J@9-JJ- J@9-JJ- J@9-JJ- J@9-JJ- J@9JJ- J@9JJ- J@9JJ- J@9JJ- JI@9JJ- JI@9JJ- JI@9JJ- JI@9JJ- JI@9JJ- JI@9JJ- JI@9JJ- JI@9JIJ- JI@9JIJI- JI@9JIJI- JI@9JIJI- JI@9JIJI JI@9JIJI JI@9JIJI JI@9JIJI JI@9JIJI JI@9JIJI JI@9JIJI JI@9JIJI JI@9JIJI JI@9JIJI JI@9JIJI JI@9JIJI JI@9JIJI JI@9JIJI JI@9JIJI JI@9JIJI I@9JIJI I@9JIJI I@9IJI I@9IJI I@9IJI I@9II I@9II I@9II I@9II I@9II I@9II I@9II I@9II I@9II I@9II I@9II I@9II I@9II I@9II I@9II I@9II I@9II I@9II I@9II I@9II I@9II I@9II I@9II I@9II I@9II I@9II I@9II I@9II I@9II I@9II I@9II I@9II I@9II I@9II I@9II I@9II I@9II I@9II I@9II I@9II I@9II I@9II I@9II I@9II I@9II I@9II I@9II I@9II I@9II I@9II I@9II I@9II I@9II I@9II I@9II I@9II I@9II I@9II I@9II I@9II I@9II I@9II I@9II I@9II I@9II I@9II I@9II I@9II I@9II I@9II I@9II I@9II I@9II I@9II I@9II IG@9II IG@9II IG@9II IG@9II IG@9II IG@9II IG@9II IG@9II IG@9II IG@9II IG@9II IG@9II IG@9II IG@9II IG@9II IG@9II IG@9IIG IG@9IGIG IG@9IGIG IG@99IGIG IG@99IGIG IG@99IGIG IG@99IGIG9 IG@99IGIG9 IG@99IGIG9 IG@99IGIG9 IG@99IGIG9 IG@99IGIG9 G@99IGIG9 G@99IGIG9 G@99IGIG9 G@99IGIG9 G@99IGIG9 G@99IGIG9 G@99IGIG9 G@99IGIG9 G@99IGIG9 G@99IGIG9 G@99IGIG9 G@99IGIG9 G@99IGIG9 G@99IGIG9 G@99IGG9 G@99IGG9 G@99IGG9 G@99IGG9 G@99IGG9 G@99IGG9 G@99IGG9 G@99IGG9 G@99GG9 G@99GG9 G@99GG9 G@99GG9 G@99GG9 G@99GG9 G@99GG9 G@99GG9 G@99GG9 G@99GG9 G@99GG9 G@99GG9 G@99GG9 G@99GG9 G@99GG9 G@99GG9 G@99GG9 G@99GG9 G@99GG9 G@99GG9 G@99GG9 G@99GG9 G@99GG9 G@99GG9 G@99GG9 G@99GG9 G@99GG9 G@99GG9 G@99GG9 G@99GG9 G@99GG9 G@99GG9 G@99GG9 G@99GG9 G@99GG9 G@99GG9 G@99GG9 G@99GG9 G@99GG9 G@99GG9 G@99GG9 G@99GG9 G@99GG9 G@99GG9 G@99GG9 G@99GG9 G@99GG9 G@99GG9 G@99GG9 G@99GG9 G@99GG9 G@99GG9 G@99GG9 G@99GG9 G@99GG9 G@99GG9 G@99GG9 G@99GG9 G@99GG9 G@99GG9 G@99GG9 G@99GG9 G@9GG9 G@9GG9 G@9GG9 G@9GG9 G@9GG9 G@9GG9 G@9GG9 GE@9GG9 GE@9GG9 GE@9GG9 GE@9GG9 GE@9GG9 GE@9GG9 GE@9GG9 GE@9GG9 GE@9GG9 E@9GG9 E@9GG9 E@9GG9 E@9GG9 E@9GG9 E@9GG9 E@9GG9 E@9GG9 E@9GG9 E@9GG9 E@9GG9 E@9GG E@9GG E@9GG E@9GGE E@9GEGE E@9GEGE E@9GEGE E@9GEGE E@9GEGE E@9GEGE E@9GEGE E@9GEGE E@9GEGE E@9GEGE E@9GEGE E@9GEGE E@9EE E@9EE E@9EE E@9EE E@9EE E@9EE E@9EE E@9EE E@9EE E@9EE E@9EE E@9EE E@9EE E@9EE E@9EE E@9EE E@9EE E@9EE E@9EE E@9EE E@9EE E@9EE E@9EE E@9EE E@9EE E@9EE E@9EE E@9EE E@9EE E@9EE E@9EE E@9EE E@9EE E@9EE E@9EE E@9EE E@9EE E@9EE E@9EE E@9EE E@9EE E@9EE E@9EE E@9EE E@9EE E@9EE E@9EE E@9EE E@9EE E@9EE E@9EE E@9EE E@9EE E@9EE E@9EE E@9EE E@9EE E@9EE E@9EE E@9EE E@9EE E@9EE E@9EE E@9EE E@9EE E@9EE E@9EE E@9EE E@9EE E@9EE E@9EE E@9EE E@9EE E@9EE E@9EE E@9EE E@9EE E@9EE E@9EE E@9EE E@9EE E@9EE E@9EE E@9EE E@9EE E@9EE E@9EE E@9EE E@9EE E@9EE E@9EE E@9EE E@9EE E@9EE E@9EE E@9EE E@9EE E@97EE E@97EE EG@97EE EG@97EE EG@97EE EG@97EE EG@97EE EG@97EE EG@97EE EG@97EGE7 EG@97EGE7 EG@97EGE7 EG@97EGEG7 EG@97EGEG7 EG@97EGEG7 EG@97EGEG7 EG@97EGEG7 EG@97EGEG7 EG@97EGEG7 EG@97EGEG7 EG@97EGEG7 EG@97EGEG7 EG@97EGEG7 EG@97EGEG7 EG@97EGEG7 EG@97EGEG7 EG@97GEG7 EG@7GEG7 EG@7GEG7 EG@7GEG7 EG@7GEG7 G@7GEG7 G@7GEG7 G@7GEG7 G@7GEG7 G@7GEG7 G@7GEG7 G@7GEG7 G@7GG7 G@7GG7 G@7GG7 G@7GG7 G@7GG7 G@7GG7 G@7GG7 G@7GG7 G@7GG7 G@7GG7 G@7GG7 G@7GG7 G@7GG7 G@7GG7 G@7GG7 G@7GG7 G@7GG7 G@7GG7 G@7GG7 G@7GG7 G@7GG7 G@7GG7 G@7GG7 G@7GG7 G@7GG7 G@7GG7 G@7GG7 G@7GG7 G@7GG7 G@7GG7 G@7GG7 G@7GG7 G@7GG7 G@7GG7 G@7GG7 G@7GG7 G@7GG7 G@7GG7 G@7GG7 G@7GG7 G@7GG7 G@7GG7 G@7GG7 G@7GG7 G@7GG7 G@7GG7 G@7GG7 G@7GG7 G@7GG7 G@7GG7 G@7GG7 G@7GG7 G@7GG7 G@7GG7 G@7GG7 G@7GG7 G@7GG7 G@7GG7 G@7GG7 G@7GG7 G@7GG7 G@7GG7 G@7GG7 G@7GG7 G@GG7 G@GG7 G@GG7 G@GG7 G@GG7 G@GG7 G@GG7 G@GG7 G@GG7 G@GG7 G@GG7 G@GG7 G@GG7 G@GG G@GG G@GG G@GG G@GG G@GG G@GG G@GG G@GG G@GG G@GG G@GG G@GG G@GG G@GG GI@GIG GI@GIG GI@GIG GI@GIG GI@GIG GI@GIG GI@GIG GI@GIG GI@GIGI GI@GIGI GI@GIGI GI@GIGI GI@GIGI GI@GIGI GI@GIGI GI@GIGI GI@IGI I@IGI I@IGI I@IGI I@IGI I@IGI I@IGI I@IGI I@IGI I@IGI I@II I@II I@II I@II I@II I@II I@II I@II I@II I@II I@II I@II I@II I@II I@II I@II I@II III III III III III III III III III III III III III III III III III III III III III III III III III III III III III III III III III III III III III III III III III III III III III III III III III III III III III I5II I5II I5II I5II I5I I5I I5I I5I I5I I5I I5I 5JIJ 5JIJ 5JIJ 5JIJ 5JIJ 5JIJ 5JIJ5 5JIJ5 JE5JIJ5 JE5JJ5 JE5JJ5 JE5JJ5 JE5JJ5 JE5JJ5 JE5JJ5 JE5JJ5 JE5JJ5 JE5JJ5 JE5JJ5 JE5JJ5 JJE5JJ5 JJE5JJ5 JJE5JJ5 JJE5JJ5 JJE5JJ5 JJE5JJ5 JJE5JJ5 JJE5JJ5 JJE5JJ5 JJE5JJ5 JJE5JJ5 JJE5JJ5 JJE5JJ5 JJE5JJ5 JJE5JJ5 JJE5JJ5 JJE5JJ5 JJE5JJ5 JJE5JJ5 JJE5JJ5 JJE5JJ5 JJE5JJ5 JJE5JJ5 JJE5JJ5 JJE5JJ5 JJE5JJ5 JJE5JJ5 JJE5JJ5 JJE5JJ5 JJE5JJ5 JJE5JJ5 JJE5JJ5 JJE5JJ5 JJE5JJ5 JJE5JJ5 JJE5JJ5 JJE5JJ5 JJE5JJ5 JJE5JJ5 JJE5JJ5 JJE5JJ5 JJE5JJ5 JJE5JJ5 JJE5JJ5 JJE5JJ5 JJE5JJ5 JJE5JJ5 JJE5JJ5 JJE5JJ5 JJE5JJ5 JJE5JJ5 JJE5JJ5 JJE5JJ5 JJE5JJ5 JJE5JJ5 JJE5JJ5 JJE5JJ5 JJE5JJ5 JJE5JJ5 JJE5JJ5 JJE5JJ5 JJE5JJ5 JJE5JJ5 JJE5JJ5 JJE5JJ5 JJE5JJ5 JJE5JJ5 JJE5JJ5 JJE5JJ5 JJE5JJ5 JJE5JJ5 JJE5JJ5 JJE5JJ5 JJE5JJ5 JJE5JJ5 JJE5JJ5 JJE5JJ5 JJ5JJ5 JJ5JJ5 JJ5JJ5 JJ5JJ5 JJ5JJ5 JJ5JJ5 JJ5JJ5 JJ5JJ5 JJ5JJ5 JJ5JJ5 JJ5JJ5 JJ5JLJ5 JJ5JLJ5 JJ5JLJ5 JJ5JLJ5 JLJJLJ5 JLJJLJ5 JLJJLJ5 JLJJLJ5 JLJJLJ5 JLJJLJ5 JLJJLJ5 JLJJLJL5 JLJJLJL5 JLJJLJL5 JLJLJL5 JLJLJL5 JLJLJL5 JLJLJL5 LJLJL5 LJLJL5 LLJL5 LLJL5 LLJL5 LLJL5 LLJL LLJL LLJL LLL LLL LLL LLL LLL LLL LLL LLL LLL LLL LLL LLL LLL LLL LLL LLL LLL LLL LLL LLL LLL LLL LLL LLL LLL LLL LLL LLL LLL LLL LLL LLL LLL LLL LLL LLL LLL LLL LLL LLL LLL LLL LLL LLL LLL LLL LLL LLL LLL LLL LLL LLL LLL LLL LLL LL LL LL LL LL LL LL L                                       M M M M M MM MM MM MM M7M MJ7M MJ7M MJF7M MJF7M MJF7M MJF7M MJF7M MJF7M MJF7M7 MJF7M7 MJF7M7 MJF7M7 MJF7M7 MJF7M7 MJF7MM7 MJF7MM7 MJF7MM7 MJF7MM7 MJF7MM7 MJF7MM7 MJF7MM7 MJF7MM7 MJF7MM7 MJF7MM7 MJF7MM7 MJF7MM7 MJF7MM7 MJF7MM7 MJF7MM7 MJF7MM7 MJF7MM7 MJF7MM7 MJF7MM7 MJF7MM7 MJF7MM7 MJF7MM7 MJF7MM7 MJF7MM7 MJF7MM7 MJF7MM7 MJF7MM7 MJF7MM7 MJF7MM7 MJF7MM7 MJF7MM7 MJF7MM7 MJF7MM7 MJF7MM7 MJF7MM7 MJF7MM7 MJF7MM7 MJF7MM7 MJF7MM7 MJF7MM7 MJF7MM7 MJF7MM7 MJF7MM7 MJF7MM7 MJF7MM7 MJF7MM7 MJF7MM7 MJF7MM7 MJF7MM7 MJF7MM7 MJF7MM7 MJF7MM7 MJF7MLM7 MJF7MLM7 MJF7MLM7 MJF7MLM7 MJF7MLM7 MJF7MLM7 MJF7LM7 MJF7LM7 MJF7LM7 MLJF7LM7 MLJF7LM7 MLJF7LM7 MLJF7LM7 MLJF7LM7 MLJF7LM7 MLJF7LM7 MLJF7LM7 MLJF7LM7 LJF7LM7 LJF7LM7 LJF7LM7 LJF7LM7 LJF7LM7 LJF7LM7 LJF7LM7 LJF7LM7 LJF7LM7 LJF7LM7 LJF7LM7 LJF7LM7 LJF7LM7 LJF7LM7 LJF7LM7 LJF7LM7 LJF7LML7 LJF7LML7 LJF7LML7 LJF7LML7 LJF7LML7 LJF7LML7 LJFLL7 LJFLL7 LJFLL7 LJFLL7 LJFLL7 LJFLL7 LJLL7 LJLL7 LJLL7 LJLL7 LJLL7 LJL7 LJL7 LJL7 LJL7 LJML7 LJML7 LJML7 LJML7 LJML7 LJML7 LJML7 LJML7 LJML LML LML LML LML LMML MML MML MML MML MML MML MML MML MML MML MML MML MML MML MML MML MML MML MML MML MML MML MM MM MMM MMM MMM MMM MMM MMM MMM MMLM MMLM MMLM MMLM MLM MLM MLM MLM MLM MLM MLM MLLM MLLM MLLM MLLM MLLM MLLM MLLM MLLM LLM LLM LLM LLM LLM LLM LLM LLM LLM LLM LLM LLM LLML LLML LLML LLML LLML LLML LLL LLL LLL LLL LL LL LL LL LL LL LL LL LL ML ML ML MML MML MML MML MML MML MML MML MML MML MML MML MML MML MML MML9 MM9 MEM9 MEM9 MEM9 MEM9 MEM9 ME9M9 ME9M9 ME9M9 ME9MM9 MIE9MM9 MIE9MM9 MIE9MM9 MIE9MM9 MIE9MM9 MIE9MM9 MIE9MM9 MIE9MM9 MIE9MM9 MIE9MM9 MIE9MM9 MIE9MM9 MIE9MM9 MLIE9MM9 MLIE9MM9 MLIE9MM9 MLIE9MLM9 MLIE9MLM9 MLIE9MLM9 MLIE9MLM9 MLIE9MLM9 MLIE9MLM9 MLIE9MLM9 MLIE9MLM9 MLIE9MLM9 MLIE9MLM9 MLIE9MLM9 MLIE9MLM9 MLIE9MLM9 MLIE9MLM9 MLIE9MLM9 MLIE9MLM9 MLIE9MLM9 MLIE9MLM9 MLIE9MLM9 MLIE9MLM9 LIE9LML9 LIE9LML9 LIE9LML9 LIE9LML9 LIE9LML9 LIE9LML9 LIE9LML9 LIE9LML9 LIE9LML9 LIE9LML9 LIE9LML9 LIE9LML9 LIE9LML9 LIE9LML9 LIE9LML9 LIE9LML9 LIE9LML9 LIE9LML9 LIE9LML9 LIE9LML9 LIE9LML9 LIE9LML9 LIE9LML9 LIE9LML9 LIE9LML9 LIE9LL9 LIE9LL9 LIE9LL9 LI9LL9 LI9LL9 LI9LL9 LI9LL9 LI9LL9 LI9LL9 LI9LL9 LI9LL9 LI9LL9 LI9LL9 LI9LL9 LI9LL9 LI9LL9 LI9LL9 LI9LL9 LI9LL9 JI9LL9 JI9LL9 JI9LL9 JI9LL9 JI9LL9 JI9LL9 JI9LL9 JI9LJL9 JI9LJL9 JI9LJL9 JI9LJL9 JILJL9 JILJL9 JILJL9 JILJLJ JILJLJ JILJLJ JILJLJ JILJJ JILJJ JILJJ JILJJ JLJJ JLJJ JJJ JJJ JJJ JJJ JJJ JJJ JJJ JJJ JJJ JJJ JJJ JJJ JJJ JJJ JJJ JJJ JJJ JJJ JJJ JJJ JJJ JJJ JJJ JJJ JJJ JJJ JJJ JLJJ JLJJ JLJJ JLJJ JLJJ JLJJ JLJJ JLJJ JLJJ JLJJ JLJJ JLJJ JLJJ JLJJ JLJJ JLJJ JLJJL JLJJL JLJJL JLJJL JLJLJL JLJLJL JLJLJL JLJLJL JLJLJL JLJLJL JLJLJL JLJLJL JLJLJL JLJLJL JLJLJL JLJLJL JLJLJL JLJLJL JLJLJL JLJLJL JLJLJL JLJLJL JLJLJL JLJLJL JLJLJL JLJLJL LJLJL LJLJL LJLJL LJLJL LJLJL LJLJL LJLJL LJLJL LJLJL LJLL LJLL LJLL LJLL LJLL LJLL LLL LLL LLL LLL LLL LLL LLL LLL LLL LLL LLL LLL LLL LLL LLL LLL LLL LLL LLL LLL LLL LLL LLL LLL LLL LLL LLL LMLL LMLL LMLL LMLL LMLL LML LML M M M MM MM MM MM MM MM2 MM2 MM2 MM2 M2M2 M2M2 M2M2 M2M2 M2M2 M2M2 M2M2 M2MM2 M2MM2 M2MM2 M2MM2 M2MM2 MJ2MM2 MJ2MM2 MJ2MM2 MJ2MM2 MJ2MM2 MJ2MM2 MJ2MM2 MJ2MM2 MJ2MM2 MJE2MM2 MJE2MM2 MJE2MM2 MJE2MM2 MJE2MM2 MJE2MM2 MJE2MM2 MJE2MM2 MJE2MM2 MJE2MM2 MJE2MM2 MJE2MM2 MJE2MM2 MJE2MM2 MJE2MM2 MJE2MM2 MJE2MM2 MJE2MM2 MJE2MM2 MJE2MM2 MJE2MM2 MJE2MM2 MJE2MM2 MJE2MM2 MJE2MM2 MJE2MM2 MJE2MM2 MJE2MM2 MJE2MM2 MJE2MM2 MJE2MM2 MJE2MM2 MJE2MM2 MJE2MM2 MJE2MM2 MJE2MM2 MJE2MM2 MJE2MM2 MJE2MM2 MJE2MM2 MJE2MM2 MJE2MM2 MJE2MM2 MJE2MM2 MJE2MM2 MJE2MM2 MJE2MM2 MJE2MM2 MJE2MM2 MJE2MM2 MJE2MM2 MJE2MM2 MJE2MM2 MJE2MM2 MJE2MM2 MJE2MM2 MJE2MM2 MJE2MM2 MJE2MM2 MJE2MM2 MJE2MM2 MJE2MM2 MJE2MM2 MJE2MM2 MJE2MM2 MJE2MM2 MJE2MM2 MJE2MM2 MJE2MM2 MJE2MM2 MJE2MM2 MJE2MM2 MJE2MM2 ME2MM2 ME2MM2 M2MM2 M2MM2 MMM2 MMM2 MMM2 MMM2 MMM MMM MMM MMM MMM MMM MMM MMM MMM MMM MMM MMM MMM MMM MMM MMM MMM MMM MMM MMM MMM MMM MMM MMM MMM MMM MMM MMM MMM MMM MMM MMM MMM MMM MMM MMM MMM MMM MMM MMM MMM MMM MMM MMM MMM MMM MMM MMM MMM MMM MMM MMM MMM MMM MMM MMM MMM MMM MMM MMM MMM MMM MMM MMM MMM MMM MMM MMM MMM MMM MMM MMM MMM MMM MMM MMM MMM MMM MMM MMM MMM MMM MMM MMM MMM MMM MMM MMM MMM MMM MMM MMM MMM MMM MMM MMM MMM MMM MMM MMM MMM MMM MMM MMM MMM MMM MMM MMM MMM MMM MMM MMM MMM MMM MMM MMM MMM MMM MMM MMM MMM MMM MMM MMM MMM MMM MMM MMM MMM MMM MMM MMM MMM MMM MMM M5MM M5MM M5MM M5MM M5MM M5MM5 M5MM5 M5MM5 M5MM5 M5MM5 M5MM5 M5MM5 ME5MM5 ME5MM5 ME5MM5 ME5MM5 ME5MM5 ME5MM5 E5MM5 E5MM5 E5MM5 E5MM5 E>5MM5 E>5MM5 E>5MM5 E>5M5 E>55 E>55 E>55 E>55 E>55 E>55 E>55 E>55 E>55 E>55 E>55 E>55 E>55 E>55 E>55 E>55 E>55 E>55 E>55 E>55 E>55 E>55 E>55 E>55 E>55 E>55 E>55 E>55 E>55 E>55 E>55 E>55 E>55 E>55 E>55 E>55 E>55 E>55 E>55 E>55 E>55 E>55 E>55 E>55 E>55 E>55 E>55 E>55 E>55 E>55 E>55 E>55 E>55 E>55 E>55 E>55 E>55 E>55 E>55 E>55 E>55 E>55 E>55 E>55 E>55 E>55 E>55 E>55 E>55 E>55 E>55 E>55 E>55 E>55 E>55 E>55 E>5 E> E> E> E> E> E> E> E> E> E> E> E>LL E>LL LE>LL LE>LL LE>LL LE>LL LE>LL LE>LL LE>LL LE>LL LE>LL LE>LL LE>LL LE>LL LE>LL LE>LL LE>LL LE>LL LE>LL LE>LL LE>LL LE>LL LE>LL LE>LL LE>LL LE>LL LE>LL LE>LL LE>LL LE>LL LE>LL LE>LL LE>LL LE>LL LE>LL LE>LL LE>LL LE>LL LE>LL LE>LL LE>LL LE>LL LE>LL LE>LL LE>LL LE>LL LE>LL LE>LL LE>LL LE>LL LE>LL LE>LL LE>LL LE>LL LE>LL LE>LL LE>LL LE>LL LE>LL LE>LL LE>LL LE>LL LE>LL LE>LL LE>LL LE>L LE>L LE>L LE> LE> E> E> E> E> E> E> E> E> E> E> E> E> E> E> E> E> E> E> E> E> E> E> E> E> E> E> E> E> E> E> E> E> E> E> E> E> E> E> E> E> E> E> E> E> E> E> E> E> E> E> E> E> E> E>/ E>/ E>/ E>// E>// E>// E>// E>// E>// E>// E>// JE>// JE>// JE>// JE>// JE>/J/ JE>/J/ JE>/J/ JE>/JJ/ JE>/JJ/ JE>/JJ/ JE>/JJ/ JE>/JJ/ JE>/JJ/ JE>/JJ/ JE>/JJ/ JE>/JJ/ JE>/JJ/ JE>/JJ/ JE>/JJ/ JE>/JJ/ JE>/JJ/ JE>/JJ/ JE>/JJ/ JE>/JJ/ JE>/JJ/ JE>/JJ/ JE>/JJ/ JE>/JJ/ JE>/JJ/ JE>/JJ/ JE>/JJ/ JE>/JJ/ JE>/JJ/ JE>/JJ/ JE>/JJ/ JE>/JJ/ JE>/JJ/ JE>/JJ/ JE>/JJ/ JE>/JJ/ JE>/JJ/ JE>/JJ/ JE>/JJ/ JE>/JJ/ JE>/JJ/ JE>/JJ/ JE>/JJ/ JE>/JJ/ JE>/JJ/ JE>/JJ/ JE>/JJ/ JE>/JJ/ JE>/JJ/ JE>/JJ/ JE>/JJ/ JE>/JJ/ JE>/JJ/ JE>/JJ/ JE>/JJ/ JE>/JJ/ JE>/JJ/ JE>/JJ/ JE>/JJ/ JE>/JJ/ JE>/JJ/ JE>/JJ/ JE>/JJ/ JE>/JJ/ JE>/JJ/ JE>/JJ/ JE>/JJ/ JE/JJ/ JE/JJ/ JE/JJ/ JE/JJ/ JE/JJ/ JE/JJ/ JE/JJ/ JE/JJ/ JE/JJ/ JE/JJ/ JE/JJ/ J/JJ/ J/JJ/ J/JJ/ J/JJ/ J/JJ/ J/JJ/ J/JJ/ J/JJ/ J/JJ/ J/JJ/ J/JJ/ J/JJ/ J/JJ/ J/JJ/ J/JJ/ J/JJ/ J/JJ/ J/JJ/ J/JJ/ J/JJ/ J/JJ/ J/JJ/ J/JJ/ J/JJ/ J/JJ/ J/JJ J/JJ J/JJ J/JJ J/JJ J/JJ J/JJ J/JJ J/JJ J/JJ J/JJ J/JJ J/JJ J/JJ J/JJ J/JJ J/JJ JJJ JJJ JJJ JJJ JJJ JJJ JJJ JJJ JJJ JJJ JJJ JJJ JJJ JJJ JJJ JJJ JJJ JJJ JJJ JJJ JJJ JJJ JJJ JJJ JJJ JJJ JJJ JJJ JJJ JJJ JJJ JJJ JJJ JJJ JJJ JJJ JJJ JJJ JJJ JJJ JJJ JJJ JJJ JJJ JJJ JJJ JJJ JJJ JJJ JJJ JJJ JJJ JJJ JJJ JJJ JJJ JJJ JJJ JJJ JJJ JJJ JJJ JJJ JJJ JJJ JJJ JJJ JJJ JJJ JJJ JJJ JJJ JJJ JJJ JJJ JJJ JJ JJ J J J J J J                      D D D D HD HD HD4 HD4 HD4 HD4H HD4H HD4H HD4H HD4H4 HD4H4 HD4H4 HD4H4 HD4H4 HD4H4 HD4HH4 HD4HH4 HD4HH4 HD4HH4 HD4HH4 HD4HH4 HD4HH4 HD@4HH4 HD@4HH4 HD@4HH4 HD@4HH4 HD@4HH4 HD@4HH4 HD@4HH4 HD@4HH4 HD@4HH4 HD@4HH4 HD@4HH4 HD@4HH4 HD@4HH4 HD@4HH4 HD@4HH4 HD@4HH4 HD@4HH4 HD@4HH4 HD@4HH4 HD@4HH4 HD@4HH4 HD@4HH4 HD@4HH4 HD@4HH4 HD@4HH4 HD@4HH4 HD@4HH4 HD@4HH4 HD@4HH4 HD@4HH4 HD@4HH4 HD@4HH4 HD@4HH4 HD@4HH4 HD@4HH4 HD@4HH4 HD@4HH4 HD@4HH4 HD@4HH4 HD@4HH4 HD@4HH4 HD@4HH4 HD@4HH4 HD@4HH4 HD@4HH4 HD@4HH4 HD@4HH4 HD@4HH4 HD@4HH4 HD@4HH4 HD@4HH4 HD@4HH4 HD@4HH4 HD@4HH4 HD@4HH4 HD@4HH4 HD@4HH4 HD@4HH4 D@4HH4 D@4HH4 D@4HH4 D@4HH4 D@4HH4 D@4HH4 D@4HH4 D@4H4 D@4H4 D@4H4 D@4H4 D@4H4 D@4H4 D@4H4 D@4H4 @4H4 @4H4 G@4H4 G@4H4 G@4H4 G@4H4 G@4H4 G@4H4 G@4H4 G@4H4 G@4H4 G@4H4 G@4H4 G@4H4 G@4H4 G@4HG4 G@4HG4 G@4HG4 G@4HG45 G@4HG45 G@5HG45 G@5HGG45 G@5HGG5 G@5HGG5 G@5HGG5 G@5HGG5 G@5HGG5 G@5HGG5 G@5HGG5 G@5HGG5 G@5HGG5 G@5HGG5 G@5HGG5 G@5HGG5 G@5HGG5 G@5GG5 G@5GG5 G@5GG5 G@5GG5 G@5GG5 G@5GG5 G@5GG5 G@5GG5 G@5GG5 G@5GG5 G@5GG5 G@5GG5 G@5GG5 G@5GG5 G@5GG5 G@5GG5 G5GG5 G5GG5 G5GG5 G5GG5 G5GG5 G5GG5 G5GG5 G5GG5 G5GG5 G5GG5 G5GG5 G5GG5 G5GG5 G5GG5 G5GG5 G5GG5 G5GG5 G5GG5 G5GG5 G5GG5 G5GG5 G5GG5 G5GG5 G5GG5 G5GG5 G5GG5 G5GG5 G5GG5 G5GG5 G5GG5 G5GG5 G5GG5 G5GG5 5GG5 5GG5 5GG5 5GG5 5GG5 5GG5 5G5 5G5 5G5 55 55 55 55 55 55 55 55 55 55 55 55 55 55 55 5 5 5 5 5                           44 44 44 H44 H44 HE44 HE44 HE44 HE4H4 HE4H4 HE4H4 HE4H4 HE4H4 HE4H4 HE4H4 HE4H4 HE4HH4 HE4HH4 HE4HH4 HE4HH4 HE4HH4 HE4HH4 HE4HH4 HE4HH4 HE4HH4 HE4HH4 HE4HH4 HEA4HH4 HEA4HH4 HEA4HH4 HEA4HH4 HEA4HH4 HEA4HH4 HEA4HH4 HEA4HH4 HEA4HH4 HEA4HH4 HEA4HH4 HEA4HH4 HEA4HH4 HEA4HH4 HEA4HH4 HEA4HH4 HEA4HH4 HEA4HH4 HEA4HH4 HEA4HH4 HEA4HH4 HEA4HH4 HEA4HH4 HEA4HH4 HEA4HH4 HEA4HH4 HEA4HH4 HEA4HH4 HEA4HH4 HEA4HH4 HEA4HH4 HEA4HH4 HEA4HH4 HEA4HH4 HEA4HH4 HEA4HH4 HEA4HH4 HEA4HH4 HEA4HH4 HEA4HH4 HEA4HH4 HEA4HH4 HEA4HH4 HEA4HH4 HEA@4HH4 HEA@4HH4 HEA@4HH4 HEA@4HH4 HEA@4HH4 HEA@4HH4 HEA@4HH4 HE@4HH4 HE@4HH4 HE@4HH4 HE@4HH4 HE@4HH4 HE@4HH4 HE@4HH4 HE@4HH4 HE@4HH4 HE@4HH4 HE@4HH4 HE@4HH4 HE@4HH4 HE@4HH4 HE@4HH4 HE@4HH4 HE@4HH4 HE@4HH4 HE@4HH4 HE@4HH4 HE@4HH4 HE@4HH4 HE@4HH4 HE@4HH4 HE@HH4 HE@HH4 HE@HH4 HE@HH4 HE@HH4 HE@HH4 HE@HH4 HE@HH4 HE@HH4 HE@HH4 HE@HH4 HE@2HH4 HE@2HH4 HE@2HH4 HE@2HH42 HE@2HH42 HE@2HH42 HE@2HH42 HE@2HH42 HE@2HH42 HEA2HH42 HEA2HH42 HEA2HH42 HEA2HH42 HEA2HH42 HEA2HH42 HEA2HH42 HEA2HH42 HEA2HH42 HEA2HH2 HEA2HH2 HEA2HH2 HEA2HH2 HEA2HH2 HEA2HH2 HEA2HH2 HEA2HH2 HEA2HH2 HEA2HH2 HEA2HH2 HEA2HH2 HEA2HH2 HEA2HH2 HEA2HH2 HEA2HH2 HEA2HH2 HEA2HH2 HEA2HH2 HEA2HH2 HEA2HH2 HEA2HH2 HEA2HH2 HEA2HH2 HEA2HH2 HEA2HH2 HEA2HH2 HEA2HH2 HEA2HH2 HEA2HH2 HEA2HH2 HEA2HH2 HEA2HH2 HEA@2HH2 HEA@2HH2 HEA@2HH2 HEA@2HH2 HEA@2HH2 HEA@2HH2 HEA@2HH2 HEA@2HH2 HEA@2HH2 HEA@2HH2 HEA@2HH2 HEA@2HH2 HEA@2HH2 HEA@2HH2 HEA@2HH2 HEA@2HH2 HEA@2HH2 HEA@2HH2 HEA@2HH2 HEA@2HH2 HEA@2HH2 HEA@2HH2 HEA@2HH2 HEA@2HH2 HEA@2HH2 HEA@2HH2 HEA@2HH2 HEA@2HH2 HEA@2HH2 HEA@2HH2 HEA@2HH2 HEA@2HH2 HEA@2HH2 HEA@2HH2 HE@2HH2 HE@2HH2 HE@2HH2 HE@2HH2 HE@2HH2 HE@2HH2 HE@2HH2 HE@2HH2 HE@2HH2 HE@2HH2 HE@2HH2 HE@2HH2 HE@2HH2 HE@2HH2 HE@2HH2 HE@2HH2 HE@2HH2 HE@HH2 HE@HH2 HE@HH2 HE@HH2 HE@HH2 HE@HH2 HE@HH2 HE@HH2 HE@HH2 HE@HH2 HE@HH2 HE@HH2 HE@HH2 HE@HH2 HE@HH2 HE@HH2 HE@HH2 HE@HH2 HE@HH2 HE@HH2 HE@HH2 HE@HH2 HE@HH2 HE@0HH2 HE@0HH2 HE@0HH2 HE@0HH2 HE@0HH2 HE@0HH2 HE@0HH2 HE@0HH2 HE@0HH0 HE@0HH0 HE@0HH0 HE@0HH0 HE@0HH0 HE@0HH0 HE@0HH0 H@0HH0 H@0HH0 H@0HH0 H@0HH0 H@0HH0 H@0HH0 H0HH0 H0HH0 H0HH0 H0HH0 H0HH0 H0HH0 H0HH0 H0HH0 H0HH0 H0HH0 H0HH0 H0HH0 H0HH0 H0HH0 H0HH0 H0HH0 H0HH0 H0HH0 0HH0 0HH0 0H0 0H0 0H0 0H0 0H0 0H0 0H0 0H0 0H0 0H0 0H0 0H0 0H0 0H0 00 00 00 00 00 00 00 00 00 00 00 00 00 00 00 00 00 00 00 00 00 00 00 00 00 00 00 00 00 00 00 00 00 00 00 00 00 00 00 00 00 00 0 0 0 0 0 0 0 0 0 0 0 0 0 0 0 0 0 0 0 0 J0 J0 J0/ J0/ J/ J/ J/J/ JG/J/ JG/J/ JG/J/ JG/J/ JG/J/ JG/J/ JG/J/ JG/JJ/ JG/JJ/ JG/JJ/ JG/JJ/ JG/JJ/ JG/JJ/ JG/JJ/ JG/JJ/ JG>/JJ/ JG>/JJ/ JG>/JJ/ JG>/JJ/ JG>/JJ/ JG>/JJ/ JG>/JJ/ JG>/JJ/ JG>/JJ/ JG>/JJ/ JG>/JJ/ JG>/JJ/ JG>/JJ/ JG>/JJ/ JG>/JJ/ JG>/JJ/ JG>/JJ/ JG>/JJ/ JG>/JJ/ JG>/JJ/ JG>/JJ/ JG>/JJ/ JG>/JJ/ JG>/JJ/ JG>/JJ/ JG>/JJ/ JG>/JJ/ JG>/JJ/ JG>/JJ/ JG>/JJ/ JG>/JJ/ JG>/JJ/ JG>/JJ/ JG>/JJ/ JG>/JJ/ JG>/J/ JG>/J/ JG>/J/ JG>/J/ JG>/J/ JG>/J/ JG>/J/ JG>/J/ JG>// JG>// JG>// G>// G>// G>// G>// G>// G>// G>// G>// G>// G>// G>// G>// >// >// >// >// >// >// >// >// >// >// >// >// >// >// >// >// >// // // // // /                       L L L L L L L L L@ L@ L@ L@ L@ L@0 L@L0 L@L0 L@L0 L@LL0 L@0LL0 L@0LL0 L@E0LL0 L@E0LL0 L@E0LL0 L@E0LL0 L@E0LL0 L@E0LL0 L@E0LL0 L@E0LL0 L@E0LL0 L@E0LL0 L@E0LL0 L@E0LL0 L@E0LL0 L@E0LL0 L@E0LL0 L@E0LL0 L@E0LL0 L@E0LL0 L@E0LL0 L@E0LL0 L@E0LL0 L@E0LL0 L@E0LL0 L@E0LL0 L@E0LL0 L@E0LL0 L@E0LL0 L@E0LL0 L@E0LL0 L@E0LL0 L@E0LL0 L@E0LL0 L@E0LL0 L@E0LL0 L@E0LL0 L@E0LL0 L@E0LL0 L@E0LL0 L@E0LL0 L@E0LL0 L@E0LL0 L@E0LL0 L@E0LL0 L@E0LL0 L@E0LL0 L@E0LL0 L@E0LL0 L@E0LL0 L@E0LL0 L@E0LL0 L@E0LL0 L@E0LL0 L@E0LL0 L@E0LL0 L@E0LL0 L@E0LL0 L@E0LL0 L@E0LL0 L@E0LL0 L@E0LL0 L@E0LL0 L@E0LL0 L@E0LL0 L@E0LL0 L@E0LL0 L@E0LL0 L@E0LL0 L@E0LL0 L@E0LL0 L@E0LL0 L@E0LL0 L@E0LL0 L@E0LL0 L@E0LL0 L@E0LL0 L@E0LL0 L@E0LL0 L@E0LL0 L@E0LL0 L@E0LL0 L@E0LL0 L@E0LL0 L@E0LL0 L@E0LL0 L@E0LL0 L@E0LL0 L@E0LL0 L@E0LL0 L@E0LL0 L@E0LL0 L@E0LL0 L@E0LL0 L@E0LL0 L@E0LL0 L@E0LL0 L@E0LL0 L@E0LL0 LE0LL0 LE0LL0 LELL0 LELL0 LELL0 LELL0 LELL0 LELL LELL LELL LELL LELL LELL LELL LELL LELL LELL LELL LELL LELL LELL LELL LELL LELL LELL LELL LELL LELL LELL LELL LELL LELL LELL LELL LELL LELL LELL LELL LELL LELL LELL LELL LLL LLL LLL LLL LLL LLL LLL LLL LLL LLL LLL LLL LLL LLL LLL LLL LLL LLL LLL LLL LLL LLL LLL LLL LLL LLL LLL LLL LLL LLL LLL LLL LLL LLL LLL LLL LLL LLL LLL LLL LLL LLL LLL LLL LLL LLL LLL LLL LLL LLL LLL LLL LLL LLL LLL LLL LLL LLL LLL LLL LLL LLL LLL LLL LLL LLL LLL LLL LLL LLL LLL LLL LLL LLL LLL LLL LLL LLL LLL LLL LLL LLL LLL LLL LLL LLL LLL LLL LLL LLL LLL LLL LLL LLL LLL LLL LLL LLL LLL LLL LELL2 LELL2 LELL2 LELL2 LELL2 LELL2 LELL2 LELL2 LE>LL2 E>2LL2 E>2LL2 E>2LL2 E>2LL2 E>2LL2 E>2LL2 E>2LL2 E>2LL2 E>2L2 E>2L2 E>2L2 E>2L2 E>2L2 E>2L2 E>2L2 E>2L2 E>2L2 E>2L2 E>22 E>22 E>22 E>22 E>22 E>22 E>22 E>22 E>22 E>22 E>22 E>22 E>22 E>22 E>22 E>22 E>22 E>22 E>22 E>22 E>22 E>22 E>22 E>22 E>22 E>22 E>22 E>22 E>22 E>22 E>22 E>22 E>22 E>22 E>22 E>22 E>22 E>22 E>22 E>22 E>22 E>22 E>22 E>22 E>22 E>22 E>22 E>22 E>22 E>22 E>22 E>22 E>22 E>22 E>22 E>22 E>22 E>22 E>22 E>22 E>22 E>22 E>22 E>22 NE>22 NE>22 NE>22 NE>22 NE>22 NE>22 NE>22 NE>22 NE>22 NE>22 NE>2 NE>N2 NE>N2 NE>N2 NE>N2 N>N2 N>NN2 N>NN N>NN N>NN N>NN N>NN N>NN N>NN N>NN N>NN N>NN N>NN N>NN N>NN N>NN N>NN N>NN N>NN N>NN N>NN N>NN N>NN N>NN N>NN N>NN N>NN N>NN N>NN N>NN N>NN N>NN N>NN N>NN N>NN N>NN N>NN N>NN N>NN N>NN N>NN N>NN N>NN N>NN N>NN N>NN N>NN N>NN N>NN N>NN N>NN N>NN N>NN N>NN N>NN N>NN N>NN N>NN N>NN N>NN N>NN N>NN N>NN N>NN N>NN N>NN N>NN N>NN N>NN N>NN N>NN N>NN N>NN >NN >NN >NN >NN >NN >NN >NN > > > > > > > > > > > > > > > > > > > > > > > > > > > > > > > > > P> P> P> P> P> P> P> P> P> P> P> P> P> P> P> P> P> P>/ P>/ P>/ PG>// PG>// PG>/P/ PG>/P/ PG>/P/ PG>/P/ PG>/P/ PG>/PP/ PG>/PP/ PG>/PP/ PG>/PP/ PG>/PP/ PG>/PP/ PG>/PP/ PG>/PP/ PG>/PP/ PG>/PP/ PG>/PP/ PG>/PP/ PG>/PP/ PG>/PP/ PG>/PP/ PG>/PP/ PG>/PP/ PG>/PP/ PG>/PP/ PG>/PP/ PG>/PP/ PG>/PP/ PG>/PP/ PG>/PP/ PG>/PP/ PG>/PP/ PG>/PP/ PG>/PP/ PG>/PP/ PG>/PP/ PG>/PP/ PG>/PP/ PG>/PP/ PG>/PP/ PG>/PP/ PG>/PP/ PG>/PP/ PG>/PP/ PG>/PP/ PG>/PP/ PG>/PP/ PG>/PP/ PG>/PP/ PG>/PP/ PG>/PP/ PG>/PP/ PG>/PP/ PG>/PP/ PG>/PP/ PG>/PP/ G>/PP/ G>/PP/ G>/PP/ G>/PP/ G>/PP/ G>/PP/ G>/PP/ G>/PP/ G>/PP/ G/PP/ G/PP/ G/PP/ G/PP/ G/PP/ G/PP/ G/PP/ G/PP/ G/P/ G/P/ G/P/ G// G// G// G// G// G// G// G// G// G// G// G// G// G// G// G// G// G// G// G// G// G// G// G// G// G// G// G// G// // // // //                                                                                                                  - - - QH- QH- QH- QH- QH- QH- QH- QH- QH- QH-- QH-- QH-- QH-- QH-- QH-Q- QH-Q- QH-Q- QH@-QQ- QH@-QQ- QH@-QQ- QH@-QQ- QH@-QQ- QH@-QQ- QH@-QQ- QH@-QQ- QH@-QQ- QH@-QQ- QH@-QQ- QH@-QQ- QH@-QQ- QH@-QQ- QH@-QQ- QH@-QQ- QH@-QQ- QH@-QQ- QH@-QQ- QH@-QQ- QH@-QQ- QH@-QQ- QH@-QQ- QH@-QQ- QH@-QQ- QH@-QQ- QH@-QQ- QH@-QQ- QH@-QQ- QH@-QQ- QH@-QQ- QH@-QQ- QH@-QQ- QH@-QQ- QH@-QQ- QH@-QQ- QH@-QQ- QH@-QQ- QH@-QQ- QH@-QQ- QH@-QQ- QH@-QQ- QH@-QQ- QH@-QQ- QH@-QQ- QH@-QQ- QH@-QQ- QH@-QQ- QH@-QQ- QH@-QQ- QH@-QQ- QH@-QQ- QH@-QQ- QH@-QQ- QH@-QQ- QH@-QQ- H@-QQ- H@-QQ- H@-Q- H@-Q- H@-Q- H@-Q- H@-Q- H@-Q- H@-Q- H@-Q- H@-Q- H@-Q- H@-Q- H@-- H@-- H@-- H@-- H@-- H@-- H@-- H@-- H@-- H@-- H@-- H@-- H@-- H@-- H@-- H@-- H@-- H@-- @-- @-- -- -- -- -- -- -- -- -- -- -- -- -- -- -- -- -- -- -- -- -- - - - - - - - -                                                                                                        G G G G G G G, G, G, G, GG, GG, GG, GG,G GG,GG GG,GG GG,GG GG,GG GG,GG GG,GG, GG,GG, GG,GG, GG@,GG, GG@,GG, GG@,GG, GG@,GG, GG@,GG, GG@,GG, GG@,GG, GG@,GG, GG@,GG, GG@,GG, GG@,GG, GG@,GG, GG@,GG, GG@,GG, GG@,GG, GG@,GG, GG@,GG, GG@,GG, GG@,GG, GG@,GG, GG@,GG, GG@,GG, GG@,GG, GG@,GG, GG@,GG, GG@,GG, GG@,GG, GG@,GG, GG@,GG, GG@,GG, GG@,GG, GG@,GG, GG@,GG, GG@,GG, GG@,GG, GG@,GG, GG@,GG, GG@,GG, GG@,GG, GG@,GG, GG@,GG, GG@,GG, GG@,GG, GG@,GG, GG@,GG, GG@,GG, GG@,GG, GG@,GG, GG@,GG, GG@,GG, GG@,GG, GG@,GG, GG@,GG, GG@,GG, GG@,GG, GG@,GG, GG@,GG, GG@,GG, GG@,GG, GG@,GG, GG@,GG, GG@,GG, GG@,GG, GG@,GG, GG@,GG, GG@,GG, GG@,GG, GG@,GG, GG@,GG, GG@,GG, GG@,GG, GG@,GG, GG@,GG, GG@,GG, GG@,GG, GG@,GG, GG@,GG, GG@,GG, GG@,GG, GG@,GG, GG@,GG, GG@,GG, GG@,GG, GG@,GG, GG@,GG, GG@,GG, GG@,GG, GG@,GG, GG@GG, GG@GG, GG@GG, GG@GG, GGGG, GGGG, GGGG, GGGG, GGGG, GGG GGG GGG GGG GGG GGG GGG GGG GGG GGG GGG GGG GGG GGG GGG GGG GGG GGG GGG GGG GGG GGG GGG GGG GGG GGG GGG GGG GGG GGG GGG GGG GGG GGG GGG GGG GGG GGG GGG GGG GGG GGG GGG GGG GGG GGG GGG GGG GGG GGG GGG GGG GGG GGG GGG GGG GGG GGG GGG GGG GGG GGG GGG GGG GGG GGG GGG GGG GGG GGG GGG GGG GGG GGG GGG GGG GGG GGG GGG GGG GGG GGG GGG GGG GGG GGG GGG GGG GGG GGG GGG GGG GGG GGG GGG GGG GGG GGG GGG GGG GGG GGG GGG GGG GGG GGG GGG GGG GGG GGG GGG GGG GGG GGG GGG GGG GGG GGG GGG GGG GGG GGG GGG GGG GGG GGG GGG GGG GGG GGG GGG GGG GGG GGG- GGG- GGG- GGG- G-GG- G-GG- G-GG- G-GG- GE-GG- GE-GG- GE-GG- GE@-GG- GE@-GG- GE@-GG- GE@-GG- GE@-GG- GE@-GG- GE@-GG- GE@-GG- GE@-GG- GE@-GG- GE@-GG- GE@-GG- GE@-GG- GE@-GG- GE@-GG- GE@-GG- GE@-GG- GE@-GG- GE@-G- GE@-G- GE@-G- GE@-G- GE@-G- GE@-G- GE@-G- GE@-G- GE@-G- GE@-- GE@-- E@-- E@-- E@-- E@-- E@-- E@-- E@-- E@-- E@-- E@-- E@-- E@-- E@-- E@-- E@-- E@-- E@-- E@-- E@-- E@-- E@-- E@-- E@-- E@-- E@-- E@-- E@-- E@-- E@-- E@-- E@-- E@-- E@-- E@-- E@-- E@-- E@-- E@-- E@-- E@-- E@-- E@-- E@-- E@-- E@-- E@-- E@-- E@-- @-- @-- @-- @-- @-- @-- @-- @-- @-- @-- @-- @-- @-- @-- @-- @-- @-- @-- -- -- H- H- H- H- H- H- H- HH- HH- HH- HH- HH HHH HHH HHH HHH HHH HHH HHH HHH HHH HHH HHH HHH HHH HHH HHH HHH HHH HHH HHH HHH HHH HHH HHH HHH HHH HHH HHH HHH HHH HHH HHH HHH HHH HHH HHH HHH HHH HHH HHH HHH HHH HHH HHH HHH HHH HHH HHH HHH HHH HHH HHH HHH HHH HHH HHH HH HH HH HH HH HH HH HH HH H H H H H H H                                          J J J J J J* J* J* J* J* J* J* J* J9*J* JE9*J* JE9*J* JE9*J* JE9*J* JE9*J* JE9*J* JE9*J* JE9*JJ* JE9*JJ* JE9*JJ* JE9*JJ* JE9*JJ* JE9*JJ* JE9*JJ* JE9*JJ* JE9*JJ* JE9*JJ* JE9*JJ* JE9*JJ* JE9*JJ* JE9*JJ* JE9*JJ* JE9*JJ* JE9*JJ* JE9*JJ* JE9*JJ* JE9*JJ* JE9*JJ* JE9*JJ* JE9*JJ* JE9*JJ* JE9*JJ* JE9*JJ* JE9*JJ* JE9*JJ* JE9*JJ* JE9*JJ* JE9*JJ* JE9*JJ* JE9*JJ* JE9*JJ* JE9*JJ* JE9*JJ* JE9*JJ* JE9*JJ* JE9*JJ* JE9*JJ* JE9*JJ* JE9*JJ* JE9*JJ* JE9*JJ* JE9*JJ* JE9*JJ* JE9*JJ* JE9*JJ* JE9*JJ* JE9*JJ* JE9*JJ* JE9*JJ* JE9*JJ* JE9*JJ* JE9*JJ* JE9*JJ* JE9*JJ* JE9*JJ* JE9*JJ* JE9*JJ* JE9*JJ* J9*JJ* J9*JJ* J9*JJ* J9*JJ* J9*JJ* J9*JJ* J9*JJ* J9*JJ* J9*JJ* J9*JJ* J9*JJ* J9*JJ* J9*JJ* J9*JJ* J9*JJ* J9*JJ* J9*JJ* J9*JJ* J9JJ* J9JJ* J9JJ* J9JJ* J9JJ* J9JJ* J9JJ* J9JJ* J9JJ* J9JJ* J9JJ* J9JJ* J9JJ* J9JJ* J9JJ* JJJ* JJJ* JJJ JJJ JJJ JJJ JJJ JJJ JJJ JJJ JJJ JJJ JJJ JJJ JJJ JJJ JJJ JJJ JJJ JJJ JJJ JJJ JJJ JJJ JJJ JJJ JJJ JJJ JJJ JJJ JJJ JJJ JJJ JJJ JJJ JJJ JJJ JJJ JJJ JJJ JJJ JJJ JJJ JJJ JJJ JJJ JJJ JJJ JJJ JJJ JJJ JJJ JJJ JJJ JJJ JJJ JJJ JJJ JJJ JJJ JJJ JJJ JJJ JJJ JJJ JJJ JJJ JJJ JJJ JJJ JJJ JJJ JJJ JJJ JJJ JJJ JJJ JJJ JJJ JJJ JJJ JJJ JJJ JJJ JJJ JJJ JJJ JJJ JJJ JJJ JJJ JJJ JJJ JJJ JJJ JJJ JJJ JJJ JJJ JJJ JJJ JJJ JJJ JJJ JJJ JJJ JJJ JJJ JJJ JJJ JJJ JJJ JJJ JJJ JJJ JJJ JJJ JJJ JJJ JJJ JJJ JJJ J,JJ J,JJ J,JJ J,JJ J,JJ J,JJ J,JJ J,J J,J J,J J,J J,J J,J @,J @,J G@,J G@,J G@,J G@,J G@,J G@,J, G@,J, G@,J, G@,J, G@,J, G@,J, G@,J, G@,J, G@,J, G@,J, G@,J, G@,J, G@,J, G@,J, G@,, G@,, G@,, G@,, G@,, G@,, G@,, G@,, G@,, G@,, G@,, G@,, G@,, G@,, G@,, G@,, G@,, G@,, G@,, G@,, G@,, G@,, G@,, G@,, G@,, G@,, G@,, G@,, G@,, G@,, G@,, G@,, G@,, G@,, G@,, G@,, G@,, G@,, G@,, G@,, G@,, G@,, G@,, G@,, G@,, G@,, G@,, G@,, G@,, G@,, G@,, G@,, G@,, G@,, G@,, G@,, G@,, G@,, G@,, G@,, G@,, G@,, G@,, G@,, G@,, G@,, G@,, G@,, G@, G@, G@, G@, G@, G@, G@, LG@, LG@, LG@, LG@, LG, LG, LG, LG, LG, LG, LG, LG, LG, LG, LG, LG LG LG LG LG LG LG LGL LGL LGLL LGLL LGLL LGLL LGLL LGLL LGLL LGLL LGLL LGLL LGLL LGLL LGLL LGLL LGLL LGLL LGLL LGLL LGLL LGLL LGLL LGLL LGLL LGLL LGLL LGLL LGLL LGLL LGLL LGLL LGLL LGLL LGLL LGLL LGLL LGLL LGLL LGLL LGLL LGLL LGLL LGLL LGLL LGLL LGLL LGLL LGLL LGLL LGLL GLL GLL GLL GLL GLL GLL GLL GLL GLL GLL GLL GLL GLL GLL GL GL GL GL GL G G G G G G G G G G G G G G G G G G G G G G G G G G G G G G G G G G HG HG HG HG HG HG HG HG HG- HG- HG- HG- HG- HG- HG- HG- HG- HG@-- HG@-- HG@-- HG@-- HG@-- HG@-- HG@-H- HG@-HH- HG@-HH- HG@-HH- HG@-HH- HG@-HH- HG@-HH- HG@-HH- HG@-HH- HG@-HH- HG@-HH- HG@-HH- HG@-HH- HG@-HH- HG@-HH- HG@-HH- HG@-HH- HG@-HH- HG@-HH- HG@-HH- HG@-HH- HG@-HH- HG@-HH- HG@-HH- HG@-HH- HG@-HH- HG@-HH- HG@-HH- HG@-HH- HG@-HH- HG@-HH- HG@-HH- HG@-HH- HG@-HH- HG@-HH- HG@-HH- HG@-HH- HG@-HH- HG@-HH- HG@-HH- HG@-HH- HG@-HH- HG@-HH- HG@-HH- HG@-HH- HG@-HH- HG@-HH- HG@-HH- HG@-HH- HG@-HH- HG@-HH- HG@-HH- HG@-HH- HG@-HH- HG@-HH- HG@-HH- HG@-HH- HG@-HH- HG@-HH- HG@-HH- HG@-HH- HG@-HH- HG@-HH- HG@-HH- HG@-HH- HG@-HH- HG@-HH- HG@-HH- HG@-HH- HG@-HH- HG@-HH- HG@-HH- HG@-HH- HG@-HH- HG@-HH- HG@-HH- HG@-HH- HG@-HH- HG@-HH- HG@-HH- HG@-HH- HG@-HH- HG@-HH- HG@-HH- HG@-HH- HG@-HH- HG@-HH- HG@-HH- HG@-HH- HG@-HH- HG@-HH- HG@-HH- HG@-HH- HG@-HH- HG@-HH- HG@-HH- HG@-HH- HG@-HH- HG@-HH- HG@-HH- HG@-HH- HG@-HH- HG@-HH- HG@-HH- HG@-HH- HG@-HH- HG@-HH- HG@-HH- HG@-HH- HG-HH HG-HH HG-HH HGHH HGHH HGHH HGHH HGHH HGHH HGHH HGHH HGHH HHH HHH HHH HHH HHH HHH HHH HHH HHH HHH HHH HHH HHH HHH HHH HHH HHH HHH HHH HHH HHH HHH HHH HHH HHH HHH HHH HHH HHH HHH HHH HHH HHH HHH HHH HHH HHH HHH HHH HHH HHH HHH HHH HHH HHH HHH HHH HHH HHH HHH HHH HHH HHH HHH HHH HHH HHH HHH HHH HHH HHH HHH HHH HHH HHH HHH HHH HHH HHH HHH HHH HHH HHH HHH HHH HHH HHH HHH HHH HHH HHH HHH HHH HHH HHH HHH HHH HHH HHH HHH HHH HHH HHH HHH HHH HHH HHH HHH HHH HHH HHH HHH HHH HHH HHH HHH HAHH HAHH HAHH HAHH HAHH HAHH HAHH HEAHH2 HEAHH2 HEA2HH2 HEA2HH2 HEA2HH2 HEA2HH2 HEA2HH2 HEA2HH2 HEA2HH2 HEA2HH2 EA2HH2 EA2HH2 EA2HH2 EA2HH2 EA2HH2 EA2HH2 EA2HH2 EA2HH2 EA2HH2 EA2HH2 EA2HH2 EA2HH2 EA2HH2 EA2HH2 EA2HH2 EA2HH2 EA2HH2 EA2HH2 EA2HH2 EA2HH2 EA2HH2 EA2H2 EA2H2 EA2H2 EA2H2 EA2H2 EA2H2 EA2H2 EA2H2 EA2H2 EA2H2 EA2H2 EA22 EA22 EA22 EA22 EA22 EA22 EA22 EA22 EA22 EA22 EA22 EA22 EA22 EA22 EA22 EA22 EA22 EA22 EA22 EA22 EA22 EA22 EA22 EA22 EA22 EA22 EA22 EA22 EA22 EA22 EA22 EA22 EA22 EA22 EA22 EA22 EA22 EA22 EA22 EA22 EA22 EA22 EA22 EA22 EA22 EA22 EA22 EA22 EA22 EA22 EGA22 EGA22 EGA22 EGA22 EGA22 EGA2 EGA2 EGA2 EGA2 EGA2 EGA2 EGA2 EGA2 EGA2 EGA EGA GA GA GGA GGA GGA GGA GGA GGA GGA GGA GGA GGA GGA GGA GGA GGAG GGAG GGAG GGG GGG GGG GGG GGG GGG GGG GGG GGG GGG GGG GGGG GGGG GGGG GGGG GGGG GGGG GGGG GGGG GGGG GGGG GGGG GGGG GGGG GGGG GGGG GGGG GGGG GGGG GGGG GGGG GGGG GGGG GGGG GGGG GGG GGG GGG GGG GGG GGG GGG GGG GGG GG GG GG GG GG GG GG GG GG GG GG G G G G G G G G G G                                 E E E E E E E E E E E E44 E44 E44 E44 E44 E4H4 E4H4 E4H4 E4H4 E4H4 E4H4 E4H4 E4H4 E4H4 E@4H4 E@4H4 E@4HH4 E@4HH4 E@4HH4 E@4HH4 E@4HH4 E@4HH4 E@4HH4 E@4HH4 HE@4HH4 HE@4HH4 HE@4HH4 HE@4HH4 HE@4HH4 HE@4HH4 HE@4HH4 HE@4HH4 HE@4HH4 HE@4HH4 HE@4HH4 HE@4HH4 HE@4HH4 HE@4HH4 HE@4HH4 HE@4HH4 HE@4HH4 HE@4HH4 HE@4HH4 HE@4HH4 HE@4HH4 HE@4HH4 HE@4HH4 HE@4HH4 HE@4HH4 HE@4HH4 HE@4HH4 HE@4HH4 HE@4HH4 HE@4HGH4 HE@4HGH4 HE@4HGH4 HE@4HGH4 HE@4HGH4 HE@4HGH4 HE@4HGH4 HE@4GH4 HE@4GH4 HE@4GH4 HE@4GHG4 HE@4GHG4 HE@4GG4 HE@4GG4 HE@4GG4 HE@4GG4 HE@4GG4 HE@4GG4 HE@4GG4 HE@4GG4 HE@4GG4 HE@4GG4 HE@4GG4 HE@4GG4 HE@4GG4 HE@4GG4 HE@4GG4 HE@4GG4 HE@4GG4 HE@4GG4 HE@4GG4 HE@4GG4 HE@4GG4 HE@4GG4 HE@4GG4 HE@4GG4 HE@4GG4 HE@4GG4 HED@4GG4 HED@4GG4 HED4GG HED4GG HED4GG HED4GG HD4GHG HDGHG HDGHG HDHG HDHG HDHG HDHG HDHG HDHG HDHG HDHGH HDHGH HGDHGH HGDHGH HGDHGH HGDHGH HGDHGH HGDHGH HGDHGH HGDHGH HGDHGH HGDHGH HGDHGH HGDHGH HGDHGH HGDHGH HGDHH HGDHH HGDHH HGDHH HGDHH GDHH GDHH GDHH GDHH GDHH GHH GHH GHH GHH GEHH GEHH GEHH GEHH GEHH GEHH GEHH GEHH GEHH GEHGH GEHGH GEHGH GEHGH GEHGH GEHGHG GEHGHG GEHGHG GEHGHG GEHGHG GEHGHG GEHGHG GEHGHG GEHGHG GEHGHG GEHGHG GEHGHG GEHGHG GHEHGHG GHEHGHG GHEHGHG GHEHGHG GHEGHG GHEGHG GHEGHG HEGHG HEGHG HEGHG HEGG HEGG HEGG HEGG HEGG HEGG HEGG HEGG HEDGG HEDGG HEDGG HEDGG HEDGG HEDGG HEDGG HEDGG HEDGG HEDGG HEDGG HEDGG HEDGG HEDGG HEDGG HEDGG HEDGG HEDGG HEDGG HEDGG HDGG HDGG HDGG HDGG HDGG HDGG HGDGG HGDGG HGDGG HGDGG HGDGG HGDGG HGDGG HGDGG HGDGG HGDGG HGDGG HGDGG HGDGG HGDGG HGDGG HGDGG HGDGG HGDGG HGDGG HGDGG HGDGG HGDGG HGDGG HGDGG HGD(GG GD(GG( GD(GG( GD(GG( GD(GG( GD(GG( GD(GG( GD(GG( GD(GG( GD(GG( GD(GG( GD(GG( GD>(GG( GD>(GG( GD>(GG( GD>(GG( GD>(GG( GD>(GG( GD>(GG( GD>(GG( GD>(GG( GD>(GG( GD>(GG( GD>(GG( GD>(GG( GD>(GG( GD>(GG( GD>(GG( GD>(GG( GD>(GG( GD>(GG( GD>(GG( GD>(GG( GD>(GG( GD>(GG( GD>(GG( GD>(GG( GD>(GG( GD>(GG( GD>(GG( GD>(GG( GD>(GG( GD>(GG( GD>(GG( GD>(GG( GD>(GG( GD>(GG( GD>(GG( GD>(GG( GD>(GG( GD>(GG( GD>(GG( GD>(GG( GD>(GG( GD>(GG( GD>(GG( GD>(GG( GD>(GG( GD>(GG( GD>(GG( GD>(GG( GD>(GG( GD>(GG( GD>(G( GD>(G( GD>(G( GD>(G( GD>(G( GD>(G( GD>(G( GD>(( GD>( GD>( GD>( GD>( GD>( GD>( GD>( GD( GD( GD( GD( GD( GD( GD( GD( GD( GD( GD( GD( GD( GD( GD( GD( GD( GD( GD( GD( G( G( G( G(   E@ E@ E@ E@ E@ E@ E@ E@ E@ E@ E@E E@E E@E E@E E@E E@E E@E E@E E@E E@E E@E E@EE E@EE E@EE E@EE E@EE E@EE E@EE E@EE E@EE E@EE E@EE E@EE E@EE E@EE E@EE E@EE E@EE E@EE E@EE E@EE E@EE E@EE E@EE E@EE E@EE E@EE E@EE E@EE E@EE E@EE E@EE E@EE E@EE E@EE E@EE E@EE E@EE E@EE E@EE E@EE E@EE EEE EEE EEE EEE EEE EEE EEE EEE EEE EEE EEE EEE EEE EEE EEE EEE EEE EEE E E E                                                          E E E E E- E- E- E-- E-- E-- E-- E-- E-- E@-- E@-E- E@-E- E@-E- E@-E- E@-E- E@-E- E@-E- E@-E- E@-E- E@-E- E@-E- E@-E- E@-EE- E@-EE- E@-EE- E@-EE- E@-EE- E@-EE- E@-EE- E@-EE- E@-EE- E@<-EE- E@<-EE- E@<-EE- E@<-EE- E@<-EE- E@<-EE- E@<-EE- E@<-EE- E@<-EE- E@<-EE- E@<-EE- E@<-EE- E@<-EE- E@<-EE- E@<-EE- E@<-EE- E@<-EE- E@<-EE- E@<-EE- E@<-EE- E@<-EE- E@<-EE- E@<-EE- E@<-EE- E@<-EE- E@<-EE- E@<-EE- E@<-EE- E@<-EE- E@<-EE- E@<-EE- E@<-EE- E@<-EE- E@<-EE- E@<-EE- E@<-EE- E@<-EE- E@<-EE- E@<-EE- E@<-EE- E@<-EE- E@<-EE- E@<-EE- E@<-EE- E@<-EE- E@<-EE- E@<-EE- E@<-EE- E@<-EE- E@<-EE- E@<-EE- E@<-EE- E@<-EE- E@<-EE- E@<-EE- E@<-EE- E@<-EE- E@<-EE- E@<-EE- E@<-EE- E@<-EE- E@<-EE- E@<-EE- E@<-EE- E@<-EE- E@<-EE- E@<-EE- E@<-EE- E@<-EE- E@<-EE- E@<-EE- E@<-EE- E@<-EE- E@<-EE- E@<-EE- E@<-EE- E@<-EE- E@<-EE- E@<-EE- E@<-EE- E@<-EE-, E@<-EE-, E@<-EE, E@<-EE, E@<-,EE, E@<-,EE, E@<-,EE, E@<-,EE, E@<-,EE, E@<-,EE, E@<-,EE, E@<-,EE, E@<-,EE, E@<-,EE, E@<,EE, E@<,EE, E@<,EE, E@<,EE, E@<,EE, E@<,EE, E@<,EE, E@<,EE, E@<,EE, E@<,EE, E@<,EE, E@<,EE, E@<,EE, E@<,EE, E@<,EE, E@<,EE, E@<,EE, E@<,EE, E@<,EE, E@<,EE, E@<,EE, E@<,EE, E@<,EE, E@<,EE, E@<,EE, E@<,EE, E@<,EE, E@<,EE, E@<,EE, E@<,EE, E@<,EE, E@<,EE, E@<,EE, E@<,EE, E@<,EE, E@<,EE, E@<,EE, E@<,EE, E@<,EE, E@<,EE, E@<,EE, E@<,EE, E@<,EE, E@<,EE, E@<,EE, E@<,EE, E@<,EE, E@<,EE, E@<,EE, E@<,EE, E@<,EE, E@<,EE, E@<,EE, E@<,EE, E@<,EE, E@<,EE, E@<,EE, E@<,EE, E@<,EE, E@<,EE, E@<,EE, E@<,EE, E@<,EE, E@<,EE, E@<,EE, E@<,EE, E@<,EE, E@<,EE, E@<,EE, E@<,EE, E@<,EE, E@<,EE, E@<,EE, E@<,EE, E@<,EE, E@<,EE, E@<,EE, E@<,EE, E@<,EE, E@<,EE, E@<,EE, E@<,EE, E@<,EE, E@<,EE, E@<,EE, E@<,EE, E@<,EE, E@<,EE, E@<,EE, E@<,EE, E@<,EE, E@<,EE, E@<,EE, E@<,EE, E@<,EE, E@<,EE, E@<,EE, E@<,EE, E@<,EE E@<,EE E@<,EE E@<,EE E@<,EE E@<,EE E@<EE E@<EE E@<EE E@<EE E@<EE E@<EE E@<EE E@<EE E@<EE E@<EE E@<EE- E@<EE- E@<EE- E@<EE- E@<EE- E@<EE- E@<EE- E@<EE- E@<-EE- E@<-EE- E@<-EE- E@<-EE- E@<-EE- E@<-EE- E@<-EE- E@<-EE- E@<-EE- E@<-EE- E@<-EE- E@<-EE- E@<-EE- E@<-EE- E@<-EE- E@<-EE- E@<-EE- E@<-EE- E@<-EE- E@<-EE- E@<-EE- E@<-EE- E@<-EE- E@<-EE- E@<-EE- E@<-EE- E@<-EE- E@<-EE- E@<-EE- E@<-EE- E@<-EE- E@<-EE- E@<-EE- E@<-EE- E@<-EE- E@<-EE- E@<-EE- E@<-EE- E@<-EE- E@<-EE- E@<-EE- E@<-EE- E@<-EE- E@<-EE- E@<-EE- E@<-EE- E@<-EE- E@<-EE- E@<-EE- E@<-EE- E@<-EE- E@<-EE- E@<-EE- E@<-EE- E@<-EE- E@<-EE- E@<-EE- E@<-EE- E@<-EE- E@<-EE- E@<-EE- E@<-EE- E@<-EE- E@<-EE- E@<-EE- E@<-EE- E@<-EE- E@<-EE- E@<-EE- E@<-EE- E@<-EE- E@<-EE- E@<-EE- E@<-EE- E@<-EE- E@<-EE- E@<-EE- E@<-EE- E@<-EE- E@<-EE- E@<-EE- E@<-EE- E@<-EE- E@<-EE- E@<-EE- E@<-EE- E@<-EE- E@<-EE- E@<-EE- E@<-EE- E@<-EE- E@<-EE- E@<-EE- E@<-EE- E@<-EE- E@<-EE- E@<-EE- E@<-EE- E@<-EE- E@<-EE- E@<-EE- E@<-EE- E@<-EE- E@<-EE- E@<-EE- E@<-EE-/ E@<-EE-/ E@<-EE-/ E@<-EE-/ E@<-EE-/ E@<-EE-/ E@<-EE-/ E@<-EE/ E@<-EE/ E@<-EE/ E@<-EE/ E@<-EE/ E@<-/EE/ E@<-/EE/ E@<-/EE/ E@<-/EE/ E@<-/EE/ E@<-/EE/ E@<-/EE/ E@<-/EE/ E@<-/EE/ E@<-/EE/ E@</EE/ E@</EE/ E@</EE/ E@</EE/ E@</EE/ E@</EE/ E@</EE/ E@</EE/ E@</EE/ E@</EE/ E@</EE/ E@</EE/ E@</EE/ E@</EE/ E@</EE/ E@</EE/ E@</EE/ E@</EE/ E@</EE/ E@</EE/ E@</EE/ E@</EE/ E@</EE/ E@</EE/ E@</EE/ E@</EE/ E@</EE/ E@</EE/ E@</EE/ E@</EE/ E@</EE/ E@</EE/ E@</EE/ E@</EE/ E@</EE/ E@</EE/ E@</EE/ E@</EE/ E@</EE/ E@</EE/ E@</EE/ E@</EE/ E@</EE/ E@</EE/ E@</EE/ E@</EE/ E@</EE/ E@</EE/ E@</EE/ E@</EE/ E@</EE/ E@</EE/ E@</EE/ E@</EE/ E@</EE/ E@</EE/ E@</EE/ E@</EE/ E@</EE/ E@</EE/ E@</EE/ E@</EE/ E@</EE/ E@</EE/ E@</EE/ E@</EE/ E@</EE/ E@</EE/ E@</EE/ E@</EE/ E@</EE/ E@</EE/ E@</EE/ E@</EE/ E@</EE/ E@</EE/ E@</EE/ E@</EE/ E@</EE/ E@</EE/ E@</EE/ E@</EE/ E@</EE/ E@</EE/ E@</EE/ E@</EE/ E@</EE/ E@</EE/ E@</EE/ E@</EE/ E@</EE/ E@</EE/ E@</EE/ E@</EE/ E@</EE/ E@</EE/ E@</EE/ E@</EE/ E@</EE/ E@</EE/ E@</EE/ E@</EE/ E@</EE/ E@</EE/ E@</EE/ E@</EE/ E@</EE/ E@</EE/ E@</EE/ E@</EE/ E@</EE/ E@</EE E@</EE E@</EE E@</EE E@</EE E@</EE0 E@</EE0 E@</EE0 E@</EE0 E@</EE0 E@</EE0 E@<EE0 E@<EE0 E@<EE0 E@<0EE0 E@<0EE0 E@<0EE0 E@<0EE0 E@<0EE0 E@<0EE0 E@<0EE0 E@<0EE0 E@<0EE0 E@<0EE0 E@<0EE0 E@<0EE0 E@<0EE0 E@<0EE0 E@<0EE0 E@<0EE0 E@<0EE0 E@<0EE0 E@<0EE0 E@<0EE0 E@<0EE0 E@<0EE0 E@<0EE0 E@<0EE0 E@<0EE0 E@<0EE0 E@<0EE0 E@<0EE0 E@<0EE0 E@<0EE0 E@<0EE0 E@<0EE0 E@<0EE0 E@<0EE0 E@<0EE0 E@<0EE0 E@<0EE0 E@<0EE0 E@<0EE0 E@<0EE0 E@<0EE0 E@<0E0 E@<0E0 E@<0E0 E@<0E0 E@<0E0 E@<0E0 E@<0E0 E@<0E0 E@<00 E@<00 E@<00 E@<00 E@<00 E@<00 E@<00 E@<00 E@<00 E@<00 E@<00 E@<00 E@<00 E@<00 E@<00 E<00 E<00 E<00 E<00 E<00 E<00 E<00 E<00 E<00 E<00 E<00 E<00 E<0 E0 E0 E E E E E E E E E E E E E E E E EG EG G G G GG GG GG >GG >GG >GG G>GG G>GG G>GG G>GG G>GG G>GG G>GG G>GG G>GG G>GG G>GG G>GG G>GG G>GG G>GG G>GG G>GG G>GG G>GG G>GG G>GG G>GG G>GG G>GG G>GG G>GG G>GG G>GG G>GG G>GG G>GG G>GG G>GG G>GG G>GG G>GG G>GG G>GG G>GG G>GG G>GG G>GG G>GG G>GG G>GG G>GG G>GG G>GG G>GG G>GG G>GG G>GG G>GG G>GG G>GG G>GG G>GG G>GG G>GG G>GG G>GG G>GG G>GG G>GG G>GG G>GG G>GG G>GG G>GG G>GG G>GG G>GG G>GG G>GG G>GG G>GG G>GG G>GG G>GG G>GG G>GG G>GG G>GG G>GG G>GG G>GG G>GG G>GG G>GG G>GG G>GG G>GG G>GG G>GG G>GG G><GG G><GG G><GG G><GG G><GG G><GG G><GHG G><GHG G><GHG GH><GHG GH><GHG GH<GHG GH<GHG GH<GHG GH<GHGH GH<GHGH GH<GHGH GH<GHGH GHE<GHGH GHE<GHH HE<GHH HE<GHH HE<GHH HE<GHH HE<GHH HE<GHH HE<GHH HE<HH HE<HH HE<HH HE<HH HE<HH HE<HH HE<4HH4 HE<4HH4 HE<4HH4 HE<4HH4 HE<4HH4 HE<4HH4 HE<4HH4 HE<4HH4 HE<4HH4 HE<4HH4 HE<4HH4 HE<4HH4 HE<4HH4 HE<4HH4 HE<4HH4 HE<4HH4 HE<4HH4 HE<4HH4 HE<4HH4 HE<4HH4 HE<4HH4 HE<4HH4 HE<4HH4 HE<4HH4 HE<4HH4 HE<4HH4 HE<4HH4 HE<4HH4 HE<4HH4 HE<4HH4 HE<4HH4 HE<4HH4 HE<4HH4 HE<4HH4 HE<4HH4 HE<4HH4 HE<4HH4 HE<4HH4 HE<4HH4 HE<4HH4 HE<4HH4 HE<4HH4 HE<4HH4 HE<4HH4 HE<4HH4 HE<4HH4 HE<4HH4 HE<4HH4 HE<4HH4 HE<4HH4 HE<4HH4 HE<4HH4 HE<4HH4 HE4HH4 HE4HH4 HE4HH4 HE4HH4 HE4HH4 HE4HH4 HE4HH4 HE4HH4 HE4HH4 HE4HH4 HE4HH4 HE4HH4 HE4HH4 HE4HH4 HE4HH4 HE4HH4 HE4HH4 HE4HH4 HE4HH4 HE4HH4 HE4HH4 HE4HH4 HE4HH4 HE;4HH4 HE;4HH4 HE;4HH4 HE;4HH4 HE;4HH4 HE;4HH4 HE;4H HE;4H HE;4H HE;4H HE;4H HE;4H HE;4H HJE;H HJE;H HJE;HJ HJE;HJJ HJE;HJJ HJE;HJJ HJE;HJJ HJE;HJJ HJE;HJJ HJEG;HJJ HJEG;HJJ HJG;HJJ HJG;HJJ HJG;HJJ HJG;HJJ HJG;HJJ HJG;HJJ HJG;HJJ HJG;HJJ HJG;HJJ HJG;HJJ HJG;HJJ HJG;HJJ HJG;HJJ HJG;HJJ HJG;HJJ HJG;HJJ HJG;HJJ JG;HJJ JG;HJJ JG;HJJ JG;HJJ JG;HJJ JG;HJJ JG;HJJ JG;HJJ JG;HJJ JG;HJJ JG;HJJ JG;JJ JG;JJ JG;JJ JG;JJ JG;JJ JG;JJ JG;JJ JG;JJ JG;JJ JG;JJ JG;JJ JG;JJ JG;JJ JG;JJ JG;JJ JG;JJ JG;JJ JG;JJ JG;JJ JG;JJ JG;JJ JG;JJ JG;JJ JG;JJ JG;JJ JG;JJ JG;JJ JG;JJ JG;JJ JG;JJ JG;JJ JG;JJ JGJJ JGJJ JGJJ JGJJ JGJJ JGJJ JGJJ JGJJ JGJJ JGJJ JGJJ JGJJ JGJJ JGJJ JGJJ JGJJ JGJJ JGJJ JGJJ GJJ GJJ GJJ GJJ GJJ GJJ GJJ GJ GJ GJ GJ GJ GJ GJ GJ GJ GJ GJ J J J J J J J J J J J J J L9J L9J L9J L9LJ L9LJL L9LJL L9LJL L9LJL L9LJL L9LJL L9LJL L9LJL LH9LL LH9LL LH9LL LH9LL LH9LL LH9LL LH9LL LH9LL LH9LL LH9LL LH99LL LH99LL9 LH99LL9 LH99LL9 LH99LL9 LH99LL9 LH99LL9 LH99LL9 LH99LL9 LH99LL9 LH99LL9 LH99LL9 LH99LL9 LH99LL9 LH99LL9 LH99LL9 LH99LL9 LH99LL9 LH99LL9 LH99LL9 LH99LL9 LH99LL9 LH99LL9 LH99LL9 LH99LL9 LH99LL9 LH99LL9 LH99LL9 LH99LL9 LH99LL9 LH99LL9 LH99LL9 LH99LL9 LH99LL9 LH99LL9 LH99LL9 LH99LL9 LH99LL9 LH99LL9 LH99LL9 LH99LL9 LH99LL9 LH99LL9 LH99LL9 LH99LL9 LH99LL9 LH99LL9 LH99LL9 LH99LL9 LH99LL9 LH99LL9 LH99LL9 LH99LL9 LH99LL9 LH99LL9 LH99LL9 LH99LL9 LH99LL9 LH99LL9 LH99LL9 LH99LL9 LH99LL9 LH99LL9 LH99LL9 LH99LL9 LH99LL9 LH99LL9 LH99LL9 LH99LL9 LH99LL9 LH99LL9 LH99LL9 LH99LL9 LH99LL9 LH99LL9 LH99LL9 LH99LL9 LH99LL9 LH99LL9 LH99LL9 LH99LL9 LH99LL9 LH99LL9 LH99LL9 LH99LL9 LH99LL9 LH99LL9 LH99LL9 LH99LL9 LH99LL9 LH99LLM9 LH99LLM9 LH99LLM9 LHG99LLM9 LMG99LLM9 LMG99LLM9 LMG99LMLM9 LMG99LMLM9 LMG99LMLM9 LMG99LMLM9 LMG99LMLM9 LMG99LMLM9 LMG99LMLM9 LMG9LMLM9 LMG9LMLM9 LMG9LMLM9 LMG9LMLM9 LMG9LMLM9 LMG9LMLM9 MG9MLM9 MG9MLM9 MG9MLM9 MG9MLM9 MG9MLM9 MG9MLM9 MG9MLM9 MG9MM9 MG9MM9 MG9MM9 MG9MM9 MG9MM9 MG9MM9 MG9MM9 MG9MM9 MG9MM9 MG9MM9 MG9MM9 MG9MM9 MG9MM9 MG9MM9 MG9MM9 MG9MM9 MG9MM9 MG9MM9 MG9MM9 MG9MM9 MG9MM9 MG9MM9 MG9MM9 MG9MM9 MG9MM9 MG9MM9 MG9MM9 MG9MM9 MG9MM9 MG9MM9 MG9MM9 MG9MM9 MG9MM9 MG9MM9 MG9MM9 MG9MM9 MG9MM9 MG9MM9 MG9MM9 MG9MM9 MG9MM9 MG9MM9 MG9MM9 MG9MM9 MG9MM9 MG9MM9 MG9MM9 MG9MM9 MG9MM9 MG9MM9 MG9MM9 MG9MM9 MG9MM9 MG9MM9 MG9MM9 MG9MM9 MG9MM9 MG9MM9 MG9MM9 MG9MM9 MG9MM9 MG9MM9 MG9M9 MG9M9 MG9M9 MG9M9 MG9M9 MG9M9 G9M9 G9M9 G9M9 G9M9 G9M9 G9M9 G9M9 G9M9 G9M9 GM9 GM9 GOO9 GOO9 GOO9 GOO9 GOO9 GOO9 GOO9 OGOO OGOO OGOO OGOO OGOO OGOO OGOO OGOO OGOO OGOO OGOO OGOO OGOO OGOO OGOO OGOO OGOO OGOO OGOO OGOO OGOO OGOO OOO OOO OOO OOO OHOO OHOO OHOO OHOO OHOO OHOO OHOO OHOO OHOO OH7OO OH7OO7 OH7OO7 OHE7MO7 OHE7MO7 OHE7MO7 OHE7MO7 OHE7MO7 OHE7MO7 OMHE7MO7 OMHE7MO7 OMHE7MO7 MHE7MOM7 MHE7MOM7 MHE7MOM7 MHE7MOM7 MHE7MOM7 MHE7MOM7 MHE7MOM7 MHE7MOM7 MHE7MOM7 MHE7MOM7 MHE7MOM7 MHE7MOM7 MHE7MOM7 MHE7MOM7 MHE7MOM7 MHE7MOM7 MHE7MOM7 MHE7MOM7 MHE7MOM7 MHE7MOM7 MHE7MOM7 MHE7MOM7 MHE7MOM7 MHE7MOM7 MHE7MM7 MHE7MM7 MHE7MM7 MHE7MM7 MHE7MM7 MHE7MM7 MHE7MM7 MHE7MM7 MHE7MM7 MHE7MM7 MHE7MM7 MHE7MM7 MHE7MM7 MHE7MM7 MHE7MM7 MHE7MM7 MHE7MM7 MHE7MM7 MHE7MM7 MHE7MM7 MHE7OMM7 MHE7OM7 MHE7OM7 MHE7OM7 MHE7OM7 MHE7OMO7 MHE7OMO7 MOHE7OMO7 MOHE7OMO7 MOHE7OMO7 MOHE7OMO7 MOHE7OMO7 MOHE7OMO7 MOHE7OMO7 MOHE7OMO7 OHE7OMO7 OHE7OMO7 OHE7OMO7 OHE7OMO7 OHE7OMO7 OHE7OMO7 OHE7OMO7 OHE7OMO7 OHE7OMO7 OHE7OMO7 OHE7OMO7 OHE7OMO7 OHE7OMO7 OHE7OMO7 OHE7OMO7 OHE7OMO7 OHJEOMO7 OHJEOMO7 OHJEOMO7 OHJEOMO7 OHJEOMO7 OHJEOMO7 OHJOMO7 OJOMO OJOMO OMJOMO OMJOMO OMJOMO OMJOMO OMJOMO OMJOMO OMJOMO OMJOMOM OMJOMOM OMJOMOM OMJOMOM OMJOMOM OMJOMOM OMJ5OMOM5 OMJ5OMOM5 OMJ5OMOM5 OMJ5OMOM5 OMJ5OMOM5 OMJ5OMOM5 OMJ5OMOM5 OMJ5OMOM5 OMJ5OMOM5 OMJ5OMOM5 OMJ5OMOM5 OMJ5MOM5 OMJ5MOM5 OMJ5MOM5 OMJ5MOM5 MJ5MOM5 MJ5MOM5 MJ5MOM5 MJ5MOM5 MJ5MOM5 MJ5MM5 MJ5MM5 MJ5MM5 MJ5MM5 MLJ5MLM5 MLJ5MLM5 MLJ5MLM5 MLJ5MLM5 MLJ5MLM5 MLJ5MLM5 MLJ5MLM5 MLJ5MLM5 MLJ5MLM5 MLJ5MLM5 MLJ5MLM5 MLJ5MLM5 MLJ5MLM5 MLJ5MLM5 MLJ5MLM5 MLJ5MLM5 MLJ5MLM5 MLJ5MLM5 MLJ5LM5 MLJ5LM5 LJ5LM5 LJ5LML5 LJ5LML5 LJ5LML5 LJ5LML5 LJ5LML5 LJ5LML5 LJ5LML5 LJ5LML5 LJ5LML5 LJ5LML5 LJ5LML5 LJ5LML5 LJ5LML5 LJ5LL5 LJ5LL5 LJ5LL5 LJ5LL5 LJ5LL5 LJ5LL5 L5LL5 L5LL5 L5LL5 L5LL5 L5LL5 L5LL5 L5LL5 L5LL5 L5LL5 L5LL5 L5LL5 L5LL5 L5LL5 L5LL5 L5LL5 L5LL5 LLL LLL LLML LLML LMLML LMLML LMLML LMLM LMLM LMLM LMLM LMLM LMLM LMLM LMLMO LMLMO LMLMO LMLMO LMLMO LMLMO LMLMO LMLMO LMLMO LMLMO LMLMO LMLMO LMLMO LMLMO LMLMO LMLMO LMMO LMLMO LMLMO LMLMO LMLMO LMLMO LMLMO LMLMO LMLMO LMLMO4 MLMO4 MLMO4 MLMO4 MLMO4 MLMO4 MLMO4 MLMO4 MLMO4 MLMO4 MLMO4 ML4MO4 MOL4MO4 MOL4MO4 MOLC4MO4 MOLC4MO4 MOLC4MOO4 MOLC4MOO4 MOLC4MOO4 MOLC4MOO4 MOLC4MOO4 MOLC4MOO4 MOLC4MOO4 OLC4OO4 OLC4OO4 OLC4OO4 OLC4OO4 OLC4OO4 OLC4OO4 OLC4OO4 OLC4OO4 OLC4OO4 OLC4OO4 OLC4OO4 OLC4OO4 OLC4OO4 OLC4OO4 OLC4OO4 OLC4OO4 OLC4OO4 OLC4OO4 OLC4OO4 OLC4OO4 OLC4OO4 OLC4OO4 OLC4OO4 OLC4OO4 OLC4OO4 OLC4OO4 OLC4OO4 OLC4OO4 OLC4OO4 OLC4OO4 OLC4OO4 OLC4OO4 OLC4OO4 OLC4OO4 OLC4OO4 OLC4OO4 OLC4OO4 OLC4OO4 OLC4OO4 OLC4OO4 OLC4OO4 OLC4OO4 OLC4OO4 OLC4OO4 OLC4OO4 OLC4OO4 OLC4OO4 OLC4OO4 OLC4OO4 OLC4OO4 OLC4OO4 OLC4OO4 OLC4OO4 OLC4OO4 OLC4OO4 OLC4OO4 OLC4OO4 OLC4OO4 OLC4OO4 OLC4OO4 OLC4OO4 OLC4OO4 OLC4OO4 OLC4OO4 OLC4OO4 OLC4OO4 OLC4OO4 OLC4OO4 OLC4OO4 OLC4OO4 OLC4OO4 OLC4OO4 OLC4OO4 OC4OO4 OC4OO4 OC4OO OC4OO OC4OO OC4OO OC4OO OC4OO OC4OO OC4OO2 OC4OO2 OC4OO2 OC4OO2 OC4OO2 OC4OO2 OC4OO2 OC4OO2 OCOO2 OCOO2 OC2OO2 OC2OO2 OC2OO2 OC2OO2 OC2OO2 OC2OO2 OC2OO2 OC2OO2 OC2OO2 OC2OO2 OC2OO2 OC2OO2 OC2OO2 OC2OO2 OC2OO2 OC2OO2 OC2OO2 OC2OO2 OC2OO2 OC2OO2 OC2OO2 OC2OO2 OC2OO2 OC2OO2 OC2OO2 OC2OO2 OC2OO2 OC2OO2 OC2OO2 OC2OO2 OC2OO2 OC2OO2 OC2OO2 OC2OO2 OC2OO2 OC2OO2 OC2OO2 OC2OO2 OC2OO2 OC2OO2 OC2OO2 O2OO2 O2OO2 O2OO2 O2OO2 O2OO2 O2OO2 O2OO2 O2OO2 O2OO2 O2OO2 O2OO2 O2OO2 O2OO2 O2OO2 O2OO2 O2OO2 O2OO2 O2OO2 O2OO2 O2OO2 O2OO2 O2OO2 O2OO2 O2OO2 O2OO2 O2OO2 O2OO2 O2OO2 O2OO2 O2OO2 O2OO2 O2OO2 O2OO2 O2OO2 O2OO2 O2OO2 O2OO2 O2OO2 O2OO2 O2OO2 O2OO2 O2OO2 O2OO2 O2OO2 O2OO2 O2OO2 O2OO2 O2OO2 O2OO2 O2OO2 O2OO2 O2OO2 O2OO2 O2OO2 O2OO2 O2OO2 O2OO2 O2OO2 O2OO2 O2OO2 O2OO2 O2OO2 O2OO2 O2OO2 O2OO2 O2OO2 O2OO O2OO O2OO O2OO OOO OOO OOO OOO OOO OOO OOO OOO OOO OOO OOO O4OO4 O4OO4 O4OO4 OH4OO4 OH4OO4 OH4OO4 OH4OO4 OH4OO4 OH4OO4 OH4OO4 OH4OO4 OH4OO4 OH4OO4 OH4OO4 OH4OO4 OH4OO4 OH4OO4 OH4OO4 OH4OO4 OH4OO4 OH4OO4 OH4OO4 OH4OO4 OH74OO4 OH74OO4 OH74OO4 OH74OO4 H74OO4 H74OO4 H74OO4 H74OO4 H74OO4 H74OO4 H74OO4 H74OO4 H74OO4 H74OO4 H74OO4 H74OO4 H74OO4 H74OO4 H74OO4 H74O4 H74O4 H74O4 H74O4 H74O4 H74O4 H74O4 H744 H744 H744 H744 H744 H744 H744 H744 H744 H744 H744 H744 H744 H744 H744 H744 H744 H744 H744 H744 H744 H744 H744 H744 H744 H744 H744 H744 H744 H744 H744 H744 H744 H744 H744 H744 H744 H744 H744 H744 H744 H744 H744 H744 H744 H744 H74 H74 H74 H74 H74 H74 H74 H74 H74 74 74 74 74 74 7M4 7M4 7M4 7M4 5M4 5M4 5MM4 5MM4 5MM4 5MM4 5MM4 5MM4 5MM4 M5MM M5MM M5MM5 M5MM5 M5MM5 M5MM5 M5MM5 M5MM5 M5MM5 M5MM5 M5MM5 M5MM5 M5MM5 M5MM5 M5MM5 M5MM5 M95MM5 M95MM5 M95MM5 M95MM5 M95MM5 M95MM5 M95MM5 M95MM5 M95MM5 M95MM5 M95MM5 M95MM5 M95MM5 M95MM5 M95MM5 M95MM5 M95MM5 M95MM5 M95MM5 M95MM5 M95MM5 M95MM5 M95MM5 M95MM5 M95MM5 M95MM5 M95MM5 M95MM5 M95MM5 M95MM5 M95MM5 M95MM5 M95MM5 M95MM5 M95MM5 M95MM5 M95MM5 M95MM5 M95MM5 M95MM5 M95MM5 M95MM5 M95M5 M95M5 M955 M955 955 955 955 955 955 955 955 955 955 955 955 955 955 955 955 955 955 955 955 955 955 955 955 955 95 95 95 95 95 95 95 95 95 95 95 95 9 9                   L L L L 7L 7L 7L 7L 7L 7L 7L C7L C7L C7LL C7LL LC7LL7 LC7LL7 LC7LL7 LC7LL7 LC7LL7 LC7LL7 LC7LL7 LC:7LL7 LC:7LL7 LC:7LL7 LC:7LL7 LC:7LL7 LC:7LL7 LC:7LL7 LC:7LL7 LC:7LL7 LC:7LL7 LC:7LL7 LC:7LL7 LC:7LL7 LC:7LL7 LC:7LL7 LC:7LL7 LC:7LL7 LC:7LL7 LC:7LL7 LC:7LL7 LC:7LL7 LC:7LL7 LC:7LL7 LC:7LL7 LC:7LL7 LC:7LL7 LC:7LL7 LC:7LL7 LC:7LL7 LC:7LL7 LC:7LL7 LC:7LL7 LC:7LL7 LC:7LL7 LC:7LL7 LC:7LL7 LC:7LL7 LC:7LL7 LC:7LL7 LC:7LL7 LC:7LL7 LC:7LL7 LC:7LL7 LC:7LL7 LC:7LL7 LC:7LL7 LC:7LL7 LC:7LL7 LC:7LL7 LC:7LL7 LC:7LL7 LC:7LL7 LC:7LL7 LC:7LL7 LC:7LL7 LC:7LL7 LC:7LL7 LC:7LL7 LC:7LL7 LC:7LL7 LC:7LL7 LC:7LL7 LC:7LL7 LC:7LL7 LC:7LL7 LC:7LL7 LC:7LL7 LC:7LL7 LC:7LL7 LC:7LL7 LC:7LL7 LC:7LL7 LC:7LL7 LC:7LL7 LC:7LL7 LC:7LL7 LC:7LL7 LC:7LL7 LC:7LL7 LC:7LL7 LC:7LL7 LC:7LL7 LC7LL7 LC7LL7 LC7LL7 LC7LL7 LC7LL7 LC7LL7 LC7LL7 LC7LL7 LC7LL7 LC7LL7 LC7LL7 LCLL7 LCLL7 LLL7 LLL7 LLL7 LLL7 LLL7 LLL7 LLL7 LLL7 LLL7 LLL7 LLL7 LLL LLL LLL LLL LLL LLL LLL LLL LLL LLL LLL LLL LLL LLL LLL LLL LLL LLL LLL LLL LLL LLL LLL LLL LLL LLL LLL LLL LLL LLL LLL LLL LLL LLL LLL LLL LLL LLL LLL LLL LLL LLL LLL LLL LLL LLL LLL LLL LLL LLL LLL LLL LLL LLL LLL LLL LLL LLL LLL LLL LLL LLL LLL LLL LLL LLL LLL LLL LLL LLL LLL LLL LLL LLL LLL LLL LLL LLL LLL LLL LLL LLL LL LL LL L L L L L L L L L L L L L L L L L L L L L L L L L L L L            0 0J @0J @0J @0J @0J @0J @0J J@0J0 J@0JJ0 J@0JJ0 J@0JJ0 J@0JJ0 J@70JJ0 J@70JJ0 J@70JJ0 J@70JJ0 J@70JJ0 J@70JJ0 J@70JJ0 J@70JJ0 J@70JJ0 J@70JJ0 J@70JJ0 J@70JJ0 J@70JJ0 J@70JJ0 J@70JJ0 J@70JJ0 J@70JJ0 J@70JJ0 J@70JJ0 J@70JJ0 J@70JJ0 J@70JJ0 J@70JJ0 J@70JJ0 J@70JJ0 J@70JJ0 J@70JJ0 J@70JJ0 J@70JJ0 J@70JJ0 J@70JJ0 J@70JJ0 J@70JJ0 J@70JJ0 J@70JJ0 J@70JJ0 J@70JJ0 J@70JJ0 J@70JJ0 J@70JJ0 J@70JJ0 J@70JJ0 J@70JJ0 J@70JJ0 J@70JJ0 J@70JJ0 J@70JJ0 J@70JJ0 J@70JJ0 J@70JJ0 J@70JJ0 J@70JJ0 J@70JJ0 J@70JJ0 J@70JJ0 J@70JJ0 J@70JJ0 J@70JJ0 J@70JJ0 J@70JJ0 J@70JJ0 J@70JJ0 J@70JJ0 J@70JJ0 J@70JJ0 J@70JJ0 J@70JJ0 J@70JJ0 J@70JJ0 J@70JJ0 J@70JJ0 J@70JJ0 J@70JJ0 J@70JJ0 J@70JJ0 J@70JJ0 J@70JJ0 J@70JJ0 J@70JJ0 J@70JJ0 J@70JJ0 J@70JJ0 J@70JJ0 J@70JJ0 J@70JJ0 J@70JJ0 JH@70JJ0 JH@70JJ0 JH@70JJ0 JH@70JJ0 JH@70JJ0 JH@70J0 JH@70J0 JH@70J0 JH@70JH0 JH@70JH0 JH@70JH0 JH@70JH0 JH@70JH0 JH@70JH0 JH70HJH0 JH70HJH0 JH7HJH0 JH7HJH0 JH7HJH0 JH7HJH0 JH7HJH0 JH7HJH0 JH7HJH JHHJH JHHJH JHHJH JHHJH JHHJH JHHJH JHHJH JHHJH JHHJH JHHJH JHHJH JHHJH JHHJH HHJH HHJH HHJH HHH HHH HHH HHH HHH HHH HHH HHH HHH HHH HHH HHH HHH HHH HHH HHH HHH HHH HHH HHH HHH HHH HHH HHH HHH HHH HHH HHH HHH HHH HHH HHH HHH HHH HHH HHH HHH HHH HHH HHH HHH HHH HHH HHH HHH HHH HHH HHH HHH HHH HHH HH HH HH H H H H H H H H H H H H H H H H H H H H H H H H H H H H H                     FA FA FA FA FA FAF FAF FAFF FAFF FA2FF FA2FF FA2FF FA2FF FA2FF FA2FF FA2FF FA2FF2 FA2FF2 FA2FF2 FA2FF2 FA2FF2 FA>2FF2 FA>2FF2 FA>2FF2 FA>2FF2 FA>2FF2 FA>2FF2 FA>2FF2 FA>2FF2 FA>2FF2 FA>2FF2 FA>2FF2 FA>2FF2 FA>2FF2 FA>2FF2 FA>2FF2 FA>2FF2 FA>2FF2 FA>2FF2 FA>2FF2 FA>2FF2 FA>2FF2 FA>2FF2 FA>2FF2 FA>2FF2 FA>2FF2 FA>2FF2 FA>2FF2 FA>2FF2 FA>2FF2 FA>2FF2 FA>2FF2 FA>2FF2 FA>2FF2 FA>2FF2 FA>2FF2 FA>2FF2 FA>2FF2 FA>2FF2 FA>2FF2 FA>2FF2 FA>2FF2 FA>2FF2 FA>2FF2 FA>2FF2 FA>2FF2 FA>2FF2 FA>2FF2 FA>2FF2 FA>2FF2 FA>2FF2 FA>2FF2 FA>2FF2 FA>2FF2 FA>2FF2 FA>2FF2 FA>2FF2 FA>2FF2 FA>2FF2 FA>2FF2 FA>2FF2 FA>2FF2 FA>2FF2 FA>2FF2 FA>2FF2 FA>2FF2 FA>2FF2 FA>2FF2 FA>2FF2 FA>2FF2 FA>2FF2 FA>2FF2 FA>2FF2 FA>2FF2 FA>2FF2 FA>2FF2 FA>2FF2 F>2FF2 F>2FF2 F>2FF2 F>2FF2 F>2FF2 F>2FF2 F>2FF2 E>2FF2 E>2FF2 E>2FF2 E>2FF2 E>2FF2 E2FFE2 E2FFE2 EFFE2 EFFE2 EFFE2 EFFE2 EFEFE2 EFEE2 EFEE2 EFEE2 EFEE2 EFEE2 EFEE2 EFEE2 EFEE2 EFEE2 EFEE2 EEE2 EEE2 EEE2 EEE2 EEE2 EEE EEE EEE EEE EEE EEE EEE EEE EEE EEE EEE EEE EEE EEE EEE EEE EEE EEE EEE EEE EEE EEE EEE EEE EEE EEE EEE EEE EEE EEE EEE EEE EEE EEE EEE EEE EEE EEE EEE EEE EEE EEE EEE EEE EEE EEE EEE EEE EEE EEE EEE EEE EEE EEE EEE EEE EEE EEE EEE EEE EEE EEE EEE EEE EEE EEE EEE EEE EEE EEE EEE EEE EEE EEE EEE EE EE EE EE EE EE EE EE EE EE EE EE EE EE EE E E E E E E E E E FE FE FE FEF FEF FEF FEF FEF FEF FEF FEF FFEF FFEF FFEF FFEF FFEF FFEF FFEF FFEF FFEF F4FEF F4FEF FC<4FEF FC<4FF FC<4FF4 FC<4FF4 FC<4FF4 FC<4FF4 FC<4FF4 FC<4FF4 FC<4FF4 FC<4FF4 FC<4FF4 FC<4FF4 FC<4FF4 FC<4FF4 FC<4FF4 FC<4FF4 FC<4FF4 FC<4FF4 FC<4FF4 FC<4FF4 FC<4FF4 FC<4FF4 FC<4FF4 FC<4FF4 FC<4FF4 FC<4FF4 FC<4FF4 FC<4FF4 FC<4FF4 FC<4FF4 FC<4FF4 FC<4FF4 FC<4FF4 FC<4FF4 FC<4FF4 FC<4FF4 FC<4FF4 FC<4FF4 FC<4FF4 FC<4FF4 FC<4FF4 FC<4FF4 FC<4FF4 FC<4FF4 FC<4FF4 FC<4FF4 FC<4FF4 FC<4FF4 FC<4FF4 FC<4FF4 FC<4FF4 FC<4FF4 FC<4FF4 FC<4FF4 FC<4FF4 FC<4FF4 FC<4FF4 FC<4FF4 FC<4FF4 FC<4FF4 FC<4FF4 FC<4FF4 FC<4FF4 FC<4FF4 FC<4FF4 FC<4FF4 FC<4FF4 FC<4FF FC<4FF FC<4FF FC<4FF FC<4FF FC<4FF FC<FF FC<FF FC<FF FC<FF FC<FF FC<FF FC<FF FC<FF FC<FF F<FF F<FF F<FF F<FF F<FF F<FF FC<FF FCFF FCFF FCFF FCFF FCFF FCFF FCFF FCFFC FCFFC FCFCFC FCFCFC FCFCFC FCFCC CCC CCC CCC CCC CCC CCC CCC CCC CCC CCC CCC CCC CCC CCC CCC CCC CCC CCC CCC CCC CCC CCC CCC CCC CCC CCC CCC CCC CCC CCC CCC CCC CCC CCC CCC CCC CCC CCC CCC CCC CCC CCC CCC CCC CCC CCC CCC CCC CCC CCC CCC CCC CCC CCC CCC CCC CCC CCC CCC CCC CCC CCC CCC CCC CCC CCC CCC CCC CCC CCC CCC CCC CCC CCC CCC CCC CCC CCC CCC CCC CCC CCC CCC CCC CCC CCC CC CC CC CC CC CC CC CC CC CC CC CC C C C                            E E E E EE EE EE EEE EEE EEE EAEE EAEE EAEE EAEE EAEE EAEE EA5EE EA5EE EA5EE EA5EE EA5EE EA5EE EA5EE EA<5EE5 EA<5EE5 EA<5EE5 EA<5EE5 EA<5EE5 EA<5EE5 EA<5EE5 EA<5EE5 EA<5EE5 EA<5EE5 EA<5EE5 EA<5EE5 EA<5EE5 EA<5EE5 EA<5EE5 EA<5EE5 EA<5EE5 EA<5EE5 EA<5EE5 EA<5EE5 EA<5EE5 EA<5EE5 EA<5EE5 EA<5EE5 EA<5EE5 EA<5EE5 EA<5EE5 EA<5EE5 EA<5EE5 EA<5EE5 EA<5EE5 EA<5EE5 EA<5EE5 EA<5EE5 EA<5EE5 EA<5EE5 EA<5EE5 EA<5EE5 EA<5EE5 EA<5EE5 EA<5EE5 EA<5EE5 EA<5EE5 EA<5EE5 EA<5EE5 EA<5EE5 EA<5EE5 EA<5EE5 EA<5EE5 EA<5EE5 EA<5EE5 EA<5EE5 EA<5EE5 EA<5EE5 EA<5EE5 EA<5EE5 EA<5EE5 EA<5EE5 EA<5EE5 EA<5EE5 EA<5EE5 EA<5EE5 EA<5EE5 EA<5EE5 EA<5EE5 EA<5EE5 EA<5EE5 EA<5EE5 EA<5EE5 EA<5EE5 EA<5EE5 EA<5EE5 EA<5EE5 EA<5EE5 EA<5EE5 EA<5EE5 EA<5EE5 EA<5EE5 EA<5EE5 EA<5EE5 EA<5EE5 EA<5EE5 EA<5EE5 EA<5EE5 EA<5EE5 EA<5EE5 EA<5EE5 EA<5EE5 EA<5EE5 EA<5EE5 EA<5EE5 EA<5EE5 EA<5EE5 EA<5EE5 EA<5EE5 EA<5EE5 EA<5EE5 EA<5EE5 EA<5EE5 EA<5EE5 EA<5EE5 EA<5EE5 EA<5EE5 EA<54EE5 EA<54EE5 EA<54EE5 EA<54EE5 EA<54EE5 EA<54EE5 EA<54EE5 EA<54EE5 EA<54EE5 EA<54EE5 EA<4EE5 EA<4EE5 EA<4EE5 EA<4EE54 EA<4EE54 EA<4EE54 EA<4EE54 EA<4EE54 EA<4EE54 EA<4EE54 EA<4EE54 EA<4EE4 EA<4EE4 EA<4EE4 EA<4EE4 EA<4EE4 EA<4EE4 EA<4EE4 EA<4EE4 EA<4EE4 EA<4EE4 EA<4EE4 EA<4EE4 EA<4EE4 EA<4EE4 EA<4EE4 EA<4EE4 EA<4EE4 EA<4EE4 EA<4EE4 EA<4EE4 EA<4EE4 EA<4EE4 EA<4EE4 EA<4EE4 EA<4EE4 EA<4EE4 EA<4EE4 EA<4EE4 EA<4EE4 EA<4EE4 EA<4EE4 EA<4EE4 EA<4EE4 EA<4EE4 EA<4EE4 EA<4EE4 EA<4EE4 EA<4EE4 EA<4EE4 EA<4EE4 EA<4EE4 EA<4EE4 EA<4EE4 EA<4EE4 EA<4EE4 EA<4EE4 EA<4EE4 EA<4EE4 EA<4EE4 EA<4EE4 EA<4EE4 EA<4EE4 EA<4EE4 EA<4EE4 EA<4EE4 EA<4EE4 EA<4EE4 EA<4EE4 EA<4EE4 EA<4EE4 EA<4EE4 EA<4EE4 EA<4EE4 EA<4EE4 EA<4EE4 EA<4EE4 EA<4EE4 EA<4EE4 EA<4EE4 EA<4EE4 EA<4EE4 EA<4EE4 EA<4EE4 EA<4EE4 EA<4EE4 EA<4EE4 EA<4EE4 EA<4EE4 EA<4EE4 EA<4EE4 EA<4EE4 EA<4EE4 EA<4EE4 EA<4EE4 EA<4EE4 EA<4EE4 EA<4EE4 EA<4EE4 EA<4EE4 EA<4EE4 EA<4EE4 EA<4EE4 EA<4EE4 EA<45EE4 EA<45EE4 EA<45EE4 EA<45EE4 EA<45EE4 EA<45EE4 EA<45EE4 EA<45EE4 EA<5EE EA<5EE EA<5EE EA<5EE EA<5EE EA<5EE EA<5EE EA<5EE5 EA<5EE5 EA<5EE5 EA<5EE5 EA<5EE5 EA<5EE5 EA<5EE5 EA<5EE5 EA<5EE5 EA<5EE5 EA<5EE5 EA<5EE5 EA<5EE5 EA<5EE5 EA<5EE5 EA<5EE5 EA<5EE5 EA<5EE5 EA<5EE5 EA<5EE5 EA<5EE5 EA<5EE5 EA<5EE5 EA<5EE5 EA<5EE5 EA<5EE5 EA<5EE5 EA<5EE5 EA<5EE5 EA<5EE5 EA<5EE5 EA<5EE5 EA<5EE5 EA<5EE5 EA<5EE5 EA<5EE5 EA<5EE5 EA<5EE5 EA<5EE5 EA<5EE5 A<5EE5 A<5EE5 A<5E5 A<5E5 A<5E5 A<5E5 A<5E5 A<5E5 A<5E5 A<5E5 A<5E5 A<5E5 A<5E5 A<5E5 A<5E5 A<5E5 A<5E5 A<5E5 A<55 A<55 A<55 A<55 A<55 A<55 A<55 A<55 A<55 A<55 A<55 A<55 A<55 A<55 A<55 A<55 A<55 A<55 A<55 A<55 A<55 A<55 A<55 A<55 A<55 A<55 A<55 A<55 A<55 A<55 A<55 A<55 A<55 A<55 A<55 A<55 A<55 A<55 A<55 CA<55 CA<55 CA<55 CA<5C5 CA<5C5 CA<5C5 CA<5C5 CA<5C5 CA<5C5 CA<5C5 CA<5C5 CA<57C5 CA<57C5 CA<57C5 CA<57C5 CA<57C5 CA<57C5 CA<57C5 CA<57C5 CA<57C5 CA<57C5 CA<57CC5 CA<57CC5 CA<7CC5 CA<7CC5 CA<7CC5 CA<7CC5 CA<7CC57 CA<7CC57 CA<7CC57 CA<7CC57 CA<7CC57 CA<7CC57 CA<7CC57 CA<7CC57 CA<7CC57 CA<7CC57 CA<7CC57 CA<7CC57 CA<7CC57 CA<7CC57 CA<7CC57 CA<7CC7 CA<7CC7 CA<7CC7 CA<7CC7 CA<7CC7 CA<7CC7 CA<7CC7 CA<7CC7 CA<7CC7 CA<7CC7 CA<7CC7 CA<7CC7 CA<7CC7 CA<7CC7 CA<7CC7 CA<7CC7 CA<7CC7 CA<7CC7 CA<7CC7 CA<7CC7 CA<7CC7 CA<7CC7 CA<7CC7 CA<7CC7 CA<7CC7 CA<7CC7 CA<7CC7 CA<7CC7 CA<7CC7 CA<7CC7 CA<7CC7 CA<7CC7 A<7CC7 A<7CC7 A<7CC7 A<7CC7 A<7CC7 A<7CC7 A<7CC7 A<7CC7 A<7C7 A<7C7 A<7C7 A<7C7 A<7C7 A<7C7 A<7C7 A<7C7 A<7C7 A<7C7 A<7C7 A<7C7 A<77 A<77 A<77 A<77 A<77 A<77 A<77 A<77 A<77 A<77 A<77 A<77 A<77 A<77 A<77 A<77 A<77 A<77 A<77 A<7 A<7 A<7 A<7 A<7 A<7 A<7 A<7 A<7 A<7 A<7 A<7 A<97 A<97 A<97 A<97 A<97 A<97 A<9A7 A<9A7 A<9A7 A<9A7 AA<9A AA<9A AA<9A AA<9A AA<9A AA<9A AA<9A AA<9A9 AA<9A9 AA<9A9 AA<9A9 AA<9A9 AA<9A9 AA<9A9 AA<9A9 AA<9A9 AA<9A9 AA<9AA9 AA<9AA9 AA<9AA9 AA<9AA9 AA<9AA9 AA<9AA9 AA<9AA9 AA<9AA9 AA<9AA9 AA<9AA9 AA<9AA9 AA<9AA9 AA<9AA9 AA<9AA9 AA<9AA9 AA<9AA9 AA<9AA9 AA<9AA9 AA<9AA9 AA<9AA9 AA<9AA9 AA<9AA9 AA<9AA9 AA<9AA9 AA<9AA9 AA<9AA9 AA<9AA9 AA<9AA9 AA<9AA9 AA<9AA9 AA<9AA9 AA<9AA9 AA<9AA9 AA<9AA9 AA<9AA9 AA<9AA9 AA<9AA9 AA<9AA9 AA<9AA9 AA<9AA9 AA<9AA9 AA<9AA9 AA<9AA9 AA<9AA9 AA<9AA9 AA<9AA9 AA<9AA9 AA<9AA9 AA<9AA9 AA<9AA9 AA<9AA9 AA<9AA9 AA<9AA9 AA<9AA9 AA<9AA9 AA<9AA9 AA<9AA9 AA<9AA9 AA<9AA9 AA<9AA9 AA<9AA9 AA9AA9 AA9AA9 AA9AA9 AA9AA9 AA9AA9 AA9AA9 AA9AA9 AA9AA9 A9AA9 A9AA9 A9AA9 A9AA9 A9AA9 A9AA9 A9AA9 A9AA9 A9AA9 A9AA9 A9AA9 A9AA9 9AA9 9AA9 9AA9 9AA9 9A9 99 99 99 99 99 99 99 99 9:9 9:9 9:9 9:9 9:9 9:9: 9:9: 9:9: 9:9: 9:9: 9:9: 9:9: 9:9: 9:9: :9: :9: :9: :9: :9: :9: :9: :9: :9: :9: :9: :: :: :: :: :: :: :: :: :: :: :: :: :: :: :: :: :: :: :: :: :: :: :: :: :: :: :: :: :: :: :: :: :: :: :: :: :: :: :: :: :: :: :: :: :: :: :: :: :: :: :: :: :: :: :: :: :: :: :: :: :: :: :: :: :: :: :: :: :: :: :: :: :: :: :: :: :: :: :: :: :: :: :: :: :: :: :: :: :: :: :9:9 :9:9 9:9 9:9 9:9 9:9 9:9 =9:9 =9:9 =9:9 =9:9 =9:9 @=9:9 @=9:9 @=9:9 @=9:9 @=9:9 @=9:9 @=9:9 @=9:9 @=9E:9 @=9E:9 @=9E:9 E@=9E9 E@=9E9 E@=9EE9 E@=9EE9 E@=9EE9 E@=9EE9 E@=9EE9 E@=9EE9 E@=9EE9 E@=9EE9 E@=9EE9 E@=9EE9 E@=9EE9 E@=9EE9 E@=9EE9 E@=9EE9 E@=9EE9 E@=9EE9 E@=9EE9 E@=9EE9 E@=9EE9 E@=9EE9 E@=9EE9 E@=9EE9 E@=9EE9 E@=9EE9 E@=9EE9 E@=9EE9 E@=9EE9 E@=9EE9 E@=9EE9 E@=9EE9 E@=9EE9 E@=9EE9 E@=9EE9 E@=9EE9 E@=9EE9 E@=9EE9 E@=9EE9 E@=9EE9 E@=9EE9 E@=9EE9 E@=9EE9 E@=9EE9 E@=9EE9 E@=9EE9 E@=9EE9 E@=9EE9 E@=9EE9 E@=9EE9 E@=9EE9 E@=9EE9 E@=9EE9 E@=9EE9 E@=9EE9 E@=9E9 E@=9E9 E@=9E9 E@=9E9 E@=9E9 E@=9E9 E@=9E9 E@=99 E@=99 E@=99 E@=99 E@=99 E@=99 @=99 @=99 @=99 @=99 @=99 @=99 @=99 @=99 @=99 @=99 @=99 @=99 @=99 99 99 99 99 99 99 99 99 99 99 99 979 79 79 79 79 79 79 79 79 79 79 797 797 797 797 797 797 797 797 797 797 797 797 797 797 797 797 797 797 77 77 77 77 77 77 77 77 77 77 77 77 77 77 77 77 77 77 77 77 77 77 77 77 77 77 77 77 77 77 77 77 77 77 77 77 77 77 77 77 77 77 77 77 77 77 77 77 77 77 77 77 77 77 77 77 77 77 77 77 77 77 77 77 77 77 77 77 77 77 77 77 77 77 77 77 77 77 77 77 77 77 77 77 77 77 77 77 77 77 77 77 77 757 757 757 757 757 757 757 757 757 757 757 757 757 757 7575 7575 575 55 J55 J55 J5J5 J5J5 J5J5 J5J5 J5J5 J5J5 J5J5 JE>5J5 JE>5J5 JE>5J5 JE>5JJ5 JE>5JJ5 JE>5JJ5 JE>5JJ5 JE>5JJ5 JE>5JJ5 JE>5JJ5 JE>5JJ5 JE>5JJ5 JE>5JJ5 JE>5JJ5 JE>5JJ5 JE>5JJ5 JE>5JJ5 JE>5JJ5 JE>5JJ5 JE>5JJ5 JE>5JJ5 JE>5JJ5 JE>5JJ5 JE>5JJ5 JE>5JJ5 JE>5JJ5 JE>5JJ5 JE>5JJ5 JE>5JJ5 JE>5JJ5 JE>5JJ5 JE>5JJ5 JE>5JJ5 JE>5JJ5 JE>5JJ5 JE>5JJ5 JE>5JJ5 JE>5JJ5 JE>5JJ5 JE>5JJ5 JE>5JJ5 JE>5JJ5 JE>5JJ5 JE>5JJ5 JE>5JJ5 JE>5JJ5 JE>5JJ5 JE>5JJ5 JE>5JJ5 JE>5JJ5 JE>5JJ5 JE>5JJ5 JE>5JJ5 JE>5JJ5 JE>5JJ5 JE>5JJ5 JE>5JJ5 JE>5JJ5 JE>5JJ5 JE>5JJ5 JE>5JJ5 JE>5JJ5 JE>5JJ5 JE>5JJ5 JE>5JJ5 JE>5JJ5 JE>5JJ5 JE>5JJ5 JE>5JJ5 JE>5JJ5 JE>5JJ5 JE>5JJ5 JE>5JJ5 JE>5JJ5 JE>5JJ5 JE>5JJ5 JE>5JJ5 JE>5JJ5 JE>5JJ5 JE>5JJ5 JE>5JJ5 JE>5JJ5 J>5JJ5 J>5JJ5 J5JJ5 J5JJ5 J5JJ5 J5JJ5 J5JJ54 J5JJ54 J5JJ54 J5JJ54 J5JJ54 J54JJ54 J54JJ54 J4JJ54 J4JJ54 J4JJ54 J4JJ54 J4JJ54 J4JJ54 J4JJ54 J4JJ54 J4JJ54 J4JJ54 J4JJ54 J4JJ4 J4JJ4 J4JJ4 J4JJ4 J4JJ4 J4JJ4 J4JJ4 J4JJ4 J4JJ4 J4JJ4 J4JJ4 J4JJ4 J4JJ4 J4JJ4 J4JJ4 J4JJ4 J4JJ4 J4JJ4 J4JJ4 J4JJ4 J4JJ4 J4JJ4 J4JJ4 J4JJ4 J4JJ4 J4JJ4 J4JJ4 J4JJ4 J4JJ4 J4JJ4 J4JJ4 J4JJ4 J4JJ4 J4JJ4 J4JJ4 J4JJ4 J4JJ4 J4JJ4 J4JJ4 J4JJ4 J4JJ4 J4JJ4 J4JJ4 J4JJ4 J4JJ4 J4JJ4 J4JJ4 J4JJ4 J4JJ4 J4JJ4 J4JJ4 J4JJ4 J4JJ4 J4JJ4 J4JJ4 J4JJ4 J4JJ4 J4JJ4 J4JJ4 J4JJ4 J4JJ4 J4JJ4 J4JJ4 J4JJ4 J4JJ4 J4JJ4 J4JJ4 J4JJ4 J4JJ4 J4JJ4 J4JJ4 J4JJ4 J4JJ4 J4JJ4 J4JJ4 J4JJ4 J4JJ4 J4JJ4 J4JJ4 J4JJ4 J4JJ4 J4JJ4 J4JJ4 J4JJ4 J4JJ4 J4JJ4 J4JJ4 J4JJ4 J4JJ4 J4JJ4 J4JJ4 J4JJ4 J4JJ4 JJJ4 JJJ4 JJJ4 JJJ4 JJJ4 JJJ4 JJJ4 JJJ JJJ J2JJ J2JJ J2JJ J2JJ J2JJ J2JJ J2JJ J2JJ J2JJ J2JJ2 J2JJ2 J2JJ2 J2JJ2 J2JJ2 J2JJ2 J2JJ2 J2JJ2 J2JJ2 J2JJ2 J2JJ2 J2JJ2 J2JJ2 J2JJ2 J2JJ2 J2JJ2 J2JJ2 J2JJ2 J92JJ2 J92JJ2 J92JJ2 J92JJ2 JE92JJ2 JE92JJ2 JE92JJ2 JE92JJ2 JE92JJ2 JE92JJ2 E92JJ2 E92JJ2 E92JJ2 E92JJ2 E92JJ2 E92JJ2 E92JJ2 E92JJ2 E92J2 E92J2 E92J2 E92J2 E92J2 E92J2 E92J2 E92J2 E92J2 E92J2 E92J2 E92J2 E92J2 E92J2 E92J2 E92J2 E92J2 E922 E922 E922 E922 E922 E922 E922 E922 E922 E922 E922 E922 E922 E922 E922 E922 E922 E922 E922 E922 E922 E922 E922 E922 E922 E922 E922 E922 E922 E922 E922 E922 E922 E922 E922 E922 E922 E922 E922 E922 E922 E922 922 922 922 922 922 922 922 22 22 22 22 22 22 22 22 22 22 22 22 22 L2 L2 L2 L2 L21 L21 L21 L21 L21 L1 L1 L1L1 L1L1 L1L1 L1L1 L1L1 L1L1 L1LL1 L1LL1 L1LL1 L1LL1 L1LL1 L1LL1 L1LL1 L1LL1 L1LL1 L1LL1 L1LL1 L1LL1 L1LL1 L1LL1 L1LL1 L1LL1 L1LL1 L1LL1 L1LL1 L1LL1 L1LL1 L1LL1 L1LL1 L1LL1 L1LL1 L1LL1 L1LL1 L1LL1 L1LL1 L1LL1 L1LL1 L1LL1 L1LL1 L1LL1 L1LL1 L1LL1 L1LL1 L1LL1 L1LL1 L1LL1 L1LL1 L1LL1 L1LL1 L1LL1 L1LL1 L1LL1 L1LL1 L1LL1 L1LL1 L1LL1 L1LL1 L1LL1 L1LL1 L1LL1 L1LL1 L1LL1 L1LL1 L1L1 L1L1 L1L1 1L1 1L1 1L1 1L1 1L1 1L1 1L1 1L1 1L1 11 11 11 11 11 11 11 11 11 11 11 11 11 11 11 11 11 11 11 11 11 11 11 11 11 1 1               M M M M M M M2 M2 M2 M2 ME2 ME2M ME2M ME2M ME2M2 ME2M2 ME2M2 ME2M2 ME2M2 ME2M2 ME2M2 ME2M2 ME2MM2 ME2MM2 ME2MM2 ME2MM2 ME2MM2 ME2MM2 ME2MM2 ME2MM2 ME2MM2 ME2MM2 ME>2MM2 ME>2MM2 ME>2MM2 ME>2MM2 ME>2MM2 ME>2MM2 ME>2MM2 ME>2MM2 ME>2MM2 ME>2MM2 ME>2MM2 ME>2MM2 ME>2MM2 ME>2MM2 ME>2MM2 ME>2MM2 ME>2MM2 ME>2MM2 ME>2MM2 ME>2MM2 ME>2MM2 ME>2MM2 ME>2MM2 ME>2MM2 ME>2MM2 ME>2MM2 ME>2MM2 ME>2MM2 ME>2MM2 ME>2MM2 ME>2MM2 ME>2MM2 ME>2MM2 ME>2MM2 ME>2MM2 ME>2MM2 ME>2MM2 ME>2MM2 ME>2MM2 ME>2MM2 ME>2MM2 ME>2MM2 ME>2MM2 ME>2MM2 ME>2MM2 ME>2MM2 ME>2MM2 ME>2MM2 ME>2MM2 ME>2MM2 ME>2MM2 ME>2MM2 ME>2MM2 ME>2MM2 ME>2MM2 ME>2MM2 ME>2MM2 ME>2MM2 ME>2MM2 ME>2MM2 ME>2MM2 ME>2MM2 ME>2MM2 ME>2MM2 ME>2MM2 ME>2MM2 ME>MM2 ME>MM2 ME>MM2 ME>MM2 ME>MM2 ME>MM2 ME>MM2 ME>MM2 ME>MM2 ME>MM2 ME>MM2 ME>MM2 ME>MM2 ME>MM2 ME>MM ME>MM ME>MM ME>MM ME>MM ME>MM ME>MM ME>MM ME>MM ME>MM ME>MM ME>MM ME>MM ME>MM ME>MM ME>MM ME>MM ME>MM ME>MM ME>MM ME>MM ME>MM ME>MM ME>MM ME>MM ME>MM ME>MM ME>MM ME>MM ME>MM ME>MM ME>MM ME>MM ME>MM ME>MM ME>MM ME>MM ME>MM ME>MM ME>MM ME>MM ME>MM ME>MM ME>MM ME>MM ME>MM ME>MM ME>MM ME>MM ME>MM ME>MM ME>MM ME>MM ME>MM ME>MM ME>MM ME>MM ME>MM ME>MM ME>MM ME>MM ME>MM ME>MM ME>MM ME>MM ME>MM ME>MM ME>MM ME>MM ME>MM ME>MM ME>MM ME>MM ME>MM ME>MM ME>MM ME>MM ME>MM ME>MM ME>MM ME>MM ME>MM ME>MM ME>MM ME>MM ME>MM ME>MM ME>MM ME>MM ME>MM ME>MM ME>MM ME>MM ME>MM ME>MM ME>MM ME>MM ME>MM ME>MM ME>MM ME>MM ME>MM ME>MM ME>MM ME>MM ME>MM ME>MM ME>MM ME>MM ME>MM ME>MM ME>MM ME>MM ME>MM ME>MM ME>MM ME>MM ME>MM ME>MM ME>MM ME>MM ME>MM ME>MM ME>MM ME>MM ME>MM ME>MM ME>MM ME>MM ME>MM ME>MM ME>MM ME>MM ME>MM ME>MM ME>MM ME>MM ME>MM ME>4MM ME>4MM ME>4MM ME>4MM ME>4MM ME>4MM ME>4MM ME>4MM ME>4MM ME>4MM ME>4MM4 ME>4MM4 ME>4M4 ME>4M4 ME>4M4 ME>4M4 ME>4M4 E>4M4 E>4M4 E>4M4 E>44 E>44 E>44 E>44 E>44 E>44 E>44 E>44 E>44 E>44 E>44 E>44 E>44 E>44 E>44 E>44 E>44 E>44 E>44 E>44 E>44 E>44 E>44 E>44 E>44 E>44 E>44 E>44 E>44 E>44 E>44 E>44 E>44 E>44 E>44 E>44 E>44 E>44 E>44 E>44 E>44 E>44 E>44 E>44 E>44 E>44 E>44 E>44 E>44 E>44 E>44 E>44 E>44 E>44 E>44 E>44 E>44 E>44 E>44 E>44 E>44 E>44 E>44 E>44 E>44 E>44 E>44 E>44 E>44 E>44 E>44 E>44 E>44 E>44 E>4 E>4 E>4 E>4 E>4 E>4 E>4 E>4 E>4 E>4 E>4 E>4 E>4 OE> OE> OE> OE> OE> OE>O OE>OO OE>OO OE>OO OE>OO OE>OO OE>OO OE>OO OE>OO OE>OO OE>OO OE>OO OE>OO OE>OO OE>OO OE>OO OE>OO OE>OO OE>OO OE>OO OE>OO OE>OO OE>OO OE>OO OE>OO OE>OO OE>OO OE>OO OE>OO OE>OO OE>OO OE>OO OE>OO OE>OO OE>OO OE>OO OE>OO OE>OO OE>OO OE>OO OE>OO OE>OO OE>OO OE>OO OE>OO OE>OO OE>OO OE>OO OE>OO OE>OO OE>OO OE>OO OE>OO OE>OO OE>OO OE>OO OE>OO OE>OO OE>OO OE>OO OE>OO OE>OO OE>OO OE>OO OE>OO OE>OO E>OO E>OO E>OO E>OO E>OO E>OO E>OO E>OO E>OO E>OO E>OO E>OO E>OO E>OO E>O E>O E>O E>O E>O E> E> E> E> E> E> E> E> E> E> E> E> E> E> E> E> E> E> E> E> E> E> E> E> E> E> E> E> E> E> E> E> E> E> E> E> E> E> E> E> E> QE> QE> QE> QE> QE> QE>5 QE>5 QE>5 QE>5 QE>Q5 QE>Q5 QE>5Q5 QE>5Q5 QE>5Q5 Q>5Q5 Q>5Q5 Q>5QQ5 Q>5QQ5 Q>5QQ5 Q>5QQ5 Q>5QQ5 Q>5QQ5 Q>5QQ5 Q>5QQ5 Q>5QQ5 Q>5QQ5 Q>5QQ5 Q>5QQ5 Q>5QQ5 Q>5QQ5 Q>5QQ5 Q>5QQ5 Q>5QQ5 Q5QQ5 Q5QQ5 Q5QQ5 Q5QQ5 Q5QQ5 Q5QQ5 Q5QQ5 Q5QQ5 Q5QQ5 Q5QQ5 Q5QQ5 Q5QQ5 Q5QQ5 Q5QQ5 Q5QQ5 Q5QQ5 Q5QQ5 Q5QQ5 Q5QQ5 Q5QQ5 Q5QQ5 Q5QQ5 Q5QQ5 Q5QQ5 Q5QQ5 Q5QQ5 Q5QQ5 Q5QQ5 Q5QQ5 Q5QQ5 Q5QQ5 Q5QQ5 Q5QQ5 Q5QQ5 Q5QQ5 Q5QQ5 Q5QQ5 Q5QQ5 Q5QQ5 Q5QQ5 Q5QQ5 Q5QQ5 Q5QQ5 Q5QQ5 Q5QQ5 Q5QQ5 Q5QQ5 Q5QQ5 Q5QQ5 Q5QQ5 Q5QQ5 Q5QQ5 Q5QQ5 Q5QQ5 Q5QQ5 Q5QQ5 Q5QQ5 Q5QQ5 Q5QQ5 Q5QQ5 Q5QQ5 Q5QQ5 Q5QQ5 Q5QQ5 Q5QQ5 Q5QQ5 Q5QQ5 Q5QQ5 Q5QQ5 QQQ5 QQQ5 QQQ5 QQQ5 QQQ5 QQQ5 QQQ5 QQQ5 QQQ5 QQQ5 QQQ5 QQQ5 QQQ5 QQQ QQQ QQOQ QQOQ QQOQ QOQOQ QOQOQ QOQOQ QOQOQ QOQOQ QOQOQ QOQOQ QOQOQ QOQOQ QOQOQ QOQOQ QOQOQ QOQOQO QOQOQO QOQOQO QOQOQO QOQOQO QOQOQO QOQOQO QOQOQO QOQOQO QOQOQO QOQOQO QOQOQO QOQOQO QOQOQO QOQOQO QOQOQO QOOQO OOQO OOQO OOQO OOQO OOQO OOQO OOQO OOQO OOQO OOQO OOQO OOQO OOQO OOQO OOO OOO OOO OOO OOO OOO OOO OOO OOO OOO OOO OOO OOO OOO OOO OOO OOO OOO OOO OOO OOO OOO OOO OOO OOO OOO OOO OOO OOO OOO OOO OOO OOO OOO OOO OOO OOO OOO OOO OOO OOO OOO OOO OOO OOO OOO OOO OOO OOO OOO OOO OOO OOO OOO OOO OOO OOO OOO OOO OOO OOO OOO OOO OOO OOO OOO OOO OOO OOO O>OO OE>OO OE>OO OE>OO OE>OO OE>OO OE>2OMO OME>2OMO OME>2OMO OME>2OMO2 OME>2OMO2 OME>2OMO2 OME>2OMO2 OME>2OMO2 OME>2OMO2 OME>2OMO2 OME>2OMO2 OME>2OMO2 OME>2OMO2 OME>2OMO2 OME>2OMO2 OME>2OMO2 OME>2OMO2 OME>2OMO2 OME>2OMO2 OME>2OMO2 OME>2OMO2 OME>2OMO2 OME>2OMOM2 OME>2OMOM2 OME>2OMOM2 OME>2OMOM2 OME>2OMOM2 OME>2OMOM2 OME>2OMOM2 OME>2OMOM2 OME>2OMOM2 OME>2OMOM2 ME>2OMOM2 ME>2OMOM2 ME>2OMOM2 ME>2OMOM2 ME>2OMOM2 ME>2MOM2 ME>2MOM2 ME>2MOM2 ME>2MOM2 ME>2MOM2 ME>2MOM2 ME>2MOM2 ME>2MOM2 ME>2MOM2 ME>2MOM2 ME>2MOM2 ME>2MOM2 ME>2MOM2 ME>2MOM2 ME>2MOM2 ME>2MOM2 ME>2MOM2 ME>2MOM2 ME>2MOM2 ME>2MOM2 ME>2MOM2 ME>2MOM2 ME>2MOM2 ME>2MM2 ME>2MM2 ME>2MM2 ME>2MM2 ME>2MM2 ME>2MM2 ME>2MM2 ME>2MM2 ME>2MM2 ME>2MM2 ME>2MM2 ME>2MM2 ME>2MM2 ME>2MM2 ME>2MM2 ME>2MM2 ME>2MM2 M>2MM2 M>2MM2 M2MM2 M2MM2 M2MM2 M2MM2 M2MM2 M2MM2 M2MM2 M2MM2 M2MM2 M2MM2 M2MM2 M2MM2 M2MM2 M2MM2 M2MM2 M2MM2 M2MM2 M2MM2 M2MM2 M2MM2 M2MM2 M2MM2 M2MM2 M2MM2 M2MM2 M2MM2 M2MM2 M2MM2 M2MM2 M2MM2 M2MM2 MMM2 MMM2 MMM2 MMM2 MMM2 MMM2 MMM2 MMM2 MMM2 MMM MMLM MLMLM MLMLM MLMLM MLMLM MLMLM MLMLM MLMLM MLMLM MLMLM MLMLM MLMLM MLMLM MLMLM MLMLM MLMLM MLMLM MLMLM MLMLM MLMLM MLMLM MLMLM MLMLML MLMLML MLMLML MLMLML MLMLML MLMLML MLMLML MLMLML MLMLML MLMLML MLMLML MLMLML LMLML LMLML LMLML LMLML LMLML LMLML LMLML LMLML LMLML LMLML LMLML LMLML LLML LLML LLML LLML LLML LLML LLML LLML LLML LLML LLML LLL LLL LLL LLL LLL LLL LLL LLL LLL LLL LLL LLL LLL LLL LLL LLL LLL LLL LLL LLL LLL LLL LLL LLL LLL LLL LLL LLL LLL LLL LLL LLL LLL LLL LLL LLL LLL LLL LLL LLL LLL LLL LLL LLL LLL LLL LLL LLL LLL LLL LLL LLL LLJL LLJL LLJL LLJL LLJL LLJL LLJL LLJL LLJL LJLJL LJLJL LJJL LJJL JJL JJL JJL J@JL J@JL J@JL J@4JL J@74JL J@74JL J@74JL J@74JL J@74JL J@74JLJ J@74JLJ J@74JLJ J@74JLJ J@74JLJ J@74JJ J@74JJ J@74JJ J@74JJ J@74JJ J@74JJ J@74JJ J@74JJ J@74JJ J@74JJ J@74JJ4 J@74JJ4 J@74JJ4 J@74JJ4 J@74JJ4 J@74JJ4 J@74JJ4 J@74JJ4 J@74JJ4 J@74JJ4 J@74JJ4 J@74JJ4 J@74JJ4 J@74JJ4 J@74JJ4 J@74JJ4 J@74JJ4 J@74JJ4 J@74JJ4 J@74JJ4 J@74JJ4 J@74JJ4 J@74JJ4 J@74JJ4 J@74JJ4 J@74JJ4 J@74JJ4 J@74JJ4 J@74JJ4 J@74JJ4 J@74JJ4 J@74JJ4 J@74JJ4 J@74JJ4 J@74JJ4 J@74JJ4 J@74JJ4 J@74JJ4 J@74JJ4 J@74JJ4 J@74JJ4 J@74JJ4 J@74JJ4 J@74JJ4 J@74JJ4 J@74JJ4 J@74JJ4 J@74JJ4 J@74JJ4 J@74JJ4 J@74JJ4 J@74JJ4 J@74JJ4 J@74JJ4 J@74JJ4 J@74JJ4 J@74JJ4 J@74JJ4 J@74JJ4 J@74JJ4 J@74JJ4 J@74JJ4 JH@74JHJ4 JH@74JHJ4 JH@74JHJ4 JH@74JHJ4 JH@74JHJ4 JH74JHJ4 JH74JHJ4 JH74JHJ4 JH74JHJ4 JH74JHJ4 JH74JHJ4 JH74JHJ4 JH74JHJ4 JH74JHJ4 JH74JHJ4 H4JHJ4 H4JHJ4 H4JHJ4 H4JHJ4 H4JHJ4 H4HJ4 H4HJH4 H4HJH4 H4HJH4 H4HJH4 HHJH4 HHJH4 HHJH4 HHJH4 HHJH4 HHJH4 HHJH4 HHJH4 HHJH4 HHJH4 HHJH4 HHJH4 HHJH4 HHJH4 HHH4 HHH4 HHH4 HHH4 HHH4 HHH4 HHH4 HHH4 HHH4 HHH4 HHH4 HHH4 HHH4 HHH4 HHH4 HHH4 HHH4 HHH4 HHH4 HHH4 HHH4 HHH HHH HHH HHH HHH HHH HHH HHH HHH HHH HHH HHH HHH HHH HHH HHH HHH HHH HHH HHH HHH HHH HHH HHH HHH HHH HHH HHH HHH HHH HHH HHH HHH HHH HHH HHH HHH HHH HHH HHH HHH HHH HHH HHH HHH HHH HHH HHH HHH HHH HHH HHH HHH HHH HHH HHH HHH HHH HHH HHH HHH HHH HHH HHH HHH HHH HHH HHH HHH HHH HHH HHH HHH HH HH HH HH HGH HGH GHGH GGH GGH GGH GGH GGH GGH G>GH G>GH G>5GH G>5GH G>5GH G>5GH G>5GH G>5GH G>5GH G>5GH G>5GH G>5GH G>5GH G>5GH G>5GH G>5GH G>5GHG G>5GHG G>5GHG G>5GHG G>5GHG G>5GG G>5GG5 G>5GG5 G>95GG5 G>95GG5 G>95GG5 G>95GG5 G>95GG5 G>95GG5 G>95GG5 G>95GG5 G>95GG5 G>95GG5 G>95GG5 G>95GG5 G>95GG5 G>95GG5 G>95GG5 G>95GG5 G>95GG5 G>95GG5 G>95GG5 G>95GG5 G>95GG5 G>95GG5 G>95GG5 G>95GG5 G>95GG5 G>95GG5 G>95GG5 G>95GG5 G>95GG5 G>95GG5 G>95GG5 G>95GG5 G>95GG5 G>95GG5 G>95GG5 G>95GG5 G>95GG5 G>95GG5 G>95GG5 G>95GG5 G>95GG5 G>95GG5 G>95GG5 G>95GG5 G>95GG5 G>95GG5 G>95GG5 G>95GG5 G>95GG5 G>95GG5 G>95GG5 G>95GG5 G>95GG5 G>95GG5 G>95GG5 G>95GG5 G>95GG5 G>95GG5 G>95GG5 G>95GG5 G95GG5 G95GG5 G95GG5 G95GG5 G95GG5 G95GG5 G95GG5 G95GG5 G95GG5 G95GG5 G95GG5 GH95GG5 GH95GG5 GH95GG5 GH95GG5 GH95GG5 GH95GHG5 GH95GHG5 GH95GHG5 GH95GHG5 GH95GHG5 GH95GHG5 GH95GHG5 GH95GHG5 GH95GHG5 GH95GHG5 GH95GHG5 GH95GHG5 GH95GHG5 GH95GHG5 GH95GHG5 GH5GHG5 GH5GHG5 GH5HG5 GHHG5 GHHG5 HHG5 HHG5 HHG HHG HHG HHG HHG HHG HHG HHG HHG HHG HHG HHG HH HH HH HH HH HH HHH HHH HHH HHH HHH HHH HHH HHH HHH HHH HHH HHH HHH HHH HHH HHH HHH HHH HHH HHH HH HH HH HH HH HH HH HH HH H H H H H H H H H H H H H H H H H H H H H H H H H H H H H H H H H H H H         H H H H H H H H H H H H H H H H H H H H HH HH HH HH HH HH HH HH HH HH HH HH HH HH HH HH HH H7H7 H7H7 H>7H7 H>7H7 H>7H7 H>7H7 H>7H7 H>77H7 H>77H7 H>77H7 H>77H7 H>77H7 H>77H7 H>77H7 H>77H7 H>77H7 H>77HH7 H>77HH7 H>77HH7 H>77HH7 H>77HH7 H>77HH7 H>77HH7 H>77HH7 H>77HH7 H>77HH7 H>77HH7 G>77HH7 G>77HH7 G>77HH7 G>77HH7 G>77HH7 G>77HH7 G>77HH7 G>77HH7 G>77HH7 G>77HH7 G>77HH7 G>77HH7 G>77HH7 G>77HH7 G>77HH7 G>77GH7 G>77GH7 G>77GH7 G>77GH7 G>77GH7 G>77GH7 G>77GH7 G>77GH7 G>77GH7 G>77GH7 G>77GH7 G>77GH7 G>77GH7 G>77GH7 G>77GH7 G>77GH7 G>77GH7 G>77GH7 G>77GH7 G>77GH7 G>77GH7 G>77GH7 G>77GH7 G>77GH7 G>77GH7 G>77GH7 G>77G7 G>77G7 G>77G7 G>77G7 G>77GG7 GH>77GG7 GH>77GG7 GH>77GG7 GH>77GG7 GH>77GG7 H>77GG7 H>77GG7 H>77GG7 H>77GG7 H>77GHG7 H>77GHG7 H>77GHG7 H>77GHG7 H>77GHG7 H>77GHG7 H>77GHG7 H>77GHG7 H>77GHG7 H>77HG7 H>77HG7 H>77HG7 H>77HG7 H>77HG7 H>77HG7 H>77HG7 H>77HG7 H>77HG7 H>77HG7 H>77HG7 H>7HG7 H>7HG7 H>7HG7 H>7HG7 H>7HG7 H>7HG7 H>7HG7 H>7HG H>7HG H>76HG H>76HG H>76HG H>76HG H>6HG H>6HGH H>6HGH H>6HGH H>6HGH HG>6HGH HG>6HGH HG>6HGH HG>6HGH HG>6HGH HG>6HH HG>6HH HG>6HH HG>6HH HG>6HH HG>6HH HG>6HH HG>6HH HG>6HH HG>6HH HG>6HH HG>6HH HG>6HGH HG>6HGH HG>6HGH HG>6HGH HG>6HGH HG>6HGH HG>6HGH HG>6HGH HG>6HGH HG>6HGH G>6HGH G>6HGH G>6HGH G>6HGH G>6HGH G>6HGH G>6HGH G>6HGH G>6HGH G>6HGH G>6GH G>6GH G>6GH G>6GH G>6GH G>6GH G>6GH G>6GH G>6GH G>6GH G>6GH G>6GH G>6GHG G>6GHG G>6GHG G>6GHG G>6GHG G>6GHG G>6GHG G>6GHG G>6GHG G>6GHG G>6GHG G>6GHG G>6GHG G>6GHG G>6GHG G>6GHG G>6GHG G>6GHG G>6GHG G>6GHG G>6GG G>6GG G>6GG G>6GG G>6GG G>6GG G>6GG G>6GG G>6GG G>6GG G>6GG G>6GG G>6GG G>6GG G>6GG G>6GG G>6GG G>6GG G>6GG G>6GG G>6GG G>6GG G>6GG G>6GG G>6GG G>6GG G>6GG G>6GG G>6GG G>6GG G>GG G>GG G>GG G>GG G>GG G>GG G>GG G>GG+ G>GG+ G>7+GG+ G>7+GG+ G>7+GG+ G>7+GG+ G>7+GG+ G>7+GG+ G>7+GG+ G>7+GG+ G>7+GG+ G>7+GG+ G>7+GG+ G>7+GG+ G>7+GG+ G>7+GG+ G>7+GG+ G>7+GG+ G>7+GG+ G>7+GG+ G>7+GG+ G>7+GG+ G>7+GG+ G>7+GG+ G>7+GG+ G>7+GG+ G>7+GG+ G>7+GG+ G>7+GG+ G>7+GG+ G>7+GG+ G>7+GG+ G>7+GG+ G>7+GG+ G>7+GG+ G>7+GG+ G>7+GG+ G>7+GG+ G>7+GG+ G>7+GG+ G>7+GG+ G>7+GG+ G>7+GG+ G>7+GG+ G>7+GG+ G>7+GG+ G>7+GG+ G>7+GG+ G>7+GG+ G>7+GG+ G>7+GG+ G>7+GG+ G>7+GG+ G>7+GG+ G>7+GG+ G>7+GG+ G>7+GG+ G>7+GG+ G>7+GG+ G>7+GG+ G>7+GG+ G>7+GG+ G>7+GG+ G>7+GG+ G>7+GG+ G>7+GG+ G>7+GG+ G>7+GG+ G>7+GG+ G>7+GG+ G>7+GG+ G>7+GG+ G>7+GG+ G>7+GG+ G>7+GG+ G>7+GG+ G>7+GG+ G>7+GG+ G>7+GG+ G>7+GG+ G>7+GG+ G>7+GG+ G>7+GG+ G>7+GG+ G>7+GG+ G>7+GG+ G>7+GG+ G>7+GG+ G>7+GG+ G>7+GG+ G>7+GG+ G>7+GG+ G>7+GG+ G>7+GG+ G>7+GG+ GH>7+GG+ GH>7+GG+ GH>7+GG GH>7+GG GH>7+GG GH>7+GG GH>7+GHG H>7+GHG H>7+GHG H>7+GHG H>7+GHG H>7+GHG H>7+GHGH H>7+GHH H>79+HH H>79+HH H>79+HH H>79+HH H>79+HH H>79+HH H>79+HH H>79+HH H>79HH H>79HH H>79HH H>79HH H>79HH H>9HH H>9HH H>9HH H>9HH H>9HH H>9HH H>9HH H>9HH H>9HH H>9HH H>9HH H>9HH H>9HH H>9HH H>9HH H>9HH H>9HH H>9HH H>9HH H>9HH H>9HH H>9HH H>9HH H>9HH H>9HH H>9HH H>9HH H>9HH H>9HH H>9HH H>9HH H>9HH H>9HH H>9HH H>9HH H>9HH H>9HH H>9HH H9HH H9HH H9HH H9HH H9HH H9HH H9HH H9HH H9HH H9HH 9HH 9HH 9HH 9HH 9HH 9HH 9HH 9HH 9HH 9HH 9HH 9H 9 9 9 9 9 9 9 9 9 9 9 9 9 9 9 9 9 9 9 9 9 9 9 9 9 9              J J J J J J JJ JJ JJ JJ JJ JJ JJ JJ JJ JJ JJ JJ JJ JJ J;JJ J;JJ J;JJ J;JJ7 J;JJ7 J;JJ7 J;JJ7 J;7JJ7 J;7JJ7 J;7JJ7 J;7JJ7 J;7JJ7 J;7JJ7 J;7JJ7 JC;7JJ7 JC;7JJ7 JC;7JJ7 JC;7JJ7 JC;7JJ7 JC;7JJ7 JC;7JJ7 JC;7JJ7 JC;7JJ7 JC;7JJ7 JC;7JJ7 JC;7JJ7 JC;7JJ7 JC;7JJ7 JC;7JJ7 JC;7JJ7 JC;7JJ7 JC;7JJ7 JC;7JJ7 JC;7JJ7 JC;7JJ7 JC;7JJ7 JC;7JJ7 JC;7JJ7 JC;7JJ7 JC;7JJ7 JC;7JJ7 JC;7JJ7 JC;7JJ7 JC;7JJ7 JC;7JJ7 JC;7JJ7 JC;7JJ7 JC;7JJ7 JC;7JJ7 JC;7JJ7 JC;7JJ7 JC;7JJ7 JC;7JJ7 JC;7JJ7 JC;7JJ7 JC;7JJ7 JC;7JJ7 JC;7JJ7 JC;7JJ7 JC;7JJ7 JC;7JJ7 JC;7JJ7 JC;7JJ7 JC;7JJ7 JC;7JJ7 JC;7JJ7 JC;7JJ7 JC;7JJ7 JC;7JJ7 JC;7JJ7 JC;7JJ7 JC;7JJ7 JC;7JJ7 JC;7JJ7 JC;7JJ7 JC;7JJ7 JC;7JJ7 JC;7JJ7 JC;7JJ7 JC;7JJ7 JC;7JJ7 JC;7JJ7 JC;7JJ7 JC;7JJ7 JC;7JJ7 JC;7JJ7 JC;7JJ7 JC;7JJ7 JC;7JJ7 JC;7JJ7 JC;7JJ7 JC;7JJ7 JC;7JJ7 JC;7JJ7 JC;7JJ7 JC;7JJ7 JC7JJ7 JC7JJ7 JC7JJ7 JC7JJ7 JC7JJ7 JC7JJ7 JC7JJ7 JC7JJ7 JC7JJ7 JC7JJ JC7JJ JC7JJ JC7JJ JC7JJ JC7JJ JC7JJ JC7JJ JC7JJ JC7JJ JCJJ JCJJ JCJJ JCJJ JCJJ JCJJ JCJJ JCJJ JCJJ JCJJ JCJJ JCJJ JCJJ JCJJ JCJJ JCJJ JCJJ JCJJ JCJJ JCJJ JCJJ JCJJ JCJJ JCJJ JCJJ JCJJ JCJJ JCJJ JCJJ JCJJ JCJJ JCJJ JCJJ JCJJ JCJJ JCJJ JCJJ JCJJ JCJJ JCJJ JCJJ JCJJ JCJJ JCJJ JCJJ JCJJ JCJJ JCJJ JCJJ CJJ CJJ CJJ CJJ CJJ CJJ CJJ CJJ CJJ CJJ CJJ CJJ CJJ CJJ CJJ CJJ CJJ CJJ CJJ CJJ CJJ CJJ CJJ CJJ CJJ CJJ CJJ CJJ CJJ CJJ CJJ CJ CJ CJ CJ CJ CJ CJ CJ CJ CJ CJ CJ C C C C C C C C C C C C C C C C C C C C C C C C C C C C C C C< C< C<9 C<9 C<9 C<99 C<99 HC<9H9 HC<9H9 HC<9H9 HC<9H9 HC<9H9 HC<9H9 HC<9HH9 HC<9HH9 HC<9HH9 HC<9HH9 HC<9HH9 HC<9HH9 HC<9HH9 HC<9HH9 HC<9HH9 HC<9HH9 HC<9HH9 HC<9HH9 HC<9HH9 HC<9HH9 HC<9HH9 HC<9HH9 HC<9HH9 HC<9HH9 HC<9HH9 HC<9HH9 HC<9HH9 HC<9HH9 HC<9HH9 HC<9HH9 HC<9HH9 HC<9HH9 HC<9HH9 HC<9HH9 HC<9HH9 HC<9HH9 HC<9HH9 HC<9HH9 HC<9HH9 HC<9HH9 HC<9HH9 HC<9HH9 HC<9HH9 HC<9HH9 HC<9HH9 HC<9HH9 HC<9HH9 HC<9HH9 HC<9HH9 HC<9HH9 HC<9HH9 HC<9HH9 HC<9HH9 HC<9HH9 HC<9HH9 HC<9HH9 HC<9HH9 HC<9HH9 HC<9HH9 HC<9HH9 HC<9HH9 HC<9HH9 HC<9HH9 HC<9HH9 HC<9HH9 HC<9HH9 HC<9HH9 HC<9HH9 HC<9HH9 HC9HH9 HC9HH9 HC9HH9 HC9HH9 HC9HH9 HC9HH9 HC9HH9 HC9HH9 HC9HH9 HC9HH9 HC9HH9 HC9HH9 HC9HH9 HC9HH9 HC9HH9 HC9HH9 HC9HH9 HC9HH9 HC9HH9 HC9HH9 HC9HH9 HC9HH9 HC9HH9 HC9HH9 HC9HH9 HC9HH9 HC9HH9 HC9HH9 HCHH9 HCHH9 HCHH9 HCH9 HCH9 HCH9 HCH9 HGCH9 HGCH9 HGCH9 HGCH9 HGCG9 HGCG9 HGCG9 HGCG HGCG HGCG HGCG HGCGG HGCGG HGCGG HGCGG HGCGG HGGG HGGG HGGG HGGG HGGG HGGG HGGG HGGG GGG GGG GGG GGG GGG GGG GGG GGG GGG GGG GGG GGG GGG GGG GGG GGG GGG GGG GGG GGG GGG GGG GGG GGG GGG GGG GGG GGG GGG GGG GGG GGG GGG GGG GGG GGG GGG GGG GGG GGG GGG GGG GGG GGG GGG GGG GGG GGG GGG GGG GGG GGG GGG GGG GGG GGG GGG GGG GGG GGG GGG GGG GGG GGG GGG GGG GGG GGG GGG GGG GGG GGG GGG GGG GGG GGG GG GG GG G G G                       7 7 >7 >77 >77 >77 >77 >77 >7E7 >7E7 >7E7 >7E7 >7E7 E>7E7 E>7E7 E>7E7 E>7E7 E>7E7 E>7E7 E>7EE7 E;>7EE7 E;>7EE7 E;>7EE7 E;>7EE7 E;>7EE7 E;>7EE7 E;>7EE7 E;>7EE7 E;>7EE7 E;>7EE7 E;>7EE7 E;>7EE7 E;>7EE7 E;>7EE7 E;>7EE7 E;>7EE7 E;>7EE7 E;>7EE7 E;>7EE7 E;>7EE7 E;>7EE7 E;>7EE7 E;>7EE7 E;>7EE7 E;>7EE7 E;>7EE7 E;>7EE7 E;>7EE7 E;>7EE7 E;>7EE7 E;>7EE7 E;>7EE7 E;>7EE7 E;>7EE7 E;>7EE7 E;>7EE7 E;>7EE7 E;>7EE7 E;>7EE7 E;>7EE7 E;>7EE7 E;>7EE7 E;>7EE7 E;>7EE7 E;>7EE7 E;>7EE7 E;>7EE7 E;>7EE7 E;>7EE7 E;>7EE7 E;>7EE7 E;>7EE7 E;>7EE7 E;>7EE7 E;>7EE7 E;>7EE7 E;>7EE7 E;>7EE7 E;>7EE7 E;>7EE7 E;>7EE7 E;>7EE7 E;>7EE7 E;>7EE7 E;>7EE7 E;>7EE7 E;>7EE7 E;>7EE7 E;>7EE7 E;>7EE7 E;>7EE7 E;>7EE7 E;>7EE7 E;>7EE7 E;>7EE7 E;>7EE7 E;>7EE7 E;>7EE7 E;>7EE7 E;>7EE7 E;>7EE7 E;>7EE7 E;>7EE7 E;>7EE7 E;>7EE7 E;>7EE7 E;>7EE7 E;>7EEC7 E;>7EEC7 E;>7EEC7 E;>7EEC7 E;>7EEC E;>7EEC E;>7EEC E;>7EEC E;>7EEC E;>7EEC E;>7EEC E;>7EEC E;>7EEC EC;>7EEC EC;>7EEC C;>EEC C;>EEC C;>EEC C;>EEC C;>EEC C;>ECC C;>ECC C;>ECC C;>ECC C;>ECC C;>ECC C;>ECC C;>ECC C;>CC C;>CC C;>CC C;>CC C;>CC C;>CC C;>CC C;>CC C;>CC C;>CC C;>CC C;>CC C;>CC C;>CC C;>CC C;>CC C;>CC C;>CC C;>CC C;>CC C;>CC C;>CC C;>CC C;>CC C;>CC C;>CC C;>CC C;>CC C;>CC C;>CC C;>CC C;>CC C;>CC C;>CC C;>CC C;>CC C;>CC C;>CC C;>CC C;>CC C;>CC C;>CC C;>CC C;>CC C;>CC C;>CC C;>CC C;>CC C;>CC C;>CC C;>CC C;>CC C;>CC C;>CC C;>CC C;>CC C;>CC C;>CC C;>CC C;>CC C;>CC C;>CC C;>CC C;>CC C;>CC C;>CC C;>CC C;>CC C;>CC C;>CC C;>CC C;>CC C;>CC C;>CC C;>CC C;>CC C;>CC C;>CC C;>CC C;>CC C;>CC C;>C C;>C C;>C C;>C C;>C C;>C C;>C C;>C C;>C C;>C C;>C C;>C C;>C C;>C C;>C C;>C C;>C C;>C C;>CE C;>CE C;>CE C;>CE C;>CE C;>CE C;>CE C;>CE5 C;>CE5 C;>CE5 C;>CE5 C;>CE5 C;>CE5 C;>CE5 ;>5CE5 ;>5CE5 ;>5CE5 ;>5CE5 ;>5E5 ;>5E5 ;>5E5 E;>5EE5 E;>5EE5 E;>5EE5 E;>5EE5 E;>5EE5 E;>5EE5 E;>5EE5 E;>5EE5 E;>5EE5 E;>5EE5 E;>5EE5 E;>5EE5 E;>5EE5 E;>5EE5 E;>5EE5 E;>5EE5 E;>5EE5 E;>5EE5 E;>5EE5 E;>5EE5 E;>5EE5 E;>5EE5 E;>5EE5 E;>5EE5 E;>5EE5 E;>5EE5 E;>5EE5 E;>5EE5 E;>5EE5 E;>5EE5 E;>5EE5 E;>5EE5 E;>5EE5 E;>5EE5 E;>5EE5 E;>5EE5 E;>5EE5 E;>5EE5 E;>5EE5 E;>5EE5 E;>5EE5 E;>5EE5 E;>5EE5 E;>5EE5 E;>5EE5 E;>5EE5 E;>5EE5 E;>5EE5 E;>5EE5 E;5EE5 E;5EE5 E;5EE5 E;5EE5 E;5EE5 E;5EE5 E;5EE5 E;5EE5 E;5EE5 E;5EE5 E;5EE5 E;5EE5 E;5EE5 E;5EE5 E;5EE5 E;5EE5 E;5EE5 E;5EE5 E;5EE5 E;5EE5 E;5EE5 E;5EE5 E;5EE E;5EE E5EE E5EE EEE EEE EEE EEE EEE EEE EEE EEE EEE EEE EEE EEE EEE EEE EEE EEE EEE EEE EEEG EEG EEG EEG EEG EEG EEG EEG EEG EEG EEG EEG EEG EEG EEG EEG EEG EGEGG EGEGG EGEGG EGEGG EGEGG EGEGG EGEGG EGEGG EGEGG EGEGG EGEGG EGEGG EGEGG EGEGG EGGG EGGG EGGG EGGG GGG GGG GGG GGG GGG GGG GGG GGG GGG GGG GGG GGG GGG GGG GGG GGG GGG GGG GGG GGG GGG GGG GGG GGG GGG GGG GGG GGG GGG GGG GGG GGG GGG GGG GGG GGG GGG GGG GGG GGG GGG GGG GGG GGG GGG GGG GGG GG G G G G G G G G G G G G                                     4 4 4 4 4 4 4 4 4 4 H4 4HH4 4HH4 H4HH4 H4HH4 H@4HH4 H@4HH4 GH@4HH4 GH@4HH4 GH@4HH4 GH@4HH4 GH@4HH4 GHC@4HH4 GHC@4HH4 GHC@4HH4 GHC@4HH4 GHC@4HH4 GHC@4HH4 GHC@4HH4 GHC@4HH4 GHC@4HH4 GHC@4HH4 GHC@4HH4 GHC@4HH4 GHC@4HH4 HC@4HH4 HC@4HH4 HC@4HH4 HC@4HH4 HC@4HH4 HC@4HH4 HC@4HH4 HC@4HH4 HC@4HH4 HC@4HH4 HC@4HH4 HC@4HH4 HC@4HH4 HC@4HH4 HC@4HH4 HC@4HH4 HC@4HH4 HC@4HH4 HC@4HH4 HC@4HH4 HC@4HH4 HC@4HH4 HC@4HH4 HC@4HH4 HC@4HH4 HC@4HH4 HC@4HH4 HC@4HH4 HC@4HH4 HC@4HH4 HC@4HH4 HC@4HH4 HC@4HH4 HC@4HH4 HC@4HH4 HC@4HH4 HC@4HH4 HC@4HH4 HC@4HH4 HC@4HH4 HC@4HH4 HC@4HH4 HC@4HH4 HC@4HH4 HC@4HH4 HC@4HH4 HC@4HH4 HC@4HH4 HC@4HH4 HC@4HH4 HC@4HH4 HC@4HH4 HC@4HH4 HC@4HH4 HC@4HH4 HC@4HH4 HC@4HH4 HC@4HH4 HC@4HH4 HC@4HH4 HC@4HH4 HC@4HH4 HC@4HH4 HC@4HH4 HC@4HH4 HC@4HH4 HC@4HH4 HC@4HH4 HC@4HH4 HC@4HH4 HC@4HH4 HC@4HH4 HC@4H4 HC@4H4 HC@4H4 HC@4H4 HC@4H4 HC@4H4 HC@4H4 HC@4H4 HC@4G4 HC@4G4 HC@4G4 HC@4G4 HC@4G HC@4G HC@>4G HC@>4G HGC@>GG HGC@>GG GC@>GG GC@>GG GC@>GG GC@>GG GC@>GG GC@>GG GC@>GG GC@>GG GC@>GG GC@>GG GC@>GG GC@>GG GC>GG GC>GG GC>GG GC>GG GC>GG GC>GG GC>GG GC>GG GC>GG GC>GG GC>GG GC>GG GC>GG GC>GG GC>GG GC>GG GC>GG GC>GG GC>GG GC>GG GC>GG GC>GG GC>GG GC>GG GC>GG GC>GG GC>GG GC>GG GC>GG GC>GG GC>GG GC>GG GC>GG GC>GG GC>GG GC>GG GC>GG GC>GG GC>GG GC>GG GC>GG GC>GG GC>GG GC>GG GC>GG GC>GG GC>GG GC>GG GC>GG GC>GG GC>GG GC>GG GC>GG GC>GG GC>GG GC>GG GC>GG GC>GG GC>GG GC>GG GC>GG GC>GG GC>GG GC>GG GC>GG GC>GG GC>GG GC>GG GC>GG GC>GG GC>GG GC>GG GC>GG GC>GG GC>GG GC>GG GC>GG GC>GG GC>GG GC>GG GC>GG GC>GG GC>GG GC>GG GC>GG GC>GG GC>GG GC>GG GC>GG GC>GG GC>GG GC>GG GC>GG GC>GG GC>GG GC>GG GC>GG GHC>GG GHC>GG GHC>GG GHC>GG GHC>GG GHC>@G HC>@G HC>@G HC>@G HC@G HC@G HC@HG HC@HH HC@HH HC@HH HC@HH HC@HH HC@HH HC@HH2 HC@2HH2 HC@2HH2 HC@2HH2 HC@2HH2 HC@2HH2 HC@2HH2 HC@2HH2 HC@2HH2 HC@2HH2 HC@2HH2 HC@2HH2 HC@2HH2 HC@2HH2 HC@2HH2 HC@2HH2 HC@2HH2 HC@2HH2 HC@2HH2 HC@2HH2 HC@2HH2 HC@2HH2 HC@2HH2 HC@2HH2 HC@2HH2 HC@2HH2 HC@2HH2 HC@2HH2 HC@2HH2 HC@2HH2 HC@2HH2 HC@2HH2 HC@2HH2 HC@2HH2 HC@2HH2 HC@2HH2 HC@2HH2 HC@2HH2 HC@2HH2 HC@2HH2 HC@2HH2 HC@2HH2 HC@2HH2 HC@2HH2 HC@2HH2 HC@2HH2 HC@2HH2 HC@2HH2 HC@2HH2 HC@2HH2 HC@2HH2 HC@2HH2 HC@2HH2 HC@2HH2 HC@2HH2 HC@2HH2 HC@2HH2 HC@2HH2 HC@2HH2 HC@2HH2 HC@2HH2 HC@2HH2 HC@2HH2 HC@2HH2 HC@2HH2 HC@2HH2 HC@2HH2 HC@2HH2 HC@2HH2 HC@2HH2 HC@2HH2 HC@2HH2 HC@2HH2 HC@2HH2 HC@2HH2 HC@2HH2 HC@2HH2 HC@2HH2 HC@2HH2 HC@2HH2 HC@2HH2 HC@2HH2 HC@2HH2 HC@2HH2 HC@2HH2 HC@2HH2 HC@2HH2 HC@2H2 HC@2H2 HC@2H2 HC@2H2 HC@2H2 HC@2H2 HC@2H2 HC@2H2 HC@2H2 HC@2H2 HC@2H2 HC@2H2 HC@2H2 HC@2H2 HC@A22 HC@A22 HJC@A22 HJC@A22 HJC@A2J2 HJC@A2J2 HJC@A2J2 HJC@AJJ2 HJC@AJJ2 HJC@AJJ2 JC@AJJ2 JC@AJJ2 JC@AJJ2 JC@AJJ2 JC@AJJ2 JC@AJJ2 JCAJJ2 JCAJJ2 JCAJJ2 JCAJJ2 JCAJJ2 JCAJJ2 JCAJJ2 JCAJJ JCAJJ JCAJJ JCAJJ JCAJJ JCAJJ JCAJJ JCAJJ JCAJJ JCAJJ JCAJJ JAJJ JAJJ JAJJ JAJJ JAJJ JAJJ JAJJ JAJJ JAJJ JAJJ JAJJ JAJJ JAJJ JAJJ JAJJ JAJJ JAJJ JAJJ JAJJ JAJJ JAJJ JAJJ JAJJ JAJJ JAJJ JAJJ JAJJ JAJJ JAJJ JAJJ JAJJ JAJJ JAJJ JAJJ JAJJ JAJJ JAJJ JAJJ JAJJ JAJJ JAJJ JAJJ JAJJ JAJJ JAJJ JAJJ JAJJ JAJJ JAJJ JAJJ JAJJ JAJJ JAJJ JAJJ JAJJ JAJJ JAJJ JAJJ JAJ AJ AJ AJ AJ AJ AJ AJ AJ AJ AJ AJ AJ A A A A A A A A A              LC LC LC LC LC LC LC00 LC00 LC00 LC00 LC00 LC0LL0 LC0LL0 LC0LL0 LC0LL0 LC0LL0 LC0LL0 LHC0LL0 LHC0LL0 LHC0LL0 LHC0LL0 LHC0LL0 LHC0LL0 LHC0LL0 LHC0LL0 LHC0LL0 LHC0LL0 LHC0LL0 LHC0LL0 LHC0LL0 LHC0LL0 LHC0LL0 LHC0LL0 LHC0LL0 LHC0LL0 LHC0LL0 LHC0LL0 LHC0LL0 LHC0LL0 LHC0LL0 LHC0LL0 LHC0LL0 LHC0LL0 LHC0LL0 LHC0LL0 LHC0LL0 LHC0LL0 LHC0LL0 LHC0LL0 LHC0LL0 LHC0LL0 LHC0LL0 LHC0LL0 LHC0LL0 LHC0LL0 LHC0LL0 LHC0LL0 LHC0LL0 LHC0LL0 LHC0LL0 LHC0LL0 LHC0LL0 LHC0LL0 LHC0LL0 LHC0LL0 LHC0LL0 LHC0LL0 LHC0LL0 LHC0LL0 LHC0LL0 LHC0LL0 LHC0LL0 LHC0LL0 LHC0LL0 LHC0LL0 LHC0LL0 LHC0LL0 LHC0LL0 LHC0LL0 LHC0LL0 LHC0LL0 LHC0LL0 LHC0LL0 LHC0LL0 LHC0LL0 LHC0LL0 LHC0LL0 LHC0LL0 LHC0LL0 LHC0LL0 LHC0LL0 LHC0LL0 LHC0LL0 LHC0LL0 LHC0LL0 LHC0LL0 LHC0LL0 LHC0LL0 LHC0LL0 LHC0LL0 LHC0LL0 LHC0LL0 LHC0LL0 LHC0LL0 LHC0LL0 LHC0LL0 LHC0LL0 LHC0LL0 LHC0LL0 LHC0LL0 LHC0LL0 LHC0LL0 LHC0LL0 LHC0LL0 LHC0LL0 LHC0LL0 LHC0LL0 LHC0LL0 LHC0LL0 LHC0LL0 LHC0LL0 LHC0LL0 LHC0LL0 LHC0LL0 LHC0LL0 LHC0LL0 LHC0LL0 LHC0LL0 LHC0LL0 LHC0LL0 LHC0LL0 LHC0LL0 LHC0LL0 LHC0LL0 LHC0LL0 LHC0LL0 LHC0LL0 LHC0LL0 LHC0LL0 LHC0LL0 LHC0LL0 LHC0LL0 LHC0LL0 LHC0LL0 LHC0LL0 LHC0LL0 LHC0LL0 LHC0LL0 LHC0LL LHC0LL LHC0LL LHC0LL LHC0LL LHC0LL LHC0LL LHC0LL LHCLL LHCLL LHCLL LHCLL LHCLL LHCLL LHCLL LHCLL LHCLL LHCLL LHCLL LHCLL LHCLL LHCLL LHCLL LHCLL LHCLL LHCLL LHCLL LHCLL LHCLL LHCLL LHCLL LHCLL LHCLL LHCLL LHCLL LHCLL LHCLL LHCLL LHCLL LHCLL LHCLL LHCLL LHCLL LHCL LHC LHC LHC LHC LHC LH LH LH LH LH LH LH LH LH LH LH LH LH LH LH LH LH LH LH LH H H H H H H H H H H H H H H H H H H< H< H< H< H< H< H< H< H< H<< H<< H<< H<< H<< H<< H<< H<< H<< H<< H<< H<< H<< H<< H<< H<< H<< H<< H<< H<< H<< H<< H<< H<< H<< H<< H<< H<< H<< H<< H<< H<< H<< H<< H<< H<< H<< H<< H<< H<< H<< H<< H<< H<< H<< H<< H<< H<< H<< H<< H<< H<< H<< H<< H<< H<< H<< H<< H<< H<< H<< H<< H<< H<< H<< H<< H<< H<< H<< H<< H<< << << << << << << << << << << << << << << << << << << << << << << << << << << << E< E< E< E< E E EM EM EM EM EM MEM MEM MEM MEMM MEMM MEMM MEMM MEMM MEMM MEMM MEMM MEMM MEMM MEMM MEMM MEMM MEMM MEMM MEMM MEMM MEMM MEMM MEMM MEMM MEMM MEMM MEMM MEMM MEMM MEMM MEMM MEMM MEMM MEMM MEMM MEMM MEMM MEMM MEMM MEMM MEMM MEMM MEMM MEMM MEMM MEMM MEMM MEMM MEMM MEMM MEMM MEMM MEMM MEMM MEMM MEMM MEMM MEMM MEM ME ME ME ME ME ME ME ME ME M M                                                     C C C C C HC HC HC HC7 HC7 HCL7 HCLL7 HCLL7 HC7LL7 HC7LL7 HC7LL7 HC7LL7 LHC7LL7 LHC7LL7 LHC7LL7 LHC7LL7 LHC7LL7 LHC7LL7 LHC7LL7 LHC7LL7 LHC7LL7 LHC7LL7 LHC7LL7 LHC7LL7 LHC7LL7 LHC7LL7 LHC7LL7 LHC7LL7 LHC7LL7 LHC7LL7 LHC7LL7 LHC7LL7 LHC7LL7 LHC7LL7 LHC7LL7 LHC7LL7 LHC7LL7 LHC7LL7 LHC7LL7 LHC7LL7 LHC7LL7 LHC7LL7 LHC7LL7 LHC7LL7 LHC7LL7 LHC7LL7 LHGC7LL7 LHGC7LL7 LGC7LL7 LGC7LL7 LGC7LL7 LGC7LL7 LGC7LJL7 LGC7JJ7 LGC7JJ7 LGC7JJ7 LGCA7JJ7 LGCA7JJ7 LGCA7JJ7 LGCA7JJ7 LGCA7JJ7 LGCA7JJ7 LGCA7JJ7 LJGCA7JJ7 LJGCA7JJ7 LJGCA7JJ7 LJGCA7JJ7 LJGCA7JJ7 LJGA7JJ7 LJGA7JJ7 JGA7JJ7 JGA7JJ7 JGA7JJ7 JGA7JJ7 JGA7JJ7 JGA7JJ7 JGA7JJ7 JGA7JJ7 JGA7JJ7 JGA7JJ7 JGA7JJ7 JGA7JJ7 JGA7JJ7 JGA7JJ7 JGA7JJ7 JGA7JJ7 JGA7JJ7 JGA7JJ7 JGA7JJ7 JGA7JJ7 JGA7JJ7 JGA7JJ7 JGA7JJ7 JGA7JJ7 JG7JJ7 JG7JJ7 JGHC7JJ7 JGHC7JJ7 JGHC7JLJ7 JGHC7JLJ7 JGHC7JLJ7 JGHC7JLJ7 JGHC7JLJ7 JGHC7JLJ7 JGHC7JLJ7 LJGHC7JLJ7 LJGHC7JLJL7 LJGHC7JLJL7 LJGHC7JLL7 LJHC7JLL7 LJHCLL7 LJHCLL7 LJHCLL LJHCLL LJHCLL LJHCLL LJHCLL LJHCLL LJHCLL LJHCLL LJHCLL LJHCLL LJHCLL LJHCLL LJHCLL LJHCLL LJHCLL LJHCLL LJHCLL LJHCLL LJHCLL LJHCLL LJHCLL LJHCLL LJHCLL LJHCLL LJHCLL LJHCLL LJHCLL LJHCLL LJHCALL LJHCALL LJHCALL LJHCALL LJHCALL LJHCALL LJHCALL LJHCALL LJHCALL LJHCALL LJHGCALL LJHGCALL LJHGCALL LJHGCALL LJHGCALL LJHGCALLJ LJHGCALLJ LJHGCALLJ LJHGCALJLJ LJHGCALJLJ LJHGCALJLJ LJHGCALJLJ LJHGCALJLJ LJHGCALJLJ LJHGCALJLJ LJHGCALJLJ LJHGCALJLJ LJHGCAJLJ LJHGCAJLJ JHGCAJLJ JHGCAJLJ JHGCAJLJ JHGCAJLJ JHGCAJLJ JGCAJLJ JGCAJJ JGCAJJ JGCAJJ JGCAJJ JGCAJJ JGAJJ JGAJJ JGAJJ JGAJJ JGAJJ JGAJJ JGAJJ JGAJJ JGAJJ JGAJJ JGAJJ JGAJJ JGAJJ JGAJJ JGAJJ JGAJJ JGAJJ JGAJJ JGAJJ JGAJJ JGAJJ JGAJJ JGAJJ JGAJJ JGAJJ JGAJJ JGAJJ JGAJJ JGAJJ JGAJJ JGAJJ JGAJJ JGAJJ JGAJJ JGAJJ JGAJJ JGAJJ JGAJJ JGAJJ JGAJJ JGAJJ JGAJJ JGAJJ JGAJJ JGAJJ JGAJJ JGAJJ JGAJJ JGAJJ JGAJ JGAJ JGA JGA JGA JGA JGA JGA JGA JGA JGA JGA JGA JGA JGA JGA JGA JGA JGA JGA JGA JGA JGA JGA JGA9 JGA99 JGA99 JGA99 JGA99 JGA99 JGA99 JGA99 JGA99 JGA99 JGA99 JGA99 GA99 GA99 GA99 GA99 GA99 GA99 GA99 GA99 GA99 GA99 GA99 99 99 99 99 99 99 99 99 99 99 99 99 99 99 99 99 99 99 99 99 99 99 99 99 99 99 99 99 99 99 99 99 99 99 99 99 99 99 99 9 9 9 9 9 9 9 9 9                          H H H H H H H H H H H H H H H H H H H H H H H@ H@ H@ H@ H@ H@ H@ HH@ HH@ HH@ HH@ HH@ HH@ HH@ HH@ HH@ HH@H HH@H HH@HH HH@HH HH@HH HH@HH HH@HH HH@HH HH@HH HH@HH HH@HH HH@HH HH@HH HH@HH HH@HH HH@HH HH@HH HH@HH HH@HH HH@HH HH@HH HH@HH HH@HH HH@HH HH@HH HH@HH HH@HH HH@HH HH@HH HH@HH HH@HH HH@HH HH@HH H@HH H@HH H@HH H@HH H@HH H@HH H@HH H@HH H@HH H@HH H@HH H@HH H@HH H@HH H@HH HHH HHH HHH HHH HHH HHH HH HH HH HH HH HH HH HH HH HH HH HH H H H H H H H H H H H                     4 4 4 4 @4 @4 H@4 H@4 H@4 H@4 H@4 H@4 H@4 H@4 H@4 OH@4 OH@4 OH@4 OH@4 OH@4 OH@4 OH@44 OH@4O4 OH@4O4 OH@4OO4 OH@4OO4 OH@4OO4 OH@4OO4 OH@4OO4 OH@4OO4 OH@4OO4 OH@4OO4 OH@4OO4 OH@4OO4 OH@4OO4 OH@4OO4 OH@4OO4 OH@4OO4 OH@4OO4 OH@4OO4 OH@4OO4 OH@4OO4 OH@4OO4 OH@4OO4 OH@4OO4 OH@4OO4 OH@4OO4 OH@4OO4 OH@4OO4 OH@4OO4 OH@4OO4 OH@4OO4 OH@4OO4 OH@4OO4 OH@4OO4 OH@4OO4 OH@4OO4 OH@4OO4 OH@4OO4 OH@4OO4 OH@4OO4 OH@4OO4 OH@4OO4 OH@4OO4 OH@4OO4 OH@4OO4 OH@4OO4 OH@4OO4 OH@4OO4 OH@4OO4 OH@4OO4 OH@4OO4 OH@4OO4 OH@4OO4 OH@4OO4 OH@4OO4 OH@4OO4 OH@4OO4 OH@4OO4 OH@4OO4 OH@4OO4 OH@4OO4 OH@4OO4 OH@4OO4 OH@4OO4 OH@4OO4 OH@4OO4 OH@4OO4 OH@4OO4 OH@4OO4 OH@4OO4 OH@4OO4 OH@4OO4 OH@4OO4 OH@4OO4 OH@4OO4 OH@4OO4 OH@4OO4 OH@4OO4 OH@4OO4 OH@4OO4 OH@4OO4 OH@4OO4 OH@4OO4 O@4OO4 O@4OO4 O@4OO4 O@4OO4 O@4OO4 O@4OO4 O@4OO4 O@4OO4 OG@4OO4 OG@4OO4 OG@4OO4 OG@4OO4 OG@4OO4 OG@42OO4 OG@42OO4 OG@A42OO4 OG@A42OO4 OG@A42OO4 OG@A42OO4 OG@A42OO4 OG@A42OO4 OG@A42OO4 OGA42OO42 OGA42OO42 OGA42OO42 OGA42OO42 OGA42OO42 OGA42OO42 OGA42OO42 OGA42OO42 OGA42OO42 OGA42OO42 OGA42OO42 OGA42OO42 OGA42OO42 OGA42OO42 OGA42OO42 OGA42OO42 OGA42OO42 OGA42OO2 OGA42OO2 OGA42OO2 OGA42OO2 OGA42OO2 OGA42OO2 OGA42OO2 OGA42OO2 OGA42OO2 OGA2OO2 OGA2OO2 OGA2OO2 OGA2OO2 OGA2OO2 OGA2OO2 OGA2OO2 OGA2OO2 OGA2OO2 OGA2OO2 OGA2OO2 OGA2OO2 OGA2OO2 OGA2OO2 OGA2OO2 OGA2OO2 OGA2OO2 OGA2OO2 OGA2OO2 OGA2OO2 OGA2OO2 OGA2OO2 OGA2OO2 OGA2OO2 OGA2OO2 OGA2OO2 OGA2OO2 OGA2OO2 OGA2OO2 OGA2OO2 OGA2OO2 OGA2OO2 OGA2OO2 OGA2OO2 OGA2OO2 OGA2OO2 OGA2OO2 OGA2OO2 OGA2OO2 OGA2OO2 OGA2OO2 OGA2OO2 OGA2OO2 OGA2OO2 OGA2OO2 OGA2OO2 OGA2OO2 OGA2OO2 OGA2OO2 OGA2OO2 OGA2OO2 OGA2OO2 OGA2OO2 OGA2OO2 OGA2OO2 OGA2OO2 OGA2OO2 OGA2OO2 OGA2OO2 OGA2OO2 OGA2OO2 OGA2OO2 OGA2OO2 OGA2OO2 OGA2OO2 OGA2OO2 OGA2OO2 OGA2OO2 OGA2OO2 OGA2OO2 OGA2OO2 OGA2OO2 OGA2OO2 OGA2OO2 OGA2OO2 OGA2OO2 OGA2OO2 OGA2OO2 OGAOO2 OGAOO2 OAOO2 OAOO2 OAOO2 OAOO2 OHAOO4 OHA4OO4 OHA4OO4 OHA@4OO4 OHA@4OO4 OHA@4OO4 OHA@4OO4 OHA@4OO4 OHA@4OO4 OHA@4OO4 OHA@4OO4 OHA@4OO4 OHA@4OO4 OHA@4OO4 OHA@4OO4 OHA@4OO4 OHA@4OO4 OHA@4OO4 OHA@4OO4 OHA@4OO4 OH@4OO4 OH@4OO4 OH@4OO4 OH@4OO4 OH@4OO4 OH@4OO4 OH@4OO4 OH@4OO4 OH@4OO4 OH@4OO4 OH@4OO4 OH@4OO4 OH@4OO4 OH@4OO4 OH@4OO4 OH@4OO4 OH@4OO4 OH@4OO4 OH@4OO4 OH@4OO4 OH@4OO4 OH@4OO4 OH@4OO4 OH@4OO4 OH@4OO4 OH@4OO4 OH@4OO4 OH@4OO4 OH@4OO4 OH@4OO4 OH@4OO4 OH@4OO4 OH@4OO4 OH@4OO4 OH@4OO4 OH@4OO4 OH@4OO4 OH@4OO4 OH@4OO4 OH@4OO4 OH@4OO4 OH@4OO4 OH@4OO4 OH@4OO4 OH@4OO4 OH@4OO4 OH@4OO4 OH@4OO4 OH@4OO4 OH@4OO4 OH@4OO4 OH@4OO4 OH@4OO4 OH@4OO4 OH@4OO4 OH@4OO4 OH@4OO4 OH@4OO4 OH@4OO4 OH@4OO4 OH@4OO4 OH@4OO4 OH@4OO4 OH@4OO4 OH@4OO4 OH@4OO4 OH@4OO4 OH@4OO4 OH@4OO4 OH@4OO4 OH@4OO4 OH@4OO4 OH@4OO4 OH@4OO4 OH@4OO4 OH@4OO4 OH@4OO4 OH@4OO4 OH@4OO4 OH@4OO4 OHJ@4OO4 OHJ@4OO4 OHJ@4OO4 OHJ@4OO4 OHJ@4OO4 OHJ@4OO4 OHJ@4OO4 OJ@4OO4 OJ@4OO4 OJ@4OO4 OJ@4OO4 OJ@4OO4 OJ@4OO4 OJ4OO4 OJ4OO4 OJ4OO4 OJ4OO45 OJ4OO45 OJ4OO45 OJ4OO45 OJ>4OO45 OJ>4OO45 OJ>45OO45 OJ>45OO45 OJ>45OO45 OJ>45OO45 OJ>45OO45 OJ>45OO45 OJ>45OO45 OJ>45OO45 OJ>45OO45 OJ>45OO45 OJ>45OO45 OJ>45OO5 OJ>45OO5 OJ>45OO5 OJ>5OO5 OJ>5OO5 OJ>5OO5 OJ>5OO5 OJ>5OO5 OJ>5OO5 OJ>5OO5 OJ>5OO5 OJ>5OO5 OJ>5OO5 OJ>5OO5 OJ>5OO5 OJ>5OO5 OJ>5OO5 OJ>5OO5 OJ>5OO5 OJ>5OO5 OJ>5OO5 OJ>5OO5 OJ>5OO5 OJ>5OO5 OJ>5OO5 OJ>5OO5 OJ>5OO5 OJ>5OO5 OJ>5OO5 OJ>5OO5 OJ>5OO5 OJ>5OO5 OJ>5OO5 OJ>5OO5 OJ>5OO5 OJ>5OO5 OJ>5OO5 OJ>5OO5 OJ>5OO5 OJ>5OO5 OJ>5OO5 OJ>5OO5 OJ>5OO5 OJ>5OO5 OJ>5OO5 OJ>5OO5 OJ>5OO5 OJ>5OO5 OJ>5OO5 OJ>5OO5 OJ>5OO5 OJ>5OO5 OJ>5OO5 OJ>5OO5 OJ>5OO5 OJ>5OO5 OJ5OO5 OJ5OO5 OJ5OO5 OJ5OO5 OJ5OO5 OJ5OO5 OJ5OO5 OJ5OO5 OJ5OO5 O5OO5 O5OO5 O5OO5 O5OO5 O5OO5 O5OO5 O5OO5 O5OO5 O5OO5 O5OO5 O5OO5 O5OO5 O5OO5 O5OO5 O5OO5 O5OO5 O5OO5 O5OO5 O5OO5 O5OO5 OOO5 OOO5 OOO5 OOO5 OOO OOO OOO OOO OOO OOO OOO OOO OOO OLOO OLOO OLOO OLOO OLOO OLOO OLOO OLOO OLOO OLOO OLOO OL7OO OL7OO OL7OO OL7OO OL7OO OL7OO OL7OO7 OL7OO7 OL7OO7 OL7OO7 OL7OO7 OL7OO7 OL7OO7 OL7OO7 OL7OO7 OL<7OO7 OL<7OO7 OL<7OO7 OL<7OO7 OL<7OO7 OL<7OO7 OL<7OO7 OL<7OO7 OL<7OO7 OL<7OO7 OL<7OO7 OL<7OO7 OL<7OO7 OL<7OO7 OL<7OO7 OL<7OO7 OL<7OO7 OL<7OO7 OL<7OO7 OL<7OO7 OL<7OO7 OL<7OO7 OL<7OO7 OL<7OO7 OL<7OO7 OL<7OO7 OL<7OO7 OL<7OO7 OL<7OO7 OL<7OO7 OL<7OO7 OL<7OO7 OL<7OO7 OL<7OO7 OL<7OO7 OL<7OO7 OL<7OO7 OL<7OO7 OL<7OO7 OL<7OO7 OL<7OO7 OL<7OO7 OL<7OO7 OL<7OO7 OL<7OO7 OL<7OO7 OL<7OO7 OL<7OO7 OL<7OO7 OL<7OO7 OL<7OO7 OL<7OO7 OL<7OO7 OL<7OO7 OL<7OO7 OL<7OO7 OL<7OO7 OL<7OO7 OL<7OO7 OL<7OO7 OL<7OO7 OL<7OO7 OL<7OO7 OL<7OO7 OL<7OO7 OL<7OO7 OL<7OO7 OL<7OO7 OL<7OO7 OL<7OO7 OL<7OO7 OL<7OO7 OL<7OO7 OL<7OO7 OL<7OO7 OL<7OO7 OL<7OO7 OL<7OO7 OL<7OO7 OL<7OO7 OL<7OO7 OL<7OO7 OL<7OO7 OL<7OO7 OL<7OO7 OL<7OO7 OL<7OO7 OL<7OO7 OL<7OO7 OL<7OO7 OL<7OO7 OL<7OO7 OL<7OO7 OL<7OO7 OL<7OO7 OL<7OO7 OL<7OO7 OL<7OO7 OL<7OO7 OL<7OO7 OL<7OO7 OL<7OO7 OL<79OO79 OL<79OO79 OL<79OO9 OL<79OO9 OL<79OO9 OL<79OO9 OL<79OO9 OL<9OO9 OL<9OO9 OL<9OO9 OL<9OO9 OL9OO9 OL9OO9 OL9OO9 OL9OO9 OL9OO9 OL9OO9 OL9OO9 OL9O9 OL9O9 OL9O9 OL9O9 OL9O9 OL9O9 OL9O9 OL9O9 OL9O9 OL9O9 OL9O9 OL9O9 OL9O9 OL9O9 OL9O9 OL9O9 OL9O9 OL9O9 OL9O9 OL9O9 OL9O9 OL9O9 OL9O9 OL9O9 OL9O9 OL9O9 OL9O9 OL9O9 OL9O9 OL9O9 OL9O9 OL9O9 OL9O9 OL9O9 OL9O9 OL9O9 OL99 OL99 L99 L99 L99 L99 L99 L99 L99 L99 L99 L99 L99 L99 L99 L99 L99 L99 L99 L99 L99 L99 L99 L99 L99 L99 L99 L99 L99 L99 L99 L99 L99 L99 L99 L99 L99 L99 L99 L9 L9 L9 L9 L9 L9 L9 L9 9 9 9 9 9 9 9 9 9 9            :: :: :: :: :: :: :: :: :: C:: C:: C:: C:: MC:: MC:: MJC:: MJC:: MJC:: MJC:: MJC:: MJC:: MJC:: MJC:: MJC:: MJC:: MJC:: MJC:: MJC:: MJC:: MJC:: MJC:: MJC:M: MJC:M: MJC:M: MJC:M: MJC:M: MJC:MM: MJC:MM: MJC:MM: MJC:MM: MJC:MM: MJC:MM: MJC:MM: MJC:MM: MJC:MM: MJC:MM: MJC:MM: MJC:MM: MJC:MM: MJC:MM: MJC:MM: MJC:MM: MJC:MM: MJC:MM: MJC:MM: MJC:MM: MJC:MM: MJC:MM: MJC:MM: MJC:MM: MJC:MM: MJC:MM: MJC:MM: MJC:MM: MJC:MM: MJC:MM: MJC:MM: MJC:MM: MJC:MM: MJC:MM: MJC:MM: MJC:MM: MJC:MM: MC:MM: MC:MM: MC:MM: MC:MM: MC:MM: MC:MM: MC:MM: MC:MM: MC:MM: MC:MM: MC:MM: MC:MM: MC:MM: MC:MM: MC:MM: MC:MM: MC:MM: MC:MM: MC:MM: MC:MM: MC:MM: MC:MM: MC:MM: MC:MM: MC:MM: MC:MM: MC:MM: MC:MM: MC:MM: MC:MM: MC:MM: MC:MM: MC:MM: MC:MM: MC:MM: MCMM: MCMM: LCMM: LCMM: LCMM: LCMM: LCMM: LHCMM: LHCMM: LHMM: LHMM: LHMM: LHMM: LHMM: LHMM: LHMM: LHMM: LHMM: LHMLM LHMLM LHLM LHLM LHLM LHLM LHLM LHLML LHLL LHLL LHLL LHLL LHLL LHLL LHLL LHLL LHLL LHLL LHLL LHLL LHLL LHLL LHLL LHLL LHLL LHLL LHLL LHLL LHLL LHLL LHLL LHLL LHLL LHLL LHLL LHLL LHLL LHLL LHLL LHLL LHLL LHLL LHLL LHLL LHLL LHLL LHLL LHLL LHLL LHLL LHLL LHLL LHLL LHLL LHLL LHLL LHLL LHLL LHLL LHLL LHLL LHLL LHLL LHLL LHLL LHLL LHLL LHLL LHLL LHLL LHLL LHLL LHLL HLL HLL HLL HLL HLL HLL HLL HLL HLL HLL HLL HLL HLL HLL HLL HLL HLL HLL L L L L L L L L L L           E E E E E E ME ME ME ME9 ME9 ME9 ME9 ME9 ME9 ME9 ME9 ME9 ME9 ME9 MJE99 MJE99 MJE99 MJE99 MJE9M9 MJE9M9 MJE9M9 MJE9M9 MJE9M9 MJE9MM9 MJE9MM9 MJE9MM9 MJE9MM9 MJE9MM9 MJE9MM9 MJE9MM9 MJE9MM9 MJE9MM9 MJE9MM9 MJE9MM9 MJE9MM9 MJE9MM9 MJE9MM9 MJE9MM9 MJE9MM9 MJE9MM9 MJE9MM9 MJE9MM9 MJE9MM9 MJE9MM9 MJE9MM9 MJE9MM9 MJE9MM9 MJE9MM9 MJE9MM9 MJE9MM9 MJE9MM9 MJE9MM9 MJE9MM9 MJE9MM9 MJE9MM9 MJE9MM9 MJE9MM9 MJE9MM9 MJE9MM9 MJE9MM9 MJE9MM9 MJE9MM9 MJE9MM9 MJE9MM9 MJE9MM9 MJE9MM9 MJE9MM9 MJE9MM9 MJE9MM9 MJE9MM9 MJE9MM9 MJE9MM9 MJE9MM9 MJE9MM9 MJE9MM9 MJE9MM9 MJE9MM9 MJE9MM9 MJE9MM9 MJE9MM9 MJE9MM9 MJE9MM9 MJE9MM9 MJE9MM9 MJE9MM9 MJE9MM9 MJE9MM9 MJE9MM9 MJE9MM9 MJE9MM9 MJE9MM9 MJE9MM9 MJE9MM9 MJE9MM9 MJE9MM9 MJE9MM9 MJE9MM9 MJE9MM9 MJE9MM9 MJE9MM9 MJE9MM9 MJE9MM9 MJE9MM9 MJE9MM9 MJE9MM9 MJE9MM9 MJE9MM9 MJE9MM9 MJE9MM9 MJE9MM9 MJE9MM9 MJE9MM9 MJE9MM9 MJE9MM9 MJE9MM9 MJE9MM9 MJE9MM9 MJE9MM9 MJ9MM9 MJ9MM9 MJMM9 MJMM9 MJMM9 MJMM9 MJMM9 MJMM9 MJMM9 MJMM9 MJMM9 MJMM9 MJMM9 MJMM9 MJMM9 MJMM9 MJMM9 MJMM9 MJMM MJMM MJMM MJMM MJMM MJMM MJMM MJMM MJMM MJMM MJMM MJMM MJMM MJMM MJMM MJMM MJMM MJMM MJMM MJMM MJMM MJMM MJMM MJMM MJMM MJMM MJMM MJMM MJMM MJMM MJMM MJMM MJMM MJMM MJMM MJMM MJMM MJMM MJMM MJMM MJMM MJMM MJMM MJMM MJMM MJMM MJMM MJMM MJMM MJMM MJMM MJMM MJMM MJMM MJMM MJMM MJMM MJMM MJMM MJMM MJMM MJMM MJMM MJMM MJMM MJMM MJMM MJMM MJMM MJMM MJMM MJMM MJMM MJMM MJMM MJMM MJMM MJMM MJMM MJMM MJMM MJMM MJMM MJMM MJMM MJMM MJMM MJMM MJMM MJMM MJMM MJMM MJMM MJMM MJMM MJMM MJMM MJMM MJMM MJMM MJMM MJMM MJMM MJMM MJMM MJMM MJMM MJMM JMM JMM JMM JMM JFMM JFMM JFM JFM JFM JFM JF JF JF JF7 JF7 JF7 JF7 JF7 JF77 JF77 JF77 JF77 JF77 JF77 F77 F77 F77 F77 F77 F77 F77 F77 F77 F77 F77 F77 F77 F77 F77 F77 F77 F77 F77 F77 F77 F77 F77 F77 F77 F77 F77 F77 F77 F77 F77 F77 F77 F77 F77 F77 F77 F77 F77 F77 F77 F77 F77 F77 F77 F77 F77 F77 F77 F77 F77 F77 F77 F77 F77 F77 F77 F77 F77 F77 F77 F77 F77 F77 F77 F77 F77 F77 F77 F77 F77 F77 F77 F77 F77 77 77 77 77 77 77 77 O77 O77 O77 O77 O77 O77 O77 O7O7 O7O7 OL7O7 OL7O7 OL7O7 OL7O7 OL7O OL7O OL7O OL7O OL7O OL7OO OL7OO OL7OO OL7OO OL7OO OL7OO OLOO OLOO OLOO OLOO OLOO OLOO OLOO OLOO OLOO OLOO OLOO OLOO OLOO OLOO OLOO OLOO OLOO OLOO OLOO OLOO OLOO OLOO OLOO OLOO OLOO OLOO OLOO OLOO OLOO OLOO OLOO OLOO OLOO OLOO OLOO OLOO OLOO OLOO OLOO OLOO OLOO OLOO OLOO OLOO OLOO OLOO OLOO OLOO OLOO OLOO OLOO OLOO LOO LOO LOO LOO LOO LOO LOO LO LO LO LO LO LO L L L L L L L L L L L L L L L L L L L                      Q Q Q Q Q Q QH QH QH QH QH QH QH QHQ QHQ QHQ QHQ QMHQQ QMHQQ QMH5QQ QMH5QQ QMH5QQ QMH5QQ QMH5QQ QMH5QQ QMH5QQ QMH5QQ5 QMH5QQ5 QMH5QQ5 QMH5QQ5 QMH5QQ5 QMH5QQ5 QMH5QQ5 QMH5QQ5 QMH5QQ5 QMH5QQ5 QMH5QQ5 QMH5QQ5 QMH5QQ5 QMH5QQ5 QMH5QQ5 QMH5QQ5 QMH5QQ5 QMH5QQ5 QMH5QQ5 QMH5QQ5 QMH5QQ5 QMH5QQ5 QMH5QQ5 QMH5QQ5 QMH5QQ5 QMH5QQ5 QMH5QQ5 QMH5QQ5 QMH5QQ5 QMH5QQ5 QMH5QQ5 QMH5QQ5 QMH5QQ5 QMH5QQ5 QMH5QQ5 QMH5QQ5 QMH5QQ5 QMH5QQ5 QMH5QQ5 QMH5QQ5 QMH5QQ5 QMH5QQ5 QMH5QQ5 QMH5QQ5 QMH5QQ5 QMH5QQ5 QMH5QQ5 QMH5QQ5 QMH5QQ5 QMH5QQ5 QMH5QQ5 QMH5QQ5 QMH5QQ5 QMH5QQ5 QMH5QQ5 QMH5QQ5 QMH5QQ5 QMH5QQ5 QMH5QQ5 QMH5QQ5 QMH5QQ5 QMH5QQ5 QMH5QQ5 QMH5QQ5 QMH5QQ5 QMH5QQ5 QMH5QQ5 QMH5QQ5 QMH5QQ5 QMH5QQ5 QMH5QQ5 QMH5QQ5 QMH5QQ5 QMH5QQ5 QMH5QQ5 QMH5QQ5 QMH5QQ5 QM5QQ5 Q5QQ5 Q5QQ5 Q5QQ5 Q5QQ5 Q5QQ5 Q5QQ5 Q5QQ5 Q5QQ5 Q5QQ5 Q5QQ5 Q5QQ5 Q5QQ5 Q5QQ5 Q5QQ5 Q5QQ5 Q5QQ5 Q5QQ5 Q5QQ5 Q5QQ5 Q5QQ5 Q5QQ5 Q5QQ5 Q5QQ5 Q5QQ5 Q5QQ5 Q5QQ5 Q5QQ5 Q5QQ5 Q5QQ5 Q5QQ5 Q5QQ5 Q5QQ5 Q5QQ5 Q5QQ5 Q5QQ5 Q5QQ5 Q5QQ5 QQQ QQQ QQQ QQQ QQQ QQQ QQQ QQQ QQQ QQQ QQQ QQQ QQQ QQQ QQQ QQQ QQQ QQQ QQQ QQQ QQQ QQQ QQQ QQQ QQQ QQQ QQQ QQQ QQQ QQQ QQQ QQQ QQQ QQQ QQQ QQQ QQQ QQQ QQQ QQQ QQQ QQQ QQQ QQQ QQQ QQQ QQQ QQQ QQQ QQQ QQQ QQQ QQQ QQQ QQQ QQQ QQQ QQQ QQQ QQQ QQQ QQQ QQQ QQQ QQQ QQQ QQQ QQQ QQQ QQQ QQQ QQQ QQQ QQQ QQQ QQQ QQQ QQQ QQQ QQQ QQQ QQQ QQQ QQQ QQQ QQQ QQQ QQQ QQQ QQQ QQQ QQQ QQQ QQQ QQQ QQQ QQQ QQQ QQQ QQQ QQQ QQQ QQQ QQQ Q<QQ Q<QQ Q<QQ Q<QQ Q<QQ QE<4QQ QE<4QQ QE<4QQ QE<4QQ QE<4QQ QE<4QQ E<4QQ E<4QQ E<4QQ4 E<4QQ4 E<4QQ4 E<4QQ4 E<4QQ4 E<4QQ4 E<4QQ4 E<4QQ4 E<4QQ4 E<4QQ4 E<4QQ4 E<4QQ4 E<4QQ4 E<4QQ4 E<4QQ4 E<4QQ4 E<4QQ4 E<4QQ4 E<4QQ4 E<4QQ4 E<4QQ4 E<4Q4 E<4Q4 E<4Q4 E<4Q4 E<4Q4 E<4Q4 E<4Q4 E<4Q4 E<4Q4 E<4Q4 E<4Q4 E<44 E<44 E<44 E<44 E<44 E<44 E<44 E<44 E<44 E<44 E<44 E<44 E<44 E<44 E<44 E<44 E<44 E<44 E<44 E<44 E<44 E<44 E<44 E<44 E<44 E<44 E<44 E<44 E<44 E<44 E<44 E<44 E<44 E<44 E<44 E<44 E<44 E<44 E<44 E<44 E<44 E<44 E<44 E<44 E<44 E<44 E<44 E<44 E44 E44 E44 E44 E44 E44 E44 E4 E4 OE4 OE4 OE4 OE4 OE4 OE4 OE4 OE4 OE4 OE4 OE4 OE4 OE4 OE4 OE4 OEO OEOO OEOO OEOO OEOO OEOO OEOO OEOO OEOO OEOO OEOO OEOO OEOO OEOO OEOO OEOO OEOO OEOO OEOO OEOO OEOO OEOO OEOO OEOO OEOO OEOO OEOO OEOO OEOO OEOO OEOO OEOO OEOO OEOO OEOO OEOO OEOO OEOO OEOO OEOO OEOO OEOO OEOO OEOO OEOO OEOO OEOO OEOO OEOO OEOO OEOO OEOO OEOO OEOO OEOO OEOO OEOO OEOO OEOO OEOO OEOO OEOO OEOO EOO EOO EOO EOO EOO EO EO EO EO EO EO EO EO EO EO E E E E E E E E E E E E E E E E E E E E E E E E E E E E E E E E E E E E E E E E E E ME ME ME> ME> ME> ME> ME> ME> ME> ME> ME>M ME>MM ME>MM ME>MM ME>MM ME>MM ME>2MM2 ME>2MM2 ME>2MM2 ME>2MM2 ME>2MM2 ME>2MM2 ME>2MM2 ME>2MM2 ME>2MM2 ME>2MM2 ME>2MM2 ME>2MM2 ME>2MM2 ME>2MM2 ME>2MM2 ME>2MM2 ME>2MM2 ME>2MM2 ME>2MM2 ME>2MM2 ME>2MM2 ME>2MM2 ME>2MM2 ME>2MM2 ME>2MM2 ME>2MM2 ME>2MM2 ME>2MM2 ME>2MM2 ME>2MM2 ME>2MM2 ME>2MM2 ME>2MM2 ME>2MM2 ME>2MM2 ME>2MM2 ME>2MM2 ME>2MM2 ME>2MM2 ME>2MM2 ME>2MM2 ME>2MM2 ME>2MM2 ME>2MM2 ME>2MM2 ME>2MM2 ME>2MM2 ME>2MM2 ME>2MM2 ME>2MM2 ME>2MM2 ME>2MM2 ME>2MM2 ME>2MM2 ME>2MM2 ME>2MM2 ME>2MM2 ME>2MM2 ME>2MM2 ME>2MM2 ME>2MM2 ME>2MM2 ME>2MM2 ME>2MM2 ME>2MM2 ME>2MM2 ME>2MM2 ME>2MM2 ME>2MM2 ME>2MM2 ME>2MM2 ME>2MM2 ME>2MM2 ME>2MM2 ME>2MM2 ME>2MM2 ME>2MM2 ME>2MM2 ME>2MM2 ME>2MM2 ME>2MM2 ME>2MM2 ME>2MM2 ME>2MM2 ME>2MM2 ME>2MM2 ME>2MM2 ME>2MM2 ME>2MM2 ME>2MM2 ME>2MM2 ME>2MM2 ME>2MM2 ME>2MM2 ME>2MM2 ME>2MM2 ME>2MM2 ME>2MM2 ME>2MM2 ME>2MM2 ME>2MM2 ME>2MM2 ME>2MM2 ME>2MM2 ME>2MM ME>2MM ME>2MM ME>2MM ME>2MM ME>2MM ME>2MM ME>2MM ME>2MM ME>2MM ME>2MM ME>MM ME>MM ME>MM ME>MM ME>MM ME>MM ME>MM ME>MM ME>MM ME>MM ME>MM ME>MM ME>MM ME>MM ME>MM ME>MM ME>MM ME>MM ME>MM ME>MM ME>MM ME>MM ME>MM ME>MM M>MM M>MM M>MM M>MM M>MM M>MM M>MM M>MM M>MM M>MM M>MM M>MM M>MM M>MM M>MM M>MM M>MM M>MM M>MM M>MM M>MM M>MM M>MM M>MM M>MM M>MM M>MM M>MM M>MM M>MM M>MM M>MM M>MM M>MM M>MM M>MM M>MM M>MM M>MM M>MM M>M M>M M>M M>M M>M M>M M>M M>M M>M M>M M>M M>M M>M M>M M>M M>M M>M M>M M>M M>M M>M M>M M>M M>M M>M M>M M>M >M >M >M >M >M >M >M >M >M >M >M >M >M > > > > > > > > > > > > > > > > > L>L LG>L LG>L LG>L LG>L LG>L LG>LL LG>LL LG>LL LG>LL LG>LL LG>7LL LG>7LL LG>7LL LG>7LL LG>7LL LG>7LL7 LG>7LL7 LG>7LL7 LG>7LL7 LG>7LL7 LG>7LL7 LG>7LL7 LG>7LL7 LG>7LL7 LG>7LL7 LG>7LL7 LG>7LL7 LG>7LL7 LG>7LL7 LG>7LL7 LG>7LL7 LG>7LL7 LG>7LL7 LG>7LL7 LG>7LL7 LG>7LL7 LG>7LL7 LG>7LL7 LG>7LL7 LG>7LL7 LG>7LL7 LG>7LL7 LG>7LL7 LG>7LL7 LG>7LL7 LG>7LL7 LG>7LL7 LG>7LL7 LG>7LL7 LG>7LL7 LG>7LL7 LG>7LL7 LG>7LL7 LG>7LL7 LG>7LL7 LG>7LL7 LG>7LL7 LG>7LL7 LG>7LL7 LG>7LL7 LG>7LL7 LG>7LL7 LG>7LL7 LG>7LL7 LG>7LL7 LG>7LL7 LG>7LL7 LG>7LL7 LG>7LL7 LG>7LL7 LG>7LL7 LG>7LL7 LG>7LL7 LG>7LL7 LG>7LL7 LG>7LL7 LG>7LL7 LG>7LL7 LG>7LL7 LG>7LL7 LG>7LL7 LG>7L7 LG>7L7 LG7L7 LG7L7 LG7L7 L7L7 L7L7 7L7 7L7 7L7 7L7 7L7 7L7 7L7 7L7 7L7 J7L7 J7L7 J7L7 J77 J7J7 J7J7 J7J7 J7J7 J7J7 J7JJ7 J7JJ7 J7JJ7 J7JJ7 J7JJ7 J7JJ7 J7JJ7 J7JJ7 J79JJ7 J79JJ7 J79JJ7 J79JJ7 J79JJ7 J79JJ7 J79JJ7 J79JJ7 J79JJ7 J79JJ79 J79JJ79 J79JJ79 J79JJ79 J79JJ79 J79JJ79 J79JJ79 J79JJ79 J79JJ79 J79JJ9 J79JJ9 J79JJ9 J9JJ9 J9JJ9 J9JJ9 J9JJ9 J9JJ9 J9JJ9 J9JJ9 J9JJ9 J9JJ9 J9JJ9 J9JJ9 J9JJ9 J9JJ9 J9JJ9 J9JJ9 J9JJ9 J9JJ9 J9JJ9 J9JJ9 J9JJ9 J9JJ9 J9JJ9 J9JJ9 J9JJ9 J9JJ9 J9JJ9 J9JJ9 J9JJ9 J9JJ9 J9JJ9 J9JJ9 J9JJ9 J9JJ9 J9JJ9 J9JJ9 J9JJ9 J9JJ9 J9JJ9 J9JJ9 J9JJ9 J9JJ9 J9JJ9 J9JJ9 J9JJ9 9JJ9 9JJ9 9JJ9 9JJ9 9JJ9 9JJ9 9JJ9 9JJ9 9JJ9 9JJ9 9JJ9 9JJ9 9JJ9 9JJ9 9JJ9 9JJ9 9JJ9 9J9 99 99 99 99 99 99 99 99 99 99 9 9 9 9 9 9 9 9 9 9 9 9 9 9 9 9 9 9 79 79 C79 C79 C79 C79 C79 C79 C79 LC79 LC79 LC79 LC79 LC79 LC79 LC79 LC7L9 LC7L9 LC7LL9 LC7LL9 LC7LL97 LC7LL97 LHC7LL97 LHC7LL97 LHC7LL97 LHC7LL97 LHC7LL97 LHC7LL97 LHC7LL7 LHC7LL7 LHC7LL7 LHC7LL7 LHC7LL7 LHC7LL7 LHC7LL7 LHC7LL7 LHC7LL7 LHC7LL7 LHC7LL7 LHC7LL7 LHC7LL7 LHC7LL7 LHC7LL7 LHC7LL7 LHC7LL7 LHC7LL7 LHC7LL7 LHC7LL7 LHC7LL7 LHC7LL7 LHC7LL7 LHC7LL7 LHC7LL7 LHC7LL7 LHC7LL7 LHC7LL7 LHC7LL7 LHC7LL7 LHC7LL7 LHC7LL7 LHC7LL7 LHC7LL7 LHC7LL7 LHC7LL7 LHC7LL7 LHC7LL7 LHC7LL7 LHC7LL7 LHC7LL7 LHC7LL7 LHC7LL7 LHC7LL7 LHC7LL7 LHC7LL7 LHC7LL7 LHC7LL7 LHC7LL7 LHC7LL7 LHC7LL7 LHC7LL7 LHC7LL7 LHC7LL7 LHC7LL7 LHC7LL7 LHC7LL7 LHC7LL7 LHC7LL7 LHC7LL7 LHC7LL7 LHC7LL7 LHC7LL7 LHC7LL7 LHC7LL7 LHC7LL7 LHC7LL7 LHC7LL7 LHC7LL7 LHC7LL7 LHC7LL7 LHC7LL7 LHC7LL7 LHC7LL7 LHC7LL7 LHC7LL7 LH7LL7 LH7LL7 LH7LL7 LH7LL7 LH7LL7 LH7LL7 LH7LL7 LH7LL7 LH7LL7 LH7LL7 LH7LL7 LH7LL7 LH7LL7 LH7LL7 LH7LL7 LH7LL7 LH75LL7 LH75LL7 LH75LL7 LH75LL7 LH75LL7 LH75LL7 LH75LL7 LH75LL7 LH75LL7 LH75LL7 LH75LL7 LH75LL7 LH75LL7 LH75LL7 LH75LL7 LH75LL7 LH75LL7 LH75LL7 LH75LL7 LH75LL7 LH5LL7 LH5LL7 LH5LL7 LH5LL7 LH5LL5 LH5LL5 LH5LL5 LH5LL5 LH5LL5 LH5LL5 LH5LL5 LH5LL5 LH5LL5 LH5LL5 LH5LL5 LH5LL5 LH5LL5 LH5LL5 LH5LL5 LH5LL5 LH5LL5 LH5LL5 LH5LL5 LH5LL5 LH5LL5 LH5LL5 LH5LL5 LH5LL5 LH5LL5 LH5LL5 LH5LL5 LH5LL5 LH5LL5 LH5LL5 LH5LL5 LH5LL5 LH5LL5 LH5LL5 LH5LL5 LH5LL5 LH5LL5 LH5LL5 LH5LL5 LH5LL5 LH5LL5 LH5LL5 LH5LL5 LH5LL5 LH5LL5 LH5LL5 LH5LL5 LH5LL5 LH5LL5 LH5LL5 LH5LL5 LH5LL5 LH5LL5 LH5LL5 LH5LL5 LH5LL5 LH5LL5 LH5LL5 LH5LL5 LH5LL5 LH5LL5 LH5LL5 LH5LL5 LH5LL5 LH5LL5 LH5LL5 LH5LL5 LH5LL5 LH5LL5 LH5LL5 LH5LL5 LH5LL5 LH5LL5 LH5LL5 LH5LL5 LH54LL5 LH54LL5 LH54LL5 LH54LL5 LH54LL5 LH54LL5 LH54LL5 LH54LL5 LH54LL5 LH54LL5 LH54LL5 LH4LL5 LH4LL5 LH4LL5 LH4LL5 LH4LL5 LH4LL5 LH4LL5 LH4LL5 LH4LL5 LH4LL5 LH4LL5 LH4LL5 LH4LL5 LH4LL5 LH4LL5 LH4LL5 LH4LL5 LH4LL5 LH4LL5 LH4LL5 LH4LL5 LH4LL5 LH4LL5 LH4LL5 LH4LL5 LHA4LL5 LHA4LL5 HA4LL5 HA4LL5 HA4LL5 HA4LL5 HA4LL5 HA4LL5 HA4LL5 HA4L HA4L HA4L4 HA4L4 HA4L4 HA4L4 HA44 HA44 HA44 HA44 HA44 HA44 HA44 HA44 HA44 HA44 HA44 HA44 HA44 HA44 HA44 HA44 HA44 HA44 HA44 HA44 A44 A44 A44 A44 A44 A44 A44 A44 A44 A44 A44 A44 A44 A44 A44 A44 A44 A44 A44 A44 A44 A44 A44 A44 A44 A44 A44 A44 A44 A44 A44 A44 A44 A44 A44 A44 A44 A44 A44 A44 A44 A44 A44 A44 A44 A44 A44 A4 A4 A24 A24 A24 A24 A24 A24 A24 MA24 MA24 MA2M4 MA2M4 MA2M4 MA2M4 MA2M4 MA2M4 MA2M4 MA2MM4 MA2MM4 MA2MM4 MA2MM4 MA2MM4 MA2MM4 MA2MM4 MA2MM4 MJA2MM4 MJA2MM4 MJA2MM4 MJA2MM4 MJA2MM4 MJA2MM4 MJA2MM4 MJA2MM MJA2MM MJA2MM2 MJA2MM2 MJ2MM2 MJ2MM2 MJ2MM2 MJ2MM2 MJ2MM2 MJ2MM2 MJ2MM2 MJ2MM2 MJ2MM2 MJ2MM2 MJ2MM2 MJ2MM2 MJ2MM2 MJ2MM2 MJ2MM2 MJ2MM2 MJ2MM2 MJ2MM2 MJ2MM2 MJ2MM2 MJ2MM2 MJ2MM2 MJ2MM2 MJ2MM2 MJ2MM2 MJ2MM2 MJ2MM2 MJ2MM2 MJ2MM2 MJ2MM2 MJ2MM2 MJ2MM2 MJ2MM2 MJ2MM2 MJ2MM2 MJ2MM2 MJ2MM2 MJ2MM2 MJ2MM2 MJ2MM2 MJ2MM2 MJ2MM2 MJ2MM2 MJ2MM2 MJ2MM2 MJ2MM2 MJ2MM2 J2M2 J2M2 J2M2 J2M2 J22 J22 J22 J22 J22 J22 J22 J22 J22 J22 J22 22 22 22 22 22 22 22 22 22 22 22 22 22 22 22 22 22 22 22 22 2 2 2 2 2 2 2   4 4 4 4 4 4 4 4 4 O4 O4 O@4 O@4 O@4 O@4 O@4 O@4 O@4 O@4O O@4O O@4O O@4O O@4O O@4O O@4OO O@4OO O@4OO O@4OO O@4OO O@4OO O@4OO O@4OO O@4OO O@4OO O@4OO O@4OO4 O@4OO4 O@4OO4 O@4OO4 O@4OO4 OH@4OO4 OH@4OO4 OH@4OO4 OH@4OO4 OH@4OO4 OH@4OO4 OH@4OO4 OH@4OO4 OH@4OO4 OH@4OO4 OH@4OO4 OH@4OO4 OH@4OO4 OH@4OO4 OH@4OO4 OH@4OO4 OH@4OO4 OH@4OO4 OH@4OO4 OH@4OO4 OH@4OO4 OH@4OO4 OH@4OO4 OH@4OO4 OH@4OO4 OH@4OO4 OH@4OO4 OH@4OO4 OH@4OO4 OH@4OO4 OH@4OO4 OH@4OO4 OH@4OO4 OH@4OO4 OH@4OO4 OH@4OO4 OH@4OO4 OH@4OO4 OH@4OO4 OH@4OO4 OH@4OO4 OH@4OO4 OH@4OO4 OH@4OO4 OH@4OO4 OH@4OO4 OH@4OO4 OH@4OO4 OH@4OO4 OH@4OO4 OH@4OO4 OH@4OO4 OH@4OO4 OH@4OO4 OH@4OO4 OH@4OO4 OH@4OO4 OH@4OO4 OH@OO4 OH@OO4 OH@OO4 OH@OO4 OH@OO4 OH@OO4 OH@OO4 OH@OO4 OH@OO4 OH@OO4 OHG@OO4 OHG@OO4 OHG@OO4 OHG@OO4 OHG@OO4 OG@OO4 OG@OO4 OG@OO4 OG@OO4 OG@OO4 OG@OO4 OG@OO4 OGOO4 OGOO4 OGOO4 OGOO4 OGOO4 OGOO4 OGOO4 OGOO4 OGOO4 OGOO4 OGOO4 OGOO OGOO OGOO OGOO OGOO OGOO OGOO OGOO OGOO OGOO OGOO OGOO OGOO OGOO OGOO OGOO OGOO OGOO OGOO OGOO OGOO OGOO OGOO OGOO OGOO OGOO OGOO OGOO OGHOO OGHOO OGHOO OGHOO OGHOO OGHOO OGHOO OHOO OHOO OHOO OHOO OHOO OHOO OHOO OHOO OHOO OHOO OHOO OHOO OHOO OHOO OHOO OHOO OHOO OHOO OHOO OHOO OHOO OHOO OHOO OHOO OHOO OHOO OHOO OHOO OHOO OHOO OHOO OHOO OHOO OHOO OHOO OHOO OHOO OHOO OHOO OHOO OHGOO OHGOO OHGOO OHGOO OHGOO OHGOO OHGOO OHGOO OHGOO OHGOO OHGOO OHGOO OHGOO OHGOO OHGOO OHGOO OHGOO OHGOO OHGOO OHGOO OGOO OGOO OGOO OGOO OGOO OGOO OGOO OGOO OGOO OGOO OGOO OGOO OGOO OGOO OGOO OGOO OGOO OGOO OGOO OGOO OGOO OGOO OGOO OGOO OG>7OO OG>7OO OG>7OO OG>7OO OG>7OO OG>7OO OG>7OO OG>7OO OG>7OO OG>7OO OG>7OO OG>7OO OG>7OO OG>7OO OG>7OO OG>7OO OG>7OO OG>7OO OG>7OO OG>7OO OG>7OO OG>7OO OG>7OO OG>7OO OG>7OO OG>7OO G>7OO7 G>7OO7 G>7OO7 G>7OO7 G>7OO7 G>7OO7 G>7OO7 G>7OO7 G>7OO7 G>7OO7 G>7OO7 G>7OO7 G>7OO7 G>7OO7 G>7OO7 G>7OO7 G>7OO7 G>7OO7 G>7OO7 G>7OO7 G>7OO7 G>7O7 G>77 G>77 G>77 G>77 G>77 G>77 G>77 G>77 G>77 G>77 G>77 G>77 G>77 G>77 G>77 G>77 G>77 G>77 G>77 G>77 G>77 G>77 G>77 G>77 G>77 G>77 G>77 G>77 G>77 G>77 G>77 G>77 G>77 G>77 G>77 G>77 G>77 G>77 G>77 G>77 G>77 G>77 G>77 G>77 G>77 G>77 G>77 G>77 GH>77 GH>77 GH>77 GH>77 GH7 GH7 GH GH GH GH GH GH GH GH H H H H H H H H HM HM MHM MHM MHM MHM MHM MHM MHM MHM MHM MHM MHM MHMM MHMM MHMM MHMM MHMM MHMM MHMM MHMM MHMM MHMM MHMM MHMM MHMM MHMM MHMM MHMM MHMM MHMM MHMM MHMM MHMM MHMM MHMM MHMM MHMM MHMM MHMM MHMM MHMM MHMM MHMM MHMM MHMM MHMM MHMM MMM MMM MMM MMM MMM MMM MMM MMM MMM MMM MMM MMM MMM MMM MMM MMM MMM MM MM MM MM MM MM MM MM M M                                  H H H H H H H H H H< H< H< H< H< H< H< H< H< H< H< H< H< H< H<L LH<L LH<L LH<L LH<L LH<L LH<<L LH<<L LH<<L LH<<L LH<<L LH<<L LH<<L LH<<LL LH<<LL LH<<LL LH<<LL LH<<LL LH<<LL LH<<LL LH<<LL LH<<LL LH<<LL LH<<LL LH<<LL LH<<LL LH<<LL LH<<LL LH<<LL< LH<<LL< LH<<LL< LH<<LL< LH<<LL< LH<<LL< LH<<LL< LH<<LL< LH<<LL< LH<<LL< LH<<LL< LH<<LL< LH<<LL< LH<<LL< LH<<LL< LH<<LL< LH<<LL< LH<<LL< LH<<LL< LH<<LL< LH<<LL< LH<<LL< LH<<LL< LH<<LL< LH<<LL< LH<<LL< LH<<LL< LH<<LL< LH<<LL< LH<<LL< LH<<LL< LH<<LL< LH<<LL< LH<<LL< LH<<LL< LH<<LL< LH<<LL< LH<<LL< LH<<LL< LH<<LL< LH<<LL< LH<<LL< LH<<LL< LH<<LL< LH<<LL< LH<<LL< LH<<LL< LH<<LL< LH<<LL< LH<<LL< LH<<LL< LH<<LL< LH<<LL< LH<<LL< LH<<LL< LH<<LL< LH<<LL< LH<<LL< LH<<LL< LH<<LL< LH<LL< LH<LL< LH<LL< LH<LL< LH<LL< LH<LL< LH<LL< LH<LL< LH<LL< LH<L< LH<L< LH<L< LH<L< LH<L< LH<L< LH<L< LH<L< LH<L< LH<L< LH<L< LJH<LJ< LJH<LJ< LJH<LJ< LJH<LJ< LJH<;LJ< LJH<;LJ< LJH<;LJ< LJH<;LJ< LJH<;LJ< LJH;LJ< LJH;LJ< LJH;LJ< LJH;LJ< JH;LJ< JH;LJ< JH;LJ< JH;LJ< JH;LJJ< JH;LJJ< JH;JJ< JH;JJ< JH;JJ< JH;JJ< JH;JJ< JH;JJ< JH;JJ< JH;JJ< JH;JJ< JH;JJ< JH;JJ< JH;JJ<; JH;JJ<; JH;JJ<; JH;JJ<; JH;JJ<; J;JJ<; J;JJ<; J;JJ<; J;JJ<; J;JJ<; J;JJ<; J;JJ<; J;JJ<; J;JJ<; J;JJ<; J;JJ<; J;JJ<; J;JJ<; J;JJ<; J;JJ<; J;JJ<; J;JJ<; J;JJ<; J;JJ<; J;JJ<; J;JJ<; J;JJ<; J;JJ; J;JJ; J;JJ; J;JJ; J;JJ; J;JJ; J;JJ; J;JJ; J;JJ; J;JJ; J;JJ; J;JJ; J;JJ; J;JJ; J;JJ; J;JJ; J;JJ; J;JJ; J;JJ; J;JJ; J;JJ; J;JJ; J;JJ; J;JJ; J;J; J;J; J;J; J;J; J;J; J;J; J;J; J;J; J;J; J;J; J;J; J;J; J;J; J;J; J;J; J;J; J;J; J;J; J;J; J;J; J;J; ;J; ;J; ;J; ;J; J; J; J; J; J; J; J; J; J; ; ; ; ; 9; 9; 9; 9; @9; @9; @9; @9; @9; L@9; L@9L; L@9L; L@9L; L@9L; L@9L; L@9L; L@9LL; L@9LL; L@9LL; L@9LL; L@9LL; L@9LL; L@9LL; L@9LL; LH@9LL; LH@9LL; LH@9LL; LH@9LL; LH@9LL; LH@9LL;9 LH@9LL;9 LH@9LL;9 LH@9LL;9 LH@9LL;9 LH@9LL;9 LH@9LL;9 LH@9LL9 LH@9LL9 LH@9LL9 LH@9LL9 LH@9LL9 LH@9LL9 LH@9LL9 LH@9LL9 LH@9LL9 LH@9LL9 LH@9LL9 LH@9LL9 LH@9LL9 LH@9LL9 LH@9LL9 LH@9LL9 LH@9LL9 LH@9LL9 LH@9LL9 LH@9LL9 LH@9LL9 LH@9LL9 LH@9LL9 LH@9LL9 LH@9LL9 LH@9LL9 LH@9LL9 LH@9LL9 LH@9LL9 LH@9LL9 LH@9LL9 LH@9LL9 LH@9LL9 LH@9LL9 LH@9LL9 LH@9LL9 LH@9LL9 LH@9LL9 LH@9LL9 LH@9LL9 LH@9LL9 LH@9LL9 LH@9LL9 LH@9LL9 LH@9LL9 LH@9LL9 LH@9LL9 LH@9LL9 LH@9LL9 LH@9LL9 LH@9LL9 LH@9LL9 LH@9LL9 LH@9LL9 LH@9LL9 LH9LL9 LH9LL9 LH9LL9 LH9LL9 LH9LL9 LH9LL9 LH9LL9 LH9LL9 LH9LL9 LH9LL9 LH9LL9 LH9LL9 LH9LL9 LH9LL9 LH9LL9 LH9LL9 LH9L9 LH9L9 LH9L9 LH9L9 LH9L9 LH9L9 LH9L9 LH9L9 LH9L9 LH9L9 LH979 LH979 LH979 H979 H979 H979 H97H9 H97H9 H97H9 H97HH9 H97HH9 H97HH9 H97HH9 H97HH9 H97HH9 H97HH9 H97HH9 H97HH9 H97HH9 H97HH9 H97HH9 H97HH9 H97HH9 H7HH9 H7HH9 H7HH97 H7HH97 H7HH97 H7HH97 H7HH97 H7HH97 H7HH97 H7HH97 H7HH97 H7HH97 H7HH97 H7HH97 H7HH97 H7HH97 H7HH97 H7HH97 H7HH97 H7HH97 H7HH97 H7HH97 H7HH97 H7HH97 H7HH97 H7HH97 H7HH97 H7HH97 H7HH97 H7HH97 H7HH97 H7HH97 H7HH97 H7HH7 H7HH7 H7HH7 H7HH7 H7HH7 H7HH7 H7HH7 H7HH7 H7HH7 H7HH7 H7HH7 H7HH7 H7HH7 H7HH7 H7HH7 H7HH7 H7HH7 H7HH7 H7HH7 H7HH7 H7HH7 H7HH7 H7HH7 H7HH7 H7HH7 H7HH7 H7HH7 H7HH7 H7HH7 H7HH7 H7HH7 H7HH7 H7H7 H7H7 H7H7 H7H7 H7H7 H7H7 H7H7 H7H7 H7H7 H7H7 H7H7 H7H7 H7H7 H7H7 H77 H77 H77 77 77 77 77 77 77 77 77 77 77 77 77 77 7 7 57 57 57 57 57 57 57 57 57 57 57 57 57 575 575 55 55 G55 G55 G5J5 GA5J5 GA5J5 GA5J5 GA5J5 GA5J5 GA5J5 GA5JJ5 JGA5JJ5 JGA5JJ5 JGA5JJ5 JGA5JJ5 JGA5JJ5 JGA5JJ5 JGA5JJ5 JGA5JJ5 JGA5JJ5 JGA5JJ5 JGA5JJ5 JGA5JJ5 JGA5JJ5 JGA5JJ5 JGA5JJ5 JGA5JJ5 JGA5JJ5 JGA5JJ5 JGA5JJ5 JGA5JJ5 JGA5JJ5 JGA5JJ5 JGA5JJ5 JGA5JJ5 JGA5JJ5 JGA5JJ5 JGA5JJ5 JGA5JJ5 JGA5JJ5 JGA5JJ5 JGA5JJ5 JGA5JJ5 JGA5JJ5 JGA5JJ5 JGA5JJ5 JGA5JJ5 JGA5JJ5 JGA5JJ5 JGA5JJ5 JGA5JJ5 JGA5JJ5 JGA5JJ5 JGA5JJ5 JGA5JJ5 JGA5JJ5 JGA5JJ5 JGA5JJ5 JGA5JJ5 JGA5JJ5 JGA5JJ5 JGA5JJ5 JGA5JJ5 JGA5JJ5 JGA5JJ5 JGA5JJ5 JGA5JJ5 JGA5JJ5 JGA5JJ5 JGA5JJ5 JGEA5JJ5 JGEA5JJ5 JGEA5JJ5 JGEA5JJ5 JGEA5JJ5 JGEA5JJ5 JGEA5JJ5 JEA5JJ5 JEA5JJ5 JEA5JJ5 JEA5JJ5 JEA5JJ5 JEA5JJ5 JEA5JJ5 JEA54JJ5 JEA54JJ5 JEA54JJ5 JEA54JJ5 JEA54JJ5 JEA54JJ5 JEA54JJ5 JEA54JJ5 JEA54JJ5 JEA54JJ54 JEA54JJ54 JEA54JJ54 JEA54JJ54 JEA54JJ54 JEA54JJ54 JEA54JJ54 JEA54JJ54 JEA54JJ54 JEA54JJ54 JEA4JJ54 JEA4JJ54 JEA4JJ54 JEA4JJ54 JEA4JJ54 JEA4JJ54 JEA4JJ54 JEA4JJ54 JEA4JJ54 JEA4JJ4 JEA4JJ4 JEA4JJ4 JEA4JJ4 JEA4JJ4 JEA4JJ4 JEA4JJ4 JEA4JJ4 JEA4JJ4 JEGA4JJ4 JEGA4JJ4 JEGA4JJ4 JGA4JJ4 JGA4JJ4 JGA4JJ4 JGA4JJ4 JGA4JJ4 JGA4JJ4 JGA4JJ4 JGA4JJ4 JGA4JJ4 JGA4JJ4 JGA4JJ4 JGA4JJ4 JGA4JJ4 JGA4JJ4 JGA4JJ4 JGA4JJ4 JGA4JJ4 JGA4JJ4 JGA4JJ4 JGA4JJ4 JGA4JJ4 JGA4JJ4 JGA4JJ4 JGA4JJ4 JGA4JJ4 JGA4JJ4 JGA4JJ4 JGA4JJ4 JGA4JJ4 JGA4JJ4 JGA4JJ4 JGA4JJ4 JGA4JJ4 JGA4JJ4 JGA4JJ4 JGA4JJ4 JGA4JJ4 JGA4JJ4 JGA4JJ4 JGA4JJ4 JGA4JJ4 JGA4JJ4 JGA4JJ4 JGA4JJ4 JGA4JJ4 JGA4JJ4 JGA4JJ4 JGEA4JJ4 JGEA4JJ4 JGEA4JJ4 JGEA4JJ4 JGEA4JJ4 JGEA4JJ4 JGEA4JJ4 JGEA4JJ4 JGEA4JJ4 JGEA4JJ4 JGEA4JJ4 JGEA4JJ4 JGEA4JJ4 JGEA4JJ4 JEA4JJ4 JEA4JJ4 JEA4JJ4 JEA4JJ4 JEA4JJ4 JEA4JJ4 JEA4JJ4 JEA4JJ4 JEA4JJ4 JEA4JJ4 JEA4JJ4 JEA4JJ4 JEA4JJ4 JEA4JJ4 JEA4JJ4 JEA4JJ4 JEA4JJ4 JEA4JJ4 JEA4JJ4 JEA4JJ4 JEA4JJ4 JEA4JJ4 JEA4JJ4 JEA4JJ4 JEA4JJ4 JEA4JJ4 JEA4JJ4 JEA4JJ4 JEA4JJ4 JEA2JJ4 JEA2JJ4 JEA2JJ4 JEA2JJ4 JEA2JJ4 JEA2JJ4 JEA2JJ4 JEA2JJ4 JEA2JJ4 JEA2JJ42 JEA2JJ42 JEA2JJ42 JEA2JJ42 JEA2JJ42 JEA2JJ2 JEA2JJ2 JEA2JJ2 JEA2JJ2 JEA2JJ2 JEA2JJ2 JEA2JJ2 JEA2JJ2 JEA2JJ2 JEA2JJ2 JEA2JJ2 JEA2JJ2 JEA2JJ2 JEA2JJ2 JEA2JJ2 JEA2JJ2 JEA2JJ2 JEA2JJ2 JEA2JJ2 JEA2JJ2 JEA2JJ2 JEA2JJ2 JEA2JJ2 JEA2JJ2 JEA2JJ2 JEA2JJ2 JEA2JJ2 JEA2JJ2 JEA2JJ2 JEA2JJ2 E2JJ2 E2JJ2 E2JJ2 E2J2 E2J2 E2J2 E2J2 E2J2 E22 E22 E22 E22 E22 E22 E22 E22 E22 E22 E22 E22 E22 E22 E22 E22 E22 E22 E22 E22 E22 E22 E22 E22 E22 E22 E22 E22 E22 E22 E22 E22 E22 E22 E22 22 22 22 22 22 22 22 22 22 22 22 22 22 22 22 22 22 22 22 22 22 22 22 22 22 22 22 22 22 22 22 22 22 22 02 02 02 02 02 02 02 02 00 00 00 00 00 00 00 00 00 0LL0 0LL0 L0LL0 L0LL0 L0LL0 L0LL0 LE0LL0 LE0LL0 LE0LL0 LE0LL0 LE0LL0 LE0LL0 LE0LL0 LE0LL0 LE0LL0 LE0LL0 LE0LL0 LE0LL0 LE0LL0 LE0LL0 LE0LL0 LE@0LL0 LE@0LL0 LE@0LL0 LE@0LL0 LE@0LL0 LE@0LL0 LE@0LL0 LE@0LL0 LE@0LL0 LE@0LL0 LE@0LL0 LE@0LL0 LE@0LL0 LE@0LL0 LE@0LL0 LE@0LL0 LE@0LL0 LE@0LL0 LE@0LL0 LE@0LL0 LE@0LL0 LE@0LL0 LE@0LL0 LE@0LL0 LE@0LL0 LE@0LL0 LE@0LL0 LE@0LL0 LE@0LL0 LE@0LL0 LE@0LL0 LE@0LL0 LE@0LL0 LE@0LL0 LE@0LL0 LE@0LL0 LE@0LL0 LE@0LL0 LE@0LL0 LE@0LL0 LE@0LL0 LE@0LL0 LE@0LL0 LE@0LL0 LE@0LL0 LE@0LL0 LE@0LL0 LE@0LL0 LE@0LL0 E@0LL0 E@0L0 E@0L0 0L0 0L0 0L0 0L0 0L0 0L0 00 00 00 00 00 00 00 00 00 00 00 00 00 0 0 0 0 0 0 0 0 0 0 0 0                         M M ME22 ME22 ME22 ME22 ME22 ME2M2 ME2M2 ME2MM2 ME2MM2 ME2MM2 ME2MM2 ME>2MM2 ME>2MM2 ME>2MM2 ME>2MM2 ME>2MM2 ME>2MM2 ME>2MM2 ME>2MM2 ME>2MM2 ME>2MM2 ME>2MM2 ME>2MM2 ME>2MM2 ME>2MM2 ME>2MM2 ME>2MM2 ME>2MM2 ME>2MM2 ME>2MM2 ME>2MM2 ME>2MM2 ME>2MM2 ME>2MM2 ME>2MM2 ME>2MM2 ME>2MM2 ME>2MM2 ME>2MM2 ME>2MM2 ME>2MM2 ME>2MM2 ME>2MM2 ME>2MM2 ME>2MM2 ME>2MM2 ME>2MM2 ME>2MM2 ME>2MM2 ME>2MM2 ME>2MM2 ME>2MM2 ME>2MM2 ME>2MM2 ME>2MM2 ME>2MM2 ME>2MM2 ME>2MM2 ME>2MM2 ME>2MM2 ME>2MM2 ME>2MM2 ME>2MM2 ME>2MM2 ME>2MM2 ME>2MM2 ME>2MM2 ME>2MM2 ME>2MM2 ME>2MM2 ME>2MM2 ME>2MM2 ME>2MM2 ME>2MM2 ME>2MM2 ME>2MM2 ME>2MM2 ME>2MM2 ME>2MM2 ME>2MM2 ME>2MM2 ME>2MM2 ME>2MM2 ME>2MM2 ME>2MM2 ME>2MM2 ME>2MM2 ME>2MM2 ME>2MM2 ME>2MM2 ME>2MM2 ME>2MM2 ME>2MM2 ME>2MM2 ME>2MM2 ME>2MM2 ME>2MM2 ME>2MM2 ME>2MM2 ME>2MM2 ME>2MM2 ME>2MM2 ME>2MM2 ME>2MM2 ME>2MM ME>2MM ME>2MM ME>2MM ME>2MM ME>2MM ME>2MM ME>2MM ME>2MM ME>2MM ME>2MM ME>2MM ME>2MM ME>2MM ME>2MM ME>2MM ME>2MM ME>2MM ME>2MM ME>2MM ME>MM ME>MM ME>MM ME>MM MEC>MM MEC>MM MEC>MM MEC>MM MEC>MM MEC>MM MEC>MM MEC>MM MEC>MM MEC>MM MEC>MM MEC>MM MEC>MM MEC>MM MEC>MM MEC>MM MEC>MM MEC>MM MEC>MM MEC>MM MEC>MM MEC>MM MEC>MM MEC>MM MEC>MM MEC>MM MEC>MM MC>MM MC>MM MC>MM MC>MM MC>MM MC>MM MC>MM MC>MM MC>MM MC>MM MC>MM MC>MM MC>MM MCMM MCMM MCMM MCMM MCMM MCMM MCMM MCMM MCMM MCMM MCMM MCMM MCMM MCMM MCMM MCMM MCMM MCMM MCMM MCMM MCMM MCMM MCMM MCMM MCMM MCMM MCMM MCMM MCMM MCMM MCMM MCMM MCMM MCMM MCMM MCMM MCMM MCMM MCMM MCMM MCMM MCMM MCMM MCMM MCMM MCMM MCMM MCMM MCMM MCMM MCMM MCMM MCMM MCMM MCMM MCMM MCMM MCMM MCMM MCMM MMM MMM MMM MMM MMM MMM MMM MMM MMM MMM MMM MMM MMM MM MM MM MM MM <MM <MM A<MM A<MM A<MM A<MM A<MM A<MM A<MM A<MM A<MM A<MM A<MM A<9MM A<9MM A<9MM A<9MM A<9MM A<9MM9 A<9MM9 A<9MM9 A<9M9 A<9M9 A<9M9 A<9M9 A<9M9 A<9M9 A<9M9 A<9M9 A<9M9 A<9M9 A<9M9 A<9M9 A<9M9 A<9M9 A<9M9 A<9M9 A<99 A<99 A<99 A<99 A<99 A<99 A<99 A<99 A<99 A<99 A<99 A<99 A<99 A<99 A<99 A<99 A<99 A<99 A<99 A<99 A<99 A<99 A<99 A<99 A<99 A<99 A<99 A<99 A<99 A<99 A<99 A<99 A<99 A<99 A<99 A<99 A<99 A<99 A<99 A<99 A99 A99 A99 A99 A99 A99 A99 A99 A99 A99 A99 A99 A99 A99 A99 A99 A99 A99 A99 A99 A99 A99 A99 A99 A;99 A;99 A;99 A;99 A;99 A;99 A;99 LA;99 LA;99 LA;99 LA;99 LA;99 LA;9L9 LA;9L9 LA;9L9 LA;9L9 LA;9L9 LA;9L9 LA;9L9 LA;9L9 LA;9L9 LA;9LL9 LA;9LL9 LA;9LL9 LA;9LL9 LA;97LL9 LA;97LL9 LA;97LL97 LA;97LL97 LA;97LL97 LA;97LL97 LA;97LL97 LA;97LL97 LA;97LL97 LA;97LL97 LA;97LL97 LA;97LL97 LA;97LL97 LAC;97LL97 LAC;97LL97 LAC;97LL97 LAC;97LL97 LAC;97LL97 LAC;97LL97 LAC;97LL97 LAC;97LL97 LAC;97LL97 LAC;7LL97 LAC;7LL97 LAC;7LL97 LAC;7LL97 LAC;7LL97 LAC;7LL7 LAC;7LL7 LAC;7LL7 LAC;7LL7 LAC;7LL7 LAC;7LL7 LAC;7LL7 LAC;7LL7 LAC;7LL7 LAC;7LL7 LAC;7LL7 LAC;7LL7 LAC;7LL7 LAC;7LL7 LAC;7LL7 LAC;7LL7 LAC;7LL7 LC;7LL7 LC;7LL7 LC;7LL7 LC;7LL7 LC;7LL7 LC;7LL7 LC;7LL7 C;7L7 C;7L7 C7L7 C7L7 C7L7 C7L7 C7L7 C7L7 C7L7 C77 C77 C77 C77 C77 C77 C77 C77 C77 C77 C77 C77 C77 C77 C77 C77 C77 C77 C77 C77 C77 C77 C77 C77 C77 C77 C77 C77 C77 C77 C77 C77 C77 C77 C77 C77 C77 C977 C977 C977 C977 C977 C977 C977 C977 C977 C977 C977 C977 C9757 C9757 C975J7 C975J7 C975J7 C975J7 975J7 975J7 95J7 95J7 95J7 J95J75 J95J75 J95J75 J95J75 J95J75 J95J75 J95JJ75 J95JJ75 J95JJ75 J95JJ75 J95JJ75 JE95JJ75 JE95JJ75 JE95JJ75 JE95JJ75 JE95JJ75 JE95JJ75 JE95JJ75 JE95JJ75 JE95JJ75 JE95JJ75 JE95JJ75 JE95JJ75 JE95JJ75 JE95JJ75 JE95JJ75 JE95JJ75 JE95JJ75 JE95JJ5 JE95JJ5 JE95JJ5 JE95JJ5 JE95JJ5 JE95JJ5 JE95JJ5 JE95JJ5 JE95JJ5 JE95JJ5 JE95JJ5 JE95JJ5 JE95JJ5 JE95JJ5 JE95JJ5 JE95JJ5 JE95JJ5 JE95JJ5 JE95JJ5 JE95JJ5 JE95JJ5 JE95JJ5 JE95JJ5 JE95JJ5 JE95JJ5 JE95JJ5 JE95JJ5 JE95JJ5 JE95JJ5 JE95JJ5 JE95JJ5 JE95JJ5 JE95JJ5 JE95JJ5 JE95JJ5 JE95JJ5 JE95JJ5 JE95JJ5 JE95JJ5 JE95JJ5 JE95JJ5 JE95JJ5 JE95JJ5 JE95JJ5 JE95JJ5 JE95JJ5 JE95JJ5 JE95JJ5 JE95JJ5 JE95JJ5 JE95JJ5 JE95JJ5 JE95JJ5 JE95JJ5 JE95JJ5 JE95JJ5 JE95JJ5 JE95JJ5 JE95JJ5 JE95JJ5 JE95JJ5 JE95JJ5 JE95JJ5 JE95JJ5 JE95JJ5 JE95JJ5 JE95JJ5 JE95JJ5 JE95JJ5 JE95JJ5 JE95JJ5 JE95JJ5 JE95JJ5 JE95JJ5 JE95JJ5 JE5JJ5 JE5JJ5 JE5JJ5 JHE5JJ5 JHE54JJ5 JHE54JJ5 JHE54J5 JHE54J5 JHE54J5 JHE54J5 JHE54JH5 JHE54JH5 JHE54JH5 JHE54JH5 HE54JH5 HE54JH5 HE54JH5 HE54JH5 HE54JH5 HE54JH5 HE54JH5 HE54JHH5 HE54JHH5 HE54JHH5 HE54JHH5 HE54JHH54 HE54JHH54 HE54JHH54 HE54JHH54 HE54JHH54 HE54JHH54 HE54JHH54 HE4JHH54 HE4JHH54 HE4JHH54 HE4JHH54 HE4JHH54 HE4JHH54 HE4JHH54 HE4JHH54 HE4JHH54 HE4JHH54 HE4HH54 HE4HH54 HE4HH54 HE4HH54 HE4HH54 HE4HH54 HE4HH54 HE4HH54 HE4HH54 HE4HH54 HE4HH4 HE4HH4 HE4HH4 HE4HH4 HE4HH4 HE4HH4 HE4HH4 HE4HH4 HE4HH4 HE4HH4 HE4HH4 HE4HH4 HE4HH4 HE4HH4 HE4HH4 HE4HH4 HE4HH4 HE4HH4 HE4HH4 HE4HH4 HE4HH4 HE4HH4 HE4HH4 HE4HH4 HE4HH4 HE4HH4 HE4HH4 HE4HH4 H4HH4 H4HH4 H4HH4 H4HH4 H4HH4 H4HH4 H4HH4 H4HH4 H4HH4 H4HH4 H4HH4 H4HH4 H4HH4 H4HH4 H4HH4 H4HH4 H4HH4 H4HH4 H4HH4 H4HH4 H4HH4 H4HH4 H4HH4 H4HH4 4HH4 4HH4 4HH4 4HH4 4HH4 4HH4 4HH4 G4HH4 G4HH4 G4HH4 G4HH4 G4HH4 G4HH4 G4HH4 G4H4 G4H4 G4H4 G4H4 G4H4 G4H4 G4H4 G44 G44 G2G4 G2G4 G2G4 G2G4 G>2G4 G>2G4 GA>2G4 GA>2G4 GA>2G4 GA>2G4 GA>2G4 GA>2G4 GA>2G4 GA>2G42 GA>2G42 GA>2G42 GA>2G42 GA>2G42 GA>2G42 GA>2G42 GA>2GG2 GA>2GG2 GA>2GG2 GA>2GG2 GA>2GG2 GA>2GG2 GA>2GG2 GA>2GG2 GA>2GG2 GA>2GG2 GA>2GG2 GA>2GG2 GA>2GG2 GA>2GG2 GA>2GG2 GA>2GG2 GA>2GG2 GA>2GG2 GA>2GG2 GA>2GG2 GA>2GG2 GA>2GG2 GA>2GG2 GA>2GG2 GA>2GG2 GA>2GG2 GA>2GG2 GA>2GG2 GA>2GG2 GA>2GG2 GA>2GG2 GA>2GG2 GA>2GG2 GA>2GG2 GA>2GG2 GA>2GG2 GA>2GG2 GA>2GG2 GA>2GG2 GA>2GG2 GA>2GG2 GA>2GG2 GA>2GG2 GA>2GG2 GA>2GG2 GA>2GG2 GA>2GG2 GA>2GG2 GA>2GG2 GA>2GG2 GA>2GG2 GA>2GG2 GA>2GG2 GA>2GG2 GA>2GG2 GA>2GG2 GA>2GG2 GA>2GG2 GA>2GG2 GA>2GG2 GA>2GG2 GA2GG2 GA2GG2 GA2GG2 GA2GG2 GA2GG2 GA2GG2 GA2GG2 GA2GG2 GA2GG2 GA2GG2 GA2GG2 GA2GG2 GA2GG2 GA2GG2 GA2GG2 GA2GG2 GHA20GG2 GHA20GG2 GH20GG2 GH20GG2 GH20GG2 GH@20GG2 GH@20GG2 GH@20GG2 GH@20GG2 GH@20GG2 GH@20GG2 GH@20GG2 GH@20GG2 GH@20GG2 GH@20GG2 GH@20GG2 GH@20GG2 GH@20GG2 GH@0GG20 GH@0GG20 GH@0GG0 GH@0GGH0 GH@0GGH0 GH@0GGH0 GH@0GGH0 GH@0GGH0 GH@0GGH0 GH@0GGH0 GH@0GGH0 GH@0GH0 GH@0GH0 GH@0GH0 GH@0GH0 GH@0GH0 GH@0GH0 H@0GH0 H@0GH0 H@0GH0 H@0GH0 H@0H0 H@0H0 H@0H0 H@0H0 H@0H0 H@0H0 H@0H0 H@0HH0 H@0HH0 H@0HH0 H@0HH0 H@0HH0 H@0HH0 H@0HH0 H@0HH0 H@0HH0 H@0HH0 H@0HH0 H@0HH0 H@0HH0 H@0HH0 H@0HH0 H@0HH0 H@0HH0 H@0HH0 H@0HH0 H@0HH0 H@0HH0 H@0HH0 H@0HH0 H@0HH0 H@0HH0 H@0HH0 H@0HH0 H@0HH0 H@0HH0 H@0HH0 H@0HH0 H@0HH0 H@0HH0 H@0HH0 H@0HH0 H@0HH0 H@0HH0 H@0HH0 H@0HH0 H@0HH0 H@0HH0 H@0HH0 H@0HH0 H@0HH0 H@0HH0 H@0HH0 H@0HH0 H@0HH0 H@0HH0 H@0HH0 H@0HH0 H@0HH0 H@0HH0 H@0HH0 H@0HH0 H@0HH0 H@0HH0 H@0HH0 H@0HH0 H@0HH0 H@0HH0 H@0HH0 H@0HH0 H@0HH0 H@0HH0 H@0HH0 H@0HH0 H@0HH0 H@0HH0 H@0HH0 H@0HH0 H@0HH0 H@0HH0 H@0HH0 @0/HH0 @0/HH0 0/HH0 0/HH0 0/HH0 0/HH0 0/HH0 0/HH0 0/H0 0/H0 0/H0 0/H0 0/H0 0/H0 0/H0 70/H0 70/H0 70/H0/ 70/H0/ 70/H0/ 70/0/ 70/0/ J70/0/ J70/0/ J7/0/ J7/0/ J7/0/ J7/0/ JA7/0/ JA7/0/ JA7/0/ JA7/0/ JA7/0/ JA7/0/ JA7/0/ JA7/0/ JA7/J0/ JA7/J0/ JA7/J0/ JA7/J0/ JA7/J0/ JA7/J0/ JA7/J0/ JA7/J0/ JA7/J0/ JA7/J0/ JA7/J0/ JA7/J0/ JA7/J0/ JA7/J0/ JA7/JJ0/ JA7/JJ0/ JA7/JJ0/ JA7/JJ/ JA7/JJ/ JA7/JJ/ JA7/JJ/ JA7/JJ/ JA7/JJ/ JA7/JJ/ JA7/JJ/ JA7/JJ/ JA7/JJ/ JA7/JJ/ JA7/JJ/ JA7/JJ/ JA7/JJ/ JA7/JJ/ JA7/JJ/ JA7/JJ/ JA7/JJ/ JA7/JJ/ JA7/JJ/ JA7/JJ/ JA7/JJ/ JA7/JJ/ JA7/JJ/ JA7/JJ/ JA7/JJ/ JA7/JJ/ JA7/JJ/ JA7/JJ/ JA7/JJ/ JA7/JJ/ JA7/JJ/ JA7/JJ/ JA7/JJ/ JA7/JJ/ JA7/JJ/ JA7/JJ/ JA7/JJ/ JA7/JJ/ JA7/JJ/ JA7/JJ/ JA7/JJ/ JA7/JJ/ JA7/JJ/ JA7/JJ/ JA7/JJ/ JA7/JJ/ JA7/JJ/ JA7/JJ/ JA/JJ/ JA/JJ/ JA/JJ/ JA/JJ/ JA/JJ/ JA/JJ/ JA/JJ/ JA/JJ/ JA/JJ/ JA/JJ/ JA/JJ/ JA/JJ/ JA/JJ/ JA/-JJ/ JA/-JJ/ JA/-JJ/ JA/-JJ/ JA/-JJ/ JA/-JJ/ JA/-JJ/ JA/-JJ/ JA-JJ/ J-JJ/ J-JJ/ JG-JJ/ JG-JJ/ JG-JJ/ JG-JJ/ JG-JJ/ JG-JJ/ JG-JJ/ JG-JJ/ JG-JJ/ JG-JJ/ JG-JJ/ JG-JJ/ JG-JJ/ JG-JJ/ G-JJ/ G-JJ/ G-JJG/ G-JJG/ G-JJG/- G-JJG/- G-JJG/- G-JJG/- G-JJG/- G-JJG/- G-JJG/- G-JJG/- G-JJG/- G-JJG/- G-JJG/- G-JGJG/- G-JGJG/- G-JGG/- G-JGG/- G-JGG- G-JGG- G-JGG- G-JGG- G-JGG- G-JGG- G-JGG- G-JGG- G-JGG- G-JGG- G-JGG- G-GG- G-GG- G-GG- G-GG- G-GG- G-GG- G-GG- G-GG- G-GG- G-GG- G-GG- G-GG- G-GG- G-GG- G-GG- G-GG- G-GG- G-GG- G-GG- G-GG- G-GG- G-GG- G-GG- G-GG- G-GG- G-GG- G-GG- G-GG- G-GG- G-GG- G-GG- G-GG- G-GG- G-GG- G-GG- G-GG- G-GG- G-GG- G-GG- G-GG- G-GG- G-GG- G-GG- G-GG- G-GG- G-GG- G-GG- G-GG- G-GG- G-GG- G-GG- G-GG- G-GG- G-GG- G-GG- G-GG- G-GG- G-GG- G-GG- G-GG- G-GG- G-GG- G-+GG- G-+GG- G-+GG- G-+GG- G-+GG- GH-+GG- GH-+GG- GH-+GG- GH-+GG- GH-+GG- GH-+GG- GH-+GG- GH-+GG- GH-+GG- GH-+GG- GH-+GG- GH-+GG- GH-+GG- GH-+GG- GH-+GG- GH-+GG- GH-+G- GH-+G- GH-+G- GH-+G- GH-+G- GH-+GH-+ GH-+GH-+ GH-+GH-+ H-+GH-+ H-+GH-+ H-+GH-+ H-+GH-+ H+GH-+ H+GH-+ H+H-+ H+H-+ H+H-+ H+H-+ H+H-+ H+H-+ H+H-+ H<+H-+ H<+H-+ H<+HH-+ H<+HH-+ H<+HH+ H<+HH+ H<+HH+ H<+HH+ H<+HH+ H<+HH+ H<+HH+ HE<+HH+ HE<+HH+ HE<+HH+ HE<+HH+ HE<+HH+ HE<+HH+ HE<+HH+ HE<+HH+ HE<+HH+ HE<+HH+ HE<+HH+ HE<+HH+ HE<+HH+ HE<+HH+ HE<+HH+ HE<+HH+ HE<+HH+ HE<+HH+ HE<+HH+ HE<+HH+ HE<+HH+ HE<+HH+ HE<+HH+ HE<+HH+ HE<+HH+ HE<+HH+ HE<+HH+ HE<+HH+ HE<+HH+ HE<+HH+ HE<+HH+ HE<+HH+ HE<+HH+ HE<+HH+ HE<+HH+ HE<+HH+ HE<+HH+ HE<+HH+ HE<+HH+ HE<+HH+ HE<+HH+ HE<+HH+ HE<+HH+ HE<+HH+ HE<+HH+ HE<+HH+ HE<+HH+ HE<+HH+ HE<+HH+ HE<+HH+ HE<+HH+ HE<+HH+ HE<+HH+ HE<+HH+ HE<+HH+ HE<+HH+ HE<+HH+ HE<+HH+ HE<+HH+ HE<+HH+ HE<+HH+ HE<+HH+ HE<+HH+ HE<+HH+ HE<+HH+ HE<+HH+ HE<+HH+ HE<+HH+ HE<+HH+ HEHH+ HEHH+ HJEHH+ HJEHH+ HJE)HH+ HJE)HH+ HJE)HH+ J)HH+ J)HH+ J)HH+ J)HH+ J)HH+ J)HH+ J)HH+ J)HH+ J)HH+ J)HHJ+ J)HHJ+ J)HHJ+ J)HHJ+ J)HHJ+ J)HHJ+ J)HHJ+ J)HHJ+ J)HHJ+ J)HHJ+ J)HHJ+) J)HHJ+) J)HHJ+) J)HHJ+) J)HHJ+) J)HHJ+) J)HJ+) J)HJ+) J)HJ+) J)HJJ+) J)HJJ+) J)HJJ+) J)HJJ+) J)HJJ+) J)JJ+) J)JJ+) J)JJ+) J)JJ+) J)JJ+) J)JJ+) J)JJ+) J)JJ+) J)JJ+) J)JJ+) J)JJ+) J)JJ+) J)JJ+) J)JJ+) J)JJ+) JJJ+) JJJ+) JJJ+) JJJ+) JJJ+) JJJ+) JJJ+) JJJ) JJJ) JJJ) JJJ) JJJ) JJJ) JJJ) JJJ) JJJ) JJJ) JJJ) JJJ) JJJ) JJJ) JJJ) JJJ) JJJ) JJJ) JJ JJ JJ JJ JJ JJ JJ JJ JJ JJ JJ JJ JJ JJ JJ JJ JJ JJ JJ JJ JJ JJ JJ JJ J J                              5 5 C5 C5 C5 C5 C5 C5 C5 C5 C5 C5 C5 C5 C5 C5 C5C C5C C5C C5C C5C C5C C5C C5C C5C C5C C5C C5C C5CC C5CC C5CC C5CC C5CC C5CC C5CC C5CC C5CC C5CC5 C5CC5 C5CC5 C;5CC5 C;5CC5 C;5CC5 C;5CC5 C;5CC5 C;5CC5 C;5CC5 C;5CC5 C;5CC5 C;5CC5 C;5CC5 C;5CC5 C;5CC5 C>;5CC5 C>;5CC5 C>;5CC5 C>;5CC5 C>;5CC5 C>;5CC5 C>;5CC5 C>;5CC5 C>;5CC5 C>;5CC5 C>;5CC5 C>;5CC5 C>;5CC5 C>;5CC5 C>;5CC5 C>;5CC5 C>;5CC5 C>;5CC5 C>;5CC5 C>;5CC5 C>;5CC5 C>;5CC5 C>;5CC5 C>;5CC5 C>;5CC5 C>;5CC5 C>;5CC5 C>;5CC5 C>;5CC5 C>;5CC5 C>;5CC5 C>;5CC5 C>;5CC5 C>;5CC5 C>;5CC5 C>;5CC5 C>;5CC5 C>;5CC5 C>;5CC5 C>;5CC5 C>;5CC5 C>;5CC5 C>;5CC5 C>;5CC5 C>;5CC5 C>;5CC5 C>;5CC5 C>;5CC5 C>;5CC5 C>;5CC5 C>;5CC5 C>;5CC5 C>;5CC5 C>;5CC5 C>;5CC5 C>;5CC5 C>;5CC5 C>;5CC5 C>;5CC5 C>;5CC5 C>;5CC5 C>;5CC5 C>;5CC5 C>;5CC5 C>;5CC5 C>;5CC5 C>;5CC5 C>;5CC5 C>;5CC5 C>;5CC5 C>;5CC5 C>;5CC5 C>;5CC5 C>;5CC5 C>;5CC5 C>;5CC5 C>;5CC5 C>;5CC5 C>;5CC5 C>;5CC5 C>;5CC5 C>;5CC5 C>;5CC5 C>;5CC5 C>;5CC5 C>;5CC5 C>;5CC5 C>;5CC5 C>;5CC5 C>;5CC5 C>;5CC5 C>;5CC5 C>;5CC5 C>;5CC5 C>;5CC5 C>;5CC5 C>;5CC5 C>;5CC5 C>;5CC5 C>;5CC5 C>;5CC5 C>;5CC5 C>;5CC5 C>;5CC5 C>;5CC5 C>;5CC5 C>;5CC5 C>;5CC5 C>;5CC5 C>;5CC5 C>;5CC5 C>;5CC5 C>;5CC5 C>;5CC5 C>;5CC5 C>;5CC5 C>;5CC5 C>;5CC5 C>;5CC5 C>;5CC5 C>;5CC5 C>;5CC5 C>;5CC5 C>;5CC5 C>;5CC5 C>;5CC5 C>;5CC5 C>;5CC5 C>;5CC5 C>;5CC5 C>;5CC5 C>;5CC5 C>;5CC5 C>;5CC5 C>;5CC5 C>;5CC5 C>;5CC5 C>;5CC5 C>;5CC5 C>;5CC5 C>;5CC5 C>;5CC5 C>;5CC5 C>;5CC5 C>;5CC5 C>;5CC5 C>;5CC5 C>;5CC5 C>;5CC5 C>;5CC5 C>;5CC5 C>;5CC5 C>;5CC5 C>;5CC5 C>;5CC5 C>;5CC5 C>;5CC5 C>;5CC5 C>;5CC5 C>;5CC5 C>;5CC5 C>;5CC5 C>;5CC5 C>;5CC5 C>;5CC5 C>;5CC5 C>;5CC5 C>;5CC5 C>;5CC5 C>;5CC5 C>;5CC5 C>;5CC5 C>;5CC5 C>;5CC5 C>;5CC5 C>;5CC5 C>;5CC5 C>;5CC5 C>;5CC5 C>;5CC5 C>;5CC5 C>;5CC5 C>;5CC5 C>;5CC5 C>;5CC5 C>;5CC5 C>;5CC5 C>;5CC5 C>;5CC5 C>;5CC5 C>;5CC5 C>;5CC5 C>;5CC5 C>;5CC5 C>;5CC5 C>;5CC5 C>;5CC5 C>;5CC5 C>;5CC5 C>;5CC5 C>;5CC5 C>;5CC5 C>;5CC5 C>;5CC5 C>;5CC5 C>;5CC5 C>;5CC5 C>;5CC5 C>;5CC5 C>;5CC5 C>;5CC5 C>;5CC5 C>;5CC5 C>;5CC5 C>;5CC5 C>;5CC5 C>;5CC5 C>;5CC5 C>;5CC5 C>;5CC5 C>;5CC5 C>;5CC5 C>;5CC5 C>;5CC5 C>;5CC5 C>;5CC5 C>;5CC5 C>;5CC5 C>;5CC5 C>;5CC5 C>;5CC5 C>;5CC5 C>;5CC5 C>;5CC5 C>;5CC5 C>;5CC5 C>;5CC5 C>;5CC5 C>;5CC5 C>;5CC5 C>;5CC5 C>;5CC5 C>;5CC5 C>;5CC5 C>;5CC5 C>;5CC5 >;5CC5 >;5CC5 >;5CC5 >;5CC5 >;5CC5 >;5CC5 >;5CC5 >;5CC5 >;5CC5 >;5CC5 >;5CC5 >;5CC5 >;5CC5 >;5CC5 >;5CC5 >;5CC5 >;5CC5 >;5CC5 >;5CC5 >;5CC5 >;5CC5 >;5CC5 >;5CC5 >;5CC5 >;5CC5 >;5CC5 >;5CC5 >;5CC5 >;5CC5 >;5C5 >;5C5 >;5C5 >;5C5 >;5C5 >;5C5 >;55 >;55 >;55 >;55 >;55 >;55 >;55 >;55 >;55 >;55 >;55 >;55 >;55 >;55 >;55 >;55 >;55 >;55 >;55 >;55 >;55 >;55 >;55 >;55 >;55 >;55 >;55 >;55 >;55 >;55 >;55 >;55 >;55 >;55 >;55 >;55 >;55 >;55 >;55 >;55 >;55 >;55 >;55 >;55 >;55 >;55 E>;55 E>;55 E>;55 E>;55 E>;55 E>;5E5 E>;5EE5 E>;5EE5 E>;5EE5 E>;5EE5 E>;5EE5 E>;5EE5 E>;5EE5 E>;5EE5 E>;5EE5 E>;5EE5 E>;5EE5 E>;5EE5 E>;5EE5 E>;5EE5 E>;5EE5 E>;5EE5 E>;5EE5 E>;5EE5 E>;5EE5 E>;5EE5 E>;5EE5 E>;5EE5 E>;5EE5 E>;5EE5 E>;5EE5 E>;5EE5 E>;5EE5 E>;5EE5 E>;5EE5 E>;5EE5 E>;5EE5 E>;5EE5 E>;5EE5 E>;5EE5 E>;5EE5 E>;5EE5 E>;5EE5 E>;5EE5 E>;5EE5 E>;5EE5 E>;5EE5 E>;5EE5 E>;5EE5 E>;5EE5 E>;5EE5 E>;5EE5 E>;5EE5 E>;5EE5 E>;5EE5 E>;5EE5 E>;5EE5 E>;5EE5 E>;5EE5 E>;5EE5 E>;5EE5 E>;5EE5 E>;5EE5 E>;5EE5 E>;5EE5 E>;5EE5 E>;5EE5 E>;5EE5 E>;5EE5 E>;5EE5 E>;5EE5 E>;5EE5 E>;5EE5 E>;5EE5 E>;5EE5 E>;5EE5 E>;5EE5 E>;5EE5 E>;5EE5 E>;5EE5 E>;5EE5 E>;5EE5 E>;5EE5 E>;5EE5 E>;5EE5 E>;5EE5 E>;5EE5 E>;5EE5 E>;5EE5 E>;5EE5 E>;5EE5 E>;5EE5 E>;5EE5 E>;5EE5 E>;5EE5 E>;5EE5 E>;5EE5 E>;5EE5 E>;5EE5 E>;5EE5 E>;5EE5 E>;5EE5 E>;5EE5 E>;5EE5 E>;5EE5 E>;5EE5 E>;5EE5 EG>;5EE5 EG>;5EE5 EG>;5EE5 EG>;5EE5 EG>;5EE5 EG>;5EE5 EG>;5EE5 EG>;5EE5 EG>;5EE5 EG>;5EE5 EG>;5EE5 EG>;5EE5 EG>;5EE5 EG>;5EE5 EG>;5EEG5 EG>;5EEG5 EG>;5EEG5 EG>;5EEG5 EG>;5EEG5 EG>;5EEG5 EG>;5EEG5 EG>;5EEG5 G>;5EGEG5 G>;5EGEG5 G>;5EGEG5 G>;5EGEG5 G>;5EGEG5 G>;5EGEG5 G>;5GEG5 G>;5GG5 G>;5GG5 G>;5GG5 G>;5GG5 G>;5GG5 G>;5GG5 G>;5GG5 G>;5GG5 G>;5GG5 G>;5GG5 G>;5GG5 G>;5GG5 G>;5GG5 G>;5GG5 G>;5GG5 G>;5GG5 G>;5GG5 G>;5GG5 G>;5GG5 G>5GG5 G>5GG5 G>5GG5 G>5GG5 G>5GG5 G>5GG5 G>5GG5 G>5GG5 G>5GG5 G>5GG5 G>5GG5 G>5GG5 G>5GG5 G>5GG5 G>5GG5 G>5GG5 G>5GG5 G>5GG5 G>5GG5 G>5GG5 G>5GG5 G5GG5 G5GG5 G5GG5 G5GG5 G5GG5 G5GG5 GGG5 GGG5 GGG5 GGG5 GGG5 GGG5 GGG5 GGG5 GGG5 GGG5 GGG5 GGG5 GGG5 GGG5 GGG5 GGG5 GGG5 GGG5 GGG5 GGG5 GGG5 GGG5 GGG5 GGG5 GGG5 GGG5 GGG5 GGG5 GGG5 GGG5 GGG5 GGG5 GGG5 GGG5 GGG5 GGG5 GGG5 GGG5 GGG5 GG5 GG GG GG GG GG GG GG G G G GH GH GH H H H H H H H H H H H H H HH HH HH HH HH HHH HHH HHH HHH HHH HHH HHH HHH HHH HHH HHH HHH HHH HHH HHH HHH HHH HHH HHH HHH HHH HHH HHH HHH HHH HHH HHH HHH HHH HHH HHH HHH HHH HHH HHH HHH HHH HHH HHH HHH HHH HHH HHH HHH HHH HHH HHH HHH HHH HHH HHH HHH HHH HHH HHH HHH HHH HHH HHH HHH HHH HHH HHH HHH HHH HHH HHH HHH HHH HHH HHH HHH HHH HHH HHH HHH HHH HHH HHH HHH HHH HHH HHH HHH HHH HHH HHH HHH HHH HHH HHH HHH HHH HHH HHH HHH HHH HHH HHH HHH HHH HH HH HHJ HJJHJ HJJHJ HJJHJ HJJHJ HJJHJJ HJJHJJ HJJ7/HJJ JJ7/HJJ JJ7/HJJ JJ7/HJJ JJ7/HJJ JJ7/HJJ JJ7/HJJ JJ7/HJJ/ JJ7/HJJ/ JJ7/HJJ/ JJ7/JJ/ JJ7/JJ/ JJ7/JJ/ JJ7/JJ/ JJ7/JJ/ JJ7/JJ/ JJ7/JJ/ JJ7/JJ/ JJ7/JJ/ JJ7/JJ/ JJ7/JJ/ JJ7/JJ/ JJ7/JJ/ JJ7/JJ/ JJ7/JJ/ JJ7/JJ/ JJ7/JJ/ JJ7/JJ/ JJ7/JJ/ JJ7/JJ/ JJ7/JJ/ JJ7/JJ/ JJ7/JJ/ JJ7/JJ/ JJ7/JJ/ JJ7/JJ/ JJ7/JJ/ JJ7/JJ/ JJ7/JJ/ JJ7/JJ/ JJ7/JJ/ JJ7/JJ/ JJ7/JJ/ JJ7/JJ/ JJ7/JJ/ JJ7/JJ/ JJ7/JJ/ JJ7/JJ/ JJ7/JJ/ JJ7/JJ/ JJ7/JJ/ JJ7/JJ/ JJ7/JJ/ JJ7/JJ/ JJ7/JJ/ JJ7/JJ/ JJ7/JJ/ JJ7/JJ/ JJ7/JJ/ JJ7/JJ/ JJ7/JJ/ JJ7/JJ/ JJ7/JJ/ JJ7/JJ/ JJ7/JJ/ JJ7/JJ/ JJ7/JJ/ JJ7/JJ/ JJ7/JJ/ JJ7/JJ/ JJ7/JJ/ JJ7/JJ/ JJ7/JJ/ JJ7/JJ/ JJ7/JJ/ JJ7/JJ/ JJ7/JJ/ JJ7/JJ/ JJ7/JJ/ JJ7/JJ/ J7/JJ/ J7/JJ/ J7/JJ/ J7/JJ/ J7/JJ/ J7/JJ/ J7/JJ/ J7/JJ/ J7/JJ/ J7/JJ/ J7/JJ/ J7/JJ/ J7/JJ/ J7/JJ/ J7J/ J7J/ JJ/ JJ/ JJ/ JJ/ JJ JJ JJ JJ JJ J J J J J J JL JL JLL LL LL LLL LLL LLL LLL LLL LLL LLL LLL LLL LLL LLL LLL LLL LLL LLL LLL LLL LLL LLL LLL LLL LLL LLL LLL LLL LLL LLL LLL LLL LLL LLL LLL LLL LLL LLL LLL LLL LLL LLL LLL LLL LLL LLL LLL LLL LLL LLL LLL LLL LLL LLL LLL LLL LLL LLL LLL LLL LLL LLL LLL LLL LLL LLL LLL LLL LLL LLL LLL LLL LLL LLL LLL LLL LL LL LL LL LL LL LL LL LL L L                             M MGM MGM MGM MGM MGM MGMM MGMM MGMM MGMM MGMM MGMM MGMM MGMM MGMM+ MGMM+ MG>MM+ MG>MM+ MG>MM+ MG>MM+ MG>+MM+ MG>+MM+ MG>+MM+ MG>+MM+ MG>+MM+ MG>+MM+ MG>+MM+ MG>+MM+ MG>+MM+ MG>+MM+ MG>+MM+ MG>+MM+ MG>+MM+ MG>+MM+ MG>+MM+ MG>+MM+ MG>+MM+ MG>+MM+ MG>+MM+ MG>+MM+ MG>+MM+ MG>+MM+ MG>+MM+ MG>+MM+ MG>+MM+ MG>+MM+ MG>+MM+ MG>+MM+ MG>+MM+ MG>+MM+ MG>+MM+ MG>+MM+ MG>+MM+ MG>+MM+ MG>+MM+ MG>+MM+ MG>+MM+ MG>+MM+ MG>+MM+ MG>+MM+ MG>+MM+ MG>+MM+ MG>+MM+ MG>+MM+ MG>+MM+ MG>+MM+ MG>+MM+ MG>+MM+ MG>+MM+ MG>+MM+ MG>+MM+ MG>+MM+ MG>+MM+ MG>+MM+ MG>+MM+ MG>+MM+ MG>+MM+ MG>+MM+ MG>+MM+ MG>+MM+ MG>+MM+ MG>+MM+ MG>+MM+ MG>+MM+ MG>+MM+ MG>+M+ MG>+M+ MG>+M+ MG>+M+ MG>+M+ MG>+M+ MG>+M+ MG>+M+ MG>++ MG>++ MG>++ MG>++ MG>++ M>++ M>++ M>++ M>++ M++ M++ M++ M++ M++ M++ M++ MJ++ MJ++ MJ+J+ MJ+J+ MJ+J+ J+J+ J+J+ J+J+ J+JJ+ J+JJ+ J+JJ+ J+JJ J+JJ J+JJ J+JJ JJJ JJJ JJJ JJJ JJJ JJJ JJJ JJJ JJJ JJJ JJJ JJJ JJJ JJJ JJJ JJJ JJJ JJJ JJJ JJJ JJJ JJJ JJJ JJJ JJJ JJJ JJJ JJJ JJJ JJJ JJJ JJJ JJJ JJJ JJJ JJJ JJJ JJJ JJJ JJJ JJJ JJJ JJJ JJJ JJJ JJJ JJJ JJJ JJJ JJJ JJJ JJJ JJJ JJJ JJJ JJJ JJJ JJJ JJJ JJJ JJJ JJJ JJJ JJJ JJJ JJJ JJ JJ JJ J J J J J J J J J J J J J J J J                           OJ OJ OJ OJ OJ OJ OJ OJ; OJ; OJ;O OJ;O OJ;O OJ;OO OJ;OO OJ;OO OJ;OO OJ;OO OJ;OO OJ;OO OJ;OO OJ;OO/ OJ;OO/ OJ;OO/ OJ;OO/ OJ;OO/ OJ;/OO/ OJ;/OO/ OJ;/OO/ OJ;/OO/ OJ;/OO/ OJ;/OO/ OJ;/OO/ OJ;/OO/ OJ;/OO/ OJ;/OO/ OJ;/OO/ OJ;/OO/ OJ;/OO/ OJ;/OO/ OJ;/OO/ OJ;/OO/ OJ;/OO/ OJ;/OO/ OJ;/OO/ OJ;/OO/ OJ;/OO/ OJ;/OO/ OJ;/OO/ OJ;/OO/ OJ;/OO/ OJ;/OO/ OJ;/OO/ OJ;/OO/ OJ;/OO/ OJ;/OO/ OJ;/OO/ OJ;/OO/ OJ;/OO/ OJ;/OO/ OJ;/OO/ OJ;/OO/ OJ;/OO/ OJ;/OO/ OJ;/OO/ OJ;/OO/ OJ;/OO/ OJ;/OO/ OJ;/OO/ OJ;/OO/ OJ;/OO/ OJ;/OO/ OJ;/OO/ OJ;/OO/ OJ;/OO/ OJ;/OO/ OJ;/OO/ OJ;/OO/ OJ;/OO/ OJ;/OO/ OJ;/OO/ OJ;/OO/ OJ;/OO/ OJ;/OO/ OJ;/OO/ OJ;/OO/ OJ;/OO/ OJ;/OO/ OJ;/OO/ OJ;/OO/ OJ;/OO/ OJ;/OO/ OJ/OO/ OJ/OO/ OJ/OO/ OJ/OO/ OJ/OO/ O/OO/ O/OO/ O/OO/ O/OO/ O/O/ O/O/ O/O/ O/O/ O/O/ O/O/ O/O/ O/O/ O/O/ O/O/ O/O/ O/O/ O/O/ O/O/ O/O/ O/O/ O/O/ O/O/ O/O/ O/O/ O/O/ O/O/ O/O/ O/O/ O/O/ O/O/ O/O/ /O/ /O/ /O/ /O/ O/ O/ O/ O/ O                                                                                                        7 7 L70 LH70 LH70 LH70 LH70 LH70 LH70 LH700 LH700 LH700 LH700 LH700 LH70L0 LH70L0 LH70L0 LH70L0 LH70L0 LH70L0 LH70L0 LH70L0 LH70LL0 LH70LL0 LH70LL0 LH70LL0 LH70LL0 LH70LL0 LH70LL0 LH70LL0 LH70LL0 LH70LL0 LH70LL0 LH70LL0 LH70LL0 LH70LL0 LH70LL0 LH70LL0 LH70LL0 LH70LL0 LH70LL0 LH70LL0 LH70LL0 LH70LL0 LH70LL0 LH70LL0 LH70LL0 LH70LL0 LH70LL0 LH70LL0 LH70LL0 LH70LL0 LH70LL0 LH70LL0 LH70LL0 LH70LL0 LH70LL0 LH70LL0 LH70LL0 LH70LL0 LH70LL0 LH70LL0 LH70LL0 LH70LL0 LH70LL0 LH70LL0 LH70LL0 LH70LL0 LH70LL0 LH70LL0 LH70LL0 LH70LL0 LH70LL0 LH70LL0 LH70LL0 LH70LL0 LH70LL0 LH70LL0 LH70LL0 LH70LL0 LH70LL0 LH70LL0 LH70LL0 LH70LL0 LH70LL0 LH70LL0 LH70LL0 LH70LL0 LH70LL0 LH70LL0 LH70LL0 LH70LL0 LH70LL0 LH70LL0 LH70LL0 LH70LL0 LH70LL0 LH70LL0 LH70LL0 LH70LL0 LH70LL0 LH70LL0 LH70LL0 LH70LL0 LH70LL0 LH70LL0 LH70LL0 LH70LL0 LH70LL0 LH70LL0 LH70LL0 LH70LL0 LH70LL0 LH70LL0 LH70LL0 LH70LL0 LH70LL0 LH70LL0 LH70LL0 LH70LL0 LH70LL LH70LL LH70LL LH70LL LH7LL LH7LL LH7LL LH7LL LH7LL LH7LL LH7LL LH7LL LH7LL LH7LL LH7LL LH7LL LH7LL LH7LL LH7LL LH7LL LH7LL LH7LL LH7LL LH7LL LH7LL LH7LL LH7LL LH7LL LH7LL LH7LL LH7LL LH7LL LH7LL LH7LL LH7LL LH7LL LH7LL LH7LL LH7LL LH7LL LH7LL LH7LL LH7LL LH7LL LH7LL LH7LL LH7LL LH7LL LHLL LHLL LHLL LHLL LHLL LHLL LHLL LHLL LHLL LHLL LHLL LHLL LHLL LHLL LHLL LHLL LHLL LHLL LHLL LHLL LHLL LHLL LHLL LHLL LHLL LHLL LHLL LHLL LHLL LHLL LHLL LHLL LHLL LHLL LHLL LHLL LHLL LHLL LHLL LHLL LHLL LHLL LHLL LHLL LHLL LHLL LHLL LHLL LHLL LHLL LHLL LHLL LHLL LHLL LHLL LHLL LHLL LHLL LHLL LHLL LHLL LHLL LHLL LHLL LHLL LHLL LHLL LHLL LHLL LHLL LHLL LHLL LHLL LHLL LHLL LHLL LHLL LHLL LHLL LHLL LHLL LHLL LHLL LHCLL LHCLL LHCLL LHCLL LHCLL+ LHCLL+ LHCLL+ LHCLL+ LHCLL+ LHCLL+ LCLL+ LC+LL+ LC+LL+ LC+LL+ LC+LL+ LC+LL+ LC+LL+ LC+LL+ LC+LL+ LC+LL+ LC+LL+ LC+LL+ C+LL+ C+LL+ C+LL+ C+LL+ C+LL+ C+LL+ C+LL+ C+LL+ C+LL+ C+L+ C+L+ C+L+ C+L+ C+L+ C+L+ C+L+ C+L+ C+L+ C+L+ C+L+ C+L+ C+L+ C+L+ C+L+ C+L+ C++ C++ C++ C++ C++ C++ C++ C++ C++ C++ C++ C++ C++ C++ C++ C++ C++ C++ C++ C++ C++ C++ C++ C++ C++ C++ C++ C++ C++ C++ C++ C++ C++ C++ C++ C++ C++ C++ C++ C++ C++ C++ C++ C++ C++ C++ C++ C++ C++ C++ C++ C++ GC++ GC++ GC++ GC++ GC++ GCA++ GCA++ JGCA++ JGCA++ JGCA++ JGCA++ JGCA+J JGCA+J JGA+J JGA+J JGA+J JGA+J JGA+J JGAJ JGAJ JGAJ JGAJ JGAJ JGAJ JGAJ JGAJ JGAJJ JGAJJ JGAJJ JGAJJ JGAJJ JGAJJ JGAJJ JGAJJ JGAJJ JGAJJ JGAJJ JGAJJ JGAJJ JGAJJ JGAJJ JGAJJ JGAJJ JGAJJ JGAJJ JGAJJ JGAJJ JGAJJ JGAJJ JGAJJ JGAJJ JGAJJ JGAJJ JGAJJ JGAJJ JGAJJ JGAJJ JGAJJ JGAJJ JGAJJ JGAJJ JGAJJ JGAJJ JGAJJ JGAJJ JGAJJ JGAJJ JGAJ JGAJ JGAJ JGAJ JGAJ JGAJ JGAJ JGAJ JGAJ JGAJ JGAJ JGA JGA JGA JGA JGA JGA JGA JGA JGA JGA JGA JGA JGA JGA JGA JGA JGA JGA JGA JGA JGA JGA JGA JA A                               H H H H H H H HH HH HH HH HH HH HHH HHH HHHH HHHH HHHH- HH@HH- HH@HH- HH@-HH- HH@-HH- HH@-HH- HH@-HH- HH@-HH- HH@-HH- HH@-HH- HH@-HH- HH@-HH- HH@-HH- HH@-HH- HH@-HH- HH@-HH- HH@-HH- HH@-HH- HH@-HH- HH@-HH- HH@-HH- HH@-HH- HH@-HH- HH@-HH- HH@-HH- HH@-HH- HH@-HH- HH@-HH- HH@-HH- HH@-HH- HH@-HH- HH@-HH- HH@-HH- HH@-HH- HH@-HH- HH@-HH- HH@-HH- HH@-HH- HH@-HH- HH@-HH- HH@-HH- HH@-HH- HH@-HH- HH@-HH- HH@-HH- HH@-HH- HH@-HH- HH@-HH- HH@-HH- HH@-HH- HH@-HH- HH@-HH- HH@-HH- HH@-HH- HH@-HH- HH@-HH- HH@-HH- HH@-HH- HH@-HH- HH@-HH- HH@-HH- HH@-HH- HH@-HH- HH@-HH- HH@-HH- HH@-HH- HH@-HH- HH@-HH- HH@-HH- HH@-HH- HH@-HH- HH@-HH- HH@-HH- HH@-HH- HH@-HH- HH@-HH- HH@-HH- HH@-HH- HH@-HH- HH@-HH- HH@-HH- HH@-HH- HH@-HH- HH@HH- HH@HH- HH@HH- HH@HH- HH@HH- HH@HH- H@HH- H@HH- H@HH- H@HH- H@HH- H@HH- H@HH- H@HH- H@HH- H@HH- H@HH- HG@HH- HG@HH- G@HH- G@HH- G@HH G@HH G@HH G@H G@HG G@HG G@HG G@GG G@GG G@GG G@GG G@GG G@GG G@GG G@GG G@GG GGG GGG GGG GGG GGG GGG GGG GGG GGG GGG GGG GGG GGG GGG GGG GGG GGG GGG GGG GGG GGG GGG GGG GGG GGG GGG GGG GGG GGG GGG GGG GGG GGG GGG GGG GGG GGG GGG GGG GGG GGG GGG GGG GGG GGG GGG GGG GGG GGG GGG GGG GGG GGG GGG GGG GGG GGG GGG GGG GGG GGG GGG GGG GGG GG GG GG GG GG GG G G G G G G G G G G                     H H H H HH HH HH HH HH HEH HEH HEH HEHH HEHH HEHH HEHH HEHH HEHH HEHH HEHH HE)HH) HE)HH) HE)HH) HE)HH) HE)HH) HE)HH) HE)HH) HE)HH) HE)HH) HE)HH) HE)HH) HE)HH) HE)HH) HE)HH) HE)HH) HE)HH) HE)HH) HE)HH) HE)HH) HE>)HH) HE>)HH) HE>)HH) HE>)HH) HE>)HH) HE>)HH) HE>)HH) HE>)HH) HE>)HH) HE>)HH) HE>)HH) HE>)HH) HE>)HH) HE>)HH) HE>)HH) HE>)HH) HE>)HH) HE>)HH) HE>)HH) HE>)HH) HE>)HH) HE>)HH) HE>)HH) HE>)HH) HE>)HH) HE>)HH) HE>)HH) HE>)HH) HE>)HH) HE>)HH) HE>)HH) HE>)HH) HE>)HH) HE>)HH) HE>)HH) HE>)HH) HE>)HH) HE>)HH) HE>)HH) HE>)HH) HE>)HH) HE>)HH) HE>)HH) HE>)HH) HE>)HH) HE>)HH) HE>)HH) HE>)HH) HE>)HH) HE>)HH) HE>)HH) HE>)HH) HE>)HH) HE>)HH) HE>)HH) HE>)HH) HE>)HH) HE>)HH) HE>)HH) HE>)HH) HE>)HH) HE>)HH) HE>)HH) HE>)HH) HE>)HH) HE>)H) HE>)H) HE>)H) HE>)H) H>)H H>)H HE>H HE>H HE>EH HE>EH HE>EH HE>EH HE>EH HE>EH HE>EH E>EH E>EH E>EH E>EH E>EH E>EH E>EH E>EH E>EH E>EH E>EH E>EH E>E E>E E>E E>E E>EE E>EE E>EE E>EE EEE EEE EEE EEE EEE EEE EEE EEE EEE EEE EEE EEE EEE EEE EEE EEE EEE EEE EEE EEE EEE EEE EEE EEE EEE EEE EEE EEE EEE EEE EEE EEE EEE EEE EEE EEE EEE EEE EEE EEE EEE EEE EEE EEE EEE EE EE EE EE EE EE EE EE EE EE EE EE EE EE EE EE EE EE EE E E E E E E E E E E E E E E E E E             E E E E E EH EH EH EH EH EH EH EH HEH HEH HEH HEH HEH HEH HEH HEH HEH HEH HEH HEH HEH HEH HEH HEH HE@H+ HE@H+ HE@H+ HE@H+ HE@+H+ HE@+H+ HE@+H+ HE@+H+ HE@+H+ HE@+HH+ HE@+HH+ HE@+HH+ HE@+HH+ HE@+HH+ HE@+HH+ HE@+HH+ HE@+HH+ HE@+HH+ HE@+HH+ HE@+HH+ HE@+HH+ HE@+HH+ HE@+HH+ HE@+HH+ HE@+HH+ HE@+HH+ HE@+HH+ HE@+HH+ HE@+HH+ HE@+HH+ HE@+HH+ HE@+HH+ HE@+HH+ HE@+HH+ HE@+HH+ HE@+HH+ HE@+HH+ HE@+HH+ HE@+HH+ HE@+HH+ HE@+HH+ HE@+HH+ HE@+HH+ HE@+HH+ HE@+HH+ HE@+HH+ HE@+HH+ HE@+HH+ HE@+HH+ HE@+HH+ HE@+HH+ HE@+HH+ HE@+HH+ HE@+HH+ HE@+HH+ HE@+HH+ HE@+HH+ HE@+HH+ HE@+HH+ HE@+HH+ HE@+HH+ HE@+HH+ HE@+HH+ HE@+HH+ HEC@>+HH+ HEC@>+HH+ HEC>+HH+ HEC>+HH+ HEC>+HH+ HEC>+HH+ HEC>+HH+ HC>+HH+ HC>+HH+ HC>+HH+ HC>+HH+ HC>+HH+ HC>+HH+ HC>+HH+ HC>+HH+ HGC>+HH+ HGC>+HH+ HGC>+HH+ GC>+HH+ GC>+HHG+ GC>+HHG+ GC>+HHG+ GC>+HHG+ GC>+HHG+ GC>+HHG+ GC>+HG+ GC>+HG+ GC>+HG+ GC>+HG+ GC>+HG+ GC>+HG+ GC>+HG+ GC>+HG+ GC>+HG+ GC>+HG+ GC>+HG+ GC>+HG+ GC>+HG+ GC>+HG+ GC>+HG+ GC>+HG+ GC>+GG+ GC>+GG+ GC>+GG+ GC>+GG+ GC>+GG+ GC>+GG+ GCE>+GG+ GCE>+GG+ GCE>+GG+ GCE>+GG+ GCE>@+GG+ GCE>@+GG+ GE>@+GG+ GE>@+GG+ GE>@+GG+ GE>@+GG+ GE>@+GG+ GE@+GG+ GE@+GG+ GHE@+GG+ GHE@+GG+ HE@+GG+ HE@+GG+ HE@+GG+ HE@+GGH+ HE@+GGH+ HE@+GGH+ HE@+GGH+ HE@+GGH+ HE@+GGH+ HE@+GGH+ HE@+GH+ HE@+GH+ HE@+GH+ HE@+GH+ HE@+GH+ HE@+GH+ HE@+GH+ HE@+GH+ HE@+GH+ HE@+GH+ HE@+GH+ HE@+GH+ HE@+H+ HE@+H+ HE@+HH+ HE@+HH+ HE@+HH+ HE@+HH+ HE@+HH+ HEC@+HH+ HEC@+HH+ HEC@+HH+ HEC@+HH+ HEC@+HH+ HEC@+HH+ HEC@>+HH+ HEC@>+HH+ HEC@>+HH+ HC>+HH+ HC>+HH+ HC>+HH+ HC>+HH+ HC>+HH+ HC>+HH+ HC>+HH+ HC>+HH+ HC>+HH+ HC>+HH+ HC>+HH+ HC>+HH+ HC>+HH+ HGC>+H+ HGC>+HG+ HGC>+HG+ HGC>+HG+ HGC>+HG+ HGC>+HG+ HGC>+HG+ HGC>+HG+ HGC>+HG+ HGC>+HG+ HGC>+HG+ GC>+HG+ GC>+HG+ GC>+G+ GC>+G+ GC>+G+ GCE>+GG+ GCE>+GG+ GCE>+GG+ GCE>+GG+ GCE>+GG+ GCE>+GG+ GE>@+GG+ GE>@+GG+ GE>@+GG+ GE>@+GG+ GE>@+GG+ GE>@+GG+ GE>@+GG+ GE>@+GG+ GE>@+GG+ GE>@+GG+ GE>@+GG+ GE@+GG+ GE@+GG+ GE@+GG+ GE@+GGH+ GE@+GGH+ GE@+GGH+ GE@+GGH+ GE@+GGH+ GE@+GGH+ HGE@+GGH+ HGE@+GH+ HGE@+GH+ HGE@+GH+ HGE@+GH+ HGE@+GH+ HGE@+GH+ HGE@+GH+ HGE@+GH+ HGE@+GH+ HGE@+GH+ HGE@+GH+ HGE@+GH+ HGE@+GH+ HGE@+GH+ HGE@+GH+ HGEC@+GHH+ HGEC@+GHH+ HGEC@+HH+ HGEC@+HH+ HGEC@+HH+ HGEC@+HH+ HGEC@>+HH+ HGEC@>+HH+ HGEC@>+HH+ HGEC@>+HH+ HGEC@>+HH+ HGEC@>+HH+ HGEC@>+HH+ HGEC@>+HHG+ HGEC@>+HHG+ HGEC@>+HHG+ HGEC@>+HHG+ GEC@>+HHG+ GEC@>+HHG+ GC@>+HHG+ GC@>+HHG+ GC@>+HHG+ GC>+HHG+ GC>+HHG+ GC>+HHG+ GC>+HHG+ GC>+HHG+ GC>+HHG+ GC>+HHG+ GC>+HHG+ GC>+HHG+ GC>+HHG+ GC>+HHG+ GC>+HHG+ GC>+HHG+ GC>+HHG+ GC>+HHG+ GC>+HHG+ GC>+HHG+ GC>+HHG+ GC>+HGG+ GC>+HGG+ GC>+HGG+ GC>+HGG+ GC>+HGG+ GC>+HGG+ GC>+HGG+ GC>+HGG+ GC>+HGG+ GC>+HGG+ GC>+HGG+ GC>+HGG+ GC>+HGG+ GC>+HGG+ GC>+HGG+ GC>+HGG+ GC>+HGG+ GC>+HGG+ GC>+HGG+ GC>+GG+ GC>+GG+ GC>+GG+ GC>+GG+ GC>+GG+ GC>+GG+ GC>+GG+ GC>+GG+ GC>+GG+ GC>+GG+ GC>+GG+ GC>+GG+ GC>+GG+ GC>+GG+ GC>+GG+ GC>+GG+ GC>+GG+ GC>+GG+ GC>+GG+ GC>+GG+ GC>+GG+ GC>+GG+ GC>+GG+ GC>+GG GC>+GG GC>+GG GC>+GG GC>+GG GC>+GG GC>+GG GC>+GG GC>+GG GC>+GG GC>+GG GC>+GG GC>+GG GC>+GG GC>+GG GC>+GG GC>+GG GC>+GG GC>+GG GC>+GG GC>+GG GC>+GG GC>+GG GC>+GG GC>+GG GC>+GG GC>+GG GC>+GG GC>+GG GC>+GG GC>GG GC>GG GC>GG GC>GG GC>GG GHC>GG GHC>GG GHC>GG GHC>GG GHC>GG GHC>GGH GHC>GGH GHC>GGH GHC>GGH GHC>GGH GHC>GH GHC>GH GHC>GH GHC>GH GHC>GH H>GH H>GH H>GH H>GHH H>GHH H>GHH H>GHH H>GHH H>GHH H>GHH H>GHH H>HH H>HH H>HH H>HH H>HH H>HH H>HH H>HH H>HH H>HH H>HH H>HH H>HH H>HH H>HH H>HH H>HH H>HH H>HH H>HH HHH HHH HHH HHH HHH HHH HHH HHH HHH HHH HHH HHH HHH HHH HHH HHH HHH HHH HHH HHH HHH HHH HH H H H H H H H H H H H                                                H H H HH HH HH HH HH HHH HCHH HCHH HCHH HCHH HCHH HCHH$ HCHH$ HCHH$ HCHH$ HCHH$ HCHH$ HCHH$ HCHH$ HCHH$ HC@$HH$ HC@$HH$ HC@$HH$ HC@$HH$ HC@$HH$ HC@$HH$ HC@$HH$ HC@$HH$ HC@$HH$ HC@$HH$ HC@$HH$ HC@$HH$ HC@$HH$ HC@$HH$ HC@$HH$ HC@$HH$ HC@$HH$ HC@$HH$ HC@$HH$ HC@$HH$ HC@$HH$ HC@$HH$ HC@$HH$ HC@$HH$ HC@$HH$ HC@$HH$ HC@$HH$ HC@$HH$ HC@$HH$ HC@$HH$ HC@$HH$ HC@$HH$ HC@$HH$ HC@$HH$ HC@$HH$ HC@$HH$ HC@$HH$ HC@$HH$ HC@$HH$ HC@$HH$ HC@$HH$ HC@$HH$ HC@$HH$ HC@$HH$ HC@$HH$ HC@$HH$ HC@$HH$ HC@$HH$ HC@$HH$ HC@$HH$ HC@$HH$ HC@$HH$ HC@$HH$ HC@$HH$ HC@$HH$ HC@$HH$ HC@$HH$ HC@$HH$ HC@$HH$ HC@$HH$ HC@$HH$ HC@$HH$ HC@$HH$ HC@$HH$ HC@$HH$ HC@$HH$ HC@$HH$ HC@$HH$ HC@$HH$ HC@$HH$ HC@$HH$ HC@$HH$ HC@$HH$ HC@$HH$ HC@$HH$ HC@$HH$ HC@$HH$ HC@$HH$ HC@$HH$ HC@$HH$ HC@$HH$ HC@$HH$ HC@$HH$ HC@$HH$ HC@$HH$ HC@$HH$ HC@$HH$ HC@$HH$ HC@$HH$ HC@$HH$ HC@$HH$ HC@$HH$ HC@$HH$ HC@$HH$ HC@$HH$ HC@$HH$ HC@$HH$ HC@$HH$ HC@$HH$ HC@$HH$ HC@$HH$ HC@$HH$ HC@$HH$ HC@$HH$ HC@$HH$ HC@$HH$ HC@$HH$ HC@$HH$ HC@$HH$ HC@$HH$ HC@$HH$ HC@$HH$ HC@$HH$ HC@$HH$ HC@$HH$ HC@$HH$ HC@$HH$ HC@$HH$ HC@$HH$ HC@$HH$ HC@$HH$ HC@$HH$ HC@$HH$ HC@$HH$ HC@$HH$ HC@$HH$ HC@$HH$ HC@$HH$ HC@$HH$ HC@$HH$ HC@$HH$ HC@$HH$ HC@$HH$ HC@$HH$ HC@$HH$ HC@$HH$ HC@$HH$ HC@$HH$ HC@$HH$ HC@$HH$ HC@$HH$ HC@$HH$ HC@$HH$ HC@$HH$ HC@$HH$ HC@$HH$ HC@$HH$ HC@$HH$ HC@$HH$ HC@$HH$ HC@$HH$ HC@$HH$ HC@$HH$ HC@$HH$ HC@$HH$ HC@$HH$ HC@$HH$ HC@$HH$ HC@$HH$ HC@$HH$ HC@$HH$ HC@$HH$ HC@$HH$ HC@$HH$ HC@$HH$ HC@$HH$ HC@$HH$ HC@$HH$ HC@$HH$ HC@$HH$ HC@$HH$ HC@$HH$ HC@$HH$ HC@$HH$ HC@$HH$ HC@$HH$ HC@$HH$ HC@$HH$ HC@$HH$ HC@$HH$ HC@$HH$ HC@$HH$ HC@$HH$ HC@$HH$ HC@$HH$ HC@$HH$ HC@$HH$ HC@$HH$ HC@$HH$ HC@$HH$ HC@$HH$ HC@$HH$ HC@$HH$ HC@$HH$ HC@$HH$ HC@$HH$ HC@$HH$ HC@$HH$ HC@$HH$ HC@$HH$ HC@$HH$ HC@$HH$ HC@$HH$ HC@$HH$ HC@$HH$ HC@$HH$ HC@$HH$ HC@$HH$ HC@$HH$ HC@$HH$ HC@$HH$ HC@$HH$ HC@$HH$ HC@$HH$ HC@$HH$ HC@$HH$ HC@$HH$ HC@$HH$ HC@$HH$ HC@$HH$ HC@$HH$ HC@$HH$ HC@$HH$ HC@$HH$ HC@$HH$ HC@$HH$ HC@$HH$ HC@$HH$ HC@$HH$ HC@$HH$ HC@$HH$ HC@$HH$ HC@$HH$ HC@$HH$ HC@$HH$ HC@$HH$ HC@$HH$ HC@$HH$ HC@$HH$ HC@$HH$ HC@$HH$ HC@$HH$ HC@$HH$ HC@$HH$ HC@$HH$ HC@$HH$ HC@$HH$ HC@$HH$ HC@$HH$ HC@$HH$ HC@$HH$ HC@$HH$ HC@$HH$ HC@$HH$ HC@$HH$ HC@$HH$ HC@$HH$ HC@$HH$ HC@$HH$ HC@$HH$ HC@$HH$ HC@$HH$ HC@$HH$ HC@$HH$ HC@$HH$ HC@$HH$ HC@$HH$ HC@$HH$ HC@$HH$ HC@$HH$ HC@$HH$ HC@$HH$ HC@$HH$ HC@$HH$ HC@$HH$ HC@$HH$ HC@$HH$ HC@$HH$ HC@$HH$ HC@$HH$ HC@$HH$ HC@$HH$ HC@$HH$ HC@$HH$ HC@$HH$ HC@$HH$ HC@$HH$ HC@$HH$ HC@$HH$ HC@$HH$ HC@$HH$ HC@$HH$ HC@$HH$ HC@$HH$ HC@$HH$ HC@$HH$ HC@$HH$ HC@$HH$ HC@$HH$ HC@$HH$ HC@$HH$ HC@$HH$ HC@$HH$ HC@$HH$ HC@$HH$ HC@$HH$ HC@$HH$ HC@$HH$ HC@$HH$ HC@$HH$ HC@$HH$ HC@$HH$ HC@$HH$ HC@$HH$ HC@$HH$ HC@$HH$ HC@$HH$ HC@$HH$ HC@$HH$ HC@$HH$ HC@$HH$ HC@$HH$ HC@$HH$ HC@$HH$ HC@$HH$ HC@$HH$ HC@$HH$ HC@$HH$ HC@$HH$ HC@$HH$ HC@$HH$ HC@$HH$ HC@$HH$ HC@$HH$ HC@$HH$ HC@$HH$ HC@$HH$ HC@$HH$ HC@$HH$ HC@$HH$ HC@$HH$ HC@$HH$ HC@$HH$ HC@$HH$ HC@$HH$ HC@$HH$ HC@$HH$ HC@$HH$ HC@$HH$ HC@$HH$ HC@$HH$ HC@$HH$ HC@$HH$ HC@$HH$ HC@$HH$ HC@$HH$ HC@$HH$ HC@$HH$ HC@$HH$ HC@$HH$ HC@$HH$ HC@$HH$ HC@$HH$ HC@$HH$ HC@$HH$ HC@$HH$ HC@$HH$ HC@$HH$ HC@$HH$ HC@$HH$ HC@$HH$ HC@$HH$ HC@$HH$ HC@$HH$ HC@$HH$ HC@$HH$ HC@$HH$ HC@$HH$ HC@$HH$ HC@$HH$ HC@$HH$ HC@$HH$ HC@$HH$ HC@$HH$ HC@$HH$ HC@$HH$ HC@$HH$ HC@$HH$ HC@$HH$ HC@$HH$ HC@$HH$ HC@$HH$ HC@$HH$ HC@$HH$ HC@$HH$ HC@$HH$ HC@$HH$ HC@$HH$ HC@$HH$ HC@$HH$ HC@$HH$ HC@$HH$ HC@$HH$ HC@$HH$ HC@$HH$ HC@$HH$ HC@$HH$ HC@$HH$ HC@$HH$ HC@$HH$ HC@$HH$ HC@$HH$ HC@$HH$ HC@$HH$ HC@$HH$ HC@$HH$ HC@$HH$ HC@$HH$ HC@$HH$ HC@$HH$ HC@$HH$ HC@$HH$ HC@$HH$ HC@$HH$ HC@$HH$ HC@$HH$ HC@$HH$ HC@$HH$ HC@$HH$ HC@$HH$ HC@$HH$ HC@$HH$ HC@$HH$ HC@$HH$ HC@$HH$ HC@$HH$ HC@$HH$ HC@$HH$ HC@$HH$ HC@$HH$ HC@$HH$ HC@$HH$ HC@$HH$ HC@$HH$ HC@$HH$ HC@$HH$ HC@$HH$ HC@$HH$ HC@$HH$ HC@$HH$ HC@$HH$ HC@$HH$ HC@$HH$ HC@$HH$ HC@$HH$ HC@$HH$ HC@$HH$ HC@$HH$ HC@$HH$ HC@$HH$ HC@$HH$ HC@$HH$ HC@$HH$ HC@$HH$ HC@$HH$ HC@$HH$ HC@$HH$ HC@$HH$ HC@$HH$ HC@$HH$ HC@$HH$ HC@$HH$ HC@$HH$ HC@$HH$ HC@$HH$ HC@$HH$ HC@$HH$ HC@$HH$ HC@$HH$ HC@$HH$ HC@$HH$ HC@$HH$ HC@$HH$ HC@$HH$ HC@$HH$ HC@$HH$ HC@$HH$ HC@$HH$ HC@$HH$ HC@$HH$ HC@$HH$ HC@$HH$ HC@$HH$ HC@$HH$ HC@$HH$ HC@$HH$ HC@$HH$ HC@$HH$ HC@$HH$ HC@$HH$ HC@$HH$ HC@$HH$ HC@$HH$ HC@$HH$ HC@$HH$ HC@$HH$ HC@$HH$ HC@$HH$ HC@$HH$ HC@$HH$ HC@$HH$ HC@$HH$ HC@$HH$ HC@$HH$ HC@$HH$ HC@$HH$ HC@$HH$ HC@$HH$ HC@$HH$ HC@$HH$ HC@$HH$ HC@$HH$ HC@$HH$ HC@$HH$ HC@$HH$ HC@$HH$ HC@$HH$ HC@$HH$ HC@$HH$ HC@$HH$ HC@$HH$ HC@$HH$ HC@$HH$ HC@$HH$ HC@$HH$ HC@$HH$ HC@$HH$ HC@$HH$ HC@$HH$ HC@$HH$ HC@$HH$ HC@$HH$ HC@$HH$ HC@$HH$ HC@$HH$ HC@$HH$ HC@$HH$ HC@$HH$ HC@$HH$ HC@$HH$ HC@$HH$ HC@$HH$ HC@$HH$ HC@$HH$ HC@$HH$ HC@$HH$ HC@$HH$ HC@$HH$ HC@$HH$ HC@$HH$ HC@$HH$ HC@$HH$ HC@$HH$ HC@$HH$ HC@$HH$ HC@$HH$ HC@$HH$ HC@$HH$ HC@$HH$ HC@$HH$ HC@$HH$ HC@$HH$ HC@$HH$ HC@$HH$ HC@$HH$ HC@$HH$ HC@$HH$ HC@$HH$ HC@$HH$ HC@$HH$ HC@$HH$ HC@$HH$ HC@$HH$ HC@$HH$ HC@$HH$ HC@$HH$ HC@$HH$ HC@$HH$ HC@$HH$ HC@$HH$ HC@$HH$ HC@$HH$ HC@$HH$ HC@$HH$ HC@$HH$ HC@$HH$ HC@$HH$ HC@$HH$ HC@$HH$ HC@$HH$ HC@$HH$ HC@$HH$ HC@$HH$ HC@$HH$ HC@$HH$ HC@$HH$ HC@$HH$ HC@$HH$ HC@$HH$ HC@$HH$ HC@$HH$ HC@$HH$ HC@$HH$ HC@$HH$ HC@$HH$ HC@$HH$ HC@$HH$ HC@$HH$ HC@$HH$ HC@$HH$ HC@$HH$ HC@$HH$ HC@$HH$ HC@$HH$ HC@$HH$ HC@$HH$ HC@$HH$ HC@$HH$ HC@$HH$ HC@$HH$ HC@$HH$ HC@$HH$ HC@$HH$ HC@$HH$ HC@$HH$ HC@$HH$ HC@$HH$ HC@$HH$ HC@$HH$ HC@$HH$ HC@$HH$ HC@$HH$ HC@$HH$ HC@$HH$ HC@$HH$ HC@$HH$ HC@$HH$ HC@$HH$ HC@$HH$ HC@$HH$ HC@$HH$ HC@$HH$ HC@$HH$ HC@$HH$ HC@$HH$ HC@$HH$ HC@$HH$ HC@$HH$ HC@$HH$ HC@$HH$ HC@$HH$ HC@$HH$ HC@$HH$ HC@$HH$ HC@$HH$ HC@$HH$ HC@$HH$ HC@$HH$ HC@$HH$ HC@$HH$ HC@$HH$ HC@$HH$ HC@$HH$ HC@$HH$ HC@$HH$ HC@$HH$ HC@$HH$ HC@$HH$ HC@$HH$ HC@$HH$ HC@$HH$ HC@$HH$ HC@$HH$ HC@$HH$ HC@$HH$ HC@$HH$ HC@$HH$ HC@$HH$ HC@$HH$ HC@$HH$ HC@$HH$ HC@$HH$ HC@$HH$ HC@$HH$ HC@$HH$ HC@$HH$ HC@$HH$ HC@$HH$ HC@$HH$ HC@$HH$ HC@$HH$ HC@$HH$ HC@$HH$ HC@$HH$ HC@$HH$ HC@$HH$ HC@$HH$ HC@$HH$ HC@$HH$ HC@$HH$ HC@$HH$ HC@$HH$ HC@$HH$ HC@$HH$ HC@$HH$ HC@$HH$ HC@$HH$ HC@$HH$ HC@$HH$ HC@$HH$ HC@$HH$ HC@$HH$ HC@$HH$ HC@$HH$ HC@$HH$ HC@$HH$ HC@$HH$ HC@$HH$ HC@$HH$ HC@$HH$ HC@$HH$ HC@$HH$ HC@$HH$ HC@$HH$ HC@$HH$ HC@$HH$ HC@$HH$ HC@$HH$ HC@$HH$ HC@$HH$ HC@$HH$ HC@$HH$ HC@$HH$ HC@$HH$ HC@$HH$ HC@$HH$ HC@$HH$ HC@$HH$ HC@$HH$ HC@$HH$ HC@$HH$ HC@$HH$ HC@$HH$ HC@$HH$ HC@$HH$ HC@$HH$ HC@$HH$ HC@$HH$ HC@$HH$ HC@$HH$ HC@$HH$ HC@$HH$ HC@$HH$ HC@$HH$ HC@$HH$ HC@$HH$ HC@$HH$ HC@$HH$ HC@$HH$ HC@$HH$ HC@$HH$ HC@$HH$ HC@$HH$ HC@$HH$ HC@$HH$ HC@$HH$ HC@$HH$ HC@$HH$ HC@$HH$ HC@$HH$ HC@$HH$ HC@$HH$ HC@$HH$ HC@$HH$ HC@$HH$ HC@$HH$ HC@$HH$ HC@$HH$ HC@$HH$ HC@$HH$ HC@$HH$ HC@$HH$ HC@$HH$ HC@$HH$ HC@$HH$ HC@$HH$ HC@$HH$ HC@$HH$ HC@$HH$ HC@$HH$ HC@$HH$ HC@$HH$ HC@$HH$ HC@$HH$ HC@$HH$ HC@$HH$ HC@$HH$ HC@$HH$ HC@$HH$ HC@$HH$ HC@$HH$ HC@$HH$ HC@$HH$ HC@$HH$ HC@$HH$ HC@$HH$ HC@$HH$ HC@$HH$ HC@$HH$ HC@$HH$ HC@$HH$ HC@$HH$ HC@$HH$ HC@$HH$ HC@$HH$ HC@$HH$ HC@$HH$ HC@$HH$ HC@$HH$ HC@$HH$ HC@$HH$ HC@$HH$ HC@$HH$ HC@$HH$ HC@$HH$ HC@$HH$ HC@$HH$ HC@$HH$ HC@$HH$ HC@$HH$ HC@$HH$ HC@$HH$ HC@$HH$ HC@$HH$ HC@$HH$ HC@$HH$ HC@$HH$ HC@$HH$ HC@$HH$ HC@$HH$ HC@$HH$ HC@$HH$ HC@$HH$ HC@$HH$ HC@$HH$ HC@$HH$ HC@$HH$ HC@$HH$ HC@$HH$ HC@$HH$ HC@$HH$ HC@$HH$ HC@$HH$ HC@$HH$ HC@$HH$ HC@$HH$ HC@$HH$ HC@$HH$ HC@$HH$ HC@$HH$ HC@$HH$ HC@$HH$ HC@$HH$ HC@$HH$ HC@$HH$ HC@$HH$ HC@$HH$ HC@$HH$ HC@$HH$ HC@$HH$ HC@$HH$ HC@$HH$ HC@$HH$ HC@$HH$ HC@$HH$ HC@$HH$ HC@$HH$ HC@$HH$ HC@$HH$ HC@$HH$ HC@$HH$ HC@$HH$ HC@$HH$ HC@$HH$ HC@$HH$ HC@$HH$ HC@$HH$ HC@$HH$ HC@$HH$ HC@$HH$ HC@$HH$ HC@$HH$ HC@$HH$ HC@$HH$ HC@$HH$ HC@$HH$ HC@$HH$ HC@$HH$ HC@$HH$ HC@$HH$ HC@$HH$ HC@$HH$ HC@$HH$ HC@$HH$ HC@$HH$ HC@$HH$ HC@$HH$ HC@$HH$ HC@$HH$ HC@$HH$ HC@$HH$ HC@$HH$ HC@$HH$ HC@$HH$ HC@$HH$ HC@$HH$ HC$HH$ HC$HH$ HC$HH$ HC$HH$ HC$HH$ HC$HH$ HC$HH$ HC$HH$ HC$HH$ HC$HH$ HC$HH$ HC$HH$ HC$HH$ HC$HH$ HC$HH$ HC$HH$ HC$HH$ HC$HH$ HC$HH$ HC$HH$ HC$HH$ HC$HH$ HC$HH$ HC$HH$ C$HH$ C$HH$ C$HH$ C$H$ C$H$ C$H$ C$H$ C$H$ C$H$ C$H$ C$H$ C$H$ C$H$ C$H$ C$H$ CH$ CH$ CH$ CH$ CH$ CH$ CH$ CH$ C$ C$ C$  