5 5 5 5 5 5 5 5 5 5 5 5 5 5 5 5 5 5 5 5 5 5 5 5 5 5 5 5 5 5 5 5 5 5 5 5 5 5 5 5 5 5 5 5 5 5 5 5 5 5 5 5 5 5 5 5 5 5 5 5 5 5 5 5 5 5 5 5 5 5 5 5 5 5 5 5 5 5 5 5 5 5 5 5 5 5 5 5 5 5 5 5 5 5 5 5 H5 H5 H5 H5 H5 H5 H5 H5 H5 H5 H5 H5 H5 H5 H5 H5 H5 H5 H5 H5 H5 H5 H5 H5 H5 H5 H5 H5 H5 H5 H5 H5 H5 H5 H5 H5 H5 H5 H5 H5 H5 H5 H5 H5 H5 H5 H5 H5 H5 H5 H5 H5 H5 H5 H5 H5 H5 H5 H5 H5 H5 H5 H5 H5 H5 H5 H5 H5 H5 H5 H5 H5 H5 H5 H5 H5 H5 H5 H5 H5 H5 H H H H H H H H        M8 M8 M8 M8 M8 M8 M8 M8 M8 M8 M8 M8 M8 M8 M8 M8 M8 M8 M8 M8 M8 M8 M8 M8 M8 M8 M8 M8 M8 M8 M8 M8 M8 M8 M8 M8 M8 M8 M8 M8 M8 M8 M8 M8 M8 M8 M8 M8 M8 M8 M8 M8 M8 M8 M8 M8 M8 M8 M8 M8 M8 M8 M8 M8 M8 M8 M8 M8 M8 M8 M8 M8 M8 M8 M8 M8 M8 M8 M8 M8 M8 M8 M8 M8 M8 M8 M8 M8 M8 8 8 8 8 8 8 8 H8 H8 H8 H8 H8 H8 H8 H8 H8 H8 H8 H8 H8 H8 H8 H8 H8 H8 H8 H8 H8 H8 H8 H8 H8 H8 H8 H8 H8 H8 H8 H8 H8 H8 H8 H8 H8 H8 H8 H8 H8 H8 H8 H8 H8 H8 H8 H8 H8 H8 H8 H8 H8 H8 H8 H8 H8 H8 H8 H8 H8 H8 H8 H8 H8 H8 H8 H8 H8 H8 H8 H8 H8 H8 H8 H8 H8 H8 H8 H8 H8 H H H H H H H H        F< F< F< F< F< F< F< F< F< F< F< F< F< F< F< F< F< F< F< F< F< F< F< F< F< F< F< F< F< F< F< F< F< F< F< F< F< F< F< F< F< F< F< F< F< F< F< F< F< F< F< F< F< F< F< F< F< F< F< F< F< F< F< F< F< F< F< F< F< F< F< F< F< F< F< F< F< F< F< F< F< F< F< F< F< F< F< F< F< < < < < < < < D< D< D< D< D< D< D< D< D< D< D< D< D< D< D< D< D< D< D< D< D< D< D< D< D< D< D< D< D< D< D< D< D< D< D< D< D< D< D< D< D< D< D< D< D< < < < C< C< C< C< C< C< C< C< C< C< C< C< C< C< C< C< C< C< C< C< C< C< C< C< C< C< C< C< C< C< C< C< C< C C C C C C C C C C C C    D5 D5 D5 D5 D5 D5 D5 D5 D5 D5 D5 D5 D5 D5 D5 D5 D5 D5 D5 D5 D5 D5 D5 D5 D5 D5 D5 D5 D5 D5 D5 D5 D5 D5 D5 D5 D5 D5 D5 D5 D5 D5 D5 D5 D5 D5 D5 D5 D5 D5 D5 D5 D5 D5 D5 D5 D5 D5 D5 D5 D5 D5 D5 D5 D5 D5 D5 D5 D5 D5 D5 D5 D5 D5 D5 D5 D5 D5 D5 D5 D5 D5 D5 D5 D5 D5 D5 D5 D5 D5 D5 D5 D5 D5 D5 D5 D<5 D<5 D<5 D<5 D<5 D<5 D<5 D<5 D<5 D<5 D<5 D<5 D<5 D<5 D<5 D<5 D<5 D<5 D<5 D<5 D<5 D<5 D<5 D<5 D<5 D<5 D<5 D<5 D<5 D<5 D<5 D<5 D<5 D<5 D<5 D<5 D<5 D<5 D<5 D<5 D<5 D<5 D<5 D<5 D<5 D<5 D<5 D<5 D<5 D<5 D<5 D<5 D<5 D<5 D<5 D<5 D<5 D<5 D<5 D<5 D<5 D<5 D<5 D<5 D<5 D<5 D<5 D<5 D<5 D<5 D<5 D<5 D<5 D<5 D<5 D<5 D<5 D<5 D<5 D<5 D<5 < < < < < < < <        A, A, A, A, A, A, A, A, A, A, A, A, A, A, A, A, A, A, A, A, A, A, A, A, A, A, A, A, A, A, A, A, A, A, A, A, A, A, A, A, A, A, A, A, A, A, A, A, A, A, A, A, A, A, A, A, A, A, A, A, A, A, A, A, A, A, A, A, A, A, A, A, A, A, A, A, A, A, A, A, A, A, A, A, A, A, A, A, A, , , , , , , , <D, <D, <D, <D, <D, <D, <D, <D, <D, <D, <D, <D, <D, <D, <D, <D, <D, <D, <D, <D, <D, <D, <D, <D, <D, <D, <D, <D, <D, <D, <D, <D, <D, <D, <D, <D, <D, <D, <D, <D, <D, <D, <D, <D, <D, <D, <D, <D, <D, <D, <D, <D, <D, <D, <D, <D, <D, <D, <D, <D, <D, <D, <D, <D, <D, <D, <D, <D, <D, <D, <D, <D, <D, <D, <D, <D, <D, <D, <D, <D, <D, <D <D <D <D <D <D <D <D        :C0 :C0 :C0 :C0 :C0 :C0 :C0 :C0 :C0 :C0 :C0 :C0 :C0 :C0 :C0 :C0 :C0 :C0 :C0 :C0 :C0 :C0 :C0 :C0 :C0 :C0 :C0 :C0 :C0 :C0 :C0 :C0 :C0 :C0 :C0 :C0 :C0 :C0 :C0 :C0 :C0 :C0 :C0 :C0 :C0 :C0 :C0 :C0 :C0 :C0 :C0 :C0 :C0 :C0 :C0 :C0 :C0 :C0 :C0 :C0 :C0 :C0 :C0 :C0 :C0 :C0 :C0 :C0 :C0 :C0 :C0 :C0 :C0 :C0 :C0 :C0 :C0 :C0 :C0 :C0 :C0 :C0 :C0 :C0 :C0 :C0 :C0 :C0 :C0 0 0 0 0 0 0 0 8A0 8A0 8A0 8A0 8A0 8A0 8A0 8A0 8A0 8A0 8A0 8A0 8A0 8A0 8A0 8A0 8A0 8A0 8A0 8A0 8A0 8A0 8A0 8A0 8A0 8A0 8A0 8A0 8A0 8A0 8A0 8A0 8A0 8A0 8A0 8A0 8A0 8A0 8A0 8A0 8A0 8A0 8A0 8A0 8A0 0 0 0 7@0 7@0 7@0 7@0 7@0 7@0 7@0 7@0 7@0 7@0 7@0 7@0 7@0 7@0 7@0 7@0 7@0 7@0 7@0 7@0 7@0 7@0 7@0 7@0 7@0 7@0 7@0 7@0 7@0 7@0 7@0 7@0 7@0 7@ 7@ 7@ 7@ 7@ 7@ 7@ 7@ 7@ 7@ 7@ 7@    8A8 8A8 8A8 8A8 8A8 8A8 8A8 8A8 8A8 8A8 8A8 8A8 8A8 8A8 8A8 8A8 8A8 8A8 8A8 8A8 8A8 8A8 8A8 8A8 8A8 8A8 8A8 8A8 8A8 8A8 8A8 8A8 8A8 8A8 8A8 8A8 8A8 8A8 8A8 8A8 8A8 8A8 8A8 8A8 8A8 8A8 8A8 8A8 8A8 8A8 8A8 8A8 8A8 8A8 8A8 8A8 8A8 8A8 8A8 8A8 8A8 8A8 8A8 8A8 8A8 8A8 8A8 8A8 8A8 8A8 8A8 8A8 8A8 8A8 8A8 8A8 8A8 8A8 8A8 8A8 8A8 8A8 8A8 8A8 8A8 8A8 8A8 8A8 8A8 8A8 8A8 8A8 8A8 8A8 8A8 8A8 8A8 8A8 8A8 8A8 8A8 8A8 8A8 8A8 8A8 8A8 8A8 8A8 8A8 8A8 8A8 8A8 8A8 8A8 8A8 8A8 8A8 8A8 8A8 8A8 8A8 8A8 8A8 8A8 8A8 8A8 8A8 8A8 8A8 8A8 8A8 8A8 8A8 8A8 8A8 8A8 8A8 8A8 8A8 8A8 8A8 8A8 8A8 8A8 8A8 8A8 8A8 8A8 8A8 8A8 8A8 8A8 8A8 8A8 8A8 8A8 8A8 8A8 8A8 8A8 8A8 8A8 8A8 8A8 8A8 8A8 8A8 8A8 8A8 8A8 8A8 8A8 8A8 8A8 8A8 8A8 8A8                H8 H8 H8 H8 H8 H8 H8 H8 H8 H8 H8 H8 H8 H8 H8 H8 H8 H8 H8 H8 H8 H8 H8 H8 H8 H8 H8 H8 H8 H8 H8 H8 H8 H8 H8 H8 H8 H8 H8 H8 H8 H8 H8 H8 H8 H8 H8 H8 H8 H8 H8 H8 H8 H8 H8 H8 H8 H8 H8 H8 H8 H8 H8 H8 H8 H8 H8 H8 H8 H8 H8 H8 H8 H8 H8 H8 H8 H8 H8 H8 H8 H8 H8 H8 H8 H8 H8 H8 H8 H H H H H H H DH5 DH5 DH5 DH5 DH5 DH5 DH5 DH5 DH5 DH5 DH5 DH5 DH5 DH5 DH5 DH5 DH5 DH5 DH5 DH5 DH5 DH5 DH5 DH5 DH5 DH5 DH5 DH5 DH5 DH5 DH5 DH5 DH5 DH5 DH5 DH5 DH5 DH5 DH5 DH5 DH5 DH5 DH5 DH5 DH5 H5 H5 H5 HC5 HC5 HC5 HC5 HC5 HC5 HC5 HC5 HC5 HC5 HC5 HC5 HC5 HC5 HC5 HC5 HC5 HC5 HC5 HC5 HC5 HC5 HC5 HC5 HC5 HC5 HC5 HC5 HC5 HC5 HC5 HC5 HC5 C5 C5 C5 C5 C5 C5 C5 C5 C C C C    DM1 DM1 DM1 DM1 DM1 DM1 DM1 DM1 DM1 DM1 DM1 DM1 DM1 DM1 DM1 DM1 DM1 DM1 DM1 DM1 DM1 DM1 DM1 DM1 DM1 DM1 DM1 DM1 DM1 DM1 DM1 DM1 DM1 DM1 DM1 DM1 DM1 DM1 DM1 DM1 DM1 DM1 DM1 DM1 DM1 DM1 DM1 DM1 DM1 DM1 DM1 DM1 DM1 DM1 DM1 DM1 DM1 DM1 DM1 DM1 DM1 DM1 DM1 DM1 DM1 DM1 DM1 DM1 DM1 DM1 DM1 DM1 DM1 DM1 DM1 DM1 DM1 DM1 DM1 DM1 DM1 DM1 DM1 DM1 DM1 DM1 DM1 DM1 DM1 M M M M M M M MI0 MI0 MI0 MI0 MI0 MI0 MI0 MI0 MI0 MI0 MI0 MI0 MI0 MI0 MI0 MI0 MI0 MI0 MI0 MI0 MI0 MI0 MI0 MI0 MI0 MI0 MI0 MI0 MI0 MI0 MI0 MI0 MI0 MI0 MI0 MI0 MI0 MI0 MI0 MI0 MI0 MI0 MI0 MI0 MI0 MI MI MI MI. MI. MI. MI. MI. MI. MI. MI. MI. MI. MI. MI. MI. MI. MI. MI. MI. MI. MI. MI. MI. MI. MI. MI. MI. MI. MI. MI. MI. MI. MI. MI. MI. I. I. I. I. I. I. I. I. . . . .    CM' CM' CM' CM' CM' CM' CM' CM' CM' CM' CM' CM' CM' CM' CM' CM' CM' CM' CM' CM' CM' CM' CM' CM' CM' CM' CM' CM' CM' CM' CM' CM' CM' CM' CM' CM' CM' CM' CM' CM' CM' CM' CM' CM' CM' CM' CM' CM' CM' CM' CM' CM' CM' CM' CM' CM' CM' CM' CM' CM' CM' CM' CM' CM' CM' CM' CM' CM' CM' CM' CM' CM' CM' CM' CM' CM' CM' CM' CM' CM' CM' CM' CM' CM' CM' CM' CM' CM' CM' CM CM CM CM CM CM CM CM3 CM3 CM3 CM3 CM3 CM3 CM3 CM3 CM3 CM3 CM3 CM3 CM3 CM3 CM3 CM3 CM3 CM3 CM3 CM3 CM3 CM3 CM3 CM3 CM3 CM3 CM3 CM3 CM3 CM3 CM3 CM3 CM3 CM3 CM3 CM3 CM3 CM3 CM3 CM3 CM3 CM3 CM3 CM3 CM3 CM3 CM3 CM3 CM3 CM3 CM3 CM3 CM3 CM3 CM3 CM3 CM3 CM3 CM3 CM3 CM3 CM3 CM3 CM3 CM3 CM3 CM3 CM3 CM3 CM3 CM3 CM3 CM3 CM3 CM3 CM3 CM3 CM3 CM3 CM3 CM3 3 3 3 3 3 3 3 3        F7 F7 F7 F7 F7 F7 F7 F7 F7 F7 F7 F7 F7 F7 F7 F7 F7 F7 F7 F7 F7 F7 F7 F7 F7 F7 F7 F7 F7 F7 F7 F7 F7 F7 F7 F7 F7 F7 F7 F7 F7 F7 F7 F7 F7 F7 F7 F7 F7 F7 F7 F7 F7 F7 F7 F7 F7 F7 F7 F7 F7 F7 F7 F7 F7 F7 F7 F7 F7 F7 F7 F7 F7 F7 F7 F7 F7 F7 F7 F7 F7 F7 F7 F7 F7 F7 F7 F7 F7 F F F F F F F CF3 CF3 CF3 CF3 CF3 CF3 CF3 CF3 CF3 CF3 CF3 CF3 CF3 CF3 CF3 CF3 CF3 CF3 CF3 CF3 CF3 CF3 CF3 CF3 CF3 CF3 CF3 CF3 CF3 CF3 CF3 CF3 CF3 CF3 CF3 CF3 CF3 CF3 CF3 CF3 CF3 CF3 CF3 CF3 CF3 F3 F3 F3 FA3 FA3 FA3 FA3 FA3 FA3 FA3 FA3 FA3 FA3 FA3 FA3 FA3 FA3 FA3 FA3 FA3 FA3 FA3 FA3 FA3 FA3 FA3 FA3 FA3 FA3 FA3 FA3 FA3 FA3 FA3 FA3 FA3 A3 A3 A3 A3 A3 A3 A3 A3 A A A A    CK0 CK0 CK0 CK0 CK0 CK0 CK0 CK0 CK0 CK0 CK0 CK0 CK0 CK0 CK0 CK0 CK0 CK0 CK0 CK0 CK0 CK0 CK0 CK0 CK0 CK0 CK0 CK0 CK0 CK0 CK0 CK0 CK0 CK0 CK0 CK0 CK0 CK0 CK0 CK0 CK0 CK0 CK0 CK0 CK0 CK0 CK0 CK0 CK0 CK0 CK0 CK0 CK0 CK0 CK0 CK0 CK0 CK0 CK0 CK0 CK0 CK0 CK0 CK0 CK0 CK0 CK0 CK0 CK0 CK0 CK0 CK0 CK0 CK0 CK0 CK0 CK0 CK0 CK0 CK0 CK0 CK0 CK0 CK0 CK0 CK0 CK0 CK0 CK0 K K K K K K K HK. HK. HK. HK. HK. HK. HK. HK. HK. HK. HK. HK. HK. HK. HK. HK. HK. HK. HK. HK. HK. HK. HK. HK. HK. HK. HK. HK. HK. HK. HK. HK. HK. HK. HK. HK. HK. HK. HK. HK. HK. HK. HK. HK. HK. HK HK HK HK, HK, HK, HK, HK, HK, HK, HK, HK, HK, HK, HK, HK, HK, HK, HK, HK, HK, HK, HK, HK, HK, HK, HK, HK, HK, HK, HK, HK, HK, HK, HK, HK, HK, HK, HK, HK, HK, HK, HK, HK, K, K, K, K, K K K AK% AK% AK% AK% AK% AK% AK% AK% AK% AK% AK% AK% AK% AK% AK% AK% AK% AK% AK% AK% AK% AK% AK% AK% AK% AK% AK% AK% AK% AK% AK% AK% AK% AK% AK% AK% AK% AK% AK% AK% AK% AK% AK% AK% AK% AK% AK% AK% AK% AK% AK% AK% AK% AK% AK% AK% AK% AK% AK% AK% AK% AK% AK% AK% AK% AK% AK% AK% AK% AK% AK% AK% AK% AK% AK% AK% AK% AK% AK% AK% AK% AK% AK% AK% AK% AK% AK% AK% AK% AK AK AK AK AK AK AK AK1 AK1 AK1 AK1 AK1 AK1 AK1 AK1 AK1 AK1 AK1 AK1 AK1 AK1 AK1 AK1 AK1 AK1 AK1 AK1 AK1 AK1 AK1 AK1 AK1 AK1 AK1 AK1 AK1 AK1 AK1 AK1 AK1 AK1 AK1 AK1 AK1 AK1 AK1 AK1 AK1 AK1 AK1 AK1 AK1 AK1 AK1 AK1 AK1 AK1 AK1 AK1 AK1 AK1 AK1 AK1 AK1 AK1 AK1 AK1 AK1 AK1 AK1 AK1 AK1 AK1 AK1 AK1 AK1 AK1 AK1 AK1 AK1 AK1 AK1 AK1 AK1 AK1 AK1 AK1 AK1 1 1 1 1 1 1 1 1        D5 D5 D5 D5 D5 D5 D5 D5 D5 D5 D5 D5 D5 D5 D5 D5 D5 D5 D5 D5 D5 D5 D5 D5 D5 D5 D5 D5 D5 D5 D5 D5 D5 D5 D5 D5 D5 D5 D5 D5 D5 D5 D5 D5 D5 D5 D5 D5 D5 D5 D5 D5 D5 D5 D5 D5 D5 D5 D5 D5 D5 D5 D5 D5 D5 D5 D5 D5 D5 D5 D5 D5 D5 D5 D5 D5 D5 D5 D5 D5 D5 D5 D5 D5 D5 D5 D5 D5 D5 D D D D D D D AD1 AD1 AD1 AD1 AD1 AD1 AD1 AD1 AD1 AD1 AD1 AD1 AD1 AD1 AD1 AD1 AD1 AD1 AD1 AD1 AD1 AD1 AD1 AD1 AD1 AD1 AD1 AD1 AD1 AD1 AD1 AD1 AD1 AD1 AD1 AD1 AD1 AD1 AD1 AD1 AD1 AD1 AD1 AD1 AD1 D1 D1 D1 D@1 D@1 D@1 D@1 D@1 D@1 D@1 D@1 D@1 D@1 D@1 D@1 D@1 D@1 D@1 D@1 D@1 D@1 D@1 D@1 D@1 D@1 D@1 D@1 D@1 D@1 D@1 D@1 D@1 D@1 D@1 D@1 D@1 @1 @1 @1 @1 @1 @1 @1 @1 @ @ @ @    AI. AI. AI. AI. AI. AI. AI. AI. AI. AI. AI. AI. AI. AI. AI. AI. AI. AI. AI. AI. AI. AI. AI. AI. AI. AI. AI. AI. AI. AI. AI. AI. AI. AI. AI. AI. AI. AI. AI. AI. AI. AI. AI. AI. AI. AI. AI. AI. AI. AI. AI. AI. AI. AI. AI. AI. AI. AI. AI. AI. AI. AI. AI. AI. AI. AI. AI. AI. AI. AI. AI. AI. AI. AI. AI. AI. AI. AI. AI. AI. AI. AI. AI. AI. AI. AI. AI. AI. AI. I I I I I I I FI, FI, FI, FI, FI, FI, FI, FI, FI, FI, FI, FI, FI, FI, FI, FI, FI, FI, FI, FI, FI, FI, FI, FI, FI, FI, FI, FI, FI, FI, FI, FI, FI, FI, FI, FI, FI, FI, FI, FI, FI, FI, FI, FI, FI, FI FI FI FI+ FI+ FI+ FI+ FI+ FI+ FI+ FI+ FI+ FI+ FI+ FI+ FI+ FI+ FI+ FI+ FI+ FI+ FI+ FI+ FI+ FI+ FI+ FI+ FI+ FI+ FI+ FI+ FI+ FI+ FI+ FI+ FI+ FI+ FI+ FI+ FI+ FI+ FI+ FI+ FI+ I+ I+ I+ I+ I I I I@, I@, I@, I@, I@, I@, I@, I@, I@, I@, I@, I@, I@, I@, I@, I@, I@, I@, I@, I@, I@, I@, I@, I@, I@, I@, I@, I@, I@, I@, I@, I@, I@, I@, I@, I@, I@, I@, I@, I@, I@, I@, I@, I@, I@, I@, I@, I@, I@, I@, I@, I@, I@, I@, I@, I@, I@, I@, I@, I@, I@, I@, I@, I@, I@, I@, I@, I@, I@, I@, I@, I@, I@, I@, I@, I@, I@, I@, I@, I@, I@, I@, I@, I@, I@, I@, I@, I@, I@, @ @ @ @ @ @ @ @H+ @H+ @H+ @H+ @H+ @H+ @H+ @H+ @H+ @H+ @H+ @H+ @H+ @H+ @H+ @H+ @H+ @H+ @H+ @H+ @H+ @H+ @H+ @H+ @H+ @H+ @H+ @H+ @H+ @H+ @H+ @H+ @H+ @H+ @H+ @H+ @H+ @H+ @H+ @H+ @H+ @H+ @H+ @H+ @H+ @H+ @H+ @H+ @H+ @H+ @H+ @H+ @H+ @H+ @H+ @H+ @H+ @H+ @H+ @H+ @H+ @H+ @H+ @H+ @H+ @H+ @H+ @H+ @H+ @H+ @H+ @H+ @H+ @H+ @H+ @H+ @H+ @H+ @H+ @H+ @H+ H+ H+ H+ H+ H+ H+ H+ H+        <M, <M, <M, <M, <M, <M, <M, <M, <M, <M, <M, <M, <M, <M, <M, <M, <M, <M, <M, <M, <M, <M, <M, <M, <M, <M, <M, <M, <M, <M, <M, <M, <M, <M, <M, <M, <M, <M, <M, <M, <M, <M, <M, <M, <M, <M, <M, <M, <M, <M, <M, <M, <M, <M, <M, <M, <M, <M, <M, <M, <M, <M, <M, <M, <M, <M, <M, <M, <M, <M, <M, <M, <M, <M, <M, <M, <M, <M, <M, <M, <M, <M, <M, <M, <M, <M, <M, <M, <M, < < < < < < < <DH) <DH) <DH) <DH) <DH) <DH) <DH) <DH) <DH) <DH) <DH) <DH) <DH) <DH) <DH) <DH) <DH) <DH) <DH) <DH) <DH) <DH) <DH) <DH) <DH) <DH) <DH) <DH) <DH) <DH) <DH) <DH) <DH) <DH) <DH) <DH) <DH) <DH) <DH) <DH) <DH) <DH) <DH) <DH) <DH) <DH) <DH) <DH) <DH) <DH) <DH) <DH) <DH) <DH) <DH) <DH) <DH) <DH) <DH) <DH) <DH) <DH) <DH) <DH) <DH) <DH) <DH) <DH) <DH) <DH) <DH) <DH) <DH) <DH) <DH) <DH) <DH) <DH) <DH) <DH) <DH) <DH) <DH) <DH) <DH) <DH) <DH) <DH) <DH) < < < < < < < <CF0 <CF0 <CF0 <CF0 <CF0 <CF0 <CF0 <CF0 <CF0 <CF0 <CF0 <CF0 <CF0 <CF0 <CF0 <CF0 <CF0 <CF0 <CF0 <CF0 <CF0 <CF0 <CF0 <CF0 <CF0 <CF0 <CF0 <CF0 <CF0 <CF0 <CF0 <CF0 <CF0 <CF0 <CF0 <CF0 <CF0 <CF0 <CF0 <CF0 <CF0 <CF0 <CF0 <CF0 <CF0 <CF0 <CF0 <CF0 <CF0 <CF0 <CF0 <CF0 <CF0 <CF0 <CF0 <CF0 <CF0 <CF0 <CF0 <CF0 <CF0 <CF0 <CF0 <CF0 <CF0 <CF0 <CF0 <CF0 <CF0 <CF0 <CF0 <CF0 <CF0 <CF0 <CF0 <CF0 <CF0 <CF0 <CF0 <CF0 <CF0 <CF0 <CF0 <CF0 <CF0 <CF0 <CF0 <CF0 <CF0 < < < < < < < <AD$ <AD$ <AD$ <AD$ <AD$ <AD$ <AD$ <AD$ <AD$ <AD$ <AD$ <AD$ <AD$ <AD$ <AD$ <AD$ <AD$ <AD$ <AD$ <AD$ <AD$ <AD$ <AD$ <AD$ <AD$ <AD$ <AD$ <AD$ <AD$ <AD$ <AD$ <AD$ <AD$ <AD$ <AD$ <AD$ <AD$ <AD$ <AD$ <AD$ <AD$ <AD$ <AD$ <AD$ <AD$ <$ <$ <$ <@C$ <@C$ <@C$ <@C$ <@C$ <@C$ <@C$ <@C$ <@C$ <@C$ <@C$ <@C$ <@C$ <@C$ <@C$ <@C$ <@C$ <@C$ <@C$ <@C$ <@C$ <@C$ <@C$ <@C$ <@C$ <@C$ <@C$ <@C$ <@C$ <@C$ <@C$ <@C$ <@C$ <@C$ <@C$ <@C$ <@C$ <@C$ <@C$ <@C$ <@C$ <@C <@C <@C <@C < < < <AD) <AD) <AD) <AD) <AD) <AD) <AD) <AD) <AD) <AD) <AD) <AD) <AD) <AD) <AD) <AD) <AD) <AD) <AD) <AD) <AD) <AD) <AD) <AD) <AD) <AD) <AD) <AD) <AD) <AD) <AD) <AD) <AD) <AD) <AD) <AD) <AD) <AD) <AD) <AD) <AD) <AD) <AD) <AD) <AD) <AD) <AD) <AD) <AD) <AD) <AD) <AD) <AD) <AD) <AD) <AD) <AD) <AD) <AD) <AD) <AD) <AD) <AD) <AD) <AD) <AD) <AD) <AD) <AD) <AD) <AD) <AD) <AD) <AD) <AD) <AD) <AD) <AD) <AD) <AD) <AD) <AD) <AD) <AD) <AD) <AD) <AD) <AD) <AD) <D) <D) <D) <D) <D) <D) <D) <D<) <D<) <D<) <D<) <D<) <D<) <D<) <D<) <D<) <D<) <D<) <D<) <D<) <D<) <D<) <D<) <D<) <D<) <D<) <D<) <D<) <D<) <D<) <D<) <D<) <D<) <D<) <D<) <D<) <D<) <D<) <D<) <D<) <D<) <D<) <D<) <D<) <D<) <D<) <D<) <D<) <D<) <D<) <D<) <D<) <D<) <D<) <D<) <D<) <D<) <D<) <D<) <D<) <D<) <D<) <D<) <D<) <D<) <D<) <D<) <D<) <D<) <D<) <D<) <D<) <D<) <D<) <D<) <D<) <D<) <D<) <D<) <D<) <D<) <D<) <D<) <D<) <D<) <D<) <D<) <D<) << << << << << << << << < < < < < < < <AA, <AA, <AA, <AA, <AA, <AA, <AA, <AA, <AA, <AA, <AA, <AA, <AA, <AA, <AA, <AA, <AA, <AA, <AA, <AA, <AA, <AA, <AA, <AA, <AA, <AA, <AA, <AA, <AA, <AA, <AA, <AA, <AA, <AA, <AA, <AA, <AA, <AA, <AA, <AA, <AA, <AA, <AA, <AA, <AA, <AA, <AA, <AA, <AA, <AA, <AA, <AA, <AA, <AA, <AA, <AA, <AA, <AA, <AA, <AA, <AA, <AA, <AA, <AA, <AA, <AA, <AA, <AA, <AA, <AA, <AA, <AA, <AA, <AA, <AA, <AA, <AA, <AA, <AA, <AA, <AA, <AA, <AA, <AA, <AA, <AA, <AA, <AA, <AA, <, <, <, <, <, <, <, <<D, <<D, <<D, <<D, <<D, <<D, <<D, <<D, <<D, <<D, <<D, <<D, <<D, <<D, <<D, <<D, <<D, <<D, <<D, <<D, <<D, <<D, <<D, <<D, <<D, <<D, <<D, <<D, <<D, <<D, <<D, <<D, <<D, <<D, <<D, <<D, <<D, <<D, <<D, <<D, <<D, <<D, <<D, <<D, <<D, <<D, <<D, <<D, <<D, <<D, <<D, <<D, <<D, <<D, <<D, <<D, <<D, <<D, <<D, <<D, <<D, <<D, <<D, <<D, <<D, <<D, <<D, <<D, <<D, <<D, <<D, <<D, <<D, <<D, <<D, <<D, <<D, <<D, <<D, <<D, <<D, <<D <<D <<D <<D <<D <<D <<D <<D < < < < < < < <:C0 <:C0 <:C0 <:C0 <:C0 <:C0 <:C0 <:C0 <:C0 <:C0 <:C0 <:C0 <:C0 <:C0 <:C0 <:C0 <:C0 <:C0 <:C0 <:C0 <:C0 <:C0 <:C0 <:C0 <:C0 <:C0 <:C0 <:C0 <:C0 <:C0 <:C0 <:C0 <:C0 <:C0 <:C0 <:C0 <:C0 <:C0 <:C0 <:C0 <:C0 <:C0 <:C0 <:C0 <:C0 <:C0 <:C0 <:C0 <:C0 <:C0 <:C0 <:C0 <:C0 <:C0 <:C0 <:C0 <:C0 <:C0 <:C0 <:C0 <:C0 <:C0 <:C0 <:C0 <:C0 <:C0 <:C0 <:C0 <:C0 <:C0 <:C0 <:C0 <:C0 <:C0 <:C0 <:C0 <:C0 <:C0 <:C0 <:C0 <:C0 <:C0 <:C0 <:C0 <:C0 <:C0 <:C0 <:C0 <:C0 <0 <0 <0 <0 <0 <0 <0 <8A0 <8A0 <8A0 <8A0 <8A0 <8A0 <8A0 <8A0 <8A0 <8A0 <8A0 <8A0 <8A0 <8A0 <8A0 <8A0 <8A0 <8A0 <8A0 <8A0 <8A0 <8A0 <8A0 <8A0 <8A0 <8A0 <8A0 <8A0 <8A0 <8A0 <8A0 <8A0 <8A0 <8A0 <8A0 <8A0 <8A0 <8A0 <8A0 <8A0 <8A0 <8A0 <8A0 <8A0 <8A0 <0 <0 <0 <7@0 <7@0 <7@0 <7@0 <7@0 <7@0 <7@0 <7@0 <7@0 <7@0 <7@0 <7@0 <7@0 <7@0 <7@0 <7@0 <7@0 <7@0 <7@0 <7@0 <7@0 <7@0 <7@0 <7@0 <7@0 <7@0 <7@0 <7@0 <7@0 <7@0 <7@0 <7@0 <7@0 <7@ <7@ <7@ <7@ <7@ <7@ <7@ <7@ <7@ <7@ <7@ <7@ < < < <A85 <A85 <A85 <A85 <A85 <A85 <A85 <A85 <A85 <A85 <A85 <A85 <A85 <A85 <A85 <A85 <A85 <A85 <A85 <A85 <A85 <A85 <A85 <A85 <A85 <A85 <A85 <A85 <A85 <A85 <A85 <A85 <A85 <A85 <A85 <A85 <A85 <A85 <A85 <A85 <A85 <A85 <A85 <A85 <A85 <A85 <A85 <A85 <A85 <A85 <A85 <A85 <A85 <A85 <A85 <A85 <A85 <A85 <A85 <A85 <A85 <A85 <A85 <A85 <A85 <A85 <A85 <A85 <A85 <A85 <A85 <A85 <A85 <A85 <A85 <A85 <A85 <A85 <A85 <A85 <A85 <A85 <A85 <A85 <A85 <A85 <A85 <A85 <A85 <A85 <A85 <A85 <A85 <A85 <A85 <A85 <A85 <A85 <A85 <A85 <A85 <A85 <A85 <A85 <A85 <A85 <A85 <A85 <A85 <A85 <A85 <A85 <A85 <A85 <A85 <A85 <A85 <A85 <A85 <A85 <A85 <A85 <A85 <A85 <A85 <A85 <A85 <A85 <A85 <A85 <A85 <A85 <A85 A85 A85 A85 A85 A85 A85 A85 A85 A85 A85 A85 DA85 DA85 DA85 DA85 DA85 DA85 DA85 DA85 DA85 DA85 DA85 DA85 DA85 DA85 DA85 DA85 DA85 DA85 DA85 DA85 DA85 DA85 DA85 DA85 DA85 DA85 DA85 DA85 DA85 DA85 DA85 DA85 DA85 D D D D D D D D D D D D    C. C. C. C. C. C. C. C. C. C. C. C. C. C. C. C. C. C. C. C. C. C. C. C. C. C. C. C. C. C. C. C. C. C. C. C. C. C. C. C. C. C. C. C. C. C. C. C. C. C. C. C. C. C. C. C. C. C. C. C. C. C. C. C. C. C. C. C. C. C. C. C. C. C. C. C. C. C. C. C. C. C. C. C. C. C. C. C. C. C. C. C. C. C. C. C. C. C. C. C. C. C. C. C. C. C. C. C. C. C. C. C. C. C. C. C. C. C. C. C. C. C. C. C. C. C. C. C. C. C. C. C. C. C. C. C. C. C. C. C. C. C. C. C. C. C. C. C. C. C. C. C. C. C. C. C. C. C. C. C. C. C. C. C. C. C. C. C. C. C. C. C. C. C. C. C. C.                A1 A1 A1 A1 A1 A1 A1 A1 C1 C1 C1 C1 C1 C1 C1 C1 A1 A1 A1 A1 A1 A1 A1 A1 A1 A1 A1 A1 A1 A1 A1 A1 C1 C1 C1 C1 C1 C1 C1 C1 A1 A1 A1 A1 A1 A1 A1 A1 @1 @1 @1 @1 @1 @1 @1 @1 @1 @1 @1 @1 @1 @1 @1 @1 @1 @1 @1 @1 @1 @1 @1 @1 @1 @1 @1 @1 @1 @1 @1 @1 @1 @1 @1 @1 @1 @1 @1 @1 @1 @1 @1 @1 @1 1 1 1 A1 A1 A1 A1 A1 A1 A1 A1 A1 A1 A1 A1 A1 A1 A1 A1 A1 A1 A1 A1 A1 A1 A1 A1 A1 A1 A1 A1 A1 A1 A1 A1 A1 A1 A1 A1 A1 A1 A1 A1 A1 A1 A1 A1 A1 A1 A1 A1 A1 A1 A1 A1 A1 A1 A1 A1 A1 A1 A1 A1 A1 A1 A1 A1 A1 A1 A1 A1 A1 A1 A1 A1 A1 A1 A1 A1 A1 A1 A1 A1 A1 A A A A A A A A        @0 @0 @0 @0 @0 @0 @0 @0 @0 @0 @0 @0 @0 @0 @0 @0 @0 @0 @0 @0 @0 @0 @0 @0 @0 @0 @0 @0 @0 @0 @0 @0 @0 @0 @0 @0 @0 @0 @0 @0 @0 @0 @0 @0 @0 @0 @0 @0 @0 @0 @0 @0 @0 @0 @0 @0 @0 @0 @0 @0 @0 @0 @0 @0 @0 @0 @0 @0 @0 @0 @0 @0 @0 @0 @0 @0 @0 @0 @0 @0 @0 @0 @0 @0 @0 @0 @0 @0 @0 @0 @0 @0 @0 @0 @0 @0 @H0 @H0 @H0 @H0 @H0 @H0 @H0 @H0 @H0 @H0 @H0 @H0 @H0 @H0 @H0 @H0 @H0 @H0 @H0 @H0 @H0 @H0 @H0 @H0 @H0 @H0 @H0 @H0 @H0 @H0 @H0 @H0 @H0 @H0 @H0 @H0 @H0 @H0 @H0 @H0 @H0 @H0 @H0 @H0 @H0 @H0 @H0 @H0 @H0 @H0 @H0 @H0 @H0 @H0 @H0 @H0 @H0 @H0 @H0 @H0 @H0 @H0 @H0 @H0 @H0 @H0 @H0 @H0 @H0 @H0 @H0 @H0 @H0 @H0 @H0 @H0 @H0 @H0 @H0 @H0 @H0 @H @H @H @H @H @H @H @H @ @ @ @ @ @ @ @O4 @O4 @O4 @O4 @O4 @O4 @O4 @O4 @O4 @O4 @O4 @O4 @O4 @O4 @O4 @O4 @O4 @O4 @O4 @O4 @O4 @O4 @O4 @O4 @O4 @O4 @O4 @O4 @O4 @O4 @O4 @O4 @O4 @O4 @O4 @O4 @O4 @O4 @O4 @O4 @O4 @O4 @O4 @O4 @O4 @O4 @O4 @O4 @O4 @O4 @O4 @O4 @O4 @O4 @O4 @O4 @O4 @O4 @O4 @O4 @O4 @O4 @O4 @O4 @O4 @O4 @O4 @O4 @O4 @O4 @O4 @O4 @O4 @O4 @O4 @O4 @O4 @O4 @O4 @O4 @O4 @O4 @O4 @O4 @O4 @O4 @O4 @O4 @O4 @4 @4 @4 @4 @4 @4 @4 @H4 @H4 @H4 @H4 @H4 @H4 @H4 @H4 @H4 @H4 @H4 @H4 @H4 @H4 @H4 @H4 @H4 @H4 @H4 @H4 @H4 @H4 @H4 @H4 @H4 @H4 @H4 @H4 @H4 @H4 @H4 @H4 @H4 @H4 @H4 @H4 @H4 @H4 @H4 @H4 @H4 @H4 @H4 @H4 @H4 @H4 @H4 @H4 @H4 @H4 @H4 @H4 @H4 @H4 @H4 @H4 @H4 @H4 @H4 @H4 @H4 @H4 @H4 @H4 @H4 @H4 H4 H4 H4 H4 H4 H4 H4 H4 H4 H4 H4 H4 H4 H4 H4 H H H H H H H H        F0 F0 F0 F0 F0 F0 F0 F0 F0 F0 F0 F0 F0 F0 F0 F0 F0 F0 F0 F0 F0 F0 F0 F0 F0 F0 F0 F0 F0 F0 F0 F0 F0 F0 F0 F0 F0 F0 F0 F0 F0 F0 F0 F0 F0 F0 F0 F0 F0 F0 F0 F0 F0 F0 F0 F0 F0 F0 F0 F0 F0 F0 F0 F0 F0 F0 F0 F0 F0 F0 F0 F0 F0 F0 F0 F0 F0 F0 F0 F0 F0 F0 F0 F0 F0 F0 F0 F0 F0 0 0 0 0 0 0 0 D0 D0 D0 D0 D0 D0 D0 D0 D0 D0 D0 D0 D0 D0 D0 D0 D0 D0 D0 D0 D0 D0 D0 D0 D0 D0 D0 D0 D0 D0 D0 D0 D0 D0 D0 D0 D0 D0 D0 D0 D0 D0 D0 D0 D0 0 0 0 C0 C0 C0 C0 C0 C0 C0 C0 C0 C0 C0 C0 C0 C0 C0 C0 C0 C0 C0 C0 C0 C0 C0 C0 C0 C0 C0 C0 C0 C0 C0 C0 C0 C C C C C C C C C C C C    D5 D5 D5 D5 D5 D5 D5 D5 D5 D5 D5 D5 D5 D5 D5 D5 D5 D5 D5 D5 D5 D5 D5 D5 D5 D5 D5 D5 D5 D5 D5 D5 D5 D5 D5 D5 D5 D5 D5 D5 D5 D5 D5 D5 D5 D5 D5 D5 D5 D5 D5 D5 D5 D5 D5 D5 D5 D5 D5 D5 D5 D5 D5 D5 D5 D5 D5 D5 D5 D5 D5 D5 D5 D5 D5 D5 D5 D5 D5 D5 D5 D5 D5 D5 D5 D5 D5 D5 D5 D5 D5 D5 D5 D5 D5 D5 DM5 DM5 DM5 DM5 DM5 DM5 DM5 DM5 DM5 DM5 DM5 DM5 DM5 DM5 DM5 DM5 DM5 DM5 DM5 DM5 DM5 DM5 DM5 DM5 DM5 DM5 DM5 DM5 DM5 DM5 DM5 DM5 DM5 DM5 DM5 DM5 DM5 DM5 DM5 DM5 DM5 DM5 DM5 DM5 DM5 DM5 DM5 DM5 DM5 DM5 DM5 DM5 DM5 DM5 DM5 DM5 DM5 DM5 DM5 DM5 DM5 DM5 DM5 DM5 DM5 DM5 DM5 DM5 DM5 DM5 DM5 DM5 DM5 DM5 DM5 DM5 DM5 DM5 DM5 DM5 DM5 M M M M M M M M        T8 T8 T8 T8 T8 T8 T8 T8 T8 T8 T8 T8 T8 T8 T8 T8 T8 T8 T8 T8 T8 T8 T8 T8 T8 T8 T8 T8 T8 T8 T8 T8 T8 T8 T8 T8 T8 T8 T8 T8 T8 T8 T8 T8 T8 T8 T8 T8 T8 T8 T8 T8 T8 T8 T8 T8 T8 T8 T8 T8 T8 T8 T8 T8 T8 T8 T8 T8 T8 T8 T8 T8 T8 T8 T8 T8 T8 T8 T8 T8 T8 T8 T8 T8 T8 T8 T8 T8 T8 8 8 8 8 8 8 8 M8 M8 M8 M8 M8 M8 M8 M8 M8 M8 M8 M8 M8 M8 M8 M8 M8 M8 M8 M8 M8 M8 M8 M8 M8 M8 M8 M8 M8 M8 M8 M8 M8 M8 M8 M8 M8 M8 M8 M8 M8 M8 M8 M8 M8 M8 M8 M8 M8 M8 M8 M8 M8 M8 M8 M8 M8 M8 M8 M8 M8 M8 M8 M8 M8 M8 M8 M8 M8 M8 M8 M8 M8 M8 M8 M8 M8 M8 M8 M8 M8 M M M M M M M M        K9 K9 K9 K9 K9 K9 K9 K9 K9 K9 K9 K9 K9 K9 K9 K9 K9 K9 K9 K9 K9 K9 K9 K9 K9 K9 K9 K9 K9 K9 K9 K9 K9 K9 K9 K9 K9 K9 K9 K9 K9 K9 K9 K9 K9 K9 K9 K9 K9 K9 K9 K9 K9 K9 K9 K9 K9 K9 K9 K9 K9 K9 K9 K9 K9 K9 K9 K9 K9 K9 K9 K9 K9 K9 K9 K9 K9 K9 K9 K9 K9 K9 K9 K9 K9 K9 K9 K9 K9 9 9 9 9 9 9 9 I9 I9 I9 I9 I9 I9 I9 I9 I9 I9 I9 I9 I9 I9 I9 I9 I9 I9 I9 I9 I9 I9 I9 I9 I9 I9 I9 I9 I9 I9 I9 I9 I9 I9 I9 I9 I9 I9 I9 I9 I9 I9 I9 I9 I9 9 9 9 HH9 HH9 HH9 HH9 HH9 HH9 HH9 HH9 HH9 HH9 HH9 HH9 HH9 HH9 HH9 HH9 HH9 HH9 HH9 HH9 HH9 HH9 HH9 HH9 HH9 HH9 HH9 HH9 HH9 HH9 HH9 HH9 HH9 HH HH HH HH HH HH HH HH HH HH HH HH H H H IH. IH. IH. IH. IH. IH. IH. IH. IH. IH. IH. IH. IH. IH. IH. IH. IH. IH. IH. IH. IH. IH. IH. IH. IH. IH. IH. IH. IH. IH. IH. IH. IH. IH. IH. IH. IH. IH. IH. IH. IH. IH. IH. IH. IH. IH. IH. IH. IH. IH. IH. IH. IH. IH. IH. IH. IH. IH. IH. IH. IH. IH. IH. IH. IH. IH. IH. IH. IH. IH. IH. IH. IH. IH. IH. IH. IH. IH. IH. IH. IH. IH. IH. IH. IH. IH. IH. IH. IH. IH IH IH IH IH IH IH IH: IH: IH: IH: IH: IH: IH: IH: IH: IH: IH: IH: IH: IH: IH: IH: IH: IH: IH: IH: IH: IH: IH: IH: IH: IH: IH: IH: IH: IH: IH: IH: IH: IH: IH: IH: IH: IH: IH: IH: IH: IH: IH: IH: IH: IH: IH: IH: IH: IH: IH: IH: IH: IH: IH: IH: IH: IH: IH: IH: IH: IH: IH: IH: IH: IH: IH: IH: IH: IH: IH: IH: IH: IH: IH: IH: IH: IH: IH: IH: IH: : : : : : : : :        A= A= A= A= A= A= A= A= A= A= A= A= A= A= A= A= A= A= A= A= A= A= A= A= A= A= A= A= A= A= A= A= A= A= A= A= A= A= A= A= A= A= A= A= A= A= A= A= A= A= A= A= A= A= A= A= A= A= A= A= A= A= A= A= A= A= A= A= A= A= A= A= A= A= A= A= A= A= A= A= A= A= A= A= A= A= A= A= A= A A A A A A A IA: IA: IA: IA: IA: IA: IA: IA: IA: IA: IA: IA: IA: IA: IA: IA: IA: IA: IA: IA: IA: IA: IA: IA: IA: IA: IA: IA: IA: IA: IA: IA: IA: IA: IA: IA: IA: IA: IA: IA: IA: IA: IA: IA: IA: A: A: A: AH: AH: AH: AH: AH: AH: AH: AH: AH: AH: AH: AH: AH: AH: AH: AH: AH: AH: AH: AH: AH: AH: AH: AH: AH: AH: AH: AH: AH: AH: AH: AH: AH: H: H: H: H: H: H: H: H: H H H H    IF7 IF7 IF7 IF7 IF7 IF7 IF7 IF7 IF7 IF7 IF7 IF7 IF7 IF7 IF7 IF7 IF7 IF7 IF7 IF7 IF7 IF7 IF7 IF7 IF7 IF7 IF7 IF7 IF7 IF7 IF7 IF7 IF7 IF7 IF7 IF7 IF7 IF7 IF7 IF7 IF7 IF7 IF7 IF7 IF7 IF7 IF7 IF7 IF7 IF7 IF7 IF7 IF7 IF7 IF7 IF7 IF7 IF7 IF7 IF7 IF7 IF7 IF7 IF7 IF7 IF7 IF7 IF7 IF7 IF7 IF7 IF7 IF7 IF7 IF7 IF7 IF7 IF7 IF7 IF7 IF7 IF7 IF7 IF7 IF7 IF7 IF7 IF7 IF7 F F F F F F F FO5 FO5 FO5 FO5 FO5 FO5 FO5 FO5 FO5 FO5 FO5 FO5 FO5 FO5 FO5 FO5 FO5 FO5 FO5 FO5 FO5 FO5 FO5 FO5 FO5 FO5 FO5 FO5 FO5 FO5 FO5 FO5 FO5 FO5 FO5 FO5 FO5 FO5 FO5 FO5 FO5 FO5 FO5 FO5 FO5 FO FO FO FO3 FO3 FO3 FO3 FO3 FO3 FO3 FO3 FO3 FO3 FO3 FO3 FO3 FO3 FO3 FO3 FO3 FO3 FO3 FO3 FO3 FO3 FO3 FO3 FO3 FO3 FO3 FO3 FO3 FO3 FO3 FO3 FO3 O3 O3 O3 O3 O3 O3 O3 O3 3 3 3 3    HF, HF, HF, HF, HF, HF, HF, HF, HF, HF, HF, HF, HF, HF, HF, HF, HF, HF, HF, HF, HF, HF, HF, HF, HF, HF, HF, HF, HF, HF, HF, HF, HF, HF, HF, HF, HF, HF, HF, HF, HF, HF, HF, HF, HF, HF, HF, HF, HF, HF, HF, HF, HF, HF, HF, HF, HF, HF, HF, HF, HF, HF, HF, HF, HF, HF, HF, HF, HF, HF, HF, HF, HF, HF, HF, HF, HF, HF, HF, HF, HF, HF, HF, HF, HF, HF, HF, HF, HF, HF HF HF HF HF HF HF HF8 HF8 HF8 HF8 HF8 HF8 HF8 HF8 HF8 HF8 HF8 HF8 HF8 HF8 HF8 HF8 HF8 HF8 HF8 HF8 HF8 HF8 HF8 HF8 HF8 HF8 HF8 HF8 HF8 HF8 HF8 HF8 HF8 HF8 HF8 HF8 HF8 HF8 HF8 HF8 HF8 HF8 HF8 HF8 HF8 HF8 HF8 HF8 HF8 HF8 HF8 HF8 HF8 HF8 HF8 HF8 HF8 HF8 HF8 HF8 HF8 HF8 HF8 HF8 HF8 HF8 HF8 HF8 HF8 HF8 HF8 HF8 HF8 HF8 HF8 HF8 HF8 HF8 HF8 HF8 HF8 8 8 8 8 8 8 8 8        ?< ?< ?< ?< ?< ?< ?< ?< ?< ?< ?< ?< ?< ?< ?< ?< ?< ?< ?< ?< ?< ?< ?< ?< ?< ?< ?< ?< ?< ?< ?< ?< ?< ?< ?< ?< ?< ?< ?< ?< ?< ?< ?< ?< ?< ?< ?< ?< ?< ?< ?< ?< ?< ?< ?< ?< ?< ?< ?< ?< ?< ?< ?< ?< ?< ?< ?< ?< ?< ?< ?< ?< ?< ?< ?< ?< ?< ?< ?< ?< ?< ?< ?< ?< ?< ?< ?< ?< ?< ? ? ? ? ? ? ? H?8 H?8 H?8 H?8 H?8 H?8 H?8 H?8 H?8 H?8 H?8 H?8 H?8 H?8 H?8 H?8 H?8 H?8 H?8 H?8 H?8 H?8 H?8 H?8 H?8 H?8 H?8 H?8 H?8 H?8 H?8 H?8 H?8 H?8 H?8 H?8 H?8 H?8 H?8 H?8 H?8 H?8 H?8 H?8 H?8 ?8 ?8 ?8 ?F8 ?F8 ?F8 ?F8 ?F8 ?F8 ?F8 ?F8 ?F8 ?F8 ?F8 ?F8 ?F8 ?F8 ?F8 ?F8 ?F8 ?F8 ?F8 ?F8 ?F8 ?F8 ?F8 ?F8 ?F8 ?F8 ?F8 ?F8 ?F8 ?F8 ?F8 ?F8 ?F8 F8 F8 F8 F8 F8 F8 F8 F8 F F F F    HD5 HD5 HD5 HD5 HD5 HD5 HD5 HD5 HD5 HD5 HD5 HD5 HD5 HD5 HD5 HD5 HD5 HD5 HD5 HD5 HD5 HD5 HD5 HD5 HD5 HD5 HD5 HD5 HD5 HD5 HD5 HD5 HD5 HD5 HD5 HD5 HD5 HD5 HD5 HD5 HD5 HD5 HD5 HD5 HD5 HD5 HD5 HD5 HD5 HD5 HD5 HD5 HD5 HD5 HD5 HD5 HD5 HD5 HD5 HD5 HD5 HD5 HD5 HD5 HD5 HD5 HD5 HD5 HD5 HD5 HD5 HD5 HD5 HD5 HD5 HD5 HD5 HD5 HD5 HD5 HD5 HD5 HD5 HD5 HD5 HD5 HD5 HD5 HD5 D D D D D D D MD3 MD3 MD3 MD3 MD3 MD3 MD3 MD3 MD3 MD3 MD3 MD3 MD3 MD3 MD3 MD3 MD3 MD3 MD3 MD3 MD3 MD3 MD3 MD3 MD3 MD3 MD3 MD3 MD3 MD3 MD3 MD3 MD3 MD3 MD3 MD3 MD3 MD3 MD3 MD3 MD3 MD3 MD3 MD3 MD3 MD MD MD MD1 MD1 MD1 MD1 MD1 MD1 MD1 MD1 MD1 MD1 MD1 MD1 MD1 MD1 MD1 MD1 MD1 MD1 MD1 MD1 MD1 MD1 MD1 MD1 MD1 MD1 MD1 MD1 MD1 MD1 MD1 MD1 MD1 MD1 MD1 MD1 MD1 MD1 MD1 MD1 MD1 D1 D1 D1 D1 D D D FD+ FD+ FD+ FD+ FD+ FD+ FD+ FD+ FD+ FD+ FD+ FD+ FD+ FD+ FD+ FD+ FD+ FD+ FD+ FD+ FD+ FD+ FD+ FD+ FD+ FD+ FD+ FD+ FD+ FD+ FD+ FD+ FD+ FD+ FD+ FD+ FD+ FD+ FD+ FD+ FD+ FD+ FD+ FD+ FD+ FD+ FD+ FD+ FD+ FD+ FD+ FD+ FD+ FD+ FD+ FD+ FD+ FD+ FD+ FD+ FD+ FD+ FD+ FD+ FD+ FD+ FD+ FD+ FD+ FD+ FD+ FD+ FD+ FD+ FD+ FD+ FD+ FD+ FD+ FD+ FD+ FD+ FD+ FD+ FD+ FD+ FD+ FD+ FD+ FD FD FD FD FD FD FD FD7 FD7 FD7 FD7 FD7 FD7 FD7 FD7 FD7 FD7 FD7 FD7 FD7 FD7 FD7 FD7 FD7 FD7 FD7 FD7 FD7 FD7 FD7 FD7 FD7 FD7 FD7 FD7 FD7 FD7 FD7 FD7 FD7 FD7 FD7 FD7 FD7 FD7 FD7 FD7 FD7 FD7 FD7 FD7 FD7 FD7 FD7 FD7 FD7 FD7 FD7 FD7 FD7 FD7 FD7 FD7 FD7 FD7 FD7 FD7 FD7 FD7 FD7 FD7 FD7 FD7 FD7 FD7 FD7 FD7 FD7 FD7 FD7 FD7 FD7 FD7 FD7 FD7 FD7 FD7 FD7 7 7 7 7 7 7 7 7        C: C: C: C: C: C: C: C: C: C: C: C: C: C: C: C: C: C: C: C: C: C: C: C: C: C: C: C: C: C: C: C: C: C: C: C: C: C: C: C: C: C: C: C: C: C: C: C: C: C: C: C: C: C: C: C: C: C: C: C: C: C: C: C: C: C: C: C: C: C: C: C: C: C: C: C: C: C: C: C: C: C: C: C: C: C: C: C: C:        FA7 FA7 FA7 FA7 FA7 FA7 FA7 FA7 FA7 FA7 FA7 FA7 FA7 FA7 FA7 FA7 FA7 FA7 FA7 FA7 FA7 FA7 FA7 FA7 FA7 FA7 FA7 FA7 FA7 FA7 FA7 FA7 FA7 FA7 FA7 FA7 FA7 FA7 FA7 FA7 FA7 FA7 FA7 FA7 FA7 A7 A7 A7 AD7 AD7 AD7 AD7 AD7 AD7 AD7 AD7 AD7 AD7 AD7 AD7 AD7 AD7 AD7 AD7 AD7 AD7 AD7 AD7 AD7 AD7 AD7 AD7 AD7 AD7 AD7 AD7 AD7 AD7 AD7 AD7 AD7 AD7 AD7 AD7 AD7 AD7 AD7 AD7 AD7 D D D D    FC4 FC4 FC4 FC4 FC4 FC4 FC4 FC4 FC4 FC4 FC4 FC4 FC4 FC4 FC4 FC4 FC4 FC4 FC4 FC4 FC4 FC4 FC4 FC4 FC4 FC4 FC4 FC4 FC4 FC4 FC4 FC4 FC4 FC4 FC4 FC4 FC4 FC4 FC4 FC4 FC4 FC4 FC4 FC4 FC4 FC4 FC4 FC4 FC4 FC4 FC4 FC4 FC4 FC4 FC4 FC4 FC4 FC4 FC4 FC4 FC4 FC4 FC4 FC4 FC4 FC4 FC4 FC4 FC4 FC4 FC4 FC4 FC4 FC4 FC4 FC4 FC4 FC4 FC4 FC4 FC4 FC4 FC4 FC4 FC4 FC4 FC4 FC4 FC4 C C C C C C C CL2 CL2 CL2 CL2 CL2 CL2 CL2 CL2 CL2 CL2 CL2 CL2 CL2 CL2 CL2 CL2 CL2 CL2 CL2 CL2 CL2 CL2 CL2 CL2 CL2 CL2 CL2 CL2 CL2 CL2 CL2 CL2 CL2 CL2 CL2 CL2 CL2 CL2 CL2 CL2 CL2 CL2 CL2 CL2 CL2 CL CL CL CL0 CL0 CL0 CL0 CL0 CL0 CL0 CL0 CL0 CL0 CL0 CL0 CL0 CL0 CL0 CL0 CL0 CL0 CL0 CL0 CL0 CL0 CL0 CL0 CL0 CL0 CL0 CL0 CL0 CL0 CL0 CL0 CL0 L0 L0 L0 L0 L0 L0 L0 L0 0 0 0 0    MD5 MD5 MD5 MD5 MD5 MD5 MD5 MD5 MD5 MD5 MD5 MD5 MD5 MD5 MD5 MD5 MD5 MD5 MD5 MD5 MD5 MD5 MD5 MD5 MD5 MD5 MD5 MD5 MD5 MD5 MD5 MD5 MD5 MD5 MD5 MD5 MD5 MD5 MD5 MD5 MD5 MD5 MD5 MD5 MD5 MD5 MD5 MD5 MD5 MD5 MD5 MD5 MD5 MD5 MD5 MD5 MD5 MD5 MD5 MD5 MD5 MD5 MD5 MD5 MD5 MD5 MD5 MD5 MD5 MD5 MD5 MD5 MD5 MD5 MD5 MD5 MD5 MD5 MD5 MD5 MD5 MD5 MD5 MD5 MD5 MD5 MD5 MD5 MD5 5 5 5 5 5 5 5 <5 <5 <5 <5 <5 <5 <5 <5 <5 <5 <5 <5 <5 <5 <5 <5 <5 <5 <5 <5 <5 <5 <5 <5 <5 <5 <5 <5 <5 <5 <5 <5 <5 <5 <5 <5 <5 <5 <5 <5 <5 <5 <5 <5 <5 <5 <5 <5 <5 <5 <5 <5 <5 <5 <5 <5 <5 <5 <5 <5 <5 <5 <5 <5 <5 <5 <5 <5 <5 <5 <5 <5 <5 <5 <5 <5 <5 <5 <5 <5 <5 < < < < < < < <        <A, <A, <A, <A, <A, <A, <A, <A, <A, <A, <A, <A, <A, <A, <A, <A, <A, <A, <A, <A, <A, <A, <A, <A, <A, <A, <A, <A, <A, <A, <A, <A, <A, <A, <A, <A, <A, <A, <A, <A, <A, <A, <A, <A, <A, <A, <A, <A, <A, <A, <A, <A, <A, <A, <A, <A, <A, <A, <A, <A, <A, <A, <A, <A, <A, <A, <A, <A, <A, <A, <A, <A, <A, <A, <A, <A, <A, <A, <A, <A, <A, <A, <A, <A, <A, <A, <A, <A, <A, <, <, <, <, <, <, <, <D<, <D<, <D<, <D<, <D<, <D<, <D<, <D<, <D<, <D<, <D<, <D<, <D<, <D<, <D<, <D<, <D<, <D<, <D<, <D<, <D<, <D<, <D<, <D<, <D<, <D<, <D<, <D<, <D<, <D<, <D<, <D<, <D<, <D<, <D<, <D<, <D<, <D<, <D<, <D<, <D<, <D<, <D<, <D<, <D<, <D<, <D<, <D<, <D<, <D<, <D<, <D<, <D<, <D<, <D<, <D<, <D<, <D<, <D<, <D<, <D<, <D<, <D<, <D<, <D<, <D<, <D<, <D<, <D<, <D<, <D<, <D<, <D<, <D<, <D<, <D<, <D<, <D<, <D<, <D<, <D<, <D< <D< <D< <D< <D< <D< <D< <D< < < < < < < < <C:0 <C:0 <C:0 <C:0 <C:0 <C:0 <C:0 <C:0 <C:0 <C:0 <C:0 <C:0 <C:0 <C:0 <C:0 <C:0 <C:0 <C:0 <C:0 <C:0 <C:0 <C:0 <C:0 <C:0 <C:0 <C:0 <C:0 <C:0 <C:0 <C:0 <C:0 <C:0 <C:0 <C:0 <C:0 <C:0 <C:0 <C:0 <C:0 <C:0 <C:0 <C:0 <C:0 <C:0 <C:0 <C:0 <C:0 <C:0 <C:0 <C:0 <C:0 <C:0 <C:0 <C:0 <C:0 <C:0 <C:0 <C:0 <C:0 <C:0 <C:0 <C:0 <C:0 <C:0 <C:0 <C:0 <C:0 <C:0 <C:0 <C:0 <C:0 <C:0 <C:0 <C:0 <C:0 <C:0 <C:0 <C:0 <C:0 <C:0 <C:0 <C:0 <C:0 <C:0 <C:0 <C:0 <C:0 <C:0 <C:0 <0 <0 <0 <0 <0 <0 <0 <A80 <A80 <A80 <A80 <A80 <A80 <A80 <A80 <A80 <A80 <A80 <A80 <A80 <A80 <A80 <A80 <A80 <A80 <A80 <A80 <A80 <A80 <A80 <A80 <A80 <A80 <A80 <A80 <A80 <A80 <A80 <A80 <A80 <A80 <A80 <A80 <A80 <A80 <A80 <A80 <A80 <A80 <A80 <A80 <A80 <0 <0 <0 <@70 <@70 <@70 <@70 <@70 <@70 <@70 <@70 <@70 <@70 <@70 <@70 <@70 <@70 <@70 <@70 <@70 <@70 <@70 <@70 <@70 <@70 <@70 <@70 <@70 <@70 <@70 <@70 <@70 <@70 <@70 <@70 <@70 <@7 <@7 <@7 <@7 <@7 <@7 <@7 <@7 <@7 <@7 <@7 <@7 < < < <A85 <A85 <A85 <A85 <A85 <A85 <A85 <A85 <A85 <A85 <A85 <A85 <A85 <A85 <A85 <A85 <A85 <A85 <A85 <A85 <A85 <A85 <A85 <A85 <A85 <A85 <A85 <A85 <A85 <A85 <A85 <A85 <A85 <A85 <A85 <A85 <A85 <A85 <A85 <A85 <A85 <A85 <A85 <A85 <A85 <A85 <A85 <A85 <A85 <A85 <A85 <A85 <A85 <A85 <A85 <A85 <A85 <A85 <A85 <A85 <A85 <A85 <A85 <A85 <A85 <A85 <A85 <A85 <A85 <A85 <A85 <A85 <A85 <A85 <A85 <A85 <A85 <A85 <A85 <A85 <A85 <A85 <A85 <A85 <A85 <A85 <A85 <A85 <A85 <85 <85 <85 <85 <85 <85 <85 <8H5 <8H5 <8H5 <8H5 <8H5 <8H5 <8H5 <8H5 <8H5 <8H5 <8H5 <8H5 <8H5 <8H5 <8H5 <8H5 <8H5 <8H5 <8H5 <8H5 <8H5 <8H5 <8H5 <8H5 <8H5 <8H5 <8H5 <8H5 <8H5 <8H5 <8H5 <8H5 <8H5 <8H5 <8H5 <8H5 <8H5 <8H5 <8H5 <8H5 <8H5 <8H5 <8H5 <8H5 <8H5 <8H5 <8H5 <8H5 <8H5 <8H5 <8H5 <8H5 <8H5 <8H5 <8H5 <8H5 <8H5 <8H5 <8H5 <8H5 <8H5 <8H5 <8H5 <8H5 <8H5 <8H5 <8H5 <8H5 <8H5 <8H5 <8H5 <8H5 <8H5 <8H5 <8H5 <8H5 <8H5 <8H5 <8H5 <8H5 <8H5 <H <H <H <H <H <H <H <H < < < < < < < <M8 <M8 <M8 <M8 <M8 <M8 <M8 <M8 <M8 <M8 <M8 <M8 <M8 <M8 <M8 <M8 <M8 <M8 <M8 <M8 <M8 <M8 <M8 <M8 <M8 <M8 <M8 <M8 <M8 <M8 <M8 <M8 <M8 <M8 <M8 <M8 <M8 <M8 <M8 <M8 <M8 <M8 <M8 <M8 <M8 <M8 <M8 <M8 <M8 <M8 <M8 <M8 <M8 <M8 <M8 <M8 <M8 <M8 <M8 <M8 <M8 <M8 <M8 <M8 <M8 <M8 <M8 <M8 <M8 <M8 <M8 <M8 <M8 <M8 <M8 <M8 <M8 <M8 <M8 <M8 <M8 <M8 <M8 <M8 <M8 <M8 <M8 <M8 <M8 <8 <8 <8 <8 <8 <8 <8 <HD8 <HD8 <HD8 <HD8 <HD8 <HD8 <HD8 <HD8 <HD8 <HD8 <HD8 <HD8 <HD8 <HD8 <HD8 <HD8 <HD8 <HD8 <HD8 <HD8 <HD8 <HD8 <HD8 <HD8 <HD8 <HD8 <HD8 <HD8 <HD8 <HD8 <HD8 <HD8 <HD8 <HD8 <HD8 <HD8 <HD8 <HD8 <HD8 <HD8 <HD8 <HD8 <HD8 <HD8 <HD8 <HD8 <HD8 <HD8 <HD8 <HD8 <HD8 <HD8 <HD8 <HD8 <HD8 <HD8 <HD8 <HD8 <HD8 <HD8 <HD8 <HD8 <HD8 <HD8 <HD8 <HD8 <HD8 <HD8 <HD8 <HD8 <HD8 <HD8 <HD8 <HD8 <HD8 <HD8 <HD8 <HD8 <HD8 <HD8 <HD8 <HD <HD <HD <HD <HD <HD <HD <HD < < < < < < < <FC< <FC< <FC< <FC< <FC< <FC< <FC< <FC< <FC< <FC< <FC< <FC< <FC< <FC< <FC< <FC< <FC< <FC< <FC< <FC< <FC< <FC< <FC< <FC< <FC< <FC< <FC< <FC< <FC< <FC< <FC< <FC< <FC< <FC< <FC< <FC< <FC< <FC< <FC< <FC< <FC< <FC< <FC< <FC< <FC< <FC< <FC< <FC< <FC< <FC< <FC< <FC< <FC< <FC< <FC< <FC< <FC< <FC< <FC< <FC< <FC< <FC< <FC< <FC< <FC< <FC< <FC< <FC< <FC< <FC< <FC< <FC< <FC< <FC< <FC< <FC< <FC< <FC< <FC< <FC< <FC< <FC< <FC< <FC< <FC< <FC< <FC< <FC< <FC< << << << << << << << <DA< <DA< <DA< <DA< <DA< <DA< <DA< <DA< <DA< <DA< <DA< <DA< <DA< <DA< <DA< <DA< <DA< <DA< <DA< <DA< <DA< <DA< <DA< <DA< <DA< <DA< <DA< <DA< <DA< <DA< <DA< <DA< <DA< <DA< <DA< <DA< <DA< <DA< <DA< <DA< <DA< <DA< <DA< <DA< <DA< << << << <C@< <C@< <C@< <C@< <C@< <C@< <C@< <C@< <C@< <C@< <C@< <C@< <C@< <C@< <C@< <C@< <C@< <C@< <C@< <C@< <C@< <C@< <C@< <C@< <C@< <C@< <C@< <C@< <C@< <C@< <C@< <C@< <C@< <C@ <C@ <C@ <C@ <C@ <C@ <C@ <C@ <C@ <C@ <C@ <C@ < < < <DA5 <DA5 <DA5 <DA5 <DA5 <DA5 <DA5 <DA5 <DA5 <DA5 <DA5 <DA5 <DA5 <DA5 <DA5 <DA5 <DA5 <DA5 <DA5 <DA5 <DA5 <DA5 <DA5 <DA5 <DA5 <DA5 <DA5 <DA5 <DA5 <DA5 <DA5 <DA5 <DA5 <DA5 <DA5 <DA5 <DA5 <DA5 <DA5 <DA5 <DA5 <DA5 <DA5 <DA5 <DA5 <DA5 <DA5 <DA5 <DA5 <DA5 <DA5 <DA5 <DA5 <DA5 <DA5 <DA5 <DA5 <DA5 <DA5 <DA5 <DA5 <DA5 <DA5 <DA5 <DA5 <DA5 <DA5 <DA5 <DA5 <DA5 <DA5 <DA5 <DA5 <DA5 <DA5 <DA5 <DA5 <DA5 <DA5 <DA5 <DA5 <DA5 <DA5 <DA5 <DA5 <DA5 <DA5 <DA5 <DA5 <DA5 <DA5 <DA5 <DA5 <DA5 <DA5 <DA5 <DA5 <DA5 <DA5 <DA5 <DA5 <DA5 <DA5 <DA5 <DA5 <DA5 <DA5 <DA5 <DA5 <DA5 <DA5 <DA5 <DA5 <DA5 <DA5 <DA5 <DA5 <DA5 <DA5 <DA5 <DA5 <DA5 <DA5 <DA5 <DA5 <DA5 <DA5 <DA5 <DA5 <DA5 <DA5 <DA5 <DA5 DA5 DA5 DA5 DA5 DA5 DA5 DA5 DA5 DA5 DA5 DA5 DDA5 DDA5 DDA5 DDA5 DDA5 DDA5 DDA5 DDA5 DDA5 DDA5 DDA5 DDA5 DDA5 DDA5 DDA5 DDA5 DDA5 DDA5 DDA5 DDA5 DDA5 DDA5 DDA5 DDA5 DDA5 DDA5 DDA5 DDA5 DDA5 DDA5 DDA5 DDA5 DDA5 D D D D D D D D D D D D    C. C. C. C. C. C. C. C. C. C. C. C. C. C. C. C. C. C. C. C. C. C. C. C. C. C. C. C. C. C. C. C. C. C. C. C. C. C. C. C. C. C. C. C. C. C. C. C. C. C. C. C. C. C. C. C. C. C. C. C. C. C. C. C. C. C. C. C. C. C. C. C. C. C. C. C. C. C. C. C. C. C. C. C. C. C. C. C. C. C. C. C. C. C. C. C. C. C. C. C. C. C. C. C. C. C. C. C. C. C. C. C. C. C. C. C. C. C. C. C. C. C. C. C. C. C. C. C. C. C. C. C. C. C. C. C. C. C. C. C. C. C. C. C. C. C. C. C. C. C. C. C. C. C. C. C. C. C. C. C. C. C. C. C. C. C. C. C. C. C. C. C. C. C. C. C. C. C C C C C C C C C C C C C C C A1 A1 A1 A1 A1 A1 A1 A1 C1 C1 C1 C1 C1 C1 C1 C1 A1 A1 A1 A1 A1 A1 A1 A1 C1 C1 C1 C1 C1 C1 C1 C1 A1 A1 A1 A1 A1 A1 A1 A1 C1 C1 C1 C1 C1 C1 C1 C1 @1 @1 @1 @1 @1 @1 @1 @1 @1 @1 @1 @1 @1 @1 @1 @1 @1 @1 @1 @1 @1 @1 @1 @1 @1 @1 @1 @1 @1 @1 @1 @1 @1 @1 @1 @1 @1 @1 @1 @1 @1 @1 @1 @1 @1 1 1 1 A1 A1 A1 A1 A1 A1 A1 A1 A1 A1 A1 A1 A1 A1 A1 A1 A1 A1 A1 A1 A1 A1 A1 A1 A1 A1 A1 A1 A1 A1 A1 A1 A1 A1 A1 A1 A1 A1 A1 A1 A1 A1 A1 A1 A1 A1 A1 A1 A1 A1 A1 A1 A1 A1 A1 A1 A1 A1 A1 A1 A1 A1 A1 A1 A1 A1 A1 A1 A1 A1 A1 A1 A1 A1 A1 A1 A1 A1 A1 A1 A1 A A A A A A A A        @0 @0 @0 @0 @0 @0 @0 @0 @0 @0 @0 @0 @0 @0 @0 @0 @0 @0 @0 @0 @0 @0 @0 @0 @0 @0 @0 @0 @0 @0 @0 @0 @0 @0 @0 @0 @0 @0 @0 @0 @0 @0 @0 @0 @0 0 0 0 C0 C0 C0 C0 C0 C0 C0 C0 C0 C0 C0 C0 C0 C0 C0 C0 C0 C0 C0 C0 C0 C0 C0 C0 C0 C0 C0 C0 C0 C0 C0 C0 C0 C0 C0 C0 C0 C0 C0 C0 C0 C0 C0 C0 C0 0 0 0 FC0 FC0 FC0 FC0 FC0 FC0 FC0 FC0 FC0 FC0 FC0 FC0 FC0 FC0 FC0 FC0 FC0 FC0 FC0 FC0 FC0 FC0 FC0 FC0 FC0 FC0 FC0 FC0 FC0 FC0 FC0 FC0 FC0 FC0 FC0 FC0 FC0 FC0 FC0 FC0 FC0 FC0 FC0 FC0 FC0 C0 C0 C0 IC0 IC0 IC0 IC0 IC0 IC0 IC0 IC0 IC0 IC0 IC0 IC0 IC0 IC0 IC0 IC0 IC0 IC0 IC0 IC0 IC0 IC0 IC0 IC0 IC0 IC0 IC0 IC0 IC0 IC0 IC0 IC0 IC0 IC IC IC IC IC IC IC IC I I I I    HH4 HH4 HH4 HH4 HH4 HH4 HH4 HH4 HH4 HH4 HH4 HH4 HH4 HH4 HH4 HH4 HH4 HH4 HH4 HH4 HH4 HH4 HH4 HH4 HH4 HH4 HH4 HH4 HH4 HH4 HH4 HH4 HH4 HH4 HH4 HH4 HH4 HH4 HH4 HH4 HH4 HH4 HH4 HH4 HH4 HH4 HH4 HH4 HH4 HH4 HH4 HH4 HH4 HH4 HH4 HH4 HH4 HH4 HH4 HH4 HH4 HH4 HH4 HH4 HH4 HH4 HH4 HH4 HH4 HH4 HH4 HH4 HH4 HH4 HH4 HH4 HH4 HH4 HH4 HH4 HH4 HH4 HH4 HH4 HH4 HH4 HH4 HH4 HH4 H4 H4 H4 H4 H4 H4 H4 HC4 HC4 HC4 HC4 HC4 HC4 HC4 HC4 HC4 HC4 HC4 HC4 HC4 HC4 HC4 HC4 HC4 HC4 HC4 HC4 HC4 HC4 HC4 HC4 HC4 HC4 HC4 HC4 HC4 HC4 HC4 HC4 HC4 HC4 HC4 HC4 HC4 HC4 HC4 HC4 HC4 HC4 HC4 HC4 HC4 HC4 HC4 HC4 HC4 HC4 HC4 HC4 HC4 HC4 HC4 HC4 HC4 HC4 HC4 HC4 HC4 HC4 HC4 HC4 HC4 HC4 HC4 HC4 HC4 HC4 HC4 HC4 HC4 HC4 HC4 HC4 HC4 HC4 HC4 HC4 HC4 C C C C C C C C        H@0 H@0 H@0 H@0 H@0 H@0 H@0 H@0 H@0 H@0 H@0 H@0 H@0 H@0 H@0 H@0 H@0 H@0 H@0 H@0 H@0 H@0 H@0 H@0 H@0 H@0 H@0 H@0 H@0 H@0 H@0 H@0 H@0 H@0 H@0 H@0 H@0 H@0 H@0 H@0 H@0 H@0 H@0 H@0 H@0 @0 @0 @0 F@0 F@0 F@0 F@0 F@0 F@0 F@0 F@0 F@0 F@0 F@0 F@0 F@0 F@0 F@0 F@0 F@0 F@0 F@0 F@0 F@0 F@0 F@0 F@0 F@0 F@0 F@0 F@0 F@0 F@0 F@0 F@0 F@0 F@0 F@0 F@0 F@0 F@0 F@0 F@0 F@0 F0 F0 F0 F0 0 0 0 D>0 D>0 D>0 D>0 D>0 D>0 D>0 D>0 D>0 D>0 D>0 D>0 D>0 D>0 D>0 D>0 D>0 D>0 D>0 D>0 D>0 D>0 D>0 >0 C>0 C>0 C>0 C>0 C>0 C>0 C>0 C>0 C>0 C>0 C>0 C>0 C>0 C>0 C>0 C>0 C>0 C>0 C>0 C>0 C>0 C0 C0 0 F<0 F<0 F<0 F<0 F<0 F<0 F<0 F<0 F<0 F<0 F<0 F<0 F<0 F<0 F<0 F<0 F<0 F<0 F<0 F<0 F<0 F<0 F<0 <0 D<0 D<0 D<0 D<0 D<0 D<0 D<0 D<0 D<0 D< D< D< D< D< D< D< D< D< D< D< D< D D  DD5 DD5 DD5 DD5 DD5 DD5 DD5 DD5 DD5 DD5 DD5 DD5 DD5 DD5 DD5 DD5 DD5 DD5 DD5 DD5 DD5 DD5 DD5 DD5 DD5 DD5 DD5 DD5 DD5 DD5 DD5 DD5 DD5 DD5 DD5 DD5 DD5 DD5 DD5 DD5 DD5 DD5 DD5 DD5 DD5 DD5 DD5 DD5 DD5 DD5 DD5 DD5 DD5 DD5 DD5 DD5 DD5 DD5 DD5 DD5 DD5 DD5 DD5 DD5 DD5 DD5 DD5 DD5 DD5 DD5 DD5 DD5 DD5 DD5 DD5 DD5 DD5 DD5 DD5 DD5 DD5 DD5 DD5 DD5 DD5 DD5 DD5 DD5 DD5 DD5 DD5 DD5 DD5 DD5 DD5 DD5 DDH5 DDH5 DDH5 DDH5 DDH5 DDH5 DDH5 DDH5 DDH5 DDH5 DDH5 DDH5 DDH5 DDH5 DDH5 DDH5 DDH5 DDH5 DDH5 DDH5 DDH5 DDH5 DDH5 DDH5 DDH5 DDH5 DDH5 DDH5 DDH5 DDH5 DDH5 DDH5 DDH5 DDH5 DDH5 DDH5 DDH5 DDH5 DDH5 DDH5 DDH5 DDH5 DDH5 DDH5 DDH5 DDH5 DDH5 DDH5 DDH5 DDH5 DDH5 DDH5 DDH5 DDH5 DDH5 DDH5 DDH5 DDH5 DDH5 DDH5 DDH5 DDH5 DDH5 DDH5 DDH5 DDH5 DDH5 DDH5 DDH5 DDH5 DDH5 DDH5 DDH5 DDH5 DDH5 DDH5 DDH5 DDH5 DDH5 DDH5 DDH5 DH DH DH DH DH DH DH DH D D D D D D D DM8 DM8 DM8 DM8 DM8 DM8 DM8 DM8 DM8 DM8 DM8 DM8 DM8 DM8 DM8 DM8 DM8 DM8 DM8 DM8 DM8 DM8 DM8 DM8 DM8 DM8 DM8 DM8 DM8 DM8 DM8 DM8 DM8 DM8 DM8 DM8 DM8 DM8 DM8 DM8 DM8 DM8 DM8 DM8 DM8 DM8 DM8 DM8 DM8 DM8 DM8 DM8 DM8 DM8 DM8 DM8 DM8 DM8 DM8 DM8 DM8 DM8 DM8 DM8 DM8 DM8 DM8 DM8 DM8 DM8 DM8 DM8 DM8 DM8 DM8 DM8 DM8 DM8 DM8 DM8 DM8 DM8 DM8 DM8 DM8 DM8 DM8 DM8 DM8 D8 D8 D8 D8 D8 D8 D8 DH8 DH8 DH8 DH8 DH8 DH8 DH8 DH8 DH8 DH8 DH8 DH8 DH8 DH8 DH8 DH8 DH8 DH8 DH8 DH8 DH8 DH8 DH8 DH8 DH8 DH8 DH8 DH8 DH8 DH8 DH8 DH8 DH8 DH8 DH8 DH8 DH8 DH8 DH8 DH8 DH8 DH8 DH8 DH8 DH8 DH8 DH8 DH8 DH8 DH8 DH8 DH8 DH8 DH8 DH8 DH8 DH8 DH8 DH8 DH8 DH8 DH8 DH8 DH8 DH8 DH8 DH8 DH8 DH8 DH8 DH8 DH8 DH8 DH8 DH8 DH8 DH8 DH8 DH8 DH8 DH8 DH DH DH DH DH DH DH DH D D D D D D D DD5 DD5 DD5 DD5 DD5 DD5 DD5 DD5 DD5 DD5 DD5 DD5 DD5 DD5 DD5 DD5 DD5 DD5 DD5 DD5 DD5 DD5 DD5 DD5 DD5 DD5 DD5 DD5 DD5 DD5 DD5 DD5 DD5 DD5 DD5 DD5 DD5 DD5 DD5 DD5 DD5 DD5 DD5 DD5 DD5 DD5 DD5 DD5 DD5 DD5 DD5 DD5 DD5 DD5 DD5 DD5 DD5 DD5 DD5 DD5 DD5 DD5 DD5 DD5 DD5 DD5 DD5 DD5 DD5 DD5 DD5 DD5 DD5 DD5 DD5 DD5 DD5 DD5 DD5 DD5 DD5 DD5 DD5 DD5 DD5 DD5 DD5 DD5 DD5 D5 D5 D5 D5 D5 D5 D5 DC5 DC5 DC5 DC5 DC5 DC5 DC5 DC5 DC5 DC5 DC5 DC5 DC5 DC5 DC5 DC5 DC5 DC5 DC5 DC5 DC5 DC5 DC5 DC5 DC5 DC5 DC5 DC5 DC5 DC5 DC5 DC5 DC5 DC5 DC5 DC5 DC5 DC5 DC5 DC5 DC5 DC5 DC5 DC5 DC5 D5 D5 D5 DA5 DA5 DA5 DA5 DA5 DA5 DA5 DA5 DA5 DA5 DA5 DA5 DA5 DA5 DA5 DA5 DA5 DA5 DA5 DA5 DA5 DA5 DA5 DA5 DA5 DA5 DA5 DA5 DA5 DA5 DA5 DA5 DA5 DA DA DA DA DA DA DA DA DA DA DA DA D D D DI: DI: DI: DI: DI: DI: DI: DI: DI: DI: DI: DI: DI: DI: DI: DI: DI: DI: DI: DI: DI: DI: DI: DI: DI: DI: DI: DI: DI: DI: DI: DI: DI: DI: DI: DI: DI: DI: DI: DI: DI: DI: DI: DI: DI: DI: DI: DI: DI: DI: DI: DI: DI: DI: DI: DI: DI: DI: DI: DI: DI: DI: DI: DI: DI: DI: DI: DI: DI: DI: DI: DI: DI: DI: DI: DI: DI: DI: DI: DI: DI: DI: DI: DI: DI: DI: DI: DI: DI: DI: DI: DI: DI: DI: DI: DI: DAI: DAI: DAI: DAI: DAI: DAI: DAI: DAI: DAI: DAI: DAI: DAI: DAI: DAI: DAI: DAI: DAI: DAI: DAI: DAI: DAI: DAI: DAI: DAI: DAI: DAI: DAI: DAI: DAI: DAI: DAI: DAI: DAI: DAI: DAI: DAI: DAI: DAI: DAI: DAI: DAI: DAI: DAI: DAI: DAI: DAI: DAI: DAI: DAI: DAI: DAI: DAI: DAI: DAI: DAI: DAI: DAI: DAI: DAI: DAI: DAI: DAI: DAI: DAI: DAI: DAI: DAI: DAI: DAI: DAI: DAI: DAI: DAI: DAI: DAI: DAI: DAI: DAI: DAI: DAI: DAI: AI AI AI AI AI AI AI AI I I I I I I I IFI IFI IFI IFI IFI IFI IFI IFI IFI IFI IFI IFI IFI IFI IFI IFI IFI IFI IFI IFI IFI IFI IFI IFI IFI IFI IFI IFI IFI IFI IFI IFI IFI IFI IFI IFI IFI IFI IFI IFI IFI IFI IFI IFI IFI IFI IFI IFI IFI IFI IFI IFI IFI IFI IFI IFI IFI IFI IFI IFI IFI IFI IFI IFI IFI IFI IFI IFI IFI IFI IFI IFI IFI IFI IFI IFI IFI IFI IFI IFI IFI IFI IFI IFI IFI IFI IFI IFI IFI II II II II II II II IAI IAI IAI IAI IAI IAI IAI IAI IAI IAI IAI IAI IAI IAI IAI IAI IAI IAI IAI IAI IAI IAI IAI IAI IAI IAI IAI IAI IAI IAI IAI IAI IAI IAI IAI IAI IAI IAI IAI IAI IAI IAI IAI IAI IAI IAI IAI IAI IAI IAI IAI IAI IAI IAI IAI IAI IAI IAI IAI IAI IAI IAI IAI IAI IAI IAI IAI IAI IAI IAI IAI IAI IAI IAI IAI IAI IAI IAI IAI IAI IAI AI AI AI AI AI AI AI AI I I I I I I I F=I F=I F=I F=I F=I F=I F=I F=I F=I F=I F=I F=I F=I F=I F=I F=I F=I F=I F=I F=I F=I F=I F=I F=I F=I F=I F=I F=I F=I F=I F=I F=I F=I F=I F=I F=I F=I F=I F=I F=I F=I F=I F=I F=I F=I F=I F=I F=I F=I F=I F=I F=I F=I F=I F=I F=I F=I F=I F=I F=I F=I F=I F=I F=I F=I F=I F=I F=I F=I F=I F=I F=I F=I F=I F=I F=I F=I F=I F=I F=I F=I F=I F=I F=I F=I F=I F=I F=I F=I FI FI FI FI FI FI FI F<I F<I F<I F<I F<I F<I F<I F<I F<I F<I F<I F<I F<I F<I F<I F<I F<I F<I F<I F<I F<I F<I F<I F<I F<I F<I F<I F<I F<I F<I F<I F<I F<I F<I F<I F<I F<I F<I F<I F<I F<I F<I F<I F<I F<I FI FI FI F:I F:I F:I F:I F:I F:I F:I F:I F:I F:I F:I F:I F:I F:I F:I F:I F:I F:I F:I F:I F:I F:I F:I F:I F:I F:I F:I F:I F:I F:I F:I F:I F:I :I :I :I :I :I :I :I :I :I :I :I :I I I I CIC CIC CIC CIC CIC CIC CIC CIC CIC CIC CIC CIC CIC CIC CIC CIC CIC CIC CIC CIC CIC CIC CIC CIC CIC CIC CIC CIC CIC CIC CIC CIC CIC CIC CIC CIC CIC CIC CIC CIC CIC CIC CIC CIC CIC CC CC CC CHC CHC CHC CHC CHC CHC CHC CHC CHC CHC CHC CHC CHC CHC CHC CHC CHC CHC CHC CHC CHC CHC CHC CHC CHC CHC CHC CHC CHC CHC CHC CHC CHC CHC CHC CHC CHC CHC CHC CHC CHC CHC CHC CHC CHC CC CC CC CFC: CFC: CFC: CFC: CFC: CFC: CFC: CFC: CFC: CFC: CFC: CFC: CFC: CFC: CFC: CFC: CFC: CFC: CFC: CFC: CFC: CFC: CFC: CFC: CFC: CFC: CFC: CFC: CFC: CFC: CFC: CFC: CFC: CFC: CFC: CFC: CFC: CFC: CFC: CFC: CFC: CFC: CFC: CFC: CFC: CC: CC: CC: CHC: CHC: CHC: CHC: CHC: CHC: CHC: CHC: CHC: CHC: CHC: CHC: CHC: CHC: CHC: CHC: CHC: CHC: CHC: CHC: CHC: CHC: CHC: CHC: CHC: CHC: CHC: CHC: CHC: CHC: CHC: CHC: CHC: CHC: CHC: CHC: CHC: CHC: CHC: CHC: CHC: CHC CHC CHC CHC CC CC CC CIC? CIC? CIC? CIC? CIC? CIC? CIC? CIC? CIC? CIC? CIC? CIC? CIC? CIC? CIC? CIC? CIC? CIC? CIC? CIC? CIC? CIC? CIC? CIC? CIC? CIC? CIC? CIC? CIC? CIC? CIC? CIC? CIC? CIC? CIC? CIC? CIC? CIC? CIC? CIC? CIC? CIC? CIC? CIC? CIC? CC? CC? CC? CHC? CHC? CHC? CHC? CHC? CHC? CHC? CHC? CHC? CHC? CHC? CHC? CHC? CHC? CHC? CHC? CHC? CHC? CHC? CHC? CHC? CHC? CHC? CHC? CHC? CHC? CHC? CHC? CHC? CHC? CHC? CHC? CHC? CHC? CHC? CHC? CHC? CHC? CHC? CHC? CHC? CHC CHC CHC CHC CC CC CC CIC: CIC: CIC: CIC: CIC: CIC: CIC: CIC: CIC: CIC: CIC: CIC: CIC: CIC: CIC: CIC: CIC: CIC: CIC: CIC: CIC: CIC: CIC: CIC: CIC: CIC: CIC: CIC: CIC: CIC: CIC: CIC: CIC: CIC: CIC: CIC: CIC: CIC: CIC: CIC: CIC: CIC: CIC: CIC: CIC: CC: CC: CC: CMC: CMC: CMC: CMC: CMC: CMC: CMC: CMC: CMC: CMC: CMC: CMC: CMC: CMC: CMC: CMC: CMC: CMC: CMC: CMC: CMC: CMC: CMC: CMC: CMC: CMC: CMC: CMC: CMC: CMC: CMC: CMC: CMC: CMC: CMC: CMC: CMC: CMC: CMC: CMC: CMC: CMC CMC CMC CMC CC CC CC CKC7 CKC7 CKC7 CKC7 CKC7 CKC7 CKC7 CKC7 CKC7 CKC7 CKC7 CKC7 CKC7 CKC7 CKC7 CKC7 CKC7 CKC7 CKC7 CKC7 CKC7 CKC7 CKC7 CKC7 CKC7 CKC7 CKC7 CKC7 CKC7 CKC7 CKC7 CKC7 CKC7 CKC7 CKC7 CKC7 CKC7 CKC7 CKC7 CKC7 CKC7 CKC7 CKC7 CKC7 CKC7 CKC7 CKC7 CKC7 CKC7 CKC7 CKC7 CKC7 CKC7 CKC7 CKC7 CKC7 CKC7 CKC7 CKC7 CKC7 CKC7 CKC7 CKC7 CKC7 CKC7 CKC7 CKC7 CKC7 CKC7 CKC7 CKC7 CKC7 CKC7 CKC7 CKC7 CKC7 CKC7 CKC7 CKC7 CKC7 CKC7 CKC7 CKC7 CKC7 CKC7 CKC7 CKC7 CKC7 CKC7 CC CC CC CC CC CC CC CIC5 CIC5 CIC5 CIC5 CIC5 CIC5 CIC5 CIC5 CIC5 CIC5 CIC5 CIC5 CIC5 CIC5 CIC5 CIC5 CIC5 CIC5 CIC5 CIC5 CIC5 CIC5 CIC5 CIC5 CIC5 CIC5 CIC5 CIC5 CIC5 CIC5 CIC5 CIC5 CIC5 CIC5 CIC5 CIC5 CIC5 CIC5 CIC5 CIC5 CIC5 CIC5 CIC5 CIC5 CIC5 CC CC CC CHC3 CHC3 CHC3 CHC3 CHC3 CHC3 CHC3 CHC3 CHC3 CHC3 CHC3 CHC3 CHC3 CHC3 CHC3 CHC3 CHC3 CHC3 CHC3 CHC3 CHC3 CHC3 CHC3 CHC3 CHC3 CHC3 CHC3 CHC3 CHC3 CHC3 CHC3 CHC3 CHC3 CHC3 CHC3 CHC3 CHC3 CHC3 CHC3 CHC3 CHC3 CHC3 CHC3 CHC3 CHC3 CC CC CC CCH8 CCH8 CCH8 CCH8 CCH8 CCH8 CCH8 CCH8 CCH8 CCH8 CCH8 CCH8 CCH8 CCH8 CCH8 CCH8 CCH8 CCH8 CCH8 CCH8 CCH8 CCH8 CCH8 CCH8 CCH8 CCH8 CCH8 CCH8 CCH8 CCH8 CCH8 CCH8 CCH8 CCH8 CCH8 CCH8 CCH8 CCH8 CCH8 CCH8 CCH8 CCH8 CCH8 CCH8 CCH8 CH8 CH8 CH8 CAH8 CAH8 CAH8 CAH8 CAH8 CAH8 CAH8 CAH8 CAH8 CAH8 CAH8 CAH8 CAH8 CAH8 CAH8 CAH8 CAH8 CAH8 CAH8 CAH8 CAH8 CAH8 CAH8 CAH8 CAH8 CAH8 CAH8 CAH8 CAH8 CAH8 CAH8 CAH8 CAH8 CAH8 CAH8 CAH8 CAH8 CAH8 CAH8 CAH8 CAH8 CAH CAH CAH CAH CH CH CH C?H3 C?H3 C?H3 C?H3 C?H3 C?H3 C?H3 C?H3 C?H3 C?H3 C?H3 C?H3 C?H3 C?H3 C?H3 C?H3 C?H3 C?H3 C?H3 C?H3 C?H3 C?H3 C?H3 C?H3 C?H3 C?H3 C?H3 C?H3 C?H3 C?H3 C?H3 C?H3 C?H3 C?H3 C?H3 C?H3 C?H3 C?H3 C?H3 C?H3 C?H3 C?H3 C?H3 C?H3 C?H3 CH3 CH3 CH3 CAH3 CAH3 CAH3 CAH3 CAH3 CAH3 CAH3 CAH3 CAH3 CAH3 CAH3 CAH3 CAH3 CAH3 CAH3 CAH3 CAH3 CAH3 CAH3 CAH3 CAH3 CAH3 CAH3 CAH3 CAH3 CAH3 CAH3 CAH3 CAH3 CAH3 CAH3 CAH3 CAH3 AH3 AH3 AH3 AH3 AH3 AH3 AH3 AH3 AH AH AH AH H H H HBH8 HBH8 HBH8 HBH8 HBH8 HBH8 HBH8 HBH8 HBH8 HBH8 HBH8 HBH8 HBH8 HBH8 HBH8 HBH8 HBH8 HBH8 HBH8 HBH8 HBH8 HBH8 HBH8 HBH8 HBH8 HBH8 HBH8 HBH8 HBH8 HBH8 HBH8 HBH8 HBH8 HBH8 HBH8 HBH8 HBH8 HBH8 HBH8 HBH8 HBH8 HBH8 HBH8 HBH8 HBH8 HH8 HH8 HH8 HAH8 HAH8 HAH8 HAH8 HAH8 HAH8 HAH8 HAH8 HAH8 HAH8 HAH8 HAH8 HAH8 HAH8 HAH8 HAH8 HAH8 HAH8 HAH8 HAH8 HAH8 HAH8 HAH8 HAH8 HAH8 HAH8 HAH8 HAH8 HAH8 HAH8 HAH8 HAH8 HAH8 HAH8 HAH8 HAH8 HAH8 HAH8 HAH8 HAH8 HAH8 HAH HAH HAH HAH HH HH HH HBH3 HBH3 HBH3 HBH3 HBH3 HBH3 HBH3 HBH3 HBH3 HBH3 HBH3 HBH3 HBH3 HBH3 HBH3 HBH3 HBH3 HBH3 HBH3 HBH3 HBH3 HBH3 HBH3 HBH3 HBH3 HBH3 HBH3 HBH3 HBH3 HBH3 HBH3 HBH3 HBH3 HBH3 HBH3 HBH3 HBH3 HBH3 HBH3 HBH3 HBH3 HBH3 HBH3 HBH3 HBH3 HH3 HH3 HH3 HFH3 HFH3 HFH3 HFH3 HFH3 HFH3 HFH3 HFH3 HFH3 HFH3 HFH3 HFH3 HFH3 HFH3 HFH3 HFH3 HFH3 HFH3 HFH3 HFH3 HFH3 HFH3 HFH3 HFH3 HFH3 HFH3 HFH3 HFH3 HFH3 HFH3 HFH3 HFH3 HFH3 FH3 FH3 FH3 FH3 FH3 FH3 FH3 FH3 FH FH FH FH H H H DDH0 DDH0 DDH0 DDH0 DDH0 DDH0 DDH0 DDH0 DDH0 DDH0 DDH0 DDH0 DDH0 DDH0 DDH0 DDH0 DDH0 DDH0 DDH0 DDH0 DDH0 DDH0 DDH0 DDH0 DDH0 DDH0 DDH0 DDH0 DDH0 DDH0 DDH0 DDH0 DDH0 DDH0 DDH0 DDH0 DDH0 DDH0 DDH0 DDH0 DDH0 DDH0 DDH0 DDH0 DDH0 DDH0 DDH0 DDH0 DDH0 DDH0 DDH0 DDH0 DDH0 DDH0 DDH0 DDH0 DDH0 DDH0 DDH0 DDH0 DDH0 DDH0 DDH0 DDH0 DDH0 DDH0 DDH0 DDH0 DDH0 DDH0 DDH0 DDH0 DDH0 DDH0 DDH0 DDH0 DDH0 DDH0 DDH0 DDH0 DDH0 DDH0 DDH0 DDH0 DDH0 DDH0 DDH0 DDH0 DDH0 DH DH DH DH DH DH DH DBH. DBH. DBH. DBH. DBH. DBH. DBH. DBH. DBH. DBH. DBH. DBH. DBH. DBH. DBH. DBH. DBH. DBH. DBH. DBH. DBH. DBH. DBH. DBH. DBH. DBH. DBH. DBH. DBH. DBH. DBH. DBH. DBH. DBH. DBH. DBH. DBH. DBH. DBH. DBH. DBH. DBH. DBH. DBH. DBH. DH DH DH DAH, DAH, DAH, DAH, DAH, DAH, DAH, DAH, DAH, DAH, DAH, DAH, DAH, DAH, DAH, DAH, DAH, DAH, DAH, DAH, DAH, DAH, DAH, DAH, DAH, DAH, DAH, DAH, DAH, DAH, DAH, DAH, DAH, AH, AH, AH, AH, AH, AH, AH, AH, AH, AH, AH, AH, H H H A?H1 A?H1 A?H1 A?H1 A?H1 A?H1 A?H1 A?H1 A?H1 A?H1 A?H1 A?H1 A?H1 A?H1 A?H1 A?H1 A?H1 A?H1 A?H1 A?H1 A?H1 A?H1 A?H1 A?H1 A?H1 A?H1 A?H1 A?H1 A?H1 A?H1 A?H1 A?H1 A?H1 A?H1 A?H1 A?H1 A?H1 A?H1 A?H1 A?H1 A?H1 A?H1 A?H1 A?H1 A?H1 A?H1 A?H1 A?H1 A?H1 A?H1 A?H1 A?H1 A?H1 A?H1 A?H1 A?H1 A?H1 A?H1 A?H1 A?H1 A?H1 A?H1 A?H1 A?H1 A?H1 A?H1 A?H1 A?H1 A?H1 A?H1 A?H1 A?H1 A?H1 A?H1 A?H1 A?H1 A?H1 A?H1 A?H1 A?H1 A?H1 A?H1 A?H1 A?H1 A?H1 A?H1 A?H1 A?H1 A?H1 1 1 1 1 1 1 1 M1 M1 M1 M1 M1 M1 M1 M1 M1 M1 M1 M1 M1 M1 M1 M1 M1 M1 M1 M1 M1 M1 M1 M1 M1 M1 M1 M1 M1 M1 M1 M1 M1 M1 M1 M1 M1 M1 M1 M1 M1 M1 M1 M1 M1 M1 M1 M1 I1 I1 I1 I1 I1 I1 I1 I1 I1 I1 I1 I1 I1 I1 I1 I1 I1 I1 I1 I1 I1 I1 I1 I1 I1 I1 I1 I1 I1 I1 I1 I1 I1 I1 I1 I1 I1 I1 I1 I1 I1 I1 I1 I1 I1 1 1 1 FF1 FF1 FF1 FF1 FF1 FF1 FF1 FF1 FF1 FF1 FF1 FF1 FF1 FF1 FF1 FF1 FF1 FF1 FF1 FF1 FF1 FF1 FF1 FF1 FF1 FF1 FF1 FF1 FF1 FF1 FF1 FF1 FF1 FF1 FF1 FF1 FF1 FF1 FF1 FF1 FF1 FF1 FF1 FF1 FF1 FF1 FF1 FF1 FF1 FF1 FF1 FF1 FF1 FF1 FF1 FF1 FF1 FF1 FF1 FF1 FF1 FF1 FF1 FF1 FF1 FF1 FF1 FF1 FF1 FF1 FF1 FF1 FF1 FF FF FF FF FF FF FF FF FF FF FF FF FF FF FF FF F F F F F F F FA1 FA1 FA1 FA1 FA1 FA1 FA1 FA1 FA1 FA1 FA1 FA1 FA1 FA1 FA1 FA1 FA1 FA1 FA1 FA1 FA1 FA1 FA1 FA1 FA1 FA1 FA1 FA1 FA1 FA1 FA1 FA1 FA1 FA1 FA1 FA1 FA1 FA1 FA1 FA1 FA1 FA1 FA1 FA1 FA1 FA1 FA1 FA1 FA1 FA1 FA1 FA1 FA1 FA1 FA1 FA1 FA1 FA1 FA1 FA1 FA1 FA1 FA1 FA1 FA1 FA1 FA1 FA1 FA1 FA1 FA1 FA1 FA1 FA1 FA1 FA1 FA1 FA1 FA1 FA1 FA1 FA1 FA1 FA1 FA1 FA1 FA1 FA1 FA1 F F F F F F F F=. F=. F=. F=. F=. F=. F=. F=. F=. F=. F=. F=. F=. F=. F=. F=. F=. F=. F=. F=. F=. F=. F=. F=. F=. F=. F=. F=. F=. F=. F=. F=. F=. F=. F=. F=. F=. F=. F=. F=. F=. F=. F=. F=. F=. F=. F=. F=. F=. F=. F=. F=. F=. F=. F=. F=. F=. F=. F=. F=. F=. F=. F=. F=. F=. F=. F=. F=. F=. F=. F=. F=. F=. F=. F=. F=. F=. F=. F=. F=. F=. F=. F=. F=. F=. F=. F=. F=. F=. F F F F F F F F<+ F<+ F<+ F<+ F<+ F<+ F<+ F<+ F<+ F<+ F<+ F<+ F<+ F<+ F<+ F<+ F<+ F<+ F<+ F<+ F<+ F<+ F<+ F<+ F<+ F<+ F<+ F<+ F<+ F<+ F<+ F<+ F<+ F<+ F<+ F<+ F<+ F<+ F<+ F<+ F<+ F<+ F<+ F<+ F<+ F+ F+ F+ F:+ F:+ F:+ F:+ F:+ F:+ F:+ F:+ F:+ F:+ F:+ F:+ F:+ F:+ F:+ F:+ F:+ F:+ F:+ F:+ F:+ F:+ F:+ F:+ F:+ F:+ F:+ F:+ F:+ F:+ F:+ F:+ F:+ F:+ F:+ F:+ F:+ F:+ F:+ F:+ F:+ F: F: F: F: F F F FC( FC( FC( FC( FC( FC( FC( FC( FC( FC( FC( FC( FC( FC( FC( FC( FC( FC( FC( FC( FC( FC( FC( FC( FC( FC( FC( FC( FC( FC( FC( FC( FC( FC( FC( FC( FC( FC( FC( FC( FC( FC( FC( FC( FC( FC( FC( FC( FC( FC( FC( FC( FC( FC( FC( FC( FC( FC( FC( FC( FC( FC( FC( FC( FC( FC( FC( FC( FC( FC( FC( FC( FC( FC( FC( FC( FC( FC( FC( FC( FC( FC( FC( FC( FC( FC( FC( FC( FC( FC( FC( FC( FC( FC( FC( FC( F7C( F7C( F7C( F7C( F7C( F7C( F7C( F7C( F7C( F7C( F7C( F7C( F7C( F7C( F7C( F7C( F7C( F7C( F7C( F7C( F7C( F7C( F7C( F7C( F7C( F7C( F7C( F7C( F7C( F7C( F7C( F7C( F7C( F7C( F7C( F7C( F7C( 7C( 7C( 7C( 7C( 7C( 7C( 7C( 7C( 7C( 7C( 7C( H7C( H7C( H7C( H7C( H7C( H7C( H7C( H7C( H7C( H7C( H7C( H7C( H7C( H7C( H7C( H7C( H7C( H7C( H7C( H7C( H7C( H7C( H7C( 7C( I7C( I7C( I7C( I7C( I7C( I7C( I7C( I7C( I7C( I7C I7C I7C I7C I7C I7C I7C I7C IC IC IC IC IC IC C H<C H<C H<C H<C H<C H<C H<C H<C H<C H<C H<C H<C H<C H<C H<C H<C H<C H<C H<C H<C H<C H<C H<C H<C H<C H<C H<C H<C H<C H<C H<C H<C H<C H<C H<C H<C H<C H<C H<C H<C H<C H<C H<C H<C H<C H<C H<C H<C H<C H<C H<C H<C H<C H<C H<C H<C H<C H<C H<C H<C H<C H<C H<C H<C H<C H<C H<C H<C H<C H<C H<C H<C H<C H<C H<C H<C H<C H<C H<C H<C H<C H<C H<C H<C H<C H<C H<C H<C H<C C C C C C C C F7C F7C F7C F7C F7C F7C F7C F7C F7C F7C F7C F7C F7C F7C F7C F7C F7C F7C F7C F7C F7C F7C F7C F7C F7C F7C F7C F7C F7C F7C F7C F7C F7C F7C F7C F7C F7C F7C F7C F7C F7C F7C F7C F7C F7C F7C F7C F7C F7C F7C F7C F7C F7C F7C F7C F7C F7C F7C F7C F7C F7C F7C F7C F7C F7C F7C F7C F7C F7C F7C F7C F7C F7C F7C F7C F7C F7C F7C F7C F7C F7C F7C F7C F7C F7C F7C F7C F7C F7C C C C C C C C D4C D4C D4C D4C D4C D4C D4C D4C D4C D4C D4C D4C D4C D4C D4C D4C D4C D4C D4C D4C D4C D4C D4C D4C D4C D4C D4C D4C D4C D4C D4C D4C D4C D4C D4C D4C D4C D4C D4C D4C D4C D4C D4C D4C D4C D4C D4C D4C D4C D4C D4C D4C D4C D4C D4C D4C D4C D4C D4C D4C D4C D4C D4C D4C D4C D4C D4C D4C D4C D4C D4C D4C D4C D4C D4C D4C D4C D4C D4C D4C D4C D4C D4C D4C D4C D4C D4C D4C D4C C C C C C C C F2C F2C F2C F2C F2C F2C F2C F2C F2C F2C F2C F2C F2C F2C F2C F2C F2C F2C F2C F2C F2C F2C F2C F2C F2C F2C F2C F2C F2C F2C F2C F2C F2C F2C F2C F2C F2C F2C F2C F2C F2C F2C F2C F2C F2C C C C C0C C0C C0C C0C C0C C0C C0C C0C C0C C0C C0C C0C C0C C0C C0C C0C C0C C0C C0C C0C C0C C0C C0C C0C C0C C0C C0C C0C C0C C0C C0C C0C C0C C0C C0C C0C C0C C0C C0C C0C C0C C0C C0C C0C C0C C C C DC8) DC8) DC8) DC8) DC8) DC8) DC8) DC8) DC8) DC8) DC8) DC8) DC8) DC8) DC8) DC8) DC8) DC8) DC8) DC8) DC8) DC8) DC8) DC8) DC8) DC8) DC8) DC8) DC8) DC8) DC8) DC8) DC8) DC8) DC8) DC8) DC8) DC8) DC8) DC8) DC8) DC8) DC8) DC8) DC8) DC8) DC8) DC8) DC8) DC8) DC8) DC8) DC8) DC8) DC8) DC8) DC8) DC8) DC8) DC8) DC8) DC8) DC8) DC8) DC8) DC8) DC8) DC8) DC8) DC8) DC8) DC8) DC8) DC8) DC8) DC8) DC8) DC8) DC8) DC8) DC8) DC8) DC8) DC8) DC8) DC8) DC8) DC8) DC8) D8) D8) D8) D8) D8) D8) D8) D<8) D<8) D<8) D<8) D<8) D<8) D<8) D<8) D<8) D<8) D<8) D<8) D<8) D<8) D<8) D<8) D<8) D<8) D<8) D<8) D<8) D<8) D<8) D<8) D<8) D<8) D<8) D<8) D<8) D<8) D<8) D<8) D<8) D<8) D<8) D<8) D<8) <8) <8) <8) <8) <8) <8) <8) <8) <8) <8) <8) F<8) F<8) F<8) F<8) F<8) F<8) F<8) F<8) F<8) F<8) F<8) F<8) F<8) F<8) F<8) F<8) F<8) F<8) F<8) F<8) F<8) F<8) F<8) F<8) F<8) F<8) F<8) F<8) F<8) F<8) F<8) F<8) F<8) F<8 F<8 F<8 F<8 F<8 F<8 F<8 F<8 F8 F8 F8 F8 8 8 8 F8A1 F8A1 F8A1 F8A1 F8A1 F8A1 F8A1 F8A1 H8A1 H8A1 H8A1 H8A1 H8A1 H8A1 H8A1 H8A1 F8A1 F8A1 F8A1 F8A1 F8A1 F8A1 F8A1 F8A1 H8A1 H8A1 H8A1 H8A1 H8A1 H8A1 H8A1 H8A1 F8A1 F8A1 F8A1 F8A1 F8A1 F8A1 F8A1 F8A1 H8A1 H8A1 H8A1 H8A1 H8A1 H8A1 H8A1 H8A1 F8A1 F8A1 F8A1 F8A1 F8A1 F8A1 F8A1 F8A1 H8A1 H8A1 H8A1 H8A1 H8A1 H8A1 H8A1 H8A1 F8A1 F8A1 F8A1 F8A1 F8A1 F8A1 F8A1 F8A1 H8A1 HA1 HA1 HA1 HA1 HA1 HA1 HA1 FA1 FA1 FA1 FA1 FA1 FA1 FA1 FA1 HA1 H1 H1 H1 H1 H1 H1 H1 FD<1 FD<1 FD<1 FD<1 FD<1 FD<1 FD<1 FD<1 HD<1 HD<1 HD<1 HD<1 HD<1 HD<1 HD<1 HD<1 FD<1 FD<1 FD<1 FD<1 FD<1 FD<1 FD<1 FD<1 HD<1 HD<1 HD<1 HD<1 HD<1 HD<1 HD<1 HD<1 FD<1 FD<1 FD<1 FD<1 FD<1 FD<1 FD<1 FD<1 HD<1 HD<1 HD<1 HD<1 HD<1 HD<1 HD<1 HD<1 FD<1 FD<1 FD<1 FD<1 FD<1 FD<1 FD<1 FD<1 HD<1 HD<1 HD<1 HD<1 HD<1 HD<1 HD<1 HD<1 FD<1 FD<1 FD<1 FD<1 FD<1 FD<1 FD<1 FD<1 HD<1 HD<1 HD<1 HD<1 HD<1 HD<1 HD<1 HD<1 FD<1 FD<1 FD<1 FD<1 FD<1 FD<1 FD<1 FD<1 HD<1 H1 H1 H1 H1 H1 H1 H1 FC:1 FC:1 FC:1 FC:1 FC:1 FC:1 FC:1 FC:1 HC:1 HC:1 HC:1 HC:1 HC:1 HC:1 HC:1 HC:1 FC:1 FC:1 FC:1 FC:1 FC:1 FC:1 FC:1 FC:1 HC:1 HC:1 HC:1 HC:1 HC:1 HC:1 HC:1 HC:1 FC:1 FC:1 FC:1 FC:1 FC:1 FC:1 FC:1 FC:1 HC:1 HC:1 HC:1 HC:1 HC:1 HC:1 HC:1 HC:1 FC:1 FC:1 FC:1 FC:1 FC:1 FC:1 FC:1 FC:1 HC:1 HC:1 HC:1 HC:1 HC:1 HC:1 HC:1 HC:1 FC:1 FC:1 FC:1 FC:1 FC:1 FC:1 FC:1 FC:1 HC:1 HC:1 HC:1 HC:1 HC:1 HC:1 HC:1 HC:1 FC:1 FC:1 FC:1 FC:1 FC:1 FC:1 FC:1 FC:1 HC:1 H:1 H:1 H:1 H:1 H:1 H:1 H:1 H:A1 H:A1 H:A1 H:A1 H:A1 H:A1 H:A1 H:A1 H:A1 H:A1 H:A1 H:A1 H:A1 H:A1 H:A1 H:A1 H:A1 H:A1 H:A1 H:A1 H:A1 H:A1 H:A1 H:A1 H:A1 H:A1 H:A1 H:A1 H:A1 H:A1 H:A1 H:A1 H:A1 H:A1 H:A1 H:A1 H:A1 H:A1 H:A1 H:A1 H:A1 H:A1 H:A1 H:A1 H:A1 H:A1 H:A1 H:A1 H:A1 H:A1 H:A1 H:A1 H:A1 H:A1 H:A1 H:A1 H:A1 H:A1 H:A1 H:A1 H:A1 H:A1 H:A1 H:A1 H:A1 H:A1 H:A H:A H:A H:A H:A H:A H:A H:A H:A H:A H:A H:A H:A H:A H:A HA HA HA HA HA HA HA HA        H@70 H@70 H@70 H@70 H@70 H@70 H@70 H@70 H@70 H@70 H@70 H@70 H@70 H@70 H@70 H@70 H@70 H@70 H@70 H@70 H@70 H@70 H@70 H@70 H@70 H@70 H@70 H@70 H@70 H@70 H@70 H@70 H@70 H@70 H@70 H@70 H@70 H@70 H@70 H@70 H@70 H@70 H@70 H@70 H@70 H@70 H@70 H@70 H@70 H@70 H@70 H@70 H@70 H@70 H@70 H@70 H@70 H@70 H@70 H@70 H@70 H@70 H@70 H@70 H@70 H@70 H@70 H@70 H@70 H@70 H@70 H@70 H@70 H@70 H@70 H@70 H@70 H@70 H@70 H@70 H@70 H@70 H@70 H@70 H@70 H@70 H@70 H@70 H@70 H0 H0 H0 H0 H0 H0 H0 HH0 HH0 HH0 HH0 HH0 HH0 HH0 HH0 HH0 HH0 HH0 HH0 HH0 HH0 HH0 HH0 HH0 HH0 HH0 HH0 HH0 HH0 HH0 HH0 HH0 HH0 HH0 HH0 HH0 HH0 HH0 HH0 HH0 HH0 HH0 HH0 HH0 HH0 HH0 HH0 HH0 HH0 HH0 HH0 HH0 HH0 HH0 HH0 HH0 HH0 HH0 HH0 HH0 HH0 HH0 HH0 HH0 HH0 HH0 HH0 HH0 HH0 HH0 HH0 HH0 HH0 HH0 HH0 HH0 HH0 HH0 HH0 HH0 HH0 HH0 HH0 HH0 HH0 HH0 HH0 HH0 HH HH HH HH HH HH HH HH H H H H H H H HO4 HO4 HO4 HO4 HO4 HO4 HO4 HO4 HO4 HO4 HO4 HO4 HO4 HO4 HO4 HO4 HO4 HO4 HO4 HO4 HO4 HO4 HO4 HO4 HO4 HO4 HO4 HO4 HO4 HO4 HO4 HO4 HO4 HO4 HO4 HO4 HO4 HO4 HO4 HO4 HO4 HO4 HO4 HO4 HO4 HO4 HO4 HO4 HO4 HO4 HO4 HO4 HO4 HO4 HO4 HO4 HO4 HO4 HO4 HO4 HO4 HO4 HO4 HO4 HO4 HO4 HO4 HO4 HO4 HO4 HO4 HO4 HO4 HO4 HO4 HO4 HO4 HO4 HO4 HO4 HO4 HO4 HO4 HO4 HO4 HO4 HO4 HO4 HO4 H4 H4 H4 H4 H4 H4 H4 HH4 HH4 HH4 HH4 HH4 HH4 HH4 HH4 HH4 HH4 HH4 HH4 HH4 HH4 HH4 HH4 HH4 HH4 HH4 HH4 HH4 HH4 HH4 HH4 HH4 HH4 HH4 HH4 HH4 HH4 HH4 HH4 HH4 HH4 HH4 HH4 HH4 HH4 HH4 HH4 HH4 HH4 HH4 HH4 HH4 HH4 HH4 HH4 HH4 HH4 HH4 HH4 HH4 HH4 HH4 HH4 HH4 HH4 HH4 HH4 HH4 HH4 HH4 HH4 HH4 HH4 H4 H4 H4 H4 H4 H4 H4 H4 H4 H4 H4 H4 H4 H4 H4 H H H H H H H H        F0 F0 F0 F0 F0 F0 F0 F0 F0 F0 F0 F0 F0 F0 F0 F0 F0 F0 F0 F0 F0 F0 F0 F0 F0 F0 F0 F0 F0 F0 F0 F0 F0 F0 F0 F0 F0 F0 F0 F0 F0 F0 F0 F0 F0 F0 F0 F0 F0 F0 F0 F0 F0 F0 F0 F0 F0 F0 F0 F0 F0 F0 F0 F0 F0 F0 F0 F0 F0 F0 F0 F0 F0 F0 F0 F0 F0 F0 F0 F0 F0 F0 F0 F0 F0 F0 F0 F0 F0 0 0 0 0 0 0 0 D0 D0 D0 D0 D0 D0 D0 D0 D0 D0 D0 D0 D0 D0 D0 D0 D0 D0 D0 D0 D0 D0 D0 D0 D0 D0 D0 D0 D0 D0 D0 D0 D0 D0 D0 D0 D0 D0 D0 D0 D0 D0 D0 D0 D0 0 0 0 C0 C0 C0 C0 C0 C0 C0 C0 C0 C0 C0 C0 C0 C0 C0 C0 C0 C0 C0 C0 C0 C0 C0 C0 C0 C0 C0 C0 C0 C0 C0 C0 C0 C C C C C C C C C C C C    D5 D5 D5 D5 D5 D5 D5 D5 D5 D5 D5 D5 D5 D5 D5 D5 D5 D5 D5 D5 D5 D5 D5 D5 D5 D5 D5 D5 D5 D5 D5 D5 D5 D5 D5 D5 D5 D5 D5 D5 D5 D5 D5 D5 D5 D5 D5 D5 D5 D5 D5 D5 D5 D5 D5 D5 D5 D5 D5 D5 D5 D5 D5 D5 D5 D5 D5 D5 D5 D5 D5 D5 D5 D5 D5 D5 D5 D5 D5 D5 D5 D5 D5 D5 D5 D5 D5 D5 D5 D5 D5 D5 D5 D5 D5 D5 H<D5 H<D5 H<D5 H<D5 H<D5 H<D5 H<D5 H<D5 H<D5 H<D5 H<D5 H<D5 H<D5 H<D5 H<D5 H<D5 H<D5 H<D5 H<D5 H<D5 H<D5 H<D5 H<D5 H<D5 H<D5 H<D5 H<D5 H<D5 H<D5 H<D5 H<D5 H<D5 H<D5 H<D5 H<D5 H<D5 H<D5 H<D5 H<D5 H<D5 H<D5 H<D5 H<D5 H<D5 H<D5 H<D5 H<D5 H<D5 H<D5 H<D5 H<D5 H<D5 H<D5 H<D5 H<D5 H<D5 H<D5 H<D5 H<D5 H<D5 H<D5 H<D5 H<D5 H<D5 H<D5 H<D5 H<D5 H<D5 H<D5 H<D5 H<D5 H<D5 H<D5 H<D5 H<D5 H<D5 H<D5 H<D5 H<D5 H<D5 H<D5 H<D H<D H<D H<D H<D H<D H<D H<D D D D D D D D DAD DAD DAD DAD DAD DAD DAD DAD DAD DAD DAD DAD DAD DAD DAD DAD DAD DAD DAD DAD DAD DAD DAD DAD DAD DAD DAD DAD DAD DAD DAD DAD DAD DAD DAD DAD DAD DAD DAD DAD DAD DAD DAD DAD DAD DAD DAD DAD DAD DAD DAD DAD DAD DAD DAD DAD DAD DAD DAD DAD DAD DAD DAD DAD DAD DAD DAD DAD DAD DAD DAD DAD DAD DAD DAD DAD DAD DAD DAD DAD DAD DAD DAD DAD DAD DAD DAD DAD DAD D D D D D D D A<D A<D A<D A<D A<D A<D A<D A<D A<D A<D A<D A<D A<D A<D A<D A<D A<D A<D A<D A<D A<D A<D A<D A<D A<D A<D A<D A<D A<D A<D A<D A<D A<D A<D A<D A<D A<D A<D A<D A<D A<D A<D A<D A<D A<D A<D A<D A<D A<D A<D A<D A<D A<D A<D A<D A<D A<D A<D A<D A<D A<D A<D A<D A<D A<D A<D A<D A<D A<D A<D A<D A<D A<D A<D A<D A<D A<D A<D A<D A<D A<D A<D A<D A<D A<D A<D A<D A<D A<D D D D D D D D =8D =8D =8D =8D =8D =8D =8D =8D =8D =8D =8D =8D =8D =8D =8D =8D =8D =8D =8D =8D =8D =8D =8D =8D =8D =8D =8D =8D =8D =8D =8D =8D =8D =8D =8D =8D =8D =8D =8D =8D =8D =8D =8D =8D =8D =8D =8D =8D =8D =8D =8D =8D =8D =8D =8D =8D =8D =8D =8D =8D =8D =8D =8D =8D =8D =8D =8D =8D =8D =8D =8D =8D =8D =8D =8D =8D =8D =8D =8D =8D =8D =8D =8D =8D =8D =8D =8D =8D =8D D D D D D D D <7D <7D <7D <7D <7D <7D <7D <7D <7D <7D <7D <7D <7D <7D <7D <7D <7D <7D <7D <7D <7D <7D <7D <7D <7D <7D <7D <7D <7D <7D <7D <7D <7D <7D <7D <7D <7D <7D <7D <7D <7D <7D <7D <7D <7D <D <D <D <D5 <D5 <5 <5 <5 <5 <5 <5 <5 <5 <5 <5 <5 <5 <5 <5 <5 <5 <5 <5 <5 <5 <5 <5 <5 <5 <5 <5 <5 <5 <5 <5 <5 <5 <5 <5 <5 <5 <5 <5 <5 5 5 5 5    =D:. =D:. =D:. =D:. =D:. =D:. =D:. =D:. =D:. =D:. =D:. =D:. =D:. =D:. =D:. =D:. =D:. =D:. =D:. =D:. =D:. =D:. =D:. =D:. =D:. =D:. =D:. =D:. =D:. =D:. =D:. =D:. =D:. =D:. =D:. =D:. =D:. =D:. =D:. =D:. =D:. =D:. =D:. =D:. =D:. =D:. =D:. =D:. =D:. =D:. =D:. =D:. =D:. =D:. =D:. =D:. =D:. =D:. =D:. =D:. =D:. =D:. =D:. =D:. =D:. =D:. =D:. =D:. =D:. =D:. =D:. =D:. =D:. =D:. =D:. =D:. =D:. =D:. =D:. =D:. =D:. =D:. =D:. =D:. =D:. =D:. =D:. =D:. =D:. =:. =:. =:. =:. =:. =:. =:. =F:. =F:. =F:. =F:. =F:. =F:. =F:. =F:. =F:. =F:. =F:. =F:. =F:. =F:. =F:. =F:. =F:. =F:. =F:. =F:. =F:. =F:. =F:. =F:. =F:. =F:. =F:. =F:. =F:. =F:. =F:. =F:. =F:. =F:. =F:. =F:. =F:. =F:. =F:. =F:. =F:. =F:. =F:. =F:. =F:. =F:. =F:. =F:. =F:. =F:. =F:. =F:. =F:. =F:. =F:. =F:. =F:. =F:. =F:. =F:. =F:. =F:. =F:. =F:. =F:. =F:. =F:. =F:. =F:. =F:. =F:. =F:. =F:. =F:. =F:. =F:. =F:. =F:. =F:. =F:. =F:. =F: =F: =F: =F: =F: =F: =F: =F: =: =: =: =: =: =: =: =M:1 =M:1 =M:1 =M:1 =M:1 =M:1 =M:1 =M:1 =M:1 =M:1 =M:1 =M:1 =M:1 =M:1 =M:1 =M:1 =M:1 =M:1 =M:1 =M:1 =M:1 =M:1 =M:1 =M:1 =M:1 =M:1 =M:1 =M:1 =M:1 =M:1 =M:1 =M:1 =M:1 =M:1 =M:1 =M:1 =M:1 =M:1 =M:1 =M:1 =M:1 =M:1 =M:1 =M:1 =M:1 =M:1 =M:1 =M:1 =M:1 =M:1 =M:1 =M:1 =M:1 =M:1 =M:1 =M:1 =M:1 =M:1 =M:1 =M:1 =M:1 =M:1 =M:1 =M:1 =M:1 =M:1 =M:1 =M:1 =M:1 =M:1 =M:1 =M:1 =M:1 =M:1 =M:1 =M:1 =M:1 =M:1 =M:1 =M:1 =M:1 =M:1 =M:1 =M:1 =M:1 =M:1 =M:1 =M:1 =M:1 =:1 =:1 =:1 =:1 =:1 =:1 =:1 =F:1 =F:1 =F:1 =F:1 =F:1 =F:1 =F:1 =F:1 =F:1 =F:1 =F:1 =F:1 =F:1 =F:1 =F:1 =F:1 =F:1 =F:1 =F:1 =F:1 =F:1 =F:1 =F:1 =F:1 =F:1 =F:1 =F:1 =F:1 =F:1 =F:1 =F:1 =F:1 =F:1 =F:1 =F:1 =F:1 =F:1 =F:1 =F:1 =F:1 =F:1 =F:1 =F:1 =F:1 =F:1 =F:1 =F:1 =F:1 =F:1 =F:1 =F:1 =F:1 =F:1 =F:1 =F:1 =F:1 =F:1 =F:1 =F:1 =F:1 =F:1 =F:1 =F:1 =F:1 =F:1 =F:1 =F:1 =F:1 =F:1 =F:1 =F:1 =F:1 =F:1 =F:1 =F:1 =F:1 =F:1 =F:1 =F:1 =F:1 =F:1 =F: =F: =F: =F: =F: =F: =F: =F: =: =: =: =: =: =: =: =D:. =D:. =D:. =D:. =D:. =D:. =D:. =D:. =D:. =D:. =D:. =D:. =D:. =D:. =D:. =D:. =D:. =D:. =D:. =D:. =D:. =D:. =D:. =D:. =D:. =D:. =D:. =D:. =D:. =D:. =D:. =D:. =D:. =D:. =D:. =D:. =D:. =D:. =D:. =D:. =D:. =D:. =D:. =D:. =D:. =D:. =D:. =D:. =D:. =D:. =D:. =D:. =D:. =D:. =D:. =D:. =D:. =D:. =D:. =D:. =D:. =D:. =D:. =D:. =D:. =D:. =D:. =D:. =D:. =D:. =D:. =D:. =D:. =D:. =D:. =D:. =D:. =D:. =D:. =D:. =D:. =D:. =D:. =D:. =D:. =D:. =D:. =D:. =D:. =:. =:. =:. =:. =:. =:. =:. =C:. =C:. =C:. =C:. =C:. =C:. =C:. =C:. =C:. =C:. =C:. =C:. =C:. =C:. =C:. =C:. =C:. =C:. =C:. =C:. =C:. =C:. =C:. =C:. =C:. =C:. =C:. =C:. =C:. =C:. =C:. =C:. =C:. =C:. =C:. =C:. =C:. =C:. =C:. =C:. =C:. =C:. =C:. =C:. =C:. =:. =:. =:. =AA:. =AA:. =AA:. =AA:. =AA:. =AA:. =AA:. =AA:. =AA:. =AA:. =AA:. =AA:. =AA:. =AA:. =AA:. =AA:. =AA:. =AA:. =AA:. =AA:. =AA:. =AA:. =AA:. =AA:. =AA:. =AA:. =AA:. =AA:. =AA:. =AA:. =AA:. =AA:. =AA:. =AA: =AA: =AA: =AA: =AA: =AA: =AA: =AA: =AA: =AA: =AA: =AA: =A: =A: =A: =:C3 =:C3 =:C3 =:C3 =:C3 =:C3 =:C3 =:C3 =:C3 =:C3 =:C3 =:C3 =:C3 =:C3 =:C3 =:C3 =:C3 =:C3 =:C3 =:C3 =:C3 =:C3 =:C3 =:C3 =:C3 =:C3 =:C3 =:C3 =:C3 =:C3 =:C3 =:C3 =:C3 =:C3 =:C3 =:C3 =:C3 =:C3 =:C3 =:C3 =:C3 =:C3 =:C3 =:C3 =:C3 =:C3 =:C3 =:C3 =:C3 =:C3 =:C3 =:C3 =:C3 =:C3 =:C3 =:C3 =:C3 =:C3 =:C3 =:C3 =:C3 =:C3 =:C3 =:C3 =:C3 =:C3 =:C3 =:C3 =:C3 =:C3 =:C3 =:C3 =:C3 =:C3 =:C3 =:C3 =:C3 =:C3 =:C3 =:C3 =:C3 =:C3 =:C3 =:C3 =:C3 =:C3 =:C3 =:C3 =:C3 C3 C3 C3 C3 C3 C3 C3 F:C3 F:C3 F:C3 F:C3 F:C3 F:C3 F:C3 F:C3 F:C3 F:C3 F:C3 F:C3 F:C3 F:C3 F:C3 F:C3 F:C3 F:C3 F:C3 F:C3 F:C3 F:C3 F:C3 F:C3 F:C3 F:C3 F:C3 F:C3 F:C3 F:C3 F:C3 F:C3 F:C3 F:C3 F:C3 F:C3 F:C3 F:C3 F:C3 F:C3 F:C3 F:C3 F:C3 F:C3 F:C3 F:C3 F:C3 F:C3 F:C3 F:C3 F:C3 F:C3 F:C3 F:C3 F:C3 F:C3 F:C3 F:C3 F:C3 F:C3 F:C3 F:C3 F:C3 F:C3 F:C3 F:C3 F:C3 F:C3 F:C3 F:C3 F:C3 F:C3 F:C3 F:C3 F:C3 F:C3 F:C3 F:C3 F:C3 F:C3 F:C3 F:C F:C F:C F:C F:C F:C F:C F:C C C C C C C C C??C C??C C??C C??C C??C C??C C??C C??C C??C C??C C??C C??C C??C C??C C??C C??C C??C C??C C??C C??C C??C C??C C??C C??C C??C C??C C??C C??C C??C C??C C??C C??C C??C C??C C??C C??C C??C C??C C??C C??C C??C C??C C??C C??C C??C C??C C??C C??C C??C C??C C??C C??C C??C C??C C??C C??C C??C C??C C??C C??C C??C C??C C??C C??C C??C C??C C??C C??C C??C C??C C??C C??C C??C C??C C??C C??C C??C C??C C??C C??C C??C C??C C??C C??C C??C C??C C??C C??C C??C ?C ?C ?C ?C ?C ?C ?C ?:?C ?:?C ?:?C ?:?C ?:?C ?:?C ?:?C ?:?C ?:?C ?:?C ?:?C ?:?C ?:?C ?:?C ?:?C ?:?C ?:?C ?:?C ?:?C ?:?C ?:?C ?:?C ?:?C ?:?C ?:?C ?:?C ?:?C ?:?C ?:?C ?:?C ?:?C ?:?C ?:?C ?:?C ?:?C ?:?C ?:?C ?:?C ?:?C ?:?C ?:?C ?:?C ?:?C ?:?C ?:?C ?:?C ?:?C ?:?C ?:?C ?:?C ?:?C ?:?C ?:?C ?:?C ?:?C ?:?C ?:?C ?:?C ?:?C ?:?C ?:?C ?:?C ?:?C ?:?C ?:?C ?:?C ?:?C ?:?C ?:?C ?:?C ?:?C ?:?C ?:?C ?:?C ?:?C ?:?C ?:?C ?:?C ?:?C ?:?C ?:?C ?:?C ?:?C ?:?C ?:?C ?:?C ?:?C ?:?C ?:?C ?C ?C ?C ?C ?C ?C ?C <7?C <7?C <7?C <7?C <7?C <7?C <7?C <7?C <7?C <7?C <7?C <7?C <7?C <7?C <7?C <7?C <7?C <7?C <7?C <7?C <7?C <7?C <7?C <7?C <7?C <7?C <7?C <7?C <7?C <7?C <7?C <7?C <7?C <7?C <7?C <7?C <7?C <7?C <7?C <7?C <7?C <7?C <7?C <7?C <7?C <7?C <7?C <7?C <7?C <7?C <7?C <7?C <7?C <7?C <7?C <7?C <7?C <7?C <7?C <7?C <7?C <7?C <7?C <7?C <7?C <7?C <7?C <7?C <7?C <7?C <7?C <7?C <7?C <7?C <7?C <7?C <7?C <7?C <7?C <7?C <7?C <7?C <7?C <7?C <7?C <7?C <7?C <7?C <7?C ?C ?C ?C ?C ?C ?C ?C :5?C :5?C :5?C :5?C :5?C :5?C :5?C :5?C :5?C :5?C :5?C :5?C :5?C :5?C :5?C :5?C :5?C :5?C :5?C :5?C :5?C :5?C :5?C :5?C :5?C :5?C :5?C :5?C :5?C :5?C :5?C :5?C :5?C :5?C :5?C :5?C :5?C :5?C :5?C :5?C :5?C :5?C :5?C :5?C :5?C :?C :?C :?C :3?C :3?C :3?C :3?C :3?C :3?C :3?C :3?C :3?C :3?C :3?C :3?C :3?C :3?C :3?C :3?C :3?C :3?C :3?C :3?C :3?C :3?C :3?C :3?C :3?C :3?C :3?C :3?C :3?C :3?C :3?C :3?C :3?C :3?C :3?C :3?C :3?C :3?C :3?C :3?C :3?C 3?C 3?C 3?C 3?C ?C ?C ?C <C8, <C8, <C8, <C8, <C8, <C8, <C8, <C8, <C8, <C8, <C8, <C8, <C8, <C8, <C8, <C8, <C8, <C8, <C8, <C8, <C8, <C8, <C8, <C8, <C8, <C8, <C8, <C8, <C8, <C8, <C8, <C8, <C8, <C8, <C8, <C8, <C8, <C8, <C8, <C8, <C8, <C8, <C8, <C8, <C8, <C8, <C8, <C8, <C8, <C8, <C8, <C8, <C8, <C8, <C8, <C8, <C8, <C8, <C8, <C8, <C8, <C8, <C8, <C8, <C8, <C8, <C8, <C8, <C8, <C8, <C8, <C8, <C8, <C8, <C8, <C8, <C8, <C8, <C8, <C8, <C8, <C8, <C8, <C8, <C8, <C8, <C8, <C8, <C8, <8, <8, <8, <8, <8, <8, <8, <D8, <D8, <D8, <D8, <D8, <D8, <D8, <D8, <D8, <D8, <D8, <D8, <D8, <D8, <D8, <D8, <D8, <D8, <D8, <D8, <D8, <D8, <D8, <D8, <D8, <D8, <D8, <D8, <D8, <D8, <D8, <D8, <D8, <D8, <D8, <D8, <D8, <D8, <D8, <D8, <D8, <D8, <D8, <D8, <D8, <D8, <D8, <D8, <D8, <D8, <D8, <D8, <D8, <D8, <D8, <D8, <D8, <D8, <D8, <D8, <D8, <D8, <D8, <D8, <D8, <D8, <D8, <D8, <D8, <D8, <D8, <D8, <D8, <D8, <D8, <D8, <D8, <D8, <D8, <D8, <D8, D8 D8 D8 D8 D8 D8 D8 D8 8 8 8 8 8 8 8 =K8. =K8. =K8. =K8. =K8. =K8. =K8. =K8. =K8. =K8. =K8. =K8. =K8. =K8. =K8. =K8. =K8. =K8. =K8. =K8. =K8. =K8. =K8. =K8. =K8. =K8. =K8. =K8. =K8. =K8. =K8. =K8. =K8. =K8. =K8. =K8. =K8. =K8. =K8. =K8. =K8. =K8. =K8. =K8. =K8. =K8. =K8. =K8. =K8. =K8. =K8. =K8. =K8. =K8. =K8. =K8. =K8. =K8. =K8. =K8. =K8. =K8. =K8. =K8. =K8. =K8. =K8. =K8. =K8. =K8. =K8. =K8. =K8. =K8. =K8. =K8. =K8. =K8. =K8. =K8. =K8. =K8. =K8. =K8. =K8. =K8. =K8. =K8. =K8. =8. =8. =8. =8. =8. =8. =8. =D8. =D8. =D8. =D8. =D8. =D8. =D8. =D8. =D8. =D8. =D8. =D8. =D8. =D8. =D8. =D8. =D8. =D8. =D8. =D8. =D8. =D8. =D8. =D8. =D8. =D8. =D8. =D8. =D8. =D8. =D8. =D8. =D8. =D8. =D8. =D8. =D8. =D8. =D8. =D8. =D8. =D8. =D8. =D8. =D8. =D8. =D8. =D8. =D8. =D8. =D8. =D8. =D8. =D8. =D8. =D8. =D8. =D8. =D8. =D8. =D8. =D8. =D8. =D8. =D8. =D8. =D8. =D8. =D8. =D8. =D8. =D8. =D8. =D8. =D8. =D8. =D8. =D8. =D8. =D8. =D8. D8 D8 D8 D8 D8 D8 D8 D8 8 8 8 8 8 8 8 ?B80 ?B80 ?B80 ?B80 ?B80 ?B80 ?B80 ?B80 ?B80 ?B80 ?B80 ?B80 ?B80 ?B80 ?B80 ?B80 ?B80 ?B80 ?B80 ?B80 ?B80 ?B80 ?B80 ?B80 ?B80 ?B80 ?B80 ?B80 ?B80 ?B80 ?B80 ?B80 ?B80 ?B80 ?B80 ?B80 ?B80 ?B80 ?B80 ?B80 ?B80 ?B80 ?B80 ?B80 ?B80 ?B80 ?B80 ?B80 ?B80 ?B80 ?B80 ?B80 ?B80 ?B80 ?B80 ?B80 ?B80 ?B80 ?B80 ?B80 ?B80 ?B80 ?B80 ?B80 ?B80 ?B80 ?B80 ?B80 ?B80 ?B80 ?B80 ?B80 ?B80 ?B80 ?B80 ?B80 ?B80 ?B80 ?B80 ?B80 ?B80 ?B80 ?B80 ?B80 ?B80 ?B80 ?B80 ?B80 ?B80 ?80 ?80 ?80 ?80 ?80 ?80 ?80 ?A80 ?A80 ?A80 ?A80 ?A80 ?A80 ?A80 ?A80 ?A80 ?A80 ?A80 ?A80 ?A80 ?A80 ?A80 ?A80 ?A80 ?A80 ?A80 ?A80 ?A80 ?A80 ?A80 ?A80 ?A80 ?A80 ?A80 ?A80 ?A80 ?A80 ?A80 ?A80 ?A80 ?A80 ?A80 ?A80 ?A80 ?A80 ?A80 ?A80 ?A80 ?A80 ?A80 ?A80 ?A80 ?80 ?80 ?80 ??80 ??80 ??80 ??80 ??80 ??80 ??80 ??80 ??80 ??80 ??80 ??80 ??80 ??80 ??80 ??80 ??80 ??80 ??80 ??80 ??80 ??80 ??80 ??80 ??80 ??80 ??80 ??80 ??80 ??80 ??80 ??80 ??80 ??8 ??8 ??8 ??8 ??8 ??8 ??8 ??8 ??8 ??8 ??8 ??8 ?8 ?8 ?8 ?8A1 ?8A1 ?8A1 ?8A1 ?8A1 ?8A1 ?8A1 ?8A1 ?8A1 ?8A1 ?8A1 ?8A1 ?8A1 ?8A1 ?8A1 ?8A1 ?8A1 ?8A1 ?8A1 ?8A1 ?8A1 ?8A1 ?8A1 ?8A1 ?8A1 ?8A1 ?8A1 ?8A1 ?8A1 ?8A1 ?8A1 ?8A1 ?8A1 ?8A1 ?8A1 ?8A1 ?8A1 ?8A1 ?8A1 ?8A1 ?8A1 ?8A1 ?8A1 ?8A1 ?8A1 ?8A1 ?8A1 ?8A1 ?8A1 ?8A1 ?8A1 ?8A1 ?8A1 ?8A1 ?8A1 ?8A1 ?8A1 ?8A1 ?8A1 ?8A1 ?8A1 ?8A1 ?8A1 ?8A1 ?8A1 ?8A1 ?8A1 ?8A1 ?8A1 ?8A1 ?8A1 ?8A1 ?8A1 ?8A1 ?8A1 ?8A1 ?8A1 ?8A1 ?8A1 ?8A1 ?8A1 ?8A1 ?8A1 ?8A1 ?8A1 ?8A1 ?8A1 ?8A1 ?8A1 ?A ?A ?A ?A ?A ?A ?A ?A8 ?A8 ?A8 ?A8 ?A8 ?A8 ?A8 ?A8 ?A8 ?A8 ?A8 ?A8 ?A8 ?A8 ?A8 ?A8 ?A8 ?A8 ?A8 ?A8 ?A8 ?A8 ?A8 ?A8 ?A8 ?A8 ?A8 ?A8 ?A8 ?A8 ?A8 ?A8 ?A8 ?A8 ?A8 ?A8 ?A8 ?A8 ?A8 ?A8 ?A8 ?A8 ?A8 ?A8 ?A8 ?A8 ?A8 ?A8 ?A8 ?A8 ?A8 ?A8 ?A8 ?A8 ?A8 ?A8 ?A8 ?A8 ?A8 ?A8 ?A8 ?A8 ?A8 ?A8 ?A8 ?A8 ?A8 ?A8 ?A8 ?A8 ?A8 ?A8 ?A8 ?A8 ?A8 ?A8 ?A8 ?A8 ?A8 ?A8 ?A8 8 8 8 8 8 8 8 8        8= 8= 8= 8= 8= 8= 8= 8= 8= 8= 8= 8= 8= 8= 8= 8= 8= 8= 8= 8= 8= 8= 8= 8= 8= 8= 8= 8= 8= 8= 8= 8= 8= 8= 8= 8= 8= 8= 8= 8= 8= 8= 8= 8= 8= 8= 8= 8= 8= 8= 8= 8= 8= 8= 8= 8= 8= 8= 8= 8= 8= 8= 8= 8= 8= 8= 8= 8= 8= 8= 8= 8= 8= 8= 8= 8= 8= 8= 8= 8= 8= 8= 8= 8= 8= 8= 8= 8= 8= 8 8 8 8 8 8 8 8A8 8A8 8A8 8A8 8A8 8A8 8A8 8A8 8A8 8A8 8A8 8A8 8A8 8A8 8A8 8A8 8A8 8A8 8A8 8A8 8A8 8A8 8A8 8A8 8A8 8A8 8A8 8A8 8A8 8A8 8A8 8A8 8A8 8A8 8A8 8A8 8A8 8A8 8A8 8A8 8A8 8A8 8A8 8A8 8A8 8A8 8A8 8A8 8A8 8A8 8A8 8A8 8A8 8A8 8A8 8A8 8A8 8A8 8A8 8A8 8A8 8A8 8A8 8A8 8A8 8A8 8A8 8A8 8A8 8A8 8A8 8A8 8A8 8A8 8A8 8A8 8A8 8A8 8A8 8A8 8A8 A8 A8 A8 A8 A8 A8 A8 A8 A A A A A A A =DA5 =DA5 =DA5 =DA5 =DA5 =DA5 =DA5 =DA5 =DA5 =DA5 =DA5 =DA5 =DA5 =DA5 =DA5 =DA5 =DA5 =DA5 =DA5 =DA5 =DA5 =DA5 =DA5 =DA5 =DA5 =DA5 =DA5 =DA5 =DA5 =DA5 =DA5 =DA5 =DA5 =DA5 =DA5 =DA5 =DA5 =DA5 =DA5 =DA5 =DA5 =DA5 =DA5 =DA5 =DA5 =DA5 =DA5 =DA5 =DA5 =DA5 =DA5 =DA5 =DA5 =DA5 =DA5 =DA5 =DA5 =DA5 =DA5 =DA5 =DA5 =DA5 =DA5 =DA5 =DA5 =DA5 =DA5 =DA5 =DA5 =DA5 =DA5 =DA5 =DA5 =DA5 =DA5 =DA5 =DA5 =DA5 =DA5 =DA5 =DA5 =DA5 =DA5 =DA5 =DA5 =DA5 =DA5 =DA5 =DA5 =A =A =A =A =A =A =A =IA3 =IA3 =IA3 =IA3 =IA3 =IA3 =IA3 =IA3 =IA3 =IA3 =IA3 =IA3 =IA3 =IA3 =IA3 =IA3 =IA3 =IA3 =IA3 =IA3 =IA3 =IA3 =IA3 =IA3 =IA3 =IA3 =IA3 =IA3 =IA3 =IA3 =IA3 =IA3 =IA3 =IA3 =IA3 =IA3 =IA3 =IA3 =IA3 =IA3 =IA3 =IA3 =IA3 =IA3 =IA3 =IA =IA =IA =IA1 =IA1 =IA1 =IA1 =IA1 =IA1 =IA1 =IA1 =IA1 =IA1 =IA1 =IA1 =IA1 =IA1 =IA1 =IA1 =IA1 =IA1 =IA1 =IA1 =IA1 =IA1 =IA1 =IA1 =IA1 =IA1 =IA1 =IA1 =IA1 =IA1 =IA1 =IA1 =IA1 =IA1 =IA1 =IA1 =IA1 =IA1 =IA1 =IA1 =IA1 =A1 =A1 =A1 =A1 =A =A =A =AF7 =AF7 =AF7 =AF7 =AF7 =AF7 =AF7 =AF7 =AF7 =AF7 =AF7 =AF7 =AF7 =AF7 =AF7 =AF7 =AF7 =AF7 =AF7 =AF7 =AF7 =AF7 =AF7 =AF7 =AF7 =AF7 =AF7 =AF7 =AF7 =AF7 =AF7 =AF7 =AF7 =AF7 =AF7 =AF7 =AF7 =AF7 =AF7 =AF7 =AF7 =AF7 =AF7 =AF7 =AF7 =AF7 =AF7 =AF7 =AF7 =AF7 =AF7 =AF7 =AF7 =AF7 =AF7 =AF7 =AF7 =AF7 =AF7 =AF7 =AF7 =AF7 =AF7 =AF7 =AF7 =AF7 =AF7 =AF7 =AF7 =AF7 =AF7 =AF7 =AF7 =AF7 =AF7 =AF7 =AF7 =AF7 =AF7 =AF7 =AF7 =AF7 =AF7 =AF7 =AF7 =AF7 =AF7 =AF7 =AF7 =F =F =F =F =F =F =F =CF3 =CF3 =CF3 =CF3 =CF3 =CF3 =CF3 =CF3 =CF3 =CF3 =CF3 =CF3 =CF3 =CF3 =CF3 =CF3 =CF3 =CF3 =CF3 =CF3 =CF3 =CF3 =CF3 =CF3 =CF3 =CF3 =CF3 =CF3 =CF3 =CF3 =CF3 =CF3 =CF3 =CF3 =CF3 =CF3 =CF3 CF3 CF3 CF3 CF3 CF3 CF3 CF3 CF3 CF3 CF3 CF3 ?CF3 ?CF3 ?CF3 ?CF3 ?CF3 ?CF3 ?CF3 ?CF3 ?CF3 ?CF3 ?CF3 ?CF3 ?CF3 ?CF3 ?CF3 ?CF3 ?CF3 ?CF3 ?CF3 ?CF3 ?CF3 ?CF3 ?CF3 ?CF3 ?CF3 ?CF3 ?CF3 ?CF3 ?CF3 ?CF3 ?CF3 ?CF3 ?CF3 ?CF3 ?CF3 ?CF3 ?CF3 ?CF3 ?CF3 ?CF3 ?CF3 ?F ?F ?F ?F F F F <F?8 <F?8 <F?8 <F?8 <F?8 <F?8 <F?8 <F?8 <F?8 <F?8 <F?8 <F?8 <F?8 <F?8 <F?8 <F?8 <F?8 <F?8 <F?8 <F?8 <F?8 <F?8 <F?8 <F?8 <F?8 <F?8 <F?8 <F?8 <F?8 <F?8 <F?8 <F?8 <F?8 <F?8 <F?8 <F?8 <F?8 <F?8 <F?8 <F?8 <F?8 <F?8 <F?8 <F?8 <F?8 <F?8 <F?8 <F?8 <F?8 <F?8 <F?8 <F?8 <F?8 <F?8 <F?8 <F?8 <F?8 <F?8 <F?8 <F?8 <F?8 <F?8 <F?8 <F?8 <F?8 <F?8 <F?8 <F?8 <F?8 <F?8 <F?8 <F?8 <F?8 <F?8 <F?8 <F?8 <F?8 <F?8 <F?8 <F?8 <F?8 <F?8 <F?8 <F?8 <F?8 <F?8 <F?8 <F?8 <F?8 <? <? <? <? <? <? <? <C?3 <C?3 <C?3 <C?3 <C?3 <C?3 <C?3 <C?3 <C?3 <C?3 <C?3 <C?3 <C?3 <C?3 <C?3 <C?3 <C?3 <C?3 <C?3 <C?3 <C?3 <C?3 <C?3 <C?3 <C?3 <C?3 <C?3 <C?3 <C?3 <C?3 <C?3 <C?3 <C?3 <C?3 <C?3 <C?3 <C?3 <C?3 <C?3 <C?3 <C?3 <C?3 <C?3 <C?3 <C?3 <C?3 <C?3 <C?3 <C?3 <C?3 <C?3 <C?3 <C?3 <C?3 <C?3 <C?3 <C?3 <C?3 <C?3 <C?3 <C?3 <C?3 <C?3 <C?3 <C?3 <C?3 <C?3 <C?3 <C?3 <C?3 <C?3 <C?3 <C?3 <C?3 <C?3 <C?3 <C?3 <C?3 <C?3 <C?3 <C?3 <C?3 <C?3 <C?3 <C?3 <C?3 <C?3 <C?3 <C?3 <? <? <? <? <? <? <? <?D0 <?D0 <?D0 <?D0 <?D0 <?D0 <?D0 <?D0 <?D0 <?D0 <?D0 <?D0 <?D0 <?D0 <?D0 <?D0 <?D0 <?D0 <?D0 <?D0 <?D0 <?D0 <?D0 <?D0 <?D0 <?D0 <?D0 <?D0 <?D0 <?D0 <?D0 <?D0 <?D0 <?D0 <?D0 <?D0 <?D0 <?D0 <?D0 <?D0 <?D0 <?D0 <?D0 <?D0 <?D0 ?D0 ?D0 ?D0 8?D0 8?D0 8?D0 8?D0 8?D0 8?D0 8?D0 8?D0 8?D0 8?D0 8?D0 8?D0 8?D0 8?D0 8?D0 8?D0 8?D0 8?D0 8?D0 8?D0 8?D0 8?D0 8?D0 8?D0 8?D0 8D0 8D0 8D0 8D0 8D0 8D0 8D0 8D0 8D0 8D0 8D0 8D0 8D0 8D0 8D0 8D0 8 8 8 8    7JA. 7JA. 7JA. 7JA. 7JA. 7JA. 7JA. 7JA. 7JA. 7JA. 7JA. 7JA. 7JA. 7JA. 7JA. 7JA. 7JA. 7JA. 7JA. 7JA. 7JA. 7JA. 7JA. 7JA. 7JA. 7JA. 7JA. 7JA. 7JA. 7JA. 7JA. 7JA. 7JA. 7JA. 7JA. 7JA. 7JA. 7JA. 7JA. 7JA. 7JA. 7JA. 7JA. 7JA. 7JA. JA JA JA 8JA, 8JA, 8JA, 8JA, 8JA, 8JA, 8JA, 8JA, 8JA, 8JA, 8JA, 8JA, 8JA, 8JA, 8JA, 8JA, 8JA, 8JA, 8JA, 8JA, 8JA, 8JA, 8JA, 8JA, 8JA, 8JA, 8JA, 8JA, 8JA, 8JA, 8JA, 8JA, 8JA, 8JA, 8JA, 8JA, 8JA, 8JA, 8JA, 8JA, 8JA, 8, 8, 8, 8,    :KC3 :KC3 :KC3 :KC3 :KC3 :KC3 :KC3 :KC3 :KC3 :KC3 :KC3 :KC3 :KC3 :KC3 :KC3 :KC3 :KC3 :KC3 :KC3 :KC3 :KC3 :KC3 :KC3 :KC3 :KC3 :KC3 :KC3 :KC3 :KC3 :KC3 :KC3 :KC3 :KC3 :KC3 :KC3 :KC3 :KC3 :KC3 :KC3 :KC3 :KC3 :KC3 :KC3 :KC3 :KC3 :KC3 :KC3 :KC3 :KC3 :KC3 :KC3 :KC3 :KC3 :KC3 :KC3 :KC3 :KC3 :KC3 :KC3 :KC3 :KC3 :KC3 :KC3 :KC3 :KC3 :KC3 :KC3 :KC3 :KC3 :KC3 :KC3 :KC3 :KC3 :KC3 :KC3 :KC3 :KC3 :KC3 :KC3 :KC3 :KC3 :KC3 :KC3 :KC3 :KC3 :KC3 :KC3 :KC3 :KC3 :C3 :C3 :C3 :C3 :C3 :C3 :C3 :CK3 :CK3 :CK3 :CK3 :CK3 :CK3 :CK3 :CK3 :CK3 :CK3 :CK3 :CK3 :CK3 :CK3 :CK3 :CK3 :CK3 :CK3 :CK3 :CK3 :CK3 :CK3 :CK3 :CK3 :CK3 :CK3 :CK3 :CK3 :CK3 :CK3 :CK3 :CK3 :CK3 :CK3 :CK3 :CK3 :CK3 :CK3 :CK3 :CK3 :CK3 :CK3 :CK3 :CK3 :CK3 :CK3 :CK3 :CK3 :CK3 :CK3 :CK3 :CK3 :CK3 :CK3 :CK3 :CK3 :CK3 :CK3 :CK3 :CK3 :CK3 :CK3 :CK3 :CK3 :CK3 :CK3 :CK3 :CK3 :CK3 :CK3 :CK3 :CK3 :CK3 :CK3 :CK3 :CK3 :CK3 :CK3 :CK3 :CK3 :CK3 :K :K :K :K :K :K :K :K : : : : : : : :R7 :R7 :R7 :R7 :R7 :R7 :R7 :R7 :R7 :R7 :R7 :R7 :R7 :R7 :R7 :R7 :R7 :R7 :R7 :R7 :R7 :R7 :R7 :R7 :R7 :R7 :R7 :R7 :R7 :R7 :R7 :R7 :R7 :R7 :R7 :R7 :R7 :R7 :R7 :R7 :R7 :R7 :R7 :R7 :R7 :R7 :R7 :R7 :R7 :R7 :R7 :R7 :R7 :R7 :R7 :R7 :R7 :R7 :R7 :R7 :R7 :R7 :R7 :R7 :R7 :R7 :R7 :R7 :R7 :R7 :R7 :R7 :R7 :R7 :R7 :R7 :R7 :R7 :R7 :R7 :R7 :R7 :R7 :R7 :R7 :R7 :R7 :R7 :R7 :7 :7 :7 :7 :7 :7 :7 :K7 :K7 :K7 :K7 :K7 :K7 :K7 :K7 :K7 :K7 :K7 :K7 :K7 :K7 :K7 :K7 :K7 :K7 :K7 :K7 :K7 :K7 :K7 :K7 :K7 :K7 :K7 :K7 :K7 :K7 :K7 :K7 :K7 :K7 :K7 :K7 :K7 :K7 :K7 :K7 :K7 :K7 :K7 :K7 :K7 :K7 :K7 :K7 :K7 :K7 :K7 :K7 :K7 :K7 :K7 :K7 :K7 :K7 :K7 :K7 :K7 :K7 :K7 :K7 :K7 :K7 K7 K7 K7 K7 K7 K7 K7 K7 K7 K7 K7 K7 K7 K7 K7 K K K K K K K K        I3 I3 I3 I3 I3 I3 I3 I3 I3 I3 I3 I3 I3 I3 I3 I3 I3 I3 I3 I3 I3 I3 I3 I3 I3 I3 I3 I3 I3 I3 I3 I3 I3 I3 I3 I3 I3 I3 I3 I3 I3 I3 I3 I3 I3 I3 I3 I3 I3 I3 I3 I3 I3 I3 I3 I3 I3 I3 I3 I3 I3 I3 I3 I3 I3 I3 I3 I3 I3 I3 I3 I3 I3 I3 I3 I3 I3 I3 I3 I3 I3 I3 I3 I3 I3 I3 I3 I3 I3 3 3 3 3 3 3 3 H3 H3 H3 H3 H3 H3 H3 H3 H3 H3 H3 H3 H3 H3 H3 H3 H3 H3 H3 H3 H3 H3 H3 H3 H3 H3 H3 H3 H3 H3 H3 H3 H3 H3 H3 H3 H3 H3 H3 H3 H3 H3 H3 H3 H3 3 3 3 F3 F3 F3 F3 F3 F3 F3 F3 F3 F3 F3 F3 F3 F3 F3 F3 F3 F3 F3 F3 F3 F3 F3 F3 F3 F3 F3 F3 F3 F3 F3 F3 F3 F F F F F F F F F F F F    H8 H8 H8 H8 H8 H8 H8 H8 H8 H8 H8 H8 H8 H8 H8 H8 H8 H8 H8 H8 H8 H8 H8 H8 H8 H8 H8 H8 H8 H8 H8 H8 H8 H8 H8 H8 H8 H8 H8 H8 H8 H8 H8 H8 H8 H8 H8 H8 H8 H8 H8 H8 H8 H8 H8 H8 H8 H8 H8 H8 H8 H8 H8 H8 H8 H8 H8 H8 H8 H8 H8 H8 H8 H8 H8 H8 H8 H8 H8 H8 H8 H8 H8 H8 H8 H8 H8 H8 H8 H8 H8 H8 H8 H8 H8 H8 ?H8 ?H8 ?H8 ?H8 ?H8 ?H8 ?H8 ?H8 ?H8 ?H8 ?H8 ?H8 ?H8 ?H8 ?H8 ?H8 ?H8 ?H8 ?H8 ?H8 ?H8 ?H8 ?H8 ?H8 ?H8 ?H8 ?H8 ?H8 ?H8 ?H8 ?H8 ?H8 ?H8 ?H8 ?H8 ?H8 ?H8 ?H8 ?H8 ?H8 ?H8 ?H8 ?H8 ?H8 ?H8 ?H8 ?H8 ?H8 ?H8 ?H8 ?H8 ?H8 ?H8 ?H8 ?H8 ?H8 ?H8 ?H8 ?H8 ?H8 ?H8 ?H8 ?H8 ?H8 ?H8 ?H8 ?H8 ?H8 ?H8 ?H8 ?H8 ?H8 ?H8 ?H8 ?H8 ?H8 ?H8 ?H8 ?H8 ?H8 ?H8 ?H ?H ?H ?H ?H ?H ?H ?H H H H H H H H ?DH< ?DH< ?DH< ?DH< ?DH< ?DH< ?DH< ?DH< ?DH< ?DH< ?DH< ?DH< ?DH< ?DH< ?DH< ?DH< ?DH< ?DH< ?DH< ?DH< ?DH< ?DH< ?DH< ?DH< ?DH< ?DH< ?DH< ?DH< ?DH< ?DH< ?DH< ?DH< ?DH< ?DH< ?DH< ?DH< ?DH< ?DH< ?DH< ?DH< ?DH< ?DH< ?DH< ?DH< ?DH< ?DH< ?DH< ?DH< ?DH< ?DH< ?DH< ?DH< ?DH< ?DH< ?DH< ?DH< ?DH< ?DH< ?DH< ?DH< ?DH< ?DH< ?DH< ?DH< ?DH< ?DH< ?DH< ?DH< ?DH< ?DH< ?DH< ?DH< ?DH< ?DH< ?DH< ?DH< ?DH< ?DH< ?DH< ?DH< ?DH< ?DH< ?DH< ?DH< ?DH< ?DH< ?DH< ?DH< ?DH< ?H< ?H< ?H< ?H< ?H< ?H< ?H< ??H< ??H< ??H< ??H< ??H< ??H< ??H< ??H< ??H< ??H< ??H< ??H< ??H< ??H< ??H< ??H< ??H< ??H< ??H< ??H< ??H< ??H< ??H< ??H< ??H< ??H< ??H< ??H< ??H< ??H< ??H< ??H< ??H< ??H< ??H< ??H< ??H< ??H< ??H< ??H< ??H< ??H< ??H< ??H< ??H< ??H< ??H< ??H< ??H< ??H< ??H< ??H< ??H< ??H< ??H< ??H< ??H< ??H< ??H< ??H< ??H< ??H< ??H< ??H< ??H< ??H< ??H< ??H< ??H< ??H< ??H< ??H< ??H< ??H< ??H< ??H< ??H< ??H< ??H< ??H< ??H< ?H ?H ?H ?H ?H ?H ?H ?H H H H H H H H A<H8 A<H8 A<H8 A<H8 A<H8 A<H8 A<H8 A<H8 A<H8 A<H8 A<H8 A<H8 A<H8 A<H8 A<H8 A<H8 A<H8 A<H8 A<H8 A<H8 A<H8 A<H8 A<H8 A<H8 A<H8 A<H8 A<H8 A<H8 A<H8 A<H8 A<H8 A<H8 A<H8 A<H8 A<H8 A<H8 A<H8 A<H8 A<H8 A<H8 A<H8 A<H8 A<H8 A<H8 A<H8 A<H8 A<H8 A<H8 A<H8 A<H8 A<H8 A<H8 A<H8 A<H8 A<H8 A<H8 A<H8 A<H8 A<H8 A<H8 A<H8 A<H8 A<H8 A<H8 A<H8 A<H8 A<H8 A<H8 A<H8 A<H8 A<H8 A<H8 A<H8 A<H8 A<H8 A<H8 A<H8 A<H8 A<H8 A<H8 A<H8 A<H8 A<H8 A<H8 A<H8 A<H8 A<H8 A<H8 A<H8 H8 H8 H8 H8 H8 H8 H8 B:H8 B:H8 B:H8 B:H8 B:H8 B:H8 B:H8 B:H8 B:H8 B:H8 B:H8 B:H8 B:H8 B:H8 B:H8 B:H8 B:H8 B:H8 B:H8 B:H8 B:H8 B:H8 B:H8 B:H8 B:H8 B:H8 B:H8 B:H8 B:H8 B:H8 B:H8 B:H8 B:H8 B:H8 B:H8 B:H8 B:H8 B:H8 B:H8 B:H8 B:H8 B:H8 B:H8 B:H8 B:H8 BH8 BH8 BH8 B8H8 B8H8 B8H8 B8H8 B8H8 B8H8 B8H8 B8H8 B8H8 B8H8 B8H8 B8H8 B8H8 B8H8 B8H8 B8H8 B8H8 B8H8 B8H8 B8H8 B8H8 B8H8 B8H8 B8H8 B8H8 B8H8 B8H8 B8H8 B8H8 B8H8 B8H8 B8H8 B8H8 B8H B8H B8H B8H B8H B8H B8H B8H 8H 8H 8H 8H H H H AH1 AH1 AH1 AH1 AH1 AH1 AH1 AH1 AH1 AH1 AH1 AH1 AH1 AH1 AH1 AH1 AH1 AH1 AH1 AH1 AH1 AH1 AH1 AH1 AH1 AH1 AH1 AH1 AH1 AH1 AH1 AH1 AH1 AH1 AH1 AH1 AH1 AH1 AH1 AH1 AH1 AH1 AH1 AH1 AH1 A1 A1 A1 A?1 A?1 A?1 A?1 A?1 A?1 A?1 A?1 A?1 A?1 A?1 A?1 A?1 A?1 A?1 A?1 A?1 A?1 A?1 A?1 A?1 A?1 A?1 A?1 A?1 A?1 A?1 A?1 A?1 A?1 A?1 A?1 A?1 A?1 A?1 A?1 A?1 A?1 A?1 A?1 A?1 A?1 A?1 A?1 A?1 A1 A1 A1 A=1 A=1 A=1 A=1 A=1 A=1 A=1 A=1 A=1 A=1 A=1 A=1 A=1 A=1 A=1 A=1 A=1 A=1 A=1 A=1 A=1 A=1 A=1 A=1 A=1 A=1 A=1 A=1 A=1 A=1 A=1 A=1 A=1 A=1 A=1 A=1 A=1 A=1 A=1 A=1 A=1 A=1 A=1 A=1 A=1 A1 A1 A1 A<1 A<1 A<1 A<1 A<1 A<1 A<1 A<1 A<1 A<1 A<1 A<1 A<1 A<1 A<1 A<1 A<1 A<1 A<1 A<1 A<1 A<1 A<1 A<1 A<1 A<1 A<1 A<1 A<1 A<1 A<1 A<1 A<1 <1 <1 <1 <1 <1 <1 <1 <1 <1 <1 <1 <1 1 1 1 F=1 F=1 F=1 F=1 F=1 F=1 F=1 F=1 F=1 F=1 F=1 F=1 F=1 F=1 F=1 F=1 F=1 F=1 F=1 F=1 F=1 F=1 F=1 F=1 F=1 F=1 F=1 F=1 F=1 F=1 F=1 F=1 F=1 F=1 F=1 F=1 F=1 F=1 F=1 F=1 F=1 F=1 F=1 F=1 F=1 F1 F1 F1 FA1 FA1 FA1 FA1 FA1 FA1 FA1 FA1 FA1 FA1 FA1 FA1 FA1 FA1 FA1 FA1 FA1 FA1 FA1 FA1 FA1 FA1 FA1 FA1 FA1 FA1 FA1 FA1 FA1 FA1 FA1 FA1 FA1 FA1 FA1 FA1 FA1 FA1 FA1 FA1 FA1 FA1 FA1 FA1 FA1 F1 F1 F1 FF1 FF1 FF1 FF1 FF1 FF1 FF1 FF1 FF1 FF1 FF1 FF1 FF1 FF1 FF1 FF1 FF1 FF1 FF1 FF1 FF1 FF1 FF1 FF1 FF1 FF1 FF1 FF1 FF1 FF1 FF1 FF1 FF1 FF1 FF1 FF1 FF1 FF1 FF1 FF1 FF1 FF1 FF1 FF1 FF1 F1 F1 F1 FAA1 FAA1 FAA1 FAA1 FAA1 FAA1 FAA1 FAA1 FAA1 FAA1 FAA1 FAA1 FAA1 FAA1 FAA1 FAA1 FAA1 FAA1 FAA1 FAA1 FAA1 FAA1 FAA1 FAA1 FAA1 FAA1 FAA1 FAA1 FAA1 FAA1 FAA1 FAA1 FAA1 AA1 AA1 AA1 AA1 AA1 AA1 AA1 AA1 AA1 AA1 AA1 AA1 A1 A1 A1 H?A1 H?A1 H?A1 H?A1 H?A1 H?A1 H?A1 H?A1 H?A1 H?A1 H?A1 H?A1 H?A1 H?A1 H?A1 H?A1 H?A1 H?A1 H?A1 H?A1 H?A1 H?A1 H?A1 H?A1 H?A1 H?A1 H?A1 H?A1 H?A1 H?A1 H?A1 H?A1 H?A1 H?A1 H?A1 H?A1 H?A1 H?A1 H?A1 H?A1 H?A1 H?A1 H?A1 H?A1 H?A1 HA1 HA1 HA1 H=A1 H=A1 H=A1 H=A1 H=A1 H=A1 H=A1 H=A1 H=A1 H=A1 H=A1 H=A1 H=A1 H=A1 H=A1 H=A1 H=A1 H=A1 H=A1 H=A1 H=A1 H=A1 H=A1 H=A1 H=A1 H=A1 H=A1 H=A1 H=A1 H=A1 H=A1 H=A1 H=A1 H=A1 H=A1 H=A1 H=A1 H=A1 H=A1 H=A1 H=A1 =A1 =A1 =A1 =A1 A1 A1 A1 I<A1 I<A1 I<A1 I<A1 I<A1 I<A1 I<A1 I<A1 I<A1 I<A1 I<A1 I<A1 I<A1 I<A1 I<A1 I<A1 I<A1 I<A1 I<A1 I<A1 I<A1 I<A1 I<A1 I<A1 I<A1 I<A1 I<A1 I<A1 I<A1 I<A1 I<A1 I<A1 I<A1 I<A1 I<A1 I<A1 I<A1 I<A1 I<A1 I<A1 I<A1 I<A1 I<A1 I<A1 I<A1 IA1 IA1 IA1 IA:1 IA:1 I:1 I:1 I:1 I:1 I:1 I:1 I:1 I:1 I:1 I:1 I:1 I:1 I:1 I:1 I:1 I:1 I:1 I:1 I:1 I:1 I:1 I:1 I:1 I:1 I:1 I:1 I:1 I:1 I:1 I:1 I:1 I:1 I:1 I:1 I:1 I:1 I:1 I:1 I:1 :1 :1 :1 :1 1 1 1 ?C:1 ?C:1 ?C:1 ?C:1 ?C:1 ?C:1 ?C:1 ?C:1 ?C:1 ?C:1 ?C:1 ?C:1 ?C:1 ?C:1 ?C:1 ?C:1 ?C:1 ?C:1 ?C:1 ?C:1 ?C:1 ?C:1 ?C:1 ?C:1 ?C:1 ?C:1 ?C:1 ?C:1 ?C:1 ?C:1 ?C:1 ?C:1 ?C:1 ?C:1 ?C:1 ?C:1 ?C:1 ?C:1 ?C:1 ?C:1 ?C:1 ?C:1 ?C:1 ?C:1 ?C:1 ?:1 ?:1 ?:1 ??:1 ??:1 ??:1 ??:1 ??:1 ??:1 ??:1 ??:1 ??:1 ??:1 ??:1 ??:1 ??:1 ??:1 ??:1 ??:1 ??:1 ??:1 ??:1 ??:1 ??:1 ??:1 ??:1 ??:1 ??:1 ??:1 ??:1 ??:1 ??:1 ??:1 ??:1 ??:1 ??:1 ??:1 ??:1 ??:1 ??:1 ??:1 ??:1 ??:1 ??:1 ??:1 ??:1 ??:1 ??:1 ?:1 ?:1 ?:1 ?A:1 ?A:1 ?A:1 ?A:1 ?A:1 ?A:1 ?A:1 ?A:1 ?A:1 ?A:1 ?A:1 ?A:1 ?A:1 ?A:1 ?A:1 ?A:1 ?A:1 ?A:1 ?A:1 ?A:1 ?A:1 ?A:1 ?A:1 ?A:1 ?A:1 ?A:1 ?A:1 ?A:1 ?A:1 ?A:1 ?A:1 ?A:1 ?A:1 ?A:1 ?A:1 ?A:1 ?A:1 ?A:1 ?A:1 ?A:1 ?A:1 ?A:1 ?A:1 ?A:1 ?A:1 ?:1 ?:1 ?:1 ?:C1 ?:C1 ?:C1 ?:C1 ?:C1 ?:C1 ?:C1 ?:C1 ?:C1 ?:C1 ?:C1 ?:C1 ?:C1 ?:C1 ?:C1 ?:C1 ?:C1 ?:C1 ?:C1 ?:C1 ?:C1 ?:C1 ?:C1 ?:C1 ?:C1 ?:C1 ?:C1 ?:C1 ?:C1 ?:C1 ?:C1 ?:C1 ?:C1 ?C ?C ?C ?C ?C ?C ?C ?C ?C ?C ?C ?C ? ? ? ?D80 ?D80 ?D80 ?D80 ?D80 ?D80 ?D80 ?D80 ?D80 ?D80 ?D80 ?D80 ?D80 ?D80 ?D80 ?D80 ?D80 ?D80 ?D80 ?D80 ?D80 ?D80 ?D80 ?D80 ?D80 ?D80 ?D80 ?D80 ?D80 ?D80 ?D80 ?D80 ?D80 ?D80 ?D80 ?D80 ?D80 ?D80 ?D80 ?D80 ?D80 ?D80 ?D80 ?D80 ?D80 ?80 ?80 ?80 ?H80 ?H80 ?H80 ?H80 ?H80 ?H80 ?H80 ?H80 ?H80 ?H80 ?H80 ?H80 ?H80 ?H80 ?H80 ?H80 ?H80 ?H80 ?H80 ?H80 ?H80 ?H80 ?H80 ?H80 ?H80 H80 H80 H80 H80 H80 H80 H80 H80 H80 H80 H80 H80 H80 H80 H80 H80 H80 H80 H80 H80 80 80 80 DK80 DK80 DK80 DK80 DK80 DK80 DK80 DK80 DK80 DK80 DK80 DK80 DK80 DK80 DK80 DK80 DK80 DK80 DK80 DK80 DK80 DK80 DK80 DK80 DK80 DK80 DK80 DK80 DK80 DK80 DK80 DK80 DK80 DK80 DK80 DK80 DK80 DK80 DK80 DK80 DK80 DK80 DK80 DK80 DK80 D80 D80 D80 D8H0 D8H0 D8H0 D8H0 D8H0 D8H0 D8H0 D8H0 D8H0 D8H0 D8H0 D8H0 D8H0 D8H0 D8H0 D8H0 D8H0 D8H0 D8H0 D8H0 D8H0 D8H0 D8H0 D8H0 D8H0 D8H0 D8H0 D8H0 D8H0 D8H0 D8H0 D8H0 D8H0 DH DH DH DH DH DH DH DH H H H H    AF1 AF1 AF1 AF1 AF1 AF1 AF1 AF1 AF1 AF1 AF1 AF1 AF1 AF1 AF1 AF1 AF1 AF1 AF1 AF1 AF1 AF1 AF1 AF1 AF1 AF1 AF1 AF1 AF1 AF1 AF1 AF1 AF1 AF1 AF1 AF1 AF1 AF1 AF1 AF1 AF1 AF1 AF1 AF1 AF1 A1 A1 A1 AD1 AD1 AD1 AD1 AD1 AD1 AD1 AD1 AD1 AD1 AD1 AD1 AD1 AD1 AD1 AD1 AD1 AD1 AD1 AD1 AD1 AD1 AD1 AD1 AD1 AD1 AD1 AD1 AD1 AD1 AD1 AD1 AD1 AD1 AD1 AD1 AD1 AD1 AD1 AD1 AD1 AD1 AD1 AD1 AD1 A1 A1 A1 AC1 AC1 AC1 AC1 AC1 AC1 AC1 AC1 AC1 AC1 AC1 AC1 AC1 AC1 AC1 AC1 AC1 AC1 AC1 AC1 AC1 AC1 AC1 AC1 AC1 AC1 AC1 AC1 AC1 AC1 AC1 AC1 AC1 AC1 AC1 AC1 AC1 AC1 AC1 AC1 AC1 AC1 AC1 AC1 AC1 A1 A1 A1 AA1 AA1 AA1 AA1 AA1 AA1 AA1 AA1 AA1 AA1 AA1 AA1 AA1 AA1 AA1 AA1 AA1 AA1 AA1 AA1 AA1 AA1 AA1 AA1 AA1 AA1 AA1 AA1 AA1 AA1 AA1 AA1 AA1 AA AA AA AA AA AA AA AA AA AA AA AA AA AA AA AIA:. AIA:. AIA:. AIA:. AIA:. AIA:. AIA:. AIA:. AIA:. AIA:. AIA:. AIA:. AIA:. AIA:. AIA:. AIA:. AIA:. AIA:. AIA:. AIA:. AIA:. AIA:. AIA:. AIA:. AIA:. AIA:. AIA:. AIA:. AIA:. AIA:. AIA:. AIA:. AIA:. AIA:. AIA:. AIA:. AIA:. AIA:. AIA:. AIA:. AIA:. AIA:. AIA:. AIA:. AIA:. AIA:. AIA:. AIA:. AIA:. AIA:. AIA:. AIA:. AIA:. AIA:. AIA:. AIA:. AIA:. AIA:. AIA:. AIA:. AIA:. AIA:. AIA:. AIA:. AIA:. AIA:. AIA:. AIA:. AIA:. AIA:. AIA:. AIA:. AIA:. AIA:. AIA:. AIA:. AIA:. AIA:. AIA:. AIA:. AIA:. AIA:. AIA:. AIA:. AIA:. AIA:. AIA:. AIA:. AIA:. :. :. :. :. :. :. :. ?H:. ?H:. ?H:. ?H:. ?H:. ?H:. ?H:. ?H:. ?H:. ?H:. ?H:. ?H:. ?H:. ?H:. ?H:. ?H:. ?H:. ?H:. ?H:. ?H:. ?H:. ?H:. ?H:. ?H:. ?H:. ?H:. ?H:. ?H:. ?H:. ?H:. ?H:. ?H:. ?H:. ?H:. ?H:. ?H:. ?H:. ?H:. ?H:. ?H:. ?H:. ?H:. ?H:. ?H:. ?H:. :. :. :. =:F. =:F. =:F. =:F. =:F. =:F. =:F. =:F. =:F. =:F. =:F. =:F. =:F. =:F. =:F. =:F. =:F. =:F. =:F. =:F. =:F. =:F. =:F. =:F. =:F. =:F. =:F. =:F. =:F. =:F. =:F. =:F. =:F. =F =F =F =F =F =F =F =F =F =F =F =F    <D<?3 <D<?3 <D<?3 <D<?3 <D<?3 <D<?3 <D<?3 <D<?3 <D<?3 <D<?3 <D<?3 <D<?3 <D<?3 <D<?3 <D<?3 <D<?3 <D<?3 <D<?3 <D<?3 <D<?3 <D<?3 <D<?3 <D<?3 <D<?3 <D<?3 <D<?3 <D<?3 <D<?3 <D<?3 <D<?3 <D<?3 <D<?3 <D<?3 <D<?3 <D<?3 <D<?3 <D<?3 <D<?3 <D<?3 <D<?3 <D<?3 <D<?3 <D<?3 <D<?3 <D<?3 <D<?3 <D<?3 <D<?3 <D<?3 <D<?3 <D<?3 <D<?3 <D<?3 <D<?3 <D<?3 <D<?3 <D<?3 <D<?3 <D<?3 <D<?3 <D<?3 <D<?3 <D<?3 <D<?3 <D<?3 <D<?3 <D<?3 <D<?3 <D<?3 <D<?3 <D<?3 <D<?3 <D<?3 <D<?3 <D<?3 <D<?3 <D<?3 <D<?3 <D<?3 <D<?3 <D<?3 <D<?3 <D<?3 <D<?3 <D<?3 <D<?3 <D<?3 <D<?3 <D<?3 <D<?3 <D<?3 <D<?3 <D<?3 <D<?3 <D<?3 <D<?3 <D<?3 <D<?3 <D<?3 <D<?3 <D<?3 <D<?3 <D<?3 <D<?3 <D<?3 <D<?3 <D<?3 <D<?3 <D<?3 <D<?3 <D<?3 <D<?3 <D<?3 <D<?3 <D<?3 <D<?3 <D<?3 <D<?3 <D<?3 <D<?3 <D<?3 <D<?3 <D<?3 <D<?3 <D<?3 <D<?3 <D<?3 <D<?3 <D<?3 <D<?3 <D<?3 <D<?3 <D<?3 <D<?3 <D<?3 <D<?3 <D<?3 <D<?3 <D<?3 <D<?3 <D<?3 <D<?3 <D<?3 <D<?3 <D<?3 <D<?3 <D<?3 <D<?3 <D<?3 <D<?3 <D<?3 <D<?3 <D<?3 <D<?3 <D<?3 <D<?3 <D<?3 <D<?3 <D<?3 <D<?3 <D<?3 <D<?3 <D<?3 <D<?3 <D<?3 <D<?3 <D<?3 <D<?3 <D<?3 <D<?3 <D<?3 <D<?3 <D<?3 <D<?3 <D<?3 <D<?3 <D<?3 ? ? ? ? ? ? ? ? ? ? ? ? ? ? ? :C=?' :C=?' :C=?' :C=?' :C=?' :C=?' :C=?' :C=?' <C=?' <C=?' <C=?' <C=?' <C=?' <C=?' <C=?' <C=?' :C=?' :C=?' :C=?' :C=?' :C=?' :C=?' :C=?' :C=?' <C=?' <C=?' <C=?' <C=?' <C=?' <C=?' <C=?' <C=?' :C=?' :C=?' :C=?' :C=?' :C=?' :C=?' :C=?' :C=?' <C=?' <C=?' <C=?' <C=?' <C=?' <C=?' <C=?' <C=?' :C=?' :C=?' :C=?' :C=?' :C=?' :C=?' :C=?' :C=?' <C=?' <C=?' <C=?' <C=?' <C=?' <C=?' <C=?' <C=?' :C=?' :C=?' :C=?' :C=?' :C=?' :C=?' :C=?' :C=?' <C=?' <C=?' <C=?' <C=?' <C=?' <C=?' <C=?' <C=?' :C=?' :C=?' :C=?' :C=?' :C=?' :C=?' :C=?' :C=?' <C=?' <C=?' <C=?' <C=?' <C=?' <C=?' <C=?' <C=?' :C=?' :C=?' :C=?' :C=?' :C=?' :C=?' :C=?' :C=?' <C=?' <C=?' <C=?' <C=?' <C=?' <C=?' <C=?' <C=?' :C=?' :C=?' :C=?' :C=?' :C=?' :C=?' :C=?' :C=?' <C=?' <C=?' <C=?' <C=?' <C=?' <C=?' <C=?' <C=?' :C=?' :C=?' :C=?' :C=?' :C=?' :=?' :=?' :=?' <=?' <=?' <=?' <=?' <=?' <=?' <=?' <=?' 8=D?' 8=D?' 8=D?' 8=D?' 8=D?' 8=D?' 8=D?' 8=D?' 8=D?' 8=D?' 8=D?' 8=D?' 8=D?' 8=D?' 8=D?' 8=D?' 8=D?' 8=D?' 8=D?' 8=D?' 8=D?' 8=D?' 8=D?' 8=D?' 8=D?' 8=D?' 8=D?' 8=D?' 8=D?' 8=D?' 8=D?' 8=D?' 8=D?' 8D? 8D? 8D? 8D? 8D? 8D? 8D? 8D? 8D? 8D? 8D? 8D? ? ? ? 8D<, 8D<, 8D<, 8D<, 8D<, 8D<, 8D<, 8D<, 8D<, 8D<, 8D<, 8D<, 8D<, 8D<, 8D<, 8D<, 8D<, 8D<, 8D<, 8D<, 8D<, 8D<, 8D<, 8D<, 8D<, 8D<, 8D<, 8D<, 8D<, 8D<, 8D<, 8D<, 8D<, 8D<, 8D<, 8D<, 8D<, 8D<, 8D<, 8D<, 8D<, 8D<, 8D<, 8D<, 8D<, 8D<, 8D<, 8D<, 8D<, 8D<, 8D<, 8D<, 8D<, 8D<, 8D<, 8D<, 8D<, 8D<, 8D<, 8D<, 8D<, 8D<, 8D<, 8D<, 8D<, 8D<, 8D<, 8D<, 8D<, 8D<, 8D<, 8D<, 8D<, 8D<, 8D<, 8D<, 8D<, 8D<, 8D<, 8D<, 8D<, 8D<, 8D<, 8D<, 8D<, 8D<, 8D<, 8D<, 8D<, 8, 8, 8, 8, 8, 8, 8, 8D, 8D, 8D, 8D, 8D, 8D, 8D, 8D, 8D, 8D, 8D, 8D, 8D, 8D, 8D, 8D, 8D, 8D, 8D, 8D, 8D, 8D, 8D, 8D, 8D, 8D, 8D, 8D, 8D, 8D, 8D, 8D, 8D, 8D, 8D, 8D, 8D, 8D, 8D, 8D, 8D, 8D, 8D, 8D, 8D, 8D, 8D, 8D, 8D, 8D, 8D, 8D, 8D, 8D, 8D, 8D, 8D, 8D, 8D, 8D, 8D, 8D, 8D, 8D, 8D, 8D, 8D, 8D, 8D, 8D, 8D, 8D, 8D, 8D, 8D, 8D, 8D, 8D, 8D, 8D, 8D, 8D 8D 8D 8D 8D 8D 8D 8D 8 8 8 8 8 8 8 8K0 8K0 8K0 8K0 8K0 8K0 8K0 8K0 8K0 8K0 8K0 8K0 8K0 8K0 8K0 8K0 8K0 8K0 8K0 8K0 8K0 8K0 8K0 8K0 8K0 8K0 8K0 8K0 8K0 8K0 8K0 8K0 8K0 8K0 8K0 8K0 8K0 8K0 8K0 8K0 8K0 8K0 8K0 8K0 8K0 8K0 8K0 8K0 8K0 8K0 8K0 8K0 8K0 8K0 8K0 8K0 8K0 8K0 8K0 8K0 8K0 8K0 8K0 8K0 8K0 8K0 8K0 8K0 8K0 8K0 8K0 8K0 8K0 8K0 8K0 8K0 8K0 8K0 8K0 8K0 8K0 8K0 8K0 8K0 8K0 8K0 8K0 8K0 8K0 80 80 80 80 80 80 80 8D0 8D0 8D0 8D0 8D0 8D0 8D0 8D0 8D0 8D0 8D0 8D0 8D0 8D0 8D0 8D0 8D0 8D0 8D0 8D0 8D0 8D0 8D0 8D0 8D0 8D0 8D0 8D0 8D0 8D0 8D0 8D0 8D0 8D0 8D0 8D0 8D0 8D0 8D0 8D0 8D0 8D0 8D0 8D0 8D0 8D0 8D0 8D0 8D0 8D0 8D0 8D0 8D0 8D0 8D0 8D0 8D0 8D0 8D0 8D0 8D0 8D0 8D0 8D0 8D0 8D0 D0 D0 D0 D0 D0 D0 D0 D0 D0 D0 D0 D0 D0 D0 D0 D D D D D D D D        B, B, B, B, B, B, B, B, B, B, B, B, B, B, B, B, B, B, B, B, B, B, B, B, B, B, B, B, B, B, B, B, B, B, B, B, B, B, B, B, B, B, B, B, B, B, B, B, B, B, B, B, B, B, B, B, B, B, B, B, B, B, B, B, B, B, B, B, B, B, B, B, B, B, B, B, B, B, B, B, B, B, B, B, B, B, B, B, B, , , , , , , , A, A, A, A, A, A, A, A, A, A, A, A, A, A, A, A, A, A, A, A, A, A, A, A, A, A, A, A, A, A, A, A, A, A, A, A, A, A, A, A, A, A, A, A, A, , , , ?, ?, ?, ?, ?, ?, ?, ?, ?, ?, ?, ?, ?, ?, ?, ?, ?, ?, ?, ?, ?, ?, ?, ?, ?, ?, ?, ?, ?, ?, ?, ?, ?, ? ? ? ? ? ? ? ? ? ? ? ?    1 1 1 1 1 1 1 1 1 1 1 1 1 1 1 1 1 1 1 1 1 1 1 1 1 1 1 1 1 1 1 1 1 1 1 1 1 1 1 1 1 1 1 1 1 1 1 1 1 1 1 1 1 1 1 1 1 1 1 1 1 1 1 1 1 1 1 1 1 1 1 1 1 1 1 1 1 1 1 1 1 1 1 1 1 1 1 1 1 1 1 1 1 1 1 1 F1 F1 F1 F1 F1 F1 F1 F1 F1 F1 F1 F1 F1 F1 F1 F1 F1 F1 F1 F1 F1 F1 F1 F1 F1 F1 F1 F1 F1 F1 F1 F1 F1 F1 F1 F1 F1 F1 F1 F1 F1 F1 F1 F1 F1 F1 F1 F1 F1 F1 F1 F1 F1 F1 F1 F1 F1 F1 F1 F1 F1 F1 F1 F1 F1 F1 F1 F1 F1 F1 F1 F1 F1 F1 F1 F1 F1 F1 F1 F1 F1 F F F F F F F F        M M M M M M M M M M M M M M M M M M M M M M M M M M M M M M M M M M M M M M M M M M M M M M M M M M M M M M M M M M M M M M M M M M M M M M M M M M M M M M M M M M M M M M M M M        F F F F F F F F F F F F F F F F F F F F F F F F F F F F F F F F F F F F F F F F F F F F F F F F F F F F F F F F F F F F F F F F F F F F F F F F F F F F F F F F F F F F F F F F F        D2 D2 D2 D2 D2 D2 D2 D2 D2 D2 D2 D2 D2 D2 D2 D2 D2 D2 D2 D2 D2 D2 D2 D2 D2 D2 D2 D2 D2 D2 D2 D2 D2 D2 D2 D2 D2 D2 D2 D2 D2 D2 D2 D2 D2 D2 D2 D2 D2 D2 D2 D2 D2 D2 D2 D2 D2 D2 D2 D2 D2 D2 D2 D2 D2 D2 D2 D2 D2 D2 D2 D2 D2 D2 D2 D2 D2 D2 D2 D2 D2 D2 D2 D2 D2 D2 D2 D2 D2 2 2 2 2 2 2 2 C2 C2 C2 C2 C2 C2 C2 C2 C2 C2 C2 C2 C2 C2 C2 C2 C2 C2 C2 C2 C2 C2 C2 C2 C2 C2 C2 C2 C2 C2 C2 C2 C2 C2 C2 C2 C2 C2 C2 C2 C2 C2 C2 C2 C2 2 2 2 AA2 AA2 A2 A2 A2 A2 A2 A2 A2 A2 A2 A2 A2 A2 A2 A2 A2 A2 A2 A2 A2 A2 A2 A2 A2 A2 A2 A2 A2 A2 A2 A2 A2 A A A A A A A A A A A A    AC3 AC3 AC3 AC3 AC3 AC3 AC3 AC3 AC3 AC3 AC3 AC3 AC3 AC3 AC3 AC3 AC3 AC3 AC3 AC3 AC3 AC3 AC3 AC3 AC3 AC3 AC3 AC3 AC3 AC3 AC3 AC3 AC3 AC3 AC3 AC3 AC3 AC3 AC3 AC3 AC3 AC3 AC3 AC3 AC3 AC3 AC3 AC3 AC3 AC3 AC3 AC3 AC3 AC3 AC3 AC3 AC3 AC3 AC3 AC3 AC3 AC3 AC3 AC3 AC3 AC3 AC3 AC3 AC3 AC3 AC3 AC3 AC3 AC3 AC3 AC3 AC3 AC3 AC3 AC3 AC3 AC3 AC3 AC3 AC3 AC3 AC3 AC3 AC3 AC AC AC AC AC AC AC AC. AC. AC. AC. AC. AC. AC. AC. AC. AC. AC. AC. AC. AC. AC. AC. AC. AC. AC. AC. AC. AC. AC. AC. AC. AC. AC. AC. AC. AC. AC. AC. AC. AC. AC. AC. AC. AC. AC. AC. AC. AC. AC. AC. AC. AC. AC. AC. AC. AC. AC. AC. AC. AC. AC. AC. AC. AC. AC. AC. AC. AC. AC. AC. AC. AC. AC. AC. AC. AC. AC. AC. AC. AC. AC. AC. AC. AC. AC. AC. AC. C. C. C. C. C. C. C. C. C C C C C C C C?1 C?1 C?1 C?1 C?1 C?1 C?1 C?1 C?1 C?1 C?1 C?1 C?1 C?1 C?1 C?1 C?1 C?1 C?1 C?1 C?1 C?1 C?1 C?1 C?1 C?1 C?1 C?1 C?1 C?1 C?1 C?1 C?1 C?1 C?1 C?1 C?1 C?1 C?1 C?1 C?1 C?1 C?1 C?1 C?1 C?1 C?1 C?1 C?1 C?1 C?1 C?1 C?1 C?1 C?1 C?1 C?1 C?1 C?1 C?1 C?1 C?1 C?1 C?1 C?1 C?1 C?1 C?1 C?1 C?1 C?1 C?1 C?1 ?1 ?1 ?1 ?1 ?1 ?1 ?1 ?1 ?1 ?1 ?1 ?1 ?1 ?1 ?1 ?1 ? ? ? ? ? ? ? ?D. ?D. ?D. ?D. ?D. ?D. ?D. ?D. ?D. ?D. ?D. ?D. ?D. ?D. ?D. ?D. ?D. ?D. ?D. ?D. ?D. ?D. ?D. ?D. ?D. ?D. ?D. ?D. ?D. ?D. ?D. ?D. ?D. ?D. ?D. ?D. ?D. ?D. ?D. ?D. ?D. ?D. ?D. ?D. ?D. ?D. ?D. ?D. ?D. ?D. ?D. ?D. ?D. ?D. ?D. ?D. ?D. ?D. ?D. ?D. ?D. ?D. ?D. ?D. ?D. ?D. ?D. ?D. ?D. ?D. ?D. ?D. ?D. ?D. ?D. ?D. ?D. ?D. ?D. ?D. ?D. D. D. D. D. D. D. D. D.        =F+ =F+ =F+ =F+ =F+ =F+ =F+ =F+ =F+ =F+ =F+ =F+ =F+ =F+ =F+ =F+ =F+ =F+ =F+ =F+ =F+ =F+ =F+ =F+ =F+ =F+ =F+ =F+ =F+ =F+ =F+ =F+ =F+ =F+ =F+ =F+ =F+ =F+ =F+ =F+ =F+ =F+ =F+ =F+ =F+ =F+ =F+ =F+ =F+ =F+ =F+ =F+ =F+ =F+ =F+ =F+ =F+ =F+ =F+ =F+ =F+ =F+ =F+ =F+ =F+ =F+ =F+ =F+ =F+ =F+ =F+ =F+ =F+ =F+ =F+ =F+ =F+ =F+ =F+ =F+ =F+ =F+ =F+ =F+ =F+ =F+ =F+ =F+ =F+ =F =F =F =F =F =F =F =F) =F) =F) =F) =F) =F) =F) =F) =F) =F) =F) =F) =F) =F) =F) =F) =F) =F) =F) =F) =F) =F) =F) =F) =F) =F) =F) =F) =F) =F) =F) =F) =F) =F) =F) =F) =F) =F) =F) =F) =F) =F) =F) =F) =F) =F =F =F =F' =F' =F' =F' =F' =F' =F' =F' =F' =F' =F' =F' =F' =F' =F' =F' =F' =F' =F' =F' =F' =F' =F' =F' =F' =F' =F' =F' =F' =F' =F' =F' =F' F' F' F' F' F' F' F' F' F' F' F' F' F F F F<, F<, F<, F<, F<, F<, F<, F<, F<, F<, F<, F<, F<, F<, F<, F<, F<, F<, F<, F<, F<, F<, F<, F<, F<, F<, F<, F<, F<, F<, F<, F<, F<, F<, F<, F<, F<, F<, F<, F<, F<, F<, F<, F<, F<, <, <, <, D<, D<, D<, D<, D<, D<, D<, D<, D<, D<, D<, D<, D<, D<, D<, D<, D<, D<, D<, D<, D<, D<, D<, D<, D<, D<, D<, D<, D<, D<, D<, D<, D<, D<, D<, D<, D<, D<, D<, D<, D<, D< D< D< D< < < < C<1 C<1 C<1 C<1 C<1 C<1 C<1 C<1 C<1 C<1 C<1 C<1 C<1 C<1 C<1 C<1 C<1 C<1 C<1 C<1 C<1 C<1 C<1 C<1 C<1 C<1 C<1 C<1 C<1 C<1 C<1 C<1 C<1 C<1 C<1 C<1 C<1 C<1 C<1 C<1 C<1 C<1 C<1 C<1 C<1 <1 <1 <1 <D1 <D1 <D1 <D1 <D1 <D1 <D1 <D1 <D1 <D1 <D1 <D1 <D1 <D1 <D1 <D1 <D1 <D1 <D1 <D1 <D1 <D1 <D1 <D1 <D1 <D1 <D1 <D1 <D1 <D1 <D1 <D1 <D1 D1 D1 D1 D1 D1 D1 D1 D1 D D D D D D D ?D:3 ?D:3 ?D:3 ?D:3 ?D:3 ?D:3 ?D:3 ?D:3 ?D:3 ?D:3 ?D:3 ?D:3 ?D:3 ?D:3 ?D:3 ?D:3 ?D:3 ?D:3 ?D:3 ?D:3 ?D:3 ?D:3 ?D:3 ?D:3 ?D:3 ?D:3 ?D:3 ?D:3 ?D:3 ?D:3 ?D:3 ?D:3 ?D:3 ?D:3 ?D:3 ?D:3 ?D:3 ?D:3 ?D:3 ?D:3 ?D:3 ?D:3 ?D:3 ?D:3 ?D:3 ?:3 ?:3 ?:3 ?C:3 ?C:3 ?C:3 ?C:3 ?C:3 ?C:3 ?C:3 ?C:3 ?C:3 ?C:3 ?C:3 ?C:3 ?C:3 ?C:3 ?C:3 ?C:3 ?C:3 ?C:3 ?C:3 ?C:3 ?C:3 ?C:3 ?C:3 ?C:3 ?C:3 ?C:3 ?C:3 ?C:3 ?C:3 ?C:3 ?C:3 ?C:3 ?C:3 ?C:3 ?C:3 ?C:3 ?C:3 ?C:3 ?C:3 ?C:3 ?C:3 ?C:3 ?C:3 ?C:3 ?C:3 ?:3 ?:3 ?:3 ?A:3 ?A:3 ?A:3 ?A:3 ?A:3 ?A:3 ?A:3 ?A:3 ?A:3 ?A:3 ?A:3 ?A:3 ?A:3 ?A:3 ?A:3 ?A:3 ?A:3 ?A:3 ?A:3 ?A:3 ?A:3 ?A:3 ?A:3 ?A:3 ?A:3 ?A:3 ?A:3 ?A:3 ?A:3 ?A:3 ?A:3 ?A:3 ?A:3 ?A:3 ?A:3 ?A:3 ?A:3 ?A:3 ?A:3 ?A:3 ?A:3 ?A:3 ?A:3 ?A:3 ?A:3 ?:3 ?:3 ?:3 ?:C3 ?:C3 ?:C3 ?:C3 ?:C3 ?:C3 ?:C3 ?:C3 ?:C3 ?:C3 ?:C3 ?:C3 ?:C3 ?:C3 ?:C3 ?:C3 ?:C3 ?:C3 ?:C3 ?:C3 ?:C3 ?:C3 ?:C3 ?:C3 ?:C3 ?:C3 ?:C3 ?:C3 ?:C3 ?:C3 ?:C3 ?:C3 ?:C3 C C C C C C C C C C C C    =?:' =?:' =?:' =?:' =?:' =?:' =A:' =A:' ?A:' ?A:' ?A:' ?A:' ??:' ??:' ??:' ??:' =?:' =?:' =A:' =A:' =A:' =A:' =A:' =A:' ??:' ??:' ??:' ??:' ??:' ??:' ?A:' ?A:' =A:' =A:' =A:' =A:' =?:' =?:' =?:' =?:' ??:' ??:' ?A:' ?A:' ?A:' ?A:' ?A:' ?A:' <?:' <?:' <?:' <?:' <?:' <?:' <A:' <A:' <A:' <A:' <A:' <A:' <?:' <?:' <?:' <?:' <?:' <?:' <A:' <A:' <A:' <A:' <A:' <A:' <?:' <?:' <?:' <?:' <?:' <?:' <A:' <A:' <A:' <A:' <A:' <A:' <?:' <?:' <?:' <?:' <?:' <?:' <A:' <A:' <A:' A:' A:' A:' =?:' =?:' =?:' =?:' =?:' =?:' =A:' =A:' =A:' =A:' =A:' =A:' =?:' =?:' =?:' =?:' =?:' =?:' =A:' =A:' =A:' =A:' =A:' =A:' =?:' =?:' =?:' =?:' =?:' =?:' =A:' =A:' =A:' =A:' =A:' =A:' =?:' =?:' =?:' =?:' =?:' =?:' =A:' =A:' =A:' =A:' =A:' =A:' =?:' =?:' =?:' =?:' =?:' =?:' =A:' =A:' =A:' =A:' =A:' =A:' =?:' =?:' =?:' =?:' =?:' =?:' =A:' =A:' =A:' =A:' =A:' =A:' =?:' =?:' =?:' =?:' =?:' =?:' =:A' =:A' =:A' =A =A =A =? =? =? =? =? ? A A A A A A <D<, <D<, <D<, <D<, <D<, <D<, <D<, <D<, <D<, <D<, <D<, <D<, <D<, <D<, <D<, <D<, <D<, <D<, <D<, <D<, <D<, <D<, <D<, <D<, <D<, <D<, <D<, <D<, <D<, <D<, <D<, <D<, <D<, <D<, <D<, <D<, <D<, <D<, <D<, <D<, <D<, <D<, <D<, <D<, <D<, D<, D<, D<, ?D<, ?D<, ?D<, ?D<, ?D<, ?D<, ?D<, ?D<, ?D<, ?D<, ?D<, ?D<, ?D<, ?D<, ?D<, ?D<, ?D<, ?D<, ?D<, ?D<, ?D<, ?D<, ?D<, ?D<, ?D<, ?D<, ?D<, ?D<, ?D<, ?D<, ?D<, ?D<, ?D<, ?D<, ?D<, ?D<, ?D<, ?D<, ?D<, ?D<, ?D<, ?, ?, ?, ?, , , , B?, B?, B?, B?, B?, B?, B?, B?, B?, B?, B?, B?, B?, B?, B?, B?, B?, B?, B?, B?, B?, B?, B?, B?, B?, B?, B?, B?, B?, B?, B?, B?, B?, B?, B?, B?, B?, B?, B?, B?, B?, B?, B?, B?, B?, ?, ?, ?, F?, F?, F?, F?, F?, F?, F?, F?, F?, F?, F?, F?, F?, F?, F?, F?, F?, F?, F?, F?, F?, F?, F?, F?, F?, F?, F?, F?, F?, F?, F?, F?, F?, F? F? F? F? F? F? F? F? F F F F    DD0 DD0 DD0 DD0 DD0 DD0 DD0 DD0 DD0 DD0 DD0 DD0 DD0 DD0 DD0 DD0 DD0 DD0 DD0 DD0 DD0 DD0 DD0 DD0 DD0 DD0 DD0 DD0 DD0 DD0 DD0 DD0 DD0 DD0 DD0 DD0 DD0 DD0 DD0 DD0 DD0 DD0 DD0 DD0 DD0 DD0 DD0 DD0 DD0 DD0 DD0 DD0 DD0 DD0 DD0 DD0 DD0 DD0 DD0 DD0 DD0 DD0 DD0 DD0 DD0 DD0 DD0 DD0 DD0 DD0 DD0 DD0 DD0 DD0 DD0 DD0 DD0 DD0 DD0 DD0 DD0 DD0 DD0 DD0 DD0 DD0 DD0 DD0 DD0 D0 D0 D0 D0 D0 D0 D0 D?0 D?0 D?0 D?0 D?0 D?0 D?0 D?0 D?0 D?0 D?0 D?0 D?0 D?0 D?0 D?0 D?0 D?0 D?0 D?0 D?0 D?0 D?0 D?0 D?0 D?0 D?0 D?0 D?0 D?0 D?0 D?0 D?0 D?0 D?0 D?0 D?0 D?0 D?0 D?0 D?0 D?0 D?0 D?0 D?0 D?0 D?0 D?0 D?0 D?0 D?0 D?0 D?0 D?0 D?0 D?0 D?0 D?0 D?0 D?0 D?0 D?0 D?0 D?0 D?0 D?0 D?0 D?0 D?0 D?0 D?0 D?0 D?0 D?0 D?0 D?0 D?0 D?0 D?0 D?0 D?0 ? ? ? ? ? ? ? ?        B<, B<, B<, B<, B<, B<, B<, B<, D<, D<, D<, D<, D<, D<, D<, D<, B<, B<, B<, B<, B<, B<, B<, B<, D<, D<, D<, D<, D<, D<, D<, D<, B<, B<, B<, B<, B<, B<, B<, B<, D<, D<, D<, D<, D<, D<, D<, D<, A<, A<, A<, A<, A<, A<, A<, A<, A<, A<, A<, A<, A<, A<, A<, A<, A<, A<, A<, A<, A<, A<, A<, A<, A<, A<, A<, A<, A<, A<, A<, A<, A<, A<, A<, A<, A<, A<, A<, A<, A<, A, A, A, A, , , , B:, B:, B:, B:, B:, B:, B:, B:, B:, B:, B:, B:, B:, B:, B:, B:, B:, B:, B:, B:, B:, B:, B:, B:, B:, B:, B:, B:, B:, B:, B:, B:, B:, B:, B:, B:, B:, B:, B:, B:, B:, B:, B:, B:, B:, B, B, B, B8, B8, B8, B8, B8, B8, B8, B8, B8, B8, B8, B8, B8, B8, B8, B8, B8, B8, B8, B8, B8, B8, B8, B8, B8, B8, B8, B8, B8, B8, B8, B8, B8, B8 B8 B8 B8 B8 B8 B8 B8 8 8 8 8    AA1 AA1 AA1 AA1 AA1 AA1 AA1 AA1 AA1 AA1 AA1 AA1 AA1 AA1 AA1 AA1 AA1 AA1 AA1 AA1 AA1 AA1 AA1 AA1 AA1 AA1 AA1 AA1 AA1 AA1 AA1 AA1 AA1 AA1 AA1 AA1 AA1 AA1 AA1 AA1 AA1 AA1 AA1 AA1 AA1 AA1 AA1 AA1 AA1 AA1 AA1 AA1 AA1 AA1 AA1 AA1 AA1 AA1 AA1 AA1 AA1 AA1 AA1 AA1 AA1 AA1 AA1 AA1 AA1 AA1 AA1 AA1 AA1 AA1 AA1 AA1 AA1 AA1 AA1 AA1 AA1 AA1 AA1 AA1 AA1 AA1 AA1 AA1 AA1 AA1 AA1 AA1 AA1 AA1 AA1 AA1 AAD1 AAD1 AAD1 AAD1 AAD1 AAD1 AAD1 AAD1 AAD1 AAD1 AAD1 AAD1 AAD1 AAD1 AAD1 AAD1 AAD1 AAD1 AAD1 AAD1 AAD1 AAD1 AAD1 AAD1 AAD1 AAD1 AAD1 AAD1 AAD1 AAD1 AAD1 AAD1 AAD1 AAD1 AAD1 AAD1 AAD1 AAD1 AAD1 AAD1 AAD1 AAD1 AAD1 AAD1 AAD1 AAD1 AAD1 AAD1 AAD1 AAD1 AAD1 AAD1 AAD1 AAD1 AAD1 AAD1 AAD1 AAD1 AAD1 AAD1 AAD1 AAD1 AAD1 AAD1 AAD1 AAD1 AAD1 AAD1 AAD1 AAD1 AAD1 AAD1 AAD1 AAD1 AAD1 AAD1 AAD1 AAD1 AAD1 AAD1 AAD1 AD AD AD AD AD AD AD AD A A A A A A A AI5 AI5 AI5 AI5 AI5 AI5 AI5 AI5 AI5 AI5 AI5 AI5 AI5 AI5 AI5 AI5 AI5 AI5 AI5 AI5 AI5 AI5 AI5 AI5 AI5 AI5 AI5 AI5 AI5 AI5 AI5 AI5 AI5 AI5 AI5 AI5 AI5 AI5 AI5 AI5 AI5 AI5 AI5 AI5 AI5 AI5 AI5 AI5 AI5 AI5 AI5 AI5 AI5 AI5 AI5 AI5 AI5 AI5 AI5 AI5 AI5 AI5 AI5 AI5 AI5 AI5 AI5 AI5 AI5 AI5 AI5 AI5 AI5 AI5 AI5 AI5 AI5 AI5 AI5 AI5 AI5 AI5 AI5 AI5 AI5 AI5 AI5 AI5 AI5 A5 A5 A5 A5 A5 A5 A5 ADA5 ADA5 ADA5 ADA5 ADA5 ADA5 ADA5 ADA5 ADA5 ADA5 ADA5 ADA5 ADA5 ADA5 ADA5 ADA5 ADA5 ADA5 ADA5 ADA5 ADA5 ADA5 ADA5 ADA5 ADA5 ADA5 ADA5 ADA5 ADA5 ADA5 ADA5 ADA5 ADA5 ADA5 ADA5 ADA5 ADA5 ADA5 ADA5 ADA5 ADA5 ADA5 ADA5 ADA5 ADA5 ADA5 ADA5 ADA5 ADA5 ADA5 ADA5 ADA5 ADA5 ADA5 ADA5 ADA5 ADA5 ADA5 ADA5 ADA5 ADA5 ADA5 ADA5 ADA5 ADA5 ADA5 DA5 DA5 DA5 DA5 DA5 DA5 DA5 DA5 DA5 DA5 DA5 DA5 DA5 DA5 DA5 DA DA DA DA DA DA DA DA        B?8 B?8 B?8 B?8 B?8 B?8 B?8 B?8 B?8 B?8 B?8 B?8 B?8 B?8 B?8 B?8 B?8 B?8 B?8 B?8 B?8 B?8 B?8 B?8 B?8 B?8 B?8 B?8 B?8 B?8 B?8 B?8 B?8 B?8 B?8 B?8 B?8 B?8 B?8 B?8 B?8 B?8 B?8 B?8 B?8 B?8 B?8 B?8 B?8 B?8 B?8 B?8 B?8 B?8 B?8 B?8 B?8 B?8 B?8 B?8 B?8 B?8 B?8 B?8 B?8 B?8 B?8 B?8 B?8 B?8 B?8 B?8 B?8 B?8 B?8 B?8 B?8 B?8 B?8 B?8 B?8 B?8 B?8 B?8 B?8 B?8 B?8 B?8 B?8 8 8 8 8 8 8 8 A=8 A=8 A=8 A=8 A=8 A=8 A=8 A=8 A=8 A=8 A=8 A=8 A=8 A=8 A=8 A=8 A=8 A=8 A=8 A=8 A=8 A=8 A=8 A=8 A=8 A=8 A=8 A=8 A=8 A=8 A=8 A=8 A=8 A=8 A=8 A=8 A=8 A=8 A=8 A=8 A=8 A=8 A=8 A=8 A=8 8 8 8 ?<8 ?<8 ?<8 ?<8 ?<8 ?<8 ?<8 ?<8 ?<8 ?<8 ?<8 ?<8 ?<8 ?<8 ?<8 ?<8 ?<8 ?<8 ?<8 ?<8 ?<8 ?<8 ?<8 ?<8 ?<8 ?<8 ?<8 ?<8 ?<8 ?<8 ?<8 ?<8 ?<8 ?< ?< ?< ?< ?< ?< ?< ?< ?< ?< ?< ?<    =A1 =A1 =A1 =A1 =A1 =A1 =A1 =A1 =A1 =A1 =A1 =A1 =A1 =A1 =A1 =A1 =A1 =A1 =A1 =A1 =A1 =A1 =A1 =A1 =A1 =A1 =A1 =A1 =A1 =A1 =A1 =A1 =A1 =A1 =A1 =A1 =A1 =A1 =A1 =A1 =A1 =A1 =A1 =A1 =A1 =A1 =A1 =A1 =A1 =A1 =A1 =A1 =A1 =A1 =A1 =A1 =A1 =A1 =A1 =A1 =A1 =A1 =A1 =A1 =A1 =A1 =A1 =A1 =A1 =A1 =A1 =A1 =A1 =A1 =A1 =A1 =A1 =A1 =A1 =A1 =A1 =A1 =A1 =A1 =A1 =A1 =A1 =A1 =A1 A1 A1 A1 A1 A1 A1 A1 A81 A81 A81 A81 A81 A81 A81 A81 A81 A81 A81 A81 A81 A81 A81 A81 A81 A81 A81 A81 A81 A81 A81 A81 A81 A81 A81 A81 A81 A81 A81 A81 A81 A81 A81 A81 A81 A81 A81 A81 A81 A81 A81 A81 A81 A81 A81 A81 A81 A81 A81 A81 A81 A81 A81 A81 A81 A81 A81 A81 A81 A81 A81 A81 A81 A81 A81 A81 A81 A81 A81 A81 A81 A81 A81 A81 A81 A81 A81 A81 A81 8 8 8 8 8 8 8 8        =) =) =) =) =) =) =) =) =) =) =) =) =) =) =) =) =) =) =) =) =) =) =) =) =) =) =) =) =) =) =) =) =) =) =) =) =) =) =) =) =) =) =) =) =) =) =) =) =) =) =) =) =) =) =) =) =) =) =) =) =) =) =) =) =) =) =) =) =) =) =) =) =) =) =) =) =) =) =) =) =) =) =) =) =) =) =) =) =) ) ) ) ) ) ) ) A8) A8) A8) A8) A8) A8) A8) A8) A8) A8) A8) A8) A8) A8) A8) A8) A8) A8) A8) A8) A8) A8) A8) A8) A8) A8) A8) A8) A8) A8) A8) A8) A8) A8) A8) A8) A8) A8) A8) A8) A8) A8) A8) A8) A8) A8) A8) A8) A8) A8) A8) A8) A8) A8) A8) A8) A8) A8) A8) A8) A8) A8) A8) A8) A8) A8) A8) A8) A8) A8) A8) A8) A8) A8) A8) A8) A8) A8) A8) A8) A8) A8 A8 A8 A8 A8 A8 A8 A8        ?6, ?6, ?6, ?6, ?6, ?6, ?6, ?6, ?6, ?6, ?6, ?6, ?6, ?6, ?6, ?6, ?6, ?6, ?6, ?6, ?6, ?6, ?6, ?6, ?6, ?6, ?6, ?6, ?6, ?6, ?6, ?6, ?6, ?6, ?6, ?6, ?6, ?6, ?6, ?6, ?6, ?6, ?6, ?6, ?6, ?6, ?6, ?6, ?6, ?6, ?6, ?6, ?6, ?6, ?6, ?6, ?6, ?6, ?6, ?6, ?6, ?6, ?6, ?6, ?6, ?6, ?6, ?6, ?6, ?6, ?6, ?6, ?6, ?6, ?6, ?6, ?6, ?6, ?6, ?6, ?6, ?6, ?6, ?6, ?6, ?6, ?6, ?6, ?6, , , , , , , , =5, =5, =5, =5, =5, =5, =5, =5, =5, =5, =5, =5, =5, =5, =5, =5, =5, =5, =5, =5, =5, =5, =5, =5, =5, =5, =5, =5, =5, =5, =5, =5, =5, =5, =5, =5, =5, =5, =5, =5, =5, =5, =5, =5, =5, , , , <3, <3, <3, <3, <3, <3, <3, <3, <3, <3, <3, <3, <3, <3, <3, <3, <3, <3, <3, <3, <3, <3, <3, <3, <3, <3, <3, <3, <3, <3, <3, <3, <3, <3 <3 <3 <3 <3 <3 <3 <3 <3 <3 <3 <3    =5% =5% =5% =5% =5% =5% =5% =5% =5% =5% =5% =5% =5% =5% =5% =5% =5% =5% =5% =5% =5% =5% =5% =5% =5% =5% =5% =5% =5% =5% =5% =5% =5% =5% =5% =5% =5% =5% =5% =5% =5% =5% =5% =5% =5% =5% =5% =5% =5% =5% =5% =5% =5% =5% =5% =5% =5% =5% =5% =5% =5% =5% =5% =5% =5% =5% =5% =5% =5% =5% =5% =5% =5% =5% =5% =5% =5% =5% =5% =5% =5% =5% =5% =5% =5% =5% =5% =5% =5% =5 =5 =5 =5 =5 =5 =5 =5, =5, =5, =5, =5, =5, =5, =5, =5, =5, =5, =5, =5, =5, =5, =5, =5, =5, =5, =5, =5, =5, =5, =5, =5, =5, =5, =5, =5, =5, =5, =5, =5, =5, =5, =5, =5, =5, =5, =5, =5, =5, =5, =5, =5, =5, =5, =5, =5, =5, =5, =5, =5, =5, =5, =5, =5, =5, =5, =5, =5, =5, =5, =5, =5, =5, =5, =5, =5, =5, =5, =5, =5, =5, =5, =5, =5, =5, =5, =5, =5, , , , , , , , ,        A1 A1 A1 A1 A1 A1 A1 A1 A1 A1 A1 A1 A1 A1 A1 A1 A1 A1 A1 A1 A1 A1 A1 A1 A1 A1 A1 A1 A1 A1 A1 A1 A1 A1 A1 A1 A1 A1 A1 A1 A1 A1 A1 A1 A1 A1 A1 A1 A1 A1 A1 A1 A1 A1 A1 A1 A1 A1 A1 A1 A1 A1 A1 A1 A1 A1 A1 A1 A1 A1 A1 A1 A1 A1 A1 A1 A1 A1 A1 A1 A1 A1 A1 A1 A1 A1 A1 A1 A1 A A A A A A A A+ A+ A+ A+ A+ A+ A+ A+ A+ A+ A+ A+ A+ A+ A+ A+ A+ A+ A+ A+ A+ A+ A+ A+ A+ A+ A+ A+ A+ A+ A+ A+ A+ A+ A+ A+ A+ A+ A+ A+ A+ A+ A+ A+ A+ A+ A+ A+ A+ A+ A+ A+ A+ A+ A+ A+ A+ A+ A+ A+ A+ A+ A+ A+ A+ A+ A+ A+ A+ A+ A+ A+ A+ A+ A+ A+ A+ A+ A+ A+ A+ + + + + + + + +        ?. ?. ?. ?. ?. ?. ?. ?. A. A. A. A. A. A. A. A. ?. ?. ?. ?. ?. ?. ?. ?. A. A. A. A. A. A. A. A. ?. ?. ?. ?. ?. ?. ?. ?. A. A. A. A. A. A A A >- >- >- >- >- >- >- >- >- >- >- >- >- >- >- >- >- >- >- >- >- >- >- >- >- >- >- >- >- >- >- >- >- >- >- >- >- >- >- >- >- >- >- >- >-    ?+ ?+ ?+ ?+ ?+ ?+ ?+ ?+ ?+ ?+ ?+ ?+ ?+ ?+ ?+ ?+ ?+ ?+ ?+ ?+ ?+ ?+ ?+ ?+ ?+ ?+ ?+ ?+ ?+ ?+ ?+ ?+ ?+ ?+ ?+ ?+ ?+ ?+ ?+ ?+ ?+ ?+ ?+ ?+ ?+ ? ? ? ?) ?) ?) ?) ?) ?) ?) ?) ?) ?) ?) ?) ?) ?) ?) ?) ?) ?) ?) ?) ?) ?) ?) ?) ?) ?) ?) ?) ?) ?) ?) ?) ?) ?) ?) ?) ?) ?) ?) ?) ?) ) ) ) )    >. >. >. >. >. >. >. >. >. >. >. >. >. >. >. >. >. >. >. >. >. >. >. >. >. >. >. >. >. >. >. >. >. >. >. >. >. >. >. >. >. >. >. >. >. . . . A. A. A. A. A. A. A. A. A. A. A. A. A. A. A. A. A. A. A. A. A. A. A. A. A. A. A. A. A. A. A. A. A. A. A. A. A. A. A. A. A. A. A. A. A. . . . DA. DA. DA. DA. DA. DA. DA. DA. DA. DA. DA. DA. DA. DA. DA. DA. DA. DA. DA. DA. DA. DA. DA. DA. DA. DA. DA. DA. DA. DA. DA. DA. DA. DA. DA. DA. DA. DA. DA. DA. DA. DA. DA. DA. DA. A. A. A. HA. HA. HA. HA. HA. HA. HA. HA. HA. HA. HA. HA. HA. HA. HA. HA. HA. HA. HA. HA. HA. HA. HA. HA. HA. HA. HA. HA. HA. HA. HA. HA. HA. HA HA HA HA HA HA HA HA H H H H    FF2 FF2 FF2 FF2 FF2 FF2 FF2 FF2 FF2 FF2 FF2 FF2 FF2 FF2 FF2 FF2 FF2 FF2 FF2 FF2 FF2 FF2 FF2 FF2 FF2 FF2 FF2 FF2 FF2 FF2 FF2 FF2 FF2 FF2 FF2 FF2 FF2 FF2 FF2 FF2 FF2 FF2 FF2 FF2 FF2 FF2 FF2 FF2 FF2 FF2 FF2 FF2 FF2 FF2 FF2 FF2 FF2 FF2 FF2 FF2 FF2 FF2 FF2 FF2 FF2 FF2 FF2 FF2 FF2 FF2 FF2 FF2 FF2 FF2 FF2 FF2 FF2 FF2 FF2 FF2 FF2 FF2 FF2 FF2 FF2 FF2 FF2 FF2 FF2 F2 F2 F2 F2 F2 F2 F2 FA2 FA2 FA2 FA2 FA2 FA2 FA2 FA2 FA2 FA2 FA2 FA2 FA2 FA2 FA2 FA2 FA2 FA2 FA2 FA2 FA2 FA2 FA2 FA2 FA2 FA2 FA2 FA2 FA2 FA2 FA2 FA2 FA2 FA2 FA2 FA2 FA2 FA2 FA2 FA2 FA2 FA2 FA2 FA2 FA2 FA2 FA2 FA2 FA2 FA2 FA2 FA2 FA2 FA2 FA2 FA2 FA2 FA2 FA2 FA2 FA2 FA2 FA2 FA2 FA2 FA2 FA2 FA2 FA2 FA2 FA2 FA2 FA2 FA2 FA2 FA2 FA2 FA2 FA2 FA2 FA2 A A A A A A A A        D>. D>. D>. D>. D>. D>. D>. D>. F>. F>. F>. F>. F>. F>. F>. F>. D>. D>. D>. D>. D>. D>. D>. D>. F>. F>. F>. F>. F>. F>. F>. F>. D>. D>. D>. D>. D>. D>. D>. D>. F>. F>. F>. F>. F>. F>. F>. F>. C>. C>. C>. C>. C>. C>. C>. C>. C>. C>. C>. C>. C>. C>. C>. C>. C>. C>. C>. C>. C>. C>. C>. C>. C>. C>. C>. C>. C>. C>. C>. C>. C>. C>. C>. C>. C>. C>. C>. C>. C>. C. C. C. C. . . . D<. D<. D<. D<. D<. D<. D<. D<. D<. D<. D<. D<. D<. D<. D<. D<. D<. D<. D<. D<. D<. D<. D<. D<. D<. D<. D<. D<. D<. D<. D<. D<. D<. D<. D<. D<. D<. D<. D<. D<. D<. D<. D<. D<. D<. D. D. D. D:. D:. D:. D:. D:. D:. D:. D:. D:. D:. D:. D:. D:. D:. D:. D:. D:. D:. D:. D:. D:. D:. D:. D:. D:. D:. D:. D:. D:. D:. D:. D:. D:. D: D: D: D: D: D: D: D: : : : :    CC3 CC3 CC3 CC3 CC3 CC3 CC3 CC3 CC3 CC3 CC3 CC3 CC3 CC3 CC3 CC3 CC3 CC3 CC3 CC3 CC3 CC3 CC3 CC3 CC3 CC3 CC3 CC3 CC3 CC3 CC3 CC3 CC3 CC3 CC3 CC3 CC3 CC3 CC3 CC3 CC3 CC3 CC3 CC3 CC3 CC3 CC3 CC3 CC3 CC3 CC3 CC3 CC3 CC3 CC3 CC3 CC3 CC3 CC3 CC3 CC3 CC3 CC3 CC3 CC3 CC3 CC3 CC3 CC3 CC3 CC3 CC3 CC3 CC3 CC3 CC3 CC3 CC3 CC3 CC3 CC3 CC3 CC3 CC3 CC3 CC3 CC3 CC3 CC3 CC3 CC3 CC3 CC3 CC3 CC3 CC3 CCF3 CCF3 CCF3 CCF3 CCF3 CCF3 CCF3 CCF3 CCF3 CCF3 CCF3 CCF3 CCF3 CCF3 CCF3 CCF3 CCF3 CCF3 CCF3 CCF3 CCF3 CCF3 CCF3 CCF3 CCF3 CCF3 CCF3 CCF3 CCF3 CCF3 CCF3 CCF3 CCF3 CCF3 CCF3 CCF3 CCF3 CCF3 CCF3 CCF3 CCF3 CCF3 CCF3 CCF3 CCF3 CCF3 CCF3 CCF3 CCF3 CCF3 CCF3 CCF3 CCF3 CCF3 CCF3 CCF3 CCF3 CCF3 CCF3 CCF3 CCF3 CCF3 CCF3 CCF3 CCF3 CCF3 CCF3 CCF3 CCF3 CCF3 CCF3 CCF3 CCF3 CCF3 CCF3 CCF3 CCF3 CCF3 CCF3 CCF3 CCF3 CF CF CF CF CF CF CF CF C C C C C C C CK7 CK7 CK7 CK7 CK7 CK7 CK7 CK7 CK7 CK7 CK7 CK7 CK7 CK7 CK7 CK7 CK7 CK7 CK7 CK7 CK7 CK7 CK7 CK7 CK7 CK7 CK7 CK7 CK7 CK7 CK7 CK7 CK7 CK7 CK7 CK7 CK7 CK7 CK7 CK7 CK7 CK7 CK7 CK7 CK7 CK7 CK7 CK7 CK7 CK7 CK7 CK7 CK7 CK7 CK7 CK7 CK7 CK7 CK7 CK7 CK7 CK7 CK7 CK7 CK7 CK7 CK7 CK7 CK7 CK7 CK7 CK7 CK7 CK7 CK7 CK7 CK7 CK7 CK7 CK7 CK7 CK7 CK7 CK7 CK7 CK7 CK7 CK7 CK7 C7 C7 C7 C7 C7 C7 C7 CFC7 CFC7 CFC7 CFC7 CFC7 CFC7 CFC7 CFC7 CFC7 CFC7 CFC7 CFC7 CFC7 CFC7 CFC7 CFC7 CFC7 CFC7 CFC7 CFC7 CFC7 CFC7 CFC7 CFC7 CFC7 CFC7 CFC7 CFC7 CFC7 CFC7 CFC7 CFC7 CFC7 CFC7 CFC7 CFC7 CFC7 CFC7 CFC7 CFC7 CFC7 CFC7 CFC7 CFC7 CFC7 CFC7 CFC7 CFC7 CFC7 CFC7 CFC7 CFC7 CFC7 CFC7 CFC7 CFC7 CFC7 CFC7 CFC7 CFC7 CFC7 CFC7 CFC7 CFC7 CFC7 CFC7 FC7 FC7 FC7 FC7 FC7 FC7 FC7 FC7 FC7 FC7 FC7 FC7 FC7 FC7 FC7 FC FC FC FC FC FC FC FC        DA: DA: DA: DA: DA: DA: DA: DA: DA: DA: DA: DA: DA: DA: DA: DA: DA: DA: DA: DA: DA: DA: DA: DA: DA: DA: DA: DA: DA: DA: DA: DA: DA: DA: DA: DA: DA: DA: DA: DA: DA: DA: DA: DA: DA: DA: DA: DA: DA: DA: DA: DA: DA: DA: DA: DA: DA: DA: DA: DA: DA: DA: DA: DA: DA: DA: DA: DA: DA: DA: DA: DA: DA: DA: DA: DA: DA: DA: DA: DA: DA: DA: DA: DA: DA: DA: DA: DA: DA: : : : : : : : C?: C?: C?: C?: C?: C?: C?: C?: C?: C?: C?: C?: C?: C?: C?: C?: C?: C?: C?: C?: C?: C?: C?: C?: C?: C?: C?: C?: C?: C?: C?: C?: C?: C?: C?: C?: C?: C?: C?: C?: C?: C?: C?: C?: C?: : : : A>: A>: A>: A>: A>: A>: A>: A>: A>: A>: A>: A>: A>: A>: A>: A>: A>: A>: A>: A>: A>: A>: A>: A>: A>: A>: A>: A>: A>: A>: A>: A>: A>: A> A> A> A> A> A> A> A> A> A> A> A>    ?C3 ?C3 ?C3 ?C3 ?C3 ?C3 ?C3 ?C3 ?C3 ?C3 ?C3 ?C3 ?C3 ?C3 ?C3 ?C3 ?C3 ?C3 ?C3 ?C3 ?C3 ?C3 ?C3 ?C3 ?C3 ?C3 ?C3 ?C3 ?C3 ?C3 ?C3 ?C3 ?C3 ?C3 ?C3 ?C3 ?C3 ?C3 ?C3 ?C3 ?C3 ?C3 ?C3 ?C3 ?C3 ?C3 ?C3 ?C3 ?C3 ?C3 ?C3 ?C3 ?C3 ?C3 ?C3 ?C3 ?C3 ?C3 ?C3 ?C3 ?C3 ?C3 ?C3 ?C3 ?C3 ?C3 ?C3 ?C3 ?C3 ?C3 ?C3 ?C3 ?C3 ?C3 ?C3 ?C3 ?C3 ?C3 ?C3 ?C3 ?C3 ?C3 ?C3 ?C3 ?C3 ?C3 ?C3 ?C3 ?C3 C3 C3 C3 C3 C3 C3 C3 C:3 C:3 C:3 C:3 C:3 C:3 C:3 C:3 C:3 C:3 C:3 C:3 C:3 C:3 C:3 C:3 C:3 C:3 C:3 C:3 C:3 C:3 C:3 C:3 C:3 C:3 C:3 C:3 C:3 C:3 C:3 C:3 C:3 C:3 C:3 C:3 C:3 C:3 C:3 C:3 C:3 C:3 C:3 C:3 C:3 C:3 C:3 C:3 C:3 C:3 C:3 C:3 C:3 C:3 C:3 C:3 C:3 C:3 C:3 C:3 C:3 C:3 C:3 C:3 C:3 C:3 C:3 C:3 C:3 C:3 C:3 C:3 C:3 C:3 C:3 C:3 C:3 C:3 C:3 C:3 C:3 : : : : : : : :        ?+ ?+ ?+ ?+ ?+ ?+ ?+ ?+ ?+ ?+ ?+ ?+ ?+ ?+ ?+ ?+ ?+ ?+ ?+ ?+ ?+ ?+ ?+ ?+ ?+ ?+ ?+ ?+ ?+ ?+ ?+ ?+ ?+ ?+ ?+ ?+ ?+ ?+ ?+ ?+ ?+ ?+ ?+ ?+ ?+ ?+ ?+ ?+ ?+ ?+ ?+ ?+ ?+ ?+ ?+ ?+ ?+ ?+ ?+ ?+ ?+ ?+ ?+ ?+ ?+ ?+ ?+ ?+ ?+ ?+ ?+ ?+ ?+ ?+ ?+ ?+ ?+ ?+ ?+ ?+ ?+ ?+ ?+ ?+ ?+ ?+ ?+ ?+ ?+ + + + + + + + C:+ C:+ C:+ C:+ C:+ C:+ C:+ C:+ C:+ C:+ C:+ C:+ C:+ C:+ C:+ C:+ C:+ C:+ C:+ C:+ C:+ C:+ C:+ C:+ C:+ C:+ C:+ C:+ C:+ C:+ C:+ C:+ C:+ C:+ C:+ C:+ C:+ C:+ C:+ C:+ C:+ C:+ C:+ C:+ C:+ C:+ C:+ C:+ C:+ C:+ C:+ C:+ C:+ C:+ C:+ C:+ C:+ C:+ C:+ C:+ C:+ C:+ C:+ C:+ C:+ C:+ C:+ C:+ C:+ C:+ C:+ C:+ C:+ C:+ C:+ C:+ C:+ C:+ C:+ C:+ C:+ C: C: C: C: C: C: C: C:        A8. A8. A8. A8. A8. A8. A8. A8. A8. A8. A8. A8. A8. A8. A8. A8. A8. A8. A8. A8. A8. A8. A8. A8. A8. A8. A8. A8. A8. A8. A8. A8. A8. A8. A8. A8. A8. A8. A8. A8. A8. A8. A8. A8. A8. A8. A8. A8. A8. A8. A8. A8. A8. A8. A8. A8. A8. A8. A8. A8. A8. A8. A8. A8. A8. A8. A8. A8. A8. A8. A8. A8. A8. A8. A8. A8. A8. A8. A8. A8. A8. A8. A8. A8. A8. A8. A8. A8. A8. . . . . . . . ?7. ?7. ?7. ?7. ?7. ?7. ?7. ?7. ?7. ?7. ?7. ?7. ?7. ?7. ?7. ?7. ?7. ?7. ?7. ?7. ?7. ?7. ?7. ?7. ?7. ?7. ?7. ?7. ?7. ?7. ?7. ?7. ?7. ?7. ?7. ?7. ?7. ?7. ?7. ?7. ?7. ?7. ?7. ?7. ?7. . . . >5. >5. >5. >5. >5. >5. >5. >5. >5. >5. >5. >5. >5. >5. >5. >5. >5. >5. >5. >5. >5. >5. >5. >5. >5. >5. >5. >5. >5. >5. >5. >5. >5. >5 >5 >5 >5 >5 >5 >5 >5 >5 >5 >5 >5    ?7' ?7' ?7' ?7' ?7' ?7' ?7' ?7' ?7' ?7' ?7' ?7' ?7' ?7' ?7' ?7' ?7' ?7' ?7' ?7' ?7' ?7' ?7' ?7' ?7' ?7' ?7' ?7' ?7' ?7' ?7' ?7' ?7' ?7' ?7' ?7' ?7' ?7' ?7' ?7' ?7' ?7' ?7' ?7' ?7' ?7' ?7' ?7' ?7' ?7' ?7' ?7' ?7' ?7' ?7' ?7' ?7' ?7' ?7' ?7' ?7' ?7' ?7' ?7' ?7' ?7' ?7' ?7' ?7' ?7' ?7' ?7' ?7' ?7' ?7' ?7' ?7' ?7' ?7' ?7' ?7' ?7' ?7' ?7' ?7' ?7' ?7' ?7' ?7' ?7 ?7 ?7 ?7 ?7 ?7 ?7 ?7. ?7. ?7. ?7. ?7. ?7. ?7. ?7. ?7. ?7. ?7. ?7. ?7. ?7. ?7. ?7. ?7. ?7. ?7. ?7. ?7. ?7. ?7. ?7. ?7. ?7. ?7. ?7. ?7. ?7. ?7. ?7. ?7. ?7. ?7. ?7. ?7. ?7. ?7. ?7. ?7. ?7. ?7. ?7. ?7. ?7. ?7. ?7. ?7. ?7. ?7. ?7. ?7. ?7. ?7. ?7. ?7. ?7. ?7. ?7. ?7. ?7. ?7. ?7. ?7. ?7. ?7. ?7. ?7. ?7. ?7. ?7. ?7. ?7. ?7. ?7. ?7. ?7. ?7. ?7. ?7. . . . . . . . .        C3 C3 C3 C3 C3 C3 C3 C3 C3 C3 C3 C3 C3 C3 C3 C3 C3 C3 C3 C3 C3 C3 C3 C3 C3 C3 C3 C3 C3 C3 C3 C3 C3 C3 C3 C3 C3 C3 C3 C3 C3 C3 C3 C3 C3 C3 C3 C3 C3 C3 C3 C3 C3 C3 C3 C3 C3 C3 C3 C3 C3 C3 C3 C3 C3 C3 C3 C3 C3 C3 C3 C3 C3 C3 C3 C3 C3 C3 C3 C3 C3 C3 C3 C3 C3 C3 C3 C3 C3 C C C C C C C C- C- C- C- C- C- C- C- C- C- C- C- C- C- C- C- C- C- C- C- C- C- C- C- C- C- C- C- C- C- C- C- C- C- C- C- C- C- C- C- C- C- C- C- C- C- C- C- C- C- C- C- C- C- C- C- C- C- C- C- C- C- C- C- C- C- C- C- C- C- C- C- C- C- C- C- C- C- C- C- C- - - - - - - - -        A0 A0 A0 A0 A0 A0 A0 A0 C0 C0 C0 C0 C0 C0 C0 C0 A0 A0 A0 A0 A0 A0 A0 A0 C0 C0 C0 C0 C0 C0 C0 C0 A0 A0 A0 A0 A0 A0 A0 A0 C0 C0 C0 C0 C0 C C C @/ @/ @/ @/ @/ @/ @/ @/ @/ @/ @/ @/ @/ @/ @/ @/ @/ @/ @/ @/ @/ @/ @/ @/ @/ @/ @/ @/ @/ @/ @/ @/ @/ @/ @/ @/ @/ @/ @/ @/ @/ @/ @/ @/ @/    A- A- A- A- A- A- A- A- A- A- A- A- A- A- A- A- A- A- A- A- A- A- A- A- A- A- A- A- A- A- A- A- A- A- A- A- A- A- A- A- A- A- A- A- A- A A A A+ A+ A+ A+ A+ A+ A+ A+ A+ A+ A+ A+ A+ A+ A+ A+ A+ A+ A+ A+ A+ A+ A+ A+ A+ A+ A+ A+ A+ A+ A+ A+ A+ A+ A+ A+ A+ A+ A+ A+ A+ + + + +    @0 @0 @0 @0 @0 @0 @0 @0 @0 @0 @0 @0 @0 @0 @0 @0 @0 @0 @0 @0 @0 @0 @0 @0 @0 @0 @0 @0 @0 @0 @0 @0 @0 @0 @0 @0 @0 @0 @0 @0 @0 @0 @0 @0 @0 0 0 0 C0 C0 C0 C0 C0 C0 C0 C0 C0 C0 C0 C0 C0 C0 C0 C0 C0 C0 C0 C0 C0 C0 C0 C0 C0 C0 C0 C0 C0 C0 C0 C0 C0 C0 C0 C0 C0 C0 C0 C0 C0 C0 C0 C0 C0 0 0 0 FC0 FC0 FC0 FC0 FC0 FC0 FC0 FC0 FC0 FC0 FC0 FC0 FC0 FC0 FC0 FC0 FC0 FC0 FC0 FC0 FC0 FC0 FC0 FC0 FC0 FC0 FC0 FC0 FC0 FC0 FC0 FC0 FC0 FC0 FC0 FC0 FC0 FC0 FC0 FC0 FC0 FC0 FC0 FC0 FC0 C0 C0 C0 IC0 IC0 IC0 IC0 IC0 IC0 IC0 IC0 IC0 IC0 IC0 IC0 IC0 IC0 IC0 IC0 IC0 IC0 IC0 IC0 IC0 IC0 IC0 IC0 IC0 IC0 IC0 IC0 IC0 IC0 IC0 IC0 IC0 IC IC IC IC IC IC IC IC I I I I    HH4 HH4 HH4 HH4 HH4 HH4 HH4 HH4 HH4 HH4 HH4 HH4 HH4 HH4 HH4 HH4 HH4 HH4 HH4 HH4 HH4 HH4 HH4 HH4 HH4 HH4 HH4 HH4 HH4 HH4 HH4 HH4 HH4 HH4 HH4 HH4 HH4 HH4 HH4 HH4 HH4 HH4 HH4 HH4 HH4 HH4 HH4 HH4 HH4 HH4 HH4 HH4 HH4 HH4 HH4 HH4 HH4 HH4 HH4 HH4 HH4 HH4 HH4 HH4 HH4 HH4 HH4 HH4 HH4 HH4 HH4 HH4 HH4 HH4 HH4 HH4 HH4 HH4 HH4 HH4 HH4 HH4 HH4 HH4 HH4 HH4 HH4 HH4 HH4 H4 H4 H4 H4 H4 H4 H4 HC4 HC4 HC4 HC4 HC4 HC4 HC4 HC4 HC4 HC4 HC4 HC4 HC4 HC4 HC4 HC4 HC4 HC4 HC4 HC4 HC4 HC4 HC4 HC4 HC4 HC4 HC4 HC4 HC4 HC4 HC4 HC4 HC4 HC4 HC4 HC4 HC4 HC4 HC4 HC4 HC4 HC4 HC4 HC4 HC4 HC4 HC4 HC4 HC4 HC4 HC4 HC4 HC4 HC4 HC4 HC4 HC4 HC4 HC4 HC4 HC4 HC4 HC4 HC4 HC4 HC4 HC4 HC4 HC4 HC4 HC4 HC4 HC4 HC4 HC4 HC4 HC4 HC4 HC4 HC4 HC4 C C C C C C C C        F@0 F@0 F@0 F@0 F@0 F@0 F@0 F@0 H@0 H@0 H@0 H@0 H@0 H@0 H@0 H@0 F@0 F@0 F@0 F@0 F@0 F@0 F@0 F@0 H@0 H@0 H@0 H@0 H@0 H@0 H@0 H@0 F@0 F@0 F@0 F@0 F@0 F@0 F@0 F@0 H@0 H@0 H@0 H@0 H@0 H@0 H@0 H@0 D@0 D@0 D@0 D@0 D@0 D@0 D@0 D@0 D@0 D@0 D@0 D@0 D@0 D@0 D@0 D@0 D@0 D@0 D@0 D@0 D@0 D@0 D@0 D@0 D@0 D@0 D@0 D@0 D@0 D@0 D@0 D@0 D@0 D@0 D@0 D@0 D@0 D@0 D@0 D@0 D@0 D0 D0 D0 D0 0 0 0 F>0 F>0 F>0 F>0 F>0 F>0 F>0 F>0 F>0 F>0 F>0 F>0 F>0 F>0 F>0 F>0 F>0 F>0 F>0 F>0 F>0 F>0 F>0 F>0 F>0 F>0 F>0 F>0 F>0 F>0 F>0 F>0 F>0 F>0 F>0 F>0 F>0 F>0 F>0 F>0 F>0 F>0 F>0 F>0 F>0 F0 F0 F0 F<0 F<0 F<0 F<0 F<0 F<0 F<0 F<0 F<0 F<0 F<0 F<0 F<0 F<0 F<0 F<0 F<0 F<0 F<0 F<0 F<0 F<0 F<0 F<0 F<0 F<0 F<0 F<0 F<0 F<0 F<0 F<0 F<0 F< F< F< F< F< F< F< F< < < < <    DD5 DD5 DD5 DD5 DD5 DD5 DD5 DD5 DD5 DD5 DD5 DD5 DD5 DD5 DD5 DD5 DD5 DD5 DD5 DD5 DD5 DD5 DD5 DD5 DD5 DD5 DD5 DD5 DD5 DD5 DD5 DD5 DD5 DD5 DD5 DD5 DD5 DD5 DD5 DD5 DD5 DD5 DD5 DD5 DD5 DD5 DD5 DD5 DD5 DD5 DD5 DD5 DD5 DD5 DD5 DD5 DD5 DD5 DD5 DD5 DD5 DD5 DD5 DD5 DD5 DD5 DD5 DD5 DD5 DD5 DD5 DD5 DD5 DD5 DD5 DD5 DD5 DD5 DD5 DD5 DD5 DD5 DD5 DD5 DD5 DD5 DD5 DD5 DD5 DD5 DD5 DD5 DD5 DD5 DD5 DD5 DDH5 DDH5 DDH5 DDH5 DDH5 DDH5 DDH5 DDH5 DDH5 DDH5 DDH5 DDH5 DDH5 DDH5 DDH5 DDH5 DDH5 DDH5 DDH5 DDH5 DDH5 DDH5 DDH5 DDH5 DDH5 DDH5 DDH5 DDH5 DDH5 DDH5 DDH5 DDH5 DDH5 DDH5 DDH5 DDH5 DDH5 DDH5 DDH5 DDH5 DDH5 DDH5 DDH5 DDH5 DDH5 DDH5 DDH5 DDH5 DDH5 DDH5 DDH5 DDH5 DDH5 DDH5 DDH5 DDH5 DDH5 DDH5 DDH5 DDH5 DDH5 DDH5 DDH5 DDH5 DDH5 DDH5 DDH5 DDH5 DDH5 DDH5 DDH5 DDH5 DDH5 DDH5 DDH5 DDH5 DDH5 DDH5 DDH5 DDH5 DDH5 DH DH DH DH DH DH DH DH D D D D D D D DM8 DM8 DM8 DM8 DM8 DM8 DM8 DM8 DM8 DM8 DM8 DM8 DM8 DM8 DM8 DM8 DM8 DM8 DM8 DM8 DM8 DM8 DM8 DM8 DM8 DM8 DM8 DM8 DM8 DM8 DM8 DM8 DM8 DM8 DM8 DM8 DM8 DM8 DM8 DM8 DM8 DM8 DM8 DM8 DM8 DM8 DM8 DM8 DM8 DM8 DM8 DM8 DM8 DM8 DM8 DM8 DM8 DM8 DM8 DM8 DM8 DM8 DM8 DM8 DM8 DM8 DM8 DM8 DM8 DM8 DM8 DM8 DM8 DM8 DM8 DM8 DM8 DM8 DM8 DM8 DM8 DM8 DM8 DM8 DM8 DM8 DM8 DM8 DM8 D8 D8 D8 D8 D8 D8 D8 DHD8 DHD8 DHD8 DHD8 DHD8 DHD8 DHD8 DHD8 DHD8 DHD8 DHD8 DHD8 DHD8 DHD8 DHD8 DHD8 DHD8 DHD8 DHD8 DHD8 DHD8 DHD8 DHD8 DHD8 DHD8 DHD8 DHD8 DHD8 DHD8 DHD8 DHD8 DHD8 DHD8 DHD8 DHD8 DHD8 DHD8 DHD8 DHD8 DHD8 DHD8 DHD8 DHD8 DHD8 DHD8 DHD8 DHD8 DHD8 DHD8 DHD8 DHD8 DHD8 DHD8 DHD8 DHD8 DHD8 DHD8 DHD8 DHD8 DHD8 DHD8 DHD8 DHD8 DHD8 DHD8 DHD8 HD8 HD8 HD8 HD8 HD8 HD8 HD8 HD8 HD8 HD8 HD8 HD8 HD8 HD8 HD8 HD HD HD HD HD HD HD HD        FC< FC< FC< FC< FC< FC< FC< FC< FC< FC< FC< FC< FC< FC< FC< FC< FC< FC< FC< FC< FC< FC< FC< FC< FC< FC< FC< FC< FC< FC< FC< FC< FC< FC< FC< FC< FC< FC< FC< FC< FC< FC< FC< FC< FC< FC< FC< FC< FC< FC< FC< FC< FC< FC< FC< FC< FC< FC< FC< FC< FC< FC< FC< FC< FC< FC< FC< FC< FC< FC< FC< FC< FC< FC< FC< FC< FC< FC< FC< FC< FC< FC< FC< FC< FC< FC< FC< FC< FC< < < < < < < < DA< DA< DA< DA< DA< DA< DA< DA< DA< DA< DA< DA< DA< DA< DA< DA< DA< DA< DA< DA< DA< DA< DA< DA< DA< DA< DA< DA< DA< DA< DA< DA< DA< DA< DA< DA< DA< DA< DA< DA< DA< DA< DA< DA< DA< < < < C@< C@< C@< C@< C@< C@< C@< C@< C@< C@< C@< C@< C@< C@< C@< C@< C@< C@< C@< C@< C@< C@< C@< C@< C@< C@< C@< C@< C@< C@< C@< C@< C@< C@ C@ C@ C@ C@ C@ C@ C@ C@ C@ C@ C@    AD5 AD5 AD5 AD5 AD5 AD5 AD5 AD5 AD5 AD5 AD5 AD5 AD5 AD5 AD5 AD5 AD5 AD5 AD5 AD5 AD5 AD5 AD5 AD5 AD5 AD5 AD5 AD5 AD5 AD5 AD5 AD5 AD5 AD5 AD5 AD5 AD5 AD5 AD5 AD5 AD5 AD5 AD5 AD5 AD5 AD5 AD5 AD5 AD5 AD5 AD5 AD5 AD5 AD5 AD5 AD5 AD5 AD5 AD5 AD5 AD5 AD5 AD5 AD5 AD5 AD5 AD5 AD5 AD5 AD5 AD5 AD5 AD5 AD5 AD5 AD5 AD5 AD5 AD5 AD5 AD5 AD5 AD5 AD5 AD5 AD5 AD5 AD5 AD5 D5 D5 D5 D5 D5 D5 D5 D<5 D<5 D<5 D<5 D<5 D<5 D<5 D<5 D<5 D<5 D<5 D<5 D<5 D<5 D<5 D<5 D<5 D<5 D<5 D<5 D<5 D<5 D<5 D<5 D<5 D<5 D<5 D<5 D<5 D<5 D<5 D<5 D<5 D<5 D<5 D<5 D<5 D<5 D<5 D<5 D<5 D<5 D<5 D<5 D<5 D<5 D<5 D<5 D<5 D<5 D<5 D<5 D<5 D<5 D<5 D<5 D<5 D<5 D<5 D<5 D<5 D<5 D<5 D<5 D<5 D<5 D<5 D<5 D<5 D<5 D<5 D<5 D<5 D<5 D<5 D<5 D<5 D<5 D<5 D<5 D<5 < < < < < < < <        A, A, A, A, A, A, A, A, A, A, A, A, A, A, A, A, A, A, A, A, A, A, A, A, A, A, A, A, A, A, A, A, A, A, A, A, A, A, A, A, A, A, A, A, A, A, A, A, A, A, A, A, A, A, A, A, A, A, A, A, A, A, A, A, A, A, A, A, A, A, A, A, A, A, A, A, A, A, A, A, A, A, A, A, A, A, A, A, A, , , , , , , , D<, D<, D<, D<, D<, D<, D<, D<, D<, D<, D<, D<, D<, D<, D<, D<, D<, D<, D<, D<, D<, D<, D<, D<, D<, D<, D<, D<, D<, D<, D<, D<, D<, D<, D<, D<, D<, D<, D<, D<, D<, D<, D<, D<, D<, D<, D<, D<, D<, D<, D<, D<, D<, D<, D<, D<, D<, D<, D<, D<, D<, D<, D<, D<, D<, D<, D<, D<, D<, D<, D<, D<, D<, D<, D<, D<, D<, D<, D<, D<, D<, D< D< D< D< D< D< D< D<        C:0 C:0 C:0 C:0 C:0 C:0 C:0 C:0 C:0 C:0 C:0 C:0 C:0 C:0 C:0 C:0 C:0 C:0 C:0 C:0 C:0 C:0 C:0 C:0 C:0 C:0 C:0 C:0 C:0 C:0 C:0 C:0 C:0 C:0 C:0 C:0 C:0 C:0 C:0 C:0 C:0 C:0 C:0 C:0 C:0 C:0 C:0 C:0 C:0 C:0 C:0 C:0 C:0 C:0 C:0 C:0 C:0 C:0 C:0 C:0 C:0 C:0 C:0 C:0 C:0 C:0 C:0 C:0 C:0 C:0 C:0 C:0 C:0 C:0 C:0 C:0 C:0 C:0 C:0 C:0 C:0 C:0 C:0 C:0 C:0 C:0 C:0 C:0 C:0 0 0 0 0 0 0 0 A80 A80 A80 A80 A80 A80 A80 A80 A80 A80 A80 A80 A80 A80 A80 A80 A80 A80 A80 A80 A80 A80 A80 A80 A80 A80 A80 A80 A80 A80 A80 A80 A80 A80 A80 A80 A80 A80 A80 A80 A80 A80 A80 A80 A80 0 0 0 @70 @70 @70 @70 @70 @70 @70 @70 @70 @70 @70 @70 @70 @70 @70 @70 @70 @70 @70 @70 @70 @70 @70 @70 @70 @70 @70 @70 @70 @70 @70 @70 @70 @7 @7 @7 @7 @7 @7 @7 @7 @7 @7 @7 @7    A<) A<) A<) A<) A<) A<) A<) A<) A<) A<) A<) A<) A<) A<) A<) A<) A<) A<) A<) A<) A<) A<) A<) A<) A<) A<) A<) A<) A<) A<) A<) A<) A<) A<) A<) A<) A<) A<) A<) A<) A<) A<) A<) A<) A<) A<) A<) A<) A<) A<) A<) A<) A<) A<) A<) A<) A<) A<) A<) A<) A<) A<) A<) A<) A<) A<) A<) A<) A<) A<) A<) A<) A<) A<) A<) A<) A<) A<) A<) A<) A<) A<) A<) A<) A<) A<) A<) A<) A<) A< A< A< A< A< A< A< A<0 A<0 A<0 A<0 A<0 A<0 A<0 A<0 A<0 A<0 A<0 A<0 A<0 A<0 A<0 A<0 A<0 A<0 A<0 A<0 A<0 A<0 A<0 A<0 A<0 A<0 A<0 A<0 A<0 A<0 A<0 A<0 A<0 A<0 A<0 A<0 A<0 A<0 A<0 A<0 A<0 A<0 A<0 A<0 A<0 A<0 A<0 A<0 A<0 A<0 A<0 A<0 A<0 A<0 A<0 A<0 A<0 A<0 A<0 A<0 A<0 A<0 A<0 A<0 A<0 A<0 A<0 A<0 A<0 A<0 A<0 A<0 A<0 A<0 A<0 A<0 A<0 A<0 A<0 A<0 A<0 0 0 0 0 0 0 0 0        <5 <5 <5 <5 <5 <5 <5 <5 <5 <5 <5 <5 <5 <5 <5 <5 <5 <5 <5 <5 <5 <5 <5 <5 <5 <5 <5 <5 <5 <5 <5 <5 <5 <5 <5 <5 <5 <5 <5 <5 <5 <5 <5 <5 <5 <5 <5 <5 <5 <5 <5 <5 <5 <5 <5 <5 <5 <5 <5 <5 <5 <5 <5 <5 <5 <5 <5 <5 <5 <5 <5 <5 <5 <5 <5 <5 <5 <5 <5 <5 <5 <5 <5 <5 <5 <5 <5 <5 <5 < < < < < < < <0 <0 <0 <0 <0 <0 <0 <0 <0 <0 <0 <0 <0 <0 <0 <0 <0 <0 <0 <0 <0 <0 <0 <0 <0 <0 <0 <0 <0 <0 <0 <0 <0 <0 <0 <0 <0 <0 <0 <0 <0 <0 <0 <0 <0 <0 <0 <0 <0 <0 <0 <0 <0 <0 <0 <0 <0 <0 <0 <0 <0 <0 <0 <0 <0 <0 <0 <0 <0 <0 <0 <0 <0 <0 <0 <0 <0 <0 <0 <0 <0 0 0 0 0 0 0 0 0        A, A, A, A, A, A, A, A, A, A, A, A, A, A, A, A, A, A, A, A, A, A, A, A, A, A, A, A, A, A, A, A, A, A, A, A, A, A, A, A, A, A, A, A, A, A, A, A, A, A, A, A, A, A, A, A, A, A, A, A, A, A, A, A, A, A, A, A, A, A, A, A, A, A, A, A, A, A, A, A, A, A, A, A, A, A, A, A, A, A A A A A A A A+ A+ A+ A+ A+ A+ A+ A+ A+ A+ A+ A+ A+ A+ A+ A+ A+ A+ A+ A+ A+ A+ A+ A+ A+ A+ A+ A+ A+ A+ A+ A+ A+ A+ A+ A+ A+ A+ A+ A+ A+ A+ A+ A+ A+ A A A A) A) A) A) A) A) A) A) A) A) A) A) A) A) A) A) A) A) A) A) A) A) A) A) A) A) A) A) A) A) A) A) A) A) A) A) A) A) A) A) A) A) A) A) A) A A A A/ A/ A/ A/ A/ A/ A/ A/ A/ A/ A/ A/ A/ A/ A/ A/ A/ A/ A/ A/ A/ A/ A/ A/ A/ A/ A/ A/ A/ A/ A/ A/ A/ A/ A/ A/ A/ A/ A/ A/ A/ A/ A/ A/ A/ A/ A/ A/ A/ A/ A/ A/ A/ A/ A/ A/ A/ A/ A/ A/ A/ A/ A/ A/ A/ A/ A/ A/ A/ A/ A/ A/ A/ A/ A/ A/ A/ A/ A/ A/ A/ A/ A/ A/ A/ A/ A/ A/ A/ A/ A/ A/ A/ A/ A/ A/ AC/ AC/ AC/ AC/ AC/ AC/ AC/ AC/ AC/ AC/ AC/ AC/ AC/ AC/ AC/ AC/ AC/ AC/ AC/ AC/ AC/ AC/ AC/ AC/ AC/ AC/ AC/ AC/ AC/ AC/ AC/ AC/ AC/ AC/ AC/ AC/ AC/ AC/ AC/ AC/ AC/ AC/ AC/ AC/ AC/ AC/ AC/ AC/ AC/ AC/ AC/ AC/ AC/ AC/ AC/ AC/ AC/ AC/ AC/ AC/ AC/ AC/ AC/ AC/ AC/ AC/ AC/ AC/ AC/ AC/ AC/ AC/ AC/ AC/ AC/ AC/ AC/ AC/ AC/ AC/ AC/ C C C C C C C C        ?H0 ?H0 ?H0 ?H0 ?H0 ?H0 ?H0 ?H0 ?H0 ?H0 ?H0 ?H0 ?H0 ?H0 ?H0 ?H0 ?H0 ?H0 ?H0 ?H0 ?H0 ?H0 ?H0 ?H0 ?H0 ?H0 ?H0 ?H0 ?H0 ?H0 ?H0 ?H0 ?H0 ?H0 ?H0 ?H0 ?H0 ?H0 ?H0 ?H0 ?H0 ?H0 ?H0 ?H0 ?H0 ?H0 ?H0 ?H0 ?H0 ?H0 ?H0 ?H0 ?H0 ?H0 ?H0 ?H0 ?H0 ?H0 ?H0 ?H0 ?H0 ?H0 ?H0 ?H0 ?H0 ?H0 ?H0 ?H0 ?H0 ?H0 ?H0 ?H0 ?H0 ?H0 ?H0 ?H0 ?H0 ?H0 ?H0 ?H0 ?H0 ?H0 ?H0 ?H0 ?H0 ?H0 ?H0 ?H0 ?H0 ?0 ?0 ?0 ?0 ?0 ?0 ?0 ?C0 ?C0 ?C0 ?C0 ?C0 ?C0 ?C0 ?C0 ?C0 ?C0 ?C0 ?C0 ?C0 ?C0 ?C0 ?C0 ?C0 ?C0 ?C0 ?C0 ?C0 ?C0 ?C0 ?C0 ?C0 ?C0 ?C0 ?C0 ?C0 ?C0 ?C0 ?C0 ?C0 ?C0 ?C0 ?C0 ?C0 ?C0 ?C0 ?C0 ?C0 ?C0 ?C0 ?C0 ?C0 ?C0 ?C0 ?C0 ?C0 ?C0 ?C0 ?C0 ?C0 ?C0 ?C0 ?C0 ?C0 ?C0 ?C0 ?C0 ?C0 ?C0 ?C0 ?C0 ?C0 ?C0 ?C0 ?C0 ?C0 ?C0 ?C0 ?C0 ?C0 ?C0 ?C0 ?C0 ?C0 ?C0 ?C0 ?C0 ?C0 C C C C C C C C        C?$ C?$ C?$ C?$ C?$ C?$ C?$ C?$ C?$ C?$ C?$ C?$ C?$ C?$ C?$ C?$ C?$ C?$ C?$ C?$ C?$ C?$ C?$ C?$ C?$ C?$ C?$ C?$ C?$ C?$ C?$ C?$ C?$ C?$ C?$ C?$ C?$ C?$ C?$ C?$ C?$ C?$ C?$ C?$ C?$ C?$ C?$ C?$ C?$ C?$ C?$ C?$ C?$ C?$ C?$ C?$ C?$ C?$ C?$ C?$ C?$ C?$ C?$ C?$ C?$ C?$ C?$ C?$ C?$ C?$ C?$ C?$ C?$ C?$ C?$ C?$ C?$ C?$ C?$ C?$ C?$ C?$ C?$ C?$ C?$ C?$ C?$ C?$ C?$ C$ C$ C$ C$ C$ C$ C$ C>$ C>$ C>$ C>$ C>$ C>$ C>$ C>$ C>$ C>$ C>$ C>$ C>$ C>$ C>$ C>$ C>$ C>$ C>$ C>$ C>$ C>$ C>$ C>$ C>$ C>$ C>$ C>$ C>$ C>$ C>$ C>$ C>$ C>$ C>$ C>$ C>$ C>$ C>$ C>$ C>$ C>$ C>$ C>$ C>$ C$ C$ C$ C<$ C<$ C<$ C<$ C<$ C<$ C<$ C<$ C<$ C<$ C<$ C<$ C<$ C<$ C<$ C<$ C<$ C<$ C<$ C<$ C<$ C<$ C<$ C<$ C<$ C<$ C<$ C<$ C<$ C<$ C<$ C<$ C<$ C< C< C< C< C< C< C< C< C< C< C< C< C C C C) C) C) C) C) C) C) C) C) C) C) C) C) C) C) C) C) C) C) C) C) C) C) C) C) C) C) C) C) C) C) C) C) C) C) C) C) C) C) C) C) C) C) C) C) C) C) C) C) C) C) C) C) C) C) C) C) C) C) C) C) C) C) C) C) C) C) C) C) C) C) C) C) C) C) C) C) C) C) C) C) C) C) C) C) C) C) C) C) C) C) C) C) C) C) C) CH) CH) CH) CH) CH) CH) CH) CH) CH) CH) CH) CH) CH) CH) CH) CH) CH) CH) CH) CH) CH) CH) CH) CH) CH) CH) CH) CH) CH) CH) CH) CH) CH) CH) CH) CH) CH) CH) CH) CH) CH) CH) CH) CH) CH) CH) CH) CH) CH) CH) CH) CH) CH) CH) CH) CH) CH) CH) CH) CH) CH) CH) CH) CH) CH) CH) CH) CH) CH) CH) CH) CH) CH) CH) CH) CH) CH) CH) CH) CH) CH) H H H H H H H H        AM, AM, AM, AM, AM, AM, AM, AM, AM, AM, AM, AM, AM, AM, AM, AM, AM, AM, AM, AM, AM, AM, AM, AM, AM, AM, AM, AM, AM, AM, AM, AM, AM, AM, AM, AM, AM, AM, AM, AM, AM, AM, AM, AM, AM, AM, AM, AM, AM, AM, AM, AM, AM, AM, AM, AM, AM, AM, AM, AM, AM, AM, AM, AM, AM, AM, AM, AM, AM, AM, AM, AM, AM, AM, AM, AM, AM, AM, AM, AM, AM, AM, AM, AM, AM, AM, AM, AM, AM, A, A, A, A, A, A, A, AH, AH, AH, AH, AH, AH, AH, AH, AH, AH, AH, AH, AH, AH, AH, AH, AH, AH, AH, AH, AH, AH, AH, AH, AH, AH, AH, AH, AH, AH, AH, AH, AH, AH, AH, AH, AH, AH, AH, AH, AH, AH, AH, AH, AH, AH, AH, AH, AH, AH, AH, AH, AH, AH, AH, AH, AH, AH, AH, AH, AH, AH, AH, AH, AH, AH, AH, AH, AH, AH, AH, AH, AH, AH, AH, AH, AH, AH, AH, AH, AH, H H H H H H H H        DDD) DDD) DDD) DDD) DDD) DDD) DDD) DDD) DDD) DDD) DDD) DDD) DDD) DDD) DDD) DDD) DDD) DDD) DDD) DDD) DDD) DDD) DDD) DDD) DDD) DDD) DDD) DDD) DDD) DDD) DDD) DDD) DDD) DDD) DDD) DDD) DDD) DDD) DDD) DDD) DDD) DDD) DDD) DDD) DDD) DDD) DDD) DDD) DDD) DDD) DDD) DDD) DDD) DDD) DDD) DDD) DDD) DDD) DDD) DDD) DDD) DDD) DDD) DDD) DDD) DDD) DDD) DDD) DDD) DDD) DDD) DDD) DDD) DDD) DDD) DDD) DDD) DDD) DDD) DDD) DDD) DDD) DDD) DDD) DDD) DDD) DDD) DDD) DDD) DD) DD) DD) DD) DD) DD) DD) DCD) DCD) DCD) DCD) DCD) DCD) DCD) DCD) DCD) DCD) DCD) DCD) DCD) DCD) DCD) DCD) DCD) DCD) DCD) DCD) DCD) DCD) DCD) DCD) DCD) DCD) DCD) DCD) DCD) DCD) DCD) DCD) DCD) DCD) DCD) DCD) DCD) DCD) DCD) DCD) DCD) DCD) DCD) DCD) DCD) DD) DD) DD) DDA) DDA) DA) DA) DA) DA) DA) DA) DA) DA) DA) DA) DA) DA) DA) DA) DA) DA) DA) DA) DA) DA) DA) DA) DA) DA) DA) DA) DA) DA) DA) DA) DA) DA DA DA DA DA DA DA DA DA DA DA DA D D D DJA/ DJA/ DJA/ DJA/ DJA/ DJA/ DJA/ DJA/ DJA/ DJA/ DJA/ DJA/ DJA/ DJA/ DJA/ DJA/ DJA/ DJA/ DJA/ DJA/ DJA/ DJA/ DJA/ DJA/ DJA/ DJA/ DJA/ DJA/ DJA/ DJA/ DJA/ DJA/ DJA/ DJA/ DJA/ DJA/ DJA/ DJA/ DJA/ DJA/ DJA/ DJA/ DJA/ DJA/ DJA/ DA/ DA/ DA/ DAH/ DAH/ DAH/ DAH/ DAH/ DAH/ DAH/ DAH/ DAH/ DAH/ DAH/ DAH/ DAH/ DAH/ DAH/ DAH/ DAH/ DAH/ DAH/ DAH/ DAH/ DAH/ DAH/ DAH/ DAH/ DAH/ DAH/ DAH/ DAH/ DAH/ DAH/ DAH/ DAH/ DAH/ DAH/ DAH/ DAH/ DAH/ DAH/ DAH/ DAH/ H/ H/ H/ H/ / / / CG/ CG/ CG/ CG/ CG/ CG/ CG/ CG/ CG/ CG/ CG/ CG/ CG/ CG/ CG/ CG/ CG/ CG/ CG/ CG/ CG/ CG/ CG/ CG/ CG/ CG/ CG/ CG/ CG/ CG/ CG/ CG/ CG/ CG/ CG/ CG/ CG/ CG/ CG/ CG/ CG/ CG/ CG/ CG/ CG/ C/ C/ C/ CH/ CH/ CH/ CH/ CH/ CH/ CH/ CH/ CH/ CH/ CH/ CH/ CH/ CH/ CH/ CH/ CH/ CH/ CH/ CH/ CH/ CH/ CH/ CH/ CH/ CH/ CH/ CH/ CH/ CH/ CH/ CH/ CH/ CH CH CH CH CH CH CH CH H H H H    JJ JJ JJ JJ JJ JJ JJ JJ JJ JJ JJ JJ JJ JJ JJ JJ JJ JJ JJ JJ JJ JJ JJ JJ JJ JJ JJ JJ JJ JJ JJ JJ JJ JJ JJ JJ JJ JJ JJ JJ JJ JJ JJ JJ JJ J J J JH JH JH JH JH JH JH JH JH JH JH JH JH JH JH JH JH JH JH JH JH JH JH JH JH JH JH JH JH JH JH JH JH JH JH JH JH JH JH JH JH H H H H    CJ CJ CJ CJ CJ CJ CJ CJ CJ CJ CJ CJ CJ CJ CJ CJ CJ CJ CJ CJ CJ CJ CJ CJ CJ CJ CJ CJ CJ CJ CJ CJ CJ CJ CJ CJ CJ CJ CJ CJ CJ CJ CJ CJ CJ C C C CM CM CM CM CM CM CM CM CM CM CM CM CM CM CM CM CM CM CM CM CM CM CM CM CM CM CM CM CM CM CM CM CM CM CM CM CM CM CM CM CM M M M M    AK+ AK+ AK+ AK+ AK+ AK+ AK+ AK+ AK+ AK+ AK+ AK+ AK+ AK+ AK+ AK+ AK+ AK+ AK+ AK+ AK+ AK+ AK+ AK+ AK+ AK+ AK+ AK+ AK+ AK+ AK+ AK+ AK+ AK+ AK+ AK+ AK+ AK+ AK+ AK+ AK+ AK+ AK+ AK+ AK+ A+ A+ A+ AJ+ AJ+ AJ+ AJ+ AJ+ AJ+ AJ+ AJ+ AJ+ AJ+ AJ+ AJ+ AJ+ AJ+ AJ+ AJ+ AJ+ AJ+ AJ+ AJ+ AJ+ AJ+ AJ+ AJ+ AJ+ AJ+ AJ+ AJ+ AJ+ AJ+ AJ+ AJ+ AJ+ AJ+ AJ+ AJ+ AJ+ AJ+ AJ+ AJ+ AJ+ J+ J+ J+ J+ + + + ?H+ ?H+ ?H+ ?H+ ?H+ ?H+ ?H+ ?H+ ?H+ ?H+ ?H+ ?H+ ?H+ ?H+ ?H+ ?H+ ?H+ ?H+ ?H+ ?H+ ?H+ ?H+ ?H+ ?H+ ?H+ ?H+ ?H+ ?H+ ?H+ ?H+ ?H+ ?H+ ?H+ ?H+ ?H+ ?H+ ?H+ ?H+ ?H+ ?H+ ?H+ ?H+ ?H+ ?H+ ?H+ + + + >G+ >G+ >G+ >G+ >G+ >G+ >G+ >G+ >G+ >G+ >G+ >G+ >G+ >G+ >G+ >G+ >G+ >G+ >G+ >G+ >G+ >G+ >G+ >G+ >G+ >G+ >G+ >G+ >G+ >G+ >G+ >G+ >G+ >G >G >G >G >G >G >G >G >G >G >G >G    ?0 ?0 ?0 ?0 ?0 ?0 ?0 ?0 ?0 ?0 ?0 ?0 ?0 ?0 ?0 ?0 ?0 ?0 ?0 ?0 ?0 ?0 ?0 ?0 ?0 ?0 ?0 ?0 ?0 ?0 ?0 ?0 ?0 ?0 ?0 ?0 ?0 ?0 ?0 ?0 ?0 ?0 ?0 ?0 ?0 0 0 0 C<0 C<0 C<0 C<0 C<0 C<0 C<0 C<0 C<0 C<0 C<0 C<0 C<0 C<0 C<0 C<0 C<0 C<0 C<0 C<0 C<0 C<0 C<0 C<0 C<0 C<0 C<0 C<0 C<0 C<0 C<0 C<0 C<0 C<0 C<0 C<0 C<0 C<0 C<0 C<0 C<0 C<0 C<0 C<0 C<0 0 0 0 H?0 H?0 H?0 H?0 H?0 H?0 H?0 H?0 H?0 H?0 H?0 H?0 H?0 H?0 H?0 H?0 H?0 H?0 H?0 H?0 H?0 H?0 H?0 H?0 H?0 H?0 H?0 H?0 H?0 H?0 H?0 H?0 H?0 H?0 H?0 H?0 H?0 H?0 H?0 H?0 H?0 H?0 H?0 H?0 H?0 0 0 0 KC0 KC0 KC0 KC0 KC0 KC0 KC0 KC0 KC0 KC0 KC0 KC0 KC0 KC0 KC0 KC0 KC0 KC0 KC0 KC0 KC0 KC0 KC0 KC0 KC0 KC0 KC0 KC0 KC0 KC0 KC0 KC0 KC0 KC KC KC KC KC KC KC KC KC KC KC KC    OF OF OF OF OF OF OF OF OF OF OF OF OF OF OF OF OF OF OF OF OF OF OF OF OF OF OF OF OF OF OF OF OF OF OF OF OF OF OF OF OF OF OF OF OF O O O OD OD OD OD OD OD OD OD OD OD OD OD OD OD OD OD OD OD OD OD OD OD OD OD OD OD OD OD OD OD OD OD OD OD OD OD OD OD OD OD OD D D D D    HC HC HC HC HC HC HC HC HC HC HC HC HC HC HC HC HC HC HC HC HC HC HC HC HC HC HC HC HC HC HC HC HC HC HC HC HC HC HC HC HC HC HC HC HC H H H HA HA HA HA HA HA HA HA HA HA HA HA HA HA HA HA HA HA HA HA HA HA HA HA HA HA HA HA HA HA HA HA HA HA HA HA HA HA HA HA HA A A A A    FD0 FD0 FD0 FD0 FD0 FD0 FD0 FD0 FD0 FD0 FD0 FD0 FD0 FD0 FD0 FD0 FD0 FD0 FD0 FD0 FD0 FD0 FD0 FD0 FD0 FD0 FD0 FD0 FD0 FD0 FD0 FD0 FD0 FD0 FD0 FD0 FD0 FD0 FD0 FD0 FD0 FD0 FD0 FD0 FD0 F0 F0 F0 FC0 FC0 FC0 FC0 FC0 FC0 FC0 FC0 FC0 FC0 FC0 FC0 FC0 FC0 FC0 FC0 FC0 FC0 FC0 FC0 FC0 FC0 FC0 FC0 FC0 FC0 FC0 FC0 FC0 FC0 FC0 FC0 FC0 FC0 FC0 FC0 FC0 FC0 FC0 FC0 FC0 C0 C0 C0 C0 0 0 0 DA0 DA0 DA0 DA0 DA0 DA0 DA0 DA0 DA0 DA0 DA0 DA0 DA0 DA0 DA0 DA0 DA0 DA0 DA0 DA0 DA0 DA0 DA0 DA0 DA0 DA0 DA0 DA0 DA0 DA0 DA0 DA0 DA0 DA0 DA0 DA0 DA0 DA0 DA0 DA0 DA0 DA0 DA0 DA0 DA0 0 0 0 C@0 C@0 C@0 C@0 C@0 C@0 C@0 C@0 C@0 C@0 C@0 C@0 C@0 C@0 C@0 C@0 C@0 C@0 C@0 C@0 C@0 C@0 C@0 C@0 C@0 C@0 C@0 C@0 C@0 C@0 C@0 C@0 C@0 C@ C@ C@ C@ C@ C@ C@ C@ C@ C@ C@ C@    DHA) DHA) DHA) DHA) DHA) DHA) DHA) DHA) DHA) DHA) DHA) DHA) DHA) DHA) DHA) DHA) DHA) DHA) DHA) DHA) DHA) DHA) DHA) DHA) DHA) DHA) DHA) DHA) DHA) DHA) DHA) DHA) DHA) DHA) DHA) DHA) DHA) DHA) DHA) DHA) DHA) DHA) DHA) DHA) DHA) HA) HA) HA) AHA) AHA) AHA) AHA) AHA) AHA) AHA) AHA) AHA) AHA) AHA) AHA) AHA) AHA) AHA) AHA) AHA) AHA) AHA) AHA) AHA) AHA) AHA) AHA) AHA) AHA) AHA) AHA) AHA) AHA) AHA) AHA) AHA) AHA) AHA) AHA) AHA) AHA) AHA) AHA) AHA) AHA AHA AHA AHA HA HA HA @HA5 @HA5 @HA5 @HA5 @HA5 @HA5 @HA5 @HA5 @HA5 @HA5 @HA5 @HA5 @HA5 @HA5 @HA5 @HA5 @HA5 @HA5 @HA5 @HA5 @HA5 @HA5 @HA5 @HA5 @HA5 @HA5 @HA5 @HA5 @HA5 @HA5 @HA5 @HA5 @HA5 @HA5 @HA5 @HA5 @HA5 @HA5 @HA5 @HA5 @HA5 @HA5 @HA5 @HA5 @HA5 HA5 HA5 HA5 AHA5 AHA5 AHA5 AHA5 AHA5 AHA5 AHA5 AHA5 AHA5 AHA5 AHA5 AHA5 AHA5 AHA5 AHA5 AHA5 AHA5 AHA5 AHA5 AHA5 AHA5 AHA5 AHA5 AHA5 AHA5 AHA5 AHA5 AHA5 AHA5 AHA5 AHA5 AHA5 AHA5 A5 A5 A5 A5 A5 A5 A5 A5 A A A A    G8 G8 G8 G8 G8 G8 G8 G8 G8 G8 G8 G8 G8 G8 G8 G8 G8 G8 G8 G8 G8 G8 G8 G8 G8 G8 G8 G8 G8 G8 G8 G8 G8 G8 G8 G8 G8 G8 G8 G8 G8 G8 G8 G8 G8 G8 G8 G8 G8 G8 G8 G8 G8 G8 G8 G8 G8 G8 G8 G8 G8 G8 G8 G8 G8 G8 G8 G8 G8 G8 G8 G8 G8 G8 G8 G8 G8 G8 G8 G8 G8 G8 G8 G8 G8 G8 G8 G8 G8 G G G G G G G G5 G5 G5 G5 G5 G5 G5 G5 G5 G5 G5 G5 G5 G5 G5 G5 G5 G5 G5 G5 G5 G5 G5 G5 G5 G5 G5 G5 G5 G5 G5 G5 G5 G5 G5 G5 G5 G5 G5 G5 G5 G5 G5 G5 G5 G5 G5 G5 G5 G5 G5 G5 G5 G5 G5 G5 G5 G5 G5 G5 G5 G5 G5 G5 G5 G5 G5 G5 G5 G5 G5 G5 G5 G5 G5 G5 G5 G5 G5 G5 G5 G5 G5 G5 G5 G5 G5 G5 G5 G G G G G G G G2 G2 G2 G2 G2 G2 G2 G2 G2 G2 G2 G2 G2 G2 G2 G2 G2 G2 G2 G2 G2 G2 G2 G2 G2 G2 G2 G2 G2 G2 G2 G2 G2 G2 G2 G2 G2 G2 G2 G2 G2 G2 G2 G2 G2 G2 G2 G2 G2 G2 G2 G2 G2 G2 G2 G2 G2 G2 G2 G2 G2 G2 G2 G2 G2 G2 G2 G2 G2 G2 G2 G2 G2 2 2 2 2 2 2 2 2 2 2 2 2 2 2 2 2        H0 H0 H0 H0 H0 H0 H0 H0 H0 H0 H0 H0 H0 H0 H0 H0 H0 H0 H0 H0 H0 H0 H0 H0 H0 H0 H0 H0 H0 H0 H0 H0 H0 H0 H0 H0 H0 H0 H0 H0 H0 H0 H0 H0 H0    J/ J/ J/ J/ J/ J/ J/ J/ J/ J/ J/ J/ J/ J/ J/ J/ J/ J/ J/ J/ J/ J/ J/ J/ J/ J/ J/ J/ J/ J/ J/ J/ J/ J/ J/ J/ J/ J/ J/ J/ J/ J/ J/ J/ J/    C3 C3 C3 C3 C3 C3 C3 C3 C3 C3 C3 C3 C3 C3 C3 C3 C3 C3 C3 C3 C3 C3 C3 C3 C3 C3 C3 C3 C3 C3 C3 C3 C3 C3 C3 C3 C3 C3 C3 C3 C3 C3 C3 C3 C3 3 3 3 M3 M3 M3 M3 M3 M3 M3 M3 M3 M3 M3 M3 M3 M3 M3 M3 M3 M3 M3 M3 M3 M3 M3 M3 M3 M3 M3 M3 M3 M3 M3 M3 M3 M3 M3 M3 M3 M3 M3 M3 M3 M M M M    K0 K0 K0 K0 K0 K0 K0 K0 K0 K0 K0 K0 K0 K0 K0 K0 K0 K0 K0 K0 K0 K0 K0 K0 K0 K0 K0 K0 K0 K0 K0 K0 K0 K0 K0 K0 K0 K0 K0 K0 K0 K0 K0 K0 K0 0 0 0 J0 J0 J0 J0 J0 J0 J0 J0 J0 J0 J0 J0 J0 J0 J0 J0 J0 J0 J0 J0 J0 J0 J0 J0 J0 J0 J0 J0 J0 J0 J0 J0 J0 J0 J0 J0 J0 J0 J0 J0 J0 J J J J    G7 G7 G7 G7 G7 G7 G7 G7 H7 H7 H7 H7 H7 H7 H7 H7 G7 G7 G7 G7 G7 G7 G7 G7 H7 H7 H7 H7 H7 H7 H7 H7 G7 G7 G7 G7 G7 G7 G7 G7 H7 H7 H7 H7 H7 H7 H7 H7 G7 G7 G7 G7 G7 G7 G7 G7 H7 H7 H7 H7 H7 H7 H7 H7 G7 G7 G7 G7 G7 G7 G7 G7 H7 H7 H7 H7 H7 H7 H7 H7 G7 G7 G7 G7 G7 G7 G7 G7 H7 H7 H7 H7 H7 H7 H7 H7 G7 G7 G7 G7 G7 G7 G7 G7 H7 H7 H7 H7 H7 H7 H7 H7 G7 G7 G7 G7 G7 G7 G7 G7 H7 H7 H7 H7 H7 H7 H7 H7 G7 G7 G7 G7 G7 G7 G7 G7 H7 H7 H7 H7 H7 H7 H7 H7 G7 G7 G7 G7 G7 G7 G7 G7 H7 H7 H7 H7 H7 H7 H7 H7 G7 G7 G7 G7 G7 G7 G7 G7 H7 H7 H7 H7 H7 H7 H7 H7 G7 G G G G G G G H H H H H H H H G+ G+ G+ G+ G+ G+ G+ G+ H+ H+ H+ H+ H+ H+ H+ H+ G+ G+ G+ G+ G+ G+ G+ G+ H+ H+ H+ H+ H+ H+ H+ H+ G+ G+ G+ G+ G+ G+ G+ G+ H+ H+ H+ H+ H+ H+ H+ H+ G+ G+ G+ G+ G+ G+ G+ G+ H+ H+ H+ H+ H+ H+ H+ H+ G+ G+ G+ G+ G+ G+ G+ G+ H+ H+ H+ H+ H+ H+ H+ H+ G+ G+ G+ G+ G+ G+ G+ G+ H+ H+ H+ H+ H+ H+ H+ H+ H+ H+ H+ H+ H+ H+ H+ H+ H+ H+ H+ H+ H+ H+ H+ H+ H+ H+ H+ H+ H+ H+ H+ H+ H+ H+ H+ H+ H+ H+ H+ H+ H+ H+ H+ H+ H+ H+ H+ H+ H+ H+ H+ H+ H+ H+ H+ H+ H+ H+ H+ H+ H+ H+ H+ H+ H+ H+ H+ H+ H+ H+ H+ H+ H+ H+ H+ H+ H+ H+ H+ H+ H+ H+ H+ H+ H+ H+ H+ H+ H+ H H H H H H H H        H0 H0 H0 H0 H0 H0 H0 H0 H0 H0 H0 H0 H0 H0 H0 H0 H0 H0 H0 H0 H0 H0 H0 H0 H0 H0 H0 H0 H0 H0 H0 H0 H0 H0 H0 H0 H0 H0 H0 H0 H0 H0 H0 H0 H0 H0 H0 H0 H0 H0 H0 H0 H0 H0 H0 H0 H0 H0 H0 H0 H0 H0 H0 H0 H0 H0 H0 H0 H0 H0 H0 H0 H0 H0 H0 H0 H0 H0 H0 H0 H0 H0 H0 H0 H0 H0 H0 H0 H0 H0 H0 H0 H0 H0 H0 H0 HO0 HO0 HO0 HO0 HO0 HO0 HO0 HO0 HO0 HO0 HO0 HO0 HO0 HO0 HO0 HO0 HO0 HO0 HO0 HO0 HO0 HO0 HO0 HO0 HO0 HO0 HO0 HO0 HO0 HO0 HO0 HO0 HO0 HO0 HO0 HO0 HO0 HO0 HO0 HO0 HO0 HO0 HO0 HO0 HO0 HO0 HO0 HO0 HO0 HO0 HO0 HO0 HO0 HO0 HO0 HO0 HO0 HO0 HO0 HO0 HO0 HO0 HO0 HO0 HO0 HO0 HO0 HO0 HO0 HO0 HO0 HO0 HO0 HO0 HO0 HO0 HO0 HO0 HO0 HO0 HO0 HO HO HO HO HO HO HO HO H H H H H H H HT3 HT3 HT3 HT3 HT3 HT3 HT3 HT3 HT3 HT3 HT3 HT3 HT3 HT3 HT3 HT3 HT3 HT3 HT3 HT3 HT3 HT3 HT3 HT3 HT3 HT3 HT3 HT3 HT3 HT3 HT3 HT3 HT3 HT3 HT3 HT3 HT3 HT3 HT3 HT3 HT3 HT3 HT3 HT3 HT3 HT3 HT3 HT3 HT3 HT3 HT3 HT3 HT3 HT3 HT3 HT3 HT3 HT3 HT3 HT3 HT3 HT3 HT3 HT3 HT3 HT3 HT3 HT3 HT3 HT3 HT3 HT3 HT3 HT3 HT3 HT3 HT3 HT3 HT3 HT3 HT3 HT3 HT3 HT3 HT3 HT3 HT3 HT3 HT3 H3 H3 H3 H3 H3 H3 H3 HO3 HO3 HO3 HO3 HO3 HO3 HO3 HO3 HO3 HO3 HO3 HO3 HO3 HO3 HO3 HO3 HO3 HO3 HO3 HO3 HO3 HO3 HO3 HO3 HO3 HO3 HO3 HO3 HO3 HO3 HO3 HO3 HO3 HO3 HO3 HO3 HO3 HO3 HO3 HO3 HO3 HO3 HO3 HO3 HO3 HO3 HO3 HO3 HO3 HO3 HO3 HO3 HO3 HO3 HO3 HO3 HO3 HO3 HO3 HO3 HO3 HO3 HO3 HO3 HO3 HO3 O3 O3 O3 O3 O3 O3 O3 O3 O3 O3 O3 O3 O3 O3 O3 O O O O O O O O        M7 M7 M7 M7 M7 M7 M7 M7 M7 M7 M7 M7 M7 M7 M7 M7 M7 M7 M7 M7 M7 M7 M7 M7 M7 M7 M7 M7 M7 M7 M7 M7 M7 M7 M7 M7 M7 M7 M7 M7 M7 M7 M7 M7 M7 M7 M7 M7 M7 M7 M7 M7 M7 M7 M7 M7 M7 M7 M7 M7 M7 M7 M7 M7 M7 M7 M7 M7 M7 M7 M7 M7 M7 M7 M7 M7 M7 M7 M7 M7 M7 M7 M7 M7 M7 M7 M7 M7 M7 7 7 7 7 7 7 7 K7 K7 K7 K7 K7 K7 K7 K7 K7 K7 K7 K7 K7 K7 K7 K7 K7 K7 K7 K7 K7 K7 K7 K7 K7 K7 K7 K7 K7 K7 K7 K7 K7 K7 K7 K7 K7 K7 K7 K7 K7 K7 K7 K7 K7 7 7 7 J7 J7 J7 J7 J7 J7 J7 J7 J7 J7 J7 J7 J7 J7 J7 J7 J7 J7 J7 J7 J7 J7 J7 J7 J7 J7 J7 J7 J7 J7 J7 J7 J7 J J J J J J J J J J J J    K< K< K< K< K< K< K< K< K< K< K< K< K< K< K< K< K< K< K< K< K< K< K< K< K< K< K< K< K< K< K< K< K< K< K< K< K< K< K< K< K< K< K< K< K< K< K< K< K< K< K< K< K< K< K< K< K< K< K< K< K< K< K< K< K< K< K< K< K< K< K< K< K< K< K< K< K< K< K< K< K< K< K< K< K< K< K< K< K< K< K< K< K< K< K< K< KC< KC< KC< KC< KC< KC< KC< KC< KC< KC< KC< KC< KC< KC< KC< KC< KC< KC< KC< KC< KC< KC< KC< KC< KC< KC< KC< KC< KC< KC< KC< KC< KC< KC< KC< KC< KC< KC< KC< KC< KC< KC< KC< KC< KC< KC< KC< KC< KC< KC< KC< KC< KC< KC< KC< KC< KC< KC< KC< KC< KC< KC< KC< KC< KC< KC< KC< KC< KC< KC< KC< KC< KC< KC< KC< KC< KC< KC< KC< KC< KC< C C C C C C C C        H3 H3 H3 H3 H3 H3 H3 H3 H3 H3 H3 H3 H3 H3 H3 H3 H3 H3 H3 H3 H3 H3 H3 H3 H3 H3 H3 H3 H3 H3 H3 H3 H3 H3 H3 H3 H3 H3 H3 H3 H3 H3 H3 H3 H3 H3 H3 H3 H3 H3 H3 H3 H3 H3 H3 H3 H3 H3 H3 H3 H3 H3 H3 H3 H3 H3 H3 H3 H3 H3 H3 H3 H3 H3 H3 H3 H3 H3 H3 H3 H3 H3 H3 H3 H3 H3 H3 H3 H3 3 3 3 3 3 3 3 KC3 KC3 KC3 KC3 KC3 KC3 KC3 KC3 KC3 KC3 KC3 KC3 KC3 KC3 KC3 KC3 KC3 KC3 KC3 KC3 KC3 KC3 KC3 KC3 KC3 KC3 KC3 KC3 KC3 KC3 KC3 KC3 KC3 KC3 KC3 KC3 KC3 KC3 KC3 KC3 KC3 KC3 KC3 KC3 KC3 KC3 KC3 KC3 KC3 KC3 KC3 KC3 KC3 KC3 KC3 KC3 KC3 KC3 KC3 KC3 KC3 KC3 KC3 KC3 KC3 KC3 KC3 KC3 KC3 KC3 KC3 KC3 KC3 KC3 KC3 KC3 KC3 KC3 KC3 KC3 KC3 KC KC KC KC KC KC KC KC        JA7 JA7 JA7 JA7 JA7 JA7 JA7 JA7 JA7 JA7 JA7 JA7 JA7 JA7 JA7 JA7 JA7 JA7 JA7 JA7 JA7 JA7 JA7 JA7 JA7 JA7 JA7 JA7 JA7 JA7 JA7 JA7 JA7 JA7 JA7 JA7 JA7 JA7 JA7 JA7 JA7 JA7 JA7 JA7 JA7 JA7 JA7 JA7 JA7 JA7 JA7 JA7 JA7 JA7 JA7 JA7 JA7 JA7 JA7 JA7 JA7 JA7 JA7 JA7 JA7 JA7 JA7 JA7 JA7 JA7 JA7 JA7 JA7 JA7 JA7 JA7 JA7 JA7 JA7 JA7 JA7 JA7 JA7 JA7 JA7 JA7 JA7 JA7 JA7 7 7 7 7 7 7 7 H?7 H?7 H?7 H?7 H?7 H?7 H?7 H?7 H?7 H?7 H?7 H?7 H?7 H?7 H?7 H?7 H?7 H?7 H?7 H?7 H?7 H?7 H?7 H?7 H?7 H?7 H?7 H?7 H?7 H?7 H?7 H?7 H?7 H?7 H?7 H?7 H?7 H?7 H?7 H?7 H?7 H?7 H?7 H?7 H?7 7 7 7 G>7 G>7 G>7 G>7 G>7 G>7 G>7 G>7 G>7 G>7 G>7 G>7 G>7 G>7 G>7 G>7 G>7 G>7 G>7 G>7 G>7 G>7 G>7 G>7 G>7 G>7 G>7 G>7 G>7 G>7 G>7 G>7 G>7 G> G> G> G> G> G> G> G> G> G> G> G>    H?0 H?0 H?0 H?0 H?0 H?0 H?0 H?0 H?0 H?0 H?0 H?0 H?0 H?0 H?0 H?0 H?0 H?0 H?0 H?0 H?0 H?0 H?0 H?0 H?0 H?0 H?0 H?0 H?0 H?0 H?0 H?0 H?0 H?0 H?0 H?0 H?0 H?0 H?0 H?0 H?0 H?0 H?0 H?0 H?0 H?0 H?0 H?0 H?0 H?0 H?0 H?0 H?0 H?0 H?0 H?0 H?0 H?0 H?0 H?0 H?0 H?0 H?0 H?0 H?0 H?0 H?0 H?0 H?0 H?0 H?0 H?0 H?0 H?0 H?0 H?0 H?0 H?0 H?0 H?0 H?0 H?0 H?0 H?0 H?0 H?0 H?0 H?0 H?0 H? H? H? H? H? H? H? H?< H?< H?< H?< H?< H?< H?< H?< H?< H?< H?< H?< H?< H?< H?< H?< H?< H?< H?< H?< H?< H?< H?< H?< H?< H?< H?< H?< H?< H?< H?< H?< H?< H?< H?< H?< H?< H?< H?< H?< H?< H?< H?< H?< H?< H?< H?< H?< H?< H?< H?< H?< H?< H?< H?< H?< H?< H?< H?< H?< H?< H?< H?< H?< H?< H?< H?< H?< H?< H?< H?< H?< H?< H?< H?< H?< H?< H?< H?< H?< H?< < < < < < < < <        C? C? C? C? C? C? C? C? C? C? C? C? C? C? C? C? C? C? C? C? C? C? C? C? C? C? C? C? C? C? C? C? C? C? C? C? C? C? C? C? C? C? C? C? C? C? C? C? C? C? C? C? C? C? C? C? C? C? C? C? C? C? C? C? C? C? C? C? C? C? C? C? C? C? C? C? C? C? C? C? C? C? C? C? C? C? C? C? C? C C C C C C C KC< KC< KC< KC< KC< KC< KC< KC< KC< KC< KC< KC< KC< KC< KC< KC< KC< KC< KC< KC< KC< KC< KC< KC< KC< KC< KC< KC< KC< KC< KC< KC< KC< KC< KC< KC< KC< KC< KC< KC< KC< KC< KC< KC< KC< C< C< C< CJ< CJ< CJ< CJ< CJ< CJ< CJ< CJ< CJ< CJ< CJ< CJ< CJ< CJ< CJ< CJ< CJ< CJ< CJ< CJ< CJ< CJ< CJ< CJ< CJ< CJ< CJ< CJ< CJ< CJ< CJ< CJ< CJ< J< J< J< J< J< J< J< J< J J J J    KH8 KH8 KH8 KH8 KH8 KH8 KH8 KH8 KH8 KH8 KH8 KH8 KH8 KH8 KH8 KH8 KH8 KH8 KH8 KH8 KH8 KH8 KH8 KH8 KH8 KH8 KH8 KH8 KH8 KH8 KH8 KH8 KH8 KH8 KH8 KH8 KH8 KH8 KH8 KH8 KH8 KH8 KH8 KH8 KH8 KH8 KH8 KH8 KH8 KH8 KH8 KH8 KH8 KH8 KH8 KH8 KH8 KH8 KH8 KH8 KH8 KH8 KH8 KH8 KH8 KH8 KH8 KH8 KH8 KH8 KH8 KH8 KH8 KH8 KH8 KH8 KH8 KH8 KH8 KH8 KH8 KH8 KH8 KH8 KH8 KH8 KH8 KH8 KH8 H H H H H H H PH7 PH7 PH7 PH7 PH7 PH7 PH7 PH7 PH7 PH7 PH7 PH7 PH7 PH7 PH7 PH7 PH7 PH7 PH7 PH7 PH7 PH7 PH7 PH7 PH7 PH7 PH7 PH7 PH7 PH7 PH7 PH7 PH7 PH7 PH7 PH7 PH7 PH7 PH7 PH7 PH7 PH7 PH7 PH7 PH7 PH PH PH PH5 PH5 PH5 PH5 PH5 PH5 PH5 PH5 PH5 PH5 PH5 PH5 PH5 PH5 PH5 PH5 PH5 PH5 PH5 PH5 PH5 PH5 PH5 PH5 PH5 PH5 PH5 PH5 PH5 PH5 PH5 PH5 PH5 PH5 PH5 PH5 PH5 PH5 PH5 PH5 PH5 H5 H5 H5 H5 H H H JH. JH. JH. JH. JH. JH. JH. JH. JH. JH. JH. JH. JH. JH. JH. JH. JH. JH. JH. JH. JH. JH. JH. JH. JH. JH. JH. JH. JH. JH. JH. JH. JH. JH. JH. JH. JH. JH. JH. JH. JH. JH. JH. JH. JH. JH. JH. JH. JH. JH. JH. JH. JH. JH. JH. JH. JH. JH. JH. JH. JH. JH. JH. JH. JH. JH. JH. JH. JH. JH. JH. JH. JH. JH. JH. JH. JH. JH. JH. JH. JH. JH. JH. JH. JH. JH. JH. JH. JH. JH JH JH JH JH JH JH JH: JH: JH: JH: JH: JH: JH: JH: JH: JH: JH: JH: JH: JH: JH: JH: JH: JH: JH: JH: JH: JH: JH: JH: JH: JH: JH: JH: JH: JH: JH: JH: JH: JH: JH: JH: JH: JH: JH: JH: JH: JH: JH: JH: JH: JH: JH: JH: JH: JH: JH: JH: JH: JH: JH: JH: JH: JH: JH: JH: JH: JH: JH: JH: JH: JH: JH: JH: JH: JH: JH: JH: JH: JH: JH: JH: JH: JH: JH: JH: JH: : : : : : : : :        A> A> A> A> A> A> A> A> A> A> A> A> A> A> A> A> A> A> A> A> A> A> A> A> A> A> A> A> A> A> A> A> A> A> A> A> A> A> A> A> A> A> A> A> A> A> A> A> A> A> A> A> A> A> A> A> A> A> A> A> A> A> A> A> A> A> A> A> A> A> A> A> A> A> A> A> A> A> A> A> A> A> A> A> A> A> A> A> A> A A A A A A A JA: JA: JA: JA: JA: JA: JA: JA: JA: JA: JA: JA: JA: JA: JA: JA: JA: JA: JA: JA: JA: JA: JA: JA: JA: JA: JA: JA: JA: JA: JA: JA: JA: JA: JA: JA: JA: JA: JA: JA: JA: JA: JA: JA: JA: A: A: A: AH: AH: AH: AH: AH: AH: AH: AH: AH: AH: AH: AH: AH: AH: AH: AH: AH: AH: AH: AH: AH: AH: AH: AH: AH: AH: AH: AH: AH: AH: AH: AH: AH: H: H: H: H: H: H: H: H: H H H H    JF7 JF7 JF7 JF7 JF7 JF7 JF7 JF7 JF7 JF7 JF7 JF7 JF7 JF7 JF7 JF7 JF7 JF7 JF7 JF7 JF7 JF7 JF7 JF7 JF7 JF7 JF7 JF7 JF7 JF7 JF7 JF7 JF7 JF7 JF7 JF7 JF7 JF7 JF7 JF7 JF7 JF7 JF7 JF7 JF7 JF7 JF7 JF7 JF7 JF7 JF7 JF7 JF7 JF7 JF7 JF7 JF7 JF7 JF7 JF7 JF7 JF7 JF7 JF7 JF7 JF7 JF7 JF7 JF7 JF7 JF7 JF7 JF7 JF7 JF7 JF7 JF7 JF7 JF7 JF7 JF7 JF7 JF7 JF7 JF7 JF7 JF7 JF7 JF7 F F F F F F F OF5 OF5 OF5 OF5 OF5 OF5 OF5 OF5 OF5 OF5 OF5 OF5 OF5 OF5 OF5 OF5 OF5 OF5 OF5 OF5 OF5 OF5 OF5 OF5 OF5 OF5 OF5 OF5 OF5 OF5 OF5 OF5 OF5 OF5 OF5 OF5 OF5 OF5 OF5 OF5 OF5 OF5 OF5 OF5 OF5 OF OF OF OF3 OF3 OF3 OF3 OF3 OF3 OF3 OF3 OF3 OF3 OF3 OF3 OF3 OF3 OF3 OF3 OF3 OF3 OF3 OF3 OF3 OF3 OF3 OF3 OF3 OF3 OF3 OF3 OF3 OF3 OF3 OF3 OF3 OF3 OF3 OF3 OF3 OF3 OF3 OF3 OF3 F3 F3 F3 F3 F F F HF, HF, HF, HF, HF, HF, HF, HF, HF, HF, HF, HF, HF, HF, HF, HF, HF, HF, HF, HF, HF, HF, HF, HF, HF, HF, HF, HF, HF, HF, HF, HF, HF, HF, HF, HF, HF, HF, HF, HF, HF, HF, HF, HF, HF, HF, HF, HF, HF, HF, HF, HF, HF, HF, HF, HF, HF, HF, HF, HF, HF, HF, HF, HF, HF, HF, HF, HF, HF, HF, HF, HF, HF, HF, HF, HF, HF, HF, HF, HF, HF, HF, HF, HF, HF, HF, HF, HF, HF, HF HF HF HF HF HF HF HF8 HF8 HF8 HF8 HF8 HF8 HF8 HF8 HF8 HF8 HF8 HF8 HF8 HF8 HF8 HF8 HF8 HF8 HF8 HF8 HF8 HF8 HF8 HF8 HF8 HF8 HF8 HF8 HF8 HF8 HF8 HF8 HF8 HF8 HF8 HF8 HF8 HF8 HF8 HF8 HF8 HF8 HF8 HF8 HF8 HF8 HF8 HF8 HF8 HF8 HF8 HF8 HF8 HF8 HF8 HF8 HF8 HF8 HF8 HF8 HF8 HF8 HF8 HF8 HF8 HF8 HF8 HF8 HF8 HF8 HF8 HF8 HF8 HF8 HF8 HF8 HF8 HF8 HF8 HF8 HF8 8 8 8 8 8 8 8 8        ?< ?< ?< ?< ?< ?< ?< ?< ?< ?< ?< ?< ?< ?< ?< ?< ?< ?< ?< ?< ?< ?< ?< ?< ?< ?< ?< ?< ?< ?< ?< ?< ?< ?< ?< ?< ?< ?< ?< ?< ?< ?< ?< ?< ?< ?< ?< ?< ?< ?< ?< ?< ?< ?< ?< ?< ?< ?< ?< ?< ?< ?< ?< ?< ?< ?< ?< ?< ?< ?< ?< ?< ?< ?< ?< ?< ?< ?< ?< ?< ?< ?< ?< ?< ?< ?< ?< ?< ?< ? ? ? ? ? ? ? H?8 H?8 H?8 H?8 H?8 H?8 H?8 H?8 H?8 H?8 H?8 H?8 H?8 H?8 H?8 H?8 H?8 H?8 H?8 H?8 H?8 H?8 H?8 H?8 H?8 H?8 H?8 H?8 H?8 H?8 H?8 H?8 H?8 H?8 H?8 H?8 H?8 H?8 H?8 H?8 H?8 H?8 H?8 H?8 H?8 ?8 ?8 ?8 ?G8 ?G8 ?G8 ?G8 ?G8 ?G8 ?G8 ?G8 ?G8 ?G8 ?G8 ?G8 ?G8 ?G8 ?G8 ?G8 ?G8 ?G8 ?G8 ?G8 ?G8 ?G8 ?G8 ?G8 ?G8 ?G8 ?G8 ?G8 ?G8 ?G8 ?G8 ?G8 ?G8 G8 G8 G8 G8 G8 G8 G8 G8 G G G G    HD5 HD5 HD5 HD5 HD5 HD5 HD5 HD5 HD5 HD5 HD5 HD5 HD5 HD5 HD5 HD5 HD5 HD5 HD5 HD5 HD5 HD5 HD5 HD5 HD5 HD5 HD5 HD5 HD5 HD5 HD5 HD5 HD5 HD5 HD5 HD5 HD5 HD5 HD5 HD5 HD5 HD5 HD5 HD5 HD5 HD5 HD5 HD5 HD5 HD5 HD5 HD5 HD5 HD5 HD5 HD5 HD5 HD5 HD5 HD5 HD5 HD5 HD5 HD5 HD5 HD5 HD5 HD5 HD5 HD5 HD5 HD5 HD5 HD5 HD5 HD5 HD5 HD5 HD5 HD5 HD5 HD5 HD5 HD5 HD5 HD5 HD5 HD5 HD5 D D D D D D D MD3 MD3 MD3 MD3 MD3 MD3 MD3 MD3 MD3 MD3 MD3 MD3 MD3 MD3 MD3 MD3 MD3 MD3 MD3 MD3 MD3 MD3 MD3 MD3 MD3 MD3 MD3 MD3 MD3 MD3 MD3 MD3 MD3 MD3 MD3 MD3 MD3 MD3 MD3 MD3 MD3 MD3 MD3 MD3 MD3 MD MD MD MD2 MD2 MD2 MD2 MD2 MD2 MD2 MD2 MD2 MD2 MD2 MD2 MD2 MD2 MD2 MD2 MD2 MD2 MD2 MD2 MD2 MD2 MD2 MD2 MD2 MD2 MD2 MD2 MD2 MD2 MD2 MD2 MD2 MD2 MD2 MD2 MD2 MD2 MD2 MD2 MD2 D2 D2 D2 D2 D D D GD3 GD3 GD3 GD3 GD3 GD3 GD3 GD3 GD3 GD3 GD3 GD3 GD3 GD3 GD3 GD3 GD3 GD3 GD3 GD3 GD3 GD3 GD3 GD3 GD3 GD3 GD3 GD3 GD3 GD3 GD3 GD3 GD3 GD3 GD3 GD3 GD3 GD3 GD3 GD3 GD3 GD3 GD3 GD3 GD3 GD3 GD3 GD3 GD3 GD3 GD3 GD3 GD3 GD3 GD3 GD3 GD3 GD3 GD3 GD3 GD3 GD3 GD3 GD3 GD3 GD3 GD3 GD3 GD3 GD3 GD3 GD3 GD3 GD3 GD3 GD3 GD3 GD3 GD3 GD3 GD3 GD3 GD3 GD3 GD3 GD3 GD3 GD3 GD3        OC0 OC0 OC0 OC0 OC0 OC0 OC0 OC0 OC0 OC0 OC0 OC0 OC0 OC0 OC0 OC0 OC0 OC0 OC0 OC0 OC0 OC0 OC0 OC0 OC0 OC0 OC0 OC0 OC0 OC0 OC0 OC0 OC0 OC0 OC0 OC0 OC0 OC0 OC0 OC0 OC0 OC0 OC0 OC0 OC0 OC OC OC OC2 OC2 OC2 OC2 OC2 OC2 OC2 OC2 OC2 OC2 OC2 OC2 OC2 OC2 OC2 OC2 OC2 OC2 OC2 OC2 OC2 OC2 OC2 OC2 OC2 OC2 OC2 OC2 OC2 OC2 OC2 OC2 OC2 OC2 OC2 OC2 OC2 OC2 OC2 OC2 OC2 2 2 2 2    CHK3 CHK3 CHK3 CHK3 CHK3 CHK3 CHK3 CHK3 CHK3 CHK3 CHK3 CHK3 CHK3 CHK3 CHK3 CHK3 CHK3 CHK3 CHK3 CHK3 CHK3 CHK3 CHK3 CHK3 CHK3 CHK3 CHK3 CHK3 CHK3 CHK3 CHK3 CHK3 CHK3 CHK3 CHK3 CHK3 CHK3 CHK3 CHK3 CHK3 CHK3 CHK3 CHK3 CHK3 CHK3 CHK3 CHK3 CHK3 CHK3 CHK3 CHK3 CHK3 CHK3 CHK3 CHK3 CHK3 CHK3 CHK3 CHK3 CHK3 CHK3 CHK3 CHK3 CHK3 CHK3 CHK3 CHK3 CHK3 CHK3 CHK3 CHK3 CHK3 CHK3 CHK3 CHK3 CHK3 CHK3 CHK3 CHK3 CHK3 CHK3 CHK3 CHK3 CHK3 CHK3 CHK3 CHK3 CHK3 CHK3 CK CK CK CK CK CK CK CCK5 CCK5 CCK5 CCK5 CCK5 CCK5 CCK5 CCK5 CCK5 CCK5 CCK5 CCK5 CCK5 CCK5 CCK5 CCK5 CCK5 CCK5 CCK5 CCK5 CCK5 CCK5 CCK5 CCK5 CCK5 CCK5 CCK5 CCK5 CCK5 CCK5 CCK5 CCK5 CCK5 CCK5 CCK5 CCK5 CCK5 CCK5 CCK5 CCK5 CCK5 CCK5 CCK5 CCK5 CCK5 CCK5 CCK5 CCK5 CCK5 CCK5 CCK5 CCK5 CCK5 CCK5 CCK5 CCK5 CCK5 CCK5 CCK5 CCK5 CCK5 CCK5 CCK5 CCK5 CCK5 CCK5 CCK5 CCK5 CCK5 CCK5 CCK5 CCK5 CCK5 CCK5 CCK5 CCK5 CCK5 CCK5 CCK5 CCK5 CCK5 CCK5 CCK5 CCK5 CCK5 CCK5 CCK5 CCK5 CCK5 CK CK CK CK CK CK CK CKA7 CKA7 CKA7 CKA7 CKA7 CKA7 CKA7 CKA7 CKA7 CKA7 CKA7 CKA7 CKA7 CKA7 CKA7 CKA7 CKA7 CKA7 CKA7 CKA7 CKA7 CKA7 CKA7 CKA7 CKA7 CKA7 CKA7 CKA7 CKA7 CKA7 CKA7 CKA7 CKA7 CKA7 CKA7 CKA7 CKA7 CKA7 CKA7 CKA7 CKA7 CKA7 CKA7 CKA7 CKA7 CA7 CA7 CA7 CAJ7 CAJ7 CAJ7 CAJ7 CAJ7 CAJ7 CAJ7 CAJ7 CAJ7 CAJ7 CAJ7 CAJ7 CAJ7 CAJ7 CAJ7 CAJ7 CAJ7 CAJ7 CAJ7 CAJ7 CAJ7 CAJ7 CAJ7 CAJ7 CAJ7 CAJ7 CAJ7 CAJ7 CAJ7 CAJ7 CAJ7 CAJ7 CAJ7 CAJ7 CAJ7 CAJ7 CAJ7 CAJ7 CAJ7 CAJ7 CAJ7 CJ CJ CJ CJ C C C CH?+ CH?+ CH?+ CH?+ CH?+ CH?+ CH?+ CH?+ CH?+ CH?+ CH?+ CH?+ CH?+ CH?+ CH?+ CH?+ CH?+ CH?+ CH?+ CH?+ CH?+ CH?+ CH?+ CH?+ CH?+ CH?+ CH?+ CH?+ CH?+ CH?+ CH?+ CH?+ CH?+ CH?+ CH?+ CH?+ CH?+ CH?+ CH?+ CH?+ CH?+ CH?+ CH?+ CH?+ CH?+ C+ C+ C+ CG>+ CG>+ CG>+ CG>+ CG>+ CG>+ CG>+ CG>+ CG>+ CG>+ CG>+ CG>+ CG>+ CG>+ CG>+ CG>+ CG>+ CG>+ CG>+ CG>+ CG>+ CG>+ CG>+ CG>+ CG>+ CG>+ CG>+ CG>+ CG>+ CG>+ CG>+ CG>+ CG>+ CG>+ CG>+ CG>+ CG>+ CG>+ CG>+ CG>+ CG>+ CG> CG> CG> CG> C C C CH?0 CH?0 CH?0 CH?0 CH?0 CH?0 CH?0 CH?0 CH?0 CH?0 CH?0 CH?0 CH?0 CH?0 CH?0 CH?0 CH?0 CH?0 CH?0 CH?0 CH?0 CH?0 CH?0 CH?0 CH?0 CH?0 CH?0 CH?0 CH?0 CH?0 CH?0 CH?0 CH?0 CH?0 CH?0 CH?0 CH?0 CH?0 CH?0 CH?0 CH?0 CH?0 CH?0 CH?0 CH?0 CH?0 CH?0 CH?0 CH?0 CH?0 CH?0 CH?0 CH?0 CH?0 CH?0 CH?0 CH?0 CH?0 CH?0 CH?0 CH?0 CH?0 CH?0 CH?0 CH?0 CH?0 CH?0 CH?0 CH?0 CH?0 CH?0 CH?0 CH?0 CH?0 CH?0 CH?0 CH?0 CH?0 CH?0 CH?0 CH?0 CH?0 CH?0 CH?0 CH?0 CH?0 CH?0 CH?0 CH?0 H?0 H?0 H?0 H?0 H?0 H?0 H?0 CH?0 CH?0 CH?0 CH?0 CH?0 CH?0 CH?0 CH?0 CH?0 CH?0 CH?0 CH?0 CH?0 CH?0 CH?0 CH?0 CH?0 CH?0 CH?0 CH?0 CH?0 CH?0 CH?0 CH?0 CH?0 CH?0 CH?0 CH?0 CH?0 CH?0 CH?0 CH?0 CH?0 CH?0 CH?0 CH?0 CH?0 CH?0 CH?0 CH?0 CH?0 CH?0 CH?0 CH?0 CH?0 CH?0 CH?0 CH?0 CH?0 CH?0 CH?0 CH?0 CH?0 CH?0 CH?0 CH?0 CH?0 CH?0 CH?0 CH?0 CH?0 CH?0 CH?0 CH?0 CH?0 CH?0 CH?0 CH?0 CH?0 CH?0 CH?0 CH?0 CH?0 CH?0 CH?0 CH?0 CH?0 CH?0 CH?0 CH?0 CH?0 C C C C C C C C        H3 H3 H3 H3 H3 H3 H3 H3 H3 H3 H3 H3 H3 H3 H3 H3 H3 H3 H3 H3 H3 H3 H3 H3 H3 H3 H3 H3 H3 H3 H3 H3 H3 H3 H3 H3 H3 H3 H3 H3 H3 H3 H3 H3 H3 H3 H3 H3 H3 H3 H3 H3 H3 H3 H3 H3 H3 H3 H3 H3 H3 H3 H3 H3 H3 H3 H3 H3 H3 H3 H3 H3 H3 H3 H3 H3 H3 H3 H3 H3 H3 H3 H3 H3 H3 H3 H3 H3 H3 3 3 3 3 3 3 3 C3 C3 C3 C3 C3 C3 C3 C3 C3 C3 C3 C3 C3 C3 C3 C3 C3 C3 C3 C3 C3 C3 C3 C3 C3 C3 C3 C3 C3 C3 C3 C3 C3 C3 C3 C3 C3 C3 C3 C3 C3 C3 C3 C3 C3 C3 C3 C3 C3 C3 C3 C3 C3 C3 C3 C3 C3 C3 C3 C3 C3 C3 C3 C3 C3 C3 C3 C3 C3 C3 C3 C3 C3 C3 C3 C3 C3 C3 C3 C3 C3 C C C C C C C C        ?0 ?0 ?0 ?0 ?0 ?0 ?0 ?0 ?0 ?0 ?0 ?0 ?0 ?0 ?0 ?0 ?0 ?0 ?0 ?0 ?0 ?0 ?0 ?0 ?0 ?0 ?0 ?0 ?0 ?0 ?0 ?0 ?0 ?0 ?0 ?0 ?0 ?0 ?0 ?0 ?0 ?0 ?0 ?0 ?0 ?0 ?0 ?0 ?0 ?0 ?0 ?0 ?0 ?0 ?0 ?0 ?0 ?0 ?0 ?0 ?0 ?0 ?0 ?0 ?0 ?0 ?0 ?0 ?0 ?0 ?0 ?0 ?0 ?0 ?0 ?0 ?0 ?0 ?0 ?0 ?0 ?0 ?0 ?0 ?0 ?0 ?0 ?0 ?0 0 0 0 0 0 0 0 >0 >0 >0 >0 >0 >0 >0 >0 >0 >0 >0 >0 >0 >0 >0 >0 >0 >0 >0 >0 >0 >0 >0 >0 >0 >0 >0 >0 >0 >0 >0 >0 >0 >0 >0 >0 >0 >0 >0 >0 >0 >0 >0 >0 >0 0 0 0 <0 <0 <0 <0 <0 <0 <0 <0 <0 <0 <0 <0 <0 <0 <0 <0 <0 <0 <0 <0 <0 <0 <0 <0 <0 <0 <0 <0 <0 <0 <0 <0 <0 < < < < < < < < < < < <    D5 D5 D5 D5 D5 D5 D5 D5 D5 D5 D5 D5 D5 D5 D5 D5 D5 D5 D5 D5 D5 D5 D5 D5 D5 D5 D5 D5 D5 D5 D5 D5 D5 D5 D5 D5 D5 D5 D5 D5 D5 D5 D5 D5 D5 D5 D5 D5 D5 D5 D5 D5 D5 D5 D5 D5 D5 D5 D5 D5 D5 D5 D5 D5 D5 D5 D5 D5 D5 D5 D5 D5 D5 D5 D5 D5 D5 D5 D5 D5 D5 D5 D5 D5 D5 D5 D5 D5 D5 D5 D5 D5 D5 D5 D5 D5 DD5 DD5 DD5 DD5 DD5 DD5 DD5 DD5 DD5 DD5 DD5 DD5 DD5 DD5 DD5 DD5 DD5 DD5 DD5 DD5 DD5 DD5 DD5 DD5 DD5 DD5 DD5 DD5 DD5 DD5 DD5 DD5 DD5 DD5 DD5 DD5 DD5 DD5 DD5 DD5 DD5 DD5 DD5 DD5 DD5 DD5 DD5 DD5 DD5 DD5 DD5 DD5 DD5 DD5 DD5 DD5 DD5 DD5 DD5 DD5 DD5 DD5 DD5 DD5 DD5 DD5 DD5 DD5 DD5 DD5 DD5 DD5 DD5 DD5 DD5 DD5 DD5 DD5 DD5 DD5 DD5 DD DD DD DD DD DD DD DD D D D D D D D DI DI DI DI DI DI DI DI DI DI DI DI DI DI DI DI DI DI DI DI DI DI DI DI DI DI DI DI DI DI DI DI DI DI DI DI DI DI DI DI DI DI DI DI DI DI DI DI DI DI DI DI DI DI DI DI DI DI DI DI DI DI DI DI DI DI DI DI DI DI DI DI DI DI DI DI DI DI DI DI DI DI DI DI DI DI DI DI DI D D D D D D D DD DD DD DD DD DD DD DD DD DD DD DD DD DD DD DD DD DD DD DD DD DD DD DD DD DD DD DD DD DD DD DD DD DD DD DD DD DD DD DD DD DD DD DD DD DD DD DD DD DD DD DD DD DD DD DD DD DD DD DD DD DD DD DD DD DD DD DD DD DD DD DD DD DD DD DD DD DD DD DD DD DD DD DD DD DD DD DD DD D D D D D D D DB8 DB8 DB8 DB8 DB8 DB8 DB8 DB8 DB8 DB8 DB8 DB8 DB8 DB8 DB8 DB8 DB8 DB8 DB8 DB8 DB8 DB8 DB8 DB8 DB8 DB8 DB8 DB8 DB8 DB8 DB8 DB8 DB8 DB8 DB8 DB8 DB8 DB8 DB8 DB8 DB8 DB8 DB8 DB8 DB8 DB8 DB8 DB8 DB8 DB8 DB8 DB8 DB8 DB8 DB8 DB8 DB8 DB8 DB8 DB8 DB8 DB8 DB8 DB8 DB8 DB8 DB8 DB8 DB8 DB8 DB8 DB8 DB8 DB8 DB8 DB8 DB8 DB8 DB8 DB8 DB8 DB8 DB8 DB8 DB8 DB8 DB8 DB8 DB8 D8 D8 D8 D8 D8 D8 D8 DA8 DA8 DA8 DA8 DA8 DA8 DA8 DA8 DA8 DA8 DA8 DA8 DA8 DA8 DA8 DA8 DA8 DA8 DA8 DA8 DA8 DA8 DA8 DA8 DA8 DA8 DA8 DA8 DA8 DA8 DA8 DA8 DA8 DA8 DA8 DA8 DA8 DA8 DA8 DA8 DA8 DA8 DA8 DA8 DA8 D8 D8 D8 D?8 D?8 D?8 D?8 D?8 D?8 D?8 D?8 D?8 D?8 D?8 D?8 D?8 D?8 D?8 D?8 D?8 D?8 D?8 D?8 D?8 D?8 D?8 D?8 D?8 D?8 D?8 D?8 D?8 D?8 D?8 D?8 D?8 D? D? D? D? D? D? D? D? D? D? D? D? D D D DA1 DA1 DA1 DA1 DA1 DA1 DA1 DA1 DA1 DA1 DA1 DA1 DA1 DA1 DA1 DA1 DA1 DA1 DA1 DA1 DA1 DA1 DA1 DA1 DA1 DA1 DA1 DA1 DA1 DA1 DA1 DA1 DA1 DA1 DA1 DA1 DA1 DA1 DA1 DA1 DA1 DA1 DA1 DA1 DA1 DA1 DA1 DA1 DA1 DA1 DA1 DA1 DA1 DA1 DA1 DA1 DA1 DA1 DA1 DA1 DA1 DA1 DA1 DA1 DA1 DA1 DA1 DA1 DA1 DA1 DA1 DA1 DA1 DA1 DA1 DA1 DA1 DA1 DA1 DA1 DA1 DA1 DA1 DA1 DA1 DA1 DA1 DA1 DA1 DA1 DA1 DA1 DA1 DA1 DA1 DA1 D8A1 D8A1 D8A1 D8A1 D8A1 D8A1 D8A1 D8A1 D8A1 D8A1 D8A1 D8A1 D8A1 D8A1 D8A1 D8A1 D8A1 D8A1 D8A1 D8A1 D8A1 D8A1 D8A1 D8A1 D8A1 D8A1 D8A1 D8A1 D8A1 D8A1 D8A1 D8A1 D8A1 D8A1 D8A1 D8A1 D8A1 D8A1 D8A1 D8A1 D8A1 D8A1 D8A1 D8A1 D8A1 D8A1 D8A1 D8A1 D8A1 D8A1 D8A1 D8A1 D8A1 D8A1 D8A1 D8A1 D8A1 D8A1 D8A1 D8A1 D8A1 D8A1 D8A1 D8A1 D8A1 D8A1 D8A1 D8A1 D8A1 D8A1 D8A1 D8A1 D8A1 D8A1 D8A1 D8A1 D8A1 D8A1 D8A1 D8A1 D8A1 D8A D8A D8A D8A D8A D8A D8A D8A DA DA DA DA DA DA DA DA=) DA=) DA=) DA=) DA=) DA=) DA=) DA=) DA=) DA=) DA=) DA=) DA=) DA=) DA=) DA=) DA=) DA=) DA=) DA=) DA=) DA=) DA=) DA=) DA=) DA=) DA=) DA=) DA=) DA=) DA=) DA=) DA=) DA=) DA=) DA=) DA=) DA=) DA=) DA=) DA=) DA=) DA=) DA=) DA=) DA=) DA=) DA=) DA=) DA=) DA=) DA=) DA=) DA=) DA=) DA=) DA=) DA=) DA=) DA=) DA=) DA=) DA=) DA=) DA=) DA=) DA=) DA=) DA=) DA=) DA=) DA=) DA=) D=) D=) D=) D=) D=) D=) D=) D=) D=) D=) D=) D=) D=) D=) D=) D=) D) D) D) D) D) D) D) DA8) DA8) DA8) DA8) DA8) DA8) DA8) DA8) DA8) DA8) DA8) DA8) DA8) DA8) DA8) DA8) DA8) DA8) DA8) DA8) DA8) DA8) DA8) DA8) DA8) DA8) DA8) DA8) DA8) DA8) DA8) DA8) DA8) DA8) DA8) DA8) DA8) DA8) DA8) DA8) DA8) DA8) DA8) DA8) DA8) DA8) DA8) DA8) DA8) DA8) DA8) DA8) DA8) DA8) DA8) DA8) DA8) DA8) DA8) DA8) DA8) DA8) DA8) DA8) DA8) DA8) DA8) DA8) DA8) DA8) DA8) DA8) DA8) DA8) DA8) DA8) DA8) DA8) DA8) DA8) DA8) DA8 DA8 DA8 DA8 DA8 DA8 DA8 DA8 D D D D D D D D?6, D?6, D?6, D?6, D?6, D?6, D?6, D?6, D?6, D?6, D?6, D?6, D?6, D?6, D?6, D?6, D?6, D?6, D?6, D?6, D?6, D?6, D?6, D?6, D?6, D?6, D?6, D?6, D?6, D?6, D?6, D?6, D?6, D?6, D?6, D?6, D?6, D?6, D?6, D?6, D?6, D?6, D?6, D?6, D?6, D?6, D?6, D?6, D?6, D?6, D?6, D?6, D?6, D?6, D?6, D?6, D?6, D?6, D?6, D?6, D?6, D?6, D?6, D?6, D?6, D?6, D?6, D?6, D?6, D?6, D?6, D?6, D?6, D?6, D?6, D?6, D?6, D?6, D?6, D?6, D?6, D?6, D?6, D?6, D?6, D?6, D?6, D?6, D?6, D, D, D, D, D, D, D, D=5, D=5, D=5, D=5, D=5, D=5, D=5, D=5, D=5, D=5, D=5, D=5, D=5, D=5, D=5, D=5, D=5, D=5, D=5, D=5, D=5, D=5, D=5, D=5, D=5, D=5, D=5, D=5, D=5, D=5, D=5, D=5, D=5, D=5, D=5, D=5, D=5, D=5, D=5, D=5, D=5, D=5, D=5, D=5, D=5, D, D, D, D<3, D<3, D<3, D<3, D<3, D<3, D<3, D<3, D<3, D<3, D<3, D<3, D<3, D<3, D<3, D<3, D<3, D<3, D<3, D<3, D<3, D<3, D<3, D<3, D<3, D<3, D<3, D<3, D<3, D<3, D<3, D<3, D<3, D<3 D<3 D<3 D<3 D<3 D<3 D<3 D<3 D<3 D<3 D<3 D<3 D D D D=5% D=5% D=5% D=5% D=5% D=5% D=5% D=5% D=5% D=5% D=5% D=5% D=5% D=5% D=5% D=5% D=5% D=5% D=5% D=5% D=5% D=5% D=5% D=5% D=5% D=5% D=5% D=5% D=5% D=5% D=5% D=5% D=5% D=5% D=5% D=5% D=5% D=5% D=5% D=5% D=5% D=5% D=5% D=5% D=5% D=5% D=5% D=5% D=5% D=5% D=5% D=5% D=5% D=5% D=5% D=5% D=5% D=5% D=5% D=5% D=5% D=5% D=5% D=5% D=5% D=5% D=5% D=5% D=5% D=5% D=5% D=5% D=5% D=5% D=5% D=5% D=5% D=5% D=5% D=5% D=5% D=5% D=5% D=5% D=5% D=5% D=5% D=5% D=5% =5% =5% =5% =5% =5% =5% =5% ==5% ==5% ==5% ==5% ==5% ==5% ==5% ==5% ==5% ==5% ==5% ==5% ==5% ==5% ==5% ==5% ==5% ==5% ==5% ==5% ==5% ==5% ==5% ==5% ==5% ==5% ==5% ==5% ==5% ==5% ==5% ==5% ==5% ==5% ==5% ==5% ==5% ==5% ==5% ==5% ==5% ==5% ==5% ==5% ==5% ==5% ==5% ==5% ==5% ==5% ==5% ==5% ==5% ==5% ==5% ==5% ==5% ==5% ==5% ==5% ==5% ==5% ==5% ==5% ==5% ==5% ==5% ==5% ==5% ==5% ==5% ==5% ==5% ==5% ==5% ==5% ==5% ==5% ==5% ==5% ==5% = = = = = = = =        A A A A A A A A A A A A A A A A A A A A A A A A A A A A A A A A A A A A A A A A A A A A A A A A A A A A A A A A A A A A A A A A A A A A A A A A A A A A A A A A A A A A A A A A A        D D D D D D D D D D D D D D D D D D D D D D D D D D D D D D D D D D D D D D D D D D D D D D D D D D D D D D D D D D D D D D D D D D D D D D D D D D D D D D D D D D D D D D D D D        H H H H H H H H H H H H H H H H H H H H H H H H H H H H H H H H H H H H H H H H H H H H H H H H H H H H H H H H H H H H H H H H H H H H H H H H H H H H H H H H H H H H H H H H H H H H H H H H F F F F F F F F F F F F F F F F F F F F F F F F F F F F F F F F F F F F F F F F F F F F F F F F F F F F F F F F F F F F F F F F F F F F F F F F F F F F F F F F F F F F F F F F F        F2 F2 F2 F2 F2 F2 F2 F2 F2 F2 F2 F2 F2 F2 F2 F2 F2 F2 F2 F2 F2 F2 F2 F2 F2 F2 F2 F2 F2 F2 F2 F2 F2 F2 F2 F2 F2 F2 F2 F2 F2 F2 F2 F2 F2 F2 F2 F2 F2 F2 F2 F2 F2 F2 F2 F2 F2 F2 F2 F2 F2 F2 F2 F2 F2 F2 F2 F2 F2 F2 F2 F2 F2 F2 F2 F2 F2 F2 F2 F2 F2 F2 F2 F2 F2 F2 F2 F2 F2 F2 F2 F2 F2 F2 F2 F2 FF2 FF2 FF2 FF2 FF2 FF2 FF2 FF2 FF2 FF2 FF2 FF2 FF2 FF2 FF2 FF2 FF2 FF2 FF2 FF2 FF2 FF2 FF2 FF2 FF2 FF2 FF2 FF2 FF2 FF2 FF2 FF2 FF2 FF2 FF2 FF2 FF2 FF2 FF2 FF2 FF2 FF2 FF2 FF2 FF2 FF2 FF2 FF2 FF2 FF2 FF2 FF2 FF2 FF2 FF2 FF2 FF2 FF2 FF2 FF2 FF2 FF2 FF2 FF2 FF2 FF2 FF2 FF2 FF2 FF2 FF2 FF2 FF2 FF2 FF2 FF2 FF2 FF2 FF2 FF2 FF2 FF FF FF FF FF FF FF FF F F F F F F F FM. FM. FM. FM. FM. FM. FM. FM. FM. FM. FM. FM. FM. FM. FM. FM. FM. FM. FM. FM. FM. FM. FM. FM. FM. FM. FM. FM. FM. FM. FM. FM. FM. FM. FM. FM. FM. FM. FM. FM. FM. FM. FM. FM. FM. FM. FM. FM. FM. FM. FM. FM. FM. FM. FM. FM. FM. FM. FM. FM. FM. FM. FM. FM. FM. FM. FM. FM. FM. FM. FM. FM. FM. FM. FM. FM. FM. FM. FM. FM. FM. FM. FM. FM. FM. FM. FM. FM. FM. F. F. F. F. F. F. F. FF. FF. FF. FF. FF. FF. FF. FF. FF. FF. FF. FF. FF. FF. FF. FF. FF. FF. FF. FF. FF. FF. FF. FF. FF. FF. FF. FF. FF. FF. FF. FF. FF. FF. FF. FF. FF. FF. FF. FF. FF. FF. FF. FF. FF. FF. FF. FF. FF. FF. FF. FF. FF. FF. FF. FF. FF. FF. FF. FF. FF. FF. FF. FF. FF. FF. FF. FF. FF. FF. FF. FF. FF. FF. FF. FF. FF. FF. FF. FF. FF. FF FF FF FF FF FF FF FF F F F F F F F FD2 FD2 FD2 FD2 FD2 FD2 FD2 FD2 FD2 FD2 FD2 FD2 FD2 FD2 FD2 FD2 FD2 FD2 FD2 FD2 FD2 FD2 FD2 FD2 FD2 FD2 FD2 FD2 FD2 FD2 FD2 FD2 FD2 FD2 FD2 FD2 FD2 FD2 FD2 FD2 FD2 FD2 FD2 FD2 FD2 FD2 FD2 FD2 FD2 FD2 FD2 FD2 FD2 FD2 FD2 FD2 FD2 FD2 FD2 FD2 FD2 FD2 FD2 FD2 FD2 FD2 FD2 FD2 FD2 FD2 FD2 FD2 FD2 FD2 FD2 FD2 FD2 FD2 FD2 FD2 FD2 FD2 FD2 FD2 FD2 FD2 FD2 FD2 FD2 F2 F2 F2 F2 F2 F2 F2 FC2 FC2 FC2 FC2 FC2 FC2 FC2 FC2 FC2 FC2 FC2 FC2 FC2 FC2 FC2 FC2 FC2 FC2 FC2 FC2 FC2 FC2 FC2 FC2 FC2 FC2 FC2 FC2 FC2 FC2 FC2 FC2 FC2 FC2 FC2 FC2 FC2 FC2 FC2 FC2 FC2 FC2 FC2 FC2 FC2 F2 F2 F2 FA2 FA2 FA2 FA2 FA2 FA2 FA2 FA2 FA2 FA2 FA2 FA2 FA2 FA2 FA2 FA2 FA2 FA2 FA2 FA2 FA2 FA2 FA2 FA2 FA2 FA2 FA2 FA2 FA2 FA2 FA2 FA2 FA2 FA FA FA FA FA FA FA FA FA FA FA FA F F F FC3 FC3 FC3 FC3 FC3 FC3 FC3 FC3 FC3 FC3 FC3 FC3 FC3 FC3 FC3 FC3 FC3 FC3 FC3 FC3 FC3 FC3 FC3 FC3 FC3 FC3 FC3 FC3 FC3 FC3 FC3 FC3 FC3 FC3 FC3 FC3 FC3 FC3 FC3 FC3 FC3 FC3 FC3 FC3 FC3 FC3 FC3 FC3 FC3 FC3 FC3 FC3 FC3 FC3 FC3 FC3 FC3 FC3 FC3 FC3 FC3 FC3 FC3 FC3 FC3 FC3 FC3 FC3 FC3 FC3 FC3 FC3 FC3 FC3 FC3 FC3 FC3 FC3 FC3 FC3 FC3 FC3 FC3 FC3 FC3 FC3 FC3 FC3 FC3 FC3 FC3 FC3 FC3 FC3 FC3 FC3 F:C3 F:C3 F:C3 F:C3 F:C3 F:C3 F:C3 F:C3 F:C3 F:C3 F:C3 F:C3 F:C3 F:C3 F:C3 F:C3 F:C3 F:C3 F:C3 F:C3 F:C3 F:C3 F:C3 F:C3 F:C3 F:C3 F:C3 F:C3 F:C3 F:C3 F:C3 F:C3 F:C3 F:C3 F:C3 F:C3 F:C3 F:C3 F:C3 F:C3 F:C3 F:C3 F:C3 F:C3 F:C3 F:C3 F:C3 F:C3 F:C3 F:C3 F:C3 F:C3 F:C3 F:C3 F:C3 F:C3 F:C3 F:C3 F:C3 F:C3 F:C3 F:C3 F:C3 F:C3 F:C3 F:C3 F:C3 F:C3 F:C3 F:C3 F:C3 F:C3 F:C3 F:C3 F:C3 F:C3 F:C3 F:C3 F:C3 F:C3 F:C3 F:C F:C F:C F:C F:C F:C F:C F:C FC FC FC FC FC FC FC FC?+ FC?+ FC?+ FC?+ FC?+ FC?+ FC?+ FC?+ FC?+ FC?+ FC?+ FC?+ FC?+ FC?+ FC?+ FC?+ FC?+ FC?+ FC?+ FC?+ FC?+ FC?+ FC?+ FC?+ FC?+ FC?+ FC?+ FC?+ FC?+ FC?+ FC?+ FC?+ FC?+ FC?+ FC?+ FC?+ FC?+ FC?+ FC?+ FC?+ FC?+ FC?+ FC?+ FC?+ FC?+ FC?+ FC?+ FC?+ FC?+ FC?+ FC?+ FC?+ FC?+ FC?+ FC?+ FC?+ FC?+ FC?+ FC?+ FC?+ FC?+ FC?+ FC?+ FC?+ FC?+ FC?+ FC?+ FC?+ FC?+ FC?+ FC?+ FC?+ FC?+ F?+ F?+ F?+ F?+ F?+ F?+ F?+ F?+ F?+ F?+ F?+ F?+ F?+ F?+ F?+ F?+ F+ F+ F+ F+ F+ F+ F+ FC:+ FC:+ FC:+ FC:+ FC:+ FC:+ FC:+ FC:+ FC:+ FC:+ FC:+ FC:+ FC:+ FC:+ FC:+ FC:+ FC:+ FC:+ FC:+ FC:+ FC:+ FC:+ FC:+ FC:+ FC:+ FC:+ FC:+ FC:+ FC:+ FC:+ FC:+ FC:+ FC:+ FC:+ FC:+ FC:+ FC:+ FC:+ FC:+ FC:+ FC:+ FC:+ FC:+ FC:+ FC:+ FC:+ FC:+ FC:+ FC:+ FC:+ FC:+ FC:+ FC:+ FC:+ FC:+ FC:+ FC:+ FC:+ FC:+ FC:+ FC:+ FC:+ FC:+ FC:+ FC:+ FC:+ FC:+ FC:+ FC:+ FC:+ FC:+ FC:+ FC:+ FC:+ FC:+ FC:+ FC:+ FC:+ FC:+ FC:+ FC:+ FC: FC: FC: FC: FC: FC: FC: FC: F F F F F F F FA8. FA8. FA8. FA8. FA8. FA8. FA8. FA8. FA8. FA8. FA8. FA8. FA8. FA8. FA8. FA8. FA8. FA8. FA8. FA8. FA8. FA8. FA8. FA8. FA8. FA8. FA8. FA8. FA8. FA8. FA8. FA8. FA8. FA8. FA8. FA8. FA8. FA8. FA8. FA8. FA8. FA8. FA8. FA8. FA8. FA8. FA8. FA8. FA8. FA8. FA8. FA8. FA8. FA8. FA8. FA8. FA8. FA8. FA8. FA8. FA8. FA8. FA8. FA8. FA8. FA8. FA8. FA8. FA8. FA8. FA8. FA8. FA8. FA8. FA8. FA8. FA8. FA8. FA8. FA8. FA8. FA8. FA8. FA8. FA8. FA8. FA8. FA8. FA8. F. F. F. F. F. F. F. F?7. F?7. F?7. F?7. F?7. F?7. F?7. F?7. F?7. F?7. F?7. F?7. F?7. F?7. F?7. F?7. F?7. F?7. F?7. F?7. F?7. F?7. F?7. F?7. F?7. F?7. F?7. F?7. F?7. F?7. F?7. F?7. F?7. F?7. F?7. F?7. F?7. F?7. F?7. F?7. F?7. F?7. F?7. F?7. F?7. F. F. F. F>5. F>5. F>5. F>5. F>5. F>5. F>5. F>5. F>5. F>5. F>5. F>5. F>5. F>5. F>5. F>5. F>5. F>5. F>5. F>5. F>5. F>5. F>5. F>5. F>5. F>5. F>5. F>5. F>5. F>5. F>5. F>5. F>5. F>5 F>5 F>5 F>5 F>5 F>5 F>5 F>5 F>5 F>5 F>5 F>5 F F F F?7' F?7' F?7' F?7' F?7' F?7' F?7' F?7' F?7' F?7' F?7' F?7' F?7' F?7' F?7' F?7' F?7' F?7' F?7' F?7' F?7' F?7' F?7' F?7' F?7' F?7' F?7' F?7' F?7' F?7' F?7' F?7' F?7' F?7' F?7' F?7' F?7' F?7' F?7' F?7' F?7' F?7' F?7' F?7' F?7' F?7' F?7' F?7' F?7' F?7' F?7' F?7' F?7' F?7' F?7' F?7' F?7' F?7' F?7' F?7' F?7' F?7' F?7' F?7' F?7' F?7' F?7' F?7' F?7' F?7' F?7' F?7' F?7' F?7' F?7' F?7' F?7' F?7' F?7' F?7' F?7' F?7' F?7' F?7' F?7' F?7' F?7' F?7' F?7' ?7' ?7' ?7' ?7' ?7' ?7' ?7' ??7' ??7' ??7' ??7' ??7' ??7' ??7' ??7' ??7' ??7' ??7' ??7' ??7' ??7' ??7' ??7' ??7' ??7' ??7' ??7' ??7' ??7' ??7' ??7' ??7' ??7' ??7' ??7' ??7' ??7' ??7' ??7' ??7' ??7' ??7' ??7' ??7' ??7' ??7' ??7' ??7' ??7' ??7' ??7' ??7' ??7' ??7' ??7' ??7' ??7' ??7' ??7' ??7' ??7' ??7' ??7' ??7' ??7' ??7' ??7' ??7' ??7' ??7' ??7' ??7' ??7' ??7' ??7' ??7' ??7' ??7' ??7' ??7' ??7' ??7' ??7' ??7' ??7' ??7' ??7' ??7' ? ? ? ? ? ? ? ?        C C C C C C C C C C C C C C C C C C C C C C C C C C C C C C C C C C C C C C C C C C C C C C C C C C C C C C C C C C C C C C C C C C C C C C C C C C C C C C C C C C C C C C C C C        F F F F F F F F F F F F F F F F F F F F F F F F F F F F F F F F F F F F F F F F F F F F F F F F F F F F F F F F F F F F F F F F F F F F F F F F F F F F F F F F F F F F F F F F F        I I I I I I I I I I I I I I I I I I I I I I I I I I I I I I I I I I I I I I I I I I I I I I I I I I I I I I I I I I I I I I I I I I I I I I I I I I I I I I I I I I I I I I I I I I I I I I I I H H H H H H H H H H H H H H H H H H H H H H H H H H H H H H H H H H H H H H H H H H H H H H H H H H H H H H H H H H H H H H H H H H H H H H H H H H H H H H H H H H H H H H H H H        H4 H4 H4 H4 H4 H4 H4 H4 H4 H4 H4 H4 H4 H4 H4 H4 H4 H4 H4 H4 H4 H4 H4 H4 H4 H4 H4 H4 H4 H4 H4 H4 H4 H4 H4 H4 H4 H4 H4 H4 H4 H4 H4 H4 H4 H4 H4 H4 H4 H4 H4 H4 H4 H4 H4 H4 H4 H4 H4 H4 H4 H4 H4 H4 H4 H4 H4 H4 H4 H4 H4 H4 H4 H4 H4 H4 H4 H4 H4 H4 H4 H4 H4 H4 H4 H4 H4 H4 H4 H4 H4 H4 H4 H4 H4 H4 HH4 HH4 HH4 HH4 HH4 HH4 HH4 HH4 HH4 HH4 HH4 HH4 HH4 HH4 HH4 HH4 HH4 HH4 HH4 HH4 HH4 HH4 HH4 HH4 HH4 HH4 HH4 HH4 HH4 HH4 HH4 HH4 HH4 HH4 HH4 HH4 HH4 HH4 HH4 HH4 HH4 HH4 HH4 HH4 HH4 HH4 HH4 HH4 HH4 HH4 HH4 HH4 HH4 HH4 HH4 HH4 HH4 HH4 HH4 HH4 HH4 HH4 HH4 HH4 HH4 HH4 HH4 HH4 HH4 HH4 HH4 HH4 HH4 HH4 HH4 HH4 HH4 HH4 HH4 HH4 HH4 HH HH HH HH HH HH HH HH H H H H H H H HO0 HO0 HO0 HO0 HO0 HO0 HO0 HO0 HO0 HO0 HO0 HO0 HO0 HO0 HO0 HO0 HO0 HO0 HO0 HO0 HO0 HO0 HO0 HO0 HO0 HO0 HO0 HO0 HO0 HO0 HO0 HO0 HO0 HO0 HO0 HO0 HO0 HO0 HO0 HO0 HO0 HO0 HO0 HO0 HO0 HO0 HO0 HO0 HO0 HO0 HO0 HO0 HO0 HO0 HO0 HO0 HO0 HO0 HO0 HO0 HO0 HO0 HO0 HO0 HO0 HO0 HO0 HO0 HO0 HO0 HO0 HO0 HO0 HO0 HO0 HO0 HO0 HO0 HO0 HO0 HO0 HO0 HO0 HO0 HO0 HO0 HO0 HO0 HO0 H0 H0 H0 H0 H0 H0 H0 HH0 HH0 HH0 HH0 HH0 HH0 HH0 HH0 HH0 HH0 HH0 HH0 HH0 HH0 HH0 HH0 HH0 HH0 HH0 HH0 HH0 HH0 HH0 HH0 HH0 HH0 HH0 HH0 HH0 HH0 HH0 HH0 HH0 HH0 HH0 HH0 HH0 HH0 HH0 HH0 HH0 HH0 HH0 HH0 HH0 HH0 HH0 HH0 HH0 HH0 HH0 HH0 HH0 HH0 HH0 HH0 HH0 HH0 HH0 HH0 HH0 HH0 HH0 HH0 HH0 HH0 HH0 HH0 HH0 HH0 HH0 HH0 HH0 HH0 HH0 HH0 HH0 HH0 HH0 HH0 HH0 HH HH HH HH HH HH HH HH H H H H H H H HF4 HF4 HF4 HF4 HF4 HF4 HF4 HF4 HF4 HF4 HF4 HF4 HF4 HF4 HF4 HF4 HF4 HF4 HF4 HF4 HF4 HF4 HF4 HF4 HF4 HF4 HF4 HF4 HF4 HF4 HF4 HF4 HF4 HF4 HF4 HF4 HF4 HF4 HF4 HF4 HF4 HF4 HF4 HF4 HF4 HF4 HF4 HF4 HF4 HF4 HF4 HF4 HF4 HF4 HF4 HF4 HF4 HF4 HF4 HF4 HF4 HF4 HF4 HF4 HF4 HF4 HF4 HF4 HF4 HF4 HF4 HF4 HF4 HF4 HF4 HF4 HF4 HF4 HF4 HF4 HF4 HF4 HF4 HF4 HF4 HF4 HF4 HF4 HF4 H4 H4 H4 H4 H4 H4 H4 HD4 HD4 HD4 HD4 HD4 HD4 HD4 HD4 HD4 HD4 HD4 HD4 HD4 HD4 HD4 HD4 HD4 HD4 HD4 HD4 HD4 HD4 HD4 HD4 HD4 HD4 HD4 HD4 HD4 HD4 HD4 HD4 HD4 HD4 HD4 HD4 HD4 HD4 HD4 HD4 HD4 HD4 HD4 HD4 HD4 H4 H4 H4 HC4 HC4 HC4 HC4 HC4 HC4 HC4 HC4 HC4 HC4 HC4 HC4 HC4 HC4 HC4 HC4 HC4 HC4 HC4 HC4 HC4 HC4 HC4 HC4 HC4 HC4 HC4 HC4 HC4 HC4 HC4 HC4 HC4 HC HC HC HC HC HC HC HC HC HC HC HC H H H HD5 HD5 HD5 HD5 HD5 HD5 HD5 HD5 HD5 HD5 HD5 HD5 HD5 HD5 HD5 HD5 HD5 HD5 HD5 HD5 HD5 HD5 HD5 HD5 HD5 HD5 HD5 HD5 HD5 HD5 HD5 HD5 HD5 HD5 HD5 HD5 HD5 HD5 HD5 HD5 HD5 HD5 HD5 HD5 HD5 HD5 HD5 HD5 HD5 HD5 HD5 HD5 HD5 HD5 HD5 HD5 HD5 HD5 HD5 HD5 HD5 HD5 HD5 HD5 HD5 HD5 HD5 HD5 HD5 HD5 HD5 HD5 HD5 HD5 HD5 HD5 HD5 HD5 HD5 HD5 HD5 HD5 HD5 HD5 HD5 HD5 HD5 HD5 HD5 HD5 HD5 HD5 HD5 HD5 HD5 HD5 H<D5 H<D5 H<D5 H<D5 H<D5 H<D5 H<D5 H<D5 H<D5 H<D5 H<D5 H<D5 H<D5 H<D5 H<D5 H<D5 H<D5 H<D5 H<D5 H<D5 H<D5 H<D5 H<D5 H<D5 H<D5 H<D5 H<D5 H<D5 H<D5 H<D5 H<D5 H<D5 H<D5 H<D5 H<D5 H<D5 H<D5 H<D5 H<D5 H<D5 H<D5 H<D5 H<D5 H<D5 H<D5 H<D5 H<D5 H<D5 H<D5 H<D5 H<D5 H<D5 H<D5 H<D5 H<D5 H<D5 H<D5 H<D5 H<D5 H<D5 H<D5 H<D5 H<D5 H<D5 H<D5 H<D5 H<D5 H<D5 H<D5 H<D5 H<D5 H<D5 H<D5 H<D5 H<D5 H<D5 H<D5 H<D5 H<D5 H<D5 H<D5 H<D H<D H<D H<D H<D H<D H<D H<D HD HD HD HD HD HD HD HDA, HDA, HDA, HDA, HDA, HDA, HDA, HDA, HDA, HDA, HDA, HDA, HDA, HDA, HDA, HDA, HDA, HDA, HDA, HDA, HDA, HDA, HDA, HDA, HDA, HDA, HDA, HDA, HDA, HDA, HDA, HDA, HDA, HDA, HDA, HDA, HDA, HDA, HDA, HDA, HDA, HDA, HDA, HDA, HDA, HDA, HDA, HDA, HDA, HDA, HDA, HDA, HDA, HDA, HDA, HDA, HDA, HDA, HDA, HDA, HDA, HDA, HDA, HDA, HDA, HDA, HDA, HDA, HDA, HDA, HDA, HDA, HDA, HA, HA, HA, HA, HA, HA, HA, HA, HA, HA, HA, HA, HA, HA, HA, HA, H, H, H, H, H, H, H, HD<, HD<, HD<, HD<, HD<, HD<, HD<, HD<, HD<, HD<, HD<, HD<, HD<, HD<, HD<, HD<, HD<, HD<, HD<, HD<, HD<, HD<, HD<, HD<, HD<, HD<, HD<, HD<, HD<, HD<, HD<, HD<, HD<, HD<, HD<, HD<, HD<, HD<, HD<, HD<, HD<, HD<, HD<, HD<, HD<, HD<, HD<, HD<, HD<, HD<, HD<, HD<, HD<, HD<, HD<, HD<, HD<, HD<, HD<, HD<, HD<, HD<, HD<, HD<, HD<, HD<, HD<, HD<, HD<, HD<, HD<, HD<, HD<, HD<, HD<, HD<, HD<, HD<, HD<, HD<, HD<, HD< HD< HD< HD< HD< HD< HD< HD< H H H H H H H HC:0 HC:0 HC:0 HC:0 HC:0 HC:0 HC:0 HC:0 HC:0 HC:0 HC:0 HC:0 HC:0 HC:0 HC:0 HC:0 HC:0 HC:0 HC:0 HC:0 HC:0 HC:0 HC:0 HC:0 HC:0 HC:0 HC:0 HC:0 HC:0 HC:0 HC:0 HC:0 HC:0 HC:0 HC:0 HC:0 HC:0 HC:0 HC:0 HC:0 HC:0 HC:0 HC:0 HC:0 HC:0 HC:0 HC:0 HC:0 HC:0 HC:0 HC:0 HC:0 HC:0 HC:0 HC:0 HC:0 HC:0 HC:0 HC:0 HC:0 HC:0 HC:0 HC:0 HC:0 HC:0 HC:0 HC:0 HC:0 HC:0 HC:0 HC:0 HC:0 HC:0 HC:0 HC:0 HC:0 HC:0 HC:0 HC:0 HC:0 HC:0 HC:0 HC:0 HC:0 HC:0 HC:0 HC:0 HC:0 HC:0 H0 H0 H0 H0 H0 H0 H0 HA80 HA80 HA80 HA80 HA80 HA80 HA80 HA80 HA80 HA80 HA80 HA80 HA80 HA80 HA80 HA80 HA80 HA80 HA80 HA80 HA80 HA80 HA80 HA80 HA80 HA80 HA80 HA80 HA80 HA80 HA80 HA80 HA80 HA80 HA80 HA80 HA80 HA80 HA80 HA80 HA80 HA80 HA80 HA80 HA80 H0 H0 H0 H@70 H@70 H@70 H@70 H@70 H@70 H@70 H@70 H@70 H@70 H@70 H@70 H@70 H@70 H@70 H@70 H@70 H@70 H@70 H@70 H@70 H@70 H@70 H@70 H@70 H@70 H@70 H@70 H@70 H@70 H@70 H@70 H@70 H@7 H@7 H@7 H@7 H@7 H@7 H@7 H@7 H@7 H@7 H@7 H@7 H H H HA8) HA8) HA8) HA8) HA8) HA8) HA8) HA8) HA8) HA8) HA8) HA8) HA8) HA8) HA8) HA8) HA8) HA8) HA8) HA8) HA8) HA8) HA8) HA8) HA8) HA8) HA8) HA8) HA8) HA8) HA8) HA8) HA8) HA8) HA8) HA8) HA8) HA8) HA8) HA8) HA8) HA8) HA8) HA8) HA8) HA8) HA8) HA8) HA8) HA8) HA8) HA8) HA8) HA8) HA8) HA8) HA8) HA8) HA8) HA8) HA8) HA8) HA8) HA8) HA8) HA8) HA8) HA8) HA8) HA8) HA8) HA8) HA8) HA8) HA8) HA8) HA8) HA8) HA8) HA8) HA8) HA8) HA8) HA8) HA8) HA8) HA8) HA8) HA8) ) ) ) ) ) ) ) AH) AH) AH) AH) AH) AH) AH) AH) AH) AH) AH) AH) AH) AH) AH) AH) AH) AH) AH) AH) AH) AH) AH) AH) AH) AH) AH) AH) AH) AH) AH) AH) AH) AH) AH) AH) AH) AH) AH) AH) AH) AH) AH) AH) AH) AH) AH) AH) AH) AH) AH) AH) AH) AH) AH) AH) AH) AH) AH) AH) AH) AH) AH) AH) AH) AH) AH) AH) AH) AH) AH) AH) AH) AH) AH) AH) AH) AH) AH) AH) AH) AH AH AH AH AH AH AH AH        DM DM DM DM DM DM DM DM DM DM DM DM DM DM DM DM DM DM DM DM DM DM DM DM DM DM DM DM DM DM DM DM DM DM DM DM DM DM DM DM DM DM DM DM DM DM DM DM DM DM DM DM DM DM DM DM DM DM DM DM DM DM DM DM DM DM DM DM DM DM DM DM DM DM DM DM DM DM DM DM DM DM DM DM DM DM DM DM DM        HH HH HH HH HH HH HH HH HH HH HH HH HH HH HH HH HH HH HH HH HH HH HH HH HH HH HH HH HH HH HH HH HH HH HH HH HH HH HH HH HH HH HH HH HH HH HH HH HH HH HH HH HH HH HH HH HH HH HH HH HH HH HH HH HH HH HH HH HH HH HH HH HH HH HH HH HH HH HH HH HH HH HH HH HH HH HH HH HH        PF<5 PF<5 PF<5 PF<5 PF<5 PF<5 PF<5 PF<5 PF<5 PF<5 PF<5 PF<5 PF<5 PF<5 PF<5 PF<5 PF<5 PF<5 PF<5 PF<5 PF<5 PF<5 PF<5 PF<5 PF<5 PF<5 PF<5 PF<5 PF<5 PF<5 PF<5 PF<5 PF<5 PF<5 PF<5 PF<5 PF<5 PF<5 PF<5 PF<5 PF<5 PF<5 PF<5 PF<5 PF<5 P<5 P<5 P<5 PD<5 PD<5 PD<5 PD<5 PD<5 PD<5 PD<5 PD<5 PD<5 PD<5 PD<5 PD<5 PD<5 PD<5 PD<5 PD<5 PD<5 PD<5 PD<5 PD<5 PD<5 PD<5 PD<5 PD<5 PD<5 PD<5 PD<5 PD<5 PD<5 PD<5 PD<5 PD<5 PD<5 PD<5 PD<5 PD<5 PD<5 PD<5 PD<5 PD<5 PD<5 PD<5 PD<5 PD<5 PD<5 P<5 P<5 P<5 PC<5 PC<5 PC<5 PC<5 PC<5 PC<5 PC<5 PC<5 PC<5 PC<5 PC<5 PC<5 PC<5 PC<5 PC<5 PC<5 PC<5 PC<5 PC<5 PC<5 PC<5 PC<5 PC<5 PC<5 PC<5 PC<5 PC<5 PC<5 PC<5 PC<5 PC<5 PC<5 PC<5 PC<5 PC<5 PC<5 PC<5 PC<5 PC<5 PC<5 PC<5 PC<5 PC<5 PC<5 PC<5 P<5 P<5 P<5 P<A5 P<A5 P<A5 P<A5 P<A5 P<A5 P<A5 P<A5 P<A5 P<A5 P<A5 P<A5 P<A5 P<A5 P<A5 P<A5 P<A5 P<A5 P<A5 P<A5 P<A5 P<A5 P<A5 P<A5 P<A5 P<A5 P<A5 P<A5 P<A5 P<A5 P<A5 P<A5 P<A5 PA PA PA PA PA PA PA PA PA PA PA PA P P P P:I. P:I. P:I. P:I. P:I. P:I. P:I. P:I. P:I. P:I. P:I. P:I. P:I. P:I. P:I. P:I. P:I. P:I. P:I. P:I. P:I. P:I. P:I. P:I. P:I. P:I. P:I. P:I. P:I. P:I. P:I. P:I. P:I. P:I. P:I. P:I. P:I. P:I. P:I. P:I. P:I. P:I. P:I. P:I. P:I. P:I. P:I. P:I. P:I. P:I. P:I. P:I. P:I. P:I. P:I. P:I. P:I. P:I. P:I. P:I. P:I. P:I. P:I. P:I. P:I. P:I. P:I. P:I. P:I. P:I. P:I. P:I. P:I. P:I. P:I. P:I. P:I. P:I. P:I. P:I. P:I. P:I. P:I. P:I. P:I. P:I. P:I. P:I. P:I. I. I. I. I. I. I. I. MAI. MAI. MAI. MAI. MAI. MAI. MAI. MAI. MAI. MAI. MAI. MAI. MAI. MAI. MAI. MAI. MAI. MAI. MAI. MAI. MAI. MAI. MAI. MAI. MAI. MAI. MAI. MAI. MAI. MAI. MAI. MAI. MAI. MAI. MAI. MAI. MAI. MAI. MAI. MAI. MAI. MAI. MAI. MAI. MAI. MAI. MAI. MAI. MAI. MAI. MAI. MAI. MAI. MAI. MAI. MAI. MAI. MAI. MAI. MAI. MAI. MAI. MAI. MAI. MAI. MAI. MAI. MAI. MAI. MAI. MAI. MAI. MAI. MAI. MAI. MAI. MAI. MAI. MAI. MAI. MAI. MAI MAI MAI MAI MAI MAI MAI MAI I I I I I I I IFI IFI IFI IFI IFI IFI IFI IFI IFI IFI IFI IFI IFI IFI IFI IFI IFI IFI IFI IFI IFI IFI IFI IFI IFI IFI IFI IFI IFI IFI IFI IFI IFI IFI IFI IFI IFI IFI IFI IFI IFI IFI IFI IFI IFI IFI IFI IFI IFI IFI IFI IFI IFI IFI IFI IFI IFI IFI IFI IFI IFI IFI IFI IFI IFI IFI IFI IFI IFI IFI IFI IFI IFI IFI IFI IFI IFI IFI IFI IFI IFI IFI IFI IFI IFI IFI IFI IFI IFI I I I I I I I FAI FAI FAI FAI FAI FAI FAI FAI FAI FAI FAI FAI FAI FAI FAI FAI FAI FAI FAI FAI FAI FAI FAI FAI FAI FAI FAI FAI FAI FAI FAI FAI FAI FAI FAI FAI FAI FAI FAI FAI FAI FAI FAI FAI FAI FAI FAI FAI FAI FAI FAI FAI FAI FAI FAI FAI FAI FAI FAI FAI FAI FAI FAI FAI FAI FAI FAI FAI FAI FAI FAI FAI FAI FAI FAI FAI FAI FAI FAI FAI FAI FAI FAI FAI FAI FAI FAI FAI FAI I I I I I I I D?I. D?I. D?I. D?I. D?I. D?I. D?I. D?I. D?I. D?I. D?I. D?I. D?I. D?I. D?I. D?I. D?I. D?I. D?I. D?I. D?I. D?I. D?I. D?I. D?I. D?I. D?I. D?I. D?I. D?I. D?I. D?I. D?I. D?I. D?I. D?I. D?I. D?I. D?I. D?I. D?I. D?I. D?I. D?I. D?I. DI. DI. DI. D<I. D<I. D<I. D<I. D<I. D<I. D<I. D<I. D<I. D<I. D<I. D<I. D<I. D<I. D<I. D<I. D<I. D<I. D<I. D<I. D<I. D<I. D<I. D<I. D<I. D<I. D<I. D<I. D<I. D<I. D<I. D<I. D<I. D<I. D<I. D<I. D<I. D<I. D<I. D<I. D<I. <I. <I. <I. <I. I. I. I. C=I. C=I. C=I. C=I. C=I. C=I. C=I. C=I. C=I. C=I. C=I. C=I. C=I. C=I. C=I. C=I. C=I. C=I. C=I. C=I. C=I. C=I. C=I. C=I. C=I. C=I. C=I. C=I. C=I. C=I. C=I. C=I. C=I. C=I. C=I. C=I. C=I. C=I. C=I. C=I. C=I. C=I. C=I. C=I. C=I. I. I. I. A:I. A:I. A:I. A:I. A:I. A:I. A:I. A:I. A:I. A:I. A:I. A:I. A:I. A:I. A:I. A:I. A:I. A:I. A:I. A:I. A:I. A:I. A:I. A:I. A:I. A:I. A:I. A:I. A:I. A:I. A:I. A:I. A:I. A:I A:I A:I A:I A:I A:I A:I A:I A:I A:I A:I A:I I I I CIC3 CIC3 CIC3 CIC3 CIC3 CIC3 CIC3 CIC3 CIC3 CIC3 CIC3 CIC3 CIC3 CIC3 CIC3 CIC3 CIC3 CIC3 CIC3 CIC3 CIC3 CIC3 CIC3 CIC3 CIC3 CIC3 CIC3 CIC3 CIC3 CIC3 CIC3 CIC3 CIC3 CIC3 CIC3 CIC3 CIC3 CIC3 CIC3 CIC3 CIC3 CIC3 CIC3 CIC3 CIC3 CIC3 CIC3 CIC3 CIC3 CIC3 CIC3 CIC3 CIC3 CIC3 CIC3 CIC3 CIC3 CIC3 CIC3 CIC3 CIC3 CIC3 CIC3 CIC3 CIC3 CIC3 CIC3 CIC3 CIC3 CIC3 CIC3 CIC3 CIC3 CIC3 CIC3 CIC3 CIC3 CIC3 CIC3 CIC3 CIC3 CIC3 CIC3 CIC3 CIC3 CIC3 CIC3 CIC3 CIC3 C3 C3 C3 C3 C3 C3 C3 ?CF3 ?CF3 ?CF3 ?CF3 ?CF3 ?CF3 ?CF3 ?CF3 ?CF3 ?CF3 ?CF3 ?CF3 ?CF3 ?CF3 ?CF3 ?CF3 ?CF3 ?CF3 ?CF3 ?CF3 ?CF3 ?CF3 ?CF3 ?CF3 ?CF3 ?CF3 ?CF3 ?CF3 ?CF3 ?CF3 ?CF3 ?CF3 ?CF3 ?CF3 ?CF3 ?CF3 ?CF3 ?CF3 ?CF3 ?CF3 ?CF3 ?CF3 ?CF3 ?CF3 ?CF3 ?CF3 ?CF3 ?CF3 ?CF3 ?CF3 ?CF3 ?CF3 ?CF3 ?CF3 ?CF3 ?CF3 ?CF3 ?CF3 ?CF3 ?CF3 ?CF3 ?CF3 ?CF3 ?CF3 ?CF3 ?CF3 ?CF3 ?CF3 ?CF3 ?CF3 ?CF3 ?CF3 ?CF3 ?CF3 ?CF3 ?CF3 ?CF3 ?CF3 ?CF3 ?CF3 ?CF3 ?F ?F ?F ?F ?F ?F ?F ?F        CK CK CK CK CK CK CK CK CK CK CK CK CK CK CK CK CK CK CK CK CK CK CK CK CK CK CK CK CK CK CK CK CK CK CK CK CK CK CK CK CK CK CK CK CK CK CK CK CK CK CK CK CK CK CK CK CK CK CK CK CK CK CK CK CK CK CK CK CK CK CK CK CK CK CK CK CK CK CK CK CK CK CK CK CK CK CK CK CK        FF FF FF FF FF FF FF FF FF FF FF FF FF FF FF FF FF FF FF FF FF FF FF FF FF FF FF FF FF FF FF FF FF FF FF FF FF FF FF FF FF FF FF FF FF FF FF FF FF FF FF FF FF FF FF FF FF FF FF FF FF FF FF FF FF FF FF FF FF FF FF FF FF FF FF FF FF FF FF FF FF FF FF FF FF FF FF FF FF        OD3 OD3 OD3 OD3 OD3 OD3 OD3 OD3 OD3 OD3 OD3 OD3 OD3 OD3 OD3 OD3 OD3 OD3 OD3 OD3 OD3 OD3 OD3 OD3 OD3 OD3 OD3 OD3 OD3 OD3 OD3 OD3 OD3 OD3 OD3 OD3 OD3 OD3 OD3 OD3 OD3 OD3 OD3 OD3 OD3 O3 O3 O3 OC3 OC3 OC3 OC3 OC3 OC3 OC3 OC3 OC3 OC3 OC3 OC3 OC3 OC3 OC3 OC3 OC3 OC3 OC3 OC3 OC3 OC3 OC3 OC3 OC3 OC3 OC3 OC3 OC3 OC3 OC3 OC3 OC3 OC3 OC3 OC3 OC3 OC3 OC3 OC3 OC3 OC3 OC3 OC3 OC3 O3 O3 O3 OA3 OA3 OA3 OA3 OA3 OA3 OA3 OA3 OA3 OA3 OA3 OA3 OA3 OA3 OA3 OA3 OA3 OA3 OA3 OA3 OA3 OA3 OA3 OA3 OA3 OA3 OA3 OA3 OA3 OA3 OA3 OA3 OA3 OA3 OA3 OA3 OA3 OA3 OA3 OA3 OA3 OA3 OA3 OA3 OA3 O3 O3 O3 O?3 O?3 O?3 O?3 O?3 O?3 O?3 O?3 O?3 O?3 O?3 O?3 O?3 O?3 O?3 O?3 O?3 O?3 O?3 O?3 O?3 O?3 O?3 O?3 O?3 O?3 O?3 O?3 O?3 O?3 O?3 O?3 O?3 O? O? O? O? O? O? O? O? O? O? O? O? O O O O8H, O8H, O8H, O8H, O8H, O8H, O8H, O8H, O8H, O8H, O8H, O8H, O8H, O8H, O8H, O8H, O8H, O8H, O8H, O8H, O8H, O8H, O8H, O8H, O8H, O8H, O8H, O8H, O8H, O8H, O8H, O8H, O8H, O8H, O8H, O8H, O8H, O8H, O8H, O8H, O8H, O8H, O8H, O8H, O8H, O8H, O8H, O8H, O8H, O8H, O8H, O8H, O8H, O8H, O8H, O8H, O8H, O8H, O8H, O8H, O8H, O8H, O8H, O8H, O8H, O8H, O8H, O8H, O8H, O8H, O8H, O8H, O8H, O8H, O8H, O8H, O8H, O8H, O8H, O8H, O8H, O8H, O8H, O8H, O8H, O8H, O8H, O8H, O8H, H, H, H, H, H, H, H, K?H, K?H, K?H, K?H, K?H, K?H, K?H, K?H, K?H, K?H, K?H, K?H, K?H, K?H, K?H, K?H, K?H, K?H, K?H, K?H, K?H, K?H, K?H, K?H, K?H, K?H, K?H, K?H, K?H, K?H, K?H, K?H, K?H, K?H, K?H, K?H, K?H, K?H, K?H, K?H, K?H, K?H, K?H, K?H, K?H, K?H, K?H, K?H, K?H, K?H, K?H, K?H, K?H, K?H, K?H, K?H, K?H, K?H, K?H, K?H, K?H, K?H, K?H, K?H, K?H, K?H, K?H, K?H, K?H, K?H, K?H, K?H, K?H, K?H, K?H, K?H, K?H, K?H, K?H, K?H, K?H, K?H K?H K?H K?H K?H K?H K?H K?H H H H H H H H HDH HDH HDH HDH HDH HDH HDH HDH HDH HDH HDH HDH HDH HDH HDH HDH HDH HDH HDH HDH HDH HDH HDH HDH HDH HDH HDH HDH HDH HDH HDH HDH HDH HDH HDH HDH HDH HDH HDH HDH HDH HDH HDH HDH HDH HDH HDH HDH HDH HDH HDH HDH HDH HDH HDH HDH HDH HDH HDH HDH HDH HDH HDH HDH HDH HDH HDH HDH HDH HDH HDH HDH HDH HDH HDH HDH HDH HDH HDH HDH HDH HDH HDH HDH HDH HDH HDH HDH HDH H H H H H H H D?H D?H D?H D?H D?H D?H D?H D?H D?H D?H D?H D?H D?H D?H D?H D?H D?H D?H D?H D?H D?H D?H D?H D?H D?H D?H D?H D?H D?H D?H D?H D?H D?H D?H D?H D?H D?H D?H D?H D?H D?H D?H D?H D?H D?H D?H D?H D?H D?H D?H D?H D?H D?H D?H D?H D?H D?H D?H D?H D?H D?H D?H D?H D?H D?H D?H D?H D?H D?H D?H D?H D?H D?H D?H D?H D?H D?H D?H D?H D?H D?H D?H D?H D?H D?H D?H D?H D?H D?H H H H H H H H B=H, B=H, B=H, B=H, B=H, B=H, B=H, B=H, B=H, B=H, B=H, B=H, B=H, B=H, B=H, B=H, B=H, B=H, B=H, B=H, B=H, B=H, B=H, B=H, B=H, B=H, B=H, B=H, B=H, B=H, B=H, B=H, B=H, B=H, B=H, B=H, B=H, B=H, B=H, B=H, B=H, B=H, B=H, B=H, B=H, BH, BH, BH, B:H, B:H, B:H, B:H, B:H, B:H, B:H, B:H, B:H, B:H, B:H, B:H, B:H, B:H, B:H, B:H, B:H, B:H, B:H, B:H, B:H, B:H, B:H, B:H, B:H, B:H, B:H, B:H, B:H, B:H, B:H, B:H, B:H, B:H, B:H, B:H, B:H, B:H, B:H, B:H, B:H, :H, :H, :H, :H, H, H, H, A<H, A<H, A<H, A<H, A<H, A<H, A<H, A<H, A<H, A<H, A<H, A<H, A<H, A<H, A<H, A<H, A<H, A<H, A<H, A<H, A<H, A<H, A<H, A<H, A<H, A<H, A<H, A<H, A<H, A<H, A<H, A<H, A<H, A<H, A<H, A<H, A<H, A<H, A<H, A<H, A<H, A<H, A<H, A<H, A<H, H, H, H, ?8H, ?8H, ?8H, ?8H, ?8H, ?8H, ?8H, ?8H, ?8H, ?8H, ?8H, ?8H, ?8H, ?8H, ?8H, ?8H, ?8H, ?8H, ?8H, ?8H, ?8H, ?8H, ?8H, ?8H, ?8H, ?8H, ?8H, ?8H, ?8H, ?8H, ?8H, ?8H, ?8H, ?8H ?8H ?8H ?8H ?8H ?8H ?8H ?8H ?8H ?8H ?8H ?8H H H H AHA1 AHA1 AHA1 AHA1 AHA1 AHA1 AHA1 AHA1 AHA1 AHA1 AHA1 AHA1 AHA1 AHA1 AHA1 AHA1 AHA1 AHA1 AHA1 AHA1 AHA1 AHA1 AHA1 AHA1 AHA1 AHA1 AHA1 AHA1 AHA1 AHA1 AHA1 AHA1 AHA1 AHA1 AHA1 AHA1 AHA1 AHA1 AHA1 AHA1 AHA1 AHA1 AHA1 AHA1 AHA1 AHA1 AHA1 AHA1 AHA1 AHA1 AHA1 AHA1 AHA1 AHA1 AHA1 AHA1 AHA1 AHA1 AHA1 AHA1 AHA1 AHA1 AHA1 AHA1 AHA1 AHA1 AHA1 AHA1 AHA1 AHA1 AHA1 AHA1 AHA1 AHA1 AHA1 AHA1 AHA1 AHA1 AHA1 AHA1 AHA1 AHA1 AHA1 AHA1 AHA1 AHA1 AHA1 AHA1 AHA1 AA AA AA AA AA AA AA AAH8 AAH8 AAH8 AAH8 AAH8 AAH8 AAH8 AAH8 AAH8 AAH8 AAH8 AAH8 AAH8 AAH8 AAH8 AAH8 AAH8 AAH8 AAH8 AAH8 AAH8 AAH8 AAH8 AAH8 AAH8 AAH8 AAH8 AAH8 AAH8 AAH8 AAH8 AAH8 AAH8 AAH8 AAH8 AAH8 AAH8 AAH8 AAH8 AAH8 AAH8 AAH8 AAH8 AAH8 AAH8 AAH8 AAH8 AAH8 AAH8 AAH8 AAH8 AAH8 AAH8 AAH8 AAH8 AAH8 AAH8 AAH8 AAH8 AAH8 AAH8 AAH8 AAH8 AAH8 AAH8 AAH8 AAH8 AAH8 AAH8 AAH8 AAH8 AAH8 AAH8 AAH8 AAH8 AAH8 AAH8 AAH8 AAH8 AAH8 AAH8 AH8 AH8 AH8 AH8 AH8 AH8 AH8 AH8 A A A A A A A AM= AM= AM= AM= AM= AM= AM= AM= AM= AM= AM= AM= AM= AM= AM= AM= AM= AM= AM= AM= AM= AM= AM= AM= AM= AM= AM= AM= AM= AM= AM= AM= AM= AM= AM= AM= AM= AM= AM= AM= AM= AM= AM= AM= AM= AM= AM= AM= AM= AM= AM= AM= AM= AM= AM= AM= AM= AM= AM= AM= AM= AM= AM= AM= AM= AM= AM= AM= AM= AM= AM= AM= AM= AM= AM= AM= AM= AM= AM= AM= AM= AM= AM= AM= AM= AM= AM= AM= AM= A A A A A A A AH8 AH8 AH8 AH8 AH8 AH8 AH8 AH8 AH8 AH8 AH8 AH8 AH8 AH8 AH8 AH8 AH8 AH8 AH8 AH8 AH8 AH8 AH8 AH8 AH8 AH8 AH8 AH8 AH8 AH8 AH8 AH8 AH8 AH8 AH8 AH8 AH8 AH8 AH8 AH8 AH8 AH8 AH8 AH8 AH8 AH8 AH8 AH8 AH8 AH8 AH8 AH8 AH8 AH8 AH8 AH8 AH8 AH8 AH8 AH8 AH8 AH8 AH8 AH8 AH8 AH8 AH8 AH8 AH8 AH8 AH8 AH8 AH8 AH8 AH8 AH8 AH8 AH8 AH8 AH8 AH8 AH8 AH8 AH8 AH8 AH8 AH8 AH8 AH8 A A A A A A A AF5 AF5 AF5 AF5 AF5 AF5 AF5 AF5 AF5 AF5 AF5 AF5 AF5 AF5 AF5 AF5 AF5 AF5 AF5 AF5 AF5 AF5 AF5 AF5 AF5 AF5 AF5 AF5 AF5 AF5 AF5 AF5 AF5 AF5 AF5 AF5 AF5 AF5 AF5 AF5 AF5 AF5 AF5 AF5 AF5 A5 A5 A5 AD5 AD5 AD5 AD5 AD5 AD5 AD5 AD5 AD5 AD5 AD5 AD5 AD5 AD5 AD5 AD5 AD5 AD5 AD5 AD5 AD5 AD5 AD5 AD5 AD5 AD5 AD5 AD5 AD5 AD5 AD5 AD5 AD5 AD5 AD5 AD5 AD5 AD5 AD5 AD5 AD5 AD AD AD AD A A A AC3 AC3 AC3 AC3 AC3 AC3 AC3 AC3 AC3 AC3 AC3 AC3 AC3 AC3 AC3 AC3 AC3 AC3 AC3 AC3 AC3 AC3 AC3 AC3 AC3 AC3 AC3 AC3 AC3 AC3 AC3 AC3 AC3 AC3 AC3 AC3 AC3 AC3 AC3 AC3 AC3 AC3 AC3 AC3 AC3 A A A AA1 AA1 AA1 AA1 AA1 AA1 AA1 AA1 AA1 AA1 AA1 AA1 AA1 AA1 AA1 AA1 AA1 AA1 AA1 AA1 AA1 AA1 AA1 AA1 AA1 AA1 AA1 AA1 AA1 AA1 AA1 AA1 AA1 AA1 AA1 AA1 AA1 AA1 AA1 AA1 AA1 AA1 AA1 AA1 AA1 A A A AF7 AF7 AF7 AF7 AF7 AF7 AF7 AF7 AF7 AF7 AF7 AF7 AF7 AF7 AF7 AF7 AF7 AF7 AF7 AF7 AF7 AF7 AF7 AF7 AF7 AF7 AF7 AF7 AF7 AF7 AF7 AF7 AF7 AF7 AF7 AF7 AF7 AF7 AF7 AF7 AF7 AF7 AF7 AF7 AF7 AF7 AF7 AF7 A8F7 A8F7 A8F7 A8F7 A8F7 A8F7 A8F7 A8F7 A8F7 A8F7 A8F7 A8F7 A8F7 A8F7 A8F7 A8F7 A8F7 A8F7 A8F7 A8F7 A8F7 A8F7 A8F7 A8F7 A8F7 A8F7 A8F7 A8F7 A8F7 A8F7 A8F7 A8F7 A8F7 A8F7 A8F7 A8F7 A8F7 A8F7 A8F7 A8F7 A8F7 A8F7 A8F7 A8F7 A8F7 AF7 AF7 AF7 A:F7 A:F7 A:F7 A:F7 A:F7 A:F7 A:F7 A:F7 A:F7 A:F7 A:F7 A:F7 A:F7 A:F7 A:F7 A:F7 A:F7 A:F7 A:F7 A:F7 A:F7 A:F7 A:F7 A:F7 A:F7 A:F7 A:F7 A:F7 A:F7 A:F7 A:F7 A:F7 A:F7 A:F7 A:F7 A:F7 A:F7 A:F7 A:F7 A:F7 A:F7 A:F7 A:F7 A:F7 A:F7 AF7 AF7 AF7 A<F7 A<F7 A<F7 A<F7 A<F7 A<F7 A<F7 A<F7 A<F7 A<F7 A<F7 A<F7 A<F7 A<F7 A<F7 A<F7 A<F7 A<F7 A<F7 A<F7 A<F7 A<F7 A<F7 A<F7 A<F7 A<F7 A<F7 A<F7 A<F7 A<F7 A<F7 A<F7 A<F7 <F7 <F7 <F7 <F7 <F7 <F7 <F7 <F7 <F7 <F7 <F7 <F7 F7 F7 F7 F=F7 F=F7 F=F7 F=F7 F=F7 F=F7 F=F7 F=F7 F=F7 F=F7 F=F7 F=F7 F=F7 F=F7 F=F7 F=F7 F=F7 F=F7 F=F7 F=F7 F=F7 F=F7 F=F7 F=F7 F=F7 F=F7 F=F7 F=F7 F=F7 F=F7 F=F7 F=F7 F=F7 F=F7 F=F7 F=F7 F=F7 F=F7 F=F7 F=F7 F=F7 F=F7 F=F7 F=F7 F=F7 FF7 FF7 FF7 F?F7 F?F7 F?F7 F?F7 F?F7 F?F7 F?F7 F?F7 F?F7 F?F7 F?F7 F?F7 F?F7 F?F7 F?F7 F?F7 F?F7 F?F7 F?F7 F?F7 F?F7 F?F7 F?F7 F?F7 F?F7 F?F7 F?F7 F?F7 F?F7 F?F7 F?F7 F?F7 F?F7 F?F7 F?F7 F?F7 F?F7 F?F7 F?F7 F?F7 F?F7 F?F7 F?F7 F?F7 F?F7 FF7 FF7 FF7 FAF7 FAF7 FAF7 FAF7 FAF7 FAF7 FAF7 FAF7 FAF7 FAF7 FAF7 FAF7 FAF7 FAF7 FAF7 FAF7 FAF7 FAF7 FAF7 FAF7 FAF7 FAF7 FAF7 FAF7 FAF7 FAF7 FAF7 FAF7 FAF7 FAF7 FAF7 FAF7 FAF7 FAF7 FAF7 FAF7 FAF7 FAF7 FAF7 FAF7 FAF7 FAF7 FAF7 FAF7 FAF7 FF7 FF7 FF7 FDF7 FDF7 FDF7 FDF7 FDF7 FDF7 FDF7 FDF7 FDF7 FDF7 FDF7 FDF7 FDF7 FDF7 FDF7 FDF7 FDF7 FDF7 FDF7 FDF7 FDF7 FDF7 FDF7 FDF7 FDF7 FDF7 FDF7 FDF7 FDF7 FDF7 FDF7 FDF7 FDF7 DF7 DF7 DF7 DF7 DF7 DF7 DF7 DF7 DF7 DF7 DF7 DF7 F7 F7 F7 CCF7 CCF7 CCF7 CCF7 CCF7 CCF7 CCF7 CCF7 CCF7 CCF7 CCF7 CCF7 CCF7 CCF7 CCF7 CCF7 CCF7 CCF7 CCF7 CCF7 CCF7 CCF7 CCF7 CCF7 CCF7 CCF7 CCF7 CCF7 CCF7 CCF7 CCF7 CCF7 CCF7 CCF7 CCF7 CCF7 CCF7 CCF7 CCF7 CCF7 CCF7 CCF7 CCF7 CCF7 CCF7 CF7 CF7 CF7 CAF7 CAF7 CAF7 CAF7 CAF7 CAF7 CAF7 CAF7 CAF7 CAF7 CAF7 CAF7 CAF7 CAF7 CAF7 CAF7 CAF7 CAF7 CAF7 CAF7 CAF7 CAF7 CAF7 CAF7 CAF7 CAF7 CAF7 CAF7 CAF7 CAF7 CAF7 CAF7 CAF7 CAF7 CAF7 CAF7 CAF7 CAF7 CAF7 CAF7 CAF7 CAF7 CAF7 CAF7 CAF7 CF7 CF7 CF7 C@F7 C@F7 C@F7 C@F7 C@F7 C@F7 C@F7 C@F7 C@F7 C@F7 C@F7 C@F7 C@F7 C@F7 C@F7 C@F7 C@F7 C@F7 C@F7 C@F7 C@F7 C@F7 C@F7 C@F7 C@F7 C@F7 C@F7 C@F7 C@F7 C@F7 C@F7 C@F7 C@F7 C@F7 C@F7 C@F7 C@F7 C@F7 C@F7 C@F7 C@F7 C@F7 C@F7 C@F7 C@F7 CF7 CF7 CF7 CAF7 CAF7 CAF7 CAF7 CAF7 CAF7 CAF7 CAF7 CAF7 CAF7 CAF7 CAF7 CAF7 CAF7 CAF7 CAF7 CAF7 CAF7 CAF7 CAF7 CAF7 CAF7 CAF7 CAF7 CAF7 CAF7 CAF7 CAF7 CAF7 CAF7 CAF7 CAF7 CAF7 AF7 AF7 AF7 AF7 AF7 AF7 AF7 AF7 AF7 AF7 AF7 AF7 F7 F7 F7 IF@7 IF@7 IF@7 IF@7 IF@7 IF@7 IF@7 IF@7 IF@7 IF@7 IF@7 IF@7 IF@7 IF@7 IF@7 IF@7 IF@7 IF@7 IF@7 IF@7 IF@7 IF@7 IF@7 IF@7 IF@7 IF@7 IF@7 IF@7 IF@7 IF@7 IF@7 IF@7 IF@7 IF@7 IF@7 IF@7 IF@7 IF@7 IF@7 IF@7 IF@7 IF@7 IF@7 IF@7 IF@7 IF@7 IF@7 IF@7 IF@7 IF@7 IF@7 IF@7 IF@7 IF@7 IF@7 IF@7 IF@7 IF@7 IF@7 IF@7 IF@7 IF@7 IF@7 IF@7 IF@7 IF@7 IF@7 IF@7 IF@7 IF@7 IF@7 IF@7 IF@7 IF@7 IF@7 IF@7 IF@7 IF@7 IF@7 IF@7 IF@7 IF@7 IF@7 IF@7 IF@7 IF@7 IF@7 IF@7 IF@7 I@ I@ I@ I@ I@ I@ I@ IF@7 IF@7 IF@7 IF@7 IF@7 IF@7 IF@7 IF@7 IF@7 IF@7 IF@7 IF@7 IF@7 IF@7 IF@7 IF@7 IF@7 IF@7 IF@7 IF@7 IF@7 IF@7 IF@7 IF@7 IF@7 IF@7 IF@7 IF@7 IF@7 IF@7 IF@7 IF@7 IF@7 IF@7 IF@7 IF@7 IF@7 IF@7 IF@7 IF@7 IF@7 IF@7 IF@7 IF@7 IF@7 IF@7 IF@7 IF@7 IF@7 IF@7 IF@7 IF@7 IF@7 IF@7 IF@7 IF@7 IF@7 IF@7 IF@7 IF@7 IF@7 IF@7 IF@7 IF@7 IF@7 IF@7 IF@7 IF@7 IF@7 IF@7 IF@7 IF@7 IF@7 IF@7 IF@7 IF@7 IF@7 IF@7 IF@7 IF@7 IF@7 IF@7 IF@7 IF@7 IF@7 IF@7 IF@7 IF@7 IF@7 I@ I@ I@ I@ I@ I@ I@ II@: II@: II@: II@: II@: II@: II@: II@: II@: II@: II@: II@: II@: II@: II@: II@: II@: II@: II@: II@: II@: II@: II@: II@: II@: II@: II@: II@: II@: II@: II@: II@: II@: II@: II@: II@: II@: II@: II@: II@: II@: II@: II@: II@: II@: II@: II@: II@: II@: II@: II@: II@: II@: II@: II@: II@: II@: II@: II@: II@: II@: II@: II@: II@: II@: II@: II@: II@: II@: II@: II@: II@: II@: II@: II@: II@: II@: II@: II@: II@: II@: II@: II@: II@: II@: II@: II@: II@: II@: I@ I@ I@ I@ I@ I@ I@ IF@7 IF@7 IF@7 IF@7 IF@7 IF@7 IF@7 IF@7 IF@7 IF@7 IF@7 IF@7 IF@7 IF@7 IF@7 IF@7 IF@7 IF@7 IF@7 IF@7 IF@7 IF@7 IF@7 IF@7 IF@7 IF@7 IF@7 IF@7 IF@7 IF@7 IF@7 IF@7 IF@7 IF@7 IF@7 IF@7 IF@7 IF@7 IF@7 IF@7 IF@7 IF@7 IF@7 IF@7 IF@7 IF@7 IF@7 IF@7 IF@7 IF@7 IF@7 IF@7 IF@7 IF@7 IF@7 IF@7 IF@7 IF@7 IF@7 IF@7 IF@7 IF@7 IF@7 IF@7 IF@7 IF@7 IF@7 IF@7 IF@7 IF@7 IF@7 IF@7 IF@7 IF@7 IF@7 IF@7 IF@7 IF@7 IF@7 IF@7 IF@7 IF@7 IF@7 IF@7 IF@7 IF@7 IF@7 IF@7 IF@7 I@ I@ I@ I@ I@ I@ I@ IC@4 IC@4 IC@4 IC@4 IC@4 IC@4 IC@4 IC@4 IC@4 IC@4 IC@4 IC@4 IC@4 IC@4 IC@4 IC@4 IC@4 IC@4 IC@4 IC@4 IC@4 IC@4 IC@4 IC@4 IC@4 IC@4 IC@4 IC@4 IC@4 IC@4 IC@4 IC@4 IC@4 IC@4 IC@4 IC@4 IC@4 IC@4 IC@4 IC@4 IC@4 IC@4 IC@4 IC@4 IC@4 IC@4 IC@4 IC@4 IC@4 IC@4 IC@4 IC@4 IC@4 IC@4 IC@4 IC@4 IC@4 IC@4 IC@4 IC@4 IC@4 IC@4 IC@4 IC@4 IC@4 IC@4 IC@4 IC@4 IC@4 IC@4 IC@4 IC@4 IC@4 IC@4 IC@4 IC@4 IC@4 IC@4 IC@4 IC@4 IC@4 IC@4 IC@4 IC@4 IC@4 IC@4 IC@4 IC@4 IC@4 I@ I@ I@ I@ I@ I@ I@ ID@5 ID@5 ID@5 ID@5 ID@5 ID@5 ID@5 ID@5 ID@5 ID@5 ID@5 ID@5 ID@5 ID@5 ID@5 ID@5 ID@5 ID@5 ID@5 ID@5 ID@5 ID@5 ID@5 ID@5 ID@5 ID@5 ID@5 ID@5 ID@5 ID@5 ID@5 ID@5 ID@5 ID@5 ID@5 ID@5 ID@5 ID@5 ID@5 ID@5 ID@5 ID@5 ID@5 ID@5 ID@5 I@ I@ I@ I@F7 I@F7 IF7 IF7 IF7 IF7 IF7 IF7 IF7 IF7 IF7 IF7 IF7 IF7 IF7 IF7 IF7 IF7 IF7 IF7 IF7 IF7 IF7 IF7 IF7 IF7 IF7 IF7 IF7 IF7 IF7 IF7 IF7 IF7 IF7 IF7 IF7 IF7 IF7 IF7 IF7 IF7 IF7 IF7 IF7 I I I I@. I@. I@. I@. I@. I@. I@. I@. I@. I@. I@. I@. I@. I@. I@. I@. I@. I@. I@. I@. I@. I@. I@. I@. I@. I@. I@. I@. I@. I@. I@. I@. I@. I@. I@. I@. I@. I@. I@. I@. I@. I@. I@. I@. I@. I@. I@. I@. I@. I@. I@. I@. I@. I@. I@. I@. I@. I@. I@. I@. I@. I@. I@. I@. I@. I@. I@. I@. I@. I@. I@. I@. I@. I@. I@. I@. I@. I@. I@. I@. I@. I@. I@. I@. I@. I@. I@. I@. I@. I. I. I. I. I. I. I. IC. IC. IC. IC. IC. IC. IC. IC. IC. IC. IC. IC. IC. IC. IC. IC. IC. IC. IC. IC. IC. IC. IC. IC. IC. IC. IC. IC. IC. IC. IC. IC. IC. IC. IC. IC. IC. IC. IC. IC. IC. IC. IC. IC. IC. IC. IC. IC. IC. IC. IC. IC. IC. IC. IC. IC. IC. IC. IC. IC. IC. IC. IC. IC. IC. IC. IC. IC. IC. IC. IC. IC. IC. IC. IC. IC. IC. IC. IC. IC. IC. C C C C C C C C        CF0 CF0 CF0 CF0 CF0 CF0 CF0 CF0 CF0 CF0 CF0 CF0 CF0 CF0 CF0 CF0 CF0 CF0 CF0 CF0 CF0 CF0 CF0 CF0 CF0 CF0 CF0 CF0 CF0 CF0 CF0 CF0 CF0 CF0 CF0 CF0 CF0 CF0 CF0 CF0 CF0 CF0 CF0 CF0 CF0 CF0 CF0 CF0 CF0 CF0 CF0 CF0 CF0 CF0 CF0 CF0 CF0 CF0 CF0 CF0 CF0 CF0 CF0 CF0 CF0 CF0 CF0 CF0 CF0 CF0 CF0 CF0 CF0 CF0 CF0 CF0 CF0 CF0 CF0 CF0 CF0 CF0 CF0 CF0 CF0 CF0 CF0 CF0 CF0 C0 C0 C0 C0 C0 C0 C0 CC0 CC0 CC0 CC0 CC0 CC0 CC0 CC0 CC0 CC0 CC0 CC0 CC0 CC0 CC0 CC0 CC0 CC0 CC0 CC0 CC0 CC0 CC0 CC0 CC0 CC0 CC0 CC0 CC0 CC0 CC0 CC0 CC0 CC0 CC0 CC0 CC0 CC0 CC0 CC0 CC0 CC0 CC0 CC0 CC0 CC0 CC0 CC0 CC0 CC0 CC0 CC0 CC0 CC0 CC0 CC0 CC0 CC0 CC0 CC0 CC0 CC0 CC0 CC0 CC0 CC0 CC0 CC0 CC0 CC0 CC0 CC0 CC0 CC0 CC0 CC0 CC0 CC0 CC0 CC0 CC0 C C C C C C C C        F@1 F@1 F@1 F@1 F@1 F@1 F@1 F@1 F@1 F@1 F@1 F@1 F@1 F@1 F@1 F@1 F@1 F@1 F@1 F@1 F@1 F@1 F@1 F@1 F@1 F@1 F@1 F@1 F@1 F@1 F@1 F@1 F@1 F@1 F@1 F@1 F@1 F@1 F@1 F@1 F@1 F@1 F@1 F@1 F@1 F@1 F@1 F@1 F@1 F@1 F@1 F@1 F@1 F@1 F@1 F@1 F@1 F@1 F@1 F@1 F@1 F@1 F@1 F@1 F@1 F@1 F@1 F@1 F@1 F@1 F@1 F@1 F@1 F@1 F@1 F@1 F@1 F@1 F@1 F@1 F@1 F@1 F@1 F@1 F@1 F@1 F@1 F@1 F@1 F1 F1 F1 F1 F1 F1 F1 FA1 FA1 FA1 FA1 FA1 FA1 FA1 FA1 FA1 FA1 FA1 FA1 FA1 FA1 FA1 FA1 FA1 FA1 FA1 FA1 FA1 FA1 FA1 FA1 FA1 FA1 FA1 FA1 FA1 FA1 FA1 FA1 FA1 FA1 FA1 FA1 FA1 FA1 FA1 FA1 FA1 FA1 FA1 FA1 FA1 F1 F1 F1 FC1 FC1 FC1 FC1 FC1 FC1 FC1 FC1 FC1 FC1 FC1 FC1 FC1 FC1 FC1 FC1 FC1 FC1 FC1 FC1 FC1 FC1 FC1 FC1 FC1 FC1 FC1 FC1 FC1 FC1 FC1 FC1 FC1 C C C C C C C C C C C C C C C @C:0 @C:0 @C:0 @C:0 @C:0 @C:0 @C:0 @C:0 @C:0 @C:0 @C:0 @C:0 @C:0 @C:0 @C:0 @C:0 @C:0 @C:0 @C:0 @C:0 @C:0 @C:0 @C:0 @C:0 @C:0 @C:0 @C:0 @C:0 @C:0 @C:0 @C:0 @C:0 @C:0 @C:0 @C:0 @C:0 @C:0 @C:0 @C:0 @C:0 @C:0 @C:0 @C:0 @C:0 @C:0 @:0 @:0 @:0 @:F0 @:F0 @:F0 @:F0 @:F0 @:F0 @:F0 @:F0 @:F0 @:F0 @:F0 @:F0 @:F0 @:F0 @:F0 @:F0 @:F0 @:F0 @:F0 @:F0 @:F0 @:F0 @:F0 @:F0 @:F0 @:F0 @:F0 @:F0 @:F0 @:F0 @:F0 @:F0 @:F0 @:F0 @:F0 @:F0 @:F0 @:F0 @:F0 @:F0 @:F0 @F @F @F @F @ @ @ @I0 @I0 @I0 @I0 @I0 @I0 @I0 @I0 @I0 @I0 @I0 @I0 @I0 @I0 @I0 @I0 @I0 @I0 @I0 @I0 @I0 @I0 @I0 @I0 @I0 @I0 @I0 @I0 @I0 @I0 @I0 @I0 @I0 @I0 @I0 @I0 @I0 @I0 @I0 @I0 @I0 @I0 @I0 @I0 @I0 @0 @0 @0 @H0 @H0 @H0 @H0 @H0 @H0 @H0 @H0 @H0 @H0 @H0 @H0 @H0 @H0 @H0 @H0 @H0 @H0 @H0 @H0 @H0 @H0 @H0 @H0 @H0 @H0 @H0 @H0 @H0 @H0 @H0 @H0 @H0 H0 H0 H0 H0 H0 H0 H0 H0 H H H H    ?F5 ?F5 ?F5 ?F5 ?F5 ?F5 ?F5 ?F5 ?F5 ?F5 ?F5 ?F5 ?F5 ?F5 ?F5 ?F5 ?F5 ?F5 ?F5 ?F5 ?F5 ?F5 ?F5 ?F5 ?F5 ?F5 ?F5 ?F5 ?F5 ?F5 ?F5 ?F5 ?F5 ?F5 ?F5 ?F5 ?F5 ?F5 ?F5 ?F5 ?F5 ?F5 ?F5 ?F5 ?F5 ?5 ?5 ?5 ?E5 ?E5 ?E5 ?E5 ?E5 ?E5 ?E5 ?E5 ?E5 ?E5 ?E5 ?E5 ?E5 ?E5 ?E5 ?E5 ?E5 ?E5 ?E5 ?E5 ?E5 ?E5 ?E5 ?E5 ?E5 ?E5 ?E5 ?E5 ?E5 ?E5 ?E5 ?E5 ?E5 ?E5 ?E5 ?E5 ?E5 ?E5 ?E5 ?E5 ?E5 ?E ?E ?E ?E ? ? ? ?H0 ?H0 ?H0 ?H0 ?H0 ?H0 ?H0 ?H0 ?H0 ?H0 ?H0 ?H0 ?H0 ?H0 ?H0 ?H0 ?H0 ?H0 ?H0 ?H0 ?H0 ?H0 ?H0 ?H0 ?H0 ?H0 ?H0 ?H0 ?H0 ?H0 ?H0 ?H0 ?H0 ?H0 ?H0 ?H0 ?H0 ?H0 ?H0 ?H0 ?H0 ?H0 ?H0 ?H0 ?H0 ?0 ?0 ?0 ?F0 ?F0 ?F0 ?F0 ?F0 ?F0 ?F0 ?F0 ?F0 ?F0 ?F0 ?F0 ?F0 ?F0 ?F0 ?F0 ?F0 ?F0 ?F0 ?F0 ?F0 ?F0 ?F0 ?F0 ?F0 ?F0 ?F0 ?F0 ?F0 ?F0 ?F0 ?F0 ?F0 ?F0 ?F0 ?F0 ?F0 ?F0 ?F0 ?F0 ?F0 ?F ?F ?F ?F ? ? ? ?H- ?H- ?H- ?H- ?H- ?H- ?H- ?H- ?H- ?H- ?H- ?H- ?H- ?H- ?H- ?H- ?H- ?H- ?H- ?H- ?H- ?H- ?H- ?H- ?H- ?H- ?H- ?H- ?H- ?H- ?H- ?H- ?H- ?H- ?H- ?H- ?H- ?H- ?H- ?H- ?H- ?H- ?H- ?H- ?H- ?H- ?H- ?H- ?H- ?H- ?H- ?H- ?H- ?H- ?H- ?H- ?H- ?H- ?H- ?H- ?H- ?H- ?H- ?H- ?H- ?H- ?H- ?H- ?H- ?H- ?H- ?H- ?H- ?H- ?H- ?H- ?H- ?H- ?H- ?H- ?H- ?H- ?H- ?H- ?H- ?H- ?H- ?H- ?H- ?H ?H ?H ?H ?H ?H ?H ?H+ ?H+ ?H+ ?H+ ?H+ ?H+ ?H+ ?H+ ?H+ ?H+ ?H+ ?H+ ?H+ ?H+ ?H+ ?H+ ?H+ ?H+ ?H+ ?H+ ?H+ ?H+ ?H+ ?H+ ?H+ ?H+ ?H+ ?H+ ?H+ ?H+ ?H+ ?H+ ?H+ ?H+ ?H+ ?H+ ?H+ ?H+ ?H+ ?H+ ?H+ ?H+ ?H+ ?H+ ?H+ ?H ?H ?H ?H) ?H) ?H) ?H) ?H) ?H) ?H) ?H) ?H) ?H) ?H) ?H) ?H) ?H) ?H) ?H) ?H) ?H) ?H) ?H) ?H) ?H) ?H) ?H) ?H) ?H) ?H) ?H) ?H) ?H) ?H) ?H) ?H) ?H) ?H) ?H) ?H) ?H) ?H) ?H) ?H) ?H) ?H) ?H) ?H) ?H ?H ?H ?H. ?H. ?H. ?H. ?H. ?H. ?H. ?H. ?H. ?H. ?H. ?H. ?H. ?H. ?H. ?H. ?H. ?H. ?H. ?H. ?H. ?H. ?H. ?H. ?H. ?H. ?H. ?H. ?H. ?H. ?H. ?H. ?H. ?H. ?H. ?H. ?H. ?H. ?H. ?H. ?H. ?H. ?H. ?H. ?H. ?H. ?H. ?H. ?H. ?H. ?H. ?H. ?H. ?H. ?H. ?H. ?H. ?H. ?H. ?H. ?H. ?H. ?H. ?H. ?H. ?H. ?H. ?H. ?H. ?H. ?H. ?H. ?H. ?H. ?H. ?H. ?H. ?H. ?H. ?H. ?H. ?H. ?H. ?H. ?H. ?H. ?H. ?H. ?H. ?H. ?H. ?H. ?H. ?H. ?H. ?H. ?H5. ?H5. ?H5. ?H5. ?H5. ?H5. ?H5. ?H5. ?H5. ?H5. ?H5. ?H5. ?H5. ?H5. ?H5. ?H5. ?H5. ?H5. ?H5. ?H5. ?H5. ?H5. ?H5. ?H5. ?H5. ?H5. ?H5. ?H5. ?H5. ?H5. ?H5. ?H5. ?H5. ?H5. ?H5. ?H5. ?H5. 5. 5. 5. 5. 5. 5. 5. 5. 5. 5. 5. AI5. AI5. AI5. AI5. AI5. AI5. AI5. AI5. AI5. AI5. AI5. AI5. AI5. AI5. AI5. AI5. AI5. AI5. AI5. AI5. AI5. AI5. AI5. 5. B5K. B5K. B5K. B5K. B5K. B5K. B5K. B5K. B5K. B5K. B5K. B5K. B5K. B5K. B5K. B5K. B5K. BK. BK. BK. BK. BK. BK. . AI:. AI:. AI:. AI:. AI:. AI:. AI:. AI:. AI:. AI:. AI:. AI:. AI:. AI:. AI:. AI:. AI:. AI:. AI:. AI:. AI:. AI:. AI:. AI:. AI:. AI:. AI:. AI:. AI:. AI:. AI:. AI:. AI:. AI:. AI:. AI:. AI:. AI:. AI:. AI:. AI:. AI:. AI:. AI:. AI:. AI:. AI:. AI:. AI:. AI:. AI:. AI:. AI:. AI:. AI:. AI:. AI:. AI:. AI:. AI:. AI:. AI:. AI:. AI:. AI:. AI:. AI:. AI:. AI:. AI:. AI:. AI:. AI:. AI:. AI:. AI:. AI:. AI:. AI:. AI:. AI:. AI:. AI:. AI:. AI:. AI:. AI:. AI:. AI:. . . . . . . . ?H5. ?H5. ?H5. ?H5. ?H5. ?H5. ?H5. ?H5. ?H5. ?H5. ?H5. ?H5. ?H5. ?H5. ?H5. ?H5. ?H5. ?H5. ?H5. ?H5. ?H5. ?H5. ?H5. ?H5. ?H5. ?H5. ?H5. ?H5. ?H5. ?H5. ?H5. ?H5. ?H5. ?H5. ?H5. ?H5. ?H5. ?H5. ?H5. ?H5. ?H5. ?H5. ?H5. ?H5. ?H5. ?H5. ?H5. ?H5. ?H5. ?H5. ?H5. ?H5. ?H5. ?H5. ?H5. ?H5. ?H5. ?H5. ?H5. ?H5. ?H5. ?H5. ?H5. ?H5. ?H5. ?H5. ?H5. ?H5. ?H5. ?H5. ?H5. ?H5. ?H5. ?H5. ?H5. ?H5. ?H5. ?H5. ?H5. ?H5. ?H5. ?H5. ?H5. ?H5. ?H5. ?H5. ?H5. ?H5. ?H5. . . . . . . . =F1. =F1. =F1. =F1. =F1. =F1. =F1. =F1. =F1. =F1. =F1. =F1. =F1. =F1. =F1. =F1. =F1. =F1. =F1. =F1. =F1. =F1. =F1. =F1. =F1. =F1. =F1. =F1. =F1. =F1. =F1. =F1. =F1. =F1. =F1. =F1. =F1. =F1. =F1. =F1. =F1. =F1. =F1. =F1. =F1. =F1. =F1. =F1. =F1. =F1. =F1. =F1. =F1. =F1. =F1. =F1. =F1. =F1. =F1. =F1. =F1. =F1. =F1. =F1. =F1. =F1. =F1. =F1. =F1. =F1. =F1. =F1. =F1. =F1. =F1. =F1. =F1. =F1. =F1. =F1. =F1. =F1. =F1. =F1. =F1. =F1. =F1. =F1. =F1. . . . . . . . ?H0. ?H0. ?H0. ?H0. ?H0. ?H0. ?H0. ?H0. ?H0. ?H0. ?H0. ?H0. ?H0. ?H0. ?H0. ?H0. ?H0. ?H0. ?H0. ?H0. ?H0. ?H0. ?H0. ?H0. ?H0. ?H0. ?H0. ?H0. ?H0. ?H0. ?H0. ?H0. ?H0. ?H0. ?H0. ?H0. ?H0. ?H0. ?H0. ?H0. ?H0. ?H0. ?H0. ?H0. ?H0. . . . <E.. <E.. <E.. <E.. <E.. <E.. <E.. <E.. <E.. <E.. <E.. <E.. <E.. <E.. <E.. <E.. <E.. <E.. <E.. <E.. <E.. <E.. <E.. <E.. <E.. <E.. <E.. <E.. <E.. <E.. <E.. <E.. <E.. <E.. <E.. <E.. <E.. <E.. <E.. <E.. <E.. <E.. <E.. <E.. <E.. . . . =F:. =F:. =F:. =F:. =F:. =F:. =F:. =F:. =F:. =F:. =F:. =F:. =F:. =F:. =F:. =F:. =F:. =F:. =F:. =F:. =F:. =F:. =F:. =F:. =F:. =F:. =F:. =F:. =F:. =F:. =F:. =F:. =F:. =F:. =F:. =F:. =F:. =F:. =F:. =F:. =F:. =F:. =F:. =F:. =F:. =F:. =F:. =F:. =F:. =F:. =F:. =F:. =F:. =F:. =F:. =F:. =F:. =F:. =F:. =F:. =F:. =F:. =F:. =F:. =F:. =F:. =F:. =F:. =F:. =F:. =F:. =F:. =F:. =F:. =F:. =F:. =F:. =F:. =F:. =F:. =F:. =F:. =F:. =F:. =F:. =F:. =F:. =F:. =F:. =:. =:. =:. =:. =:. =:. =:. =:A. =:A. =:A. =:A. =:A. =:A. =:A. =:A. =:A. =:A. =:A. =:A. =:A. =:A. =:A. =:A. =:A. =:A. =:A. =:A. =:A. =:A. =:A. =:A. =:A. =:A. =:A. =:A. =:A. =:A. =:A. =:A. =:A. =:A. =:A. =:A. =:A. =:A. =:A. =:A. =:A. =:A. =:A. =:A. =:A. =:A. =:A. =:A. =:A. =:A. =:A. =:A. =:A. =:A. =:A. =:A. =:A. =:A. =:A. =:A. =:A. =:A. =:A. =:A. =:A. =:A. =:A. =:A. =:A. =:A. =:A. =:A. =:A. =:A. =:A. =:A. =:A. =:A. =:A. =:A. =:A. A A A A A A A A        FF1 FF1 FF1 FF1 FF1 FF1 FF1 FF1 FF1 FF1 FF1 FF1 FF1 FF1 FF1 FF1 FF1 FF1 FF1 FF1 FF1 FF1 FF1 FF1 FF1 FF1 FF1 FF1 FF1 FF1 FF1 FF1 FF1 FF1 FF1 FF1 FF1 FF1 FF1 FF1 FF1 FF1 FF1 FF1 FF1 FF1 FF1 FF1 FF1 FF1 FF1 FF1 FF1 FF1 FF1 FF1 FF1 FF1 FF1 FF1 FF1 FF1 FF1 FF1 FF1 FF1 FF1 FF1 FF1 FF1 FF1 FF1 FF1 FF1 FF1 FF1 FF1 FF1 FF1 FF1 FF1 FF1 FF1 FF1 FF1 FF1 FF1 FF1 FF1 F1 F1 F1 F1 F1 F1 F1 FA1 FA1 FA1 FA1 FA1 FA1 FA1 FA1 FA1 FA1 FA1 FA1 FA1 FA1 FA1 FA1 FA1 FA1 FA1 FA1 FA1 FA1 FA1 FA1 FA1 FA1 FA1 FA1 FA1 FA1 FA1 FA1 FA1 FA1 FA1 FA1 FA1 FA1 FA1 FA1 FA1 FA1 FA1 FA1 FA1 FA1 FA1 FA1 FA1 FA1 FA1 FA1 FA1 FA1 FA1 FA1 FA1 FA1 FA1 FA1 FA1 FA1 FA1 FA1 FA1 FA1 FA1 FA1 FA1 FA1 FA1 FA1 FA1 FA1 FA1 FA1 FA1 FA1 FA1 FA1 FA1 FA FA FA FA FA FA FA FA F F F F F F F F=. F=. F=. F=. F=. F=. F=. F=. F=. F=. F=. F=. F=. F=. F=. F=. F=. F=. F=. F=. F=. F=. F=. F=. F=. F=. F=. F=. F=. F=. F=. F=. F=. F=. F=. F=. F=. F=. F=. F=. F=. F=. F=. F=. F=. F=. F=. F=. F=. F=. F=. F=. F=. F=. F=. F=. F=. F=. F=. F=. F=. F=. F=. F=. F=. F=. F=. F=. F=. F=. F=. F=. F=. F=. F=. F=. F=. F=. F=. F=. F=. F=. F=. F=. F=. F=. F=. F=. F=. F. F. F. F. F. F. F. F<. F<. F<. F<. F<. F<. F<. F<. F<. F<. F<. F<. F<. F<. F<. F<. F<. F<. F<. F<. F<. F<. F<. F<. F<. F<. F<. F<. F<. F<. F<. F<. F<. F<. F<. F<. F<. F<. F<. F<. F<. F<. F<. F<. F<. F. F. F. F:. F:. F:. F:. F:. F:. F:. F:. F:. F:. F:. F:. F:. F:. F:. F:. F:. F:. F:. F:. F:. F:. F:. F:. F:. F:. F:. F:. F:. F:. F:. F:. F:. F: F: F: F: F: F: F: F: F: F: F: F: F F F FC4 FC4 FC4 FC4 FC4 FC4 FC4 FC4 FC4 FC4 FC4 FC4 FC4 FC4 FC4 FC4 FC4 FC4 FC4 FC4 FC4 FC4 FC4 FC4 FC4 FC4 FC4 FC4 FC4 FC4 FC4 FC4 FC4 FC4 FC4 FC4 FC4 FC4 FC4 FC4 FC4 FC4 FC4 FC4 FC4 FC4 FC4 FC4 FC4 FC4 FC4 FC4 FC4 FC4 FC4 FC4 FC4 FC4 FC4 FC4 FC4 FC4 FC4 FC4 FC4 FC4 FC4 FC4 FC4 FC4 FC4 FC4 FC4 FC4 FC4 FC4 FC4 FC4 FC4 FC4 FC4 FC4 FC4 FC4 FC4 FC4 FC4 FC4 FC4 FC4 FC4 FC4 FC4 FC4 FC4 FC4 F7C4 F7C4 F7C4 F7C4 F7C4 F7C4 F7C4 F7C4 F7C4 F7C4 F7C4 F7C4 F7C4 F7C4 F7C4 F7C4 F7C4 F7C4 F7C4 F7C4 F7C4 F7C4 F7C4 F7C4 F7C4 F7C4 F7C4 F7C4 F7C4 F7C4 F7C4 F7C4 F7C4 F7C4 F7C4 F7C4 F7C4 7C4 7C4 7C4 7C4 7C4 7C4 7C4 7C4 7C4 7C4 7C4 H7C4 H7C4 H7C4 H7C4 H7C4 H7C4 H7C4 H7C4 H7C4 H7C4 H7C4 H7C4 H7C4 H7C4 H7C4 H7C4 H7C4 H7C4 H7C4 H7C4 H7C4 H7C4 H7C4 7C4 I7C4 I7C4 I7C4 I7C4 I7C4 I7C4 I7C4 I7C4 I7C4 I7C I7C I7C I7C I7C I7C I7C I7C IC IC IC IC IC IC C H<C H<C H<C H<C H<C H<C H<C H<C H<C H<C H<C H<C H<C H<C H<C H<C H<C H<C H<C H<C H<C H<C H<C H<C H<C H<C H<C H<C H<C H<C H<C H<C H<C H<C H<C H<C H<C H<C H<C H<C H<C H<C H<C H<C H<C H<C H<C H<C H<C H<C H<C H<C H<C H<C H<C H<C H<C H<C H<C H<C H<C H<C H<C H<C H<C H<C H<C H<C H<C H<C H<C H<C H<C H<C H<C H<C H<C H<C H<C H<C H<C H<C H<C H<C H<C H<C H<C H<C H<C C C C C C C C F7C F7C F7C F7C F7C F7C F7C F7C F7C F7C F7C F7C F7C F7C F7C F7C F7C F7C F7C F7C F7C F7C F7C F7C F7C F7C F7C F7C F7C F7C F7C F7C F7C F7C F7C F7C F7C F7C F7C F7C F7C F7C F7C F7C F7C F7C F7C F7C F7C F7C F7C F7C F7C F7C F7C F7C F7C F7C F7C F7C F7C F7C F7C F7C F7C F7C F7C F7C F7C F7C F7C F7C F7C F7C F7C F7C F7C F7C F7C F7C F7C F7C F7C F7C F7C F7C F7C F7C F7C C C C C C C C D4C0 D4C0 D4C0 D4C0 D4C0 D4C0 D4C0 D4C0 D4C0 D4C0 D4C0 D4C0 D4C0 D4C0 D4C0 D4C0 D4C0 D4C0 D4C0 D4C0 D4C0 D4C0 D4C0 D4C0 D4C0 D4C0 D4C0 D4C0 D4C0 D4C0 D4C0 D4C0 D4C0 D4C0 D4C0 D4C0 D4C0 D4C0 D4C0 D4C0 D4C0 D4C0 D4C0 D4C0 D4C0 D4C0 D4C0 D4C0 D4C0 D4C0 D4C0 D4C0 D4C0 D4C0 D4C0 D4C0 D4C0 D4C0 D4C0 D4C0 D4C0 D4C0 D4C0 D4C0 D4C0 D4C0 D4C0 D4C0 D4C0 D4C0 D4C0 D4C0 D4C0 D4C0 D4C0 D4C0 D4C0 D4C0 D4C0 D4C0 D4C0 D4C0 D4C0 D4C0 D4C0 D4C0 D4C0 D4C0 D4C0 C0 C0 C0 C0 C0 C0 C0 F2C0 F2C0 F2C0 F2C0 F2C0 F2C0 F2C0 F2C0 F2C0 F2C0 F2C0 F2C0 F2C0 F2C0 F2C0 F2C0 F2C0 F2C0 F2C0 F2C0 F2C0 F2C0 F2C0 F2C0 F2C0 F2C0 F2C0 F2C0 F2C0 F2C0 F2C0 F2C0 F2C0 F2C0 F2C0 F2C0 F2C0 F2C0 F2C0 F2C0 F2C0 F2C0 F2C0 F2C0 F2C0 C0 C0 C0 C0C0 C0C0 C0C0 C0C0 C0C0 C0C0 C0C0 C0C0 C0C0 C0C0 C0C0 C0C0 C0C0 C0C0 C0C0 C0C0 C0C0 C0C0 C0C0 C0C0 C0C0 C0C0 C0C0 C0C0 C0C0 C0C0 C0C0 C0C0 C0C0 C0C0 C0C0 C0C0 C0C0 C0C C0C C0C C0C C0C C0C C0C C0C C0C C0C C0C C0C C C C DC85 DC85 DC85 DC85 DC85 DC85 DC85 DC85 DC85 DC85 DC85 DC85 DC85 DC85 DC85 DC85 DC85 DC85 DC85 DC85 DC85 DC85 DC85 DC85 DC85 DC85 DC85 DC85 DC85 DC85 DC85 DC85 DC85 DC85 DC85 DC85 DC85 DC85 DC85 DC85 DC85 DC85 DC85 DC85 DC85 D85 D85 D85 D<85 D<85 D<85 D<85 D<85 D<85 D<85 D<85 D<85 D<85 D<85 D<85 D<85 D<85 D<85 D<85 D<85 D<85 D<85 D<85 D<85 D<85 D<85 D<85 D<85 D<85 D<85 D<85 D<85 D<85 D<85 D<85 D<85 D<85 D<85 D<85 D<85 D<85 D<85 D<85 D<85 D<8 D<8 D<8 D<8 D8 D8 D8 D>8, D>8, D>8, D>8, D>8, D>8, D>8, D>8, D>8, D>8, D>8, D>8, D>8, D>8, D>8, D>8, D>8, D>8, D>8, D>8, D>8, D>8, D>8, D>8, D>8, D>8, D>8, D>8, D>8, D>8, D>8, D>8, D>8, D>8, D>8, D>8, D>8, >8, >8, >8, >8, >8, >8, >8, >8, 8, 8, 8, F8@, F8@, F8@, F8@, F8@, F8@, F8@, F8@, F8@, F8@, F8@, F8@, F8@, F8@, F8@, F8@, F8@, F8@, F8@, F8@, F8@, F8@, F8@, F8@, F8@, F8@, F8@, F8@, F8@, F8@, F8@, F8@, F8@, F@, F@, F@, F@, F@, F@, F@, F@, F@ F@ F@ F@    FA1 FA1 FA1 FA1 FA1 FA1 FA1 FA1 HA1 HA1 HA1 HA1 HA1 HA1 HA1 HA1 FA1 FA1 FA1 FA1 FA1 FA1 FA1 FA1 FA1 FA1 FA1 FA1 FA1 FA1 FA1 FA1 HA1 HA1 HA1 HA1 HA1 HA1 HA1 HA1 FA1 FA1 FA1 FA1 FA1 F1 F1 F1 HC1 HC1 HC1 HC1 HC1 HC1 HC1 HC1 FC1 FC1 FC1 FC1 FC1 FC1 FC1 FC1 HC1 HC1 HC1 HC1 HC1 HC1 HC1 HC1 FC1 FC1 FC1 FC1 FC1 FC1 FC1 FC1 HC1 HC1 HC1 HC1 HC1 HC1 HC1 HC1 FC1 FC FC FC FC F F F HD. HD. HD. HD. HD. HD. HD. HD. FD. FD. FD. FD. FD. FD. FD. FD. HD. HD. HD. HD. HD. HD. HD. HD. FD. FD. FD. FD. FD. FD. FD. FD. HD. HD. HD. HD. HD. HD. HD. HD. FD. FD. FD. FD. FD. F. F. F. HC. HC. HC. HC. HC. HC. HC. HC. FC. FC. FC. FC. FC. FC. FC. FC. HC. HC. HC. HC. HC. HC. HC. HC. FC. FC. FC. FC. FC. FC. FC. FC. HC. HC. HC. HC. HC. HC. HC. HC. FC. FC FC FC FC F F F HF+ HF+ HF+ HF+ HF+ HF+ HF+ HF+ FF+ FF+ FF+ FF+ FF+ FF+ FF+ FF+ HF+ HF+ HF+ HF+ HF+ HF+ HF+ HF+ FF+ FF+ FF+ FF+ FF+ FF+ FF+ FF+ HF+ HF+ HF+ HF+ HF+ HF+ HF+ HF+ FF+ FF+ FF+ FF+ FF+ F+ F+ F+ H@+ H@+ H@+ H@+ H@+ H@+ H@+ H@+ F@+ F@+ F@+ F@+ F@+ F@+ F@+ F@+ H@+ H@+ H@+ H@+ H@+ H@+ H@+ H@+ F@+ F@+ F@+ F@+ F@+ F@+ F@+ F@+ H@+ H@+ H@+ H@+ H@+ H@+ H@+ H@+ F@+ F@ F@ F@ F@ F F F HA) HA) HA) HA) HA) HA) HA) HA) HA) HA) HA) HA) HA) HA) HA) HA) HA) HA) HA) HA) HA) HA) HA) HA) HA) HA) HA) HA) HA) HA) HA) HA) HA) HA) HA) HA) HA) HA) HA) HA) HA) HA) HA) HA) HA) H H H HC( HC( HC( HC( HC( HC( HC( HC( HC( HC( HC( HC( HC( HC( HC( HC( HC( HC( HC( HC( HC( HC( HC( HC( HC( HC( HC( HC( HC( HC( HC( HC( HC( HC( HC( HC( HC( HC( HC( HC( HC( C( C( C( C(    H<, H<, H<, H<, H<, H<, H<, H<, H<, H<, H<, H<, H<, H<, H<, H<, H<, H<, H<, H<, H<, H<, H<, H<, H<, H<, H<, H<, H<, H<, H<, H<, H<, H<, H<, H<, H<, H<, H<, H<, H<, H<, H<, H<, H<, H<, H<, H<, H<, H<, H<, H<, H<, H<, H<, H<, H<, H<, H<, H<, H<, H<, H<, H<, H<, H<, H<, H<, H<, H<, H<, H<, H<, H<, H<, H<, H<, H<, H<, H<, H<, H<, H<, H<, H<, H<, H<, H<, H<,        A. A. A. A. A. A. A. A. A. A. A. A. A. A. A. A. A. A. A. A. A. A. A. A. A. A. A. A. A. A. A. A. A. A. A. A. A. A. A. A. A. A. A. A. A. A. A. A. A. A. A. A. A. A. A. A. A. A. A. A. A. A. A. A. A. A. A. A. A. A. A. A. A. A. A. A. A. A. A. A. A. A. A. A. A. A. A. A. A.        @0 @0 @0 @0 @0 @0 @0 @0 @0 @0 @0 @0 @0 @0 @0 @0 @0 @0 @0 @0 @0 @0 @0 @0 @0 @0 @0 @0 @0 @0 @0 @0 @0 @0 @0 @0 @0 @0 @0 @0 @0 @0 @0 @0 @0 @0 @0 @0 @0 @0 @0 @0 @0 @0 @0 @0 @0 @0 @0 @0 @0 @0 @0 @0 @0 @0 @0 @0 @0 @0 @0 @0 @0 @0 @0 @0 @0 @0 @0 @0 @0 @0 @0 @0 @0 @0 @0 @0 @0 0 0 0 0 0 0 0 A0 A0 A0 A0 A0 A0 A0 A0 A0 A0 A0 A0 A0 A0 A0 A0 A0 A0 A0 A0 A0 A0 A0 A0 A0 A0 A0 A0 A0 A0 A0 A0 A0 A0 A0 A0 A0 A0 A0 A0 A0 A0 A0 A0 A0 A0 A0 A0 A0 A0 A0 A0 A0 A0 A0 A0 A0 A0 A0 A0 A0 A0 A0 A0 A0 A0 A0 A0 A0 A0 A0 A0 A0 A0 A0 A0 A0 A0 A0 A0 A0 A A A A A A A A        F$ F$ F$ F$ F$ F$ F$ F$ F$ F$ F$ F$ F$ F$ F$ F$ F$ F$ F$ F$ F$ F$ F$ F$ F$ F$ F$ F$ F$ F$ F$ F$ F$ F$ F$ F$ F$ F$ F$ F$ F$ F$ F$ F$ F$ F$ F$ F$ F$ F$ F$ F$ F$ F$ F$ F$ F$ F$ F$ F$ F$ F$ F$ F$ F$ F$ F$ F$ F$ F$ F$ F$ F$ F$ F$ F$ F$ F$ F$ F$ F$ F$ F$ F$ F$ F$ F$ F$ F$ $ $ $ $ $ $ $ D$ D$ D$ D$ D$ D$ D$ D$ D$ D$ D$ D$ D$ D$ D$ D$ D$ D$ D$ D$ D$ D$ D$ D$ D$ D$ D$ D$ D$ D$ D$ D$ D$ D$ D$ D$ D$ D$ D$ D$ D$ D$ D$ D$ D$ D$ D$ D$ D$ D$ D$ D$ D$ D$ D$ D$ D$ D$ D$ D$ D$ D$ D$ D$ D$ D$ D$ D$ D$ D$ D$ D$ D$ D$ D$ D$ D$ D$ D$ D$ D$ D D D D D D D D        A) A) A) A) A) A) A) A) A) A) A) A) A) A) A) A) A) A) A) A) A) A) A) A) A) A) A) A) A) A) A) A) A) A) A) A) A) A) A) A) A) A) A) A) A) A) A) A) A) A) A) A) A) A) A) A) A) A) A) A) A) A) A) A) A) A) A) A) A) A) A) A) A) A) A) A) A) A) A) A) A) A) A) A) A) A) A) A) A) A) A) A) A) A) A) A) AH) AH) AH) AH) AH) AH) AH) AH) AH) AH) AH) AH) AH) AH) AH) AH) AH) AH) AH) AH) AH) AH) AH) AH) AH) AH) AH) AH) AH) AH) AH) AH) AH) AH) AH) AH) AH) AH) AH) AH) AH) AH) AH) AH) AH) AH) AH) AH) AH) AH) AH) AH) AH) AH) AH) AH) AH) AH) AH) AH) AH) AH) AH) AH) AH) AH) AH) AH) AH) AH) AH) AH) AH) AH) AH) AH) AH) AH) AH) AH) AH) AH AH AH AH AH AH AH AH A A A A A A A AM, AM, AM, AM, AM, AM, AM, AM, AM, AM, AM, AM, AM, AM, AM, AM, AM, AM, AM, AM, AM, AM, AM, AM, AM, AM, AM, AM, AM, AM, AM, AM, AM, AM, AM, AM, AM, AM, AM, AM, AM, AM, AM, AM, AM, AM, AM, AM, AM, AM, AM, AM, AM, AM, AM, AM, AM, AM, AM, AM, AM, AM, AM, AM, AM, AM, AM, AM, AM, AM, AM, AM, AM, AM, AM, AM, AM, AM, AM, AM, AM, AM, AM, AM, AM, AM, AM, AM, AM, A, A, A, A, A, A, A, AH, AH, AH, AH, AH, AH, AH, AH, AH, AH, AH, AH, AH, AH, AH, AH, AH, AH, AH, AH, AH, AH, AH, AH, AH, AH, AH, AH, AH, AH, AH, AH, AH, AH, AH, AH, AH, AH, AH, AH, AH, AH, AH, AH, AH, AH, AH, AH, AH, AH, AH, AH, AH, AH, AH, AH, AH, AH, AH, AH, AH, AH, AH, AH, AH, AH, H, H, H, H, H, H, H, H, H, H, H, H, H, H, H, H H H H H H H H        F0 F0 F0 F0 F0 F0 F0 F0 F0 F0 F0 F0 F0 F0 F0 F0 F0 F0 F0 F0 F0 F0 F0 F0 F0 F0 F0 F0 F0 F0 F0 F0 F0 F0 F0 F0 F0 F0 F0 F0 F0 F0 F0 F0 F0 F0 F0 F0 F0 F0 F0 F0 F0 F0 F0 F0 F0 F0 F0 F0 F0 F0 F0 F0 F0 F0 F0 F0 F0 F0 F0 F0 F0 F0 F0 F0 F0 F0 F0 F0 F0 F0 F0 F0 F0 F0 F0 F0 F0 0 0 0 0 0 0 0 D0 D0 D0 D0 D0 D0 D0 D0 D0 D0 D0 D0 D0 D0 D0 D0 D0 D0 D0 D0 D0 D0 D0 D0 D0 D0 D0 D0 D0 D0 D0 D0 D0 D0 D0 D0 D0 D0 D0 D0 D0 D0 D0 D0 D0 0 0 0 C0 C0 C0 C0 C0 C0 C0 C0 C0 C0 C0 C0 C0 C0 C0 C0 C0 C0 C0 C0 C0 C0 C0 C0 C0 C0 C0 C0 C0 C0 C0 C0 C0 C C C C C C C C C C C C    D5 D5 D5 D5 D5 D5 D5 D5 D5 D5 D5 D5 D5 D5 D5 D5 D5 D5 D5 D5 D5 D5 D5 D5 D5 D5 D5 D5 D5 D5 D5 D5 D5 D5 D5 D5 D5 D5 D5 D5 D5 D5 D5 D5 D5 D5 D5 D5 D5 D5 D5 D5 D5 D5 D5 D5 D5 D5 D5 D5 D5 D5 D5 D5 D5 D5 D5 D5 D5 D5 D5 D5 D5 D5 D5 D5 D5 D5 D5 D5 D5 D5 D5 D5 D5 D5 D5 D5 D5 D5 D5 D5 D5 D5 D5 D5 D<5 D<5 D<5 D<5 D<5 D<5 D<5 D<5 D<5 D<5 D<5 D<5 D<5 D<5 D<5 D<5 D<5 D<5 D<5 D<5 D<5 D<5 D<5 D<5 D<5 D<5 D<5 D<5 D<5 D<5 D<5 D<5 D<5 D<5 D<5 D<5 D<5 D<5 D<5 D<5 D<5 D<5 D<5 D<5 D<5 D<5 D<5 D<5 D<5 D<5 D<5 D<5 D<5 D<5 D<5 D<5 D<5 D<5 D<5 D<5 D<5 D<5 D<5 D<5 D<5 D<5 D<5 D<5 D<5 D<5 D<5 D<5 D<5 D<5 D<5 D<5 D<5 D<5 D<5 D<5 D<5 < < < < < < < <        A, A, A, A, A, A, A, A, A, A, A, A, A, A, A, A, A, A, A, A, A, A, A, A, A, A, A, A, A, A, A, A, A, A, A, A, A, A, A, A, A, A, A, A, A, A, A, A, A, A, A, A, A, A, A, A, A, A, A, A, A, A, A, A, A, A, A, A, A, A, A, A, A, A, A, A, A, A, A, A, A, A, A, A, A, A, A, A, A, , , , , , , , D<, D<, D<, D<, D<, D<, D<, D<, D<, D<, D<, D<, D<, D<, D<, D<, D<, D<, D<, D<, D<, D<, D<, D<, D<, D<, D<, D<, D<, D<, D<, D<, D<, D<, D<, D<, D<, D<, D<, D<, D<, D<, D<, D<, D<, D<, D<, D<, D<, D<, D<, D<, D<, D<, D<, D<, D<, D<, D<, D<, D<, D<, D<, D<, D<, D<, D<, D<, D<, D<, D<, D<, D<, D<, D<, D<, D<, D<, D<, D<, D<, D< D< D< D< D< D< D< D<        C:0 C:0 C:0 C:0 C:0 C:0 C:0 C:0 C:0 C:0 C:0 C:0 C:0 C:0 C:0 C:0 C:0 C:0 C:0 C:0 C:0 C:0 C:0 C:0 C:0 C:0 C:0 C:0 C:0 C:0 C:0 C:0 C:0 C:0 C:0 C:0 C:0 C:0 C:0 C:0 C:0 C:0 C:0 C:0 C:0 C:0 C:0 C:0 C:0 C:0 C:0 C:0 C:0 C:0 C:0 C:0 C:0 C:0 C:0 C:0 C:0 C:0 C:0 C:0 C:0 C:0 C:0 C:0 C:0 C:0 C:0 C:0 C:0 C:0 C:0 C:0 C:0 C:0 C:0 C:0 C:0 C:0 C:0 C:0 C:0 C:0 C:0 C:0 C:0 0 0 0 0 0 0 0 A80 A80 A80 A80 A80 A80 A80 A80 A80 A80 A80 A80 A80 A80 A80 A80 A80 A80 A80 A80 A80 A80 A80 A80 A80 A80 A80 A80 A80 A80 A80 A80 A80 A80 A80 A80 A80 A80 A80 A80 A80 A80 A80 A80 A80 0 0 0 @70 @70 @70 @70 @70 @70 @70 @70 @70 @70 @70 @70 @70 @70 @70 @70 @70 @70 @70 @70 @70 @70 @70 @70 @70 @70 @70 @70 @70 @70 @70 @70 @70 @7 @7 @7 @7 @7 @7 @7 @7 @7 @7 @7 @7    A8) A8) A8) A8) A8) A8) A8) A8) A8) A8) A8) A8) A8) A8) A8) A8) A8) A8) A8) A8) A8) A8) A8) A8) A8) A8) A8) A8) A8) A8) A8) A8) A8) A8) A8) A8) A8) A8) A8) A8) A8) A8) A8) A8) A8) A8) A8) A8) A8) A8) A8) A8) A8) A8) A8) A8) A8) A8) A8) A8) A8) A8) A8) A8) A8) A8) A8) A8) A8) A8) A8) A8) A8) A8) A8) A8) A8) A8) A8) A8) A8) A8) A8) A8) A8) A8) A8) A8) A8) A8 A8 A8 A8 A8 A8 A8 A85 A85 A85 A85 A85 A85 A85 A85 A85 A85 A85 A85 A85 A85 A85 A85 A85 A85 A85 A85 A85 A85 A85 A85 A85 A85 A85 A85 A85 A85 A85 A85 A85 A85 A85 A85 A85 A85 A85 A85 A85 A85 A85 A85 A85 A85 A85 A85 A85 A85 A85 A85 A85 A85 A85 A85 A85 A85 A85 A85 A85 A85 A85 A85 A85 A85 A85 A85 A85 A85 A85 A85 A85 A85 A85 A85 A85 A85 A85 A85 A85 5 5 5 5 5 5 5 5        DH8 DH8 DH8 DH8 DH8 DH8 DH8 DH8 DH8 DH8 DH8 DH8 DH8 DH8 DH8 DH8 DH8 DH8 DH8 DH8 DH8 DH8 DH8 DH8 DH8 DH8 DH8 DH8 DH8 DH8 DH8 DH8 DH8 DH8 DH8 DH8 DH8 DH8 DH8 DH8 DH8 DH8 DH8 DH8 DH8 DH8 DH8 DH8 DH8 DH8 DH8 DH8 DH8 DH8 DH8 DH8 DH8 DH8 DH8 DH8 DH8 DH8 DH8 DH8 DH8 DH8 DH8 DH8 DH8 DH8 DH8 DH8 DH8 DH8 DH8 DH8 DH8 DH8 DH8 DH8 DH8 DH8 DH8 DH8 DH8 DH8 DH8 DH8 DH8 DH DH DH DH DH DH DH DDH5 DDH5 DDH5 DDH5 DDH5 DDH5 DDH5 DDH5 DDH5 DDH5 DDH5 DDH5 DDH5 DDH5 DDH5 DDH5 DDH5 DDH5 DDH5 DDH5 DDH5 DDH5 DDH5 DDH5 DDH5 DDH5 DDH5 DDH5 DDH5 DDH5 DDH5 DDH5 DDH5 DDH5 DDH5 DDH5 DDH5 DDH5 DDH5 DDH5 DDH5 DDH5 DDH5 DDH5 DDH5 DH5 DH5 DH5 DHC5 DHC5 DHC5 DHC5 DHC5 DHC5 DHC5 DHC5 DHC5 DHC5 DHC5 DHC5 DHC5 DHC5 DHC5 DHC5 DHC5 DHC5 DHC5 DHC5 DHC5 DHC5 DHC5 DHC5 DHC5 DHC5 DHC5 DHC5 DHC5 DHC5 DHC5 DHC5 DHC5 C5 C5 C5 C5 C5 C5 C5 C5 C C C C    :DM1 :DM1 :DM1 :DM1 :DM1 :DM1 :DM1 :DM1 :DM1 :DM1 :DM1 :DM1 :DM1 :DM1 :DM1 :DM1 :DM1 :DM1 :DM1 :DM1 :DM1 :DM1 :DM1 :DM1 :DM1 :DM1 :DM1 :DM1 :DM1 :DM1 :DM1 :DM1 :DM1 :DM1 :DM1 :DM1 :DM1 :DM1 :DM1 :DM1 :DM1 :DM1 :DM1 :DM1 :DM1 :DM1 :DM1 :DM1 :DM1 :DM1 :DM1 :DM1 :DM1 :DM1 :DM1 :DM1 :DM1 :DM1 :DM1 :DM1 :DM1 :DM1 :DM1 :DM1 :DM1 :DM1 :DM1 :DM1 :DM1 :DM1 :DM1 :DM1 :DM1 :DM1 :DM1 :DM1 :DM1 :DM1 :DM1 :DM1 :DM1 :DM1 :DM1 :DM1 :DM1 :DM1 :DM1 :DM1 :DM1 :M :M :M :M :M :M :M :IM0 :IM0 :IM0 :IM0 :IM0 :IM0 :IM0 :IM0 :IM0 :IM0 :IM0 :IM0 :IM0 :IM0 :IM0 :IM0 :IM0 :IM0 :IM0 :IM0 :IM0 :IM0 :IM0 :IM0 :IM0 :IM0 :IM0 :IM0 :IM0 :IM0 :IM0 :IM0 :IM0 :IM0 :IM0 :IM0 :IM0 :IM0 :IM0 :IM0 :IM0 :IM0 :IM0 :IM0 :IM0 :IM :IM :IM :IM. :IM. :IM. :IM. :IM. :IM. :IM. :IM. :IM. :IM. :IM. :IM. :IM. :IM. :IM. :IM. :IM. :IM. :IM. :IM. :IM. :IM. :IM. :IM. :IM. :IM. :IM. :IM. :IM. :IM. :IM. :IM. :IM. :IM. :IM. :IM. :IM. :IM. :IM. :IM. :IM. :M. :M. :M. :M. :M :M :M :CM' :CM' :CM' :CM' :CM' :CM' :CM' :CM' :CM' :CM' :CM' :CM' :CM' :CM' :CM' :CM' :CM' :CM' :CM' :CM' :CM' :CM' :CM' :CM' :CM' :CM' :CM' :CM' :CM' :CM' :CM' :CM' :CM' :CM' :CM' :CM' :CM' :CM' :CM' :CM' :CM' :CM' :CM' :CM' :CM' :CM' :CM' :CM' :CM' :CM' :CM' :CM' :CM' :CM' :CM' :CM' :CM' :CM' :CM' :CM' :CM' :CM' :CM' :CM' :CM' :CM' :CM' :CM' :CM' :CM' :CM' :CM' :CM' :CM' :CM' :CM' :CM' :CM' :CM' :CM' :CM' :CM' :CM' :CM' :CM' :CM' :CM' :CM' :CM' :CM :CM :CM :CM :CM :CM :CM :CM3 :CM3 :CM3 :CM3 :CM3 :CM3 :CM3 :CM3 :CM3 :CM3 :CM3 :CM3 :CM3 :CM3 :CM3 :CM3 :CM3 :CM3 :CM3 :CM3 :CM3 :CM3 :CM3 :CM3 :CM3 :CM3 :CM3 :CM3 :CM3 :CM3 :CM3 :CM3 :CM3 :CM3 :CM3 :CM3 :CM3 :CM3 :CM3 :CM3 :CM3 :CM3 :CM3 :CM3 :CM3 :CM3 :CM3 :CM3 :CM3 :CM3 :CM3 :CM3 :CM3 :CM3 :CM3 :CM3 :CM3 :CM3 :CM3 :CM3 :CM3 :CM3 :CM3 :CM3 :CM3 :CM3 :CM3 :CM3 :CM3 :CM3 :CM3 :CM3 :CM3 :CM3 :CM3 :CM3 :CM3 :CM3 :CM3 :CM3 :CM3 3 3 3 3 3 3 3 3        CF7 CF7 CF7 CF7 CF7 CF7 CF7 CF7 CF7 CF7 CF7 CF7 CF7 CF7 CF7 CF7 CF7 CF7 CF7 CF7 CF7 CF7 CF7 CF7 CF7 CF7 CF7 CF7 CF7 CF7 CF7 CF7 CF7 CF7 CF7 CF7 CF7 CF7 CF7 CF7 CF7 CF7 CF7 CF7 CF7 CF7 CF7 CF7 CF7 CF7 CF7 CF7 CF7 CF7 CF7 CF7 CF7 CF7 CF7 CF7 CF7 CF7 CF7 CF7 CF7 CF7 CF7 CF7 CF7 CF7 CF7 CF7 CF7 CF7 CF7 CF7 CF7 CF7 CF7 CF7 CF7 CF7 CF7 CF7 CF7 CF7 CF7 CF7 CF7 CF CF CF CF CF CF CF CCF3 CCF3 CCF3 CCF3 CCF3 CCF3 CCF3 CCF3 CCF3 CCF3 CCF3 CCF3 CCF3 CCF3 CCF3 CCF3 CCF3 CCF3 CCF3 CCF3 CCF3 CCF3 CCF3 CCF3 CCF3 CCF3 CCF3 CCF3 CCF3 CCF3 CCF3 CCF3 CCF3 CCF3 CCF3 CCF3 CCF3 CCF3 CCF3 CCF3 CCF3 CCF3 CCF3 CCF3 CCF3 CF3 CF3 CF3 CFA3 CFA3 CFA3 CFA3 CFA3 CFA3 CFA3 CFA3 CFA3 CFA3 CFA3 CFA3 CFA3 CFA3 CFA3 CFA3 CFA3 CFA3 CFA3 CFA3 CFA3 CFA3 CFA3 CFA3 CFA3 CFA3 CFA3 CFA3 CFA3 CFA3 CFA3 CFA3 CFA3 A3 A3 A3 A3 A3 A3 A3 A3 A A A A    8CK0 8CK0 8CK0 8CK0 8CK0 8CK0 8CK0 8CK0 8CK0 8CK0 8CK0 8CK0 8CK0 8CK0 8CK0 8CK0 8CK0 8CK0 8CK0 8CK0 8CK0 8CK0 8CK0 8CK0 8CK0 8CK0 8CK0 8CK0 8CK0 8CK0 8CK0 8CK0 8CK0 8CK0 8CK0 8CK0 8CK0 8CK0 8CK0 8CK0 8CK0 8CK0 8CK0 8CK0 8CK0 8CK0 8CK0 8CK0 8CK0 8CK0 8CK0 8CK0 8CK0 8CK0 8CK0 8CK0 8CK0 8CK0 8CK0 8CK0 8CK0 8CK0 8CK0 8CK0 8CK0 8CK0 8CK0 8CK0 8CK0 8CK0 8CK0 8CK0 8CK0 8CK0 8CK0 8CK0 8CK0 8CK0 8CK0 8CK0 8CK0 8CK0 8CK0 8CK0 8CK0 8CK0 8CK0 8CK0 8CK0 8K 8K 8K 8K 8K 8K 8K 8HK. 8HK. 8HK. 8HK. 8HK. 8HK. 8HK. 8HK. 8HK. 8HK. 8HK. 8HK. 8HK. 8HK. 8HK. 8HK. 8HK. 8HK. 8HK. 8HK. 8HK. 8HK. 8HK. 8HK. 8HK. 8HK. 8HK. 8HK. 8HK. 8HK. 8HK. 8HK. 8HK. 8HK. 8HK. 8HK. 8HK. 8HK. 8HK. 8HK. 8HK. 8HK. 8HK. 8HK. 8HK. 8HK 8HK 8HK 8HK, 8HK, 8HK, 8HK, 8HK, 8HK, 8HK, 8HK, 8HK, 8HK, 8HK, 8HK, 8HK, 8HK, 8HK, 8HK, 8HK, 8HK, 8HK, 8HK, 8HK, 8HK, 8HK, 8HK, 8HK, 8HK, 8HK, 8HK, 8HK, 8HK, 8HK, 8HK, 8HK, 8HK, 8HK, 8HK, 8HK, 8HK, 8HK, 8HK, 8HK, 8K, 8K, 8K, 8K, 8K 8K 8K 8AK% 8AK% 8AK% 8AK% 8AK% 8AK% 8AK% 8AK% 8AK% 8AK% 8AK% 8AK% 8AK% 8AK% 8AK% 8AK% 8AK% 8AK% 8AK% 8AK% 8AK% 8AK% 8AK% 8AK% 8AK% 8AK% 8AK% 8AK% 8AK% 8AK% 8AK% 8AK% 8AK% 8AK% 8AK% 8AK% 8AK% 8AK% 8AK% 8AK% 8AK% 8AK% 8AK% 8AK% 8AK% 8AK% 8AK% 8AK% 8AK% 8AK% 8AK% 8AK% 8AK% 8AK% 8AK% 8AK% 8AK% 8AK% 8AK% 8AK% 8AK% 8AK% 8AK% 8AK% 8AK% 8AK% 8AK% 8AK% 8AK% 8AK% 8AK% 8AK% 8AK% 8AK% 8AK% 8AK% 8AK% 8AK% 8AK% 8AK% 8AK% 8AK% 8AK% 8AK% 8AK% 8AK% 8AK% 8AK% 8AK% 8AK 8AK 8AK 8AK 8AK 8AK 8AK 8AK1 8AK1 8AK1 8AK1 8AK1 8AK1 8AK1 8AK1 8AK1 8AK1 8AK1 8AK1 8AK1 8AK1 8AK1 8AK1 8AK1 8AK1 8AK1 8AK1 8AK1 8AK1 8AK1 8AK1 8AK1 8AK1 8AK1 8AK1 8AK1 8AK1 8AK1 8AK1 8AK1 8AK1 8AK1 8AK1 8AK1 8AK1 8AK1 8AK1 8AK1 8AK1 8AK1 8AK1 8AK1 8AK1 8AK1 8AK1 8AK1 8AK1 8AK1 8AK1 8AK1 8AK1 8AK1 8AK1 8AK1 8AK1 8AK1 8AK1 8AK1 8AK1 8AK1 8AK1 8AK1 8AK1 8AK1 8AK1 8AK1 8AK1 8AK1 8AK1 8AK1 8AK1 8AK1 8AK1 8AK1 8AK1 8AK1 8AK1 8AK1 1 1 1 1 1 1 1 1        AD5 AD5 AD5 AD5 AD5 AD5 AD5 AD5 AD5 AD5 AD5 AD5 AD5 AD5 AD5 AD5 AD5 AD5 AD5 AD5 AD5 AD5 AD5 AD5 AD5 AD5 AD5 AD5 AD5 AD5 AD5 AD5 AD5 AD5 AD5 AD5 AD5 AD5 AD5 AD5 AD5 AD5 AD5 AD5 AD5 AD5 AD5 AD5 AD5 AD5 AD5 AD5 AD5 AD5 AD5 AD5 AD5 AD5 AD5 AD5 AD5 AD5 AD5 AD5 AD5 AD5 AD5 AD5 AD5 AD5 AD5 AD5 AD5 AD5 AD5 AD5 AD5 AD5 AD5 AD5 AD5 AD5 AD5 AD5 AD5 AD5 AD5 AD5 AD5 AD AD AD AD AD AD AD AAD1 AAD1 AAD1 AAD1 AAD1 AAD1 AAD1 AAD1 AAD1 AAD1 AAD1 AAD1 AAD1 AAD1 AAD1 AAD1 AAD1 AAD1 AAD1 AAD1 AAD1 AAD1 AAD1 AAD1 AAD1 AAD1 AAD1 AAD1 AAD1 AAD1 AAD1 AAD1 AAD1 AAD1 AAD1 AAD1 AAD1 AAD1 AAD1 AAD1 AAD1 AAD1 AAD1 AAD1 AAD1 AD1 AD1 AD1 AD@1 AD@1 AD@1 AD@1 AD@1 AD@1 AD@1 AD@1 AD@1 AD@1 AD@1 AD@1 AD@1 AD@1 AD@1 AD@1 AD@1 AD@1 AD@1 AD@1 AD@1 AD@1 AD@1 AD@1 AD@1 AD@1 AD@1 AD@1 AD@1 AD@1 AD@1 AD@1 AD@1 @1 @1 @1 @1 @1 @1 @1 @1 @ @ @ @    7AI. 7AI. 7AI. 7AI. 7AI. 7AI. 7AI. 7AI. 7AI. 7AI. 7AI. 7AI. 7AI. 7AI. 7AI. 7AI. 7AI. 7AI. 7AI. 7AI. 7AI. 7AI. 7AI. 7AI. 7AI. 7AI. 7AI. 7AI. 7AI. 7AI. 7AI. 7AI. 7AI. 7AI. 7AI. 7AI. 7AI. 7AI. 7AI. 7AI. 7AI. 7AI. 7AI. 7AI. 7AI. 7AI. 7AI. 7AI. 7AI. 7AI. 7AI. 7AI. 7AI. 7AI. 7AI. 7AI. 7AI. 7AI. 7AI. 7AI. 7AI. 7AI. 7AI. 7AI. 7AI. 7AI. 7AI. 7AI. 7AI. 7AI. 7AI. 7AI. 7AI. 7AI. 7AI. 7AI. 7AI. 7AI. 7AI. 7AI. 7AI. 7AI. 7AI. 7AI. 7AI. 7AI. 7AI. 7AI. 7AI. 7I 7I 7I 7I 7I 7I 7I 7FI, 7FI, 7FI, 7FI, 7FI, 7FI, 7FI, 7FI, 7FI, 7FI, 7FI, 7FI, 7FI, 7FI, 7FI, 7FI, 7FI, 7FI, 7FI, 7FI, 7FI, 7FI, 7FI, 7FI, 7FI, 7FI, 7FI, 7FI, 7FI, 7FI, 7FI, 7FI, 7FI, 7FI, 7FI, 7FI, 7FI, 7FI, 7FI, 7FI, 7FI, 7FI, 7FI, 7FI, 7FI, 7FI 7FI 7FI 7FI+ 7FI+ 7FI+ 7FI+ 7FI+ 7FI+ 7FI+ 7FI+ 7FI+ 7FI+ 7FI+ 7FI+ 7FI+ 7FI+ 7FI+ 7FI+ 7FI+ 7FI+ 7FI+ 7FI+ 7FI+ 7FI+ 7FI+ 7FI+ 7FI+ 7FI+ 7FI+ 7FI+ 7FI+ 7FI+ 7FI+ 7FI+ 7FI+ 7FI+ 7FI+ 7FI+ 7FI+ 7FI+ 7FI+ 7FI+ 7FI+ 7I+ 7I+ 7I+ 7I+ 7I 7I 7I 7I@, 7I@, 7I@, 7I@, 7I@, 7I@, 7I@, 7I@, 7I@, 7I@, 7I@, 7I@, 7I@, 7I@, 7I@, 7I@, 7I@, 7I@, 7I@, 7I@, 7I@, 7I@, 7I@, 7I@, 7I@, 7I@, 7I@, 7I@, 7I@, 7I@, 7I@, 7I@, 7I@, 7I@, 7I@, 7I@, 7I@, 7I@, 7I@, 7I@, 7I@, 7I@, 7I@, 7I@, 7I@, 7I@, 7I@, 7I@, 7I@, 7I@, 7I@, 7I@, 7I@, 7I@, 7I@, 7I@, 7I@, 7I@, 7I@, 7I@, 7I@, 7I@, 7I@, 7I@, 7I@, 7I@, 7I@, 7I@, 7I@, 7I@, 7I@, 7I@, 7I@, 7I@, 7I@, 7I@, 7I@, 7I@, 7I@, 7I@, 7I@, 7I@, 7I@, 7I@, 7I@, 7I@, 7I@, 7I@, 7I@, @ @ @ @ @ @ @ :@H+ :@H+ :@H+ :@H+ :@H+ :@H+ :@H+ :@H+ :@H+ :@H+ :@H+ :@H+ :@H+ :@H+ :@H+ :@H+ :@H+ :@H+ :@H+ :@H+ :@H+ :@H+ :@H+ :@H+ :@H+ :@H+ :@H+ :@H+ :@H+ :@H+ :@H+ :@H+ :@H+ :@H+ :@H+ :@H+ :@H+ :@H+ :@H+ :@H+ :@H+ :@H+ :@H+ :@H+ :@H+ :@H+ :@H+ :@H+ :@H+ :@H+ :@H+ :@H+ :@H+ :@H+ :@H+ :@H+ :@H+ :@H+ :@H+ :@H+ :@H+ :@H+ :@H+ :@H+ :@H+ :@H+ :@H+ :@H+ :@H+ :@H+ :@H+ :@H+ :@H+ :@H+ :@H+ :@H+ :@H+ :@H+ :@H+ :@H+ :@H+ :H+ :H+ :H+ :H+ :H+ :H+ :H+ :H+        =M, =M, =M, =M, =M, =M, =M, =M, =M, =M, =M, =M, =M, =M, =M, =M, =M, =M, =M, =M, =M, =M, =M, =M, =M, =M, =M, =M, =M, =M, =M, =M, =M, =M, =M, =M, =M, =M, =M, =M, =M, =M, =M, =M, =M, =M, =M, =M, =M, =M, =M, =M, =M, =M, =M, =M, =M, =M, =M, =M, =M, =M, =M, =M, =M, =M, =M, =M, =M, =M, =M, =M, =M, =M, =M, =M, =M, =M, =M, =M, =M, =M, =M, =M, =M, =M, =M, =M, =M, = = = = = = = <H) <H) <H) <H) <H) <H) <H) <H) <H) <H) <H) <H) <H) <H) <H) <H) <H) <H) <H) <H) <H) <H) <H) <H) <H) <H) <H) <H) <H) <H) <H) <H) <H) <H) <H) <H) <H) <H) <H) <H) <H) <H) <H) <H) <H) <H) <H) <H) <H) <H) <H) <H) <H) <H) <H) <H) <H) <H) <H) <H) <H) <H) <H) <H) <H) <H) <H) <H) <H) <H) <H) <H) <H) <H) <H) <H) <H) <H) <H) <H) <H) <H) <H) <H) <H) <H) <H) <H) <H)        AF0 AF0 AF0 AF0 AF0 AF0 AF0 AF0 AF0 AF0 AF0 AF0 AF0 AF0 AF0 AF0 AF0 AF0 AF0 AF0 AF0 AF0 AF0 AF0 AF0 AF0 AF0 AF0 AF0 AF0 AF0 AF0 AF0 AF0 AF0 AF0 AF0 AF0 AF0 AF0 AF0 AF0 AF0 AF0 AF0 AF0 AF0 AF0 AF0 AF0 AF0 AF0 AF0 AF0 AF0 AF0 AF0 AF0 AF0 AF0 AF0 AF0 AF0 AF0 AF0 AF0 AF0 AF0 AF0 AF0 AF0 AF0 AF0 AF0 AF0 AF0 AF0 AF0 AF0 AF0 AF0 AF0 AF0 AF0 AF0 AF0 AF0 AF0 AF0 A A A A A A A @D$ @D$ @D$ @D$ @D$ @D$ @D$ @D$ @D$ @D$ @D$ @D$ @D$ @D$ @D$ @D$ @D$ @D$ @D$ @D$ @D$ @D$ @D$ @D$ @D$ @D$ @D$ @D$ @D$ @D$ @D$ @D$ @D$ @D$ @D$ @D$ @D$ @D$ @D$ @D$ @D$ @D$ @D$ @D$ @D$ @$ @$ @$ @C$ @C$ @C$ @C$ @C$ @C$ @C$ @C$ @C$ @C$ @C$ @C$ @C$ @C$ @C$ @C$ @C$ @C$ @C$ @C$ @C$ @C$ @C$ @C$ @C$ @C$ @C$ @C$ @C$ @C$ @C$ @C$ @C$ @C$ @C$ @C$ @C$ @C$ @C$ @C$ @C$ C C C C    DD) DD) DD) DD) DD) DD) DD) DD) DD) DD) DD) DD) DD) DD) DD) DD) DD) DD) DD) DD) DD) DD) DD) DD) DD) DD) DD) DD) DD) DD) DD) DD) DD) DD) DD) DD) DD) DD) DD) DD) DD) DD) DD) DD) DD) D) D) D) DC) DC) DC) DC) DC) DC) DC) DC) DC) DC) DC) DC) DC) DC) DC) DC) DC) DC) DC) DC) DC) DC) DC) DC) DC) DC) DC) DC) DC) DC) DC) DC) DC) DC) DC) DC) DC) DC) DC) DC) DC) DC DC DC DC D D D DA0 DA0 DA0 DA0 DA0 DA0 DA0 DA0 DA0 DA0 DA0 DA0 DA0 DA0 DA0 DA0 DA0 DA0 DA0 DA0 DA0 DA0 DA0 DA0 DA0 DA0 DA0 DA0 DA0 DA0 DA0 DA0 DA0 DA0 DA0 DA0 DA0 DA0 DA0 DA0 DA0 DA0 DA0 DA0 DA0 D0 D0 D0 DC0 DC0 DC0 DC0 DC0 DC0 DC0 DC0 DC0 DC0 DC0 DC0 DC0 DC0 DC0 DC0 DC0 DC0 DC0 DC0 DC0 DC0 DC0 DC0 DC0 DC0 DC0 DC0 DC0 DC0 DC0 DC0 DC0 DC0 DC0 DC0 DC0 DC0 DC0 DC0 DC0 DC DC DC DC D D D DD5 DD5 DD5 DD5 DD5 DD5 DD5 DD5 DD5 DD5 DD5 DD5 DD5 DD5 DD5 DD5 DD5 DD5 DD5 DD5 DD5 DD5 DD5 DD5 DD5 DD5 DD5 DD5 DD5 DD5 DD5 DD5 DD5 DD5 DD5 DD5 DD5 DD5 DD5 DD5 DD5 DD5 DD5 DD5 DD5 D5 D5 D5 DF5 DF5 DF5 DF5 DF5 DF5 DF5 DF5 DF5 DF5 DF5 DF5 DF5 DF5 DF5 DF5 DF5 DF5 DF5 DF5 DF5 DF5 DF5 DF5 DF5 DF5 DF5 DF5 DF5 DF5 DF5 DF5 DF5 DF5 DF5 DF5 DF5 DF5 DF5 DF5 DF5 DF DF DF DF D D D DH0 DH0 DH0 DH0 DH0 DH0 DH0 DH0 DH0 DH0 DH0 DH0 DH0 DH0 DH0 DH0 DH0 DH0 DH0 DH0 DH0 DH0 DH0 DH0 DH0 DH0 DH0 DH0 DH0 DH0 DH0 DH0 DH0 DH0 DH0 DH0 DH0 DH0 DH0 DH0 DH0 DH0 DH0 DH0 DH0 D0 D0 D0 DI0 DI0 DI0 DI0 DI0 DI0 DI0 DI0 DI0 DI0 DI0 DI0 DI0 DI0 DI0 DI0 DI0 DI0 DI0 DI0 DI0 DI0 DI0 DI0 DI0 DI0 DI0 DI0 DI0 DI0 DI0 DI0 DI0 DI0 DI0 DI0 DI0 DI0 DI0 DI0 DI0 DI DI DI DI D D D DK, DK, DK, DK, DK, DK, DK, DK, DK, DK, DK, DK, DK, DK, DK, DK, DK, DK, DK, DK, DK, DK, DK, DK, DK, DK, DK, DK, DK, DK, DK, DK, DK, DK, DK, DK, DK, DK, DK, DK, DK, DK, DK, DK, DK, D, D, D, DM, DM, DM, DM, DM, DM, DM, DM, DM, DM, DM, DM, DM, DM, DM, DM, DM, DM, DM, DM, DM, DM, DM, D, DN, DN, DN, DN, DN, DN, DN, DN, DN, DN, DN, DN, DN, DN, DN, DN, DN, DN DN DN DN DN DN D DM+ DM+ DM+ DM+ DM+ DM+ DM+ DM+ DM+ DM+ DM+ DM+ DM+ DM+ DM+ DM+ DM+ DM+ DM+ DM+ DM+ DM+ DM+ DM+ DM+ DM+ DM+ DM+ DM+ DM+ DM+ DM+ DM+ DM+ DM+ DM+ DM+ DM+ DM+ DM+ DM+ DM+ DM+ DM+ DM+ D D D DK) DK) DK) DK) DK) DK) DK) DK) DK) DK) DK) DK) DK) DK) DK) DK) DK) DK) DK) DK) DK) DK) DK) DK) DK) DK) DK) DK) DK) DK) DK) DK) DK) DK) DK) DK) DK) DK) DK) DK) DK) DK) DK) DK) DK) D D D DI. DI. DI. DI. DI. DI. DI. DI. DI. DI. DI. DI. DI. DI. DI. DI. DI. DI. DI. DI. DI. DI. DI. DI. DI. DI. DI. DI. DI. DI. DI. DI. DI. DI. DI. DI. DI. DI. DI. DI. DI. DI. DI. DI. DI. DI. DI. DI. DI. DI. DI. DI. DI. DI. DI. DI. DI. DI. DI. DI. DI. DI. DI. DI. DI. DI. DI. DI. DI. DI. DI. DI. DI. DI. DI. DI. DI. DI. DI. DI. DI. DI. DI. DI. DI. DI. DI. DI. DI. I. I. I. I. I. I. I. FAI. FAI. FAI. FAI. FAI. FAI. FAI. FAI. FAI. FAI. FAI. FAI. FAI. FAI. FAI. FAI. FAI. FAI. FAI. FAI. FAI. FAI. FAI. FAI. FAI. FAI. FAI. FAI. FAI. FAI. FAI. FAI. FAI. FAI. FAI. FAI. FAI. FAI. FAI. FAI. FAI. FAI. FAI. FAI. FAI. FAI. FAI. FAI. FAI. FAI. FAI. FAI. FAI. FAI. FAI. FAI. FAI. FAI. FAI. FAI. FAI. FAI. FAI. FAI. FAI. FAI. FAI. FAI. FAI. FAI. FAI. FAI. FAI. FAI. FAI. FAI. FAI. FAI. FAI. FAI. FAI. FAI FAI FAI FAI FAI FAI FAI FAI I I I I I I I IFI IFI IFI IFI IFI IFI IFI IFI IFI IFI IFI IFI IFI IFI IFI IFI IFI IFI IFI IFI IFI IFI IFI IFI IFI IFI IFI IFI IFI IFI IFI IFI IFI IFI IFI IFI IFI IFI IFI IFI IFI IFI IFI IFI IFI IFI IFI IFI IFI IFI IFI IFI IFI IFI IFI IFI IFI IFI IFI IFI IFI IFI IFI IFI IFI IFI IFI IFI IFI IFI IFI IFI IFI IFI IFI IFI IFI IFI IFI IFI IFI IFI IFI IFI IFI IFI IFI IFI IFI II II II II II II II HAI HAI HAI HAI HAI HAI HAI HAI HAI HAI HAI HAI HAI HAI HAI HAI HAI HAI HAI HAI HAI HAI HAI HAI HAI HAI HAI HAI HAI HAI HAI HAI HAI HAI HAI HAI HAI HAI HAI HAI HAI HAI HAI HAI HAI HAI HAI HAI HAI HAI HAI HAI HAI HAI HAI HAI HAI HAI HAI HAI HAI HAI HAI HAI HAI HAI HAI HAI HAI HAI HAI HAI HAI HAI HAI HAI HAI HAI HAI HAI HAI HAI HAI HAI HAI HAI HAI HAI HAI I I I I I I I M=I M=I M=I M=I M=I M=I M=I M=I M=I M=I M=I M=I M=I M=I M=I M=I M=I M=I M=I M=I M=I M=I M=I M=I M=I M=I M=I M=I M=I M=I M=I M=I M=I M=I M=I M=I M=I M=I M=I M=I M=I M=I M=I M=I M=I M=I M=I M=I M=I M=I M=I M=I M=I M=I M=I M=I M=I M=I M=I M=I M=I M=I M=I M=I M=I M=I M=I M=I M=I M=I M=I M=I M=I M=I M=I M=I M=I M=I M=I M=I M=I M=I M=I M=I M=I M=I M=I M=I M=I MI MI MI MI MI MI MI L<I L<I L<I L<I L<I L<I L<I L<I L<I L<I L<I L<I L<I L<I L<I L<I L<I L<I L<I L<I L<I L<I L<I L<I L<I L<I L<I L<I L<I L<I L<I L<I L<I L<I L<I L<I L<I L<I L<I L<I L<I L<I L<I L<I L<I LI LI LI L:I L:I L:I L:I L:I L:I L:I L:I L:I L:I L:I L:I L:I L:I L:I L:I L:I L:I L:I L:I L:I L:I L:I L:I L:I L:I L:I L:I L:I L:I L:I L:I L:I L:I L:I L:I L:I L:I L:I L:I L:I :I :I :I :I I I I RI@+ RI@+ RI@+ RI@+ RI@+ RI@+ RI@+ RI@+ RI@+ RI@+ RI@+ RI@+ RI@+ RI@+ RI@+ RI@+ RI@+ RI@+ RI@+ RI@+ RI@+ RI@+ RI@+ RI@+ RI@+ RI@+ RI@+ RI@+ RI@+ RI@+ RI@+ RI@+ RI@+ RI@+ RI@+ RI@+ RI@+ RI@+ RI@+ RI@+ RI@+ RI@+ RI@+ RI@+ RI@+ R@+ R@+ R@+ RH@+ RH@+ RH@+ RH@+ RH@+ RH@+ RH@+ RH@+ RH@+ RH@+ RH@+ RH@+ RH@+ RH@+ RH@+ RH@+ RH@+ RH@+ RH@+ RH@+ RH@+ RH@+ RH@+ RH@+ RH@+ RH@+ RH@+ RH@+ RH@+ RH@+ RH@+ RH@+ RH@+ RH@+ RH@+ RH@+ RH@+ RH@+ RH@+ RH@+ RH@+ RH@+ RH@+ RH@+ RH@+ R@+ R@+ R@+ RF@+ RF@+ RF@+ RF@+ RF@+ RF@+ RF@+ RF@+ RF@+ RF@+ RF@+ RF@+ RF@+ RF@+ RF@+ RF@+ RF@+ RF@+ RF@+ RF@+ RF@+ RF@+ RF@+ RF@+ RF@+ RF@+ RF@+ RF@+ RF@+ RF@+ RF@+ RF@+ RF@+ RF@+ RF@+ RF@+ RF@+ RF@+ RF@+ RF@+ RF@+ RF@+ RF@+ RF@+ RF@+ R@+ R@+ R@+ R@H+ R@H+ R@H+ R@H+ R@H+ R@H+ R@H+ R@H+ R@H+ R@H+ R@H+ R@H+ R@H+ R@H+ R@H+ R@H+ R@H+ R@H+ R@H+ R@H+ R@H+ R@H+ R@H+ R@H+ R@H+ R@H+ R@H+ R@H+ R@H+ R@H+ R@H+ R@H+ R@H+ RH RH RH RH RH RH RH RH RH RH RH RH R R R RI. RI. RI. RI. RI. RI. RI. RI. RI. RI. RI. RI. RI. RI. RI. RI. RI. RI. RI. RI. RI. RI. RI. RI. RI. RI. RI. RI. RI. RI. RI. RI. RI. RI. RI. RI. RI. RI. RI. RI. RI. RI. RI. RI. RI. R. R. R. RC. RC. RC. RC. RC. RC. RC. RC. RC. RC. RC. RC. RC. RC. RC. RC. RC. RC. RC. RC. RC. RC. RC. RC. RC. RC. RC. RC. RC. RC. RC. RC. RC. RC. RC. RC. RC. RC. RC. RC. RC. RC. RC. RC. RC. R. R. R. RD. RD. RD. RD. RD. RD. RD. RD. RD. RD. RD. RD. RD. RD. RD. RD. RD. RD. RD. RD. RD. RD. RD. RD. RD. RD. RD. RD. RD. RD. RD. RD. RD. RD. RD. RD. RD. RD. RD. RD. RD. RD. RD. RD. RD. R. R. R. RF. RF. RF. RF. RF. RF. RF. RF. RF. RF. RF. RF. RF. RF. RF. RF. RF. RF. RF. RF. RF. RF. RF. RF. RF. RF. RF. RF. RF. RF. RF. RF. RF. RF RF RF RF RF RF RF RF RF RF RF RF R R R RA+ RA+ RA+ RA+ RA+ RA+ RA+ RA+ RA+ RA+ RA+ RA+ RA+ RA+ RA+ RA+ RA+ RA+ RA+ RA+ RA+ RA+ RA+ RA+ RA+ RA+ RA+ RA+ RA+ RA+ RA+ RA+ RA+ RA+ RA+ RA+ RA+ RA+ RA+ RA+ RA+ RA+ RA+ RA+ RA+ R+ R+ R+ R@+ R@+ R@+ R@+ R@+ R@+ R@+ R@+ R@+ R@+ R@+ R@+ R@+ R@+ R@+ R@+ R@+ R@+ R@+ R@+ R@+ R@+ R@+ R@+ R@+ R@+ R@+ R@+ R@+ R@+ R@+ R@+ R@+ R@+ R@+ R@+ R@+ R@+ R@+ R@+ R@+ R@+ R@+ R@+ R@+ R+ R+ R+ RA+ RA+ RA+ RA+ RA+ RA+ RA+ RA+ RA+ RA+ RA+ RA+ RA+ RA+ RA+ RA+ RA+ RA+ RA+ RA+ RA+ RA+ RA+ RA+ RA+ RA+ RA+ RA+ RA+ RA+ RA+ RA+ RA+ RA+ RA+ RA+ RA+ RA+ RA+ RA+ RA+ RA+ RA+ RA+ RA+ R+ R+ R+ R>+ R>+ R>+ R>+ R>+ R>+ R>+ R>+ R>+ R>+ R>+ R>+ R>+ R>+ R>+ R>+ R>+ R>+ R>+ R>+ R>+ R>+ R>+ R>+ R>+ R>+ R>+ R>+ R>+ R>+ R>+ R>+ R>+ R> R> R> R> R> R> R> R> R> R> R> R> R R R R@0 R@0 R@0 R@0 R@0 R@0 R@0 R@0 R@0 R@0 R@0 R@0 R@0 R@0 R@0 R@0 R@0 R@0 R@0 R@0 R@0 R@0 R@0 R@0 R@0 R@0 R@0 R@0 R@0 R@0 R@0 R@0 R@0 R@0 R@0 R@0 R@0 R@0 R@0 R@0 R@0 R@0 R@0 R@0 R@0 R@0 R@0 R@0 R@0 R@0 R@0 R@0 R@0 R@0 R@0 R@0 R@0 R@0 R@0 R@0 R@0 R@0 R@0 R@0 R@0 R@0 R@0 R@0 R@0 R@0 R@0 R@0 R@0 R@0 R@0 R@0 R@0 R@0 R@0 R@0 R@0 R@0 R@0 R@0 R@0 R@0 R@0 R@0 R@0 @0 @0 @0 @0 @0 @0 @0 O@70 O@70 O@70 O@70 O@70 O@70 O@70 O@70 O@70 O@70 O@70 O@70 O@70 O@70 O@70 O@70 O@70 O@70 O@70 O@70 O@70 O@70 O@70 O@70 O@70 O@70 O@70 O@70 O@70 O@70 O@70 O@70 O@70 O@70 O@70 O@70 O@70 O@70 O@70 O@70 O@70 O@70 O@70 O@70 O@70 O@70 O@70 O@70 O@70 O@70 O@70 O@70 O@70 O@70 O@70 O@70 O@70 O@70 O@70 O@70 O@70 O@70 O@70 O@70 O@70 O@70 O@70 O@70 O@70 O@70 O@70 O@70 O@70 O@70 O@70 O@70 O@70 O@70 O@70 O@70 O@70 O7 O7 O7 O7 O7 O7 O7 O7        L<C L<C L<C L<C L<C L<C L<C L<C L<C L<C L<C L<C L<C L<C L<C L<C L<C L<C L<C L<C L<C L<C L<C L<C L<C L<C L<C L<C L<C L<C L<C L<C L<C L<C L<C L<C L<C L<C L<C L<C L<C L<C L<C L<C L<C L<C L<C L<C L<C L<C L<C L<C L<C L<C L<C L<C L<C L<C L<C L<C L<C L<C L<C L<C L<C L<C L<C L<C L<C L<C L<C L<C L<C L<C L<C L<C L<C L<C L<C L<C L<C L<C L<C L<C L<C L<C L<C L<C L<C C C C C C C C HC7 HC7 HC7 HC7 HC7 HC7 HC7 HC7 HC7 HC7 HC7 HC7 HC7 HC7 HC7 HC7 HC7 HC7 HC7 HC7 HC7 HC7 HC7 HC7 HC7 HC7 HC7 HC7 HC7 HC7 HC7 HC7 HC7 HC7 HC7 HC7 HC7 HC7 HC7 HC7 HC7 HC7 HC7 HC7 HC7 HC7 HC7 HC7 HC7 HC7 HC7 HC7 HC7 HC7 HC7 HC7 HC7 HC7 HC7 HC7 HC7 HC7 HC7 HC7 HC7 HC7 HC7 HC7 HC7 HC7 HC7 HC7 HC7 HC7 HC7 HC7 HC7 HC7 HC7 HC7 HC7 H7 H7 H7 H7 H7 H7 H7 H7        D4H0 D4H0 D4H0 D4H0 D4H0 D4H0 D4H0 D4H0 D4H0 D4H0 D4H0 D4H0 D4H0 D4H0 D4H0 D4H0 D4H0 D4H0 D4H0 D4H0 D4H0 D4H0 D4H0 D4H0 D4H0 D4H0 D4H0 D4H0 D4H0 D4H0 D4H0 D4H0 D4H0 D4H0 D4H0 D4H0 D4H0 D4H0 D4H0 D4H0 D4H0 D4H0 D4H0 D4H0 D4H0 D4H0 D4H0 D4H0 D4H0 D4H0 D4H0 D4H0 D4H0 D4H0 D4H0 D4H0 D4H0 D4H0 D4H0 D4H0 D4H0 D4H0 D4H0 D4H0 D4H0 D4H0 D4H0 D4H0 D4H0 D4H0 D4H0 D4H0 D4H0 D4H0 D4H0 D4H0 D4H0 D4H0 D4H0 D4H0 D4H0 D4H0 D4H0 D4H0 D4H0 D4H0 D4H0 D4H0 D4H0 H0 H0 H0 H0 H0 H0 H0 F2H0 F2H0 F2H0 F2H0 F2H0 F2H0 F2H0 F2H0 F2H0 F2H0 F2H0 F2H0 F2H0 F2H0 F2H0 F2H0 F2H0 F2H0 F2H0 F2H0 F2H0 F2H0 F2H0 F2H0 F2H0 F2H0 F2H0 F2H0 F2H0 F2H0 F2H0 F2H0 F2H0 F2H0 F2H0 F2H0 F2H0 F2H0 F2H0 F2H0 F2H0 F2H0 F2H0 F2H0 F2H0 H0 H0 H0 C0H0 C0H0 C0H0 C0H0 C0H0 C0H0 C0H0 C0H0 C0H0 C0H0 C0H0 C0H0 C0H0 C0H0 C0H0 C0H0 C0H0 C0H0 C0H0 C0H0 C0H0 C0H0 C0H0 C0H0 C0H0 C0H0 C0H0 C0H0 C0H0 C0H0 C0H0 C0H0 C0H0 C0H C0H C0H C0H C0H C0H C0H C0H C0H C0H C0H C0H H H H DH85 DH85 DH85 DH85 DH85 DH85 DH85 DH85 DH85 DH85 DH85 DH85 DH85 DH85 DH85 DH85 DH85 DH85 DH85 DH85 DH85 DH85 DH85 DH85 DH85 DH85 DH85 DH85 DH85 DH85 DH85 DH85 DH85 DH85 DH85 DH85 DH85 DH85 DH85 DH85 DH85 DH85 DH85 DH85 DH85 DH85 DH85 DH85 DH85 DH85 DH85 DH85 DH85 DH85 DH85 DH85 DH85 DH85 DH85 DH85 DH85 DH85 DH85 DH85 DH85 DH85 DH85 DH85 DH85 DH85 DH85 DH85 DH85 DH85 DH85 DH85 DH85 DH85 DH85 DH85 DH85 DH85 DH85 DH85 DH85 DH85 DH85 DH85 DH85 D85 D85 D85 D85 D85 D85 D85 D8M5 D8M5 D8M5 D8M5 D8M5 D8M5 D8M5 D8M5 D8M5 D8M5 D8M5 D8M5 D8M5 D8M5 D8M5 D8M5 D8M5 D8M5 D8M5 D8M5 D8M5 D8M5 D8M5 D8M5 D8M5 D8M5 D8M5 D8M5 D8M5 D8M5 D8M5 D8M5 D8M5 D8M5 D8M5 D8M5 D8M5 D8M5 D8M5 D8M5 D8M5 D8M5 D8M5 D8M5 D8M5 D8M5 D8M5 D8M5 D8M5 D8M5 D8M5 D8M5 D8M5 D8M5 D8M5 D8M5 D8M5 D8M5 D8M5 D8M5 D8M5 D8M5 D8M5 D8M5 D8M5 D8M5 D8M5 D8M5 D8M5 D8M5 D8M5 D8M5 D8M5 D8M5 D8M5 D8M5 D8M5 D8M5 D8M5 D8M5 D8M5 M M M M M M M M        FT7 FT7 FT7 FT7 FT7 FT7 FT7 FT7 FT7 FT7 FT7 FT7 FT7 FT7 FT7 FT7 FT7 FT7 FT7 FT7 FT7 FT7 FT7 FT7 FT7 FT7 FT7 FT7 FT7 FT7 FT7 FT7 FT7 FT7 FT7 FT7 FT7 FT7 FT7 FT7 FT7 FT7 FT7 FT7 FT7 FT7 FT7 FT7 FT7 FT7 FT7 FT7 FT7 FT7 FT7 FT7 FT7 FT7 FT7 FT7 FT7 FT7 FT7 FT7 FT7 FT7 FT7 FT7 FT7 FT7 FT7 FT7 FT7 FT7 FT7 FT7 FT7 FT7 FT7 FT7 FT7 FT7 FT7 FT7 FT7 FT7 FT7 FT7 FT7 F7 F7 F7 F7 F7 F7 F7 FM7 FM7 FM7 FM7 FM7 FM7 FM7 FM7 FM7 FM7 FM7 FM7 FM7 FM7 FM7 FM7 FM7 FM7 FM7 FM7 FM7 FM7 FM7 FM7 FM7 FM7 FM7 FM7 FM7 FM7 FM7 FM7 FM7 FM7 FM7 FM7 FM7 FM7 FM7 FM7 FM7 FM7 FM7 FM7 FM7 FM7 FM7 FM7 FM7 FM7 FM7 FM7 FM7 FM7 FM7 FM7 FM7 FM7 FM7 FM7 FM7 FM7 FM7 FM7 FM7 FM7 FM7 FM7 FM7 FM7 FM7 FM7 FM7 FM7 FM7 FM7 FM7 FM7 FM7 FM7 FM7 M M M M M M M M        HK9 HK9 HK9 HK9 HK9 HK9 HK9 HK9 HK9 HK9 HK9 HK9 HK9 HK9 HK9 HK9 HK9 HK9 HK9 HK9 HK9 HK9 HK9 HK9 HK9 HK9 HK9 HK9 HK9 HK9 HK9 HK9 HK9 HK9 HK9 HK9 HK9 HK9 HK9 HK9 HK9 HK9 HK9 HK9 HK9 HK9 HK9 HK9 HK9 HK9 HK9 HK9 HK9 HK9 HK9 HK9 HK9 HK9 HK9 HK9 HK9 HK9 HK9 HK9 HK9 HK9 HK9 HK9 HK9 HK9 HK9 HK9 HK9 HK9 HK9 HK9 HK9 HK9 HK9 HK9 HK9 HK9 HK9 HK9 HK9 HK9 HK9 HK9 HK9 H9 H9 H9 H9 H9 H9 H9 HI9 HI9 HI9 HI9 HI9 HI9 HI9 HI9 HI9 HI9 HI9 HI9 HI9 HI9 HI9 HI9 HI9 HI9 HI9 HI9 HI9 HI9 HI9 HI9 HI9 HI9 HI9 HI9 HI9 HI9 HI9 HI9 HI9 HI9 HI9 HI9 HI9 HI9 HI9 HI9 HI9 HI9 HI9 HI9 HI9 H9 H9 H9 HH9 HH9 HH9 HH9 HH9 HH9 HH9 HH9 HH9 HH9 HH9 HH9 HH9 HH9 HH9 HH9 HH9 HH9 HH9 HH9 HH9 HH9 HH9 HH9 HH9 HH9 HH9 HH9 HH9 HH9 HH9 HH9 HH9 HH HH HH HH HH HH HH HH HH HH HH HH H H H HI: HI: HI: HI: HI: HI: HI: HI: HI: HI: HI: HI: HI: HI: HI: HI: HI: HI: HI: HI: HI: HI: HI: HI: HI: HI: HI: HI: HI: HI: HI: HI: HI: HI: HI: HI: HI: HI: HI: HI: HI: HI: HI: HI: HI: HI: HI: HI: HI: HI: HI: HI: HI: HI: HI: HI: HI: HI: HI: HI: HI: HI: HI: HI: HI: HI: HI: HI: HI: HI: HI: HI: HI: HI: HI: HI: HI: HI: HI: HI: HI: HI: HI: HI: HI: HI: HI: HI: HI: HI: HI: HI: HI: HI: HI: HI: HIA: HIA: HIA: HIA: HIA: HIA: HIA: HIA: HIA: HIA: HIA: HIA: HIA: HIA: HIA: HIA: HIA: HIA: HIA: HIA: HIA: HIA: HIA: HIA: HIA: HIA: HIA: HIA: HIA: HIA: HIA: HIA: HIA: HIA: HIA: HIA: HIA: HIA: HIA: HIA: HIA: HIA: HIA: HIA: HIA: HIA: HIA: HIA: HIA: HIA: HIA: HIA: HIA: HIA: HIA: HIA: HIA: HIA: HIA: HIA: HIA: HIA: HIA: HIA: HIA: HIA: HIA: HIA: HIA: HIA: HIA: HIA: HIA: HIA: HIA: HIA: HIA: HIA: HIA: HIA: HIA: A A A A A A A A        AF AF AF AF AF AF AF AF AF AF AF AF AF AF AF AF AF AF AF AF AF AF AF AF AF AF AF AF AF AF AF AF AF AF AF AF AF AF AF AF AF AF AF AF AF AF AF AF AF AF AF AF AF AF AF AF AF AF AF AF AF AF AF AF AF AF AF AF AF AF AF AF AF AF AF AF AF AF AF AF AF AF AF AF AF AF AF AF AF A A A A A A A AIA AIA AIA AIA AIA AIA AIA AIA AIA AIA AIA AIA AIA AIA AIA AIA AIA AIA AIA AIA AIA AIA AIA AIA AIA AIA AIA AIA AIA AIA AIA AIA AIA AIA AIA AIA AIA AIA AIA AIA AIA AIA AIA AIA AIA AIA AIA AIA AIA AIA AIA AIA AIA AIA AIA AIA AIA AIA AIA AIA AIA AIA AIA AIA AIA AIA AIA AIA AIA AIA AIA AIA AIA AIA AIA AIA AIA AIA AIA AIA AIA IA IA IA IA IA IA IA IA        FM= FM= FM= FM= FM= FM= FM= FM= FM= FM= FM= FM= FM= FM= FM= FM= FM= FM= FM= FM= FM= FM= FM= FM= FM= FM= FM= FM= FM= FM= FM= FM= FM= FM= FM= FM= FM= FM= FM= FM= FM= FM= FM= FM= FM= FM= FM= FM= FM= FM= FM= FM= FM= FM= FM= FM= FM= FM= FM= FM= FM= FM= FM= FM= FM= FM= FM= FM= FM= FM= FM= FM= FM= FM= FM= FM= FM= FM= FM= FM= FM= FM= FM= FM= FM= FM= FM= FM= FM= F F F F F F F F<R F<R F<R F<R F<R F<R F<R F<R F<R F<R F<R F<R F<R F<R F<R F<R F<R F<R F<R F<R F<R F<R F<R F<R F<R F<R F<R F<R F<R F<R F<R F<R F<R F<R F<R F<R F<R F<R F<R F<R F<R F<R F<R F<R F<R FR FR FR FR: FR: FR: FR: FR: FR: FR: FR: FR: FR: FR: FR: FR: FR: FR: FR: FR: FR: FR: FR: FR: FR: FR: FR: FR: FR: FR: FR: FR: FR: FR: FR: FR: FR: FR: FR: FR: FR: FR: FR: FR: F: F: F: F: F F F FIO@ FIO@ FIO@ FIO@ FIO@ FIO@ FIO@ FIO@ FIO@ FIO@ FIO@ FIO@ FIO@ FIO@ FIO@ FIO@ FIO@ FIO@ FIO@ FIO@ FIO@ FIO@ FIO@ FIO@ FIO@ FIO@ FIO@ FIO@ FIO@ FIO@ FIO@ FIO@ FIO@ FIO@ FIO@ FIO@ FIO@ FIO@ FIO@ FIO@ FIO@ FIO@ FIO@ FIO@ FIO@ FIO@ FIO@ FIO@ FIO@ FIO@ FIO@ FIO@ FIO@ FIO@ FIO@ FIO@ FIO@ FIO@ FIO@ FIO@ FIO@ FIO@ FIO@ FIO@ FIO@ FIO@ FIO@ FIO@ FIO@ FIO@ FIO@ FIO@ FIO@ FIO@ FIO@ FIO@ FIO@ FIO@ FIO@ FIO@ FIO@ FIO@ FIO@ FIO@ FIO@ FIO@ FIO@ FIO@ FIO@ O O O O O O O HLO< HLO< HLO< HLO< HLO< HLO< HLO< HLO< HLO< HLO< HLO< HLO< HLO< HLO< HLO< HLO< HLO< HLO< HLO< HLO< HLO< HLO< HLO< HLO< HLO< HLO< HLO< HLO< HLO< HLO< HLO< HLO< HLO< HLO< HLO< HLO< HLO< HLO< HLO< HLO< HLO< HLO< HLO< HLO< HLO< HLO< HLO< HLO< HLO< HLO< HLO< HLO< HLO< HLO< HLO< HLO< HLO< HLO< HLO< HLO< HLO< HLO< HLO< HLO< HLO< HLO< HLO< HLO< HLO< HLO< HLO< HLO< HLO< HLO< HLO< HLO< HLO< HLO< HLO< HLO< HLO< HLO< HLO< HLO< HLO< HLO< HLO< HLO< HLO< O O O O O O O DOHA DOHA DOHA DOHA DOHA DOHA DOHA DOHA DOHA DOHA DOHA DOHA DOHA DOHA DOHA DOHA DOHA DOHA DOHA DOHA DOHA DOHA DOHA DOHA DOHA DOHA DOHA DOHA DOHA DOHA DOHA DOHA DOHA DOHA DOHA DOHA DOHA DOHA DOHA DOHA DOHA DOHA DOHA DOHA DOHA DOHA DOHA DOHA DOHA DOHA DOHA DOHA DOHA DOHA DOHA DOHA DOHA DOHA DOHA DOHA DOHA DOHA DOHA DOHA DOHA DOHA DOHA DOHA DOHA DOHA DOHA DOHA DOHA DHA DHA DHA DHA DHA DHA DHA DHA DHA DHA DHA DHA DHA DHA DHA DHA DH DH DH DH DH DH DH DLH< DLH< DLH< DLH< DLH< DLH< DLH< DLH< DLH< DLH< DLH< DLH< DLH< DLH< DLH< DLH< DLH< DLH< DLH< DLH< DLH< DLH< DLH< DLH< DLH< DLH< DLH< DLH< DLH< DLH< DLH< DLH< DLH< DLH< DLH< DLH< DLH< DLH< DLH< DLH< DLH< DLH< DLH< DLH< DLH< DLH< DLH< DLH< DLH< DLH< DLH< DLH< DLH< DLH< DLH< DLH< DLH< DLH< DLH< DLH< DLH< DLH< DLH< DLH< DLH< DLH< DLH< DLH< DLH< DLH< DLH< DLH< DLH< DLH< DLH< DLH< DLH< DLH< DLH< DLH< DLH< DLH< DLH< DLH< DLH< DLH< DLH< DLH< DLH< DH DH DH DH DH DH DH DMH8 DMH8 DMH8 DMH8 DMH8 DMH8 DMH8 DMH8 DMH8 DMH8 DMH8 DMH8 DMH8 DMH8 DMH8 DMH8 DMH8 DMH8 DMH8 DMH8 DMH8 DMH8 DMH8 DMH8 DMH8 DMH8 DMH8 DMH8 DMH8 DMH8 DMH8 DMH8 DMH8 DMH8 DMH8 DMH8 DMH8 DMH8 DMH8 DMH8 DMH8 DMH8 DMH8 DMH8 DMH8 MH8 MH8 MH8 AMH8 AMH8 AMH8 AMH8 AMH8 AMH8 AMH8 AMH8 AMH8 AMH8 AMH8 AMH8 AMH8 AMH8 AMH8 AMH8 AMH8 AMH8 AMH8 AMH8 AMH8 AMH8 AMH8 AMH8 AMH8 AMH8 AMH8 AMH8 AMH8 AMH8 AMH8 AMH8 AMH8 AMH8 AMH8 AMH8 AMH8 AMH8 AMH8 AMH8 AMH8 A A A A    @SJ7 @SJ7 @SJ7 @SJ7 @SJ7 @SJ7 @SJ7 @SJ7 @SJ7 @SJ7 @SJ7 @SJ7 @SJ7 @SJ7 @SJ7 @SJ7 @SJ7 @SJ7 @SJ7 @SJ7 @SJ7 @SJ7 @SJ7 @SJ7 @SJ7 @SJ7 @SJ7 @SJ7 @SJ7 @SJ7 @SJ7 @SJ7 @SJ7 @SJ7 @SJ7 @SJ7 @SJ7 @SJ7 @SJ7 @SJ7 @SJ7 @SJ7 @SJ7 @SJ7 @SJ7 SJ SJ SJ ASJ5 ASJ5 ASJ5 ASJ5 ASJ5 ASJ5 ASJ5 ASJ5 ASJ5 ASJ5 ASJ5 ASJ5 ASJ5 ASJ5 ASJ5 ASJ5 ASJ5 ASJ5 ASJ5 ASJ5 ASJ5 ASJ5 ASJ5 ASJ5 ASJ5 ASJ5 ASJ5 ASJ5 ASJ5 ASJ5 ASJ5 ASJ5 ASJ5 ASJ5 ASJ5 ASJ5 ASJ5 ASJ5 ASJ5 ASJ5 ASJ5 A5 A5 A5 A5    CTL< CTL< CTL< CTL< CTL< CTL< CTL< CTL< CTL< CTL< CTL< CTL< CTL< CTL< CTL< CTL< CTL< CTL< CTL< CTL< CTL< CTL< CTL< CTL< CTL< CTL< CTL< CTL< CTL< CTL< CTL< CTL< CTL< CTL< CTL< CTL< CTL< CTL< CTL< CTL< CTL< CTL< CTL< CTL< CTL< CTL< CTL< CTL< CTL< CTL< CTL< CTL< CTL< CTL< CTL< CTL< CTL< CTL< CTL< CTL< CTL< CTL< CTL< CTL< CTL< CTL< CTL< CTL< CTL< CTL< CTL< CTL< CTL< CTL< CTL< CTL< CTL< CTL< CTL< CTL< CTL< CTL< CTL< CTL< CTL< CTL< CTL< CTL< CTL< CL< CL< CL< CL< CL< CL< CL< CLH< CLH< CLH< CLH< CLH< CLH< CLH< CLH< CLH< CLH< CLH< CLH< CLH< CLH< CLH< CLH< CLH< CLH< CLH< CLH< CLH< CLH< CLH< CLH< CLH< CLH< CLH< CLH< CLH< CLH< CLH< CLH< CLH< CLH< CLH< CLH< CLH< CLH< CLH< CLH< CLH< CLH< CLH< CLH< CLH< CLH< CLH< CLH< CLH< CLH< CLH< CLH< CLH< CLH< CLH< CLH< CLH< CLH< CLH< CLH< CLH< CLH< CLH< CLH< CLH< CLH< CLH< CLH< CLH< CLH< CLH< CLH< CLH< CLH< CLH< CLH< CLH< CLH< CLH< CLH< CLH< CH CH CH CH CH CH CH CH C C C C C C C CO4 CO4 CO4 CO4 CO4 CO4 CO4 CO4 CO4 CO4 CO4 CO4 CO4 CO4 CO4 CO4 CO4 CO4 CO4 CO4 CO4 CO4 CO4 CO4 CO4 CO4 CO4 CO4 CO4 CO4 CO4 CO4 CO4 CO4 CO4 CO4 CO4 CO4 CO4 CO4 CO4 CO4 CO4 CO4 CO4 CO4 CO4 CO4 CO4 CO4 CO4 CO4 CO4 CO4 CO4 CO4 CO4 CO4 CO4 CO4 CO4 CO4 CO4 CO4 CO4 CO4 CO4 CO4 CO4 CO4 CO4 CO4 CO4 CO4 CO4 CO4 CO4 CO4 CO4 CO4 CO4 CO4 CO4 CO4 CO4 CO4 CO4 CO4 CO4 CO4 CO4 CO4 CO4 CO4 CO4 CO4 CHO4 CHO4 CHO4 CHO4 CHO4 CHO4 CHO4 CHO4 CHO4 CHO4 CHO4 CHO4 CHO4 CHO4 CHO4 CHO4 CHO4 CHO4 CHO4 CHO4 CHO4 CHO4 CHO4 CHO4 CHO4 CHO4 CHO4 CHO4 CHO4 CHO4 CHO4 CHO4 CHO4 CHO4 CHO4 CHO4 CHO4 CHO4 CHO4 CHO4 CHO4 CHO4 CHO4 CHO4 CHO4 CHO4 CHO4 CHO4 CHO4 CHO4 CHO4 CHO4 CHO4 CHO4 CHO4 CHO4 CHO4 CHO4 CHO4 CHO4 CHO4 CHO4 CHO4 CHO4 CHO4 CHO4 HO4 HO4 HO4 HO4 HO4 HO4 HO4 HO4 HO4 HO4 HO4 HO4 HO4 HO4 HO4 HO HO HO HO HO HO HO HO O O O O O O O FO0 FO0 FO0 FO0 FO0 FO0 FO0 FO0 FO0 FO0 FO0 FO0 FO0 FO0 FO0 FO0 FO0 FO0 FO0 FO0 FO0 FO0 FO0 FO0 FO0 FO0 FO0 FO0 FO0 FO0 FO0 FO0 FO0 FO0 FO0 FO0 FO0 FO0 FO0 FO0 FO0 FO0 FO0 FO0 FO0 FO0 FO0 FO0 FO0 FO0 FO0 FO0 FO0 FO0 FO0 FO0 FO0 FO0 FO0 FO0 FO0 FO0 FO0 FO0 FO0 FO0 FO0 FO0 FO0 FO0 FO0 FO0 FO0 FO0 FO0 FO0 FO0 FO0 FO0 FO0 FO0 FO0 FO0 FO0 FO0 FO0 FO0 FO0 FO0 O0 O0 O0 O0 O0 O0 O0 DO0 DO0 DO0 DO0 DO0 DO0 DO0 DO0 DO0 DO0 DO0 DO0 DO0 DO0 DO0 DO0 DO0 DO0 DO0 DO0 DO0 DO0 DO0 DO0 DO0 DO0 DO0 DO0 DO0 DO0 DO0 DO0 DO0 DO0 DO0 DO0 DO0 DO0 DO0 DO0 DO0 DO0 DO0 DO0 DO0 O0 O0 O0 CO0 CO0 CO0 CO0 CO0 CO0 CO0 CO0 CO0 CO0 CO0 CO0 CO0 CO0 CO0 CO0 CO0 CO0 CO0 CO0 CO0 CO0 CO0 CO0 CO0 CO0 CO0 CO0 CO0 CO0 CO0 CO0 CO0 CO CO CO CO CO CO CO CO CO CO CO CO O O O O5 O5 O5 O5 O5 O5 O5 O5 O5 O5 O5 O5 O5 O5 O5 O5 O5 O5 O5 O5 O5 O5 O5 O5 O5 O5 O5 O5 O5 O5 O5 O5 O5 O5 O5 O5 O5 O5 O5 O5 O5 O5 O5 O5 O5 O5 O5 O5 O5 O5 O5 O5 O5 O5 O5 O5 O5 O5 O5 O5 O5 O5 O5 O5 O5 O5 O5 O5 O5 O5 O5 O5 O5 O5 O5 O5 O5 O5 O5 O5 O5 O5 O5 O5 O5 O5 O5 O5 O5 5 5 5 5 5 5 5 H5 H5 H5 H5 H5 H5 H5 H5 H5 H5 H5 H5 H5 H5 H5 H5 H5 H5 H5 H5 H5 H5 H5 H5 H5 H5 H5 H5 H5 H5 H5 H5 H5 H5 H5 H5 H5 H5 H5 H5 H5 H5 H5 H5 H5 H5 H5 H5 H5 H5 H5 H5 H5 H5 H5 H5 H5 H5 H5 H5 H5 H5 H5 H5 H5 H5 H5 H5 H5 H5 H5 H5 H5 H5 H5 H5 H5 H5 H5 H5 H5 H H H H H H H H        HM, HM, HM, HM, HM, HM, HM, HM, HM, HM, HM, HM, HM, HM, HM, HM, HM, HM, HM, HM, HM, HM, HM, HM, HM, HM, HM, HM, HM, HM, HM, HM, HM, HM, HM, HM, HM, HM, HM, HM, HM, HM, HM, HM, HM, HM, HM, HM, HM, HM, HM, HM, HM, HM, HM, HM, HM, HM, HM, HM, HM, HM, HM, HM, HM, HM, HM, HM, HM, HM, HM, HM, HM, HM, HM, HM, HM, HM, HM, HM, HM, HM, HM, HM, HM, HM, HM, HM, HM, H, H, H, H, H, H, H, HH, HH, HH, HH, HH, HH, HH, HH, HH, HH, HH, HH, HH, HH, HH, HH, HH, HH, HH, HH, HH, HH, HH, HH, HH, HH, HH, HH, HH, HH, HH, HH, HH, HH, HH, HH, HH, HH, HH, HH, HH, HH, HH, HH, HH, HH, HH, HH, HH, HH, HH, HH, HH, HH, HH, HH, HH, HH, HH, HH, HH, HH, HH, HH, HH, HH, HH, HH, HH, HH, HH, HH, HH, HH, HH, HH, HH, HH, HH, HH, HH, H H H H H H H H        JDD) JDD) JDD) JDD) JDD) JDD) JDD) JDD) JDD) JDD) JDD) JDD) JDD) JDD) JDD) JDD) JDD) JDD) JDD) JDD) JDD) JDD) JDD) JDD) JDD) JDD) JDD) JDD) JDD) JDD) JDD) JDD) JDD) JDD) JDD) JDD) JDD) JDD) JDD) JDD) JDD) JDD) JDD) JDD) JDD) JDD) JDD) JDD) JDD) JDD) JDD) JDD) JDD) JDD) JDD) JDD) JDD) JDD) JDD) JDD) JDD) JDD) JDD) JDD) JDD) JDD) JDD) JDD) JDD) JDD) JDD) JDD) JDD) JDD) JDD) JDD) JDD) JDD) JDD) JDD) JDD) JDD) JDD) JDD) JDD) JDD) JDD) JDD) JDD) D) D) D) D) D) D) D) KCD) KCD) KCD) KCD) KCD) KCD) KCD) KCD) KCD) KCD) KCD) KCD) KCD) KCD) KCD) KCD) KCD) KCD) KCD) KCD) KCD) KCD) KCD) KCD) KCD) KCD) KCD) KCD) KCD) KCD) KCD) KCD) KCD) KCD) KCD) KCD) KCD) KCD) KCD) KCD) KCD) KCD) KCD) KCD) KCD) KD) KD) KD) KAD) KAD) KAD) KAD) KAD) KAD) KAD) KAD) KAD) KAD) KAD) KAD) KAD) KAD) KAD) KAD) KAD) KAD) KAD) KAD) KAD) KAD) KAD) KAD) KAD) KAD) KAD) KAD) KAD) KAD) KAD) KAD) KAD) KAD KAD KAD KAD KAD KAD KAD KAD AD AD AD AD D D D JDJ. JDJ. JDJ. JDJ. JDJ. JDJ. JDJ. JDJ. JDJ. JDJ. JDJ. JDJ. JDJ. JDJ. JDJ. JDJ. JDJ. JDJ. JDJ. JDJ. JDJ. JDJ. JDJ. JDJ. JDJ. JDJ. JDJ. JDJ. JDJ. JDJ. JDJ. JDJ. JDJ. JDJ. JDJ. JDJ. JDJ. JDJ. JDJ. JDJ. JDJ. JDJ. JDJ. JDJ. JDJ. JDJ. JDJ. JDJ. JDJ. JDJ. JDJ. JDJ. JDJ. JDJ. JDJ. JDJ. JDJ. JDJ. JDJ. JDJ. JDJ. JDJ. JDJ. JDJ. JDJ. JDJ. JDJ. JDJ. JDJ. JDJ. JDJ. JDJ. JDJ. JDJ. JDJ. JDJ. JDJ. JDJ. JDJ. JDJ. JDJ. JDJ. JDJ. JDJ. JDJ. JDJ. JDJ. JDJ. JDJ. JJ. JJ. JJ. JJ. JJ. JJ. JJ. JJA. JJA. JJA. JJA. JJA. JJA. JJA. JJA. JJA. JJA. JJA. JJA. JJA. JJA. JJA. JJA. JJA. JJA. JJA. JJA. JJA. JJA. JJA. JJA. JJA. JJA. JJA. JJA. JJA. JJA. JJA. JJA. JJA. JJA. JJA. JJA. JJA. JJA. JJA. JJA. JJA. JJA. JJA. JJA. JJA. JJA. JJA. JJA. JJA. JJA. JJA. JJA. JJA. JJA. JJA. JJA. JJA. JJA. JJA. JJA. JJA. JJA. JJA. JJA. JJA. JJA. JJA. JJA. JJA. JJA. JJA. JJA. JJA. JJA. JJA. JJA. JJA. JJA. JJA. JJA. JJA. A. A. A. A. A. A. A. A. . . . . . . . OFI. OFI. OFI. OFI. OFI. OFI. OFI. OFI. OFI. OFI. OFI. OFI. OFI. OFI. OFI. OFI. OFI. OFI. OFI. OFI. OFI. OFI. OFI. OFI. OFI. OFI. OFI. OFI. OFI. OFI. OFI. OFI. OFI. OFI. OFI. OFI. OFI. OFI. OFI. OFI. OFI. OFI. OFI. OFI. OFI. OFI. OFI. OFI. OFI. OFI. OFI. OFI. OFI. OFI. OFI. OFI. OFI. OFI. OFI. OFI. OFI. OFI. OFI. OFI. OFI. OFI. OFI. OFI. OFI. OFI. OFI. OFI. OFI. OFI. OFI. OFI. OFI. OFI. OFI. OFI. OFI. OFI. OFI. OFI. OFI. OFI. OFI. OFI. OFI. OI. OI. OI. OI. OI. OI. OI. OAI. OAI. OAI. OAI. OAI. OAI. OAI. OAI. OAI. OAI. OAI. OAI. OAI. OAI. OAI. OAI. OAI. OAI. OAI. OAI. OAI. OAI. OAI. OAI. OAI. OAI. OAI. OAI. OAI. OAI. OAI. OAI. OAI. OAI. OAI. OAI. OAI. OAI. OAI. OAI. OAI. OAI. OAI. OAI. OAI. OAI. OAI. OAI. OAI. OAI. OAI. OAI. OAI. OAI. OAI. OAI. OAI. OAI. OAI. OAI. OAI. OAI. OAI. OAI. OAI. OAI. OAI. OAI. OAI. OAI. OAI. OAI. OAI. OAI. OAI. OAI. OAI. OAI. OAI. OAI. OAI. AI. AI. AI. AI. AI. AI. AI. AI. I. I. I. I. I. I. I. P=I. P=I. P=I. P=I. P=I. P=I. P=I. P=I. P=I. P=I. P=I. P=I. P=I. P=I. P=I. P=I. P=I. P=I. P=I. P=I. P=I. P=I. P=I. P=I. P=I. P=I. P=I. P=I. P=I. P=I. P=I. P=I. P=I. P=I. P=I. P=I. P=I. P=I. P=I. P=I. P=I. P=I. P=I. P=I. P=I. P=I. P=I. P=I. P=I. P=I. P=I. P=I. P=I. P=I. P=I. P=I. P=I. P=I. P=I. P=I. P=I. P=I. P=I. P=I. P=I. P=I. P=I. P=I. P=I. P=I. P=I. P=I. P=I. P=I. P=I. P=I. P=I. P=I. P=I. P=I. P=I. P=I. P=I. P=I. P=I. P=I. P=I. P=I. P=I. I. I. I. I. I. I. I. R<I. R<I. R<I. R<I. R<I. R<I. R<I. R<I. R<I. R<I. R<I. R<I. R<I. R<I. R<I. R<I. R<I. R<I. R<I. R<I. R<I. R<I. R<I. R<I. R<I. R<I. R<I. R<I. R<I. R<I. R<I. R<I. R<I. R<I. R<I. R<I. R<I. R<I. R<I. R<I. R<I. R<I. R<I. R<I. R<I. RI. RI. RI. RI:. RI:. RI:. RI:. RI:. RI:. RI:. RI:. RI:. RI:. RI:. RI:. RI:. RI:. RI:. RI:. RI:. RI:. R:. R:. R:. R:. R:. R:. R:. R:. R:. R:. R:. R:. R:. R:. R:. R:. R:. R:. R:. R:. R:. R:. R:. :. :. :. :. . . . HH7. HH7. HH7. HH7. HH7. HH7. HH7. HH7. HH7. HH7. HH7. HH7. HH7. HH7. HH7. HH7. HH7. HH7. HH7. HH7. HH7. HH7. HH7. HH7. HH7. HH7. HH7. HH7. HH7. HH7. HH7. HH7. HH7. HH7. HH7. HH7. HH7. HH7. HH7. HH7. HH7. HH7. HH7. HH7. HH7. HH7. HH7. HH7. HH7. HH7. HH7. HH7. HH7. HH7. HH7. HH7. HH7. HH7. HH7. HH7. HH7. HH7. HH7. HH7. HH7. HH7. HH7. HH7. HH7. HH7. HH7. HH7. HH7. HH7. HH7. HH7. HH7. HH7. HH7. HH7. HH7. HH7. HH7. HH7. HH7. HH7. HH7. HH7. HH7. H7. H7. H7. H7. H7. H7. H7. H7C. H7C. H7C. H7C. H7C. H7C. H7C. H7C. H7C. H7C. H7C. H7C. H7C. H7C. H7C. H7C. H7C. H7C. H7C. H7C. H7C. H7C. H7C. H7C. H7C. H7C. H7C. H7C. H7C. H7C. H7C. H7C. H7C. H7C. H7C. H7C. H7C. H7C. H7C. H7C. H7C. H7C. H7C. H7C. H7C. H7C. H7C. H7C. H7C. H7C. H7C. H7C. H7C. H7C. H7C. H7C. H7C. H7C. H7C. H7C. H7C. H7C. H7C. H7C. H7C. H7C. H7C. H7C. H7C. H7C. H7C. H7C. H7C. H7C. H7C. H7C. H7C. H7C. H7C. H7C. H7C. HC HC HC HC HC HC HC HC H H H H H H H HH5,8 HH5,8 HH5,8 HH5,8 HH5,8 HH5,8 HH5,8 HH5,8 HH5,8 HH5,8 HH5,8 HH5,8 HH5,8 HH5,8 HH5,8 HH5,8 HH5,8 HH5,8 HH5,8 HH5,8 HH5,8 HH5,8 HH5,8 HH5,8 HH5,8 HH5,8 HH5,8 HH5,8 HH5,8 HH5,8 HH5,8 HH5,8 HH5,8 HH5,8 HH5,8 HH5,8 HH5,8 HH5,8 HH5,8 HH5,8 HH5,8 HH5,8 HH5,8 HH5,8 HH5,8 HH5,8 HH5,8 HH5,8 HH5,8 HH5,8 HH5,8 HH5,8 HH5,8 HH5,8 HH5,8 HH5,8 HH5,8 HH5,8 HH5,8 HH5,8 HH5,8 HH5,8 HH5,8 HH5,8 HH5,8 HH5,8 HH5,8 HH5,8 HH5,8 HH5,8 HH5,8 HH5,8 HH5,8 H5,8 H5,8 H5,8 H5,8 H5,8 H5,8 H5,8 H5,8 H5,8 H5,8 H5,8 H5,8 H5,8 H5,8 H5,8 H5,8 5,8 5,8 5,8 5,8 5,8 5,8 5,8 M5D,8 M5D,8 M5D,8 M5D,8 M5D,8 M5D,8 M5D,8 M5D,8 M5D,8 M5D,8 M5D,8 M5D,8 M5D,8 M5D,8 M5D,8 M5D,8 M5D,8 M5D,8 M5D,8 M5D,8 M5D,8 M5D,8 M5D,8 M5D,8 M5D,8 M5D,8 M5D,8 M5D,8 M5D,8 M5D,8 M5D,8 M5D,8 M5D,8 M5D,8 M5D,8 M5D,8 M5D,8 M5D,8 M5D,8 M5D,8 M5D,8 M5D,8 M5D,8 M5D,8 M5D,8 M5D,8 M5D,8 M5D,8 M5D,8 M5D,8 M5D,8 M5D,8 M5D,8 M5D,8 M5D,8 M5D,8 M5D,8 M5D,8 M5D,8 M5D,8 M5D,8 M5D,8 M5D,8 M5D,8 M5D,8 M5D,8 M5D,8 M5D,8 M5D,8 M5D,8 M5D,8 M5D,8 M5D,8 M5D,8 M5D,8 M5D,8 M5D,8 M5D,8 M5D,8 M5D,8 M5D,8 MD8 MD8 MD8 MD8 MD8 MD8 MD8 MD8 8 8 8 8 8 8 8 IB:.: IB:.: IB:.: IB:.: IB:.: IB:.: IB:.: IB:.: IB:.: IB:.: IB:.: IB:.: IB:.: IB:.: IB:.: IB:.: IB:.: IB:.: IB:.: IB:.: IB:.: IB:.: IB:.: IB:.: IB:.: IB:.: IB:.: IB:.: IB:.: IB:.: IB:.: IB:.: IB:.: IB:.: IB:.: IB:.: IB:.: IB:.: IB:.: IB:.: IB:.: IB:.: IB:.: IB:.: IB:.: I:.: I:.: I:.: IA:.: IA:.: IA:.: IA:.: IA:.: IA:.: IA:.: IA:.: IA:.: IA:.: IA:.: IA:.: IA:.: IA:.: IA:.: IA:.: IA:.: IA:.: IA:.: IA:.: IA:.: IA:.: IA:.: IA:.: IA:.: IA:.: IA:.: IA:.: IA:.: IA:.: IA:.: IA:.: IA:.: IA:.: IA:.: IA:.: IA:.: IA:.: IA:.: IA:.: IA:.: IA:.: IA:.: IA:.: IA:.: I:.: I:.: I:.: I@:.: I@:.: I@:.: I@:.: I@:.: I@:.: I@:.: I@:.: I@:.: I@:.: I@:.: I@:.: I@:.: I@:.: I@:.: I@:.: I@:.: I@:.: I@:.: I@:.: I@:.: I@:.: I@:.: I@:.: I@:.: I@:.: I@:.: I@:.: I@:.: I@:.: I@:.: I@:.: I@:.: I@:.: I@:.: I@:.: I@:.: I@:.: I@:.: I@:.: I@:.: I@:.: I@:.: I@:.: I@:.: I:.: I:.: I:.: I:A.: I:A.: I:A.: I:A.: I:A.: I:A.: I:A.: I:A.: I:A.: I:A.: I:A.: I:A.: I:A.: I:A.: I:A.: I:A.: I:A.: I:A.: I:A.: I:A.: I:A.: I:A.: I:A.: I:A.: I:A.: I:A.: I:A.: I:A.: I:A.: I:A.: I:A.: I:A.: I:A.: IA: IA: IA: IA: IA: IA: IA: IA: IA: IA: IA: IA: I: I: I: IF+ IF+ IF+ IF+ IF+ IF+ IF+ IF+ IF+ IF+ IF+ IF+ IF+ IF+ IF+ IF+ IF+ IF+ IF+ IF+ IF+ IF+ IF+ IF+ IF+ IF+ IF+ IF+ IF+ IF+ IF+ IF+ IF+ IF+ IF+ IF+ IF+ IF+ IF+ IF+ IF+ IF+ IF+ IF+ IF+ I+ I+ I+ ID+ ID+ ID+ ID+ ID+ ID+ ID+ ID+ ID+ ID+ ID+ ID+ ID+ ID+ ID+ ID+ ID+ ID+ ID+ ID+ ID+ ID+ ID+ I+ IC+ IC+ IC+ IC+ IC+ IC+ IC+ IC+ IC+ IC+ IC+ IC+ IC+ IC+ IC+ IC+ IC+ C+ C+ C+ C+ C+ C+ + HD=+ HD=+ HD=+ HD=+ HD=+ HD=+ HD=+ HD=+ HD=+ HD=+ HD=+ HD=+ HD=+ HD=+ HD=+ HD=+ HD=+ HD=+ HD=+ HD=+ HD=+ HD=+ HD=+ HD=+ HD=+ HD=+ HD=+ HD=+ HD=+ HD=+ HD=+ HD=+ HD=+ HD=+ HD=+ HD=+ HD=+ HD=+ HD=+ HD=+ HD=+ HD=+ HD=+ HD=+ HD=+ =+ =+ =+ F=A+ F=A+ F=A+ F=A+ F=A+ F=A+ F=A+ F=A+ F=A+ F=A+ F=A+ F=A+ F=A+ F=A+ F=A+ F=A+ F=A+ F=A+ F=A+ F=A+ F=A+ F=A+ F=A+ F=A+ F=A+ F=A+ F=A+ F=A+ F=A+ F=A+ F=A+ F=A+ F=A+ F=A+ F=A+ F=A+ F=A+ F=A+ F=A+ F=A+ F=A+ FA+ FA+ FA+ FA+ + + + DA<+ DA<+ DA<+ DA<+ DA<+ DA<+ DA<+ DA<+ DA<+ DA<+ DA<+ DA<+ DA<+ DA<+ DA<+ DA<+ DA<+ DA<+ DA<+ DA<+ DA<+ DA<+ DA<+ DA<+ DA<+ DA<+ DA<+ DA<+ DA<+ DA<+ DA<+ DA<+ DA<+ DA<+ DA<+ DA<+ DA<+ DA<+ DA<+ DA<+ DA<+ DA<+ DA<+ DA<+ DA<+ DA<+ DA<+ DA<+ DA<+ DA<+ DA<+ DA<+ DA<+ DA<+ DA<+ DA<+ DA<+ DA<+ DA<+ DA<+ DA<+ DA<+ DA<+ DA<+ DA<+ DA<+ DA<+ DA<+ DA<+ DA<+ DA<+ DA<+ DA<+ DA<+ DA<+ DA<+ DA<+ DA<+ DA<+ DA<+ DA<+ DA<+ DA<+ DA<+ DA<+ DA<+ DA<+ DA<+ DA<+ DA<+ DA<+ DA<+ DA<+ DA<+ DA<+ DA<+ DA<+ DA<+ DA<+ DA<+ DA<+ DA<+ DA<+ DA<+ DA<+ DA<+ DA<+ DA<+ DA<+ DA<+ DA<+ DA<+ DA<+ DA<+ DA<+ DA<+ DA<+ DA<+ DA<+ DA<+ DA<+ DA<+ DA<+ DA<+ DA<+ DA<+ DA<+ DA<+ DA<+ DA<+ DA<+ DA<+ DA<+ DA<+ DA<+ DA<+ DA<+ DA<+ DA<+ DA<+ DA<+ DA<+ DA<+ DA<+ DA<+ DA<+ DA<+ DA<+ DA<+ DA<+ DA<+ DA<+ DA<+ DA<+ DA<+ DA<+ DA<+ DA<+ DA<+ DA<+ DA<+ DA<+ DA< DA< DA< DA< DA< DA< DA< DA< DA< DA< DA< DA< DA< DA< DA<                C@<$ C@<$ C@<$ C@<$ C@<$ C@<$ CA<$ CA<$ DA<$ DA<$ DA<$ DA<$ D@<$ D@<$ D@<$ D@<$ C@<$ C@<$ CA<$ CA<$ CA<$ CA<$ CA<$ CA<$ D@<$ D@<$ D@<$ D@<$ D@<$ D@<$ DA<$ DA<$ CA<$ CA<$ CA<$ CA<$ C@<$ C@<$ C@<$ C@<$ D@<$ D@<$ DA<$ DA<$ DA<$ DA<$ DA<$ DA<$ C@<$ C@<$ C@<$ C@<$ C@<$ C@<$ CA<$ CA<$ DA<$ DA<$ DA<$ DA<$ D@<$ D@<$ D@<$ D@<$ C@<$ C@<$ CA<$ CA<$ CA<$ CA<$ CA<$ CA<$ D@<$ D@<$ D@<$ D@<$ D@<$ D@<$ DA<$ DA<$ CA<$ CA<$ CA<$ CA<$ C@<$ C@<$ C@<$ C@<$ D@<$ D@<$ DA<$ DA<$ DA<$ DA<$ DA<$ DA<$ C@<$ C@<$ C@<$ C@<$ C@<$ C@<$ CA<$ CA<$ DA<$ DA<$ DA<$ DA<$ D@<$ D@<$ D@<$ D@<$ C@<$ C@<$ CA<$ CA<$ CA<$ CA<$ CA<$ CA<$ D@<$ D@<$ D@<$ D@<$ D@<$ D@<$ DA<$ DA<$ CA<$ CA<$ CA<$ CA<$ C@<$ C@<$ C@<$ C@<$ D@<$ D@<$ DA<$ DA<$ DA<$ DA<$ DA<$ DA<$ A<A$ A<A$ A<A$ A<A$ A<A$ A<A$ A<A$ A<A$ A<A$ A<A$ A<A$ A<A$ A<A$ A<A$ A<A$ A<A$ A<A$ A<A$ A<A$ A<A$ A<A$ A<A$ A<A$ A<A$ A<A$ A<A$ A<A$ A<A$ A<A$ A<A$ A<A$ A<A$ A<A$ AA AA AA AA AA AA AA AA AA AA AA AA    AA<%8 AA<%8 AA<%8 AA<%8 AA<%8 AA<%8 AA<%8 AA<%8 AA<%8 AA<%8 AA<%8 AA<%8 AA<%8 AA<%8 AA<%8 AA<%8 AA<%8 AA<%8 AA<%8 AA<%8 AA<%8 AA<%8 AA<%8 AA<%8 AA<%8 AA<%8 AA<%8 AA<%8 AA<%8 AA<%8 AA<%8 AA<%8 AA<%8 AA<%8 AA<%8 AA<%8 AA<%8 AA<%8 AA<%8 AA<%8 AA<%8 AA<%8 AA<%8 AA<%8 AA<%8 AA<%8 AA<%8 AA<%8 AA<%8 AA<%8 AA<%8 AA<%8 AA<%8 AA<%8 AA<%8 AA<%8 AA<%8 AA<%8 AA<%8 AA<%8 AA<%8 AA<%8 AA<%8 AA<%8 AA<%8 AA<%8 AA<%8 AA<%8 AA<%8 AA<%8 AA<%8 AA<%8 AA<%8 AA<%8 AA<%8 AA<%8 AA<%8 AA<%8 AA<%8 AA<%8 AA<%8 AA<%8 AA<%8 AA<%8 AA<%8 AA<%8 AA<%8 AA<%8 AA<%8 A<%8 A<%8 A<%8 A<%8 A<%8 A<%8 A<%8 MA<%8 MA<%8 MA<%8 MA<%8 MA<%8 MA<%8 MA<%8 MA<%8 MA<%8 MA<%8 MA<%8 MA<%8 MA<%8 MA<%8 MA<%8 MA<%8 MA<%8 MA<%8 MA<%8 MA<%8 MA<%8 MA<%8 MA<%8 MA<%8 MA<%8 MA<%8 MA<%8 MA<%8 MA<%8 MA<%8 MA<%8 MA<%8 MA<%8 MA<%8 MA<%8 MA<%8 MA<%8 MA<%8 MA<%8 MA<%8 MA<%8 MA<%8 MA<%8 MA<%8 MA<%8 MA<%8 MA<%8 MA<%8 MA<%8 MA<%8 MA<%8 MA<%8 MA<%8 MA<%8 MA<%8 MA<%8 MA<%8 MA<%8 MA<%8 MA<%8 MA<%8 MA<%8 MA<%8 MA<%8 MA<%8 MA<%8 MA<%8 MA<%8 MA<%8 MA<%8 MA<%8 MA<%8 MA<%8 MA<%8 MA<%8 MA<%8 MA<%8 MA<%8 MA<%8 MA<%8 MA<%8 M8 M8 M8 M8 M8 M8 M8 M8 8 8 8 8 8 8 8 N N N N N N N N N N N N N N N N N N N N N N N N N N N N N N N N N N N N N N N N N N N N N N N N N N N N N N N N N N N N N N N N N N N N N N N N N N N N N N N N N N N N N N N N N N N N N N N N L L L L L L L L L L L L L L L L L L L L L L L L L L L L L L L L L L L L L L L L L L L L L L L L L L L L L L L L L L L L L L L L L L L L L L L L L L L L L L L L L L L L L L L L L        M M M M M M M M M M M M M M M M M M M M M M M M M M M M M M M M M M M M M M M M M M M M M M M M M M M M M M M M M M M M M M M M M M M M M M M M M M M M M M M M M M M M M M M M M M M M M M M M I I I I I I I I I I I I I I I I I I I I I I I I I I I I I I I I I I I I I I I I I I I I I I I I I I I I I I I I I I I I I I I I I I I I I I I I I I I I I I I I I I I I I I I I I        G G G G G G G G G G G G G G G G G G G G G G G G G G G G G G G G G G G G G G G G G G G G G G G G GM GM GM GM GM GM GM GM GM GM GM GM GM GM GM GM GM GM GM GM GM GM GM GM GM GM GM GM GM GM GM GM GM GM GM GM GM GM GM GM GM GM GM GM GM G G G HP HP HP HP HP HP HP HP HP HP HP HP HP HP HP HP HP HP HP HP HP HP HP HP HP HP HP HP HP HP HP HP HP HP HP HP HP HP HP HP HP HP HP HP HP H H H HO HO HO HO HO HO HO HO HO HO HO HO HO HO HO HO HO HO HO HO HO HO HO HO HO HO HO HO HO HO HO HO HO HO HO HO HO HO HO HO HO O O O O    AM& AM& AM& AM& AM& AM& AM& AM& AM& AM& AM& AM& AM& AM& AM& AM& AM& AM& AM& AM& AM& AM& AM& AM& AM& AM& AM& AM& AM& AM& AM& AM& AM& AM& AM& AM& AM& AM& AM& AM& AM& AM& AM& AM& AM& A& A& A& AK& AK& AK& AK& AK& AK& AK& AK& AK& AK& AK& AK& AK& AK& AK& AK& AK& AK& AK& AK& AK& AK& AK& AK& AK& AK& AK& AK& AK& AK& AK& AK& AK& AK& AK& AK& AK& AK& AK& AK& AK& AK& AK& AK& AK& A& A& A& AJ& AJ& AJ& AJ& AJ& AJ& AJ& AJ& AJ& AJ& AJ& AJ& AJ& AJ& AJ& AJ& AJ& AJ& AJ& AJ& AJ& AJ& AJ& AJ& AJ& AJ& AJ& AJ& AJ& AJ& AJ& AJ& AJ& AJ& AJ& AJ& AJ& AJ& AJ& AJ& AJ& AJ& AJ& AJ& AJ& A& A& A& AH& AH& AH& AH& AH& AH& AH& AH& AH& AH& AH& AH& AH& AH& AH& AH& AH& AH& AH& AH& AH& AH& AH& AH& AH& AH& AH& AH& AH& AH& AH& AH& AH& AH& AH& AH& AH& AH& AH& AH& AH& AH& AH& AH& AH& A& A& A& AG& AG& AG& AG& AG& AG& AG& AG& AG& AG& AG& AG& AG& AG& AG& AG& AG& AG& AG& AG& AG& AG& AG& AG& AG& AG& AG& AG& AG& AG& AG& AG& AG& AG& AG& AG& AG& AG& AG& AG& AG& AG& AG& AG& AG& AG& AG& AG& ADG& ADG& ADG& ADG& ADG& ADG& ADG& ADG& ADG& ADG& ADG& ADG& ADG& ADG& ADG& ADG& ADG& ADG& ADG& ADG& ADG& ADG& ADG& ADG& ADG& DG& DG& DG& DG& DG& DG& DG& DG& DG& DG& DG& DG& DG& DG& DG& DG& DG& DG& DG& DG& G& G& G& @CG& @CG& @CG& @CG& @CG& @CG& @CG& @CG& @CG& @CG& @CG& @CG& @CG& @CG& @CG& @CG& @CG& @CG& @CG& @CG& @CG& @CG& @CG& @CG& @CG& @CG& @CG& @CG& @CG& @CG& @CG& @CG& @CG& @CG& @CG& @CG& @CG& @CG& @CG& @CG& @CG& @CG& @CG& @CG& @CG& G& G& G& AGA& AGA& AGA& AGA& AGA& AGA& AGA& AGA& AGA& AGA& AGA& AGA& AGA& AGA& AGA& AGA& AGA& AGA& AGA AGA AGA AGA AGA AGA AGA AGA AGA AGA AGA AGA AGA AGA AGA AA AA AA AA AA AA AA AA AA AA AA AA    CC@$ CC@$ CC@$ CC@$ CC@$ CC@$ CC@$ CC@$ CC@$ CC@$ CC@$ CC@$ CC@$ CC@$ CC@$ CC@$ CC@$ CC@$ CC@$ CC@$ CC@$ CC@$ CC@$ CC@$ CC@$ CC@$ CC@$ CC@$ CC@$ CC@$ CC@$ CC@$ CC@$ CC@$ CC@$ CC@$ CC@$ CC@$ CC@$ CC@$ CC@$ CC@$ CC@$ CC@$ CC@$ CC@$ CC@$ CC@$ CC@$ CC@$ CC@$ CC@$ CC@$ CC@$ CC@$ CC@$ CC@$ CC@$ CC@$ CC@$ CC@$ CC@$ CC@$ CC@$ CC@$ CC@$ CC@$ CC@$ CC@$ CC@$ CC@$ CC@$ CC@$ CC@$ CC@$ CC@$ CC@$ CC@$ CC@$ CC@$ CC@$ CC@$ CC@$ CC@$ CC@$ CC@$ CC@$ CC@$ CC@$ CC@$ CC@$ CC@$ CC@$ CC@$ CC@$ CC@$ CC@$ CC@$ CC@$ CC@$ CC@$ CC@$ CC@$ CC@$ CC@$ CC@$ CC@$ CC@$ CC@$ CC@$ CC@$ CC@$ CC@$ CC@$ CC@$ CC@$ CC@$ CC@$ CC@$ CC@$ CC@$ CC@$ CC@$ CC@$ CC@$ CC@$ CC@$ CC@$ CC@$ CC@$ CC@$ CC@$ CC@$ CC@$ CC@$ CC@$ CC@$ CC@$ CC@$ CC@$ CC@$ CC@$ CC@$ CC@$ CC@$ CC@$ CC@$ CC@$ CC@$ CC@$ CC@$ CC@$ CC@$ CC@$ CC@$ CC@$ CC@$ CC@$ CC@$ CC@$ CC@$ CC@$ CC@$ CC@$ CC@$ CC@$ CC@$ CC@$ CC@$ CC@$ CC@$ CC@$ CC@$ CC@$ CC@$ CC@$ CC@$ CC@$ CC@$ CC@$ CC@$ CC@$ CC@$ CC@$ CC@$ CC@$ CC@$ CC@$ CC@$ CC@$ CC@$ CC@$ CC@$ CC@$ CC@$ CC@$ CC@$ CC@$ CC@$ CC@$ CC@$ CC@$ CC@$ CC@$ CC@$ CC@$ CC@$ CC@$ CC@$ CC@$ CC@$ CC@$ CC@$ CC@$ CC@$ CC@$ CC@$ CC@$ CC@$ CC@$ CC@$ CC@$ CC@$ CC@$ CC@$ CC@$ CC@$ CC@$ CC@$ CC@$ CC@$ CC@$ CC@$ CC@$ CC@$ CC@$ CC@$ CC@$ CC@$ CC@$ CC@$ CC@$ CC@$ CC@$ CC@$ CC@$ CC@$ CC@$ CC@$ CC@$ CC@$ CC@$ CC@$ CC@$ CC@$ CC@$ CC@$ CC@$ CC@$ CC@$ CC@$ CC@$ CC@$ CC@$ CC@$ CC@$ CC@$ CC@$ CC@$ CC@$ CC@$ CC@$ CC@$ CC@$ CC@$ CC@$ CC@$ CC@$ CC@$ CC@$ CC@$ CC@$ CC@$ CC@$ CC@$ CC@$ CC@$ CC@$ CC@$ CC@$ CC@$ CC@$ CC@$ CC@$ CC@$ CC@$ CC@$ CC@$ CC@$ CC@$ CC@$ CC@$ CC@$ CC@$ CC@$ CC@$ CC@$ CC@$ CC@$ CC@$ CC@$ CC@$ CC@$ CC@$ CC@$ CC@$ CC@$ CC@$ CC@$ CC@$ CC@$ CC@$ CC@$ CC@$ CC@$ CC@$ CC@$ CC@$ CC@$ CC@$ CC@$ CC@$ CC@$ CC@$ CC@$ CC@$ CC@$ CC@$ CC@$ CC@$ CC@$ CC@$ CC@$ CC@$ CC@$ CC@$ CC@$ CC@$ CC@$ CC@$ CC@$ CC@$ CC@$ CC@$ CC@$ CC@$ CC@$ CC@$ CC@$ CC@$ CC@$ CC@$ CC@$ CC@$ CC@$ CC@$ CC@$ CC@$ CC@$ CC@$ CC@$ CC@$ CC@$ CC@$ CC@$ CC@$ CC@$ CC@$ CC@$ CC@$ CC@$ CC@$ CC@$ CC@$ CC@$ CC@$ CC@$ CC@$ CC@$ CC@$ CC@$ CC@$ CC@$ CC@$ CC@$ CC@$ CC@$ CC@$ CC@$ CC@$ CC@$ CC@$ CC@$ CC@$ CC@$ CC@$ CC@$ CC@$ CC@$ CC@$ CC@$ CC@$ CC@$ CC@$ CC@$ CC@$ CC@$ CC@$ CC@$ CC@$ CC@$ CC@$ CC@$ CC@$ CC@$ CC@$ CC@$ CC@$ CC@$ CC@$ CC@$ CC@$ CC@$ CC@$ CC@$ CC@$ CC@$ CC@$ CC@$ CC@$ CC@$ CC@$ CC@$ CC@$ CC@$ CC@$ CC@$ CC@$ CC@$ CC@$ CC@$ CC@$ CC@$ CC@$ CC@$ CC@$ CC@$ CC@$ CC@$ CC@$ CC@$ CC@$ CC@$ CC@$ CC@$ CC@$ CC@$ CC@$ CC@$ CC@$ CC@$ CC@$ CC@$ CC@$ CC@$ CC@$ CC@$ CC@$ CC@$ CC@$ CC@$ CC@$ CC@$ CC@$ CC@$ CC@$ CC@$ CC@$ CC@$ CC@$ CC@$ CC@$ CC@$ CC@$ CC@$ CC@$ CC@$ CC@$ CC@$ CC@$ CC@$ CC@$ CC@$ CC@$ CC@$ CC@$ CC@$ CC@$ CC@$ CC@$ CC@$ CC@$ CC@$ CC@$ CC@$ CC@$ CC@$ CC@$ CC@$ CC@$ CC@$ CC@$ CC@$ CC@$ CC@$ CC@$ CC@$ CC@$ CC@$ CC@$  