7+ 7+ 7+ 7+ 7+ 7+ 7+ 7+ 7+ 7+ 7+ 7+ 7+ 7+ 7+ 7+ 7+ 7+ 7+ 7+ 7+ 7+ 7+ 7+ 7+ 7+ 7+ 7+ 7+ 7+ 7+ 7+ 7+ 7+ 7+ 7+ 7+ 7+ 7+ 7+ 7+ 7+ 7+ 7+ 7+ + + + C+ C+ C+ C+ C+ C+ C+ C+ C+ C+ C+ C+ C+ C+ C+ C+ C+ C+ C+ C+ C+ C+ C+ C+ C+ C+ C+ C+ C+ C+ C+ C+ C+ C+ C+ C+ C+ C+ C+ C+ C+ C+ C+ C+ C+ + + + C+ C+ C+ C+ C+ C+ C+ C+ C+ C+ C+ C+ C+ C+ C+ C+ C+ C+ C+ C+ C+ C+ C+ C+ C+ C+ C+ C+ C+ C+ C+ C+ C+ C+ C+ C+ C+ C C C C C C C C    9 9 9 9 9 9 9 9 9 9 9 9 9 9 9 9 9 9 9 9 9 9 9 9 9 9 9 9 9 9 9 9 9 9 9 9 9 9 9 9 9 9 9 9 9    C C C C C C C C C C C C C C C C C C C C C C C C C C C C C C C C C C C C C C C C C C C C C    C C C C C C C C C C C C C C C C C C C C C C C C C C C C C C C C C C C C C C C C C C C C C    ; ; ; ; ; ; ; ; ; ; ; ; ; ; ; ; ; ; ; ; ; ; ; ; ; ; ; ; ; ; ; ; ; ; ; ; ; ; ; ; ; ; ; ; ;    C C C C C C C C C C C C C C C C C C C C C C C C C C C C C C C C C C C C C C C C C C C C C    C7 C7 C7 C7 C7 C7 C7 C7 C7 C7 C7 C7 C7 C7 C7 C7 C7 C7 C7 C7 C7 C7 C7 C7 C7 C7 C7 C7 C7 C7 C7 C7 C7 C7 C7 C7 C7 C7 C7 C7 C7 C7 C7 C7 C7    <4 <4 <4 <4 <4 <4 <4 <4 <4 <4 <4 <4 <4 <4 <4 <4 <4 <4 <4 <4 <4 <4 <4 <4 <4 <4 <4 <4 <4 <4 <4 <4 <4 <4 <4 <4 <4 <4 <4 <4 <4 <4 <4 <4 <4    E< E< E< E< E< E< E< E< E< E< E< E< E< E< E< E< E< E< E< E< E< E< E< E< E< E< E< E< E< E< E< E< E< E< E< E< E< E< E< E< E< E< E< E< E< < < < @< @< @< @< @< @< @< @< @< @< @< @< @< @< @< @< @< @< @< @< @< @< @< @< @< @< @< @< @< @< @< @< @< @< @< @< @< @< @< @< @< @< @< @< @< < < < B< B< B< B< B< B< B< B< B< B< B< B< B< B< B< B< B< B< B< B< B< B< B< B< B< B< B< B< B< B< B< B< B< B< B< B< B< B< B< B< B< B< B< B< B< < < < >< >< >< >< >< >< >< >< >< >< >< >< >< >< >< >< >< >< >< >< >< >< >< >< >< >< >< >< >< >< >< >< >< >< >< >< >< >< >< >< >< > > > >    C; C; C; C; C; C; C; C; C; C; C; C; C; C; C; C; C; C; C; C; C; C; C; C; C; C; C; C; C; C; C; C; C; C; C; C; C; C; C; C; C; C; C; C; C;    @< @< @< @< @< @< @< @< @< @< @< @< @< @< @< @< @< @< @< @< @< @< @< @< @< @< @< @< @< @< @< @< @< @< @< @< @< @< @< @< @< @< @< @< @<    <9 <9 <9 <9 <9 <9 <9 <9 <9 <9 <9 <9 <9 <9 <9 <9 <9 <9 <9 <9 <9 <9 <9 <9 <9 <9 <9 <9 <9 <9 <9 <9 <9 <9 <9 <9 <9 <9 <9 <9 <9 <9 <9 <9 <9    >6 >6 >6 >6 >6 >6 >6 >6 >6 >6 >6 >6 >6 >6 >6 >6 >6 >6 >6 >6 >6 >6 >6 >6 >6 >6 >6 >6 >6 >6 >6 >6 >6 >6 >6 >6 >6 >6 >6 >6 >6 >6 >6 >6 >6    7; 7; 7; 7; 7; 7; 7; 7; 7; 7; 7; 7; 7; 7; 7; 7; 7; 7; 7; 7; 7; 7; 7; 7; 7; 7; 7; 7; 7; 7; 7; 7; 7; 7; 7; 7; 7; 7; 7; 7; 7; 7; 7; 7; 7;    J7 J7 J7 J7 J7 J7 J7 J7 J7 J7 J7 J7 J7 J7 J7 J7 J7 J7 J7 J7 J7 J7 J7 J7 J7 J7 J7 J7 J7 J7 J7 J7 J7 J7 J7 J7 J7 J7 J7 J7 J7 J7 J7 J7 J7 J J J J9 J9 J9 J9 J9 J9 J9 J9 J9 J9 J9 J9 J9 J9 J9 J9 J9 J9 J9 J9 J9 J9 J9 J9 J9 J9 J9 J9 J9 J9 J9 J9 J9 J9 J9 J9 J9 J9 J9 J9 J9 9 9 9 9    J; J; J; J; J; J; J; J; J; J; J; J; J; J; J; J; J; J; J; J; J; J; J; J; J; J; J; J; J; J; J; J; J; J; J; J; J; J; J; J; J; J; J; J; J;    H@ H@ H@ H@ H@ H@ H@ H@ H@ H@ H@ H@ H@ H@ H@ H@ H@ H@ H@ H@ H@ H@ H@ @ G@ G@ G@ G@ G@ G@ G@ G@ G@ G@ G@ G@ G@ G@ G@ G@ G@ G@ G@ G@ G@ G G  E< E< E< E< E< E< E< E< E< E< E< E< E< E< E< E< E< E< E< E< E< E< E< < C< C< C< C< C< C< C< C< C< C< C< C< C< C< C< C< C< C< C< C< C< C C  B>> B>> B>> B>> B>> B>> B>> B>> B>> B>> B>> B>> B>> B>> B>> B>> B>> B>> B>> B>> B>> B>> B>> >> C>> C>> C>> C>> C>> C>> C>> C>> C>> C>> C>> C>> C>> C>> C>> C>> C>> C>> C>> C>> C>> C> C> > BJ> BJ> BJ> BJ> BJ> BJ> BJ> BJ> BJ> BJ> BJ> BJ> BJ> BJ> BJ> BJ> BJ> BJ> BJ> BJ> BJ> BJ> BJ> J> @J> @J> @J> @J> @J> @J> @J> @J> @J> @J> @J> @J> @J> @J> @J> @J> @J> @J> @J> @J> @J> @> @> > BJ> BJ> BJ> BJ> BJ> BJ> BJ> BJ> BJ> BJ> BJ> BJ> BJ> BJ> BJ> BJ> BJ> BJ> BJ> BJ> BJ> BJ> BJ> J> >J> >J> >J> >J> >J> >J> >J> >J> >J> >J> >J> >J> >J> >J >J >J >J >J >J >J >J > >  C@ C@ C@ C@ C@ C@ C@ C@ C@ C@ C@ C@ C@ C@ C@ C@ C@ C@ C@ C@ C@ C@ C@ @ E@ E@ E@ E@ E@ E@ E@ E@ E@ E@ E@ E@ E@ E@ E@ E@ E@ E@ E@ E@ E@ E E  CJ CJ CJ CJ CJ CJ CJ CJ CJ CJ CJ CJ CJ CJ CJ CJ CJ CJ CJ CJ CJ CJ CJ J BJ BJ BJ BJ BJ BJ BJ BJ BJ BJ BJ BJ BJ BJ BJ BJ BJ BJ BJ BJ BJ B B  CJ CJ CJ CJ CJ CJ CJ CJ CJ CJ CJ CJ CJ CJ CJ CJ CJ CJ CJ CJ CJ CJ CJ J @J @J @J @J @J @J @J @J @J @J @J @J @J @J @J @J @J @J @J @J @J @ @  EB EB EB EB EB EB EB EB EB EB EB EB EB EB EB EB EB EB EB EB EB EB EB B GB GB GB GB GB GB GB GB GB GB GB GB GB GB GB GB GB GB GB GB GB G G  EJ EJ EJ EJ EJ EJ EJ EJ EJ EJ EJ EJ EJ EJ EJ EJ EJ EJ EJ EJ EJ EJ EJ J CJ CJ CJ CJ CJ CJ CJ CJ CJ CJ CJ CJ CJ CJ CJ CJ CJ CJ CJ CJ CJ C C  EJ2 EJ2 EJ2 EJ2 EJ2 EJ2 EJ2 EJ2 EJ2 EJ2 EJ2 EJ2 EJ2 EJ2 EJ2 EJ2 EJ2 EJ2 EJ2 EJ2 EJ2 EJ2 EJ2 J2 BJ2 BJ2 BJ2 BJ2 BJ2 BJ2 BJ2 BJ2 BJ2 BJ2 BJ2 BJ2 BJ2 BJ2 BJ2 BJ2 BJ2 BJ2 BJ2 BJ2 BJ2 B B  GC/ GC/ GC/ GC/ GC/ GC/ GC/ GC/ GC/ GC/ GC/ GC/ GC/ GC/ GC/ GC/ GC/ GC/ GC/ GC/ GC/ GC/ GC/ C/ HC/ HC/ HC/ HC/ HC/ HC/ HC/ HC/ HC/ HC/ HC/ HC/ HC/ HC/ HC/ HC/ HC/ HC/ HC/ HC/ HC/ H H  GL+ GL+ GL+ GL+ GL+ GL+ GL+ GL+ GL+ GL+ GL+ GL+ GL+ GL+ GL+ GL+ GL+ GL+ GL+ GL+ GL+ GL+ GL+ L+ EL+ EL+ EL+ EL+ EL+ EL+ EL+ EL+ EL+ EL+ EL+ EL+ EL+ EL+ EL+ EL+ EL+ EL+ EL+ EL+ EL+ E E  GG7 GG7 GG7 GG7 GG7 GG7 GG7 GG7 GG7 GG7 GG7 GG7 GG7 GG7 GG7 GG7 GG7 GG7 GG7 GG7 GG7 GG7 GG7 G7 CG7 CG7 CG7 CG7 CG7 CG7 CG7 CG7 CG7 CG7 CG7 CG7 CG7 CG7 CG7 CG7 CG7 CG7 CG7 CG7 CG7 C7 C7 7 EI7 EI7 EI7 EI7 EI7 EI7 EI7 EI7 EI7 EI7 EI7 EI7 EI7 EI7 EI7 EI7 EI7 EI7 EI7 EI7 EI7 EI7 EI7 I7 GI7 GI7 GI7 GI7 GI7 GI7 GI7 GI7 GI7 GI7 GI7 GI7 GI7 GI7 GI7 GI7 GI7 GI7 GI7 GI7 GI7 G G  EE6 EE6 EE6 EE6 EE6 EE6 EE6 EE6 EE6 EE6 EE6 EE6 EE6 EE6 EE6 EE6 EE6 EE6 EE6 EE6 EE6 EE6 EE6 E6 CE6 CE6 CE6 CE6 CE6 CE6 CE6 CE6 CE6 CE6 CE6 CE6 CE6 CE6 CE6 CE6 CE6 CE6 CE6 CE6 CE6 C C  EJ; EJ; EJ; EJ; EJ; EJ; EJ; EJ; EJ; EJ; EJ; EJ; EJ; EJ; EJ; EJ; EJ; EJ; EJ; EJ; EJ; EJ; EJ; J; BJ; BJ; BJ; BJ; BJ; BJ; BJ; BJ; BJ; BJ; BJ; BJ; BJ; BJ; BJ; BJ; BJ; BJ; BJ; BJ; BJ; B B  CG4 CG4 CG4 CG4 CG4 CG4 CG4 CG4 CG4 CG4 CG4 CG4 CG4 CG4 CG4 CG4 CG4 CG4 CG4 CG4 CG4 CG4 CG4 G4 EG4 EG4 EG4 EG4 EG4 EG4 EG4 EG4 EG4 EG4 EG4 EG4 EG4 EG4 EG4 EG4 EG4 EG4 EG4 EG4 EG4 E E  CC> CC> CC> CC> CC> CC> CC> CC> CC> CC> CC> CC> CC> CC> CC> CC> CC> CC> CC> CC> CC> CC> CC> C> BC> BC> BC> BC> BC> BC> BC> BC> BC> BC> BC> BC> BC> BC> BC> BC> BC> BC> BC> BC> BC> B B  CE< CE< CE< CE< CE< CE< CE< CE< CE< CE< CE< CE< CE< CE< CE< CE< CE< CE< CE< CE< CE< CE< CE< E< @E< @E< @E< @E< @E< @E< @E< @E< @E< @E< @E< @E< @E< @E< @E< @E< @E< @E< @E< @E< @E< @< @< < B>< B>< B>< B>< B>< B>< B>< B>< B>< B>< B>< B>< B>< B>< B>< B>< B>< B>< B>< B>< B>< B>< B>< B>< B>< B>< B>< B>< B>< B>< B>< B>< B>< B>< B>< B>< B>< B>< B>< B>< B>< B>< B>< B>< B><    >O; >O; >O; >O; >O; >O; >O; >O; >O; >O; >O; >O; >O; >O; >O; >O; >O; >O; >O; >O; >O; >O; >O; >O; >O; >O; >O; >O; >O; >O; >O; >O; >O; >O; >O; >O; >O; >O; >O; >O; >O; >O; >O; >O; >O; O O O CO@ CO@ CO@ CO@ CO@ CO@ CO@ CO@ CO@ CO@ CO@ CO@ CO@ CO@ CO@ CO@ CO@ CO@ CO@ CO@ CO@ CO@ CO@ CO@ CO@ CO@ CO@ CO@ CO@ CO@ CO@ CO@ CO@ CO@ CO@ CO@ CO@ CO@ CO@ CO@ CO@ CO@ CO@ CO@ CO@ O O O HO9 HO9 HO9 HO9 HO9 HO9 HO9 HO9 HO9 HO9 HO9 HO9 HO9 HO9 HO9 HO9 HO9 HO9 HO9 HO9 HO9 HO9 HO9 HO9 HO9 HO9 HO9 HO9 HO9 HO9 HO9 HO9 HO9 HO9 HO9 HO9 HO9 HO9 HO9 HO9 HO9 HO9 HO9 HO9 HO9    EN> EN> EN> EN> EN> EN> EN> EN> EN> EN> EN> EN> EN> EN> EN> EN> EN> EN> EN> EN> EN> EN> EN> E> EL> EL> EL> EL> EL> EL> EL> EL> EL> EL> EL> EL> EL> EL> EL> EL> EL> EL> EL> EL> EL> L L  NJ2 NJ2 NJ2 NJ2 NJ2 NJ2 NJ2 NJ2 NJ2 NJ2 NJ2 NJ2 NJ2 NJ2 NJ2 NJ2 NJ2 NJ2 NJ2 NJ2 NJ2 NJ2 NJ2 N2 NH2 NH2 NH2 NH2 NH2 NH2 NH2 NH2 NH2 NH2 NH2 NH2 NH2 NH2 NH2 NH2 NH2 NH2 NH2 NH2 NH2 H H  OG+ OG+ OG+ OG+ OG+ OG+ OG+ OG+ OG+ OG+ OG+ OG+ OG+ OG+ OG+ OG+ OG+ OG+ OG+ OG+ OG+ OG+ OG+ O+ OH+ OH+ OH+ OH+ OH+ OH+ OH+ OH+ OH+ OH+ OH+ OH+ OH+ OH+ OH+ OH+ OH+ OH+ OH+ OH+ OH+ OH OH O OG7 OG7 OG7 OG7 OG7 OG7 OG7 OG7 OG7 OG7 OG7 OG7 OG7 OG7 OG7 OG7 OG7 OG7 OG7 OG7 OG7 OG7 OG7 O7 OE7 OE7 OE7 OE7 OE7 OE7 OE7 OE7 OE7 OE7 OE7 OE7 OE7 OE7 OE7 OE7 OE7 OE7 OE7 OE7 OE7 OE OE O OG7 OG7 OG7 OG7 OG7 OG7 OG7 OG7 OG7 OG7 OG7 OG7 OG7 OG7 OG7 OG7 OG7 OG7 OG7 OG7 OG7 OG7 OG7 O7 OC7 OC7 OC7 OC7 OC7 OC7 OC7 OC7 OC7 OC7 OC7 OC7 OC7 OC7 OC7 OC7 OC7 OC7 OC7 OC7 OC7 OC OC O OH- OH- OH- OH- OH- OH- OH- OH- OH- OH- OH- OH- OH- OH- OH- OH- OH- OH- OH- OH- OH- OH- OH- O- OJ- OJ- OJ- OJ- OJ- OJ- OJ- OJ- OJ- OJ- OJ- OJ- OJ- OJ- OJ- OJ- OJ- OJ- OJ- OJ- OJ- OJ OJ O OH7 OH7 OH7 OH7 OH7 OH7 OH7 OH7 OH7 OH7 OH7 OH7 OH7 OH7 OH7 OH7 OH7 OH7 OH7 OH7 OH7 OH7 OH7 O7 OG7 OG7 OG7 OG7 OG7 OG7 OG7 OG7 OG7 OG7 OG7 OG7 OG7 OG7 OG7 OG7 OG7 OG7 OG7 OG7 OG7 OG OG O OH7 OH7 OH7 OH7 OH7 OH7 OH7 OH7 OH7 OH7 OH7 OH7 OH7 OH7 OH7 OH7 OH7 OH7 OH7 OH7 OH7 OH7 OH7 O7 OE7 OE7 OE7 OE7 OE7 OE7 OE7 OE7 OE7 OE7 OE7 OE7 OE7 OE7 OE7 OE7 OE7 OE7 OE7 OE7 OE7 OE OE O OJ/ OJ/ OJ/ OJ/ OJ/ OJ/ OJ/ OJ/ OJ/ OJ/ OJ/ OJ/ OJ/ OJ/ OJ/ OJ/ OJ/ OJ/ OJ/ OJ/ OJ/ OJ/ OJ/ O/ OL/ OL/ OL/ OL/ OL/ OL/ OL/ OL/ OL/ OL/ OL/ OL/ OL/ OL/ OL/ OL/ OL/ OL/ OL/ OL/ OL/ L L  JJ7 JJ7 JJ7 JJ7 JJ7 JJ7 JJ7 JJ7 JJ7 JJ7 JJ7 JJ7 JJ7 JJ7 JJ7 JJ7 JJ7 JJ7 JJ7 JJ7 JJ7 JJ7 JJ7 J7 JH7 JH7 JH7 JH7 JH7 JH7 JH7 JH7 JH7 JH7 JH7 JH7 JH7 JH7 JH7 JH7 JH7 JH7 JH7 JH7 JH7 H H  GJ7 GJ7 GJ7 GJ7 GJ7 GJ7 GJ7 GJ7 GJ7 GJ7 GJ7 GJ7 GJ7 GJ7 GJ7 GJ7 GJ7 GJ7 GJ7 GJ7 GJ7 GJ7 GJ7 G7 GG7 GG7 GG7 GG7 GG7 GG7 GG7 GG7 GG7 GG7 GG7 GG7 GG7 GG7 GG7 GG7 GG7 GG7 GG7 GG7 GG7 G G  CL0 CL0 CL0 CL0 CL0 CL0 CL0 CL0 CL0 CL0 CL0 CL0 CL0 CL0 CL0 CL0 CL0 CL0 CL0 CL0 CL0 CL0 CL0 C0 CM0 CM0 CM0 CM0 CM0 CM0 CM0 CM0 CM0 CM0 CM0 CM0 CM0 CM0 CM0 CM0 CM0 CM0 CM0 CM0 CM0 M M  HL9 HL9 HL9 HL9 HL9 HL9 HL9 HL9 HL9 HL9 HL9 HL9 HL9 HL9 HL9 HL9 HL9 HL9 HL9 HL9 HL9 HL9 HL9 H9 HJ9 HJ9 HJ9 HJ9 HJ9 HJ9 HJ9 HJ9 HJ9 HJ9 HJ9 HJ9 HJ9 HJ9 HJ9 HJ9 HJ9 HJ9 HJ9 HJ9 HJ9 HJ HJ H HL4 HL4 HL4 HL4 HL4 HL4 HL4 HL4 HL4 HL4 HL4 HL4 HL4 HL4 HL4 HL4 HL4 HL4 HL4 HL4 HL4 HL4 HL4 H4 HH4 HH4 HH4 HH4 HH4 HH4 HH4 HH4 HH4 HH4 HH4 HH4 HH4 HH4 HH4 HH4 HH4 HH4 HH4 HH4 HH4 HH HH H HJ6 HJ6 HJ6 HJ6 HJ6 HJ6 HJ6 HJ6 HJ6 HJ6 HJ6 HJ6 HJ6 HJ6 HJ6 HJ6 HJ6 HJ6 HJ6 HJ6 HJ6 HJ6 HJ6 H6 HL6 HL6 HL6 HL6 HL6 HL6 HL6 HL6 HL6 HL6 HL6 HL6 HL6 HL6 HL6 HL6 HL6 HL6 HL6 HL6 HL6 L L  GJ2 GJ2 GJ2 GJ2 GJ2 GJ2 GJ2 GJ2 GJ2 GJ2 GJ2 GJ2 GJ2 GJ2 GJ2 GJ2 GJ2 GJ2 GJ2 GJ2 GJ2 GJ2 GJ2 2 EH2 EH2 EH2 EH2 EH2 EH2 EH2 EH2 EH2 EH2 EH2 EH2 EH2 EH2 EH2 EH2 EH2 EH2 EH2 EH2 EH2 EH EH  GJ7 GJ7 GJ7 GJ7 GJ7 GJ7 GJ7 GJ7 GJ7 GJ7 GJ7 GJ7 GJ7 GJ7 GJ7 GJ7 GJ7 GJ7 GJ7 GJ7 GJ7 GJ7 GJ7 G7 GG7 GG7 GG7 GG7 GG7 GG7 GG7 GG7 GG7 GG7 GG7 GG7 GG7 GG7 GG7 GG7 GG7 GG7 GG7 GG7 GG7 GG GG G GH4 GH4 GH4 GH4 GH4 GH4 GH4 GH4 GH4 GH4 GH4 GH4 GH4 GH4 GH4 GH4 GH4 GH4 GH4 GH4 GH4 GH4 GH4 G4 GJ4 GJ4 GJ4 GJ4 GJ4 GJ4 GJ4 GJ4 GJ4 GJ4 GJ4 GJ4 GJ4 GJ4 GJ4 GJ4 GJ4 GJ4 GJ4 GJ4 GJ4 J J  EH0 EH0 EH0 EH0 EH0 EH0 EH0 EH0 EH0 EH0 EH0 EH0 EH0 EH0 EH0 EH0 EH0 EH0 EH0 EH0 EH0 EH0 EH0 E0 EH0 EH0 EH0 EH0 EH0 EH0 EH0 EH0 EH0 EH0 EH0 EH0 EH0 EH0 EH0 EH0 EH0 EH0 EH0 EH0 EH0 H H  NE2 NE2 NE2 NE2 NE2 NE2 NE2 NE2 NE2 NE2 NE2 NE2 NE2 NE2 NE2 NE2 NE2 NE2 NE2 NE2 NE2 NE2 NE2 N2 NG2 NG2 NG2 NG2 NG2 NG2 NG2 NG2 NG2 NG2 NG2 NG2 NG2 NG2 NG2 NG2 NG2 NG2 NG2 NG2 NG2 G G  CG+ CG+ CG+ CG+ CG+ CG+ CG+ CG+ CG+ CG+ CG+ CG+ CG+ CG+ CG+ CG+ CG+ CG+ CG+ CG+ CG+ CG+ CG+ C+ CE+ CE+ CE+ CE+ CE+ CE+ CE+ CE+ CE+ CE+ CE+ CE+ CE+ CE+ CE+ CE+ CE+ CE+ CE+ CE+ CE+ E E  SC7 SC7 SC7 SC7 SC7 SC7 SC7 SC7 SC7 SC7 SC7 SC7 SC7 SC7 SC7 SC7 SC7 SC7 SC7 SC7 SC7 SC7 SC7 S7 SB7 SB7 SB7 SB7 SB7 SB7 SB7 SB7 SB7 SB7 SB7 SB7 SB7 SB7 SB7 SB7 SB7 SB7 SB7 SB7 SB7 SB SB S S@+ S@+ S@+ S@+ S@+ S@+ S@+ S@+ S@+ S@+ S@+ S@+ S@+ S@+ S@+ S@+ S@+ S@+ S@+ S@+ S@+ S@+ S@+ S+ S>+ S>+ S>+ S>+ S>+ S>+ S>+ S>+ S>+ S>+ S>+ S>+ S>+ S>+ S>+ S>+ S>+ S>+ S>+ S>+ S>+ S> S> S S<- S<- S<- S<- S<- S<- S<- S<- S<- S<- S<- S<- S<- S<- S<- S<- S<- S<- S<- S<- S<- S<- S<- S<- S<- S<- S<- S<- S<- S<- S<- S<- S<- S<- S<- S<- S<- S<- S<- S<- S<- S<- S<- S<- S<-    QT6 QT6 QT6 QT6 QT6 QT6 QT6 QT6 QT6 QT6 QT6 QT6 QT6 QT6 QT6 QT6 QT6 QT6 QT6 QT6 QT6 QT6 QT6 T6 OT6 OT6 OT6 OT6 OT6 OT6 OT6 OT6 OT6 OT6 OT6 OT6 OT6 OT6 OT6 OT6 OT6 OT6 OT6 OT6 OT6 OT OT T NT- NT- NT- NT- NT- NT- NT- NT- NT- NT- NT- NT- NT- NT- NT- NT- NT- NT- NT- NT- NT- NT- NT- T- LT- LT- LT- LT- LT- LT- LT- LT- LT- LT- LT- LT- LT- LT- LT- LT- LT- LT- LT- LT- LT- LT LT T JT/ JT/ JT/ JT/ JT/ JT/ JT/ JT/ JT/ JT/ JT/ JT/ JT/ JT/ JT/ JT/ JT/ JT/ JT/ JT/ JT/ JT/ JT/ JT/ JT/ JT/ JT/ JT/ JT/ JT/ JT/ JT/ JT/ JT/ JT/ JT/ JT/ JT/ JT/ JT/ JT/ JT/ JT/ JT/ JT/    VS7 VS7 VS7 VS7 VS7 VS7 VS7 VS7 VS7 VS7 VS7 VS7 VS7 VS7 VS7 VS7 VS7 VS7 VS7 VS7 VS7 VS7 VS7 V7 VQ7 VQ7 VQ7 VQ7 VQ7 VQ7 VQ7 VQ7 VQ7 VQ7 VQ7 VQ7 VQ7 VQ7 VQ7 VQ7 VQ7 VQ7 VQ7 VQ7 VQ7 VQ VQ V VO/ VO/ VO/ VO/ VO/ VO/ VO/ VO/ VO/ VO/ VO/ VO/ VO/ VO/ VO/ VO/ VO/ VO/ VO/ VO/ VO/ VO/ VO/ V/ VM/ VM/ VM/ VM/ VM/ VM/ VM/ VM/ VM/ VM/ VM/ VM/ VM/ VM/ VM/ VM/ VM/ VM/ VM/ VM/ VM/ VM VM V VL0 VL0 VL0 VL0 VL0 VL0 VL0 VL0 VL0 VL0 VL0 VL0 VL0 VL0 VL0 VL0 VL0 VL0 VL0 VL0 VL0 VL0 VL0 V0 VL0 VL0 VL0 VL0 VL0 VL0 VL0 VL0 VL0 VL0 VL0 VL0 VL0 VL0 VL0 VL0 VL0 VL0 VL0 VL0 VL0 L L  TM7 TM7 TM7 TM7 TM7 TM7 TM7 TM7 TM7 TM7 TM7 TM7 TM7 TM7 TM7 TM7 TM7 TM7 TM7 TM7 TM7 TM7 TM7 7 SL7 SL7 SL7 SL7 SL7 SL7 SL7 SL7 SL7 SL7 SL7 SL7 SL7 SL7 SL7 SL7 SL7 SL7 SL7 SL7 SL7 SL SL  QJ0 QJ0 QJ0 QJ0 QJ0 QJ0 QJ0 QJ0 QJ0 QJ0 QJ0 QJ0 QJ0 QJ0 QJ0 QJ0 QJ0 QJ0 QJ0 QJ0 QJ0 QJ0 QJ0 0 OH0 OH0 OH0 OH0 OH0 OH0 OH0 OH0 OH0 OH0 OH0 OH0 OH0 OH0 OH0 OH0 OH0 OH0 OH0 OH0 OH0 OH OH  NE2 NE2 NE2 NE2 NE2 NE2 NE2 NE2 NE2 NE2 NE2 NE2 NE2 NE2 NE2 NE2 NE2 NE2 NE2 NE2 NE2 NE2 NE2 NE NE4 NE4 NE4 NE4 NE4 NE4 NE4 NE4 NE4 NE4 NE4 NE4 NE4 NE4 NE4 NE4 NE4 NE4 NE4 NE4 NE4 E4 E4 E JE6 JE6 JE6 JE6 JE6 JE6 JE6 JE6 JE6 JE6 JE6 JE6 JE6 JE6 JE6 JE6 JE6 JE6 JE6 JE6 JE6 JE6 JE6 E LE7 LE7 LE7 LE7 LE7 LE7 LE7 LE7 LE7 LE7 LE7 LE7 LE7 LE7 LE7 LE7 LE7 L7 L7 L7 L7 L7 L7  J6 J6 J6 J6 J6 J6 J6 J6 J6 J6 J6 J6 J6 J6 J6 J6 J6 J6 J6 J6 J6 J6 J6 J J4 J4 J4 J4 J4 J4 J4 J4 J4 J4 J4 J4 J4 J4 J4 J4 J4 J4 J4 J4 J4 4 4  Q6 Q6 Q6 Q6 Q6 Q6 Q6 Q6 Q6 Q6 Q6 Q6 Q6 Q6 Q6 Q6 Q6 Q6 Q6 Q6 Q6 Q6 Q6 Q Q2 Q2 Q2 Q2 Q2 Q2 Q2 Q2 Q2 Q2 Q2 Q2 Q2 Q2 Q2 Q2 Q2 Q2 Q2 Q2 Q2 2 2  J4 J4 J4 J4 J4 J4 J4 J4 J4 J4 J4 J4 J4 J4 J4 J4 J4 J4 J4 J4 J4 J4 J4 J J6 J6 J6 J6 J6 J6 J6 J6 J6 J6 J6 J6 J6 J6 J6 J6 J6 J6 J6 J6 J6 6 6  J7 J7 J7 J7 J7 J7 J7 J7 J7 J7 J7 J7 J7 J7 J7 J7 J7 J7 J7 J7 J7 J7 J7 J J9 J9 J9 J9 J9 J9 J9 J9 J9 J9 J9 J9 J9 J9 J9 J9 J9 J9 J9 J9 J9 9 9  VC; VC; VC; VC; VC; VC; VC; VC; VC; VC; VC; VC; VC; VC; VC; VC; VC; VC; VC; VC; VC; VC; VC; V; VE; VE; VE; VE; VE; VE; VE; VE; VE; VE; VE; VE; VE; VE; VE; VE; VE; VE; VE; VE; VE; E; E; ; CG; CG; CG; CG; CG; CG; CG; CG; CG; CG; CG; CG; CG; CG; CG; CG; CG; CG; CG; CG; CG; CG; CG; ; EH; EH; EH; EH; EH; EH; EH; EH; EH; EH; EH; EH; EH; EH; EH; EH; EH; EH EH EH EH EH EH  CG CG CG CG CG CG CG CG CG CG CG CG CG CG CG CG CG CG CG CG CG CG CG C CE CE CE CE CE CE CE CE CE CE CE CE CE CE CE CE CE CE CE CE CE E E  MG MG MG MG MG MG MG MG MG MG MG MG MG MG MG MG MG MG MG MG MG MG MG M MC MC MC MC MC MC MC MC MC MC MC MC MC MC MC MC MC MC MC MC MC C C  CE CE CE CE CE CE CE CE CE CE CE CE CE CE CE CE CE CE CE CE CE CE CE C CG CG CG CG CG CG CG CG CG CG CG CG CG CG CG CG CG CG CG CG CG G G  CH CH CH CH CH CH CH CH CH CH CH CH CH CH CH CH CH CH CH CH CH CH CH C CJ CJ CJ CJ CJ CJ CJ CJ CJ CJ CJ CJ CJ CJ CJ CJ CJ CJ CJ CJ CJ J J  <L0 <L0 <L0 <L0 <L0 <L0 <L0 <L0 <L0 <L0 <L0 <L0 <L0 <L0 <L0 <L0 <L0 <L0 <L0 <L0 <L0 <L0 <L0 <L <L2 <L2 <L2 <L2 <L2 <L2 <L2 <L2 <L2 <L2 <L2 <L2 <L2 <L2 <L2 <L2 <L2 <L2 <L2 <L2 <L2 L2 L2 L HL4 HL4 HL4 HL4 HL4 HL4 HL4 HL4 HL4 HL4 HL4 HL4 HL4 HL4 HL4 HL4 HL4 HL4 HL4 HL4 HL4 HL4 HL4 L JL5 JL5 JL5 JL5 JL5 JL5 JL5 JL5 JL5 JL5 JL5 JL5 JL5 JL5 JL5 JL5 JL5 J5 J5 J5 J5 J5 J5  H4 H4 H4 H4 H4 H4 H4 H4 H4 H4 H4 H4 H4 H4 H4 H4 H4 H4 H4 H4 H4 H4 H4 H H2 H2 H2 H2 H2 H2 H2 H2 H2 H2 H2 H2 H2 H2 H2 H2 H2 H2 H2 H2 H2 2 2  O4 O4 O4 O4 O4 O4 O4 O4 O4 O4 O4 O4 O4 O4 O4 O4 O4 O4 O4 O4 O4 O4 O4 O O0 O0 O0 O0 O0 O0 O0 O0 O0 O0 O0 O0 O0 O0 O0 O0 O0 O0 O0 O0 O0 0 0  H2 H2 H2 H2 H2 H2 H2 H2 H2 H2 H2 H2 H2 H2 H2 H2 H2 H2 H2 H2 H2 H2 H2 H H4 H4 H4 H4 H4 H4 H4 H4 H4 H4 H4 H4 H4 H4 H4 H4 H4 H4 H4 H4 H4 4 4  H5 H5 H5 H5 H5 H5 H5 H5 H5 H5 H5 H5 H5 H5 H5 H5 H5 H5 H5 H5 H5 H5 H5 H H7 H7 H7 H7 H7 H7 H7 H7 H7 H7 H7 H7 H7 H7 H7 H7 H7 H7 H7 H7 H7 7 7  TB9 TB9 TB9 TB9 TB9 TB9 TB9 TB9 TB9 TB9 TB9 TB9 TB9 TB9 TB9 TB9 TB9 TB9 TB9 TB9 TB9 TB9 TB9 T9 TC9 TC9 TC9 TC9 TC9 TC9 TC9 TC9 TC9 TC9 TC9 TC9 TC9 TC9 TC9 TC9 TC9 TC9 TC9 TC9 TC9 C9 C9 9 BE9 BE9 BE9 BE9 BE9 BE9 BE9 BE9 BE9 BE9 BE9 BE9 BE9 BE9 BE9 BE9 BE9 BE9 BE9 BE9 BE9 BE9 BE9 9 CG9 CG9 CG9 CG9 CG9 CG9 CG9 CG9 CG9 CG9 CG9 CG9 CG9 CG9 CG9 CG9 CG9 CG CG CG CG CG CG  BE< BE< BE< BE< BE< BE< BE< BE< BE< BE< BE< BE< BE< BE< BE< BE< BE< BE< BE< BE< BE< BE< BE< B< BC< BC< BC< BC< BC< BC< BC< BC< BC< BC< BC< BC< BC< BC< BC< BC< BC< BC< BC< BC< BC< C C  LE6 LE6 LE6 LE6 LE6 LE6 LE6 LE6 LE6 LE6 LE6 LE6 LE6 LE6 LE6 LE6 LE6 LE6 LE6 LE6 LE6 LE6 LE6 L6 LB6 LB6 LB6 LB6 LB6 LB6 LB6 LB6 LB6 LB6 LB6 LB6 LB6 LB6 LB6 LB6 LB6 LB6 LB6 LB6 LB6 B6 B6 6 BC6 BC6 BC6 BC6 BC6 BC6 BC6 BC6 BC6 BC6 BC6 BC6 BC6 BC6 BC6 BC6 BC6 BC6 BC6 BC6 BC6 BC6 BC6 B6 BE6 BE6 BE6 BE6 BE6 BE6 BE6 BE6 BE6 BE6 BE6 BE6 BE6 BE6 BE6 BE6 BE6 BE BE BE BE E E  BG9 BG9 BG9 BG9 BG9 BG9 BG9 BG9 BG9 BG9 BG9 BG9 BG9 BG9 BG9 BG9 BG9 BG9 BG9 BG9 BG9 BG9 BG9 B9 BH9 BH9 BH9 BH9 BH9 BH9 BH9 BH9 BH9 BH9 BH9 BH9 BH9 BH9 BH9 BH9 BH9 BH9 BH9 BH9 BH9 H H  ;J/ ;J/ ;J/ ;J/ ;J/ ;J/ ;J/ ;J/ ;J/ ;J/ ;J/ ;J/ ;J/ ;J/ ;J/ ;J/ ;J/ ;J/ ;J/ ;J/ ;J/ ;J/ ;J/ J/ <J/ <J/ <J/ <J/ <J/ <J/ <J/ <J/ <J/ <J/ <J/ <J/ <J/ <J/ <J/ <J/ <J/ <J/ <J/ <J/ <J/ <J <J J >J; >J; >J; >J; >J; >J; >J; >J; >J; >J; >J; >J; >J; >J; >J; >J; >J; >J; >J; >J; >J; >J; >J; J; @J; @J; @J; @J; @J; @J; @J; @J; @J; @J; @J; @J; @J; @J; @J; @J; @J; @; @; @; @; @ @  >N9 >N9 >N9 >N9 >N9 >N9 >N9 >N9 >N9 >N9 >N9 >N9 >N9 >N9 >N9 >N9 >N9 >N9 >N9 >N9 >N9 >N9 >N9 N9 <N9 <N9 <N9 <N9 <N9 <N9 <N9 <N9 <N9 <N9 <N9 <N9 <N9 <N9 <N9 <N9 <N9 <N9 <N9 <N9 <N9 < <  >G7 >G7 >G7 >G7 >G7 >G7 >G7 >G7 >G7 >G7 >G7 >G7 >G9 >G9 >G9 >G9 >G9 >G9 >G9 >G9 >G9 >G9 >G9 G9 ;G7 ;G7 ;G7 ;G7 ;G7 ;G7 ;G7 ;G7 ;G7 ;G7 ;G7 ;G7 ;G7 ;G7 ;G7 ;G7 ;G7 ;G7 ;G7 ;G7 ;G7 ;G7 ;G7 G7 <G7 <G7 <G7 <G7 <G7 <G7 <G7 <G7 <G7 <G7 <G7 <G7 <G7 <G7 <G7 <G7 <G7 <G7 <G7 <G7 <G7 <G7 <G7 G7 >G7 >G7 >G7 >G7 >G7 >G7 >G7 >G7 >G7 >G7 >G7 >G7 >G7 >G7 >G7 >G7 >G7 >7 >7 > > > >  @J6 @J6 @J6 @J6 @J6 @J6 @J6 @J6 @J6 @J6 @J6 @J6 @J6 @J6 @J6 @J6 @J6 @J6 @J6 @J6 @J6 @J6 @J6 J6 BJ6 BJ6 BJ6 BJ6 BJ6 BJ6 BJ6 BJ6 BJ6 BJ6 BJ6 BJ6 BJ6 BJ6 BJ6 BJ6 BJ6 BJ6 BJ6 BJ6 BJ6 B B  C@4 C@4 C@4 C@4 C@4 C@4 C@4 C@4 C@4 C@4 C@4 C@4 C@4 C@4 C@4 C@4 C@4 C@4 C@4 C@4 C@4 C@4 C@4 4 EB4 EB4 EB4 EB4 EB4 EB4 EB4 EB4 EB4 EB4 EB4 EB4 EB4 EB4 EB4 EB4 EB4 EB4 EB4 EB4 EB4 EB EB  GC( GC( GC( GC( GC( GC( GC( GC( GC( GC( GC( GC( GC( GC( GC( GC( GC( GC( GC( GC( GC( GC( GC( ( HE( HE( HE( HE( HE( HE( HE( HE( HE( HE( HE( HE( HE( HE( HE( HE( HE( HE( HE( HE( HE( HE HE  GC( GC( GC( GC( GC( GC( GC( GC( GC( GC( GC( GC( GC( GC( GC( GC( GC( GC( GC( GC( GC( GC( GC( ( EB( EB( EB( EB( EB( EB( EB( EB( EB( EB( EB( EB( EB( EB( EB( EB( EB( EB( EB( EB( EB( EB EB  GC( GC( GC( GC( GC( GC( GC( GC( GC( GC( GC( GC( GC( GC( GC( GC( GC( GC( GC( GC( GC( GC( GC( ( C@( C@( C@( C@( C@( C@( C@( C@( C@( C@( C@( C@( C@( C@( C@( C@( C@( C@( C@( C@( C@( C@ C@  EB4 EB4 EB4 EB4 EB4 EB4 EB4 EB4 EB4 EB4 EB4 EB4 EB4 EB4 EB4 EB4 EB4 EB4 EB4 EB4 EB4 EB4 EB4  GC2 GC2 GC2 GC2 GC2 GC2 GC2 GC2 GC2 GC2 GC2 GC2 GC2 GC2 GC2 GC2 GC2 GC2 GC2 GC2 GC2 GC2 GC2  HE0 HE0 HE0 HE0 HE0 HE0 HE0 HE0 HE0 HE0 HE0 HE0 HE0 HE0 HE0 HE0 HE0 HE0 HE0 HE0 HE0 HE0 HE0  JG/ JG/ JG/ JG/ JG/ JG/ JG/ JG/ JG/ JG/ JG/ JG/ JG/ JG/ JG/ JG/ JG/ JG/ JG/ JG/ JG/ JG/ JG/  LH- LH- LH- LH- LH- LH- LH- LH- LH- LH- LH- LH- LH- LH- LH- LH- LH- LH- LH- LH- LH- LH- LH- L LJ/ LJ/ LJ/ LJ/ LJ/ LJ/ LJ/ LJ/ LJ/ LJ/ LJ/ LJ/ LJ/ LJ/ LJ/ LJ/ LJ/ LJ/ LJ/ LJ/ LJ/ J/ J/  EL0 EL0 EL0 EL0 EL0 EL0 EL0 EL0 EL0 EL0 EL0 EL0 EL0 EL0 EL0 EL0 EL0 EL0 EL0 EL0 EL0 EL0 EL0  DM2 DM2 DM2 DM2 DM2 DM2 DM2 DM2 DM2 DM2 DM2 DM2 DM2 DM2 DM2 DM2 DM2 DM2 DM2 DM2 DM2 DM2 DM2  EL0 EL0 EL0 EL0 EL0 EL0 EL0 EL0 EL0 EL0 EL0 EL0 EL0 EL0 EL0 EL0 EL0 EL0 EL0 EL0 EL0 EL0 EL0 E EJ/ EJ/ EJ/ EJ/ EJ/ EJ/ EJ/ EJ/ EJ/ EJ/ EJ/ EJ/ EJ/ EJ/ EJ/ EJ/ EJ/ EJ/ EJ/ EJ/ EJ/ J/ J/  QL0 QL0 QL0 QL0 QL0 QL0 QL0 QL0 QL0 QL0 QL0 QL0 QL0 QL0 QL0 QL0 QL0 QL0 QL0 QL0 QL0 QL0 QL0 Q QH- QH- QH- QH- QH- QH- QH- QH- QH- QH- QH- QH- QH- QH- QH- QH- QH- QH- QH- QH- QH- H- H-  9J/ 9J/ 9J/ 9J/ 9J/ 9J/ 9J/ 9J/ 9J/ 9J/ 9J/ 9J/ 9J/ 9J/ 9J/ 9J/ 9J/ 9J/ 9J/ 9J/ 9J/ 9J/ 9J/ 9 9L0 9L0 9L0 9L0 9L0 9L0 9L0 9L0 9L0 9L0 9L0 9L0 9L0 9L0 9L0 9L0 9L0 9L0 9L0 9L0 9L0 L0 L0  9N2 9N2 9N2 9N2 9N2 9N2 9N2 9N2 9N2 9N2 9N2 9N2 9N2 9N2 9N2 9N2 9N2 9N2 9N2 9N2 9N2 9N2 9N2 9 9O4 9O4 9O4 9O4 9O4 9O4 9O4 9O4 9O4 9O4 9O4 9O4 9O4 9O4 9O4 9O4 9O4 9O4 9O4 9O4 9O4 O4 O4  >Q6 >Q6 >Q6 >Q6 >Q6 >Q6 >Q6 >Q6 >Q6 >Q6 >Q6 >Q6 >Q6 >Q6 >Q6 >Q6 >Q6 >Q6 >Q6 >Q6 >Q6 >Q6 >Q6 Q @Q7 @Q7 @Q7 @Q7 @Q7 @Q7 @Q7 @Q7 @Q7 @Q7 @Q7 @Q7 @Q7 @Q7 @Q7 @Q7 @Q7 @Q7 @Q7 @Q7 @Q7 @7 @7  BH9 BH9 BH9 BH9 BH9 BH9 BH9 BH9 BH9 BH9 BH9 BH9 BH9 BH9 BH9 BH9 BH9 BH9 BH9 BH9 BH9 BH9 BH9  CG; CG; CG; CG; CG; CG; CG; CG; CG; CG; CG; CG; CG; CG; CG; CG; CG; CG; CG; CG; CG; CG; CG;  BH9 BH9 BH9 BH9 BH9 BH9 BH9 BH9 BH9 BH9 BH9 BH9 BH9 BH9 BH9 BH9 BH9 BH9 BH9 BH9 BH9 BH9 BH9 H @H7 @H7 @H7 @H7 @H7 @H7 @H7 @H7 @H7 @H7 @H7 @H7 @H7 @H7 @H7 @H7 @H7 @H7 @H7 @H7 @H7 @7 @7  BH9 BH9 BH9 BH9 BH9 BH9 BH9 BH9 BH9 BH9 BH9 BH9 BH9 BH9 BH9 BH9 BH9 BH9 BH9 BH9 BH9 BH9 BH9 H >H6 >H6 >H6 >H6 >H6 >H6 >H6 >H6 >H6 >H6 >H6 >H6 >H6 >H6 >H6 >H6 >H6 >H6 >H6 >H6 >H6 >6 >6  @Q7 @Q7 @Q7 @Q7 @Q7 @Q7 @Q7 @Q7 @Q7 @Q7 @Q7 @Q7 @Q7 @Q7 @Q7 @Q7 @Q7 @Q7 @Q7 @Q7 @Q7 @Q7 @Q7 Q BQ9 BQ9 BQ9 BQ9 BQ9 BQ9 BQ9 BQ9 BQ9 BQ9 BQ9 BQ9 BQ9 BQ9 BQ9 BQ9 BQ9 BQ9 BQ9 BQ9 BQ9 BQ9 BQ9 Q CQ; CQ; CQ; CQ; CQ; CQ; CQ; CQ; CQ; CQ; CQ; CQ; CQ; CQ; CQ; CQ; CQ; CQ; CQ; CQ; CQ; CQ; CQ; Q EQ< EQ< EQ< EQ< EQ< EQ< EQ< EQ< EQ< EQ< EQ< EQ< EQ< EQ< EQ< EQ< EQ< EQ< EQ< EQ< EQ< EQ< EQ< Q GQ> GQ> GQ> GQ> GQ> GQ> GQ> GQ> GQ> GQ> GQ> GQ> GQ> GQ> GQ> GQ> GQ> GQ> GQ> GQ> GQ> GQ> GQ> Q> HQ> HQ> HQ> HQ> HQ> HQ> HQ> HQ> HQ> HQ> HQ> HQ> HQ> HQ> HQ> HQ> HQ> HQ> HQ> HQ> HQ> H H  GO2 GO2 GO2 GO2 GO2 GO2 GO2 GO2 GO2 GO2 GO2 GO2 GO2 GO2 GO2 GO2 GO2 GO2 GO2 GO2 GO2 GO2 GO2  EN4 EN4 EN4 EN4 EN4 EN4 EN4 EN4 EN4 EN4 EN4 EN4 EN4 EN4 EN4 EN4 EN4 EN4 EN4 EN4 EN4 EN4 EN4  GO2 GO2 GO2 GO2 GO2 GO2 GO2 GO2 GO2 GO2 GO2 GO2 GO2 GO2 GO2 GO2 GO2 GO2 GO2 GO2 GO2 GO2 GO2 O2 CO2 CO2 CO2 CO2 CO2 CO2 CO2 CO2 CO2 CO2 CO2 CO2 CO2 CO2 CO2 CO2 CO2 CO2 CO2 CO2 CO2 CO CO O EO2 EO2 EO2 EO2 EO2 EO2 EO2 EO2 EO2 EO2 EO2 EO2 EO2 EO2 EO2 EO2 EO2 EO2 EO2 EO2 EO2 EO2 EO2 O2 GO2 GO2 GO2 GO2 GO2 GO2 GO2 GO2 GO2 GO2 GO2 GO2 GO2 GO2 GO2 GO2 GO2 GO2 GO2 GO2 GO2 G G  EN< EN< EN< EN< EN< EN< EN< EN< EN< EN< EN< EN< EN< EN< EN< EN< EN< EN< EN< EN< EN< EN< EN< < CL< CL< CL< CL< CL< CL< CL< CL< CL< CL< CL< CL< CL< CL< CL< CL< CL< CL< CL< CL< CL< CL< CL< < EN< EN< EN< EN< EN< EN< EN< EN< EN< EN< EN< EN< EN< EN< EN< EN< EN< EN< EN< EN< EN< EN< EN< < BQ< BQ< BQ< BQ< BQ< BQ< BQ< BQ< BQ< BQ< BQ< BQ< BQ< BQ< BQ< BQ< BQ< BQ< BQ< BQ< BQ< BQ< BQ< < CJ< CJ< CJ< CJ< CJ< CJ< CJ< CJ< CJ< CJ< CJ< CJ< CJ< CJ< CJ< CJ< CJ< CJ< CJ< CJ< CJ< CJ< CJ< C< CL< CL< CL< CL< CL< CL< CL< CL< CL< CL< CL< CL< CL< CL< CL< CL< CL< CL< CL< CL< CL< L L  OJ; OJ; OJ; OJ; OJ; OJ; OJ; OJ; OJ; OJ; OJ; OJ; OJ; OJ; OJ; OJ; OJ; OJ; OJ; OJ; OJ; OJ; OJ;  NH9 NH9 NH9 NH9 NH9 NH9 NH9 NH9 NH9 NH9 NH9 NH9 NH9 NH9 NH9 NH9 NH9 NH9 NH9 NH9 NH9 NH9 NH9  OJ; OJ; OJ; OJ; OJ; OJ; OJ; OJ; OJ; OJ; OJ; OJ; OJ; OJ; OJ; OJ; OJ; OJ; OJ; OJ; OJ; OJ; OJ; O OG7 OG7 OG7 OG7 OG7 OG7 OG7 OG7 OG7 OG7 OG7 OG7 OG7 OG7 OG7 OG7 OG7 OG7 OG7 OG7 OG7 OG7 OG7 O OH9 OH9 OH9 OH9 OH9 OH9 OH9 OH9 OH9 OH9 OH9 OH9 OH9 OH9 OH9 OH9 OH9 OH9 OH9 OH9 OH9 OH9 OH9 O OJ; OJ; OJ; OJ; OJ; OJ; OJ; OJ; OJ; OJ; OJ; OJ; OJ; OJ; OJ; OJ; OJ; OJ; OJ; OJ; OJ; J; J;  NH9 NH9 NH9 NH9 NH9 NH9 NH9 NH9 NH9 NH9 NH9 NH9 NH9 NH9 NH9 NH9 NH9 NH9 NH9 NH9 NH9 NH9 NH9 N NG7 NG7 NG7 NG7 NG7 NG7 NG7 NG7 NG7 NG7 NG7 NG7 NG7 NG7 NG7 NG7 NG7 NG7 NG7 NG7 NG7 G7 G7  BH9 BH9 BH9 BH9 BH9 BH9 BH9 BH9 BH9 BH9 BH9 BH9 BH9 BH9 BH9 BH9 BH9 BH9 BH9 BH9 BH9 BH9 BH9 B BE6 BE6 BE6 BE6 BE6 BE6 BE6 BE6 BE6 BE6 BE6 BE6 BE6 BE6 BE6 BE6 BE6 BE6 BE6 BE6 BE6 BE6 BE6 B BG7 BG7 BG7 BG7 BG7 BG7 BG7 BG7 BG7 BG7 BG7 BG7 BG7 BG7 BG7 BG7 BG7 BG7 BG7 BG7 BG7 BG7 BG7 BG BG9 BG9 BG9 BG9 BG9 BG9 BG9 BG9 BG9 BG9 BG9 BG9 BG9 BG9 BG9 BG9 BG9 BG9 BG9 BG9 BG9 9 9  @L7 @L7 @L7 @L7 @L7 @L7 @L7 @L7 @L7 @L7 @L7 @L7 @L7 @L7 @L7 @L7 @L7 @L7 @L7 @L7 @L7 @L7 @L7 @L @L6 @L6 @L6 @L6 @L6 @L6 @L6 @L6 @L6 @L6 @L6 @L6 @L6 @L6 @L6 @L6 @L6 @L6 @L6 @L6 @L6 L6 L6 L GL7 GL7 GL7 GL7 GL7 GL7 GL7 GL7 GL7 GL7 GL7 GL7 GL7 GL7 GL7 GL7 GL7 GL7 GL7 GL7 GL7 GL7 GL7 GL GL4 GL4 GL4 GL4 GL4 GL4 GL4 GL4 GL4 GL4 GL4 GL4 GL4 GL4 GL4 GL4 GL4 GL4 GL4 GL4 GL4 L4 L4 L EL6 EL6 EL6 EL6 EL6 EL6 EL6 EL6 EL6 EL6 EL6 EL6 EL6 EL6 EL6 EL6 EL6 EL6 EL6 EL6 EL6 EL6 EL6 EL EL7 EL7 EL7 EL7 EL7 EL7 EL7 EL7 EL7 EL7 EL7 EL7 EL7 EL7 EL7 EL7 EL7 EL7 EL7 EL7 EL7 7 7  JJ6 JJ6 JJ6 JJ6 JJ6 JJ6 JJ6 JJ6 JJ6 JJ6 JJ6 JJ6 JJ6 JJ6 JJ6 JJ6 JJ6 JJ6 JJ6 JJ6 JJ6 JJ6 JJ6 J JH4 JH4 JH4 JH4 JH4 JH4 JH4 JH4 JH4 JH4 JH4 JH4 JH4 JH4 JH4 JH4 JH4 JH4 JH4 JH4 JH4 JH4 JH4 J JG6 JG6 JG6 JG6 JG6 JG6 JG6 JG6 JG6 JG6 JG6 JG6 JG6 JG6 JG6 JG6 JG6 JG6 JG6 JG6 JG6 JG6 JG6 J JE2 JE2 JE2 JE2 JE2 JE2 JE2 JE2 JE2 JE2 JE2 JE2 JE2 JE2 JE2 JE2 JE2 JE2 JE2 JE2 JE2 JE2 JE2 J JC4 JC4 JC4 JC4 JC4 JC4 JC4 JC4 JC4 JC4 JC4 JC4 JC4 JC4 JC4 JC4 JC4 JC4 JC4 JC4 JC4 JC4 JC4 JC JC6 JC6 JC6 JC6 JC6 JC6 JC6 JC6 JC6 JC6 JC6 JC6 JC6 JC6 JC6 JC6 JC6 JC6 JC6 JC6 JC6 6 6  HH4 HH4 HH4 HH4 HH4 HH4 HH4 HH4 HH4 HH4 HH4 HH4 HH4 HH4 HH4 HH4 HH4 HH4 HH4 HH4 HH4 HH4 HH4 H GH2 GH2 GH2 GH2 GH2 GH2 GH2 GH2 GH2 GH2 GH2 GH2 GH2 GH2 GH2 GH2 GH2 GH2 GH2 GH2 GH2 GH2 GH2 H EH4 EH4 EH4 EH4 EH4 EH4 EH4 EH4 EH4 EH4 EH4 EH4 EH4 EH4 EH4 EH4 EH4 EH4 EH4 EH4 EH4 EH4 EH4 H CH0 CH0 CH0 CH0 CH0 CH0 CH0 CH0 CH0 CH0 CH0 CH0 CH0 CH0 CH0 CH0 CH0 CH0 CH0 CH0 CH0 CH0 CH0 H BH2 BH2 BH2 BH2 BH2 BH2 BH2 BH2 BH2 BH2 BH2 BH2 BH2 BH2 BH2 BH2 BH2 BH2 BH2 BH2 BH2 BH2 BH2 BH BH4 BH4 BH4 BH4 BH4 BH4 BH4 BH4 BH4 BH4 BH4 BH4 BH4 BH4 BH4 BH4 BH4 BH4 BH4 BH4 BH4 4 4  GG2 GG2 GG2 GG2 GG2 GG2 GG2 GG2 GG2 GG2 GG2 GG2 GG2 GG2 GG2 GG2 GG2 GG2 GG2 GG2 GG2 GG2 GG2 G GE0 GE0 GE0 GE0 GE0 GE0 GE0 GE0 GE0 GE0 GE0 GE0 GE0 GE0 GE0 GE0 GE0 GE0 GE0 GE0 GE0 GE0 GE0 G GC2 GC2 GC2 GC2 GC2 GC2 GC2 GC2 GC2 GC2 GC2 GC2 GC2 GC2 GC2 GC2 GC2 GC2 GC2 GC2 GC2 GC2 GC2 G GB/ GB/ GB/ GB/ GB/ GB/ GB/ GB/ GB/ GB/ GB/ GB/ GB/ GB/ GB/ GB/ GB/ GB/ GB/ GB/ GB/ GB/ GB/ G G@0 G@0 G@0 G@0 G@0 G@0 G@0 G@0 G@0 G@0 G@0 G@0 G@0 G@0 G@0 G@0 G@0 G@0 G@0 G@0 G@0 G@0 G@0 G@ G@2 G@2 G@2 G@2 G@2 G@2 G@2 G@2 G@2 G@2 G@2 G@2 G@2 G@2 G@2 G@2 G@2 G@2 G@2 G@2 G@2 2 2  EE0 EE0 EE0 EE0 EE0 EE0 EE0 EE0 EE0 EE0 EE0 EE0 EE0 EE0 EE0 EE0 EE0 EE0 EE0 EE0 EE0 EE0 EE0 E CE/ CE/ CE/ CE/ CE/ CE/ CE/ CE/ CE/ CE/ CE/ CE/ CE/ CE/ CE/ CE/ CE/ CE/ CE/ CE/ CE/ CE/ CE/ E BE0 BE0 BE0 BE0 BE0 BE0 BE0 BE0 BE0 BE0 BE0 BE0 BE0 BE0 BE0 BE0 BE0 BE0 BE0 BE0 BE0 BE0 BE0 E @E- @E- @E- @E- @E- @E- @E- @E- @E- @E- @E- @E- @E- @E- @E- @E- @E- @E- @E- @E- @E- @E- @E- E >E/ >E/ >E/ >E/ >E/ >E/ >E/ >E/ >E/ >E/ >E/ >E/ >E/ >E/ >E/ >E/ >E/ >E/ >E/ >E/ >E/ >E/ >E/ >E >E0 >E0 >E0 >E0 >E0 >E0 >E0 >E0 >E0 >E0 >E0 >E0 >E0 >E0 >E0 >E0 >E0 >E0 >E0 >E0 >E0 0 0  CC/ CC/ CC/ CC/ CC/ CC/ CC/ CC/ CC/ CC/ CC/ CC/ CC/ CC/ CC/ CC/ CC/ CC/ CC/ CC/ CC/ CC/ CC/ C CB- CB- CB- CB- CB- CB- CB- CB- CB- CB- CB- CB- CB- CB- CB- CB- CB- CB- CB- CB- CB- CB- CB- C C@/ C@/ C@/ C@/ C@/ C@/ C@/ C@/ C@/ C@/ C@/ C@/ C@/ C@/ C@/ C@/ C@/ C@/ C@/ C@/ C@/ C@/ C@/ C C>+ C>+ C>+ C>+ C>+ C>+ C>+ C>+ C>+ C>+ C>+ C>+ C>+ C>+ C>+ C>+ C>+ C>+ C>+ C>+ C>+ C>+ C>+ C C=- C=- C=- C=- C=- C=- C=- C=- C=- C=- C=- C=- C=- C=- C=- C=- C=- C=- C=- C=- C=- C=- C=- =- E=- E=- E=- E=- E=- E=- E=- E=- E=- E=- E=- E=- E=- E=- E=- E=- E=- E=- E=- E=- E=- E E  CI9 CI9 CI9 CI9 CI9 CI9 CI9 CI9 CI9 CI9 CI9 CI9 CI9 CI9 CI9 CI9 CI9 CI9 CI9 CI9 CI9 CI9 CI9  BJ; BJ; BJ; BJ; BJ; BJ; BJ; BJ; BJ; BJ; BJ; BJ; BJ; BJ; BJ; BJ; BJ; BJ; BJ; BJ; BJ; BJ; BJ;  CL9 CL9 CL9 CL9 CL9 CL9 CL9 CL9 CL9 CL9 CL9 CL9 CL9 CL9 CL9 CL9 CL9 CL9 CL9 CL9 CL9 CL9 CL9 L9 @L9 @L9 @L9 @L9 @L9 @L9 @L9 @L9 @L9 @L9 @L9 @L9 @L9 @L9 @L9 @L9 @L9 @L9 @L9 @L9 @L9 @L @L L 9L1 9L1 9L1 9L1 9L1 9L1 9L1 9L1 9L1 9L1 9L1 9L1 9L1 9L1 9L1 9L1 9L1 9L1 9L1 9L1 9L1 9L1 9L1 1 EN1 EN1 EN1 EN1 EN1 EN1 EN1 EN1 EN1 EN1 EN1 EN1 EN1 EN1 EN1 EN1 EN1 EN1 EN1 EN1 EN1 EN EN  CL9 CL9 CL9 CL9 CL9 CL9 CL9 CL9 CL9 CL9 CL9 CL9 CL9 CL9 CL9 CL9 CL9 CL9 CL9 CL9 CL9 CL9 CL9 9 BJ9 BJ9 BJ9 BJ9 BJ9 BJ9 BJ9 BJ9 BJ9 BJ9 BJ9 BJ9 BJ9 BJ9 BJ9 BJ9 BJ9 BJ9 BJ9 BJ9 BJ9 BJ BJ  CL9 CL9 CL9 CL9 CL9 CL9 CL9 CL9 CL9 CL9 CL9 CL9 CL9 CL9 CL9 CL9 CL9 CL9 CL9 CL9 CL9 CL9 CL9 9 @I9 @I9 @I9 @I9 @I9 @I9 @I9 @I9 @I9 @I9 @I9 @I9 @I9 @I9 @I9 @I9 @I9 @I9 @I9 @I9 @I9 @I @I  BJ2 BJ2 BJ2 BJ2 BJ2 BJ2 BJ2 BJ2 BJ2 BJ2 BJ2 BJ2 BJ2 BJ2 BJ2 BJ2 BJ2 BJ2 BJ2 BJ2 BJ2 BJ2 BJ2 B2 BQ2 BQ2 BQ2 BQ2 BQ2 BQ2 BQ2 BQ2 BQ2 BQ2 BQ2 BQ2 BQ2 BQ2 BQ2 BQ2 BQ2 BQ2 BQ2 BQ2 BQ2 Q Q  NH> NH> NH> NH> NH> NH> NH> NH> NH> NH> NH> NH> NH> NH> NH> NH> NH> NH> NH> NH> NH> NH> NH>  OG@ OG@ OG@ OG@ OG@ OG@ OG@ OG@ OG@ OG@ OG@ OG@ OG@ OG@ OG@ OG@ OG@ OG@ OG@ OG@ OG@ OG@ OG@  QH> QH> QH> QH> QH> QH> QH> QH> QH> QH> QH> QH> QH> QH> QH> QH> QH> QH> QH> QH> QH> QH> QH> Q> QE> QE> QE> QE> QE> QE> QE> QE> QE> QE> QE> QE> QE> QE> QE> QE> QE> QE> QE> QE> QE> QE QE Q Q>6 Q>6 Q>6 Q>6 Q>6 Q>6 Q>6 Q>6 Q>6 Q>6 Q>6 Q>6 Q>6 Q>6 Q>6 Q>6 Q>6 Q>6 Q>6 Q>6 Q>6 Q>6 Q>6 6 SJ6 SJ6 SJ6 SJ6 SJ6 SJ6 SJ6 SJ6 SJ6 SJ6 SJ6 SJ6 SJ6 SJ6 SJ6 SJ6 SJ6 SJ6 SJ6 SJ6 SJ6 SJ SJ  QH> QH> QH> QH> QH> QH> QH> QH> QH> QH> QH> QH> QH> QH> QH> QH> QH> QH> QH> QH> QH> QH> QH> > OG> OG> OG> OG> OG> OG> OG> OG> OG> OG> OG> OG> OG> OG> OG> OG> OG> OG> OG> OG> OG> OG OG  QH> QH> QH> QH> QH> QH> QH> QH> QH> QH> QH> QH> QH> QH> QH> QH> QH> QH> QH> QH> QH> QH> QH> > NE> NE> NE> NE> NE> NE> NE> NE> NE> NE> NE> NE> NE> NE> NE> NE> NE> NE> NE> NE> NE> NE NE  OG7 OG7 OG7 OG7 OG7 OG7 OG7 OG7 OG7 OG7 OG7 OG7 OG7 OG7 OG7 OG7 OG7 OG7 OG7 OG7 OG7 OG7 OG7 OG OG9 OG9 OG9 OG9 OG9 OG9 OG9 OG9 OG9 OG9 OG9 OG9 OG9 OG9 OG9 OG9 OG9 OG9 OG9 OG9 OG9 9 9  CC; CC; CC; CC; CC; CC; CC; CC; CC; CC; CC; CC; CC; CC; CC; CC; CC; CC; CC; CC; CC; CC; CC;  BE< BE< BE< BE< BE< BE< BE< BE< BE< BE< BE< BE< BE< BE< BE< BE< BE< BE< BE< BE< BE< BE< BE<  CG; CG; CG; CG; CG; CG; CG; CG; CG; CG; CG; CG; CG; CG; CG; CG; CG; CG; CG; CG; CG; CG; CG; C CH9 CH9 CH9 CH9 CH9 CH9 CH9 CH9 CH9 CH9 CH9 CH9 CH9 CH9 CH9 CH9 CH9 CH9 CH9 CH9 CH9 H9 H9  CJ; CJ; CJ; CJ; CJ; CJ; CJ; CJ; CJ; CJ; CJ; CJ; CJ; CJ; CJ; CJ; CJ; CJ; CJ; CJ; CJ; CJ; CJ; CJ CJ7 CJ7 CJ7 CJ7 CJ7 CJ7 CJ7 CJ7 CJ7 CJ7 CJ7 CJ7 CJ7 CJ7 CJ7 CJ7 CJ7 CJ7 CJ7 CJ7 CJ7 7 7  MH9 MH9 MH9 MH9 MH9 MH9 MH9 MH9 MH9 MH9 MH9 MH9 MH9 MH9 MH9 MH9 MH9 MH9 MH9 MH9 MH9 MH9 MH9 M MG; MG; MG; MG; MG; MG; MG; MG; MG; MG; MG; MG; MG; MG; MG; MG; MG; MG; MG; MG; MG; G; G;  GE< GE< GE< GE< GE< GE< GE< GE< GE< GE< GE< GE< GE< GE< GE< GE< GE< GE< GE< GE< GE< GE< GE< G GC> GC> GC> GC> GC> GC> GC> GC> GC> GC> GC> GC> GC> GC> GC> GC> GC> GC> GC> GC> GC> C> C>  HO@ HO@ HO@ HO@ HO@ HO@ HO@ HO@ HO@ HO@ HO@ HO@ HO@ HO@ HO@ HO@ HO@ HO@ HO@ HO@ HO@ HO@ HO@ O@ GO@ GO@ GO@ GO@ GO@ GO@ GO@ GO@ GO@ GO@ GO@ GO@ GO@ GO@ GO@ GO@ GO@ GO@ GO@ GO@ GO@ GO GO O HO> HO> HO> HO> HO> HO> HO> HO> HO> HO> HO> HO> HO> HO> HO> HO> HO> HO> HO> HO> HO> HO> HO> O> JO> JO> JO> JO> JO> JO> JO> JO> JO> JO> JO> JO> JO> JO> JO> JO> JO> JO> JO> JO> JO> JO JO O LO< LO< LO< LO< LO< LO< LO< LO< LO< LO< LO< LO< LO< LO< LO< LO< LO< LO< LO< LO< LO< LO< LO< O< EO< EO< EO< EO< EO< EO< EO< EO< EO< EO< EO< EO< EO< EO< EO< EO< EO< EO< EO< EO< EO< EO EO O GO> GO> GO> GO> GO> GO> GO> GO> GO> GO> GO> GO> GO> GO> GO> GO> GO> GO> GO> GO> GO> GO> GO> GO> GO> GO> GO> GO> GO> GO> GO> GO> GO> GO> GO> GO> GO> GO> GO> GO> GO> GO> GO> GO> GO> > > > HS> HS> HS> HS> HS> HS> HS> HS> HS> HS> HS> HS> HS> HS> HS> HS> HS> HS> HS> HS> HS> HS> HS> H> HQ> HQ> HQ> HQ> HQ> HQ> HQ> HQ> HQ> HQ> HQ> HQ> HQ> HQ> HQ> HQ> HQ> HQ HQ HQ HQ Q Q  EO2 EO2 EO2 EO2 EO2 EO2 EO2 EO2 EO2 EO2 EO2 EO2 EO2 EO2 EO2 EO2 EO2 EO2 EO2 EO2 EO2 EO2 EO2 E2 EN2 EN2 EN2 EN2 EN2 EN2 EN2 EN2 EN2 EN2 EN2 EN2 EN2 EN2 EN2 EN2 EN2 EN2 EN2 EN2 EN2 N N  CO+ CO+ CO+ CO+ CO+ CO+ CO+ CO+ CO+ CO+ CO+ CO+ CO+ CO+ CO+ CO+ CO+ CO+ CO+ CO+ CO+ CO+ CO+ CO+ CO+ CO+ CO+ CO+ CO+ CO+ CO+ CO+ CO+ CO+ CO+ CO+ CO+ CO+ CO+ CO+ CO+ CO+ CO+ CO+ CO+ C+ C+ C+ CQ+ CQ+ CQ+ CQ+ CQ+ CQ+ CQ+ CQ+ CQ+ CQ+ CQ+ CQ+ CO+ CO+ CO+ CO+ CO+ CO+ CO+ CO+ CO+ CO+ CO+ CO+ CN+ CN+ CN+ CN+ CN+ CN+ CN+ CN+ CN+ CN+ CN+ CN+ CN+ CN+ CN+ CN+ CN+ N N N N N N  O O O O O O O O O O O O O O O O O O O O O O O O O O O O O O O O O O O O O O O O O O O O O    C C C C C C C C C C C C C C C C C C C C C C C  E E E E E E E E E E E E E E E E E E E E E E E  E E E E E E E E E E E E G G G G G G G G G G G G E E E E E E E E E E E E G G G G G G G G G G G G E E E E E E E E E E E E G G G G G G G G G G G G C C C C C C C C C C C C E E E E E E E E E E E E OG7 OG7 OG7 OG7 OG7 OG7 OG7 OG7 OG7 OG7 OG7 OG7 OG7 OG7 OG7 OG7 OG7 OG7 OG7 OG7 OG7 OG7 OG7 OG7 OG7 OG7 OG7 OG7 OG7 OG7 OG7 OG7 OG7 OG7 OG7 OG7 OG7 OG7 OG7 OG7 OG7 OG7 OG7 OG7 OG7 7 7 7 QH7 QH7 QH7 QH7 QH7 QH7 QH7 QH7 QH7 QH7 QH7 QH7 OG7 OG7 OG7 OG7 OG7 OG7 OG7 OG7 OG7 OG7 OG7 OG7 NE7 NE7 NE7 NE7 NE7 NE7 NE7 NE7 NE7 NE7 NE7 NE7 NE7 NE7 NE7 NE7 NE7 NE NE NE NE NE NE  OG OG OG OG OG OG OG OG OG OG OG OG OG OG OG OG OG OG OG OG OG OG OG O OH OH OH OH OH OH OH OH OH OH OH OH OH OH OH OH OH OH OH OH OH H H  CG CG CG CG CG CG CG CG CG CG CG CG CG CG CG CG CG CG CG CG CG CG CG  EH EH EH EH EH EH EH EH EH EH EH EH EH EH EH EH EH EH EH EH EH EH EH  EH EH EH EH EH EH EH EH EH EH EH EH GJ GJ GJ GJ GJ GJ GJ GJ GJ GJ GJ GJ EH EH EH EH EH EH EH EH EH EH EH EH GJ GJ GJ GJ GJ GJ GJ GJ GJ GJ GJ GJ EH EH EH EH EH EH EH EH EH EH EH EH GJ GJ GJ GJ GJ GJ GJ GJ GJ GJ GJ GJ CG CG CG CG CG CG CG CG CG CG CG CG EH EH EH EH EH EH EH EH EH EH EH EH GJ+ GJ+ GJ+ GJ+ GJ+ GJ+ GJ+ GJ+ GJ+ GJ+ GJ+ GJ+ GJ+ GJ+ GJ+ GJ+ GJ+ GJ+ GJ+ GJ+ GJ+ GJ+ GJ+ J+ JJ+ JJ+ JJ+ JJ+ JJ+ JJ+ JJ+ JJ+ JJ+ JJ+ JJ+ JJ+ JJ+ JJ+ JJ+ JJ+ JJ+ JJ+ JJ+ JJ+ JJ+ JJ JJ J HJ7 HJ7 HJ7 HJ7 HJ7 HJ7 HJ7 HJ7 HJ7 HJ7 HJ7 HJ7 HJ7 HJ7 HJ7 HJ7 HJ7 HJ7 HJ7 HJ7 HJ7 HJ7 HJ7 J7 GJ7 GJ7 GJ7 GJ7 GJ7 GJ7 GJ7 GJ7 GJ7 GJ7 GJ7 GJ7 GJ7 GJ7 GJ7 GJ7 GJ7 GJ7 GJ7 GJ7 GJ7 GJ GJ J EJ7 EJ7 EJ7 EJ7 EJ7 EJ7 EJ7 EJ7 EJ7 EJ7 EJ7 EJ7 EJ7 EJ7 EJ7 EJ7 EJ7 EJ7 EJ7 EJ7 EJ7 EJ7 EJ7 J7 CJ7 CJ7 CJ7 CJ7 CJ7 CJ7 CJ7 CJ7 CJ7 CJ7 CJ7 CJ7 CJ7 CJ7 CJ7 CJ7 CJ7 CJ7 CJ7 CJ7 CJ7 CJ CJ J BJ- BJ- BJ- BJ- BJ- BJ- BJ- BJ- BJ- BJ- BJ- BJ- BJ- BJ- BJ- BJ- BJ- BJ- BJ- BJ- BJ- BJ- BJ- J- @J- @J- @J- @J- @J- @J- @J- @J- @J- @J- @J- @J- @J- @J- @J- @J- @J- @J- @J- @J- @J- @J @J J >J7 >J7 >J7 >J7 >J7 >J7 >J7 >J7 >J7 >J7 >J7 >J7 >J7 >J7 >J7 >J7 >J7 >J7 >J7 >J7 >J7 >J7 >J7 J7 <J7 <J7 <J7 <J7 <J7 <J7 <J7 <J7 <J7 <J7 <J7 <J7 <J7 <J7 <J7 <J7 <J7 <J7 <J7 <J7 <J7 <J <J J ;J7 ;J7 ;J7 ;J7 ;J7 ;J7 ;J7 ;J7 ;J7 ;J7 ;J7 ;J7 ;J7 ;J7 ;J7 ;J7 ;J7 ;J7 ;J7 ;J7 ;J7 ;J7 ;J7 J7 9J7 9J7 9J7 9J7 9J7 9J7 9J7 9J7 9J7 9J7 9J7 9J7 9J7 9J7 9J7 9J7 9J7 9J7 9J7 9J7 9J7 9J 9J J 7J/ 7J/ 7J/ 7J/ 7J/ 7J/ 7J/ 7J/ 7J/ 7J/ 7J/ 7J/ 7J/ 7J/ 7J/ 7J/ 7J/ 7J/ 7J/ 7J/ 7J/ 7J/ 7J/ 7/ 7C/ 7C/ 7C/ 7C/ 7C/ 7C/ 7C/ 7C/ 7C/ 7C/ 7C/ 7C/ 7C/ 7C/ 7C/ 7C/ 7C/ 7C/ 7C/ 7C/ 7C/ C C  E7 E7 E7 E7 E7 E7 E7 E7 E7 E7 E7 E7 E7 E7 E7 E7 E7 E7 E7 E7 E7 E7 E7 7 G7 G7 G7 G7 G7 G7 G7 G7 G7 G7 G7 G7 G7 G7 G7 G7 G7 G7 G7 G7 G7 G G  H7 H7 H7 H7 H7 H7 H7 H7 H7 H7 H7 H7 H7 H7 H7 H7 H7 H7 H7 H7 H7 H7 H7 7 J7 J7 J7 J7 J7 J7 J7 J7 J7 J7 J7 J7 J7 J7 J7 J7 J7 J7 J7 J7 J7 J J  L0 L0 L0 L0 L0 L0 L0 L0 L0 L0 L0 L0 L0 L0 L0 L0 L0 L0 L0 L0 L0 L0 L0 0 N0 N0 N0 N0 N0 N0 N0 N0 N0 N0 N0 N0 N0 N0 N0 N0 N0 N0 N0 N0 N0 N N  O4 O4 O4 O4 O4 O4 O4 O4 O4 O4 O4 O4 O4 O4 O4 O4 O4 O4 O4 O4 O4 O4 O4 4 Q4 Q4 Q4 Q4 Q4 Q4 Q4 Q4 Q4 Q4 Q4 Q4 Q4 Q4 Q4 Q4 Q4 Q4 Q4 Q4 Q4 Q Q  S- S- S- S- S- S- S- S- S- S- S- S- S- S- S- S- S- S- S- S- S- S- S- - T- T- T- T- T- T- T- T- T- T- T- T- T- T- T- T- T- T- T- T- T- T T  JN2 JN2 JN2 JN2 JN2 JN2 JN2 JN2 JN2 JN2 JN2 JN2 JN2 JN2 JN2 JN2 JN2 JN2 JN2 JN2 JN2 JN2 JN2 JN2 JN2 JN2 JN2 JN2 JN2 JN2 JN2 JN2 JN2 JN2 JN2 JN2 JN2 JN2 JN2 JN2 JN2 JN2 JN2 JN2 JN2 N2 N2 N2 LN2 LN2 LN2 LN2 LN2 LN2 LN2 LN2 LN2 LN2 LN2 LN2 JN2 JN2 JN2 JN2 JN2 JN2 JN2 JN2 JN2 JN2 JN2 JN2 IN2 IN2 IN2 IN2 IN2 IN2 IN2 IN2 IN2 IN2 IN2 IN2 IN2 IN2 IN2 IN2 IN2 I I I I I I  J J J J J J J J J J J J J J J J J J J J J J J J J J J J J J J J J J J J J J J J J J J J J    > > > > > > > > > > > > > > > > > > > > > > >  @ @ @ @ @ @ @ @ @ @ @ @ @ @ @ @ @ @ @ @ @ @ @  @ @ @ @ @ @ @ @ @ @ @ @ B B B B B B B B B B B B @ @ @ @ @ @ @ @ @ @ @ @ B B B B B B B B B B B B @ @ @ @ @ @ @ @ @ @ @ @ B B B B B B B B B B B B > > > > > > > > > > > > @ @ @ @ @ @ @ @ @ @ @ @ BJ> BJ> BJ> BJ> BJ> BJ> BJ> BJ> BJ> BJ> BJ> BJ> BJ> BJ> BJ> BJ> BJ> BJ> BJ> BJ> BJ> BJ> BJ> BJ> BJ> BJ> BJ> BJ> BJ> BJ> BJ> BJ> BJ> BJ> BJ> BJ> BJ> BJ> BJ> BJ> BJ> BJ> BJ> BJ> BJ> > > > CL> CL> CL> CL> CL> CL> CL> CL> CL> CL> CL> CL> BJ> BJ> BJ> BJ> BJ> BJ> BJ> BJ> BJ> BJ> BJ> BJ> @I> @I> @I> @I> @I> @I> @I> @I> @I> @I> @I> @I> @I> @I> @I> @I> @I> @I @I @I @I @I @I  BJ BJ BJ BJ BJ BJ BJ BJ BJ BJ BJ BJ BJ BJ BJ BJ BJ BJ BJ BJ BJ BJ BJ J CJ CJ CJ CJ CJ CJ CJ CJ CJ CJ CJ CJ CJ CJ CJ CJ CJ CJ CJ CJ CJ C C  B> B> B> B> B> B> B> B> B> B> B> B> B> B> B> B> B> B> B> B> B> B> B>  C@ C@ C@ C@ C@ C@ C@ C@ C@ C@ C@ C@ C@ C@ C@ C@ C@ C@ C@ C@ C@ C@ C@  C@ C@ C@ C@ C@ C@ C@ C@ C@ C@ C@ C@ EB EB EB EB EB EB EB EB EB EB EB EB C@ C@ C@ C@ C@ C@ C@ C@ C@ C@ C@ C@ EB EB EB EB EB EB EB EB EB EB EB EB C@ C@ C@ C@ C@ C@ C@ C@ C@ C@ C@ C@ EB EB EB EB EB EB EB EB EB EB EB EB B> B> B> B> B> B> B> B> B> B> B> B> C@ C@ C@ C@ C@ C@ C@ C@ C@ C@ C@ C@ EB& EB& EB& EB& EB& EB& EB& EB& EB& EB& EB& EB& EB& EB& EB& EB& EB& EB& EB& EB& EB& EB& EB& E& EE& EE& EE& EE& EE& EE& EE& EE& EE& EE& EE& EE& EE& EE& EE& EE& EE& EE& EE& EE& EE& EE EE E EC2 EC2 EC2 EC2 EC2 EC2 EC2 EC2 EC2 EC2 EC2 EC2 EC2 EC2 EC2 EC2 EC2 EC2 EC2 EC2 EC2 EC2 EC2 E2 EB2 EB2 EB2 EB2 EB2 EB2 EB2 EB2 EB2 EB2 EB2 EB2 EB2 EB2 EB2 EB2 EB2 EB2 EB2 EB2 EB2 EB EB E E@2 E@2 E@2 E@2 E@2 E@2 E@2 E@2 E@2 E@2 E@2 E@2 E@2 E@2 E@2 E@2 E@2 E@2 E@2 E@2 E@2 E@2 E@2 E2 E>2 E>2 E>2 E>2 E>2 E>2 E>2 E>2 E>2 E>2 E>2 E>2 E>2 E>2 E>2 E>2 E>2 E>2 E>2 E>2 E>2 E> E> E E=( E=( E=( E=( E=( E=( E=( E=( E=( E=( E=( E=( E=( E=( E=( E=( E=( E=( E=( E=( E=( E=( E=( E( E;( E;( E;( E;( E;( E;( E;( E;( E;( E;( E;( E;( E;( E;( E;( E;( E;( E;( E;( E;( E;( E; E; E E92 E92 E92 E92 E92 E92 E92 E92 E92 E92 E92 E92 E92 E92 E92 E92 E92 E92 E92 E92 E92 E92 E92 E2 E72 E72 E72 E72 E72 E72 E72 E72 E72 E72 E72 E72 E72 E72 E72 E72 E72 E72 E72 E72 E72 E7 E7 E E62 E62 E62 E62 E62 E62 E62 E62 E62 E62 E62 E62 E62 E62 E62 E62 E62 E62 E62 E62 E62 E62 E62 E2 E42 42 42 42 42 42 42 42 42 42 42 42 42 42 42 42 42 42 42 42 42 4 4  E2* E2* E2* E2* E2* E2* E2* E2* E2* E2* E2* E2* E2* E2* E2* E2* E2* E2* E2* E2* E2* E2* E2* 2* >2* >2* >2* >2* >2* >2* >2* >2* >2* >2* >2* >2* >2* >2* >2* >2* >2* >2* >2* >2* >2* > >  @22 @22 @22 @22 @22 @22 @22 @22 @22 @22 @22 @22 @22 @22 @22 @22 @22 @22 @22 @22 @22 @22 @22 22 B22 B22 B22 B22 B22 B22 B22 B22 B22 B22 B22 B22 B22 B22 B22 B22 B22 B22 B22 B22 B22 B B  C22 C22 C22 C22 C22 C22 C22 C22 C22 C22 C22 C22 C22 C22 C22 C22 C22 C22 C22 C22 C22 C22 C22 22 E22 E22 E22 E22 E22 E22 E22 E22 E22 E22 E22 E22 E22 E22 E22 E22 E22 E22 E22 E22 E22 E E  G+ G+ G+ G+ G+ G+ G+ G+ G+ G+ G+ G+ G+ G+ G+ G+ G+ G+ G+ G+ G+ G+ G+ + I+ I+ I+ I+ I+ I+ I+ I+ I+ I+ I+ I+ I+ I+ I+ I+ I+ I+ I+ I+ I+ I I  J/ J/ J/ J/ J/ J/ J/ J/ J/ J/ J/ J/ J/ J/ J/ J/ J/ J/ J/ J/ J/ J/ J/ / L/ L/ L/ L/ L/ L/ L/ L/ L/ L/ L/ L/ L/ L/ L/ L/ L/ L/ L/ L/ L/ L L  N( N( N( N( N( N( N( N( N( N( N( N( N( N( N( N( N( N( N( N( N( N( N( ( O( O( O( O( O( O( O( O( O( O( O( O( O( O( O( O( O( O( O( O( O( O O  I9- I9- I9- I9- I9- I9- I9- I9- I9- I9- I9- I9- I9- I9- I9- I9- I9- I9- I9- I9- I9- I9- I9- I- I;- I;- I;- I;- I;- I;- I;- I;- I;- I;- I;- I;- I;- I;- I;- I;- I;- I;- I;- I;- I;- I; I; I I=9 I=9 I=9 I=9 I=9 I=9 I=9 I=9 I=9 I=9 I=9 I=9 I=9 I=9 I=9 I=9 I=9 I=9 I=9 I=9 I=9 I=9 I=9 I9 I>9 I>9 I>9 I>9 I>9 I>9 I>9 I>9 I>9 I>9 I>9 I>9 I>9 I>9 I>9 I>9 I>9 >9 >9 >9 >9 > >  L=7 L=7 L=7 L=7 L=7 L=7 L=7 L=7 L=7 L=7 L=7 L=7 L=7 L=7 L=7 L=7 L=7 L=7 L=7 L=7 L=7 L=7 L=7 L7 L;7 L;7 L;7 L;7 L;7 L;7 L;7 L;7 L;7 L;7 L;7 L;7 L;7 L;7 L;7 L;7 L;7 L;7 L;7 L;7 L;7 ;7 ;7 7 E=7 E=7 E=7 E=7 E=7 E=7 E=7 E=7 E=7 E=7 E=7 E=7 E=7 E=7 E=7 E=7 E=7 E=7 E=7 E=7 E=7 E=7 E=7 E7 E97 E97 E97 E97 E97 E97 E97 E97 E97 E97 E97 E97 E97 E97 E97 E97 E97 E97 E97 E97 E97 E9 E9 E E;6 E;6 E;6 E;6 E;6 E;6 E;6 E;6 E;6 E;6 E;6 E;6 E;6 E;6 E;6 E;6 E;6 E;6 E;6 E;6 E;6 E;6 E;6 E6 E=6 E=6 E=6 E=6 E=6 E=6 E=6 E=6 E=6 E=6 E=6 E=6 E=6 E=6 E=6 E=6 E=6 =6 =6 =6 =6 = =  I>4 I>4 I>4 I>4 I>4 I>4 I>4 I>4 I>4 I>4 I>4 I>4 I>4 I>4 I>4 I>4 I>4 I>4 I>4 I>4 I>4 I>4 I>4 I4 I@4 I@4 I@4 I@4 I@4 I@4 I@4 I@4 I@4 I@4 I@4 I@4 I@4 I@4 I@4 I@4 I@4 I@4 I@4 I@4 I@4 @ @  >B2 >B2 >B2 >B2 >B2 >B2 >B2 >B2 >B2 >B2 >B2 >B2 >B2 >B2 >B2 >B2 >B2 >B2 >B2 >B2 >B2 >B2 >B2 B2 @B2 @B2 @B2 @B2 @B2 @B2 @B2 @B2 @B2 @B2 @B2 @B2 @B2 @B2 @B2 @B2 @B2 @B2 @B2 @B2 @B2 @B @B B BB> BB> BB> BB> BB> BB> BB> BB> BB> BB> BB> BB> BB> BB> BB> BB> BB> BB> BB> BB> BB> BB> BB> B> CB> CB> CB> CB> CB> CB> CB> CB> CB> CB> CB> CB> CB> CB> CB> CB> CB> C> C> C> C> C C  BE< BE< BE< BE< BE< BE< BE< BE< BE< BE< BE< BE< BE< BE< BE< BE< BE< BE< BE< BE< BE< BE< BE< E< @E< @E< @E< @E< @E< @E< @E< @E< @E< @E< @E< @E< @E< @E< @E< @E< @E< @E< @E< @E< @E< @< @< < B>< B>< B>< B>< B>< B>< B>< B>< B>< B>< B>< B>< B>< B>< B>< B>< B>< B>< B>< B>< B>< B>< B>< >< >>< >>< >>< >>< >>< >>< >>< >>< >>< >>< >>< >>< >>< >>< >>< >>< >>< >>< >>< >>< >>< >> >> > @>; @>; @>; @>; @>; @>; @>; @>; @>; @>; @>; @>; @>; @>; @>; @>; @>; @>; @>; @>; @>; @>; @>; >; B>; B>; B>; B>; B>; B>; B>; B>; B>; B>; B>; B>; B>; B>; B>; B>; B>; B; B; B; B; B B  CB9 CB9 CB9 CB9 CB9 CB9 CB9 CB9 CB9 CB9 CB9 CB9 CB9 CB9 CB9 CB9 CB9 CB9 CB9 CB9 CB9 CB9 CB9 B9 EB9 EB9 EB9 EB9 EB9 EB9 EB9 EB9 EB9 EB9 EB9 EB9 EB9 EB9 EB9 EB9 EB9 EB9 EB9 EB9 EB9 E E  GC7 GC7 GC7 GC7 GC7 GC7 GC7 GC7 GC7 GC7 GC7 GC7 GC7 GC7 GC7 GC7 GC7 GC7 GC7 GC7 GC7 GC7 GC7 G7 GE7 GE7 GE7 GE7 GE7 GE7 GE7 GE7 GE7 GE7 GE7 GE7 GE7 GE7 GE7 GE7 GE7 GE7 GE7 GE7 GE7 GE GE G GGC GGC GGC GGC GGC GGC GGC GGC GGC GGC GGC GGC GGC GGC GGC GGC GGC GGC GGC GGC GGC GGC GGC GC GHC GHC GHC GHC GHC GHC GHC GHC GHC GHC GHC GHC GHC GHC GHC GHC GHC HC HC HC HC H H  JGA JGA JGA JGA JGA JGA JGA JGA JGA JGA JGA JGA JGA JGA JGA JGA JGA JGA JGA JGA JGA JGA JGA JA JEA JEA JEA JEA JEA JEA JEA JEA JEA JEA JEA JEA JEA JEA JEA JEA JEA JEA JEA JEA JEA EA EA A OGA OGA OGA OGA OGA OGA OGA OGA OGA OGA OGA OGA OGA OGA OGA OGA OGA OGA OGA OGA OGA OGA OGA OA OCA OCA OCA OCA OCA OCA OCA OCA OCA OCA OCA OCA OCA OCA OCA OCA OCA OCA OCA OCA OCA OC OC O OE@ OE@ OE@ OE@ OE@ OE@ OE@ OE@ OE@ OE@ OE@ OE@ OE@ OE@ OE@ OE@ OE@ OE@ OE@ OE@ OE@ OE@ OE@ O@ OG@ OG@ OG@ OG@ OG@ OG@ OG@ OG@ OG@ OG@ OG@ OG@ OG@ OG@ OG@ OG@ OG@ G@ G@ G@ G@ G G  SH> SH> SH> SH> SH> SH> SH> SH> SH> SH> SH> SH> SH> SH> SH> SH> SH> SH> SH> SH> SH> SH> SH> S> SJ> SJ> SJ> SJ> SJ> SJ> SJ> SJ> SJ> SJ> SJ> SJ> SJ> SJ> SJ> SJ> SJ> SJ> SJ> SJ> SJ> SJ SJ S SL< SL< SL< SL< SL< SL< SL< SL< SL< SL< SL< SL< SL< SL< SL< SL< SL< SL< SL< SL< SL< SL< SL< SL SL> SL> SL> SL> SL> SL> SL> SL> SL> SL> SL> SL> SL> SL> SL> SL> SL> SL> SL> SL> SL> > >  QQ< QQ< QQ< QQ< QQ< QQ< QQ< QQ< QQ< QQ< QQ< QQ< QQ< QQ< QQ< QQ< QQ< QQ< QQ< QQ< QQ< QQ< QQ< Q OQ; OQ; OQ; OQ; OQ; OQ; OQ; OQ; OQ; OQ; OQ; OQ; OQ; OQ; OQ; OQ; OQ; OQ; OQ; OQ; OQ; OQ; OQ; Q NQ< NQ< NQ< NQ< NQ< NQ< NQ< NQ< NQ< NQ< NQ< NQ< NQ< NQ< NQ< NQ< NQ< NQ< NQ< NQ< NQ< NQ< NQ< Q LQ9 LQ9 LQ9 LQ9 LQ9 LQ9 LQ9 LQ9 LQ9 LQ9 LQ9 LQ9 LQ9 LQ9 LQ9 LQ9 LQ9 LQ9 LQ9 LQ9 LQ9 LQ9 LQ9 Q JQ; JQ; JQ; JQ; JQ; JQ; JQ; JQ; JQ; JQ; JQ; JQ; JQ; JQ; JQ; JQ; JQ; JQ; JQ; JQ; JQ; JQ; JQ; JQ JQ< JQ< JQ< JQ< JQ< JQ< JQ< JQ< JQ< JQ< JQ< JQ< JQ< JQ< JQ< JQ< JQ< JQ< JQ< JQ< JQ< < <  OO; OO; OO; OO; OO; OO; OO; OO; OO; OO; OO; OO; OO; OO; OO; OO; OO; OO; OO; OO; OO; OO; OO; O ON9 ON9 ON9 ON9 ON9 ON9 ON9 ON9 ON9 ON9 ON9 ON9 ON9 ON9 ON9 ON9 ON9 ON9 ON9 ON9 ON9 ON9 ON9 O OL; OL; OL; OL; OL; OL; OL; OL; OL; OL; OL; OL; OL; OL; OL; OL; OL; OL; OL; OL; OL; OL; OL; O OJ7 OJ7 OJ7 OJ7 OJ7 OJ7 OJ7 OJ7 OJ7 OJ7 OJ7 OJ7 OJ7 OJ7 OJ7 OJ7 OJ7 OJ7 OJ7 OJ7 OJ7 OJ7 OJ7 O OH9 OH9 OH9 OH9 OH9 OH9 OH9 OH9 OH9 OH9 OH9 OH9 OH9 OH9 OH9 OH9 OH9 OH9 OH9 OH9 OH9 OH9 OH9 OH OH; OH; OH; OH; OH; OH; OH; OH; OH; OH; OH; OH; OH; OH; OH; OH; OH; OH; OH; OH; OH; ; ;  NN9 NN9 NN9 NN9 NN9 NN9 NN9 NN9 NN9 NN9 NN9 NN9 NN9 NN9 NN9 NN9 NN9 NN9 NN9 NN9 NN9 NN9 NN9 N LN7 LN7 LN7 LN7 LN7 LN7 LN7 LN7 LN7 LN7 LN7 LN7 LN7 LN7 LN7 LN7 LN7 LN7 LN7 LN7 LN7 LN7 LN7 N JN9 JN9 JN9 JN9 JN9 JN9 JN9 JN9 JN9 JN9 JN9 JN9 JN9 JN9 JN9 JN9 JN9 JN9 JN9 JN9 JN9 JN9 JN9 N HN6 HN6 HN6 HN6 HN6 HN6 HN6 HN6 HN6 HN6 HN6 HN6 HN6 HN6 HN6 HN6 HN6 H6 H6 H6 H6 H6 H6  GN7 GN7 GN7 GN7 GN7 GN7 GN7 GN7 GN7 GN7 GN7 GN7 GN7 GN7 GN7 GN7 GN7 GN7 GN7 GN7 GN7 GN7 GN7 GN GN9 GN9 GN9 GN9 GN9 GN9 GN9 GN9 GN9 GN9 GN9 GN9 GN9 GN9 GN9 GN9 GN9 GN9 GN9 GN9 GN9 9 9  LL7 LL7 LL7 LL7 LL7 LL7 LL7 LL7 LL7 LL7 LL7 LL7 LL7 LL7 LL7 LL7 LL7 LL7 LL7 LL7 LL7 LL7 LL7 L LJ6 LJ6 LJ6 LJ6 LJ6 LJ6 LJ6 LJ6 LJ6 LJ6 LJ6 LJ6 LJ6 LJ6 LJ6 LJ6 LJ6 LJ6 LJ6 LJ6 LJ6 LJ6 LJ6 L LH7 LH7 LH7 LH7 LH7 LH7 LH7 LH7 LH7 LH7 LH7 LH7 LH7 LH7 LH7 LH7 LH7 LH7 LH7 LH7 LH7 LH7 LH7 L LG4 LG4 LG4 LG4 LG4 LG4 LG4 LG4 LG4 LG4 LG4 LG4 LG4 LG4 LG4 LG4 LG4 LG4 LG4 LG4 LG4 LG4 LG4 L LE6 LE6 LE6 LE6 LE6 LE6 LE6 LE6 LE6 LE6 LE6 LE6 LE6 LE6 LE6 LE6 LE6 LE6 LE6 LE6 LE6 LE6 LE6 L LG7 LG7 LG7 LG7 LG7 LG7 LG7 LG7 LG7 LG7 LG7 LG7 LG7 LG7 LG7 LG7 LG7 LG7 LG7 LG7 LG7 G7 G7  KE6 KE6 KE6 KE6 KE6 KE6 KE6 KE6 KE6 KE6 KE6 KE6 KE6 KE6 KE6 KE6 KE6 KE6 KE6 KE6 KE6 KE6 KE6 K KC4 KC4 KC4 KC4 KC4 KC4 KC4 KC4 KC4 KC4 KC4 KC4 KC4 KC4 KC4 KC4 KC4 KC4 KC4 KC4 KC4 C4 C4  HE6 HE6 HE6 HE6 HE6 HE6 HE6 HE6 HE6 HE6 HE6 HE6 HE6 HE6 HE6 HE6 HE6 HE6 HE6 HE6 HE6 HE6 HE6 H HB3 HB3 HB3 HB3 HB3 HB3 HB3 HB3 HB3 HB3 HB3 HB3 HB3 HB3 HB3 HB3 HB3 HB3 HB3 HB3 HB3 HB3 HB3 H H?/ H?/ H?/ H?/ H?/ H?/ H?/ H?/ H?/ H?/ H?/ H?/ H?/ H?/ H?/ H?/ H?/ H?/ H?/ H?/ H?/ H?/ H?/ ?/ G?/ G?/ G?/ G?/ G?/ G?/ G?/ G?/ G?/ G?/ G?/ G?/ G?/ G?/ G?/ G?/ G?/ G?/ G?/ G?/ G?/ G G  E;3 E;3 E;3 E;3 E;3 E;3 E;3 E;3 E;3 E;3 E;3 E;3 E;3 E;3 E;3 E;3 E;3 E;3 E;3 E;3 E;3 E;3 E;3 ;3 C;3 C;3 C;3 C;3 C;3 C;3 C;3 C;3 C;3 C;3 C;3 C;3 C;3 C;3 C;3 C;3 C;3 C;3 C;3 C;3 C;3 C C  EG/ EG/ EG/ EG/ EG/ EG/ EG/ EG/ EG/ EG/ EG/ EG/ EG/ EG/ EG/ EG/ EG/ EG/ EG/ EG/ EG/ EG/ EG/ G/ BG/ BG/ BG/ BG/ BG/ BG/ BG/ BG/ BG/ BG/ BG/ BG/ BG/ BG/ BG/ BG/ BG/ BG/ BG/ BG/ BG/ BG BG G CG4 CG4 CG4 CG4 CG4 CG4 CG4 CG4 CG4 CG4 CG4 CG4 CG4 CG4 CG4 CG4 CG4 CG4 CG4 CG4 CG4 CG4 CG4 C4 CH4 CH4 CH4 CH4 CH4 CH4 CH4 CH4 CH4 CH4 CH4 CH4 CH4 CH4 CH4 CH4 CH4 CH4 CH4 CH4 CH4 H H  @G7 @G7 @G7 @G7 @G7 @G7 @G7 @G7 @G7 @G7 @G7 @G7 @G7 @G7 @G7 @G7 @G7 @G7 @G7 @G7 @G7 @G7 @G7 @7 @E7 @E7 @E7 @E7 @E7 @E7 @E7 @E7 @E7 @E7 @E7 @E7 @E7 @E7 @E7 @E7 @E7 @E7 @E7 @E7 @E7 E E  GG4 GG4 GG4 GG4 GG4 GG4 GG4 GG4 GG4 GG4 GG4 GG4 GG4 GG4 GG4 GG4 GG4 GG4 GG4 GG4 GG4 GG4 GG4 G4 GC4 GC4 GC4 GC4 GC4 GC4 GC4 GC4 GC4 GC4 GC4 GC4 GC4 GC4 GC4 GC4 GC4 GC4 GC4 GC4 GC4 C C  G@0 G@0 G@0 G@0 G@0 G@0 G@0 G@0 G@0 G@0 G@0 G@0 G@0 G@0 G@0 G@0 G@0 G@0 G@0 G@0 G@0 G@0 G@0 @0 H@0 H@0 H@0 H@0 H@0 H@0 H@0 H@0 H@0 H@0 H@0 H@0 H@0 H@0 H@0 H@0 H@0 H@0 H@0 H@0 H@0 H H  G<4 G<4 G<4 G<4 G<4 G<4 G<4 G<4 G<4 G<4 G<4 G<4 G<4 G<4 G<4 G<4 G<4 G<4 G<4 G<4 G<4 G<4 G<4 <4 E<4 E<4 E<4 E<4 E<4 E<4 E<4 E<4 E<4 E<4 E<4 E<4 E<4 E<4 E<4 E<4 E<4 E<4 E<4 E<4 E<4 E E  GH0 GH0 GH0 GH0 GH0 GH0 GH0 GH0 GH0 GH0 GH0 GH0 GH0 GH0 GH0 GH0 GH0 GH0 GH0 GH0 GH0 GH0 GH0 H0 CH0 CH0 CH0 CH0 CH0 CH0 CH0 CH0 CH0 CH0 CH0 CH0 CH0 CH0 CH0 CH0 CH0 CH0 CH0 CH0 CH0 CH CH H EH6 EH6 EH6 EH6 EH6 EH6 EH6 EH6 EH6 EH6 EH6 EH6 EH6 EH6 EH6 EH6 EH6 EH6 EH6 EH6 EH6 EH6 EH6 E6 EJ6 EJ6 EJ6 EJ6 EJ6 EJ6 EJ6 EJ6 EJ6 EJ6 EJ6 EJ6 EJ6 EJ6 EJ6 EJ6 EJ6 EJ6 EJ6 EJ6 EJ6 J J  BH9 BH9 BH9 BH9 BH9 BH9 BH9 BH9 BH9 BH9 BH9 BH9 BH9 BH9 BH9 BH9 BH9 BH9 BH9 BH9 BH9 BH9 BH9 B9 BG9 BG9 BG9 BG9 BG9 BG9 BG9 BG9 BG9 BG9 BG9 BG9 BG9 BG9 BG9 BG9 BG9 BG9 BG9 BG9 BG9 G G  HH6 HH6 HH6 HH6 HH6 HH6 HH6 HH6 HH6 HH6 HH6 HH6 HH6 HH6 HH6 HH6 HH6 HH6 HH6 HH6 HH6 HH6 HH6 H6 HE6 HE6 HE6 HE6 HE6 HE6 HE6 HE6 HE6 HE6 HE6 HE6 HE6 HE6 HE6 HE6 HE6 HE6 HE6 HE6 HE6 HE HE H HB2 HB2 HB2 HB2 HB2 HB2 HB2 HB2 HB2 HB2 HB2 HB2 HB2 HB2 HB2 HB2 HB2 HB2 HB2 HB2 HB2 HB2 HB2 B2 JB2 JB2 JB2 JB2 JB2 JB2 JB2 JB2 JB2 JB2 JB2 JB2 JB2 JB2 JB2 JB2 JB2 JB2 JB2 JB2 JB2 J J  H>6 H>6 H>6 H>6 H>6 H>6 H>6 H>6 H>6 H>6 H>6 H>6 H>6 H>6 H>6 H>6 H>6 H>6 H>6 H>6 H>6 H>6 H>6 >6 G>6 G>6 G>6 G>6 G>6 G>6 G>6 G>6 G>6 G>6 G>6 G>6 G>6 G>6 G>6 G>6 G>6 G>6 G>6 G>6 G>6 G G  HQ2 HQ2 HQ2 HQ2 HQ2 HQ2 HQ2 HQ2 HQ2 HQ2 HQ2 HQ2 HQ2 HQ2 HQ2 HQ2 HQ2 HQ2 HQ2 HQ2 HQ2 HQ2 HQ2 Q2 EQ2 EQ2 EQ2 EQ2 EQ2 EQ2 EQ2 EQ2 EQ2 EQ2 EQ2 EQ2 EQ2 EQ2 EQ2 EQ2 EQ2 EQ2 EQ2 EQ2 EQ2 EQ EQ Q GQ7 GQ7 GQ7 GQ7 GQ7 GQ7 GQ7 GQ7 GQ7 GQ7 GQ7 GQ7 GQ7 GQ7 GQ7 GQ7 GQ7 GQ7 GQ7 GQ7 GQ7 GQ7 GQ7 G7 GS7 GS7 GS7 GS7 GS7 GS7 GS7 GS7 GS7 GS7 GS7 GS7 GS7 GS7 GS7 GS7 GS7 GS7 GS7 GS7 GS7 S S  >Q7 >Q7 >Q7 >Q7 >Q7 >Q7 >Q7 >Q7 >Q7 >Q7 >Q7 >Q7 >Q7 >Q7 >Q7 >Q7 >Q7 >Q7 >Q7 >Q7 >Q7 >Q7 >Q7 >7 >O7 >O7 >O7 >O7 >O7 >O7 >O7 >O7 >O7 >O7 >O7 >O7 >O7 >O7 >O7 >O7 >O7 >O7 >O7 >O7 >O7 O O  GQ7 GQ7 GQ7 GQ7 GQ7 GQ7 GQ7 GQ7 GQ7 GQ7 GQ7 GQ7 GQ7 GQ7 GQ7 GQ7 GQ7 GQ7 GQ7 GQ7 GQ7 GQ7 GQ7 G7 GN7 GN7 GN7 GN7 GN7 GN7 GN7 GN7 GN7 GN7 GN7 GN7 GN7 GN7 GN7 GN7 GN7 GN7 GN7 GN7 GN7 GN GN G GO4 GO4 GO4 GO4 GO4 GO4 GO4 GO4 GO4 GO4 GO4 GO4 GO4 GO4 GO4 GO4 GO4 GO4 GO4 GO4 GO4 GO4 GO4 O4 HO4 HO4 HO4 HO4 HO4 HO4 HO4 HO4 HO4 HO4 HO4 HO4 HO4 HO4 HO4 HO4 HO4 HO4 HO4 HO4 HO4 H H  GC4 GC4 GC4 GC4 GC4 GC4 GC4 GC4 GC4 GC4 GC4 GC4 GC4 GC4 GC4 GC4 GC4 GC4 GC4 GC4 GC4 GC4 GC4 C4 EC4 EC4 EC4 EC4 EC4 EC4 EC4 EC4 EC4 EC4 EC4 EC4 EC4 EC4 EC4 EC4 EC4 EC4 EC4 EC4 EC4 E E  GO4 GO4 GO4 GO4 GO4 GO4 GO4 GO4 GO4 GO4 GO4 GO4 GO4 GO4 GO4 GO4 GO4 GO4 GO4 GO4 GO4 GO4 GO4 O4 CO4 CO4 CO4 CO4 CO4 CO4 CO4 CO4 CO4 CO4 CO4 CO4 CO4 CO4 CO4 CO4 CO4 CO4 CO4 CO4 CO4 CO CO O EO1 EO1 EO1 EO1 EO1 EO1 EO1 EO1 EO1 EO1 EO1 EO1 EO1 EO1 EO1 EO1 EO1 EO1 EO1 EO1 EO1 EO1 EO1 E1 EQ1 EQ1 EQ1 EQ1 EQ1 EQ1 EQ1 EQ1 EQ1 EQ1 EQ1 EQ1 EQ1 EQ1 EQ1 EQ1 EQ1 EQ1 EQ1 EQ1 EQ1 Q Q  @O1 @O1 @O1 @O1 @O1 @O1 @O1 @O1 @O1 @O1 @O1 @O1 @O1 @O1 @O1 @O1 @O1 @O1 @O1 @O1 @O1 @O1 @O1 @1 @N1 @N1 @N1 @N1 @N1 @N1 @N1 @N1 @N1 @N1 @N1 @N1 @N1 @N1 @N1 @N1 @N1 @N1 @N1 @N1 @N1 N N  EO1 EO1 EO1 EO1 EO1 EO1 EO1 EO1 EO1 EO1 EO1 EO1 EO1 EO1 EO1 EO1 EO1 EO1 EO1 EO1 EO1 EO1 EO1 E1 EL1 EL1 EL1 EL1 EL1 EL1 EL1 EL1 EL1 EL1 EL1 EL1 EL1 EL1 EL1 EL1 EL1 EL1 EL1 EL1 EL1 EL EL E EN3 EN3 EN3 EN3 EN3 EN3 EN3 EN3 EN3 EN3 EN3 EN3 EN3 EN3 EN3 EN3 EN3 EN3 EN3 EN3 EN3 EN3 EN3 N3 GN3 GN3 GN3 GN3 GN3 GN3 GN3 GN3 GN3 GN3 GN3 GN3 GN3 GN3 GN3 GN3 GN3 GN3 GN3 GN3 GN3 G G  EB3 EB3 EB3 EB3 EB3 EB3 EB3 EB3 EB3 EB3 EB3 EB3 EB3 EB3 EB3 EB3 EB3 EB3 EB3 EB3 EB3 EB3 EB3 B3 CB3 CB3 CB3 CB3 CB3 CB3 CB3 CB3 CB3 CB3 CB3 CB3 CB3 CB3 CB3 CB3 CB3 CB3 CB3 CB3 CB3 C C  EN3 EN3 EN3 EN3 EN3 EN3 EN3 EN3 EN3 EN3 EN3 EN3 EN3 EN3 EN3 EN3 EN3 EN3 EN3 EN3 EN3 EN3 EN3 N3 BN3 BN3 BN3 BN3 BN3 BN3 BN3 BN3 BN3 BN3 BN3 BN3 BN3 BN3 BN3 BN3 BN3 BN3 BN3 BN3 BN3 BN BN N CN( CN( CN( CN( CN( CN( CN( CN( CN( CN( CN( CN( CN( CN( CN( CN( CN( CN( CN( CN( CN( CN( CN( N( EN( EN( EN( EN( EN( EN( EN( EN( EN( EN( EN( EN( EN( EN( EN( EN( EN( EN( EN( EN( EN( E E  CL4 CL4 CL4 CL4 CL4 CL4 CL4 CL4 CL4 CL4 CL4 CL4 CL4 CL4 CL4 CL4 CL4 CL4 CL4 CL4 CL4 CL4 CL4 4 BK4 BK4 BK4 BK4 BK4 BK4 BK4 BK4 BK4 BK4 BK4 BK4 BK4 BK4 BK4 BK4 BK4 BK4 BK4 BK4 BK4 BK BK  CL4 CL4 CL4 CL4 CL4 CL4 CL4 CL4 CL4 CL4 CL4 CL4 CL4 CL4 CL4 CL4 CL4 CL4 CL4 CL4 CL4 CL4 CL4 L4 @L4 @L4 @L4 @L4 @L4 @L4 @L4 @L4 @L4 @L4 @L4 @L4 @L4 @L4 @L4 @L4 @L4 @L4 @L4 @L4 @L4 @L @L L EL* EL* EL* EL* EL* EL* EL* EL* EL* EL* EL* EL* EL* EL* EL* EL* EL* EL* EL* EL* EL* EL* EL* * GJ* GJ* GJ* GJ* GJ* GJ* GJ* GJ* GJ* GJ* GJ* GJ* GJ* GJ* GJ* GJ* GJ* GJ* GJ* GJ* GJ* GJ GJ  EH4 EH4 EH4 EH4 EH4 EH4 EH4 EH4 EH4 EH4 EH4 EH4 EH4 EH4 EH4 EH4 EH4 EH4 EH4 EH4 EH4 EH4 EH4 4 CG4 CG4 CG4 CG4 CG4 CG4 CG4 CG4 CG4 CG4 CG4 CG4 CG4 CG4 CG4 CG4 CG4 CG4 CG4 CG4 CG4 CG CG  EH4 EH4 EH4 EH4 EH4 EH4 EH4 EH4 EH4 EH4 EH4 EH4 EH4 EH4 EH4 EH4 EH4 EH4 EH4 EH4 EH4 EH4 EH4 4 BE4 BE4 BE4 BE4 BE4 BE4 BE4 BE4 BE4 BE4 BE4 BE4 BE4 BE4 BE4 BE4 BE4 BE4 BE4 BE4 BE4 BE BE  GJ, GJ, GJ, GJ, GJ, GJ, GJ, GJ, GJ, GJ, GJ, GJ, GJ, GJ, GJ, GJ, GJ, GJ, GJ, GJ, GJ, GJ, GJ, J, HJ, HJ, HJ, HJ, HJ, HJ, HJ, HJ, HJ, HJ, HJ, HJ, HJ, HJ, HJ, HJ, HJ, HJ, HJ, HJ, HJ, HJ HJ J GJ4 GJ4 GJ4 GJ4 GJ4 GJ4 GJ4 GJ4 GJ4 GJ4 GJ4 GJ4 GJ4 GJ4 GJ4 GJ4 GJ4 GJ4 GJ4 GJ4 GJ4 GJ4 GJ4 J4 EJ4 EJ4 EJ4 EJ4 EJ4 EJ4 EJ4 EJ4 EJ4 EJ4 EJ4 EJ4 EJ4 EJ4 EJ4 EJ4 EJ4 EJ4 EJ4 EJ4 EJ4 EJ EJ J GJ4 GJ4 GJ4 GJ4 GJ4 GJ4 GJ4 GJ4 GJ4 GJ4 GJ4 GJ4 GJ4 GJ4 GJ4 GJ4 GJ4 GJ4 GJ4 GJ4 GJ4 GJ4 GJ4 J4 CJ4 CJ4 CJ4 CJ4 CJ4 CJ4 CJ4 CJ4 CJ4 CJ4 CJ4 CJ4 CJ4 CJ4 CJ4 CJ4 CJ4 CJ4 CJ4 CJ4 CJ4 CJ CJ J LJ- LJ- LJ- LJ- LJ- LJ- LJ- LJ- LJ- LJ- LJ- LJ- LJ- LJ- LJ- LJ- LJ- LJ- LJ- LJ- LJ- LJ- LJ- LJ LJ4 LJ4 LJ4 LJ4 LJ4 LJ4 LJ4 LJ4 LJ4 LJ4 LJ4 LJ4 LJ4 LJ4 LJ4 LJ4 LJ4 LJ4 LJ4 LJ4 LJ4 4 4  EH9 EH9 EH9 EH9 EH9 EH9 EH9 EH9 EH9 EH9 EH9 EH9 EH9 EH9 EH9 EH9 EH9 EH9 EH9 EH9 EH9 EH9 EH9 E EG7 EG7 EG7 EG7 EG7 EG7 EG7 EG7 EG7 EG7 EG7 EG7 EG7 EG7 EG7 EG7 EG7 EG7 EG7 EG7 EG7 G7 G7  QE6 QE6 QE6 QE6 QE6 QE6 QE6 QE6 QE6 QE6 QE6 QE6 QE6 QE6 QE6 QE6 QE6 QE6 QE6 QE6 QE6 QE6 QE6 Q QC4 QC4 QC4 QC4 QC4 QC4 QC4 QC4 QC4 QC4 QC4 QC4 QC4 QC4 QC4 QC4 QC4 QC4 QC4 QC4 QC4 QC4 QC4 Q QB3 QB3 QB3 QB3 QB3 QB3 QB3 QB3 QB3 QB3 QB3 QB3 QB3 QB3 QB3 QB3 QB3 QB3 QB3 QB3 QB3 QB3 QB3 Q3 QG3 QG3 QG3 QG3 QG3 QG3 QG3 QG3 QG3 QG3 QG3 QG3 QG3 QG3 QG3 QG3 QG3 QG3 QG3 QG3 QG3 G G  O@/ O@/ O@/ O@/ O@/ O@/ O@/ O@/ O@/ O@/ O@/ O@/ O@/ O@/ O@/ O@/ O@/ O@/ O@/ O@/ O@/ O@/ O@/ / N?/ N?/ N?/ N?/ N?/ N?/ N?/ N?/ N?/ N?/ N?/ N?/ N?/ N?/ N?/ N?/ N?/ N?/ N?/ N?/ N?/ N? N?  O@4 O@4 O@4 O@4 O@4 O@4 O@4 O@4 O@4 O@4 O@4 O@4 O@4 O@4 O@4 O@4 O@4 O@4 O@4 O@4 O@4 O@4 O@4 O OC2 OC2 OC2 OC2 OC2 OC2 OC2 OC2 OC2 OC2 OC2 OC2 OC2 OC2 OC2 OC2 OC2 OC2 OC2 OC2 OC2 OC2 OC2 O OE0 OE0 OE0 OE0 OE0 OE0 OE0 OE0 OE0 OE0 OE0 OE0 OE0 OE0 OE0 OE0 OE0 OE0 OE0 OE0 OE0 OE0 OE0 O OG/ OG/ OG/ OG/ OG/ OG/ OG/ OG/ OG/ OG/ OG/ OG/ OG/ OG/ OG/ OG/ OG/ OG/ OG/ OG/ OG/ G/ G/  NH- NH- NH- NH- NH- NH- NH- NH- NH- NH- NH- NH- NH- NH- NH- NH- NH- NH- NH- NH- NH- NH- NH- H- LH- LH- LH- LH- LH- LH- LH- LH- LH- LH- LH- LH- LH- LH- LH- LH- LH- LH- LH- LH- LH- L L  KB9 KB9 KB9 KB9 KB9 KB9 KB9 KB9 KB9 KB9 KB9 KB9 KB9 KB9 KB9 KB9 KB9 KB9 KB9 KB9 KB9 KB9 KB9 B9 IB9 IB9 IB9 IB9 IB9 IB9 IB9 IB9 IB9 IB9 IB9 IB9 IB9 IB9 IB9 IB9 IB9 IB9 IB9 IB9 IB9 I9 I9 9 KG9 KG9 KG9 KG9 KG9 KG9 KG9 KG9 KG9 KG9 KG9 KG9 KG9 KG9 KG9 KG9 KG9 KG9 KG9 KG9 KG9 KG9 KG9 K9 KK9 KK9 KK9 KK9 KK9 KK9 KK9 KK9 KK9 KK9 KK9 KK9 KK9 KK9 KK9 KK9 KK9 KK9 KK9 KK9 KK9 K K  GL7 GL7 GL7 GL7 GL7 GL7 GL7 GL7 GL7 GL7 GL7 GL7 GL7 GL7 GL7 GL7 GL7 GL7 GL7 GL7 GL7 GL7 GL7 G7 GN7 GN7 GN7 GN7 GN7 GN7 GN7 GN7 GN7 GN7 GN7 GN7 GN7 GN7 GN7 GN7 GN7 GN7 GN7 GN7 GN7 N N  LO< LO< LO< LO< LO< LO< LO< LO< LO< LO< LO< LO< LO< LO< LO< LO< LO< LO< LO< LO< LO< LO< LO< L< LL< LL< LL< LL< LL< LL< LL< LL< LL< LL< LL< LL< LL< LL< LL< LL< LL< LL< LL< LL< LL< LL LL L LT9 LT9 LT9 LT9 LT9 LT9 LT9 LT9 LT9 LT9 LT9 LT9 LT9 LT9 LT9 LT9 LT9 LT9 LT9 LT9 LT9 LT9 LT9 T9 NT9 NT9 NT9 NT9 NT9 NT9 NT9 NT9 NT9 NT9 NT9 NT9 NT9 NT9 NT9 NT9 NT9 NT9 NT9 NT9 NT9 N N  NK; NK; NK; NK; NK; NK; NK; NK; NK; NK; NK; NK; OK; OK; OK; OK; OK; OK; OK; OK; OK; OK; OK; OK; NK; NK; NK; NK; NK; NK; NK; NK; NK; NK; NK; NK; OK; OK; OK; OK; OK; OK; OK; OK; OK; OK OK OK NK/ NK/ NK/ NK/ NK/ NK/ NK/ NK/ NK/ NK/ NK/ NK/ OK/ OK/ OK/ OK/ OK/ OK/ OK/ O/ O/ O/ O/ O/ LL/ LL/ LL/ LL/ LL/ LL/ LL/ LL/ LL/ LL/ LL/ LL/ LL/ LL/ LL/ LL/ LL/ LL/ LL/ LL/ LL/ LL LL  LL( LL( LL( LL( LL( LL( LL( LL( LL( LL( LL( LL( LL( LL( LL( LL( LL( LL( LL( LL( LL( LL( LL( LL( LL( LL( LL( LL( LL( LL( LL( LL( LL( LL( LL( LL( LL( LL( LL( LL( LL( LL( LL( LL( LL( L( L( L( NL( NL( NL( NL( NL( NL( NL( NL( NL( NL( NL( NL( LL( LL( LL( LL( LL( LL( LL( LL( LL( LL( LL( LL( KL( KL( KL( KL( KL( KL( KL( KL( KL( KL( KL( KL( KL( KL( KL( KL( KL( K K K K K K  L L L L L L L L L L L L L L L L L L L L L L L L L L L L L L L L L L L L L L L L L L L L L    @ @ @ @ @ @ @ @ @ @ @ @ @ @ @ @ @ @ @ @ @ @ @  B B B B B B B B B B B B B B B B B B B B B B B  B B B B B B B B B B B B C C C C C C C C C C C C B B B B B B B B B B B B C C C C C C C C C C C C B B B B B B B B B B B B C C C C C C C C C C C C @ @ @ @ @ @ @ @ @ @ @ @ B B B B B B B B B B B B CL4 CL4 CL4 CL4 CL4 CL4 CL4 CL4 CL4 CL4 CL4 CL4 CL4 CL4 CL4 CL4 CL4 CL4 CL4 CL4 CL4 CL4 CL4 CL4 CL4 CL4 CL4 CL4 CL4 CL4 CL4 CL4 CL4 CL4 CL4 CL4 CL4 CL4 CL4 CL4 CL4 CL4 CL4 CL4 CL4 4 4 4 EN4 EN4 EN4 EN4 EN4 EN4 EN4 EN4 EN4 EN4 EN4 EN4 CL4 CL4 CL4 CL4 CL4 CL4 CL4 CL4 CL4 CL4 CL4 CL4 BK4 BK4 BK4 BK4 BK4 BK4 BK4 BK4 BK4 BK4 BK4 BK4 BK4 BK4 BK4 BK4 BK4 BK BK BK BK BK BK  CL CL CL CL CL CL CL CL CL CL CL CL CL CL CL CL CL CL CL CL CL CL CL L EL EL EL EL EL EL EL EL EL EL EL EL EL EL EL EL EL EL EL EL EL E E  C@ C@ C@ C@ C@ C@ C@ C@ C@ C@ C@ C@ C@ C@ C@ C@ C@ C@ C@ C@ C@ C@ C@  EB EB EB EB EB EB EB EB EB EB EB EB EB EB EB EB EB EB EB EB EB EB EB  EB EB EB EB EB EB EB EB EB EB EB EB GC GC GC GC GC GC GC GC GC GC GC GC EB EB EB EB EB EB EB EB EB EB EB EB GC GC GC GC GC GC GC GC GC GC GC GC EB EB EB EB EB EB EB EB EB EB EB EB GC GC GC GC GC GC GC GC GC GC GC GC C@ C@ C@ C@ C@ C@ C@ C@ C@ C@ C@ C@ EB EB EB EB EB EB EB EB EB EB EB EB GC( GC( GC( GC( GC( GC( GC( GC( GC( GC( GC( GC( GC( GC( GC( GC( GC( GC( GC( GC( GC( GC( GC( G( GG( GG( GG( GG( GG( GG( GG( GG( GG( GG( GG( GG( GG( GG( GG( GG( GG( GG( GG( GG( GG( GG GG G GE4 GE4 GE4 GE4 GE4 GE4 GE4 GE4 GE4 GE4 GE4 GE4 GE4 GE4 GE4 GE4 GE4 GE4 GE4 GE4 GE4 GE4 GE4 G4 GC4 GC4 GC4 GC4 GC4 GC4 GC4 GC4 GC4 GC4 GC4 GC4 GC4 GC4 GC4 GC4 GC4 GC4 GC4 GC4 GC4 GC GC G GB4 GB4 GB4 GB4 GB4 GB4 GB4 GB4 GB4 GB4 GB4 GB4 GB4 GB4 GB4 GB4 GB4 GB4 GB4 GB4 GB4 GB4 GB4 G4 G@4 G@4 G@4 G@4 G@4 G@4 G@4 G@4 G@4 G@4 G@4 G@4 G@4 G@4 G@4 G@4 G@4 G@4 G@4 G@4 G@4 G@ G@ G G?* G?* G?* G?* G?* G?* G?* G?* G?* G?* G?* G?* G?* G?* G?* G?* G?* G?* G?* G?* G?* G?* G?* G* G=* G=* G=* G=* G=* G=* G=* G=* G=* G=* G=* G=* G=* G=* G=* G=* G=* G=* G=* G=* G=* G= G= G G;4 G;4 G;4 G;4 G;4 G;4 G;4 G;4 G;4 G;4 G;4 G;4 G;4 G;4 G;4 G;4 G;4 G;4 G;4 G;4 G;4 G;4 G;4 G4 G94 G94 G94 G94 G94 G94 G94 G94 G94 G94 G94 G94 G94 G94 G94 G94 G94 G94 G94 G94 G94 G9 G9 G G74 G74 G74 G74 G74 G74 G74 G74 G74 G74 G74 G74 G74 G74 G74 G74 G74 G74 G74 G74 G74 G74 G74 G4 G64 G64 G64 G64 G64 G64 G64 G64 G64 G64 G64 G64 G64 G64 G64 G64 G64 G64 G64 G64 G64 G6 G6 G G4+ G4+ G4+ G4+ G4+ G4+ G4+ G4+ G4+ G4+ G4+ G4+ G4+ G4+ G4+ G4+ G4+ G4+ G4+ G4+ G4+ G4+ G4+ 4+ @4+ @4+ @4+ @4+ @4+ @4+ @4+ @4+ @4+ @4+ @4+ @4+ @4+ @4+ @4+ @4+ @4+ @4+ @4+ @4+ @4+ @ @  B44 B44 B44 B44 B44 B44 B44 B44 B44 B44 B44 B44 B44 B44 B44 B44 B44 B44 B44 B44 B44 B44 B44 44 C44 C44 C44 C44 C44 C44 C44 C44 C44 C44 C44 C44 C44 C44 C44 C44 C44 C44 C44 C44 C44 C C  E44 E44 E44 E44 E44 E44 E44 E44 E44 E44 E44 E44 E44 E44 E44 E44 E44 E44 E44 E44 E44 E44 E44 44 G44 G44 G44 G44 G44 G44 G44 G44 G44 G44 G44 G44 G44 G44 G44 G44 G44 G44 G44 G44 G44 G G  H- H- H- H- H- H- H- H- H- H- H- H- H- H- H- H- H- H- H- H- H- H- H- - J- J- J- J- J- J- J- J- J- J- J- J- J- J- J- J- J- J- J- J- J- J J  L0 L0 L0 L0 L0 L0 L0 L0 L0 L0 L0 L0 L0 L0 L0 L0 L0 L0 L0 L0 L0 L0 L0 0 N0 N0 N0 N0 N0 N0 N0 N0 N0 N0 N0 N0 N0 N0 N0 N0 N0 N0 N0 N0 N0 N N  O* O* O* O* O* O* O* O* O* O* O* O* O* O* O* O* O* O* O* O* O* O* O* * Q* Q* Q* Q* Q* Q* Q* Q* Q* Q* Q* Q* Q* Q* Q* Q* Q* Q* Q* Q* Q* Q Q  JO/ JO/ JO/ JO/ JO/ JO/ JO/ JO/ JO/ JO/ JO/ JO/ JO/ JO/ JO/ JO/ JO/ JO/ JO/ JO/ JO/ JO/ JO/ JO/ JO/ JO/ JO/ JO/ JO/ JO/ JO/ JO/ JO/ JO/ JO/ JO/ JO/ JO/ JO/ JO/ JO/ JO/ JO/ JO/ JO/ J J J JQ0 JQ0 JQ0 JQ0 JQ0 JQ0 JQ0 JQ0 JQ0 JQ0 JQ0 JQ0 JO/ JO/ JO/ JO/ JO/ JO/ JO/ JO/ JO/ JO/ JO/ JO/ JN- JN- JN- JN- JN- JN- JN- JN- JN- JN- JN- JN- JN- JN- JN- JN- JN- JN- JN- JN- JN- JN- JN- J JO/ JO/ JO/ JO/ JO/ JO/ JO/ JO/ JO/ JO/ JO/ JO/ JO/ JO/ JO/ JO/ JO/ JO/ JO/ JO/ JO/ JO/ JO/ JO/ JO/ JO/ JO/ JO/ JO/ JO/ JO/ JO/ JO/ JO/ JO/ JO/ JO/ O/ O/ O/ O/ O/ O/ O/ O/    C4 C4 C4 C4 C4 C4 C4 C4 C4 C4 C4 C4 C4 C4 C4 C4 C4 C4 C4 C4 C4 C4 C4 4 E4 E4 E4 E4 E4 E4 E4 E4 E4 E4 E4 E4 E4 E4 E4 E4 E4 E4 E4 E4 E4 E E  E0 E0 E0 E0 E0 E0 E0 E0 E0 E0 E0 E0 G0 G0 G0 G0 G0 G0 G0 G0 G0 G0 G0 G0 E0 E0 E0 E0 E0 E0 E0 E0 E0 E0 E0 E0 G0 G0 G0 G0 G0 G0 G0 G0 G0 G G G E2 E2 E2 E2 E2 E2 E2 E2 E2 E2 E2 E2 G2 G2 G2 G2 G2 G2 G2 G2 G2 G2 G2 G2 C2 C2 C2 C2 C2 C2 C2 C2 C2 C2 C2 C2 E2 E2 E2 E2 E2 E2 E2 E2 E2 E E E JG+ JG+ JG+ JG+ JG+ JG+ JG+ JG+ JG+ JG+ JG+ JG+ JG+ JG+ JG+ JG+ JG+ JG+ JG+ JG+ JG+ JG+ JG+ JG+ JG+ JG+ JG+ JG+ JG+ JG+ JG+ JG+ JG+ JG+ JG+ JG+ JG+ JG+ JG+ JG+ JG+ JG+ JG+ JG+ JG+    LH7 LH7 LH7 LH7 LH7 LH7 LH7 LH7 LH7 LH7 LH7 LH7 JG7 JG7 JG7 JG7 JG7 JG7 JG7 JG7 JG7 JG7 JG7 JG7 IE7 IE7 IE7 IE7 IE7 IE7 IE7 IE7 IE7 IE7 IE7 IE7 IE7 IE7 IE7 IE7 IE7 IE7 IE7 IE7 IE7 IE IE  JG6 JG6 JG6 JG6 JG6 JG6 JG6 JG6 JG6 JG6 JG6 JG6 JG6 JG6 JG6 JG6 JG6 JG6 JG6 JG6 JG6 JG6 JG6 J6 JI6 JI6 JI6 JI6 JI6 JI6 JI6 JI6 JI6 JI6 JI6 JI6 JI6 JI6 JI6 JI6 JI6 JI6 JI6 JI6 JI6 I6 I6 6 >G6 >G6 >G6 >G6 >G6 >G6 >G6 >G6 >G6 >G6 >G6 >G6 >G6 >G6 >G6 >G6 >G6 >G6 >G6 >G6 >G6 >G6 >G6 6 @I6 @I6 @I6 @I6 @I6 @I6 @I6 @I6 @I6 @I6 @I6 @I6 @I6 @I6 @I6 @I6 @I6 @I6 @I6 @I6 @I6 @I @I  @I4 @I4 @I4 @I4 @I4 @I4 @I4 @I4 @I4 @I4 @I4 @I4 BJ4 BJ4 BJ4 BJ4 BJ4 BJ4 BJ4 BJ4 BJ4 BJ4 BJ4 BJ4 @I4 @I4 @I4 @I4 @I4 @I4 @I4 @I4 @I4 @I4 @I4 @I4 BJ4 BJ4 BJ4 BJ4 BJ4 BJ4 BJ4 BJ4 BJ4 BJ BJ BJ @I9 @I9 @I9 @I9 @I9 @I9 @I9 @I9 @I9 @I9 @I9 @I9 BJ9 BJ9 BJ9 BJ9 BJ9 BJ9 BJ9 BJ9 BJ9 BJ9 BJ9 BJ9 >G9 >G9 >G9 >G9 >G9 >G9 >G9 >G9 >G9 >G9 >G9 >G9 @I9 @I9 @I9 @I9 @I9 @I9 @I9 @I9 @I9 @I @I @I BJ2 BJ2 BJ2 BJ2 BJ2 BJ2 BJ2 BJ2 BJ2 BJ2 BJ2 BJ2 BJ2 BJ2 BJ2 BJ2 BJ2 BJ2 BJ2 BJ2 BJ2 BJ2 BJ2 J2 NJ2 NJ2 NJ2 NJ2 NJ2 NJ2 NJ2 NJ2 NJ2 NJ2 NJ2 NJ2 NJ2 NJ2 NJ2 NJ2 NJ2 NJ2 NJ2 NJ2 NJ2 NJ NJ J LJ/ LJ/ LJ/ LJ/ LJ/ LJ/ LJ/ LJ/ LJ/ LJ/ LJ/ LJ/ LJ/ LJ/ LJ/ LJ/ LJ/ LJ/ LJ/ LJ/ LJ/ LJ/ LJ/ J/ JJ/ JJ/ JJ/ JJ/ JJ/ JJ/ JJ/ JJ/ JJ/ JJ/ JJ/ JJ/ JJ/ JJ/ JJ/ JJ/ JJ/ JJ/ JJ/ JJ/ JJ/ JJ JJ J IJ2 IJ2 IJ2 IJ2 IJ2 IJ2 IJ2 IJ2 IJ2 IJ2 IJ2 IJ2 IJ2 IJ2 IJ2 IJ2 IJ2 IJ2 IJ2 IJ2 IJ2 IJ2 IJ2 J2 GJ2 GJ2 GJ2 GJ2 GJ2 GJ2 GJ2 GJ2 GJ2 GJ2 GJ2 GJ2 GJ2 GJ2 GJ2 GJ2 GJ2 GJ2 GJ2 GJ2 GJ2 GJ GJ J FJ6 FJ6 FJ6 FJ6 FJ6 FJ6 FJ6 FJ6 FJ6 FJ6 FJ6 FJ6 FJ6 FJ6 FJ6 FJ6 FJ6 FJ6 FJ6 FJ6 FJ6 FJ6 FJ6 J6 DJ6 DJ6 DJ6 DJ6 DJ6 DJ6 DJ6 DJ6 DJ6 DJ6 DJ6 DJ6 DJ6 DJ6 DJ6 DJ6 DJ6 DJ6 DJ6 DJ6 DJ6 DJ DJ J BJ2 BJ2 BJ2 BJ2 BJ2 BJ2 BJ2 BJ2 BJ2 BJ2 BJ2 BJ2 BJ2 BJ2 BJ2 BJ2 BJ2 BJ2 BJ2 BJ2 BJ2 BJ2 BJ2 J2 @J2 @J2 @J2 @J2 @J2 @J2 @J2 @J2 @J2 @J2 @J2 @J2 @J2 @J2 @J2 @J2 @J2 @J2 @J2 @J2 @J2 @J @J J >J6 >J6 >J6 >J6 >J6 >J6 >J6 >J6 >J6 >J6 >J6 >J6 >J6 >J6 >J6 >J6 >J6 >J6 >J6 >J6 >J6 >J6 >J6 J6 =J6 =6 =6 =6 =6 =6 =6 =6 =6 =6 =6 =6 =6 =6 =6 =6 =6 =6 =6 =6 =6 = =  ;J7 ;J7 ;J7 ;J7 ;J7 ;J7 ;J7 ;J7 ;J7 ;J7 ;J7 ;J7 ;J7 ;J7 ;J7 ;J7 ;J7 ;J7 ;J7 ;J7 ;J7 ;J7 ;J7 ;7 ;G7 ;G7 ;G7 ;G7 ;G7 ;G7 ;G7 ;G7 ;G7 ;G7 ;G7 ;G7 ;G7 ;G7 ;G7 ;G7 ;G7 ;G7 ;G7 ;G7 ;G7 G G  I; I; I; I; I; I; I; I; I; I; I; I; I; I; I; I; I; I; I; I; I; I; I; ; J; J; J; J; J; J; J; J; J; J; J; J; J; J; J; J; J; J; J; J; J; J J  L7 L7 L7 L7 L7 L7 L7 L7 L7 L7 L7 L7 L7 L7 L7 L7 L7 L7 L7 L7 L7 L7 L7 7 N7 N7 N7 N7 N7 N7 N7 N7 N7 N7 N7 N7 N7 N7 N7 N7 N7 N7 N7 N7 N7 N N  O4 O4 O4 O4 O4 O4 O4 O4 O4 O4 O4 O4 O4 O4 O4 O4 O4 O4 O4 O4 O4 O4 O4 4 N4 N4 N4 N4 N4 N4 N4 N4 N4 N4 N4 N4 N4 N4 N4 N4 N4 N4 N4 N4 N4 N N  L1 L1 L1 L1 L1 L1 L1 L1 L1 L1 L1 L1 L1 L1 L1 L1 L1 L1 L1 L1 L1 L1 L1 1 J1 J1 J1 J1 J1 J1 J1 J1 J1 J1 J1 J1 J1 J1 J1 J1 J1 J1 J1 J1 J1 J J  I4 I4 I4 I4 I4 I4 I4 I4 I4 I4 I4 I4 I4 I4 I4 I4 I4 I4 I4 I4 I4 I4 I4 4 G4 G4 G4 G4 G4 G4 G4 G4 G4 G4 G4 G4 G4 G4 G4 G4 G4 G4 G4 G4 G4 G G  BF6 BF6 BF6 BF6 BF6 BF6 BF6 BF6 BF6 BF6 BF6 BF6 BF6 BF6 BF6 BF6 BF6 BF6 BF6 BF6 BF6 BF6 BF6 6 DG6 DG6 DG6 DG6 DG6 DG6 DG6 DG6 DG6 DG6 DG6 DG6 DG6 DG6 DG6 DG6 DG6 DG6 DG6 DG6 DG6 DG DG  FI4 FI4 FI4 FI4 FI4 FI4 FI4 FI4 FI4 FI4 FI4 FI4 FI4 FI4 FI4 FI4 FI4 FI4 FI4 FI4 FI4 FI4 FI4  GJ2 GJ2 GJ2 GJ2 GJ2 GJ2 GJ2 GJ2 GJ2 GJ2 GJ2 GJ2 GJ2 GJ2 GJ2 GJ2 GJ2 GJ2 GJ2 GJ2 GJ2 GJ2 GJ2  FI4 FI4 FI4 FI4 FI4 FI4 FI4 FI4 FI4 FI4 FI4 FI4 FI4 FI4 FI4 FI4 FI4 FI4 FI4 FI4 FI4 FI4 FI4 4 DG4 DG4 DG4 DG4 DG4 DG4 DG4 DG4 DG4 DG4 DG4 DG4 DG4 DG4 DG4 DG4 DG4 DG4 DG4 DG4 DG4 DG4 DG4 4 FI4 FI4 FI4 FI4 FI4 FI4 FI4 FI4 FI4 FI4 FI4 FI4 FI4 FI4 FI4 FI4 FI4 FI4 FI4 FI4 FI4 FI4 FI4 4 BF4 BF4 BF4 BF4 BF4 BF4 BF4 BF4 BF4 BF4 BF4 BF4 BF4 BF4 BF4 BF4 BF4 BF4 BF4 BF4 BF4 BF BF  DG2 DG2 DG2 DG2 DG2 DG2 DG2 DG2 DG2 DG2 DG2 DG2 DG2 DG2 DG2 DG2 DG2 DG2 DG2 DG2 DG2 DG2 DG2 2 FI2 FI2 FI2 FI2 FI2 FI2 FI2 FI2 FI2 FI2 FI2 FI2 FI2 FI2 FI2 FI2 FI2 FI2 FI2 FI2 FI2 FI FI  GJ1 GJ1 GJ1 GJ1 GJ1 GJ1 GJ1 GJ1 GJ1 GJ1 GJ1 GJ1 GJ1 GJ1 GJ1 GJ1 GJ1 GJ1 GJ1 GJ1 GJ1 GJ1 GJ1 1 IL1 IL1 IL1 IL1 IL1 IL1 IL1 IL1 IL1 IL1 IL1 IL1 IL1 IL1 IL1 IL1 IL1 IL1 IL1 IL1 IL1 IL IL  JN/ JN/ JN/ JN/ JN/ JN/ JN/ JN/ JN/ JN/ JN/ JN/ JN/ JN/ JN/ JN/ JN/ JN/ JN/ JN/ JN/ JN/ JN/ JN JN1 JN1 JN1 JN1 JN1 JN1 JN1 JN1 JN1 JN1 JN1 JN1 JN1 JN1 JN1 JN1 JN1 JN1 JN1 JN1 JN1 1 1  G2 G2 G2 G2 G2 G2 G2 G2 G2 G2 G2 G2 G2 G2 G2 G2 G2 G2 G2 G2 G2 G2 G2  I4 I4 I4 I4 I4 I4 I4 I4 I4 I4 I4 I4 I4 I4 I4 I4 I4 I4 I4 I4 I4 I4 I4  G2 G2 G2 G2 G2 G2 G2 G2 G2 G2 G2 G2 G2 G2 G2 G2 G2 G2 G2 G2 G2 G2 G2 G G1 G1 G1 G1 G1 G1 G1 G1 G1 G1 G1 G1 G1 G1 G1 G1 G1 G1 G1 G1 G1 1 1  GN3 GN3 GN3 GN3 GN3 GN3 GN3 GN3 GN3 GN3 GN3 GN3 GN3 GN3 GN3 GN3 GN3 GN3 GN3 GN3 GN3 GN3 GN3 GN GN/ GN/ GN/ GN/ GN/ GN/ GN/ GN/ GN/ GN/ GN/ GN/ GN/ GN/ GN/ GN/ GN/ GN/ GN/ GN/ GN/ / /  G1 G1 G1 G1 G1 G1 G1 G1 G1 G1 G1 G1 G1 G1 G1 G1 G1 G1 G1 G1 G1 G1 G1 G G3 G3 G3 G3 G3 G3 G3 G3 G3 G3 G3 G3 G3 G3 G3 G3 G3 G3 G3 G3 G3 3 3  G4 G4 G4 G4 G4 G4 G4 G4 G4 G4 G4 G4 G4 G4 G4 G4 G4 G4 G4 G4 G4 G4 G4 G G6 G6 G6 G6 G6 G6 G6 G6 G6 G6 G6 G6 G6 G6 G6 G6 G6 G6 G6 G6 G6 6 6  @S7 @S7 @S7 @S7 @S7 @S7 @S7 @S7 @S7 @S7 @S7 @S7 @S7 @S7 @S7 @S7 @S7 @S7 @S7 @S7 @S7 @S7 @S7 S7 BS7 BS7 BS7 BS7 BS7 BS7 BS7 BS7 BS7 BS7 BS7 BS7 BS7 BS7 BS7 BS7 BS7 BS7 BS7 BS7 BS7 B B  C@ C@ C@ C@ C@ C@ C@ C@ C@ C@ C@ C@ C@ C@ C@ C@ C@ C@ C@ C@ C@ C@ C@  EB EB EB EB EB EB EB EB EB EB EB EB EB EB EB EB EB EB EB EB EB EB EB  C@ C@ C@ C@ C@ C@ C@ C@ C@ C@ C@ C@ C@ C@ C@ C@ C@ C@ C@ C@ C@ C@ C@ @ B@ B@ B@ B@ B@ B@ B@ B@ B@ B@ B@ B@ B@ B@ B@ B@ B@ B@ B@ B@ B@ B B  DJ4 DJ4 DJ4 DJ4 DJ4 DJ4 DJ4 DJ4 DJ4 DJ4 DJ4 DJ4 DJ4 DJ4 DJ4 DJ4 DJ4 DJ4 DJ4 DJ4 DJ4 DJ4 DJ4 J4 @J4 @J4 @J4 @J4 @J4 @J4 @J4 @J4 @J4 @J4 @J4 @J4 @J4 @J4 @J4 @J4 @J4 @J4 @J4 @J4 @J4 @ @  B@ B@ B@ B@ B@ B@ B@ B@ B@ B@ B@ B@ B@ B@ B@ B@ B@ B@ B@ B@ B@ B@ B@ @ D@ D@ D@ D@ D@ D@ D@ D@ D@ D@ D@ D@ D@ D@ D@ D@ D@ D@ D@ D@ D@ D D  E@ E@ E@ E@ E@ E@ E@ E@ E@ E@ E@ E@ E@ E@ E@ E@ E@ E@ E@ E@ E@ E@ E@ @ G@ G@ G@ G@ G@ G@ G@ G@ G@ G@ G@ G@ G@ G@ G@ G@ G@ G@ G@ G@ G@ G G  H@- H@- H@- H@- H@- H@- H@- H@- H@- H@- H@- H@- H@- H@- H@- H@- H@- H@- H@- H@- H@- H@- H@- H@ H@/ H@/ H@/ H@/ H@/ H@/ H@/ H@/ H@/ H@/ H@/ H@/ H@/ H@/ H@/ H@/ H@/ H@/ H@/ H@/ H@/ / /  E0 E0 E0 E0 E0 E0 E0 E0 E0 E0 E0 E0 E0 E0 E0 E0 E0 E0 E0 E0 E0 E0 E0  G2 G2 G2 G2 G2 G2 G2 G2 G2 G2 G2 G2 G2 G2 G2 G2 G2 G2 G2 G2 G2 G2 G2  E0 E0 E0 E0 E0 E0 E0 E0 E0 E0 E0 E0 E0 E0 E0 E0 E0 E0 E0 E0 E0 E0 E0 E E/ E/ E/ E/ E/ E/ E/ E/ E/ E/ E/ E/ E/ E/ E/ E/ E/ E/ E/ E/ E/ / /  EL1 EL1 EL1 EL1 EL1 EL1 EL1 EL1 EL1 EL1 EL1 EL1 EL1 EL1 EL1 EL1 EL1 EL1 EL1 EL1 EL1 EL1 EL1 EL EL- EL- EL- EL- EL- EL- EL- EL- EL- EL- EL- EL- EL- EL- EL- EL- EL- EL- EL- EL- EL- - -  E/ E/ E/ E/ E/ E/ E/ E/ E/ E/ E/ E/ E/ E/ E/ E/ E/ E/ E/ E/ E/ E/ E/ E E1 E1 E1 E1 E1 E1 E1 E1 E1 E1 E1 E1 E1 E1 E1 E1 E1 E1 E1 E1 E1 1 1  E2 E2 E2 E2 E2 E2 E2 E2 E2 E2 E2 E2 E2 E2 E2 E2 E2 E2 E2 E2 E2 E2 E2 E E4 E4 E4 E4 E4 E4 E4 E4 E4 E4 E4 E4 E4 E4 E4 E4 E4 E4 E4 E4 E4 4 4  >Q6 >Q6 >Q6 >Q6 >Q6 >Q6 >Q6 >Q6 >Q6 >Q6 >Q6 >Q6 >Q6 >Q6 >Q6 >Q6 >Q6 >Q6 >Q6 >Q6 >Q6 >Q6 >Q6 Q6 @Q6 @Q6 @Q6 @Q6 @Q6 @Q6 @Q6 @Q6 @Q6 @Q6 @Q6 @Q6 @Q6 @Q6 @Q6 @Q6 @Q6 @Q6 @Q6 @Q6 @Q6 @ @  B> B> B> B> B> B> B> B> B> B> B> B> B> B> B> B> B> B> B> B> B> B> B>  C@ C@ C@ C@ C@ C@ C@ C@ C@ C@ C@ C@ C@ C@ C@ C@ C@ C@ C@ C@ C@ C@ C@  B> B> B> B> B> B> B> B> B> B> B> B> B> B> B> B> B> B> B> B> B> B> B> > @> @> @> @> @> @> @> @> @> @> @> @> @> @> @> @> @> @> @> @> @> @ @  BH2 BH2 BH2 BH2 BH2 BH2 BH2 BH2 BH2 BH2 BH2 BH2 BH2 BH2 BH2 BH2 BH2 BH2 BH2 BH2 BH2 BH2 BH2 H2 >H2 >H2 >H2 >H2 >H2 >H2 >H2 >H2 >H2 >H2 >H2 >H2 >H2 >H2 >H2 >H2 >H2 >H2 >H2 >H2 >H2 > >  @> @> @> @> @> @> @> @> @> @> @> @> @> @> @> @> @> @> @> @> @> @> @> > B> B> B> B> B> B> B> B> B> B> B> B> B> B> B> B> B> B> B> B> B> B B  C> C> C> C> C> C> C> C> C> C> C> C> C> C> C> C> C> C> C> C> C> C> C> > E> E> E> E> E> E> E> E> E> E> E> E> E> E> E> E> E> E> E> E> E> E E  G7 G7 G7 G7 G7 G7 G7 G7 G7 G7 G7 G7 G7 G7 G7 G7 G7 G7 G7 G7 G7 G7 G7  H9 H9 H9 H9 H9 H9 H9 H9 H9 H9 H9 H9 H9 H9 H9 H9 H9 H9 H9 H9 H9 H9 H9  J;7 J;7 J;7 J;7 J;7 J;7 J;7 J;7 J;7 J;7 J;7 J;7 J;7 J;7 J;7 J;7 J;7 J;7 J;7 J;7 J;7 J;7 J;7  L<6 L<6 L<6 L<6 L<6 L<6 L<6 L<6 L<6 L<6 L<6 L<6 L<6 L<6 L<6 L<6 L<6 L<6 L<6 L<6 L<6 L<6 L<6  J;7 J;7 J;7 J;7 J;7 J;7 J;7 J;7 J;7 J;7 J;7 J;7 J;7 J;7 J;7 J;7 J;7 J;7 J;7 J;7 J;7 J;7 J;7 7 H97 H97 H97 H97 H97 H97 H97 H97 H97 H97 H97 H97 H97 H97 H97 H97 H97 H97 H97 H97 H97 H9 H9  J;+ J;+ J;+ J;+ J;+ J;+ J;+ J;+ J;+ J;+ J;+ J;+ J;+ J;+ J;+ J;+ J;+ J;+ J;+ J;+ J;+ J;+ J;+ J+ J7+ J7+ J7+ J7+ J7+ J7+ J7+ J7+ J7+ J7+ J7+ J7+ J7+ J7+ J7+ J7+ J7+ J7+ J7+ J7+ J7+ 7 7  V9+ V9+ V9+ V9+ V9+ V9+ V9+ V9+ V9+ V9+ V9+ V9+ V9+ V9+ V9+ V9+ V9+ V9+ V9+ V9+ V9+ V9+ V9+ V+ V;+ V;+ V;+ V;+ V;+ V;+ V;+ V;+ V;+ V;+ V;+ V;+ V;+ V;+ V;+ V;+ V;+ V;+ V;+ V;+ V;+ V; V; V V<+ V<+ V<+ V<+ V<+ V<+ V<+ V<+ V<+ V<+ V<+ V<+ V<+ V<+ V<+ V<+ V<+ V<+ V<+ V<+ V<+ V<+ V<+ V+ V>+ V>+ V>+ V>+ V>+ V>+ V>+ V>+ V>+ V>+ V>+ V>+ V>+ V>+ V>+ V>+ V>+ V>+ V>+ V>+ V>+ V> V> V V@, V@, V@, V@, V@, V@, V@, V@, V@, V@, V@, V@, V@, V@, V@, V@, V@, V@, V@, V@, V@, V@, V@, V, VB, VB, VB, VB, VB, VB, VB, VB, VB, VB, VB, VB, VB, VB, VB, VB, VB, VB, VB, VB, VB, B B  JD; JD; JD; JD; JD; JD; JD; JD; JD; JD; JD; JD; JD; JD; JD; JD; JD; JD; JD; JD; JD; JD; JD;  HE9 HE9 HE9 HE9 HE9 HE9 HE9 HE9 HE9 HE9 HE9 HE9 HE9 HE9 HE9 HE9 HE9 HE9 HE9 HE9 HE9 HE9 HE9  JD; JD; JD; JD; JD; JD; JD; JD; JD; JD; JD; JD; JD; JD; JD; JD; JD; JD; JD; JD; JD; JD; JD; J; JB; JB; JB; JB; JB; JB; JB; JB; JB; JB; JB; JB; JB; JB; JB; JB; JB; JB; JB; JB; JB; B B  JD4 JD4 JD4 JD4 JD4 JD4 JD4 JD4 JD4 JD4 JD4 JD4 JD4 JD4 JD4 JD4 JD4 JD4 JD4 JD4 JD4 JD4 JD4 J4 J@4 J@4 J@4 J@4 J@4 J@4 J@4 J@4 J@4 J@4 J@4 J@4 J@4 J@4 J@4 J@4 J@4 J@4 J@4 J@4 J@4 @ @  VB4 VB4 VB4 VB4 VB4 VB4 VB4 VB4 VB4 VB4 VB4 VB4 VB4 VB4 VB4 VB4 VB4 VB4 VB4 VB4 VB4 VB4 VB4 V4 VD4 VD4 VD4 VD4 VD4 VD4 VD4 VD4 VD4 VD4 VD4 VD4 VD4 VD4 VD4 VD4 VD4 VD4 VD4 VD4 VD4 VD VD V VE4 VE4 VE4 VE4 VE4 VE4 VE4 VE4 VE4 VE4 VE4 VE4 VE4 VE4 VE4 VE4 VE4 VE4 VE4 VE4 VE4 VE4 VE4 V4 VG4 VG4 VG4 VG4 VG4 VG4 VG4 VG4 VG4 VG4 VG4 VG4 VG4 VG4 VG4 VG4 VG4 G4 G4 G4 G4 G G  TH- TH- TH- TH- TH- TH- TH- TH- TH- TH- TH- TH- TH- TH- TH- TH- TH- TH- TH- TH- TH- TH- TH- T- TJ- TJ- TJ- TJ- TJ- TJ- TJ- TJ- TJ- TJ- TJ- TJ- TJ- TJ- TJ- TJ- TJ- TJ- TJ- TJ- TJ- J J  HL9 HL9 HL9 HL9 HL9 HL9 HL9 HL9 HL9 HL9 HL9 HL9 HL9 HL9 HL9 HL9 HL9 HL9 HL9 HL9 HL9 HL9 HL9  GN8 GN8 GN8 GN8 GN8 GN8 GN8 GN8 GN8 GN8 GN8 GN8 GN8 GN8 GN8 GN8 GN8 GN8 GN8 GN8 GN8 GN8 GN8  HL9 HL9 HL9 HL9 HL9 HL9 HL9 HL9 HL9 HL9 HL9 HL9 HL9 HL9 HL9 HL9 HL9 HL9 HL9 HL9 HL9 HL9 HL9 H9 HJ9 HJ9 HJ9 HJ9 HJ9 HJ9 HJ9 HJ9 HJ9 HJ9 HJ9 HJ9 HJ9 HJ9 HJ9 HJ9 HJ9 HJ9 HJ9 HJ9 HJ9 J J  HL- HL- HL- HL- HL- HL- HL- HL- HL- HL- HL- HL- HL- HL- HL- HL- HL- HL- HL- HL- HL- HL- HL- H- HH- HH- HH- HH- HH- HH- HH- HH- HH- HH- HH- HH- HH- HH- HH- HH- HH- HH- HH- HH- HH- H H  TJ- TJ- TJ- TJ- TJ- TJ- TJ- TJ- TJ- TJ- TJ- TJ- TJ- TJ- TJ- TJ- TJ- TJ- TJ- TJ- TJ- TJ- TJ- T- TL- TL- TL- TL- TL- TL- TL- TL- TL- TL- TL- TL- TL- TL- TL- TL- TL- TL- TL- TL- TL- TL TL T TO- TO- TO- TO- TO- TO- TO- TO- TO- TO- TO- TO- TO- TO- TO- TO- TO- TO- TO- TO- TO- TO- TO- T- TO- TO- TO- TO- TO- TO- TO- TO- TO- TO- TO- TO- TO- TO- TO- TO- TO- TO- TO- TO- TO- TO TO T TQ& TQ& TQ& TQ& TQ& TQ& TQ& TQ& TQ& TQ& TQ& TQ& TQ& TQ& TQ& TQ& TQ& TQ& TQ& TQ& TQ& TQ& TQ& & VS& VS& VS& VS& VS& VS& VS& VS& VS& VS& VS& VS& VS& VS& VS& VS& VS& VS& VS& VS& VS& VS VS  TQ2 TQ2 TQ2 TQ2 TQ2 TQ2 TQ2 TQ2 TQ2 TQ2 TQ2 TQ2 TQ2 TQ2 TQ2 TQ2 TQ2 TQ2 TQ2 TQ2 TQ2 TQ2 TQ2  SO4 SO4 SO4 SO4 SO4 SO4 SO4 SO4 SO4 SO4 SO4 SO4 SO4 SO4 SO4 SO4 SO4 SO4 SO4 SO4 SO4 SO4 SO4  TQ2 TQ2 TQ2 TQ2 TQ2 TQ2 TQ2 TQ2 TQ2 TQ2 TQ2 TQ2 TQ2 TQ2 TQ2 TQ2 TQ2 TQ2 TQ2 TQ2 TQ2 TQ2 TQ2 2 QN2 QN2 QN2 QN2 QN2 QN2 QN2 QN2 QN2 QN2 QN2 QN2 QN2 QN2 QN2 QN2 QN2 QN2 QN2 QN2 QN2 QN QN  SO& SO& SO& SO& SO& SO& SO& SO& SO& SO& SO& SO& SO& SO& SO& SO& SO& SO& SO& SO& SO& SO& SO& & TQ& TQ& TQ& TQ& TQ& TQ& TQ& TQ& TQ& TQ& TQ& TQ& TQ& TQ& TQ& TQ& TQ& TQ& TQ& TQ& TQ& TQ TQ  SO& SO& SO& SO& SO& SO& SO& SO& SO& SO& SO& SO& SO& SO& SO& SO& SO& SO& SO& SO& SO& SO& SO& & QN& QN& QN& QN& QN& QN& QN& QN& QN& QN& QN& QN& QN& QN& QN& QN& QN& QN& QN& QN& QN& QN QN  SO& SO& SO& SO& SO& SO& SO& SO& SO& SO& SO& SO& SO& SO& SO& SO& SO& SO& SO& SO& SO& SO& SO& & OL& OL& OL& OL& OL& OL& OL& OL& OL& OL& OL& OL& OL& OL& OL& OL& OL& OL& OL& OL& OL& OL OL  QN& QN& QN& QN& QN& QN& QN& QN& QN& QN& QN& QN& QN& QN& QN& QN& QN& QN& QN& QN& QN& QN& QN& & SO& SO& SO& SO& SO& SO& SO& SO& SO& SO& SO& SO& SO& SO& SO& SO& SO& SO& SO& SO& SO& SO SO  QN2 QN2 QN2 QN2 QN2 QN2 QN2 QN2 QN2 QN2 QN2 QN2 QN2 QN2 QN2 QN2 QN2 QN2 QN2 QN2 QN2 QN2 QN2  OL4 OL4 OL4 OL4 OL4 OL4 OL4 OL4 OL4 OL4 OL4 OL4 OL4 OL4 OL4 OL4 OL4 OL4 OL4 OL4 OL4 OL4 OL4  QN2 QN2 QN2 QN2 QN2 QN2 QN2 QN2 QN2 QN2 QN2 QN2 QN2 QN2 QN2 QN2 QN2 QN2 QN2 QN2 QN2 QN2 QN2 2 NJ2 NJ2 NJ2 NJ2 NJ2 NJ2 NJ2 NJ2 NJ2 NJ2 NJ2 NJ2 NJ2 NJ2 NJ2 NJ2 NJ2 NJ2 NJ2 NJ2 NJ2 NJ NJ  OL& OL& OL& OL& OL& OL& OL& OL& OL& OL& OL& OL& OL& OL& OL& OL& OL& OL& OL& OL& OL& OL& OL& & QN& QN& QN& QN& QN& QN& QN& QN& QN& QN& QN& QN& QN& QN& QN& QN& QN& QN& QN& QN& QN& QN QN  OL& OL& OL& OL& OL& OL& OL& OL& OL& OL& OL& OL& OL& OL& OL& OL& OL& OL& OL& OL& OL& OL& OL& & NJ& NJ& NJ& NJ& NJ& NJ& NJ& NJ& NJ& NJ& NJ& NJ& NJ& NJ& NJ& NJ& NJ& NJ& NJ& NJ& NJ& NJ NJ  OL& OL& OL& OL& OL& OL& OL& OL& OL& OL& OL& OL& OL& OL& OL& OL& OL& OL& OL& OL& OL& OL& OL& & LI& LI& LI& LI& LI& LI& LI& LI& LI& LI& LI& LI& LI& LI& LI& LI& LI& LI& LI& LI& LI& LI LI  NJ& NJ& NJ& NJ& NJ& NJ& NJ& NJ& NJ& NJ& NJ& NJ& OL& OL& OL& OL& OL& OL& OL& OL& OL& OL& OL& OL& NJ& NJ& NJ& NJ& NJ& NJ& NJ& NJ& NJ& NJ& NJ& NJ& OL& OL& OL& OL& OL& OL& OL& OL& OL& OL& OL& OL& NJ& NJ& NJ& NJ& NJ& NJ& NJ& NJ& NJ& NJ& NJ& NJ& OL& OL& OL& OL& OL& OL& OL& OL& OL& OL& OL& OL& NJ& NJ& NJ& NJ& NJ& NJ& NJ& NJ& NJ& NJ& NJ& NJ& OL& OL& OL& OL& OL& OL& OL& OL& OL& OL& OL& OL& NJ& NJ& NJ& NJ& NJ& NJ& NJ& NJ& NJ& NJ& NJ& NJ& OL& OL& OL& OL& OL& OL& OL& OL& OL& OL& OL& OL& NJ& NJ& NJ& NJ& NJ& NJ& NJ& NJ& NJ& NJ& NJ& NJ& OL& OL OL OL OL OL OL OL OL OL OL OL NJ NJ NJ NJ NJ NJ NJ NJ NJ NJ NJ NJ                                                                                                                                     & & & & & & & & & & & & & & & & & & & & & & &  ( ( ( ( ( ( ( ( ( ( ( ( ( ( ( ( ( ( ( ( ( ( (  E* E* E* E* E* E* E* E* E* E* E* E* E* E* E* E* E* E* E* E* E* E* E* E E+ E+ E+ E+ E+ E+ E+ E+ E+ E+ E+ E+ E+ E+ E+ E+ E+ E+ E+ E+ E+ E+ E+ E E* E* E* E* E* E* E* E* E* E* E* E* E* E* E* E* E* E* E* E* E* E* E* E E( E( E( E( E( E( E( E( E( E( E( E( E( E( E( E( E( ( ( ( ( ( (  E* E* E* E* E* E* E* E* E* E* E* E* E* E* E* E* E* E* E* E* E* E* E* E E& E& E& E& E& E& E& E& E& E& E& E& E& E& E& E& E& E& E& E& E& & &  C( C( C( C( C( C( C( C( C( C( C( C( C( C( C( C( C( C( C( C( C( C( C(  B* B* B* B* B* B* B* B* B* B* B* B* B* B* B* B* B* B* B* B* B* B* B*  @+ @+ @+ @+ @+ @+ @+ @+ @+ @+ @+ @+ @+ @+ @+ @+ @+ @+ @+ @+ @+ @+ @+  >- >- >- >- >- >- >- >- >- >- >- >- >- >- >- >- >- >- >- >- >- >- >-  C/ C/ C/ C/ C/ C/ C/ C/ C/ C/ C/ C/ C/ C/ C/ C/ C/ C/ C/ C/ C/ C/ C/ / B/ B/ B/ B/ B/ B/ B/ B/ B/ B/ B/ B/ B/ B/ B/ B/ B/ B/ B/ B/ B/ B B  C4 C4 C4 C4 C4 C4 C4 C4 C4 C4 C4 C4 C4 C4 C4 C4 C4 C4 C4 C4 C4 C4 C4 4 E4 E4 E4 E4 E4 E4 E4 E4 E4 E4 E4 E4 E4 E4 E4 E4 E4 E4 E4 E4 E4 E E  G2 G2 G2 G2 G2 G2 G2 G2 G2 G2 G2 G2 G2 G2 G2 G2 G2 G2 G2 G2 G2 G2 G2 2 C2 C2 C2 C2 C2 C2 C2 C2 C2 C2 C2 C2 C2 C2 C2 C2 C2 C2 C2 C2 C2 C C  E0 E0 E0 E0 E0 E0 E0 E0 E0 E0 E0 E0 E0 E0 E0 E0 E0 E0 E0 E0 E0 E0 E0 0 C0 C0 C0 C0 C0 C0 C0 C0 C0 C0 C0 C0 C0 C0 C0 C0 C0 C0 C0 C0 C0 C C  E- E- E- E- E- E- E- E- E- E- E- E- E- E- E- E- E- E- E- E- E- E- E- - G- G- G- G- G- G- G- G- G- G- G- G- G- G- G- G- G- G- G- G- G- G G  H2 H2 H2 H2 H2 H2 H2 H2 H2 H2 H2 H2 H2 H2 H2 H2 H2 H2 H2 H2 H2 H2 H2 2 E2 E2 E2 E2 E2 E2 E2 E2 E2 E2 E2 E2 E2 E2 E2 E2 E2 E2 E2 E2 E2 E E  G+ G+ G+ G+ G+ G+ G+ G+ G+ G+ G+ G+ G+ G+ G+ G+ G+ G+ G+ G+ G+ G+ G+ + E+ E+ E+ E+ E+ E+ E+ E+ E+ E+ E+ E+ E+ E+ E+ E+ E+ E+ E+ E+ E+ E E  JG7 JG7 JG7 JG7 JG7 JG7 JG7 JG7 JG7 JG7 JG7 JG7 JG7 JG7 JG7 JG7 JG7 JG7 JG7 JG7 JG7 JG7 JG7 J7 JH7 JH7 JH7 JH7 JH7 JH7 JH7 JH7 JH7 JH7 JH7 JH7 JH7 JH7 JH7 JH7 JH7 JH7 JH7 JH7 JH7 JH JH J JG7 JG7 JG7 JG7 JG7 JG7 JG7 JG7 JG7 JG7 JG7 JG7 JG7 JG7 JG7 JG7 JG7 JG7 JG7 JG7 JG7 JG7 JG7 J7 JE7 JE7 JE7 JE7 JE7 JE7 JE7 JE7 JE7 JE7 JE7 JE7 JE7 JE7 JE7 JE7 JE7 E7 E7 E7 E7 E E  JG5 JG5 JG5 JG5 JG5 JG5 JG5 JG5 JG5 JG5 JG5 JG5 JG5 JG5 JG5 JG5 JG5 JG5 JG5 JG5 JG5 JG5 JG5 J5 JC5 JC5 JC5 JC5 JC5 JC5 JC5 JC5 JC5 JC5 JC5 JC5 JC5 JC5 JC5 JC5 JC5 JC5 JC5 JC5 JC5 C C  HE+ HE+ HE+ HE+ HE+ HE+ HE+ HE+ HE+ HE+ HE+ HE+ HE+ HE+ HE+ HE+ HE+ HE+ HE+ HE+ HE+ HE+ HE+ + GG+ GG+ GG+ GG+ GG+ GG+ GG+ GG+ GG+ GG+ GG+ GG+ GG+ GG+ GG+ GG+ GG+ GG+ GG+ GG+ GG+ GG GG  EH+ EH+ EH+ EH+ EH+ EH+ EH+ EH+ EH+ EH+ EH+ EH+ EH+ EH+ EH+ EH+ EH+ EH+ EH+ EH+ EH+ EH+ EH+ + CJ+ CJ+ CJ+ CJ+ CJ+ CJ+ CJ+ CJ+ CJ+ CJ+ CJ+ CJ+ CJ+ CJ+ CJ+ CJ+ CJ+ CJ+ CJ+ CJ+ CJ+ CJ CJ  HL+ HL+ HL+ HL+ HL+ HL+ HL+ HL+ HL+ HL+ HL+ HL+ HL+ HL+ HL+ HL+ HL+ HL+ HL+ HL+ HL+ HL+ HL+ L+ GL+ GL+ GL+ GL+ GL+ GL+ GL+ GL+ GL+ GL+ GL+ GL+ GL+ GL+ GL+ GL+ GL+ GL+ GL+ GL+ GL+ G G  HO4 HO4 HO4 HO4 HO4 HO4 HO4 HO4 HO4 HO4 HO4 HO4 HO4 HO4 HO4 HO4 HO4 HO4 HO4 HO4 HO4 HO4 HO4 O4 JO4 JO4 JO4 JO4 JO4 JO4 JO4 JO4 JO4 JO4 JO4 JO4 JO4 JO4 JO4 JO4 JO4 JO4 JO4 JO4 JO4 J J  LT- LT- LT- LT- LT- LT- LT- LT- LT- LT- LT- LT- LT- LT- LT- LT- LT- LT- LT- LT- LT- LT- LT- T- HT- HT- HT- HT- HT- HT- HT- HT- HT- HT- HT- HT- HT- HT- HT- HT- HT- HT- HT- HT- HT- HT HT T JT) JT) JT) JT) JT) JT) JT) JT) JT) JT) JT) JT) JT) JT) JT) JT) JT) JT) JT) JT) JT) JT) JT) T) HT) HT) HT) HT) HT) HT) HT) HT) HT) HT) HT) HT) HT) HT) HT) HT) HT) HT) HT) HT) HT) H H  JS2 JS2 JS2 JS2 JS2 JS2 JS2 JS2 JS2 JS2 JS2 JS2 JS2 JS2 JS2 JS2 JS2 JS2 JS2 JS2 JS2 JS2 JS2 2 LQ2 LQ2 LQ2 LQ2 LQ2 LQ2 LQ2 LQ2 LQ2 LQ2 LQ2 LQ2 LQ2 LQ2 LQ2 LQ2 LQ2 LQ2 LQ2 LQ2 LQ2 LQ LQ  MS+ MS+ MS+ MS+ MS+ MS+ MS+ MS+ MS+ MS+ MS+ MS+ MS+ MS+ MS+ MS+ MS+ MS+ MS+ MS+ MS+ MS+ MS+ S+ JS+ JS+ JS+ JS+ JS+ JS+ JS+ JS+ JS+ JS+ JS+ JS+ JS+ JS+ JS+ JS+ JS+ JS+ JS+ JS+ JS+ J J  LT$ LT$ LT$ LT$ LT$ LT$ LT$ LT$ LT$ LT$ LT$ LT$ LT$ LT$ LT$ LT$ LT$ LT$ LT$ LT$ LT$ LT$ LT$ LT$ LT$ LT$ LT$ LT$ LT$ LT$ LT$ LT$ LT$ LT$ LT$ LT$ LT$ LT$ LT$ LT$ LT$ LT$ LT$ LT$ LT$    MV0 MV0 MV0 MV0 MV0 MV0 MV0 MV0 MV0 MV0 MV0 MV0 LT0 LT0 LT0 LT0 LT0 LT0 LT0 LT0 LT0 LT0 LT0 LT0 JS0 JS0 JS0 JS0 JS0 JS0 JS0 JS0 JS0 JS0 JS0 JS0 JS0 JS0 JS0 JS0 JS0 JS0 JS0 JS0 JS0 JS JS  LT LT LT LT LT LT LT LT LT LT LT LT LT LT LT LT LT LT LT LT LT LT LT LT LT LT LT LT LT LT LT LT LT LT LT LT LT LT LT LT LT LT LT LT LT    0 0 0 0 0 0 0 0 0 0 0 0 0 0 0 0 0 0 0 0 0 0 0 0 JM0 JM0 JM0 JM0 JM0 JM0 JM0 JM0 JM0 JM0 JM0 JM0 JM0 JM0 JM0 JM0 JM0 JM0 JM0 JM0 JM0 JM JM  HL4 HL4 HL4 HL4 HL4 HL4 HL4 HL4 HL4 HL4 HL4 HL4 HL4 HL4 HL4 HL4 HL4 HL4 HL4 HL4 HL4 HL4 HL4 4 GJ4 GJ4 GJ4 GJ4 GJ4 GJ4 GJ4 GJ4 GJ4 GJ4 GJ4 GJ4 GJ4 GJ4 GJ4 GJ4 GJ4 GJ4 GJ4 GJ4 GJ4 GJ GJ  HL0 HL0 HL0 HL0 HL0 HL0 HL0 HL0 HL0 HL0 HL0 HL0 HL0 HL0 HL0 HL0 HL0 HL0 HL0 HL0 HL0 HL0 HL0 0 EH0 EH0 EH0 EH0 EH0 EH0 EH0 EH0 EH0 EH0 EH0 EH0 EH0 EH0 EH0 EH0 EH0 EH0 EH0 EH0 EH0 EH EH  GJ7 GJ7 GJ7 GJ7 GJ7 GJ7 GJ7 GJ7 GJ7 GJ7 GJ7 GJ7 GJ7 GJ7 GJ7 GJ7 GJ7 GJ7 GJ7 GJ7 GJ7 GJ7 GJ7 GJ7 GJ7 GJ7 GJ7 GJ7 GJ7 GJ7 GJ7 GJ7 GJ7 GJ7 GJ7 GJ7 GJ7 GJ7 GJ7 GJ7 GJ7 GJ7 GJ7 GJ7 GJ7    TL+ TL+ TL+ TL+ TL+ TL+ TL+ TL+ TL+ TL+ TL+ TL+ SJ+ SJ+ SJ+ SJ+ SJ+ SJ+ SJ+ SJ+ SJ+ SJ+ SJ+ SJ+ QH+ QH+ QH+ QH+ QH+ QH+ QH+ QH+ QH+ QH+ QH+ QH+ QH+ QH+ QH+ QH+ QH+ QH+ QH+ QH+ QH+ QH QH  SJ SJ SJ SJ SJ SJ SJ SJ SJ SJ SJ SJ SJ SJ SJ SJ SJ SJ SJ SJ SJ SJ SJ SJ SJ SJ SJ SJ SJ SJ SJ SJ SJ SJ SJ SJ SJ SJ SJ SJ SJ SJ SJ SJ SJ    4 4 4 4 4 4 4 4 4 4 4 4 4 4 4 4 4 4 4 4 4 4 4 4 LH4 LH4 LH4 LH4 LH4 LH4 LH4 LH4 LH4 LH4 LH4 LH4 LH4 LH4 LH4 LH4 LH4 LH4 LH4 LH4 LH4 LH LH  JG8 JG8 JG8 JG8 JG8 JG8 JG8 JG8 JG8 JG8 JG8 JG8 JG8 JG8 JG8 JG8 JG8 JG8 JG8 JG8 JG8 JG8 JG8 8 HE8 HE8 HE8 HE8 HE8 HE8 HE8 HE8 HE8 HE8 HE8 HE8 HE8 HE8 HE8 HE8 HE8 HE8 HE8 HE8 HE8 HE HE  JG4 JG4 JG4 JG4 JG4 JG4 JG4 JG4 JG4 JG4 JG4 JG4 JG4 JG4 JG4 JG4 JG4 JG4 JG4 JG4 JG4 JG4 JG4 4 GD4 GD4 GD4 GD4 GD4 GD4 GD4 GD4 GD4 GD4 GD4 GD4 GD4 GD4 GD4 GD4 GD4 GD4 GD4 GD4 GD4 GD GD  HE9 HE9 HE9 HE9 HE9 HE9 HE9 HE9 HE9 HE9 HE9 HE9 HE9 HE9 HE9 HE9 HE9 HE9 HE9 HE9 HE9 HE9 HE9 HE9 HE9 HE9 HE9 HE9 HE9 HE9 HE9 HE9 HE9 HE9 HE9 HE9 HE9 HE9 HE9 HE9 HE9 HE9 HE9 HE9 HE9    JS- JS- JS- JS- JS- JS- JS- JS- JS- JS- JS- JS- HQ- HQ- HQ- HQ- HQ- HQ- HQ- HQ- HQ- HQ- HQ- HQ- GP- GP- GP- GP- GP- GP- GP- GP- GP- GP- GP- GP- GP- GP- GP- GP- GP- GP- GP- GP- GP- GP GP  HQ HQ HQ HQ HQ HQ HQ HQ HQ HQ HQ HQ HQ HQ HQ HQ HQ HQ HQ HQ HQ HQ HQ HQ HQ HQ HQ HQ HQ HQ HQ HQ HQ HQ HQ HQ HQ HQ HQ HQ HQ HQ HQ HQ HQ    2 2 2 2 2 2 2 2 2 2 2 2 2 2 2 2 2 2 2 2 2 2 2 2 GJ2 GJ2 GJ2 GJ2 GJ2 GJ2 GJ2 GJ2 GJ2 GJ2 GJ2 GJ2 GJ2 GJ2 GJ2 GJ2 GJ2 GJ2 GJ2 GJ2 GJ2 GJ GJ  EH6 EH6 EH6 EH6 EH6 EH6 EH6 EH6 EH6 EH6 EH6 EH6 EH6 EH6 EH6 EH6 EH6 EH6 EH6 EH6 EH6 EH6 EH6 6 CG6 CG6 CG6 CG6 CG6 CG6 CG6 CG6 CG6 CG6 CG6 CG6 CG6 CG6 CG6 CG6 CG6 CG6 CG6 CG6 CG6 CG CG  EH2 EH2 EH2 EH2 EH2 EH2 EH2 EH2 EH2 EH2 EH2 EH2 EH2 EH2 EH2 EH2 EH2 EH2 EH2 EH2 EH2 EH2 EH2 2 BE2 BE2 BE2 BE2 BE2 BE2 BE2 BE2 BE2 BE2 BE2 BE2 BE2 BE2 BE2 BE2 BE2 BE2 BE2 BE2 BE2 BE BE  CG7 CG7 CG7 CG7 CG7 CG7 CG7 CG7 CG7 CG7 CG7 CG7 CG7 CG7 CG7 CG7 CG7 CG7 CG7 CG7 CG7 CG7 CG7 CG7 CG7 CG7 CG7 CG7 CG7 CG7 CG7 CG7 CG7 CG7 CG7 CG7 CG7 CG7 CG7 CG7 CG7 CG7 CG7 CG7 CG7    QH+ QH+ QH+ QH+ QH+ QH+ QH+ QH+ QH+ QH+ QH+ QH+ OG+ OG+ OG+ OG+ OG+ OG+ OG+ OG+ OG+ OG+ OG+ OG+ NE+ NE+ NE+ NE+ NE+ NE+ NE+ NE+ NE+ NE+ NE+ NE+ NE+ NE+ NE+ NE+ NE+ NE+ NE+ NE+ NE+ NE NE  OG OG OG OG OG OG OG OG OG OG OG OG OG OG OG OG OG OG OG OG OG OG OG OG OG OG OG OG OG OG OG OG OG OG OG OG OG OG OG OG OG OG OG OG OG    + + + + + + + + + + + + + + + + + + + + + + + + HE+ HE+ HE+ HE+ HE+ HE+ HE+ HE+ HE+ HE+ HE+ HE+ HE+ HE+ HE+ HE+ HE+ HE+ HE+ HE+ HE+ HE HE  GC/ GC/ GC/ GC/ GC/ GC/ GC/ GC/ GC/ GC/ GC/ GC/ GC/ GC/ GC/ GC/ GC/ GC/ GC/ GC/ GC/ GC/ GC/ / EB/ EB/ EB/ EB/ EB/ EB/ EB/ EB/ EB/ EB/ EB/ EB/ EB/ EB/ EB/ EB/ EB/ EB/ EB/ EB/ EB/ EB EB  GC+ GC+ GC+ GC+ GC+ GC+ GC+ GC+ GC+ GC+ GC+ GC+ GC+ GC+ GC+ GC+ GC+ GC+ GC+ GC+ GC+ GC+ GC+ + C@+ C@+ C@+ C@+ C@+ C@+ C@+ C@+ C@+ C@+ C@+ C@+ C@+ C@+ C@+ C@+ C@+ C@+ C@+ C@+ C@+ C@ C@  EB2 EB2 EB2 EB2 EB2 EB2 EB2 EB2 EB2 EB2 EB2 EB2 EB2 EB2 EB2 EB2 EB2 EB2 EB2 EB2 EB2 EB2 EB2 EB EB4 EB4 EB4 EB4 EB4 EB4 EB4 EB4 EB4 EB4 EB4 EB4 EB4 EB4 EB4 EB4 EB4 EB4 EB4 EB4 EB4 4 4  >6 >6 >6 >6 >6 >6 >6 >6 >6 >6 >6 >6 >6 >6 >6 >6 >6 >6 >6 >6 >6 >6 >6  @7 @7 @7 @7 @7 @7 @7 @7 @7 @7 @7 @7 @7 @7 @7 @7 @7 @7 @7 @7 @7 @7 @7  >6 >6 >6 >6 >6 >6 >6 >6 >6 >6 >6 >6 >6 >6 >6 >6 >6 >6 >6 >6 >6 >6 >6 > >4 >4 >4 >4 >4 >4 >4 >4 >4 >4 >4 >4 >4 >4 >4 >4 >4 >4 >4 >4 >4 4 4  EH6 EH6 EH6 EH6 EH6 EH6 EH6 EH6 EH6 EH6 EH6 EH6 EH6 EH6 EH6 EH6 EH6 EH6 EH6 EH6 EH6 EH6 EH6 EH EH2 EH2 EH2 EH2 EH2 EH2 EH2 EH2 EH2 EH2 EH2 EH2 EH2 EH2 EH2 EH2 EH2 EH2 EH2 EH2 EH2 2 2  <4 <4 <4 <4 <4 <4 <4 <4 <4 <4 <4 <4 <4 <4 <4 <4 <4 <4 <4 <4 <4 <4 <4 < <6 <6 <6 <6 <6 <6 <6 <6 <6 <6 <6 <6 <6 <6 <6 <6 <6 <6 <6 <6 <6 6 6  <7 <7 <7 <7 <7 <7 <7 <7 <7 <7 <7 <7 <7 <7 <7 <7 <7 <7 <7 <7 <7 <7 <7 < <9 <9 <9 <9 <9 <9 <9 <9 <9 <9 <9 <9 <9 <9 <9 <9 <9 <9 <9 <9 <9 9 9  <C; <C; <C; <C; <C; <C; <C; <C; <C; <C; <C; <C; <C; <C; <C; <C; <C; <C; <C; <C; <C; <C; <C; <; <E; <E; <E; <E; <E; <E; <E; <E; <E; <E; <E; <E; <E; <E; <E; <E; <E; <E; <E; <E; <E; E E  BG BG BG BG BG BG BG BG BG BG BG BG BG BG BG BG BG BG BG BG BG BG BG  CH CH CH CH CH CH CH CH CH CH CH CH CH CH CH CH CH CH CH CH CH CH CH  BG BG BG BG BG BG BG BG BG BG BG BG BG BG BG BG BG BG BG BG BG BG BG B BE BE BE BE BE BE BE BE BE BE BE BE BE BE BE BE BE BE BE BE BE E E  NG7 NG7 NG7 NG7 NG7 NG7 NG7 NG7 NG7 NG7 NG7 NG7 NG7 NG7 NG7 NG7 NG7 NG7 NG7 NG7 NG7 NG7 NG7 N7 NC7 NC7 NC7 NC7 NC7 NC7 NC7 NC7 NC7 NC7 NC7 NC7 NC7 NC7 NC7 NC7 NC7 NC7 NC7 NC7 NC7 C C  CE CE CE CE CE CE CE CE CE CE CE CE CE CE CE CE CE CE CE CE CE CE CE C CG CG CG CG CG CG CG CG CG CG CG CG CG CG CG CG CG CG CG CG CG G G  CI CI CI CI CI CI CI CI CI CI CI CI CI CI CI CI CI CI CI CI CI CI CI C CJ CJ CJ CJ CJ CJ CJ CJ CJ CJ CJ CJ CJ CJ CJ CJ CJ CJ CJ CJ CJ J J  LL1 LL1 LL1 LL1 LL1 LL1 LL1 LL1 LL1 LL1 LL1 LL1 LL1 LL1 LL1 LL1 LL1 LL1 LL1 LL1 LL1 LL1 LL1 LL LL2 LL2 LL2 LL2 LL2 LL2 LL2 LL2 LL2 LL2 LL2 LL2 LL2 LL2 LL2 LL2 LL2 LL2 LL2 LL2 LL2 2 2  =4 =4 =4 =4 =4 =4 =4 =4 =4 =4 =4 =4 =4 =4 =4 =4 =4 =4 =4 =4 =4 =4 =4  >6 >6 >6 >6 >6 >6 >6 >6 >6 >6 >6 >6 >6 >6 >6 >6 >6 >6 >6 >6 >6 >6 >6  =4 =4 =4 =4 =4 =4 =4 =4 =4 =4 =4 =4 =4 =4 =4 =4 =4 =4 =4 =4 =4 =4 =4 = =2 =2 =2 =2 =2 =2 =2 =2 =2 =2 =2 =2 =2 =2 =2 =2 =2 =2 =2 =2 =2 2 2  CI4 CI4 CI4 CI4 CI4 CI4 CI4 CI4 CI4 CI4 CI4 CI4 CI4 CI4 CI4 CI4 CI4 CI4 CI4 CI4 CI4 CI4 CI4 CI CI1 CI1 CI1 CI1 CI1 CI1 CI1 CI1 CI1 CI1 CI1 CI1 CI1 CI1 CI1 CI1 CI1 CI1 CI1 CI1 CI1 1 1  =2 =2 =2 =2 =2 =2 =2 =2 =2 =2 =2 =2 =2 =2 =2 =2 =2 =2 =2 =2 =2 =2 =2 = =4 =4 =4 =4 =4 =4 =4 =4 =4 =4 =4 =4 =4 =4 =4 =4 =4 =4 =4 =4 =4 4 4  =6 =6 =6 =6 =6 =6 =6 =6 =6 =6 =6 =6 =6 =6 =6 =6 =6 =6 =6 =6 =6 =6 =6 = =8 =8 =8 =8 =8 =8 =8 =8 =8 =8 =8 =8 =8 =8 =8 =8 =8 =8 =8 =8 =8 8 8  =B: =B: =B: =B: =B: =B: =B: =B: =B: =B: =B: =B: =B: =B: =B: =B: =B: =B: =B: =B: =B: =B: =B: =: =D: =D: =D: =D: =D: =D: =D: =D: =D: =D: =D: =D: =D: =D: =D: =D: =D: =D: =D: =D: =D: D D  BF BF BF BF BF BF BF BF BF BF BF BF BF BF BF BF BF BF BF BF BF BF BF  CG CG CG CG CG CG CG CG CG CG CG CG CG CG CG CG CG CG CG CG CG CG CG  BF BF BF BF BF BF BF BF BF BF BF BF BF BF BF BF BF BF BF BF BF BF BF B BD BD BD BD BD BD BD BD BD BD BD BD BD BD BD BD BD BD BD BD BD D D  LF6 LF6 LF6 LF6 LF6 LF6 LF6 LF6 LF6 LF6 LF6 LF6 LF6 LF6 LF6 LF6 LF6 LF6 LF6 LF6 LF6 LF6 LF6 L6 LB6 LB6 LB6 LB6 LB6 LB6 LB6 LB6 LB6 LB6 LB6 LB6 LB6 LB6 LB6 LB6 LB6 LB6 LB6 LB6 LB6 B B  BD BD BD BD BD BD BD BD BD BD BD BD BD BD BD BD BD BD BD BD BD BD BD B BF BF BF BF BF BF BF BF BF BF BF BF BF BF BF BF BF BF BF BF BF F F  BG BG BG BG BG BG BG BG BG BG BG BG BG BG BG BG BG BG BG BG BG BG BG B BI BI BI BI BI BI BI BI BI BI BI BI BI BI BI BI BI BI BI BI BI I I  JJ/ JJ/ JJ/ JJ/ JJ/ JJ/ JJ/ JJ/ JJ/ JJ/ JJ/ JJ/ JJ/ JJ/ JJ/ JJ/ JJ/ JJ/ JJ/ JJ/ JJ/ JJ/ JJ/ J/ JL/ JL/ JL/ JL/ JL/ JL/ JL/ JL/ JL/ JL/ JL/ JL/ JL/ JL/ JL/ JL/ JL/ JL/ JL/ JL/ JL/ L L  NJ; NJ; NJ; NJ; NJ; NJ; NJ; NJ; NJ; NJ; NJ; NJ; NJ; NJ; NJ; NJ; NJ; NJ; NJ; NJ; NJ; NJ; NJ; N; NI; NI; NI; NI; NI; NI; NI; NI; NI; NI; NI; NI; NI; NI; NI; NI; NI; NI; NI; NI; NI; I I  SJ; SJ; SJ; SJ; SJ; SJ; SJ; SJ; SJ; SJ; SJ; SJ; SJ; SJ; SJ; SJ; SJ; SJ; SJ; SJ; SJ; SJ; SJ; S; SG; SG; SG; SG; SG; SG; SG; SG; SG; SG; SG; SG; SG; SG; SG; SG; SG; SG; SG; SG; SG; SG SG S SL1 SL1 SL1 SL1 SL1 SL1 SL1 SL1 SL1 SL1 SL1 SL1 SL1 SL1 SL1 SL1 SL1 SL1 SL1 SL1 SL1 SL1 SL1 1 QN1 QN1 QN1 QN1 QN1 QN1 QN1 QN1 QN1 QN1 QN1 QN1 QN1 QN1 QN1 QN1 QN1 QN1 QN1 QN1 QN1 QN QN  OL; OL; OL; OL; OL; OL; OL; OL; OL; OL; OL; OL; OL; OL; OL; OL; OL; OL; OL; OL; OL; OL; OL; ; NJ; NJ; NJ; NJ; NJ; NJ; NJ; NJ; NJ; NJ; NJ; NJ; NJ; NJ; NJ; NJ; NJ; NJ; NJ; NJ; NJ; NJ NJ  OL; OL; OL; OL; OL; OL; OL; OL; OL; OL; OL; OL; OL; OL; OL; OL; OL; OL; OL; OL; OL; OL; OL; ; LI; LI; LI; LI; LI; LI; LI; LI; LI; LI; LI; LI; LI; LI; LI; LI; LI; LI; LI; LI; LI; LI LI  QN3 QN3 QN3 QN3 QN3 QN3 QN3 QN3 QN3 QN3 QN3 QN3 QN3 QN3 QN3 QN3 QN3 QN3 QN3 QN3 QN3 QN3 QN3 Q3 QO3 QO3 QO3 QO3 QO3 QO3 QO3 QO3 QO3 QO3 QO3 QO3 QO3 QO3 QO3 QO3 QO3 QO3 QO3 QO3 QO3 QO QO Q QN; QN; QN; QN; QN; QN; QN; QN; QN; QN; QN; QN; QN; QN; QN; QN; QN; QN; QN; QN; QN; QN; QN; Q; QL; QL; QL; QL; QL; QL; QL; QL; QL; QL; QL; QL; QL; QL; QL; QL; QL; QL; QL; QL; QL; QL QL Q QN; QN; QN; QN; QN; QN; QN; QN; QN; QN; QN; QN; QN; QN; QN; QN; QN; QN; QN; QN; QN; QN; QN; Q; QK; QK; QK; QK; QK; QK; QK; QK; QK; QK; QK; QK; QK; QK; QK; QK; QK; QK; QK; QK; QK; QK QK Q QS4 QS4 QS4 QS4 QS4 QS4 QS4 QS4 QS4 QS4 QS4 QS4 QS4 QS4 QS4 QS4 QS4 QS4 QS4 QS4 QS4 QS4 QS4 QS QS6 QS6 QS6 QS6 QS6 QS6 QS6 QS6 QS6 QS6 QS6 QS6 QS6 QS6 QS6 QS6 QS6 QS6 QS6 QS6 QS6 6 6  OG4 OG4 OG4 OG4 OG4 OG4 OG4 OG4 OG4 OG4 OG4 OG4 OG4 OG4 OG4 OG4 OG4 OG4 OG4 OG4 OG4 OG4 OG4 G NG2 NG2 NG2 NG2 NG2 NG2 NG2 NG2 NG2 NG2 NG2 NG2 NG2 NG2 NG2 NG2 NG2 NG2 NG2 NG2 NG2 N2 N2  LL1 LL1 LL1 LL1 LL1 LL1 LL1 LL1 LL1 LL1 LL1 LL1 LL1 LL1 LL1 LL1 LL1 LL1 LL1 LL1 LL1 LL1 LL1 L JL/ JL/ JL/ JL/ JL/ JL/ JL/ JL/ JL/ JL/ JL/ JL/ JL/ JL/ JL/ JL/ JL/ JL/ JL/ JL/ JL/ JL/ JL/ L IL. IL. IL. IL. IL. IL. IL. IL. IL. IL. IL. IL. IL. IL. IL. IL. IL. IL. IL. IL. IL. IL. IL. . GJ. GJ. GJ. GJ. GJ. GJ. GJ. GJ. GJ. GJ. GJ. GJ. GJ. GJ. GJ. GJ. GJ. GJ. GJ. GJ. GJ. GJ GJ  IL* IL* IL* IL* IL* IL* IL* IL* IL* IL* IL* IL* IL* IL* IL* IL* IL* IL* IL* IL* IL* IL* IL* * FI* FI* FI* FI* FI* FI* FI* FI* FI* FI* FI* FI* FI* FI* FI* FI* FI* FI* FI* FI* FI* FI FI  GJ/ GJ/ GJ/ GJ/ GJ/ GJ/ GJ/ GJ/ GJ/ GJ/ GJ/ GJ/ GJ/ GJ/ GJ/ GJ/ GJ/ GJ/ GJ/ GJ/ GJ/ GJ/ GJ/ J JJ- JJ- JJ- JJ- JJ- JJ- JJ- JJ- JJ- JJ- JJ- JJ- JJ- JJ- JJ- JJ- JJ- JJ- JJ- JJ- JJ- JJ- JJ- J @J+ @J+ @J+ @J+ @J+ @J+ @J+ @J+ @J+ @J+ @J+ @J+ @J+ @J+ @J+ @J+ @J+ @J+ @J+ @J+ @J+ @J+ @J+ J BJ* BJ* BJ* BJ* BJ* BJ* BJ* BJ* BJ* BJ* BJ* BJ* BJ* BJ* BJ* BJ* BJ* BJ* BJ* BJ* BJ* B* B*  CI( CI( CI( CI( CI( CI( CI( CI( CI( CI( CI( CI( CI( CI( CI( CI( CI( CI( CI( CI( CI( CI( CI( C( CG( CG( CG( CG( CG( CG( CG( CG( CG( CG( CG( CG( CG( CG( CG( CG( CG( CG( CG( CG( CG( G G  =F4 =F4 =F4 =F4 =F4 =F4 =F4 =F4 =F4 =F4 =F4 =F4 =F4 =F4 =F4 =F4 =F4 =F4 =F4 =F4 =F4 =F4 =F4 =4 =D4 =D4 =D4 =D4 =D4 =D4 =D4 =D4 =D4 =D4 =D4 =D4 =D4 =D4 =D4 =D4 =D4 =D4 =D4 =D4 =D4 D4 D4 4 BF4 BF4 BF4 BF4 BF4 BF4 BF4 BF4 BF4 BF4 BF4 BF4 BF4 BF4 BF4 BF4 BF4 BF4 BF4 BF4 BF4 BF4 BF4 F4 FF4 FF4 FF4 FF4 FF4 FF4 FF4 FF4 FF4 FF4 FF4 FF4 FF4 FF4 FF4 FF4 FF4 FF4 FF4 FF4 FF4 F F  GB2 GB2 GB2 GB2 GB2 GB2 GB2 GB2 GB2 GB2 GB2 GB2 GB2 GB2 GB2 GB2 GB2 GB2 GB2 GB2 GB2 GB2 GB2 B2 IB2 IB2 IB2 IB2 IB2 IB2 IB2 IB2 IB2 IB2 IB2 IB2 IB2 IB2 IB2 IB2 IB2 IB2 IB2 IB2 IB2 I I  JG7 JG7 JG7 JG7 JG7 JG7 JG7 JG7 JG7 JG7 JG7 JG7 JG7 JG7 JG7 JG7 JG7 JG7 JG7 JG7 JG7 JG7 JG7 G7 GG7 GG7 GG7 GG7 GG7 GG7 GG7 GG7 GG7 GG7 GG7 GG7 GG7 GG7 GG7 GG7 GG7 GG7 GG7 GG7 GG7 GG GG G OG4 OG4 OG4 OG4 OG4 OG4 OG4 OG4 OG4 OG4 OG4 OG4 OG4 OG4 OG4 OG4 OG4 OG4 OG4 OG4 OG4 OG4 OG4 O4 OI4 OI4 OI4 OI4 OI4 OI4 OI4 OI4 OI4 OI4 OI4 OI4 OI4 OI4 OI4 OI4 OI4 OI4 OI4 OI4 OI4 I I  FI6 FI6 FI6 FI6 FI6 FI6 FI6 FI6 FI6 FI6 FI6 FI6 FI6 FI6 FI6 FI6 FI6 FI6 FI6 FI6 FI6 FI6 FI6 FI6 FI6 FI6 FI6 FI6 FI6 FI6 FI6 FI6 FI6 FI6 FI6 FI6 FI6 FI6 FI6 FI6 FI6 FI6 FI6 FI6 FI6 FI FI FI FI* FI* FI* FI* FI* FI* FI* FI* FI* FI* FI* FI* FI* FI* FI* FI* FI* FI* FI* * * * * * GG* GG* GG* GG* GG* GG* GG* GG* GG* GG* GG* GG* GG* GG* GG* GG* GG* GG* GG* GG* GG* GG GG  GG/ GG/ GG/ GG/ GG/ GG/ GG/ GG/ GG/ GG/ GG/ GG/ GG/ GG/ GG/ GG/ GG/ GG/ GG/ GG/ GG/ GG/ GG/ GG/ GG/ GG/ GG/ GG/ GG/ GG/ GG/ GG/ GG/ GG/ GG/ GG/ GG/ GG/ GG/ GG/ GG/ GG/ GG/ GG/ GG/ GG/ GG/ GG/ GG/ GG/ GG/ GG/ GG/ GG/ GG/ GG/ GG/ GG/ GG/ GG/ GG/ GG/ GG/ GG/ GG/ GG/ GG/ GG/ GG/ GG/ GG/ GG/ GG/ GG/ GG/ GG/ GG/ GG/ GG/ GG/ GG/ GG/ GG/ GG/ GG/ GG/ GG/ GG/ GG/                                                                                                                                                                                                        7+ 7+ 7+ 7+ 7+ 7+ 7+ 7+ 7+ 7+ 7+ 7+ 7+ 7+ 7+ 7+ 7+ 7+ 7+ 7+ 7+ 7+ 7+ 7+ 7+ 7+ 7+ 7+ 7+ 7+ 7+ 7+ 7+ 7+ 7+ 7+ 7+ 7+ 7+ 7+ 7+ 7+ 7+ 7+ 7+ + + + C+ C+ C+ C+ C+ C+ C+ C+ C+ C+ C+ C+ C+ C+ C+ C+ C+ C+ C+ C+ C+ C+ C+ C+ C+ C+ C+ C+ C+ C+ C+ C+ C+ C+ C+ C+ C+ C+ C+ C+ C+ C+ C+ C+ C+ + + + C+ C+ C+ C+ C+ C+ C+ C+ C+ C+ C+ C+ C+ C+ C+ C+ C+ C+ C+ C+ C+ C+ C+ C+ C+ C+ C+ C+ C+ C+ C+ C+ C+ C+ C+ C+ C+ C C C C C C C C    9 9 9 9 9 9 9 9 9 9 9 9 9 9 9 9 9 9 9 9 9 9 9 9 9 9 9 9 9 9 9 9 9 9 9 9 9 9 9 9 9 9 9 9 9    C C C C C C C C C C C C C C C C C C C C C C C C C C C C C C C C C C C C C C C C C C C C C    C C C C C C C C C C C C C C C C C C C C C C C C C C C C C C C C C C C C C C C C C C C C C    ; ; ; ; ; ; ; ; ; ; ; ; ; ; ; ; ; ; ; ; ; ; ; ; ; ; ; ; ; ; ; ; ; ; ; ; ; ; ; ; ; ; ; ; ;    C C C C C C C C C C C C C C C C C C C C C C C C C C C C C C C C C C C C C C C C C C C C C    C7 C7 C7 C7 C7 C7 C7 C7 C7 C7 C7 C7 C7 C7 C7 C7 C7 C7 C7 C7 C7 C7 C7 C7 C7 C7 C7 C7 C7 C7 C7 C7 C7 C7 C7 C7 C7 C7 C7 C7 C7 C7 C7 C7 C7    <4 <4 <4 <4 <4 <4 <4 <4 <4 <4 <4 <4 <4 <4 <4 <4 <4 <4 <4 <4 <4 <4 <4 <4 <4 <4 <4 <4 <4 <4 <4 <4 <4 <4 <4 <4 <4 <4 <4 <4 <4 <4 <4 <4 <4    E< E< E< E< E< E< E< E< E< E< E< E< E< E< E< E< E< E< E< E< E< E< E< E< E< E< E< E< E< E< E< E< E< E< E< E< E< E< E< E< E< E< E< E< E< < < < @< @< @< @< @< @< @< @< @< @< @< @< @< @< @< @< @< @< @< @< @< @< @< @< @< @< @< @< @< @< @< @< @< @< @< @< @< @< @< @< @< @< @< @< @< < < < B< B< B< B< B< B< B< B< B< B< B< B< B< B< B< B< B< B< B< B< B< B< B< B< B< B< B< B< B< B< B< B< B< B< B< B< B< B< B< B< B< B< B< B< B< < < < >< >< >< >< >< >< >< >< >< >< >< >< >< >< >< >< >< >< >< >< >< >< >< >< >< >< >< >< >< >< >< >< >< >< >< >< >< >< >< >< >< > > > >    C; C; C; C; C; C; C; C; C; C; C; C; C; C; C; C; C; C; C; C; C; C; C; C; C; C; C; C; C; C; C; C; C; C; C; C; C; C; C; C; C; C; C; C; C;    @< @< @< @< @< @< @< @< @< @< @< @< @< @< @< @< @< @< @< @< @< @< @< @< @< @< @< @< @< @< @< @< @< @< @< @< @< @< @< @< @< @< @< @< @<    <9 <9 <9 <9 <9 <9 <9 <9 <9 <9 <9 <9 <9 <9 <9 <9 <9 <9 <9 <9 <9 <9 <9 <9 <9 <9 <9 <9 <9 <9 <9 <9 <9 <9 <9 <9 <9 <9 <9 <9 <9 <9 <9 <9 <9    >6 >6 >6 >6 >6 >6 >6 >6 >6 >6 >6 >6 >6 >6 >6 >6 >6 >6 >6 >6 >6 >6 >6 >6 >6 >6 >6 >6 >6 >6 >6 >6 >6 >6 >6 >6 >6 >6 >6 >6 >6 >6 >6 >6 >6    7; 7; 7; 7; 7; 7; 7; 7; 7; 7; 7; 7; 7; 7; 7; 7; 7; 7; 7; 7; 7; 7; 7; 7; 7; 7; 7; 7; 7; 7; 7; 7; 7; 7; 7; 7; 7; 7; 7; 7; 7; 7; 7; 7; 7;    J7 J7 J7 J7 J7 J7 J7 J7 J7 J7 J7 J7 J7 J7 J7 J7 J7 J7 J7 J7 J7 J7 J7 J7 J7 J7 J7 J7 J7 J7 J7 J7 J7 J7 J7 J7 J7 J7 J7 J7 J7 J7 J7 J7 J7 J J J J9 J9 J9 J9 J9 J9 J9 J9 J9 J9 J9 J9 J9 J9 J9 J9 J9 J9 J9 J9 J9 J9 J9 J9 J9 J9 J9 J9 J9 J9 J9 J9 J9 J9 J9 J9 J9 J9 J9 J9 J9 J9 J9 J9 J9 J J J J; J; J; J; J; J; J; J; J; J; J; J; J; J; J; J; J; J; J; J; J; J; J; J; J; J; J; J; J; J; J; J; J; J; J; J; J; J; J; J; J; J; J; J; J;    H@ H@ H@ H@ H@ H@ H@ H@ H@ H@ H@ H@ H@ H@ H@ H@ H@ H@ H@ H@ H@ H@ H@ @ G@ G@ G@ G@ G@ G@ G@ G@ G@ G@ G@ G@ G@ G@ G@ G@ G@ G@ G@ G@ G@ G G  E< E< E< E< E< E< E< E< E< E< E< E< E< E< E< E< E< E< E< E< E< E< E< < C< C< C< C< C< C< C< C< C< C< C< C< C< C< C< C< C< C< C< C< C< C C  B>> B>> B>> B>> B>> B>> B>> B>> B>> B>> B>> B>> B>> B>> B>> B>> B>> B>> B>> B>> B>> B>> B>> >> C>> C>> C>> C>> C>> C>> C>> C>> C>> C>> C>> C>> C>> C>> C>> C>> C>> C>> C>> C>> C>> C> C> > BJ> BJ> BJ> BJ> BJ> BJ> BJ> BJ> BJ> BJ> BJ> BJ> BJ> BJ> BJ> BJ> BJ> BJ> BJ> BJ> BJ> BJ> BJ> J> @J> @J> @J> @J> @J> @J> @J> @J> @J> @J> @J> @J> @J> @J> @J> @J> @J> @J> @J> @J> @J> @> @> > BJ> BJ> BJ> BJ> BJ> BJ> BJ> BJ> BJ> BJ> BJ> BJ> BJ> BJ> BJ> BJ> BJ> BJ> BJ> BJ> BJ> BJ> BJ> J> >J> >J> >J> >J> >J> >J> >J> >J> >J> >J> >J> >J> >J> >J >J >J >J >J >J >J >J > >  C@ C@ C@ C@ C@ C@ C@ C@ C@ C@ C@ C@ C@ C@ C@ C@ C@ C@ C@ C@ C@ C@ C@ @ E@ E@ E@ E@ E@ E@ E@ E@ E@ E@ E@ E@ E@ E@ E@ E@ E@ E@ E@ E@ E@ E E  CJ CJ CJ CJ CJ CJ CJ CJ CJ CJ CJ CJ CJ CJ CJ CJ CJ CJ CJ CJ CJ CJ CJ J BJ BJ BJ BJ BJ BJ BJ BJ BJ BJ BJ BJ BJ BJ BJ BJ BJ BJ BJ BJ BJ B B  CJ CJ CJ CJ CJ CJ CJ CJ CJ CJ CJ CJ CJ CJ CJ CJ CJ CJ CJ CJ CJ CJ CJ J @J @J @J @J @J @J @J @J @J @J @J @J @J @J @J @J @J @J @J @J @J @ @  EB EB EB EB EB EB EB EB EB EB EB EB EB EB EB EB EB EB EB EB EB EB EB B GB GB GB GB GB GB GB GB GB GB GB GB GB GB GB GB GB GB GB GB GB G G  EJ EJ EJ EJ EJ EJ EJ EJ EJ EJ EJ EJ EJ EJ EJ EJ EJ EJ EJ EJ EJ EJ EJ J CJ CJ CJ CJ CJ CJ CJ CJ CJ CJ CJ CJ CJ CJ CJ CJ CJ CJ CJ CJ CJ C C  EJ2 EJ2 EJ2 EJ2 EJ2 EJ2 EJ2 EJ2 EJ2 EJ2 EJ2 EJ2 EJ2 EJ2 EJ2 EJ2 EJ2 EJ2 EJ2 EJ2 EJ2 EJ2 EJ2 J2 BJ2 BJ2 BJ2 BJ2 BJ2 BJ2 BJ2 BJ2 BJ2 BJ2 BJ2 BJ2 BJ2 BJ2 BJ2 BJ2 BJ2 BJ2 BJ2 BJ2 BJ2 B B  GC/ GC/ GC/ GC/ GC/ GC/ GC/ GC/ GC/ GC/ GC/ GC/ GC/ GC/ GC/ GC/ GC/ GC/ GC/ GC/ GC/ GC/ GC/ C/ HC/ HC/ HC/ HC/ HC/ HC/ HC/ HC/ HC/ HC/ HC/ HC/ HC/ HC/ HC/ HC/ HC/ HC/ HC/ HC/ HC/ H H  GL+ GL+ GL+ GL+ GL+ GL+ GL+ GL+ GL+ GL+ GL+ GL+ GL+ GL+ GL+ GL+ GL+ GL+ GL+ GL+ GL+ GL+ GL+ L+ EL+ EL+ EL+ EL+ EL+ EL+ EL+ EL+ EL+ EL+ EL+ EL+ EL+ EL+ EL+ EL+ EL+ EL+ EL+ EL+ EL+ E E  GG7 GG7 GG7 GG7 GG7 GG7 GG7 GG7 GG7 GG7 GG7 GG7 GG7 GG7 GG7 GG7 GG7 GG7 GG7 GG7 GG7 GG7 GG7 G7 CG7 CG7 CG7 CG7 CG7 CG7 CG7 CG7 CG7 CG7 CG7 CG7 CG7 CG7 CG7 CG7 CG7 CG7 CG7 CG7 CG7 C7 C7 7 EI7 EI7 EI7 EI7 EI7 EI7 EI7 EI7 EI7 EI7 EI7 EI7 EI7 EI7 EI7 EI7 EI7 EI7 EI7 EI7 EI7 EI7 EI7 I7 GI7 GI7 GI7 GI7 GI7 GI7 GI7 GI7 GI7 GI7 GI7 GI7 GI7 GI7 GI7 GI7 GI7 GI7 GI7 GI7 GI7 G G  EE6 EE6 EE6 EE6 EE6 EE6 EE6 EE6 EE6 EE6 EE6 EE6 EE6 EE6 EE6 EE6 EE6 EE6 EE6 EE6 EE6 EE6 EE6 E6 CE6 CE6 CE6 CE6 CE6 CE6 CE6 CE6 CE6 CE6 CE6 CE6 CE6 CE6 CE6 CE6 CE6 CE6 CE6 CE6 CE6 C C  EJ; EJ; EJ; EJ; EJ; EJ; EJ; EJ; EJ; EJ; EJ; EJ; EJ; EJ; EJ; EJ; EJ; EJ; EJ; EJ; EJ; EJ; EJ; J; BJ; BJ; BJ; BJ; BJ; BJ; BJ; BJ; BJ; BJ; BJ; BJ; BJ; BJ; BJ; BJ; BJ; BJ; BJ; BJ; BJ; B B  CG4 CG4 CG4 CG4 CG4 CG4 CG4 CG4 CG4 CG4 CG4 CG4 CG4 CG4 CG4 CG4 CG4 CG4 CG4 CG4 CG4 CG4 CG4 G4 EG4 EG4 EG4 EG4 EG4 EG4 EG4 EG4 EG4 EG4 EG4 EG4 EG4 EG4 EG4 EG4 EG4 EG4 EG4 EG4 EG4 E E  CC> CC> CC> CC> CC> CC> CC> CC> CC> CC> CC> CC> CC> CC> CC> CC> CC> CC> CC> CC> CC> CC> CC> C> BC> BC> BC> BC> BC> BC> BC> BC> BC> BC> BC> BC> BC> BC> BC> BC> BC> BC> BC> BC> BC> B B  CE< CE< CE< CE< CE< CE< CE< CE< CE< CE< CE< CE< CE< CE< CE< CE< CE< CE< CE< CE< CE< CE< CE< E< @E< @E< @E< @E< @E< @E< @E< @E< @E< @E< @E< @E< @E< @E< @E< @E< @E< @E< @E< @E< @E< @< @< < B>< B>< B>< B>< B>< B>< B>< B>< B>< B>< B>< B>< B>< B>< B>< B>< B>< B>< B>< B>< B>< B>< B>< B>< B>< B>< B>< B>< B>< B>< B>< B>< B>< B>< B>< B>< B>< B>< B>< B>< B>< B>< B>< B>< B><    >O; >O; >O; >O; >O; >O; >O; >O; >O; >O; >O; >O; >O; >O; >O; >O; >O; >O; >O; >O; >O; >O; >O; >O; >O; >O; >O; >O; >O; >O; >O; >O; >O; >O; >O; >O; >O; >O; >O; >O; >O; >O; >O; >O; >O; O O O CO@ CO@ CO@ CO@ CO@ CO@ CO@ CO@ CO@ CO@ CO@ CO@ CO@ CO@ CO@ CO@ CO@ CO@ CO@ CO@ CO@ CO@ CO@ CO@ CO@ CO@ CO@ CO@ CO@ CO@ CO@ CO@ CO@ CO@ CO@ CO@ CO@ CO@ CO@ CO@ CO@ CO@ CO@ CO@ CO@ O O O HO9 HO9 HO9 HO9 HO9 HO9 HO9 HO9 HO9 HO9 HO9 HO9 HO9 HO9 HO9 HO9 HO9 HO9 HO9 HO9 HO9 HO9 HO9 HO9 HO9 HO9 HO9 HO9 HO9 HO9 HO9 HO9 HO9 HO9 HO9 HO9 HO9 HO9 HO9 HO9 HO9 HO9 HO9 HO9 HO9    EN> EN> EN> EN> EN> EN> EN> EN> EN> EN> EN> EN> EN> EN> EN> EN> EN> EN> EN> EN> EN> EN> EN> E> EL> EL> EL> EL> EL> EL> EL> EL> EL> EL> EL> EL> EL> EL> EL> EL> EL> EL> EL> EL> EL> L L  NJ2 NJ2 NJ2 NJ2 NJ2 NJ2 NJ2 NJ2 NJ2 NJ2 NJ2 NJ2 NJ2 NJ2 NJ2 NJ2 NJ2 NJ2 NJ2 NJ2 NJ2 NJ2 NJ2 N2 NH2 NH2 NH2 NH2 NH2 NH2 NH2 NH2 NH2 NH2 NH2 NH2 NH2 NH2 NH2 NH2 NH2 NH2 NH2 NH2 NH2 H H  OG+ OG+ OG+ OG+ OG+ OG+ OG+ OG+ OG+ OG+ OG+ OG+ OG+ OG+ OG+ OG+ OG+ OG+ OG+ OG+ OG+ OG+ OG+ O+ OH+ OH+ OH+ OH+ OH+ OH+ OH+ OH+ OH+ OH+ OH+ OH+ OH+ OH+ OH+ OH+ OH+ OH+ OH+ OH+ OH+ OH OH O OG7 OG7 OG7 OG7 OG7 OG7 OG7 OG7 OG7 OG7 OG7 OG7 OG7 OG7 OG7 OG7 OG7 OG7 OG7 OG7 OG7 OG7 OG7 O7 OE7 OE7 OE7 OE7 OE7 OE7 OE7 OE7 OE7 OE7 OE7 OE7 OE7 OE7 OE7 OE7 OE7 OE7 OE7 OE7 OE7 OE OE O OG7 OG7 OG7 OG7 OG7 OG7 OG7 OG7 OG7 OG7 OG7 OG7 OG7 OG7 OG7 OG7 OG7 OG7 OG7 OG7 OG7 OG7 OG7 O7 OC7 OC7 OC7 OC7 OC7 OC7 OC7 OC7 OC7 OC7 OC7 OC7 OC7 OC7 OC7 OC7 OC7 OC7 OC7 OC7 OC7 OC OC O OH- OH- OH- OH- OH- OH- OH- OH- OH- OH- OH- OH- OH- OH- OH- OH- OH- OH- OH- OH- OH- OH- OH- O- OJ- OJ- OJ- OJ- OJ- OJ- OJ- OJ- OJ- OJ- OJ- OJ- OJ- OJ- OJ- OJ- OJ- OJ- OJ- OJ- OJ- OJ OJ O OH7 OH7 OH7 OH7 OH7 OH7 OH7 OH7 OH7 OH7 OH7 OH7 OH7 OH7 OH7 OH7 OH7 OH7 OH7 OH7 OH7 OH7 OH7 O7 OG7 OG7 OG7 OG7 OG7 OG7 OG7 OG7 OG7 OG7 OG7 OG7 OG7 OG7 OG7 OG7 OG7 OG7 OG7 OG7 OG7 OG OG O OH7 OH7 OH7 OH7 OH7 OH7 OH7 OH7 OH7 OH7 OH7 OH7 OH7 OH7 OH7 OH7 OH7 OH7 OH7 OH7 OH7 OH7 OH7 O7 OE7 OE7 OE7 OE7 OE7 OE7 OE7 OE7 OE7 OE7 OE7 OE7 OE7 OE7 OE7 OE7 OE7 OE7 OE7 OE7 OE7 OE OE O OJ/ OJ/ OJ/ OJ/ OJ/ OJ/ OJ/ OJ/ OJ/ OJ/ OJ/ OJ/ OJ/ OJ/ OJ/ OJ/ OJ/ OJ/ OJ/ OJ/ OJ/ OJ/ OJ/ O/ OL/ OL/ OL/ OL/ OL/ OL/ OL/ OL/ OL/ OL/ OL/ OL/ OL/ OL/ OL/ OL/ OL/ OL/ OL/ OL/ OL/ L L  JJ7 JJ7 JJ7 JJ7 JJ7 JJ7 JJ7 JJ7 JJ7 JJ7 JJ7 JJ7 JJ7 JJ7 JJ7 JJ7 JJ7 JJ7 JJ7 JJ7 JJ7 JJ7 JJ7 J7 JH7 JH7 JH7 JH7 JH7 JH7 JH7 JH7 JH7 JH7 JH7 JH7 JH7 JH7 JH7 JH7 JH7 JH7 JH7 JH7 JH7 H H  GJ7 GJ7 GJ7 GJ7 GJ7 GJ7 GJ7 GJ7 GJ7 GJ7 GJ7 GJ7 GJ7 GJ7 GJ7 GJ7 GJ7 GJ7 GJ7 GJ7 GJ7 GJ7 GJ7 G7 GG7 GG7 GG7 GG7 GG7 GG7 GG7 GG7 GG7 GG7 GG7 GG7 GG7 GG7 GG7 GG7 GG7 GG7 GG7 GG7 GG7 G G  CL0 CL0 CL0 CL0 CL0 CL0 CL0 CL0 CL0 CL0 CL0 CL0 CL0 CL0 CL0 CL0 CL0 CL0 CL0 CL0 CL0 CL0 CL0 C0 CM0 CM0 CM0 CM0 CM0 CM0 CM0 CM0 CM0 CM0 CM0 CM0 CM0 CM0 CM0 CM0 CM0 CM0 CM0 CM0 CM0 M M  HL9 HL9 HL9 HL9 HL9 HL9 HL9 HL9 HL9 HL9 HL9 HL9 HL9 HL9 HL9 HL9 HL9 HL9 HL9 HL9 HL9 HL9 HL9 H9 HJ9 HJ9 HJ9 HJ9 HJ9 HJ9 HJ9 HJ9 HJ9 HJ9 HJ9 HJ9 HJ9 HJ9 HJ9 HJ9 HJ9 HJ9 HJ9 HJ9 HJ9 HJ HJ H HL4 HL4 HL4 HL4 HL4 HL4 HL4 HL4 HL4 HL4 HL4 HL4 HL4 HL4 HL4 HL4 HL4 HL4 HL4 HL4 HL4 HL4 HL4 H4 HH4 HH4 HH4 HH4 HH4 HH4 HH4 HH4 HH4 HH4 HH4 HH4 HH4 HH4 HH4 HH4 HH4 HH4 HH4 HH4 HH4 HH HH H HJ6 HJ6 HJ6 HJ6 HJ6 HJ6 HJ6 HJ6 HJ6 HJ6 HJ6 HJ6 HJ6 HJ6 HJ6 HJ6 HJ6 HJ6 HJ6 HJ6 HJ6 HJ6 HJ6 H6 HL6 HL6 HL6 HL6 HL6 HL6 HL6 HL6 HL6 HL6 HL6 HL6 HL6 HL6 HL6 HL6 HL6 HL6 HL6 HL6 HL6 L L  GJ2 GJ2 GJ2 GJ2 GJ2 GJ2 GJ2 GJ2 GJ2 GJ2 GJ2 GJ2 GJ2 GJ2 GJ2 GJ2 GJ2 GJ2 GJ2 GJ2 GJ2 GJ2 GJ2 2 EH2 EH2 EH2 EH2 EH2 EH2 EH2 EH2 EH2 EH2 EH2 EH2 EH2 EH2 EH2 EH2 EH2 EH2 EH2 EH2 EH2 EH EH  GJ7 GJ7 GJ7 GJ7 GJ7 GJ7 GJ7 GJ7 GJ7 GJ7 GJ7 GJ7 GJ7 GJ7 GJ7 GJ7 GJ7 GJ7 GJ7 GJ7 GJ7 GJ7 GJ7 G7 GG7 GG7 GG7 GG7 GG7 GG7 GG7 GG7 GG7 GG7 GG7 GG7 GG7 GG7 GG7 GG7 GG7 GG7 GG7 GG7 GG7 GG GG G GH4 GH4 GH4 GH4 GH4 GH4 GH4 GH4 GH4 GH4 GH4 GH4 GH4 GH4 GH4 GH4 GH4 GH4 GH4 GH4 GH4 GH4 GH4 G4 GJ4 GJ4 GJ4 GJ4 GJ4 GJ4 GJ4 GJ4 GJ4 GJ4 GJ4 GJ4 GJ4 GJ4 GJ4 GJ4 GJ4 GJ4 GJ4 GJ4 GJ4 J J  EH0 EH0 EH0 EH0 EH0 EH0 EH0 EH0 EH0 EH0 EH0 EH0 EH0 EH0 EH0 EH0 EH0 EH0 EH0 EH0 EH0 EH0 EH0 E0 EG0 EG0 EG0 EG0 EG0 EG0 EG0 EG0 EG0 EG0 EG0 EG0 EG0 EG0 EG0 EG0 EG0 EG0 EG0 EG0 EG0 G G  NH2 NH2 NH2 NH2 NH2 NH2 NH2 NH2 NH2 NH2 NH2 NH2 NH2 NH2 NH2 NH2 NH2 NH2 NH2 NH2 NH2 NH2 NH2 N2 NE2 NE2 NE2 NE2 NE2 NE2 NE2 NE2 NE2 NE2 NE2 NE2 NE2 NE2 NE2 NE2 NE2 NE2 NE2 NE2 NE2 E E  CG+ CG+ CG+ CG+ CG+ CG+ CG+ CG+ CG+ CG+ CG+ CG+ CG+ CG+ CG+ CG+ CG+ CG+ CG+ CG+ CG+ CG+ CG+ C+ CE+ CE+ CE+ CE+ CE+ CE+ CE+ CE+ CE+ CE+ CE+ CE+ CE+ CE+ CE+ CE+ CE+ CE+ CE+ CE+ CE+ E E  SC7 SC7 SC7 SC7 SC7 SC7 SC7 SC7 SC7 SC7 SC7 SC7 SC7 SC7 SC7 SC7 SC7 SC7 SC7 SC7 SC7 SC7 SC7 S7 SB7 SB7 SB7 SB7 SB7 SB7 SB7 SB7 SB7 SB7 SB7 SB7 SB7 SB7 SB7 SB7 SB7 SB7 SB7 SB7 SB7 SB SB S S@+ S@+ S@+ S@+ S@+ S@+ S@+ S@+ S@+ S@+ S@+ S@+ S@+ S@+ S@+ S@+ S@+ S@+ S@+ S@+ S@+ S@+ S@+ S+ S<+ S<+ S<+ S<+ S<+ S<+ S<+ S<+ S<+ S<+ S<+ S<+ S<+ S<+ S<+ S<+ S<+ S<+ S<+ S<+ S<+ S< S< S< S<- S<- S<- S<- S<- S<- S<- S<- S<- S<- S<- S<- S<- S<- S<- S<- S<- S<- S<- S<- S<- S- S- S- ST- ST- ST- ST- ST- ST- ST- ST- ST- ST- ST- ST- ST- ST- ST- ST- ST- ST- ST- ST- ST- T T T QT6 QT6 QT6 QT6 QT6 QT6 QT6 QT6 QT6 QT6 QT6 QT6 QT6 QT6 QT6 QT6 QT6 QT6 QT6 QT6 QT6 QT6 QT6 T6 OT6 OT6 OT6 OT6 OT6 OT6 OT6 OT6 OT6 OT6 OT6 OT6 OT6 OT6 OT6 OT6 OT6 OT6 OT6 OT6 OT6 OT OT T NT- NT- NT- NT- NT- NT- NT- NT- NT- NT- NT- NT- NT- NT- NT- NT- NT- N- N- N- N- N- N- - L- L- L- L- L- L- L- L- L- L- L- L- L- L- L- L- L- L- L- L- L- L L  JT/ JT/ JT/ JT/ JT/ JT/ JT/ JT/ JT/ JT/ JT/ JT/ JT/ JT/ JT/ JT/ JT/ JT/ JT/ JT/ JT/ JT/ JT/ JT/ JT/ JT/ JT/ JT/ JT/ JT/ JT/ JT/ JT/ JT/ JT/ JT/ JT/ JT/ JT/ JT/ JT/ JT/ JT/ JT/ JT/    VS7 VS7 VS7 VS7 VS7 VS7 VS7 VS7 VS7 VS7 VS7 VS7 VS7 VS7 VS7 VS7 VS7 VS7 VS7 VS7 VS7 VS7 VS7 V7 VQ7 VQ7 VQ7 VQ7 VQ7 VQ7 VQ7 VQ7 VQ7 VQ7 VQ7 VQ7 VQ7 VQ7 VQ7 VQ7 VQ7 VQ7 VQ7 VQ7 VQ7 VQ VQ V VO/ VO/ VO/ VO/ VO/ VO/ VO/ VO/ VO/ VO/ VO/ VO/ VO/ VO/ VO/ VO/ VO/ VO/ VO/ VO/ VO/ VO/ VO/ V/ VM/ VM/ VM/ VM/ VM/ VM/ VM/ VM/ VM/ VM/ VM/ VM/ VM/ VM/ VM/ VM/ VM/ VM/ VM/ VM/ VM/ VM VM V VL0 VL0 VL0 VL0 VL0 VL0 VL0 VL0 VL0 VL0 VL0 VL0 VL0 VL0 VL0 VL0 VL0 VL0 VL0 VL0 VL0 VL0 VL0 V0 VM0 VM0 VM0 VM0 VM0 VM0 VM0 VM0 VM0 VM0 VM0 VM0 VM0 VM0 VM0 VM0 VM0 VM0 VM0 VM0 VM0 M M  TL9 TL9 TL9 TL9 TL9 TL9 TL9 TL9 TL9 TL9 TL9 TL9 TL9 TL9 TL9 TL9 TL9 TL9 TL9 TL9 TL9 TL9 TL9 9 SJ9 SJ9 SJ9 SJ9 SJ9 SJ9 SJ9 SJ9 SJ9 SJ9 SJ9 SJ9 SJ9 SJ9 SJ9 SJ9 SJ9 SJ9 SJ9 SJ9 SJ9 SJ SJ  QH0 QH0 QH0 QH0 QH0 QH0 QH0 QH0 QH0 QH0 QH0 QH0 QH0 QH0 QH0 QH0 QH0 QH0 QH0 QH0 QH0 QH0 QH0 0 OG0 OG0 OG0 OG0 OG0 OG0 OG0 OG0 OG0 OG0 OG0 OG0 OG0 OG0 OG0 OG0 OG0 OG0 OG0 OG0 OG0 OG OG  NE2 NE2 NE2 NE2 NE2 NE2 NE2 NE2 NE2 NE2 NE2 NE2 NE2 NE2 NE2 NE2 NE2 NE2 NE2 NE2 NE2 NE2 NE2 NE NE4 NE4 NE4 NE4 NE4 NE4 NE4 NE4 NE4 NE4 NE4 NE4 NE4 NE4 NE4 NE4 NE4 NE4 NE4 NE4 NE4 E4 E4 E JE6 JE6 JE6 JE6 JE6 JE6 JE6 JE6 JE6 JE6 JE6 JE6 JE6 JE6 JE6 JE6 JE6 JE6 JE6 JE6 JE6 JE6 JE6 E LE7 LE7 LE7 LE7 LE7 LE7 LE7 LE7 LE7 LE7 LE7 LE7 LE7 LE7 LE7 LE7 LE7 L7 L7 L7 L7 L7 L7  J6 J6 J6 J6 J6 J6 J6 J6 J6 J6 J6 J6 J6 J6 J6 J6 J6 J6 J6 J6 J6 J6 J6 J J4 J4 J4 J4 J4 J4 J4 J4 J4 J4 J4 J4 J4 J4 J4 J4 J4 J4 J4 J4 J4 4 4  Q6 Q6 Q6 Q6 Q6 Q6 Q6 Q6 Q6 Q6 Q6 Q6 Q6 Q6 Q6 Q6 Q6 Q6 Q6 Q6 Q6 Q6 Q6 Q Q2 Q2 Q2 Q2 Q2 Q2 Q2 Q2 Q2 Q2 Q2 Q2 Q2 Q2 Q2 Q2 Q2 Q2 Q2 Q2 Q2 2 2  J4 J4 J4 J4 J4 J4 J4 J4 J4 J4 J4 J4 J4 J4 J4 J4 J4 J4 J4 J4 J4 J4 J4 J J6 J6 J6 J6 J6 J6 J6 J6 J6 J6 J6 J6 J6 J6 J6 J6 J6 J6 J6 J6 J6 6 6  J7 J7 J7 J7 J7 J7 J7 J7 J7 J7 J7 J7 J7 J7 J7 J7 J7 J7 J7 J7 J7 J7 J7 J J9 J9 J9 J9 J9 J9 J9 J9 J9 J9 J9 J9 J9 J9 J9 J9 J9 J9 J9 J9 J9 9 9  VC; VC; VC; VC; VC; VC; VC; VC; VC; VC; VC; VC; VC; VC; VC; VC; VC; VC; VC; VC; VC; VC; VC; V; VE; VE; VE; VE; VE; VE; VE; VE; VE; VE; VE; VE; VE; VE; VE; VE; VE; VE; VE; VE; VE; E; E; ; CG; CG; CG; CG; CG; CG; CG; CG; CG; CG; CG; CG; CG; CG; CG; CG; CG; CG; CG; CG; CG; CG; CG; ; EH; EH; EH; EH; EH; EH; EH; EH; EH; EH; EH; EH; EH; EH; EH; EH; EH; EH EH EH EH EH EH  CG CG CG CG CG CG CG CG CG CG CG CG CG CG CG CG CG CG CG CG CG CG CG C CE CE CE CE CE CE CE CE CE CE CE CE CE CE CE CE CE CE CE CE CE E E  MG MG MG MG MG MG MG MG MG MG MG MG MG MG MG MG MG MG MG MG MG MG MG M MC MC MC MC MC MC MC MC MC MC MC MC MC MC MC MC MC MC MC MC MC C C  CE CE CE CE CE CE CE CE CE CE CE CE CE CE CE CE CE CE CE CE CE CE CE C CG CG CG CG CG CG CG CG CG CG CG CG CG CG CG CG CG CG CG CG CG G G  CH CH CH CH CH CH CH CH CH CH CH CH CH CH CH CH CH CH CH CH CH CH CH C CJ CJ CJ CJ CJ CJ CJ CJ CJ CJ CJ CJ CJ CJ CJ CJ CJ CJ CJ CJ CJ J J  <L0 <L0 <L0 <L0 <L0 <L0 <L0 <L0 <L0 <L0 <L0 <L0 <L0 <L0 <L0 <L0 <L0 <L0 <L0 <L0 <L0 <L0 <L0 <L <L2 <L2 <L2 <L2 <L2 <L2 <L2 <L2 <L2 <L2 <L2 <L2 <L2 <L2 <L2 <L2 <L2 <L2 <L2 <L2 <L2 L2 L2 L HL4 HL4 HL4 HL4 HL4 HL4 HL4 HL4 HL4 HL4 HL4 HL4 HL4 HL4 HL4 HL4 HL4 HL4 HL4 HL4 HL4 HL4 HL4 L JL5 JL5 JL5 JL5 JL5 JL5 JL5 JL5 JL5 JL5 JL5 JL5 JL5 JL5 JL5 JL5 JL5 J5 J5 J5 J5 J5 J5  H4 H4 H4 H4 H4 H4 H4 H4 H4 H4 H4 H4 H4 H4 H4 H4 H4 H4 H4 H4 H4 H4 H4 H H2 H2 H2 H2 H2 H2 H2 H2 H2 H2 H2 H2 H2 H2 H2 H2 H2 H2 H2 H2 H2 2 2  O4 O4 O4 O4 O4 O4 O4 O4 O4 O4 O4 O4 O4 O4 O4 O4 O4 O4 O4 O4 O4 O4 O4 O O0 O0 O0 O0 O0 O0 O0 O0 O0 O0 O0 O0 O0 O0 O0 O0 O0 O0 O0 O0 O0 0 0  H2 H2 H2 H2 H2 H2 H2 H2 H2 H2 H2 H2 H2 H2 H2 H2 H2 H2 H2 H2 H2 H2 H2 H H4 H4 H4 H4 H4 H4 H4 H4 H4 H4 H4 H4 H4 H4 H4 H4 H4 H4 H4 H4 H4 4 4  H6 H6 H6 H6 H6 H6 H6 H6 H6 H6 H6 H6 H6 H6 H6 H6 H6 H6 H6 H6 H6 H6 H6 H H7 H7 H7 H7 H7 H7 H7 H7 H7 H7 H7 H7 H7 H7 H7 H7 H7 H7 H7 H7 H7 7 7  TB9 TB9 TB9 TB9 TB9 TB9 TB9 TB9 TB9 TB9 TB9 TB9 TB9 TB9 TB9 TB9 TB9 TB9 TB9 TB9 TB9 TB9 TB9 T9 TC9 TC9 TC9 TC9 TC9 TC9 TC9 TC9 TC9 TC9 TC9 TC9 TC9 TC9 TC9 TC9 TC9 TC9 TC9 TC9 TC9 C9 C9 9 BE9 BE9 BE9 BE9 BE9 BE9 BE9 BE9 BE9 BE9 BE9 BE9 BE9 BE9 BE9 BE9 BE9 BE9 BE9 BE9 BE9 BE9 BE9 9 CG9 CG9 CG9 CG9 CG9 CG9 CG9 CG9 CG9 CG9 CG9 CG9 CG9 CG9 CG9 CG9 CG9 CG CG CG CG CG CG  BE< BE< BE< BE< BE< BE< BE< BE< BE< BE< BE< BE< BE< BE< BE< BE< BE< BE< BE< BE< BE< BE< BE< B< BC< BC< BC< BC< BC< BC< BC< BC< BC< BC< BC< BC< BC< BC< BC< BC< BC< BC< BC< BC< BC< C C  LE6 LE6 LE6 LE6 LE6 LE6 LE6 LE6 LE6 LE6 LE6 LE6 LE6 LE6 LE6 LE6 LE6 LE6 LE6 LE6 LE6 LE6 LE6 L6 LB6 LB6 LB6 LB6 LB6 LB6 LB6 LB6 LB6 LB6 LB6 LB6 LB6 LB6 LB6 LB6 LB6 LB6 LB6 LB6 LB6 B6 B6 6 BC6 BC6 BC6 BC6 BC6 BC6 BC6 BC6 BC6 BC6 BC6 BC6 BC6 BC6 BC6 BC6 BC6 BC6 BC6 BC6 BC6 BC6 BC6 B6 BE6 BE6 BE6 BE6 BE6 BE6 BE6 BE6 BE6 BE6 BE6 BE6 BE6 BE6 BE6 BE6 BE6 BE BE BE BE E E  BG9 BG9 BG9 BG9 BG9 BG9 BG9 BG9 BG9 BG9 BG9 BG9 BG9 BG9 BG9 BG9 BG9 BG9 BG9 BG9 BG9 BG9 BG9 B9 BH9 BH9 BH9 BH9 BH9 BH9 BH9 BH9 BH9 BH9 BH9 BH9 BH9 BH9 BH9 BH9 BH9 BH9 BH9 BH9 BH9 H H  ;J/ ;J/ ;J/ ;J/ ;J/ ;J/ ;J/ ;J/ ;J/ ;J/ ;J/ ;J/ ;J/ ;J/ ;J/ ;J/ ;J/ ;J/ ;J/ ;J/ ;J/ ;J/ ;J/ J/ <J/ <J/ <J/ <J/ <J/ <J/ <J/ <J/ <J/ <J/ <J/ <J/ <J/ <J/ <J/ <J/ <J/ <J/ <J/ <J/ <J/ <J <J J >J; >J; >J; >J; >J; >J; >J; >J; >J; >J; >J; >J; >J; >J; >J; >J; >J; >J; >J; >J; >J; >J; >J; J; @J; @J; @J; @J; @J; @J; @J; @J; @J; @J; @J; @J; @J; @J; @J; @J; @J; @; @; @; @; @ @  >N9 >N9 >N9 >N9 >N9 >N9 >N9 >N9 >N9 >N9 >N9 >N9 >N9 >N9 >N9 >N9 >N9 >N9 >N9 >N9 >N9 >N9 >N9 N9 <N9 <N9 <N9 <N9 <N9 <N9 <N9 <N9 <N9 <N9 <N9 <N9 <N9 <N9 <N9 <N9 <N9 <N9 <N9 <N9 <N9 < <  >G7 >G7 >G7 >G7 >G7 >G7 >G7 >G7 >G7 >G7 >G7 >G7 >G9 >G9 >G9 >G9 >G9 >G9 >G9 >G9 >G9 >G9 >G9 G9 ;G7 ;G7 ;G7 ;G7 ;G7 ;G7 ;G7 ;G7 ;G7 ;G7 ;G7 ;G7 ;G7 ;G7 ;G7 ;G7 ;G7 ;G7 ;G7 ;G7 ;G7 ;G7 ;G7 G7 <G7 <G7 <G7 <G7 <G7 <G7 <G7 <G7 <G7 <G7 <G7 <G7 <G7 <G7 <G7 <G7 <G7 <G7 <G7 <G7 <G7 <G7 <G7 G7 >G7 >G7 >G7 >G7 >G7 >G7 >G7 >G7 >G7 >G7 >G7 >G7 >G7 >G7 >G7 >G7 >G7 >7 >7 > > > >  @J6 @J6 @J6 @J6 @J6 @J6 @J6 @J6 @J6 @J6 @J6 @J6 @J6 @J6 @J6 @J6 @J6 @J6 @J6 @J6 @J6 @J6 @J6 J6 BJ6 BJ6 BJ6 BJ6 BJ6 BJ6 BJ6 BJ6 BJ6 BJ6 BJ6 BJ6 BJ6 BJ6 BJ6 BJ6 BJ6 BJ6 BJ6 BJ6 BJ6 B B  C@4 C@4 C@4 C@4 C@4 C@4 C@4 C@4 C@4 C@4 C@4 C@4 C@4 C@4 C@4 C@4 C@4 C@4 C@4 C@4 C@4 C@4 C@4 4 EB4 EB4 EB4 EB4 EB4 EB4 EB4 EB4 EB4 EB4 EB4 EB4 EB4 EB4 EB4 EB4 EB4 EB4 EB4 EB4 EB4 EB EB  GC( GC( GC( GC( GC( GC( GC( GC( GC( GC( GC( GC( GC( GC( GC( GC( GC( GC( GC( GC( GC( GC( GC( ( HE( HE( HE( HE( HE( HE( HE( HE( HE( HE( HE( HE( HE( HE( HE( HE( HE( HE( HE( HE( HE( HE HE  GC( GC( GC( GC( GC( GC( GC( GC( GC( GC( GC( GC( GC( GC( GC( GC( GC( GC( GC( GC( GC( GC( GC( ( EB( EB( EB( EB( EB( EB( EB( EB( EB( EB( EB( EB( EB( EB( EB( EB( EB( EB( EB( EB( EB( EB EB  GC( GC( GC( GC( GC( GC( GC( GC( GC( GC( GC( GC( GC( GC( GC( GC( GC( GC( GC( GC( GC( GC( GC( ( C@( C@( C@( C@( C@( C@( C@( C@( C@( C@( C@( C@( C@( C@( C@( C@( C@( C@( C@( C@( C@( C@ C@  EB4 EB4 EB4 EB4 EB4 EB4 EB4 EB4 EB4 EB4 EB4 EB4 EB4 EB4 EB4 EB4 EB4 EB4 EB4 EB4 EB4 EB4 EB4  GC2 GC2 GC2 GC2 GC2 GC2 GC2 GC2 GC2 GC2 GC2 GC2 GC2 GC2 GC2 GC2 GC2 GC2 GC2 GC2 GC2 GC2 GC2  HE0 HE0 HE0 HE0 HE0 HE0 HE0 HE0 HE0 HE0 HE0 HE0 HE0 HE0 HE0 HE0 HE0 HE0 HE0 HE0 HE0 HE0 HE0  JG/ JG/ JG/ JG/ JG/ JG/ JG/ JG/ JG/ JG/ JG/ JG/ JG/ JG/ JG/ JG/ JG/ JG/ JG/ JG/ JG/ JG/ JG/  LH- LH- LH- LH- LH- LH- LH- LH- LH- LH- LH- LH- LH- LH- LH- LH- LH- LH- LH- LH- LH- LH- LH- L LJ/ LJ/ LJ/ LJ/ LJ/ LJ/ LJ/ LJ/ LJ/ LJ/ LJ/ LJ/ LJ/ LJ/ LJ/ LJ/ LJ/ LJ/ LJ/ LJ/ LJ/ J/ J/  EL0 EL0 EL0 EL0 EL0 EL0 EL0 EL0 EL0 EL0 EL0 EL0 EL0 EL0 EL0 EL0 EL0 EL0 EL0 EL0 EL0 EL0 EL0  DM2 DM2 DM2 DM2 DM2 DM2 DM2 DM2 DM2 DM2 DM2 DM2 DM2 DM2 DM2 DM2 DM2 DM2 DM2 DM2 DM2 DM2 DM2  EL0 EL0 EL0 EL0 EL0 EL0 EL0 EL0 EL0 EL0 EL0 EL0 EL0 EL0 EL0 EL0 EL0 EL0 EL0 EL0 EL0 EL0 EL0 E EJ/ EJ/ EJ/ EJ/ EJ/ EJ/ EJ/ EJ/ EJ/ EJ/ EJ/ EJ/ EJ/ EJ/ EJ/ EJ/ EJ/ EJ/ EJ/ EJ/ EJ/ J/ J/  QL0 QL0 QL0 QL0 QL0 QL0 QL0 QL0 QL0 QL0 QL0 QL0 QL0 QL0 QL0 QL0 QL0 QL0 QL0 QL0 QL0 QL0 QL0 Q QH- QH- QH- QH- QH- QH- QH- QH- QH- QH- QH- QH- QH- QH- QH- QH- QH- QH- QH- QH- QH- H- H-  9J/ 9J/ 9J/ 9J/ 9J/ 9J/ 9J/ 9J/ 9J/ 9J/ 9J/ 9J/ 9J/ 9J/ 9J/ 9J/ 9J/ 9J/ 9J/ 9J/ 9J/ 9J/ 9J/ 9 9L0 9L0 9L0 9L0 9L0 9L0 9L0 9L0 9L0 9L0 9L0 9L0 9L0 9L0 9L0 9L0 9L0 9L0 9L0 9L0 9L0 L0 L0  9N2 9N2 9N2 9N2 9N2 9N2 9N2 9N2 9N2 9N2 9N2 9N2 9N2 9N2 9N2 9N2 9N2 9N2 9N2 9N2 9N2 9N2 9N2 9 9O4 9O4 9O4 9O4 9O4 9O4 9O4 9O4 9O4 9O4 9O4 9O4 9O4 9O4 9O4 9O4 9O4 9O4 9O4 9O4 9O4 O4 O4  >Q6 >Q6 >Q6 >Q6 >Q6 >Q6 >Q6 >Q6 >Q6 >Q6 >Q6 >Q6 >Q6 >Q6 >Q6 >Q6 >Q6 >Q6 >Q6 >Q6 >Q6 >Q6 >Q6 Q @Q7 @Q7 @Q7 @Q7 @Q7 @Q7 @Q7 @Q7 @Q7 @Q7 @Q7 @Q7 @Q7 @Q7 @Q7 @Q7 @Q7 @Q7 @Q7 @Q7 @Q7 @7 @7  BH9 BH9 BH9 BH9 BH9 BH9 BH9 BH9 BH9 BH9 BH9 BH9 BH9 BH9 BH9 BH9 BH9 BH9 BH9 BH9 BH9 BH9 BH9  CG; CG; CG; CG; CG; CG; CG; CG; CG; CG; CG; CG; CG; CG; CG; CG; CG; CG; CG; CG; CG; CG; CG;  BH9 BH9 BH9 BH9 BH9 BH9 BH9 BH9 BH9 BH9 BH9 BH9 BH9 BH9 BH9 BH9 BH9 BH9 BH9 BH9 BH9 BH9 BH9 H @H7 @H7 @H7 @H7 @H7 @H7 @H7 @H7 @H7 @H7 @H7 @H7 @H7 @H7 @H7 @H7 @H7 @H7 @H7 @H7 @H7 @7 @7  BH9 BH9 BH9 BH9 BH9 BH9 BH9 BH9 BH9 BH9 BH9 BH9 BH9 BH9 BH9 BH9 BH9 BH9 BH9 BH9 BH9 BH9 BH9 H >H6 >H6 >H6 >H6 >H6 >H6 >H6 >H6 >H6 >H6 >H6 >H6 >H6 >H6 >H6 >H6 >H6 >H6 >H6 >H6 >H6 >6 >6  @Q7 @Q7 @Q7 @Q7 @Q7 @Q7 @Q7 @Q7 @Q7 @Q7 @Q7 @Q7 @Q7 @Q7 @Q7 @Q7 @Q7 @Q7 @Q7 @Q7 @Q7 @Q7 @Q7 Q BQ9 BQ9 BQ9 BQ9 BQ9 BQ9 BQ9 BQ9 BQ9 BQ9 BQ9 BQ9 BQ9 BQ9 BQ9 BQ9 BQ9 BQ9 BQ9 BQ9 BQ9 BQ9 BQ9 Q CQ; CQ; CQ; CQ; CQ; CQ; CQ; CQ; CQ; CQ; CQ; CQ; CQ; CQ; CQ; CQ; CQ; CQ; CQ; CQ; CQ; CQ; CQ; Q EQ< EQ< EQ< EQ< EQ< EQ< EQ< EQ< EQ< EQ< EQ< EQ< EQ< EQ< EQ< EQ< EQ< EQ< EQ< EQ< EQ< EQ< EQ< Q GQ> GQ> GQ> GQ> GQ> GQ> GQ> GQ> GQ> GQ> GQ> GQ> GQ> GQ> GQ> GQ> GQ> GQ> GQ> GQ> GQ> GQ> GQ> Q> HQ> HQ> HQ> HQ> HQ> HQ> HQ> HQ> HQ> HQ> HQ> HQ> HQ> HQ> HQ> HQ> HQ> HQ> HQ> HQ> HQ> H H  GO2 GO2 GO2 GO2 GO2 GO2 GO2 GO2 GO2 GO2 GO2 GO2 GO2 GO2 GO2 GO2 GO2 GO2 GO2 GO2 GO2 GO2 GO2  EN4 EN4 EN4 EN4 EN4 EN4 EN4 EN4 EN4 EN4 EN4 EN4 EN4 EN4 EN4 EN4 EN4 EN4 EN4 EN4 EN4 EN4 EN4  GO2 GO2 GO2 GO2 GO2 GO2 GO2 GO2 GO2 GO2 GO2 GO2 GO2 GO2 GO2 GO2 GO2 GO2 GO2 GO2 GO2 GO2 GO2 O2 CO2 CO2 CO2 CO2 CO2 CO2 CO2 CO2 CO2 CO2 CO2 CO2 CO2 CO2 CO2 CO2 CO2 CO2 CO2 CO2 CO2 CO CO O EO2 EO2 EO2 EO2 EO2 EO2 EO2 EO2 EO2 EO2 EO2 EO2 EO2 EO2 EO2 EO2 EO2 EO2 EO2 EO2 EO2 EO2 EO2 O2 GO2 GO2 GO2 GO2 GO2 GO2 GO2 GO2 GO2 GO2 GO2 GO2 GO2 GO2 GO2 GO2 GO2 GO2 GO2 GO2 GO2 G G  EN< EN< EN< EN< EN< EN< EN< EN< EN< EN< EN< EN< EN< EN< EN< EN< EN< EN< EN< EN< EN< EN< EN< < CL< CL< CL< CL< CL< CL< CL< CL< CL< CL< CL< CL< CL< CL< CL< CL< CL< CL< CL< CL< CL< CL< CL< < EN< EN< EN< EN< EN< EN< EN< EN< EN< EN< EN< EN< EN< EN< EN< EN< EN< EN< EN< EN< EN< EN< EN< < BQ< BQ< BQ< BQ< BQ< BQ< BQ< BQ< BQ< BQ< BQ< BQ< BQ< BQ< BQ< BQ< BQ< BQ BQ BQ BQ BQ BQ  CJ< CJ< CJ< CJ< CJ< CJ< CJ< CJ< CJ< CJ< CJ< CJ< CJ< CJ< CJ< CJ< CJ< CJ< CJ< CJ< CJ< CJ< CJ< C< CL< CL< CL< CL< CL< CL< CL< CL< CL< CL< CL< CL< CL< CL< CL< CL< CL< CL< CL< CL< CL< L L  OJ; OJ; OJ; OJ; OJ; OJ; OJ; OJ; OJ; OJ; OJ; OJ; OJ; OJ; OJ; OJ; OJ; OJ; OJ; OJ; OJ; OJ; OJ;  NH9 NH9 NH9 NH9 NH9 NH9 NH9 NH9 NH9 NH9 NH9 NH9 NH9 NH9 NH9 NH9 NH9 NH9 NH9 NH9 NH9 NH9 NH9  OJ; OJ; OJ; OJ; OJ; OJ; OJ; OJ; OJ; OJ; OJ; OJ; OJ; OJ; OJ; OJ; OJ; OJ; OJ; OJ; OJ; OJ; OJ; O OG7 OG7 OG7 OG7 OG7 OG7 OG7 OG7 OG7 OG7 OG7 OG7 OG7 OG7 OG7 OG7 OG7 OG7 OG7 OG7 OG7 OG7 OG7 O OH9 OH9 OH9 OH9 OH9 OH9 OH9 OH9 OH9 OH9 OH9 OH9 OH9 OH9 OH9 OH9 OH9 OH9 OH9 OH9 OH9 OH9 OH9 O OJ; OJ; OJ; OJ; OJ; OJ; OJ; OJ; OJ; OJ; OJ; OJ; OJ; OJ; OJ; OJ; OJ; OJ; OJ; OJ; OJ; J; J;  NH9 NH9 NH9 NH9 NH9 NH9 NH9 NH9 NH9 NH9 NH9 NH9 NH9 NH9 NH9 NH9 NH9 NH9 NH9 NH9 NH9 NH9 NH9 N NG7 NG7 NG7 NG7 NG7 NG7 NG7 NG7 NG7 NG7 NG7 NG7 NG7 NG7 NG7 NG7 NG7 NG7 NG7 NG7 NG7 G7 G7  BH9 BH9 BH9 BH9 BH9 BH9 BH9 BH9 BH9 BH9 BH9 BH9 BH9 BH9 BH9 BH9 BH9 BH9 BH9 BH9 BH9 BH9 BH9 B BE6 BE6 BE6 BE6 BE6 BE6 BE6 BE6 BE6 BE6 BE6 BE6 BE6 BE6 BE6 BE6 BE6 BE6 BE6 BE6 BE6 BE6 BE6 B BG7 BG7 BG7 BG7 BG7 BG7 BG7 BG7 BG7 BG7 BG7 BG7 BG7 BG7 BG7 BG7 BG7 BG7 BG7 BG7 BG7 BG7 BG7 BG BG9 BG9 BG9 BG9 BG9 BG9 BG9 BG9 BG9 BG9 BG9 BG9 BG9 BG9 BG9 BG9 BG9 BG9 BG9 BG9 BG9 9 9  @L7 @L7 @L7 @L7 @L7 @L7 @L7 @L7 @L7 @L7 @L7 @L7 @L7 @L7 @L7 @L7 @L7 @L7 @L7 @L7 @L7 @L7 @L7 @L @L6 @L6 @L6 @L6 @L6 @L6 @L6 @L6 @L6 @L6 @L6 @L6 @L6 @L6 @L6 @L6 @L6 @L6 @L6 @L6 @L6 L6 L6 L GL7 GL7 GL7 GL7 GL7 GL7 GL7 GL7 GL7 GL7 GL7 GL7 GL7 GL7 GL7 GL7 GL7 GL7 GL7 GL7 GL7 GL7 GL7 GL GL4 GL4 GL4 GL4 GL4 GL4 GL4 GL4 GL4 GL4 GL4 GL4 GL4 GL4 GL4 GL4 GL4 GL4 GL4 GL4 GL4 L4 L4 L EL6 EL6 EL6 EL6 EL6 EL6 EL6 EL6 EL6 EL6 EL6 EL6 EL6 EL6 EL6 EL6 EL6 EL6 EL6 EL6 EL6 EL6 EL6 EL EL7 EL7 EL7 EL7 EL7 EL7 EL7 EL7 EL7 EL7 EL7 EL7 EL7 EL7 EL7 EL7 EL7 EL7 EL7 EL7 EL7 7 7  JJ6 JJ6 JJ6 JJ6 JJ6 JJ6 JJ6 JJ6 JJ6 JJ6 JJ6 JJ6 JJ6 JJ6 JJ6 JJ6 JJ6 JJ6 JJ6 JJ6 JJ6 JJ6 JJ6 J JH4 JH4 JH4 JH4 JH4 JH4 JH4 JH4 JH4 JH4 JH4 JH4 JH4 JH4 JH4 JH4 JH4 JH4 JH4 JH4 JH4 JH4 JH4 J JG6 JG6 JG6 JG6 JG6 JG6 JG6 JG6 JG6 JG6 JG6 JG6 JG6 JG6 JG6 JG6 JG6 JG6 JG6 JG6 JG6 JG6 JG6 J JE2 JE2 JE2 JE2 JE2 JE2 JE2 JE2 JE2 JE2 JE2 JE2 JE2 JE2 JE2 JE2 JE2 JE2 JE2 JE2 JE2 JE2 JE2 J JC4 JC4 JC4 JC4 JC4 JC4 JC4 JC4 JC4 JC4 JC4 JC4 JC4 JC4 JC4 JC4 JC4 JC4 JC4 JC4 JC4 JC4 JC4 JC JC6 JC6 JC6 JC6 JC6 JC6 JC6 JC6 JC6 JC6 JC6 JC6 JC6 JC6 JC6 JC6 JC6 JC6 JC6 JC6 JC6 6 6  HH4 HH4 HH4 HH4 HH4 HH4 HH4 HH4 HH4 HH4 HH4 HH4 HH4 HH4 HH4 HH4 HH4 HH4 HH4 HH4 HH4 HH4 HH4 H GH2 GH2 GH2 GH2 GH2 GH2 GH2 GH2 GH2 GH2 GH2 GH2 GH2 GH2 GH2 GH2 GH2 GH2 GH2 GH2 GH2 GH2 GH2 H EH4 EH4 EH4 EH4 EH4 EH4 EH4 EH4 EH4 EH4 EH4 EH4 EH4 EH4 EH4 EH4 EH4 EH4 EH4 EH4 EH4 EH4 EH4 H CH0 CH0 CH0 CH0 CH0 CH0 CH0 CH0 CH0 CH0 CH0 CH0 CH0 CH0 CH0 CH0 CH0 CH0 CH0 CH0 CH0 CH0 CH0 H BH2 BH2 BH2 BH2 BH2 BH2 BH2 BH2 BH2 BH2 BH2 BH2 BH2 BH2 BH2 BH2 BH2 BH2 BH2 BH2 BH2 BH2 BH2 BH BH4 BH4 BH4 BH4 BH4 BH4 BH4 BH4 BH4 BH4 BH4 BH4 BH4 BH4 BH4 BH4 BH4 BH4 BH4 BH4 BH4 4 4  GG2 GG2 GG2 GG2 GG2 GG2 GG2 GG2 GG2 GG2 GG2 GG2 GG2 GG2 GG2 GG2 GG2 GG2 GG2 GG2 GG2 GG2 GG2 G GE0 GE0 GE0 GE0 GE0 GE0 GE0 GE0 GE0 GE0 GE0 GE0 GE0 GE0 GE0 GE0 GE0 GE0 GE0 GE0 GE0 GE0 GE0 G GC2 GC2 GC2 GC2 GC2 GC2 GC2 GC2 GC2 GC2 GC2 GC2 GC2 GC2 GC2 GC2 GC2 GC2 GC2 GC2 GC2 GC2 GC2 G GB/ GB/ GB/ GB/ GB/ GB/ GB/ GB/ GB/ GB/ GB/ GB/ GB/ GB/ GB/ GB/ GB/ GB/ GB/ GB/ GB/ GB/ GB/ G G@0 G@0 G@0 G@0 G@0 G@0 G@0 G@0 G@0 G@0 G@0 G@0 G@0 G@0 G@0 G@0 G@0 G@0 G@0 G@0 G@0 G@0 G@0 G@ G@2 G@2 G@2 G@2 G@2 G@2 G@2 G@2 G@2 G@2 G@2 G@2 G@2 G@2 G@2 G@2 G@2 G@2 G@2 G@2 G@2 2 2  EE0 EE0 EE0 EE0 EE0 EE0 EE0 EE0 EE0 EE0 EE0 EE0 EE0 EE0 EE0 EE0 EE0 EE0 EE0 EE0 EE0 EE0 EE0 E CE/ CE/ CE/ CE/ CE/ CE/ CE/ CE/ CE/ CE/ CE/ CE/ CE/ CE/ CE/ CE/ CE/ CE/ CE/ CE/ CE/ CE/ CE/ E BE0 BE0 BE0 BE0 BE0 BE0 BE0 BE0 BE0 BE0 BE0 BE0 BE0 BE0 BE0 BE0 BE0 BE0 BE0 BE0 BE0 BE0 BE0 E @E- @E- @E- @E- @E- @E- @E- @E- @E- @E- @E- @E- @E- @E- @E- @E- @E- @E- @E- @E- @E- @E- @E- E >E/ >E/ >E/ >E/ >E/ >E/ >E/ >E/ >E/ >E/ >E/ >E/ >E/ >E/ >E/ >E/ >E/ >E/ >E/ >E/ >E/ >E/ >E/ >E >E0 >E0 >E0 >E0 >E0 >E0 >E0 >E0 >E0 >E0 >E0 >E0 >E0 >E0 >E0 >E0 >E0 >E0 >E0 >E0 >E0 0 0  CC/ CC/ CC/ CC/ CC/ CC/ CC/ CC/ CC/ CC/ CC/ CC/ CC/ CC/ CC/ CC/ CC/ CC/ CC/ CC/ CC/ CC/ CC/ C CB- CB- CB- CB- CB- CB- CB- CB- CB- CB- CB- CB- CB- CB- CB- CB- CB- CB- CB- CB- CB- CB- CB- C C@/ C@/ C@/ C@/ C@/ C@/ C@/ C@/ C@/ C@/ C@/ C@/ C@/ C@/ C@/ C@/ C@/ C@/ C@/ C@/ C@/ C@/ C@/ C C>+ C>+ C>+ C>+ C>+ C>+ C>+ C>+ C>+ C>+ C>+ C>+ C>+ C>+ C>+ C>+ C>+ C>+ C>+ C>+ C>+ C>+ C>+ C C=- C=- C=- C=- C=- C=- C=- C=- C=- C=- C=- C=- C=- C=- C=- C=- C=- C=- C=- C=- C=- C=- C=- =- E=- E=- E=- E=- E=- E=- E=- E=- E=- E=- E=- E=- E=- E=- E=- E=- E=- E=- E=- E=- E=- E E  CI9 CI9 CI9 CI9 CI9 CI9 CI9 CI9 CI9 CI9 CI9 CI9 CI9 CI9 CI9 CI9 CI9 CI9 CI9 CI9 CI9 CI9 CI9  BJ; BJ; BJ; BJ; BJ; BJ; BJ; BJ; BJ; BJ; BJ; BJ; BJ; BJ; BJ; BJ; BJ; BJ; BJ; BJ; BJ; BJ; BJ;  CL9 CL9 CL9 CL9 CL9 CL9 CL9 CL9 CL9 CL9 CL9 CL9 CL9 CL9 CL9 CL9 CL9 CL9 CL9 CL9 CL9 CL9 CL9 L9 @L9 @L9 @L9 @L9 @L9 @L9 @L9 @L9 @L9 @L9 @L9 @L9 @L9 @L9 @L9 @L9 @L9 @L9 @L9 @L9 @L9 @L @L L 9L1 9L1 9L1 9L1 9L1 9L1 9L1 9L1 9L1 9L1 9L1 9L1 9L1 9L1 9L1 9L1 9L1 9L1 9L1 9L1 9L1 9L1 9L1 1 EN1 EN1 EN1 EN1 EN1 EN1 EN1 EN1 EN1 EN1 EN1 EN1 EN1 EN1 EN1 EN1 EN1 EN1 EN1 EN1 EN1 EN EN  CL9 CL9 CL9 CL9 CL9 CL9 CL9 CL9 CL9 CL9 CL9 CL9 CL9 CL9 CL9 CL9 CL9 CL9 CL9 CL9 CL9 CL9 CL9 9 BJ9 BJ9 BJ9 BJ9 BJ9 BJ9 BJ9 BJ9 BJ9 BJ9 BJ9 BJ9 BJ9 BJ9 BJ9 BJ9 BJ9 BJ9 BJ9 BJ9 BJ9 BJ BJ  CL9 CL9 CL9 CL9 CL9 CL9 CL9 CL9 CL9 CL9 CL9 CL9 CL9 CL9 CL9 CL9 CL9 CL9 CL9 CL9 CL9 CL9 CL9 9 @I9 @I9 @I9 @I9 @I9 @I9 @I9 @I9 @I9 @I9 @I9 @I9 @I9 @I9 @I9 @I9 @I9 @I9 @I9 @I9 @I9 @I @I  BJ2 BJ2 BJ2 BJ2 BJ2 BJ2 BJ2 BJ2 BJ2 BJ2 BJ2 BJ2 BJ2 BJ2 BJ2 BJ2 BJ2 BJ2 BJ2 BJ2 BJ2 BJ2 BJ2 B2 BQ2 BQ2 BQ2 BQ2 BQ2 BQ2 BQ2 BQ2 BQ2 BQ2 BQ2 BQ2 BQ2 BQ2 BQ2 BQ2 BQ2 BQ2 BQ2 BQ2 BQ2 Q Q  NH> NH> NH> NH> NH> NH> NH> NH> NH> NH> NH> NH> NH> NH> NH> NH> NH> NH> NH> NH> NH> NH> NH>  OG@ OG@ OG@ OG@ OG@ OG@ OG@ OG@ OG@ OG@ OG@ OG@ OG@ OG@ OG@ OG@ OG@ OG@ OG@ OG@ OG@ OG@ OG@  QH> QH> QH> QH> QH> QH> QH> QH> QH> QH> QH> QH> QH> QH> QH> QH> QH> QH> QH> QH> QH> QH> QH> Q> QE> QE> QE> QE> QE> QE> QE> QE> QE> QE> QE> QE> QE> QE> QE> QE> QE> QE> QE> QE> QE> QE QE Q Q>6 Q>6 Q>6 Q>6 Q>6 Q>6 Q>6 Q>6 Q>6 Q>6 Q>6 Q>6 Q>6 Q>6 Q>6 Q>6 Q>6 Q>6 Q>6 Q>6 Q>6 Q>6 Q>6 6 SJ6 SJ6 SJ6 SJ6 SJ6 SJ6 SJ6 SJ6 SJ6 SJ6 SJ6 SJ6 SJ6 SJ6 SJ6 SJ6 SJ6 SJ6 SJ6 SJ6 SJ6 SJ SJ  QH> QH> QH> QH> QH> QH> QH> QH> QH> QH> QH> QH> QH> QH> QH> QH> QH> QH> QH> QH> QH> QH> QH> > OG> OG> OG> OG> OG> OG> OG> OG> OG> OG> OG> OG> OG> OG> OG> OG> OG> OG> OG> OG> OG> OG OG  QH> QH> QH> QH> QH> QH> QH> QH> QH> QH> QH> QH> QH> QH> QH> QH> QH> QH> QH> QH> QH> QH> QH> > NE> NE> NE> NE> NE> NE> NE> NE> NE> NE> NE> NE> NE> NE> NE> NE> NE> NE> NE> NE> NE> NE NE  OG7 OG7 OG7 OG7 OG7 OG7 OG7 OG7 OG7 OG7 OG7 OG7 OG7 OG7 OG7 OG7 OG7 OG7 OG7 OG7 OG7 OG7 OG7 OG OG9 OG9 OG9 OG9 OG9 OG9 OG9 OG9 OG9 OG9 OG9 OG9 OG9 OG9 OG9 OG9 OG9 OG9 OG9 OG9 OG9 9 9  CC; CC; CC; CC; CC; CC; CC; CC; CC; CC; CC; CC; CC; CC; CC; CC; CC; CC; CC; CC; CC; CC; CC;  BE< BE< BE< BE< BE< BE< BE< BE< BE< BE< BE< BE< BE< BE< BE< BE< BE< BE< BE< BE< BE< BE< BE<  CG; CG; CG; CG; CG; CG; CG; CG; CG; CG; CG; CG; CG; CG; CG; CG; CG; CG; CG; CG; CG; CG; CG; C CH9 CH9 CH9 CH9 CH9 CH9 CH9 CH9 CH9 CH9 CH9 CH9 CH9 CH9 CH9 CH9 CH9 CH9 CH9 CH9 CH9 H9 H9  CJ; CJ; CJ; CJ; CJ; CJ; CJ; CJ; CJ; CJ; CJ; CJ; CJ; CJ; CJ; CJ; CJ; CJ; CJ; CJ; CJ; CJ; CJ; CJ CJ7 CJ7 CJ7 CJ7 CJ7 CJ7 CJ7 CJ7 CJ7 CJ7 CJ7 CJ7 CJ7 CJ7 CJ7 CJ7 CJ7 CJ7 CJ7 CJ7 CJ7 7 7  MH9 MH9 MH9 MH9 MH9 MH9 MH9 MH9 MH9 MH9 MH9 MH9 MH9 MH9 MH9 MH9 MH9 MH9 MH9 MH9 MH9 MH9 MH9 M MG; MG; MG; MG; MG; MG; MG; MG; MG; MG; MG; MG; MG; MG; MG; MG; MG; MG; MG; MG; MG; G; G;  GE< GE< GE< GE< GE< GE< GE< GE< GE< GE< GE< GE< GE< GE< GE< GE< GE< GE< GE< GE< GE< GE< GE< G GC> GC> GC> GC> GC> GC> GC> GC> GC> GC> GC> GC> GC> GC> GC> GC> GC> GC> GC> GC> GC> C> C>  HO@ HO@ HO@ HO@ HO@ HO@ HO@ HO@ HO@ HO@ HO@ HO@ HO@ HO@ HO@ HO@ HO@ HO@ HO@ HO@ HO@ HO@ HO@ O@ GO@ GO@ GO@ GO@ GO@ GO@ GO@ GO@ GO@ GO@ GO@ GO@ GO@ GO@ GO@ GO@ GO@ GO@ GO@ GO@ GO@ GO GO O HO> HO> HO> HO> HO> HO> HO> HO> HO> HO> HO> HO> HO> HO> HO> HO> HO> HO> HO> HO> HO> HO> HO> O> JO> JO> JO> JO> JO> JO> JO> JO> JO> JO> JO> JO> JO> JO> JO> JO> JO> JO> JO> JO> JO> JO JO O LO< LO< LO< LO< LO< LO< LO< LO< LO< LO< LO< LO< LO< LO< LO< LO< LO< LO< LO< LO< LO< LO< LO< O< EO< EO< EO< EO< EO< EO< EO< EO< EO< EO< EO< EO< EO< EO< EO< EO< EO< EO< EO< EO< EO< EO EO O GO> GO> GO> GO> GO> GO> GO> GO> GO> GO> GO> GO> GO> GO> GO> GO> GO> GO> GO> GO> GO> GO> GO> GO> GO> GO> GO> GO> GO> GO> GO> GO> GO> GO> GO> GO> GO> GO> GO> GO> GO> GO> GO> GO> GO> > > > HS> HS> HS> HS> HS> HS> HS> HS> HS> HS> HS> HS> HS> HS> HS> HS> HS> HS> HS> HS> HS> HS> HS> H> HQ> HQ> HQ> HQ> HQ> HQ> HQ> HQ> HQ> HQ> HQ> HQ> HQ> HQ> HQ> HQ> HQ> HQ HQ HQ HQ Q Q  EO2 EO2 EO2 EO2 EO2 EO2 EO2 EO2 EO2 EO2 EO2 EO2 EO2 EO2 EO2 EO2 EO2 EO2 EO2 EO2 EO2 EO2 EO2 E2 EN2 EN2 EN2 EN2 EN2 EN2 EN2 EN2 EN2 EN2 EN2 EN2 EN2 EN2 EN2 EN2 EN2 EN2 EN2 EN2 EN2 N N  CO+ CO+ CO+ CO+ CO+ CO+ CO+ CO+ CO+ CO+ CO+ CO+ CO+ CO+ CO+ CO+ CO+ CO+ CO+ CO+ CO+ CO+ CO+ CO+ CO+ CO+ CO+ CO+ CO+ CO+ CO+ CO+ CO+ CO+ CO+ CO+ CO+ CO+ CO+ CO+ CO+ CO+ CO+ CO+ CO+ CO+ CO+ CO+ CO+ CO+ CO+ CO+ CO+ CO+ CO+ CO+ CO+ CO+ CO+ CO+ CO+ CO+ CO+ CO+ CO+ CO+ CO+ CO+ CO+ CO+ CO+ CO+ CO+ CO+ CO+ CO+ CO+ CO+ CO+ CO+ CO+ CO+ CO+ CO+ CO+ CO+ CO+ CO+ CO+  