0, 0, Header, 1, 3, 240
1, 0, Start_track
1, 0, Time_signature, 4, 2, 24, 8
1, 0, Key_signature, 7, "major"
1, 0, Tempo, 697674
1, 0, Marker_t, "(c) Yo Tomita, 1997"
1, 2740, Tempo, 689655
1, 2760, Tempo, 697674
1, 2780, Tempo, 705882
1, 2800, Tempo, 714286
1, 2820, Tempo, 722892
1, 2840, Tempo, 731707
1, 2860, Tempo, 740741
1, 2880, Tempo, 750000
1, 2910, Tempo, 689655
1, 5642, Tempo, 697674
1, 5660, Tempo, 705882
1, 5677, Tempo, 714286
1, 5692, Tempo, 722892
1, 5710, Tempo, 731707
1, 5725, Tempo, 740741
1, 5742, Tempo, 750000
1, 5757, Tempo, 759494
1, 5775, Tempo, 769231
1, 5790, Tempo, 779221
1, 5797, Tempo, 689655
1, 7572, Tempo, 681818
1, 7587, Tempo, 689655
1, 7600, Tempo, 697674
1, 7612, Tempo, 705882
1, 7625, Tempo, 714286
1, 7637, Tempo, 722892
1, 7652, Tempo, 731707
1, 7665, Tempo, 740741
1, 7677, Tempo, 750000
1, 7690, Tempo, 759494
1, 7702, Tempo, 769231
1, 7727, Tempo, 689655
1, 12302, Tempo, 689655
1, 12322, Tempo, 697674
1, 12342, Tempo, 705882
1, 12360, Tempo, 714286
1, 12380, Tempo, 722892
1, 12400, Tempo, 731707
1, 12417, Tempo, 740741
1, 12437, Tempo, 750000
1, 12457, Tempo, 759494
1, 12475, Tempo, 769231
1, 12495, Tempo, 779221
1, 12512, Tempo, 789474
1, 12517, Tempo, 689655
1, 14252, Tempo, 697674
1, 14277, Tempo, 705882
1, 14300, Tempo, 714286
1, 14322, Tempo, 722892
1, 14345, Tempo, 731707
1, 14367, Tempo, 740741
1, 14390, Tempo, 750000
1, 14412, Tempo, 759494
1, 14435, Tempo, 769231
1, 14437, Tempo, 689655
1, 16152, Tempo, 697674
1, 16175, Tempo, 705882
1, 16195, Tempo, 714286
1, 16215, Tempo, 722892
1, 16237, Tempo, 731707
1, 16257, Tempo, 740741
1, 16277, Tempo, 750000
1, 16300, Tempo, 759494
1, 16320, Tempo, 769231
1, 16340, Tempo, 779221
1, 16360, Tempo, 789474
1, 16375, Tempo, 689655
1, 19017, Tempo, 689655
1, 19032, Tempo, 697674
1, 19047, Tempo, 705882
1, 19062, Tempo, 714286
1, 19077, Tempo, 722892
1, 19092, Tempo, 731707
1, 19107, Tempo, 740741
1, 19122, Tempo, 750000
1, 19137, Tempo, 759494
1, 19152, Tempo, 769231
1, 19167, Tempo, 779221
1, 19182, Tempo, 789474
1, 19195, Tempo, 800000
1, 19245, Tempo, 689655
1, 20022, Tempo, 689655
1, 20040, Tempo, 697674
1, 20057, Tempo, 705882
1, 20072, Tempo, 714286
1, 20090, Tempo, 722892
1, 20107, Tempo, 731707
1, 20122, Tempo, 740741
1, 20140, Tempo, 750000
1, 20155, Tempo, 759494
1, 20185, Tempo, 681818
1, 20947, Tempo, 697674
1, 20967, Tempo, 705882
1, 20987, Tempo, 714286
1, 21005, Tempo, 722892
1, 21025, Tempo, 731707
1, 21045, Tempo, 740741
1, 21062, Tempo, 750000
1, 21082, Tempo, 759494
1, 21102, Tempo, 769231
1, 21120, Tempo, 779221
1, 21147, Tempo, 689655
1, 21927, Tempo, 689655
1, 21945, Tempo, 697674
1, 21962, Tempo, 705882
1, 21977, Tempo, 714286
1, 21995, Tempo, 722892
1, 22012, Tempo, 731707
1, 22027, Tempo, 740741
1, 22045, Tempo, 750000
1, 22062, Tempo, 759494
1, 22077, Tempo, 769231
1, 22100, Tempo, 681818
1, 22660, Tempo, 697674
1, 22740, Tempo, 701754
1, 22780, Tempo, 705882
1, 22810, Tempo, 710059
1, 22820, Tempo, 714286
1, 22840, Tempo, 718563
1, 22860, Tempo, 722892
1, 22880, Tempo, 740741
1, 22890, Tempo, 745342
1, 22900, Tempo, 750000
1, 22910, Tempo, 759494
1, 22920, Tempo, 764331
1, 22930, Tempo, 769231
1, 22940, Tempo, 779221
1, 22950, Tempo, 784314
1, 22960, Tempo, 794702
1, 22970, Tempo, 800000
1, 22980, Tempo, 810811
1, 22990, Tempo, 816327
1, 23000, Tempo, 848057
1, 23010, Tempo, 885609
1, 23020, Tempo, 941176
1, 23030, Tempo, 1004184
1, 23035, Tempo, 2891566
1, 23040, Time_signature, 3, 3, 12, 8
1, 23040, Key_signature, 0, "major"
1, 23075, Tempo, 912548
1, 23080, Tempo, 885609
1, 23085, Tempo, 860215
1, 23100, Tempo, 848057
1, 23105, Tempo, 836237
1, 23115, Tempo, 824742
1, 23120, Tempo, 813559
1, 23130, Tempo, 802676
1, 23140, Tempo, 792079
1, 23200, Tempo, 781759
1, 23215, Tempo, 771704
1, 23225, Tempo, 761905
1, 23240, Tempo, 752351
1, 23275, Tempo, 743034
1, 23320, Tempo, 733945
1, 23340, Tempo, 725076
1, 23345, Tempo, 716418
1, 23360, Tempo, 683761
1, 31540, Tempo, 659341
1, 31570, Tempo, 662983
1, 31590, Tempo, 666667
1, 31600, Tempo, 670391
1, 31610, Tempo, 674157
1, 31620, Tempo, 677966
1, 31630, Tempo, 681818
1, 31640, Tempo, 685714
1, 31650, Tempo, 689655
1, 31670, Tempo, 697674
1, 31690, Tempo, 705882
1, 31700, Tempo, 710059
1, 31710, Tempo, 714286
1, 31720, Tempo, 718563
1, 31730, Tempo, 727273
1, 31750, Tempo, 731707
1, 31760, Tempo, 736196
1, 31770, Tempo, 745342
1, 31780, Tempo, 750000
1, 31800, Tempo, 759494
1, 31820, Tempo, 774194
1, 31830, Tempo, 779221
1, 31850, Tempo, 794702
1, 31860, Tempo, 800000
1, 31870, Tempo, 810811
1, 31880, Tempo, 821918
1, 31890, Tempo, 845070
1, 31900, Tempo, 857143
1, 31910, Tempo, 863309
1, 31920, Tempo, 888889
1, 31930, Tempo, 902256
1, 31940, Tempo, 923077
1, 31950, Tempo, 937500
1, 31960, Tempo, 960000
1, 31970, Tempo, 975610
1, 31980, Tempo, 991736
1, 31990, Tempo, 1008403
1, 32000, Tempo, 1518987
1, 32000, End_track
2, 0, Start_track
2, 0, MIDI_port, 0
2, 0, Title_t, "BWV 872/1"
2, 0, Program_c, 0, 6
2, 0, Note_on_c, 0, 56, 120
2, 0, Note_on_c, 0, 49, 120
2, 60, Note_on_c, 0, 65, 120
2, 87, Note_on_c, 0, 56, 0
2, 120, Note_on_c, 0, 65, 0
2, 120, Note_on_c, 0, 68, 120
2, 120, Note_on_c, 0, 56, 120
2, 180, Note_on_c, 0, 68, 0
2, 180, Note_on_c, 0, 73, 120
2, 211, Note_on_c, 0, 56, 0
2, 240, Note_on_c, 0, 49, 0
2, 240, Note_on_c, 0, 68, 120
2, 240, Note_on_c, 0, 61, 120
2, 300, Note_on_c, 0, 68, 0
2, 300, Note_on_c, 0, 66, 120
2, 335, Note_on_c, 0, 61, 0
2, 360, Note_on_c, 0, 66, 0
2, 360, Note_on_c, 0, 68, 120
2, 360, Note_on_c, 0, 61, 120
2, 420, Note_on_c, 0, 68, 0
2, 420, Note_on_c, 0, 65, 120
2, 451, Note_on_c, 0, 61, 0
2, 480, Note_on_c, 0, 65, 0
2, 480, Note_on_c, 0, 73, 0
2, 480, Note_on_c, 0, 59, 120
2, 480, Note_on_c, 0, 49, 120
2, 540, Note_on_c, 0, 65, 120
2, 579, Note_on_c, 0, 59, 0
2, 600, Note_on_c, 0, 65, 0
2, 600, Note_on_c, 0, 68, 120
2, 600, Note_on_c, 0, 59, 120
2, 660, Note_on_c, 0, 68, 0
2, 660, Note_on_c, 0, 73, 120
2, 695, Note_on_c, 0, 59, 0
2, 720, Note_on_c, 0, 49, 0
2, 720, Note_on_c, 0, 68, 120
2, 720, Note_on_c, 0, 59, 120
2, 780, Note_on_c, 0, 68, 0
2, 780, Note_on_c, 0, 66, 120
2, 819, Note_on_c, 0, 59, 0
2, 840, Note_on_c, 0, 66, 0
2, 840, Note_on_c, 0, 59, 120
2, 840, Note_on_c, 0, 68, 120
2, 900, Note_on_c, 0, 68, 0
2, 900, Note_on_c, 0, 65, 120
2, 943, Note_on_c, 0, 59, 0
2, 960, Note_on_c, 0, 65, 0
2, 960, Note_on_c, 0, 73, 0
2, 960, Note_on_c, 0, 58, 120
2, 960, Note_on_c, 0, 49, 120
2, 1020, Note_on_c, 0, 66, 120
2, 1080, Note_on_c, 0, 66, 0
2, 1080, Note_on_c, 0, 58, 0
2, 1080, Note_on_c, 0, 70, 120
2, 1080, Note_on_c, 0, 58, 120
2, 1140, Note_on_c, 0, 70, 0
2, 1140, Note_on_c, 0, 73, 120
2, 1200, Note_on_c, 0, 58, 0
2, 1200, Note_on_c, 0, 49, 0
2, 1200, Note_on_c, 0, 70, 120
2, 1200, Note_on_c, 0, 54, 120
2, 1260, Note_on_c, 0, 70, 0
2, 1260, Note_on_c, 0, 68, 120
2, 1320, Note_on_c, 0, 68, 0
2, 1320, Note_on_c, 0, 54, 0
2, 1320, Note_on_c, 0, 70, 120
2, 1320, Note_on_c, 0, 54, 120
2, 1380, Note_on_c, 0, 70, 0
2, 1380, Note_on_c, 0, 66, 120
2, 1440, Note_on_c, 0, 66, 0
2, 1440, Note_on_c, 0, 54, 0
2, 1440, Note_on_c, 0, 73, 0
2, 1440, Note_on_c, 0, 60, 120
2, 1440, Note_on_c, 0, 49, 120
2, 1500, Note_on_c, 0, 66, 120
2, 1560, Note_on_c, 0, 66, 0
2, 1560, Note_on_c, 0, 60, 0
2, 1560, Note_on_c, 0, 68, 120
2, 1560, Note_on_c, 0, 60, 120
2, 1620, Note_on_c, 0, 68, 0
2, 1620, Note_on_c, 0, 75, 120
2, 1680, Note_on_c, 0, 60, 0
2, 1680, Note_on_c, 0, 49, 0
2, 1680, Note_on_c, 0, 68, 120
2, 1680, Note_on_c, 0, 60, 120
2, 1740, Note_on_c, 0, 68, 0
2, 1740, Note_on_c, 0, 66, 120
2, 1800, Note_on_c, 0, 66, 0
2, 1800, Note_on_c, 0, 60, 0
2, 1800, Note_on_c, 0, 60, 120
2, 1800, Note_on_c, 0, 68, 120
2, 1860, Note_on_c, 0, 68, 0
2, 1860, Note_on_c, 0, 66, 120
2, 1920, Note_on_c, 0, 66, 0
2, 1920, Note_on_c, 0, 60, 0
2, 1920, Note_on_c, 0, 75, 0
2, 1920, Note_on_c, 0, 61, 120
2, 1920, Note_on_c, 0, 49, 120
2, 1980, Note_on_c, 0, 65, 120
2, 2040, Note_on_c, 0, 65, 0
2, 2040, Note_on_c, 0, 61, 0
2, 2040, Note_on_c, 0, 68, 120
2, 2040, Note_on_c, 0, 61, 120
2, 2100, Note_on_c, 0, 68, 0
2, 2100, Note_on_c, 0, 75, 120
2, 2160, Note_on_c, 0, 61, 0
2, 2160, Note_on_c, 0, 49, 0
2, 2160, Note_on_c, 0, 68, 120
2, 2160, Note_on_c, 0, 61, 120
2, 2220, Note_on_c, 0, 68, 0
2, 2220, Note_on_c, 0, 66, 120
2, 2280, Note_on_c, 0, 66, 0
2, 2280, Note_on_c, 0, 61, 0
2, 2280, Note_on_c, 0, 68, 120
2, 2280, Note_on_c, 0, 61, 120
2, 2340, Note_on_c, 0, 68, 0
2, 2340, Note_on_c, 0, 66, 120
2, 2400, Note_on_c, 0, 66, 0
2, 2400, Note_on_c, 0, 61, 0
2, 2400, Note_on_c, 0, 75, 0
2, 2400, Note_on_c, 0, 56, 120
2, 2400, Note_on_c, 0, 49, 120
2, 2460, Note_on_c, 0, 65, 120
2, 2520, Note_on_c, 0, 65, 0
2, 2520, Note_on_c, 0, 56, 0
2, 2520, Note_on_c, 0, 68, 120
2, 2520, Note_on_c, 0, 56, 120
2, 2580, Note_on_c, 0, 68, 0
2, 2580, Note_on_c, 0, 73, 120
2, 2640, Note_on_c, 0, 56, 0
2, 2640, Note_on_c, 0, 49, 0
2, 2640, Note_on_c, 0, 68, 120
2, 2640, Note_on_c, 0, 53, 120
2, 2700, Note_on_c, 0, 68, 0
2, 2700, Note_on_c, 0, 66, 120
2, 2760, Note_on_c, 0, 66, 0
2, 2760, Note_on_c, 0, 53, 0
2, 2760, Note_on_c, 0, 53, 120
2, 2760, Note_on_c, 0, 68, 120
2, 2820, Note_on_c, 0, 68, 0
2, 2820, Note_on_c, 0, 65, 120
2, 2880, Note_on_c, 0, 65, 0
2, 2880, Note_on_c, 0, 53, 0
2, 2880, Note_on_c, 0, 73, 0
2, 2880, Note_on_c, 0, 58, 120
2, 2880, Note_on_c, 0, 49, 120
2, 2940, Note_on_c, 0, 63, 120
2, 3000, Note_on_c, 0, 63, 0
2, 3000, Note_on_c, 0, 58, 0
2, 3000, Note_on_c, 0, 67, 120
2, 3000, Note_on_c, 0, 58, 120
2, 3060, Note_on_c, 0, 67, 0
2, 3060, Note_on_c, 0, 70, 120
2, 3120, Note_on_c, 0, 58, 0
2, 3120, Note_on_c, 0, 49, 0
2, 3120, Note_on_c, 0, 67, 120
2, 3120, Note_on_c, 0, 58, 120
2, 3180, Note_on_c, 0, 67, 0
2, 3180, Note_on_c, 0, 65, 120
2, 3240, Note_on_c, 0, 65, 0
2, 3240, Note_on_c, 0, 58, 0
2, 3240, Note_on_c, 0, 67, 120
2, 3240, Note_on_c, 0, 58, 120
2, 3300, Note_on_c, 0, 67, 0
2, 3300, Note_on_c, 0, 63, 120
2, 3360, Note_on_c, 0, 63, 0
2, 3360, Note_on_c, 0, 58, 0
2, 3360, Note_on_c, 0, 70, 0
2, 3360, Note_on_c, 0, 56, 120
2, 3360, Note_on_c, 0, 48, 120
2, 3420, Note_on_c, 0, 63, 120
2, 3480, Note_on_c, 0, 63, 0
2, 3480, Note_on_c, 0, 56, 0
2, 3480, Note_on_c, 0, 68, 120
2, 3480, Note_on_c, 0, 56, 120
2, 3540, Note_on_c, 0, 68, 0
2, 3540, Note_on_c, 0, 72, 120
2, 3600, Note_on_c, 0, 56, 0
2, 3600, Note_on_c, 0, 48, 0
2, 3600, Note_on_c, 0, 68, 120
2, 3600, Note_on_c, 0, 51, 120
2, 3660, Note_on_c, 0, 68, 0
2, 3660, Note_on_c, 0, 67, 120
2, 3720, Note_on_c, 0, 67, 0
2, 3720, Note_on_c, 0, 51, 0
2, 3720, Note_on_c, 0, 56, 120
2, 3720, Note_on_c, 0, 68, 120
2, 3780, Note_on_c, 0, 68, 0
2, 3780, Note_on_c, 0, 63, 120
2, 3840, Note_on_c, 0, 63, 0
2, 3840, Note_on_c, 0, 56, 0
2, 3840, Note_on_c, 0, 72, 0
2, 3840, Note_on_c, 0, 56, 120
2, 3840, Note_on_c, 0, 46, 120
2, 3900, Note_on_c, 0, 65, 120
2, 3960, Note_on_c, 0, 65, 0
2, 3960, Note_on_c, 0, 56, 0
2, 3960, Note_on_c, 0, 70, 120
2, 3960, Note_on_c, 0, 56, 120
2, 4020, Note_on_c, 0, 70, 0
2, 4020, Note_on_c, 0, 73, 120
2, 4080, Note_on_c, 0, 56, 0
2, 4080, Note_on_c, 0, 46, 0
2, 4080, Note_on_c, 0, 70, 120
2, 4080, Note_on_c, 0, 56, 120
2, 4140, Note_on_c, 0, 70, 0
2, 4140, Note_on_c, 0, 68, 120
2, 4200, Note_on_c, 0, 68, 0
2, 4200, Note_on_c, 0, 56, 0
2, 4200, Note_on_c, 0, 70, 120
2, 4200, Note_on_c, 0, 56, 120
2, 4260, Note_on_c, 0, 70, 0
2, 4260, Note_on_c, 0, 65, 120
2, 4320, Note_on_c, 0, 65, 0
2, 4320, Note_on_c, 0, 56, 0
2, 4320, Note_on_c, 0, 73, 0
2, 4320, Note_on_c, 0, 55, 120
2, 4320, Note_on_c, 0, 51, 120
2, 4380, Note_on_c, 0, 63, 120
2, 4440, Note_on_c, 0, 63, 0
2, 4440, Note_on_c, 0, 55, 0
2, 4440, Note_on_c, 0, 70, 120
2, 4440, Note_on_c, 0, 55, 120
2, 4500, Note_on_c, 0, 70, 0
2, 4500, Note_on_c, 0, 73, 120
2, 4560, Note_on_c, 0, 55, 0
2, 4560, Note_on_c, 0, 51, 0
2, 4560, Note_on_c, 0, 70, 120
2, 4560, Note_on_c, 0, 55, 120
2, 4620, Note_on_c, 0, 70, 0
2, 4620, Note_on_c, 0, 68, 120
2, 4680, Note_on_c, 0, 68, 0
2, 4680, Note_on_c, 0, 55, 0
2, 4680, Note_on_c, 0, 55, 120
2, 4680, Note_on_c, 0, 70, 120
2, 4740, Note_on_c, 0, 70, 0
2, 4740, Note_on_c, 0, 63, 120
2, 4800, Note_on_c, 0, 63, 0
2, 4800, Note_on_c, 0, 55, 0
2, 4800, Note_on_c, 0, 73, 0
2, 4800, Note_on_c, 0, 56, 120
2, 4800, Note_on_c, 0, 44, 120
2, 4860, Note_on_c, 0, 63, 120
2, 4920, Note_on_c, 0, 63, 0
2, 4920, Note_on_c, 0, 56, 0
2, 4920, Note_on_c, 0, 70, 120
2, 4920, Note_on_c, 0, 55, 120
2, 4980, Note_on_c, 0, 70, 0
2, 4980, Note_on_c, 0, 73, 120
2, 5040, Note_on_c, 0, 55, 0
2, 5040, Note_on_c, 0, 44, 0
2, 5040, Note_on_c, 0, 70, 120
2, 5040, Note_on_c, 0, 53, 120
2, 5100, Note_on_c, 0, 70, 0
2, 5100, Note_on_c, 0, 68, 120
2, 5160, Note_on_c, 0, 68, 0
2, 5160, Note_on_c, 0, 53, 0
2, 5160, Note_on_c, 0, 70, 120
2, 5160, Note_on_c, 0, 55, 120
2, 5220, Note_on_c, 0, 70, 0
2, 5220, Note_on_c, 0, 63, 120
2, 5280, Note_on_c, 0, 63, 0
2, 5280, Note_on_c, 0, 55, 0
2, 5280, Note_on_c, 0, 73, 0
2, 5280, Note_on_c, 0, 56, 120
2, 5280, Note_on_c, 0, 44, 120
2, 5340, Note_on_c, 0, 63, 120
2, 5400, Note_on_c, 0, 63, 0
2, 5400, Note_on_c, 0, 56, 0
2, 5400, Note_on_c, 0, 68, 120
2, 5400, Note_on_c, 0, 56, 120
2, 5460, Note_on_c, 0, 68, 0
2, 5460, Note_on_c, 0, 72, 120
2, 5520, Note_on_c, 0, 56, 0
2, 5520, Note_on_c, 0, 44, 0
2, 5520, Note_on_c, 0, 68, 120
2, 5520, Note_on_c, 0, 60, 120
2, 5580, Note_on_c, 0, 68, 0
2, 5580, Note_on_c, 0, 67, 120
2, 5640, Note_on_c, 0, 67, 0
2, 5640, Note_on_c, 0, 60, 0
2, 5640, Note_on_c, 0, 60, 120
2, 5640, Note_on_c, 0, 68, 120
2, 5700, Note_on_c, 0, 68, 0
2, 5700, Note_on_c, 0, 63, 120
2, 5760, Note_on_c, 0, 63, 0
2, 5760, Note_on_c, 0, 60, 0
2, 5760, Note_on_c, 0, 72, 0
2, 5760, Note_on_c, 0, 58, 120
2, 5760, Note_on_c, 0, 44, 120
2, 5820, Note_on_c, 0, 65, 120
2, 5880, Note_on_c, 0, 65, 0
2, 5880, Note_on_c, 0, 58, 0
2, 5880, Note_on_c, 0, 70, 120
2, 5880, Note_on_c, 0, 53, 120
2, 5940, Note_on_c, 0, 70, 0
2, 5940, Note_on_c, 0, 74, 120
2, 6000, Note_on_c, 0, 53, 0
2, 6000, Note_on_c, 0, 44, 0
2, 6000, Note_on_c, 0, 70, 120
2, 6000, Note_on_c, 0, 50, 120
2, 6060, Note_on_c, 0, 70, 0
2, 6060, Note_on_c, 0, 68, 120
2, 6120, Note_on_c, 0, 68, 0
2, 6120, Note_on_c, 0, 50, 0
2, 6120, Note_on_c, 0, 70, 120
2, 6120, Note_on_c, 0, 46, 120
2, 6180, Note_on_c, 0, 70, 0
2, 6180, Note_on_c, 0, 65, 120
2, 6240, Note_on_c, 0, 65, 0
2, 6240, Note_on_c, 0, 46, 0
2, 6240, Note_on_c, 0, 74, 0
2, 6240, Note_on_c, 0, 51, 120
2, 6240, Note_on_c, 0, 42, 120
2, 6300, Note_on_c, 0, 63, 120
2, 6360, Note_on_c, 0, 63, 0
2, 6360, Note_on_c, 0, 51, 0
2, 6360, Note_on_c, 0, 70, 120
2, 6360, Note_on_c, 0, 51, 120
2, 6420, Note_on_c, 0, 70, 0
2, 6420, Note_on_c, 0, 75, 120
2, 6480, Note_on_c, 0, 51, 0
2, 6480, Note_on_c, 0, 42, 0
2, 6480, Note_on_c, 0, 70, 120
2, 6480, Note_on_c, 0, 54, 120
2, 6540, Note_on_c, 0, 70, 0
2, 6540, Note_on_c, 0, 68, 120
2, 6600, Note_on_c, 0, 68, 0
2, 6600, Note_on_c, 0, 54, 0
2, 6600, Note_on_c, 0, 54, 120
2, 6600, Note_on_c, 0, 70, 120
2, 6660, Note_on_c, 0, 70, 0
2, 6660, Note_on_c, 0, 63, 120
2, 6720, Note_on_c, 0, 54, 0
2, 6720, Note_on_c, 0, 75, 0
2, 6720, Note_on_c, 0, 41, 120
2, 6720, Note_on_c, 0, 48, 120
2, 6780, Note_on_c, 0, 65, 120
2, 6840, Note_on_c, 0, 65, 0
2, 6840, Note_on_c, 0, 48, 0
2, 6840, Note_on_c, 0, 69, 120
2, 6840, Note_on_c, 0, 48, 120
2, 6900, Note_on_c, 0, 69, 0
2, 6900, Note_on_c, 0, 75, 120
2, 6960, Note_on_c, 0, 63, 0
2, 6960, Note_on_c, 0, 48, 0
2, 6960, Note_on_c, 0, 41, 0
2, 6960, Note_on_c, 0, 69, 120
2, 6960, Note_on_c, 0, 53, 120
2, 7020, Note_on_c, 0, 69, 0
2, 7020, Note_on_c, 0, 67, 120
2, 7080, Note_on_c, 0, 67, 0
2, 7080, Note_on_c, 0, 53, 0
2, 7080, Note_on_c, 0, 69, 120
2, 7080, Note_on_c, 0, 53, 120
2, 7140, Note_on_c, 0, 69, 0
2, 7140, Note_on_c, 0, 65, 120
2, 7200, Note_on_c, 0, 65, 0
2, 7200, Note_on_c, 0, 53, 0
2, 7200, Note_on_c, 0, 75, 0
2, 7200, Note_on_c, 0, 53, 120
2, 7200, Note_on_c, 0, 46, 120
2, 7260, Note_on_c, 0, 65, 120
2, 7320, Note_on_c, 0, 65, 0
2, 7320, Note_on_c, 0, 53, 0
2, 7320, Note_on_c, 0, 70, 120
2, 7320, Note_on_c, 0, 53, 120
2, 7380, Note_on_c, 0, 70, 0
2, 7380, Note_on_c, 0, 73, 120
2, 7440, Note_on_c, 0, 53, 0
2, 7440, Note_on_c, 0, 46, 0
2, 7440, Note_on_c, 0, 70, 120
2, 7440, Note_on_c, 0, 61, 120
2, 7500, Note_on_c, 0, 70, 0
2, 7500, Note_on_c, 0, 69, 120
2, 7560, Note_on_c, 0, 69, 0
2, 7560, Note_on_c, 0, 61, 0
2, 7560, Note_on_c, 0, 61, 120
2, 7560, Note_on_c, 0, 70, 120
2, 7620, Note_on_c, 0, 70, 0
2, 7620, Note_on_c, 0, 65, 120
2, 7680, Note_on_c, 0, 65, 0
2, 7680, Note_on_c, 0, 61, 0
2, 7680, Note_on_c, 0, 73, 0
2, 7680, Note_on_c, 0, 60, 120
2, 7680, Note_on_c, 0, 58, 120
2, 7740, Note_on_c, 0, 66, 120
2, 7800, Note_on_c, 0, 66, 0
2, 7800, Note_on_c, 0, 60, 0
2, 7800, Note_on_c, 0, 66, 120
2, 7800, Note_on_c, 0, 72, 120
2, 7860, Note_on_c, 0, 72, 0
2, 7860, Note_on_c, 0, 75, 120
2, 7920, Note_on_c, 0, 66, 0
2, 7920, Note_on_c, 0, 58, 0
2, 7920, Note_on_c, 0, 72, 120
2, 7920, Note_on_c, 0, 63, 120
2, 7980, Note_on_c, 0, 72, 0
2, 7980, Note_on_c, 0, 70, 120
2, 8040, Note_on_c, 0, 70, 0
2, 8040, Note_on_c, 0, 63, 0
2, 8040, Note_on_c, 0, 72, 120
2, 8040, Note_on_c, 0, 60, 120
2, 8100, Note_on_c, 0, 72, 0
2, 8100, Note_on_c, 0, 66, 120
2, 8160, Note_on_c, 0, 66, 0
2, 8160, Note_on_c, 0, 60, 0
2, 8160, Note_on_c, 0, 75, 0
2, 8160, Note_on_c, 0, 65, 120
2, 8160, Note_on_c, 0, 56, 120
2, 8220, Note_on_c, 0, 68, 120
2, 8280, Note_on_c, 0, 68, 0
2, 8280, Note_on_c, 0, 65, 0
2, 8280, Note_on_c, 0, 72, 120
2, 8280, Note_on_c, 0, 65, 120
2, 8340, Note_on_c, 0, 72, 0
2, 8340, Note_on_c, 0, 77, 120
2, 8400, Note_on_c, 0, 65, 0
2, 8400, Note_on_c, 0, 56, 0
2, 8400, Note_on_c, 0, 72, 120
2, 8400, Note_on_c, 0, 65, 120
2, 8460, Note_on_c, 0, 72, 0
2, 8460, Note_on_c, 0, 70, 120
2, 8520, Note_on_c, 0, 70, 0
2, 8520, Note_on_c, 0, 65, 0
2, 8520, Note_on_c, 0, 65, 120
2, 8520, Note_on_c, 0, 72, 120
2, 8580, Note_on_c, 0, 72, 0
2, 8580, Note_on_c, 0, 68, 120
2, 8640, Note_on_c, 0, 68, 0
2, 8640, Note_on_c, 0, 65, 0
2, 8640, Note_on_c, 0, 77, 0
2, 8640, Note_on_c, 0, 58, 120
2, 8640, Note_on_c, 0, 61, 120
2, 8700, Note_on_c, 0, 66, 120
2, 8760, Note_on_c, 0, 66, 0
2, 8760, Note_on_c, 0, 61, 0
2, 8760, Note_on_c, 0, 73, 120
2, 8760, Note_on_c, 0, 61, 120
2, 8820, Note_on_c, 0, 73, 0
2, 8820, Note_on_c, 0, 77, 120
2, 8880, Note_on_c, 0, 61, 0
2, 8880, Note_on_c, 0, 58, 0
2, 8880, Note_on_c, 0, 58, 120
2, 8880, Note_on_c, 0, 73, 120
2, 8940, Note_on_c, 0, 73, 0
2, 8940, Note_on_c, 0, 72, 120
2, 9000, Note_on_c, 0, 72, 0
2, 9000, Note_on_c, 0, 58, 0
2, 9000, Note_on_c, 0, 73, 120
2, 9000, Note_on_c, 0, 58, 120
2, 9060, Note_on_c, 0, 73, 0
2, 9060, Note_on_c, 0, 66, 120
2, 9120, Note_on_c, 0, 66, 0
2, 9120, Note_on_c, 0, 58, 0
2, 9120, Note_on_c, 0, 77, 0
2, 9120, Note_on_c, 0, 60, 120
2, 9120, Note_on_c, 0, 63, 120
2, 9180, Note_on_c, 0, 66, 120
2, 9240, Note_on_c, 0, 66, 0
2, 9240, Note_on_c, 0, 63, 0
2, 9240, Note_on_c, 0, 68, 120
2, 9240, Note_on_c, 0, 63, 120
2, 9300, Note_on_c, 0, 68, 0
2, 9300, Note_on_c, 0, 75, 120
2, 9360, Note_on_c, 0, 63, 0
2, 9360, Note_on_c, 0, 60, 0
2, 9360, Note_on_c, 0, 60, 120
2, 9360, Note_on_c, 0, 68, 120
2, 9420, Note_on_c, 0, 68, 0
2, 9420, Note_on_c, 0, 66, 120
2, 9480, Note_on_c, 0, 66, 0
2, 9480, Note_on_c, 0, 60, 0
2, 9480, Note_on_c, 0, 60, 120
2, 9480, Note_on_c, 0, 68, 120
2, 9540, Note_on_c, 0, 68, 0
2, 9540, Note_on_c, 0, 66, 120
2, 9600, Note_on_c, 0, 66, 0
2, 9600, Note_on_c, 0, 60, 0
2, 9600, Note_on_c, 0, 75, 0
2, 9600, Note_on_c, 0, 56, 120
2, 9600, Note_on_c, 0, 53, 120
2, 9660, Note_on_c, 0, 66, 120
2, 9720, Note_on_c, 0, 66, 0
2, 9720, Note_on_c, 0, 56, 0
2, 9720, Note_on_c, 0, 68, 120
2, 9720, Note_on_c, 0, 56, 120
2, 9780, Note_on_c, 0, 68, 0
2, 9780, Note_on_c, 0, 75, 120
2, 9840, Note_on_c, 0, 56, 0
2, 9840, Note_on_c, 0, 53, 0
2, 9840, Note_on_c, 0, 68, 120
2, 9840, Note_on_c, 0, 60, 120
2, 9900, Note_on_c, 0, 68, 0
2, 9900, Note_on_c, 0, 66, 120
2, 9960, Note_on_c, 0, 66, 0
2, 9960, Note_on_c, 0, 60, 0
2, 9960, Note_on_c, 0, 68, 120
2, 9960, Note_on_c, 0, 60, 120
2, 10020, Note_on_c, 0, 68, 0
2, 10020, Note_on_c, 0, 66, 120
2, 10080, Note_on_c, 0, 66, 0
2, 10080, Note_on_c, 0, 60, 0
2, 10080, Note_on_c, 0, 75, 0
2, 10080, Note_on_c, 0, 61, 120
2, 10080, Note_on_c, 0, 53, 120
2, 10140, Note_on_c, 0, 65, 120
2, 10200, Note_on_c, 0, 65, 0
2, 10200, Note_on_c, 0, 61, 0
2, 10200, Note_on_c, 0, 68, 120
2, 10200, Note_on_c, 0, 61, 120
2, 10260, Note_on_c, 0, 68, 0
2, 10260, Note_on_c, 0, 73, 120
2, 10320, Note_on_c, 0, 61, 0
2, 10320, Note_on_c, 0, 53, 0
2, 10320, Note_on_c, 0, 68, 120
2, 10320, Note_on_c, 0, 59, 120
2, 10380, Note_on_c, 0, 68, 0
2, 10380, Note_on_c, 0, 66, 120
2, 10440, Note_on_c, 0, 66, 0
2, 10440, Note_on_c, 0, 59, 0
2, 10440, Note_on_c, 0, 59, 120
2, 10440, Note_on_c, 0, 68, 120
2, 10500, Note_on_c, 0, 68, 0
2, 10500, Note_on_c, 0, 65, 120
2, 10560, Note_on_c, 0, 65, 0
2, 10560, Note_on_c, 0, 59, 0
2, 10560, Note_on_c, 0, 73, 0
2, 10560, Note_on_c, 0, 58, 120
2, 10560, Note_on_c, 0, 54, 120
2, 10620, Note_on_c, 0, 63, 120
2, 10680, Note_on_c, 0, 63, 0
2, 10680, Note_on_c, 0, 58, 0
2, 10680, Note_on_c, 0, 66, 120
2, 10680, Note_on_c, 0, 58, 120
2, 10740, Note_on_c, 0, 66, 0
2, 10740, Note_on_c, 0, 73, 120
2, 10800, Note_on_c, 0, 58, 0
2, 10800, Note_on_c, 0, 54, 0
2, 10800, Note_on_c, 0, 66, 120
2, 10800, Note_on_c, 0, 58, 120
2, 10860, Note_on_c, 0, 66, 0
2, 10860, Note_on_c, 0, 65, 120
2, 10920, Note_on_c, 0, 65, 0
2, 10920, Note_on_c, 0, 58, 0
2, 10920, Note_on_c, 0, 66, 120
2, 10920, Note_on_c, 0, 58, 120
2, 10980, Note_on_c, 0, 66, 0
2, 10980, Note_on_c, 0, 63, 120
2, 11040, Note_on_c, 0, 63, 0
2, 11040, Note_on_c, 0, 58, 0
2, 11040, Note_on_c, 0, 73, 0
2, 11040, Note_on_c, 0, 59, 120
2, 11040, Note_on_c, 0, 56, 120
2, 11100, Note_on_c, 0, 63, 120
2, 11160, Note_on_c, 0, 63, 0
2, 11160, Note_on_c, 0, 59, 0
2, 11160, Note_on_c, 0, 66, 120
2, 11160, Note_on_c, 0, 59, 120
2, 11220, Note_on_c, 0, 66, 0
2, 11220, Note_on_c, 0, 71, 120
2, 11280, Note_on_c, 0, 59, 0
2, 11280, Note_on_c, 0, 56, 0
2, 11280, Note_on_c, 0, 66, 120
2, 11280, Note_on_c, 0, 59, 120
2, 11340, Note_on_c, 0, 66, 0
2, 11340, Note_on_c, 0, 65, 120
2, 11400, Note_on_c, 0, 65, 0
2, 11400, Note_on_c, 0, 59, 0
2, 11400, Note_on_c, 0, 59, 120
2, 11400, Note_on_c, 0, 66, 120
2, 11460, Note_on_c, 0, 66, 0
2, 11460, Note_on_c, 0, 63, 120
2, 11520, Note_on_c, 0, 63, 0
2, 11520, Note_on_c, 0, 59, 0
2, 11520, Note_on_c, 0, 71, 0
2, 11520, Note_on_c, 0, 56, 120
2, 11520, Note_on_c, 0, 49, 120
2, 11580, Note_on_c, 0, 61, 120
2, 11640, Note_on_c, 0, 61, 0
2, 11640, Note_on_c, 0, 56, 0
2, 11640, Note_on_c, 0, 65, 120
2, 11640, Note_on_c, 0, 56, 120
2, 11700, Note_on_c, 0, 65, 0
2, 11700, Note_on_c, 0, 71, 120
2, 11760, Note_on_c, 0, 56, 0
2, 11760, Note_on_c, 0, 49, 0
2, 11760, Note_on_c, 0, 65, 120
2, 11760, Note_on_c, 0, 56, 120
2, 11820, Note_on_c, 0, 65, 0
2, 11820, Note_on_c, 0, 63, 120
2, 11880, Note_on_c, 0, 63, 0
2, 11880, Note_on_c, 0, 56, 0
2, 11880, Note_on_c, 0, 65, 120
2, 11880, Note_on_c, 0, 56, 120
2, 11940, Note_on_c, 0, 65, 0
2, 11940, Note_on_c, 0, 61, 120
2, 12000, Note_on_c, 0, 61, 0
2, 12000, Note_on_c, 0, 56, 0
2, 12000, Note_on_c, 0, 71, 0
2, 12000, Note_on_c, 0, 58, 120
2, 12000, Note_on_c, 0, 54, 120
2, 12060, Note_on_c, 0, 61, 120
2, 12120, Note_on_c, 0, 61, 0
2, 12120, Note_on_c, 0, 58, 0
2, 12120, Note_on_c, 0, 66, 120
2, 12120, Note_on_c, 0, 58, 120
2, 12180, Note_on_c, 0, 66, 0
2, 12180, Note_on_c, 0, 70, 120
2, 12240, Note_on_c, 0, 58, 0
2, 12240, Note_on_c, 0, 54, 0
2, 12240, Note_on_c, 0, 66, 120
2, 12240, Note_on_c, 0, 58, 120
2, 12300, Note_on_c, 0, 66, 0
2, 12300, Note_on_c, 0, 65, 120
2, 12360, Note_on_c, 0, 65, 0
2, 12360, Note_on_c, 0, 58, 0
2, 12360, Note_on_c, 0, 58, 120
2, 12360, Note_on_c, 0, 66, 120
2, 12420, Note_on_c, 0, 66, 0
2, 12420, Note_on_c, 0, 61, 120
2, 12480, Note_on_c, 0, 61, 0
2, 12480, Note_on_c, 0, 58, 0
2, 12480, Note_on_c, 0, 70, 0
2, 12480, Note_on_c, 0, 51, 120
2, 12480, Note_on_c, 0, 48, 120
2, 12540, Note_on_c, 0, 63, 120
2, 12600, Note_on_c, 0, 63, 0
2, 12600, Note_on_c, 0, 51, 0
2, 12600, Note_on_c, 0, 66, 120
2, 12600, Note_on_c, 0, 51, 120
2, 12660, Note_on_c, 0, 66, 0
2, 12660, Note_on_c, 0, 68, 120
2, 12720, Note_on_c, 0, 51, 0
2, 12720, Note_on_c, 0, 48, 0
2, 12720, Note_on_c, 0, 66, 120
2, 12720, Note_on_c, 0, 51, 120
2, 12780, Note_on_c, 0, 66, 0
2, 12780, Note_on_c, 0, 65, 120
2, 12840, Note_on_c, 0, 65, 0
2, 12840, Note_on_c, 0, 51, 0
2, 12840, Note_on_c, 0, 66, 120
2, 12840, Note_on_c, 0, 51, 120
2, 12900, Note_on_c, 0, 66, 0
2, 12900, Note_on_c, 0, 63, 120
2, 12960, Note_on_c, 0, 63, 0
2, 12960, Note_on_c, 0, 51, 0
2, 12960, Note_on_c, 0, 68, 0
2, 12960, Note_on_c, 0, 53, 120
2, 12960, Note_on_c, 0, 50, 120
2, 13020, Note_on_c, 0, 58, 120
2, 13080, Note_on_c, 0, 58, 0
2, 13080, Note_on_c, 0, 53, 0
2, 13080, Note_on_c, 0, 65, 120
2, 13080, Note_on_c, 0, 53, 120
2, 13140, Note_on_c, 0, 65, 0
2, 13140, Note_on_c, 0, 68, 120
2, 13200, Note_on_c, 0, 53, 0
2, 13200, Note_on_c, 0, 50, 0
2, 13200, Note_on_c, 0, 65, 120
2, 13200, Note_on_c, 0, 58, 120
2, 13260, Note_on_c, 0, 65, 0
2, 13260, Note_on_c, 0, 63, 120
2, 13320, Note_on_c, 0, 63, 0
2, 13320, Note_on_c, 0, 58, 0
2, 13320, Note_on_c, 0, 58, 120
2, 13320, Note_on_c, 0, 65, 120
2, 13380, Note_on_c, 0, 65, 0
2, 13380, Note_on_c, 0, 62, 120
2, 13440, Note_on_c, 0, 62, 0
2, 13440, Note_on_c, 0, 58, 0
2, 13440, Note_on_c, 0, 68, 0
2, 13440, Note_on_c, 0, 59, 120
2, 13440, Note_on_c, 0, 51, 120
2, 13500, Note_on_c, 0, 62, 120
2, 13560, Note_on_c, 0, 62, 0
2, 13560, Note_on_c, 0, 59, 0
2, 13560, Note_on_c, 0, 65, 120
2, 13560, Note_on_c, 0, 59, 120
2, 13620, Note_on_c, 0, 65, 0
2, 13620, Note_on_c, 0, 68, 120
2, 13680, Note_on_c, 0, 59, 0
2, 13680, Note_on_c, 0, 51, 0
2, 13680, Note_on_c, 0, 65, 120
2, 13680, Note_on_c, 0, 59, 120
2, 13740, Note_on_c, 0, 65, 0
2, 13740, Note_on_c, 0, 63, 120
2, 13800, Note_on_c, 0, 63, 0
2, 13800, Note_on_c, 0, 59, 0
2, 13800, Note_on_c, 0, 65, 120
2, 13800, Note_on_c, 0, 59, 120
2, 13860, Note_on_c, 0, 65, 0
2, 13860, Note_on_c, 0, 62, 120
2, 13920, Note_on_c, 0, 62, 0
2, 13920, Note_on_c, 0, 59, 0
2, 13920, Note_on_c, 0, 68, 0
2, 13920, Note_on_c, 0, 58, 120
2, 13920, Note_on_c, 0, 51, 120
2, 13980, Note_on_c, 0, 61, 120
2, 14040, Note_on_c, 0, 61, 0
2, 14040, Note_on_c, 0, 58, 0
2, 14040, Note_on_c, 0, 63, 120
2, 14040, Note_on_c, 0, 58, 120
2, 14100, Note_on_c, 0, 63, 0
2, 14100, Note_on_c, 0, 67, 120
2, 14160, Note_on_c, 0, 58, 0
2, 14160, Note_on_c, 0, 51, 0
2, 14160, Note_on_c, 0, 63, 120
2, 14160, Note_on_c, 0, 58, 120
2, 14220, Note_on_c, 0, 63, 0
2, 14220, Note_on_c, 0, 61, 120
2, 14280, Note_on_c, 0, 61, 0
2, 14280, Note_on_c, 0, 58, 0
2, 14280, Note_on_c, 0, 58, 120
2, 14280, Note_on_c, 0, 63, 120
2, 14340, Note_on_c, 0, 63, 0
2, 14340, Note_on_c, 0, 61, 120
2, 14400, Note_on_c, 0, 61, 0
2, 14400, Note_on_c, 0, 58, 0
2, 14400, Note_on_c, 0, 67, 0
2, 14400, Note_on_c, 0, 56, 120
2, 14400, Note_on_c, 0, 53, 120
2, 14460, Note_on_c, 0, 60, 120
2, 14520, Note_on_c, 0, 60, 0
2, 14520, Note_on_c, 0, 56, 0
2, 14520, Note_on_c, 0, 63, 120
2, 14520, Note_on_c, 0, 56, 120
2, 14580, Note_on_c, 0, 63, 0
2, 14580, Note_on_c, 0, 66, 120
2, 14640, Note_on_c, 0, 56, 0
2, 14640, Note_on_c, 0, 53, 0
2, 14640, Note_on_c, 0, 63, 120
2, 14640, Note_on_c, 0, 56, 120
2, 14700, Note_on_c, 0, 63, 0
2, 14700, Note_on_c, 0, 61, 120
2, 14760, Note_on_c, 0, 61, 0
2, 14760, Note_on_c, 0, 56, 0
2, 14760, Note_on_c, 0, 63, 120
2, 14760, Note_on_c, 0, 56, 120
2, 14820, Note_on_c, 0, 63, 0
2, 14820, Note_on_c, 0, 60, 120
2, 14880, Note_on_c, 0, 60, 0
2, 14880, Note_on_c, 0, 56, 0
2, 14880, Note_on_c, 0, 66, 0
2, 14880, Note_on_c, 0, 56, 120
2, 14880, Note_on_c, 0, 49, 120
2, 14940, Note_on_c, 0, 59, 120
2, 15000, Note_on_c, 0, 59, 0
2, 15000, Note_on_c, 0, 56, 0
2, 15000, Note_on_c, 0, 61, 120
2, 15000, Note_on_c, 0, 56, 120
2, 15060, Note_on_c, 0, 61, 0
2, 15060, Note_on_c, 0, 65, 120
2, 15120, Note_on_c, 0, 56, 0
2, 15120, Note_on_c, 0, 49, 0
2, 15120, Note_on_c, 0, 61, 120
2, 15120, Note_on_c, 0, 56, 120
2, 15180, Note_on_c, 0, 61, 0
2, 15180, Note_on_c, 0, 59, 120
2, 15240, Note_on_c, 0, 59, 0
2, 15240, Note_on_c, 0, 56, 0
2, 15240, Note_on_c, 0, 56, 120
2, 15240, Note_on_c, 0, 61, 120
2, 15300, Note_on_c, 0, 61, 0
2, 15300, Note_on_c, 0, 59, 120
2, 15360, Note_on_c, 0, 59, 0
2, 15360, Note_on_c, 0, 56, 0
2, 15360, Note_on_c, 0, 65, 0
2, 15360, Note_on_c, 0, 54, 120
2, 15360, Note_on_c, 0, 42, 120
2, 15420, Note_on_c, 0, 58, 120
2, 15480, Note_on_c, 0, 58, 0
2, 15480, Note_on_c, 0, 54, 0
2, 15480, Note_on_c, 0, 61, 120
2, 15480, Note_on_c, 0, 54, 120
2, 15540, Note_on_c, 0, 61, 0
2, 15540, Note_on_c, 0, 65, 120
2, 15600, Note_on_c, 0, 54, 0
2, 15600, Note_on_c, 0, 42, 0
2, 15600, Note_on_c, 0, 61, 120
2, 15600, Note_on_c, 0, 54, 120
2, 15660, Note_on_c, 0, 61, 0
2, 15660, Note_on_c, 0, 60, 120
2, 15720, Note_on_c, 0, 60, 0
2, 15720, Note_on_c, 0, 54, 0
2, 15720, Note_on_c, 0, 61, 120
2, 15720, Note_on_c, 0, 54, 120
2, 15780, Note_on_c, 0, 61, 0
2, 15780, Note_on_c, 0, 58, 120
2, 15840, Note_on_c, 0, 58, 0
2, 15840, Note_on_c, 0, 54, 0
2, 15840, Note_on_c, 0, 65, 0
2, 15840, Note_on_c, 0, 54, 120
2, 15840, Note_on_c, 0, 42, 120
2, 15900, Note_on_c, 0, 58, 120
2, 15960, Note_on_c, 0, 58, 0
2, 15960, Note_on_c, 0, 54, 0
2, 15960, Note_on_c, 0, 61, 120
2, 15960, Note_on_c, 0, 54, 120
2, 16020, Note_on_c, 0, 61, 0
2, 16020, Note_on_c, 0, 63, 120
2, 16080, Note_on_c, 0, 54, 0
2, 16080, Note_on_c, 0, 42, 0
2, 16080, Note_on_c, 0, 61, 120
2, 16080, Note_on_c, 0, 54, 120
2, 16140, Note_on_c, 0, 61, 0
2, 16140, Note_on_c, 0, 60, 120
2, 16200, Note_on_c, 0, 60, 0
2, 16200, Note_on_c, 0, 54, 0
2, 16200, Note_on_c, 0, 54, 120
2, 16200, Note_on_c, 0, 61, 120
2, 16260, Note_on_c, 0, 61, 0
2, 16260, Note_on_c, 0, 58, 120
2, 16320, Note_on_c, 0, 58, 0
2, 16320, Note_on_c, 0, 54, 0
2, 16320, Note_on_c, 0, 63, 0
2, 16320, Note_on_c, 0, 51, 120
2, 16320, Note_on_c, 0, 42, 120
2, 16380, Note_on_c, 0, 56, 120
2, 16440, Note_on_c, 0, 56, 0
2, 16440, Note_on_c, 0, 51, 0
2, 16440, Note_on_c, 0, 60, 120
2, 16440, Note_on_c, 0, 51, 120
2, 16500, Note_on_c, 0, 60, 0
2, 16500, Note_on_c, 0, 63, 120
2, 16560, Note_on_c, 0, 51, 0
2, 16560, Note_on_c, 0, 42, 0
2, 16560, Note_on_c, 0, 60, 120
2, 16560, Note_on_c, 0, 51, 120
2, 16620, Note_on_c, 0, 60, 0
2, 16620, Note_on_c, 0, 58, 120
2, 16680, Note_on_c, 0, 58, 0
2, 16680, Note_on_c, 0, 51, 0
2, 16680, Note_on_c, 0, 60, 120
2, 16680, Note_on_c, 0, 51, 120
2, 16740, Note_on_c, 0, 60, 0
2, 16740, Note_on_c, 0, 56, 120
2, 16800, Note_on_c, 0, 56, 0
2, 16800, Note_on_c, 0, 51, 0
2, 16800, Note_on_c, 0, 63, 0
2, 16800, Note_on_c, 0, 49, 120
2, 16800, Note_on_c, 0, 41, 120
2, 16860, Note_on_c, 0, 56, 120
2, 16920, Note_on_c, 0, 56, 0
2, 16920, Note_on_c, 0, 49, 0
2, 16920, Note_on_c, 0, 61, 120
2, 16920, Note_on_c, 0, 49, 120
2, 16980, Note_on_c, 0, 61, 0
2, 16980, Note_on_c, 0, 65, 120
2, 17040, Note_on_c, 0, 49, 0
2, 17040, Note_on_c, 0, 41, 0
2, 17040, Note_on_c, 0, 61, 120
2, 17040, Note_on_c, 0, 44, 120
2, 17100, Note_on_c, 0, 61, 0
2, 17100, Note_on_c, 0, 60, 120
2, 17160, Note_on_c, 0, 60, 0
2, 17160, Note_on_c, 0, 44, 0
2, 17160, Note_on_c, 0, 49, 120
2, 17160, Note_on_c, 0, 61, 120
2, 17220, Note_on_c, 0, 61, 0
2, 17220, Note_on_c, 0, 56, 120
2, 17280, Note_on_c, 0, 56, 0
2, 17280, Note_on_c, 0, 49, 0
2, 17280, Note_on_c, 0, 65, 0
2, 17280, Note_on_c, 0, 49, 120
2, 17280, Note_on_c, 0, 39, 120
2, 17340, Note_on_c, 0, 58, 120
2, 17400, Note_on_c, 0, 58, 0
2, 17400, Note_on_c, 0, 49, 0
2, 17400, Note_on_c, 0, 63, 120
2, 17400, Note_on_c, 0, 49, 120
2, 17460, Note_on_c, 0, 63, 0
2, 17460, Note_on_c, 0, 66, 120
2, 17520, Note_on_c, 0, 49, 0
2, 17520, Note_on_c, 0, 39, 0
2, 17520, Note_on_c, 0, 63, 120
2, 17520, Note_on_c, 0, 48, 120
2, 17580, Note_on_c, 0, 63, 0
2, 17580, Note_on_c, 0, 61, 120
2, 17640, Note_on_c, 0, 61, 0
2, 17640, Note_on_c, 0, 48, 0
2, 17640, Note_on_c, 0, 63, 120
2, 17640, Note_on_c, 0, 46, 120
2, 17700, Note_on_c, 0, 63, 0
2, 17700, Note_on_c, 0, 58, 120
2, 17760, Note_on_c, 0, 58, 0
2, 17760, Note_on_c, 0, 46, 0
2, 17760, Note_on_c, 0, 66, 0
2, 17760, Note_on_c, 0, 48, 120
2, 17760, Note_on_c, 0, 44, 120
2, 17820, Note_on_c, 0, 56, 120
2, 17880, Note_on_c, 0, 56, 0
2, 17880, Note_on_c, 0, 48, 0
2, 17880, Note_on_c, 0, 63, 120
2, 17880, Note_on_c, 0, 48, 120
2, 17940, Note_on_c, 0, 63, 0
2, 17940, Note_on_c, 0, 66, 120
2, 18000, Note_on_c, 0, 48, 0
2, 18000, Note_on_c, 0, 44, 0
2, 18000, Note_on_c, 0, 63, 120
2, 18000, Note_on_c, 0, 48, 120
2, 18060, Note_on_c, 0, 63, 0
2, 18060, Note_on_c, 0, 61, 120
2, 18120, Note_on_c, 0, 61, 0
2, 18120, Note_on_c, 0, 48, 0
2, 18120, Note_on_c, 0, 48, 120
2, 18120, Note_on_c, 0, 63, 120
2, 18180, Note_on_c, 0, 63, 0
2, 18180, Note_on_c, 0, 56, 120
2, 18240, Note_on_c, 0, 56, 0
2, 18240, Note_on_c, 0, 48, 0
2, 18240, Note_on_c, 0, 66, 0
2, 18240, Note_on_c, 0, 49, 120
2, 18240, Note_on_c, 0, 37, 120
2, 18300, Note_on_c, 0, 56, 120
2, 18360, Note_on_c, 0, 56, 0
2, 18360, Note_on_c, 0, 49, 0
2, 18360, Note_on_c, 0, 63, 120
2, 18360, Note_on_c, 0, 48, 120
2, 18420, Note_on_c, 0, 63, 0
2, 18420, Note_on_c, 0, 66, 120
2, 18480, Note_on_c, 0, 48, 0
2, 18480, Note_on_c, 0, 37, 0
2, 18480, Note_on_c, 0, 63, 120
2, 18480, Note_on_c, 0, 46, 120
2, 18540, Note_on_c, 0, 63, 0
2, 18540, Note_on_c, 0, 61, 120
2, 18600, Note_on_c, 0, 61, 0
2, 18600, Note_on_c, 0, 46, 0
2, 18600, Note_on_c, 0, 63, 120
2, 18600, Note_on_c, 0, 48, 120
2, 18660, Note_on_c, 0, 63, 0
2, 18660, Note_on_c, 0, 56, 120
2, 18720, Note_on_c, 0, 56, 0
2, 18720, Note_on_c, 0, 48, 0
2, 18720, Note_on_c, 0, 66, 0
2, 18720, Note_on_c, 0, 49, 120
2, 18720, Note_on_c, 0, 37, 120
2, 18780, Note_on_c, 0, 56, 120
2, 18840, Note_on_c, 0, 56, 0
2, 18840, Note_on_c, 0, 49, 0
2, 18840, Note_on_c, 0, 61, 120
2, 18840, Note_on_c, 0, 49, 120
2, 18900, Note_on_c, 0, 61, 0
2, 18900, Note_on_c, 0, 65, 120
2, 18960, Note_on_c, 0, 49, 0
2, 18960, Note_on_c, 0, 37, 0
2, 18960, Note_on_c, 0, 61, 120
2, 18960, Note_on_c, 0, 53, 120
2, 19020, Note_on_c, 0, 61, 0
2, 19020, Note_on_c, 0, 60, 120
2, 19080, Note_on_c, 0, 60, 0
2, 19080, Note_on_c, 0, 53, 0
2, 19080, Note_on_c, 0, 53, 120
2, 19080, Note_on_c, 0, 61, 120
2, 19140, Note_on_c, 0, 61, 0
2, 19140, Note_on_c, 0, 56, 120
2, 19200, Note_on_c, 0, 56, 0
2, 19200, Note_on_c, 0, 53, 0
2, 19200, Note_on_c, 0, 65, 0
2, 19200, Note_on_c, 0, 51, 120
2, 19200, Note_on_c, 0, 49, 120
2, 19260, Note_on_c, 0, 58, 120
2, 19320, Note_on_c, 0, 58, 0
2, 19320, Note_on_c, 0, 51, 0
2, 19320, Note_on_c, 0, 63, 120
2, 19320, Note_on_c, 0, 55, 120
2, 19380, Note_on_c, 0, 63, 0
2, 19380, Note_on_c, 0, 67, 120
2, 19440, Note_on_c, 0, 55, 0
2, 19440, Note_on_c, 0, 49, 0
2, 19440, Note_on_c, 0, 63, 120
2, 19440, Note_on_c, 0, 58, 120
2, 19500, Note_on_c, 0, 63, 0
2, 19500, Note_on_c, 0, 61, 120
2, 19560, Note_on_c, 0, 61, 0
2, 19560, Note_on_c, 0, 58, 0
2, 19560, Note_on_c, 0, 63, 120
2, 19560, Note_on_c, 0, 55, 120
2, 19620, Note_on_c, 0, 63, 0
2, 19620, Note_on_c, 0, 58, 120
2, 19680, Note_on_c, 0, 58, 0
2, 19680, Note_on_c, 0, 55, 0
2, 19680, Note_on_c, 0, 67, 0
2, 19680, Note_on_c, 0, 51, 120
2, 19680, Note_on_c, 0, 47, 120
2, 19740, Note_on_c, 0, 59, 120
2, 19800, Note_on_c, 0, 59, 0
2, 19800, Note_on_c, 0, 51, 0
2, 19800, Note_on_c, 0, 63, 120
2, 19800, Note_on_c, 0, 51, 120
2, 19860, Note_on_c, 0, 63, 0
2, 19860, Note_on_c, 0, 68, 120
2, 19920, Note_on_c, 0, 51, 0
2, 19920, Note_on_c, 0, 47, 0
2, 19920, Note_on_c, 0, 63, 120
2, 19920, Note_on_c, 0, 56, 120
2, 19980, Note_on_c, 0, 63, 0
2, 19980, Note_on_c, 0, 61, 120
2, 20040, Note_on_c, 0, 61, 0
2, 20040, Note_on_c, 0, 56, 0
2, 20040, Note_on_c, 0, 56, 120
2, 20040, Note_on_c, 0, 63, 120
2, 20100, Note_on_c, 0, 63, 0
2, 20100, Note_on_c, 0, 59, 120
2, 20160, Note_on_c, 0, 59, 0
2, 20160, Note_on_c, 0, 56, 0
2, 20160, Note_on_c, 0, 68, 0
2, 20160, Note_on_c, 0, 56, 120
2, 20160, Note_on_c, 0, 52, 120
2, 20220, Note_on_c, 0, 59, 120
2, 20280, Note_on_c, 0, 59, 0
2, 20280, Note_on_c, 0, 56, 0
2, 20280, Note_on_c, 0, 63, 120
2, 20280, Note_on_c, 0, 56, 120
2, 20340, Note_on_c, 0, 63, 0
2, 20340, Note_on_c, 0, 68, 120
2, 20400, Note_on_c, 0, 56, 0
2, 20400, Note_on_c, 0, 52, 0
2, 20400, Note_on_c, 0, 63, 120
2, 20400, Note_on_c, 0, 56, 120
2, 20460, Note_on_c, 0, 63, 0
2, 20460, Note_on_c, 0, 61, 120
2, 20520, Note_on_c, 0, 61, 0
2, 20520, Note_on_c, 0, 56, 0
2, 20520, Note_on_c, 0, 63, 120
2, 20520, Note_on_c, 0, 56, 120
2, 20580, Note_on_c, 0, 63, 0
2, 20580, Note_on_c, 0, 59, 120
2, 20640, Note_on_c, 0, 59, 0
2, 20640, Note_on_c, 0, 56, 0
2, 20640, Note_on_c, 0, 68, 0
2, 20640, Note_on_c, 0, 56, 120
2, 20640, Note_on_c, 0, 53, 120
2, 20700, Note_on_c, 0, 59, 120
2, 20760, Note_on_c, 0, 59, 0
2, 20760, Note_on_c, 0, 56, 0
2, 20760, Note_on_c, 0, 62, 120
2, 20760, Note_on_c, 0, 56, 120
2, 20820, Note_on_c, 0, 62, 0
2, 20820, Note_on_c, 0, 68, 120
2, 20880, Note_on_c, 0, 56, 0
2, 20880, Note_on_c, 0, 53, 0
2, 20880, Note_on_c, 0, 63, 120
2, 20880, Note_on_c, 0, 56, 120
2, 20940, Note_on_c, 0, 63, 0
2, 20940, Note_on_c, 0, 62, 120
2, 21000, Note_on_c, 0, 62, 0
2, 21000, Note_on_c, 0, 56, 0
2, 21000, Note_on_c, 0, 56, 120
2, 21000, Note_on_c, 0, 63, 120
2, 21060, Note_on_c, 0, 63, 0
2, 21060, Note_on_c, 0, 62, 120
2, 21120, Note_on_c, 0, 62, 0
2, 21120, Note_on_c, 0, 56, 0
2, 21120, Note_on_c, 0, 68, 0
2, 21120, Note_on_c, 0, 56, 120
2, 21120, Note_on_c, 0, 51, 120
2, 21180, Note_on_c, 0, 59, 120
2, 21240, Note_on_c, 0, 59, 0
2, 21240, Note_on_c, 0, 56, 0
2, 21240, Note_on_c, 0, 63, 120
2, 21240, Note_on_c, 0, 56, 120
2, 21300, Note_on_c, 0, 63, 0
2, 21300, Note_on_c, 0, 68, 120
2, 21360, Note_on_c, 0, 56, 0
2, 21360, Note_on_c, 0, 51, 0
2, 21360, Note_on_c, 0, 63, 120
2, 21360, Note_on_c, 0, 56, 120
2, 21420, Note_on_c, 0, 63, 0
2, 21420, Note_on_c, 0, 61, 120
2, 21480, Note_on_c, 0, 61, 0
2, 21480, Note_on_c, 0, 56, 0
2, 21480, Note_on_c, 0, 63, 120
2, 21480, Note_on_c, 0, 56, 120
2, 21540, Note_on_c, 0, 63, 0
2, 21540, Note_on_c, 0, 59, 120
2, 21590, Note_on_c, 0, 59, 0
2, 21600, Note_on_c, 0, 56, 0
2, 21600, Note_on_c, 0, 68, 0
2, 21600, Note_on_c, 0, 59, 120
2, 21600, Note_on_c, 0, 51, 120
2, 21660, Note_on_c, 0, 62, 120
2, 21720, Note_on_c, 0, 62, 0
2, 21720, Note_on_c, 0, 59, 0
2, 21720, Note_on_c, 0, 65, 120
2, 21720, Note_on_c, 0, 59, 120
2, 21780, Note_on_c, 0, 65, 0
2, 21780, Note_on_c, 0, 68, 120
2, 21840, Note_on_c, 0, 59, 0
2, 21840, Note_on_c, 0, 51, 0
2, 21840, Note_on_c, 0, 65, 120
2, 21840, Note_on_c, 0, 59, 120
2, 21900, Note_on_c, 0, 65, 0
2, 21900, Note_on_c, 0, 63, 120
2, 21960, Note_on_c, 0, 63, 0
2, 21960, Note_on_c, 0, 59, 0
2, 21960, Note_on_c, 0, 59, 120
2, 21960, Note_on_c, 0, 65, 120
2, 22020, Note_on_c, 0, 65, 0
2, 22020, Note_on_c, 0, 62, 120
2, 22080, Note_on_c, 0, 62, 0
2, 22080, Note_on_c, 0, 59, 0
2, 22080, Note_on_c, 0, 68, 0
2, 22080, Note_on_c, 0, 58, 120
2, 22080, Note_on_c, 0, 51, 120
2, 22140, Note_on_c, 0, 61, 120
2, 22200, Note_on_c, 0, 61, 0
2, 22200, Note_on_c, 0, 58, 0
2, 22200, Note_on_c, 0, 64, 120
2, 22200, Note_on_c, 0, 58, 120
2, 22260, Note_on_c, 0, 64, 0
2, 22260, Note_on_c, 0, 68, 120
2, 22320, Note_on_c, 0, 58, 0
2, 22320, Note_on_c, 0, 51, 0
2, 22320, Note_on_c, 0, 64, 120
2, 22320, Note_on_c, 0, 58, 120
2, 22380, Note_on_c, 0, 64, 0
2, 22380, Note_on_c, 0, 63, 120
2, 22440, Note_on_c, 0, 63, 0
2, 22440, Note_on_c, 0, 58, 0
2, 22440, Note_on_c, 0, 64, 120
2, 22440, Note_on_c, 0, 58, 120
2, 22500, Note_on_c, 0, 64, 0
2, 22500, Note_on_c, 0, 61, 120
2, 22560, Note_on_c, 0, 61, 0
2, 22560, Note_on_c, 0, 58, 0
2, 22560, Note_on_c, 0, 68, 0
2, 22560, Note_on_c, 0, 58, 120
2, 22560, Note_on_c, 0, 51, 120
2, 22620, Note_on_c, 0, 61, 120
2, 22680, Note_on_c, 0, 61, 0
2, 22680, Note_on_c, 0, 58, 0
2, 22680, Note_on_c, 0, 63, 120
2, 22680, Note_on_c, 0, 58, 120
2, 22740, Note_on_c, 0, 63, 0
2, 22740, Note_on_c, 0, 67, 120
2, 22800, Note_on_c, 0, 58, 0
2, 22800, Note_on_c, 0, 51, 0
2, 22800, Note_on_c, 0, 63, 120
2, 22800, Note_on_c, 0, 58, 120
2, 22860, Note_on_c, 0, 63, 0
2, 22860, Note_on_c, 0, 61, 120
2, 22920, Note_on_c, 0, 61, 0
2, 22920, Note_on_c, 0, 58, 0
2, 22920, Note_on_c, 0, 58, 120
2, 22920, Note_on_c, 0, 63, 120
2, 22980, Note_on_c, 0, 63, 0
2, 22980, Note_on_c, 0, 61, 120
2, 23040, Note_on_c, 0, 61, 0
2, 23040, Note_on_c, 0, 58, 0
2, 23040, Note_on_c, 0, 67, 0
2, 23040, Note_on_c, 0, 44, 120
2, 23048, Note_on_c, 0, 56, 120
2, 23052, Note_on_c, 0, 60, 120
2, 23056, Note_on_c, 0, 63, 120
2, 23060, Note_on_c, 0, 68, 120
2, 23130, Note_on_c, 0, 44, 0
2, 23138, Note_on_c, 0, 56, 0
2, 23142, Note_on_c, 0, 60, 0
2, 23146, Note_on_c, 0, 63, 0
2, 23150, Note_on_c, 0, 68, 0
2, 23160, Note_on_c, 0, 63, 120
2, 23220, Note_on_c, 0, 63, 0
2, 23220, Note_on_c, 0, 61, 120
2, 23280, Note_on_c, 0, 61, 0
2, 23280, Note_on_c, 0, 63, 120
2, 23340, Note_on_c, 0, 63, 0
2, 23340, Note_on_c, 0, 65, 120
2, 23390, Note_on_c, 0, 65, 0
2, 23400, Note_on_c, 0, 65, 120
2, 23520, Note_on_c, 0, 66, 120
2, 23520, Note_on_c, 0, 58, 120
2, 23523, Note_on_c, 0, 65, 0
2, 23540, Note_on_c, 0, 65, 120
2, 23551, Note_on_c, 0, 66, 0
2, 23556, Note_on_c, 0, 66, 120
2, 23571, Note_on_c, 0, 65, 0
2, 23580, Note_on_c, 0, 58, 0
2, 23580, Note_on_c, 0, 56, 120
2, 23640, Note_on_c, 0, 56, 0
2, 23640, Note_on_c, 0, 58, 120
2, 23700, Note_on_c, 0, 58, 0
2, 23700, Note_on_c, 0, 60, 120
2, 23750, Note_on_c, 0, 60, 0
2, 23760, Note_on_c, 0, 60, 120
2, 23763, Note_on_c, 0, 66, 0
2, 23880, Note_on_c, 0, 61, 120
2, 23880, Note_on_c, 0, 65, 120
2, 23883, Note_on_c, 0, 60, 0
2, 23900, Note_on_c, 0, 60, 120
2, 23915, Note_on_c, 0, 65, 0
2, 23915, Note_on_c, 0, 61, 0
2, 23920, Note_on_c, 0, 61, 120
2, 23935, Note_on_c, 0, 60, 0
2, 24000, Note_on_c, 0, 70, 120
2, 24035, Note_on_c, 0, 70, 0
2, 24120, Note_on_c, 0, 63, 120
2, 24159, Note_on_c, 0, 63, 0
2, 24240, Note_on_c, 0, 68, 120
2, 24240, Note_on_c, 0, 60, 120
2, 24243, Note_on_c, 0, 61, 0
2, 24260, Note_on_c, 0, 66, 120
2, 24270, Note_on_c, 0, 68, 0
2, 24280, Note_on_c, 0, 68, 120
2, 24283, Note_on_c, 0, 60, 0
2, 24290, Note_on_c, 0, 66, 0
2, 24360, Note_on_c, 0, 65, 120
2, 24411, Note_on_c, 0, 65, 0
2, 24480, Note_on_c, 0, 58, 120
2, 24531, Note_on_c, 0, 58, 0
2, 24580, Note_on_c, 0, 68, 0
2, 24600, Note_on_c, 0, 63, 120
2, 24600, Note_on_c, 0, 66, 120
2, 24620, Note_on_c, 0, 61, 120
2, 24630, Note_on_c, 0, 63, 0
2, 24644, Note_on_c, 0, 63, 120
2, 24650, Note_on_c, 0, 61, 0
2, 24660, Note_on_c, 0, 66, 0
2, 24660, Note_on_c, 0, 65, 120
2, 24720, Note_on_c, 0, 65, 0
2, 24720, Note_on_c, 0, 66, 120
2, 24780, Note_on_c, 0, 66, 0
2, 24780, Note_on_c, 0, 68, 120
2, 24840, Note_on_c, 0, 68, 0
2, 24840, Note_on_c, 0, 66, 120
2, 24944, Note_on_c, 0, 63, 0
2, 24960, Note_on_c, 0, 66, 120
2, 24960, Note_on_c, 0, 61, 120
2, 24960, Note_on_c, 0, 53, 120
2, 24963, Note_on_c, 0, 66, 0
2, 24980, Note_on_c, 0, 65, 120
2, 24991, Note_on_c, 0, 66, 0
2, 25000, Note_on_c, 0, 66, 120
2, 25008, Note_on_c, 0, 65, 0
2, 25016, Note_on_c, 0, 65, 120
2, 25020, Note_on_c, 0, 53, 0
2, 25020, Note_on_c, 0, 51, 120
2, 25027, Note_on_c, 0, 66, 0
2, 25080, Note_on_c, 0, 51, 0
2, 25080, Note_on_c, 0, 53, 120
2, 25140, Note_on_c, 0, 53, 0
2, 25140, Note_on_c, 0, 54, 120
2, 25200, Note_on_c, 0, 54, 0
2, 25200, Note_on_c, 0, 56, 120
2, 25200, Note_on_c, 0, 63, 120
2, 25203, Note_on_c, 0, 65, 0
2, 25283, Note_on_c, 0, 63, 0
2, 25320, Note_on_c, 0, 61, 0
2, 25320, Note_on_c, 0, 68, 120
2, 25320, Note_on_c, 0, 60, 120
2, 25380, Note_on_c, 0, 60, 0
2, 25380, Note_on_c, 0, 68, 0
2, 25380, Note_on_c, 0, 67, 120
2, 25380, Note_on_c, 0, 58, 120
2, 25440, Note_on_c, 0, 58, 0
2, 25440, Note_on_c, 0, 67, 0
2, 25440, Note_on_c, 0, 68, 120
2, 25440, Note_on_c, 0, 60, 120
2, 25500, Note_on_c, 0, 60, 0
2, 25500, Note_on_c, 0, 68, 0
2, 25500, Note_on_c, 0, 61, 120
2, 25500, Note_on_c, 0, 70, 120
2, 25560, Note_on_c, 0, 70, 0
2, 25560, Note_on_c, 0, 61, 0
2, 25560, Note_on_c, 0, 72, 120
2, 25560, Note_on_c, 0, 63, 120
2, 25620, Note_on_c, 0, 72, 0
2, 25620, Note_on_c, 0, 68, 120
2, 25680, Note_on_c, 0, 68, 0
2, 25680, Note_on_c, 0, 63, 0
2, 25680, Note_on_c, 0, 73, 120
2, 25680, Note_on_c, 0, 56, 120
2, 25680, Note_on_c, 0, 53, 120
2, 25681, Note_on_c, 0, 56, 0
2, 25740, Note_on_c, 0, 73, 0
2, 25740, Note_on_c, 0, 75, 120
2, 25771, Note_on_c, 0, 53, 0
2, 25800, Note_on_c, 0, 75, 0
2, 25800, Note_on_c, 0, 56, 0
2, 25800, Note_on_c, 0, 61, 120
2, 25800, Note_on_c, 0, 58, 120
2, 25800, Note_on_c, 0, 73, 120
2, 25860, Note_on_c, 0, 73, 0
2, 25860, Note_on_c, 0, 72, 120
2, 25883, Note_on_c, 0, 58, 0
2, 25891, Note_on_c, 0, 61, 0
2, 25920, Note_on_c, 0, 72, 0
2, 25920, Note_on_c, 0, 66, 120
2, 25920, Note_on_c, 0, 70, 120
2, 25920, Note_on_c, 0, 51, 120
2, 25980, Note_on_c, 0, 70, 0
2, 25980, Note_on_c, 0, 72, 120
2, 25999, Note_on_c, 0, 51, 0
2, 26030, Note_on_c, 0, 72, 0
2, 26040, Note_on_c, 0, 73, 120
2, 26040, Note_on_c, 0, 56, 120
2, 26076, Note_on_c, 0, 72, 120
2, 26083, Note_on_c, 0, 73, 0
2, 26092, Note_on_c, 0, 73, 120
2, 26106, Note_on_c, 0, 72, 0
2, 26112, Note_on_c, 0, 72, 120
2, 26119, Note_on_c, 0, 56, 0
2, 26122, Note_on_c, 0, 73, 0
2, 26128, Note_on_c, 0, 73, 120
2, 26142, Note_on_c, 0, 72, 0
2, 26148, Note_on_c, 0, 72, 120
2, 26158, Note_on_c, 0, 73, 0
2, 26160, Note_on_c, 0, 44, 120
2, 26216, Note_on_c, 0, 73, 120
2, 26219, Note_on_c, 0, 72, 0
2, 26231, Note_on_c, 0, 44, 0
2, 26275, Note_on_c, 0, 73, 0
2, 26280, Note_on_c, 0, 73, 120
2, 26280, Note_on_c, 0, 49, 120
2, 26340, Note_on_c, 0, 66, 0
2, 26340, Note_on_c, 0, 65, 120
2, 26351, Note_on_c, 0, 73, 0
2, 26367, Note_on_c, 0, 49, 0
2, 26400, Note_on_c, 0, 77, 120
2, 26400, Note_on_c, 0, 61, 120
2, 26460, Note_on_c, 0, 61, 0
2, 26460, Note_on_c, 0, 63, 120
2, 26475, Note_on_c, 0, 77, 0
2, 26520, Note_on_c, 0, 63, 0
2, 26520, Note_on_c, 0, 65, 0
2, 26520, Note_on_c, 0, 68, 120
2, 26520, Note_on_c, 0, 75, 120
2, 26520, Note_on_c, 0, 61, 120
2, 26580, Note_on_c, 0, 61, 0
2, 26580, Note_on_c, 0, 60, 120
2, 26595, Note_on_c, 0, 75, 0
2, 26640, Note_on_c, 0, 60, 0
2, 26640, Note_on_c, 0, 58, 120
2, 26640, Note_on_c, 0, 73, 120
2, 26700, Note_on_c, 0, 68, 0
2, 26700, Note_on_c, 0, 65, 120
2, 26739, Note_on_c, 0, 73, 0
2, 26760, Note_on_c, 0, 65, 0
2, 26760, Note_on_c, 0, 78, 120
2, 26760, Note_on_c, 0, 61, 120
2, 26820, Note_on_c, 0, 61, 0
2, 26820, Note_on_c, 0, 80, 120
2, 26820, Note_on_c, 0, 65, 120
2, 26831, Note_on_c, 0, 78, 0
2, 26880, Note_on_c, 0, 65, 0
2, 26880, Note_on_c, 0, 78, 120
2, 26880, Note_on_c, 0, 63, 120
2, 26895, Note_on_c, 0, 80, 0
2, 26940, Note_on_c, 0, 63, 0
2, 26940, Note_on_c, 0, 61, 120
2, 26940, Note_on_c, 0, 77, 120
2, 26951, Note_on_c, 0, 78, 0
2, 27000, Note_on_c, 0, 61, 0
2, 27000, Note_on_c, 0, 75, 120
2, 27000, Note_on_c, 0, 60, 120
2, 27019, Note_on_c, 0, 77, 0
2, 27060, Note_on_c, 0, 58, 0
2, 27060, Note_on_c, 0, 58, 120
2, 27120, Note_on_c, 0, 58, 0
2, 27120, Note_on_c, 0, 60, 0
2, 27120, Note_on_c, 0, 72, 120
2, 27120, Note_on_c, 0, 57, 120
2, 27180, Note_on_c, 0, 57, 0
2, 27180, Note_on_c, 0, 55, 120
2, 27240, Note_on_c, 0, 55, 0
2, 27240, Note_on_c, 0, 72, 0
2, 27240, Note_on_c, 0, 65, 120
2, 27240, Note_on_c, 0, 57, 120
2, 27300, Note_on_c, 0, 57, 0
2, 27300, Note_on_c, 0, 75, 0
2, 27300, Note_on_c, 0, 53, 120
2, 27300, Note_on_c, 0, 75, 120
2, 27360, Note_on_c, 0, 75, 0
2, 27360, Note_on_c, 0, 53, 0
2, 27360, Note_on_c, 0, 73, 120
2, 27360, Note_on_c, 0, 58, 120
2, 27420, Note_on_c, 0, 65, 0
2, 27420, Note_on_c, 0, 65, 120
2, 27480, Note_on_c, 0, 65, 0
2, 27480, Note_on_c, 0, 58, 0
2, 27480, Note_on_c, 0, 66, 120
2, 27480, Note_on_c, 0, 46, 120
2, 27540, Note_on_c, 0, 46, 0
2, 27540, Note_on_c, 0, 73, 0
2, 27540, Note_on_c, 0, 72, 120
2, 27540, Note_on_c, 0, 44, 120
2, 27600, Note_on_c, 0, 44, 0
2, 27600, Note_on_c, 0, 72, 0
2, 27600, Note_on_c, 0, 73, 120
2, 27600, Note_on_c, 0, 46, 120
2, 27660, Note_on_c, 0, 46, 0
2, 27660, Note_on_c, 0, 73, 0
2, 27660, Note_on_c, 0, 48, 120
2, 27660, Note_on_c, 0, 75, 120
2, 27720, Note_on_c, 0, 75, 0
2, 27720, Note_on_c, 0, 48, 0
2, 27720, Note_on_c, 0, 49, 120
2, 27720, Note_on_c, 0, 68, 120
2, 27780, Note_on_c, 0, 66, 0
2, 27780, Note_on_c, 0, 65, 120
2, 27840, Note_on_c, 0, 68, 0
2, 27840, Note_on_c, 0, 73, 120
2, 27900, Note_on_c, 0, 75, 120
2, 27911, Note_on_c, 0, 73, 0
2, 27960, Note_on_c, 0, 73, 120
2, 27975, Note_on_c, 0, 75, 0
2, 28020, Note_on_c, 0, 72, 120
2, 28031, Note_on_c, 0, 73, 0
2, 28080, Note_on_c, 0, 65, 0
2, 28080, Note_on_c, 0, 70, 120
2, 28080, Note_on_c, 0, 67, 120
2, 28091, Note_on_c, 0, 72, 0
2, 28140, Note_on_c, 0, 67, 0
2, 28140, Note_on_c, 0, 63, 120
2, 28200, Note_on_c, 0, 63, 0
2, 28200, Note_on_c, 0, 70, 0
2, 28200, Note_on_c, 0, 49, 0
2, 28200, Note_on_c, 0, 72, 120
2, 28200, Note_on_c, 0, 68, 120
2, 28200, Note_on_c, 0, 48, 120
2, 28216, Note_on_c, 0, 70, 120
2, 28231, Note_on_c, 0, 72, 0
2, 28236, Note_on_c, 0, 72, 120
2, 28247, Note_on_c, 0, 70, 0
2, 28260, Note_on_c, 0, 68, 0
2, 28260, Note_on_c, 0, 67, 120
2, 28263, Note_on_c, 0, 48, 0
2, 28320, Note_on_c, 0, 67, 0
2, 28320, Note_on_c, 0, 53, 120
2, 28320, Note_on_c, 0, 68, 120
2, 28375, Note_on_c, 0, 72, 0
2, 28380, Note_on_c, 0, 72, 120
2, 28391, Note_on_c, 0, 53, 0
2, 28440, Note_on_c, 0, 72, 0
2, 28440, Note_on_c, 0, 73, 120
2, 28440, Note_on_c, 0, 46, 120
2, 28460, Note_on_c, 0, 72, 120
2, 28471, Note_on_c, 0, 73, 0
2, 28480, Note_on_c, 0, 73, 120
2, 28491, Note_on_c, 0, 72, 0
2, 28500, Note_on_c, 0, 68, 0
2, 28500, Note_on_c, 0, 68, 120
2, 28507, Note_on_c, 0, 46, 0
2, 28560, Note_on_c, 0, 68, 0
2, 28560, Note_on_c, 0, 67, 120
2, 28560, Note_on_c, 0, 51, 120
2, 28620, Note_on_c, 0, 67, 0
2, 28620, Note_on_c, 0, 65, 120
2, 28631, Note_on_c, 0, 51, 0
2, 28680, Note_on_c, 0, 65, 0
2, 28680, Note_on_c, 0, 67, 120
2, 28680, Note_on_c, 0, 39, 120
2, 28735, Note_on_c, 0, 73, 0
2, 28740, Note_on_c, 0, 73, 120
2, 28751, Note_on_c, 0, 39, 0
2, 28800, Note_on_c, 0, 73, 0
2, 28800, Note_on_c, 0, 67, 0
2, 28800, Note_on_c, 0, 72, 120
2, 28800, Note_on_c, 0, 68, 120
2, 28800, Note_on_c, 0, 44, 120
2, 28860, Note_on_c, 0, 44, 0
2, 28860, Note_on_c, 0, 43, 120
2, 28920, Note_on_c, 0, 43, 0
2, 28920, Note_on_c, 0, 68, 0
2, 28920, Note_on_c, 0, 72, 0
2, 28920, Note_on_c, 0, 63, 120
2, 28920, Note_on_c, 0, 44, 120
2, 28980, Note_on_c, 0, 44, 0
2, 28980, Note_on_c, 0, 63, 0
2, 28980, Note_on_c, 0, 61, 120
2, 28980, Note_on_c, 0, 46, 120
2, 29040, Note_on_c, 0, 46, 0
2, 29040, Note_on_c, 0, 61, 0
2, 29040, Note_on_c, 0, 63, 120
2, 29040, Note_on_c, 0, 48, 120
2, 29100, Note_on_c, 0, 48, 0
2, 29100, Note_on_c, 0, 63, 0
2, 29100, Note_on_c, 0, 49, 120
2, 29100, Note_on_c, 0, 65, 120
2, 29160, Note_on_c, 0, 65, 0
2, 29160, Note_on_c, 0, 49, 0
2, 29160, Note_on_c, 0, 66, 120
2, 29160, Note_on_c, 0, 51, 120
2, 29220, Note_on_c, 0, 51, 0
2, 29220, Note_on_c, 0, 50, 120
2, 29280, Note_on_c, 0, 50, 0
2, 29280, Note_on_c, 0, 70, 120
2, 29280, Note_on_c, 0, 51, 120
2, 29340, Note_on_c, 0, 51, 0
2, 29340, Note_on_c, 0, 70, 0
2, 29340, Note_on_c, 0, 68, 120
2, 29340, Note_on_c, 0, 53, 120
2, 29400, Note_on_c, 0, 53, 0
2, 29400, Note_on_c, 0, 68, 0
2, 29400, Note_on_c, 0, 70, 120
2, 29400, Note_on_c, 0, 54, 120
2, 29460, Note_on_c, 0, 54, 0
2, 29460, Note_on_c, 0, 70, 0
2, 29460, Note_on_c, 0, 72, 120
2, 29460, Note_on_c, 0, 56, 120
2, 29520, Note_on_c, 0, 56, 0
2, 29520, Note_on_c, 0, 72, 0
2, 29520, Note_on_c, 0, 58, 120
2, 29524, Note_on_c, 0, 73, 120
2, 29527, Note_on_c, 0, 73, 0
2, 29544, Note_on_c, 0, 72, 120
2, 29547, Note_on_c, 0, 72, 0
2, 29564, Note_on_c, 0, 73, 120
2, 29580, Note_on_c, 0, 58, 0
2, 29580, Note_on_c, 0, 57, 120
2, 29640, Note_on_c, 0, 57, 0
2, 29640, Note_on_c, 0, 66, 0
2, 29640, Note_on_c, 0, 65, 120
2, 29640, Note_on_c, 0, 58, 120
2, 29700, Note_on_c, 0, 58, 0
2, 29700, Note_on_c, 0, 60, 120
2, 29760, Note_on_c, 0, 60, 0
2, 29760, Note_on_c, 0, 65, 0
2, 29760, Note_on_c, 0, 70, 120
2, 29760, Note_on_c, 0, 61, 120
2, 29820, Note_on_c, 0, 61, 0
2, 29820, Note_on_c, 0, 63, 120
2, 29880, Note_on_c, 0, 63, 0
2, 29880, Note_on_c, 0, 70, 0
2, 29880, Note_on_c, 0, 69, 120
2, 29880, Note_on_c, 0, 65, 120
2, 29940, Note_on_c, 0, 65, 0
2, 29940, Note_on_c, 0, 63, 120
2, 30000, Note_on_c, 0, 63, 0
2, 30000, Note_on_c, 0, 72, 120
2, 30000, Note_on_c, 0, 65, 120
2, 30007, Note_on_c, 0, 73, 0
2, 30060, Note_on_c, 0, 65, 0
2, 30060, Note_on_c, 0, 66, 120
2, 30071, Note_on_c, 0, 72, 0
2, 30120, Note_on_c, 0, 66, 0
2, 30120, Note_on_c, 0, 69, 0
2, 30120, Note_on_c, 0, 77, 120
2, 30120, Note_on_c, 0, 68, 120
2, 30120, Note_on_c, 0, 65, 120
2, 30180, Note_on_c, 0, 65, 0
2, 30180, Note_on_c, 0, 63, 120
2, 30183, Note_on_c, 0, 77, 0
2, 30240, Note_on_c, 0, 63, 0
2, 30240, Note_on_c, 0, 70, 120
2, 30240, Note_on_c, 0, 62, 120
2, 30300, Note_on_c, 0, 62, 0
2, 30300, Note_on_c, 0, 58, 120
2, 30360, Note_on_c, 0, 58, 0
2, 30360, Note_on_c, 0, 68, 0
2, 30360, Note_on_c, 0, 67, 120
2, 30360, Note_on_c, 0, 63, 120
2, 30420, Note_on_c, 0, 63, 0
2, 30420, Note_on_c, 0, 65, 120
2, 30480, Note_on_c, 0, 65, 0
2, 30480, Note_on_c, 0, 67, 0
2, 30480, Note_on_c, 0, 70, 0
2, 30480, Note_on_c, 0, 66, 120
2, 30480, Note_on_c, 0, 75, 120
2, 30480, Note_on_c, 0, 63, 120
2, 30540, Note_on_c, 0, 63, 0
2, 30540, Note_on_c, 0, 61, 120
2, 30547, Note_on_c, 0, 75, 0
2, 30600, Note_on_c, 0, 61, 0
2, 30600, Note_on_c, 0, 68, 120
2, 30600, Note_on_c, 0, 60, 120
2, 30660, Note_on_c, 0, 60, 0
2, 30660, Note_on_c, 0, 56, 120
2, 30720, Note_on_c, 0, 56, 0
2, 30720, Note_on_c, 0, 66, 0
2, 30720, Note_on_c, 0, 65, 120
2, 30720, Note_on_c, 0, 61, 120
2, 30780, Note_on_c, 0, 61, 0
2, 30780, Note_on_c, 0, 59, 120
2, 30840, Note_on_c, 0, 59, 0
2, 30840, Note_on_c, 0, 65, 0
2, 30840, Note_on_c, 0, 68, 0
2, 30840, Note_on_c, 0, 64, 120
2, 30840, Note_on_c, 0, 73, 120
2, 30840, Note_on_c, 0, 58, 120
2, 30860, Note_on_c, 0, 72, 120
2, 30863, Note_on_c, 0, 73, 0
2, 30879, Note_on_c, 0, 72, 0
2, 30880, Note_on_c, 0, 73, 120
2, 30900, Note_on_c, 0, 58, 0
2, 30900, Note_on_c, 0, 56, 120
2, 30960, Note_on_c, 0, 56, 0
2, 30960, Note_on_c, 0, 64, 0
2, 30960, Note_on_c, 0, 63, 120
2, 30960, Note_on_c, 0, 55, 120
2, 31020, Note_on_c, 0, 55, 0
2, 31020, Note_on_c, 0, 51, 120
2, 31079, Note_on_c, 0, 73, 0
2, 31080, Note_on_c, 0, 51, 0
2, 31080, Note_on_c, 0, 72, 120
2, 31080, Note_on_c, 0, 56, 120
2, 31140, Note_on_c, 0, 56, 0
2, 31140, Note_on_c, 0, 72, 0
2, 31140, Note_on_c, 0, 70, 120
2, 31140, Note_on_c, 0, 58, 120
2, 31200, Note_on_c, 0, 58, 0
2, 31200, Note_on_c, 0, 70, 0
2, 31200, Note_on_c, 0, 72, 120
2, 31200, Note_on_c, 0, 56, 120
2, 31260, Note_on_c, 0, 56, 0
2, 31260, Note_on_c, 0, 72, 0
2, 31260, Note_on_c, 0, 75, 120
2, 31260, Note_on_c, 0, 54, 120
2, 31320, Note_on_c, 0, 54, 0
2, 31320, Note_on_c, 0, 75, 0
2, 31320, Note_on_c, 0, 68, 120
2, 31320, Note_on_c, 0, 53, 120
2, 31379, Note_on_c, 0, 68, 0
2, 31380, Note_on_c, 0, 53, 0
2, 31380, Note_on_c, 0, 54, 120
2, 31440, Note_on_c, 0, 54, 0
2, 31440, Note_on_c, 0, 63, 0
2, 31440, Note_on_c, 0, 73, 120
2, 31440, Note_on_c, 0, 61, 120
2, 31440, Note_on_c, 0, 53, 120
2, 31500, Note_on_c, 0, 53, 0
2, 31500, Note_on_c, 0, 51, 120
2, 31503, Note_on_c, 0, 73, 0
2, 31560, Note_on_c, 0, 51, 0
2, 31560, Note_on_c, 0, 61, 0
2, 31560, Note_on_c, 0, 66, 120
2, 31560, Note_on_c, 0, 63, 120
2, 31560, Note_on_c, 0, 53, 120
2, 31579, Note_on_c, 0, 66, 0
2, 31580, Note_on_c, 0, 65, 120
2, 31600, Note_on_c, 0, 66, 120
2, 31611, Note_on_c, 0, 65, 0
2, 31620, Note_on_c, 0, 53, 0
2, 31620, Note_on_c, 0, 54, 120
2, 31680, Note_on_c, 0, 54, 0
2, 31680, Note_on_c, 0, 65, 120
2, 31680, Note_on_c, 0, 56, 120
2, 31683, Note_on_c, 0, 66, 0
2, 31740, Note_on_c, 0, 63, 0
2, 31740, Note_on_c, 0, 61, 120
2, 31747, Note_on_c, 0, 56, 0
2, 31800, Note_on_c, 0, 65, 0
2, 31800, Note_on_c, 0, 65, 120
2, 31800, Note_on_c, 0, 42, 120
2, 31836, Note_on_c, 0, 63, 120
2, 31847, Note_on_c, 0, 65, 0
2, 31852, Note_on_c, 0, 65, 120
2, 31860, Note_on_c, 0, 61, 0
2, 31860, Note_on_c, 0, 58, 120
2, 31863, Note_on_c, 0, 63, 0
2, 31871, Note_on_c, 0, 42, 0
2, 31872, Note_on_c, 0, 63, 120
2, 31879, Note_on_c, 0, 65, 0
2, 31888, Note_on_c, 0, 65, 120
2, 31899, Note_on_c, 0, 63, 0
2, 31908, Note_on_c, 0, 63, 120
2, 31915, Note_on_c, 0, 65, 0
2, 31920, Note_on_c, 0, 58, 0
2, 31920, Note_on_c, 0, 60, 120
2, 31920, Note_on_c, 0, 44, 120
2, 31980, Note_on_c, 0, 54, 120
2, 31983, Note_on_c, 0, 44, 0
2, 32040, Note_on_c, 0, 54, 0
2, 32040, Note_on_c, 0, 60, 0
2, 32040, Note_on_c, 0, 37, 120
2, 32043, Note_on_c, 0, 63, 0
2, 32068, Note_on_c, 0, 53, 120
2, 32080, Note_on_c, 0, 56, 120
2, 32100, Note_on_c, 0, 61, 120
2, 32399, Note_on_c, 0, 53, 0
2, 32400, Note_on_c, 0, 37, 0
2, 32403, Note_on_c, 0, 56, 0
2, 32403, Note_on_c, 0, 61, 0
2, 32403, End_track
3, 0, Start_track
3, 0, MIDI_port, 0
3, 0, Title_t, "Sequenced by Yo Tomita"
3, 0, Program_c, 1, 6
3, 23040, Note_on_c, 1, 56, 60
3, 23130, Note_on_c, 1, 56, 0
3, 23160, Note_on_c, 1, 75, 60
3, 23220, Note_on_c, 1, 75, 0
3, 23220, Note_on_c, 1, 73, 60
3, 23280, Note_on_c, 1, 73, 0
3, 23280, Note_on_c, 1, 75, 60
3, 23340, Note_on_c, 1, 75, 0
3, 23340, Note_on_c, 1, 77, 60
3, 23390, Note_on_c, 1, 77, 0
3, 23400, Note_on_c, 1, 77, 60
3, 23520, Note_on_c, 1, 78, 60
3, 23520, Note_on_c, 1, 70, 60
3, 23523, Note_on_c, 1, 77, 0
3, 23540, Note_on_c, 1, 77, 60
3, 23551, Note_on_c, 1, 78, 0
3, 23556, Note_on_c, 1, 78, 60
3, 23571, Note_on_c, 1, 77, 0
3, 23580, Note_on_c, 1, 70, 0
3, 23580, Note_on_c, 1, 68, 60
3, 23640, Note_on_c, 1, 68, 0
3, 23640, Note_on_c, 1, 70, 60
3, 23700, Note_on_c, 1, 70, 0
3, 23700, Note_on_c, 1, 72, 60
3, 23750, Note_on_c, 1, 72, 0
3, 23760, Note_on_c, 1, 72, 60
3, 23763, Note_on_c, 1, 78, 0
3, 23880, Note_on_c, 1, 73, 60
3, 23880, Note_on_c, 1, 77, 60
3, 23883, Note_on_c, 1, 72, 0
3, 23900, Note_on_c, 1, 72, 60
3, 23915, Note_on_c, 1, 77, 0
3, 23915, Note_on_c, 1, 73, 0
3, 23920, Note_on_c, 1, 73, 60
3, 23935, Note_on_c, 1, 72, 0
3, 24000, Note_on_c, 1, 82, 60
3, 24035, Note_on_c, 1, 82, 0
3, 24120, Note_on_c, 1, 75, 60
3, 24159, Note_on_c, 1, 75, 0
3, 24240, Note_on_c, 1, 80, 60
3, 24240, Note_on_c, 1, 72, 60
3, 24243, Note_on_c, 1, 73, 0
3, 24260, Note_on_c, 1, 78, 60
3, 24270, Note_on_c, 1, 80, 0
3, 24280, Note_on_c, 1, 80, 60
3, 24283, Note_on_c, 1, 72, 0
3, 24290, Note_on_c, 1, 78, 0
3, 24360, Note_on_c, 1, 77, 60
3, 24411, Note_on_c, 1, 77, 0
3, 24480, Note_on_c, 1, 70, 60
3, 24531, Note_on_c, 1, 70, 0
3, 24580, Note_on_c, 1, 80, 0
3, 24600, Note_on_c, 1, 75, 60
3, 24600, Note_on_c, 1, 78, 60
3, 24620, Note_on_c, 1, 73, 60
3, 24630, Note_on_c, 1, 75, 0
3, 24644, Note_on_c, 1, 75, 60
3, 24650, Note_on_c, 1, 73, 0
3, 24660, Note_on_c, 1, 78, 0
3, 24660, Note_on_c, 1, 77, 60
3, 24720, Note_on_c, 1, 77, 0
3, 24720, Note_on_c, 1, 78, 60
3, 24780, Note_on_c, 1, 78, 0
3, 24780, Note_on_c, 1, 80, 60
3, 24840, Note_on_c, 1, 80, 0
3, 24840, Note_on_c, 1, 78, 60
3, 24944, Note_on_c, 1, 75, 0
3, 24960, Note_on_c, 1, 78, 60
3, 24960, Note_on_c, 1, 73, 60
3, 24960, Note_on_c, 1, 65, 60
3, 24963, Note_on_c, 1, 78, 0
3, 24980, Note_on_c, 1, 77, 60
3, 24991, Note_on_c, 1, 78, 0
3, 25000, Note_on_c, 1, 78, 60
3, 25008, Note_on_c, 1, 77, 0
3, 25016, Note_on_c, 1, 77, 60
3, 25020, Note_on_c, 1, 65, 0
3, 25020, Note_on_c, 1, 63, 60
3, 25027, Note_on_c, 1, 78, 0
3, 25080, Note_on_c, 1, 63, 0
3, 25080, Note_on_c, 1, 65, 60
3, 25140, Note_on_c, 1, 65, 0
3, 25140, Note_on_c, 1, 66, 60
3, 25200, Note_on_c, 1, 66, 0
3, 25200, Note_on_c, 1, 68, 60
3, 25200, Note_on_c, 1, 75, 60
3, 25203, Note_on_c, 1, 77, 0
3, 25283, Note_on_c, 1, 75, 0
3, 25320, Note_on_c, 1, 73, 0
3, 25320, Note_on_c, 1, 80, 60
3, 25320, Note_on_c, 1, 72, 60
3, 25380, Note_on_c, 1, 72, 0
3, 25380, Note_on_c, 1, 80, 0
3, 25380, Note_on_c, 1, 79, 60
3, 25380, Note_on_c, 1, 70, 60
3, 25440, Note_on_c, 1, 70, 0
3, 25440, Note_on_c, 1, 79, 0
3, 25440, Note_on_c, 1, 80, 60
3, 25440, Note_on_c, 1, 72, 60
3, 25500, Note_on_c, 1, 72, 0
3, 25500, Note_on_c, 1, 80, 0
3, 25500, Note_on_c, 1, 73, 60
3, 25500, Note_on_c, 1, 82, 60
3, 25560, Note_on_c, 1, 82, 0
3, 25560, Note_on_c, 1, 73, 0
3, 25560, Note_on_c, 1, 84, 60
3, 25560, Note_on_c, 1, 75, 60
3, 25620, Note_on_c, 1, 84, 0
3, 25620, Note_on_c, 1, 80, 60
3, 25680, Note_on_c, 1, 80, 0
3, 25680, Note_on_c, 1, 75, 0
3, 25680, Note_on_c, 1, 85, 60
3, 25680, Note_on_c, 1, 68, 60
3, 25680, Note_on_c, 1, 65, 60
3, 25681, Note_on_c, 1, 68, 0
3, 25740, Note_on_c, 1, 85, 0
3, 25740, Note_on_c, 1, 87, 60
3, 25771, Note_on_c, 1, 65, 0
3, 25800, Note_on_c, 1, 87, 0
3, 25800, Note_on_c, 1, 68, 0
3, 25800, Note_on_c, 1, 73, 60
3, 25800, Note_on_c, 1, 70, 60
3, 25800, Note_on_c, 1, 85, 60
3, 25860, Note_on_c, 1, 85, 0
3, 25860, Note_on_c, 1, 84, 60
3, 25883, Note_on_c, 1, 70, 0
3, 25891, Note_on_c, 1, 73, 0
3, 25920, Note_on_c, 1, 84, 0
3, 25920, Note_on_c, 1, 78, 60
3, 25920, Note_on_c, 1, 82, 60
3, 25920, Note_on_c, 1, 63, 60
3, 25980, Note_on_c, 1, 82, 0
3, 25980, Note_on_c, 1, 84, 60
3, 25999, Note_on_c, 1, 63, 0
3, 26030, Note_on_c, 1, 84, 0
3, 26040, Note_on_c, 1, 85, 60
3, 26040, Note_on_c, 1, 68, 60
3, 26076, Note_on_c, 1, 84, 60
3, 26083, Note_on_c, 1, 85, 0
3, 26092, Note_on_c, 1, 85, 60
3, 26106, Note_on_c, 1, 84, 0
3, 26112, Note_on_c, 1, 84, 60
3, 26119, Note_on_c, 1, 68, 0
3, 26122, Note_on_c, 1, 85, 0
3, 26128, Note_on_c, 1, 85, 60
3, 26142, Note_on_c, 1, 84, 0
3, 26148, Note_on_c, 1, 84, 60
3, 26158, Note_on_c, 1, 85, 0
3, 26160, Note_on_c, 1, 56, 60
3, 26216, Note_on_c, 1, 85, 60
3, 26219, Note_on_c, 1, 84, 0
3, 26231, Note_on_c, 1, 56, 0
3, 26275, Note_on_c, 1, 85, 0
3, 26280, Note_on_c, 1, 85, 60
3, 26280, Note_on_c, 1, 61, 60
3, 26340, Note_on_c, 1, 78, 0
3, 26340, Note_on_c, 1, 77, 60
3, 26351, Note_on_c, 1, 85, 0
3, 26367, Note_on_c, 1, 61, 0
3, 26400, Note_on_c, 1, 89, 60
3, 26400, Note_on_c, 1, 73, 60
3, 26460, Note_on_c, 1, 73, 0
3, 26460, Note_on_c, 1, 75, 60
3, 26475, Note_on_c, 1, 89, 0
3, 26520, Note_on_c, 1, 75, 0
3, 26520, Note_on_c, 1, 77, 0
3, 26520, Note_on_c, 1, 80, 60
3, 26520, Note_on_c, 1, 87, 60
3, 26520, Note_on_c, 1, 73, 60
3, 26580, Note_on_c, 1, 73, 0
3, 26580, Note_on_c, 1, 72, 60
3, 26595, Note_on_c, 1, 87, 0
3, 26640, Note_on_c, 1, 72, 0
3, 26640, Note_on_c, 1, 70, 60
3, 26640, Note_on_c, 1, 85, 60
3, 26700, Note_on_c, 1, 80, 0
3, 26700, Note_on_c, 1, 77, 60
3, 26739, Note_on_c, 1, 85, 0
3, 26760, Note_on_c, 1, 77, 0
3, 26760, Note_on_c, 1, 90, 60
3, 26760, Note_on_c, 1, 73, 60
3, 26820, Note_on_c, 1, 73, 0
3, 26820, Note_on_c, 1, 92, 60
3, 26820, Note_on_c, 1, 77, 60
3, 26831, Note_on_c, 1, 90, 0
3, 26880, Note_on_c, 1, 77, 0
3, 26880, Note_on_c, 1, 90, 60
3, 26880, Note_on_c, 1, 75, 60
3, 26895, Note_on_c, 1, 92, 0
3, 26940, Note_on_c, 1, 75, 0
3, 26940, Note_on_c, 1, 73, 60
3, 26940, Note_on_c, 1, 89, 60
3, 26951, Note_on_c, 1, 90, 0
3, 27000, Note_on_c, 1, 73, 0
3, 27000, Note_on_c, 1, 87, 60
3, 27000, Note_on_c, 1, 72, 60
3, 27019, Note_on_c, 1, 89, 0
3, 27060, Note_on_c, 1, 70, 0
3, 27060, Note_on_c, 1, 70, 60
3, 27120, Note_on_c, 1, 70, 0
3, 27120, Note_on_c, 1, 72, 0
3, 27120, Note_on_c, 1, 84, 60
3, 27120, Note_on_c, 1, 69, 60
3, 27180, Note_on_c, 1, 69, 0
3, 27180, Note_on_c, 1, 67, 60
3, 27240, Note_on_c, 1, 67, 0
3, 27240, Note_on_c, 1, 84, 0
3, 27240, Note_on_c, 1, 77, 60
3, 27240, Note_on_c, 1, 69, 60
3, 27300, Note_on_c, 1, 69, 0
3, 27300, Note_on_c, 1, 87, 0
3, 27300, Note_on_c, 1, 65, 60
3, 27300, Note_on_c, 1, 87, 60
3, 27360, Note_on_c, 1, 87, 0
3, 27360, Note_on_c, 1, 65, 0
3, 27360, Note_on_c, 1, 85, 60
3, 27360, Note_on_c, 1, 70, 60
3, 27420, Note_on_c, 1, 77, 0
3, 27420, Note_on_c, 1, 77, 60
3, 27480, Note_on_c, 1, 77, 0
3, 27480, Note_on_c, 1, 70, 0
3, 27480, Note_on_c, 1, 78, 60
3, 27480, Note_on_c, 1, 58, 60
3, 27540, Note_on_c, 1, 58, 0
3, 27540, Note_on_c, 1, 85, 0
3, 27540, Note_on_c, 1, 84, 60
3, 27540, Note_on_c, 1, 56, 60
3, 27600, Note_on_c, 1, 56, 0
3, 27600, Note_on_c, 1, 84, 0
3, 27600, Note_on_c, 1, 85, 60
3, 27600, Note_on_c, 1, 58, 60
3, 27660, Note_on_c, 1, 58, 0
3, 27660, Note_on_c, 1, 85, 0
3, 27660, Note_on_c, 1, 60, 60
3, 27660, Note_on_c, 1, 87, 60
3, 27720, Note_on_c, 1, 87, 0
3, 27720, Note_on_c, 1, 60, 0
3, 27720, Note_on_c, 1, 61, 60
3, 27720, Note_on_c, 1, 80, 60
3, 27780, Note_on_c, 1, 78, 0
3, 27780, Note_on_c, 1, 77, 60
3, 27840, Note_on_c, 1, 80, 0
3, 27840, Note_on_c, 1, 85, 60
3, 27900, Note_on_c, 1, 87, 60
3, 27911, Note_on_c, 1, 85, 0
3, 27960, Note_on_c, 1, 85, 60
3, 27975, Note_on_c, 1, 87, 0
3, 28020, Note_on_c, 1, 84, 60
3, 28031, Note_on_c, 1, 85, 0
3, 28080, Note_on_c, 1, 77, 0
3, 28080, Note_on_c, 1, 82, 60
3, 28080, Note_on_c, 1, 79, 60
3, 28091, Note_on_c, 1, 84, 0
3, 28140, Note_on_c, 1, 79, 0
3, 28140, Note_on_c, 1, 75, 60
3, 28200, Note_on_c, 1, 75, 0
3, 28200, Note_on_c, 1, 82, 0
3, 28200, Note_on_c, 1, 61, 0
3, 28200, Note_on_c, 1, 84, 60
3, 28200, Note_on_c, 1, 80, 60
3, 28200, Note_on_c, 1, 60, 60
3, 28216, Note_on_c, 1, 82, 60
3, 28231, Note_on_c, 1, 84, 0
3, 28236, Note_on_c, 1, 84, 60
3, 28247, Note_on_c, 1, 82, 0
3, 28260, Note_on_c, 1, 80, 0
3, 28260, Note_on_c, 1, 79, 60
3, 28263, Note_on_c, 1, 60, 0
3, 28320, Note_on_c, 1, 79, 0
3, 28320, Note_on_c, 1, 65, 60
3, 28320, Note_on_c, 1, 80, 60
3, 28375, Note_on_c, 1, 84, 0
3, 28380, Note_on_c, 1, 84, 60
3, 28391, Note_on_c, 1, 65, 0
3, 28440, Note_on_c, 1, 84, 0
3, 28440, Note_on_c, 1, 85, 60
3, 28440, Note_on_c, 1, 58, 60
3, 28460, Note_on_c, 1, 84, 60
3, 28471, Note_on_c, 1, 85, 0
3, 28480, Note_on_c, 1, 85, 60
3, 28491, Note_on_c, 1, 84, 0
3, 28500, Note_on_c, 1, 80, 0
3, 28500, Note_on_c, 1, 80, 60
3, 28507, Note_on_c, 1, 58, 0
3, 28560, Note_on_c, 1, 80, 0
3, 28560, Note_on_c, 1, 79, 60
3, 28560, Note_on_c, 1, 63, 60
3, 28620, Note_on_c, 1, 79, 0
3, 28620, Note_on_c, 1, 77, 60
3, 28631, Note_on_c, 1, 63, 0
3, 28680, Note_on_c, 1, 77, 0
3, 28680, Note_on_c, 1, 79, 60
3, 28680, Note_on_c, 1, 51, 60
3, 28735, Note_on_c, 1, 85, 0
3, 28740, Note_on_c, 1, 85, 60
3, 28751, Note_on_c, 1, 51, 0
3, 28800, Note_on_c, 1, 85, 0
3, 28800, Note_on_c, 1, 79, 0
3, 28800, Note_on_c, 1, 84, 60
3, 28800, Note_on_c, 1, 80, 60
3, 28800, Note_on_c, 1, 56, 60
3, 28860, Note_on_c, 1, 56, 0
3, 28860, Note_on_c, 1, 55, 60
3, 28920, Note_on_c, 1, 55, 0
3, 28920, Note_on_c, 1, 80, 0
3, 28920, Note_on_c, 1, 84, 0
3, 28920, Note_on_c, 1, 75, 60
3, 28920, Note_on_c, 1, 56, 60
3, 28980, Note_on_c, 1, 56, 0
3, 28980, Note_on_c, 1, 75, 0
3, 28980, Note_on_c, 1, 73, 60
3, 28980, Note_on_c, 1, 58, 60
3, 29040, Note_on_c, 1, 58, 0
3, 29040, Note_on_c, 1, 73, 0
3, 29040, Note_on_c, 1, 75, 60
3, 29040, Note_on_c, 1, 60, 60
3, 29100, Note_on_c, 1, 60, 0
3, 29100, Note_on_c, 1, 75, 0
3, 29100, Note_on_c, 1, 61, 60
3, 29100, Note_on_c, 1, 77, 60
3, 29160, Note_on_c, 1, 77, 0
3, 29160, Note_on_c, 1, 61, 0
3, 29160, Note_on_c, 1, 78, 60
3, 29160, Note_on_c, 1, 63, 60
3, 29220, Note_on_c, 1, 63, 0
3, 29220, Note_on_c, 1, 62, 60
3, 29280, Note_on_c, 1, 62, 0
3, 29280, Note_on_c, 1, 82, 60
3, 29280, Note_on_c, 1, 63, 60
3, 29340, Note_on_c, 1, 63, 0
3, 29340, Note_on_c, 1, 82, 0
3, 29340, Note_on_c, 1, 80, 60
3, 29340, Note_on_c, 1, 65, 60
3, 29400, Note_on_c, 1, 65, 0
3, 29400, Note_on_c, 1, 80, 0
3, 29400, Note_on_c, 1, 82, 60
3, 29400, Note_on_c, 1, 66, 60
3, 29460, Note_on_c, 1, 66, 0
3, 29460, Note_on_c, 1, 82, 0
3, 29460, Note_on_c, 1, 84, 60
3, 29460, Note_on_c, 1, 68, 60
3, 29520, Note_on_c, 1, 68, 0
3, 29520, Note_on_c, 1, 84, 0
3, 29520, Note_on_c, 1, 70, 60
3, 29524, Note_on_c, 1, 85, 60
3, 29527, Note_on_c, 1, 85, 0
3, 29544, Note_on_c, 1, 84, 60
3, 29547, Note_on_c, 1, 84, 0
3, 29564, Note_on_c, 1, 85, 60
3, 29580, Note_on_c, 1, 70, 0
3, 29580, Note_on_c, 1, 69, 60
3, 29640, Note_on_c, 1, 69, 0
3, 29640, Note_on_c, 1, 78, 0
3, 29640, Note_on_c, 1, 77, 60
3, 29640, Note_on_c, 1, 70, 60
3, 29700, Note_on_c, 1, 70, 0
3, 29700, Note_on_c, 1, 72, 60
3, 29760, Note_on_c, 1, 72, 0
3, 29760, Note_on_c, 1, 77, 0
3, 29760, Note_on_c, 1, 82, 60
3, 29760, Note_on_c, 1, 73, 60
3, 29820, Note_on_c, 1, 73, 0
3, 29820, Note_on_c, 1, 75, 60
3, 29880, Note_on_c, 1, 75, 0
3, 29880, Note_on_c, 1, 82, 0
3, 29880, Note_on_c, 1, 81, 60
3, 29880, Note_on_c, 1, 77, 60
3, 29940, Note_on_c, 1, 77, 0
3, 29940, Note_on_c, 1, 75, 60
3, 30000, Note_on_c, 1, 75, 0
3, 30000, Note_on_c, 1, 84, 60
3, 30000, Note_on_c, 1, 77, 60
3, 30007, Note_on_c, 1, 85, 0
3, 30060, Note_on_c, 1, 77, 0
3, 30060, Note_on_c, 1, 78, 60
3, 30071, Note_on_c, 1, 84, 0
3, 30120, Note_on_c, 1, 78, 0
3, 30120, Note_on_c, 1, 81, 0
3, 30120, Note_on_c, 1, 89, 60
3, 30120, Note_on_c, 1, 80, 60
3, 30120, Note_on_c, 1, 77, 60
3, 30180, Note_on_c, 1, 77, 0
3, 30180, Note_on_c, 1, 75, 60
3, 30183, Note_on_c, 1, 89, 0
3, 30240, Note_on_c, 1, 75, 0
3, 30240, Note_on_c, 1, 82, 60
3, 30240, Note_on_c, 1, 74, 60
3, 30300, Note_on_c, 1, 74, 0
3, 30300, Note_on_c, 1, 70, 60
3, 30360, Note_on_c, 1, 70, 0
3, 30360, Note_on_c, 1, 80, 0
3, 30360, Note_on_c, 1, 79, 60
3, 30360, Note_on_c, 1, 75, 60
3, 30420, Note_on_c, 1, 75, 0
3, 30420, Note_on_c, 1, 77, 60
3, 30480, Note_on_c, 1, 77, 0
3, 30480, Note_on_c, 1, 79, 0
3, 30480, Note_on_c, 1, 82, 0
3, 30480, Note_on_c, 1, 78, 60
3, 30480, Note_on_c, 1, 87, 60
3, 30480, Note_on_c, 1, 75, 60
3, 30540, Note_on_c, 1, 75, 0
3, 30540, Note_on_c, 1, 73, 60
3, 30547, Note_on_c, 1, 87, 0
3, 30600, Note_on_c, 1, 73, 0
3, 30600, Note_on_c, 1, 80, 60
3, 30600, Note_on_c, 1, 72, 60
3, 30660, Note_on_c, 1, 72, 0
3, 30660, Note_on_c, 1, 68, 60
3, 30720, Note_on_c, 1, 68, 0
3, 30720, Note_on_c, 1, 78, 0
3, 30720, Note_on_c, 1, 77, 60
3, 30720, Note_on_c, 1, 73, 60
3, 30780, Note_on_c, 1, 73, 0
3, 30780, Note_on_c, 1, 71, 60
3, 30840, Note_on_c, 1, 71, 0
3, 30840, Note_on_c, 1, 77, 0
3, 30840, Note_on_c, 1, 80, 0
3, 30840, Note_on_c, 1, 76, 60
3, 30840, Note_on_c, 1, 85, 60
3, 30840, Note_on_c, 1, 70, 60
3, 30860, Note_on_c, 1, 84, 60
3, 30863, Note_on_c, 1, 85, 0
3, 30879, Note_on_c, 1, 84, 0
3, 30880, Note_on_c, 1, 85, 60
3, 30900, Note_on_c, 1, 70, 0
3, 30900, Note_on_c, 1, 68, 60
3, 30960, Note_on_c, 1, 68, 0
3, 30960, Note_on_c, 1, 76, 0
3, 30960, Note_on_c, 1, 75, 60
3, 30960, Note_on_c, 1, 67, 60
3, 31020, Note_on_c, 1, 67, 0
3, 31020, Note_on_c, 1, 63, 60
3, 31079, Note_on_c, 1, 85, 0
3, 31080, Note_on_c, 1, 63, 0
3, 31080, Note_on_c, 1, 84, 60
3, 31080, Note_on_c, 1, 68, 60
3, 31140, Note_on_c, 1, 68, 0
3, 31140, Note_on_c, 1, 84, 0
3, 31140, Note_on_c, 1, 82, 60
3, 31140, Note_on_c, 1, 70, 60
3, 31200, Note_on_c, 1, 70, 0
3, 31200, Note_on_c, 1, 82, 0
3, 31200, Note_on_c, 1, 84, 60
3, 31200, Note_on_c, 1, 68, 60
3, 31260, Note_on_c, 1, 68, 0
3, 31260, Note_on_c, 1, 84, 0
3, 31260, Note_on_c, 1, 87, 60
3, 31260, Note_on_c, 1, 66, 60
3, 31320, Note_on_c, 1, 66, 0
3, 31320, Note_on_c, 1, 87, 0
3, 31320, Note_on_c, 1, 80, 60
3, 31320, Note_on_c, 1, 65, 60
3, 31379, Note_on_c, 1, 80, 0
3, 31380, Note_on_c, 1, 65, 0
3, 31380, Note_on_c, 1, 66, 60
3, 31440, Note_on_c, 1, 66, 0
3, 31440, Note_on_c, 1, 75, 0
3, 31440, Note_on_c, 1, 85, 60
3, 31440, Note_on_c, 1, 73, 60
3, 31440, Note_on_c, 1, 65, 60
3, 31500, Note_on_c, 1, 65, 0
3, 31500, Note_on_c, 1, 63, 60
3, 31503, Note_on_c, 1, 85, 0
3, 31560, Note_on_c, 1, 63, 0
3, 31560, Note_on_c, 1, 73, 0
3, 31560, Note_on_c, 1, 78, 60
3, 31560, Note_on_c, 1, 75, 60
3, 31560, Note_on_c, 1, 65, 60
3, 31579, Note_on_c, 1, 78, 0
3, 31580, Note_on_c, 1, 77, 60
3, 31600, Note_on_c, 1, 78, 60
3, 31611, Note_on_c, 1, 77, 0
3, 31620, Note_on_c, 1, 65, 0
3, 31620, Note_on_c, 1, 66, 60
3, 31680, Note_on_c, 1, 66, 0
3, 31680, Note_on_c, 1, 77, 60
3, 31680, Note_on_c, 1, 68, 60
3, 31683, Note_on_c, 1, 78, 0
3, 31740, Note_on_c, 1, 75, 0
3, 31740, Note_on_c, 1, 73, 60
3, 31747, Note_on_c, 1, 68, 0
3, 31800, Note_on_c, 1, 77, 0
3, 31800, Note_on_c, 1, 77, 60
3, 31800, Note_on_c, 1, 54, 60
3, 31836, Note_on_c, 1, 75, 60
3, 31847, Note_on_c, 1, 77, 0
3, 31852, Note_on_c, 1, 77, 60
3, 31860, Note_on_c, 1, 73, 0
3, 31860, Note_on_c, 1, 70, 60
3, 31863, Note_on_c, 1, 75, 0
3, 31871, Note_on_c, 1, 54, 0
3, 31872, Note_on_c, 1, 75, 60
3, 31879, Note_on_c, 1, 77, 0
3, 31888, Note_on_c, 1, 77, 60
3, 31899, Note_on_c, 1, 75, 0
3, 31908, Note_on_c, 1, 75, 60
3, 31915, Note_on_c, 1, 77, 0
3, 31920, Note_on_c, 1, 70, 0
3, 31920, Note_on_c, 1, 72, 60
3, 31920, Note_on_c, 1, 56, 60
3, 31980, Note_on_c, 1, 66, 60
3, 31983, Note_on_c, 1, 56, 0
3, 32040, Note_on_c, 1, 66, 0
3, 32040, Note_on_c, 1, 72, 0
3, 32040, Note_on_c, 1, 49, 60
3, 32043, Note_on_c, 1, 75, 0
3, 32068, Note_on_c, 1, 65, 60
3, 32080, Note_on_c, 1, 68, 60
3, 32100, Note_on_c, 1, 73, 60
3, 32399, Note_on_c, 1, 65, 0
3, 32400, Note_on_c, 1, 49, 0
3, 32403, Note_on_c, 1, 68, 0
3, 32403, Note_on_c, 1, 73, 0
3, 32403, End_track
0, 0, End_of_file
