0, 0, Header, 1, 2, 240
1, 0, Start_track
1, 0, Time_signature, 3, 2, 24, 8
1, 0, Key_signature, -1, "major"
1, 0, Tempo, 517241
1, 0, Marker_t, "(c) Yo Tomita, 1997"
1, 42326, Tempo, 526316
1, 42426, Tempo, 545455
1, 42538, Tempo, 576923
1, 42654, Tempo, 594059
1, 42754, Tempo, 618557
1, 42926, Tempo, 652174
1, 43054, Tempo, 705882
1, 43118, Tempo, 845070
1, 43920, Tempo, 526316
1, 43920, End_track
2, 0, Start_track
2, 0, MIDI_port, 0
2, 0, Title_t, "BWV 875/1"
2, 0, Program_c, 0, 6
2, 0, Note_on_c, 0, 50, 64
2, 0, Note_on_c, 0, 74, 64
2, 20, Note_on_c, 0, 49, 64
2, 30, Note_on_c, 0, 50, 0
2, 44, Note_on_c, 0, 50, 64
2, 50, Note_on_c, 0, 49, 0
2, 120, Note_on_c, 0, 74, 0
2, 120, Note_on_c, 0, 72, 64
2, 180, Note_on_c, 0, 72, 0
2, 180, Note_on_c, 0, 70, 64
2, 191, Note_on_c, 0, 50, 0
2, 240, Note_on_c, 0, 70, 0
2, 240, Note_on_c, 0, 69, 64
2, 240, Note_on_c, 0, 38, 64
2, 300, Note_on_c, 0, 69, 0
2, 300, Note_on_c, 0, 67, 64
2, 360, Note_on_c, 0, 67, 0
2, 360, Note_on_c, 0, 65, 64
2, 420, Note_on_c, 0, 65, 0
2, 420, Note_on_c, 0, 64, 64
2, 427, Note_on_c, 0, 38, 0
2, 480, Note_on_c, 0, 64, 0
2, 480, Note_on_c, 0, 62, 64
2, 540, Note_on_c, 0, 62, 0
2, 540, Note_on_c, 0, 65, 64
2, 600, Note_on_c, 0, 65, 0
2, 600, Note_on_c, 0, 64, 64
2, 660, Note_on_c, 0, 64, 0
2, 660, Note_on_c, 0, 62, 64
2, 720, Note_on_c, 0, 62, 0
2, 720, Note_on_c, 0, 70, 64
2, 780, Note_on_c, 0, 70, 0
2, 780, Note_on_c, 0, 67, 64
2, 840, Note_on_c, 0, 67, 0
2, 840, Note_on_c, 0, 62, 64
2, 840, Note_on_c, 0, 38, 64
2, 900, Note_on_c, 0, 62, 0
2, 900, Note_on_c, 0, 67, 64
2, 927, Note_on_c, 0, 38, 0
2, 960, Note_on_c, 0, 67, 0
2, 960, Note_on_c, 0, 70, 64
2, 960, Note_on_c, 0, 43, 64
2, 1020, Note_on_c, 0, 70, 0
2, 1020, Note_on_c, 0, 67, 64
2, 1043, Note_on_c, 0, 43, 0
2, 1080, Note_on_c, 0, 67, 0
2, 1080, Note_on_c, 0, 62, 64
2, 1080, Note_on_c, 0, 46, 64
2, 1140, Note_on_c, 0, 62, 0
2, 1140, Note_on_c, 0, 67, 64
2, 1143, Note_on_c, 0, 46, 0
2, 1200, Note_on_c, 0, 67, 0
2, 1200, Note_on_c, 0, 50, 64
2, 1200, Note_on_c, 0, 70, 64
2, 1224, Note_on_c, 0, 49, 64
2, 1230, Note_on_c, 0, 50, 0
2, 1244, Note_on_c, 0, 50, 64
2, 1254, Note_on_c, 0, 49, 0
2, 1260, Note_on_c, 0, 70, 0
2, 1260, Note_on_c, 0, 67, 64
2, 1320, Note_on_c, 0, 67, 0
2, 1320, Note_on_c, 0, 62, 64
2, 1380, Note_on_c, 0, 62, 0
2, 1380, Note_on_c, 0, 67, 64
2, 1424, Note_on_c, 0, 50, 0
2, 1440, Note_on_c, 0, 67, 0
2, 1440, Note_on_c, 0, 69, 64
2, 1500, Note_on_c, 0, 69, 0
2, 1500, Note_on_c, 0, 67, 64
2, 1560, Note_on_c, 0, 67, 0
2, 1560, Note_on_c, 0, 62, 64
2, 1560, Note_on_c, 0, 38, 64
2, 1620, Note_on_c, 0, 62, 0
2, 1620, Note_on_c, 0, 67, 64
2, 1655, Note_on_c, 0, 38, 0
2, 1680, Note_on_c, 0, 67, 0
2, 1680, Note_on_c, 0, 69, 64
2, 1680, Note_on_c, 0, 41, 64
2, 1740, Note_on_c, 0, 69, 0
2, 1740, Note_on_c, 0, 65, 64
2, 1751, Note_on_c, 0, 41, 0
2, 1800, Note_on_c, 0, 65, 0
2, 1800, Note_on_c, 0, 62, 64
2, 1800, Note_on_c, 0, 45, 64
2, 1851, Note_on_c, 0, 45, 0
2, 1860, Note_on_c, 0, 62, 0
2, 1860, Note_on_c, 0, 65, 64
2, 1920, Note_on_c, 0, 65, 0
2, 1920, Note_on_c, 0, 50, 64
2, 1920, Note_on_c, 0, 69, 64
2, 1950, Note_on_c, 0, 50, 0
2, 1952, Note_on_c, 0, 49, 64
2, 1980, Note_on_c, 0, 69, 0
2, 1980, Note_on_c, 0, 50, 64
2, 1980, Note_on_c, 0, 65, 64
2, 1982, Note_on_c, 0, 49, 0
2, 2040, Note_on_c, 0, 65, 0
2, 2040, Note_on_c, 0, 62, 64
2, 2100, Note_on_c, 0, 62, 0
2, 2100, Note_on_c, 0, 65, 64
2, 2160, Note_on_c, 0, 65, 0
2, 2160, Note_on_c, 0, 50, 0
2, 2160, Note_on_c, 0, 67, 64
2, 2220, Note_on_c, 0, 67, 0
2, 2220, Note_on_c, 0, 64, 64
2, 2280, Note_on_c, 0, 64, 0
2, 2280, Note_on_c, 0, 62, 64
2, 2280, Note_on_c, 0, 58, 64
2, 2340, Note_on_c, 0, 62, 0
2, 2340, Note_on_c, 0, 64, 64
2, 2359, Note_on_c, 0, 58, 0
2, 2400, Note_on_c, 0, 64, 0
2, 2400, Note_on_c, 0, 67, 64
2, 2400, Note_on_c, 0, 52, 64
2, 2460, Note_on_c, 0, 67, 0
2, 2460, Note_on_c, 0, 64, 64
2, 2467, Note_on_c, 0, 52, 0
2, 2520, Note_on_c, 0, 64, 0
2, 2520, Note_on_c, 0, 61, 64
2, 2520, Note_on_c, 0, 55, 64
2, 2580, Note_on_c, 0, 61, 0
2, 2580, Note_on_c, 0, 64, 64
2, 2599, Note_on_c, 0, 55, 0
2, 2640, Note_on_c, 0, 64, 0
2, 2640, Note_on_c, 0, 67, 64
2, 2640, Note_on_c, 0, 49, 64
2, 2700, Note_on_c, 0, 67, 0
2, 2700, Note_on_c, 0, 64, 64
2, 2723, Note_on_c, 0, 49, 0
2, 2760, Note_on_c, 0, 64, 0
2, 2760, Note_on_c, 0, 57, 64
2, 2760, Note_on_c, 0, 61, 64
2, 2820, Note_on_c, 0, 61, 0
2, 2820, Note_on_c, 0, 64, 64
2, 2843, Note_on_c, 0, 57, 0
2, 2880, Note_on_c, 0, 64, 0
2, 2880, Note_on_c, 0, 65, 64
2, 2880, Note_on_c, 0, 50, 64
2, 2940, Note_on_c, 0, 62, 64
2, 3000, Note_on_c, 0, 62, 0
2, 3000, Note_on_c, 0, 60, 64
2, 3060, Note_on_c, 0, 60, 0
2, 3060, Note_on_c, 0, 58, 64
2, 3120, Note_on_c, 0, 58, 0
2, 3120, Note_on_c, 0, 50, 0
2, 3120, Note_on_c, 0, 65, 0
2, 3120, Note_on_c, 0, 57, 64
2, 3180, Note_on_c, 0, 57, 0
2, 3180, Note_on_c, 0, 55, 64
2, 3240, Note_on_c, 0, 55, 0
2, 3240, Note_on_c, 0, 53, 64
2, 3300, Note_on_c, 0, 53, 0
2, 3300, Note_on_c, 0, 52, 64
2, 3360, Note_on_c, 0, 52, 0
2, 3360, Note_on_c, 0, 50, 64
2, 3420, Note_on_c, 0, 50, 0
2, 3420, Note_on_c, 0, 53, 64
2, 3480, Note_on_c, 0, 53, 0
2, 3480, Note_on_c, 0, 52, 64
2, 3540, Note_on_c, 0, 52, 0
2, 3540, Note_on_c, 0, 50, 64
2, 3600, Note_on_c, 0, 50, 0
2, 3600, Note_on_c, 0, 58, 64
2, 3660, Note_on_c, 0, 58, 0
2, 3660, Note_on_c, 0, 55, 64
2, 3720, Note_on_c, 0, 55, 0
2, 3720, Note_on_c, 0, 62, 64
2, 3720, Note_on_c, 0, 50, 64
2, 3780, Note_on_c, 0, 50, 0
2, 3780, Note_on_c, 0, 55, 64
2, 3819, Note_on_c, 0, 62, 0
2, 3840, Note_on_c, 0, 55, 0
2, 3840, Note_on_c, 0, 67, 64
2, 3840, Note_on_c, 0, 58, 64
2, 3900, Note_on_c, 0, 58, 0
2, 3900, Note_on_c, 0, 55, 64
2, 3935, Note_on_c, 0, 67, 0
2, 3960, Note_on_c, 0, 55, 0
2, 3960, Note_on_c, 0, 70, 64
2, 3960, Note_on_c, 0, 50, 64
2, 4020, Note_on_c, 0, 50, 0
2, 4020, Note_on_c, 0, 55, 64
2, 4047, Note_on_c, 0, 70, 0
2, 4080, Note_on_c, 0, 55, 0
2, 4080, Note_on_c, 0, 74, 64
2, 4080, Note_on_c, 0, 58, 64
2, 4104, Note_on_c, 0, 73, 64
2, 4110, Note_on_c, 0, 74, 0
2, 4124, Note_on_c, 0, 74, 64
2, 4134, Note_on_c, 0, 73, 0
2, 4140, Note_on_c, 0, 58, 0
2, 4140, Note_on_c, 0, 55, 64
2, 4200, Note_on_c, 0, 55, 0
2, 4200, Note_on_c, 0, 50, 64
2, 4260, Note_on_c, 0, 50, 0
2, 4260, Note_on_c, 0, 55, 64
2, 4304, Note_on_c, 0, 74, 0
2, 4320, Note_on_c, 0, 55, 0
2, 4320, Note_on_c, 0, 57, 64
2, 4380, Note_on_c, 0, 57, 0
2, 4380, Note_on_c, 0, 55, 64
2, 4440, Note_on_c, 0, 55, 0
2, 4440, Note_on_c, 0, 62, 64
2, 4440, Note_on_c, 0, 50, 64
2, 4500, Note_on_c, 0, 50, 0
2, 4500, Note_on_c, 0, 55, 64
2, 4527, Note_on_c, 0, 62, 0
2, 4560, Note_on_c, 0, 55, 0
2, 4560, Note_on_c, 0, 65, 64
2, 4560, Note_on_c, 0, 57, 64
2, 4620, Note_on_c, 0, 57, 0
2, 4620, Note_on_c, 0, 53, 64
2, 4643, Note_on_c, 0, 65, 0
2, 4680, Note_on_c, 0, 53, 0
2, 4680, Note_on_c, 0, 69, 64
2, 4680, Note_on_c, 0, 50, 64
2, 4740, Note_on_c, 0, 50, 0
2, 4740, Note_on_c, 0, 53, 64
2, 4759, Note_on_c, 0, 69, 0
2, 4800, Note_on_c, 0, 53, 0
2, 4800, Note_on_c, 0, 74, 64
2, 4800, Note_on_c, 0, 57, 64
2, 4824, Note_on_c, 0, 73, 64
2, 4830, Note_on_c, 0, 74, 0
2, 4844, Note_on_c, 0, 74, 64
2, 4854, Note_on_c, 0, 73, 0
2, 4860, Note_on_c, 0, 57, 0
2, 4860, Note_on_c, 0, 53, 64
2, 4920, Note_on_c, 0, 53, 0
2, 4920, Note_on_c, 0, 50, 64
2, 4980, Note_on_c, 0, 50, 0
2, 4980, Note_on_c, 0, 53, 64
2, 5024, Note_on_c, 0, 74, 0
2, 5040, Note_on_c, 0, 53, 0
2, 5040, Note_on_c, 0, 55, 64
2, 5100, Note_on_c, 0, 55, 0
2, 5100, Note_on_c, 0, 52, 64
2, 5160, Note_on_c, 0, 52, 0
2, 5160, Note_on_c, 0, 67, 64
2, 5160, Note_on_c, 0, 50, 64
2, 5220, Note_on_c, 0, 50, 0
2, 5220, Note_on_c, 0, 52, 64
2, 5255, Note_on_c, 0, 67, 0
2, 5280, Note_on_c, 0, 52, 0
2, 5280, Note_on_c, 0, 73, 64
2, 5280, Note_on_c, 0, 55, 64
2, 5340, Note_on_c, 0, 55, 0
2, 5340, Note_on_c, 0, 52, 64
2, 5359, Note_on_c, 0, 73, 0
2, 5400, Note_on_c, 0, 52, 0
2, 5400, Note_on_c, 0, 76, 64
2, 5400, Note_on_c, 0, 49, 64
2, 5460, Note_on_c, 0, 49, 0
2, 5460, Note_on_c, 0, 52, 64
2, 5483, Note_on_c, 0, 76, 0
2, 5520, Note_on_c, 0, 52, 0
2, 5520, Note_on_c, 0, 73, 64
2, 5520, Note_on_c, 0, 55, 64
2, 5580, Note_on_c, 0, 55, 0
2, 5580, Note_on_c, 0, 52, 64
2, 5611, Note_on_c, 0, 73, 0
2, 5640, Note_on_c, 0, 52, 0
2, 5640, Note_on_c, 0, 69, 64
2, 5640, Note_on_c, 0, 49, 64
2, 5700, Note_on_c, 0, 49, 0
2, 5700, Note_on_c, 0, 52, 64
2, 5719, Note_on_c, 0, 69, 0
2, 5760, Note_on_c, 0, 52, 0
2, 5760, Note_on_c, 0, 74, 64
2, 5760, Note_on_c, 0, 53, 64
2, 5820, Note_on_c, 0, 53, 0
2, 5820, Note_on_c, 0, 50, 64
2, 5880, Note_on_c, 0, 50, 0
2, 5880, Note_on_c, 0, 74, 0
2, 5880, Note_on_c, 0, 72, 64
2, 5880, Note_on_c, 0, 52, 64
2, 5940, Note_on_c, 0, 52, 0
2, 5940, Note_on_c, 0, 72, 0
2, 5940, Note_on_c, 0, 70, 64
2, 5940, Note_on_c, 0, 53, 64
2, 6000, Note_on_c, 0, 53, 0
2, 6000, Note_on_c, 0, 70, 0
2, 6000, Note_on_c, 0, 69, 64
2, 6000, Note_on_c, 0, 55, 64
2, 6060, Note_on_c, 0, 55, 0
2, 6060, Note_on_c, 0, 69, 0
2, 6060, Note_on_c, 0, 67, 64
2, 6060, Note_on_c, 0, 57, 64
2, 6120, Note_on_c, 0, 57, 0
2, 6120, Note_on_c, 0, 67, 0
2, 6120, Note_on_c, 0, 65, 64
2, 6120, Note_on_c, 0, 59, 64
2, 6180, Note_on_c, 0, 59, 0
2, 6180, Note_on_c, 0, 65, 0
2, 6180, Note_on_c, 0, 64, 64
2, 6180, Note_on_c, 0, 61, 64
2, 6240, Note_on_c, 0, 61, 0
2, 6240, Note_on_c, 0, 64, 0
2, 6240, Note_on_c, 0, 65, 64
2, 6240, Note_on_c, 0, 62, 64
2, 6300, Note_on_c, 0, 62, 0
2, 6300, Note_on_c, 0, 60, 64
2, 6331, Note_on_c, 0, 65, 0
2, 6360, Note_on_c, 0, 60, 0
2, 6360, Note_on_c, 0, 69, 64
2, 6360, Note_on_c, 0, 59, 64
2, 6420, Note_on_c, 0, 59, 0
2, 6420, Note_on_c, 0, 57, 64
2, 6480, Note_on_c, 0, 57, 0
2, 6480, Note_on_c, 0, 59, 64
2, 6540, Note_on_c, 0, 59, 0
2, 6540, Note_on_c, 0, 69, 0
2, 6540, Note_on_c, 0, 67, 64
2, 6540, Note_on_c, 0, 60, 64
2, 6600, Note_on_c, 0, 60, 0
2, 6600, Note_on_c, 0, 67, 0
2, 6600, Note_on_c, 0, 69, 64
2, 6600, Note_on_c, 0, 59, 64
2, 6660, Note_on_c, 0, 59, 0
2, 6660, Note_on_c, 0, 69, 0
2, 6660, Note_on_c, 0, 71, 64
2, 6660, Note_on_c, 0, 57, 64
2, 6720, Note_on_c, 0, 57, 0
2, 6720, Note_on_c, 0, 71, 0
2, 6720, Note_on_c, 0, 72, 64
2, 6720, Note_on_c, 0, 55, 64
2, 6780, Note_on_c, 0, 55, 0
2, 6780, Note_on_c, 0, 72, 0
2, 6780, Note_on_c, 0, 74, 64
2, 6780, Note_on_c, 0, 53, 64
2, 6840, Note_on_c, 0, 53, 0
2, 6840, Note_on_c, 0, 74, 0
2, 6840, Note_on_c, 0, 76, 64
2, 6840, Note_on_c, 0, 52, 64
2, 6900, Note_on_c, 0, 52, 0
2, 6900, Note_on_c, 0, 76, 0
2, 6900, Note_on_c, 0, 77, 64
2, 6900, Note_on_c, 0, 50, 64
2, 6960, Note_on_c, 0, 50, 0
2, 6960, Note_on_c, 0, 77, 0
2, 6960, Note_on_c, 0, 79, 64
2, 6960, Note_on_c, 0, 52, 64
2, 7020, Note_on_c, 0, 79, 0
2, 7020, Note_on_c, 0, 77, 64
2, 7051, Note_on_c, 0, 52, 0
2, 7080, Note_on_c, 0, 77, 0
2, 7080, Note_on_c, 0, 55, 64
2, 7080, Note_on_c, 0, 76, 64
2, 7140, Note_on_c, 0, 76, 0
2, 7140, Note_on_c, 0, 74, 64
2, 7159, Note_on_c, 0, 55, 0
2, 7200, Note_on_c, 0, 74, 0
2, 7200, Note_on_c, 0, 76, 64
2, 7200, Note_on_c, 0, 48, 64
2, 7260, Note_on_c, 0, 76, 0
2, 7260, Note_on_c, 0, 72, 64
2, 7320, Note_on_c, 0, 72, 0
2, 7320, Note_on_c, 0, 48, 0
2, 7320, Note_on_c, 0, 70, 64
2, 7320, Note_on_c, 0, 50, 64
2, 7380, Note_on_c, 0, 50, 0
2, 7380, Note_on_c, 0, 70, 0
2, 7380, Note_on_c, 0, 69, 64
2, 7380, Note_on_c, 0, 52, 64
2, 7440, Note_on_c, 0, 52, 0
2, 7440, Note_on_c, 0, 69, 0
2, 7440, Note_on_c, 0, 67, 64
2, 7440, Note_on_c, 0, 53, 64
2, 7500, Note_on_c, 0, 53, 0
2, 7500, Note_on_c, 0, 67, 0
2, 7500, Note_on_c, 0, 65, 64
2, 7500, Note_on_c, 0, 55, 64
2, 7560, Note_on_c, 0, 55, 0
2, 7560, Note_on_c, 0, 65, 0
2, 7560, Note_on_c, 0, 64, 64
2, 7560, Note_on_c, 0, 57, 64
2, 7620, Note_on_c, 0, 57, 0
2, 7620, Note_on_c, 0, 64, 0
2, 7620, Note_on_c, 0, 62, 64
2, 7620, Note_on_c, 0, 58, 64
2, 7680, Note_on_c, 0, 58, 0
2, 7680, Note_on_c, 0, 62, 0
2, 7680, Note_on_c, 0, 64, 64
2, 7680, Note_on_c, 0, 60, 64
2, 7740, Note_on_c, 0, 60, 0
2, 7740, Note_on_c, 0, 58, 64
2, 7759, Note_on_c, 0, 64, 0
2, 7800, Note_on_c, 0, 58, 0
2, 7800, Note_on_c, 0, 67, 64
2, 7800, Note_on_c, 0, 57, 64
2, 7860, Note_on_c, 0, 57, 0
2, 7860, Note_on_c, 0, 55, 64
2, 7920, Note_on_c, 0, 55, 0
2, 7920, Note_on_c, 0, 57, 64
2, 7980, Note_on_c, 0, 57, 0
2, 7980, Note_on_c, 0, 67, 0
2, 7980, Note_on_c, 0, 65, 64
2, 7980, Note_on_c, 0, 58, 64
2, 8040, Note_on_c, 0, 58, 0
2, 8040, Note_on_c, 0, 65, 0
2, 8040, Note_on_c, 0, 67, 64
2, 8040, Note_on_c, 0, 57, 64
2, 8100, Note_on_c, 0, 57, 0
2, 8100, Note_on_c, 0, 67, 0
2, 8100, Note_on_c, 0, 69, 64
2, 8100, Note_on_c, 0, 55, 64
2, 8160, Note_on_c, 0, 55, 0
2, 8160, Note_on_c, 0, 69, 0
2, 8160, Note_on_c, 0, 70, 64
2, 8160, Note_on_c, 0, 53, 64
2, 8220, Note_on_c, 0, 53, 0
2, 8220, Note_on_c, 0, 70, 0
2, 8220, Note_on_c, 0, 72, 64
2, 8220, Note_on_c, 0, 51, 64
2, 8280, Note_on_c, 0, 51, 0
2, 8280, Note_on_c, 0, 72, 0
2, 8280, Note_on_c, 0, 74, 64
2, 8280, Note_on_c, 0, 50, 64
2, 8340, Note_on_c, 0, 50, 0
2, 8340, Note_on_c, 0, 74, 0
2, 8340, Note_on_c, 0, 75, 64
2, 8340, Note_on_c, 0, 48, 64
2, 8400, Note_on_c, 0, 48, 0
2, 8400, Note_on_c, 0, 75, 0
2, 8400, Note_on_c, 0, 77, 64
2, 8400, Note_on_c, 0, 50, 64
2, 8460, Note_on_c, 0, 77, 0
2, 8460, Note_on_c, 0, 75, 64
2, 8495, Note_on_c, 0, 50, 0
2, 8520, Note_on_c, 0, 75, 0
2, 8520, Note_on_c, 0, 53, 64
2, 8520, Note_on_c, 0, 74, 64
2, 8580, Note_on_c, 0, 74, 0
2, 8580, Note_on_c, 0, 72, 64
2, 8599, Note_on_c, 0, 53, 0
2, 8640, Note_on_c, 0, 72, 0
2, 8640, Note_on_c, 0, 74, 64
2, 8640, Note_on_c, 0, 46, 64
2, 8700, Note_on_c, 0, 74, 0
2, 8700, Note_on_c, 0, 77, 64
2, 8723, Note_on_c, 0, 46, 0
2, 8760, Note_on_c, 0, 77, 0
2, 8760, Note_on_c, 0, 74, 64
2, 8760, Note_on_c, 0, 58, 64
2, 8820, Note_on_c, 0, 58, 0
2, 8820, Note_on_c, 0, 74, 0
2, 8820, Note_on_c, 0, 72, 64
2, 8820, Note_on_c, 0, 60, 64
2, 8880, Note_on_c, 0, 60, 0
2, 8880, Note_on_c, 0, 72, 0
2, 8880, Note_on_c, 0, 70, 64
2, 8880, Note_on_c, 0, 62, 64
2, 8940, Note_on_c, 0, 70, 0
2, 8940, Note_on_c, 0, 74, 64
2, 8947, Note_on_c, 0, 62, 0
2, 9000, Note_on_c, 0, 74, 0
2, 9000, Note_on_c, 0, 70, 64
2, 9000, Note_on_c, 0, 65, 64
2, 9060, Note_on_c, 0, 70, 0
2, 9060, Note_on_c, 0, 69, 64
2, 9071, Note_on_c, 0, 65, 0
2, 9120, Note_on_c, 0, 69, 0
2, 9120, Note_on_c, 0, 67, 64
2, 9120, Note_on_c, 0, 58, 64
2, 9180, Note_on_c, 0, 67, 0
2, 9180, Note_on_c, 0, 70, 64
2, 9191, Note_on_c, 0, 58, 0
2, 9240, Note_on_c, 0, 70, 0
2, 9240, Note_on_c, 0, 62, 64
2, 9240, Note_on_c, 0, 67, 64
2, 9300, Note_on_c, 0, 67, 0
2, 9300, Note_on_c, 0, 65, 64
2, 9323, Note_on_c, 0, 62, 0
2, 9360, Note_on_c, 0, 65, 0
2, 9360, Note_on_c, 0, 64, 64
2, 9360, Note_on_c, 0, 55, 64
2, 9420, Note_on_c, 0, 55, 0
2, 9420, Note_on_c, 0, 58, 64
2, 9443, Note_on_c, 0, 64, 0
2, 9480, Note_on_c, 0, 58, 0
2, 9480, Note_on_c, 0, 76, 64
2, 9480, Note_on_c, 0, 55, 64
2, 9540, Note_on_c, 0, 55, 0
2, 9540, Note_on_c, 0, 76, 0
2, 9540, Note_on_c, 0, 77, 64
2, 9540, Note_on_c, 0, 53, 64
2, 9600, Note_on_c, 0, 53, 0
2, 9600, Note_on_c, 0, 77, 0
2, 9600, Note_on_c, 0, 79, 64
2, 9600, Note_on_c, 0, 52, 64
2, 9660, Note_on_c, 0, 52, 0
2, 9660, Note_on_c, 0, 55, 64
2, 9679, Note_on_c, 0, 79, 0
2, 9720, Note_on_c, 0, 55, 0
2, 9720, Note_on_c, 0, 82, 64
2, 9720, Note_on_c, 0, 52, 64
2, 9780, Note_on_c, 0, 52, 0
2, 9780, Note_on_c, 0, 50, 64
2, 9807, Note_on_c, 0, 82, 0
2, 9840, Note_on_c, 0, 50, 0
2, 9840, Note_on_c, 0, 76, 64
2, 9840, Note_on_c, 0, 49, 64
2, 9900, Note_on_c, 0, 49, 0
2, 9900, Note_on_c, 0, 52, 64
2, 9927, Note_on_c, 0, 76, 0
2, 9960, Note_on_c, 0, 52, 0
2, 9960, Note_on_c, 0, 79, 64
2, 9960, Note_on_c, 0, 49, 64
2, 10020, Note_on_c, 0, 49, 0
2, 10020, Note_on_c, 0, 47, 64
2, 10047, Note_on_c, 0, 79, 0
2, 10080, Note_on_c, 0, 47, 0
2, 10080, Note_on_c, 0, 73, 64
2, 10080, Note_on_c, 0, 45, 64
2, 10140, Note_on_c, 0, 73, 0
2, 10140, Note_on_c, 0, 79, 64
2, 10200, Note_on_c, 0, 79, 0
2, 10200, Note_on_c, 0, 45, 0
2, 10200, Note_on_c, 0, 73, 64
2, 10200, Note_on_c, 0, 57, 64
2, 10260, Note_on_c, 0, 57, 0
2, 10260, Note_on_c, 0, 73, 0
2, 10260, Note_on_c, 0, 71, 64
2, 10260, Note_on_c, 0, 59, 64
2, 10320, Note_on_c, 0, 59, 0
2, 10320, Note_on_c, 0, 71, 0
2, 10320, Note_on_c, 0, 69, 64
2, 10320, Note_on_c, 0, 61, 64
2, 10380, Note_on_c, 0, 69, 0
2, 10380, Note_on_c, 0, 76, 64
2, 10403, Note_on_c, 0, 61, 0
2, 10440, Note_on_c, 0, 76, 0
2, 10440, Note_on_c, 0, 69, 64
2, 10440, Note_on_c, 0, 64, 64
2, 10500, Note_on_c, 0, 69, 0
2, 10500, Note_on_c, 0, 67, 64
2, 10519, Note_on_c, 0, 64, 0
2, 10560, Note_on_c, 0, 67, 0
2, 10560, Note_on_c, 0, 65, 64
2, 10560, Note_on_c, 0, 57, 64
2, 10620, Note_on_c, 0, 65, 0
2, 10620, Note_on_c, 0, 73, 64
2, 10651, Note_on_c, 0, 57, 0
2, 10680, Note_on_c, 0, 73, 0
2, 10680, Note_on_c, 0, 55, 64
2, 10680, Note_on_c, 0, 65, 64
2, 10740, Note_on_c, 0, 65, 0
2, 10740, Note_on_c, 0, 64, 64
2, 10783, Note_on_c, 0, 55, 0
2, 10800, Note_on_c, 0, 64, 0
2, 10800, Note_on_c, 0, 62, 64
2, 10800, Note_on_c, 0, 53, 64
2, 10860, Note_on_c, 0, 53, 0
2, 10860, Note_on_c, 0, 62, 64
2, 10920, Note_on_c, 0, 62, 0
2, 10920, Note_on_c, 0, 62, 0
2, 10920, Note_on_c, 0, 74, 64
2, 10920, Note_on_c, 0, 53, 64
2, 10980, Note_on_c, 0, 53, 0
2, 10980, Note_on_c, 0, 74, 0
2, 10980, Note_on_c, 0, 76, 64
2, 10980, Note_on_c, 0, 52, 64
2, 11040, Note_on_c, 0, 52, 0
2, 11040, Note_on_c, 0, 76, 0
2, 11040, Note_on_c, 0, 77, 64
2, 11040, Note_on_c, 0, 50, 64
2, 11100, Note_on_c, 0, 50, 0
2, 11100, Note_on_c, 0, 57, 64
2, 11127, Note_on_c, 0, 77, 0
2, 11160, Note_on_c, 0, 57, 0
2, 11160, Note_on_c, 0, 81, 64
2, 11160, Note_on_c, 0, 50, 64
2, 11220, Note_on_c, 0, 50, 0
2, 11220, Note_on_c, 0, 48, 64
2, 11247, Note_on_c, 0, 81, 0
2, 11280, Note_on_c, 0, 48, 0
2, 11280, Note_on_c, 0, 74, 64
2, 11280, Note_on_c, 0, 46, 64
2, 11340, Note_on_c, 0, 46, 0
2, 11340, Note_on_c, 0, 53, 64
2, 11367, Note_on_c, 0, 74, 0
2, 11400, Note_on_c, 0, 53, 0
2, 11400, Note_on_c, 0, 72, 64
2, 11400, Note_on_c, 0, 46, 64
2, 11460, Note_on_c, 0, 46, 0
2, 11460, Note_on_c, 0, 45, 64
2, 11507, Note_on_c, 0, 72, 0
2, 11520, Note_on_c, 0, 45, 0
2, 11520, Note_on_c, 0, 70, 64
2, 11520, Note_on_c, 0, 43, 64
2, 11580, Note_on_c, 0, 70, 0
2, 11580, Note_on_c, 0, 79, 64
2, 11640, Note_on_c, 0, 79, 0
2, 11640, Note_on_c, 0, 43, 0
2, 11640, Note_on_c, 0, 70, 64
2, 11640, Note_on_c, 0, 55, 64
2, 11700, Note_on_c, 0, 55, 0
2, 11700, Note_on_c, 0, 70, 0
2, 11700, Note_on_c, 0, 69, 64
2, 11700, Note_on_c, 0, 57, 64
2, 11760, Note_on_c, 0, 57, 0
2, 11760, Note_on_c, 0, 69, 0
2, 11760, Note_on_c, 0, 67, 64
2, 11760, Note_on_c, 0, 58, 64
2, 11820, Note_on_c, 0, 67, 0
2, 11820, Note_on_c, 0, 70, 64
2, 11843, Note_on_c, 0, 58, 0
2, 11880, Note_on_c, 0, 70, 0
2, 11880, Note_on_c, 0, 67, 64
2, 11880, Note_on_c, 0, 62, 64
2, 11940, Note_on_c, 0, 67, 0
2, 11940, Note_on_c, 0, 65, 64
2, 11963, Note_on_c, 0, 62, 0
2, 12000, Note_on_c, 0, 65, 0
2, 12000, Note_on_c, 0, 63, 64
2, 12000, Note_on_c, 0, 55, 64
2, 12060, Note_on_c, 0, 63, 0
2, 12060, Note_on_c, 0, 70, 64
2, 12099, Note_on_c, 0, 55, 0
2, 12120, Note_on_c, 0, 70, 0
2, 12120, Note_on_c, 0, 58, 64
2, 12120, Note_on_c, 0, 63, 64
2, 12180, Note_on_c, 0, 63, 0
2, 12180, Note_on_c, 0, 62, 64
2, 12211, Note_on_c, 0, 58, 0
2, 12240, Note_on_c, 0, 62, 0
2, 12240, Note_on_c, 0, 61, 64
2, 12240, Note_on_c, 0, 57, 64
2, 12300, Note_on_c, 0, 61, 0
2, 12300, Note_on_c, 0, 69, 64
2, 12347, Note_on_c, 0, 57, 0
2, 12360, Note_on_c, 0, 69, 0
2, 12360, Note_on_c, 0, 61, 64
2, 12360, Note_on_c, 0, 64, 64
2, 12420, Note_on_c, 0, 61, 0
2, 12420, Note_on_c, 0, 59, 64
2, 12480, Note_on_c, 0, 59, 0
2, 12480, Note_on_c, 0, 64, 0
2, 12480, Note_on_c, 0, 61, 64
2, 12480, Note_on_c, 0, 57, 64
2, 12540, Note_on_c, 0, 61, 0
2, 12540, Note_on_c, 0, 69, 64
2, 12600, Note_on_c, 0, 69, 0
2, 12600, Note_on_c, 0, 57, 0
2, 12600, Note_on_c, 0, 61, 64
2, 12600, Note_on_c, 0, 64, 64
2, 12660, Note_on_c, 0, 61, 0
2, 12660, Note_on_c, 0, 69, 64
2, 12720, Note_on_c, 0, 69, 0
2, 12720, Note_on_c, 0, 64, 0
2, 12720, Note_on_c, 0, 61, 64
2, 12720, Note_on_c, 0, 57, 64
2, 12780, Note_on_c, 0, 61, 0
2, 12780, Note_on_c, 0, 69, 64
2, 12840, Note_on_c, 0, 69, 0
2, 12840, Note_on_c, 0, 57, 0
2, 12840, Note_on_c, 0, 64, 64
2, 12840, Note_on_c, 0, 61, 64
2, 12900, Note_on_c, 0, 61, 0
2, 12900, Note_on_c, 0, 69, 64
2, 12960, Note_on_c, 0, 69, 0
2, 12960, Note_on_c, 0, 64, 0
2, 12960, Note_on_c, 0, 61, 64
2, 12960, Note_on_c, 0, 55, 64
2, 13020, Note_on_c, 0, 61, 0
2, 13020, Note_on_c, 0, 69, 64
2, 13080, Note_on_c, 0, 69, 0
2, 13080, Note_on_c, 0, 55, 0
2, 13080, Note_on_c, 0, 61, 64
2, 13080, Note_on_c, 0, 64, 64
2, 13140, Note_on_c, 0, 61, 0
2, 13140, Note_on_c, 0, 59, 64
2, 13200, Note_on_c, 0, 59, 0
2, 13200, Note_on_c, 0, 64, 0
2, 13200, Note_on_c, 0, 61, 64
2, 13200, Note_on_c, 0, 55, 64
2, 13260, Note_on_c, 0, 61, 0
2, 13260, Note_on_c, 0, 69, 64
2, 13320, Note_on_c, 0, 69, 0
2, 13320, Note_on_c, 0, 55, 0
2, 13320, Note_on_c, 0, 61, 64
2, 13320, Note_on_c, 0, 64, 64
2, 13380, Note_on_c, 0, 61, 0
2, 13380, Note_on_c, 0, 69, 64
2, 13440, Note_on_c, 0, 69, 0
2, 13440, Note_on_c, 0, 64, 0
2, 13440, Note_on_c, 0, 61, 64
2, 13440, Note_on_c, 0, 55, 64
2, 13500, Note_on_c, 0, 61, 0
2, 13500, Note_on_c, 0, 69, 64
2, 13560, Note_on_c, 0, 69, 0
2, 13560, Note_on_c, 0, 55, 0
2, 13560, Note_on_c, 0, 64, 64
2, 13560, Note_on_c, 0, 61, 64
2, 13620, Note_on_c, 0, 61, 0
2, 13620, Note_on_c, 0, 69, 64
2, 13680, Note_on_c, 0, 69, 0
2, 13680, Note_on_c, 0, 64, 0
2, 13680, Note_on_c, 0, 62, 64
2, 13680, Note_on_c, 0, 53, 64
2, 13740, Note_on_c, 0, 62, 0
2, 13740, Note_on_c, 0, 69, 64
2, 13800, Note_on_c, 0, 69, 0
2, 13800, Note_on_c, 0, 53, 0
2, 13800, Note_on_c, 0, 62, 64
2, 13800, Note_on_c, 0, 65, 64
2, 13860, Note_on_c, 0, 62, 0
2, 13860, Note_on_c, 0, 61, 64
2, 13920, Note_on_c, 0, 61, 0
2, 13920, Note_on_c, 0, 65, 0
2, 13920, Note_on_c, 0, 62, 64
2, 13920, Note_on_c, 0, 53, 64
2, 13980, Note_on_c, 0, 62, 0
2, 13980, Note_on_c, 0, 69, 64
2, 14040, Note_on_c, 0, 69, 0
2, 14040, Note_on_c, 0, 53, 0
2, 14040, Note_on_c, 0, 62, 64
2, 14040, Note_on_c, 0, 65, 64
2, 14100, Note_on_c, 0, 62, 0
2, 14100, Note_on_c, 0, 69, 64
2, 14160, Note_on_c, 0, 69, 0
2, 14160, Note_on_c, 0, 65, 0
2, 14160, Note_on_c, 0, 62, 64
2, 14160, Note_on_c, 0, 53, 64
2, 14220, Note_on_c, 0, 62, 0
2, 14220, Note_on_c, 0, 69, 64
2, 14280, Note_on_c, 0, 69, 0
2, 14280, Note_on_c, 0, 53, 0
2, 14280, Note_on_c, 0, 65, 64
2, 14280, Note_on_c, 0, 62, 64
2, 14340, Note_on_c, 0, 62, 0
2, 14340, Note_on_c, 0, 69, 64
2, 14400, Note_on_c, 0, 69, 0
2, 14400, Note_on_c, 0, 65, 0
2, 14400, Note_on_c, 0, 64, 64
2, 14400, Note_on_c, 0, 61, 64
2, 14460, Note_on_c, 0, 64, 0
2, 14460, Note_on_c, 0, 69, 64
2, 14520, Note_on_c, 0, 69, 0
2, 14520, Note_on_c, 0, 61, 0
2, 14520, Note_on_c, 0, 64, 64
2, 14520, Note_on_c, 0, 67, 64
2, 14580, Note_on_c, 0, 64, 0
2, 14580, Note_on_c, 0, 62, 64
2, 14640, Note_on_c, 0, 62, 0
2, 14640, Note_on_c, 0, 67, 0
2, 14640, Note_on_c, 0, 64, 64
2, 14640, Note_on_c, 0, 61, 64
2, 14700, Note_on_c, 0, 64, 0
2, 14700, Note_on_c, 0, 69, 64
2, 14760, Note_on_c, 0, 69, 0
2, 14760, Note_on_c, 0, 61, 0
2, 14760, Note_on_c, 0, 64, 64
2, 14760, Note_on_c, 0, 67, 64
2, 14820, Note_on_c, 0, 64, 0
2, 14820, Note_on_c, 0, 69, 64
2, 14880, Note_on_c, 0, 69, 0
2, 14880, Note_on_c, 0, 67, 0
2, 14880, Note_on_c, 0, 64, 64
2, 14880, Note_on_c, 0, 61, 64
2, 14940, Note_on_c, 0, 64, 0
2, 14940, Note_on_c, 0, 69, 64
2, 15000, Note_on_c, 0, 69, 0
2, 15000, Note_on_c, 0, 61, 0
2, 15000, Note_on_c, 0, 67, 64
2, 15000, Note_on_c, 0, 64, 64
2, 15060, Note_on_c, 0, 64, 0
2, 15060, Note_on_c, 0, 69, 64
2, 15120, Note_on_c, 0, 69, 0
2, 15120, Note_on_c, 0, 67, 0
2, 15120, Note_on_c, 0, 65, 64
2, 15120, Note_on_c, 0, 62, 64
2, 15152, Note_on_c, 0, 69, 64
2, 15171, Note_on_c, 0, 65, 0
2, 15180, Note_on_c, 0, 71, 64
2, 15191, Note_on_c, 0, 69, 0
2, 15210, Note_on_c, 0, 73, 64
2, 15219, Note_on_c, 0, 71, 0
2, 15240, Note_on_c, 0, 62, 0
2, 15240, Note_on_c, 0, 74, 64
2, 15240, Note_on_c, 0, 65, 64
2, 15253, Note_on_c, 0, 73, 0
2, 15300, Note_on_c, 0, 74, 0
2, 15300, Note_on_c, 0, 69, 64
2, 15360, Note_on_c, 0, 69, 0
2, 15360, Note_on_c, 0, 65, 64
2, 15360, Note_on_c, 0, 62, 64
2, 15361, Note_on_c, 0, 65, 0
2, 15420, Note_on_c, 0, 65, 0
2, 15420, Note_on_c, 0, 69, 64
2, 15480, Note_on_c, 0, 69, 0
2, 15480, Note_on_c, 0, 62, 0
2, 15480, Note_on_c, 0, 74, 64
2, 15480, Note_on_c, 0, 65, 64
2, 15540, Note_on_c, 0, 74, 0
2, 15540, Note_on_c, 0, 69, 64
2, 15600, Note_on_c, 0, 69, 0
2, 15600, Note_on_c, 0, 65, 0
2, 15600, Note_on_c, 0, 65, 64
2, 15600, Note_on_c, 0, 62, 64
2, 15660, Note_on_c, 0, 65, 0
2, 15660, Note_on_c, 0, 69, 64
2, 15720, Note_on_c, 0, 69, 0
2, 15720, Note_on_c, 0, 62, 0
2, 15720, Note_on_c, 0, 65, 64
2, 15720, Note_on_c, 0, 74, 64
2, 15780, Note_on_c, 0, 74, 0
2, 15780, Note_on_c, 0, 69, 64
2, 15840, Note_on_c, 0, 69, 0
2, 15840, Note_on_c, 0, 65, 0
2, 15840, Note_on_c, 0, 66, 64
2, 15840, Note_on_c, 0, 60, 64
2, 15900, Note_on_c, 0, 66, 0
2, 15900, Note_on_c, 0, 74, 64
2, 15960, Note_on_c, 0, 74, 0
2, 15960, Note_on_c, 0, 60, 0
2, 15960, Note_on_c, 0, 66, 64
2, 15960, Note_on_c, 0, 69, 64
2, 16020, Note_on_c, 0, 66, 0
2, 16020, Note_on_c, 0, 64, 64
2, 16080, Note_on_c, 0, 64, 0
2, 16080, Note_on_c, 0, 69, 0
2, 16080, Note_on_c, 0, 66, 64
2, 16080, Note_on_c, 0, 60, 64
2, 16140, Note_on_c, 0, 66, 0
2, 16140, Note_on_c, 0, 74, 64
2, 16200, Note_on_c, 0, 74, 0
2, 16200, Note_on_c, 0, 60, 0
2, 16200, Note_on_c, 0, 66, 64
2, 16200, Note_on_c, 0, 69, 64
2, 16260, Note_on_c, 0, 66, 0
2, 16260, Note_on_c, 0, 74, 64
2, 16320, Note_on_c, 0, 74, 0
2, 16320, Note_on_c, 0, 69, 0
2, 16320, Note_on_c, 0, 66, 64
2, 16320, Note_on_c, 0, 60, 64
2, 16380, Note_on_c, 0, 66, 0
2, 16380, Note_on_c, 0, 74, 64
2, 16440, Note_on_c, 0, 74, 0
2, 16440, Note_on_c, 0, 60, 0
2, 16440, Note_on_c, 0, 69, 64
2, 16440, Note_on_c, 0, 66, 64
2, 16500, Note_on_c, 0, 66, 0
2, 16500, Note_on_c, 0, 74, 64
2, 16560, Note_on_c, 0, 74, 0
2, 16560, Note_on_c, 0, 69, 0
2, 16560, Note_on_c, 0, 67, 64
2, 16560, Note_on_c, 0, 59, 64
2, 16596, Note_on_c, 0, 69, 64
2, 16619, Note_on_c, 0, 67, 0
2, 16620, Note_on_c, 0, 71, 64
2, 16643, Note_on_c, 0, 69, 0
2, 16650, Note_on_c, 0, 72, 64
2, 16667, Note_on_c, 0, 71, 0
2, 16680, Note_on_c, 0, 59, 0
2, 16680, Note_on_c, 0, 74, 64
2, 16680, Note_on_c, 0, 67, 64
2, 16689, Note_on_c, 0, 72, 0
2, 16740, Note_on_c, 0, 74, 0
2, 16740, Note_on_c, 0, 71, 64
2, 16800, Note_on_c, 0, 71, 0
2, 16800, Note_on_c, 0, 67, 64
2, 16800, Note_on_c, 0, 59, 64
2, 16801, Note_on_c, 0, 67, 0
2, 16860, Note_on_c, 0, 67, 0
2, 16860, Note_on_c, 0, 71, 64
2, 16920, Note_on_c, 0, 71, 0
2, 16920, Note_on_c, 0, 59, 0
2, 16920, Note_on_c, 0, 74, 64
2, 16920, Note_on_c, 0, 67, 64
2, 16980, Note_on_c, 0, 74, 0
2, 16980, Note_on_c, 0, 71, 64
2, 17040, Note_on_c, 0, 71, 0
2, 17040, Note_on_c, 0, 67, 0
2, 17040, Note_on_c, 0, 67, 64
2, 17040, Note_on_c, 0, 59, 64
2, 17100, Note_on_c, 0, 67, 0
2, 17100, Note_on_c, 0, 71, 64
2, 17160, Note_on_c, 0, 71, 0
2, 17160, Note_on_c, 0, 59, 0
2, 17160, Note_on_c, 0, 67, 64
2, 17160, Note_on_c, 0, 74, 64
2, 17220, Note_on_c, 0, 74, 0
2, 17220, Note_on_c, 0, 71, 64
2, 17280, Note_on_c, 0, 71, 0
2, 17280, Note_on_c, 0, 67, 0
2, 17280, Note_on_c, 0, 68, 64
2, 17280, Note_on_c, 0, 64, 64
2, 17340, Note_on_c, 0, 68, 0
2, 17340, Note_on_c, 0, 74, 64
2, 17400, Note_on_c, 0, 74, 0
2, 17400, Note_on_c, 0, 64, 0
2, 17400, Note_on_c, 0, 68, 64
2, 17400, Note_on_c, 0, 71, 64
2, 17460, Note_on_c, 0, 68, 0
2, 17460, Note_on_c, 0, 66, 64
2, 17520, Note_on_c, 0, 66, 0
2, 17520, Note_on_c, 0, 71, 0
2, 17520, Note_on_c, 0, 68, 64
2, 17520, Note_on_c, 0, 64, 64
2, 17580, Note_on_c, 0, 68, 0
2, 17580, Note_on_c, 0, 74, 64
2, 17640, Note_on_c, 0, 74, 0
2, 17640, Note_on_c, 0, 64, 0
2, 17640, Note_on_c, 0, 68, 64
2, 17640, Note_on_c, 0, 71, 64
2, 17700, Note_on_c, 0, 68, 0
2, 17700, Note_on_c, 0, 74, 64
2, 17760, Note_on_c, 0, 74, 0
2, 17760, Note_on_c, 0, 71, 0
2, 17760, Note_on_c, 0, 68, 64
2, 17760, Note_on_c, 0, 64, 64
2, 17820, Note_on_c, 0, 68, 0
2, 17820, Note_on_c, 0, 74, 64
2, 17880, Note_on_c, 0, 74, 0
2, 17880, Note_on_c, 0, 64, 0
2, 17880, Note_on_c, 0, 71, 64
2, 17880, Note_on_c, 0, 68, 64
2, 17940, Note_on_c, 0, 68, 0
2, 17940, Note_on_c, 0, 74, 64
2, 18000, Note_on_c, 0, 74, 0
2, 18000, Note_on_c, 0, 71, 0
2, 18000, Note_on_c, 0, 72, 64
2, 18000, Note_on_c, 0, 57, 64
2, 18060, Note_on_c, 0, 69, 64
2, 18120, Note_on_c, 0, 69, 0
2, 18120, Note_on_c, 0, 67, 64
2, 18180, Note_on_c, 0, 67, 0
2, 18180, Note_on_c, 0, 65, 64
2, 18240, Note_on_c, 0, 65, 0
2, 18240, Note_on_c, 0, 57, 0
2, 18240, Note_on_c, 0, 72, 0
2, 18240, Note_on_c, 0, 64, 64
2, 18300, Note_on_c, 0, 64, 0
2, 18300, Note_on_c, 0, 62, 64
2, 18360, Note_on_c, 0, 62, 0
2, 18360, Note_on_c, 0, 60, 64
2, 18420, Note_on_c, 0, 60, 0
2, 18420, Note_on_c, 0, 59, 64
2, 18480, Note_on_c, 0, 59, 0
2, 18480, Note_on_c, 0, 57, 64
2, 18540, Note_on_c, 0, 57, 0
2, 18540, Note_on_c, 0, 60, 64
2, 18600, Note_on_c, 0, 60, 0
2, 18600, Note_on_c, 0, 59, 64
2, 18660, Note_on_c, 0, 59, 0
2, 18660, Note_on_c, 0, 57, 64
2, 18720, Note_on_c, 0, 57, 0
2, 18720, Note_on_c, 0, 65, 64
2, 18780, Note_on_c, 0, 65, 0
2, 18780, Note_on_c, 0, 62, 64
2, 18840, Note_on_c, 0, 62, 0
2, 18840, Note_on_c, 0, 69, 64
2, 18840, Note_on_c, 0, 57, 64
2, 18900, Note_on_c, 0, 57, 0
2, 18900, Note_on_c, 0, 62, 64
2, 18935, Note_on_c, 0, 69, 0
2, 18960, Note_on_c, 0, 62, 0
2, 18960, Note_on_c, 0, 74, 64
2, 18960, Note_on_c, 0, 65, 64
2, 19020, Note_on_c, 0, 65, 0
2, 19020, Note_on_c, 0, 62, 64
2, 19047, Note_on_c, 0, 74, 0
2, 19080, Note_on_c, 0, 62, 0
2, 19080, Note_on_c, 0, 77, 64
2, 19080, Note_on_c, 0, 57, 64
2, 19140, Note_on_c, 0, 57, 0
2, 19140, Note_on_c, 0, 62, 64
2, 19171, Note_on_c, 0, 77, 0
2, 19200, Note_on_c, 0, 62, 0
2, 19200, Note_on_c, 0, 81, 64
2, 19200, Note_on_c, 0, 65, 64
2, 19230, Note_on_c, 0, 81, 0
2, 19232, Note_on_c, 0, 80, 64
2, 19260, Note_on_c, 0, 65, 0
2, 19260, Note_on_c, 0, 81, 64
2, 19260, Note_on_c, 0, 62, 64
2, 19262, Note_on_c, 0, 80, 0
2, 19320, Note_on_c, 0, 62, 0
2, 19320, Note_on_c, 0, 57, 64
2, 19380, Note_on_c, 0, 57, 0
2, 19380, Note_on_c, 0, 62, 64
2, 19440, Note_on_c, 0, 62, 0
2, 19440, Note_on_c, 0, 81, 0
2, 19440, Note_on_c, 0, 64, 64
2, 19500, Note_on_c, 0, 64, 0
2, 19500, Note_on_c, 0, 62, 64
2, 19560, Note_on_c, 0, 62, 0
2, 19560, Note_on_c, 0, 69, 64
2, 19560, Note_on_c, 0, 57, 64
2, 19620, Note_on_c, 0, 57, 0
2, 19620, Note_on_c, 0, 62, 64
2, 19651, Note_on_c, 0, 69, 0
2, 19680, Note_on_c, 0, 62, 0
2, 19680, Note_on_c, 0, 72, 64
2, 19680, Note_on_c, 0, 64, 64
2, 19740, Note_on_c, 0, 64, 0
2, 19740, Note_on_c, 0, 60, 64
2, 19771, Note_on_c, 0, 72, 0
2, 19800, Note_on_c, 0, 60, 0
2, 19800, Note_on_c, 0, 76, 64
2, 19800, Note_on_c, 0, 57, 64
2, 19860, Note_on_c, 0, 57, 0
2, 19860, Note_on_c, 0, 60, 64
2, 19895, Note_on_c, 0, 76, 0
2, 19920, Note_on_c, 0, 60, 0
2, 19920, Note_on_c, 0, 81, 64
2, 19920, Note_on_c, 0, 64, 64
2, 19950, Note_on_c, 0, 81, 0
2, 19952, Note_on_c, 0, 80, 64
2, 19980, Note_on_c, 0, 64, 0
2, 19980, Note_on_c, 0, 81, 64
2, 19980, Note_on_c, 0, 60, 64
2, 19982, Note_on_c, 0, 80, 0
2, 20040, Note_on_c, 0, 60, 0
2, 20040, Note_on_c, 0, 57, 64
2, 20100, Note_on_c, 0, 57, 0
2, 20100, Note_on_c, 0, 60, 64
2, 20160, Note_on_c, 0, 60, 0
2, 20160, Note_on_c, 0, 81, 0
2, 20160, Note_on_c, 0, 62, 64
2, 20220, Note_on_c, 0, 62, 0
2, 20220, Note_on_c, 0, 59, 64
2, 20280, Note_on_c, 0, 59, 0
2, 20280, Note_on_c, 0, 74, 64
2, 20280, Note_on_c, 0, 57, 64
2, 20340, Note_on_c, 0, 57, 0
2, 20340, Note_on_c, 0, 59, 64
2, 20363, Note_on_c, 0, 74, 0
2, 20400, Note_on_c, 0, 59, 0
2, 20400, Note_on_c, 0, 80, 64
2, 20400, Note_on_c, 0, 62, 64
2, 20460, Note_on_c, 0, 62, 0
2, 20460, Note_on_c, 0, 59, 64
2, 20483, Note_on_c, 0, 80, 0
2, 20520, Note_on_c, 0, 59, 0
2, 20520, Note_on_c, 0, 83, 64
2, 20520, Note_on_c, 0, 56, 64
2, 20580, Note_on_c, 0, 56, 0
2, 20580, Note_on_c, 0, 59, 64
2, 20603, Note_on_c, 0, 83, 0
2, 20640, Note_on_c, 0, 59, 0
2, 20640, Note_on_c, 0, 80, 64
2, 20640, Note_on_c, 0, 62, 64
2, 20700, Note_on_c, 0, 62, 0
2, 20700, Note_on_c, 0, 59, 64
2, 20731, Note_on_c, 0, 80, 0
2, 20760, Note_on_c, 0, 59, 0
2, 20760, Note_on_c, 0, 76, 64
2, 20760, Note_on_c, 0, 56, 64
2, 20820, Note_on_c, 0, 56, 0
2, 20820, Note_on_c, 0, 59, 64
2, 20851, Note_on_c, 0, 76, 0
2, 20880, Note_on_c, 0, 59, 0
2, 20880, Note_on_c, 0, 81, 64
2, 20880, Note_on_c, 0, 60, 64
2, 20955, Note_on_c, 0, 60, 0
2, 21000, Note_on_c, 0, 81, 0
2, 21000, Note_on_c, 0, 79, 64
2, 21000, Note_on_c, 0, 45, 64
2, 21060, Note_on_c, 0, 79, 0
2, 21060, Note_on_c, 0, 77, 64
2, 21083, Note_on_c, 0, 45, 0
2, 21120, Note_on_c, 0, 77, 0
2, 21120, Note_on_c, 0, 76, 64
2, 21120, Note_on_c, 0, 48, 64
2, 21180, Note_on_c, 0, 76, 0
2, 21180, Note_on_c, 0, 74, 64
2, 21199, Note_on_c, 0, 48, 0
2, 21240, Note_on_c, 0, 74, 0
2, 21240, Note_on_c, 0, 72, 64
2, 21240, Note_on_c, 0, 52, 64
2, 21300, Note_on_c, 0, 72, 0
2, 21300, Note_on_c, 0, 71, 64
2, 21323, Note_on_c, 0, 52, 0
2, 21360, Note_on_c, 0, 71, 0
2, 21360, Note_on_c, 0, 69, 64
2, 21360, Note_on_c, 0, 57, 64
2, 21420, Note_on_c, 0, 69, 0
2, 21420, Note_on_c, 0, 72, 64
2, 21435, Note_on_c, 0, 57, 0
2, 21480, Note_on_c, 0, 72, 0
2, 21480, Note_on_c, 0, 60, 64
2, 21480, Note_on_c, 0, 71, 64
2, 21540, Note_on_c, 0, 71, 0
2, 21540, Note_on_c, 0, 69, 64
2, 21600, Note_on_c, 0, 69, 0
2, 21600, Note_on_c, 0, 60, 0
2, 21600, Note_on_c, 0, 77, 64
2, 21600, Note_on_c, 0, 62, 64
2, 21660, Note_on_c, 0, 77, 0
2, 21660, Note_on_c, 0, 74, 64
2, 21720, Note_on_c, 0, 74, 0
2, 21720, Note_on_c, 0, 62, 0
2, 21720, Note_on_c, 0, 69, 64
2, 21720, Note_on_c, 0, 65, 64
2, 21780, Note_on_c, 0, 69, 0
2, 21780, Note_on_c, 0, 74, 64
2, 21840, Note_on_c, 0, 74, 0
2, 21840, Note_on_c, 0, 65, 0
2, 21840, Note_on_c, 0, 77, 64
2, 21840, Note_on_c, 0, 57, 64
2, 21900, Note_on_c, 0, 77, 0
2, 21900, Note_on_c, 0, 74, 64
2, 21960, Note_on_c, 0, 74, 0
2, 21960, Note_on_c, 0, 57, 0
2, 21960, Note_on_c, 0, 69, 64
2, 21960, Note_on_c, 0, 62, 64
2, 22020, Note_on_c, 0, 69, 0
2, 22020, Note_on_c, 0, 74, 64
2, 22080, Note_on_c, 0, 74, 0
2, 22080, Note_on_c, 0, 62, 0
2, 22080, Note_on_c, 0, 77, 64
2, 22080, Note_on_c, 0, 50, 64
2, 22140, Note_on_c, 0, 77, 0
2, 22140, Note_on_c, 0, 74, 64
2, 22200, Note_on_c, 0, 74, 0
2, 22200, Note_on_c, 0, 50, 0
2, 22200, Note_on_c, 0, 59, 64
2, 22200, Note_on_c, 0, 69, 64
2, 22260, Note_on_c, 0, 69, 0
2, 22260, Note_on_c, 0, 74, 64
2, 22320, Note_on_c, 0, 74, 0
2, 22320, Note_on_c, 0, 59, 0
2, 22320, Note_on_c, 0, 76, 64
2, 22320, Note_on_c, 0, 60, 64
2, 22380, Note_on_c, 0, 76, 0
2, 22380, Note_on_c, 0, 74, 64
2, 22440, Note_on_c, 0, 74, 0
2, 22440, Note_on_c, 0, 60, 0
2, 22440, Note_on_c, 0, 69, 64
2, 22440, Note_on_c, 0, 64, 64
2, 22500, Note_on_c, 0, 69, 0
2, 22500, Note_on_c, 0, 74, 64
2, 22523, Note_on_c, 0, 64, 0
2, 22560, Note_on_c, 0, 74, 0
2, 22560, Note_on_c, 0, 76, 64
2, 22560, Note_on_c, 0, 57, 64
2, 22620, Note_on_c, 0, 76, 0
2, 22620, Note_on_c, 0, 72, 64
2, 22680, Note_on_c, 0, 72, 0
2, 22680, Note_on_c, 0, 57, 0
2, 22680, Note_on_c, 0, 69, 64
2, 22680, Note_on_c, 0, 60, 64
2, 22740, Note_on_c, 0, 69, 0
2, 22740, Note_on_c, 0, 72, 64
2, 22800, Note_on_c, 0, 72, 0
2, 22800, Note_on_c, 0, 60, 0
2, 22800, Note_on_c, 0, 76, 64
2, 22800, Note_on_c, 0, 48, 64
2, 22860, Note_on_c, 0, 76, 0
2, 22860, Note_on_c, 0, 72, 64
2, 22920, Note_on_c, 0, 72, 0
2, 22920, Note_on_c, 0, 48, 0
2, 22920, Note_on_c, 0, 57, 64
2, 22920, Note_on_c, 0, 69, 64
2, 22980, Note_on_c, 0, 69, 0
2, 22980, Note_on_c, 0, 72, 64
2, 23040, Note_on_c, 0, 72, 0
2, 23040, Note_on_c, 0, 57, 0
2, 23040, Note_on_c, 0, 74, 64
2, 23040, Note_on_c, 0, 59, 64
2, 23100, Note_on_c, 0, 74, 0
2, 23100, Note_on_c, 0, 71, 64
2, 23160, Note_on_c, 0, 71, 0
2, 23160, Note_on_c, 0, 59, 0
2, 23160, Note_on_c, 0, 69, 64
2, 23160, Note_on_c, 0, 62, 64
2, 23220, Note_on_c, 0, 69, 0
2, 23220, Note_on_c, 0, 71, 64
2, 23280, Note_on_c, 0, 71, 0
2, 23280, Note_on_c, 0, 62, 0
2, 23280, Note_on_c, 0, 74, 64
2, 23280, Note_on_c, 0, 56, 64
2, 23340, Note_on_c, 0, 74, 0
2, 23340, Note_on_c, 0, 71, 64
2, 23400, Note_on_c, 0, 71, 0
2, 23400, Note_on_c, 0, 56, 0
2, 23400, Note_on_c, 0, 68, 64
2, 23400, Note_on_c, 0, 59, 64
2, 23460, Note_on_c, 0, 68, 0
2, 23460, Note_on_c, 0, 71, 64
2, 23520, Note_on_c, 0, 71, 0
2, 23520, Note_on_c, 0, 59, 0
2, 23520, Note_on_c, 0, 74, 64
2, 23520, Note_on_c, 0, 64, 64
2, 23580, Note_on_c, 0, 74, 0
2, 23580, Note_on_c, 0, 71, 64
2, 23640, Note_on_c, 0, 71, 0
2, 23640, Note_on_c, 0, 64, 0
2, 23640, Note_on_c, 0, 52, 64
2, 23640, Note_on_c, 0, 68, 64
2, 23700, Note_on_c, 0, 68, 0
2, 23700, Note_on_c, 0, 71, 64
2, 23760, Note_on_c, 0, 71, 0
2, 23760, Note_on_c, 0, 52, 0
2, 23760, Note_on_c, 0, 72, 64
2, 23760, Note_on_c, 0, 57, 64
2, 23820, Note_on_c, 0, 57, 0
2, 23820, Note_on_c, 0, 69, 64
2, 23880, Note_on_c, 0, 69, 0
2, 23880, Note_on_c, 0, 67, 64
2, 23940, Note_on_c, 0, 67, 0
2, 23940, Note_on_c, 0, 65, 64
2, 24000, Note_on_c, 0, 65, 0
2, 24000, Note_on_c, 0, 64, 64
2, 24060, Note_on_c, 0, 64, 0
2, 24060, Note_on_c, 0, 62, 64
2, 24120, Note_on_c, 0, 62, 0
2, 24120, Note_on_c, 0, 60, 64
2, 24180, Note_on_c, 0, 60, 0
2, 24180, Note_on_c, 0, 59, 64
2, 24240, Note_on_c, 0, 59, 0
2, 24240, Note_on_c, 0, 57, 64
2, 24300, Note_on_c, 0, 57, 0
2, 24300, Note_on_c, 0, 60, 64
2, 24360, Note_on_c, 0, 60, 0
2, 24360, Note_on_c, 0, 52, 64
2, 24420, Note_on_c, 0, 52, 0
2, 24420, Note_on_c, 0, 55, 64
2, 24480, Note_on_c, 0, 55, 0
2, 24480, Note_on_c, 0, 54, 64
2, 24540, Note_on_c, 0, 72, 0
2, 24540, Note_on_c, 0, 75, 64
2, 24600, Note_on_c, 0, 75, 0
2, 24600, Note_on_c, 0, 54, 0
2, 24600, Note_on_c, 0, 74, 64
2, 24600, Note_on_c, 0, 69, 64
2, 24660, Note_on_c, 0, 74, 0
2, 24660, Note_on_c, 0, 72, 64
2, 24720, Note_on_c, 0, 72, 0
2, 24720, Note_on_c, 0, 69, 0
2, 24720, Note_on_c, 0, 78, 64
2, 24720, Note_on_c, 0, 72, 64
2, 24780, Note_on_c, 0, 78, 0
2, 24780, Note_on_c, 0, 75, 64
2, 24840, Note_on_c, 0, 75, 0
2, 24840, Note_on_c, 0, 72, 0
2, 24840, Note_on_c, 0, 74, 64
2, 24840, Note_on_c, 0, 69, 64
2, 24900, Note_on_c, 0, 74, 0
2, 24900, Note_on_c, 0, 72, 64
2, 24960, Note_on_c, 0, 72, 0
2, 24960, Note_on_c, 0, 69, 0
2, 24960, Note_on_c, 0, 81, 64
2, 24960, Note_on_c, 0, 66, 64
2, 25020, Note_on_c, 0, 81, 0
2, 25020, Note_on_c, 0, 75, 64
2, 25080, Note_on_c, 0, 75, 0
2, 25080, Note_on_c, 0, 66, 0
2, 25080, Note_on_c, 0, 62, 64
2, 25080, Note_on_c, 0, 74, 64
2, 25140, Note_on_c, 0, 74, 0
2, 25140, Note_on_c, 0, 72, 64
2, 25200, Note_on_c, 0, 72, 0
2, 25200, Note_on_c, 0, 62, 0
2, 25200, Note_on_c, 0, 70, 64
2, 25200, Note_on_c, 0, 67, 64
2, 25260, Note_on_c, 0, 70, 0
2, 25260, Note_on_c, 0, 79, 64
2, 25320, Note_on_c, 0, 79, 0
2, 25320, Note_on_c, 0, 67, 0
2, 25320, Note_on_c, 0, 77, 64
2, 25320, Note_on_c, 0, 55, 64
2, 25380, Note_on_c, 0, 77, 0
2, 25380, Note_on_c, 0, 75, 64
2, 25440, Note_on_c, 0, 75, 0
2, 25440, Note_on_c, 0, 55, 0
2, 25440, Note_on_c, 0, 74, 64
2, 25440, Note_on_c, 0, 58, 64
2, 25500, Note_on_c, 0, 74, 0
2, 25500, Note_on_c, 0, 72, 64
2, 25560, Note_on_c, 0, 72, 0
2, 25560, Note_on_c, 0, 58, 0
2, 25560, Note_on_c, 0, 70, 64
2, 25560, Note_on_c, 0, 62, 64
2, 25620, Note_on_c, 0, 70, 0
2, 25620, Note_on_c, 0, 69, 64
2, 25680, Note_on_c, 0, 69, 0
2, 25680, Note_on_c, 0, 62, 0
2, 25680, Note_on_c, 0, 72, 64
2, 25680, Note_on_c, 0, 67, 64
2, 25740, Note_on_c, 0, 72, 0
2, 25740, Note_on_c, 0, 70, 64
2, 25800, Note_on_c, 0, 70, 0
2, 25800, Note_on_c, 0, 67, 0
2, 25800, Note_on_c, 0, 65, 64
2, 25800, Note_on_c, 0, 69, 64
2, 25860, Note_on_c, 0, 69, 0
2, 25860, Note_on_c, 0, 67, 64
2, 25920, Note_on_c, 0, 67, 0
2, 25920, Note_on_c, 0, 65, 0
2, 25920, Note_on_c, 0, 72, 64
2, 25920, Note_on_c, 0, 64, 64
2, 25980, Note_on_c, 0, 64, 0
2, 25980, Note_on_c, 0, 61, 64
2, 26040, Note_on_c, 0, 61, 0
2, 26040, Note_on_c, 0, 72, 0
2, 26040, Note_on_c, 0, 76, 64
2, 26040, Note_on_c, 0, 60, 64
2, 26100, Note_on_c, 0, 60, 0
2, 26100, Note_on_c, 0, 58, 64
2, 26160, Note_on_c, 0, 58, 0
2, 26160, Note_on_c, 0, 76, 0
2, 26160, Note_on_c, 0, 71, 64
2, 26160, Note_on_c, 0, 65, 64
2, 26220, Note_on_c, 0, 65, 0
2, 26220, Note_on_c, 0, 61, 64
2, 26280, Note_on_c, 0, 61, 0
2, 26280, Note_on_c, 0, 71, 0
2, 26280, Note_on_c, 0, 77, 64
2, 26280, Note_on_c, 0, 60, 64
2, 26340, Note_on_c, 0, 60, 0
2, 26340, Note_on_c, 0, 58, 64
2, 26400, Note_on_c, 0, 58, 0
2, 26400, Note_on_c, 0, 77, 0
2, 26400, Note_on_c, 0, 70, 64
2, 26400, Note_on_c, 0, 67, 64
2, 26460, Note_on_c, 0, 67, 0
2, 26460, Note_on_c, 0, 61, 64
2, 26520, Note_on_c, 0, 61, 0
2, 26520, Note_on_c, 0, 70, 0
2, 26520, Note_on_c, 0, 79, 64
2, 26520, Note_on_c, 0, 60, 64
2, 26580, Note_on_c, 0, 60, 0
2, 26580, Note_on_c, 0, 58, 64
2, 26640, Note_on_c, 0, 58, 0
2, 26640, Note_on_c, 0, 57, 64
2, 26700, Note_on_c, 0, 57, 0
2, 26700, Note_on_c, 0, 79, 0
2, 26700, Note_on_c, 0, 74, 64
2, 26700, Note_on_c, 0, 65, 64
2, 26760, Note_on_c, 0, 65, 0
2, 26760, Note_on_c, 0, 74, 0
2, 26760, Note_on_c, 0, 72, 64
2, 26760, Note_on_c, 0, 64, 64
2, 26820, Note_on_c, 0, 64, 0
2, 26820, Note_on_c, 0, 72, 0
2, 26820, Note_on_c, 0, 70, 64
2, 26820, Note_on_c, 0, 62, 64
2, 26880, Note_on_c, 0, 62, 0
2, 26880, Note_on_c, 0, 70, 0
2, 26880, Note_on_c, 0, 69, 64
2, 26880, Note_on_c, 0, 60, 64
2, 26940, Note_on_c, 0, 60, 0
2, 26940, Note_on_c, 0, 69, 0
2, 26940, Note_on_c, 0, 79, 64
2, 26940, Note_on_c, 0, 58, 64
2, 27000, Note_on_c, 0, 58, 0
2, 27000, Note_on_c, 0, 79, 0
2, 27000, Note_on_c, 0, 77, 64
2, 27000, Note_on_c, 0, 57, 64
2, 27060, Note_on_c, 0, 57, 0
2, 27060, Note_on_c, 0, 77, 0
2, 27060, Note_on_c, 0, 76, 64
2, 27060, Note_on_c, 0, 55, 64
2, 27120, Note_on_c, 0, 55, 0
2, 27120, Note_on_c, 0, 76, 0
2, 27120, Note_on_c, 0, 74, 64
2, 27120, Note_on_c, 0, 58, 64
2, 27180, Note_on_c, 0, 58, 0
2, 27180, Note_on_c, 0, 74, 0
2, 27180, Note_on_c, 0, 82, 64
2, 27180, Note_on_c, 0, 57, 64
2, 27240, Note_on_c, 0, 57, 0
2, 27240, Note_on_c, 0, 82, 0
2, 27240, Note_on_c, 0, 76, 64
2, 27240, Note_on_c, 0, 55, 64
2, 27300, Note_on_c, 0, 55, 0
2, 27300, Note_on_c, 0, 76, 0
2, 27300, Note_on_c, 0, 74, 64
2, 27300, Note_on_c, 0, 53, 64
2, 27360, Note_on_c, 0, 53, 0
2, 27360, Note_on_c, 0, 74, 0
2, 27360, Note_on_c, 0, 73, 64
2, 27360, Note_on_c, 0, 52, 64
2, 27420, Note_on_c, 0, 52, 0
2, 27420, Note_on_c, 0, 73, 0
2, 27420, Note_on_c, 0, 70, 64
2, 27420, Note_on_c, 0, 67, 64
2, 27480, Note_on_c, 0, 67, 0
2, 27480, Note_on_c, 0, 70, 0
2, 27480, Note_on_c, 0, 69, 64
2, 27480, Note_on_c, 0, 65, 64
2, 27540, Note_on_c, 0, 65, 0
2, 27540, Note_on_c, 0, 69, 0
2, 27540, Note_on_c, 0, 67, 64
2, 27540, Note_on_c, 0, 64, 64
2, 27600, Note_on_c, 0, 64, 0
2, 27600, Note_on_c, 0, 67, 0
2, 27600, Note_on_c, 0, 74, 64
2, 27600, Note_on_c, 0, 62, 64
2, 27660, Note_on_c, 0, 62, 0
2, 27660, Note_on_c, 0, 74, 0
2, 27660, Note_on_c, 0, 70, 64
2, 27660, Note_on_c, 0, 67, 64
2, 27720, Note_on_c, 0, 67, 0
2, 27720, Note_on_c, 0, 70, 0
2, 27720, Note_on_c, 0, 69, 64
2, 27720, Note_on_c, 0, 65, 64
2, 27780, Note_on_c, 0, 65, 0
2, 27780, Note_on_c, 0, 69, 0
2, 27780, Note_on_c, 0, 67, 64
2, 27780, Note_on_c, 0, 64, 64
2, 27840, Note_on_c, 0, 64, 0
2, 27840, Note_on_c, 0, 67, 0
2, 27840, Note_on_c, 0, 76, 64
2, 27840, Note_on_c, 0, 61, 64
2, 27900, Note_on_c, 0, 61, 0
2, 27900, Note_on_c, 0, 76, 0
2, 27900, Note_on_c, 0, 70, 64
2, 27900, Note_on_c, 0, 67, 64
2, 27960, Note_on_c, 0, 67, 0
2, 27960, Note_on_c, 0, 70, 0
2, 27960, Note_on_c, 0, 69, 64
2, 27960, Note_on_c, 0, 65, 64
2, 28020, Note_on_c, 0, 65, 0
2, 28020, Note_on_c, 0, 69, 0
2, 28020, Note_on_c, 0, 64, 64
2, 28020, Note_on_c, 0, 67, 64
2, 28080, Note_on_c, 0, 67, 0
2, 28080, Note_on_c, 0, 64, 0
2, 28080, Note_on_c, 0, 65, 64
2, 28080, Note_on_c, 0, 50, 64
2, 28140, Note_on_c, 0, 50, 0
2, 28140, Note_on_c, 0, 63, 64
2, 28200, Note_on_c, 0, 63, 0
2, 28200, Note_on_c, 0, 65, 0
2, 28200, Note_on_c, 0, 66, 64
2, 28200, Note_on_c, 0, 62, 64
2, 28260, Note_on_c, 0, 62, 0
2, 28260, Note_on_c, 0, 60, 64
2, 28320, Note_on_c, 0, 60, 0
2, 28320, Note_on_c, 0, 66, 0
2, 28320, Note_on_c, 0, 67, 64
2, 28320, Note_on_c, 0, 58, 64
2, 28380, Note_on_c, 0, 58, 0
2, 28380, Note_on_c, 0, 60, 64
2, 28440, Note_on_c, 0, 60, 0
2, 28440, Note_on_c, 0, 67, 0
2, 28440, Note_on_c, 0, 69, 64
2, 28440, Note_on_c, 0, 58, 64
2, 28500, Note_on_c, 0, 58, 0
2, 28500, Note_on_c, 0, 57, 64
2, 28560, Note_on_c, 0, 57, 0
2, 28560, Note_on_c, 0, 69, 0
2, 28560, Note_on_c, 0, 70, 64
2, 28560, Note_on_c, 0, 55, 64
2, 28620, Note_on_c, 0, 55, 0
2, 28620, Note_on_c, 0, 57, 64
2, 28680, Note_on_c, 0, 57, 0
2, 28680, Note_on_c, 0, 70, 0
2, 28680, Note_on_c, 0, 71, 64
2, 28680, Note_on_c, 0, 55, 64
2, 28740, Note_on_c, 0, 55, 0
2, 28740, Note_on_c, 0, 53, 64
2, 28800, Note_on_c, 0, 53, 0
2, 28800, Note_on_c, 0, 71, 0
2, 28800, Note_on_c, 0, 72, 64
2, 28800, Note_on_c, 0, 52, 64
2, 28860, Note_on_c, 0, 52, 0
2, 28860, Note_on_c, 0, 58, 64
2, 28920, Note_on_c, 0, 58, 0
2, 28920, Note_on_c, 0, 72, 0
2, 28920, Note_on_c, 0, 73, 64
2, 28920, Note_on_c, 0, 57, 64
2, 28980, Note_on_c, 0, 57, 0
2, 28980, Note_on_c, 0, 55, 64
2, 29040, Note_on_c, 0, 55, 0
2, 29040, Note_on_c, 0, 73, 0
2, 29040, Note_on_c, 0, 74, 64
2, 29040, Note_on_c, 0, 53, 64
2, 29100, Note_on_c, 0, 53, 0
2, 29100, Note_on_c, 0, 55, 64
2, 29160, Note_on_c, 0, 55, 0
2, 29160, Note_on_c, 0, 74, 0
2, 29160, Note_on_c, 0, 76, 64
2, 29160, Note_on_c, 0, 53, 64
2, 29220, Note_on_c, 0, 53, 0
2, 29220, Note_on_c, 0, 52, 64
2, 29280, Note_on_c, 0, 52, 0
2, 29280, Note_on_c, 0, 76, 0
2, 29280, Note_on_c, 0, 50, 64
2, 29280, Note_on_c, 0, 77, 64
2, 29340, Note_on_c, 0, 50, 0
2, 29340, Note_on_c, 0, 51, 64
2, 29400, Note_on_c, 0, 51, 0
2, 29400, Note_on_c, 0, 77, 0
2, 29400, Note_on_c, 0, 78, 64
2, 29400, Note_on_c, 0, 50, 64
2, 29460, Note_on_c, 0, 50, 0
2, 29460, Note_on_c, 0, 48, 64
2, 29520, Note_on_c, 0, 48, 0
2, 29520, Note_on_c, 0, 78, 0
2, 29520, Note_on_c, 0, 79, 64
2, 29520, Note_on_c, 0, 46, 64
2, 29580, Note_on_c, 0, 79, 0
2, 29580, Note_on_c, 0, 74, 64
2, 29640, Note_on_c, 0, 74, 0
2, 29640, Note_on_c, 0, 46, 0
2, 29640, Note_on_c, 0, 82, 64
2, 29640, Note_on_c, 0, 43, 64
2, 29700, Note_on_c, 0, 82, 0
2, 29700, Note_on_c, 0, 81, 64
2, 29760, Note_on_c, 0, 81, 0
2, 29760, Note_on_c, 0, 43, 0
2, 29760, Note_on_c, 0, 79, 64
2, 29760, Note_on_c, 0, 46, 64
2, 29820, Note_on_c, 0, 79, 0
2, 29820, Note_on_c, 0, 77, 64
2, 29880, Note_on_c, 0, 77, 0
2, 29880, Note_on_c, 0, 46, 0
2, 29880, Note_on_c, 0, 76, 64
2, 29880, Note_on_c, 0, 50, 64
2, 29940, Note_on_c, 0, 76, 0
2, 29940, Note_on_c, 0, 74, 64
2, 30000, Note_on_c, 0, 74, 0
2, 30000, Note_on_c, 0, 50, 0
2, 30000, Note_on_c, 0, 55, 64
2, 30000, Note_on_c, 0, 73, 64
2, 30060, Note_on_c, 0, 73, 0
2, 30060, Note_on_c, 0, 74, 64
2, 30120, Note_on_c, 0, 74, 0
2, 30120, Note_on_c, 0, 76, 64
2, 30180, Note_on_c, 0, 76, 0
2, 30180, Note_on_c, 0, 73, 64
2, 30240, Note_on_c, 0, 73, 0
2, 30240, Note_on_c, 0, 69, 64
2, 30300, Note_on_c, 0, 55, 0
2, 30300, Note_on_c, 0, 55, 64
2, 30360, Note_on_c, 0, 55, 0
2, 30360, Note_on_c, 0, 69, 0
2, 30360, Note_on_c, 0, 64, 64
2, 30360, Note_on_c, 0, 45, 64
2, 30420, Note_on_c, 0, 45, 0
2, 30420, Note_on_c, 0, 43, 64
2, 30480, Note_on_c, 0, 43, 0
2, 30480, Note_on_c, 0, 64, 0
2, 30480, Note_on_c, 0, 69, 64
2, 30480, Note_on_c, 0, 45, 64
2, 30540, Note_on_c, 0, 45, 0
2, 30540, Note_on_c, 0, 55, 64
2, 30600, Note_on_c, 0, 55, 0
2, 30600, Note_on_c, 0, 69, 0
2, 30600, Note_on_c, 0, 73, 64
2, 30600, Note_on_c, 0, 45, 64
2, 30660, Note_on_c, 0, 45, 0
2, 30660, Note_on_c, 0, 55, 64
2, 30720, Note_on_c, 0, 55, 0
2, 30720, Note_on_c, 0, 73, 0
2, 30720, Note_on_c, 0, 76, 64
2, 30720, Note_on_c, 0, 45, 64
2, 30744, Note_on_c, 0, 74, 64
2, 30750, Note_on_c, 0, 76, 0
2, 30768, Note_on_c, 0, 76, 64
2, 30774, Note_on_c, 0, 74, 0
2, 30780, Note_on_c, 0, 45, 0
2, 30780, Note_on_c, 0, 55, 64
2, 30840, Note_on_c, 0, 55, 0
2, 30840, Note_on_c, 0, 45, 64
2, 30900, Note_on_c, 0, 45, 0
2, 30900, Note_on_c, 0, 55, 64
2, 30960, Note_on_c, 0, 55, 0
2, 30960, Note_on_c, 0, 45, 64
2, 31008, Note_on_c, 0, 76, 0
2, 31020, Note_on_c, 0, 45, 0
2, 31020, Note_on_c, 0, 69, 64
2, 31020, Note_on_c, 0, 53, 64
2, 31080, Note_on_c, 0, 53, 0
2, 31080, Note_on_c, 0, 69, 0
2, 31080, Note_on_c, 0, 65, 64
2, 31080, Note_on_c, 0, 45, 64
2, 31140, Note_on_c, 0, 45, 0
2, 31140, Note_on_c, 0, 65, 0
2, 31140, Note_on_c, 0, 69, 64
2, 31140, Note_on_c, 0, 43, 64
2, 31200, Note_on_c, 0, 43, 0
2, 31200, Note_on_c, 0, 69, 0
2, 31200, Note_on_c, 0, 74, 64
2, 31200, Note_on_c, 0, 45, 64
2, 31260, Note_on_c, 0, 45, 0
2, 31260, Note_on_c, 0, 74, 0
2, 31260, Note_on_c, 0, 69, 64
2, 31260, Note_on_c, 0, 53, 64
2, 31320, Note_on_c, 0, 53, 0
2, 31320, Note_on_c, 0, 69, 0
2, 31320, Note_on_c, 0, 65, 64
2, 31320, Note_on_c, 0, 45, 64
2, 31380, Note_on_c, 0, 45, 0
2, 31380, Note_on_c, 0, 65, 0
2, 31380, Note_on_c, 0, 69, 64
2, 31380, Note_on_c, 0, 53, 64
2, 31440, Note_on_c, 0, 53, 0
2, 31440, Note_on_c, 0, 69, 0
2, 31440, Note_on_c, 0, 74, 64
2, 31440, Note_on_c, 0, 45, 64
2, 31464, Note_on_c, 0, 72, 64
2, 31470, Note_on_c, 0, 74, 0
2, 31488, Note_on_c, 0, 74, 64
2, 31494, Note_on_c, 0, 72, 0
2, 31500, Note_on_c, 0, 45, 0
2, 31500, Note_on_c, 0, 53, 64
2, 31560, Note_on_c, 0, 53, 0
2, 31560, Note_on_c, 0, 45, 64
2, 31620, Note_on_c, 0, 45, 0
2, 31620, Note_on_c, 0, 53, 64
2, 31680, Note_on_c, 0, 53, 0
2, 31680, Note_on_c, 0, 45, 64
2, 31728, Note_on_c, 0, 74, 0
2, 31740, Note_on_c, 0, 45, 0
2, 31740, Note_on_c, 0, 67, 64
2, 31740, Note_on_c, 0, 52, 64
2, 31800, Note_on_c, 0, 52, 0
2, 31800, Note_on_c, 0, 67, 0
2, 31800, Note_on_c, 0, 64, 64
2, 31800, Note_on_c, 0, 45, 64
2, 31860, Note_on_c, 0, 45, 0
2, 31860, Note_on_c, 0, 64, 0
2, 31860, Note_on_c, 0, 67, 64
2, 31860, Note_on_c, 0, 43, 64
2, 31920, Note_on_c, 0, 43, 0
2, 31920, Note_on_c, 0, 67, 0
2, 31920, Note_on_c, 0, 72, 64
2, 31920, Note_on_c, 0, 45, 64
2, 31980, Note_on_c, 0, 45, 0
2, 31980, Note_on_c, 0, 72, 0
2, 31980, Note_on_c, 0, 67, 64
2, 31980, Note_on_c, 0, 52, 64
2, 32040, Note_on_c, 0, 52, 0
2, 32040, Note_on_c, 0, 67, 0
2, 32040, Note_on_c, 0, 64, 64
2, 32040, Note_on_c, 0, 45, 64
2, 32100, Note_on_c, 0, 45, 0
2, 32100, Note_on_c, 0, 64, 0
2, 32100, Note_on_c, 0, 67, 64
2, 32100, Note_on_c, 0, 52, 64
2, 32160, Note_on_c, 0, 52, 0
2, 32160, Note_on_c, 0, 67, 0
2, 32160, Note_on_c, 0, 72, 64
2, 32160, Note_on_c, 0, 45, 64
2, 32184, Note_on_c, 0, 70, 64
2, 32190, Note_on_c, 0, 72, 0
2, 32208, Note_on_c, 0, 72, 64
2, 32214, Note_on_c, 0, 70, 0
2, 32220, Note_on_c, 0, 45, 0
2, 32220, Note_on_c, 0, 52, 64
2, 32280, Note_on_c, 0, 52, 0
2, 32280, Note_on_c, 0, 45, 64
2, 32340, Note_on_c, 0, 45, 0
2, 32340, Note_on_c, 0, 52, 64
2, 32400, Note_on_c, 0, 52, 0
2, 32400, Note_on_c, 0, 45, 64
2, 32448, Note_on_c, 0, 72, 0
2, 32460, Note_on_c, 0, 45, 0
2, 32460, Note_on_c, 0, 65, 64
2, 32460, Note_on_c, 0, 50, 64
2, 32520, Note_on_c, 0, 50, 0
2, 32520, Note_on_c, 0, 65, 0
2, 32520, Note_on_c, 0, 62, 64
2, 32520, Note_on_c, 0, 53, 64
2, 32580, Note_on_c, 0, 53, 0
2, 32580, Note_on_c, 0, 62, 0
2, 32580, Note_on_c, 0, 65, 64
2, 32580, Note_on_c, 0, 50, 64
2, 32640, Note_on_c, 0, 50, 0
2, 32640, Note_on_c, 0, 65, 0
2, 32640, Note_on_c, 0, 70, 64
2, 32640, Note_on_c, 0, 45, 64
2, 32700, Note_on_c, 0, 45, 0
2, 32700, Note_on_c, 0, 70, 0
2, 32700, Note_on_c, 0, 65, 64
2, 32700, Note_on_c, 0, 50, 64
2, 32760, Note_on_c, 0, 50, 0
2, 32760, Note_on_c, 0, 65, 0
2, 32760, Note_on_c, 0, 62, 64
2, 32760, Note_on_c, 0, 53, 64
2, 32820, Note_on_c, 0, 53, 0
2, 32820, Note_on_c, 0, 62, 0
2, 32820, Note_on_c, 0, 65, 64
2, 32820, Note_on_c, 0, 57, 64
2, 32880, Note_on_c, 0, 57, 0
2, 32880, Note_on_c, 0, 65, 0
2, 32880, Note_on_c, 0, 70, 64
2, 32880, Note_on_c, 0, 43, 64
2, 32940, Note_on_c, 0, 43, 0
2, 32940, Note_on_c, 0, 70, 0
2, 32940, Note_on_c, 0, 67, 64
2, 32940, Note_on_c, 0, 52, 64
2, 33000, Note_on_c, 0, 52, 0
2, 33000, Note_on_c, 0, 67, 0
2, 33000, Note_on_c, 0, 64, 64
2, 33000, Note_on_c, 0, 55, 64
2, 33060, Note_on_c, 0, 55, 0
2, 33060, Note_on_c, 0, 64, 0
2, 33060, Note_on_c, 0, 67, 64
2, 33060, Note_on_c, 0, 58, 64
2, 33120, Note_on_c, 0, 58, 0
2, 33120, Note_on_c, 0, 67, 0
2, 33120, Note_on_c, 0, 61, 64
2, 33120, Note_on_c, 0, 55, 64
2, 33180, Note_on_c, 0, 61, 0
2, 33180, Note_on_c, 0, 69, 64
2, 33240, Note_on_c, 0, 69, 0
2, 33240, Note_on_c, 0, 55, 0
2, 33240, Note_on_c, 0, 70, 64
2, 33240, Note_on_c, 0, 49, 64
2, 33300, Note_on_c, 0, 70, 0
2, 33300, Note_on_c, 0, 69, 64
2, 33360, Note_on_c, 0, 69, 0
2, 33360, Note_on_c, 0, 49, 0
2, 33360, Note_on_c, 0, 61, 64
2, 33360, Note_on_c, 0, 52, 64
2, 33420, Note_on_c, 0, 61, 0
2, 33420, Note_on_c, 0, 69, 64
2, 33480, Note_on_c, 0, 69, 0
2, 33480, Note_on_c, 0, 52, 0
2, 33480, Note_on_c, 0, 70, 64
2, 33480, Note_on_c, 0, 43, 64
2, 33540, Note_on_c, 0, 70, 0
2, 33540, Note_on_c, 0, 69, 64
2, 33600, Note_on_c, 0, 69, 0
2, 33600, Note_on_c, 0, 43, 0
2, 33600, Note_on_c, 0, 61, 64
2, 33660, Note_on_c, 0, 46, 64
2, 33720, Note_on_c, 0, 46, 0
2, 33720, Note_on_c, 0, 61, 0
2, 33720, Note_on_c, 0, 64, 64
2, 33720, Note_on_c, 0, 45, 64
2, 33780, Note_on_c, 0, 45, 0
2, 33780, Note_on_c, 0, 43, 64
2, 33840, Note_on_c, 0, 43, 0
2, 33840, Note_on_c, 0, 41, 64
2, 33900, Note_on_c, 0, 41, 0
2, 33900, Note_on_c, 0, 64, 0
2, 33900, Note_on_c, 0, 69, 64
2, 33900, Note_on_c, 0, 53, 64
2, 33960, Note_on_c, 0, 53, 0
2, 33960, Note_on_c, 0, 69, 0
2, 33960, Note_on_c, 0, 70, 64
2, 33960, Note_on_c, 0, 52, 64
2, 34020, Note_on_c, 0, 52, 0
2, 34020, Note_on_c, 0, 70, 0
2, 34020, Note_on_c, 0, 69, 64
2, 34020, Note_on_c, 0, 53, 64
2, 34080, Note_on_c, 0, 53, 0
2, 34080, Note_on_c, 0, 69, 0
2, 34080, Note_on_c, 0, 62, 64
2, 34080, Note_on_c, 0, 41, 64
2, 34140, Note_on_c, 0, 41, 0
2, 34140, Note_on_c, 0, 62, 0
2, 34140, Note_on_c, 0, 69, 64
2, 34140, Note_on_c, 0, 53, 64
2, 34200, Note_on_c, 0, 53, 0
2, 34200, Note_on_c, 0, 69, 0
2, 34200, Note_on_c, 0, 70, 64
2, 34200, Note_on_c, 0, 52, 64
2, 34260, Note_on_c, 0, 52, 0
2, 34260, Note_on_c, 0, 70, 0
2, 34260, Note_on_c, 0, 69, 64
2, 34260, Note_on_c, 0, 53, 64
2, 34320, Note_on_c, 0, 53, 0
2, 34320, Note_on_c, 0, 69, 0
2, 34320, Note_on_c, 0, 62, 64
2, 34320, Note_on_c, 0, 41, 64
2, 34380, Note_on_c, 0, 41, 0
2, 34380, Note_on_c, 0, 53, 64
2, 34440, Note_on_c, 0, 53, 0
2, 34440, Note_on_c, 0, 62, 0
2, 34440, Note_on_c, 0, 65, 64
2, 34440, Note_on_c, 0, 52, 64
2, 34500, Note_on_c, 0, 52, 0
2, 34500, Note_on_c, 0, 50, 64
2, 34560, Note_on_c, 0, 50, 0
2, 34560, Note_on_c, 0, 49, 64
2, 34620, Note_on_c, 0, 65, 0
2, 34620, Note_on_c, 0, 67, 64
2, 34680, Note_on_c, 0, 67, 0
2, 34680, Note_on_c, 0, 49, 0
2, 34680, Note_on_c, 0, 69, 64
2, 34680, Note_on_c, 0, 40, 64
2, 34740, Note_on_c, 0, 69, 0
2, 34740, Note_on_c, 0, 67, 64
2, 34800, Note_on_c, 0, 67, 0
2, 34800, Note_on_c, 0, 40, 0
2, 34800, Note_on_c, 0, 64, 64
2, 34800, Note_on_c, 0, 43, 64
2, 34860, Note_on_c, 0, 64, 0
2, 34860, Note_on_c, 0, 67, 64
2, 34920, Note_on_c, 0, 67, 0
2, 34920, Note_on_c, 0, 43, 0
2, 34920, Note_on_c, 0, 69, 64
2, 34920, Note_on_c, 0, 37, 64
2, 34980, Note_on_c, 0, 69, 0
2, 34980, Note_on_c, 0, 67, 64
2, 35040, Note_on_c, 0, 67, 0
2, 35040, Note_on_c, 0, 37, 0
2, 35040, Note_on_c, 0, 57, 64
2, 35100, Note_on_c, 0, 49, 64
2, 35160, Note_on_c, 0, 49, 0
2, 35160, Note_on_c, 0, 57, 0
2, 35160, Note_on_c, 0, 67, 64
2, 35160, Note_on_c, 0, 47, 64
2, 35220, Note_on_c, 0, 47, 0
2, 35220, Note_on_c, 0, 45, 64
2, 35280, Note_on_c, 0, 45, 0
2, 35280, Note_on_c, 0, 50, 64
2, 35340, Note_on_c, 0, 67, 0
2, 35340, Note_on_c, 0, 58, 64
2, 35400, Note_on_c, 0, 58, 0
2, 35400, Note_on_c, 0, 50, 0
2, 35400, Note_on_c, 0, 57, 64
2, 35400, Note_on_c, 0, 38, 64
2, 35460, Note_on_c, 0, 57, 0
2, 35460, Note_on_c, 0, 55, 64
2, 35520, Note_on_c, 0, 55, 0
2, 35520, Note_on_c, 0, 38, 0
2, 35520, Note_on_c, 0, 57, 64
2, 35520, Note_on_c, 0, 41, 64
2, 35580, Note_on_c, 0, 57, 0
2, 35580, Note_on_c, 0, 64, 64
2, 35640, Note_on_c, 0, 64, 0
2, 35640, Note_on_c, 0, 41, 0
2, 35640, Note_on_c, 0, 62, 64
2, 35640, Note_on_c, 0, 45, 64
2, 35700, Note_on_c, 0, 62, 0
2, 35700, Note_on_c, 0, 61, 64
2, 35760, Note_on_c, 0, 61, 0
2, 35760, Note_on_c, 0, 45, 0
2, 35760, Note_on_c, 0, 50, 64
2, 35760, Note_on_c, 0, 62, 64
2, 35790, Note_on_c, 0, 50, 0
2, 35792, Note_on_c, 0, 48, 64
2, 35820, Note_on_c, 0, 62, 0
2, 35820, Note_on_c, 0, 50, 64
2, 35820, Note_on_c, 0, 67, 64
2, 35822, Note_on_c, 0, 48, 0
2, 35880, Note_on_c, 0, 67, 0
2, 35880, Note_on_c, 0, 65, 64
2, 35940, Note_on_c, 0, 65, 0
2, 35940, Note_on_c, 0, 64, 64
2, 36000, Note_on_c, 0, 64, 0
2, 36000, Note_on_c, 0, 65, 64
2, 36060, Note_on_c, 0, 65, 0
2, 36060, Note_on_c, 0, 50, 0
2, 36060, Note_on_c, 0, 58, 64
2, 36060, Note_on_c, 0, 55, 64
2, 36120, Note_on_c, 0, 55, 0
2, 36120, Note_on_c, 0, 58, 0
2, 36120, Note_on_c, 0, 60, 64
2, 36120, Note_on_c, 0, 57, 64
2, 36180, Note_on_c, 0, 57, 0
2, 36180, Note_on_c, 0, 60, 0
2, 36180, Note_on_c, 0, 62, 64
2, 36180, Note_on_c, 0, 58, 64
2, 36240, Note_on_c, 0, 58, 0
2, 36240, Note_on_c, 0, 62, 0
2, 36240, Note_on_c, 0, 63, 64
2, 36240, Note_on_c, 0, 48, 64
2, 36300, Note_on_c, 0, 48, 0
2, 36300, Note_on_c, 0, 63, 0
2, 36300, Note_on_c, 0, 57, 64
2, 36300, Note_on_c, 0, 54, 64
2, 36360, Note_on_c, 0, 54, 0
2, 36360, Note_on_c, 0, 57, 0
2, 36360, Note_on_c, 0, 58, 64
2, 36360, Note_on_c, 0, 55, 64
2, 36420, Note_on_c, 0, 55, 0
2, 36420, Note_on_c, 0, 58, 0
2, 36420, Note_on_c, 0, 60, 64
2, 36420, Note_on_c, 0, 57, 64
2, 36480, Note_on_c, 0, 57, 0
2, 36480, Note_on_c, 0, 60, 0
2, 36480, Note_on_c, 0, 62, 64
2, 36480, Note_on_c, 0, 46, 64
2, 36540, Note_on_c, 0, 46, 0
2, 36540, Note_on_c, 0, 62, 0
2, 36540, Note_on_c, 0, 58, 64
2, 36540, Note_on_c, 0, 55, 64
2, 36600, Note_on_c, 0, 55, 0
2, 36600, Note_on_c, 0, 58, 0
2, 36600, Note_on_c, 0, 60, 64
2, 36600, Note_on_c, 0, 57, 64
2, 36660, Note_on_c, 0, 57, 0
2, 36660, Note_on_c, 0, 60, 0
2, 36660, Note_on_c, 0, 58, 64
2, 36660, Note_on_c, 0, 62, 64
2, 36720, Note_on_c, 0, 62, 0
2, 36720, Note_on_c, 0, 58, 0
2, 36720, Note_on_c, 0, 63, 64
2, 36720, Note_on_c, 0, 48, 64
2, 36780, Note_on_c, 0, 48, 0
2, 36780, Note_on_c, 0, 63, 0
2, 36780, Note_on_c, 0, 57, 64
2, 36780, Note_on_c, 0, 54, 64
2, 36840, Note_on_c, 0, 54, 0
2, 36840, Note_on_c, 0, 57, 0
2, 36840, Note_on_c, 0, 58, 64
2, 36840, Note_on_c, 0, 55, 64
2, 36900, Note_on_c, 0, 55, 0
2, 36900, Note_on_c, 0, 58, 0
2, 36900, Note_on_c, 0, 60, 64
2, 36900, Note_on_c, 0, 57, 64
2, 36960, Note_on_c, 0, 57, 0
2, 36960, Note_on_c, 0, 60, 0
2, 36960, Note_on_c, 0, 62, 64
2, 36960, Note_on_c, 0, 46, 64
2, 37020, Note_on_c, 0, 46, 0
2, 37020, Note_on_c, 0, 62, 0
2, 37020, Note_on_c, 0, 58, 64
2, 37020, Note_on_c, 0, 55, 64
2, 37080, Note_on_c, 0, 55, 0
2, 37080, Note_on_c, 0, 58, 0
2, 37080, Note_on_c, 0, 60, 64
2, 37080, Note_on_c, 0, 57, 64
2, 37140, Note_on_c, 0, 57, 0
2, 37140, Note_on_c, 0, 60, 0
2, 37140, Note_on_c, 0, 62, 64
2, 37140, Note_on_c, 0, 58, 64
2, 37200, Note_on_c, 0, 58, 0
2, 37200, Note_on_c, 0, 62, 0
2, 37200, Note_on_c, 0, 60, 64
2, 37200, Note_on_c, 0, 45, 64
2, 37260, Note_on_c, 0, 45, 0
2, 37260, Note_on_c, 0, 60, 0
2, 37260, Note_on_c, 0, 54, 64
2, 37260, Note_on_c, 0, 50, 64
2, 37320, Note_on_c, 0, 50, 0
2, 37320, Note_on_c, 0, 54, 0
2, 37320, Note_on_c, 0, 55, 64
2, 37320, Note_on_c, 0, 52, 64
2, 37380, Note_on_c, 0, 52, 0
2, 37380, Note_on_c, 0, 55, 0
2, 37380, Note_on_c, 0, 54, 64
2, 37380, Note_on_c, 0, 57, 64
2, 37440, Note_on_c, 0, 57, 0
2, 37440, Note_on_c, 0, 54, 0
2, 37440, Note_on_c, 0, 58, 64
2, 37440, Note_on_c, 0, 43, 64
2, 37500, Note_on_c, 0, 43, 0
2, 37500, Note_on_c, 0, 58, 0
2, 37500, Note_on_c, 0, 50, 64
2, 37560, Note_on_c, 0, 50, 0
2, 37560, Note_on_c, 0, 52, 64
2, 37620, Note_on_c, 0, 52, 0
2, 37620, Note_on_c, 0, 54, 64
2, 37680, Note_on_c, 0, 54, 0
2, 37680, Note_on_c, 0, 55, 64
2, 37740, Note_on_c, 0, 55, 0
2, 37740, Note_on_c, 0, 57, 64
2, 37800, Note_on_c, 0, 57, 0
2, 37800, Note_on_c, 0, 58, 64
2, 37860, Note_on_c, 0, 58, 0
2, 37860, Note_on_c, 0, 60, 64
2, 37920, Note_on_c, 0, 60, 0
2, 37920, Note_on_c, 0, 62, 64
2, 37980, Note_on_c, 0, 62, 0
2, 37980, Note_on_c, 0, 58, 64
2, 38040, Note_on_c, 0, 58, 0
2, 38040, Note_on_c, 0, 67, 64
2, 38100, Note_on_c, 0, 67, 0
2, 38100, Note_on_c, 0, 62, 64
2, 38160, Note_on_c, 0, 62, 0
2, 38160, Note_on_c, 0, 70, 64
2, 38220, Note_on_c, 0, 70, 0
2, 38220, Note_on_c, 0, 67, 64
2, 38280, Note_on_c, 0, 67, 0
2, 38280, Note_on_c, 0, 65, 64
2, 38340, Note_on_c, 0, 65, 0
2, 38340, Note_on_c, 0, 63, 64
2, 38400, Note_on_c, 0, 63, 0
2, 38400, Note_on_c, 0, 62, 64
2, 38460, Note_on_c, 0, 62, 0
2, 38460, Note_on_c, 0, 60, 64
2, 38520, Note_on_c, 0, 60, 0
2, 38520, Note_on_c, 0, 58, 64
2, 38580, Note_on_c, 0, 58, 0
2, 38580, Note_on_c, 0, 57, 64
2, 38640, Note_on_c, 0, 57, 0
2, 38640, Note_on_c, 0, 55, 64
2, 38700, Note_on_c, 0, 55, 0
2, 38700, Note_on_c, 0, 58, 64
2, 38760, Note_on_c, 0, 58, 0
2, 38760, Note_on_c, 0, 52, 64
2, 38820, Note_on_c, 0, 52, 0
2, 38820, Note_on_c, 0, 55, 64
2, 38880, Note_on_c, 0, 55, 0
2, 38880, Note_on_c, 0, 49, 64
2, 38940, Note_on_c, 0, 70, 64
2, 39000, Note_on_c, 0, 70, 0
2, 39000, Note_on_c, 0, 69, 64
2, 39060, Note_on_c, 0, 69, 0
2, 39060, Note_on_c, 0, 67, 64
2, 39120, Note_on_c, 0, 67, 0
2, 39120, Note_on_c, 0, 49, 0
2, 39120, Note_on_c, 0, 76, 64
2, 39180, Note_on_c, 0, 76, 0
2, 39180, Note_on_c, 0, 74, 64
2, 39240, Note_on_c, 0, 74, 0
2, 39240, Note_on_c, 0, 73, 64
2, 39240, Note_on_c, 0, 45, 64
2, 39300, Note_on_c, 0, 73, 0
2, 39300, Note_on_c, 0, 71, 64
2, 39360, Note_on_c, 0, 71, 0
2, 39360, Note_on_c, 0, 45, 0
2, 39360, Note_on_c, 0, 69, 64
2, 39360, Note_on_c, 0, 47, 64
2, 39420, Note_on_c, 0, 69, 0
2, 39420, Note_on_c, 0, 67, 64
2, 39480, Note_on_c, 0, 67, 0
2, 39480, Note_on_c, 0, 47, 0
2, 39480, Note_on_c, 0, 49, 64
2, 39480, Note_on_c, 0, 65, 64
2, 39540, Note_on_c, 0, 65, 0
2, 39540, Note_on_c, 0, 64, 64
2, 39600, Note_on_c, 0, 64, 0
2, 39600, Note_on_c, 0, 49, 0
2, 39600, Note_on_c, 0, 65, 64
2, 39600, Note_on_c, 0, 50, 64
2, 39660, Note_on_c, 0, 65, 0
2, 39660, Note_on_c, 0, 62, 64
2, 39720, Note_on_c, 0, 62, 0
2, 39720, Note_on_c, 0, 50, 0
2, 39720, Note_on_c, 0, 67, 64
2, 39720, Note_on_c, 0, 52, 64
2, 39780, Note_on_c, 0, 67, 0
2, 39780, Note_on_c, 0, 62, 64
2, 39840, Note_on_c, 0, 62, 0
2, 39840, Note_on_c, 0, 52, 0
2, 39840, Note_on_c, 0, 69, 64
2, 39840, Note_on_c, 0, 53, 64
2, 39900, Note_on_c, 0, 69, 0
2, 39900, Note_on_c, 0, 62, 64
2, 39960, Note_on_c, 0, 62, 0
2, 39960, Note_on_c, 0, 53, 0
2, 39960, Note_on_c, 0, 70, 64
2, 39960, Note_on_c, 0, 55, 64
2, 40020, Note_on_c, 0, 70, 0
2, 40020, Note_on_c, 0, 62, 64
2, 40080, Note_on_c, 0, 62, 0
2, 40080, Note_on_c, 0, 55, 0
2, 40080, Note_on_c, 0, 57, 64
2, 40140, Note_on_c, 0, 62, 64
2, 40200, Note_on_c, 0, 62, 0
2, 40200, Note_on_c, 0, 57, 0
2, 40200, Note_on_c, 0, 45, 64
2, 40200, Note_on_c, 0, 64, 64
2, 40260, Note_on_c, 0, 64, 0
2, 40260, Note_on_c, 0, 61, 64
2, 40320, Note_on_c, 0, 61, 0
2, 40320, Note_on_c, 0, 45, 0
2, 40320, Note_on_c, 0, 62, 64
2, 40320, Note_on_c, 0, 50, 64
2, 40380, Note_on_c, 0, 62, 0
2, 40380, Note_on_c, 0, 60, 64
2, 40440, Note_on_c, 0, 60, 0
2, 40440, Note_on_c, 0, 50, 0
2, 40440, Note_on_c, 0, 54, 64
2, 40440, Note_on_c, 0, 57, 64
2, 40500, Note_on_c, 0, 54, 0
2, 40500, Note_on_c, 0, 60, 64
2, 40560, Note_on_c, 0, 60, 0
2, 40560, Note_on_c, 0, 57, 0
2, 40560, Note_on_c, 0, 62, 64
2, 40560, Note_on_c, 0, 50, 64
2, 40620, Note_on_c, 0, 62, 0
2, 40620, Note_on_c, 0, 60, 64
2, 40680, Note_on_c, 0, 60, 0
2, 40680, Note_on_c, 0, 50, 0
2, 40680, Note_on_c, 0, 54, 64
2, 40680, Note_on_c, 0, 57, 64
2, 40740, Note_on_c, 0, 54, 0
2, 40740, Note_on_c, 0, 60, 64
2, 40800, Note_on_c, 0, 60, 0
2, 40800, Note_on_c, 0, 57, 0
2, 40800, Note_on_c, 0, 62, 64
2, 40800, Note_on_c, 0, 50, 64
2, 40860, Note_on_c, 0, 62, 0
2, 40860, Note_on_c, 0, 60, 64
2, 40920, Note_on_c, 0, 60, 0
2, 40920, Note_on_c, 0, 50, 0
2, 40920, Note_on_c, 0, 57, 64
2, 40920, Note_on_c, 0, 54, 64
2, 40980, Note_on_c, 0, 54, 0
2, 40980, Note_on_c, 0, 60, 64
2, 41040, Note_on_c, 0, 60, 0
2, 41040, Note_on_c, 0, 57, 0
2, 41040, Note_on_c, 0, 58, 64
2, 41040, Note_on_c, 0, 50, 64
2, 41100, Note_on_c, 0, 58, 0
2, 41100, Note_on_c, 0, 62, 64
2, 41160, Note_on_c, 0, 62, 0
2, 41160, Note_on_c, 0, 50, 0
2, 41160, Note_on_c, 0, 58, 64
2, 41160, Note_on_c, 0, 55, 64
2, 41220, Note_on_c, 0, 58, 0
2, 41220, Note_on_c, 0, 54, 64
2, 41280, Note_on_c, 0, 54, 0
2, 41280, Note_on_c, 0, 55, 0
2, 41280, Note_on_c, 0, 58, 64
2, 41280, Note_on_c, 0, 50, 64
2, 41340, Note_on_c, 0, 58, 0
2, 41340, Note_on_c, 0, 62, 64
2, 41400, Note_on_c, 0, 62, 0
2, 41400, Note_on_c, 0, 50, 0
2, 41400, Note_on_c, 0, 58, 64
2, 41400, Note_on_c, 0, 55, 64
2, 41460, Note_on_c, 0, 58, 0
2, 41460, Note_on_c, 0, 54, 64
2, 41520, Note_on_c, 0, 54, 0
2, 41520, Note_on_c, 0, 55, 0
2, 41520, Note_on_c, 0, 58, 64
2, 41520, Note_on_c, 0, 50, 64
2, 41580, Note_on_c, 0, 58, 0
2, 41580, Note_on_c, 0, 62, 64
2, 41640, Note_on_c, 0, 62, 0
2, 41640, Note_on_c, 0, 50, 0
2, 41640, Note_on_c, 0, 55, 64
2, 41640, Note_on_c, 0, 58, 64
2, 41700, Note_on_c, 0, 58, 0
2, 41700, Note_on_c, 0, 52, 64
2, 41760, Note_on_c, 0, 52, 0
2, 41760, Note_on_c, 0, 55, 0
2, 41760, Note_on_c, 0, 53, 64
2, 41760, Note_on_c, 0, 50, 64
2, 41820, Note_on_c, 0, 53, 0
2, 41820, Note_on_c, 0, 62, 64
2, 41880, Note_on_c, 0, 62, 0
2, 41880, Note_on_c, 0, 50, 0
2, 41880, Note_on_c, 0, 53, 64
2, 41880, Note_on_c, 0, 57, 64
2, 41940, Note_on_c, 0, 53, 0
2, 41940, Note_on_c, 0, 62, 64
2, 42000, Note_on_c, 0, 62, 0
2, 42000, Note_on_c, 0, 57, 0
2, 42000, Note_on_c, 0, 53, 64
2, 42000, Note_on_c, 0, 50, 64
2, 42060, Note_on_c, 0, 53, 0
2, 42060, Note_on_c, 0, 62, 64
2, 42120, Note_on_c, 0, 62, 0
2, 42120, Note_on_c, 0, 50, 0
2, 42120, Note_on_c, 0, 53, 64
2, 42120, Note_on_c, 0, 57, 64
2, 42180, Note_on_c, 0, 53, 0
2, 42180, Note_on_c, 0, 62, 64
2, 42240, Note_on_c, 0, 62, 0
2, 42240, Note_on_c, 0, 57, 0
2, 42240, Note_on_c, 0, 53, 64
2, 42240, Note_on_c, 0, 50, 64
2, 42300, Note_on_c, 0, 53, 0
2, 42300, Note_on_c, 0, 62, 64
2, 42360, Note_on_c, 0, 62, 0
2, 42360, Note_on_c, 0, 50, 0
2, 42360, Note_on_c, 0, 57, 64
2, 42360, Note_on_c, 0, 53, 64
2, 42420, Note_on_c, 0, 53, 0
2, 42420, Note_on_c, 0, 62, 64
2, 42480, Note_on_c, 0, 62, 0
2, 42480, Note_on_c, 0, 57, 0
2, 42480, Note_on_c, 0, 55, 64
2, 42480, Note_on_c, 0, 50, 64
2, 42540, Note_on_c, 0, 55, 0
2, 42540, Note_on_c, 0, 61, 64
2, 42600, Note_on_c, 0, 61, 0
2, 42600, Note_on_c, 0, 50, 0
2, 42600, Note_on_c, 0, 55, 64
2, 42600, Note_on_c, 0, 58, 64
2, 42660, Note_on_c, 0, 55, 0
2, 42660, Note_on_c, 0, 52, 64
2, 42720, Note_on_c, 0, 52, 0
2, 42720, Note_on_c, 0, 58, 0
2, 42720, Note_on_c, 0, 55, 64
2, 42720, Note_on_c, 0, 50, 64
2, 42780, Note_on_c, 0, 55, 0
2, 42780, Note_on_c, 0, 61, 64
2, 42840, Note_on_c, 0, 61, 0
2, 42840, Note_on_c, 0, 50, 0
2, 42840, Note_on_c, 0, 55, 64
2, 42840, Note_on_c, 0, 58, 64
2, 42900, Note_on_c, 0, 55, 0
2, 42900, Note_on_c, 0, 52, 64
2, 42960, Note_on_c, 0, 52, 0
2, 42960, Note_on_c, 0, 58, 0
2, 42960, Note_on_c, 0, 55, 64
2, 42960, Note_on_c, 0, 50, 64
2, 43020, Note_on_c, 0, 55, 0
2, 43020, Note_on_c, 0, 61, 64
2, 43080, Note_on_c, 0, 61, 0
2, 43080, Note_on_c, 0, 50, 0
2, 43080, Note_on_c, 0, 58, 64
2, 43080, Note_on_c, 0, 55, 64
2, 43140, Note_on_c, 0, 55, 0
2, 43140, Note_on_c, 0, 52, 64
2, 43200, Note_on_c, 0, 52, 0
2, 43200, Note_on_c, 0, 58, 0
2, 43200, Note_on_c, 0, 50, 64
2, 43216, Note_on_c, 0, 54, 64
2, 43228, Note_on_c, 0, 57, 64
2, 43244, Note_on_c, 0, 62, 64
2, 43919, Note_on_c, 0, 57, 0
2, 43919, Note_on_c, 0, 54, 0
2, 43920, Note_on_c, 0, 50, 0
2, 43927, Note_on_c, 0, 62, 0
2, 43927, End_track
0, 0, End_of_file
